<?xml version="1.0" encoding="UTF-8" standalone="no"?>
<svg xmlns:rdf="http://www.w3.org/1999/02/22-rdf-syntax-ns#" xmlns="http://www.w3.org/2000/svg" xml:space="preserve" height="159.7" width="146.34" version="1.1" xmlns:cc="http://creativecommons.org/ns#" xmlns:dc="http://purl.org/dc/elements/1.1/" viewBox="0 0 146.34501 159.69648"><g transform="matrix(.5 0 0 .5 .23712 .76273)"><g><path d="m5.6156 0.73537 21.117 56.266-0.01367 167-23.004 50.475h87.994v-104.05l35.818 80.717h34.959l35.787-80.688v104.02h89.234l-24.244-50.537v-167.23l20.748-55.969h-82.521l-56.53 130.56-56.48-130.57h-82.871zm-4.3203 289.84 7.6074 12.652-7.6348 12.898h288.69l-7.6172-12.906 7.6172-12.645h-288.67zm18.818 4.4277h0.48242l12.814 8.2832v8.4102h-13.297v-16.693zm16.016 0h13.303v16.693h-0.25586l-13.047-8.7402v-7.9531zm27.09 0h2.2734v1.4805l-2.2734-1.4805zm20.959 0h108.68v16.693h-104.6l-4.0859-2.7344v-13.959zm124.8 0h0.48242l12.814 8.2832v8.4102h-13.297v-16.693zm16.006 0h13.293v16.693h-0.25586l-13.037-8.7402v-7.9531zm27.076 0h2.2656v1.4805l-2.2656-1.4805zm20.947 0h8.8008l-5.7559 8.2031 5.8106 8.4902h-4.7774l-4.0781-2.7344v-13.959zm-204.85 5.3574 13.297 8.7637v2.5723h-13.297v-11.336zm188.84 0 13.295 8.7637v2.5723h-13.295v-11.336z"/><path d="m14.837 7.1204 18.281 48.719-0.01367 169.55-19.457 42.701h71.676v-127.8l46.355 104.47h26.656l46.324-104.45v127.79h72.703l-20.486-42.701v-169.83l17.955-48.438h-69.148l-60.717 140.26-60.674-140.26h-69.455zm5.2773 287.88v16.693h13.297v-8.4102l-12.814-8.2832h-0.48242zm16.016 0v7.9531l13.047 8.7402h0.25586v-16.693h-13.303zm27.09 0 2.2734 1.4805v-1.4805h-2.2734zm20.959 0v13.959l4.0859 2.7344h10.223l0.0215-16.693h-14.33zm124.8 0v16.693h13.297v-8.4102l-12.814-8.2832h-0.48241zm16.006 0v7.9531l13.037 8.7402h0.25586v-16.693h-13.293zm27.076 0 2.2656 1.4805v-1.4805h-2.2656zm20.947 0v13.959l4.0781 2.7344h4.7774l-5.8106-8.4902 5.7559-8.2031h-8.8008zm-204.85 5.3574v11.336h13.297v-2.5723l-13.297-8.7637zm188.84 0v11.336h13.295v-2.5723l-13.295-8.7637z" fill="#ffd520"/><path d="m21.54 11.767 16.227 43.232-0.016 171.39-16.885 37.045h59.812v-145.08l54.02 121.75h20.611l53.996-121.73v145.06h60.676l-17.752-36.998v-171.72l15.928-42.959h-59.42l-63.771 147.31-63.725-147.31h-59.701zm88.319 283.24c-0.39751 0.85125-0.71554 1.8068-0.93554 2.8418-5.6625 0.34-9.759 2.6438-9.7715 5.4375h46.363v-8.2793h-7.0566v1.9746h-17.957c-0.19875-0.7125-0.45579-1.3634-0.73829-1.9746h-9.9043zm35.656 8.2793v8.4141h7.0488v-2.0762h18.164c0.2075 0.7475 0.47821 1.4374 0.78321 2.0762h9.8027c0.42-0.875 0.75594-1.8635 0.99219-2.9473 5.6725-0.34875 9.7676-2.6455 9.7676-5.4492v-0.0176h-46.559zm46.559 0h0.7832v-8.2793h-11.49c0.39625 0.85125 0.7132 1.8068 0.93945 2.8418 5.6612 0.34 9.7488 2.6512 9.7676 5.4375zm-92.922 0h-0.6582l-0.01 8.4141h11.428c-0.42-0.875-0.75703-1.8635-0.98828-2.9473-5.6725-0.34875-9.7734-2.6455-9.7734-5.4492 0-0.0138 0.002-0.0151 0.002-0.0176zm53.412-8.2793v1.9746h18.164c0.195-0.7125 0.45079-1.3634 0.73828-1.9746h-18.902zm-32.062 14.617c-0.20876 0.7475-0.48267 1.4374-0.78516 2.0762h18.742v-2.0762h-17.957z" fill="#d00a2c"/></g><path d="m98.509 295-0.0117 8.2793h0.6582c0.0125-2.7938 4.109-5.0975 9.7715-5.4375 0.22-1.035 0.53804-1.9905 0.93554-2.8418h-11.354zm0.64648 8.2793c0 0.002-0.002 0.004-0.002 0.0176 0 2.8038 4.1009 5.1005 9.7734 5.4492 0.23124 1.0838 0.56827 2.0723 0.98828 2.9473h9.8047c0.30251-0.63875 0.57641-1.3287 0.78515-2.0762h17.957v2.0762h7.0566v-8.4141h-46.363zm46.363 0h46.559c-0.0188-2.7862-4.1063-5.0975-9.7676-5.4375-0.22625-1.035-0.5432-1.9905-0.93945-2.8418h-9.9004c-0.28749 0.61125-0.54329 1.2621-0.73828 1.9746h-18.164v-1.9746h-7.0488v8.2793zm46.559 0v0.0176c0 2.8038-4.0951 5.1005-9.7676 5.4492-0.23625 1.0838-0.57219 2.0723-0.99219 2.9473h11.543v-8.4141h-0.7832zm-72.311-8.2793c0.2825 0.61125 0.53954 1.2621 0.73829 1.9746h17.957v-1.9746h-18.695zm32.801 14.617v2.0762h18.947c-0.305-0.63875-0.57571-1.3287-0.78321-2.0762h-18.164z" fill="#fff"/></g></svg>
