<?xml version="1.0" encoding="UTF-8"?>
<svg width="200px" height="200px" viewBox="0 0 200 200" version="1.1" xmlns="http://www.w3.org/2000/svg" xmlns:xlink="http://www.w3.org/1999/xlink">
    <!-- Generator: Sketch 51.3 (57544) - http://www.bohemiancoding.com/sketch -->
    <title>air-force</title>
    <desc>Created with Sketch.</desc>
    <defs></defs>
    <g id="air-force" stroke="none" stroke-width="1" fill="none" fill-rule="evenodd">
        <g id="air-force_BGL" transform="translate(13.793103, 0.000000)" fill="#2A3C98">
            <g id="air-force">
                <g id="g10" transform="translate(85.999998, 100.356227) scale(-1, 1) rotate(-180.000000) translate(-85.999998, -100.356227) translate(0.000000, 0.324269)" fill-rule="nonzero">
                    <g id="g12">
                        <path d="M47.9880598,124.819694 L57.4312255,157.559817 L66.8744522,124.819694 L47.9880598,124.819694 Z M93.9784799,137.766949 L93.9784799,119.436934 L107.176125,119.436934 L107.176125,80.3583945 L100.619388,80.3583945 L66.3145373,199.926869 L60.3684609,199.926869 L59.2081319,199.926869 L55.183332,199.926869 L52.826749,199.926869 L48.0771704,199.926869 L13.7720153,80.3583945 L0,80.3583945 L0,62.0283794 L46.989301,62.0283794 L46.989301,80.3583945 L35.1638133,80.3583945 L42.7010117,106.489679 L72.1613173,106.489679 L79.6988207,80.3583945 L67.873516,80.3583945 L67.873516,62.0283794 L107.176125,62.0283794 L107.176125,54.9905958 L107.176125,42.7702391 L107.176125,18.3305657 L92.8183948,18.3305657 L92.8183948,0 L139.80794,0 L139.80794,18.3305657 L125.4496,18.3305657 L125.4496,42.7702391 L125.4496,54.9905958 L125.4496,62.0283794 L148.896493,62.0283794 L148.896493,53.6629546 L159.2415,53.6629546 L159.2415,62.0283794 L159.2415,80.3583945 L159.2415,88.7231464 L148.896493,88.7231464 L148.896493,80.3583945 L125.4496,80.3583945 L125.4496,119.436934 L153.150138,119.436934 L153.150138,104.889167 L171.424223,104.889167 L171.424223,119.436934 L171.424223,119.728159 L171.424223,137.766949 L93.9784799,137.766949 Z" id="path14"></path>
                    </g>
                </g>
            </g>
        </g>
    </g>
</svg>