<svg width="200" height="200" xmlns="http://www.w3.org/2000/svg"><g fill="none"><path d="M160.708 132.754h-1.966v5.05h-1.401v-5.05h-1.978v-1.247h5.345v1.247zm8.055 5.05h-1.401v-5.08h-.031l-1.824 5.08h-.81l-1.824-5.08h-.031v5.08h-1.402v-6.297h2.275l1.387 3.725 1.388-3.725h2.273v6.297z" fill="#0E1531"/><path fill="#AA9A5C" d="M199.657 48.197L50.707 68.754l-.951.1-.588.754-28.538 36.341-4.897 6.238 7.452-2.706 30.416-11.04 26.592-3.881L0 151.424l141.931-15.522.947-.1.59-.753 28.456-36.238 4.864-6.192-7.41 2.657-30.65 10.985-26.318 3.847 87.247-61.91"/><path fill="#0E1531" d="M191.22 51.388L50.95 71.008l-28.537 36.343 30.63-11.121 36.193-5.284-80.802 57.283 133.249-14.578 28.46-36.241-30.862 11.067-35.89 5.237 87.83-62.326"/><path fill="#FFF" d="M161.99 66.298l-28.645 3.668 41.589-11.87L53.527 75.647 36.832 96.911l15.01-5.45 56.928-8.313-71.102 50.178 32.247-9.191-38.502 16.637 107.695-11.763 16.695-21.264-15.328 5.5-56.607 8.264 78.121-55.21"/><path d="M69.785 123.68l.318.89-35.617 15.39 104.372-11.4 15.557-19.814-13.825 4.96-.047.007-56.607 8.264-.342-.855 76.568-54.112-26.757 3.426-.19-.925 34.825-9.94L53.783 76.09 38.227 95.9l13.5-4.9.047-.007 56.928-8.313.341.855-68.827 48.572 29.57-8.427zm-38.32 17.562l-.24-.905L63.06 126.58l-25.263 7.2-.402-.842 69.485-49.036-54.921 8.02-16.523 5.998 17.836-22.715.188-.027 121.406-17.552.197.924-35.555 10.15 22.421-2.872.334.857-76.508 54.07 54.605-7.972 16.83-6.04-17.833 22.715-.198.022-107.694 11.762z" fill="#FFF"/></g></svg>