<svg width="200" height="200" xmlns="http://www.w3.org/2000/svg" xmlns:xlink="http://www.w3.org/1999/xlink"><defs><path d="M11.645.036c2.277-.212 4.86 2.695 3.419 2.799-7.144.514-2.072 16.263-10.58 17.402-1.803.241-12.352-18.382 7.161-20.2Z" id="a"/><path d="M4.559 31.928c8.835 4.163 19.02 1.624 27.253-1.973 0 0 27.766-10.915 48.792-29.938-13.924 11.05-30.019 17.625-46.485 22.92-10.895 3.226-22.254 5.062-34.1 5.4.62 1.692 3.094 2.828 4.54 3.59Z" id="c"/><path d="M.397 18.467C6.417 9.332 28.173 5.62 30.754 5.864 30.566 4.358 27.939.157 27.053.085 15.959-.825 1.582 6.324.633 8.368c-.555 2.828-.92 7.169-.236 10.1Z" id="e"/><path d="M3.71 28.112S5.05 17.059 29.887 6.446c.02-.68-.491-1.219-.12-1.9.825-1.074 1.32-2.396 2.103-3.49.062-.29-.248-.701-.392-.99C29.64-.612 4.839 4.269.018 19.416c.208 2.663 3.362 8.367 3.691 8.697Z" id="g"/><path d="M.008 9.552C9.644 4.772 21.99 5.775 21.99 5.775c-.084-1.466.07-3.204-.406-4.504-11.088-3.16-18.447.682-18.447.682C1.86 3.955.666 7.28.008 9.552Z" id="i"/><path d="M5.129 31.05c2.415.68 4.846.787 7.55.682C11.95 21.572 24.851 6.707 30.966 3.96c0 0-3.655-3.053-5.678-3.898C23.369-.905 3.406 10.753.02 26.136c1.075 2.063 3.003 3.76 5.109 4.914Z" id="k"/><path d="M.01 4.49c8-1.684 15.136 1.148 15.136 1.148.35-.083.287-2.23-.044-2.745C12.648.45 5.033-.568 2.496.32 1.526 1.023.278 3.08.01 4.49Z" id="m"/><path d="M7.907 5.068c.454.02.64-.64.722-1.074.082-.474.308-1.012.06-1.485C7.307 1.105 5.138-.233 3.074.037 2.145.657.905 1.487.018 2.21c2.704.081 6.05.775 7.889 2.858Z" id="o"/><path d="M13.53 26.313c-.504-10.105 6.644-18.436 7.555-19.103-.043-.908-5.657-5.573-8.136-7.181-1.836-.102-2.22 1.932-3.56 3.048C3.531 9.685.461 17.571.012 26.405c-.144.393 8.602.289 13.517-.092Z" id="q"/><path d="M.113 26.675c.929.289 14.466-2.287 19.975-3.776 1.032.144 2.312-.084 2.911.906-.103.62-.577 1.136-.452 1.816-4.724 4.44-9.675 8.634-14.894 12.31.268.6 1.012.723 1.528 1.032 6.73 2.37 15.875 2.774 22.147-.84 4.266-2.46 5.744-6.234 5.744-6.234-15.243-4.27-12.654-15.453-12.036-17.827 0 0-2.634-7.394 1.52-11.93.06-.64-2.173-3.502-4.727-1.297-.752 1.674-1.508 4.699-6.17 2.316-.987-.505-2.002.97-3.033 1.405.226.982-.056 4.008-3.837 3.759-.093 3.466-5.2 1.578-5.2 1.578C-.947 16.324.113 26.675.113 26.675Z" id="s"/><path d="M7.403 27.022c2.681 1.303 7.896 1.84 10.85.412 1.244-.601 5.414-2.759 5.414-2.759-.29.785-1.817 2.11-2.457 2.688 1.074.164 5.302-2.38 6.953-3.516-1.837-1.402-3.802-2.35-5.455-4.248-2.022-1.836-3.575-4.961-6.319-5.94-.765-.846-.456-2.208-.106-3.158.702-.702 1.342-1.714 2.416-1.405.64.35.401 1.155.71 1.681 3.348 5.688 10.738 9.024 11.708 9.209 1.134-1.219 1.35-3.157 1.495-4.87.041-.352-.123-.56-.476-.683-.989.352-1.445-.495-1.817-1.155-.068-2.401 1.487-2.395 2.498-2.23 1.205-3.991-1.246-9.865-3.993-11.019a2.148 2.148 0 0 0-2.123.95c-.353 1.776 1.14 3.573 1.14 3.573-1.57-1.113-8.254-6.348-13.545-2.847-2.457 2.743-2.738 7.107-3.769 10.699-.803 3.262-1.358 6.77-4.162 9.063-.538.372-1.197.64-1.9.414-.784-.226-1.155-1.072-1.527-1.712 0 0-2.233-4.849-2.605-4.683-.494.888-.287 2.208-.183 3.199.56 3.735 3.92 6.72 7.253 8.337Z" id="u"/><path d="M13.572 13.391c1.689 0 3.462.389 5.826 1.522 1.618.776 4.16-2.555 4.16-2.555C22.134-.027 11.519-.145 9.31.042c-.104.29.022.703.022 1.033-.041 2.869-1.752 5.655-4.455 6.69C3.146 8.817 1.107 9.82.014 11.802c0 0 9.579-6.11 13.558 1.588Z" id="w"/><path d="M13.572 13.391c1.689 0 3.462.389 5.826 1.522 1.618.776 4.16-2.555 4.16-2.555C22.134-.027 11.519-.145 9.31.042c-.104.29.022.703.022 1.033-.041 2.869-1.752 5.655-4.455 6.69C3.146 8.817 1.107 9.82.014 11.802c0 0 9.579-6.11 13.558 1.588Z" id="y"/><path d="M1.069 11.16c1.164-2.222 1.38-3.876 1.377-6.428C2.446 2.89-.268-.065.027.008c8.483 2.075 8.855 7.981 9.85 12.47l-.172 1.324c-.52.047-.82.189-1.34.19-2.763 0-5.482-.612-7.296-2.832Z" id="A"/><path d="M17.969 11.248c.246 0-1.984-1.387-2.126-3.6-.066-1.003-4.952 1.373-13.29-6.508C1.927.548.916-.298.139.12c-.543.279.998 1.03 1.28 1.588.562 1.131 6.832 8.078 14.563 9.258.68.103 1.301.282 1.987.282Z" id="C"/><path d="M13.318.158c1.842 0 3.157-.079 5-.132 2.816 3.34-11.913 29.117-12.546 29.589-1.941 1.45-6.422 1.473-5.686.246C7.275 17.877 11.572 13.149 12.832 3.707c.15-1.121-.25-1.469-.251-2.602 0-.473.262-.947.737-.947Z" id="E"/><path d="M5.36 18.328a3.77 3.77 0 0 1-3.291 1.878c-1.423 0-1.72-1.633-1.72-2.945l-.001-2.029c0-.743.535-4.456.534-6.113C1.203 4.285.02 2.56.018.853.018.53.153.308.233.01c1.423.494 1.692 1.706 3.115 2.176 1.235.42 3.88.417 3.43 1.557-2.525 6.396-2.133 12.015-2.133 12.015.135.816.097 2 .715 2.57Z" id="G"/><path d="M4.511 23.863c-2.53.844-3.589-1.485-4.49-2.638C5.826 16.237 11.58 7.465 12.23 4.788c.448-1.892 1.87-5.804 3.446-4.523 2.16 1.75 2.594 3.112 2.46 5.72-.074 1.491-4.83 5.166-7.893 8.933-2.401 2.955-4.202 8.434-5.732 8.945Z" id="I"/></defs><g fill="none" fill-rule="evenodd"><g fill-rule="nonzero"><path d="M28.892 51.953c-7.684-.037-32.46 17.204-27.56 39.662.482 2.21 2.794 2.172 4.348 1.515 19.671-8.31 31.776-13.976 55.793-16.61 0 0-7.754 2.075-11.477 8.439-.047.081 1.355.726.792 2.362-2.872 4.828-6.239 9.469-7.358 14.979.661.393 1.548.93 1.63 1.776-1.304 6.027-3 12.98-.714 19.09.95.332 2.022.436 2.806 1.076 1.38 4.624 2.367 9.371 5.09 13.419.618.165 1.34.062 1.774.682 1.69 2.313 1.523 5.449 3.875 7.432 1.548-.019 2.54 1.437 3.86 2.12l7.941 4.452c10.477 5.322 16.074 1.508 16.02 1.451.054.057-11.23.34-12.218-7.723-.31-1.219-.991-9.324.713-15.28.57-2.457 4.672-7.784 4.672-7.784s9.247 11.466 9.353 19.544c-.517 1.589-.87 3.363-.561 5.16.081 1.403 1.546 2.25 1.566 3.673-.54 4.83-3.864 8.48-6.633 12.379.496.25 1.197.125 1.754.105 2.374-.535 4.82-1.57 6.277-3.67 1.347-1.94 2.368-3.273 4.267-2.963.828-2.806-.402-6.197 1.251-8.652.58-.785 1.342-1.722 1.358-1.792.78-3.048-3.948-14.185-3.948-14.185-.02-2.338.477-2.868 1.634-3.795 6.477 5.618 13.133 19.017 13.133 19.017 8.509 2.653 7.584 17.774 7.415 23.016 0 0 5.813-6.746 3.361-19.228-.194-.987.06-3.73.949-4.35-1.484-3.837-3.714-1.87-4.662-5.916-.165-.763-.02-1.753-.968-2.084-6.457-4.278-10.746-11.42-14.394-17.842 0 0 1.885-10.318 2.898-13.33.268-.908.806-2.105 1.942-2.166.598.103 1.051.785 1.402 1.239 1.628 3.386 1.089 7.43 1.19 11.394.1 2.868-1.447 4.873-.006 8.442 3.383 2.375 5.775 5.782 7.981 8.982 2.578 4.068 5.259 8.073 6.183 12.82.888.455 1.735.972 2.64 1.345.888.206 2.022.206 2.601-.598 3.244-.93 11 6.036 13.042 9.073.992-2.622-2.979-11.356-5.608-13.217-.65-.46-.06-1.464.227-2.042-1.009-1.28-2.64-.436-3.818-.147-.577.164-1.238.412-1.837.204-.019-.185.186-.288.23-.473.142-.454.227-1.012-.063-1.404-2.7-3.18-7.745-7.609-7.464-9.788.268-1.59 1.383-2.868 2.48-4.085.37-1.156.002-2.456-.102-3.674-.265-2.89-.057-6.027.976-8.626 1.156.269 2.416.332 3.446.91 1.858.766 2.454 2.747 2.35 4.604 1.774.435 4.499-.925 5.488 1.221 1.28 3.696-.17 8.503 2.676 11.56.04 1.94-.757 4.08-.924 5.918 0 0 1.107-.737 1.5-.716.826.33.74 1.218 1.009 1.9.967 2.58 2.366 5.435 4.965 7.13-.267-1.033-2.484-7.847-1.23-10.954.293-.72.56-.694 1.2-.776.31-.082.476-.412.454-.722-.35-1.135-1.65-2.037-.5-3.53-.806-.991-5.067-7.012-4.772-11.995l1.159-1.71c2.085-2.105 4.624-4.353 5.059-7.304.207-.723.166-1.548.475-2.209 1.509-.886 3.184-1.652 4.255-3.257 3.433-5.147-.385-9 1.6-12.96.472-.847 1.128-1.37 2.016-1.514.689.949 2.227 4.235 2.238 4.32 1.383 10.465 5.493 14.227 9.248 15.819l.003-.083c-4.413-4.791-4.681-11.077-5.441-17.372-.927-1.445-1.558-2.596-2.066-4.89 1.385-1.196 5.725-1.639 6.594-1.659.495.186.804.702 1.05 1.156-3.856 12.91 1.24 19.797 1.675 19.92-.33-.742-1.099-9.863.653-13.458-.535-2.828.541-5.345 1.225-7.842.207-1.28.95-2.806.084-4.004-.29-.371-8.819.405-11.751 3.05 0 0-.47-6.996-1.421-8.11-3.345.101-6.66 1.456-9.571 2.734-4.518-3.079-9.448-5.332-15.187-5.398-.68-.928-1.692-2.801-1.662-2.745C144.971 55.586 192.69 39.45 192.69 39.45c1.94-.928 5.078-1.867 5.018-4.475-.134-6.093-36.853-7.853-42.822-2.072-2.066-.703-6.994-1.577-9.172-.733-12.672 4.91-21.604 35.27-21.604 35.27s-10.06-6.777-25.943.306c0 0-24.106-17.6-45.453-22.403-8.723-1.963-17.748.112-23.822 6.61ZM153.4 84.355l.804 3.674c-.744.557-1.318 1.092-2.143 1.546-.142-1.57-1.036-4.14-1.563-4.933l2.902-.287Zm-67.978 33.04c4.625-3.156 5.785-8.418 9.234-12.399l.144.042.701 1.342c1.097 1.342-4.486 10.812-5.623 13.432-.206.66 1.072 3.364-.395 4.396l-.042.04c-1.422-2.147-2.68-4.458-4.02-6.69v-.164Zm29.54-8.67c2.312-.102 4.479.353 6.17 1.717-.478 4.746-1.287 9.328-3.6 13.29h-.124l-1.175-2.23c-.988-3.882-1.831-7.907-1.56-12.22.103-.186.083-.454.289-.558Z" fill="#231F20"/><path d="M129.705 108.098c2.276.212 4.859-2.695 3.419-2.798-7.144-.515-2.072-16.264-10.58-17.403-1.803-.241-12.352 18.382 7.16 20.2" fill="#645B61"/></g><g transform="matrix(1 0 0 -1 118.06 108.134)"><mask id="b" fill="#fff"><use xlink:href="#a"/></mask><g mask="url(#b)" fill="#E0E1E2" fill-rule="nonzero"><path d="M7.884 20.95s.402-2.152.861-2.718c-4.831-2.155-5.392-7.576-5.496-9.907 0 0-3.59 5.769 4.635 12.625"/></g></g><g fill-rule="nonzero"><path d="M29.15 53.81c37.818-1.114 73.76 19.986 83.413 28.764v.082c-.763-.062-1.324.636-2.105.288C60.914 60.824 7.775 90.017 7.775 90.017c-1.383.226-3.04 2.167-4.314.327-4.767-17.546 17.087-36.28 25.688-36.534" fill="#E0E1E2"/><path d="M36.148 48.33c8.836-4.163 19.022-1.623 27.254 1.973 0 0 27.766 10.915 48.792 29.938-13.924-11.05-30.019-17.625-46.485-22.919-10.896-3.227-22.254-5.063-34.1-5.4.62-1.693 3.094-2.829 4.54-3.591" fill="#A5A2AA"/></g><g transform="matrix(1 0 0 -1 31.59 80.258)"><mask id="d" fill="#fff"><use xlink:href="#c"/></mask><g mask="url(#d)" fill="#E0E1E2" fill-rule="nonzero"><path d="m12.123 33.058 16.15-4.736c4.463-1.487-3.51.164-3.51.164-20.42 6.25-19.544 1.834-19.544 1.834 3.688.377 4.405-.194 7.603-.858 8.782-1.878 18.71-3.298 27.065-6.389 6.455-2.388 8.931-5.418 15.285-8.6C58.953 12.58 83.964-2.123 83.964-2.123c-.945.946-17.58 16.622-44.615 27.604-15.907 6.461-16.04 6.373-16.423 5.943-1.917-2.151-4.592 1.839-10.803 1.635"/></g></g><path d="M45.16 111.038c6.019 9.136 27.776 12.849 30.356 12.603-.187 1.506-2.815 5.707-3.7 5.78-11.094.91-25.472-6.24-26.42-8.284-.555-2.828-.92-7.168-.237-10.099" fill="#E3B310" fill-rule="nonzero"/><g transform="matrix(1 0 0 -1 44.763 129.506)"><mask id="f" fill="#fff"><use xlink:href="#e"/></mask><g mask="url(#f)" fill-rule="nonzero"><path d="M46.577 34.062c-.52.236-.377 1.938-.945 2.08-1.088-2.694-2.414-6.854-5.11-7.94-2.458-.99-8.931 5.489-10.397 3.22-1.42-2.173 3.54-8.747 1.129-9.644-2.601-.992-8.51.714-8.51-2.076-.002-2.08 3.779-4.73 3.777-6.808-.002-2.931-6.004-1.18-8.699-2.266.755-1.276 5.67-6.054 5.67-7.566-.001-1.796-4.73-2.36-4.73-4.158-.002-2.837 5.481-2.461 5.48-5.297 0-1.513-2.27-1.701-2.27-3.213-.001-1.844 2.172-1.94 3.212-3.407l-2.27-2.456c1.085-2.649 3.025-.947 4.724-5.487.237.661 1.703 1.323 1.704 2.08 0 2.553-1.512 3.876-1.51 6.43.004 8.508 1.331 13.992 6.629 20.797 2.082 2.693 2.036 5.387 4.732 7.371 2.79 2.079 4.35 3.45 6.432 6.238 1.94 2.599 5.486 3.164 5.487 6.426.002 2.93-2.03 4.208-4.535 5.676" fill="#CDA917"/><path d="M45.633 37.465c-5.297-3.968-10.213-2.405-16.265-5.285-3.31-1.559-2.037-5.814-4.92-7.94-1.04-.756-2.08-.472-3.216-1.133-2.932-1.748-1.42-5.199-3.219-8.129-1.324-2.175-3.216-3.214-3.217-5.767 0-1.56.945-2.316.943-3.876 0-2.175-2.46-2.93-2.461-5.104-.001-2.695 4.16-2.79 4.158-5.486-.001-.756-.38-1.135-.38-1.891 0-2.458 2.788-2.696 4.158-4.73 1.89-2.79 1.982-5.06 3.966-7.755-.52-.046-.803-.188-1.323-.188-1.654 0-1.7 2.08-2.646 3.405-2.22 3.075-4.063 4.54-5.857 7.945-.85 1.608-.14 2.932-.943 4.54C13.136-1.33 9.498 3.162 9.5 6.094c.002 2.694 3.405.755 3.405 3.448.002 1.23-.187 1.892-.186 3.121 0 2.363 2.223 3.118 3.029 5.34.804 2.222.568 3.687.57 6.05 0 2.506 2.649 3.025 3.595 5.294.805 2.032.522 3.593 1.705 5.483 1.182 1.89 3.263 1.417 5.295 2.266 2.412 1.039 2.98 3.071 5.297 4.157 3.642 1.7 6.194 1.7 10.213 1.697 2.221-.001 3.07-3.264 3.211-5.486" fill="#FBC707"/></g></g><path d="M49.456 93.058s1.34 11.053 26.178 21.666c.02.681-.49 1.22-.12 1.9.825 1.074 1.32 2.396 2.103 3.49.062.29-.247.701-.392.99-1.837.68-26.64-4.202-31.46-19.349.207-2.663 3.361-8.367 3.69-8.697" fill="#E3B310" fill-rule="nonzero"/><g transform="matrix(1 0 0 -1 45.746 121.17)"><mask id="h" fill="#fff"><use xlink:href="#g"/></mask><g mask="url(#h)" fill-rule="nonzero"><path d="M45.592 25.348c-.519.236-.377 1.938-.944 2.08-1.088-2.694-2.414-6.853-5.11-7.94-2.458-.99-8.932 5.49-10.398 3.22-1.419-2.173 3.541-8.747 1.13-9.644-2.601-.991-8.51.714-8.51-2.075-.002-2.08 3.779-4.73 3.778-6.81-.002-2.93-6.004-1.179-8.7-2.265.755-1.276 5.67-6.053 5.669-7.566-.001-1.796-4.729-2.361-4.73-4.157-.001-2.837 5.482-2.462 5.482-5.298-.002-1.513-2.27-1.7-2.271-3.214-.001-1.843 2.172-1.94 3.212-3.405l-2.27-2.457c1.085-2.649 3.025-.948 4.724-5.486.237.661 1.703 1.323 1.703 2.08.001 2.552-1.51 3.876-1.51 6.428.005 8.51 1.332 13.993 6.63 20.799 2.082 2.692 2.036 5.386 4.732 7.37 2.79 2.08 4.35 3.45 6.432 6.238 1.94 2.6 5.485 3.164 5.487 6.426.002 2.931-2.03 4.209-4.536 5.676" fill="#CDA917"/><path d="M44.648 28.752c-5.296-3.968-10.211-2.405-16.264-5.286-3.31-1.559-2.036-5.814-4.92-7.94-1.04-.756-2.08-.471-3.216-1.133-2.932-1.747-.475-4.443-2.273-7.373-1.325-2.174-4.162-3.97-4.163-6.522 0-1.56.944-2.316.943-3.877-.002-2.174-2.46-2.929-2.461-5.103-.002-2.695 4.158-2.792 4.158-5.486-.002-.757-.38-1.134-.38-1.892-.001-2.458 2.788-2.696 4.158-4.73 1.89-2.79 1.982-5.059 3.967-7.754-.52-.047-.804-.19-1.325-.188-1.654 0-1.7 2.08-2.645 3.404-2.22 3.074-4.063 4.541-5.857 7.945-.85 1.608-.14 2.932-.943 4.54-1.275 2.6-3.402 3.877-3.4 6.809 0 2.694 1.892 3.969 1.893 6.664.001 1.23-.187 1.892-.186 3.121 0 2.363-.613 4.444.192 6.665.805 2.221 3.405 2.362 3.406 4.725 0 2.506 2.65 3.025 3.596 5.293.805 2.032.521 3.593 1.705 5.483 1.182 1.89 3.262 1.417 5.295 2.267 2.412 1.038 2.98 3.07 5.297 4.156 3.641 1.7 6.194 1.7 10.212 1.698 2.222-.002 3.071-3.264 3.211-5.486" fill="#FBC707"/></g></g><path d="M50.1 128.644c9.636 4.78 21.983 3.777 21.983 3.777-.084 1.466.07 3.204-.406 4.504-11.088 3.161-18.447-.682-18.447-.682-1.278-2.001-2.472-5.328-3.13-7.599" fill="#E3B310" fill-rule="nonzero"/><g transform="matrix(1 0 0 -1 50.092 138.196)"><mask id="j" fill="#fff"><use xlink:href="#i"/></mask><g mask="url(#j)" fill-rule="nonzero"><path d="M41.247 42.374c-.52.236-.377 1.938-.944 2.08-1.089-2.694-2.414-6.853-5.11-7.94-2.459-.99-8.932 5.49-10.399 3.22-1.418-2.173 3.542-8.746 1.13-9.644-2.6-.991-8.51.714-8.51-2.075-.001-2.08 3.78-4.73 3.778-6.81-.002-2.93-6.004-1.179-8.7-2.265.756-1.275 5.67-6.053 5.67-7.566-.001-1.796-4.73-2.361-4.73-4.157-.001-2.836 5.482-2.462 5.481-5.298 0-1.513-2.27-1.7-2.27-3.214-.002-1.843 2.172-1.94 3.212-3.405l-2.27-2.457c1.085-2.648 3.025-.947 4.724-5.486.237.662 1.702 1.323 1.702 2.08.002 2.553-1.51 3.876-1.509 6.429.005 8.51 1.332 13.992 6.63 20.798 2.082 2.692 2.035 5.387 4.732 7.37 2.79 2.08 4.35 3.45 6.432 6.238 1.939 2.6 5.485 3.165 5.486 6.427.003 2.93-2.03 4.208-4.535 5.675" fill="#CDA917"/><path d="M40.303 45.778c-5.297-3.968-10.212-2.405-16.265-5.286-3.31-1.558-2.036-5.814-4.92-7.94-1.04-.755-2.08-.471-3.215-1.133-2.932-1.747-1.42-5.199-3.22-8.13-1.324-2.172-3.215-3.212-3.217-5.764 0-1.56.945-2.317.944-3.878-.002-2.174-2.46-2.929-2.462-5.103 0-2.695 4.16-2.792 4.158-5.486-.001-.757-.378-1.134-.38-1.892 0-2.458 2.79-2.696 4.159-4.73 1.89-2.79 1.982-5.059 3.966-7.754-.52-.047-.803-.19-1.324-.188-1.654 0-1.7 2.08-2.645 3.405-2.22 3.073-4.063 4.54-5.857 7.944-.85 1.608-1.655.852-2.457 2.46-1.276 2.601-1.889 5.958-1.887 8.889.001 2.694 1.893 3.969 1.894 6.664 0 1.23-.187 1.892-.187 3.121.001 2.363 2.223 3.118 3.029 5.34.804 2.222.57 3.687.57 6.05 0 2.506 2.649 3.025 3.596 5.294.804 2.031.52 3.592 1.705 5.482 1.182 1.891 3.262 1.417 5.295 2.267 2.412 1.039 2.98 3.07 5.297 4.157 3.64 1.7 6.194 1.698 10.212 1.697 2.222-.002 3.071-3.264 3.211-5.486" fill="#FBC707"/></g></g><path d="M57.215 80.583c2.416-.68 4.847-.788 7.55-.682-.728 10.159 12.174 25.024 18.29 27.77 0 0-3.656 3.053-5.68 3.898-1.919.969-21.882-10.69-25.268-26.073 1.075-2.063 3.003-3.759 5.108-4.913" fill="#E3B310" fill-rule="nonzero"/><g transform="matrix(1 0 0 -1 52.087 111.632)"><mask id="l" fill="#fff"><use xlink:href="#k"/></mask><g mask="url(#l)" fill-rule="nonzero"><path d="M39.252 15.81c-.52.236-.377 1.938-.944 2.08-1.089-2.694-2.414-6.853-5.11-7.94-2.459-.99-8.932 5.49-10.399 3.22-1.418-2.173 3.542-8.746 1.13-9.644-2.6-.991-8.51.714-8.51-2.075-.001-2.08 3.78-4.73 3.778-6.81-.002-2.93-6.004-1.179-8.7-2.265.756-1.276 5.67-6.053 5.67-7.566-.001-1.796-4.73-2.361-4.73-4.157-.001-2.836 5.482-2.462 5.481-5.298 0-1.513-2.27-1.7-2.27-3.214-.002-1.843 2.172-1.94 3.212-3.405l-2.27-2.457c1.085-2.649 3.025-.948 4.724-5.486.237.662 1.702 1.323 1.702 2.08.002 2.552-1.51 3.876-1.509 6.429.005 8.51 1.332 13.992 6.63 20.798 2.082 2.692 2.035 5.387 4.732 7.37 2.79 2.08 4.35 3.45 6.432 6.238 1.939 2.6 5.485 3.164 5.486 6.427.003 2.93-2.03 4.208-4.535 5.675" fill="#CDA917"/><path d="M38.308 19.214c-5.297-3.968-10.212-2.405-16.265-5.286-3.31-1.559-2.036-5.814-4.92-7.94-1.04-.756-2.08-.471-3.215-1.133-2.932-1.747-1.421-5.199-3.22-8.13-1.324-2.173-3.215-3.212-3.217-5.764 0-1.56.944-2.317.944-3.878-.002-2.174-2.46-2.929-2.462-5.103-.001-2.695 4.16-2.792 4.158-5.486-.001-.757-.379-1.134-.38-1.892 0-2.458 2.79-2.696 4.159-4.73 1.89-2.79 1.982-5.059 3.966-7.754-.52-.047-.803-.19-1.324-.188-1.654 0-1.7 2.08-2.645 3.404-2.22 3.074-4.063 4.541-5.857 7.945-.85 1.608-.141 2.933-.944 4.54-1.275 2.6-3.402 3.877-3.4 6.809.001 2.694 1.893 3.969 1.894 6.664 0 1.23-.187 1.892-.187 3.121.001 2.363 2.223 3.118 3.029 5.34.804 2.222.57 3.687.57 6.05 0 2.506.569 3.593 1.515 5.862.805 2.032.334 3.781 1.517 5.672 1.182 1.89 5.531.659 7.564 1.509 2.412 1.038 2.98 3.07 5.297 4.156 3.64 1.7 6.194 1.7 10.212 1.698 2.222-.002 3.071-3.264 3.211-5.486" fill="#FBC707"/></g></g><path d="M56.278 140.347c8 1.684 15.136-1.147 15.136-1.147.35.083.287 2.23-.044 2.745-2.454 2.443-10.069 3.46-12.606 2.572-.97-.703-2.217-2.758-2.486-4.17" fill="#E3B310" fill-rule="nonzero"/><g transform="matrix(1 0 0 -1 56.268 144.837)"><mask id="n" fill="#fff"><use xlink:href="#m"/></mask><g mask="url(#n)" fill-rule="nonzero"><path d="M35.07 49.015c-.519.236-.377 1.938-.943 2.08-1.089-2.694-2.415-6.853-5.11-7.94-2.459-.99-8.933 5.49-10.399 3.22-1.419-2.173 3.541-8.746 1.13-9.644-2.6-.991-8.51.714-8.51-2.075-.002-2.08 3.78-4.73 3.778-6.81-.002-2.93-6.004-1.179-8.7-2.265.756-1.275 5.67-6.053 5.669-7.566 0-1.796-4.729-2.361-4.73-4.157 0-2.836 5.483-2.462 5.482-5.298-.001-1.513-2.27-1.7-2.271-3.214-.001-1.843 2.173-1.94 3.213-3.405l-2.27-2.457c1.085-2.648 3.024-.947 4.723-5.486.237.662 1.703 1.323 1.703 2.08.002 2.553-1.51 3.876-1.509 6.429.005 8.51 1.331 13.992 6.629 20.798 2.082 2.692 2.036 5.387 4.732 7.37 2.79 2.08 4.35 3.45 6.432 6.238 1.94 2.6 5.485 3.165 5.487 6.427.002 2.93-2.03 4.208-4.536 5.675" fill="#CDA917"/><path d="M34.127 52.42c-5.297-3.97-10.212-2.406-16.265-5.287-3.31-1.558-2.036-5.814-4.92-7.94-1.04-.755-2.08-.471-3.216-1.133-2.932-1.747-1.42-5.199-3.219-8.13-1.324-2.172-3.216-3.212-3.217-5.764 0-1.56.944-2.317.943-3.878-.001-2.174-2.46-2.929-2.461-5.103-.001-2.695 4.159-2.792 4.158-5.486-.001-.757-.379-1.134-.38-1.892C5.55 5.35 8.34 5.111 9.708 3.077c1.89-2.79 1.983-5.059 3.967-7.754-.52-.047-.804-.19-1.324-.188-1.654 0-3.97 3.405-4.913 4.73-2.22 3.073-1.796 3.215-3.59 6.62-.85 1.607-.14 2.932-.943 4.54-1.275 2.6-3.402 3.877-3.4 6.808 0 2.694 1.892 3.969 1.894 6.664 0 1.23-.188 1.892-.187 3.121 0 2.363 2.223 3.118 3.028 5.34.804 2.222.57 3.687.57 6.05.001 2.506 2.65 3.025 3.596 5.294.805 2.031.521 3.592 1.706 5.482 1.181 1.891 3.262 1.417 5.295 2.267 2.411 1.039 2.98 3.07 5.296 4.157 3.641 1.7 6.194 1.698 10.212 1.697 2.223-.002 3.072-3.264 3.212-5.486" fill="#FBC707"/></g></g><path d="M71.472 144.442c.454-.02.64.641.722 1.074.082.475.308 1.012.06 1.486-1.383 1.403-3.552 2.741-5.616 2.471-.928-.62-2.167-1.45-3.055-2.172 2.704-.082 6.05-.775 7.889-2.859" fill="#E3B310" fill-rule="nonzero"/><g transform="matrix(1 0 0 -1 63.565 149.51)"><mask id="p" fill="#fff"><use xlink:href="#o"/></mask><g mask="url(#p)" fill-rule="nonzero"><path d="M27.773 53.688c-.519.236-.377 1.939-.943 2.08-1.089-2.693-2.415-6.853-5.11-7.939-2.459-.991-8.933 5.489-10.399 3.22-1.419-2.174 3.541-8.747 1.13-9.645-2.6-.99-8.51.714-8.51-2.074-.002-2.08 3.78-4.73 3.778-6.81-.002-2.931-6.004-1.18-8.7-2.265.756-1.276 5.67-6.054 5.67-7.566-.002-1.797-4.73-2.362-4.73-4.157-.002-2.837 5.482-2.463 5.481-5.299-.001-1.513-2.27-1.7-2.271-3.213-.001-1.843 2.173-1.94 3.213-3.406l-2.27-2.457C5.196 1.51 7.135 3.21 8.835-1.328c.236.66 1.702 1.322 1.702 2.079.002 2.553-1.51 3.876-1.509 6.429.005 8.51 1.332 13.993 6.629 20.798 2.082 2.693 2.036 5.387 4.732 7.371 2.79 2.08 4.35 3.449 6.433 6.237 1.939 2.6 5.485 3.165 5.486 6.427.002 2.93-2.03 4.208-4.536 5.675" fill="#E3B310"/><path d="M26.83 57.092c-5.297-3.968-10.212-2.405-16.265-5.286-3.31-1.558-2.036-5.814-4.92-7.939-1.04-.756-2.08-.472-3.215-1.133-2.933-1.748-1.421-5.2-3.22-8.13-1.324-2.173-3.216-3.213-3.217-5.765 0-1.56.944-2.317.943-3.878-.001-2.174-2.46-2.928-2.46-5.103-.002-2.695 4.158-2.791 4.157-5.486-.001-.757-.379-1.134-.38-1.892-.001-2.457 2.789-2.696 4.158-4.729 1.89-2.79 1.983-5.06 3.967-7.755-.52-.047-.804-.189-1.324-.187-1.654 0-1.7 2.079-2.645 3.404-2.22 3.073-4.064 4.54-5.857 7.945-.85 1.607-.141 2.932-.944 4.54-1.275 2.6-3.402 3.877-3.4 6.808 0 2.694 1.892 3.97 1.894 6.664 0 1.23-.188 1.893-.187 3.121 0 2.364 2.223 3.119 3.028 5.34.805 2.222.57 3.687.57 6.05.001 2.506 2.65 3.025 3.596 5.294.805 2.032.521 3.593 1.706 5.483 1.181 1.89 3.262 1.416 5.295 2.266 2.411 1.039 2.98 3.071 5.296 4.157 3.641 1.7 6.195 1.699 10.212 1.697 2.223-.001 3.072-3.264 3.212-5.486" fill="#FBC707"/></g></g><path d="M85.485 79.935c-.503 10.106 6.644 18.436 7.555 19.103-.043.908-5.657 5.573-8.135 7.182-1.837.101-2.22-1.933-3.561-3.049-5.856-6.608-8.927-14.494-9.376-23.328-.143-.392 8.602-.288 13.517.092" fill="#E3B310" fill-rule="nonzero"/><g transform="matrix(1 0 0 -1 71.955 106.248)"><mask id="r" fill="#fff"><use xlink:href="#q"/></mask><g mask="url(#r)" fill-rule="nonzero"><path d="M19.383 10.426c-.519.236-.377 1.938-.943 2.08-1.089-2.694-2.415-6.853-5.11-7.939-2.459-.991-8.933 5.489-10.399 3.22C1.512 5.613 6.472-.96 4.061-1.858c-2.6-.991-8.51.714-8.51-2.075-.002-2.08 3.78-4.729 3.778-6.809-.002-2.931-6.004-1.18-8.7-2.266.756-1.275 5.67-6.053 5.669-7.565 0-1.797-4.729-2.362-4.73-4.158 0-2.836 5.483-2.462 5.482-5.298-.001-1.513-2.27-1.7-2.271-3.213-.001-1.844 2.173-1.94 3.213-3.406l-2.27-2.457c1.085-2.648 3.024-.947 4.723-5.486.237.662 1.703 1.323 1.703 2.08.002 2.553-1.51 3.876-1.509 6.429.005 8.51 1.331 13.992 6.629 20.798C9.35-12.592 9.304-9.897 12-7.914c2.79 2.08 4.35 3.45 6.432 6.238 1.94 2.6 5.485 3.165 5.487 6.427.002 2.93-2.03 4.208-4.536 5.675" fill="#CDA917"/><path d="M16.929 16.478c-5.11-8.885-8.701-5.053-14.754-7.934C-1.135 6.986.139 2.73-2.745.604-3.785-.15-4.825.134-5.961-.528c-2.932-1.747-1.42-5.199-3.219-8.13-1.324-2.172-3.216-3.212-3.217-5.764 0-1.56.944-2.317.943-3.878-.001-2.174-2.46-2.929-2.461-5.103-.001-2.695 4.159-2.792 4.158-5.486-.001-.757-.379-1.134-.38-1.892-.001-2.457 2.789-2.696 4.158-4.73 1.89-2.79 1.983-5.059 3.967-7.754-.52-.047-.804-.19-1.324-.188-1.654 0-1.7 2.08-2.646 3.405-2.22 3.073-4.063 4.54-5.856 7.944-.851 1.608-.142 2.933-.944 4.54-1.275 2.6-3.402 3.878-3.4 6.809 0 2.694 1.892 3.969 1.894 6.664 0 1.23-.188 1.892-.187 3.121 0 2.363 2.223 3.118 3.028 5.34.804 2.222.57 3.687.57 6.05.001 2.506 2.65 3.025 3.596 5.294.805 2.032.521 3.592 1.706 5.482 1.181 1.891 3.262 1.417 5.295 2.267 2.411 1.039 4.306 7.42 6.622 8.506 3.642 1.7 6.051-.76 8.89 2.075 1.571 1.57 1.557-5.343 1.697-7.565" fill="#FBC707"/></g></g><path d="M92.401 80.366c.929-.289 14.466 2.287 19.975 3.776 1.033-.144 2.312.084 2.912-.906-.104-.62-.578-1.136-.453-1.817-4.723-4.44-9.675-8.633-14.894-12.31.269-.599 1.012-.722 1.528-1.031 6.73-2.37 15.875-2.774 22.147.84 4.266 2.46 5.744 6.234 5.744 6.234-15.243 4.27-12.654 15.453-12.036 17.827 0 0-2.634 7.394 1.52 11.93.06.64-2.173 3.502-4.727 1.297-.752-1.674-1.508-4.699-6.17-2.316-.987.505-2.002-.97-3.032-1.405.225-.982-.057-4.008-3.837-3.759-.094-3.466-5.2-1.578-5.2-1.578-4.536-6.431-3.477-16.782-3.477-16.782" fill="#E3B310" fill-rule="nonzero"/><g transform="matrix(1 0 0 -1 92.288 107.04)"><mask id="t" fill="#fff"><use xlink:href="#s"/></mask><g mask="url(#t)" fill="#CDA917" fill-rule="nonzero"><path d="m.755 13.487.755-.19 3.783 1.322c1.466-.238 1.56-.946 3.025-.947l3.026 1.133 1.702-.38c.187-2.41 1.747-3.593 4.159-3.594 3.308-.002 4.822 2.219 8.132 2.453l.377-.756-.38-1.513 3.4-9.456c-1.845-1.843-3.121-3.402-5.674-3.4-2.838 0-3.97 2.318-6.617 3.217-2.742.947-5.437.192-6.995 2.651C6.898 8 .561 7.483.564 12.163c.001.33.143 1.04.19 1.324"/></g></g><path d="M125.572 77.996c2.681-1.302 7.896-1.84 10.85-.411 1.244.6 5.414 2.758 5.414 2.758-.29-.784-1.817-2.109-2.457-2.687 1.074-.164 5.302 2.38 6.953 3.516-1.837 1.402-3.802 2.35-5.455 4.248-2.022 1.835-3.575 4.961-6.319 5.94-.765.845-.456 2.208-.106 3.158.702.702 1.342 1.713 2.416 1.405.64-.351.401-1.156.71-1.682 3.348-5.687 10.738-9.023 11.708-9.208 1.134 1.218 1.35 3.157 1.495 4.87.041.351-.123.559-.476.683-.989-.352-1.445.494-1.817 1.154-.068 2.402 1.487 2.396 2.498 2.231 1.205 3.99-1.246 9.864-3.993 11.019a2.148 2.148 0 0 1-2.123-.951c-.353-1.775 1.14-3.572 1.14-3.572-1.57 1.113-8.254 6.348-13.545 2.846-2.457-2.743-2.738-7.107-3.769-10.698-.803-3.262-1.358-6.77-4.162-9.063-.538-.373-1.197-.64-1.9-.415-.784.227-1.155 1.073-1.527 1.713 0 0-2.233 4.848-2.605 4.683-.494-.888-.287-2.209-.183-3.2.56-3.735 3.92-6.719 7.253-8.337" fill="#E3B310" fill-rule="nonzero"/><g transform="matrix(1 0 0 -1 118.169 105.019)"><mask id="v" fill="#fff"><use xlink:href="#u"/></mask><g mask="url(#v)" fill="#FBC707" fill-rule="nonzero"><path d="M5.324 23.929c6.242 1.13 4.722-10.781 15.124-8.707 2.156.43 4.588 2.93 3.785 5.103-1.891 5.107-7.466 6.34-11.156 6.342-2.528 0-6.996-1.699-7.753-2.738"/></g></g><path d="M136.469 105.975c1.689.001 3.462-.389 5.826-1.522 1.618-.775 4.16 2.555 4.16 2.555-1.424 12.385-12.039 12.503-14.247 12.316-.104-.29.022-.702.022-1.033-.041-2.868-1.752-5.654-4.455-6.689-1.732-1.054-3.771-2.057-4.864-4.039 0 0 9.579 6.11 13.558-1.588" fill="#E3B310" fill-rule="nonzero"/><g transform="matrix(1 0 0 -1 122.897 119.366)"><mask id="x" fill="#fff"><use xlink:href="#w"/></mask><g mask="url(#x)" fill="#FBC707" fill-rule="nonzero"><path d="M14.542 13.947c1.164-2.221 1.38-3.875 1.377-6.428 0-1.842-2.713-4.796-2.418-4.723 8.483 2.075 8.854 7.98 9.85 12.47l-.173 1.323c-.52.047-.82.19-1.34.19-2.762.001-5.481-.612-7.296-2.832"/></g></g><g transform="matrix(1 0 0 -1 122.897 119.366)"><mask id="z" fill="#fff"><use xlink:href="#y"/></mask><g mask="url(#z)"><g transform="translate(13.473 2.788)"><mask id="B" fill="#fff"><use xlink:href="#A"/></mask><g mask="url(#B)" fill="#FEEC01" fill-rule="nonzero"><path d="M5.643 12.693c.25-1.2.755-2.772.752-3.971 0-2.63-.508-5.604-2.46-7.374.126-.036 3.583 2.542 4.157 3.865.894 2.04 1.577 3.67 1.577 5.907 0 .805-.984 1.022-1.79 1.022-.429 0-1.826.676-2.236.551"/></g></g></g></g><g fill-rule="nonzero"><path d="M123.916 110.443c2.373 1.385 5.034 2.605 6.767 4.979v.124c-1.629-1.096-3.859-.705-5.469-1.84-.762-.888-.74-2.086-1.298-3.076v-.187" fill="#CDA917"/><path d="M158.502 32.7c10.893-3.813 35.344-1.692 37.06 2.289-.103.867-.877 1.667-1.702 2.08-2.891 1.607-47.815 15.492-64.188 34.388l-2.613-2.326c2.228-5.057 24.058-33.846 31.443-36.43M122.615 95.43c.22-.682.886-1.075 1.487-.88.601.196.908.906.686 1.587-.221.681-.888 1.076-1.487.88-.6-.196-.907-.906-.686-1.587" fill="#A5A2AA"/><path d="M122.542 97.867c.12-.367.448-.589.732-.496.284.093.421.466.3.833-.12.367-.447.589-.732.496-.287-.093-.42-.466-.3-.833" fill="#FFF"/><path d="M135.427 91.852c-.232.285-.475.242-.475.616 0 .945.265 2.14 1.21 2.14.43 0 .394-.552.59-.926.394-.731.82-1.07 1.214-1.8v-.411h-.41c-.57 0-.748.695-1.32.695-.39 0-.56-.028-.809-.314M155.924 79.122c.246 0-1.984 1.387-2.126 3.6-.065 1.003-4.952-1.373-13.29 6.508-.626.592-1.637 1.438-2.413 1.02-.544-.279.997-1.03 1.279-1.587.563-1.132 6.832-8.08 14.564-9.259.68-.103 1.3-.282 1.986-.282" fill="#645B61"/></g><g transform="matrix(1 0 0 -1 137.955 90.37)"><mask id="D" fill="#fff"><use xlink:href="#C"/></mask><g mask="url(#D)" fill="#E0E1E2" fill-rule="nonzero"><path d="M5.77 6.433c.294-.06 6.515 2.833 6.807 2.833 1.129 0 2.845.943 3.974.943.317 0 .65-.228.945-.378.588 1.082.134.518.746 1.54-.145 0-.218.12-.366.121-2.353.001-10.708-2.743-12.107-5.059"/></g></g><path d="M136.633 81.377c-1.479.248-1.91.614-1.758 1.358.194.931 2.271 2.436 3.365 2.334.907-.085 1.555-1.358 1.396-2.13-.191-.904-1.984-1.25-3.003-1.562" fill="#FEEC01" fill-rule="nonzero"/><path d="M157.247 80.257c-1.418 1.559-2.741 1.393-2.744 3.497-.002 3.947 2.266 7.612 3.777 11.253.284-1.324 1.686-1.053 1.323-1.796-2.266-4.634-2.356-12.529-2.356-12.954" fill="#645B61" fill-rule="nonzero"/><path d="M147.619 106.442c2.87.001 5.056-4.02 3.905-6.816-.871 3.294-2.014 4.928-3.905 6.816" fill="#645B61"/><path d="M126.335 68.708c1.189-3.285 20.83-30.295 27.25-34.687.47-.322-5.54-1.3-6.62-.969-11.647 3.568-21.83 34.249-21.83 35.034 0 .032.768.416 1.2.622" fill="#645B61" fill-rule="nonzero"/><path d="M128.376 148.373c.943-.306.96-.661 1.361-1.575.195-.452.246-1.027.741-1.027 1.99.002 2.998.983 4.458 2.323 1.833 1.684 3.733 6.397 3.834 7.887-1.435-1.972-6.138-7.235-10.394-7.608M190.266 36.12l3.406-1.889-30.26 10.385-.188-.757c4.586-4.583 13.473-5.051 19.1-8.31l-11.912 2.263c-3.925.754-6.15 4.204-8.702 6.047-1.418.992-1.23 1.228-2.46 2.457-1.937 1.937-5.769 4.015-8.321 5.29.188-.899 5.91-7.088 6.242-7.94-3.026 1.087-7.234 6.52-9.836 8.316-5.059 3.496-7.614 5.858-12.107 10.016-1.61 1.464-2.175 2.126-3.028 4.158-.426.993-3.168 2.693-2.651 3.78.38.757 3.88-5.765 8.893-8.693 5.673-3.306 14.993-10.77 20.808-13.793 12.815-6.706 17.494-4.576 31.016-11.33" fill="#C4C1C6" fill-rule="nonzero"/><path d="M137.876 57.461c6.084-6.042 11.263-10.02 15.586-15.911 3.802-5.187 13.348-5.383 19.002-7.85l4.561-1.608c-.287-.051-8.551 1.204-10.45.598-3.455-1.101-8.932 6.646-9.12 2.01-.028-.704-5.133 6.446-7.794 9.266-3.944 4.18-7.888 9.366-11.785 13.495M143.697 133.62c.039.353.946 1.263.946 1.64-1.24-.397-3.594-1.471-4.93-1.642.093-.208 3.87-1.048 3.984.002" fill="#C4C1C6" fill-rule="nonzero"/><path d="M103.833 69.928c6.24 1.322 8.694 7.375 17.55 6.626 2.514-.212 4.75-1.94 3.818-3.594-2.192-3.885-8.093-5.11-12.37-5.113-2.935 0-8.12 1.291-8.998 2.081" fill="#FBC707" fill-rule="nonzero"/><path d="M79.81 85.605c-1.892 1.134-3.594 2.882-3.595 5.104-.002 1.324 1.985.568 3.308.569 1.277 0 2.41 1.325 3.686 1.326.568 0 1.892-.377 2.46-.377-1.608-.616-3.782-.948-3.782-2.65.001-1.323-.565-1.985.191-3.025l-2.268-.947" fill="#FEEC01" fill-rule="nonzero"/><path d="M72.78 149.138c-.45.56-1.407 1.053-2.081 1.39 2.359 2.361 3.736 2.363 6.995 3.15-2.697-.9-3.642-1.993-4.914-4.54" fill="#E0E1E2" fill-rule="nonzero"/><path d="M133.255 143.721c.232.308-.714.118-.15 1.596-.618-.525-1.37-.424-2.477-.337-.19-.395 1.82-1.784 2.627-1.259" fill="#C4C1C6" fill-rule="nonzero"/><path d="M67.52 95.14c-.615 2.767-2.077 4.09-2.078 6.978-.002 1.023.895 1.444 1.696 1.445 1.415 0 1.887-1.564 2.83-2.887-.848-1.263-1.318-1.685-1.317-3.37 0-.962-.377-1.444-.188-2.406l-.943.24" fill="#FEEC01" fill-rule="nonzero"/><path d="m126.627 65.672 9.085-16.294c.106.607.248.535.57 1 2.176-1.783 1.876-5.206 3.622-7.452 3.285-4.17 6.245-5.417 10.205-8.946-.75 3.494-4.031 3.778-6.636 6.06-3.104 2.744-4.07 5.24-5.605 9.09-1.213 3.067-2.43 1.842-3.728 4.872-2.03 4.736-4.98 7.891-7.513 11.67" fill="#A5A2AA" fill-rule="nonzero"/><path d="M136.614 103.485c2.033-.133 4.186-1.447 3.058-1.463-4.523-.067-3.583-2.678-5.54-2.679-.462 0-1.34 0-1.593.891 0 0-.765 3.567 4.075 3.25" fill="#FBC707" fill-rule="nonzero"/><path d="M119.776 70.501c-2.423-.116-2.913.702-2.771 1.384.178.852 4.192 2.866 5.192 2.772.828-.078 1.769-.724 1.621-1.43-.172-.828-2.197-2.55-4.042-2.726M59.564 110.745c-.38.755-.757 1.228-.758 2.079 0 .473.236.71.377 1.135a12.153 12.153 0 0 0 2.081-1.7c-.756-.426-1.18-.853-1.7-1.514" fill="#FEEC01" fill-rule="nonzero"/><path d="M105.545 78.829c-11.247-7.476-15.248-6.575-28.674-8.19l-7.832.59-12.764-.007c-20.045-.01-32.126 12.07-51.7 16.881 4.335-15.776 21.442-11.319 33.453-17.27-3.593-.757-6.05-.948-9.075-3.03 2.647-.47 4.255.003 6.902.004 3.781.002 4.54-4.914 8.323-4.912l8.887.005c8.604.004 13.046 2.087 21.649 4.172-13.139-5.208-22.55-9.362-36.354-9.369-3.215-.002-3.813.811-7.027.81-3.688-.003-2.037-2.702-5.725-2.704 18.626.01 26.51 1.584 44.566 6.889 7.563 2.178 12.105 3.905 19.288 7.028 8.224 3.597 8.473 3.048 16.083 9.103" fill="#FFF" fill-rule="nonzero"/><path d="m26.617 71.697 11.175-1.87c2.315.248 9.329-1.514 10.171-1.72-3.755.13-7.855.43-11.612.56-4.599.16-6.975 1.836-11.575 2.527l-8.012.012s-5.549-.584-5.549-.018c0 .497-1.68 1.454-1.258 1.687.844.502 13.977-1.085 16.66-1.178M20.07 59.857l9.785.005c14.797.008 22.831 3.936 37.485 6.071 9.927 1.47 14.984 4.404 24.578 7.577 6.192 2.036 10.352 2.227 15.503 6.059l.756.567-.756.19C92.39 72.8 82.984 71.66 66.583 68.012c-5.53-1.233-8.745-1.565-14.181-3.033-3.971-1.09-5.955-3.03-10.068-3.032L27.3 61.941c-3.12-.002-5.059.091-7.232-2.084" fill="#C4C1C6" fill-rule="nonzero"/><path d="M117.972 149.539c.3-2 .987-2.486.965-2.516-1.03-1.405-1.623-1.407-3.609-2.211.878 1.767.897 2.977 2.644 4.727" fill="#A5A2AA" fill-rule="nonzero"/><path d="M85.26 162.023c7.842-3.04 8.13-12.416 8.13-12.97 0 0-1.7-1.324-3.497-.095 1.322 4.16-1.486 9.623-4.633 13.065M94.54 122.108c-.898 0-2.647.047-2.647.945-.002 2.268 2.882 2.838 4.346 4.54 2.551 2.932 4.252 4.352 6.425 7.568 1.747 2.553 5.856 11.963 6.991 10.877 4.182-4.004 4.015-3.854 3.973-3.875-4.207-2.035-7.606-8.939-9.827-12.108-2.692-3.878-4.487-7.944-9.261-7.947" fill="#645B61" fill-rule="nonzero"/><path d="M111.267 139.412c.845.95 3.384 1.117 2.496 2.932-.456 1.238-3.824 3.41-4.179 3.81-.536-.495.127-3.11.002-3.733-.535-2.668-1.806-3.493-3.187-5.887-.558-1.054-1.096-3.275-1.322-4.493 0 0 4.108 5.141 6.19 7.37" fill="#A5A2AA" fill-rule="nonzero"/><path d="M91.473 120.463c4.71-1.622 4.634.134 7.093-.055 0 0 1.842-10.21 4.114-16.306.281-.754.474-1.797.38-2.6.059-.003-.291-1.57-2.207-.47-1.15.658-8.196 15.791-9.38 19.431" fill="#645B61" fill-rule="nonzero"/><path d="M98.499 120.536c.51-1.588 2.867-13.118 4.242-16.778-.858.206-1.977 4.673-2.152 5.515-.51 2.415-1.449 3.542-2.037 5.925-.446 1.81-.479 4.147-2.338 4.145H94.53c-.397.094-.667.11-1.017.316-.143.08-.4.379-.239.365 3.153-.252 4.018.51 5.225.512" fill="#A5A2AA" fill-rule="nonzero"/><path d="M90.329 146.346c1.842.001 3.157.08 5 .132 2.816-3.34-11.913-29.117-12.546-29.588-1.94-1.45-6.422-1.474-5.686-.246 7.189 11.984 11.486 16.711 12.747 26.153.15 1.121-.251 1.47-.252 2.602 0 .474.263.947.737.947" fill="#645B61" fill-rule="nonzero"/><g transform="matrix(1 0 0 -1 77.011 146.504)"><mask id="F" fill="#fff"><use xlink:href="#E"/></mask><g mask="url(#F)" fill="#A5A2AA"><path d="M12.788-.09c1.513 0 3.191 0 4.704-.002.874 0 1.442.827 1.443 1.701 0 1.82-.944 2.719-1.132 4.539-.4 3.735-5.052 12.625-7.272 15.604-.048-.165 2.926-8.936 3.21-10.023.896-3.286 1.698-5.887 1.696-9.267 0-1.678-.97-2.812-2.649-2.552"/></g></g><g fill="#645B61" fill-rule="nonzero"><path d="M85.089 115.674c4.918-3.969 6.435-12.855 13.623-17.011-.425-.331-.921-1.158-1.322-.757-1.704 1.7-20.567 16.465-19.864 16.251 4.35-1.32 6.165 2.645 7.563 1.517M112.87 107.542a3.77 3.77 0 0 0-3.29-1.877c-1.423 0-1.72 1.633-1.72 2.944l-.002 2.03c0 .742.535 4.455.535 6.113.32 4.834-.863 6.559-.864 8.266 0 .322.134.545.214.842 1.423-.495 1.692-1.706 3.116-2.176 1.234-.42 3.88-.417 3.43-1.557-2.525-6.396-2.134-12.015-2.134-12.015.135-.816.097-2 .715-2.57"/></g><g transform="matrix(1 0 0 -1 107.51 125.87)"><mask id="H" fill="#fff"><use xlink:href="#G"/></mask><g mask="url(#H)" fill="#A5A2AA" fill-rule="nonzero"><path d="M4.321 14.682c-.584-.671-.504-3.675-.504-4.526-.002-1.674.695-2.555.694-4.228-.002-1.001-.115-1.703-.828-2.478-.6-.658-1.442-.881-1.443-1.733 0-.194.194-.36.405-.36.81 0 1.216.345 1.993.538 1.264.329 2.528.85 2.528 2.06.001 1.584-1.003 2.3-1.375 3.854-.388 1.63-1.018 5.26-1.47 6.873"/></g></g><g fill-rule="nonzero"><path d="M122.801 138.017c.484 1.074 5.212 4.554 2.733 9.627-.063.133 3.531-3.003 2.648-5.325-.196-.514-4.451-3.8-5.38-4.302" fill="#FFF"/><path d="M113.552 124.965c-2.53-.845-3.589 1.484-4.49 2.638 5.805 4.987 11.558 13.76 12.209 16.436.448 1.893 1.87 5.805 3.446 4.523 2.16-1.75 2.594-3.111 2.46-5.72-.074-1.49-4.83-5.165-7.893-8.932-2.401-2.955-4.202-8.435-5.732-8.945" fill="#645B61"/></g><g transform="matrix(1 0 0 -1 109.041 148.827)"><mask id="J" fill="#fff"><use xlink:href="#I"/></mask><g mask="url(#J)" fill="#A5A2AA" fill-rule="nonzero"><path d="M12.992 12.667c1.66-1.694 3.255-3.47 5.11-5 .504-.627.556-2.09.706-2.889.905-4.863-4.157-5.282-4.179-5.16.328.886.137 4.366.203 5.354-.041 2.8-4.4 6.709-3.9 9.693.016.102 1.973-2.039 2.06-1.998"/></g></g><path d="M116.64 166.369c3.22-8.886.955-17.776-2.825-19.857-1.366-.753-1.656 2.694-1.325 3.024 5.67 3.597 4.198 15.935 4.15 16.833Z" fill="#645B61" fill-rule="nonzero"/></g></svg>