<svg width="200" height="200" xmlns="http://www.w3.org/2000/svg"><g fill="#5F1316" fill-rule="evenodd"><path d="M66.345 113.538c21.247.9 46.201.9 67.448 0-11.202-30.748-22.388-61.513-34.26-91.584-10.908 30.683-22.266 60.913-33.188 91.584Zm52.46-111.635v5.96c-2.7-.471-4.615-.457-6.424 1.085-.135 7.363 3.925 13.97 6.424 20.592 14.961 39.651 30.206 81.589 45.501 121.39 2.436 6.338 3.47 14.002 9.1 18.425 3.231.56 4.267-3.378 6.424-2.167-.25 7.242-4.774 12.889-8.565 17.341-1.848 2.172-4.337 4.549-6.424 6.503-1.979 1.854-4.409 4.364-6.958 4.336-1.204-3.209 1.952-5.36 2.14-8.671.242-4.231-3.45-10.672-5.352-15.716-5.5-14.577-11.825-31.86-17.13-45.52H62.062c-4.648 12.033-10.986 28.528-16.059 42.268-2.24 6.066-5.693 11.219-4.818 18.426.45 3.7 4.004 5.432 1.606 9.213-2.769-1.1-5.213-3.653-7.494-5.962-4.342-4.395-7.087-8.286-10.706-14.09-1.348-2.16-4.392-4.574-2.677-7.587 2.513-2.014 2.644 2.13 5.353 1.626 2.786-2.249 3.624-6.011 4.818-9.212 18.31-49.1 37.466-100.4 55.137-150.654-.884-2.58-4.56-1.22-5.889-2.167v-5.42c11.553-1.904 27.694-2.124 37.472 0Z"/><path d="M47.609 24.663c1.821 4.681-4.422 6.544-5.353 10.297-1.36 5.477 0 14.367 0 22.218v43.896c0 7.403.935 15.596 0 21.676-.69 4.486-3.252 9.467-4.818 13.548-1.81 4.72-3.7 8.997-5.353 13.006-2.243-.54-3.177-4.017-3.747-5.961-.737-2.51-1.366-5.62-1.606-8.129-2.453-25.654 1.838-59.298 0-86.165-1.93-2.565-5.87.475-7.495-.542-1.113-4.122 1.92-6.563 4.283-8.67 6.811-6.072 15.065-11.22 23.018-16.258.477.24.958.476 1.07 1.084M151.994 24.121h1.606c7.869 4.327 14.68 9.746 21.412 15.716 2.06 1.826 6.143 3.511 4.818 7.587-.81 2.737-4.205-1.689-6.423.542-2.379 25.117 1.328 58.582-.536 83.455-.486 6.491-1.93 14.29-5.888 17.883-2.154-6.906-4.162-12.613-6.96-20.05-.707-1.882-2.333-3.922-2.676-5.962-1.033-6.15 0-14.371 0-22.218V56.636c0-7.535 1.325-16.169 0-21.676-.933-3.879-6.999-5.511-5.353-10.839M93.11 90.235h16.06c-2.752-7.33-5.152-15.016-8.565-21.676-2.48 7.244-5.39 14.052-7.495 21.676Zm14.453-35.766c.541 2.353-1.182 2.415-2.14 3.251 4.49 11.202 8.348 23.4 12.847 35.225 1.487 3.907 2.531 8.158 4.282 11.38 1.118 2.057 3.8 3.36 3.747 5.961-3.822-.454-13.217 1.207-14.989-.542-.348-2.7 3.512-1.142 3.212-3.793-.39-2.856-1.818-4.662-2.676-7.045H90.434c-1.813 1.416-2.495 3.977-3.212 6.503-.265 2.797 3.397 1.619 3.747 3.793-1.083 2.014-4.865 1.042-7.494 1.084-2.947.048-6.099-.037-8.565 0-.404-3.48 3.004-3.1 3.747-5.419 5.07-16.002 11.277-30.853 16.594-46.605.625-2.439-2.99-.585-2.14-3.251 3.8-1.21 9.773-.221 14.452-.542ZM112.381 129.253c6.48.667 15.627-1.368 20.342 1.084.343 2.334-1.983 1.967-3.747 2.168 1.351 10.554 4.942 18.842 8.565 27.096 2.107.613 3.72-1.635 4.282.542.592 3.327-3.62 5.197-5.888 7.045-2.572 2.094-4.96 5.286-8.565 5.419-1.658-2.92 2.222-3.042 2.141-5.961-3.096-10.414-6.991-20.019-10.17-30.348-3.263 2.313-3.855 6.697-5.354 10.296-4.267 10.253-8.775 21.627-13.382 31.974-3.44-2.115-3.988-6.868-5.354-10.296-4.154-10.426-8.888-22.001-13.918-31.974-4.206 9.47-7.21 20.158-10.706 30.348.22 2.615 3.787 3.054 2.141 5.96-3.486-.309-6.655-3.364-9.1-5.418-2.397-2.014-6.25-4.444-5.353-8.13 1.543-1.57 1.674 1.056 3.747.543 4.916-6.584 6.182-16.864 9.636-24.929-.008-3.063-4.72-1.363-4.283-4.877 5.739-1.235 13.719-.202 20.342-.542 4.435 9.24 7.837 19.524 11.777 29.264.433.103.533.543 1.07.542-.07-2.41 1.716-4.613 2.677-7.045 2.9-7.339 5.506-15.984 9.1-22.76"/><path d="M147.177 160.143c.125 6.307 5.017 9.922 4.817 14.632-.255 6.018-10.15 12.804-16.059 16.257-11.593 6.774-25.36 9.676-45.501 8.129-8.733-.67-18.718-4.27-25.695-8.13-6.308-3.487-17.16-10.919-17.665-15.715-.309-2.926 5.122-11.843 5.888-15.173 11.966 10.791 23.526 21.784 44.43 23.302 19.675 1.429 35.164-7.913 44.431-18.425 1.386-1.572 2.744-4.215 5.354-4.877"/></g></svg>