<?xml version="1.0" encoding="UTF-8"?>
<svg width="200px" height="200px" viewBox="0 0 200 200" version="1.1" xmlns="http://www.w3.org/2000/svg" xmlns:xlink="http://www.w3.org/1999/xlink">
    <!-- Generator: Sketch 51.3 (57544) - http://www.bohemiancoding.com/sketch -->
    <title>alabama-am</title>
    <desc>Created with Sketch.</desc>
    <defs></defs>
    <g id="alabama-am" stroke="none" stroke-width="1" fill="none" fill-rule="evenodd">
        <g id="alabama-am_BGL" transform="translate(17.000000, 0.000000)" fill="#5F1316">
            <g id="alabama-am" transform="translate(0.959184, 0.816327)">
                <g id="g10">
                    <g transform="translate(81.567397, 99.989888) scale(-1, 1) rotate(-180.000000) translate(-81.567397, -99.989888) translate(0.000000, 0.151394)">
                        <g id="g12" transform="translate(0.000000, 0.234914)">
                            <path d="M47.9292636,86.0555616 C69.4390429,85.1545355 94.7011836,85.1545355 116.210702,86.0555616 C104.869832,116.803208 93.5454062,147.568864 81.5279837,177.639957 C70.4841497,146.955999 58.9864094,116.726469 47.9292636,86.0555616 Z M101.037078,197.69092 C101.037078,195.703808 101.037078,193.716956 101.037078,191.729844 C98.3037219,192.20176 96.3654195,192.187665 94.5338726,190.645846 C94.3971004,183.282072 98.5070531,176.676287 101.037078,170.053015 C116.183295,130.402124 131.615847,88.4644752 147.100341,48.6632396 C149.566156,42.3249961 150.613089,34.661837 156.312889,30.2384044 C159.583415,29.6777428 160.632176,33.6167303 162.815833,32.4056176 C162.562387,25.1635551 157.982345,19.5166376 154.145153,15.0644672 C152.273671,12.892843 149.754087,10.5155644 147.641948,8.56162722 C145.638392,6.70729359 143.178058,4.19715809 140.597135,4.22589591 C139.378714,7.43424833 142.574068,9.58632254 142.76487,12.8968365 C143.008659,17.1278222 139.27222,23.5689059 137.345663,28.6122768 C131.777677,43.189219 125.374962,60.4726326 120.004043,74.1334098 C94.5341336,74.1334098 69.0639634,74.1334098 43.5937933,74.1334098 C38.8879417,62.0992823 32.4716545,45.604919 27.3364322,31.86401 C25.0691196,25.7980319 21.573154,20.6458175 22.4589629,13.4386267 C22.9138088,9.73854688 26.5126668,8.00613367 24.084699,4.22589591 C21.2818605,5.32636408 18.8075103,7.87797497 16.4979131,10.1871545 C12.102357,14.5827106 9.32408009,18.4731753 5.65955059,24.2773024 C4.29574371,26.4372332 1.21413005,28.8516282 2.94999911,31.86401 C5.49385784,33.878007 5.62621888,29.7336001 8.36912816,30.2384044 C11.1891154,32.4870544 12.0380166,36.2498564 13.2464409,39.4506915 C31.7830952,88.5503493 51.1749934,139.851152 69.0639634,190.104238 C68.1689407,192.684117 64.4481623,191.323965 63.1028875,192.271713 C63.1028875,194.078202 63.1028875,195.884691 63.1028875,197.69092 C74.7982167,199.595551 91.1388417,199.815065 101.037078,197.69092 Z" id="path14"></path>
                            <path d="M28.9620378,174.930353 C30.8061135,170.249298 24.4860106,168.38643 23.5428044,164.633807 C22.1661555,159.156915 23.5428044,150.266461 23.5428044,142.41537 C23.5428044,127.899245 23.5428044,113.494834 23.5428044,98.5198429 C23.5428044,91.1161334 24.4892733,82.9231125 23.5428044,76.8430135 C22.8446918,72.3577202 20.2507442,67.3764971 18.6655699,63.2952561 C16.8326657,58.5760928 14.9206215,54.298568 13.2464409,50.2891062 C10.9756045,50.8296697 10.0299448,54.3069205 9.45304794,56.2504431 C8.70753498,58.7606308 8.0699781,61.8708936 7.82720743,64.3789932 C5.34450467,90.0337014 9.68796204,123.677577 7.82720743,150.544181 C5.87355733,153.109443 1.88420687,150.069133 0.240419968,151.08605 C-0.886330913,155.208009 2.18274355,157.649289 4.57573522,159.756729 C11.4713255,165.828737 19.8266981,170.975966 27.8783007,176.01409 C28.3606577,175.773956 28.8474519,175.538259 28.9620378,174.930353" id="path16"></path>
                            <path d="M134.636059,175.472222 C135.177928,175.472222 135.719796,175.472222 136.261926,175.472222 C144.227602,171.145887 151.122592,165.726419 157.938494,159.756729 C160.023487,157.930403 164.156671,156.245286 162.815833,152.169787 C161.995722,149.431994 158.558145,153.858036 156.312889,151.627918 C153.905019,126.510641 157.657902,93.0453002 155.77102,68.1725949 C155.278223,61.6811352 153.816274,53.88277 149.809683,50.2891062 C147.629158,57.1953199 145.596368,62.9029495 142.76487,70.340069 C142.048643,72.22147 140.402156,74.2615685 140.055267,76.3011449 C139.009116,82.4519792 140.055267,90.6726678 140.055267,98.5198429 C140.055267,113.157863 140.055267,127.623351 140.055267,142.957239 C140.055267,150.491978 141.396626,159.126116 140.055267,164.633807 C139.110912,168.511978 132.969996,170.144631 134.636059,175.472222" id="path18"></path>
                            <path d="M75.0250393,109.358258 C80.4442467,109.358258 85.863715,109.358258 91.2824004,109.358258 C88.4976242,116.689144 86.0675683,124.37475 82.6119818,131.034826 C80.1017941,123.790597 77.1551882,116.982525 75.0250393,109.358258 Z M89.6567948,145.124713 C90.2041446,142.771396 88.4597769,142.709274 87.4890596,141.873241 C92.0356916,130.671492 95.940747,118.472925 100.495209,106.648654 C102.000487,102.740988 103.057861,98.4900871 104.83068,95.2683707 C105.962444,93.2115672 108.677268,91.908577 108.624021,89.3072948 C104.754202,89.761201 95.2433132,88.1000973 93.4501355,89.8491633 C93.0977644,92.5498925 97.0049079,90.9911069 96.7016077,93.6427651 C96.30643,96.4987985 94.8604032,98.304505 93.9922651,100.687578 C86.7668293,100.687578 79.5411325,100.687578 72.3154356,100.687578 C70.4802345,99.271307 69.789848,96.7104823 69.0639634,94.1846336 C68.7961613,91.3878507 72.5031059,92.5658144 72.8575652,90.3912929 C71.7615604,88.377818 67.9321995,89.3495793 65.2706227,89.3072948 C62.2879966,89.2597899 59.096819,89.344098 56.5999431,89.3072948 C56.1911926,92.7868947 59.6415587,92.4071169 60.3932839,94.7265021 C65.526418,110.728329 71.8101093,125.579337 77.1927745,141.331372 C77.8252154,143.770303 74.1649927,141.916308 75.0250393,144.582844 C78.8729323,145.792652 84.9198824,144.803664 89.6567948,145.124713 Z" id="path20"></path>
                            <path d="M94.5338726,70.340069 C101.093196,69.673696 110.353771,71.7083132 115.127226,69.256332 C115.474116,66.9220688 113.119754,67.2893179 111.333624,67.0885968 C112.701868,56.5346892 116.336251,48.2466586 120.004043,39.9928211 C122.137585,39.3794342 123.769716,41.6273012 124.339774,39.4506915 C124.938805,36.1237858 120.674853,34.2533475 118.378698,32.4056176 C115.775328,30.3114888 113.356757,27.1192672 109.707758,26.9866712 C108.029166,29.9058705 111.95693,30.0285478 111.875493,32.9474861 C108.741217,43.3617503 104.798053,52.966344 101.579208,63.2952561 C98.2765763,60.9829183 97.6767623,56.598638 96.1600002,52.9989709 C91.8396688,42.7462754 87.2760708,31.3725175 82.6119818,21.0256214 C79.1295107,23.1400572 78.5756355,27.8937007 77.1927745,31.3218805 C72.98729,41.7478904 68.1942592,53.3226304 63.1028875,63.2952561 C58.8446779,53.8245635 55.8041063,43.1370158 52.2644728,32.9474861 C52.4865972,30.3321091 56.098532,29.8933417 54.432208,26.9866712 C50.9024931,27.2964968 47.6946105,30.3514242 45.2196599,32.4056176 C42.7929972,34.4198755 38.892118,36.8494093 39.8004525,40.5346896 C41.3621093,42.1046989 41.4954883,39.4794032 43.5937933,39.9928211 C48.5705791,46.5766803 49.852166,56.8562605 53.3482099,64.9211227 C53.3409015,67.9844026 48.570318,66.2846686 49.0130006,69.7982005 C54.8224264,71.0335877 62.9008614,70.0002266 69.606093,70.340069 C74.0955625,61.1011584 77.5399253,50.8168799 81.5279837,41.0765581 C81.9670121,40.9734569 82.0682862,40.5331235 82.6119818,40.5346896 C82.5404635,42.9446473 84.3485191,45.1476196 85.3215855,47.5795026 C88.2580118,54.9184802 90.8950531,63.5633192 94.5338726,70.340069" id="path22"></path>
                            <path d="M129.758981,39.4506915 C129.885574,33.1432478 134.838346,29.5284418 134.636059,24.81891 C134.377654,18.8001757 124.359872,12.0140554 118.378698,8.56162722 C106.642651,1.78714298 92.7051968,-1.11431244 72.3154356,0.432510797 C63.4753569,1.10330019 53.367264,4.70277154 46.3033969,8.56162722 C39.9179096,12.0495535 28.93176,19.4811395 28.4201693,24.2773024 C28.1079945,27.2035752 33.6055066,36.1209146 34.3812452,39.4506915 C46.4955045,28.6592596 58.1981421,17.6663758 79.3605096,16.1483087 C99.2780934,14.7194567 114.957566,24.0612598 124.339774,34.5733527 C125.742472,36.1451891 127.117242,38.7887558 129.758981,39.4506915" id="path24"></path>
                        </g>
                    </g>
                </g>
            </g>
        </g>
    </g>
</svg>