<svg width="200" height="200" xmlns="http://www.w3.org/2000/svg"><g fill="#5F1316" fill-rule="evenodd"><path d="M65.888 114.354c21.51.901 46.772.901 68.282 0-11.341-30.747-22.665-61.513-34.683-91.584-11.044 30.684-22.541 60.913-33.599 91.584zM118.996 2.72v5.96c-2.733-.472-4.671-.458-6.503 1.084-.137 7.364 3.973 13.97 6.503 20.593 15.146 39.65 30.579 81.588 46.064 121.39 2.465 6.338 3.512 14.001 9.212 18.424 3.27.561 4.32-3.378 6.503-2.167-.253 7.242-4.833 12.89-8.67 17.341-1.872 2.172-4.392 4.55-6.504 6.503-2.003 1.855-4.464 4.365-7.045 4.336-1.218-3.208 1.977-5.36 2.168-8.671.244-4.231-3.493-10.672-5.42-15.715-5.567-14.577-11.97-31.86-17.34-45.522H61.552c-4.706 12.035-11.122 28.529-16.257 42.27-2.268 6.066-5.764 11.218-4.878 18.425.455 3.7 4.054 5.433 1.626 9.213-2.803-1.1-5.277-3.652-7.587-5.961-4.395-4.396-7.174-8.286-10.838-14.09-1.364-2.16-4.446-4.575-2.71-7.587 2.544-2.014 2.676 2.13 5.42 1.625 2.82-2.248 3.668-6.011 4.877-9.212 18.536-49.1 37.928-100.4 55.817-150.653-.895-2.58-4.616-1.22-5.96-2.168v-5.42c11.694-1.904 28.035-2.123 37.933 0z"/><path d="M46.921 25.48c1.844 4.68-4.476 6.543-5.419 10.296-1.377 5.477 0 14.367 0 22.218v43.896c0 7.404.946 15.597 0 21.677-.698 4.485-3.292 9.466-4.877 13.548-1.833 4.719-3.745 8.996-5.42 13.006-2.27-.54-3.216-4.018-3.793-5.962-.745-2.51-1.383-5.62-1.626-8.128-2.482-25.655 1.861-59.299 0-86.165-1.953-2.566-5.943.475-7.586-.542-1.127-4.122 1.942-6.563 4.335-8.67 6.896-6.073 15.25-11.22 23.302-16.258.483.24.97.476 1.084 1.083m105.674-.541h1.626c7.966 4.326 14.86 9.745 21.677 15.715 2.085 1.826 6.218 3.512 4.877 7.587-.82 2.738-4.258-1.688-6.503.542-2.408 25.117 1.345 58.582-.542 83.455-.493 6.492-1.955 14.29-5.961 17.884-2.18-6.907-4.213-12.614-7.045-20.051-.716-1.882-2.363-3.922-2.71-5.961-1.046-6.151 0-14.372 0-22.219V57.453c0-7.535 1.342-16.17 0-21.677-.944-3.878-7.085-5.51-5.419-10.838M92.984 91.052h16.258c-2.785-7.331-5.215-15.017-8.67-21.677-2.511 7.244-5.458 14.052-7.588 21.677zm14.632-35.767c.547 2.353-1.197 2.416-2.168 3.252 4.547 11.201 8.452 23.4 13.006 35.224 1.506 3.908 2.563 8.159 4.336 11.38 1.132 2.057 3.846 3.36 3.793 5.962-3.87-.454-13.38 1.207-15.174-.542-.352-2.701 3.555-1.142 3.252-3.794-.395-2.856-1.841-4.662-2.71-7.045H90.275c-1.836 1.416-2.526 3.977-3.252 6.503-.268 2.797 3.44 1.619 3.794 3.794-1.096 2.013-4.926 1.041-7.587 1.084-2.983.047-6.174-.037-8.67 0-.41-3.48 3.04-3.1 3.792-5.42 5.134-16.002 11.417-30.853 16.8-46.605.632-2.439-3.028-.585-2.168-3.251 3.848-1.21 9.895-.22 14.632-.542zm4.877 74.785c6.56.666 15.82-1.369 20.593 1.083.347 2.335-2.007 1.967-3.793 2.168 1.368 10.554 5.002 18.842 8.67 27.096 2.134.613 3.766-1.635 4.336.542.599 3.327-3.665 5.197-5.961 7.045-2.603 2.094-5.022 5.287-8.671 5.42-1.679-2.92 2.25-3.043 2.168-5.962-3.135-10.414-7.078-20.019-10.297-30.347-3.302 2.312-3.902 6.696-5.419 10.296-4.32 10.253-8.884 21.626-13.548 31.973-3.482-2.114-4.036-6.868-5.419-10.296-4.206-10.426-8.999-22-14.09-31.973-4.258 9.47-7.299 20.158-10.838 30.347.222 2.616 3.834 3.054 2.167 5.961-3.53-.31-6.737-3.365-9.212-5.419-2.427-2.014-6.328-4.444-5.42-8.129 1.562-1.57 1.696 1.055 3.794.542 4.977-6.584 6.258-16.863 9.754-24.928-.007-3.064-4.777-1.364-4.335-4.877 5.81-1.236 13.888-.202 20.593-.542 4.49 9.239 7.934 19.523 11.922 29.263.44.103.54.544 1.084.542-.071-2.41 1.737-4.613 2.71-7.045 2.936-7.339 5.573-15.984 9.212-22.76"/><path d="M147.718 160.96c.127 6.307 5.08 9.921 4.877 14.63-.258 6.02-10.276 12.806-16.257 16.258-11.736 6.775-25.674 9.676-46.063 8.13-8.84-.672-18.949-4.271-26.012-8.13-6.386-3.488-17.372-10.92-17.884-15.716-.312-2.926 5.186-11.843 5.961-15.173 12.115 10.792 23.817 21.784 44.98 23.302 19.917 1.43 35.597-7.912 44.979-18.425 1.403-1.571 2.777-4.215 5.42-4.877"/></g></svg>