<svg width="200" height="200" xmlns="http://www.w3.org/2000/svg"><g fill="none"><path d="M99.685 191.653c-50.565 0-91.557-40.99-91.557-91.553 0-50.565 40.992-91.555 91.557-91.555 50.557 0 91.553 40.99 91.553 91.555 0 50.564-40.996 91.553-91.553 91.553zm0-187.173c-52.724 0-95.62 42.892-95.62 95.617 0 52.723 42.896 95.62 95.62 95.62 52.72 0 95.617-42.897 95.617-95.62 0-52.725-42.896-95.617-95.617-95.617z" fill="#FFF"/><path d="M129.269 133.145s-18.845 10.104-17.22-16.076l.82-10.525-12.905 2.029c-4.953 10.044-14.131 26.957-27.74 26.661-12.656.799-18.481-12.514-12.441-19.18 2.455-2.975 4.6-1.567 3.155.443-2.358 3.917 2.192 10.514 6.09 11.316 11.638 2.735 17.328-10.94 22.071-19.287-4.794-.317-6.35-6.037-4.975-9.418 1.14-3.216 4.077-4.04 4.077-4.04-.757 1.52-.172 7.045 4.28 6.191 5.62-9.498 11.836-18.671 18.916-27.53-6.856-.847-18.116.872-18.751-7.795-.01-1.99 1.091-4.29 3.048-4.449-1.232 8.027 16.305 6.65 19.174 5.96 3.141-.468 6.906-3.368 10.65-6.23l5.52 2.647c-5.54 9.833-8.142 21.746-10.562 32.937 0 0 9.927-2.484 7.92 6.987-.358 1.831-2.462 3.559-3.614 4.145 0-3.948-3.032-2.843-5.302-2.367-.177.889-.452 3.834-.532 4.74-.22 2.486-.546 9.012.05 13.648.533 4.143 5.528 4.863 12.181 1.428.622-.32 1.245-.752 1.384.372.067 3.341-2.675 6.204-5.294 7.393zM99.685 40.304c-33.026 0-59.801 26.77-59.801 59.796 0 33.025 26.775 59.793 59.8 59.793 33.022 0 59.797-26.768 59.797-59.793 0-33.026-26.775-59.796-59.796-59.796z" fill="#FFF"/><path d="M113.969 98.705c1.684-6.967 3.445-14.79 5.608-21.684-7.842 7.892-10.504 15.089-15.37 22.873l9.762-1.189" fill="#FFF"/><path d="M177.617 74.163l.046.142-7.079 3.706-.82-2.469 7.853-1.38zm-14.195-4.449l-3.845 1.267 2.045 6.197 4.743-.863 1.06 3.213-4.363 2.011 1.997 6.057 3.904-1.288-.43-1.29 13.69-7.697-2.783-8.436-15.559 2.204-.46-1.375zm-12.415-26.226c-.662 2.919-1.347 5.944-2.013 8.86l8.73-2.286-7.54 7.325 4.524 4.66 2.949-2.863-.968-.997 8.124-7.895.911.85 2.926-2.843-4.38-4.508-9.309 2.471 2.617-9.364-4.483-4.617-2.926 2.842.945.975-8.217 7.978-.945-.89-2.862 2.777 4.546 4.683 7.371-7.158m-23.083-20.52l.14.054-1.51 7.845-2.444-.9 3.814-6.999zM122.6 33.114l3.175 1.17-1.144 4.668 5.98 2.208 1.425-3.854-1.276-.472 2.5-15.502-8.33-3.078-7.968 13.55-1.358-.5-1.402 3.798 6.122 2.26 2.276-4.248zm-27.167-2.778l-.19-4.073 3.14-.147.19 4.076-3.14.144zm-.526-11.438l3.076-.141.169 3.65-3.076.14-.17-3.65zm5.855 5.023c1.558-.283 2.563-1.45 2.827-3.001.076-2.301-.393-6.545-3.14-6.39l-12.58.67.177 3.8 1.451-.004.526 11.436-1.417.127.185 3.984 12.974-.655c1.597-.074 2.272-1.89 2.26-3.46l-.244-4.074c-.429-1.31-1.584-2.165-3.02-2.433zm-36.49 2.071l4.572 6.555-2.345 1.119-2.364-7.613.137-.061zM61.52 40.698l1.745 3.653 5.889-2.814-1.457-4.594 3.054-1.458 2.547 4.074 5.755-2.748-1.772-3.707-1.23.583-9.367-12.601-8.014 3.829 4.16 15.156-1.31.627zM35.055 50.01l8.513 7.659-.91 1.013 3.054 2.748 9.823-10.915-5.571-5.01-3.517 3.906 2.517 2.264-1.638 1.818-8.467-7.619.889-.99-3.03-2.727-5.6 6.22 2.986 2.689.951-1.057m-5.873 26.756l-7.06-3.698.052-.145 7.87 1.39-.862 2.453zm1.469 8.486l3.817 1.343 2.166-6.155-4.284-2.21 1.119-3.193 4.684 1.07 2.114-6.015-3.878-1.361-.447 1.281-15.54-2.26-2.944 8.382 13.672 7.752-.479 1.366zm146.593 32.308l-1.193 3.878 2.495.768-.763 2.49-4.02-1.236 1.04-3.39-3.494-1.066-1.101 3.368-3.549-1.091.767-2.49 2.053.63 1.111-3.635-5.957-1.82-3.548 11.568 3.9 1.198.333-1.092 11.127 3.415-.333 1.092 3.931 1.205 3.628-11.815-6.427-1.977m-8.172 26.102l-9.877-6.086 1.34-2.18 9.88 6.09-1.343 2.176zm4.75-5.308l-11.651-7.185c-1.332-.822-3.342-.96-4.074.226l-5.528 8.853 3.528 2.176.626-1.018 9.904 6.107-.542 1.001 3.446 2.128 5.437-8.94c.651-1.052.11-2.579-1.146-3.348zm-13.555 16.837l-8.347-8.021.755-.786-2.99-2.867-4.737 4.928 2.988 2.872.825-.855 8.39 8.06-.721.746 2.925 2.809 4.665-4.856-2.964-2.852-.79.822m-13.718 12.068l-6.407-9.714 1.335-.877 1.77 2.69 2.753-1.813-4.027-6.101-12.074 7.965 3.99 6.045 2.792-1.84-1.74-2.639 1.33-.878 6.407 9.714-.824.543 2.266 3.435 5.605-3.695-2.267-3.437-.91.602m-22.803-.728l-.968-3.968-5.316 1.297 2.344 9.603-6.615-8.627-5.313 1.302.98 4.027 1.156-.284 2.759 11.303-1.154.284.97 3.993 5.366-1.305-2.403-9.844 6.646 8.743 4.223-.965-3.72-15.24 1.045-.32m-24.777 15.493l-2.482-.056.269-11.604 2.481.058-.268 11.602zm2.342-15.729l-6.105-.146c-1.316-.028-2.91 1.04-2.952 2.822l-.33 14.152c-.036 1.593 1.128 2.818 2.44 2.851l6.633.154c1.472.029 2.427-1.787 2.467-3.542l.31-13.252c.036-1.661-1.07-3.007-2.463-3.039zm-25.311-.84l-1.215 4.538c-.507 1.9.117 3.973 1.708 4.399l4.283 1.145-1.05 3.914-2.421-.643.499-1.87-4.235-1.135-1.58 5.9 8.513 2.28c1.372.37 2.937-.767 3.389-2.458l1.357-5.073c.47-1.75-.105-3.617-1.549-4.007l-4.478-1.2.976-3.65 2.52.68-.452 1.691 3.87 1.035 1.504-5.634-7.875-2.11c-1.494-.4-3.278.389-3.764 2.198m-7.868-7.151l-7.861 5.162 1.023-9.42-4.583-2.845-2.187 3.521.966.6-6.144 9.882-.959-.526-2.137 3.444 4.646 2.889 5.513-8.863-.56 8.76 7.378-4.813-5.639 9.076 4.621 2.876 2.205-3.548-.986-.616 6.077-9.775.914.5 2.19-3.524-4.476-2.78m-17.881-8.197l.75.792 3.007-2.856-4.713-4.956-3.004 2.853.82.865-8.44 8.008-.713-.752-2.94 2.792 4.64 4.886 2.985-2.833-.785-.828 8.393-7.97m-11.796-15.254l1.337 2.24-3.298 1.963-1.333-2.24 3.294-1.963zm-2.34 7.115c.995.583 2.264 1.095 3.582.37l2.876-1.59c1.778-.973 2.543-3.11 1.702-4.524l-5.04-8.466-3.56 2.12.53 1.008-9.944 5.92-.639-.944-3.48 2.066 2.94 4.946 6.911-4.114 1.333 2.24-5.302 3.154c-.736.445-1.401 1.309-.985 2.005l2.265 3.807 3.537-2.103-.532-1.013 2.426-1.557c1.271-.816 1.66-2.023 1.38-3.325zm-11.533-18.351l-3.006.879-.712-2.43 11.167-3.26.712 2.432-2.238.648 1.105 3.795 6.16-1.798-2.348-8.047c-.413-1.408-2.201-2.157-3.91-1.655l-11.727 3.422c-2.034.592-3.894 2.113-3.41 3.768l2.357 8.283 7.012-2.046-1.162-3.991" fill="#C1C4C6"/><path d="M99.685 195.717c-52.724 0-95.62-42.897-95.62-95.62 0-52.725 42.896-95.617 95.62-95.617 52.72 0 95.617 42.892 95.617 95.617 0 52.723-42.896 95.62-95.617 95.62zm0-195.302C44.717.415 0 45.13 0 100.1c0 54.964 44.717 99.684 99.685 99.684 54.964 0 99.684-44.72 99.684-99.684C199.37 45.13 154.65.415 99.685.415z" fill="#231F20"/><path d="M176.467 185.726a4.642 4.642 0 0 1-4.641-4.65 4.64 4.64 0 0 1 4.641-4.659c2.58 0 4.654 2.08 4.654 4.66a4.647 4.647 0 0 1-4.654 4.649zm0-10.58a5.922 5.922 0 0 0-5.923 5.93 5.926 5.926 0 0 0 5.923 5.931 5.93 5.93 0 0 0 5.935-5.93 5.927 5.927 0 0 0-5.935-5.932z" fill="#231F20"/><path d="M176.898 180.438h-1.602v-1.482h1.602c.4 0 .748.326.748.746a.752.752 0 0 1-.748.736zm2.007-.736a2.014 2.014 0 0 0-2.007-2.017h-2.856v6.772h1.254v-2.75h.915l1.292 2.75h1.402l-1.346-2.864a1.993 1.993 0 0 0 1.346-1.891z" fill="#231F20"/><path fill="#A21A34" d="M68.844 32.547l-4.572-6.555-.137.061 2.364 7.613 2.345-1.12m29.308-10.138l-.169-3.651-3.076.14.169 3.65 3.076-.14M39.79 137.092l-1.336-2.24-3.294 1.963 1.333 2.24 3.298-1.963m137.872-62.787l-.046-.142-7.852 1.38.82 2.468 7.078-3.706m-49.599-51.283l-.14-.054-3.814 7 2.443.9 1.51-7.846m-32.63 7.314l3.14-.144-.19-4.076-3.14.147.19 4.073M22.122 73.067l7.06 3.698.863-2.454-7.871-1.39-.052.146m137.073 64.508l9.877 6.086 1.342-2.176-9.878-6.09-1.341 2.18"/><path d="M176.112 130.146l.333-1.092-11.127-3.415-.333 1.092-3.9-1.198 3.548-11.568 5.957 1.82-1.111 3.634-2.053-.629-.767 2.49 3.549 1.091 1.101-3.368 3.495 1.066-1.042 3.39 4.02 1.235.763-2.49-2.494-.767 1.193-3.878 6.427 1.977-3.628 11.815-3.93-1.205zm-1.144 11.556l-5.437 8.94-3.446-2.129.542-1.001-9.904-6.107-.626 1.018-3.528-2.176 5.528-8.853c.732-1.185 2.742-1.048 4.074-.226l11.651 7.185c1.255.769 1.797 2.296 1.146 3.349zm-15.613 20.374l-2.925-2.809.721-.745-8.39-8.061-.825.855-2.988-2.872 4.738-4.928 2.989 2.867-.755.786 8.347 8.021.789-.822 2.964 2.852-4.665 4.856zm-15.236 11.712l-2.266-3.435.824-.543-6.406-9.714-1.332.878 1.74 2.64-2.791 1.84-3.99-6.046 12.074-7.965 4.027 6.1-2.753 1.814-1.77-2.69-1.335.877 6.407 9.714.909-.602 2.267 3.437-5.605 3.695zm-21.923 9.266l-6.646-8.743 2.403 9.844-5.365 1.305-.971-3.993 1.154-.284-2.76-11.303-1.155.284-.98-4.027 5.313-1.302 6.615 8.627-2.344-9.603 5.316-1.297.968 3.968-1.045.319 3.72 15.24-4.223.965zm-18.734-.47c-.04 1.755-.995 3.57-2.467 3.542l-6.632-.154c-1.313-.033-2.477-1.258-2.442-2.851l.331-14.152c.042-1.781 1.636-2.85 2.952-2.822l6.105.146c1.394.032 2.499 1.378 2.463 3.039l-.31 13.252zm-17.33-11.585l-3.869-1.035.453-1.691-2.521-.68-.976 3.65 4.478 1.2c1.444.39 2.02 2.257 1.55 4.007l-1.358 5.073c-.452 1.69-2.017 2.828-3.39 2.459l-8.511-2.28 1.58-5.901 4.234 1.135-.5 1.87 2.422.643 1.05-3.914-4.283-1.145c-1.59-.426-2.215-2.5-1.708-4.4l1.215-4.537c.486-1.81 2.27-2.598 3.764-2.198l7.875 2.11-1.504 5.634zm-16.629-6.893l-6.077 9.775.986.616-2.205 3.548-4.62-2.876 5.638-9.076-7.378 4.813.56-8.76-5.513 8.863-4.646-2.889 2.137-3.444.96.526 6.143-9.882-.966-.6 2.187-3.52 4.583 2.845-1.023 9.419 7.862-5.162 4.475 2.78-2.19 3.523-.913-.499zm-29.847-2.369l-4.64-4.886 2.94-2.792.714.752 8.44-8.008-.82-.865 3.004-2.853 4.713 4.956L51 150.897l-.75-.792-8.393 7.971.785.828-2.986 2.833zm-4.922-16.445l-2.426 1.557.532 1.013-3.537 2.103-2.265-3.807c-.416-.696.25-1.56.985-2.005L33.325 141l-1.333-2.24-6.912 4.114-2.939-4.946 3.48-2.066.639.945 9.944-5.92-.53-1.01 3.56-2.12 5.04 8.467c.841 1.415.076 3.55-1.702 4.523l-2.876 1.59c-1.318.726-2.587.214-3.581-.369.28 1.302-.11 2.51-1.381 3.325zm-18.36-23.922c-.484-1.655 1.376-3.176 3.41-3.768l11.727-3.422c1.709-.502 3.497.247 3.91 1.655l2.348 8.047-6.16 1.798-1.105-3.795 2.238-.648-.712-2.433-11.167 3.261.712 2.43 3.006-.879 1.162 3.99-7.012 2.047-2.357-8.283zm4.028-53.618l15.54 2.26.447-1.282 3.878 1.36-2.114 6.016-4.684-1.07-1.12 3.193 4.285 2.21-2.166 6.155-3.817-1.343.48-1.366-13.673-7.752 2.944-8.381zm16.316-25.595l3.03 2.727-.89.99 8.468 7.62 1.638-1.819-2.517-2.264 3.517-3.907 5.57 5.011-9.822 10.915-3.055-2.748.911-1.013-8.513-7.66-.95 1.057-2.988-2.69 5.6-6.22zm62.967-1.853c33.02 0 59.796 26.77 59.796 59.796 0 33.025-26.775 59.793-59.796 59.793-33.026 0-59.801-26.768-59.801-59.793 0-33.026 26.775-59.796 59.8-59.796zm-33-19.218l9.366 12.601 1.23-.583 1.772 3.707-5.755 2.748-2.547-4.074-3.054 1.458 1.457 4.594-5.889 2.814-1.745-3.653 1.31-.627-4.16-15.156 8.014-3.829zm33.765-6.557c2.746-.154 3.215 4.09 3.139 6.39-.264 1.553-1.269 2.72-2.827 3.002 1.435.268 2.59 1.123 3.02 2.433l.242 4.073c.013 1.572-.662 3.387-2.26 3.461l-12.973.655-.185-3.984 1.417-.127-.526-11.436-1.45.004-.178-3.8 12.58-.67zm15.153 16.775l1.358.5 7.968-13.55 8.33 3.078-2.5 15.502 1.276.472-1.425 3.854-5.98-2.208 1.144-4.668-3.175-1.17-2.276 4.248-6.122-2.26 1.402-3.798zm26.35 11.882l.944.89 8.217-7.978-.945-.975 2.926-2.842 4.483 4.617-2.617 9.364 9.309-2.47 4.38 4.507-2.926 2.843-.911-.85-8.124 7.895.968.997-2.949 2.862-4.525-4.659 7.54-7.325-8.729 2.285c.666-2.915 1.351-5.94 2.013-8.859l-7.371 7.158-4.546-4.683 2.862-2.777zm40.27 34.135l-13.69 7.697.43 1.29-3.904 1.288-1.997-6.057 4.364-2.01-1.061-3.214-4.743.863-2.045-6.197 3.845-1.267.459 1.375 15.56-2.204 2.782 8.436zM99.685 8.545c-50.565 0-91.557 40.99-91.557 91.555 0 50.564 40.992 91.553 91.557 91.553 50.557 0 91.553-40.99 91.553-91.553 0-50.565-40.996-91.555-91.553-91.555z" fill="#A21A34"/><path fill="#A21A34" d="M96.485 181.966l2.482.056.268-11.602-2.481-.058-.27 11.604M119.577 77.02c-2.163 6.895-3.924 14.718-5.608 21.685l-9.762 1.19c4.866-7.785 7.528-14.982 15.37-22.874zm-47.353 58.214c13.609.296 22.787-16.617 27.74-26.661l12.906-2.029-.821 10.525c-1.625 26.18 17.22 16.076 17.22 16.076 2.619-1.19 5.361-4.052 5.294-7.393-.14-1.124-.762-.691-1.384-.372-6.653 3.435-11.648 2.715-12.18-1.428-.597-4.636-.27-11.162-.05-13.648.079-.906.354-3.851.53-4.74 2.27-.476 5.303-1.58 5.303 2.367 1.152-.586 3.256-2.314 3.615-4.145 2.006-9.471-7.92-6.987-7.92-6.987 2.419-11.19 5.02-23.104 10.561-32.937l-5.52-2.648c-3.744 2.863-7.509 5.763-10.65 6.23-2.87.691-20.406 2.068-19.174-5.959-1.957.159-3.058 2.459-3.048 4.45.635 8.666 11.895 6.947 18.751 7.794-7.08 8.859-13.296 18.032-18.915 27.53-4.453.854-5.038-4.67-4.281-6.192 0 0-2.937.825-4.077 4.04-1.374 3.382.181 9.102 4.975 9.42-4.743 8.347-10.433 22.02-22.072 19.286-3.897-.802-8.447-7.399-6.09-11.316 1.445-2.01-.7-3.418-3.154-.443-6.04 6.666-.215 19.979 12.44 19.18z"/></g></svg>