<?xml version="1.0" encoding="UTF-8"?>
<svg width="200px" height="200px" viewBox="0 0 200 200" version="1.1" xmlns="http://www.w3.org/2000/svg" xmlns:xlink="http://www.w3.org/1999/xlink">
    <!-- Generator: Sketch 51.3 (57544) - http://www.bohemiancoding.com/sketch -->
    <title>albany-ny</title>
    <desc>Created with Sketch.</desc>
    <defs></defs>
    <g id="albany-ny" stroke="none" stroke-width="1" fill="none" fill-rule="evenodd">
        <g id="albany-ny_BGL" transform="translate(0.000000, 30.845771)">
            <g id="albany-ny" transform="translate(0.000000, -0.992908)">
                <g id="g10" transform="translate(100.000000, 70.887383) scale(-1, 1) rotate(-180.000000) translate(-100.000000, -70.887383) translate(0.000000, 0.887383)" fill-rule="nonzero">
                    <g id="g12">
                        <path d="M117.817388,5.84573254 L159.995648,5.84573254 L159.995648,19.4144649 L152.031397,19.3147903 L146.711591,34.1507032 C143.885987,34.9067042 137.71932,36.5394858 135.122219,37.0920126 C133.472944,37.4431279 129.63961,38.0980153 126.51304,38.6179728 L132.670045,19.5143312 L117.817388,19.4614721 L117.817388,5.84573254 Z M165.792749,0.0897497494 L112.020287,0.0897497494 L112.020287,25.1968815 L124.73961,25.2424018 L118.099997,45.8148274 L122.766664,45.0655418 C123.191301,44.9975252 133.201446,43.3876235 136.337195,42.7204087 C139.898547,41.9624891 149.297581,39.4193501 149.696132,39.3114253 L151.156518,38.9162289 L156.102895,25.1224854 L165.792749,25.2438888 L165.792749,0.0897497494 Z" id="path16" fill="#3E1A61"></path>
                        <path d="M87.6681138,133.420903 L80.7082105,114.180557 L74.6463749,97.2934501 C77.1589353,97.633533 80.010626,98.0076722 81.4313989,98.1506125 C83.8396114,98.3933233 87.8565195,98.6657734 90.2400944,98.8187867 L92.8724614,106.41573 L98.7661811,123.741731 L107.071495,99.1085047 C114.149756,98.7708202 115.803862,98.6134898 116.825118,98.5161177 C117.063282,98.4935734 117.258451,98.4743868 117.495166,98.4580782 C118.925601,98.3583077 122.294683,97.8930321 125.174393,97.4733247 L119.251688,113.988211 L112.397582,133.420903 L87.6681138,133.420903 Z M65.9705298,90.2687475 L75.2497566,116.119845 L83.5903361,139.17689 L116.509659,139.17689 L124.717871,115.904955 L133.8942,90.3186328 L129.082605,91.0649924 C126.428499,91.4765455 119.10048,92.575939 117.088403,92.716481 C116.80048,92.736627 116.562799,92.7586916 116.272461,92.7860326 C115.284538,92.8805267 113.445408,93.055125 104.818838,93.4518084 L102.83478,93.5429449 L98.7420265,105.682322 L98.3594178,104.558465 L94.4623165,93.3098274 L92.5265677,93.194228 C92.4560363,93.189911 85.4130413,92.7663663 82.0169062,92.4243647 C79.3280173,92.1533536 70.8048291,90.9513117 70.7193219,90.93932 L65.9705298,90.2687475 Z" id="path18" fill="#3E1A61"></path>
                        <path d="M39.1983565,19.3664983 L39.1983565,5.76610805 L79.2028966,5.8361872 L79.2028966,19.4298142 L64.2106264,19.3430906 L70.4299499,38.0451561 C67.503863,37.5636199 64.3053124,37.0163214 63.113525,36.7423844 C61.876327,36.4585183 61.02367,36.2885728 60.2705299,36.1384854 C58.5574865,35.7974911 57.2787425,35.5422611 52.4637668,34.1238899 L50.4975833,28.1573296 L47.3998056,19.3664983 L39.1983565,19.3664983 Z M33.4012552,0 L33.4012552,25.1224854 L43.2865207,25.1224854 L45.0160375,30.0304238 L47.8956993,38.7732885 L49.3449263,39.2058989 C55.6347812,41.0852287 57.1768102,41.3926943 59.1299502,41.7817031 C59.8787425,41.9314068 60.6531386,42.0854274 61.8077279,42.3507304 C64.3656989,42.9371696 73.8251189,44.4247085 74.2265682,44.4880244 L78.9222202,45.2247907 L72.2449257,25.1458931 L84.9999979,25.2193779 L84.9999979,0.0901248479 L33.4012552,0 Z" id="path20" fill="#3E1A61"></path>
                        <path d="M129.529948,93.90845 L121.982123,114.953778 L114.45362,136.298897 L85.6289834,136.298897 L77.9801913,115.153798 L70.3111094,93.7885336 C70.3111094,93.7885336 78.9463748,95.0073639 81.7241525,95.2874886 C85.2198046,95.6395632 92.3521716,96.0669452 92.3521716,96.0669452 L95.6135242,105.479423 L98.7541038,114.712026 L101.853621,105.519235 L104.953137,96.3264443 C115.822219,95.8271124 115.978741,95.6788957 117.291785,95.5872796 C119.868113,95.407405 129.529948,93.90845 129.529948,93.90845" id="path22" fill="#FFFFFF"></path>
                        <path d="M86.3086935,135.339566 L78.88937,114.829065 L71.757003,94.9593974 C74.3898532,95.3253822 79.5613507,96.0338483 81.626568,96.2420232 C84.484539,96.5298225 89.8072441,96.8703851 91.6483069,96.9850252 L94.6999976,105.791685 L98.7579685,117.721928 L105.659418,97.2541176 C113.818838,96.8751817 115.579707,96.7072988 116.642992,96.6060893 C116.898065,96.5821061 117.10676,96.5619601 117.3599,96.5442125 C119.328499,96.4070281 125.204828,95.5364351 128.076325,95.1013784 L121.071978,114.631922 L113.768113,135.339566 L86.3086935,135.339566 Z M68.8642495,92.6152716 L77.0700464,115.475654 L84.9497563,137.258228 L115.139128,137.258228 L122.8942,115.270837 L130.985021,92.7116844 L129.380673,92.9606308 C129.284538,92.9755005 119.730432,94.4552688 117.223669,94.6303468 C116.95362,94.6490537 116.730915,94.6706387 116.458451,94.6960609 C115.385021,94.7982297 113.58792,94.9694703 104.908693,95.3680724 L104.24734,95.398771 L98.7502391,111.702125 L96.5289831,105.172437 L93.0555532,95.1479059 L92.4106257,95.109053 C92.3391281,95.104736 85.2574858,94.6792727 81.8217371,94.3329541 C79.094684,94.0581057 70.5333316,92.8512671 70.4468581,92.8387958 L68.8642495,92.6152716 Z" id="path24" fill="#FFFFFF"></path>
                        <path d="M198.551203,63.2299981 C169.312073,82.9596032 135.171011,93.3884925 99.8188381,93.3884925 C64.466182,93.3884925 30.32512,82.9596032 1.08601447,63.2299981 L0,64.8167319 C29.5604824,84.7636255 64.0772931,95.3071549 99.8188381,95.3071549 C135.559417,95.3071549 170.076807,84.7636255 199.637193,64.8167319 L198.551203,63.2299981" id="path26" fill="#3E1A61"></path>
                        <path d="M129.42077,92.8920387 L114.162799,135.873913 L85.9149737,135.873913 L70.4202881,92.7745206 C70.4202881,92.7745206 79.3656985,93.9688879 82.0879207,94.2437363 C85.5140075,94.5890955 91.5371958,95.0073639 91.5371958,95.0073639 L98.7772922,114.718742 L105.818355,95.2615867 C116.470528,94.7723278 115.657485,94.6274688 116.944442,94.5372916 C119.469079,94.3612544 129.42077,92.8920387 129.42077,92.8920387" id="path28" fill="#EDAC09"></path>
                        <path d="M122.303862,42.2244345 L125.516905,32.2771774 L128.704828,22.3782706 L121.811591,22.3539036 L114.918838,22.3290089 L114.918838,12.64835 L114.918838,2.96774378 L138.906277,2.96774378 L162.894199,2.96774378 L162.894199,12.64835 L162.894199,22.3290089 L158.481155,22.2737035 L154.067146,22.2186379 L151.499996,29.3766875 L148.93333,36.5351689 C148.93333,36.5351689 139.254103,39.1566373 135.729948,39.9063066 C132.629948,40.5658468 122.303862,42.2244345 122.303862,42.2244345" id="path30" fill="#FFFFFF"></path>
                        <path d="M115.885021,3.92707497 L161.928015,3.92707497 L161.928015,21.3576861 L153.388885,21.2506727 L148.19275,35.740315 C146.18647,36.2805144 138.535262,38.3281109 135.527533,38.9679368 C133.208692,39.4616566 126.708692,40.5356758 123.705794,41.0248868 L130.026567,21.423832 L115.885021,21.3730354 L115.885021,3.92707497 Z M163.860382,2.0084126 L113.952654,2.0084126 L113.952654,23.2853182 L127.383089,23.3329011 L120.902896,43.4211522 L122.457968,43.171774 C122.880673,43.1037574 132.843958,41.5011947 135.932364,40.8444845 C139.442509,40.0972135 148.791301,37.5679368 149.187436,37.4603958 L149.674392,37.3284878 L154.745407,23.186603 L163.860382,23.3007155 L163.860382,2.0084126 Z" id="path32" fill="#FFFFFF"></path>
                        <path d="M74.6792252,41.6450944 L71.4536214,31.9442415 L68.2275345,22.2444919 L75.1647324,22.2847838 L82.1014472,22.3246919 L82.1014472,12.6435054 L82.1014472,2.96287038 L59.2004816,2.92258807 L36.2998059,2.88286696 L36.2998059,12.5638809 L36.2998059,22.2444919 L40.8214483,22.2444919 L45.3432356,22.2444919 L47.7617379,29.1076431 L50.180192,36.450268 C58.7371966,39.0069336 58.1937184,38.5669843 62.460868,39.5465574 C64.9487906,40.1172635 74.6792252,41.6450944 74.6792252,41.6450944" id="path34" fill="#FFFFFF"></path>
                        <path d="M37.2659894,21.2851607 L37.2659894,3.84406884 L81.1352637,3.92070501 L81.1352637,21.3595568 L66.8884041,21.2771023 L73.2637663,40.4487604 C70.4130417,39.9926944 64.5048293,39.0313006 62.6782593,38.6121209 C61.4685975,38.3344425 60.6304333,38.1669432 59.8903367,38.0193022 C58.0169068,37.6460744 56.6492739,37.3741999 50.9415446,35.675704 L48.680192,28.8091472 L46.0286462,21.2851607 L37.2659894,21.2851607 Z M35.3336223,1.92203442 L35.3336223,23.203823 L44.65768,23.203823 L46.849709,29.4241264 L49.4188393,37.2244963 L49.9019311,37.3687797 C56.1043464,39.2218238 57.6072449,39.5216148 59.5101434,39.9005027 C60.2371966,40.0458893 61.060868,40.209839 62.2429936,40.480946 C64.7352641,41.0535708 74.1294667,42.5300294 74.5280175,42.5928177 L76.0937179,42.8380707 L69.5666649,23.2114977 L83.0676308,23.2892515 L83.0676308,2.00541469 L35.3336223,1.92203442 Z" id="path36" fill="#FFFFFF"></path>
                        <path d="M122.495649,43.4485411 L129.252171,22.0805422 L115.258451,22.0325756 L115.258451,3.53809495 L162.274875,3.53809495 L162.274875,22.0325756 L153.624151,21.9240752 L148.109658,38.3526218 C137.9599,41.1015373 138.777291,40.5120763 135.65362,41.1764611 C132.615939,41.8230983 122.495649,43.4485411 122.495649,43.4485411" id="path38" fill="#3E1A61"></path>
                        <path d="M74.6946841,43.181895 L67.4057954,21.7706302 L81.4850221,21.8493433 L81.4850221,3.35484831 L36.5996609,3.27652851 L36.5996609,21.7706302 L45.9450713,21.7706302 L51.1685978,38.091252 C59.5541048,40.5960178 58.0555541,40.1652301 62.2376796,41.1251369 C64.6753607,41.6848107 74.6946841,43.181895 74.6946841,43.181895" id="path40" fill="#EDAC09"></path>
                        <polyline id="path42" fill="#3E1A61" points="74.6545875 43.181895 67.3656988 21.7706302 81.4449255 21.8493433 81.4449255 3.35484831 36.5592744 3.27652851 71.8207712 42.8839747 74.6545875 43.181895"></polyline>
                        <path d="M24.592753,27.8421414 L23.5926081,30.0246198 C48.5091775,41.2810282 74.130916,46.9890487 99.7468574,46.9890487 C125.362316,46.9890487 150.984054,41.2810282 175.900479,30.0246198 L174.900479,27.8421414 C150.299996,38.9556094 125.014973,44.5907208 99.7468574,44.5907208 C74.4787421,44.5907208 49.1932355,38.9556094 24.592753,27.8421414" id="path44" fill="#3E1A61"></path>
                        <path d="M6.06637666,56.2024175 C5.36570035,55.7496132 4.66749747,55.2910529 3.97192261,54.8272162 C3.97192261,57.3301113 3.97192261,59.8325267 3.97192261,62.3349421 C7.938937,64.9802978 11.9895649,67.4448196 16.1118837,69.7285075 C16.1118837,67.2260921 16.1118837,64.7231971 16.1118837,62.2207817 C15.4279706,61.8418459 14.74599,61.4581134 14.0662798,61.0695842 C14.0662798,51.0877433 14.0662798,41.1058543 14.0662798,31.1235337 C14.0689368,25.5479968 14.9333813,23.4082565 17.8157,24.972398 C20.8223666,26.5839785 21.8444439,29.8130873 21.8417869,35.7135497 C21.8417869,45.5605566 21.8417869,55.4080913 21.8417869,65.2551462 C21.1473425,64.904031 20.4543956,64.5476395 19.7637193,64.1864513 C19.7637193,66.6888667 19.7637193,69.1917617 19.7637193,71.6941771 C23.6516902,73.7269999 27.5992747,75.6020127 31.5973905,77.3192155 C31.5973905,74.8168001 31.5973905,72.3139051 31.5973905,69.8114897 C30.846376,69.4891544 30.0971973,69.1610631 29.3497094,68.8272159 C29.3497094,60.0018486 29.3497094,51.1769611 29.3497094,42.3520255 C29.3669075,28.7467907 25.7823665,21.0693112 17.5805793,16.6929382 C9.35932344,12.1810598 6.08429936,15.7176821 6.06637666,28.5972309 C6.06637666,37.798608 6.06637666,47.0004648 6.06637666,56.2024175" id="path46" fill="#3E1A61"></path>
                        <path d="M4.76222693,56.2148888 C5.45990325,56.6744084 6.15999985,57.1286517 6.86256021,57.5771391 C6.86256021,48.087435 6.86256021,38.5977309 6.86256021,29.1086024 C6.87782592,16.5490385 9.96454081,13.3811831 17.5805793,17.5563363 C25.1477771,21.5997733 28.5173423,28.6203028 28.502608,41.9713149 C28.502608,51.0839059 28.502608,60.1965929 28.502608,69.3092798 C29.2487432,69.647444 29.9966176,69.9798523 30.7461345,70.3065046 C30.7461345,72.2333212 30.7461345,74.1606176 30.7461345,76.0874343 C27.3222215,74.5951946 23.9358931,72.9863962 20.5930913,71.2615188 C20.5930913,69.3347021 20.5930913,67.4074057 20.5930913,65.480589 C21.2854584,65.8379399 21.9797096,66.1900144 22.6756999,66.5372923 C22.6756999,56.402438 22.6756999,46.2676797 22.6756999,36.1322977 C22.6813521,31.1831561 22.0684052,26.3748443 17.8157,24.109 C13.7868112,21.911556 13.2569079,25.9172913 13.2518354,30.655524 C13.2518354,40.9250204 13.2518354,51.194229 13.2518354,61.4638694 C13.930048,61.8567155 14.6103378,62.2442853 15.2927049,62.6275381 C15.2927049,64.5543548 15.2927049,66.4811715 15.2927049,68.4084678 C11.725362,66.4068233 8.21275342,64.2694334 4.76222693,61.9958185 C4.76222693,60.0685222 4.76222693,58.1417055 4.76222693,56.2148888 Z M17.5805793,15.8299239 C8.92966161,11.0831052 5.29154576,14.4840302 5.27231871,28.0810628 C5.27231871,36.9951682 5.27231871,45.9092256 5.27231871,54.8228992 C4.57352162,54.3657779 3.87718831,53.9033803 3.1834975,53.4352267 C3.1834975,56.5132408 3.1834975,59.5917346 3.1834975,62.6697487 C7.66434763,65.6930809 12.2529949,68.4847346 16.9333329,71.0437506 C16.9333329,67.9657365 16.9333329,64.8877224 16.9333329,61.8097083 C16.2477291,61.4346098 15.5642508,61.0547146 14.8826083,60.6700228 C14.8826083,50.9759812 14.8826083,41.2819875 14.8826083,31.58785 C14.8833813,25.448706 15.9980672,24.8543523 17.8157,25.8357961 C19.353671,26.66792 21.0095647,28.1170377 21.0097579,35.289909 C21.0097579,44.8496922 21.0097579,54.4084682 21.0097579,63.9682034 C20.3168594,63.6127712 19.6254101,63.2525424 18.9360865,62.8875168 C18.9360865,65.965531 18.9360865,69.0440247 18.9360865,72.1220388 C23.3665695,74.4690426 27.875893,76.6102698 32.4501924,78.5462001 C32.4501924,75.468186 32.4501924,72.3901719 32.4501924,69.3116781 C31.6979702,68.9936598 30.9472939,68.6694059 30.1983084,68.3398756 C30.1983084,59.8027874 30.1983084,51.2652195 30.1983084,42.7280834 C30.2168108,28.3506828 26.1911105,20.4256959 17.5805793,15.8299239 Z" id="path48" fill="#EDAC09"></path>
                        <path d="M46.7847814,59.685749 C46.2550713,62.6817403 45.7261341,65.6753333 45.1975834,68.6660482 C45.0539602,69.363482 44.7661825,71.9378472 44.1904337,76.1512298 C43.5197574,71.5147822 43.0889361,68.6329513 42.9449748,67.7129527 C42.4028009,64.4195687 41.8612067,61.1237865 41.3205787,57.8246465 C43.1338637,58.4765121 44.9552646,59.0967197 46.7847814,59.685749 Z M31.9554098,42.1011604 C32.1993712,42.2053438 32.4435741,42.3089516 32.6879702,42.4119837 C34.9252648,54.8622318 37.1782599,67.2630264 39.4448299,79.6153747 C42.4467622,80.7334752 45.4728974,81.7652359 48.5198056,82.7111365 C50.7884045,71.9076283 53.0685977,61.0566333 55.3584527,50.1576717 C55.8454092,50.2871814 56.3328488,50.4142928 56.8212546,50.5394855 C56.8212546,48.532085 56.8212546,46.5247325 56.8212546,44.517284 C53.4048296,43.6413187 50.0096606,42.6591554 46.6406269,41.5716576 C46.6406269,43.5785784 46.6406269,45.5860269 46.6406269,47.5933315 C47.3141051,47.8106679 47.9893225,48.0245988 48.6652162,48.2332533 C48.342994,50.2867017 48.0212065,52.3382315 47.6996606,54.3892815 C45.2411583,53.6127029 42.7966656,52.7800035 40.3673903,51.8907035 C40.0181149,49.6103732 39.6688396,47.3291316 39.3200956,45.0458275 C40.0332357,45.3120899 40.7476801,45.5734596 41.4634289,45.8301767 C41.4634289,43.8226802 41.4634289,41.8154236 41.4634289,39.8079272 C38.2661343,38.6620061 35.0951199,37.4191446 31.9554098,36.0791028 C31.9554098,38.0864074 31.9554098,40.0938559 31.9554098,42.1011604 Z" id="path50" fill="#3E1A61"></path>
                        <path d="M42.3531873,59.0554684 C43.4833322,59.4535909 44.6169071,59.8397217 45.7537187,60.2133812 C45.2806269,62.8899152 44.8080665,65.5640509 44.3365206,68.2362679 C44.2806269,68.5053603 44.2066656,69.0286754 44.101738,69.8287576 C43.966424,68.9226693 43.8651197,68.2554545 43.8047332,67.8693237 C43.3202888,64.9337703 42.8364724,61.9958185 42.3531873,59.0554684 Z M47.8177766,59.1518812 C45.2936221,58.356116 42.7836221,57.5018316 40.2900473,56.587589 C40.8884531,60.2483968 41.4875835,63.9053672 42.0880666,67.5594597 C42.2486463,68.5888221 42.7060859,71.6721125 43.3282598,75.9843062 C43.9034289,76.1771318 44.4793709,76.3670793 45.0560375,76.5531896 C45.3132356,74.6743394 45.5127042,73.1207026 45.6682114,71.9133843 C45.8571003,70.4436889 45.9822211,69.4718864 46.0563757,69.1106982 C46.6428974,65.7942903 47.2299505,62.4745248 47.8177766,59.1518812 Z M47.5166172,42.7147966 C50.3057958,43.5991561 53.112076,44.4112299 55.933815,45.1509702 C55.933815,46.5822923 55.933815,48.0140461 55.933815,49.4458479 C55.4975832,49.3316875 55.0623175,49.2160881 54.6275349,49.0980904 C52.3396122,59.986979 50.0618345,70.8279011 47.7956993,81.6213362 C45.2340085,80.8135794 42.6870038,79.944905 40.1570038,79.0153131 C37.8874387,66.6735174 35.6312068,54.2827958 33.3908687,41.8425727 C33.1967141,41.7619889 33.0025113,41.6810693 32.8087431,41.5995741 C32.8087431,40.1676764 32.8087431,38.7358266 32.8087431,37.3041208 C35.3847817,38.3871097 37.9812068,39.405104 40.5957478,40.3576719 C40.5957478,41.7899054 40.5957478,43.2212275 40.5957478,44.6531253 C39.8305304,44.3742957 39.0670522,44.0904296 38.30483,43.7996563 C38.7462309,46.696021 39.1878251,49.5902273 39.6301439,52.4826108 C42.5507719,53.566655 45.4945882,54.5691561 48.4574867,55.4901141 C48.8656993,52.8888876 49.2743949,50.2862221 49.6830905,47.6815899 C48.9599022,47.4629104 48.2374867,47.2388106 47.5166172,47.0105857 C47.5166172,45.578736 47.5166172,44.1470301 47.5166172,42.7147966 Z M57.7091773,43.8792808 C53.6971001,42.87347 49.7125591,41.7207856 45.7654095,40.4228585 C45.7654095,43.0059536 45.7654095,45.5888569 45.7654095,48.1713765 C46.3922694,48.3776327 47.0202887,48.5800515 47.6488877,48.7791128 C47.4131872,50.2814254 47.1778732,51.783738 46.9425592,53.2850913 C44.9877283,52.6576888 43.0419796,51.9947909 41.1058444,51.2959181 C40.849371,49.6262022 40.5930908,47.9560546 40.3370521,46.2852834 C41.0011101,46.5285218 41.6658927,46.7679709 42.3322212,47.0023355 C42.3322212,44.4194802 42.3322212,41.836385 42.3322212,39.2538655 C38.5505304,37.9209228 34.8050716,36.4530981 31.1035741,34.849576 C31.1035741,37.4326711 31.1035741,40.0155265 31.1035741,42.5982379 C31.3973905,42.7252533 31.6915934,42.851933 31.9859412,42.9774615 C34.2200475,55.4378305 36.4698542,67.8496574 38.7335739,80.211599 C42.2061825,81.5230048 45.7117863,82.7178518 49.2449263,83.797579 C51.5154576,72.9839979 53.7980663,62.1224502 56.0898537,51.2134157 C56.6294672,51.3544373 57.1690807,51.492581 57.7091773,51.6278467 C57.7091773,49.0448475 57.7091773,46.4623759 57.7091773,43.8792808 Z" id="path52" fill="#EDAC09"></path>
                        <path d="M59.9135251,51.3016741 C60.5990323,51.4642808 61.2855057,51.6225704 61.9729453,51.7765431 C61.9729453,61.3593023 61.9729453,70.9425411 61.9729453,80.5253003 C61.2855057,80.3713277 60.5990323,80.2135177 59.9135251,80.0509111 C59.9135251,81.9753294 59.9135251,83.8997478 59.9135251,85.8241661 C63.8318825,86.7527987 67.7758437,87.5418486 71.7376794,88.1927548 C71.7376794,86.2683365 71.7376794,84.3439181 71.7376794,82.4190201 C70.7637663,82.2592915 69.7913026,82.0909288 68.819805,81.9144119 C68.819805,72.331173 68.819805,62.7484138 68.819805,53.1651749 C70.6478243,53.4975832 72.4801914,53.8007319 74.3154571,54.0741412 C74.3154571,56.8475677 74.3154571,59.6209942 74.3154571,62.3944206 C76.4492735,62.7119592 78.5879207,62.9896856 80.7294666,63.2271201 C80.7294666,58.4462931 80.7294666,53.6654662 80.7294666,48.8846392 C73.7396117,48.1094996 66.7874379,46.9079373 59.9135251,45.2798563 C59.9135251,47.2873528 59.9135251,49.2947533 59.9135251,51.3016741" id="path54" fill="#3E1A61"></path>
                        <path d="M60.8053125,46.3516211 C67.0908196,47.8054396 73.441061,48.9028665 79.8236695,49.6449092 C79.8236695,53.8501374 79.8236695,58.0553657 79.8236695,62.2610736 C78.2864715,62.0821583 76.7512058,61.8830971 75.2188387,61.6629306 C75.2188387,58.8895041 75.2188387,56.1160777 75.2188387,53.3426512 C72.7797083,52.9924953 70.3463751,52.5905356 67.9212543,52.1362923 C67.9212543,62.2946502 67.9212543,72.4530081 67.9212543,82.6118457 C68.8917857,82.7936389 69.8637664,82.9667982 70.8371963,83.1322828 C70.8371963,84.4811025 70.8371963,85.8304018 70.8371963,87.1792214 C67.4782592,86.6088991 64.1323655,85.9392859 60.8053125,85.1699023 C60.8053125,83.8210826 60.8053125,82.4717833 60.8053125,81.1229637 C61.4913028,81.281733 62.1782593,81.4361853 62.866182,81.5863206 C62.866182,71.4279627 62.866182,61.2691251 62.866182,51.1107672 C62.1782593,50.9606319 61.4913028,50.8061796 60.8053125,50.6474103 C60.8053125,49.2156085 60.8053125,47.7838546 60.8053125,46.3516211 Z M81.6362298,48.1195726 C74.0386455,47.31714 66.4830901,46.011922 59.0227038,44.2030551 C59.0227038,46.7861502 59.0227038,49.3691014 59.0227038,51.951621 C59.707728,52.1175853 60.3937183,52.2797123 61.0801917,52.4375222 C61.0801917,61.4446827 61.0801917,70.4523229 61.0801917,79.4594834 C60.3937183,79.3021531 59.707728,79.1400261 59.0227038,78.9740618 C59.0227038,81.4740789 59.0227038,83.9745756 59.0227038,86.474113 C63.5309163,87.5672709 68.0734282,88.4762372 72.6391286,89.2014916 C72.6391286,86.7019542 72.6391286,84.2019371 72.6391286,81.7014404 C71.6647325,81.5469881 70.6913026,81.3834221 69.7188388,81.2121815 C69.7188388,72.2045413 69.7188388,63.1973808 69.7188388,54.1897407 C70.9487905,54.4065495 72.1801914,54.6104074 73.4130416,54.800355 C73.4130416,57.5737814 73.4130416,60.3476875 73.4130416,63.121114 C76.1473411,63.54274 78.8888869,63.8986519 81.6362298,64.1888496 C81.6362298,58.8324239 81.6362298,53.4759983 81.6362298,48.1195726 Z" id="path56" fill="#EDAC09"></path>
                        <path d="M94.1671474,55.683899 C97.5198043,55.7855881 98.7212536,57.319079 98.7207705,62.1075806 C98.7212536,66.3248005 97.4198043,68.1993336 94.317872,68.1067582 C93.6342972,68.0846935 92.9507223,68.0587916 92.2676305,68.0290523 C92.2676305,63.8895383 92.2676305,59.7505039 92.2676305,55.6114695 C92.9004808,55.6388104 93.5338141,55.6632734 94.1671474,55.683899 Z M93.7671474,73.6771147 C96.7690797,73.7764055 97.9700459,75.3832852 97.9700459,79.1755214 C97.9700459,83.2689875 96.8700459,84.9554918 93.7671474,84.8538027 C93.2671474,84.836055 92.7671474,84.8163887 92.2676305,84.7948038 C92.2676305,81.0692411 92.2676305,77.3436785 92.2676305,73.6181158 C92.7671474,73.6397008 93.2671474,73.6593671 93.7671474,73.6771147 Z M83.3256018,55.1749738 C84.0236694,55.2416473 84.7222201,55.3040038 85.4207708,55.362523 C85.4207708,64.9452822 85.4207708,74.5285211 85.4207708,84.1112803 C84.7222201,84.0532408 84.0236694,83.9904046 83.3256018,83.9237311 C83.3256018,85.8481494 83.3256018,87.7725678 83.3256018,89.6974658 C87.4313988,90.0903119 91.5483069,90.3363804 95.6681136,90.4356712 C101.923669,90.5642215 104.777292,87.5394503 104.776809,80.5435276 C104.776809,75.3837649 103.125601,72.6659796 99.5212536,71.7968256 C99.5212536,71.6524462 99.5212536,71.5075872 99.5212536,71.3632079 C103.627534,70.6787251 105.677775,67.1584593 105.677775,61.2676861 C105.678258,52.7277199 102.324635,50.0650962 94.4173889,49.8564417 C90.7149736,49.7403626 87.0159399,49.5058061 83.3256018,49.1527723 C83.3256018,51.1596931 83.3256018,53.1670936 83.3256018,55.1749738 Z" id="path58" fill="#3E1A61"></path>
                        <path d="M93.1772924,74.5184481 C93.3739107,74.5261228 93.5705291,74.5333178 93.7671474,74.5405127 C95.8521715,74.6119829 97.059901,75.3655376 97.0594179,79.1630501 C97.059901,83.3126371 95.9502391,84.0652324 93.7671474,83.9904046 C93.5705291,83.9836893 93.3739107,83.9764943 93.1772924,83.9688196 C93.1772924,80.8188557 93.1772924,77.6688917 93.1772924,74.5184481 Z M93.7671474,72.8137166 C92.9637658,72.7854163 92.1603842,72.7518398 91.3574856,72.7125072 C91.3574856,77.0136685 91.3574856,81.3148299 91.3574856,85.6155116 C92.1603842,85.6553239 92.9637658,85.6889005 93.7671474,85.7172007 C98.2724613,85.8539054 98.8811569,82.452117 98.8806739,79.1827164 C98.8811569,76.4793211 98.349756,72.95234 93.7671474,72.8137166 Z M93.1772924,56.5118018 C93.507244,56.5247528 93.8371957,56.5362647 94.1671474,56.547297 C96.6855048,56.6259622 97.8106256,57.4145324 97.8101425,62.0989466 C97.8101425,66.4303269 96.4135242,67.3095539 94.317872,67.2433601 C93.9376788,67.2313684 93.5574856,67.2179378 93.1772924,67.2030682 C93.1772924,63.6396325 93.1772924,60.0757171 93.1772924,56.5118018 Z M94.1671474,54.8205009 C93.2304325,54.7898023 92.2937175,54.7514291 91.3574856,54.7058608 C91.3574856,59.4204939 91.3574856,64.1356067 91.3574856,68.8502398 C92.343959,68.898686 93.3309155,68.9384983 94.317872,68.9701562 C99.0801908,69.0977473 99.6318816,65.0781496 99.6313985,62.1109382 C99.6318816,57.7771596 98.7014468,54.949531 94.1671474,54.8205009 Z M84.2328481,50.1001118 C87.62222,50.4066181 91.0188383,50.6128743 94.4173889,50.7193601 C102.058935,50.916023 104.768113,53.4649659 104.76763,61.2959864 C104.76763,66.7622555 102.949756,69.9189348 99.3637656,70.5127608 C99.1125579,70.5535323 98.8618333,70.5943039 98.6106256,70.6341162 C98.6106256,71.2437711 98.6106256,71.8539058 98.6106256,72.4640404 C98.839128,72.5206409 99.0681135,72.5767618 99.2966159,72.6328827 C101.424635,73.1576368 103.866664,74.4728799 103.866664,80.5670313 C103.866664,86.9470633 101.490819,89.6907505 95.6681136,89.5722731 C91.8516885,89.4801773 88.037679,89.2624091 84.2328481,88.9184889 C84.2328481,87.5691896 84.2328481,86.2203699 84.2328481,84.8715503 C84.9313988,84.9348661 85.6299496,84.9933853 86.3294664,85.0480672 C86.3294664,74.8897093 86.3294664,64.7308717 86.3294664,54.5725138 C85.6299496,54.5178319 84.9313988,54.4588331 84.2328481,54.3959969 C84.2328481,52.9641951 84.2328481,51.5319136 84.2328481,50.1001118 Z M94.4173889,48.9930436 C90.4115919,48.8673712 86.4096597,48.6030755 82.4183554,48.2001564 C82.4183554,50.7831556 82.4183554,53.3661548 82.4183554,55.9486744 C83.116423,56.0191852 83.8144907,56.0853791 84.5130414,56.1472559 C84.5130414,65.1548961 84.5130414,74.1625363 84.5130414,83.1696968 C83.8144907,83.1078199 83.116423,83.041626 82.4183554,82.9711152 C82.4183554,85.4711323 82.4183554,87.9711493 82.4183554,90.4711664 C86.8251186,90.9162961 91.2449253,91.1921038 95.6681136,91.2990692 C102.504345,91.4381722 105.687437,87.8157377 105.686954,80.5152274 C105.686954,75.9305836 104.354587,73.0386798 101.624152,71.6428529 C105.672944,69.8378713 106.58792,65.0925396 106.58792,61.2345892 C106.588886,52.4658225 103.062316,49.2151288 94.4173889,48.9930436 Z" id="path60" fill="#EDAC09"></path>
                        <path d="M122.548789,66.519065 C122.001929,69.7577671 121.455069,72.9935912 120.907726,76.227017 C120.757485,76.9911243 120.458451,79.6978772 119.862799,84.1755555 C119.163765,79.8480125 118.716422,77.1647632 118.56763,76.3104788 C118.002896,73.2674803 117.437195,70.2216038 116.871978,67.1728492 C118.766664,66.9862593 120.659417,66.7680115 122.548789,66.519065 Z M106.983089,55.8167663 C107.12222,55.81149 107.26135,55.8052544 107.40048,55.7994984 C109.785021,67.2030682 112.16763,78.5577121 114.546374,89.8629504 C117.817388,89.5852241 121.082123,89.2139629 124.336229,88.7501263 C126.669562,76.9100608 128.997581,65.0220287 131.31932,53.0860301 C131.813523,52.9948937 132.307726,52.9013589 132.801446,52.8059054 C132.801446,50.7985049 132.801446,48.7911044 132.801446,46.7837039 C129.348306,47.4518781 125.878741,48.0145258 122.398065,48.4706878 C122.398065,50.4780883 122.398065,52.4854888 122.398065,54.4928893 C123.094683,54.4012732 123.790818,54.3058197 124.48647,54.2060493 C124.155069,56.4062754 123.824151,58.6050624 123.493234,60.8033698 C120.959417,61.1516071 118.419321,61.4442031 115.874876,61.6801985 C115.509176,59.5615156 115.142992,57.4418734 114.777292,55.3207921 C115.525601,55.2560373 116.273427,55.1864858 117.02077,55.1121376 C117.02077,53.1052167 117.02077,51.0978162 117.02077,49.0899361 C113.681157,49.4223443 110.333814,49.6573805 106.983089,49.7950445 C106.983089,51.802445 106.983089,53.8093658 106.983089,55.8167663 Z" id="path62" fill="#3E1A61"></path>
                        <path d="M117.949272,67.9264039 C119.128499,67.8031298 120.305794,67.6673845 121.482606,67.5196475 C120.993234,70.4129903 120.503379,73.3044145 120.014007,76.1934404 C119.956036,76.4874754 119.878741,77.0458061 119.770045,77.8933752 C119.629466,77.0472451 119.524635,76.4308748 119.461833,76.072085 C118.957968,73.3590964 118.45362,70.6441891 117.949272,67.9264039 Z M123.614007,65.5117673 C121.01304,65.8715165 118.405794,66.1717872 115.793234,66.4125793 C116.42077,69.7961404 117.047823,73.1758641 117.674393,76.5527099 C117.797582,77.2573387 118.209659,79.7175435 118.966664,84.4062747 C119.564731,84.3338452 120.162799,84.258058 120.760867,84.1793928 C121.018838,82.2372268 121.221736,80.6274691 121.38019,79.3645096 C121.583089,77.7499552 121.716905,76.6826993 121.796615,76.2793005 C122.402895,72.6933206 123.008693,69.1039829 123.614007,65.5117673 Z M123.302412,49.2132101 C126.178258,48.8208437 129.046374,48.3560477 131.903861,47.8183426 C131.903861,49.2501444 131.903861,50.6819462 131.903861,52.113748 C131.462316,52.1972098 131.020287,52.2782733 130.578258,52.3578978 C128.255069,64.2833437 125.925601,76.1613028 123.590818,87.991775 C120.831398,88.3726294 118.064731,88.6868104 115.293234,88.9347975 C112.91449,77.6396321 110.532847,66.2955409 108.14879,54.9020441 C108.063282,54.9058814 107.978258,54.9097187 107.892751,54.9140357 C107.892751,53.4822339 107.892751,52.0504321 107.892751,50.6186303 C110.636712,50.4910393 113.377292,50.2986934 116.113524,50.0411129 C116.113524,51.4733944 116.113524,52.9051962 116.113524,54.3365183 C115.312558,54.4123055 114.511591,54.481857 113.710142,54.5461322 C114.174393,57.2370562 114.638644,59.9260615 115.102413,62.6131481 C118.166181,62.3430964 121.225118,61.9910219 124.27391,61.5574042 C124.693234,58.7695877 125.112557,55.9803323 125.531881,53.1896379 C124.788886,53.3009203 124.045891,53.4069264 123.302412,53.5086155 C123.302412,52.0768137 123.302412,50.6450119 123.302412,49.2132101 Z M133.698547,45.7443645 C129.650238,46.5505864 125.579224,47.2101266 121.493717,47.7238964 C121.493717,50.306368 121.493717,52.8893672 121.493717,55.4723664 C122.142509,55.3903436 122.791784,55.3054428 123.440094,55.216225 C123.197581,56.8264624 122.955069,58.4362201 122.712557,60.0454982 C120.6942,60.3136313 118.671978,60.5467488 116.64734,60.7434116 C116.379224,59.1926528 116.111591,57.6409346 115.843475,56.0887367 C116.538161,56.0244615 117.23333,55.9558694 117.927533,55.8829602 C117.927533,53.299961 117.927533,50.7174414 117.927533,48.1344422 C113.985021,48.5474343 110.030915,48.824681 106.072461,48.966662 C106.072461,51.5496612 106.072461,54.1326604 106.072461,56.71518 C106.266181,56.7084647 106.458935,56.7012697 106.652171,56.693595 C109.036712,68.1077175 111.419804,79.4724344 113.799031,90.7882254 C117.570045,90.4841174 121.332364,90.0567353 125.081156,89.5055996 C127.413523,77.6554611 129.740576,65.7573561 132.0599,53.8108048 C132.60676,53.7076767 133.152654,53.6016706 133.698547,53.4932662 C133.698547,50.910267 133.698547,48.3272678 133.698547,45.7443645 Z" id="path64" fill="#EDAC09"></path>
                        <path d="M143.188885,50.4613 C144.049755,50.2387352 144.908692,50.0099347 145.766663,49.7744189 C145.766663,47.7670184 145.766663,45.7595219 145.766663,43.7522653 C142.075842,44.7666621 138.357484,45.6564898 134.620286,46.4215084 C134.620286,48.4289569 134.620286,50.4363574 134.620286,52.4437579 C135.431398,52.2773139 136.242026,52.1055937 137.051204,51.9276377 C137.051204,61.5108766 137.051204,71.0941155 137.051204,80.6768747 C136.242026,80.8548306 135.431398,81.0265509 134.620286,81.1929949 C134.620286,83.1174132 134.620286,85.0418316 134.620286,86.9662499 C139.01932,86.0659176 143.389851,84.9929057 147.722702,83.7467345 C149.17246,76.6654313 150.617871,69.5649416 152.059416,62.4447855 C152.394199,60.9218472 155.48647,47.1007149 155.48502,47.0917451 C154.935262,54.2947874 154.657967,75.8197809 154.657967,75.8202606 C153.848305,76.0903123 153.037194,76.3541284 152.224151,76.6117088 C152.224151,78.5366068 152.224151,80.4610252 152.224151,82.3854435 C155.900962,81.2188968 159.546856,79.926198 163.155068,78.5078269 C163.155068,76.5834085 163.155068,74.6589902 163.155068,72.7340921 C162.375358,73.0405984 161.593716,73.3413488 160.810624,73.6363431 C160.810624,62.0457037 160.810624,50.455544 160.810624,38.8649046 C157.587436,40.077931 154.336228,41.1922421 151.060383,42.2056796 C148.387436,54.503442 145.69903,66.7353942 142.996615,78.9001933 C143.060866,69.4205622 143.125117,59.9409311 143.188885,50.4613" id="path66" fill="#3E1A61"></path>
                        <path d="M151.810624,42.8974533 C154.518837,42.0460468 157.210141,41.1260962 159.882605,40.1369778 C159.882605,51.7276172 159.882605,63.3182565 159.882605,74.9084163 C160.667146,74.6182186 161.449754,74.3222649 162.230914,74.0200756 C162.230914,75.327644 162.230914,76.6347327 162.230914,77.9418215 C159.232846,79.1006935 156.209658,80.1732258 153.16473,81.1584589 C153.16473,79.8508905 153.16473,78.5438018 153.16473,77.236713 C153.971977,76.9752953 154.777774,76.7081216 155.581639,76.4347122 C155.585986,76.1286855 155.589368,75.8226589 155.593233,75.5166322 C155.596131,75.3012624 155.876325,53.9374366 156.416421,46.8445735 C155.803378,46.9607485 155.188885,47.073374 154.573909,47.1833613 C154.544924,47.3304267 151.473909,61.0173007 151.141542,62.5253693 C149.750238,69.3812296 148.355552,76.2193423 146.956035,83.0392277 C143.190335,84.1036057 139.396615,85.0375146 135.580673,85.8409544 C135.580673,84.5338657 135.580673,83.2262973 135.580673,81.9192086 C136.391301,81.7484476 137.200963,81.5719307 138.009658,81.3891781 C138.009658,71.1890893 138.009658,60.9885208 138.009658,50.7884319 C137.200963,50.9707049 136.391301,51.1477015 135.580673,51.3179828 C135.580673,49.9283915 135.580673,48.5383206 135.580673,47.1482977 C138.674876,46.4964801 141.755069,45.7591382 144.816905,44.936032 C144.816905,46.3265346 144.816905,47.7162218 144.816905,49.1062447 C143.960383,49.3364842 143.102412,49.5600084 142.242509,49.7768172 C142.176325,59.5634343 142.110141,69.3500514 142.043475,79.1361888 C142.671494,79.0493693 143.298547,78.9591922 143.924634,78.8656574 C146.567146,66.9397318 149.196615,54.9504903 151.810624,42.8974533 Z M161.737194,37.5870275 C157.96473,39.0318283 154.153619,40.3394926 150.309658,41.5101644 C148.217388,51.1165232 146.115455,60.6815348 144.00531,70.2062545 C144.048306,63.851165 144.091301,57.4955959 144.134296,51.1405065 C144.996132,50.9126653 145.856518,50.6781089 146.714972,50.4368371 C146.714972,47.8116273 146.714972,45.1873288 146.714972,42.5626467 C142.396615,43.775673 138.041059,44.8185619 133.658934,45.6896347 C133.658934,48.3143168 133.658934,50.9390469 133.658934,53.5637771 C134.470528,53.4021298 135.281639,53.2352061 136.092267,53.0620468 C136.092267,62.0274764 136.092267,70.9933857 136.092267,79.9588153 C135.281639,80.1319746 134.470528,80.2993779 133.658934,80.4610252 C133.658934,83.0027731 133.658934,85.5440414 133.658934,88.0862691 C138.641542,87.09528 143.589851,85.8836447 148.488402,84.4504039 C149.989851,77.1024067 151.48647,69.7337838 152.978257,62.3440557 C153.094199,61.8087489 153.561349,59.7159679 154.114006,57.2375358 C153.899996,64.3773582 153.77246,72.506251 153.733329,75.1995733 C152.918354,75.466747 152.101929,75.7272054 151.283571,75.9819079 C151.283571,78.5236558 151.283571,81.0654038 151.283571,83.6071518 C155.59275,82.2664864 159.860866,80.7536212 164.077774,79.0680763 C164.077774,76.5263283 164.077774,73.9845803 164.077774,71.4428324 C163.29903,71.7536557 162.518837,72.0592026 161.737194,72.358514 C161.737194,60.7683543 161.737194,49.1777149 161.737194,37.5870275 Z" id="path68" fill="#EDAC09"></path>
                        <path d="M173.014972,29.5166539 C174.239609,28.9444609 175.458933,28.3577819 176.672942,27.7554178 C176.672942,30.6337471 176.672942,33.5117407 176.672942,36.3903098 C173.707725,47.4398864 170.709658,58.3992859 167.683088,69.2680286 C166.851204,69.6229811 166.016904,69.9707386 165.181155,70.3117809 C165.181155,72.8141963 165.181155,75.3170913 165.181155,77.8195067 C169.713522,75.9708755 174.184537,73.9222238 178.580672,71.6730718 C178.580672,69.1706564 178.580672,66.6677614 178.580672,64.165346 C177.747822,64.591289 176.913039,65.0100371 176.075841,65.4215902 C176.972459,61.5099173 177.867145,57.59009 178.757483,53.6625882 C178.994682,52.5708693 179.767145,48.6246604 180.948305,41.8637739 C181.714971,45.4919645 182.480672,48.7105206 183.243957,51.5189626 C184.08502,54.4458821 184.922218,57.3651269 185.757,60.2771767 C184.922218,60.7549236 184.08502,61.2254756 183.243957,61.6888325 C183.243957,64.1912479 183.243957,66.694143 183.243957,69.1965584 C187.487918,66.8586683 191.655551,64.3293916 195.735261,61.609208 C195.735261,59.1067926 195.735261,56.6043772 195.735261,54.1014822 C194.983087,54.6032124 194.228014,55.0982273 193.46956,55.5865269 C190.627531,47.8398796 187.743474,40.0016641 184.822701,32.0724081 C184.822701,29.193839 184.822701,26.3154617 184.822701,23.4368926 C186.01159,22.7663201 187.194198,22.0799666 188.370527,21.3782638 C188.370527,18.7678756 188.370527,16.1570558 188.370527,13.5468116 C183.360865,16.534025 178.234778,19.2475412 173.014972,21.6852018 C173.014972,24.2956379 173.014972,26.9058821 173.014972,29.5166539" id="path70" fill="#3E1A61"></path>
                        <path d="M173.857,22.152492 C178.506276,19.9503473 183.079222,17.5299067 187.560382,14.890259 C187.560382,16.9250964 187.560382,18.9597419 187.560382,20.994915 C186.381638,21.689135 185.195648,22.3687252 184.004826,23.0331101 C184.004826,26.2444712 184.004826,29.4554006 184.004826,32.6667138 C187.006276,40.8146493 189.969077,48.8668916 192.889367,56.8226251 C193.576807,56.3832514 194.262314,55.9386014 194.944923,55.4886751 C194.944923,57.4159714 194.944923,59.3427881 194.944923,61.2700845 C191.381155,63.6180475 187.751686,65.8206719 184.064247,67.8784373 C184.064247,65.9516206 184.064247,64.0243243 184.064247,62.0975076 C184.983087,61.5847451 185.899029,61.0628689 186.81014,60.5318791 C185.88985,57.31764 184.965696,54.0942872 184.037677,50.8613411 C183.283087,48.0826383 182.515937,44.8506036 181.757966,41.262657 C181.218836,41.5525189 180.678739,41.8382557 180.137677,42.1217381 C179.006759,48.5723769 178.209657,52.6739974 177.95072,53.8611697 C176.965696,58.189672 175.976807,62.5076217 174.98502,66.815978 C175.909174,66.369889 176.829947,65.9151661 177.747822,65.4518091 C177.747822,67.3786258 177.747822,69.3054425 177.747822,71.2327388 C173.898063,73.1763438 169.9913,74.9669355 166.037194,76.6040341 C166.037194,74.6772174 166.037194,72.7504008 166.037194,70.8231044 C166.795165,70.5094031 167.551204,70.1899458 168.305793,69.8647326 C171.404827,58.7077109 174.473426,47.4552357 177.507242,36.1083144 C177.507242,32.897385 177.507242,29.6860718 177.507242,26.4750944 C176.296131,27.0847973 175.079223,27.6785754 173.857,28.2575318 C173.857,26.2223586 173.857,24.1871375 173.857,22.152492 Z M189.178256,12.1983277 C183.643474,15.5405896 177.96473,18.5458384 172.171493,21.2128271 C172.171493,24.3992456 172.171493,27.5847048 172.171493,30.7711234 C173.398546,30.2059814 174.620285,29.6261136 175.836227,29.0308007 C175.836227,31.5764339 175.836227,34.1214436 175.836227,36.6676045 C172.940575,47.4201722 170.014005,58.0875033 167.059899,68.6689262 C166.150237,69.0526587 165.237677,69.4282369 164.322701,69.7956607 C164.322701,72.8736748 164.322701,75.9516889 164.322701,79.029703 C169.435261,76.9767343 174.47101,74.6700225 179.411107,72.1086082 C179.411107,69.0305941 179.411107,65.95258 179.411107,62.8745659 C178.663764,63.261656 177.914488,63.6434698 177.163281,64.019048 C177.96473,60.5093348 178.763764,56.993386 179.559899,53.4707219 C179.756034,52.5651133 180.247338,50.0473486 180.95072,46.155246 C181.449754,48.3287068 181.950237,50.3399446 182.445889,52.1645925 C183.199995,54.7869243 183.951203,57.4035001 184.700478,60.0138403 C183.943474,60.4407427 183.18357,60.8614094 182.421735,61.2753608 C182.421735,64.3533749 182.421735,67.4318687 182.421735,70.5098828 C187.22415,67.8981036 191.93043,65.043134 196.523667,61.943535 C196.523667,58.8655208 196.523667,55.7875067 196.523667,52.7094926 C195.702411,53.2635064 194.87729,53.8098455 194.049271,54.34851 C191.284053,46.8104692 188.479222,39.1849375 185.639126,31.4728262 C185.639126,28.9271929 185.639126,26.3821832 185.639126,23.8365499 C186.825599,23.1583028 188.004826,22.4655697 189.178256,21.7567679 C189.178256,18.5707331 189.178256,15.3848901 189.178256,12.1983277 Z" id="path72" fill="#EDAC09"></path>
                        <polyline id="path74" fill="#3E1A61" points="117.352171 94.0883246 125.564731 103.56172 129.42077 92.8920387 121.579224 93.329014 117.352171 94.0883246"></polyline>
                    </g>
                </g>
            </g>
        </g>
    </g>
</svg>