<svg width="200" height="200" xmlns="http://www.w3.org/2000/svg"><g fill="none"><path d="M117.817 164.895h42.179v-13.57l-7.965.1-5.32-14.835c-2.825-.756-8.992-2.39-11.589-2.942-1.65-.35-5.482-1.006-8.609-1.526l6.157 19.104-14.853.053v13.616zm47.976 5.755H112.02v-25.107l12.72-.045-6.64-20.573 4.667.75c.424.068 10.434 1.678 13.57 2.345 3.562.758 12.96 3.3 13.36 3.409l1.46.395 4.946 13.794 9.69-.122v25.154zM87.668 37.32l-6.96 19.24-6.062 16.887c2.513-.34 5.365-.714 6.785-.857 2.409-.243 6.426-.516 8.81-.669l2.631-7.596 5.894-17.326 8.305 24.633c7.079.337 8.733.495 9.754.592.238.023.433.042.67.058 1.43.1 4.8.565 7.68.985l-5.923-16.515-6.854-19.433h-24.73zM65.971 80.47l9.279-25.85 8.34-23.058h32.92l8.208 23.272 9.176 25.587-4.811-.747c-2.655-.411-9.983-1.51-11.995-1.651a32.1 32.1 0 0 1-.816-.07c-.987-.094-2.827-.269-11.453-.666l-1.984-.09-4.093-12.14-.383 1.124-3.897 11.248-1.935.116c-.071.004-7.114.428-10.51.77-2.689.27-11.212 1.473-11.298 1.485l-4.748.67zm-26.773 70.904v13.6l40.005-.07V151.31l-14.992.087 6.219-18.702c-2.926.482-6.125 1.029-7.316 1.303-1.238.284-2.09.454-2.843.604-1.714.34-2.992.596-7.807 2.014l-1.966 5.967-3.098 8.79h-8.202zm-5.797 19.366v-25.122h9.886l1.729-4.908 2.88-8.743 1.449-.433c6.29-1.879 7.832-2.186 9.785-2.575.749-.15 1.523-.304 2.678-.57 2.558-.586 12.017-2.073 12.419-2.137l4.695-.737-6.677 20.08L85 145.52v25.13l-51.599.09z" fill="#3E1A61"/><path d="M129.53 76.832l-7.548-21.046-7.528-21.345H85.629L77.98 55.586l-7.669 21.366s8.635-1.22 11.413-1.5c3.496-.351 10.628-.779 10.628-.779l3.262-9.412 3.14-9.233 3.1 9.193 3.1 9.193c10.868.5 11.025.647 12.338.739 2.576.18 12.238 1.679 12.238 1.679" fill="#FFF"/><path d="M86.309 35.4l-7.42 20.511-7.132 19.87c2.633-.366 7.804-1.075 9.87-1.283 2.858-.288 8.18-.628 10.021-.743L94.7 64.95l4.058-11.93 6.901 20.467c8.16.38 9.92.547 10.984.648.255.024.464.044.717.062 1.968.137 7.845 1.008 10.716 1.443l-7.004-19.53-7.304-20.708h-27.46zM68.864 78.126l8.206-22.86 7.88-21.783h30.19l7.754 21.987 8.091 22.56-1.604-.25c-.096-.014-9.65-1.494-12.157-1.67-.27-.018-.493-.04-.766-.065-1.073-.102-2.87-.273-11.55-.672l-.66-.03-5.498-16.304-2.221 6.53-3.473 10.024-.645.04c-.072.004-7.154.429-10.59.775-2.726.275-11.288 1.482-11.374 1.494l-1.583.224z" fill="#FFF"/><path d="M198.551 107.51c-29.239-19.73-63.38-30.158-98.732-30.158-35.353 0-69.494 10.429-98.733 30.158L0 105.924c29.56-19.947 64.077-30.49 99.819-30.49 35.74 0 70.258 10.543 99.818 30.49l-1.086 1.586" fill="#3E1A61"/><path d="M129.42 77.848l-15.257-42.982H85.915l-15.495 43.1s8.946-1.195 11.668-1.47c3.426-.345 9.45-.763 9.45-.763l7.24-19.711 7.04 19.457c10.653.489 9.84.634 11.126.724 2.525.176 12.477 1.645 12.477 1.645" fill="#EDAC09"/><path d="M122.304 128.516l3.213 9.947 3.188 9.899-6.893.024-6.893.025v19.362h47.975v-19.361l-4.413.055-4.414.055-2.567-7.158-2.567-7.159s-9.679-2.621-13.203-3.371c-3.1-.66-13.426-2.318-13.426-2.318" fill="#FFF"/><path d="M115.885 166.813h46.043v-17.43l-8.54.107-5.195-14.49c-2.007-.54-9.658-2.588-12.665-3.228-2.32-.493-8.82-1.567-11.822-2.057l6.32 19.601-14.141.051v17.446zm47.975 1.919h-49.907v-21.277l13.43-.048-6.48-20.088 1.555.25c.423.067 10.386 1.67 13.474 2.327 3.51.747 12.86 3.276 13.255 3.384l.487.132 5.071 14.142 9.115-.114v21.292zm-89.18-39.637l-3.226 9.701-3.226 9.7 6.937-.04 6.936-.04v19.361l-22.9.04-22.901.04v-19.361h9.043l2.419-6.863 2.418-7.343c8.557-2.557 8.014-2.117 12.28-3.096 2.489-.571 12.22-2.099 12.22-2.099" fill="#FFF"/><path d="M37.266 149.455v17.441l43.87-.076v-17.44l-14.248.083 6.376-19.172c-2.851.457-8.76 1.418-10.586 1.837-1.21.278-2.048.445-2.788.593-1.873.373-3.24.645-8.948 2.344l-2.262 6.866-2.651 7.524h-8.763zm-1.932 19.363v-21.282h9.324l2.192-6.22 2.569-7.8.483-.145c6.202-1.853 7.705-2.152 9.608-2.531.727-.146 1.55-.31 2.733-.58 2.492-.573 11.886-2.05 12.285-2.113l1.566-.245-6.527 19.627 13.5-.078v21.284l-47.733.083z" fill="#FFF"/><path d="M122.496 127.292l6.756 21.368-13.994.048v18.494h47.017v-18.494l-8.65.108-5.515-16.428c-10.15-2.75-9.333-2.16-12.456-2.824-3.038-.647-13.158-2.272-13.158-2.272" fill="#3E1A61"/><path d="M74.695 127.558l-7.29 21.412 14.08-.08v18.495l-44.885.079V148.97h9.345l5.224-16.321c8.385-2.505 6.887-2.074 11.069-3.034 2.437-.56 12.457-2.057 12.457-2.057" fill="#EDAC09"/><path fill="#3E1A61" d="M74.655 127.558l-7.29 21.412 14.08-.08v18.495l-44.886.079 35.262-39.608 2.834-.298"/><path d="M24.593 142.898l-1-2.182c24.916-11.257 50.538-16.965 76.154-16.965 25.615 0 51.237 5.708 76.153 16.965l-1 2.182c-24.6-11.113-49.885-16.748-75.153-16.748-25.268 0-50.554 5.635-75.154 16.748" fill="#3E1A61"/><path d="M6.066 114.538c-.7.453-1.399.911-2.094 1.375v-7.508a172.903 172.903 0 0 1 12.14-7.393v7.507c-.684.38-1.366.763-2.046 1.152v29.946c.003 5.575.867 7.715 3.75 6.15 3.006-1.61 4.028-4.84 4.026-10.74v-29.542c-.695.351-1.388.708-2.078 1.069v-7.508a172.251 172.251 0 0 1 11.833-5.625v7.508c-.75.322-1.5.65-2.247.984v26.475c.017 13.605-3.568 21.283-11.77 25.66-8.22 4.511-11.496.975-11.514-11.905v-27.605" fill="#3E1A61"/><path d="M4.762 114.525c.698-.46 1.398-.913 2.1-1.362v28.469c.016 12.56 3.103 15.727 10.719 11.552 7.567-4.044 10.936-11.064 10.922-24.415V101.43c.746-.338 1.494-.67 2.243-.997v-5.781a172.031 172.031 0 0 0-10.153 4.826v5.78c.692-.357 1.387-.709 2.083-1.056v30.405c.005 4.95-.608 9.757-4.86 12.023-4.03 2.198-4.56-1.808-4.564-6.546v-30.809c.678-.392 1.358-.78 2.04-1.163v-5.781a172.965 172.965 0 0 0-10.53 6.412v5.781zm12.819 40.385c-8.651 4.747-12.29 1.346-12.309-12.25v-26.743c-.698.457-1.395.92-2.089 1.388v-9.235a173.247 173.247 0 0 1 13.75-8.374v9.235c-.685.375-1.369.755-2.05 1.14v29.081c0 6.14 1.115 6.734 2.933 5.752 1.538-.832 3.194-2.28 3.194-9.454v-28.678c-.693.355-1.385.716-2.074 1.08v-9.234c4.43-2.347 8.94-4.488 13.514-6.424v9.235c-.752.318-1.503.642-2.252.971v25.612c.019 14.378-4.007 22.303-12.617 26.898z" fill="#EDAC09"/><path d="M46.785 111.054l-1.587-8.98c-.144-.697-.432-3.272-1.008-7.485a980.217 980.217 0 0 1-1.245 8.438c-.542 3.294-1.084 6.59-1.624 9.889a171.645 171.645 0 0 1 5.464-1.862zm-14.83 17.585c.244-.104.489-.208.733-.31 2.237-12.451 4.49-24.852 6.757-37.204a172.69 172.69 0 0 1 9.075-3.096c2.268 10.804 4.549 21.655 6.838 32.554.487-.13.975-.257 1.463-.382v6.022a173.08 173.08 0 0 0-10.18 2.946v-6.022c.673-.217 1.348-.431 2.024-.64l-.965-6.156c-2.459.777-4.903 1.61-7.333 2.499l-1.047 6.844c.713-.266 1.428-.527 2.143-.784v6.022a172.379 172.379 0 0 0-9.508 3.73v-6.023z" fill="#3E1A61"/><path d="M42.353 111.685a174.44 174.44 0 0 1 3.4-1.158l-1.416-8.023c-.056-.27-.13-.792-.235-1.593-.136.907-.237 1.574-.297 1.96-.485 2.935-.969 5.873-1.452 8.814zm5.465-.097a172.39 172.39 0 0 0-7.528 2.565c.598-3.661 1.198-7.318 1.798-10.972.16-1.03.618-4.113 1.24-8.425.575-.193 1.151-.383 1.728-.569.257 1.879.457 3.433.612 4.64.19 1.47.314 2.441.388 2.803l1.762 9.958zm-.301 16.437a173 173 0 0 1 8.417-2.436v-4.295c-.436.115-.872.23-1.306.348-2.288-10.889-4.566-21.73-6.832-32.523a172.983 172.983 0 0 0-7.639 2.606c-2.27 12.342-4.526 24.732-6.766 37.173l-.582.243v4.295a172.164 172.164 0 0 1 7.787-3.053v-4.296c-.765.279-1.529.563-2.291.854.441-2.897.883-5.791 1.325-8.683a172.58 172.58 0 0 1 8.827-3.008l1.226 7.809c-.723.218-1.446.442-2.166.67v4.296zm10.192-1.164a172.61 172.61 0 0 0-11.944 3.456v-7.748c.627-.206 1.255-.409 1.884-.608l-.706-4.506c-1.955.628-3.901 1.29-5.837 1.99l-.769 5.01a164.31 164.31 0 0 1 1.995-.717v7.748a172.518 172.518 0 0 0-11.228 4.405v-7.749l.882-.38c2.234-12.46 4.484-24.871 6.748-37.233a172.212 172.212 0 0 1 10.51-3.586l6.846 32.584c.54-.141 1.08-.28 1.62-.415v7.749z" fill="#EDAC09"/><path d="M59.914 119.439c.685-.163 1.372-.321 2.059-.475v-28.75c-.687.155-1.374.313-2.06.475v-5.773a172.645 172.645 0 0 1 11.825-2.369v5.774a172.4 172.4 0 0 0-2.918.505v28.75a174.16 174.16 0 0 1 5.495-.91v-8.32a173.81 173.81 0 0 1 6.414-.833v14.343a173.101 173.101 0 0 0-20.815 3.604v-6.021" fill="#3E1A61"/><path d="M60.805 124.389a173.111 173.111 0 0 1 19.019-3.294V108.48c-1.538.18-3.073.378-4.605.598v8.32c-2.44.35-4.873.753-7.298 1.207V88.128c.97-.181 1.943-.355 2.916-.52v-4.047c-3.359.57-6.705 1.24-10.032 2.01v4.046c.686-.158 1.373-.313 2.061-.463v30.475c-.688.15-1.375.305-2.06.464v4.296zm20.831-1.768a173.151 173.151 0 0 0-22.613 3.916v-7.748c.685-.166 1.37-.328 2.057-.486V91.28c-.686.157-1.372.32-2.057.485v-7.5a172.857 172.857 0 0 1 13.616-2.727v7.5c-.974.154-1.948.318-2.92.49v27.022c1.23-.217 2.461-.421 3.694-.611v-8.32c2.734-.422 5.476-.778 8.223-1.069v16.07z" fill="#EDAC09"/><path d="M94.167 115.056c3.353-.101 4.554-1.635 4.554-6.423 0-4.218-1.301-6.092-4.403-6-.684.023-1.367.048-2.05.078v12.418c.632-.028 1.266-.052 1.9-.073zm-.4-17.993c3.002-.1 4.203-1.706 4.203-5.498 0-4.094-1.1-5.78-4.203-5.679-.5.018-1 .038-1.5.06v11.176c.5-.021 1-.041 1.5-.059zm-10.441 18.502a180.65 180.65 0 0 1 2.095-.187V86.629c-.699.058-1.397.12-2.095.188v-5.774a173.47 173.47 0 0 1 12.342-.738c6.256-.129 9.11 2.896 9.109 9.892 0 5.16-1.651 7.877-5.256 8.746v.434c4.107.685 6.157 4.205 6.157 10.096 0 8.54-3.353 11.202-11.26 11.41-3.703.117-7.402.351-11.092.704v-6.022z" fill="#3E1A61"/><path d="M93.177 96.222l.59-.022c2.085-.072 3.293-.825 3.292-4.623 0-4.15-1.109-4.902-3.292-4.827l-.59.021v9.45zm.59 1.705c-.803.028-1.607.061-2.41.1V85.126c.803-.04 1.607-.074 2.41-.102 4.505-.137 5.114 3.265 5.114 6.535 0 2.703-.531 6.23-5.114 6.369zm-.59 16.301c.33-.013.66-.024.99-.035 2.519-.079 3.644-.867 3.643-5.552 0-4.331-1.396-5.21-3.492-5.144-.38.012-.76.025-1.14.04v10.691zm.99 1.692c-.937.03-1.873.069-2.81.114V101.89c.987-.048 1.974-.088 2.96-.12 4.763-.128 5.315 3.892 5.314 6.86 0 4.333-.93 7.16-5.464 7.29zm-9.934 4.72a173.37 173.37 0 0 1 10.184-.62c7.642-.196 10.351-2.745 10.35-10.576 0-5.466-1.817-8.623-5.403-9.217l-.753-.12v-1.83l.686-.17c2.128-.524 4.57-1.84 4.57-7.934 0-6.38-2.376-9.124-8.199-9.005-3.816.092-7.63.31-11.435.654v4.047a169.92 169.92 0 0 1 2.096-.177v30.476c-.7.054-1.398.113-2.096.176v4.296zm10.184 1.107c-4.005.126-8.007.39-11.999.793v-7.748c.698-.07 1.396-.137 2.095-.199V87.571c-.699.061-1.397.128-2.095.198v-7.5a173.6 173.6 0 0 1 13.25-.828c6.836-.139 10.02 3.484 10.019 10.784 0 4.585-1.332 7.477-4.063 8.872 4.049 1.805 4.964 6.55 4.964 10.409 0 8.768-3.526 12.02-12.17 12.241z" fill="#EDAC09"/><path d="M122.549 104.221l-1.641-9.708c-.15-.764-.45-3.47-1.045-7.948a880.392 880.392 0 0 1-1.295 7.865l-1.696 9.137c1.895.187 3.787.405 5.677.654zm-15.566 10.702l.417.018a27818.58 27818.58 0 0 1 7.146-34.064c3.271.278 6.536.65 9.79 1.113 2.334 11.84 4.662 23.728 6.983 35.664.495.091.989.185 1.482.28v6.023a173.31 173.31 0 0 0-10.403-1.687v-6.023c.697.092 1.393.187 2.088.287-.33-2.2-.662-4.399-.993-6.597a174.394 174.394 0 0 0-7.618-.877l-1.098 6.36c.749.064 1.496.134 2.244.208v6.022c-3.34-.332-6.687-.567-10.038-.705v-6.022z" fill="#3E1A61"/><path d="M117.95 102.814c1.178.123 2.356.259 3.533.407l-1.469-8.674c-.058-.294-.135-.853-.244-1.7-.14.846-.245 1.462-.308 1.821l-1.513 8.146zm5.664 2.414c-2.601-.36-5.208-.66-7.82-.9l1.88-10.14c.124-.705.536-3.165 1.293-7.854.598.072 1.196.148 1.794.227.258 1.942.46 3.552.62 4.815.202 1.614.336 2.682.416 3.085.606 3.586 1.212 7.175 1.817 10.767zm-.312 16.299c2.876.392 5.744.857 8.602 1.395v-4.296a205.37 205.37 0 0 0-1.326-.244 14822.653 14822.653 0 0 0-6.987-35.634 174.31 174.31 0 0 0-8.298-.943c-2.379 11.296-4.76 22.64-7.144 34.033l-.256-.012v4.296c2.744.127 5.484.32 8.22.577v-4.295a168.55 168.55 0 0 0-2.403-.21l1.392-8.067c3.064.27 6.123.622 9.172 1.056l1.258 8.368c-.743-.112-1.486-.218-2.23-.32v4.296zm10.397 3.469a173.01 173.01 0 0 0-12.205-1.98v-7.748c.649.082 1.298.167 1.946.256l-.727-4.83c-2.019-.267-4.041-.5-6.066-.697l-.804 4.655c.695.064 1.39.132 2.085.205v7.749c-3.943-.413-7.897-.69-11.856-.832v-7.749l.58.022c2.385-11.414 4.768-22.78 7.147-34.095 3.771.304 7.533.732 11.282 1.283 2.333 11.85 4.66 23.748 6.979 35.694.547.104 1.093.21 1.639.318v7.749z" fill="#EDAC09"/><path d="M143.189 120.279c.86.223 1.72.451 2.578.687v6.022a172.906 172.906 0 0 0-11.147-2.67v-6.022c.811.167 1.622.339 2.431.517v-28.75c-.809-.178-1.62-.35-2.43-.516v-5.773c4.398.9 8.769 1.973 13.102 3.22a9376.85 9376.85 0 0 1 4.336 21.301c.335 1.523 3.427 15.345 3.426 15.354-.55-7.204-.827-28.729-.827-28.729-.81-.27-1.62-.534-2.434-.791v-5.774a172.333 172.333 0 0 1 10.931 3.877v5.774a175.9 175.9 0 0 0-2.344-.902v34.771a172.028 172.028 0 0 0-9.75-3.34 8208.403 8208.403 0 0 0-8.064-36.695l.192 28.439" fill="#3E1A61"/><path d="M151.81 127.843c2.709.851 5.4 1.771 8.073 2.76V95.832c.784.29 1.567.586 2.348.888v-3.922a172.065 172.065 0 0 0-9.066-3.216v3.922c.807.261 1.613.528 2.417.802l.011.918c.003.215.283 21.579.823 28.672-.613-.117-1.227-.23-1.842-.34-.03-.146-3.1-13.833-3.432-15.341a9587.97 9587.97 0 0 0-4.186-20.514 172.44 172.44 0 0 0-11.375-2.802v3.922c.81.17 1.62.347 2.429.53v30.6c-.809-.181-1.619-.358-2.43-.529v4.17c3.095.652 6.175 1.39 9.237 2.212v-4.17c-.857-.23-1.715-.454-2.574-.67l-.2-29.36c.628.087 1.256.177 1.882.27a8207.975 8207.975 0 0 1 7.886 35.969zm9.927 5.31a172.306 172.306 0 0 0-11.427-3.923 8226.56 8226.56 0 0 0-6.305-28.696l.13 19.066c.861.228 1.722.462 2.58.703v7.875a173.004 173.004 0 0 0-13.056-3.127v-7.875c.812.162 1.623.329 2.433.502V90.781c-.81-.173-1.621-.34-2.433-.502v-7.625a172.95 172.95 0 0 1 14.83 3.636 9542.542 9542.542 0 0 1 4.49 22.106c.115.535.582 2.628 1.135 5.107-.214-7.14-.342-15.269-.38-17.962a169.74 169.74 0 0 0-2.45-.783v-7.625a172.221 172.221 0 0 1 12.794 4.54v7.624c-.779-.31-1.56-.616-2.34-.915v34.771z" fill="#EDAC09"/><path d="M173.015 141.224c1.225.572 2.444 1.158 3.658 1.76v-8.634a3623.383 3623.383 0 0 0-8.99-32.878 171 171 0 0 0-2.502-1.044v-7.507a172.211 172.211 0 0 1 13.4 6.146v7.508c-.833-.426-1.668-.845-2.505-1.256.896 3.911 1.791 7.831 2.681 11.759.238 1.091 1.01 5.038 2.191 11.798.767-3.628 1.533-6.846 2.296-9.655.841-2.927 1.678-5.846 2.513-8.758-.835-.478-1.672-.948-2.513-1.412v-7.507a172.887 172.887 0 0 1 12.491 7.587v7.508c-.752-.502-1.507-.997-2.265-1.485-2.842 7.746-5.727 15.585-8.647 23.514v8.635c1.189.67 2.371 1.357 3.548 2.059v7.831a172.504 172.504 0 0 0-15.356-8.138v-7.831" fill="#3E1A61"/><path d="M173.857 148.588a172.394 172.394 0 0 1 13.703 7.262v-6.105a175.567 175.567 0 0 0-3.555-2.038v-9.633c3.001-8.148 5.964-16.2 8.884-24.156.688.439 1.373.884 2.056 1.334v-5.782a173.068 173.068 0 0 0-10.88-6.608v5.78a169.38 169.38 0 0 1 2.745 1.566c-.92 3.215-1.844 6.438-2.772 9.67-.755 2.78-1.522 6.012-2.28 9.6-.54-.29-1.08-.576-1.62-.86-1.131-6.45-1.928-10.552-2.187-11.739-.985-4.328-1.974-8.646-2.966-12.955.924.446 1.845.901 2.763 1.364v-5.78a171.837 171.837 0 0 0-11.71-5.372v5.781c.757.314 1.513.633 2.268.959a3615.436 3615.436 0 0 1 9.201 33.756v9.633a169.228 169.228 0 0 0-3.65-1.782v6.105zm15.321 9.954a172.21 172.21 0 0 0-17.007-9.015v-9.558c1.228.565 2.45 1.145 3.665 1.74v-7.636a3611.21 3611.21 0 0 0-8.776-32.002c-.91-.383-1.822-.759-2.737-1.126V91.71a172.094 172.094 0 0 1 15.088 6.92v9.235a169.61 169.61 0 0 0-2.248-1.145c.802 3.51 1.6 7.026 2.397 10.549.196.905.687 3.423 1.39 7.315.5-2.173 1-4.185 1.496-6.01l2.254-7.849c-.757-.426-1.516-.847-2.278-1.261v-9.235a172.78 172.78 0 0 1 14.102 8.567v9.234c-.822-.554-1.647-1.1-2.475-1.64-2.765 7.539-5.57 15.164-8.41 22.876v7.637a170.47 170.47 0 0 1 3.54 2.08v9.558z" fill="#EDAC09"/><path fill="#3E1A61" d="M117.352 76.652l8.213-9.473 3.856 10.67-7.842-.438-4.227-.76"/></g></svg>