<svg width="200" height="200" xmlns="http://www.w3.org/2000/svg"><g fill="none" fill-rule="evenodd"><path fill="#EEB211" d="M31.89 193.602h-9.244v-17.914h-6.398v21.542l2.77 2.77h16.47l2.769-2.77v-21.542H31.89v17.914m24.505-11.516v4.83h-9.244v-.886l3.888-3.944h5.356zm-15.642.917V200h6.398v-6.686h9.244V200h6.367v-24.312H47.998l-7.245 7.315zm31.222-7.315h-6.398V200h20.921v-6.398H71.975v-17.914m22.777 17.914h9.245v-2.527h-9.245v2.527zm0-8.925h9.245v-2.591h-9.245v2.59zm-6.398-8.99V200h19.24l2.768-2.77v-7.508l-1.819-1.846 1.82-1.846v-7.5l-2.762-2.842H88.354zm40.147 6.399v4.83h-9.245v-.886l3.888-3.944h5.357zm-15.643.917V200h6.398v-6.686h9.245V200h6.366v-24.312h-14.763l-7.246 7.315zm40.467 5.669-9.724-12.984h-5.918V200h6.397v-13.012L153.804 200h5.887v-24.312h-6.366v12.984m24.185-12.984v6.91l-4.666 3.128-4.579-3.124v-6.914h-6.398v9.803l7.837 5.598V200h6.367v-8.912l7.805-5.599v-9.801h-6.366"/><path fill="#46166B" d="M21.687 176.647v17.915H32.85v-17.915h4.447v20.186l-2.207 2.207H19.415l-2.207-2.207v-20.186h4.479m35.668 11.229v-6.75h-6.717l-4.447 4.51v2.24h11.164zM41.713 199.04v-15.643l6.686-6.75h13.403v22.393h-4.447v-6.686H46.191v6.686h-4.478zm29.302-22.393v17.915h14.523v4.478H66.537v-22.393h4.478m22.777 17.915h11.165v-4.447H93.792v4.447zm0-8.925h11.165v-4.51H93.792v4.51zm-4.479 13.403v-22.393h17.882l2.208 2.272v6.718l-2.208 2.239 2.208 2.24v6.717l-2.208 2.207H89.313zm40.147-11.164v-6.75h-6.717l-4.447 4.51v2.24h11.165zm-15.642 11.164v-15.643l6.686-6.75h13.403v22.393h-4.446v-6.686h-11.165v6.686h-4.478zm40.467 0-11.164-14.939v14.94h-4.479v-22.394h4.479l11.164 14.908v-14.908h4.446v22.393h-4.446m16.379 0v-8.445l-7.837-5.598v-8.35h4.479v6.462l5.534 3.775 5.63-3.775v-6.462h4.446v8.35l-7.805 5.598v8.445h-4.447M142.99 70.045c0-11.262-5.835-20.367-6.083-20.75-1.693-3.32-14.803-36.698-16.043-42.112-.098-1.114-.256-2.07-.479-2.876-1.083-3.914-3.863-4.219-4.689-4.219-.805 0-3.52.27-4.642 3.746-.443 1.371-.649 3.277-.649 5.996v46.352H89.72V9.83c0-2.72-.206-4.625-.649-5.996C87.949.359 85.233.088 84.428.088c-.826 0-3.606.305-4.69 4.22-.222.805-.38 1.761-.478 2.875-1.24 5.414-14.35 38.792-16.043 42.112-.248.383-6.082 9.488-6.082 20.75 0 3.142 1.757 8.805 3.65 12.204-.685 1.546-1.73 4.475-1.383 7.363.504 4.2 3.779 7.139 3.779 9.238v11.926c0 1.175 1.847 5.29 1.847 5.29s-7.306 9.238-4.411 22.832c1.589 7.649 8.347 13.026 9.112 13.615 1.514 1.177 3.11 2.269 3.11 2.269s1.912 7.28 6.909 10.423c.886.643 2.45 1.418 4.848 1.418 1.686 0 4.674-.867 7.482-3.063a3.853 3.853 0 0 0 1.822.642c.49.041.958.06 1.407.06 1.979 0 3.563-.368 4.755-.808 1.192.44 2.776.808 4.755.808.449 0 .918-.019 1.407-.06a3.853 3.853 0 0 0 1.822-.642c2.808 2.196 5.796 3.063 7.482 3.063 2.397 0 3.962-.775 4.849-1.418 4.996-3.142 6.908-10.423 6.908-10.423s1.596-1.092 3.11-2.27c.765-.588 7.523-5.965 9.112-13.614 2.895-13.594-4.412-22.831-4.412-22.831s1.848-4.116 1.848-5.291V98.85c0-2.1 3.275-5.038 3.78-9.238.346-2.888-.698-5.817-1.384-7.363 1.893-3.4 3.65-9.062 3.65-12.204"/><path d="M105.898 160.353c-2.967-1.904-5.836-4.156-5.836-4.156s-2.87 2.252-5.836 4.156c3.352.283 5.305-.824 5.836-1.18.532.356 2.484 1.463 5.836 1.18m-5.85-34.321s1.4.336 4.143-.784c4.703 1.12 5.039 6.943 5.039 6.943s-.896-1.456-3.471-1.456c-2.576 0-4.311.688-5.935.688-1.623 0-3.919-.072-3.919-.8 0-.728 3.023-.448 4.647-.728 1.624-.28 2.407-.615 3.64-.896-1.792-1.567-4.144-2.967-4.144-2.967m-26.831 8.552s.125-2.057.755-5.374c-1.721-3.696-4.115-6.551-4.115-6.551s-.672 2.561.042 6.13c.714 3.57 3.318 5.795 3.318 5.795m53.69 0s-.126-2.057-.755-5.374c1.721-3.696 4.115-6.551 4.115-6.551s.672 2.561-.042 6.13c-.714 3.57-3.318 5.795-3.318 5.795" fill="#A2AAAD"/><path d="M65.658 125.388c0 10.372 5.753 15.537 6.593 16.46-.504 4.2-.168 7.601-.168 7.601s-6.34-4.871-7.684-11.338c.965.966 2.687 1.974 2.687 1.974s-2.73-3.905-2.73-8.44c0-3.78.966-5.375 1.302-6.257m68.808 0c0 10.372-5.753 15.537-6.593 16.46.504 4.2.168 7.601.168 7.601s6.34-4.871 7.684-11.338c-.965.966-2.687 1.974-2.687 1.974s2.73-3.905 2.73-8.44c0-3.78-.967-5.375-1.302-6.257" fill="#EEB211"/><path d="M80.355 92.72a1.26 1.26 0 1 1-2.52 0 1.26 1.26 0 0 1 2.52 0m-1.465 2.929a2.93 2.93 0 0 1-2.025-1.02c.112 1.118.73 3.271 3.805 3.55-1.348-.982-1.67-2.121-1.78-2.53m40.88-2.929a1.26 1.26 0 1 0 2.518 0 1.26 1.26 0 0 0-2.519 0m1.465 2.929a2.93 2.93 0 0 0 2.025-1.02c-.112 1.118-.73 3.271-3.805 3.55 1.348-.982 1.671-2.121 1.78-2.53" fill="#FFF"/><path d="M108.222 89.36c1.595 0 3.78-6.298 6.802-6.298 1.932 0 2.898.546 3.78 1.008-3.402 3.149-5.46 6.844-5.795 7.474 3.863-1.974 6.928-5.963 12.765-8.314-1.05 1.47-2.016 4.283-2.016 4.283s5.459 5.543 5.459 8.65c0 1.092-.168 3.191-2.183 7.474-2.016 4.283-2.436 8.063-2.436 8.063s-4.787-3.024-11.001-14.53c.756 3.612-.336 8.23-.336 8.23s-2.688-6.844-7.222-11.547c1.301-.083 2.35-.252 3.275-.63-3.528-1.553-4.2-4.954-4.2-4.954s1.513 1.092 3.108 1.092zm-14.137 4.493c-4.534 4.703-7.222 11.548-7.222 11.548s-1.091-4.62-.335-8.23C80.313 108.676 75.526 111.7 75.526 111.7s-.42-3.78-2.435-8.063c-2.016-4.283-2.184-6.382-2.184-7.474 0-3.107 5.459-8.65 5.459-8.65s-.966-2.814-2.016-4.283c5.837 2.351 8.902 6.34 12.765 8.314-.336-.63-2.393-4.325-5.794-7.474.882-.462 1.847-1.008 3.779-1.008 3.023 0 5.207 6.299 6.802 6.299 1.596 0 3.107-1.092 3.107-1.092s-.671 3.401-4.199 4.955c.924.377 1.974.546 3.275.63zM81.49 57.28s-5.04-2.744-5.04-4.955c0-2.212 4.284-6.523 5.04-9.826v14.78zm37.147-14.781c.755 3.303 5.038 7.614 5.038 9.826 0 2.211-5.038 4.955-5.038 4.955V42.499zm-3.192 19.315s10.834 5.123 19.82 19.652c1.763-2.267 3.862-8.65 3.862-11.421 0-10.246-5.458-18.644-5.458-18.644s2.603 8.314 2.603 14.36c0 3.36-1.595 6.971-1.595 6.971s-.756-3.023-1.764-4.787c-1.68 3.443-3.863 2.856-3.863 2.856s1.512-2.352 1.512-5.207c0-2.856-2.856-5.291-2.52-6.55.336-1.26.588-2.352.588-4.368 0-7.138-11.505-16.376-11.505-44.426 0-4.703-.756-6.299-1.428-6.299-.672 0-1.427.89-1.427 5.88v47.978l-2.352 2.352h-10.38l-1.475 17.954-1.426-17.954h-10.43l-2.35-2.351V9.83c0-4.989-.756-5.879-1.428-5.879-.672 0-1.428 1.596-1.428 6.299 0 28.05-11.505 37.288-11.505 44.426 0 2.016.252 3.107.588 4.367.336 1.26-2.52 3.695-2.52 6.55 0 2.856 1.512 5.208 1.512 5.208s-2.183.587-3.863-2.856c-1.008 1.764-1.764 4.787-1.764 4.787s-1.595-3.611-1.595-6.97c0-6.047 2.603-14.361 2.603-14.361s-5.459 8.398-5.459 18.644c0 2.771 2.1 9.154 3.864 11.421C73.846 66.937 84.68 61.814 84.68 61.814v6.635s2.771-2.267 8.23-3.191c-8.314 4.367-14.613 12.597-14.613 12.597s-.168-4.955 1.512-8.734C72.083 73.656 66.12 89.696 66.12 89.696s2.855-1.931 5.879-1.931c-2.772 1.763-3.611 5.878-3.611 8.314 0 11.001 5.794 14.949 7.39 22.255 4.367-5.207 9.91-6.886 9.91-6.886s-1.932 2.519-2.436 4.283c.84-.504 1.695-.912 4.115-1.344 2.352-.42 4.283.252 4.283.252s-6.55 3.527-7.222 11.337c-.252 2.1-.126 6.887.672 10.246-2.394-3.065-2.688-8.23-2.688-8.23s-1.595 2.771-1.595 6.802c0 1.176.84 6.383 4.367 8.986-3.275-1.26-4.871-3.695-4.871-3.695s-.504 2.016-.42 4.451c.462.924 3.36 3.443 3.36 3.443s-2.1-.504-3.528-1.175c-.252 1.68-.084 4.199-.084 4.199s1.596 1.091 4.619 1.343c-2.268.924-4.283.672-4.283.672s.42 4.2 4.787 4.2c1.764 0 3.947-.505 5.123-1.177-3.024 5.123-8.062 5.88-8.062 5.88s.755.839 2.77.839c2.016 0 10.414-3.107 10.414-14.78 0-1.123.155-3.814-.671-4.788-1.092-1.175-1.68-2.939-1.68-2.939s-4.199-2.015-4.199-8.398c0-7.642 7.558-9.154 7.558-9.154s1.092 1.092 3.611 1.092h.868c2.52 0 3.61-1.092 3.61-1.092s7.56 1.512 7.56 9.154c0 6.383-4.2 8.398-4.2 8.398s-.588 1.764-1.68 2.94c-.826.973-.671 3.664-.671 4.786 0 11.674 8.398 14.78 10.413 14.78 2.016 0 2.772-.839 2.772-.839s-5.04-.756-8.062-5.879c1.175.672 3.359 1.176 5.122 1.176 4.367 0 4.787-4.199 4.787-4.199s-2.015.252-4.283-.672c3.023-.252 4.619-1.343 4.619-1.343s.168-2.52-.084-4.2c-1.427.672-3.527 1.176-3.527 1.176s2.897-2.52 3.359-3.443c.084-2.435-.42-4.45-.42-4.45s-1.595 2.434-4.87 3.694c3.526-2.603 4.366-7.81 4.366-8.986 0-4.03-1.595-6.802-1.595-6.802s-.294 5.165-2.688 8.23c.798-3.36.924-8.146.672-10.246-.672-7.81-7.222-11.337-7.222-11.337s1.931-.672 4.283-.252c2.42.432 3.275.84 4.115 1.344-.504-1.764-2.435-4.283-2.435-4.283s5.542 1.68 9.91 6.886c1.595-7.306 7.39-11.254 7.39-22.255 0-2.436-.84-6.55-3.612-8.314 3.023 0 5.879 1.931 5.879 1.931s-5.963-16.04-13.689-20.575c1.68 3.78 1.512 8.734 1.512 8.734s-6.299-8.23-14.613-12.597c5.46.924 8.23 3.191 8.23 3.191v-6.635z" fill="#A2AAAD"/><path fill="#46166B" d="M133.616 159.198h-.891v-.63h2.55v.63h-.906v2.687h-.753v-2.687m4.844 1.417c-.015-.399-.03-.881-.03-1.363h-.014c-.104.423-.241.896-.37 1.285l-.403 1.294h-.585l-.355-1.285a15.358 15.358 0 0 1-.3-1.294h-.01c-.02.448-.034.96-.059 1.373l-.059 1.26h-.694l.212-3.317h1l.324 1.107c.103.384.206.797.28 1.186h.015c.093-.384.207-.822.315-1.19l.354-1.103h.98l.182 3.317h-.734l-.049-1.27"/></g></svg>