<svg width="200" height="200" xmlns="http://www.w3.org/2000/svg"><defs><linearGradient x1="-.023%" y1="50.007%" x2="100%" y2="50.007%" id="a"><stop stop-color="#7C649A" offset="0%"/><stop stop-color="#705390" offset="10%"/><stop stop-color="#5E3880" offset="28%"/><stop stop-color="#512574" offset="47%"/><stop stop-color="#491A6D" offset="67%"/><stop stop-color="#46166B" offset="87%"/></linearGradient><radialGradient cx="60.533%" cy="78.291%" fx="60.533%" fy="78.291%" r="202.512%" gradientTransform="matrix(.95554 0 0 1 .027 0)" id="b"><stop stop-color="#654685" offset="25%"/><stop stop-color="#57317A" offset="34%"/><stop stop-color="#4E2271" offset="45%"/><stop stop-color="#48196C" offset="57%"/><stop stop-color="#46166B" offset="74%"/></radialGradient><linearGradient x1="0%" y1="49.993%" x2="100.029%" y2="49.993%" id="c"><stop stop-color="#7C649A" offset="0%"/><stop stop-color="#715490" offset="5%"/><stop stop-color="#613D83" offset="13%"/><stop stop-color="#552C78" offset="22%"/><stop stop-color="#4C1F71" offset="34%"/><stop stop-color="#47186C" offset="50%"/><stop stop-color="#46166B" offset="87%"/></linearGradient><linearGradient x1="0%" y1="49.993%" x2="100%" y2="49.993%" id="d"><stop stop-color="#7C649A" offset="0%"/><stop stop-color="#46166B" offset="100%"/></linearGradient><linearGradient x1="-20.953%" y1="98.838%" x2="130.666%" y2="1.887%" id="e"><stop stop-color="#46166B" offset="21%"/><stop stop-color="#552B78" offset="39%"/><stop stop-color="#7D619A" offset="75%"/><stop stop-color="#9B89B4" offset="100%"/></linearGradient><linearGradient x1="0%" y1="50.003%" x2="100%" y2="50.003%" id="f"><stop stop-color="#46166B" offset="0%"/><stop stop-color="#4D2071" offset="10%"/><stop stop-color="#674587" offset="49%"/><stop stop-color="#765C95" offset="80%"/><stop stop-color="#7C649A" offset="100%"/></linearGradient><linearGradient x1="152.067%" y1="2.06%" x2="4.314%" y2="74.567%" id="g"><stop stop-color="#46166B" offset="0%"/><stop stop-color="#664487" offset="44%"/><stop stop-color="#856FA2" offset="89%"/></linearGradient><linearGradient x1="4.906%" y1="169.413%" x2="86.096%" y2="-51.276%" id="h"><stop stop-color="#46166B" offset="29%"/><stop stop-color="#4A1C6F" offset="36%"/><stop stop-color="#562C79" offset="45%"/><stop stop-color="#6A478A" offset="56%"/><stop stop-color="#856CA1" offset="67%"/><stop stop-color="#9B89B4" offset="74%"/></linearGradient><linearGradient x1="33.006%" y1="174.339%" x2="79.689%" y2="-97.034%" id="i"><stop stop-color="#46166B" offset="24%"/><stop stop-color="#572D7A" offset="41%"/><stop stop-color="#82679F" offset="78%"/><stop stop-color="#9B89B4" offset="97%"/></linearGradient><linearGradient x1="-5.734%" y1="84.445%" x2="-106.547%" y2="149.163%" id="j"><stop stop-color="#7C649A" offset="0%"/><stop stop-color="#7A6198" offset="32%"/><stop stop-color="#745993" offset="52%"/><stop stop-color="#6A4A8A" offset="69%"/><stop stop-color="#5C357E" offset="84%"/><stop stop-color="#491B6E" offset="98%"/><stop stop-color="#46166B" offset="100%"/></linearGradient><linearGradient x1="-19.419%" y1="-2.72%" x2="124.015%" y2="103.862%" id="k"><stop stop-color="#46166B" offset="21%"/><stop stop-color="#4A1B6E" offset="34%"/><stop stop-color="#552A78" offset="49%"/><stop stop-color="#674387" offset="66%"/><stop stop-color="#80649D" offset="84%"/><stop stop-color="#9B89B4" offset="100%"/></linearGradient><linearGradient x1="49.869%" y1="98.984%" x2="49.869%" y2="2.67%" id="l"><stop stop-color="#E47626" offset="0%"/><stop stop-color="#D19C27" offset="100%"/></linearGradient><linearGradient x1="50.094%" y1="98.671%" x2="50.094%" y2=".964%" id="m"><stop stop-color="#E47626" offset="0%"/><stop stop-color="#D19C27" offset="100%"/></linearGradient><linearGradient x1="49.937%" y1="97.374%" x2="49.937%" y2="2.628%" id="n"><stop stop-color="#E47626" offset="0%"/><stop stop-color="#D19C27" offset="100%"/></linearGradient><linearGradient x1="49.938%" y1="97.371%" x2="49.938%" y2="2.532%" id="o"><stop stop-color="#E47626" offset="0%"/><stop stop-color="#D19C27" offset="100%"/></linearGradient><linearGradient x1="49.992%" y1="99.016%" x2="49.992%" y2=".967%" id="p"><stop stop-color="#E47626" offset="0%"/><stop stop-color="#D19C27" offset="100%"/></linearGradient><linearGradient x1="50.03%" y1="97.613%" x2="50.03%" y2="2.759%" id="q"><stop stop-color="#E47626" offset="0%"/><stop stop-color="#D19C27" offset="100%"/></linearGradient><linearGradient x1="49.953%" y1="100.336%" x2="49.953%" y2="1.463%" id="r"><stop stop-color="#CFA127" offset="0%"/><stop stop-color="#E47626" offset="96%"/></linearGradient><linearGradient x1="50.049%" y1="100%" x2="50.049%" y2="-.41%" id="s"><stop stop-color="#CFA127" offset="0%"/><stop stop-color="#E47626" offset="96%"/></linearGradient><linearGradient x1="50.019%" y1="98.676%" x2="50.019%" y2="1.375%" id="t"><stop stop-color="#CFA127" offset="0%"/><stop stop-color="#E47626" offset="96%"/></linearGradient><linearGradient x1="49.873%" y1="98.676%" x2="49.873%" y2="1.373%" id="u"><stop stop-color="#CFA127" offset="0%"/><stop stop-color="#E47626" offset="96%"/></linearGradient><linearGradient x1="49.984%" y1="100.274%" x2="49.984%" y2="-.394%" id="v"><stop stop-color="#CFA127" offset="0%"/><stop stop-color="#E47626" offset="96%"/></linearGradient><linearGradient x1="50.023%" y1="98.906%" x2="50.023%" y2="1.458%" id="w"><stop stop-color="#CFA127" offset="0%"/><stop stop-color="#E47626" offset="96%"/></linearGradient><linearGradient x1="49.968%" y1="7.948%" x2="49.968%" y2="100.242%" id="x"><stop stop-color="#FFD800" offset="0%"/><stop stop-color="#C4960C" offset="100%"/></linearGradient><linearGradient x1="49.873%" y1="6.221%" x2="49.873%" y2="99.895%" id="y"><stop stop-color="#FFD800" offset="0%"/><stop stop-color="#C4960C" offset="100%"/></linearGradient><linearGradient x1="49.981%" y1="7.845%" x2="49.981%" y2="98.535%" id="z"><stop stop-color="#FFD800" offset="0%"/><stop stop-color="#C4960C" offset="100%"/></linearGradient><linearGradient x1="49.984%" y1="7.813%" x2="49.984%" y2="98.536%" id="A"><stop stop-color="#FFD800" offset="0%"/><stop stop-color="#C4960C" offset="100%"/></linearGradient><linearGradient x1="50.008%" y1="6.243%" x2="50.008%" y2="100.247%" id="B"><stop stop-color="#FFD800" offset="0%"/><stop stop-color="#C4960C" offset="100%"/></linearGradient><linearGradient x1="49.984%" y1="7.747%" x2="49.984%" y2="98.703%" id="C"><stop stop-color="#FFD800" offset="0%"/><stop stop-color="#C4960C" offset="100%"/></linearGradient><linearGradient x1="49.983%" y1="-11.972%" x2="49.983%" y2="220.561%" id="D"><stop stop-color="#FFD800" offset="0%"/><stop stop-color="#C4960C" offset="100%"/></linearGradient><linearGradient x1="50%" y1="-12.074%" x2="50%" y2="220.534%" id="E"><stop stop-color="#FFD800" offset="0%"/><stop stop-color="#C4960C" offset="100%"/></linearGradient><linearGradient x1="49.987%" y1="-14.011%" x2="49.987%" y2="221.821%" id="F"><stop stop-color="#FFD800" offset="0%"/><stop stop-color="#C4960C" offset="100%"/></linearGradient><linearGradient x1="50%" y1="-14.025%" x2="50%" y2="222.039%" id="G"><stop stop-color="#FFD800" offset="0%"/><stop stop-color="#C4960C" offset="100%"/></linearGradient><linearGradient x1="50.019%" y1="-11.888%" x2="50.019%" y2="216.787%" id="H"><stop stop-color="#FFD800" offset="0%"/><stop stop-color="#C4960C" offset="100%"/></linearGradient><linearGradient x1="50.029%" y1="-11.779%" x2="50.029%" y2="216.703%" id="I"><stop stop-color="#FFD800" offset="0%"/><stop stop-color="#C4960C" offset="100%"/></linearGradient><linearGradient x1="49.951%" y1="-11.736%" x2="49.951%" y2="216.718%" id="J"><stop stop-color="#FFD800" offset="0%"/><stop stop-color="#C4960C" offset="100%"/></linearGradient><linearGradient x1="49.992%" y1="-11.778%" x2="49.992%" y2="216.71%" id="K"><stop stop-color="#FFD800" offset="0%"/><stop stop-color="#C4960C" offset="100%"/></linearGradient><linearGradient x1="49.987%" y1="-14.041%" x2="49.987%" y2="222.809%" id="L"><stop stop-color="#FFD800" offset="0%"/><stop stop-color="#C4960C" offset="100%"/></linearGradient><linearGradient x1="49.991%" y1="-13.979%" x2="49.991%" y2="222.584%" id="M"><stop stop-color="#FFD800" offset="0%"/><stop stop-color="#C4960C" offset="100%"/></linearGradient><linearGradient x1="50%" y1="-11.877%" x2="50%" y2="217.285%" id="N"><stop stop-color="#FFD800" offset="0%"/><stop stop-color="#C4960C" offset="100%"/></linearGradient><linearGradient x1="49.957%" y1="-11.788%" x2="49.957%" y2="217.205%" id="O"><stop stop-color="#FFD800" offset="0%"/><stop stop-color="#C4960C" offset="100%"/></linearGradient><linearGradient x1="49.971%" y1="-11.796%" x2="49.971%" y2="216.943%" id="P"><stop stop-color="#FFD800" offset="0%"/><stop stop-color="#C4960C" offset="100%"/></linearGradient><linearGradient x1="50%" y1="-11.783%" x2="50%" y2="217.213%" id="Q"><stop stop-color="#FFD800" offset="0%"/><stop stop-color="#C4960C" offset="100%"/></linearGradient><linearGradient x1="122.586%" y1="3689.143%" x2="-89.71%" y2="-6524.571%" id="R"><stop stop-color="#23171A" offset="0%"/><stop stop-color="#C4960C" offset="100%"/></linearGradient><linearGradient x1="76.19%" y1="2180.592%" x2="3.619%" y2="-3700%" id="S"><stop stop-color="#23171A" offset="0%"/><stop stop-color="#C4960C" offset="100%"/></linearGradient><linearGradient x1="54.15%" y1="327.534%" x2="45.008%" y2="-321.976%" id="T"><stop stop-color="#23171A" offset="0%"/><stop stop-color="#C4960C" offset="100%"/></linearGradient><linearGradient x1="54.554%" y1="312.605%" x2="45.124%" y2="-311.732%" id="U"><stop stop-color="#23171A" offset="0%"/><stop stop-color="#C4960C" offset="100%"/></linearGradient><linearGradient x1="56.395%" y1="407.706%" x2="45.305%" y2="-215.76%" id="V"><stop stop-color="#23171A" offset="0%"/><stop stop-color="#C4960C" offset="100%"/></linearGradient><linearGradient x1="55.439%" y1="326.721%" x2="41.67%" y2="-372.887%" id="W"><stop stop-color="#23171A" offset="0%"/><stop stop-color="#C4960C" offset="100%"/></linearGradient><linearGradient x1="67.64%" y1="371.356%" x2="19.289%" y2="-458.774%" id="X"><stop stop-color="#23171A" offset="0%"/><stop stop-color="#C4960C" offset="100%"/></linearGradient><linearGradient x1="68.917%" y1="242.491%" x2="24.563%" y2="-202.936%" id="Y"><stop stop-color="#23171A" offset="0%"/><stop stop-color="#C4960C" offset="100%"/></linearGradient><linearGradient x1="54.557%" y1="257.274%" x2="45.706%" y2="-144.207%" id="Z"><stop stop-color="#23171A" offset="0%"/><stop stop-color="#C4960C" offset="100%"/></linearGradient><linearGradient x1="56.467%" y1="4235.811%" x2="37.292%" y2="-7852.703%" id="aa"><stop stop-color="#23171A" offset="0%"/><stop stop-color="#C4960C" offset="100%"/></linearGradient><linearGradient x1="76.66%" y1="537.794%" x2="26.693%" y2="-375.434%" id="ab"><stop stop-color="#23171A" offset="0%"/><stop stop-color="#C4960C" offset="100%"/></linearGradient><linearGradient x1="54.749%" y1="478.095%" x2="41.817%" y2="-563.837%" id="ac"><stop stop-color="#23171A" offset="0%"/><stop stop-color="#C4960C" offset="100%"/></linearGradient><linearGradient x1="53.633%" y1="634.397%" x2="43.771%" y2="-950.798%" id="ad"><stop stop-color="#23171A" offset="0%"/><stop stop-color="#C4960C" offset="100%"/></linearGradient><linearGradient x1="81.528%" y1="566.941%" x2="28.611%" y2="-298.596%" id="ae"><stop stop-color="#23171A" offset="0%"/><stop stop-color="#C4960C" offset="100%"/></linearGradient><linearGradient x1="55.279%" y1="468.095%" x2="46.074%" y2="-261.485%" id="af"><stop stop-color="#23171A" offset="0%"/><stop stop-color="#C4960C" offset="100%"/></linearGradient><linearGradient x1="57.64%" y1="471.992%" x2="44.069%" y2="-269.917%" id="ag"><stop stop-color="#23171A" offset="0%"/><stop stop-color="#C4960C" offset="100%"/></linearGradient><linearGradient x1="53.829%" y1="281.337%" x2="44.658%" y2="-288.12%" id="ah"><stop stop-color="#23171A" offset="0%"/><stop stop-color="#C4960C" offset="100%"/></linearGradient><linearGradient x1="229%" y1="293.892%" x2="-152%" y2="-195.449%" id="ai"><stop stop-color="#23171A" offset="0%"/><stop stop-color="#C4960C" offset="100%"/></linearGradient><linearGradient x1="71.707%" y1="198.407%" x2="25.366%" y2="-119.442%" id="aj"><stop stop-color="#23171A" offset="0%"/><stop stop-color="#C4960C" offset="100%"/></linearGradient><linearGradient x1="53.066%" y1="-3763.281%" x2="43.773%" y2="7324.219%" id="ak"><stop stop-color="#FFF" offset="0%"/><stop stop-color="#FFF200" offset="100%"/></linearGradient><linearGradient x1="84.782%" y1="-3942.857%" x2="10.869%" y2="4170.286%" id="al"><stop stop-color="#FFF" offset="0%"/><stop stop-color="#FFF200" offset="100%"/></linearGradient><linearGradient x1="112.037%" y1="-5462.205%" x2="-13.889%" y2="5709.449%" id="am"><stop stop-color="#FFF" offset="0%"/><stop stop-color="#FFF200" offset="100%"/></linearGradient><linearGradient x1="51.296%" y1="-23.21%" x2="47.099%" y2="222.673%" id="an"><stop stop-color="#FFF" offset="0%"/><stop stop-color="#FFF200" offset="100%"/></linearGradient><linearGradient x1="50.591%" y1="-932.215%" x2="44.852%" y2="8594.631%" id="ao"><stop stop-color="#FFF" offset="0%"/><stop stop-color="#FFF200" offset="100%"/></linearGradient><linearGradient x1="59.38%" y1="-225.104%" x2="38.295%" y2="428.328%" id="ap"><stop stop-color="#FFF" offset="0%"/><stop stop-color="#FFF200" offset="100%"/></linearGradient><linearGradient x1="52.488%" y1="-255.62%" x2="46.519%" y2="489.391%" id="aq"><stop stop-color="#FFF" offset="0%"/><stop stop-color="#FFF200" offset="100%"/></linearGradient><linearGradient x1="50.587%" y1="-42.011%" x2="47.97%" y2="444.13%" id="ar"><stop stop-color="#FFF" offset="0%"/><stop stop-color="#FFF200" offset="100%"/></linearGradient><linearGradient x1="50.965%" y1="-137.64%" x2="47.599%" y2="357.647%" id="as"><stop stop-color="#FFF" offset="0%"/><stop stop-color="#FFF200" offset="100%"/></linearGradient><linearGradient x1="50.765%" y1="-39.447%" x2="46.951%" y2="432.823%" id="at"><stop stop-color="#FFF" offset="0%"/><stop stop-color="#FFF200" offset="100%"/></linearGradient><linearGradient x1="59.07%" y1="-218.056%" x2="37.984%" y2="435.375%" id="au"><stop stop-color="#FFF" offset="0%"/><stop stop-color="#FFF200" offset="100%"/></linearGradient><linearGradient x1="52.077%" y1="-233.824%" x2="43.707%" y2="860.545%" id="av"><stop stop-color="#FFF" offset="0%"/><stop stop-color="#FFF200" offset="100%"/></linearGradient><linearGradient x1="50.547%" y1="-740.523%" x2="43.781%" y2="8536.601%" id="aw"><stop stop-color="#FFF" offset="0%"/><stop stop-color="#FFF200" offset="100%"/></linearGradient><linearGradient x1="54.662%" y1="-18.682%" x2="38.811%" y2="227.169%" id="ax"><stop stop-color="#FFF" offset="0%"/><stop stop-color="#FFF200" offset="100%"/></linearGradient><linearGradient x1="54.905%" y1="-145.761%" x2="36.998%" y2="578.703%" id="ay"><stop stop-color="#FFF" offset="0%"/><stop stop-color="#FFF200" offset="100%"/></linearGradient><linearGradient x1="58.331%" y1="-301.694%" x2="38.597%" y2="524.826%" id="az"><stop stop-color="#FFF" offset="0%"/><stop stop-color="#FFF200" offset="100%"/></linearGradient><linearGradient x1="50.89%" y1="-134.283%" x2="48.281%" y2="324.927%" id="aA"><stop stop-color="#FFF" offset="0%"/><stop stop-color="#FFF200" offset="100%"/></linearGradient><linearGradient x1="50.966%" y1="-54.021%" x2="45.929%" y2="452.339%" id="aB"><stop stop-color="#FFF" offset="0%"/><stop stop-color="#FFF200" offset="100%"/></linearGradient><linearGradient x1="51.479%" y1="-139.421%" x2="47.771%" y2="332.839%" id="aC"><stop stop-color="#FFF" offset="0%"/><stop stop-color="#FFF200" offset="100%"/></linearGradient><linearGradient x1="51.548%" y1="-108.034%" x2="43.122%" y2="865.627%" id="aD"><stop stop-color="#FFF" offset="0%"/><stop stop-color="#FFF200" offset="100%"/></linearGradient><linearGradient x1="53.104%" y1="-66.778%" x2="35.139%" y2="620.738%" id="aE"><stop stop-color="#FFF" offset="0%"/><stop stop-color="#FFF200" offset="100%"/></linearGradient><linearGradient x1="53.239%" y1="-156.566%" x2="39.474%" y2="686.334%" id="aF"><stop stop-color="#FFF" offset="0%"/><stop stop-color="#FFF200" offset="100%"/></linearGradient><linearGradient x1="51.369%" y1="-183.495%" x2="48.186%" y2="390.372%" id="aG"><stop stop-color="#FFF" offset="0%"/><stop stop-color="#FFF200" offset="100%"/></linearGradient><linearGradient x1="73%" y1="-59.175%" x2="-63%" y2="362.025%" id="aH"><stop stop-color="#FFF" offset="0%"/><stop stop-color="#FFF200" offset="100%"/></linearGradient><linearGradient x1="53.333%" y1="-1258.361%" x2="15.556%" y2="12925.639%" id="aI"><stop stop-color="#FFF" offset="0%"/><stop stop-color="#FFF200" offset="100%"/></linearGradient><linearGradient x1="51.097%" y1="-61.413%" x2="47.989%" y2="264.028%" id="aJ"><stop stop-color="#FFF" offset="0%"/><stop stop-color="#FFF200" offset="100%"/></linearGradient></defs><g fill="none"><path d="M23.28 165.795c-3.592 4.956-16.037 8.969-21.941 9.367v8.147h67.656l-.122-12.192c-5.587-.08-6.878-.625-9.64-1.59-3.74-1.299-5.609-3.255-5.609-6.775 0-2.878.254-4.33 2.413-10.644.62-1.765 1.841-3.97 3.492-7.522H35.376a97.694 97.694 0 0 1-12.096 21.209z" fill="url(#a)" transform="translate(0 7)"/><path d="M59.53 151.597c-1.652 3.551-2.874 5.757-3.493 7.522-2.159 6.313-2.413 7.766-2.413 10.644 0 3.52 1.868 5.476 5.609 6.774 2.767.96 4.053 1.506 9.64 1.59l.122 12.193H1.323v-8.158c5.905-.398 18.349-4.41 21.942-9.367a97.694 97.694 0 0 0 12.11-21.203H59.53v.005zm2.073-1.33H34.487l-.334.821A95.594 95.594 0 0 1 22.223 172c-3.122 4.315-14.916 8.428-20.969 8.836L0 180.921v10.713h70.333v-1.34l-.121-12.193v-1.293H68.92c-5.1-.074-6.424-.53-8.826-1.373l-.397-.138c-3.396-1.177-4.72-2.725-4.72-5.524 0-2.676.228-4.028 2.34-10.22a41.915 41.915 0 0 1 1.761-3.89 153.37 153.37 0 0 0 1.683-3.499l.873-1.882-.032-.016z" fill="#C4960C"/><path fill="url(#b)" d="M88.53 72.754l10.269 22.508h52.444L104 1.325h-5.058L52.937 95.262h23.941z" transform="translate(0 7)"/><path d="M104 8.325l47.243 93.937H98.8L88.53 79.754l-11.64 22.508H52.937L98.942 8.325H104zM104.815 7h-6.699l-.36.742-46.005 93.937-.957 1.908H77.66l.37-.716 10.424-20.069 9.143 20.038.354.773h55.44l-.969-1.918L105.18 7.726 104.815 7z" fill="#C4960C"/><path d="M118.365 151.074c1.36 3.282 4.339 8.683 4.46 12.68.133 4.24-.793 5.301-3.306 6.361-2.514 1.06-5.545 1.119-13.524 1.442l.037 11.752h92.592v-10.31c-5.592.159-15.963-7.045-18.994-11.243-2.789-3.86-4.233-5.805-9.932-17.16h-54.545l3.212 6.478z" fill="url(#c)" transform="translate(0 7)"/><path d="M169.725 151.597c5.704 11.354 7.143 13.3 9.931 17.159 3 4.15 13.18 11.243 18.81 11.243h.185v10.31h-92.593l-.037-11.752c7.979-.323 11.005-.398 13.524-1.442 2.518-1.044 3.44-2.12 3.307-6.36-.122-3.998-3.1-9.4-4.46-12.68l-3.212-6.494h54.545v.016zm.815-1.341h-57.52l.947 1.913 3.175 6.451c.317.759.709 1.617 1.127 2.524 1.391 3.042 3.132 6.833 3.217 9.653.121 3.843-.63 4.31-2.487 5.078-2.19.906-5.08 1.023-12.058 1.298l-1.016.043-1.275.048v1.277l.037 11.757v1.32H200v-12.981l-1.365.037h-.143c-5.063 0-14.9-6.764-17.735-10.697l-.106-.138c-2.646-3.684-4.132-5.715-9.714-16.841l-.37-.726-.027-.016z" fill="#C4960C"/><path d="M165.317 144.597s6.477 18.553 18.778 26.96c7.275 4.983 10.767 4.506 10.767 4.506l3.789 7.246v-10.31s-9.926-1.018-18.9-11.37c-2.169-2.502-5.635-8.577-10.053-17.032h-4.38z" fill="url(#d)" transform="translate(0 7)"/><path fill="#2C0047" d="M198.646 190.309h-92.62v-3.848h89.053z"/><path d="M115.153 144.597c1.196 2.677 2.022 3.811 3.212 6.493 1.434 3.223 8.757 16.963.863 19.142-5.254 1.442-13.228 1.325-13.228 1.325l5.65 4.506c6.842-.499 9.27-.398 13.91-2.868 3.842-2.04 4.048-8.587 3.006-12.112-2.18-7.347-6.35-16.486-6.35-16.486h-7.063z" fill="url(#e)" transform="translate(0 7)"/><path fill="#553077" d="M105.995 178.557l5.65 4.506v3.398l-5.613 3.848z"/><path fill="url(#f)" d="M151.243 95.262h-3.947l-45.72-93.937H104z" transform="translate(0 7)"/><path fill="url(#g)" d="M52.937 95.262h4.804L99.66 3.8l-.72-2.476z" transform="translate(0 7)"/><path fill="#2C0047" d="M68.995 190.309H1.323l4.656-3.493h61.349z"/><path fill="#5E3D7F" d="M1.323 182.162l4.656 2.051v2.603l-4.587 3.493z"/><path d="M1.323 175.162l4.656 2.051s10.386-1.77 13.667-3.424c3.592-1.808 5.09-1.728 10.412-10.38 4.312-7.002 10.307-18.812 10.307-18.812h-4.99s-5.989 13.464-12.11 21.203c-1.948 2.455-4.207 4.21-11.985 7.077a34.586 34.586 0 0 1-9.957 2.285z" fill="url(#h)" transform="translate(0 7)"/><path fill="#5E3D7F" d="M198.646 190.309l-3.567-3.848-.217-3.398 3.82-3.144zm-129.651-.074l-2.302-3.42v-5.555l2.18-3.138z"/><path d="M54.608 144.597s-7.518 18.097-3.994 23.79c3.307 5.365 5.862 5.227 16.08 5.873l2.179-3.138s-7.01.244-11.868-2.565c-4.857-2.81-4.99-8.678 2.524-23.96h-4.92z" fill="url(#i)" transform="translate(0 7)"/><path fill="url(#j)" d="M103.815 95.262h-5.016l-10.27-22.508v-6.636z" transform="translate(0 7)"/><path fill="url(#k)" d="M72.143 95.262h4.735L88.53 72.754v-6.636z" transform="translate(0 7)"/><path d="M194.328 170.441v-1.102c0-.165-.048-.26-.222-.297a1.025 1.025 0 0 0-.201 0c-.058 0-.09 0-.09-.048 0-.047.037-.047.116-.047h1.445a1.67 1.67 0 0 1 .952.222c.223.17.354.435.355.716-.026.476-.283.91-.688 1.16.465.584.82 1.06 1.127 1.368.15.18.354.305.582.355h.148c.037 0 .058 0 .058.043 0 .042-.037.053-.095.053h-.492a1.056 1.056 0 0 1-.556-.1 2.516 2.516 0 0 1-.714-.764c-.206-.286-.445-.642-.53-.721a.122.122 0 0 0-.094-.032h-.45s-.042 0-.042.037v.043c0 .482 0 .895.026 1.113.026.217.048.265.201.286h.254c.042 0 .063 0 .063.042 0 .043-.037.053-.1.053h-1.397c-.069 0-.106 0-.106-.053s0-.042.085-.042a.808.808 0 0 0 .185 0c.106 0 .132-.132.154-.286.02-.154 0-.631 0-1.108l.026-.89zm.614.409c0 .058 0 .08.047.095.13.035.263.051.397.048a.528.528 0 0 0 .365-.085.913.913 0 0 0 .307-.78c0-.741-.487-.954-.793-.954a1.109 1.109 0 0 0-.276 0c-.037 0-.047.032-.047.075v1.6z" fill="#C4960C"/><path d="M197.804 172.917h-.492a1.125 1.125 0 0 1-.587-.106 2.463 2.463 0 0 1-.736-.785l-.264-.37c-.111-.16-.206-.298-.244-.34-.037-.042 0 0-.047 0h-.423v1.119c0 .217.052.212.148.227h.243c.095 0 .132.059.132.106 0 .048-.026.117-.169.117h-1.397c-.153 0-.17-.08-.17-.117 0-.037 0-.106.15-.106a.745.745 0 0 0 .174 0c.047 0 .074-.068.095-.233.021-.164.026-.62.026-1.097v-2.014c0-.165-.042-.207-.169-.234a.845.845 0 0 0-.19 0c-.133 0-.154-.069-.154-.11 0-.043.132-.112.18-.112h1.444c.346-.024.691.057.99.233a.96.96 0 0 1 .38.769 1.49 1.49 0 0 1-.655 1.171l.137.175c.381.477.678.859.942 1.14.139.162.323.278.53.334h.142a.111.111 0 0 1 .127.106c.021.074-.005.127-.143.127zm-2.365-1.75a.174.174 0 0 1 .143.059c.037.048.132.18.249.35l.264.37c.177.294.41.548.688.748.166.075.348.106.53.09h.274a1.222 1.222 0 0 1-.529-.35c-.264-.28-.571-.667-.952-1.15l-.217-.275.048-.038a1.41 1.41 0 0 0 .66-1.113.822.822 0 0 0-.3-.652 1.585 1.585 0 0 0-.916-.212h-1.201c.143.059.18.175.19.334.011.16 0 .313 0 1.108v.912c0 .482 0 .896-.026 1.118 0 .112-.037.26-.143.318h.852a.345.345 0 0 1-.175-.323c-.026-.217-.026-.636-.026-1.118v-.075a.1.1 0 0 1 .106-.106h.455l.026.006zm-.053-.116a1.516 1.516 0 0 1-.418-.053.148.148 0 0 1-.09-.159v-1.59a.127.127 0 0 1 .09-.138 1.23 1.23 0 0 1 .297 0 .904.904 0 0 1 .862 1.018.976.976 0 0 1-.333.832.586.586 0 0 1-.408.1v-.01zm-.121-1.818a1.204 1.204 0 0 0-.254 0v1.622c.122.035.248.051.375.048.201 0 .254 0 .328-.075a.86.86 0 0 0 .28-.726c0-.673-.46-.859-.73-.859v-.01z" fill="#C4960C"/><path d="M195.365 168.93a1.67 1.67 0 0 1 .952.223c.223.17.355.435.355.716-.026.476-.283.91-.688 1.16.466.584.82 1.061 1.127 1.368.15.18.354.305.582.356h.148c.037 0 .058 0 .058.042s-.037.053-.095.053h-.492a1.056 1.056 0 0 1-.555-.1 2.516 2.516 0 0 1-.715-.764c-.206-.286-.444-.641-.529-.721a.122.122 0 0 0-.095-.032h-.45s-.042 0-.042.037v.059c0 .482 0 .895.026 1.113.027.217.048.265.201.286h.254c.043 0 .064 0 .064.042 0 .043-.037.053-.1.053h-1.399c-.068 0-.105 0-.105-.053s0-.042.084-.042a.808.808 0 0 0 .186 0c.105 0 .132-.132.153-.286.021-.154 0-.631 0-1.108v-2.014c0-.165-.048-.26-.222-.297a1.025 1.025 0 0 0-.201 0c-.058 0-.09 0-.09-.048s.037-.048.116-.048h1.447l.026.006zm-.026 2.057a.528.528 0 0 0 .365-.084.913.913 0 0 0 .307-.78c0-.742-.487-.954-.794-.954a1.109 1.109 0 0 0-.275 0c-.037 0-.048.032-.048.074v1.59c0 .059 0 .08.048.096.129.035.263.052.397.048v.01zm0-2.104h-1.445c-.053 0-.148 0-.148.08 0 .079.09.079.122.079a.898.898 0 0 1 .195 0c.143.032.186.085.196.265.01.18 0 .307 0 1.103v.911c0 .477 0 .89-.026 1.103-.027.212-.048.244-.122.26a.724.724 0 0 1-.18 0c-.08 0-.116 0-.116.074s0 .085.137.085h1.398c.111 0 .138-.048.138-.085 0-.037-.027-.074-.1-.074h-.25c-.126 0-.158-.101-.174-.26a16.531 16.531 0 0 1-.026-1.108v-.074h.45a.085.085 0 0 1 .068 0l.249.344.264.371c.185.308.432.574.725.78.178.083.376.118.572.1h.492c.037 0 .132 0 .132-.084 0-.085-.027-.075-.095-.075h-.143a1.058 1.058 0 0 1-.556-.344c-.264-.281-.566-.663-.947-1.145l-.159-.196a1.47 1.47 0 0 0 .672-1.166.939.939 0 0 0-.365-.743 1.706 1.706 0 0 0-.973-.228l.016.027zm0 2.062a1.32 1.32 0 0 1-.387-.048s-.026 0-.026-.063v-1.59c0-.038 0-.038.026-.043.088-.01.177-.01.265 0 .28 0 .762.196.762.922a.865.865 0 0 1-.296.753.497.497 0 0 1-.344.08v-.011z" fill="#C4960C"/><path d="M197.804 172.917h-.492a1.093 1.093 0 0 1-.577-.106 2.458 2.458 0 0 1-.72-.774l-.216-.307-.053-.07a6.103 6.103 0 0 0-.243-.339.085.085 0 0 0-.07 0h-.454v.006c0 .482 0 .895.026 1.108.027.212.048.238.17.254h.248c.074 0 .1.042.1.08 0 .037 0 .09-.137.09h-1.397c-.116 0-.142-.048-.142-.09 0-.043.042-.08.121-.08.06.007.12.007.18 0 .074 0 .1-.095.122-.254.021-.16.026-.626.026-1.103v-2.014c0-.165-.053-.234-.195-.265h-.196c-.032 0-.127 0-.127-.085s.1-.085.153-.085h1.445c.34-.024.68.057.973.233.233.175.37.45.37.742a1.474 1.474 0 0 1-.671 1.166l.047.059.106.138c.365.46.683.858.947 1.145.145.168.34.287.556.339h.143c.068 0 .095.042.095.08 0 .036-.1.132-.138.132zm-2.82-1.638h.45c.037 0 .058 0 .074.026l.243.34.053.069c.069.106.143.206.217.307.181.307.427.571.72.774.177.086.375.121.571.1h.492c.032 0 .127 0 .127-.079 0-.08 0-.074-.09-.074h-.143a1.01 1.01 0 0 1-.56-.345c-.265-.28-.582-.678-.948-1.14l-.105-.137-.053-.064a1.48 1.48 0 0 0 .672-1.166.928.928 0 0 0-.37-.737 1.685 1.685 0 0 0-.969-.233h-1.444c-.053 0-.143 0-.143.08s.084.074.116.074c.065-.005.13-.005.196 0 .148.032.19.09.201.27.01.18 0 .308 0 1.103v.911c0 .478 0 .891-.026 1.103-.027.212-.048.25-.127.265h-.18c-.074 0-.117 0-.117.074s.027.08.138.08h1.397c.11 0 .132-.043.132-.08 0-.037 0-.074-.095-.074h-.249c-.127 0-.159-.1-.175-.26a16.531 16.531 0 0 1-.026-1.108v-.074l.021-.005zm2.82 1.59h-.492a1.088 1.088 0 0 1-.56-.095 2.484 2.484 0 0 1-.71-.769l-.264-.37c-.117-.16-.212-.303-.254-.345a.095.095 0 0 0-.09-.038h-.45s-.037 0-.037.038v.037c0 .482 0 .895.027 1.113.026.217.037.26.195.286h.254c.058 0 .07.032.07.048s-.038.053-.107.053h-1.397c-.074 0-.105 0-.105-.053s.026-.048.084-.048c.062.004.124.004.185 0 .106 0 .127-.143.149-.286.02-.143 0-.631 0-1.108v-2.014c0-.165-.048-.26-.223-.297a1.104 1.104 0 0 0-.2 0c-.048 0-.09 0-.09-.048s.042-.048.116-.048h1.444c.333-.026.666.052.953.223.227.167.36.433.36.716a1.463 1.463 0 0 1-.688 1.16l.174.223c.381.483.683.864.953 1.145.147.176.348.298.571.35h.148c.053 0 .064.032.064.048s0 .074-.08.074v.005zm-2.82-1.632h.45a.111.111 0 0 1 .095.037c.042.042.138.185.254.344.116.16.175.255.265.371.177.304.419.565.709.764.172.083.364.118.555.1h.492c.069 0 .095 0 .095-.047 0-.048 0-.038-.058-.038h-.148a1.058 1.058 0 0 1-.577-.35 18.56 18.56 0 0 1-.952-1.144l-.175-.223c.403-.253.657-.686.683-1.16a.88.88 0 0 0-.35-.711 1.664 1.664 0 0 0-.952-.223h-1.444c-.08 0-.111 0-.111.043 0 .042 0 .042.084.042.067-.006.135-.006.202 0 .18.037.216.127.227.302.01.175 0 .308 0 1.103v.911c0 .478 0 .891-.026 1.108-.027.218-.043.27-.154.292a.771.771 0 0 1-.185 0c-.069 0-.08 0-.08.037s.032.048.101.048h1.397c.063 0 .1 0 .1-.048s-.031-.037-.063-.037h-.254c-.164 0-.19-.154-.206-.292-.016-.137 0-.63 0-1.113v-.074s-.006-.048.026-.048v.006zm.402-.234a1.357 1.357 0 0 1-.397-.053c-.037 0-.047-.037-.047-.095v-1.59c0-.048 0-.07.047-.08a1.59 1.59 0 0 1 .276 0 .83.83 0 0 1 .798.954.913.913 0 0 1-.306.78.528.528 0 0 1-.37.079v.005zm-.121-1.818a1.056 1.056 0 0 0-.276 0c-.031 0-.042.027-.042.069v1.59c0 .053 0 .074.042.09.13.038.263.055.397.053a.497.497 0 0 0 .365-.09.891.891 0 0 0 .302-.774c0-.747-.492-.917-.788-.917v-.02zm.121 1.786c-.13.002-.26-.016-.386-.053 0 0-.026 0-.026-.063v-1.59c0-.037 0-.043.026-.048.088-.009.177-.009.265 0 .285 0 .761.19.761.922a.865.865 0 0 1-.29.753.486.486 0 0 1-.35.074v.005zm-.121-1.754a.935.935 0 0 0-.265 0v1.686c.125.036.256.054.386.053a.465.465 0 0 0 .344-.085.854.854 0 0 0 .291-.748c0-.72-.476-.917-.756-.917v.01z" fill="#C4960C"/><path d="M195.487 174.778a3.873 3.873 0 0 1-3.582-2.392 3.886 3.886 0 0 1 .836-4.23 3.868 3.868 0 0 1 4.221-.844 3.882 3.882 0 0 1-1.476 7.466zm0-6.934a3.048 3.048 0 0 0-2.82 1.881 3.057 3.057 0 0 0 .658 3.33 3.043 3.043 0 0 0 3.322.664 3.053 3.053 0 0 0-1.16-5.875z" fill="#C4960C"/><path d="M195.487 174.778a3.873 3.873 0 0 1-3.578-2.396 3.886 3.886 0 0 1 .84-4.228 3.868 3.868 0 0 1 4.22-.842 3.882 3.882 0 0 1-1.482 7.465zm0-7.756a3.871 3.871 0 0 0-3.868 3.875 3.871 3.871 0 0 0 3.868 3.875 3.871 3.871 0 0 0 3.867-3.875 3.877 3.877 0 0 0-3.867-3.875zm0 6.929a3.05 3.05 0 0 1-3.048-3.054 3.05 3.05 0 0 1 3.048-3.053 3.05 3.05 0 0 1 3.047 3.053 3.056 3.056 0 0 1-.883 2.176 3.045 3.045 0 0 1-2.164.904v-.026zm0-6.102a3.045 3.045 0 0 0-3.043 3.048 3.045 3.045 0 0 0 3.043 3.048 3.045 3.045 0 0 0 3.042-3.048 3.05 3.05 0 0 0-3.042-3.048z" fill="#C4960C"/><path d="M36.44 135.585c-1.408 0-4.334 0-7.52-.08h-.195c-.688-.036-1.836-.095-1.836-1.17a1.123 1.123 0 0 1 .9-1.14l-3-7.74h-8.191l-2.053 5.216a6.997 6.997 0 0 0-.53 2.12c0 .223 0 .372.726.372h.603c1.27 0 1.46.737 1.46 1.182 0 .292-.11 1.262-1.54 1.262-.656 0-1.423-.032-2.169-.064a50.361 50.361 0 0 0-2.037-.058h-.841c-.9.037-2.407.095-3.841.095-1.434 0-1.588-.79-1.588-1.262a1.183 1.183 0 0 1 1.339-1.182c.375-.004.75-.03 1.122-.074 1.312-.17 1.91-1.118 2.682-3.043l9.958-24.654c.476-1.145.883-2.12 1.91-2.12 1.026 0 1.44.991 1.783 1.792.444 1.007 2.005 4.876 3.82 9.36 2.18 5.392 4.65 11.504 6.027 14.78 1.47 3.488 2.47 3.71 2.899 3.827.483.092.974.138 1.466.138 1.28 0 1.38.9 1.38 1.182-.02 1.261-1.412 1.261-2.735 1.261zm-6.906-1.797c1.757.043 3.418.059 4.762.064-.762-.668-1.587-1.85-2.486-4.002-1.381-3.292-3.858-9.41-6.038-14.805-1.809-4.47-3.37-8.333-3.804-9.32a5.186 5.186 0 0 0-.196-.429c-.126.265-.259.589-.317.732l-9.968 24.643a8.23 8.23 0 0 1-1.852 3.112h.503c.444 0 .761-.032.904-.032.445 0 .947 0 1.46.037a2.33 2.33 0 0 1-.216-1.001 8.569 8.569 0 0 1 .656-2.746l2.116-5.423c.136-.532.621-.9 1.17-.885h8.862a1.249 1.249 0 0 1 1.201.821l3.175 8.2c.14.327.164.692.068 1.034zm-5.195-10.331h-7.302a1.026 1.026 0 0 1-.82-.387 1.099 1.099 0 0 1-.175-.965l.027-.095 3.635-9.695c.076-.534.52-.937 1.058-.96.354 0 .825.17 1.026.97l3.556 9.733a1.062 1.062 0 0 1-1.005 1.399zm-6.318-1.728h5.37l-2.65-7.23-2.72 7.23z" fill="url(#l)" transform="translate(0 7)"/><path d="M57 135.702c-2.185 0-3.884-.042-5.386-.085l-1.35-.032c-1.91-.084-3.301-.122-4.825-.122-.418 0-1.29 0-2.222.043-.492 0-.99 0-1.466.037s-.915.042-1.312.042c-1.534 0-1.656-.97-1.656-1.261 0-.202.074-1.182 1.497-1.182.419 0 .836-.047 1.244-.138.29-.058.423-1.06.481-1.463.19-1.59.19-4.729.19-8.349v-6.997c0-6.043 0-7.13-.073-8.376-.07-1.155-.26-1.309-1.027-1.473a4.98 4.98 0 0 0-1.132-.1c-1.423 0-1.534-.94-1.534-1.225 0-.557.301-1.22 1.735-1.22 1.058 0 2.333.038 3.444.07.826.026 1.54.047 1.99.047.45 0 1.217 0 2.08-.048 1.142-.031 2.438-.069 3.317-.069.635 0 1.698.16 1.698 1.22 0 .365-.153 1.224-1.587 1.224a9.755 9.755 0 0 0-1.408.106c-.396.074-.672.127-.75 1.463-.075 1.251-.075 2.338-.075 8.38v6.998c0 3.822 0 7.421.53 7.888.528.466 1.338.668 4.232.668 2.01 0 3.286-.053 4.01-.838.423-.551.7-1.2.805-1.887.132-1.193.867-1.368 1.296-1.368.53 0 1.18.265 1.18 1.538a31.06 31.06 0 0 1-.63 4.802c-.386 1.548-1.307 1.707-3.296 1.707zm-11.55-1.967c1.55 0 2.963.037 4.878.122l1.328.032c1.492.043 3.175.085 5.344.085 1.127 0 1.481-.069 1.587-.133 0 0 .027-.069.09-.302.117-.475.205-.956.265-1.442-1.286 1.379-3.217 1.379-5.265 1.379-3.132 0-4.439-.265-5.375-1.087-1.122-.97-1.122-3.377-1.122-9.197v-6.997c0-6.086 0-7.183.08-8.482a4.072 4.072 0 0 1 .576-2.12h-.085c-.915 0-1.698.048-2.116.048-.418 0-1.201 0-2.042-.048h-.36a3.63 3.63 0 0 1 .645 2.12c.08 1.3.08 2.396.08 8.482v6.997c0 3.673 0 6.849-.201 8.566a5.468 5.468 0 0 1-.561 2.02c.926-.043 1.825-.043 2.254-.043z" fill="url(#m)" transform="translate(0 7)"/><path d="M79.1 136.142c-6.02 0-10.656-1.49-14.174-4.548-3.519-3.059-5.217-7.21-5.217-12.378 0-2.12.481-7.453 4.92-11.534 3.302-3.027 7.472-4.437 13.122-4.437a40.402 40.402 0 0 1 5.868.403c.751.1 1.429.233 2.085.36.656.127 1.28.255 1.857.313a1.348 1.348 0 0 1 1.37 1.336 5.698 5.698 0 0 1-.047.604c-.043.329-.106.822-.149 1.633-.037.62-.047 1.447-.058 2.242 0 .885 0 1.643-.063 2.088-.064.446-.111 1.691-1.339 1.691-.47 0-1.26-.222-1.26-1.738a4.775 4.775 0 0 0-1.306-3.059c-1-1.06-3.746-2.2-7.407-2.2-3.053 0-5.175.695-6.879 2.243-2.296 2.12-3.365 5.179-3.365 9.658 0 5.359 3.704 13.289 11.64 13.289 3.704 0 5.36-.488 6.609-1.93a5.787 5.787 0 0 0 1.159-2.247c.095-.493.275-1.468 1.36-1.468.608 0 1.222.45 1.222 1.457a38.141 38.141 0 0 1-.91 5.534 2.24 2.24 0 0 1-1.535 1.707c-1.836.721-5.069.981-7.502.981zm-1.322-31.185c-5.196 0-8.995 1.267-11.953 3.986-4.047 3.71-4.365 8.79-4.365 10.257 0 4.65 1.556 8.376 4.63 11.08 3.227 2.809 7.37 4.118 13.037 4.118 2.852 0 5.534-.334 6.825-.853.397-.165.397-.165.53-.594.175-.666.317-1.34.423-2.02a4.18 4.18 0 0 1-.302.371c-1.825 2.12-4.28 2.518-7.905 2.518-5.391 0-13.365-4.77-13.365-15.017 0-4.994 1.249-8.482 3.932-10.936 2.02-1.84 4.571-2.693 8.042-2.693 3.704 0 7.122 1.06 8.688 2.736a6.61 6.61 0 0 1 1 1.388c0-.53 0-1.06.047-1.52.053-.87.117-1.395.16-1.745a.069.069 0 0 1 0-.032 26.309 26.309 0 0 1-1.805-.312 33.63 33.63 0 0 0-1.974-.345 38.364 38.364 0 0 0-5.645-.387z" fill="url(#n)" transform="translate(0 7)"/><path d="M106.35 136.142c-11.583 0-16.858-8.53-16.858-16.433 0-7.903 5.402-16.432 17.254-16.432 10.26 0 16.894 6.175 16.894 15.733-.021 10.071-7.132 17.132-17.29 17.132zm.396-31.17c-7.481 0-15.53 4.607-15.53 14.721 0 7.088 4.736 14.72 15.133 14.72 9.164 0 15.566-6.36 15.566-15.435-.02-8.64-5.836-14.021-15.19-14.021l.021.016zm1.27 29.182c-7.683 0-13.048-6.456-13.048-15.696 0-4.002 1.058-13.305 10.625-13.305 7.354 0 12.492 6.287 12.492 15.293-.022 12.717-7.73 13.708-10.09 13.708h.02zm-2.423-27.273c-7.741 0-8.9 7.252-8.9 11.577 0 8.354 4.55 13.968 11.323 13.968 2.508 0 8.344-1.166 8.344-11.98-.021-7.988-4.45-13.565-10.789-13.565h.022z" fill="url(#o)" transform="translate(0 7)"/><path d="M154.026 135.585h-3.761c-2.318 0-3.45-.212-4.651-.858-1.8-.965-3.339-2.81-5.725-6.096a246.298 246.298 0 0 1-2.042-2.873c-.789-1.13-1.54-2.2-1.826-2.534h-.08l-2.904-.064c0 3.637 0 6.785.19 8.402.133 1.283.366 1.373.805 1.431a17.8 17.8 0 0 0 1.83.154 1.205 1.205 0 0 1 1.34 1.182c0 .292-.123 1.262-1.657 1.262s-3.365-.053-4.571-.09l-1.265-.032c-.302 0-.889 0-1.587.042-1.027.037-2.302.08-3.26.08-1.534 0-1.656-.97-1.656-1.262 0-.201.074-1.182 1.498-1.182.418 0 .835-.046 1.243-.138.291-.058.423-1.06.482-1.463.19-1.59.19-4.728.19-8.349v-7.002c0-6.043 0-7.13-.074-8.376-.069-1.155-.254-1.309-1.026-1.473a7.346 7.346 0 0 0-1.37-.1c-1.424 0-1.535-.94-1.535-1.225 0-.557.301-1.22 1.735-1.22 1.302 0 2.725.043 3.873.08.688 0 1.249.037 1.561.037.683 0 1.804-.032 2.894-.058 1.09-.027 2.09-.059 2.704-.059 2.513 0 5.402.218 7.788 1.861a7.75 7.75 0 0 1 3.07 6.186c0 3.34-1.477 6.075-4.906 9.012l.863 1.06c2.894 3.663 5.18 6.552 7.18 8.656 2 2.105 3.402 2.338 3.941 2.444h.043c.31.062.625.098.942.106a1.21 1.21 0 0 1 1.344 1.182c0 .392-.16 1.277-1.62 1.277zM135.98 121.49a1.66 1.66 0 0 1 1.344.589c.317.366 1.031 1.389 1.942 2.682.64.912 1.354 1.93 2.02 2.852 2.234 3.074 3.646 4.77 5.149 5.587.82.445 1.587.657 3.836.657h.439a11.994 11.994 0 0 1-2.56-2.078c-2.06-2.162-4.366-5.078-7.287-8.773l-1.91-2.411.662-.53c4.333-3.526 4.92-6.139 4.92-8.233a6.031 6.031 0 0 0-2.322-4.733c-2-1.373-4.566-1.559-6.815-1.559-.587 0-1.587 0-2.646.058-1.058.059-2.238.059-2.941.059-.323 0-.905 0-1.62-.037h-.529c.434.62.66 1.362.646 2.12.08 1.299.08 2.396.08 8.481v6.997c0 3.674 0 6.85-.202 8.567a5.308 5.308 0 0 1-.571 2.035h.492c.72 0 1.328-.042 1.64-.042l1.312.032 1.132.031a4.055 4.055 0 0 1-.64-2.051c-.206-1.707-.206-4.898-.206-8.598v-.53a1.136 1.136 0 0 1 1.18-1.182l3.476.08-.021-.07zm-.429-.18a11.24 11.24 0 0 1-3.29-.44l-.064-.026a1.463 1.463 0 0 1-.884-1.511v-12.086a1.298 1.298 0 0 1 .984-1.384 8.73 8.73 0 0 1 2.339-.196c2.402 0 6.936 1.702 6.936 8.142 0 4.072-1.687 5.922-2.693 6.658-.93.663-1.645.843-3.344.843h.016zm-2.508-2.009c.822.195 1.664.29 2.508.281 1.471 0 1.789-.132 2.312-.53.736-.53 1.985-1.956 1.985-5.264 0-2.385-1.096-6.414-5.212-6.414-.53-.009-1.06.016-1.587.074l-.006 11.853z" fill="url(#p)" transform="translate(0 7)"/><path d="M185.455 136.062c-.767 0-1.392-.556-1.958-1.129-1.476-1.41-3.883-3.832-6.428-6.398a998.482 998.482 0 0 0-5.291-5.3c-3.095-3.075-6.244-6.441-8.037-8.381l.38 14.418c.075 3.043.593 3.546.81 3.62a5.44 5.44 0 0 0 1.778.234c1.429 0 1.54.9 1.54 1.182 0 .472-.233 1.261-1.778 1.261-1.693 0-2.937-.053-3.847-.09-.46 0-.814-.031-1.058-.031h-.635c-.81.031-2.174.095-3.65.095-.789 0-1.736-.223-1.736-1.262 0-.201.074-1.182 1.497-1.182a6.069 6.069 0 0 0 1.55-.17c.419-.127.572-1.128.604-4.108l.36-23.419c0-.996.238-2.2 1.375-2.2.73 0 1.196.53 1.736 1.108.11.122.227.255.36.393.37.397 6.444 6.811 12.285 12.626 1.556 1.559 3.963 4.087 5.894 6.117l1.519 1.59-.355-15.838c-.037-2.476-.433-2.65-.82-2.8a6.238 6.238 0 0 0-1.767-.169c-1.391 0-1.497-.938-1.497-1.224 0-1.22 1.423-1.22 1.894-1.22 1.275 0 2.47.043 3.428.08.582 0 1.059.037 1.37.037h.694a61.55 61.55 0 0 1 3.175-.09c1.18 0 1.777.408 1.777 1.22 0 .206-.079 1.224-1.587 1.224a3.623 3.623 0 0 0-.984.09c-.402.116-.773.222-.815 2.56l-.434 25.084c.032.933-.206 2.072-1.349 2.072zm-23.503-24.214h1.376l.254.27.709.764c1.545 1.675 5.17 5.592 8.714 9.117 1.683 1.67 3.524 3.525 5.291 5.301 2.54 2.56 4.937 4.972 6.413 6.361.164.165.296.286.402.382a.823.823 0 0 0 0-.117l.434-25.1c0-1.261.111-2.448.709-3.27l-.497.027-.778.026c-.328 0-.826 0-1.434-.037h-.26c.625.774.784 1.945.81 3.583l.418 18.728h-1.444l-.249-.233c-.307-.286-1.386-1.42-2.883-2.995-1.926-2.025-4.323-4.543-5.868-6.085-5.582-5.561-11.683-11.975-12.323-12.67l-.38-.413-.107-.122v.122l-.36 23.43c-.026 2.375-.084 3.97-.687 4.898h.624l.709-.027c.275 0 .65 0 1.143.038h.656c-.609-.806-.9-2.222-.952-4.459l-.44-17.519z" fill="url(#q)" transform="translate(0 7)"/><path d="M36.44 135.172c-1.403 0-4.329 0-7.509-.08h-.185c-.698-.031-1.429-.074-1.429-.736 0-.663.598-.753.89-.785a.154.154 0 0 0 .073-.08.287.287 0 0 0 0-.243l-3.174-8.2h-8.804l-2.16 5.46a7.432 7.432 0 0 0-.565 2.263c0 .318 0 .8 1.158.8h.609c.286 0 1.026 0 1.026.753 0 .53-.37.827-1.105.827-.646 0-1.413-.032-2.149-.059-.735-.026-1.455-.058-2.058-.058h-.857c-.958.037-2.402.09-3.825.09-.291 0-1.186 0-1.186-.827 0-.228.09-.752.91-.752.393-.005.785-.03 1.175-.075 1.524-.201 2.212-1.272 3.027-3.313l9.963-24.649c.492-1.187.804-1.86 1.507-1.86.704 0 1 .636 1.392 1.532.434 1.007 2 4.871 3.81 9.35 2.185 5.397 4.656 11.509 6.031 14.79 1.556 3.71 2.646 3.949 3.175 4.076a8.134 8.134 0 0 0 1.587.149c.783 0 .947.408.947.752-.016.875-.963.875-2.275.875zm-7.673-.954h.196c2.915.074 5.63.08 7.132.08H36c-1.09-.26-2.291-.992-3.804-4.591-1.381-3.287-3.852-9.399-6.037-14.795-1.82-4.5-3.37-8.365-3.805-9.361-.38-.88-.529-1.013-.597-1.013-.164 0-.561.965-.71 1.325l-9.936 24.644c-.72 1.797-1.47 3.33-3.275 3.764.894 0 1.72-.053 2.339-.074h.888c.62 0 1.37 0 2.09.058h.493a1.484 1.484 0 0 1-.948-1.484 8.09 8.09 0 0 1 .63-2.587l2.143-5.444a.762.762 0 0 1 .757-.589h8.862a.804.804 0 0 1 .799.53l3.174 8.196c.136.3.136.643 0 .943a1.017 1.017 0 0 1-.296.377v.02zm-4.428-11.19h-7.302a.603.603 0 0 1-.481-.223.664.664 0 0 1-.096-.594v-.047l3.646-9.717c.153-.572.47-.662.65-.662.45 0 .561.46.61.657l3.565 9.764a.6.6 0 0 1-.592.822zm-6.942-.864h6.608l-3.259-8.932-3.35 8.932z" fill="url(#r)" transform="translate(0 7)"/><path d="M57 135.273c-2.18 0-3.878-.048-5.376-.085l-1.36-.016a102.444 102.444 0 0 0-4.83-.117c-.423 0-1.302 0-2.244.037-.481 0-.978 0-1.46.043-.481.042-.905.037-1.296.037-1.058 0-1.222-.53-1.222-.827 0-.297.137-.753 1.058-.753.45 0 .9-.05 1.338-.148.487-.096.662-.716.815-1.824.196-1.638.196-4.77.196-8.407v-7.018c0-6.054 0-7.146-.08-8.402-.079-1.256-.343-1.654-1.364-1.871a5.646 5.646 0 0 0-1.223-.112c-.915 0-1.105-.429-1.105-.79 0-.79.915-.79 1.306-.79 1.059 0 2.323.038 3.434.075.826 0 1.545.048 2 .048.455 0 1.19-.027 2.117-.048 1.143-.037 2.434-.074 3.307-.074.349 0 1.264 0 1.264.79 0 .53-.386.79-1.143.79a9.95 9.95 0 0 0-1.476.116c-.698.127-1.026.43-1.111 1.86-.08 1.262-.08 2.354-.08 8.408v6.997c0 4.596 0 7.633.683 8.216.556.493 1.471.774 4.524.774 2.116 0 3.487-.069 4.323-.975a4.515 4.515 0 0 0 .92-2.12c0-.25.111-.986.868-.986s.746.747.746 1.107a31.596 31.596 0 0 1-.608 4.686c-.339 1.214-.895 1.379-2.921 1.379zm-11.55-1.103c1.545 0 2.952.032 4.862.117l1.334.037c1.497.037 3.174.085 5.354.085 1.878 0 1.91-.117 2.085-.758.258-1.244.435-2.503.529-3.77a5.352 5.352 0 0 1-.995 1.914c-1.159 1.251-2.92 1.251-4.958 1.251-3.01 0-4.232-.238-5.09-.986-.952-.837-.952-3.355-.952-8.868v-6.997c0-6.075 0-7.172.08-8.455.079-1.283.386-2.295 1.587-2.619l-1.556.043c-.905.026-1.688.053-2.116.053-.429 0-1.19 0-2.032-.048l-2.048-.058c1.466.36 1.81 1.24 1.895 2.65.079 1.283.079 2.38.079 8.455v6.997c0 3.663 0 6.822-.201 8.519-.132.954-.307 2.231-1.381 2.528.423 0 .857-.032 1.27-.032.936-.058 1.825-.058 2.254-.058z" fill="url(#s)" transform="translate(0 7)"/><path d="M79.1 135.702c-5.994 0-10.407-1.41-13.894-4.437-3.36-2.958-5.068-7.013-5.068-12.054 0-1.59.349-7.135 4.761-11.211 3.217-2.953 7.297-4.331 12.831-4.331a39.61 39.61 0 0 1 5.82.403c.741.095 1.413.228 2.058.355.646.127 1.302.26 1.9.318.725.069.984.53.984.906a5.06 5.06 0 0 1-.048.53c-.042.334-.105.833-.153 1.66a54.607 54.607 0 0 0-.058 2.263c-.01.8 0 1.622-.058 2.052-.059.429-.09 1.304-.91 1.304-.82 0-.826-.986-.826-1.31a5.247 5.247 0 0 0-1.428-3.355c-1.096-1.166-3.91-2.333-7.746-2.333-3.175 0-5.381.727-7.17 2.354-2.391 2.2-3.508 5.37-3.508 9.976 0 5.534 3.836 13.719 12.07 13.719 3.327 0 5.417-.329 6.936-2.078A6.195 6.195 0 0 0 86.847 128c.095-.53.211-1.135.936-1.135.185 0 .788.075.788 1.029a37.823 37.823 0 0 1-.888 5.412 1.828 1.828 0 0 1-1.286 1.431c-1.74.721-4.916.965-7.296.965zm-1.322-31.164c-5.291 0-9.201 1.304-12.244 4.103-4.18 3.838-4.508 9.065-4.508 10.602 0 4.77 1.588 8.619 4.762 11.402 3.313 2.884 7.55 4.24 13.323 4.24 2.905 0 5.646-.344 6.984-.88.556-.227.62-.333.778-.874.38-1.606.66-3.235.836-4.877a7.018 7.018 0 0 1-1.45 2.82c-1.72 1.983-4.084 2.37-7.582 2.37-5.217 0-12.931-4.633-12.931-14.583 0-4.866 1.206-8.237 3.788-10.602 1.937-1.76 4.397-2.576 7.752-2.576 3.598 0 6.878 1.018 8.37 2.598a6.155 6.155 0 0 1 1.646 3.885v-.058c.042-.403.047-1.172.058-1.988.01-.816 0-1.649.063-2.3.048-.854.111-1.373.154-1.718 0-.201.042-.345.042-.445a.814.814 0 0 0-.201-.048c-.646-.064-1.296-.19-1.99-.329a27.137 27.137 0 0 0-2-.344 38.084 38.084 0 0 0-5.65-.398z" fill="url(#t)" transform="translate(0 7)"/><path d="M106.35 135.702c-11.287 0-16.403-8.301-16.403-16.014 0-7.713 5.26-16.02 16.82-16.02 10.154 0 16.46 5.864 16.46 15.304-.042 9.839-6.973 16.73-16.878 16.73zm.396-31.169c-7.688 0-15.958 4.744-15.958 15.155 0 7.294 4.868 15.15 15.561 15.15 9.418 0 15.995-6.525 15.995-15.866-.021-8.9-6-14.434-15.62-14.434l.022-.005zm1.27 29.155c-7.408 0-12.614-6.277-12.614-15.261 0-4.602 1.106-8.047 3.296-10.236a9.583 9.583 0 0 1 6.879-2.65c7.1 0 12.058 6.111 12.058 14.842 0 5.104-1.243 8.82-3.704 11.052a8.832 8.832 0 0 1-5.936 2.284l.02-.031zm-2.423-27.273c-3.482 0-9.328 1.564-9.328 12.012 0 8.48 4.83 14.397 11.75 14.397 2.646 0 8.773-1.209 8.773-12.41-.02-8.21-4.619-13.967-11.217-13.967l.022-.032z" fill="url(#u)" transform="translate(0 7)"/><path d="M154.026 135.172h-3.761c-2.233 0-3.318-.196-4.45-.806-1.725-.922-3.233-2.735-5.577-5.969-.677-.933-1.397-1.95-2.037-2.867-.852-1.214-1.587-2.264-1.873-2.592-.074-.09-.143-.128-.386-.128l-3.339-.08v.44c0 3.658 0 6.812.196 8.482.132 1.283.407 1.707 1.175 1.808.626.083 1.257.134 1.888.153.672 0 .905.403.905.753s-.159.827-1.222.827c-1.534 0-3.355-.053-4.56-.085-.615 0-1.06-.031-1.276-.031-.302 0-.894 0-1.587.042-1.021.032-2.297.074-3.244.074-1.058 0-1.222-.53-1.222-.827 0-.297.138-.753 1.058-.753.45 0 .9-.05 1.339-.148.487-.095.661-.716.815-1.823.195-1.638.195-4.771.195-8.408v-7.04c0-6.053 0-7.145-.079-8.401-.08-1.256-.344-1.654-1.365-1.871a7.848 7.848 0 0 0-1.46-.112c-.91 0-1.106-.429-1.106-.79 0-.79.915-.79 1.307-.79 1.296 0 2.714.049 3.857.08.693 0 1.26.043 1.587.043.688 0 1.815-.032 2.905-.064a109.88 109.88 0 0 1 2.693-.058c2.445 0 5.254.212 7.545 1.786a7.31 7.31 0 0 1 2.863 5.831c0 3.297-1.524 6-5.07 8.97l1.117 1.41c2.9 3.667 5.19 6.562 7.201 8.682 2.01 2.12 3.603 2.454 4.175 2.57h.042c.338.068.682.105 1.027.112.672 0 .91.403.91.753 0 .53-.397.827-1.186.827zm-18.084-13.252c.401-.038.796.122 1.058.43.302.354 1.016 1.372 1.915 2.65.64.911 1.355 1.93 2.027 2.857 2.275 3.127 3.704 4.871 5.29 5.714.99.53 1.974.705 4.043.705h2.746c-.688-.138-2.37-.53-4.56-2.804-2.043-2.152-4.345-5.062-7.26-8.746l-1.645-2.078.333-.27c3.555-2.895 5.074-5.455 5.074-8.567a6.482 6.482 0 0 0-2.508-5.089c-2.116-1.442-4.762-1.638-7.058-1.638-.598 0-1.587.027-2.646.059-1.058.031-2.232.063-2.93.063-.324 0-.9 0-1.588-.042l-2.307-.048c1.46.36 1.799 1.24 1.884 2.624.079 1.283.079 2.38.079 8.455v6.997c0 3.663 0 6.822-.201 8.518-.138.981-.318 2.322-1.487 2.555.624 0 1.275-.031 1.852-.053a53.52 53.52 0 0 1 1.624-.042c.207 0 .677 0 1.302.032l2.825.069c-1.524-.218-1.778-1.437-1.894-2.566-.201-1.69-.201-4.871-.201-8.555v-.53a.7.7 0 0 1 .746-.748l3.466.08.02-.032zm-.408-1.06a10.87 10.87 0 0 1-3.174-.42 1.06 1.06 0 0 1-.651-1.128v-12.086a.906.906 0 0 1 .672-.97 8.677 8.677 0 0 1 2.217-.175c2.418 0 6.503 1.622 6.503 7.707 0 3.88-1.588 5.62-2.514 6.308-.815.626-1.444.764-3.053.764zm-2.915-1.262l.069.032a9.94 9.94 0 0 0 2.846.366c1.503 0 1.937-.144 2.567-.594.804-.594 2.158-2.12 2.158-5.614 0-5.401-3.545-6.843-5.64-6.843a9.179 9.179 0 0 0-1.979.138h-.042v12.213a.988.988 0 0 0 .026.286l-.005.016z" fill="url(#v)" transform="translate(0 7)"/><path d="M185.455 135.628c-.603 0-1.148-.493-1.656-1.002-1.476-1.41-3.878-3.833-6.423-6.393-1.762-1.77-3.598-3.626-5.291-5.3-3.566-3.547-7.201-7.48-8.752-9.16l-.047-.048.407 15.568c.085 3.281.672 3.865 1.1 4.013a5.81 5.81 0 0 0 1.921.254c.916 0 1.106.409 1.106.753 0 .827-1.01.827-1.344.827a88.25 88.25 0 0 1-3.83-.085c-.466 0-.831-.032-1.09-.032h-.651c-.81.038-2.17.096-3.635.096-.392 0-1.302 0-1.302-.827 0-.281.138-.753 1.058-.753.561.01 1.121-.05 1.667-.18.699-.217.878-1.103.92-4.522l.355-23.419c0-.434 0-1.776.947-1.776.53 0 .91.409 1.418.97l.365.398c.365.398 6.45 6.817 12.291 12.632 1.556 1.558 3.958 4.082 5.89 6.112.92.965 1.75 1.84 2.285 2.39l-.376-16.962c-.042-2.36-.365-2.89-1.084-3.18a6.238 6.238 0 0 0-1.937-.207c-.883 0-1.058-.43-1.058-.79 0-.79.952-.79 1.466-.79 1.27 0 2.455.048 3.412.08.588 0 1.059.042 1.387.042.137 0 .38 0 .714-.032.735-.032 1.846-.09 3.174-.09.403 0 1.344 0 1.344.79 0 .238-.11.79-1.143.79a3.898 3.898 0 0 0-1.058.106c-.756.217-1.106.7-1.143 2.968l-.439 25.089c-.02.461-.02 1.67-.968 1.67zm-23.063-23.324h.75l.128.133.704.763c1.55 1.675 5.174 5.598 8.73 9.128a998.46 998.46 0 0 1 5.29 5.3c2.546 2.561 4.943 4.978 6.419 6.388.233.228.756.753 1.058.753.072-.26.101-.53.085-.8l.439-25.095c.037-2.12.312-3.318 1.688-3.758-.778 0-1.44.053-1.932.074-.354 0-.613.032-.756.032-.328 0-.815 0-1.418-.042-.603-.043-1.159-.043-1.826-.059.106.028.21.062.312.101 1.186.498 1.588 1.458 1.62 3.97l.407 18.294h-.815l-.122-.117c-.296-.28-1.428-1.474-2.867-2.979-1.926-2.025-4.328-4.548-5.873-6.096-5.582-5.555-11.678-11.964-12.312-12.658-.138-.138-.26-.281-.376-.409-.203-.27-.454-.5-.74-.678a2.1 2.1 0 0 0-.138.938l-.355 23.425c-.042 3.54-.185 4.919-1.534 5.332l-.196.053c.852 0 1.587-.053 2.116-.08h.688c.27 0 .64 0 1.127.033.609.026 1.37.053 2.312.074-.164-.043-.328-.085-.486-.143-1.112-.393-1.588-1.781-1.678-4.808l-.45-17.069z" fill="url(#w)" transform="translate(0 7)"/><path d="M16.243 124.57c-.2 0-.28.08-.36.318l-2.126 5.46a7.677 7.677 0 0 0-.593 2.423c0 .715.355 1.235 1.587 1.235h.593c.476 0 .598.08.598.318s-.238.397-.677.397c-1.27 0-2.974-.122-4.207-.122-.434 0-2.645.122-4.682.122-.53 0-.752-.08-.752-.397 0-.318.16-.318.477-.318.317 0 .91-.043 1.227-.08 1.825-.238 2.582-1.59 3.376-3.578l9.93-24.649c.477-1.155.715-1.59 1.112-1.59.397 0 .598.355.995 1.272.952 2.184 7.301 18.087 9.841 24.13 1.508 3.578 2.646 4.134 3.492 4.336.55.105 1.107.158 1.667.159.317 0 .529.037.529.318 0 .28-.355.397-1.826.397-1.47 0-4.322 0-7.497-.08-.714-.042-1.19-.042-1.19-.317 0-.276.158-.318.529-.36a.646.646 0 0 0 .354-.912l-3.174-8.19a.381.381 0 0 0-.397-.281l-8.826-.01zm8.096-1.977c.2 0 .238-.117.2-.239l-3.576-9.78c-.037-.159-.08-.355-.196-.355s-.2.196-.238.355l-3.65 9.743c-.043.16 0 .276.158.276h7.302z" fill="url(#x)" transform="translate(0 7)"/><path d="M48.032 123.192c0 5.089 0 7.83.83 8.545.678.599 1.71.875 4.805.875 2.116 0 3.65-.038 4.64-1.114a4.966 4.966 0 0 0 1.058-2.385c.042-.355.122-.594.44-.594.317 0 .317.196.317.674a31.521 31.521 0 0 1-.598 4.574c-.238.875-.434 1.06-2.498 1.06-2.857 0-4.92-.08-6.709-.116-1.788-.037-3.211-.122-4.84-.122-.435 0-1.308 0-2.26.042a66.2 66.2 0 0 1-2.74.08c-.53 0-.794-.122-.794-.398 0-.275.158-.318.634-.318.481 0 .96-.053 1.429-.159.794-.159.995-1.034 1.153-2.19.196-1.669.196-4.807.196-8.48v-6.971c0-6.043 0-7.156-.08-8.429-.078-1.351-.396-1.987-1.703-2.268A5.91 5.91 0 0 0 40 105.38c-.434 0-.672-.08-.672-.36 0-.281.275-.356.873-.356 1.862 0 4.365.117 5.434.117.952 0 3.852-.117 5.397-.117.529 0 .836.08.836.356 0 .275-.238.36-.715.36-.518 0-1.037.04-1.55.117-1.058.201-1.386.874-1.465 2.268-.08 1.273-.08 2.386-.08 8.429l-.026 6.997z" fill="url(#y)" transform="translate(0 7)"/><path d="M65.492 130.931c-3.889-3.419-4.92-7.872-4.92-11.725 0-2.704.83-7.421 4.64-10.894 2.857-2.623 6.63-4.214 12.54-4.214 1.925-.009 3.85.124 5.756.398 1.508.196 2.778.53 3.968.673.434.042.593.239.593.477 0 .318-.117.795-.196 2.19-.08 1.309-.042 3.498-.122 4.293-.037.594-.116.912-.476.912s-.397-.318-.397-.875a5.683 5.683 0 0 0-1.545-3.657c-1.312-1.39-4.407-2.465-8.058-2.465-3.45 0-5.714.874-7.46 2.465-2.894 2.65-3.646 6.44-3.646 10.3 0 9.461 7.18 14.152 12.498 14.152 3.529 0 5.672-.397 7.259-2.226a6.551 6.551 0 0 0 1.35-2.65c.12-.636.2-.795.528-.795s.355.275.355.593a37.87 37.87 0 0 1-.873 5.301 1.393 1.393 0 0 1-1.032 1.15c-1.587.636-4.603.917-7.143.917-5.444.027-10.01-1.14-13.619-4.32z" fill="url(#z)" transform="translate(0 7)"/><path d="M90.333 119.693c0-6.8 4.487-15.584 16.402-15.584 9.879 0 16.032 5.762 16.032 14.842 0 9.08-6.349 16.3-16.402 16.3-11.428.027-16.032-8.523-16.032-15.558zm26.868.753c0-8.905-5.122-14.429-11.64-14.429-4.561 0-9.762 2.545-9.762 12.441 0 8.27 4.566 14.843 12.17 14.843 2.803-.01 9.232-1.363 9.232-12.855z" fill="url(#A)" transform="translate(0 7)"/><path d="M127.476 116.195c0-6.043 0-7.156-.08-8.429-.079-1.351-.396-1.987-1.703-2.268a8.207 8.207 0 0 0-1.55-.117c-.434 0-.672-.08-.672-.36 0-.281.275-.356.873-.356 2.116 0 4.603.117 5.434.117 1.349 0 4.365-.117 5.598-.117 2.497 0 5.158.239 7.301 1.707a6.896 6.896 0 0 1 2.699 5.45c0 2.942-1.233 5.645-5.238 8.905 3.529 4.453 6.27 7.988 8.608 10.453 2.222 2.306 3.852 2.587 4.444 2.704.367.073.738.114 1.112.122.317 0 .476.116.476.318 0 .318-.275.397-.752.397h-3.761c-2.217 0-3.212-.201-4.233-.758-1.71-.911-3.217-2.783-5.44-5.83-1.587-2.19-3.412-4.893-3.925-5.487a.835.835 0 0 0-.715-.281l-3.455-.08c-.195 0-.317.08-.317.319v.53c0 3.71 0 6.838.201 8.508.116 1.155.354 2.03 1.545 2.189.646.087 1.296.14 1.947.159.317 0 .476.116.476.318 0 .201-.28.397-.793.397-2.302 0-5.239-.121-5.82-.121-.752 0-3.255.121-4.842.121-.529 0-.788-.121-.788-.397s.153-.318.63-.318c.48 0 .96-.053 1.428-.16.794-.158.995-1.033 1.153-2.188.196-1.67.196-4.808.196-8.482l-.037-6.965zm4.683 3.138c0 .44.08.599.36.716.98.28 1.996.414 3.015.397 1.588 0 2.117-.159 2.815-.673 1.19-.875 2.344-2.704 2.344-5.964 0-5.645-3.73-7.278-6.074-7.278a8.825 8.825 0 0 0-2.116.16c-.28.079-.36.238-.36.53l.016 12.112z" fill="url(#B)" transform="translate(0 7)"/><path d="M163.275 129.341c.08 3.101.593 4.135 1.386 4.41a6.306 6.306 0 0 0 2.064.281c.439 0 .677.08.677.318 0 .239-.36.398-.915.398-2.577 0-4.164-.122-4.92-.122-.355 0-2.223.122-4.287.122-.529 0-.873-.043-.873-.398 0-.238.239-.318.635-.318a7.04 7.04 0 0 0 1.789-.201c1.031-.318 1.19-1.469 1.227-4.93l.36-23.414c0-.795.116-1.352.53-1.352.412 0 .793.53 1.47 1.23.476.53 6.508 6.891 12.302 12.643 2.698 2.703 8.052 8.428 8.73 9.064h.196l-.413-17.874c-.037-2.428-.397-3.18-1.35-3.578a6.438 6.438 0 0 0-2.116-.239c-.476 0-.635-.122-.635-.36 0-.318.434-.356 1.058-.356 2.064 0 3.969.117 4.8.117.439 0 1.947-.117 3.888-.117.53 0 .916.038.916.356 0 .238-.238.36-.715.36-.4-.015-.8.024-1.19.117-1.111.318-1.429 1.155-1.471 3.382l-.434 25.083c0 .875-.159 1.235-.529 1.235s-.91-.44-1.35-.874c-2.497-2.386-7.576-7.596-11.703-11.689-4.328-4.293-8.73-9.144-9.444-9.902h-.122l.44 16.608z" fill="url(#C)" transform="translate(0 7)"/><path d="M21.788 104.204c-.396 0-.635.435-1.11 1.59l-6.509 16.126a25.354 25.354 0 0 0 12.762 1.818 8.017 8.017 0 0 0 2.841-1.06c-2.84-6.987-6.306-15.632-6.989-17.19-.397-.929-.635-1.284-.995-1.284zm2.582 18.484h-7.3c-.159 0-.201-.116-.159-.275l3.65-9.743c.038-.16.117-.355.239-.355.122 0 .159.196.196.355l3.571 9.78c.042.122 0 .238-.196.238z" fill="url(#D)" transform="translate(0 7)"/><path d="M14.17 121.92l-3.45 8.534c-.794 1.988-1.55 3.34-3.376 3.578-.318.037-.873.08-1.228.08-.354 0-.476.08-.476.318s.238.397.752.397c2.063 0 4.232-.122 4.682-.122 1.233 0 2.937.122 4.233.122.439 0 .677-.08.677-.397 0-.318-.122-.318-.598-.318h-.619c-1.233 0-1.587-.53-1.587-1.235.058-.838.253-1.66.577-2.433l2.116-5.45c.08-.238.159-.318.36-.318h8.889a.381.381 0 0 1 .397.281l3.174 8.19a.648.648 0 0 1-.354.912c-.397.042-.556.122-.556.36 0 .239.476.276 1.19.318 3.175.08 6.07.08 7.498.08s1.825-.08 1.825-.398-.195-.318-.529-.318c-.56 0-1.117-.054-1.666-.159-.836-.201-1.985-.758-3.493-4.336a647.919 647.919 0 0 1-2.851-6.928 8.017 8.017 0 0 1-2.842 1.06c-4.334.5-8.723-.125-12.746-1.818z" fill="url(#E)" transform="translate(0 7)"/><path d="M43.1 113.036v10.251c0 3.658 0 6.796-.195 8.482-.159 1.155-.36 2.03-1.154 2.189-.468.106-.948.16-1.428.159-.476 0-.635.117-.635.318 0 .202.28.398.793.398.794 0 1.826-.08 2.741-.08.916 0 1.826-.042 2.26-.042 1.63 0 3.052.042 4.84.122 1.79.08 3.853.116 6.71.116 2.058 0 2.259-.196 2.497-1.06.31-1.508.51-3.037.598-4.575 0-.477-.042-.673-.317-.673-.276 0-.397.239-.44.594a4.966 4.966 0 0 1-1.031 2.385c-.99 1.06-2.54 1.114-4.64 1.114-3.096 0-4.128-.276-4.805-.875-.83-.716-.83-3.456-.83-8.545v-9.542a13.86 13.86 0 0 0-4.963-.736z" fill="url(#F)" transform="translate(0 7)"/><path d="M49.608 105.593a10.563 10.563 0 0 1 1.55-.116c.477 0 .715-.08.715-.361 0-.28-.28-.355-.836-.355-1.545 0-4.444.117-5.397.117-1.058 0-3.571-.117-5.434-.117-.598 0-.873.08-.873.355 0 .276.233.36.672.36.44-.01.88.03 1.312.117 1.307.281 1.625.917 1.704 2.269.064.996.074 1.903.08 5.174a13.86 13.86 0 0 1 4.962.72c0-3.87 0-4.823.075-5.894.084-1.394.396-2.067 1.47-2.269z" fill="url(#G)" transform="translate(0 7)"/><path d="M65.524 131.037c3.608 3.144 8.174 4.336 13.608 4.336 2.54 0 5.556-.28 7.143-.917.544-.14.951-.593 1.032-1.15a37.87 37.87 0 0 0 .873-5.3c0-.319-.08-.595-.355-.595-.275 0-.396.16-.529.796a6.62 6.62 0 0 1-1.349 2.65c-1.587 1.829-3.73 2.226-7.26 2.226-4.64 0-10.703-3.572-12.168-10.776a50.211 50.211 0 0 1-5.916-2.407c.111 3.705 1.222 7.888 4.92 11.137z" fill="url(#H)" transform="translate(0 7)"/><path d="M69.841 108.615c1.746-1.59 4.01-2.465 7.46-2.465 3.651 0 6.747 1.06 8.059 2.465a5.683 5.683 0 0 1 1.545 3.657c0 .53.08.875.397.875s.439-.318.476-.912c.08-.795.042-2.984.121-4.294.08-1.394.196-1.87.196-2.189 0-.238-.158-.435-.592-.477-1.19-.117-2.46-.477-3.969-.673a39.198 39.198 0 0 0-5.756-.398c-5.91 0-9.683 1.59-12.54 4.214-3.81 3.499-4.64 8.19-4.64 10.894v.572a50.211 50.211 0 0 0 5.915 2.407 16.993 16.993 0 0 1-.333-3.377c.016-3.859.772-7.633 3.661-10.3z" fill="url(#I)" transform="translate(0 7)"/><path d="M117.233 120.542c0 11.492-6.429 12.844-9.207 12.844-7.619 0-12.169-6.563-12.169-14.843-.007-1.28.096-2.559.307-3.822a39.507 39.507 0 0 0-5.524 2.195c-.17.944-.257 1.902-.259 2.862 0 7.034 4.603 15.585 15.99 15.585 9.523 0 15.724-6.435 16.37-14.843a44.504 44.504 0 0 1-5.598-2.12c.047.705.09 1.4.09 2.142z" fill="url(#J)" transform="translate(0 7)"/><path d="M106.751 104.204c-10.28 0-15.026 6.557-16.127 12.722a39.507 39.507 0 0 1 5.524-2.194c1.18-6.753 5.55-8.62 9.455-8.62 5.974 0 10.773 4.66 11.524 12.31a44.504 44.504 0 0 0 5.598 2.12c.037-.488.063-.976.063-1.474 0-9.102-6.153-14.864-16.037-14.864z" fill="url(#K)" transform="translate(0 7)"/><path d="M142.709 106.468c-2.143-1.469-4.804-1.707-7.302-1.707-1.232 0-4.232.117-5.597.117-.831 0-3.334-.117-5.434-.117-.598 0-.873.08-.873.355 0 .276.238.36.672.36a8.3 8.3 0 0 1 1.55.117c1.307.281 1.624.917 1.704 2.269.079 1.352.079 2.385.079 8.428v5.1c2.078.11 4.155-.23 6.09-.997a6.62 6.62 0 0 1-1.058-.249c-.28-.117-.36-.276-.36-.716v-12.086c0-.318.08-.477.36-.556a8.825 8.825 0 0 1 2.116-.16c2.344 0 6.074 1.633 6.074 7.279a9.42 9.42 0 0 1-.73 3.885c1.402-.53 2.825-1.06 4.265-1.49a8.605 8.605 0 0 0 1.148-4.383 6.896 6.896 0 0 0-2.704-5.45z" fill="url(#L)" transform="translate(0 7)"/><path d="M138.381 119.868c-.714.53-1.228.674-2.815.674-.659 0-1.317-.05-1.968-.149a14.457 14.457 0 0 1-6.085.997v1.897c0 3.658 0 6.796-.196 8.482-.158 1.155-.36 2.03-1.153 2.189a6.42 6.42 0 0 1-1.429.159c-.476 0-.634.117-.634.318 0 .202.28.398.793.398 1.587 0 4.09-.122 4.841-.122.598 0 3.535.122 5.82.122.53 0 .794-.122.794-.398s-.159-.318-.476-.318a18.316 18.316 0 0 1-1.947-.159c-1.19-.159-1.429-1.06-1.545-2.19-.201-1.669-.201-4.807-.201-8.507v-.557c0-.238.122-.318.317-.318l3.482.064a.835.835 0 0 1 .714.28c.53.594 2.339 3.298 3.926 5.487 2.222 3.059 3.73 4.93 5.44 5.831 1.057.53 2.02.758 4.232.758h3.772c.477 0 .752-.08.752-.397 0-.202-.159-.318-.476-.318a6.296 6.296 0 0 1-1.111-.122c-.593-.117-2.223-.398-4.445-2.704-2.339-2.465-5.08-6-8.608-10.453a16.533 16.533 0 0 0 4.09-4.522 72.61 72.61 0 0 0-4.265 1.49 5.13 5.13 0 0 1-1.619 2.088z" fill="url(#M)" transform="translate(0 7)"/><path d="M160.09 128.97c-.037 3.461-.196 4.612-1.228 4.93a7.067 7.067 0 0 1-1.788.201c-.397 0-.635.08-.635.318 0 .355.355.398.873.398 2.064 0 3.931-.122 4.286-.122.751 0 2.339.122 4.92.122.53 0 .916-.08.916-.398s-.238-.318-.677-.318a6.285 6.285 0 0 1-2.064-.28c-.794-.276-1.312-1.31-1.386-4.411l-.344-13.851a19.923 19.923 0 0 0-2.646-.737l-.227 14.148z" fill="url(#N)" transform="translate(0 7)"/><path d="M183.661 127.141h-.195c-.413-.387-2.577-2.65-4.81-5.014a9.511 9.511 0 0 1-8.513-2.285 23.414 23.414 0 0 0-2.26-1.77 243.336 243.336 0 0 0 4.546 4.659c4.132 4.092 9.206 9.303 11.709 11.688.439.435.915.875 1.349.875.434 0 .529-.36.529-1.235l.275-15.569a25.56 25.56 0 0 1-2.767 1.792l.137 6.86z" fill="url(#O)" transform="translate(0 7)"/><path d="M178.656 122.127a324.67 324.67 0 0 0-3.92-4.05 535.833 535.833 0 0 1-12.302-12.643c-.677-.716-1.058-1.23-1.471-1.23-.413 0-.53.53-.53 1.352l-.116 9.255c.898.185 1.782.431 2.646.737l-.074-2.72h.074c.46.483 2.418 2.651 4.9 5.243a23.414 23.414 0 0 1 2.259 1.77 9.511 9.511 0 0 0 8.534 2.286z" fill="url(#P)" transform="translate(0 7)"/><path d="M187.91 105.593c.39-.093.79-.132 1.19-.116.471 0 .715-.122.715-.361 0-.318-.397-.355-.916-.355-1.947 0-3.45.117-3.888.117-.831 0-2.736-.117-4.805-.117-.592 0-1.026.037-1.026.355 0 .239.159.36.63.36a6.47 6.47 0 0 1 2.116.239c.952.398 1.307 1.15 1.35 3.578l.243 10.989a25.56 25.56 0 0 0 2.767-1.792l.164-9.515c.026-2.226.322-3.064 1.46-3.382z" fill="url(#Q)" transform="translate(0 7)"/><path d="M28.868 133.582v-.043a.588.588 0 0 1-.339.287c-.397.037-.529.116-.529.355 0 .238.238.254.624.286a.658.658 0 0 0 .244-.885z" fill="url(#R)" transform="translate(0 7)"/><path d="M14.942 134.53h.852c.217-.042.338-.143.338-.365 0-.223-.121-.318-.598-.318h-.592c-1.058 0-1.46-.377-1.561-.928a3.388 3.388 0 0 0-.027.366c0 .726.355 1.246 1.588 1.246z" fill="url(#S)" transform="translate(0 7)"/><path d="M88 127.178c-.317 0-.397.16-.53.795a6.588 6.588 0 0 1-1.348 2.65c-1.588 1.83-3.704 2.227-7.26 2.227-5.29 0-12.375-4.617-12.497-13.92v.44c0 9.462 7.185 14.153 12.503 14.153 3.529 0 5.672-.397 7.259-2.226a6.62 6.62 0 0 0 1.35-2.624c.12-.636.2-.795.528-.795.185 0 .28.127.328.313 0-.18.027-.318.027-.387 0-.345-.085-.626-.36-.626z" fill="url(#T)" transform="translate(0 7)"/><path d="M108.196 133.142c-7.513 0-12.053-6.361-12.17-14.498v.34c0 8.268 4.561 14.842 12.17 14.842 2.778 0 9.206-1.352 9.206-12.844v-.33c-.132 11.16-6.455 12.49-9.206 12.49z" fill="url(#U)" transform="translate(0 7)"/><path d="M106.926 103.96c-3.36 0-2.328.53 0 .674 9.746.477 15.873 5.624 16.026 14.53v-.335c.006-9.101-6.142-14.869-16.026-14.869z" fill="url(#V)" transform="translate(0 7)"/><path d="M154.984 134.175c0-.196-.159-.318-.476-.318a6.232 6.232 0 0 1-1.111-.116c-.593-.122-2.222-.398-4.445-2.704-2.27-2.39-4.915-5.794-8.29-10.071l-.318.27c3.529 4.453 6.27 7.988 8.608 10.453 2.223 2.306 3.852 2.587 4.445 2.704a6.38 6.38 0 0 0 1.11.122h.117c.233-.022.36-.122.36-.34z" fill="url(#W)" transform="translate(0 7)"/><path d="M132.365 123.674c0 3.711 0 6.838.196 8.508.122 1.156.36 2.03 1.55 2.19.646.087 1.296.14 1.947.159h.08c.259-.053.396-.165.396-.36 0-.197-.158-.319-.476-.319a18.316 18.316 0 0 1-1.947-.159c-1.19-.159-1.428-1.034-1.55-2.184-.196-1.654-.196-4.77-.196-8.397v.562z" fill="url(#X)" transform="translate(0 7)"/><path d="M163.492 129.84c.08 3.1.598 4.134 1.392 4.41a6.285 6.285 0 0 0 2.063.28h.228c.28-.042.444-.148.444-.365 0-.218-.238-.318-.672-.318a6.28 6.28 0 0 1-2.063-.276c-.794-.28-1.313-1.315-1.392-4.416l-.418-15.902.418 16.586z" fill="url(#Y)" transform="translate(0 7)"/><path d="M162.603 105.863c.476.53 6.508 6.892 12.302 12.643 2.698 2.703 8.058 8.428 8.73 9.064h.201v-.667h-.185c-.672-.637-6.032-6.361-8.73-9.065a631.677 631.677 0 0 1-12.302-12.642c-.672-.716-1.032-1.236-1.466-1.236-.433 0 .778 1.188 1.45 1.903z" fill="url(#Z)" transform="translate(0 7)"/><path d="M29.148 134.493l-.577-.031-.068.026c-.397.043-.53.122-.53.36 0 .24.477.276 1.191.319 3.175.08 6.069.08 7.497.08 1.429 0 1.826-.08 1.826-.398s-.196-.318-.53-.318h-.063c-.415.035-.832.05-1.248.042-1.43 0-4.323 0-7.498-.08z" fill="url(#aa)" transform="translate(0 7)"/><path d="M24.74 122.211l-3.576-9.78c-.037-.159-.08-.36-.196-.36s-.2.201-.238.36c0 0 .117.313.238.313.122 0 .159.196.196.355l3.418 9.35c.159 0 .196-.132.159-.238z" fill="url(#ab)" transform="translate(0 7)"/><path d="M28.868 132.903l-3.175-8.19a.381.381 0 0 0-.397-.275H16.45c-.201 0-.28.08-.36.318l-2.143 5.444a7.73 7.73 0 0 0-.593 2.428c0 .1.01.202.027.302a8.87 8.87 0 0 1 .566-2.057l2.143-5.45c.08-.238.159-.317.36-.317h8.846a.381.381 0 0 1 .397.28l3.175 8.148a.7.7 0 0 0 0-.63z" fill="url(#ac)" transform="translate(0 7)"/><path d="M57.201 134.695c-2.857 0-4.92-.08-6.704-.122-1.783-.042-3.217-.117-4.84-.117-.44 0-1.313 0-2.265.037-.953.038-1.942.08-2.736.08a1.97 1.97 0 0 1-.38-.032c-.302.037-.414.143-.414.308 0 .275.276.397.794.397.794 0 1.825-.08 2.736-.08.91 0 1.825-.042 2.264-.042 1.624 0 3.053.043 4.841.122 1.789.08 3.847.117 6.704.117 2.064 0 2.265-.196 2.503-1.06a31.33 31.33 0 0 0 .592-4.575c.01-.115.01-.23 0-.345a31.495 31.495 0 0 1-.576 4.241c-.254.87-.46 1.07-2.519 1.07z" fill="url(#ad)" transform="translate(0 7)"/><path d="M49.783 105.355c-1.058.196-1.391.874-1.47 2.263-.08 1.272-.08 2.385-.08 8.428v.122c0-5.56 0-6.647.08-7.877.079-1.394.396-2.067 1.47-2.269a10.526 10.526 0 0 1 1.545-.116c.476 0 .714-.08.714-.36 0-.191-.132-.287-.402-.33a2.593 2.593 0 0 1-.312 0c-.518.009-1.034.055-1.545.139z" fill="url(#ae)" transform="translate(0 7)"/><path d="M87.958 111.991c-.037.6-.117.917-.477.917s-.396-.318-.396-.874a5.672 5.672 0 0 0-1.545-3.658c-1.312-1.394-4.408-2.465-8.059-2.465-3.45 0-5.714.875-7.46 2.465-2.894 2.65-3.65 6.44-3.65 10.294v.234c.058-3.711.857-7.294 3.645-9.86 1.746-1.59 4.01-2.465 7.46-2.465 3.651 0 6.746 1.06 8.058 2.465a5.683 5.683 0 0 1 1.545 3.658c0 .53.08.874.397.874.318 0 .44-.318.476-.912.08-.795.043-2.984.122-4.293.08-1.394.196-1.871.196-2.19a.457.457 0 0 0-.042-.19 22.26 22.26 0 0 0-.154 1.707c-.074 1.314-.037 3.498-.116 4.293z" fill="url(#af)" transform="translate(0 7)"/><path d="M105.778 105.869c-4.566 0-9.762 2.544-9.762 12.446v.329c.122-9.61 5.249-12.102 9.756-12.102 2.286 0 3.847.207 4.408.588 1.778 1.182-.212-1.261-4.402-1.261z" fill="url(#ag)" transform="translate(0 7)"/><path d="M106.704 135.373c-3.863-.1-5.577-.927-5.688-.768-.185.26 3.397 1.145 5.513 1.198 10.053.233 16.402-7.199 16.402-16.3v-.34c-.132 8.943-6.275 16.465-16.227 16.21z" fill="url(#ah)" transform="translate(0 7)"/><path d="M183.44 109.05c-.043-2.423-.043-1.755 0 .672l.38 17.18-.38-17.853z" fill="url(#ai)" transform="translate(0 7)"/><path d="M186.175 134.488l.439-25.084c.037-2.226.354-3.063 1.465-3.382a4.41 4.41 0 0 1 1.19-.116c.477 0 .715-.122.715-.36 0-.24-.17-.297-.434-.335a1.51 1.51 0 0 1-.28 0c-.4-.016-.802.025-1.19.122-1.112.318-1.43 1.15-1.466 3.377l-.44 25.089c0 .875-.158 1.23-.528 1.23" fill="url(#aj)" transform="translate(0 7)"/><path d="M17.069 122.45l-.148.397c-.043.16 0 .276.158.276h7.302c.196 0 .238-.117.196-.238l-.159-.44h-.037l-7.312.005z" fill="url(#ak)" transform="translate(0 7)"/><path d="M28.693 133.582v-.043a.572.572 0 0 1-.339.287c-.396.037-.555.116-.555.355 0 .238.238.254.624.286a.646.646 0 0 0 .27-.885z" fill="url(#al)" transform="translate(0 7)"/><path d="M37.725 134.53c.439-.052.571-.159.571-.355 0-.275-.195-.318-.529-.318" fill="url(#am)" transform="translate(0 7)"/><path d="M22.783 105.233c-.397-.912-.635-1.273-.995-1.273s-.635.44-1.11 1.59L10.72 130.2c-.794 1.988-1.55 3.34-3.376 3.578-.408.049-.817.075-1.228.08-.317 0-.476.079-.476.317 0 .239.106.318.334.366h.142c.355 0 .91-.042 1.228-.08 1.825-.238 2.582-1.59 3.376-3.577l9.957-24.65c.476-1.155.715-1.59 1.111-1.59.397 0 .598.355.995 1.272" fill="url(#an)" transform="translate(0 7)"/><path d="M45.64 105.307c.953 0 3.852-.117 5.397-.117.145 0 .29.009.434.027.264-.037.402-.133.402-.34 0-.206-.28-.36-.836-.36-1.545 0-4.444.122-5.397.122-1.058 0-3.571-.122-5.434-.122-.598 0-.873.08-.873.36 0 .281.143.308.402.34a3.72 3.72 0 0 1 .471-.027c1.863 0 4.36.117 5.434.117z" fill="url(#ao)" transform="translate(0 7)"/><path d="M41.751 134.371c.794-.159.995-1.06 1.154-2.189.196-1.67.196-4.808.196-8.481v-.673c0 3.657 0 6.8-.196 8.481-.159 1.15-.36 2.025-1.154 2.184-.468.106-.948.16-1.428.159-.476 0-.635.122-.635.318s.143.318.413.366h.222a6.36 6.36 0 0 0 1.428-.165z" fill="url(#ap)" transform="translate(0 7)"/><path d="M59.788 128.37c-.322 0-.396.24-.439.6a5.014 5.014 0 0 1-1.032 2.385c-.989 1.06-2.54 1.113-4.64 1.113-3.095 0-4.127-.28-4.804-.874-.83-.716-.83-3.462-.83-8.55v.673c0 5.089 0 7.83.83 8.545.677.599 1.709.874 4.804.874 2.117 0 3.651-.037 4.64-1.113a4.957 4.957 0 0 0 1.032-2.385c.043-.355.117-.594.44-.594.195 0 .27.1.296.329v-.324c.042-.477 0-.678-.297-.678z" fill="url(#aq)" transform="translate(0 7)"/><path d="M65.243 108.848c2.858-2.65 6.63-4.24 12.54-4.24 1.926-.01 3.85.123 5.757.397 1.508.196 2.777.556 3.968.673.213 0 .412.108.529.286.023-.158.038-.317.042-.477 0-.238-.158-.44-.592-.477-1.19-.122-2.46-.477-3.968-.678a39.198 39.198 0 0 0-5.757-.398c-5.91 0-9.683 1.59-12.54 4.214-3.81 3.499-4.64 8.19-4.64 10.893v.36a14.919 14.919 0 0 1 4.661-10.553z" fill="url(#ar)" transform="translate(0 7)"/><path d="M108.026 133.142c-7.518 0-12.058-6.361-12.169-14.498v.34c0 8.268 4.566 14.842 12.17 14.842 2.777 0 9.206-1.352 9.206-12.844v-.33c-.138 11.16-6.46 12.49-9.207 12.49z" fill="url(#as)" transform="translate(0 7)"/><path d="M106.751 103.96c-11.9 0-16.402 8.79-16.402 15.585v.34c.148-6.749 4.672-15.68 16.402-15.68 3.223 0 3.344-.245 0-.245z" fill="url(#at)" transform="translate(0 7)"/><path d="M126.159 134.371c.793-.159.994-1.06 1.153-2.189.196-1.67.196-4.808.196-8.481v-.673c0 3.657 0 6.8-.196 8.481-.159 1.15-.36 2.025-1.153 2.184a6.42 6.42 0 0 1-1.429.159c-.476 0-.635.122-.635.318s.143.318.413.366h.222c.481-.001.96-.056 1.429-.165z" fill="url(#au)" transform="translate(0 7)"/><path d="M138.381 119.624c-.714.53-1.228.679-2.815.679a10.51 10.51 0 0 1-3.016-.398c-.28-.121-.36-.28-.36-.715v.668c0 .44.08.599.36.715.98.281 1.997.415 3.016.398 1.587 0 2.117-.16 2.815-.673 1.19-.875 2.344-2.704 2.344-5.964v-.233c-.111 2.984-1.206 4.691-2.344 5.523z" fill="url(#av)" transform="translate(0 7)"/><path d="M185.01 105.307c.44 0 1.942-.117 3.89-.117a4.31 4.31 0 0 1 .476 0c.285-.037.439-.148.439-.334 0-.318-.397-.36-.916-.36-1.947 0-3.45.122-3.888.122-.831 0-2.736-.122-4.805-.122-.592 0-1.026.042-1.026.36 0 .196.111.313.423.345.2-.026.402-.036.603-.032 2.07.021 3.974.138 4.805.138z" fill="url(#aw)" transform="translate(0 7)"/><path d="M160.963 103.96c-.397 0-.53.53-.53 1.352l-.359 23.42c-.037 3.456-.196 4.611-1.227 4.93a7.056 7.056 0 0 1-1.789.195c-.397 0-.635.08-.635.318 0 .239.148.329.387.371.082-.005.165-.005.248 0a7.067 7.067 0 0 0 1.789-.201c1.031-.318 1.19-1.468 1.227-4.93l.36-23.414c0-.795.116-1.351.529-1.351" fill="url(#ax)" transform="translate(0 7)"/><path d="M24.566 122.211l-3.571-9.78c-.037-.159-.08-.36-.196-.36s-.201.201-.238.36c0 0 .116.313.238.313.122 0 .159.196.196.355l3.412 9.35c.16 0 .196-.132.16-.238z" fill="url(#ay)" transform="translate(0 7)"/><path d="M25.122 125.1a.381.381 0 0 1 .397.281l3.174 8.148a.7.7 0 0 0 0-.631l-3.174-8.19a.381.381 0 0 0-.397-.276" fill="url(#az)" transform="translate(0 7)"/><path d="M86.275 134.218c-1.587.636-4.603.912-7.143.912-5.434 0-10-1.193-13.608-4.331-3.773-3.319-4.852-7.602-4.916-11.37v.312c0 3.854 1.032 8.307 4.921 11.726 3.609 3.143 8.175 4.336 13.609 4.336 2.54 0 5.555-.281 7.142-.917.545-.14.952-.594 1.032-1.15a37.87 37.87 0 0 0 .873-5.301 1.535 1.535 0 0 0 0-.281 39.823 39.823 0 0 1-.883 4.898 1.399 1.399 0 0 1-1.027 1.166z" fill="url(#aA)" transform="translate(0 7)"/><path d="M105.603 105.869c-2.116.26-2.672.323-2.645.53.026.207.582-.212 2.645-.276 6.381-.201 11.498 5.831 11.64 14.53v-.34c-.01-8.915-5.18-15.234-11.64-14.444z" fill="url(#aB)" transform="translate(0 7)"/><path d="M106.35 135.373c-11.202-.249-15.837-8.518-15.985-15.489v.334c0 7.034 4.609 15.818 15.99 15.585 2.259-.048 3.656-.228 3.38-.398-.275-.17-1.227.016-3.386-.032z" fill="url(#aC)" transform="translate(0 7)"/><path d="M134.65 106.388a8.545 8.545 0 0 0-2.116.16c-.28.079-.36.238-.36.556v.668c0-.318.08-.477.36-.557a8.825 8.825 0 0 1 2.117-.159c2.307 0 5.957 1.59 6.063 7.045v-.44c.027-5.645-3.72-7.273-6.063-7.273z" fill="url(#aD)" transform="translate(0 7)"/><path d="M123.503 105.545c0 .281.238.36.672.36a8.3 8.3 0 0 1 1.55.117c1.307.281 1.624.918 1.704 2.27.079 1.23.079 2.316.079 7.876v-.122c0-6.043 0-7.156-.08-8.428-.079-1.352-.396-1.988-1.703-2.263a8.15 8.15 0 0 0-1.55-.122 1.97 1.97 0 0 1-.265 0c-.275.026-.407.122-.407.312z" fill="url(#aE)" transform="translate(0 7)"/><path d="M145.407 112.346v-.286c-.105 2.794-1.396 5.402-5.227 8.519l.317.403c3.741-3.139 4.91-5.778 4.91-8.636z" fill="url(#aF)" transform="translate(0 7)"/><path d="M150.265 134.573c-2.223 0-3.212-.196-4.233-.753-1.71-.917-3.217-2.783-5.44-5.83-1.587-2.185-3.412-4.888-3.925-5.487a.83.83 0 0 0-.715-.276l-3.455-.08c-.195 0-.317.08-.317.319v.668c0-.239.122-.318.317-.318l3.455.08a.835.835 0 0 1 .715.28c.529.594 2.338 3.297 3.926 5.486 2.222 3.06 3.73 4.93 5.439 5.831 1.058.53 2.02.758 4.233.758h3.772c.476 0 .751-.08.751-.397 0-.17-.121-.281-.354-.308a2.144 2.144 0 0 1-.397.032l-3.772-.005z" fill="url(#aG)" transform="translate(0 7)"/><path fill="url(#aH)" d="M183.265 109.722l.38 17.18h.016l-.396-17.853" transform="translate(0 7)"/><path d="M189.815 105.545c0-.206-.175-.296-.44-.334a1.49 1.49 0 0 1-.274 0 4.215 4.215 0 0 0-1.19.122" fill="url(#aI)" transform="translate(0 7)"/><path d="M186 133.82c0 .875-.153 1.23-.53 1.23-.375 0-.91-.435-1.348-.875-2.503-2.385-7.577-7.59-11.71-11.688-4.306-4.278-8.708-9.144-9.449-9.897h-.116v.668h.116c.72.758 5.122 5.608 9.444 9.902 4.133 4.092 9.207 9.303 11.71 11.662.439.435.915.875 1.349.875.433 0 .529-.36.529-1.235" fill="url(#aJ)" transform="translate(0 7)"/></g></svg>