<svg width="200" height="200" xmlns="http://www.w3.org/2000/svg"><g fill="none" fill-rule="evenodd"><path d="M138.857 181.597c-26.651-4.816-53.575-4.816-80.226 0l-.172-39.087c4.29-.814 8.611-1.484 12.943-2.031l-.253-85.12a214.314 214.314 0 0 0-13.063 2.05l-.17-39.087c27.126-4.902 54.53-4.902 81.657 0l-.172 39.087a214.328 214.328 0 0 0-12.96-2.036l-.254 85.119c4.3.537 8.584 1.218 12.841 2.018l-.17 39.087z" stroke="#008350" stroke-width="24.183"/><path d="M59.767 180.05c25.918-4.54 52.036-4.54 77.954 0l.155-36.417a212.19 212.19 0 0 0-12.847-1.949l.25-87.792c4.342.52 8.67 1.183 12.97 1.967l.156-36.417c-26.373-4.62-52.95-4.62-79.322 0l.155 36.417c4.334-.797 8.697-1.45 13.072-1.979l.25 87.792a212.51 212.51 0 0 0-12.948 1.961l.155 36.417zm80.225 3.1c-27.385-5.1-55.11-5.1-82.496 0l-.188-41.757c4.287-.837 8.605-1.53 12.936-2.1l-.256-82.447a213.87 213.87 0 0 0-13.052 2.119l-.188-41.757c27.882-5.193 56.11-5.193 83.992 0l-.188 41.757c-4.294-.83-8.614-1.54-12.95-2.106l-.257 82.446a211.56 211.56 0 0 1 12.835 2.088l-.188 41.757z" stroke="#008350" stroke-width="24.183"/><path d="M138.857 181.597c-26.651-4.816-53.575-4.816-80.226 0l-.172-39.087c4.29-.814 8.611-1.484 12.943-2.031l-.253-85.12a214.314 214.314 0 0 0-13.063 2.05l-.17-39.087c27.126-4.902 54.53-4.902 81.657 0l-.172 39.087a214.328 214.328 0 0 0-12.96-2.036l-.254 85.119c4.3.537 8.584 1.218 12.841 2.018l-.17 39.087z" stroke="#FFF" stroke-width="10.94"/><path d="M59.767 180.05c25.918-4.54 52.036-4.54 77.954 0l.155-36.417a212.19 212.19 0 0 0-12.847-1.949l.25-87.792c4.342.52 8.67 1.183 12.97 1.967l.156-36.417c-26.373-4.62-52.95-4.62-79.322 0l.155 36.417c4.334-.797 8.697-1.45 13.072-1.979l.25 87.792a212.51 212.51 0 0 0-12.948 1.961l.155 36.417zm80.225 3.1c-27.385-5.1-55.11-5.1-82.496 0l-.188-41.757c4.287-.837 8.605-1.53 12.936-2.1l-.256-82.447a213.87 213.87 0 0 0-13.052 2.119l-.188-41.757c27.882-5.193 56.11-5.193 83.992 0l-.188 41.757c-4.294-.83-8.614-1.54-12.95-2.106l-.257 82.446a211.56 211.56 0 0 1 12.835 2.088l-.188 41.757z" stroke="#FFF" stroke-width="10.94"/><path d="M138.857 181.597c-26.651-4.816-53.575-4.816-80.226 0l-.172-39.087c4.29-.814 8.611-1.484 12.943-2.031l-.253-85.12a214.314 214.314 0 0 0-13.063 2.05l-.17-39.087c27.126-4.902 54.53-4.902 81.657 0l-.172 39.087a214.328 214.328 0 0 0-12.96-2.036l-.254 85.119c4.3.537 8.584 1.218 12.841 2.018l-.17 39.087" fill="#1478C7" fill-rule="nonzero"/><path d="M59.767 180.05c25.918-4.54 52.036-4.54 77.954 0l.155-36.417a212.19 212.19 0 0 0-12.847-1.949l.25-87.792c4.342.52 8.67 1.183 12.97 1.967l.156-36.417c-26.373-4.62-52.95-4.62-79.322 0l.155 36.417c4.334-.797 8.697-1.45 13.072-1.979l.25 87.792a212.51 212.51 0 0 0-12.948 1.961l.155 36.417zm80.225 3.1c-27.385-5.1-55.11-5.1-82.496 0l-.188-41.757c4.287-.837 8.605-1.53 12.936-2.1l-.256-82.447a213.87 213.87 0 0 0-13.052 2.119l-.188-41.757c27.882-5.193 56.11-5.193 83.992 0l-.188 41.757c-4.294-.83-8.614-1.54-12.95-2.106l-.257 82.446a211.56 211.56 0 0 1 12.835 2.088l-.188 41.757z" fill="#FFF" fill-rule="nonzero"/><path d="M138.857 181.597c-26.651-4.816-53.575-4.816-80.226 0l-.172-39.087c4.29-.814 8.611-1.484 12.943-2.031l-.253-85.12a214.314 214.314 0 0 0-13.063 2.05l-.17-39.087c27.126-4.902 54.53-4.902 81.657 0l-.172 39.087a214.328 214.328 0 0 0-12.96-2.036l-.254 85.119c4.3.537 8.584 1.218 12.841 2.018l-.17 39.087" fill="#1478C7" fill-rule="nonzero"/><path d="M59.767 180.05c25.918-4.54 52.036-4.54 77.954 0l.155-36.417a212.19 212.19 0 0 0-12.847-1.949l.25-87.792c4.342.52 8.67 1.183 12.97 1.967l.156-36.417c-26.373-4.62-52.95-4.62-79.322 0l.155 36.417c4.334-.797 8.697-1.45 13.072-1.979l.25 87.792a212.51 212.51 0 0 0-12.948 1.961l.155 36.417zm80.225 3.1c-27.385-5.1-55.11-5.1-82.496 0l-.188-41.757c4.287-.837 8.605-1.53 12.936-2.1l-.256-82.447a213.87 213.87 0 0 0-13.052 2.119l-.188-41.757c27.882-5.193 56.11-5.193 83.992 0l-.188 41.757c-4.294-.83-8.614-1.54-12.95-2.106l-.257 82.446a211.56 211.56 0 0 1 12.835 2.088l-.188 41.757z" fill="#1478C7" fill-rule="nonzero"/><path d="M52.62 98.745c.329-19.804 20.958-33.369 46.384-33.077 27.068.314 46.392 15.046 45.465 33.62-.902 18.102-21.183 32.451-46.61 32.006-25.426-.446-45.54-14.425-45.238-32.549" fill="#07294A" fill-rule="nonzero"/><path d="M113.256 84.478c-1.918.784-2.67 1.01-4.709 3.555-5.123 6.394-3.553 16.887 11.08 19.473 13.36 2.362 20.138-4.735 20.128-4.676-2.598 14.06-21.994 26.413-45.553 24.152-20.466-1.964-35.654-13.58-36.78-25.956-1.338-17.874 15.744-27.199 29.54-29.798 33.243-5.796 57.737 14.184 45.684 25.069.825-2.123.598-4.263-.334-5.58-.227 1.615-.981 6.052-7.133 6.769 1.11-1.82 2.67-4.499 1.55-6.83-1.648 4.709-7.013 6.852-12.756 5.582 4.017-1.905 6.016-4.423 6.176-6.97-2.643 4.768-7.949 4.612-11.23 3.624 3.502-2.932 4.443-6.126 4.337-8.414" fill="#FFF" fill-rule="nonzero"/><path d="M113.032 83.261c-2.846.913-4.277 2.182-6.18 4.664-4.83 6.303-3.137 17.672 11.047 20.657 13.652 2.87 19.877-2.793 19.854-2.74-4.681 10.868-21.583 21.598-43.51 19.433-18.815-1.857-33.916-12.29-35.152-24.18-1.217-16.957 14.83-25.05 22.344-26.1 17.09-3.655 29.796 1.427 31.597 8.266" fill="#008350" fill-rule="nonzero"/><path d="M134.086 92.239c.107-1.478-1.044-3.922-2.74-4.95.106 2.744-.538 7.103-3.86 8.281 1.624-2.67 1.473-4.863-1.382-8.427-.504 5.463-4.1 7.657-8.586 8.212 3.121-1.143 5.338-6.166 3.165-9.897-2.195 6.278-7.068 6.778-8.846 6.79 9.977-12.032-6.611-23.193-28.554-18.705 25.02-7.217 53.811 5.596 50.803 18.696" fill="#FFF" fill-rule="nonzero"/><path d="M87.468 95.793c-.536 3.294 1.129 12.035 8.511 14.057-.085-.053-2.684-2.346-2.523-7.702l-1.634 2.407c-1.568-4.455-1.411-9.66.05-13.064-.12.144-1.905 1.51-1.979 1.494.73-5.672 2.854-8.193 6.21-9.69-2.675 2.249-3.021 3.315-3.606 5.524.028.028 2.705-1.91 2.705-1.91-1.76 3.63-1.152 7.278-.146 10.428l1.44-2.374c-.575 3.534 1.558 10.849 7.885 12.921-1.012-1.192-2.94-2.647-2.996-6.196l-.832 1.72c-1.313-3.83-1.732-8.63-.22-11.973 0 0-1.955 1.404-1.96 1.365.182-4.567 2.978-7.683 5.294-8.31-1.49.808-2.692 2.837-3.293 4.786-.01.064 2.236-1.457 2.236-1.457-1.204 3.499-.512 7.604.031 10.044l1.587-2.657c.318 4.118 2.437 8.987 8.657 11.552 6.644 2.739 15.907 4.21 24.752-.65 0 0-1.409 2.705 0 0-12.334 23.7-54.674 26.176-74.043 5.17-4.082-4.425-3.04-10.938-2.1-12.972-.145.11-1.965 1.958-2.042 1.943-.167-7.455 3.648-14.775 8.75-18.453-1.51 2.422-4.916 5.148-5.827 12.107.074-.056 3.067-3.178 3.067-3.178-2.169 4.496-1.503 9.012-.311 12.49l1.792-2.505c.218 9.7 7.805 13.959 10.716 14.697-1.297-1.495-4.735-7.022-4.118-10.815l-1.645 2.853c-1.346-3.869-1.672-8.447-.569-12.286-.073.056-2.291 2.457-2.308 2.431.394-7.235 3.819-12.744 8.592-15.456-2.051 2.035-4.386 4.172-5.293 9.227.05.006 3.15-2.836 3.15-2.836-1.961 4.643-1.613 8.172-.496 11.477l2.011-3.128c-.83 5.92 2.26 12.163 9.581 15.556 0 0-3.643-3.238-3.06-9.259l-1.333 2.553c-1.257-4.342-1.214-8.685.018-12.316-.14.153-2.078 1.81-2.08 1.74.45-7.416 3.8-11.211 7.431-12.799-3.087 2.387-3.982 4.1-4.599 7.556.016.003 3.004-2.727 3.004-2.727-1.987 5.757-1.079 8.946-.149 11.33l1.692-2.715" fill="#07294A" fill-rule="nonzero"/></g></svg>