<svg width="200" height="200" fill="none" xmlns="http://www.w3.org/2000/svg"><path d="m0 59.4.2-10.8 1.2-.5.2-11.2-1.2.4.2-10.8 1.3-.5c3.1-1.3 4.7-1.9 7.8-3l2.8-1-.6 32.7-1.3.5c-3.1 1.1-4.6 1.7-7.7 3L0 59.4Zm4.2-8v1.9c1.2-.5 2.3-.9 3.7-1.4l.4-24c-1.2.5-2.3.9-3.6 1.4v1.9l1.2-.5-.5 20.2-1.2.5ZM12.8 54l.2-11.6 1.4-.5c2.5-.9 3.8-1.3 6.3-2.1l1-.3c-3.1-.3-8.4-1-8.1-7.6.3-7.2 4.6-12.2 12.4-14.4 2.1-.6 4.2-1.1 6.2-1.4l2.4-.4-.3 11.2-1.5.4c-2.3.6-3.4.9-5.7 1.6l-.3.1c3.2.4 8.4 1.4 8.2 7.8-.3 9.7-7.5 13-12.9 14.6-2.2.7-4.3 1.2-6.3 1.8l-3 .8Zm4.3-8.6-.1 3.3c1.3-.4 2.6-.7 3.9-1.1 6.8-2.1 9.8-5.3 10-10.8.1-2.6-1.1-3.1-5-3.6-2.4-.3-5.1-.7-5.8-3.2-.7-2.3 1.3-4.7 4.7-5.7.3-.1.6-.1.8-.2.1 0 .3-.1.4-.1l2.7-.8v1.2c.5-.1 1-.3 1.6-.4v-3.1c-1.1.2-2.2.5-3.3.8-6.1 1.7-9.2 5.2-9.4 10.7-.1 2.5.9 3 4.8 3.3 2.3.2 5.2.5 5.9 3.2.3 1 .7 4.4-4.1 5.9-.4.1-.8.2-1.1.3-.4.1-.7.2-1.1.3l-2.7.9v-1.5c-.8.1-1.5.3-2.2.6Zm6.2-5.6v.8c.7-.3.9-.5.9-.6-.2-.1-.5-.2-.9-.2ZM35.9 47.4l.3-22-1.3.3.1-10.5 1.5-.4c3.2-.8 4.9-1.2 8.2-1.9l2.5-.5-.2 20.9.3-.1c2.6-.5 3.9-.8 6.5-1.3l2.4-.4-.1 11.5-1.7.3c-5.4 1-10.8 2.1-16 3.4l-2.5.7Zm4.4-27.2-.3 22c4-.9 8-1.8 12.1-2.5v-3.2c-.8.1-1.5.3-2.4.5v1l-1.6.3c-1.1.2-1.7.3-2.8.6l-2.5.5.2-22c-1.4.3-2.5.6-4 .9v2.1l1.3-.2Z" fill="#008752"/><path d="m54.7 43.3.1-7 7.5-26.6 1.3-.2c3-.4 4.6-.6 7.6-1l1.7-.2.5 1.6c2.7 9.2 5.4 18.3 8.1 27.5l.7 2.4-2.5.2c-2.9.2-4.3.4-7.2.7l-1.8.2-1.4-5.8c-.9.1-1.7.2-2.5.3v5.9l-1.8.2c-3.2.4-4.8.7-8 1.2l-2.3.6Zm4.1-6.2v1.3c1.4-.2 2.5-.4 3.9-.6v-.6l-1.9.3L62 32l1.4-.2c2.9-.4 4.3-.6 7.2-.9l1.8-.2 1.4 5.8c1.1-.1 2-.2 3-.3l-6.9-23.4c-1.6.2-2.8.3-4.5.6l-6.6 23.7Zm3.7-6.4 3.1-12.2 4 .1 2.5 10.9-2.3.3c-1.7.2-2.6.3-4.3.5l-3 .4Z" fill="#008752"/><path d="m81.2 40 .1-32.3 1.9-.1c2.7-.2 4.1-.2 6.9-.4l1.3-.1.6 1.2c.7 1.4 1.4 2.9 2.1 4.3V7h11.6v32.3H95.6l-.6-1.1c-1.2-2.3-2.4-4.7-3.6-7v8.3l-2 .1c-2.5.1-3.8.2-6.3.3l-1.9.1Zm4.1-28.5-.1 24.1c.8 0 1.5-.1 2.2-.1V22.7l3.9-.9c2.3 4.5 4.6 9 6.9 13.4h3.4V11.1h-3.4v2.1h1.3V24l-3.9.9c-2.2-4.5-4.5-9.1-6.7-13.6-1.3.1-2.3.1-3.6.2ZM122 40.2c-.7 0-1.4 0-2.1-.1-3.9-.3-5.9-.4-9.9-.6l-2-.1V17.5h-1.3V7.1l2.1.1c4 .1 6.1.2 10.1.5 11.8.8 12.8 8.1 12.9 16.9 0 4.9 0 10.5-3.4 13.6-1.6 1.3-3.7 2-6.4 2Zm-9.9-4.7c2.9.1 4.9.2 8.2.5 2.6.3 4.3 0 5.4-1 2-1.8 2-6.4 2-10.5 0-9.3-1.3-12.3-9.1-12.8-3.2-.2-5.1-.3-7.8-.4v2.2h1.3v22Zm7.9-1.6h-.9l-4.1-.3-.1-20.2 2.2.1c.9.1 1.3.1 2.2.2 5.5.4 5.5 3.7 5.6 10.1 0 5.2 0 7.5-1.6 9-.9.9-2.1 1.1-3.3 1.1Zm-.9-4.1h.3c.9.1 1.2 0 1.2 0 .2-.4.2-3.1.2-5.9 0-2.4 0-5.3-.4-5.8 0 0-.2-.2-1.4-.2l.1 11.9ZM155.1 45.1l-2.5-.4c-5.9-1.2-11.8-2.2-17.7-3l-1.7-.3-.2-21.9-1.1-.1V8.9l2.3.3c6.1.9 12.3 1.9 18.4 3.1l1.6.3.1 10.5-.9-.2.1 10.5 1.5.3.1 11.4Zm-17.8-7.2c4.6.7 9.2 1.5 13.7 2.3v-3.1c-1-.2-1.8-.4-2.7-.5v1l-2.4-.4c-1.6-.3-2.4-.4-4-.7l-1.7-.3-.1-9.2 2.4.4c2.8.5 4.7.8 7 1.2v-2.4c-2.7-.5-4.5-.9-7.7-1.4l-1.7-.3-.1-8.3 2.4.4c3.2.5 5.2.9 7.9 1.4v-2.1c-4.7-.9-9.5-1.7-14.2-2.4v2.1l1.1.2.1 22.1ZM179.2 51.6l-2.7-.8c-3.2-1-4.8-1.4-8-2.3l-3.7-1c-2.7-.7-4.1-1-6.8-1.7l-1.6-.4-.3-22-1.2-.3-.1-10.5 2.5.6c3.5.8 5.3 1.2 8.8 2.1 5.3 1.3 12.4 4 12.4 13.4 0 3.3-1.2 5.6-2.4 6.9.3.8.6 1.8 1 2.7.6 1.8 1.4 3.8 1.9 5.4l.1.3.1 7.6Zm-8.2-6.7c1.5.4 2.7.7 4 1.1v-1.3c-.5-1.5-1.2-3.4-1.8-5-1.6-4.4-1.6-4.4-1.5-5l.1-1.1.9-.5s1.7-1.1 1.7-4.4c0-5.1-2.7-7.8-9.3-9.4-2.5-.7-4.1-1.1-6.2-1.5v2.1l1.2.3.3 22c1 .2 1.8.4 2.8.7l-.1-10 4.3 1.1c2.8.8 3.1 2 3.8 4.8.2.7.4 1.5.6 2.6l.9 3.4-1.7-.5v.6Zm-2.5-12.5c-.7 0-1.5-.2-2.2-.4l-3.2-.8-.1-10.4 4 1c3 .8 4.8 1.5 4.8 5.7 0 1.7-.1 3.3-1.4 4.3-.6.5-1.3.6-1.9.6Zm-1.4-4.4h.2c.1 0 .3.1.4.1v-.6c0-1-.1-1.3-.1-1.3-.1 0-.2-.1-.4-.1l-.1 1.9Z" fill="#008752"/><path d="M193 55.6c-1.9 0-4.1-.5-6.7-1.4-2.2-.8-4.5-1.7-6.7-2.6l-1.3-.5-.2-11.6 2.7.9c2.4.8 3.7 1.2 6 2l-1.5-1.2c-3-2.3-6.7-5.1-7.1-10.4-.2-3.5.7-6 2.7-7.4 2.4-1.8 6.1-1.8 10.6 0 2.3.9 4.3 1.8 6 2.6l1.1.6.2 11.5-2.9-1.1c-2.1-.8-3.2-1.3-5.2-2 .6.6 1.3 1.1 2.1 1.7 2.9 2.2 6.6 5 7 10.3.3 3.5-.6 6-2.5 7.5-1 .7-2.5 1.1-4.3 1.1Zm-10.6-7.3c1.8.7 3.5 1.4 5.3 2 4.8 1.8 6.6 1.2 7.2.7.9-.7 1-2.5.9-3.9-.3-3.5-2.8-5.3-5.4-7.3-2.6-1.9-5.2-3.9-5.7-7.4-.2-1.7.6-2.7 1.1-3.1 1.1-.9 2.7-.9 4.9-.2.3.1.5.2.8.3.1.1.3.1.4.2l1.3.5v1.2l1.5.6-.1-2.8c-1.3-.6-2.9-1.3-4.6-1.9-3-1.2-5.5-1.4-6.7-.5-1 .8-1.1 2.5-1.1 3.9.2 3.4 2.8 5.3 5.5 7.4 2.4 1.8 4.9 3.7 5.5 6.8.3 1.6 0 2.9-.9 3.7-1.5 1.3-3.7.5-4.4.3-.4-.1-.8-.3-1.1-.4-.4-.1-.7-.3-1.1-.4l-1.3-.5V46c-.8-.3-1.4-.5-2.1-.7l.1 3Zm6.1-3.9c.2.1.3.1.5.2-.1-.2-.3-.5-.5-.7v.5Z" fill="#008752"/><path d="m1.4 57.2.1-7.6 1.2-.5.3-14.4-1.2.5.1-7.6.5-.2c3.1-1.3 4.6-1.8 7.8-3l.8-.3-.5 29.6-.4.2c-3.1 1.2-4.7 1.7-7.8 3l-.9.3Zm1.4-6.8-.1 5c2.5-1 4-1.6 6.6-2.5l.5-27c-2.5.9-3.9 1.5-6.5 2.5l-.1 5 1.1-.5-.3 17-1.2.5ZM14.3 52.1l.1-8.7.4-.1c2.5-.9 3.7-1.3 6.2-2.1l.8-.3v1.5c.1 0 .2-.1.4-.1.3-.1.7-.2 1.1-.3 2.8-.9 2.5-2.2 2.3-2.7-.2-.9-1.8-1-3.6-1.2-3.1-.3-7.4-.7-7.2-6.1.3-6.5 4.2-11.1 11.3-13.1 2.1-.6 4.1-1.1 6-1.4l.7-.1-.1 8.3-.3.2c-2.3.6-3.4.9-5.7 1.6l-.8.2v-1.3c-.1 0-.3.1-.4.1-1.8.5-3.1 1.6-2.9 2.4.3.9 1.9 1.1 3.6 1.3 3.2.4 7.5 1 7.4 6.4-.2 6.8-3.9 10.9-11.8 13.3l-6.3 1.8-1.2.4Zm1.3-7.8-.1 6.2c1.9-.5 3.8-1.1 5.8-1.7 7.4-2.2 10.8-6 11-12.2.2-4.3-3.1-4.7-6.3-5.1-2.1-.3-4.2-.6-4.6-2.2-.5-1.8 1.6-3.3 3.7-4 .2-.1.5-.1.7-.2.2 0 .4-.1.5-.1l.8-.2V26c1.7-.5 2.7-.8 4.5-1.3l.1-5.9c-1.7.3-3.4.7-5.2 1.2-6.7 1.9-10.2 5.9-10.5 12-.2 3.9 2.3 4.5 6.1 4.8 2.2.2 4.2.4 4.6 2.1.3 1.3.1 3.1-3.2 4.1-.4.1-.7.2-1.1.3-.4.1-.8.2-1.1.3l-.8.3v-1.5c-1.7.9-2.9 1.3-4.9 1.9ZM37.3 45.5l.3-22-1.3.4.1-7.6.5-.1c3.3-.8 4.9-1.2 8.1-1.9l.8-.2-.2 22c.6-.1 1-.2 1.6-.3v-1l.5-.1c2.6-.5 3.9-.8 6.5-1.2l.7-.1-.1 8.6-.6-.1c-5.4 1-10.8 2.1-16.1 3.4l-.8.2ZM38.8 22l-.3 22c4.9-1.2 10-2.2 14.9-3.1l.1-6.1c-2 .4-3.2.6-5.3 1v1l-.4.1c-1.1.2-1.7.3-2.8.6l-.8.2.2-22c-2.6.6-4.2.9-6.9 1.6l-.1 5 1.4-.3ZM56.1 41.6l.1-4.9L63.4 11l.4-.1c3-.4 4.5-.6 7.6-1l.5-.1.1.5c2.7 9.2 5.4 18.3 8.1 27.5l.2.7-.8.1c-2.9.2-4.3.4-7.2.7l-.5.1-1.4-5.8c-2 .2-3.2.4-5 .6v6l-.5.1c-3.2.4-4.8.7-8 1.2l-.8.1Zm1.3-4.7v3.2c2.6-.4 4.2-.7 6.8-1v-3.5l-1.5.2.6-2.5.4-.1c2.9-.4 4.3-.6 7.2-.9l.5-.1 1.4 5.8c2.3-.2 3.7-.4 5.9-.6-2.6-8.7-5.1-17.5-7.7-26.2-2.6.3-4 .5-6.6.8l-7 24.9Zm7-7.9L67 18.9h1.2l2.1 9.4-.7.1c-1.7.2-2.6.3-4.3.5l-.9.1Zm3.1-7.3L66 27.6c1-.1 1.7-.2 2.8-.3l-1.3-5.6ZM82.6 38.5 82.7 9h.6c2.7-.2 4.1-.2 6.8-.4h.4l.2.3c2.1 4.1 4.1 8.3 6.1 12.4v-5.5h-1.3V8.4H104.3v29.5h-7.7l-.2-.3-6.3-12.3v12.8h-.6c-2.5.1-3.8.2-6.3.3l-.6.1Zm1.3-28.4-.1 27c1.9-.1 3.1-.2 5.1-.3V22.6l1.2-.3c2.4 4.7 4.8 9.5 7.3 14.2h5.7v-27h-6.3v5h1.3v9.4l-1.2.3c-2.4-4.8-4.7-9.6-7.1-14.4-2.3.1-3.7.2-5.9.3ZM122 38.8c-.6 0-1.3 0-2-.1-4-.3-6-.4-10-.6h-.6V16.2h-1.3V8.7h.6c4 .1 6 .2 10 .5 10.7.7 11.5 6.8 11.5 15.4 0 4.9 0 9.9-2.9 12.5-1.2 1.1-3 1.7-5.3 1.7Zm-11.3-1.9c3.7.1 5.6.3 9.5.6 3 .3 5.1-.1 6.4-1.3 2.5-2.2 2.5-7 2.5-11.6 0-9.5-1.5-13.6-10.4-14.2-3.8-.3-5.8-.4-9.4-.5V15h1.3l.1 21.9Zm9.3-4.4h-.8c-.9-.1-1.3-.1-2.2-.2h-.6V14.9h.7c.9.1 1.3.1 2.2.2 4.2.3 4.2 2.3 4.3 8.7 0 4.7 0 6.9-1.1 8-.8.6-1.6.7-2.5.7Zm-2.3-1.4c.5 0 1 .1 1.6.1 1.2.1 1.9 0 2.2-.4.8-.7.8-3 .7-7.1 0-6.8-.2-7.3-3.1-7.5-.6 0-1-.1-1.5-.1l.1 15ZM153.7 43.3l-.7-.1c-5.9-1.2-11.9-2.2-17.8-3l-.5-.1-.2-21.9-1.1-.1-.1-7.5.7.1c6.1.9 12.3 1.9 18.3 3.1l.5.1.1 7.6-.7-.2c-3.9-.8-5.9-1.2-9.5-1.8v2.9c3.4.6 5.3.9 8.9 1.6l.5.1.1 7.8-.7-.1c-3.5-.7-5.3-1-8.6-1.6V34c1.1.2 1.8.3 2.8.5v-1l.7.1c2.7.5 4.1.8 6.8 1.3l.5.1v8.3Zm-17.9-4.2c5.6.8 11.2 1.8 16.7 2.8l-.1-6c-2.2-.4-3.5-.7-5.6-1.1v1l-.7-.1c-1.6-.3-2.4-.4-4-.7l-.5-.1-.1-6.3.7.1c3.5.6 5.4.9 8.7 1.6l-.1-5.3c-3.4-.7-5.3-1-8.9-1.6l-.5-.1v-5.4l.7.1c3.9.6 5.9 1 9.6 1.7l-.1-5c-5.6-1.1-11.4-2.1-17.1-2.9v5.1l1.1.2.2 22ZM177.7 49.7l-.8-.2c-3.2-1-4.8-1.5-8.1-2.3l-.4-.1-.1-6.2.7.2c-.2-.6-.3-1.2-.4-1.6-.6-2.5-.6-2.5-1.9-2.8l-1-.2.1 10-.8-.2c-2.7-.7-4.1-1-6.8-1.7l-.5-.1-.3-22-1.2-.3-.1-7.6.8.2c3.5.8 5.2 1.2 8.7 2.1 5.3 1.3 11.3 3.7 11.3 12 0 3.9-1.8 5.8-2.6 6.5.2.7.8 2.2 1.3 3.6.6 1.8 1.4 3.8 1.9 5.4v.2l.2 5.1Zm-8.1-3.7c2.7.7 4.3 1.2 6.9 2l-.1-3.5c-.5-1.6-1.3-3.5-1.9-5.2-1.5-4.1-1.5-4.1-1.5-4.3v-.3l.3-.2c.1-.1 2.4-1.5 2.4-5.7 0-5.8-3.1-9.1-10.4-10.8-3.2-.8-4.9-1.3-7.9-1.9l.1 5 1.2.3.3 22c2.2.5 3.5.8 5.6 1.4l-.1-10 2.5.7c2 .5 2.1 1.1 2.8 3.7.2.7.4 1.5.6 2.6l.3 1-1.1-.3V46Zm-1.2-15c-.5 0-1.1-.2-1.8-.4l-2.1-.6-.1-7.5 2.2.6c2.8.7 3.7 1.1 3.8 4.3 0 1.8-.2 2.7-.8 3.2-.4.3-.8.4-1.2.4Zm-2.7-1.9 1.2.3c.9.2 1.6.4 1.9.2.1-.1.4-.5.3-2.2 0-2.4-.4-2.5-2.9-3.1l-.6-.2.1 5ZM193 54.2c-1.7 0-3.7-.5-6.2-1.4-2.2-.8-4.4-1.7-6.6-2.5l-.4-.2-.1-8.7.8.3c2.5.8 3.7 1.2 6.2 2.1l.4.1v1.5c.2.1.5.2.7.3.3.1.7.3 1.1.4 1.4.5 1.7.3 1.8.2.1-.1.2-.4.1-1.1-.4-2.1-2.3-3.5-4.5-5.1-2.9-2.2-6.2-4.7-6.5-9.3-.2-2.9.5-5 2.1-6.2 2-1.4 5.3-1.4 9.2.2 2.3.9 4.2 1.7 5.9 2.6l.3.2.2 8.5-.9-.3c-2.2-.9-3.3-1.3-5.6-2.2l-.4-.1v-1.2c-.1 0-.2-.1-.2-.1l-.6-.3c-1.3-.5-2.1-.5-2.3-.3-.2.1-.1.5-.1.6.3 2.4 2.3 3.9 4.7 5.7 2.8 2.1 6.1 4.6 6.4 9.2.2 3-.4 5.1-2 6.2-.9.5-2 .9-3.5.9Zm-12-4.9c2.1.8 4.2 1.6 6.2 2.4 4.1 1.5 7 1.7 8.6.5 1.2-.9 1.7-2.6 1.5-5.2-.3-4.1-3.2-6.3-5.9-8.4-2.4-1.8-4.7-3.6-5.1-6.5-.1-1 .2-1.5.5-1.8.7-.5 1.8-.5 3.5.1.2.1.5.2.7.3.2.1.4.2.5.2l.4.1v1.2c1.7.6 2.8 1 4.3 1.7l-.1-5.9c-1.6-.8-3.4-1.6-5.5-2.4-3.6-1.4-6.4-1.5-8.1-.3-1.3.9-1.8 2.6-1.6 5.1.3 4.1 3.2 6.3 6 8.4 2.3 1.7 4.5 3.4 5 5.9.1.4.3 1.6-.5 2.3-.8.7-2.1.3-3 0-.4-.1-.7-.3-1.1-.4-.4-.1-.8-.3-1.1-.4l-.4-.1v-1.5c-1.9-.7-3.1-1.1-5-1.7l.2 6.4Z" fill="#fff"/><path d="M2.6 28c3.1-1.2 4.6-1.8 7.8-3-.2 9.4-.4 18.9-.5 28.3-3.1 1.2-4.7 1.8-7.8 3 0-2.5.1-3.8.1-6.3.5-.2.7-.3 1.2-.5l.3-15.7c-.5.2-.7.3-1.2.5.1-2.6.1-3.8.1-6.3ZM14.9 51.3c.1-3 .1-4.5.1-7.4 2.5-.9 3.7-1.3 6.2-2.1v1.5c.7-.2 1.4-.4 2.2-.7 2.4-.7 3.1-1.9 2.7-3.4-.9-3.3-11.1.8-10.7-7.1.3-6.8 4.5-10.7 10.9-12.5 2-.6 4-1 6-1.4 0 2.9-.1 4.3-.1 7.1-2.3.6-3.4.9-5.7 1.6v-1.2l-1.2.3c-1.9.6-3.7 1.9-3.3 3.2.9 3.3 11.2-.4 10.9 7.5-.3 7.3-4.8 10.7-11.4 12.7-2.2.7-4.4 1.3-6.6 1.9ZM36.9 23.1c0-2.5 0-3.8.1-6.3 3.2-.8 4.8-1.2 8.1-1.9-.1 7.3-.2 14.6-.2 22 1.1-.2 1.7-.4 2.8-.6v-1c2.6-.5 3.9-.8 6.5-1.2 0 2.9 0 4.4-.1 7.3-5.4 1-10.8 2.1-16.2 3.4l.3-22c-.5.1-.8.2-1.3.3ZM56.8 40.9v-4c2.4-8.4 4.7-16.9 7.1-25.3 3-.4 4.5-.6 7.6-.9 2.7 9.2 5.4 18.3 8.1 27.5-2.9.2-4.3.4-7.2.7-.6-2.3-.9-3.5-1.4-5.8-2.9.3-4.3.5-7.1.9-.1.5-.2.7-.3 1.2.5-.1.8-.1 1.4-.2v4.8c-3.4.3-5 .5-8.2 1.1Zm10.8-21.8c-.9 3.7-1.4 5.5-2.3 9.2 1.7-.2 2.6-.3 4.3-.5-.9-3.5-1.3-5.2-2-8.7ZM83.2 37.8c0-9.4.1-18.8.1-28.2 2.7-.2 4.1-.2 6.8-.4 2.4 4.9 4.9 9.9 7.3 14.8v-8.7h-1.3V9.1h7.5v28.2h-6.7c-2.5-4.9-4.9-9.7-7.4-14.6v14.8c-2.5.1-3.8.1-6.3.3ZM108.7 15.5V9.2c4 .1 6 .2 10 .5 9.9.6 10.9 5.8 11 14.8 0 7.7-.1 14.6-9.6 13.5-4-.3-6-.4-10.1-.6V15.5h-1.3Zm10.5.2c-.9-.1-1.3-.1-2.2-.2 0 5.4 0 10.7.1 16.1.9.1 1.3.1 2.2.2 3.7.3 3.7-1.1 3.6-8 0-6.6-.1-7.8-3.7-8.1ZM134 17.5v-6.3c6.1.9 12.2 1.9 18.3 3.1 0 2.5 0 3.8.1 6.3-4.1-.8-6.2-1.2-10.3-1.9v4.1c3.8.6 5.6 1 9.4 1.7 0 2.6 0 3.9.1 6.5-3.7-.8-5.6-1.1-9.4-1.7v5c1.6.3 2.4.4 4 .7v-1c2.7.5 4.1.8 6.8 1.3 0 2.9 0 4.4.1 7.3-5.9-1.2-11.9-2.2-17.8-3.1-.1-7.3-.1-14.6-.2-22-.5.1-.7.1-1.1 0ZM156.9 15.3c3.5.8 5.2 1.2 8.7 2.1 6.2 1.5 10.9 4.3 10.8 11.4 0 4.6-2.7 6.2-2.7 6.2 0 .2 2.1 5.9 3.3 9.4 0 1.8 0 2.7.1 4.4-3.2-1-4.8-1.5-8.1-2.3 0-2 0-2.9-.1-4.9.4.1.5.1.9.2-1.4-5.2-.9-5.3-3-5.9-.7-.2-1-.3-1.7-.5.1 4 .1 6 .1 10-2.7-.7-4.1-1-6.9-1.7l-.3-22c-.5-.1-.7-.2-1.2-.3.1-2.3.1-3.6.1-6.1Zm9.5 8.5c-.6-.1-.8-.2-1.4-.4 0 2.5 0 3.7.1 6.2.7.2 1 .3 1.7.4 2.1.6 3 .8 3-2.5-.2-2.8-.9-3-3.4-3.7ZM180.4 49.7c0-3-.1-4.5-.1-7.4 2.5.8 3.7 1.2 6.2 2.1v1.5c.7.2 1.4.5 2.2.8 2.4.9 2.9.1 2.6-1.6-1-5.3-10.5-6.6-11-14.4-.5-7.3 5.1-7.6 10.5-5.4 1.9.7 3.9 1.6 5.8 2.6.1 2.9.1 4.3.1 7.2-2.2-.9-3.3-1.3-5.6-2.2v-1.2c-.4-.1-.8-.4-1.2-.5-1.9-.7-3.4-.7-3.2 1 .8 5.8 10.5 6.8 11.1 14.9.6 8.1-5.6 7.2-10.9 5.3-2.1-1-4.3-1.8-6.5-2.7Z" fill="#007AC1"/><path d="M2.6 28c3.1-1.2 4.6-1.8 7.8-3-.2 9.4-.4 18.9-.5 28.3-3.1 1.2-4.7 1.8-7.8 3 0-2.5.1-3.8.1-6.3.5-.2.7-.3 1.2-.5l.3-15.7c-.5.2-.7.3-1.2.5.1-2.6.1-3.8.1-6.3ZM14.9 51.3c.1-3 .1-4.5.1-7.4 2.5-.9 3.7-1.3 6.2-2.1v1.5c.7-.2 1.4-.4 2.2-.7 2.4-.7 3.1-1.9 2.7-3.4-.9-3.3-11.1.8-10.7-7.1.3-6.8 4.5-10.7 10.9-12.5 2-.6 4-1 6-1.4 0 2.9-.1 4.3-.1 7.1-2.3.6-3.4.9-5.7 1.6v-1.2l-1.2.3c-1.9.6-3.7 1.9-3.3 3.2.9 3.3 11.2-.4 10.9 7.5-.3 7.3-4.8 10.7-11.4 12.7-2.2.7-4.4 1.3-6.6 1.9ZM36.9 23.1c0-2.5 0-3.8.1-6.3 3.2-.8 4.8-1.2 8.1-1.9-.1 7.3-.2 14.6-.2 22 1.1-.2 1.7-.4 2.8-.6v-1c2.6-.5 3.9-.8 6.5-1.2 0 2.9 0 4.4-.1 7.3-5.4 1-10.8 2.1-16.2 3.4l.3-22c-.5.1-.8.2-1.3.3ZM56.8 40.9v-4c2.4-8.4 4.7-16.9 7.1-25.3 3-.4 4.5-.6 7.6-.9 2.7 9.2 5.4 18.3 8.1 27.5-2.9.2-4.3.4-7.2.7-.6-2.3-.9-3.5-1.4-5.8-2.9.3-4.3.5-7.1.9-.1.5-.2.7-.3 1.2.5-.1.8-.1 1.4-.2v4.8c-3.4.3-5 .5-8.2 1.1Zm10.8-21.8c-.9 3.7-1.4 5.5-2.3 9.2 1.7-.2 2.6-.3 4.3-.5-.9-3.5-1.3-5.2-2-8.7ZM83.2 37.8c0-9.4.1-18.8.1-28.2 2.7-.2 4.1-.2 6.8-.4 2.4 4.9 4.9 9.9 7.3 14.8v-8.7h-1.3V9.1h7.5v28.2h-6.7c-2.5-4.9-4.9-9.7-7.4-14.6v14.8c-2.5.1-3.8.1-6.3.3ZM108.7 15.5V9.2c4 .1 6 .2 10 .5 9.9.6 10.9 5.8 11 14.8 0 7.7-.1 14.6-9.6 13.5-4-.3-6-.4-10.1-.6V15.5h-1.3Zm10.5.2c-.9-.1-1.3-.1-2.2-.2 0 5.4 0 10.7.1 16.1.9.1 1.3.1 2.2.2 3.7.3 3.7-1.1 3.6-8 0-6.6-.1-7.8-3.7-8.1ZM134 17.5v-6.3c6.1.9 12.2 1.9 18.3 3.1 0 2.5 0 3.8.1 6.3-4.1-.8-6.2-1.2-10.3-1.9v4.1c3.8.6 5.6 1 9.4 1.7 0 2.6 0 3.9.1 6.5-3.7-.8-5.6-1.1-9.4-1.7v5c1.6.3 2.4.4 4 .7v-1c2.7.5 4.1.8 6.8 1.3 0 2.9 0 4.4.1 7.3-5.9-1.2-11.9-2.2-17.8-3.1-.1-7.3-.1-14.6-.2-22-.5.1-.7.1-1.1 0ZM156.9 15.3c3.5.8 5.2 1.2 8.7 2.1 6.2 1.5 10.9 4.3 10.8 11.4 0 4.6-2.7 6.2-2.7 6.2 0 .2 2.1 5.9 3.3 9.4 0 1.8 0 2.7.1 4.4-3.2-1-4.8-1.5-8.1-2.3 0-2 0-2.9-.1-4.9.4.1.5.1.9.2-1.4-5.2-.9-5.3-3-5.9-.7-.2-1-.3-1.7-.5.1 4 .1 6 .1 10-2.7-.7-4.1-1-6.9-1.7l-.3-22c-.5-.1-.7-.2-1.2-.3.1-2.3.1-3.6.1-6.1Zm9.5 8.5c-.6-.1-.8-.2-1.4-.4 0 2.5 0 3.7.1 6.2.7.2 1 .3 1.7.4 2.1.6 3 .8 3-2.5-.2-2.8-.9-3-3.4-3.7ZM180.4 49.7c0-3-.1-4.5-.1-7.4 2.5.8 3.7 1.2 6.2 2.1v1.5c.7.2 1.4.5 2.2.8 2.4.9 2.9.1 2.6-1.6-1-5.3-10.5-6.6-11-14.4-.5-7.3 5.1-7.6 10.5-5.4 1.9.7 3.9 1.6 5.8 2.6.1 2.9.1 4.3.1 7.2-2.2-.9-3.3-1.3-5.6-2.2v-1.2c-.4-.1-.8-.4-1.2-.5-1.9-.7-3.4-.7-3.2 1 .8 5.8 10.5 6.8 11.1 14.9.6 8.1-5.6 7.2-10.9 5.3-2.1-1-4.3-1.8-6.5-2.7Z" fill="#007AC1"/><path d="m1.4 57.2.1-7.6 1.2-.5.3-14.4-1.2.5.1-7.6.5-.2c3.1-1.3 4.6-1.8 7.8-3l.8-.3-.5 29.6-.4.2c-3.1 1.2-4.7 1.7-7.8 3l-.9.3Zm1.4-6.8-.1 5c2.5-1 4-1.6 6.6-2.5l.5-27c-2.5.9-3.9 1.5-6.5 2.5l-.1 5 1.1-.5-.3 17-1.2.5ZM14.3 52.1l.1-8.7.4-.1c2.5-.9 3.7-1.3 6.2-2.1l.8-.3v1.5c.1 0 .2-.1.4-.1.3-.1.7-.2 1.1-.3 2.8-.9 2.5-2.2 2.3-2.7-.2-.9-1.8-1-3.6-1.2-3.1-.3-7.4-.7-7.2-6.1.3-6.5 4.2-11.1 11.3-13.1 2.1-.6 4.1-1.1 6-1.4l.7-.1-.1 8.3-.3.2c-2.3.6-3.4.9-5.7 1.6l-.8.2v-1.3c-.1 0-.3.1-.4.1-1.8.5-3.1 1.6-2.9 2.4.3.9 1.9 1.1 3.6 1.3 3.2.4 7.5 1 7.4 6.4-.2 6.8-3.9 10.9-11.8 13.3l-6.3 1.8-1.2.4Zm1.3-7.8-.1 6.2c1.9-.5 3.8-1.1 5.8-1.7 7.4-2.2 10.8-6 11-12.2.2-4.3-3.1-4.7-6.3-5.1-2.1-.3-4.2-.6-4.6-2.2-.5-1.8 1.6-3.3 3.7-4 .2-.1.5-.1.7-.2.2 0 .4-.1.5-.1l.8-.2V26c1.7-.5 2.7-.8 4.5-1.3l.1-5.9c-1.7.3-3.4.7-5.2 1.2-6.7 1.9-10.2 5.9-10.5 12-.2 3.9 2.3 4.5 6.1 4.8 2.2.2 4.2.4 4.6 2.1.3 1.3.1 3.1-3.2 4.1-.4.1-.7.2-1.1.3-.4.1-.8.2-1.1.3l-.8.3v-1.5c-1.7.9-2.9 1.3-4.9 1.9ZM37.3 45.5l.3-22-1.3.4.1-7.6.5-.1c3.3-.8 4.9-1.2 8.1-1.9l.8-.2-.2 22c.6-.1 1-.2 1.6-.3v-1l.5-.1c2.6-.5 3.9-.8 6.5-1.2l.7-.1-.1 8.6-.6-.1c-5.4 1-10.8 2.1-16.1 3.4l-.8.2ZM38.8 22l-.3 22c4.9-1.2 10-2.2 14.9-3.1l.1-6.1c-2 .4-3.2.6-5.3 1v1l-.4.1c-1.1.2-1.7.3-2.8.6l-.8.2.2-22c-2.6.6-4.2.9-6.9 1.6l-.1 5 1.4-.3ZM56.1 41.6l.1-4.9L63.4 11l.4-.1c3-.4 4.5-.6 7.6-1l.5-.1.1.5c2.7 9.2 5.4 18.3 8.1 27.5l.2.7-.8.1c-2.9.2-4.3.4-7.2.7l-.5.1-1.4-5.8c-2 .2-3.2.4-5 .6v6l-.5.1c-3.2.4-4.8.7-8 1.2l-.8.1Zm1.3-4.7v3.2c2.6-.4 4.2-.7 6.8-1v-3.5l-1.5.2.6-2.5.4-.1c2.9-.4 4.3-.6 7.2-.9l.5-.1 1.4 5.8c2.3-.2 3.7-.4 5.9-.6-2.6-8.7-5.1-17.5-7.7-26.2-2.6.3-4 .5-6.6.8l-7 24.9Zm7-7.9L67 18.9h1.2l2.1 9.4-.7.1c-1.7.2-2.6.3-4.3.5l-.9.1Zm3.1-7.3L66 27.6c1-.1 1.7-.2 2.8-.3l-1.3-5.6ZM82.6 38.5 82.7 9h.6c2.7-.2 4.1-.2 6.8-.4h.4l.2.3c2.1 4.1 4.1 8.3 6.1 12.4v-5.5h-1.3V8.4H104.3v29.5h-7.7l-.2-.3-6.3-12.3v12.8h-.6c-2.5.1-3.8.2-6.3.3l-.6.1Zm1.3-28.4-.1 27c1.9-.1 3.1-.2 5.1-.3V22.6l1.2-.3c2.4 4.7 4.8 9.5 7.3 14.2h5.7v-27h-6.3v5h1.3v9.4l-1.2.3c-2.4-4.8-4.7-9.6-7.1-14.4-2.3.1-3.7.2-5.9.3ZM122 38.8c-.6 0-1.3 0-2-.1-4-.3-6-.4-10-.6h-.6V16.2h-1.3V8.7h.6c4 .1 6 .2 10 .5 10.7.7 11.5 6.8 11.5 15.4 0 4.9 0 9.9-2.9 12.5-1.2 1.1-3 1.7-5.3 1.7Zm-11.3-1.9c3.7.1 5.6.3 9.5.6 3 .3 5.1-.1 6.4-1.3 2.5-2.2 2.5-7 2.5-11.6 0-9.5-1.5-13.6-10.4-14.2-3.8-.3-5.8-.4-9.4-.5V15h1.3l.1 21.9Zm9.3-4.4h-.8c-.9-.1-1.3-.1-2.2-.2h-.6V14.9h.7c.9.1 1.3.1 2.2.2 4.2.3 4.2 2.3 4.3 8.7 0 4.7 0 6.9-1.1 8-.8.6-1.6.7-2.5.7Zm-2.3-1.4c.5 0 1 .1 1.6.1 1.2.1 1.9 0 2.2-.4.8-.7.8-3 .7-7.1 0-6.8-.2-7.3-3.1-7.5-.6 0-1-.1-1.5-.1l.1 15ZM153.7 43.3l-.7-.1c-5.9-1.2-11.9-2.2-17.8-3l-.5-.1-.2-21.9-1.1-.1-.1-7.5.7.1c6.1.9 12.3 1.9 18.3 3.1l.5.1.1 7.6-.7-.2c-3.9-.8-5.9-1.2-9.5-1.8v2.9c3.4.6 5.3.9 8.9 1.6l.5.1.1 7.8-.7-.1c-3.5-.7-5.3-1-8.6-1.6V34c1.1.2 1.8.3 2.8.5v-1l.7.1c2.7.5 4.1.8 6.8 1.3l.5.1v8.3Zm-17.9-4.2c5.6.8 11.2 1.8 16.7 2.8l-.1-6c-2.2-.4-3.5-.7-5.6-1.1v1l-.7-.1c-1.6-.3-2.4-.4-4-.7l-.5-.1-.1-6.3.7.1c3.5.6 5.4.9 8.7 1.6l-.1-5.3c-3.4-.7-5.3-1-8.9-1.6l-.5-.1v-5.4l.7.1c3.9.6 5.9 1 9.6 1.7l-.1-5c-5.6-1.1-11.4-2.1-17.1-2.9v5.1l1.1.2.2 22ZM177.7 49.7l-.8-.2c-3.2-1-4.8-1.5-8.1-2.3l-.4-.1-.1-6.2.7.2c-.2-.6-.3-1.2-.4-1.6-.6-2.5-.6-2.5-1.9-2.8l-1-.2.1 10-.8-.2c-2.7-.7-4.1-1-6.8-1.7l-.5-.1-.3-22-1.2-.3-.1-7.6.8.2c3.5.8 5.2 1.2 8.7 2.1 5.3 1.3 11.3 3.7 11.3 12 0 3.9-1.8 5.8-2.6 6.5.2.7.8 2.2 1.3 3.6.6 1.8 1.4 3.8 1.9 5.4v.2l.2 5.1Zm-8.1-3.7c2.7.7 4.3 1.2 6.9 2l-.1-3.5c-.5-1.6-1.3-3.5-1.9-5.2-1.5-4.1-1.5-4.1-1.5-4.3v-.3l.3-.2c.1-.1 2.4-1.5 2.4-5.7 0-5.8-3.1-9.1-10.4-10.8-3.2-.8-4.9-1.3-7.9-1.9l.1 5 1.2.3.3 22c2.2.5 3.5.8 5.6 1.4l-.1-10 2.5.7c2 .5 2.1 1.1 2.8 3.7.2.7.4 1.5.6 2.6l.3 1-1.1-.3V46Zm-1.2-15c-.5 0-1.1-.2-1.8-.4l-2.1-.6-.1-7.5 2.2.6c2.8.7 3.7 1.1 3.8 4.3 0 1.8-.2 2.7-.8 3.2-.4.3-.8.4-1.2.4Zm-2.7-1.9 1.2.3c.9.2 1.6.4 1.9.2.1-.1.4-.5.3-2.2 0-2.4-.4-2.5-2.9-3.1l-.6-.2.1 5ZM193 54.2c-1.7 0-3.7-.5-6.2-1.4-2.2-.8-4.4-1.7-6.6-2.5l-.4-.2-.1-8.7.8.3c2.5.8 3.7 1.2 6.2 2.1l.4.1v1.5c.2.1.5.2.7.3.3.1.7.3 1.1.4 1.4.5 1.7.3 1.8.2.1-.1.2-.4.1-1.1-.4-2.1-2.3-3.5-4.5-5.1-2.9-2.2-6.2-4.7-6.5-9.3-.2-2.9.5-5 2.1-6.2 2-1.4 5.3-1.4 9.2.2 2.3.9 4.2 1.7 5.9 2.6l.3.2.2 8.5-.9-.3c-2.2-.9-3.3-1.3-5.6-2.2l-.4-.1v-1.2c-.1 0-.2-.1-.2-.1l-.6-.3c-1.3-.5-2.1-.5-2.3-.3-.2.1-.1.5-.1.6.3 2.4 2.3 3.9 4.7 5.7 2.8 2.1 6.1 4.6 6.4 9.2.2 3-.4 5.1-2 6.2-.9.5-2 .9-3.5.9Zm-12-4.9c2.1.8 4.2 1.6 6.2 2.4 4.1 1.5 7 1.7 8.6.5 1.2-.9 1.7-2.6 1.5-5.2-.3-4.1-3.2-6.3-5.9-8.4-2.4-1.8-4.7-3.6-5.1-6.5-.1-1 .2-1.5.5-1.8.7-.5 1.8-.5 3.5.1.2.1.5.2.7.3.2.1.4.2.5.2l.4.1v1.2c1.7.6 2.8 1 4.3 1.7l-.1-5.9c-1.6-.8-3.4-1.6-5.5-2.4-3.6-1.4-6.4-1.5-8.1-.3-1.3.9-1.8 2.6-1.6 5.1.3 4.1 3.2 6.3 6 8.4 2.3 1.7 4.5 3.4 5 5.9.1.4.3 1.6-.5 2.3-.8.7-2.1.3-3 0-.4-.1-.7-.3-1.1-.4-.4-.1-.8-.3-1.1-.4l-.4-.1v-1.5c-1.9-.7-3.1-1.1-5-1.7l.2 6.4Z" fill="#fff"/><path d="m62 192.1-.2-45.4 7-1.3c.9-.2 1.7-.3 2.4-.5l-.1-43.8-9.5 1.8-.2-45.7 7.1-1.2c21-3.7 41.4-3.7 62.3 0l7.1 1.2-.2 45.7-9.4-1.8-.1 43.8c.7.1 1.5.3 2.3.4l7 1.3-.2 45.4-10-1.7c-18.6-3.3-36.7-3.2-55.4 0l-9.9 1.8ZM79 161v11c13.8-1.6 27.4-1.6 41.2 0v-11c-.6-.1-1.2-.2-1.8-.2l-7.5-1 .2-78.6 9.4 1.2V71.7c-14.1-1.9-28-1.9-42.1 0v10.7l9.5-1.2.2 78.6-7.5 1c-.4.1-1 .2-1.6.2Z" fill="#008752"/><path d="m66.7 186.5-.2-36 3.2-.6c2.5-.5 4.3-.8 6.2-1.1l-.2-53.4c-1.5.2-2.9.5-4.9.9l-4.6.9-.2-36.1 3.2-.6c20.4-3.6 40.3-3.6 60.7 0l3.2.6-.2 36-4.6-.9c-1.9-.4-3.4-.6-4.8-.9l-.2 53.4c2 .3 3.7.6 6.2 1.1l3.2.6-.2 36-4.5-.8c-19.2-3.3-37.8-3.3-57 0l-4.3.9Zm7.6-29.5.1 20.4c17-2.5 33.6-2.5 50.6 0l.1-20.4c-1.9-.3-3.5-.6-5.9-.9l-3.4-.4.2-69.1 4.4.6c2 .3 3.5.5 5.1.7l.1-20.2C108.3 65 91.3 65 74 67.7v20.2c1.6-.3 3.1-.5 5.1-.7l4.4-.6.2 69.1-3.4.4c-2.5.3-4.1.6-6 .9Z" fill="#fff"/><path d="M128.8 181.9c-19.6-3.4-38.7-3.4-58.3 0 0-9.4-.1-18.8-.1-28.1 3.7-.7 5.6-1 9.4-1.5-.1-20.4-.1-40.9-.2-61.3-3.8.5-5.7.8-9.5 1.5 0-9.4-.1-18.8-.1-28.1 19.9-3.5 39.4-3.5 59.4 0 0 9.4-.1 18.8-.1 28.1-3.8-.7-5.6-1-9.4-1.5-.1 20.4-.1 40.9-.2 61.3 3.7.5 5.6.8 9.3 1.5-.1 9.4-.1 18.7-.2 28.1Z" fill="#007AC1"/><path d="m69.5 183.1-.1-30.2.8-.2c3.4-.7 5.4-1 8.6-1.4l-.2-59.2c-3.1.4-4.9.7-8.3 1.4l-1.2.2-.1-30.2.8-.1c20.1-3.5 39.6-3.5 59.7 0l.8.1-.1 30.2-1.2-.2c-3.3-.6-5.2-.9-8.2-1.4l-.2 59.2c3.2.4 5.1.7 8.5 1.4l.8.2-.1 30.2-1.2-.2c-19.5-3.4-38.5-3.4-58 0l-1.1.2Zm1.9-28.5.1 26.1c18.9-3.2 37.4-3.2 56.3 0l.1-26.1c-3.2-.6-5-.9-8.4-1.3l-.9-.1.2-63.3 1.1.1c3.4.4 5.3.7 8.3 1.3l.1-26C109 62 90.3 62 71 65.3l.1 26c3-.6 5-.9 8.3-1.3l1.1-.1.2 63.3-.9.1c-3.3.4-5.2.7-8.4 1.3Z" fill="#fff"/><path d="M128.8 181.9c-19.6-3.4-38.7-3.4-58.3 0 0-9.4-.1-18.8-.1-28.1 3.7-.7 5.6-1 9.4-1.5-.1-20.4-.1-40.9-.2-61.3-3.8.5-5.7.8-9.5 1.5 0-9.4-.1-18.8-.1-28.1 19.9-3.5 39.4-3.5 59.4 0 0 9.4-.1 18.8-.1 28.1-3.8-.7-5.6-1-9.4-1.5-.1 20.4-.1 40.9-.2 61.3 3.7.5 5.6.8 9.3 1.5-.1 9.4-.1 18.7-.2 28.1Z" fill="#007AC1"/><path d="M66.9 122.2c.2-14.1 14.9-23.7 33-23.5 19.2.2 33 10.7 32.3 23.9-.6 12.8-15.1 23-33.1 22.7-18.1-.4-32.4-10.3-32.2-23.1Z" fill="#002E57"/><path d="M110 111.9c-1.4.6-1.9.7-3.3 2.5-3.6 4.5-2.5 12 7.9 13.8 9.5 1.7 14.3-3.4 14.3-3.3-1.8 10-15.6 18.7-32.4 17.1-14.5-1.4-25.3-9.6-26.1-18.4-1-12.7 11.2-19.3 21-21.1 23.6-4.1 41 10.1 32.5 17.8.6-1.5.4-3-.2-4-.2 1.1-.7 4.3-5.1 4.8.8-1.3 1.9-3.2 1.1-4.8-1.2 3.3-5 4.9-9.1 4 2.9-1.4 4.3-3.1 4.4-4.9-1.9 3.4-5.6 3.3-8 2.6 2.4-2.2 3.1-4.3 3-6.1Z" fill="#fff"/><path d="M109.8 111.2c-2 .6-3 1.5-4.4 3.3-3.4 4.5-2.2 12.5 7.9 14.7 9.7 2 14.1-2 14.1-1.9-3.3 7.7-15.3 15.3-30.9 13.8-13.4-1.3-24.1-8.7-25-17.2-.9-12 10.5-17.8 15.9-18.5 12.1-2.7 21.2.9 22.4 5.8Z" fill="#008752"/><path d="M124.8 117.4c.1-1-.7-2.8-1.9-3.5.1 1.9-.4 5-2.7 5.9 1.2-1.9 1-3.5-1-6-.4 3.9-2.9 5.4-6.1 5.8 2.2-.8 3.8-4.4 2.2-7-1.6 4.5-5 4.8-6.3 4.8 7.1-8.5-4.7-16.5-20.3-13.3 17.8-5.1 38.2 4.1 36.1 13.3Z" fill="#fff"/><path d="M91.7 120c-.4 2.3.8 8.5 6 10-.1 0-1.9-1.7-1.8-5.5l-1.2 1.7c-1.1-3.2-1-6.9 0-9.3-.1.1-1.4 1.1-1.4 1.1.5-4 2-5.8 4.4-6.9-1.9 1.6-2.1 2.4-2.6 3.9l1.9-1.4c-1.3 2.6-.8 5.2-.1 7.4l1-1.7c-.4 2.5 1.1 7.7 5.6 9.2-.7-.8-2.1-1.9-2.1-4.4l-.6 1.2c-.9-2.7-1.2-6.1-.2-8.5l-1.4 1c.1-3.2 2.1-5.5 3.8-5.9-1.1.6-1.9 2-2.3 3.4l1.6-1c-.9 2.5-.4 5.4 0 7.1l1.1-1.9c.2 2.9 1.7 6.4 6.2 8.2 4.7 1.9 11.3 3 17.6-.5-8.8 16.8-38.9 18.6-52.6 3.7-2.9-3.1-2.2-7.8-1.5-9.2-.1.1-1.4 1.4-1.5 1.4-.1-5.3 2.6-10.5 6.2-13.1-1.1 1.7-3.5 3.7-4.1 8.6.1 0 2.2-2.3 2.2-2.3-1.5 3.2-1.1 6.4-.2 8.9l1.3-1.8c.2 6.9 5.5 9.9 7.6 10.4-.9-1.1-3.4-5-2.9-7.7l-1.2 2c-1-2.7-1.2-6-.4-8.7-.1 0-1.6 1.7-1.6 1.7.3-5.1 2.7-9 6.1-11-1.5 1.4-3.1 3-3.8 6.5l2.2-2c-1.4 3.3-1.1 5.8-.4 8.1l1.4-2.2c-.6 4.2 1.6 8.6 6.8 11 0 0-2.6-2.3-2.2-6.6l-.9 1.8c-.9-3.1-.9-6.2 0-8.7-.1.1-1.5 1.3-1.5 1.2.3-5.3 2.7-8 5.3-9.1-2.2 1.7-2.8 2.9-3.3 5.4l2.1-1.9c-1.4 4.1-.8 6.3-.1 8l1.5-1.6Z" fill="#002E57"/></svg>