<svg width="200" height="200" xmlns="http://www.w3.org/2000/svg"><g fill-rule="nonzero" fill="none"><path d="M70.008 160.577c3.564 12.042 13.218 25.307 48.483 26.617 35.931 1.335 47.08-23.126 47.08-23.126 1.955.373 33.49 6.848 33.49 6.848l-.056-50.458s-20.511-4.983-30.245-6.374c0 0-.28-3.853.374-9.505.63-5.456 15.359-20.284 15.359-20.284h-43.44l-27.149-60.223c-2.211-5.284 6.989-12.06 6.989-12.06l-66.03.17s7.277 4.113 6.693 12.013c-.254 3.434-24.944 52.84-31.089 63.653-6.144 10.814-19.907 23.1-19.907 23.1h42.395c-9.093.615-52.102 8.357-52.102 8.357v51.623s52.903-11.497 68.839-11.497l.316 1.146" fill="#223B8C"/><path d="M70.828 160.342c3.114 10.519 11.45 24.653 47.694 26 8.068.3 15.517-.704 22.146-2.984 5.293-1.82 10.08-4.454 14.227-7.829 7.071-5.755 9.872-11.755 9.9-11.815l.278-.608.656.125c1.764.335 26.95 5.504 32.478 6.64l-.054-48.742c-3.57-.856-20.902-4.97-29.514-6.2l-.68-.098-.05-.685c-.011-.16-.277-3.999.378-9.664.549-4.747 10.314-15.313 14.182-19.334h-41.967l-.226-.502L113.118 24.4c-1.782-4.256 2.693-9.105 5.398-11.53l-61.064.156c2.245 1.956 5.363 5.706 4.954 11.23-.286 3.87-25.885 54.663-31.198 64.012-4.955 8.723-14.617 18.218-18.462 21.827h40.209l.058 1.704c-8.309.561-45.701 7.215-51.308 8.219v49.853c7.674-1.65 53.181-11.294 67.987-11.294h.649l.487 1.764Zm50.455 27.757a76.4 76.4 0 0 1-2.824-.053c-16.016-.595-28.323-3.769-36.58-9.433-6.267-4.3-10.418-10.12-12.688-17.795l-.005-.015-.142-.514c-16.408.296-67.49 11.36-68.01 11.472L0 171.986v-53.393l.702-.127c1.285-.231 23.757-4.27 39.282-6.665H8.325l1.667-1.488c.137-.122 13.73-12.32 19.734-22.886 6.345-11.167 30.746-60.176 30.98-63.295.536-7.25-5.986-11.051-6.264-11.21l-2.784-1.584 3.202-.01 68.634-.176-2.095 1.546c-2.406 1.775-8.298 7.214-6.713 11.035l26.918 59.71h44.937l-1.444 1.453c-4.038 4.066-14.627 15.547-15.116 19.781-.479 4.145-.448 7.334-.403 8.666 9.915 1.508 29.427 6.237 29.628 6.286l.65.158.059 52.175-1.026-.211c-.296-.06-27.986-5.746-32.847-6.72-.908 1.72-3.899 6.776-9.998 11.761-4.304 3.518-9.27 6.262-14.76 8.158-6.061 2.093-12.778 3.149-20.001 3.149Z" fill="#C4122E"/><path d="M111.038 94.86s-8.576 2.01-8.6 10.16c-.033 11.517-.317 12.134-.152 40.633 0 0-.707 12.883 16.074 12.83 17.081-.054 17.147-10.903 17.163-11.943.033-2.3 0-40.31 0-40.31s-.267-9.068-8.065-11.291l-16.42-.079" fill="#223B8C"/><path d="M111.14 95.682c-.408.11-2.201.644-3.96 1.903-2.593 1.854-3.911 4.356-3.92 7.438-.01 3.738-.048 6.34-.088 9.094-.082 5.755-.176 12.278-.064 31.53V145.699c-.003.042-.185 4.451 3.06 7.853 2.602 2.728 6.67 4.11 12.089 4.11h.1c15.014-.047 16.305-8.52 16.344-11.116.032-2.267 0-39.37 0-40.3-.007-.15-.113-2.257-1.066-4.563-1.27-3.068-3.388-5.06-6.296-5.922l-16.198-.078Zm7.117 63.623c-5.9 0-10.374-1.56-13.297-4.64-3.627-3.82-3.515-8.579-3.496-9.03-.111-19.252-.018-25.78.065-31.542.04-2.75.076-5.346.087-9.075.01-3.61 1.62-6.655 4.656-8.805 2.252-1.596 4.485-2.131 4.579-2.153l.094-.022 16.63.08.108.03c3.44.98 6.03 3.387 7.492 6.959 1.086 2.652 1.166 5 1.169 5.1v.022c.002 1.553.033 38.043 0 40.323a11.678 11.678 0 0 1-2.386 6.875c-2.963 3.877-8.21 5.855-15.595 5.878h-.106Z" fill="#223B8C"/><path d="M175.601 89.15c-4.32 2.932-9.328 8.754-10.5 11.88-1.675 3.907-1.45 6.495-1.449 11.28l.062 37.432s1.174 32.76-45.343 32.27c-36.964-.39-43.648-19.91-44.26-31.54l-.118-43.683s.352-5.52-2.583-8.925c-5.32-6.17-9.846-8.764-9.846-8.764h47.68l1.697 5.246s-8.617 2.258-8.64 10.493c-.034 11.633-.324 12.257-.154 41.045 0 0-.721 13.015 16.356 12.961 17.382-.054 17.45-11.015 17.465-12.065.033-2.323 0-40.719 0-40.719s-.271-9.16-8.207-11.406l.154-5.555 47.686.05" fill="#FFF"/><path d="M74.944 150.45c.602 11.321 7.052 30.346 43.435 30.729 16.328.166 28.49-3.732 36.163-11.603 8.628-8.85 8.343-19.696 8.339-19.804v-.029l-.062-37.432c0-.53-.003-1.032-.005-1.512-.022-3.886-.037-6.455 1.513-10.08 1.092-2.888 5.025-7.602 8.8-10.738l-44.402-.047-.114 4.114c3.19 1.093 5.602 3.444 7 6.835 1.105 2.68 1.187 5.054 1.19 5.154v.024c.002 1.568.033 38.428 0 40.731a11.733 11.733 0 0 1-2.425 6.945c-3.015 3.919-8.355 5.918-15.87 5.942h-.109c-6.025 0-10.586-1.588-13.56-4.72-3.657-3.854-3.544-8.636-3.524-9.092-.114-19.45-.019-26.045.065-31.865.04-2.777.078-5.4.09-9.165.01-3.641 1.624-6.754 4.667-9.003a15.425 15.425 0 0 1 3.758-2.02l-1.255-3.88H64.26c1.862 1.4 4.682 3.793 7.78 7.386 3.04 3.528 2.814 8.99 2.786 9.493l.117 43.636Zm44.46 32.4c-.346 0-.693-.001-1.042-.005-16.477-.173-28.704-4.143-36.343-11.8-6.684-6.698-8.442-14.86-8.74-20.528l-.001-.042-.118-43.711.002-.028c.003-.051.29-5.227-2.383-8.328-5.149-5.972-9.586-8.56-9.63-8.585l-2.703-1.556h51.404l2.155 6.661-.853.224c-.325.087-7.996 2.21-8.018 9.69-.011 3.774-.049 6.402-.09 9.184-.083 5.814-.178 12.404-.064 31.853l-.001.052c-.003.042-.187 4.467 3.085 7.898 2.647 2.776 6.796 4.183 12.333 4.183h.103c15.29-.048 16.598-8.606 16.635-11.227.032-2.291 0-39.811 0-40.71-.018-.475-.422-8.587-7.601-10.618l-.624-.177.194-7.014 51.205.053-2.24 1.52c-3.574 2.425-8.915 8.088-10.188 11.483l-.015.036c-1.42 3.315-1.407 5.618-1.386 9.432.003.483.005.987.006 1.52l.06 37.417c.022.66.227 11.743-8.81 21.012-7.838 8.039-20.058 12.111-36.332 12.111Z" fill="#223B8C"/><path d="M119.104 178.12c-27.664 0-41.078-10.9-41.078-33.116v-37.446c0-7.685-2.235-12.436-7.126-14.532h34.511c-5.17 2.376-6.985 6.707-6.985 14.532v36.748c0 12.016 7.126 18.583 20.678 18.583 13.554 0 20.54-6.426 20.54-18.583v-36.748c0-7.265-1.118-11.737-6.986-14.532h34.652c-4.75 1.956-7.266 6.987-7.266 14.532v37.446c0 22.217-13.273 33.115-40.94 33.115" fill="#C4122E"/><path d="M104.713 71.162 86.869 29.52 70.27 71.162h34.443Zm4.108 17.91-43.245-.005c-2.45 5.59-.394 9.523-.394 9.523.556 1.992 3.956 5.328 6.103 7.275l-47.39-.072c4.293-4.495 9.242-10.098 12.585-16.15l31.705-65.586c.431-1.207.604-2.33.258-3.539-.143-.503-.36-1.797-2.431-3.782l44.593.008c-1.798 1.69-2.45 3.539-2.55 4.116-.111.638-.173 1.898.382 3.135l29.493 66.017c3.225 5.979 8.414 11.462 13.47 15.772l-46.77-.018s4.407-3.536 5.698-7.306c1.534-4.484-1.507-9.388-1.507-9.388Z" fill="#FFF"/><path d="M71.5 70.33h31.95L86.896 31.7 71.499 70.33Zm34.476 1.666H69.041l17.8-44.657 19.135 44.657Zm-80.15 32.966 43.346.066c-2.129-2.06-4.25-4.436-4.769-6.134-.303-.637-2.006-4.652.41-10.161l.219-.5 44.253.006.244.394c.133.214 3.23 5.294 1.587 10.097-.84 2.455-2.865 4.768-4.324 6.204l42.393.016c-4.004-3.61-8.843-8.71-11.988-14.543l-.028-.056-29.493-66.016c-.696-1.552-.541-3.047-.442-3.618.102-.59.542-1.822 1.519-3.14L67.89 17.57c.963 1.25 1.203 2.154 1.323 2.607.011.041.02.079.03.112.36 1.26.276 2.509-.275 4.048l-.034.082L37.22 90.026l-.01.02c-3.129 5.664-7.563 10.832-11.383 14.916Zm47.622 1.74-51.499-.08 1.344-1.405c4.006-4.194 9.04-9.797 12.447-15.957l31.675-65.525c.418-1.186.486-2.082.227-2.988a6.658 6.658 0 0 1-.039-.143c-.137-.517-.422-1.593-2.168-3.266l-1.497-1.435 48.77.008-1.532 1.44c-1.626 1.528-2.22 3.19-2.3 3.651-.057.327-.202 1.486.32 2.652l29.482 65.989c3.479 6.436 9.13 11.984 13.262 15.507l1.722 1.468-51.397-.02 1.844-1.482c.042-.034 4.235-3.433 5.43-6.926 1.15-3.356-.57-7.084-1.205-8.285L66.13 89.9c-1.923 4.85-.282 8.164-.208 8.308l.038.074.024.084c.366 1.314 2.557 3.887 5.86 6.882l1.603 1.453Z" fill="#223B8C"/><path fill="#FFF" d="M86.903 30.678 68.798 71.123h36.751z"/><path fill="#223B8C" d="M86.852 40.087 76.08 67.263l22.648.023z"/><path d="m77.306 66.43 20.148.022-10.565-24.198-9.583 24.177Zm22.695 1.691-25.147-.026 11.96-30.176 13.187 30.202Z" fill="#223B8C"/><path d="M104.702 70.516 86.858 32.06 70.26 70.516h34.442Zm37.763 31.953h-31.262c2.075-2.213 3.043-4.15 3.043-6.64 0-2.075-.553-4.011-.968-4.98l-2.352-5.394H63.481l-1.798 4.011c-.553 1.245-.968 3.32-.968 5.395 0 3.32 1.107 5.81 3.182 7.608H32.22c4.15-4.15 6.916-9.13 9.683-14.8l29.186-60.726c.83-1.66 1.245-3.043 1.245-3.873 0-.553-.276-1.383-.968-2.905h34.166c-.553 1.383-1.107 2.352-1.107 3.043 0 .692.415 1.937 1.245 3.735l27.112 60.725c2.628 5.81 5.81 10.79 9.683 14.8Z" fill="#C4122E"/><path d="M194.065 164.305s-50.47-12.039-93.857-12.039c-43.386 0-93.968 11.861-93.968 11.861l-.053-40.243s51.507-11.256 94.892-11.256c43.387 0 93.016 11.49 93.016 11.49l-.03 40.187" fill="#FFF"/><path d="M100.208 151.433c39.598 0 85.618 10.132 93.025 11.824l.029-38.473c-5.974-1.334-52.048-11.323-92.183-11.323-40.173 0-87.92 9.8-94.058 11.097l.051 38.525c7.409-1.664 53.532-11.65 93.136-11.65Zm94.69 13.927-1.026-.245c-.504-.12-50.875-12.015-93.664-12.015-42.79 0-93.273 11.72-93.778 11.838l-1.022.24-.055-41.964.656-.144c.516-.113 52.092-11.276 95.07-11.276 42.985 0 92.707 11.398 93.204 11.513l.646.15-.031 41.903Z" fill="#223B8C"/><path d="M190.44 159.818s-49.454-11.262-90.095-11.262c-40.64 0-91.075 11.262-91.075 11.262l.012-32.876s50.434-11.262 91.075-11.262c40.64 0 90.096 11.262 90.096 11.262l-.012 32.876" fill="#FFF"/><path d="m10.941 128.281-.01 29.482c9.841-2.076 53.641-10.867 89.414-10.867 35.722 0 78.688 8.766 88.436 10.86l.011-29.48c-8.052-1.75-52.077-10.936-88.435-10.936-36.39 0-81.263 9.202-89.416 10.941ZM192.1 161.898l-2.028-.461c-.493-.113-49.745-11.22-89.727-11.22-39.986 0-90.21 11.109-90.713 11.221l-2.022.451.012-36.277 1.298-.29c.506-.113 51.08-11.302 91.437-11.302 40.36 0 89.968 11.19 90.464 11.303l1.292.294-.013 36.281Z" fill="#FFF"/><path d="M189.27 158.349s-48.773-10.72-88.865-10.72c-40.092 0-89.857 10.72-89.857 10.72l.012-30.688s49.753-10.512 89.844-10.512c40.092 0 88.879 10.512 88.879 10.512l-.012 30.688" fill="#C4122E"/><path d="m11.36 128.313-.012 29.051c7.156-1.481 52.404-10.534 89.057-10.534 36.619 0 80.98 9.036 88.067 10.53l.01-29.05c-5.85-1.22-50.983-10.361-88.078-10.361-37.122 0-83.125 9.153-89.045 10.364Zm178.71 31.03-.97-.213c-.488-.107-49.152-10.7-88.695-10.7-39.545 0-89.191 10.593-89.688 10.7l-.969.209.013-32.326.634-.134c.498-.105 50.293-10.53 90.01-10.53 39.717 0 88.557 10.425 89.046 10.53l.631.137-.012 32.327Z" fill="#C4122E"/><path d="m30.858 141.367-5.247-7.504-2.078 8.805 7.325-1.3Zm9.238 5.37-6.649 1.18c.358-.549.49-.997.397-1.527a2.96 2.96 0 0 0-.395-1.022l-.703-1.059-10.09 1.792-.232.921c-.07.285-.08.743-.002 1.184.125.706.455 1.194.964 1.498L16.65 150.9c.727-1.04 1.126-2.203 1.5-3.514l3.914-14.016c.114-.385.15-.694.12-.87-.022-.119-.112-.285-.316-.582l7.266-1.29c-.066.314-.147.541-.12.688.026.148.16.397.405.748l8.06 11.89c.778 1.137 1.643 2.076 2.618 2.782ZM45.129 142.876c.218 1.628.827 2.572 1.923 2.877l-6.811.913c.977-.583 1.316-1.653 1.097-3.282l-1.537-11.46c-.218-1.629-.827-2.572-1.923-2.878l8.677-1.163c-.116.256-.148.472-.124.65.02.148.11.376.28.745l5.979 11.98 2.682-13.262c.053-.278.085-.493.069-.612-.027-.207-.144-.403-.328-.65l8.854-1.187c-1.002.617-1.286 1.65-1.067 3.278l1.537 11.46c.198 1.481.58 2.305 1.745 2.902l-6.87.922c1.014-.98 1.11-1.837.92-3.26l-1.541-11.49-3.303 14.04c-.053.278-.088.464-.068.612.024.178.11.377.29.594l-5.034.675c.053-.278.088-.464.077-.553-.016-.118-.107-.347-.273-.687L43.536 131l1.593 11.876M68.78 139.93l-.926-11.646c-.128-1.608-.65-2.526-1.731-2.92l18.585-1.477c-.187.285-.257.53-.24.739.028.357.601 1.54 1.407 3.754-2.093-1.062-4.201-1.195-6.614-1.003l-7.059.562.33 4.14 7.803-.62a6.125 6.125 0 0 0 2.345-.667l-1.29 2.62c-.336.686-.963 1.096-1.767 1.16l-6.85.545.355 4.467 7.446-.592c2.949-.234 5.243-1.166 6.742-2.663-.782 2.61-1.355 4.063-1.32 4.51.019.238.157.467.39.749l-18.854 1.498c1.007-.529 1.375-1.547 1.247-3.156M99.05 131.516c2.838-.02 4.029-.596 4.016-2.509-.014-1.911-1.213-2.44-4.051-2.421l-4.751.033.035 4.93 4.75-.033Zm-3.16 9.822-7.379.052c1.072-.486 1.483-1.475 1.472-3.118l-.081-11.623c-.011-1.613-.466-2.566-1.515-3.037l10.487-.073c2.3-.016 4.123-.028 5.44.38 2.067.644 3.394 2.457 3.41 4.817.018 2.51-1.672 4.404-4.805 5.024 1.529.676 2.313 1.687 3.128 2.936 1.118 1.695 1.936 3.422 3.617 4.546l-7.619.053c.357-.36.534-.661.531-1.05-.006-.896-.582-2.117-1.818-3.602-1.175-1.426-2.584-2.073-4.376-2.06l-2.062.013.025 3.645c.012 1.644.497 2.656 1.546 3.097ZM116.628 127.142l-.6 11.548c-.085 1.64.312 2.648 1.36 3.182l-7.37-.383c1.1-.422 1.569-1.385 1.654-3.026l.6-11.547c.085-1.641-.281-2.648-1.331-3.18l7.37.382c-1.099.421-1.598 1.383-1.683 3.024M135.177 143.222c-1.309-.123-3.506.272-6.273.014-6.306-.59-9.627-4.23-9.093-9.943.539-5.77 5.024-9.133 11.658-8.513 3.034.284 5.08 1.195 6.24 1.304.298.028.604-.034.999-.087l-1.989 4.255c-1.616-1.321-3.351-2.023-5.374-2.212-3.897-.364-6.543 1.939-6.874 5.479-.364 3.897 1.523 6.174 5.48 6.544 2.231.208 4.437-.276 6.958-1.24l-.448 4.79c-.489-.227-.897-.355-1.284-.39M154.788 139.053l-2.644-8.767-4.722 7.717 7.366 1.05Zm7.101 7.983-6.685-.952c.511-.41.778-.795.853-1.327a2.965 2.965 0 0 0-.055-1.095l-.339-1.225-10.145-1.445-.507.803c-.156.249-.308.68-.371 1.124-.101.71.06 1.276.448 1.723l-6.774-.965c1.014-.76 1.758-1.741 2.522-2.87l8.091-12.096c.229-.33.36-.613.385-.79.017-.119-.017-.304-.119-.651l7.306 1.04c-.16.28-.308.47-.33.618-.02.148.03.427.153.836l3.948 13.812c.385 1.323.914 2.484 1.62 3.46ZM168.002 145.02c-.265 1.622-.108 2.593.942 3.33l-6.907-1.258c1.144-.277 1.731-1.173 2.026-2.79l2.073-11.375c.294-1.616.06-2.662-.913-3.325l8.554 1.559c-.155.184-.24.32-.257.409-.021.117.024.368.117.69l4.415 14.44 1.987-11.24c.295-1.617-.022-2.707-.971-3.335l6.731 1.226c-1.505.424-1.716 1.419-1.957 2.742l-.027.146-2.34 12.846c-.113.617-.14 1.098.138 1.574l-7.025-1.28c.19-.208.28-.374.302-.491.022-.118-.034-.31-.128-.631l-4.927-14.96-1.833 11.723" fill="#FFF"/></g></svg>