<svg width="200" height="200" xmlns="http://www.w3.org/2000/svg"><g fill-rule="nonzero" fill="none"><path d="M100.685 91.329c2.256 5.64 2.576 6.437 4.536 11.331h-9.07l4.534-11.331Zm30.647-90.253H61.41v46.536h8.1c-7.106 17.757-39.437 94.073-42.878 102.67H13.758v48.468h69.25v-46.37h-4.56l1.583-5.634h41.31l2.468 5.635h-7.08v46.369h69.456V151.54h-12.73l-41.593-103.93h7.763V1.077h-8.293Z" fill="#FBCF17"/><path d="m86.271 109.675 14.414-36.017 14.415 36.017H86.27Zm81.569 50.155L119.613 39.324h11.72V9.365H69.701v29.959h12.057L33.53 159.83h-10.64v30.632h52.873V159.83h-9.565l8.218-20.534h52.537l8.218 20.534h-8.89v30.632h52.873V159.83H167.84Z" fill="#FFF"/><path d="M131.332 1.834h7.535v45.02h-7.005a.758.758 0 0 0-.703 1.04l41.592 103.928a.758.758 0 0 0 .704.477h11.972v45.694h-67.94v-44.855h6.322a.759.759 0 0 0 .694-1.061l-2.468-5.635a.762.762 0 0 0-.695-.454H80.031a.76.76 0 0 0-.73.553l-1.582 5.635a.755.755 0 0 0 .73.962h3.8v44.855H14.515V151.04h12.116c.31 0 .589-.188.704-.476 1.408-3.52 7.738-18.577 15.068-36.013 10.521-25.028 23.615-56.175 27.81-66.658a.754.754 0 0 0-.703-1.039h-7.343V1.835h69.165Zm0-1.515H61.41a.758.758 0 0 0-.757.757v46.536c0 .418.339.757.757.757h6.978c-4.567 11.323-17.173 41.312-27.381 65.595-7.059 16.79-13.177 31.344-14.886 35.561H13.758a.758.758 0 0 0-.758.758v48.467c0 .418.34.757.758.757h69.25c.418 0 .757-.339.757-.757v-46.37a.758.758 0 0 0-.758-.757h-3.559l1.158-4.12h40.239l1.805 4.12h-5.92a.758.758 0 0 0-.758.758v46.369c0 .418.34.757.758.757h69.455c.418 0 .758-.339.758-.757V151.54a.758.758 0 0 0-.758-.757h-12.217L132.98 48.369h6.644c.418 0 .758-.339.758-.757V1.076a.758.758 0 0 0-.758-.757h-8.293Z" fill="#100F0D"/><path d="m98.051 99.95 2.634-6.582 3.416 8.535H97.27l.781-1.953Zm1.93-8.903-4.534 11.332a.758.758 0 0 0 .703 1.039h9.071a.758.758 0 0 0 .704-1.04l-4.536-11.33a.76.76 0 0 0-1.407 0Z" fill="#100F0D"/><path d="M130.827 9.87V38.82h-11.96l48.631 121.516h11.152v29.622h-51.864v-29.622h9.132l-8.622-21.544H74.075l-8.622 21.544h9.806v29.622H23.395v-29.622h10.478L82.505 38.819H70.207V9.87h60.62Zm.505-1.01H69.197V39.83h11.816c-.547 1.364-47.573 118.868-47.824 119.496H22.385v31.641h53.884v-31.64h-9.324l7.814-19.525h51.853c.237.595 7.306 18.252 7.814 19.524h-8.65v31.641h53.884v-31.64h-11.478c-.251-.63-47.276-118.133-47.823-119.497h11.478V8.86h-.505Z" fill="#100F0D"/><path d="m100.685 75.017 13.669 34.153H87.017l13.668-34.153Zm-.469-1.547-14.69 36.71h30.32l-15.16-37.882-.47 1.172ZM57.642 122.07l-.973-1.071s3.894-3.31 5.307-4.429c1.411-1.119 3.554-.973 3.846 1.023 0 0 1.126-1.53 2.19-1.655 1.656-.195 1.85 3.114 1.85 3.114s1.155-1.495 2.094-2.725c1.266-1.654 2.775-1.216 2.775 1.022 0 2.239-.34 8.32-.438 10.267-.098 1.947 1.12 3.212 2.093.925l.049 1.022s-.486 2.92-2.142 2.92-2.386-2.093-2.386-4.623v-6.18c0-.827-.437-1.606-1.168-.486-.73 1.119-.877 1.702-.877 2.53V130c0 1.12-.681 1.898-1.8 1.898-1.12 0-1.363-.631-1.363-2.53v-6.715c0-.876-.537-2.335-1.219-.778-.68 1.556-1.022 2.87-1.022 3.99v4.33c0 .73-.097 1.8-1.217 1.8s-1.703-.534-1.703-2.773v-6.374c0-2.287.29-3.456-.098-3.65-.39-.194-1.071.243-3.798 2.871" fill="#100F0D"/><path d="M79.015 129.465c-.153 2.526-1.412.39-1.412-.34v-3.066c0-1.363.698-1.597 1.169-1.362.39.194.438 1.557.243 4.768Zm3.165-3.892c-.562.414-1.315.048-1.315-2.093 0-1.557-.195-2.92-1.412-3.552-.89-.462-3.408-.245-3.408 3.6v4.721c0 .827.292 3.017 2.045 3.844 1.753.828 2.775-.194 2.775-2.725v-1.658c.584.101 1.038-.028 1.46-.19.634-.244 1.218-1.17 1.218-1.17l.146-2.383s-.584.924-1.51 1.606Z" fill="#100F0D"/><path d="M84.76 120.561c-.439-.44-1.46-.438-1.46.876v8.077c0 1.022.535 2.677 1.947 2.726 1.05.037 2.629-2.045 2.629-2.045l-.73-1.411s-.44 1.218-.926 1.46c-.486.243-1.119 0-1.119-1.995v-5.84c0-.875.146-1.36-.342-1.848" fill="#100F0D"/><path d="M88.749 120.745c-.474-.344-1.165-.137-1.457 1.08-.293 1.217-.438 6.327-.341 7.738.097 1.41.743 2.828 1.872 2.747 1.6-.115 3.044-1.969 3.044-1.969l-.388-1.946s-1.131 1.92-1.85 2.044c-.904.155-1.218-.876-1.023-3.26.195-2.385.438-3.746.487-4.477.049-.73.191-1.568-.344-1.957" fill="#100F0D"/><path d="M93.403 120.573c-.56-.3-1.432-.337-1.642 1.809-.176 1.798-.505 4.796-.463 6.733.042 1.935.379 2.692 1.01 3.071.632.379.966-.093 1.137-1.6.252-2.229.379-3.954.42-4.627.043-.674 1.39-1.473 1.348-.21-.042 1.262-.21 3.24.337 4.67.547 1.43 2.568 1.599 4.42-1.052l-.21-2.651s-.716 1.642-1.474 2.188c-.758.546-1.221.335-1.221-1.6 0-1.934.085-4.838.127-5.89.041-1.052-.253-1.767-1.221-1.136-.969.632-2.063 1.977-2.063 1.977s.042-1.388-.505-1.682M117.145 121.245c-.559-.3-1.43-.337-1.641 1.81-.176 1.798-.505 4.796-.463 6.731.042 1.936.38 2.694 1.01 3.073.632.378.966-.095 1.137-1.6.253-2.23.379-3.954.42-4.628.043-.674 1.39-1.472 1.348-.21-.042 1.262-.21 3.24.336 4.67.548 1.43 2.504 2.249 4.356-.402l-.21-2.651s-.717 1.642-1.474 2.189c-.758.545-1.156-.315-1.156-2.25s.084-4.838.126-5.89c.043-1.053-.252-1.768-1.22-1.137-.969.631-2.063 1.978-2.063 1.978s.042-1.389-.506-1.683" fill="#100F0D"/><path d="M104.011 128.778s-.252 1.051-.884 1.725c-.631.673-1.768.714-1.768-2.398 0-1.47.122-3.73.268-5.849h.658c.8 0 1.81-.547.8-.842-.653-.19-.82-.205-1.384-.192.145-1.955.297-3.638.374-4.226.168-1.305.254-1.683-.463-2.02-.53-.25-1.39-.546-1.39.926 0 1.354-.211 3.244-.279 5.37-.64.062-1.164.275-1.741.31-.674.042-.969.843-.042.758a27.988 27.988 0 0 1 1.756-.068c-.085 2.477-.495 6.902.18 8.567.716 1.767 1.601 2.357 2.779 1.726 1.178-.631 1.852-2.315 1.852-2.315l-.716-1.472" fill="#100F0D"/><path d="M107.563 128.143c.03 1.034-.401 1.867-.89 1.982-.49.116-1.092-1.178-.662-3.965.431-2.788.835-3.593 1.812-3.163 0 0-.288 4.111-.26 5.146Zm4.026 1.35s-.747.604-1.265.662c-.518.057-1.005-.689-.862-2.156.143-1.466.315-3.334.46-4.168.143-.834.316-1.149-.03-1.292 0 0-.69-.317-.976-.748-.288-.431-.806-1.063-1.353-1.264-.546-.201-2.328-.26-3.047 4.023-.72 4.282.08 6.814.833 7.645 1.122 1.236 3.048-.805 3.048-.805s1.754.977 3.739-.402l-.547-1.494Z" fill="#100F0D"/><path d="M112.71 121.417c-.891-.14-1.494.432-1.494 2.645s-.059 4.943.171 6.093c.232 1.15.69 2.186 1.755 2.27 1.438.115 2.588-1.495 2.588-1.495l-.575-1.263s-.489.69-.92 1.006c-.43.315-1.324.17-1.266-2.3.059-2.472.173-4.11.317-5.059.144-.948-.029-1.811-.575-1.897M113.919 117.508c0 .747-.567 1.351-1.265 1.351-.7 0-1.267-.604-1.267-1.351 0-.746.567-1.35 1.267-1.35.698 0 1.265.604 1.265 1.35M124.3 125.547c.163-3.607 1.203-4.516 1.658-4.223.457.292.553 1.526.195 3.021-.296 1.236-1.47 2.725-1.87 3.207a27.23 27.23 0 0 1 .017-2.005Zm4.097 3.38c-.781 1.43-1.594 2.86-2.731 2.697-.661-.095-1.06-1.005-1.253-2.4 4.31-2.802 3.987-8.077 1.87-9.071-2.145-1.008-4.145 2.015-4.145 6.5 0 7.474 4.048 6.466 4.828 5.848.78-.617 1.853-2.339 1.853-2.339l-.422-1.236Z" fill="#100F0D"/><path d="M142.173 132.123c-.948.568-1.58-.947-1.58-.947.632-.757 1.643-2.777 1.643-2.777.694 1.326.884 3.156-.063 3.724Zm-12.253-6.576c.162-3.607 1.203-4.516 1.658-4.223.457.292.553 1.526.195 3.021-.296 1.236-1.47 2.725-1.87 3.207a27.113 27.113 0 0 1 .017-2.005Zm13.958-3.396c-.38-.253 0-.631-.38-.947-.378-.316-.757-.316-1.2 1.073-.441 1.389-1.01 5.554-2.399 7.7-1.39 2.146-2.336.82-2.273-.442.063-1.262.631-4.418.884-5.617.252-1.2-.063-1.578-.505-1.578s-1.074-.315-1.642-.757c-.568-.442-.947-.379-.947.126s-.126 2.335-1.01 5.554c-.885 3.219-2.337 4.36-3.12 4.36-.668 0-1.06-1.004-1.253-2.4 4.078-2.886 3.987-8.076 1.87-9.07-2.145-1.008-4.171 2.015-4.171 6.5 0 7.474 3.66 6.908 4.538 6.417 2.704-1.515 3.588-7.006 3.588-7.006l.631.19-.316 2.145c-.315 2.146-.063 3.345.948 4.166 1.01.82 3.094.19 3.094.19s1.2 1.072 2.526 1.072c1.326 0 1.705-1.767 1.705-3.408s.063-5.112.063-6.122c0-1.01-.253-1.894-.631-2.146Z" fill="#100F0D"/></g></svg>