<svg width="200" height="200" xmlns="http://www.w3.org/2000/svg"><g fill="none"><path d="M143.085 40.46c-13.967 21.324-17.617 44.947-20.393 68.031l-.08.674-3.099-2.703-14.126 7.202-.03 7.96H93.59l-.03-7.96-14.122-7.202-3.107 2.703-.078-.674c-2.78-23.084-6.425-46.707-20.392-68.031l-.21-.322.35.17a87.444 87.444 0 0 1 3.004 1.527c8.55 4.536 13.598 9.19 20.16 18.26l.019.015 1.553 1.845c-1.701-.796-4.06-1.943-6.373-2.788-.814-.298-2.397-.743-2.397-.743.326.543.973 1.654 1.2 2.07 4.959 9.15 8.282 25.546 9.92 33.638.191.925.347 1.735.493 2.392.1.478.267.763.52 1.107.306.4.723.628.887.726l4.263 1.943 2.028.932c.176.076.443.172.782.184h.028c.319 0 .791-.091 1.193-.516.034-.036.05-.068.083-.11.372-.42.48-.81.521-1.359a98.75 98.75 0 0 0 .169-2.131c.16-2.164.284-4.556.389-7.116.55-13.552.418-31.576.328-42.597-.031-3.649-.057-6.8-.057-9.186v-.044l.037-.028c.728-.76 1.872-1.915 2.2-2.255-.456.172-1.372.605-2.558 1.323a39.81 39.81 0 0 0-2.066 1.363 36.859 36.859 0 0 0-4.111 3.439l-.245.24.07-.338c1.414-7.238 2.439-12.736 3.982-17.96a69.76 69.76 0 0 1 2.307-6.602c1.293-3.18 2.911-7.75 5.062-11.507l.084-.142.08.142c2.155 3.756 3.766 8.326 5.067 11.507a70.337 70.337 0 0 1 2.3 6.601c1.541 5.225 2.574 10.723 3.989 17.961l.063.338-.242-.24c-.274-.261-.545-.523-.822-.773a36.938 36.938 0 0 0-3.29-2.666 36.968 36.968 0 0 0-2.066-1.363c-1.19-.718-2.099-1.151-2.558-1.323.333.34 1.472 1.495 2.205 2.255l.03.028v.044c.007 2.386-.02 5.537-.05 9.186-.094 11.02-.224 29.045.324 42.597.108 2.56.23 4.952.388 7.116.057.735.11 1.453.168 2.131.042.548.155.94.522 1.36.033.041.057.073.084.11.402.424.872.515 1.192.515h.029c.337-.012.606-.108.777-.184l2.03-.932 4.26-1.943c.173-.098.59-.326.886-.726.262-.344.43-.63.531-1.107a301.6 301.6 0 0 0 .488-2.392c1.64-8.092 4.966-24.488 9.92-33.638.23-.416.875-1.527 1.2-2.07 0 0-1.58.445-2.398.743-2.312.845-4.666 1.992-6.367 2.788l1.552-1.845.016-.016c6.562-9.069 11.614-13.723 20.158-18.259a89.852 89.852 0 0 1 3.006-1.527l.349-.17-.21.322zm-37.694 86.898H93.559v-4.063h11.832v4.063zm-10.558 4.544v-2.968h9.282v2.968h-9.282zm10.524 1.746l-.39 3.851h-10.99l-.39-3.85-.016-.168h11.806l-.02.167zm-5.882 52.973L94.2 139.083h10.544l-5.269 47.538zm49.332-152.605c-27.647 11.829-35.359 32.222-35.375 32.276l-.312.828.77-.453c2.221-1.307 6.257-3.503 9.024-4.643-3.23 6.872-7.944 20.117-9.847 29.511-.168.833-.443 1.532-.586 2.193-.094.433-.174.698-.347 1.024-.2.392-.563.699-.996 1.042-.345.286-2.232 1.213-2.235 1.216a18.75 18.75 0 0 1-.878.44c-.233.112-.467.222-.66.303-.01.005-.026.009-.03.013l-.104-1.716c-.64-16.13-.856-26.26-.852-33.825 0-8.105.241-13.277.47-19.79 1.784 1.458 7.23 5.965 7.239 5.965l.577.487-.062-.756c-1.086-12.444-4.758-24.346-7.248-31.136a72.63 72.63 0 0 0-2.448-5.867C102.212 5.4 99.861.893 99.755.685l-.28-.543-.283.543c-.108.208-2.459 4.715-5.16 10.443a75.25 75.25 0 0 0-2.44 5.867c-2.487 6.79-6.158 18.692-7.248 31.136l-.07.75.585-.481c.006-.004 5.454-4.512 7.243-5.965.224 6.513.47 11.685.47 19.79 0 7.566-.212 17.695-.856 33.835l-.105 1.706c-.56-.233-1.557-.748-1.557-.748-.01-.008-1.896-.938-2.247-1.224-.435-.343-.795-.65-.997-1.042-.166-.326-.247-.591-.34-1.02-.143-.665-.427-1.364-.59-2.197-1.907-9.394-6.615-22.639-9.844-29.51 2.764 1.139 6.804 3.335 9.023 4.642l.771.453-.316-.828c-.016-.054-7.728-20.447-35.378-32.276l-.89-.379.5.837c.003.004 3.397 5.67 7.227 13.11 3.842 7.43 8.102 16.62 9.821 23.59 1.6 6.468 6.52 27.428 6.52 45.185 0 1.784-.048 3.54-.158 5.242l.596.164c.006-.006.939-1.822 2.125-3.944 1.002-1.801 2.196-3.822 3.116-5.104l5.866 46.279.628-.016 2.215-34.647 11.456 74.69h.627l11.459-74.694 2.213 34.651.63.016 5.87-46.279c.917 1.282 2.108 3.303 3.111 5.104a132.694 132.694 0 0 1 2.124 3.944l.597-.164a82.407 82.407 0 0 1-.157-5.242c0-17.757 4.92-38.722 6.518-45.185 1.721-6.97 5.983-16.16 9.816-23.59 3.837-7.44 7.232-13.102 7.235-13.11l.502-.841-.895.383z" fill="#8A0C3C"/><path d="M139.941 41.835c-8.544 4.536-13.596 9.19-20.158 18.26l-.016.015-1.552 1.845c1.7-.796 4.055-1.943 6.367-2.788.819-.298 2.399-.743 2.399-.743-.326.543-.97 1.654-1.2 2.07-4.955 9.15-8.282 25.546-9.92 33.638-.187.925-.35 1.735-.489 2.392-.1.478-.27.763-.531 1.107-.296.4-.713.628-.885.726l-4.26 1.943-2.03.932a2.105 2.105 0 0 1-.778.184h-.029c-.32 0-.79-.091-1.192-.516l-.084-.11c-.367-.42-.48-.81-.522-1.359-.057-.678-.111-1.396-.168-2.131-.157-2.164-.28-4.556-.388-7.116-.548-13.552-.418-31.576-.324-42.597.03-3.649.057-6.8.05-9.186v-.044l-.03-.028c-.733-.76-1.872-1.915-2.205-2.255.46.172 1.368.605 2.558 1.323.622.38 1.315.834 2.066 1.363a36.938 36.938 0 0 1 3.29 2.666c.277.25.548.512.822.773l.242.24-.063-.338c-1.415-7.238-2.448-12.736-3.988-17.96a70.63 70.63 0 0 0-2.301-6.602c-1.3-3.18-2.912-7.75-5.068-11.507l-.079-.142-.084.142c-2.15 3.756-3.77 8.326-5.062 11.507a69.76 69.76 0 0 0-2.307 6.601c-1.543 5.225-2.568 10.723-3.983 17.961l-.07.338.246-.24c.273-.261.549-.523.82-.773a36.859 36.859 0 0 1 3.291-2.666c.75-.53 1.448-.984 2.066-1.363 1.186-.718 2.102-1.151 2.557-1.323-.327.34-1.47 1.495-2.2 2.255l-.036.028v.044c0 2.386.026 5.537.057 9.186.09 11.02.222 29.045-.328 42.597-.105 2.56-.229 4.952-.39 7.116a98.75 98.75 0 0 1-.168 2.131c-.042.548-.15.94-.521 1.36-.033.041-.049.073-.083.11a1.616 1.616 0 0 1-1.193.515h-.028a2.129 2.129 0 0 1-.782-.184l-2.028-.932-4.263-1.943c-.164-.098-.58-.326-.887-.726-.253-.344-.42-.63-.52-1.107-.146-.657-.302-1.467-.493-2.392-1.638-8.092-4.961-24.488-9.92-33.638a83.296 83.296 0 0 0-1.2-2.07s1.583.445 2.397.743c2.314.845 4.672 1.992 6.373 2.788l-1.553-1.845-.018-.016c-6.563-9.069-11.611-13.723-20.16-18.259A87.444 87.444 0 0 0 56 40.308l-.35-.17.21.322c13.967 21.324 17.611 44.947 20.392 68.031l.078.674 3.107-2.703 14.122 7.202.03 7.96h11.768l.03-7.96 14.126-7.202 3.1 2.703.079-.674c2.776-23.084 6.426-46.707 20.393-68.031l.21-.322-.348.17a89.852 89.852 0 0 0-3.006 1.527m-46.382 81.46v4.063h11.832v-4.063H93.559m.641 15.788l5.275 47.538 5.269-47.538zm5.275-5.602h-5.904l.017.167.39 3.851h10.989l.39-3.85.02-.168h-5.902m4.64-1.579v-2.968h-9.282v2.968h9.282" fill="#FBC622"/><path d="M113.923 161.088a.696.696 0 0 0-.241-.033h-.101v.461h.161a.384.384 0 0 0 .228-.058c.054-.039.082-.101.082-.188 0-.088-.043-.148-.129-.182zm-.76 1.278v-1.591h.444l.328.003c.126.01.23.037.314.082.14.078.212.205.212.38 0 .134-.037.23-.112.29a.521.521 0 0 1-.276.107c.1.02.176.05.226.091.093.076.14.195.14.357v.143c0 .015.002.03.004.046a.22.22 0 0 0 .011.047l.015.045h-.398a1.194 1.194 0 0 1-.026-.22.75.75 0 0 0-.026-.195.192.192 0 0 0-.117-.117.458.458 0 0 0-.142-.025l-.091-.006h-.088v.563h-.417zm-.213-1.63c-.229.233-.343.51-.343.831 0 .333.116.615.349.848.23.232.51.348.837.348.326 0 .604-.117.836-.35.23-.235.346-.517.346-.846 0-.32-.115-.596-.345-.831a1.127 1.127 0 0 0-.837-.359c-.33 0-.61.12-.843.359zm1.848 1.861c-.28.27-.614.406-1.005.406-.404 0-.744-.139-1.02-.415a1.388 1.388 0 0 1-.415-1.02c0-.42.149-.768.447-1.046.281-.26.61-.39.988-.39.396 0 .734.14 1.015.42.28.281.42.62.42 1.015 0 .408-.143.751-.43 1.03z" fill="#8A0C3C"/></g></svg>