<svg width="200" height="200" xmlns="http://www.w3.org/2000/svg"><g fill="none"><path fill="#FFF" d="M105.044 110.955l-13.513-35.59-13.989 35.59z"/><path d="M91.532 75.365l13.512 35.59H77.542l13.99-35.59zm-18.13 46.342h35.854l8.811 22.645s.686 2.036-.128 3.392c-1.16 1.933-2.307 2.154-2.702 2.17h28.33c-8.143 0-13.154-12.346-13.154-12.346L91.292 36.125 52.237 137.568s-5.015 12.345-13.153 12.345h28.327c-.393-.015-1.536-.236-2.69-2.169-.814-1.356-.143-3.392-.143-3.392l8.823-22.645z" fill="#C21B32"/><path fill="#1D2953" d="M132.03 63.818h8.52V22.281H42.102v41.537h8.525l-27.134 72.31H6.564v41.555h75.38v-27.87h-13.41v14.213H20.78v-14.613h11.397l38.528-99.306h-14.65v-14.11h70.548v14.11h-14.65l38.526 99.306h11.397v14.613H114.12v-14.214h-13.41v27.87h75.378v-41.555h-16.926L132.03 63.818m62.181 106.314c.699 0 1.32.054 1.32.791 0 .793-1.083.66-1.875.66h-.898v-1.45h1.453zm.608 2.296c.775-.026 1.554-.45 1.554-1.596 0-1.229-.949-1.544-2.004-1.544h-2.454v5.83h.843v-2.69h1.082l1.491 2.69h.963l-1.475-2.69zm-.9 4.922c2.902 0 5.199-2.295 5.199-5.185 0-2.89-2.297-5.185-5.199-5.185-2.9 0-5.198 2.294-5.198 5.185 0 2.89 2.297 5.185 5.198 5.185zm0-9.527c2.375 0 4.356 1.888 4.356 4.342 0 2.44-1.981 4.34-4.356 4.34-2.374 0-4.352-1.9-4.352-4.34 0-2.454 1.978-4.342 4.352-4.342z"/><path d="M176.089 177.683h-75.377v-27.87h13.408v14.214h47.755v-14.613h-11.397L111.95 50.106h14.653V35.997h-70.55v14.109h14.651l-38.529 99.308H20.78v14.613h47.756v-14.215h13.409v27.87H6.564v-41.555h16.928l27.134-72.309h-8.524V22.281h98.449v41.537h-8.52l27.132 72.31h16.926v41.555zM64.72 147.744c1.154 1.933 2.297 2.153 2.69 2.17h.003-28.329c8.137 0 13.153-12.346 13.153-12.346L91.29 36.125l39.123 101.443s5.011 12.345 13.154 12.346h-28.485.155c.395-.017 1.542-.237 2.701-2.17.815-1.357.13-3.392.13-3.392l-8.812-22.645H73.402l-8.822 22.645s-.673 2.035.141 3.392zm98.98-18.249l-22.105-59.074 5.547-.043v-54.7H35.496v54.7h5.62l-22.24 59.117H0v54.798h182.651v-54.798h-18.95z" fill="#FFF"/></g></svg>