<svg width="200" height="200" xmlns="http://www.w3.org/2000/svg"><g fill-rule="nonzero" fill="none"><path d="M142.84 40.46c-13.968 21.324-17.618 44.947-20.395 68.031l-.079.674-3.099-2.703-14.126 7.202-.03 7.96H93.343l-.03-7.96-14.122-7.202-3.107 2.703-.078-.674c-2.78-23.084-6.425-46.707-20.392-68.031l-.21-.322.35.17a87.444 87.444 0 0 1 3.004 1.527c8.55 4.536 13.598 9.19 20.16 18.26l.019.015 1.552 1.845c-1.7-.796-4.058-1.943-6.372-2.788-.814-.298-2.398-.743-2.398-.743.327.543.974 1.654 1.2 2.07 4.96 9.15 8.282 25.546 9.921 33.638.19.925.347 1.735.493 2.392.1.478.267.763.52 1.107.306.4.723.628.887.726l4.263 1.943 2.028.932c.175.076.443.172.782.184h.028c.318 0 .79-.091 1.193-.516.034-.036.05-.068.083-.11.372-.42.48-.81.521-1.359a98.75 98.75 0 0 0 .168-2.131c.161-2.164.285-4.556.39-7.116.55-13.552.418-31.576.328-42.597-.031-3.649-.057-6.8-.057-9.186v-.044l.037-.028c.728-.76 1.871-1.915 2.2-2.255-.456.172-1.373.605-2.558 1.323-.618.38-1.315.834-2.066 1.363a36.859 36.859 0 0 0-4.112 3.439l-.244.24.069-.338c1.415-7.238 2.44-12.736 3.983-17.96a69.76 69.76 0 0 1 2.307-6.602c1.292-3.18 2.911-7.75 5.062-11.507l.084-.142.08.142c2.155 3.756 3.766 8.326 5.067 11.507a70.337 70.337 0 0 1 2.3 6.601c1.54 5.225 2.574 10.723 3.989 17.961l.063.338-.242-.24c-.274-.261-.546-.523-.822-.773a36.938 36.938 0 0 0-3.29-2.666 36.968 36.968 0 0 0-2.067-1.363c-1.189-.718-2.098-1.151-2.557-1.323.333.34 1.472 1.495 2.205 2.255l.03.028v.044c.007 2.386-.02 5.537-.05 9.186-.094 11.02-.224 29.045.324 42.597.108 2.56.23 4.952.388 7.116.057.735.11 1.453.167 2.131.043.548.156.94.523 1.36l.084.11c.402.424.872.515 1.192.515h.029c.337-.012.606-.108.777-.184l2.03-.932 4.26-1.943c.173-.098.59-.326.886-.726.262-.344.43-.63.53-1.107.139-.657.302-1.467.489-2.392 1.64-8.092 4.966-24.488 9.92-33.638.23-.416.875-1.527 1.2-2.07 0 0-1.58.445-2.398.743-2.312.845-4.667 1.992-6.367 2.788l1.552-1.845.015-.016c6.562-9.069 11.615-13.723 20.16-18.259a89.852 89.852 0 0 1 3.005-1.527l.349-.17-.21.322Zm-37.695 86.898H93.313v-4.063h11.832v4.063Zm-10.558 4.544v-2.968h9.282v2.968h-9.282Zm10.524 1.746-.39 3.851H93.73l-.39-3.85-.016-.168H105.131l-.02.167Zm-5.882 52.973-5.276-47.538h10.544l-5.268 47.538Zm49.332-152.605c-27.648 11.829-35.359 32.222-35.375 32.276l-.312.828.77-.453c2.22-1.307 6.257-3.503 9.024-4.643-3.23 6.872-7.944 20.117-9.847 29.511-.168.833-.443 1.532-.586 2.193-.095.433-.174.698-.347 1.024-.2.392-.563.699-.996 1.042-.345.286-2.232 1.213-2.236 1.216-.008.008-.425.226-.877.44-.234.112-.468.222-.66.303-.01.005-.026.009-.03.013l-.105-1.716c-.64-16.13-.855-26.26-.851-33.825 0-8.105.241-13.277.47-19.79 1.784 1.458 7.23 5.965 7.238 5.965l.578.487-.062-.756c-1.086-12.444-4.758-24.346-7.249-31.136a72.63 72.63 0 0 0-2.447-5.867C101.966 5.4 99.615.893 99.509.685l-.28-.543-.284.543c-.107.208-2.458 4.715-5.159 10.443a75.25 75.25 0 0 0-2.44 5.867c-2.487 6.79-6.158 18.692-7.248 31.136l-.07.75.585-.481c.005-.004 5.454-4.512 7.242-5.965.225 6.513.47 11.685.47 19.79 0 7.566-.212 17.695-.855 33.835l-.105 1.706c-.56-.233-1.557-.748-1.557-.748-.01-.008-1.896-.938-2.247-1.224-.435-.343-.795-.65-.997-1.042-.167-.326-.247-.591-.341-1.02-.142-.665-.426-1.364-.59-2.197-1.906-9.394-6.614-22.639-9.843-29.51 2.764 1.139 6.803 3.335 9.022 4.642l.772.453-.316-.828c-.016-.054-7.729-20.447-35.378-32.276l-.89-.379.5.837c.003.004 3.397 5.67 7.227 13.11 3.842 7.43 8.102 16.62 9.82 23.59 1.602 6.468 6.521 27.428 6.521 45.185 0 1.784-.048 3.54-.158 5.242l.595.164c.007-.006.94-1.822 2.126-3.944 1.002-1.801 2.196-3.822 3.116-5.104l5.866 46.279.628-.016 2.215-34.647 11.456 74.69h.627l11.459-74.694 2.212 34.651.631.016 5.87-46.279c.917 1.282 2.108 3.303 3.11 5.104a132.694 132.694 0 0 1 2.125 3.944l.597-.164a82.407 82.407 0 0 1-.158-5.242c0-17.757 4.921-38.722 6.519-45.185 1.72-6.97 5.983-16.16 9.816-23.59 3.837-7.44 7.232-13.102 7.235-13.11l.502-.841-.896.383Z" fill="#8A0C3C"/><path d="M139.695 41.835c-8.544 4.536-13.597 9.19-20.159 18.26l-.015.015-1.552 1.845c1.7-.796 4.055-1.943 6.367-2.788.818-.298 2.399-.743 2.399-.743-.326.543-.97 1.654-1.2 2.07-4.955 9.15-8.282 25.546-9.921 33.638-.187.925-.35 1.735-.488 2.392-.1.478-.27.763-.531 1.107-.296.4-.713.628-.886.726l-4.26 1.943-2.03.932c-.171.076-.44.172-.777.184h-.03c-.32 0-.789-.091-1.191-.516l-.084-.11c-.367-.42-.48-.81-.523-1.359-.056-.678-.11-1.396-.167-2.131-.157-2.164-.28-4.556-.388-7.116-.548-13.552-.418-31.576-.324-42.597.03-3.649.057-6.8.05-9.186v-.044l-.03-.028c-.733-.76-1.872-1.915-2.205-2.255.46.172 1.368.605 2.557 1.323.623.38 1.315.834 2.067 1.363a36.938 36.938 0 0 1 3.29 2.666c.276.25.548.512.822.773l.242.24-.063-.338c-1.415-7.238-2.448-12.736-3.989-17.96-.649-2.21-1.4-4.376-2.3-6.602-1.3-3.18-2.912-7.75-5.068-11.507l-.079-.142-.084.142c-2.151 3.756-3.77 8.326-5.062 11.507a69.76 69.76 0 0 0-2.307 6.601c-1.543 5.225-2.568 10.723-3.983 17.961l-.07.338.245-.24a36.859 36.859 0 0 1 4.112-3.438c.75-.53 1.448-.985 2.066-1.364 1.185-.718 2.102-1.151 2.557-1.323-.328.34-1.471 1.495-2.2 2.255l-.036.028v.044c0 2.386.026 5.537.057 9.186.09 11.02.222 29.045-.329 42.597-.104 2.56-.228 4.952-.389 7.116a98.75 98.75 0 0 1-.168 2.131c-.042.548-.15.94-.521 1.36-.033.041-.049.073-.083.11a1.616 1.616 0 0 1-1.193.515h-.028a2.129 2.129 0 0 1-.782-.184l-2.028-.932-4.263-1.943c-.164-.098-.58-.326-.887-.726-.253-.344-.42-.63-.52-1.107-.146-.657-.302-1.467-.493-2.392-1.639-8.092-4.962-24.488-9.92-33.638a83.296 83.296 0 0 0-1.2-2.07s1.583.445 2.397.743c2.314.845 4.671 1.992 6.372 2.788l-1.552-1.845-.018-.016c-6.563-9.069-11.611-13.723-20.161-18.259a87.444 87.444 0 0 0-3.004-1.527l-.35-.17.21.322C69.58 61.784 73.225 85.407 76.006 108.49l.078.674 3.107-2.703 14.122 7.202.03 7.96h11.768l.03-7.96 14.126-7.202 3.1 2.703.078-.674c2.777-23.084 6.427-46.707 20.394-68.031l.21-.322-.348.17a89.852 89.852 0 0 0-3.006 1.527M93.313 123.295v4.063h11.832v-4.063H93.313M93.953 139.083l5.276 47.538 5.268-47.538zM99.23 133.481h-5.905l.016.167.39 3.851h10.99l.39-3.85.02-.168H99.23M103.869 131.902v-2.968h-9.282v2.968h9.282" fill="#FBC622"/><path d="M113.677 161.088a.696.696 0 0 0-.241-.033h-.101v.461h.161c.097 0 .173-.019.228-.058.054-.039.082-.101.082-.188 0-.088-.043-.148-.129-.182Zm-.76 1.278v-1.591h.443l.329.003c.126.01.23.037.313.082.142.078.213.205.213.38 0 .134-.038.23-.112.29a.521.521 0 0 1-.276.107c.1.02.175.05.226.091.093.076.14.195.14.357v.143l.003.046a.22.22 0 0 0 .012.047l.014.045h-.397a1.194 1.194 0 0 1-.026-.22.75.75 0 0 0-.027-.195.192.192 0 0 0-.116-.117.458.458 0 0 0-.142-.025l-.092-.006h-.087v.563h-.417Zm-.213-1.63c-.229.233-.344.51-.344.831 0 .333.117.615.35.848.23.232.51.348.837.348.325 0 .604-.117.835-.35.231-.235.347-.517.347-.846 0-.32-.115-.596-.345-.831a1.127 1.127 0 0 0-.837-.359c-.33 0-.61.12-.843.359Zm1.847 1.861c-.278.27-.613.406-1.004.406-.404 0-.745-.139-1.02-.415a1.388 1.388 0 0 1-.415-1.02c0-.42.149-.768.447-1.046.28-.26.61-.39.988-.39.396 0 .734.14 1.014.42.281.281.421.62.421 1.015 0 .408-.144.751-.43 1.03Z" fill="#8A0C3C"/></g></svg>