<svg width="200" height="200" xmlns="http://www.w3.org/2000/svg" xmlns:xlink="http://www.w3.org/1999/xlink"><defs><path id="a" d="M0 .34h199.906v165.208H0z"/></defs><g fill="none" fill-rule="evenodd"><g transform="translate(0 17.112)"><mask id="b" fill="#fff"><use xlink:href="#a"/></mask><path d="M107.64.34c-1.036 2.364-.966 5.805.43 7.99 3.47 4.802 8.94 5.84 13.983 7.382 7.26 1.937 15.02 2.687 22.137 5.015 6.4 2.726 11.19 9.283 13.482 15.555.535-.718.607-1.829 1.106-2.652 1.575-3.62 5.19-5.842 8.764-6.632-2.148 3.227-3.574 7.849-1.718 11.684 4.4-.536 10.122-1.291 13.055 2.685v.145c-1.611.538-3.434 1.184-4.221 2.938-.5 1.828.394 3.477 1.358 4.91 4.437 5.053 9.978 10.607 8.082 17.952l.073.109c2.86-3.298 6.47-5.413 11.014-4.981-2.216 6.303-4.753 12.575-4.578 19.778.217.752.217 1.54.609 2.223 2.466-1.254 5.901-1.22 8.69-.682-1.68 2.364-4.469 4.407-5.685 7.057-.753 7.992 4.541 16.594-.43 23.903v.324c1.932 2.973 3.362 7.165 1.646 10.678-1.684-1.433-3.4-3.583-5.69-2.83-1.178.716-1.533 2.04-2.465 3.01-3.432 5.017-8.475 10.033-14.949 9.64-.891-.075-1.714.428-2.575.248.466 3.154.43 6.954-.93 9.785-.894 2.648-2.646 5.48-5.4 6.629-.644-.575.467-.967.575-1.542.536-1.647.07-3.512-1.002-4.801-.393-.286-.717-.647-1.217-.613-.715 3.552-3.435 7.242-6.936 8.422-1.077.252-2.183.503-3.112 1.113-.18 1.218-.18 2.579.787 3.439-.645.61-1.467 0-2.075-.25-.108 1.648-.535 3.51-1.969 4.55h-.358c-.07-.716.324-1.434-.07-2.042-.822 1.29-2.502 1.792-3.861 2.402-.682-.862 1.644-1.685.072-2.331-2.503 1.255-7.44-.5-7.548 3.871.038.286-.106.679.181.862-1.288.034-2.505-.934-3.505-1.973-.216.323-.322.501-.715.249-.788-.462-1.754-1.07-2.146-1.97-.145.536.25 1.077.356 1.614-1.322.07-2.324-1.22-3.362-2.222-3.54 1.754-8.726.392-11.05 4.371-.178.073-.32.251-.536.179-.749-1.36.287-2.796.786-4.05-2.61.755-5.436.755-8.33.361-5.186-1.792-11.302-4.769-16.989-1.973-1.752.755-3.146 2.332-4.971 2.83 2.29-3.868 2.791-8.742 6.509-11.787-3.325-.43-6.651-.931-9.336-2.903-4.182-3.87-9.974-3.87-15.3-5.017-7.048.43-13.664 1.828-20.495 2.759-.036-1.075.966-1.936 1.609-2.83l2.86-3.01c-7.902 1.36-15.806.536-22.492-3.261-2.219-1.076-4.22-2.615-6.26-4.05 4.006.611 8.69.504 12.446-1.037 5.043-1.793 9.834-6.237 12.876-10.93-4.29 1.22-8.584 2.937-12.555 5.16.251-2.043.895-4.157 1.287-6.273 1.826-5.803 4.72-11.286 9.874-15.657-7.904-2.832-16.882-5.844-21.353-14.262 2.29 1.326 4.829 2.293 7.439 2.582-6.47-7.06-8.583-15.984-9.083-25.551-.5-.967-.323-2.222-1.287-3.009-2.323-2.223-5.33-2.76-8.403-3.192-5.33-.357-10.408.397-14.77 2.508C8.833 49.145 23.315 38.933 39.73 39.97l1.718.43c-.43-8.025 4.11-15.122 10.656-19.42h.322c.287 5.302 3.11 10.785 8.153 12.901.606.141 1.142.394 1.715.501-.142-.791-.75-1.613-1-2.471-2.54-6.846-.965-14.659 3.577-20.07.285.753.535 1.684.785 2.508 3.683 8.925 14.197 6.487 20.599 11.432.501-2.832-.393-6.163 1.108-8.671 2.147-3.62 5.295-7.238 8.835-9.82-.894 4.839-.108 10.213 2.323 14.298l.787.753.071-.073c-3.18-4.083-1.466-10.103.858-14.01 1.826-2.902 4.22-6.272 7.403-7.918" fill="#020303" mask="url(#b)"/></g><path d="M83.869 176.688c-.29.522-.694.93-1.216 1.22a3.307 3.307 0 0 1-1.638.435 3.303 3.303 0 0 1-1.637-.436 3.085 3.085 0 0 1-1.22-1.22 3.363 3.363 0 0 1-.437-1.639c0-.575.15-1.124.445-1.654a3.046 3.046 0 0 1 1.23-1.22 3.393 3.393 0 0 1 1.62-.425c.551 0 1.09.143 1.618.425.525.286.936.693 1.228 1.22.295.53.44 1.079.44 1.654a3.36 3.36 0 0 1-.433 1.64m-.478-3.021a2.562 2.562 0 0 0-1.028-1.015 2.823 2.823 0 0 0-1.348-.359c-.464 0-.911.122-1.35.359-.437.237-.779.578-1.027 1.015-.247.444-.37.905-.37 1.38 0 .476.12.93.363 1.368.244.437.583.775 1.018 1.018.439.24.89.363 1.366.363.473 0 .93-.122 1.364-.363.438-.243.774-.581 1.017-1.018.24-.438.361-.892.361-1.368 0-.475-.121-.936-.366-1.38m-1.31 2.233c.121.515.21.87.28 1.013h-.492c-.061-.106-.144-.424-.24-.88-.11-.51-.312-.699-.743-.716h-.449v1.596h-.473v-3.634c.24-.048.59-.081.91-.081.51 0 .843.099 1.072.308.18.157.291.41.291.697 0 .483-.315.806-.696.937v.018c.279.098.45.36.54.742m-.327-1.648c0-.473-.343-.682-.846-.682-.23 0-.39.023-.471.045v1.34h.49c.506 0 .827-.277.827-.703" fill="#020303"/><path d="M83.862 173.393a3.044 3.044 0 0 0-1.228-1.218 3.408 3.408 0 0 0-1.619-.427c-.553 0-1.092.145-1.62.427a3.039 3.039 0 0 0-1.229 1.218 3.347 3.347 0 0 0-.445 1.656c0 .567.148 1.113.435 1.638.293.524.7.93 1.22 1.221a3.31 3.31 0 0 0 3.276 0c.523-.29.927-.697 1.217-1.221.288-.525.433-1.07.433-1.638 0-.577-.145-1.126-.44-1.656m-.465 3.022a2.56 2.56 0 0 1-1.018 1.017 2.767 2.767 0 0 1-1.364.364c-.475 0-.929-.122-1.366-.364a2.578 2.578 0 0 1-1.018-1.017 2.77 2.77 0 0 1-.362-1.368 2.8 2.8 0 0 1 .368-1.38c.25-.438.59-.778 1.028-1.016a2.81 2.81 0 0 1 1.35-.357c.458 0 .908.12 1.347.357.439.238.782.578 1.027 1.017.247.443.367.903.367 1.38 0 .474-.12.93-.36 1.367" fill="#020303"/><path d="M82.081 175.9c-.091-.383-.262-.644-.539-.743v-.019c.38-.13.694-.453.694-.935 0-.29-.11-.54-.29-.697-.23-.21-.562-.31-1.072-.31-.319 0-.671.035-.91.083v3.632h.472v-1.594h.451c.43.016.632.206.74.716.1.456.182.774.241.878h.493c-.071-.14-.16-.496-.28-1.01m-1.155-.947h-.49v-1.34c.083-.021.241-.046.471-.046.503 0 .847.21.847.684 0 .424-.322.702-.828.702" fill="#020303"/><path d="M108.394 32.823c8.045 4.802 18.878 2.795 27.713 5.59 6.793 1.9 14.342 4.947 17.596 12.22 1.356 3.585 3.43 6.915 2.86 11.181-1.144 7.023-7.939 11.503-13.663 14.728-4.216 3.546-3.323 9.532-3.43 14.761.393 3.083 1.464 5.879 3.862 8.1-1.896-.97-4.041-1.433-5.758-2.938-.289-.18-.61 0-.86.178.43.931 1.18 1.721 1.896 2.508-2.861-.932-5.97-2.974-7.367-5.84-.32-2.76-.501-5.661-.18-8.526.395-4.302 1.934-8.1 1.97-12.544.07-7.633-1.146-15.228-7.906-19.78-5.972-5.196-14.16-4.946-19.99-10.498-2.897-2.51-5.258-5.95-4.721-9.89.395-2.618 2.005-4.765 3.862-6.81-.393 3.333 1.29 6.02 4.116 7.56" fill="#EEB310"/><path d="M94.658 38.523c5.866 10.425 18.384 7.703 26.179 14.87 8.26 6.053 8.726 16.661 7.403 26.23-.858 5.733-.287 11.645 2.468 16.41l2.072 2.33c-5.326-.536-9.835 1.397-14.519 2.69-4.505-2.795-8.26-7.383-7.472-13.08.394-5.485 2.323-11.683 0-16.878-.43.931-.465 2.112-.932 3.117-2.467 6.27-7.616 13.364-3.506 20.461 2.791 4.05 6.833 7.561 8.048 12.217.358 1.688.43 3.872.252 5.341-1.324 5.983-5.223 10.928-6.76 16.84.466-4.371.928-9.744 2.646-14.118.43-1.862.36-4.155-.251-5.91-2.754.105-5.438 1.54-8.403.859a7.846 7.846 0 0 1-3.54-2.257c-.287-.109-.322.179-.43.357v.25c-.749-1.073-1.25-2.508-1.107-3.94-.072-.181-.214-.323-.323-.428l-.43.247 1.111-2.936-.358-.324c.571-.895 1.322-1.54 2.323-1.721 2.934-.322 5.292 1.329 7.544 2.906l.181-.145c-1.93-2.761-4.756-5.696-8.332-4.838-1.716 1.075-2.824 2.832-3.684 4.48.178.25.428.429.787.358-.07 1.112-1.072 2.294-.714 3.512.213.143.607.143.787-.074.32 2.258 1.252 4.302 2.502 6.094.537-.179.322-.86.5-1.29 2.324 2.4 6.474 2.685 9.693 1.718.286 6.632-3.827 11.434-3.614 18.062l.288 3.44c-.072-.145-.072-.25-.178-.357l-.18.177c.07 5.052-1.467 9.926-5.938 12.652-5.72 3.58-12.301-.324-18.773.678-7.01.897-13.053 4.049-19.314 6.702-6.437 2.147-14.375 1.29-19.31-3.44 4.04.644 7.367-1.901 9.19-5.233 2.505-3.94 2.183-9.064 5.222-12.827.072-.286-.142-.469-.358-.684-3.755.861-7.116 2.584-10.299 4.839 2.216-5.947 6.867-12.004 12.624-16.446.036-.289-.035-.501-.25-.683l-1.288.43c-6.9-2.149-13.84-4.48-19.24-9.886 2.682 1.217 5.972.858 8.941 1.288.786-.142 1.644-.359 2.074-1.04-2.255-.93-4.4-2.149-6.294-3.941-8.155-6.844-6.829-17.63-9.084-26.91-1.68-4.373-6.26-7.525-10.728-8.028-2.717.07-5.363.359-7.546 1.72 3.754-5.302 9.406-8.994 15.88-9.174 7.581-.393 13.981 6.27 16.556 12.723 4.576 7.917 4.971 17.591 10.302 25.19 3.323 5.41 8.51 10.067 13.478 14.26 1.933 1.935 2.362 5.017 1.61 7.491-.465 1.862-1.61 3.474-2.717 5.089 1.107-.182 2.074-1.255 3.077-2.08 2.432-2.365 4.004-5.268 5.327-8.168 2.361-9.25-8.691-12.938-13.482-18.992-5.899-5.485-10.728-12.147-13.374-19.352-2.72-4.514-5.148-9.137-6.187-14.369-.537-3.546-.787-6.988-.43-10.5.714-3.332 3.612-5.982 6.617-7.486.034.428-.466.93-.538 1.466-.106 2.582-.536 5.38 2.255 6.702 1.822 1.397 4.577 1.075 6.864.861 6.508-.251 12.052.248 16.736 4.477 5.507 4.984 8.371 11.395 8.475 18.598-.605 8.421-1.25 17.846 3.364 24.764 2.574 4.477 6.722 8.276 11.587 9.635.319-.143.107-.463.18-.716-6.01-2.362-10.694-8.636-10.587-15.192-.107-8.458 3.682-15.804 2.432-24.51-.964-7.094-6.436-14.047-12.983-17.056-4.826-2.617-12.014-4.124-13.374-10.641-.787-2.796-1.537-5.81-.608-8.785.144 1.114 1.321 1.367 2.075 1.904 3.254 3.798 8.51 3.188 12.765 4.8 3.72 1.29 7.44 2.58 10.98 4.228.465-.286.25-.894.181-1.29-1.791-3.797-1.397-8.204 0-12.04a7.822 7.822 0 0 1 2.393-2.686c-.14 2.507.86 4.692 1.466 6.988" fill="#EEB310"/><path d="M165.146 58.911c.787.357 1.18-.643 1.86-.788 1.93-1.184 3.968-.575 6.294-.859.5.179 1.071.284 1.54.606-1.611.433-3.363.934-4.221 2.653-1.29 3.657 1.284 6.523 3.109 9.282 1.644 2.112 3.865 3.976 4.794 6.378 3.108 8.026.57 16.591-1.468 24.439.214.393.539 0 .68-.179 4.4-4.157 5.043-9.89 8.012-14.622v-.25c1.644-1.899 3.574-3.223 5.828-3.727-5.007 5.662-3.791 15.05-1.538 21.607 1.718-.106 3.361-1.216 5.22-1.037-6.937 4.98-1.285 13.688-1.537 20.388-.252 3.403-.645 6.953-2.681 9.71-.396 1.04.965.469 1.394.862 1.894 1.47 2.398 3.725 1.894 6.021-.391-.897-1.036-1.9-2-2.33-4.614-1.72-6.258 4.3-9.084 6.698-3.577 4.193-8.513 6.414-13.983 5.879-2.218-1.255-2.862-3.763-4.223-5.697.038-.825.72-1.576.967-2.402l.503-2.4c1.322-.253 2.719-.788 3.36-2.151 1.07-2.258.715-5.089 2.718-6.987.396-2.293.142-4.802-1.001-6.7-3.077-2.76-5.866-6.915-9.979-7.563.035-.536-.358-.93-.749-1.214-1.18.105-.181-1.436-1.216-1.616.93-.214 1.896-.536 1.965-1.647.895-2.868-2.252-4.48-3.86-6.2-2.112-1.79-4.508-3.585-6.079-5.914.715-.427 1.681-.535 2.144-1.217-1.037.142-2.573-.106-3.11 1.217v.322c2.252 2.652 4.682 4.912 6.868 7.49 1.176 1.04 2.463 2.474 2.25 4.123-.427.859-2.072 1.397-1.108 2.434.321-.035.966-.035.752.503v.252c-2.97-.79-5.974.358-9.013.358-.036-.217.107-.503-.177-.61-.467.217-.967.716-1.183 1.22.538.464 1.144.287 1.969.322.142 1.54 1.001-.323 1.643-.07 2.396-.826 5.545-1.115 8.048-.363-.573 2.007 2.036 1.542 2.932 2.583 1.895 1.287 3.934 2.937 5.221 4.907-1.682-.535-3.72.215-5.649.073-.574.681-.824.107-1.468 0-3.54.107-7.116-1.182-9.942 1.146-.177.608.5 1.04.93 1.29 2.361.717 4.722 1.616 6.689 3.08a.648.648 0 0 0 .607-.248c-.038.753.68 1.361 1.289 1.718.533.108 1.394.542 1.785-.104.145-.433 1.25.033 1.646-.683.358-.466.644-.967.502-1.612 1.394-1.398 3.291-1.899 4.396-3.62 1.966.787 2.005 2.867 2.327 4.55 0 .86-.285 1.615-.858 2.222-.219-.21-.394-.072-.609 0 0 1.113-1.359 1.005-1.717 1.722.465.179 1.038.106 1.467-.145-.5.787.142 2.4-1.144 2.471l-.57.684c.104.359.605.429.928.283.035.862-.609 1.471-1.109 2.151-2.075.861-3.255-1.504-4.972-2.005-.072-.146-.25-.288-.177-.503.177-.036.428.074.607-.072-1.216-.286.037-2.04-1.216-2.076-.144 1.432-2.433 1.004-1.97 2.328.469.143.79-.322 1.182-.106v.283c-3.467 2.832-8.832 4.302-13.125 2.151-.143.218-.5-.071-.608.25.146.719 1.001.756 1.575.934-1.394.358-2.897-.286-4.398-.323-3.828-2.293-4.077-6.844-4.042-11.106-.106-.073-.106-.362-.322-.253-.786 1.22-.642 2.797-.786 4.3-1.004-2.4-.43-5.482.857-7.561l-.177-.288c-1.397 1.686-2.181 3.764-2.219 6.128-1.001-.286-1.93-1.071-3.074-.787-3.22 4.087-2.577 9.818-3.613 14.8-1.181 5.445-1.43 12.148 1.896 16.697.678 1.077 1.501 2.15 2.575 3.01 1.287.109 2.787.215 3.861-.429 3.757-.968 7.975-1.074 11.91-.612.25-.176.286-.427.106-.604l-.858-.435a6.148 6.148 0 0 0 0-1.969c.786.071 1.75 1.075 2.288 1.9.182.537-.034 1.147-.323 1.612-.5.573-1.356.502-1.713 1.218 1.787 2.438-1.29 4.478 0 7.06-.682-.072-1.039-1.72-1.826-.718.894 1.254.25 2.975-.32 4.156-.287-.716-.145-1.898-1.109-2.007-.538.216-.072.791-.432 1.042-.498.571-1.178 1.074-1.821 1.467.463-.428-1.002-2.114.608-2.4.035-.503.644-.787.428-1.397l-.252-.251c-.82 1.145-1.68 2.975-3.432 2.83-2.287-.037-4.61.289-5.935 2.256-.107.503-.43.972-.43 1.543-1.358-.285-2.361-1.79-2.754-3.01-.144-.43.358-.826-.144-1.109-.856.427-.534 1.503-.604 2.328-1.183-.645-1.148-2.116-2.077-2.76-.823.644-.214 1.757-.178 2.58-1.86-1.65-3.04-3.977-2.396-6.556l-.252-.501c-.572 1.683-2.682 2.685-3.611 4.225.214.217.43-.07.608-.104.107-.145.465-.397.786-.432l-.105.249c.571.611 2.538-.572 2.322 1.042-3.04 1.684-7.294.751-9.942 3.436.219-1.073.967-2.145 1.719-3.08-.683-1.073-1.681.43-2.577.43-7.83 2.222-13.409-4.44-21.204-2.506-.965.034-1.825.464-2.577.965 2.146-2.794 5.543-5.015 9.265-5.267.14-.142.355-.286.25-.5-.931-.43-2.145-.216-3.185-.54-5.83-.967-10.694-4.369-15.449-8.062-6.043-3.796-13.804-5.302-21.35-3.69 8.475-4.477 18.346-6.307 28.573-5.698 5.293.109 13.661 4.156 16.487-2.902 2.792-6.057-2.788-12.575 1.467-18.166l1.29-2.33c-.219 4.084 2.93 7.598 3.25 11.895.967 5.7.644 11.397-3.859 15.302-6.76 5.017-15.88 2.651-23.283.753-1.214-.43-2.502-.897-3.755-1.002 7.725 3.08 15.842 6.054 24.782 5.411 3.362-.359 7.045-2.87 7.904-6.272 1.574-5.376.142-11.216-1.11-16.267 4.043 5.66 6.726 12.075 6.01 19.598-1.536 7.74-10.05 9.066-16.307 10.57-.071.182-.358.217-.25.434 6.579-.645 15.379-.397 18.095-8.243.966-6.63.142-14.156-3.255-19.962-1.679-3.44-3.612-6.735-5.579-10.067-1.216-2.686.752-4.872.93-7.38.93-5.233 1.969-10.468 4.221-15.125.858-1.397 2.503-1.432 3.432-2.685l-5.578-.43c5.755-.538 10.692-3.871 16.807-2.762.325-.07.394-.357.36-.68-1.362-1.542-3.328-2.83-4.041-4.62 2.607 2.866 5.58 5.552 9.26 6.161.395.144.61-.215.857-.32-.142-.54-.57-.97-1.001-1.398 1.79.788 3.47 1.827 5.475 2.077l.355-.359-1.214-3.083c1.43 1.759 3.362 4.482 5.936 4.91.965-.967-.43-2.148.18-3.367.07-1.04 1.036-1.432 1.859-1.72 2.643-.717 5.974-1.363 7.043-4.372 0-.466.216-.967 0-1.399-2.539 2.331-5.684 3.118-8.404 5.018-1.145 1.254-1.93 2.795-1.714 4.55-3.613-2.47-5.045-6.592-5.33-10.857.68-4.765 2.36-9.174 5.688-12.898 3.573-4.191 8.224-7.884 9.08-13.222.608-3.693 1.644-7.203 1.969-11.002.677-2.293 2.109-4.91 4.542-5.876-2.077 3.725-1.216 8.169.285 11.895" fill="#EEB310"/><path d="M160.14 141.186c.248-.397.213-.967.716-1.184h.251c.319.612 0 1.576.678 1.898l.355-.358c-1.144 1.398.18 3.478-1.466 4.66-.25.357-.568.68-.678 1.11 1.252.394 1.966-.968 3.005-1.468 1.716 3.581 5.4 6.306 5.4 10.57 0 3.152-.716 6.233-3.007 8.528.038-2.402-.785-5.161-3.254-6.27-.213-.396-.249-.966-.784-1.04-.249 3.367-1.824 6.593-4.9 8.42-1.145.537-2.253 1.22-3.613 1.293.251-1.148-.034-2.043-.07-3.083.821-.502 1.857-1.29 1.788-2.33.07-2.794-3.863-2.616-3.755-5.34-.251-.394-.5-.896-.966-1.111-.358.539-.358 1.364-.321 1.972-.858-.145-.858-.896-.43-1.471 1.038-2.148 2.898-.57 4.29-.25 2.47.754 2.363 3.477 2.647 5.59-.106 1.325-.322 2.616-1.287 3.62.18.286.642.18.858.073 2.113-3.226 5.76-7.24 2.826-11.18-1.071-1.578-2.719-2.975-3.004-4.91l-.142-4.804c.858 3.799 5.111 6.237 7.366 9.39-.394-1.684-1.217-3.333-2.075-4.907-1.538-2.08-2.468-4.444-3.574-6.704-.072-.86.891-1.286.926-2.078 1.647-.5.607 3.227 2.22 1.364M146.157 140.505c.751 2.578-1.25 4.62-1.717 6.987-.358 1.54-.5 3.655.432 4.98-1.826-.034-1.077-2.579-1.61-3.87l2.716-8.097h.18Z" fill="#EEB310"/><path d="M144.368 54.073c1.859 4.014 1.573 9.532-1.645 12.829h-.177c-.254-9.853-10.194-16.661-17.596-21.68l.177-.428c7.548.357 15.701 1.575 19.24 9.28M107.212 61.311c.967 4.3-.75 8.098-2.86 11.432h-.504c-.32-6.917-3.182-12.758-7.042-18.24l-1.108-2.043.178-.36c3.396 3.73 8.69 4.59 11.336 9.211M172.156 82.812c1.18 3.44 1.036 7.74.788 11.431-.503 4.12-1.574 7.992-2.936 11.789h-.43c-1.392-2.975-4.004-5.662-3.072-9.39 1.573-4.73 4.576-8.85 5.506-13.83h.144ZM108.07 102.485h-.283l-2.22-2.58.07-.322c1.002.895 2.323 1.612 2.434 2.902M107.96 104.993v.356c-1.748.145-3.11-1.002-4.718-.965.964.787 2.36.965 3.007 2.078-.184.143-.503.035-.68.252.248.5 1.215.035 1.035.856.215.323.964.037.858.612-2.004.215-4.076.572-6.007.68v-.249c.857-.322 1.896-.287 2.75-.684-1.39-.284-2.822.468-4.147.147l-.07-.253c.93-.216 2.002-.178 2.826-.68-1.252-.323-2.718.68-3.757-.181l.252-.248c-.252-.18-.823.07-.787-.432.465-.287 1.216-.142 1.716-.428h-1.895c-.43-1.365-.859-3.3-.072-4.66.393-.502.932-.787 1.467-1.002 3.076.75 5.685 2.72 8.223 4.8M152.343 104.06c.323-.25.037-.965.608-.86.751.897 2.003 1.363 2.396 2.472-.25.253-.57.215-.856.36.605.395 1.965.215 1.894 1.181-.715.575-1.467 1.253-2.394.969-.86 1.687-1.827-.358-2.861-.253-.644-.14-1.29-.283-1.971-.357-.142.252.214.573.433.79-.11.86.64 1.718 0 2.473-1.219-.539-2.255-1.508-3.435-2.15-2.86-1.578-5.937-2.798-9.013-3.69l.107-.432c1.86-.073 3.577.467 5.295.431-4.009-2.223-8.477-3.405-13.197-3.941v-.289c2.897-.645 5.756.395 8.58.79 4.759.93 9.479 1.97 14.414 2.506M109.177 102.592c-.034.142.076.32-.105.431-.358-.324-.789-.897-.93-1.47.5.144.892.503 1.035 1.039M110.036 102.912c-.035.11.072.288-.106.364-.357.033-.357-.398-.322-.684.213-.072.393.178.428.32M182.992 102.77c-.428 1.936-.035 4.23.32 6.165 1.181 4.836 2.003 11.215-1.536 15.338-2.112 2.686-4.509 4.945-7.296 6.769.074-1.755.964-3.403.857-5.337.035-4.983-2.145-11.215 1.216-15.48 2.04-2.654 4.865-4.659 6.439-7.454M126.166 106.032c-1.432 2.722-3.504 5.16-5.15 7.812v.432l1.717.103c-.822 1.723-1.753 3.441-2.825 5.055.429.322.929-.215 1.465-.179-1.036 2.796-2.323 5.915-1.574 9.028.215-1.612.538-3.187 1.396-4.548.109-.038.25-.107.427-.073-.75 3.978.86 7.49 3.757 10.068-.143-1.826-1.072-3.724-.858-5.59.357.181.394.79.606 1.183.894 1.865 2.9 3.05 3.865 4.911.32 4.585-.217 8.67-.18 13.259-.429-.827-.142-2.078-.572-2.94-.716 6.055.25 12.793-2.504 17.987-.93 3.336-2.753 7.994-6.938 8.603-5.471.5-9.94-2.726-15.448-1.58l-.107.109c-.289-.11-.106-.392-.179-.609 3.074-.358 6.687-.575 9.44.5 4.398.86 9.011-.247 11.337-4.011 1.644-3.192 1.752-6.953 2.252-10.608.68-4.3 1.824-8.742 1.11-13.33-.357 3.298-.966 6.45-1.037 9.821-.11.247-.11.571-.358.68.571-6.953-2.788-12.328-7.01-17.27-1.68-2.37-2.894-5.09-2.254-8.174 1.112-5.373 1.61-10.964 2.576-16.341.358.29.18.935.358 1.365 0 .176-.07.394.072.536 1.965-2.257 4.077-4.801 6.616-6.2M136.966 110.942l.107-.107c-.43-.506-1.038-.718-1.397-1.184l.184-.18c2.358 1.149 4.433 3.296 6.97 3.764-.5-.683-1.679-1.076-1.464-2.15 2.108 1.29 4.288 2.866 6.936 2.329.574-.358 1.003-.969 1.29-1.47h.247c-.034.716-.607 1.47-.929 2.152l-.788.606c-3.112.145-6.256.323-9.084 1.218-3.178 1.471-6.22 3.405-10.046 3.334v-.142a17.977 17.977 0 0 0 6.114-2.33c-1.396-.322-2.646.214-4.043.178.895-.609 2.04-.57 3.007-1.04-1.322-.643-2.826-.93-4.399-1.037-.037-.504.644-.356.964-.504.5.11 1.181.182 1.61-.104-1.323-1.792-3.039-4.373-5.578-4.196.25-.428.894-.608 1.394-.784 1.826-.146 4.078-1.436 5.65-.074.933.609 1.86 1.22 2.931 1.432.11.109.181.289.324.289M157.314 109.651c-.213.252-.465.645-.25 1.002.463.397 1.143.86 1.036 1.577-1.251.323-2.396-2.223-3.182-.358-.574.181-.894-.249-1.287-.429.07-.5.608-1.363.179-2.078.929-.464.894 1.288 1.787.609.107-.394-.574-.931-.07-1.36.607.322 1.286.391 1.787 1.037M105.746 108.79c-.68.431-1.716.575-2.574.505.607-.576 1.717-.36 2.574-.505" fill="#020303"/><path d="M152.951 110.834c.396 1.11-.643 1.9-1.285 2.58l-.43.105c-.357-.536.39-.57.43-1.035.393-1.08.035-2.296-.36-3.262.858.179 1.216.966 1.645 1.612M160.568 116.244c-2.287.394-4.719.647-7.009.789 1.11-1.219 3.254.036 4.186-1.721.782.97 1.93.251 2.823.932M103.172 117.82c-1.574 5.055-1.966 10.717-1.966 16.343-.182 2.293-.753 4.55-2.861 5.911-4.651 2.94-11.482 1.004-16.56 2.687-3.648.789-7.01 2.364-10.37 3.87-.108-.107-.359-.036-.252-.286 4.471-2.721 8.692-6.125 14.164-6.45 4.363-.107 8.69-.358 11.907-3.262 2.72-3.044 2.824-7.345 3.861-11.179.074-3.548 1.86-6.452 2.683-9.712l.252-.359c-.145.684-.572 1.614-.858 2.437M147.12 115.993c0 .468-.963.79-.536 1.291.536-.393 1.254-.61 1.896-.5-.286.786-1.54 1.431-.93 2.65-1.428-.574-2.324-2.365-4.147-2.042.429-.754 1.572-.609 2.001-1.471h.25c.323.395-.286.862.18 1.185.143-.432.25-.967.75-1.291.216-.038.357.106.536.178M149.591 119.255c-.11 1.577 1.392 2.438 2.32 3.62v.535c-1.105-.068-2.107-1-3.431-.535l-.25.356c.106.397.928.323.753.86l-3.936-.429c-.141.573.826 1.685-.251 1.971-.93-.359-1.786-.359-2.75-.359-.075-.393.392-.646.676-.75.288-.11.643 0 .86-.252-.108-.502-.751-.967-.251-1.47 1.429.146 2.966 0 4.292.43-.037-.537-.537-1.181-.36-1.826 1.11-.397 2.005.395 2.934.358-.393-.755-2.395-.788-1.287-1.973.286-.214.322-.465.681-.536M140.507 120.545c-1.504.144-1.824 3.331-3.542 1.72-3.435-1.006-4.826 3.01-7.437 3.797.143-.465.786-.609 1.18-.931 1.537-2.257 3.896-3.764 6.615-3.439 1.04-.395 2.038-1.47 3.184-1.147" fill="#020303"/><path d="M137.501 123.735c-.536.356-1.323.32-1.642 1.035l-.182.79c-1.824.716-4.076 1.075-5.9 1.002 2.788-.357 4.613-3.688 7.724-2.827M139.038 124.163c-.427 1.329-1.25 2.723-1.213 4.408-.966-.36-2.253-.931-3.435-.43-.321.142-.644.395-1 .43 1.073-1.039 2.074-2.077 3.505-2.258.285-.716.607-1.612 1.468-1.971.211-.108.497-.033.675-.179M144.368 128.39c2.363 2.117 5.224 2.976 8.155 3.765.752-.324 1.858-.037 2.574-.253.823.431 2.005.216 2.753.539-1.68-.108-3.324.251-4.65-.357-1.105.749-2.467-.288-3.68-.432-2.257-.823-4.83-1.54-6.189-3.799.179-1.324.573.324 1.037.538M163.072 132.585c-.43-.466-1.216.608-1.467-.251.323-.073.75-.11.86-.503.214-.537-.072-1.253.249-1.72.752.5.394 1.72.358 2.474M132.352 134.593l-.25 2.83.25.25-.355.359c-.573 4.374-.934 9.066-1.361 13.328l-.179.145c-.645-1.685-.143-3.906.073-5.735l.427-4.655c-.537-.217 0-.575 0-.861.502-3.262-.537-7.167 1.896-9.641.216 1.29-.32 2.654-.501 3.98M144.44 132.334c2.86 3.367 7.366 3.154 11.695 3.19.07.07.215.249.142.429-3.255.287-6.616-.073-9.87-.681-.931.322-1.11-1.004-1.717-1.399-.573-1.002-1.575-2.005-1.79-3.081.893-.108 1.038 1.04 1.54 1.542M167.72 134.913v.253c-.32.106-.606-.178-.43-.433.145.037.43-.07.43.18M158.853 135.167c.142.5-.43.428-.684.607l-.855-.073c.323-.321.93-.857 1.54-.534M130.815 152.794l-.285.288c.07 3.007 1.821 5.338 2.572 8.062-1.143-1.11-1.606-2.653-2.572-3.941-.251.215-.145.716-.574.68-.286-1.755.501-3.512 0-5.231.18-.214.358-.432.68-.359.249.145-.251.501.18.501M150.983 163.545c.036.681-.82.179-1.144.431.074.463.323 1.18.108 1.717-.466 0-.573-.678-1.037-.86.179 1.365-.249 2.723-1.36 3.55-.176-.034-.357.07-.43-.108.682-.859 1.002-2.186.503-3.26-.716-.753-1.788-.647-2.752-.753-2.684.394-5.222 1.04-7.37 2.723-.573.179-1.107.431-1.715.431.392.214.966 0 1.358.178-.86 1.147-2.216.07-3.253-.072v-.177c.571.141 1.322.071 1.785.071-1.251-.322-2.358-1.505-2.716-2.724-.035-.287 0-.646.323-.61.321-.144.035-.897.608-.86.248 1.255 1.645 2.007 2.751 2.331h1.183c4.11-1.042 8.222-3.046 12.623-2.26l.535.252ZM128.92 163.545c-.465 2.257.499 5.374-2.252 6.38-1.432.715-3.328.823-4.113 2.578-.502-.575.213-1.11.355-1.65 1.504-1.647 4.116-2.076 4.72-4.443-.642.038-1.178 1.006-1.963.575 1.001-1.183 2.788-1.936 2.823-3.693.216-.07.285.18.43.253M136.107 168.811c-.358.288-.964.61-1.538.324 0-.357.43-.43.682-.5.25-.075.608.105.856.176M145.977 169.993c-.93 2.33-3.754 1.58-5.65 2.33-1.182.322-2.433 1.182-3.004 2.33h-.18c0-1.686 1.467-3.225 2.934-4.23 1.752.396 4.148 1.291 5.577-.43h.323Z" fill="#020303"/><path d="M135.964 135.952c-.75-.178-1.574-.036-2.253.18.501-.464 1.575-.431 2.253-.18M140.935 138.101c.137.038.282.061.426.089a8.948 8.948 0 0 0-.018-1.401c-.842-.28-1.837-.284-2.483-.157.754.539 1.648.682 2.396 1.112l-.32.357ZM142.472 114.096c-2.966-.108-5.829 2.863-8.58.431-1.682-1.436-2.434-3.658-4.473-4.554 3.54-.502 6.224 2.006 9.264 3.19 1.217.465 2.468.825 3.79.933" fill="#E21837"/><path d="M142.737 137.984c-.248.63-.704 1.045-1.31 1.16l-.06.013v.237c-1.684.393-2.83-.97-4.224-1.471-.216-.177-.39-.43-.428-.681 1.47.582 2.78 1.622 4.422 1.869l.077-.2c-1.975-.258-3.55-1.49-5.355-2.167-.861-.146-1.755-.54-2.328.427-.034 1.542-.998 3.263-.14 4.73.213-.178.429-.682.856-.61.715.432-.356.897-.285 1.47-.036.465-.286 1.36.536 1.36-.213.432-.286.899-.607 1.292-.323 2.688-.752 5.517-.93 8.099.178 0 .466-.253.57.07-.248.718-.427 1.47-.75 2.15.537-.036.823-.822 1.466-.68.144.18.358.287.428.502-.5.61-.39 1.431-.536 2.152l.536-.755c.36-.143.97-.18 1.111.252-.465.607-.25 1.574-.18 2.328-.143-1.182 1.679-1.503 1.037-2.686l-.536.787c-.393-.249.072-.571-.073-.966-.464.036-.856-.074-1.287-.145.036-.251.145-.539.43-.609 3.36.609 2.575-3.585 4.65-4.91.93-.358 1.717.217 2.465.503-1.824-4.74 2.955-9.287.445-13.521Zm-3.34 11.228v.25c-.177.07-.251-.11-.358-.179-.141-.357.502-.68.358-.071Zm.68-7.849c.177 2.508-.288 4.945-.608 7.312-.393-.896 0-1.898 0-2.83-.178-1.76.967-3.513-.43-4.912.217-.93 1.037-.036 1.539 0l-.502.43Zm.93-1.11c-1.142.034-2.074-.43-2.897-1.112 1.036.11 1.931.646 2.897.932v.18Z" fill="#E21837"/><path d="M149.409 151.933c-.464-.142-.713.251-.999.539.105.18.466.286.32.61a1.668 1.668 0 0 1-1.036.5c-2.574-.356-5.076-.93-7.44-1.791-1.394.611-1.178 2.185-1.718 3.331-1.426.72-1 2.437-1.213 3.619.324.18.754.359 1.109.18 1.217-1.002 1.645-2.508 1.822-4.046h.253c.858 1.002 1.142 2.433 1.108 3.866 2.074.038 4.542.542 6.008-1.11.355-1.466 1.36-2.902 2.753-3.688.072-.825-.357-1.506-.967-2.01m-9.155 1.149c.039-.61.897-.324 1.29-.288 1.394.465 2.646 1.255 4.182 1.291-1.714.753-4.042.25-5.472-1.003" fill="#E21837"/><path d="M158.778 123.483c-1.284.178-2.608.286-3.86.608 1.323.93 2.792 1.47 4.04 2.579h-.355c-1.61-.895-3.15-2.077-5.045-2.328l-.535-.251c1.573-.861 3.79-.539 5.755-.608M136.895 130.865c-.142.392.026.87-.334 1.157-.356-.18-.166-1.05-.024-1.48.25-.109.285.215.358.323M139.29 132.26a2.992 2.992 0 0 1-.857 1.614v-2.402c.427 0 .748.43.858.789M162.035 140.324c-.216-.715-.754-1.647-.18-2.4.609.538.393 1.719.18 2.4M165.645 138.606c-.036 2.9-1.214 5.662-3.682 7.164.858-1.933 1.572-4.299 1.039-6.375.211-.612.858-1.256 1.429-1.473.5.038.86.323 1.214.684M159.995 138.606c0 .645 0 1.255-.355 1.717.07-.286-.93-1.717 0-2.22l.355.503ZM156.813 140.754c-.107-.57-.464-1.005-.535-1.612l.964-.43c.109.609-.178 1.396-.429 2.042M152.164 139.895c-.037.538-.214 1.003-.607 1.397-.143-.503-.537-.859-.429-1.47l1.036.073ZM153.702 141.04c0-.396-.323-.644-.323-1.038l.932-.18c-.109.43-.394.79-.609 1.218M150.197 140.002c-.145 2.864-1.143 5.376-3.077 7.49.647-2.472-.104-5.018-.355-7.418 1.215.109 2.43-.179 3.432-.072M132.352 154.8c.037.038-.108-.535.25-.535l-.25.536ZM133.21 157.706c-.212-.575-.107-1.255.431-1.617l-.25 1.617h-.18ZM140.255 161.572c-.606.43-1.287.647-2 .788-1.216-1.002.498-1.86.784-2.758a12.368 12.368 0 0 0 1.539-2.757c.429 1.395.429 3.44-.323 4.727M150.698 160.965c-.465.466-1.29.252-1.86.179.788-1.184 1.324-2.472 1.433-3.941.427 1.147.677 2.471.427 3.762M134.748 159.532c-.179-.574-.393-1.255.074-1.721.07.466-.074 1.22-.074 1.72M147.55 158.814c-.036.108.037.286-.107.359h-.07c-.11-.073-.037-.359.176-.359M136.465 161.393c-.75-.643-.07-1.718.073-2.472.105.754.605 1.829-.073 2.472M148.839 159.96c-.073.108-.179.073-.289.073-.213-.251.076-.502.11-.79.179.11.357.466.179.718M146.263 159.855c.145.394.035.86.073 1.288-.289.144-.681.073-1.036.109.465-.395.427-1.184.963-1.397M147.979 161.144c-.284.038-.535-.033-.716-.254l.36-1.034c.248.322.248.858.356 1.288M144.012 161.503h-.18a1.99 1.99 0 0 1 .964-1.47c.11.644-.177 1.254-.784 1.47M142.653 160.285c0 .537.07 1.108-.536 1.286-.253.074-.434-.103-.68-.178.497-.32.643-.966 1.216-1.108M140.72 134.235c-.107.608-.392 1.144-.856 1.61v-2.399c.429 0 .749.427.856.789M160.152 116.695c.129.095 1.119.364 1.214.461 2.828 1.023 3.452 1.943 4.735 2.735 1.875 1.255 2.006 2.503 3.025 2.734.221.032-2.235-3.392-4.4-4.577-.642-.286-1.154-.797-1.887-1.024-1.603-.528-1.408-.925-2.032-.692-.626 0-.56.204-.655.363M138.106 167.731c.318.394-.374 1.35.449 1.53 1.036-.894 2.252-1.575 3.574-1.932 2.733-.815 3.016-.296 3.865-.038.214.179.846.424 1.025.676.14 0-.41-1.688-.663-1.83 2.213-.803.135-1.098-.472-1.242-1.477-.023-5.154.251-7.778 2.836M137.225 121.113c-.314-.286-3.778-.918-5.607 2.495-.216.55-1.116 1.632-1.516 1.949.855-.372 1.52-1.505 1.616-1.473.062-.158.585-.79 1.301-1.276 1.828-1.07 2.008-1.206 4.522-1.037 1.03-.771 2.222-1.313 2.85-1.288-.382-.16-2.696.245-3.166.63M122.802 101.54c-.549.068-.563.033-1.272.183l-.45.074c-.17.07-1.305.299-1.518.412.24.17 1.836.044 2.077.112.96.038 1.965.224 2.71.25.823.07 3.833.843 3.833.945-.204.622-2.823 4.801-2.426 4.24.309-.103 1.233-1.074 3.365-2.329.652-.552 1.612-.656 2.368-1.102a19.993 19.993 0 0 1 7.828.032c1.072.132 1.638.26 2.458.447-.45-.357-.712-.299-.85-.402-1.48-.624-3.414-1.462-4.962-1.703-.787-.275-1.111-.093-1.865-.37-.41.037-.79-.204-1.133-.274-.24.137-1.15-.22-2.664-.408-.45-.067-1.009-.039-1.422-.107-.684-.037-1.475-.138-2.198-.138-1.2-.138-2.203.06-3.335.06l-.544.078ZM102.767 98.64c-1.013.022-2.353-.6-3.559-.165-1.035.14-2.081 1.215-2.904 1.86.68-1.11 1.501-2.258 2.826-2.58 2.184-.169 2.923.6 3.637.885M142.71 137.408c-.11.608-.448 1.387-1.316 1.557.447-1.155-.116-4.066-.116-4.066.43 0 1.323 2.15 1.432 2.509" fill="#FFF"/></g></svg>