<svg width="200" height="200" xmlns="http://www.w3.org/2000/svg"><g fill="none" fill-rule="evenodd"><path d="m195.64 106.675-4.508-14.848c-2.983-9.84-5.803-19.135-19.347-28.426-.852-1.369-.55-3.819-.17-4.512l.131-.202.101-.22c4.513-9.805 5.557-20.38 2.944-29.798-.93-4.726-3.431-11.193-5.373-15.804-4.231-10.045-4.932-10.393-5.902-10.878l-1.561-.78-1.524.845c-.634.354-1.092.824-2.195 1.96-2.463 2.529-8.228 8.453-14.824 10.645-5.83 1.936-12.291 4.677-16.973 10.315-1.023-.653-1.94-1.752-3.118-3.226-.773-.968-1.572-1.967-2.517-2.873l-1.767-1.7-2.137 1.199a52.94 52.94 0 0 0-2.389 1.442c-2.05 1.285-3.666 2.3-5.322 2.3-.587 0-1.192-.124-1.851-.378-1.882-.81-2.676-2-3.773-3.639-.642-.96-1.37-2.049-2.369-3.096l-2.39-2.497L96.419 15c-1.017 1.065-1.75 2.178-2.397 3.162-1.08 1.645-1.863 2.836-3.72 3.633-.658.254-1.263.377-1.848.377-1.656 0-3.275-1.015-5.325-2.3a56.753 56.753 0 0 0-2.386-1.442l-2.137-1.194-1.771 1.699c-.942.905-1.74 1.903-2.515 2.871-1.176 1.473-2.095 2.573-3.117 3.225-4.682-5.637-11.143-8.378-16.973-10.315-6.595-2.19-12.36-8.118-14.824-10.646-1.103-1.134-1.56-1.604-2.194-1.96l-1.524-.847-1.561.784c-.97.485-1.671.835-5.902 10.877-1.943 4.612-4.443 11.077-5.374 15.807-2.611 9.416-1.57 19.988 2.941 29.794l.084.192.133.204c.353.643.705 3.154-.154 4.543C12.31 72.762 9.36 82.481 6.509 91.886L2 106.736l8.328-9.35c-1.142 4.735-1.207 9.272-.885 12.169l.729 6.566 4.503-4.219c-2.61 3.748-3.985 7.572-4.094 11.426l-.006.25.058.477c.287 2.318.56 4.508 3.506 7.605l2.26 2.373.96-.897c.974 4.347 3.649 8.735 8.288 11.886l3.392 2.304 1.284-3.195c2.41 3.402 4.887 5.627 6.931 7.465 3.395 3.06 5.1 4.594 5.075 9.308v.226l.029.223c.335 2.561 1.358 4.127 3.32 5.082l3.42 1.67 1.172-3.628c.21-.647 1.514-1.594 2.378-2.22l.36-.264c3.91-2.223 7.057-3.302 9.618-3.302 1.407 0 2.6.342 3.627 1.044 1.893 3.363 3.32 6.912 4.83 10.655.77 1.916 1.565 3.882 2.432 5.835-.707 2.521-.375 5.714.482 8.037.967 2.626 2.664 4.433 4.784 5.084l2.68.826c2.31 3.313 5.49 4.58 5.704 4.66l3.317 1.254 1.033-3.392c.08-.262.189-.552.32-.858 3.846 7.045 5.436 7.214 6.647 7.346l.353.035.352-.035c1.279-.138 2.826-.306 6.632-7.378.124.29.228.568.303.811l1.01 3.437 3.342-1.279c.215-.083 3.398-1.347 5.703-4.66l2.684-.827c2.116-.654 3.816-2.46 4.784-5.084.856-2.326 1.188-5.518.48-8.036.865-1.953 1.66-3.92 2.43-5.836 1.51-3.744 2.937-7.292 4.834-10.657 1.027-.703 2.219-1.045 3.626-1.045 2.56 0 5.708 1.082 9.616 3.306.119.085.24.173.362.263.865.628 2.169 1.574 2.378 2.22l1.173 3.632 3.423-1.677c1.959-.954 2.98-2.52 3.317-5.076l.028-.226v-.224c-.026-4.718 1.68-6.253 5.075-9.31 2.044-1.84 4.52-4.066 6.931-7.463l1.284 3.19 3.393-2.302c4.638-3.153 7.31-7.537 8.288-11.887l.96.9 2.258-2.377c2.948-3.096 3.221-5.283 3.505-7.603l.06-.475-.009-.254c-.115-4.194-1.715-8.016-4.073-11.405l4.483 4.228.732-6.592c.32-2.898.255-7.438-.885-12.17l8.327 9.35" fill="#FFF" fill-rule="nonzero"/><path d="M188.109 93.246c-2.952-9.713-5.462-18.536-18.634-27.411-2.293-2.68-1.597-7.269-.629-8.753 3.878-8.43 5.317-18.438 2.727-27.647-1.599-8.328-9.095-24.27-9.535-24.49-.994.55-8.248 9.753-17.585 12.849-6.27 2.086-12.677 4.91-16.81 11.089-4.52-.663-6.373-4.975-9.13-7.624-4.13 2.318-7.352 5.525-12.422 3.543-4.211-1.786-4.86-4.977-7.284-7.512-2.425 2.535-3.047 5.787-7.256 7.572-5.072 1.985-8.292-1.226-12.426-3.54-2.756 2.645-4.607 6.96-9.126 7.62-4.136-6.176-10.542-9.003-16.812-11.084-9.336-3.103-16.59-12.3-17.582-12.85-.441.22-7.937 16.158-9.537 24.487-2.59 9.211-1.151 19.216 2.727 27.648.965 1.483 1.664 6.07-.63 8.753-13.175 8.872-15.681 17.697-18.631 27.41 3.069-3.446 7.882-6.233 9.15-5.57-5.952 6.69-6.45 16.987-5.955 21.453 0 0 21.627-20.272 44.702-20.295 7.716 6.343 15.655 12.684 26.18 12.466-.493.494-1.155.715-1.706 1.046-3.42 2.152-8.6 2.317-11.906-.108-4.464-2.318-6.726-7.89-11.632-9.267-1.928-.497-6.396-1.213-20.292 4.985-8.8 3.926-23.855 13.71-24.187 25.404.276 2.207.373 3.566 2.645 5.956 1.708-1.6 2.81-4.192 4.906-5.183-2.425 4.41-1.462 12.98 6.063 18.087 0 0 1.599-3.972 2.921-4.796.776 1.434.983 2.268 1.562 3.187 6.356 10.113 13.708 10.002 13.651 20.252.23 1.764.797 2.202 1.488 2.54.606-1.877 2.59-3.146 4.078-4.25 4.907-2.81 12.29-6.064 17.582-1.706 3.474 5.955 5.459 12.46 8.325 18.637-1.434 2.264-.592 9.039 2.645 10.04.344-2.134 1.518-4.189 2.647-4.467-.252 7.65 5.945 10.026 5.945 10.026s1.323-4.49 4.25-5.668c0 0 4.694 9.651 6.239 9.815 1.543-.164 6.207-9.875 6.207-9.875 2.928 1.177 4.25 5.665 4.25 5.665s6.2-2.375 5.95-10.025c1.124.28 2.3 2.335 2.643 4.469 3.24-.999 4.082-7.778 2.648-10.039 2.865-6.176 4.849-12.684 8.32-18.64 5.293-4.36 12.68-1.105 17.584 1.707 1.488 1.103 3.473 2.373 4.081 4.25.688-.336 1.255-.777 1.487-2.539-.057-10.25 7.295-10.142 13.65-20.256.58-.914.787-1.749 1.562-3.183 1.323.823 2.923 4.797 2.923 4.797 7.524-5.108 8.487-13.68 6.062-18.09 2.094.992 3.197 3.585 4.906 5.187 2.272-2.392 2.367-3.754 2.645-5.959-.33-11.693-15.339-21.417-24.14-25.343-13.896-6.198-18.41-5.542-20.342-5.044-4.905 1.376-7.165 6.945-11.629 9.263-3.307 2.43-8.486 2.26-11.905.109-.551-.328-1.214-.55-1.71-1.045 10.528.22 18.465-6.123 26.182-12.467 23.123-.053 44.701 20.3 44.701 20.3.496-4.467-.003-14.765-5.951-21.457 1.266-.662 6.078 2.125 9.15 5.57ZM98.814 176.71c-2.205-.443-5.371.079-8.337-2.343l1.734-1.805c1.16.915 1.464 1.087 2.639 2.054 1.011-.967.916-1.019 2.1-2.33.407.534.959.702 1.857 1.931.897-1.23 1.456-1.458 1.863-1.994 1.182 1.175 1.092 1.365 2.101 2.333 1.178-.968 1.482-1.142 2.638-2.055l1.738 1.803c-2.969 2.424-6.125 1.963-8.333 2.406Zm14.81-13.723c-1.399 2.795-2.546 5.003-3.618 6.95l-.24.439-2.646-4.826c-.82.808-2.569 2.162-3.141 2.597l-.233.18-.163-.246c-.214-.323-.89-1.017-1.486-1.63-.22-.223-.43-.44-.622-.637-.44.343-.922.687-1.354.992-.48.345-.898.64-1.118.843l-.19.178-.188-.178c-.215-.204-.63-.496-1.115-.837-.434-.31-.922-.652-1.364-.998-.189.195-.4.412-.615.636-.598.611-1.276 1.308-1.491 1.631l-.164.245-.235-.179c-.568-.435-2.317-1.786-3.141-2.597l-2.642 4.826-.243-.438a203.84 203.84 0 0 1-3.617-6.951l-.272-.546.59.156c5.453 1.444 8.423 1.444 14.366 1.387h.249c5.946.054 8.925.057 14.377-1.387l.59-.156-.275.546Z" fill="#231F20" fill-rule="nonzero"/><path d="M51.865 41.793c-2.26-6.618-9.05-9.335-13.989-14.53-.992-.938-1.351-1.835-1.499-3.34-1.93 3.529-3.783 11.072 3.196 17.76-1.697.654-5.447-2.009-5.227-1.623 4.244 5.627 10.958 13.646 7.486 21.311-2.536-.108-4.785.27-7.276 1.324 1.545-8.38-3.693-14.944-3.859-23.164.057-8.604 1.985-16.436 5.404-23.66 4.52 8.713 16.15 14.949 15.764 25.922" fill="#D01C2E" fill-rule="nonzero"/><path d="M65.204 53.982c-.213.914 3.936-1.199 6.116.387-4.74 3.474-8.872 8.272-11.627 13.127-3.308-2.21-7.492-4.021-11.136-4.8 8.619-9.442 11.52-22.613 6.999-32.154a39.795 39.795 0 0 0-3.58-6.066c5.288 3.528 18.445 6.888 13.228 29.506" fill="#D01C2E" fill-rule="nonzero"/><path d="M141.083 100.381c-4.41 5.461-10.36 8.328-16.646 9.82-6.228 1.157-11.353-1.932-15.764-5.958-2.092.439-4.299.661-6.337 1.322-1.323-.331-.276-1.322-.386-2.26 3.528-3.915 7.385-8.495 12.952-7.94 4.74-.059 8.544-2.264 12.68-3.698 5.618-2.866 10.802-8.05 14.053-13.512 1.213.749.952.487 1.544 1.05.062 2.01-1.102 3.949-2.205 6.265 22.358 0 31.474 8.182 36.211 10.94-1.377-4.687-3.23-8.581-7.55-12.684 2.686-2.158 5.127-2.813 6.778-2.261-4.739-5.847-10.583-10.59-17.359-12.41-8.93-2.262-16.243 1.94-23.077 5.963-1.694-3.19-14.081-26.046-34.193-22.509-.55-.331-.715-1.102-.275-1.49 1.708-1.653 3.637-2.702 5.457-4.08.827-2.042-2.48-2.87-1.323-4.522 3.307.77 5.843 3.474 8.6 5.57 2.478.383 2.644-3.253 4.628-3.698 1.652 1.768 2.868 3.423 4.852 4.469-.282-4.309-.352-4.376.274-7.549-2.867-.828-5.16-3.155-6.866-5.361-12.738 7.433-18.36-2.92-18.36-2.92S93.182 43.32 80.45 35.886c-1.711 2.207-4.003 4.533-6.868 5.363.595 3.337.595 3.407.275 7.55 1.984-1.048 3.195-2.704 4.85-4.47 1.984.444 2.15 4.08 4.63 3.696 2.756-2.096 5.292-4.799 8.6-5.57 1.156 1.656-2.151 2.48-1.322 4.524 1.815 1.377 3.746 2.425 5.453 4.081.443.384.277 1.156-.274 1.487-20.111-3.537-32.498 19.32-34.192 22.511-6.837-4.026-14.147-8.226-23.077-5.966-6.78 1.82-12.622 6.565-17.363 12.412 1.654-.552 4.096.104 6.78 2.26-4.32 4.102-6.172 7.998-7.551 12.687C25.132 93.69 34.356 85.47 56.605 85.47c-1.102-2.316-2.267-4.216-2.204-6.227.589-.562.327-.3 1.542-1.048 3.252 5.459 8.432 10.644 14.056 13.512 4.135 1.435 7.936 3.642 12.677 3.695 5.567-.552 9.426 4.028 12.952 7.942-.11.936.938 1.93-.385 2.263-2.038-.663-4.244-.884-6.34-1.327-4.409 4.028-9.535 7.116-15.763 5.958-6.283-1.488-12.237-4.356-16.645-9.817-.827.828-1.543 1.71-2.26 2.537-2.977 3.86-6.34 7.777-7 12.41 3.415-.61 10.552-.561 14.165 3.585-1.323.441-6.715 4.415-7.936 9.817 2.425-1.157 4.978-2.559 12.842-5.184.331.166.826.607.659.937-1.43 3.365-4.592 6.8-2.423 10.865 2.32 4.345 11.85 5.79 13.007 6.892 1.983 4.592 3.307 8.6 5.127 13.066.33 1.049 1.765 2.048 2.647 2.545 4.44 1.104 8.94 1.568 13.39 1.556 4.45.012 9.103-.493 13.544-1.595.882-.497 2.313-1.496 2.645-2.546 1.82-4.464 3.146-8.473 5.125-13.062 1.16-1.102 10.691-2.55 13.007-6.894 2.173-4.067-.99-7.503-2.423-10.868-.166-.328.331-.77.663-.938 7.863 2.628 10.417 4.03 12.841 5.188-1.223-5.401-6.614-9.375-7.935-9.82 3.608-4.144 10.746-4.191 14.164-3.583-.663-4.634-4.024-8.549-6.999-12.41-.717-.828-1.434-1.71-2.262-2.538Zm-30.995-24.08c-1.392 2.738-1.214 5.681-1.214 5.681 6.176-6.289 25.686-2.647 25.686-2.647-5.071 2.2-18.801.191-27.284 15.884-4.63-3.035-4.373-15.627 2.812-18.917Zm-19.97 18.823c-8.483-15.692-22.213-13.683-27.285-15.881 0 0 19.511-3.642 25.686 2.647 0 0 .18-2.945-1.215-5.682 7.186 3.292 7.443 15.885 2.813 18.916Zm19.788 58.676c-1.986 2.206-5.126 1.742-7.772 1.025-1.03-1.077-2.15-1.452-3.32-1.468h-.01c-1.167.016-2.27.39-3.3 1.466-2.644.717-5.785 1.182-7.768-1.025-2.042-3.642-5.403-7.117-3.694-12.024.882-1.656 2.647-2.979 4.245-3.695 2.591-.497 4.826.897 7.273-.552a6.945 6.945 0 0 1 3.247-.952 7.037 7.037 0 0 1 3.27.955c2.448 1.446 4.685.053 7.277.55 1.596.719 3.361 2.041 4.244 3.695 1.708 4.91-1.655 8.386-3.692 12.025Zm5.104-21.014a.812.812 0 0 1-.73.403c-.05 0-.11-.002-.164-.01l-.104-.04a58.857 58.857 0 0 1-2.19-1.59c-2.242-1.68-4.56-3.421-7.323-3.824a6.626 6.626 0 0 0-1.3-.134c-1.58 0-3.036.623-4.217 1.797l-.175.172-.174-.172c-1.496-1.49-3.432-2.073-5.507-1.666-2.776.406-5.094 2.147-7.332 3.828a59.486 59.486 0 0 1-2.193 1.589l-.103.04c-.408.058-.724-.095-.893-.393-.175-.309-.155-.728.05-1.073 2.305-3.517 5.781-8.823 11.065-8.823.729 0 1.481.102 2.243.3.885.145 1.755.725 2.844 1.462 1.09-.737 1.958-1.317 2.867-1.466a8.755 8.755 0 0 1 2.22-.296c5.284 0 8.758 5.306 11.06 8.817.21.351.23.77.056 1.079Zm1.815-11.05a.907.907 0 0 1-.81.45c-.06 0-.12-.006-.185-.013l-.061-.011-.052-.033c-.826-.56-1.645-1.176-2.44-1.769-2.49-1.871-5.067-3.803-8.138-4.255a7.582 7.582 0 0 0-1.45-.145c-1.755 0-3.375.69-4.688 1.996l-.194.19-.195-.19c-1.664-1.653-3.811-2.306-6.122-1.852-3.087.453-5.665 2.387-8.157 4.256-.792.593-1.61 1.21-2.435 1.77l-.054.032-.062.011c-.452.064-.805-.105-.993-.438-.194-.345-.17-.809.057-1.19 2.565-3.913 6.428-9.814 12.303-9.814.81 0 1.65.111 2.495.336.987.163 1.952.807 3.163 1.624 1.21-.817 2.178-1.461 3.188-1.633a9.726 9.726 0 0 1 2.467-.327c5.876 0 9.741 5.901 12.3 9.803.232.392.256.86.063 1.201ZM144.957 42.963c2.26-6.619 9.048-9.338 13.988-14.533.993-.936 1.35-1.83 1.502-3.337 1.93 3.531 3.78 11.07-3.2 17.759 1.698.653 5.45-2.006 5.231-1.62-4.245 5.625-10.962 13.644-7.489 21.31 2.536-.11 4.785.271 7.276 1.323-1.542-8.384 3.692-14.947 3.86-23.162-.057-8.605-1.986-16.437-5.402-23.66-4.521 8.711-16.151 14.944-15.766 25.92" fill="#D01C2E" fill-rule="nonzero"/><path d="M131.288 53.815c.213.918-3.932-1.198-6.116.386 4.74 3.476 8.872 8.274 11.632 13.129 3.306-2.207 7.489-4.021 11.131-4.798-8.62-9.442-11.52-22.615-7-32.157a39.865 39.865 0 0 1 3.584-6.066c-5.291 3.532-18.443 6.888-13.23 29.506M98.814 184.05c-2.078-4.11-8.754-4.208-10.022-2.994-.055-1.27-1.03-2.568-1.912-3.67-2.37-2.703-4.536-3.061-5.913-6.536-2.921-7.942-6.56-15.607-9.37-23.548 1.211 0 2.537.273 3.03 1.6 1.435 3.693 8.945 21.3 11.536 25.052 0 0 2.187 4.718 12.644 4.718 10.456 0 12.653-4.718 12.653-4.718 2.59-3.752 10.103-21.359 11.532-25.053.497-1.326 1.82-1.6 3.033-1.6-2.809 7.942-6.448 15.607-9.369 23.549-1.38 3.475-3.546 3.833-5.916 6.536-.883 1.102-1.857 2.4-1.912 3.67-1.268-1.214-7.934-1.115-10.014 2.994" fill="#D01C2E" fill-rule="nonzero"/><path fill="#FFF" d="M162.002 157.953v.675h1.192v3.268h.813v-3.268h1.151v-.675h-3.156M167.909 161.896l.701-3.19v3.19h.812v-3.943h-1.184l-.735 3.03-.734-3.03h-1.187v3.943h.81v-3.19l.705 3.19h.812"/></g></svg>