<?xml version="1.0" encoding="UTF-8"?>
<svg width="200px" height="200px" viewBox="0 0 200 200" version="1.1" xmlns="http://www.w3.org/2000/svg" xmlns:xlink="http://www.w3.org/1999/xlink">
    <!-- Generator: Sketch 51.3 (57544) - http://www.bohemiancoding.com/sketch -->
    <title>arkansas-st</title>
    <desc>Created with Sketch.</desc>
    <defs></defs>
    <g id="arkansas-st" stroke="none" stroke-width="1" fill="none" fill-rule="evenodd">
        <g id="arkansas-st_BGL" transform="translate(1.960784, 0.000000)">
            <g id="arkansas-st">
                <g id="g10" transform="translate(97.596705, 100.146946) scale(-1, 1) rotate(-180.000000) translate(-97.596705, -100.146946) translate(0.000000, 0.080704)">
                    <g id="g12">
                        <path d="M194.633641,93.004471 L190.10225,107.927414 C187.10337,117.816219 184.269032,127.158209 170.655502,136.495358 C169.798909,137.870946 170.102185,140.332899 170.484506,141.02965 L170.616786,141.233172 L170.718415,141.453963 C175.254646,151.307906 176.303205,161.936232 173.676967,171.400562 C172.742942,176.15048 170.228012,182.649944 168.276078,187.283657 C164.023765,197.37905 163.318811,197.729281 162.344457,198.216701 L160.775005,198.999477 L159.24314,198.150528 C158.605938,197.795454 158.146024,197.322561 157.036971,196.181483 C154.561725,193.639477 148.7669,187.685536 142.137099,185.482464 C136.277425,183.537629 129.783131,180.782579 125.077357,175.115925 C124.048962,175.772811 123.127036,176.876768 121.943615,178.358394 C121.166552,179.331619 120.363194,180.335509 119.412876,181.245789 L117.6371,182.953371 L115.48965,181.749348 C114.637735,181.273226 113.850025,180.779351 113.088126,180.300002 C111.02698,179.008824 109.403648,177.988794 107.738213,177.988794 C107.149084,177.988794 106.540919,178.11307 105.878068,178.368077 C103.98695,179.183133 103.188593,180.379086 102.085831,182.025337 C101.440564,182.990492 100.708992,184.084765 99.7051168,185.137075 L97.3031087,187.6468 L94.9022297,185.137075 C93.880126,184.067011 93.1440372,182.948529 92.4931236,181.959164 C91.4068158,180.306457 90.6203961,179.10889 88.7546052,178.30836 C88.0928834,178.053353 87.4847188,177.929077 86.8962349,177.929077 C85.2320901,177.929077 83.6044028,178.949107 81.5437412,180.240285 C80.7844227,180.71802 79.9967124,181.210282 79.1460886,181.689631 L76.9973479,182.890426 L75.2177002,181.182844 C74.2712541,180.272564 73.4678961,179.270288 72.6897035,178.297063 C71.5080575,176.817051 70.5843571,175.71148 69.5572526,175.056208 C64.8513169,180.721248 58.3563771,183.476298 52.4967032,185.422748 C45.8681931,187.624205 40.0727233,193.581374 37.5969933,196.121766 C36.4884238,197.26123 36.0285094,197.734123 35.3914691,198.090811 L33.8596041,198.942988 L32.2904749,198.15537 C31.3162823,197.66795 30.6111663,197.316105 26.3583697,187.22394 C24.4054677,182.588613 21.8931188,176.090763 20.9573196,171.337617 C18.3322102,161.874901 19.3794794,151.249319 23.9132899,141.394085 L23.9971747,141.2017 L24.1313903,140.996887 C24.4861261,140.350652 24.8395714,137.826885 23.9763648,136.430477 C10.3627214,127.087033 7.39789479,117.319922 4.53200384,107.867536 L0,92.9433015 L8.37082909,102.340329 C7.22333381,97.5815332 7.1578069,93.0220633 7.48106977,90.1106198 L8.2139323,83.5117353 L12.7402578,87.7514775 C10.1156969,83.9844676 8.73505032,80.1419239 8.62541937,76.2690375 L8.61848275,76.0167738 L8.67708917,75.5375856 C8.96568504,73.2081403 9.23979467,71.0078127 12.2014756,67.8952684 L14.4731559,65.5103025 L15.4372661,66.4117057 C16.4172177,62.0426844 19.105402,57.6326682 23.7677821,54.46654 L27.1775368,52.1508135 L28.4680717,55.3618101 C30.891535,51.9427726 33.3806543,49.7066148 35.4348633,47.8592629 C38.847683,44.7840013 40.5616747,43.242497 40.535864,38.5045218 L40.535864,38.2775974 L40.564901,38.0537395 C40.901408,35.4796161 41.9298031,33.9059937 43.9015791,32.945842 L47.3395642,31.2674729 L48.5173387,34.9134348 C48.7283412,35.5641882 50.039686,36.5161087 50.9080547,37.1441051 C51.0303329,37.2361014 51.1532563,37.3250313 51.2690818,37.4100876 C55.199406,39.64447 58.3626685,40.7288975 60.9368018,40.7288975 C62.3515507,40.7288975 63.5499737,40.3852829 64.5822404,39.6791703 C66.4852955,36.2998365 67.9200477,32.7327977 69.4369102,28.9707912 C70.2112312,27.045323 71.0102336,25.0694989 71.8818287,23.107555 C71.1715505,20.5731353 71.5043472,17.364721 72.3657793,15.0294816 C73.338036,12.3903797 75.0438006,10.5746616 77.1743125,9.92089009 L79.8687881,9.08993678 C82.1896539,5.76049079 85.3875995,4.48822922 85.6013444,4.40627174 L88.9354414,3.14724473 L89.9738381,6.5561304 C90.0544965,6.81903024 90.1635467,7.11093316 90.2958265,7.41795898 C94.1617853,0.337294252 95.7597902,0.167701339 96.9766033,0.03530563 L97.3313391,0 L97.6849457,0.03530563 C98.9704798,0.174007126 100.52622,0.342337914 104.351849,7.45012544 C104.476063,7.15822253 104.580597,6.87892473 104.655609,6.63494064 L105.672066,3.18128339 L109.030038,4.46616622 C109.246203,4.55001205 112.445439,5.81975583 114.762433,9.14983127 L117.460781,9.98076843 C119.586776,10.6377195 121.295767,12.4534376 122.268669,15.090635 C123.129455,17.4276659 123.462897,20.6360802 122.752135,23.1667877 C123.620988,25.1293773 124.419345,27.1064925 125.193827,29.0319607 C126.711174,32.7944515 128.146087,36.3597148 130.052207,39.7421152 C131.084474,40.4482278 132.282413,40.7918424 133.697001,40.7918424 C136.269844,40.7918424 139.433913,39.7043483 143.362785,37.4699659 C143.481837,37.384264 143.604115,37.2953342 143.726393,37.2052746 C144.595407,36.5740503 145.906107,35.623421 146.116464,34.9733132 L147.295529,31.3236391 L150.736095,33.0089483 C152.704645,33.9678088 153.731749,35.5414312 154.070192,38.1105513 L154.097939,38.3374757 L154.097939,38.5632703 C154.072128,43.3043121 155.78612,44.8469462 159.199584,47.9191412 C161.253793,49.7695597 163.743074,52.0058789 166.166053,55.4197517 L167.456588,52.2139198 L170.866827,54.5277096 C175.528885,57.6957745 178.21481,62.1025627 179.19723,66.4735208 L180.161905,65.5688897 L182.431633,67.9583747 C185.395024,71.0696279 185.669263,73.2680186 185.954794,75.5994007 L186.014481,76.0766521 L186.006415,76.3319824 C185.890267,80.546708 184.281938,84.3879606 181.912193,87.7937635 L186.417773,83.544499 L187.153378,90.1693684 C187.476012,93.0821031 187.409872,97.6446395 186.264522,102.400207 L194.633641,93.004471" id="path14" fill="#FFFFFF" fill-rule="nonzero"></path>
                        <path d="M187.063041,106.501309 C184.096423,116.262125 181.573428,125.129447 168.334152,134.049223 C166.028934,136.742457 166.729049,141.35422 167.70179,142.845368 C171.599206,151.318719 173.046218,161.376345 170.442564,170.630697 C168.835848,179.000754 161.301059,195.022651 160.858728,195.243765 C159.860016,194.690173 152.568655,185.442115 143.183239,182.330378 C136.881073,180.233829 130.441626,177.394853 126.286588,171.185904 C121.743905,171.852474 119.881824,176.185988 117.111046,178.847427 C112.958427,176.518466 109.721281,173.295365 104.624636,175.287006 C100.392004,177.081742 99.7398,180.288704 97.3031087,182.837165 C94.8656108,180.288704 94.2411532,177.020411 90.0098117,175.227289 C84.9125213,173.23242 81.6761823,176.458749 77.5203372,178.784482 C74.7502039,176.126271 72.8900591,171.789529 68.3473761,171.126187 C64.1902404,177.333522 57.7514389,180.174112 51.4494341,182.265819 C42.0653092,185.384012 34.7750773,194.627228 33.7770099,195.18082 C33.3340337,194.959706 25.800052,178.941037 24.1912389,170.57098 C21.5880686,161.313239 23.0342743,151.258841 26.9323351,142.784199 C27.9028174,141.294342 28.6047071,136.684516 26.2983598,133.987408 C13.056584,125.071505 10.5372662,116.202247 7.57243965,106.441431 C10.6569956,109.903884 15.4946143,112.705093 16.7687272,112.038039 C10.7868073,105.314233 10.287096,94.9670606 10.7836616,90.4782826 C10.7836616,90.4782826 32.5218033,110.851447 55.7154587,110.874849 C63.4706058,104.499661 71.45079,98.1268943 82.0302728,98.3463944 C81.5343848,97.8496139 80.8683074,97.6276928 80.3143453,97.2947305 C76.8776508,95.1323313 71.6700196,94.9670606 68.3473761,97.403835 C63.86067,99.7334416 61.5877153,105.333116 56.6562587,106.716936 C54.7178752,107.216944 50.2268136,107.935646 36.2596765,101.706683 C27.4143499,97.7613297 12.2827631,87.928046 11.949418,76.1762342 C12.2260603,73.9583143 12.3243506,72.5920873 14.6080006,70.1901747 C16.3238152,71.7978519 17.4323847,74.4028021 19.5382151,75.3989454 C17.1015239,70.9668179 18.0694251,62.3535353 25.6329278,57.2215897 C25.6329278,57.2215897 27.2398051,61.2135871 28.5688948,62.0413932 C29.3490231,60.6009235 29.5569606,59.7623038 30.1385079,58.8387893 C36.5276238,48.6757711 43.9165816,48.7872966 43.8599594,38.4856383 C44.0911265,36.7128518 44.6608976,36.2720762 45.3552055,35.9336263 C45.9646606,37.8192294 47.959021,39.0941056 49.4542671,40.2037111 C54.3865303,43.0281615 61.8082355,46.2988751 67.1266913,41.918556 C70.6183949,35.9336263 72.6134007,29.3970411 75.4937133,23.1882536 C74.053315,20.9135219 74.898938,14.1045951 78.1523766,13.0990262 C78.4988853,15.2425743 79.6785955,17.3079092 80.8128144,17.5872877 C80.559547,9.90006985 86.7891205,7.51127882 86.7891205,7.51127882 C86.7891205,7.51127882 88.1186941,12.0240888 91.0601459,13.2074528 C91.0601459,13.2074528 95.7781803,3.5085 97.3313391,3.34395559 C98.8822395,3.5085 103.57043,13.2686062 103.57043,13.2686062 C106.513173,12.0852422 107.842262,7.57432056 107.842262,7.57432056 C107.842262,7.57432056 114.073772,9.96123938 113.822279,17.6502326 C114.952787,17.3677876 116.134917,15.3037277 116.479006,13.1589207 C119.73551,14.1626013 120.581778,20.975337 119.140734,23.2474863 C122.021047,29.4549827 124.014278,35.9947958 127.503401,41.9815009 C132.823631,46.3619814 140.248563,43.0911064 145.1776,40.2653648 C146.673652,39.1570505 148.668013,37.8803989 149.279888,35.9947958 C149.97113,36.3319545 150.541386,36.774667 150.774488,38.5455167 C150.716576,48.8471749 158.10634,48.738716 164.494811,58.9030253 C165.077165,59.8221822 165.285263,60.6608019 166.064424,62.1025627 C167.393675,61.2754023 169.002004,57.281468 169.002004,57.281468 C176.564539,62.4147049 177.53244,71.028633 175.094942,75.4620517 C177.200127,74.4646172 178.308374,71.85886 180.026399,70.2481163 C182.310646,72.6521271 182.405823,74.0214206 182.684901,76.2374037 C182.352588,87.9892155 167.267848,97.7613297 158.421392,101.706683 C144.45361,107.935646 139.915927,107.276822 137.974479,106.776814 C133.044797,105.392995 130.773133,99.7963865 126.286588,97.4669413 C122.962492,95.0251635 117.756958,95.1952762 114.320102,97.3578368 C113.76614,97.6875712 113.100063,97.9094923 112.601755,98.4075639 C123.183658,98.1867726 131.161261,104.560831 138.917699,110.936664 C162.158942,110.990248 183.847995,90.5362242 183.847995,90.5362242 C184.346465,95.0251635 183.844769,105.374111 177.866366,112.099854 C179.139156,112.764972 183.975436,109.963762 187.063041,106.501309 Z M97.3100453,22.6194899 C95.0943581,23.0652689 91.9115763,22.5407281 88.9309245,24.9742746 L90.6739533,26.7887015 C91.839145,25.8688991 92.1446792,25.6962041 93.3261639,24.7245932 C94.3426215,25.6962041 94.2467993,25.7478512 95.4378017,27.0661433 C95.8460947,26.5290135 96.4007021,26.3606762 97.3031087,25.1250195 C98.2053539,26.3606762 98.7668979,26.590183 99.1764815,27.1292495 C100.363612,25.9478223 100.273597,25.7573736 101.288119,24.7839873 C102.472185,25.7573736 102.777074,25.9320054 103.939685,26.8498711 L105.68594,25.0373809 C102.702062,22.6018977 99.5299267,23.0652689 97.3100453,22.6194899 Z M112.195882,36.4115233 C110.790651,33.6027285 109.636912,31.3835174 108.559961,29.4259312 L108.317986,28.985317 L105.659322,33.8354632 C104.834509,33.0233126 103.077123,31.6628959 102.501706,31.2253482 L102.267958,31.0450676 L102.103576,31.291521 C101.889186,31.6162521 101.209397,32.3134879 100.610104,32.9300251 C100.390068,33.1545285 100.178421,33.3720919 99.9850016,33.5706104 C99.5426708,33.2250591 99.0587202,32.8796692 98.6244551,32.5731759 C98.1411498,32.2264948 97.7214033,31.9308152 97.5008832,31.7258408 L97.3100453,31.5468514 L97.1203367,31.7258408 C96.9048173,31.9308152 96.4863614,32.2245581 95.9993457,32.5668815 C95.5633063,32.878378 95.0735482,33.2219925 94.6287976,33.5706104 C94.439089,33.3738673 94.2266347,33.1558197 94.0106314,32.9313162 C93.4094034,32.3165544 92.7281623,31.6162521 92.5115137,31.291521 L92.3476158,31.0450676 L92.1112866,31.2253482 C91.5397409,31.6628959 89.7817097,33.0202461 88.9536702,33.8354632 L86.2982332,28.985317 L86.0543221,29.4259312 C84.9875337,31.3678619 83.7991123,33.6493722 82.4184012,36.4115233 L82.1449691,36.9599509 L82.7379699,36.803557 C88.2188719,35.3522737 91.2038792,35.3522737 97.1776042,35.4090855 L97.2998823,35.4090855 L97.4284519,35.4090855 C103.404758,35.3555017 106.398638,35.3522737 111.878894,36.803557 L112.47125,36.9599509 L112.195882,36.4115233 Z" id="path16" fill="#231F20" fill-rule="nonzero"></path>
                        <path d="M50.1203444,158.211508 C47.8493256,164.862363 41.0249768,167.593203 36.0599662,172.814401 C35.0630279,173.75696 34.7020008,174.657557 34.5532666,176.169848 C32.6131086,172.623952 30.751028,165.043127 37.7657307,158.321743 C36.0599662,157.66421 32.2904749,160.340498 32.5122856,159.952822 C36.7776649,154.297627 43.5265174,146.239067 40.0362657,138.534934 C37.4872978,138.643393 35.2269259,138.263787 32.7228041,137.204537 C34.275479,145.627533 29.0112256,152.223351 28.8442627,160.484303 C28.9015301,169.131318 30.8392684,177.002657 34.275479,184.262302 C38.8194525,175.506506 50.5079889,169.239454 50.1203444,158.211508" id="path18" fill="#D01C2E" fill-rule="nonzero"></path>
                        <path d="M63.5280346,145.961625 C63.3136445,145.042468 67.4840082,147.165809 69.6750139,145.572012 C64.9111655,142.081153 60.7579014,137.259412 57.9884134,132.379731 C54.6636727,134.600878 50.4581419,136.420954 46.7957651,137.204537 C55.4589649,146.693077 58.3752512,159.92942 53.8306324,169.518671 C52.8349847,171.62329 51.6163971,173.674648 50.2319757,175.614642 C55.5472052,172.068746 68.7719621,168.692317 63.5280346,145.961625" id="path20" fill="#D01C2E" fill-rule="nonzero"></path>
                        <path d="M139.79623,99.3299487 C135.364372,93.8417995 129.383065,90.9605373 123.065251,89.4613191 C116.80535,88.2981297 111.653373,91.4030884 107.219579,95.4494767 C105.116814,95.0080554 102.899352,94.7841976 100.850144,94.120371 C99.5212156,94.4533334 100.57284,95.4494767 100.462661,96.3918747 C104.008406,100.325931 107.885657,104.929623 113.480771,104.371673 C118.245265,104.430261 122.068958,106.646405 126.226094,108.088166 C131.873314,110.968137 137.083364,116.178844 140.351322,121.666994 C141.570071,120.914883 141.307931,121.178444 141.902706,120.612263 C141.965136,118.591571 140.795588,116.643507 139.68718,114.315837 C162.158942,114.315837 171.321741,106.092813 176.083815,103.320655 C174.699716,108.031516 172.836506,111.945397 168.493856,116.068449 C171.1943,118.237304 173.64793,118.896127 175.30788,118.341244 C170.544193,124.21723 164.670646,128.98345 157.859848,130.813048 C148.883532,133.085843 141.532806,128.863693 134.664257,124.820533 C132.961718,128.026365 120.510637,150.995925 100.296182,147.441314 C99.7436716,147.774276 99.5765473,148.549628 100.019039,148.938757 C101.736096,150.600018 103.67448,151.654748 105.503813,153.039859 C106.335563,155.092024 103.011467,155.922896 104.174723,157.584157 C107.498819,156.809935 110.047141,154.092653 112.817758,151.986904 C115.309459,151.601165 115.475777,155.255842 117.470782,155.702267 C119.131217,153.925607 120.352547,152.263054 122.346907,151.211552 C122.063312,155.541515 121.993301,155.608979 122.622275,158.797864 C119.741156,159.630028 117.436099,161.968511 115.720978,164.186109 C102.918226,156.715357 97.2664897,167.120309 97.2664897,167.120309 C97.2664897,167.120309 91.6507269,156.676298 78.8518466,164.147373 C77.1322088,161.929776 74.8282813,159.5921 71.9492591,158.757999 C72.5472607,155.404005 72.5472607,155.333474 72.2252723,151.170557 C74.2196327,152.223351 75.4364459,153.88784 77.0999454,155.662563 C79.0944672,155.216784 79.2607848,151.561461 81.7542597,151.947846 C84.5243929,154.054886 87.0733608,156.770877 90.3985854,157.546391 C91.5599055,155.881902 88.2359715,155.054095 89.0690118,152.998864 C90.8938282,151.615045 92.8346314,150.56209 94.550559,148.897762 C94.9961161,148.511861 94.8291532,147.736348 94.2751911,147.403547 C74.0608969,150.957997 61.610461,127.987307 59.9077615,124.779538 C53.0355016,128.825765 45.6880021,133.046785 36.7121703,130.775281 C29.8984684,128.945683 24.0255665,124.177527 19.2604275,118.30154 C20.9226365,118.856423 23.3777179,118.1976 26.0747747,116.030682 C21.7337377,111.907468 19.8716571,107.992296 18.4852999,103.27966 C23.2510842,106.054884 32.5218033,114.315837 54.8848381,114.315837 C53.7770752,116.643507 52.6068826,118.552513 52.6693123,120.574335 C53.2616678,121.138741 52.9988826,120.875825 54.2194061,121.62729 C57.4880084,116.141077 62.6949943,110.93037 68.3473761,108.047171 C72.5037052,106.60541 76.3243339,104.387329 81.0894729,104.333745 C86.6857164,104.888629 90.5642578,100.286227 94.1082281,96.352171 C93.9978874,95.4115484 95.0509639,94.4123385 93.7213902,94.078085 C91.672666,94.7444939 89.4558496,94.9670606 87.3493739,95.4115484 C82.9175156,91.3640302 77.7648935,88.2603627 71.5043472,89.4235521 C65.1895984,90.9195424 59.2052265,93.8020958 54.7740134,99.2900836 C53.9435542,98.4579199 53.2232744,97.5721722 52.5029946,96.7400084 C49.5104053,92.8613117 46.1309783,88.9241893 45.467482,84.2682039 C48.8991757,84.8810289 56.0734208,84.8324483 59.7041796,80.6651735 C58.3752512,80.2219769 52.9554884,76.2280427 51.727867,70.7997718 C54.1653649,71.96167 56.7319163,73.3708286 64.6357976,76.0091881 C64.9684329,75.842142 65.4656115,75.3989454 65.2980033,75.0679198 C63.86067,71.6855194 60.682889,68.2338797 62.8626025,64.1484332 C65.1941152,59.7811873 74.7740788,58.3292584 75.9366895,57.2215897 C77.9292754,52.6065991 79.2607848,48.5792556 81.0894729,44.0904777 C81.420979,43.0362314 82.8633132,42.0320182 83.7505559,41.5326554 C88.2125805,40.4230499 92.7357442,39.9564507 97.2092223,39.969201 C101.682539,39.9564507 106.358792,40.4640448 110.822108,41.5717135 C111.708705,42.0717219 113.147329,43.0754509 113.480771,44.1301814 C115.309459,48.617184 116.642743,52.6458186 118.632748,57.2575812 C119.797294,58.3658956 129.378064,59.8204068 131.706351,64.1862001 C133.889774,68.2735834 130.711348,71.7265143 129.270305,75.1089147 C129.103987,75.4386491 129.603585,75.8831369 129.937027,76.0514742 C137.840263,73.4098868 140.40746,72.0007281 142.844151,70.8375387 C141.61411,76.2658096 136.196122,80.2597439 134.867839,80.7061684 C138.494887,84.8715065 145.669132,84.9187958 149.104698,84.307262 C148.43862,88.9651842 145.060484,92.8992401 142.070314,96.7797121 C141.34955,97.6118759 140.628625,98.4976236 139.79623,99.3299487 Z M108.64191,123.530001 C107.243615,120.779309 107.422516,117.821222 107.422516,117.821222 C113.629505,124.141535 133.239506,120.481693 133.239506,120.481693 C128.142377,118.270068 114.342203,120.289469 105.815639,104.518545 C101.162131,107.567983 101.420399,120.223296 108.64191,123.530001 Z M88.5692521,104.613124 C80.0434943,120.384048 66.2426749,118.364646 61.1453845,120.574335 C61.1453845,120.574335 80.7560309,124.234177 86.9623748,117.913864 C86.9623748,117.913864 87.143211,120.873888 85.7418514,123.62458 C92.9644915,120.315938 93.2229211,107.659495 88.5692521,104.613124 Z M108.459138,45.644571 C106.462842,43.4271353 103.307,43.8937345 100.647207,44.6137273 C99.6118757,45.6968637 98.4871745,46.0732418 97.3100453,46.0890588 L97.2998823,46.0890588 C96.1279153,46.0732418 95.0193458,45.6981548 93.9840141,44.615664 C91.3261574,43.8950257 88.168541,43.4284265 86.175955,45.6463463 C84.1235205,49.3061885 80.745384,52.7989845 82.4626021,57.7303135 C83.3491996,59.3948025 85.1230398,60.7237468 86.7299172,61.4437395 C89.3342167,61.9437479 91.5807154,60.5421749 94.0401524,61.998623 C95.088712,62.6183881 96.2834248,62.9273023 97.3031087,62.9555468 C98.321986,62.9273023 99.5426708,62.6151601 100.58994,61.995395 C103.050667,60.5421749 105.298941,61.9418112 107.904531,61.4424483 C109.508988,60.7206802 111.282828,59.3915745 112.170071,57.7291837 C113.887128,52.7938198 110.507056,49.3011852 108.459138,45.644571 Z M113.589821,66.7635515 C113.441087,66.5051546 113.175721,66.3581218 112.855668,66.3581218 C112.805176,66.3581218 112.745972,66.3600586 112.690479,66.3676442 L112.585946,66.4086391 C111.842437,66.914942 111.100702,67.4677273 110.384777,68.0055027 C108.132149,69.6951696 105.801765,71.4447149 103.024695,71.849499 C102.575428,71.9395586 102.137453,71.9837814 101.717222,71.9837814 C100.129864,71.9837814 98.6660749,71.3577218 97.479428,70.1787155 L97.3031087,70.0053749 L97.1285638,70.1787155 C95.6249293,71.6748672 93.6791252,72.2612231 91.5932981,71.8525655 C88.8030002,71.4447149 86.4734234,69.6951696 84.2232144,68.0055027 C83.5053543,67.4677273 82.7644259,66.914942 82.0196259,66.4086391 L81.9155766,66.3676442 C81.5053478,66.3097026 81.1883601,66.4641597 81.0188161,66.7635515 C80.8424967,67.0737568 80.8626614,67.494842 81.0693083,67.8416845 C83.3856572,71.3766053 86.8792966,76.7090062 92.1900092,76.7090062 C92.9228718,76.7090062 93.6791252,76.6063576 94.4447351,76.4076777 C95.3339137,76.2614519 96.2085737,75.6783239 97.3031087,74.9375109 C98.3982889,75.6783239 99.2716584,76.2614519 100.184712,76.4109056 C100.925802,76.6063576 101.682539,76.7090062 102.416692,76.7090062 C107.727566,76.7090062 111.219754,71.3766053 113.533037,67.847979 C113.743556,67.494842 113.765011,67.0737568 113.589821,66.7635515 Z M115.413347,77.869129 C115.24832,77.5834561 114.952787,77.41641 114.599181,77.41641 C114.539977,77.41641 114.478193,77.4227045 114.413989,77.428999 L114.352205,77.4404582 L114.299938,77.4732218 C113.469963,78.0361751 112.64644,78.6552946 111.846792,79.2510116 C109.34509,81.1317727 106.755148,83.073542 103.667543,83.5273909 C103.165364,83.6251975 102.678832,83.6737781 102.211174,83.6737781 C100.446852,83.6737781 98.8185193,82.9802545 97.4984634,81.6676113 L97.3031087,81.4765171 L97.107754,81.6676113 C95.435382,83.3288724 93.2764783,83.9844676 90.954322,83.528682 C87.8509081,83.073542 85.2603205,81.129836 82.7555535,79.2510116 C81.9596161,78.6552946 81.1367387,78.0361751 80.308054,77.4732218 L80.2538515,77.4404582 L80.1914219,77.428999 C79.7371536,77.3647629 79.3824178,77.5348755 79.1927091,77.869129 C78.9979997,78.2158101 79.0213906,78.6824094 79.2501379,79.065082 C81.8286268,82.9978468 85.7108785,88.928547 91.6166891,88.928547 C92.4313393,88.928547 93.2751878,88.8170216 94.1246824,88.5912269 C95.1158133,88.4274088 96.0862955,87.7798834 97.3031087,86.9583718 C98.5192765,87.7798834 99.4921786,88.4274088 100.507346,88.5994582 C101.330868,88.8170216 102.174717,88.928547 102.987592,88.928547 C108.893887,88.928547 112.77872,82.9978468 115.350433,79.0763798 C115.584181,78.6824094 115.608056,78.2127436 115.413347,77.869129 Z" id="path22" fill="#D01C2E" fill-rule="nonzero"></path>
                        <path d="M143.690419,157.03573 C145.962084,163.687391 152.784658,166.419845 157.750314,171.641044 C158.747736,172.581989 159.106989,173.480971 159.259433,174.994877 C161.199591,171.445753 163.059091,163.86977 156.043904,157.147255 C157.750314,156.490369 161.521741,159.163429 161.301059,158.775753 C157.034389,153.121849 150.283117,145.063288 153.774014,137.359156 C156.322337,137.46939 158.583354,137.086072 161.086831,136.028759 C159.536737,144.454821 164.798086,151.0508 164.965856,159.306588 C164.909395,167.954732 162.970366,175.826072 159.536737,183.085717 C154.992763,174.32992 143.302936,168.066096 143.690419,157.03573" id="path24" fill="#D01C2E" fill-rule="nonzero"></path>
                        <path d="M129.951384,146.128671 C130.165129,145.206447 125.999121,147.332855 123.80376,145.740995 C128.568254,142.248199 132.720872,137.425329 135.494877,132.546777 C138.818166,134.764696 143.022568,136.588 146.683654,137.368517 C138.019809,146.858186 135.104168,160.096466 139.648141,169.686524 C140.643789,171.789529 141.864313,173.840887 143.250024,175.782495 C137.931569,172.233371 124.711813,168.86017 129.951384,146.128671" id="path26" fill="#D01C2E" fill-rule="nonzero"></path>
                        <path d="M97.3100453,15.2425743 C95.2216371,19.3726632 88.5119846,19.4722452 87.2370974,18.2524054 C87.1822497,19.529057 86.202411,20.8328233 85.3151682,21.9404921 C82.9326794,24.656645 80.7560309,25.0165607 79.3722548,28.5093567 C76.4358039,36.4902851 72.7784278,44.1944174 69.9542534,52.1748617 C71.1715505,52.1748617 72.5037052,51.9004865 72.9995932,50.5671845 C74.4414434,46.8550497 81.9905889,29.1599487 84.5942432,25.3892267 C84.5942432,25.3892267 86.7928308,20.6475394 97.3031087,20.6475394 C107.813225,20.6475394 110.021331,25.3892267 110.021331,25.3892267 C112.624985,29.1599487 120.176066,46.8550497 121.612109,50.5671845 C122.112514,51.9004865 123.441442,52.1748617 124.66132,52.1748617 C121.837791,44.1944174 118.17977,36.4902851 115.243964,28.5093567 C113.857607,25.0165607 111.679829,24.656645 109.297824,21.9404921 C108.409936,20.8328233 107.431388,19.529057 107.375895,18.2524054 C106.101815,19.4722452 99.4015185,19.3726632 97.3100453,15.2425743" id="path28" fill="#D01C2E" fill-rule="nonzero"></path>
                        <polyline id="path30" fill="#FFFFFF" points="160.822271 41.4708403 160.822271 40.7918424 162.02021 40.7918424 162.02021 37.5072487 162.838086 37.5072487 162.838086 40.7918424 163.994728 40.7918424 163.994728 41.4708403 160.822271 41.4708403 160.822271 41.4708403"></polyline>
                        <polyline id="path32" fill="#FFFFFF" points="166.7597 37.5072487 167.464654 40.7130806 167.464654 37.5072487 168.280918 37.5072487 168.280918 41.4708403 167.090399 41.4708403 166.351568 38.4244688 165.61435 41.4708403 164.420605 41.4708403 164.420605 37.5072487 165.235255 37.5072487 165.235255 40.7130806 165.943436 37.5072487 166.7597 37.5072487 166.7597 37.5072487"></polyline>
                    </g>
                </g>
            </g>
        </g>
    </g>
</svg>