<svg width="200" height="200" xmlns="http://www.w3.org/2000/svg"><g fill-rule="nonzero" fill="none"><path d="M150.257 75.82c.585-2.674-3.555-6.786-6.496-9.365-2.48-2.173-5.045-4.42-7.544-7.84l-1.722-2.509s-3.699 17.568 4.939 24.153c1.971 1.503 3.502.245 3.502.245s6.015 2.189 7.32-4.684" fill="#CE0F3E"/><path d="M139.434 80.259c1.971 1.503 3.502.245 3.502.245s-1.662-.035-2.761-.87c-6.966-5.296-4.878-20.345-4.878-20.345 5.649 7.724 11.824 9.825 14.96 16.53.585-2.673-3.555-6.785-6.496-9.364-2.48-2.173-5.045-4.42-7.544-7.84l-1.722-2.509s-3.699 17.568 4.939 24.153" fill="#231F20"/><path d="m130.303 116.53.032-.081m11.1-16.464c-1.257-25.762-12.972-34.842-14.073-35.64-.384-.31-2.84-2.27-5.46-3.768l-3.245-1.855.223 1.873c-2.251-1.409-6.189-2.987-6.189-2.987l.578 2.196c-2.343-1.017-6.127-2-6.127-2l.639 1.812c-2.615-.8-6.304-1.512-6.304-1.512l.893 1.989c-3.164-.593-6.694-.735-6.694-.735l1.122 1.805c-2.696-.237-6.612.046-6.612.046l1.187 1.507c-2.746.006-6.406.582-6.406.582l1.117 1.228c-2.847.164-6.256.745-6.256.745l1.291 1.302c-2.273.255-6.245 1.093-6.245 1.093l1.152 1.045c-2.684.313-5.974 1.004-5.974 1.004l.947.876c-2.79.372-6.093 1.128-6.093 1.128l1.002.863c-2.318.263-5.789 1.087-5.789 1.087l1.033.93c-2.466.214-6.106 1.257-6.106 1.257l.905.78c-2.256.23-5.776 1.084-5.776 1.084l3.975 3.597 10.383 25.45 8.082 22.823 7.858 4.75c3.1 3.056 4.267 3.237 4.655 3.297.53.081 1.33.096 2.256.113.543.01 1.389.026 1.83.065l.429.332c2.369 1.846 6.778 5.28 10.497 5.28 3.582 0 5.615-1.71 7.238-3.799l5.784.591c3.647.365 6.888-1.587 8.46-5.094.626-1.396 1.189-1.662 2.859-2.45l.242-.112c1.694-.778 6.783-3.118 8.131-9.313.592-.96 2.029-3 3.509-4.017.592-.307 3.284-.613 6.051-.377l2.679.228s-3.33-12.373-3.658-19.099" fill="#231F20"/><path d="M191.636 111.153c4.203-3.674 8.33-3.334 8.33-7.825 0-2.866-2.768-3.965-4.478-3.965s-2.875.484-2.875.484c-1.838-1.668-4.558-1.173-4.558-1.173-1.198-1.069-8.905-5.597-12.67-7.429-4.85-2.537-7.08-5.183-9.902-8.532-3.286-3.9-7.376-8.753-16.92-15.054l-2.6-1.717-.076.775c-.33-.243-.682-.494-1.055-.749l-2.468-1.689-.203 1.318a20.63 20.63 0 0 0-1.235-.745l-2.796-1.554v1.251c-.71-.412-1.5-.84-2.316-1.23l-2.694-1.289v1.173a45.878 45.878 0 0 0-2.502-1.622l-2.85-1.71V65.79l.411.514c4.843 6.069 6.017 9.59 6.26 11.266-4.779.3-7.113 4.518-7.222 4.72l-1.371 2.547.077.006c-2.07 1.801-2.423 3.85-2.444 3.98l-.29 1.86c-2.804 2.87-3.235 6.567-3.258 6.788l-.557 5.287 3.003-3.003c-.753 3.092-.041 5.706.672 7.334l-2.47-1.235 1.016 3.988c1.391 5.462 4.01 9.261 7.781 11.293 3.071 1.654 5.994 1.619 7.243 1.605l.233-.003c1.758 0 2.76-.408 3.312-.784.901-.37 3.549-.948 5.932-.964 2.812.819 6.053.116 7.007-.127l3.833-.977.079-.02.074-.025c3.537-1.229 7.914-1.383 10.891-.385.642.215 5.335 2.78 5.903 3 1.534.592 2.861 1.104 4.287.983 1.34-.054 2.532-.66 3.646-1.855.633-.68 2.551-2.729 1.864-4.958 3.724 0 5.263-3.117 7.956-5.472" fill="#231F20"/><path d="M167.87 103.996c3.769 2.273 10.827 7.48 11.808 8.5.984 1.021 2.037 2.252 3.79 2.252 2.624 0 5.053-3.418 6.716-4.833 4.32-3.679 7.9-3.123 7.9-6.631 0-.683-.628-2.041-2.767-2.041-4.167 0-9.725 5.449-9.725 5.449 1.314-3.963 4.696-6.025 4.696-6.025-3.655-1.256-8.711 4.148-8.711 4.148.582-3.583 3.75-5.824 3.75-5.824-1.586-1.181-9.619-5.452-10.815-6.078-11.007-5.76-9.395-12.069-26.986-23.684l-.114 1.139s-1.48-1.366-3.643-2.847l-.227 1.48s-1.48-1.366-3.53-2.505v1.48s-2.392-1.707-5.01-2.96v1.936s-2.505-2.05-5.352-3.757v1.935c8.532 10.691 6.524 14.403 6.524 14.403-4.904-.799-7.3 3.65-7.3 3.65 1.483.114 2.51 1.14 2.51 1.14-5.475 1.14-6.046 4.79-6.046 4.79 1.37-.455 3.536.457 3.536.457-6.387 1.597-7.071 8.098-7.071 8.098 1.71-1.71 3.987-1.002 3.987-1.002-3.992 6.045-.239 11.086-.239 11.086 0 1.368.694 3.039.694 3.039l-2.826-1.413c3.08 12.09 11.6 11.477 13.433 11.477 1.832 0 2.346-.53 2.346-.53 1.105-.544 4.39-1.249 7.185-1.217 2.444.824 5.608.095 6.254-.07l3.835-.976c3.593-1.248 8.477-1.608 12.106-.391 2.33.78 8.054 4.032 9.477 3.889.797-.021 1.557-.373 2.383-1.26 1.557-1.67 2.012-3.036.645-4.858 0 0 .152 1.822-2.125 1.822-3.189 0-10.935-5.374-13.972-7.348-3.037-1.973-8.198-3.34-10.324-3.34-2.126 0-4.555-.607-4.555-2.884 0-2.624 7.488-3.16 13.432-1.541 2.177.593 2.151.53 4.332 1.845" fill="#CE0F3E"/><path d="M150.692 100.761c1.807-.982 5.23-1.296 8.786-.926-3.413-.83-6.74-.988-8.612-.208-1.575.657-1.911 1.735-1.972 2.32a3.77 3.77 0 0 0 .076 1.245c.02-.603.285-1.65 1.722-2.43" fill="#231F20"/><path d="M155.701 102.093c-.502.725-1.73 1.813-2.065 2.243-.185.238.106 1.167 1.255 1.357 1.068.178 1.392-.454 1.46-.782.34-1.647-.074-2.443-.65-2.818M171.89 108.51c-.78.498-2.366 1.075-2.861 1.358-.273.156-.453 1.132.468 1.727.855.553 1.436.077 1.648-.206 1.067-1.423 1.077-2.32.745-2.879" fill="#FFF"/><path d="M174.028 109.828c-.78.498-2.367 1.075-2.862 1.358-.273.156-.452 1.132.468 1.727.856.553 1.436.077 1.648-.206 1.067-1.423 1.077-2.319.746-2.879M169.432 106.872c-.69.607-2.162 1.409-2.603 1.76-.245.195-.26 1.185.747 1.638.935.42 1.43-.134 1.594-.445.82-1.562.68-2.449.262-2.953" fill="#FFF"/><path d="M159.592 106.69c.187-2.4.331-8.333-2.392-11.603a1.137 1.137 0 0 1 1.36-1.758c.215.1 5.252 2.588 6.822 12.526.226 1.426.04 2.496-.57 3.273-.52.664-1.297 1.044-2.306 1.129-.784.066-1.476-.176-2.002-.7-.779-.773-.98-1.988-.912-2.867" fill="#231F20"/><path d="M165.68 106.13c-1.294-.357-1.89-1.101-2.164-1.663-.445-.918-.401-2.07.13-3.332 1.546-3.682 4.44-5.416 4.563-5.488l2.258-1.328-.472 2.576c-.414 2.258-.434 2.583-.478 3.366-.031.538-.074 1.274-.243 2.848-.096.89-.526 2.065-1.449 2.693-.629.428-1.37.541-2.146.328" fill="#231F20"/><path d="M160.727 106.779c.312-3.976-.044-9.29-2.654-12.421 0 0 4.69 2.217 6.185 11.675.222 1.409.08 2.927-1.847 3.09-1.39.117-1.76-1.375-1.684-2.344M168.083 102.98c.425-3.964.034-2.483.734-6.301 0 0-2.657 1.562-4.067 4.92-.552 1.314-.618 2.862 1.248 3.376 1.343.37 1.982-1.028 2.085-1.994M158.337 102.688c-.503.725-1.732 1.813-2.065 2.243-.185.238.105 1.166 1.253 1.357 1.07.177 1.394-.454 1.46-.782.34-1.647-.072-2.444-.648-2.818" fill="#FFF"/><path d="M154.722 106.51c2.354.113 3.757 2.846 6.11 3.909 2.354 1.062 4.935-.19 6.909 1.138l-1.974-1.632-1.481-.91-1.404 1.1-1.746-.228-1.29-1.328.076-1.594-3.19-.797-2.01.341M24.858 99.981l-1.572-1.891c-.006-.007-.562-.702-1.039-1.864l-.165-.401-.323-.289c-.15-.134-3.73-3.277-8.68-3.277-3.586 0-5.287 2.046-5.47 2.28l-.297.382c-1.516.08-3.207.662-4.673 2.416 0 0-2.432 2.91-2.426 2.91l3.79.177c.644.03 2.576.305 3.757 1.209 2.765 2.113 7.265 3.168 12.16.221a12.339 12.339 0 0 0 2.693-.86s2.237-1.023 2.245-1.013" fill="#231F20"/><path d="M57.63 120.804a1.321 1.321 0 0 1-.158.1c.055-.029.105-.066.157-.1Zm33.91-10.816c-4.901-3.878-12.31-.422-19.48 2.927 5.251-10.365 1.823-22.185 1.66-22.73a1.89 1.89 0 0 0-.04-.12C69.93 80.026 61.745 74.521 61.153 74.6c-3.423.455-6.744 1.113-8.503 1.673-5.51 1.756-12.198 3.887-18.57 13.046a8.227 8.227 0 0 0-6.503-3.204c-4.48 0-8.09 3.586-8.215 8.164a8.152 8.152 0 0 0 2.334 5.964c1.524 1.535 3.59 2.334 5.413 3.039 1.16.449 2.476.957 2.847 1.423.07.087.147.525.204.846.23 1.294.57 3.205 2.715 5.68.117 1.503.875 4.477 4.505 8.088 2.161 3.528 1.752 7.033 1.355 10.425-.437 3.727-.932 7.951 3.05 10.83 3.809 2.756 11.24-1.127 19.844-5.623 4.656-2.433 9.471-4.948 12.148-5.348 4.753-.71 6.684.333 6.703.344l-.05-.031a1.882 1.882 0 0 0 2.584-2.631c-.08-.12-.139-.206.04-.603.268-.59.888-1.342 1.487-2.07 1.144-1.39 2.505-3.045 2.672-5l.612-.252a1.882 1.882 0 0 0 1.121-2.16l-.354-1.557.602-.29a1.882 1.882 0 0 0 1.053-1.926c.272-.077.443-.108.443-.109a1.882 1.882 0 0 0 .85-3.33Z" fill="#231F20"/><path d="M6.588 98.126s2.012-.873 4.29.607c2.277 1.48 7.179 2.277 10.952.55 0 0-.717-.862-1.324-2.342 0 0-3.139-2.8-7.427-2.8-2.771 0-3.986 1.556-3.986 1.556s3.15.455 4.935 1.632c0 0-2.126.455-3.34.076-1.215-.38-4.29-1.632-6.605 1.138 0 0 2.885.114 4.82 1.594 1.936 1.48 4.82 2.316 8.161.987 0 0-4.473-.058-7.211-2.05-1.67-1.214-3.265-.948-3.265-.948" fill="#CE0F3E"/><path d="M15.486 96.927a30.636 30.636 0 0 1 2.259-.44c-1.186-.611-2.815-1.208-4.666-1.208-.254 0-.489.016-.709.044.797.267 1.616.614 2.284 1.055l.832.549M19.029 99.009a12.353 12.353 0 0 1-.478-1.091c-.658-.571-5.779.61-6.26.649 1.843.663 4.38.998 6.738.442M153.101 75.963a41.425 41.425 0 0 0 4.854 5.3c-.938-.467-1.96-.85-3.109-1.1 1.114 1.445 4.814 4.61 8.226 4.788-2.592-3.395-5.282-6.886-9.97-8.988M164.689 90.826s-3.935.458-9.126-5.976c-5.475-6.787-10.779-5.361-10.779-5.361 8.669 1.14 9.695 13.573 19.905 11.337" fill="#231F20"/><path d="M155.48 90.324a1.744 1.744 0 1 0 0-3.489 1.744 1.744 0 0 0 0 3.489" fill="#231F20"/><path d="M158.944 90.377c1.573.705 3.42.958 5.745.449 0 0-3.935.458-9.126-5.976-5.475-6.787-10.779-5.361-10.779-5.361 3.028.398 5.124 2.175 7.004 4.223-.43-.028-.821-.042-1.157-.047-1.113-.66-2.748-1.507-4.364-1.895 0 0 1.904 1.137 3.102 2.737-.009 1.57.287 8.494 6.12 7.807.147-.003.298-.011.45-.025-.955-.41-1.177-.768-1.177-.768 1.878.376 3.466-.596 4.182-1.144" fill="#231F20"/><path d="M157.083 89.26a1.74 1.74 0 0 1-1.602 1.064c-.962 0-1.744-.78-1.744-1.744 0-.681.392-1.268.961-1.555-.147-.16-.29-.32-.435-.483-.61-.12-1.314-.116-2.122.076 0 0 .228 6.33 5.695 3.311 0 0-.023-.072-.072-.194-.231-.149-.46-.307-.681-.474" fill="#FFF"/><path d="M155.613 87.978a19.94 19.94 0 0 1-.374-.378.993.993 0 0 0 .024 1.94.99.99 0 0 1 .35-1.562M151.334 86.161l-.875-.17c0 1.283.57 3.25 1.883 4.171-.893-1.328-1.005-3.193-1.008-4M153.548 85.722c-.247-.288-.495-.577-.745-.866a7.955 7.955 0 0 0-2.176.385c.613.07 1.737.218 2.921.481" fill="#CE0F3E"/><path d="M155.607 102.006c-.502.724-1.73 1.812-2.064 2.243-.185.238.105 1.166 1.253 1.357 1.069.177 1.393-.455 1.462-.783.338-1.647-.074-2.443-.65-2.817" fill="#FFF"/><path d="M158.243 102.6c-.503.725-1.732 1.813-2.065 2.244-.185.237.105 1.166 1.254 1.357 1.068.177 1.393-.455 1.46-.783.34-1.647-.075-2.443-.65-2.818" fill="#FFF"/><path d="M139.555 100.077c-1.26-25.84-13.335-34.235-13.335-34.235s-2.564-2.093-5.253-3.63l.243 2.038s-2.53-1.796-5.681-3.255l.552 2.099s-2.96-1.48-5.92-2.391l.682 1.935s-2.82-1.131-6.107-1.871l.84 1.868s-2.633-.68-6.29-1.035l1.08 1.739s-2.645-.392-6.36-.321l1.263 1.604s-3.754-.162-6.43.137l1.377 1.515s-2.872-.083-6.373.372l1.448 1.461s-2.756.045-6.343.714l1.52 1.378s-2.36.017-6.346.715l1.287 1.188s-3.03.06-6.346.715l1.448 1.247s-3.308.107-6.345.715l1.501 1.35c-1.061.024-3.896.141-6.56.741l1.447 1.247s-3.308.107-6.345.715l1.522 1.377 10.511 25.77 7.842 22.3 7.553 4.567s2.79 2.779 3.777 2.93c.987.152 4.25.02 4.63.304 1.744 1.308 6.604 5.466 10.096 5.466 6.149 0 6.3-6.073 11.994-10.78 5.693-4.706 12.145-3.111 17.08-16.623l4.782 1.67c-4.783 3.416-5.562 7.664-8.959 10.453-5.418 4.449-11.955 4.738-16.167 10.801l-.517.769 4.996.51c2.857.286 5.308-1.206 6.556-3.99.91-2.032 1.988-2.54 3.772-3.383 1.386-.654 6.295-2.597 7.403-8.424 0 0 1.89-3.283 4.24-4.883 1.016-.694 4.47-.922 7.254-.685 0 0-2.677-9.89-3.02-16.904" fill="#CE0F3E"/><path d="M120.514 84.206s-1.356-2.42-4.425-4.605c.31 1.18.395 2.93.395 2.93-5.186-3.254-10.011-3.556-10.011-3.556l1.18 1.77c-4.77-.35-9.388 1.482-9.388 1.482 6.622-.997 10.973.599 10.973.599l-.342-1.074c5.475 1.825 8.355 5.19 8.355 5.19 0 .001.315-.81.338-2.031a60.842 60.842 0 0 1 2.854 5.267c0 .001.352-.745.738-1.848 1.011 2.616 1.706 5.577 1.706 5.577s.2-2.513 2.1-4.009c-.54-1.454-2.068-5.193-4.37-7.7-.073 1.166-.102 2.008-.103 2.008" fill="#231F20"/><path d="M124.987 89.898s-2.81 2.708-2.81 9.21c0 0-2.68-4.962 1.057-10.602l1.753 1.392M128.077 107.03c-.788-1.388-3.206-4.777-.146-9.199 0 0-1.154 4.982 1.785 6.45 0 0-.286 2.852 2.41 3.787 0 0 .088 2.177 2.765 3.069 0 0 1.13 2.308 4.206 2.102 0 0 1.725 2.255 6.17 1.836 0 0-.888-1.215-1.005-2.16 0 0 1.918 2.197 7.24 2.274 2.652-.152 6.006-1.663 10.386-1.85 6.712-.287 9.706 2.8 9.706 2.8a28.054 28.054 0 0 0-1.98-.728c-3.841-1.288-9.17-1.131-13.577.399l-3.65.921s-3.362.857-5.25.007c0 0-4.15-.236-9.083 1.735 0 0-7.528.937-9.866-4.48 0 0 3.194 1.596 4.734.399 0 0-5.017-2.685-4.845-7.362M130.077 73.227l2.77 4.617s-6.413-6.156-14.06-9.152l.653 1.879s-5.385-2.24-6.13-2.501l.721 1.59-6.594-2.448c-.011-.003 1.13 1.632 1.13 1.632s-5.357-1.005-6.151-1.098l1.292 1.572s-5.656-.592-6.49-.635l1.67 1.755s-5.538-.308-12.154 1.061l2.19 1.9s-8.054.9-15.125 3.638c0 0 5.532-3.18 12.016-4.526l-2.336-2.076s7.139-1.41 12.017-1.739c.001 0-.812-.895-1.666-1.833.792.012 1.327.034 1.341.034l4.955.213-1.3-1.651c.758.068 1.198.131 1.208.133l4.853.71-1.071-1.726c.747.152 1.18.262 1.191.265l4.581 1.175-.76-1.694c.719.251 1.157.426 1.168.43l4.666 1.868-.708-2.01c.674.304 1.098.516 1.11.521l4.498 2.246-.735-2.796c3.276 1.705 5.378 3.528 5.415 3.545l-.77-2.353s2.91 1.964 5.117 4.221l.616 1.283.872 1.95M108.804 136.006l4.993.51c2.119.212 3.877-.878 4.824-2.989 1.169-2.609 2.684-3.324 4.603-4.23l.277-.128c1.584-.727 5.845-2.915 7.043-9.017l-1.882-1.084-3.373 5.518-7.443 4.363-4.704 2.31-4.338 4.747M91.351 111.98l-2.349.794.252 1.39-1.845.908.59 3.14-1.81.71c.27 2.257-2.068 4.395-3.754 6.767 4.595 1.078 3.674 4.636 6.267 4.469 15.342-.986 25.328-9.882 25.328-9.882-3.814-3.933-15.12-2.504-22.679-8.297" fill="#231F20"/><path d="m82.776 128.266-4.097.941 4.093 2.468c.608.497 1.127.98 1.585 1.406.39.363.911.846 1.164 1.004.321.028.955.038 1.435.046 1.692.027 2.77.06 3.57.38.457.183.862.484 1.839 1.21 1.507 1.119 5.512 4.093 7.411 4.093 2.439 0 3.33-1.177 5.284-4.08l.482-.712c1.048-1.477 2.046-3.125 3.887-4.684 0 0-2.317.518-5.554 4.694-1.765 2.277-2.742 2.609-4.099 2.448-3.359-.399-5.56-4.097-8-4.894-1.633-.533-2.239-.858-3.32-1.77-1.082-.91-.913-.969-1.198-2.28l-1.74-2.168-2.708-1.14-.77 1.254.736 1.784" fill="#231F20"/><path d="M57.63 120.804a1.321 1.321 0 0 1-.158.1c.055-.029.105-.066.157-.1Zm33.91-10.816c-4.901-3.878-12.31-.422-19.48 2.927 6.643-8.276-1.292-21.19-1.455-21.735-.012-.04-16.196-15.467-17.955-14.907-5.51 1.756-12.198 3.887-18.57 13.046a8.227 8.227 0 0 0-6.503-3.204c-4.48 0-8.09 3.586-8.215 8.164a8.152 8.152 0 0 0 2.334 5.964c1.524 1.535 3.59 2.334 5.413 3.039 1.16.449 2.476.957 2.847 1.423.07.087.147.525.204.846.23 1.294.57 3.205 2.715 5.68.117 1.503.875 4.477 4.505 8.088 2.161 3.528 1.752 7.033 1.355 10.425-.437 3.727-.932 7.951 3.05 10.83 3.809 2.756 11.24-1.127 19.844-5.623 4.656-2.433 9.471-4.948 12.148-5.348 4.753-.71 6.684.333 6.703.344l-.05-.031a1.882 1.882 0 0 0 2.584-2.631c-.08-.12-.139-.206.04-.603.268-.59.888-1.342 1.487-2.07 1.144-1.39 2.505-3.045 2.672-5l.612-.252a1.882 1.882 0 0 0 1.121-2.16l-.354-1.557.602-.29a1.882 1.882 0 0 0 1.053-1.926c.272-.077.443-.108.443-.109a1.882 1.882 0 0 0 .85-3.33Z" fill="#231F20"/><path d="M87.965 112.312c1.249-.65 2.406-.848 2.406-.848-7.336-5.805-23.86 9.642-33.364 7.617.647-.165 1.038-.916 1.793-.982 2.888-.255 6.004-2.04 9.524-3.65 6.558-2.909 10.835-4.79 10.835-4.79-3.535-9.468-13.606-33.625-13.606-33.625-5.06.202-9.518 1.113-10.779 1.53-6.332 2.102-14.394 3.712-21.77 17.07-1.353 2.453-3.87 2.619-6.193.732-.306-.249-.522-.611-.522-1.036a1.288 1.288 0 1 1 2.277.824c.637.311 1.253.425 1.797.316.668-.133 1.22-.596 1.64-1.376.44-.818.89-1.605 1.348-2.36a6.33 6.33 0 0 0-5.774-3.737c-3.498 0-6.238 2.837-6.333 6.333a6.315 6.315 0 0 0 1.788 4.587c2.382 2.4 6.957 2.81 8.396 4.615 1.045 1.312-.093 3.361 3.323 6.967 0 0-.494 3.15 4.118 7.648 5.33 8.392-2.083 16.49 4.018 20.903 4.812 3.48 23.217-10.205 30.612-11.308 5.72-.854 7.954.595 7.954.595-2.108-3.13 4.868-6.264 3.772-9.945l1.886-.773-.688-3.023 1.956-.939-.414-1.345" fill="#CE0F3E"/><path d="M41.374 115.626c-1.398-1.785-1.584-2.953-1.608-3.216l.23-1.47-1.469-1.675c-1.141-1.878-1.108-2.785-1.07-3.835 0-.006 0 0 0 0-1.969-2.444-.353-4.875-.353-4.875C35.965 98.39 36.42 96 36.42 96l1.822 2.505c-.798-2.505-.342-6.148-.342-6.148l1.139 1.138c0-2.618.91-4.326.91-4.326l.684 1.138c.91-2.619 2.846-4.896 2.846-4.896l.228 1.139c2.619-4.327 9.997-6.965 9.997-6.965-6.012 1.916-12.827 4.087-19.305 15.82-.832 1.507-1.714 2.39-3.542 2.745-2.017.392-4.226-.284-6.221-1.905-.87-.706-1.367-1.726-1.367-2.798 0-.61.127-1.185.37-1.687a5.054 5.054 0 0 0-.803 2.614 4.695 4.695 0 0 0 1.326 3.42c1.002 1.01 2.628 1.638 4.2 2.246 1.725.667 3.354 1.296 4.312 2.499.62.777.907 1.733 1.043 2.496.205 1.156.302 2.375 2.19 4.368l.539.569-.116.736c-.009.183-.06 2.678 3.65 6.298 1.995 2.404 2.653 5.31 2.653 9.302s-1.412 8.045.216 10.345c.551.78.834 1.29 1.972 1.29 7.761 0 25.156-14.769 34.68-11.98 0 0-.97-2.56-5.247-3.245l1.48 1.36s-2.748-.886-6.34.198l1.758.972s-3.332-.43-6.24.996l1.846.749s-2.964-.146-6.1 1.736l1.056.28s-2.778.093-5.23 2.09l.754.142s-9.434 4.97-12.286 4.97c-.753 0-1.209-1.402-1.209-2.718 0-1.315.183-2.498.183-2.498l.672 1.02s.768-3.256-.259-5.994l1.285 1.43s.18-3.217-1.817-6.41l1.932.936s-.804-2.835-4.366-6.351" fill="#231F20"/><path d="M29.805 91.042a4.688 4.688 0 0 1 1.276 1.865c.186-.332.373-.66.562-.981a4.727 4.727 0 0 0-4.061-2.328c-.655 0-1.277.137-1.843.382 1.415-.297 2.92.044 4.066 1.062M63.64 116.173l1.19.543a71.488 71.488 0 0 0 4.235-1.84c.114-.053 1.286-2.126 1.286-2.126 3.43-6.303.596-11.304-4.87-13.183 0 0 8.18 6.587 2.315 11.369l1.48.17s-.341.968-2.675 2.62l1.366.284s-.968 1.366-4.327 2.163" fill="#231F20"/><path d="M72.222 114.56c7.344-13.493-11.073-17.766-8.738-22.548 0 0 1.742 1.963 3.888 3.572 2.333 1.749 5.762 4.16 7.726 7.302.569.911 1.344 3.005 5.222 2.435 0 0-.554-5.263 2.577-8.014 0 0-3.603 9.24 2.556 12.576l-1.882.342-3.764 1.14-3.878 1.54-3.707 1.654M56.233 116.46l-2.32-.427c.068.456.269.902.458 1.24.887.537 1.58 1.38 2.636 1.808 1.92.03 4.316-.569 4.316-.569l1.198-1.112c-9.41-2.096-8.858-8.85-8.858-8.85-2.776 4.915 2.57 7.91 2.57 7.91M83.585 118.88a1.711 1.711 0 0 1 .991-2.071l.545-.224-.366-1.609a1.711 1.711 0 0 1 .928-1.922l.63-.303a1.705 1.705 0 0 1 .001-.881c-3.42-.05-8.145 2.157-12.754 4.31-5.909 2.761-12.019 5.616-16.91 4.574 0 0 5.305 3.08 17.903-3.149 5.576-2.757 8.483-3.482 8.483-3.482s-.34 1.01.344 2.15c0 0-1.312 1.37.205 2.607M136.646 120.737s-11.172 1.289-13.285-13.749c0 0-1.258 15.673 13.243 15.63l.042-1.881" fill="#231F20"/><path d="M188.687 109.502c2.159-1.112 4.769-1.882 6.223-2.117.656-.203 3.86-.807.428-.407-8.674 1.01-12.903 4.825-11.97 5.877.934 1.053 6.41-2.669 5.32-3.353" fill="#000"/><path d="M145.543 73.756c.075-2.736-4.758-6.003-8.13-7.988-2.841-1.673-5.78-3.403-8.873-6.294l-2.16-2.145s-.357 17.95 9.358 22.807c2.217 1.109 3.486-.413 3.486-.413s6.319 1.029 6.319-5.967" fill="#CE0F3E"/><path d="m138.742 78.087.151-1.33c1.292.266 2.508 1.254 2.508 1.254l-.304-1.482c1.634.304 2.774 1.292 2.774 1.292-1.824-4.787-7.903-9.308-10.677-11.322 0 0 .608 1.596 2.09 3.192 0 0-.456 1.481 1.064 2.925 0 0-.874 1.444.152 3.116 1.026 1.671 2.242 2.355 2.242 2.355" fill="#231F20"/><path d="M135.738 80.136c2.217 1.109 3.486-.413 3.486-.413s-1.64.276-2.875-.34c-7.832-3.902-8.588-19.077-8.588-19.077 6.991 6.535 13.45 7.447 17.782 13.45.075-2.736-4.758-6.003-8.13-7.988-2.841-1.673-5.78-3.403-8.873-6.294l-2.16-2.145s-.357 17.95 9.358 22.807" fill="#231F20"/><path d="m91.167 115.126-1.837.905c3.716 1.947 8.385 2.303 15.494 2.686-4.318-.848-8.772-1.553-13.876-4.798l.219 1.207" fill="#FFF"/><path d="M30.594 133.597h.228c.26 0 .48-.095.48-.338 0-.174-.125-.347-.48-.347a1.57 1.57 0 0 0-.228.016v.669Zm0 1.094h-.314v-1.976c.165-.023.322-.047.558-.047.3 0 .496.063.614.15.118.086.181.22.181.409 0 .26-.173.417-.386.48v.016c.174.031.292.188.33.48.048.307.095.425.127.488h-.33c-.048-.063-.095-.244-.134-.504-.048-.252-.174-.346-.425-.346h-.22v.85Zm.33-2.526c-.778 0-1.415.668-1.415 1.495 0 .842.637 1.503 1.424 1.503.787.007 1.416-.661 1.416-1.495 0-.835-.63-1.503-1.416-1.503h-.008Zm.009-.276c.968 0 1.739.787 1.739 1.77 0 1-.771 1.78-1.747 1.78-.968 0-1.755-.78-1.755-1.78 0-.983.787-1.77 1.755-1.77h.008Z" fill="#231F20"/></g></svg>