<svg width="200" height="200" xmlns="http://www.w3.org/2000/svg"><g fill="none" fill-rule="evenodd"><path d="M196.594 107.209l-4.531-14.923c-2.999-9.889-5.833-19.231-19.447-28.568-.856-1.376-.553-3.838-.17-4.534l.132-.204.101-.22c4.536-9.855 5.585-20.483 2.959-29.947-.934-4.75-3.45-11.25-5.401-15.883-4.252-10.096-4.957-10.446-5.932-10.934l-1.57-.782-1.531.849c-.637.355-1.097.828-2.206 1.969-2.475 2.542-8.27 8.496-14.9 10.699-5.86 1.945-12.354 4.7-17.06 10.366-1.028-.657-1.95-1.76-3.134-3.242-.777-.973-1.58-1.977-2.53-2.888l-1.776-1.707-2.148 1.204c-.851.476-1.64.97-2.401 1.45-2.061 1.29-3.685 2.31-5.35 2.31-.59 0-1.197-.124-1.86-.379-1.891-.815-2.69-2.01-3.792-3.657-.646-.965-1.377-2.06-2.381-3.112l-2.402-2.51-2.401 2.51c-1.022 1.07-1.758 2.189-2.41 3.178-1.085 1.653-1.872 2.85-3.738 3.65-.661.256-1.27.38-1.858.38-1.664 0-3.292-1.02-5.352-2.311-.76-.478-1.548-.97-2.398-1.45l-2.149-1.2-1.78 1.707c-.946.91-1.75 1.913-2.528 2.886-1.181 1.48-2.105 2.586-3.132 3.241-4.706-5.665-11.2-8.42-17.06-10.367-6.629-2.201-12.424-8.158-14.9-10.699-1.109-1.139-1.569-1.612-2.206-1.969L35.82 1.27l-1.569.788c-.974.487-1.679.84-5.932 10.931-1.953 4.636-4.465 11.133-5.4 15.887-2.626 9.462-1.579 20.088 2.955 29.943l.084.192.134.205c.355.647.708 3.17-.155 4.567C12.324 73.126 9.36 82.893 6.493 92.346L1.96 107.27l8.37-9.397c-1.147 4.759-1.212 9.318-.89 12.23l.734 6.598 4.526-4.24c-2.625 3.768-4.005 7.61-4.115 11.483l-.007.252.059.48c.288 2.329.563 4.53 3.524 7.642l2.272 2.385.964-.902c.98 4.37 3.668 8.78 8.33 11.946l3.41 2.315 1.29-3.21c2.424 3.418 4.913 5.655 6.968 7.502 3.412 3.075 5.126 4.617 5.1 9.355v.227l.03.223c.336 2.575 1.365 4.148 3.336 5.108l3.438 1.679 1.178-3.646c.211-.651 1.522-1.603 2.39-2.23.123-.093.246-.182.362-.267 3.93-2.234 7.093-3.319 9.668-3.319 1.414 0 2.613.344 3.645 1.05 1.903 3.38 3.338 6.946 4.855 10.708.774 1.926 1.573 3.902 2.445 5.864-.71 2.534-.378 5.742.484 8.078.972 2.639 2.678 4.455 4.808 5.108l2.695.831c2.32 3.33 5.518 4.602 5.732 4.684l3.334 1.259 1.039-3.409c.08-.263.19-.555.322-.862 3.866 7.08 5.464 7.25 6.68 7.383l.355.035.354-.035c1.285-.139 2.841-.307 6.667-7.415.124.292.228.571.303.815l1.017 3.454 3.358-1.285c.216-.084 3.415-1.354 5.732-4.684l2.699-.83c2.126-.658 3.835-2.473 4.807-5.11.861-2.337 1.195-5.546.484-8.077.869-1.962 1.667-3.94 2.442-5.865 1.517-3.762 2.952-7.328 4.858-10.71 1.032-.706 2.23-1.05 3.645-1.05 2.573 0 5.737 1.088 9.666 3.322l.363.265c.87.631 2.18 1.582 2.39 2.232l1.18 3.65 3.44-1.686c1.968-.959 2.996-2.532 3.334-5.101l.028-.227v-.226c-.026-4.741 1.688-6.284 5.101-9.356 2.055-1.85 4.544-4.087 6.967-7.5l1.29 3.205 3.41-2.314c4.663-3.168 7.349-7.574 8.331-11.945l.965.904 2.27-2.39c2.963-3.11 3.237-5.309 3.523-7.64l.06-.477-.009-.256c-.116-4.215-1.724-8.056-4.094-11.462l4.506 4.25.735-6.625c.323-2.913.257-7.475-.889-12.231l8.37 9.396" fill="#FFF" fill-rule="nonzero"/><path d="M189.024 93.712c-2.967-9.76-5.49-18.628-18.73-27.548-2.304-2.693-1.604-7.305-.631-8.796 3.897-8.474 5.344-18.531 2.74-27.786-1.606-8.37-9.141-24.391-9.583-24.613-1 .554-8.29 9.802-17.676 12.914-6.302 2.096-12.742 4.935-16.897 11.144-4.542-.666-6.404-5-9.175-7.661-4.153 2.329-7.39 5.552-12.487 3.56-4.232-1.795-4.884-5.002-7.321-7.55-2.438 2.548-3.062 5.817-7.293 7.61-5.098 1.995-8.334-1.232-12.49-3.557-2.77 2.658-4.63 6.995-9.173 7.658-4.157-6.207-10.596-9.048-16.898-11.14C44.026 14.83 36.736 5.586 35.738 5.032c-.443.221-7.977 16.24-9.586 24.61-2.603 9.258-1.157 19.312 2.741 27.787.97 1.49 1.672 6.1-.634 8.797C15.017 75.142 12.5 84.01 9.533 93.772c3.085-3.463 7.922-6.264 9.197-5.597-5.982 6.724-6.482 17.071-5.986 21.56 0 0 21.739-20.373 44.932-20.397 7.755 6.376 15.736 12.748 26.315 12.529-.496.497-1.162.718-1.716 1.051-3.437 2.163-8.644 2.328-11.967-.109-4.487-2.33-6.76-7.929-11.691-9.313-1.938-.5-6.43-1.218-20.397 5.01-8.845 3.946-23.976 13.78-24.31 25.531.277 2.218.375 3.584 2.659 5.986 1.716-1.608 2.824-4.213 4.93-5.209-2.437 4.432-1.469 13.046 6.095 18.178 0 0 1.607-3.992 2.936-4.82.78 1.44.988 2.279 1.57 3.202 6.388 10.163 13.777 10.052 13.72 20.354.232 1.772.802 2.213 1.496 2.552.61-1.886 2.604-3.16 4.1-4.27 4.931-2.825 12.353-6.096 17.671-1.715 3.492 5.985 5.487 12.521 8.367 18.73-1.44 2.275-.594 9.084 2.66 10.09.346-2.144 1.525-4.21 2.66-4.49-.254 7.688 5.976 10.077 5.976 10.077s1.33-4.513 4.27-5.696c0 0 4.719 9.699 6.272 9.863 1.551-.164 6.24-9.924 6.24-9.924 2.942 1.183 4.271 5.694 4.271 5.694s6.232-2.387 5.98-10.076c1.13.282 2.313 2.346 2.657 4.491 3.256-1.003 4.103-7.816 2.662-10.088 2.88-6.208 4.873-12.748 8.362-18.734 5.32-4.38 12.745-1.11 17.674 1.716 1.496 1.108 3.49 2.385 4.103 4.27.69-.337 1.261-.78 1.494-2.55-.058-10.302 7.332-10.194 13.72-20.358.583-.919.791-1.758 1.57-3.2 1.33.828 2.938 4.822 2.938 4.822 7.562-5.134 8.53-13.747 6.093-18.18 2.105.997 3.213 3.602 4.931 5.213 2.284-2.404 2.38-3.773 2.659-5.99-.333-11.751-15.417-21.523-24.264-25.468-13.968-6.23-18.505-5.57-20.447-5.07-4.93 1.383-7.201 6.98-11.688 9.31-3.324 2.441-8.53 2.27-11.966.108-.554-.33-1.22-.551-1.718-1.05 10.581.221 18.559-6.153 26.315-12.528 23.242-.054 44.93 20.4 44.93 20.4.5-4.489-.002-14.838-5.98-21.564 1.272-.665 6.108 2.136 9.196 5.599zM99.27 177.594c-2.216-.446-5.399.078-8.38-2.355l1.744-1.815c1.165.92 1.47 1.093 2.652 2.065 1.016-.972.92-1.024 2.112-2.342.408.537.962.706 1.865 1.941.902-1.235 1.464-1.465 1.873-2.004 1.187 1.181 1.097 1.372 2.112 2.345 1.184-.973 1.489-1.148 2.651-2.066l1.747 1.813c-2.984 2.435-6.156 1.972-8.376 2.418zm14.886-13.792c-1.406 2.808-2.56 5.028-3.636 6.985l-.242.44-2.659-4.85c-.825.813-2.582 2.173-3.158 2.61l-.233.181-.165-.246c-.214-.325-.894-1.022-1.493-1.639l-.625-.64c-.443.345-.926.69-1.36.997-.484.347-.904.642-1.124.847l-.191.18-.19-.18c-.215-.205-.634-.498-1.12-.84-.437-.312-.927-.656-1.371-1.004-.19.196-.403.414-.619.639-.6.615-1.282 1.315-1.499 1.64l-.164.246-.236-.18c-.571-.438-2.33-1.795-3.158-2.61l-2.655 4.85-.244-.44a204.85 204.85 0 0 1-3.636-6.986l-.273-.549.593.157c5.48 1.45 8.466 1.45 14.44 1.394h.25c5.977.054 8.97.057 14.45-1.394l.593-.157-.275.549z" fill="#231F20" fill-rule="nonzero"/><path d="M52.081 42.002c-2.27-6.651-9.095-9.382-14.06-14.603-.997-.943-1.358-1.843-1.507-3.356-1.94 3.546-3.802 11.127 3.213 17.848-1.706.658-5.476-2.018-5.254-1.63 4.265 5.655 11.014 13.713 7.524 21.417-2.549-.108-4.81.271-7.313 1.33 1.552-8.422-3.712-15.018-3.879-23.28.057-8.646 1.995-16.517 5.431-23.777C40.78 24.707 52.47 30.974 52.081 42" fill="#D01C2E" fill-rule="nonzero"/><path d="M65.489 54.252c-.215.919 3.956-1.205 6.147.39-4.764 3.49-8.917 8.312-11.687 13.191-3.325-2.22-7.53-4.04-11.192-4.824 8.663-9.489 11.579-22.725 7.034-32.314a39.992 39.992 0 0 0-3.598-6.096c5.315 3.545 18.54 6.922 13.296 29.653" fill="#D01C2E" fill-rule="nonzero"/><path d="M141.757 100.883c-4.432 5.488-10.413 8.37-16.731 9.869-6.26 1.163-11.412-1.942-15.846-5.988-2.102.441-4.32.665-6.37 1.329-1.328-.333-.276-1.33-.387-2.272 3.546-3.934 7.423-8.537 13.019-7.98 4.764-.058 8.588-2.274 12.745-3.716 5.647-2.88 10.857-8.09 14.125-13.579 1.219.752.957.489 1.551 1.055.063 2.02-1.107 3.969-2.215 6.296 22.472 0 31.635 8.223 36.397 10.996-1.384-4.711-3.248-8.625-7.59-12.748 2.7-2.17 5.154-2.828 6.814-2.273-4.764-5.876-10.638-10.642-17.448-12.472-8.977-2.273-16.327 1.95-23.196 5.993-1.702-3.206-14.154-26.176-34.368-22.621-.553-.333-.72-1.108-.277-1.498 1.717-1.66 3.655-2.716 5.485-4.1.831-2.053-2.493-2.884-1.33-4.545 3.325.774 5.873 3.492 8.644 5.597 2.491.386 2.658-3.269 4.653-3.715 1.66 1.777 2.881 3.44 4.876 4.49-.284-4.33-.354-4.397.275-7.586-2.881-.832-5.186-3.17-6.901-5.388-12.803 7.47-18.455-2.934-18.455-2.934s-5.615 10.444-18.414 2.973c-1.72 2.217-4.024 4.555-6.903 5.39.598 3.353.598 3.424.276 7.587 1.994-1.053 3.211-2.718 4.875-4.492 1.994.445 2.16 4.1 4.654 3.714 2.77-2.107 5.32-4.823 8.644-5.598 1.162 1.664-2.162 2.492-1.33 4.547 1.826 1.384 3.766 2.437 5.482 4.101.446.386.279 1.162-.275 1.495-20.214-3.555-32.665 19.416-34.367 22.624-6.873-4.047-14.22-8.268-23.196-5.996-6.814 1.83-12.687 6.598-17.452 12.474 1.662-.555 4.118.104 6.815 2.27-4.341 4.124-6.204 8.039-7.59 12.752 4.766-2.776 14.037-11.037 36.4-11.037-1.108-2.327-2.278-4.236-2.216-6.258.592-.565.33-.302 1.55-1.053 3.269 5.486 8.476 10.697 14.128 13.58 4.156 1.442 7.977 3.66 12.742 3.713 5.597-.554 9.475 4.048 13.019 7.982-.11.94.943 1.94-.387 2.274-2.049-.666-4.265-.889-6.372-1.333-4.432 4.047-9.584 7.15-15.845 5.988-6.315-1.496-12.299-4.379-16.73-9.867-.83.832-1.55 1.718-2.271 2.55-2.993 3.879-6.372 7.816-7.036 12.472 3.432-.613 10.606-.564 14.237 3.603-1.329.443-6.749 4.437-7.976 9.865 2.437-1.161 5.004-2.57 12.908-5.209.332.167.83.61.662.941-1.438 3.383-4.615 6.834-2.436 10.92 2.332 4.367 11.912 5.819 13.074 6.927 1.993 4.615 3.325 8.642 5.153 13.13.332 1.055 1.774 2.06 2.661 2.559 4.462 1.11 8.986 1.576 13.459 1.563 4.473.013 9.15-.495 13.613-1.603.886-.5 2.325-1.503 2.659-2.558 1.828-4.487 3.162-8.516 5.152-13.127 1.164-1.109 10.745-2.563 13.073-6.929 2.184-4.087-.995-7.54-2.436-10.923-.166-.33.333-.774.667-.942 7.903 2.641 10.47 4.05 12.907 5.214-1.23-5.429-6.648-9.423-7.976-9.869 3.627-4.165 10.8-4.213 14.236-3.601-.666-4.658-4.044-8.592-7.034-12.473-.72-.832-1.442-1.717-2.274-2.55zm-31.154-24.2c-1.399 2.75-1.22 5.709-1.22 5.709 6.207-6.32 25.817-2.66 25.817-2.66-5.097 2.211-18.897.192-27.424 15.963-4.653-3.05-4.395-15.705 2.827-19.012zM90.53 95.6c-8.526-15.77-22.327-13.75-27.424-15.96 0 0 19.61-3.66 25.817 2.66 0 0 .181-2.96-1.22-5.71 7.222 3.308 7.48 15.965 2.827 19.011zm19.89 58.969c-1.996 2.217-5.152 1.75-7.812 1.03-1.035-1.083-2.16-1.46-3.337-1.475h-.01c-1.172.016-2.28.391-3.316 1.474-2.658.72-5.816 1.187-7.808-1.031-2.053-3.66-5.43-7.153-3.714-12.084.887-1.665 2.66-2.994 4.268-3.714 2.604-.5 4.85.902 7.31-.554a6.981 6.981 0 0 1 3.263-.957c1.019.028 2.24.34 3.287.96 2.46 1.453 4.709.053 7.314.553 1.605.722 3.379 2.05 4.266 3.713 1.717 4.935-1.663 8.428-3.711 12.085zm5.13-21.12a.816.816 0 0 1-.734.406c-.05 0-.11-.002-.165-.01l-.104-.04a59.16 59.16 0 0 1-2.201-1.597c-2.253-1.69-4.583-3.44-7.36-3.844a6.66 6.66 0 0 0-1.308-.135c-1.587 0-3.051.626-4.238 1.805l-.176.174-.175-.174c-1.503-1.496-3.45-2.082-5.535-1.673-2.79.407-5.12 2.157-7.37 3.847a59.79 59.79 0 0 1-2.204 1.597l-.104.04c-.41.058-.727-.096-.896-.395-.177-.31-.157-.732.05-1.078 2.316-3.535 5.81-8.868 11.12-8.868.734 0 1.49.103 2.256.302.889.146 1.763.729 2.858 1.47 1.095-.741 1.968-1.324 2.881-1.474a8.801 8.801 0 0 1 2.232-.298c5.311 0 8.804 5.333 11.117 8.861.21.353.232.774.057 1.085zm1.824-11.105a.911.911 0 0 1-.814.453c-.06 0-.121-.007-.185-.013l-.062-.011-.052-.033c-.83-.563-1.654-1.182-2.453-1.778-2.502-1.88-5.092-3.822-8.18-4.276a7.622 7.622 0 0 0-1.456-.147c-1.764 0-3.393.694-4.713 2.007l-.195.19-.195-.19c-1.673-1.662-3.832-2.317-6.154-1.861-3.103.455-5.694 2.398-8.199 4.277-.796.596-1.618 1.215-2.447 1.778l-.054.033-.063.011c-.454.064-.809-.106-.999-.44-.194-.347-.17-.813.058-1.196 2.578-3.933 6.46-9.863 12.366-9.863.815 0 1.659.111 2.508.337.992.164 1.962.811 3.179 1.633 1.216-.822 2.189-1.47 3.204-1.641a9.777 9.777 0 0 1 2.48-.33c5.907 0 9.792 5.931 12.363 9.853.234.394.258.863.063 1.207zm28.277-79.167c2.272-6.651 9.094-9.384 14.06-14.605.998-.94 1.357-1.84 1.51-3.354 1.94 3.55 3.799 11.125-3.216 17.848 1.706.657 5.478-2.016 5.257-1.629-4.267 5.654-11.018 13.713-7.527 21.417 2.548-.11 4.81.273 7.313 1.33-1.55-8.426 3.71-15.022 3.879-23.277-.057-8.649-1.996-16.52-5.43-23.78-4.543 8.756-16.233 15.02-15.846 26.05" fill="#D01C2E" fill-rule="nonzero"/><path d="M131.912 54.085c.214.922-3.952-1.205-6.147.387 4.764 3.493 8.917 8.316 11.69 13.194 3.324-2.218 7.528-4.04 11.19-4.821-8.664-9.49-11.58-22.728-7.036-32.318a40.064 40.064 0 0 1 3.602-6.096c-5.319 3.549-18.538 6.922-13.299 29.654M99.27 184.97c-2.088-4.13-8.797-4.23-10.072-3.01-.055-1.276-1.035-2.58-1.922-3.687-2.383-2.716-4.56-3.076-5.943-6.57-2.936-7.98-6.594-15.684-9.418-23.665 1.217 0 2.55.275 3.045 1.608 1.442 3.712 8.991 21.407 11.595 25.178 0 0 2.199 4.742 12.709 4.742s12.718-4.742 12.718-4.742c2.604-3.77 10.155-21.466 11.59-25.178.501-1.333 1.83-1.608 3.05-1.608-2.823 7.98-6.481 15.685-9.417 23.666-1.387 3.493-3.564 3.853-5.946 6.569-.888 1.107-1.867 2.411-1.922 3.688-1.274-1.22-7.975-1.12-10.066 3.01" fill="#D01C2E" fill-rule="nonzero"/><path fill="#FFF" d="M162.783 158.742v.68h1.198v3.284h.818v-3.285h1.157v-.679h-3.173m5.937 3.964l.705-3.206v3.206h.817v-3.964h-1.19l-.74 3.047-.737-3.047h-1.194v3.964h.815V159.5l.708 3.206h.816"/></g></svg>