<svg width="200" height="200" xmlns="http://www.w3.org/2000/svg"><g fill="none"><path d="M181.9 84.152c0 20.219-4.8 39.527-13.342 56.41l-3.422-3.426c7.8-15.927 12.167-34.038 12.167-52.984V13.485H37.93l-4.595-4.601H181.9v75.268zm-10.783 63.117v11.194l-39.38-39.432a42.453 42.453 0 0 0 5.066-6.119l.144.139 34.17 34.218zm0 11.197h-11.181L129.64 128.13v-2.985l31.17 31.21h8.199l2.108 2.109v.003zm-67.456 38.16l-1.716.519-.194-.047-.118.025-1.652-.498c-26.73-8.046-48.78-27-62.582-51.72a55.465 55.465 0 0 0 1.076.44c.375.153.754.297 1.136.442l.064.026c.358.135.722.269 1.082.398.023.006.046.016.068.024a58.601 58.601 0 0 0 1.194.414c.354.12.709.234 1.065.35l.138.04c.309.1.619.195.93.29 13.311 21.409 33.287 37.704 57.153 44.887l.484.148.02-.006.033.012.496-.151c20.488-6.169 38.104-19.047 51.104-36.11l3.272 3.278c-13.538 17.574-31.82 30.848-53.053 37.238zm5.69-32.204l4.652 14.34-12.18-8.863h-.001l-12.176 8.86 4.654-14.334-.004-.003-12.17-8.853 15.044-.003h.001l4.652-14.333 4.654 14.333h15.045l-12.173 8.856h.001zm-86.336-31.418l2.081-2.086a62.487 62.487 0 0 0 33.332 13.207c1.837.162 3.698.243 5.53.243 13.686 0 26.898-4.474 37.786-12.708 6.036 5.73 14.186 9.25 23.14 9.25 3.997 0 7.835-.702 11.396-1.987l2.272 2.275a36.447 36.447 0 0 1-13.668 2.644c-8.87 0-17.004-3.16-23.34-8.42-12.225 8.55-27.39 13.023-43.37 11.623a65.415 65.415 0 0 1-35.159-14.04zm-1.268-48.852V20.497l4.597 4.604v59.051a121.52 121.52 0 0 0 5.413 35.952l-3.653 3.656c-4.126-12.46-6.357-25.823-6.357-39.608zm135.265 40.91l-17.23-17.258a42.433 42.433 0 0 0 4.343-17.99c.198-11.297-4.023-22.008-11.881-30.157a42.228 42.228 0 0 0-33.415-12.845 42.054 42.054 0 0 0-15.709 4.251L65.89 33.81a65.436 65.436 0 0 1 37.084-10.693c36.319.633 65.349 30.74 64.715 67.11a65.656 65.656 0 0 1-10.677 34.835zM70.936 66.355l-1.49 1.49-18.36-18.387v-2.983l19.85 19.88zm-4.702-42.978l2.167 2.169a70.66 70.66 0 0 0-11.413 7.433l3.844 3.85 19.795 19.823-5.59 5.597-23.95-23.985v-.003a70.34 70.34 0 0 0-11.99 15.987l-2.153-2.157a73.35 73.35 0 0 1 14.505-18.23 73.72 73.72 0 0 1 14.785-10.484zm65.478 110.97a27.888 27.888 0 0 1-6.828.846c-9.238 0-17.442-4.512-22.536-11.447-10.576 9.614-24.205 14.907-38.39 14.907-1.67 0-3.363-.073-5.031-.22a56.804 56.804 0 0 1-29.766-11.587l6.722-6.728 23.678-23.717h13.477c5.695 0 10.83-2.918 13.424-7.373a13.19 13.19 0 0 0 1.227-2.817l.02-.065v-.006H63.6l-14.33 14.351h-8.283l38.918-38.973 4.881-4.886a36.37 36.37 0 0 1 17.038-4.209c20.214 0 36.599 16.408 36.599 36.65 0 14.07-7.918 26.285-19.536 32.427l12.826 12.847zM18.807 18.388l-1.88-1.88v-4.53l1.158-1.16h-.002a3.966 3.966 0 0 1 0-5.6 3.954 3.954 0 0 1 5.591 0l.001.003 1.16-1.16h4.505l1.889 1.89-2.483 2.483 17.9 17.926a82.543 82.543 0 0 1 13.134-9.447l3.218 3.222A78.061 78.061 0 0 0 48.492 30.61a77.797 77.797 0 0 0-14.769 18.257l-3.2-3.207a82.37 82.37 0 0 1 8.668-11.84L21.293 15.898l-2.486 2.49zM184.825 5.95H35.367l-4.814-4.823h-6.932l-.407.408a6.814 6.814 0 0 0-2.336-.408 6.823 6.823 0 0 0-4.864 2.02c-1.942 1.941-2.478 4.771-1.604 7.207l-.41.409v6.96l4.809 4.812.01-.014v61.631c0 14.616 2.453 28.772 6.98 41.917l-7.172 7.181 2.492 1.987a68.24 68.24 0 0 0 5.19 3.765 65.46 65.46 0 0 0 2.14 1.351c.694.418 1.393.824 2.1 1.22.029.014.054.029.081.043.7.39 1.405.767 2.12 1.132l.092.044c.045.027.095.05.14.074 13.999 27.06 37.448 47.925 66.156 56.566l2.4.725.18-.045.294.078 2.494-.755c21.735-6.546 40.458-20.096 54.345-38.037l12.266.002 2.925-.002v-15.343l-3.311-3.319c9.019-17.486 14.097-37.558 14.094-58.584V5.95z" fill="#1A191A"/><path d="M37.93 13.485h139.374v70.667c0 18.946-4.37 37.057-12.168 52.984l3.422 3.425c8.543-16.882 13.342-36.19 13.342-56.409V8.884H33.336l4.594 4.6m-6.173 106.62c-3.52-11.365-5.411-23.48-5.411-35.952v-59.05l-4.6-4.605v63.655c0 13.785 2.232 27.148 6.36 39.606l3.65-3.654m70.582 72.115l-.494.15-.037-.011-.018.006-.486-.148c-23.864-7.183-43.84-23.478-57.151-44.888a74.24 74.24 0 0 1-.93-.287 78.456 78.456 0 0 1-2.396-.806c-.023-.008-.046-.018-.069-.024-.36-.13-.724-.263-1.082-.398l-.064-.026a52.003 52.003 0 0 1-1.153-.448 64.095 64.095 0 0 1-1.06-.433c13.801 24.72 35.853 43.673 62.583 51.72l1.652.497.118-.025.194.047 1.718-.52c21.232-6.39 39.513-19.664 53.053-37.238l-3.274-3.278c-13 17.063-30.616 29.941-51.104 36.11" fill="#D4B67B"/><path d="M58.173 147.045c15.98 1.4 31.147-3.074 43.369-11.622a36.426 36.426 0 0 0 23.342 8.419c4.835 0 9.445-.94 13.67-2.644l-2.274-2.275a33.498 33.498 0 0 1-11.396 1.988c-8.956 0-17.103-3.521-23.142-9.25-10.887 8.231-24.098 12.707-37.784 12.707-1.833 0-3.692-.081-5.53-.243a62.463 62.463 0 0 1-33.33-13.21l-2.083 2.09a65.415 65.415 0 0 0 35.158 14.04" fill="#D4B67B"/><path fill="#D4B67B" d="M121.52 155.566h-15.042l-4.654-14.333-4.652 14.333h-.001l-15.046.003 12.173 8.853.003.003-4.654 14.333 12.176-8.86h.001l12.181 8.863-4.653-14.339h-.002l12.17-8.856M51.086 49.459l18.36 18.389 1.49-1.492-19.85-19.88v2.983M160.81 156.354l-31.17-31.21v2.985l30.296 30.337h11.18v-.003l-2.107-2.11h-8.199"/><path d="M136.945 113.05l-.141-.138a42.453 42.453 0 0 1-5.068 6.119l39.38 39.432v-11.194l-34.17-34.218M30.523 45.66l3.202 3.206a77.798 77.798 0 0 1 14.766-18.258 78.093 78.093 0 0 1 14.507-10.473l-3.218-3.222a82.448 82.448 0 0 0-13.133 9.447L28.746 8.434l2.481-2.484-1.887-1.89h-4.506l-1.159 1.161v-.003a3.954 3.954 0 0 0-5.592 0 3.966 3.966 0 0 0 0 5.6h.002l-1.159 1.162v4.527l1.88 1.88 2.487-2.49 17.898 17.922a82.157 82.157 0 0 0-8.668 11.84m20.926-11.798a73.392 73.392 0 0 0-14.505 18.231l2.155 2.156a70.28 70.28 0 0 1 11.986-15.986v.003l23.95 23.985 5.592-5.596L60.832 36.83l-3.843-3.85A70.702 70.702 0 0 1 68.4 25.547l-2.165-2.169a73.775 73.775 0 0 0-14.786 10.483" fill="#D4B67B"/><path d="M90.417 45.23a44.672 44.672 0 0 1 5.355-1.05l-1.039-10.705a55.66 55.66 0 0 0-7.402 1.453l3.086 10.301m65.618 57.818a56.203 56.203 0 0 0 1.368-7.368l-10.705-.9a45.255 45.255 0 0 1-.992 5.312l10.329 2.956m-11.273.303a44.76 44.76 0 0 1-1.465 3.83l8.037 8.049a55.665 55.665 0 0 0 3.756-8.922l-10.328-2.956m2.19-17.363c.087 1.285.12 2.576.097 3.88a33.295 33.295 0 0 1-.056 1.531l10.706.9c.041-.746.074-1.495.084-2.246a55.68 55.68 0 0 0-.149-5.256l-10.682 1.191m-1.436-8.688a45.042 45.042 0 0 1 1.085 5.313l10.677-1.19a56.378 56.378 0 0 0-1.507-7.362l-10.255 3.238M107.97 44.2c1.807.249 3.595.604 5.35 1.067l3.094-10.298a56.073 56.073 0 0 0-7.395-1.477L107.97 44.2m46.795 26.621a55.127 55.127 0 0 0-2.926-6.932l-9.431 5.162a43.577 43.577 0 0 1 2.104 5.007l10.253-3.237M124.584 49.94a44.585 44.585 0 0 1 4.531 3.02l6.762-8.35a55.822 55.822 0 0 0-6.264-4.18l-5.029 9.51m7.151 5.175a46.534 46.534 0 0 1 3.85 3.84l8.25-6.886a51.331 51.331 0 0 0-1.766-1.915 55.906 55.906 0 0 0-3.567-3.395l-6.767 8.356m-5.117-16.278a55.46 55.46 0 0 0-6.96-2.883l-3.097 10.301a45.3 45.3 0 0 1 5.036 2.084l5.02-9.502m-20.969-5.677a57.42 57.42 0 0 0-3.842-.136c-1.232 0-2.473.044-3.7.124l1.04 10.706a45.978 45.978 0 0 1 2.66-.078c.27 0 .541.004.807.006a43.61 43.61 0 0 1 1.989.08l1.046-10.702m44.572 27.75a55.918 55.918 0 0 0-4.222-6.229l-8.253 6.886a44.994 44.994 0 0 1 3.044 4.503l9.432-5.16M84.084 35.9a55.9 55.9 0 0 0-8.381 3.59l8.039 8.05a46.693 46.693 0 0 1 3.433-1.332L84.085 35.9" fill="#1A191A"/><path d="M151.336 115.229l-8.04-8.048a45.32 45.32 0 0 0 1.466-3.83l10.328 2.956a55.576 55.576 0 0 1-3.754 8.922zm-4.638-20.45l10.705.9a56.415 56.415 0 0 1-1.368 7.368l-10.33-2.956c.436-1.742.766-3.515.993-5.311zm-4.291-25.729l9.432-5.16a55.024 55.024 0 0 1 2.924 6.93l-10.25 3.237a44.33 44.33 0 0 0-2.106-5.007zm-4.664-7.484L146 54.68a56.161 56.161 0 0 1 4.222 6.228l-9.431 5.161a44.815 44.815 0 0 0-3.048-4.504zm-21.18-15.31l3.096-10.302a55.586 55.586 0 0 1 6.96 2.883l-5.02 9.502a45.224 45.224 0 0 0-5.036-2.084zm-13.948-2.474c-.27-.002-.539-.006-.806-.006-.888 0-1.78.027-2.663.078l-1.04-10.706a58.145 58.145 0 0 1 3.7-.124 57.407 57.407 0 0 1 3.843.136l-1.05 10.702a45.729 45.729 0 0 0-1.984-.08zM83.743 47.54l-8.04-8.05a55.737 55.737 0 0 1 8.381-3.59l3.09 10.307a44.51 44.51 0 0 0-3.43 1.333zm12.028-3.36c-1.81.24-3.6.592-5.354 1.048l-3.088-10.3a55.678 55.678 0 0 1 7.404-1.454l1.038 10.705zm20.642-9.212l-3.094 10.3a44.763 44.763 0 0 0-5.347-1.068l1.048-10.708c2.502.325 4.973.821 7.393 1.476zm19.464 9.641l-6.762 8.35a45.21 45.21 0 0 0-4.531-3.022l5.029-9.506a56.017 56.017 0 0 1 6.264 4.178zm6.194 5.544a51.804 51.804 0 0 1 1.764 1.915l-8.25 6.886a45.308 45.308 0 0 0-3.851-3.84l6.768-8.356a55.933 55.933 0 0 1 3.569 3.395zm4.528 32.46a45.761 45.761 0 0 0-1.081-5.315l10.252-3.239a55.253 55.253 0 0 1 1.507 7.363l-10.678 1.19zm11.184 7.44c-.012.75-.041 1.5-.084 2.245l-10.706-.9c.03-.51.05-1.022.056-1.532a45.221 45.221 0 0 0-.097-3.879l10.682-1.19a55.68 55.68 0 0 1 .149 5.255zm9.907.173c.633-36.37-28.397-66.478-64.716-67.111A65.44 65.44 0 0 0 65.89 33.809l17.23 17.254a42.063 42.063 0 0 1 15.709-4.251 41.751 41.751 0 0 1 3.733-.097 42.22 42.22 0 0 1 29.68 12.942c7.86 8.148 12.08 18.86 11.883 30.157a42.351 42.351 0 0 1-4.346 17.99l17.235 17.257a65.697 65.697 0 0 0 10.676-34.834z" fill="#D4B67B"/><path d="M118.886 121.5c11.618-6.141 19.537-18.355 19.537-32.425 0-20.243-16.385-36.65-36.599-36.65a36.369 36.369 0 0 0-17.04 4.208l-4.88 4.886-38.918 38.973h8.282L63.6 86.141h24.111-.002l.002.006-.022.065a13.14 13.14 0 0 1-1.228 2.817c-2.591 4.455-7.729 7.373-13.423 7.373H59.561L35.882 120.12l-6.72 6.728a56.804 56.804 0 0 0 29.764 11.586c1.668.148 3.362.221 5.032.221 14.183 0 27.815-5.293 38.39-14.907 5.092 6.935 13.3 11.447 22.536 11.447a27.92 27.92 0 0 0 6.83-.846l-12.828-12.847m47.951 45.131c.6 0 1.129.048 1.129.679 0 .68-.925.566-1.602.566h-.77v-1.245h1.243zm.52 1.968c.665-.023 1.332-.385 1.332-1.367 0-1.054-.814-1.324-1.716-1.324h-2.1v4.997h.72V168.6h.928l1.276 2.306h.824l-1.264-2.306zm-.769 4.218a4.413 4.413 0 0 0 4.449-4.443 4.415 4.415 0 0 0-4.449-4.446 4.416 4.416 0 0 0-4.45 4.446 4.415 4.415 0 0 0 4.45 4.443zm0-8.164a3.709 3.709 0 0 1 3.727 3.721 3.715 3.715 0 0 1-3.727 3.718 3.715 3.715 0 0 1-3.725-3.718 3.709 3.709 0 0 1 3.725-3.721z" fill="#D4B67B"/></g></svg>