<?xml version="1.0" encoding="UTF-8"?>
<svg width="200px" height="200px" viewBox="0 0 200 200" version="1.1" xmlns="http://www.w3.org/2000/svg" xmlns:xlink="http://www.w3.org/1999/xlink">
    <!-- Generator: Sketch 51.3 (57544) - http://www.bohemiancoding.com/sketch -->
    <title>army</title>
    <desc>Created with Sketch.</desc>
    <defs></defs>
    <g id="army" stroke="none" stroke-width="1" fill="none" fill-rule="evenodd">
        <g id="army_BGL" transform="translate(14.000000, 0.000000)">
            <g id="army">
                <g id="g10" transform="translate(85.893182, 100.592844) scale(-1, 1) rotate(-180.000000) translate(-85.893182, -100.592844) translate(0.000000, 0.995974)" fill-rule="nonzero">
                    <g id="g12">
                        <path d="M167.900075,116.037749 C167.900075,95.8189803 163.099098,76.5109197 154.558001,59.6284956 L151.135835,63.0532698 C158.935539,78.9807712 163.302529,97.0921603 163.302529,116.037749 L163.302529,186.704897 L23.9296899,186.704897 L19.3348567,191.305971 L167.900075,191.305971 L167.900075,116.037749 Z M157.116713,52.9203445 L157.116713,41.7268635 L117.737552,81.1587736 C117.974286,81.396448 118.209663,81.6374422 118.445192,81.883869 C120.052147,83.5727905 121.51188,85.3765502 122.803894,87.2774923 L122.947049,87.1389621 L157.116713,52.9203445 Z M157.116713,41.7232418 L145.935983,41.7232418 L115.640252,72.0602977 L115.640252,75.0460912 L146.810134,43.8359027 L155.008563,43.8359027 L157.116713,41.7268635 L157.116713,41.7232418 Z M89.6610299,3.56452673 L87.9451253,3.0452045 L87.7508861,3.09177358 L87.6331974,3.06642165 L85.9808838,3.56452673 C59.2510761,11.6107919 37.20094,30.564016 23.3986591,55.2841103 C23.7494649,55.1366767 24.1026818,54.9922612 24.4599673,54.850713 C24.4641866,54.8478458 24.468858,54.8448277 24.4747349,54.8437714 C24.8496511,54.6916598 25.2293894,54.5472443 25.611388,54.4028289 C25.630827,54.3939255 25.6549374,54.385173 25.6749791,54.3762697 C26.0328674,54.2418139 26.3966325,54.1081127 26.7573839,53.9783349 C26.7804394,53.9724496 26.8033443,53.96249 26.8251943,53.9547938 C27.2019188,53.8192817 27.5833146,53.6866368 27.9653133,53.5580663 C27.982944,53.5509738 28.002383,53.5450885 28.0189588,53.5410141 C28.3732305,53.421347 28.7276529,53.3063578 29.0843357,53.1913687 C29.1296933,53.1779382 29.1749002,53.1649605 29.2220661,53.1501718 C29.5305282,53.0499714 29.8406478,52.9556561 30.1515208,52.8613409 C43.4634572,31.4517863 63.4391976,15.1569838 87.3052964,7.97375565 L87.7891613,7.82580902 L87.8086003,7.83169429 L87.8422041,7.81990866 L88.3384256,7.97081301 C108.825758,14.1396168 126.441696,27.0177638 139.441554,44.0805186 L142.714386,40.803178 C129.175812,23.2287065 110.894729,9.95497885 89.6610299,3.56452673 Z M95.3501724,35.7673489 L100.003323,21.4284176 L87.8233679,30.2910301 L87.8215596,30.2910301 L75.6456736,21.4314357 L80.3000293,35.7643308 L80.2964127,35.7673489 L68.1253488,44.621058 L83.1702178,44.6240761 L83.1714233,44.6240761 L87.8233679,58.9565185 L92.476518,44.6240761 L92.4775729,44.6240761 L107.521839,44.6240761 L95.3489669,35.7673489 L95.3501724,35.7673489 Z M9.01548404,67.1854836 L11.0962991,69.2721889 C20.3789863,61.9567988 31.8091085,57.1704146 44.4275705,56.0650403 C46.2647804,55.902969 48.1259501,55.8216315 49.9577352,55.8216315 C63.6435329,55.8216315 76.8558633,60.2957946 87.7438037,68.5294377 C93.7802861,62.7997505 101.929892,59.2788502 110.88418,59.2788502 C114.880926,59.2788502 118.718844,59.9820645 122.280096,61.2671659 L124.552197,58.9918301 C120.330472,57.2882709 115.716802,56.3479859 110.88418,56.3479859 C102.013524,56.3479859 93.8803441,59.5076212 87.5436876,64.7667887 C75.3189781,56.2183591 60.1535573,51.7443469 44.1733568,53.1442866 C30.8413787,54.3143989 18.7773045,59.4074207 9.01548404,67.1854836 Z M7.74699243,116.037749 L7.74699243,179.692372 L12.3442065,175.088281 L12.3442065,116.037749 C12.3442065,103.563995 14.2366594,91.4510539 17.7566825,80.0859946 L14.1042181,76.4295822 C9.9784973,88.8897544 7.74699243,102.252485 7.74699243,116.037749 Z M143.011697,75.1284849 L125.781223,92.3853027 C128.510667,97.9322448 130.011688,104.059112 130.125308,110.375968 C130.322561,121.672517 126.102041,132.383859 118.24387,140.532694 C117.372582,141.43812 116.449607,142.310498 115.510809,143.129757 C108.043979,149.628755 98.4745746,153.30222 88.5620493,153.47576 C87.3277492,153.498395 86.0738594,153.466705 84.829011,153.377672 C79.3104494,152.991357 73.9874831,151.532112 69.1200521,149.126545 L51.8903318,166.3811 C62.545155,173.351372 75.3177726,177.312611 88.9740352,177.074182 C125.292686,176.440384 154.322924,146.333608 153.68852,109.963849 C153.463993,97.1128342 149.563086,85.1690567 143.011697,75.1284849 Z M56.9360288,133.833899 L55.4461589,132.343115 L37.0861144,150.730508 L37.0861144,153.714188 L56.9360288,133.833899 Z M52.2340552,176.811608 L54.4008238,174.643113 C50.3933794,172.553087 46.5702286,170.069202 42.9883322,167.209564 L46.8315247,163.359995 L66.6271908,143.537199 L61.0370516,137.940157 L37.0861144,161.924894 L37.0861144,161.927912 C32.3106042,157.154808 28.2873374,151.77054 25.096933,145.940955 L22.9443293,148.097227 C26.7362873,154.838426 31.6118556,161.002869 37.4494275,166.328283 C41.9776558,170.460044 46.9457476,173.96857 52.2340552,176.811608 Z M117.712236,65.8415294 C115.525577,65.2902759 113.240366,64.9955597 110.88418,64.9955597 C101.64554,64.9955597 93.4418369,69.5079015 88.3483711,76.4430127 C77.7723587,66.8287457 64.1426175,61.5353229 49.9577352,61.5353229 C48.2883937,61.5353229 46.5949418,61.6091152 44.9268057,61.7563978 C33.6967996,62.7396905 23.5011281,66.9290971 15.1607494,73.3425319 L21.8830211,80.071206 L45.5607577,103.787484 L59.0380008,103.787484 C64.7330201,103.787484 69.8682269,106.705824 72.461749,111.16052 C72.9739436,112.041801 73.3889433,112.984954 73.6885146,113.977602 L73.7096111,114.042491 L73.7085563,114.04898 L73.7096111,114.04898 L69.5751353,114.04898 L69.573327,114.04898 L54.3607403,114.04898 L49.5992442,114.04898 L35.2684941,99.6976748 L26.9864324,99.6976748 L65.9038798,138.670534 L70.785325,143.556666 C70.9984004,143.669844 71.2144895,143.781212 71.4269621,143.887297 C76.358587,146.369523 81.9298901,147.765388 87.8233679,147.765388 C108.036897,147.765388 124.421549,131.357558 124.421549,111.115098 C124.421549,97.0450781 116.504458,84.8311819 104.885973,78.6889221 L117.712236,65.8415294 Z M4.80676331,181.802015 L2.92609441,183.682283 L2.92609441,188.210923 L4.08510989,189.371377 L4.08334682,189.371377 C2.54053951,190.918147 2.54053951,193.424668 4.08334682,194.971438 C5.6279172,196.515189 8.12959381,196.515189 9.67416419,194.971438 L9.67533958,194.96842 L10.8343551,196.128874 L15.3397689,196.128874 L17.2286655,194.239552 L14.7464128,191.755666 L32.6466424,173.829738 C36.7405827,177.431825 41.1407247,180.587235 45.77971,183.276351 L48.9982933,180.054543 C43.8248113,177.158688 38.9563254,173.656198 34.4915375,169.580272 C28.611019,164.215622 23.6536262,158.055707 19.723335,151.323864 L16.5228345,154.530581 C19.0404089,158.706104 21.938927,162.670362 25.1905114,166.370536 L7.2931449,184.291937 L4.80676331,181.802015 Z M170.824964,194.239552 L21.3673607,194.239552 L16.5529724,199.062455 L9.62119673,199.062455 L9.21443977,198.655013 C8.47630089,198.923623 7.68989606,199.062455 6.87757259,199.062455 C5.03986535,199.062455 3.31341239,198.345659 2.01430061,197.043354 C0.0718131801,195.101215 -0.464430464,192.271759 0.409687876,189.836163 L0,189.427212 L0,182.467503 L4.80854145,177.655164 L4.81854725,177.668745 L4.81854725,116.037749 C4.81854725,101.421304 7.27195792,87.2657218 11.7991314,74.1205948 L4.62723149,66.9396604 L7.11891737,64.9531555 C8.78061893,63.6268572 10.5023704,62.3723894 12.2882855,61.202277 C12.2941624,61.1963918 12.3024052,61.1905065 12.3094725,61.1876393 C12.9952316,60.7365862 13.6915842,60.2957946 14.393226,59.8713007 C14.4132377,59.861341 14.4314862,59.8494195 14.449147,59.8365927 C15.142516,59.4191912 15.8418673,59.012504 16.5487531,58.6174364 C16.5776856,58.6027987 16.6030015,58.5880101 16.6299749,58.5732215 C17.3293263,58.18419 18.0345545,57.8069292 18.750331,57.4414388 C18.7803183,57.4268011 18.8121138,57.4120125 18.8421011,57.3972239 C18.886856,57.3708156 18.936885,57.3471236 18.9822426,57.3235825 C32.981023,30.2640182 56.4298618,9.39851906 85.1379251,0.75746891 L87.5378107,0.0330103265 L87.7184878,0.0772206228 L88.0117301,0 L90.5056462,0.754521748 C112.240991,7.30058643 130.964198,20.8507558 144.851167,38.7913212 L157.116713,38.7901139 L160.041602,38.7913212 L160.041602,54.1345209 L156.730947,57.4533603 C165.749732,74.9398545 170.827978,95.0113402 170.824964,116.037749 L170.824964,194.239552 Z" id="path14" fill="#1A191A"></path>
                        <path d="M23.9302927,186.704897 L163.304036,186.704897 L163.304036,116.037749 C163.304036,97.0921603 158.934032,78.9807712 151.135835,63.0532698 L154.558001,59.6284956 C163.100605,76.5109197 167.900075,95.8189803 167.900075,116.037749 L167.900075,191.305971 L19.3359116,191.305971 L23.9302927,186.704897" id="path16" fill="#D4B67B"></path>
                        <path d="M17.7566825,80.0859946 C14.2366594,91.4510539 12.3459696,103.565202 12.3459696,116.037749 L12.3459696,175.088281 L7.74640473,179.692372 L7.74640473,116.037749 C7.74640473,102.252485 9.97789454,88.8897544 14.1059812,76.4312422 L17.7566825,80.0859946" id="path18" fill="#D4B67B"></path>
                        <path d="M88.3384256,7.97081301 L87.8438617,7.81990866 L87.806792,7.83169429 L87.7891613,7.82580902 L87.3034881,7.97375565 C63.4391976,15.1569838 43.4634572,31.4517863 30.1515208,52.8613409 C29.8412505,52.9556561 29.5311309,53.0499714 29.2220661,53.148361 C29.1749002,53.1649605 29.1296933,53.1779382 29.0843357,53.1913687 C28.7276529,53.3063578 28.3732305,53.421347 28.0194109,53.5410141 C28.002383,53.5450885 27.982944,53.5509738 27.9653133,53.5580663 C27.5839174,53.6866368 27.2029736,53.8192817 26.8262491,53.9547938 C26.8033443,53.96249 26.7804394,53.9724496 26.7573839,53.9783349 C26.3966325,54.1081127 26.0328674,54.2418139 25.6749791,54.3762697 C25.6531291,54.385173 25.630827,54.3939255 25.611388,54.4028289 C25.2299921,54.5472443 24.8502539,54.6916598 24.4753377,54.8437714 C24.468858,54.8437714 24.4641866,54.8460349 24.4583097,54.850713 C24.1026818,54.9922612 23.7506704,55.1366767 23.3986591,55.2841103 C37.1991317,30.564016 59.2510761,11.6107919 85.9808838,3.56452673 L87.6331974,3.06642165 L87.7508861,3.09177358 L87.9451253,3.0452045 L89.6628382,3.56452673 C110.894729,9.95497885 129.175812,23.2287065 142.716194,40.803178 L139.441554,44.0805186 C126.441696,27.0177638 108.825758,14.1396168 88.3384256,7.97081301" id="path20" fill="#D4B67B"></path>
                        <path d="M44.172754,53.1442866 C60.1529546,51.7443469 75.3201837,56.2183591 87.5418794,64.7667887 C93.8785359,59.5076212 102.015182,56.3479859 110.88418,56.3479859 C115.71861,56.3479859 120.328814,57.2882709 124.554005,58.9918301 L122.280096,61.2671659 C118.720652,59.9820645 114.882734,59.2788502 110.88418,59.2788502 C101.928083,59.2788502 93.7814916,62.7997505 87.7421461,68.5294377 C76.8552606,60.2974546 63.6441357,55.8216315 49.958338,55.8216315 C48.1247445,55.8216315 46.2658352,55.902969 44.428776,56.0650403 C31.8097113,57.1704146 20.3783835,61.9567988 11.0980622,69.2739998 L9.01489635,67.1854836 C18.7767017,59.4074207 30.8407759,54.3143989 44.172754,53.1442866" id="path22" fill="#D4B67B"></path>
                        <polyline id="path24" fill="#D4B67B" points="107.520182 44.6240761 92.4775729 44.6240761 87.8244227 58.9565185 83.1718753 44.6240761 83.1708205 44.6240761 68.124746 44.621058 80.2976182 35.7673489 80.300632 35.7643308 75.6474819 21.4314357 87.8233679 30.2910301 87.8244227 30.2910301 100.00498 21.4284176 95.3519807 35.7673489 95.3501724 35.7673489 107.520182 44.6240761"></polyline>
                        <polyline id="path26" fill="#D4B67B" points="37.0861144 150.731111 55.4461589 132.341907 56.9360288 133.833899 37.0861144 153.714188 37.0861144 150.731111"></polyline>
                        <polyline id="path28" fill="#D4B67B" points="146.810134 43.8359027 115.640252 75.0460912 115.640252 72.0602977 145.935983 41.7232418 157.116713 41.7232418 157.116713 41.7268635 155.008563 43.8359027 146.810134 43.8359027"></polyline>
                        <path d="M122.945241,87.1389621 L122.803894,87.2774923 C121.51188,85.3765502 120.052147,83.5727905 118.445192,81.883869 C118.209663,81.636235 117.974286,81.396448 117.735895,81.1587736 L157.116713,41.7268635 L157.116713,43.8359027 L157.116713,44.6571242 L157.116713,52.9203445 L122.945241,87.1389621" id="path30" fill="#D4B67B"></path>
                        <path d="M16.5228345,154.530581 L19.7249926,151.323864 C23.6536262,158.055707 28.611019,164.215622 34.4909348,169.581781 C38.9563254,173.656198 43.8248113,177.160197 48.9976905,180.054543 L45.77971,183.276351 C41.1407247,180.588744 36.7405827,177.431825 32.6466424,173.829738 L14.7458251,191.755666 L17.22746,194.239552 L15.3397689,196.128874 L10.8343551,196.128874 L9.67533958,194.96842 L9.67416419,194.971438 C8.12959381,196.515189 5.62968027,196.515189 4.08334682,194.971438 C2.54053951,193.424668 2.54053951,190.918147 4.08334682,189.371377 L4.08510989,189.371377 L2.92609441,188.209414 L2.92609441,183.682283 L4.80676331,181.802015 L7.2931449,184.293446 L25.1905114,166.370536 C21.9383243,162.671871 19.0404089,158.707613 16.5228345,154.530581" id="path32" fill="#D4B67B"></path>
                        <path d="M37.4488247,166.328283 C31.6106501,161.002869 26.7380956,154.838426 22.9437266,148.097227 L25.0987413,145.941558 C28.2867346,151.77054 32.3100014,157.154808 37.0850596,161.927912 L37.0850596,161.924894 L61.0358461,137.940157 L66.6267388,143.535992 L46.8321275,163.359995 L42.988935,167.209564 C46.5720369,170.069202 50.3927766,172.553087 54.400221,174.643113 L52.234658,176.811608 C46.9463504,173.967061 41.976601,170.460044 37.4488247,166.328283" id="path34" fill="#D4B67B"></path>
                        <path d="M76.417356,154.960658 C78.1721387,155.417899 79.9621827,155.767997 81.7721179,156.009444 L80.7332624,166.714598 C78.224428,166.39619 75.7516085,165.910278 73.3306263,165.261389 L76.417356,154.960658" id="path36" fill="#1A191A"></path>
                        <path d="M142.034624,97.1422605 C142.652603,99.5538629 143.108741,102.014811 143.403189,104.510769 L132.697734,105.410159 C132.471096,103.614699 132.141387,101.839762 131.705893,100.098477 L142.034624,97.1422605" id="path38" fill="#1A191A"></path>
                        <path d="M130.762274,96.8387919 C130.332507,95.5389018 129.842765,94.2627037 129.296514,93.0089904 L137.334308,84.9609596 C138.84422,87.8198425 140.097959,90.8054851 141.089799,93.8825757 L130.762274,96.8387919" id="path40" fill="#1A191A"></path>
                        <path d="M132.951947,114.201545 C133.039046,112.917198 133.07265,111.625607 133.049142,110.322246 C133.043265,109.811284 133.022621,109.300171 132.993236,108.790265 L143.699143,107.890725 C143.740432,108.636343 143.772831,109.386187 143.782776,110.136634 C143.816983,111.900253 143.765145,113.656931 143.634497,115.392331 L132.951947,114.201545" id="path42" fill="#1A191A"></path>
                        <path d="M131.515723,122.890315 C131.982409,121.14903 132.344517,119.3753 132.600539,117.576822 L143.278267,118.767608 C142.93816,121.261605 142.434856,123.721496 141.771369,126.128873 L131.515723,122.890315" id="path44" fill="#1A191A"></path>
                        <path d="M93.9698539,155.989826 C95.7769259,155.740834 97.5651617,155.386209 99.3203964,154.922932 L102.413756,165.220645 C99.9915687,165.87557 97.5222151,166.372045 95.0194083,166.697999 L93.9698539,155.989826" id="path46" fill="#1A191A"></path>
                        <path d="M140.764912,129.368639 C139.94968,131.740704 138.972457,134.057237 137.83942,136.300883 L128.407746,131.138898 C129.213032,129.513658 129.916452,127.841336 130.512129,126.131891 L140.764912,129.368639" id="path48" fill="#1A191A"></path>
                        <path d="M110.584006,150.250632 C112.149673,149.33751 113.664256,148.331279 115.115248,147.229527 L121.87685,155.579366 C119.881416,157.115573 117.784718,158.512947 115.612675,159.759417 L110.584006,150.250632" id="path50" fill="#1A191A"></path>
                        <path d="M117.734689,145.075065 C118.632348,144.278743 119.512377,143.439262 120.346445,142.569902 C120.771993,142.131827 121.179307,141.685603 121.584361,141.234701 L129.83508,148.120315 C129.263061,148.771015 128.67733,149.410698 128.069297,150.035442 C126.933246,151.216722 125.734208,152.357558 124.502168,153.430488 L117.734689,145.075065" id="path52" fill="#1A191A"></path>
                        <path d="M112.617716,161.352967 C110.366109,162.469659 108.041116,163.433938 105.658861,164.23524 L102.56083,153.934509 C104.281406,153.341455 105.960241,152.645786 107.596581,151.85052 L112.617716,161.352967" id="path54" fill="#1A191A"></path>
                        <path d="M91.6477242,167.029988 C90.7028992,167.094877 89.7552111,167.138639 88.801646,167.156748 C88.4719368,167.161275 88.1393644,167.165802 87.8055865,167.165802 C86.5743002,167.165802 85.3333697,167.12204 84.1055493,167.042061 L85.146213,156.335397 C86.0291045,156.386705 86.9208867,156.413867 87.806792,156.413867 C88.0763761,156.413867 88.3471656,156.40934 88.6132838,156.407831 C89.277223,156.395759 89.9405595,156.370105 90.6016356,156.327852 L91.6477242,167.029988" id="path56" fill="#1A191A"></path>
                        <path d="M136.22056,139.28064 C134.960944,141.438572 133.552295,143.518336 131.998382,145.508312 L123.74465,138.622697 C124.854179,137.175525 125.872541,135.672517 126.789036,134.119711 L136.22056,139.28064" id="path58" fill="#1A191A"></path>
                        <path d="M70.0843161,164.289565 C67.1970996,163.322268 64.3927626,162.122579 61.7027991,160.699551 L69.7416475,152.650313 C70.8677523,153.137734 72.0108851,153.582902 73.1752651,153.981289 L70.0843161,164.289565" id="path60" fill="#1A191A"></path>
                        <path d="M137.336116,84.9609596 L129.296514,93.0089904 C129.841107,94.2627037 130.332507,95.5389018 130.762274,96.8387919 L141.089799,93.8825757 C140.099767,90.8054851 138.845877,87.8216534 137.336116,84.9609596 Z M132.697734,105.410159 L143.403189,104.510769 C143.107686,102.016622 142.652603,99.5532593 142.034624,97.1422605 L131.705893,100.098477 C132.141387,101.840969 132.471096,103.614095 132.697734,105.410159 Z M128.40654,131.139351 L137.83942,136.300279 C138.972457,134.057841 139.947872,131.741308 140.763103,129.369243 L130.513786,126.132495 C129.914644,127.84194 129.211224,129.512451 128.40654,131.139351 Z M123.742842,138.623904 L132.000191,145.508312 C133.552295,143.518336 134.962149,141.438572 136.221765,139.28064 L126.790694,134.119711 C125.872541,135.672517 124.855385,137.176732 123.742842,138.623904 Z M102.562638,153.934509 L105.658861,164.23524 C108.041116,163.433938 110.366109,162.469659 112.619373,161.352967 L107.59839,151.85052 C105.962049,152.647295 104.279748,153.341455 102.562638,153.934509 Z M88.6150921,156.407831 C88.3453573,156.40934 88.0763761,156.413867 87.8086003,156.413867 C86.9214895,156.413867 86.0285018,156.386705 85.1456103,156.335397 L84.1055493,167.042061 C85.3321642,167.120531 86.5736974,167.165802 87.806792,167.165802 C88.1393644,167.165802 88.4707313,167.161275 88.8034543,167.156748 C89.7570193,167.138639 90.7047074,167.094877 91.6493818,167.029988 L90.5998273,156.327852 C89.9423678,156.368596 89.2754147,156.395759 88.6150921,156.407831 Z M69.7434558,152.648804 L61.7027991,160.699551 C64.3927626,162.122579 67.1970996,163.322268 70.0843161,164.288056 L73.1746624,153.981289 C72.0108851,153.584411 70.8677523,153.139243 69.7434558,152.648804 Z M81.771063,156.009444 C79.96158,155.767997 78.1709332,155.41639 76.417356,154.960658 L73.3294208,165.261389 C75.7510058,165.910278 78.2238253,166.39619 80.7332624,166.714598 L81.771063,156.009444 Z M102.412551,165.220645 L99.3193416,154.921423 C97.5633534,155.3847 95.7787342,155.740834 93.9715115,155.988317 L95.0204631,166.69649 C97.5222151,166.372045 99.9932263,165.87557 102.412551,165.220645 Z M121.87685,155.579366 L115.115248,147.229074 C113.664256,148.330072 112.149673,149.336906 110.584006,150.251235 L115.612675,159.757908 C117.784718,158.511438 119.881416,157.114063 121.87685,155.579366 Z M128.070954,150.035442 C128.67733,149.410698 129.264116,148.771015 129.83508,148.120315 L121.584361,141.234701 C121.179307,141.685603 120.771993,142.133034 120.348102,142.570355 C119.512377,143.439262 118.632348,144.278743 117.732881,145.075065 L124.502168,153.430488 C125.734208,152.357558 126.934904,151.216722 128.070954,150.035442 Z M132.59873,117.576369 C132.342708,119.376507 131.980752,121.147974 131.517531,122.890919 L141.769711,126.129477 C142.436514,123.7221 142.939817,121.262812 143.276609,118.766401 L132.59873,117.576369 Z M143.782776,110.136634 C143.771022,109.386187 143.741638,108.636343 143.699143,107.890725 L132.993236,108.790265 C133.022621,109.300171 133.04206,109.812341 133.049142,110.322246 C133.074458,111.625607 133.037238,112.917198 132.951947,114.201545 L143.634497,115.392331 C143.765145,113.656931 143.816983,111.900253 143.782776,110.136634 Z M153.690027,109.962641 C154.322924,146.333608 125.292686,176.440384 88.9740352,177.074182 C75.3177726,177.312611 62.545155,173.351372 51.889729,166.3811 L69.1196,149.127149 C73.9862776,151.532112 79.3104494,152.991357 84.829011,153.377672 C86.0732566,153.465196 87.3271464,153.498395 88.5620493,153.474251 C98.4745746,153.30222 108.045788,149.629359 115.512617,143.129757 C116.451415,142.310498 117.372582,141.438572 118.242062,140.533146 C126.102041,132.384311 130.322561,121.673121 130.125308,110.375968 C130.013496,104.058056 128.512475,97.9322448 125.779414,92.3853027 L143.013505,75.1284849 C149.563086,85.1690567 153.462486,97.1128342 153.690027,109.962641 Z" id="path62" fill="#D4B67B"></path>
                        <path d="M104.885973,78.6889221 C116.504458,84.8311819 124.422754,97.0450781 124.422754,111.115098 C124.422754,131.357558 108.038102,147.765388 87.8244227,147.765388 C81.9310956,147.765388 76.3579843,146.369523 71.4275649,143.887297 C71.213284,143.781212 71.0002087,143.669844 70.7841195,143.556666 L65.9044826,138.670534 L26.9864324,99.6976748 L35.2678914,99.6976748 L49.6004497,114.04898 L54.3625485,114.04898 L69.5727242,114.04898 L69.5739298,114.04898 L73.7108167,114.04898 L73.7091591,114.04898 L73.7108167,114.042491 L73.6891173,113.977602 C73.3899981,112.984954 72.9739436,112.041801 72.4611462,111.16052 C69.8700352,106.705824 64.7324174,103.787484 59.0380008,103.787484 L45.5613605,103.787484 L21.8824184,80.071206 L15.1613522,73.3425319 C23.5029364,66.9290971 33.6961968,62.7396905 44.926203,61.7563978 C46.5937362,61.6091152 48.2877909,61.5353229 49.958338,61.5353229 C64.141412,61.5353229 77.7729614,66.8287457 88.3471656,76.4430127 C93.4400286,69.5079015 101.647348,64.9955597 110.88418,64.9955597 C113.240366,64.9955597 115.527234,65.2902759 117.714045,65.8415294 L104.885973,78.6889221" id="path64" fill="#D4B67B"></path>
                        <path d="M152.837123,33.5567511 C153.436869,33.5567511 153.96579,33.5084617 153.96579,32.8776815 C153.96579,32.198612 153.040554,32.3117902 152.363957,32.3117902 L151.593932,32.3117902 L151.593932,33.5567511 L152.837123,33.5567511 Z M153.357003,31.5885057 C154.021545,31.6114431 154.689101,31.9734627 154.689101,32.9561518 C154.689101,34.0094642 153.875376,34.279432 152.972744,34.279432 L150.873635,34.279432 L150.873635,29.2831399 L151.593932,29.2831399 L151.593932,31.5885057 L152.520675,31.5885057 L153.797017,29.2831399 L154.62129,29.2831399 L153.357003,31.5885057 Z M152.588485,27.37088 C155.07336,27.37088 157.036848,29.3373146 157.036848,31.813655 C157.036848,34.2912026 155.07336,36.259448 152.588485,36.259448 C150.10346,36.259448 148.138615,34.2912026 148.138615,31.813655 C148.138615,29.3373146 150.10346,27.37088 152.588485,27.37088 Z M152.588485,35.5349562 C154.62129,35.5349562 156.315044,33.9175634 156.315044,31.813655 C156.315044,29.7234788 154.62129,28.0953718 152.588485,28.0953718 C150.556734,28.0953718 148.86268,29.7234788 148.86268,31.813655 C148.86268,33.9175634 150.556734,35.5349562 152.588485,35.5349562 Z" id="path66" fill="#D4B67B"></path>
                    </g>
                </g>
            </g>
        </g>
    </g>
</svg>