<svg width="200" height="200" xmlns="http://www.w3.org/2000/svg"><g fill-rule="nonzero" fill="none"><path d="M182.109 84.015c0 20.186-4.807 39.463-13.359 56.318l-3.426-3.42c7.81-15.901 12.182-33.983 12.182-52.898V13.463H37.959l-4.6-4.594h148.75v75.146Zm-10.797 63.015v11.175l-39.428-39.367a42.407 42.407 0 0 0 5.073-6.109l.143.138 34.212 34.163Zm0 11.179h-11.195l-30.333-30.288v-2.98l31.209 31.159h8.208l2.111 2.105v.004Zm-67.54 38.097-1.718.518-.194-.046-.118.025-1.654-.497c-26.763-8.034-48.84-26.956-62.66-51.636a55.625 55.625 0 0 0 1.077.44c.376.152.756.296 1.138.44l.064.026c.358.135.722.268 1.084.398.023.006.046.016.068.023a58.789 58.789 0 0 0 1.195.413c.355.12.71.235 1.067.35l.137.04c.31.1.62.195.931.289 13.329 21.375 33.33 37.643 57.225 44.815l.484.147.02-.006.033.012.497-.15c20.513-6.16 38.15-19.016 51.167-36.051l3.277 3.272c-13.556 17.545-31.86 30.798-53.12 37.178Zm5.697-32.15 4.659 14.315-12.195-8.848h-.002l-12.191 8.845 4.66-14.31-.004-.003-12.186-8.84 15.064-.002 4.659-14.31 4.659 14.31h15.064l-12.188 8.842Zm-86.442-31.368 2.083-2.083a62.665 62.665 0 0 0 33.373 13.185c1.84.162 3.703.243 5.537.243 13.703 0 26.931-4.466 37.833-12.687 6.044 5.72 14.204 9.236 23.17 9.236 4 0 7.843-.702 11.41-1.985l2.274 2.271a36.583 36.583 0 0 1-13.685 2.64 36.527 36.527 0 0 1-23.37-8.405c-12.24 8.534-27.424 13.001-43.424 11.603a65.6 65.6 0 0 1-35.201-14.018Zm-1.27-48.773V20.464l4.603 4.597v58.954a121 121 0 0 0 5.419 35.894l-3.657 3.65c-4.131-12.44-6.365-25.78-6.365-39.544Zm135.433 40.843-17.252-17.229a42.266 42.266 0 0 0 4.35-17.961c.197-11.278-4.03-21.972-11.897-30.108a42.35 42.35 0 0 0-33.456-12.824 42.2 42.2 0 0 0-15.729 4.244L65.955 33.754a65.655 65.655 0 0 1 37.13-10.676c36.363.633 65.43 30.69 64.795 67.001a65.416 65.416 0 0 1-10.69 34.779Zm-86.183-58.61-1.492 1.488L51.132 49.38V46.4l19.875 19.848ZM66.299 23.34l2.17 2.165a70.769 70.769 0 0 0-11.427 7.422l3.848 3.843 19.82 19.79-5.597 5.588-23.98-23.945V38.2a70.242 70.242 0 0 0-12.005 15.96l-2.155-2.152a73.266 73.266 0 0 1 14.523-18.202A73.81 73.81 0 0 1 66.299 23.34Zm65.56 110.79c-2.19.55-4.478.844-6.837.844-9.25 0-17.464-4.505-22.564-11.428-10.589 9.598-24.236 14.883-38.438 14.883-1.672 0-3.367-.074-5.037-.22A56.969 56.969 0 0 1 29.18 126.64l6.73-6.718 23.707-23.677h13.494c5.703 0 10.844-2.914 13.44-7.361.514-.88.93-1.822 1.23-2.813l.02-.065v-.006H63.661l-14.349 14.328H41.02l38.966-38.91 4.887-4.878a36.5 36.5 0 0 1 17.06-4.202c20.238 0 36.643 16.381 36.643 36.59 0 14.048-7.927 26.242-19.56 32.374l12.843 12.827ZM18.813 18.358 16.93 16.48v-4.522l1.16-1.158h-.002a3.952 3.952 0 0 1 0-5.591 3.966 3.966 0 0 1 5.598 0l.001.003 1.16-1.159h4.512L31.25 5.94l-2.485 2.48 17.922 17.897a82.64 82.64 0 0 1 13.15-9.431l3.222 3.216A78.152 78.152 0 0 0 48.534 30.56a77.713 77.713 0 0 0-14.786 18.226l-3.205-3.201a82.248 82.248 0 0 1 8.679-11.82l-17.92-17.893-2.49 2.486ZM185.037 5.94H35.394l-4.82-4.815h-6.94l-.408.407a6.84 6.84 0 0 0-2.34-.407c-1.84 0-3.568.716-4.87 2.016a6.871 6.871 0 0 0-1.606 7.196l-.41.408v6.948l4.815 4.805.01-.014v61.531c0 14.593 2.456 28.725 6.989 41.85l-7.181 7.169 2.495 1.983a68.319 68.319 0 0 0 5.197 3.76 65.569 65.569 0 0 0 2.142 1.348c.694.417 1.395.823 2.102 1.217l.082.044c.7.389 1.406.765 2.123 1.13l.092.044c.044.027.094.05.14.074 14.016 27.016 37.494 47.847 66.238 56.474l2.403.723.18-.044.294.077 2.497-.753c21.763-6.535 40.51-20.063 54.413-37.975l12.281.001h2.929v-15.32l-3.315-3.313c9.03-17.458 14.114-37.497 14.111-58.489V5.94Z" fill="#1A191A"/><path d="M37.96 13.463h139.547v70.552c0 18.915-4.375 36.997-12.183 52.899l3.426 3.419c8.553-16.855 13.359-36.132 13.359-56.318V8.87H33.36l4.6 4.594M31.779 119.909c-3.525-11.347-5.418-23.442-5.418-35.894V25.061l-4.605-4.597v63.551c0 13.763 2.234 27.104 6.368 39.542l3.655-3.648M102.448 191.907l-.495.15-.037-.012-.018.006-.486-.147c-23.894-7.172-43.894-23.44-57.223-44.815-.31-.094-.621-.188-.93-.287l-.138-.043a78.713 78.713 0 0 1-2.261-.762c-.023-.007-.046-.017-.07-.023a82.68 82.68 0 0 1-1.083-.398l-.064-.026a52.158 52.158 0 0 1-1.154-.447 64.28 64.28 0 0 1-1.061-.433c13.817 24.68 35.897 43.602 62.66 51.636l1.654.497.118-.025.194.046 1.72-.518c21.259-6.38 39.562-19.633 53.12-37.178l-3.279-3.272c-13.016 17.035-30.654 29.892-51.167 36.05" fill="#D4B67B"/><path d="M58.228 146.806c16 1.398 31.186-3.069 43.423-11.603a36.535 36.535 0 0 0 23.371 8.405 36.6 36.6 0 0 0 13.687-2.64l-2.277-2.271a33.626 33.626 0 0 1-11.41 1.985c-8.967 0-17.124-3.515-23.17-9.236-10.901 8.219-24.129 12.687-37.832 12.687-1.835 0-3.697-.08-5.536-.243a62.642 62.642 0 0 1-33.372-13.187l-2.086 2.085a65.6 65.6 0 0 0 35.202 14.018" fill="#D4B67B"/><path fill="#D4B67B" d="M121.654 155.313h-15.061l-4.66-14.31-4.658 14.31-15.066.003 12.188 8.84.003.002-4.658 14.31 12.19-8.845h.002l12.195 8.848-4.658-14.316h-.002l12.185-8.842M51.132 49.378l18.383 18.36 1.492-1.49L51.132 46.4v2.978M160.993 156.1l-31.209-31.16v2.981l30.333 30.288h11.195v-.004l-2.11-2.105h-8.21M137.098 112.867l-.141-.138a42.407 42.407 0 0 1-5.075 6.109l39.43 39.367V147.03l-34.214-34.163M30.543 45.585l3.207 3.201a77.714 77.714 0 0 1 14.784-18.228 78.184 78.184 0 0 1 14.525-10.456l-3.222-3.216a82.545 82.545 0 0 0-13.15 9.431L28.764 8.42l2.485-2.48-1.89-1.886h-4.511l-1.16 1.159-.002-.003a3.966 3.966 0 0 0-5.598 0 3.952 3.952 0 0 0 0 5.59h.002l-1.16 1.16v4.52l1.883 1.878 2.49-2.488 17.919 17.894a82.036 82.036 0 0 0-8.679 11.82"/><path d="M51.495 33.806a73.308 73.308 0 0 0-14.523 18.202l2.158 2.152A70.182 70.182 0 0 1 51.131 38.2v.003l23.98 23.945 5.599-5.586L60.89 36.77l-3.848-3.843a70.811 70.811 0 0 1 11.426-7.422L66.3 23.34a73.866 73.866 0 0 0-14.805 10.466" fill="#D4B67B"/><path d="M90.512 45.156a44.841 44.841 0 0 1 5.362-1.048l-1.04-10.687a55.871 55.871 0 0 0-7.412 1.45l3.09 10.285M156.211 102.88a55.967 55.967 0 0 0 1.37-7.357l-10.718-.897a45.066 45.066 0 0 1-.993 5.303l10.341 2.951M144.925 103.183a44.61 44.61 0 0 1-1.468 3.824l8.048 8.035a55.488 55.488 0 0 0 3.76-8.908l-10.34-2.951M147.117 85.848c.087 1.283.121 2.572.098 3.873-.006.51-.027 1.02-.056 1.53l10.719.898c.041-.744.074-1.493.084-2.242a55.431 55.431 0 0 0-.149-5.247l-10.696 1.188M145.68 77.174c.467 1.738.83 3.51 1.085 5.305l10.691-1.19a56.145 56.145 0 0 0-1.508-7.349l-10.269 3.234M108.087 44.128c1.809.249 3.6.603 5.357 1.065l3.097-10.28a56.285 56.285 0 0 0-7.403-1.476l-1.051 10.691M154.94 70.706a54.951 54.951 0 0 0-2.93-6.921l-9.443 5.154a43.438 43.438 0 0 1 2.107 4.998l10.266-3.231M124.722 49.858a44.931 44.931 0 0 1 4.536 3.016l6.77-8.336a55.904 55.904 0 0 0-6.272-4.173l-5.034 9.493M131.881 55.025a46.51 46.51 0 0 1 3.854 3.834l8.262-6.874a51.304 51.304 0 0 0-1.768-1.912 55.908 55.908 0 0 0-3.572-3.39l-6.776 8.342M126.758 38.774a55.618 55.618 0 0 0-6.968-2.878l-3.102 10.284a45.367 45.367 0 0 1 5.042 2.08l5.028-9.486M105.762 33.106a57.656 57.656 0 0 0-3.847-.136 57.32 57.32 0 0 0-3.705.124l1.042 10.69a46.168 46.168 0 0 1 2.664-.08c.27 0 .541.005.807.007.665.012 1.33.037 1.991.08l1.048-10.685M150.39 60.81a55.819 55.819 0 0 0-4.227-6.217l-8.264 6.874a44.914 44.914 0 0 1 3.048 4.496l9.443-5.153M84.171 35.842a56.055 56.055 0 0 0-8.391 3.584l8.048 8.036a46.833 46.833 0 0 1 3.438-1.329l-3.095-10.291" fill="#1A191A"/><path d="m151.507 115.042-8.05-8.035a45.167 45.167 0 0 0 1.468-3.824l10.34 2.951a55.399 55.399 0 0 1-3.758 8.908Zm-4.644-20.416 10.719.897a56.179 56.179 0 0 1-1.37 7.357l-10.342-2.951c.436-1.74.766-3.51.993-5.303Zm-4.297-25.688 9.445-5.152a54.85 54.85 0 0 1 2.927 6.92l-10.262 3.23a44.314 44.314 0 0 0-2.11-4.998Zm-4.67-7.472 8.268-6.873a56.061 56.061 0 0 1 4.227 6.217l-9.443 5.153a44.735 44.735 0 0 0-3.051-4.497ZM116.69 46.18l3.1-10.284c2.385.8 4.713 1.763 6.97 2.878l-5.028 9.487a45.353 45.353 0 0 0-5.042-2.081Zm-13.965-2.47c-.27 0-.54-.005-.807-.005-.888 0-1.783.027-2.667.078l-1.04-10.69a58.383 58.383 0 0 1 3.705-.123c.333 0 .665.005.998.01.955.017 1.904.061 2.85.126l-1.052 10.685a45.916 45.916 0 0 0-1.987-.08ZM83.83 47.465l-8.05-8.038a55.892 55.892 0 0 1 8.391-3.583l3.095 10.29c-1.166.397-2.31.841-3.436 1.33Zm12.043-3.356a45.095 45.095 0 0 0-5.36 1.048L87.42 34.872a55.889 55.889 0 0 1 7.413-1.451l1.039 10.687Zm20.667-9.196-3.097 10.283a44.933 44.933 0 0 0-5.355-1.065l1.05-10.691c2.505.324 4.98.82 7.402 1.473Zm19.488 9.626-6.77 8.337a45.275 45.275 0 0 0-4.536-3.018l5.034-9.49a56.099 56.099 0 0 1 6.272 4.17Zm6.202 5.535a51.777 51.777 0 0 1 1.767 1.912l-8.261 6.874a45.308 45.308 0 0 0-3.856-3.834l6.777-8.342a55.935 55.935 0 0 1 3.573 3.39Zm4.534 32.406a45.571 45.571 0 0 0-1.083-5.306l10.265-3.233a55.025 55.025 0 0 1 1.509 7.351l-10.691 1.188Zm11.198 7.428c-.012.749-.042 1.498-.084 2.242l-10.72-.898c.03-.51.05-1.02.057-1.53a45.018 45.018 0 0 0-.098-3.873l10.696-1.188c.13 1.732.183 3.486.149 5.247Zm9.92.173c.633-36.311-28.434-66.37-64.797-67.002a65.658 65.658 0 0 0-37.13 10.676l17.25 17.226a42.21 42.21 0 0 1 15.73-4.244 41.922 41.922 0 0 1 3.737-.096 42.342 42.342 0 0 1 26.984 10.327c.94.818 1.863 1.689 2.733 2.593 7.87 8.135 12.096 18.829 11.898 30.108a42.184 42.184 0 0 1-4.351 17.961l17.255 17.229a65.457 65.457 0 0 0 10.69-34.778Z" fill="#D4B67B"/><path d="M119.016 121.303c11.633-6.132 19.561-18.326 19.561-32.373 0-20.21-16.405-36.59-36.643-36.59a36.5 36.5 0 0 0-17.062 4.201l-4.886 4.878-38.966 38.91h8.292L63.662 86h24.14-.001l.001.006-.021.065a13.1 13.1 0 0 1-1.23 2.813c-2.594 4.447-7.738 7.36-13.44 7.36H59.618L35.91 119.924l-6.73 6.718a56.969 56.969 0 0 0 29.802 11.567c1.67.147 3.366.221 5.038.221 14.201 0 27.85-5.285 38.437-14.883 5.1 6.923 13.317 11.428 22.565 11.428 2.36 0 4.649-.294 6.838-.844l-12.844-12.827M167.027 166.362c.6 0 1.13.048 1.13.678 0 .678-.926.565-1.604.565h-.77v-1.243h1.244Zm.52 1.965c.666-.023 1.334-.384 1.334-1.365 0-1.052-.814-1.321-1.718-1.321h-2.102v4.988h.721v-2.302h.928l1.278 2.302h.826l-1.266-2.302Zm-.769 4.211c2.488 0 4.454-1.963 4.454-4.436s-1.966-4.438-4.454-4.438c-2.488 0-4.455 1.965-4.455 4.438s1.967 4.436 4.455 4.436Zm0-8.15c2.036 0 3.731 1.614 3.731 3.714 0 2.087-1.695 3.713-3.73 3.713s-3.731-1.626-3.731-3.713c0-2.1 1.696-3.715 3.73-3.715Z" fill="#D4B67B"/></g></svg>