<svg width="200" height="200" xmlns="http://www.w3.org/2000/svg"><g fill-rule="nonzero" fill="none"><path d="M152.025 63.725v8.713l-4.337-8.713h4.337ZM48 63.725h4.336L48 72.438v-8.713Zm51.844 92.802c-25.69 0-34.087-3.56-43.144-8.593a30.657 30.657 0 0 1-2.058-1.257H81.53V118.42H65.17l7.258-12.902h56.824l7.355 13.28H118.22v27.88h26.826c-.633.418-1.304.837-2.06 1.257-9.056 5.032-17.452 8.593-43.142 8.593Zm.91-101.253 12.284 21.609H88.29l12.463-21.61Zm98.934 8.437V35.454h-61.863v11.88l-19.746-35.02H81.67L61.863 47.438V35.454H0v28.257h12.461s-.009 34.484-.02 55.087H.595v27.88h12.415c1.224 7.744 4.698 16.172 14.202 23.174 15.044 11.085 33.153 18.468 72.631 18.468 39.479 0 57.587-7.383 72.63-18.468 7.95-5.857 11.621-15.386 13.318-23.175h13.36v-27.88h-11.907V63.712h12.443Z" fill="#F1511B"/><path d="M145.723 152.856c-10.196 5.665-19.824 9.304-45.879 9.304-26.055 0-35.683-3.639-45.878-9.304-3.544-1.967-6.02-4.029-7.767-6.179H18.736c1.19 6.413 4.236 13.055 11.818 18.642 14.349 10.571 31.152 17.368 69.29 17.368 38.138 0 54.941-6.797 69.29-17.368 7.582-5.587 10.629-12.23 11.818-18.642h-27.463c-1.747 2.15-4.223 4.212-7.766 6.18M157.429 57.324v24.778l20.69 36.696h3.475v-60.72h12.461V41.088h-50.597v16.237h13.97M42.26 82.208V57.324h13.97V41.087H5.633v16.992h12.462v60.719h3.536l20.63-36.59" fill="#0C2950"/><path d="M78.54 82.515h44.18L100.787 43.94 78.54 82.515m36.249-64.57 60.04 106.484h18.69v16.615h-69.667V124.43h22.313l-13.593-24.544H69.135l-13.594 24.167h20.355v16.992H6.23V124.43h18.69L84.96 17.946h29.83" fill="#0C2950"/></g></svg>