<svg width="200" height="200" xmlns="http://www.w3.org/2000/svg"><g fill="none"><path d="M152.025 64.369v8.663l-4.337-8.663h4.337zM48 64.369h4.336L48 73.032v-8.663zm51.844 92.276c-25.69 0-34.087-3.54-43.144-8.544a30.69 30.69 0 0 1-2.058-1.25H81.53v-28.098H65.17l7.258-12.83h56.824l7.355 13.207H118.22v27.721h26.826c-.633.416-1.304.833-2.06 1.25-9.056 5.004-17.452 8.544-43.142 8.544zm.91-100.68l12.284 21.486H88.29l12.463-21.487zm98.934 8.39V36.256h-61.863v11.812l-19.746-34.822H81.67L61.863 48.174V36.257H0v28.097h12.461s-.009 34.29-.02 54.776H.595v27.721H13.01c1.224 7.702 4.698 16.082 14.202 23.045 15.044 11.022 33.153 18.363 72.631 18.363 39.479 0 57.587-7.341 72.63-18.363 7.95-5.824 11.621-15.3 13.318-23.045h13.36V119.13h-11.907V64.354h12.443z" fill="#F1511B"/><path d="M145.723 152.996c-10.196 5.633-19.824 9.25-45.879 9.25-26.055 0-35.683-3.617-45.878-9.25-3.544-1.956-6.02-4.006-7.767-6.145H18.736c1.19 6.377 4.236 12.982 11.818 18.537 14.349 10.512 31.152 17.27 69.29 17.27 38.138 0 54.941-6.758 69.29-17.27 7.582-5.555 10.629-12.16 11.818-18.537h-27.463c-1.747 2.139-4.223 4.189-7.766 6.145m11.706-94.993v24.638l20.69 36.489h3.475V58.754h12.461V41.858h-50.597v16.145h13.97M42.26 82.746V58.003h13.97V41.858H5.633v16.896h12.462v60.376h3.536l20.63-36.384" fill="#0C2950"/><path d="M78.54 83.052h44.18l-21.932-38.358L78.54 83.052m36.249-64.205l60.04 105.883h18.69v16.52h-69.667v-16.52h22.313l-13.593-24.407H69.135l-13.594 24.032h20.355v16.895H6.23v-16.52h18.69L84.96 18.847h29.83" fill="#0C2950"/></g></svg>