<?xml version="1.0" encoding="UTF-8"?>
<svg width="200px" height="200px" viewBox="0 0 200 200" version="1.1" xmlns="http://www.w3.org/2000/svg" xmlns:xlink="http://www.w3.org/1999/xlink">
    <!-- Generator: Sketch 51.3 (57544) - http://www.bohemiancoding.com/sketch -->
    <title>auburn</title>
    <desc>Created with Sketch.</desc>
    <defs></defs>
    <g id="auburn" stroke="none" stroke-width="1" fill="none" fill-rule="evenodd">
        <g id="auburn_BGL" transform="translate(0.000000, 12.935323)">
            <g id="auburn" transform="translate(0.000000, -0.994350)">
                <g id="g10" transform="translate(100.000000, 88.318028) scale(-1, 1) rotate(-180.000000) translate(-100.000000, -88.318028) translate(0.000000, 0.318028)" fill-rule="nonzero">
                    <g id="g12">
                        <path d="M152.024503,123.890466 L152.024503,115.227332 L147.68847,123.890466 L152.024503,123.890466 Z M47.9999988,123.890466 L52.3364473,123.890466 L47.9999988,115.227332 L47.9999988,123.890466 Z M99.8442343,31.6136059 C74.1540999,31.6136059 65.7574231,35.1539885 56.6998947,40.1576664 C55.9447546,40.5749011 55.2739342,40.9915989 54.6421586,41.407512 L81.5285546,41.407512 L81.5285546,69.5062188 L65.1713379,69.5062188 L72.4286586,82.3350925 L129.252749,82.3350925 L136.607681,69.1291298 L118.220142,69.1291298 L118.220142,41.407512 L145.045895,41.407512 C144.413288,40.9915989 143.742468,40.5749011 142.986912,40.1576664 C133.930215,35.1539885 125.533953,31.6136059 99.8442343,31.6136059 Z M100.753061,132.294636 L113.038419,110.807584 L88.2895097,110.807584 L100.753061,132.294636 Z M199.688053,123.904922 L199.688053,152.001977 L137.824711,152.001977 L137.824711,140.18955 L118.079332,175.012254 L81.6685338,175.012254 L61.8633422,140.084643 L61.8633422,152.001977 L0,152.001977 L0,123.904922 L12.4610589,123.904922 C12.4610589,123.904922 12.4522946,89.6154298 12.4404566,69.1291298 L0.596120442,69.1291298 L0.596120442,41.407512 L13.01109,41.407512 C14.2351398,33.705975 17.7093246,25.326132 27.2132911,18.363326 C42.2566968,7.34096889 60.3655229,0 99.8442343,0 C139.32253,0.00048401212 157.431356,7.34096889 172.474762,18.363326 C180.424918,24.186935 184.095115,33.662112 185.792311,41.407512 L199.151397,41.407512 L199.151397,69.1291298 L187.245271,69.1291298 L187.245271,123.904922 L199.688053,123.904922 Z" id="path14" fill="#F1511B"></path>
                        <path d="M145.72253,35.2630263 C135.527307,29.6301095 125.899062,26.0124919 99.8442343,26.0124919 C73.7889909,26.0124919 64.1607461,29.6301095 53.9655231,35.2630263 C50.4220133,37.2193872 47.9464162,39.2693388 46.1993758,41.407512 L18.7363651,41.407512 C19.9253578,35.0308666 22.9716713,28.4262332 30.5537687,22.8710885 C44.9025949,12.3591851 61.7063328,5.60094887 99.8442343,5.60094887 C137.98172,5.60094887 154.785458,12.3591851 169.133537,22.8710885 C176.715676,28.4262332 179.76282,35.0308666 180.951605,41.407512 L153.488677,41.407512 C151.741637,39.2693388 149.265625,37.2193872 145.72253,35.2630263" id="path16" fill="#0C2950"></path>
                        <path d="M157.428864,130.25596 C157.428864,127.752221 157.428864,117.658792 157.428864,105.617551 L178.118376,69.1291298 L181.59418,69.1291298 C181.59418,90.3283056 181.59418,129.505086 181.59418,129.505086 L194.055239,129.505086 L194.055239,146.400987 L143.457525,146.400987 L143.457525,130.25596 L157.428864,130.25596" id="path18" fill="#0C2950"></path>
                        <path d="M42.2596043,105.512643 C42.2596043,117.600556 42.2596043,127.744787 42.2596043,130.25596 L56.2309436,130.25596 L56.2309436,146.400987 L5.63248169,146.400987 L5.63248169,129.505086 L18.0935406,129.505086 C18.0935406,129.505086 18.0935406,90.3283056 18.0935406,69.1291298 L21.6299891,69.1291298 L42.2596043,105.512643" id="path20" fill="#0C2950"></path>
                        <path d="M78.5395619,105.207007 L122.719415,105.207007 L100.788367,143.564765 L78.5395619,105.207007 M114.788782,169.411677 L174.828241,63.5293787 L193.519414,63.5293787 L193.519414,47.0085021 L123.852126,47.0085021 L123.852126,63.5293787 L146.165313,63.5293787 L132.572375,87.9356696 L69.1352008,87.9356696 L55.5414316,63.9044026 L75.8961559,63.9044026 L75.8961559,47.0085021 L6.22940794,47.0085021 L6.22940794,63.5293787 L24.9196671,63.5293787 L84.9590841,169.411677 L114.788782,169.411677" id="path22" fill="#0C2950"></path>
                    </g>
                </g>
            </g>
        </g>
    </g>
</svg>