<svg width="200" height="200" xmlns="http://www.w3.org/2000/svg"><g fill="none"><path d="M145.577 88.073c19.925 12.62 43.554 10.367 43.554 10.367s-24.165 77.697-89.206 101.371C34.881 176.137 10.715 98.44 10.715 98.44s23.623 2.236 43.548-10.385l-1.238-2.032 2.248-3.614s.196-.338.475-.962c-11.264-6.185-11.9-13.983-11.146-18.35 1.52-8.382 8.296-13.843 17.357-14.097.187-2.172.281-4.362.281-6.546 0-9.017-1.565-17.838-4.523-25.51-1.152-2.973-.167-6.392 2.398-8.308C70.645.779 98.7.69 99.892.69c1.187 0 29.247.088 39.773 7.946a7.174 7.174 0 0 1 2.403 8.3c-2.96 7.68-4.525 16.5-4.525 25.517 0 2.057.112 4.223.34 6.545 9.133.238 15.966 5.7 17.481 14.053.76 4.408.12 12.21-11.138 18.394.286.644.493.994.496 1.003l2.132 3.574-1.277 2.05" fill="#A9AFB3"/><path d="M136.651 88.567a14.27 14.27 0 0 0-1.115-1.059l4.868-2.438s-1.437-2.313-2.347-6.256c5.725-2.396 13.66-7.16 12.335-14.862-1.343-7.39-8.277-11.136-16.933-9.565-.575-3.887-.968-7.874-.968-11.933 0-9.63 1.679-19.078 4.859-27.322.34-.885.051-1.89-.714-2.458-7.63-5.694-29.265-6.941-36.744-6.941-7.481 0-29.115 1.247-36.748 6.94a2.107 2.107 0 0 0-.708 2.46c3.178 8.243 4.858 17.69 4.858 27.321 0 4.059-.3 8.047-.875 11.935-8.653-1.573-15.496 2.174-16.836 9.563-1.327 7.701 6.608 12.466 12.332 14.862-.908 3.943-2.347 6.256-2.347 6.256l4.87 2.438c-.284.24-.552.495-.814.75-11.902 7.45-24.657 15.224-45.531 15.224 14.516 37.393 44.445 77.41 81.832 90.966 37.383-13.555 67.313-53.573 81.829-90.966-20.679 0-33.366-7.562-45.103-14.915" fill="#000"/><path d="M109.193 80.006c-.018.196-.057.383-.057.584 0 4.141 3.207 7.499 7.17 7.499 3.965 0 7.177-3.358 7.177-7.499 0-2.285-1-4.307-2.54-5.681-1.47.444-3.278 1.258-5.454 2.694-2.606 1.723-4.698 2.325-6.296 2.403m-9.301-4.262c-1.947 0-3.624 6.59-4.105 9.13a.248.248 0 0 1-.184.19.23.23 0 0 1-.247-.086c-.062-.08-1.514-1.952-2.227-4.173l-3.142-1.227c-.285.57-1.225 1.977-3.544 1.977-2.213 0-5.082-1.261-8.524-3.744a.241.241 0 0 1-.083-.288.232.232 0 0 1 .262-.147l4.417.704c-.033-.433-.072-1.244.006-1.974-.443-.195-1.796-.73-3.326-.73-1.52 0-2.785.515-3.766 1.532-1.8 1.873-2.606 5.393-2.396 10.465a.237.237 0 0 1-.102.207.241.241 0 0 1-.231.027c-.13-.053-2.972-1.253-4.185-5.395-.387 2.549-.736 8.855 4.77 10.805a.238.238 0 0 1 .161.225s0 1.545.025 3.427c3.274-.056 6.82-.853 10.543-2.37 2.967-1.215 5.616-1.97 7.874-2.248.716-1.266 1.616-2.344 2.674-3.203a.234.234 0 0 1 .272-.023.241.241 0 0 1 .12.248c-.004.022-.356 2.328-.406 3.234l5.439 1.52 5.417-1.514c-2.33-14.408-4.453-16.569-5.512-16.569m-5.391 36.668c-1.061 0-2.202.253-3.297.737a.242.242 0 0 1-.34-.231c.005-.148.25-3.603 9.123-3.603 7.937 0 8.132-.879 8.428-2.206 0-.006.002-.012.004-.016-.289.019-.748.043-1.329.043-1.977 0-4.795-.263-7.085-1.5-.562.407-2.875 1.876-6.818 1.876-4.244 0-5.502 1.265-5.514 1.277a.305.305 0 0 1-.177.076.244.244 0 0 1-.178-.076c-.026-.031-.639-.698-.857-1.915-4.177.532-8.342.515-11.866-.079 1.195 3.391 3.492 6.354 6.826 8.81.011-.933.143-2.975 1.022-4.174a.243.243 0 0 1 .195-.097c.017 0 .034 0 .049.003a.24.24 0 0 1 .188.184c.018.082 1.846 8.092 6.589 12.346 1.606 1.442 3.41 2.236 5.073 2.236 3.16 0 5.208-2.722 5.208-6.934 0-5.88-3.286-6.757-5.244-6.757" fill="#FFF"/><path d="M107.297 112.747c-1.815-.235-3.323-.031-4.445.598-.193.854-.604 3.267.046 6.058.38-1.223 1.288-3.319 3.146-3.962 3.503-1.214 3.542-1.863 3.535-1.934-.01-.076-.157-.483-2.282-.76m25.678-33.231s-.204 3.919-1.11 5.66c-.902 1.743-1.809 4.357-1.005 5.446 0 0 5.838-1.197 2.115-11.106M74.234 73.07s4.046-2.617 11.45 1.654c7.4 4.265 9.91 1.635 9.91 1.635s-12.956-10.943-21.36-3.289" fill="#FFF"/><path d="M112.732 87.084l8.877-8.818a7.445 7.445 0 0 0-1.015-1.718l-9.468 9.215a7.15 7.15 0 0 0 1.606 1.321m9.478-6.269l-7.325 7.125c.462.098.935.149 1.42.149.135 0 .263-.014.394-.02l5.409-5.382c.08-.443.126-.899.126-1.366 0-.17-.014-.338-.024-.506" fill="#9FA7AA"/><path d="M125.741 73.07s-4.048-2.617-11.447 1.654c-7.403 4.265-9.915 1.635-9.915 1.635s12.958-10.943 21.362-3.289M81.196 14.237c-4.617.502-9.233 2.131-9.233 2.131s5.07 9.004 3.773 30.444c2.142-.21 5.354-.48 5.46-.703V14.237m12.698 80.351c-2.401 0-5.534.785-9.324 2.334-5.37 2.192-10.634 2.725-15.377 1.562-2.794-1.014-4.441-3.08-4.441-5.536 0-.253.017-.504.048-.753a5.344 5.344 0 0 0-1.273 3.454c0 1.305.493 2.578 1.389 3.582 1.154 1.361 2.969 2.56 5.398 3.571 2.754 1.147 6.338 1.752 10.366 1.752 9.488 0 18.132-3.262 18.132-6.846-.005-.11-.221-3.12-4.918-3.12m41.635-2.39c.031.249.048.498.048.75 0 2.457-1.645 4.522-4.404 5.524a21.323 21.323 0 0 1-5.126.614c-3.312 0-6.774-.728-10.29-2.164-3.786-1.549-6.923-2.334-9.32-2.334-4.699 0-4.913 3.009-4.92 3.138 0 1.715 2.042 3.465 5.603 4.782 3.514 1.302 8.08 2.046 12.527 2.046 4.025 0 7.608-.605 10.365-1.752 2.433-1.012 4.251-2.211 5.398-3.563a5.403 5.403 0 0 0 1.39-3.59 5.349 5.349 0 0 0-1.271-3.451" fill="#FFF"/><path d="M99.936 70.503c2.528-.01 14.853.332 28.032-6.947 12.926-7.299 17.46-2.088 17.55-2.083-.15-.009-4.053-9.456-20.845.443-7.476 4.312-16.703 5.474-24.74 5.437-8.034.054-17.265-1.106-24.75-5.351-16.822-9.706-20.714-.357-20.852-.362.086.004 4.611-5.158 17.556 2.001 13.19 7.167 27.137 6.865 28.05 6.862" fill="#A9AFB3"/><path d="M121.4 54.57l4.066-3.786c-3.744-.312-13.15-.973-25.476-.973h-.011c-12.322 0-21.723.66-25.472.97l4.066 3.79-6.054 1.56c-.014.04-.03.079-.043.119.864.438 1.761.924 2.707 1.479 7.485 4.327 16.716 5.51 24.75 5.454 8.037.039 17.264-1.147 24.74-5.54a48.854 48.854 0 0 1 2.729-1.523l-6.001-1.55" fill="#C21B32"/><path d="M91.283 146.564c-5.65-2.49-13.19-6.604-19.871-12.807 3.713 7.98 9.757 17.6 24.046 26.957l1.291-6.06c-3.01-2.669-4.627-5.842-5.466-8.09m17.283 0c5.646-2.49 13.187-6.604 19.87-12.807-3.715 7.98-9.76 17.6-24.05 26.957l-1.287-6.06c3.006-2.669 4.625-5.842 5.467-8.09m-4.592-14.044l-4.049 6.916-4.052-6.917s-14.474-4.733-23.286-17.213l.351 6.621s.683 10.91 22.56 20.498c1.3-.258 2.837-.407 4.489-.407 1.617 0 3.118.143 4.4.388 21.84-9.581 22.522-20.479 22.522-20.479l.353-6.62c-8.813 12.479-23.288 17.212-23.288 17.212" fill="#FFF"/><path d="M62.246 103.801c-7.948 4.843-16.608 9.44-27.99 11.544 1.625 3.557 4.566 9.375 9.065 16.117l14.233 2.236-3.312 11.832c7.751 8.605 17.838 17.29 30.673 23.957 0 0-29.882-34.68-22.669-65.686m94.282 27.661c4.497-6.742 7.44-12.56 9.061-16.117-11.38-2.104-20.04-6.701-27.987-11.544 7.21 31.005-22.672 65.686-22.672 65.686 12.836-6.668 22.926-15.352 30.675-23.957l-3.314-11.832 14.237-2.236" fill="#C21B32"/><path d="M152.233 182.257h1.923l1.541 2.508 1.562-2.508h1.903v6.49h-1.797v-3.793l-1.647 2.572h-.063l-1.648-2.572v3.793h-1.774v-6.49zm-4.772 1.58h-1.943v-1.58h5.703v1.58h-1.946v4.91h-1.814v-4.91z" fill="#A9AFB3"/></g></svg>