<svg width="200" height="200" xmlns="http://www.w3.org/2000/svg"><g fill-rule="nonzero" fill="none"><path d="M145.863 88.073c19.924 12.62 43.553 10.367 43.553 10.367s-24.165 77.697-89.205 101.371C35.167 176.137 11 98.44 11 98.44s23.623 2.236 43.548-10.385l-1.238-2.032 2.249-3.614s.196-.338.475-.962c-11.264-6.185-11.9-13.983-11.147-18.35C46.408 54.715 53.184 49.254 62.245 49c.186-2.172.281-4.362.281-6.546 0-9.017-1.565-17.838-4.523-25.51-1.152-2.973-.168-6.392 2.398-8.308C70.93.779 98.986.69 100.177.69c1.188 0 29.247.088 39.774 7.946a7.174 7.174 0 0 1 2.403 8.3c-2.96 7.68-4.525 16.5-4.525 25.517 0 2.057.111 4.223.34 6.545 9.133.238 15.966 5.7 17.481 14.053.76 4.408.12 12.21-11.139 18.394.287.644.493.994.497 1.003l2.132 3.574-1.277 2.05" fill="#A9AFB3"/><path d="M136.937 88.567a14.27 14.27 0 0 0-1.115-1.059l4.868-2.438s-1.437-2.313-2.348-6.256c5.726-2.396 13.66-7.16 12.336-14.862-1.343-7.39-8.278-11.136-16.933-9.565-.575-3.887-.968-7.874-.968-11.933 0-9.63 1.679-19.078 4.858-27.322.34-.885.052-1.89-.713-2.458-7.63-5.694-29.265-6.941-36.745-6.941-7.48 0-29.114 1.247-36.748 6.94a2.107 2.107 0 0 0-.707 2.46c3.177 8.243 4.858 17.69 4.858 27.321 0 4.059-.3 8.047-.875 11.935-8.654-1.573-15.496 2.174-16.837 9.563-1.327 7.701 6.609 12.466 12.332 14.862-.908 3.943-2.347 6.256-2.347 6.256l4.87 2.438c-.283.24-.551.495-.814.75-11.902 7.45-24.656 15.224-45.53 15.224 14.515 37.393 44.445 77.41 81.832 90.966 37.383-13.555 67.313-53.573 81.829-90.966-20.68 0-33.367-7.562-45.103-14.915" fill="#000"/><path d="M109.479 80.006c-.018.196-.058.383-.058.584 0 4.141 3.208 7.499 7.17 7.499 3.966 0 7.178-3.358 7.178-7.499 0-2.285-1-4.307-2.54-5.681-1.471.444-3.279 1.258-5.454 2.694-2.606 1.723-4.699 2.325-6.296 2.403M100.177 75.744c-1.947 0-3.624 6.59-4.104 9.13a.248.248 0 0 1-.184.19.23.23 0 0 1-.248-.086c-.061-.08-1.513-1.952-2.226-4.173l-3.142-1.227c-.285.57-1.225 1.977-3.544 1.977-2.214 0-5.082-1.261-8.524-3.744a.241.241 0 0 1-.083-.288c.042-.106.152-.172.262-.147l4.417.704c-.033-.433-.072-1.244.006-1.974-.443-.195-1.797-.73-3.327-.73-1.519 0-2.784.515-3.765 1.532-1.8 1.873-2.606 5.393-2.396 10.465a.237.237 0 0 1-.103.207.241.241 0 0 1-.23.027c-.13-.053-2.973-1.253-4.185-5.395-.387 2.549-.737 8.855 4.77 10.805a.238.238 0 0 1 .161.225s0 1.545.024 3.427c3.274-.056 6.82-.853 10.543-2.37 2.967-1.215 5.616-1.97 7.874-2.248.717-1.266 1.616-2.344 2.675-3.203a.234.234 0 0 1 .272-.023.241.241 0 0 1 .12.248c-.004.022-.356 2.328-.407 3.234l5.44 1.52 5.416-1.514c-2.33-14.408-4.452-16.569-5.512-16.569M94.787 112.412c-1.061 0-2.202.253-3.297.737a.242.242 0 0 1-.34-.231c.005-.148.249-3.603 9.122-3.603 7.938 0 8.133-.879 8.429-2.206 0-.006.002-.012.004-.016-.289.019-.749.043-1.33.043-1.976 0-4.794-.263-7.084-1.5-.562.407-2.876 1.876-6.818 1.876-4.244 0-5.503 1.265-5.514 1.277a.305.305 0 0 1-.177.076.244.244 0 0 1-.178-.076c-.027-.031-.639-.698-.857-1.915-4.177.532-8.343.515-11.866-.079 1.195 3.391 3.492 6.354 6.826 8.81.01-.933.143-2.975 1.022-4.174a.243.243 0 0 1 .195-.097c.016 0 .034 0 .048.003.095.02.17.092.188.184.019.082 1.847 8.092 6.59 12.346 1.606 1.442 3.41 2.236 5.072 2.236 3.16 0 5.208-2.722 5.208-6.934 0-5.88-3.285-6.757-5.243-6.757" fill="#FFF"/><path d="M107.583 112.747c-1.816-.235-3.323-.031-4.446.598-.192.854-.603 3.267.047 6.058.38-1.223 1.288-3.319 3.145-3.962 3.503-1.214 3.543-1.863 3.536-1.934-.01-.076-.157-.483-2.282-.76M133.26 79.516s-.204 3.919-1.109 5.66c-.903 1.743-1.809 4.357-1.005 5.446 0 0 5.838-1.197 2.115-11.106M74.52 73.07s4.046-2.617 11.449 1.654c7.401 4.265 9.91 1.635 9.91 1.635S82.925 65.416 74.52 73.07" fill="#FFF"/><path d="m113.018 87.084 8.877-8.818a7.445 7.445 0 0 0-1.015-1.718l-9.469 9.215c.47.517 1.01.962 1.607 1.321M122.496 80.815l-7.325 7.125c.462.098.935.149 1.42.149.135 0 .263-.014.394-.02l5.409-5.382c.08-.443.126-.899.126-1.366 0-.17-.015-.338-.024-.506" fill="#9FA7AA"/><path d="M126.027 73.07s-4.048-2.617-11.448 1.654c-7.402 4.265-9.914 1.635-9.914 1.635s12.958-10.943 21.362-3.289M81.481 14.237c-4.616.502-9.232 2.131-9.232 2.131s5.07 9.004 3.773 30.444c2.142-.21 5.353-.48 5.46-.703V14.237M94.18 94.588c-2.401 0-5.534.785-9.324 2.334-5.37 2.192-10.634 2.725-15.377 1.562-2.794-1.014-4.442-3.08-4.442-5.536 0-.253.017-.504.049-.753a5.344 5.344 0 0 0-1.273 3.454c0 1.305.493 2.578 1.388 3.582 1.154 1.361 2.97 2.56 5.398 3.571 2.755 1.147 6.338 1.752 10.367 1.752 9.487 0 18.132-3.262 18.132-6.846-.006-.11-.222-3.12-4.918-3.12M135.814 92.198c.032.249.049.498.049.75 0 2.457-1.646 4.522-4.404 5.524a21.323 21.323 0 0 1-5.126.614c-3.312 0-6.774-.728-10.29-2.164-3.787-1.549-6.923-2.334-9.321-2.334-4.698 0-4.912 3.009-4.92 3.138 0 1.715 2.043 3.465 5.604 4.782 3.514 1.302 8.08 2.046 12.527 2.046 4.025 0 7.608-.605 10.364-1.752 2.434-1.012 4.252-2.211 5.398-3.563.9-1.011 1.391-2.283 1.391-3.59a5.349 5.349 0 0 0-1.272-3.451" fill="#FFF"/><path d="M100.222 70.503c2.528-.01 14.852.332 28.032-6.947 12.925-7.299 17.46-2.088 17.55-2.083-.15-.009-4.053-9.456-20.845.443-7.476 4.312-16.703 5.474-24.74 5.437-8.035.054-17.266-1.106-24.75-5.351-16.822-9.706-20.714-.357-20.852-.362.086.004 4.61-5.158 17.555 2.001 13.19 7.167 27.138 6.865 28.05 6.862" fill="#A9AFB3"/><path d="m121.687 54.57 4.065-3.786c-3.744-.312-13.15-.973-25.476-.973h-.011c-12.323 0-21.723.66-25.472.97l4.065 3.79-6.053 1.56c-.015.04-.03.079-.043.119.864.438 1.761.924 2.707 1.479 7.484 4.327 16.715 5.51 24.75 5.454 8.037.039 17.264-1.147 24.74-5.54a48.854 48.854 0 0 1 2.728-1.523l-6-1.55" fill="#C21B32"/><path d="M91.568 146.564c-5.65-2.49-13.19-6.604-19.87-12.807 3.713 7.98 9.757 17.6 24.046 26.957l1.291-6.06c-3.01-2.669-4.627-5.842-5.467-8.09M108.851 146.564c5.646-2.49 13.188-6.604 19.872-12.807-3.716 7.98-9.762 17.6-24.05 26.957l-1.288-6.06c3.006-2.669 4.625-5.842 5.466-8.09M104.26 132.52l-4.049 6.916-4.052-6.917s-14.475-4.733-23.287-17.213l.352 6.621s.683 10.91 22.559 20.498c1.3-.258 2.838-.407 4.49-.407 1.617 0 3.117.143 4.4.388 21.84-9.581 22.521-20.479 22.521-20.479l.354-6.62c-8.814 12.479-23.288 17.212-23.288 17.212" fill="#FFF"/><path d="M62.532 103.801c-7.948 4.843-16.608 9.44-27.99 11.544 1.625 3.557 4.566 9.375 9.065 16.117l14.232 2.236-3.311 11.832c7.75 8.605 17.838 17.29 30.672 23.957 0 0-29.881-34.68-22.668-65.686M156.813 131.462c4.498-6.742 7.44-12.56 9.062-16.117-11.381-2.104-20.04-6.701-27.987-11.544 7.21 31.005-22.672 65.686-22.672 65.686 12.836-6.668 22.926-15.352 30.674-23.957l-3.313-11.832 14.236-2.236" fill="#C21B32"/><path d="M152.52 182.257h1.922l1.541 2.508 1.562-2.508h1.902v6.49h-1.796v-3.793l-1.648 2.572h-.062l-1.648-2.572v3.793h-1.774v-6.49Zm-4.774 1.58h-1.943v-1.58h5.703v1.58h-1.945v4.91h-1.815v-4.91Z" fill="#A9AFB3"/></g></svg>