<svg width="200" height="200" xmlns="http://www.w3.org/2000/svg"><g fill-rule="nonzero" fill="none"><path d="M151.744 123.94c-5.123-8.853-8.57-11.834-8.57-11.834.258-16.407-11.844-25.604-18.793-30.368-16.91-11.587-37.666-.668-50.152-25.364-6.584 4.413-5.6 12.796-5.6 12.796-18.593-7.252-25.878-25.99-25.878-25.99-6.233 3.797-5.977 13.454-5.977 13.454-8.595-8.8-12.895-27.121-12.895-27.121-13.503 20.52-2.176 40.595-2.176 40.595-.747 15.999 10.701 26.134 26.534 32.275 15.825 6.145 23.99 13.021 23.99 13.021-1.902 4.47-.276 11.058-.276 11.058s-20.364-8.587-38.273-8.587C13.198 117.875 0 128.977 0 128.977c46.714-2.108 63.083 23.944 63.083 23.944-6.94 13.547 6.825 18.329 6.825 18.329h14.184v-10.305c5.998-2.88 11.33-4.491 11.33-4.491l-2.104-6.63c14.81 8.4 28.246 2.06 28.246 2.06 22.988 8.838 60.491 7.152 77.475-4.665-34.81-2.729-41.473-13.225-47.295-23.278" fill="#FFF"/><path d="M140.237 113.603c.006-.039.006-.073.01-.115 1.562-16.604-14.997-33.74-37.22-35.48C80.8 76.27 73.368 61.051 73.368 61.051c-3.636 5.646-1.054 12.04-1.054 12.04C53.122 70.266 41.76 48.174 41.76 48.174c-4.348 6.554-.776 15.83-.776 15.83-12.635-7.851-17.92-26.811-17.92-26.811-7.485 14.156 1.544 32.326 1.544 32.326-1.26 11.822 6.234 23.135 24.911 30.178 18.683 7.038 25.988 14.737 25.988 14.737s-2.894 6.134.266 14.435l-1.999 1.763s-39.041-18.065-62.332-4.662c0 0 38.389.368 55.126 26.681-2.726 5.36-4.654 10.691 2.652 14.685 0 0 6.035-7.351 22.418-12.893l-2.333-7.353 1.08-2.39c19.924 11.879 28.924 3.476 31.141 4.015 34.473 13.17 67.605.259 67.605.259-42.592-5.654-35.962-26.907-48.894-35.37" fill="#1E59AE"/><path d="M108.194 134.586c-1.406-1.217-2.913-2.44-4.428-3.462-1.165.528-1.491.044-1.16-.742-1.546-.928-3.08-1.595-4.503-1.773a8.94 8.94 0 0 0-.808-.076c-.096 1.468-.952 1.167-1.603.087-2.631.516-2.046 2.844-2.046 2.844s.727-.072 1.942.171c.82-1.295 1.488-.74 1.576.438.924.32 1.981.81 3.133 1.547.177.112.367.234.562.352 1.264-.686 1.623-.132 1.248.77a73.314 73.314 0 0 0 3.865 2.16c1.07-.783 1.504-.267 1.309.66 2.644 1.286 5.315 2.303 7.15 2.325-1.216-.768-3.06-2.503-5.193-4.388-1.395.328-1.606-.204-1.044-.913M113.307 116.822c-4.274-2.446-11.252-11.338-16.719-6.782-4.158 3.466 3.369 10.247 5.955 10.612 0 0-.265-5.338 3.849-4.536 4.115.804 9.077 7.257 12.152 6.018 2.567-1.038 2.953-4.472 2.092-7.36-1.448 1.504-4.327 3.77-7.33 2.048M129.222 105.225s.684 9.33-4.177 9.461c0 0 .176 6.765 2.777 4.16 2.595-2.608 2.035-5.282 5.27-5.124 0 0 1.37-4.927-3.87-8.497" fill="#FFF"/><path d="M111.39 120.892c0-.583-.444-1.05-1.002-1.05-.55 0-.999.467-.999 1.05 0 .581.449 1.052 1 1.052.557 0 1.001-.47 1.001-1.052M130.95 117.229c-.356 0-.65.305-.65.686 0 .375.294.68.65.68.36 0 .649-.305.649-.68 0-.381-.288-.686-.649-.686" fill="#FFF"/><path d="M119.447 93.57c1.346-.623 3.363-1.11 5.988-.547-7.74-9.273-28.636-2.39-45.205-16.723 6.434 16.61 30.19 11.825 39.217 17.27M119.837 102.12c-4.25-3.685-8.115-3.02-8.115-3.02 5.77 2.914 6.27 8.35 6.27 8.35-10.413-10.653-20.065-5.012-20.065-5.012 7.758.668 11.091 6.411 15.151 10.077 4.05 3.665 8.097-.199 8.097-.199 6.89 1.168 4.722-10.374 4.722-10.374-3.336-1.26-6.06.178-6.06.178M30.448 73.888c.376 15.76 36.314 23.381 45.41 32.503a19.856 19.856 0 0 1 2.775-2.05C64.155 93.87 37.125 87.348 30.448 73.887M83.802 88.804c-2.127-1.48-5.72-5.966-5.72-5.966-8.275-1.898-14.089-7.253-14.089-7.253 3.915 9.755 19.81 13.219 19.81 13.219M77.575 97.5s5.281-1.097 6.91-3.065c0 0-26.947-10.006-38.547-28.522 0 0 8.163 21.914 31.637 31.586" fill="#FCD006"/><path d="m48.244 83.744-1.56-3.649c-14.571-8.497-20.018-25.072-20.018-25.072 3.932 23.387 21.578 28.72 21.578 28.72M125.83 127.646s1.562 2.972 3.944 4.928c0 0-5.88-1.487-7.296-4.302 0 0 2.455 1.095 3.352-.626Zm3.494-1.954c11.626 15.89 28.986 21.76 28.986 21.76-22.056-7.28-32.186-22.305-32.186-22.305 2.38.938 3.2.545 3.2.545Zm-15.122 11.15c15.347 14.878 50.167 11.26 50.167 11.26-6.192-1.98-17.672-11.808-21.495-21.539-3.96-10.057-9.803-5.037-11.637-3.804-1.839 1.237-6.516-.357-6.516-.357-9.567 4.878-21.159 2.043-28.869-2.79-6.311-3.948-15.299 5.499-8.423 14.962l-.561.813s-3.49-2.562-4.929-7.095a20.034 20.034 0 0 1 .848-8.265s-1.445-1.26.723-2.904c0 0 0-4.176 6.983-8.986 0 0 .205-.832.713-2.145a14.598 14.598 0 0 0-2.24.151c.029.009.044.012.044.012s-6.343 1.602-8.512 10.968c-1.426 6.146-.146 10.166.898 12.204-1.703 3.72-8.145 8.27-13.625 9.547 0 0-.672-1.72-2.991-3.24 0 0 2.655-.839 4.382-1.726-5.246-2.135-26.592-10.274-46.557-9.833 0 0 35.806 1.015 48.353 25.752 0 0 3.665-9.53 10.033-11.961 0 0-8.285 10.932-11.77 22.075 0 0 10.831-5.884 16.598-8.697 0 0-.967-3.042-1.548-4.864l2.513-5.158s1.146-1.937 2.909-4.092c.235.225.484.446.736.669 13.362 11.566 29.013 5.164 29.013 5.164-7.945 1.515-22.668-11.46-29.514-9.927.375-6.119 7.967-12 24.274 3.806Z" fill="#FCD006"/><path d="M125.83 127.646c-.897 1.721-3.352.626-3.352.626 1.415 2.815 7.296 4.302 7.296 4.302-2.382-1.956-3.944-4.928-3.944-4.928" fill="#1E59AE"/><path d="M129.324 125.692s-.82.393-3.2-.545c0 0 10.13 15.026 32.186 22.306 0 0-17.36-5.871-28.986-21.761" fill="#FEEB96"/><path d="M82.162 169.22h-.682v-2.662h-.019l-.904 2.662h-.408l-.91-2.662h-.014v2.662h-.685v-3.296h1.104l.707 1.95.708-1.95h1.103v3.296Zm-4.005-2.662h-.956v2.662h-.753v-2.662h-.958v-.634h2.667v.634Z" fill="#1E59AE"/></g></svg>