<?xml version="1.0" encoding="UTF-8"?>
<svg width="200px" height="200px" viewBox="0 0 200 200" version="1.1" xmlns="http://www.w3.org/2000/svg" xmlns:xlink="http://www.w3.org/1999/xlink">
    <!-- Generator: Sketch 51.3 (57544) - http://www.bohemiancoding.com/sketch -->
    <title>bakersfield</title>
    <desc>Created with Sketch.</desc>
    <defs></defs>
    <g id="bakersfield" stroke="none" stroke-width="1" fill="none" fill-rule="evenodd">
        <g id="bakersfield_BGL" transform="translate(-1.005025, 29.000000)">
            <g id="bakersfield">
                <g id="g10" transform="translate(100.328203, 71.138465) scale(-1, 1) rotate(-180.000000) translate(-100.328203, -71.138465) translate(0.000000, 0.027356)" fill-rule="nonzero">
                    <g id="g12">
                        <path d="M152.502991,47.3087851 C147.353955,56.1621183 143.890571,59.143178 143.890571,59.143178 C144.149637,75.5500836 131.986561,84.7480321 125.002756,89.5117926 C108.008808,101.098117 87.1487876,90.1798268 74.6002033,114.875211 C67.9827337,110.462903 68.9728906,102.079314 68.9728906,102.079314 C50.2859382,109.331279 42.964522,128.06974 42.964522,128.06974 C36.7010186,124.272134 36.9574052,114.616066 36.9574052,114.616066 C28.3198342,123.414698 23.9986435,141.736749 23.9986435,141.736749 C10.4282233,121.217091 21.8112138,101.141878 21.8112138,101.141878 C21.0609513,85.142562 32.5661223,75.0078614 48.4778316,68.8670068 C64.381982,62.7219813 72.5881418,55.8453319 72.5881418,55.8453319 C70.6770957,51.3757936 72.3112084,44.7876912 72.3112084,44.7876912 C72.3112084,44.7876912 51.8447361,53.374973 33.8468186,53.374973 C13.2633884,53.374973 0,42.2721357 0,42.2721357 C46.9472768,44.3808536 63.3987656,18.328273 63.3987656,18.328273 C56.4233442,4.78151783 70.2579162,0 70.2579162,0 L84.5127671,0 L84.5127671,10.3042049 C90.5400182,13.1842732 95.8986438,14.7959654 95.8986438,14.7959654 L93.7848797,21.4262559 C108.669187,13.0256407 122.172264,19.3654012 122.172264,19.3654012 C145.27455,10.5272476 182.965657,12.2134014 200.033821,24.0307003 C165.049514,26.7595891 158.353637,37.2553153 152.502991,47.3087851" id="path14" fill="#FFFFFF"></path>
                        <path d="M140.938448,57.6463575 C140.943945,57.6853319 140.943945,57.7195199 140.948068,57.7615028 C142.517586,74.3658101 125.876161,91.5022199 103.541454,93.2423908 C81.2053723,94.9791429 73.7357315,110.197604 73.7357315,110.197604 C70.0813111,104.551108 72.6767879,98.1572625 72.6767879,98.1572625 C53.3871105,100.983245 41.9686615,123.075552 41.9686615,123.075552 C37.5991621,116.521706 41.188919,107.245126 41.188919,107.245126 C28.4910793,115.096749 23.1799379,134.056749 23.1799379,134.056749 C15.6564222,119.900852 24.7306958,101.730596 24.7306958,101.730596 C23.4647738,89.9083738 30.9966044,78.5955536 49.766568,71.552135 C68.5426475,64.5149386 75.8845417,56.8157251 75.8845417,56.8157251 C75.8845417,56.8157251 72.9763982,50.6810928 76.1518545,42.3808536 L74.1432289,40.6175033 C74.1432289,40.6175033 34.9063119,58.6823917 11.4992613,45.2799305 C11.4992613,45.2799305 50.0797844,44.9113151 66.9012506,18.5982901 C64.1611225,13.2382219 62.2238261,7.90755536 69.5659265,3.91372982 C69.5659265,3.91372982 75.6309725,11.264957 92.0957926,16.806085 L89.7518234,24.1599994 L90.8368798,26.5491275 C110.860602,14.6707005 119.905946,23.0734353 122.133782,22.5347003 C156.779309,9.36540148 190.07659,22.2756234 190.07659,22.2756234 C147.271494,27.9295036 153.935073,49.1821526 140.938448,57.6463575" id="path16" fill="#1E59AE"></path>
                        <path d="M108.734469,36.6639991 C107.322315,37.8803409 105.807085,39.1041358 104.284982,40.125811 C103.114028,39.5980161 102.786244,40.0814349 103.119526,40.8677597 C101.565126,41.7956913 100.023782,42.4623579 98.5930745,42.6407511 C98.3023975,42.6802724 98.0378334,42.7048878 97.7815155,42.7165801 C97.6853104,41.2486827 96.8249617,41.5494007 96.1700796,42.6298109 C93.525813,42.1135032 94.1147259,39.7852298 94.1147259,39.7852298 C94.1147259,39.7852298 94.8445104,39.857093 96.0656284,39.6142896 C96.8902437,40.9094691 97.5616181,40.3549392 97.6502642,39.1768195 C98.5779565,38.8573665 99.6410232,38.3664264 100.798921,37.629264 C100.976213,37.5173324 101.167249,37.3955546 101.363095,37.2780162 C102.63369,37.9636914 102.994459,37.409982 102.617885,36.5080333 C103.787464,35.8146316 105.120592,35.055794 106.501823,34.3466658 C107.577259,35.1308709 108.012931,34.6145632 107.817084,33.6882727 C110.475095,32.4014351 113.158531,31.3846146 115.00292,31.3621873 C113.781115,32.1305975 111.927792,33.8659137 109.784479,35.7505632 C108.381946,35.4222897 108.170295,35.9548709 108.734469,36.6639991" id="path18" fill="#FFFFFF"></path>
                        <path d="M113.873197,54.4273491 C109.578325,56.8739131 102.564972,65.7660154 97.0709719,61.2096395 C92.8922336,57.7435883 100.456705,50.962597 103.055618,50.5974688 C103.055618,50.5974688 102.789679,55.9351097 106.923751,55.1335371 C111.059884,54.3295713 116.046746,47.8763065 119.136992,49.1151441 C121.716664,50.1538449 122.10492,53.5876226 121.239074,56.4765114 C119.783628,54.9716909 116.890602,52.7056397 113.873197,54.4273491" id="path20" fill="#FFFFFF"></path>
                        <path d="M129.867986,66.0245454 C129.867986,66.0245454 130.555166,56.6946994 125.670007,56.5632806 C125.670007,56.5632806 125.846612,49.7989047 128.460643,52.4041013 C131.069176,55.0112123 130.506376,57.6853319 133.758109,57.5275199 C133.758109,57.5275199 135.135217,62.4545625 129.867986,66.0245454" id="path22" fill="#FFFFFF"></path>
                        <path d="M111.947033,50.3576056 C111.947033,50.9401697 111.500366,51.4070414 110.940315,51.4070414 C110.387136,51.4070414 109.936346,50.9401697 109.936346,50.3576056 C109.936346,49.776409 110.387136,49.3052979 110.940315,49.3052979 C111.500366,49.3052979 111.947033,49.776409 111.947033,50.3576056" id="path24" fill="#FFFFFF"></path>
                        <path d="M131.605176,54.0205798 C131.246469,54.0205798 130.952356,53.7155542 130.952356,53.3341525 C130.952356,52.9593833 131.246469,52.6549047 131.605176,52.6549047 C131.96732,52.6549047 132.256622,52.9593833 132.256622,53.3341525 C132.256622,53.7155542 131.96732,54.0205798 131.605176,54.0205798" id="path26" fill="#FFFFFF"></path>
                        <path d="M120.044069,77.6793143 C121.397125,78.302904 123.424305,78.7890579 126.062387,78.2270066 C118.283515,87.499485 97.2833104,80.6160664 80.6315775,94.9497412 C87.0972491,78.3391433 110.971238,83.1247842 120.044069,77.6793143" id="path28" fill="#FCD006"></path>
                        <path d="M120.436448,69.1295709 C116.164254,72.8143572 112.281002,72.1504255 112.281002,72.1504255 C118.078736,69.2355538 118.581751,63.8002035 118.581751,63.8002035 C108.117382,74.4526477 98.4164693,68.8116222 98.4164693,68.8116222 C106.213895,68.1437248 109.563208,62.4006138 113.643679,58.7350413 C117.713843,55.0694687 121.780571,58.9331951 121.780571,58.9331951 C128.705966,57.7660156 126.52692,69.3073487 126.52692,69.3073487 C123.173484,70.5668358 120.436448,69.1295709 120.436448,69.1295709" id="path30" fill="#FCD006"></path>
                        <path d="M30.5998956,97.3613651 C30.9778444,81.6006817 67.095585,73.9801691 76.2377519,64.8581864 C77.2918852,65.7812633 78.2669929,66.4492291 79.0263262,66.9094684 C64.4757133,77.3791434 37.3103406,83.9008526 30.5998956,97.3613651" id="path32" fill="#FCD006"></path>
                        <path d="M84.221403,82.4458099 C82.0829005,83.9261517 78.4731468,88.4116217 78.4731468,88.4116217 C70.1562136,90.3097413 64.3129892,95.6642711 64.3129892,95.6642711 C68.2470916,85.9097414 84.221403,82.4458099 84.221403,82.4458099" id="path34" fill="#FCD006"></path>
                        <path d="M77.9632596,73.7504255 C77.9632596,73.7504255 83.2703466,74.8464939 84.9078953,76.8150408 C84.9078953,76.8150408 57.8256027,86.8205107 46.1674655,105.33675 C46.1674655,105.33675 54.3719761,83.4229039 77.9632596,73.7504255" id="path36" fill="#FCD006"></path>
                        <path d="M48.4855967,87.5056388 L46.9174532,91.1541858 C32.2732464,99.6519633 26.7991747,116.227006 26.7991747,116.227006 C30.7512813,92.8396558 48.4855967,87.5056388 48.4855967,87.5056388" id="path38" fill="#FCD006"></path>
                        <path d="M126.458889,43.6033493 C126.458889,43.6033493 128.029094,40.6316571 130.423228,38.6754862 C130.423228,38.6754862 124.512797,40.1621187 123.090335,42.9778451 C123.090335,42.9778451 125.55731,41.8824605 126.458889,43.6033493 Z M129.970376,45.5576741 C141.654489,29.6677599 159.101288,23.7969909 159.101288,23.7969909 C136.935627,31.0769223 126.754376,46.102563 126.754376,46.102563 C129.147135,45.1650587 129.970376,45.5576741 129.970376,45.5576741 Z M114.772715,34.4075889 C130.196458,19.5296405 165.190386,23.1466661 165.190386,23.1466661 C158.967976,25.1282045 147.430919,34.9551444 143.588212,44.6864262 C139.609443,54.7433149 133.736807,49.7238278 131.893104,48.490392 C130.045279,47.2531954 125.344971,48.8472466 125.344971,48.8472466 C115.729269,43.9698451 104.080203,46.8042381 96.3315668,51.6369902 C89.9882131,55.585708 80.9559262,46.1388706 87.8662029,36.6754863 L87.3020286,35.8624265 C87.3020286,35.8624265 83.7946646,38.4246828 82.348839,42.9572639 C82.1316903,44.9634177 82.1316903,47.9369561 83.2009415,51.2224944 C83.2009415,51.2224944 81.7489313,52.4821183 83.9279774,54.1266311 C83.9279774,54.1266311 83.9279774,58.3029045 90.9454541,63.1124771 C90.9454541,63.1124771 91.151608,63.9446822 91.6621823,65.2575026 C90.8767362,65.2649556 90.1263362,65.2096394 89.4109824,65.1063232 C89.4398439,65.0980497 89.4549619,65.094836 89.4549619,65.094836 C89.4549619,65.094836 83.0799979,63.4925112 80.9009518,54.1266311 C79.4674954,47.9807851 80.7538954,43.9610245 81.8032185,41.9228024 C80.0914544,38.2024606 73.6175366,33.651965 68.1102055,32.3760676 C68.1102055,32.3760676 67.4345706,34.0955889 65.1037953,35.6151102 C65.1037953,35.6151102 67.7722506,36.4540846 69.5075162,37.3416059 C64.2356815,39.4770588 42.7825569,47.6156569 22.7182907,47.1741527 C22.7182907,47.1741527 58.7034057,46.1591783 71.3127367,21.4228371 C71.3127367,21.4228371 74.9960186,30.9524779 81.3964082,33.383794 C81.3964082,33.383794 73.0698546,22.4514182 69.5673008,11.308786 C69.5673008,11.308786 80.4522236,17.1925466 86.2478953,20.0053328 C86.2478953,20.0053328 85.2762235,23.0480678 84.692121,24.8691276 L87.2175055,30.0272129 C87.2175055,30.0272129 88.3692183,31.9644436 90.1414542,34.1196573 C90.3771567,33.8947684 90.6279772,33.6730932 90.8815464,33.450871 C104.310408,21.8843755 120.039259,28.2865634 120.039259,28.2865634 C112.054233,26.7718968 97.2578847,39.7457084 90.3771567,38.2139478 C90.7544182,44.3322382 98.3848591,50.2139475 114.772715,34.4075889 Z" id="path40" fill="#FCD006"></path>
                        <path d="M126.458889,43.6033493 C125.55731,41.8824605 123.090335,42.9778451 123.090335,42.9778451 C124.512797,40.1621187 130.423228,38.6754862 130.423228,38.6754862 C128.029094,40.6316571 126.458889,43.6033493 126.458889,43.6033493" id="path42" fill="#1E59AE"></path>
                        <path d="M129.970376,45.5576741 C129.970376,45.5576741 129.147135,45.1650587 126.754376,46.102563 C126.754376,46.102563 136.935627,31.0769223 159.101288,23.7969909 C159.101288,23.7969909 141.654489,29.6677599 129.970376,45.5576741" id="path44" fill="#FEEB96"></path>
                        <path d="M82.5728595,2.02938115 L81.8877415,2.02938115 L81.8877415,4.69204091 L81.8685005,4.69204091 L80.9593621,2.02938115 L80.5498031,2.02938115 L79.6358544,4.69204091 L79.6207365,4.69204091 L79.6207365,2.02938115 L78.9328698,2.02938115 L78.9328698,5.32585286 L80.0426647,5.32585286 L80.7525211,3.37500163 L81.464439,5.32585286 L82.5728595,5.32585286 L82.5728595,2.02938115 Z M78.5480493,4.69204091 L77.5873724,4.69204091 L77.5873724,2.02938115 L76.8301006,2.02938115 L76.8301006,4.69204091 L75.8673622,4.69204091 L75.8673622,5.32585286 L78.5480493,5.32585286 L78.5480493,4.69204091 Z" id="path46" fill="#1E59AE"></path>
                    </g>
                </g>
            </g>
        </g>
    </g>
</svg>