<svg width="200" height="200" xmlns="http://www.w3.org/2000/svg"><g fill="none"><path d="M150.204 99.04c10.415 11.614 18.611 28.036 12.575 43.887-1.22 3.083-3.736 5.883-6.394 8.104 7.04 13.629 11.999 29.048 9.699 45.758l-38.8-30.77c-2.375-1.076-4.885-2.218-7.617-1.72l8.978 7.526 29.101 23.6v.36c-17.672 2.723-34.346-2.012-49.794-7.248-2.083 1.367-4.239 2.298-6.755 2.584-10.85.287-26.224.142-38.086.142-5.312-.714-11.2-2.581-13.433-8.248l-16.31-27.717c-1.945-4.16-2.659-9.575-2.513-14.527l.137-62.027h13.872l-.718-6.46V32.27l11.25 11.15.02-25.386 12.909 12.912.014-23.607 81.865 91.701" fill="#231F20"/><path d="M70.015 11.401v22.466L57.318 22.533 57.3 48.04 45.836 36.537 45.823 68.7s-.333 8.32 1.439 11.475H32.644v64.187c0 4.838 2.017 9.752 2.017 9.752L49.32 178.71c1.723 2.366 2.947 5.456 5.822 6.889 3.231 1.724 7.543 1.29 10.703-.143l24.647-23.745c3.88-2.79 9.199-4.013 13.794-2.935-3.662-3.733-8.983-5.948-11.349-10.685.071-2.3-.11-5.523-.11-5.523.181-1.435 1.256-1.798 2.55-1.724l17.571-.074c1.613.074 2.517-1.25 2.696-2.687 0-1.433-.18-4.298-.18-4.298l-9.955-7.356-.107 5.024c.349 1.184 1.9 2.076 2.514 2.149h5.21v4.667s-8.982.354-13.152-.865c-8.191-3.657-7.037-12.98-7.037-21.014l-14.66-11.295v-6.108s41.316 32.466 42.752 33.612c1.437 1.148 3.31 1.003 3.31 1.003h34.777s2.263 0 3.412-3.585c1.146-3.588-4.347-18.573-10.1-25.814L70.015 11.4" fill="#FFF"/><path d="M151.925 152.968c-10.776 4.844-20.044-3.658-31.971.538-2.514.894-6.111 2.15-6.111 2.15l.145 3.617c4.958.29 10.638-.21 14.802 2.44l28.458 22.669 5.168 3.801c-.213-13.27-3.518-24.817-10.491-35.215m-31.041 19.078c-1.722 5.084-7.327 9.754-12.064 11.474 11.854 4.444 24.355 8.32 37.577 8.606l-25.513-20.08" fill="#FFF"/><path d="M152.932 109.73c3.237 4.299 5.535 8.957 6.253 14.264l-4.312-4.3-75.755-83.5.024 13.432 26.006 26.675-25.863-20.793.07 11.762 24.432 25.022-24.645-19.934c0 5.425 1.291 7.312 3.086 10.472l-5.39-.027s-4.236-3.223-4.236-10.634l.046-51.997 80.284 89.558M67.427 38.294l-.051 34.954c0 7.164 4.21 9.582 4.21 9.582l-7.069-.027s-3.606-1.67-3.606-13.861l-.025-37.394 6.54 6.746" fill="#231F20"/><path d="M54.64 50.128l-.147 24.095c-.141 8.247 15.434 18.704 15.434 18.704l.088 5.357-15.724-12.909-.011 10.366 15.015 12.582L54.493 99.9v7.746c4.961 4.367 10.49 8.243 15.162 12.548-4.96-3.08-10.131-5.6-15.162-8.395l-.017 6.385s10.22 8.245 15.179 12.547l-1.004-.211c-4.674-2.94-9.34-5.736-14.158-8.25-.78 10.792 16.24 19.406 16.24 19.406-6.466 5.376-13.221-1.402-18.179-5.28-3.166-3.656-4.456-8.1-4.813-12.903v-40.69h4.309c-1.721-1.45-3.173-6.284-3.67-11.966l.06-27.042 6.2 6.332" fill="#231F20"/><path d="M40.34 82.83l4.986 4.026.028 3.46-4.546-2.74v6.942l4.514 2.772.024 3.68-4.538-2.6v6.888l4.602 2.852-.008 3.619-4.594-2.777v6.182l4.538 3.271v3.828l-4.538-2.794v7.086l4.735 3.417c-.047 2.32 2.697 5.096 2.697 5.096l-7.432-4.306v6.1l23.17 17.784s-15.665-8.67-22.923-12.91c-.217 4.304 2.446 8.179 5.823 10.831l16.597 12.764s-1.438.94-2.082 1.364c-9.126.502-14.73-7.601-21.773-12.19-3.017-2.656-3.557-6.852-4.634-10.293l.033-61.379 5.322.027" fill="#231F20"/><path d="M159.185 123.994l-4.312-4.3-75.755-83.5.024 13.432 26.006 26.675-25.863-20.793.07 11.762 24.432 25.022-24.645-19.934c0 5.425 1.291 7.312 3.086 10.472h-7.722c-2.163-1.076-4.385-6.06-4.385-9.828v-32.02l-2.694-2.688-.051 34.954c0 7.164 4.21 9.582 4.21 9.582l-9.836-.143c-1.976-1.254-4.128-5.47-4.128-9.417V53.106l-2.983-2.978-.146 24.095c-.141 8.247 15.434 18.704 15.434 18.704l.088 8.585L54.291 88.51l-.011 7.23 15.015 12.583L54.493 99.9v7.746c4.961 4.367 10.49 8.243 15.162 12.548-4.96-3.08-10.131-5.6-15.162-8.395l-.017 6.385s10.22 8.245 15.179 12.547l-1.004-.211c-4.674-2.94-9.34-5.736-14.158-8.25-.78 10.792 16.24 19.406 16.24 19.406s-5.391 3.76-9.7 2.685c-4.311-1.077-11.5-7.53-12.793-9.324l-7.432-4.306v6.1l23.17 17.784s-15.665-8.67-22.923-12.91c-.217 4.304 2.446 8.179 5.823 10.831L63.475 165.3c-2.59 2.658-7.834 3.086-9.991 2.005-2.155-1.066-10.416-5.73-10.416-5.73s7.544 12.9 10.06 16.491c2.513 3.592 8.622 4.306 13.29-2.15 4.674-6.452 10.42-11.118 12.936-13.626 2.517-2.51 11.5-4.302 11.5-4.302s-6.83-5.381-7.55-7.17v-6.814c.72-2.51 9.704-7.173 9.704-7.173s-5.032-4.304-5.032-9.681v-11.117l-9.699-7.888v-9.158l39.468 31.08s30.976-.05 34.81-.05c3.833 0 7.04-1.55 6.63-6.024M40.34 82.83l5.062 4.131v-4.13zm.468 4.746v6.942l4.594 2.91V90.43l-4.594-2.854" fill="#C31B31"/><path fill="#C31B31" d="M40.808 105.258l4.594 2.852v-7.006l-4.594-2.734v6.888m0 3.694v6.182l4.594 3.34v-6.745l-4.594-2.777m0 17.573l4.594 3.317v-7.529l-4.594-2.874v7.086"/><path d="M166.03 196.789l-38.797-30.77c-2.375-1.076-4.885-2.218-7.62-1.72l8.982 7.526 29.102 23.6v.36c-17.673 2.723-34.347-2.012-49.796-7.248-2.082 1.367-4.238 2.298-6.754 2.584-10.85.287-26.225.142-38.087.142-5.313-.714-11.2-2.581-13.434-8.248l-16.308-27.717c-1.945-4.16-2.66-9.575-2.515-14.527l.137-62.027h13.873l-.72-6.46V32.27l11.251 11.15.022-25.386 12.908 12.912.013-23.607 81.867 91.701c10.415 11.614 18.608 28.036 12.571 43.887-1.216 3.083-3.733 5.883-6.393 8.104 7.043 13.629 12.002 29.048 9.699 45.758zm-6.943-45.449c5.912-5.23 7.856-10.97 7.856-21.498 0-14.561-12.212-28.904-12.212-28.904L66.183 1.556V25.5L53.018 12.707l.124 25.425-11.214-11.221v14.635s-.079 27.073-.079 30.148c0 3.072.425 4.866.425 4.866H28.58v64.394c0 11.619 3.08 16.054 3.08 16.054l18.226 30.313c3.854 5.711 13.011 5.983 13.011 5.983h36.367c5.732 0 8.984-2.386 8.984-2.386 34.727 12.894 54.384 5.87 54.384 5.87l5.085 4.118c4.593-22.41-5.306-43.364-8.629-49.566z" fill="#FFF"/></g></svg>