<svg width="200" height="200" xmlns="http://www.w3.org/2000/svg"><g fill-rule="nonzero" fill="none"><path d="M149.775 97.777c10.342 11.498 18.481 27.758 12.487 43.452-1.21 3.053-3.71 5.825-6.349 8.024 6.992 13.494 11.915 28.76 9.63 45.305l-38.528-30.466c-2.358-1.065-4.85-2.196-7.564-1.702l8.916 7.451 28.898 23.366v.357c-17.55 2.696-34.107-1.992-49.447-7.176-2.068 1.353-4.209 2.275-6.707 2.558-10.773.284-26.04.14-37.82.14-5.274-.706-11.122-2.555-13.34-8.166l-16.195-27.443c-1.931-4.119-2.64-9.48-2.496-14.382l.137-61.413h13.775l-.714-6.396V31.668l11.173 11.04.02-25.135 12.817 12.784.015-23.374 81.292 90.794" fill="#231F20"/><path d="M70.147 11.006v22.243L57.54 22.027l-.019 25.256-11.383-11.39-.013 31.844s-.33 8.237 1.429 11.361H33.038v63.552c0 4.79 2.002 9.655 2.002 9.655l14.556 24.354c1.712 2.343 2.927 5.401 5.782 6.82 3.209 1.708 7.49 1.277 10.628-.141l24.474-23.51c3.854-2.762 9.135-3.973 13.698-2.906-3.636-3.696-8.92-5.89-11.27-10.58.071-2.276-.108-5.467-.108-5.467.18-1.421 1.247-1.78 2.531-1.708l17.45-.072c1.6.072 2.498-1.238 2.676-2.661 0-1.419-.178-4.255-.178-4.255l-9.886-7.284-.106 4.975c.346 1.172 1.886 2.055 2.496 2.127h5.173v4.622s-8.918.35-13.06-.858c-8.133-3.62-6.987-12.851-6.987-20.805L78.35 103.773v-6.048s41.028 32.145 42.453 33.28c1.428 1.136 3.287.992 3.287.992h34.534s2.247 0 3.388-3.55c1.138-3.552-4.317-18.388-10.03-25.558L70.148 11.006" fill="#FFF"/><path d="M151.484 151.17c-10.7 4.796-19.903-3.621-31.748.533-2.496.886-6.068 2.129-6.068 2.129l.145 3.581c4.923.287 10.563-.207 14.698 2.415l28.259 22.445 5.132 3.764c-.212-13.138-3.494-24.571-10.418-34.866M120.66 170.06c-1.71 5.033-7.276 9.658-11.98 11.36 11.772 4.4 24.185 8.237 37.315 8.521l-25.335-19.88" fill="#FFF"/><path d="M152.484 108.36c3.215 4.257 5.496 8.869 6.21 14.124l-4.282-4.259-75.226-82.671.024 13.298 25.825 26.411-25.683-20.587.069 11.645 24.262 24.774L79.21 71.359c0 5.37 1.282 7.24 3.065 10.369l-5.352-.027s-4.207-3.191-4.207-10.53l.046-51.481 79.722 88.67M67.577 37.632l-.05 34.608c0 7.093 4.18 9.488 4.18 9.488l-7.02-.027s-3.58-1.654-3.58-13.725l-.025-37.023 6.495 6.679" fill="#231F20"/><path d="m54.879 49.35-.146 23.856c-.14 8.165 15.327 18.518 15.327 18.518l.087 5.304-15.614-12.781-.011 10.263 14.91 12.458-14.699-8.338v7.669c4.927 4.324 10.418 8.161 15.056 12.423-4.924-3.049-10.06-5.543-15.056-8.312l-.016 6.322s10.148 8.163 15.072 12.423l-.997-.209c-4.64-2.91-9.274-5.68-14.059-8.168-.774 10.685 16.126 19.214 16.126 19.214-6.42 5.323-13.128-1.388-18.05-5.229-3.145-3.62-4.426-8.02-4.78-12.774V81.701h4.278c-1.709-1.435-3.15-6.222-3.644-11.847l.06-26.774 6.156 6.27" fill="#231F20"/><path d="m40.68 81.728 4.95 3.986.028 3.425-4.513-2.713V93.3l4.482 2.744.023 3.643-4.505-2.573v6.819l4.569 2.824-.007 3.583-4.562-2.749v6.12l4.505 3.24v3.79l-4.505-2.767v7.015l4.701 3.384c-.047 2.297 2.678 5.045 2.678 5.045l-7.38-4.263v6.039l23.008 17.609s-15.555-8.585-22.762-12.782c-.216 4.261 2.428 8.097 5.782 10.723l16.481 12.638s-1.429.93-2.068 1.35c-9.062.498-14.627-7.526-21.62-12.07-2.996-2.629-3.533-6.783-4.602-10.19l.032-60.771 5.285.027" fill="#231F20"/><path d="m158.693 122.484-4.281-4.259-75.226-82.671.024 13.298 25.825 26.411-25.683-20.587.069 11.645 24.262 24.774L79.21 71.359c0 5.37 1.282 7.24 3.065 10.369h-7.668c-2.148-1.066-4.354-6-4.354-9.732V40.294l-2.676-2.662-.05 34.608c0 7.093 4.18 9.488 4.18 9.488l-9.767-.142c-1.962-1.242-4.1-5.415-4.1-9.324V52.298l-2.961-2.949-.146 23.857c-.14 8.165 15.327 18.518 15.327 18.518l.087 8.5L54.533 87.35l-.011 7.16 14.91 12.457-14.699-8.338v7.669c4.927 4.324 10.418 8.161 15.056 12.423-4.924-3.049-10.06-5.543-15.056-8.312l-.016 6.322s10.148 8.163 15.072 12.423l-.997-.209c-4.64-2.91-9.274-5.68-14.059-8.168-.774 10.685 16.126 19.214 16.126 19.214s-5.353 3.723-9.632 2.658c-4.28-1.066-11.418-7.456-12.703-9.232l-7.38-4.263v6.039l23.008 17.609s-15.555-8.585-22.762-12.782c-.216 4.261 2.428 8.097 5.782 10.723l16.481 12.638c-2.571 2.631-7.78 3.055-9.922 1.985-2.14-1.055-10.342-5.673-10.342-5.673s7.49 12.772 9.99 16.328c2.494 3.555 8.561 4.263 13.196-2.129 4.642-6.388 10.348-11.009 12.846-13.492 2.499-2.485 11.42-4.26 11.42-4.26s-6.783-5.327-7.498-7.099v-6.746c.715-2.484 9.636-7.102 9.636-7.102s-4.997-4.26-4.997-9.585v-11.006l-9.63-7.81v-9.068l39.191 30.773s30.76-.05 34.566-.05c3.807 0 6.991-1.535 6.584-5.964M40.68 81.728l5.027 4.09v-4.09zM41.145 86.426V93.3l4.562 2.882v-6.93l-4.562-2.826" fill="#C31B31"/><path fill="#C31B31" d="m41.145 103.933 4.562 2.824V99.82l-4.562-2.706v6.819M41.145 107.591v6.12l4.562 3.307v-6.678l-4.562-2.749M41.145 124.99l4.562 3.284v-7.455l-4.562-2.845v7.015"/><path d="m165.491 194.558-38.526-30.466c-2.358-1.065-4.85-2.196-7.566-1.702l8.918 7.451 28.898 23.366v.357c-17.548 2.696-34.106-1.992-49.447-7.176-2.067 1.353-4.208 2.275-6.706 2.558-10.775.284-26.042.14-37.822.14-5.275-.706-11.122-2.555-13.34-8.166l-16.194-27.443c-1.93-4.119-2.64-9.48-2.497-14.382l.136-61.413H45.12l-.714-6.396V31.668l11.172 11.04.021-25.135 12.818 12.784.013-23.374 81.295 90.794c10.342 11.498 18.477 27.758 12.483 43.452-1.208 3.053-3.707 5.825-6.349 8.024 6.994 13.494 11.919 28.76 9.631 45.305Zm-6.895-44.999c5.871-5.178 7.8-10.862 7.8-21.285 0-14.417-12.125-28.618-12.125-28.618L66.34 1.258v23.707L53.27 12.298l.123 25.174-11.135-11.11v14.49s-.079 26.805-.079 29.85c0 3.04.422 4.817.422 4.817H29.001v63.757c0 11.503 3.058 15.895 3.058 15.895l18.1 30.012c3.826 5.655 12.92 5.924 12.92 5.924H99.19c5.692 0 8.921-2.362 8.921-2.362 34.485 12.766 54.004 5.813 54.004 5.813l5.05 4.076c4.56-22.188-5.27-42.934-8.569-49.075Z" fill="#FFF"/></g></svg>