<?xml version="1.0" encoding="UTF-8"?>
<svg width="200px" height="200px" viewBox="0 0 200 200" version="1.1" xmlns="http://www.w3.org/2000/svg" xmlns:xlink="http://www.w3.org/1999/xlink">
    <!-- Generator: Sketch 51.3 (57544) - http://www.bohemiancoding.com/sketch -->
    <title>ball-st</title>
    <desc>Created with Sketch.</desc>
    <defs></defs>
    <g id="ball-st" stroke="none" stroke-width="1" fill="none" fill-rule="evenodd">
        <g id="ball-st_BGL" transform="translate(28.000000, 0.000000)">
            <g id="ball-st" transform="translate(0.578233, 0.285544)">
                <g transform="translate(0.000000, 0.428912)" fill-rule="nonzero" id="g10">
                    <g transform="translate(71.067562, 100.394276) scale(-1, 1) rotate(-180.000000) translate(-71.067562, -100.394276) translate(0.000000, 0.597274)">
                        <g id="g12">
                            <path d="M121.625327,101.865521 C132.040808,90.2521742 140.236863,73.8295192 134.200354,57.9787312 C132.981016,54.8953063 130.464922,52.0958492 127.806995,49.8749123 C134.847523,36.2459685 139.805619,20.826485 137.505449,4.11686824 L98.705585,34.8875196 C96.3310212,35.9626055 93.820673,37.1048275 91.0883521,36.6064473 L100.066453,29.0803018 L129.167864,5.48127469 L129.167864,5.12097728 C111.495629,2.39805843 94.8213648,7.13273362 79.3733938,12.368296 C77.2906606,11.0015307 75.134743,10.0706666 72.6186489,9.78479356 C61.7695052,9.4977411 46.3947187,9.64302134 34.533089,9.64302134 C29.2208644,10.3565397 23.3320248,12.2241952 21.0993542,17.8909411 L4.78901616,45.6081369 C2.84459256,49.7684621 2.13108331,55.1826007 2.2763817,60.1346488 L2.41341508,122.161509 L16.28554,122.161509 L15.567304,128.621097 L15.567304,168.635461 L26.8180853,157.485112 L26.8381656,182.871352 L39.7464239,169.959737 L39.7606374,193.566869 L121.625327,101.865521" id="path14" fill="#231F20"></path>
                            <path d="M41.4369246,189.504526 L41.4369246,167.038406 L28.7400848,178.372926 L28.7211838,152.864813 L17.2577442,164.368685 L17.2447404,132.206229 C17.2447404,132.206229 16.9116301,123.886183 18.6836014,120.731086 L4.06606249,120.731086 L4.06606249,56.5434689 C4.06606249,51.706036 6.08256675,46.7917898 6.08256675,46.7917898 L20.7414156,22.1944297 C22.4649703,19.8282731 23.688784,16.7391627 26.5640868,15.306229 C29.7949693,13.5815251 34.1066837,14.0162469 37.2666196,15.4491504 L61.9134548,39.193609 C65.7943485,41.9836912 71.112319,43.2063557 75.7078197,42.1291529 C72.0455722,45.8618632 66.7251823,48.0770542 64.3587837,52.8140852 C64.4298513,55.1139524 64.249007,58.3364883 64.249007,58.3364883 C64.4298513,59.7717507 65.5046348,60.1346488 66.7983668,60.061162 L84.3701994,60.1346488 C85.982677,60.061162 86.8865959,61.3842283 87.0659281,62.8219099 C87.0659281,64.2550553 86.8865959,67.1195317 86.8865959,67.1195317 L76.9304842,74.4757804 L76.824034,69.451455 C77.1727187,68.267802 78.7235036,67.3759797 79.3380112,67.3027953 L84.5474147,67.3027953 L84.5474147,62.6353198 C84.5474147,62.6353198 75.565987,62.2820989 71.3959844,63.5011344 C63.2047675,67.1573336 64.3587837,76.4813977 64.3587837,84.5144514 L49.6989067,95.8099599 L49.6989067,101.917536 C49.6989067,101.917536 91.0151676,69.451455 92.45043,68.3056039 C93.8881116,67.1573336 95.7603638,67.3027953 95.7603638,67.3027953 L130.538107,67.3027953 C130.538107,67.3027953 132.800474,67.3027953 133.949955,70.8879269 C135.095806,74.4757804 129.602737,89.4604513 123.849591,96.7020846 L41.4369246,189.504526" id="path16" fill="#FFFFFF"></path>
                            <path d="M123.346372,47.9376408 C112.570413,43.0941597 103.303203,51.5959569 91.3753441,47.3999466 C88.8616693,46.505705 85.264441,45.2500773 85.264441,45.2500773 L85.4099027,41.6328896 C90.3676968,41.3434783 96.0476582,41.8418585 100.211613,39.193609 L128.669483,16.5241455 L133.837758,12.7226963 C133.624858,25.9923407 130.319763,37.5397005 123.346372,47.9376408" id="path18" fill="#FFFFFF"></path>
                            <path d="M92.3052707,28.8593876 C90.5839236,23.7762122 84.9786587,19.1053194 80.2416277,17.3853332 C92.0959994,12.9412518 104.596632,9.06655757 117.81913,8.7795051 L92.3052707,28.8593876" id="path20" fill="#FFFFFF"></path>
                            <path d="M124.354019,91.1757501 C127.590769,86.8769186 129.888519,82.2191204 130.606755,76.911432 L126.29492,81.2126828 L50.5399232,164.711019 L50.5635116,151.279553 L76.5700053,124.604419 L50.706554,145.39788 L50.7761094,133.635745 L75.2091371,108.614218 L50.5635116,128.54761 C50.5635116,123.12319 51.8548243,121.235514 53.6502631,118.075276 L48.2600154,118.102493 C48.2600154,118.102493 44.0237839,121.325331 44.0237839,128.73662 L44.0700534,180.733277 L124.354019,91.1757501" id="path22" fill="#231F20"></path>
                            <path d="M38.8485533,162.611956 L38.7977475,127.658207 C38.7977475,120.49369 43.0079713,118.075276 43.0079713,118.075276 L35.9390171,118.102493 C35.9390171,118.102493 32.3324139,119.773034 32.3324139,131.963994 L32.3076159,169.357326 L38.8485533,162.611956" id="path24" fill="#231F20"></path>
                            <path d="M26.060868,150.777543 L25.9143781,126.682313 C25.7738155,118.435755 41.3492242,107.978843 41.3492242,107.978843 L41.4369246,102.621559 L25.7123647,115.530755 L25.70175,105.16487 L40.7162693,92.5828878 L25.9143781,101.004243 L25.9143781,93.2584832 C30.8759825,88.891306 36.4056437,85.0152509 41.0764457,80.7106736 C36.117442,83.7901671 30.945538,86.3098902 25.9143781,89.1060207 L25.897836,82.7211296 C25.897836,82.7211296 36.117442,74.4757804 41.0764457,70.1733199 L40.0724274,70.3847081 C35.399206,73.323881 30.7329402,76.1212212 25.9143781,78.6339887 C25.1347215,67.8426063 42.1539509,59.228613 42.1539509,59.228613 C35.6886173,53.8522764 28.9338119,60.6306097 23.9758667,64.5090841 C20.8099429,68.1649809 19.5199608,72.609274 19.1632016,77.4113243 L19.1632016,118.102493 L23.4714382,118.102493 C21.7502726,119.551969 20.2984379,124.386075 19.8011162,130.068154 L19.8613573,157.109512 L26.060868,150.777543" id="path26" fill="#231F20"></path>
                            <path d="M11.7622863,118.075276 L16.7474187,114.049525 L16.7757852,110.589593 L12.2300923,113.33008 L12.2300923,106.387535 L16.7438804,103.616202 L16.767499,99.9364147 L12.2300923,102.535371 L12.2300923,95.6481678 L16.8313086,92.7954856 L16.8242019,89.1770883 L12.2300923,91.9532594 L12.2300923,85.7712888 L16.767499,82.5003665 L16.767499,78.6726979 L12.2300923,81.4667115 L12.2300923,74.3811244 L16.9647947,70.9635307 C16.9175272,68.6434017 19.6617028,65.867533 19.6617028,65.867533 L12.2300923,70.1733199 L12.2300923,64.0742111 L35.399206,46.2894782 C35.399206,46.2894782 19.7349477,54.9603255 12.476984,59.1989764 C12.2596382,54.8953063 14.922313,51.0207633 18.2996552,48.3685824 L34.8971969,35.6045459 C34.8971969,35.6045459 33.4583056,34.6655469 32.8144637,34.2403512 C23.688784,33.738342 18.0846682,41.8418585 11.0416914,46.4313109 C8.02464664,49.0868184 7.4847751,53.2828287 6.40742111,56.7240107 L6.44050533,118.102493 L11.7622863,118.075276" id="path28" fill="#231F20"></path>
                            <path d="M130.606755,76.911432 L126.29492,81.2126828 L50.5399232,164.711019 L50.5635116,151.279553 L76.5700053,124.604419 L50.706554,145.39788 L50.7761094,133.635745 L75.2091371,108.614218 L50.5635116,128.54761 C50.5635116,123.12319 51.8548243,121.235514 53.6502631,118.075276 L45.9280921,118.075276 C43.7652189,119.151571 41.5430723,124.135373 41.5430723,127.903768 L41.5430723,159.923183 L38.8485533,162.611956 L38.7977475,127.658207 C38.7977475,120.49369 43.0079713,118.075276 43.0079713,118.075276 L33.1722208,118.218318 C31.1959378,119.473039 29.0436794,123.687799 29.0436794,127.635828 L29.0436794,147.799359 L26.060868,150.777543 L25.9143781,126.682313 C25.7738155,118.435755 41.3492242,107.978843 41.3492242,107.978843 L41.4369246,99.3941843 L25.7123647,112.395617 L25.70175,105.16487 L40.7162693,92.5828878 L25.9143781,101.004243 L25.9143781,93.2584832 C30.8759825,88.891306 36.4056437,85.0152509 41.0764457,80.7106736 C36.117442,83.7901671 30.945538,86.3098902 25.9143781,89.1060207 L25.897836,82.7211296 C25.897836,82.7211296 36.117442,74.4757804 41.0764457,70.1733199 L40.0724274,70.3847081 C35.399206,73.323881 30.7329402,76.1212212 25.9143781,78.6339887 C25.1347215,67.8426063 42.1539509,59.228613 42.1539509,59.228613 C42.1539509,59.228613 36.7634008,55.468383 32.4539848,56.5434689 C28.1435104,57.6206717 20.9552534,64.0742111 19.6617028,65.867533 L12.2300923,70.1733199 L12.2300923,64.0742111 L35.399206,46.2894782 C35.399206,46.2894782 19.7349477,54.9603255 12.476984,59.1989764 C12.2596382,54.8953063 14.922313,51.0207633 18.2996552,48.3685824 L34.8971969,35.6045459 C32.3076159,32.9466191 27.0626182,32.5190041 24.9055513,33.5998359 C22.7508434,34.6655469 14.48995,39.3293934 14.48995,39.3293934 C14.48995,39.3293934 22.0337868,26.4294213 24.5499716,22.8382413 C27.0626182,19.2470614 33.1722208,18.5323939 37.8396963,24.9882316 C42.5141274,31.4405916 48.2600154,36.1068575 50.7761094,38.6147864 C53.292506,41.1248322 62.276353,42.9169444 62.276353,42.9169444 C62.276353,42.9169444 55.4460043,48.2978172 54.725349,50.0875101 L54.725349,56.901226 C55.4460043,59.4103646 64.4298513,64.0742111 64.4298513,64.0742111 C64.4298513,64.0742111 59.3973607,68.3775787 59.3973607,73.755125 L59.3973607,84.8713013 L49.6989067,92.7598007 L49.6989067,101.917536 L89.1665038,70.8371212 C89.1665038,70.8371212 120.142586,70.8879269 123.976,70.8879269 C127.809415,70.8879269 131.016527,72.4378046 130.606755,76.911432" id="path30" fill="#C31B31"></path>
                            <polygon id="path32" fill="#C31B31" points="11.7622863 118.075276 16.8242019 113.944285 16.8242019 118.075276"></polygon>
                            <polyline id="path34" fill="#C31B31" points="12.2300923 113.33008 12.2300923 106.387535 16.8242019 103.476789 16.8242019 110.476188 12.2300923 113.33008"></polyline>
                            <polyline id="path36" fill="#C31B31" points="12.2300923 95.6481678 16.8242019 92.7954856 16.8242019 99.80184 12.2300923 102.535371 12.2300923 95.6481678"></polyline>
                            <polyline id="path38" fill="#C31B31" points="12.2300923 91.9532594 12.2300923 85.7712888 16.8242019 82.4317183 16.8242019 89.1770883 12.2300923 91.9532594"></polyline>
                            <polyline id="path40" fill="#C31B31" points="12.2300923 74.3811244 16.8242019 71.0639326 16.8242019 78.5925579 12.2300923 81.4667115 12.2300923 74.3811244"></polyline>
                            <path d="M137.452527,4.11686824 L98.6547793,34.8875196 C96.2802155,35.9626055 93.7698673,37.1048275 91.035127,36.6064473 L100.016857,29.0803018 L129.118268,5.48127469 L129.118268,5.12097728 C111.446033,2.39805843 94.7717687,7.13273362 79.3225881,12.368296 C77.2410645,11.0015307 75.0851469,10.0706666 72.5690528,9.78479356 C61.7186994,9.4977411 46.3439129,9.64302134 34.481376,9.64302134 C29.1688792,10.3565397 23.2812493,12.2241952 21.0473993,17.8909411 L4.73942008,45.6081369 C2.79497833,49.7684621 2.08028664,55.1826007 2.2244056,60.1346488 L2.36143596,122.161509 L16.2347342,122.161509 L15.5153188,128.621097 L15.5153188,168.635461 L26.7661001,157.485112 L26.7873599,182.871352 L39.6956181,169.959737 L39.708622,193.566869 L121.575731,101.865521 C131.991212,90.2521742 140.183638,73.8295192 134.147129,57.9787312 C132.930513,54.8953063 130.414117,52.0958492 127.75377,49.8749123 C134.796717,36.2459685 139.756023,20.826485 137.452527,4.11686824 Z M130.508772,49.5652392 C136.420989,54.7949044 138.364309,60.5362562 138.364309,71.0639326 C138.364309,85.6249199 126.153087,99.9672611 126.153087,99.9672611 L37.6047198,199.349349 L37.6047198,175.405629 L24.4401042,188.199 L24.5641549,162.773748 L13.3499658,173.995165 L13.3499658,159.359783 C13.3499658,159.359783 13.2708238,132.286671 13.2708238,129.211714 C13.2708238,126.140083 13.6961102,124.345854 13.6961102,124.345854 L0.0011813092,124.345854 C0.0011813092,124.345854 0.0011813092,71.5695707 0.0011813092,59.9513853 C0.0011813092,48.3331998 3.0808544,43.8973743 3.0808544,43.8973743 L21.3072646,13.5850634 C25.160699,7.87343906 34.3180719,7.60171904 34.3180719,7.60171904 L70.684704,7.60171904 C76.4166808,7.60171904 79.668551,9.98795607 79.668551,9.98795607 C114.395488,-2.90602215 134.052473,4.11686824 134.052473,4.11686824 L139.138189,0 C143.730968,22.4094469 133.83171,43.3636116 130.508772,49.5652392 Z" id="path42" fill="#FFFFFF"></path>
                        </g>
                    </g>
                </g>
            </g>
        </g>
    </g>
</svg>