<svg width="200" height="200" xmlns="http://www.w3.org/2000/svg"><g fill="none"><path d="M51.561 107.6V74.556h50.99l6.708 6.754v19.537l-6.709 6.755h-8.857v-3.895h7.796V78.582h-43.38v25.124h7.609v3.895H51.56zm0-79.436h50.293l5.317 6.753V40.2l-5.317 6.754H51.56v-18.79zm133.92 50.418H142.1v25.124h7.795v63.241l-6.055 6.097H99.748l-6.055-6.097v-30.714h21.363l22.925-23.004V69.303l-8.586-8.643 6.496-8.642V24.23L114.366 1.033H13.793v27.882H23.96v79.437H13.793v27.88h51.922l-.004 42.722 21.266 21.409h69.635l21.266-21.41-.006-75.247h7.609V78.582z" fill="#FAB93D"/><path d="M89.217 107.078V99.2h7.795V83.087H62.585V99.2h7.607v7.878h19.025m91.788-23.991h-34.429V99.2h7.797v69.613l-8.678 8.737h-47.8l-8.678-8.737v-32.057H70.19l-.003 40.33 18.645 18.771h65.927l18.644-18.77-.007-77.887h7.609V83.087" fill="#1A3E2A"/><path d="M103.708 23.658H47.087V51.46h56.621l7.939-9.394v-9.015l-7.939-9.393zm.696 46.39H47.087v42.058h57.317l9.332-9.393v-23.27l-9.332-9.394zm-86.135 42.81h10.166v-88.45H18.269V5.54h94.235l18.91 20.55v24.06l-8.348 10.51 10.438 10.508v40.19l-20.298 20.368H18.27v-18.87z" fill="#1A3E2A"/></g></svg>