<?xml version="1.0" encoding="UTF-8"?>
<svg width="200px" height="200px" viewBox="0 0 200 200" version="1.1" xmlns="http://www.w3.org/2000/svg" xmlns:xlink="http://www.w3.org/1999/xlink">
    <!-- Generator: Sketch 51.3 (57544) - http://www.bohemiancoding.com/sketch -->
    <title>baylor</title>
    <desc>Created with Sketch.</desc>
    <defs></defs>
    <g id="baylor" stroke="none" stroke-width="1" fill="none" fill-rule="evenodd">
        <g id="baylor_BGL" transform="translate(13.793103, 0.865801)">
            <g id="baylor">
                <g id="g10" transform="translate(85.944550, 99.798769) scale(-1, 1) rotate(-180.000000) translate(-85.944550, -99.798769) translate(0.000000, 0.100490)" fill-rule="nonzero">
                    <g id="g12">
                        <path d="M37.7683601,92.7622709 L37.7683601,125.808064 L88.757099,125.808064 L95.4660969,119.054259 L95.4660969,99.5167455 L88.757099,92.7622709 L79.8995983,92.7622709 L79.8995983,96.6564209 L87.6956006,96.6564209 L87.6956006,121.78128 L44.3152278,121.78128 L44.3152278,96.6564209 L51.9247028,96.6564209 L51.9247028,92.7622709 L37.7683601,92.7622709 Z M37.7683601,172.198912 L88.0606709,172.198912 L93.377478,165.445554 L93.377478,160.16322 L88.0606709,153.408745 L37.7683601,153.408745 L37.7683601,172.198912 Z M171.68749,121.78128 L128.308005,121.78128 L128.308005,96.6564209 L136.102898,96.6564209 L136.102898,33.4155585 L130.047744,27.3186682 L85.9547522,27.3186682 L79.8995983,33.4155585 L79.8995983,64.1299969 L101.262641,64.1299969 L124.187546,87.1338397 L124.187546,131.059807 L115.601741,139.702632 L122.097818,148.345234 L122.097818,176.132808 L100.572423,199.329572 L0,199.329572 L0,171.447993 L10.1665859,171.447993 L10.1665859,92.0111286 L0,92.0111286 L0,64.1299969 L51.9215977,64.1299969 L51.9176054,21.4093402 L73.183503,0 L73.1914875,0 L142.813005,0 L142.818993,0 L164.084891,21.4093402 L164.078902,96.6564209 L171.68749,96.6564209 L171.68749,121.78128 Z" id="path14" fill="#FAB93D"></path>
                        <path d="M75.4242715,93.2849891 L75.4242715,101.162604 L83.2191649,101.162604 L83.2191649,117.275543 L48.7916635,117.275543 L48.7916635,101.162604 L56.3991424,101.162604 L56.3980334,93.2849891 C62.6905052,93.2849891 69.6155289,93.2849891 75.4242715,93.2849891" id="path16" fill="#1A3E2A"></path>
                        <polyline id="path18" fill="#1A3E2A" points="167.211942 117.275543 132.783331 117.275543 132.783331 101.162604 140.579555 101.162604 140.579555 31.5495371 131.902372 22.8129312 84.1012332 22.8129312 75.4242715 31.5495371 75.4242715 63.6072787 56.3960373 63.6072787 56.3929322 23.2762546 75.0379091 4.50571468 75.0450065 4.50571468 140.958599 4.50571468 140.965696 4.50571468 159.609786 23.2762546 159.603354 101.162604 167.211942 101.162604 167.211942 117.275543"></polyline>
                        <path d="M89.9150771,176.704872 L33.2939205,176.704872 L33.2939205,148.902785 L89.9150771,148.902785 L97.8539137,158.296752 L97.8539137,167.312022 L89.9150771,176.704872 Z M90.610618,130.314247 L33.2939205,130.314247 L33.2939205,88.2565339 L90.610618,88.2565339 L99.9427544,97.6493845 L99.9427544,120.920727 L90.610618,130.314247 Z M4.47543767,87.5053916 L14.6419349,87.5053916 L14.6419349,175.95373 L4.47543767,175.95373 L4.47543767,194.823835 L98.7106977,194.823835 L117.621382,174.274155 L117.621382,150.211702 L109.272673,139.702632 L119.71111,129.193786 L119.71111,89.0047734 L99.413336,68.6357339 L4.47543767,68.6357339 L4.47543767,87.5053916 Z" id="path20" fill="#1A3E2A"></path>
                    </g>
                </g>
            </g>
        </g>
    </g>
</svg>