<svg width="200" height="200" fill="none" xmlns="http://www.w3.org/2000/svg"><g clip-path="url(#a)"><mask id="b" style="mask-type:luminance" maskUnits="userSpaceOnUse" x="27" y="0" width="146" height="200"><path d="M172.502 0H27v200h145.502V0Z" fill="#fff"/></mask><g mask="url(#b)"><path d="m54.799 200 1.786-17.343c.314-3.079 1.281-12.44 3.524-22.055 1.17-4.936 2.457-9.185 3.914-12.896-2.468-.945-4.623-2.396-6.25-4.227a18.793 18.793 0 0 1-.666-.775l-5.661 2.749-3.024-7.96A64420.64 64420.64 0 0 1 31.92 94.121L27 81.109l13.671 2.595c1.468.28 3.876.6 6.75.89 1.534-3.413 3.684-8.24 5.96-13.352 2.589-5.8 5.002-11.225 6.321-14.199L52.7 55.828l8.845-9.752 1.44-1.594.38-.412c.4-.44.862-.956 1.335-1.479 0-.214.005-.5.038-.863l.088-.643c.605-3.782 3.068-7.366 6.487-9.493a20.894 20.894 0 0 1-.594-4.915c0-1.319.1-2.506.314-3.655.874-5.14 3.765-9.769 7.92-12.665 3.854-2.705 8.747-4.08 14.53-4.08 2.49 0 5.178.259 7.998.76 2.572.445 4.843 1.12 6.954 1.77l.324.093c2.144.637 3.996 1.187 6.311 1.583 2.336.407 4.623.616 6.794.616 7.058-.028 11.593-2.056 14.908-3.535l1.473-.66L153.977 0l-2.331 16.986a28.832 28.832 0 0 1-.687 3.485l5.079.89-6.068 10.225 2.627 1.215-6.437 7.85c.148.11.297.22.44.33 9.565 7.124 14.842 18.272 14.836 31.377v.44c0 13.077-2.649 23.698-8.113 32.471-1.82 2.952-3.524 5.283-4.893 7.157-.72.99-1.341 1.842-1.819 2.556-1.017 1.583-1.287 2.155-1.374 2.804.175.28.461.698.824 1.154.643.819 1.402 1.638 2.127 2.424.479.517.929 1.006 1.347 1.49l.33.385c2.853 3.309 10.428 12.093 15.953 24.396l6.673 14.847-15.749-4.095c-2.738-.687-4.546-1.149-12.924-1.176h-.242c-2.913.011-9.746.038-21.845 3.925-15.875 5.128-33.647 14.77-52.821 28.65l-14.122 10.225.01-.011Z" fill="#fff"/><path d="M162.095 153.775s-5.81-2.342-18.811-2.523c-20.784 0-47.802 11.632-78.184 33.631l-4.03 2.919.506-4.942c1.836-17.849 5.211-31.212 10.065-39.854-.297.017-.583.028-.863.028-7.619 0-10.527-4.277-12.06-7.949a183.572 183.572 0 0 1-2.595 1.27l-2.188 1.061-.863-2.271S38.24 96.193 36.575 91.785l-1.407-3.722 3.908.742c2.43.467 6.558.951 11.242 1.33 3.04-6.717 14.847-33.284 14.974-33.581l.846-1.902 1.957.72c.226.082.65.236 1.11.385.6-.841 1.287-1.726 2.068-2.639l-8.19-1.413 2.715-3.001s2.633-2.903 4.183-4.623a5.542 5.542 0 0 1-.258-1.627c0-.182 0-.396.022-.594l.027-.192c.45-2.534 1.924-4.54 4.381-5.97 1.067-.627 2.155-1.05 2.947-1.363.209-.088.412-.154.62-.22-.857-1.842-1.978-4.464-1.978-7.823 0-.95.077-1.83.225-2.677.67-3.81 2.617-6.948 5.63-9.064 4.27-2.996 10.455-3.804 18.37-2.403 2.265.396 4.283.995 6.317 1.622l.28.077c2.122.638 4.315 1.292 6.992 1.748 12.633 2.215 20.691-1.407 25.023-3.359l7.965-3.518-.973 7.124c-.44 3.21-1.462 6.091-3.012 8.515l4.018.71-2.968 4.99a18.69 18.69 0 0 1-2.556 3.41l2.121.983-4.26 5.2c-.478.605-1.022 1.303-1.687 2.001 11.516 5.85 18.09 16.502 18.09 30.559 0 16.073-4.15 24.665-7.278 29.733-1.671 2.716-3.221 4.843-4.59 6.718-2.737 3.749-4.381 6.002-4.381 9.4 0 1.852 3.1 5.205 4.601 6.816.451.484.836.901 1.116 1.231l.231.275c2.721 3.15 9.95 11.516 15.183 23.143l1.902 4.238-.006.011Z" fill="#7A303F"/><path d="M109.681 66.075c8.477 0 13.952 5.228 13.952 13.32 0 5.579-3.178 9.163-5.074 11.307l-.489.555c-.484.572-.907.995-1.276 1.358-.929.929-1.396 1.396-1.803 3.331l-.165 1a98.242 98.242 0 0 0-.593 3.859c30.398-7.866 34.323-19.916 34.323-29.574 0-17.233-13.605-27.941-35.5-27.941-26.66 0-36.825 14.012-40.189 18.69 2.018 1.863 10.203 7.794 21.439 8.311 1.88.094 3.66-.725 5.739-1.67 2.622-1.194 5.596-2.546 9.642-2.546" fill="#fff"/><path d="M63.754 130.396c1.358 4.365 2.732 6.316 6.9 6.316 2.957 0 5.64-.907 8.75-1.962.495-.165.995-.336 1.501-.506 3.551-1.182 23.885-10.406 27.552-12.484l.021-.896c.22-9.059.446-18.421 1.765-25.87.544-3.088 2.292-4.957 3.985-6.76l.22-.242c.187-.204.391-.407.594-.622 1.677-1.742 3.765-3.913 3.765-7.761 0-4.2-2.501-8.691-9.52-8.691-3.123 0-5.591 1.143-7.977 2.242-2.127.984-4.128 1.908-6.382 1.908-13.957 0-23.263-6.245-26.287-10.549-1.825 3.952-10.769 24.22-12.319 27.738 1.583-.005 4.03-.12 4.904-.154h.071c.682-1.352 3.766-7.514 3.766-7.514l.137-.286.302.094c.121.032 11.934 3.721 13.716 4.26 3.985-1.1 10.455-5.2 16.172-8.812a502.682 502.682 0 0 1 3.128-1.968c3.551-2.254 7.619-4.656 10.917-4.656 4.683 0 6.86 3.798 6.86 6.365 0 3.365-1.407 4.843-3.106 6.306-1.533 1.34-13.138 10.73-19.338 15.694-3.49 2.831-4.2 4.029-5.596 6.695-2.05 3.837-4.2 6.817-6.063 9.312-2.155 2.892-5.074 5.404-8.928 7.669-1.687 1.006-7.371 4.057-9.493 5.123" fill="#fff"/><path d="M45.53 96.44c2.337 6.136 10.396 27.36 12.045 31.697 1.951-1.012 7.432-3.87 12.248-6.503 4.095-2.232 7.514-4.667 14.22-15.804 2.551-4.222 3.25-5.239 7.663-8.752 3.562-2.814 8.862-6.926 12.924-10.065 2.935-2.276 5.222-4.046 5.728-4.463.879-.731 1.275-1.457 1.275-2.353 0-1.292-.956-2.606-2.787-2.606-1.599 0-3.078.962-4.266 1.737l-.577.374c-1.858 1.127-4.062 2.534-6.437 4.04-3.287 2.095-7.02 4.47-10.5 6.542-9.482 5.651-25.055 6.498-33.498 6.498-3.843 0-6.47-.193-8.043-.347M75.204 47.517c.407.071.748.126.748.126 2.776.484 4.975-.687 6.585-1.539l.297-.154c8.213-5.43 18.542-8.185 30.696-8.185 3.903 0 7.657.346 11.17 1.039.797.143 1.193.22 1.396.297 4.112.687 5.591-.401 7.212-2.342l-7.338-3.227 6.151-1.528c1.528-.38 2.919-1.198 4.156-2.457l-8.147-1.44-1.121-.198 5.948-2.925c2.495-1.215 4.315-3.204 5.431-5.926-5.514 2.243-13.996 4.723-25.908 2.634-3.062-.54-5.53-1.26-7.993-2.012l-.126-.039c-1.875-.56-3.639-1.094-5.47-1.412-6.14-1.083-10.895-.6-13.753 1.39-1.655 1.155-2.694 2.864-3.09 5.08a10.533 10.533 0 0 0-.126 1.583c0 2.21.846 3.99 1.594 5.563l.06.132c.65 1.412 1.265 2.748 1.265 4.216 0 .286-.028.594-.083.88-.412 2.264-2.44 2.28-3.688 2.303-1.248.016-2.617.126-4.035 1.687-2.072 2.265.016 4.42.016 4.42l-1.858 2.034h.011Z" fill="#fff"/></g><path d="M113.915 105.137c-.033.907-.077 2.007-.11 2.644 11.379-2.319 22.279-6.657 29.992-11.945.709-1.16 2.045-4.238 2.891-6.316-6.745 6.767-18.272 12.275-32.773 15.623v-.006ZM113.86 111.503a798.45 798.45 0 0 1-.049 2.787c7.668-1.583 18.64-5.211 22.642-6.811.753-1.319 2.045-2.98 3.183-4.453.192-.242.374-.478.544-.698-6.465 3.529-17.31 7.328-26.32 9.175ZM113.87 117.72c-.011.555-.011 1.385-.016 1.99v.022c8.047-2.029 15.809-2.919 19.063-2.656.193-1.308.622-3.237.94-4.485-4.353 1.402-14.034 3.952-19.987 5.134v-.005ZM107.471 128.923c.231 1.302.461 2.941.511 3.606 6.618-3.233 15.535-6.707 28.244-6.784-.671-.824-1.77-2.215-2.287-3.012-9.944-.649-20.691 3.392-26.463 6.195l-.005-.005ZM109.248 136.635l.66 4.744c9.559-4.287 19.058-7.025 33.856-6.745-1.22-1.588-2.688-3.441-3.457-4.271-8.147-1.72-20.411.957-31.059 6.272ZM111.298 145.816l.787 5.299s17.073-5.772 30.673-6.13a94 94 0 0 1 8.218.182c-.879-1.605-2.402-4.128-3.705-5.728-13.363-2.716-35.978 6.377-35.978 6.377h.005ZM81.955 140.153c-4.508 3.947-5.475 7.201-6.816 10.313 12.764-9.472 22.653-13.941 27.48-16.123l1.269-.5c-.088-1.375-.34-3.551-.34-3.551-2.991 1.44-16.233 7.668-21.588 9.861h-.005ZM72.313 158.547c-.352 1.341-.935 3.562-1.364 5.612 12.94-11.23 32.301-20.24 34.813-21.395 0 0-.385-3.831-.5-4.7-12.539 5.569-24.22 12.831-32.944 20.483h-.005ZM69.591 171.602l-.126.825c-.105.659-.23 1.473-.324 2.111 15.633-10.819 29.766-18.46 38.331-21.796 0 0-.407-3.975-.501-5.195-16.958 8.026-29.271 15.694-37.38 24.055Z" fill="#fff"/></g><defs><clipPath id="a"><path fill="#fff" transform="translate(27)" d="M0 0h145.502v200H0z"/></clipPath></defs></svg>