<?xml version="1.0" encoding="UTF-8"?>
<svg width="200px" height="200px" viewBox="0 0 200 200" version="1.1" xmlns="http://www.w3.org/2000/svg" xmlns:xlink="http://www.w3.org/1999/xlink">
    <!-- Generator: Sketch 51.3 (57544) - http://www.bohemiancoding.com/sketch -->
    <title>bethune-cookman</title>
    <desc>Created with Sketch.</desc>
    <defs></defs>
    <g id="bethune-cookman" stroke="none" stroke-width="1" fill="none" fill-rule="evenodd">
        <g id="bethune-cookman_BGL" transform="translate(0.000000, 12.935323)">
            <g id="Bethune-Cookman" transform="translate(15.000000, 0.000000)">
                <g id="g10" transform="translate(85.222220, 88.071116) scale(-1, 1) rotate(-180.000000) translate(-85.222220, -88.071116) translate(0.000000, 0.367415)" fill-rule="nonzero">
                    <g id="g12">
                        <path d="M102.709939,66.2972428 L102.709939,34.4995547 L66.7046832,34.4995547 L66.7046832,76.5457759 L102.709939,76.5457759 L102.709939,66.2972428 Z M124.522179,112.975405 L102.709939,112.975405 L102.709939,98.3917012 L66.7046832,98.3917012 L66.7046832,140.380441 L94.921939,140.380441 L94.921939,140.525034 L124.522179,140.525034 L124.522179,148.936293 L111.003551,162.069329 L44.8925625,162.069329 L44.8925625,143.832885 L44.8925625,110.324501 L44.8925625,12.8106663 L110.850866,12.8106663 L124.522179,26.5551401 L124.522179,30.2343104 L124.522179,66.2972428 L124.522179,79.2971832 L114.844629,89.2245311 L124.522179,98.8468123 L124.522179,112.975405 Z" id="path14" fill="#6E1D39"></path>
                        <path d="M102.709939,34.4995547 L66.7046832,34.4995547 L66.7046832,76.5471981 L102.709939,76.5471981 L102.709939,66.2972428 L102.709939,34.4995547 Z M66.7046832,140.380441 L102.709939,140.380441 L102.709939,98.3917012 L66.7046832,98.3917012 L66.7046832,110.323553 L66.7046832,140.380441 Z M124.522179,148.936293 L111.003551,162.069329 L44.8925625,162.069329 L44.8925625,12.8106663 L110.850866,12.8106663 L124.522179,26.5551401 L124.522179,30.2343104 L124.522179,66.2972428 L124.522179,79.2971832 L114.844629,89.2245311 L124.522179,98.8468123 L124.522179,148.936293 Z" id="path16" fill="#6E1D39"></path>
                        <polyline id="path18" fill="#FFFFFF" points="169.504016 89.7527681 169.504016 129.873775 149.095976 150.407107 137.406825 150.407107 137.406825 154.3277 116.254074 174.882366 32.0091083 174.882366 32.0091083 150.407107 21.1770661 150.407107 0 129.1117 0 45.1472581 21.1519166 24.592592 32.0091083 24.592592 32.0091083 0 116.229759 0 133.502098 17.2430218 148.730057 17.2430218 148.730057 24.592592 150.739633 24.592592 169.504016 44.0060433 169.504016 85.3573905 136.53434 85.3573905 132.919249 89.079583 133.597451 89.7527681 169.504016 89.7527681"></polyline>
                        <polyline id="path20" fill="#F3A00F" points="134.902603 81.5370646 127.529391 89.1254496 132.005047 93.5768865 165.660077 93.5768865 165.660077 128.304589 147.490461 146.5837 133.564077 146.5837 133.564077 152.720589 114.688726 171.061329 35.8530476 171.061329 35.8530476 146.5837 22.7815085 146.5837 3.8439393 127.542515 3.8439393 46.7569766 22.7182176 28.4133919 35.8530476 28.4133919 35.8530476 3.82222213 114.625793 3.82222213 133.564077 22.8648291 133.564077 28.4133919 149.100744 28.4133919 165.660077 45.5444137 165.660077 81.5370646 134.902603 81.5370646"></polyline>
                        <path d="M99.7617268,101.320412 L69.6542063,101.320412 L69.6542063,112.975405 L99.7617268,112.975405 L99.7617268,101.320412 Z M69.6542063,73.6175389 L99.7617268,73.6175389 L99.7617268,62.0240577 L69.6542063,62.0240577 L69.6542063,73.6175389 Z M37.643191,112.975405 L41.945304,112.975405 L41.945304,62.0240577 L37.643191,62.0240577 L37.643191,112.975405 Z M159.565794,99.5587531 L159.565794,125.815701 L144.948097,140.525034 L127.470987,140.525034 L127.470987,150.168885 L112.207032,165.001477 L41.945304,165.001477 L41.945304,140.525034 L25.3236337,140.525034 L9.93623147,125.052441 L9.93623147,49.3037025 L25.198363,34.4721769 L41.945304,34.4721769 L41.945304,9.87963235 L112.081403,9.87963235 L127.470987,25.3508734 L127.470987,34.4721769 L146.505936,34.4721769 L159.565794,47.9832877 L159.565794,75.452324 L131.859633,75.452324 L131.859633,62.0240577 L127.470987,62.0240577 L127.470987,80.4847387 L118.982377,89.1930052 L127.470987,97.6342494 L127.470987,112.975405 L131.859633,112.975405 L131.859633,99.5587531 L159.565794,99.5587531 Z" id="path22" fill="#FFFFFF"></path>
                        <polyline id="path24" fill="#6E1D39" points="143.716845 137.595256 69.652776 137.595256 69.652776 115.905538 134.807249 115.905538 134.807249 102.490309 156.618178 102.490309 156.618178 124.613923 143.716845 137.595256"></polyline>
                        <polyline id="path26" fill="#6E1D39" points="34.6960517 59.0935689 34.6960517 115.906012 41.945304 115.906012 41.945304 137.595256 26.5551246 137.595256 12.8844078 123.848293 12.8844078 50.5398506 26.4005327 37.4032583 99.7617268 37.4032583 99.7617268 59.0935689 34.6960517 59.0935689"></polyline>
                        <path d="M142.030279,24.6282661 L142.946865,22.0823698 L143.867027,24.6282661 L144.884926,24.6282661 L144.884926,21.0690365 L144.22937,21.0690365 L144.22937,23.9421624 L143.238885,21.0690365 L142.66438,21.0690365 L141.66436,23.9421624 L141.66436,21.0690365 L141.007613,21.0690365 L141.007613,24.6282661 L142.030279,24.6282661 Z M137.346037,24.0356735 L137.346037,24.6282661 L140.398542,24.6282661 L140.398542,24.0356735 L139.230461,24.0356735 L139.230461,21.0690365 L138.518885,21.0690365 L138.518885,24.0356735 L137.346037,24.0356735 Z" id="path28" fill="#6E1D39"></path>
                        <polyline id="path30" fill="#6E1D39" points="124.522179 140.525034 124.522179 148.936293 111.003551 162.069329 44.8920857 162.069329 44.8920857 62.0240577 66.7055175 62.0240577 66.7055175 76.5471981 102.709939 76.5471981 102.709939 34.4995547 72.7200608 34.4721769 44.8920857 34.4721769 44.8920857 12.8106663 110.850866 12.8106663 124.522179 26.5551401 124.522179 79.2971832 114.844629 89.2245311 124.522179 98.8468123 124.522179 112.975405 102.709939 112.975405 102.709939 98.3917012 66.7055175 98.3917012 66.7055175 140.380441 124.522179 140.525034"></polyline>
                        <polyline id="path32" fill="#6E1D39" points="134.807249 59.0935689 127.470987 59.0935689 127.470987 37.4032583 145.250845 37.4032583 156.618178 49.1652728 156.618178 72.520413 134.807249 72.520413 134.807249 59.0935689"></polyline>
                    </g>
                </g>
            </g>
        </g>
    </g>
</svg>