<svg width="200" height="200" xmlns="http://www.w3.org/2000/svg"><g fill="none"><path d="M117.71 122.413v31.798H81.705v-42.047h36.005v10.249zm21.812-46.678H117.71v14.583H81.705V48.33h28.217v-.145h29.6v-8.411L126.004 26.64H59.893v149.258h65.958l13.671-13.744v-52.742l-9.677-9.927 9.677-9.623V75.735z" fill="#6E1D39"/><path d="M117.71 154.21H81.705v-42.047h36.005v42.048zM81.705 48.33h36.005v41.988H81.705V48.33zm57.817-8.556L126.004 26.64H59.893v149.258h65.958l13.671-13.744v-52.742l-9.677-9.927 9.677-9.623v-50.09z" fill="#6E1D39"/><path fill="#FFF" d="M184.504 98.957v-40.12l-20.408-20.534h-11.69v-3.92l-21.152-20.555H47.01v24.475H36.177L15 59.598v83.965l21.152 20.555h10.857v24.592h84.22l17.273-17.243h15.228v-7.35h2.01l18.764-19.413v-41.351h-32.97l-3.615-3.722.678-.674h35.907"/><path fill="#F3A00F" d="M149.903 107.173l-7.374-7.588 4.476-4.452h33.655V60.406l-18.17-18.28h-13.926V35.99L129.69 17.649H50.853v24.477H37.782L18.844 61.168v80.785l18.874 18.344h13.135v24.59h78.773l18.938-19.042v-5.548h15.537l16.56-17.131v-35.993h-30.758"/><path d="M114.762 87.39H84.654V75.735h30.108V87.39zm-30.108 27.703h30.108v11.593H84.654v-11.593zm-32.01-39.358h4.301v50.951h-4.302V75.735zM174.565 89.15V62.894l-14.618-14.709H142.47v-9.644L127.207 23.71H56.945v24.476H40.324L24.936 63.658v75.748l15.262 14.832h16.747v24.593h70.136l15.39-15.472v-9.121h19.035l13.06-13.511v-27.47H146.86v13.43h-4.389v-18.462l-8.489-8.708 8.489-8.441V75.735h4.389V89.15h27.706z" fill="#FFF"/><path fill="#6E1D39" d="M158.717 51.115H84.653v21.69h65.154V86.22h21.811V64.096l-12.901-12.981M49.696 129.617V72.804h7.25v-21.69h-15.39L27.883 64.863v73.308L41.4 151.308h73.36v-21.69H49.697m107.333 34.464l.917 2.546.92-2.546h1.018v3.56h-.656v-2.874l-.99 2.873h-.575l-1-2.873v2.873h-.656v-3.56h1.022zm-4.684.592v-.592h3.053v.592h-1.169v2.967h-.711v-2.967h-1.173z"/><path fill="#6E1D39" d="M139.522 48.185v-8.411L126.004 26.64H59.892v100.045h21.814v-14.523h36.004v42.048l-29.99.027H59.892v21.661h65.959l13.671-13.744v-52.742l-9.677-9.927 9.677-9.623V75.735H117.71v14.583H81.706V48.33l57.816-.145m10.285 81.432h-7.336v21.69h17.78l11.367-11.762V116.19h-21.81v13.427"/></g></svg>