<svg width="200" height="200" xmlns="http://www.w3.org/2000/svg"><g fill-rule="nonzero" fill="none"><path d="M120.099 124.406v36.134H79.4v-47.78H120.1v11.646Zm24.656-53.043h-24.656v16.572H79.4V40.221h31.896v-.164h33.459v-9.559l-15.281-14.924h-74.73v169.613h74.557l15.454-15.62V109.635l-10.94-11.281 10.94-10.935V71.363Z" fill="#6E1D39"/><path d="M120.099 160.54H79.4V112.76H120.1v47.781ZM79.4 40.22H120.1v47.715H79.4V40.221Zm65.355-9.722-15.281-14.924h-74.73v169.613h74.557l15.454-15.62V109.635l-10.94-11.281 10.94-10.935v-56.92Z" fill="#6E1D39"/><path fill="#FFF" d="M195.6 97.752V52.16l-23.068-23.333h-13.213v-4.455l-23.91-23.358H40.182v27.813H27.938L4 53.027v95.413l23.91 23.358h12.272v27.946h95.2l19.523-19.594h17.213v-8.352h2.272l21.21-22.06v-46.99h-37.267l-4.087-4.23.767-.766H195.6"/><path fill="#F3A00F" d="m156.488 107.088-8.334-8.623 5.059-5.058h38.042V53.943l-20.538-20.771h-15.742v-6.974L133.64 5.356H44.527v27.816H29.75L8.345 54.809v91.802l21.335 20.845h14.847v27.945h89.041l21.407-21.64v-6.305h17.562l18.718-19.467v-40.9h-34.767"/><path d="M116.766 84.607H82.734V71.363h34.032v13.244Zm-34.032 31.48h34.032v13.175H82.734v-13.174ZM46.55 71.364h4.863v57.9H46.55v-57.9Zm137.816 15.246V56.772l-16.523-16.715h-19.755v-10.96l-17.254-16.855h-79.42v27.815h-18.79L15.232 57.639v86.078l17.252 16.854h18.93v27.946h79.28l17.395-17.58V160.57h21.516l14.762-15.353v-31.215H153.05v15.26h-4.961v-20.979l-9.595-9.896 9.595-9.592V71.363h4.96v15.246h31.318Z" fill="#FFF"/><path fill="#6E1D39" d="M166.451 43.386H82.733v24.647h73.647v15.245h24.655v-25.14L166.45 43.385M43.219 132.592v-64.56h8.194V43.387H34.017L18.564 59.007v83.305l15.278 14.928h82.924v-24.648H43.22M164.545 171.757l1.036 2.894 1.04-2.894h1.15v4.045h-.74v-3.265l-1.12 3.265h-.65l-1.13-3.265v3.265h-.742v-4.045h1.156Zm-5.295.674v-.674h3.45v.674h-1.32v3.371h-.804v-3.371h-1.326Z"/><path fill="#6E1D39" d="M144.755 40.057v-9.559l-15.281-14.924h-74.73v113.688h24.657V112.76H120.1v47.781l-33.9.031H54.745v24.616h74.557l15.454-15.62v-59.933l-10.94-11.281 10.94-10.935V71.363h-24.656v16.572H79.401V40.221l65.354-.164M156.38 132.592h-8.292v24.648h20.097l12.85-13.366v-26.54H156.38v15.258"/></g></svg>