<?xml version="1.0" encoding="UTF-8"?>
<svg width="200px" height="200px" viewBox="0 0 200 200" version="1.1" xmlns="http://www.w3.org/2000/svg" xmlns:xlink="http://www.w3.org/1999/xlink">
    <!-- Generator: Sketch 51.2 (57519) - http://www.bohemiancoding.com/sketch -->
    <title>binghamton</title>
    <desc>Created with Sketch.</desc>
    <defs></defs>
    <g id="binghamton" stroke="none" stroke-width="1" fill="none" fill-rule="evenodd">
        <g id="binghamton_BGL" transform="translate(0.000000, 25.870647)">
            <g id="binghamton">
                <g id="g10" transform="translate(99.955612, 74.810630) scale(-1, 1) rotate(-180.000000) translate(-99.955612, -74.810630) translate(0.000000, 0.119932)">
                    <g id="g12">
                        <path d="M199.644913,39.2985987 C199.658246,39.237905 199.658246,39.1764889 199.67158,39.11146 C199.698246,39.0045235 199.724913,38.90409 199.738246,38.7985987 L199.644913,39.2985987" id="path14" fill="#B4B3B3" fill-rule="nonzero"></path>
                        <path d="M13.1781266,78.4851545 C13.1979579,78.4811545 13.2165465,78.4631545 13.2363778,78.4571545 L13.1334573,78.5021545 C13.1491342,78.4961545 13.1628048,78.4961545 13.1781266,78.4851545 Z M197.853524,30.098852 C199.408783,32.8378048 200.014198,35.7866324 199.648464,38.8749649 C199.3715,42.1834012 197.567683,44.5359377 196.117172,46.4290427 C196.117172,46.4258681 195.826005,46.8075226 195.826005,46.8075226 L195.788721,46.8570812 C195.639587,47.0535521 195.494003,47.185297 195.398131,47.2733033 C193.965375,48.5789355 192.557474,49.4764584 190.970257,50.0979697 L190.908118,50.1228372 C190.897465,50.1270699 190.874385,50.13483 190.856631,50.142061 L196.985348,65.7763143 L198.490896,69.6182556 L194.341762,69.6182556 L183.41411,69.6182556 C186.725251,83.91178 182.267195,95.3303739 169.846423,104.433997 C169.561292,104.664683 169.274741,104.829761 169.015708,104.949689 C168.420768,106.498353 167.690719,107.973472 166.886458,109.398856 L171.55277,107.867476 C163.208873,122.922017 154.355256,128.84207 143.369548,133.338503 C143.322677,138.828226 142.173454,144.309659 140.291341,149.25547 C131.39902,150.212076 123.230712,144.906126 119.572301,141.471588 C114.666664,141.957828 102.684063,141.957828 94.4845072,140.861365 C89.4561895,144.55269 81.452994,147.766594 73.9611167,148.105039 C73.9611167,148.105039 71.7471797,144.045463 71.4290262,139.973189 C70.6961367,139.803349 69.9591638,139.623986 69.2188176,139.436509 C65.1021733,141.011099 59.9369714,141.574586 54.5665321,140.789584 C33.255392,137.676384 31.0482016,121.491695 31.0482016,121.491695 L33.3599637,122.640009 C32.920372,121.230674 31.9593423,117.52277 31.720017,115.978869 C29.1964484,114.415038 23.5612955,107.376123 22.9782506,103.51143 C19.9730133,101.203867 17.9092761,98.2603303 15.9099685,95.4053291 C13.6546468,92.1852518 8.41947604,85.3754355 4.06798037,87.536792 C3.68939183,80.8648933 9.69977783,79.1753139 11.7659118,78.6793748 C11.1759962,75.4090333 11.5901107,72.224229 12.8743006,69.6182556 L6.85377701,69.6182556 L9.65649332,53.6460864 L0,32.0907215 L12.4792008,32.0741432 L3.527936,11.7485381 C3.527936,11.7485381 -2.22322231,0.170922827 10.9734218,0.178844979 L172.324008,0.178844979 C173.634971,-0.0239747439 175.040919,-0.0927295151 176.473853,0.178844979 L176.596001,0.178844979 L176.598309,0.200684292 L176.634882,0.209158644 L176.674119,0.217080973 C180.614288,1.13383653 183.769192,3.36698962 185.695512,6.55817834 L185.736347,6.56995954 L185.823342,6.59482704 L186.165996,6.69396197 L186.474918,6.87418965 L186.55126,6.9188277 C190.916995,9.47399029 193.814465,13.9077782 194.293826,18.6643852 C196.836213,21.9005118 198.059471,25.8091192 197.848197,30.0440024 C197.849973,30.0611098 197.851748,30.0801573 197.853524,30.098852 Z" id="path16" fill="#B4B3B3" fill-rule="nonzero"></path>
                        <path d="M143.399197,133.687209 C143.603231,133.523209 143.763373,133.384543 143.899197,133.272543 C143.710585,133.429876 143.516042,133.592543 143.399197,133.687209" id="path18" fill="#B4B3B3" fill-rule="nonzero"></path>
                        <path d="M143.548865,133.644002 C143.99785,133.258669 144.403088,132.913336 143.548865,133.644002" id="path20" fill="#B4B3B3" fill-rule="nonzero"></path>
                        <path d="M196.827336,38.5837858 C196.3462,42.4169088 193.335104,46.6630794 189.929867,47.4755943 C189.177092,47.6554869 188.75632,47.7556623 188.557474,47.8034573 C187.999995,47.8810581 187.449618,47.8879363 186.909893,47.8454323 L194.341762,66.7994093 L179.714154,66.7994093 C185.640475,85.7999467 175.178868,97.0070786 166.614821,103.260992 C165.139454,107.489702 162.414732,111.267623 159.917617,115.017325 L164.742117,113.213285 C156.211803,125.432753 148.975407,128.181582 144.733241,129.818605 C143.264976,130.372921 141.793161,130.917537 140.314777,131.445398 C140.340698,131.532699 140.366264,131.619824 140.391119,131.707125 C141.023521,136.315726 139.299952,144.195374 138.047933,146.914045 C130.764666,146.8017 123.383397,141.556949 120.553215,138.446042 C114.666664,139.451677 100.633997,139.608289 93.7617376,137.740757 C89.8737661,140.813922 85.5034155,143.041416 80.7921862,144.281264 C79.1680406,144.829231 77.2392346,145.081609 75.3253421,145.054096 C74.6954265,142.831541 74.0914318,140.2007 73.7235667,137.546403 C72.1851735,137.25152 70.6222796,136.895262 69.0134026,136.472162 C55.1667984,142.121318 38.7570341,134.19264 35.8934745,126.041037 C37.0284944,126.830448 38.4758091,127.562893 39.9236563,127.675943 C36.7165548,124.010544 34.9857071,119.443565 34.3891691,114.566535 C30.9020853,112.237279 27.1257872,106.912988 25.3354632,101.738254 C17.30221,96.6416498 14.6201505,84.8438705 7.76811343,84.0613377 C9.51169084,82.3068559 12.0147356,80.8648933 15.5729246,81.214273 C14.1005056,77.8479888 14.3907498,69.3283111 19.4395024,66.7994093 L10.4877583,66.7994093 L12.6066575,53.9385001 L4.351833,34.9104497 L16.9976915,34.8817021 L9.15099844,16.6624629 L161.026006,16.6624629 C160.997244,16.5012474 160.96724,16.331778 160.935282,16.1452011 L160.893915,15.9123461 C160.174696,11.7674268 162.107586,5.3003235 168.654412,3.88603265 C169.117084,3.7862099 169.587213,3.66908572 170.08415,3.54439546 C171.937679,3.08233606 174.037989,2.55909553 176.027514,2.96258403 C179.598753,3.79329979 182.324008,5.90982428 183.767417,8.93868638 C183.767417,8.93868638 191.185082,10.9965871 191.524185,19.7536172 C195.2632,23.316725 195.346644,28.52585 195.041273,30.912425 C196.553923,33.2938855 197.308473,34.7501336 196.827336,38.5837858" id="path22" fill="#231F20" fill-rule="nonzero"></path>
                        <path d="M188.895133,47.8080852 C188.901054,47.8054185 188.906976,47.8054185 188.912898,47.8027519 C188.338474,48.1147519 188.166739,48.2040852 188.895133,47.8080852" id="path24" fill="#231F20" fill-rule="nonzero"></path>
                        <path d="M189.897909,47.4906516 C189.452281,47.7259619 189.006653,47.8849405 188.5628,47.9815907 C188.944514,47.8412832 189.913888,47.4815907 189.913888,47.4815907 L189.897909,47.4906516" id="path26" fill="#231F20" fill-rule="nonzero"></path>
                        <path d="M111.732265,115.03602 C107.974076,122.720784 112.203104,127.850545 112.203104,127.850545 C105.442874,124.497135 107.895958,111.769206 107.895958,111.769206 C108.854857,114.219096 111.732265,115.03602 111.732265,115.03602 Z M124.070658,104.076681 C121.36511,103.908605 118.680334,101.597867 118.680334,101.597867 C120.694893,102.725194 124.015976,103.514605 126.030534,101.823615 C127.875185,100.526095 128.131555,98.0455174 127.619349,95.930545 C127.267462,94.3141571 126.198665,92.9180495 124.822545,91.9677934 C124.821834,91.9674407 124.821124,91.9669116 124.820414,91.9663825 C124.371413,91.6568614 123.889744,91.3961935 123.389611,91.1894934 C123.350374,91.1730914 123.311315,91.1556313 123.271368,91.1402875 C123.184551,91.106249 123.097023,91.0753851 123.009495,91.0446975 C122.939722,91.0203591 122.869948,90.9965498 122.799464,90.9743278 C122.725607,90.9512239 122.651573,90.9288255 122.577183,90.9080144 C122.484862,90.8822651 122.392008,90.8591612 122.299331,90.8374683 C122.241098,90.8237118 122.183042,90.8087208 122.124808,90.7967279 C121.970525,90.7646294 121.815709,90.736411 121.660538,90.7155999 C121.193073,90.6921433 120.706788,90.6810323 120.230445,90.7124253 C120.094271,90.4249499 118.264711,86.7043479 114.581977,85.7126459 C117.290543,85.3054185 119.724098,87.0115762 121.149398,89.1367779 L121.376118,89.3619963 C126.172744,89.9819203 131.026717,90.9529876 135.140343,92.7450352 C135.140343,92.7450352 131.473943,89.6843921 122.82361,87.6983426 C121.859029,86.1198733 120.581799,84.7950173 118.849886,84.0336484 C116.23879,80.424862 116.608075,75.5196143 113.770614,72.0794331 C112.650153,71.2792638 111.406477,70.7466407 110.092674,70.4443506 C110.094449,69.2327211 109.578337,68.1607729 108.690277,67.5124541 C104.886815,66.7514379 101.197689,68.3584784 99.1831311,71.5155933 C97.1960917,75.4346063 97.3095404,80.2557277 95.0387903,84.0336484 C93.506256,86.3170497 89.9875699,85.9221679 87.5746094,85.5279914 C89.3628029,85.1327568 91.4631136,84.9077147 92.541853,83.2722795 C89.7035042,83.8641614 83.1556127,84.5098347 78.5821552,80.973358 C78.5581871,85.1861955 82.2476677,87.3244482 84.3479784,88.226733 C69.1078545,95.5845163 69.4027502,110.761807 69.4881474,114.144317 C70.8688842,112.464261 74.1445166,108.585459 77.8148227,107.073656 C74.9051024,109.51949 70.9047475,115.083815 70.215178,120.365073 C73.6205929,117.193496 75.9387464,118.259801 76.8749204,119.528044 C77.556678,117.921179 78.8051467,116.483802 80.1391902,115.35577 C80.0539705,111.239581 80.3669754,106.539975 83.658764,103.402437 C83.3464693,106.024283 83.8283157,108.758474 84.822013,111.070799 C85.6154439,109.433247 87.1666201,107.835554 88.3591633,106.989706 C88.3591633,106.989706 86.0884133,105.768553 86.9400777,103.230833 C89.0505082,105.807001 91.6113603,105.201186 93.6482888,105.037343 C90.6778495,106.408936 91.6612494,109.097272 91.9451375,109.661288 C92.1601397,107.987758 93.0806901,106.841383 94.4429626,106.080014 C96.9780713,105.019706 99.0512181,105.92834 100.006034,107.236441 L102.3897,104.726763 C102.45468,100.576359 106.032487,100.384297 106.032487,100.384297 C104.329336,102.301388 104.830002,104.501545 105.313091,106.954433 C103.808431,107.433265 103.019083,109.311555 102.404791,110.721243 C96.9972457,111.118418 93.7127362,112.753324 91.8318663,114.707451 C89.0352397,118.164916 89.9749645,123.361872 90.9876586,126.604524 C95.8993318,129.905553 100.346558,129.677513 100.346558,129.677513 C99.530934,131.528466 97.6866376,133.439913 97.5406988,133.672539 C103.386416,135.777283 107.043051,132.83357 107.043051,132.83357 C107.043051,132.83357 112.377272,135.619965 116.592807,133.366016 C115.723566,132.001125 114.937947,130.573625 114.309629,129.029194 C119.500396,128.739426 123.458497,126.733094 125.941586,125.019353 C125.949575,124.9996 125.955789,124.978789 125.963423,124.959036 C124.414378,114.386819 112.996003,111.611182 112.996003,111.611182 C112.71318,109.638008 110.448288,107.036796 110.448288,107.036796 C111.536615,105.475787 110.892319,101.345665 110.733419,100.216221 C110.733419,100.216221 114.894982,101.374765 115.586326,105.149864 C116.957298,105.593246 117.613845,106.898349 117.613845,106.898349 C119.502527,105.593246 121.456189,106.108409 122.705012,106.898349 C124.294715,107.997105 124.753304,109.82954 124.356499,111.746984 C124.951794,110.985615 126.97523,106.571721 121.262136,105.206477 C123.52614,105.348098 127.240299,106.520046 129.511404,103.606844 C130.106699,104.706305 128.727205,106.954433 127.790321,107.348786 C129.238168,108.279289 129.776828,109.914548 130.827161,111.183144 C132.940432,108.023383 132.075274,104.257985 131.706344,102.84865 C132.729158,103.299439 137.836126,111.336405 135.680423,117.949398 C136.446335,119.048859 137.326583,120.063841 137.723565,121.332613 C137.723565,121.332613 138.474564,118.10213 142.093561,117.820475 C142.093561,117.820475 139.633019,113.098823 136.984462,111.406599 C136.984462,111.406599 139.467373,109.127959 142.873498,110.067986 C142.873498,110.067986 138.999908,103.005967 129.85388,100.861013 C129.833286,100.936497 129.813401,101.006691 129.794582,101.069477 C129.226983,102.949001 126.341586,104.217773 124.070658,104.076681 Z" id="path28" fill="#00674E" fill-rule="nonzero"></path>
                        <path d="M24.5972475,12.35915 L21.2745667,12.35915 L19.1580998,7.16064214 C18.8852192,6.54054181 18.486107,6.33840956 17.5209405,6.33840956 C16.8274297,6.33840956 16.4704656,6.48403437 16.4704656,6.78937559 C16.4704656,6.8900978 16.4918238,6.95782207 16.6177004,7.27383338 L18.5283617,11.7496492 C18.5702614,11.8290136 18.5908562,11.9526103 18.5908562,12.0092412 C18.5908562,12.2381634 18.2929423,12.3505257 17.6274652,12.3577567 L17.6276782,12.3581094 L17.6110959,12.3581094 C17.5941762,12.3581094 17.5799019,12.35915 17.5624141,12.35915 L13.4889655,12.35915 L13.4883263,12.3581094 L12.9433641,12.3581094 L12.3105368,10.9268699 L13.7230889,10.9268699 L12.1451218,7.22794314 C11.9975496,6.8900978 11.8713179,6.47295863 11.8713179,6.26999746 C11.8713179,5.22076512 13.5098266,4.7133622 16.9958806,4.7133622 C19.2843315,4.7133622 20.7121167,4.89413661 21.7619169,5.2777311 C22.7280953,5.6272871 23.1062577,6.00999976 23.5678645,7.08175395 L25.5422985,11.682066 C25.604793,11.8168267 25.6259204,11.9296652 25.6259204,12.0092412 C25.6259204,12.2457471 25.3113176,12.35915 24.5972475,12.35915" id="path30" fill="#231F20" fill-rule="nonzero"></path>
                        <path d="M41.9280948,12.35915 L39.3897904,12.35915 L38.0010643,9.04381773 L35.9224137,12.0656605 C35.7537497,12.3245647 35.6278731,12.35915 34.8296485,12.35915 L30.6931195,12.35915 L30.6925869,12.3581094 L30.2078998,12.3581094 L29.5753211,10.9268699 L30.9278288,10.9268699 L28.5929864,5.44720051 C28.5512643,5.36771267 28.5093646,5.25478598 28.5093646,5.18762608 C28.5093646,4.9509086 28.8456273,4.83771736 29.5589873,4.83771736 L32.1743445,4.83771736 L33.696404,8.63770139 L36.0060355,5.3003235 C36.2998659,4.87154422 36.3841979,4.83771736 37.2656893,4.83771736 L39.9543709,4.83771736 L42.8937406,11.7496492 C42.9359954,11.8397542 42.9564126,11.9406175 42.9564126,12.0092412 C42.9564126,12.2457471 42.6418099,12.35915 41.9280948,12.35915" id="path32" fill="#231F20" fill-rule="nonzero"></path>
                        <path d="M52.2048811,12.35915 L47.5138914,12.35915 L46.8816677,10.9268699 L48.3655558,10.9268699 L46.0312461,5.44720051 C45.9889913,5.34490864 45.9680415,5.25478598 45.9680415,5.19857837 C45.9680415,4.9509086 46.2833544,4.83771736 46.9972469,4.83771736 L50.2812238,4.83771736 L53.1710595,11.7496492 C53.2129592,11.8515354 53.233909,11.9296652 53.233909,11.9981479 C53.233909,12.2457471 52.9402561,12.35915 52.2048811,12.35915" id="path34" fill="#231F20" fill-rule="nonzero"></path>
                        <path d="M69.83453,12.3362048 C69.7086534,12.3471571 69.5618269,12.35915 69.0373707,12.35915 L66.7353734,12.35915 L62.8209483,8.07347358 L62.6112723,11.7496492 C62.5960038,12.1087113 62.5246323,12.2570345 62.25548,12.3184272 L62.2735892,12.35915 L61.8132253,12.35915 L57.5923643,12.35915 L57.588991,12.35915 L56.9571224,10.9268699 L58.4152671,10.9268699 L59.082999,5.35709548 C59.1256088,4.89413661 59.2724353,4.83771736 60.2803358,4.83771736 L63.2626704,4.83771736 L70.0449161,11.7614304 C70.1913875,11.9069317 70.2549472,12.0092412 70.2549472,12.0992052 C70.2549472,12.2230136 70.1075881,12.3134714 69.83453,12.3362048" id="path36" fill="#231F20" fill-rule="nonzero"></path>
                        <path d="M95.8913425,9.67522308 C95.5973345,9.48383148 95.2195271,9.39358536 94.6103838,9.39358536 L93.3503749,9.39358536 L94.0015955,10.9268699 L95.0936505,10.9268699 C96.0804237,10.9268699 96.3533043,10.8251071 96.3533043,10.4760978 C96.3533043,10.171515 96.1851729,9.87735533 95.8913425,9.67522308 Z M100.700574,11.0727769 C100.700574,11.5125966 100.447934,11.8961911 100.007099,12.0992052 C99.587037,12.2797856 98.9997312,12.35915 97.8865488,12.35915 L93.240477,12.35915 L89.3191278,12.35915 L88.5558788,12.35915 L87.9236551,10.9268699 L89.5533045,10.9268699 L87.2193498,5.44720051 C87.1765624,5.34490864 87.1346627,5.25478598 87.1346627,5.19857837 C87.1346627,4.9509086 87.4705704,4.83771736 88.1853507,4.83771736 L91.4725232,4.83771736 L92.8260962,8.14229131 L93.2244983,8.14229131 L94.8207699,5.3789295 C95.1142453,4.88318433 95.1982222,4.83771736 95.9964468,4.83771736 L100.028049,4.83771736 L97.3191276,8.14229131 C98.3273832,8.2658881 98.894982,8.45692698 99.4407432,8.85140321 C100.174875,9.40467874 100.700574,10.3066284 100.700574,11.0727769 Z" id="path38" fill="#231F20" fill-rule="nonzero"></path>
                        <path d="M107.792452,12.1776701 C107.099154,11.9862961 106.490543,11.5236723 106.112026,10.914877 C105.797601,10.3847406 105.545315,9.70890885 105.545315,9.39358536 C105.545315,8.85140321 106.091431,8.50260558 107.539811,8.13008683 L108.925696,7.79217095 C109.724098,7.6119609 109.955079,7.46501335 109.955079,7.18316399 C109.955079,6.95782207 109.765466,6.74348534 109.451395,6.63064683 C109.136082,6.51759668 108.883974,6.48403437 107.855124,6.48403437 L103.987037,6.48403437 L103.67563,5.7621889 C103.634795,5.6495444 103.529159,5.3789295 103.529159,5.31120524 C103.529159,5.1082617 103.76085,4.96131415 104.117885,4.89413661 C104.348155,4.84935747 104.600441,4.83771736 105.20923,4.83771736 L109.367774,4.83771736 C111.151884,4.83771736 111.970525,5.01780395 112.76875,5.61564699 C113.441275,6.10119825 114.133686,7.36429114 114.133686,8.08544878 C114.133686,8.4235763 113.945315,8.70590185 113.566797,8.9080341 C113.293739,9.05455838 112.873322,9.19043019 112.01278,9.40467874 L110.647667,9.74280626 C109.955079,9.91194056 109.787836,10.013139 109.787836,10.2501915 C109.787836,10.5207359 109.997512,10.7346493 110.375319,10.8367472 C110.626895,10.9041364 110.900308,10.9268699 111.6561,10.9268699 L114.4561,10.9268699 L115.036482,12.35915 L109.765466,12.35915 C108.674121,12.35915 108.275008,12.3245647 107.792452,12.1776701" id="path40" fill="#231F20" fill-rule="nonzero"></path>
                        <path d="M124.694715,12.3574216 L124.695425,12.35915 L120.011182,12.35915 L119.378603,10.9268699 L120.773366,10.9268699 L118.438879,5.44720051 C118.396979,5.34490864 118.375674,5.25478598 118.375674,5.19857837 C118.375674,4.9509086 118.690987,4.83771736 119.404524,4.83771736 L122.722944,4.83771736 L125.578337,11.7496492 C125.620237,11.8515354 125.641541,11.9296652 125.641541,11.9981479 C125.641541,12.2358883 125.366353,12.3487444 124.694715,12.3574216" id="path42" fill="#231F20" fill-rule="nonzero"></path>
                        <path d="M129.802571,10.8503273 L132.813845,10.8583167 L130.504213,5.44720051 C130.462314,5.34490864 130.441009,5.25478598 130.441009,5.19857837 C130.441009,4.9509086 130.755434,4.83771736 131.470037,4.83771736 L134.801239,4.83771736 L137.265509,10.8583167 L139.281843,10.8583167 C140.184994,10.8583167 140.310338,10.914877 140.562802,11.5236723 L140.929069,12.35915 L130.399464,12.35915 L129.802571,10.8503273" id="path44" fill="#231F20" fill-rule="nonzero"></path>
                        <path d="M156.113445,12.35915 L153.249708,12.35915 L150.423432,9.61880383 L149.457431,11.7951162 C149.308474,12.1138082 149.210116,12.2500151 148.986769,12.3102968 L149.008429,12.35915 L148.46977,12.35915 L145.012691,12.35915 L144.607719,12.35915 L143.976206,10.9268699 L145.751439,10.9268699 L147.357298,7.81490444 L146.349575,5.44720051 C146.307675,5.35709548 146.286015,5.25478598 146.286015,5.18762608 C146.286015,4.9509086 146.60115,4.83771736 147.315576,4.83771736 L150.614821,4.83771736 L151.80914,7.72465832 L156.722411,11.8290136 C156.869592,11.9526103 156.954457,12.0427859 156.954457,12.1213919 C156.954457,12.302378 156.743716,12.35915 156.113445,12.35915" id="path46" fill="#231F20" fill-rule="nonzero"></path>
                        <path d="M74.5519733,12.35915 L73.8368379,12.35915 L73.2055019,10.9268699 L74.7870376,10.9268699 L72.4521953,5.44720051 C72.4104731,5.35709548 72.3895233,5.25478598 72.3895233,5.18762608 C72.3895233,4.9509086 72.7037709,4.83771736 73.417841,4.83771736 L80.7259634,4.83771736 C81.7755861,4.83771736 82.0278719,4.92803402 82.237903,5.4354193 L82.6547693,6.41652174 L77.3239217,6.41652174 L78.0589417,8.15283795 L80.977539,8.15283795 C82.0278719,8.15283795 82.2586753,8.23206124 82.4685288,8.73925252 L82.8678186,9.65227796 L78.7099847,9.65227796 L79.2346185,10.9268699 L82.4269842,10.9268699 C83.4762518,10.9268699 83.7075878,11.0171865 83.9387462,11.5236723 L84.2957813,12.35915 L78.5223238,12.35915 L74.5519733,12.35915" id="path48" fill="#231F20" fill-rule="nonzero"></path>
                        <path d="M28.3714152,29.7210776 C28.3351968,29.3187883 28.1750548,28.9916307 27.8938298,28.7836961 C27.6580552,28.5902234 27.3221476,28.4863442 26.8861067,28.4863442 L25.5115839,28.4863442 L26.2357739,30.2115494 L27.3915661,30.2115494 C28.2201502,30.2115494 28.4085213,30.1224849 28.3714152,29.7210776 Z M27.1525959,26.135395 C27.1337765,25.9262258 26.8571675,25.0479266 26.4525515,24.6761486 C26.0958715,24.3484619 25.7819789,24.2601029 25.0194401,24.2601029 L23.7104299,24.2601029 L24.7891694,26.7747191 L25.8584991,26.7747191 C26.9049261,26.7747191 27.1969811,26.6262196 27.1525959,26.135395 Z M31.6234346,31.9088889 C31.2216592,32.0425738 30.6815793,32.1018325 29.6346198,32.1018325 L20.6922321,32.1018325 L19.9080332,30.2115494 L21.5637811,30.2115494 L18.5347532,22.9795146 C18.4788278,22.8458297 18.4243227,22.7269595 18.4173986,22.652357 C18.3881043,22.3257285 18.7238344,22.1768762 19.4650683,22.1768762 L27.207101,22.1768762 C28.5810912,22.1768762 29.2571675,22.414793 29.9295155,23.0997957 C30.7712376,23.9620456 31.4954275,25.4503922 31.588459,26.4775436 C31.6624937,27.2949967 31.2213041,27.712277 30.0988896,27.8461382 C30.6526402,27.9350263 31.0583215,28.0837023 31.3402567,28.3068043 C31.9502877,28.7836961 32.5033281,29.8249567 32.5761199,30.629006 C32.6299149,31.2237098 32.3009313,31.6856104 31.6234346,31.9088889 Z" id="path50" fill="#94D4AF" fill-rule="nonzero"></path>
                        <path d="M64.7360836,32.1018325 C61.3777171,32.1018325 60.2663101,31.1491073 58.5521512,26.9233951 C58.0749209,25.7477441 57.8529946,24.9883152 57.7968916,24.3638057 C57.6894793,23.187802 58.31975,22.4445987 59.6523731,22.2213202 C60.3825995,22.10245 61.619528,22.0271421 63.1676859,22.0271421 C66.6565452,22.0271421 67.0357728,22.1172647 67.4118048,22.1768762 C68.2964919,22.3107374 68.6309792,22.6375423 68.9347519,23.3375361 L70.7607617,27.593054 C70.8468691,27.8311472 70.8758083,27.9052206 70.8839751,27.9946378 C70.9148673,28.3378446 70.6226347,28.4713532 69.8590307,28.4713532 L65.3665319,28.4713532 L64.6363055,26.6854783 L66.3820667,26.6854783 L65.689124,25.0629177 C65.4414542,24.497667 65.0057685,24.2601029 64.1336868,24.2601029 C63.0867272,24.2601029 62.6542372,24.5424637 62.7106953,25.1667968 C62.7367938,25.4503922 62.8848631,25.881429 63.2236114,26.7300987 C63.6166873,27.6972859 64.0995989,28.6942789 64.4058572,29.1849271 C64.8433184,29.9140212 65.3995545,30.2115494 66.4468692,30.2115494 L69.6157994,30.2115494 L71.0416316,30.2115494 L71.7800248,32.1018325 L67.0957817,32.1018325 L64.7360836,32.1018325" id="path52" fill="#94D4AF" fill-rule="nonzero"></path>
                        <path d="M135.842873,31.0004313 L136.323654,32.1018325 L125.38677,32.1018325 L124.623521,30.1595216 L127.716464,30.1595216 L124.668617,22.9795146 C124.612869,22.8458297 124.580556,22.7269595 124.573632,22.652357 C124.543983,22.3257285 124.856988,22.1768762 125.599464,22.1768762 L129.005412,22.1768762 L132.339633,30.1224849 L134.433197,30.1224849 C135.370969,30.1224849 135.508741,30.1965584 135.842873,31.0004313" id="path54" fill="#94D4AF" fill-rule="nonzero"></path>
                        <path d="M144.859295,29.1999181 C144.811004,28.6792878 144.234351,27.1315061 143.482997,25.8221702 C142.734661,24.5424637 142.173454,24.1262417 141.191474,24.1262417 C140.385261,24.1262417 139.999109,24.4384082 140.052194,25.0181209 C140.113268,25.688309 140.618905,26.9383861 141.452637,28.4417238 C142.159073,29.7358922 142.721168,30.1522907 143.745758,30.1522907 C144.530489,30.1522907 144.914688,29.8249567 144.859295,29.1999181 Z M144.590498,32.2505084 C141.166264,32.2505084 139.263911,31.7154162 138.030534,30.37504 C136.745847,28.9621777 135.470747,26.2085866 135.312025,24.4533993 C135.231954,23.5752765 135.651128,22.9054412 136.532265,22.5186721 C137.307409,22.1768762 138.471723,22.0271421 140.347622,22.0271421 C145.035771,22.0271421 146.748687,22.8756354 148.369992,26.0757835 C149.088323,27.5039896 149.553303,28.7836961 149.634084,29.6762808 C149.804701,31.5517492 148.406565,32.2505084 144.590498,32.2505084 Z" id="path56" fill="#94D4AF" fill-rule="nonzero"></path>
                        <path d="M40.6400345,32.1018325 L35.7157559,32.1018325 L34.9775402,30.2115494 L36.4814904,30.2115494 L33.400443,22.9795146 C33.3450502,22.8458297 33.3122051,22.7269595 33.305281,22.652357 C33.2756317,22.3257285 33.5895242,22.1768762 34.3309357,22.1768762 L37.6962263,22.1768762 L41.5708822,31.2979596 C41.626275,31.4316444 41.6580549,31.5358763 41.6660442,31.625999 C41.6960487,31.9531566 41.4045263,32.1018325 40.6400345,32.1018325" id="path58" fill="#94D4AF" fill-rule="nonzero"></path>
                        <path d="M56.4632032,32.1018325 L53.7665322,32.1018325 L51.9870382,27.727268 L50.1905003,31.7154162 C50.0472247,32.0573885 49.9201053,32.1018325 49.0916987,32.1018325 L48.7261417,32.1018325 L44.7952053,32.1018325 L44.0406558,32.1018325 L43.3022626,30.2115494 L44.8671094,30.2115494 L41.786062,22.9795146 C41.7327997,22.8756354 41.675809,22.7269595 41.6678196,22.6375423 C41.6395906,22.3257285 41.9751432,22.1768762 42.7169097,22.1768762 L45.4093198,22.1768762 L47.4680858,27.1911176 L49.4673756,22.7862182 C49.7209042,22.2213202 49.8043485,22.1768762 50.7201053,22.1768762 L53.5119383,22.1768762 L57.3928082,31.2979596 C57.4476683,31.4171825 57.4814011,31.5517492 57.489568,31.64099 C57.5181521,31.9531566 57.2044371,32.1018325 56.4632032,32.1018325" id="path60" fill="#94D4AF" fill-rule="nonzero"></path>
                        <path d="M87.9900555,31.625999 C88.0193498,31.9531566 87.7063449,32.1018325 86.9644008,32.1018325 L83.5598736,32.1018325 L82.0550357,28.4713532 L79.3723904,28.4713532 L80.5674192,31.2979596 C80.6229896,31.4316444 80.6540592,31.5358763 80.6624037,31.625999 C80.6916979,31.9531566 80.4001755,32.1018325 79.636749,32.1018325 L79.2450934,32.1018325 L75.4059457,32.1018325 L74.5604953,32.1018325 L73.8215694,30.2115494 L75.4778499,30.2115494 L72.3968025,22.9795146 C72.3417647,22.8458297 72.3085645,22.7269595 72.3016404,22.652357 C72.2719911,22.3257285 72.5858837,22.1768762 73.3276502,22.1768762 L76.7396341,22.1768762 L78.5997317,26.6854783 L81.304037,26.6854783 L79.7027943,22.9795146 C79.6465138,22.8458297 79.6142013,22.7269595 79.6078098,22.652357 C79.5781605,22.3257285 79.8911653,22.1768762 80.6327543,22.1768762 L84.02006,22.1768762 L87.894716,31.2979596 C87.9504638,31.4316444 87.981356,31.5358763 87.9900555,31.625999" id="path62" fill="#94D4AF" fill-rule="nonzero"></path>
                        <path d="M120.450951,32.1018325 L116.974165,32.1018325 L113.45033,27.2949967 L113.444471,31.3127742 C113.462225,31.9979534 113.319837,32.1018325 112.273055,32.1018325 L111.315044,32.1018325 L107.998932,32.1018325 L106.631156,32.1018325 L105.891875,30.2115494 L107.792452,30.2115494 L103.150996,22.9054412 C103.073233,22.7715799 102.994227,22.622904 102.984285,22.5186721 C102.963513,22.2809317 103.193783,22.1768762 103.804347,22.1768762 L106.545936,22.1768762 L109.743095,28.0094525 L109.648999,22.1768762 L113.268528,22.1768762 L117.2229,28.0094525 L116.700752,22.9795146 C116.621036,22.3401904 116.801772,22.1768762 117.608697,22.1768762 L120.914333,22.1768762 L121.5478,31.4466355 C121.573721,31.9681476 121.367241,32.1018325 120.450951,32.1018325" id="path64" fill="#94D4AF" fill-rule="nonzero"></path>
                        <path d="M164.896046,32.1018325 L162.274829,32.1018325 L160.421301,27.727268 L158.624408,31.7154162 C158.481132,32.0573885 158.353835,32.1018325 157.524896,32.1018325 L157.150817,32.1018325 L153.228935,32.1018325 L152.465509,32.1018325 L151.727471,30.2115494 L153.300662,30.2115494 L150.21997,22.9795146 C150.166885,22.8756354 150.110072,22.7269595 150.101017,22.6375423 C150.072788,22.3257285 150.408341,22.1768762 151.149752,22.1768762 L153.789432,22.1768762 L155.901638,27.1911176 L157.899863,22.7862182 C158.154279,22.2213202 158.238256,22.1768762 159.154368,22.1768762 L161.944781,22.1768762 L165.826893,31.2979596 C165.880688,31.4171825 165.914776,31.5517492 165.923653,31.64099 C165.95135,31.9531566 165.638345,32.1018325 164.896046,32.1018325" id="path66" fill="#94D4AF" fill-rule="nonzero"></path>
                        <path d="M96.4042586,26.2383923 L93.852461,26.2383923 L96.5796691,29.8547624 L96.4042586,26.2383923 Z M99.924365,32.1018325 L95.8840633,32.1018325 L94.0798911,32.1018325 L92.6181956,32.1018325 L91.8789147,30.2115494 L93.6550354,30.2115494 L87.5140679,22.9661108 C87.3679517,22.8010329 87.3143343,22.6821627 87.3031492,22.5632925 C87.2790036,22.2959228 87.5298691,22.1768762 88.1184177,22.1768762 L90.8759853,22.1768762 L92.5617376,24.512658 L96.31318,24.512658 L96.2336416,22.9213141 C96.1970682,22.2809317 96.3403438,22.1768762 97.3432732,22.1768762 L100.737503,22.1768762 L100.90883,31.178913 C100.930135,31.6547465 100.918417,31.760213 100.841187,31.8790832 C100.70377,32.0425738 100.469416,32.1018325 99.924365,32.1018325 Z" id="path68" fill="#94D4AF" fill-rule="nonzero"></path>
                        <path d="M181.906786,20.9553702 C181.922765,20.9980506 181.938744,21.0414365 181.952947,21.0848224 C181.961824,21.1084553 181.970701,21.1320883 181.977803,21.1560739 C181.995557,21.2066908 182.007985,21.2580131 182.022188,21.3095117 C182.025739,21.3266192 182.02929,21.3430211 182.032841,21.3597758 C182.047044,21.4163891 182.055921,21.4735314 182.064798,21.5310265 C182.066573,21.5426666 182.068349,21.5550122 182.070124,21.567005 C182.077226,21.6280274 182.082552,21.6888735 182.084327,21.7511304 C182.084327,21.7594196 182.084327,21.7677087 182.084327,21.776527 C182.086103,21.8409003 182.084327,21.9052737 182.079001,21.9703524 C182.079001,21.9758198 182.077226,21.9816398 182.077226,21.9871071 C182.070124,22.0543023 182.061247,22.1216739 182.047044,22.1890454 C182.047044,22.1897509 182.047044,22.1901036 182.047044,22.1908091 C182.034616,22.2518314 182.020413,22.3128538 182.000883,22.3740526 C181.670657,23.4999685 180.426094,24.2860286 179.213489,24.4474029 C177.310071,23.9823276 173.971056,23.5789802 170.201682,26.4563798 C171.382508,20.7724794 177.223964,17.9629805 180.584106,19.7030004 C181.019081,19.9022931 181.400794,20.1874758 181.713267,20.5654266 C181.748775,20.6287417 181.784283,20.6931151 181.81624,20.7588993 C181.832219,20.788705 181.844647,20.819569 181.85885,20.8497274 C181.874829,20.8851769 181.890808,20.9197445 181.906786,20.9553702" id="path70" fill="#FFFFFF" fill-rule="nonzero"></path>
                        <path d="M178.666662,14.1171415 C178.632929,13.4900218 178.512201,12.8256185 177.945846,12.4787433 C174.355078,9.65137849 167.492051,15.2750325 166.16724,19.4987694 C169.604079,17.1587548 174.519658,15.3282771 176.278913,17.4137966 C177.50004,16.8081582 178.624052,15.5989626 178.666662,14.1171415" id="path72" fill="#FFFFFF" fill-rule="nonzero"></path>
                        <path d="M172.572566,10.7953543 C171.976915,11.2914345 171.046955,12.1439843 169.572299,11.1501483 C168.064621,10.6247738 164.301283,12.8249307 162.763955,14.2281281 C163.615975,8.93186105 169.496312,5.12327039 173.117972,7.83751446 C173.941052,8.75247992 173.308828,9.93797208 172.572566,10.7953543" id="path74" fill="#FFFFFF" fill-rule="nonzero"></path>
                        <path d="M184.418992,29.5270757 C184.385259,28.9004499 184.264532,28.2355528 183.6964,27.8886423 C180.108296,25.0609777 173.129157,28.7884579 171.920102,34.908686 C175.356942,32.5686714 180.271633,30.7378234 182.031065,32.8244011 C183.252548,32.2187627 184.376382,31.0096023 184.418992,29.5270757" id="path76" fill="#FFFFFF" fill-rule="nonzero"></path>
                        <path d="M183.6964,27.8886423 C184.264532,28.2355528 184.385259,28.9004499 184.418992,29.5270757 C184.411891,29.7828054 184.369281,30.0293641 184.303591,30.2672808 C175.551527,26.852849 171.920102,34.908686 171.920102,34.908686 C173.129157,28.7884579 180.108296,25.0609777 183.6964,27.8886423" id="path78" fill="#B4B3B3" fill-rule="nonzero"></path>
                        <path d="M181.713267,20.5654266 C181.993782,21.0469038 182.167772,21.6158582 182.047044,22.1908091 C174.005855,19.1008893 170.201682,26.4563798 170.201682,26.4563798 C171.529867,20.0638437 178.755433,17.301787 181.713267,20.5654266" id="path80" fill="#B4B3B3" fill-rule="nonzero"></path>
                        <path d="M177.945846,12.4787433 C178.512201,12.8256185 178.632929,13.4900218 178.666662,14.1171415 C178.661336,14.2893093 178.640031,14.4591314 178.606298,14.6238566 C172.336614,10.8127792 166.16724,19.4987694 166.16724,19.4987694 C167.492051,15.2750325 174.355078,9.65137849 177.945846,12.4787433" id="path82" fill="#B4B3B3" fill-rule="nonzero"></path>
                        <path d="M173.306698,9.67418253 C167.432752,6.8256892 163.797599,12.5036108 162.925873,14.0845668 C162.869592,14.1331907 162.814909,14.1816912 162.763955,14.2281281 C163.615975,8.93186105 169.496312,5.12327039 173.117972,7.83751446 C173.620058,8.39534022 173.578868,9.05140144 173.306698,9.67418253" id="path84" fill="#B4B3B3" fill-rule="nonzero"></path>
                        <path d="M192.498886,32.8341012 C192.94984,35.1614175 193.658229,38.2839648 192.200617,40.5636624 C192.1296,40.6599579 192.056808,40.7585461 191.984017,40.8585452 C193.150461,38.0026622 191.710603,34.7245606 188.042605,34.2801201 C192.344425,38.862972 189.725694,43.2020871 185.718593,44.7955474 L185.091873,43.2191945 C185.120279,43.2079071 185.146911,43.1978543 185.177093,43.1862142 C186.512201,42.2932768 187.811802,40.8026374 187.636036,39.0645575 C185.171766,40.1682515 181.759427,38.8749649 180.546822,36.7180174 C180.138478,35.909559 179.685748,34.9488973 179.792272,34.0968766 C182.81047,36.8271876 186.192627,33.5986447 186.833551,31.9434565 C187.24012,30.7312979 188.2379,25.1562149 182.490896,25.2195301 C184.569902,24.3198908 184.45095,20.9317373 183.84731,19.8929458 C183.820679,19.8479726 183.795823,19.800354 183.767417,19.7647282 C182.901016,18.0538086 181.107852,17.3795641 179.256098,17.5063884 C180.596533,16.301108 181.34043,14.6903286 180.575229,12.6604171 C179.808251,10.6306291 178.018637,9.44559548 175.348597,9.95987665 C176.407985,8.21738765 175.46684,7.01471751 175.46684,7.01471751 C177.190408,6.95140237 178.515752,7.06060775 180.081664,9.30857729 C179.67332,9.50995117 179.075007,9.51649433 178.870834,9.79619203 C183.176205,10.501177 187.064354,13.8732636 188.150905,18.1294693 C186.735903,17.358753 185.391917,16.7307339 183.138921,17.3984352 C183.044825,17.4264773 182.950728,17.4532672 182.85308,17.4857184 C183.549041,17.7545167 184.308917,17.9398766 184.937412,18.2929599 C188.71016,20.2581983 191.644913,23.9320635 191.497554,28.2881096 C190.155344,26.7659009 188.351527,25.6271102 186.670213,26.014232 C189.853524,27.6992259 191.556143,30.3147231 192.498886,32.8341012" id="path86" fill="#00674E" fill-rule="nonzero"></path>
                        <path d="M187.403457,44.7191813 C186.833551,44.9096558 186.261868,44.9137122 185.718593,44.7955474 C185.718593,44.7955474 185.690186,44.8066584 185.718593,44.7955474 C189.725694,43.2020871 192.344425,38.862972 188.042605,34.2801201 C193.794935,34.9765866 194.077226,42.6442437 187.403457,44.7191813" id="path88" fill="#009A68" fill-rule="nonzero"></path>
                        <path d="M25.4418103,54.6430794 C25.9438964,55.8631744 26.3754987,56.9125478 26.5235679,57.2725094 C26.9145133,57.2725094 28.0271631,57.2725094 29.3246331,57.2725094 C28.0044378,56.3785138 26.7859736,55.553477 25.4418103,54.6430794 Z M24.7337766,46.5701349 C24.7165551,46.5316873 24.6387921,46.3549693 24.6387921,46.3549693 C24.0504211,45.0168859 23.7612067,44.4738571 22.4916106,44.4798536 C22.4916106,44.4798536 21.8689742,44.4798536 21.2857518,44.4798045 C21.7093647,45.5103559 22.8926759,48.3881082 23.3434526,49.4842185 C23.7237455,49.0618236 24.1168214,48.6258486 24.1168214,48.6258486 C24.6153567,48.099751 24.8518414,47.6389085 24.8518414,47.1651914 C24.8518414,46.9706605 24.8115395,46.7741895 24.7337766,46.5701349 Z M32.4472251,63.8056086 L32.3998216,63.8056086 C33.0304475,62.78463 33.8783835,61.8666487 34.8133147,61.152722 C29.953661,59.9583763 26.0507761,61.822381 23.7313798,63.8056086 L14.0343361,63.8056086 L15.109649,57.2677475 C15.109649,57.2677475 17.8292051,57.2677475 19.9348419,57.2677475 C18.6519303,56.7797448 17.1408962,56.2051467 17.1408962,56.2051467 L9.19073213,37.8192423 L22.3772742,37.8192423 C27.702263,37.8192423 30.6593867,39.5204618 32.2654231,43.5080809 C32.2680862,43.5142536 33.3876601,46.3981788 33.3876601,46.3981788 C33.6814905,47.0445575 33.8036387,47.663776 33.8036387,48.2433123 C33.8036387,49.6792785 33.0535278,50.8658641 32.3122939,51.6168275 C33.3116725,52.17714 36.4172206,53.9178653 36.4172206,53.9178653 L37.9781615,57.6201254 C38.2696839,58.3645632 38.4149125,59.0673789 38.4149125,59.7153449 C38.4149125,60.4770666 38.2142911,61.1625984 37.8150013,61.7498948 C36.9093644,63.0819818 35.1034168,63.7735101 32.4472251,63.8056086 Z" id="path90" fill="#00674E"></path>
                        <path d="M33.2378154,62.6551778 C33.7123826,62.094689 34.2464261,61.5855224 34.8133147,61.152722 C30.8942735,60.1894148 27.5976913,61.2158608 25.2513087,62.68904 C20.8806031,62.68904 16.0142739,62.68904 15.3568926,62.68904 C15.5057076,61.7826988 15.95304,59.0634988 16.0648376,58.3843161 C16.9003103,58.3843161 26.0134925,58.3843161 26.0134925,58.3843161 L31.1398128,58.3174737 L32.961384,58.3174737 L22.9823341,51.5586269 L23.5813576,50.8935535 C23.5813576,50.8935535 24.9539275,49.3704629 24.9445178,49.3805157 C25.935907,48.3346696 26.2100304,47.2849434 25.7835768,46.1706675 L25.7778955,46.1560292 L25.6687077,45.908236 C25.0911667,44.5948437 24.5457606,43.3542903 22.4893026,43.363285 L19.6126049,43.363285 L22.6426981,50.7323556 L22.9823341,51.5586269 L26.0134925,58.3843161 C26.0134925,58.3843161 18.3939631,55.4864582 17.9861513,55.3312567 C17.8116285,54.9279093 11.5029203,40.3380912 10.8965821,38.9358109 C12.3746823,38.9358109 22.3772742,38.9358109 22.3772742,38.9358109 C27.2328444,38.9358109 29.7952944,40.3805953 31.2195287,43.9160138 C31.2195287,43.9160138 32.3389251,46.7997625 32.3511754,46.8288628 C32.5826889,47.3383821 32.6762531,47.8156265 32.6762531,48.2538943 C32.6762531,50.0533492 31.1021741,51.2021927 31.0192624,51.2614514 L30.3035944,51.7727344 C30.3035944,51.7727344 35.2177532,54.5277365 35.5293378,54.7023381 C35.8279618,55.4104447 36.9407891,58.0490457 36.9361731,58.0381111 C37.1243666,58.5185301 37.2901899,59.1119993 37.2901899,59.7107594 C37.2901899,60.197704 37.1804696,60.6883522 36.8837985,61.1250326 C36.2909889,61.9969826 35.0382592,62.5199057 33.2378154,62.6551778" id="path92" fill="#FFFFFF"></path>
                        <path d="M96.7849066,57.2830913 C95.4767841,56.3591136 94.1612049,55.430374 92.7565001,54.4379666 C93.2990656,55.7460679 93.7826874,56.9114897 93.9346625,57.2781531 C94.3312893,57.2788585 95.4817553,57.2809749 96.7849066,57.2830913 Z M99.8414533,63.8056086 L80.9533934,63.8056086 L82.0264516,57.2774476 C82.0264516,57.2774476 85.0565447,57.2774476 87.3535708,57.2774476 C86.0749202,56.7913849 84.5640458,56.2164341 84.5640458,56.2164341 L76.9239217,37.8636863 L86.2705704,37.8636863 C86.2705704,37.8636863 90.20417,48.0180939 90.7744318,49.490744 C91.149221,49.0752274 91.532177,48.6503634 91.532177,48.6503634 C91.9983998,48.1015147 92.161205,47.5540768 92.161205,47.0202191 C92.161205,46.362553 91.9140678,45.7253452 91.6837971,45.131876 L91.5662649,44.8250004 C91.5726564,44.8419315 89.015,38.6333444 89.015,38.6333444 L88.6979117,37.8636863 L97.3697268,37.8636863 L100.588901,46.081074 C100.882377,46.7263945 101.003992,47.3445549 101.003992,47.9228566 C101.003992,49.35653 100.255834,50.5406465 99.5156655,51.2905517 C100.514334,51.8506879 103.60923,53.5868277 103.60923,53.5868277 L105.366886,57.6229472 C105.659474,58.3698542 105.80488,59.0742571 105.80488,59.7227523 C105.80488,60.4832394 105.604613,61.1666548 105.206744,61.752364 C104.302705,63.0823346 102.499953,63.772981 99.848555,63.8056086 L99.8448266,63.8056086 L99.8414533,63.8056086 Z" id="path94" fill="#00674E"></path>
                        <path d="M98.5482443,58.4026581 L93.430801,58.3940162 L90.385972,51.5956637 L100.31389,58.4058327 L98.5482443,58.4026581 Z M99.8354169,62.68904 C102.064267,62.6617034 103.599465,62.1216729 104.275186,61.1278545 C104.571147,60.692585 104.680512,60.2028186 104.680512,59.7167559 C104.680512,59.1188775 104.515399,58.5264666 104.327561,58.046753 C104.32685,58.0460475 103.052461,55.1199711 102.728093,54.3742987 C102.42219,54.2026953 97.5071436,51.4459295 97.5071436,51.4459295 L98.2228116,50.9351757 C98.3055457,50.8759169 99.8769616,49.7291899 99.8769616,47.934144 C99.8769616,47.4967581 99.7837525,47.0209246 99.5531267,46.5131689 C99.5431844,46.489536 97.2005302,40.509871 96.6011516,38.9802549 C95.9916532,38.9802549 91.6145561,38.9802549 90.3721238,38.9802549 C90.8587638,40.161726 92.613402,44.4198894 92.613402,44.4198894 C92.6201486,44.4375259 92.7323545,44.730645 92.7323545,44.730645 C92.9752307,45.3565654 93.2852174,46.1553238 93.2852174,47.0323883 C93.2852174,47.7787662 93.0608055,48.5814046 92.3802906,49.3826321 C92.3694606,49.3948013 90.385972,51.5956637 90.385972,51.5956637 C90.385972,51.5956637 85.7597848,39.6539703 85.4987995,38.9802549 C84.8747427,38.9802549 79.8838862,38.9802549 78.6045253,38.9802549 C79.1833092,40.3701897 85.2458035,54.9324948 85.4178407,55.3457187 C85.8325766,55.5035656 93.430801,58.3940162 93.430801,58.3940162 C93.430801,58.3940162 83.8245873,58.3940162 82.9816224,58.3940162 C82.8699491,59.0728462 82.4244986,61.7834042 82.2755417,62.68904 C83.5030605,62.68904 99.8236992,62.68904 99.8354169,62.68904 Z" id="path96" fill="#FFFFFF"></path>
                        <path d="M168.493027,63.8056086 L146.780999,63.8056086 L147.854413,57.2774476 C147.854413,57.2774476 151.68273,57.2774476 154.37301,57.2774476 C153.094537,56.7913849 151.583662,56.2164341 151.583662,56.2164341 L143.942828,37.8636863 L153.287524,37.8636863 C153.287524,37.8636863 160.690631,56.5965013 160.960316,57.2781531 C161.625029,57.2792113 166.582331,57.286795 166.582331,57.286795 L169.338655,63.8056086 L168.493027,63.8056086" id="path98" fill="#00674E"></path>
                        <path d="M167.647399,62.68904 C167.202659,61.6361392 166.04953,58.909532 165.83506,58.4019527 C165.184727,58.4010708 160.505455,58.3936635 160.448997,58.3936635 L160.449352,58.3940162 C160.449352,58.3940162 149.666752,58.3940162 148.809583,58.3940162 C148.69791,59.0728462 148.252105,61.7834042 148.103148,62.68904 C149.292495,62.68904 166.140786,62.68904 167.647399,62.68904" id="path100" fill="#FFFFFF"></path>
                        <path d="M157.612069,57.3144843 C157.612069,57.3144843 159.667817,58.0966644 160.148598,58.2795552 C160.107408,58.1746178 152.791474,39.6629649 152.521257,38.9802549 C151.901461,38.9802549 146.903503,38.9802549 145.623609,38.9802549 C146.202216,40.3701897 152.265243,54.9324948 152.437635,55.3457187 C152.852193,55.5035656 157.612069,57.3144843 157.612069,57.3144843" id="path102" fill="#FFFFFF"></path>
                        <path d="M60.7037712,63.8056086 L38.7731903,63.8056086 L39.4693288,57.2860895 C39.4693288,57.2860895 41.6820229,57.2860895 43.3514414,57.2860895 C42.190323,56.7910322 40.8101188,56.2021485 40.8101188,56.2021485 L36.1805583,44.4892009 C35.7935189,43.4676932 35.6003542,42.5103824 35.6003542,41.6548345 C35.6003542,40.7356186 35.8233458,39.9333329 36.2680861,39.295067 C36.7231238,38.6419863 37.6330217,37.8636863 39.3853519,37.8636863 L52.4147346,37.8636863 L56.6242329,48.7627081 C56.6242329,48.7627081 50.727562,44.6045438 50.4525509,44.4103656 C50.156945,44.4107184 46.0974689,44.4142457 44.869595,44.415833 C45.2639136,45.3944839 46.121792,47.5235656 46.3217032,48.0193284 C46.921792,48.0193284 49.6530835,48.0193284 49.6530835,48.0193284 L53.6083431,54.1273873 C53.6083431,54.1273873 49.9311128,54.1273873 48.818463,54.1273873 C49.1904116,55.0550687 49.8934741,56.8091978 50.0846858,57.2860895 C50.7046592,57.2860895 54.4646236,57.2860895 55.0247656,57.2860895 C55.2873488,56.7829194 57.2612502,53.0011186 57.2612502,53.0011186 L61.5277393,63.8056086 L60.7037712,63.8056086" id="path104" fill="#00674E" fill-rule="nonzero"></path>
                        <path d="M59.8798032,62.68904 C59.4473132,61.5943407 57.738303,57.2659839 57.1192174,55.6986256 C56.5803803,56.7308916 55.7081211,58.4026581 55.7081211,58.4026581 L49.3225021,58.4026581 L47.1614724,53.0108187 C47.1614724,53.0108187 50.3103405,53.0108187 51.549222,53.0108187 C50.8331989,51.9055375 49.2839757,49.5133188 49.0396792,49.135897 C48.5317343,49.135897 45.5607623,49.135897 45.5607623,49.135897 L43.2097637,43.3004989 L50.8104737,43.293797 C50.8104737,43.293797 52.8234341,44.7133612 54.2432299,45.7145869 C53.4251207,43.5960871 51.8451829,39.5052944 51.642431,38.9802549 C50.9162881,38.9802549 39.3853519,38.9802549 39.3853519,38.9802549 C38.3692844,38.9802549 37.6314238,39.2998288 37.1921873,39.9301583 C36.5590759,40.8389687 36.572569,42.3548283 37.2296484,44.0881463 C37.2269853,44.0816208 41.0851299,53.8432628 41.684686,55.3600043 C42.0782946,55.5282567 48.8163326,58.4026581 48.8163326,58.4026581 C48.8163326,58.4026581 41.3308467,58.4026581 40.4802475,58.4026581 C40.4035498,59.1216994 40.1150456,61.8214991 40.0225467,62.68904 C41.1527731,62.68904 58.4031943,62.68904 59.8798032,62.68904" id="path106" fill="#FFFFFF" fill-rule="nonzero"></path>
                        <path d="M107.237814,57.097555 C107.237458,57.0968496 102.20559,44.4909646 102.20559,44.4909646 C101.413402,42.4001541 101.44678,40.5095183 102.293118,39.2945379 C102.748155,38.6419863 103.658231,37.8636863 105.409851,37.8636863 L118.429469,37.8636863 L122.949131,48.7330787 C122.949131,48.7330787 116.754902,44.5907873 116.485749,44.4103656 C116.167241,44.4107184 112.029114,44.4154802 112.029114,44.4154802 C111.798488,44.4128348 111.507853,44.4433459 111.400086,44.6001347 C111.351795,44.6703281 111.314689,44.7837309 111.314689,44.9650345 C111.314689,45.2636209 111.415177,45.7472145 111.72978,46.5278072 C111.72978,46.5278072 115.36298,55.4577106 116.107232,57.286795 C116.742829,57.2882059 121.439677,57.2975533 122.018461,57.2986115 C122.2814,56.7947358 124.247134,53.0286316 124.247134,53.0286316 L128.62938,63.8056378 L114.657432,63.8056086 C111.16946,63.8138978 109.227516,62.0587105 107.237814,57.097555" id="path108" fill="#00674E" fill-rule="nonzero"></path>
                        <path d="M108.281932,56.685213 C110.320814,61.7685896 112.028404,62.6955655 114.656011,62.68904 C114.656011,62.68904 125.501994,62.68904 126.963335,62.6890741 C126.514688,61.5855224 124.749043,57.2437619 124.120192,55.6970383 C123.581888,56.727717 122.700751,58.4164146 122.700751,58.4164146 L115.348777,58.4019527 L110.687436,46.9447348 C110.273588,45.9186415 109.92543,44.7643308 110.472434,43.9696288 C110.783663,43.5177809 111.309007,43.291857 112.033552,43.2989116 C112.033908,43.2989116 116.828226,43.293797 116.828226,43.293797 C116.828226,43.293797 118.998133,44.7449306 120.489655,45.742629 C119.611005,43.6297729 117.889567,39.4888924 117.677938,38.9802549 C116.970259,38.9802549 105.409851,38.9802549 105.409851,38.9802549 C104.394139,38.9802549 103.656455,39.2998288 103.217219,39.9301583 C102.583752,40.8389687 102.59689,42.3548283 103.253792,44.088499 C103.250419,44.0795044 108.281932,56.685213 108.281932,56.685213" id="path110" fill="#FFFFFF" fill-rule="nonzero"></path>
                        <path d="M189.203724,63.8056086 L175.793693,63.8056086 C170.864621,63.8056086 169.004346,59.700883 168.927648,59.5259286 C168.922854,59.514994 166.161558,52.8476808 166.161558,52.8476808 C166.161558,52.8476808 173.767594,48.0344958 174.491429,47.5764752 C174.275539,47.0641341 173.884772,46.1371581 173.884772,46.1371581 C173.854767,46.0676702 173.101638,44.383029 171.030444,44.3997837 C171.030444,44.3997837 167.330666,44.3997837 166.747266,44.3997837 C166.484683,44.8969575 164.547,48.5669426 164.547,48.5669426 L160.204878,37.8636863 L172.516285,37.8636863 C180.005322,37.9434034 181.375939,41.8597709 181.512645,42.3333117 C181.535726,42.3856922 184.66755,49.910317 184.66755,49.910317 C184.66755,49.910317 177.247044,54.3848806 176.504212,54.8326721 C176.701993,55.3070947 177.020146,56.0716382 177.020146,56.0716382 L177.031154,56.1079694 C177.045357,56.1561171 177.402925,57.2892641 179.22059,57.2860895 C179.22059,57.2860895 183.133595,57.2860895 183.723031,57.2860895 C183.985792,56.7829194 185.974252,52.9723711 185.974252,52.9723711 L190.011535,63.8056086 L189.203724,63.8056086" id="path112" fill="#00674E" fill-rule="nonzero"></path>
                        <path d="M169.962357,59.0903064 C170.022721,59.2252258 171.614909,62.68904 175.793693,62.68904 C175.793693,62.68904 186.972033,62.68904 188.397687,62.68904 C187.994669,61.6116245 186.40035,57.3331791 185.802037,55.7273731 C185.262312,56.7615792 184.406564,58.4026581 184.406564,58.4026581 L179.22059,58.4026581 L179.222366,58.4026581 C176.696489,58.4068909 176.060182,56.7568173 175.966085,56.4603473 C175.957386,56.4391834 175.097732,54.3746514 175.097732,54.3746514 C175.097732,54.3746514 182.519303,49.9006169 183.261425,49.4530018 C182.936524,48.6741727 180.45095,42.7003279 180.45095,42.7003279 L180.438522,42.660822 C180.399463,42.513557 179.378602,39.0532702 172.510249,38.9802549 C172.510249,38.9802549 163.301194,38.9802549 161.869503,38.9802549 C162.316019,40.0809507 164.057519,44.3733289 164.680866,45.910176 C165.211003,44.9061285 166.067817,43.2832151 166.067817,43.2832151 L171.026005,43.2832151 C173.862401,43.2606404 174.880067,45.6071805 174.921966,45.7068268 L175.893826,48.0128029 C175.893826,48.0128029 168.278735,52.8316316 167.559161,53.2871831 C167.868971,54.0356773 169.962357,59.0903064 169.962357,59.0903064" id="path114" fill="#FFFFFF" fill-rule="nonzero"></path>
                        <path d="M70.3889907,54.2051644 C70.1008416,52.2670863 69.873589,50.7385284 69.8089641,50.3034352 C69.4252979,50.3064334 69.1034159,50.3089025 68.5390129,50.313488 C68.8651558,50.9991963 69.4872597,52.3078267 70.3889907,54.2051644 Z M73.4597407,63.7708646 L63.4762523,63.7708646 L60.7506421,57.3111334 C60.7506421,57.3111334 63.5057241,57.3111334 65.2507751,57.3111334 C64.019883,56.6975586 62.6006198,55.9905101 62.6006198,55.9905101 L53.9969805,37.8705646 L62.6732341,37.8035458 C62.6732341,37.8035458 65.1174418,43.0098489 65.3871266,43.584447 C65.8947165,43.584447 67.9412322,43.584447 68.7984004,43.584447 C68.6467804,42.5699939 67.9279166,37.7638636 67.9279166,37.7638636 L75.8292036,37.7031939 C75.8292036,37.7031939 78.129603,57.2830913 78.133864,57.3194226 C78.1581871,57.4358236 78.2696829,58.0097163 78.2696829,58.7934836 C78.2696829,59.8155204 78.0747428,61.1633039 77.2310678,62.2093264 C76.4030163,63.2359487 75.1351956,63.7611645 73.463114,63.7708646 L73.4613386,63.7708646 L73.4597407,63.7708646 Z" id="path116" fill="#00674E"></path>
                        <path d="M137.706876,54.2071044 C137.418727,52.2683208 137.191297,50.7385284 137.126317,50.3034352 C136.742473,50.3060807 136.420236,50.3089025 135.855478,50.313488 C136.181621,50.999549 136.804435,52.3092376 137.706876,54.2071044 Z M140.777449,63.7708646 L130.79396,63.7708646 L128.067817,57.3111334 C128.067817,57.3111334 130.8229,57.3111334 132.568128,57.3111334 C131.337236,56.6975586 129.91815,55.9905101 129.91815,55.9905101 L121.315221,37.8705646 L129.990587,37.8035458 C129.990587,37.8035458 132.43444,43.0098489 132.703947,43.584447 C133.211714,43.584447 135.257875,43.584447 136.115043,43.584447 C135.963601,42.5699939 135.244737,37.7638636 135.244737,37.7638636 L143.146557,37.7031939 C143.146557,37.7031939 145.446423,57.2827386 145.450862,57.3194226 C145.475363,57.4361764 145.587036,58.010069 145.587036,58.7945418 C145.587036,59.8162259 145.391918,61.1636566 144.548421,62.2093264 C143.720547,63.2359487 142.452904,63.7611645 140.780467,63.7708646 L140.779224,63.7708646 L140.777449,63.7708646 Z" id="path118" fill="#00674E"></path>
                        <path d="M134.088235,49.2106759 L138.308208,58.0850243 L138.509007,58.5072427 L139.482464,58.5072427 L138.095336,49.1792829 L134.088235,49.2106759 Z M143.668705,61.5149763 C143.062757,62.2634705 142.088945,62.647065 140.774253,62.654296 C140.767862,62.654296 132.231688,62.654296 131.541231,62.654296 C131.327294,62.1474222 130.19973,59.4747827 129.757476,58.427702 C131.006832,58.427702 137.315398,58.427702 137.315398,58.427702 C137.315398,58.427702 131.090099,55.3257894 130.768572,55.1656497 C130.614111,54.8395503 123.756055,40.3952336 123.081044,38.9732003 C124.3723,38.9633239 128.704835,38.9299908 129.277582,38.9255817 C129.549398,39.5045889 131.988101,44.7008393 131.988101,44.7008393 L137.418372,44.7008393 C137.418372,44.7008393 136.6972,39.8788361 136.546645,38.8700266 C137.516375,38.8626193 141.373454,38.8331663 142.147711,38.8273462 C142.258319,39.7710769 144.340165,57.4940242 144.340165,57.4940242 L144.345314,57.5199499 C144.348154,57.5314136 144.461248,58.0747951 144.461248,58.8021255 C144.461248,59.6395079 144.311226,60.7209798 143.668705,61.5149763 Z" id="path120" fill="#FFFFFF" fill-rule="nonzero"></path>
                        <path d="M66.7721244,49.2106759 L70.9904998,58.0850243 L71.1911212,58.5072427 L72.1647563,58.5072427 L70.7776281,49.1792829 L66.7721244,49.2106759 Z M76.3511743,61.5146236 C75.7452267,62.2634705 74.771414,62.647065 73.4567225,62.654296 C73.4505086,62.654296 64.9139797,62.654296 64.2238777,62.654296 C64.0097632,62.1474222 62.8821999,59.4747827 62.4401227,58.427702 C63.6896566,58.427702 69.9976902,58.427702 69.9976902,58.427702 C69.9976902,58.427702 63.7727459,55.3257894 63.4515741,55.1656497 C63.2967583,54.839903 56.4381699,40.3952336 55.7633364,38.9732003 C57.0545924,38.9633239 61.3873043,38.9299908 61.9598742,38.9255817 C62.2316895,39.5045889 64.6712811,44.7008393 64.6712811,44.7008393 L70.1017293,44.7008393 C70.1017293,44.7008393 69.38038,39.8788361 69.2294701,38.8700266 C70.1993769,38.8626193 74.0561011,38.8331663 74.829825,38.8273462 C74.9407882,39.7710769 77.0231672,57.4940242 77.0231672,57.4940242 L77.028671,57.5197735 C77.0311565,57.5314136 77.1442502,58.0744423 77.1442502,58.8010673 C77.1442502,59.6388024 76.9940504,60.7202743 76.3511743,61.5146236 Z" id="path122" fill="#FFFFFF" fill-rule="nonzero"></path>
                        <path d="M148.336969,66.9091085 C148.336969,66.9091085 142.376916,70.809074 143.939277,79.0149979 C143.939277,79.0149979 140.342828,71.1854375 142.471723,66.9558453 L148.336969,66.9091085" id="path124" fill="#00674E" fill-rule="nonzero"></path>
                        <path d="M168.629379,74.4739446 C164.372299,76.1658167 163.946201,88.0066291 163.946201,88.0066291 C163.095247,86.7380337 160.965997,82.5091469 160.965997,82.5091469 C159.262846,89.275401 160.965997,95.1959835 160.965997,95.1959835 C158.837812,100.693466 155.006476,104.922529 155.006476,104.922529 L157.560759,105.345453 C155.006476,112.534631 147.287524,118.992775 147.287524,118.992775 C147.988456,117.446228 148.339632,115.876929 148.495868,114.458247 C151.069681,111.525292 153.064177,108.872053 153.730844,107.602752 C152.510604,108.364121 151.033818,109.040482 149.5304,108.871348 C151.658762,106.108409 155.260893,101.171416 156.341585,98.1578621 C147.408962,90.1930296 150.778514,79.917459 153.418194,76.3935043 C153.418194,76.3935043 153.926494,80.4040509 155.887613,81.9190286 C155.267107,76.471105 158.667905,69.8242502 162.01775,69.1193182 C165.820857,68.4149153 170.55996,68.0202098 174.164931,69.2888052 C174.874208,69.8242502 176.037457,72.9464449 176.434616,74.2511952 C176.796267,75.7908641 177.027781,77.2338849 177.123298,78.6225851 C176.544514,74.4601881 172.04953,73.1148737 168.629379,74.4739446" id="path126" fill="#00674E" fill-rule="nonzero"></path>
                        <path d="M175.725162,87.3604267 C174.306609,91.6171792 171.680422,95.8876882 164.940963,100.187827 C163.599108,104.954804 156.898354,115.403036 151.43222,119.838623 C151.43222,119.838623 153.759428,120.037563 156.000351,119.500001 C155.320191,120.571597 154.24163,121.191874 153.361381,122.037369 C148.973987,125.065384 144.300928,127.31898 139.344515,128.931135 C139.271368,128.793041 139.19538,128.656534 139.114422,128.522144 C138.801949,127.901514 138.063734,126.886885 138.063734,126.886885 C139.029557,124.659039 141.385172,123.052527 143.62716,122.545124 C145.216508,122.431898 146.465331,123.728888 147.230711,124.969794 C147.685571,123.080569 147.628403,120.853252 147.287524,118.992775 C147.287524,118.992775 155.006476,112.534631 157.560759,105.345453 L155.006476,104.922529 C155.006476,104.922529 158.837812,100.693466 160.965997,95.1959835 C160.965997,95.1959835 159.262846,89.275401 160.965997,82.5091469 C160.965997,82.5091469 163.095247,86.7380337 163.946201,88.0066291 C163.946201,88.0066291 164.372299,76.1658167 168.629379,74.4739446 C172.194403,73.0573786 176.930311,74.5769419 177.17798,79.1650847 C177.419436,82.0475989 176.628136,84.2045464 175.725162,87.3604267" id="path128" fill="#009A68"></path>
                        <path d="M66.8575216,96.3541744 C69.9011079,93.6011123 73.7251646,85.3868992 71.8808682,80.3966435 C71.0742992,78.3739101 69.7716805,77.5324713 68.2098518,77.0437631 C68.19121,77.0421758 68.1720356,77.0390013 68.1533938,77.0377667 C68.1533938,77.0377667 68.1528611,77.0314176 68.1525061,77.0261266 C68.1084759,77.0125465 68.0649783,76.9984372 68.0205931,76.9853862 C68.0648008,76.9859153 68.1056352,76.9912063 68.1494879,76.9924408 C68.1011967,76.4677541 67.5085647,71.0921403 63.1941396,66.8059348 C63.1941396,66.8059348 68.921969,70.1859754 70.801241,77.4631598 C73.3899671,78.3821993 74.7657327,80.4700115 74.8307127,82.2738756 C75.0892125,87.190587 71.5774505,94.42174 66.8575216,96.3541744" id="path130" fill="#00674E" fill-rule="nonzero"></path>
                        <path d="M63.8769625,84.3438749 C63.2525506,85.4710255 62.2020402,86.6835368 60.7833096,86.7678394 C60.6625817,86.7701321 60.5439843,86.7620193 60.4264521,86.7491447 C60.4062124,86.7468519 60.3861503,86.7440301 60.3659106,86.7412082 C60.2538822,86.7265699 60.1430966,86.7061115 60.0344415,86.6791276 C60.0331987,86.6787749 60.0317783,86.6787749 60.0308906,86.6784222 C60.0308906,86.6784222 60.0308906,86.6784222 60.0308906,86.6782458 C58.8278725,86.3786012 57.8212147,85.3615026 57.2072778,84.3999591 C56.356501,82.8779267 56.356501,80.7068701 56.9805578,79.0716111 C59.5062568,76.6469412 61.5783385,73.5460868 61.4645346,69.9089056 C61.7356398,70.2230122 61.9707042,70.5579298 62.1818005,70.906604 C65.1657329,75.4386627 65.4963144,81.387111 63.8769625,84.3438749" id="path132" fill="#B4B3B3" fill-rule="nonzero"></path>
                        <path d="M53.5447834,78.7028313 C53.2303582,80.8668334 52.0671092,85.590072 48.8955159,85.2288759 C47.9114058,85.2292287 46.9755869,84.5652134 46.2242332,84.0052536 C44.8333766,82.0597681 45.1172647,79.2691403 45.9969807,77.2109574 C48.6082544,74.7862875 50.1974244,71.7415172 51.3606734,68.6120917 C51.6404781,69.0628813 51.8837093,69.5390676 52.1001319,70.0313031 C53.3308464,72.7025317 53.8267186,75.7157325 53.5447834,78.7028313" id="path134" fill="#B4B3B3" fill-rule="nonzero"></path>
                        <path d="M39.9236563,80.5657778 C40.6613394,79.4379218 41.1153119,78.1975448 41.3430971,76.8723361 C39.3560576,73.7993474 40.1507314,69.3732842 40.7465591,66.0181111 C38.2487341,67.2302697 36.8017745,69.5713424 35.0986232,71.7699121 C33.7084767,74.1947583 31.834886,77.6060156 33.9071452,80.340383 C35.3823338,81.8345497 38.5331548,82.7927423 39.9236563,80.5657778" id="path136" fill="#FFFFFF" fill-rule="nonzero"></path>
                        <path d="M29.5359069,74.645548 C30.5011976,73.1229865 29.7065239,71.3182406 29.1957383,69.8526451 C28.5141582,67.5124541 28.7982239,64.9470447 30.0752767,63.0017356 C27.4080774,63.8474072 24.9217925,66.1957109 23.7725693,68.3944569 C22.7005764,70.4441742 20.8800705,73.7148684 22.469418,76.5626386 C23.0913443,77.4857345 24.0869945,78.1130658 25.2225471,78.1411079 C27.4927645,78.2259396 28.5141582,76.2808069 29.5359069,74.645548" id="path138" fill="#FFFFFF" fill-rule="nonzero"></path>
                        <path d="M51.3606734,68.6120917 C53.1296924,71.6062451 53.8778504,75.173762 53.5447834,78.7028313 C53.2300031,80.8691261 52.0648012,85.6001248 48.8862837,85.2281705 C50.2656002,83.1228981 52.8539712,77.4476396 51.3606734,68.6120917" id="path140" fill="#FFFFFF" fill-rule="nonzero"></path>
                        <path d="M63.8769625,84.3438749 C63.2525506,85.4710255 62.2020402,86.6835368 60.7833096,86.7678394 C60.5258751,86.7726012 60.2742994,86.7394446 60.0308906,86.6784222 C65.7122043,79.6617294 61.4645346,69.9089056 61.4645346,69.9089056 C65.1069669,74.5256196 65.61793,81.1647143 63.8769625,84.3438749" id="path142" fill="#FFFFFF" fill-rule="nonzero"></path>
                        <path d="M41.3430971,76.8723361 C41.1153119,78.1975448 40.6613394,79.4379218 39.9236563,80.5657778 C39.1616502,81.786402 37.8716369,82.0486571 36.617842,81.792222 C36.2909889,79.5231063 36.0303586,73.4175165 40.7451388,66.0248129 C40.1496661,69.3789279 39.3574779,73.8018165 41.3430971,76.8723361" id="path144" fill="#B4B3B3" fill-rule="nonzero"></path>
                        <path d="M29.1957383,69.8526451 C29.7065239,71.3182406 30.5011976,73.1229865 29.5359069,74.645548 C28.5881928,76.1624658 27.6381706,77.9432261 25.693741,78.1254114 C25.299955,75.8300172 24.4898352,68.1413727 30.0752767,63.0017356 C28.7982239,64.9470447 28.5141582,67.5124541 29.1957383,69.8526451" id="path146" fill="#B4B3B3" fill-rule="nonzero"></path>
                        <polygon id="path148" fill="#00674E" fill-rule="nonzero" points="45.1518018 117.922238 45.1518018 117.922238 45.1478018 117.922238"></polygon>
                        <path d="M19.0620501,81.2998101 C19.0673835,81.3131435 19.0713835,81.3264768 19.0753835,81.3384768 C19.0713835,81.3264768 19.0660501,81.3131435 19.0620501,81.2998101" id="path150" fill="#00674E" fill-rule="nonzero"></path>
                        <path d="M39.1850856,93.7885886 C38.4269853,94.7760578 36.6927643,95.2725261 35.0247661,94.9219119 C38.021304,95.2661769 38.5177088,89.4306024 38.5177088,89.4306024 C34.9699059,89.7124342 31.5627156,86.069962 31.5627156,86.069962 C31.5673317,85.994654 31.5488674,86.0715492 31.5756761,85.9122914 C31.7136255,85.0955438 31.9689295,84.3126583 32.289036,83.6389429 C33.9463818,86.1967686 39.0719919,86.8523184 40.9171761,85.7251678 C41.8537051,87.2473766 41.172125,89.4180805 40.6331104,90.8847342 L39.1850856,93.7885886" id="path152" fill="#00674E" fill-rule="nonzero"></path>
                        <path d="M65.0972021,92.8014721 C63.1676859,94.7430775 60.045449,97.1716275 56.6964921,97.4532828 C53.6594749,97.7070725 50.3112282,97.7070725 47.9264968,95.8744608 C52.9320892,97.6989596 57.2347966,95.6183784 59.5051916,94.4910515 C61.7757641,93.3631955 60.3563234,91.9538605 58.0862835,91.9538605 C56.1706156,91.9538605 55.1220581,90.6859705 54.8408331,90.2891486 C54.788636,90.2156043 54.7628926,90.1718657 54.7628926,90.1718657 C54.7628926,90.1718657 54.7893462,90.1332417 54.8094083,90.0896795 C55.1300474,89.5769856 55.4109174,89.0641154 55.6465144,88.5725853 C58.6828214,91.2230028 62.1351072,89.5850984 65.0867272,88.5704689 C65.7027946,88.3535396 66.4122487,88.6918083 66.6398563,89.2840429 C66.8948053,90.636941 66.2563676,91.4827889 65.0972021,92.8014721" id="path154" fill="#00674E" fill-rule="nonzero"></path>
                        <path d="M73.4604509,135.151891 C71.5708815,134.716622 69.7207262,134.193699 67.9636024,133.455963 C66.175764,134.667769 64.0472243,135.203919 61.8906332,135.485222 C62.0761636,135.461236 62.2606287,135.430019 62.4463367,135.400919 C60.6238778,135.55277 56.8239666,135.292807 50.8495327,132.187191 C50.8495327,132.187191 53.1486893,132.431457 54.7911216,132.105357 C49.6806024,129.837653 45.676164,123.947934 45.1483344,117.922238 C46.8578772,117.976029 48.5501985,117.761922 50.083443,117.103726 C49.7855292,117.231591 55.4490887,116.848702 55.5980457,116.74641 C50.6116277,116.186803 46.1187738,114.308689 42.1938738,111.323883 C40.1201943,109.509261 38.2183745,107.309809 37.2166879,104.837697 C37.2069232,104.813535 37.1875712,104.764858 37.1875712,104.764858 C37.1875712,104.764858 37.2214815,104.757627 37.2491779,104.763977 C38.0923204,104.693783 39.4702165,104.485496 40.2359511,103.937705 C41.6218365,104.170331 43.2253873,104.170331 44.5960042,103.995024 C39.0545929,103.534711 27.220239,99.1368658 22.9521521,88.5161484 L23.163781,88.5161484 C23.2158006,88.5582997 23.2687078,88.6048602 23.3198396,88.6411914 C25.5183305,91.0600413 28.5343979,91.4953108 28.5343979,91.4953108 C26.2640029,88.6766408 25.4482018,84.5294112 25.4482018,84.5294112 C22.9438077,84.8847873 20.5159338,82.8521774 19.0620501,81.2998101 C19.0533506,81.2714153 19.0435859,81.2428442 19.0348863,81.214273 C18.7799374,79.9738959 19.1202836,78.7613846 19.8581442,77.9726791 C20.750288,80.6151601 24.3991117,82.0597681 26.7833105,81.4398442 C27.2374605,81.38376 27.8897463,81.2707099 28.1450503,81.7218523 C28.627962,83.8080772 29.166444,85.8660837 30.3588097,87.6424348 C30.692942,88.0210911 30.9885478,88.5941019 31.4270742,88.8194967 C31.6197063,91.50166 32.6267191,93.6397363 32.6267191,93.6397363 C33.3931638,95.8384823 36.1203719,97.7351145 38.7595197,96.6919139 C39.8380816,98.4684414 43.7375932,100.870537 48.2673756,99.145155 C49.0052362,99.7089948 50.7612948,100.532268 52.1269406,100.526095 C49.9985784,102.528017 47.245982,103.147941 44.6061241,103.993966 C45.3157556,104.360453 46.1104294,104.47315 46.9340423,104.585848 C50.7650231,105.206477 54.0003537,103.486563 57.6894793,103.599437 C58.6828214,103.712134 59.4492662,104.416713 59.9604068,105.234519 C61.5493993,108.4486 60.244295,112.028992 58.1443394,114.566535 C57.3775396,115.581341 56.1290709,116.370752 55.1641353,117.047642 C58.8534384,117.132121 62.2306243,115.468467 64.9272953,113.043797 C63.5786935,119.298063 53.7237448,121.255189 53.7237448,121.255189 C58.3222356,122.479693 59.308121,128.842423 58.4868161,132.105357 C58.4868161,132.105357 61.4434073,133.41046 66.3742549,131.90483 C64.4731453,130.494966 62.8553912,128.522144 62.2306243,126.632919 C65.2960481,129.226723 69.2124261,130.494966 72.9871264,131.792485 C73.1174416,131.82088 73.2489995,131.846277 73.3798473,131.873261 C73.3422086,132.930218 73.3731007,134.031972 73.4604509,135.151891" id="path156" fill="#00674E" fill-rule="nonzero"></path>
                        <path d="M49.7525065,94.7148591 C49.5563237,94.9264974 49.358898,95.0968663 49.1749655,95.2319621 C48.4303583,95.6487132 47.9264968,95.8744608 47.9264968,95.8744608 C46.5468253,97.3185397 43.9538382,97.3121906 42.5633367,96.9740983 C41.046781,96.4998521 39.7278286,95.3619433 39.2044375,93.8362072 C39.3651122,94.2178617 40.5841091,96.8263042 43.6115391,96.0414787 C45.9273846,95.4416604 47.5854404,93.1753665 48.1525066,92.2358686 C48.7208155,91.296018 44.9564125,91.2131264 43.3283611,88.7115612 C43.3283611,88.7115612 43.4226354,88.5563597 43.6520184,88.226733 C44.035152,87.6768261 44.35082,87.0787714 45.059919,87.0787714 C47.0467809,88.2055692 49.3177085,89.5875675 51.7869494,88.6852827 C51.8703937,90.6011388 50.9725686,93.3138132 49.7525065,94.7148591" id="path158" fill="#00674E" fill-rule="nonzero"></path>
                        <path d="M32.6267191,93.6397363 C32.6267191,93.6397363 30.8529065,89.875572 31.5627156,86.069962 C31.5627156,86.069962 34.9699059,89.7124342 38.5177088,89.4306024 C38.5177088,89.4306024 37.7775401,98.1643876 32.6267191,93.6397363" id="path160" fill="#009A68" fill-rule="nonzero"></path>
                        <path d="M54.7628926,90.1718657 C54.7628926,90.1718657 55.8153559,91.9538605 58.0862835,91.9538605 C60.3563234,91.9538605 61.7757641,93.3631955 59.5051916,94.4910515 C57.2347966,95.6183784 52.9320892,97.6989596 47.9264968,95.8744608 C47.9264968,95.8744608 52.9320892,93.6397363 54.7628926,90.1718657" id="path162" fill="#009A68" fill-rule="nonzero"></path>
                        <path d="M43.3283611,88.7115612 C43.3283611,88.7115612 42.3344863,90.1212489 40.6331104,90.8847342 L39.1850856,93.7885886 C39.1850856,93.7885886 40.348157,96.887503 43.6115391,96.0414787 C45.9273846,95.4416604 47.5854404,93.1753665 48.1525066,92.2358686 C48.7208155,91.296018 44.9564125,91.2131264 43.3283611,88.7115612" id="path164" fill="#009A68" fill-rule="nonzero"></path>
                        <path d="M25.4482018,84.5294112 C25.4482018,84.5294112 26.2640029,88.6766408 28.5343979,91.4953108 C28.5343979,91.4953108 25.5183305,91.0600413 23.3198396,88.6411914 C21.8368392,87.5852925 19.8860181,83.9768588 19.0620501,81.2998101 C20.5157563,82.852001 22.9438077,84.8847873 25.4482018,84.5294112" id="path166" fill="#009A68"></path>
                        <path d="M40.2359511,103.937705 C35.0139361,103.317428 30.4729686,101.005632 26.3861511,97.7915514 C21.1350194,94.3520757 19.7164664,88.1214429 14.7782153,84.5690934 C18.0703058,84.6255303 21.9188632,87.8754134 22.9521521,88.5161484 C27.220239,99.1368658 39.0545929,103.534711 44.5960042,103.995024 C43.2253873,104.170331 41.6218365,104.170331 40.2359511,103.937705" id="path168" fill="#009A68" fill-rule="nonzero"></path>
                        <path d="M62.4463367,135.400919 C62.2606287,135.430019 62.0761636,135.461236 61.8906332,135.485222 C55.5611171,135.907969 49.8006201,134.3295 44.8333766,131.143461 C44.8333766,131.143461 47.3010197,131.517708 48.7497547,130.805545 C43.1591645,128.324615 39.3842866,122.51673 38.6460709,116.709021 C40.6283168,117.317305 42.9029727,117.851868 45.1483344,117.922238 C45.676164,123.947934 49.6806024,129.837653 54.7911216,132.105357 C53.1486893,132.431457 50.8495327,132.187191 50.8495327,132.187191 C56.8239666,135.292807 60.6238778,135.55277 62.4463367,135.400919" id="path170" fill="#009A68" fill-rule="nonzero"></path>
                        <path d="M37.1875712,104.764858 C38.1810909,107.2666 40.0997771,109.491448 42.1938738,111.323883 C46.1187738,114.308689 50.6116277,116.186803 55.5980457,116.74641 C55.4490887,116.848702 49.7855292,117.231591 50.083443,117.103726 C44.80497,116.652584 40.0658667,114.735493 35.9502876,111.605891 C33.5662664,109.520195 31.4096752,106.926039 30.5862398,103.993966 C32.7108736,104.772618 34.8578775,104.790608 37.1875712,104.764858" id="path172" fill="#009A68" fill-rule="nonzero"></path>
                        <path d="M82.4378142,130.072924 C83.8572549,129.367815 85.0489104,128.380875 85.985617,126.999582 C87.0112717,127.831145 88.1615602,128.430787 89.389079,128.723377 C89.1220572,129.371872 88.8454483,129.979274 88.5514403,130.558987 C86.9107834,132.12123 84.7772726,133.287887 82.4949824,133.512047 C83.647934,132.647681 84.7119375,131.421236 85.7580094,129.508731 C84.822013,129.959697 83.5728341,130.325832 82.4378142,130.072924" id="path174" fill="#00674E" fill-rule="nonzero"></path>
                        <path d="M78.0953376,126.830448 C78.492852,124.180031 78.6352399,121.276 81.1323548,119.640741 L81.9552576,121.670705 C82.1541036,122.291158 82.6931182,122.770343 82.7785155,123.418662 C79.1742546,127.562893 78.1290704,134.193699 79.7585422,140.300347 C79.9950269,140.271246 80.2609833,140.162605 80.5439838,140.004053 C88.8081647,136.730361 91.67492,130.384914 92.1153994,129.564992 C92.8253861,130.269747 93.9039479,130.861982 94.6986217,131.425469 C94.2448268,132.271317 93.6482888,133.060728 93.0524611,133.849963 C89.7603173,137.712715 85.1907657,140.419217 80.4514849,141.91356 C79.4881471,142.118673 78.5143345,142.374402 77.5298693,142.557646 C76.4745653,138.752036 76.2583203,134.465654 76.0520176,131.933225 C76.2226346,130.10079 76.1936954,127.929557 78.0953376,126.830448" id="path176" fill="#00674E" fill-rule="nonzero"></path>
                        <path d="M131.764222,134.780642 C130.202749,134.273063 128.585527,133.7094 127.194671,132.975896 C127.290543,133.232155 127.43009,133.514869 127.599642,133.813102 C126.42432,132.104475 125.904835,130.747521 124.828048,128.965173 C125.122411,128.863058 125.414466,128.752124 125.702616,128.626905 C125.703148,128.626552 125.703503,128.626552 125.704213,128.626376 C125.69942,128.628668 125.694981,128.631667 125.69001,128.634136 C126.683885,128.690925 127.676695,128.324615 128.613401,128.042607 C129.54993,129.395857 130.713357,130.551932 131.877138,131.763738 C130.62867,131.510477 129.379846,131.031116 128.272877,130.664453 C129.436659,132.045746 130.40124,133.540089 131.764222,134.780642" id="path178" fill="#00674E" fill-rule="nonzero"></path>
                        <path d="M136.346734,144.610538 C129.978514,142.929777 122.080423,135.978339 119.674209,131.594956 C120.409229,131.45792 121.575141,131.039406 122.645004,130.511721 C123.120459,131.393547 126.868883,137.842696 134.034085,140.531914 C135.068439,136.63918 133.921168,129.339421 131.933596,125.786895 C132.729158,124.884963 133.523299,123.869804 134.034085,122.770343 C135.510871,124.546694 135.878559,126.999582 135.737236,129.395857 C136.304302,129.931302 136.98606,130.636058 137.354457,131.369738 C138.59831,134.536024 137.657697,140.324156 136.346734,144.610538" id="path180" fill="#00674E" fill-rule="nonzero"></path>
                        <path d="M146.53333,114.191583 C144.659739,112.415408 142.243228,111.725114 139.784462,111.725114 C142.963512,114.121566 144.534928,117.244819 145.528447,120.796815 C143.156854,119.019053 139.142296,119.415522 137.723565,121.332613 C137.723565,121.332613 138.474564,118.10213 142.093561,117.820475 C142.093561,117.820475 139.633019,113.098823 136.984462,111.406599 C136.984462,111.406599 139.467373,109.127959 142.873498,110.067986 C142.873498,110.067986 138.999908,103.005967 129.85388,100.861013 C129.833286,100.936497 129.813401,101.006691 129.794582,101.069477 C129.226983,102.949001 126.341586,104.217773 124.070658,104.076681 C121.36511,103.908605 118.680334,101.597867 118.680334,101.597867 C120.694893,102.725194 124.015976,103.514605 126.030534,101.823615 C127.875185,100.526095 128.131555,98.0455174 127.619349,95.930545 C127.267462,94.3141571 126.198665,92.9180495 124.822545,91.9677934 C124.821834,91.9674407 124.821124,91.9669116 124.820414,91.9663825 C124.371413,91.6568614 123.889744,91.3961935 123.389611,91.1894934 C123.350374,91.1730914 123.311315,91.1556313 123.271368,91.1402875 C123.184551,91.106249 123.097023,91.0753851 123.009495,91.0446975 C122.939722,91.0203591 122.869948,90.9965498 122.799464,90.9743278 C122.725607,90.9512239 122.651573,90.9288255 122.577183,90.9080144 C122.484862,90.8822651 122.392008,90.8591612 122.299331,90.8374683 C122.241098,90.8237118 122.183042,90.8087208 122.124808,90.7967279 C121.970525,90.7646294 121.815709,90.736411 121.660538,90.7155999 C121.193073,90.6921433 120.706788,90.6810323 120.230445,90.7124253 C120.094271,90.4249499 118.264711,86.7043479 114.581977,85.7126459 C117.290543,85.3054185 119.724098,87.0115762 121.149398,89.1367779 L121.376118,89.3619963 C126.172744,89.9819203 131.026717,90.9529876 135.140343,92.7450352 C135.140343,92.7450352 131.473943,89.6843921 122.82361,87.6983426 C121.859029,86.1198733 120.581799,84.7950173 118.849886,84.0336484 C116.23879,80.424862 116.608075,75.5196143 113.770614,72.0794331 C112.650153,71.2792638 111.406477,70.7466407 110.092674,70.4443506 C110.094449,69.2327211 109.578337,68.1607729 108.690277,67.5124541 C113.393517,67.8838794 116.113446,70.790732 116.92037,73.2358603 C117.204613,74.9834639 117.971058,76.505849 118.340166,78.16915 C118.96369,80.1149882 119.275985,82.2296079 120.78029,83.7514639 C122.298266,85.5061221 125.082997,87.0443801 127.487258,87.4718896 C127.74487,87.5175682 128.067107,87.5115718 128.475984,87.4821188 C129.200174,87.5096318 134.784906,87.5025772 137.723565,83.3287164 C136.844382,85.9260479 134.478825,88.1829944 131.707409,88.9669381 C146.924453,94.6543658 146.667018,110.778738 146.53333,114.191583" id="path182" fill="#009A68" fill-rule="nonzero"></path>
                        <path d="M128.434972,87.477886 C126.845447,87.1965834 124.895692,85.0486306 124.100663,83.9205982 C128.41491,85.0486306 133.721612,85.696773 137.723565,83.3287164 C134.430179,88.0066291 127.807187,87.4505494 128.434972,87.477886" id="path184" fill="#00674E" fill-rule="nonzero"></path>
                        <path d="M110.059118,92.8769564 C110.513091,93.0180487 110.882199,93.3280988 111.279358,93.5252752 C112.556588,94.3429047 114.2814,94.5778232 115.019793,96.0996793 C115.302616,97.2561064 116.352771,98.1866097 116.125874,99.5114657 C116.061781,99.5573206 115.996269,99.5920646 115.930046,99.621694 C115.240299,98.4816688 114.114866,96.780802 113.286815,96.3236632 C112.009584,95.6183784 108.746202,94.3497829 108.746202,94.3497829 L108.746202,92.2427469 C109.22361,92.355797 109.635328,92.6362178 110.059118,92.8769564" id="path186" fill="#009A68" fill-rule="nonzero"></path>
                        <path d="M130.128359,99.3567933 C130.176295,98.9051218 130.198843,98.4049499 130.173454,97.8772649 C132.884684,98.6767288 140.160139,101.283231 143.517795,107.001876 C143.517795,107.001876 138.420414,101.396987 130.128359,99.3567933" id="path188" fill="#FFFFFF" fill-rule="nonzero"></path>
                        <path d="M130.04669,96.7730419 C129.93839,96.1834528 129.757831,95.5825762 129.475718,94.997749 C139.332442,97.4204789 142.752238,102.265939 142.752238,102.265939 C142.752238,102.265939 136.634528,97.6347627 130.04669,96.7730419" id="path190" fill="#FFFFFF" fill-rule="nonzero"></path>
                        <path d="M128.789522,93.8908804 C128.227782,93.1609045 127.46116,92.4915983 126.417751,91.9501569 C133.718417,92.9492662 138.71602,96.0693444 140.646779,97.9044252 C137.070924,95.6169675 133.003281,94.6145072 128.789522,93.8908804" id="path192" fill="#FFFFFF" fill-rule="nonzero"></path>
                        <path d="M91.6055015,101.597867 C93.0806901,102.584631 95.5781601,102.781983 97.0821103,101.710212 C97.3663535,101.54143 97.6502417,101.42838 97.9060783,101.202809 C97.9060783,101.202809 95.5247202,104.104018 92.1430958,103.888852 C89.492763,103.719894 87.6994208,101.789929 87.0348846,99.941797 C87.0048802,99.8583762 86.9757635,99.7698408 86.9473569,99.6774254 C81.2404773,101.26824 72.057344,107.735555 72.057344,107.735555 C72.057344,107.735555 78.5525058,101.055015 86.6746538,98.3917225 C86.612692,97.9176526 86.5862384,97.4009023 86.6121594,96.8636937 C81.755879,97.9455183 73.6065672,102.925192 73.6065672,102.925192 C73.6065672,102.925192 79.1769177,97.7929623 86.7971572,95.4973918 C86.9297803,94.9222646 87.1387462,94.3467847 87.4419863,93.7952905 C84.7335975,94.6132726 78.8830872,96.4972066 75.1357283,98.5560949 C78.0832648,95.8317804 85.7182402,92.5942429 88.975941,91.9713207 C90.2338193,90.9521057 92.0939169,90.2069624 94.803726,90.0267171 C94.5125587,90.0760994 94.219971,90.1471746 93.932177,90.2355336 C91.0940057,91.1099527 89.3343963,93.759841 88.9652885,96.6074349 C88.8806014,98.6650887 89.7603173,100.752019 91.6055015,101.597867" id="path194" fill="#FFFFFF" fill-rule="nonzero"></path>
                        <path d="M121.376118,89.3619963 L121.149398,89.1367779 C119.617218,86.8523184 116.92037,85.0486306 113.969105,85.8376889 C113.001506,86.1271043 111.24456,86.3738393 111.613668,87.9239138 C113.174076,89.6438281 115.161471,90.9408184 117.403104,91.279087 C117.317352,91.8432795 116.693828,92.2376323 116.295603,92.4351614 C116.778692,93.1115223 117.062935,93.8444964 116.92037,94.7749996 C116.892496,97.0305352 118.36804,99.145155 120.439234,99.9338605 C121.517795,100.356961 122.880423,100.864716 123.874298,100.159784 C124.100663,98.3834333 120.817751,96.6684573 119.560405,96.0432424 C120.383486,95.9028556 122.676073,96.0700499 123.759429,96.6635191 C122.568483,95.3102682 120.837458,94.0981097 119.049265,93.7885886 C119.474475,93.4221015 121.922944,93.126866 122.880423,93.4221015 C121.60337,92.1815481 119.985261,91.5893135 118.340166,91.2230028 C119.275985,90.6588103 120.524986,90.6588103 121.660538,90.7155999 C124.385083,91.0819106 127.024054,93.1965303 127.619349,95.930545 C128.131555,98.0455174 127.875185,100.526095 126.030534,101.823615 C124.015976,103.514605 120.694893,102.725194 118.680334,101.597867 C118.254236,101.287464 118.283353,101.935783 118.226007,102.133312 C118.027871,102.499623 117.772212,102.810026 117.289478,102.753765 C115.047667,101.992396 113.20266,99.7650789 112.322767,97.7070725 L113.969105,99.1165838 C114.564578,99.4830709 115.416775,100.018339 116.125874,99.5114657 C116.352771,98.1866097 115.302616,97.2561064 115.019793,96.0996793 C114.2814,94.5778232 112.556588,94.3429047 111.279358,93.5252752 C110.882199,93.3280988 110.513091,93.0180487 110.059118,92.8769564 C109.463823,92.5386878 108.895159,92.1155875 108.128537,92.2005956 C106.652638,92.67978 105.347889,93.5252752 103.815355,93.8642493 C102.169372,94.6809969 102.077583,96.2127294 101.452816,97.6504592 C101.311138,98.0455174 100.998843,98.5245255 101.283264,98.9476259 C101.55579,99.3776044 103.383397,97.9887278 104.149665,97.2561064 C103.400264,99.5894191 100.231866,102.408442 98.8988879,102.358883 C98.3312892,102.274404 98.0475786,101.654127 97.9060783,101.202809 C97.6502417,101.42838 97.3663535,101.54143 97.0821103,101.710212 C95.5781601,102.781983 93.0806901,102.584631 91.6055015,101.597867 C89.7603173,100.752019 88.8806014,98.6650887 88.9652885,96.6074349 C89.3343963,93.759841 91.0940057,91.1099527 93.932177,90.2355336 C95.312026,89.8115514 96.7987548,89.7567018 97.7351063,90.8277682 C96.9972457,90.9408184 96.2597402,91.0819106 95.6349732,91.3917844 C94.6986217,91.7866663 93.6200598,92.2656744 93.1094517,93.0834802 C94.2904548,92.728986 96.2025719,92.8014721 97.1960917,93.1399171 C95.5781601,93.759841 93.8753638,94.7749996 92.6547691,96.0996793 L92.7115822,96.1562925 C93.9039479,95.6208475 95.3510851,95.5081501 96.7419417,95.5647634 C95.3546359,96.2388315 93.1094517,98.5529203 93.0524611,99.2298103 C94.2448268,100.356961 96.4296469,99.8497343 97.7351063,99.2298103 C100.601684,97.9326436 99.1960916,93.2048195 100.888235,92.3169967 L99.6648,90.8277682 C101.509629,91.0254737 103.014289,89.9261889 104.43302,89.0799882 C105.188635,88.4583006 105.88069,87.7551322 106.022368,86.7678394 C105.230357,85.4555053 103.272789,84.8639762 100.460006,85.3585044 C98.8988879,85.6405125 97.3942275,87.1345028 96.9123811,88.6852827 C91.0375477,88.3750562 86.3912983,90.0873867 80.9425634,92.6245777 C84.943451,89.2413625 89.8821105,87.5498431 94.5278272,86.9937633 C94.7588081,85.9738429 96.25903,84.1026072 97.7351063,83.4417665 C98.9278271,80.2557277 99.238879,76.5345965 100.51682,73.2921208 C101.340077,71.6286435 103.15579,70.6420561 104.916109,70.3314768 C108.094449,69.8242502 111.24456,70.2757454 113.770614,72.0794331 C116.608075,75.5196143 116.23879,80.424862 118.849886,84.0336484 C120.581799,84.7950173 121.859029,86.1198733 122.82361,87.6983426 C131.473943,89.6843921 135.140343,92.7450352 135.140343,92.7450352 C131.026717,90.9529876 126.172744,89.9819203 121.376118,89.3619963" id="path196" fill="#231F20" fill-rule="nonzero"></path>
                        <path d="M114.706611,93.1965303 C114.961915,91.4201792 112.806034,91.6171792 111.84021,90.8277682 C110.705545,90.0949705 109.570348,89.3900384 108.51966,88.4881064 C106.816686,89.8410044 104.745315,91.2230028 102.701995,92.0401032 C102.814733,92.2376323 102.814733,92.5196404 103.098977,92.6042957 C105.057609,92.2656744 106.675008,91.0819106 108.462847,90.2924996 C110.364134,91.1663896 112.181089,92.4351614 114.083086,93.4221015 C114.309629,93.4497909 114.564578,93.4497909 114.706611,93.1965303" id="path198" fill="#B4B3B3" fill-rule="nonzero"></path>
                        <path d="M109.570348,81.2426678 C110.137769,80.8193911 111.156677,80.0190455 111.156677,80.0190455 C111.487614,80.1597849 111.982776,80.5093409 112.209141,80.678828 C112.663291,78.7613846 111.613668,77.1829153 110.336615,76.0829251 C109.867552,76.3423584 109.229114,76.765106 109.229114,76.765106 L107.69658,75.2660011 C107.128803,75.7444801 106.476162,76.9009072 106.476162,76.9009072 C105.852106,76.9569914 105.02867,75.9707567 105.02867,75.9707567 C104.063912,77.1261257 103.496313,79.0435691 104.262403,80.424862 C104.652283,80.0423257 105.788013,79.7252209 105.788013,79.7252209 C106.284596,80.0775987 106.959252,80.8476096 106.959252,80.8476096 C108.06551,79.9455011 107.441098,78.3382843 107.952061,77.1829153 C108.406034,78.3382843 108.355967,79.5486792 108.980557,80.6763589 C109.264267,80.7820017 109.570348,81.2426678 109.570348,81.2426678" id="path200" fill="#D82342" fill-rule="nonzero"></path>
                        <path d="M106.703948,135.598095 C102.927294,137.273566 99.1524165,136.505495 95.8616931,135.654709 C96.3714135,134.999688 96.9549909,134.344315 97.5406988,133.672539 C103.386416,135.777283 107.043051,132.83357 107.043051,132.83357 C107.043051,132.83357 112.377627,135.619965 116.593162,133.36584 C117.215798,134.34308 117.879979,135.289456 118.566531,136.218196 C116.778692,136.894909 109.569105,137.611129 106.703948,135.598095" id="path202" fill="#009A68" fill-rule="nonzero"></path>
                        <path d="M100.346558,129.677513 C97.43737,130.300611 95.3423855,130.212958 93.0492653,129.744003 C92.7245427,129.669576 92.4845072,129.630776 92.1153994,129.564992 C91.6612494,130.410487 88.6283156,137.130181 79.7585422,140.300347 C85.5604062,135.483458 87.7322659,132.946443 89.5856169,128.235727 C84.6061231,124.952511 83.7716801,118.541985 83.7716801,118.541985 C85.5348403,121.668765 87.5437173,123.913366 89.5408766,125.532929 C85.1509965,117.05452 89.4482002,112.395302 89.4482002,112.395302 C89.6857501,113.196177 91.8318663,114.707451 91.8318663,114.707451 C89.0352397,118.164916 89.9749645,123.361872 90.9876586,126.604524 C95.8993318,129.905553 100.346558,129.677513 100.346558,129.677513" id="path204" fill="#009A68"></path>
                        <path d="M124.781,128.885985 C124.120547,129.409085 123.403281,130.098497 122.639145,130.500962 C123.093117,131.34681 126.843672,137.833349 134.034085,140.531914 C126.843672,134.29211 126.955878,132.45703 124.781,128.885985" id="path206" fill="#009A68"></path>
                        <path d="M123.705811,129.302913 C123.554369,129.341008 122.628492,129.534304 122.329336,129.580512 C118.953748,130.103435 115.696224,129.505204 114.309629,129.029194 C119.500396,128.739426 123.458497,126.733094 125.941586,125.019353 C125.949575,124.9996 125.955789,124.978789 125.963423,124.959036 C124.414378,114.386819 112.996003,111.611182 112.996003,111.611182 C112.71318,109.638008 110.448288,107.036796 110.448288,107.036796 C111.536615,105.475787 110.892319,101.345665 110.733419,100.216221 C112.611981,102.032784 112.891431,104.754453 112.15215,107.01087 C114.031777,108.235198 114.530667,110.348407 114.530667,110.348407 C118.330046,111.295841 122.06551,113.862309 125.15934,116.474102 C125.703148,116.072871 127.143716,114.960359 127.336348,114.312746 C127.336348,114.312746 129.667995,118.622761 128.085927,123.33383 C129.74203,122.146539 132.359695,117.949398 132.359695,117.949398 C131.837014,125.252155 127.862047,128.256538 123.705811,129.302913" id="path208" fill="#009A68" fill-rule="nonzero"></path>
                        <path d="M114.419882,83.1481183 C112.47847,83.4687504 109.79476,84.4772071 108.576651,86.1198733 L108.236482,85.3025966 C107.009318,83.0708703 104.620148,82.4735211 102.23595,82.5193761 C102.02148,81.4650644 101.898444,79.6776023 102.871546,78.16915 C102.616065,79.663493 102.957299,81.0167439 103.666753,82.173171 C104.250508,81.8273187 104.859296,81.4398442 105.539456,81.3551888 C106.136526,81.7779364 106.639145,82.3449508 107.073055,82.8779267 C107.073055,82.8779267 107.86915,82.0629427 108.318151,81.8751137 C108.88575,82.0629427 109.264267,82.6969759 109.570348,83.1031452 C110.165998,82.5962713 110.733419,82.0597681 111.386238,81.7218523 C111.84021,81.9756419 112.294893,82.3419526 112.776739,82.5109105 C113.373632,81.8345497 113.900397,80.2068745 113.969105,79.0435691 C113.969105,79.0435691 115.019793,80.9022828 114.419882,83.1481183" id="path210" fill="#B4B3B3" fill-rule="nonzero"></path>
                        <path d="M105.091342,72.2919533 C105.420503,72.2356928 105.753925,72.194776 106.083442,72.1556229 C106.153038,72.1487447 106.216953,72.1432774 106.283708,72.1360464 C107.533242,72.1487447 108.870659,71.9949542 110.096047,72.1549175 C111.010206,72.6303983 112.87634,73.9871764 113.032398,77.1829153 C112.578248,75.9143198 111.528981,74.8704137 110.505989,73.9968765 C110.505989,73.9968765 109.690011,74.8268515 109.116375,74.9834639 L107.640654,73.6582551 C107.640654,73.6582551 106.902083,74.645548 106.362714,74.9834639 C105.852106,74.8991613 105.198932,74.1093975 105.198932,74.1093975 C103.780557,74.5044558 102.701995,76.0270173 102.105279,77.2391759 C102.105279,77.2391759 102.425741,72.9631996 105.091342,72.2919533" id="path212" fill="#B4B3B3" fill-rule="nonzero"></path>
                        <path d="M97.8508631,109.220375 C97.4389678,108.432374 96.8454481,108.204334 96.3272058,108.204334 C95.4755413,108.204334 94.7854393,108.890042 94.7854393,109.735714 C94.7854393,109.846119 94.803726,110.02072 94.827694,110.145234 C94.5196603,110.305903 94.211094,110.490028 93.9074988,110.708721 C93.7846404,110.408018 93.7161095,110.079803 93.7161095,109.735714 C93.7161095,108.303099 94.8852173,107.141381 96.3272058,107.141381 C97.4173078,107.141381 98.4369261,107.772239 98.9054569,109.111204 C98.7268506,109.13519 98.3488657,109.153708 97.8508631,109.220375" id="path214" fill="#FFFFFF" fill-rule="nonzero"></path>
                        <path d="M123.05246,110.785969 C122.980201,111.122474 122.844737,111.429173 122.660982,111.697778 C122.408519,111.419473 122.146646,111.172385 121.882287,110.94752 C121.931466,110.830942 121.984196,110.670097 122.006566,110.564983 C122.183042,109.737478 121.652372,108.923728 120.819526,108.747716 C120.307321,108.639604 119.638879,108.802918 119.296402,109.39286 C118.805856,109.192509 118.424498,109.077519 118.245359,109.013851 C118.739988,107.915624 119.975141,107.482824 121.041985,107.708748 C122.452727,108.006805 123.352327,109.384218 123.05246,110.785969" id="path216" fill="#FFFFFF" fill-rule="nonzero"></path>
                        <path d="M102.23595,82.5193761 C101.630002,82.5451254 101.005945,82.6154952 100.373544,82.7206089 C100.465155,81.203162 101.79334,78.8458636 102.871546,78.16915 C101.898444,79.6776023 102.02148,81.4650644 102.23595,82.5193761" id="path218" fill="#FFFFFF" fill-rule="nonzero"></path>
                        <path d="M115.92756,83.0467083 C115.536437,83.0144334 115.010383,83.0507647 114.418106,83.148471 C114.418816,83.1482947 114.419172,83.1481183 114.419882,83.1481183 C115.019793,80.9022828 113.969105,79.0435691 113.969105,79.0435691 C115.153126,80.0894152 116.125874,81.326794 115.92756,83.0467083" id="path220" fill="#FFFFFF" fill-rule="nonzero"></path>
                        <path d="M105.091342,72.2919533 C105.091342,72.2919533 104.942208,72.3330464 104.870481,72.3575612 C102.407987,73.2018218 102.105279,77.2391759 102.105279,77.2391759 C101.650597,76.2125535 101.508919,74.8030422 102.446513,73.7713053 C103.023877,72.8723714 103.9146,72.5185827 104.870836,72.33093 C104.964933,72.310648 105.091342,72.2919533 105.091342,72.2919533" id="path222" fill="#FFFFFF" fill-rule="nonzero"></path>
                        <path d="M113.032398,77.1829153 C112.882909,74.1146885 111.156677,72.7416848 110.210206,72.2164689 C110.170792,72.1945997 110.096047,72.1549175 110.096047,72.1549175 C110.096047,72.1549175 110.172567,72.1663812 110.240565,72.1730831 C111.095603,72.3042989 111.889212,72.6018271 112.550374,73.2358603 C113.430268,74.2788846 113.617751,75.6963324 113.032398,77.1829153" id="path224" fill="#FFFFFF" fill-rule="nonzero"></path>
                        <path d="M88.0937395,92.9162859 L88.975941,91.9713207 C90.2338193,90.9521057 92.0939169,90.2069624 94.803726,90.0267171 C94.5125587,90.0760994 94.219971,90.1471746 93.932177,90.2355336 C91.0940057,91.1099527 89.3343963,93.759841 88.9652885,96.6074349 C88.8806014,98.6650887 89.7603173,100.752019 91.6055015,101.597867 C93.0806901,102.584631 95.5781601,102.781983 97.0821103,101.710212 C97.3663535,101.54143 97.6502417,101.42838 97.9060783,101.202809 C97.9060783,101.202809 95.5247202,104.104018 92.1430958,103.888852 C89.492763,103.719894 87.6994208,101.789929 87.0348846,99.941797 C87.0048802,99.8583762 86.9757635,99.7698408 86.9473569,99.6774254 L86.6746538,98.3917225 C86.612692,97.9176526 86.5862384,97.4009023 86.6121594,96.8636937 L86.7971572,95.4973918 C86.9297803,94.9222646 87.1387462,94.3467847 87.4419863,93.7952905 L88.0937395,92.9162859" id="path226" fill="#009A68" fill-rule="nonzero"></path>
                    </g>
                </g>
            </g>
        </g>
    </g>
</svg>