<svg width="200" height="200" xmlns="http://www.w3.org/2000/svg"><g fill="none" fill-rule="evenodd"><path d="M199.645 136.073c.013.061.013.122.027.188.026.106.053.207.066.312l-.093-.5" fill="#B4B3B3" fill-rule="nonzero"/><path d="M13.178 96.887c.02.004.039.022.058.028l-.103-.045c.016.006.03.006.045.017zm184.676 48.386c1.555-2.739 2.16-5.688 1.794-8.776-.276-3.308-2.08-5.661-3.53-7.554 0 .003-.292-.379-.292-.379l-.037-.05c-.15-.196-.295-.327-.39-.415-1.434-1.306-2.842-2.203-4.429-2.825l-.062-.025c-.01-.004-.034-.012-.051-.02l6.128-15.633 1.506-3.842h-15.077c3.311-14.294-1.147-25.712-13.568-34.816a3.967 3.967 0 0 0-.83-.516c-.595-1.548-1.325-3.023-2.13-4.449l4.667 1.531c-8.344-15.054-17.198-20.974-28.183-25.47-.047-5.49-1.197-10.972-3.079-15.917-8.892-.957-17.06 4.349-20.719 7.783-4.905-.486-16.888-.486-25.087.61-5.029-3.69-13.032-6.905-20.524-7.243 0 0-2.214 4.06-2.532 8.132-.733.17-1.47.349-2.21.536-4.117-1.574-9.282-2.138-14.652-1.353C33.255 37.696 31.048 53.88 31.048 53.88l2.312-1.148c-.44 1.41-1.4 5.117-1.64 6.661-2.524 1.564-8.159 8.603-8.742 12.468-3.005 2.307-5.069 5.25-7.068 8.106-2.255 3.22-7.49 10.03-11.842 7.868-.379 6.672 5.632 8.362 7.698 8.858-.59 3.27-.176 6.455 1.108 9.06h-6.02l2.802 15.973L0 143.28l12.48.017-8.952 20.325s-5.751 11.578 7.445 11.57h161.351c1.311.203 2.717.272 4.15 0h.122l.002-.022.037-.008.04-.008c3.94-.917 7.094-3.15 9.02-6.341l.041-.012.087-.025.343-.099.309-.18.076-.045c4.366-2.555 7.263-6.989 7.743-11.745 2.542-3.237 3.765-7.145 3.554-11.38l.006-.055z" fill="#B4B3B3" fill-rule="nonzero"/><path d="M143.4 41.685c.203.164.363.302.5.414-.19-.157-.384-.32-.5-.414m.149.043c.449.385.854.73 0 0" fill="#B4B3B3" fill-rule="nonzero"/><path d="M196.827 136.788c-.48-3.833-3.492-8.08-6.897-8.892l-1.373-.327a7.591 7.591 0 0 0-1.647-.042l7.432-18.954h-14.628c5.926-19.001-4.535-30.208-13.1-36.462-1.475-4.229-4.2-8.007-6.696-11.756l4.824 1.804c-8.53-12.22-15.767-14.969-20.009-16.606a260.925 260.925 0 0 0-4.418-1.626l.076-.262c.633-4.609-1.091-12.488-2.343-15.207-7.283.112-14.665 5.357-17.495 8.468-5.886-1.006-19.919-1.162-26.791.705-3.888-3.073-8.259-5.3-12.97-6.54-1.624-.548-3.553-.8-5.467-.773-.63 2.222-1.234 4.853-1.601 7.508a71.161 71.161 0 0 0-4.71 1.074c-13.847-5.65-30.257 2.28-33.12 10.43 1.134-.788 2.582-1.52 4.03-1.634-3.207 3.665-4.938 8.232-5.535 13.11-3.487 2.329-7.263 7.653-9.054 12.828C17.302 78.73 14.62 90.528 7.768 91.31c1.744 1.754 4.247 3.196 7.805 2.847-1.472 3.366-1.182 11.886 3.867 14.415h-8.952l2.119 12.86-8.255 19.029 12.646.028-7.847 18.22h151.875c-.029.16-.059.33-.09.517l-.042.233c-.72 4.145 1.214 10.612 7.76 12.026.463.1.933.217 1.43.342 1.854.462 3.954.985 5.944.581 3.57-.83 6.296-2.947 7.74-5.976 0 0 7.417-2.058 7.756-10.815 3.74-3.563 3.823-8.772 3.517-11.158 1.513-2.382 2.267-3.838 1.786-7.672" fill="#231F20" fill-rule="nonzero"/><path d="M188.895 127.564c.006.003.012.003.018.005-.575-.312-.746-.401-.018-.005" fill="#231F20" fill-rule="nonzero"/><path d="M189.898 127.881a5.228 5.228 0 0 0-1.335-.49c.382.14 1.35.5 1.35.5l-.015-.01" fill="#231F20" fill-rule="nonzero"/><path d="M111.732 60.336c-3.758-7.685.471-12.815.471-12.815-6.76 3.354-4.307 16.082-4.307 16.082.959-2.45 3.836-3.267 3.836-3.267zm12.339 10.96c-2.706.167-5.39 2.478-5.39 2.478 2.014-1.127 5.335-1.917 7.35-.226 1.844 1.298 2.1 3.778 1.588 5.893-.352 1.617-1.42 3.013-2.796 3.963l-.003.002c-.449.31-.93.57-1.43.776l-.119.05a7.639 7.639 0 0 1-.972.303c-.058.013-.116.028-.174.04-.154.032-.31.06-.464.081-.468.024-.954.035-1.43.004-.137.287-1.966 4.008-5.649 5 2.709.407 5.142-1.3 6.567-3.425l.227-.225c4.797-.62 9.65-1.591 13.764-3.383 0 0-3.666 3.06-12.316 5.047-.965 1.578-2.242 2.903-3.974 3.664-2.611 3.61-2.242 8.514-5.08 11.955-1.12.8-2.364 1.332-3.677 1.635.001 1.211-.515 2.283-1.403 2.932-3.803.76-7.492-.847-9.507-4.004-1.987-3.919-1.873-8.74-4.144-12.518-1.533-2.283-5.051-1.888-7.464-1.494 1.788.395 3.888.62 4.967 2.256-2.838-.592-9.386-1.238-13.96 2.299-.024-4.213 3.666-6.351 5.766-7.254-15.24-7.358-14.945-22.535-14.86-25.917 1.38 1.68 4.657 5.559 8.327 7.07-2.91-2.446-6.91-8.01-7.6-13.291 3.406 3.171 5.724 2.105 6.66.837.682 1.607 1.93 3.044 3.264 4.172-.085 4.116.228 8.816 3.52 11.954-.313-2.622.17-5.356 1.163-7.669.793 1.638 2.345 3.235 3.537 4.081 0 0-2.27 1.221-1.419 3.76 2.11-2.577 4.671-1.971 6.708-1.807-2.97-1.372-1.987-4.06-1.703-4.624.215 1.673 1.136 2.82 2.498 3.581 2.535 1.06 4.608.152 5.563-1.156l2.384 2.51c.065 4.15 3.642 4.342 3.642 4.342-1.703-1.917-1.202-4.118-.719-6.57-1.505-.48-2.294-2.358-2.908-3.767-5.408-.397-8.692-2.032-10.573-3.986-2.797-3.458-1.857-8.655-.844-11.898 4.911-3.3 9.359-3.073 9.359-3.073-.816-1.85-2.66-3.762-2.806-3.995 5.845-2.104 9.502.84 9.502.84s5.334-2.787 9.55-.533c-.87 1.365-1.655 2.792-2.283 4.337 5.19.29 9.148 2.296 11.632 4.01l.021.06c-1.549 10.572-12.967 13.348-12.967 13.348-.283 1.973-2.548 4.574-2.548 4.574 1.089 1.561.444 5.691.285 6.82 0 0 4.162-1.158 4.853-4.933 1.371-.443 2.028-1.748 2.028-1.748 1.889 1.305 3.842.79 5.091 0 1.59-1.1 2.048-2.932 1.651-4.849.596.761 2.62 5.175-3.094 6.54 2.264-.141 5.978-1.313 8.25 1.6.595-1.1-.785-3.347-1.722-3.742 1.448-.93 1.987-2.566 3.037-3.834 2.113 3.16 1.248 6.925.88 8.334 1.022-.45 6.13-8.487 3.973-15.1.766-1.1 1.647-2.115 2.044-3.384 0 0 .75 3.23 4.37 3.513 0 0-2.461 4.721-5.11 6.413 0 0 2.483 2.279 5.89 1.339 0 0-3.874 7.062-13.02 9.207a8.845 8.845 0 0 0-.06-.209c-.567-1.879-3.452-3.148-5.723-3.007z" fill="#00674E" fill-rule="nonzero"/><path d="M24.597 163.013h-3.322l-2.117 5.198c-.273.62-.672.823-1.637.823-.694 0-1.05-.146-1.05-.451 0-.101.02-.169.147-.485l1.91-4.476a.672.672 0 0 0 .063-.26c0-.228-.298-.34-.964-.348h-.016l-.049-.001h-4.619l-.632 1.432h1.412l-1.578 3.699c-.147.338-.274.755-.274.958 0 1.05 1.639 1.557 5.125 1.557 2.288 0 3.716-.181 4.766-.565.966-.35 1.344-.732 1.806-1.804l1.974-4.6a.801.801 0 0 0 .084-.327c0-.237-.315-.35-1.029-.35m17.331 0H39.39L38 166.328l-2.079-3.022c-.168-.259-.294-.293-1.092-.293h-4.622l-.633 1.432h1.353l-2.335 5.48a.694.694 0 0 0-.084.26c0 .236.337.35 1.05.35h2.615l1.522-3.8 2.31 3.337c.294.428.378.462 1.26.462h2.688l2.94-6.912a.662.662 0 0 0 .062-.26c0-.236-.314-.35-1.028-.35m10.278.001h-4.691l-.632 1.432h1.484l-2.335 5.48a.728.728 0 0 0-.063.248c0 .248.315.361 1.03.361h3.283l2.89-6.912a.671.671 0 0 0 .063-.248c0-.248-.294-.361-1.03-.361m17.631.023a8.137 8.137 0 0 0-.798-.023h-2.302l-3.914 4.286-.21-3.677c-.015-.359-.086-.507-.356-.568l.019-.041h-4.685l-.632 1.432h1.458l.668 5.57c.043.463.19.52 1.197.52h2.983l6.782-6.924c.146-.146.21-.248.21-.338 0-.124-.147-.214-.42-.237m26.056 2.661c-.294.191-.671.281-1.28.281h-1.26l.65-1.533h1.093c.986 0 1.26.102 1.26.45 0 .305-.169.6-.463.802zm4.81-1.398c0-.44-.253-.823-.694-1.026-.42-.18-1.007-.26-2.12-.26h-9.331l-.632 1.432h1.63l-2.335 5.48c-.042.102-.084.192-.084.248 0 .248.336.361 1.05.361h3.288l1.353-3.304h.398l1.597 2.763c.293.496.377.541 1.175.541h4.032l-2.709-3.304c1.008-.124 1.576-.315 2.122-.71.734-.553 1.26-1.455 1.26-2.22zm7.091-1.105a2.915 2.915 0 0 0-1.68 1.263c-.314.53-.567 1.206-.567 1.521 0 .543.546.891 1.995 1.264l1.386.338c.798.18 1.03.327 1.03.609 0 .225-.19.44-.505.552-.315.113-.567.147-1.596.147h-3.868l-.311.722c-.041.112-.147.383-.147.45 0 .204.232.35.589.418.23.045.482.056 1.091.056h4.159c1.784 0 2.603-.18 3.4-.778.673-.485 1.366-1.748 1.366-2.47 0-.338-.189-.62-.567-.822-.273-.147-.694-.282-1.554-.497l-1.365-.338c-.693-.169-.86-.27-.86-.507 0-.27.21-.485.587-.587.252-.067.525-.09 1.281-.09h2.8l.58-1.432h-5.27c-1.092 0-1.491.034-1.974.181m16.903-.179v-.002h-4.684l-.632 1.432h1.394l-2.334 5.48a.736.736 0 0 0-.063.248c0 .248.315.361 1.029.361h3.318l2.855-6.912a.673.673 0 0 0 .064-.248c0-.238-.276-.35-.947-.36m5.108 1.508l3.01-.008-2.309 5.41a.736.736 0 0 0-.063.25c0 .247.314.36 1.029.36h3.331l2.465-6.02h2.016c.903 0 1.028-.057 1.28-.666l.367-.835H130.4l-.596 1.509m26.309-1.509h-2.863l-2.827 2.74-.966-2.176c-.149-.319-.247-.455-.47-.515l.021-.05h-4.4l-.632 1.433h1.775l1.606 3.112-1.007 2.368a.677.677 0 0 0-.064.26c0 .236.315.35 1.03.35h3.299l1.194-2.888 4.913-4.104c.148-.124.232-.214.232-.292 0-.181-.21-.238-.84-.238m-81.562 0h-.715l-.631 1.432h1.581l-2.335 5.48a.677.677 0 0 0-.062.26c0 .236.314.35 1.028.35h7.308c1.05 0 1.302-.091 1.512-.598l.417-.982h-5.331l.735-1.736h2.919c1.05 0 1.28-.08 1.49-.586l.4-.913H78.71l.525-1.275h3.192c1.05 0 1.28-.09 1.512-.597l.357-.835h-9.744" fill="#231F20" fill-rule="nonzero"/><path d="M28.371 145.65c-.036.403-.196.73-.477.938-.236.194-.572.298-1.008.298h-1.374l.724-1.726h1.156c.828 0 1.017.09.98.49zm-1.218 3.587c-.02.209-.296 1.087-.7 1.459-.357.328-.671.416-1.434.416H23.71l1.08-2.515h1.068c1.047 0 1.339.149 1.295.64zm4.47-5.774c-.401-.134-.941-.193-1.988-.193h-8.943l-.784 1.89h1.656l-3.03 7.232c-.055.134-.11.253-.117.328-.029.326.307.475 1.048.475h7.742c1.374 0 2.05-.238 2.723-.923.841-.862 1.565-2.35 1.658-3.378.074-.817-.367-1.234-1.49-1.368.555-.09.96-.238 1.242-.46.61-.478 1.163-1.519 1.236-2.323.054-.595-.275-1.057-.953-1.28zm33.113-.193c-3.358 0-4.47.953-6.184 5.179-.477 1.175-.699 1.935-.755 2.56-.108 1.175.523 1.918 1.855 2.142.73.119 1.968.194 3.516.194 3.489 0 3.868-.09 4.244-.15.884-.134 1.219-.46 1.523-1.16l1.826-4.256c.086-.238.115-.312.123-.402.03-.343-.261-.476-1.025-.476h-4.492l-.73 1.785h1.745l-.693 1.623c-.248.565-.683.803-1.555.803-1.047 0-1.48-.282-1.423-.907.026-.283.174-.714.513-1.563.393-.967.876-1.964 1.182-2.455.437-.729.994-1.027 2.04-1.027h4.596l.738-1.89h-7.044m71.107 1.102l.48-1.102h-10.936l-.763 1.942h3.092l-3.047 7.18a1.247 1.247 0 0 0-.095.328c-.03.326.283.475 1.025.475h3.406l3.335-7.946h2.093c.938 0 1.076-.074 1.41-.877m9.017 1.8c-.049.52-.626 2.068-1.377 3.378-.748 1.28-1.31 1.696-2.292 1.696-.806 0-1.192-.312-1.139-.892.061-.67.567-1.92 1.4-3.424.707-1.294 1.27-1.71 2.294-1.71.784 0 1.169.327 1.113.952zm-.27-3.05c-3.424 0-5.326.535-6.56 1.875-1.284 1.413-2.56 4.166-2.718 5.922-.08.878.34 1.548 1.22 1.934.775.342 1.94.492 3.816.492 4.688 0 6.4-.849 8.022-4.049.718-1.428 1.183-2.708 1.264-3.6.17-1.876-1.227-2.575-5.044-2.575zm-103.95.148h-4.924l-.738 1.89h1.503l-3.08 7.232a1.263 1.263 0 0 0-.096.328c-.03.326.285.475 1.026.475h3.365l3.875-9.121a1.17 1.17 0 0 0 .095-.328c.03-.327-.261-.476-1.026-.476m15.823 0h-2.696l-1.78 4.375-1.796-3.988c-.144-.342-.27-.387-1.1-.387h-5.05l-.739 1.89h1.565l-3.08 7.232a1.15 1.15 0 0 0-.12.342c-.027.312.308.461 1.05.461h2.692l2.06-5.014 1.998 4.405c.254.565.337.61 1.253.61h2.792l3.88-9.122c.056-.12.09-.254.098-.343.028-.312-.286-.46-1.027-.46m31.527.475c.03-.327-.284-.476-1.026-.476H83.56l-1.505 3.63h-2.683l1.195-2.826c.056-.134.087-.238.095-.328.03-.327-.262-.476-1.025-.476H74.56l-.738 1.89h1.656l-3.081 7.232a1.278 1.278 0 0 0-.095.328c-.03.326.284.475 1.026.475h3.412l1.86-4.509h2.704l-1.601 3.706a1.207 1.207 0 0 0-.095.328c-.03.326.283.475 1.025.475h3.387l3.875-9.121c.055-.134.086-.238.095-.328m32.461-.476h-3.477l-3.524 4.807-.006-4.018c.018-.685-.124-.789-1.17-.789h-5.643l-.74 1.89h1.901l-4.641 7.307c-.078.133-.157.282-.167.386-.02.238.21.342.82.342h2.742l3.197-5.832-.094 5.832h3.62l3.954-5.832-.522 5.03c-.08.639.1.802.908.802h3.305l.634-9.27c.026-.521-.18-.655-1.097-.655m44.445 0h-2.621l-1.854 4.375-1.797-3.988c-.143-.342-.27-.387-1.1-.387h-5.058l-.739 1.89h1.574l-3.081 7.232a1.19 1.19 0 0 0-.119.342c-.028.312.307.461 1.049.461h2.64l2.112-5.014 1.998 4.405c.254.565.338.61 1.254.61h2.79l3.883-9.122c.054-.12.088-.254.097-.343.027-.312-.286-.46-1.028-.46m-68.492 5.863h-2.552l2.728-3.617-.176 3.617zm3.52-5.864h-7.306l-.74 1.89h1.777l-6.14 7.246c-.147.165-.2.284-.212.403-.024.267.227.386.815.386h2.758l1.686-2.336h3.751l-.08 1.592c-.036.64.107.744 1.11.744h3.395l.17-9.002c.022-.476.01-.581-.067-.7-.137-.164-.372-.223-.917-.223z" fill="#94D4AF" fill-rule="nonzero"/><path d="M181.907 154.417a3.297 3.297 0 0 0 .07-.201c.019-.05.031-.102.045-.154l.01-.05c.015-.056.024-.114.033-.171l.005-.036c.007-.061.013-.122.014-.184v-.026c.002-.064 0-.128-.005-.193l-.002-.017a1.987 1.987 0 0 0-.03-.202v-.002a1.74 1.74 0 0 0-.046-.183c-.33-1.126-1.575-1.912-2.788-2.073-1.903.465-5.242.868-9.011-2.01 1.18 5.684 7.022 8.494 10.382 6.754.435-.2.817-.485 1.13-.862.035-.064.07-.128.102-.194.016-.03.029-.06.043-.09l.048-.106m-3.24 6.838c-.034.627-.155 1.291-.721 1.638-3.59 2.828-10.454-2.796-11.779-7.02 3.437 2.34 8.353 4.17 10.112 2.085 1.221.606 2.345 1.815 2.388 3.297m-6.094 3.322c-.596-.496-1.526-1.349-3-.355-1.508.525-5.272-1.675-6.809-3.078.852 5.296 6.732 9.105 10.354 6.39.823-.915.19-2.1-.545-2.957m11.846-18.732c-.034.627-.154 1.291-.723 1.638-3.588 2.828-10.567-.9-11.776-7.02 3.437 2.34 8.352 4.171 10.111 2.085 1.222.605 2.345 1.814 2.388 3.297" fill="#FFF" fill-rule="nonzero"/><path d="M183.696 147.483c.569-.347.69-1.011.723-1.638a3.096 3.096 0 0 0-.115-.74c-8.752 3.414-12.384-4.642-12.384-4.642 1.21 6.12 8.188 9.848 11.776 7.02m-1.983 7.324c.28-.482.455-1.05.334-1.626-8.041 3.09-11.845-4.265-11.845-4.265 1.328 6.392 8.553 9.154 11.511 5.89m-3.767 8.087c.566-.347.687-1.011.72-1.638a2.99 2.99 0 0 0-.06-.507c-6.27 3.811-12.439-4.875-12.439-4.875 1.325 4.224 8.188 9.848 11.779 7.02m-4.639 2.805c-5.874 2.848-9.51-2.83-10.381-4.41a8.223 8.223 0 0 1-.162-.144c.852 5.296 6.732 9.105 10.354 6.39.502-.557.46-1.213.189-1.836" fill="#B4B3B3" fill-rule="nonzero"/><path d="M192.499 142.538c.45-2.327 1.16-5.45-.298-7.73l-.217-.295c1.166 2.856-.273 6.134-3.941 6.579 4.301-4.583 1.683-8.922-2.324-10.516l-.627 1.577.085.033c1.335.893 2.635 2.383 2.459 4.121-2.464-1.103-5.877.19-7.09 2.347-.408.808-.86 1.77-.754 2.621 3.018-2.73 6.4.498 7.042 2.154.406 1.212 1.404 6.787-4.343 6.723 2.079.9 1.96 4.288 1.356 5.327-.026.045-.051.093-.08.128-.866 1.711-2.66 2.385-4.51 2.259 1.34 1.205 2.083 2.816 1.318 4.846-.767 2.03-2.556 3.214-5.226 2.7 1.059 1.743.118 2.945.118 2.945 1.723.064 3.049-.046 4.615-2.294-.409-.201-1.007-.208-1.211-.487 4.305-.705 8.193-4.077 9.28-8.333-1.415.77-2.76 1.398-5.012.73-.094-.028-.188-.054-.286-.087.696-.269 1.456-.454 2.084-.807 3.773-1.965 6.708-5.64 6.56-9.995-1.342 1.522-3.145 2.66-4.827 2.274 3.184-1.685 4.886-4.3 5.829-6.82" fill="#00674E" fill-rule="nonzero"/><path d="M187.403 130.653a3.144 3.144 0 0 0-1.684-.077s-.029-.01 0 0c4.007 1.594 6.625 5.933 2.324 10.516 5.752-.697 6.034-8.364-.64-10.44" fill="#009A68" fill-rule="nonzero"/><path d="M25.442 120.729l1.082-2.63h2.8l-3.882 2.63zm-.708 8.073l-.095.215c-.589 1.338-.878 1.881-2.147 1.875h-1.206l2.057-5.004.774.858c.498.526.735.987.735 1.46 0 .195-.04.392-.118.596zm7.713-17.236H32.4a10.012 10.012 0 0 0 2.413 2.653c-4.86 1.195-8.762-.67-11.082-2.653h-9.697l1.076 6.538h4.825l-2.794 1.063-7.95 18.386h13.186c5.325 0 8.282-1.701 9.888-5.69l1.123-2.89a4.425 4.425 0 0 0 .416-1.844c0-1.436-.75-2.623-1.492-3.374l4.105-2.3 1.561-3.703c.292-.745.437-1.447.437-2.095 0-.762-.2-1.448-.6-2.035-.906-1.332-2.712-2.024-5.368-2.056z" fill="#00674E"/><path d="M33.238 112.717c.474.56 1.008 1.07 1.575 1.502-3.919.964-7.215-.063-9.562-1.536h-9.894l.708 4.305h9.948l5.127.067h1.821l-9.979 6.758.6.665 1.363 1.513c.99 1.046 1.265 2.096.839 3.21l-.006.015-.11.248c-.577 1.313-1.122 2.554-3.179 2.545h-2.876l3.03-7.37.34-.826 3.03-6.825-8.027 3.053-7.09 16.395h11.481c4.856 0 7.418-1.445 8.843-4.98l1.131-2.913a3.42 3.42 0 0 0 .325-1.425c0-1.8-1.574-2.948-1.657-3.007l-.715-.512 5.225-2.93 1.407-3.335c.188-.48.354-1.074.354-1.673 0-.487-.11-.977-.406-1.414-.593-.872-1.846-1.395-3.646-1.53" fill="#FFF"/><path d="M96.785 118.089l-4.028 2.845 1.178-2.84 2.85-.005zm3.056-6.523H80.953l1.073 6.529h5.328l-2.79 1.06-7.64 18.353h9.347l4.503-11.627.758.84c.466.55.63 1.097.63 1.63 0 .658-.248 1.296-.478 1.89l-.118.306-2.551 6.192-.317.77h8.672l3.219-8.218a4.415 4.415 0 0 0 .415-1.842c0-1.434-.748-2.618-1.488-3.368l4.093-2.296 1.758-4.036c.292-.747.438-1.451.438-2.1 0-.76-.2-1.444-.598-2.03-.904-1.33-2.707-2.02-5.358-2.053h-.008z" fill="#00674E"/><path d="M98.548 116.97l-5.117.008-3.045 6.798 9.928-6.81-1.766.003zm1.287-4.287c2.23.027 3.764.567 4.44 1.561.296.435.406.925.406 1.411 0 .598-.166 1.19-.353 1.67l-1.6 3.673-5.22 2.928.715.51c.083.06 1.654 1.207 1.654 3.002a3.4 3.4 0 0 1-.324 1.42l-2.952 7.534h-6.229l2.241-5.44.12-.31c.242-.627.552-1.425.552-2.302 0-.747-.224-1.55-.905-2.35-.01-.013-1.994-2.214-1.994-2.214l-4.887 12.616h-6.894l6.813-16.366 8.013-3.048H82.98l-.705-4.295h17.56z" fill="#FFF"/><path d="M168.493 111.566h-21.712l1.073 6.529h6.519l-2.79 1.06-7.64 18.353h9.345l7.672-19.414 5.622-.009 2.757-6.519h-.846" fill="#00674E"/><path d="M167.647 112.683l-1.812 4.287-5.386.008h-11.64l-.706-4.295h19.544m-10.035 5.374l2.537-.965-7.628 19.3h-6.897l6.814-16.366 5.174-1.969" fill="#FFF"/><path d="M60.704 111.566h-21.93l.695 6.52h3.882l-2.54 1.084-4.63 11.713c-.387 1.021-.58 1.979-.58 2.834 0 .92.222 1.722.667 2.36.455.653 1.365 1.431 3.117 1.431h13.03l4.21-10.899-6.172 4.353-5.583-.006 1.452-3.603h3.331l3.955-6.108h-4.79l1.267-3.16h4.94l2.236 4.286 4.267-10.805h-.824" fill="#00674E" fill-rule="nonzero"/><path d="M59.88 112.683l-2.76 6.99-1.412-2.704h-6.385l-2.162 5.392h4.388l-2.51 3.875h-3.478l-2.351 5.835 7.6.007 3.433-2.42-2.6 6.734H39.384c-1.016 0-1.754-.32-2.193-.95-.633-.909-.62-2.425.038-4.158l4.455-11.272 7.131-3.043H40.48l-.457-4.286H59.88" fill="#FFF" fill-rule="nonzero"/><path d="M107.238 118.274l-5.032 12.607c-.793 2.09-.76 3.981.087 5.196.455.653 1.365 1.431 3.117 1.431h13.02l4.52-10.87-6.464 4.324-4.457-.006c-.23.003-.521-.027-.629-.184-.048-.07-.085-.184-.085-.365 0-.299.1-.782.415-1.563l4.377-10.759 5.911-.012 2.23 4.27 4.381-10.777h-13.972c-3.488-.008-5.43 1.747-7.42 6.708" fill="#00674E" fill-rule="nonzero"/><path d="M108.282 118.687c2.039-5.084 3.746-6.01 6.374-6.004h12.307l-2.843 6.992-1.42-2.72-7.351.015-4.662 11.457c-.413 1.026-.762 2.18-.215 2.975.312.452.837.678 1.562.671l4.794.005 3.662-2.449-2.812 6.763H105.41c-1.016 0-1.754-.32-2.193-.95-.633-.909-.62-2.425.037-4.159l5.028-12.596" fill="#FFF" fill-rule="nonzero"/><path d="M189.204 111.566h-13.41c-4.93 0-6.79 4.105-6.866 4.28l-2.766 6.678 8.33 5.271-.607 1.44a3.082 3.082 0 0 1-2.855 1.737h-4.283l-2.2-4.167-4.342 10.703h12.311c7.49-.08 8.86-3.996 8.997-4.47.023-.052 3.155-7.576 3.155-7.576l-8.164-4.923.516-1.239.011-.036c.014-.048.372-1.181 2.19-1.178h4.502l2.251 4.314 4.038-10.834h-.808" fill="#00674E" fill-rule="nonzero"/><path d="M169.962 116.282c.06-.135 1.653-3.6 5.832-3.6h12.604c-.403 1.078-1.998 5.357-2.596 6.963l-1.395-2.676h-5.186.001c-2.526-.004-3.162 1.646-3.256 1.943l-.868 2.085 8.163 4.922-2.81 6.753-.012.04c-.04.146-1.06 3.607-7.929 3.68h-10.64c.446-1.101 2.188-5.393 2.81-6.93l1.388 2.627h4.958c2.836.022 3.854-2.324 3.896-2.424l.972-2.306-8.335-5.274 2.403-5.803" fill="#FFF" fill-rule="nonzero"/><path d="M70.389 121.167l-.58 3.902-1.27-.01 1.85-3.892zm3.07-9.566h-9.983l-2.725 6.46h4.5l-2.65 1.32-8.604 18.12 8.676.067 2.714-5.78h3.411l-.87 5.82 7.901.06 2.305-19.615c.024-.117.136-.69.136-1.475 0-1.022-.195-2.37-1.039-3.415-.828-1.027-2.096-1.552-3.768-1.562h-.003zm64.248 9.564a10415.9 10415.9 0 0 1-.58 3.904l-1.272-.01 1.852-3.894zm3.07-9.564h-9.983l-2.726 6.46h4.5l-2.65 1.32-8.603 18.12 8.676.067 2.713-5.78h3.411l-.87 5.82 7.902.06 2.304-19.615a7.65 7.65 0 0 0 .136-1.476c0-1.021-.195-2.369-1.039-3.414-.827-1.027-2.095-1.552-3.768-1.562h-.003z" fill="#00674E"/><path d="M134.088 126.161l4.22-8.874.201-.422h.973l-1.387 9.328-4.007-.032zm9.58-12.304c-.605-.748-1.58-1.132-2.894-1.14h-9.233c-.214.508-1.341 3.18-1.784 4.227h7.558l-6.546 3.262-7.688 16.193 6.197.047 2.71-5.775h5.43l-.871 5.83 5.6.044 2.193-18.667.005-.026c.003-.011.116-.555.116-1.282 0-.838-.15-1.919-.792-2.713zm-76.896 12.304l4.218-8.874.201-.422h.974l-1.387 9.328-4.006-.032zm9.58-12.304c-.607-.748-1.58-1.132-2.895-1.14h-9.233l-1.784 4.227h7.558l-6.546 3.262-7.689 16.193 6.197.047 2.711-5.775h5.43s-.72 4.822-.872 5.83l5.6.044c.112-.944 2.194-18.667 2.194-18.667l.006-.026c.002-.011.115-.554.115-1.281 0-.838-.15-1.92-.793-2.714z" fill="#FFF" fill-rule="nonzero"/><path d="M148.337 108.463s-5.96-3.9-4.398-12.106c0 0-3.596 7.83-1.467 12.06l5.865.046m20.293-7.565c-4.258-1.692-4.684-13.533-4.684-13.533-.85 1.269-2.98 5.498-2.98 5.498-1.703-6.766 0-12.687 0-12.687-2.128-5.497-5.96-9.727-5.96-9.727l2.555-.422c-2.555-7.19-10.273-13.648-10.273-13.648.7 1.547 1.052 3.116 1.208 4.535 2.574 2.933 4.568 5.586 5.235 6.855-1.22-.761-2.697-1.438-4.2-1.268 2.128 2.763 5.73 7.7 6.81 10.713-8.932 7.965-5.562 18.24-2.923 21.764 0 0 .508-4.01 2.47-5.525-.62 5.448 2.78 12.095 6.13 12.8 3.803.704 8.542 1.099 12.147-.17.71-.535 1.872-3.657 2.27-4.962.361-1.54.593-2.983.688-4.372-.578 4.163-5.073 5.508-8.494 4.149" fill="#00674E" fill-rule="nonzero"/><path d="M175.725 88.012c-1.418-4.257-4.045-8.528-10.784-12.828-1.342-4.767-8.043-15.215-13.509-19.65 0 0 2.327-.2 4.568.338-.68-1.072-1.758-1.692-2.639-2.537-4.387-3.028-9.06-5.282-14.016-6.894-.074.138-.15.274-.23.409-.313.62-1.051 1.635-1.051 1.635.966 2.228 3.321 3.834 5.563 4.342 1.59.113 2.838-1.184 3.604-2.425.455 1.89.397 4.117.057 5.977 0 0 7.718 6.458 10.273 13.648l-2.555.422s3.832 4.23 5.96 9.727c0 0-1.703 5.92 0 12.687 0 0 2.13-4.23 2.98-5.498 0 0 .426 11.841 4.683 13.533 3.565 1.417 8.301-.103 8.549-4.691.241-2.883-.55-5.04-1.453-8.195" fill="#009A68"/><path d="M66.858 79.018c3.043 2.753 6.867 10.967 5.023 15.957-.807 2.023-2.11 2.865-3.671 3.353l-.057.006v.012c-.045.013-.088.028-.132.04.044 0 .085-.005.128-.006-.048.524-.64 5.9-4.955 10.186 0 0 5.728-3.38 7.607-10.657 2.589-.92 3.965-3.007 4.03-4.81.258-4.918-3.254-12.149-7.973-14.081" fill="#00674E" fill-rule="nonzero"/><path d="M63.877 91.028c-.624-1.127-1.675-2.34-3.094-2.424a2.827 2.827 0 0 0-.357.019l-.06.008a2.974 2.974 0 0 0-.332.062h-.003c-1.203.3-2.21 1.317-2.824 2.279-.85 1.522-.85 3.693-.226 5.328 2.525 2.425 4.597 5.526 4.484 9.163.27-.314.506-.649.717-.998 2.984-4.532 3.314-10.48 1.695-13.437M53.545 96.67c-.315-2.165-1.478-6.888-4.65-6.527-.984 0-1.92.664-2.67 1.224-1.392 1.945-1.108 4.736-.228 6.794 2.611 2.425 4.2 5.47 5.364 8.599.28-.45.523-.927.74-1.42 1.23-2.67 1.726-5.684 1.444-8.67" fill="#B4B3B3" fill-rule="nonzero"/><path d="M39.924 94.806c.737 1.128 1.191 2.368 1.42 3.694-1.988 3.073-1.193 7.499-.597 10.854-2.498-1.212-3.945-3.553-5.648-5.752-1.39-2.425-3.264-5.836-1.192-8.57 1.475-1.495 4.626-2.453 6.017-.226m-10.388 5.92c.965 1.523.17 3.328-.34 4.793-.682 2.34-.398 4.906.88 6.851-2.668-.845-5.154-3.194-6.303-5.392-1.072-2.05-2.893-5.32-1.304-8.169.622-.923 1.618-1.55 2.754-1.578 2.27-.085 3.291 1.86 4.313 3.495m21.824 6.034c1.77-2.994 2.518-6.562 2.185-10.09-.315-2.167-1.48-6.898-4.659-6.526 1.38 2.105 3.968 7.78 2.475 16.616m12.516-15.732c-.624-1.127-1.675-2.34-3.094-2.424a2.87 2.87 0 0 0-.752.09c5.681 7.016 1.434 16.77 1.434 16.77 3.642-4.618 4.153-11.257 2.412-14.436" fill="#FFF" fill-rule="nonzero"/><path d="M41.343 98.5c-.228-1.326-.682-2.566-1.42-3.694-.761-1.22-2.051-1.483-3.305-1.226-.327 2.269-.588 8.374 4.127 15.767-.595-3.354-1.388-7.777.598-10.847m-12.147 7.02c.51-1.466 1.305-3.271.34-4.794-.948-1.516-1.898-3.297-3.842-3.48-.394 2.296-1.204 9.985 4.381 15.124-1.277-1.945-1.56-4.51-.88-6.85" fill="#B4B3B3" fill-rule="nonzero"/><path fill="#00674E" fill-rule="nonzero" d="M45.152 57.45h-.004zm-26.09 36.622l.013-.039-.013.04m20.123-12.49c-.758-.987-2.492-1.484-4.16-1.133 2.996-.344 3.493 5.491 3.493 5.491-3.548-.281-6.955 3.361-6.955 3.361.004.075-.014-.002.013.158.138.816.393 1.6.713 2.273 1.657-2.558 6.783-3.213 8.628-2.086.937-1.522.255-3.693-.284-5.16l-1.448-2.904m25.912.987c-1.93-1.941-5.052-4.37-8.4-4.651-3.038-.254-6.386-.254-8.77 1.579 5.005-1.825 9.308.256 11.578 1.383 2.27 1.128.851 2.537-1.419 2.537-1.915 0-2.964 1.268-3.245 1.665-.052.073-.078.117-.078.117s.026.039.046.082c.321.513.602 1.026.838 1.517 3.036-2.65 6.488-1.012 9.44.003a1.253 1.253 0 0 0 1.553-.714c.255-1.353-.384-2.199-1.543-3.517"/><path d="M73.46 40.22c-1.89.435-3.74.958-5.496 1.696-1.788-1.212-3.917-1.748-6.073-2.03.185.025.37.056.555.085-1.822-.152-5.622.108-11.596 3.214 0 0 2.299-.244 3.941.082-5.11 2.267-9.115 8.157-9.643 14.183 1.71-.054 3.402.16 4.935.818-.297-.128 5.366.255 5.515.358-4.986.56-9.48 2.437-13.404 5.422-2.074 1.815-3.976 4.014-4.977 6.486l-.03.073s.034.007.062.001c.843.07 2.221.278 2.987.826 1.386-.232 2.99-.232 4.36-.057-5.541.46-17.376 4.858-21.644 15.479h.212c.052-.042.105-.089.156-.125 2.198-2.42 5.214-2.854 5.214-2.854-2.27 2.818-3.086 6.966-3.086 6.966-2.504-.356-4.932 1.677-6.386 3.23l-.027.085c-.255 1.24.085 2.453.823 3.241.892-2.642 4.541-4.087 6.925-3.467.454.056 1.107.17 1.362-.282.483-2.086 1.021-4.144 2.214-5.92.334-.38.63-.952 1.068-1.178.193-2.682 1.2-4.82 1.2-4.82.766-2.199 3.493-4.095 6.133-3.052 1.078-1.776 4.978-4.179 9.507-2.453.738-.564 2.494-1.387 3.86-1.381-2.128-2.002-4.881-2.622-7.52-3.468.709-.366 1.503-.48 2.327-.592 3.831-.62 7.066 1.1 10.755.987.994-.113 1.76-.818 2.271-1.636 1.59-3.214.284-6.794-1.816-9.332-.766-1.014-2.015-1.804-2.98-2.48 3.69-.085 7.067 1.579 9.763 4.003-1.348-6.254-11.203-8.211-11.203-8.211 4.598-1.225 5.584-7.587 4.763-10.85 0 0 2.956-1.305 7.887.2-1.9 1.41-3.519 3.383-4.143 5.272 3.065-2.594 6.981-3.862 10.756-5.16.13-.028.262-.053.393-.08a29.07 29.07 0 0 1 .08-3.279" fill="#00674E" fill-rule="nonzero"/><path d="M49.753 80.657a4.096 4.096 0 0 0-.578-.517c-.745-.417-1.249-.642-1.249-.642-1.38-1.445-3.972-1.438-5.363-1.1-1.516.474-2.835 1.612-3.359 3.138.161-.382 1.38-2.99 4.408-2.206 2.315.6 3.973 2.867 4.54 3.806.569.94-3.196 1.023-4.824 3.524 0 0 .095.156.324.485.383.55.699 1.148 1.408 1.148 1.987-1.127 4.258-2.509 6.727-1.606.083-1.916-.814-4.629-2.034-6.03" fill="#00674E" fill-rule="nonzero"/><path d="M32.627 81.732s-1.774 3.764-1.064 7.57c0 0 3.407-3.642 6.955-3.36 0 0-.74-8.734-5.891-4.21M54.763 85.2s1.052-1.782 3.323-1.782c2.27 0 3.69-1.41 1.42-2.537-2.271-1.127-6.574-3.208-11.58-1.383 0 0 5.006 2.234 6.837 5.702m-11.435 1.46s-.994-1.41-2.695-2.173l-1.448-2.904s1.163-3.099 4.427-2.253c2.315.6 3.973 2.867 4.54 3.806.569.94-3.196 1.023-4.824 3.524" fill="#009A68" fill-rule="nonzero"/><path d="M25.448 90.843s.816-4.148 3.086-6.966c0 0-3.016.435-5.214 2.854-1.483 1.056-3.434 4.664-4.258 7.341 1.454-1.552 3.882-3.585 6.386-3.23" fill="#009A68"/><path d="M40.236 71.434c-5.222.62-9.763 2.932-13.85 6.146-5.251 3.44-6.67 9.67-11.608 13.223 3.292-.057 7.14-3.306 8.174-3.947 4.268-10.62 16.103-15.019 21.644-15.479-1.37-.175-2.974-.175-4.36.057m22.21-31.463c-.185-.029-.37-.06-.555-.084-6.33-.423-12.09 1.155-17.058 4.342 0 0 2.468-.375 3.917.337-5.59 2.481-9.366 8.29-10.104 14.097 1.982-.608 4.257-1.143 6.502-1.213.528-6.026 4.533-11.916 9.643-14.183-1.642-.326-3.941-.082-3.941-.082 5.974-3.106 9.774-3.366 11.596-3.214M37.188 70.607c.993-2.502 2.912-4.726 5.006-6.559 3.925-2.985 8.418-4.863 13.404-5.422-.149-.103-5.812-.486-5.515-.358-5.278.451-10.017 2.368-14.133 5.498-2.384 2.086-4.54 4.68-5.364 7.612 2.125-.779 4.272-.797 6.602-.77" fill="#009A68" fill-rule="nonzero"/><path d="M82.438 45.3c1.42.704 2.61 1.691 3.548 3.072 1.025-.831 2.176-1.43 3.403-1.723a25.554 25.554 0 0 0-.838-1.836c-1.64-1.562-3.774-2.729-6.056-2.953 1.153.864 2.217 2.09 3.263 4.003-.936-.45-2.185-.817-3.32-.564" fill="#00674E" fill-rule="nonzero"/><path d="M78.095 48.542c.398 2.65.54 5.554 3.037 7.19l.823-2.03c.2-.621.738-1.1.824-1.749-3.605-4.144-4.65-10.775-3.02-16.881.236.029.502.137.785.296 8.264 3.274 11.13 9.62 11.571 10.439.71-.705 1.789-1.297 2.584-1.86-.454-.846-1.05-1.636-1.647-2.425-3.292-3.863-7.861-6.57-12.6-8.064-.964-.205-1.938-.46-2.922-.644-1.055 3.806-1.272 8.092-1.478 10.625.17 1.832.142 4.003 2.043 5.103m53.669-7.951c-1.561.508-3.178 1.072-4.57 1.805a5.99 5.99 0 0 1 .406-.837c-1.176 1.708-1.695 3.065-2.772 4.848.294.102.586.213.875.338h.001l-.014-.007c.994-.057 1.987.31 2.923.591.937-1.353 2.1-2.509 3.264-3.72-1.248.252-2.497.732-3.604 1.099 1.164-1.382 2.128-2.876 3.491-4.117" fill="#00674E" fill-rule="nonzero"/><path d="M136.347 30.761c-6.368 1.681-14.267 8.633-16.673 13.016.735.137 1.901.556 2.971 1.083.475-.882 4.224-7.33 11.39-10.02 1.033 3.893-.114 11.193-2.101 14.745.795.902 1.59 1.917 2.1 3.017 1.477-1.777 1.845-4.23 1.703-6.626.567-.535 1.25-1.24 1.617-1.974 1.244-3.166.304-8.954-1.007-13.24" fill="#00674E" fill-rule="nonzero"/><path d="M146.533 61.18c-1.873 1.777-4.29 2.467-6.749 2.467 3.18-2.397 4.75-5.52 5.744-9.072-2.371 1.778-6.386 1.381-7.804-.536 0 0 .75 3.23 4.37 3.513 0 0-2.461 4.721-5.11 6.413 0 0 2.483 2.279 5.89 1.339 0 0-3.874 7.062-13.02 9.207a8.845 8.845 0 0 0-.06-.209c-.567-1.879-3.452-3.148-5.723-3.007-2.706.168-5.39 2.48-5.39 2.48 2.014-1.128 5.335-1.918 7.35-.227 1.844 1.298 2.1 3.778 1.588 5.893-.352 1.617-1.42 3.013-2.796 3.963l-.003.002c-.449.31-.93.57-1.43.776l-.119.05a7.639 7.639 0 0 1-.972.303c-.058.013-.116.028-.174.04-.154.032-.31.06-.464.081-.468.024-.954.035-1.43.004-.137.287-1.966 4.008-5.649 5 2.709.407 5.142-1.3 6.567-3.425l.227-.225c4.797-.62 9.65-1.591 13.764-3.383 0 0-3.666 3.06-12.316 5.047-.965 1.578-2.242 2.903-3.974 3.664-2.611 3.61-2.242 8.514-5.08 11.955-1.12.8-2.364 1.332-3.677 1.635.001 1.211-.515 2.283-1.403 2.932 4.704-.372 7.423-3.279 8.23-5.724.285-1.747 1.051-3.27 1.42-4.933.624-1.946.936-4.06 2.44-5.582 1.518-1.755 4.303-3.293 6.707-3.72.258-.047.58-.04.989-.011.724-.028 6.309-.02 9.248 4.153-.88-2.597-3.245-4.854-6.017-5.638 15.217-5.687 14.96-21.812 14.826-25.225" fill="#009A68" fill-rule="nonzero"/><path d="M128.435 87.894c-1.59.281-3.54 2.43-4.334 3.557 4.314-1.128 9.62-1.776 13.623.592-3.294-4.678-9.917-4.122-9.289-4.149" fill="#00674E" fill-rule="nonzero"/><path d="M110.06 82.495c.453-.141.822-.451 1.22-.648 1.277-.818 3.001-1.053 3.74-2.575.283-1.156 1.333-2.087 1.106-3.411a1.111 1.111 0 0 0-.196-.11c-.69 1.14-1.815 2.84-2.643 3.297-1.277.706-4.54 1.974-4.54 1.974v2.107c.477-.113.888-.393 1.312-.634" fill="#009A68" fill-rule="nonzero"/><path d="M130.128 76.015c.048.452.07.952.045 1.48 2.712-.8 9.987-3.406 13.345-9.125 0 0-5.098 5.605-13.39 7.645m-.081 2.584a6.973 6.973 0 0 1-.571 1.775c9.856-2.423 13.276-7.268 13.276-7.268s-6.117 4.631-12.705 5.493m-1.257 2.882c-.562.73-1.329 1.4-2.372 1.94 7.3-.998 12.298-4.118 14.229-5.953-3.576 2.287-7.644 3.29-11.857 4.013m-37.184-7.707c1.475-.987 3.972-1.184 5.476-.112.284.169.568.282.824.507 0 0-2.381-2.901-5.763-2.686-2.65.17-4.444 2.099-5.108 3.947a5.95 5.95 0 0 0-.088.265c-5.707-1.591-14.89-8.059-14.89-8.059s6.496 6.681 14.618 9.344a8.622 8.622 0 0 0-.063 1.528c-4.856-1.082-13.005-6.061-13.005-6.061s5.57 5.132 13.19 7.428c.133.575.342 1.15.645 1.702-2.708-.818-8.559-2.702-12.306-4.761 2.947 2.724 10.582 5.962 13.84 6.585 1.258 1.019 3.118 1.764 5.828 1.944a6.927 6.927 0 0 1-.872-.209c-2.838-.874-4.598-3.524-4.967-6.371-.084-2.058.795-4.145 2.64-4.99" fill="#FFF" fill-rule="nonzero"/><path d="M121.376 86.01l-.227.225c-1.532 2.285-4.229 4.088-7.18 3.3-.967-.29-2.724-.537-2.355-2.087 1.56-1.72 3.547-3.017 5.79-3.355-.087-.564-.71-.959-1.108-1.156.483-.677.767-1.41.624-2.34-.028-2.256 1.448-4.37 3.52-5.159 1.078-.423 2.44-.93 3.434-.226.227 1.777-3.056 3.492-4.314 4.117.823.14 3.116-.027 4.2-.62-1.192 1.353-2.923 2.565-4.71 2.874.424.367 2.873.662 3.83.367-1.277 1.24-2.895 1.833-4.54 2.199.936.564 2.185.564 3.32.507 2.725-.366 5.364-2.48 5.96-5.215.512-2.115.255-4.595-1.59-5.893-2.014-1.69-5.335-.901-7.35.226-.426.31-.397-.338-.454-.535-.198-.367-.454-.677-.937-.62-2.241.76-4.086 2.988-4.966 5.046l1.646-1.41c.596-.366 1.448-.901 2.157-.394.227 1.324-.823 2.255-1.106 3.411-.739 1.522-2.463 1.757-3.74 2.575-.398.197-.767.507-1.22.648-.596.338-1.165.761-1.931.676-1.476-.479-2.781-1.324-4.314-1.663-1.646-.817-1.737-2.349-2.362-3.786-.142-.396-.454-.875-.17-1.298.273-.43 2.1.96 2.867 1.692-.75-2.333-3.918-5.152-5.251-5.103-.568.085-.851.705-.993 1.156-.256-.225-.54-.338-.824-.507-1.504-1.072-4.001-.875-5.476.112-1.846.846-2.725 2.933-2.64 4.99.368 2.848 2.128 5.498 4.966 6.372 1.38.424 2.867.48 3.803-.592-.738-.113-1.475-.254-2.1-.564-.936-.395-2.015-.874-2.526-1.692 1.181.355 3.094.283 4.087-.056-1.618-.62-3.32-1.635-4.541-2.96l.057-.056c1.192.535 2.64.648 4.03.591-1.387-.674-3.633-2.988-3.69-3.665 1.193-1.127 3.378-.62 4.683 0 2.867 1.297 1.461 6.025 3.153 6.913l-1.223 1.49c1.845-.198 3.35.9 4.768 1.747.756.622 1.448 1.325 1.59 2.312-.793 1.312-2.75 1.904-5.563 1.41-1.561-.283-3.066-1.777-3.548-3.327-5.874.31-10.52-1.402-15.97-3.94 4.001 3.384 8.94 5.075 13.586 5.631.23 1.02 1.731 2.891 3.207 3.552 1.193 3.186 1.504 6.907 2.782 10.15.823 1.663 2.639 2.65 4.4 2.96 3.177.508 6.328.056 8.854-1.747 2.837-3.44 2.468-8.346 5.079-11.955 1.732-.761 3.009-2.086 3.974-3.664 8.65-1.986 12.316-5.047 12.316-5.047-4.113 1.792-8.967 2.763-13.764 3.383" fill="#231F20" fill-rule="nonzero"/><path d="M114.707 82.175c.255 1.777-1.901 1.58-2.867 2.37-1.134.732-2.27 1.437-3.32 2.339-1.703-1.353-3.775-2.735-5.818-3.552.113-.198.113-.48.397-.564 1.959.338 3.576 1.522 5.364 2.311 1.901-.873 3.718-2.142 5.62-3.13.227-.027.482-.027.624.226" fill="#B4B3B3" fill-rule="nonzero"/><path d="M109.57 94.13c.568.423 1.587 1.223 1.587 1.223.33-.14.826-.49 1.052-.66.454 1.918-.595 3.496-1.872 4.596a20.46 20.46 0 0 1-1.108-.682l-1.532 1.499c-.568-.479-1.22-1.635-1.22-1.635-.625-.056-1.448.93-1.448.93-.965-1.155-1.533-3.073-.767-4.454.39.383 1.526.7 1.526.7.497-.353 1.171-1.123 1.171-1.123 1.107.902.482 2.51.993 3.665.454-1.155.404-2.366 1.029-3.493.283-.106.59-.567.59-.567" fill="#D82342" fill-rule="nonzero"/><path d="M106.704 39.774c-3.777-1.676-7.552-.908-10.842-.057.51.655 1.093 1.31 1.679 1.982 5.845-2.104 9.502.84 9.502.84s5.335-2.787 9.55-.533a50.042 50.042 0 0 1 1.974-2.852c-1.788-.677-8.998-1.393-11.863.62" fill="#009A68" fill-rule="nonzero"/><path d="M100.347 45.694c-2.91-.623-5.005-.535-7.298-.066-.324.074-.564.113-.934.179-.454-.846-3.487-7.565-12.356-10.735 5.801 4.817 7.973 7.354 9.827 12.064-4.98 3.283-5.814 9.694-5.814 9.694 1.763-3.127 3.772-5.371 5.769-6.991-4.39 8.478-.093 13.138-.093 13.138.238-.801 2.384-2.312 2.384-2.312-2.797-3.458-1.857-8.655-.844-11.898 4.911-3.3 9.359-3.073 9.359-3.073m24.434.792c-.66-.523-1.378-1.213-2.142-1.615.454-.846 4.205-7.332 11.395-10.03-7.19 6.239-7.078 8.074-9.253 11.645" fill="#009A68"/><path d="M123.706 46.07a30.745 30.745 0 0 0-1.377-.279c-3.375-.522-6.633.076-8.02.552 5.191.29 9.15 2.296 11.633 4.01l.021.06c-1.549 10.572-12.967 13.348-12.967 13.348-.283 1.973-2.548 4.574-2.548 4.574 1.089 1.561.444 5.691.285 6.82 1.879-1.816 2.158-4.537 1.42-6.794 1.879-1.224 2.378-3.337 2.378-3.337 3.799-.948 7.535-3.514 10.628-6.126.544.401 1.985 1.514 2.177 2.161 0 0 2.332-4.31.75-9.02 1.656 1.186 4.274 5.384 4.274 5.384-.523-7.303-4.498-10.308-8.654-11.354" fill="#009A68" fill-rule="nonzero"/><path d="M114.42 92.224c-1.942-.32-4.625-1.33-5.843-2.972l-.34.817c-1.228 2.232-3.617 2.83-6.001 2.784-.215 1.054-.338 2.841.636 4.35-.256-1.495.085-2.848.795-4.004.584.346 1.192.733 1.872.818.598-.423 1.1-.99 1.534-1.523 0 0 .796.815 1.245 1.003.568-.188.946-.822 1.252-1.228.596.507 1.163 1.043 1.816 1.381.454-.254.909-.62 1.39-.789.598.676 1.124 2.304 1.193 3.467 0 0 1.05-1.858.45-4.104m-9.328 10.856c.33.056.663.097.992.136l.2.02c1.25-.013 2.588.141 3.813-.019.914-.475 2.78-1.832 2.936-5.028-.454 1.269-1.503 2.313-2.526 3.186 0 0-.816-.83-1.39-.986l-1.475 1.325s-.739-.988-1.278-1.325c-.51.084-1.164.874-1.164.874-1.418-.395-2.497-1.918-3.094-3.13 0 0 .32 4.276 2.986 4.947" fill="#B4B3B3" fill-rule="nonzero"/><path d="M97.85 66.152c-.411.788-1.005 1.016-1.523 1.016a1.537 1.537 0 0 1-1.542-1.532c0-.11.019-.285.043-.41a7.5 7.5 0 0 1-.92-.563 2.57 2.57 0 0 0-.192.973 2.603 2.603 0 0 0 2.611 2.595c1.09 0 2.11-.631 2.578-1.97-.178-.024-.556-.043-1.054-.11m25.201-1.565a2.563 2.563 0 0 0-.391-.912 8.345 8.345 0 0 1-.779.75c.05.117.102.278.125.383a1.533 1.533 0 0 1-1.187 1.817c-.513.108-1.181-.055-1.524-.645-.49.2-.872.315-1.05.38.494 1.097 1.73 1.53 2.796 1.304a2.594 2.594 0 0 0 2.01-3.077m-20.816 28.267a15.389 15.389 0 0 1-1.862-.202c.091 1.518 1.42 3.875 2.498 4.552-.974-1.509-.85-3.296-.636-4.35m13.692-.528c-.392.033-.918-.004-1.51-.101h.002c.6 2.246-.45 4.104-.45 4.104 1.183-1.045 2.156-2.283 1.958-4.003m-10.837 10.755s-.149-.041-.22-.066c-2.463-.844-2.766-4.881-2.766-4.881-.454 1.026-.596 2.436.342 3.468.577.899 1.468 1.252 2.424 1.44.094.02.22.039.22.039m7.941-4.89c-.15 3.067-1.875 4.44-2.822 4.966l-.114.061s.077-.011.145-.018c.855-.131 1.648-.429 2.31-1.063.88-1.043 1.067-2.46.481-3.947" fill="#FFF" fill-rule="nonzero"/><path d="M88.094 82.456l.882.945c1.258 1.019 3.118 1.764 5.828 1.944a6.927 6.927 0 0 1-.872-.209c-2.838-.874-4.598-3.524-4.967-6.371-.084-2.058.795-4.145 2.64-4.99 1.476-.988 3.973-1.185 5.477-.113.284.169.568.282.824.507 0 0-2.381-2.901-5.763-2.686-2.65.17-4.444 2.099-5.108 3.947a5.95 5.95 0 0 0-.088.265l-.272 1.285a8.622 8.622 0 0 0-.063 1.528l.185 1.367c.133.575.342 1.15.645 1.702l.652.879" fill="#009A68" fill-rule="nonzero"/></g></svg>