<svg width="200" height="200" xmlns="http://www.w3.org/2000/svg"><g fill="none"><path d="M198.21 109.54s-2.059 7.61-2.059 9.366c0 1.76-4.13 8.786-10.6 10.248 0 0-1.186 6.439-18.264 8.197-17.084 1.76-20.322-5.56-22.977-10.25 0 0-12.957-9.37-24.442-14.631 0 0-10.707 2.045-20.981.132 1.13 4.041 10.075 31.836 49.13 44.636l6.22 2.044s-25.82 23.454-70.52 23.454c-27.295 0-51.504-10.159-66.384-27.136-10.954-12.493-15.875-28.515-13.836-43.88 1.346-10.196 5.654-20.094 12.57-29.108H0s18.27-25.76 59.5-43.616c0 0-7.956-4.105-17.969-6.444 0 0 24.153-10.829 62.435-7.316l-5.593-6.151s13.845 3.516 30.332 9.66l-5.892-6.144s34.11.032 37.947 30.772c0 0 11.573 5.747 9.42 18.605 0 0 15.664 15.903 17.721 16.781 0 0 17.081 5.266 10.308 20.781" fill="#FFF"/><path d="M160.921 126.392c-4.987-6.126-15.49-10.493-15.49-10.493l7.752.169s5.259 2.07 11.882 7.794c0 0 8.03 1.486 14.363.88 0 0-7.438 3.418-18.507 1.65zM135.095 95.22c-2.874 2.516-6.037 4.523-9.953 5.322 3.26-1.636 6.1-4.878 7.864-8.008 1.76-3.612 2.016-7.374.27-10.266 2.64 1.97 3.993 5.099 3.915 8.641 6.099 3.322 15.98 9.928 20.313 14.762l-3.347-2.512c-4.578-2.223-12.849-8.236-17.857-9.482l-1.205 1.543zm-11.62-28.325c3.142 4 8.63 6.591 13.614 8.464-4.452 2.18-8.984 2.719-12.381.4-1.988-2.1-2.996-5.705-1.233-8.864zm46.197 39.706c.214-.909 1.35-1.16 2.235-1.407 3.405.417 5.616 3.108 6.229 5.393-.901-1.356-2.339-2.775-4.323-3.27-.754-.13-1.975.037-2.43.796-.874 1.507-.173 2.989.41 4.123-1.175-1.624-2.4-3.341-2.121-5.635zm-56.807-50.97l-1.442-1.131c-1.828-1.45-5.125-.282-7.282.342-.356-2.847-1.57-5.582-3.694-7.15 1.743.318 3.104 1.294 4.342 2.285.266.058.404-.175.564-.341-1.197-3.425-5.528-5.692-8.776-7.365 5.076.907 10.641 2.366 14.35 5.489 1.823 2.104 2.876 4.831 1.938 7.872zM75.77 167.743c-13.559-.647-24.706-6.447-24.706-6.447-13.28-39.83 7.336-71.104 7.336-71.104s-15.079 44.879 17.37 77.551zm110.201-75.715s-13.787-12.682-20.674-19.343c0 0 5.206-9.462-8.555-17.532 0-6.53-2.43-19.1-23.331-26.261 0 0-3.602-1.111-.329.585 7.713 3.999 19.243 11.763 17.78 27.237 0 0 15.802 7.42 4.364 12.553 14.278 11.946 26.9 26.59 26.9 26.59 10.976 2.508 8.596 7.403 8.596 7.403.116 1.793-1.03 5.691-1.18 8.999-.144 3.304-4.397 9.214-3.418 4.214.988-5-.28-6.325-.28-6.325s.593 2.843-2.755 6.92c-3.347 4.092-1.758-.362-1.758-.362 5.89-17.11-8.777-18.233-11.86-18.306-3.098-.07-4.404-2.984-4.404-2.984-7.005-10.183-23.424-20.846-23.424-20.846 4.728-.753 6.244-4.515 6.244-4.515-4.382 1.83-10.972 2.192-16.59-4.426-5.637-6.619-14.733-8.255-14.733-8.255 7.734-12.265-8.529-17.346-17.634-17.742-9.108-.398-11.525-5.696-11.525-5.696 6.307 4.196 10.487 2.834 26.192 5.171 15.703 2.328 9.737 15.857 9.737 15.857 8.048.897 14.07 5.771 14.07 5.771s7.385 6.935 8.833.304c3.513-16.129-11.215-24.741-11.215-24.741-7.997-4.579-24.48-9.66-24.48-9.66 1.339 1.458 2.668 4.17 2.668 4.17-29.563-7.081-58.608 1.735-58.608 1.735 2.62.676 6.695 2.591 9.924 4.235l15.747 1.116c-7.594.882-14.92 2.943-21.815 5.69C38.504 52.167 23.352 64.407 15.18 71.96c-4.358 4.054-6.816 6.786-6.816 6.786l8.855-.15c23.407-26.136 57.71-31.94 57.71-31.94s-30.672 10.112-51.033 31.83l.182-.002c-5.274 5.47-9.527 11.42-12.55 17.783a69.086 69.086 0 0 0-1.055 2.356c-1.822 4.332-3.079 8.833-3.696 13.497-4.728 35.667 29.733 66.862 76.97 67.32 10.778.103 21.485-1.441 31.436-4.22-41.27-25.28-36.942-58.097-36.942-58.097s1.377 4.54 4.719 10.849c6.349 11.526 20.298 30.763 48.698 41.228 1.929-.861 8.289-3.87 15.325-8.837-44.553-15.56-51.048-45.343-51.048-45.343-15.66.048-21.516-7.826-22.465-9.139a4.717 4.717 0 0 0-.127-.19C65.104 114.257 64.208 125 64.208 125c-1.326-13.727 2.345-22.848 5.36-27.836-2.197-7.576 1.157-15.21 1.157-15.21s-.538 4.067 2.033 9.85c.153.358.337.708.337.708 9.856 20.738 47.703 16.053 47.703 16.053 9.852 4.357 26.811 15.978 26.811 15.978 1.798 8.036 11.296 9.618 11.296 9.618s21.769-.215 23.707-8.13c7.638-1.452 9.705-8.173 9.705-8.173.207-2.003 3.102-12.905 3.102-12.905 2.47-9.267-9.448-12.926-9.448-12.926z" fill="#1E59AE"/><path d="M137.09 75.359c-4.984-1.873-10.473-4.464-13.615-8.464-1.763 3.159-.755 6.764 1.233 8.863 3.397 2.32 7.929 1.78 12.381-.4" fill="#FFF"/><path d="M165.065 123.862c-6.623-5.724-11.882-7.794-11.882-7.794l-7.753-.169s10.504 4.367 15.491 10.493c11.069 1.768 18.507-1.65 18.507-1.65-6.333.606-14.363-.88-14.363-.88" fill="#F3632A"/><path d="M195.42 104.953s-2.896 10.902-3.103 12.905c0 0-2.067 6.72-9.705 8.173-1.938 7.915-23.707 8.13-23.707 8.13s-9.498-1.582-11.296-9.618c0 0-16.96-11.62-26.811-15.978 0 0-37.847 4.685-47.703-16.053 0 0-.184-.35-.337-.707-2.571-5.784-2.033-9.85-2.033-9.85s-3.354 7.633-1.157 15.209c-3.015 4.988-6.686 14.11-5.36 27.836 0 0 .897-10.743 9.136-19.308 0 0 .052.073.127.19.95 1.313 6.805 9.187 22.465 9.139 0 0 6.495 29.783 51.048 45.343-7.036 4.966-13.396 7.976-15.325 8.837-28.4-10.465-42.35-29.702-48.698-41.228-3.342-6.309-4.719-10.85-4.719-10.85s-4.327 32.819 36.942 58.097c-9.951 2.78-20.658 4.324-31.435 4.221-47.238-.458-81.7-31.653-76.971-67.32.617-4.664 1.874-9.165 3.696-13.497a68.68 68.68 0 0 1 1.054-2.356c3.024-6.362 7.277-12.313 12.551-17.783l-.182.002c20.36-21.718 51.034-31.83 51.034-31.83S40.627 52.46 17.22 78.597l-8.855.15s2.458-2.732 6.816-6.786c8.17-7.553 23.323-19.793 43.277-28.379 6.895-2.746 14.22-4.807 21.815-5.689l-15.747-1.116c-3.23-1.644-7.305-3.559-9.924-4.235 0 0 29.045-8.816 58.608-1.734 0 0-1.33-2.713-2.667-4.171 0 0 16.482 5.081 24.479 9.66 0 0 14.728 8.612 11.215 24.741-1.448 6.631-8.833-.304-8.833-.304s-6.022-4.874-14.07-5.771c0 0 5.966-13.53-9.737-15.857-15.705-2.337-19.885-.975-26.192-5.171 0 0 2.417 5.298 11.525 5.696 9.105.396 25.368 5.477 17.634 17.742 0 0 9.096 1.636 14.733 8.255 5.618 6.618 12.208 6.255 16.59 4.426 0 0-1.516 3.762-6.244 4.515 0 0 16.42 10.663 23.424 20.846 0 0 1.306 2.914 4.404 2.984 3.083.073 17.75 1.197 11.86 18.306 0 0-1.589 4.454 1.758.361 3.348-4.076 2.755-6.919 2.755-6.919s1.268 1.326.28 6.325c-.98 5 3.274-.91 3.419-4.214.148-3.308 1.295-7.206 1.179-9 0 0 2.38-4.894-8.595-7.402 0 0-12.623-14.644-26.9-26.59 11.437-5.133-4.365-12.553-4.365-12.553 1.463-15.474-10.067-23.238-17.78-27.237-3.273-1.696.329-.585.329-.585 20.901 7.16 23.33 19.731 23.33 26.26 13.762 8.07 8.556 17.533 8.556 17.533 6.887 6.66 20.674 19.343 20.674 19.343s11.918 3.66 9.448 12.926zM187.9 88.76c-2.057-.878-17.722-16.78-17.722-16.78 2.154-12.859-9.42-18.606-9.42-18.606-3.836-30.74-37.946-30.772-37.946-30.772l5.892 6.144c-16.487-6.144-30.332-9.66-30.332-9.66l5.593 6.151c-38.282-3.513-62.435 7.316-62.435 7.316 10.013 2.339 17.97 6.444 17.97 6.444C18.269 56.853 0 82.612 0 82.612h16.065C9.15 91.626 4.842 101.524 3.495 111.72c-2.038 15.365 2.883 31.387 13.837 43.88 14.88 16.977 39.09 27.136 66.384 27.136 44.7 0 70.52-23.454 70.52-23.454l-6.22-2.044c-39.055-12.8-48-40.595-49.13-44.636 10.274 1.913 20.981-.132 20.981-.132 11.485 5.26 24.442 14.631 24.442 14.631 2.655 4.69 5.893 12.01 22.977 10.25 17.078-1.758 18.263-8.197 18.263-8.197 6.472-1.462 10.601-8.488 10.601-10.248 0-1.756 2.058-9.366 2.058-9.366 6.773-15.515-10.308-20.781-10.308-20.781z" fill="#F3632A"/><path d="M58.4 90.19s-20.616 31.275-7.336 71.105c0 0 11.147 5.8 24.706 6.447C43.321 135.07 58.4 90.191 58.4 90.191m113.507 15.003c-.884.248-2.021.498-2.235 1.407-.28 2.294.946 4.011 2.121 5.635-.583-1.134-1.284-2.616-.41-4.123.455-.76 1.676-.926 2.43-.796 1.984.495 3.422 1.914 4.323 3.27-.613-2.285-2.824-4.976-6.23-5.393M96.577 42.271c3.248 1.673 7.579 3.94 8.776 7.365-.16.166-.298.4-.564.34-1.238-.99-2.599-1.966-4.342-2.284 2.125 1.568 3.338 4.303 3.694 7.15 2.157-.624 5.454-1.791 7.282-.342l1.442 1.132c.938-3.041-.115-5.768-1.938-7.872-3.709-3.123-9.274-4.582-14.35-5.489m40.614 48.638c.078-3.542-1.276-6.672-3.914-8.64 1.745 2.891 1.49 6.653-.271 10.265-1.765 3.13-4.604 6.372-7.864 8.008 3.916-.799 7.079-2.806 9.953-5.322l1.205-1.543c5.008 1.246 13.28 7.259 17.857 9.482l3.347 2.512c-4.332-4.834-14.214-11.44-20.313-14.762" fill="#F3632A"/></g></svg>