<svg width="200" height="200" xmlns="http://www.w3.org/2000/svg"><g fill-rule="nonzero" fill="none"><path d="M198.21 109.187s-2.059 7.657-2.059 9.423c0 1.77-4.13 8.84-10.6 10.311 0 0-1.186 6.478-18.264 8.247-17.084 1.77-20.322-5.594-22.977-10.313 0 0-12.957-9.427-24.442-14.72 0 0-10.707 2.058-20.981.133 1.13 4.066 10.075 32.03 49.13 44.908l6.22 2.056s-25.82 23.597-70.52 23.597c-27.295 0-51.504-10.22-66.384-27.301-10.954-12.57-15.875-28.689-13.836-44.147 1.346-10.259 5.654-20.217 12.57-29.286H0S18.27 56.18 59.5 38.213c0 0-7.956-4.13-17.969-6.483 0 0 24.153-10.895 62.435-7.36l-5.593-6.19s13.845 3.538 30.332 9.72l-5.892-6.182s34.11.032 37.947 30.96c0 0 11.573 5.782 9.42 18.718 0 0 15.664 16 17.721 16.884 0 0 17.081 5.297 10.308 20.907" fill="#FFF"/><path d="M160.921 126.142c-4.987-6.163-15.49-10.557-15.49-10.557l7.752.17s5.259 2.083 11.882 7.841c0 0 8.03 1.495 14.363.886 0 0-7.438 3.439-18.507 1.66ZM135.095 94.78c-2.874 2.531-6.037 4.55-9.953 5.355 3.26-1.646 6.1-4.908 7.864-8.057 1.76-3.634 2.016-7.42.27-10.33 2.64 1.982 3.993 5.131 3.915 8.695 6.099 3.341 15.98 9.988 20.313 14.852l-3.347-2.528c-4.578-2.237-12.849-8.286-17.857-9.54l-1.205 1.553Zm-11.62-28.498c3.142 4.025 8.63 6.631 13.614 8.515-4.452 2.194-8.984 2.736-12.381.402-1.988-2.112-2.996-5.739-1.233-8.917Zm46.197 39.948c.214-.914 1.35-1.166 2.235-1.415 3.405.42 5.616 3.126 6.229 5.425-.901-1.364-2.339-2.791-4.323-3.29-.754-.13-1.975.038-2.43.801-.874 1.516-.173 3.007.41 4.148-1.175-1.633-2.4-3.36-2.121-5.67Zm-56.807-51.28-1.442-1.138c-1.828-1.458-5.125-.285-7.282.344-.356-2.865-1.57-5.617-3.694-7.194 1.743.32 3.104 1.302 4.342 2.298.266.06.404-.175.564-.343-1.197-3.445-5.528-5.726-8.776-7.409 5.076.912 10.641 2.38 14.35 5.522 1.823 2.117 2.876 4.86 1.938 7.92ZM75.77 167.744c-13.559-.65-24.706-6.486-24.706-6.486C37.784 121.184 58.4 89.72 58.4 89.72s-15.079 45.152 17.37 78.024Zm110.201-76.177s-13.787-12.76-20.674-19.46c0 0 5.206-9.52-8.555-17.64 0-6.569-2.43-19.217-23.331-26.42 0 0-3.602-1.119-.329.588 7.713 4.023 19.243 11.835 17.78 27.403 0 0 15.802 7.466 4.364 12.63 14.278 12.019 26.9 26.752 26.9 26.752 10.976 2.523 8.596 7.447 8.596 7.447.116 1.804-1.03 5.727-1.18 9.054-.144 3.325-4.397 9.271-3.418 4.24.988-5.03-.28-6.363-.28-6.363s.593 2.86-2.755 6.962c-3.347 4.117-1.758-.364-1.758-.364 5.89-17.214-8.777-18.345-11.86-18.418-3.098-.07-4.404-3.002-4.404-3.002-7.005-10.245-23.424-20.973-23.424-20.973 4.728-.758 6.244-4.543 6.244-4.543-4.382 1.84-10.972 2.206-16.59-4.452-5.637-6.66-14.733-8.306-14.733-8.306 7.734-12.34-8.529-17.451-17.634-17.85-9.108-.4-11.525-5.731-11.525-5.731 6.307 4.222 10.487 2.852 26.192 5.203 15.703 2.342 9.737 15.953 9.737 15.953 8.048.903 14.07 5.807 14.07 5.807s7.385 6.977 8.833.306c3.513-16.228-11.215-24.892-11.215-24.892-7.997-4.607-24.48-9.72-24.48-9.72 1.339 1.468 2.668 4.197 2.668 4.197-29.563-7.126-58.608 1.745-58.608 1.745 2.62.68 6.695 2.607 9.924 4.26l15.747 1.124c-7.594.887-14.92 2.96-21.815 5.723C38.504 51.465 23.352 63.78 15.18 71.38c-4.358 4.079-6.816 6.827-6.816 6.827l8.855-.151C40.627 51.76 74.93 45.92 74.93 45.92S44.259 56.094 23.898 77.945l.182-.002c-5.274 5.503-9.527 11.49-12.55 17.891a69.72 69.72 0 0 0-1.055 2.37c-1.822 4.359-3.079 8.887-3.696 13.58-4.728 35.885 29.733 67.27 76.97 67.73 10.778.104 21.485-1.45 31.436-4.246-41.27-25.433-36.942-58.451-36.942-58.451s1.377 4.569 4.719 10.915c6.349 11.597 20.298 30.952 48.698 41.48 1.929-.867 8.289-3.894 15.325-8.89-44.553-15.655-51.048-45.62-51.048-45.62-15.66.048-21.516-7.874-22.465-9.195-.075-.118-.127-.191-.127-.191-8.24 8.617-9.136 19.426-9.136 19.426-1.326-13.811 2.345-22.988 5.36-28.006-2.197-7.622 1.157-15.303 1.157-15.303s-.538 4.092 2.033 9.91c.153.36.337.712.337.712 9.856 20.865 47.703 16.151 47.703 16.151 9.852 4.384 26.811 16.076 26.811 16.076 1.798 8.085 11.296 9.676 11.296 9.676s21.769-.216 23.707-8.18c7.638-1.46 9.705-8.223 9.705-8.223.207-2.014 3.102-12.983 3.102-12.983 2.47-9.323-9.448-13.005-9.448-13.005Z" fill="#1E59AE"/><path d="M137.09 74.797c-4.984-1.884-10.473-4.49-13.615-8.515-1.763 3.178-.755 6.805 1.233 8.917 3.397 2.334 7.929 1.792 12.381-.402" fill="#FFF"/><path d="M165.065 123.596c-6.623-5.758-11.882-7.841-11.882-7.841l-7.753-.17s10.504 4.394 15.491 10.557c11.069 1.779 18.507-1.66 18.507-1.66-6.333.61-14.363-.886-14.363-.886" fill="#F3632A"/><path d="M195.42 104.572s-2.896 10.969-3.103 12.983c0 0-2.067 6.762-9.705 8.224-1.938 7.963-23.707 8.18-23.707 8.18s-9.498-1.592-11.296-9.677c0 0-16.96-11.692-26.811-16.076 0 0-37.847 4.714-47.703-16.15 0 0-.184-.353-.337-.712-2.571-5.82-2.033-9.91-2.033-9.91s-3.354 7.68-1.157 15.302c-3.015 5.018-6.686 14.195-5.36 28.006 0 0 .897-10.81 9.136-19.426 0 0 .052.073.127.191.95 1.321 6.805 9.243 22.465 9.195 0 0 6.495 29.965 51.048 45.62-7.036 4.996-13.396 8.023-15.325 8.89-28.4-10.528-42.35-29.883-48.698-41.48-3.342-6.346-4.719-10.915-4.719-10.915s-4.327 33.018 36.942 58.451c-9.951 2.797-20.658 4.35-31.435 4.247-47.238-.461-81.7-31.846-76.971-67.73.617-4.694 1.874-9.222 3.696-13.58a69.72 69.72 0 0 1 1.054-2.37c3.024-6.402 7.277-12.389 12.551-17.892l-.182.002C44.257 56.095 74.93 45.92 74.93 45.92S40.627 51.76 17.22 78.055l-8.855.151s2.458-2.748 6.816-6.827c8.17-7.6 23.323-19.914 43.277-28.552 6.895-2.763 14.22-4.836 21.815-5.723L64.526 35.98c-3.23-1.654-7.305-3.581-9.924-4.261 0 0 29.045-8.87 58.608-1.745 0 0-1.33-2.73-2.667-4.197 0 0 16.482 5.113 24.479 9.72 0 0 14.728 8.664 11.215 24.892-1.448 6.67-8.833-.306-8.833-.306s-6.022-4.904-14.07-5.807c0 0 5.966-13.611-9.737-15.953-15.705-2.351-19.885-.98-26.192-5.203 0 0 2.417 5.33 11.525 5.731 9.105.399 25.368 5.51 17.634 17.85 0 0 9.096 1.646 14.733 8.306 5.618 6.658 12.208 6.293 16.59 4.452 0 0-1.516 3.785-6.244 4.543 0 0 16.42 10.728 23.424 20.973 0 0 1.306 2.932 4.404 3.002 3.083.073 17.75 1.204 11.86 18.418 0 0-1.589 4.48 1.758.364 3.348-4.102 2.755-6.962 2.755-6.962s1.268 1.334.28 6.363c-.98 5.031 3.274-.915 3.419-4.24.148-3.327 1.295-7.25 1.179-9.054 0 0 2.38-4.924-8.595-7.447 0 0-12.623-14.733-26.9-26.753 11.437-5.163-4.365-12.629-4.365-12.629 1.463-15.568-10.067-23.38-17.78-27.403-3.273-1.707.329-.589.329-.589 20.901 7.204 23.33 19.852 23.33 26.421 13.762 8.12 8.556 17.64 8.556 17.64 6.887 6.7 20.674 19.46 20.674 19.46s11.918 3.682 9.448 13.005ZM187.9 88.28c-2.057-.884-17.722-16.884-17.722-16.884 2.154-12.936-9.42-18.719-9.42-18.719-3.836-30.927-37.946-30.959-37.946-30.959l5.892 6.182c-16.487-6.182-30.332-9.72-30.332-9.72l5.593 6.19c-38.282-3.535-62.435 7.36-62.435 7.36 10.013 2.353 17.97 6.483 17.97 6.483C18.269 56.179 0 82.095 0 82.095h16.065c-6.915 9.069-11.223 19.027-12.57 29.286-2.038 15.458 2.883 31.577 13.837 44.147 14.88 17.081 39.09 27.301 66.384 27.301 44.7 0 70.52-23.597 70.52-23.597l-6.22-2.056c-39.055-12.878-48-40.842-49.13-44.908 10.274 1.925 20.981-.133 20.981-.133 11.485 5.293 24.442 14.72 24.442 14.72 2.655 4.719 5.893 12.083 22.977 10.313 17.078-1.77 18.263-8.247 18.263-8.247 6.472-1.47 10.601-8.54 10.601-10.31 0-1.767 2.058-9.424 2.058-9.424 6.773-15.61-10.308-20.907-10.308-20.907Z" fill="#F3632A"/><path d="M58.4 89.72s-20.616 31.464-7.336 71.538c0 0 11.147 5.835 24.706 6.486C43.321 134.872 58.4 89.72 58.4 89.72M171.907 104.815c-.884.249-2.021.5-2.235 1.415-.28 2.308.946 4.036 2.121 5.67-.583-1.142-1.284-2.633-.41-4.149.455-.763 1.676-.93 2.43-.8 1.984.498 3.422 1.925 4.323 3.29-.613-2.3-2.824-5.006-6.23-5.426M96.577 41.508c3.248 1.683 7.579 3.964 8.776 7.41-.16.167-.298.402-.564.342-1.238-.996-2.599-1.978-4.342-2.298 2.125 1.577 3.338 4.33 3.694 7.194 2.157-.629 5.454-1.802 7.282-.344l1.442 1.138c.938-3.06-.115-5.803-1.938-7.92-3.709-3.142-9.274-4.61-14.35-5.522M137.191 90.443c.078-3.564-1.276-6.713-3.914-8.694 1.745 2.91 1.49 6.695-.271 10.329-1.765 3.149-4.604 6.41-7.864 8.057 3.916-.804 7.079-2.824 9.953-5.355l1.205-1.552c5.008 1.253 13.28 7.302 17.857 9.539l3.347 2.528c-4.332-4.864-14.214-11.51-20.313-14.852" fill="#F3632A"/></g></svg>