<?xml version="1.0" encoding="UTF-8"?>
<svg width="200px" height="200px" viewBox="0 0 200 200" version="1.1" xmlns="http://www.w3.org/2000/svg" xmlns:xlink="http://www.w3.org/1999/xlink">
    <!-- Generator: Sketch 51.3 (57544) - http://www.bohemiancoding.com/sketch -->
    <title>boise-st</title>
    <desc>Created with Sketch.</desc>
    <defs></defs>
    <g id="boise-st" stroke="none" stroke-width="1" fill="none" fill-rule="evenodd">
        <g id="boise-st_BGL" transform="translate(0.000000, 18.905473)">
            <g id="boise-st">
                <g id="g10" transform="translate(99.969995, 82.001046) scale(-1, 1) rotate(-180.000000) translate(-99.969995, -82.001046) translate(0.000000, 0.171775)" fill-rule="nonzero">
                    <g id="g12">
                        <path d="M198.209416,73.1956872 C198.209416,73.1956872 196.15145,65.5853263 196.15145,63.8299334 C196.15145,62.0702462 192.021597,55.0434259 185.55031,53.5814732 C185.55031,53.5814732 184.364832,47.1429648 167.287125,45.384709 C150.202937,43.6247832 146.964773,50.9450438 144.310347,55.6348392 C144.310347,55.6348392 131.353132,65.0051258 119.867984,70.2658176 C119.867984,70.2658176 109.161473,68.2203243 98.8867662,70.1338887 C100.017759,66.0927633 108.962013,38.2975306 148.016078,25.4980488 L154.23726,23.4542494 C154.23726,23.4542494 128.417879,0 83.7167696,0 C56.4222008,0 32.2126605,10.1583049 17.3329249,27.1358271 C6.37882972,39.6292245 1.45777134,55.6505848 3.49657357,71.0154023 C4.84286817,81.212093 9.1512989,91.1100949 16.0663182,100.123482 L9.37593736e-05,100.123482 C9.37593736e-05,100.123482 18.2692105,125.883003 59.5007486,143.740154 C59.5007486,143.740154 51.5441931,147.845216 41.5313521,150.183911 C41.5313521,150.183911 65.6837667,161.012571 103.965674,157.4994 L98.3731149,163.650909 C98.3731149,163.650909 112.217699,160.134398 128.705187,153.990522 L122.812598,160.134398 C122.812598,160.134398 156.923368,160.102668 160.759672,129.363252 C160.759672,129.363252 172.332669,123.61564 170.179174,110.75747 C170.179174,110.75747 185.84362,94.8549173 187.901345,93.9767437 C187.901345,93.9767437 204.982413,88.7112805 198.209416,73.1956872" id="path14" fill="#FFFFFF"></path>
                        <path d="M160.920968,56.34339 C155.93447,62.4698498 145.430299,66.8363838 145.430299,66.8363838 L153.182834,66.6681924 C153.182834,66.6681924 158.442,64.5976494 165.065222,58.8738946 C165.065222,58.8738946 173.095225,57.388085 179.427778,57.9938125 C179.427778,57.9938125 171.989675,54.5755915 160.920968,56.34339 Z M135.095346,87.5158098 C132.220819,84.9996193 129.057543,82.9925357 125.141551,82.1933286 C128.402037,83.8294368 131.241281,87.0718323 133.005697,90.201623 C134.766513,93.8133237 135.021899,97.5758002 133.276684,100.467737 C135.915268,98.4983477 137.269484,95.3687956 137.191236,91.8267571 C143.289525,88.5051567 153.171553,81.8984569 157.504226,77.0643271 L154.157332,79.5771775 C149.579114,81.8001663 141.308367,87.8123514 136.299547,89.0583989 L135.095346,87.5158098 Z M123.474824,115.840666 C126.616979,111.840336 132.105847,109.249712 137.089225,107.377182 C132.63702,105.197135 128.105367,104.658207 124.707588,106.977578 C122.719949,109.076988 121.712088,112.682247 123.474824,115.840666 Z M169.671763,76.1350996 C169.885624,77.0435715 171.022858,77.2940693 171.906866,77.5414657 C175.312327,77.1244465 177.523188,74.4341005 178.135729,72.1490837 C177.234679,73.504873 175.797415,74.9236447 173.812897,75.418676 C173.058502,75.5484577 171.83822,75.3819363 171.383374,74.6228088 C170.509447,73.1162436 171.209597,71.6340125 171.793335,70.5000926 C170.617938,72.1237953 169.392615,73.8407786 169.671763,76.1350996 Z M112.865044,127.104 L111.42322,128.235773 C109.594957,129.684843 106.297987,128.518239 104.141372,127.893426 C103.785416,130.740989 102.571855,133.475948 100.446922,135.044064 C102.190456,134.725335 103.551153,133.750064 104.788956,132.759286 C105.055143,132.700598 105.192677,132.93368 105.353493,133.100201 C104.155533,136.524864 99.82478,138.791988 96.5772553,140.464836 C101.652803,139.558034 107.218239,138.099182 110.92709,134.975833 C112.750312,132.87189 113.803297,130.144805 112.865044,127.104 Z M75.7700551,14.9937946 C62.2110996,15.6408184 51.0641451,21.4404859 51.0641451,21.4404859 C37.7843375,61.2712776 58.4002386,92.5448507 58.4002386,92.5448507 C58.4002386,92.5448507 43.321211,47.6661472 75.7700551,14.9937946 Z M185.971072,90.7090599 C185.971072,90.7090599 172.184334,103.391166 165.296606,110.051782 C165.296606,110.051782 170.502966,119.514156 156.74167,127.58424 C156.74167,134.113405 154.312147,146.684576 133.410858,153.844757 C133.410858,153.844757 129.808818,154.956251 133.082265,153.259546 C140.794956,149.260886 152.324749,141.496887 150.861802,126.022566 C150.861802,126.022566 166.663542,118.602345 155.226159,113.470242 C169.504226,101.523407 182.126848,86.8800226 182.126848,86.8800226 C193.101705,84.3717049 190.721627,79.477217 190.721627,79.477217 C190.838039,77.6841301 189.691204,73.7856691 189.54263,70.4781442 C189.397655,67.1739594 185.14491,61.2634048 186.124448,66.2638175 C187.111666,71.2630372 185.84362,72.5885283 185.84362,72.5885283 C185.84362,72.5885283 186.436959,69.7457365 183.088864,65.6693027 C179.74197,61.5771234 181.330689,66.0309738 181.330689,66.0309738 C187.221597,83.1399716 172.554211,84.2641101 169.470863,84.3368738 C166.373113,84.406536 165.066903,87.3208986 165.066903,87.3208986 C158.062282,97.5042294 141.643441,108.166846 141.643441,108.166846 C146.371433,108.919771 147.886945,112.682247 147.886945,112.682247 C143.505067,110.852659 136.915448,110.489557 131.297206,117.107469 C125.660003,123.726813 116.564294,125.362922 116.564294,125.362922 C124.297627,137.628247 108.035041,142.708341 98.9299705,143.104605 C89.8215399,143.502539 87.4049783,148.801163 87.4049783,148.801163 C93.7120889,144.60449 97.8916267,145.966482 113.597357,143.629458 C129.300207,141.301975 123.33441,127.772949 123.33441,127.772949 C131.381935,126.875451 137.403657,122.001719 137.403657,122.001719 C137.403657,122.001719 144.788955,115.066747 146.23726,121.697304 C149.750011,137.826498 135.021899,146.43885 135.021899,146.43885 C127.025259,151.01771 110.542812,156.099237 110.542812,156.099237 C111.880945,154.640624 113.209718,151.927852 113.209718,151.927852 C83.6466826,159.010259 54.6020988,150.193453 54.6020988,150.193453 C57.2212407,149.517825 61.2968482,147.602591 64.525651,145.95861 L80.2729053,144.842344 C72.678546,143.96083 65.3534937,141.89983 58.4576043,139.153659 C38.5036894,130.568265 23.3515266,118.328228 15.1809657,110.774886 C10.823018,106.720877 8.36502829,103.98902 8.36502829,103.98902 L17.2196575,104.139558 C40.6269417,130.274825 74.9306912,136.079216 74.9306912,136.079216 C74.9306912,136.079216 44.2575446,125.966979 23.8968371,104.249061 L24.0789673,104.250731 C18.8052321,98.7808138 14.5524869,92.8301796 11.5280885,86.4677748 C11.0990456,85.5655057 10.5199877,84.2321418 10.4737591,84.1116643 C8.65192898,79.7802 7.39509132,75.2791129 6.77777361,70.6143673 C2.04967292,34.9473019 36.5114902,3.75271903 83.7486928,3.29468982 C94.5257702,3.19160403 105.232521,4.735887 115.184396,7.51541026 C73.9146696,32.7942139 78.2423023,65.6122847 78.2423023,65.6122847 C78.2423023,65.6122847 79.6188399,61.0713565 82.960694,54.7628684 C89.3095687,43.2363924 103.259283,23.9993564 131.659403,13.5352773 C133.587755,14.39625 139.947671,17.4055871 146.983975,22.3713595 C102.431201,37.9313267 95.9359112,67.714796 95.9359112,67.714796 C80.2762656,67.6668435 74.4204002,75.5405849 73.4713453,76.8534318 C73.3962178,76.9705693 73.3436525,77.0435715 73.3436525,77.0435715 C65.1045888,68.4789335 64.2083392,57.7354419 64.2083392,57.7354419 C62.8824467,71.4627198 66.5531336,80.5841786 69.567835,85.5719471 C67.3713755,93.1474768 70.7245107,100.781695 70.7245107,100.781695 C70.7245107,100.781695 70.1868569,96.7148036 72.758234,90.9309294 C72.9113693,90.5742683 73.0947476,90.2238099 73.0947476,90.2238099 C82.9513331,69.4854574 120.797837,74.1707199 120.797837,74.1707199 C130.649622,69.8137287 147.609237,58.1923021 147.609237,58.1923021 C149.407017,50.1568108 158.904767,48.5746192 158.904767,48.5746192 C158.904767,48.5746192 180.673503,48.7900472 182.611697,56.7048225 C190.2495,58.1572325 192.316827,64.8782069 192.316827,64.8782069 C192.523968,66.8805191 195.419377,77.7826592 195.419377,77.7826592 C197.888744,87.0496453 185.971072,90.7090599 185.971072,90.7090599 Z" id="path16" fill="#1E59AE"></path>
                        <path d="M137.089225,107.377182 C132.105847,109.249712 126.616979,111.840336 123.474824,115.840666 C121.712088,112.682247 122.719949,109.076988 124.707588,106.977578 C128.105367,104.658207 132.63702,105.197135 137.089225,107.377182" id="path18" fill="#FFFFFF"></path>
                        <path d="M165.065222,58.8738946 C158.442,64.5976494 153.182834,66.6681924 153.182834,66.6681924 L145.430299,66.8363838 C145.430299,66.8363838 155.93447,62.4698498 160.920968,56.34339 C171.989675,54.5755915 179.427778,57.9938125 179.427778,57.9938125 C173.095225,57.388085 165.065222,58.8738946 165.065222,58.8738946" id="path20" fill="#F3632A"></path>
                        <path d="M195.419377,77.7826592 C195.419377,77.7826592 192.523968,66.8805191 192.316827,64.8782069 C192.316827,64.8782069 190.2495,58.1572325 182.611697,56.7048225 C180.673503,48.7900472 158.904767,48.5746192 158.904767,48.5746192 C158.904767,48.5746192 149.407017,50.1568108 147.609237,58.1923021 C147.609237,58.1923021 130.649622,69.8137287 120.797837,74.1707199 C120.797837,74.1707199 82.9513331,69.4854574 73.0947476,90.2238099 C73.0947476,90.2238099 72.9113693,90.5742683 72.758234,90.9309294 C70.1868569,96.7148036 70.7245107,100.781695 70.7245107,100.781695 C70.7245107,100.781695 67.3713755,93.1474768 69.567835,85.5719471 C66.5531336,80.5841786 62.8824467,71.4627198 64.2083392,57.7354419 C64.2083392,57.7354419 65.1045888,68.4789335 73.3436525,77.0435715 C73.3436525,77.0435715 73.3962178,76.9705693 73.4713453,76.8534318 C74.4204002,75.5405849 80.2762656,67.6668435 95.9359112,67.714796 C95.9359112,67.714796 102.431201,37.9313267 146.983975,22.3713595 C139.947671,17.4055871 133.587755,14.39625 131.659403,13.5352773 C103.259283,23.9993564 89.3095687,43.2363924 82.960694,54.7628684 C79.6188399,61.0713565 78.2423023,65.6122847 78.2423023,65.6122847 C78.2423023,65.6122847 73.9146696,32.7942139 115.184396,7.51541026 C105.232521,4.735887 94.5257702,3.19160403 83.7486928,3.29468982 C36.5114902,3.75271903 2.04967292,34.9473019 6.77777361,70.6143673 C7.39509132,75.2791129 8.65192898,79.7802 10.4737591,84.1116643 C10.5199877,84.2321418 11.0990456,85.5655057 11.5280885,86.4677748 C14.5524869,92.8301796 18.8052321,98.7808138 24.0789673,104.250731 L23.8968371,104.249061 C44.2575446,125.966979 74.9306912,136.079216 74.9306912,136.079216 C74.9306912,136.079216 40.6269417,130.274825 17.2196575,104.139558 L8.36502829,103.98902 C8.36502829,103.98902 10.823018,106.720877 15.1809657,110.774886 C23.3515266,118.328228 38.5036894,130.568265 58.4576043,139.153659 C65.3534937,141.89983 72.678546,143.96083 80.2729053,144.842344 L64.525651,145.95861 C61.2968482,147.602591 57.2212407,149.517825 54.6020988,150.193453 C54.6020988,150.193453 83.6466826,159.010259 113.209718,151.927852 C113.209718,151.927852 111.880945,154.640624 110.542812,156.099237 C110.542812,156.099237 127.025259,151.01771 135.021899,146.43885 C135.021899,146.43885 149.750011,137.826498 146.23726,121.697304 C144.788955,115.066747 137.403657,122.001719 137.403657,122.001719 C137.403657,122.001719 131.381935,126.875451 123.33441,127.772949 C123.33441,127.772949 129.300207,141.301975 113.597357,143.629458 C97.8916267,145.966482 93.7120889,144.60449 87.4049783,148.801163 C87.4049783,148.801163 89.8215399,143.502539 98.9299705,143.104605 C108.035041,142.708341 124.297627,137.628247 116.564294,125.362922 C116.564294,125.362922 125.660003,123.726813 131.297206,117.107469 C136.915448,110.489557 143.505067,110.852659 147.886945,112.682247 C147.886945,112.682247 146.371433,108.919771 141.643441,108.166846 C141.643441,108.166846 158.062282,97.5042294 165.066903,87.3208986 C165.066903,87.3208986 166.373113,84.406536 169.470863,84.3368738 C172.554211,84.2641101 187.221597,83.1399716 181.330689,66.0309738 C181.330689,66.0309738 179.74197,61.5771234 183.088864,65.6693027 C186.436959,69.7457365 185.84362,72.5885283 185.84362,72.5885283 C185.84362,72.5885283 187.111666,71.2630372 186.124448,66.2638175 C185.14491,61.2634048 189.397655,67.1739594 189.54263,70.4781442 C189.691204,73.7856691 190.838039,77.6841301 190.721627,79.477217 C190.721627,79.477217 193.101705,84.3717049 182.126848,86.8800226 C182.126848,86.8800226 169.504226,101.523407 155.226159,113.470242 C166.663542,118.602345 150.861802,126.022566 150.861802,126.022566 C152.324749,141.496887 140.794956,149.260886 133.082265,153.259546 C129.808818,154.956251 133.410858,153.844757 133.410858,153.844757 C154.312147,146.684576 156.74167,134.113405 156.74167,127.58424 C170.502966,119.514156 165.296606,110.051782 165.296606,110.051782 C172.184334,103.391166 185.971072,90.7090599 185.971072,90.7090599 C185.971072,90.7090599 197.888744,87.0496453 195.419377,77.7826592 Z M187.901345,93.9767437 C185.84362,94.8549173 170.179174,110.75747 170.179174,110.75747 C172.332669,123.61564 160.759672,129.363252 160.759672,129.363252 C156.923368,160.102668 122.812598,160.134398 122.812598,160.134398 L128.705187,153.990522 C112.217699,160.134398 98.3731149,163.650909 98.3731149,163.650909 L103.965674,157.4994 C65.6837667,161.012571 41.5313521,150.183911 41.5313521,150.183911 C51.5441931,147.845216 59.5007486,143.740154 59.5007486,143.740154 C18.2692105,125.883003 9.37593736e-05,100.123482 9.37593736e-05,100.123482 L16.0663182,100.123482 C9.1512989,91.1100949 4.84286817,81.212093 3.49657357,71.0154023 C1.45777134,55.6505848 6.37882972,39.6292245 17.3329249,27.1358271 C32.2126605,10.1583049 56.4222008,0 83.7167696,0 C128.417879,0 154.23726,23.4542494 154.23726,23.4542494 L148.016078,25.4980488 C108.962013,38.2975306 100.017759,66.0927633 98.8867662,70.1338887 C109.161473,68.2203243 119.867984,70.2658176 119.867984,70.2658176 C131.353132,65.0051258 144.310347,55.6348392 144.310347,55.6348392 C146.964773,50.9450438 150.202937,43.6247832 167.287125,45.384709 C184.364832,47.1429648 185.55031,53.5814732 185.55031,53.5814732 C192.021597,55.0434259 196.15145,62.0702462 196.15145,63.8299334 C196.15145,65.5853263 198.209416,73.1956872 198.209416,73.1956872 C204.982413,88.7112805 187.901345,93.9767437 187.901345,93.9767437 Z" id="path22" fill="#F3632A"></path>
                        <path d="M58.4002386,92.5448507 C58.4002386,92.5448507 37.7843375,61.2712776 51.0641451,21.4404859 C51.0641451,21.4404859 62.2110996,15.6408184 75.7700551,14.9937946 C43.321211,47.6661472 58.4002386,92.5448507 58.4002386,92.5448507" id="path24" fill="#F3632A"></path>
                        <path d="M171.906866,77.5414657 C171.022858,77.2940693 169.885624,77.0435715 169.671763,76.1350996 C169.392615,73.8407786 170.617938,72.1237953 171.793335,70.5000926 C171.209597,71.6340125 170.509447,73.1162436 171.383374,74.6228088 C171.83822,75.3819363 173.058502,75.5484577 173.812897,75.418676 C175.797415,74.9236447 177.234679,73.504873 178.135729,72.1490837 C177.523188,74.4341005 175.312327,77.1244465 171.906866,77.5414657" id="path26" fill="#F3632A"></path>
                        <path d="M96.5772553,140.464836 C99.82478,138.791988 104.155533,136.524864 105.353493,133.100201 C105.192677,132.93368 105.055143,132.700598 104.788956,132.759286 C103.551153,133.750064 102.190456,134.725335 100.446922,135.044064 C102.571855,133.475948 103.785416,130.740989 104.141372,127.893426 C106.297987,128.518239 109.594957,129.684843 111.42322,128.235773 L112.865044,127.104 C113.803297,130.144805 112.750312,132.87189 110.92709,134.975833 C107.218239,138.099182 101.652803,139.558034 96.5772553,140.464836" id="path28" fill="#F3632A"></path>
                        <path d="M137.191236,91.8267571 C137.269484,95.3687956 135.915268,98.4983477 133.276684,100.467737 C135.021899,97.5758002 134.766513,93.8133237 133.005697,90.201623 C131.241281,87.0718323 128.402037,83.8294368 125.141551,82.1933286 C129.057543,82.9925357 132.220819,84.9996193 135.095346,87.5158098 L136.299547,89.0583989 C141.308367,87.8123514 149.579114,81.8001663 154.157332,79.5771775 L157.504226,77.0643271 C153.171553,81.8984569 143.289525,88.5051567 137.191236,91.8267571" id="path30" fill="#F3632A"></path>
                    </g>
                </g>
            </g>
        </g>
    </g>
</svg>