<svg width="200" height="200" xmlns="http://www.w3.org/2000/svg"><g fill-rule="nonzero" fill="none"><path d="M117.594 162.836H83.98l6.64-13.451c7.603.881 11.862-1.193 11.862-1.193.946-.928 3.197-4.2 4.333-5.883 3.713 2.13 7.247 2.402 7.55 2.421 1.678 1.075 2.038 1.559 2.118 1.71-1.284.64-1.961 1.73-1.961 3.138 0 .656.145 1.38.438 2.155l.148.393.111-.404c.22-.813.922-1.63 1.827-2.134a4.288 4.288 0 0 1 3.323-.367c1.13.337 1.902 1.058 2.176 2.032.37 1.32-.223 2.963-1.625 4.512l-.389.431.54-.213c2.1-.83 3.443-1.932 3.994-3.282.204-.499.27-.962.27-1.352 0-.389-.064-.687-.122-.888.455.148 1.463.573 2.024 1.563.059.105.11.215.155.327l-2.966 5.995c-2.223 4.49-5.692 4.49-6.832 4.49Zm-67.99-70.943 3.527-7.15c2.289 2.855 4.72 5.288 6.775 7.15H49.604ZM76.069 38.26 77.184 36h39.035l.072.002-3.964 8.042c-.94 1.894-3.493 2.983-7.004 2.983H71.73c2.164-4.37 4.339-8.767 4.339-8.767Zm20.44 37.84-1.351 2.752a447.795 447.795 0 0 1-5.534-4.44h7.672c-.202.467-.456 1.02-.787 1.688Zm46.619 44.476h36.234l20.535-41.474h-33.075c3.512-2.082 7.781-5.756 10.051-11.972-4.33 4.676-8.393 5.567-8.393 5.567s5.658-5.56 6.909-15.016c-5.83 7.72-8.33 8.505-8.33 8.505s11.693-14.686 5.44-28.472c-.63 24.53-27.6 33.73-37.362 39.875a53.895 53.895 0 0 0-4.846 3.443l.927-1.873c.817-1.654 2.776-5.62 2.776-10.003 0-2.01-.412-4.106-1.533-6.109-.228-.405-.521-.737-.785-1.103 6.978-2.98 11.835-7.588 15.07-14.15l5.114-10.334c2.23-4.52 4.136-9.159 4.136-13.443 0-2.19-.498-4.287-1.704-6.227-4.612-7.421-16.527-8.619-43.248-8.619H54.262L0 118.782h51.825c6.707 0 12.565-.051 17.728-.165l-35.37 71.575h68.189c35.413 0 44.677-4.26 55.067-25.328l12.245-24.732h-36.245l-2.175 4.394c-.669-.275-1.306-.582-1.857-.96-1.21-3.917-4.537-9.425-6.608-12.644 3.663 1.202 6.985 2.66 9.908 4.38 1.377 2.283 3.345 3.602 3.364 3.616l.081.056.05-.086c.06-.102 1.39-2.372 1.699-3.88.423.589.592 1.384.592 2.179 0 1.279-.337 2.482-.344 2.502l-.054.188.578-.242c2.805-1.175 4.5-2.656 5.043-4.398l.108-.417v.002c.469-2.309-1.146-4.414-2.15-5.465.174-.518.426-2.753-2.721-6.058a30.18 30.18 0 0 0-4.838-4.094c5.267-2.592 8.486-7.497 11.514-13.002 1.679 0 3.234-.002 4.61-.003l-7.111 14.376Z" fill="#231F20"/><path d="M137.598 146.83c-.014.029-.03.064-.046.094 1.356.797 2.33 1.92 2.412 3.763.033.736-.078 1.588-.362 2.582l-.157.55-.107-.562c-.38-2.002-1.736-2.833-2.275-3.092.026.13.053.287.062.49.044.973-.3 2.642-2.856 3.583l-.372.134.209-.334c.29-.467.486-.917.593-1.346l-4.27 8.627c-1.518 3.07-5.207 8.217-12.835 8.217H73.202l10.67-21.62c-8.5-2.91-11.335-8.772-11.335-8.772S88.3 135.4 96.038 126.88c-5.975-1.087-11.89-4.17-17.001-8.577-.62.029-1.252.057-1.897.083-10.604 21.459-30.92 62.57-32.175 65.107h57.407c34.635 0 40.564-4.37 49.059-21.591l7.46-15.07h-21.293" fill="#8E0A26"/><path d="M191.116 83.304h-24.532a97.934 97.934 0 0 1-3.626 2.497h26.145c-1.541 3.116-13.282 26.83-13.9 28.075h-21.286l7.115-14.382-11.777.008c-.463.832-.919 1.667-1.364 2.498l9.118-.005-7.117 14.38h26.862l16.375-33.071h-2.013M111.044 15.87c22.159 0 34.707.869 37.557 5.454.472.762.715 1.663.715 2.765 0 2.365-1.116 5.65-3.462 10.398L140.74 44.83c-4.299 8.719-13.306 13-28.22 15.349 7.596.965 18.781 4.004 12.694 16.01-1.787 3.53-7.94 16.042-7.94 16.042-.989 2.006-1.905 3.816-2.833 5.45.508.778.996 1.57 1.447 2.387.314-.512.626-1.043.936-1.59a41.45 41.45 0 0 1 3.11-5.99l7.52-15.192c1.559-3.156 2.334-5.862 2.334-8.17 0-1.507-.33-2.842-.993-4.024-1.154-2.064-3.31-3.596-6.501-4.633 10.473-2.192 16.841-6.735 20.686-14.532l5.115-10.342c2.222-4.498 3.719-8.334 3.719-11.512 0-1.505-.336-2.864-1.089-4.075-3.507-5.642-15.59-6.635-39.68-6.635H56.87L6.77 114.582h51.096c6.469 0 12.145-.055 17.158-.194a46.767 46.767 0 0 1-2.076-2.45c-4.47.101-9.465.145-15.082.145H10.792c1.71-3.451 46.963-94.867 47.63-96.213h52.622" fill="#927F3B"/><path d="M148.6 21.324c-2.85-4.585-15.397-5.454-37.556-5.454H58.423c-.668 1.346-45.921 92.762-47.631 96.213h47.073c5.617 0 10.613-.044 15.082-.146-3.147-3.983-5.683-8.522-7.314-13.346H38.828l9.99-20.249c-1.453-2.658-2.591-5.51-3.141-8.488 3.062 3.358 6.909 4.887 9.455 5.572l.566-.991c-11.226-8.812-8.546-23.77-8.546-23.77s2.6 11.59 11.328 15.951C47.32 52.451 54.722 33.24 54.722 33.24S53.68 49.89 64.94 62.328c-10.523-22.931 3.077-36.679 3.077-36.679s-2.355 6.985-1.13 16.07l2.884-5.824 3.243-6.595h43.205c3.806 0 6.069.788 7.12 2.482.394.634.592 1.358.592 2.181 0 1.145-.384 2.482-1.153 4.034l-4.446 9.021c-2.117 4.262-6.858 6.71-13.01 6.71H70.672a36.587 36.587 0 0 0 3.807 5.857c2.346 2.953 4.877 5.63 7.499 8.126H98.27c2.993 0 4.902.734 5.84 2.244 1.346 2.17.334 5.214-1.598 9.119l.001-.006-2.005 4.086c5.436 4.474 10.357 9.042 13.931 14.526.928-1.634 1.844-3.444 2.834-5.45 0 0 6.152-12.512 7.939-16.043 6.087-12.005-5.098-15.044-12.693-16.01 14.913-2.347 23.92-6.63 28.219-15.348l5.115-10.342c2.346-4.747 3.462-8.033 3.462-10.398 0-1.102-.243-2.003-.715-2.765" fill="#8E0A26"/><path d="M84.69 70.21h13.58c1.395 0 3.172.184 3.717 1.063.164.264.237.608.237 1.007 0 1.538-1.063 3.893-1.95 5.685l-1.753 3.571c.67.539 1.332 1.078 1.988 1.618l2.005-4.086-.001.006c1.932-3.905 2.944-6.948 1.598-9.119-.938-1.51-2.847-2.244-5.84-2.244H81.977c.895.853 1.8 1.685 2.714 2.499M64.876 96.094h-22.03l7.498-15.197a39.479 39.479 0 0 1-1.526-2.555l-9.99 20.25h26.805a40.054 40.054 0 0 1-.757-2.498M123.34 31.782c-1.052-1.694-3.315-2.482-7.12-2.482H73.013l-3.243 6.595-2.884 5.824a37.81 37.81 0 0 0 .777 4.057l4.346-8.775 2.56-5.203h41.65c3.462 0 4.628.708 4.997 1.302.15.243.215.544.215.877 0 .889-.448 2.012-.893 2.91l-4.445 9.022c-1.678 3.38-5.603 5.321-10.771 5.321H69.494c.355.83.741 1.664 1.177 2.498h34.652c6.151 0 10.892-2.448 13.009-6.71l4.446-9.02c.769-1.553 1.153-2.89 1.153-4.035 0-.823-.198-1.547-.591-2.181M86.31 148.62c-.86-.208-1.668-.45-2.436-.712l-.002.008-10.67 21.62h44.392c7.628 0 11.317-5.147 12.835-8.217l4.27-8.627c.165-.665.111-1.275-.172-1.803-.25-.46-.662-.828-1.186-1.085l-5.149 10.406c-1.263 2.55-4.319 6.827-10.598 6.827H77.22c.585-1.182 4.385-8.883 9.09-18.417" fill="#927F3B"/><path d="m136.048 144.334-.781 1.578c.817.288 1.598.61 2.284 1.013l.001-.001.046-.094h21.292l-7.46 15.07c-8.494 17.223-14.423 21.592-49.058 21.592H44.965c1.255-2.537 21.571-43.648 32.175-65.107l.002-.003c-.922.038-1.862.074-2.84.106l-33.356 67.504h61.426c35.258 0 42.24-4.62 51.299-22.985l9.244-18.673h-26.867" fill="#927F3B"/><path d="M162.96 85.801c-5.107 3.387-9.405 6.02-13.483 13.294l-.226.407 11.781-.008-7.115 14.382h21.286c.618-1.245 12.359-24.959 13.9-28.075H162.96M88.605 89.711c12.474 7.786 19.888 17.601 13.871 24.645-8.687 10.171-25.3-3.976-29.227-12.934 0 0 5.496 2.865 10.646 4.09-11.543-6.89-21.954-22.61-21.954-22.61s13.387 10.114 22.274 14.137C66.769 82.123 61.252 63.84 61.252 63.84s8.94 14.379 27.353 25.871" fill="#8E0A26"/><path d="M165.452 71.602c-8.548 7.429-21.52 11.035-27.56 20.001-1.804 2.68-2.991 5.823-3.775 8.865 1.597-1.187 3.984-2.689 6.206-3.01 0 0-1.316 8.682-6.21 15.06 12.201-5.216 6.887-19.513 27.524-28.898-5.45.098-13.806 3.325-13.806 3.325 11.68-6.62 17.62-15.343 17.62-15.343" fill="#8E0A26"/><path d="M101.287 146.067s-10.477-1.671-13.455-9.53c-5.55 3.716-10.955 4.149-10.955 4.149s10.165 9.664 24.41 5.38" fill="#FFF"/><path d="M128.254 144.722s-.418.376-1.227.622c0 0 2.94 1.124 3.28 1.41-.797.435-1.504 1.757-1.504 1.757s1.61-1.002 3.755-.543c1.927.415 3.272 2.325 3.272 2.325s-.122-1.32-.892-2.17c1.657.205 3.391 1.19 3.391 1.19s-.502-1.786-5.935-3.11c-3.075-.744-4.14-1.48-4.14-1.48M117.982 144.192s-.707.079-1.763.109c.824.446 2.473 1.547 2.772 1.905-.767.326-2.078 1.582-2.078 1.582s2.295-1.013 4.043-.312c2.406.97 3.03 3.786 3.03 3.786s.373-1.81-.458-3.036c1.802.213 4.23 2.093 4.23 2.093s-.984-2.289-6.372-4.541c-2.91-1.216-3.404-1.586-3.404-1.586" fill="#927F3B"/><path d="M124.158 136.866s2.254 2.97 3.092 5.77c-.539.275-4.422-.077-7.118-2.194 1.145.094 3.826-.045 3.826-.045s-3.75-1.372-6.17-3.893c3.848.786 6.37.362 6.37.362" fill="#8E0A26"/><path d="M118.11 107.558c3.462 1.309 6.215 4.39 6.215 4.39-1.673-.67-3.43-1.13-4.867-1.437-.742-.157-2.183-.4-2.29-.415a559.89 559.89 0 0 1-.905-.136c-.779-3.256-2.416-7.73-5.865-12.297-11.042-14.627-34.011-23.01-45.04-46.107C71.277 78.304 91.114 82.04 104.579 97c4.162 4.628 11.525 20.164-2.151 29.254-.68.451-1.525.865-2.311 1.283.427.676 1.172 1.467 1.742 2.095 3.497 3.855 9.068 6.67 9.068 6.67s-6.484-.834-10.821-2.273c4.378 4.48 13.177 6.44 13.177 6.44s-2.87.225-5.382-.074c4.398 2.637 9.468 1.495 9.468 1.495-.76-4.57-3.481-9.297-3.481-9.297s-2.888-.053-7-1.572c2.064.167 4.52-.19 7.1-.725a21.654 21.654 0 0 1 5.328-.417 75.967 75.967 0 0 0-5.66-1.282l-.188-.036.142-.126c.033-.029 3.155-2.782 6.714-3.978-4.2-2.062-8.9-2.888-8.948-2.897l-.277-.047.252-.129c.06-.031 6.013-3.045 9.328-3.215-1.834-3.143-3.18-4.902-3.193-4.92l-.129-.165.21.015c.076.005 4.695.384 10.266 2.711-.476-4.811-1.106-21.842 11.937-32.986 10.904-9.32 23.05-11.933 27.224-21.799-10.719 14.164-41.17 14.885-48.884 46.533" fill="#8E0A26"/><path d="M153.29 182.318h-1.355v3.758h-.779v-3.758h-1.355v-.64h3.49v.64Zm3.223 2.594 1.238-3.234h1.196v4.398h-.78V182.5h-.02l-1.377 3.576h-.535l-1.376-3.576h-.022v3.576h-.779v-4.398h1.195l1.26 3.234Z" fill="#231F20"/><path d="M137.902 130.776c1.176-.349 1.997-.11 1.997-.11.325.15.73.689.73.689s-1.354-.616-2.727-.579Zm4.362 2.335c-.617-1.817-1.914-2.688-1.922-2.692-1.696-.922-5.263.262-5.285.264-.017-.006-1.606-.551-3.158-.813.53 1.42 1.624 4.554 4.023 7.168-1.9-3.563-2.641-6.036-2.641-6.036s3.835.955 5.524 2.842c1.36 1.522 1.199 2.857 1.118 3.22.379-.175 1.948-.975 2.381-2.36.145-.467.163-.998-.04-1.593Z" fill="#927F3B"/><path d="M136.132 132.975s.552.311.833.607c0 0-.036 1.213-.827 2.837 0 0 .377-2.12-.006-3.444" fill="#927F3B"/><path d="M139.844 131.499s.674.14 1.048.289c.41.476 1.752 2.161.317 3.598 0 0 1.028-2.04-1.365-3.887M121.94 115.88c1.582 1.94 2.7 4.247 2.7 4.247s-3.237-.593-7.902 1.043c0 0 3.264.64 7.075 3.193 0 0-3.076 1.493-4.974 3.064 7.844 1.845 13.015 5.584 13.015 5.584s-1.339-2.815-1.694-4.173c2.048-.051 4.583.835 4.583.835.485-.14.998-.264 1.518-.36-.408-.137-.767-.436-1.07-.826a1.469 1.469 0 0 1-1.85.045 1.474 1.474 0 0 1-.268-2.067 1.446 1.446 0 0 1 1.022-.556c-.355-1.335-2.392-2.655-2.392-2.655 3.736 1.76 3.009 2.98 4.156 4.597.99 1.388 2.091.157 1.87-.439.56.74.215 1.397-.246 1.735.876-.066 1.724-.008 2.444.26.875-4.861-9.698-11.787-17.986-13.528" fill="#FFF"/><path d="M133.963 127.333a.677.677 0 0 1 .464-.261 6.866 6.866 0 0 1-.204-.638.926.926 0 0 0-.734.35.95.95 0 0 0 .175 1.333c.123.094.263.14.405.163a.687.687 0 0 1-.106-.947" fill="#927F3B"/><path d="M134.573 127.431a.33.33 0 0 0-.263.588.328.328 0 0 0 .465-.062c.014-.018.02-.04.03-.059a5.602 5.602 0 0 1-.232-.467" fill="#8E0A26"/></g></svg>