<svg width="200" height="200" xmlns="http://www.w3.org/2000/svg"><g fill="none"><path d="M35.776 97.214v42.58H64.82v-42.58H35.776zm0-23.332H64.82V44.354H35.776v29.528zm-33.77 65.913H12.61V44.354H2.005V21.187h71.622l14.358 14.032v38.176l-10.28 10.278 10.28 10.605v54l-14.52 14.685H2.005v-23.168z" fill="#CD1E25"/><path d="M72.81 23.192l13.17 12.872v36.5L74.89 83.651 85.98 95.09v52.364l-13.353 13.503H4.011V141.8h10.606V42.348H4.01V23.192h68.8zM0 19.182V46.36h10.605v91.429H0v27.18h74.302l15.688-15.866V93.465l-9.469-9.77 9.47-9.47v-39.85L74.444 19.18H0z" fill="#960A2C"/><path d="M62.813 46.36v25.517h-25.03V46.36h25.03zM33.77 42.348v33.54h33.053v-33.54H33.771zM62.813 99.22v38.569h-25.03V99.22h25.03zM33.77 95.208v46.593h33.053V95.208H33.771z" fill="#960A2C"/><path fill="#CD1E25" d="M97.95 21.187h44.374v23.167h-10.602v95.44h32.465v-95.44h-10.606V21.187h44.374v23.167h-10.602v104.414l-14.195 14.195h-50.085l-14.52-14.195V44.354H97.95V21.187"/><path d="M195.949 23.192v19.156h-10.602v105.589l-13.019 13.02H123.89c-1.03-1.007-12.269-11.995-13.33-13.034V42.348H99.956V23.192h40.362v19.156h-10.602v99.453h36.477V42.348h-10.606V23.192h40.362zm-44.374-4.01V46.36h10.606v91.429h-28.453v-91.43h10.602V19.182H95.943V46.36h10.604v103.252l15.708 15.357h51.734l15.37-15.37V46.359h10.602V19.182h-48.386z" fill="#960A2C"/><path d="M111.632 174.095l-3.588-1.647s-3.224 4.526-5.198 6.499c-1.973 1.977-5.563 1.136-6.77.337-1.207-.803-5.49-4.524-10.572-7.033-5.084-2.51-10.795-7.185-10.795-7.185-.915-.847-6.414-6.186-6.576-12.327-.173-6.704.422-12.154 6.878-13.159l.525-1.18-4.691-5.333 6.747.988 1.18-2.227s.684-.526 1.572-.059c.89.465 1.646.875 1.646.875l3.353-6.048s-1.122-2.39-3.235-5.04c-2.111-2.654-2.93-5.131-2.463-8.175.465-3.046 1.78-8.112 3.33-9.986.415.348-7.894-5.95-3.979-11.47 4.965-7 8.606-8.93 14.877-13.491 6.303-4.584 6.17-3.367 5.963-1.427-.209 1.937-2.683 4.04-4.817 5.489.191-.674-2.305 5.785-3.898 7.06.033.513-1.17 3.482-1.46 3.654 0 0 6.256-5.358 10.86-4.214 4.605 1.144 9.69 4.812 9.69 4.812s1.939.144 2.46.313c0 0-2.415-2.617.526-5.803 2.023-2.194 4.776-4.228 10.403-6.337.835-.314 1.525.102.103 2.038-1.415 1.94-1.928 1.556-1.928 1.556s-.949 2.763-1.931 4.32c-.248.392-.797 3.073-1.938 5.992 0 0 9.849 5.885 12.311 12.18 1.003 2.559.375 4.81-2.876 8.58 0 0 .184 2.96-.97 5.084 0 0 2.423 1.308 3.802 2.722 0 0 4.544 1.045 5.18 2.239.633 1.191 1.956 7.676.078 12.58-1.876 4.907-4.543 7.692-6.54 7.752 0 0-1.212 1.393-2.06 1.574-.847.182-1.358-.133-1.77.299-.413.432-1.22 1.735-2.668 1.68-1.45-.06-1.882-.201-1.882-.201s-4.088 2.025-5.467 2.253c0 0 7.367 5.357 7.972 18.436.269 5.822-3.512 5.454-5.69 4.848-1.874-.521-4.925-1.557-5.694-1.818" fill="#231F20"/><path d="M102.685 90.768s11.197 10.95 12.044 15.606c.204 1.136.193 2.619-1.062 1.706-1.256-.914-6.19-4.006-7.103-4.416-.914-.41-1.26-.417-.684.642.582 1.057 2.422 4.49 7.111 8.571 4.687 4.08 5.676 4.962 5.916 5.778.24.82-.478 3.706-.817 4.218-.341.511-1.9.609-3.126.811-1.23.206-4.32 1.536-6.942 4.458-.576.643-1.178.778-2.712 1.358-1.537.58-4.862 2.688-5.646 6.085 0 0-3.002-4.653-5.48-5.472-2.476-.819-2.911-1.39-4.243.204-1.333 1.599-2.896 4.11-3.031 7.273-.135 3.17.443 6.533 2.176 8.401 1.735 1.874 2.75 2.888 3.432 2.785.684-.102 3.843-3.441 4.63-3.738 0 0-1.026 1.132-1.06 1.568 0 0 2.826-1.365 5.208-.92 0 0-.206-1.734-.172-2.11 0 0-2.38-.476-3.944.171-1.561.648-4.053 1.733-5.036 1.769-.982.033-2.235-.787-2.853-2.212-.612-1.426-.647-2.075-.647-2.075s.81 2.212 1.7 2.758c0 0-1.77-4.457.58-10.372 0 0-1.365 1.262-2.179 3.131 0 0 .845-3.65 3.202-5.003 1.118-.64 1.937-.24 1.699-.033-.238.206-.65.408-.65.408s1.256.814 1.7 1.426c.445.616.621.513 1.228.684.608.169 1.522 2.17 2.137 3.058.613.887 1.632 1.664 2.245 1.938.615.272 1.161 1.056 1.161 1.056s.026-1.939.812-2.519c0 0-.854 3.501-.378 6.124.479 2.618 2.115 7.376 5.72 7.989 3.602.615 8.495.273 12.063-2.176 3.57-2.447 6.327-5.543 8.571-10.545 0 0-.237 2.554-2.107 4.732-.193.221-.17.776.342 1.016.512.238 2.38.92 2.38.92s.75.096 1.802-.82c1.051-.912 4.176-4.08 4.756-9.621.582-5.54-.439-8.188-1.39-8.597-.956-.408-4.016-1.903-7.959-1.837-3.945.07-8.33.507-8.33.507s3.774-1.323 10.406-1.12c0 0-2.588-1.425-7.717-2.177 0 0 .107-3.03.615-4.149.503-1.117 2.302-3.16 3.056-4.958.75-1.804 1.664-5.34 1.696-6.054.034-.718-.245-1.364-.579-.48-.333.89-1.291 3.297-1.597 3.604-.307.308-.745.178-.88-.402-.135-.58-1.162-4.857-3.029-7.99-1.87-3.132-4.547-6.396-8.291-6.77 0 0 4.039 3.2 4.585 4.729 0 0-3.84-3.706-7.923-6.12-4.08-2.417-5.406-2.798-5.406-2.798" fill="#FFF"/><path d="M84.625 102.758s2.432-6.116 10.502-11.719c2.661-1.849 5.272-1.485 8.968 2.12 3.696 3.604 7.636 8.713 9.422 12.8.45 1.036.723 1.944-.5.987-1.224-.959-6.15-3.83-7.16-4.218-1.007-.395-1.865-.594-1.473 1.051.39 1.646 4.147 7.227 9.669 11.33 2.12 1.575 4.18 3.21 3.997 4.482-.18 1.27-.907 2.97-.907 2.97s-6.18.663-16.17-8.178c-4.733-4.189-6.666-6.614-9.692-5.691-1.388.421-1.878 1.088-2.179 1.754 0 0 1.575-2.057 5.27-.243 0 0-2.786-.423-4.541.909 0 0 3.884-.92 5.267.365.848.785.787 1.634.787 1.634s-2.259 2.11-2.39 6.3c0 0 .945-4.543 2.148-5.164 0 0-1.574 4.435-1.623 7.592 0 0 .14 2.447-.346 2.507-.484.061-3.45-.243-3.995.513 0 0 2.057-.15 2.511.729 0 0-1.936.513-2.723.179-.788-.332-5.936-6.42-5.695-11.868.244-5.451 3.39-8.843 3.39-8.843s-1.907 1.339-2.475 2.071c-.232.297-.7.516-.416-.761.283-1.276 1.639-4.623 3.61-6.43 0 0-1.379.556-3.256 2.822" fill="#231F20"/><path d="M100.166 114.654l3.356 2.351s.929 1.252.748 2.778c-.215 1.801-.55 3.997-2.213 4.835l-3.1 1.206s-2.073-2.273-1.982-4.715c.09-2.441 1.206-5.523 3.19-6.455" fill="#918F90"/><path d="M116.01 96.239s-.14-.965.335-1.826c0 0-.626.747-.672 1.414 0 0-.854-1.888-.44-2.763.417-.875 2.464-3.524 2.464-3.524s.233 1.749-.23 3.247c-.459 1.497-.908 3.218-1.456 3.452" fill="#CD1E25"/><path d="M118.044 89.01s.277 2.81-.621 5.25c0 0 .758-1.565 1.014-3.315 0 0 .183.598.115.991 0 0 .414-2.19.528-3.223 0 0 1.105-.695 1.523-3.41 0 0 2.094-1.287 2.579-2.162 0 0-3.262 1.416-6.427 3.91-3.04 2.397-3.87 4.583-3.87 4.583s-.183 1.244 1.152 2.903c0 0 .74-1.703 1.866-3.2 1.13-1.498 2.67-3.272 3.13-3.638 0 0-.916 1.174-.99 1.312" fill="#231F20"/><path d="M115.329 88.78s3.138-3.36 6.433-4.71c0 0-.307.461-.527.59-.218.13-3.88 2.31-5.906 4.12" fill="#E9E9E9"/><path d="M84.145 99.277s-.294-5.988 1.01-7.758c1.302-1.77 4.103-3.966 4.103-3.966s-.546 5.154-3.735 10.42c0 0 .117-1.905.409-2.546 0 0-1.01 1.477-1.302 3.266l-.485.584" fill="#CD1E25"/><path d="M89.899 87.126s-.641 4.393-3.073 9.255c0 0 2.296-2.841 2.898-6.514 0 0 2.78-3.792 3.498-6.766 0 0 .136 1.478-.233 2.315 0 0 1.187-3.091 1.48-3.444.29-.347 2.818-1.944 3.188-2.954.37-1.01.485-1.36-.556-.728-1.039.63-11.072 7.436-14.882 11.79 0 0 3.967-3.267 4.744-3.578 0 0-8.088 6.456-6.144 10.656 0 0 .233-1.868.778-2.566 0 0-.466 4.356 1.166 5.988l.365-.458s-.314-6.086 1.42-8.486c1.739-2.4 5.195-5.916 7.245-6.578l-1.894 2.068" fill="#231F20"/><path d="M104.82 118.165s5.278 3.829 6.835 4.057c0 0-5.448 1.115-7.338 1.664 0 0 1.097-2.809.503-5.721m-5.265-4.152s-3.037 2.853-3.13 6.408c-.09 3.557 1.465 5.77 1.465 5.77l-.64.184s-2.715-2.764-2.395-6.225c.32-3.466 1.933-5.856 3.143-6.7.456-.322.779-.23 1.053 0 .275.228.504.563.504.563" fill="#FFF"/><path d="M100.897 119.354c.184.52.658 3.052-.23 4.762-.884 1.708-1.98.641-2.213.182-.23-.459-.593-2.348 0-3.83.597-1.48 1.905-2.644 2.443-1.114" fill="#231F20"/><path d="M101.873 122.039s.458-.838.458-3.003c0 0 .871 1.235.23 3.874 0 0 1.251-2.778.366-5.677 0 0-1.89-1.296-2.26-1.617-.364-.32-.974-.168-1.294.152-.322.32-1.571 1.604-1.848 3.13l.365-.367s-.64 1.62-.365 3.463c0 0 .925-4.323 2.258-4.715 1.253-.366 1.74.566 1.985 1.434.241.87.105 3.326.105 3.326m3.133-1.719s1.177.485 2.04 1.09c.864.603 1.834 1.399 1.834 1.399l2.775-.587s-1.512-.175-6.835-4.057c0 0 .27 1.685.186 2.154m-6.926-4.535s-.382-.86-1.364-.998c0 0 .874-1.2 1.46-1.433.587-.231.805-.044 1.379.66 0 0-1.065 1.073-1.475 1.77" fill="#E9E9E9"/><path d="M92.827 115.895s-.707 1.19-.597 3.57c0 0 .296-2.5.95-3.243l-.353-.327" fill="#231F20"/><path d="M94.166 114.664s-1.64 2.346-1.827 5.706h.463s.135-2.87 1.364-5.706m.764 1.45s-.878 2.89-1.07 5.758c0 0-.298-.198-.298-.551 0-.353.549-4.011 1.367-5.207" fill="#E9E9E9"/><path d="M105.753 116.492s2.158 2.159 10.244 4.454l.358-.799.36-.058s-.083 1.138-.306 1.498c-.22.36-.552.194-.552.194s-7.281-2.187-10.104-5.29" fill="#231F20"/><path d="M124.79 119.507s.495.876-.076 2.156l.444.026s.963-1.661.203-2.764l-.57.582" fill="#FFF"/><path d="M124.587 119.825l-.33.38s-.024.947-.275 1.163c-.256.219-.533-.074-.56-.506l-.393.255s.014.445.269.47c.254.025 1.012.025 1.012.025s.684-.672.277-1.787" fill="#918F90"/><path d="M123.271 121.966l.102.303s2.368.432 4.532 1.358c0 0-.479-1.178-3.469-1.636-.433-.066-1.165-.025-1.165-.025m3.026-3.775s0 2.394-.76 3.623l.434.1s1.01-.974.834-4.05l-.508.327" fill="#231F20"/><path d="M86.969 99.61s5.298-6.708 8.859-8.436c3.559-1.726 6.496.887 7.644 1.886 1.152 1 5.815 5.708 9.377 12.312 0 0-7.444-11.259-10.69-11.785-3.245-.527-4.445.21-4.445.21s.725-1.105 2.979-.949c0 0-2.517-1.515-7.488 2.046-4.972 3.56-5.815 4.822-5.815 4.822l-.421-.105m4.65 7.239s3.077-.426 4.472 1.028c1.397 1.455 3.365 3.79 3.365 3.79s-3.537-3.933-5.871-4.049c-2.337-.112-4.619-.026-6.157 3.505 0 0 3.363-3.759 6.27-2.676 2.908 1.083 4.846 3.618 6.014 4.618 1.17.996 5.558 4.731 8.294 6.24.468.26 2.193.913 3.077 1.084 0 0-6.299-3.107-9.605-7.44-.549-.722-4.474-6.498-7.068-6.611-2.592-.114-2.791.512-2.791.512" fill="#E9E9E9"/><path d="M115.997 120.946s-9.98-2.486-12.464-6.817c0 0 4.037 3.268 9.24 4.557 1.135.283 2.706.682 3.518.714 0 0 .252.579-.294 1.546" fill="#E9E9E9"/><path d="M116.68 121.88h.323s.904-1.929.805-2.512c-.163-.973-1.552-2.102-7.008-6.528 0 0 4.778 4.892 5.62 5.846.744.844.903 1.615.26 3.195" fill="#E9E9E9"/><path d="M98.482 121.247c.111-.704.333-1.252.493-1.228.164.026.205.618.094 1.323-.112.7-.332 1.25-.496 1.224-.164-.025-.202-.616-.091-1.319" fill="#FFF"/><path d="M117.202 96.454s4.944 6.804 5.619 10.41c.327 1.741.185 3.392.75 2.314.562-1.08 1.42-4 1.91-3.975.491.025 1.055.565 1.005 1.669-.047 1.103-1.167 7.57-4.68 11.326 0 0 .061 2.3-.422 3.272 0 0 5.388-3.878 7.568-7.997 2.288-4.323-.484-7.689-2.964-10.294-4.446-4.661-8.786-6.725-8.786-6.725" fill="#231F20"/><path d="M118.012 97.104s2.514 3.516 3.477 5.775c0 0-.698-2.381-1.336-3.356 0 0 4.314 2.58 7.27 6.255 0 0-2.633-4.598-9.411-8.674m4.587 21.821l.006-.553s4.006-3.121 4.972-4.406c.97-1.283 1.534-2.723 1.41-5.065 0 0 1.085 2.182-.288 4.531-1.37 2.348-2.529 3.595-5.183 5.969l-.819.123-.098-.6" fill="#E9E9E9"/><path d="M122.726 119.431s1.964-1.592 4.079-3.975c0 0-2.09 3.04-4.206 4.85 0 0-.455.229-.482.05-.023-.176.078-.796.252-1.176l.23-.255.127.506m-33.598 8.162s1.362-1.985 4.95-1.218c0 0 1.438 1.623 3.184 1.025 1.747-.594 6.7-2.436 8.59-2.343 0 0-5.098 1.749-6.843 3.639 0 0 5.094-2.466 6.985-2.466l.767.336-.767.718s-4.471 1.028-6.265 4.329c0 0-.506-1.864-3.091-2.917 0 0 2.659 2.321 2.899 4.019l-.096 1.603s-2.678-4.992-7.415-5.67c-1.68-.239-3.926 1.028-6.44 6.793 0 0 .768-5.023 4.26-7.37 1.46-.977 3.637-.046 3.828 0 .193.047-1.887-1.34-4.546-.478" fill="#231F20"/><path d="M103.692 125.644s-2.797.974-6.195 2.809c0 0 1.025-1.244 2.451-1.764 1.426-.524 3.744-1.045 3.744-1.045m-4.501 4.084s3.945-3.006 6.3-3.25l.794.105-1.004.52s-2.873.723-6.09 2.625m-9.654-2.354s1.23-.896 2.833-.548c1.598.348 3.32 1.46 4.187 2.18.87.722 2.705 2.842 2.705 3.947 0 0-1.73-3.112-4.085-3.774-2.355-.658-3.295-1.179-4.502-.658-1.208.521-2.32 1.45-3.597 3.527 0 0 .834-2.214 2.737-3.63 1.903-1.42 5.362.347 5.362.347s-1.25-1.209-2.669-1.452c-1.416-.245-2.138-.183-2.971.06m28.285 2.328s-.215.49 1.254 1.254c1.469.762 3.092 1.685 3.25 2.466.156.782 2.547 2.564 3.25 2.955.704.392.079 1.313.704 1.39.627.08 1.704-.45 1.861-1.232.156-.784-3.25-5.285-3.25-5.285l-7.07-1.548" fill="#E9E9E9"/><path d="M123.686 133.32s1.306 1.008 1.902 1.683c.597.674 1.73 1.692 2.254 1.692.527 0 .957-.482 1.87-1.544.91-1.06 1.13-1.524 1.445-2.333.315-.806 1.115-2.428 1.545-2.882.43-.458.84-1.273.106-1.87-.74-.596-2.88-1.62-5.703-1.656-2.823-.035-6.35.184-8.356 1.235-2.006 1.053-1.658 2.324.212 2.709 1.866.388 4.266 1.33 5.214 2.184.354.316 1.02.85.389.781-.632-.07-.878 0-.878 0" fill="#231F20"/><path d="M129.185 132.923s.737-3.023.455-4.505c-.134-.71-.888-1.052.42-.877 1.307.172 2.421.941 2.185 1.762-.14.491-.422.92-.493.245-.068-.675-.955-.35-1.236.07-.278.42-.313.694-.349 1.298-.036.606-.982 2.007-.982 2.007" fill="#231F20"/><path d="M129.185 130.951s.526-2.612-1.13-3.874c0 0-2.683-.515-6.694.357-1.936.423-3.909 1.481-3.241 2.114.662.632 3.094.8 4.189 1.403 1.097.606 4.411 1.806 3.247 2.822 0 0 1.26.395 1.051-.209-.212-.605-1.937-2.262-4.51-3.138-2.566-.878-2.743-1.063-2.778-1.271 0 0 1.79.499 2.954.464 1.168-.036 2.003.596 3.247.493 1.263-.109 2.498-.396 2.567-1.414 0 0 1.168 1.158 1.098 2.253" fill="#231F20"/><path d="M129.887 128.453l-.282-.773s1.938.105 2.43 1.16c.093.2 0 .569 0 .569s-.24-.5-1.087-.782c-.852-.28-1.06-.174-1.06-.174m-.915.85s-.112-1.23-1.024-1.937c0 0-2.745-.387-5.781.175-3.033.56-3.979 1.5-3.91 1.683.07.185 1.13.639 1.939.85 0 0-1.204-.637-1.097-1.026l.289-.209 1.334.385s1.516-.946 3.386-1.088c1.863-.141 3.558 0 3.875.317l-.07-.421s.85.602 1.06 1.27" fill="#FFF"/><path d="M100.248 140.24s-.37 1.467-.238 2.392c0 0 .734-1.013 1.186-1.099v-.325s-.754-.88-.948-.967m.258 2.585s.324-.516.69-.67l-.02.882s-.498-.19-.67-.212" fill="#E9E9E9"/><path d="M99.712 139.982s-.303 1.508-.128 2.716c0 0-1.639.059-2.563.535 0 0 1.054-2.755 2.69-3.251m-.496-.258s-2.178 1.417-2.888 3.142c0 0-1.83-3.207-.172-7.386 0 0 1.394 3.137 2.392 3.834.214.151.668.41.668.41" fill="#FFF"/><path d="M95.123 136.408s-.82 4.2.714 7.148c0 0-2.132 1.612-4.18 1.334 0 0-.454-.152-.17-1.292.277-1.137 1.14-4.667 3.636-7.19" fill="#FFF"/><path d="M94.736 134.7s.847.062.967.335c0 0-4.117 3.994-4.783 8.507 0 0-1.906-5.298 1.089-10.778 0 0 .514-.393.877-.152.366.24 1.576 1.482 1.85 2.089" fill="#FFF"/><path d="M91.657 133.45s.226-.457.352-.686c0 0 .514-.393.877-.152.366.24 1.576 1.482 1.85 2.089 0 0 .847.061.967.334 0 0-2.228 2.163-3.671 5.104 0 0 .016-3.15 1.606-4.835 0 0-1.957-1.35-1.98-1.853m2.746 9.891c-.283-.697-.19-4.518-.19-4.518-.57.443-1.949 2.217-1.949 2.217.557-1.456 1.444-3.205 2.858-4.633 0 0-.82 4.2.714 7.148 0 0-.386.292-.986.603 0 0-.162-.123-.447-.817m3.045-4.129c-.512-.22-.505-1.243-.98-1.56-.476-.315-.954.392-.954.392a9.895 9.895 0 0 1 .64-2.565s1.394 3.137 2.392 3.834c.214.151.668.41.668.41s-2.178 1.417-2.888 3.142l-.142-.291c-.222-1.778 1.264-3.362 1.264-3.362m1.398 1.263c.265-.225.554-.4.865-.494 0 0-.303 1.508-.128 2.716l-.876.081c-.206-.849.139-2.303.139-2.303m12.582-45.519s6.2 4.875 7.267 8.628c0 0-.526-4.56-2.496-6.343-1.968-1.781-3.76-2.229-4.771-2.285m5.144 15.853s-.185.726.218 1.033c.403.313 2.87 2.094 3.658 2.094.786 0 1.472-1.066 1.472-1.066l-.376-.715s-.837.528-1.593.372c-.757-.156-3.38-1.719-3.38-1.719" fill="#E9E9E9"/><path d="M116.07 111.385s3.453 3.048 4.475 2.903c1.023-.144 1.566-1.593 1.566-1.593s-1.107 1.144-1.566 1.086c-.457-.057-1.146-.23-4.475-2.396" fill="#231F20"/><path d="M117.97 125.38c.898-.271 4.489-1.224 10.185-1.048 0 0-2.588-1.424-7.717-2.176 0 0 .107-3.03.615-4.149.503-1.117 2.302-3.16 3.056-4.958.75-1.804 1.664-5.34 1.696-6.054.034-.718-.245-1.364-.579-.48l-.066.175-.431 1.846c-.187 1.886-2.278 6.493-3.762 7.524-1.483 1.032-2.787-.283-3.242-.692-.453-.406-5.985-5.067-8.386-7.75-2.4-2.685-.396-1.77.353-1.473.749.294 2.375.858 2.375.858-1.961-1.272-4.83-3.037-5.503-3.339-.914-.41-1.26-.417-.684.642.582 1.057 2.422 4.49 7.111 8.571 4.687 4.08 5.676 4.962 5.916 5.778.24.82-.478 3.706-.817 4.218-.341.511-1.9.609-3.126.811-.969.164-3.087 1.021-5.223 2.802 0 0 3.657-2.55 9.923-2.844l2.39.227s-3.476.294-5.643 1.598l1.559-.086" fill="#E9E9E9"/><path d="M116.326 113.305s-.312-.777-.312-1.086c0 0 2.808 2.528 4.124 2.403 1.317-.125 1.473-.745 1.473-.745l1.043.039-.67 1.17-1.41.915-1.38-.51-2.868-2.186" fill="#E9E9E9"/><path d="M115.526 112.72s3.423 3.678 5.19 3.564c0 0 1.347-.268 1.938-2.368 0 0-1.164 1.91-2.05 1.852-.889-.056-2.397-.965-5.078-3.047m4.932 6.053s-.175 2.788-.582 3.648l-.673.175s.9-2.265 1.255-3.823m-1.582 5.028s2.585-.645 5.838-.47l.953.295s-5.056-.079-6.791.175" fill="#231F20"/><path d="M128.329 137.8c-.806 2.428-2.773 5.326-3.935 6.676-1.159 1.353-2.83 3.014-6.56 4.895-3.73 1.88-6.89 1.39-6.89 1.39l-.175-.758c-1.649.23-4.075-2.455-4.075-2.455s.431-.375.863-.606c.433-.229.386-.527 0-.728-1.906-.999-3.234-3.962-3.234-3.962.461.2 1.297-.116 1.297-.116-1.248-.46-1.438-2.11-1.383-2.944.06-.835-.987-1.91-1.159-2.408-.174-.501.573-1.881.573-1.881-1.967.632-3.172 3.213-3.172 3.213s-.23-.173-1.48-1.275c-1.247-1.105-1.302-2.025-1.677-2.6-.375-.576-1.854-.778-1.912-.979-.108-.391-1.505-1.507-1.505-1.507.203-.343-.228-.699-.864-.672-3.297.15-4.296 5.663-4.296 5.663-.105-1.255-.035-2.733 1.502-5.072 1.54-2.339 3.462-1.723 3.462-1.723-2.065-.722-2.527-1.123-3.768.366-1.333 1.599-2.896 4.11-3.031 7.273-.135 3.17.443 6.533 2.176 8.401 1.735 1.874 2.75 2.888 3.432 2.785.684-.102 3.843-3.441 4.63-3.738 0 0-1.026 1.132-1.06 1.568 0 0 2.826-1.365 5.208-.92 0 0-.206-1.734-.172-2.11 0 0-2.38-.476-3.944.171-1.561.648-4.053 1.733-5.036 1.769-.982.033-2.235-.787-2.853-2.212-.612-1.426-.647-2.075-.647-2.075s.81 2.212 1.7 2.758c0 0-1.77-4.457.58-10.372 0 0-1.365 1.262-2.179 3.131 0 0 .845-3.65 3.202-5.003 1.118-.64 1.937-.24 1.699-.033-.238.206-.65.408-.65.408s1.256.814 1.7 1.426c.445.616.621.513 1.228.684.608.169 1.522 2.17 2.137 3.058.613.887 1.632 1.664 2.245 1.938.615.272 1.161 1.056 1.161 1.056s.026-1.939.812-2.519c0 0-.854 3.501-.378 6.124.479 2.618 2.115 7.376 5.72 7.989 3.602.615 8.495.273 12.063-2.176 3.551-2.436 6.296-5.508 8.55-10.463l.095-1.435" fill="#E9E9E9"/><path d="M91.707 146.174s.246 1.715 1.342 1.294c1.1-.419 1.765-1.639 1.765-1.639s-1.493.419-2.061.392c-.567-.021-1.046-.047-1.046-.047m5.369-.396s.329-1 1.368-1.147c1.038-.148 1.566.075 1.566.075s-.8.577-1.368.653c-.57.074-1.566.419-1.566.419" fill="#FFF"/><path d="M135.44 135.065c-.937 4.26-2.67 6.314-3.7 7.576-1.026 1.262-2.17 2.024-3.554 1.672-1.377-.351-1.18-1.624-1.18-1.624-.24.398-.52.803-.858 1.196-.193.221-.17.776.342 1.016.512.238 2.38.92 2.38.92s.75.096 1.802-.82c1.051-.912 4.174-4.076 4.756-9.617l.012-.319m-26.694 10.745s-.8-.207-.531-.595c.269-.39.629-.352.897-.5.27-.15-.171-.51.3-.54.472-.03.502.412.44.8-.059.39-.09.78-.09.78l-.56.207-.456-.152" fill="#E9E9E9"/><path d="M108.72 145.326s.285.57.654.456c.37-.114.398-.685.398-.685s.538.713-.088.998c-.626.287-.88-.112-.938-.285-.058-.17-.027-.484-.027-.484" fill="#231F20"/><path d="M107.735 141.608s-.98-.128-.62-.599c.358-.471.47-.862.68-.947.21-.094.837.064.628.715-.208.652-.688.831-.688.831" fill="#E9E9E9"/><path d="M107.976 140.567s.827.596.342 1.112c-.486.512-1.167.028-1.224-.144 0 0 .682.027.854-.172.171-.2.028-.796.028-.796" fill="#231F20"/><path d="M86.028 128.01l-4.252 7.753s1.734 2.566 2.462 3.142c0 0 .379-4.854 1.864-6.944 1.484-2.087-.074-3.952-.074-3.952" fill="#E9E9E9"/><path d="M85.528 128.909s-1.73 3.607-1.82 5.606c-.09 1.998-.178 3.546-.178 3.546l-1.754-2.298 3.752-6.854m17.364 20.271s-.34-1.559-.983-1.765c-.642-.207-4.727-.904-6.716.64 0 0 2.84 1.054 5.02 1.143 2.18.087 2.679-.018 2.679-.018" fill="#FFF"/><path d="M97.644 147.163c-.912.118-1.796.381-2.451.892 0 0 2.84 1.054 5.02 1.143 2.18.087 2.679-.018 2.679-.018l-.243-.786c-2.977.285-5.005-1.231-5.005-1.231" fill="#E9E9E9"/><path d="M81.752 133.506l-.618.956s-.337-.167-.394-.562c0 0-.564.056.337 1.883.9 1.825 4.778 7.862 6.828 9.858l-.956.394s-1.714-1.94-2.107-2.163c0 0 .362-1.971-2.275-3.878-1.827-1.318-3.765.283-3.765.283s-1.344-.394-2.47-.507l3.202-6.544s.338-1.238 2.218.28" fill="#CD1E25"/><path d="M78.578 139.095s-.307-1.012 1.183-1.769c0 0-1.183-.618-2.445 1.995l-.45-.111 3.006-5.873s.192-.387.7-.25c0 0-.556.731-.25 1.6.305.872.868 2.105 2.977 5.367 0 0-.758-.65-1.714-.959 0 0-.757-1.373-1.264-1.206-.506.17-1.548.758-1.743 1.206" fill="#CD1E25"/><path fill="#FFF" d="M72.457 133.956l5.024.845-.785 1.263-2.64-1.602 2.388 2.052-.335.754-3.652-3.312m7.077 6.659s1.294-1.207 2.838-.056c1.546 1.148 1.49 2.526 1.49 2.526l-.79-.417s-.173-1.198-1.283-1.911c0 0 .638 1.12.638 1.346 0 0-2.442-1.433-2.893-1.488m8.089 6.177s.531-.388.982-.194l1.296 1.655s0 1.098-.116 1.32c0 0-1.712-2.36-2.162-2.781"/><path d="M90.205 148.592l-.08 1.377.249.697s.788-.34.452-1.654l-.62-.42" fill="#E9E9E9"/><path d="M90.992 151.847s1.013-.563.676-1.935c0 0 1.53 1.053 2.975-1.127 0 0 4.02 1.744 8.596 1.127 0 0 1.038 1.912 3.035 2.497 0 0-1.545 0-1.997 1.323-.447 1.317-.027 2.692.788 2.916l3.09-.111s-2.84 1.8-6.21 1.743l-1.206-.843-2.612-6.488s-.95-1.291-3.146-.058c-.9.508-.9 2.166-.618 2.616l.843.786-3.481-.958-.733-1.488" fill="#CD1E25"/><path d="M98.296 155.894l-1.32-.675-1.883-2.5s-.402-1.197.933-1.581c1.335-.384 1.892.234 2.141.95.248.718 1.916 4.8 1.916 4.8l-1.306-.812-2.093-3.362s-.553-1.038.08-1.31c0 0-.98.004-.845.886.068.446 2.377 3.604 2.377 3.604m14.236-.504l-6.348.363s-1.56.265-1.576-.843c-.018-1.111.85-1.955 1.456-1.972.6-.018 6.468 2.452 6.468 2.452" fill="#FFF"/><path d="M68.911 148.947s.176-4.064 3.058-5.503c0 0-3.396 5.369-1.06 12.433 1.68 5.07 6.067 7.568 6.067 7.568s.172-7.939 2.932-9.567c2.755-1.628 7.141-1.928 10.383-.993 0 0-2.135-8.002-10.383-11.443-8.25-3.442-10.498 3.318-10.624 4.248-.125.932-.373 3.257-.373 3.257" fill="#231F20"/><path d="M88.278 152.478s1.379.225 2.013.407c0 0-2.135-8.002-10.383-11.443-6.647-2.772-9.398 1.077-10.282 3.162 0 0 1.781-3.625 6.42-3.163 0 0-2.906.631-3.682 2.76 0 0 2.662-3.44 6.926-1.114 4.266 2.327 8.288 6.623 8.988 9.391m14.886 6.39s3.51 2.381 4.401 3.427c0 0 4.24-.96 4.914-.96 0 0-3.418-3.28-4.84-3.43-1.424-.15-2.014.514-2.463.591-.447.075-2.012.372-2.012.372" fill="#E9E9E9"/><path d="M108.776 162.013s-1.245-1.639-1.906-2.032c-.663-.395.22-.756.976-.537.76.222 3.548 2.034 3.548 2.034l-2.618.535" fill="#FFF"/><path d="M105.466 164.307s4.278-2.771 8.413-2.282c0 0-.4 2.794-.37 3.762 0 0-1.056.346-1.341.46 0 0-3.18-.71-4.962-.376-.453.085-.995.524-1.138.347-.142-.176.685-.747.685-.94 0-.203-.174-.456-.515-.6-.34-.141-.772-.371-.772-.371" fill="#231F20"/><path d="M112.622 161.97s-.426.146-.087.771c.343.625.343 1.02-.111 1.08-.456.054-3.587.004-4.39.46-.802.455-1.028.682-1.028.682s-.481-.31-.455-.656c.028-.345.283-.77.283-.77s3.538-1.653 5.788-1.568" fill="#E9E9E9"/><path d="M104.028 165.307s.261 5.464-3.439 7.49c-3.7 2.027-6.602 1.951-8.014 1.416 0 0 5.2 5.084 7.664 3.423 2.464-1.661 9.063-9.78 10.912-10.476 0 0-3.284-.819-4.837-.438-.711.175-1.147-.371-.8-.8.277-.341.931-.915.118-.93-.818-.012-1.06.03-1.06.03l-.544.285" fill="#231F20"/><path d="M113.438 167.2s-1.79 1.68-3.15 3.301c0 0 5.809 3.853 9.432 3.618 2.003-.127 2.065-1.68 2.065-3.748 0-2.063.041-7.996-3.94-13.437-2.319-3.173-4.257-3.94-4.257-3.94s-3.047.447-4.856.192l5.495 2.323-4.26.914s2.45 1.534 4.194 4.13c0 0 .768-2.726 2.324-3.233 0 0-1.239 2.446-1.239 4.002 0 0 1.109-2.068 2.598-2.26 0 0-2.741 3.248-2.448 7.372.065.891.235 1.809-.594 1.809-.83 0-1.512-.724-1.364-1.043" fill="#231F20"/><path d="M115.356 155.148l-.59.026c.565.485 1.989 2.128 1.989 2.128-.426.723-.72 2.284-.72 2.284s.427-.964.67-1.373c.24-.409.615.053 1.104.382.493.33.297.672.297.672-1.911 1.99-2.262 5.355-2.262 5.355.256-1.404 1.233-2.83 1.834-3.712.767-1.139 1.253.156 1.85 2.03 1.457 4.57.063 9.308.063 9.308 0 1.106 1.644 1.2 1.644 1.2.527-.668.55-1.77.55-3.077 0-2.063.041-7.996-3.94-13.437-2.319-3.173-4.257-3.94-4.243-3.94.44 0 1.754 2.154 1.754 2.154" fill="#E9E9E9"/><path d="M106.728 162.517c.68 0-5.134-4.763-11.69-7.322-6.555-2.554-8.93-2.869-13.32-1.627-2.184.618-3.874 4.122-3.814 6.06 0 0-.125 2.187.206 3.752.33 1.57 1.55 1.903 1.55 1.903l.738.036s.083-1.383.518-1.692c0 0-.123-7.049 4.555-9.051 0 0-4.02 2.95-3.38 7.693 0 0-.083 1.606.31 3.297.392 1.693 2.014 2.017 2.014 2.017s.664.29 1.427.29c0 0-.617-8.613 4.888-10.553 0 0-5.444 4.249-3.504 9.628 0 0 .885.124 1.38 1.318.496 1.197 1.36 2.063 1.113 2.555 0 0 3.441 3.67 8.763 1.053 5.318-2.617 4.43-8.122 4.43-8.122s-1.01-2.784-1.38-3.24c0 0 1.482 1.61 2.123 3.177 0 0 2.393-1.172 3.073-1.172" fill="#FFF"/><path d="M99.733 157.654c.713.442 4.382 4.069 4.382 4.069-.249-.045-1.56.064-1.56.064.4.559.826 1.232 1.1 1.902 0 0 2.393-1.172 3.073-1.172.485 0-2.324-2.416-6.346-4.729l-.649-.134M88.3 160.045c-1.14 1.739-1.868 4.514-1.225 7.173 0 0 .206.636.647 1.854.321.887 2.095 2.179 2.095 2.179s3.343 3.24 8.665.623c5.318-2.617 4.43-8.122 4.43-8.122s-.245-.671-.52-1.413c0 0 .519 5.46-3.418 7.456-3.937 2-5.814 1.213-6.722 1.091-.892-.118-1.564-.985-2.193-1.408 0 0-.726-.968-.97-1.453-.197-.392-.653-1.802-.653-1.802s-.664-2.542-.485-3.875c.183-1.333.348-2.303.348-2.303m-6.523-3.025c-1.032 1.028-1.82 2.24-1.82 2.24-1.304 2.274-2.07-.02-2.07-.02-.22.817-.165 2.454-.098 3.793.08 1.608 1.67 2.453 1.67 2.453l1.697.845s-.246-1.894-.24-2.704c0 0-.111-6.366 3.893-8.715 0 0-2.004 1.076-3.032 2.107" fill="#E9E9E9"/><path d="M86.984 159.439c-1.455 1.273-2.364 4.122-2.364 4.122-1.252 1.32-2.5-.775-2.5-.775-.082.563.047 1.6.12 2.056.361 2.254 1.933 3.22 1.933 3.22s.906.374 1.669.374c0 0-.605-8.997 4.715-11.055 0 0-2.12.788-3.573 2.058" fill="#E9E9E9"/><path d="M121.585 149.63s3.615-3.71 4.088-4.73c0 0 .767.747 1.567.96.796.213.955.767.69.98-.266.212-1.771 1.139-3.29 1.277-.588.053-1.247 1.085-1.67 1.3-.43.213-1.385.213-1.385.213" fill="#FFF"/><path d="M126.684 147c.319-.268 0-.397-.64-.503-.844-.141-2.298.826-2.298.826.868-.964 1.713-1.964 1.927-2.422 0 0 .767.746 1.567.958.796.214.955.768.69.981-.266.212-1.771 1.139-3.29 1.277a.629.629 0 0 0-.073.012s1.797-.864 2.117-1.129m-17.155-4.167s-.98-.127-.621-.598c.356-.473.474-.861.68-.95.209-.09.838.065.629.718-.208.65-.688.83-.688.83" fill="#E9E9E9"/><path d="M108.917 142.448s.312.767.882.596c.57-.17.882-.937.17-1.309 0 0 .057.742-.285.8-.337.057-.767-.087-.767-.087" fill="#231F20"/><path d="M110.432 141.23s-.801-.204-.532-.595c.268-.387.625-.35.895-.5.272-.15-.172-.51.301-.541.472-.029.5.412.442.803-.062.389-.089.777-.089.777l-.565.21-.452-.154" fill="#E9E9E9"/><path d="M110.683 141.248s.685.229.91.03c.23-.2.175-.91-.48-1.054 0 0 .202.538.086.711-.114.171-.516.313-.516.313" fill="#231F20"/><path d="M109.52 139.704s-.782-.08-.497-.38c.289-.305.378-.553.545-.61.168-.057.67.041.504.459-.168.416-.553.53-.553.53" fill="#E9E9E9"/><path d="M109.374 139.683s.682.314.967-.115c.286-.429-.395-.995-.768-.882 0 0 .427.341.313.6-.114.255-.512.397-.512.397" fill="#231F20"/><path fill="#E9E9E9" d="M74.057 134.462l2.387 2.052-.335.754-3.652-3.312 1.6.506m5.545 6.097s1.223-1.133 2.77 0c1.554 1.137 1.49 2.526 1.49 2.526l-.79-.417s-.164-1.138-1.2-1.856c0 0-1.115-.451-2.27-.253m17.012 10.858c-.264.042-.795.21-.695.873.068.446 2.377 3.604 2.377 3.604l-1.32-.675-1.883-2.5s-.423-1.272.933-1.581c1.42-.326 1.663.194 1.663.194-.9-.043-1.075.085-1.075.085m15.918 3.973l-6.348.363s-1.56.265-1.576-.843c-.018-1.108.842-1.949 1.462-1.972 0 0-.544.577-.608 1.099-.06.52.31.677 1.92.77 1.606.093 3.404.154 3.404.154l1.746.43"/><path d="M105.68 153.54s-.325.906.314.974c.637.07 4.947.48 4.947.48l-4.894-.05s-.855.042-.718-.577c.14-.62.35-.828.35-.828" fill="#231F20"/><path d="M97.541 121.89s1.29-6.045 4.19-5.128l-1.499-.97s-2.664 1.098-2.691 6.098" fill="#FFF"/></g></svg>