<svg width="200" height="200" xmlns="http://www.w3.org/2000/svg"><g fill-rule="nonzero" fill="none"><path d="M83.412 58.075V41.83c0-3.961-1.371-5.18-5.941-5.18H49.61v26.91h28.47c4.265 0 5.33-1.066 5.33-5.484M70.58 100.418v5.741l6.586.001c4.875 0 6.246-1.219 6.246-5.18v-5.742h-7.195c-4.418 0-5.637 1.067-5.637 5.18M83.412 82.899v-1.212c0-4.875-1.066-5.788-6.399-5.788H49.61v30.261l7.26-.001v-9.397c0-8.074 5.636-13.863 13.71-13.863h12.832" fill="#441E03"/><path d="M186.68 57.494s-2.401-4.267-9.756-5.591c-9.955-1.792-22.099.398-22.099.398s8.262-4.579 12.467-8.644c3.632-3.51 3.36-6.288 3.36-6.288s9.1 3.14 13.439 8.362c4.628 5.57 2.589 11.763 2.589 11.763Zm-41.013 63.095s-8.173-2.272-18.414-9.374l.028-36.34v-.015a90.206 90.206 0 0 1 4.784-2.425c16.126-7.566 29.926-8.985 29.926-8.985l-16.324 57.139ZM120.262 66.65c-1.298 2.368-2.545 5.34-3.62 8.21h-12.188c-.422-1.793-1.06-3.503-1.98-5.118 1.91-3.206 2.687-6.818 2.687-10.753v-.773c10.695-10.568 29.75-16.388 39.368-17.494-7.557 4.933-17.61 13.784-24.267 25.928Zm-1.103 110.438H70.885c-8.683 0-14.015-5.637-14.015-14.776v-43.813H24.217s1.47-4.656 5.425-8.587c1.639-1.63 6.257-3.752 6.257-3.752V36.65s-4.413-1.97-6.664-4c-2.897-2.616-5.537-8.34-5.537-8.34h59.104c8.683 0 14.32 5.028 14.32 12.645v22.035c0 5.027-1.676 8.074-5.637 10.664 4.114 2.741 5.637 5.94 5.637 12.034v1.212h21.487l-.095 34.888s-7.76-6.783-10.62-12.506c-1.835-3.68-3.208-10.043-3.208-10.043h-7.564v8.18c0 5.636-1.066 8.683-3.96 11.577-2.895 2.59-5.485 3.504-11.121 3.504h-11.46v40.461c0 4.417.914 5.788 4.113 5.788h30.754v-25.34s-9.644-.791-15.283-3.06c-6.33-2.547-14.532-9.738-14.532-9.738h43.526v50.478Zm40.864-137.753-5.397 5.201-9.557-3.981s4.263-.866 7.027-1.113c3.08-.275 7.927-.107 7.927-.107Zm-33.87-12.995c13.764-6.31 25.868-6.287 36.257-3.912l7.944 14.941c-2.587-1.393-10.727-5.936-28.645-7.14-13.57-.912-22.172.708-22.172.708s1.125-2.08 6.616-4.597Zm49.179 6.052-8.562-16.126s-17.918-5.973-39.618 1.99c-11.691 4.291-16.69 11.263-21.99 20.754v-2.056c0-13.005-10.248-20.683-22.36-20.683H11.125s4.634 11.159 5.763 13.1c1.092 1.877 4.533 7.052 6.961 9.244 1.26 1.137 2.74 2.125 4.014 2.888.006 4.882-.214 57.532-.158 59.346-2.855 1.642-7.044 5.687-10.275 10.378-3.68 5.34-6.496 15.311-6.496 15.311H48.83v35.774c0 13.14 8.505 22.815 22.054 22.815h56.31l.046-59.721c.981.487 1.886.88 2.698 1.156 19.908 6.769 32.052-.996 32.052-.996s-3.316-.718-5.374-1.394c-1.823-.597-4.58-1.791-4.58-1.791l16.877-60.037c3.032-.686 6.671-.731 10.797-.287 7.16.77 9.955 4.18 9.955 4.18s4.124-6.036 2.986-14.732c-1.056-8.06-4.58-15.529-17.32-19.113Z" fill="#441E03"/><path fill="#441E03" d="M36.716 131.156h.911v3.305h1.101v-3.305h.911v-.934h-2.923v.934M43.362 130.222l-.91 2.266-.86-2.266h-1.086l-.72 4.239h1.097l.354-2.44h.011l.972 2.44h.44l1.017-2.44h.01l.31 2.44H45.1l-.641-4.24h-1.096"/><path d="M189.666 66.237s-2.796-3.41-9.955-4.18c-4.126-.444-7.765-.399-10.797.287l-16.876 60.037s2.756 1.194 4.579 1.791c2.058.676 5.374 1.394 5.374 1.394s-12.144 7.765-32.052.996c-.812-.277-1.717-.67-2.698-1.156l-.046 59.72h-56.31c-13.549 0-22.054-9.674-22.054-22.814v-35.774H10.934s2.815-9.97 6.496-15.311c3.231-4.69 7.42-8.736 10.275-10.378-.056-1.814.164-54.464.158-59.346-1.275-.763-2.754-1.75-4.014-2.888-2.428-2.192-5.869-7.367-6.96-9.245-1.13-1.94-5.764-13.099-5.764-13.099h71.677c12.112 0 22.36 7.678 22.36 20.683v2.056c5.3-9.491 10.299-16.463 21.99-20.753 21.7-7.964 39.618-1.991 39.618-1.991l8.562 16.126c12.74 3.584 16.264 11.052 17.32 19.113 1.138 8.696-2.986 14.732-2.986 14.732ZM43.997 134.461l-.31-2.44h-.01l-1.017 2.44h-.44l-.972-2.44h-.01l-.355 2.44h-1.096l.72-4.24h1.084l.86 2.267.91-2.266h1.097l.641 4.239h-1.102Zm-4.358-3.305h-.91v3.305h-1.102v-3.305h-.91v-.934h2.922v.934ZM195.81 51.09c-1.148-8.769-5.142-17.215-18.29-21.37l-8.534-16.073-1.209-.404c-.283-.094-20.205-6.396-41.965 2.106-7.977 3.117-12.43 5.707-18.119 13.764-3.406-10.636-13.739-16.553-24.89-16.553H5.565s3.3 7.945 4.607 10.993c1.245 2.906 2.8 6.462 3.508 7.681 1.117 1.92 4.797 7.53 7.682 10.134.9.813 1.867 1.54 2.787 2.166-.021 9.732-.168 46.216-.164 55.333-3.12 2.305-6.75 6.1-9.612 10.253-2.118 3.075-3.872 7.272-5.053 10.482-1.21 3.285-3.289 10.646-3.289 10.646h26.989v7.898h12.1v24.165c0 14.968 9.952 26.524 25.764 26.524h60.017l.045-58.603c24.261 7.336 38.213-5.861 38.213-5.861s-5.322-1.1-7.566-1.792c-.681-.21-4.81-1.925-5.575-2.19l15.424-55.252c2.23-.274 4.875-.243 7.927.086 3.11.334 5.162 1.227 6.374 1.949a8.229 8.229 0 0 1 1.258.903c.153.134 1.544 1.722 1.61 1.798l1.349 1.546s2.704-3.93 3.15-4.78c.424-.806.978-1.985 1.49-3.476a26.603 26.603 0 0 0 1.21-12.073Z" fill="#F36532"/><path d="M141.709 30.229c17.918 1.204 26.058 5.747 28.645 7.14l-7.944-14.941c-10.39-2.375-22.493-2.397-36.257 3.912-5.491 2.517-6.616 4.597-6.616 4.597s8.603-1.62 22.172-.708M144.529 40.722c-9.618 1.106-28.673 6.926-39.368 17.494v.773c0 3.935-.777 7.547-2.687 10.753.92 1.615 1.558 3.325 1.98 5.118h12.188c1.075-2.87 2.322-5.842 3.62-8.21 6.657-12.144 16.71-20.995 24.267-25.928M127.281 74.86v.014l-.028 36.34c10.241 7.103 18.414 9.375 18.414 9.375l16.324-57.139s-13.8 1.42-29.926 8.985a90.206 90.206 0 0 0-4.784 2.425" fill="#F36532"/><path d="M170.652 37.37s.272 2.776-3.36 6.287c-4.205 4.065-12.467 8.644-12.467 8.644s12.144-2.19 22.1-.398c7.354 1.324 9.755 5.59 9.755 5.59s2.039-6.191-2.59-11.762c-4.338-5.223-13.438-8.362-13.438-8.362" fill="#E2B97A"/><path d="M193.111 66.64c-.446.85-3.15 4.78-3.15 4.78l-1.35-1.546c-.065-.076-1.456-1.664-1.609-1.798a8.229 8.229 0 0 0-1.258-.903c-1.212-.722-3.264-1.615-6.374-1.95-3.052-.328-5.696-.359-7.927-.085l-15.424 55.251c.765.266 4.894 1.981 5.575 2.191 2.244.691 7.566 1.792 7.566 1.792s-13.952 13.197-38.213 5.86l-.045 58.604H70.885c-15.812 0-25.764-11.556-25.764-26.524v-24.165h-12.1v-7.898H6.032s2.079-7.36 3.289-10.646c1.181-3.21 2.935-7.407 5.053-10.482 2.862-4.153 6.492-7.948 9.612-10.253-.004-9.117.143-45.6.164-55.333a26.075 26.075 0 0 1-2.787-2.166c-2.885-2.603-6.565-8.213-7.682-10.134-.709-1.22-2.263-4.775-3.508-7.68C8.867 20.505 5.566 12.56 5.566 12.56h77.236c11.152 0 21.485 5.917 24.891 16.553 5.69-8.057 10.142-10.647 18.119-13.764 21.76-8.502 41.682-2.2 41.965-2.106l1.21.404 8.532 16.073c13.15 4.155 17.143 12.601 18.291 21.37a26.603 26.603 0 0 1-1.21 12.073 24.856 24.856 0 0 1-1.489 3.476Zm-13.004-39.97-8.536-16.078-2.618-.873c-17.097-5.698-47.526-1.952-60.439 12.372C103.1 13.394 93.06 8.846 82.802 8.846H0c4.711 11.341 10.304 28.742 20.43 36.58-.03 11.162-.149 40.957-.158 51.64-7.1 5.92-11.28 12.676-14.438 21.253-1.241 3.37-4.715 15.645-4.715 15.645h28.187v7.899h12.1v20.449c0 16.793 11.394 30.24 29.48 30.24h63.729l.045-57.53c11.564 2.456 24.082.99 34-5.61 2.017-1.343 8.155-7.26 8.155-7.26-5.433-1.118-11.167-1.897-16.32-3.975l13.82-49.506c3.404-.047 8.329.064 10.743 2.79l.755.855 4.494 5.153s3.4-4.941 4.144-6.047c10.645-15.828 5.375-37.742-14.344-44.751Z" fill="#FFF"/><path d="m145.07 40.555 9.556 3.981 5.397-5.201s-4.848-.168-7.927.107c-2.764.247-7.027 1.113-7.027 1.113M56.87 96.762v9.397l-7.26.001V75.9h27.403c5.333 0 6.399.913 6.399 5.788v1.212H70.58c-8.074 0-13.71 5.789-13.71 13.863Zm-7.26-60.113h27.86c4.571 0 5.942 1.219 5.942 5.18v16.246c0 4.418-1.066 5.484-5.332 5.484H49.61V36.65Zm33.802 64.331c0 3.961-1.371 5.18-6.246 5.18l-6.586-.001v-5.741c0-4.113 1.219-5.18 5.637-5.18h7.195v5.742Zm6.753 35.368c5.64 2.269 15.283 3.06 15.283 3.06v25.34H74.694c-3.2 0-4.114-1.37-4.114-5.788V118.5h11.461c5.636 0 8.226-.914 11.12-3.504 2.895-2.894 3.961-5.941 3.961-11.577v-8.18h7.564s1.373 6.363 3.209 10.043c2.859 5.723 10.619 12.506 10.619 12.506l.095-34.888H97.122v-1.212c0-6.093-1.523-9.293-5.637-12.034 3.961-2.59 5.637-5.637 5.637-10.664V36.954c0-7.617-5.637-12.644-14.32-12.644H23.698s2.64 5.723 5.537 8.338c2.25 2.032 6.664 4 6.664 4v69.512s-4.618 2.123-6.257 3.752c-3.954 3.931-5.425 8.587-5.425 8.587H56.87v43.813c0 9.14 5.332 14.776 14.015 14.776h48.274V126.61H75.633s8.202 7.19 14.532 9.738Z" fill="#FFF"/></g></svg>