<svg width="200" height="200" xmlns="http://www.w3.org/2000/svg" xmlns:xlink="http://www.w3.org/1999/xlink"><defs><path id="a" d="M0 0h162.86v200H0z"/></defs><g fill="none" fill-rule="evenodd"><path d="m178.007 192.008-1.683 2.703-1.657-2.703h-2.07v6.997h1.911v-4.088l1.773 2.771h.069l1.772-2.771v4.088h1.929v-6.997h-2.044Zm-12.63 0v1.704h2.09v5.293h1.954v-5.293h2.092v-1.704h-6.136Z" fill="#423228"/><g transform="translate(19)"><mask id="b" fill="#fff"><use xlink:href="#a"/></mask><path d="M68.901 84.132h36.895V49.238H68.9v34.894Zm0 66.098h36.895v-34.894H68.9v34.894Zm60.165-52.672 17.412-15.94V36.247l-20.846-22.072H14.54v35.787h15.596v99.848H14.54v36.033h111.092l23.053-22.072v-50.027l-19.62-16.186Z" fill="#423228" mask="url(#b)"/><path d="M78.9 141.323h17.084V124.6H78.901v16.722Zm-6.363 5.814h29.807v-28.715H72.537v28.715Zm6.364-71.912h17.083V58.142H78.901v17.083Zm-6.364 5.814h29.807V52.324H72.537V81.04Zm79.784 84.284-25.227 24.153H10.904V146.9h15.448v-94.03H10.904V10.542H127.2l22.915 24.261v48.414l-15.51 14.196 17.717 14.616v53.294Zm-1.654-68.322 9.986-9.142V30.61L131.743 0H0v62.686h15.813v74.404H0v62.932h131.323l31.537-30.195v-62.765l-12.193-10.058v-.003Z" fill="#AD252A" mask="url(#b)"/></g></g></svg>