<svg width="200" height="200" xmlns="http://www.w3.org/2000/svg"><g fill="none"><path d="M196.348 39.052a225.388 225.388 0 0 0-11.389-4.047l-7.007-2.282v.116l-.815-.235a249.916 249.916 0 0 0-10.214-2.706l-1.898-.46v-.031l-1.18-.257-3.534-.859v.096a270.818 270.818 0 0 0-11.56-2.237l-1.434-.244v-.031l-1.392-.207-3.42-.582v.08a288.345 288.345 0 0 0-11.803-1.492l-1.09-.115v-.041l-1.987-.168-2.828-.298v.06l-.077-.007a299.898 299.898 0 0 0-12.05-.77l-5.578-.245v6.136l-6.414-6.191-2.175.005c-4.875.012-9.8.142-14.636.386l-2.177.109-8.565 9.212-8.368-7.75-2.48.308c-7.58.943-15.09 2.186-22.319 3.692l-4.246.884v6.23l-7.304-4.441-2.215.59c-7.853 2.09-15.509 4.542-22.754 7.287L0 39.851v62.922l7.432-3.137c6.292-2.655 13.421-5.04 21.19-7.086l1.795-.473 5.295-7.024v5.67l6.382-1.258a255.11 255.11 0 0 1 11.59-2.002l2.906-.435 2.994-.382c3.704-.472 7.495-.881 11.269-1.216l4.87-.43v-6.258l6.17 5.903 2.295-.105a330.9 330.9 0 0 1 14.661-.342l2.309-.003 8.16-8.635 8.28 9.14 2.176.138c4.186.265 8.377.613 12.458 1.038l2.462.257 1.033-.983 1.044 1.227 2.06.262c4.246.54 8.463 1.178 12.533 1.893l2.564.45 6.383-5.696v6.946l4.114.966c3.72.874 7.36 1.835 10.822 2.858l4.682 1.383.016.052 2.567.888a136.05 136.05 0 0 1 9.755 3.783l7.488 3.26V40.368l-3.407-1.316" fill="#231F20"/><path d="M56.696 43.086v6.47c-.688.094-.793.11-1.557.213v-6.471l1.557-.212zm5.935-15.97a275.66 275.66 0 0 0-22.088 3.652l-1.982.413v56.093l2.979-.588a251.97 251.97 0 0 1 11.529-1.996l2.123-.318V64.36l1.346-.188v19.991l2.81-.358c3.48-.444 7.055-.824 11.252-1.195l2.272-.201V58.48l-4.55-3.185 4.55-4.387V35.385l-9.084-8.413-1.157.143zM20.81 50.477V56.1l-1.398.448v-5.625l1.398-.447zm.052 20.433v6.182l-1.398.46v-6.183l1.398-.46zm15.582-16.304v-15.73l-8.48-5.156-1.034.275c-7.76 2.066-15.321 4.487-22.475 7.198l-1.605.609v56.692l3.469-1.464c6.415-2.708 13.674-5.137 21.573-7.218l.837-.22 8.719-11.566v-16.13l-5.106-2.213c1.646-2.04 4.102-5.077 4.102-5.077zm158.871-12.915a222.637 222.637 0 0 0-11.243-3.994l-3.271-1.065v9.507l-3.154-10.44-1.304-.376a250.1 250.1 0 0 0-10.096-2.675l-3.087-.75v56.094l1.92.45c3.773.886 7.466 1.862 10.98 2.9l3.203.946v-8.776l2.988 9.778 1.198.415a138.477 138.477 0 0 1 9.961 3.863l3.495 1.522V42.305l-1.59-.614m-46.729-12.696l-2.916-.497v41.844l-1.503-.182-.004-41.876-2.125-.315a258.197 258.197 0 0 0-11.422-1.434l-2.756-.29v41.964l-1.345-.166V26.079l-2.283-.192c-3.57-.301-7.175-.525-11.687-.722l-2.603-.115v46.966l8.997 9.932 1.015.064c4.225.266 8.456.619 12.575 1.048l1.149.12 2.27-2.158 2.284 2.686.962.122c4.29.547 8.552 1.19 12.666 1.913l1.197.21 9.118-8.139V31.686l-1.96-.427a253.958 253.958 0 0 0-11.629-2.264M92.159 40.013v26.893c-.7.03-.782.032-1.504.06V40.074l1.504-.06zm6.35-15.14c-4.829.01-9.706.139-14.498.38l-1.015.052-8.94 9.615v38.296l8.93 8.543 1.072-.048a334.09 334.09 0 0 1 14.788-.345l1.077-.001 8.802-9.314V33.75l-9.2-8.88-1.016.002z" fill="#FFF"/><path d="M52.887 41.088l6.017-.83V51.73l-6.017.831V41.088zm0 41.124v-20.03l6.017-.832v20.03c3.749-.48 7.577-.893 11.475-1.238V59.766L64.427 55.6l5.952-5.74V36.462l-7.438-6.888a272.237 272.237 0 0 0-21.886 3.62v51.063c3.833-.756 7.78-1.439 11.832-2.045zM17.176 69.515l5.946-1.982v11.402l-5.946 1.982V69.515zm0-20.453l5.946-1.98v10.831l-5.946 1.982V49.062zm10.077 38.355l7.7-10.217V63.518l-6.597-2.86 5.594-6.924V40.265l-6.375-3.877c-7.74 2.061-15.168 4.443-22.232 7.12v51.24c6.518-2.75 13.871-5.213 21.91-7.331zm149.516 1.549V66.82l7.5 24.545a140.395 140.395 0 0 1 10.142 3.934V44a218.933 218.933 0 0 0-11.115-3.949v22.956l-7.647-25.304a243.981 243.981 0 0 0-9.995-2.647v50.976c3.85.903 7.56 1.883 11.115 2.934m-43.979-8.371l3.35-3.185 3.37 3.962c4.375.557 8.64 1.203 12.784 1.93l7.388-6.592V33.68a265.477 265.477 0 0 0-11.833-2.296v41.703l-5.873-.702-.002-41.934a281.34 281.34 0 0 0-11.833-1.497V70.97l-5.873-.701V28.396c-3.902-.33-7.85-.581-11.833-.757v43.427l7.676 8.473c4.305.271 8.534.625 12.678 1.056M88.382 37.663l6.016-.222v31.855l-6.016.221V37.663zM98.843 78.89l7.388-7.819V34.797l-7.716-7.447c-4.843.012-9.638.14-14.378.378l-7.588 8.162v36.272l7.394 7.073c4.886-.223 9.859-.34 14.9-.346z" fill="#4D180C"/><path d="M161.687 136.455c.009-.17.022-.344.022-.511 0-2.358-.773-4.276-1.6-5.675.381-.088.732-.278.956-.604.177-.258.267-.558.271-.86l.496-.023c-.317-.924-.943-1.75-1.613-2.431-.692-.942-1.537-1.707-2.259-2.268 4.354-6.393-.886-11.321-.886-11.321.729-1.59.121-3.181-.924-4.548-.661-1.823-1.886-3.324-2.747-4.226a1.55 1.55 0 0 0 .273-.745c.025-.287.036-.567.036-.84 0-3.885-2.275-6.471-3.475-7.565.003-.076.016-.156.016-.231 0-2.467-1.108-4.317-1.797-5.236.005-.074.041-.15.041-.223 0-.846-.289-1.632-.6-2.242.262-.454.362-.858.385-.985.018-.094.026-.189.026-.283l-.001-.078c-.04-.785-.399-1.551-.827-2.212.11-.219.224-.44.224-.683a1.55 1.55 0 0 0-.076-.48c-.696-2.148-2.383-3.757-3.352-4.545-.002-.712-.002-1.51-.002-1.584-.028-1.988-.759-3.693-2.18-5.064-3.732-3.6-11.07-3.493-11.381-3.486-7.334 0-10.785 3.075-11.827 4.227-1.786.582-2.876 1.63-3.47 2.65a1.584 1.584 0 0 0-.527-.141c-1.278-.05-2.417.05-3.351.19.004-.048.027-.093.027-.14 0-.329-.104-.655-.306-.927a1.58 1.58 0 0 0-1.396-.636c-2.045.164-3.501.572-4.583 1.05a1.56 1.56 0 0 0-1.067-.448c-1.48 0-2.972.715-3.915 1.27-.937-.556-2.421-1.27-3.9-1.27a1.56 1.56 0 0 0-1.067.448c-1.082-.478-2.538-.886-4.583-1.05a1.58 1.58 0 0 0-1.397.636 1.554 1.554 0 0 0-.305.927c0 .047.023.092.027.14-.935-.14-2.073-.24-3.351-.19a1.595 1.595 0 0 0-.528.141c-.593-1.02-1.684-2.068-3.47-2.65-1.043-1.153-4.498-4.228-11.86-4.228-.277-.006-7.616-.113-11.348 3.488-1.42 1.37-2.151 3.075-2.18 5.063v1.584c-.97.788-2.657 2.397-3.353 4.545a1.55 1.55 0 0 0-.076.48c0 .242.114.464.224.683-.429.66-.787 1.427-.827 2.212a1.61 1.61 0 0 0 .024.36c.023.128.124.533.386.986-.312.61-.6 1.396-.6 2.242 0 .073.036.15.04.223-.688.919-1.797 2.769-1.797 5.236 0 .074.014.155.017.231-1.2 1.094-3.475 3.68-3.475 7.564 0 .275.01.554.035.84.022.268.125.521.278.742-1.002 1.049-2.501 2.909-3.027 5.146-.583 1.129-.8 2.362-.247 3.597-.05.06-.102.117-.15.179-.948.86-5.562 5.53-1.406 11.389a13 13 0 0 0-.725.641c-1.015.715-2.697 2.11-3.291 3.846l.91.041c.01.296.097.59.27.842.202.296.512.475.852.573-.972 2.108-2.658 6.334-2.368 9.782 0 0 .67-.809 1.723-1.935.082.044.158.096.248.126.592.202 1.25.037 1.673-.422.019-.02 1.659-1.76 4.522-3.513.75 2.026 2.299 4.966 5.25 6.013.507.18 1.066.072 1.487-.25.89 1.01 2.244 2.217 3.396 1.863a1.258 1.258 0 0 0-.045.312c0 .11.013.223.033.34.003.015.016.097.016.234 0 .493-.17 1.687-1.617 2.864a1.565 1.565 0 0 0-.415 1.907 1.58 1.58 0 0 0 1.775.83c.473-.11 1.067-.357 1.673-.728.06.1.107.207.19.292.383.394.946.56 1.483.44l.395-.09.105 1.132c.078.851.83 1.483 1.688 1.419l1.613-.121c.29-.022.567-.123.804-.293l1.72-1.236-1.719 5.047a1.544 1.544 0 0 0 .112 1.257l.896 1.618a1.583 1.583 0 0 0 2.587.253l2.128-2.513c.04.357.052.697.157 1.094.16.602.666 1.049 1.286 1.145a1.593 1.593 0 0 0 1.578-.716c.16-.252.956-1.335 2.048-1.133l.675 1.296-2.646 3.586a1.556 1.556 0 0 0 .013 1.87 1.583 1.583 0 0 0 1.805.525l2.59-.953-.054 1.02a1.565 1.565 0 0 0 .765 1.426c.5.298 1.127.296 1.626-.004l.2-.12 1.553 8.3c.023.125.061.246.114.36l1.254 2.75a1.579 1.579 0 0 0 1.785.882l1.296-.292-.156.937a1.56 1.56 0 0 0 .353 1.268c.3.351.74.553 1.203.553h.895c.126 0 .22-.086.338-.115.112.334.293.642.607.842a1.588 1.588 0 0 0 1.87-.13l1.907-1.615c1.332.847 3.795 1.979 7.503 1.979 3.709 0 6.172-1.132 7.505-1.98.848.72 1.907 1.616 1.907 1.616a1.586 1.586 0 0 0 1.869.13c.314-.2.495-.508.607-.842.119.029.212.115.338.115h.895a1.58 1.58 0 0 0 1.202-.553 1.556 1.556 0 0 0 .354-1.268l-.155-.937 1.296.292a1.579 1.579 0 0 0 1.784-.881l1.255-2.75c.052-.115.09-.236.113-.36l1.554-8.302.2.121c.5.3 1.125.302 1.625.004a1.565 1.565 0 0 0 .765-1.426l-.052-1.02 2.588.953c.653.24 1.387.026 1.806-.525a1.559 1.559 0 0 0 .013-1.87l-2.646-3.586.675-1.296c1.092-.202 1.887.88 2.048 1.133.336.527.957.81 1.578.716a1.57 1.57 0 0 0 1.285-1.145c.105-.397.116-.737.157-1.094l2.128 2.514a1.582 1.582 0 0 0 2.588-.254l.895-1.618a1.556 1.556 0 0 0 .111-1.257l-1.717-5.046 1.72 1.235c.235.17.514.271.804.293l1.612.121a1.574 1.574 0 0 0 1.688-1.419l.105-1.131.394.089a1.58 1.58 0 0 0 1.483-.44c.084-.085.131-.193.191-.292.607.371 1.2.618 1.673.729a1.58 1.58 0 0 0 1.775-.831 1.565 1.565 0 0 0-.415-1.907c-1.448-1.176-1.616-2.371-1.616-2.864 0-.137.013-.22.015-.234.02-.117.032-.23.032-.34 0-.144-.021-.286-.075-.431l-.114-.307c1.16.482 2.534-.564 3.451-1.486a1.59 1.59 0 0 0 1.556.3c2.949-1.048 4.5-3.988 5.249-6.014 2.863 1.754 4.503 3.493 4.522 3.513.301.325.72.494 1.15.498a44.766 44.766 0 0 1 2.08 2.966c.122-1.443-.105-3.136-.48-4.798" fill="#231F20"/><path d="M102.187 83.879l.67 1.092 2.822-1.943 1.747.971 2.552-1.456 1.881 2.064c2.418-.972 3.359-1.7 3.359-1.7.134.972-.134 1.82-.134 1.82 2.955-.484 3.895-1.334 3.895-1.334.269 1.82-.94 2.791-.94 2.791 1.612.121 3.224-.971 3.224-.971-.537 1.456-1.075 2.184-1.075 2.184 1.343.122 2.821-.728 2.821-.728l-.268 1.942 2.015-1.335 1.075 2.913c-1.478 1.093-.403 1.457-.403 1.457l1.612-.364 1.747 1.577-2.956-.121-1.21 1.213c-1.253-3.277-4.97-.97-4.97-.97-.403-2.63-3.09-.486-3.09-.486l-1.343-1.213-1.076 1.577-.805-1.335c-.672.728-2.821 2.185-2.821 2.185l.268-1.578-1.209.121c-.94 1.335-2.552 2.185-2.552 2.185l-.135-2.67c-1.074 1.7-3.224 2.912-3.224 2.912-2.284 1.7-1.075 4.126-1.075 4.126s-.402 1.214-.806.486c-.403-.728-.269-1.214-.269-1.214s-.4 1.203-1.198 2.53v.019a.067.067 0 0 0-.005-.01.048.048 0 0 0-.005.01v-.018a14.177 14.177 0 0 1-1.198-2.53s.133.485-.27 1.213c-.402.728-.805-.486-.805-.486s1.208-2.427-1.075-4.126c0 0-2.15-1.213-3.224-2.912l-.135 2.67s-1.612-.85-2.552-2.185l-1.209-.121.268 1.578s-2.149-1.457-2.82-2.185l-.807 1.335-1.074-1.577-1.344 1.213s-2.687-2.144-3.09.486c0 0-3.717-2.307-4.97.97l-1.21-1.213-2.955.121 1.746-1.577 1.612.364s1.075-.364-.403-1.457l1.075-2.913 2.015 1.335-.27-1.942s1.479.85 2.823.728c0 0-.538-.728-1.075-2.184 0 0 1.612 1.092 3.224.971 0 0-1.209-.971-.94-2.79 0 0 .94.849 3.895 1.334 0 0-.268-.85-.133-1.82 0 0 .94.727 3.358 1.699l1.88-2.064L93.197 84l1.747-.97 2.82 1.942.673-1.092 1.875 1.452 1.876-1.452zm18.685-4.734s.805 1.092 2.149 1.82c0 0 .806-3.034 2.149-4.126 0 0 .269.97.806 1.7 0 0 1.478-2.55 4.567-3.399 0 0 0 .97.27 1.577 0 0 2.418-.848 2.82-1.334 0 0 .135 2.063 2.688 2.306 0 0-.404 1.456-.94 1.82 0 0 1.611.485 2.82-.607 0 0 1.21 4.977-2.82 7.525l-.806-1.942-2.688 2.912s.269 1.457 2.285 1.7c0 0-2.956 1.456-6.45-2.185l-.402-1.941-1.344.728-.269-2.184-1.746.849-1.611-.97.066.042.038.025c.05.032.111.07.18.116l.304.196.134.087c.165.106.125.08 0 0l-.134-.087-.304-.196-.18-.116-.038-.025a2.78 2.78 0 0 0-.066-.043c-1.881-1.214-1.747-2.306-1.478-4.248zm18.807 5.462s1.21 1.456 2.956 1.334l-2.553 1.214.807 1.214-1.344.97s1.88.971 2.015 1.7c0 0-2.015.121-3.224 1.335 0 0-1.478.607-2.687-.607 0 0-.268-.364-2.15-.728 0 0 2.418-1.093 3.493-1.214l-1.41-.85c1.21-.364 1.948-1.578 2.754-3.762l1.343-.606zm3.627 13.956l-.268.97s-1.613-2.79-2.956-3.519l-.94-1.82s1.344-1.213 2.15-1.456l-.672 1.577 2.552 1.942-1.074.607 1.208 1.699zm-13.03 5.218c1.611.486 2.82-1.941 2.552-.242-.27 1.698-2.418 1.941-2.418 1.941l-1.613.972 2.688-.122-1.075.97 2.82-.12.806-.608.404.85 1.613-1.456 1.88.121-2.15 2.306h2.285l-1.613 1.456 1.209 1.457-2.553.364c-1.075 1.82-1.88 2.184-4.164 2.064l1.343-.728-.94-1.215 1.344.121-.27-1.213 3.09.12c0-.848-2.417-1.576-2.417-1.576v-1.093c-2.419 2.063-4.836.364-4.836.364-.807-.728-1.21-1.334-3.763-1.334.672-.972 1.076-3.035 1.076-3.035l.805.85.135-1.335 1.478.121v1.335c2.283 0 2.283-1.335 2.283-1.335zm7.567 26.66s-2.093-.324-2.765-1.295c-.672-.97-.135 2.549-.135 2.549l-2.418 1.092-.134 2.305s-1.074 2.792-4.433 4.612l-.403 1.82-1.344-1.092s-2.686 2.307-2.014 3.885l-3.091-1.093.135 2.185-1.613-.364.134 1.577s-.94.607-1.88.485c0 0 .806 3.034-5.643 7.282 0 0 3.225-2.427 1.882-10.558 0 0-.807-8.374-.135-12.015l-.51-5.997c-.17-.601-.262-1.24-.151-1.77a8.675 8.675 0 0 1-.01-.121l.028-.014a3.194 3.194 0 0 0-3.085-2.05s-1.747 1.214-3.493-.243c0 0 .807-1.092-.537-1.94 0 0-1.344-.972.537-1.215 1.612-.12 3.224-.485 4.97-2.67 0 0 2.15-3.762 3.629-3.762 1.477 0 .536.85 1.88.485 0 0 0 .729-.806.971 0 0 .134.729 2.418.122 0 0 2.552-.242 3.762.607 0 0 1.478 1.577 1.343 2.184 0 0-2.955-1.456-4.433-1.092 0 0-2.956-1.335-4.97-.485 0 0-2.151-.486-2.016.728l.94.242s-1.075 1.215-1.88 1.82c0 0 1.746-.97 3.492-.849l-.67.728s1.208-.364 1.745 0c0 0 1.613.365 2.15.121l.403.607s.94-.848.672-1.82c0 0 .537.972 2.283 1.578l.042.042c.345.191 1.938.979 3.955.443l2.015-1.214s-2.15-.849-2.283-1.82c0 0 4.03.648 5.552.648 0 0-1.074-1.052-1.254-1.376 0 0 2.866.81 3.851.81l.807-1.619 1.343.567.85-1.821s1.478 2.185.135 3.519c0 0 1.478.85-.134 3.64l.806.729-.538.85s-1.746-.364-3.358.486c0 0 4.298.12 4.434 2.184 0 0-1.882-.243-2.554.243 0 0 2.016 1.577 2.016 2.427 0 .849-2.697 1.092 1.332 2.953l.09 1.537c-.448-.567-.94-.768-.94-.768zm-29.061 27.253c.082.678.086 1.515.058 2.302.378.12.857.475.99 1.495-.002-.012 0-.024-.003-.037l.01.059c-.002-.01-.006-.013-.006-.022.049.287.073.571.073.85 0 .987-.272 1.897-.567 2.599.225 2.39-.68 4.509-.68 4.509-1.97 3.154-4.926 2.022-4.926 2.022-2.4-.322-1.802-.164-3.415-.167h-.033c-1.612.003-1.014-.155-3.415.167 0 0-2.955 1.132-4.926-2.022 0 0-.917-2.15-.673-4.562-.371-.896-.697-2.119-.472-3.375.125-1.01.586-1.375.963-1.506-.028-.79-.025-1.631.058-2.312-2.306-1.437-2.742-2.86-2.742-2.86 3.941 2.67 7.076 2.832 7.076 2.832 1.88.122 1.343-.85 1.343-.85-2.149 0-3.09-1.213-3.09-1.213 2.687.364.807-2.185.807-2.185-1.747-1.214-3.628-4.206-3.628-4.206-2.284-4.734.76-8.131.76-8.131 1.21-1.821 3.539-.567 3.539-.567 1.071.483 2.94.886 4.417.889 1.475-.003 3.345-.406 4.416-.889 0 0 2.33-1.254 3.538.567 0 0 3.045 3.397.762 8.13 0 0-1.882 2.993-3.628 4.207 0 0-1.881 2.549.806 2.185 0 0-.94 1.213-3.09 1.213 0 0-.537.972 1.343.85 0 0 3.135-.162 7.076-2.832 0 0-.436 1.423-2.741 2.86zm-21.497-33.766c.166.597.035 1.357-.174 2.048l-.498 5.84c.672 3.641-.134 12.015-.134 12.015-1.343 8.13 1.881 10.558 1.881 10.558-6.448-4.248-5.643-7.282-5.643-7.282-.94.122-1.88-.485-1.88-.485l.134-1.577-1.612.364.134-2.185-3.09 1.093c.672-1.578-2.015-3.885-2.015-3.885l-1.343 1.093-.403-1.82c-3.36-1.821-4.433-4.613-4.433-4.613l-.135-2.305-2.418-1.092s.537-3.52-.135-2.55c-.67.972-1.611.972-1.611.972s-.941.283-.941.768l.269-2.103c2.015-1.578 0-1.214 0-2.063 0-.85 2.015-2.427 2.015-2.427-.672-.486-2.553-.243-2.553-.243.135-2.063 4.434-2.184 4.434-2.184-1.613-.85-3.359-.486-3.359-.486l-.537-.85.806-.728c-1.612-2.79-.134-3.641-.134-3.641-1.344-1.334.134-3.52.134-3.52l.851 1.822 1.343-.567.806 1.618c.985 0 3.852-.809 3.852-.809-.18.324-1.255 1.376-1.255 1.376 1.523 0 5.553-.648 5.553-.648-.134.971-2.284 1.82-2.284 1.82l2.016 1.214c2.283.607 4.03-.485 4.03-.485 1.746-.606 2.284-1.578 2.284-1.578-.269.972.672 1.82.672 1.82l.402-.607c.538.244 2.15-.12 2.15-.12.538-.365 1.746 0 1.746 0l-.672-.729c1.747-.12 3.494.85 3.494.85-.806-.606-1.88-1.821-1.88-1.821l.94-.242c.134-1.214-2.016-.728-2.016-.728-2.015-.85-4.971.485-4.971.485-1.478-.364-4.433 1.092-4.433 1.092-.134-.607 1.344-2.184 1.344-2.184 1.208-.85 3.761-.607 3.761-.607 2.284.607 2.419-.122 2.419-.122-.807-.242-.807-.97-.807-.97 1.344.364.403-.486 1.881-.486s3.628 3.762 3.628 3.762c1.746 2.185 3.358 2.55 4.97 2.67 1.747.243.537 1.214.537 1.214-1.343.849-.537 1.941-.537 1.941-1.746 1.457-3.493.244-3.493.244-2.418 0-3.09 2.063-3.09 2.063zM62.7 106.088l1.881-.122 1.612 1.456.403-.85.806.608 2.822.12-1.075-.97 2.687.122-1.612-.972s-2.15-.243-2.419-1.941c-.268-1.7.941.728 2.553.242 0 0 0 1.335 2.284 1.335v-1.335l1.478-.12.134 1.334.806-.85s.403 2.063 1.075 3.035c-2.553 0-2.956.606-3.761 1.334 0 0-2.418 1.7-4.837-.364v1.093s-2.418.728-2.418 1.577l3.09-.12-.269 1.212 1.343-.12-.94 1.214 1.343.728c-2.284.12-3.09-.244-4.165-2.064l-2.552-.364 1.21-1.457-1.613-1.456h2.284l-2.15-2.306zm-3.627-15.05c.134-.728 2.015-1.699 2.015-1.699l-1.343-.97.805-1.214L58 85.94c1.746.122 2.955-1.334 2.955-1.334l1.343.606c.806 2.184 1.545 3.398 2.755 3.762l-1.411.85c1.075.121 3.493 1.214 3.493 1.214-1.881.364-2.15.728-2.15.728-1.209 1.214-2.687.607-2.687.607-1.21-1.214-3.224-1.335-3.224-1.335zm1.477 4.976c-1.343.728-2.955 3.52-2.955 3.52l-.268-.971 1.21-1.699-1.076-.607 2.552-1.942-.671-1.577c.806.243 2.149 1.456 2.149 1.456l-.94 1.82zm1.882-17.112c1.209 1.092 2.82.607 2.82.607-.536-.364-.94-1.82-.94-1.82C66.866 77.446 67 75.383 67 75.383c.403.486 2.822 1.334 2.822 1.334.268-.606.268-1.577.268-1.577 3.09.85 4.568 3.398 4.568 3.398.537-.728.806-1.699.806-1.699 1.343 1.092 2.149 4.126 2.149 4.126 1.344-.728 2.15-1.82 2.15-1.82.269 1.942.403 3.034-1.477 4.248l-.044.028-.599.387-.08.052c-.125.08-.165.106 0 0l.08-.052.599-.387.044-.028-1.613.97-1.746-.848-.269 2.184-1.344-.728-.403 1.941c-3.492 3.641-6.448 2.185-6.448 2.185 2.015-.243 2.284-1.7 2.284-1.7l-2.687-2.912-.806 1.942c-4.03-2.548-2.821-7.525-2.821-7.525zm37.862-.849c-.671-.971-1.612-1.214-2.82-1.456 0 0 .402 1.941.402 2.427 0 0-2.687-3.035-5.643-3.155 0 0 .807 2.002.538 2.488 0 0-1.746-.668-5.24-1.032l.538 1.092s-2.284-.971-4.568-.971c0 0-.268-1.577-1.747-2.306 0 0-.134 1.213-.536 1.577 0 0-.806-4.733-10.211-5.703 0 0-10.21-.485-11.016 5.219 0 0-.403 1.577-.27 2.912 0 0-2.551 1.7-2.954 2.791 0 0 1.074-.121 2.418-.121 0 0-2.15.97-3.762 3.762 0 0 .807.728 1.478.728 0 0-2.15 2.064-1.612 3.52 0 0-2.418 3.156-1.477 6.311 0 0-3.718 2.305-3.896 6.513 0 0 1.611 1.294.895 2.103 0 0-5.194 4.37-3.224 8.415 0 0-5.732 6.149-.538 11.489 0 0-1.612.323-3.224 2.75 0 0 1.433-.323 4.478-.809 0 0-4.836 2.751-5.911 6.635 0 0 5.195-4.693 6.986-5.017 0 0-.537 5.664 2.687 7.12 0 0 2-.934 3.648-.735-.55-.122-.961-.155-.961-.155-1.612-2.103.268-3.56.268-3.56l-2.686-.728 1.611-1.861-1.79.405 1.074-1.699-3.224.648 2.329-1.538c-2.06-3.155-.538-5.583-.538-5.583-1.97-.162-3.94.728-3.94.728.895-1.294 3.313-1.86 3.313-1.86-.985-.648-4.03-.324-4.03-.324 1.344-.809 3.493-.971 3.493-.971-.269-1.132.985-2.832.985-2.832-1.074-1.213-3.134-1.213-3.134-1.213.268-1.213 1.611-1.942 1.611-1.942-.358-.404-1.164-.648-1.164-.648 1.075-1.941 3.494-2.588 3.494-2.588-.807-.567-2.42-.405-2.42-.405 1.97-1.213 3.673-.89 3.673-.89-.448-.323-1.612-.728-1.612-.728 1.522-.491 2.674-.385 3.35-.226.466-.513.971-.785.971-.785 1.075-2.913 4.03-2.67 4.03-2.67-2.552 1.214-2.686 3.397-2.686 3.397-2.016 1.093-1.21 3.399-1.21 3.399-.806-.122-3.76.97-3.76.97 2.014 0 3.358.85 3.358.85-2.419-.243-4.03.971-4.03.971 1.611 0 3.76.85 3.76.85-3.492 4.248.27 6.553.27 6.553-1.478 3.277 1.612 4.37 1.612 4.37 2.015 1.82-.269 3.64-.269 3.64l2.687.364c-1.075.728-1.746 2.427-1.209 2.185.537-.243 1.88-.607 1.88-.607l-.671 1.7 2.015.363-1.613 2.912-.133-1.699c-2.818 2.44-1.532 4.044-.715 5.22 1.163-1.378 2.193-1.335 2.193-1.335-1.478.97-.135 2.062-.135 2.062 2.956-2.185 2.687-.485 2.687-.485-3.493 2.185-1.21 3.52-1.21 3.52 1.613-1.335 2.419-.486 2.419-.486-1.88 1.7-1.88 3.884-1.88 3.884 1.343-1.942 3.492-2.67 3.492-2.67 2.956 3.52 8.598 7.767 8.598 7.767-1.075 1.699 2.015.97 2.015.97 5.105 2.67 5.374 11.014 6.046 11.864l-.672 1.335 1.88.243-.268 1.941 1.074-.971-.268 2.185c1.344-1.578 2.821-2.428 2.821-2.428-.134 1.093 1.21 1.943 1.21 1.943-1.21 2.062-.672 3.276-.672 3.276.671-3.398 1.477-1.578 1.477-1.578-.806.728-1.611 2.792-1.611 2.792.94-1.214 2.686-1.82 2.686-1.82 2.821 3.155 6.449 2.305 8.732 2.305 2.284 0 5.912.85 8.733-2.305 0 0 1.747.606 2.687 1.82 0 0-.807-2.064-1.613-2.792 0 0 .806-1.82 1.48 1.578 0 0 .536-1.214-.674-3.276 0 0 1.344-.85 1.21-1.943 0 0 1.478.85 2.821 2.428l-.268-2.185 1.074.971-.269-1.941 1.88-.243-.67-1.335c.67-.85.94-9.193 6.046-11.864 0 0 3.089.729 2.014-.97 0 0 5.643-4.248 8.598-7.767 0 0 2.15.728 3.493 2.67 0 0 0-2.185-1.88-3.884 0 0 .806-.85 2.417.486 0 0 2.284-1.335-1.209-3.52 0 0-.269-1.7 2.687.485 0 0 1.344-1.092-.134-2.062 0 0 1.03-.043 2.192 1.335.818-1.176 2.103-2.78-.714-5.22l-.135 1.7-1.612-2.913 2.016-.364-.672-1.7s1.343.365 1.88.608c.538.242-.134-1.457-1.208-2.185l2.686-.364s-2.283-1.82-.269-3.64c0 0 3.09-1.093 1.612-4.37 0 0 3.763-2.305.269-6.553 0 0 2.15-.85 3.762-.85 0 0-1.612-1.214-4.03-.97 0 0 1.343-.85 3.359-.85 0 0-2.956-1.093-3.762-.971 0 0 .806-2.306-1.21-3.399 0 0-.134-2.183-2.686-3.398 0 0 2.955-.242 4.03 2.67 0 0 .503.271.967.782.68-.156 1.822-.258 3.332.23 0 0-1.164.405-1.612.728 0 0 1.702-.323 3.672.89 0 0-1.612-.162-2.418.405 0 0 2.418.647 3.492 2.588 0 0-.805.244-1.164.648 0 0 1.344.729 1.613 1.942 0 0-2.06 0-3.135 1.213 0 0 1.254 1.7.985 2.832 0 0 2.15.162 3.493.97 0 0-3.045-.323-4.03.325 0 0 2.418.566 3.313 1.86 0 0-1.97-.89-3.94-.728 0 0 1.523 2.428-.537 5.583l2.328 1.538-3.224-.648 1.074 1.699-1.79-.405 1.612 1.861-2.688.728s1.881 1.457.269 3.56c0 0-.412.033-.961.155 1.648-.199 3.648.735 3.648.735 3.224-1.456 2.687-7.12 2.687-7.12 1.791.324 6.986 5.017 6.986 5.017-1.075-3.884-5.91-6.635-5.91-6.635 3.044.486 4.477.81 4.477.81-1.612-2.428-3.225-2.751-3.225-2.751 5.195-5.34-.537-11.489-.537-11.489 1.97-4.046-3.224-8.415-3.224-8.415-.717-.81.895-2.103.895-2.103-.179-4.208-3.895-6.513-3.895-6.513.94-3.155-1.479-6.31-1.479-6.31.538-1.457-1.611-3.52-1.611-3.52.67 0 1.478-.73 1.478-.73-1.613-2.79-3.763-3.761-3.763-3.761 1.344 0 2.418.121 2.418.121-.402-1.092-2.954-2.791-2.954-2.791.133-1.335-.27-2.912-.27-2.912-.805-5.704-11.016-5.219-11.016-5.219-9.403.97-10.21 5.703-10.21 5.703-.403-.364-.537-1.577-.537-1.577-1.478.729-1.746 2.306-1.746 2.306-2.284 0-4.568.971-4.568.971l.538-1.092c-3.494.364-5.24 1.032-5.24 1.032-.268-.486.537-2.488.537-2.488-2.955.12-5.642 3.155-5.642 3.155 0-.486.403-2.427.403-2.427-1.21.242-2.15.485-2.822 1.456h-.022z" fill="#861810"/><path d="M113.337 91.524l.805 1.335 1.076-1.577 1.343 1.213s2.687-2.144 3.09.486c0 0 3.717-2.307 4.97.97l1.21-1.213 2.956.121-1.747-1.577-1.612.364s-1.075-.364.403-1.457l-1.075-2.913-2.015 1.335.268-1.942s-1.478.85-2.82.728c0 0 .537-.728 1.074-2.184 0 0-1.612 1.092-3.224.971 0 0 1.209-.971.94-2.79 0 0-.94.849-3.895 1.334 0 0 .268-.85.134-1.82 0 0-.94.727-3.359 1.699l-1.88-2.064L107.425 84l-1.747-.97-2.821 1.942-.671-1.092-1.876 1.452-1.875-1.452-.672 1.092-2.82-1.943-1.748.971-2.552-1.456-1.881 2.064c-2.418-.972-3.358-1.7-3.358-1.7a4.62 4.62 0 0 0 .133 1.82c-2.955-.484-3.895-1.334-3.895-1.334-.269 1.82.94 2.791.94 2.791-1.612.121-3.224-.971-3.224-.971.537 1.456 1.075 2.184 1.075 2.184-1.344.122-2.822-.728-2.822-.728l.27 1.942-2.016-1.335-1.075 2.913c1.478 1.093.403 1.457.403 1.457l-1.612-.364-1.746 1.577 2.955-.121L76 93.952c1.253-3.277 4.97-.97 4.97-.97.403-2.63 3.09-.486 3.09-.486l1.344-1.213 1.074 1.577.806-1.335c.672.728 2.821 2.185 2.821 2.185l-.268-1.578 1.209.121c.94 1.335 2.552 2.185 2.552 2.185l.135-2.67c1.074 1.7 3.224 2.912 3.224 2.912 2.283 1.7 1.075 4.126 1.075 4.126s.403 1.214.806.486c.402-.728.269-1.214.269-1.214s.4 1.203 1.198 2.53v.019a.048.048 0 0 1 .005-.01.067.067 0 0 1 .005.01v-.018a14.177 14.177 0 0 0 1.198-2.53s-.134.485.269 1.213c.404.728.806-.486.806-.486s-1.209-2.427 1.075-4.126c0 0 2.15-1.213 3.224-2.912l.135 2.67s1.611-.85 2.552-2.185l1.21-.121-.27 1.578s2.15-1.457 2.822-2.185M86.48 143.831s.805-8.374.133-12.015l.498-5.84c-.3.99-.766 1.835-.766 1.835-.807.849-3.09 1.577-3.09 1.577.403-.97.269-2.305.269-2.305-.672.12-2.419-.364-2.419-.364 1.881-.607 3.225-2.063 3.225-2.063-.94.363-2.418.121-2.418.121.537 0 1.612-1.577 1.612-1.577l-1.075.364.537-1.215c-.403-.12-1.074-1.092-1.074-1.092-1.21.486-1.747.608-1.747.608-.402-.608-2.284-.729-2.284-.729 1.075-.85 1.343-.971 1.343-.971-.403-.97-1.208-.485-1.208-.485-.135-.607.94-1.7.94-1.7s-1.747 1.093-4.03.486l-2.016-1.214s2.15-.849 2.284-1.82c0 0-4.03.648-5.553.648 0 0 1.075-1.052 1.255-1.376 0 0-2.867.81-3.852.81l-.806-1.619-1.343.567-.851-1.821s-1.478 2.185-.134 3.519c0 0-1.478.85.134 3.64l-.806.729.537.85s1.746-.364 3.359.486c0 0-4.3.12-4.434 2.184 0 0 1.881-.243 2.553.243 0 0-2.015 1.577-2.015 2.427 0 .849 2.015.485 0 2.063l-.27 2.103c0-.485.942-.768.942-.768s.94 0 1.611-.971c.672-.97.135 2.549.135 2.549l2.418 1.092.135 2.305s1.074 2.792 4.433 4.612l.403 1.82 1.343-1.092s2.687 2.307 2.015 3.885l3.09-1.093-.134 2.185 1.612-.364-.134 1.577s.94.607 1.88.485c0 0-.805 3.034 5.643 7.282 0 0-3.224-2.427-1.88-10.558m50.882-17.112c0-.85-2.016-2.427-2.016-2.427.672-.486 2.554-.243 2.554-.243-.136-2.063-4.434-2.184-4.434-2.184 1.612-.85 3.358-.486 3.358-.486l.538-.85-.806-.728c1.612-2.79.134-3.641.134-3.641 1.343-1.334-.134-3.52-.134-3.52l-.85 1.822-1.344-.567-.807 1.618c-.985 0-3.85-.809-3.85-.809.179.324 1.253 1.376 1.253 1.376-1.522 0-5.552-.648-5.552-.648.133.971 2.283 1.82 2.283 1.82l-2.015 1.214c-2.017.536-3.61-.252-3.955-.443.187.199 1.018 1.117.899 1.657 0 0-.807-.486-1.21.485 0 0 .27.121 1.345.971 0 0-1.881.121-2.284.729 0 0-.538-.122-1.747-.608 0 0-.672.972-1.075 1.092l.537 1.215-1.074-.364s1.074 1.577 1.612 1.577c0 0-1.478.242-2.418-.121 0 0 1.343 1.456 3.224 2.063 0 0-1.746.485-2.418.364 0 0-.135 1.335.268 2.305 0 0-2.284-.728-3.09-1.577 0 0-.516-.935-.813-1.992l.511 5.997c-.672 3.641.135 12.015.135 12.015 1.343 8.13-1.882 10.558-1.882 10.558 6.449-4.248 5.643-7.282 5.643-7.282.94.122 1.88-.485 1.88-.485l-.134-1.577 1.613.364-.135-2.185 3.09 1.093c-.671-1.578 2.015-3.885 2.015-3.885l1.344 1.093.403-1.82c3.359-1.821 4.433-4.613 4.433-4.613l.134-2.305 2.418-1.092s-.537-3.52.135-2.55c.672.972 2.765 1.296 2.765 1.296s.493.201.94.768l-.089-1.537c-4.03-1.86-1.332-2.104-1.332-2.953m15.393-5.462c-.895-1.294-3.313-1.86-3.313-1.86.985-.648 4.03-.324 4.03-.324-1.343-.809-3.493-.971-3.493-.971.27-1.132-.985-2.832-.985-2.832 1.075-1.213 3.135-1.213 3.135-1.213-.27-1.213-1.613-1.942-1.613-1.942.359-.404 1.164-.648 1.164-.648-1.074-1.941-3.492-2.588-3.492-2.588.806-.567 2.418-.405 2.418-.405-1.97-1.213-3.672-.89-3.672-.89.448-.323 1.612-.728 1.612-.728-1.51-.488-2.653-.386-3.332-.23.525.576 1.001 1.458.645 2.617 0 0 3.09.485 4.433 2.063 0 0-.806 0-1.612.364 0 0 1.612.97 1.881 1.82 0 0-2.552 0-3.627 1.093 0 0 2.687 3.277-.403 6.068 0 0 1.344 3.034-2.15 4.854 0 0-1.612 1.335 1.075 3.277l-2.553.85s1.075 1.334.538 2.79l-1.88-.242s1.388 1.036 2.003 2.861a5.17 5.17 0 0 1 .431-.18c.314-.115.626-.2.903-.261.55-.122.96-.155.96-.155 1.613-2.103-.268-3.56-.268-3.56l2.688-.728-1.613-1.861 1.791.405-1.074-1.699 3.224.648-2.328-1.538c2.06-3.155.536-5.583.536-5.583 1.97-.162 3.941.728 3.941.728m-95.025 8.375l-2.553-.85c2.687-1.942 1.075-3.277 1.075-3.277-3.492-1.82-2.15-4.854-2.15-4.854-3.09-2.791-.403-6.068-.403-6.068-1.074-1.093-3.627-1.093-3.627-1.093.269-.85 1.88-1.82 1.88-1.82-.805-.364-1.611-.364-1.611-.364 1.343-1.578 4.433-2.063 4.433-2.063-.355-1.157.118-2.038.641-2.613-.676-.159-1.828-.265-3.35.226 0 0 1.164.405 1.612.728 0 0-1.702-.323-3.672.89 0 0 1.612-.162 2.419.405 0 0-2.42.647-3.494 2.588 0 0 .806.244 1.164.648 0 0-1.343.729-1.611 1.942 0 0 2.06 0 3.134 1.213 0 0-1.254 1.7-.985 2.832 0 0-2.15.162-3.493.97 0 0 3.045-.323 4.03.325 0 0-2.418.566-3.313 1.86 0 0 1.97-.89 3.94-.728 0 0-1.522 2.428.538 5.583l-2.33 1.538 3.225-.648-1.075 1.699 1.791-.405-1.611 1.861 2.686.728s-1.88 1.457-.268 3.56a7.824 7.824 0 0 0 1.863.416c.152.055.303.119.45.189.614-1.83 2.008-2.87 2.008-2.87l-1.881.243c-.537-1.457.538-2.791.538-2.791m46.449 13.592s-2.418.364-3.896.364c-1.481-.006-3.862-.364-3.862-.364-2.194-.364-3.046 1.052-3.046 1.052-.045-2.266 1.971-2.023 1.971-2.023.936.242 2.009.553 4.937.555 2.956 0 4.03-.312 4.97-.555 0 0 2.016-.243 1.971 2.023 0 0-.85-1.416-3.045-1.052zm1.568-1.78s-2.105.809-5.464.799c-3.339.004-5.43-.798-5.43-.798-3.717.89-2.06 6.513-2.06 6.513.045-4.086 4.702-3.035 4.702-3.035.664.36 1.853.483 2.788.485.94 0 2.149-.12 2.821-.485 0 0 4.658-1.051 4.703 3.035 0 0 1.656-5.624-2.06-6.513z" fill="#4D180C"/><path d="M143.038 99.533s-1.613-2.79-2.956-3.519l-.94-1.82s1.344-1.213 2.15-1.456l-.672 1.577 2.552 1.942-1.074.607 1.208 1.699-.268.97zm-4.702-7.16s-1.478.608-2.687-.606c0 0-.268-.364-2.15-.728 0 0 2.418-1.093 3.493-1.214l-1.41-.85c1.21-.364 1.948-1.578 2.754-3.762l1.343-.606s1.21 1.456 2.956 1.334l-2.553 1.214.807 1.214-1.344.97s1.88.971 2.015 1.7c0 0-2.015.121-3.224 1.335zm-.672 18.933l-2.553.364c-1.075 1.82-1.88 2.184-4.164 2.064l1.343-.728-.94-1.215 1.344.121-.27-1.213 3.09.12c0-.848-2.417-1.576-2.417-1.576v-1.093c-2.419 2.063-4.836.364-4.836.364-.807-.728-1.21-1.334-3.763-1.334.672-.972 1.076-3.035 1.076-3.035l.805.85.135-1.335 1.478.121v1.335c2.283 0 2.283-1.335 2.283-1.335 1.612.486 2.822-1.941 2.553-.242-.27 1.698-2.418 1.941-2.418 1.941l-1.613.972 2.688-.122-1.075.97 2.82-.12.806-.608.404.85 1.613-1.456 1.88.121-2.15 2.306h2.285l-1.613 1.456 1.209 1.457zM122.35 83.393c-1.881-1.214-1.747-2.306-1.478-4.248 0 0 .805 1.092 2.149 1.82 0 0 .806-3.034 2.149-4.126 0 0 .269.97.806 1.7 0 0 1.478-2.55 4.567-3.399 0 0 0 .97.27 1.577 0 0 2.418-.848 2.82-1.334 0 0 .135 2.063 2.688 2.306 0 0-.404 1.456-.94 1.82 0 0 1.611.485 2.82-.607 0 0 1.21 4.977-2.82 7.525l-.806-1.942-2.688 2.912s.269 1.457 2.285 1.7c0 0-2.956 1.456-6.45-2.185l-.402-1.941-1.344.728-.269-2.184-1.746.849-1.611-.97zm.284.184l.304.196-.304-.196zm-3.106 31.734s-2.956-1.335-4.97-.485c0 0-2.151-.486-2.016.728l.94.242s-1.075 1.215-1.88 1.82c0 0 1.746-.97 3.492-.849l-.67.728s1.208-.364 1.745 0c0 0 1.613.365 2.15.121l.403.607s.94-.848.672-1.82c0 0 .537.972 2.283 1.578l.042.042c.187.199 1.018 1.117.899 1.657 0 0-.807-.486-1.21.485 0 0 .27.121 1.345.971 0 0-1.881.121-2.284.729 0 0-.538-.122-1.747-.608 0 0-.672.972-1.075 1.092l.537 1.215-1.074-.364s1.074 1.577 1.612 1.577c0 0-1.478.242-2.418-.121 0 0 1.343 1.456 3.224 2.063 0 0-1.746.485-2.418.364 0 0-.135 1.335.268 2.305 0 0-2.284-.728-3.09-1.577 0 0-.516-.935-.813-1.992-.169-.601-.261-1.24-.15-1.77a8.675 8.675 0 0 1-.01-.121l.028-.014a3.194 3.194 0 0 0-3.085-2.05s-1.747 1.214-3.493-.243c0 0 .807-1.092-.537-1.94 0 0-1.344-.972.537-1.215 1.612-.12 3.224-.485 4.97-2.67 0 0 2.15-3.762 3.629-3.762 1.477 0 .536.85 1.88.485 0 0 0 .729-.806.971 0 0 .134.729 2.418.122 0 0 2.552-.242 3.762.607 0 0 1.478 1.577 1.343 2.184 0 0-2.955-1.456-4.433-1.092zm-10.746 42.383c.082.678.086 1.515.058 2.302.378.12.857.475.99 1.495-.002-.012 0-.024-.003-.037l.01.059c-.002-.01-.006-.013-.006-.022.049.287.073.571.073.85 0 .987-.272 1.897-.567 2.599.225 2.39-.68 4.509-.68 4.509-1.97 3.154-4.926 2.022-4.926 2.022-2.4-.322-1.802-.164-3.415-.167h-.033c-1.612.003-1.014-.155-3.415.167 0 0-2.955 1.132-4.926-2.022 0 0-.917-2.15-.673-4.562-.371-.896-.697-2.119-.472-3.375.125-1.01.586-1.375.963-1.506-.028-.79-.025-1.631.058-2.312-2.306-1.437-2.742-2.86-2.742-2.86 3.941 2.67 7.076 2.832 7.076 2.832 1.88.122 1.343-.85 1.343-.85-2.149 0-3.09-1.213-3.09-1.213 2.687.364.807-2.185.807-2.185-1.747-1.214-3.628-4.206-3.628-4.206-2.284-4.734.76-8.131.76-8.131 1.21-1.821 3.539-.567 3.539-.567 1.071.483 2.94.886 4.417.889 1.475-.003 3.345-.406 4.416-.889 0 0 2.33-1.254 3.538.567 0 0 3.045 3.397.762 8.13 0 0-1.882 2.993-3.628 4.207 0 0-1.881 2.549.806 2.185 0 0-.94 1.213-3.09 1.213 0 0-.537.972 1.343.85 0 0 3.135-.162 7.076-2.832 0 0-.436 1.423-2.741 2.86zm-21.497-33.766c.166.597.035 1.357-.174 2.048-.3.99-.766 1.835-.766 1.835-.807.849-3.09 1.577-3.09 1.577.403-.97.269-2.305.269-2.305-.672.12-2.419-.364-2.419-.364 1.881-.607 3.225-2.063 3.225-2.063-.94.363-2.418.121-2.418.121.537 0 1.612-1.577 1.612-1.577l-1.075.364.537-1.215c-.403-.12-1.074-1.092-1.074-1.092-1.21.486-1.747.608-1.747.608-.402-.608-2.284-.729-2.284-.729 1.075-.85 1.343-.971 1.343-.971-.403-.97-1.208-.485-1.208-.485-.135-.607.94-1.7.94-1.7 1.746-.605 2.284-1.577 2.284-1.577-.269.972.672 1.82.672 1.82l.402-.607c.538.244 2.15-.12 2.15-.12.538-.365 1.746 0 1.746 0l-.672-.729c1.747-.12 3.494.85 3.494.85-.806-.606-1.88-1.821-1.88-1.821l.94-.242c.134-1.214-2.016-.728-2.016-.728-2.015-.85-4.971.485-4.971.485-1.478-.364-4.433 1.092-4.433 1.092-.134-.607 1.344-2.184 1.344-2.184 1.208-.85 3.761-.607 3.761-.607 2.284.607 2.419-.122 2.419-.122-.807-.242-.807-.97-.807-.97 1.344.364.403-.486 1.881-.486s3.628 3.762 3.628 3.762c1.746 2.185 3.358 2.55 4.97 2.67 1.747.243.537 1.214.537 1.214-1.343.849-.537 1.941-.537 1.941-1.746 1.457-3.493.244-3.493.244-2.418 0-3.09 2.063-3.09 2.063zm-14.911-15.414s-2.418 1.7-4.837-.364v1.093s-2.418.728-2.418 1.577l3.09-.12-.269 1.212 1.343-.12-.94 1.214 1.343.728c-2.284.12-3.09-.244-4.165-2.064l-2.552-.364 1.21-1.457-1.613-1.456h2.284l-2.15-2.306 1.881-.12 1.612 1.455.403-.85.806.608 2.822.12-1.075-.97 2.687.122-1.612-.972s-2.15-.243-2.419-1.941c-.268-1.7.941.728 2.553.242 0 0 0 1.335 2.284 1.335v-1.335l1.478-.12.134 1.334.806-.85s.403 2.063 1.075 3.035c-2.553 0-2.956.606-3.761 1.334zM59.073 91.04c.134-.729 2.015-1.7 2.015-1.7l-1.343-.97.805-1.214L58 85.94c1.746.122 2.955-1.334 2.955-1.334l1.343.606c.806 2.184 1.545 3.398 2.755 3.762l-1.411.85c1.075.121 3.493 1.214 3.493 1.214-1.881.364-2.15.728-2.15.728-1.209 1.214-2.687.607-2.687.607-1.21-1.214-3.224-1.335-3.224-1.335zm1.477 4.975c-1.343.728-2.955 3.52-2.955 3.52l-.268-.971 1.21-1.699-1.076-.607 2.552-1.942-.671-1.577c.806.243 2.149 1.456 2.149 1.456l-.94 1.82zm1.882-17.112c1.209 1.092 2.82.607 2.82.607-.536-.364-.94-1.82-.94-1.82C66.866 77.446 67 75.383 67 75.383c.403.486 2.822 1.334 2.822 1.334.268-.606.268-1.577.268-1.577 3.09.85 4.568 3.398 4.568 3.398.537-.728.806-1.699.806-1.699 1.343 1.092 2.149 4.126 2.149 4.126 1.344-.728 2.15-1.82 2.15-1.82.269 1.942.403 3.034-1.477 4.248l-1.613.97-1.746-.848-.269 2.184-1.344-.728-.403 1.941c-3.492 3.641-6.448 2.185-6.448 2.185 2.015-.243 2.284-1.7 2.284-1.7l-2.687-2.912-.806 1.942c-4.03-2.548-2.821-7.525-2.821-7.525z" fill="#231F20"/><path d="M85.785 121.84c-1.61 0-2.942-1.121-3.186-2.268a1.465 1.465 0 0 0-.043.35c.005.85 1.445 2.232 3.229 2.232s3.27-1.463 3.23-2.231a1.968 1.968 0 0 0-.044-.35c-.244 1.146-1.575 2.267-3.186 2.267m32.271-1.917a1.537 1.537 0 0 0-.044-.35c-.244 1.146-1.575 2.267-3.186 2.267-1.61 0-2.943-1.121-3.186-2.268a1.937 1.937 0 0 0-.044.35c-.04.769 1.446 2.232 3.23 2.232 1.783 0 3.224-1.382 3.23-2.231m-12.802 22.33c-.94.243-2.015.556-4.971.556-2.928-.003-4.001-.314-4.937-.556 0 0-2.016-.243-1.971 2.023 0 0 .852-1.416 3.046-1.052 0 0 2.38.358 3.862.363v.001c1.478 0 3.896-.364 3.896-.364 2.195-.364 3.045 1.052 3.045 1.052.045-2.266-1.97-2.023-1.97-2.023" fill="#FFF"/><path d="M84.207 119.235l.09.122s1.073-.486 1.477.282h.537c-.269-.809-1.343-1.092-2.104-.404m30.093.405h.538c.402-.77 1.477-.283 1.477-.283l.09-.122c-.762-.688-1.837-.405-2.106.404m-16.251 31.334c1.07-.467 1.37-1.908.669-3.216-.2-.372-.46-.692-.753-.95.108.138.21.289.295.45.633 1.18.362 2.481-.604 2.903-.966.422-2.262-.193-2.894-1.374a2.891 2.891 0 0 1-.297-.837c-.012.48.108 1 .377 1.502.7 1.308 2.137 1.99 3.207 1.522m.337 11.827c.052-.017.102-.037.16-.047.385-.072.726.002 1.035.141.074-.024.15-.05.232-.086l.426-1.437.082-.275.507 1.727a2.5 2.5 0 0 0 .211.078 1.71 1.71 0 0 1 1.051-.148c.054.01.1.029.15.044 1.865-.08 2.477-2.971 2.477-3.999-1.498 1.044-4.076.847-4.433.814l-.045-.005v.012c-.565.044-2.942.164-4.355-.82 0 1.031.617 3.947 2.502 4m4.167-11.826c1.07.469 2.506-.214 3.207-1.522.27-.502.39-1.023.377-1.502-.052.278-.15.56-.298.837-.632 1.18-1.927 1.796-2.894 1.374-.966-.422-1.236-1.722-.604-2.903.087-.161.187-.312.296-.45a3.435 3.435 0 0 0-.754.95c-.7 1.308-.4 2.749.67 3.216m1.694 17.797s-1.88-.272-3.963-.272c-2.069.003-3.93.272-3.93.272-2.082.213-3.09-.94-3.09-.94.773 1.972 3.292 1.578 3.292 1.578 1.407-.283 3.452-.224 3.728-.215v.002s2.25-.09 3.762.213c0 0 2.519.394 3.29-1.578 0 0-1.006 1.153-3.089.94" fill="#D71941"/><path d="M108.161 161.451c-.43 1.056-1.401 2.82-2.999 3.488 0 0-.138-2.444-2.392.162 0 0-.593-2.794-2.337-.14 0 0-.039.278-.117.014-.077.264-.116-.014-.116-.014-1.745-2.654-2.337.14-2.337.14-2.254-2.606-2.39-.162-2.39-.162-1.6-.668-2.572-2.432-3.001-3.488-.43-1.055-.585.194-.585.194-.363 2.038 1.026 4.026 1.026 4.026 1.868 1.656 2.298 1.755 3.091.773 2.036.762 2.178-.365 2.178-.365 1.121.896 1.888.321 2.134-.1.247.421 1.014.996 2.135.1 0 0 .143 1.127 2.177.365.794.982 1.224.883 3.092-.773 0 0 1.39-1.988 1.025-4.026 0 0-.154-1.249-.584-.194" fill="#FFF"/></g></svg>