<?xml version="1.0" encoding="UTF-8"?>
<svg width="200px" height="200px" viewBox="0 0 200 200" version="1.1" xmlns="http://www.w3.org/2000/svg" xmlns:xlink="http://www.w3.org/1999/xlink">
    <!-- Generator: Sketch 51.3 (57544) - http://www.bohemiancoding.com/sketch -->
    <title>brown</title>
    <desc>Created with Sketch.</desc>
    <defs></defs>
    <g id="brown" stroke="none" stroke-width="1" fill="none" fill-rule="evenodd">
        <g id="brown_BGL" transform="translate(0.000000, 21.890547)">
            <g id="brown">
                <g id="g10" transform="translate(99.951336, 78.920457) scale(-1, 1) rotate(-180.000000) translate(-99.951336, -78.920457) translate(0.000000, 0.100584)" fill-rule="nonzero">
                    <g id="g12">
                        <path d="M196.348414,140.579063 C192.661406,142.003817 188.830166,143.364935 184.959411,144.625666 L177.952112,146.907671 C177.952112,146.907671 177.952112,146.795872 177.952112,146.792197 C177.615178,146.889489 177.137125,147.027012 177.137125,147.027012 C173.828706,147.980588 170.392794,148.890643 166.922624,149.733 L165.025397,150.193734 L165.025397,150.224101 L163.845446,150.480774 L160.310653,151.339765 L160.310653,151.243827 C156.475325,152.070904 152.591724,152.826221 148.751918,153.480378 C148.751918,153.480378 147.824619,153.638404 147.316785,153.725251 C147.316785,153.726025 147.316785,153.756199 147.316785,153.756199 C147.316785,153.756199 146.515617,153.874767 145.924863,153.962388 C144.230459,154.251748 142.505495,154.544978 142.505495,154.544978 C142.505495,154.544978 142.505495,154.466255 142.505495,154.464127 C138.615666,155.036659 134.648366,155.542654 130.702284,155.957352 C130.702284,155.957352 129.940629,156.03743 129.611481,156.072246 L129.611481,156.113058 C129.611481,156.113058 128.582965,156.199905 127.625106,156.280756 C126.214303,156.429498 124.797272,156.578434 124.797272,156.578434 C124.797272,156.578434 124.797272,156.520987 124.797272,156.51944 C124.794157,156.51944 124.720386,156.526209 124.720386,156.526209 C120.785009,156.858704 116.731871,157.11789 112.670946,157.296033 L107.092163,157.540713 L107.092163,151.405336 L100.677564,157.595839 L98.5025766,157.590616 C93.6282215,157.578431 88.7038421,157.448644 83.8666646,157.205318 L81.6903143,157.09584 L73.1246697,147.883683 L64.7565921,155.633949 L62.2767868,155.325826 C54.6964463,154.382502 47.1873468,153.139953 39.9581499,151.633575 L35.711532,150.749825 L35.711532,144.519283 L28.4077852,148.960856 L26.1927001,148.371689 C18.3401066,146.28156 10.6843014,143.829343 3.43902668,141.083704 L0,139.77984 L0,76.8575965 L7.43225286,79.9945307 C13.7243014,82.6498417 20.8531382,85.0345539 28.6222864,87.0809692 L30.4171282,87.553695 L35.711532,94.5782382 L35.711532,88.9082363 L42.0942082,90.1660661 C45.8479794,90.9055222 49.7475413,91.579408 53.683113,92.1678007 C53.683113,92.1678007 55.2490497,92.4028097 56.5901689,92.6030025 C58.0868112,92.7941044 59.5842321,92.9844326 59.5842321,92.9844326 C63.287979,93.4571584 67.0789278,93.8658612 70.852553,94.2006765 L75.7222365,94.6310426 L75.7222365,100.888857 L81.8925527,94.9863607 L84.1884164,95.091196 C89.0146936,95.3118916 93.9474429,95.4265914 98.8492433,95.432781 L101.157954,95.4356823 L109.317564,104.070665 L117.598245,94.9304614 L119.774012,94.7929377 C123.959705,94.528335 128.151043,94.1793999 132.231822,93.7548364 L134.693914,93.4981641 C134.693914,93.4981641 135.222965,94.0012573 135.727101,94.4809464 C136.088172,94.0569632 136.7708,93.2540643 136.7708,93.2540643 L138.831724,92.9919761 C143.077174,92.450972 147.294206,91.8142235 151.364084,91.0989452 L153.927977,90.6486565 L160.310653,96.3453507 L160.310653,89.3985636 L164.425495,88.4324157 C168.145008,87.5591109 171.785494,86.5976051 175.247295,85.5745909 C175.247295,85.5745909 177.898195,84.7914212 179.929339,84.1916164 C179.930117,84.1892954 179.9453,84.1395856 179.9453,84.1395856 L182.512112,83.2517741 C185.946078,82.0643503 189.227635,80.7908532 192.267051,79.468807 L199.75474,76.2084689 L199.75474,139.263013 L196.348414,140.579063" id="path14" fill="#231F20"></path>
                        <path d="M56.6956677,136.544453 C56.6956677,134.134016 56.6956677,132.052784 56.6956677,130.074454 C56.0075898,129.980837 55.9034536,129.96575 55.1388794,129.861495 C55.1388794,132.272706 55.1388794,134.353744 55.1388794,136.332848 C55.8267626,136.426658 55.9308988,136.440778 56.6956677,136.544453 Z M62.6312393,152.515777 C55.1281738,151.582124 47.6967385,150.353114 40.543454,148.86279 L38.5609723,148.449445 L38.5609723,92.356775 L41.5400476,92.9443941 C45.4191716,93.7082215 49.1904611,94.361411 53.0688065,94.9409063 L55.1920181,95.2588937 C55.1920181,95.2588937 55.1920181,111.841434 55.1920181,115.271018 C55.7940619,115.35477 55.8717261,115.365988 56.5376142,115.459025 C56.5376142,111.263486 56.5376142,95.4674037 56.5376142,95.4674037 L59.348709,95.8262034 C62.827249,96.2697223 66.4025288,96.6496051 70.6000956,97.0211707 L72.8722123,97.2221372 L72.8722123,121.150883 C72.8722123,121.150883 70.01557,123.15049 68.3219448,124.335593 C70.0755214,126.026304 72.8722123,128.722427 72.8722123,128.722427 L72.8722123,144.245783 L63.7882222,152.659297 L62.6312393,152.515777 Z" id="path16" fill="#FFFFFF"></path>
                        <path d="M20.8099265,129.15434 C20.8099265,126.731137 20.8099265,125.091877 20.8099265,123.5296 C20.257907,123.353004 20.1105591,123.305422 19.411873,123.081825 C19.411873,125.505029 19.411873,127.144289 19.411873,128.706566 C19.9637951,128.883161 20.1113377,128.930743 20.8099265,129.15434 Z M20.8622866,108.720941 C20.8622866,106.120756 20.8622866,104.175501 20.8622866,102.538755 C20.3141601,102.358872 20.1629192,102.309162 19.464272,102.079569 C19.464272,104.679561 19.464272,106.624623 19.464272,108.261562 C20.0132355,108.441445 20.1636978,108.491155 20.8622866,108.720941 Z M36.4437947,125.02534 L36.4437947,140.754305 L27.9639896,145.910575 L26.9300237,145.635527 C19.1708414,143.57035 11.6086615,141.148501 4.45467629,138.437484 L2.84982961,137.829362 L2.84982961,81.1366936 L6.31865678,82.6005188 C12.7338002,85.3086343 19.9927976,87.7374469 27.8923594,89.818485 L28.7293423,90.0389872 L37.4479796,101.604909 L37.4479796,117.734453 C37.4479796,117.734453 34.1306074,119.172553 32.3417997,119.948373 C33.9883203,121.987051 36.4437947,125.02534 36.4437947,125.02534 Z" id="path18" fill="#FFFFFF"></path>
                        <path d="M195.314837,137.939613 C191.676297,139.345411 187.894497,140.689314 184.07221,141.934185 L180.800969,142.999365 C180.800969,142.999365 180.800969,135.864571 180.800969,133.491851 C179.52564,137.715242 177.6471,143.931664 177.6471,143.931664 L176.343353,144.307679 C173.073864,145.248875 169.676687,146.149259 166.246808,146.982525 L163.160288,147.73262 L163.160288,91.6389822 L165.080872,91.1881132 C168.852745,90.3028161 172.54637,89.3268037 176.059168,88.2888959 L179.263256,87.3432508 C179.263256,87.3432508 179.263256,94.0941004 179.263256,96.1192392 C180.453718,92.2229263 182.25148,86.340546 182.25148,86.340546 L183.448949,85.9260405 C186.952404,84.7144388 190.304229,83.4150231 193.410409,82.0628029 L196.905105,80.5413376 L196.905105,137.325495 L195.314837,137.939613" id="path20" fill="#FFFFFF"></path>
                        <path d="M148.586079,150.635512 L145.670264,151.132803 C145.670264,151.132803 145.670264,114.159802 145.670264,109.288831 C144.932746,109.378773 144.839899,109.389991 144.166614,109.470842 C144.166614,113.411836 144.1635,151.346535 144.1635,151.346535 L142.038147,151.662201 C138.245641,152.224289 134.830362,152.653301 130.615666,153.096046 L127.860045,153.38618 C127.860045,153.38618 127.860045,116.309699 127.860045,111.421513 C127.196299,111.503911 127.122527,111.513002 126.515423,111.588244 C126.515423,115.518599 126.515423,153.551557 126.515423,153.551557 L124.232406,153.744206 C120.661797,154.045366 117.057126,154.269156 112.545204,154.466255 L109.941603,154.581148 L109.941603,107.614948 L118.93917,97.6830642 L119.954255,97.6188477 C124.179267,97.3528911 128.409535,97.0000876 132.529048,96.5710753 L133.677661,96.4517333 C133.677661,96.4517333 135.245155,97.9412839 135.947637,98.6083998 C136.77625,97.6347084 138.231821,95.9229149 138.231821,95.9229149 L139.193573,95.8004781 C143.483987,95.2542515 147.745592,94.6107332 151.860434,93.8879115 L153.05693,93.6778541 L162.175373,101.816514 L162.175373,147.944805 L160.214887,148.371689 C156.143451,149.257953 152.448074,149.97768 148.586079,150.635512" id="path22" fill="#FFFFFF"></path>
                        <path d="M92.1588298,139.618138 C92.1588298,135.613121 92.1588298,116.441807 92.1588298,112.724604 C91.4594624,112.695784 91.3765427,112.692689 90.6551802,112.664062 C90.6551802,116.668305 90.6551802,135.840393 90.6551802,139.55779 C91.3553262,139.585643 91.4372727,139.589511 92.1588298,139.618138 Z M98.5086107,154.758517 C93.6799977,154.747298 88.8025282,154.618865 84.0105088,154.377087 L82.9956184,154.325829 L74.0550833,144.710965 L74.0550833,106.415339 L82.9864699,97.871845 L84.0576135,97.9202008 C88.9257399,98.1428306 93.9018955,98.258691 98.8461289,98.2646871 L99.9233065,98.2662345 L108.724863,107.580132 L108.724863,145.881175 L99.5240851,154.760838 L98.5086107,154.758517 Z" id="path24" fill="#FFFFFF"></path>
                        <path d="M52.8872006,138.542513 L58.9039401,139.373458 L58.9039401,127.900379 L52.8872006,127.069434 L52.8872006,138.542513 Z M52.8872006,97.4186549 L52.8872006,117.449541 L58.9039401,118.280486 L58.9039401,98.2511475 C62.6530398,98.7300629 66.4807769,99.1439881 70.3787817,99.4890547 L70.3787817,119.865201 L64.4266651,124.031339 L70.3787817,129.770779 L70.3787817,143.16861 L62.9413123,150.056984 C55.4520667,149.124878 48.1436484,147.91405 41.0549868,146.437266 L41.0549868,95.3743672 C44.8877848,96.1298775 48.8354246,96.8128541 52.8872006,97.4186549 Z" id="path26" fill="#4D180C"></path>
                        <path d="M17.1763305,110.116101 L23.1215566,112.097526 L23.1215566,100.695627 L17.1763305,98.7142022 L17.1763305,110.116101 Z M17.1763305,130.568456 L23.1215566,132.549107 L23.1215566,121.717419 L17.1763305,119.735994 L17.1763305,130.568456 Z M27.253138,92.2140288 L34.9537704,102.430632 L34.9537704,116.112408 L28.3562037,118.973134 L33.9495855,125.897097 L33.9495855,139.365721 L27.5746952,143.242498 C19.8345494,141.181769 12.4067734,138.799378 5.34329914,136.122211 L5.34329914,84.8819431 C11.8611579,87.6331919 19.214345,90.0958535 27.253138,92.2140288 Z" id="path28" fill="#4D180C"></path>
                        <path d="M176.769047,90.6645172 L176.769047,112.810677 L184.268609,88.2660719 C187.845056,87.0295187 191.232307,85.7159831 194.411285,84.332235 L194.411285,135.630529 C190.800579,137.025496 187.093329,138.343093 183.295567,139.579647 L183.295567,116.623818 L175.648657,141.927415 C172.376833,142.870159 169.042721,143.752555 165.653913,144.575183 L165.653913,93.5993244 C169.503451,92.6958455 173.213232,91.7153843 176.769047,90.6645172" id="path30" fill="#4D180C"></path>
                        <path d="M132.789096,99.0360581 L136.140532,102.221348 L139.510459,98.258691 C143.884571,97.7018262 148.150653,97.0559868 152.294303,96.3285229 L159.681942,102.920959 L159.681942,145.951387 C155.801845,146.795872 151.85732,147.563374 147.848755,148.246931 L147.848755,106.543772 L141.976444,107.24551 L141.973719,149.180004 C138.080775,149.757178 134.135082,150.257177 130.140532,150.677291 L130.140532,108.659626 L124.268221,109.361365 L124.268221,151.235317 C120.365544,151.56549 116.418683,151.816359 112.435423,151.991601 L112.435423,108.565236 L120.111335,100.091954 C124.415763,99.8207752 128.645058,99.4671979 132.789096,99.0360581" id="path32" fill="#4D180C"></path>
                        <path d="M88.3815063,141.967454 L94.3982458,142.189503 L94.3982458,110.334476 L88.3815063,110.11378 L88.3815063,141.967454 Z M98.8430146,100.742242 L106.230849,108.560593 L106.230849,144.833402 L98.5146447,152.280961 C93.6724064,152.268776 88.8770781,152.141117 84.1366402,151.902626 L76.5485139,143.741143 L76.5485139,107.469107 L83.9427716,100.395435 C88.8291949,100.619225 93.8016522,100.736246 98.8430146,100.742242 Z" id="path34" fill="#4D180C"></path>
                        <path d="M161.687393,43.1756888 C161.695568,43.3466748 161.709193,43.5201752 161.709193,43.6870992 C161.709193,46.0449256 160.936444,47.9625213 160.109193,49.3617432 C160.490118,49.4499441 160.841067,49.6398855 161.0653,49.9659967 C161.241845,50.2236361 161.332356,50.5242155 161.336054,50.8263422 L161.831626,50.8489727 C161.515324,51.7729544 160.889144,52.5992574 160.219363,53.279913 C159.526614,54.2216896 158.682234,54.9870644 157.960288,55.5477977 C162.314351,61.9412015 157.07367,66.8688459 157.07367,66.8688459 C157.802624,68.4589764 157.195325,70.0498806 156.150069,71.4171878 C155.488658,73.2398127 154.263938,74.7407752 153.403013,75.6427066 C153.553475,75.864176 153.654497,76.1163996 153.676493,76.3883523 C153.701018,76.6746184 153.712113,76.9548883 153.712113,77.2283884 C153.712113,81.1132894 151.437077,83.6991615 150.237271,84.7927751 C150.239802,84.8684035 150.253232,84.9492543 150.253232,85.024109 C150.253232,87.4912194 149.145106,89.341117 148.456055,90.2596828 C148.460921,90.3337638 148.49732,90.4099725 148.49732,90.4832798 C148.49732,91.3285383 148.208463,92.1148028 147.896833,92.7246655 C148.159218,93.1786293 148.259461,93.58269 148.282235,93.7101557 C148.299753,93.8039659 148.307928,93.8985497 148.307928,93.9927467 C148.307928,94.0194391 148.307928,94.0449709 148.30676,94.0706962 C148.267247,94.8556067 147.908123,95.6223355 147.480483,96.2824882 C147.590264,96.5014431 147.704327,96.7236861 147.704327,96.9660451 C147.704327,97.1271665 147.679412,97.2886747 147.628415,97.4457341 C146.931967,99.5940834 145.245155,101.203169 144.276201,101.990401 C144.274449,102.702778 144.274449,103.500261 144.274449,103.575116 C144.245836,105.563311 143.515325,107.268334 142.0944,108.638543 C138.361846,112.238725 131.023841,112.131569 130.712989,112.124799 L130.712211,112.124799 C123.378683,112.124799 119.928172,109.050341 118.886031,107.898313 C117.100338,107.315916 116.009535,106.26737 115.416639,105.247644 C115.248659,105.316309 115.076202,105.380526 114.889146,105.388843 C113.611092,105.439327 112.471822,105.339714 111.537515,105.199289 C111.541992,105.246871 111.564766,105.292132 111.564766,105.33894 C111.564766,105.667566 111.460824,105.99387 111.259365,106.265823 C110.93625,106.703926 110.407978,106.944931 109.862966,106.901798 C107.817808,106.737969 106.362041,106.330039 105.280387,105.851898 C104.989194,106.125398 104.617418,106.299865 104.213136,106.299865 C102.733817,106.299865 101.240679,105.585361 100.298002,105.02927 C99.3607761,105.585941 97.8767859,106.299865 96.3984404,106.299865 C95.9939635,106.299865 95.6214088,106.125398 95.3309952,105.851898 C94.2485621,106.330039 92.7927957,106.737969 90.7478323,106.901798 C90.2028201,106.944931 89.6745476,106.703926 89.3514333,106.265823 C89.1491949,105.993097 89.0458372,105.667566 89.0458372,105.33894 C89.0458372,105.292132 89.0686109,105.246871 89.0732824,105.199289 C88.1381973,105.339714 86.9995112,105.439327 85.7216524,105.388843 C85.535375,105.380526 85.3627229,105.316309 85.1939638,105.247644 C84.6010684,106.26737 83.5102656,107.315916 81.7239882,107.898313 C80.6808739,109.050921 77.2264701,112.125379 69.8649131,112.125379 C69.5869569,112.131569 62.247979,112.238725 58.5163976,108.637769 C57.0956677,107.268334 56.3649621,105.563311 56.3367383,103.575116 C56.3367383,103.500261 56.3359597,102.702778 56.3351811,101.990401 C55.3654487,101.203169 53.6792201,99.5940834 52.982967,97.4457341 C52.9319695,97.2886747 52.9070546,97.1271665 52.9070546,96.9660451 C52.9070546,96.7236861 53.0209232,96.5014431 53.1305096,96.2824882 C52.7024804,95.6223355 52.343551,94.8556067 52.3042323,94.0706962 C52.3026751,94.0449709 52.3018965,94.0194391 52.3018965,93.9927467 C52.3018965,93.8985497 52.3110449,93.8031922 52.3277846,93.7097689 C52.3513369,93.58269 52.4523588,93.1778556 52.7139646,92.7246655 C52.4021398,92.1148028 52.1132834,91.3285383 52.1132834,90.4832798 C52.1132834,90.4099725 52.149877,90.3337638 52.1543539,90.2596828 C51.4656921,89.341117 50.357371,87.4912194 50.357371,85.024109 C50.357371,84.950028 50.3709963,84.8684035 50.3741107,84.7927751 C49.1745,83.6991615 46.898685,81.1132894 46.898685,77.2283884 C46.898685,76.9541146 46.9097798,76.6746184 46.9335268,76.3883523 C46.9555219,76.1208483 47.0588796,75.867851 47.2116777,75.6465751 C46.2098285,74.5978356 44.7106558,72.7382669 44.1847191,70.5007496 C43.6023347,69.3721264 43.3856923,68.1386679 43.9375171,66.9034686 C43.8874928,66.8431206 43.8364953,66.7872214 43.7870549,66.725326 C42.8399016,65.8642068 38.2263737,61.1942019 42.382286,55.3359995 C42.1457897,55.1435436 41.9026754,54.9269098 41.6570306,54.6948022 C40.6421401,53.979524 38.9598044,52.5841704 38.3655465,50.8489727 L39.2768847,50.8075802 C39.2852545,50.511643 39.3726511,50.2184137 39.5453031,49.9659967 C39.7481255,49.6698661 40.0583932,49.4909498 40.3982472,49.3932712 C39.4259844,47.2851539 37.7397557,43.0592482 38.0295854,39.6109029 C38.0295854,39.6109029 38.6991718,40.4194111 39.7527971,41.5462935 C39.8349382,41.5019996 39.9110452,41.4503557 40.0013615,41.419408 C40.5934783,41.2176678 41.2504126,41.3830445 41.6737702,41.8416504 C41.6928457,41.8621532 43.3325537,43.601026 46.1960086,45.3547924 C46.9455949,43.328493 48.4949866,40.3884634 51.4450595,39.3414647 C51.9528941,39.1615813 52.5115315,39.2697048 52.9327481,39.5913672 C53.8220911,38.5822794 55.1768356,37.3751265 56.3285631,37.729284 C56.3018964,37.625029 56.2843782,37.5215477 56.2843782,37.4172927 C56.2843782,37.3062679 56.2974195,37.1936957 56.3170789,37.0766748 C56.3201932,37.062168 56.33304,36.9801567 56.33304,36.8432132 C56.33304,36.3499846 56.1635022,35.1557909 54.7163003,33.978812 C54.3406312,33.6728168 54.1376142,33.2233017 54.1376142,32.7658563 C54.1376142,32.530654 54.1909476,32.2940976 54.3011179,32.0722415 C54.6257894,31.4186651 55.3617504,31.0741788 56.0755217,31.2412963 C56.5489037,31.3523211 57.1427723,31.5985485 57.7485144,31.9701141 C57.8094389,31.8706947 57.855765,31.7633449 57.9394633,31.677852 C58.3223343,31.2834625 58.8850594,31.1173121 59.4224803,31.2380081 C59.4224803,31.2380081 59.6982953,31.3008705 59.8170301,31.3271761 C59.8672491,30.7894601 59.921945,30.1954581 59.921945,30.1954581 C60.0001931,29.3443969 60.7519206,28.7128708 61.6103148,28.7768938 L63.2225775,28.8979766 C63.5122125,28.9198334 63.7903634,29.0211871 64.0268597,29.1912059 C64.0268597,29.1912059 64.887395,29.8089989 65.7479302,30.4269854 C65.1966894,28.8093889 64.0282222,25.3799991 64.0282222,25.3799991 C63.9719692,25.2159764 63.9447186,25.0469247 63.9447186,24.8776795 C63.9447186,24.6163651 64.0108986,24.356598 64.1401444,24.122943 L65.0364947,22.5043793 C65.2864217,22.0517695 65.7455945,21.7509967 66.2625774,21.7005133 C66.7795604,21.6500299 67.2887574,21.8562188 67.623356,22.2511886 C67.623356,22.2511886 68.6950834,23.5173356 69.7510445,24.7651073 C69.7919204,24.4080485 69.8034046,24.0678174 69.9077355,23.6713003 C70.0671515,23.0685942 70.5742075,22.6221739 71.1937695,22.5262361 C71.8141101,22.431072 72.4350347,22.7152104 72.771969,23.2415144 C72.9323583,23.4939314 73.7276867,24.5771002 74.8198521,24.3747797 C75.0479787,23.9366766 75.2036964,23.6364841 75.4948886,23.0786522 C74.7157159,22.0229495 72.84866,19.49317 72.84866,19.49317 C72.645059,19.2175616 72.5438425,18.891992 72.5438425,18.5670994 C72.5438425,18.2347213 72.6495359,17.9022852 72.8617013,17.6229437 C73.2805821,17.0715527 74.0147913,16.857801 74.6670541,17.0978389 C74.6670541,17.0978389 75.9684653,17.5767156 77.2570297,18.0510468 C77.234256,17.6221893 77.2029178,17.0306631 77.2029178,17.0306631 C77.2015552,17.0034678 77.2007767,16.9755956 77.2007767,16.9483036 C77.2007767,16.3999301 77.4904117,15.8885583 77.9678813,15.6044006 C78.4687085,15.3069354 79.0950832,15.3084441 79.5939639,15.6088493 C79.5939639,15.6088493 79.7594141,15.7088103 79.7938666,15.7297387 C80.3114335,12.9604823 81.346762,7.42858443 81.346762,7.42858443 C81.3703143,7.3040587 81.4082705,7.18332406 81.4608252,7.06846949 L82.7151318,4.31801376 C83.0236476,3.64043364 83.7701196,3.27178874 84.5000465,3.43658514 C84.5000465,3.43658514 85.1978568,3.59441831 85.7960076,3.72936954 C85.7313847,3.34349065 85.6402898,2.79148075 85.6402898,2.79148075 C85.6264699,2.70656805 85.6188786,2.62148127 85.6188786,2.53693608 C85.6188786,2.16831052 85.7504601,1.80873136 85.9937691,1.52381155 C86.2933312,1.17255151 86.7326499,0.970817121 87.1955209,0.970817121 L88.0910927,0.970817121 C88.2172241,0.970817121 88.3106547,1.05702575 88.4293895,1.08551116 C88.541117,0.751856481 88.7219443,0.443513138 89.0359102,0.244121104 C89.6198518,-0.124138302 90.377808,-0.07140036 90.9053019,0.374076215 C90.9053019,0.374076215 91.963404,1.27001929 92.8132337,1.98916214 C94.1452045,1.14142201 96.6080754,0.0100489245 100.316494,0.0100489245 C104.024718,0.0100489245 106.487783,1.14142201 107.820922,1.98916214 C108.669389,1.27001929 109.72827,0.374076215 109.72827,0.374076215 C110.254985,-0.07140036 111.012941,-0.124138302 111.596688,0.244121104 C111.910849,0.443513138 112.09226,0.751856481 112.203987,1.08551116 C112.322917,1.05702575 112.416348,0.970817121 112.542479,0.970817121 L113.437077,0.970817121 C113.900143,0.970817121 114.339462,1.17255151 114.638829,1.52381155 C114.882917,1.80873136 115.01372,2.16831052 115.01372,2.53693608 C115.01372,2.62148127 115.006907,2.70656805 114.992503,2.79148075 C114.992503,2.79148075 114.901214,3.34349065 114.837564,3.72936954 C115.435715,3.59441831 116.133525,3.43658514 116.133525,3.43658514 C116.864036,3.27178874 117.609924,3.64043364 117.91844,4.31801376 L119.172746,7.06846949 C119.225301,7.18332406 119.263257,7.3040587 119.285836,7.42858443 C119.285836,7.42858443 120.32136,12.9604823 120.8399,15.7297387 C120.873184,15.7088103 121.039802,15.6088493 121.039802,15.6088493 C121.539267,15.3084441 122.164863,15.3069354 122.665496,15.6044006 C123.14316,15.8885583 123.4326,16.3999301 123.4326,16.9483036 C123.4326,16.9755956 123.431822,17.0034678 123.430459,17.0306631 C123.430459,17.0306631 123.399121,17.6221893 123.377515,18.0510468 C124.664912,17.5767156 125.966323,17.0978389 125.966323,17.0978389 C126.618586,16.857801 127.35299,17.0715527 127.77187,17.6229437 C127.984036,17.9022852 128.090508,18.2347213 128.090508,18.5670994 C128.090508,18.891992 127.988318,19.2175616 127.784717,19.49317 C127.784717,19.49317 125.917661,22.0229495 125.138683,23.0786522 C125.429875,23.6364841 125.585398,23.9366766 125.813719,24.3747797 C126.90608,24.5771002 127.701213,23.4939314 127.862381,23.2415144 C128.197564,22.7152104 128.819461,22.431072 129.439607,22.5262361 C130.059364,22.6221739 130.567004,23.0685942 130.725058,23.6713003 C130.830167,24.0678174 130.841457,24.4080485 130.881749,24.7651073 C131.938294,23.5173356 133.010216,22.2511886 133.010216,22.2511886 C133.34462,21.8562188 133.853233,21.6500299 134.370994,21.7005133 C134.888561,21.7509967 135.346955,22.0525432 135.59805,22.505153 L136.493233,24.122943 C136.622673,24.356598 136.68788,24.6163651 136.68788,24.8776795 C136.68788,25.0469247 136.660629,25.2159764 136.604376,25.3799991 C136.604376,25.3799991 135.436882,28.8093889 134.886615,30.4262117 C135.746371,29.8089989 136.606712,29.1912059 136.606712,29.1912059 C136.842235,29.0211871 137.121359,28.9198334 137.410799,28.8979766 L139.023257,28.7768938 C139.880678,28.7128708 140.633378,29.3443969 140.711432,30.1954581 C140.711432,30.1954581 140.766323,30.7894601 140.815958,31.3271761 C140.934303,31.3008705 141.210313,31.2380081 141.210313,31.2380081 C141.748707,31.1173121 142.311043,31.2821085 142.69333,31.677852 C142.777223,31.7633449 142.824133,31.8706947 142.884279,31.9701141 C143.490994,31.5985485 144.083889,31.3523211 144.557466,31.2412963 C145.271237,31.0741788 146.007782,31.4186651 146.332259,32.0722415 C146.442624,32.2940976 146.494984,32.530654 146.494984,32.7658563 C146.494984,33.2233017 146.292746,33.6728168 145.917466,33.978812 C144.469291,35.1550173 144.300532,36.3499846 144.300532,36.8432132 C144.300532,36.9801567 144.313962,37.062168 144.315714,37.0766748 C144.336152,37.1936957 144.34822,37.3062679 144.34822,37.4172927 C144.34822,37.561006 144.327004,37.7029784 144.272892,37.8478523 C144.272892,37.8478523 144.222867,37.9832484 144.158829,38.1546212 C145.318147,37.6728045 146.692551,38.718836 147.610118,39.6404966 C148.038926,39.2764746 148.632016,39.1519101 149.165738,39.3414647 C152.115033,40.3884634 153.665203,43.328493 154.414789,45.3547924 C157.278244,43.601026 158.917952,41.8621532 158.936833,41.8416504 C159.237952,41.5168932 159.657417,41.3476481 160.086225,41.3437796 C161.348901,39.6826629 162.167587,38.3782181 162.167587,38.3782181 C162.289436,39.8209603 162.061894,41.5137984 161.687393,43.1756888" id="path36" fill="#231F20"></path>
                        <path d="M102.186664,95.7523158 L102.857808,94.6598627 L105.678829,96.6027967 L107.425593,95.6314264 L109.978391,97.0877082 L111.859073,95.0238848 C114.277175,95.9954485 115.217515,96.7236861 115.217515,96.7236861 C115.352017,95.7523158 115.083598,94.9031888 115.083598,94.9031888 C118.038537,95.3881003 118.978878,96.2378075 118.978878,96.2378075 C119.24788,94.4182773 118.038537,93.4467136 118.038537,93.4467136 C119.6508,93.3258242 121.263257,94.4182773 121.263257,94.4182773 C120.725836,92.9618021 120.188221,92.2335645 120.188221,92.2335645 C121.531481,92.1119015 123.009437,92.9618021 123.009437,92.9618021 L122.741019,91.0196418 L124.756201,92.3544539 L125.831043,89.4415035 C124.353087,88.3492438 125.428318,87.9852218 125.428318,87.9852218 L127.039802,88.3492438 L128.786761,86.7718793 L125.831043,86.8929621 L124.6217,85.6796196 C123.368172,88.9565921 119.6508,86.6502162 119.6508,86.6502162 C119.24788,89.2799953 116.560776,87.1360948 116.560776,87.1360948 L115.217515,88.3492438 L114.142479,86.7718793 L113.336834,88.1068848 C112.664912,87.3786472 110.515812,85.922172 110.515812,85.922172 L110.784231,87.5003103 L109.575277,87.3786472 C108.634353,86.0438351 107.022674,85.1939344 107.022674,85.1939344 L106.888367,87.8643324 C105.813915,86.1647245 103.664231,84.9515754 103.664231,84.9515754 C101.380046,83.2527412 102.589389,80.825476 102.589389,80.825476 C102.589389,80.825476 102.186664,79.6115532 101.782771,80.3397908 C101.380046,81.0680284 101.514353,81.5537135 101.514353,81.5537135 C101.514353,81.5537135 101.114742,80.3512028 100.316494,79.0231604 L100.316494,79.0051721 C100.314937,79.0080734 100.313185,79.0109748 100.310849,79.0140695 C100.308513,79.0109748 100.306956,79.0080734 100.305594,79.0051721 L100.305594,79.0231604 C99.5073454,80.3512028 99.1077347,81.5537135 99.1077347,81.5537135 C99.1077347,81.5537135 99.2414574,81.0680284 98.8385377,80.3397908 C98.435618,79.6115532 98.0326983,80.825476 98.0326983,80.825476 C98.0326983,80.825476 99.2414574,83.2527412 96.9578565,84.9515754 C96.9578565,84.9515754 94.8079782,86.1647245 93.7339149,87.8643324 L93.5994137,85.1939344 C93.5994137,85.1939344 91.9869563,86.0438351 91.0468104,87.3786472 L89.8380513,87.5003103 L90.1062751,85.922172 C90.1062751,85.922172 87.9571754,87.3786472 87.2852533,88.1068848 L86.4794139,86.7718793 L85.4045721,88.3492438 L84.0605332,87.1360948 C84.0605332,87.1360948 81.3742072,89.2799953 80.9712875,86.6502162 C80.9712875,86.6502162 77.2539153,88.9565921 76.0003874,85.6796196 L74.7910444,86.8929621 L71.8362999,86.7718793 L73.5822853,88.3492438 L75.1939641,87.9852218 C75.1939641,87.9852218 76.2688059,88.3492438 74.7910444,89.4415035 L75.8658862,92.3544539 L77.8810686,91.0196418 L77.6118715,92.9618021 C77.6118715,92.9618021 79.0896331,92.1119015 80.4338666,92.2335645 C80.4338666,92.2335645 79.8964457,92.9618021 79.3588301,94.4182773 C79.3588301,94.4182773 80.9712875,93.3258242 82.5827717,93.4467136 C82.5827717,93.4467136 81.3742072,94.4182773 81.6432096,96.2378075 C81.6432096,96.2378075 82.5827717,95.3881003 85.5384893,94.9031888 C85.5384893,94.9031888 85.2700709,95.7523158 85.4045721,96.7236861 C85.4045721,96.7236861 86.3449127,95.9954485 88.7630148,95.0238848 L90.6438907,97.0877082 L93.196494,95.6314264 L94.943258,96.6027967 L97.7635012,94.6598627 L98.435618,95.7523158 L100.310849,94.2995156 L102.186664,95.7523158 Z M120.871822,100.486344 C120.871822,100.486344 121.677467,99.3938906 123.020727,98.6658464 C123.020727,98.6658464 123.82715,101.699493 125.169827,102.791752 C125.169827,102.791752 125.438829,101.821156 125.97625,101.092725 C125.97625,101.092725 127.454011,103.641653 130.543452,104.490587 C130.543452,104.490587 130.543452,103.51999 130.812454,102.913416 C130.812454,102.913416 133.230751,103.762349 133.633671,104.248034 C133.633671,104.248034 133.768172,102.185178 136.320775,101.942045 C136.320775,101.942045 135.917077,100.486344 135.380629,100.122128 C135.380629,100.122128 136.992113,99.6364431 138.201456,100.728703 C138.201456,100.728703 139.410994,95.7523158 135.380629,93.2041612 L134.57479,95.1463215 L131.887296,92.2335645 C131.887296,92.2335645 132.155714,90.7765091 134.172065,90.5339566 C134.172065,90.5339566 131.215568,89.0774814 127.72243,92.718476 L127.319705,94.6598627 L125.97625,93.9316251 L125.707247,96.1163379 L123.961262,95.2672109 L122.349583,96.2378075 C122.349583,96.2378075 122.376055,96.2205929 122.415569,96.1948676 C122.429973,96.1857767 122.441262,96.1790069 122.454304,96.169916 C122.504522,96.1381947 122.565447,96.0989298 122.633768,96.0542491 C122.761651,95.9718509 122.858975,95.9093753 122.937807,95.8579247 C122.988999,95.8256231 123.033574,95.7960294 123.072308,95.7710778 C123.236591,95.6652754 123.197077,95.6910007 123.072308,95.7710778 C123.037467,95.7937083 122.992503,95.823302 122.937807,95.8579247 C122.842235,95.9198201 122.732649,95.9900326 122.633768,96.0542491 C122.58063,96.0882915 122.516591,96.1298775 122.454304,96.169916 C122.440484,96.1790069 122.427053,96.1873241 122.415569,96.1948676 C122.392016,96.2107283 122.374498,96.2219468 122.349583,96.2378075 C120.468707,97.4519237 120.602625,98.5441834 120.871822,100.486344 Z M139.679218,95.0238848 C139.679218,95.0238848 140.88895,93.5683767 142.634741,93.6900397 L140.081943,92.476117 L140.88895,91.2621942 L139.544717,90.2914042 C139.544717,90.2914042 141.425203,89.3208076 141.560094,88.5923766 C141.560094,88.5923766 139.544717,88.4709069 138.336152,87.2569842 C138.336152,87.2569842 136.858196,86.6502162 135.648853,87.8643324 C135.648853,87.8643324 135.380629,88.2283545 133.499948,88.5923766 C133.499948,88.5923766 135.917077,89.6848297 136.992113,89.805719 L135.582089,90.6554263 C136.791432,91.0196418 137.530118,92.2335645 138.336152,94.4182773 L139.679218,95.0238848 Z M143.306079,81.0680284 L143.03805,80.0974318 C143.03805,80.0974318 141.425203,82.8885257 140.081943,83.6167633 L139.141992,85.4364869 C139.141992,85.4364869 140.485836,86.6502162 141.291675,86.8929621 L140.619559,85.3155975 L143.172357,83.3742108 L142.097515,82.7668626 L143.306079,81.0680284 Z M130.275228,75.8498627 C131.887296,75.3639841 133.096834,77.7910559 132.827831,76.0922217 C132.558634,74.3933875 130.409729,74.150835 130.409729,74.150835 L128.797077,73.1792713 L131.484571,73.3009344 L130.409729,72.3303378 L133.230751,72.4510337 L134.036396,73.0585754 L134.440289,72.2084813 L136.052551,73.6645696 L137.933233,73.5434868 L135.783549,71.2380781 L138.067539,71.2380781 L136.455276,69.7816029 L137.664035,68.3251277 L135.111237,67.9609122 C134.036396,66.1406083 133.230751,65.7765862 130.946955,65.8972822 L132.29041,66.6253263 L131.35007,67.8396359 L132.694109,67.7185531 L132.424912,68.9317022 L135.514157,68.8110063 C135.514157,69.6599398 133.096834,70.3881774 133.096834,70.3881774 L133.096834,71.4804371 C130.678148,69.4173874 128.260824,71.116415 128.260824,71.116415 C127.454011,71.8446526 127.051092,72.4510337 124.498294,72.4510337 C125.169827,73.4227909 125.573525,75.4856472 125.573525,75.4856472 L126.379364,74.6357465 L126.513865,75.9705586 L127.991627,75.8498627 L127.991627,74.5148571 C130.275228,74.5148571 130.275228,75.8498627 130.275228,75.8498627 Z M137.843306,49.190177 C137.843306,49.190177 135.75007,49.5141606 135.077953,50.4849506 C134.406031,51.4555472 134.943257,47.9362157 134.943257,47.9362157 L132.525349,46.843956 L132.391238,44.5385473 C132.391238,44.5385473 131.31659,41.74726 127.958148,39.9267627 L127.555228,38.1062654 L126.211189,39.1985251 C126.211189,39.1985251 123.524668,36.8923426 124.196785,35.3142044 L121.105788,36.4066575 L121.241262,34.2221381 L119.628221,34.5861602 L119.762333,33.0086022 C119.762333,33.0086022 118.822381,32.4016408 117.881846,32.5240776 C117.881846,32.5240776 118.687686,29.4894641 112.239024,25.241895 C112.239024,25.241895 115.463744,27.6689669 114.120678,35.7998895 C114.120678,35.7998895 113.31406,44.1735581 113.985983,47.8147461 C113.985983,47.8147461 113.7199,50.9451039 113.475228,53.8118262 C113.306275,54.4131783 113.213622,55.0512808 113.324571,55.5824204 C113.320873,55.6218787 113.317175,55.6638515 113.31406,55.7031163 L113.342868,55.7168494 C113.294401,55.859789 112.586469,57.7661661 110.257905,57.7661661 C110.257905,57.7661661 108.511141,56.5532104 106.764961,58.0094922 C106.764961,58.0094922 107.571579,59.1019453 106.227735,59.9506854 C106.227735,59.9506854 104.884474,60.9222492 106.764961,61.1648016 C108.377418,61.285691 109.988902,61.6502933 111.735861,63.8350061 C111.735861,63.8350061 113.885545,67.5970835 115.363501,67.5970835 C116.841457,67.5970835 115.900338,66.7471828 117.244182,67.1113983 C117.244182,67.1113983 117.244182,66.3831607 116.438343,66.1406083 C116.438343,66.1406083 116.572065,65.4123707 118.855666,66.0189452 C118.855666,66.0189452 121.408269,66.2613043 122.617807,65.4123707 C122.617807,65.4123707 124.095569,63.8350061 123.961262,63.2278513 C123.961262,63.2278513 121.005544,64.6841331 119.527588,64.320111 C119.527588,64.320111 116.572065,65.6551166 114.557661,64.8050225 C114.557661,64.8050225 112.407004,65.2909011 112.542479,64.0767849 L113.482625,63.8350061 C113.482625,63.8350061 112.407004,62.6203097 111.602138,62.0145088 C111.602138,62.0145088 113.348124,62.9845252 115.094498,62.8638292 L114.42316,62.1355916 C114.42316,62.1355916 115.631725,62.4996137 116.169146,62.1355916 C116.169146,62.1355916 117.781603,61.7713761 118.319024,62.0145088 L118.721944,61.4075475 C118.721944,61.4075475 119.662284,62.2562876 119.393866,63.2278513 C119.393866,63.2278513 119.930508,62.2562876 121.677467,61.6502933 C121.677467,61.6502933 121.694985,61.632305 121.718537,61.6075469 C122.063647,61.4164449 123.656834,60.6292133 125.674352,61.1648016 L127.689145,62.3785309 C127.689145,62.3785309 125.539267,63.2278513 125.405544,64.1990282 C125.405544,64.1990282 129.435909,63.5512546 130.957856,63.5512546 C130.957856,63.5512546 129.883598,64.6032823 129.704328,64.9266855 C129.704328,64.9266855 132.570118,64.1175971 133.555228,64.1175971 L134.361651,65.735774 L135.705106,65.1690446 L136.555909,66.9903155 C136.555909,66.9903155 138.033476,64.8050225 136.690216,63.470984 C136.690216,63.470984 138.168172,62.6203097 136.555909,59.8299895 L137.361554,59.1019453 L136.824133,58.2518512 C136.824133,58.2518512 135.077953,58.6162601 133.46569,57.7661661 C133.46569,57.7661661 137.764473,57.6452767 137.899559,55.5818401 C137.899559,55.5818401 136.018293,55.8249728 135.346177,55.3392877 C135.346177,55.3392877 137.361554,53.7619231 137.361554,52.9120224 C137.361554,52.0630889 134.664522,51.8197627 138.694108,49.9592269 L138.783646,48.4219009 C138.336152,48.9886303 137.843306,49.190177 137.843306,49.190177 Z M108.781895,21.9368762 C108.863842,21.2593154 108.867735,20.4223741 108.840289,19.6351425 C109.218294,19.5152203 109.697126,19.1600569 109.830849,18.1393831 C109.828318,18.1517622 109.829486,18.163561 109.827151,18.1765397 L109.836104,18.1183 C109.835326,18.1275843 109.831433,18.131298 109.830849,18.1393831 C109.879511,17.8533298 109.904425,17.5686305 109.904425,17.2906623 C109.904425,16.3024642 109.631725,15.3929893 109.337418,14.6910765 C109.56243,12.3011032 108.657126,10.182367 108.657126,10.182367 C106.686907,7.02767658 103.73119,8.15995548 103.73119,8.15995548 C101.330411,8.48198543 101.928757,8.32376542 100.316494,8.32686019 C100.31007,8.32686019 100.305594,8.32686019 100.29956,8.32686019 C100.293525,8.32686019 100.288854,8.32686019 100.28282,8.32686019 C98.6711411,8.32376542 99.2694866,8.48198543 96.8681241,8.15995548 C96.8681241,8.15995548 93.9126011,7.02767658 91.9421875,10.182367 C91.9421875,10.182367 91.0253992,12.332225 91.2687082,14.7434361 C90.897516,15.6399904 90.5724552,16.8627913 90.7972727,18.1191317 C90.9218469,19.1297669 91.3833554,19.4939437 91.7596084,19.6246977 C91.7315792,20.4150241 91.7354722,21.2562207 91.8176133,21.9368762 C89.5118226,23.3736223 89.0762022,24.7968287 89.0762022,24.7968287 C93.0170293,22.1266242 96.1520171,21.965116 96.1520171,21.965116 C98.0326983,21.8432595 97.4950827,22.8146298 97.4950827,22.8146298 C95.3461777,22.8146298 94.4050585,24.0281657 94.4050585,24.0281657 C97.0923577,23.6639502 95.2116765,26.2126851 95.2116765,26.2126851 C93.4647179,27.4264144 91.5840366,30.4192485 91.5840366,30.4192485 C89.3004357,35.1526962 92.3449125,38.5503646 92.3449125,38.5503646 C93.5544502,40.3710553 95.88282,39.1167072 95.88282,39.1167072 C96.9539635,38.6335365 98.8239391,38.2308298 100.29956,38.2279285 C101.77518,38.2308298 103.645156,38.6335365 104.716494,39.1167072 C104.716494,39.1167072 107.045447,40.3710553 108.254012,38.5503646 C108.254012,38.5503646 111.299462,35.1526962 109.015861,30.4192485 C109.015861,30.4192485 107.134401,27.4264144 105.388221,26.2126851 C105.388221,26.2126851 103.506956,23.6639502 106.194255,24.0281657 C106.194255,24.0281657 105.253915,22.8146298 103.104036,22.8146298 C103.104036,22.8146298 102.566615,21.8432595 104.447491,21.965116 C104.447491,21.965116 107.582284,22.1266242 111.522917,24.7968287 C111.522917,24.7968287 111.087491,23.3736223 108.781895,21.9368762 Z M87.2852533,55.7031163 C87.4510927,55.1058261 87.3202898,54.3458671 87.1110441,53.655347 C86.8702655,50.8325317 86.6133312,47.8147461 86.6133312,47.8147461 C87.2852533,44.1735581 86.4794139,35.7998895 86.4794139,35.7998895 C85.1355696,27.6689669 88.3600951,25.241895 88.3600951,25.241895 C81.9116281,29.4894641 82.7172729,32.5240776 82.7172729,32.5240776 C81.7771269,32.4016408 80.8365917,33.0086022 80.8365917,33.0086022 L80.9712875,34.5861602 L79.3588301,34.2221381 L79.4933313,36.4066575 L76.4033071,35.3142044 C77.0754239,36.8923426 74.3881247,39.1985251 74.3881247,39.1985251 L73.0448644,38.1062654 L72.6419447,39.9267627 C69.2827233,41.74726 68.2086601,44.5385473 68.2086601,44.5385473 L68.0741589,46.843956 L65.6558621,47.9362157 C65.6558621,47.9362157 66.193283,51.4555472 65.5213609,50.4849506 C64.8502174,49.5141606 63.9098767,49.5141606 63.9098767,49.5141606 C63.9098767,49.5141606 62.9687575,49.2311827 62.9687575,48.7454976 L63.23776,50.8489727 C65.2529424,52.427111 63.23776,52.0630889 63.23776,52.9120224 C63.23776,53.7619231 65.2529424,55.3392877 65.2529424,55.3392877 C64.5810203,55.8249728 62.7003391,55.5818401 62.7003391,55.5818401 C62.8348403,57.6452767 67.1338183,57.7661661 67.1338183,57.7661661 C65.5213609,58.6162601 63.7751809,58.2518512 63.7751809,58.2518512 L63.23776,59.1019453 L64.0435994,59.8299895 C62.4319206,62.6203097 63.9098767,63.470984 63.9098767,63.470984 C62.5658379,64.8050225 64.0435994,66.9903155 64.0435994,66.9903155 L64.8949862,65.1690446 L66.2382465,65.735774 L67.0440859,64.1175971 C68.0291954,64.1175971 70.8957647,64.9266855 70.8957647,64.9266855 C70.7164946,64.6032823 69.6414581,63.5512546 69.6414581,63.5512546 C71.1641831,63.5512546 75.1939641,64.1990282 75.1939641,64.1990282 C75.0600468,63.2278513 72.9103631,62.3785309 72.9103631,62.3785309 L74.9255456,61.1648016 C77.2091465,60.5582271 78.9559104,61.6502933 78.9559104,61.6502933 C80.7022851,62.2562876 81.2395114,63.2278513 81.2395114,63.2278513 C80.9712875,62.2562876 81.9116281,61.4075475 81.9116281,61.4075475 L82.3143532,62.0145088 C82.8517741,61.7713761 84.4642315,62.1355916 84.4642315,62.1355916 C85.0016524,62.4996137 86.2104115,62.1355916 86.2104115,62.1355916 L85.5384893,62.8638292 C87.2852533,62.9845252 89.0320172,62.0145088 89.0320172,62.0145088 C88.2255939,62.6203097 87.1515307,63.8350061 87.1515307,63.8350061 L88.0910927,64.0767849 C88.2255939,65.2909011 86.0764942,64.8050225 86.0764942,64.8050225 C84.0605332,65.6551166 81.1050101,64.320111 81.1050101,64.320111 C79.6272486,64.6841331 76.6717256,63.2278513 76.6717256,63.2278513 C76.5378083,63.8350061 78.0155698,65.4123707 78.0155698,65.4123707 C79.2243289,66.2613043 81.7771269,66.0189452 81.7771269,66.0189452 C84.0605332,65.4123707 84.195813,66.1406083 84.195813,66.1406083 C83.3893896,66.3831607 83.3893896,67.1113983 83.3893896,67.1113983 C84.7326499,66.7471828 83.7923093,67.5970835 85.2700709,67.5970835 C86.7478324,67.5970835 88.8977107,63.8350061 88.8977107,63.8350061 C90.6438907,61.6502933 92.2559588,61.285691 93.8676376,61.1648016 C95.6145961,60.9222492 94.4050585,59.9506854 94.4050585,59.9506854 C93.0617982,59.1019453 93.8676376,58.0094922 93.8676376,58.0094922 C92.1216522,56.5532104 90.3746936,57.7661661 90.3746936,57.7661661 C87.9571754,57.7661661 87.2852533,55.7031163 87.2852533,55.7031163 Z M62.7003391,73.5434868 L64.5810203,73.6645696 L66.193283,72.2084813 L66.5963974,73.0585754 L67.4020421,72.4510337 L70.2238425,72.3303378 L69.1488061,73.3009344 L71.8362999,73.1792713 L70.2238425,74.150835 C70.2238425,74.150835 68.0741589,74.3933875 67.8049618,76.0922217 C67.5365433,77.7910559 68.746081,75.3639841 70.3577598,75.8498627 C70.3577598,75.8498627 70.3577598,74.5148571 72.6419447,74.5148571 L72.6419447,75.8498627 L74.1197062,75.9705586 L74.2542074,74.6357465 L75.0600468,75.4856472 C75.0600468,75.4856472 75.4631611,73.4227909 76.1348886,72.4510337 C73.5822853,72.4510337 73.1793656,71.8446526 72.3735262,71.116415 C72.3735262,71.116415 69.9556187,69.4173874 67.5365433,71.4804371 L67.5365433,70.3881774 C67.5365433,70.3881774 65.1186358,69.6599398 65.1186358,68.8110063 L68.2086601,68.9317022 L67.9402416,67.7185531 L69.2827233,67.8396359 L68.3431613,66.6253263 L69.6864216,65.8972822 C67.4020421,65.7765862 66.5963974,66.1406083 65.5213609,67.9609122 L62.9687575,68.3251277 L64.1781006,69.7816029 L62.5658379,71.2380781 L64.8502174,71.2380781 L62.7003391,73.5434868 Z M59.0726993,88.5923766 C59.2073951,89.3208076 61.0878817,90.2914042 61.0878817,90.2914042 L59.744816,91.2621942 L60.5504608,92.476117 L57.998636,93.6900397 C59.744816,93.5683767 60.9541591,95.0238848 60.9541591,95.0238848 L62.2974194,94.4182773 C63.1032588,92.2335645 63.8421395,91.0196418 65.0516772,90.6554263 L63.6406797,89.805719 C64.7155215,89.6848297 67.1338183,88.5923766 67.1338183,88.5923766 C65.2529424,88.2283545 64.9847186,87.8643324 64.9847186,87.8643324 C63.7751809,86.6502162 62.2974194,87.2569842 62.2974194,87.2569842 C61.0878817,88.4709069 59.0726993,88.5923766 59.0726993,88.5923766 Z M60.5504608,83.6167633 C59.2073951,82.8885257 57.5949377,80.0974318 57.5949377,80.0974318 L57.3265192,81.0680284 L58.5360569,82.7668626 L57.4612151,83.3742108 L60.0132345,85.3155975 L59.3418963,86.8929621 C60.1475411,86.6502162 61.490996,85.4364869 61.490996,85.4364869 L60.5504608,83.6167633 Z M62.4319206,100.728703 C63.6406797,99.6364431 65.2529424,100.122128 65.2529424,100.122128 C64.7155215,100.486344 64.3126018,101.942045 64.3126018,101.942045 C66.8653998,102.185178 66.9991224,104.248034 66.9991224,104.248034 C67.4020421,103.762349 69.8209228,102.913416 69.8209228,102.913416 C70.0893413,103.51999 70.0893413,104.490587 70.0893413,104.490587 C73.1793656,103.641653 74.6571271,101.092725 74.6571271,101.092725 C75.1939641,101.821156 75.4631611,102.791752 75.4631611,102.791752 C76.8062268,101.699493 77.6118715,98.6658464 77.6118715,98.6658464 C78.9559104,99.3938906 79.7625284,100.486344 79.7625284,100.486344 C80.0309469,98.5441834 80.1654481,97.4519237 78.2847669,96.2378075 C78.2680272,96.2273627 78.2573216,96.2198192 78.2407766,96.2099546 C78.13411,96.1412894 77.8423338,95.9525086 77.6424311,95.823302 C77.6118715,95.8035729 77.5838423,95.7853911 77.5618472,95.7710778 C77.4370784,95.6910007 77.396981,95.6652754 77.5618472,95.7710778 C77.5861781,95.7869385 77.6126501,95.8043466 77.6424311,95.823302 C77.7664214,95.9031857 77.9571757,96.0263962 78.2407766,96.2099546 C78.2664701,96.2258153 78.2847669,96.2378075 78.2847669,96.2378075 L76.6717256,95.2672109 L74.9255456,96.1163379 L74.6571271,93.9316251 L73.3132828,94.6598627 L72.9103631,92.718476 C69.4180031,89.0774814 66.4624801,90.5339566 66.4624801,90.5339566 C68.4768839,90.7765091 68.746081,92.2335645 68.746081,92.2335645 L66.0587818,95.1463215 L65.2529424,93.2041612 C61.2225775,95.7523158 62.4319206,100.728703 62.4319206,100.728703 Z M100.294304,101.57783 C99.6229659,102.5492 98.6818467,102.791752 97.4732822,103.034305 C97.4732822,103.034305 97.8762019,101.092725 97.8762019,100.60704 C97.8762019,100.60704 95.1894867,103.641653 92.233185,103.762349 C92.233185,103.762349 93.039803,101.759841 92.770606,101.274156 C92.770606,101.274156 91.0246206,101.942045 87.531482,102.306067 L88.0690976,101.213808 C88.0690976,101.213808 85.7847181,102.185178 83.5011171,102.185178 C83.5011171,102.185178 83.2328933,103.762349 81.7541585,104.490587 C81.7541585,104.490587 81.6204359,103.277438 81.2175162,102.913416 C81.2175162,102.913416 80.4116768,107.64667 71.0067136,108.616493 C71.0067136,108.616493 60.7966895,109.102371 59.9910447,103.398327 C59.9910447,103.398327 59.588125,101.821156 59.7218477,100.486344 C59.7218477,100.486344 57.1700229,98.7867358 56.7671032,97.6944761 C56.7671032,97.6944761 57.8411664,97.8159458 59.1852053,97.8159458 C59.1852053,97.8159458 57.0355217,96.8451557 55.4230643,94.0540618 C55.4230643,94.0540618 56.2296823,93.3258242 56.9010205,93.3258242 C56.9010205,93.3258242 54.7519208,91.2621942 55.2893417,89.805719 C55.2893417,89.805719 52.8712396,86.6502162 53.8115802,83.4949068 C53.8115802,83.4949068 50.094208,81.1896915 49.9157165,76.9821609 C49.9157165,76.9821609 51.5272007,75.688161 50.8110936,74.8790726 C50.8110936,74.8790726 45.6169332,70.509647 47.5871521,66.4638181 C47.5871521,66.4638181 41.8545975,60.3149009 47.0489526,54.9750722 C47.0489526,54.9750722 45.4374685,54.6518623 43.8250111,52.2245971 C43.8250111,52.2245971 45.2580037,52.5480003 48.3032591,53.0338789 C48.3032591,53.0338789 43.4670549,50.2824367 42.3920184,46.3990831 C42.3920184,46.3990831 47.5871521,51.0915251 49.378101,51.4155087 C49.378101,51.4155087 48.8408747,45.7516964 52.0648162,44.2954146 C52.0648162,44.2954146 54.0646215,45.2296477 55.7126993,45.0310023 C55.1632103,45.1528587 54.7519208,45.1859341 54.7519208,45.1859341 C53.139658,47.2888289 55.0203393,48.7454976 55.0203393,48.7454976 L52.333624,49.4735417 L53.9453028,51.3348513 L52.1543539,50.9300169 L53.2291957,52.6288512 L50.0046703,51.9812709 L52.333624,53.518597 C50.2736727,56.6739064 51.7963977,59.1019453 51.7963977,59.1019453 C49.8259842,59.2634535 47.8555706,58.3737077 47.8555706,58.3737077 C48.7511423,59.6682878 51.1690498,60.2342435 51.1690498,60.2342435 C50.1839404,60.8814369 47.138685,60.5582271 47.138685,60.5582271 C48.4827238,61.3665418 50.6318236,61.5290171 50.6318236,61.5290171 C50.3634051,62.6613154 51.616933,64.3609233 51.616933,64.3609233 C50.5426751,65.5740723 48.4827238,65.5740723 48.4827238,65.5740723 C48.7511423,66.7872214 50.094208,67.515459 50.094208,67.515459 C49.7362518,67.9202933 48.9304124,68.163426 48.9304124,68.163426 C50.0046703,70.1050061 52.423551,70.7521995 52.423551,70.7521995 C51.616933,71.3187355 50.0046703,71.1572273 50.0046703,71.1572273 C51.9748892,72.3703763 53.677079,72.0469731 53.677079,72.0469731 C53.2291957,72.3703763 52.0648162,72.7752107 52.0648162,72.7752107 C53.5873466,73.2661182 54.7388794,73.1595422 55.4154731,73.0011287 C55.8808745,73.5138931 56.3863733,73.7860393 56.3863733,73.7860393 C57.4612151,76.6986028 60.4167381,76.4564372 60.4167381,76.4564372 C57.8639402,75.242321 57.7296336,73.0585754 57.7296336,73.0585754 C55.7142565,71.9661222 56.5208745,69.6599398 56.5208745,69.6599398 C55.7142565,69.7816029 52.7595121,68.6891498 52.7595121,68.6891498 C54.7739159,68.6891498 56.1179548,67.8396359 56.1179548,67.8396359 C53.6990741,68.0827687 52.0873953,66.8688459 52.0873953,66.8688459 C53.6990741,66.8688459 55.8487577,66.0189452 55.8487577,66.0189452 C52.3558138,61.7713761 56.1179548,59.4659674 56.1179548,59.4659674 C54.6401933,56.1889949 57.7296336,55.0965418 57.7296336,55.0965418 C59.744816,53.2762379 57.4612151,51.4555472 57.4612151,51.4555472 L60.1475411,51.0915251 C59.0726993,50.363481 58.4015557,48.6644533 58.9389766,48.9070058 C59.4763975,49.1501385 60.8196578,49.5141606 60.8196578,49.5141606 L60.1475411,47.8147461 L62.1629182,47.4513043 L60.5504608,44.5385473 L60.4167381,46.2373815 C57.5988307,43.7983175 58.8850594,42.1938737 59.7021883,41.0176684 C60.8646213,42.3956139 61.8946943,42.3530608 61.8946943,42.3530608 C60.4167381,41.3830445 61.7599985,40.2909782 61.7599985,40.2909782 C64.7155215,42.4754976 64.4465191,40.7756962 64.4465191,40.7756962 C60.9541591,38.5911769 63.23776,37.2563647 63.23776,37.2563647 C64.8502174,38.5911769 65.6558621,37.7422433 65.6558621,37.7422433 C63.7751809,36.042442 63.7751809,33.8579226 63.7751809,33.8579226 C65.1186358,35.7998895 67.2681248,36.5283206 67.2681248,36.5283206 C70.2238425,33.0086022 75.8658862,28.7610331 75.8658862,28.7610331 C74.7910444,27.0621989 77.8810686,27.7904365 77.8810686,27.7904365 C82.9864699,25.120232 83.2548884,16.7767181 83.9268106,15.9270302 L83.2548884,14.5922567 L85.1355696,14.349124 L84.8671512,12.4078534 L85.941409,13.3788949 L85.6729906,11.1943562 C87.0168348,12.7717401 88.4940124,13.6215827 88.4940124,13.6215827 C88.3600951,12.528588 89.7033554,11.6792676 89.7033554,11.6792676 C88.4940124,9.61660476 89.0320172,8.40248858 89.0320172,8.40248858 C89.7033554,11.8011435 90.5091948,9.98062685 90.5091948,9.98062685 C89.7033554,9.25242793 88.8977107,7.18935886 88.8977107,7.18935886 C89.8380513,8.40248858 91.5840366,9.00906311 91.5840366,9.00906311 C94.4050585,5.85390844 98.0326983,6.70346094 100.316494,6.70346094 C102.600095,6.70346094 106.227735,5.85390844 109.048562,9.00906311 C109.048562,9.00906311 110.79552,8.40248858 111.735861,7.18935886 C111.735861,7.18935886 110.929438,9.25242793 110.123404,9.98062685 C110.123404,9.98062685 110.929438,11.8011435 111.602138,8.40248858 C111.602138,8.40248858 112.138781,9.61660476 110.929438,11.6792676 C110.929438,11.6792676 112.273282,12.528588 112.138781,13.6215827 C112.138781,13.6215827 113.616542,12.7717401 114.960386,11.1943562 L114.691579,13.3788949 L115.766226,12.4078534 L115.497223,14.349124 L117.37771,14.5922567 L116.706761,15.9270302 C117.37771,16.7767181 117.647102,25.120232 122.752503,27.7904365 C122.752503,27.7904365 125.841749,27.0621989 124.766907,28.7610331 C124.766907,28.7610331 130.409729,33.0086022 133.365057,36.5283206 C133.365057,36.5283206 135.514157,35.7998895 136.858196,33.8579226 C136.858196,33.8579226 136.858196,36.042442 134.97771,37.7422433 C134.97771,37.7422433 135.783549,38.5911769 137.394838,37.2563647 C137.394838,37.2563647 139.679218,38.5911769 136.186274,40.7756962 C136.186274,40.7756962 135.917077,42.4754976 138.8726,40.2909782 C138.8726,40.2909782 140.216639,41.3830445 138.739072,42.3530608 C138.739072,42.3530608 139.768366,42.3956139 140.931189,41.0176684 C141.748707,42.1938737 143.033962,43.7983175 140.216639,46.2373815 L140.081943,44.5385473 L138.469875,47.4513043 L140.485836,47.8147461 L139.813719,49.5141606 C139.813719,49.5141606 141.156979,49.1501385 141.694595,48.9070058 C142.231821,48.6644533 141.560094,50.363481 140.485836,51.0915251 L143.172357,51.4555472 C143.172357,51.4555472 140.88895,53.2762379 142.903159,55.0965418 C142.903159,55.0965418 145.993184,56.1889949 144.515422,59.4659674 C144.515422,59.4659674 148.277563,61.7713761 144.783841,66.0189452 C144.783841,66.0189452 146.933524,66.8688459 148.545787,66.8688459 C148.545787,66.8688459 146.933524,68.0827687 144.515422,67.8396359 C144.515422,67.8396359 145.858877,68.6891498 147.874838,68.6891498 C147.874838,68.6891498 144.918537,69.7816029 144.112697,69.6599398 C144.112697,69.6599398 144.918537,71.9661222 142.903159,73.0585754 C142.903159,73.0585754 142.769437,75.242321 140.216639,76.4564372 C140.216639,76.4564372 143.172357,76.6986028 144.246614,73.7860393 C144.246614,73.7860393 144.749583,73.5156339 145.214206,73.0049972 C145.893135,73.1610895 147.036493,73.2626366 148.545787,72.7752107 C148.545787,72.7752107 147.382186,72.3703763 146.933524,72.0469731 C146.933524,72.0469731 148.635714,72.3703763 150.605933,71.1572273 C150.605933,71.1572273 148.99367,71.3187355 148.188025,70.7521995 C148.188025,70.7521995 150.605933,70.1050061 151.680386,68.163426 C151.680386,68.163426 150.874546,67.9202933 150.516201,67.515459 C150.516201,67.515459 151.859656,66.7872214 152.128658,65.5740723 C152.128658,65.5740723 150.068901,65.5740723 148.99367,64.3609233 C148.99367,64.3609233 150.248171,62.6613154 149.978974,61.5290171 C149.978974,61.5290171 152.128658,61.3665418 153.471918,60.5582271 C153.471918,60.5582271 150.426858,60.8814369 149.441553,60.2342435 C149.441553,60.2342435 151.859656,59.6682878 152.755033,58.3737077 C152.755033,58.3737077 150.784619,59.2634535 148.8144,59.1019453 C148.8144,59.1019453 150.337709,56.6739064 148.277563,53.518597 L150.605933,51.9812709 L147.382186,52.6288512 L148.456055,50.9300169 L146.6653,51.3348513 L148.277563,49.4735417 L145.590264,48.7454976 C145.590264,48.7454976 147.47114,47.2888289 145.858877,45.1859341 C145.858877,45.1859341 145.447393,45.1528587 144.897904,45.0310023 C146.545787,45.2296477 148.545787,44.2954146 148.545787,44.2954146 C151.769923,45.7516964 151.233281,51.4155087 151.233281,51.4155087 C153.024035,51.0915251 158.218779,46.3990831 158.218779,46.3990831 C157.144327,50.2824367 152.308317,53.0338789 152.308317,53.0338789 C155.352794,52.5480003 156.785592,52.2245971 156.785592,52.2245971 C155.173913,54.6518623 153.560872,54.9750722 153.560872,54.9750722 C158.756006,60.3149009 153.024035,66.4638181 153.024035,66.4638181 C154.994449,70.509647 149.79951,74.8790726 149.79951,74.8790726 C149.083403,75.688161 150.694887,76.9821609 150.694887,76.9821609 C150.516201,81.1896915 146.799996,83.4949068 146.799996,83.4949068 C147.739364,86.6502162 145.321262,89.805719 145.321262,89.805719 C145.858877,91.2621942 143.709777,93.3258242 143.709777,93.3258242 C144.380921,93.3258242 145.187539,94.0540618 145.187539,94.0540618 C143.575082,96.8451557 141.425203,97.8159458 141.425203,97.8159458 C142.769437,97.8159458 143.8435,97.6944761 143.8435,97.6944761 C143.440775,98.7867358 140.88895,100.486344 140.88895,100.486344 C141.022478,101.821156 140.619559,103.398327 140.619559,103.398327 C139.813719,109.102371 129.603111,108.616493 129.603111,108.616493 C120.199705,107.64667 119.393866,102.913416 119.393866,102.913416 C118.990167,103.277438 118.855666,104.490587 118.855666,104.490587 C117.37771,103.762349 117.109681,102.185178 117.109681,102.185178 C114.825885,102.185178 112.542479,101.213808 112.542479,101.213808 L113.079705,102.306067 C109.586177,101.942045 107.839997,101.274156 107.839997,101.274156 C107.571579,101.759841 108.377418,103.762349 108.377418,103.762349 C105.42209,103.641653 102.735375,100.60704 102.735375,100.60704 C102.735375,101.092725 103.138294,103.034305 103.138294,103.034305 C101.928757,102.791752 100.988416,102.5492 100.316494,101.57783 L100.294304,101.57783 Z" id="path38" fill="#861810"></path>
                        <path d="M113.336834,88.1068848 L114.142479,86.7718793 L115.217515,88.3492438 L116.560776,87.1360948 C116.560776,87.1360948 119.24788,89.2799953 119.6508,86.6502162 C119.6508,86.6502162 123.368172,88.9565921 124.6217,85.6796196 L125.831043,86.8929621 L128.786761,86.7718793 L127.039802,88.3492438 L125.428318,87.9852218 C125.428318,87.9852218 124.353087,88.3492438 125.831043,89.4415035 L124.756201,92.3544539 L122.741019,91.0196418 L123.009437,92.9618021 C123.009437,92.9618021 121.531481,92.1119015 120.188221,92.2335645 C120.188221,92.2335645 120.725836,92.9618021 121.263257,94.4182773 C121.263257,94.4182773 119.6508,93.3258242 118.038537,93.4467136 C118.038537,93.4467136 119.24788,94.4182773 118.978878,96.2378075 C118.978878,96.2378075 118.038537,95.3881003 115.083598,94.9031888 C115.083598,94.9031888 115.352017,95.7523158 115.217515,96.7236861 C115.217515,96.7236861 114.277175,95.9954485 111.859073,95.0238848 L109.978391,97.0877082 L107.425593,95.6314264 L105.678829,96.6027967 L102.857808,94.6598627 L102.186664,95.7523158 L100.310849,94.2995156 L98.435618,95.7523158 L97.7635012,94.6598627 L94.943258,96.6027967 L93.196494,95.6314264 L90.6438907,97.0877082 L88.7630148,95.0238848 C86.3449127,95.9954485 85.4045721,96.7236861 85.4045721,96.7236861 C85.2700709,95.7523158 85.5384893,94.9031888 85.5384893,94.9031888 C82.5827717,95.3881003 81.6432096,96.2378075 81.6432096,96.2378075 C81.3742072,94.4182773 82.5827717,93.4467136 82.5827717,93.4467136 C80.9712875,93.3258242 79.3588301,94.4182773 79.3588301,94.4182773 C79.8964457,92.9618021 80.4338666,92.2335645 80.4338666,92.2335645 C79.0896331,92.1119015 77.6118715,92.9618021 77.6118715,92.9618021 L77.8810686,91.0196418 L75.8658862,92.3544539 L74.7910444,89.4415035 C76.2688059,88.3492438 75.1939641,87.9852218 75.1939641,87.9852218 L73.5822853,88.3492438 L71.8362999,86.7718793 L74.7910444,86.8929621 L76.0003874,85.6796196 C77.2539153,88.9565921 80.9712875,86.6502162 80.9712875,86.6502162 C81.3742072,89.2799953 84.0605332,87.1360948 84.0605332,87.1360948 L85.4045721,88.3492438 L86.4794139,86.7718793 L87.2852533,88.1068848 C87.9571754,87.3786472 90.1062751,85.922172 90.1062751,85.922172 L89.8380513,87.5003103 L91.0468104,87.3786472 C91.9869563,86.0438351 93.5994137,85.1939344 93.5994137,85.1939344 L93.7339149,87.8643324 C94.8079782,86.1647245 96.9578565,84.9515754 96.9578565,84.9515754 C99.2414574,83.2527412 98.0326983,80.825476 98.0326983,80.825476 C98.0326983,80.825476 98.435618,79.6115532 98.8385377,80.3397908 C99.2414574,81.0680284 99.1077347,81.5537135 99.1077347,81.5537135 C99.1077347,81.5537135 99.5073454,80.3512028 100.305594,79.0231604 L100.305594,79.0051721 C100.306956,79.0080734 100.308513,79.0109748 100.310849,79.0140695 C100.313185,79.0109748 100.314937,79.0080734 100.316494,79.0051721 L100.316494,79.0231604 C101.114742,80.3512028 101.514353,81.5537135 101.514353,81.5537135 C101.514353,81.5537135 101.380046,81.0680284 101.782771,80.3397908 C102.186664,79.6115532 102.589389,80.825476 102.589389,80.825476 C102.589389,80.825476 101.380046,83.2527412 103.664231,84.9515754 C103.664231,84.9515754 105.813915,86.1647245 106.888367,87.8643324 L107.022674,85.1939344 C107.022674,85.1939344 108.634353,86.0438351 109.575277,87.3786472 L110.784231,87.5003103 L110.515812,85.922172 C110.515812,85.922172 112.664912,87.3786472 113.336834,88.1068848" id="path40" fill="#4D180C"></path>
                        <path d="M86.4794139,35.7998895 C86.4794139,35.7998895 87.2852533,44.1735581 86.6133312,47.8147461 C86.6133312,47.8147461 86.8702655,50.8325317 87.1110441,53.655347 C86.8101195,52.664441 86.3449127,51.8197627 86.3449127,51.8197627 C85.5384893,50.9708292 83.2548884,50.2425916 83.2548884,50.2425916 C83.6578081,51.2131882 83.5238909,52.5480003 83.5238909,52.5480003 C82.8517741,52.427111 81.1050101,52.9120224 81.1050101,52.9120224 C82.9864699,53.518597 84.3297303,54.9750722 84.3297303,54.9750722 C83.3893896,54.6118238 81.9116281,54.8536025 81.9116281,54.8536025 C82.449049,54.8536025 83.5238909,56.4313539 83.5238909,56.4313539 L82.449049,56.0673318 L82.9864699,57.281448 C82.5827717,57.402144 81.9116281,58.3737077 81.9116281,58.3737077 C80.7022851,57.8876357 80.1654481,57.7661661 80.1654481,57.7661661 C79.7625284,58.3737077 77.8810686,58.4944037 77.8810686,58.4944037 C78.9559104,59.3444977 79.2243289,59.4659674 79.2243289,59.4659674 C78.8214092,60.436564 78.0155698,59.9506854 78.0155698,59.9506854 C77.8810686,60.5582271 78.9559104,61.6502933 78.9559104,61.6502933 C78.9559104,61.6502933 77.2091465,60.5582271 74.9255456,61.1648016 L72.9103631,62.3785309 C72.9103631,62.3785309 75.0600468,63.2278513 75.1939641,64.1990282 C75.1939641,64.1990282 71.1641831,63.5512546 69.6414581,63.5512546 C69.6414581,63.5512546 70.7164946,64.6032823 70.8957647,64.9266855 C70.8957647,64.9266855 68.0291954,64.1175971 67.0440859,64.1175971 L66.2382465,65.735774 L64.8949862,65.1690446 L64.0435994,66.9903155 C64.0435994,66.9903155 62.5658379,64.8050225 63.9098767,63.470984 C63.9098767,63.470984 62.4319206,62.6203097 64.0435994,59.8299895 L63.23776,59.1019453 L63.7751809,58.2518512 C63.7751809,58.2518512 65.5213609,58.6162601 67.1338183,57.7661661 C67.1338183,57.7661661 62.8348403,57.6452767 62.7003391,55.5818401 C62.7003391,55.5818401 64.5810203,55.8249728 65.2529424,55.3392877 C65.2529424,55.3392877 63.23776,53.7619231 63.23776,52.9120224 C63.23776,52.0630889 65.2529424,52.427111 63.23776,50.8489727 L62.9687575,48.7454976 C62.9687575,49.2311827 63.9098767,49.5141606 63.9098767,49.5141606 C63.9098767,49.5141606 64.8502174,49.5141606 65.5213609,50.4849506 C66.193283,51.4555472 65.6558621,47.9362157 65.6558621,47.9362157 L68.0741589,46.843956 L68.2086601,44.5385473 C68.2086601,44.5385473 69.2827233,41.74726 72.6419447,39.9267627 L73.0448644,38.1062654 L74.3881247,39.1985251 C74.3881247,39.1985251 77.0754239,36.8923426 76.4033071,35.3142044 L79.4933313,36.4066575 L79.3588301,34.2221381 L80.9712875,34.5861602 L80.8365917,33.0086022 C80.8365917,33.0086022 81.7771269,32.4016408 82.7172729,32.5240776 C82.7172729,32.5240776 81.9116281,29.4894641 88.3600951,25.241895 C88.3600951,25.241895 85.1355696,27.6689669 86.4794139,35.7998895" id="path42" fill="#4D180C"></path>
                        <path d="M137.361554,52.9120224 C137.361554,53.7619231 135.346177,55.3392877 135.346177,55.3392877 C136.018293,55.8249728 137.899559,55.5818401 137.899559,55.5818401 C137.764473,57.6452767 133.46569,57.7661661 133.46569,57.7661661 C135.077953,58.6162601 136.824133,58.2518512 136.824133,58.2518512 L137.361554,59.1019453 L136.555909,59.8299895 C138.168172,62.6203097 136.690216,63.470984 136.690216,63.470984 C138.033476,64.8050225 136.555909,66.9903155 136.555909,66.9903155 L135.705106,65.1690446 L134.361651,65.735774 L133.555228,64.1175971 C132.570118,64.1175971 129.704328,64.9266855 129.704328,64.9266855 C129.883598,64.6032823 130.957856,63.5512546 130.957856,63.5512546 C129.435909,63.5512546 125.405544,64.1990282 125.405544,64.1990282 C125.539267,63.2278513 127.689145,62.3785309 127.689145,62.3785309 L125.674352,61.1648016 C123.656834,60.6292133 122.063647,61.4164449 121.718537,61.6075469 C121.905593,61.4092883 122.737126,60.4909159 122.617807,59.9506854 C122.617807,59.9506854 121.811384,60.436564 121.408269,59.4659674 C121.408269,59.4659674 121.677467,59.3444977 122.752503,58.4944037 C122.752503,58.4944037 120.871822,58.3737077 120.468707,57.7661661 C120.468707,57.7661661 119.930508,57.8876357 118.721944,58.3737077 C118.721944,58.3737077 118.050021,57.402144 117.647102,57.281448 L118.184328,56.0673318 L117.109681,56.4313539 C117.109681,56.4313539 118.184328,54.8536025 118.721944,54.8536025 C118.721944,54.8536025 117.244182,54.6118238 116.303841,54.9750722 C116.303841,54.9750722 117.647102,53.518597 119.527588,52.9120224 C119.527588,52.9120224 117.781603,52.427111 117.109681,52.5480003 C117.109681,52.5480003 116.974985,51.2131882 117.37771,50.2425916 C117.37771,50.2425916 115.094498,50.9708292 114.288659,51.8197627 C114.288659,51.8197627 113.771676,52.7549629 113.475228,53.8118262 C113.7199,50.9451039 113.985983,47.8147461 113.985983,47.8147461 C113.31406,44.1735581 114.120678,35.7998895 114.120678,35.7998895 C115.463744,27.6689669 112.239024,25.241895 112.239024,25.241895 C118.687686,29.4894641 117.881846,32.5240776 117.881846,32.5240776 C118.822381,32.4016408 119.762333,33.0086022 119.762333,33.0086022 L119.628221,34.5861602 L121.241262,34.2221381 L121.105788,36.4066575 L124.196785,35.3142044 C123.524668,36.8923426 126.211189,39.1985251 126.211189,39.1985251 L127.555228,38.1062654 L127.958148,39.9267627 C131.31659,41.74726 132.391238,44.5385473 132.391238,44.5385473 L132.525349,46.843956 L134.943257,47.9362157 C134.943257,47.9362157 134.406031,51.4555472 135.077953,50.4849506 C135.75007,49.5141606 137.843306,49.190177 137.843306,49.190177 C137.843306,49.190177 138.336152,48.9886303 138.783646,48.4219009 L138.694108,49.9592269 C134.664522,51.8197627 137.361554,52.0630889 137.361554,52.9120224" id="path44" fill="#4D180C"></path>
                        <path d="M152.755033,58.3737077 C151.859656,59.6682878 149.441553,60.2342435 149.441553,60.2342435 C150.426858,60.8814369 153.471918,60.5582271 153.471918,60.5582271 C152.128658,61.3665418 149.978974,61.5290171 149.978974,61.5290171 C150.248171,62.6613154 148.99367,64.3609233 148.99367,64.3609233 C150.068901,65.5740723 152.128658,65.5740723 152.128658,65.5740723 C151.859656,66.7872214 150.516201,67.515459 150.516201,67.515459 C150.874546,67.9202933 151.680386,68.163426 151.680386,68.163426 C150.605933,70.1050061 148.188025,70.7521995 148.188025,70.7521995 C148.99367,71.3187355 150.605933,71.1572273 150.605933,71.1572273 C148.635714,72.3703763 146.933524,72.0469731 146.933524,72.0469731 C147.382186,72.3703763 148.545787,72.7752107 148.545787,72.7752107 C147.036493,73.2626366 145.893135,73.1610895 145.214206,73.0049972 C145.739169,72.4291769 146.215276,71.5469746 145.858877,70.3881774 C145.858877,70.3881774 148.949096,69.9026857 150.291967,68.3251277 C150.291967,68.3251277 149.486128,68.3251277 148.680483,67.9609122 C148.680483,67.9609122 150.291967,66.9903155 150.561359,66.1406083 C150.561359,66.1406083 148.008755,66.1406083 146.933524,65.0483486 C146.933524,65.0483486 149.621018,61.7713761 146.530799,58.9802822 C146.530799,58.9802822 147.874838,55.9456688 144.380921,54.1261386 C144.380921,54.1261386 142.769437,52.7913265 145.455957,50.8489727 L142.903159,49.9992655 C142.903159,49.9992655 143.978196,48.6644533 143.440775,47.2081716 L141.560094,47.4513043 C141.560094,47.4513043 142.948902,46.4147504 143.563792,44.589611 C143.705884,44.6571156 143.850313,44.7166899 143.995325,44.7696878 C144.309485,44.8843876 144.621116,44.9691069 144.897904,45.0310023 C145.447393,45.1528587 145.858877,45.1859341 145.858877,45.1859341 C147.47114,47.2888289 145.590264,48.7454976 145.590264,48.7454976 L148.277563,49.4735417 L146.6653,51.3348513 L148.456055,50.9300169 L147.382186,52.6288512 L150.605933,51.9812709 L148.277563,53.518597 C150.337709,56.6739064 148.8144,59.1019453 148.8144,59.1019453 C150.784619,59.2634535 152.755033,58.3737077 152.755033,58.3737077" id="path46" fill="#4D180C"></path>
                        <path d="M57.7296336,49.9992655 L55.1768356,50.8489727 C57.8639402,52.7913265 56.2518721,54.1261386 56.2518721,54.1261386 C52.7595121,55.9456688 54.1027724,58.9802822 54.1027724,58.9802822 C51.0125535,61.7713761 53.6990741,65.0483486 53.6990741,65.0483486 C52.6248162,66.1406083 50.0722129,66.1406083 50.0722129,66.1406083 C50.3406313,66.9903155 51.9528941,67.9609122 51.9528941,67.9609122 C51.1472493,68.3251277 50.3406313,68.3251277 50.3406313,68.3251277 C51.6844756,69.9026857 54.7739159,70.3881774 54.7739159,70.3881774 C54.4188794,71.5448469 54.8916775,72.4255019 55.4154731,73.0011287 C54.7388794,73.1595422 53.5873466,73.2661182 52.0648162,72.7752107 C52.0648162,72.7752107 53.2291957,72.3703763 53.677079,72.0469731 C53.677079,72.0469731 51.9748892,72.3703763 50.0046703,71.1572273 C50.0046703,71.1572273 51.616933,71.3187355 52.423551,70.7521995 C52.423551,70.7521995 50.0046703,70.1050061 48.9304124,68.163426 C48.9304124,68.163426 49.7362518,67.9202933 50.094208,67.515459 C50.094208,67.515459 48.7511423,66.7872214 48.4827238,65.5740723 C48.4827238,65.5740723 50.5426751,65.5740723 51.616933,64.3609233 C51.616933,64.3609233 50.3634051,62.6613154 50.6318236,61.5290171 C50.6318236,61.5290171 48.4827238,61.3665418 47.138685,60.5582271 C47.138685,60.5582271 50.1839404,60.8814369 51.1690498,60.2342435 C51.1690498,60.2342435 48.7511423,59.6682878 47.8555706,58.3737077 C47.8555706,58.3737077 49.8259842,59.2634535 51.7963977,59.1019453 C51.7963977,59.1019453 50.2736727,56.6739064 52.333624,53.518597 L50.0046703,51.9812709 L53.2291957,52.6288512 L52.1543539,50.9300169 L53.9453028,51.3348513 L52.333624,49.4735417 L55.0203393,48.7454976 C55.0203393,48.7454976 53.139658,47.2888289 54.7519208,45.1859341 C54.7519208,45.1859341 55.1632103,45.1528587 55.7126993,45.0310023 C55.9894877,44.9691069 56.3018964,44.8843876 56.6150837,44.7696878 C56.7671032,44.7145622 56.9175655,44.6511195 57.0658867,44.5809069 C57.6794146,46.4110754 59.0726993,47.4513043 59.0726993,47.4513043 L57.192018,47.2081716 C56.6545971,48.6644533 57.7296336,49.9992655 57.7296336,49.9992655" id="path48" fill="#4D180C"></path>
                        <path d="M104.178878,36.4066575 C104.178878,36.4066575 101.760776,36.042442 100.28282,36.042442 L100.28282,36.0434091 C98.801944,36.0486315 96.4210195,36.4066575 96.4210195,36.4066575 C94.226567,36.770873 93.3749855,35.3552101 93.3749855,35.3552101 C93.3302166,37.6203868 95.3461777,37.3780278 95.3461777,37.3780278 C96.2820414,37.1354754 97.3545474,36.8252249 100.28282,36.8227104 L100.28282,36.8219367 C103.238538,36.8219367 104.313379,37.1347017 105.253915,37.3780278 C105.253915,37.3780278 107.269097,37.6203868 107.224134,35.3552101 C107.224134,35.3552101 106.373525,36.770873 104.178878,36.4066575 Z M105.746567,38.1861491 C105.746567,38.1861491 103.641652,37.3780278 100.28282,37.3878924 L100.28282,37.3886661 C96.9440365,37.3840239 94.8529417,38.1861491 94.8529417,38.1861491 C91.1363481,37.2964033 92.7935743,31.6732098 92.7935743,31.6732098 C92.8377592,35.7590773 97.4950827,34.7078233 97.4950827,34.7078233 C98.1588297,34.3482499 99.3477347,34.2250395 100.28282,34.2229118 L100.28282,34.2221381 C101.22316,34.2221381 102.43192,34.3436078 103.104036,34.7078233 C103.104036,34.7078233 107.761554,35.7590773 107.806713,31.6732098 C107.806713,31.6732098 109.462771,37.2964033 105.746567,38.1861491 Z" id="path50" fill="#4D180C"></path>
                        <path d="M143.03805,80.0974318 C143.03805,80.0974318 141.425203,82.8885257 140.081943,83.6167633 L139.141992,85.4364869 C139.141992,85.4364869 140.485836,86.6502162 141.291675,86.8929621 L140.619559,85.3155975 L143.172357,83.3742108 L142.097515,82.7668626 L143.306079,81.0680284 L143.03805,80.0974318 Z M138.336152,87.2569842 C138.336152,87.2569842 136.858196,86.6502162 135.648853,87.8643324 C135.648853,87.8643324 135.380629,88.2283545 133.499948,88.5923766 C133.499948,88.5923766 135.917077,89.6848297 136.992113,89.805719 L135.582089,90.6554263 C136.791432,91.0196418 137.530118,92.2335645 138.336152,94.4182773 L139.679218,95.0238848 C139.679218,95.0238848 140.88895,93.5683767 142.634741,93.6900397 L140.081943,92.476117 L140.88895,91.2621942 L139.544717,90.2914042 C139.544717,90.2914042 141.425203,89.3208076 141.560094,88.5923766 C141.560094,88.5923766 139.544717,88.4709069 138.336152,87.2569842 Z M137.664035,68.3251277 L135.111237,67.9609122 C134.036396,66.1406083 133.230751,65.7765862 130.946955,65.8972822 L132.29041,66.6253263 L131.35007,67.8396359 L132.694109,67.7185531 L132.424912,68.9317022 L135.514157,68.8110063 C135.514157,69.6599398 133.096834,70.3881774 133.096834,70.3881774 L133.096834,71.4804371 C130.678148,69.4173874 128.260824,71.116415 128.260824,71.116415 C127.454011,71.8446526 127.051092,72.4510337 124.498294,72.4510337 C125.169827,73.4227909 125.573525,75.4856472 125.573525,75.4856472 L126.379364,74.6357465 L126.513865,75.9705586 L127.991627,75.8498627 L127.991627,74.5148571 C130.275228,74.5148571 130.275228,75.8498627 130.275228,75.8498627 C131.887296,75.3639841 133.096834,77.7910559 132.827831,76.0922217 C132.558634,74.3933875 130.409729,74.150835 130.409729,74.150835 L128.797077,73.1792713 L131.484571,73.3009344 L130.409729,72.3303378 L133.230751,72.4510337 L134.036396,73.0585754 L134.440289,72.2084813 L136.052551,73.6645696 L137.933233,73.5434868 L135.783549,71.2380781 L138.067539,71.2380781 L136.455276,69.7816029 L137.664035,68.3251277 Z M122.349583,96.2378075 C120.468707,97.4519237 120.602625,98.5441834 120.871822,100.486344 C120.871822,100.486344 121.677467,99.3938906 123.020727,98.6658464 C123.020727,98.6658464 123.82715,101.699493 125.169827,102.791752 C125.169827,102.791752 125.438829,101.821156 125.97625,101.092725 C125.97625,101.092725 127.454011,103.641653 130.543452,104.490587 C130.543452,104.490587 130.543452,103.51999 130.812454,102.913416 C130.812454,102.913416 133.230751,103.762349 133.633671,104.248034 C133.633671,104.248034 133.768172,102.185178 136.320775,101.942045 C136.320775,101.942045 135.917077,100.486344 135.380629,100.122128 C135.380629,100.122128 136.992113,99.6364431 138.201456,100.728703 C138.201456,100.728703 139.410994,95.7523158 135.380629,93.2041612 L134.57479,95.1463215 L131.887296,92.2335645 C131.887296,92.2335645 132.155714,90.7765091 134.172065,90.5339566 C134.172065,90.5339566 131.215568,89.0774814 127.72243,92.718476 L127.319705,94.6598627 L125.97625,93.9316251 L125.707247,96.1163379 L123.961262,95.2672109 L122.349583,96.2378075 Z M122.633768,96.0542491 C122.761651,95.9718509 122.858975,95.9093753 122.937807,95.8579247 C122.842235,95.9198201 122.732649,95.9900326 122.633768,96.0542491 Z M119.527588,64.320111 C119.527588,64.320111 116.572065,65.6551166 114.557661,64.8050225 C114.557661,64.8050225 112.407004,65.2909011 112.542479,64.0767849 L113.482625,63.8350061 C113.482625,63.8350061 112.407004,62.6203097 111.602138,62.0145088 C111.602138,62.0145088 113.348124,62.9845252 115.094498,62.8638292 L114.42316,62.1355916 C114.42316,62.1355916 115.631725,62.4996137 116.169146,62.1355916 C116.169146,62.1355916 117.781603,61.7713761 118.319024,62.0145088 L118.721944,61.4075475 C118.721944,61.4075475 119.662284,62.2562876 119.393866,63.2278513 C119.393866,63.2278513 119.930508,62.2562876 121.677467,61.6502933 C121.677467,61.6502933 121.694985,61.632305 121.718537,61.6075469 C121.905593,61.4092883 122.737126,60.4909159 122.617807,59.9506854 C122.617807,59.9506854 121.811384,60.436564 121.408269,59.4659674 C121.408269,59.4659674 121.677467,59.3444977 122.752503,58.4944037 C122.752503,58.4944037 120.871822,58.3737077 120.468707,57.7661661 C120.468707,57.7661661 119.930508,57.8876357 118.721944,58.3737077 C118.721944,58.3737077 118.050021,57.402144 117.647102,57.281448 L118.184328,56.0673318 L117.109681,56.4313539 C117.109681,56.4313539 118.184328,54.8536025 118.721944,54.8536025 C118.721944,54.8536025 117.244182,54.6118238 116.303841,54.9750722 C116.303841,54.9750722 117.647102,53.518597 119.527588,52.9120224 C119.527588,52.9120224 117.781603,52.427111 117.109681,52.5480003 C117.109681,52.5480003 116.974985,51.2131882 117.37771,50.2425916 C117.37771,50.2425916 115.094498,50.9708292 114.288659,51.8197627 C114.288659,51.8197627 113.771676,52.7549629 113.475228,53.8118262 C113.306275,54.4131783 113.213622,55.0512808 113.324571,55.5824204 C113.320873,55.6218787 113.317175,55.6638515 113.31406,55.7031163 L113.342868,55.7168494 C113.294401,55.859789 112.586469,57.7661661 110.257905,57.7661661 C110.257905,57.7661661 108.511141,56.5532104 106.764961,58.0094922 C106.764961,58.0094922 107.571579,59.1019453 106.227735,59.9506854 C106.227735,59.9506854 104.884474,60.9222492 106.764961,61.1648016 C108.377418,61.285691 109.988902,61.6502933 111.735861,63.8350061 C111.735861,63.8350061 113.885545,67.5970835 115.363501,67.5970835 C116.841457,67.5970835 115.900338,66.7471828 117.244182,67.1113983 C117.244182,67.1113983 117.244182,66.3831607 116.438343,66.1406083 C116.438343,66.1406083 116.572065,65.4123707 118.855666,66.0189452 C118.855666,66.0189452 121.408269,66.2613043 122.617807,65.4123707 C122.617807,65.4123707 124.095569,63.8350061 123.961262,63.2278513 C123.961262,63.2278513 121.005544,64.6841331 119.527588,64.320111 Z M108.781895,21.9368762 C108.863842,21.2593154 108.867735,20.4223741 108.840289,19.6351425 C109.218294,19.5152203 109.697126,19.1600569 109.830849,18.1393831 C109.828318,18.1517622 109.829486,18.163561 109.827151,18.1765397 L109.836104,18.1183 C109.835326,18.1275843 109.831433,18.131298 109.830849,18.1393831 C109.879511,17.8533298 109.904425,17.5686305 109.904425,17.2906623 C109.904425,16.3024642 109.631725,15.3929893 109.337418,14.6910765 C109.56243,12.3011032 108.657126,10.182367 108.657126,10.182367 C106.686907,7.02767658 103.73119,8.15995548 103.73119,8.15995548 C101.330411,8.48198543 101.928757,8.32376542 100.316494,8.32686019 C100.31007,8.32686019 100.305594,8.32686019 100.29956,8.32686019 C100.293525,8.32686019 100.288854,8.32686019 100.28282,8.32686019 C98.6711411,8.32376542 99.2694866,8.48198543 96.8681241,8.15995548 C96.8681241,8.15995548 93.9126011,7.02767658 91.9421875,10.182367 C91.9421875,10.182367 91.0253992,12.332225 91.2687082,14.7434361 C90.897516,15.6399904 90.5724552,16.8627913 90.7972727,18.1191317 C90.9218469,19.1297669 91.3833554,19.4939437 91.7596084,19.6246977 C91.7315792,20.4150241 91.7354722,21.2562207 91.8176133,21.9368762 C89.5118226,23.3736223 89.0762022,24.7968287 89.0762022,24.7968287 C93.0170293,22.1266242 96.1520171,21.965116 96.1520171,21.965116 C98.0326983,21.8432595 97.4950827,22.8146298 97.4950827,22.8146298 C95.3461777,22.8146298 94.4050585,24.0281657 94.4050585,24.0281657 C97.0923577,23.6639502 95.2116765,26.2126851 95.2116765,26.2126851 C93.4647179,27.4264144 91.5840366,30.4192485 91.5840366,30.4192485 C89.3004357,35.1526962 92.3449125,38.5503646 92.3449125,38.5503646 C93.5544502,40.3710553 95.88282,39.1167072 95.88282,39.1167072 C96.9539635,38.6335365 98.8239391,38.2308298 100.29956,38.2279285 C101.77518,38.2308298 103.645156,38.6335365 104.716494,39.1167072 C104.716494,39.1167072 107.045447,40.3710553 108.254012,38.5503646 C108.254012,38.5503646 111.299462,35.1526962 109.015861,30.4192485 C109.015861,30.4192485 107.134401,27.4264144 105.388221,26.2126851 C105.388221,26.2126851 103.506956,23.6639502 106.194255,24.0281657 C106.194255,24.0281657 105.253915,22.8146298 103.104036,22.8146298 C103.104036,22.8146298 102.566615,21.8432595 104.447491,21.965116 C104.447491,21.965116 107.582284,22.1266242 111.522917,24.7968287 C111.522917,24.7968287 111.087491,23.3736223 108.781895,21.9368762 Z M87.2852533,55.7031163 C87.4510927,55.1058261 87.3202898,54.3458671 87.1110441,53.655347 C86.8101195,52.664441 86.3449127,51.8197627 86.3449127,51.8197627 C85.5384893,50.9708292 83.2548884,50.2425916 83.2548884,50.2425916 C83.6578081,51.2131882 83.5238909,52.5480003 83.5238909,52.5480003 C82.8517741,52.427111 81.1050101,52.9120224 81.1050101,52.9120224 C82.9864699,53.518597 84.3297303,54.9750722 84.3297303,54.9750722 C83.3893896,54.6118238 81.9116281,54.8536025 81.9116281,54.8536025 C82.449049,54.8536025 83.5238909,56.4313539 83.5238909,56.4313539 L82.449049,56.0673318 L82.9864699,57.281448 C82.5827717,57.402144 81.9116281,58.3737077 81.9116281,58.3737077 C80.7022851,57.8876357 80.1654481,57.7661661 80.1654481,57.7661661 C79.7625284,58.3737077 77.8810686,58.4944037 77.8810686,58.4944037 C78.9559104,59.3444977 79.2243289,59.4659674 79.2243289,59.4659674 C78.8214092,60.436564 78.0155698,59.9506854 78.0155698,59.9506854 C77.8810686,60.5582271 78.9559104,61.6502933 78.9559104,61.6502933 C80.7022851,62.2562876 81.2395114,63.2278513 81.2395114,63.2278513 C80.9712875,62.2562876 81.9116281,61.4075475 81.9116281,61.4075475 L82.3143532,62.0145088 C82.8517741,61.7713761 84.4642315,62.1355916 84.4642315,62.1355916 C85.0016524,62.4996137 86.2104115,62.1355916 86.2104115,62.1355916 L85.5384893,62.8638292 C87.2852533,62.9845252 89.0320172,62.0145088 89.0320172,62.0145088 C88.2255939,62.6203097 87.1515307,63.8350061 87.1515307,63.8350061 L88.0910927,64.0767849 C88.2255939,65.2909011 86.0764942,64.8050225 86.0764942,64.8050225 C84.0605332,65.6551166 81.1050101,64.320111 81.1050101,64.320111 C79.6272486,64.6841331 76.6717256,63.2278513 76.6717256,63.2278513 C76.5378083,63.8350061 78.0155698,65.4123707 78.0155698,65.4123707 C79.2243289,66.2613043 81.7771269,66.0189452 81.7771269,66.0189452 C84.0605332,65.4123707 84.195813,66.1406083 84.195813,66.1406083 C83.3893896,66.3831607 83.3893896,67.1113983 83.3893896,67.1113983 C84.7326499,66.7471828 83.7923093,67.5970835 85.2700709,67.5970835 C86.7478324,67.5970835 88.8977107,63.8350061 88.8977107,63.8350061 C90.6438907,61.6502933 92.2559588,61.285691 93.8676376,61.1648016 C95.6145961,60.9222492 94.4050585,59.9506854 94.4050585,59.9506854 C93.0617982,59.1019453 93.8676376,58.0094922 93.8676376,58.0094922 C92.1216522,56.5532104 90.3746936,57.7661661 90.3746936,57.7661661 C87.9571754,57.7661661 87.2852533,55.7031163 87.2852533,55.7031163 Z M72.3735262,71.116415 C72.3735262,71.116415 69.9556187,69.4173874 67.5365433,71.4804371 L67.5365433,70.3881774 C67.5365433,70.3881774 65.1186358,69.6599398 65.1186358,68.8110063 L68.2086601,68.9317022 L67.9402416,67.7185531 L69.2827233,67.8396359 L68.3431613,66.6253263 L69.6864216,65.8972822 C67.4020421,65.7765862 66.5963974,66.1406083 65.5213609,67.9609122 L62.9687575,68.3251277 L64.1781006,69.7816029 L62.5658379,71.2380781 L64.8502174,71.2380781 L62.7003391,73.5434868 L64.5810203,73.6645696 L66.193283,72.2084813 L66.5963974,73.0585754 L67.4020421,72.4510337 L70.2238425,72.3303378 L69.1488061,73.3009344 L71.8362999,73.1792713 L70.2238425,74.150835 C70.2238425,74.150835 68.0741589,74.3933875 67.8049618,76.0922217 C67.5365433,77.7910559 68.746081,75.3639841 70.3577598,75.8498627 C70.3577598,75.8498627 70.3577598,74.5148571 72.6419447,74.5148571 L72.6419447,75.8498627 L74.1197062,75.9705586 L74.2542074,74.6357465 L75.0600468,75.4856472 C75.0600468,75.4856472 75.4631611,73.4227909 76.1348886,72.4510337 C73.5822853,72.4510337 73.1793656,71.8446526 72.3735262,71.116415 Z M59.0726993,88.5923766 C59.2073951,89.3208076 61.0878817,90.2914042 61.0878817,90.2914042 L59.744816,91.2621942 L60.5504608,92.476117 L57.998636,93.6900397 C59.744816,93.5683767 60.9541591,95.0238848 60.9541591,95.0238848 L62.2974194,94.4182773 C63.1032588,92.2335645 63.8421395,91.0196418 65.0516772,90.6554263 L63.6406797,89.805719 C64.7155215,89.6848297 67.1338183,88.5923766 67.1338183,88.5923766 C65.2529424,88.2283545 64.9847186,87.8643324 64.9847186,87.8643324 C63.7751809,86.6502162 62.2974194,87.2569842 62.2974194,87.2569842 C61.0878817,88.4709069 59.0726993,88.5923766 59.0726993,88.5923766 Z M60.5504608,83.6167633 C59.2073951,82.8885257 57.5949377,80.0974318 57.5949377,80.0974318 L57.3265192,81.0680284 L58.5360569,82.7668626 L57.4612151,83.3742108 L60.0132345,85.3155975 L59.3418963,86.8929621 C60.1475411,86.6502162 61.490996,85.4364869 61.490996,85.4364869 L60.5504608,83.6167633 Z M62.4319206,100.728703 C63.6406797,99.6364431 65.2529424,100.122128 65.2529424,100.122128 C64.7155215,100.486344 64.3126018,101.942045 64.3126018,101.942045 C66.8653998,102.185178 66.9991224,104.248034 66.9991224,104.248034 C67.4020421,103.762349 69.8209228,102.913416 69.8209228,102.913416 C70.0893413,103.51999 70.0893413,104.490587 70.0893413,104.490587 C73.1793656,103.641653 74.6571271,101.092725 74.6571271,101.092725 C75.1939641,101.821156 75.4631611,102.791752 75.4631611,102.791752 C76.8062268,101.699493 77.6118715,98.6658464 77.6118715,98.6658464 C78.9559104,99.3938906 79.7625284,100.486344 79.7625284,100.486344 C80.0309469,98.5441834 80.1654481,97.4519237 78.2847669,96.2378075 L76.6717256,95.2672109 L74.9255456,96.1163379 L74.6571271,93.9316251 L73.3132828,94.6598627 L72.9103631,92.718476 C69.4180031,89.0774814 66.4624801,90.5339566 66.4624801,90.5339566 C68.4768839,90.7765091 68.746081,92.2335645 68.746081,92.2335645 L66.0587818,95.1463215 L65.2529424,93.2041612 C61.2225775,95.7523158 62.4319206,100.728703 62.4319206,100.728703 Z" id="path52" fill="#231F20"></path>
                        <path d="M85.7847181,57.7911176 C84.1745964,57.7911176 82.8428203,58.9120039 82.5987327,60.0588089 C82.5728447,59.9448827 82.5539639,59.8278618 82.5555211,59.7083264 C82.5607765,58.8584257 84.0011658,57.4768052 85.7847181,57.4768052 C87.5688543,57.4768052 89.054207,58.9402437 89.0146936,59.7083264 C89.0094382,59.8278618 88.9971754,59.9448827 88.9712873,60.0588089 C88.7266158,58.9120039 87.3956183,57.7911176 85.7847181,57.7911176" id="path54" fill="#FFFFFF"></path>
                        <path d="M118.055861,59.7083264 C118.056834,59.8278618 118.037564,59.9448827 118.011871,60.0588089 C117.767783,58.9120039 116.436785,57.7911176 114.825885,57.7911176 C113.21518,57.7911176 111.883404,58.9120039 111.640095,60.0588089 C111.613428,59.9448827 111.602138,59.8278618 111.59591,59.7083264 C111.556396,58.9402437 113.041749,57.4768052 114.825885,57.4768052 C116.609243,57.4768052 118.050021,58.8584257 118.055861,59.7083264" id="path56" fill="#FFFFFF"></path>
                        <path d="M105.253915,37.3780278 C104.313379,37.1347017 103.238538,36.8219367 100.28282,36.8219367 L100.28282,36.8227104 C97.3545474,36.8252249 96.2820414,37.1354754 95.3461777,37.3780278 C95.3461777,37.3780278 93.3302166,37.6203868 93.3749855,35.3552101 C93.3749855,35.3552101 94.226567,36.770873 96.4210195,36.4066575 C96.4210195,36.4066575 98.801944,36.0486315 100.28282,36.0434091 L100.28282,36.042442 C101.760776,36.042442 104.178878,36.4066575 104.178878,36.4066575 C106.373525,36.770873 107.224134,35.3552101 107.224134,35.3552101 C107.269097,37.6203868 105.253915,37.3780278 105.253915,37.3780278" id="path58" fill="#FFFFFF"></path>
                        <path d="M84.2065186,60.3957518 L84.2962509,60.2742821 C84.2962509,60.2742821 85.3703142,60.7599673 85.7740125,59.9914977 L86.3108494,59.9914977 C86.0424309,60.8007795 84.9675891,61.0839508 84.2065186,60.3957518" id="path60" fill="#D71941"></path>
                        <path d="M114.29917,59.9914977 L114.837564,59.9914977 C115.240289,60.7599673 116.315131,60.2742821 116.315131,60.2742821 L116.404085,60.3957518 C115.643209,61.0839508 114.568172,60.8007795 114.29917,59.9914977" id="path62" fill="#D71941"></path>
                        <path d="M98.0478808,28.6577452 C99.1182457,29.1252486 99.4178077,30.5658631 98.7168832,31.8741763 C98.5177591,32.2459353 98.2577104,32.5660504 97.9641825,32.8242701 C98.0722117,32.6853924 98.1732336,32.5351027 98.2592676,32.3734011 C98.8916764,31.1929405 98.6209221,29.8927511 97.6548881,29.4705087 C96.6886594,29.04904 95.3932823,29.6639317 94.7608735,30.8445857 C94.6125524,31.1211806 94.5152288,31.4041584 94.4636473,31.681527 C94.4515791,31.2024182 94.5716765,30.6815301 94.8406789,30.1797908 C95.5408249,28.8714776 96.9775158,28.1892747 98.0478808,28.6577452" id="path64" fill="#D71941"></path>
                        <path d="M98.3846204,16.8312827 C98.4371752,16.8478977 98.4871995,16.8674721 98.5442311,16.8778976 C98.9298272,16.9498316 99.2710437,16.87577 99.5795596,16.7366795 C99.6541094,16.7608574 99.7294379,16.7863892 99.8123576,16.8227334 C99.9824793,17.3968902 100.144426,17.9448189 100.238051,18.2597309 C100.287297,18.4276221 100.319608,18.5347591 100.319608,18.5347591 C100.319608,18.5347591 100.567199,17.6923825 100.827248,16.8078592 C100.901798,16.7767181 100.971676,16.7511862 101.03844,16.7301031 C101.351628,16.8729073 101.69771,16.9511856 102.089341,16.8778976 C102.143258,16.8682265 102.189584,16.8492517 102.239803,16.8342227 C104.104328,16.9137002 104.716494,19.8053548 104.716494,20.8326243 C103.2181,19.7887204 100.640192,19.985625 100.28282,20.0188937 C100.255375,20.0219885 100.238051,20.0235359 100.238051,20.0235359 L100.238051,20.0123174 C99.6731849,19.9676366 97.2961533,19.8482947 95.88282,20.8326243 C95.88282,19.8005192 96.5002409,16.8848415 98.3846204,16.8312827" id="path66" fill="#D71941"></path>
                        <path d="M102.552017,28.6577452 C103.622576,28.1892747 105.058294,28.8714776 105.759219,30.1797908 C106.028416,30.6815301 106.148513,31.2024182 106.135861,31.681527 C106.08389,31.4041584 105.986761,31.1211806 105.83844,30.8445857 C105.205837,29.6639317 103.910654,29.04904 102.944426,29.4705087 C101.978197,29.8927511 101.708221,31.1929405 102.340046,32.3734011 C102.426859,32.5351027 102.527102,32.6853924 102.635715,32.8242701 C102.342966,32.5660504 102.081555,32.2459353 101.882236,31.8741763 C101.181506,30.5658631 101.481652,29.1252486 102.552017,28.6577452" id="path68" fill="#D71941"></path>
                        <path d="M104.246031,10.8604694 C104.246031,10.8604694 102.365156,11.1332345 100.28282,11.1332345 L100.28282,11.1324802 C98.2143041,11.1295982 96.3534769,10.8604694 96.3534769,10.8604694 C94.2705573,10.648323 93.263258,11.8011435 93.263258,11.8011435 C94.0356181,9.8287511 96.5549368,10.2230052 96.5549368,10.2230052 C97.9618467,10.5055962 100.007005,10.4465829 100.28282,10.4376661 L100.28282,10.4361574 C100.28282,10.4361574 102.533136,10.5268147 104.045156,10.2230052 C104.045156,10.2230052 106.563501,9.8287511 107.335861,11.8011435 C107.335861,11.8011435 106.328756,10.648323 104.246031,10.8604694" id="path70" fill="#D71941"></path>
                        <path d="M108.16136,18.1794217 C107.731384,17.1243572 106.7599,15.3597592 105.162041,14.6918309 C105.162041,14.6918309 105.024231,17.1355371 102.769632,14.5301486 C102.769632,14.5301486 102.177321,17.3243566 100.432698,14.6693938 C100.432698,14.6693938 100.393963,14.3920252 100.316494,14.6556414 C100.23883,14.3920252 100.199706,14.6693938 100.199706,14.6693938 C98.455472,17.3243566 97.8631606,14.5301486 97.8631606,14.5301486 C95.6093407,17.1355371 95.4725037,14.6918309 95.4725037,14.6918309 C93.8736716,15.3597592 92.9014089,17.1243572 92.4718225,18.1794217 C92.0424308,19.2347762 91.887297,17.9854764 91.887297,17.9854764 C91.5240853,15.9475717 92.9126984,13.9599182 92.9126984,13.9599182 C94.7807276,12.3040433 95.2108979,12.2046045 96.0044745,13.1872127 C98.0395109,12.4250874 98.1816034,13.5521439 98.1816034,13.5521439 C99.3029659,12.6562085 100.069876,13.2307329 100.316494,13.6524144 C100.562723,13.2307329 101.330411,12.6562085 102.450995,13.5521439 C102.450995,13.5521439 102.594061,12.4250874 104.628124,13.1872127 C105.42209,12.2046045 105.852065,12.3040433 107.720484,13.9599182 C107.720484,13.9599182 109.109486,15.9475717 108.745496,17.9854764 C108.745496,17.9854764 108.591141,19.2347762 108.16136,18.1794217" id="path72" fill="#FFFFFF"></path>
                    </g>
                </g>
            </g>
        </g>
    </g>
</svg>