<svg width="200" height="200" xmlns="http://www.w3.org/2000/svg"><g fill="none"><path d="M189.496 106.502l1.31-4.862h-10.271c-2.161-11.468-7.765-16.847-11.793-18.621.028-.43.052-.868.052-1.357 0-1.256-.12-2.73-.44-4.432 1.856-1.765 2.94-4.428 2.94-7.366 0-.261-.009-.524-.027-.789-.258-4.008-2.475-7.52-5.982-9.64l-.003-.176c0-3.84.702-7.152 2.072-9.9.126.054.26.117.382.168l2.598 1.087.25-2.792a6.176 6.176 0 0 1 .356-1.642l.69-1.776-1.733-.812c-1.046-.489-3.016-1.62-5.122-3.851.073-.24.151-.45.231-.66 1.288.693 3.075 1.347 5.085 1.2 2.155-.158 4.129-1.24 5.707-3.129 1.106-1.326.845-3.458.014-4.877-.798-1.362-2.092-2.033-3.461-1.791l.04-.004c-.254 0-1.583-.469-3.467-2.764-3.835-4.673-12.014-8.744-20.223-7.48-4.285.66-9.955 3.053-13.634 10.442-3.212-1.684-5.651-3.225-6.813-4.324l-1.466-1.386-1.42 1.433c-.667.673-1.934 1.827-3.552 2.778a102.2 102.2 0 0 0-4.471-2.833l-1.196-.712-1.109.84c-1.861 1.412-6.846 4.625-13.99 5.49-4.155-5.895-11.973-10.528-22.408-6.91-7.038 2.442-8.942 5.233-10.622 7.695-1.025 1.503-1.91 2.8-4.112 4.086-1.665.973-2.604 2.474-2.577 4.12.029 1.692 1.074 3.259 2.795 4.188 1.799.972 4.011 1.101 6.276.457-.103 1.013-.282 2.005-.597 2.678l-.5 1.068.68.967c.506.72 1.434 1.985 2.462 3.21a82.313 82.313 0 0 1-.64 3.272c-2.121 1.219-2.39 1.417-3.952 2.75l-.027.023-.027.024a23.862 23.862 0 0 0-2.098 2.216c-7.488 1.299-12.748 7.77-14.114 9.628-7.493 3.283-12.78 8.035-15.686 14.155-1.88 3.96-2.805 8.528-2.805 13.893 0 .296.023.612.028.913H22.1L0 181.46l169.01.004c6.462 0 11.55-3.981 13.277-10.39l17.639-64.57h-10.43" fill="#FFF"/><path d="M182.502 104.203h-.815l.148-.553h2.356l-.15.553h-.815l-.62 2.3h-.724l.62-2.3zm2.26-.553h.975l.205 1.8h.014l1.175-1.8h.975l-.769 2.852h-.641l.545-2.021h-.014l-1.297 2.021h-.53l-.207-2.021h-.014l-.545 2.021h-.64l.768-2.852z" fill="#231F20"/><path d="M179.306 108.548c-.954-17.603-9.28-23.398-12.763-24.118.27-2.03.367-4.492-.45-7.995 4.5-2.923 4.677-12.184-2.842-15.796-.18-4.628.485-9.686 3.245-13.944.591.298 1.31.642 2.037.946.057-.624.189-1.427.487-2.197-1.379-.646-3.934-2.133-6.521-5.157.298-1.292.867-3.127 1.83-4.127 0 0 5.514 4.92 9.885-.315.708-.849-.11-3.592-1.503-3.346-1.273.224-3.3-.952-5.382-3.49-6.154-7.5-24.508-12.532-31.274 4.474-2.5-1.238-7.125-3.666-9.22-5.647-.873.882-2.743 2.585-5.142 3.734a103.396 103.396 0 0 0-5.405-3.469c-2.118 1.606-7.922 5.388-16.249 6.052-1.49-2.434-8.065-11.556-20.718-7.166-10.774 3.736-7.966 7.873-14.37 11.612-4.247 2.48.795 8.049 7.593 3.83 0 0 .266 4.277-.872 6.711.588.836 1.75 2.431 2.953 3.771-.22 1.613-.749 4.074-1 5.203-2.834 1.623-2.834 1.623-4.43 2.983-.93.851-1.783 1.845-2.381 2.595-8.215.943-13.859 9.366-13.859 9.366-16.276 6.862-18.33 19.093-17.706 29.385H23.674L2.69 179.413l166.32.005c5.571 0 9.791-3.319 11.288-8.875l16.936-61.995h-17.928" fill="#231F20"/><path d="M135.892 56.34l1.386-.067s.44.511.803 1.141c1.064-1.088 3.318-1.632 3.318-1.632-1.664-3.411 1.77-7.283 1.77-7.283-1.236 3.79.365 5.878 1.345 6.744 6.011-2.795 11.64-10.874 11.64-10.874 6.308 6.859 3.858 10.03 3.858 10.03-.593-3.171-3.561-6.711-3.561-6.711-.597 1.401-2.007 2.95-3.555 4.352 3.343.083 7.134 2.17 7.606 6.16l.36.133c-.083-6.318 2.515-11.066 3.61-12.78a13.814 13.814 0 0 1-3.361-3.29c-19.834 2.726-21.868 8.463-21.868 8.463-1.868-2.1-.25-5.179.716-5.697 2.515-2.75 6.067-3.899 7.965-4.34-4.11-1.07-8.125-2.757-11.553-4.458l.002.002c-5.921-.13-8.339-1.832-8.97-2.384.508.459 5.009 4.716 5.646 11.821.64.773 1.485 2.484 1.485 2.484 4.101 2.103 2.363 6.535 1.358 8.185" fill="#A08F66"/><path d="M156.012 58.239c1.386.282 1.934.455 3.016.744 0-.928-.389-1.96-1.021-2.494-.763.18-1.746.807-1.995 1.75" fill="#A08F66"/><path d="M150.583 58.794s-6.518-1.615-10.404.551c1.976.006 7.692.149 10.187 1.362.226-.5.445-1.233.217-1.913" fill="#7B7979"/><path d="M119.326 76.811a15.637 15.637 0 0 0-1.635 2.074c.492-.38 1.078-.77 1.683-1.147a34.345 34.345 0 0 1-.048-.927" fill="#BDBCBC"/><path d="M112.382 59.656a90.961 90.961 0 0 1 4.583-.924c-.13-1.065.151-1.948.765-2.636-3.489.63-4.861 2.155-5.348 3.56m36.896-4.678c-.54.414-1.08.824-1.348 1.015 2.257.214 4.475.841 4.475.841l.363 1.082c.64.044 1.547.116 1.547.116.185-.55.532-1.642.954-2.439-1.323-.442-3.768-.751-5.99-.615" fill="#FFF"/><path d="M150.514 54.026c-.287.223-.761.59-1.236.952 2.222-.136 4.668.173 5.99.615.204-.383.425-.7.654-.853-1.198-.576-2.924-.899-5.408-.714m-32.78 2.069a4.203 4.203 0 0 1 1.296-.955c-6.014.398-7.411 2.918-7.615 4.744.321-.078.644-.151.966-.225.486-1.407 1.859-2.933 5.353-3.564" fill="#BDBCBC"/><path d="M122.25 56.873a64.42 64.42 0 0 1-.992-.622c-1.045.288-2.136 1.18-2.176 2.133.526-.08 1.047-.148 1.57-.218.32-.556.943-1.031 1.597-1.293" fill="#A08F66"/><path d="M120.988 76.219l.003.57a57.73 57.73 0 0 1 2.137-1.132 23.01 23.01 0 0 1 .01-.743v.002c-.804.44-1.522.882-2.15 1.303m17.559-4.589a34.776 34.776 0 0 1 3.962.003c.026-.082.053-.159.08-.233a34.695 34.695 0 0 0-3.793-.267s-.165.292-.249.497m-8.282 1.312c.295-.083.733-.2 1.29-.33.002-.246.012-.509.033-.78a31.5 31.5 0 0 0-1.672.394c.112.246.23.492.349.716m2.973-.682a41.217 41.217 0 0 1 3.626-.507c.07-.21.144-.4.22-.572-1.31.046-2.558.163-3.74.34 0 0-.08.422-.106.738" fill="#FFF"/><path d="M147.513 72.299c-.646-.366-1.576-.8-2.819-1.178-.184.216-.327.44-.438.655 1.068.115 2.158.284 3.257.523m-24.375 2.617c.014-.421.038-.831.064-1.188a16.67 16.67 0 0 0-2.167 1.492c-.026.288-.043.624-.047.999.628-.42 1.346-.863 2.15-1.303m8.596-4.141c-.726.125-1.475.27-2.255.443.12.293.273.65.436 1.008a31.648 31.648 0 0 1 1.674-.394c.027-.347.07-.705.145-1.057m1.61.745a33.397 33.397 0 0 1 3.74-.34c.195-.436.403-.75.582-.969a35.279 35.279 0 0 0-3.995.277 5.13 5.13 0 0 0-.327 1.033m5.452-.357a36.86 36.86 0 0 1 3.794.25c.12-.304.244-.547.361-.732a23.588 23.588 0 0 0-3.343-.424 3.59 3.59 0 0 0-.812.906" fill="#BDBCBC"/><path d="M86.109 82.855c.001-.008.004-.015.005-.019-.016-.093-.037-.187-.053-.281.017.101.03.202.048.3" fill="#A08F66"/><path d="M141.584 103.16c.537-1.974-.098-3.68-.098-3.68-1.588 5.683-9.782 7.31-9.782 7.31 8.58-5.067 9.592-14.887 9.592-14.887 1.588 2.4 1.714 5.115 1.714 5.115 3.453-2.101 5.464-8.335 5.464-8.335.7 10.608-6.89 14.476-6.89 14.476zM123.77 84.72c.714 1.744 4.414 3.56 4.414 3.56-2.356 5.701-11.142 8.388-14.617 4.768 7.097 1.67 11.309-4.19 11.309-4.19-3.25-1.558-3.81-4.677-3.81-4.677 3.025-5.012 28.35-9.912 32.159-2.56 0 0-3.52 3.494-8.964 4.44a14.174 14.174 0 0 0 4.502-4.812c-11.541-3.274-24.993 3.472-24.993 3.472zm-44.887-2.734c0-12.413 15.485-20.668 15.485-20.668s-1.833-.918-7.196.242c0 0 7.937-4.196 15.257-1.338 0 0-21.253 6.642-21.253 21.79 0 7.856 8.454 12.627 10.194 12.627 0 0-12.487-.24-12.487-12.653zM94.585 54.26c2.234.506 7.565 1.98 11.867 5.253 0 0-8.472-4.74-15.282-2.009.382-.998 1.29-2.457 3.415-3.244zm-3.602-20.925c-1.011-1.184-2.64-2.057-4.67-2.43-2.958-.544-7.319-.055-9.869 3.114-.965 1.198-2.78 3.169-4.825 3.491 2.554-3.375 5.85-7.325 13.366-7.486 3.458-.072 5.769.937 7.225 1.98a6.65 6.65 0 0 0-1.227 1.331zm21.374 5.555c4.816 8.288 19.021 15.489 19.021 15.489-7.108 1.504-18.545-9.51-21.06-14.486 0 0 .898-.608 2.039-1.003zm53.467 26.872c-5.307-3.25-12.716-3.654-12.716-3.654 4.646.452 9.684 3.155 10.148 6.286.505 3.4-3.87 4.18-3.87 4.18 1.951-1.62 2.063-2.929 2.063-2.929a58.066 58.066 0 0 0-4.737-1.794c.737 1.591 1.321 4.062.86 7.699 4.58 4.82-.09 8.925-2.446 9.787-1.618.592-2.095 1.83-2.175 2.908-.973-2.796 1.73-4.511 1.73-4.511 1.423-1.042 2.211-2.144 2.419-3.225C130.309 64.584 107.682 93.6 107.682 93.6c.283-6.979 4.858-11.579 6.857-13.263 1.548-3.863 4.707-6.819 8.583-8.845.284-1.252.844-2.732 1.934-4.028-10.043 3.179-17.304 9.069-19.761 14.056-3.002-9.386 10.257-16.51 21.586-19.427-32.129 2.985-39.241 15.455-40.815 20.76.827 4.7 5.125 8.484 8.85 10.088-10.34-.667-15.042-11.294-8.328-19.787 4.75-6.008 13.218-10.117 22.373-12.636-.442-5.654 5.707-6.966 8.051-7.26-4.443-3.383-7.993-6.78-7.993-6.78a12.913 12.913 0 0 0-2.89 2.052l3.646-5.045c3.402 5.805 14.65 11.926 17.71 13.538 1.637-.233 3.775-.293 4.857-.472 2.265-2.003 2.373-3.264 2.373-3.264-3.955-11.47-20.268-18.795-20.268-18.795-5.247 2.952-10.966 1.358-10.966 1.358.25.855.308 1.645.3 2.225 2.54-.698 6.165-.248 6.165-.248-2.36.39-5.408 2.04-7.104 3.045-1.744-6.387-8.149-7.366-10.626-6.644a5.255 5.255 0 0 1 2.553-1.955c-1.191-1.347-4.189-3.882-9.817-3.762-9.904.213-13.22 6.575-16.06 10.057-.469.574-1.171 1.014-1.78 1.367 1.27.124 4.455.062 8.414-2.735 0 0 .755-.551 2.109-2.233 3.369-4.186 11.654-3.196 12.818.43-2.52-1.754-6.159-1.084-6.159-1.084 4.851 1.553 4.44 7.11 4.44 7.11-1.71-5.506-6.827-5.472-8.503-5.304-1.03 2.432.372 6.792 3.813 3.504 2.87 1.414 1.783 7.881-2.545 8.663 0 0 2.446-1.974 2-5.447-.54.223-1.26.407-2.039.321.03 1.47-1.498 3.507-4.154 3.574 0 0 2.369-1.111 2.23-4.35-.592-.456-1.67-1.548-1.93-3.555-1.034.883-2.204 2.159-2.763 2.786.403 2.955-.152 5.725-.468 6.966.968 1.56 2.436 3.209 3.273 4.101 5.485-3.492 13.39-2.69 16.016-10.631-.992-1.526-1.538-4.162-1.538-4.162 1.306 1.558 4.31 2.856 4.31 2.856C94.17 51.994 83.3 51.235 76.462 55.862c0 0-1.654 10.215-5.79 18.552-.746 4.376-.995 14.098 1.085 18.842.916-3.549 4.078-6.326 6.515-7.395-4.034 4.388-10.125 17.043 4.36 23.934 11.405 5.426 22.31-6.498 23.155-10.57-.225 1.209-1.528 6.883-6.694 10.8 28.002-.377 38.175-18.693 38.175-18.693-.088 1.901-.442 3.336-.76 4.27-.285.84-.54 1.274-.54 1.274s.58 6.547-12.579 11.673c8.525 2.843 26.325-2.182 29.724-18.02 0 0 .295 3.423-1.315 7.175.142 1.054.04 2.995-1.527 5.805 12-5.321 16.244-21.315 13.061-28.068 4.52-2.135 4.298-7.198 2.492-9.678zm-13.062-39.148c-2.37.001-4.31.71-5.613 2.049 0 0-.62.64-1.133 1.164a5.7 5.7 0 0 0-2.592-.838c3.019-2.646 7.164-3.173 8.39-3.138 4.846.147 7.995 1.787 10.385 3.705-3.057-1.838-6.467-2.945-9.437-2.942zm-.902-2.276c-2.28-.069-9.122 1.098-12.025 6.799 0 0 3.94-1.855 6.22.686-1.355-.64-5.376.497-6.17 3.468.716.312 1.93.823 3.616 1.466.632-4.341 4.696-3.972 4.696-3.972-2.37 1.504-2.274 3.812-2.049 4.95 1.804.644 3.941 1.364 6.4 2.12 0 0 4.086-.502 6.796-.177.586-1.265 1.943-3.99 3.198-5.025-1.08-.964-2.226-1.97-3.533-2.837-.116 2.306-2.208 4.235-5.768 3.303 0 0-.552 1.855 1.6 3.387-1.497.298-4.963-1.947-2.906-5.499 2.245 1.507 5.306.198 4.83-2.434-2.255-1.004-4.986-1.488-8.519-.855 3.33-3.425 12.039-1.011 17.296 4.373 1.981 2.026 5.26 2.706 6.362.605-5.192.483-6.986-9.966-20.044-10.358z" fill="#A08F66"/><path d="M143.424 28.99a5.7 5.7 0 0 1 2.592.837c.513-.525 1.133-1.164 1.133-1.164 1.303-1.339 3.243-2.048 5.613-2.05 2.97-.002 6.38 1.105 9.437 2.943-2.39-1.918-5.54-3.558-10.386-3.705-1.225-.035-5.37.492-8.389 3.138M131.378 54.38s-14.205-7.2-19.021-15.489a9.77 9.77 0 0 0-2.039 1.003c2.515 4.975 13.952 15.99 21.06 14.486M81.176 82.012c0-15.148 21.253-21.79 21.253-21.79-7.32-2.858-15.257 1.338-15.257 1.338 5.363-1.16 7.196-.242 7.196-.242s-15.485 8.255-15.485 20.668c0 12.413 12.487 12.653 12.487 12.653-1.74 0-10.194-4.771-10.194-12.627" fill="#C3B597"/><path d="M143.01 97.018s-.126-2.715-1.714-5.115c0 0-1.013 9.82-9.592 14.887 0 0 8.194-1.627 9.782-7.31 0 0 .635 1.706.098 3.68 0 0 7.59-3.869 6.89-14.477 0 0-2.01 6.234-5.464 8.335" fill="#FFF"/><path d="M84.985 30.025c-7.515.161-10.812 4.11-13.366 7.486 2.045-.322 3.86-2.293 4.825-3.491 2.55-3.169 6.91-3.658 9.87-3.114 2.029.373 3.658 1.246 4.67 2.43a6.65 6.65 0 0 1 1.226-1.33c-1.456-1.044-3.767-2.053-7.225-1.981" fill="#C3B597"/><path d="M99.093 110.026c8.856 2.152 26.076-1.034 36.876-13.15 0 0 .254-.433.54-1.275.317-.933.67-2.368.76-4.27 0 0-10.174 18.317-38.176 18.695M60.895 84.647l1.285 1.863s1.316-.158 1.453-1.633c.114-1.476-1.155-1.852-1.155-1.852l-1.583 1.622" fill="#FFF"/><path d="M62.18 86.51l-1.285-1.863 2.738.23c-.137 1.475-1.453 1.633-1.453 1.633" fill="#BDBCBC"/><path d="M65.022 71l.377 1.537s.901.22 1.359-.712c.442-.939-.296-1.498-.296-1.498l-1.44.673" fill="#FFF"/><path d="M65.4 72.537L65.021 71l1.736.825c-.458.931-1.359.712-1.359.712" fill="#BDBCBC"/><path d="M62.027 81.31l.67.199a38.255 38.255 0 0 1 2.084-7.562l-.643-.157-.51-2.074c-1.881 3.704-3.038 7.718-3.658 11.702l2.057-2.108m6.283-7.482c1.445-.68 3.198-6.884 3.706-8.943-1.54 1.204-2.879 2.893-3.99 4.951.423.693.578 1.645.102 2.654-.434.884-1.156 1.357-1.883 1.521-.867 2.605-1.46 5.542-1.744 8.678.428.554.729 1.318.65 2.328-.08.873-.417 1.516-.845 1.979a52.41 52.41 0 0 0 1.287 11.538c.538.45 1.004 1.11 1.24 2.058.198.848.123 1.574-.093 2.178a48.334 48.334 0 0 0 2.246 5.778h7.372c-11.005-10.433-8.048-34.72-8.048-34.72m-1.66-5.263l.57.43c1.537-2.532 3.356-4.676 5.372-6.33.273-1.096.435-1.814.435-1.814-3.422 2.344-6.064 5.266-8.073 8.507l.86-.402.837-.39M62.955 97.68a47.012 47.012 0 0 1-.856-9.633l-.653.079-1.762-2.553c-.639 5.854-.18 11.507.774 15.86l1.816-3.733.681-.02" fill="#7B7979"/><path d="M67.22 68.996l.167.126c.242.183.463.427.639.714 1.111-2.058 2.45-3.747 3.99-4.951.166-.612.553-2.125.577-2.22-2.017 1.654-3.836 3.798-5.373 6.33m-2.336 35.832l.029.084.001.005c.364.296 2.298 1.819 2.524 3.632h1.548a48.334 48.334 0 0 1-2.246-5.778c-.494 1.414-1.856 2.057-1.856 2.057m-2.52-16.812l-.265.032c-.05 3.091.22 6.32.856 9.632l.243-.007c.6-.018 1.58.181 2.395.862a52.41 52.41 0 0 1-1.287-11.538c-.617.665-1.424.957-1.942 1.019m2.672-14.005l-.255-.063a38.255 38.255 0 0 0-2.083 7.562l.215.064c.45.133 1.101.489 1.588 1.116.285-3.136.877-6.073 1.744-8.678-.419.095-.84.088-1.209-.002" fill="#BDBCBC"/><path d="M62.007 101.73l2.263 1.71s1.498-.702 1.077-2.506c-.448-1.797-2.103-1.747-2.103-1.747l-1.237 2.543" fill="#FFF"/><path d="M64.27 103.44l-2.263-1.71 3.34-.796c.42 1.804-1.077 2.505-1.077 2.505" fill="#BDBCBC"/><path d="M155.075 68.673c-.619 2.147-2.79 4.57-3.141 4.954a6.88 6.88 0 0 1 1.891.38c.696-.883.87-2.405.87-2.405s.33.465.146 2.843c.318.167.62.358.898.573.321-3.004-.664-6.345-.664-6.345m-28.238-.668c-2.017 1.67-1.987 6.884-1.987 6.884.36-.164.745-.315 1.138-.454-.246-1.907.453-3.95.453-3.95-.17 1.652.523 3.402.603 3.607.617-.184 1.21-.336 1.701-.453-1.337-2.233-1.908-5.634-1.908-5.634" fill="#FFF"/><path d="M126.441 70.485s-.7 2.044-.453 3.952a21.6 21.6 0 0 1 1.056-.344c-.078-.2-.774-1.954-.603-3.608m28.4 3.96c.183-2.378-.145-2.843-.145-2.843s-.175 1.524-.87 2.406a7.3 7.3 0 0 1 1.015.437" fill="#BDBCBC"/><path d="M55.766 102.443c1.117 0 2.149.065 3.108.187-1.52-6.387-3.864-22.12 6.014-36.398 0 0-7.202 3.297-9.299 7.223 0 0 1.915.008 3.089.872-8.907.127-23.202 8.716-21.592 28.116h18.68" fill="#A08F66"/><path d="M42.118 102.443c-.1-7.296 1.69-17.67 11.823-21.662 0 0 .054 4.835 1.137 6.716 0 0 .484-6.187 2.182-10.74 0 0-18.992 3.563-17.606 25.686h2.464" fill="#C3B597"/><path d="M176.911 108.548c-.137-4.984-2.22-18.317-10.742-21.902-3.418 13.794-12.944 18.583-17.314 20.142l-4.006 1.76h32.062" fill="#A08F66"/><path d="M150.792 63.678c-.943.519-1.943 1.308-2.55 1.82.081.11.154.22.223.33 1.892.308 3.814.727 5.762 1.269.272-.55.506-1.114.679-1.681 0 0 .995.688 1.805 2.435a57.907 57.907 0 0 1 4.738 1.795c.687-3.617-5.966-6.075-10.657-5.968m-25.736 3.785c.757-.9 1.77-1.712 3.125-2.298 0 0 .058.554.203 1.37a50.565 50.565 0 0 1 16.525-1.164c-.905-.833-1.932-1.599-2.803-2.196-22.58-1.39-35.365 10.523-36.811 18.344 2.457-4.987 9.718-10.877 19.761-14.056m15.284 6.027c-15.295.356-27.557 9.298-32.658 20.109 0 0 22.627-29.015 49.418-13.089.728-3.771-5.611-7.28-16.76-7.02" fill="#C3B597"/><path d="M133.049 45.67c-7.931-8.951-16.188-12.713-18.94-13.788-2.625 2.392-8.195 3.557-10.628 3.967 0 0 5.72 1.594 10.966-1.358 0 0 16.313 7.325 20.268 18.795.705-2.195.098-4.343-.18-5.132 0 0-.846-1.71-1.486-2.484m12.229-2.234l-5.32 1.593c-.966.518-2.583 3.597-.715 5.697 0 0 2.034-5.737 21.868-8.463-5.944-.705-11.662.161-15.833 1.173m-12.229 2.234s-3.097-6.251-9.637-12.454c1.072-.485 2.708-1.333 3.671-2.35a85.298 85.298 0 0 0 9.29 5.367c-6.08-.133-8.466-1.925-9.016-2.427 0 0 5.016 4.332 5.692 11.864m-5.611 16.283c3.959-.977 7.64-1.43 10.257-1.274l.025-.065c-.62-1.029-1.716-1.939-1.716-1.939-8.878.42-18.353 1.808-26.67 4.215 7.516-.772 13.582-.969 18.104-.937m25.809-1.661c.029.397.031 1.25-.14 1.817 0 0 7.41.405 12.717 3.654-1.787-2.706-5.71-5.006-12.577-5.471M75.526 37.199c-3.96 2.799-7.146 2.859-8.415 2.735-.688.397-1.257.681-1.227.915.13 1 3.108 1.556 6.45-.988a41.946 41.946 0 0 0 3.192-2.662" fill="#FFF"/><path d="M109.334 62.89v-.001c-9.321 2.697-17.188 6.675-21.13 12.013-2.053 2.78-2.572 5.492-2.138 7.953 1.572-5.305 8.682-17.778 40.816-20.763.184-.048.369-.094.553-.14-4.521-.03-10.587.167-18.101.938" fill="#C3B597"/><path d="M148.466 65.827c1.502 2.375.154 4.408.154 4.408.965.382 1.849.766 2.664 1.15 1.086-1.256 2.6-3.337 2.943-4.288a53.763 53.763 0 0 0-5.761-1.27m-20.082.709s.239 1.405.645 2.706c5.82-1.509 12.172-1.326 16.944.638.929-1.364.865-2.182.865-2.182-.81-1.546-1.93-2.327-1.93-2.327a50.565 50.565 0 0 0-16.524 1.165m-83.71 56.029h-5.628l1.697-6.294h5.629l-1.698 6.294zm-2.346 8.705l-2.719 10.087-.006.02h-5.628l2.73-10.128h5.628a.072.072 0 0 1-.005.021zm14.625-4.43c1.539-.934 2.845-2.423 3.497-4.841l1.726-6.401c.642-2.381.47-4.263-.508-5.592-1.199-1.628-3.583-2.42-7.288-2.42H27.462l-11.45 42.476h26.916c6.607 0 10.683-2.696 12.116-8.011l2.893-10.731c.611-2.266.112-3.623-.984-4.48zm18.29-4.881H72.91l.381-1.415h2.334l-.382 1.415zm6.749-8.267H63.76l-6.496 24.097h11.378l2.14-7.936 1.192 7.936h12.571l-2.04-9.47c1.445-.584 2.892-1.817 3.576-4.355l1.071-3.972c.553-2.051.44-3.566-.343-4.63-1.103-1.497-3.277-1.67-4.817-1.67z" fill="#A08F66"/><path fill="#A08F66" d="M158.176 113.692l-3.094 11.479-2.659-11.48h-13.157l-6.303 23.378-3.437-23.377h-10.168l-18.065 24.065 2.385-8.845 13.68-15.22h-8.1l-6.367 7.093-2.649-7.093h-13.51l5.676 14.817-2.502 9.28h19.011l4.227-5.555h6.912l.874 5.555h18.733l3.147-11.672 2.703 11.672h13.062l6.496-24.097h-6.895m7.992 0l-1.85 6.852h6.564l-4.648 17.245h11.378l4.65-17.245h6.563l1.847-6.852h-24.504m-144.293 55.1h-1.97l.459-1.698h1.969l-.458 1.698zm1.943-7.204h-1.97l.304-1.128h1.97l-.304 1.128zm9.352-5.228c-.697-.947-2.043-1.407-4.116-1.407H14.498l-5.215 19.346h14.556c4.703 0 6.375-2.541 6.95-4.671l.803-2.981c.296-1.097.152-1.843-.247-2.365.682-.56 1.251-1.36 1.56-2.507l.58-2.151c.372-1.377.266-2.476-.315-3.264zm17.907-1.407l-3.731 13.839-5.823-.003c.006-.033 3.725-13.836 3.725-13.836h-9.139l-3.516 13.042c-.562 2.086-.437 3.701.372 4.8.725.983 1.994 1.504 3.672 1.504h9.022c5.147 0 6.712-3.599 7.442-6.304l3.516-13.042h-5.54m12.365 13.839l3.731-13.839h-9.139l-4.843 17.966-.372 1.38h17.222l1.484-5.507h-8.083m18.552 0l3.731-13.839h-9.138l-5.216 19.346h17.222l1.485-5.507h-8.084m20.171 0h-1.734l2.246-8.332h1.735l-2.247 8.332zm10.911-12.405c-.7-.951-1.895-1.434-3.549-1.434H95.023l-5.215 19.346h14.504c3.5 0 6.094-2.175 7.116-5.968l2-7.411c.53-1.971.412-3.496-.352-4.533zm11.434 12.405h-2.491l2.246-8.332h2.491l-2.246 8.332zm10.91-12.405c-.7-.951-1.895-1.434-3.549-1.434h-9.752c-1.654 0-3.108.483-4.322 1.434-1.323 1.037-2.263 2.562-2.794 4.533l-1.998 7.411c-.532 1.972-.414 3.496.35 4.533.7.952 1.895 1.435 3.55 1.435h9.751c3.5 0 6.094-2.175 7.117-5.968l1.998-7.411c.53-1.971.413-3.496-.35-4.533zm9.038-1.434c-1.654 0-3.108.483-4.322 1.434-1.324 1.037-2.264 2.562-2.795 4.533l-1.997 7.411c-.532 1.972-.414 3.496.35 4.533.7.952 1.895 1.435 3.549 1.435h14.635l3.426-12.71H146.3l.305-1.13h10.56l1.484-5.506h-14.191m21.022 0c-1.337 0-2.61.443-3.678 1.28-1.18.926-2.069 2.314-2.499 3.91l-1.07 3.964c-.454 1.692-.386 2.86.216 3.68.409.555 1.008.849 1.633 1.005h-3.11l-1.485 5.507h13.695c3.269 0 5.663-1.93 6.57-5.294l1.174-4.353c.344-1.277.222-2.366-.357-3.15-.338-.459-.822-.806-1.44-1.042h2.927l1.485-5.507h-14.06"/><path d="M44.054 131.27c.4-1.487-.081-1.735-1.278-1.735h-7.334l-3.654 13.557h7.333c1.247 0 1.84-.347 2.213-1.735l2.72-10.087zm4.051-15.028c.361-1.338-.044-1.685-1.292-1.685H39.48l-2.62 9.723h7.332c1.347 0 1.867-.447 2.227-1.785l1.686-6.253zm-4.714 32.105H18.199L28.725 109.3h25.192c5.837 0 7.683 2.033 6.534 6.297l-1.726 6.4c-1.056 3.918-4.21 4.512-8.23 4.81l-.027.1c4.193.545 6.68.942 5.744 4.412l-2.893 10.73c-1.083 4.016-3.842 6.297-9.928 6.297zm34.108-28.355c.26-.968-.012-1.163-.857-1.163h-4.614l-1.306 4.845h4.614c.943 0 1.257-.324 1.484-1.163l.679-2.52zm-3.914 16.082l-1.348-8.977h-2.438l-2.42 8.977h-7.928l5.572-20.668h16.506c3.412 0 4.838 1.098 3.898 4.586l-1.071 3.972c-.488 1.809-1.43 3.133-4.029 3.133l1.934 8.977h-8.676zm28.5-7.654l-2.064 7.654h-7.928l2.177-8.073-4.826-12.595h9.39l3.208 8.59 7.71-8.59h4.03l-11.697 13.015m18.056-8.3l-5.065 6.976h6.142l-1.077-6.976zm2.393 15.953l-.875-5.554h-9.13l-4.227 5.554h-3.834l15.515-20.668h7.928l3.039 20.668h-8.416zm24.509 0l-3.964-17.116h-.065l-4.614 17.116h-3.444l5.572-20.668h10.365l3.904 16.857h.096l4.546-16.857h3.445l-5.573 20.668h-10.268M181 118.83l-4.65 17.244h-7.93l4.65-17.245h-6.563l.923-3.423h21.055l-.923 3.423h-6.563" fill="#FFF"/><path d="M29.865 143.092h.776l3.924-14.694h8.21c.426 0 1.234.007 1.842.468-.285-.726-.92-1.225-2.413-1.225h-8.211l-4.128 15.45m28.973-31.577c.312.71.294 1.705-.064 3.032l-2 7.329c-.552 2.047-1.744 3.006-3.81 3.508 2.59-.445 4.034-1.368 4.656-3.678l1.726-6.401c.758-2.814-.21-3.544-.508-3.79m-12.596 1.148H38.03l-3.084 11.618h.777l2.879-10.86h8.21c.592 0 1.3.068 1.84.482-.093-.235-.419-1.24-2.411-1.24" fill="#BDBCBC"/><path d="M54.67 128.988c.052.321.01.748-.134 1.28l-2.894 10.73c-.726 2.698-2.343 5.455-8.823 5.455H19.893l-.204.757H43.39c6.48 0 8.096-2.756 8.823-5.453l2.893-10.732c.422-1.563-.097-1.84-.437-2.037m21.401-12.053h-5.49l-1.817 6.733h.776l1.612-5.975h5.491c.3 0 .924.006 1.427.363a1.544 1.544 0 0 0-.24-.446c-.52-.675-1.387-.675-1.758-.675m-4.116 8.267H68.35l-2.42 8.978h-4.785l-.204.758h5.56l2.42-8.978h3.148l-.114-.758m12.373-7.972a1.143 1.143 0 0 0-.38-.302c.121.574-.025 1.371-.198 2.012l-1.07 3.972c-.401 1.486-.985 2.29-2.925 2.29h-1.868l1.934 8.978h-5.364l.114.758h6.276l-1.934-8.978h1.414c1.94 0 2.524-.805 2.924-2.29l1.071-3.972c.226-.837.41-1.945.006-2.468m13.712-.687h-.766l3.18 8.687.62-.513-3.035-8.174m12.226 0l-9.9 10.988-1.793 6.649h-4.784l-.205.758h5.56l1.908-7.073 10.176-11.322h-.962m9.62 2.269l-.178-1.152-7.048 9.322h1.041l6.185-8.17m7.037-2.269h-.841l2.593 17.637h-5.28l.119.758h6.114l-2.705-18.395m-5.618 12.082h-9.818l-4.738 6.313h.985l4.227-5.555h9.463l-.12-.758m31.562 3.638h.776l-3.657-15.72h-.779l3.66 15.72" fill="#BDBCBC"/><path fill="#BDBCBC" d="M160.617 116.543l-4.754 17.637h-8.084l.174.758h8.481l4.96-18.395h-.777m-19.073.601l-4.593 17.036h-.3l-.205.758h1.077l4.38-16.245-.36-1.549m44.676-.601l-.106.392h-6.564L174.9 134.18h-4.785l-.204.758h5.56l4.65-17.245h6.564l.31-1.15h-.776m-12.839 1.15l.205-.758h-5.383l-.205.758h5.383"/><path d="M23.848 166.62c.21-.776-.042-.906-.668-.906h-3.833l-1.201 4.458h3.833c.652 0 .96-.182 1.157-.908l.712-2.643zm1.796-6.659c.189-.7-.023-.881-.675-.881h-3.833l-1.048 3.888h3.833c.704 0 .976-.234 1.164-.933l.56-2.074zm-1.433 12.958H11.043l4.471-16.586h13.168c3.051 0 4.016 1.062 3.415 3.29l-.58 2.152c-.552 2.047-2.2 2.358-4.302 2.514l-.014.052c2.192.285 3.492.493 3.003 2.306l-.804 2.98c-.565 2.1-2.008 3.292-5.19 3.292zm21.819 0h-9.02c-2.556 0-3.978-1.4-3.027-4.924l3.143-11.662h6.363l-3.326 12.336c-.286 1.063.116 1.503 1.081 1.503h5.632c1.122 0 1.55-.234 1.85-1.348l3.368-12.491h2.764l-3.144 11.662c-.95 3.524-2.501 4.924-5.683 4.924m8.548 0l4.471-16.586h6.363l-3.73 13.839h8.082l-.74 2.747H54.579m18.552 0l4.472-16.586h6.362l-3.73 13.839h8.083l-.74 2.747H73.13m32.763-12.802c.189-.7-.06-1.037-.972-1.037h-3.26l-2.99 11.092h3.26c.912 0 1.342-.337 1.53-1.037l2.432-9.018zm-1.21 12.802H91.569l4.471-16.586h13.116c2.842 0 3.659 1.71 2.884 4.587l-1.999 7.411c-.775 2.877-2.514 4.588-5.356 4.588zm23.554-12.802c.188-.7-.06-1.037-.972-1.037h-2.764c-.913 0-1.343.337-1.532 1.037l-2.43 9.018c-.19.7.059 1.037.972 1.037h2.763c.913 0 1.343-.337 1.532-1.037l2.43-9.018zm-1.21 12.802h-9.751c-2.843 0-3.659-1.71-2.884-4.588l1.999-7.411c.775-2.877 2.514-4.587 5.356-4.587h9.752c2.843 0 3.66 1.71 2.884 4.587l-1.998 7.411c-.776 2.877-2.514 4.588-5.357 4.588zm20.697 0l.405-1.504h-.052c-.553.985-1.031 1.504-2.726 1.504h-5.736c-2.843 0-3.66-1.71-2.883-4.588l1.998-7.411c.775-2.877 2.514-4.587 5.357-4.587h12.802l-.74 2.747h-9.31c-.912 0-1.342.337-1.53 1.037l-2.432 9.018c-.188.7.06 1.037.972 1.037h2.165c.834 0 1.308-.31 1.505-1.037l.92-3.421H145l.74-2.746h9.805l-2.684 9.95h-5.136m21.83.001h-12.308l.74-2.747h8.919c.808 0 1.039-.182 1.186-.726l.308-1.14c.153-.57-.066-.726-.874-.726h-5.45c-2.399 0-3.145-.907-2.454-3.473l1.07-3.964c.552-2.048 2.043-3.81 4.416-3.81h12.673l-.74 2.747h-8.788c-.86 0-1.163.156-1.303.673l-.286 1.063c-.133.492.085.648.947.648h4.745c2.425 0 3.791.933 3.182 3.188l-1.174 4.353c-.691 2.565-2.228 3.914-4.81 3.914" fill="#FFF"/><path fill="#BDBCBC" d="M148.624 164.84l.117-.5h-2.478l-.119.5h2.48m5.305-.998l-2.095 7.765h-2.846l-.01.034-.108.404h3.316l2.211-8.203h-.468m-129.312-6.074H20.11l-1.401 5.2h.47l1.283-4.762h4.508c.218 0 .738.004 1.142.318-.234-.493-.704-.756-1.494-.756m6.352-.139c.106.309.082.754-.074 1.332l-.747 2.675c-.273 1.014-.88 1.453-1.995 1.68 1.452-.196 2.2-.606 2.514-1.768l.58-2.15c.341-1.266-.012-1.597-.278-1.769m-14.205 12.543h.47l1.437-5.333h4.508c.24 0 .748.005 1.143.312-.133-.287-.447-.747-1.494-.747H18.32l-1.556 5.768"/><path d="M29.073 165.581a1.924 1.924 0 0 1-.07.403l-.804 2.98c-.37 1.373-1.152 2.643-4.34 2.643H12.306l-.117.438H24.21c3.188 0 3.97-1.271 4.34-2.644l.804-2.98c.191-.71-.014-.74-.282-.84m9.888 2.424c-.39 1.45.308 2.018.44 2.135-.24-.447-.271-1.015-.087-1.698l3.029-11.235h-.47l-2.911 10.798" fill="#BDBCBC"/><path d="M53.241 157.207l-2.73 10.124c-.862 3.197-2.081 4.276-4.832 4.276h-9.022c-.839 0-1.46-.17-1.856-.501.199.382.675.939 2.208.939h9.021c2.752 0 3.971-1.08 4.833-4.277l2.848-10.561h-.47m7.061 12.965h.47l3.495-12.965h-.47l-3.495 12.965m7.848.874l-.152.561H55.843l-.118.438H68.35l.27-1h-.47m10.704-.873h.47l3.495-12.965h-.47l-3.495 12.965m7.848.874l-.151.561H74.395l-.117.438h12.624l.27-1h-.47m17.867-13.277h-3.935l-3.343 12.404h.47l3.225-11.966h3.935c.242 0 .911.002 1.4.403-.12-.233-.463-.84-1.752-.84" fill="#BDBCBC"/><path d="M110.893 157.65c.273.562.255 1.454-.055 2.606l-1.999 7.413c-.714 2.65-2.188 3.938-4.507 3.938h-11.5l-.118.438h11.97c2.318 0 3.793-1.289 4.507-3.94l1.998-7.412c.575-2.13.016-2.795-.296-3.043m8.867 12.556c-.183-.356-.208-.79-.07-1.297l2.43-9.019c.301-1.118 1.103-1.684 2.38-1.684h2.765c.242 0 .91.002 1.4.403-.22-.43-.685-.84-1.752-.84h-2.764c-1.278 0-2.08.566-2.38 1.684l-2.432 9.02c-.27 1.002.144 1.506.422 1.733" fill="#BDBCBC"/><path d="M133.238 157.65c.272.562.254 1.454-.057 2.606l-1.997 7.413c-.715 2.65-2.19 3.938-4.508 3.938h-9.752c-.79 0-1.37-.15-1.738-.442.073.151.36.88 2.09.88h9.752c2.318 0 3.792-1.289 4.507-3.94l1.998-7.412c.61-2.262-.065-2.86-.295-3.043M145 171.607h-5.737c-.79 0-1.37-.15-1.739-.442.182.375.627.88 2.091.88h5.736c1.367 0 1.552-.331 1.958-1.055l.193-.346a2.253 2.253 0 0 1-.793.324c-.295.436-.64.64-1.71.64m10.274-14.401l-.151.561h-8.634c-1.278 0-2.078.567-2.38 1.685l-2.432 9.02c-.263.974.12 1.488.422 1.733-.182-.356-.207-.789-.07-1.297l2.431-9.019c.303-1.118 1.103-1.684 2.38-1.684h8.635l.269-1h-.47m5.028 8.844a.7.7 0 0 0 .109.253c.203.263.78.403 1.666.403h5.45c.482 0 .966.049 1.329.332-.183-.391-.532-.768-1.681-.768h-5.449c-.651 0-1.133-.077-1.424-.22" fill="#BDBCBC"/><path d="M174.371 162.77c.113.298.105.705-.034 1.218l-1.174 4.354c-.61 2.258-1.83 3.265-3.96 3.265H158.51l-.118.438h11.162c2.13 0 3.35-1.007 3.96-3.266l1.174-4.353c.317-1.18-.102-1.506-.318-1.656m1.796-5.563l-.152.561H167.9c-.583 0-1.797 0-2.153 1.323l-.285 1.061c-.226.836.186 1.25.4 1.413-.13-.277-.149-.604-.049-.976l.286-1.061c.356-1.322 1.57-1.322 2.153-1.322h8.113l.269-1h-.469" fill="#BDBCBC"/><path d="M65.01 140.56l-1.758 6.523-.026.074-.12.008H60.7l1.78-6.605h-4.614l-1.652 6.128c-.288 1.067-.202 1.91.255 2.501.282.366.845.802 1.926.802h4.306c1.867 0 2.898-.87 3.448-2.911l1.758-6.52H65.01" fill="#FFF"/><path d="M62.702 149.233h-4.306c-1.22 0-1.899-.668-1.445-2.35l1.5-5.565h3.037l-1.587 5.887c-.137.507.056.718.516.718h2.688c.535 0 .74-.112.883-.644l1.607-5.961h1.32l-1.501 5.566c-.454 1.681-1.194 2.35-2.712 2.35" fill="#A08F66"/><path d="M79.517 140.56l-1.12 4.152-.961-4.152h-5.162l-2.543 9.431h2.898l1.14-4.226.978 4.226h5.125l2.543-9.431h-2.898" fill="#FFF"/><path fill="#A08F66" d="M75.354 149.233l-1.518-6.555h-.025l-1.767 6.555h-1.32l2.135-7.915h3.97l1.495 6.456h.037l1.74-6.456h1.32l-2.134 7.915h-3.933"/><path fill="#FFF" d="M86.781 140.56l-2.542 9.431h4.615l2.543-9.431H86.78"/><path fill="#A08F66" d="M85.232 149.233l2.134-7.915h3.037l-2.134 7.915h-3.037"/><path d="M103.625 140.56l-3.125 4.758-.447-4.758h-4.769l.912 9.431h4.503l6.205-9.431h-3.279" fill="#FFF"/><path fill="#A08F66" d="M100.286 149.233H96.89l-.766-7.915h3.236l.584 6.234 4.095-6.234h1.456l-5.208 7.915"/><path d="M110.656 140.56l-2.542 9.431h8.472l.763-2.826h-3.859c.082-.303.1-.375.165-.612h3.535l.76-2.827h-3.533l.092-.34h3.858l.763-2.826h-8.474" fill="#FFF"/><path fill="#A08F66" d="M109.107 149.233l2.134-7.915h6.895l-.354 1.31h-3.858l-.5 1.856h3.534l-.353 1.311h-3.535l-.574 2.128h3.859l-.354 1.31h-6.894"/><path d="M127.812 143.386l-.092.34h-.637l.092-.34h.637zm-4.49-2.826l-2.543 9.431h4.615l.73-2.704.406 2.704h4.922l-.774-3.596c.678-.24 1.144-.768 1.37-1.604l.41-1.52c.09-.331.134-.631.134-.901 0-.43-.113-.787-.339-1.08-.505-.654-1.397-.73-2.024-.73h-6.907z" fill="#FFF"/><path d="M128.685 143.074c.1-.37-.004-.445-.327-.445h-1.768l-.5 1.855h1.767c.36 0 .482-.124.568-.445l.26-.965zm-1.498 6.16l-.517-3.439h-.933l-.928 3.438h-3.036l2.134-7.915h6.322c1.307 0 1.853.42 1.493 1.756l-.41 1.521c-.187.693-.548 1.2-1.543 1.2l.74 3.438h-3.322z" fill="#A08F66"/><path d="M139.685 140.56c-1.358 0-2.448.912-2.844 2.38l-.51 1.892a3.638 3.638 0 0 0-.144.934c0 .353.079.715.318 1.025.127.165.28.281.444.374h-1.247l-.762 2.826h6.868c1.084 0 2.49-.421 3.032-2.43l.56-2.077a2.56 2.56 0 0 0 .094-.663c0-.486-.169-.827-.34-1.047a1.68 1.68 0 0 0-.447-.388h1.257l.763-2.826h-7.042" fill="#FFF"/><path d="M141.808 149.233h-5.874l.353-1.31h4.256c.386 0 .496-.087.566-.347l.147-.544c.073-.272-.031-.346-.418-.346h-2.6c-1.145 0-1.501-.433-1.17-1.658l.509-1.892c.264-.977.976-1.818 2.108-1.818h6.048l-.353 1.31h-4.194c-.41 0-.555.075-.621.322l-.138.507c-.063.236.042.31.453.31h2.264c1.158 0 1.81.445 1.52 1.521l-.56 2.078c-.33 1.224-1.065 1.867-2.296 1.867" fill="#A08F66"/><path fill="#FFF" d="M150.82 140.56l-2.542 9.431h4.615l2.542-9.431h-4.614"/><path fill="#A08F66" d="M149.271 149.233l2.134-7.915h3.038l-2.135 7.915h-3.037"/><path d="M159.342 140.56l-.762 2.826h2.513c-.375 1.397-1.78 6.605-1.78 6.605h4.614s1.527-5.665 1.782-6.605h2.512l.763-2.826h-9.642" fill="#FFF"/><path fill="#A08F66" d="M165.123 142.629l-1.78 6.604h-3.036l1.78-6.604h-2.514l.353-1.311h8.064l-.353 1.31h-2.514"/><path d="M180.6 140.56l-2.336 2.604-.973-2.604h-5.232l2.153 5.622-1.027 3.81h4.616s.81-3.011.895-3.32l5.492-6.112h-3.587" fill="#FFF"/><path fill="#A08F66" d="M180.943 141.318l-2.954 3.29-1.229-3.29h-3.596l1.85 4.824-.835 3.091h3.036l.79-2.931 4.48-4.984h-1.542"/></g></svg>