<svg width="200" height="200" xmlns="http://www.w3.org/2000/svg"><g fill-rule="nonzero" fill="none"><path d="m189.496 106.136 1.31-4.892h-10.271c-2.161-11.538-7.765-16.951-11.793-18.736.028-.432.052-.874.052-1.365 0-1.264-.12-2.746-.44-4.46 1.856-1.776 2.94-4.455 2.94-7.411 0-.263-.009-.527-.027-.794-.258-4.033-2.475-7.567-5.982-9.7l-.003-.176c0-3.864.702-7.197 2.072-9.962.126.055.26.118.382.17l2.598 1.093.25-2.809c.055-.619.179-1.19.356-1.652l.69-1.788-1.733-.816c-1.046-.492-3.016-1.63-5.122-3.875.073-.24.151-.452.231-.664 1.288.697 3.075 1.355 5.085 1.208 2.155-.16 4.129-1.248 5.707-3.149 1.106-1.335.845-3.479.014-4.907-.798-1.37-2.092-2.045-3.461-1.802l.04-.004c-.254 0-1.583-.472-3.467-2.781-3.835-4.702-12.014-8.799-20.223-7.526-4.285.664-9.955 3.07-13.634 10.506-3.212-1.695-5.651-3.245-6.813-4.35l-1.466-1.396-1.42 1.442c-.667.678-1.934 1.84-3.552 2.796-1.16-.78-2.772-1.835-4.471-2.85l-1.196-.717-1.109.845c-1.861 1.42-6.846 4.653-13.99 5.523-4.155-5.93-11.973-10.592-22.408-6.95-7.038 2.456-8.942 5.264-10.622 7.74-1.025 1.513-1.91 2.819-4.112 4.112-1.665.979-2.604 2.49-2.577 4.145.029 1.703 1.074 3.28 2.795 4.215 1.799.977 4.011 1.107 6.276.459-.103 1.019-.282 2.018-.597 2.695l-.5 1.075.68.972a50.202 50.202 0 0 0 2.462 3.23 83.275 83.275 0 0 1-.64 3.292c-2.121 1.226-2.39 1.426-3.952 2.767l-.027.023-.027.025a23.948 23.948 0 0 0-2.098 2.23c-7.488 1.306-12.748 7.817-14.114 9.686-7.493 3.304-12.78 8.085-15.686 14.244-1.88 3.983-2.805 8.58-2.805 13.978 0 .298.023.616.028.919H22.1L0 181.555l169.01.004c6.462 0 11.55-4.005 13.277-10.453l17.639-64.97h-10.43" fill="#FFF"/><path d="M182.502 103.823h-.815l.148-.557h2.356l-.15.557h-.815l-.62 2.313h-.724l.62-2.313Zm2.26-.557h.975l.205 1.812h.014l1.175-1.812h.975l-.769 2.87h-.641l.545-2.034h-.014l-1.297 2.034h-.53l-.207-2.034h-.014l-.545 2.034h-.64l.768-2.87Z" fill="#231F20"/><path d="M179.306 108.195c-.954-17.712-9.28-23.543-12.763-24.267.27-2.042.367-4.52-.45-8.044 4.5-2.942 4.677-12.26-2.842-15.894-.18-4.657.485-9.746 3.245-14.03.591.3 1.31.646 2.037.952.057-.628.189-1.436.487-2.211-1.379-.65-3.934-2.146-6.521-5.188.298-1.3.867-3.147 1.83-4.153 0 0 5.514 4.95 9.885-.317.708-.854-.11-3.614-1.503-3.367-1.273.226-3.3-.958-5.382-3.51-6.154-7.547-24.508-12.61-31.274 4.5-2.5-1.245-7.125-3.688-9.22-5.681-.873.886-2.743 2.6-5.142 3.757-1.116-.77-3.181-2.161-5.405-3.49-2.118 1.615-7.922 5.42-16.249 6.089-1.49-2.45-8.065-11.628-20.718-7.211-10.774 3.76-7.966 7.922-14.37 11.684-4.247 2.496.795 8.098 7.593 3.853 0 0 .266 4.304-.872 6.753.588.841 1.75 2.446 2.953 3.794-.22 1.624-.749 4.1-1 5.236-2.834 1.632-2.834 1.632-4.43 3.001-.93.856-1.783 1.856-2.381 2.61-8.215.95-13.859 9.425-13.859 9.425-16.276 6.904-18.33 19.21-17.706 29.567H23.674L2.69 179.498l166.32.004c5.571 0 9.791-3.34 11.288-8.93l16.936-62.377h-17.928" fill="#231F20"/><path d="m135.892 55.664 1.386-.067s.44.514.803 1.148c1.064-1.094 3.318-1.642 3.318-1.642-1.664-3.432 1.77-7.328 1.77-7.328-1.236 3.813.365 5.914 1.345 6.785 6.011-2.812 11.64-10.94 11.64-10.94 6.308 6.9 3.858 10.092 3.858 10.092-.593-3.191-3.561-6.753-3.561-6.753-.597 1.41-2.007 2.969-3.555 4.38 3.343.083 7.134 2.183 7.606 6.197.123.045.246.09.36.134-.083-6.357 2.515-11.135 3.61-12.86-1.623-1.11-2.736-2.438-3.361-3.31-19.834 2.743-21.868 8.516-21.868 8.516-1.868-2.114-.25-5.21.716-5.733 2.515-2.766 6.067-3.922 7.965-4.366-4.11-1.076-8.125-2.774-11.553-4.485l.002.001c-5.921-.13-8.339-1.843-8.97-2.399.508.462 5.009 4.745 5.646 11.895.64.778 1.485 2.5 1.485 2.5 4.101 2.115 2.363 6.574 1.358 8.235" fill="#A08F66"/><path d="M156.012 57.575c1.386.284 1.934.458 3.016.748 0-.933-.389-1.97-1.021-2.508-.763.18-1.746.812-1.995 1.76" fill="#A08F66"/><path d="M150.583 58.133s-6.518-1.624-10.404.555c1.976.006 7.692.15 10.187 1.37.226-.503.445-1.24.217-1.925" fill="#7B7979"/><path d="M119.326 76.262a15.72 15.72 0 0 0-1.635 2.086 20.427 20.427 0 0 1 1.683-1.153 34.769 34.769 0 0 1-.048-.933" fill="#BDBCBC"/><path d="M112.382 59.001a90.468 90.468 0 0 1 4.583-.93c-.13-1.071.151-1.96.765-2.652-3.489.634-4.861 2.168-5.348 3.582M149.278 54.294c-.54.416-1.08.829-1.348 1.021 2.257.216 4.475.847 4.475.847l.363 1.088c.64.044 1.547.117 1.547.117.185-.554.532-1.652.954-2.454-1.323-.445-3.768-.756-5.99-.619" fill="#FFF"/><path d="M150.514 53.336c-.287.225-.761.593-1.236.958 2.222-.137 4.668.174 5.99.619.204-.386.425-.704.654-.859-1.198-.58-2.924-.904-5.408-.718M117.734 55.418c.337-.38.772-.702 1.296-.96-6.014.4-7.411 2.935-7.615 4.772.321-.078.644-.152.966-.226.486-1.416 1.859-2.951 5.353-3.586" fill="#BDBCBC"/><path d="M122.25 56.2c-.33-.203-.661-.411-.992-.625-1.045.29-2.136 1.186-2.176 2.146.526-.08 1.047-.148 1.57-.22.32-.56.943-1.037 1.597-1.3" fill="#A08F66"/><path d="m120.988 75.666.003.574c.91-.51 1.714-.926 2.137-1.139-.001-.248.003-.5.01-.748v.002c-.804.443-1.522.888-2.15 1.31M138.547 71.048a34.776 34.776 0 0 1 3.962.004c.026-.082.053-.159.08-.233a34.695 34.695 0 0 0-3.793-.267s-.165.292-.249.496M130.265 72.37c.295-.085.733-.202 1.29-.334.002-.246.012-.51.033-.783-.575.12-1.132.252-1.672.395.112.248.23.496.349.721M133.238 71.682a40.98 40.98 0 0 1 3.626-.51c.07-.212.144-.403.22-.575-1.31.047-2.558.164-3.74.342 0 0-.08.425-.106.743" fill="#FFF"/><path d="M147.513 71.722c-.646-.368-1.576-.805-2.819-1.185a3.465 3.465 0 0 0-.438.659c1.068.115 2.158.286 3.257.526M123.138 74.355c.014-.424.038-.836.064-1.195-.813.472-1.532.983-2.167 1.5-.026.29-.043.628-.047 1.006a28.264 28.264 0 0 1 2.15-1.31M131.734 70.189c-.726.125-1.475.27-2.255.445.12.295.273.655.436 1.014.541-.143 1.099-.276 1.674-.395.027-.35.07-.71.145-1.064M133.344 70.939a33.198 33.198 0 0 1 3.74-.342c.195-.44.403-.756.582-.976a35.066 35.066 0 0 0-3.995.279 5.185 5.185 0 0 0-.327 1.039M138.796 70.58c1.215.016 2.48.097 3.794.251.12-.305.244-.55.361-.736a23.45 23.45 0 0 0-3.343-.427 3.604 3.604 0 0 0-.812.912" fill="#BDBCBC"/><path d="M86.109 82.343c.001-.008.004-.015.005-.019-.016-.093-.037-.187-.053-.281.017.101.03.202.048.3" fill="#A08F66"/><path d="M141.584 102.773c.537-1.986-.098-3.702-.098-3.702-1.588 5.718-9.782 7.355-9.782 7.355 8.58-5.098 9.592-14.979 9.592-14.979 1.588 2.414 1.714 5.147 1.714 5.147 3.453-2.115 5.464-8.387 5.464-8.387.7 10.674-6.89 14.566-6.89 14.566ZM123.77 84.22c.714 1.754 4.414 3.581 4.414 3.581-2.356 5.737-11.142 8.44-14.617 4.798 7.097 1.68 11.309-4.216 11.309-4.216-3.25-1.568-3.81-4.706-3.81-4.706 3.025-5.042 28.35-9.973 32.159-2.576 0 0-3.52 3.516-8.964 4.468a14.23 14.23 0 0 0 4.502-4.842c-11.541-3.294-24.993 3.493-24.993 3.493Zm-44.887-2.752c0-12.49 15.485-20.795 15.485-20.795s-1.833-.923-7.196.244c0 0 7.937-4.222 15.257-1.346 0 0-21.253 6.682-21.253 21.924C81.176 89.4 89.63 94.2 91.37 94.2c0 0-12.487-.242-12.487-12.732Zm15.702-27.895c2.234.509 7.565 1.992 11.867 5.285 0 0-8.472-4.77-15.282-2.021.382-1.005 1.29-2.473 3.415-3.264Zm-3.602-21.054c-1.011-1.192-2.64-2.07-4.67-2.445-2.958-.548-7.319-.055-9.869 3.132-.965 1.206-2.78 3.19-4.825 3.514 2.554-3.397 5.85-7.37 13.366-7.533 3.458-.073 5.769.943 7.225 1.993-.43.356-.85.796-1.227 1.339Zm21.374 5.589c4.816 8.34 19.021 15.584 19.021 15.584-7.108 1.513-18.545-9.57-21.06-14.575 0 0 .898-.612 2.039-1.01Zm53.467 27.037c-5.307-3.269-12.716-3.676-12.716-3.676 4.646.455 9.684 3.174 10.148 6.325.505 3.42-3.87 4.206-3.87 4.206 1.951-1.63 2.063-2.947 2.063-2.947a57.844 57.844 0 0 0-4.737-1.806c.737 1.602 1.321 4.088.86 7.747 4.58 4.85-.09 8.98-2.446 9.848-1.618.595-2.095 1.84-2.175 2.925-.973-2.813 1.73-4.539 1.73-4.539 1.423-1.048 2.211-2.157 2.419-3.244-26.791-16.025-49.418 13.17-49.418 13.17.283-7.023 4.858-11.651 6.857-13.346 1.548-3.886 4.707-6.86 8.583-8.899.284-1.26.844-2.748 1.934-4.053-10.043 3.198-17.304 9.125-19.761 14.143-3.002-9.444 10.257-16.612 21.586-19.547-32.129 3.003-39.241 15.55-40.815 20.889.827 4.727 5.125 8.536 8.85 10.15-10.34-.672-15.042-11.364-8.328-19.91 4.75-6.045 13.218-10.18 22.373-12.714-.442-5.689 5.707-7.009 8.051-7.305a104.768 104.768 0 0 1-7.993-6.822 12.914 12.914 0 0 0-2.89 2.065l3.646-5.076c3.402 5.84 14.65 12 17.71 13.621 1.637-.233 3.775-.294 4.857-.474 2.265-2.015 2.373-3.284 2.373-3.284-3.955-11.541-20.268-18.912-20.268-18.912-5.247 2.97-10.966 1.367-10.966 1.367.25.86.308 1.655.3 2.239 2.54-.702 6.165-.25 6.165-.25-2.36.393-5.408 2.052-7.104 3.064-1.744-6.426-8.149-7.412-10.626-6.685a5.258 5.258 0 0 1 2.553-1.967c-1.191-1.355-4.189-3.906-9.817-3.785-9.904.214-13.22 6.615-16.06 10.12-.469.576-1.171 1.02-1.78 1.374 1.27.125 4.455.063 8.414-2.752 0 0 .755-.554 2.109-2.246 3.369-4.212 11.654-3.217 12.818.431-2.52-1.763-6.159-1.09-6.159-1.09 4.851 1.563 4.44 7.154 4.44 7.154-1.71-5.54-6.827-5.506-8.503-5.336-1.03 2.446.372 6.834 3.813 3.525 2.87 1.423 1.783 7.93-2.545 8.717 0 0 2.446-1.986 2-5.481-.54.224-1.26.41-2.039.323.03 1.48-1.498 3.529-4.154 3.596 0 0 2.369-1.118 2.23-4.377-.592-.459-1.67-1.557-1.93-3.576-1.034.888-2.204 2.172-2.763 2.802.403 2.974-.152 5.76-.468 7.01.968 1.57 2.436 3.228 3.273 4.126 5.485-3.514 13.39-2.706 16.016-10.697-.992-1.535-1.538-4.187-1.538-4.187 1.306 1.567 4.31 2.873 4.31 2.873C94.17 51.292 83.3 50.528 76.462 55.184c0 0-1.654 10.278-5.79 18.666-.746 4.403-.995 14.185 1.085 18.958.916-3.57 4.078-6.365 6.515-7.44-4.034 4.414-10.125 17.148 4.36 24.081 11.405 5.46 22.31-6.538 23.155-10.634-.225 1.216-1.528 6.925-6.694 10.867 28.002-.381 38.175-18.81 38.175-18.81-.088 1.913-.442 3.357-.76 4.296-.285.847-.54 1.283-.54 1.283s.58 6.587-12.579 11.745c8.525 2.86 26.325-2.196 29.724-18.132 0 0 .295 3.445-1.315 7.22.142 1.06.04 3.013-1.527 5.84 12-5.354 16.244-21.446 13.061-28.24 4.52-2.149 4.298-7.243 2.492-9.739ZM152.762 25.755c-2.37.001-4.31.714-5.613 2.062 0 0-.62.643-1.133 1.17a5.675 5.675 0 0 0-2.592-.842c3.019-2.663 7.164-3.193 8.39-3.157 4.846.147 7.995 1.798 10.385 3.727-3.057-1.85-6.467-2.963-9.437-2.96Zm-.902-2.29c-2.28-.07-9.122 1.105-12.025 6.84 0 0 3.94-1.866 6.22.69-1.355-.644-5.376.501-6.17 3.49a86.28 86.28 0 0 0 3.616 1.476c.632-4.369 4.696-3.997 4.696-3.997-2.37 1.513-2.274 3.836-2.049 4.98 1.804.648 3.941 1.373 6.4 2.134 0 0 4.086-.505 6.796-.178.586-1.273 1.943-4.015 3.198-5.056-1.08-.97-2.226-1.982-3.533-2.855-.116 2.32-2.208 4.261-5.768 3.324 0 0-.552 1.866 1.6 3.407-1.497.3-4.963-1.958-2.906-5.532 2.245 1.516 5.306.199 4.83-2.45-2.255-1.01-4.986-1.497-8.519-.86 3.33-3.446 12.039-1.018 17.296 4.4 1.981 2.038 5.26 2.723 6.362.609-5.192.486-6.986-10.028-20.044-10.422Z" fill="#A08F66"/><path d="M143.424 28.145c.862.07 1.758.316 2.592.843.513-.528 1.133-1.171 1.133-1.171 1.303-1.348 3.243-2.061 5.613-2.062 2.97-.003 6.38 1.11 9.437 2.96-2.39-1.93-5.54-3.58-10.386-3.727-1.225-.036-5.37.494-8.389 3.157M131.378 53.692s-14.205-7.245-19.021-15.584c-1.141.397-2.039 1.009-2.039 1.009 2.515 5.006 13.952 16.088 21.06 14.575M81.176 81.495c0-15.242 21.253-21.924 21.253-21.924-7.32-2.876-15.257 1.346-15.257 1.346 5.363-1.167 7.196-.244 7.196-.244s-15.485 8.306-15.485 20.795c0 12.49 12.487 12.732 12.487 12.732-1.74 0-10.194-4.8-10.194-12.705" fill="#C3B597"/><path d="M143.01 96.594s-.126-2.733-1.714-5.147c0 0-1.013 9.88-9.592 14.979 0 0 8.194-1.637 9.782-7.355 0 0 .635 1.716.098 3.702 0 0 7.59-3.892 6.89-14.566 0 0-2.01 6.272-5.464 8.387" fill="#FFF"/><path d="M84.985 29.187c-7.515.162-10.812 4.136-13.366 7.533 2.045-.325 3.86-2.308 4.825-3.514 2.55-3.187 6.91-3.68 9.87-3.132 2.029.375 3.658 1.253 4.67 2.445a6.676 6.676 0 0 1 1.226-1.339c-1.456-1.05-3.767-2.066-7.225-1.993" fill="#C3B597"/><path d="M99.093 109.682c8.856 2.165 26.076-1.041 36.876-13.231 0 0 .254-.436.54-1.283.317-.94.67-2.383.76-4.296 0 0-10.174 18.429-38.176 18.81M60.895 84.146l1.285 1.875s1.316-.16 1.453-1.643c.114-1.485-1.155-1.864-1.155-1.864l-1.583 1.632" fill="#FFF"/><path d="m62.18 86.021-1.285-1.875 2.738.232a1.739 1.739 0 0 1-1.453 1.643" fill="#BDBCBC"/><path d="m65.022 70.415.377 1.547s.901.22 1.359-.717c.442-.945-.296-1.507-.296-1.507l-1.44.677" fill="#FFF"/><path d="m65.4 71.962-.378-1.547 1.736.83c-.458.937-1.359.717-1.359.717" fill="#BDBCBC"/><path d="m62.027 80.789.67.2a38.677 38.677 0 0 1 2.084-7.609l-.643-.158-.51-2.087c-1.881 3.727-3.038 7.766-3.658 11.775l2.057-2.121M68.31 73.26c1.445-.684 3.198-6.927 3.706-8.998-1.54 1.212-2.879 2.911-3.99 4.982.423.697.578 1.655.102 2.67-.434.89-1.156 1.365-1.883 1.53-.867 2.621-1.46 5.577-1.744 8.732.428.557.729 1.326.65 2.343-.08.878-.417 1.525-.845 1.99a53.046 53.046 0 0 0 1.287 11.61c.538.452 1.004 1.117 1.24 2.07.198.853.123 1.585-.093 2.192a48.815 48.815 0 0 0 2.246 5.814h7.372C65.353 97.697 68.31 73.26 68.31 73.26M66.65 67.965l.57.433c1.537-2.549 3.356-4.705 5.372-6.37.273-1.102.435-1.824.435-1.824-3.422 2.358-6.064 5.298-8.073 8.558l.86-.404.837-.393M62.955 97.259a47.586 47.586 0 0 1-.856-9.692l-.653.08-1.762-2.57c-.639 5.89-.18 11.579.774 15.96l1.816-3.758.681-.02" fill="#7B7979"/><path d="m67.22 68.398.167.127c.242.185.463.43.639.719 1.111-2.07 2.45-3.77 3.99-4.982.166-.616.553-2.138.577-2.233-2.017 1.664-3.836 3.82-5.373 6.37M64.884 104.45l.029.086.001.005c.364.297 2.298 1.83 2.524 3.654h1.548a48.815 48.815 0 0 1-2.246-5.814c-.494 1.422-1.856 2.07-1.856 2.07M62.364 87.535l-.265.032c-.05 3.11.22 6.36.856 9.692l.243-.008c.6-.017 1.58.183 2.395.868a53.046 53.046 0 0 1-1.287-11.61c-.617.67-1.424.963-1.942 1.026M65.036 73.443l-.255-.063a38.677 38.677 0 0 0-2.083 7.608l.215.065c.45.134 1.101.492 1.588 1.123.285-3.155.877-6.11 1.744-8.731-.419.095-.84.088-1.209-.002" fill="#BDBCBC"/><path d="m62.007 101.334 2.263 1.72s1.498-.706 1.077-2.52c-.448-1.808-2.103-1.758-2.103-1.758l-1.237 2.558" fill="#FFF"/><path d="m64.27 103.054-2.263-1.72 3.34-.8c.42 1.814-1.077 2.52-1.077 2.52" fill="#BDBCBC"/><path d="M155.075 68.074c-.619 2.16-2.79 4.598-3.141 4.984.594.028 1.25.16 1.891.382.696-.888.87-2.42.87-2.42s.33.469.146 2.86c.318.17.62.362.898.577.321-3.022-.664-6.383-.664-6.383M126.837 67.401c-2.017 1.682-1.987 6.927-1.987 6.927.36-.165.745-.317 1.138-.457-.246-1.918.453-3.974.453-3.974-.17 1.662.523 3.423.603 3.63.617-.186 1.21-.34 1.701-.457-1.337-2.247-1.908-5.669-1.908-5.669" fill="#FFF"/><path d="M126.441 69.897s-.7 2.057-.453 3.976c.352-.126.707-.241 1.056-.346-.078-.202-.774-1.966-.603-3.63M154.841 73.881c.183-2.392-.145-2.86-.145-2.86s-.175 1.533-.87 2.42c.346.12.688.267 1.015.44" fill="#BDBCBC"/><path d="M55.766 102.053c1.117 0 2.149.064 3.108.187-1.52-6.426-3.864-22.256 6.014-36.622 0 0-7.202 3.317-9.299 7.267 0 0 1.915.008 3.089.877-8.907.128-23.202 8.77-21.592 28.29h18.68" fill="#A08F66"/><path d="M42.118 102.053c-.1-7.342 1.69-17.78 11.823-21.797 0 0 .054 4.865 1.137 6.758 0 0 .484-6.225 2.182-10.807 0 0-18.992 3.586-17.606 25.846h2.464" fill="#C3B597"/><path d="M176.911 108.195c-.137-5.015-2.22-18.43-10.742-22.037-3.418 13.879-12.944 18.697-17.314 20.266l-4.006 1.77h32.062" fill="#A08F66"/><path d="M150.792 63.047c-.943.523-1.943 1.317-2.55 1.832.081.111.154.221.223.331a53.43 53.43 0 0 1 5.762 1.278c.272-.553.506-1.12.679-1.692 0 0 .995.692 1.805 2.45a57.685 57.685 0 0 1 4.738 1.807c.687-3.64-5.966-6.113-10.657-6.006M125.056 66.856c.757-.906 1.77-1.723 3.125-2.312 0 0 .058.558.203 1.38a50.264 50.264 0 0 1 16.525-1.173c-.905-.838-1.932-1.608-2.803-2.21C119.526 61.143 106.74 73.13 105.295 81c2.457-5.018 9.718-10.945 19.761-14.143M140.34 72.92c-15.295.358-27.557 9.355-32.658 20.233 0 0 22.627-29.194 49.418-13.17.728-3.794-5.611-7.324-16.76-7.063" fill="#C3B597"/><path d="M133.049 44.929c-7.931-9.007-16.188-12.792-18.94-13.874-2.625 2.407-8.195 3.58-10.628 3.992 0 0 5.72 1.604 10.966-1.367 0 0 16.313 7.37 20.268 18.912.705-2.209.098-4.37-.18-5.164 0 0-.846-1.721-1.486-2.5M145.278 42.681l-5.32 1.602c-.966.522-2.583 3.62-.715 5.733 0 0 2.034-5.773 21.868-8.516-5.944-.709-11.662.163-15.833 1.181" fill="#FFF"/><path d="M133.049 44.929s-3.097-6.29-9.637-12.531c1.072-.488 2.708-1.342 3.671-2.366a85.176 85.176 0 0 0 9.29 5.401c-6.08-.133-8.466-1.937-9.016-2.441 0 0 5.016 4.359 5.692 11.937M127.438 61.312c3.959-.983 7.64-1.439 10.257-1.281l.025-.066c-.62-1.035-1.716-1.951-1.716-1.951-8.878.423-18.353 1.819-26.67 4.24 7.516-.776 13.582-.974 18.104-.942M153.247 59.64c.029.4.031 1.258-.14 1.83 0 0 7.41.406 12.717 3.675-1.787-2.723-5.71-5.036-12.577-5.504M75.526 36.405c-3.96 2.816-7.146 2.877-8.415 2.752-.688.4-1.257.686-1.227.92.13 1.007 3.108 1.566 6.45-.993a42.007 42.007 0 0 0 3.192-2.68" fill="#FFF"/><path d="M109.334 62.255v-.001c-9.321 2.714-17.188 6.716-21.13 12.087-2.053 2.798-2.572 5.526-2.138 8.002 1.572-5.338 8.682-17.888 40.816-20.891.184-.048.369-.095.553-.14-4.521-.032-10.587.167-18.101.943" fill="#C3B597"/><path d="M148.466 65.21c1.502 2.39.154 4.435.154 4.435.965.384 1.849.77 2.664 1.156 1.086-1.263 2.6-3.356 2.943-4.313a53.48 53.48 0 0 0-5.761-1.278M128.384 65.923s.239 1.414.645 2.723c5.82-1.518 12.172-1.334 16.944.642.929-1.372.865-2.195.865-2.195-.81-1.556-1.93-2.342-1.93-2.342a50.264 50.264 0 0 0-16.524 1.172M44.674 122.298h-5.628l1.697-6.332h5.629l-1.698 6.332Zm-2.346 8.76-2.719 10.148-.006.02H33.975l2.73-10.19H42.333c-.001.009-.002.013-.005.021Zm14.625-4.457c1.539-.94 2.845-2.44 3.497-4.873l1.726-6.44c.642-2.396.47-4.29-.508-5.626-1.199-1.638-3.583-2.435-7.288-2.435H27.462l-11.45 42.738h26.916c6.607 0 10.683-2.713 12.116-8.06l2.893-10.798c.611-2.28.112-3.645-.984-4.506ZM75.243 121.689H72.91l.381-1.424h2.334l-.382 1.424Zm6.749-8.319H63.76l-6.496 24.246h11.378l2.14-7.984 1.192 7.984h12.571l-2.04-9.528c1.445-.588 2.892-1.829 3.576-4.382l1.071-3.997c.553-2.064.44-3.588-.343-4.659-1.103-1.506-3.277-1.68-4.817-1.68Z" fill="#A08F66"/><path fill="#A08F66" d="m158.176 113.37-3.094 11.55-2.659-11.55h-13.157l-6.303 23.521-3.437-23.52h-10.168l-18.065 24.213 2.385-8.9 13.68-15.314h-8.1l-6.367 7.138-2.649-7.138h-13.51l5.676 14.909-2.502 9.337h19.011l4.227-5.589h6.912l.874 5.59h18.733l3.147-11.745 2.703 11.744h13.062l6.496-24.246h-6.895M166.168 113.37l-1.85 6.895h6.564l-4.648 17.351h11.378l4.65-17.351h6.563l1.847-6.895h-24.504M21.875 168.81h-1.97l.459-1.708h1.969l-.458 1.708Zm1.943-7.248h-1.97l.304-1.135h1.97l-.304 1.135Zm9.352-5.26c-.697-.953-2.043-1.416-4.116-1.416H14.498l-5.215 19.465h14.556c4.703 0 6.375-2.557 6.95-4.7l.803-2.999c.296-1.104.152-1.854-.247-2.38.682-.563 1.251-1.367 1.56-2.521l.58-2.165c.372-1.386.266-2.491-.315-3.285ZM51.077 154.886l-3.731 13.924-5.823-.002c.006-.033 3.725-13.922 3.725-13.922h-9.139l-3.516 13.123c-.562 2.099-.437 3.724.372 4.829.725.99 1.994 1.513 3.672 1.513h9.022c5.147 0 6.712-3.62 7.442-6.342l3.516-13.123h-5.54M63.442 168.81l3.731-13.924h-9.139l-4.843 18.077-.372 1.388h17.222l1.484-5.54h-8.083M81.994 168.81l3.731-13.924h-9.138l-5.216 19.465h17.222l1.485-5.54h-8.084M102.165 168.81h-1.734l2.246-8.383h1.735l-2.247 8.383Zm10.911-12.48c-.7-.958-1.895-1.444-3.549-1.444H95.023l-5.215 19.465h14.504c3.5 0 6.094-2.188 7.116-6.004l2-7.457c.53-1.983.412-3.517-.352-4.56ZM124.51 168.81h-2.491l2.246-8.383h2.491l-2.246 8.383Zm10.91-12.48c-.7-.958-1.895-1.444-3.549-1.444h-9.752c-1.654 0-3.108.486-4.322 1.443-1.323 1.044-2.263 2.578-2.794 4.561l-1.998 7.457c-.532 1.984-.414 3.518.35 4.56.7.959 1.895 1.444 3.55 1.444h9.751c3.5 0 6.094-2.188 7.117-6.004l1.998-7.457c.53-1.983.413-3.517-.35-4.56ZM144.458 154.886c-1.654 0-3.108.486-4.322 1.443-1.324 1.044-2.264 2.578-2.795 4.561l-1.997 7.457c-.532 1.984-.414 3.518.35 4.56.7.959 1.895 1.444 3.549 1.444h14.635l3.426-12.789H146.3l.305-1.135h10.56l1.484-5.54h-14.191M165.48 154.886c-1.337 0-2.61.446-3.678 1.288-1.18.932-2.069 2.328-2.499 3.934l-1.07 3.989c-.454 1.702-.386 2.878.216 3.702.409.56 1.008.855 1.633 1.011h-3.11l-1.485 5.541h13.695c3.269 0 5.663-1.942 6.57-5.326l1.174-4.38c.344-1.285.222-2.38-.357-3.17-.338-.461-.822-.81-1.44-1.048h2.927l1.485-5.54h-14.06"/><path d="M44.054 131.057c.4-1.497-.081-1.746-1.278-1.746h-7.334l-3.654 13.64h7.333c1.247 0 1.84-.349 2.213-1.745l2.72-10.149Zm4.051-15.12c.361-1.347-.044-1.696-1.292-1.696H39.48l-2.62 9.782h7.332c1.347 0 1.867-.449 2.227-1.795l1.686-6.292Zm-4.714 32.302H18.199l10.526-39.286h25.192c5.837 0 7.683 2.045 6.534 6.335l-1.726 6.44c-1.056 3.942-4.21 4.54-8.23 4.84l-.027.1c4.193.548 6.68.947 5.744 4.44l-2.893 10.796c-1.083 4.04-3.842 6.335-9.928 6.335ZM77.499 119.71c.26-.975-.012-1.17-.857-1.17h-4.614l-1.306 4.874h4.614c.943 0 1.257-.325 1.484-1.17l.679-2.535Zm-3.914 16.18-1.348-9.032h-2.438l-2.42 9.033h-7.928l5.572-20.796h16.506c3.412 0 4.838 1.105 3.898 4.614l-1.071 3.997c-.488 1.82-1.43 3.152-4.029 3.152l1.934 9.033h-8.676ZM102.085 128.19l-2.064 7.7h-7.928l2.177-8.122-4.826-12.673h9.39l3.208 8.644 7.71-8.644h4.03l-11.697 13.095M120.141 119.84l-5.065 7.018h6.142l-1.077-7.019Zm2.393 16.05-.875-5.588h-9.13l-4.227 5.589h-3.834l15.515-20.796h7.928l3.039 20.796h-8.416ZM147.043 135.89l-3.964-17.22h-.065l-4.614 17.22h-3.444l5.572-20.795h10.365l3.904 16.961h.096l4.546-16.96h3.445l-5.573 20.795h-10.268M181 118.54l-4.65 17.35h-7.93l4.65-17.35h-6.563l.923-3.445h21.055l-.923 3.445h-6.563" fill="#FFF"/><path d="M29.865 142.952h.776l3.924-14.784h8.21c.426 0 1.234.006 1.842.47-.285-.73-.92-1.233-2.413-1.233h-8.211l-4.128 15.547M58.838 111.179c.312.714.294 1.716-.064 3.05l-2 7.375c-.552 2.06-1.744 3.025-3.81 3.53 2.59-.448 4.034-1.377 4.656-3.702l1.726-6.44c.758-2.83-.21-3.566-.508-3.813M46.242 112.335H38.03l-3.084 11.688h.777l2.879-10.926h8.21c.592 0 1.3.068 1.84.485-.093-.236-.419-1.247-2.411-1.247" fill="#BDBCBC"/><path d="M54.67 128.761c.052.323.01.752-.134 1.288l-2.894 10.797c-.726 2.714-2.343 5.487-8.823 5.487H19.893l-.204.763H43.39c6.48 0 8.096-2.774 8.823-5.488l2.893-10.797c.422-1.573-.097-1.852-.437-2.05M76.07 116.634h-5.49l-1.817 6.774h.776l1.612-6.012h5.491c.3 0 .924.006 1.427.366a1.557 1.557 0 0 0-.24-.45c-.52-.678-1.387-.678-1.758-.678M71.955 124.952H68.35l-2.42 9.033h-4.785l-.204.762h5.56l2.42-9.033h3.148l-.114-.762M84.328 116.93a1.144 1.144 0 0 0-.38-.304c.121.578-.025 1.38-.198 2.025l-1.07 3.996c-.401 1.495-.985 2.305-2.925 2.305h-1.868l1.934 9.033h-5.364l.114.762h6.276l-1.934-9.033h1.414c1.94 0 2.524-.81 2.924-2.304l1.071-3.997c.226-.842.41-1.956.006-2.483M98.04 116.239h-.766l3.18 8.74.62-.516-3.035-8.224M110.265 116.239l-9.9 11.056-1.793 6.69h-4.784l-.205.762h5.56l1.908-7.116 10.176-11.392h-.962M119.885 118.522l-.178-1.16-7.048 9.38h1.041l6.185-8.22M126.922 116.239h-.841l2.593 17.746h-5.28l.119.762h6.114l-2.705-18.508M121.304 128.396h-9.818l-4.738 6.351h.985l4.227-5.589h9.463l-.12-.762M152.865 132.056h.776l-3.657-15.817h-.779l3.66 15.817" fill="#BDBCBC"/><path fill="#BDBCBC" d="m160.617 116.239-4.754 17.746h-8.084l.174.762h8.481l4.96-18.508h-.777M141.544 116.844l-4.593 17.14h-.3l-.205.763h1.077l4.38-16.345-.36-1.558M186.219 116.239l-.106.395h-6.564l-4.649 17.35h-4.785l-.204.763h5.56l4.65-17.351h6.564l.31-1.157h-.776M173.38 117.396l.205-.762h-5.383l-.205.762h5.383"/><path d="M23.848 166.626c.21-.782-.042-.913-.668-.913h-3.833l-1.201 4.486h3.833c.652 0 .96-.183 1.157-.913l.712-2.66Zm1.796-6.7c.189-.705-.023-.888-.675-.888h-3.833l-1.048 3.913h3.833c.704 0 .976-.236 1.164-.94l.56-2.086Zm-1.433 13.037H11.043l4.471-16.689h13.168c3.051 0 4.016 1.07 3.415 3.312l-.58 2.165c-.552 2.059-2.2 2.372-4.302 2.529l-.014.052c2.192.287 3.492.496 3.003 2.32l-.804 3c-.565 2.11-2.008 3.31-5.19 3.31ZM46.03 172.963H37.01c-2.556 0-3.978-1.41-3.027-4.954l3.143-11.735h6.363l-3.326 12.413c-.286 1.069.116 1.512 1.081 1.512h5.632c1.122 0 1.55-.235 1.85-1.356l3.368-12.569h2.764l-3.144 11.735c-.95 3.545-2.501 4.954-5.683 4.954M54.579 172.963l4.471-16.689h6.363l-3.73 13.925h8.082l-.74 2.764H54.579M73.131 172.963l4.472-16.689h6.362l-3.73 13.925h8.083l-.74 2.764H73.13M105.893 160.082c.189-.704-.06-1.044-.972-1.044h-3.26l-2.99 11.16h3.26c.912 0 1.342-.338 1.53-1.043l2.432-9.073Zm-1.21 12.88H91.569l4.471-16.688h13.116c2.842 0 3.659 1.721 2.884 4.616l-1.999 7.457c-.775 2.895-2.514 4.616-5.356 4.616ZM128.237 160.082c.188-.704-.06-1.044-.972-1.044h-2.764c-.913 0-1.343.34-1.532 1.044l-2.43 9.073c-.19.705.059 1.044.972 1.044h2.763c.913 0 1.343-.339 1.532-1.044l2.43-9.073Zm-1.21 12.88h-9.751c-2.843 0-3.659-1.72-2.884-4.615l1.999-7.457c.775-2.895 2.514-4.616 5.356-4.616h9.752c2.843 0 3.66 1.721 2.884 4.616l-1.998 7.457c-.776 2.895-2.514 4.616-5.357 4.616ZM147.724 172.963l.405-1.514h-.052c-.553.992-1.031 1.514-2.726 1.514h-5.736c-2.843 0-3.66-1.721-2.883-4.616l1.998-7.457c.775-2.895 2.514-4.616 5.357-4.616h12.802l-.74 2.764h-9.31c-.912 0-1.342.34-1.53 1.044l-2.432 9.073c-.188.705.06 1.044.972 1.044h2.165c.834 0 1.308-.312 1.505-1.044l.92-3.442H145l.74-2.762h9.805l-2.684 10.012h-5.136M169.555 172.963h-12.308l.74-2.764h8.919c.808 0 1.039-.183 1.186-.73l.308-1.148c.153-.573-.066-.73-.874-.73h-5.45c-2.399 0-3.145-.913-2.454-3.494l1.07-3.99c.552-2.06 2.043-3.833 4.416-3.833h12.673l-.74 2.764h-8.788c-.86 0-1.163.157-1.303.678l-.286 1.07c-.133.494.085.651.947.651h4.745c2.425 0 3.791.939 3.182 3.208l-1.174 4.38c-.691 2.581-2.228 3.938-4.81 3.938" fill="#FFF"/><path fill="#BDBCBC" d="m148.624 164.834.117-.5h-2.478l-.119.5h2.48M153.929 163.83l-2.095 7.813h-2.846l-.01.035-.108.405h3.316l2.211-8.253h-.468M24.617 157.719H20.11l-1.401 5.232h.47l1.283-4.792h4.508c.218 0 .738.004 1.142.32-.234-.496-.704-.76-1.494-.76M30.97 157.579c.106.31.082.758-.074 1.34l-.747 2.691c-.273 1.02-.88 1.463-1.995 1.691 1.452-.198 2.2-.61 2.514-1.779l.58-2.163c.341-1.274-.012-1.607-.278-1.78M16.765 170.199h.47l1.437-5.365h4.508c.24 0 .748.004 1.143.313-.133-.289-.447-.752-1.494-.752H18.32l-1.556 5.804"/><path d="M29.073 165.58a1.946 1.946 0 0 1-.07.406l-.804 2.997c-.37 1.382-1.152 2.66-4.34 2.66H12.306l-.117.44H24.21c3.188 0 3.97-1.278 4.34-2.66l.804-2.998c.191-.714-.014-.745-.282-.845M38.96 168.019c-.39 1.458.308 2.03.44 2.148-.24-.45-.271-1.021-.087-1.709l3.029-11.304h-.47l-2.911 10.865" fill="#BDBCBC"/><path d="m53.241 157.154-2.73 10.187c-.862 3.216-2.081 4.302-4.832 4.302h-9.022c-.839 0-1.46-.17-1.856-.504.199.385.675.944 2.208.944h9.021c2.752 0 3.971-1.086 4.833-4.302l2.848-10.627h-.47M60.302 170.199h.47l3.495-13.045h-.47l-3.495 13.045M68.15 171.078l-.152.565H55.843l-.118.44H68.35l.27-1.005h-.47M78.854 170.199h.47l3.495-13.045h-.47l-3.495 13.045M86.702 171.078l-.151.565H74.395l-.117.44h12.624l.27-1.005h-.47M104.569 157.719h-3.935l-3.343 12.48h.47l3.225-12.04h3.935c.242 0 .911.003 1.4.405-.12-.233-.463-.845-1.752-.845" fill="#BDBCBC"/><path d="M110.893 157.6c.273.566.255 1.463-.055 2.622l-1.999 7.458c-.714 2.667-2.188 3.963-4.507 3.963h-11.5l-.118.44h11.97c2.318 0 3.793-1.296 4.507-3.964l1.998-7.457c.575-2.144.016-2.813-.296-3.063M119.76 170.233c-.183-.357-.208-.795-.07-1.305l2.43-9.074c.301-1.125 1.103-1.695 2.38-1.695h2.765c.242 0 .91.003 1.4.405-.22-.433-.685-.845-1.752-.845h-2.764c-1.278 0-2.08.57-2.38 1.695l-2.432 9.075c-.27 1.009.144 1.516.422 1.744" fill="#BDBCBC"/><path d="M133.238 157.6c.272.566.254 1.463-.057 2.622l-1.997 7.458c-.715 2.667-2.19 3.963-4.508 3.963h-9.752c-.79 0-1.37-.15-1.738-.445.073.153.36.885 2.09.885h9.752c2.318 0 3.792-1.296 4.507-3.963l1.998-7.458c.61-2.276-.065-2.878-.295-3.063M145 171.643h-5.737c-.79 0-1.37-.15-1.739-.445.182.378.627.885 2.091.885h5.736c1.367 0 1.552-.333 1.958-1.061l.193-.348a2.245 2.245 0 0 1-.793.326c-.295.438-.64.643-1.71.643M155.273 157.154l-.151.565h-8.634c-1.278 0-2.078.57-2.38 1.695l-2.432 9.075c-.263.981.12 1.498.422 1.744-.182-.357-.207-.793-.07-1.305l2.431-9.074c.303-1.125 1.103-1.695 2.38-1.695h8.635l.269-1.005h-.47M160.301 166.052c.03.12.07.203.109.254.203.265.78.405 1.666.405h5.45c.482 0 .966.05 1.329.334-.183-.393-.532-.772-1.681-.772h-5.449c-.651 0-1.133-.077-1.424-.221" fill="#BDBCBC"/><path d="M174.371 162.751c.113.3.105.71-.034 1.226l-1.174 4.381c-.61 2.272-1.83 3.285-3.96 3.285H158.51l-.118.44h11.162c2.13 0 3.35-1.013 3.96-3.285l1.174-4.38c.317-1.188-.102-1.516-.318-1.667M176.166 157.154l-.152.565H167.9c-.583 0-1.797 0-2.153 1.33l-.285 1.069c-.226.84.186 1.257.4 1.42-.13-.278-.149-.607-.049-.98l.286-1.069c.356-1.33 1.57-1.33 2.153-1.33h8.113l.269-1.005h-.469" fill="#BDBCBC"/><path d="m65.01 140.404-1.758 6.564-.026.074-.12.008H60.7l1.78-6.646h-4.614l-1.652 6.166c-.288 1.074-.202 1.921.255 2.517.282.368.845.807 1.926.807h4.306c1.867 0 2.898-.877 3.448-2.93l1.758-6.56H65.01" fill="#FFF"/><path d="M62.702 149.131h-4.306c-1.22 0-1.899-.672-1.445-2.364l1.5-5.6h3.037l-1.587 5.923c-.137.51.056.722.516.722h2.688c.535 0 .74-.112.883-.647l1.607-5.998h1.32l-1.501 5.6c-.454 1.692-1.194 2.364-2.712 2.364" fill="#A08F66"/><path d="m79.517 140.404-1.12 4.178-.961-4.178h-5.162l-2.543 9.49h2.898l1.14-4.253.978 4.253h5.125l2.543-9.49h-2.898" fill="#FFF"/><path fill="#A08F66" d="m75.354 149.131-1.518-6.595h-.025l-1.767 6.595h-1.32l2.135-7.964h3.97l1.495 6.496h.037l1.74-6.496h1.32l-2.134 7.964h-3.933"/><path fill="#FFF" d="m86.781 140.404-2.542 9.49h4.615l2.543-9.49H86.78"/><path fill="#A08F66" d="m85.232 149.131 2.134-7.964h3.037l-2.134 7.964h-3.037"/><path d="m103.625 140.404-3.125 4.788-.447-4.788h-4.769l.912 9.49h4.503l6.205-9.49h-3.279" fill="#FFF"/><path fill="#A08F66" d="M100.286 149.131H96.89l-.766-7.964h3.236l.584 6.272 4.095-6.272h1.456l-5.208 7.964"/><path d="m110.656 140.404-2.542 9.49h8.472l.763-2.844h-3.859l.165-.616h3.535l.76-2.844h-3.533l.092-.342h3.858l.763-2.844h-8.474" fill="#FFF"/><path fill="#A08F66" d="m109.107 149.131 2.134-7.964h6.895l-.354 1.319h-3.858l-.5 1.867h3.534l-.353 1.319h-3.535l-.574 2.14h3.859l-.354 1.32h-6.894"/><path d="m127.812 143.248-.092.342h-.637l.092-.342h.637Zm-4.49-2.844-2.543 9.49h4.615l.73-2.72.406 2.72h4.922l-.774-3.618c.678-.243 1.144-.774 1.37-1.614l.41-1.53c.09-.333.134-.635.134-.907 0-.432-.113-.791-.339-1.086-.505-.658-1.397-.735-2.024-.735h-6.907Z" fill="#FFF"/><path d="M128.685 142.934c.1-.373-.004-.448-.327-.448h-1.768l-.5 1.867h1.767c.36 0 .482-.125.568-.448l.26-.971Zm-1.498 6.197-.517-3.46h-.933l-.928 3.46h-3.036l2.134-7.964h6.322c1.307 0 1.853.423 1.493 1.767l-.41 1.53c-.187.698-.548 1.208-1.543 1.208l.74 3.46h-3.322Z" fill="#A08F66"/><path d="M139.685 140.404c-1.358 0-2.448.918-2.844 2.394l-.51 1.905c-.073.27-.144.6-.144.94 0 .355.079.72.318 1.031.127.166.28.283.444.376h-1.247l-.762 2.844h6.868c1.084 0 2.49-.424 3.032-2.445l.56-2.09c.065-.248.094-.47.094-.667 0-.49-.169-.832-.34-1.054a1.683 1.683 0 0 0-.447-.39h1.257l.763-2.844h-7.042" fill="#FFF"/><path d="M141.808 149.131h-5.874l.353-1.319h4.256c.386 0 .496-.087.566-.348l.147-.548c.073-.274-.031-.348-.418-.348h-2.6c-1.145 0-1.501-.436-1.17-1.668l.509-1.904c.264-.983.976-1.83 2.108-1.83h6.048l-.353 1.32h-4.194c-.41 0-.555.075-.621.323l-.138.51c-.063.237.042.311.453.311h2.264c1.158 0 1.81.449 1.52 1.532l-.56 2.09c-.33 1.232-1.065 1.88-2.296 1.88" fill="#A08F66"/><path fill="#FFF" d="m150.82 140.404-2.542 9.49h4.615l2.542-9.49h-4.614"/><path fill="#A08F66" d="m149.271 149.131 2.134-7.964h3.038l-2.135 7.964h-3.037"/><path d="m159.342 140.404-.762 2.844h2.513c-.375 1.405-1.78 6.646-1.78 6.646h4.614s1.527-5.7 1.782-6.646h2.512l.763-2.844h-9.642" fill="#FFF"/><path fill="#A08F66" d="m165.123 142.486-1.78 6.645h-3.036l1.78-6.645h-2.514l.353-1.32h8.064l-.353 1.32h-2.514"/><path d="m180.6 140.404-2.336 2.62-.973-2.62h-5.232l2.153 5.657-1.027 3.833h4.616s.81-3.03.895-3.34l5.492-6.15h-3.587" fill="#FFF"/><path fill="#A08F66" d="m180.943 141.167-2.954 3.31-1.229-3.31h-3.596l1.85 4.853-.835 3.111h3.036l.79-2.95 4.48-5.014h-1.542"/></g></svg>