<?xml version="1.0" encoding="UTF-8"?>
<svg width="200px" height="200px" viewBox="0 0 200 200" version="1.1" xmlns="http://www.w3.org/2000/svg" xmlns:xlink="http://www.w3.org/1999/xlink">
    <!-- Generator: Sketch 51.3 (57544) - http://www.bohemiancoding.com/sketch -->
    <title>bryant</title>
    <desc>Created with Sketch.</desc>
    <defs></defs>
    <g id="bryant" stroke="none" stroke-width="1" fill="none" fill-rule="evenodd">
        <g id="bryant_BGL" transform="translate(0.000000, 19.900498)">
            <g id="bryant">
                <g id="g10" transform="translate(99.999998, 80.823432) scale(-1, 1) rotate(-180.000000) translate(-99.999998, -80.823432) translate(0.000000, 0.084708)" fill-rule="nonzero">
                    <g id="g12">
                        <path d="M189.495528,74.9605092 L190.806868,79.8231389 L180.534703,79.8231389 C178.373879,91.2903601 172.769755,96.6699362 168.742264,98.4440023 C168.769755,98.8728329 168.794497,99.3120461 168.794497,99.8004402 C168.794497,101.056467 168.673535,102.52971 168.35326,104.233146 C170.210305,105.99765 171.293467,108.660388 171.293467,111.598813 C171.293467,111.859609 171.285219,112.122727 171.26735,112.387211 C171.00893,116.396005 168.791748,119.907935 165.285219,122.028316 C165.285219,122.085967 165.28247,122.145941 165.28247,122.203319 C165.28247,126.042985 165.983501,129.355868 167.353948,132.10399 C167.480408,132.049208 167.613742,131.986366 167.736078,131.935272 L170.334016,130.848646 L170.584188,133.640212 C170.639171,134.25552 170.762882,134.823423 170.940202,135.282582 L171.630236,137.059107 L169.896903,137.870593 C168.850855,138.35967 166.881095,139.490832 164.775254,141.721734 C164.848106,141.960809 164.926456,142.171194 165.006181,142.381579 C166.294154,141.688947 168.081095,141.034567 170.090717,141.180744 C172.246044,141.339216 174.219927,142.421197 175.797934,144.310565 C176.904463,145.637084 176.643295,147.768259 175.811679,149.187676 C175.014429,150.549715 173.719583,151.220488 172.350511,150.978682 C172.351886,150.978682 172.390374,150.98278 172.390374,150.98278 C172.137453,150.98278 170.808243,151.451366 168.923707,153.746476 C165.088656,158.420033 156.909962,162.491122 148.701027,161.226079 C144.416491,160.566235 138.746388,158.174128 135.067213,150.78469 C131.854705,152.469138 129.415529,154.010141 128.254017,155.108516 L126.788176,156.495145 L125.368382,155.062067 C124.701028,154.388561 123.434499,153.234175 121.816217,152.283343 C120.655667,153.059309 119.043708,154.107137 117.344877,155.116712 L116.148726,155.82847 L115.040135,154.988295 C113.178554,153.577075 108.194499,150.36392 101.050582,149.499155 C96.8951179,155.394038 89.0765613,160.02661 78.6423348,156.407712 C71.6037096,153.966425 69.6999295,151.175406 68.020067,148.713626 C66.9950499,147.210875 66.1096891,145.913044 63.9080396,144.627509 C62.2426101,143.654819 61.3036411,142.153434 61.3311325,140.508604 C61.3595861,138.81596 62.4045345,137.249 64.1264589,136.319207 C65.9248093,135.34802 68.1373179,135.218647 70.402335,135.862781 C70.2991048,134.850063 70.1198608,133.857428 69.8054965,133.184741 L69.3055653,132.116285 L69.984878,131.150153 C70.4912697,130.430198 71.4186924,129.164199 72.4467336,127.94055 C72.2622662,126.851465 72.0052216,125.594482 71.8065961,124.667421 C69.685634,123.448963 69.4173179,123.250736 67.8547062,121.918069 L67.8276272,121.894708 L67.8013729,121.870664 C67.0049468,121.14224 66.2739502,120.33376 65.7029537,119.654379 C58.2152563,118.355866 52.9550502,111.884336 51.5885898,110.026799 C44.0960814,106.743971 38.8087963,101.991452 35.9026795,95.8711557 C34.0226796,91.9119527 33.0977311,87.3441354 33.0977311,81.9786305 C33.0977311,81.6823153 33.120549,81.3663277 33.1263222,81.065231 C30.2953944,81.065231 22.0988311,81.065231 22.0988311,81.065231 L5.36941567e-05,0.00410908193 L169.010305,0 C175.472161,0 180.559446,3.9809519 182.287281,10.3894754 L199.925768,74.9605092 C199.925768,74.9605092 194.559445,74.9605092 189.495528,74.9605092" id="path14" fill="#FFFFFF"></path>
                        <path d="M182.501714,77.2591721 L181.686593,77.2591721 L181.835047,77.8131408 L184.191061,77.8131408 L184.041233,77.2591721 L183.226112,77.2591721 L182.606181,74.9605092 L181.881782,74.9605092 L182.501714,77.2591721 Z M184.761507,77.8131408 L185.737452,77.8131408 L185.942263,76.0127082 L185.956009,76.0127082 L187.131267,77.8131408 L188.105837,77.8131408 L187.337452,74.9605092 L186.695528,74.9605092 L187.241232,76.9821194 L187.227487,76.9821194 L185.929892,74.9605092 L185.400683,74.9605092 L185.193123,76.9821194 L185.179377,76.9821194 L184.633672,74.9605092 L183.993123,74.9605092 L184.761507,77.8131408 Z" id="path16" fill="#231F20"></path>
                        <path d="M179.305837,72.9147183 C178.351886,90.517946 170.026113,96.3125547 166.542951,97.0322359 C166.812367,99.0619063 166.909961,101.524916 166.092092,105.027555 C170.592436,107.950816 170.769755,117.211452 163.250855,120.824066 C163.070786,125.45172 163.736078,130.510118 166.496216,134.767958 C167.087281,134.46973 167.806181,134.12519 168.533329,133.821225 C168.589687,134.445686 168.721645,135.248155 169.019927,136.01893 C167.641233,136.664294 165.085907,138.152017 162.498965,141.17528 C162.797247,142.467646 163.366319,144.302368 164.329893,145.302381 C164.329893,145.302381 169.843295,140.38292 174.214429,145.617959 C174.922332,146.46633 174.103088,149.209534 172.710649,148.963629 C171.437796,148.739583 169.41168,149.915827 167.329205,152.452744 C161.175254,159.952839 142.820615,164.985689 136.054567,147.98001 C133.555873,149.217731 128.930031,151.645357 126.835048,153.626256 C125.961921,152.745098 124.091818,151.041524 121.692918,149.892603 C120.576904,150.65764 118.51175,152.040171 116.288245,153.361226 C114.169619,151.756014 108.36577,147.97318 100.039035,147.309237 C98.5494133,149.743694 91.9740183,158.865394 79.3205478,154.475994 C68.5474897,150.739608 71.3547748,146.602944 64.9506513,142.863825 C60.703916,140.38292 65.7462527,134.814953 72.5439157,139.034542 C72.5439157,139.034542 72.8104449,134.756756 71.6720257,132.322299 C72.259792,131.486496 73.421304,129.89153 74.6251528,128.551486 C74.4043968,126.938351 73.8761494,124.477664 73.6257026,123.348415 C70.7907886,121.72599 70.7907886,121.72599 69.1953247,120.365181 C68.2650155,119.514214 67.4118196,118.520895 66.8138815,117.770886 C58.598624,116.827841 52.9550502,108.404374 52.9550502,108.404374 C36.6786245,101.542266 34.6250163,89.3116466 35.2485215,79.019167 L23.6740888,79.019167 L2.69044667,2.0492062 L169.010305,2.04509412 C174.581439,2.04509412 178.80137,5.36348301 180.298277,10.9195504 L197.234359,72.9147183 L179.305837,72.9147183" id="path18" fill="#231F20"></path>
                        <path d="M135.891955,125.123574 L137.277935,125.189422 C137.277935,125.189422 137.71821,124.678487 138.081096,124.048697 C139.145014,125.136416 141.399309,125.680822 141.399309,125.680822 C139.734704,129.091657 143.168381,132.963837 143.168381,132.963837 C141.932642,129.174445 143.534017,127.085621 144.514086,126.219899 C150.525082,129.014743 156.153948,137.093261 156.153948,137.093261 C162.461852,130.234841 160.012367,127.063353 160.012367,127.063353 C159.418553,130.234841 156.450855,133.774913 156.450855,133.774913 C155.854292,132.373392 154.443982,130.824329 152.896216,129.422399 C156.239171,129.339474 160.030237,127.252016 160.501714,123.262485 C160.625426,123.217403 160.747762,123.173003 160.861852,123.129423 C160.779377,129.447263 163.377316,134.195956 164.471474,135.910049 C162.84948,137.014025 161.736078,138.333714 161.110649,139.199845 C141.276972,136.473581 139.242608,130.736623 139.242608,130.736623 C137.375392,132.837059 138.992436,135.91524 139.958759,136.433963 C142.474223,139.183451 146.026113,140.332373 147.924395,140.773635 C143.814429,141.843321 139.799309,143.5305 136.370856,145.231342 C136.371543,145.231342 136.372093,145.229975 136.372918,145.229975 C130.451543,145.359759 128.034224,147.061966 127.403846,147.613885 C127.911062,147.154863 132.411543,142.897979 133.048519,135.792425 C133.689069,135.019191 134.534292,133.308377 134.534292,133.308377 C138.635048,131.205345 136.897316,126.773732 135.891955,125.123574" id="path20" fill="#A08F66"></path>
                        <path d="M156.012367,123.224097 C157.397934,122.941443 157.946388,122.768626 159.028175,122.480098 C159.028175,123.407979 158.639171,124.439003 158.006869,124.973436 C157.243982,124.793925 156.261164,124.166458 156.012367,123.224097" id="path22" fill="#A08F66"></path>
                        <path d="M150.582814,122.669035 C150.582814,122.669035 144.064601,124.283673 140.178691,122.117389 C142.155323,122.111514 147.870787,121.969026 150.365632,120.755623 C150.592436,121.256176 150.810993,121.988289 150.582814,122.669035" id="path24" fill="#7B7979"></path>
                        <path d="M119.32632,104.651321 C118.581853,103.852541 118.044671,103.117285 117.691269,102.577798 C118.182815,102.957857 118.768657,103.348572 119.374293,103.724533 C119.356561,103.998991 119.338691,104.319077 119.32632,104.651321" id="path26" fill="#BDBCBC"></path>
                        <path d="M112.38199,121.806319 C113.905839,122.15564 115.43766,122.462612 116.965083,122.730921 C116.834636,123.795415 117.116423,124.678487 117.730306,125.36702 C114.240959,124.736138 112.868726,123.211938 112.38199,121.806319" id="path28" fill="#FFFFFF"></path>
                        <path d="M149.278347,126.484384 C148.738141,126.071127 148.197934,125.661149 147.929893,125.46948 C150.186938,125.25527 152.405494,124.628213 152.405494,124.628213 L152.768381,123.547051 C153.407556,123.503062 154.314773,123.43052 154.314773,123.43052 C154.50034,123.980664 154.846732,125.072481 155.268725,125.869485 C153.946388,126.311977 151.501027,126.620861 149.278347,126.484384" id="path30" fill="#FFFFFF"></path>
                        <path d="M150.514086,127.436718 C150.2268,127.213218 149.752574,126.847366 149.278347,126.484384 C151.499653,126.620861 153.946388,126.311977 155.268725,125.869485 C155.472161,126.253097 155.693467,126.569494 155.921646,126.723048 C154.724395,127.298738 152.997934,127.621693 150.514086,127.436718" id="path32" fill="#BDBCBC"></path>
                        <path d="M117.733743,125.367703 C118.071062,125.745167 118.506251,126.064843 119.0301,126.32236 C113.015667,125.924267 111.618554,123.40429 111.414843,121.57913 C111.736492,121.656864 112.058966,121.730089 112.381166,121.803997 C112.867489,123.210708 114.239997,124.736957 117.733743,125.367703" id="path34" fill="#BDBCBC"></path>
                        <path d="M122.249481,124.590097 C121.919172,124.792422 121.588588,124.998982 121.258416,125.21169 C120.212643,124.923708 119.122334,124.03244 119.082196,123.078603 C119.607832,123.158932 120.129344,123.226282 120.651543,123.297048 C120.97278,123.853066 121.594911,124.328072 122.249481,124.590097" id="path36" fill="#A08F66"></path>
                        <path d="M120.987763,105.243952 C120.987763,105.243952 120.989275,105.034249 120.991062,104.673043 C121.90089,105.180699 122.705426,105.593273 123.127969,105.805161 C123.126595,106.051612 123.130581,106.302162 123.138554,106.548476 C123.138279,106.547793 123.138279,106.547383 123.138279,106.5467 C122.333605,106.106394 121.616492,105.664585 120.987763,105.243952" id="path38" fill="#FFFFFF"></path>
                        <path d="M138.547076,109.83302 C139.792436,109.901685 141.123021,109.911431 142.508588,109.829529 C142.534704,109.911431 142.562196,109.988243 142.589687,110.062872 C141.274223,110.226677 140.009618,110.312217 138.795873,110.329529 C138.795873,110.329529 138.630924,110.037559 138.547076,109.83302" id="path40" fill="#FFFFFF"></path>
                        <path d="M130.264602,108.520496 C130.559859,108.604103 130.99766,108.720635 131.555323,108.851374 C131.556973,109.096186 131.56687,109.359304 131.5879,109.629799 C131.013055,109.510945 130.455667,109.37966 129.915598,109.236898 C130.02845,108.990447 130.146938,108.744406 130.264602,108.520496" id="path42" fill="#FFFFFF"></path>
                        <path d="M133.23766,109.203428 C134.268725,109.394824 135.494705,109.579799 136.863502,109.709308 C136.93333,109.920513 137.007832,110.110406 137.083983,110.281993 C135.77388,110.235408 134.526182,110.118467 133.344052,109.942098 C133.344052,109.942098 133.263227,109.519825 133.23766,109.203428" id="path44" fill="#FFFFFF"></path>
                        <path d="M147.513398,109.163946 C146.86735,109.529525 145.936766,109.96382 144.694154,110.341694 C144.509962,110.125161 144.367007,109.90248 144.255666,109.686357 C145.323708,109.571602 146.413742,109.402201 147.513398,109.163946" id="path46" fill="#BDBCBC"></path>
                        <path d="M123.138279,106.5467 C123.151749,106.968154 123.175667,107.377995 123.201921,107.734693 C122.388588,107.265562 121.669825,106.757632 121.034636,106.243008 C121.009344,105.954753 120.992162,105.619093 120.987763,105.243952 C121.616492,105.664585 122.333605,106.106394 123.138279,106.5467" id="path48" fill="#BDBCBC"></path>
                        <path d="M131.734292,110.68719 C131.007969,110.562871 130.258691,110.418197 129.479172,110.244971 C129.599447,109.951251 129.751749,109.59387 129.915461,109.236898 C130.456217,109.37966 131.014017,109.511355 131.589138,109.630209 C131.615942,109.977208 131.659928,110.336092 131.734292,110.68719" id="path50" fill="#BDBCBC"></path>
                        <path d="M133.344052,109.942098 C134.52632,110.118467 135.774292,110.235408 137.084533,110.281993 C137.279309,110.719021 137.487282,111.033506 137.665976,111.251404 C136.449069,111.239519 135.11821,111.154135 133.671199,110.974625 C133.54845,110.698255 133.429687,110.352759 133.344052,109.942098" id="path52" fill="#BDBCBC"></path>
                        <path d="M138.795873,110.29907 C140.010993,110.282813 141.275598,110.202484 142.589687,110.048657 C142.709275,110.352349 142.834361,110.595795 142.951199,110.78077 C141.975254,110.979816 140.864601,111.131867 139.608244,111.205092 C139.254979,110.923941 138.992436,110.612462 138.795873,110.29907" id="path54" fill="#BDBCBC"></path>
                        <path d="M86.1087539,98.6079388 C86.1100872,98.6159388 86.1127539,98.6226055 86.1140872,98.6266055 C86.0980872,98.7199388 86.0767539,98.8132722 86.0607539,98.9079388 C86.0780872,98.8066055 86.0914205,98.7052722 86.1087539,98.6079388" id="path56" fill="#A08F66"></path>
                        <path d="M141.583502,78.3031743 C142.120959,80.2771063 141.485907,81.9820459 141.485907,81.9820459 C139.898278,76.2991873 131.704327,74.6725274 131.704327,74.6725274 C140.283158,79.7395312 141.296216,89.5591907 141.296216,89.5591907 C142.883845,87.1599801 143.010306,84.4446453 143.010306,84.4446453 C146.463227,86.5460379 148.474223,92.7795866 148.474223,92.7795866 C149.173879,82.1713925 141.583502,78.3031743 141.583502,78.3031743 Z M123.770444,96.7420683 C124.483708,94.9987403 128.183639,93.1832802 128.183639,93.1832802 C125.82845,87.4814323 117.042196,84.7942399 113.566733,88.4145041 C120.663777,86.7441279 124.875736,92.6045844 124.875736,92.6045844 C121.626114,94.1629374 121.065976,97.2819658 121.065976,97.2819658 C124.091406,102.293368 149.415804,107.19343 153.224738,99.8425173 C153.224738,99.8425173 149.704464,96.3480742 144.261165,95.4020241 C146.727144,97.0262249 148.125082,99.0781634 148.762883,100.213697 C137.22199,103.487645 123.770444,96.7420683 123.770444,96.7420683 Z M78.8831595,99.4770755 C78.8831595,111.890074 94.3679701,120.145096 94.3679701,120.145096 C94.3679701,120.145096 92.5353929,121.062321 87.172094,119.902333 C87.172094,119.902333 95.109276,124.098698 102.428726,121.240192 C102.428726,121.240192 81.1755306,114.598714 81.1755306,99.4504358 C81.1755306,91.5948722 89.6298259,86.8236371 91.3701695,86.8236371 C91.3701695,86.8236371 78.8831595,87.0640773 78.8831595,99.4770755 Z M94.5847399,127.201742 C96.8186917,126.695589 102.150101,125.221526 106.451819,121.948397 C106.451819,121.948397 97.9796539,126.689031 91.1701695,123.957439 C91.5521627,124.955949 92.4597915,126.414847 94.5847399,127.201742 Z M90.9830905,148.126187 C89.9715441,149.310628 88.3429531,150.18359 86.3136748,150.556545 C83.3547745,151.100268 78.9944997,150.611191 76.4441218,147.443118 C75.4791734,146.245016 73.6640531,144.273679 71.6191047,143.951271 C74.1730566,147.326997 77.4696888,151.2765 84.9846027,151.437704 C88.4430218,151.510109 90.7536747,150.500534 92.2096197,149.456805 C91.7803413,149.102975 91.3597228,148.665811 90.9830905,148.126187 Z M112.356836,142.571472 C117.172781,134.283253 131.378141,127.082615 131.378141,127.082615 C124.269688,125.579044 112.832849,136.593391 110.31821,141.568727 C110.31821,141.568727 111.215667,142.176658 112.356836,142.571472 Z M165.824051,115.700095 C160.516834,118.948906 153.1079,119.353283 153.1079,119.353283 C157.753948,118.901501 162.791749,116.198871 163.256353,113.067274 C163.760821,109.667778 159.386938,108.887304 159.386938,108.887304 C161.337453,110.507406 161.448793,111.816302 161.448793,111.816302 C159.858415,112.499371 158.277659,113.095007 156.712024,113.611134 C157.448793,112.019447 158.032986,109.548378 157.57113,105.911856 C162.151199,101.090894 157.481783,96.9870167 155.125769,96.1243009 C153.5079,95.5326268 153.030924,94.2953161 152.951199,93.2166139 C151.978003,96.0128241 154.681783,97.7277365 154.681783,97.7277365 C156.104463,98.7692797 156.892092,99.8717526 157.099652,100.952504 C130.308588,116.878798 107.681784,87.8639507 107.681784,87.8639507 C107.965358,94.8425908 112.539928,99.4426488 114.538966,101.126823 C116.086595,104.98985 119.245908,107.945488 123.121646,109.971334 C123.406045,111.223262 123.96577,112.703199 125.056354,113.999936 C125.056354,113.999936 125.056354,113.999936 125.056217,113.999663 C115.012506,110.821071 107.752162,104.930969 105.294843,99.9432016 C102.292643,109.329386 115.552437,116.454066 126.880959,119.371042 C94.7523,116.386032 87.6399978,103.916066 86.0662521,98.6098514 C86.8929188,93.9114315 91.1909256,90.126411 94.9166987,88.5221558 C84.5766302,89.1900604 79.8742248,99.8166973 86.5880391,108.309701 C91.3373173,114.31811 99.8060456,118.426495 108.960547,120.945789 C108.519447,126.599822 114.668176,127.911724 117.011956,128.206263 C112.568657,131.588956 109.018691,134.98654 109.018691,134.98654 C107.886458,134.399511 106.931269,133.685021 106.129757,132.933919 L109.775118,137.978518 C113.177317,132.173663 124.424602,126.052274 127.484533,124.440915 C129.122471,124.673295 131.260478,124.733269 132.341715,124.912233 C134.607419,126.9154 134.715461,128.176618 134.715461,128.176618 C130.759584,139.646572 114.447282,146.971801 114.447282,146.971801 C109.200272,144.019578 103.480822,145.61386 103.480822,145.61386 C103.730994,144.758658 103.789413,143.969031 103.781166,143.388422 C106.321234,144.086518 109.945564,143.637059 109.945564,143.637059 C107.586527,143.246344 104.537592,141.597416 102.841922,140.591939 C101.097729,146.978631 94.6934684,147.958152 92.2155303,147.235465 C92.9873516,148.35843 94.0221282,148.919913 94.7693447,149.190408 C93.5777296,150.53742 90.5802039,153.072971 84.9518879,152.952751 C75.0475583,152.739633 71.7329192,146.377531 68.8911323,142.895247 C68.4230911,142.321469 67.7205481,141.881573 67.1120258,141.529109 C68.3811667,141.404791 71.5665961,141.466267 75.5256339,144.264116 C75.5256339,144.264116 76.2805479,144.81467 77.6349121,146.496385 C81.0035719,150.68223 89.288795,149.693147 90.4526438,146.067418 C87.9334686,147.820172 84.2944309,147.150765 84.2944309,147.150765 C89.1451524,145.597466 88.7341559,140.041385 88.7341559,140.041385 C87.0247401,145.546919 81.9069395,145.512766 80.2307884,145.344731 C79.20151,142.913006 80.6027471,138.552296 84.0439842,141.840588 C86.9133999,140.426636 85.8266645,133.959478 81.4991045,133.177774 C81.4991045,133.177774 83.9446027,135.15157 83.498967,138.624701 C82.9591732,138.40202 82.2380735,138.217592 81.4603416,138.303659 C81.4890701,136.833695 79.9616475,134.796784 77.3059774,134.730116 C77.3059774,134.730116 79.6746372,135.840786 79.5358056,139.079625 C78.9439156,139.535915 77.8654276,140.627458 77.6063211,142.634314 C76.5720943,141.75179 75.4017851,140.475817 74.8430222,139.84876 C75.2457713,136.893805 74.6907198,134.124098 74.3745686,132.882825 C75.3432284,131.321876 76.8108572,129.673632 77.6475582,128.781544 C83.132644,132.273528 91.0384857,131.471332 93.6641901,139.412962 C92.6720252,140.938938 92.1259083,143.574217 92.1259083,143.574217 C93.4317502,142.01682 96.435599,140.71899 96.435599,140.71899 C94.1714066,129.468301 83.300479,130.22719 76.4615788,125.600493 C76.4615788,125.600493 74.8075583,115.3852 70.6728505,107.049029 C69.9264587,102.672881 69.6768367,92.9509002 71.7573865,88.2069879 C72.6728504,91.7555299 75.8347747,94.5326142 78.2716132,95.6014801 C74.2380737,91.2141297 68.1469399,78.5582322 82.6316131,71.6675714 C94.0366987,66.2416832 104.941441,78.1660141 105.786939,82.2368305 C105.562059,81.0286186 104.259241,75.35423 99.0929185,71.4368308 C127.094842,71.8151143 137.268313,90.1309193 137.268313,90.1309193 C137.179928,88.2295291 136.825564,86.7948116 136.508863,85.8616031 C136.223364,85.0199258 135.968931,84.5863137 135.968931,84.5863137 C135.968931,84.5863137 136.547351,78.0395098 123.389413,72.9136254 C131.913811,70.0708299 149.714086,75.0958934 153.113398,90.9340715 C153.113398,90.9340715 153.407556,87.5102578 151.797934,83.7587077 C151.939515,82.7041862 151.837797,80.7635879 150.270787,77.9539896 C162.270786,83.275095 166.51546,99.2683297 163.331955,106.021694 C167.852917,108.15642 167.630236,113.219325 165.824051,115.700095 Z" id="path58" fill="#A08F66"></path>
                        <path d="M152.761508,154.848949 C150.391749,154.847583 148.45223,154.138558 147.149137,152.799743 C147.149137,152.799743 146.529206,152.160391 146.016491,151.635794 C145.182127,152.159025 144.285907,152.403563 143.424051,152.473236 C146.442608,155.119445 150.588312,155.646774 151.813055,155.611254 C156.65979,155.465077 159.808931,153.824346 162.199309,151.906289 C159.142264,153.74511 155.731955,154.851682 152.761508,154.848949 Z M151.85979,157.124934 C149.579378,157.193241 142.738141,156.02656 139.835048,150.325668 C139.835048,150.325668 143.774567,152.180883 146.054979,149.639867 C144.699653,150.280586 140.679034,149.142593 139.884533,146.171244 C140.600684,145.859765 141.815804,145.348829 143.501027,144.705379 C144.13333,149.046964 148.19656,148.678106 148.19656,148.678106 C145.8268,147.173989 145.92302,144.865217 146.14845,143.72859 C147.951886,143.083774 150.089343,142.363819 152.547075,141.606979 C152.547075,141.606979 156.633673,142.109718 159.344326,141.784577 C159.929893,143.04962 161.286594,145.775064 162.541577,146.80923 C161.461164,147.773723 160.316147,148.779201 159.008931,149.646698 C158.893467,147.340658 156.801371,145.411672 153.241233,146.343378 C153.241233,146.343378 152.688656,144.488163 154.841233,142.956723 C153.344326,142.658905 149.877659,144.903469 151.935391,148.455426 C154.180065,146.948576 157.241233,148.257336 156.764257,150.889883 C154.509962,151.893994 151.77869,152.377607 148.246044,151.745085 C151.576629,155.169992 160.284532,152.756027 165.542264,147.372079 C167.52302,145.346097 170.80137,144.665761 171.903776,146.76688 C166.712023,146.283267 164.918209,156.732853 151.85979,157.124934 Z" id="path60" fill="#A08F66"></path>
                        <path d="M143.424051,152.473236 C144.285907,152.403563 145.182127,152.159025 146.016491,151.635794 C146.529206,152.160391 147.149137,152.799743 147.149137,152.799743 C148.45223,154.138558 150.391749,154.847583 152.761508,154.848949 C155.731955,154.851682 159.142264,153.74511 162.199309,151.906289 C159.808931,153.824346 156.65979,155.465077 151.813055,155.611254 C150.588312,155.646774 146.442608,155.119445 143.424051,152.473236" id="path62" fill="#C3B597"></path>
                        <path d="M131.378141,127.082615 C131.378141,127.082615 117.172781,134.283253 112.356836,142.571472 C111.215667,142.176658 110.31821,141.568727 110.31821,141.568727 C112.832849,136.593391 124.269688,125.579044 131.378141,127.082615" id="path64" fill="#C3B597"></path>
                        <path d="M81.1755306,99.4504358 C81.1755306,114.598714 102.428726,121.240192 102.428726,121.240192 C95.109276,124.098698 87.172094,119.902333 87.172094,119.902333 C92.5353929,121.062321 94.3679701,120.145096 94.3679701,120.145096 C94.3679701,120.145096 78.8831595,111.890074 78.8831595,99.4770755 C78.8831595,87.0640773 91.3701695,86.8236371 91.3701695,86.8236371 C89.6298259,86.8236371 81.1755306,91.5948722 81.1755306,99.4504358" id="path66" fill="#C3B597"></path>
                        <path d="M143.010306,84.4446453 C143.010306,84.4446453 142.883845,87.1599801 141.296216,89.5591907 C141.296216,89.5591907 140.283158,79.7395312 131.704327,74.6725274 C131.704327,74.6725274 139.898278,76.2991873 141.485907,81.9820459 C141.485907,81.9820459 142.120959,80.2771063 141.583502,78.3031743 C141.583502,78.3031743 149.173879,82.1713925 148.474223,92.7795866 C148.474223,92.7795866 146.463227,86.5460379 143.010306,84.4446453" id="path68" fill="#FFFFFF"></path>
                        <path d="M84.9846027,151.437704 C77.4696888,151.2765 74.1730566,147.326997 71.6191047,143.951271 C73.6640531,144.273679 75.4791734,146.245016 76.4441218,147.443118 C78.9944997,150.611191 83.3547745,151.100268 86.3136748,150.556545 C88.3429531,150.18359 89.9715441,149.310628 90.9830905,148.126187 C91.3597228,148.665811 91.7803413,149.102975 92.2096197,149.456805 C90.7536747,150.500534 88.4430218,151.510109 84.9846027,151.437704" id="path70" fill="#C3B597"></path>
                        <path d="M99.0929185,71.4368308 C107.949001,69.2844812 125.169481,72.4711335 135.968931,84.5863137 C135.968931,84.5863137 136.223364,85.0199258 136.508863,85.8616031 C136.825564,86.7948116 137.179928,88.2295291 137.268313,90.1309193 C137.268313,90.1309193 127.094842,71.8151143 99.0929185,71.4368308" id="path72" fill="#FFFFFF"></path>
                        <path d="M60.8948438,96.8154299 L62.1803421,94.952155 C62.1803421,94.952155 63.4955311,95.1104903 63.633263,96.5852357 C63.7470774,98.0614839 62.4777991,98.4377181 62.4777991,98.4377181 L60.8948438,96.8154299" id="path74" fill="#FFFFFF"></path>
                        <path d="M62.1803421,94.952155 L60.8948438,96.8154299 L63.633263,96.5852357 C63.4955311,95.1104903 62.1803421,94.952155 62.1803421,94.952155" id="path76" fill="#BDBCBC"></path>
                        <path d="M65.0217166,110.462187 L65.3994485,108.925282 C65.3994485,108.925282 66.300342,108.70629 66.7576616,109.63786 C67.2001358,110.576533 66.4621289,111.135283 66.4621289,111.135283 L65.0217166,110.462187" id="path78" fill="#FFFFFF"></path>
                        <path d="M65.3994485,108.925282 L65.0217166,110.462187 L66.7576616,109.63786 C66.300342,108.70629 65.3994485,108.925282 65.3994485,108.925282" id="path80" fill="#BDBCBC"></path>
                        <path d="M62.0265277,100.15263 L62.6975929,99.9539941 C63.1569744,102.648837 63.8646032,105.185481 64.7807544,107.515702 L64.1377304,107.672534 L63.6280396,109.747014 C61.74694,106.042732 60.5898267,102.028747 59.9696205,98.0444071 L62.0265277,100.15263" id="path82" fill="#7B7979"></path>
                        <path d="M68.309689,107.635102 C69.7550498,108.314482 71.5076271,114.519069 72.0159432,116.577701 C70.4768367,115.373451 69.1374553,113.684359 68.0258402,111.626546 C68.4490705,110.933914 68.6039845,109.98199 68.1283832,108.97296 C67.6938815,108.088386 66.972232,107.615976 66.2448093,107.45163 C65.3782802,104.846952 64.7858403,101.90962 64.5006169,98.7733781 C64.9289331,98.2198192 65.2295516,97.4554653 65.1513386,96.4453432 C65.0701015,95.5722448 64.7342939,94.9296137 64.3059778,94.4670396 C64.3017166,90.7339323 64.7140877,86.8224075 65.5927131,82.9287792 C66.1305825,82.4789101 66.5966994,81.8187925 66.8331255,80.8709663 C67.0305138,80.0230048 66.9564244,79.2963562 66.7396547,78.6927967 C67.3615103,76.7348485 68.1072148,74.8002612 68.9855653,72.9147183 L76.3584861,72.9147183 C65.3534004,83.3479101 68.309689,107.635102 68.309689,107.635102" id="path84" fill="#7B7979"></path>
                        <path d="M66.6508574,112.897463 L67.2195172,112.46713 C68.7565619,115.000086 70.5760807,117.143419 72.592438,118.797265 C72.8654277,119.893863 73.0270772,120.611222 73.0270772,120.611222 C69.6053591,118.26775 66.96261,115.345582 64.9536754,112.104967 L65.8136066,112.506748 L66.6508574,112.897463" id="path86" fill="#7B7979"></path>
                        <path d="M62.9553249,83.7834348 C62.3182115,87.0952252 62.0492081,90.3243643 62.0988301,93.4159334 L61.4457717,93.3371073 L59.6843971,95.8900084 C59.0453593,90.0361093 59.5037786,84.3827593 60.4580054,80.029289 L62.2738129,83.7630793 L62.9553249,83.7834348" id="path88" fill="#7B7979"></path>
                        <path d="M67.2195172,112.46713 L67.3865275,112.340626 C67.6287268,112.157154 67.8501701,111.913981 68.0258402,111.626546 C69.1374553,113.684359 70.4768367,115.373451 72.0159432,116.577701 C72.1818539,117.189594 72.5689329,118.702865 72.5925755,118.797265 L72.592438,118.797265 C70.5760807,117.143419 68.7565619,115.000086 67.2195172,112.46713" id="path90" fill="#BDBCBC"></path>
                        <path d="M64.8838472,76.6356669 C64.8936066,76.6075245 64.9028162,76.5795187 64.9125757,76.5513762 C64.913263,76.5498735 64.9138128,76.5480975 64.9143626,76.5461849 C65.2779365,76.2509626 67.2116822,74.7277193 67.4376615,72.9147183 L68.9855653,72.9147183 C68.1072148,74.8002612 67.3615103,76.7348485 66.7396547,78.6927967 C66.2456341,77.2791177 64.8838472,76.6356669 64.8838472,76.6356669" id="path92" fill="#BDBCBC"></path>
                        <path d="M62.3638472,93.4477644 L62.0988301,93.4159334 C62.0492081,90.3243643 62.3182115,87.0952252 62.9553249,83.7834348 L63.198074,83.7908119 C63.7988987,83.8085717 64.7785551,83.6095255 65.5927131,82.9287792 C64.7140877,86.8224075 64.3017166,90.7339323 64.3059778,94.4670396 C63.6894829,93.8014574 62.8815105,93.5099237 62.3638472,93.4477644" id="path94" fill="#BDBCBC"></path>
                        <path d="M65.0364245,107.453542 L64.7807544,107.515702 C63.8646032,105.185481 63.1569744,102.648837 62.6975929,99.9539941 L62.913263,99.8899222 C63.3634348,99.7567238 64.0144314,99.400845 64.5006169,98.7733781 C64.7858403,101.90962 65.3782802,104.846952 66.2448093,107.45163 C65.8261152,107.356547 65.4053592,107.36365 65.0364245,107.453542" id="path96" fill="#BDBCBC"></path>
                        <path d="M62.0074211,79.7328372 L64.2701015,78.023526 C64.2701015,78.023526 65.7678334,78.7250376 65.3474898,80.5290221 C64.8993798,82.3257661 63.2438472,82.2757654 63.2438472,82.2757654 L62.0074211,79.7328372" id="path98" fill="#FFFFFF"></path>
                        <path d="M64.2701015,78.023526 L62.0074211,79.7328372 L65.3474898,80.5290221 C65.7678334,78.7250376 64.2701015,78.023526 64.2701015,78.023526" id="path100" fill="#BDBCBC"></path>
                        <path d="M155.07491,112.789402 C154.456354,110.64238 152.285907,108.219809 151.934017,107.836061 C152.527831,107.808055 153.183501,107.677725 153.825426,107.455728 C154.520958,108.338526 154.695529,109.860677 154.695529,109.860677 C154.695529,109.860677 155.024051,109.395507 154.841233,107.018018 C155.158759,106.850802 155.461164,106.659543 155.738828,106.444923 C156.060477,109.448376 155.07491,112.789402 155.07491,112.789402" id="path102" fill="#FFFFFF"></path>
                        <path d="M126.836835,113.457716 C124.819928,111.786794 124.85028,106.574023 124.85028,106.574023 C125.209894,106.737276 125.595461,106.888235 125.987763,107.027307 C125.74199,108.934162 126.441234,110.977221 126.441234,110.977221 C126.2701,109.325697 126.963846,107.575538 127.043983,107.370618 C127.66089,107.55491 128.253055,107.706961 128.745426,107.823492 C127.407969,110.056717 126.836835,113.457716 126.836835,113.457716" id="path104" fill="#FFFFFF"></path>
                        <path d="M126.441234,110.977221 C126.441234,110.977221 125.741578,108.933479 125.987901,107.025805 C126.339653,107.150943 126.69498,107.265562 127.044395,107.369525 C126.966045,107.570484 126.269962,109.323375 126.441234,110.977221" id="path106" fill="#BDBCBC"></path>
                        <path d="M154.841233,107.017608 C155.024051,109.395507 154.695529,109.860677 154.695529,109.860677 C154.695529,109.860677 154.520958,108.337023 153.825426,107.454635 C154.171817,107.335098 154.514085,107.189741 154.841233,107.017608" id="path108" fill="#BDBCBC"></path>
                        <path d="M55.7660467,79.019167 C56.8828852,79.019167 57.9149126,78.9548219 58.873813,78.8329624 C57.3534006,85.2196551 55.0098955,100.952231 64.8878334,115.23028 C64.8878334,115.23028 57.686459,111.933654 55.5894144,108.007374 C55.5894144,108.007374 57.5035037,107.999997 58.6776618,107.135642 C49.7711328,107.008455 35.4757379,98.4199583 37.0861846,79.019167 L55.7660467,79.019167" id="path110" fill="#A08F66"></path>
                        <path d="M42.1183495,79.019167 C42.0186931,86.3159804 43.8081089,96.6902917 53.9408921,100.681736 C53.9408921,100.681736 53.9945004,95.8467018 55.0777993,93.9653939 C55.0777993,93.9653939 55.5624728,100.15263 57.2595175,104.706103 C57.2595175,104.706103 38.2684527,101.142397 39.6540196,79.019167 L42.1183495,79.019167" id="path112" fill="#C3B597"></path>
                        <path d="M176.911336,72.9147183 C176.773879,77.8982512 174.691405,91.2320261 166.169068,94.8166341 C162.750511,81.0226076 153.224738,76.2336127 148.854979,74.6748498 L144.849481,72.9147183 L176.911336,72.9147183" id="path114" fill="#A08F66"></path>
                        <path d="M150.791749,117.784957 C149.848794,117.265825 148.849481,116.476744 148.241921,115.964579 C148.32302,115.854058 148.395873,115.744494 148.464601,115.63534 C150.357385,115.326729 152.279034,114.908008 154.2268,114.365925 C154.498965,114.914975 154.732642,115.47919 154.905838,116.046684 C154.905838,116.046684 155.901027,115.35897 156.710649,113.611544 C158.277659,113.095417 159.858415,112.499371 161.448793,111.816302 C162.136078,115.433288 155.483158,117.891516 150.791749,117.784957" id="path116" fill="#C3B597"></path>
                        <path d="M125.056217,113.999663 C125.813468,114.899811 126.825976,115.71198 128.18144,116.297233 C128.18144,116.297233 128.239172,115.743401 128.383914,114.926861 C133.390925,116.131111 138.970443,116.645052 144.908587,116.091493 C144.00412,116.924427 142.977316,117.690284 142.105838,118.288105 C119.526595,119.677467 106.740616,107.765022 105.294843,99.9432016 C107.752162,104.930969 115.012506,110.821071 125.056217,113.999663" id="path118" fill="#C3B597"></path>
                        <path d="M140.339515,107.972948 C125.044808,107.616659 112.78254,98.6748796 107.681784,87.8639507 C107.681784,87.8639507 130.308588,116.878798 157.099652,100.952504 C157.828175,104.724136 151.488656,108.232651 140.339515,107.972948" id="path120" fill="#C3B597"></path>
                        <path d="M133.048519,135.792425 C125.117798,144.743631 116.860753,148.505973 114.109825,149.581123 C111.484121,147.189017 105.914362,146.023701 103.480822,145.61386 C103.480822,145.61386 109.200272,144.019578 114.447282,146.971801 C114.447282,146.971801 130.759584,139.646572 134.715461,128.176618 C135.41979,130.371728 134.813467,132.519569 134.534292,133.308377 C134.534292,133.308377 133.689069,135.019191 133.048519,135.792425" id="path122" fill="#FFFFFF"></path>
                        <path d="M145.278347,138.026333 L139.958759,136.433963 C138.992436,135.91524 137.375392,132.837059 139.242608,130.736623 C139.242608,130.736623 141.276972,136.473581 161.110649,139.199845 C155.167006,139.904772 149.448794,139.038641 145.278347,138.026333" id="path124" fill="#FFFFFF"></path>
                        <path d="M133.048519,135.792425 C133.048519,135.792425 129.952437,142.044143 123.412093,148.246407 C124.483708,148.731386 126.119859,149.579757 127.083021,150.59753 C128.490306,149.652162 131.941303,147.429457 136.372918,145.229975 C130.292505,145.362491 127.906526,147.154863 127.35656,147.656236 C127.35656,147.656236 132.373467,143.324214 133.048519,135.792425" id="path126" fill="#FFFFFF"></path>
                        <path d="M127.43766,119.510115 C131.39656,120.486904 135.07876,120.939778 137.694842,120.783355 L137.719584,120.848793 C137.099515,121.877358 136.00357,122.787479 136.00357,122.787479 C127.125907,122.367528 117.651131,120.980079 109.333606,118.572945 C116.850031,119.344403 122.916286,119.541263 127.43766,119.510115" id="path128" fill="#FFFFFF"></path>
                        <path d="M153.246732,121.170655 C153.275598,120.773246 153.278347,119.920913 153.1079,119.353283 C153.1079,119.353283 160.516834,118.948906 165.824051,115.700095 C164.037109,118.40614 160.114085,120.705622 153.246732,121.170655" id="path130" fill="#FFFFFF"></path>
                        <path d="M75.5256339,144.264116 C71.5659089,141.464901 68.3797921,141.404791 67.1113385,141.529109 C66.4226788,141.131563 65.8538815,140.847407 65.8841221,140.613797 C66.0144313,139.613784 68.9924381,139.057766 72.333469,141.601514 C73.3887267,142.404803 74.4948435,143.302356 75.5256339,144.264116" id="path132" fill="#FFFFFF"></path>
                        <path d="M109.333606,118.572945 C109.333606,118.572945 109.333056,118.573355 109.333056,118.573765 C100.012918,115.876599 92.1461145,111.898544 88.2043964,106.560771 C86.1513381,103.780272 85.6320254,101.069035 86.0657023,98.6079388 C87.6382109,103.912787 94.7484512,116.386032 126.881509,119.371042 C127.066389,119.418721 127.250718,119.464623 127.434911,119.510115 C122.913674,119.541263 116.848382,119.343993 109.333606,118.572945" id="path134" fill="#C3B597"></path>
                        <path d="M148.465976,115.63534 C149.968381,113.260446 148.619928,111.227634 148.619928,111.227634 C149.584876,110.845935 150.468725,110.461777 151.283845,110.078575 C152.369756,111.333919 153.884532,113.414683 154.2268,114.365925 C152.279034,114.908008 150.357385,115.326729 148.465976,115.63534" id="path136" fill="#A08F66"></path>
                        <path d="M128.383914,114.926861 C128.383914,114.926861 128.622677,113.521652 129.029138,112.221089 C134.849894,113.729578 141.201371,113.546379 145.972505,111.582829 C146.901715,112.946644 146.838484,113.764278 146.838484,113.764278 C146.028862,115.310472 144.908587,116.091493 144.908587,116.091493 C138.970443,116.645052 133.390925,116.131111 128.383914,114.926861" id="path138" fill="#A08F66"></path>
                        <path d="M44.6738133,58.8980113 L39.0464595,58.8976015 L40.7432292,65.1913968 L46.351339,65.1913968 C46.3597239,65.1913968 46.3641226,65.1909869 46.3720951,65.1909869 L44.6738133,58.8980113 Z M42.3283838,50.1923003 L39.6090712,40.1061074 C39.6068719,40.0979106 39.6052224,40.0935389 39.603298,40.085752 C39.5953255,40.085752 39.5907894,40.0853421 39.582542,40.0853421 L33.9747071,40.0853421 L36.7052912,50.2133388 L42.3132635,50.2133388 C42.3212361,50.2133388 42.3257721,50.212929 42.3336072,50.212929 C42.3315453,50.2048688 42.3307206,50.2003605 42.3283838,50.1923003 Z M56.9529883,54.6217278 C58.4916824,55.5563025 59.7980741,57.0458021 60.4501703,59.4640021 L62.175806,65.8647659 C62.8177304,68.2459435 62.6467338,70.1277979 61.6680397,71.45623 C60.4691394,73.0846658 58.0848095,73.8760692 54.3797925,73.8760692 L27.4624048,73.8760692 L16.0116834,31.4008062 L42.9283838,31.4008062 C49.5347067,31.4008062 53.6111327,34.0966053 55.0442598,39.4121096 L57.9373181,50.1427095 C58.5484521,52.4091316 58.0489333,53.7659793 56.9529883,54.6217278 Z" id="path140" fill="#A08F66"></path>
                        <path d="M75.2432971,59.50362 L72.9098264,59.50362 L73.2914071,60.9188018 L75.6247404,60.9188018 L75.2432971,59.50362 Z M81.9916131,67.7709375 L63.7602733,67.7709375 L57.2636412,43.6735022 L68.6419227,43.6735022 L70.781579,51.6092581 L71.9736064,43.6735022 L84.5451525,43.6735022 L82.5055649,53.1431572 C83.9495512,53.7274542 85.3971113,54.9609397 86.0810975,57.4986767 L87.1520253,61.470858 C87.705015,63.5219768 87.59285,65.03675 86.8085202,66.1012443 C85.7061147,67.5977113 83.5316818,67.7709375 81.9916131,67.7709375 Z" id="path142" fill="#A08F66"></path>
                        <polyline id="path144" fill="#A08F66" points="158.175941 67.7709375 155.081783 56.2921041 152.423364 67.7709375 139.265976 67.7709375 132.962746 44.3940031 129.526045 67.7709375 119.357523 67.7709375 101.293056 43.7060162 103.677523 52.5509366 117.357523 67.7709375 109.257592 67.7709375 102.890857 60.6772687 100.242059 67.7709375 86.7312693 67.7709375 92.4076953 52.9538106 89.9057022 43.6735022 108.917248 43.6735022 113.14364 49.2283537 120.055805 49.2283537 120.929756 43.6735022 139.663227 43.6735022 142.809618 55.3457807 145.513398 43.6735022 158.574566 43.6735022 165.070786 67.7709375 158.175941 67.7709375"></polyline>
                        <polyline id="path146" fill="#A08F66" points="166.167693 67.7709375 164.318896 60.9188018 170.88247 60.9188018 166.233673 43.6735022 177.612367 43.6735022 182.261164 60.9188018 188.824738 60.9188018 190.67216 67.7709375 166.167693 67.7709375"></polyline>
                        <path d="M21.875051,12.670925 L19.9055665,12.670925 L20.3637108,14.3690339 L22.3329204,14.3690339 L21.875051,12.670925 Z M23.8177314,19.8745678 L21.847972,19.8745678 L22.1524393,21.0029974 L24.1217863,21.0029974 L23.8177314,19.8745678 Z M33.1698961,25.1030491 C32.472714,26.049236 31.1265972,26.5096243 29.0540199,26.5096243 L14.4980065,26.5096243 L9.28254272,7.16399754 L23.8387623,7.16399754 C28.541855,7.16399754 30.2140199,9.70506787 30.7884528,11.8348625 L31.5921642,14.8157608 C31.8878343,15.9127692 31.7444666,16.6586802 31.3450164,17.1805448 C32.0268033,17.7406611 32.5960129,18.5398515 32.9055662,19.687407 L33.48536,21.8390735 C33.8570438,23.2161401 33.7505146,24.3145146 33.1698961,25.1030491 Z" id="path148" fill="#A08F66"></path>
                        <path d="M51.0766998,26.5096243 L47.3459782,12.670925 C47.3153253,12.670925 41.5490024,12.6723184 41.5226106,12.6736436 C41.5287962,12.7064719 45.2476965,26.5096243 45.2476965,26.5096243 L36.1092774,26.5096243 L32.5934012,13.4673968 C32.030927,11.3813185 32.155738,9.76654406 32.9648102,8.66814222 C33.6897586,7.68452324 34.9593118,7.16399754 36.6365627,7.16399754 L45.658693,7.16399754 C50.8060468,7.16399754 52.3709953,10.7624446 53.1008921,13.4673968 L56.6169058,26.5096243 L51.0766998,26.5096243" id="path150" fill="#A08F66"></path>
                        <polyline id="path152" fill="#A08F66" points="63.4419228 12.670925 67.1731942 26.5096243 58.0343628 26.5096243 53.1909265 8.54385103 52.8191052 7.16399754 54.207009 7.16399754 70.0409604 7.16399754 71.5254965 12.670925 63.4419228 12.670925"></polyline>
                        <polyline id="path154" fill="#A08F66" points="81.9944997 12.670925 85.7254961 26.5096243 76.5866648 26.5096243 71.3711322 7.16399754 88.5929875 7.16399754 90.0777984 12.670925 81.9944997 12.670925"></polyline>
                        <path d="M102.165496,12.670925 L100.430925,12.670925 L102.677386,21.0029974 L104.412369,21.0029974 L102.165496,12.670925 Z M113.076286,25.0754532 C112.375392,26.0266947 111.181441,26.5096243 109.527282,26.5096243 L95.0232279,26.5096243 L89.8076953,7.16399754 L104.31175,7.16399754 C107.812231,7.16399754 110.406458,9.33894303 111.428313,13.1312997 L113.427076,20.5426091 C113.957798,22.5139454 113.840272,24.0385548 113.076286,25.0754532 Z" id="path156" fill="#A08F66"></path>
                        <path d="M124.509825,12.670925 L122.018966,12.670925 L124.265289,21.0029974 L126.756011,21.0029974 L124.509825,12.670925 Z M135.420203,25.0754532 C134.719309,26.0266947 133.52522,26.5096243 131.871199,26.5096243 L122.11931,26.5096243 C120.465427,26.5096243 119.010719,26.0266947 117.79711,25.0754532 C116.474499,24.0385548 115.533605,22.5139454 115.002609,20.5426091 L113.004533,13.1312997 C112.472987,11.1599496 112.590925,9.6353812 113.354911,8.59844188 C114.055805,7.64625773 115.249894,7.16399754 116.904052,7.16399754 L126.656217,7.16399754 C130.156423,7.16399754 132.7501,9.33894303 133.772643,13.1312997 L135.770718,20.5426091 C136.301852,22.5139454 136.183914,24.0385548 135.420203,25.0754532 Z" id="path158" fill="#A08F66"></path>
                        <path d="M144.457728,26.5096243 C142.80412,26.5096243 141.349825,26.0266947 140.136079,25.0754532 C138.812368,24.0385548 137.872162,22.5139454 137.34144,20.5426091 L135.343502,13.1312997 C134.812093,11.1599496 134.930031,9.6353812 135.694017,8.59844188 C136.394636,7.64625773 137.589,7.16399754 139.242608,7.16399754 L153.877659,7.16399754 L157.304463,19.8745678 L146.299653,19.8745678 L146.604807,21.0029974 L157.164257,21.0029974 L158.648793,26.5096243 L144.457728,26.5096243" id="path160" fill="#A08F66"></path>
                        <path d="M165.480408,26.5096243 C164.142951,26.5096243 162.870099,26.0667225 161.802058,25.2294169 C160.621302,24.3035855 159.733329,22.9155898 159.303089,21.3199413 L158.233673,17.3554104 C157.77869,15.6641322 157.847419,14.4947185 158.449481,13.6764022 C158.857728,13.1204115 159.457041,12.826692 160.08247,12.670925 L156.971817,12.670925 L155.487281,7.16399754 L169.182126,7.16399754 C172.450855,7.16399754 174.845356,9.09436344 175.752573,12.4577802 L176.926456,16.8103215 C177.270099,18.08766 177.147762,19.1764716 176.569068,19.9606345 C176.230923,20.4196567 175.747075,20.7666556 175.128518,21.0029974 L178.056353,21.0029974 L179.540889,26.5096243 L165.480408,26.5096243" id="path162" fill="#A08F66"></path>
                        <path d="M44.0536071,50.1923003 C44.4545693,51.680024 43.9727824,51.9278413 42.7755316,51.9278413 L35.4423359,51.9278413 L31.7876281,38.3709762 L39.1205489,38.3709762 C40.3676966,38.3709762 40.9601364,38.7179751 41.334432,40.1061074 L44.0536071,50.1923003 Z M48.1052909,65.2203589 C48.4659782,66.5589004 48.0607548,66.9058993 46.8134696,66.9058993 L39.4802739,66.9058993 L36.8592431,57.1830989 L44.1921638,57.1830989 C45.5392428,57.1830989 46.0585555,57.6292794 46.4193803,58.9678209 L48.1052909,65.2203589 Z M43.3906518,33.1157186 L18.198625,33.1157186 L28.7253601,72.1614301 L53.9172495,72.1614301 C59.7538129,72.1614301 61.6002734,70.1284809 60.4507201,65.8647659 L58.7250844,59.4640021 C57.6692769,55.5466029 54.5157375,54.9521965 50.4948441,54.6546517 L50.4679025,54.5554701 C54.6606172,54.0101081 57.1477649,53.6131085 56.2120948,50.1427095 L53.3190365,39.4121096 C52.2362874,35.3962119 49.4765623,33.1157186 43.3906518,33.1157186 Z" id="path164" fill="#FFFFFF"></path>
                        <path d="M77.4985548,61.470858 C77.7598606,62.4390396 77.4868709,62.6333044 76.6423349,62.6333044 L72.0283144,62.6333044 L70.722335,57.7887077 L75.336218,57.7887077 C76.2786235,57.7887077 76.5932627,58.112209 76.819517,58.9519737 L77.4985548,61.470858 Z M73.5852903,45.3884145 L72.2365618,54.3661235 L69.7994484,54.3661235 L67.3793798,45.3884145 L59.4507202,45.3884145 L65.0229537,66.056435 L81.529345,66.056435 C84.9411663,66.056435 86.3674205,64.9583337 85.4269394,61.470858 L84.3558742,57.4986767 C83.8684515,55.6897741 82.926321,54.3661235 80.3272832,54.3661235 L82.2608914,45.3884145 L73.5852903,45.3884145 Z" id="path166" fill="#FFFFFF"></path>
                        <polyline id="path168" fill="#FFFFFF" points="102.084671 53.0417898 100.021303 45.3884145 92.0929187 45.3884145 94.2695509 53.4618771 89.4441215 66.056435 98.8346367 66.056435 102.042197 57.4661626 109.752712 66.056435 113.78144 66.056435 102.084671 53.0417898"></polyline>
                        <path d="M120.141303,61.3413482 L115.076148,54.3661235 L121.217866,54.3661235 L120.141303,61.3413482 Z M122.534155,45.3884145 L121.659378,50.9429928 L112.529069,50.9429928 L108.301716,45.3884145 L104.468039,45.3884145 L119.98254,66.056435 L127.9112,66.056435 L130.94955,45.3884145 L122.534155,45.3884145 Z" id="path170" fill="#FFFFFF"></path>
                        <polyline id="path172" fill="#FFFFFF" points="147.043295 45.3884145 143.079034 62.5042044 143.014429 62.5042044 138.399997 45.3884145 134.95601 45.3884145 140.527832 66.056435 150.893467 66.056435 154.797247 49.199255 154.893467 49.199255 159.439171 66.056435 162.883845 66.056435 157.311336 45.3884145 147.043295 45.3884145"></polyline>
                        <polyline id="path174" fill="#FFFFFF" points="180.999308 62.6333044 176.349136 45.3884145 168.420614 45.3884145 173.070786 62.6333044 166.507212 62.6333044 167.429549 66.056435 188.485219 66.056435 187.561507 62.6333044 180.999308 62.6333044"></polyline>
                        <path d="M29.8647415,38.3709762 L30.640824,38.3709762 L34.5648101,53.0643311 L42.7755316,53.0643311 C43.2009611,53.0643311 44.0087962,53.0580469 44.6174559,52.5961558 C44.3320951,53.3230775 43.6966312,53.8221276 42.2035728,53.8221276 L33.9929888,53.8221276 L29.8647415,38.3709762" id="path176" fill="#BDBCBC"></path>
                        <path d="M58.8380741,69.9489705 C59.1502391,69.2389888 59.1319573,68.2434845 58.7744315,66.9166918 L56.7738817,59.5876375 C56.2219917,57.5408903 55.0298268,56.581452 52.9632976,56.0795331 C55.554088,56.5248939 56.9975243,57.4475832 57.6203422,59.7581315 L59.3462528,66.1588953 C60.1043284,68.9723188 59.1352563,69.7029291 58.8380741,69.9489705" id="path178" fill="#BDBCBC"></path>
                        <path d="M46.2416483,68.8001855 L38.0309269,68.8001855 L34.9473531,57.1830989 L35.723573,57.1830989 L38.6027482,68.0425257 L46.8134696,68.0425257 C47.4049473,68.0425257 48.1123012,67.9747652 48.6526448,67.5604157 C48.5597239,67.7952548 48.2342256,68.8001855 46.2416483,68.8001855" id="path180" fill="#BDBCBC"></path>
                        <path d="M54.6698268,52.4742963 C54.7223354,52.1535273 54.6797237,51.7268825 54.5358062,51.1949086 L51.6424729,40.4638988 C50.9156001,37.7667336 49.2986929,35.0100048 42.8188305,35.0100048 L19.8930579,35.0100048 L19.6889342,34.2522084 L43.3906518,34.2522084 C49.8705142,34.2522084 51.4874214,37.0090738 52.2142942,39.7061024 L55.10749,50.4372488 C55.5293457,52.0006565 55.0098955,52.2778458 54.6698268,52.4742963" id="path182" fill="#BDBCBC"></path>
                        <path d="M76.0705136,64.5275906 L70.5791048,64.5275906 L68.7627474,57.7947187 L69.5389673,57.7947187 L71.1507886,63.7699307 L76.6423349,63.7699307 C76.9424036,63.7699307 77.5661836,63.7636465 78.0694139,63.4062649 C78.0166304,63.5594089 77.9406166,63.7099573 77.8298262,63.8531285 C77.3094139,64.5275906 76.4415101,64.5275906 76.0705136,64.5275906" id="path184" fill="#BDBCBC"></path>
                        <polyline id="path186" fill="#BDBCBC" points="71.9550497 56.2604097 68.3498265 56.2604097 65.9297578 47.2827007 61.145428 47.2827007 60.9410294 46.5250409 66.5015791 46.5250409 68.9216478 55.5026132 72.0690016 55.5026132 71.9550497 56.2604097"></polyline>
                        <path d="M84.327558,64.2330513 C84.2386233,64.3482167 84.1113381,64.4487644 83.9476268,64.5349677 C84.0691388,63.9605069 83.9231594,63.1635023 83.7503759,62.5227838 L82.6795856,58.5506025 C82.2790357,57.0650647 81.6945684,56.2604097 79.7553245,56.2604097 L77.8872833,56.2604097 L79.8210289,47.2827007 L74.4569054,47.2827007 L74.5708572,46.5250409 L80.8467334,46.5250409 L78.9129877,55.5026132 L80.3272832,55.5026132 C82.2663897,55.5026132 82.850857,56.3074048 83.2514069,57.7929427 L84.3221972,61.7649874 C84.5477642,62.6018832 84.7319566,63.7092742 84.327558,64.2330513" id="path188" fill="#BDBCBC"></path>
                        <polyline id="path190" fill="#BDBCBC" points="98.0393103 64.9199452 97.2739495 64.9199452 100.453468 56.233087 101.074087 56.7457983 98.0393103 64.9199452"></polyline>
                        <polyline id="path192" fill="#BDBCBC" points="110.265014 64.9199452 100.364808 53.9316918 98.5720938 47.2827007 93.7876265 47.2827007 93.5832279 46.5250409 99.143915 46.5250409 101.050582 53.5972613 111.226526 64.9199452 110.265014 64.9199452"></polyline>
                        <polyline id="path194" fill="#BDBCBC" points="119.884533 62.6506543 119.706526 63.8028546 112.658966 54.4810157 113.700203 54.4810157 119.884533 62.6506543"></polyline>
                        <polyline id="path196" fill="#BDBCBC" points="126.922334 64.9199452 126.080959 64.9199452 128.673811 47.2827007 123.393399 47.2827007 123.512712 46.5250409 129.626663 46.5250409 126.922334 64.9199452"></polyline>
                        <polyline id="path198" fill="#BDBCBC" points="121.30364 52.8372791 111.486458 52.8372791 106.747901 46.5250409 107.732781 46.5250409 111.960272 52.0794826 121.422952 52.0794826 121.30364 52.8372791"></polyline>
                        <polyline id="path200" fill="#BDBCBC" points="152.864601 49.199255 153.641233 49.199255 149.983501 64.9199452 149.205495 64.9199452 152.864601 49.199255"></polyline>
                        <polyline id="path202" fill="#BDBCBC" points="160.617178 64.9199452 155.862539 47.2827007 147.77869 47.2827007 147.953261 46.5250409 156.43436 46.5250409 161.39381 64.9199452 160.617178 64.9199452"></polyline>
                        <polyline id="path204" fill="#BDBCBC" points="141.543639 64.3181617 136.951062 47.2827007 136.650718 47.2827007 136.44632 46.5250409 137.523021 46.5250409 141.902402 62.7697815 141.543639 64.3181617"></polyline>
                        <polyline id="path206" fill="#BDBCBC" points="186.218552 64.9199452 186.11271 64.5275906 179.549136 64.5275906 174.900339 47.2827007 170.11546 47.2827007 169.910649 46.5250409 175.470786 46.5250409 180.120958 63.7699307 186.684531 63.7699307 186.995184 64.9199452 186.218552 64.9199452"></polyline>
                        <polyline id="path208" fill="#BDBCBC" points="173.380064 63.7699307 173.584875 64.5275906 168.202058 64.5275906 167.997247 63.7699307 173.380064 63.7699307"></polyline>
                        <path d="M23.8482468,14.8417174 C24.0582812,15.6190496 23.806185,15.7488327 23.1803431,15.7488327 L19.3473535,15.7488327 L18.1455666,11.2911261 L21.9788311,11.2911261 C22.6307898,11.2911261 22.9399307,11.4728361 23.135807,12.1982687 L23.8482468,14.8417174 Z M25.6442605,21.5016376 C25.8328516,22.2010999 25.6208928,22.3827962 24.9689341,22.3827962 L21.1359445,22.3827962 L20.087972,18.494769 L23.9210991,18.494769 C24.6250166,18.494769 24.8966317,18.7283785 25.0853602,19.4278409 L25.6442605,21.5016376 Z M24.210721,8.54385103 L11.0426389,8.54385103 L15.5143639,25.1299621 L28.6820611,25.1299621 C31.7333325,25.1299621 32.698281,24.0672437 32.0973188,21.8390735 L31.5173875,19.687407 C30.9654975,17.6409331 29.3171127,17.3294537 27.2149821,17.1737141 L27.201099,17.1218008 C29.392989,16.8362781 30.6929202,16.6286252 30.2042604,14.8157608 L29.4002742,11.8348625 C28.8346385,9.73644805 27.3921643,8.54385103 24.210721,8.54385103 Z" id="path210" fill="#FFFFFF"></path>
                        <path d="M46.0303769,8.54385103 L37.0086589,8.54385103 C34.453195,8.54385103 33.0313394,9.94414193 33.9815799,13.4673968 L37.1253599,25.1299621 L43.487834,25.1299621 L40.1621983,12.7938774 C39.8757378,11.7310088 40.2783495,11.2911261 41.2432979,11.2911261 L46.8754627,11.2911261 C47.9965624,11.2911261 48.4246036,11.524763 48.7252221,12.638165 L52.0927822,25.1299621 L54.8566309,25.1299621 L51.7128509,13.4673968 C50.762473,9.94414193 49.2118201,8.54385103 46.0303769,8.54385103" id="path212" fill="#FFFFFF"></path>
                        <polyline id="path214" fill="#FFFFFF" points="54.5789677 8.54385103 59.0504453 25.1299621 65.4129193 25.1299621 61.6820603 11.2911261 69.7652216 11.2911261 69.024878 8.54385103 54.5789677 8.54385103"></polyline>
                        <polyline id="path216" fill="#FFFFFF" points="73.1312696 8.54385103 77.6027472 25.1299621 83.9652213 25.1299621 80.2343623 11.2911261 88.3175236 11.2911261 87.5771799 8.54385103 73.1312696 8.54385103"></polyline>
                        <path d="M105.892781,21.3458979 C106.081509,22.0453603 105.833537,22.3827962 104.920547,22.3827962 L101.661303,22.3827962 L98.6710628,11.2911261 L101.930582,11.2911261 C102.842884,11.2911261 103.273125,11.6272233 103.461028,12.3280518 L105.892781,21.3458979 Z M104.683846,8.54385103 L91.5679702,8.54385103 L96.0394478,25.1299621 L109.155461,25.1299621 C111.997386,25.1299621 112.81388,23.4196946 112.03876,20.5426091 L110.040272,13.1312997 C109.26474,10.2542551 107.525771,8.54385103 104.683846,8.54385103 Z" id="path218" fill="#FFFFFF"></path>
                        <path d="M128.23656,21.3458979 C128.425289,22.0453603 128.177316,22.3827962 127.265014,22.3827962 L124.500753,22.3827962 C123.588313,22.3827962 123.158485,22.0453603 122.969481,21.3458979 L120.538554,12.3280518 C120.349825,11.6272233 120.597798,11.2911261 121.51065,11.2911261 L124.274086,11.2911261 C125.186938,11.2911261 125.616767,11.6272233 125.80577,12.3280518 L128.23656,21.3458979 Z M127.027763,8.54385103 L117.275873,8.54385103 C114.433399,8.54385103 113.617042,10.2542551 114.392437,13.1312997 L116.390513,20.5426091 C117.166458,23.4196946 118.904602,25.1299621 121.747351,25.1299621 L131.499103,25.1299621 C134.341715,25.1299621 135.158347,23.4196946 134.382677,20.5426091 L132.384602,13.1312997 C131.608657,10.2542551 129.870512,8.54385103 127.027763,8.54385103 Z" id="path220" fill="#FFFFFF"></path>
                        <path d="M147.723708,8.54385103 L148.129206,10.0479411 L148.076972,10.0479411 C147.524395,9.06292862 147.046044,8.54385103 145.351199,8.54385103 L139.615117,8.54385103 C136.77223,8.54385103 135.955598,10.2542551 136.731543,13.1312997 L138.729893,20.5426091 C139.505151,23.4196946 141.243983,25.1299621 144.086594,25.1299621 L156.889343,25.1299621 L156.14845,22.3827962 L146.839859,22.3827962 C145.927144,22.3827962 145.496904,22.0453603 145.308587,21.3458979 L142.876972,12.3280518 C142.688656,11.6272233 142.936079,11.2911261 143.848794,11.2911261 L146.013742,11.2911261 C146.848106,11.2911261 147.322333,11.6012257 147.518897,12.3280518 L148.439859,15.7488327 L144.999309,15.7488327 L145.738828,18.494769 L155.543639,18.494769 L152.860477,8.54385103 L147.723708,8.54385103" id="path222" fill="#FFFFFF"></path>
                        <path d="M169.554635,8.54385103 L157.246731,8.54385103 L157.987625,11.2911261 L166.905838,11.2911261 C167.714085,11.2911261 167.945013,11.4728361 168.092092,12.0165725 L168.399996,13.1572972 C168.552573,13.7269492 168.334016,13.8826889 167.525769,13.8826889 L162.075597,13.8826889 C159.676972,13.8826889 158.93058,14.7898042 159.621989,17.3554104 L160.691405,21.3199413 C161.243982,23.3677813 162.735391,25.1299621 165.1079,25.1299621 L177.781439,25.1299621 L177.040545,22.3827962 L168.252917,22.3827962 C167.392436,22.3827962 167.09003,22.2270566 166.949824,21.7092905 L166.663913,20.6464355 C166.53058,20.154626 166.749137,19.9988864 167.610992,19.9988864 L172.356009,19.9988864 C174.780752,19.9988864 176.147075,19.0658145 175.53814,16.8103215 L174.364257,12.4577802 C173.672848,9.89222871 172.136078,8.54385103 169.554635,8.54385103" id="path224" fill="#FFFFFF"></path>
                        <polyline id="path226" fill="#BDBCBC" points="148.624051 16.6231607 148.74089 17.1231607 146.262539 17.1231607 146.144326 16.6231607 148.624051 16.6231607"></polyline>
                        <polyline id="path228" fill="#BDBCBC" points="153.928518 17.620441 151.833673 9.855343 148.988312 9.855343 148.97869 9.82118956 148.870099 9.41812436 152.185563 9.41812436 154.397247 17.620441 153.928518 17.620441"></polyline>
                        <path d="M24.6171815,23.6942882 L20.1094153,23.6942882 L18.7077659,18.494769 L19.177594,18.494769 L20.4611679,23.2571242 L24.9689341,23.2571242 C25.186941,23.2571242 25.7068035,23.2530258 26.1105148,22.9388142 C25.8769753,23.4319898 25.4068722,23.6942882 24.6171815,23.6942882" id="path230" fill="#BDBCBC"></path>
                        <path d="M30.970446,23.8336342 C31.0756006,23.5248871 31.0520954,23.0795263 30.8960817,22.5016502 L30.1492776,19.826753 C29.8758755,18.813079 29.2692776,18.3731828 28.1542261,18.1464039 C29.6061848,18.3431277 30.3549133,18.752969 30.6680405,19.9141858 L31.2478343,22.0644862 C31.5890026,23.3308956 31.236013,23.6615009 30.970446,23.8336342" id="path232" fill="#BDBCBC"></path>
                        <path d="M16.7654979,11.2911261 L17.2349137,11.2911261 L18.6724394,16.6231607 L23.1803431,16.6231607 C23.4203431,16.6231607 23.9279719,16.6190623 24.3234358,16.3116813 C24.1896901,16.5985702 23.8758757,17.0589585 22.8285905,17.0589585 L18.3206868,17.0589585 L16.7654979,11.2911261" id="path234" fill="#BDBCBC"></path>
                        <path d="M29.0725766,15.881348 C29.0674907,15.7788877 29.0485216,15.6477385 29.0028859,15.4783375 L28.1991746,12.498819 C27.8291402,11.1257962 27.0471471,9.855343 23.858831,9.855343 L12.3064877,9.855343 L12.1888932,9.41812436 L24.210721,9.41812436 C27.3988997,9.41812436 28.1807553,10.6886868 28.5509271,12.061655 L29.3546384,15.0411735 C29.5459786,15.751565 29.3408927,15.78162 29.0725766,15.881348" id="path236" fill="#BDBCBC"></path>
                        <path d="M38.9608238,13.4578475 C38.5705832,12.0083483 39.2676279,11.4400625 39.4008238,11.322561 C39.1598616,11.7692743 39.1285214,12.3376148 39.3127138,13.0206835 L42.3418546,24.2557707 L41.8721639,24.2557707 L38.9608238,13.4578475" id="path238" fill="#BDBCBC"></path>
                        <path d="M53.2409609,24.2557707 L50.5116139,14.1313259 C49.6493458,10.9345916 48.429827,9.855343 45.6786243,9.855343 L36.6569063,9.855343 C35.818006,9.855343 35.1979373,10.0247304 34.800549,10.3567154 C34.9997242,9.97419696 35.4764252,9.41812436 37.0086589,9.41812436 L46.0303769,9.41812436 C48.7815795,9.41812436 50.0012359,10.497373 50.8633664,13.6941619 L53.710789,24.2557707 L53.2409609,24.2557707" id="path240" fill="#BDBCBC"></path>
                        <polyline id="path242" fill="#BDBCBC" points="60.3021291 11.2911261 60.7716823 11.2911261 64.2668025 24.2557707 63.7972493 24.2557707 60.3021291 11.2911261"></polyline>
                        <polyline id="path244" fill="#BDBCBC" points="68.1498265 10.4167982 67.9982114 9.855343 55.8428852 9.855343 55.7250845 9.41812436 68.3498265 9.41812436 68.6193797 10.4167982 68.1498265 10.4167982"></polyline>
                        <polyline id="path246" fill="#BDBCBC" points="78.8542936 11.2911261 79.3239843 11.2911261 82.8192419 24.2557707 82.3495512 24.2557707 78.8542936 11.2911261"></polyline>
                        <polyline id="path248" fill="#BDBCBC" points="86.701991 10.4167982 86.5506508 9.855343 74.3953246 9.855343 74.2775239 9.41812436 86.9024033 9.41812436 87.1714068 10.4167982 86.701991 10.4167982"></polyline>
                        <path d="M104.568932,23.6942882 L100.634499,23.6942882 L97.2908567,11.2911261 L97.7606848,11.2911261 L100.986389,23.2571242 L104.920547,23.2571242 C105.163021,23.2571242 105.832025,23.2543919 106.32041,22.8541137 C106.201784,23.086357 105.858417,23.6942882 104.568932,23.6942882" id="path250" fill="#BDBCBC"></path>
                        <path d="M110.893331,23.8131422 C111.165908,23.2502935 111.148038,22.3582058 110.837523,21.2065519 L108.839035,13.79389 C108.124808,11.1435696 106.650582,9.855343 104.332094,9.855343 L92.8318877,9.855343 L92.714087,9.41812436 L104.683846,9.41812436 C107.002472,9.41812436 108.476561,10.7064057 109.190788,13.3581058 L111.189413,20.7693879 C111.763846,22.9005623 111.205496,23.5645051 110.893331,23.8131422" id="path252" fill="#BDBCBC"></path>
                        <path d="M119.759172,11.2569727 C119.577454,11.6121685 119.552299,12.0466138 119.689207,12.5534645 L122.119997,21.5726767 C122.42144,22.6901772 123.222677,23.2571242 124.500753,23.2571242 L127.265014,23.2571242 C127.507213,23.2571242 128.175667,23.2543919 128.664189,22.8541137 C128.444121,23.284447 127.979516,23.6942882 126.913124,23.6942882 L124.149138,23.6942882 C122.870925,23.6942882 122.069825,23.1273411 121.768244,22.0098407 L119.337454,12.9905738 C119.066664,11.9878563 119.481234,11.4837789 119.759172,11.2569727" id="path254" fill="#BDBCBC"></path>
                        <path d="M133.237797,23.8131422 C133.509687,23.2502935 133.492093,22.3582058 133.18144,21.2065519 L131.183502,13.79389 C130.468588,11.1435696 128.994086,9.855343 126.676011,9.855343 L116.923983,9.855343 C116.134155,9.855343 115.553674,10.0056181 115.185977,10.2979579 C115.258691,10.1462893 115.546939,9.41812436 117.275873,9.41812436 L127.027763,9.41812436 C129.345839,9.41812436 130.82034,10.7064057 131.535117,13.3567123 L133.533193,20.7693879 C134.143777,23.0317115 133.468038,23.6300797 133.237797,23.8131422" id="path256" fill="#BDBCBC"></path>
                        <path d="M144.999309,9.855343 L139.263227,9.855343 C138.472849,9.855343 137.89278,10.0056181 137.524395,10.2979579 C137.705838,9.92227007 138.151199,9.41812436 139.615117,9.41812436 L145.351199,9.41812436 C146.717522,9.41812436 146.903089,9.74878427 147.308587,10.4728371 L147.502402,10.8184153 C147.289343,10.6736457 147.024051,10.5629612 146.709275,10.4946543 C146.413742,10.0588838 146.068725,9.855343 144.999309,9.855343" id="path258" fill="#BDBCBC"></path>
                        <path d="M155.272848,24.2557707 L155.121646,23.6942882 L146.487969,23.6942882 C145.209618,23.6942882 144.409618,23.1273411 144.107213,22.0098407 L141.675598,12.9905738 C141.413055,12.015179 141.79656,11.501484 142.097591,11.2569727 C141.916148,11.6121685 141.891405,12.0452204 142.027488,12.5534645 L144.459103,21.5726767 C144.761508,22.6901772 145.561508,23.2571242 146.839859,23.2571242 L155.473536,23.2571242 L155.742951,24.2557707 L155.272848,24.2557707" id="path260" fill="#BDBCBC"></path>
                        <path d="M160.301027,15.4127629 C160.331267,15.2925428 160.37113,15.2105745 160.409618,15.1600274 C160.613054,14.8963629 161.190374,14.7570169 162.075597,14.7570169 L167.525769,14.7570169 C168.008243,14.7570169 168.492092,14.7078359 168.854979,14.4250455 C168.672161,14.8157608 168.32302,15.1928147 167.173879,15.1928147 L161.725082,15.1928147 C161.073535,15.1928147 160.592436,15.2693184 160.301027,15.4127629" id="path262" fill="#BDBCBC"></path>
                        <path d="M174.37113,18.6928589 C174.483844,18.395041 174.475597,17.987932 174.336765,17.4742643 L173.162882,13.1204115 C172.553948,10.8621863 171.333329,9.855343 169.202745,9.855343 L158.511336,9.855343 L158.393123,9.41812436 L169.554635,9.41812436 C171.685219,9.41812436 172.905838,10.4250223 173.514772,12.6831929 L174.688655,17.0371003 C175.006181,18.2174431 174.586937,18.5425838 174.37113,18.6928589" id="path264" fill="#BDBCBC"></path>
                        <path d="M176.166319,24.2557707 L176.013741,23.6942882 L167.901027,23.6942882 C167.318209,23.6942882 166.104463,23.6942882 165.748449,22.3718671 L165.462539,21.3103783 C165.237109,20.4743022 165.64948,20.0603625 165.862539,19.8977922 C165.733329,20.1751181 165.714085,20.5016249 165.814429,20.8732143 L166.100339,21.9347031 C166.456353,23.2571242 167.670099,23.2571242 168.252917,23.2571242 L176.365631,23.2571242 L176.635047,24.2557707 L176.166319,24.2557707" id="path266" fill="#BDBCBC"></path>
                        <path d="M65.0098953,40.9027022 L63.2515448,34.3795324 C63.2512699,34.3795324 63.2384864,34.3425101 63.2257029,34.3058976 C63.1671462,34.3017992 63.1051531,34.2977007 63.1051531,34.2977007 C63.1051531,34.2977007 61.1555998,34.2977007 60.7010294,34.2977007 C60.8181428,34.7325423 62.4817854,40.9027022 62.4817854,40.9027022 L57.8666652,40.9027022 L56.214844,34.7750292 C55.926734,33.707666 56.0125072,32.8655788 56.4696893,32.2736315 C56.7520261,31.9076432 57.3154625,31.4715722 58.3958748,31.4715722 L62.7017166,31.4715722 C64.5686582,31.4715722 65.5999984,32.3424848 66.149964,34.3828111 L67.9076272,40.9027022 L65.0098953,40.9027022" id="path268" fill="#FFFFFF"></path>
                        <path d="M62.7017166,32.229232 L58.3958748,32.229232 C57.1762185,32.229232 56.4974556,32.8972732 56.9513388,34.5789884 L58.4516824,40.1450423 L61.4882459,40.1450423 L59.900892,34.2578095 C59.7643971,33.7505627 59.9565621,33.5400409 60.4169057,33.5400409 L63.1051531,33.5400409 C63.6402733,33.5400409 63.8445345,33.6517909 63.9877647,34.183355 L65.5949124,40.1450423 L66.9140877,40.1450423 L65.4136066,34.5789884 C64.9601358,32.8972732 64.2200671,32.229232 62.7017166,32.229232" id="path270" fill="#A08F66"></path>
                        <path d="M79.5168365,40.9027022 C79.5168365,40.9027022 78.875187,38.5230273 78.3973864,36.7503273 C77.9890015,38.5134643 77.4355994,40.9027022 77.4355994,40.9027022 L72.2739501,40.9027022 L69.7314072,31.4715722 L72.6288642,31.4715722 C72.6288642,31.4715722 73.2812353,33.8912748 73.768383,35.6981283 C74.1848779,33.9008378 74.7474895,31.4715722 74.7474895,31.4715722 L79.8717506,31.4715722 L82.4145684,40.9027022 L79.5168365,40.9027022" id="path272" fill="#FFFFFF"></path>
                        <polyline id="path274" fill="#A08F66" points="75.3542249 32.229232 73.8360119 38.784506 73.8112696 38.784506 72.043847 32.229232 70.7249467 32.229232 72.8589673 40.1450423 76.8290015 40.1450423 78.3239843 33.6886767 78.3612352 33.6886767 80.1017162 40.1450423 81.4210289 40.1450423 79.2867334 32.229232 75.3542249 32.229232"></polyline>
                        <polyline id="path276" fill="#FFFFFF" points="86.7814411 40.9027022 84.2388982 31.4715722 88.8541559 31.4715722 91.3966987 40.9027022 86.7814411 40.9027022"></polyline>
                        <polyline id="path278" fill="#A08F66" points="85.2324377 32.229232 87.3664583 40.1450423 90.4031593 40.1450423 88.2691387 32.229232 85.2324377 32.229232"></polyline>
                        <path d="M103.625152,40.9027022 C103.625152,40.9027022 101.698142,37.9690586 100.499654,36.1444454 C100.326733,37.9891408 100.053468,40.9027022 100.053468,40.9027022 L95.2839839,40.9027022 L96.1961488,31.4715722 L100.698829,31.4715722 L106.903777,40.9027022 L103.625152,40.9027022" id="path280" fill="#FFFFFF"></path>
                        <polyline id="path282" fill="#A08F66" points="100.286321 32.229232 96.8887948 32.229232 96.1232966 40.1450423 99.3590353 40.1450423 99.9432277 33.9110838 104.038073 40.1450423 105.494293 40.1450423 100.286321 32.229232"></polyline>
                        <path d="M110.655942,40.9027022 L108.113537,31.4715722 L116.585564,31.4715722 L117.348588,34.2977007 C117.348588,34.2977007 114.585702,34.2977007 113.490169,34.2977007 C113.571818,34.6004368 113.590925,34.672159 113.655117,34.9097303 C114.469963,34.9097303 117.189963,34.9097303 117.189963,34.9097303 L117.950925,37.7364054 C117.950925,37.7364054 115.443983,37.7364054 114.417042,37.7364054 C114.462815,37.9062162 114.4701,37.9329925 114.508863,38.076437 C115.350925,38.076437 118.366595,38.076437 118.366595,38.076437 L119.129619,40.9027022 L110.655942,40.9027022" id="path284" fill="#FFFFFF"></path>
                        <polyline id="path286" fill="#A08F66" points="109.106939 32.229232 111.240959 40.1450423 118.135667 40.1450423 117.781853 38.8340968 113.923708 38.8340968 113.423502 36.9786089 116.95766 36.9786089 116.604671 35.6675268 113.0701 35.6675268 112.496492 33.5400409 116.354774 33.5400409 116.000822 32.229232 109.106939 32.229232"></polyline>
                        <path d="M127.811818,38.076437 C127.774567,37.9380472 127.743502,37.8230185 127.720134,37.7364054 C127.629138,37.7364054 127.396973,37.7364054 127.083296,37.7364054 C127.129069,37.9062162 127.136217,37.9329925 127.17498,38.076437 C127.457041,38.076437 127.540066,38.076437 127.811818,38.076437 Z M123.321784,40.9027022 L120.779378,31.4715722 L125.394499,31.4715722 C125.394499,31.4715722 125.852093,33.168998 126.123571,34.1752948 C126.272024,33.1862113 126.529619,31.4715722 126.529619,31.4715722 L131.451681,31.4715722 C131.451681,31.4715722 130.875873,34.1457863 130.67766,35.0673826 C131.356423,35.3082326 131.822402,35.8358349 132.047832,36.671228 L132.458004,38.1925587 C132.547213,38.5230273 132.591887,38.8226213 132.591887,39.0931165 C132.591887,39.5226301 132.479172,39.8797384 132.253193,40.1727749 C131.748175,40.8268815 130.856217,40.9027022 130.229138,40.9027022 L123.321784,40.9027022 Z" id="path288" fill="#FFFFFF"></path>
                        <path d="M128.68522,38.388736 C128.785289,38.7593691 128.680822,38.8340968 128.357523,38.8340968 L126.590237,38.8340968 L126.089756,36.9786089 L127.857179,36.9786089 C128.217866,36.9786089 128.338553,37.1025176 128.425289,37.4236965 L128.68522,38.388736 Z M127.186663,32.229232 L126.6701,35.6675268 L125.736629,35.6675268 L124.809481,32.229232 L121.773055,32.229232 L123.906938,40.1450423 L130.229138,40.1450423 C131.535529,40.1450423 132.082059,39.7246818 131.721784,38.388736 L131.311474,36.8674053 C131.12467,36.174637 130.763846,35.6675268 129.768931,35.6675268 L130.508863,32.229232 L127.186663,32.229232 Z" id="path290" fill="#A08F66"></path>
                        <path d="M139.68522,40.9027022 C138.327144,40.9027022 137.236973,39.9910786 136.840959,38.5234371 C136.840821,38.5230273 136.330718,36.6305171 136.330718,36.6305171 C136.258278,36.3619345 136.186938,36.0333784 136.186938,35.6970353 C136.186938,35.3433424 136.265701,34.9814525 136.504876,34.671476 C136.632299,34.5067198 136.785839,34.3905981 136.949275,34.2977007 C136.775254,34.2977007 135.70199,34.2977007 135.70199,34.2977007 L134.94034,31.4715722 L141.807557,31.4715722 C142.892093,31.4715722 144.298278,31.892889 144.839859,33.901111 L145.399309,35.9785963 C145.465288,36.2243644 145.494154,36.4447224 145.494154,36.6413096 C145.494154,37.1277911 145.325082,37.4685058 145.154636,37.6887272 C145.035048,37.8444668 144.878347,37.9683755 144.706526,38.076437 C144.887969,38.076437 145.964258,38.076437 145.964258,38.076437 L146.727144,40.9027022 L139.68522,40.9027022" id="path292" fill="#FFFFFF"></path>
                        <path d="M141.807557,32.229232 L135.933742,32.229232 L136.287144,33.5400409 L140.542952,33.5400409 C140.929206,33.5400409 141.039172,33.6269272 141.109275,33.88663 L141.256354,34.4310358 C141.329206,34.7028971 141.224739,34.7769418 140.838484,34.7769418 L138.237797,34.7769418 C137.09333,34.7769418 136.736904,35.2097341 137.067213,36.4344764 L137.576629,38.32685 C137.840546,39.3040481 138.552574,40.1450423 139.68522,40.1450423 L145.73333,40.1450423 L145.380065,38.8340968 L141.186251,38.8340968 C140.775254,38.8340968 140.630924,38.7593691 140.564945,38.5122348 L140.427488,38.0053978 C140.364258,37.7700123 140.468725,37.6963775 140.879722,37.6963775 L143.143639,37.6963775 C144.302402,37.6963775 144.953948,37.2508801 144.663914,36.174637 L144.103089,34.0968785 C143.773192,32.8722729 143.039172,32.229232 141.807557,32.229232" id="path294" fill="#A08F66"></path>
                        <polyline id="path296" fill="#FFFFFF" points="150.820615 40.9027022 148.27766 31.4715722 152.893467 31.4715722 155.435048 40.9027022 150.820615 40.9027022"></polyline>
                        <polyline id="path298" fill="#A08F66" points="149.271474 32.229232 151.404807 40.1450423 154.442608 40.1450423 152.3079 32.229232 149.271474 32.229232"></polyline>
                        <path d="M159.341577,40.9027022 L158.580065,38.076437 C158.580065,38.076437 160.367006,38.076437 161.092779,38.076437 C160.717522,36.6801079 159.312711,31.4715722 159.312711,31.4715722 L163.927144,31.4715722 C163.927144,31.4715722 165.454291,37.1363978 165.708587,38.076437 C166.397247,38.076437 168.221302,38.076437 168.221302,38.076437 L168.984188,40.9027022 L159.341577,40.9027022" id="path300" fill="#FFFFFF"></path>
                        <polyline id="path302" fill="#A08F66" points="165.12302 38.8340968 163.342951 32.229232 160.306525 32.229232 162.086594 38.8340968 159.572505 38.8340968 159.925769 40.1450423 167.990374 40.1450423 167.637109 38.8340968 165.12302 38.8340968"></polyline>
                        <path d="M180.600683,40.9027022 C180.600683,40.9027022 179.124394,39.257736 178.263913,38.2987075 C177.901026,39.2692116 177.290717,40.9027022 177.290717,40.9027022 L172.059102,40.9027022 C172.059102,40.9027022 174.052229,35.6963523 174.211679,35.2809099 C174.103088,34.8768064 173.184875,31.4715722 173.184875,31.4715722 L177.800683,31.4715722 C177.800683,31.4715722 178.611679,34.4819927 178.695528,34.7901933 C178.923707,35.0451145 184.188312,40.9027022 184.188312,40.9027022 L180.600683,40.9027022" id="path304" fill="#FFFFFF"></path>
                        <polyline id="path306" fill="#A08F66" points="180.942951 40.1450423 177.988999 36.8551101 176.760133 40.1450423 173.164257 40.1450423 175.013054 35.3210743 174.17869 32.229232 177.215116 32.229232 178.005494 35.1606898 182.485219 40.1450423 180.942951 40.1450423"></polyline>
                    </g>
                </g>
            </g>
        </g>
    </g>
</svg>