<?xml version="1.0" encoding="UTF-8"?>
<svg width="200px" height="200px" viewBox="0 0 200 200" version="1.1" xmlns="http://www.w3.org/2000/svg" xmlns:xlink="http://www.w3.org/1999/xlink">
    <!-- Generator: Sketch 51.3 (57544) - http://www.bohemiancoding.com/sketch -->
    <title>bucknell</title>
    <desc>Created with Sketch.</desc>
    <defs></defs>
    <g id="bucknell" stroke="none" stroke-width="1" fill="none" fill-rule="evenodd">
        <g id="bucknell_BGL" transform="translate(0.000000, 34.825871)">
            <g id="bucknell">
                <g id="g10" transform="translate(99.945797, 65.778106) scale(-1, 1) rotate(-180.000000) translate(-99.945797, -65.778106) translate(0.000000, 0.150624)">
                    <g id="g12">
                        <path d="M32.2059613,53.3067289 C31.0618962,53.1819291 28.9480752,53.3269551 27.245311,54.378501 C25.6364221,55.3670015 24.8539831,56.8652446 24.8539831,58.9562868 C24.8539831,63.7699012 28.3002703,65.6655672 36.0975601,69.4951997 C37.3075329,70.0888594 38.6063947,70.7274901 39.9676955,71.4252932 C34.0726279,64.3637761 32.5775602,56.4682521 32.2059613,53.3067289 Z M199.735713,30.5466879 L199.76303,31.473434 C200.099074,43.3730951 190.725415,49.2546085 190.3278,49.4992591 L189.784711,49.8321303 L189.152082,49.7893111 C184.146337,49.4564399 182.613112,50.8722721 180.989481,52.3687938 C180.5678,52.7595463 180.132028,53.156754 179.643573,53.5287865 L184.93463,58.9676909 L189.091161,63.2403627 L183.22406,62.4272275 L157.999779,58.5420806 C158.27295,59.131652 158.419725,59.6988456 158.48585,60.2270931 C161.241188,60.1685663 163.377774,60.7265074 164.853329,61.9002711 C165.400104,62.3370704 165.786879,62.8016269 166.062001,63.2416538 C169.512841,63.497063 171.54211,65.2147817 172.098641,68.3730773 C172.098641,68.3844814 172.102326,68.3995435 172.106879,68.41396 C172.264928,68.7713608 172.313925,69.1117631 172.34753,69.3615778 C172.421242,69.9205949 172.597069,71.2286259 175.376039,73.9191375 C178.706771,77.139833 178.909481,80.35601 178.608993,82.2957862 C179.709047,83.105909 180.460483,83.9990883 180.901892,84.6207204 C187.098532,86.6769047 190.606608,89.6630627 191.321838,93.5109849 C192.501892,99.8602824 185.303627,105.570949 185.000104,105.80979 L182.012787,108.145483 C180.390023,111.004259 178.147855,113.573629 175.311866,115.773118 C170.844657,119.233945 166.497774,120.569734 166.314142,120.623957 L162.675335,121.720904 L163.26547,119.713779 C151.598695,123.906407 140.186663,122.934905 137.061677,122.55362 C116.614631,135.951094 99.1882902,131.11295 88.1231414,124.637562 C76.1649845,117.642317 69.1642259,107.536546 68.8719766,107.109645 L67.2344699,104.719298 L70.0526812,103.986207 L70.1842801,103.95264 C65.6403236,100.046191 60.9851475,93.9977041 60.0572343,92.4310363 C59.9351747,92.2261924 59.8107302,91.9981101 59.6659064,91.7325877 C58.6642804,89.8956637 56.5428712,86.0137444 49.9581559,80.2766115 C50.0750123,80.7228784 50.1556627,81.1768914 50.1879662,81.6388659 C50.52466,86.3717907 46.0906222,89.778395 45.9020043,89.9208389 L45.4655815,90.2500521 L44.9218417,90.3219196 C37.9484001,91.2271485 37.0592945,99.8880396 37.0241725,100.256844 L36.588617,104.928015 C36.5866658,104.932964 33.4393488,101.432975 33.4393488,101.432975 C30.5374518,98.2099126 29.335067,94.9778129 29.8614627,91.8292 C29.9160968,91.4982653 29.9924112,91.1798107 30.0799992,90.8703932 L29.1698638,91.3362408 C29.1692134,91.3373166 29.1692134,88.7741869 29.1692134,88.1306072 C29.1635765,88.1034956 29.1570724,88.0744473 29.152086,88.0492722 C28.4559342,84.565206 29.2988611,81.9093372 31.657235,80.1531027 C32.5990236,79.4527176 33.0298095,78.6950968 32.959132,78.3374808 C32.9044978,78.061415 32.3208664,77.4152533 30.5012458,76.9457478 C24.7917609,75.4724646 14.5960322,68.2015852 14.5960322,58.9562868 C14.5960322,53.9675223 17.5476852,50.2747393 20.2997935,47.9138713 L13.1193276,46.8214427 L8.80648216,46.1739899 L12.0884116,43.2646483 L17.9141242,38.0987973 L12.5831542,13.1575139 L4.28988607,5.07586612 L0,0.896411152 L5.91336571,1.57226878 L80.3492663,10.4102185 L64.0357708,0 L176.50341,13.847829 L177.931269,14.0242701 L178.231757,15.4456537 L180.644115,26.8558414 C180.644115,26.8558414 192.602922,24.0304169 199.735713,30.5466879 Z" id="path14" fill="#A0ABB5" fill-rule="nonzero"></path>
                        <path d="M189.284765,47.7531378 C181.534521,47.2350034 180.517069,50.6452656 177.867096,52.2982174 C177.384494,52.5958004 176.827313,52.8075297 176.276635,52.9538467 L183.497231,60.4037493 L148.852896,55.2370376 C158.846608,57.4055417 156.14005,62.4663888 156.14005,62.4663888 C164.362272,61.3315713 164.675335,65.2576009 164.675335,65.2576009 C170.399562,65.0508206 169.880538,68.770285 170.192516,69.1832002 C170.505578,69.5959002 169.775172,71.3534257 173.940592,75.381662 C178.10276,79.4118349 176.229589,83.2330757 176.229589,83.2330757 C178.521405,84.3704753 179.560538,86.3321991 179.560538,86.3321991 C198.921404,92.3238806 183.725957,104.205467 183.725957,104.205467 C185.598911,99.0400464 182.997285,97.4899468 182.997285,97.4899468 C182.163464,113.709833 165.716419,118.669764 165.716419,118.669764 L166.445091,116.189906 C152.182977,122.905211 136.570186,120.425353 136.570186,120.425353 C98.1593471,146.253533 70.5740904,105.961056 70.5740904,105.961056 L74.945906,104.825808 C70.0533316,102.34595 62.8708927,93.151002 61.8311096,91.3960586 C60.789592,89.6385331 58.3967465,83.8534168 46.5294297,74.8654642 C34.662113,65.876651 34.1424382,51.8265602 34.1424382,51.8265602 C32.579945,50.4858231 22.7958802,50.7928736 22.7958802,58.9562868 C22.7958802,67.1186242 31.1230345,68.770285 42.4702428,75.0722446 C53.8161504,81.3742042 44.655175,88.2952139 44.655175,88.2952139 C35.9108934,89.4330438 34.9745249,100.073303 34.9745249,100.073303 C27.1666118,91.3960586 36.2233053,86.3321991 36.2233053,86.3321991 C34.2460696,86.4354817 31.2277499,87.9855813 31.2277499,87.9855813 C31.2277499,87.5726661 29.978319,83.9575601 32.8925737,81.7871194 C35.807262,79.6173243 36.2233053,76.3114206 31.019403,74.9687468 C25.8141999,73.6260731 16.6539616,66.9105528 16.6539616,58.9562868 C16.6539616,51.000945 25.8141999,46.6613547 25.8141999,46.6613547 L13.4152192,44.8029135 L20.1352407,38.8426471 L14.4232625,12.1161242 L5.6878481,3.60387399 L88.8572336,13.4379262 L72.8975592,3.22370797 L176.258857,15.8743195 L179.150131,29.3445215 C179.523031,29.1805604 179.700809,29.1553853 179.700809,29.1553853 C188.87631,26.8810165 194.995551,29.8785786 194.995551,29.8785786 L190.711974,35.2512101 L197.747637,31.5319608 C198.052678,42.3790001 189.284765,47.7531378 189.284765,47.7531378" id="path16" fill="#274D87" fill-rule="nonzero"></path>
                        <path d="M74.1680198,46.277918 L45.2279663,42.268832 C45.2279663,42.268832 45.7667197,47.0798643 38.3624923,47.6130607 C38.3624923,47.6130607 37.4207037,63.7774322 50.8815163,73.1285953 C50.8815163,73.1285953 57.2078034,73.5303215 62.5920852,83.9504594 C67.9763669,94.371458 81.0328435,105.592251 84.2631957,106.528465 C84.2631957,106.528465 81.3014614,108.265119 79.0128978,109.065774 C79.0128978,109.065774 104.723683,134.581954 130.702436,120.555963 C130.702436,120.555963 125.722273,117.349038 123.163141,114.276596 C123.163141,114.276596 152.104928,122.692836 170.67902,109.200687 L170.67902,111.605665 C170.67902,111.605665 178.221567,108.529995 179.596743,98.1423485 C180.970619,87.7536258 174.415605,83.3473321 166.487584,83.7684238 C166.487584,83.7684238 167.122164,81.0393965 166.169318,79.6752055 C165.218424,78.3116601 163.844549,75.4787046 164.372462,73.4849202 C164.372462,73.4849202 165.746988,76.0026486 167.333546,76.9470388 C168.91902,77.8912139 170.505578,79.884568 170.505578,81.7731332 L172.724115,82.2977227 C172.724115,82.2977227 173.147963,78.4158034 169.657015,75.37284 C166.169318,72.3318131 166.909264,70.9671918 166.909264,70.9671918 C166.909264,70.9671918 165.640321,71.4379883 164.462652,71.4128132 C163.279996,71.387638 161.692137,71.4128132 161.436744,71.5660157 C161.181351,71.7172817 160.001297,72.0482163 159.411161,72.8374675 C158.821243,73.6260731 154.722381,76.1179809 152.723682,74.058569 C150.724115,71.997866 151.749807,68.5129392 155.902002,67.1388503 C155.902002,67.1388503 151.083573,65.9448605 148.650186,70.3700893 C148.650186,70.3700893 144.966284,69.8134392 141.977883,64.8883656 C141.977883,64.8883656 151.194793,65.1392563 151.194793,62.2759615 C151.194793,59.4102999 139.853221,56.1939078 131.446934,58.6587038 C131.446934,58.6587038 136.003465,58.9078731 138.839021,60.5657739 C138.839021,60.5657739 134.232192,59.7631821 131.043032,61.3726692 C127.85062,62.9782832 122.78829,61.9734296 122.78829,61.9734296 C122.78829,61.9734296 124.610729,64.4866394 129.624712,64.186044 C134.636094,63.8845879 138.28249,65.4417882 138.737341,65.8925737 C138.737341,65.8925737 140.612896,71.1707446 147.294305,72.8286454 C147.294305,72.8286454 139.751541,73.3317177 135.497232,68.5570495 C135.497232,68.5570495 132.067422,76.523365 123.778642,79.6450814 C123.778642,79.6450814 128.409536,75.1611107 129.382544,67.5018456 C129.382544,67.5018456 122.577558,66.3085013 116.858534,60.349526 C116.858534,60.349526 123.93539,60.1022933 128.22417,57.9464843 L125.950132,56.1510885 C125.950132,56.1510885 136.472409,56.8318929 142.761622,54.6179875 C142.761622,54.6179875 129.734414,54.3249231 119.440431,51.5468365 L123.206284,54.5624731 C123.206284,54.5624731 108.054415,60.349526 86.0988596,51.4407567 C86.0988596,51.4407567 89.7580465,55.9808874 96.7898079,61.3726692 C96.7898079,61.3726692 90.5582633,64.6064902 83.4692662,60.1225194 C76.3789683,55.6424217 71.6888871,59.0464439 70.7178302,59.7821172 C69.7459061,60.5216636 65.2286163,62.6794092 60.4262316,61.2005315 C60.4262316,61.2005315 73.844551,58.4205084 74.1680198,46.277918" id="path18" fill="#ED652D" fill-rule="nonzero"></path>
                        <path d="M181.366933,93.608673 C181.366933,93.608673 180.938749,91.0530743 180.571703,90.1409599 C180.571703,90.1409599 189.169209,92.4166197 186.005415,99.1637704 C186.005415,99.1637704 186.528776,94.1173398 181.366933,93.608673" id="path20" fill="#FFFFFF" fill-rule="nonzero"></path>
                        <path d="M74.2321933,65.7707863 C79.314036,65.2980533 84.6710006,67.5410069 89.4779381,70.7591204 C91.3541441,71.3295416 94.4023825,71.9145944 96.6183174,71.4569235 C96.4646046,71.845309 96.3312713,72.2311126 96.217667,72.6136885 C93.7151196,72.9396742 90.1040628,72.3223455 89.5204314,72.3477358 C84.7726808,69.3361875 74.4169087,63.8247701 67.648562,73.5447381 C75.3988057,68.9940639 81.6323015,72.2468201 87.8239544,77.6289191 C90.0964747,76.4521431 93.3372334,75.2973146 95.7927347,75.7151787 C95.8866101,77.1996509 96.5096995,78.4586226 97.8538729,79.2874655 C100.326502,79.0542189 102.122057,77.8578622 103.348507,76.8902334 C104.171054,78.7669642 101.425255,79.6928496 99.6385883,80.9884007 C101.870567,81.1314901 107.270675,80.5408428 109.39035,79.6513214 L107.536908,81.0178793 C106.845092,81.1831314 106.318046,81.8331662 105.682816,81.9093372 C101.135607,82.4509253 103.631867,81.0514461 98.9519758,83.4689043 C97.4408648,83.938625 93.6229787,85.5472514 92.2237375,84.1441143 C89.4779381,81.3892663 87.1392932,80.1247 87.0046591,80.1247 C85.6581008,79.8656328 82.5120847,79.8101184 79.999998,80.4014113 C77.9414615,79.4596031 74.609429,78.5014419 74.0956079,78.5896624 C74.0956079,78.5896624 78.3523016,82.5776616 81.5117595,82.9305438 L86.7555534,82.7231179 C87.8911631,83.4744988 89.0720845,84.4812889 90.3017864,85.8549474 C91.9746318,87.7271596 97.306881,86.2659261 99.6385883,85.6223464 C102.524875,84.8275008 100.876529,84.0752592 106.917504,83.7002143 C109.046068,83.56982 115.330946,80.8849029 115.330946,80.8849029 C116.796311,80.3951713 121.48184,75.5557362 121.310349,74.8831083 C121.194143,74.6541653 121.255715,69.236778 119.616908,65.1693804 L112.600322,69.6337705 L117.895715,62.9832321 C108.159347,62.1825768 97.7712713,65.9158123 97.7712713,65.9158123 C96.8628702,67.5737131 96.8019488,68.4770054 96.3427618,69.8071992 C93.5067727,69.7297372 90.6345777,68.341447 85.9666103,65.5267812 C82.9439546,63.6009911 79.0194018,62.9946362 77.2680739,62.8414337 C72.1671527,62.3919393 65.3162043,66.9056038 64.8273155,68.630208 C64.4919225,69.1832002 64.2434672,69.6968159 64.0700255,70.1267297 C63.7348494,70.9525601 63.4495377,70.9418015 63.2463941,71.1561129 L62.8518141,72.9975555 L62.5775594,74.9108655 L62.7895919,75.0873066 C62.0667735,78.4889619 62.8429253,80.0579967 66.1298628,81.3572056 C66.7791853,81.6123997 67.444768,81.9237537 68.1211907,82.2807241 L70.257776,83.7311991 C72.7165293,85.0284715 73.8540903,85.9487624 73.8540903,85.9487624 C75.9247677,87.4435628 77.933223,89.0100155 79.7027622,90.30363 C83.2253638,92.8527735 90.3969625,103.734025 102.694415,97.655199 C102.694415,97.655199 92.1055804,98.0717721 87.835445,94.0032986 C80.9272608,87.4194636 75.7881824,81.8060546 66.5853642,78.5563108 C64.6848764,76.5724243 65.9939279,67.2163123 74.2321933,65.7707863" id="path22" fill="#274D87" fill-rule="nonzero"></path>
                        <path d="M100.390025,67.5724221 C104.476095,66.3872543 108.730404,65.7443201 112.942653,65.4669633 C109.341352,66.4201756 105.261786,67.2559039 102.010838,69.2038567 C101.340919,71.0773599 101.003575,73.0562975 100.816258,75.0135026 L99.1932767,76.1797352 C99.553385,73.3102005 99.7498078,70.412263 100.390025,67.5724221" id="path24" fill="#FFFFFF"></path>
                        <polygon id="path26" fill="#FFFFFF" points="111.745471 75.8543951 111.490079 74.0004725 118.663628 67.9539221"></polygon>
                        <path d="M158.731487,107.665649 C158.731487,107.665649 150.614197,113.838506 140.886067,110.09279 C132.171704,106.7346 129.838696,99.0596271 133.511108,95.3485544 C132.300484,95.353073 131.05062,95.2609793 130.038154,94.9728639 C127.030674,94.1104543 125.5781,95.5798644 125.5781,95.5798644 C126.267097,85.3544572 138.135715,87.6206494 138.135715,87.6206494 C138.135715,87.6206494 135.37604,88.5882782 134.19707,90.0508028 C133.017016,91.5139729 129.409211,91.3196725 129.409211,91.3196725 C129.409211,91.3196725 132.681623,94.1362749 139.061243,92.4486804 C145.442598,90.7587189 147.710132,96.3458769 147.710132,96.3458769 C147.710132,96.3458769 141.282381,99.7404315 143.511108,104.020204 C145.7394,108.299331 153.618424,108.543766 158.731487,107.665649" id="path28" fill="#274D87" fill-rule="nonzero"></path>
                        <path d="M174.906583,85.2262146 L174.644678,85.4347064 L174.463519,85.6685467 C174.562898,85.6995987 174.609481,85.7148078 174.658136,85.7262146 L174.963519,85.2439586 L174.906583,85.2262146" id="path30" fill="#E02F29" fill-rule="nonzero"></path>
                        <path d="M139.397937,97.952782 C136.472409,99.8697499 136.862869,104.936192 142.42688,108.62381 C142.42688,108.62381 135.008994,106.688553 134.956745,100.259211 C134.90211,93.828794 140.345579,94.4357944 140.978208,94.7396174 C141.610837,95.0408583 142.327801,96.0355988 139.397937,97.952782" id="path32" fill="#FFFFFF" fill-rule="nonzero"></path>
                        <path d="M142.555877,89.089414 C142.555877,89.089414 147.69127,88.7957041 150.284657,92.525712 C150.284657,92.525712 150.680972,84.24503 158.128126,84.7876939 L154.983411,83.4355527 C154.983411,83.4355527 155.351324,79.660789 154.011053,76.3015226 C154.011053,76.3015226 153.569644,80.4506857 152.06417,83.2287723 C152.06417,83.2287723 148.956527,82.7099924 147.756527,85.2408463 C146.559996,87.7719154 144.703953,88.3537407 142.555877,89.089414" id="path34" fill="#274D87" fill-rule="nonzero"></path>
                        <path d="M149.630349,86.4727064 C149.667205,86.7065985 149.835443,86.8503334 150.07501,86.9013292 C149.536256,87.7587899 149.319021,88.4673515 149.319021,88.4673515 C147.597178,85.5188486 149.620159,84.947782 150.966067,84.8696745 C150.896256,84.8948496 150.823844,84.9245434 150.752083,84.9604771 C150.05398,85.3103469 149.550349,85.9846962 149.630349,86.4727064" id="path36" fill="#FFFFFF" fill-rule="nonzero"></path>
                        <path d="M154.343194,70.0813284 C154.343194,70.0813284 154.247367,73.4974002 157.371053,72.2612367 C160.496039,71.0237821 160.940701,69.8764846 160.940701,69.8764846 C160.940701,69.8764846 164.608776,70.4583099 166.047909,68.7670574 C166.047909,68.7670574 162.687476,69.1937436 160.292896,68.8722765 C160.292896,68.8722765 159.97463,69.691867 157.94276,70.7862321 C155.911541,71.8812428 154.837503,71.2096907 154.343194,70.0813284" id="path38" fill="#FFFFFF" fill-rule="nonzero"></path>
                        <path d="M147.665687,68.1587659 C147.665687,68.1587659 147.275227,67.9098119 146.732137,67.5156166 L148.96585,66.5208761 L145.937557,66.9105528 C145.608452,66.646967 145.268723,66.3590667 144.946555,66.0563196 C144.946555,66.0563196 149.411812,66.2170532 152.184928,64.9060097 C152.184928,64.9060097 149.807476,66.9389555 147.665687,68.1587659" id="path40" fill="#FFFFFF" fill-rule="nonzero"></path>
                        <path d="M173.556202,105.407634 C173.556202,105.407634 176.79631,101.488489 176.083681,93.8980794 C175.370836,86.3050874 165.276961,86.6373131 165.276961,86.6373131 C165.276961,86.6373131 169.255497,91.7893931 169.548397,93.7070066 C169.548397,93.7070066 170.612245,91.4634075 169.897665,89.7489164 C169.897665,89.7489164 175.17528,91.4982653 173.556202,105.407634" id="path42" fill="#274D87" fill-rule="nonzero"></path>
                        <path d="M119.16726,82.7842268 C119.16726,82.7842268 134.042273,82.639416 143.753276,76.058163 C143.753276,76.058163 140.889753,75.3244263 138.514902,74.6593294 C138.514902,74.6593294 130.952842,80.0881207 119.430891,82.1684043 L119.16726,82.7842268" id="path44" fill="#274D87" fill-rule="nonzero"></path>
                        <path d="M173.718153,43.9362004 C175.902001,43.039148 178.075443,41.3956637 179.855172,38.3742175 C179.855172,38.3742175 181.853437,39.8115669 183.493329,40.3617619 C182.444657,42.6249418 181.148397,43.3341489 180.153708,45.0600441 C182.569318,44.6023731 183.719453,44.1081229 185.68715,44.8986651 C180.153708,45.0600441 178.692895,48.3633657 177.030673,49.3921034 C176.380917,49.79426 175.675876,50.0225576 174.984061,50.1232581 L173.718153,43.9362004" id="path46" fill="#ED652D"></path>
                        <path d="M106.364875,11.7378947 C106.327585,11.5562464 106.305905,11.4566433 105.360865,11.3419135 L99.5059054,10.6284029 L99.8601601,12.3052389 L105.753276,13.0187495 C106.36119,13.0932205 106.545905,13.0690997 106.595553,13.032542 C106.618317,13.0155649 106.626122,12.9570596 106.608778,12.879985 L106.364875,11.7378947 Z M100.390025,14.8089596 L106.282491,15.5214804 C107.007043,15.6096364 107.087043,15.5466125 107.092897,15.5371879 C107.095499,15.5371879 107.099184,15.5201248 107.091596,15.4785966 L106.968453,14.8922527 C106.952409,14.8184702 106.930946,14.719448 106.053764,14.6148959 L100.199455,13.9024612 L100.390025,14.8089596 Z M109.161623,14.1899311 C110.008886,14.5809417 110.252789,15.0497802 110.318263,15.3512578 L110.477612,16.1107506 C110.565851,16.5237089 110.466122,16.8357084 110.179076,17.0394333 C109.766935,17.3306041 108.987531,17.3949836 107.724225,17.2410925 L95.1117591,15.7118431 L96.9474231,14.6564026 L95.6440084,8.50510646 L105.452789,9.70165683 C106.403683,9.81638658 109.309482,10.1757024 109.626447,11.6646716 L109.934523,13.1246572 C110.046393,13.6416511 109.766935,14.008541 109.161623,14.1899311 Z" id="path48" fill="#ED652D" fill-rule="nonzero"></path>
                        <path d="M139.281081,15.541642 L140.128343,19.5319866 L148.396311,20.5343011 L147.550782,16.5475714 L139.281081,15.541642 Z M151.628614,22.078591 C151.14211,22.4241574 150.206392,22.3914512 148.952625,22.2412611 L140.248885,21.1853687 C138.10081,20.9237195 136.878262,20.5065654 136.570186,19.0401247 L135.7394,15.1337403 C135.612354,14.538058 135.702544,14.1674025 136.034035,13.9315524 C136.520539,13.5874493 137.458642,13.6176164 138.711975,13.7721099 L147.415498,14.8341778 C149.565525,15.095827 150.788289,15.5119698 151.09875,16.9787548 L151.923248,20.8783397 C152.052246,21.4754422 151.960105,21.8453445 151.628614,22.078591 Z" id="path50" fill="#ED652D" fill-rule="nonzero"></path>
                        <polyline id="path52" fill="#ED652D" fill-rule="nonzero" points="113.895499 17.9937645 112.322165 10.5615059 115.868832 10.9940233 117.446718 18.4243668 113.895499 17.9937645"></polyline>
                        <path d="M132.987747,17.1509785 C132.499292,17.4975992 131.556203,17.4642475 130.292246,17.3116905 L123.337233,16.4701525 L123.563357,17.544937 L130.876528,18.4351254 L133.62623,18.2950053 L133.730295,18.7741936 C133.837612,19.2860664 133.739834,19.6409282 133.429157,19.8616517 C133.001189,20.1622901 132.222436,20.2128125 130.733655,20.0337893 L124.024929,19.2185669 C121.878154,18.9581657 120.65539,18.5396775 120.342978,17.0754101 L120.13203,16.069911 C120.004983,15.4740565 120.097124,15.103982 120.429265,14.8707355 C120.915986,14.5267184 121.852788,14.558069 123.104604,14.711293 L130.059617,15.5515614 L129.817666,14.4169591 L121.880105,13.3895125 L119.134306,13.5734846 L119.020485,13.0471522 C118.897341,12.4627448 118.993818,12.0825788 119.324225,11.8537864 C119.813981,11.5108666 120.759672,11.550028 122.022328,11.7150219 L129.339401,12.6594336 C131.509157,12.9430304 132.74146,13.3705988 133.051921,14.8373838 L133.288886,15.9513942 C133.412029,16.5374799 133.318154,16.9196685 132.987747,17.1509785" id="path54" fill="#ED652D" fill-rule="nonzero"></path>
                        <polyline id="path56" fill="#ED652D" fill-rule="nonzero" points="164.638045 19.7323763 158.700484 23.4251379 155.495497 23.0369675 153.896148 15.5939288 157.385579 16.0180545 158.356852 20.5316975 164.284874 16.8526854 167.519129 17.247311 168.831215 23.3539159 171.272841 24.9470499 165.613004 24.2584993 164.638045 19.7323763"></polyline>
                        <path d="M29.7725738,14.1798395 C29.1794031,13.7341966 27.2680752,13.5355928 25.8740373,13.4000989 L28.3416795,24.8794859 C28.4247147,24.8902445 28.5138204,24.9016486 28.5912188,24.9154196 C30.6434681,25.2091295 32.1671537,25.3315624 32.4886713,24.4665707 C32.8277499,23.5071184 32.3501347,21.1053463 31.9156632,19.0831591 C31.3504599,16.4479683 30.6471537,14.8468729 29.7725738,14.1798395 Z M31.7402702,40.6625725 C32.9508935,40.8723653 34.7351753,41.0899042 35.0705682,40.8504177 C35.567262,40.4897893 35.2973433,37.8560832 34.8474788,35.7643955 C34.3050398,33.2404271 33.1338745,29.3382816 32.3462323,28.731066 C31.877506,28.3687162 30.1162052,28.1492407 29.0168014,28.0156188 L31.7402702,40.6625725 Z M35.2687254,27.3776336 C36.1712728,27.9022232 37.1481834,28.6493006 38.0888879,29.7365651 C38.9266115,30.7149525 40.3995654,34.5099423 40.8880207,36.7918421 C41.2919231,38.672446 41.300812,41.6730205 40.3778852,42.7024037 C38.6241725,44.4782188 34.6384815,44.0211933 32.7184816,43.7892379 L32.7046062,43.7879468 C32.6582106,43.7847192 32.643468,43.7804158 32.643468,43.7804158 L23.8161512,42.5472647 L23.8033598,42.4906744 L25.2706769,40.7243269 L19.0015171,11.5846707 L16.6571053,9.26298553 L25.083143,10.2880007 C27.5304058,10.6245514 32.2168014,11.2126597 35.2585357,14.6187475 C36.7219503,16.2966808 37.638373,18.0966382 38.0760966,20.1296055 C38.974308,24.3185323 37.3120858,26.8431462 35.2687254,27.3776336 Z" id="path58" fill="#FFFFFF" fill-rule="nonzero"></path>
                        <path d="M54.8184268,38.6188682 L56.5498089,36.9910914 L52.9350664,20.2442491 C52.2928984,17.7026151 51.4634133,16.2747333 48.6794568,15.937365 C45.497885,15.5515614 45.6314352,16.8692322 46.1133864,19.310015 C46.1114352,19.3005044 49.1392942,33.3172435 49.7294297,36.0606874 L52.0210285,38.2291915 L41.6793486,36.7856021 L43.1960965,35.1421178 L39.6158256,18.545896 C39.2505139,16.6700259 38.7030885,13.8521324 41.8742537,12.785503 C43.567045,12.2118542 46.9517603,12.6121173 46.9855815,12.6185725 C47.5507847,12.6878363 50.4611369,13.0850655 52.2718686,14.1092415 C55.6344702,16.013084 56.2918143,18.8234464 56.7720311,20.8783397 C56.7759335,20.8858923 59.7821123,34.7911722 60.3696462,37.523212 L62.9294293,39.7521795 L54.8184268,38.6188682" id="path60" fill="#FFFFFF" fill-rule="nonzero"></path>
                        <polyline id="path62" fill="#FFFFFF" fill-rule="nonzero" points="96.5725721 20.8871618 90.9647674 32.6332115 99.253114 42.8788448 101.831759 45.179895 100.892355 45.049931 93.2431413 43.982032 94.777667 42.4325779 87.2110547 32.5783426 89.1642254 41.5596249 91.5167457 43.7425455 81.7625996 42.4629172 82.628941 40.6485863 77.8525726 18.5523727 75.5061228 16.4051921 85.8853095 17.6647879 84.3603231 19.3403543 86.0435751 27.1659043 89.3769083 19.8281064 87.4822742 17.8551721 98.0741439 19.1537571 96.5725721 20.8871618"></polyline>
                        <polyline id="path64" fill="#FFFFFF" fill-rule="nonzero" points="119.841298 47.6950413 116.122924 30.7041939 112.311976 46.6437106 104.737125 45.5327771 104.404117 43.6713236 99.150133 19.3340498 105.067314 19.9959621 103.347206 21.6663214 107.067531 38.8204844 111.82352 20.8178979 117.858859 21.5509891 123.215823 46.3000808 125.731813 48.5172138 119.841298 47.6950413"></polyline>
                        <path d="M70.6820579,37.8874983 C71.0181012,38.1429075 71.598047,38.4957897 72.259944,38.5885289 C73.0506215,38.6995577 73.5479656,38.5463552 73.9241174,38.0817987 C74.8730605,36.9482722 74.7293206,34.858521 74.6837922,33.3361786 L74.6647136,32.721432 L78.0977758,33.1395114 L80.0483449,42.1414501 L76.1051471,40.7841447 C75.4902962,41.2568778 74.5211905,41.6560219 72.8695917,41.4240665 C67.3628167,40.6561173 61.4252559,33.3329511 59.9137112,26.2979002 C59.6773969,25.2041806 58.9914348,21.4249198 60.0069362,18.7016375 C60.6655811,16.9700188 62.9699713,14.5600916 66.6189685,15.0043789 C68.4750118,15.2314069 69.7979386,16.0017444 70.7234671,16.7318233 L73.9468816,16.2117094 L75.8035753,24.7742668 L72.9998898,24.4351556 L72.7241174,23.8236365 C71.1705131,20.3741916 69.7439549,18.1766607 67.4378303,17.9010468 C65.4573425,17.6583112 65.0913805,18.9394242 65.8759875,23.3836097 C66.0669902,24.4446231 66.2855268,25.6504474 66.5422206,26.8480952 C67.0629794,29.2651231 68.0264482,33.1330562 68.4832503,34.5226374 C69.0105132,36.136428 69.5642259,36.9861425 70.6820579,37.8874983" id="path66" fill="#FFFFFF" fill-rule="nonzero"></path>
                        <path d="M173.845199,36.0593964 C173.845199,36.0593964 172.341242,30.935719 166.243681,30.1955271 L171.097015,52.9613777 L173.372137,55.133755 L163.112841,53.6989876 L164.524224,52.0473268 L159.511541,28.5085781 L157.2065,26.3691221 L174.84509,28.5124511 L176.567584,36.3883945 L173.845199,36.0593964" id="path68" fill="#FFFFFF" fill-rule="nonzero"></path>
                        <path d="M137.733763,31.6688103 L136.907314,31.5678946 L136.667964,30.9142018 C136.15978,29.5173047 135.691054,28.6977143 133.608886,27.1910795 C132.26688,26.2391582 130.783086,25.9196277 129.314035,25.6990763 L131.136257,34.1777166 C134.284224,34.5590015 134.20791,32.1572509 134.20791,32.1572509 L135.362598,32.2973279 L137.593276,42.4642082 L136.409969,42.2970195 C136.409969,42.2970195 134.743411,37.3820591 131.745471,37.0188486 L133.93669,47.0155279 C135.503086,47.2350034 136.95436,47.3798142 137.90959,46.6878208 C139.243574,45.7737699 139.130403,45.108673 139.014847,44.4089334 L139.005308,44.3413694 L138.888452,43.6429208 L141.701026,44.0369009 L143.196094,50.9921229 L126.124224,48.6073709 L127.552084,46.96195 L122.581244,24.0157852 L120.317612,21.8851514 L136.607043,23.8645192 L137.501352,23.9736115 L137.69127,24.6808821 L139.430891,31.1298042 L139.640539,31.9020568 L138.661026,31.7822059 L137.733763,31.6688103" id="path70" fill="#FFFFFF" fill-rule="nonzero"></path>
                        <path d="M147.837178,27.9590286 L152.726067,50.4688245 L155.001839,52.6386196 L144.744061,51.2064343 L146.155444,49.5547735 L141.106555,26.2707885 L138.800213,24.1324085 L156.441189,26.2757375 L158.16173,34.1506049 L155.439563,33.8216068 C155.439563,33.8216068 153.934739,28.6977143 147.837178,27.9590286" id="path72" fill="#FFFFFF" fill-rule="nonzero"></path>
                        <path d="M63.9442802,16.6736408 C63.2214618,17.3671619 62.9034131,18.3279482 62.6746868,19.0388552 C61.8337112,21.7106468 62.5164212,25.3982658 62.7444971,26.4681013 C63.6826,30.8410433 66.2545241,36.0581053 69.1527354,38.6345757 C65.525852,36.0290571 62.2267735,30.8903177 61.2550662,26.3818173 C61.0252559,25.3113362 60.3683454,21.6222111 61.5516516,18.9727974 C61.9080743,18.1878497 62.8316515,17.39238 63.9442802,16.6736408" id="path74" fill="#ED652D" fill-rule="nonzero"></path>
                        <path d="M68.6781555,38.2341405 C65.2750119,35.5500841 62.2148494,30.670627 61.2888874,26.3745014 C61.0599443,25.3087542 60.4045513,21.6260842 61.5833047,18.9865899 C61.8801069,18.3329187 62.5959876,17.6206561 63.7127355,16.867726 C63.1152288,17.5558463 62.8342532,18.4301549 62.6417329,19.0285269 C61.8018413,21.697091 62.4821665,25.4029995 62.7106759,26.475202 C63.6509469,30.8573964 66.1120851,35.6729473 68.6781555,38.2341405 Z M63.9254185,16.6450659 C62.653657,17.4665929 61.8443345,18.2449133 61.5202153,18.958596 C60.3330066,21.617047 60.991218,25.3177914 61.2212451,26.388918 C62.1951204,30.9071011 65.5223832,36.0688639 69.1325728,38.6623329 L69.1757164,38.6091854 C66.4611365,36.1960306 63.7708385,31.086985 62.7783182,26.4610006 C62.5506759,25.3928865 61.8727356,21.7018248 62.7076407,19.049205 C62.918806,18.392091 63.2383724,17.3985985 63.9683453,16.6984501 L63.9254185,16.6450659 Z" id="path76" fill="#ED652D" fill-rule="nonzero"></path>
                        <polyline id="path78" fill="#ED652D" fill-rule="nonzero" points="128.739292 47.034463 123.910024 24.358124 124.952409 24.5171361 129.774523 47.1510863 128.739292 47.034463"></polyline>
                        <path d="M128.767693,47.0030479 L123.954035,24.3996522 L124.923574,24.5472602 L129.730945,47.1117098 L128.767693,47.0030479 Z M123.866013,24.3168109 L123.87642,24.3652246 L128.710674,47.065663 L129.8181,47.1904628 L129.808127,47.1439856 L124.981243,24.4867969 L123.866013,24.3168109 Z" id="path80" fill="#ED652D" fill-rule="nonzero"></path>
                        <polyline id="path82" fill="#ED652D" fill-rule="nonzero" points="147.312083 49.5926438 142.181243 25.726188 143.224061 25.883694 148.349265 49.7060395 147.312083 49.5926438"></polyline>
                        <path d="M147.340484,49.5612287 L142.225471,25.767501 L143.195227,25.9140332 L148.305471,49.666663 L147.340484,49.5612287 Z M142.136799,25.6846598 L142.147422,25.7332887 L147.283465,49.6238437 L148.393059,49.745416 L148.382869,49.6989388 L143.252896,25.8533547 L142.136799,25.6846598 Z" id="path84" fill="#ED652D" fill-rule="nonzero"></path>
                        <polyline id="path86" fill="#ED652D" fill-rule="nonzero" points="165.61669 52.0744385 160.680972 28.1998061 161.72379 28.3573121 166.650186 52.1897707 165.61669 52.0744385"></polyline>
                        <path d="M165.645524,52.0430233 L160.724766,28.240904 L161.694739,28.3876513 L166.606825,52.1503942 L165.645524,52.0430233 Z M160.636961,28.1584931 L165.587855,52.1056384 L166.693546,52.2291472 L166.684007,52.1828852 L161.752841,28.327188 L160.636961,28.1584931 Z" id="path88" fill="#ED652D" fill-rule="nonzero"></path>
                        <polyline id="path90" fill="#ED652D" fill-rule="nonzero" points="120.722165 45.8650028 115.928669 23.2953891 116.969536 23.451604 121.757395 45.9786137 120.722165 45.8650028"></polyline>
                        <path d="M120.750783,45.8338029 L115.97268,23.336487 L116.940918,23.4819433 L121.713818,45.9392372 L120.750783,45.8338029 Z M115.884658,23.2540761 L115.894631,23.3024898 L120.693547,45.8964179 L121.801189,46.017775 L121.791216,45.971513 L116.998371,23.4214799 L115.884658,23.2540761 Z" id="path92" fill="#ED652D" fill-rule="nonzero"></path>
                        <polyline id="path94" fill="#ED652D" fill-rule="nonzero" points="105.346772 43.7879468 100.553927 21.2170636 101.594794 21.3745695 106.38222 43.9026335 105.346772 43.7879468"></polyline>
                        <path d="M105.37539,43.7567469 L100.597938,21.2583336 L101.566176,21.4049088 L106.338426,43.8634722 L105.37539,43.7567469 Z M100.509916,21.1755354 L100.519889,21.2241212 L105.318155,43.8193619 L106.425797,43.94201 L106.416041,43.8955329 L101.623629,21.3442303 L100.509916,21.1755354 Z" id="path96" fill="#ED652D" fill-rule="nonzero"></path>
                        <polyline id="path98" fill="#ED652D" fill-rule="nonzero" points="83.753277 40.8616067 79.1260685 18.9475792 80.1415698 19.0276878 84.8017323 41.0046961 83.753277 40.8616067"></polyline>
                        <path d="M83.7818949,40.8310522 L79.1692121,18.9852343 L80.1131687,19.0597054 L84.7579383,40.9642437 L83.7818949,40.8310522 Z M79.0829249,18.909752 L79.0922473,18.9544647 L83.7244424,40.8923763 L83.7485074,40.8956038 L84.8457431,41.0453636 L84.8355534,40.9975954 L80.1701877,18.995412 L79.0829249,18.909752 Z" id="path100" fill="#ED652D" fill-rule="nonzero"></path>
                        <path d="M41.7415708,17.9434142 L45.4725192,35.6951101 L44.4297008,35.5373889 L40.698102,17.784402 C40.698102,17.784402 39.9752836,14.0494667 43.4876954,13.3352891 C43.4876954,13.3352891 40.941354,14.1438627 41.7415708,17.9434142" id="path102" fill="#ED652D" fill-rule="nonzero"></path>
                        <path d="M44.4585355,35.5072648 L40.7317063,17.777495 C40.7249854,17.7422068 40.0999448,14.306748 43.1666114,13.4475874 C42.5084,13.8172315 41.0829258,14.9835502 41.7077496,17.9502997 L45.4287252,35.653797 L44.4585355,35.5072648 Z M43.4807577,13.3015071 C39.9755004,14.0143506 40.6569096,17.7532021 40.664064,17.7910293 L44.4006493,35.5677282 L45.51653,35.7362079 L45.5063403,35.6882245 L41.7753919,17.9362705 C40.9905681,14.210437 43.4731696,13.3757199 43.4981019,13.3678231 L43.4807577,13.3015071 Z" id="path104" fill="#ED652D" fill-rule="nonzero"></path>
                        <path d="M53.9100258,19.8028882 L57.5869904,37.3000785 L58.630676,37.4638245 L54.9110013,19.768934 C54.9110013,19.768934 54.0574512,16.0225946 50.1530611,14.8720911 C50.1530611,14.8720911 53.1091586,16.0068655 53.9100258,19.8028882" id="path106" fill="#ED652D" fill-rule="nonzero"></path>
                        <path d="M57.6158251,37.2699544 L53.9438469,19.7960888 C53.5282371,17.8261669 52.5237927,16.5837204 51.7543618,15.8887791 C51.3179391,15.4941535 50.9051478,15.2261998 50.6096464,15.0598502 C54.0555,16.3397152 54.8691585,19.740768 54.877397,19.7765081 L58.5864484,37.4222963 L57.6158251,37.2699544 Z M50.1628172,14.8392989 L50.1404866,14.9041087 C50.1699716,14.9152976 53.0887792,16.0770547 53.8762046,19.8100319 L57.5581557,37.3299875 L58.6746869,37.5055679 L58.6642804,37.456939 L54.9448225,19.7620485 C54.9361504,19.7237049 54.0418415,15.9821638 50.1628172,14.8392989 Z" id="path108" fill="#ED652D" fill-rule="nonzero"></path>
                        <polyline id="path110" fill="#ED652D" fill-rule="nonzero" points="26.3885088 40.9448782 20.2667746 11.9028886 21.3135171 12.0278606 27.4237392 41.0571981 26.3885088 40.9448782"></polyline>
                        <path d="M26.4171267,40.9136783 L20.3103735,11.942717 L21.2848125,12.0588884 L27.3801619,41.0180368 L26.4171267,40.9136783 Z M20.223154,11.863297 L20.2329751,11.9100323 L26.3596741,40.9762934 L27.4673164,41.0961442 L27.4575603,41.0500974 L21.3422217,11.9966821 L20.223154,11.863297 Z" id="path112" fill="#ED652D" fill-rule="nonzero"></path>
                        <path d="M36.5567471,42.3064871 C38.3427633,41.9977152 38.7765844,38.8570636 38.2412999,36.304047 C37.590243,33.2163278 35.4902972,28.4078775 33.1947959,27.5461134 C34.6430344,28.3448321 36.2360967,33.085288 36.8717606,36.1727921 C37.3964218,38.7208597 37.6047687,41.9252022 36.5567471,42.3064871" id="path114" fill="#ED652D" fill-rule="nonzero"></path>
                        <path d="M36.7741996,42.2169755 C37.1317064,41.9107857 37.3257443,41.1721 37.3385357,40.0525597 C37.3508934,38.9784207 37.1930614,37.5619429 36.9055817,36.1659065 C36.3260696,33.3518862 34.88672,28.9443015 33.4983189,27.7221241 C35.6327362,28.8677002 37.5809205,33.3398366 38.2074787,36.3109325 C38.6311101,38.3313983 38.4210288,40.411897 37.6847687,41.4881877 C37.4330614,41.8559168 37.1275871,42.1001371 36.7741996,42.2169755 Z M33.2069368,27.5140527 L33.1781022,27.5758071 C34.631327,28.3775383 36.2211373,33.1838368 36.8381563,36.1798927 C37.3903514,38.8626581 37.534308,41.9142284 36.5448229,42.2744265 L36.5626007,42.3404843 C37.0311102,42.2593644 37.4278581,41.9854504 37.7417877,41.5264884 C38.3627091,40.6191077 38.7685627,38.6498529 38.2749042,36.2971615 C37.6145248,33.1644713 35.4859612,28.3695769 33.2069368,27.5140527 Z" id="path116" fill="#ED652D" fill-rule="nonzero"></path>
                        <path d="M33.5644436,26.3312519 C35.3500262,26.0186068 35.8237389,23.0797867 35.325094,20.7018986 C34.7193487,17.8254999 32.8043352,13.8394373 30.5201076,13.0249679 C31.9581564,13.7740465 33.3721401,17.7202592 33.9627092,20.5947429 C34.4498636,22.97134 34.6124653,25.9605104 33.5644436,26.3312519" id="path118" fill="#ED652D" fill-rule="nonzero"></path>
                        <path d="M33.7914355,26.2393734 C34.145907,25.9439421 34.3457986,25.2536701 34.3737661,24.2161104 C34.4008663,23.2121175 34.2634138,21.8898851 33.9965303,20.5880941 C33.3972891,17.6716734 32.1214084,14.2512766 30.8368556,13.1969335 C31.9917607,13.767828 32.9242268,15.069619 33.5219504,16.1071357 C34.3117607,17.4777818 34.9730073,19.198061 35.2914896,20.7088056 C35.6730614,22.5289462 35.4575601,24.4431169 34.7553379,25.4720698 C34.4912729,25.858734 34.1680208,26.1158646 33.7914355,26.2393734 Z M30.531815,12.9929503 L30.5042811,13.0553933 C31.1501347,13.3916857 31.8497553,14.4191323 32.5274789,16.0260374 C33.0991862,17.3817936 33.6099721,19.0496138 33.9291048,20.6016284 C34.4411916,23.1004432 34.5420046,25.9493214 33.5529531,26.2989761 L33.5705141,26.3650339 C34.0667742,26.2781044 34.4847688,25.9906345 34.8123569,25.5103704 C35.524552,24.4672162 35.7441725,22.5319586 35.3589151,20.6950131 C34.7932783,18.0096441 32.921842,13.8450533 30.531815,12.9929503 Z" id="path120" fill="#ED652D" fill-rule="nonzero"></path>
                        <polyline id="path122" fill="#ED652D" fill-rule="nonzero" points="108.056366 43.3769682 113.464279 23.0765591 112.573656 22.9840351 107.581352 41.1875923 108.056366 43.3769682"></polyline>
                        <path d="M107.616908,41.188453 L112.599238,23.0210447 L113.420485,23.106468 L108.059835,43.2300056 L107.616908,41.188453 Z M112.548073,22.9468104 L112.540485,22.9749979 L107.545797,41.1865165 L107.547531,41.194693 L108.022762,43.3840688 L108.089753,43.3857902 L113.507856,23.0468654 L112.548073,22.9468104 Z" id="path124" fill="#ED652D" fill-rule="nonzero"></path>
                        <polyline id="path126" fill="#ED652D" fill-rule="nonzero" points="87.3456889 30.2409284 92.0160411 20.4938703 91.0720844 20.4017551 86.2105127 30.0909535 96.1114339 42.5661998 97.1505667 42.7069223 87.3456889 30.2409284"></polyline>
                        <path d="M86.2512716,30.08665 L91.0924638,20.4381622 L91.9637917,20.5233058 L87.3053637,30.245447 L87.3183718,30.2620153 L97.0712171,42.661521 L96.1300789,42.5341392 L86.2512716,30.08665 Z M91.0519218,20.3656062 L91.0412985,20.3864564 L86.1699707,30.0950417 L86.1834125,30.1120403 L96.0930057,42.5984756 L97.2301331,42.7523236 L97.1778837,42.6858355 L87.3860141,30.236625 L92.0682904,20.4643702 L91.0519218,20.3656062 Z" id="path128" fill="#ED652D" fill-rule="nonzero"></path>
                        <path d="M134.912951,48.2056446 C134.912951,48.2056446 139.839997,48.717539 140.202707,45.7307355 C140.202707,45.7307355 141.467964,50.4335362 134.912951,48.2056446" id="path130" fill="#ED652D" fill-rule="nonzero"></path>
                        <path d="M135.681731,48.2704114 C137.051921,48.2704114 139.801406,48.0059649 140.207259,45.9222386 C140.285525,46.3669993 140.399129,47.5198912 139.653763,48.2099481 C138.860918,48.9434696 137.356745,48.9596076 135.180701,48.2581466 C135.310566,48.2648169 135.481406,48.2704114 135.681731,48.2704114 Z M140.235877,45.7219134 L140.168235,45.7266472 C139.813763,48.646317 134.9652,48.1770267 134.916636,48.1716474 L134.901677,48.2381356 C137.24314,49.0338419 138.857666,49.0409426 139.701243,48.2596528 C140.664495,47.3673342 140.240213,45.7384816 140.235877,45.7219134 Z" id="path132" fill="#ED652D" fill-rule="nonzero"></path>
                        <path d="M129.925634,24.7409151 C129.925634,24.7409151 134.77268,24.8964845 136.423411,28.0188464 C136.423411,28.0188464 136.237395,23.2865671 129.925634,24.7409151" id="path134" fill="#ED652D" fill-rule="nonzero"></path>
                        <path d="M130.167368,24.7226255 C132.241081,24.28432 133.848669,24.4835693 134.948723,25.31607 C136.054848,26.1535197 136.314143,27.4094791 136.37268,27.855746 C134.883465,25.2812122 131.15165,24.8041757 130.167368,24.7226255 Z M132.140485,24.4278397 C131.468398,24.4278397 130.726934,24.5210092 129.917829,24.7073482 L129.92455,24.7751274 C129.972896,24.7766336 134.770512,24.9662002 136.392842,28.0347692 L136.457883,28.0175554 C136.457232,28.0005568 136.375064,26.3103802 134.991216,25.262277 C134.257558,24.7064876 133.302978,24.4278397 132.140485,24.4278397 Z" id="path136" fill="#ED652D" fill-rule="nonzero"></path>
                        <path d="M150.057882,27.3853798 C150.057882,27.3853798 154.904061,27.5379368 156.553709,30.6620201 C156.553709,30.6620201 156.218316,25.9605104 150.057882,27.3853798" id="path138" fill="#ED652D" fill-rule="nonzero"></path>
                        <path d="M150.299834,27.366875 C152.302218,26.9436316 153.877286,27.1396533 154.983411,27.949561 C156.11295,28.7764673 156.418641,30.0257563 156.495389,30.4862246 C155.002706,27.9215886 151.282815,27.4479949 150.299834,27.366875 Z M152.204007,27.0813417 C151.549048,27.0813417 150.830349,27.1712836 150.049861,27.351813 L150.056798,27.4195922 C150.104928,27.4210984 154.901893,27.6076526 156.52314,30.6779429 L156.58818,30.6594381 C156.58688,30.6424395 156.449644,28.9378463 155.024386,27.894477 C154.284874,27.3528889 153.340484,27.0813417 152.204007,27.0813417 Z" id="path140" fill="#ED652D" fill-rule="nonzero"></path>
                        <path d="M167.108722,29.5274178 C167.108722,29.5274178 172.727367,30.2661035 174.623952,33.9274715 C174.623952,33.9274715 174.419508,28.35473 167.108722,29.5274178" id="path142" fill="#ED652D" fill-rule="nonzero"></path>
                        <path d="M167.331595,29.5280633 C169.72444,29.1805604 171.58612,29.5340881 172.867855,30.5776727 C174.222868,31.6808599 174.51425,33.2533374 174.574521,33.7626497 C173.564657,31.9530526 171.631432,30.8952667 170.167801,30.3224786 C168.915985,29.8329621 167.790782,29.6070315 167.331595,29.5280633 Z M169.01463,29.3305354 C168.419074,29.3305354 167.781893,29.3847587 167.103302,29.4934206 L167.104386,29.561415 C167.160104,29.5687308 172.726717,30.3399075 174.593383,33.9431791 L174.658424,33.9261805 C174.657557,33.9057391 174.564548,31.8704265 172.911649,30.5245252 C171.935389,29.7296796 170.629156,29.3305354 169.01463,29.3305354 Z" id="path144" fill="#ED652D" fill-rule="nonzero"></path>
                        <path d="M186.277285,42.6922906 C188.542218,39.6368472 191.850835,37.6026105 196.00173,35.2537921 C191.772787,38.5463552 190.112949,40.5554168 186.277285,42.6922906" id="path146" fill="#FFFFFF"></path>
                        <polyline id="path148" fill="#A0ABB5" fill-rule="nonzero" points="185.471215 20.9332086 186.656472 20.9332086 186.656472 17.8728162 187.129751 17.8728162 187.129751 20.9332086 188.315442 20.9332086 188.315442 21.3493514 185.471215 21.3493514 185.471215 20.9332086"></polyline>
                        <path d="M191.637502,17.8728162 L191.637502,19.92644 C191.637502,20.0273987 191.646391,20.4686736 191.646391,20.7927658 L191.637502,20.7927658 L190.651703,17.8728162 L190.183627,17.8728162 L189.198478,20.7875586 L189.188288,20.7875586 C189.188288,20.4686736 189.198478,20.0273987 189.198478,19.92644 L189.198478,17.8728162 L188.739291,17.8728162 L188.739291,21.3493514 L189.417014,21.3493514 L190.41799,18.4099072 L190.426879,18.4099072 L191.422868,21.3493514 L192.096039,21.3493514 L192.096039,17.8728162 L191.637502,17.8728162" id="path150" fill="#A0ABB5" fill-rule="nonzero"></path>
                    </g>
                </g>
            </g>
        </g>
    </g>
</svg>