<svg width="200" height="200" xmlns="http://www.w3.org/2000/svg"><g fill="none" fill-rule="evenodd"><path d="M32.206 112.925c-1.144.125-3.258-.02-4.96-1.072-1.61-.989-2.392-2.487-2.392-4.578 0-4.813 3.446-6.71 11.244-10.539 1.21-.593 2.508-1.232 3.87-1.93-5.895 7.062-7.39 14.957-7.762 18.119zm167.53 22.76l.027-.927c.336-11.9-9.038-17.781-9.435-18.026l-.543-.333-.633.043c-5.006.333-6.539-1.083-8.163-2.58-.421-.39-.857-.787-1.345-1.16l5.29-5.438 4.157-4.273-5.867.813L158 107.69c.273-.59.42-1.156.486-1.685 2.755.059 4.892-.499 6.367-1.673a5.337 5.337 0 0 0 1.209-1.341c3.45-.256 5.48-1.973 6.037-5.132a.15.15 0 0 1 .008-.04c.158-.358.207-.698.24-.948.074-.56.25-1.867 3.029-4.558 3.33-3.22 3.533-6.437 3.233-8.376 1.1-.81 1.851-1.704 2.293-2.325 6.197-2.056 9.705-5.043 10.42-8.89 1.18-6.35-6.018-12.06-6.322-12.3l-2.987-2.335c-1.623-2.859-3.865-5.428-6.701-7.628-4.467-3.46-8.814-4.796-8.998-4.85l-3.639-1.097.59 2.007c-11.666-4.193-23.078-3.221-26.203-2.84-20.447-13.398-37.874-8.56-48.939-2.084-11.958 6.995-18.959 17.1-19.251 17.528l-1.638 2.39 2.819.733.131.034c-4.544 3.906-9.199 9.955-10.127 11.521-.122.205-.246.433-.391.699-1.002 1.837-3.123 5.719-9.708 11.456.117-.446.198-.9.23-1.362.337-4.733-4.097-8.14-4.286-8.282l-.436-.33-.544-.071c-6.974-.906-7.863-9.567-7.898-9.935l-.435-4.672c-.002-.005-3.15 3.495-3.15 3.495-2.902 3.224-4.104 6.456-3.578 9.604.055.331.131.65.219.96l-.91-.467v3.206l-.018.081c-.696 3.484.147 6.14 2.505 7.896.942.7 1.373 1.458 1.302 1.816-.055.276-.638.922-2.458 1.392-5.71 1.473-15.905 8.744-15.905 17.99 0 4.988 2.952 8.68 5.704 11.042l-7.18 1.092-4.314.647 3.282 2.91 5.826 5.166-5.33 24.94-8.294 8.083L0 165.335l5.913-.676 74.436-8.838-16.313 10.41 112.467-13.847 1.428-.177.3-1.421 2.413-11.41s11.959 2.825 19.092-3.691z" fill="#A0ABB5" fill-rule="nonzero"/><path d="M189.285 118.478c-7.75.518-8.768-2.892-11.418-4.545a5.967 5.967 0 0 0-1.59-.655l7.22-7.45-34.644 5.166c9.994-2.168 7.287-7.229 7.287-7.229 8.222 1.135 8.535-2.791 8.535-2.791 5.725.207 5.206-3.513 5.518-3.926.313-.412-.418-2.17 3.748-6.198 4.162-4.03 2.289-7.852 2.289-7.852 2.291-1.137 3.33-3.099 3.33-3.099 19.361-5.991 4.166-17.873 4.166-17.873 1.873 5.165-.729 6.716-.729 6.716-.834-16.22-17.28-21.18-17.28-21.18l.728 2.48c-14.262-6.716-29.875-4.236-29.875-4.236C98.16 19.978 70.574 60.27 70.574 60.27l4.372 1.136c-4.893 2.48-12.075 11.674-13.115 13.43-1.041 1.757-3.434 7.542-15.302 16.53-11.867 8.989-12.387 23.039-12.387 23.039-1.562 1.34-11.346 1.034-11.346-7.13 0-8.162 8.327-9.814 19.674-16.116 11.346-6.302 2.185-13.223 2.185-13.223-8.744-1.138-9.68-11.778-9.68-11.778-7.808 8.677 1.248 13.741 1.248 13.741-1.977-.103-4.995-1.653-4.995-1.653 0 .413-1.25 4.028 1.665 6.198 2.914 2.17 3.33 5.476-1.874 6.819-5.205 1.342-14.365 8.058-14.365 16.012 0 7.956 9.16 12.295 9.16 12.295l-12.399 1.859 6.72 5.96-5.712 26.726-8.735 8.513 83.17-9.834-15.96 10.214 103.36-12.65 2.892-13.471c.373.164.55.19.55.19 9.176 2.273 15.296-.724 15.296-.724l-4.284-5.373 7.036 3.72c.305-10.848-8.463-16.222-8.463-16.222" fill="#274D87" fill-rule="nonzero"/><path d="M74.168 119.954l-28.94 4.009s.539-4.811-6.866-5.345c0 0-.941-16.164 12.52-25.515 0 0 6.326-.402 11.71-10.822 5.384-10.421 18.44-21.642 21.671-22.578 0 0-2.962-1.737-5.25-2.537 0 0 25.71-25.516 51.69-11.49 0 0-4.98 3.206-7.54 6.279 0 0 28.942-8.416 47.516 5.076v-2.405s7.543 3.075 8.918 13.463c1.374 10.389-5.181 14.795-13.11 14.374 0 0 .635 2.73-.318 4.093-.95 1.364-2.324 4.197-1.797 6.19 0 0 1.375-2.517 2.962-3.462 1.585-.944 3.172-2.937 3.172-4.826l2.218-.524s.424 3.882-3.067 6.925c-3.488 3.04-2.748 4.405-2.748 4.405s-1.269-.47-2.446-.445c-1.183.025-2.77 0-3.026-.154-.256-.15-1.436-.482-2.026-1.271-.59-.789-4.689-3.28-6.687-1.221-2 2.06-.974 5.546 3.178 6.92 0 0-4.818 1.194-7.252-3.232 0 0-3.684.557-6.672 5.482 0 0 9.217-.25 9.217 2.612 0 2.866-11.342 6.083-19.748 3.618 0 0 4.556-.25 7.392-1.907 0 0-4.607.802-7.796-.807-3.192-1.606-8.255-.601-8.255-.601s1.823-2.513 6.837-2.213c5.011.302 8.657-1.255 9.112-1.706 0 0 1.876-5.278 8.557-6.936 0 0-7.542-.503-11.797 4.271 0 0-3.43-7.966-11.718-11.088 0 0 4.63 4.484 5.604 12.144 0 0-6.805 1.193-12.524 7.152 0 0 7.076.247 11.365 2.403l-2.274 1.795s10.522-.68 16.812 1.533c0 0-13.028.294-23.322 3.072l3.766-3.016s-15.152-5.787-37.107 3.122c0 0 3.659-4.54 10.69-9.932 0 0-6.23-3.234-13.32 1.25-7.09 4.48-11.78 1.076-12.751.34-.972-.74-5.49-2.897-10.292-1.418 0 0 13.419 2.78 13.742 14.923" fill="#ED652D" fill-rule="nonzero"/><path d="M181.367 72.623s-.428 2.555-.795 3.467c0 0 8.597-2.275 5.433-9.022 0 0 .524 5.046-4.638 5.555" fill="#FFF" fill-rule="nonzero"/><path d="M74.232 100.46c5.082.473 10.439-1.77 15.246-4.988 1.876-.57 4.924-1.155 7.14-.697a13.882 13.882 0 0 1-.4-1.157c-2.503-.326-6.114.291-6.698.266-4.747 3.011-15.103 8.523-21.871-1.197 7.75 4.55 13.983 1.298 20.175-4.084 2.272 1.176 5.513 2.331 7.969 1.913.094-1.484.717-2.743 2.06-3.572 2.474.233 4.27 1.43 5.496 2.397.822-1.877-1.924-2.802-3.71-4.098 2.232-.143 7.632.448 9.751 1.337l-1.853-1.366c-.692-.166-1.219-.816-1.854-.892-4.547-.541-2.051.858-6.731-1.56-1.511-.47-5.329-2.078-6.728-.675-2.746 2.755-5.085 4.02-5.22 4.02-1.346.259-4.492.314-7.004-.277-2.059.942-5.39 1.9-5.904 1.812 0 0 4.256-3.988 7.416-4.341l5.244.207c1.135-.751 2.316-1.758 3.546-3.131 1.673-1.873 7.005-.411 9.337.232 2.886.795 1.238 1.547 7.279 1.922 2.128.13 8.413 2.816 8.413 2.816 1.465.49 6.15 5.329 5.98 6.001-.117.23-.055 5.647-1.694 9.714l-7.017-4.464 5.296 6.65c-9.737.8-20.125-2.932-20.125-2.932-.908-1.658-.97-2.562-1.428-3.892-2.836.078-5.708 1.466-10.376 4.28-3.023 1.926-6.948 2.533-8.699 2.686-5.1.45-11.952-4.064-12.44-5.789a10.49 10.49 0 0 1-.758-1.496c-.335-.826-.62-.815-.824-1.03l-.394-1.841-.274-1.913.212-.177c-.723-3.402.053-4.97 3.34-6.27a19.85 19.85 0 0 0 1.991-.923l2.137-1.45c2.459-1.298 3.596-2.218 3.596-2.218 2.07-1.495 4.08-3.062 5.849-4.355 3.522-2.55 10.694-13.43 22.991-7.352 0 0-10.588-.416-14.859 3.652-6.908 6.584-12.047 12.197-21.25 15.447-1.9 1.984-.591 11.34 7.647 12.786" fill="#274D87" fill-rule="nonzero"/><path d="M100.39 98.659c4.086 1.185 8.34 1.828 12.553 2.105-3.602-.953-7.681-1.788-10.932-3.736-.67-1.874-1.007-3.853-1.195-5.81l-1.623-1.166c.36 2.87.557 5.767 1.197 8.607m11.355-8.282l-.255 1.854 7.174 6.047z" fill="#FFF"/><path d="M158.731 58.566s-8.117-6.173-17.845-2.427c-8.714 3.358-11.047 11.033-7.375 14.744-1.21-.005-2.46.087-3.473.376-3.007.862-4.46-.607-4.46-.607.69 10.225 12.558 7.959 12.558 7.959s-2.76-.968-3.939-2.43c-1.18-1.464-4.788-1.27-4.788-1.27s3.273-2.816 9.652-1.128c6.382 1.69 8.65-3.897 8.65-3.897s-6.429-3.395-4.2-7.675c2.228-4.279 10.107-4.523 15.22-3.645" fill="#274D87" fill-rule="nonzero"/><path d="M174.907 81.005l-.262-.208-.181-.234c.099-.031.145-.046.194-.058l.306.483-.057.017" fill="#E02F29" fill-rule="nonzero"/><path d="M139.398 68.279c-2.926-1.917-2.535-6.984 3.029-10.671 0 0-7.418 1.935-7.47 8.364-.055 6.43 5.389 5.824 6.021 5.52.633-.301 1.35-1.296-1.58-3.213" fill="#FFF" fill-rule="nonzero"/><path d="M142.556 77.142s5.135.294 7.729-3.436c0 0 .396 8.28 7.843 7.738l-3.145 1.352s.368 3.775-.972 7.134c0 0-.441-4.15-1.947-6.927 0 0-3.107.518-4.307-2.012-1.197-2.531-3.053-3.113-5.201-3.849" fill="#274D87" fill-rule="nonzero"/><path d="M149.63 79.759c.037-.234.205-.378.445-.429-.539-.857-.756-1.566-.756-1.566-1.722 2.949.301 3.52 1.647 3.598a1.971 1.971 0 0 1-.214-.091c-.698-.35-1.202-1.024-1.122-1.512m4.713 16.391s-.096-3.416 3.028-2.18c3.125 1.238 3.57 2.385 3.57 2.385s3.668-.582 5.107 1.11c0 0-3.36-.427-5.755-.106 0 0-.318-.82-2.35-1.914-2.031-1.095-3.105-.423-3.6.705m-6.677 1.923s-.39.249-.934.643l2.234.995-3.028-.39c-.33.263-.67.551-.991.854 0 0 4.465-.16 7.238 1.15 0 0-2.378-2.032-4.52-3.252" fill="#FFF" fill-rule="nonzero"/><path d="M173.556 60.824s3.24 3.919 2.528 11.51c-.713 7.592-10.807 7.26-10.807 7.26s3.978-5.152 4.271-7.07c0 0 1.064 2.244.35 3.959 0 0 5.277-1.75 3.658-15.66m-54.389 22.624s14.875.145 24.586 6.726c0 0-2.863.734-5.238 1.4 0 0-7.562-5.43-19.084-7.51l-.264-.616" fill="#274D87" fill-rule="nonzero"/><path d="M173.718 122.295c2.184.897 4.357 2.54 6.137 5.562 0 0 1.998-1.437 3.638-1.987-1.048-2.263-2.345-2.973-3.34-4.699 2.416.458 3.566.952 5.534.162-5.533-.162-6.994-3.465-8.656-4.494a5.336 5.336 0 0 0-2.047-.73l-1.266 6.186" fill="#ED652D"/><path d="M106.365 154.494c-.037.181-.06.28-1.004.396l-5.855.713.354-1.677 5.893-.713c.608-.075.793-.05.843-.014.022.017.03.075.013.152l-.244 1.143zm-5.975-3.072l5.892-.712c.725-.088.805-.025.81-.016.003 0 .007.017 0 .059l-.124.586c-.016.074-.037.173-.914.278l-5.855.712.191-.907zm8.772.62c.847-.391 1.09-.86 1.156-1.162l.16-.76c.088-.412-.012-.724-.299-.928-.412-.291-1.191-.356-2.455-.202l-12.612 1.53 1.835 1.055-1.303 6.151 9.809-1.196c.95-.115 3.856-.474 4.173-1.963l.309-1.46c.111-.517-.168-.884-.773-1.065zm30.119-1.352l.847-3.99 8.268-1.003-.845 3.987-8.27 1.006zm12.348-6.537c-.487-.346-1.423-.313-2.676-.163l-8.704 1.056c-2.148.262-3.37.679-3.679 2.145l-.83 3.907c-.128.595-.037.966.294 1.202.487.344 1.425.314 2.678.16l8.703-1.063c2.15-.261 3.373-.678 3.684-2.144l.824-3.9c.13-.597.037-.967-.294-1.2zm-37.734 4.085l-1.573 7.432 3.547-.433 1.578-7.43-3.552.43m19.093.843c-.489-.346-1.432-.313-2.696-.16l-6.955.841.226-1.074 7.314-.89 2.75.14.103-.48c.108-.512.01-.866-.3-1.087-.429-.3-1.208-.351-2.696-.172l-6.71.815c-2.146.26-3.369.679-3.681 2.143l-.211 1.006c-.127.595-.035.965.297 1.199.487.344 1.424.312 2.676.16l6.955-.841-.242 1.134-7.938 1.028-2.746-.184-.114.526c-.123.585-.026.965.304 1.194.49.343 1.436.303 2.698.138l7.317-.944c2.17-.284 3.402-.711 3.713-2.178l.237-1.114c.123-.586.03-.968-.301-1.2m31.65-2.58l-5.938-3.694-3.205.388-1.599 7.444 3.49-.425.97-4.513 5.929 3.679 3.234-.395 1.312-6.106 2.442-1.594-5.66.689-.975 4.526" fill="#ED652D" fill-rule="nonzero"/><path d="M29.773 152.052c-.594.445-2.505.644-3.899.78l2.468-11.48c.083-.01.172-.022.25-.036 2.051-.294 3.575-.416 3.897.449.339.96-.139 3.361-.573 5.383-.566 2.635-1.269 4.237-2.143 4.904zm1.967-26.483c1.21-.21 2.995-.427 3.33-.188.497.36.227 2.994-.223 5.086-.542 2.524-1.713 6.426-2.5 7.033-.47.363-2.23.582-3.33.716l2.723-12.647zm3.529 13.285a11.075 11.075 0 0 0 2.82-2.36c.838-.977 2.31-4.772 2.799-7.054.404-1.881.413-4.882-.51-5.91-1.754-1.777-5.74-1.32-7.66-1.088l-.013.002c-.047.003-.062.007-.062.007l-8.827 1.233-.013.057 1.468 1.766-6.27 29.14-2.344 2.321 8.426-1.025c2.447-.336 7.134-.924 10.176-4.33 1.463-1.678 2.38-3.478 2.817-5.511.898-4.19-.764-6.714-2.807-7.248zm19.549-11.241l1.732 1.627-3.615 16.747c-.642 2.542-1.472 3.97-4.256 4.307-3.181.386-3.048-.932-2.566-3.373-.002.01 3.026-14.007 3.616-16.75l2.292-2.169-10.342 1.444 1.517 1.643-3.58 16.597c-.365 1.875-.913 4.693 2.258 5.76 1.693.574 5.078.173 5.112.167.565-.07 3.475-.467 5.286-1.49 3.362-1.905 4.02-4.715 4.5-6.77.004-.007 3.01-13.913 3.598-16.645l2.56-2.229-8.112 1.134m41.755 17.731l-5.608-11.746 8.288-10.245 2.579-2.301-.94.13-7.649 1.067 1.535 1.55-7.567 9.854 1.953-8.981 2.353-2.183-9.754 1.28.866 1.814-4.776 22.096-2.347 2.147 10.38-1.26-1.526-1.675 1.684-7.825 3.333 7.337-1.895 1.973 10.592-1.298-1.501-1.734m23.268-26.808l-3.718 16.991-3.811-15.94-7.575 1.112-.333 1.861-5.254 24.337 5.917-.662-1.72-1.67 3.72-17.154 4.757 18.003 6.035-.734 5.357-24.749 2.516-2.217-5.89.822m-49.16 9.808c.336-.255.916-.608 1.578-.701.79-.111 1.288.042 1.664.507.95 1.133.805 3.223.76 4.745l-.02.615 3.434-.418 1.95-9.002-3.943 1.357c-.615-.472-1.584-.872-3.235-.64-5.507.768-11.445 8.092-12.956 15.127-.237 1.093-.923 4.873.093 7.596.659 1.731 2.963 4.141 6.612 3.697 1.856-.227 3.179-.997 4.104-1.727l3.224.52 1.857-8.563-2.804.34-.276.61c-1.553 3.45-2.98 5.648-5.286 5.923-1.98.243-2.347-1.038-1.562-5.482.191-1.061.41-2.267.666-3.465.521-2.417 1.484-6.285 1.941-7.674.528-1.614 1.081-2.464 2.2-3.365m103.162 1.828s-1.504 5.124-7.601 5.864l4.853-22.766 2.275-2.172-10.26 1.434 1.412 1.652-5.012 23.539-2.305 2.14 17.638-2.144 1.723-7.876-2.723.33m-36.111 4.39l-.827.1-.239.654c-.508 1.397-.977 2.217-3.06 3.723-1.341.952-2.825 1.272-4.294 1.492l1.822-8.478c3.148-.382 3.072 2.02 3.072 2.02l1.155-.14 2.23-10.167-1.183.167s-1.667 4.915-4.665 5.279l2.192-9.997c1.566-.22 3.017-.364 3.973.328 1.334.914 1.22 1.579 1.105 2.279l-.01.067-.117.699 2.813-.394 1.495-6.956-17.072 2.385 1.428 1.646-4.97 22.946-2.264 2.13 16.289-1.98.894-.108.19-.707 1.74-6.45.21-.772-.98.12-.927.114m10.103 3.709l4.89-22.51 2.275-2.17-10.258 1.433 1.411 1.652-5.048 23.284-2.307 2.138 17.641-2.143 1.72-7.875-2.721.329s-1.505 5.124-7.603 5.862" fill="#FFF" fill-rule="nonzero"/><path d="M63.944 149.558c-.723-.694-1.04-1.654-1.27-2.365-.84-2.672-.158-6.36.07-7.43.939-4.373 3.51-9.59 6.409-12.166-3.627 2.605-6.926 7.744-7.898 12.253-.23 1.07-.887 4.76.297 7.409.356.785 1.28 1.58 2.392 2.299" fill="#ED652D" fill-rule="nonzero"/><path d="M68.678 127.997c-3.403 2.684-6.463 7.564-7.39 11.86-.228 1.066-.883 4.748.295 7.388.297.654 1.013 1.366 2.13 2.119-.598-.688-.879-1.563-1.071-2.161-.84-2.669-.16-6.375.069-7.447.94-4.382 3.401-9.197 5.967-11.759zm-4.753 21.59c-1.271-.822-2.08-1.6-2.405-2.314-1.187-2.659-.529-6.36-.299-7.43.974-4.519 4.301-9.68 7.912-12.274l.043.053c-2.715 2.413-5.405 7.522-6.398 12.148-.227 1.069-.905 4.76-.07 7.412.21.657.53 1.65 1.26 2.351l-.043.053zm64.815-30.39l-4.83 22.676 1.042-.159 4.823-22.634-1.036.117" fill="#ED652D" fill-rule="nonzero"/><path d="M128.768 119.228l-4.814 22.604.97-.148 4.807-22.564-.963.108zm-4.902 22.687l.01-.049 4.835-22.7 1.107-.125-.01.046-4.827 22.658-1.115.17zm23.446-25.276l-5.13 23.866 1.042-.157 5.125-23.823-1.037.114" fill="#ED652D" fill-rule="nonzero"/><path d="M147.34 116.67l-5.115 23.794.97-.147 5.11-23.752-.965.105zm-5.203 23.877l.01-.049 5.136-23.89 1.11-.122-.01.047-5.13 23.845-1.116.169zm23.48-26.39l-4.936 23.875 1.043-.158 4.926-23.832-1.033.115" fill="#ED652D" fill-rule="nonzero"/><path d="M165.646 114.188l-4.921 23.803.97-.147 4.912-23.763-.961.107zm-5.009 23.885l4.95-23.947 1.107-.124-.01.047-4.931 23.855-1.116.169zm-39.915-17.707l-4.793 22.57 1.04-.156 4.788-22.527-1.035.113" fill="#ED652D" fill-rule="nonzero"/><path d="M120.75 120.398l-4.777 22.497.968-.145 4.773-22.458-.963.106zm-4.865 22.58l.01-.049 4.799-22.594 1.107-.121-.01.046-4.793 22.55-1.113.167zm-10.538-20.534l-4.793 22.57 1.04-.157 4.788-22.528-1.035.115" fill="#ED652D" fill-rule="nonzero"/><path d="M105.375 122.475l-4.777 22.498.968-.146 4.772-22.459-.963.107zm-4.865 22.58l.01-.048 4.798-22.595 1.108-.123-.01.047-4.792 22.551-1.114.169zM83.753 125.37l-4.627 21.914 1.016-.08 4.66-21.977-1.049.143" fill="#ED652D" fill-rule="nonzero"/><path d="M83.782 125.4l-4.613 21.846.944-.074 4.645-21.905-.976.133zm-4.7 21.922l.01-.045 4.632-21.938.025-.003 1.097-.15-.01.048-4.666 22.002-1.087.086zm-37.34.966l3.73-17.752-1.042.158-3.732 17.753s-.723 3.735 2.79 4.45c0 0-2.547-.81-1.746-4.609" fill="#ED652D" fill-rule="nonzero"/><path d="M44.459 130.724l-3.727 17.73c-.007.035-.632 3.47 2.435 4.33-.659-.37-2.084-1.536-1.46-4.503l3.722-17.703-.97.146zm-.978 22.206c-3.505-.713-2.824-4.452-2.817-4.49l3.737-17.776 1.116-.169-.01.048-3.732 17.752c-.784 3.726 1.698 4.56 1.723 4.569l-.017.066zm10.429-6.501l3.677-17.498 1.044-.163-3.72 17.695s-.854 3.746-4.758 4.896c0 0 2.956-1.134 3.757-4.93" fill="#ED652D" fill-rule="nonzero"/><path d="M57.616 128.962l-3.672 17.473c-.416 1.97-1.42 3.213-2.19 3.908a6.42 6.42 0 0 1-1.144.829c3.446-1.28 4.26-4.681 4.267-4.717l3.71-17.646-.971.153zm-7.453 22.43l-.023-.065c.03-.01 2.949-1.173 3.736-4.906l3.682-17.52 1.117-.175-.01.049-3.72 17.694c-.009.039-.903 3.78-4.782 4.923zm-23.774-26.105l-6.122 29.042 1.047-.125 6.11-29.03-1.035.113" fill="#ED652D" fill-rule="nonzero"/><path d="M26.417 125.318l-6.107 28.97.975-.115 6.095-28.96-.963.105zm-6.194 29.05l.01-.047 6.127-29.066 1.107-.12-.01.046-6.115 29.054-1.119.133zm16.334-30.443c1.786.309 2.22 3.45 1.684 6.002-.65 3.088-2.75 7.897-5.046 8.758 1.448-.798 3.041-5.539 3.677-8.626.524-2.548.733-5.753-.315-6.134" fill="#ED652D" fill-rule="nonzero"/><path d="M36.774 124.014c.358.307.552 1.045.565 2.165.012 1.074-.146 2.49-.433 3.887-.58 2.814-2.02 7.221-3.408 8.443 2.135-1.145 4.083-5.617 4.71-8.588.423-2.02.213-4.101-.523-5.178-.252-.367-.557-.612-.91-.729zm-3.567 14.703l-.029-.061c1.453-.802 3.043-5.608 3.66-8.604.552-2.683.696-5.735-.293-6.095l.018-.066c.468.081.865.355 1.179.814.62.907 1.027 2.877.533 5.23-.66 3.132-2.789 7.927-5.068 8.782zm.357 1.183c1.786.313 2.26 3.252 1.761 5.63-.606 2.876-2.52 6.862-4.805 7.676 1.438-.749 2.852-4.695 3.443-7.57.487-2.376.65-5.365-.399-5.736" fill="#ED652D" fill-rule="nonzero"/><path d="M33.791 139.992c.355.296.555.986.583 2.023.027 1.004-.11 2.327-.377 3.628-.6 2.917-1.876 6.337-3.16 7.392 1.155-.571 2.087-1.873 2.685-2.91.79-1.371 1.451-3.092 1.77-4.602.381-1.82.166-3.735-.537-4.764-.264-.386-.587-.643-.964-.767zm-3.26 13.247l-.027-.063c.646-.336 1.346-1.364 2.023-2.97a25.58 25.58 0 0 0 1.402-4.576c.512-2.499.613-5.348-.376-5.698l.018-.066c.496.087.914.375 1.241.855.713 1.043.932 2.979.547 4.815-.566 2.686-2.437 6.85-4.827 7.703zm77.525-30.385l5.408 20.3-.89.093-4.993-18.203.475-2.19" fill="#ED652D" fill-rule="nonzero"/><path d="M107.617 125.043l4.982 18.167.821-.085-5.36-20.124-.443 2.042zm4.931 18.242l-.008-.029-4.994-18.211.002-.008.475-2.19.067-.001 5.418 20.339-.96.1zm-25.202-7.295l4.67 9.748-.944.092-4.861-9.69 9.9-12.475 1.04-.14-9.805 12.466" fill="#ED652D" fill-rule="nonzero"/><path d="M86.251 136.145l4.841 9.648.872-.085-4.659-9.722.013-.017 9.753-12.4-.94.128-9.88 12.448zm4.8 9.72l-.01-.02-4.871-9.709.013-.017 9.91-12.486 1.137-.154-.052.067-9.792 12.449 4.682 9.772-1.016.099zm43.862-27.839s4.927-.512 5.29 2.475c0 0 1.265-4.703-5.29-2.475" fill="#ED652D" fill-rule="nonzero"/><path d="M135.682 117.961c1.37 0 4.12.264 4.525 2.348.079-.445.192-1.597-.553-2.287-.793-.734-2.297-.75-4.473-.049.13-.006.3-.012.5-.012zm4.554 2.549l-.068-.005c-.354-2.92-5.203-2.45-5.251-2.445l-.015-.067c2.341-.795 3.956-.802 4.8-.021.962.892.538 2.521.534 2.538zm-10.31 20.98s4.847-.155 6.497-3.277c0 0-.186 4.732-6.497 3.278" fill="#ED652D" fill-rule="nonzero"/><path d="M130.167 141.509c2.074.438 3.682.239 4.782-.594 1.106-.837 1.365-2.093 1.424-2.54-1.49 2.575-5.221 3.052-6.206 3.134zm1.973.295c-.672 0-1.413-.094-2.222-.28l.007-.068c.048-.001 4.846-.19 6.468-3.26l.065.018c0 .017-.083 1.707-1.467 2.755-.733.556-1.688.835-2.85.835zm17.918-2.958s4.846-.152 6.496-3.277c0 0-.336 4.702-6.496 3.277" fill="#ED652D" fill-rule="nonzero"/><path d="M150.3 138.865c2.002.423 3.577.227 4.683-.583 1.13-.827 1.436-2.076 1.512-2.537-1.492 2.565-5.212 3.038-6.195 3.12zm1.904.285a9.64 9.64 0 0 1-2.154-.27l.007-.068c.048-.002 4.845-.188 6.466-3.258l.065.018c-.001.017-.138 1.722-1.564 2.765-.74.542-1.684.813-2.82.813zm14.905-2.446s5.618-.739 7.515-4.4c0 0-.204 5.573-7.515 4.4" fill="#ED652D" fill-rule="nonzero"/><path d="M167.332 136.703c2.392.348 4.254-.006 5.536-1.05 1.355-1.102 1.646-2.675 1.707-3.184-1.01 1.81-2.944 2.867-4.407 3.44-1.252.49-2.377.715-2.836.794zm1.683.198a12.09 12.09 0 0 1-1.912-.163l.001-.068c.056-.007 5.623-.778 7.49-4.382l.064.017c0 .02-.093 2.056-1.746 3.402-.977.795-2.283 1.194-3.897 1.194z" fill="#ED652D" fill-rule="nonzero"/><path d="M186.277 123.54c2.265 3.055 5.574 5.089 9.725 7.438-4.23-3.293-5.89-5.302-9.725-7.439" fill="#FFF"/><path fill="#A0ABB5" fill-rule="nonzero" d="M185.471 145.298h1.185v3.06h.474v-3.06h1.185v-.416h-2.844v.416m6.167 3.061v-2.054c0-.1.008-.542.008-.866h-.008l-.986 2.92h-.468l-.986-2.915h-.01c0 .319.01.76.01.861v2.054h-.459v-3.477h.678l1.001 2.94h.009l.996-2.94h.673v3.477h-.458"/></g></svg>