<svg width="200" height="200" xmlns="http://www.w3.org/2000/svg"><g fill="none" fill-rule="evenodd"><path d="M32.206 112.69c-1.144.126-3.258-.02-4.96-1.08-1.61-.995-2.392-2.505-2.392-4.612 0-4.85 3.446-6.76 11.244-10.619 1.21-.598 2.508-1.241 3.87-1.944-5.895 7.115-7.39 15.07-7.762 18.256Zm167.53 22.933.027-.934c.336-11.99-9.038-17.916-9.435-18.162l-.543-.336-.633.044c-5.006.335-6.539-1.092-8.163-2.6a18.26 18.26 0 0 0-1.345-1.168l5.29-5.48 4.157-4.305-5.867.819L158 107.416c.273-.595.42-1.166.486-1.698 2.755.059 4.892-.503 6.367-1.686.547-.44.934-.908 1.209-1.352 3.45-.257 5.48-1.988 6.037-5.17 0-.011.003-.027.008-.041.158-.36.207-.703.24-.955.074-.563.25-1.881 3.029-4.592 3.33-3.245 3.533-6.486 3.233-8.44a10.47 10.47 0 0 0 2.293-2.343c6.197-2.071 9.705-5.08 10.42-8.957 1.18-6.398-6.018-12.152-6.322-12.392l-2.987-2.354c-1.623-2.88-3.865-5.469-6.701-7.685-4.467-3.487-8.814-4.833-8.998-4.888l-3.639-1.105.59 2.022c-11.666-4.224-23.078-3.245-26.203-2.861-20.447-13.499-37.874-8.624-48.939-2.1-11.958 7.049-18.959 17.23-19.251 17.661l-1.638 2.408 2.819.74.131.033c-4.544 3.936-9.199 10.03-10.127 11.609-.122.206-.246.436-.391.704-1.002 1.85-3.123 5.762-9.708 11.542.117-.45.198-.907.23-1.372.337-4.769-4.097-8.201-4.286-8.345l-.436-.332-.544-.072c-6.974-.912-7.863-9.639-7.898-10.01l-.435-4.707c-.002-.005-3.15 3.522-3.15 3.522-2.902 3.247-4.104 6.504-3.578 9.676.055.334.131.655.219.966l-.91-.47v3.23l-.018.083c-.696 3.51.147 6.186 2.505 7.956.942.705 1.373 1.469 1.302 1.83-.055.277-.638.928-2.458 1.401-5.71 1.485-15.905 8.81-15.905 18.126 0 5.027 2.952 8.747 5.704 11.126l-7.18 1.1-4.314.653 3.282 2.932 5.826 5.205-5.33 25.13-8.294 8.143-4.29 4.21 5.913-.68 74.436-8.905-16.313 10.49 112.467-13.954 1.428-.177.3-1.433 2.413-11.496s11.959 2.847 19.092-3.719Z" fill="#A0ABB5" fill-rule="nonzero"/><path d="M189.285 118.286c-7.75.522-8.768-2.914-11.418-4.58-.483-.3-1.04-.513-1.59-.66l7.22-7.506-34.644 5.206c9.994-2.185 7.287-7.285 7.287-7.285 8.222 1.144 8.535-2.812 8.535-2.812 5.725.208 5.206-3.54 5.518-3.955.313-.416-.418-2.187 3.748-6.246 4.162-4.06 2.289-7.91 2.289-7.91 2.291-1.147 3.33-3.123 3.33-3.123 19.361-6.037 4.166-18.009 4.166-18.009 1.873 5.205-.729 6.767-.729 6.767-.834-16.343-17.28-21.34-17.28-21.34l.728 2.498c-14.262-6.766-29.875-4.268-29.875-4.268C98.16 19.04 70.574 59.637 70.574 59.637l4.372 1.144C70.053 63.28 62.87 72.544 61.83 74.313c-1.041 1.77-3.434 7.6-15.302 16.655-11.867 9.057-12.387 23.214-12.387 23.214-1.562 1.35-11.346 1.041-11.346-7.184 0-8.224 8.327-9.888 19.674-16.238 11.346-6.35 2.185-13.323 2.185-13.323-8.744-1.146-9.68-11.867-9.68-11.867-7.808 8.743 1.248 13.845 1.248 13.845-1.977-.104-4.995-1.666-4.995-1.666 0 .416-1.25 4.058 1.665 6.245 2.914 2.187 3.33 5.518-1.874 6.87-5.205 1.353-14.365 8.12-14.365 16.134 0 8.016 9.16 12.388 9.16 12.388l-12.399 1.873 6.72 6.005-5.712 26.93-8.735 8.576 83.17-9.909-15.96 10.292 103.36-12.746 2.892-13.573c.373.165.55.19.55.19 9.176 2.292 15.296-.728 15.296-.728l-4.284-5.413 7.036 3.747c.305-10.929-8.463-16.344-8.463-16.344" fill="#274D87" fill-rule="nonzero"/><path d="m74.168 119.773-28.94 4.039s.539-4.847-6.866-5.385c0 0-.941-16.287 12.52-25.709 0 0 6.326-.404 11.71-10.903 5.384-10.5 18.44-21.806 21.671-22.75 0 0-2.962-1.75-5.25-2.556 0 0 25.71-25.71 51.69-11.577 0 0-4.98 3.231-7.54 6.327 0 0 28.942-8.48 47.516 5.114V53.95s7.543 3.099 8.918 13.565c1.374 10.468-5.181 14.907-13.11 14.483 0 0 .635 2.75-.318 4.124-.95 1.374-2.324 4.229-1.797 6.237 0 0 1.375-2.536 2.962-3.488 1.585-.951 3.172-2.96 3.172-4.863l2.218-.528s.424 3.911-3.067 6.977c-3.488 3.064-2.748 4.44-2.748 4.44s-1.269-.475-2.446-.45c-1.183.026-2.77 0-3.026-.154-.256-.153-1.436-.486-2.026-1.281-.59-.795-4.689-3.306-6.687-1.23-2 2.076-.974 5.587 3.178 6.972 0 0-4.818 1.203-7.252-3.256 0 0-3.684.56-6.672 5.523 0 0 9.217-.253 9.217 2.632 0 2.888-11.342 6.128-19.748 3.645 0 0 4.556-.251 7.392-1.922 0 0-4.607.81-7.796-.813-3.192-1.617-8.255-.605-8.255-.605s1.823-2.532 6.837-2.23c5.011.305 8.657-1.264 9.112-1.719 0 0 1.876-5.318 8.557-6.988 0 0-7.542-.507-11.797 4.304 0 0-3.43-8.027-11.718-11.172 0 0 4.63 4.518 5.604 12.235 0 0-6.805 1.202-12.524 7.206 0 0 7.076.25 11.365 2.422l-2.274 1.809s10.522-.686 16.812 1.544c0 0-13.028.296-23.322 3.095l3.766-3.039s-15.152-5.83-37.107 3.146c0 0 3.659-4.575 10.69-10.008 0 0-6.23-3.258-13.32 1.26-7.09 4.514-11.78 1.084-12.751.343-.972-.745-5.49-2.92-10.292-1.43 0 0 13.419 2.802 13.742 15.037" fill="#ED652D" fill-rule="nonzero"/><path d="M181.367 72.083s-.428 2.575-.795 3.494c0 0 8.597-2.293 5.433-9.09 0 0 .524 5.084-4.638 5.596" fill="#FFF" fill-rule="nonzero"/><path d="M74.232 100.132c5.082.476 10.439-1.784 15.246-5.026 1.876-.575 4.924-1.164 7.14-.703-.153-.392-.287-.78-.4-1.166-2.503-.328-6.114.294-6.698.268-4.747 3.035-15.103 8.588-21.871-1.206 7.75 4.585 13.983 1.308 20.175-4.115 2.272 1.186 5.513 2.35 7.969 1.928.094-1.495.717-2.764 2.06-3.599 2.474.235 4.27 1.44 5.496 2.415.822-1.89-1.924-2.823-3.71-4.129 2.232-.144 7.632.451 9.751 1.347l-1.853-1.377c-.692-.166-1.219-.821-1.854-.898-4.547-.545-2.051.865-6.731-1.571-1.511-.473-5.329-2.094-6.728-.68-2.746 2.775-5.085 4.05-5.22 4.05-1.346.26-4.492.316-7.004-.28-2.059.95-5.39 1.915-5.904 1.826 0 0 4.256-4.018 7.416-4.374l5.244.21c1.135-.758 2.316-1.772 3.546-3.156 1.673-1.887 7.005-.414 9.337.234 2.886.801 1.238 1.559 7.279 1.937 2.128.131 8.413 2.836 8.413 2.836 1.465.494 6.15 5.37 5.98 6.048-.117.23-.055 5.689-1.694 9.787L112.6 96.24l5.296 6.7c-9.737.807-20.125-2.954-20.125-2.954-.908-1.67-.97-2.58-1.428-3.921-2.836.078-5.708 1.477-10.376 4.313-3.023 1.94-6.948 2.551-8.699 2.706-5.1.452-11.952-4.095-12.44-5.833a10.601 10.601 0 0 1-.758-1.508c-.335-.832-.62-.821-.824-1.037l-.394-1.855-.274-1.928.212-.178c-.723-3.427.053-5.008 3.34-6.317a19.78 19.78 0 0 0 1.991-.931l2.137-1.461c2.459-1.308 3.596-2.235 3.596-2.235 2.07-1.506 4.08-3.084 5.849-4.388 3.522-2.568 10.694-13.532 22.991-7.407 0 0-10.588-.42-14.859 3.68-6.908 6.633-12.047 12.29-21.25 15.564-1.9 1.999-.591 11.426 7.647 12.882" fill="#274D87" fill-rule="nonzero"/><path d="M100.39 98.317c4.086 1.194 8.34 1.842 12.553 2.121-3.602-.96-7.681-1.802-10.932-3.765-.67-1.888-1.007-3.882-1.195-5.854l-1.623-1.175c.36 2.892.557 5.811 1.197 8.673M111.745 89.972l-.255 1.868 7.174 6.092z" fill="#FFF"/><path d="M158.731 57.92s-8.117-6.22-17.845-2.446c-8.714 3.384-11.047 11.117-7.375 14.856-1.21-.004-2.46.088-3.473.379-3.007.869-4.46-.612-4.46-.612.69 10.303 12.558 8.02 12.558 8.02s-2.76-.975-3.939-2.449c-1.18-1.474-4.788-1.278-4.788-1.278s3.273-2.838 9.652-1.138c6.382 1.703 8.65-3.927 8.65-3.927s-6.429-3.42-4.2-7.732c2.228-4.312 10.107-4.558 15.22-3.673" fill="#274D87" fill-rule="nonzero"/><path d="m174.907 80.53-.262-.21-.181-.233c.099-.031.145-.046.194-.058l.306.482-.057.018" fill="#E02F29" fill-rule="nonzero"/><path d="M139.398 67.706c-2.926-1.931-2.535-7.036 3.029-10.752 0 0-7.418 1.95-7.47 8.428-.055 6.48 5.389 5.868 6.021 5.562.633-.304 1.35-1.306-1.58-3.238" fill="#FFF" fill-rule="nonzero"/><path d="M142.556 76.637s5.135.296 7.729-3.463c0 0 .396 8.344 7.843 7.797l-3.145 1.362s.368 3.804-.972 7.189c0 0-.441-4.181-1.947-6.98 0 0-3.107.523-4.307-2.028-1.197-2.55-3.053-3.136-5.201-3.877" fill="#274D87" fill-rule="nonzero"/><path d="M149.63 79.273c.037-.235.205-.38.445-.432a7.39 7.39 0 0 1-.756-1.577c-1.722 2.97.301 3.546 1.647 3.624a1.963 1.963 0 0 1-.214-.091c-.698-.353-1.202-1.032-1.122-1.524M154.343 95.789s-.096-3.442 3.028-2.197c3.125 1.247 3.57 2.403 3.57 2.403s3.668-.586 5.107 1.118c0 0-3.36-.43-5.755-.106 0 0-.318-.826-2.35-1.928-2.031-1.104-3.105-.427-3.6.71M147.666 97.726s-.39.25-.934.648l2.234 1.002-3.028-.392c-.33.265-.67.555-.991.86 0 0 4.465-.162 7.238 1.16 0 0-2.378-2.049-4.52-3.278" fill="#FFF" fill-rule="nonzero"/><path d="M173.556 60.195s3.24 3.949 2.528 11.597c-.713 7.65-10.807 7.315-10.807 7.315s3.978-5.19 4.271-7.123c0 0 1.064 2.26.35 3.988 0 0 5.277-1.762 3.658-15.777M119.167 82.99s14.875.146 24.586 6.777c0 0-2.863.739-5.238 1.41 0 0-7.562-5.47-19.084-7.567l-.264-.62" fill="#274D87" fill-rule="nonzero"/><path d="M173.718 122.132c2.184.904 4.357 2.56 6.137 5.604 0 0 1.998-1.448 3.638-2.002-1.048-2.28-2.345-2.995-3.34-4.734 2.416.46 3.566.959 5.534.162-5.533-.162-6.994-3.49-8.656-4.527a5.31 5.31 0 0 0-2.047-.737l-1.266 6.234" fill="#ED652D"/><path d="M106.365 154.574c-.037.183-.06.284-1.004.4l-5.855.718.354-1.69 5.893-.718c.608-.075.793-.051.843-.014.022.017.03.076.013.154l-.244 1.15Zm-5.975-3.094 5.892-.718c.725-.089.805-.025.81-.016.003 0 .007.017 0 .06l-.124.59c-.016.074-.037.174-.914.28l-5.855.717.191-.913Zm8.772.624c.847-.394 1.09-.867 1.156-1.17l.16-.766c.088-.416-.012-.73-.299-.935-.412-.294-1.191-.359-2.455-.204l-12.612 1.541 1.835 1.064-1.303 6.198 9.809-1.206c.95-.116 3.856-.478 4.173-1.978l.309-1.471c.111-.52-.168-.89-.773-1.073ZM139.281 150.742l.847-4.02 8.268-1.01-.845 4.016-8.27 1.014Zm12.348-6.587c-.487-.348-1.423-.315-2.676-.164l-8.704 1.064c-2.148.264-3.37.684-3.679 2.162l-.83 3.936c-.128.6-.037.973.294 1.211.487.347 1.425.316 2.678.16l8.703-1.07c2.15-.263 3.373-.682 3.684-2.16l.824-3.93c.13-.601.037-.974-.294-1.209ZM113.895 148.271l-1.573 7.489 3.547-.436 1.578-7.487-3.552.434M132.988 149.12c-.489-.35-1.432-.315-2.696-.162l-6.955.848.226-1.083 7.314-.897 2.75.141.103-.482c.108-.516.01-.874-.3-1.096-.429-.303-1.208-.354-2.696-.173l-6.71.82c-2.146.263-3.369.685-3.681 2.16l-.211 1.013c-.127.6-.035.974.297 1.209.487.346 1.424.315 2.676.16l6.955-.846-.242 1.143-7.938 1.035-2.746-.185-.114.53c-.123.589-.026.972.304 1.202.49.346 1.436.307 2.698.14l7.317-.951c2.17-.286 3.402-.717 3.713-2.195l.237-1.122c.123-.59.03-.976-.301-1.209M164.638 146.52l-5.938-3.722-3.205.392-1.599 7.499 3.49-.427.97-4.548 5.929 3.707 3.234-.398 1.312-6.153 2.442-1.605-5.66.694-.975 4.56" fill="#ED652D" fill-rule="nonzero"/><path d="M29.773 152.114c-.594.449-2.505.649-3.899.785l2.468-11.566c.083-.01.172-.022.25-.036 2.051-.296 3.575-.42 3.897.452.339.967-.139 3.387-.573 5.424-.566 2.656-1.269 4.269-2.143 4.94Zm1.967-26.684c1.21-.21 2.995-.43 3.33-.189.497.364.227 3.017-.223 5.125-.542 2.543-1.713 6.475-2.5 7.086-.47.365-2.23.587-3.33.721l2.723-12.743Zm3.529 13.386a11.094 11.094 0 0 0 2.82-2.377c.838-.986 2.31-4.81 2.799-7.108.404-1.895.413-4.919-.51-5.956-1.754-1.79-5.74-1.329-7.66-1.095l-.013.001c-.047.004-.062.008-.062.008l-8.827 1.242-.013.058 1.468 1.78-6.27 29.36-2.344 2.339 8.426-1.033c2.447-.339 7.134-.932 10.176-4.363 1.463-1.691 2.38-3.505 2.817-5.553.898-4.22-.764-6.764-2.807-7.303ZM54.818 127.49l1.732 1.64-3.615 16.873c-.642 2.561-1.472 4-4.256 4.34-3.181.389-3.048-.939-2.566-3.398-.002.01 3.026-14.114 3.616-16.878l2.292-2.185-10.342 1.455 1.517 1.656-3.58 16.722c-.365 1.89-.913 4.729 2.258 5.804 1.693.578 5.078.174 5.112.168.565-.07 3.475-.47 5.286-1.502 3.362-1.918 4.02-4.75 4.5-6.82.004-.008 3.01-14.019 3.598-16.771l2.56-2.246-8.112 1.142M96.573 145.356l-5.608-11.835 8.288-10.324 2.579-2.318-.94.13-7.649 1.077 1.535 1.561-7.567 9.929 1.953-9.05 2.353-2.199-9.754 1.29.866 1.828-4.776 22.263-2.347 2.164 10.38-1.27-1.526-1.688 1.684-7.885 3.333 7.394-1.895 1.988 10.592-1.309-1.501-1.746M119.841 118.345l-3.718 17.12-3.811-16.061-7.575 1.12-.333 1.875-5.254 24.522 5.917-.667-1.72-1.683 3.72-17.284 4.757 18.138 6.035-.738 5.357-24.937 2.516-2.234-5.89.829M70.682 128.227c.336-.258.916-.613 1.578-.707.79-.112 1.288.043 1.664.51.95 1.143.805 3.248.76 4.782l-.02.62 3.434-.421 1.95-9.07-3.943 1.367c-.615-.476-1.584-.879-3.235-.645-5.507.774-11.445 8.153-12.956 15.241-.237 1.102-.923 4.91.093 7.654.659 1.745 2.963 4.173 6.612 3.725 1.856-.229 3.179-1.005 4.104-1.74l3.224.524 1.857-8.628-2.804.342-.276.616c-1.553 3.476-2.98 5.69-5.286 5.967-1.98.245-2.347-1.046-1.562-5.524.191-1.069.41-2.284.666-3.49.521-2.436 1.484-6.333 1.941-7.733.528-1.626 1.081-2.482 2.2-3.39M173.845 130.069s-1.504 5.162-7.601 5.908l4.853-22.939 2.275-2.188-10.26 1.445 1.412 1.664-5.012 23.718-2.305 2.155 17.638-2.16 1.723-7.935-2.723.332M137.734 134.492l-.827.102-.239.659c-.508 1.407-.977 2.233-3.06 3.751-1.341.96-2.825 1.281-4.294 1.503l1.822-8.543c3.148-.384 3.072 2.036 3.072 2.036l1.155-.14 2.23-10.245-1.183.169s-1.667 4.952-4.665 5.318l2.192-10.073c1.566-.22 3.017-.367 3.973.33 1.334.922 1.22 1.592 1.105 2.297l-.01.068-.117.704 2.813-.397 1.495-7.008-17.072 2.402 1.428 1.658-4.97 23.12-2.264 2.147 16.289-1.994.894-.11.19-.713 1.74-6.498.21-.778-.98.121-.927.114M147.837 138.23l4.89-22.68 2.275-2.186-10.258 1.443 1.411 1.664-5.048 23.46-2.307 2.155 17.641-2.16 1.72-7.934-2.721.331s-1.505 5.163-7.603 5.907" fill="#FFF" fill-rule="nonzero"/><path d="M63.944 149.601c-.723-.699-1.04-1.667-1.27-2.383-.84-2.692-.158-6.408.07-7.486.939-4.406 3.51-9.662 6.409-12.258-3.627 2.625-6.926 7.803-7.898 12.345-.23 1.079-.887 4.796.297 7.466.356.79 1.28 1.592 2.392 2.316" fill="#ED652D" fill-rule="nonzero"/><path d="M68.678 127.877c-3.403 2.705-6.463 7.621-7.39 11.95-.228 1.074-.883 4.784.295 7.444.297.658 1.013 1.376 2.13 2.135-.598-.694-.879-1.575-1.071-2.178-.84-2.688-.16-6.422.069-7.503.94-4.415 3.401-9.267 5.967-11.848Zm-4.753 21.753c-1.271-.828-2.08-1.612-2.405-2.331-1.187-2.679-.529-6.408-.299-7.487.974-4.552 4.301-9.753 7.912-12.366l.043.053c-2.715 2.432-5.405 7.58-6.398 12.24-.227 1.077-.905 4.796-.07 7.469.21.662.53 1.663 1.26 2.368l-.043.054ZM128.74 119.01l-4.83 22.848 1.042-.16 4.823-22.805-1.036.117" fill="#ED652D" fill-rule="nonzero"/><path d="m128.768 119.042-4.814 22.775.97-.15 4.807-22.735-.963.11Zm-4.902 22.858.01-.049 4.835-22.872 1.107-.126-.01.047-4.827 22.829-1.115.171ZM147.312 116.433l-5.13 24.047 1.042-.159 5.125-24.003-1.037.115" fill="#ED652D" fill-rule="nonzero"/><path d="m147.34 116.464-5.115 23.974.97-.147 5.11-23.933-.965.106Zm-5.203 24.058.01-.05 5.136-24.07 1.11-.123-.01.047-5.13 24.026-1.116.17ZM165.617 113.932l-4.936 24.056 1.043-.16 4.926-24.012-1.033.116" fill="#ED652D" fill-rule="nonzero"/><path d="m165.646 113.964-4.921 23.982.97-.148 4.912-23.942-.961.108Zm-5.009 24.065 4.95-24.128 1.107-.125-.01.047-4.931 24.036-1.116.17ZM120.722 120.189l-4.793 22.74 1.04-.157 4.788-22.698-1.035.115" fill="#ED652D" fill-rule="nonzero"/><path d="m120.75 120.22-4.777 22.668.968-.147 4.773-22.627-.963.106Zm-4.865 22.75.01-.048 4.799-22.765 1.107-.122-.01.046-4.793 22.721-1.113.169ZM105.347 122.281l-4.793 22.742 1.04-.158 4.788-22.7-1.035.116" fill="#ED652D" fill-rule="nonzero"/><path d="m105.375 122.313-4.777 22.669.968-.148 4.772-22.629-.963.108Zm-4.865 22.752.01-.049 4.798-22.766 1.108-.124-.01.047-4.792 22.722-1.114.17ZM83.753 125.23l-4.627 22.08 1.016-.08 4.66-22.144-1.049.144" fill="#ED652D" fill-rule="nonzero"/><path d="m83.782 125.26-4.613 22.012.944-.075 4.645-22.07-.976.134Zm-4.7 22.088.01-.045 4.632-22.104.025-.003 1.097-.151-.01.048-4.666 22.169-1.087.086ZM41.742 148.322l3.73-17.886-1.042.158-3.732 17.888s-.723 3.763 2.79 4.483c0 0-2.547-.815-1.746-4.643" fill="#ED652D" fill-rule="nonzero"/><path d="m44.459 130.625-3.727 17.864c-.007.035-.632 3.497 2.435 4.363-.659-.373-2.084-1.548-1.46-4.537l3.722-17.838-.97.148Zm-.978 22.374c-3.505-.718-2.824-4.486-2.817-4.524l3.737-17.911 1.116-.17-.01.048-3.732 17.887c-.784 3.754 1.698 4.595 1.723 4.603l-.017.067ZM53.91 146.448l3.677-17.63 1.044-.165-3.72 17.83s-.854 3.774-4.758 4.933c0 0 2.956-1.143 3.757-4.968" fill="#ED652D" fill-rule="nonzero"/><path d="m57.616 128.849-3.672 17.606c-.416 1.985-1.42 3.237-2.19 3.937a6.42 6.42 0 0 1-1.144.835c3.446-1.29 4.26-4.716 4.267-4.752l3.71-17.78-.971.154Zm-7.453 22.6-.023-.065c.03-.011 2.949-1.182 3.736-4.943l3.682-17.653 1.117-.177-.01.05-3.72 17.828c-.009.039-.903 3.809-4.782 4.96ZM26.389 125.146l-6.122 29.262 1.047-.126 6.11-29.25-1.035.114" fill="#ED652D" fill-rule="nonzero"/><path d="m26.417 125.177-6.107 29.19.975-.116 6.095-29.179-.963.105Zm-6.194 29.27.01-.046 6.127-29.287 1.107-.12-.01.046-6.115 29.274-1.119.134ZM36.557 123.774c1.786.311 2.22 3.476 1.684 6.048-.65 3.111-2.75 7.956-5.046 8.824 1.448-.804 3.041-5.58 3.677-8.692.524-2.567.733-5.796-.315-6.18" fill="#ED652D" fill-rule="nonzero"/><path d="M36.774 123.864c.358.309.552 1.053.565 2.181.012 1.082-.146 2.51-.433 3.916-.58 2.836-2.02 7.277-3.408 8.508 2.135-1.154 4.083-5.66 4.71-8.654.423-2.036.213-4.132-.523-5.216-.252-.37-.557-.617-.91-.735Zm-3.567 14.815-.029-.063c1.453-.807 3.043-5.65 3.66-8.669.552-2.703.696-5.778-.293-6.14l.018-.067c.468.082.865.358 1.179.82.62.914 1.027 2.898.533 5.269-.66 3.156-2.789 7.988-5.068 8.85ZM33.564 139.87c1.786.315 2.26 3.276 1.761 5.672-.606 2.899-2.52 6.915-4.805 7.735 1.438-.754 2.852-4.73 3.443-7.627.487-2.394.65-5.406-.399-5.78" fill="#ED652D" fill-rule="nonzero"/><path d="M33.791 139.963c.355.298.555.993.583 2.039.027 1.011-.11 2.343-.377 3.655-.6 2.939-1.876 6.385-3.16 7.447 1.155-.575 2.087-1.887 2.685-2.932.79-1.381 1.451-3.114 1.77-4.637.381-1.834.166-3.762-.537-4.799-.264-.39-.587-.649-.964-.773Zm-3.26 13.347-.027-.063c.646-.34 1.346-1.374 2.023-2.993a25.918 25.918 0 0 0 1.402-4.61c.512-2.518.613-5.389-.376-5.741l.018-.067c.496.088.914.378 1.241.861.713 1.052.932 3.001.547 4.852-.566 2.706-2.437 6.902-4.827 7.76ZM108.056 122.696l5.408 20.454-.89.093-4.993-18.342.475-2.205" fill="#ED652D" fill-rule="nonzero"/><path d="m107.617 124.9 4.982 18.306.821-.086-5.36-20.276-.443 2.057Zm4.931 18.38-.008-.028-4.994-18.35.002-.008.475-2.206.067-.001 5.418 20.493-.96.1ZM87.346 135.931l4.67 9.821-.944.093-4.861-9.763 9.9-12.57 1.04-.141-9.805 12.56" fill="#ED652D" fill-rule="nonzero"/><path d="m86.251 136.087 4.841 9.721.872-.086-4.659-9.795.013-.017 9.753-12.494-.94.129-9.88 12.542Zm4.8 9.794-.01-.02-4.871-9.783.013-.017 9.91-12.581 1.137-.155-.052.067-9.792 12.543 4.682 9.847-1.016.1ZM134.913 117.83s4.927-.516 5.29 2.494c0 0 1.265-4.739-5.29-2.494" fill="#ED652D" fill-rule="nonzero"/><path d="M135.682 117.765c1.37 0 4.12.266 4.525 2.366.079-.448.192-1.61-.553-2.305-.793-.74-2.297-.755-4.473-.049.13-.006.3-.012.5-.012Zm4.554 2.568-.068-.005c-.354-2.942-5.203-2.469-5.251-2.463l-.015-.067c2.341-.802 3.956-.81 4.8-.022.962.899.538 2.54.534 2.557ZM129.926 141.473s4.847-.157 6.497-3.303c0 0-.186 4.768-6.497 3.303" fill="#ED652D" fill-rule="nonzero"/><path d="M130.167 141.491c2.074.442 3.682.241 4.782-.598 1.106-.844 1.365-2.109 1.424-2.559-1.49 2.594-5.221 3.075-6.206 3.157Zm1.973.297c-.672 0-1.413-.094-2.222-.281l.007-.069c.048-.001 4.846-.192 6.468-3.284l.065.017c0 .017-.083 1.72-1.467 2.776-.733.56-1.688.841-2.85.841ZM150.058 138.808s4.846-.153 6.496-3.301c0 0-.336 4.737-6.496 3.301" fill="#ED652D" fill-rule="nonzero"/><path d="M150.3 138.827c2.002.426 3.577.229 4.683-.587 1.13-.833 1.436-2.092 1.512-2.556-1.492 2.584-5.212 3.061-6.195 3.143Zm1.904.288c-.655 0-1.374-.091-2.154-.273l.007-.068c.048-.002 4.845-.19 6.466-3.283l.065.018c-.001.018-.138 1.735-1.564 2.786-.74.546-1.684.82-2.82.82ZM167.109 136.65s5.618-.744 7.515-4.433c0 0-.204 5.615-7.515 4.433" fill="#ED652D" fill-rule="nonzero"/><path d="M167.332 136.65c2.392.35 4.254-.007 5.536-1.058 1.355-1.112 1.646-2.696 1.707-3.21-1.01 1.824-2.944 2.89-4.407 3.467-1.252.493-2.377.72-2.836.8Zm1.683.198c-.596 0-1.233-.054-1.912-.164l.001-.068c.056-.008 5.623-.785 7.49-4.415l.064.017c0 .02-.093 2.071-1.746 3.427-.977.801-2.283 1.203-3.897 1.203Z" fill="#ED652D" fill-rule="nonzero"/><path d="M186.277 123.385c2.265 3.079 5.574 5.129 9.725 7.495-4.23-3.317-5.89-5.342-9.725-7.495" fill="#FFF"/><path fill="#A0ABB5" fill-rule="nonzero" d="M185.471 145.31h1.185v3.083h.474v-3.084h1.185v-.419h-2.844v.42M191.638 148.393v-2.07c0-.101.008-.546.008-.872h-.008l-.986 2.942h-.468l-.986-2.937h-.01c0 .321.01.766.01.868v2.069h-.459v-3.503h.678l1.001 2.962h.009l.996-2.962h.673v3.503h-.458"/></g></svg>