<svg width="200" height="200" xmlns="http://www.w3.org/2000/svg"><g fill-rule="nonzero" fill="#186BBE"><path d="M99.971 185.668h-.025c-7.545 0-14.511 2.509-20.133 6.746.65 2.168 3.116 5.029 8.03 5.139 4.997.112 9.297-.884 12.103-.905h.025c2.807.02 7.107 1.017 12.103.905 4.914-.11 7.38-2.971 8.03-5.14-5.621-4.236-12.587-6.745-20.133-6.745"/><path d="M144.783 91.4c-12.944 9.811-21.538 20.21-32.782 15.61 10.645.83 18.292-9.965 30.66-18.481 11.32-7.796 18.209-9.07 26.952-6.924-5.1-.604-15.54 2.751-24.83 9.794Zm-89.648 0C45.844 84.355 35.405 81 30.304 81.604c8.744-2.147 15.633-.872 26.953 6.924 12.367 8.516 20.014 19.311 30.66 18.48-11.245 4.602-19.838-5.798-32.782-15.61ZM178.72 73.951c8.263-4.86 20.748-15.742 21.186-34.782.549-23.875-18.506-36.494-35.826-36.033 3.114 1.55 10.283 6.546 12.286 16.206 2.398 11.565-3.197 23.362-15.757 27.062-4.238 1.25-8.204 1.486-13.261 1.297 3.128 3.387 5.357 9.815 6.127 16.678-3.234-7.955-9.147-16.46-13.74-17.15-4.399-.538-7.106-.843-12.695-1.056-12.754-.487-23.19-.248-27.081 3.913-3.891-4.16-14.328-4.4-27.082-3.913-5.588.213-8.296.518-12.695 1.056-4.592.69-10.506 9.195-13.74 17.15.77-6.863 3-13.291 6.128-16.678-5.058.189-9.024-.048-13.262-1.297-12.56-3.7-18.155-15.497-15.757-27.062 2.003-9.66 9.173-14.656 12.286-16.206C18.517 2.676-.537 15.295.012 39.17c.437 19.04 12.922 29.922 21.185 34.782-3.072.495-14.314 3.624-19.77-.974 3.396 14.942 19.787 28.067 35.922 28.348-1.168 2.973-3.46 18.513-.096 28.057 3.366 9.544 25.788 15.34 30.54 28.826 3.94-2.307 8.692-3.554 11.86-4.124-.738-10.747-3.387-21.406-7.55-30.277a65.393 65.393 0 0 0-3.146-5.909c-.333.02-.667.04-1.005.04-9.522 0-17.241-7.818-17.241-17.463 0-1.174.114-2.321.333-3.43 21.769 10.636 30.742 37.563 31.61 59.551-4.155.278-14.475 2.818-17.844 8.045-3.368 5.226-.258 13.238 2.222 17.349 2.957 4.9 7.615 8.27 10.359 8.27.108 0 .27-.013.421-.03a36.324 36.324 0 0 1 13.832-6.56c-.768-1.789-2.151-4.527-4.066-6.542-4.889-5.388-11.512-4.798-13.145 1.095-1.19-1.687-2.197-8.275.963-10.527 3.413-2.433 12.772-.678 18.45 15.528a36.334 36.334 0 0 1 6.1-.522l.013-.025.012.025c2.08 0 4.116.184 6.1.522 5.678-16.206 15.037-17.96 18.45-15.528 3.16 2.252 2.154 8.84.964 10.527-1.633-5.893-8.257-6.483-13.145-1.095-1.916 2.015-3.299 4.753-4.067 6.542a36.324 36.324 0 0 1 13.832 6.56c.15.017.313.03.421.03 2.745 0 7.403-3.37 10.36-8.27 2.48-4.111 5.59-12.123 2.221-17.35-3.368-5.226-13.688-7.766-17.843-8.044.867-21.988 9.84-48.915 31.61-59.551a17.75 17.75 0 0 1 .333 3.43c0 9.645-7.72 17.463-17.241 17.463-.339 0-.672-.02-1.006-.04a65.436 65.436 0 0 0-3.146 5.91c-4.163 8.87-6.812 19.529-7.55 30.276 3.168.57 7.92 1.817 11.86 4.124 4.752-13.486 27.175-19.282 30.54-28.826 3.365-9.544 1.073-25.084-.096-28.057 16.135-.28 32.527-13.406 35.924-28.348-5.457 4.598-16.699 1.47-19.772.974Z"/><path d="M176.77 111.737v-5.539h1.1l1.315 3.92c.12.364.209.637.264.818.064-.201.162-.496.296-.886l1.33-3.852h.987v5.539h-.707v-4.64l-1.615 4.64h-.66l-1.602-4.717v4.717h-.707Zm-3.291 0v-4.887h-1.824v-.652h4.38v.652h-1.826v4.887h-.73Z"/></g></svg>