<?xml version="1.0" encoding="UTF-8"?>
<svg width="200px" height="200px" viewBox="0 0 200 200" version="1.1" xmlns="http://www.w3.org/2000/svg" xmlns:xlink="http://www.w3.org/1999/xlink">
    <!-- Generator: Sketch 51.3 (57544) - http://www.bohemiancoding.com/sketch -->
    <title>buffalo</title>
    <desc>Created with Sketch.</desc>
    <defs></defs>
    <g id="buffalo" stroke="none" stroke-width="1" fill="none" fill-rule="evenodd">
        <g id="buffalo_BGL" transform="translate(0.000000, 3.980100)" fill="#186BBE">
            <g id="buffalo">
                <g id="g10" transform="translate(99.979099, 96.843339) scale(-1, 1) rotate(-180.000000) translate(-99.979099, -96.843339) translate(0.000000, 0.121427)" fill-rule="nonzero">
                    <g id="g12">
                        <path d="M99.9710738,11.8345039 L99.946497,11.8345039 C92.4009172,11.8345039 85.4346478,9.33789762 79.8132477,5.12301785 C80.4626103,2.96571171 82.9294859,0.119745885 87.8438432,0.0100059026 C92.8397887,-0.101423445 97.1397259,0.889874854 99.946497,0.909821357 L99.9710738,0.909821357 C102.777678,0.889874854 107.077782,-0.101423445 112.07356,0.0100059026 C116.988085,0.119745885 119.454793,2.96571171 120.104156,5.12301785 C114.482756,9.33789762 107.516654,11.8345039 99.9710738,11.8345039" id="path14"></path>
                        <path d="M144.782943,105.61933 C131.838659,95.8574856 123.245472,85.5116508 112.001168,90.0892669 C122.646267,89.2627644 130.293163,100.002306 142.660143,108.475246 C153.980184,116.230962 160.869547,117.499242 169.613371,115.36321 C164.512932,115.964 154.07381,112.626221 144.782943,105.61933 Z M55.1346277,105.61933 C45.8437606,112.626221 35.4044714,115.964 30.3036983,115.36321 C39.0480241,117.499242 45.9373865,116.230962 57.2572608,108.475246 C69.6242407,100.002306 77.271137,89.2627644 87.916236,90.0892669 C76.6719312,85.5116508 68.0787444,95.8574856 55.1346277,105.61933 Z M178.720163,122.976713 C186.982649,127.812309 199.468334,138.638011 199.906369,157.58037 C200.454749,181.333209 181.400204,193.887929 164.079912,193.428854 C167.194144,191.886958 174.363214,186.916966 176.36614,177.306317 C178.763632,165.799986 173.169484,154.064283 160.609233,150.38253 C156.370989,149.140032 152.40543,148.904838 147.347792,149.092461 C150.4759,145.723245 152.705033,139.328122 153.475273,132.499871 C150.240999,140.414268 144.327854,148.875231 139.735336,149.562514 C135.336089,150.097271 132.628795,150.400327 127.040331,150.612566 C114.286476,151.096758 103.84936,150.858904 99.9587018,146.720071 C96.0680436,150.858904 85.6309278,151.096758 72.8770724,150.612566 C67.2886086,150.400327 64.5814822,150.097271 60.1820675,149.562514 C55.5895493,148.875231 49.6764042,140.414268 46.4422977,132.499871 C47.2123708,139.328122 49.4416707,145.723245 52.5696121,149.092461 C47.5119737,148.904838 43.5464148,149.140032 39.3080032,150.38253 C26.7482543,154.064283 21.1534373,165.799986 23.5510966,177.306317 C25.5543567,186.916966 32.7240953,191.886958 35.8374913,193.428854 C18.5165304,193.887929 -0.53650657,181.333209 0.0115595567,157.58037 C0.448799153,138.638011 12.9340352,127.812309 21.1967393,122.976713 C18.1249734,122.484371 6.88297579,119.371306 1.42639746,123.946427 C4.82333948,109.080693 21.2142941,96.0229857 37.3492154,95.7430493 C36.1812321,92.7855045 33.8882332,77.3256338 37.253416,67.830586 C40.6185988,58.3357045 63.0413359,52.5689827 67.7933525,39.1526639 C71.7334987,41.4470441 76.4853481,42.6878789 79.6532477,43.2552365 C78.9154421,53.9473739 76.2661632,64.5516882 72.1033211,73.3764191 C71.1267694,75.4469167 70.0756513,77.4036434 68.9573232,79.2552485 C68.6236137,79.2361203 68.2900714,79.2158278 67.9515135,79.2158278 C58.4297582,79.2158278 50.7108033,86.993833 50.7108033,96.58868 C50.7108033,97.7569942 50.8251607,98.8981963 51.0435097,100.001807 C72.8127046,89.4201143 81.7864138,62.6310555 82.6536238,40.7559356 C78.4986396,40.4798249 68.1787235,37.9522477 64.8103641,32.7525509 C61.4418375,27.5528541 64.5515553,19.5822367 67.0319732,15.4921723 C69.988713,10.6169721 74.6467693,7.2653874 77.3910116,7.2653874 C77.4990158,7.2653874 77.6616908,7.27701399 77.8119939,7.29364717 C81.851116,10.377471 86.5446164,12.6311997 91.6443864,13.8204717 C90.8763196,15.6002879 89.4929967,18.3247687 87.5776781,20.3290663 C82.6892351,25.6899385 76.0655362,25.1027875 74.4326,19.2395933 C73.2428822,20.9178807 72.2364036,27.4721832 75.396111,29.7130045 C78.809277,32.1329651 88.1681901,30.3873134 93.8457657,14.264644 C95.8308022,14.6006175 97.8668314,14.7835824 99.946497,14.7835824 L99.9587018,14.8085322 L99.9710738,14.7835824 C102.050572,14.7835824 104.086601,14.6006175 106.071805,14.264644 C111.749214,30.3873134 121.108294,32.1329651 124.521293,29.7130045 C127.681,27.4721832 126.674689,20.9178807 125.484971,19.2395933 C123.851867,25.1027875 117.228336,25.6899385 112.339726,20.3290663 C110.424407,18.3247687 109.041251,15.6002879 108.273184,13.8204717 C113.372787,12.6311997 118.066288,10.377471 122.10541,7.29364717 C122.25588,7.27701399 122.418388,7.2653874 122.526392,7.2653874 C125.270634,7.2653874 129.928691,10.6169721 132.88543,15.4921723 C135.365848,19.5822367 138.475566,27.5528541 135.107207,32.7525509 C131.738847,37.9522477 121.418764,40.4798249 117.263947,40.7559356 C118.13099,62.6310555 127.104866,89.4201143 148.873894,100.001807 C149.092243,98.8981963 149.2066,97.7569942 149.2066,96.58868 C149.2066,86.993833 141.487645,79.2158278 131.96589,79.2158278 C131.627499,79.2158278 131.293957,79.2361203 130.960248,79.2552485 C129.841919,77.4036434 128.790801,75.4469167 127.814082,73.3764191 C123.651408,64.5516882 121.002129,53.9473739 120.264156,43.2552365 C123.432055,42.6878789 128.183905,41.4470441 132.123884,39.1526639 C136.876068,52.5689827 159.298972,58.3357045 162.663988,67.830586 C166.02917,77.3256338 163.736506,92.7855045 162.568188,95.7430493 C178.703444,96.0229857 195.094666,109.080693 198.491949,123.946427 C193.034896,119.371306 181.793099,122.484371 178.720163,122.976713 Z" id="path16"></path>
                        <path d="M176.770737,85.385904 L176.770737,90.8964749 L177.870842,90.8964749 L179.184948,86.9974923 C179.305325,86.6345565 179.393935,86.3626041 179.449107,86.1823004 C179.512639,86.3827302 179.611281,86.6763057 179.745032,87.0643577 L181.075858,90.8964749 L182.062273,90.8964749 L182.062273,85.385904 L181.355063,85.385904 L181.355063,90.0012774 L179.740016,85.385904 L179.079619,85.385904 L177.477947,90.0786217 L177.477947,85.385904 L176.770737,85.385904 Z M173.478784,85.385904 L173.478784,90.2474484 L171.65475,90.2474484 L171.65475,90.8964749 L176.035105,90.8964749 L176.035105,90.2474484 L174.2094,90.2474484 L174.2094,85.385904 L173.478784,85.385904 Z" id="path18"></path>
                    </g>
                </g>
            </g>
        </g>
    </g>
</svg>