<svg width="200" height="200" xmlns="http://www.w3.org/2000/svg"><g fill="none"><path d="M187.777 25.13c-6.793-3.144-8.067-4.477-8.067-8.406C179.71 8.518 172.47 3 165.725 3c-13.162 0-21.969 5.632-27.789 9.361-1.081.702-2.264 1.454-3.244 2.012-2.548-1.167-6.059-2.221-10.412-2.221-10.86 0-17.08 3.803-21.194 6.32-1.064.645-2.663 1.63-3.094 1.63-.412 0-2.016-.985-3.075-1.63-4.12-2.517-10.329-6.32-21.203-6.32-4.354 0-7.864 1.054-10.408 2.221-.99-.558-2.162-1.31-3.253-2.012C56.23 8.631 47.44 3 34.273 3 27.52 3 20.292 8.518 20.292 16.724c0 3.929-1.283 5.262-8.075 8.405C7.648 27.242 0 30.79 0 39.495c0 6.182 2.649 10.302 4.766 13.61 2.75 4.272 5.87 9.13 5.87 23.505v4.033l2.896 2.795c.175.16.537.5 1.068.917-1.984 6.049-5.705 19.764-2.447 29.775l.385 1.2.692 1.055c2.96 4.527 5.82 13.335 7.91 19.778 1.883 5.82 2.983 9.11 4.422 11.392-2.09 8.03-.312 14.958 5.567 21.74 15.76 18.202 29.453 27.422 40.69 27.422 3.588 0 6.924-1.1 9.673-3.152 1.907.833 3.744 1.255 5.486 1.255 2.777 0 5.1-.815 6.782-1.649 1.961.567 4.056.852 6.232.852 2.186 0 4.28-.285 6.25-.852 1.673.834 3.997 1.65 6.774 1.65 1.76 0 3.593-.423 5.48-1.256 2.75 2.053 6.105 3.152 9.679 3.152 11.218 0 24.902-9.22 40.694-27.422 5.874-6.782 7.653-13.71 5.563-21.74 1.448-2.282 2.538-5.572 4.427-11.374 2.071-6.443 4.939-15.26 7.909-19.787l.687-1.063.395-1.201c3.253-10.01-.468-23.722-2.475-29.775a13.24 13.24 0 0 0 1.072-.908l2.906-2.804V76.61c0-14.376 3.134-19.233 5.874-23.504 2.127-3.309 4.766-7.429 4.766-13.61 0-8.707-7.653-12.254-12.216-14.367" fill="#7B7979"/><path d="M186.731 27.375c-6.598-3.061-9.504-4.995-9.504-10.65 0-6.737-5.957-11.25-11.502-11.25-12.438 0-20.54 5.183-26.451 8.972-1.613 1.036-3.272 2.104-4.546 2.7-2.328-1.229-5.856-2.52-10.448-2.52-10.164 0-15.796 3.441-19.907 5.956-2.319 1.412-3.359 1.994-4.38 1.994-1.014 0-2.054-.582-4.373-1.994-4.11-2.515-9.733-5.956-19.906-5.956-4.587 0-8.116 1.291-10.444 2.52-1.27-.596-2.933-1.664-4.55-2.7-5.912-3.79-14.005-8.972-26.447-8.972-5.554 0-11.511 4.513-11.511 11.25 0 5.655-2.896 7.589-9.505 10.65-4.555 2.108-10.782 5-10.782 12.12 0 5.454 2.323 9.074 4.376 12.264 2.786 4.349 6.26 9.751 6.26 24.851v2.974l2.145 2.076c.256.243 1.054.967 2.29 1.75-1.36 3.846-6.456 19.477-3.046 29.96l.288.879.514.789c3.134 4.793 6.053 13.793 8.184 20.364 2.117 6.517 3.185 9.67 4.78 11.686l-.11.376c-2.164 7.479-.619 13.912 4.843 20.218 10.508 12.126 25.764 26.58 38.82 26.58 4.367 0 7.382-1.798 9.325-3.621 2.08 1.127 4.037 1.696 5.834 1.696 2.822 0 5.105-1 6.52-1.852 2.012.714 4.199 1.063 6.494 1.063 2.314 0 4.491-.349 6.503-1.063 1.416.852 3.689 1.852 6.52 1.852 1.797 0 3.759-.57 5.848-1.696 1.925 1.823 4.95 3.62 9.312 3.62 13.042 0 28.311-14.453 38.824-26.58 5.471-6.314 7.002-12.738 4.839-20.217l-.11-.376c1.604-2.007 2.658-5.17 4.775-11.667 2.117-6.581 5.041-15.581 8.185-20.383l.521-.789.285-.889c3.41-10.464-1.677-26.096-3.052-29.95 1.247-.783 2.043-1.507 2.291-1.75l2.164-2.066V76.61c0-15.109 3.464-20.502 6.25-24.851 2.054-3.19 4.382-6.81 4.382-12.264 0-7.13-6.243-10.012-10.798-12.12" fill="#FFF"/><path d="M186.044 28.869c-6.508-3.006-10.466-5.334-10.466-12.145 0-5.741-5.087-9.6-9.853-9.6-11.951 0-19.824 5.031-25.562 8.712-2.071 1.328-4.06 2.599-5.545 3.143-2.117-1.251-5.627-2.703-10.338-2.703-9.706 0-15.1 3.298-19.045 5.71-2.402 1.47-3.722 2.24-5.243 2.24-1.503 0-2.832-.77-5.228-2.24-3.946-2.412-9.34-5.71-19.05-5.71-4.702 0-8.208 1.452-10.339 2.703-1.494-.544-3.473-1.815-5.545-3.143-5.732-3.68-13.596-8.712-25.557-8.712-4.756 0-9.857 3.859-9.857 9.6 0 6.81-3.95 9.139-10.462 12.145-4.38 2.025-9.83 4.555-9.83 10.626 0 4.973 2.09 8.227 4.116 11.379 2.91 4.523 6.52 10.15 6.52 25.736v2.278l1.64 1.576c.216.206 1.353 1.265 3.172 2.204l-.224.619c-.706 1.893-6.796 18.766-3.277 29.569l.22.678.394.596c3.263 4.977 6.214 14.096 8.377 20.759 2.365 7.277 3.336 10.1 5.041 11.777l-.362 1.256c-2.016 6.984-.628 12.749 4.514 18.679 10.274 11.86 25.126 26.01 37.563 26.01 4.217 0 7.172-1.923 9.042-4.05 2.594 1.63 4.628 2.127 6.118 2.127 2.9 0 5.146-1.212 6.323-2.035 1.907.787 4.12 1.246 6.691 1.246 2.59 0 4.794-.46 6.7-1.246 1.173.823 3.428 2.035 6.324 2.035 1.503 0 3.538-.496 6.122-2.128 1.87 2.128 4.83 4.05 9.037 4.05 12.41 0 27.294-14.15 37.568-26.01 5.151-5.93 6.535-11.703 4.51-18.678l-.358-1.246c1.705-1.687 2.685-4.492 5.04-11.768 2.145-6.664 5.116-15.792 8.377-20.778l.395-.596.211-.678c3.518-10.803-2.576-27.681-3.272-29.57l-.229-.613c1.824-.944 2.969-1.994 3.171-2.2l1.65-1.585V76.61c0-15.586 3.61-21.213 6.516-25.736 2.035-3.152 4.124-6.406 4.124-11.379 0-6.071-5.454-8.6-9.834-10.626" fill="#0A0F25"/><path d="M67.823 70.002c-1.472-1.256-3.085-.779-3.085-.779s-5.169 2.058-5.169 7.795c0 4.266 3.208 9.34 8.808 9.34 7.437 0 9.156-6.164 9.156-8.886l-.61-.619c0 4.124-2.442 6.53-4.944 7.557-.197.077-.459-.243-.293-.38a2.783 2.783 0 0 0 1.136-2.232 2.786 2.786 0 0 0-2.777-2.787 2.789 2.789 0 0 0-2.79 2.787c0 1.356.97 2.479 2.254 2.73.201.047.165.468 0 .468a5.08 5.08 0 0 1-.395.018c-3.029 0-7.625-2.098-7.625-7.382 0-6.315 6.334-7.63 6.334-7.63m-2.888 72.329c0-1.906-1.888-3.464-1.888-6.571 0-3.125.78-9.12 8.886-14.225-.743-8.926 10.334-18.254 14.192-15.864 0 0-1.283 4.17 1.407 7.973 4.757 0 15.16-6.48 10.247-14.268-2.759-.797-3.941-4.39-5.17-6.406 0 0-2.84 2.103-5.714 2.103 0 0 1.137 2.484 3.29 2.484 2.15 0 3.983 1.792-2.538 1.792-7.997 0-8.061-3.501-7.892-6.8-7.46 4.76-14.279 4.43-14.279 4.43-4.069 10.671-10.833 22.458-10.833 22.458s1.659 9.348 6.988 17.12l-.591.486s-13.129-12.923-11.071-22.647c0 0-5.655 2.768-6.975 6.965l-8.102 28.046c-1.434 4.949-.697 8.945 3.414 13.683 4.101 4.739 21.176 24.15 33.512 24.15 4.739 0 6.214-4.179 6.214-4.179s-16.712-16.79-16.712-24.315c0-9.147 3.615-13.73 3.615-16.415" fill="#FFF"/><path d="M80.75 130.838c-6.457 0-7.662-5.15-7.662-5.15s-4.899 4.37-4.899 8.23c0 3.858 3.694 7.432 9.962 7.432 7.571 0 11.824-8.66 21.841-8.66 10.04 0 14.288 8.66 21.85 8.66 6.269 0 9.962-3.574 9.962-7.433 0-3.858-4.912-8.23-4.912-8.23s-1.182 5.151-7.644 5.151c-5.92 0-11.64-4.078-19.256-4.078-7.598 0-13.33 4.078-19.242 4.078" fill="#FFF"/><path d="M75.92 120.023c0 5.362 1.925 7.754 5.325 7.754 2.64 0 5.37-2.355 5.37-4.803 0-4.307-4.89-5.81-3.601-13.426 0 0-7.094 3.62-7.094 10.475m52.1-35.613c-2.503-1.027-4.96-3.433-4.96-7.557l-.604.619c0 2.722 1.732 8.885 9.174 8.885 5.6 0 8.799-5.073 8.799-9.34 0-5.736-5.17-7.794-5.17-7.794s-1.612-.477-3.097.779c0 0 6.351 1.315 6.351 7.63 0 5.284-4.6 7.382-7.643 7.382-.12 0-.248-.009-.385-.018-.156 0-.202-.421 0-.467a2.78 2.78 0 0 0 2.245-2.731 2.778 2.778 0 0 0-2.768-2.787 2.802 2.802 0 0 0-2.795 2.787c0 .916.458 1.732 1.146 2.231.155.138-.092.458-.294.38m28.99 36.952c-1.32-4.197-6.984-6.965-6.984-6.965 2.062 9.724-11.071 22.647-11.071 22.647l-.578-.486c5.325-7.772 6.974-17.12 6.974-17.12s-6.754-11.787-10.823-22.458c0 0-6.829.33-14.289-4.43.156 3.299.11 6.8-7.882 6.8-6.53 0-4.692-1.792-2.553-1.792 2.168 0 3.304-2.484 3.304-2.484-2.877 0-5.719-2.103-5.719-2.103-1.223 2.016-2.419 5.61-5.173 6.406-4.904 7.788 5.49 14.268 10.251 14.268 2.694-3.803 1.411-7.973 1.411-7.973 3.85-2.39 14.93 6.938 14.179 15.864 8.12 5.105 8.89 11.1 8.89 14.225 0 3.107-1.888 4.665-1.888 6.571 0 2.685 3.611 7.268 3.611 16.415 0 7.524-16.699 24.315-16.699 24.315s1.476 4.18 6.205 4.18c12.337 0 29.411-19.412 33.517-24.15 4.115-4.74 4.849-8.735 3.4-13.684l-8.083-28.046" fill="#FFF"/><path d="M118.744 127.777c3.418 0 5.334-2.392 5.334-7.754 0-6.855-7.084-10.475-7.084-10.475 1.264 7.616-3.612 9.119-3.612 13.426 0 2.448 2.732 4.803 5.362 4.803m-9.962-6.828c-.6 0-2.118 2.282-3.185 2.804-.587 0-1.838-3.703-2.498-3.703-.66 0-2.186 3.107-3.107 3.107-.916 0-2.438-3.107-3.097-3.107-.665 0-1.912 3.703-2.503 3.703-1.058-.522-2.57-2.804-3.18-2.804-.665 0-2.42 5.252-2.42 5.252s4.189-.917 11.2-.917c7.02 0 11.21.917 11.21.917s-1.747-5.252-2.42-5.252m20.768 24.645c-13.308 3.51-21.25-11.264-29.558-11.264-8.299 0-16.24 14.774-29.534 11.264 0 0-3.937 6.727-3.937 13.244 0 8.322 15.022 26.495 20.457 26.495 2.094 0 3.606-1.337 3.606-1.337s-5.169-7.396-5.911-11.383l.554-.312c3.093 3.611 5.486 12.245 14.765 12.245 9.294 0 11.686-8.634 14.784-12.245l.531.312c-.733 3.987-5.893 11.383-5.893 11.383s1.512 1.337 3.602 1.337c5.435 0 20.457-18.173 20.457-26.495 0-6.517-3.923-13.244-3.923-13.244" fill="#FFF"/><path d="M120.238 55.32c-3.886 5.562-2.566 13.21-6.636 11.992 0 0-5.027-2.685-10.347-3.382-.335-.041-.72-.577-.399-.642 4.821-1.182 9.078-.582 9.078-.582 1.504 0 2.842-12.226 5.976-12.226 2.997 0 7.35 2.704 14.885-1.622-2.42 5.458-10.137 4.353-12.557 6.461zm-23.5 8.61c-5.32.697-10.338 3.382-10.338 3.382-4.074 1.219-2.759-6.43-6.645-11.993-2.414-2.108-10.132-1.003-12.556-6.461 7.539 4.326 11.892 1.622 14.884 1.622 3.144 0 4.473 12.226 5.976 12.226 0 0 4.262-.6 9.083.582.325.065-.069.601-.403.642zm77.528 14.92c3.273 0 5.601-2.24 5.601-2.24 0-27.17 10.65-27.89 10.65-37.115 0-6.868-20.301-5.315-20.301-22.77 0-2.634-2.475-4.243-4.491-4.243-17.295 0-24.71 12.13-32.362 12.13 0 0-3.208-2.978-9.083-2.978-14.114 0-16.905 7.95-24.288 7.95-7.364 0-10.15-7.95-24.278-7.95-5.875 0-9.074 2.978-9.074 2.978-7.653 0-15.067-12.13-32.367-12.13-2.007 0-4.5 1.609-4.5 4.242 0 17.456-20.292 15.903-20.292 22.771 0 9.226 10.646 9.945 10.646 37.115 0 0 2.319 2.24 5.59 2.24 6.412 0 14.349-6.997 14.349-27.224 0-5.568-9.18-7.832-9.18-16.475 0-8.569 10.037-11.099 10.037-11.099S37.765 34.354 54.4 43.377l-.302.614S47.1 42.103 43.017 46.64c0 0 5.201 32.152-18.651 38.526 0 0-6.237 16.69-3.195 26.022 6.247 9.55 10.669 30.08 12.795 31.757l6.65-24.865s2.13-5.37 14.215-12.794l4-10.648c2.617-5.59 12.218 2.287 21.415-6.237 0 0-.67-6.05 14.77-6.74l-2.219-2.1c-2.543 0-11.566-1.168-11.566-1.168s-.875 11.681-12.721 11.681c-7.713 0-12.451-6.38-12.451-12.662 0-7.928 5.971-11.14 5.971-11.14s-3.047-1.998-7.387-2.65c0 0-6.393 2.178-11.626 14.77l-.619-.306c1.65-10.81 3.941-19.93 8.744-21.415 0 0 6.887.188 14.889 1.476 1.603.243 1.892 2.914 1.892 2.914s6.778 9.734 25.456 14.275c3.405.916 4.097 6.443 4.097 6.443h5.05s.674-5.527 4.092-6.443c18.68-4.541 25.453-14.275 25.453-14.275s.283-2.671 1.905-2.914c7.992-1.288 14.875-1.476 14.875-1.476 4.812 1.485 7.085 10.605 8.754 21.415l-.615.307c-5.242-12.593-11.64-14.77-11.64-14.77-4.335.65-7.387 2.649-7.387 2.649s5.967 3.212 5.967 11.14c0 6.283-4.73 12.662-12.455 12.662-11.833 0-12.713-11.681-12.713-11.681s-9.022 1.168-11.57 1.168l-2.219 2.1c15.44.69 14.77 6.74 14.77 6.74 9.202 8.524 18.798.646 21.428 6.237l3.987 10.648c12.098 7.423 14.225 12.794 14.225 12.794l6.644 24.865c2.136-1.677 6.553-22.207 12.804-31.757 3.033-9.333-3.208-26.022-3.208-26.022-23.847-6.374-18.633-38.526-18.633-38.526-4.096-4.537-11.09-2.65-11.09-2.65l-.302-.613c16.626-9.023 13.482-19.325 13.482-19.325s10.026 2.53 10.026 11.1c0 8.642-9.173 10.906-9.173 16.474 0 20.227 7.937 27.225 14.333 27.225z" fill="#FFF"/><path d="M37.266 150.103l6.127-21.208-.743 18.835c-.28 6.717 1.201 11.19 5.422 16.506 5.966 7.506 11.561 13.73 16.607 18.532-6.773-3.326-15.306-10.687-24.503-21.3-3.387-3.904-4.175-6.993-2.91-11.365M26.964 87.842s-.536 17.655 1.004 20.34c1.127 1.998 3.913 8.037 5.366 11.786.857-1.54.586-5.04 9.261-9.568-3.78 3.62-4.857 6.058-5.013 6.47l-.069.175-.06.183-4.05 15.186c-.023-.054-.042-.119-.065-.183-.604-1.86-1.241-3.84-1.924-5.847-2.012-5.921-4.372-12.135-7.186-16.59-1.746-6.137 1.004-16.765 2.736-21.952M76.68 171.33c.702.962 2.42 3.364 3.781 5.077a133.535 133.535 0 0 0 5.458 6.499c-1.81-.367-5.824-3.557-10.054-8.717-3.561-4.967-6.301-10.32-6.301-13.866 1.265 2.584 6.42 10.035 7.117 11.007M22.386 53.587c1.833 3.675 3.501 8.725 4.45 16.269.532.215 1.256.412 2.025.325 2.296-.243 5.422-2.475 6.792-8.538a55.475 55.475 0 0 1-.44 3.286c-2.291 8.107-6.595 10.618-9.486 10.618-.903 0-1.719-.312-2.32-.646-.27-16.869-4.641-23.697-7.886-28.71A16.705 16.705 0 0 1 14.353 44c2.488 2.153 5.229 5.054 8.033 9.586m140.342 96.517l-6.132-21.208.752 18.835c.275 6.717-1.192 11.19-5.417 16.506-5.976 7.506-11.566 13.73-16.607 18.532 6.764-3.326 15.305-10.687 24.498-21.3 3.392-3.904 4.18-6.993 2.906-11.365m10.338-62.261s.55 17.655-.99 20.34c-1.145 1.998-3.913 8.037-5.37 11.786-.853-1.54-.587-5.04-9.275-9.568 3.785 3.62 4.848 6.058 5.03 6.47l.056.175.055.183 4.06 15.186c.018-.054.037-.119.055-.183.614-1.86 1.256-3.84 1.934-5.847 2.007-5.921 4.362-12.135 7.185-16.59 1.75-6.137-1.017-16.765-2.74-21.952m-49.749 83.488c-.705.962-2.41 3.364-3.785 5.077-2.493 3.144-3.986 4.85-5.453 6.499 1.815-.367 5.811-3.557 10.045-8.717 3.556-4.967 6.297-10.32 6.297-13.866-1.256 2.584-6.407 10.035-7.104 11.007m54.285-117.743c-1.813 3.675-3.482 8.725-4.444 16.268-.54.216-1.256.413-2.026.326-2.291-.243-5.426-2.475-6.791-8.538a56.1 56.1 0 0 0 .449 3.286c2.291 8.107 6.59 10.618 9.476 10.618.9 0 1.724-.312 2.31-.646.293-16.869 4.656-23.697 7.9-28.71a15.21 15.21 0 0 0 1.173-2.19c-2.5 2.153-5.232 5.054-8.047 9.586M91.35 175.619c2.268 3.465 4.458 5.638 8.651 5.638s6.375-2.173 8.643-5.638c0 0-2.836 2.227-8.556 2.227-5.723 0-8.739-2.227-8.739-2.227" fill="#C8C7C7"/></g></svg>