<svg width="200" height="200" xmlns="http://www.w3.org/2000/svg"><g fill="none"><path d="M0 100.403c0 34.98 44.81 63.438 99.885 63.438 55.08 0 99.886-28.459 99.886-63.438 0-34.974-44.805-63.428-99.886-63.428C44.81 36.975 0 65.429 0 100.403" fill="#FFF"/><path d="M155.367 85.368c-2.69-2.67-9.72-6.879-9.72-6.879l-31.917 37.095-.162 16.757 12.208-1.353s1.674 6.244 2.744 12.641c-32.103 6.406-56.128-.237-56.128-.237l2.405-12.2 11.315 1.141v-17.158s-24.85-28.92-32.526-38.198c-4.803 2.043-9.952 5.99-9.952 5.99l-7.643-9.607C55.859 56.007 90.898 54.4 90.898 54.4s.493 6.165.856 13.273c-5.734.562-12.023 1.527-12.023 1.527l26.977 31.135 23.463-27.747-10.353-2.256s1.164-7.618 2.044-13.404c25.674 2.436 41.915 18.207 41.915 18.207s-5.08 6.247-8.41 10.233zm-55.481-43.07C47.72 42.298 5.44 68.31 5.44 100.404c0 32.098 42.28 58.114 94.446 58.114 52.159 0 94.445-26.016 94.445-58.114 0-32.093-42.286-58.106-94.445-58.106z" fill="#0E315F"/><path d="M119.818 70.332l10.353 2.256-23.463 27.747L79.731 69.2s6.289-.965 12.023-1.527c-.363-7.108-.856-13.272-.856-13.272S55.86 56.007 35.991 73.36l7.643 9.605s5.149-3.946 9.952-5.99c7.676 9.28 32.526 38.199 32.526 38.199v17.158l-11.315-1.142-2.405 12.2s24.025 6.644 56.128.238c-1.07-6.397-2.744-12.64-2.744-12.64l-12.208 1.352.162-16.757 31.917-37.095s7.03 4.21 9.72 6.879c3.33-3.986 8.41-10.233 8.41-10.233s-16.24-15.771-41.915-18.207c-.88 5.786-2.044 13.404-2.044 13.404" fill="#FFF"/></g></svg>