<svg xmlns="http://www.w3.org/2000/svg" height="236.17" viewBox="0 0 250 236.17107" width="250"><g transform="matrix(1.25 0 0 -1.25 -530.45 888.96)"><g transform="matrix(2.9169 0 0 2.9169 -1002.9 -1179.6)"><path d="m554.04 621.84c-2.087 3.029-5.757 5.429-5.757 5.429-0.338 1.305-0.792 4.171-1.987 6.205-1.372 2.336-3.268 5.124-5.885 7.022-1.64 1.189-3.895 2.51-8.345 3.468-2.463 0.53-5.895 0.866-7.88 0.825-0.863-0.018-2.285 0.11-3.025 0.304-2.824 0.743-4.081 2.912-4.081 2.912s0.12-1.232 0.782-2.333c0.483-0.804 0.918-1.248 0.918-1.248-0.737 0.046-9.832-1.521-16.771-6.708-8.706-6.507-12.459-15.876-12.459-15.876s0.93 2.135 3.686 3.258c1.746 0.711 3.173 0.479 3.173 0.479-0.406-0.912-3.862-8.284-2.901-18.307 1.217-12.689 7.436-20.019 7.436-20.019s-1.715 2.727-2.035 7.347c-0.263 3.779 0.765 4.97 0.765 4.97 2.41-4.142 3.562-5.826 8.334-9.309 5.543-4.109 12.758-4.506 12.758-4.506s-4.608 1.263-5.677 5.643c-0.961 3.934 0.932 5.934 0.932 5.934-0.043-0.067-0.16-1.829 0.515-2.926 0.872-1.416 1.757-2.223 4.022-2.282 3.907-0.101 6.619-1.2 8.773-2.586 3.922-2.523 5.219-5.756 5.219-5.756s1.977 4.264-3.274 11.425c0 0-7.198 9.669 0.116 12.105-1.063-0.513-1.924-2.758-1.612-4.081 1.01-4.268 7.496-8.874 6.267-14.296 0 0 3.777 4.305 0.713 8.65-1.963 2.784-4.836 5.583-4.951 6.758-0.104 1.073 0.841 1.719 1.462 2.025 0.152-0.557 0.546-1.032 2.041-0.741 4.675 0.91 10.756 2.795 14.449-1.014 3.55-3.66 0.495-9.346 0.495-9.346s5.131 3.433 6.766 10.442c1.801 7.726-1.29 13.677-2.982 16.133"/><path d="m538.83 635.42c-4.439 4.596-9.585 5.906-15.524 5.906-4.303 0-14.587-1.969-20.261-8.072 0.868-0.03 1.717-0.439 2.28-1.1 0 0-5.018-3.152-7.256-10.181-2.366-7.432-0.086-14.075-0.086-14.075 0.516 1.338 1.677 2.379 2.582 3.145 0.203-5.236 3.765-12.35 7.951-14.23-0.745 3.788-0.679 9.152 3.832 11.602 0 0 0.946-5.556 4.095-8.517 4.623-4.346 8.492-4.154 11.051-3.963 0 0-6.511 3.871-5.349 9.794 0.645 3.292 2.969 5.099 4.992 5.507l-0.739 0.092c1.941 0.485 4.144-0.893 4.558-2.85 0.335 1.733 0.4 3.575-0.353 5.391-0.753 1.815-2.84 2.926-6.067 2.41 2.323 2.312 4.86 2.385 6.506 1.973 0.842-0.211 4.561-1.518 6.303 1.548 1.095 1.926 1.186 4.703 3.292 5.389 1.485 0.485 2.867 1.321 2.894 1.641 0.228 2.719-2.806 6.628-4.701 8.59" fill="#a58629"/><path d="m57.168 20.291c-0.4648 0.03236-0.93117 0.1568-1.373 0.38086-0.7025 0.35625-1.2339 0.91195-1.5664 1.5645 0.82 0.63125 1.4829 1.197 1.9316 1.5508 0.865 0.6825 2.3724 1.873 3.8574 2.543 1.0112-1.0688 1.3014-2.6972 0.59766-4.0859-0.67125-1.3238-2.0529-2.0502-3.4473-1.9531zm-3.2695 2.9434c-0.13625 0.74125-0.04523 1.5289 0.32226 2.2539 0.89625 1.7662 3.0534 2.4724 4.8184 1.5762l0.29297-0.16797c-1.405-1.6975-3.2823-2.9846-5.4336-3.6621zm17.09 4.8047c-0.04875-0.0425-2.4778 0.63898-4.3828 2.6777-1.5625 1.6738-2.895 4.5493-4.3125 6.4043-2.0625 2.7012-3.9612 4.058-4.1699 3.1992 0.30625 1.2525 1.914 3.4738 5.209 5.1426 3.1562 1.5975 9.0871 1.1569 12.318 2.7969 3.37 1.7125 3.585 7.167 3.5938 7.2695 6.3375-10.502-3.6334-23.471-8.2559-27.49zm-15.996 13.029s1.5595 1.0961 1.9082 4.0273c0.3475 2.9312 1.803 4.0971 3.4355 3.9746 1.2062-0.09125 3.5388-0.66914 4.6875-0.86914 3.9662-0.69375 5.0781-0.2168 5.0781-0.2168-0.5275-0.34375-1.5743-0.81273-4.2168-0.80273-3.115 0.0125-4.603-0.83547-5.873-2.418-0.7275-0.90375-1.9595-3.6428-5.0195-3.6953z" transform="matrix(.8 0 0 -.8 489.55 648.01)" fill="#ffce00"/><path d="m544.32 622.56c-0.04 0.035-1.962-0.507-3.543-2.104 0.656 1.086 1.325 2.198 2.056 2.981 1.524 1.632 3.467 2.177 3.506 2.143 3.698-3.216 11.675-13.591 6.605-21.993-0.002 0.015-0.009 0.178-0.037 0.442 0.989 7.707-5.352 15.718-8.587 18.531" fill="#a58629"/><path d="m537.02 626.49c0.205 0.13 0.388 0.283 0.549 0.453 0.809 0.855 1.04 2.157 0.477 3.267-0.716 1.413-2.442 1.977-3.855 1.261-0.562-0.285-0.987-0.731-1.253-1.252-0.128-0.251-0.215-0.522-0.266-0.799 1.721-0.542 3.225-1.573 4.348-2.93" fill="#f9e66e"/><path d="m28.717 18.922s-2.8938 1.0048-5.0801 4.1035l-0.5625 1.168 0.90625 0.54883s2.4413-4.2528 4.7363-5.8203zm29.345 2.482c-0.31633 0.02199-0.63297 0.10531-0.93359 0.25781-1.2012 0.61-1.6823 2.0788-1.0723 3.2812 0.61 1.2012 2.0788 1.6823 3.2812 1.0723 1.2012-0.61 1.6823-2.0788 1.0723-3.2812-0.457-0.902-1.399-1.396-2.348-1.33zm-26.289 2.6562c-8.62 0.69875-15.27 8.0466-15.004 16.789 0.03375 1.1575 0.18992 2.282 0.45117 3.3633 0.47374-6.6269 3.7-12.522 8.5586-16.533l0.95312 3.5723c2.2488-1.6412 7.1504-2.5391 7.1504-2.5391-4.5112-0.36625-6.834 1.0312-6.834 1.0312l-0.13672-2.9414c1.4977-1.0915 3.1232-2.0218 4.8613-2.7422zm37.807 8.7773c-0.16408-0.02115-0.3207-0.01727-0.4668 0.01367-1.2275 0.475-2.1602 2.9824-2.1602 2.9824 0.9875-1.2875 3.1744-0.80391 5.0156 0.65234 2.0088 1.5888 3.6367 4.2246 3.6367 4.2246s-0.76227-2.644-2.3223-4.8965c-1.027-1.4809-2.5546-2.8285-3.7031-2.9766z" transform="matrix(.8 0 0 -.8 489.55 648.01)" fill="#323334"/><path d="m534.64 629.42c0.144-0.285 0.031-0.633-0.254-0.777-0.285-0.145-0.633-0.031-0.778 0.254-0.144 0.285-0.03 0.633 0.255 0.777 0.285 0.145 0.633 0.031 0.777-0.254" fill="#fff"/><path d="m39.951 9.3496c-0.98875 0-1.0879 1.334-1.0879 1.334 6.8988 0.72625 22.138 5.7921 27.836 15.475 0 0 0.18805 0.25781 0.4043 0.25781l0.22852-0.11524 0.1582-0.26758c-0.0075-0.54125-0.10734-1.1151-0.27734-1.7051l-1.7168-3.6426c-0.4425-0.70875-0.92688-1.4009-1.4219-2.0547l-11.617-7.1s-10.892-1.8142-12.182-2.1367c-0.1175-0.03-0.22547-0.044922-0.32422-0.044922zm6.7148 6.1309c-2.5212 0-1.873 1.3359-1.873 1.3359 0.7675 0 4.4376 0.80664 7.7051 3.9941 0.55375 0.54 1.1255 1.0351 1.6992 1.4863l0.03125-0.0625c0.33375-0.65125 0.86391-1.2082 1.5664-1.5645 0.52-0.26375 1.0741-0.38867 1.6191-0.38867 0.355 0 0.70547 0.05305 1.043 0.1543-4.2238-2.1625-9.8852-4.9024-11.566-4.9512l-0.22461-0.0039zm12.947 5.5527c0.4075 0.315 0.7525 0.72094 1 1.2109 0.2625 0.51875 0.38867 1.0695 0.38867 1.6133 0 0.5925-0.14633 1.1753-0.42383 1.6953 0.22875 0.03875 0.43523 0.05859 0.61523 0.05859l0.05859-0.002c1.6138-0.04 2.125-2.584 2.125-2.584s-1.5737-0.85594-3.7637-1.9922z" transform="matrix(.8 0 0 -.8 489.55 648.01)" fill="#86703d"/><path d="m538.01 627.57c-0.126 0.022-0.261 0.051-0.403 0.088 0.506 0.582 0.639 1.435 0.269 2.166-0.345 0.678-1.031 1.07-1.743 1.07-0.298 0-0.599-0.069-0.882-0.212-0.43-0.218-0.744-0.573-0.917-0.985l-0.215 0.041-0.261-0.062-0.127-0.087c-0.239 0.194-0.507 0.409-0.8 0.635 0.267 0.521 0.691 0.967 1.253 1.252 0.416 0.21 0.859 0.31 1.295 0.31 0.284 0 0.566-0.042 0.835-0.124 0.319-0.163 0.629-0.323 0.924-0.476 0.326-0.252 0.603-0.579 0.801-0.971 0.21-0.414 0.31-0.855 0.31-1.289 0-0.474-0.117-0.94-0.339-1.356" fill="#ffdd6a"/><path d="m537.61 627.66c-0.799 0.206-1.836 0.644-2.944 1.306 0.053 0.145 0.047 0.31-0.028 0.458-0.066 0.13-0.175 0.225-0.301 0.275 0.173 0.412 0.487 0.767 0.917 0.985 0.283 0.144 0.585 0.212 0.882 0.212 0.712 0 1.398-0.391 1.743-1.07 0.37-0.73 0.238-1.584-0.269-2.166" fill="#36373a"/><path d="m534.66 628.96c-0.311 0.186-0.628 0.39-0.947 0.611l0.015 0.014 0.127 0.087 0.261 0.062 0.215-0.041c0.126-0.05 0.235-0.145 0.301-0.275 0.075-0.148 0.08-0.313 0.028-0.458" fill="#b1aeb1"/><path d="m543.26 627.78s-0.807 3.224-4.491 5.767c0 0 2.641-2.604 1.28-4.322-1.36-1.719-4.553 0.805-5.872 1.847-1.319 1.041-4.958 4.351-8.538 4.265 0 0 3.313 1.992 10.056-0.129 0 0-6.444 4.395-13.57 4.898-4.66 0.329 7.088 2.762 16.242-3.953 5.592-4.103 5.938-9.322 4.893-8.373" fill="#ffce00"/><path d="m537.31 633.59c-0.644 0.518-1.271 0.909-1.969 1.18-0.691 0.268-1.387 0.497-2.248 0.524 2.474-1.042 4.58-2.368 5.934-4.697 0.39 1.526-1.104 3.628-2.235 4.093 0.208-0.336 0.437-0.634 0.518-1.1" fill="#323334"/></g></g></svg>
