<svg width="200" height="200" xmlns="http://www.w3.org/2000/svg" xmlns:xlink="http://www.w3.org/1999/xlink"><defs><path id="a" d="M.027.29h162.308v199.683H.027z"/></defs><g fill="none" fill-rule="evenodd"><g transform="translate(19)"><mask id="b" fill="#fff"><use xlink:href="#a"/></mask><path d="M49.357 200c-18.83 0-26.533-2.568-33.38-9.415C5.134 179.744 0 161.199 0 100.145c0-61.339 5.135-79.883 15.976-90.44C22.824 2.858 30.526.291 49.356.291h65.62c17.687 0 27.673 2.282 33.95 8.559 9.985 9.985 12.838 25.962 13.41 63.621h-44.223c-.57-24.535-1.426-30.527-3.708-32.809-1.712-1.712-4.28-2.283-12.268-2.283H64.192c-8.844 0-11.127.571-13.124 2.283-2.282 2.568-3.709 9.7-3.709 60.484 0 50.497 1.427 57.915 3.709 60.198 1.997 1.997 4.28 2.567 13.124 2.567h37.945c8.273 0 10.556-.856 12.268-2.567 2.282-2.283 2.853-6.848 3.708-34.807h44.222c-.57 39.086-3.139 55.347-13.41 65.333-6.562 6.847-16.547 9.13-34.235 9.13H49.357" fill="#BB2531" mask="url(#b)"/></g><path d="M164.57 79.686v6.849h4.437v17.915h-.548l-10.628-22.463c-.932-1.808-1.534-2.3-3.562-2.3h-29.716v6.848h4.493v16.71c0 5.314-.274 6.3-.931 6.958-.548.548-1.535.712-4.493.712h-2.52c-3.068 0-4.055-.164-4.602-.712-.603-.603-.987-1.699-.987-6.958v-16.71h4.493v-6.849h-17.587v.002h-7.637l-.172-.002H81.789c-2.904 0-4.711.658-5.862 1.808-1.753 1.753-2.465 4.493-2.465 9.369 0 5.205.493 7.451 1.972 8.985 1.205 1.15 2.794 1.699 5.424 1.973l11.231 1.205c1.534.164 2.301.328 2.63.657.493.493.548 1.205.548 3.123 0 2.301-.11 3.342-.493 3.78-.384.33-1.041.439-2.63.439H84.42c-1.644 0-2.192-.165-2.52-.493-.33-.33-.493-1.206-.603-4.986h-8.328c.055 6.849.603 9.204 2.192 10.793 1.315 1.26 3.177 1.698 6.41 1.698h13.806c3.069 0 4.822-.657 5.972-1.808 1.753-1.753 2.466-4.492 2.466-9.752 0-5.205-.603-7.56-2.082-9.04-1.15-1.15-2.685-1.643-5.315-1.917l-11.231-1.205c-1.698-.22-2.301-.274-2.63-.658-.493-.438-.548-1.15-.548-3.068 0-2.082.11-3.123.493-3.506.33-.33.877-.384 2.302-.384h7.122c1.534 0 2.027.11 2.356.438.383.384.548 1.206.657 4.658h8.273c-.036-2.203-.113-3.906-.257-5.26h3.957v15.833c0 9.095.713 11.396 2.795 13.478 1.698 1.698 4.054 2.191 9.04 2.191h6.849c4.985 0 7.396-.493 9.149-2.246 2.082-2.027 2.794-4.383 2.794-13.423V86.535h7.636v24.6h-4.601v6.902h17.039v-6.903h-4.602V91.465h.547l11.56 24.271c.877 1.808 1.48 2.301 3.562 2.301h8.163V86.535h4.492v-6.849H164.57" fill="#1A1919"/></g></svg>