<svg xmlns="http://www.w3.org/2000/svg" height="236.17" viewBox="0 0 250 236.171" width="250"><path d="M236.024 96.154c-7.61-11.044-20.99-19.795-20.99-19.795-1.233-4.758-2.888-15.208-7.245-22.624-5.003-8.518-11.916-18.683-21.458-25.603-5.98-4.336-14.202-9.152-30.427-12.645-8.98-1.933-21.494-3.158-28.731-3.008-3.147.065-8.332-.401-11.03-1.109C105.846 8.661 101.263.753 101.263.753s.438 4.492 2.852 8.506c1.76 2.932 3.347 4.55 3.347 4.55-2.687-.167-35.849 5.546-61.15 24.459C14.57 61.993.886 96.154.886 96.154s3.391-7.785 13.44-11.88c6.366-2.592 11.57-1.746 11.57-1.746-1.481 3.325-14.082 30.205-10.578 66.75 4.437 46.265 27.112 72.991 27.112 72.991s-6.253-9.943-7.42-26.788c-.958-13.778 2.79-18.12 2.79-18.12 8.787 15.101 12.987 21.241 30.387 33.94 20.21 14.983 46.517 16.43 46.517 16.43s-16.801-4.605-20.7-20.575c-3.503-14.344 3.4-21.636 3.4-21.636-.158.244-.584 6.669 1.877 10.669 3.18 5.163 6.406 8.105 14.665 8.32 14.245.368 24.133 4.376 31.987 9.43 14.3 9.198 19.03 20.986 19.03 20.986s7.208-15.547-11.938-41.657c0 0-26.245-35.254.423-44.136-3.876 1.87-7.015 10.056-5.878 14.88 3.683 15.561 27.331 32.355 22.85 52.125 0 0 13.772-15.697 2.6-31.54-7.157-10.15-17.633-20.356-18.052-24.64-.38-3.912 3.066-6.268 5.33-7.383.555 2.03 1.992 3.763 7.442 2.702 17.046-3.318 39.218-10.191 52.683 3.697 12.944 13.345 1.805 34.076 1.805 34.076s18.708-12.517 24.67-38.072c6.567-28.17-4.704-49.868-10.873-58.823"/><path d="M180.567 46.64c-16.186-16.758-34.949-21.535-56.603-21.535-15.69 0-53.186 7.18-73.874 29.432 3.165.11 6.26 1.6 8.313 4.01 0 0-18.296 11.493-26.456 37.122-8.627 27.098-.314 51.319-.314 51.319 1.882-4.879 6.115-8.674 9.415-11.467.74 19.091 13.727 45.03 28.99 51.884-2.716-13.811-2.476-33.37 13.972-42.302 0 0 3.45 20.258 14.93 31.054 16.857 15.846 30.964 15.146 40.294 14.45 0 0-23.74-14.115-19.503-35.71 2.352-12.004 10.825-18.592 18.201-20.08l-2.694-.335c7.077-1.769 15.11 3.256 16.619 10.391 1.221-6.319 1.458-13.035-1.287-19.656-2.746-6.618-10.355-10.669-22.121-8.787 8.47-8.43 17.72-8.696 23.722-7.194 3.07.77 16.63 5.535 22.981-5.644 3.993-7.023 4.324-17.148 12.003-19.65 5.415-1.768 10.454-4.816 10.552-5.983.831-9.913-10.231-24.166-17.14-31.32" fill="#a58629"/><path d="M167.639 59.921a10.444 10.444 0 0 0-4.005 1.111 10.37 10.37 0 0 0-4.57 4.564c2.393 1.841 4.326 3.491 5.635 4.523 2.523 1.991 6.92 5.464 11.252 7.418 2.95-3.118 3.796-7.867 1.743-11.918-1.958-3.862-5.988-5.98-10.055-5.697zm-9.537 8.586a10.332 10.332 0 0 0 .94 6.574c2.614 5.152 8.906 7.212 14.055 4.598l.854-.49a33.744 33.744 0 0 0-15.849-10.682zm49.85 14.015c-.142-.124-7.228 1.864-12.784 7.81-4.558 4.883-8.445 13.27-12.58 18.681-6.016 7.88-11.554 11.837-12.163 9.332.894 3.653 5.583 10.133 15.194 15 9.207 4.66 26.507 3.375 35.93 8.159 9.83 4.995 10.458 20.905 10.484 21.204 18.485-30.633-10.599-68.463-24.082-80.186zm-46.659 38.004s4.549 3.197 5.566 11.747c1.014 8.55 5.26 11.951 10.021 11.594 3.519-.266 10.322-1.952 13.673-2.535 11.57-2.024 14.812-.633 14.812-.633-1.538-1.002-4.592-2.37-12.3-2.341-9.086.036-13.426-2.437-17.13-7.053-2.123-2.636-5.716-10.626-14.642-10.78z" fill="#ffce00"/><path d="M200.584 93.528c-.146-.127-7.154 1.849-12.918 7.672 2.391-3.96 4.83-8.014 7.496-10.87 5.557-5.95 12.641-7.937 12.783-7.813 13.484 11.726 42.569 49.555 24.083 80.19-.007-.055-.033-.65-.135-1.612 3.606-28.1-19.514-57.31-31.31-67.567" fill="#a58629"/><path d="M173.967 79.2a10.5 10.5 0 0 0 2.002-1.653c2.95-3.117 3.792-7.864 1.739-11.911-2.61-5.152-8.904-7.209-14.056-4.598a10.391 10.391 0 0 0-4.568 4.565 10.66 10.66 0 0 0-.97 2.913 33.768 33.768 0 0 1 15.853 10.683" fill="#f9e66e"/><path d="M84.65 55.928s-8.44 2.931-14.818 11.97l-1.64 3.407 2.643 1.6S77.955 60.5 84.65 55.928zm85.597 7.24a7.122 7.122 0 0 0-5.851 10.323 7.122 7.122 0 0 0 9.57 3.128 7.12 7.12 0 0 0-3.721-13.45zm-76.683 7.748c-25.144 2.038-44.54 23.47-43.765 48.972a47.645 47.645 0 0 0 1.316 9.81c1.382-19.33 10.793-36.525 24.965-48.225l2.78 10.42c6.56-4.787 20.857-7.406 20.857-7.406-13.159-1.069-19.934 3.008-19.934 3.008l-.4-8.58c4.37-3.184 9.11-5.898 14.18-7.999zm110.28 25.602a4.058 4.058 0 0 0-1.362.04c-3.58 1.386-6.301 8.7-6.301 8.7 2.88-3.756 9.26-2.345 14.63 1.902 5.86 4.635 10.608 12.323 10.608 12.323s-2.224-7.712-6.774-14.283c-2.996-4.32-7.452-8.25-10.802-8.682z" fill="#323334"/><path d="M165.29 68.516a2.11 2.11 0 0 1-3.763 1.907 2.109 2.109 0 0 1 .93-2.833 2.104 2.104 0 0 1 2.832.926" fill="#fff"/><path d="M117.419 28.006c-2.885 0-3.174 3.892-3.174 3.892 20.123 2.118 64.575 16.895 81.195 45.139 0 0 .549.752 1.18.752l.666-.337.461-.78c-.021-1.579-.313-3.253-.809-4.974l-5.007-10.625a81.572 81.572 0 0 0-4.148-5.993l-33.885-20.71s-31.771-5.292-35.534-6.233a3.842 3.842 0 0 0-.946-.13zm19.586 17.884c-7.354 0-5.463 3.896-5.463 3.896 2.238 0 12.944 2.353 22.475 11.65a61.992 61.992 0 0 0 4.956 4.336l.091-.182c.974-1.9 2.52-3.524 4.57-4.564a10.418 10.418 0 0 1 4.722-1.133c1.035 0 2.058.154 3.042.45-12.32-6.308-28.834-14.3-33.737-14.443l-.655-.01zm37.765 16.196a10.34 10.34 0 0 1 2.917 3.532 10.396 10.396 0 0 1 1.134 4.706 10.51 10.51 0 0 1-1.237 4.945c.668.113 1.27.171 1.795.171l.17-.006c4.708-.116 6.2-7.537 6.2-7.537s-4.591-2.497-10.979-5.811z" fill="#86703d"/><path d="M177.577 75.261c-.46-.08-.952-.186-1.47-.32a7.128 7.128 0 0 0 .981-7.898 7.129 7.129 0 0 0-6.355-3.901 7.112 7.112 0 0 0-3.216.773 7.09 7.09 0 0 0-3.343 3.591l-.784-.15-.952.227-.463.317a148.72 148.72 0 0 0-2.917-2.315 10.41 10.41 0 0 1 4.569-4.565 10.457 10.457 0 0 1 7.766-.679c1.163.595 2.293 1.178 3.369 1.736a10.378 10.378 0 0 1 2.92 3.54 10.368 10.368 0 0 1 1.13 4.7c0 1.728-.426 3.428-1.235 4.944" fill="#ffdd6a"/><path d="M176.118 74.933c-2.913-.75-6.694-2.348-10.734-4.762a2.092 2.092 0 0 0-.102-1.67 2.097 2.097 0 0 0-1.098-1.002 7.09 7.09 0 0 1 3.344-3.592 7.076 7.076 0 0 1 3.216-.773 7.122 7.122 0 0 1 5.374 11.8" fill="#36373a"/><path d="M165.362 70.193a61.567 61.567 0 0 1-3.453-2.228l.055-.05.463-.318.952-.226.784.15a2.108 2.108 0 0 1 1.2 2.673" fill="#b1aeb1"/><path d="M196.719 74.496s-2.943-11.755-16.375-21.028c0 0 9.63 9.495 4.667 15.759-4.959 6.268-16.6-2.935-21.41-6.734-4.81-3.796-18.077-15.865-31.13-15.551 0 0 12.08-7.263 36.665.47 0 0-23.496-16.024-49.478-17.858-16.99-1.2 25.844-10.071 59.22 14.413 20.39 14.96 21.651 33.989 17.84 30.529" fill="#ffce00"/><path d="M175.024 53.312c-2.348-1.889-4.634-3.315-7.179-4.303-2.52-.977-5.057-1.812-8.196-1.91 9.02 3.799 16.699 8.634 21.636 17.126 1.422-5.564-4.026-13.229-8.15-14.924.76 1.225 1.594 2.312 1.89 4.01" fill="#323334"/></svg>