<svg width="200" height="200" xmlns="http://www.w3.org/2000/svg"><g fill="none" fill-rule="evenodd"><path fill="#171F3B" d="M172.107 64.662v12.785h4.802v40.469l-3.526 3.515h-14.438l-3.63-3.494v-38.67l-5.235-1.81 10.026-.01h.01V64.662h-24.23v12.785h4.802v47.123l10.735 10.713H180.8l10.734-10.787v-47.05h4.803V64.663h-24.231M14.407 64.662 3.672 75.47v49.09l10.735 10.724h31.22L56.35 124.55v-10.87H39.893v4.237l-3.526 3.515H22.389l-3.63-3.494v-38.67l-5.851-1.81 23.48-.01 3.505 3.62v5.744h16.458V75.449L45.616 64.662h-31.21M108.066 88.694l-3.62 3.588h-15.85V79.267l-5.59-1.81 21.44-.01 3.62 3.588v7.659Zm0 29.588v.01l-3.64 3.495h-15.83v-16.72h15.83l3.64 3.495v9.72Zm-38.888-53.62v12.785h4.331v45.051h-4.331v12.785h43.24l10.735-10.734v-20.193h-.01l-5.775-5.775 5.775-5.765h.01V75.46L112.41 64.662H69.178Z"/><path d="M58.192 88.642h-20.13V81.81l-2.448-2.522H20.59v37.874l2.542 2.438h12.482l2.448-2.448v-5.315h20.13v13.476L46.38 137.114H13.643l-11.802-11.79V74.715l11.802-11.885H46.38l11.812 11.864v13.947ZM12.879 61 0 73.953v52.134l12.88 12.858h34.263l12.88-12.88v-16.06H36.22v6.383l-1.37 1.381H23.864l-1.444-1.392V81.11l12.419.01 1.381 1.434v7.93h23.802V73.932L47.143 61H12.88ZM198.168 79.288h-4.802v45.972l-11.801 11.854h-30.906l-11.802-11.79V79.287h-4.802V62.831h27.893v16.457h-4.802v37.874l2.542 2.438h12.942l2.448-2.448V79.288h-4.802V62.831h27.892v16.457ZM168.445 61v20.12h4.792v35.279l-1.37 1.37H160.43l-1.444-1.392V81.12h4.791V61h-31.554v20.12h4.791v44.967l12.89 12.858h32.424l12.879-12.931V81.12H200V61h-31.555ZM104.394 87.166l-1.454 1.444H92.268v-7.49h10.672l1.454 1.454v4.592Zm-13.968-7.878v11.153h13.267l2.532-2.51v-6.132l-2.532-2.511H90.426Z" fill="#966E2F"/><path d="m124.984 93.58-5.022 5.001 5.022 5.012v21.72l-11.812 11.801H67.336v-16.457h4.342V79.288h-4.342V62.831h45.836l11.812 11.864V93.58ZM65.504 61v20.12h4.343v37.706h-4.342v20.12h48.43l12.88-12.88V102.84l-4.248-4.259 4.248-4.237V73.942L113.935 61h-48.43Z" fill="#966E2F"/><path d="m104.394 116.723-1.444 1.392H92.268v-9.386h10.682l1.444 1.392v6.602Zm-13.968-9.824v13.057h13.267l2.532-2.448v-8.16l-2.532-2.45H90.426Z" fill="#966E2F"/><path d="M123.153 92.816h-.01l-5.775 5.765 5.775 5.775h.01v20.193l-10.734 10.734H69.178v-12.785h4.331V77.447h-4.331V64.662h43.23l10.745 10.797v17.357ZM67.336 62.831v16.457h4.342v41.369h-4.342v16.457h45.836l11.812-11.801v-21.72l-5.022-5.012 5.022-5.001V74.695l-11.812-11.864H67.336Z" fill="#FFFFFE"/><path d="m106.225 117.508-2.532 2.448H90.426v-13.057h13.267l2.532 2.448v8.16Zm-17.63-12.44v16.719h15.83l3.641-3.495v-9.73l-3.64-3.494h-15.83ZM56.35 86.81H39.894v-5.743l-3.504-3.62-23.481.01 5.85 1.81v38.67l3.631 3.494h13.978l3.526-3.515v-4.237h16.458v10.87l-10.724 10.734h-31.22L3.672 124.56V75.47l10.735-10.807h31.209L56.351 75.45V86.81ZM13.644 62.832 1.841 74.716v50.607l11.802 11.791H46.38l11.812-11.801v-13.476h-20.13v5.315l-2.448 2.448H23.132l-2.542-2.438V79.288h15.024l2.448 2.522v6.832h20.13V74.695L46.38 62.831H13.643ZM106.225 87.93l-2.532 2.511H90.426V79.288h13.267l2.532 2.511v6.131Zm-23.22-10.473 5.59 1.81v13.015h15.851l3.62-3.588v-7.659l-3.62-3.588-21.44.01ZM196.338 77.447h-4.803v47.05l-10.734 10.786h-29.378l-10.735-10.713V77.447h-4.802V64.662h24.23v12.785h-.01l-10.026.01 5.235 1.81v38.67l3.63 3.494h14.438l3.526-3.515v-40.47h-4.802V64.663h24.23v12.785ZM170.276 62.83v16.457h4.802v37.864l-2.448 2.448h-12.942l-2.542-2.438V79.288h4.802V62.831h-27.893v16.457h4.802v46.035l11.802 11.791h30.906l11.801-11.854V79.288h4.802V62.831h-27.892Z" fill="#FFFFFE"/></g></svg>