<svg width="200" height="200" xmlns="http://www.w3.org/2000/svg"><g fill-rule="nonzero" fill="#15213B"><path d="M97.54 126.893c-.805 1.93-4.182 7.392-8.04 7.392-4.66 0-4.823-2.57-4.823-5.782 0-9.163 10.772-30.866 20.418-30.866 2.892 0 3.858 1.45 3.858 2.733 0 .485-5.95 12.697-11.412 26.523Zm90.982-77.155c.319 0 .485.643.485 1.12 0 4.504-14.79 32.47-29.579 52.568 4.98-30.06 26.522-53.688 29.094-53.688Zm-8.52 96.285c-9.646-2.895-20.418-7.878-21.379-27.328 17.52-20.734 40.348-59.155 40.348-74.586 0-4.018-.803-8.52-6.59-8.52-13.664 0-54.495 37.617-54.495 80.533 0 3.861.482 7.556 1.287 10.292-8.36 7.714-14.63 11.248-20.897 11.248-2.089 0-2.57-.803-2.57-4.499 0-5.302 15.91-38.254 15.91-40.347 0-3.056-1.284-3.86-3.696-3.86h-12.698c-.966 0-1.932.804-2.732 2.733-.485-.64-3.058-2.732-7.235-2.732-13.827 0-31.183 10.61-41.15 31.346-2.253 4.823-6.431 16.236-17.846 16.236-9.802 0-13.02-10.448-13.02-22.505 0-33.273 39.383-83.43 60.926-83.43 3.535 0 5.14 1.771 5.14 5.149 0 6.265-5.625 10.122-9.805 10.606-6.109.645-11.09 3.38-11.09 8.68 0 4.501 3.535 6.433 8.198 6.433 6.75 0 22.345-14.789 22.345-28.29 0-8.036-4.662-12.381-12.859-12.381C62.174 20.8 3.822 69.024 3.822 115c0 22.662 12.382 33.757 34.72 33.757 10.771 0 21.22-8.2 24.275-11.095.645 3.376 4.664 11.095 18.002 11.095 8.844 0 14.79-5.793 16.722-8.521.642 2.892 2.57 8.52 12.376 8.52 11.573 0 22.02-4.178 32.627-13.664 4.828 8.679 13.185 13.823 21.706 15.592 2.735.481 6.272 1.124 6.272 1.93 0 1.283-5.308 4.02-16.24 4.02-23.63 0-61.889-3.54-94.68-3.54C13.948 153.093-1 173.827-1 177.69c0 1.607 1.125 1.927 2.412 1.927 2.57 0 11.574-6.907 46.617-6.907 38.579 0 64.941 2.889 85.838 2.889 41.636 0 54.177-21.219 54.177-23.792 0-4.018-3.539-4.5-8.042-5.785ZM183.722 172.172a3.13 3.13 0 0 1-3.132-3.132 3.106 3.106 0 0 1 3.132-3.129 3.107 3.107 0 0 1 3.133 3.129 3.13 3.13 0 0 1-3.133 3.132Zm0-6.82a3.68 3.68 0 0 0-3.688 3.688 3.69 3.69 0 0 0 3.688 3.688 3.678 3.678 0 0 0 3.688-3.688 3.669 3.669 0 0 0-3.688-3.689Z"/><path d="M182.905 168.952v-1.493h1.13c.364 0 .765.295.765.764 0 .436-.401.73-.764.73h-1.131Zm2.504-.73c0-.782-.662-1.286-1.373-1.286h-1.722v4.23h.59v-1.672h.73l1.099 1.671h.73l-1.132-1.691c.242 0 1.078-.31 1.078-1.251Z"/></g></svg>