<svg width="200" height="200" xmlns="http://www.w3.org/2000/svg"><g fill="none"><path d="M23.736 148.725a69.982 69.982 0 0 0 4.769-4.186c9.036-8.799 19.559-23.218 26.287-45.816l-37.107-.036c-1.206 8.827-3.333 23.951 6.051 50.038" fill="#9B6E1E"/><path d="M14.183 70.691l45.185 7.474c1.205-7.804 1.978-16.337 2.196-25.66v-.046l-7.49-1.787c4.995 9.177.679 16.618-10.387 14.534L0 53.91l9.092 15.715 5.09 1.065" fill="#1C294D"/><path d="M72.034 44.107c.06.02.125.045.184.062 9.442 2.923 14.176 8.695 16.413 14.744l-19.914-4.749a401.407 401.407 0 0 1-.276 6.875l21.875 5.725c.33 3.986-.064 7.573-.467 9.931l-22.262-5.483c-.315 2.794-.69 5.503-1.117 8.127l27.784 4.595c.321-2.025.573-4.019.743-5.97l-.06-.015C96.525 59.064 90.449 44.3 73.44 40.834L45.162 34.4l1.794 3.107 25.078 6.6" fill="#1C294D"/><path d="M129.165 78.494a85.129 85.129 0 0 1-.946 6.795l-27.503-6.775a87.772 87.772 0 0 1-1.38 9.022l-.214.017-33.686-2.566c-4.89 24.287-14.453 40.818-23.894 51.516-.07.078-.139.159-.207.237-.25.281-.501.555-.751.828a94.107 94.107 0 0 1-1.075 1.16c-6.536 6.907-12.344 10.61-14.802 11.722-.04.02-.081.046-.12.067l.011-.017c-10.177-27.186-7.976-42.774-6.746-51.782l36.932.036a149.675 149.675 0 0 0 3.518-14.434L7.17 79.893c-4.592 27.589.566 51.712 12.72 70.326.596.873 3.926 5.663 5.046 6.608 19.689-7.896 43.72-36.154 49.211-58.054l4.961.005c-2.173 11.381-5.925 20.478-9.302 26.862-10.428 19.693-20.97 31.246-38.58 38.294l.994 1c20.744-7.308 38.575-22.672 49.309-43.884 3.736-7.382 6.811-14.87 9.094-22.162l27.95-.005c.005-.024.007-.047.011-.07h.001c.073-.484.5-3.73.571-4.467l32.034 3.342c.254-1.62.475-3.224.626-4.793l46.817 4.701.204-1.081-69.67-18.02" fill="#1C294D"/></g></svg>