<svg width="200" height="200" fill="none" xmlns="http://www.w3.org/2000/svg"><path d="m146.313 55.442 2.797 2.916c-7.975 5.635-13.351 6.607-16.01 6.607-3.769-5-9.8-7.975-16.148-7.975h-.199c-1.23 0-2.4-.318-3.432-.973-1.17-.714-2.261-1.487-3.432-2.202-9.423-6.09-17.537-11.347-24.738-10.772-7.4.575-11.744 4.027-15.633 7.003-.397.318-.773.575-1.17.913-1.885 1.488-3.888 3.114-6.09 4.205-4.206 2.143-8.888 4.603-11.745 7.777-4.285-1.29-11.149-2.34-21.009-1.23-9.86 1.111-15.374-2.46-17.18-11.15-.198-.912-.912-1.547-1.825-1.745-.912-.139-1.746.258-2.261 1.032-2.004 3.372-3.115 6.606-3.373 9.661a6.88 6.88 0 0 1-1.547-.655 2.293 2.293 0 0 0-1.945-.139c-.912.397-1.428 1.37-1.368 2.341.773 6.23 3.511 10.892 7.915 13.61 4.742 2.916 11.09 3.174 17.954.714 6.546-2.4 12.062-1.944 16.01-.834a121.069 121.069 0 0 0-5.119 9.086c-3.174 6.09-10.633 12.003-14.78 14.463-2.082 1.23-3.57 3.114-4.344 5.316-2.46 7.598-7.32 19.462-12.835 27.834-1.37 2.083-1.826 4.483-1.23 6.864.714 2.975 1.289 5.713 1.745 7.975a6.75 6.75 0 0 0 2.798 4.086l3.57 2.341c1.488.972 3.373 1.369 5.119.972 1.745-.396 3.233-1.428 4.146-2.975l2.976-4.92a6.324 6.324 0 0 0 .139-6.17l-1.687-3.174a.605.605 0 0 1 0-.456l8.174-21.069a5.206 5.206 0 0 1 1.884-2.261c2.52-1.825 6.864-4.484 13.094-6.547 2.261-.774 3.947-1.29 5.515-1.746.912-.258 1.825-.575 2.797-.833 3.63 3.373 7.26 8.888 9.463 14.264a10.954 10.954 0 0 0 4.404 5.118c.913.575 2.262 1.428 3.829 2.401 1.11.714 2.261 1.428 3.432 2.202-4.087 3.828-8.293 6.169-8.431 6.229-2.917 1.686-4.286 5.118-3.314 8.292.913 2.917 1.37 7.142 1.429 7.975.198 1.429.972 2.718 2.202 3.512l3.829 2.519c.654.456 1.428.774 2.202.972 2.718.655 5.515-.456 7.003-2.658l3.114-4.543c1.111-1.627 1.111-3.769 0-5.456-.654-.972-1.428-2.341-2.083-3.511a470.836 470.836 0 0 1 6.428-5.833 500.347 500.347 0 0 1 5.833 3.631 9.744 9.744 0 0 0 7.855 1.031l9.543-2.856a4.554 4.554 0 0 0 2.975-2.976 4.308 4.308 0 0 0-.912-4.027l-3.373-3.769a6.082 6.082 0 0 0-4.543-2.004h-2.261l3.432-2.52c1.369-.972 2.202-2.519 2.341-4.205 0-.199.139-.397.258-.516 1.289-1.032 3.432-2.976 5.971-5.198 1.746-1.547 3.63-3.233 5.515-4.86 6.686 2.916 13.093 5.118 16.406 6.229a27.71 27.71 0 0 1 5.377 2.52c5.316 3.372 15.176 9.601 20.235 12.835 2.976 1.885 6.606 2.4 10.058 1.428l9.542-2.916c1.428-.456 2.52-1.547 2.916-3.055.397-1.428 0-2.916-1.031-4.027l-2.917-2.341c-1.368-1.369-3.114-2.262-5.058-2.46-1.111-.139-2.976-.198-5.714-.139-.575 0-1.17-.139-1.686-.397-3.432-2.003-9.979-5.892-15.434-9.859-.397-1.548-1.29-2.976-2.599-4.087l-3.174-2.599c-1.548-1.29-3.512-1.944-5.575-1.944-.317 0-.714-.139-1.111-.317a6.572 6.572 0 0 0-.912-.576c3.233-2.34 6.427-5.059 9.72-8.114 5.635-5.376 10.059-9.145 13.352-11.486 3.888.575 9.463.516 15.751-2.202l3.571 1.547c3.055 1.29 6.686 1.032 9.463-.654l1.032-.655h1.686c1.627 0 3.234-.576 4.345-1.746 1.428-1.428 2.083-3.511 1.626-5.456-.456-1.944-.456-2.083-.456-2.202-.198-.714-.258-1.487-.258-2.142.258-9.344-13.49-10.435-18.926-10.693-4.92-4.087-12.835-6.864-19.917-2.004 0 0-6.686-1.368-13.887 4.92a1.042 1.042 0 0 0-.099 1.488Zm-66.796 56.54c-.575-1.369-2.083-5.516-2.658-11.289 5.773 2.203 11.486 3.631 16.981 4.405-.317.912-.575 1.825-1.11 2.717-2.401 1.171-5.774 3.631-8.551 7.321a62.07 62.07 0 0 1-4.662-3.154Z" fill="#fff"/><path d="M197.276 61.73c.139-5.316-5.634-8.173-17.775-8.828-1.369-1.23-10.118-8.372-18.668-1.885 0 0-5.773-1.487-12.003 3.433-.198.138-.198.456-.059.654l3.234 3.373c-9.543 7.201-16.01 8.292-19.065 8.292-.516 0-.913-.198-1.171-.575-3.372-4.662-8.887-7.4-14.779-7.4h-.198c-1.627 0-3.175-.397-4.484-1.23-1.17-.714-2.341-1.488-3.432-2.202-9.145-5.892-16.982-11.03-23.608-10.514-6.804.516-10.772 3.63-14.58 6.606-.398.317-.775.575-1.171.913-2.004 1.547-4.027 3.174-6.428 4.404-4.483 2.261-9.463 4.92-12.002 8.292-3.63-1.23-10.634-2.797-21.465-1.547-10.892 1.23-17.18-2.917-19.263-12.637 0-.14-.14-.199-.258-.258a.4.4 0 0 0-.318.139c-2.32 3.888-3.352 7.518-3.094 10.89-.715 0-2.4-.138-4.345-1.17-.139-.06-.258-.06-.317 0a.523.523 0 0 0-.14.318c.715 5.634 3.115 9.86 7.063 12.26 4.206 2.599 10.058 2.797 16.268.516 8.49-3.055 15.295-1.746 19.58-.06-1.825 2.599-3.888 6.23-6.348 10.951-3.373 6.487-11.15 12.637-15.573 15.176-1.687.972-2.917 2.46-3.432 4.285-2.52 7.718-7.46 19.72-13.034 28.27-1.032 1.627-1.429 3.512-.972 5.376.714 3.055 1.29 5.714 1.746 7.975a4.54 4.54 0 0 0 2.003 2.857l3.571 2.341c1.032.714 2.4.972 3.63.655 1.23-.258 2.262-1.032 2.917-2.083l2.976-4.92a4.444 4.444 0 0 0 .138-4.285l-1.686-3.175c-.317-.654-.397-1.368-.139-2.003l8.213-21.148c.516-1.23 1.429-2.341 2.52-3.115 2.658-1.884 7.142-4.602 13.55-6.804 2.34-.774 3.947-1.29 5.574-1.825 1.23-.397 2.4-.714 3.77-1.171 4.086 3.512 8.292 9.602 10.771 15.692.715 1.746 1.945 3.234 3.631 4.206.972.576 2.34 1.429 3.888 2.401 1.686 1.111 3.63 2.261 5.515 3.432-4.741 4.999-10.435 8.173-10.514 8.173-2.142 1.23-3.174 3.769-2.46 6.09.972 3.056 1.428 7.4 1.488 8.293a3.343 3.343 0 0 0 1.369 2.202l3.888 2.599c.774.516 1.746.774 2.659.774a4.79 4.79 0 0 0 3.888-2.004l3.114-4.543c.715-.972.655-2.341 0-3.313-.773-1.171-1.686-2.718-2.4-3.948-.317-.575-.198-1.23.258-1.686 1.746-1.627 4.662-4.285 7.777-7.142 2.46 1.488 4.74 2.916 7.062 4.345a7.628 7.628 0 0 0 6.289.833l9.542-2.857c.833-.258 1.428-.833 1.686-1.686.199-.774 0-1.627-.516-2.202l-3.372-3.77a4.122 4.122 0 0 0-3.115-1.428l-5.574-.059c-.913 0-1.746-.258-2.52-.715-.198-.139-.456-.258-.714-.456a2.795 2.795 0 0 1 1.746-.575c.912 0 1.825-.318 2.519-.833l4.603-3.433a3.718 3.718 0 0 0 1.547-2.856c.06-.714.456-1.369.972-1.825 1.23-.972 3.373-2.917 5.892-5.119a229.956 229.956 0 0 1 6.428-5.634c7.003 3.115 13.807 5.515 17.378 6.686 2.083.654 4.028 1.627 5.833 2.718a3593.153 3593.153 0 0 1 20.235 12.835c2.46 1.547 5.575 2.083 8.491 1.23l9.542-2.916c.833-.258 1.428-.913 1.686-1.686.199-.774 0-1.627-.575-2.203l-2.857-2.261c-1.031-1.111-2.4-1.825-3.948-1.944-1.031-.139-2.856-.199-5.455-.139-.972.059-1.885-.199-2.718-.655-3.63-2.142-10.574-6.229-16.208-10.375-.198-1.429-.913-2.797-2.083-3.69l-3.174-2.599c-1.171-.972-2.718-1.488-4.285-1.488a3.772 3.772 0 0 1-2.143-.655c-.833-.575-2.003-1.29-3.313-2.083 4.484-3.055 8.432-6.348 11.864-9.601 6.288-5.972 10.891-9.8 14.204-12.122 3.63.655 9.542.834 16.208-2.34l4.344 1.884c2.46 1.111 5.456.913 7.718-.516l1.487-.972h2.401c2.599 0 4.483-2.4 3.948-4.92-.258-1.17-.457-2.003-.457-2.083-.357-.456-.476-1.369-.416-2.202ZM95.922 104.66c-.457 1.548-.913 2.976-1.885 4.662-2.143.913-6.23 3.631-9.404 8.432-3.174-2.004-5.455-3.571-6.685-4.543-.397-.913-2.916-6.864-3.234-15.375 7.4 3.055 14.66 4.999 21.604 5.714-.138.396-.277.714-.396 1.11Z" fill="#000"/><path d="M78.545 53.558c3.571.972 10.118 2.34 15.692 1.29.457-.06.834-.457.972-.973.14-.575.14-1.17.14-1.686-3.69-1.944-7.004-3.174-9.603-2.976-3.233.258-5.713 1.23-7.974 2.659l.138.972c-.02.317.238.575.635.714ZM71.281 118.211c2.203 1.369 5.892 3.63 9.86 6.031.913-1.23 1.686-2.401 2.341-3.313-2.916-1.885-5.832-3.889-8.292-5.773 0 0-1.746-11.923-11.745-15.236 0 0 .516 5.713 5.198 15.375a7.024 7.024 0 0 0 2.638 2.916ZM98.384 128.846c-1.23.059-2.46-.258-3.512-.833a68.02 68.02 0 0 1-2.658-1.548l-3.095 2.837c1.944 1.23 3.77 2.341 5.118 3.234 1.687 1.111 3.83 1.369 5.773.833l4.345-1.23.913-2.658c-.397-.258-.834-.457-1.369-.516-.972-.179-2.797-.258-5.515-.119ZM169.979 119.758c-1.547.059-3.174-.318-4.483-1.111-3.571-2.083-10.951-6.488-16.922-10.892-.516-.396-.833-.912-.833-1.488 0-.773-.397-1.547-.972-2.083l-3.175-2.598a3.346 3.346 0 0 0-2.658-.655c-.972.258-2.519.059-3.432-.397-2.202-1.11-4.92-2.34-7.261-3.372.139 2.202 1.23 7.26 8.372 9.661 2.976.833 5.456 2.4 5.456 2.4 4.602 2.917 15.632 9.801 21.266 13.431 1.687 1.111 3.77 1.369 5.773.833l5.059-1.428.516-1.429a2.962 2.962 0 0 0-1.686-.714c-.992-.158-2.619-.218-5.02-.158ZM72.572 79.17c-1.488-.258-2.916-.516-4.027-.715a4.489 4.489 0 0 1-.774 1.746c-.456.516-.972.834-1.547 1.111-1.429 4.087-5.258 5.198-7.261 5.198-.516 0-1.032-.258-1.369-.655-1.111-1.369-2.976-2.718-3.63-3.174a1.743 1.743 0 0 1-.774-1.23c-.06-.516.06-.972.397-1.369.138-.139 2.52-3.055 7.32-2.658h.575c.199-1.627 1.548-2.976 3.313-3.115h.576c4.205-4.8 5.455-12.061 5.634-17.517-1.746 1.29-3.63 2.599-5.972 3.77-5.257 2.658-9.462 5.316-11.863 9.403-2.34-1.29-10.316-4.92-23.469-3.175-15.87 2.064-19.441-8.113-19.441-8.113s-1.17 4.404 2.202 7.578c-1.17.198-2.659.258-4.087-.258 0 0 3.63 7.4 12.578 4.8 9.86-2.915 20.493-3.828 30.015 1.628-2.797 2.34-4.8 7.062-9.542 14.66-4.345 7.063-13.173 13.887-16.208 15.95-1.111.774-1.944 1.825-2.4 3.055-5.357 14.582-11.07 25.017-12.955 28.27-.456.833-.575 1.825-.258 2.718a35.66 35.66 0 0 1 1.547 5.317c.258 1.17.973 2.142 1.945 2.797l1.11.714 1.17-2.262 1.886 1.746 1.487-2.202a107.447 107.447 0 0 1-3.174-5.713c-.258-.576-.317-1.23-.06-1.825 4.028-10.634 7.58-19.125 9.543-23.608.972-2.262 2.599-4.206 4.741-5.634 4.742-3.174 10.574-6.17 17.696-8.432 19.045-6.17 23.905-14.918 25.076-18.806Zm-20.81-.972s.515-10.177 11.664-7.658c-.059-.06-5.435.972-11.665 7.658Z" fill="#FF4713"/><path d="M187.931 67.047c-1.032.575-2.401.913-3.948.913-2.202 0-4.027-1.171-4.027-2.6 0-1.428 1.825-2.598 4.027-2.598 3.432 0 5.971 2.4 5.971 2.4h3.948c-1.627-4.741-9.721-5.634-9.721-5.634 3.373-.654 6.229.199 8.372 1.23.456-.06.833-.139 1.17-.258 0 0-.575-4.483-15.573-4.602 0 0-9.006-8.431-16.208-1.37 0 0-3.233-2.003-7.578.2 0 0 .913.971 1.686 1.824.516.516 1.29.774 2.083.715l1.945-.199c-12.518 10.892-21.208 14.066-27.04 14.066h-.199a5.562 5.562 0 0 1-4.602-2.4 13.82 13.82 0 0 0-11.149-5.635h-.258c-2.46 0-4.86-.655-6.864-1.944-2.797-1.825-5.575-3.63-8.293-5.317.397 12.459-3.888 20.096-6.427 23.47 0 .059.06.059.06.059a3.59 3.59 0 0 1 .515 2.717 3.968 3.968 0 0 1-.833 1.687c.774 4.205-1.488 6.804-2.976 7.578-.198.06-.397.139-.516.198-.456.06-.972.14-1.428.14-2.916 0-5.515-1.37-5.634-1.43-.655-.396-1.032-1.11-.913-1.884.06-.317.774-3.432 5.06-5.376a1.5 1.5 0 0 0 .396-.258c-.139-.317-.199-.655-.258-.972-4.285-.655-10.435-1.686-15.295-2.52 2.916 8.888 11.664 15.375 21.921 15.375 1.428 0 2.797-.139 4.146-.317.714-3.313 2.857-9.007 9.463-10.891 0 0-4.999 4.146-7.062 16.981-.774 4.742-2.083 8.233-4.484 11.745-1.547.317-4.404 1.428-7.142 4.662-3.769 4.602-11.09 15.751-19.917 20.949-.913.516-1.37 1.547-1.032 2.519.655 2.004 1.032 4.087 1.29 5.515a4.253 4.253 0 0 0 2.003 2.917l1.17.773 1.032-2.003 1.825 1.686 1.627-2.46c-.912-1.428-1.885-3.313-2.718-4.86-.714-1.369-.397-2.976.714-4.087 4.206-4.027 11.407-10.832 17.776-16.149.575-.515 1.686-.912 2.52-.833.713.06 1.428-.198 1.943-.575l3.234-2.46c.774-.575 1.23-1.428 1.17-2.4 0-.715.258-1.429.715-2.004 2.975-3.174 13.609-14.978 20.235-25.235 0 0 1.17 5.833 8.173 2.004 4.741-2.857 8.888-6.09 12.379-9.264 7.321-6.607 12.121-9.98 15.177-11.407-.397-.774-.655-1.687-.318-2.857 0 0 6.864 6.547 17.835.516l7.32 2.975c1.29.516 2.797.457 4.027-.198l1.23-.655a4.239 4.239 0 0 1 2.004-.516h1.488c1.111 0 1.944-.714 1.944-1.626l-7.181-.02Zm-62.511 17.24c-.258-8.55-7.063-10.574-7.063-10.574 12.717.912 7.063 10.574 7.063 10.574Zm47.87-27.04c-.456.972-1.686 1.686-3.115 1.686-1.825 0-3.313-1.17-3.372-2.599h-2.262s1.686-2.857 6.031-1.23c3.055 1.111 4.484 1.111 5.118.972-.277.516-.912 1.37-2.4 1.17Z" fill="#FF4713"/><path d="M183.978 64.19c-.912 0-1.626.259-2.003.576l3.233.833h-3.432c.318.457 1.171.834 2.202.834 1.29 0 2.341-.199 3.056-.655l.396-.258h.655c-.794-.496-2.361-1.33-4.107-1.33ZM170.173 57.903c.198 0 .456 0 .654-.06-.575-.317-.972-.833-1.031-1.428h-1.825c.178.833 1.15 1.488 2.202 1.488ZM98.321 50.384l-1.686-1.11c.655.575.972 2.34.774 4.602 0 .258-.06.575-.14.833-.257 1.111-1.229 1.944-2.34 2.202-7.201 1.29-14.581-.575-18.291-1.746-.714-.258-1.23-.833-1.29-1.626l-.257-2.262c-.14-1.17.317-1.885.317-1.885s-.714.457-1.746 1.23a2.188 2.188 0 0 0-.833 1.945c.913 10.316-2.46 17.695-4.741 21.405-.258.397 0 .972.456 1.032a448.883 448.883 0 0 0 20.493 3.055c1.29.139 2.658-.397 3.432-1.428 7.063-8.948 7.063-20.236 6.686-24.779.079-.575-.318-1.15-.834-1.468ZM64.735 76.194c-.576.06-1.111.515-1.37 1.11-.138.397-.138.834.06 1.23v.14c0 .059-.06.059-.139.059-.714.198-1.626.258-2.717.198-3.234-.317-5.198 1.23-5.634 1.687.714.515 1.686.714 2.519.396l1.746-.575c.06 0 .139 0 .198.06.06.059.06.138 0 .198l-1.428 1.746c.397.258.833.317 1.29.198l1.289-.397h.06c.059 0 .059 0 .138.06.06.06.06.139 0 .198 0 .06-.516 1.111-1.428 1.746 1.369-.06 4.344-.655 5.257-4.404 0-.06.139-.139.198-.139.397.06.715 0 1.111-.198.457-.258.774-.715.834-1.17.06-.517-.06-1.112-.457-1.489-.436-.535-1.011-.734-1.527-.654ZM92.804 79.825a1.74 1.74 0 0 0-1.488.258c-.516.397-.714.972-.654 1.627.06.456.257.773.654 1.031.06 0 .06.06.06.139 0 .06 0 .06-.06.139-.516.516-1.29 1.031-2.34 1.428-2.976 1.23-3.948 3.512-4.147 4.147.972.059 1.944-.397 2.658-1.111l.973-1.111c.059-.06.138-.06.198 0s.06.138.06.198l-.973 3.373c.457-.199 1.23-1.032 1.548-1.429.06-.139.198-.198.198-.258l.913-.972c0-.06.06-.06.139-.06h.06c.059 0 .138.06.138.14 0 .059 0 1.487-.516 2.519 1.17-.833 3.63-2.976 2.599-6.745 0-.06 0-.198.139-.198.317-.14.655-.397.833-.715.258-.456.317-.972.198-1.428-.277-.397-.674-.793-1.19-.972Z" fill="#fff"/><path d="M87.886 73.534c1.032-2.262 1.746-4.404 1.746-4.404l-5-.317c-.317.912-.833 2.261-.833 2.261-.773.258-1.547.576-2.261.833-.198.06-.317.06-.317 0-.397-.317-.834-.654-1.23-.972 1.031-2.599 1.745-5.257 2.083-7.915.654-.258 1.23-.576 1.884-.833.14-.06.258-.06.318 0 .575.317 1.11.714 1.626 1.031 0 0-.198 1.627-.396 2.4l4.999.318c.317-1.627.575-4.285.575-4.285s-3.372-2.143-4.206-2.658c-1.487-.913-3.51-1.032-4.999-.318-.773.397-4.662 2.083-4.662 2.083s-.258 5.773-3.174 11.665c0 0 3.115 2.341 3.69 2.797.655.516 1.547.774 2.599.774.773 0 1.547-.139 2.4-.456.02.06 4.305-1.686 5.158-2.004Z" fill="#000"/><path d="M81.002 62.248s-.317 4.285-2.46 9.086c0 0 1.429 1.031 1.945 1.488.317.257.912.317 1.368.138l2.718-1.031s.576-1.369.774-1.944l2.718.198a44.876 44.876 0 0 1-1.032 2.52c-.714.257-3.77 1.626-4.741 1.944-1.548.515-3.115.456-3.889-.199-.575-.456-2.658-2.003-2.975-2.261 1.547-3.512 2.52-7.003 2.856-10.574.516-.258 3.313-1.428 4.087-1.825 1.17-.576 2.718-.456 3.948.258.833.456 1.547.972 2.34 1.428.457.258.834.575 1.29.833-.06.833-.198 1.686-.317 2.52l-2.797-.199c.06-.516.258-1.884.258-1.884s-1.548-1.032-2.262-1.429c-.397-.258-.972-.258-1.369-.06-.714.219-2.46.993-2.46.993Z" fill="#FF4713"/><path d="M177.044 135.072v-3.174h-1.369v-.773h3.571v.773h-1.369v3.174h-.833Zm2.658 0v-3.947h1.23l.913 2.856h.059l.913-2.856h1.23v3.947h-.834v-2.856h-.059l-.913 2.856h-.773l-.913-2.916h-.059v2.916h-.794Z" fill="#fff"/></svg>