<svg width="200" height="200" xmlns="http://www.w3.org/2000/svg"><g fill="none"><path d="M199.75 74.547c-.014-.056-.095-.16-.2-.28.117-.374.127-.85 0-1.46.406-.478.554-1.192.24-2.357-.314-1.166-1.685-2.777-2.147-3.298l.028.011a.797.797 0 0 0-.065-.088l.039.036s.626-.892.545-1.391c-.067-.41-.969-.773-1.283-.887-.132-.374-.312-.742-.562-1.032-.477-.55-1.788-1.644-2.586-1.972-.8-.328-1.714-.936-4.468-1.557-3.172-.715-8.748-.797-11.063-.799-.09-.149-.815-1.33-1.923-2.349-.595-.547-1.454-1.123-2.074-1.319a5.058 5.058 0 0 0-.421-.113l.005-.005c.278-.469-.237-1.825-1.148-2.286.592.715.34 1.45.148 1.887-.146-.591-.456-1.515-1.18-2.294-.5-.538-.789-.783-1.153-1.042.347.419.27.675.489 1.144.302.509-.4.76-.167 1.265-.493-.916-.695-1.872-2.237-2.551-1.215-.26-1.815-.37-2.867-.464.988.33 2.063.837 2.51 1.318.117.22.846 1.239.791 1.24-.89-.957-2.438-1.301-4.294-1.415.901.34 1.599.703 1.99 1.062.224.206.148.422.17.659-.144-.355-.501-.459-1.364-.449-.442.006-1.016-.033-1.761.093 1.924.239 1.813.96 1.97 1.232-.455-.129-.676-.558-1.16-.527-.635.044-1.07.205-1.645.415.476.003.891.003 1.253.12.405.227.41.561.543.76-.264-.139-.457-.374-.93-.384-.56.07-.85.089-1.362.302 1.53-.071 1.089.868 1.604.95.003.002-.049.046-.124.032-.152-.028-.307-.35-.702-.41-.39-.062-1.016.135-1.298.333.345-.086.84.007 1.052.219.16.16.201.4.181.764l-.207.193c-.876-1.084-2.534-1.941-5.614-.616-.372.162-1.63 1.293-1.63 1.293s.142.746.344 1.46c-.353.297-.656.571-.656.571s.279 1.056.54 1.857c.151.465.588 1.033 1.212 1.32.126.057.271.091.426.11-12.155 10.075-19.326 14.49-25.301 14.43-3.134-.031-6.011-1.549-7.705-3.765-1.62-2.118-2.876-3.588-4.823-4.691-1.89-1.27-5.135-1.285-5.41-1.303-1.953-.13-2.906-.294-6.352-2.02-3.034-1.52-5.53-2.9-7.441-4.417a18.112 18.112 0 0 0-.052-.863c-.068-.499-.57-1.14-1.027-1.76-.45-.612-.65-1.563-1.58-1.628-.267-.02-.665.291-.891.49a16.01 16.01 0 0 0-.564-.58c-.056-.605-.223-1.505-.712-1.996 0 0 .242.886.1 1.446a2.602 2.602 0 0 0-.078-.068c-.125-.533-.525-2.088-1.12-2.791 0 0 .08.974-.262 1.59 0 0-.16-1.947-1.664-3.523 0 0 .411 1.796-.352 2.056 0 0-.404-3.302-2.032-4.802 0 0 .998 2.778-.317 3.475 0 0-.221-1.289-.827-2.285 0 0 .297 2.019-.412 2.142 0 0 .088-3.684-2.752-4.824 0 0 1.515 2.507.27 4.049 0 0-.128-3.913-2.772-5.852 0 0 1.809 4.493.401 5.655 0 0-.148-4.172-3.043-5.176 0 0 2.292 3.211-.215 5.314 0 0 .505-1.806-1.301-3.096 0 0 .966 2.209-1.15 3.495 0 0 1.571-3.137-2.427-4.834 0 0 1.92 1.28.355 4.89 0 0-.145-1.36-2.644-2.33 0 0 1.76 2.91.748 4.106 0 0-1.318-1.706-2.552-1.603 0 0 1.239.812.918 2.648-.14-.124-.32-.26-.59-.303-.49-.077-1.357-.214-1.713.036.435-.108 1.135.395 1.404.662.182.183.243.447.235.835l-.214.192c-.006-.004-.008-.008-.016-.009-.118-.023-.239-.272-.546-.32-.303-.047-.79.105-1.01.26.268-.067.653.005.819.17.1.101.141.243.145.445l-.167.15c-.175-.224-.623-.651-1.333-.35-.693.294-.75 1.156-1.402 1.678-.651.522-1.498.945-1.661 1.694-.032.146.001.439.069.858a153.154 153.154 0 0 1-8.768 7.195c-2.41 1.48-5.373 3.358-8.515 5.775-.506.338-1.06.729-1.624 1.144-2.752-1.121-9.296-3.399-13.75-2.988-8.717.808-14.575 2.404-19.565-1.349-.793-.597-1.131-1.24-1.309-1.561 0 0-.763.796-.593 1.854-2.865-.218-6.803-6.113-7.31-7.362-.057-.87-.04-1.813.11-2.816 0 0-2.178 2.276-2.096 5.988.037 1.651.485 2.991.94 3.842a19.08 19.08 0 0 1-1.215-1.442c-.685-.927-1.625-2.708-1.745-3.421 0 0-.48 6.119 4.508 9.78 1.722 1.265 3.31 1.881 4.597 2.167-3.06.2-5.134-.564-5.134-.564s3.32 2.602 7.646 2.44c1.91-.073 3.643-1.169 5.278-1.762 3.164-1.149 9.523-2.216 16.443-1.166 3.97.604 6.772 1.788 8.174 2.494-.622.8-1.343 2.028-1.566 2.514-3.307 7.211-5.87 15.665-7.255 17.805-.717 1.109-3.561 3.747-5.409 5.539-4.366 4.235-8.243 8.374-10.1 8.96-2.16.682-2.238 1.194-2.786 3.226 0 0-.688 3.147-1.761 5.996-1.066 2.83-8.382 18.8-8.484 19.022-1.146.415-2.539 1.128-3.098 2.254-.554 1.116-.162 3.137-.369 4.097-.22 1.028-.549 1.673-1.232 2.373-.578.59-1.222 1.937.722 4.053.48.523.785 1.196 1.002 1.907.132.628.406 2.024.79 4.48.162 1.043.293 1.514 4.398 1.434 1.173-.024 1.5-.391 1.5-.391l.006-.05c.263.11.617.25.816.277 1.582.226 3.348.024 3.592-.367.304-.487.416-1.833.115-2.932-.352-1.285-2.336-3.897-2.803-4.749-.34-.619-.326-1.987-.618-3.96-.179-1.21.328-2.56.64-3.86.302-1.25.833-2.494 1.293-3.749.472-.836.923-1.76 1.278-2.742.54-1.49 7.05-14.371 9.951-17.23 2.009-1.977 18.116-13.39 18.116-13.39s1.075.587 2.248.294c3.605-.901 6.65-1.662 9.244-2.377.654.533 1.396 1.388 2.108 2.77.65 1.777 2.323 6.097 4.096 8.625 2.273 3.242 4.307 6.343 4.19 8.193-.116 1.851-.572 3.186.155 4.408.729 1.224 4.391 2.075 8.683 3.77 1.532.605 3.905 1.782 6.323 3.044l-4.89 4.443c-.873.25-3.44 1.035-4.379 1.875-.54.485-1.07 1.317-1.514 2.145-1.511.838-3.116 1.149-4.059 1.92-1.407 1.151-1.137 2.472-.59 3.078.85.942 1.738 2.409 2.06 3.258.331.87.317 2.385.506 3.126.126.496.74 1.597 1.073 2.08.25.363.689.829 1.253 1.047.755.296 2.986.872 3.247.914.509.08.612-.06.644-.2.019-.083.07-.303.106-.64.475.279.914 1.143 1.32 1.322.408.18 2.332.552 2.332.552 1.246.387 2.445-2.929-.1-5.882-1.488-1.724-1.426-2.756-1.363-3.85.059-1.008.1-2.98 1.04-4.252.269-.154.557-.33.867-.539.7-.47 6.218-4.918 8.906-6.913.814.451 1.472.82 1.888 1.054.1.618.294 1.233.634 1.774.294.466.852.774 1.43.977-.014.556-.017 1.454.086 2.127.146.955 1.134 3.075 2.84 3.092 1.292.012 1.624-.347 4.684-2.02 1.754-.96 2.599-1.542 3.758-2.083.865-.401 1.902-.778 3.62-1.266.694-.197 1.762-.566 2.729-.784.6-.135.607-.756.607-.756s-.078-.684-1.021-1.212a2.87 2.87 0 0 0-.244-.161c.204-.162.463-.406.447-.598-.024-.318-2.122-2.339-4.989-1.9-2.867.442-6.635.677-7.315.425-.462-.17-.806-.288-1.042-.365-.44-.268-1.078-1.15-1.754-1.756-.266-.238-.716-.491-1.17-.712a211.196 211.196 0 0 0 2.677-2.471c.301.056.607.09.912.093 2.249.03 6.353-4.494 6.677-5.622.312-1.086.148-1.659.156-1.672 2.834-4.725 8.246-11.925 9.894-13.91.144-.176.288-.376.443-.621.691-.28 2.713-1.12 4.288-1.988.55.412 1.44.876 2.893 1.304 2.728.804 11.131 3.224 14.857 4.498 2.672.911 5.279 1.953 7.333 2.789 0 0 .08.086.2.192l-.011.001c1.23 1.069 7.61 6.508 9.422 7.542 1.585.903 4.499 2.752 8.056 4.952.777.48.818.551 1.471 1.052.036.413.128.842.312 1.283.426 1.027 1.154 1.554 1.905 1.814l.013.013s.804 1.646 1.085 2.278c1.43 3.2 3.91 3.237 7.055 1.212 1.804-1.163 3.43-1.576 4.73-2.021 1.02-.352 3.719-1.062 5.596-1.457.97-.204 2.13-.521 2.588-1.096.567-.71-.217-1.465-1.071-2.097a5.962 5.962 0 0 0-.241-.138c-.329-.936-1.382-1.495-2.015-1.756-1.763-.726-4.566-.204-4.581-.21-.424-.175-1.87-.445-3.358-.308-3.104.284-2.335.685-4.181.489-.709-.076-2.84-2.262-3.196-2.63-1.389-1.474-4.066-4.275-5.96-5.987-2.241-2.026-8.029-6.758-9.717-8.08-.308-.725-.818-1.55-1.738-2.477-.975-.983-1.977-1.621-2.877-1.814-.74-.158-1.568-.06-1.568-.06s-1.515-1.465-3.672-2.633c-1.293-.7-3.258-1.785-4.23-2.24-1.399-.742-1.936-.987-2.743-1.452-.453-.26-.757-.523-.963-.774 5.66-3.205 10.956-6.698 13.825-9.065 5.814-4.796 10.712-11.62 17.724-16.104.744.548 2.198.945 3.476.955 2.839.022 7.959-.962 10.034-1.665 1.053-.365 3.207-.461 4.44-.485.048.021.092.042.126.063.295.188 1.316.4 2.134.876.71.41 2.322.927 2.872 1.186.478.225 2.042.831 3.383.683.773-.086 1.283-.262 1.9-.562.772-.375 1.437-1.273 2.183-1.712.786-.462 1.45-.548 2.276-.61.825-.064 2.815.758 3.592.732.391-.014 1.025-.442 1.14-.738.202-.526-.13-1.008-.185-1.211a.85.85 0 0 0-.16-.233c.299-.155.584-.397.657-.586.202-.527-.129-1.008-.184-1.212zM94.233 120.715c-2.227 3.456-5.932 7.8-6.63 8.612-1.005.18-3.205.728-5.167 3.312-.11.144-.206.28-.307.422a43.27 43.27 0 0 0-1.93-1.202l-.575-.36c-2.36-1.362-4.399-2.422-6.098-4.022-1.033-.974-2.458-5.215-2.772-6.783-.129-.742.016-2.87-.319-5.41-.35-2.378-.636-4.164-.88-5.492-.34-.791-.6-1.59-.885-2.34 1.574.772 3.541 1.81 6.64 3.109.111.011 7.46 3.093 22.911 3.145-.923 1.788-2.442 4.607-3.988 7.009z" fill="#231F20"/><path d="M170.834 63.02c-.656.067-1.265-.265-1.613-.47-.884-.524-.789-1.707-.67-2.323.076.064.156.132.244.203.47.387 1.306.994 1.937 1.191.007.27.03.64.07.728.097.221.297.41.525.528a1.463 1.463 0 0 1-.493.144M99.64 61.023c-.085-.426-.326-.716-.716-1.336-.445-.703-.523-1.27-1.125-1.4-.168-.036-.516.184-.627.244.089.002.41-.082.587.098.628.635-.562 6.646-1.702 7.021-4.62 1.519-24.665-.228-25.952-1.613-.864-.928-.408-5.946.028-6.182.192-.104.273.114.273.114l.17-.147s-.325-.448-.733-.269c-.655.289-.7 1.19-1.351 1.711-.652.521-.983.622-1.157 1.222-.171.586 1.63 6.403.782 12.218-.684 4.692-3.405 7.869-3.08 8.309.32.432 27.982 5.349 28.298 5.132 1.565-1.076 4.448-7.38 5.328-11.974.819-4.283 1.082-12.624.976-13.148zm-8.511 12.995l-.094.064-.113.01-.375.037a1.866 1.866 0 0 0-.351.05c-.07.024-.06.027-.073.044-.074.099-.212.564-.304 1.115-.1.56-.186 1.231-.267 1.873l-.247 1.931c-.197 1.513-.602 2.965-1.705 3.894-.856.713-1.904.961-2.885.961-.269 0-.533-.019-.79-.051-1.58-.2-2.746-.696-3.498-1.627-.561-.691-.808-1.61-.807-2.721 0-.32.025-.661.063-1.016-.041-.005-.082-.007-.124-.013-1.802-.225-3.229-.991-4.162-2.285a5.851 5.851 0 0 1-1.132-3.506c0-.295.02-.597.06-.902.205-1.634.939-3.023 2.164-4.089 1.029-.904 2.244-1.373 3.575-1.37.259 0 .523.017.791.053 1.051.133 2.076.54 3.065 1.2l.145-.153c.203-.198.341-.386.718-.416.012 0 .04 0 .078.004a.67.67 0 0 1 .553.376c.066.188.05.266.058.424 0 .084-.003.178-.01.293l-.166 2.575-.029.348a.845.845 0 0 1-.186.456.662.662 0 0 1-.508.226.841.841 0 0 1-.103-.006c-.386-.054-.564-.39-.62-.638-.132-.538-.431-1.193-.907-1.945-.44-.681-.982-1.03-1.749-1.136a2.629 2.629 0 0 0-.339-.022 1.92 1.92 0 0 0-1.088.311c-.421.274-.785.684-1.091 1.26-.3.566-.514 1.288-.627 2.169-.05.391-.075.761-.075 1.11 0 1 .2 1.826.582 2.501.378.656.82 1.072 1.36 1.305l.315-2.458c.061-.47.092-.807.09-1.03-.002-.304-.048-.334-.048-.335.001-.011-.125-.076-.401-.154l-.404-.125-.085-.11a.724.724 0 0 1-.145-.447c.016-.233.052-.519.44-.693l.11-.038.113.02a46.43 46.43 0 0 0 4.225.54l.115.01.095.063c.245.179.273.4.278.566-.007.207-.053.418-.277.61l-.118.092-.151.002-.366.002a1.82 1.82 0 0 0-.371.022c-.052.018-.024.002-.053.032-.063.062-.187.48-.287 1.326l-.201 1.576c.263-.208.53-.456.805-.758.159-.171.341-.342.66-.354a.722.722 0 0 1 .517.21.67.67 0 0 1 .18.472c0 .043-.003.076-.007.114-.054.354-.255.617-.533.91-.283.291-.666.602-1.16.95a4.794 4.794 0 0 1-.712.416l-.023.18a8.565 8.565 0 0 0-.074 1.082c-.002.816.151 1.512.472 1.998.324.482.797.808 1.628.922.15.018.29.028.425.028.786-.009 1.307-.288 1.74-.836.427-.552.725-1.409.863-2.499l.259-2.028c.102-.79.21-1.703.208-2.342.005-.335-.043-.606-.075-.66-.036-.085-.112-.167-.471-.278l-.43-.12-.081-.083a.717.717 0 0 1-.204-.51c.003-.242.108-.59.535-.69l.077-.013.077.016a31.47 31.47 0 0 0 3.47.443l.14.01.107.088a.705.705 0 0 1 .25.559.725.725 0 0 1-.304.608zm-26.854 7.549c-.555-.455-1.323-.433-1.716.046-.274.336-.285.806-.08 1.214-1.077.656-1.614.632-2.597.508-1.027-.131-1.8.203-2.908.708-1.108.505-1.967.208-1.967.208l.745.5c1.576.16 2.517-.574 2.517-.574s-.233 1.344-1.552 1.588l.476.612c2.004-.147 3.12-1.08 3.12-1.08-.39 1.304-.969 2.142-3.657 2.24l-.489.404s2.096.69 4.289-.819c1.388-.955 2.425-3.304 2.59-3.69.53.313 1.178.253 1.527-.175.392-.48.259-1.237-.298-1.69M93.79 87.35c-.649-.305-1.389-.097-1.653.463-.182.39-.081.846.213 1.192-.39.325-1.737 1.389-3.218 1.978-1.193.474-4.187.945-4.187.945l1.287.635c1.271-.016 3.145-.798 3.145-.798-.359 1.271-2.126 1.723-2.126 1.723l.546.525c1.967-.46 3.694-2.321 3.694-2.321s-.122 2.443-3.271 3.69c-.005.002 0 .651 0 .651.23-.088 2.154-.527 3.405-2.362 1.119-1.642 1.39-3.852 1.428-4.212.59.174 1.203-.042 1.438-.541.263-.561-.05-1.263-.7-1.567m103.99-14.232a8.579 8.579 0 0 1-.107-.027c-.14.18-.35.405-.596.623.275-.074.515-.163.758-.263a1.772 1.772 0 0 0-.055-.333m-6.245.131c-.56-.306-1.217-.66-1.844-.98a2.976 2.976 0 0 0-.48.82c.032.098.1.183.161.25.682.1 1.296.183 1.861.255.137-.098.223-.246.302-.346m.084.387l.485.065c.066-.013.134-.024.214-.025l-.768-.475a.541.541 0 0 0 .069.435m-4.433-.632c.56.09 1.086.171 1.582.246a.749.749 0 0 0 .23-.143c.107-.308.27-.617.516-.928-.679-.344-1.303-.634-1.708-.766-.286.366-.536.88-.738 1.432a.9.9 0 0 0 .118.159m-2.272-.374c.596.1 1.159.194 1.697.282a.915.915 0 0 0 .319-.253c.187-.49.414-.944.674-1.301-.036-.008-.074-.017-.103-.02-.47-.043-1.197-.203-1.934-.213-.298.388-.548.886-.742 1.406a.368.368 0 0 0 .089.098m-.275-.156c.18-.485.409-.952.683-1.344-.55.022-1.091.142-1.52.479a1.75 1.75 0 0 0-.566.732l1.245.216a.4.4 0 0 0 .157-.083m-.409.237c-.341-.057-.693-.119-1.053-.181-.098.372-.066.77.054 1.158 0 .002-.004.002-.004.004.032.064.068.126.11.182.187.253.453.482.824.714a7.33 7.33 0 0 1 .286-1.522.548.548 0 0 0-.216-.354m2.221.373c-.517-.085-1.055-.175-1.626-.271a.791.791 0 0 0-.141.138c-.205.658-.325 1.306-.336 1.75.019.01.033.021.052.031.485.27 1.212.465 1.92.508.032-.493.166-1.212.387-1.939a.793.793 0 0 0-.256-.217m.571.093a.363.363 0 0 0-.099.09c-.234.743-.378 1.49-.409 1.982.735.018 1.56-.062 2.254-.259.011-.452.011-.917.1-1.387a.78.78 0 0 0-.208-.17c-.514-.078-1.057-.163-1.638-.256m3.982.586c-.55-.07-1.15-.154-1.806-.25a.465.465 0 0 0-.146.17c-.072.412-.077.826-.088 1.248.084-.028.168-.057.247-.088.643-.26 1.348-.613 2.02-.871-.043-.11-.144-.172-.227-.209m5.624.309c.191.05.547.14.894.224.144-.176.266-.368.302-.63a5.64 5.64 0 0 1-1.089.325c-.037.026-.07.055-.107.081" fill="#FFF"/><path d="M92.08 55.551a19.909 19.909 0 0 0-1.034-.427c-2.47-.772-6.215-1.486-9.677-1.662-2.196-.112-4.023.325-5.476.945l-.006.004c-2.143 1.358-3.281 2.41-5.405 4.423-.265 1.243-.22 3.926.257 4.259 1.503 1.042 20.172 3.17 24.747 1.645 1.125-.375 1.634-4.08 1.746-5.033-1.571-1.818-2.613-3.012-5.152-4.154" fill="#F46F1B"/><path d="M198.97 73.754l-.184-.167c-.155-.078-.353-.132-.476-.024a.59.59 0 0 0-.082.079l-.063.195a2 2 0 0 0-.005.149c0 .213.011.458.011.458s-.012.003-.029.004l.296.071s-.278.017-.646.019l-.528.06.059-.067a6.388 6.388 0 0 1-.705-.057 19.66 19.66 0 0 0-.601-.082c-.084.03-.167.057-.252.073-.718.144-1.736-.083-2.377-.29a7 7 0 0 0-1.432.105c-.833.15-1.73.742-2.42.966-.753.243-1.732.485-2.71.403-.52-.042-1.527-.122-2.53-.627-1.993-1.003-1.993-1.79-1.993-1.79-.105-.63.087-1.064.423-1.561.62-.916 1.608-1.326 3.19-1.294.85.018 1.447.221 2.14.398.736.186 1.685.784 2.24 1.082.557.3 2.351 1.338 3.154 1.535.803.198 1.56.396 2.427.05.868-.345 1.504-1.175 1.661-1.56.157-.386.347-.93.355-1.547.01-.619-.284-1.67-.356-1.85-.075-.18-.548-1.434-.548-1.434s1.084 1.636 1.302 3.18c.214 1.515-.182 2.127-.376 2.471l.112-.097s.576-.163.832-.402c.422-.391.338-.813.398-1.359.156-1.403-1.188-3.163-1.63-3.698-2.856-1.193-5.397-1.93-7.482-2.547 2.408.164 4.205.852 7.191 2.132l.011.013.006-.007c-.506-.39-3.416-2.551-6.292-2.978-1.502-.223-2.543.516-1.376 1.382.853.516 3.385 1.002 7.292 1.948-.176-.01-.766-.008-.934-.02-4.78-.292-6.808-1.052-7.532-1.82a11.849 11.849 0 0 0-2.627-.65c-1.917-.23-4.458-.991-4.458-.991s2.092.444 4.655.444c.842 0 1.748.247 2.089.35.05-.594.637-1.07.915-1.157.55-.172 1.338.1 2.13.192.839.097 2.271.711 3.128 1.17.981.526 2.639 1.8 3.016 2.122.148-.178.542-.69.433-.978-.101-.267-.62-.68-.864-.863.287.848.324 1.704.324 1.704s-.497-1.174-1.341-1.943c-.518-.472-1.497-1.486-2.24-1.894-.742-.408-3.032-1.176-3.838-1.504-.807-.326-3.556-.796-5.242-.958-.618-.058-7.418-.814-7.418-.814s.395-.006 1.053-.006a9.144 9.144 0 0 0-2.337-2.09 7.594 7.594 0 0 0-2.628-.998 30.7 30.7 0 0 0-.683-.109c1.18.972 1.713 1.634 1.713 1.634s-2.844-1.69-4.138-2.135c-1.674-.574-3.185-.296-4.448.432-1.088.628-2.166 2.085-2.341 2.328.385.726.486 1.375.486 1.375s-1.599-3.847-6.4-1.783c-.483.208-.555.432-.802.632-.137.111.26.992.4 1.356.132.342.199.933 1.031 1.004.628.053 1.653-.133 2.146-.368 1.208-.579 1.267-.492 1.29.171l.059-.005s-1.09 1.174-2.862 2.894l-.451.435-.051.047v.002c-2.978 2.852-7.557 6.915-12.172 9.762-5.995 3.696-9.645 5.492-13.75 5.589-1.32.031-4.4-.473-6.843-2.525-3.055-2.566-3.78-5.604-6.386-6.778-2.607-1.172-4.171-.814-5.71-1.058-.787-.125-1.837-.088-5.939-2.151-2.657-1.337-4.89-2.635-6.87-4.22.086 2.478.145 7.164-.313 10.719-.495 3.846-3.744 11.882-5.624 13.857.55.509.941 1.23.698 1.747-.23.49-.969.668-1.678.608.036.458.134 2.385-.703 3.908-1.575 2.868-5.303 2.964-5.303 2.964s.06-1.658.065-1.661c1.45-.635 1.744-1.026 1.744-1.026s-.424.325-1.8.627l-1.263-1.377s.546-.057 1.026-.415c0 0-.375.179-1.27.187l-2.46-1.368s3.6-.612 4.724-.978c1.071-.349 2.402-1.008 3.418-2.035a1.325 1.325 0 0 1 .012-1.06c.006-.013.016-.022.023-.036-5.793-.874-20.777-3.523-26.552-4.731.076.447.033.874-.2 1.137-.38.432-1.143.306-1.796-.027-.116.553-.563 2.307-1.735 3.477-2.314 2.312-6.44.651-6.44.651l1.391-.976c.763.016 1.276-.284 1.276-.284-.3.11-.904.023-.904.023l-.945-1.303c.359-.033.668-.277.668-.277-.211.084-.92-.01-1.044-.041l-1.905-1.507s1.892.437 2.638.134c.787-.321 1.293-.71 2.82-.944 1.194-.182 1.663.537 2.938-.377-.091-.43-.008-.87.28-1.195.282-.32.7-.459 1.131-.428 1.001-1.898 3.14-5.444 3.634-8.87.589-4.097.002-7.65-.36-9.704a117.157 117.157 0 0 1-8.878 7.317c-1.232.915-2.985 2.04-4.583 3l-5.59 3.973c-2.879 2.259-4.843 3.948-6.885 9.042-1.27 3.168-2.747 8.161-4.583 12.028l4.193-4.413s-.255 2.261-7.434 9.177c-.832.877-1.86 1.91-2.992 3.074-4.72 4.858-8.004 9.213-11.518 10.23-1.798.52-1.76 4.497-3.603 8.66-1.803 4.07-7.61 17.246-7.87 17.835a.123.123 0 0 1 .02-.004l-.023.011a.575.575 0 0 0-.009.02l-.072.02c-.439.222-2.184 1.175-3.382 2.849-.668.932-.682 2.198-.8 3.114.032.708.125 2.32.327 2.972 0 0-.381-.725-.665-1.438-.208.751-.456 1.368-.8 1.737-.871.93-.75 2.005.684 3.518 1.41 1.49 1.267 4.722 1.923 6.285.398.271.758.096 1.01-.126.618-.55 1.626-1.703 2.65-1.374 1.002.322 1.186 1.52 1.192 2.33.137.04.267.077.36.088.294.031.375-.457.766-1.141.48-.839.945-1.373 1.63-1.4.781-.034 1.42.891 1.42.891.073-1.595-2.395-4.144-3.017-5.226-.359-.621-.456-2.313-.709-4.014-.2-1.356.4-2.754.7-3.924.22-.868.447-1.52.623-1.962-.91 1.294-1.657 2.096-1.657 2.096s2.375-3.898 3.193-6.794c.819-2.895 8.048-16.192 10.263-18.278 1.97-1.855 17.497-13.098 17.497-13.098-.51-.316-1.167-1.232-1.466-1.676.812 1.016 3.368 1.754 4.3 1.676 1.174-.098 6.518-1.4 13.686-3.681 3.662-1.165 6.526-2.131 8.539-3.984a15.163 15.163 0 0 0 1.64-2.038c.856-1.462 1.421-3.335 1.681-5.838.252-3.228-1.5-7.43-1.5-7.43s3.776 2.903 2.943 11.66c-.136 1.432.232 2.803 3.066 5.827l.574.609c3.224 2.56 7.256 4.35 10.034 4.974 3.343.752 11.128 1.46 15.19 1.38a3.975 3.975 0 0 1 .004-.528c.154-1.929 1.082-4.519 1.082-4.519s-2.33.88-4.482.996c-9.589.516-15.508-2.12-15.508-2.12 7.771 1.955 13.619 1.273 15.704.882 2.086-.39 3.588-1.44 5.475-5.215.783-1.564 2.997-5.8 2.997-5.8s-1.4 3.78-1.596 5.686c-.195 2.444-2.2 6.5-2.82 10.174-.28 1.661.572 3.527.572 3.527a7.87 7.87 0 0 1-.601-.8c-.55 1-3.896 7.053-4.743 8.261-3.519 5.018-7.396 8.992-7.396 8.992v-.037c-1.03.21-1.502-.06-3.724 2.058-1.706 1.626-2.984 4.001-3.334 6.408-.244 1.679 1.602 1.356 1.602 1.356s-2.449 1.209-2.493-.925l-5.087 4.489s-3.636 1.048-4.644 1.831c-1.071.83-3.308 4.272-3.308 4.272s.318-.835.804-1.825c-.932.845-2.377.828-3.27 1.722-1.178 1.176-.747 2.078.054 2.79.801.71 1.643 2.588 1.909 3.48.214.719.143 2.032.517 2.834.23.496.716 1.343 1.047 1.267.724-.166 2.071-2.156 2.978-1.97 1.27.261 1.376 1.996 1.394 2.815.348.317.73.795 1.139.674.432-.129.451-.612.666-1.015.636-1.2 1.376-1.24 1.714-1.174.433.087.787.715 1.034 1.377-.072-.483-.248-1.1-.422-1.396-.492-.833-1.074-1.514-1.832-2.491-.758-.977-.656-1.86-.626-2.66.029-.8.081-1.946.22-2.617.082-.394.321-1.043.46-1.405-.906.415-1.414.473-1.414.473s10.515-8.162 12.755-9.807c2.015-1.478 5.448-4.816 6.117-5.472a5.996 5.996 0 0 1-1.42-.767s1.768.596 3.14.523c1.426-.01 5.96-3.998 6.272-5.655.216-1.296-.266-2.473-.873-3.144 0 0 .78.442 1.168 1.268 2.319-3.904 9.879-14.196 13.294-18.65a251.09 251.09 0 0 1-1.288 2.712c.457-.143 3.022-1.02 5.915-3.56 2.542-2.28 5.214-8.634 5.214-8.634s-1.462 4.09-.554 5.148c.551.643 1.527.528 2.407.228a74.54 74.54 0 0 0 1.776-.857l.085-.054-.064.042c6.489-3.24 13.756-7.972 16.356-9.948 3.411-2.593 10.47-9.724 12.772-12.12 1.876-1.954 3.399-3.199 4.556-3.994l-.001-.001c.826-.567 1.466-.905 1.911-1.103-2.245-1.673-2.167-4.691-2.167-4.691s1.387 4.985 9.001 4.743c1.878-.06 3.572-.573 4.578-.744.44-.076 1.599-.445 2.354-.554 1.022-.154 2.394-.156 3.327-.136-.265-.116-.524-.27-.702-.494l-.05-.068c-.488-.128-1.557-.33-3.06-.186-2.297.221-3.577.27-3.577.27s1.278-.369 3.014-.626c1.369-.201 2.38-.402 3.242-.455a2.48 2.48 0 0 1 0-.33c.082-1.225 1.688-1.763 1.688-1.763s-.74.474-.773.673c-.033.198-.183.956.045 1.504.294.706 1.041 1.103 1.522 1.35.482.244 1.643.665 2.267.995.626.332 1.657.584 2.255.786.45.152 1.892.618 3.123.503.729-.067 1.138-.187 1.813-.448 1.047-.405 1.493-1.141 2.384-1.536.826-.366 1.37-.439 2.282-.458.998-.022 2.018.363 2.516.436.496.073.984.16 1.296.118.313-.041.663-.223.675-.823.007-.399-.292-.919-.492-1.221zM10.172 156.05s-.204-.237-.723-.386c-.506-.146-1.259.274-1.294.295.047.171.096.33.148.46.179.442.705 1.105.965 1.77 0 0 .19.38.225 1.133.023.498-.31 1.484-.31 1.484.03-.985-.346-1.892-.545-2.3-.267-.47-.574-.985-.788-1.278-.206-.282-.382-.77-.519-1.342-.175-.163-.829-.691-1.93-.648-.912.037-1.406.329-1.406.329s1.18-.969 3.043-.563c.047.01.084.02.127.031a12.104 12.104 0 0 1-.143-1.548c-.034-1.531.035-2.585.427-2.585.39 0 .327 3.06.327 3.06s.075.569.197 1.194c.169-.017.454-.015.942.063.814.13 1.257.831 1.257.831zm11.467-39.483c-1.124.735-2.086 1.388-2.608 2.257-.705 1.176-1.504 5.084-2.476 4.822-.037-.01.017-.81.503-2.42.615-2.041.512-3.158 1.354-3.901.655-.577 1.415-.718 2.458-1.336.964-.57 2.71-2.055 2.723-2.035.416.635-.829 1.879-1.954 2.613zm22.53-31.286s.724-4.403 5.578-6.306c4.16-1.63 7.116.408 7.116.408s-8.898-.64-12.694 5.898zm27.543 73.43s-.362-1.675-1.018-2.449c-.62-.731-.995-1.365-.51-2.587.37-.94 1.83-1.885 1.83-1.885s-1.074 2.08-.97 3.242c.082.91 1.621 2.745.668 3.68zm26.209-37.898c-.878 1.407-2.041 3.18-3.068 4.323-1.303 1.449-2.388 2.1-2.388 2.1 4.513-4.947 8.202-12.745 8.202-12.745l.602.684-3.348 5.638zm23.057-27.331s-2.7-7.016-8.535-8.004c0 0 3.995-1.761 9.742 1.355 0 0-5.218-1.458-5.536-.737-.162.363 3.4.799 4.329 7.386zm20.254-1.473c-2.04 1.438-6.273 3.943-6.468 2.967-.197-.976 2.605-2.335 4.855-3.798 1.955-1.27 8.244-6.174 12.645-8.109 0 0-8.051 6.838-11.032 8.94zm19.609-32.972l.022.011c-2.264.823-2.841.529-3.489-.07l-.09-.03c.82-.315 4.122-1.005 5.508 1.189 0 0-.632-.703-1.951-1.1zm9.172 6.804c-1.585-.112-2.407-1.202-2.584-2.13.427.558.981 1.697 2.928 1.685 1.335-.013 2.602-.713 3.642-1.921-1.04 1.738-2.667 2.345-3.986 2.366zm5.05-5.127c-.293.349-1.269 1.417-2.06 1.891-.864.519-1.654.879-1.977.894-1.2.054-1.857-.415-2.21-.786-.764-.802-.508-1.952-.31-2.525-.958-.81-1.153-1.02-3.215-.65 2.366-.84 2.98-.411 3.464-.246.696.237 1.222.969 2.176 1.35.955.38 1.783.293 2.807.125 1.025-.169 1.352-.454 1.953-.683.032-.012-.117.275-.628.63z" fill="#F46F1B"/><path d="M88.043 145.011c.706.715 3.71 1.44 4.133 1.368 0 0-.117.037-.295.08.006.002.014.002.014.002s-1.568.382-1.574 1.445c-.002.593.5 1.691 2.378 1.595 1.263-.065 2.394-.956 3.706-1.79 1.311-.832 3.924-1.831 6.421-2.449.183-.044.575-.203.64-.378.075-.191.032-.584.027-1.012-.004-.502.214-1.437.739-1.329.36.076.666.162.927.254-.488-.438-1.186-.827-1.822-.972-2.159-.491-3.503.172-5.728.65-2.317.498-2.453.48-3.594.265-1.126-.213-1.834-.804-1.389-.87.445-.068.704.085 1.55.292 1.429.35 4.4-.584 4.4-.584s-3.31.33-4.283.16c-.712-.127-1.456-.65-1.806-.921-.54-.387-.494-.41-1.316-1.292a3.43 3.43 0 0 0-1.41-.888c.514.705.754 1.466.754 1.466l-1.368-1.031a58.135 58.135 0 0 1-2.023 1.733c.138 1.402.433 3.715.919 4.206m-2.051-3.392l.643.34c.021.01.04.026.06.044.01-.327.037-.638.072-.917-.254.195-.473.35-.636.446l-.139.087m-7.045-9.383a19.662 19.662 0 0 0-.754-.366c-3.096-1.415-5.339-2.598-6.499-4.18-.223-.303-1.565-4.832-1.96-5.243-.349-.363-1.232-1.09-1.956-1.405-1.03-.446-2.135-1.827-2.135-1.827s1.156.797 2.518 1.043c1.51.272-.488-6.376-.977-8.08-.594-2.067-1.369-4.17-3.357-4.988-1.787-.61-3.74-.528-5.559.427-.615.323-1.379.755-1.713 1.147-.097.114 2.376 6.818 4.145 9.601 2.454 3.862 3.76 6.185 3.704 9.03-.057 2.847-.158 3.48 1.527 4.247 1.687.767 7.899 3.1 11.086 4.955.612.357 1.462.846 2.43 1.396l.332-.302c.28-1.052.836-2.365 1.832-3.882a169.017 169.017 0 0 0-2.664-1.573zm-8.733-.509c-1.89-.815-4.17-1.271-4.496-2.118-.338-.877-.163-1.72-.163-2.802 0-1.27-.664-3.04-.62-3.03 1.956.488 1.409 4.134 2.151 5.278.782 1.206 6.973 2.51 6.94 4.464 0 .032-1.84-.942-3.812-1.792zm108.423 1.087c-.137-.03-.269-.05-.404-.077a9.117 9.117 0 0 0-3.374.27c-.172.09-.412.23-.646.419-.358.289-.74.805-.74.805s.181-.804.727-1.355c-.761-.28-2.25-.246-3.512-.15-1.611.253-2.679.537-3.643.477-1.23-.077-2.275-1.53-2.596-2.022-.714-.738-4.141-4.264-6.57-6.577-2.186-2.077-7.404-5.745-9.269-7.065l-.099.93-.083-.092c-.442-.315-.183-.956-.58-1.934-.22-.54-.894-1.548-1.346-2.044-.975-1.07-1.626-1.62-2.465-2.077-.714-.39-2.337-.017-2.544-.045-.166-.022-.636-.448-.772-.562-.606-.506-1.642-1.475-3.318-2.304-3.19-1.578-6.826-2.08-8.272-1.817-2.616.374-5.744 2.273-3.018 4.62 6.772 5.834 18.008 8.446 18.008 8.446s-1.628.185-2.229.082l.007.01c2.345 2.367 6.451 6.378 9.61 6.963 1.252.232 2.954-.52 2.954-.52l5.476 4.452c.342-.649.698-1.044.698-1.044s-.676 3.124-.043 4.566c.72 1.644 3.167 2.373 3.627 2.402 0 0-.432.11-1.036.128.13.258.498.974.761 1.382.343.537.536 1.176 2.553 1.256 2.018.078 3.134-1.427 4.595-2.23 1.845-1.017 4.658-1.438 5.951-1.431.05 0 1.887-.014 2.012-.737.065-.21-.045-.6-.084-1.057-.042-.536-.111-.991.383-1.286.249-.148.943.083 1.547.364-.298-.468-1.397-.952-2.266-1.146zM140.33 115.94s-.66-.071-.626-1.294c.029-1 .796-1.43.796-1.43s-.366.546-.377 1.613c-.01 1.049.207 1.111.207 1.111zM43.352 75.145c-2.675-.965-6.366-2.008-9.43-1.81-7.862.505-15.13 2.904-20.67-2.082 0 0-.235 1.146.946 2.982.456.71 1.335 1.316 1.335 1.316-2.194-.998-2.491-1.915-2.88-2.726-4.367-.898-6.786-5.622-7.288-6.773.186 1.863 1.197 3.704 1.197 3.704S5.261 68.321 4.76 67.11c-.523-1.266-.44-2.32-.424-2.472-.729 5.352 1.557 8.555 1.557 8.555-1.424.016-2.522-1.509-2.522-1.509.003.251.479 2.211 2.906 3.9 3.355 2.335 6.01 2.708 7.149 2.76 0 0-1.169.702-3.096.723 0 0 .292.09.686.161.424.076 1.32.124 2.268.02 1.994-.221 2.884-1.151 4.415-1.789 2.411-1.003 10.567-2.263 16.96-1.262 1.977.31 3.765.78 5.254 1.26 1.176.267 4.116.824 4.756-.118.452-.667-.538-1.602-1.316-2.194zM9.095 73.969c-1.079-1.044-1.853-3.227-1.853-3.227s1.375 1.787 2.488 2.77c1.05.927 2.991 1.697 2.991 1.697s-2.523-.172-3.626-1.24zm81.81-.774a28.752 28.752 0 0 1-1.726-.172 30.955 30.955 0 0 1-1.795-.279c-.168.029-.222.319-.09.45l.318.09c.397.117.643.265.757.526.232.508.056 2.02-.1 3.236l-.258 2.029c-.316 2.466-1.398 3.96-3.524 3.688-2.232-.285-2.685-2.218-2.416-4.428a5.072 5.072 0 0 1-1.7.286h-.012c-.077 0-.156-.005-.233-.008-.172 1.543.028 2.668.645 3.428.655.81 1.684 1.27 3.21 1.466 1.119.143 2.375-.01 3.336-.81.959-.801 1.361-2.134 1.549-3.612l.247-1.931c.163-1.283.346-2.71.636-3.168.146-.244.446-.272.763-.298l.367-.035c.145-.096.146-.361.026-.458m-9.971 3.735c.44 0 .895-.133 1.367-.41l.252-1.969c.22-1.72.373-1.766 1.149-1.766l.363-.002c.128-.099.147-.378.026-.46a49.323 49.323 0 0 1-2.181-.228 42.54 42.54 0 0 1-2.087-.317c-.138.05-.189.323-.091.45l.27.084c.746.228.889.279.668 2l-.325 2.543a2.309 2.309 0 0 0 .589.075" fill="#F46F1B"/><path d="M83.97 68.245c.135-.128.275-.271.423-.43.175-.192.312-.284.41-.27.108.012.176.048.203.108.024.058.03.23.016.516l-.167 2.568-.026.329c-.028.218-.128.315-.304.293-.114-.015-.196-.117-.244-.306-.151-.604-.471-1.296-.964-2.075-.492-.778-1.18-1.225-2.067-1.339-.655-.083-1.23.036-1.724.358-.494.321-.907.796-1.24 1.422-.333.628-.558 1.4-.676 2.321-.201 1.573-.014 2.87.562 3.886.575 1.017 1.38 1.593 2.411 1.725 1.121.142 2.235-.402 3.342-1.632.134-.15.252-.218.356-.204.174.023.249.12.226.295-.046.36-.55.879-1.51 1.555-.96.676-2.088.931-3.382.766-1.714-.22-3.001-.922-3.859-2.106-.858-1.185-1.19-2.55-.992-4.092.197-1.539.869-2.81 2.017-3.813 1.148-1.003 2.487-1.407 4.018-1.211 1.078.137 2.136.582 3.171 1.336" fill="#F46F1B"/><path d="M157.957 133.124l-.078-.027-4.814-2.964-.073.012c-1.531.254-3.006 1.436-4.507 3.617-11.686 16.992-24.658 25.608-38.554 25.608-11.34 0-21.196-4.631-29.292-13.765l-.121-.137-1.86 1.436s-2.423 2.185-2.716 2.382c-.311.208-.6.385-.868.538-.94 1.272-.981 3.244-1.04 4.25-.063 1.097-.124 2.127 1.363 3.852 2.546 2.951 1.346 6.267.1 5.88 0 0-1.72-.501-2.128-.681-.407-.182-1.094-1.153-1.569-1.43-.036.337-.19.683-.21.767-.031.138-.223.185-.731.105-.262-.043-2.104-.54-2.86-.838-.564-.218-.972-.65-1.221-1.01-.334-.485-.955-1.599-1.081-2.094-.19-.74-.158-2.163-.488-3.035-.323-.846-.963-2.093-1.814-3.033-.546-.606-1.128-1.85.279-3 .942-.771 2.57-1.08 4.08-1.918.445-.827.994-1.783 1.535-2.267.937-.84 3.626-1.565 4.499-1.813l1.36-1.187 1.814-1.534-.33-.33c-8.021-11.562-12.088-27.09-12.088-46.152 0-11.64 1.583-21.751 4.706-30.055 3.09-8.24 7.46-14.814 12.989-19.535 5.463-4.658 12.323-7.02 20.39-7.02 10.914 0 20.095 4.425 27.286 13.152 6.741 8.2 11.652 15.831 14.597 22.685l.09.213 1.987-1.312-.066-.15-.024-.053 2.68-1.891 2.628-2.022.018.267 2.234-1.766-1.969-29.812c-.393-5.1-.856-6.44-1.217-7.04-.658-1.075-1.918-1.619-3.752-1.619-1.712 0-3.527 1.471-5.71 4.63a143.08 143.08 0 0 1-3.985 5.318c-14.13-7.527-28.193-11.349-41.8-11.349-19.87 0-36.549 7.468-49.573 22.195-12.987 14.686-19.573 32.25-19.573 52.203 0 20.037 6.543 37.169 19.447 50.915 12.927 13.769 30.755 20.75 52.991 20.75 16.83 0 31.05-5.202 42.262-15.462 11.395-10.43 16.935-17.94 16.935-22.961l-.158-1.513" fill="#000"/><path d="M152.996 130.548c-1.4.257-2.773 1.375-4.19 3.434-11.764 17.104-24.843 25.777-38.875 25.777-11.398 0-21.306-4.637-29.456-13.765l-1.243.96c8.466 9.528 18.79 14.37 30.699 14.37 14.578 0 28.091-8.9 40.164-26.455 1.27-1.845 2.488-2.82 3.522-2.82 1.784 0 2.544.773 2.544 2.588 0 4.379-5.485 11.62-16.302 21.519-10.838 9.92-24.614 14.95-40.941 14.95-21.673 0-39.022-6.775-51.566-20.135C34.8 137.6 28.436 120.92 28.436 101.395c0-19.462 6.42-36.59 19.08-50.908 12.638-14.289 28.823-21.535 48.11-21.535 13.597 0 27.647 3.892 41.762 11.566l.576.313.41-.512a144.39 144.39 0 0 0 4.637-6.168c2.284-3.304 3.556-3.798 4.11-3.798 1.106 0 1.806.227 2.081.677.16.266.57 1.398.937 6.167l2.025 30.673 1.493-1.179-1.955-29.606c-.385-5.016-.823-6.304-1.161-6.866-.582-.95-1.732-1.432-3.42-1.432-1.574 0-3.286 1.418-5.391 4.464a142.599 142.599 0 0 1-4.093 5.462l-.101.128-.143-.076c-14.124-7.55-28.176-11.378-41.768-11.378-19.754 0-36.333 7.423-49.28 22.062C33.422 64.063 26.87 81.54 26.87 101.395c0 19.936 6.507 36.977 19.342 50.649C59.06 165.73 76.793 172.67 98.918 172.67c16.73 0 30.861-5.168 41.999-15.36 11.311-10.352 16.81-17.769 16.81-22.674l-.132-1.258c-.152-.094-4.457-2.744-4.599-2.83" fill="#F46F1B"/><path d="M102.629 37.357c11.036 0 20.318 4.472 27.586 13.294 6.697 8.145 11.59 15.735 14.557 22.568a507.53 507.53 0 0 1 1.323-.875c-3.032-6.897-7.961-14.528-14.671-22.688-7.581-9.2-17.27-13.865-28.795-13.865-8.546 0-15.833 2.519-21.659 7.488-5.783 4.939-10.343 11.78-13.55 20.335-3.205 8.525-4.83 18.868-4.83 30.742 0 19.495 4.197 35.399 12.463 47.288l1.168-1.061c-8.003-11.612-12.066-27.16-12.066-46.227 0-11.687 1.591-21.845 4.73-30.191 3.113-8.303 7.521-14.93 13.102-19.695 5.534-4.72 12.48-7.113 20.642-7.113" fill="#F46F1B"/><path d="M157.865 145.798v-2.416h-.857v-.492h2.305v.492h-.859v2.416h-.59zm1.816 0v-2.908h.882l.522 1.985.512-1.985h.887v2.908h-.544l-.004-2.29-.57 2.29h-.566l-.571-2.29-.004 2.29h-.544z" fill="#231F20"/></g></svg>