<svg width="200" height="200" xmlns="http://www.w3.org/2000/svg" xmlns:xlink="http://www.w3.org/1999/xlink"><defs><path d="M109.537 51.194c1.571 6.129-2.116 13.585-4.08 15.615-.712-1.174-1.775-2.728-1.937-2.884 1.506 3.26 3.352 7.624 2.797 10.513-.33 1.89-1.09 4.395-4.662 5.112.931.096 2.14-.361 2.365-.432 6.055-1.92 1.853-9.623 10.486-12.427-3.476-.326-6.728 2.286-6.728 2.286 1.407-4.017 6.025-6.365 9.853-6.974-1.767-1.11-5.278-1.123-7.072-.679 4.621-3.405 11.49.007 16.287-2.989-6.756.865-9.8-4.186-15.067-2.708l-.779.355c.373-1.513 1.85-2.223 3.244-2.458 4.913-.834 7.461 2.027 12.385 2.81 1.396.22 4.995.027 4.995.027-.812.28-1.673.524-2.168 1.024 1.513-.323 2.708-.11 3.869.134.295.061 1.934.806 4.596 1.772 2.005.735 4.527 1.334 6.861 2.138 1.556.53 2.084 2.155 2.563 3.374-1.954.13-2.665.412-4.167 1.461-.41-.771-.465-1.112-2.194-1.58 1.472.767 1.442 1.268 1.62 2-.053.035-.286.293-.61.525a3.82 3.82 0 0 0-.003-.354 2.1 2.1 0 1 0-4.185.367 2.087 2.087 0 0 0 1.43 1.81c-.34.206-.684.422-.795.438-1.24-.722-1.03-2.312-1.128-2.939-.32 1.115-.355 2.33.541 3.135-.747.292-2.416-.136-2.416-.136s.338.238.446.34c3.715 1.412 6.223-2.358 9.385-3.657 2.208-1.049 5.682-.616 7.9.273-.462-.299-.955-.493-1.13-.609.04-.074.205-.06.283-.164 1.27.29 2.982 1.32 4.132-.184-.133.095-.558.35-.85.309.097-.681.033-.951-.703-1.658.522.87.452 1.243.319 1.643 0 0-.214.001-.349-.028-.16-.024-.395-.138-.395-.138.19-.424.124-1.078-.335-1.392l2.134-1.261c.655.843 1.004 1.994.546 3.105-.292.574-.82.915-1.474 1.32-.49.293-.79.425-1.342.579 0 0-1.104 1.442-1.81 1.99-5.367 5.032-24.957 11.398-28.688 11.92-5.39.75-11.005 2.462-16.711 1.96l-1.75-.246c-.593.09-9.562-2.964-9.562-2.964-2.713-1.295-4.737-2.012-6.937-4.322-1.483-1.553-2.19-2.614-3.075-4.567.177 1.458.434 2.3 1.12 3.597.787 1.487.545 1.084 1.59 2.2 0 0-17.855-6.729-22.001-8.614-4.479-2.218-8.326-4.363-12.413-7.184.85-.01 1.483.027 2.434-.051 1.878-.15 2.874-.252 4.752-.112 1.556.119 2.46.35 3.866 1.023-1.384-.877-2.244-1.278-3.803-1.781-3.262-1.059-6.165 1.069-11.644-1.142-3.197-1.116-6.633-5.658-7.353-6.917-.64-1.13-.94-1.819-1.323-3.062-.218.743.123 2.479.192 2.698 0 0-2.547-2.03-3.695-2.77-4.778-3.777-9.473-7.12-14.715-10.03-.767-.364-1.753-.4-2.297.014-1.034.775-1.877 3.16-1.905 4.878-.037 2.279.391 3.884.01 6.146-.143.864-.472 1.632-.939 2.6 0 0-.58 7.411-9.43 7.84.574-.376.924-1.184 1.091-1.484-.6.078-4.003 1.965-6.773 1.037.662-.316 1.334-.865 1.536-1.481-1.554-.457-3.77.897-3.77.897.323-2.36 2.693-4.957 4.618-5.602-1.004-.32-2.058-.318-2.694-.255l-.48.104s.077-.107.176-.222a1.19 1.19 0 0 0 .04-.057c.011-.012.025-.021.037-.037a1.57 1.57 0 0 1 .125-.143 6.06 6.06 0 0 1 .608-.603c2.565-2.201 5.96-1.48 9.327-1.019 1.276.049 1.648-.306 2.26-.738-2.276 2.58-7.855.211-10.5 1.36-.739.32-1.697 1.14-1.697 1.14.921-.326 4.793-1.026 6.466-.205-3.061-.233-6.855 4.408-6.855 4.408s1.888-2.09 7.143-2.275c-.745.99-2.215 1.585-3.376 2.062-.073.116 5.922-.518 8.21-3.064.66-.73.923-1.236 1.422-2.089 3.189-5.414-1.935-11.085 1.486-16.145.177-.454.545-.786.888-1.177.519-.146.049.326-.267.386-.094-1.065 2.306-1.936 2.756-2.086 5.968-1.759 21.231 7.12 21.231 7.12-.04.417-.303.696-.488 1.045-3.896 1.881-7.562-4.41-12.118-6.199-1.941-.612-5.562-1.359-5.562-1.359s1.124 1.286 2.3 1.645c5.26 1.61 8.463 4.104 12.474 6.598 1.113.736 1.916 1.368 2.942 2.096.052 1.24-.197 1.453.229 2.373-.045-.952.032-2.212 1.935-6.139.92-5.647 3.034-10.895 5.75-15.758-1.438 3.223-2.615 6.805-3.61 11.04-.382 1.63-.837 4.203-.837 4.203a14.414 14.414 0 0 1 1.994-.922c.473-.148 1.058-.294 1.531-.254.886.064 1.606.322 2.135.822-.211.314-1.596 1.517-1.692 1.93 2.05-1.76 4.065-3.147 9.252-3.116-2.616-.942-4.51-.183-6.035-.048.164-1.187.624-3.3.624-3.3-.831 1.197-1.136 2.258-1.677 3.603-.72-.394-1.667-1.07-2.692-.936-.165.026-.426.064-.707.126.561-4.91-.117-11.49 3.96-16.877 1.376-1.82 2.423-3.097 4.037-4.045-.196.338-.71 1.913-.183 2.22-.13-1.872 3.819-5.618 3.819-5.618-1.374.838-2.51 1.565-3.38 2.896-.784.069-2.953 1.53-3.662 2.402-3.012 1.278-5.968 2.596-9.127 3.468-2.156.596-6.41.743-6.086.83 4.108.265 7.79-1.027 11.916-.277-.748.823-.947 1.61-1.697 2.433l-1.14 1.464c-.757-.01-1.485-.006-2.27-.299-3.089-.938-6.473-1.963-9.722-1.099a6.643 6.643 0 0 1-1.283.162c-1.612 0-2.671-.56-3.79-1.658.453.002 1.399-.122 1.399-.122s-1.103-.696-1.91-2.214c1.43.369 1.18.048 1.18.048-.141-.736-.838-1.414.516-4.602 1.012-2.392-.432-4.791-.248-7.226.108-.173.748-.629.748-.629-.52.085-.878.042-1.35-.052-1.53-.33-2.359-2.05-2.359-2.05-.005.686.218 1.58.9 2.203-.65.487-.847.36-1.665.33-1.416-.068-2.231-.695-3.063-1.968-.517-2.855.639-5.237 1.867-6.184C25.999.735 27.783-.118 30.322.023 33.23.18 34.537 2.66 37.01 3.33c1.152.31 2.14 1.517 2.303 2.74.34 3.027-.928 5.514.457 8.293-.872.29-2.671.76-2.671.76 1.707.602 15.938-2.913 21.226-3.634 2.145-.328 3.531 1.096 5.079 2.08l.155.618c-.094.053.766 2.28 1.409 3.242 1.12 1.365 2.315 7.037 2.425 7.893.361 4.454 2.257 11.338-2.554 14.337-.494.31-1.326.688-1.326.688s2.42-.373 3.287-1.468c-.563.808-2.167 3.362-2.612 4.671 0 0 2.105-3.541 4.287-4.75 1.796-1 3.006-1.499 5.124-1.222-.937.613-5.894 3.455-6.22 7.457 3.439-2.956 6.519-3.968 11.04-3.631 3.702.272 5.993 1.225 8.787 3.644-.226.49-.308 1.22-.517 1.724.377-.3 1.345-.998 1.345-.998s1.112.451.888 1.1c-.53 1.484-.974 3.332-1.345 4.933-2.046.243-3.41.734-5.311 1.888-1.167.703-1.785 1.194-2.741 2.175 1.809-1.077 2.98-1.52 5.042-1.896a17.538 17.538 0 0 1 1.658-.228c-.835.65-1.884 1.645-2.076 2.596 1.109-1.223 2.154-1.158 3.32-1.455-.04 1.476 1.014 4.262 1.169 4.248-.128-6.884 2.854-13.857 7.978-18.58.038-.121-3.184.724-4.615 1.173 3.054-3.846 6.871-7.14 11.29-9.232.046-.152-2.847-.347-5.122.155 4.635-2.864 10.657-4.382 16.152-5.023 0 0 .005-.586-1.8-1.195 2.817-.417 5.414.07 8.487 1.413 2.914 1.269 3.745 3.336 6.512 4.9.59.335 1.388.376 2.083.205-.94 1.872-3.09 3.511-5.35 3.846 1.17-.807 1.306-1.17 1.306-1.17-2.435.874-4.9 1.774-7.137 3.155-2.74 1.97-6.94 8.556-7.878 9.928-2.873 4.637-12.816 3.49-13.528 3.39.447.136.858.248 1.256.346-.266.53-1.735 1.496-2.151 1.447.828.115 1.082-.008 1.77-.194a2.59 2.59 0 0 0 .84-.38c-.043.492-.04.948.014 1.567.195 2.214.78 3.574 2.254 5.244-.484-1.008-.693-1.623-.912-2.716-.346-1.77-.37-2.779.03-4.49 6.574.546 9.42-1.73 9.42-1.73z" id="a"/></defs><g fill="none" fill-rule="evenodd"><path d="M165.43 122.768l-1.263 2.01-.01 51.664 1.674 3.43s-12.266-2.767-14.525-3.43c-2.205-.615-4.12-2.048-5.452-3.28-1.542-1.515-2.118-4.054-2.118-6.137v-42.22l-1.323-1.992 8.809-.01.005 47.063 5.438 1.469.01-48.576 8.756.009" fill="#EDAC09" fill-rule="nonzero"/><path d="M143.704 123.505l.609.916a.695.695 0 0 1 .115.384v42.22c0 2.358.715 4.466 1.911 5.64 1.17 1.084 3.027 2.516 5.153 3.11 1.764.517 9.794 2.354 13.082 3.101l-1.04-2.13a.695.695 0 0 1-.07-.304l.01-51.664c0-.13.038-.259.107-.369l.596-.949-6.809-.006-.01 47.881a.694.694 0 0 1-.873.67l-5.438-1.469a.694.694 0 0 1-.512-.67l-.006-46.369-6.825.008zm22.127 57.06a.68.68 0 0 1-.152-.016c-.502-.114-12.314-2.78-14.568-3.441-2.384-.666-4.431-2.237-5.727-3.438-1.471-1.444-2.34-3.923-2.34-6.645v-42.01l-1.208-1.817a.694.694 0 0 1 .576-1.078l8.809-.01a.692.692 0 0 1 .693.693l.006 46.532 4.053 1.095.01-47.67a.695.695 0 0 1 .693-.694l8.755.008a.692.692 0 0 1 .586 1.063l-1.157 1.841-.01 51.304 1.603 3.285a.695.695 0 0 1-.622.998z" fill="#EDAC09" fill-rule="nonzero"/><path d="M168.831 182.368l.038-23.903 13.043-.027-3.325 3.232c-.1 8.057-.019 20.013-.019 20.013l6.582 2.723v-16.721s.027-10.079-.6-11.322c-.541-1.076-1.978-2.018-1.978-2.018s-7.648-4.335-8.668-4.782c-3.25-1.414-5.26-3.373-5.26-6.475V119.35c.12-4.012 3.474-6.472 8.669-6.472h9.2c5.725 0 8.425 3.172 8.425 8.022l.057 14.716-13.091.04 3.452-3.21V119.76l-6.69-.054v22.657l7.848 4.313c6.663 3.2 8.424 9.807 8.424 14.659v33.29c0 4.75-1.755 5.587-8.105 1.875-19.636-9.465-47.631-16.257-79.004-18.617-24.85-1.872-49.308-.211-68.244 3.655l1.28-.39c18.21-4.693 40.382-7.329 64.278-7.077 23.71.247 45.662 3.297 63.688 8.298" fill="#EDAC09" fill-rule="nonzero"/><path d="M87.33 176.429c6.874 0 13.775.25 20.551.761 30.94 2.328 59.087 8.963 79.253 18.684a.622.622 0 0 1 .048.026c3.25 1.9 5.266 2.574 6.161 2.06.608-.35.903-1.44.903-3.335v-33.291c0-3.06-.783-10.553-8.031-14.034a.836.836 0 0 1-.034-.017l-7.849-4.313a.694.694 0 0 1-.36-.608v-22.657a.694.694 0 0 1 .7-.694l6.69.055c.38.003.687.312.687.693v12.687a.69.69 0 0 1-.222.508l-2.154 2.004 10.627-.033-.054-14.022c0-4.797-2.674-7.332-7.732-7.332h-9.201c-4.814 0-7.87 2.223-7.976 5.8v23.717c0 2.545 1.54 4.4 4.843 5.839 1.042.456 8.42 4.636 8.733 4.814a.578.578 0 0 1 .039.024c.163.106 1.61 1.079 2.216 2.286.652 1.29.681 9.232.675 11.635v16.72a.693.693 0 0 1-.957.64l-6.582-2.722a.693.693 0 0 1-.428-.636c-.001-.12-.08-12.055.018-20.026a.693.693 0 0 1 .21-.49l2.096-2.037-10.64.022-.036 23.213a.694.694 0 0 1-.878.667c-18.65-5.174-40.611-8.035-63.51-8.273-14.845-.158-29.31.796-42.76 2.79a273.578 273.578 0 0 1 24.953-1.125zm105.302 23.077c-1.4 0-3.345-.771-6.124-2.393-20.012-9.642-47.971-16.226-78.73-18.54-23.31-1.756-48.115-.428-68.055 3.643a.694.694 0 0 1-.34-1.343l1.281-.39a.451.451 0 0 1 .03-.008c18.97-4.889 41.258-7.343 64.456-7.099 22.66.236 44.416 3.03 62.99 8.083l.037-22.995c0-.382.31-.692.69-.692l13.044-.027h.001a.692.692 0 0 1 .482 1.19l-3.118 3.032c-.083 7.055-.031 17.007-.018 19.25l5.2 2.152v-15.684c.013-4.853-.18-10.297-.527-11.01-.369-.734-1.35-1.491-1.72-1.738-2.135-1.21-7.777-4.385-8.585-4.739-3.817-1.661-5.674-3.987-5.674-7.11V119.35c.131-4.428 3.718-7.166 9.36-7.166h9.202c5.794 0 9.117 3.177 9.117 8.716l.057 14.713a.694.694 0 0 1-.69.697l-13.092.04h-.002a.692.692 0 0 1-.471-1.202l3.23-3.004v-11.697l-5.305-.043v21.547l7.473 4.107c7.942 3.825 8.8 11.956 8.8 15.276v33.29c0 1.685-.182 3.724-1.598 4.538-.396.228-.858.344-1.4.344z" fill="#EDAC09" fill-rule="nonzero"/><path d="M168.831 182.368l.038-23.903 13.043-.027-3.325 3.232c-.1 8.057-.019 20.013-.019 20.013l6.582 2.723v-16.721s.027-10.079-.6-11.322c-.541-1.076-1.978-2.018-1.978-2.018s-7.648-4.335-8.668-4.782c-3.25-1.414-5.26-3.373-5.26-6.475V119.35c.12-4.012 3.474-6.472 8.669-6.472h9.2c5.725 0 8.425 3.172 8.425 8.022l.057 14.716-13.091.04 3.452-3.21V119.76l-6.69-.054v22.657l7.848 4.313c6.663 3.2 8.424 9.807 8.424 14.659v33.29c0 4.75-1.755 5.587-8.105 1.875-19.636-9.465-47.631-16.257-79.004-18.617-24.85-1.872-49.308-.211-68.244 3.655l1.28-.39c18.21-4.693 40.382-7.329 64.278-7.077 23.71.247 45.662 3.297 63.688 8.298" fill="#0C2950" fill-rule="nonzero"/><path d="M132.517 57.944c2.156-.83 4.555-1.795 6.647-2.628 2.54-1.01 4.634-1.838 5.156-1.978 3.769-1.207 7.917-2.167 12.131-2.61 1.78-.416 3.531-.804 5.238-1.329 1.715-.523 3.403-1.182 5.002-2.135 7.716-4.61 1.756-14.766-2.789-18.093-3.384-2.485-7.445-5.026-11.595-6.767-2.616-.927-5.257-1.993-7.933-2.71-2.702-.722-5.486-1.1-8.376-.628-3.554.423-7.034 1.17-10.483 2.06-3.436.889-6.845 1.915-10.243 2.892l-9.004 3.098c-.268-.453-.552-.896-.825-1.327-5.49-6.38-12.777-10.829-19.493-15.337C81.124 7.478 72.61.712 53.546.68c-5.874-.01-8.626.88-13.975 2.219C28.87 5.585 23.059 9.845 13.774 14.516c-3.55 1.782-8.102 1.929-10.035 1.762 1.495 4.121 11.593 5.92 12.746 6.07-2.637.262-4.743-.114-7.228-.204.394 2.335 3.772 5.586 13.881 8.329 0 0-3.65.47-7.178.463 1.448 2.102 6.854 6.035 15.706 7.189-1.672.619-4.827.936-6.776 1.035.146 1.773 9.514 5.31 13.19 5.677 0 0-.715.772-8.205 1.038 1.31 2.263 10.375 6.08 21.352 7.112-1.866.643-3.208 1.286-6.257 1.649 1.082 2.494 9.15 4.088 13.608 4.606-1.684.753-3.49 1.075-5.508 1.318 1.269 3.092 9.365 4.888 13.768 5.073-.375.799-2.406 1.587-3.269 1.81 1.907 1.728 5.489 2.023 8.367 2.321.71.03 1.415.027 2.111-.004l-1.07.428c-4.515 2.128-8.557 4.967-12.598 7.843-1.331.442-2.129.916-3.526 1.484-3.854 1.577-5.6 3.595-7.705 6.82-1.516 1.346-3.016 2.695-4.638 3.858-3.07 2.543-13.57 10.556-16.016 10.232-1.445-.187-2.543-4.102-2.339-6.436.186-2.147.347-4.781-1-7.264 0 0-1.282-8.72-10.725-7.78.673.393.994.545 1.252 1.035-1.81-.985-4.73-1.532-6.801-.379.786.288 1.784.99 1.931 1.302-1.387.063-4.086-1.65-4.076-1.557.324 2.72 1.831 5.045 4.365 6.425-.789.08-2.03.037-2.634-.016.715.875 1.355 1.746 2.516 2.476 2.592 1.638 5.347 1.144 7.84.591 1.836-.41 4.084 1.36 4.084 1.36.426 2.119-.21 4.163-.425 6.212-.536 2.166-.384 4.935.692 6.831.534 1.321 2.073 3.381 4.251 3.776 1.485.267 3.471.5 9.123-1.403 4.588-1.544 13.113-6.263 13.113-6.263.568 3.733 1.743 7.899 3.306 11.208-1.662-.636-2.674-.866-4.302-1.156-1.424-.246-2.724-.295-5.027.217.703.24 1.004.389 1.24.67-.771.162-1.72-.05-2.669.576.596.11.836.327 1.3.806-.8.83-1.959 1.735-2.91 2.206-1.629-.251-3.682.096-5.075.793-1.184-.827-.636-1.93-.618-2.316-1.224.198-2.07 2.03-2.07 2.03s-.967.202-1.166.035c-.504-.717.556-1.988.28-2.023-2.152.582-3.548 2.12-4.273 4.402-.904 2.86.094 5.25 2.217 7.37 1.24 1.234 2.455 1.839 3.94 2.168-.493.948-.887 2.04-.964 3.2-.295.086-.855.284-.855.284s-.46-1.689.131-3.656c-3.198 1.015-2.99 6.162-2.99 6.162-.447 2.645.217 4.67 2.147 6.54 2.013 1.966 4.624 1.832 6.955 1.876 2.644-.505 4.049-2.45 6.453-3.228 1.444-.474 2.412-1.818 2.646-3.322.613-1.96-.564-4.338.106-6.39.243-.75.14-1.284.496-2.04 5.434 1.372 11.018 2.451 16.548 3.451 2.637.491 4.956-.679 6.807-2.292.412-.643.871-1.646.871-1.646 1.367-.631 2.433-1.128 3.388-1.846 1.754-1.302 3.982-2.134 5.272-4.274 3.088-4.11 5.499-8.012 8.384-12.318 3.826 1.423 8.98 2.653 13.244 1.667 1.03.62 4.12 2.94 6.401 3.964-.77.16-2.587-.082-2.587-.082 4.36 3.684 10.192 5.191 15.868 5.122-.422.643-1.358.993-2.043 1.478-.075.187.111.297.236.31 4.88.15 9.775-1.914 13.678-4.615 1.932-1.698 2.525-.572 3.937-.16a6.76 6.76 0 0 1 1.041.924c1.155 2.305 3.298 4.316 5.738 5.145 2.175 2.47 5.086 4.695 8.244 3.519 3.051-.34 5.662-2.202 7.583-4.624-1.645.909-4.42 2.038-5.852 1.896.003-1.345-.657-2.499-1.729-3.296-.768-.466-1.674-.664-2.553-.855-.274-.634-.52-1.265-1.074-1.783 1.074-2.063 2.938-3.662 3.49-5.944.816-.197 1.49-.266 2.429-.46l.995.412c.336.367.758.716 1.426.936.06.355-.097 1.172-.097 1.172s.381-.602.657-.88c.276.135.685.243 1.14.286.286.176.573.37.849.578.565.427.825 1.163.611 2.068-.7 3.015.476 5.097.476 5.097s1.112 2.858 2.692 3.13c1.275 1.053 3.51 1.474 4.432 1.003 2.472-.13 7.64-2.347 6.858-5.344-1.523 1.848-3.725 2.835-5.99 3.007.78-1.842-.698-3.89-1.956-4.799.738-.817.647-1.962 1.577-2.802 1.605-1.444 3.669-1.531 5.246-3.03 1.572.349 3.082.242 4.526-.383.755 1.143 2.083 1.575 3.42 1.321.33-.163.73-.178 1.055-.471 1.01 1.617.928 3.728.787 5.668 3.317-5.88-1.171-10.75-2.532-11.035.663-.513.738-.481 1.153-1.377 1.623 1.305 3.319 3.82 3.611 5.47.712-3.178-.676-6.29-3.436-8.08-.59-.32-1.247-.78-1.869-1.065-.693-.71-2.154-.331-2.154-.331s-1.975-.407-3.14.441c-1.077-.543-2.343-1.032-3.428-.248-1.461-.097-2.603 1.326-3.831 1.915-.78.63-1.104 1.595-1.358 2.399-.49.44-.852 1.04-1.331 1.526l-.96.681c-.077.02-.155.048-.239.064-.817-.125-1.661.342-2.264-.384l-.241-.023c-.114-.804-2.059-1.404-2.059-1.404s1.258-.867.647-1.69c.968.485 1.85 1.047 2.846 1.956l1.477-.856c-.868-1.314-2.137-2.389-3.56-3.07-1.072-.523-2.535-1.031-3.769-1.2-.9-.647-2.335-.233-2.335-.233s-.454-.125-.698-.09c-1.05.12-1.363.368-2.08 1.098-1.307-.251-2.386-.067-3.425.368-3.087-1.01-11.704-3.908-13.792-5.024-.466-.5-2.197-1.66-.847-3.497 2.175-2.373 4.531-5.146 7.73-5.908l2.767-.85c3.915 2.983 7.531 5.8 11.6 8.409.574.29 1.148.423 1.924.116 1.117-.452.095-4.485-.251-5.937.795.084 1.802.176 2.332 1.062 1.006 1.49.838 5.47.838 5.47 3.233-1.708 6.396-5.31 6.242-9.141.135-2.28-.577-4.85-2.316-6.45a4.404 4.404 0 0 0-1.082-1.363c.763-.942 1.082-1.783.847-3.063-.41-1.542-1.827-2.263-3.223-2.686a23.525 23.525 0 0 0-5.248-4.713c-.538-2.674-3.374-4.367-5.303-6.075-.438-.144-.711.158-.83.532-.046.519.46 1.368.46 1.368a.68.68 0 0 0-.3.62c.005.247.167.403.275.573-1.187-.682-9.244-4.005-18.315-6.328" fill="#0C2950" fill-rule="nonzero"/><path d="M150.806 116.764c.807.178 1.688.398 2.451.861a.585.585 0 0 1 .041.028c1.103.82 1.769 1.94 1.91 3.196 1.301-.095 3.51-.95 5.11-1.834a.52.52 0 0 1 .63.1 6.875 6.875 0 0 1-.082-.198c-.165-.309-1.207-2.439-.51-5.435.157-.667.008-1.212-.419-1.534-.225-.17-.463-.334-.71-.49a4.356 4.356 0 0 1-.81-.171 8.918 8.918 0 0 0-.375.54.519.519 0 0 1-.948-.377 6.66 6.66 0 0 0 .095-.713 3.712 3.712 0 0 1-1.216-.86l-.745-.308c-.354.07-.668.124-.974.176-.333.056-.652.11-.984.18-.405 1.364-1.227 2.488-2.023 3.579-.435.594-.882 1.206-1.249 1.845.379.447.602.935.808 1.415zm-118.22 9.74a6.955 6.955 0 0 0-.183 2.485 8.606 8.606 0 0 1 .686-2.322 8.577 8.577 0 0 1-.503-.164zm-1.184.626c-1.844 1.49-1.728 5.119-1.726 5.16a.531.531 0 0 1-.007.108c-.417 2.464.198 4.339 1.995 6.079 1.707 1.667 3.912 1.695 6.045 1.722.168.001.336.004.503.007 1.333-.267 2.33-.929 3.385-1.63.89-.59 1.811-1.202 2.955-1.572 1.195-.393 2.074-1.507 2.292-2.907a.514.514 0 0 1 .017-.075c.267-.854.147-1.837.02-2.879-.142-1.161-.289-2.362.088-3.518a4.47 4.47 0 0 0 .164-.785c.058-.398.118-.81.357-1.316a.518.518 0 0 1 .596-.282c5.63 1.422 11.507 2.54 16.513 3.444 2.104.393 4.228-.322 6.317-2.123.378-.606.793-1.51.797-1.52a.52.52 0 0 1 .254-.255c1.323-.611 2.368-1.094 3.294-1.79.525-.39 1.09-.738 1.636-1.075 1.302-.804 2.649-1.635 3.503-3.052a.427.427 0 0 1 .03-.044c2.215-2.947 4.069-5.772 6.032-8.761a413.466 413.466 0 0 1 2.336-3.534.519.519 0 0 1 .612-.198c2.873 1.07 8.377 2.706 12.946 1.648a.52.52 0 0 1 .384.061c.305.183.757.492 1.33.883 1.363.93 3.423 2.337 5.017 3.052a.52.52 0 0 1-.108.984c-.263.054-.617.07-.983.064 3.774 2.621 8.723 4.011 14.153 3.947a.52.52 0 0 1 .44.805c-.274.418-.685.714-1.12.978 3.923-.154 8.224-1.73 12.238-4.501 1.708-1.49 2.653-1.033 3.568-.592.262.126.532.256.833.344a.51.51 0 0 1 .158.077c.421.304.788.63 1.122.995a.5.5 0 0 1 .08.118c1.132 2.257 3.217 4.13 5.441 4.885.086.029.163.08.223.149 2.742 3.115 5.324 4.25 7.673 3.375a.509.509 0 0 1 .123-.029c1.882-.21 3.731-1.074 5.376-2.486-1.309.506-2.699.886-3.638.792a.52.52 0 0 1-.468-.518c.002-1.118-.53-2.133-1.5-2.862-.695-.415-1.548-.6-2.373-.78a.518.518 0 0 1-.367-.302l-.056-.129c-.236-.551-.459-1.071-.896-1.48a.52.52 0 0 1-.106-.621c.43-.826.979-1.576 1.508-2.302.834-1.14 1.622-2.219 1.938-3.524a.52.52 0 0 1 .383-.383 19.28 19.28 0 0 1 1.352-.263c.341-.058.693-.117 1.094-.2a.518.518 0 0 1 .303.028l.996.412c.07.03.134.074.185.13.256.28.599.594 1.204.793a.519.519 0 0 1 .308.273.517.517 0 0 1 .32.045c.228.113.587.201.959.237a.52.52 0 0 1 .222.074c.31.19.61.394.89.606.754.57 1.055 1.543.805 2.603-.642 2.76.413 4.703.423 4.723a.57.57 0 0 1 .031.065c.262.67 1.246 2.626 2.296 2.807a.52.52 0 0 1 .243.111c1.203.994 3.198 1.28 3.865.94a.516.516 0 0 1 .208-.056c1.673-.088 4.75-1.23 5.962-2.891a2.79 2.79 0 0 0 .335-.586c-1.45 1.26-3.308 2.023-5.361 2.179a.52.52 0 0 1-.518-.722c.645-1.525-.654-3.36-1.782-4.174a.52.52 0 0 1-.08-.771c.27-.299.406-.668.566-1.095.21-.563.447-1.202 1.047-1.745.85-.765 1.801-1.17 2.72-1.562.915-.39 1.78-.758 2.517-1.459a.521.521 0 0 1 .47-.13c1.508.335 2.884.22 4.207-.353a.52.52 0 0 1 .64.191c.594.9 1.647 1.31 2.828 1.108a3.39 3.39 0 0 1 .381-.135c.202-.062.36-.112.484-.222a.52.52 0 0 1 .789.11c.557.894.81 1.91.902 2.973.335-1.831-.069-3.386-.572-4.5-.821-1.817-2.144-2.955-2.622-3.055a.52.52 0 0 1-.211-.921c.089-.069.168-.128.238-.181.421-.317.456-.343.76-1.002a.52.52 0 0 1 .797-.187c1.095.88 2.186 2.245 2.924 3.566-.198-2.115-1.378-4.045-3.34-5.323-.237-.13-.484-.28-.724-.426-.366-.223-.745-.453-1.095-.614a.515.515 0 0 1-.156-.11c-.39-.399-1.348-.268-1.653-.19a.522.522 0 0 1-.233.005c-.017-.003-1.768-.348-2.731.353a.52.52 0 0 1-.54.044c-1.006-.509-2.053-.895-2.89-.29a.525.525 0 0 1-.338.096c-.776-.05-1.497.47-2.257 1.023-.403.293-.819.595-1.255.813-.654.557-.938 1.456-1.147 2.116a.518.518 0 0 1-.148.23c-.237.213-.449.48-.673.762-.197.248-.4.504-.636.743a.517.517 0 0 1-.07.058l-.96.682a.515.515 0 0 1-.164.077l-.062.018c-.068.02-.139.04-.212.055a.52.52 0 0 1-.178.003c-.211-.032-.446-.01-.695.01-.534.049-1.187.106-1.734-.408l-.047-.005a.52.52 0 0 1-.465-.445c-.034-.24-.875-.725-1.698-.98a.52.52 0 0 1-.141-.925c.17-.12.54-.458.585-.734.01-.058.008-.124-.06-.217a.52.52 0 0 1 .648-.776 12.306 12.306 0 0 1 2.678 1.782l.658-.38a8.5 8.5 0 0 0-3.03-2.438c-.91-.444-2.334-.978-3.614-1.153a.519.519 0 0 1-.233-.093c-.566-.406-1.555-.25-1.89-.156a.526.526 0 0 1-.279.002c-.178-.049-.414-.086-.488-.077-.923.106-1.13.284-1.783.948a.517.517 0 0 1-.468.145c-1.1-.21-2.065-.107-3.127.338a.518.518 0 0 1-.362.015c-.463-.152-11.385-3.73-13.875-5.06a.525.525 0 0 1-.135-.105 4.755 4.755 0 0 0-.206-.198c-.638-.594-2.131-1.986-.68-3.961a.523.523 0 0 1 .036-.044l.419-.458c2.07-2.27 4.416-4.844 7.556-5.6l2.753-.845a.52.52 0 0 1 .466.084l1.175.896c3.464 2.645 6.737 5.143 10.369 7.473.462.23.874.323 1.475.085.023-.01.638-.319-.518-5.134l-.048-.199a.52.52 0 0 1 .56-.638l.04.005c.852.09 2.02.212 2.676 1.295.782 1.173.92 3.517.932 4.842 2.721-1.713 5.327-4.827 5.19-8.212l.001-.052c.141-2.374-.682-4.687-2.149-6.037a.521.521 0 0 1-.114-.154 3.9 3.9 0 0 0-.953-1.195.521.521 0 0 1-.067-.724c.732-.904.928-1.592.743-2.62-.29-1.067-1.202-1.799-2.865-2.304a.518.518 0 0 1-.25-.167 23.122 23.122 0 0 0-5.134-4.609.52.52 0 0 1-.223-.331c-.39-1.933-2.136-3.339-3.826-4.7-.42-.338-.819-.659-1.196-.987a.391.391 0 0 0-.086.139c.013.25.226.729.39 1.004a.52.52 0 0 1-.137.684c-.08.06-.094.087-.09.186 0 .034.05.104.098.171.034.047.067.093.097.14a.521.521 0 0 1-.697.73c-1.183-.68-9.163-3.965-18.186-6.276a.52.52 0 0 1-.058-.99c1.767-.68 3.66-1.435 5.49-2.166l1.152-.46c2.597-1.033 4.632-1.836 5.201-1.993 4.136-1.324 8.237-2.207 12.192-2.625l.616-.143c1.58-.367 3.073-.714 4.556-1.17 1.942-.591 3.495-1.254 4.889-2.084 2.186-1.306 3.35-3.164 3.46-5.52.198-4.242-3.111-9.379-6.29-11.706-2.734-2.007-6.942-4.797-11.476-6.702-.691-.244-1.384-.5-2.079-.754-1.896-.697-3.857-1.418-5.8-1.938-3.09-.825-5.682-1.021-8.16-.618a.071.071 0 0 1-.021.003c-3.136.373-6.446 1.024-10.415 2.048-2.597.671-5.221 1.435-7.76 2.173-.819.238-1.638.477-2.457.712l-8.99 3.093a.52.52 0 0 1-.617-.227 39.152 39.152 0 0 0-.692-1.117l-.104-.164c-4.763-5.526-10.911-9.603-16.858-13.547-.84-.558-1.678-1.113-2.506-1.669-.445-.274-.943-.595-1.47-.934-5.066-3.262-13.543-8.72-30.646-8.75h-.092c-5.098 0-7.727.67-12.066 1.775-.537.137-1.098.28-1.69.428-7.866 1.975-13.033 4.787-19.015 8.044-2.096 1.14-4.263 2.32-6.675 3.534-3.153 1.583-7.104 1.915-9.388 1.862 2.146 3.089 9.953 4.733 11.932 4.99a.52.52 0 0 1-.015 1.033c-1.847.183-3.4.064-5.043-.061-.5-.038-1.01-.077-1.532-.107.677 1.61 3.332 4.565 13.313 7.273a.52.52 0 0 1-.07 1.018 67.37 67.37 0 0 1-6.142.455c2.098 2.151 7.22 5.193 14.67 6.165a.52.52 0 0 1 .114 1.003c-1.674.62-4.51.9-6.03 1.01.583.507 1.89 1.339 4.542 2.422 2.86 1.168 6.056 2.104 7.774 2.275a.52.52 0 0 1 .33.872c-.246.264-1.469.883-7.47 1.159 2.52 2.12 10.677 5.216 20.284 6.12a.52.52 0 0 1 .12 1.01c-.324.11-.632.222-.936.332-1.293.468-2.522.914-4.555 1.223 1.775 1.647 7.574 3.091 12.733 3.69a.52.52 0 0 1 .152.991c-1.57.702-3.247 1.037-4.868 1.26 1.867 2.32 8.493 3.95 12.937 4.137a.52.52 0 0 1 .449.74c-.373.794-1.684 1.412-2.619 1.765 1.81 1.067 4.605 1.353 6.912 1.589l.373.038c.67.027 1.36.026 2.05-.004a.52.52 0 0 1 .216 1.003l-1.056.422c-4.618 2.178-8.808 5.159-12.505 7.789a.52.52 0 0 1-.137.07c-.78.258-1.359.524-2.03.831-.444.203-.902.413-1.463.641-3.648 1.493-5.314 3.325-7.466 6.623a.525.525 0 0 1-.09.104l-.257.228c-1.407 1.25-2.863 2.543-4.41 3.654-.518.422-13.257 10.752-16.4 10.334-1.976-.254-2.99-4.69-2.788-6.996.198-2.285.289-4.707-.94-6.97a.52.52 0 0 1-.058-.173c-.003-.02-.329-2.108-1.75-4.044-1.625-2.213-3.965-3.34-6.97-3.364.08.1.153.214.222.345a.52.52 0 0 1-.708.7c-1.454-.792-3.576-1.228-5.294-.78.53.331 1 .722 1.142 1.022a.52.52 0 0 1-.446.742c-.991.048-2.439-.636-3.405-1.138.525 2.16 1.89 3.926 3.918 5.03a.52.52 0 0 1-.196.975c-.437.044-1.007.053-1.54.042.454.527.951 1.022 1.647 1.46 2.353 1.487 4.867 1.096 7.451.523 2.052-.457 4.417 1.38 4.517 1.459a.52.52 0 0 1 .188.306c.325 1.615.072 3.167-.172 4.668-.092.56-.186 1.14-.245 1.701a.513.513 0 0 1-.012.07c-.55 2.217-.293 4.809.639 6.45l.03.062c.483 1.197 1.91 3.106 3.862 3.459 1.232.222 3.096.558 8.864-1.384 4.491-1.511 12.943-6.179 13.028-6.226a.519.519 0 0 1 .764.377c.593 3.897 1.782 7.93 3.263 11.064a.52.52 0 0 1-.655.708c-1.6-.611-2.551-.833-4.208-1.129a10.074 10.074 0 0 0-3.382-.054c.029.03.057.06.084.093a.52.52 0 0 1-.29.844 5.62 5.62 0 0 1-.853.09 7.732 7.732 0 0 0-.628.052c.122.11.244.233.377.37a.52.52 0 0 1 .001.724c-.898.93-2.096 1.836-3.054 2.31a.518.518 0 0 1-.31.048c-1.474-.227-3.433.079-4.763.745a.52.52 0 0 1-.53-.04c-.804-.562-.983-1.256-.979-1.815-.45.416-.804 1.03-.94 1.323a.52.52 0 0 1-.365.29c-1.214.253-1.498.014-1.605-.076a.515.515 0 0 1-.092-.1c-.326-.464-.259-1.007-.11-1.47-1.398.67-2.393 1.913-2.963 3.708-.769 2.433-.085 4.672 2.089 6.844 1.097 1.092 2.199 1.699 3.684 2.028a.52.52 0 0 1 .35.748c-.539 1.036-.844 2.043-.907 2.994a.52.52 0 0 1-.372.464c-.278.082-.822.274-.828.276a.518.518 0 0 1-.674-.353c-.017-.061-.331-1.249-.112-2.812zm6.856 14.117h-.01a50.074 50.074 0 0 0-.552-.008c-2.228-.028-4.753-.06-6.756-2.016-2.026-1.963-2.76-4.172-2.304-6.947-.015-.575-.03-4.89 2.701-6.349a8.68 8.68 0 0 1-1.81-1.405c-2.475-2.473-3.243-5.056-2.345-7.896.806-2.537 2.365-4.134 4.633-4.747a.564.564 0 0 1 .627.27c.161.288.039.561-.116.906-.106.237-.286.64-.276.895a4.1 4.1 0 0 0 .44-.046c.307-.573 1.133-1.885 2.333-2.079a.521.521 0 0 1 .602.537 2.15 2.15 0 0 1-.06.365c-.111.501-.162.927.234 1.319 1.448-.64 3.355-.921 4.91-.722.699-.371 1.549-1 2.258-1.666-.209-.178-.366-.244-.652-.297a.52.52 0 0 1-.191-.946 3.326 3.326 0 0 1 1.298-.5.52.52 0 0 1 .303-.82c2.372-.526 3.76-.474 5.229-.22 1.269.226 2.169.418 3.242.77-1.199-2.823-2.168-6.19-2.73-9.501-2.09 1.135-8.656 4.636-12.553 5.947-5.556 1.87-7.68 1.728-9.38 1.422-2.527-.458-4.122-2.837-4.627-4.06-1.052-1.878-1.34-4.676-.736-7.15.062-.579.157-1.16.248-1.724.23-1.406.447-2.739.216-4.1-.506-.36-2.175-1.444-3.497-1.15-2.693.598-5.546 1.038-8.23-.658-1.117-.702-1.784-1.527-2.43-2.325l-.212-.262a.52.52 0 0 1 .447-.847c.232.02.563.039.923.05-1.805-1.453-2.93-3.49-3.215-5.879a.526.526 0 0 1 .227-.496c.275-.185.463-.084.966.185.22.119.56.3.948.49a.52.52 0 0 1 .267-.44c1.58-.88 3.591-.859 5.321-.4a.52.52 0 0 1 .43-.32c9.273-.922 11.086 7.14 11.272 8.125 1.324 2.494 1.232 5.063 1.022 7.483-.094 1.071.112 2.568.526 3.813.452 1.36 1.01 2.015 1.361 2.06 1.924.255 11.192-6.45 15.619-10.116l.029-.022c1.508-1.081 2.947-2.36 4.339-3.596l.204-.182c2.207-3.373 4.047-5.38 7.906-6.958.541-.22.99-.426 1.423-.624.65-.297 1.264-.579 2.06-.848 3.426-2.437 7.268-5.165 11.51-7.304l-.154-.016c-2.82-.289-6.327-.648-8.275-2.414a.52.52 0 0 1 .219-.89c.624-.16 1.5-.509 2.135-.872-4.496-.422-11.697-2.167-12.986-5.309a.52.52 0 0 1 .419-.714c1.098-.132 2.236-.298 3.346-.585-3.705-.58-10.73-2.009-11.86-4.615a.521.521 0 0 1 .414-.724c1.772-.21 2.96-.52 4.013-.868-9.665-1.268-18.066-4.648-19.496-7.115a.52.52 0 0 1 .431-.781c2.824-.1 4.659-.273 5.842-.441-1.708-.426-3.775-1.107-5.733-1.907-3.625-1.48-5.506-2.76-5.592-3.805a.521.521 0 0 1 .491-.562 40.58 40.58 0 0 0 4.173-.425c-7.361-1.495-12.05-4.872-13.505-6.984a.52.52 0 0 1 .428-.815c.025-.003.052 0 .078 0 1.547 0 3.122-.092 4.389-.195C11 27.247 9.04 23.99 8.745 22.231a.521.521 0 0 1 .531-.607c.78.028 1.525.085 2.246.14-3.335-.976-7.312-2.663-8.27-5.309a.521.521 0 0 1 .532-.695c1.875.161 6.328.013 9.757-1.71 2.397-1.205 4.556-2.38 6.645-3.517 6.045-3.29 11.265-6.132 19.259-8.139.591-.148 1.15-.29 1.686-.427C45.422.874 48.26.16 53.547.16c17.407.03 26.045 5.592 31.205 8.915.523.337 1.017.655 1.47.934.844.566 1.68 1.12 2.519 1.677 6.015 3.99 12.236 8.115 17.096 13.763a.87.87 0 0 1 .045.061l.124.196c.162.255.327.516.49.782l8.608-2.962.025-.008c.822-.236 1.644-.475 2.467-.714 2.545-.74 5.177-1.506 7.79-2.182 4.01-1.034 7.36-1.692 10.54-2.071 2.624-.426 5.35-.222 8.582.641 1.99.533 3.973 1.261 5.891 1.966.695.256 1.39.51 2.08.755l.028.011c4.634 1.944 8.922 4.786 11.702 6.828 3.395 2.485 6.928 8.007 6.715 12.593-.126 2.69-1.497 4.89-3.967 6.366-1.467.874-3.093 1.569-5.117 2.186-1.516.465-3.096.832-4.624 1.187l-.647.15a.529.529 0 0 1-.063.011c-3.898.41-7.945 1.28-12.027 2.589a1.04 1.04 0 0 1-.025.007c-.535.143-3.172 1.192-5.099 1.958l-1.15.46a640.73 640.73 0 0 1-4.01 1.59c7.104 1.929 13.37 4.36 15.883 5.483.03-.12.08-.23.147-.333-.172-.353-.385-.891-.346-1.334a.514.514 0 0 1 .023-.112c.12-.379.346-.669.635-.817a1.09 1.09 0 0 1 .852-.052.51.51 0 0 1 .182.105c.393.347.822.693 1.275 1.058 1.694 1.363 3.605 2.902 4.145 5.09a24.16 24.16 0 0 1 5.089 4.579c1.93.617 3.05 1.601 3.423 3.004a.474.474 0 0 1 .008.039c.218 1.182.026 2.109-.662 3.097.328.338.606.718.808 1.105 1.642 1.558 2.564 4.14 2.415 6.773.151 4.146-3.27 7.879-6.52 9.595a.518.518 0 0 1-.76-.481c.043-1.06-.005-4.053-.75-5.157a.344.344 0 0 1-.016-.024c-.266-.445-.713-.623-1.207-.716.75 3.24.94 5.331-.233 5.806-1.04.412-1.804.145-2.353-.134a.524.524 0 0 1-.045-.026c-3.678-2.357-6.973-4.873-10.462-7.537l-.962-.734-2.513.771a.579.579 0 0 1-.031.009c-2.838.677-4.978 3.024-7.047 5.294l-.4.438c-.812 1.124-.224 1.825.566 2.562.072.066.137.127.192.182 2.01 1.04 9.55 3.612 13.46 4.894 1.09-.425 2.139-.545 3.265-.374.667-.656 1.103-.93 2.199-1.056.24-.034.562.025.758.07.414-.093 1.617-.294 2.524.273 1.369.206 2.855.765 3.806 1.229 1.524.73 2.863 1.885 3.766 3.25a.521.521 0 0 1-.173.738l-1.477.856a.517.517 0 0 1-.61-.066 11.426 11.426 0 0 0-1.884-1.413 2 2 0 0 1-.31.564c.55.245 1.192.62 1.48 1.123a.52.52 0 0 1 .27.17c.208.25.44.256 1 .205.255-.022.54-.047.836-.016l.039-.011.85-.603c.184-.19.353-.403.53-.628.213-.266.431-.542.686-.788.24-.752.61-1.809 1.485-2.516a.512.512 0 0 1 .103-.065c.373-.179.751-.454 1.152-.745.79-.575 1.681-1.222 2.751-1.225 1.157-.731 2.422-.359 3.547.177 1.16-.647 2.72-.45 3.16-.377.412-.088 1.681-.283 2.464.427.379.18.756.41 1.122.633a16.526 16.526 0 0 0 .733.43c2.966 1.924 4.403 5.312 3.66 8.631a.52.52 0 0 1-1.018-.023c-.237-1.338-1.548-3.413-2.942-4.731a2.039 2.039 0 0 1-.357.452c.846.598 1.846 1.765 2.508 3.23.837 1.851 1.433 4.769-.478 8.156a.52.52 0 0 1-.97-.293c.125-1.724.186-3.51-.469-4.912-.115.046-.225.08-.326.111a2.163 2.163 0 0 0-.3.108.525.525 0 0 1-.132.044c-1.451.276-2.828-.182-3.692-1.201-1.322.489-2.731.595-4.198.314-.822.71-1.735 1.099-2.62 1.476-.88.375-1.71.73-2.431 1.378-.411.372-.586.84-.77 1.335-.122.328-.247.664-.441.986 1.087.95 2.2 2.591 1.948 4.288 1.963-.315 3.677-1.27 4.883-2.732a.519.519 0 0 1 .903.2c.236.903.033 1.829-.587 2.678-1.421 1.946-4.782 3.174-6.644 3.31-1.166.496-3.447.006-4.789-1.032-1.337-.33-2.292-2-2.715-2.892a.52.52 0 0 1-.11.375c-2.19 2.762-4.983 4.468-7.87 4.81-2.747.99-5.661-.215-8.663-3.583-2.401-.86-4.635-2.872-5.87-5.291a6.182 6.182 0 0 0-.845-.752 6.706 6.706 0 0 1-.903-.378c-.806-.389-1.25-.603-2.456.457a.528.528 0 0 1-.047.037c-4.584 3.17-9.554 4.844-13.99 4.707a.832.832 0 0 1-.656-.385.713.713 0 0 1-.045-.64.522.522 0 0 1 .181-.23c.24-.17.502-.32.755-.466l.143-.083c-5.78-.201-10.978-2.034-14.758-5.228a.52.52 0 0 1 .404-.913c.095.012.224.028.376.044-1.175-.7-2.356-1.506-3.247-2.114a50.51 50.51 0 0 0-1.107-.743c-4.585.979-9.92-.505-12.944-1.592a426.814 426.814 0 0 0-2.104 3.186c-1.968 2.997-3.827 5.829-6.055 8.795-.984 1.618-2.432 2.512-3.833 3.376-.552.341-1.073.663-1.56 1.024-.967.727-2.055 1.242-3.307 1.821-.154.324-.499 1.026-.824 1.534a.523.523 0 0 1-.096.111c-2.358 2.056-4.796 2.867-7.243 2.412-4.888-.884-10.608-1.97-16.131-3.347-.059.208-.088.408-.12.627-.04.28-.087.597-.204.957-.306.937-.18 1.973-.045 3.07.134 1.092.272 2.22-.048 3.278-.288 1.771-1.431 3.186-2.991 3.698-1.01.327-1.832.873-2.702 1.45-1.107.736-2.252 1.496-3.816 1.795a.508.508 0 0 1-.097.009z" fill="#0C2950" fill-rule="nonzero"/><path d="M127.003 58.146c1.72.074 3.439.174 3.99.313l.112.028c2.475-.938 5.497-2.146 8.059-3.17 2.54-1.012 4.634-1.839 5.156-1.979 3.769-1.207 7.917-2.167 12.131-2.61 1.78-.416 3.531-.804 5.238-1.329 1.715-.523 3.403-1.182 5.002-2.135 7.716-4.61 1.756-14.766-2.789-18.093-3.384-2.485-7.445-5.026-11.595-6.767-2.616-.927-5.257-1.993-7.933-2.71-2.702-.722-5.486-1.1-8.376-.628-3.554.423-7.034 1.17-10.483 2.06-3.436.889-6.845 1.915-10.243 2.892-2.602.894-7.854 2.705-10.432 3.587l-.133.046-.07.12c-10.99 19.406-8.68 27.127-1.93 29.784 3.253 1.279 7.439 1.311 11.277 1.069 3.802-.235 7.321-.767 9.361-.67.2.033.693.06 1.32.092.66.029 1.491.06 2.338.1" fill="#0C2950" fill-rule="nonzero"/><path d="M136.093 46.274c-1.534-.329-2.397-.679-3.733-1.505-1.386-.854-2.11-1.506-3.112-2.79-1.937.82-3.186 1.062-5.289 1.042-1.309-.013-2.061-.114-3.322-.457 2.016 1.212 3.25 1.779 5.49 2.5 3.725 1.203 6.06 1.49 9.966 1.21m-15.675-1.201a80.488 80.488 0 0 1-4.456-2.755 77.164 77.164 0 0 1-2.54-1.726l-5.55.179a15.2 15.2 0 0 0 2.05 1.525c3.562 2.283 6.476 1.76 10.496 2.777m8.395 3.757a12.715 12.715 0 0 1-2.627-.568c-1.458-.46-2.265-.83-3.552-1.658-1.629.097-2.557.09-4.188-.03a26.782 26.782 0 0 1-3.652-.487c2.215 1.657 3.755 2.348 6.455 2.92 2.892.613 4.713.568 7.564-.178m-11.558-.171c-1.671-.443-2.618-.96-3.882-2.14a7.82 7.82 0 0 1-1.039-1.146c-1.64.031-2.624-.18-4.115-.867-1.502-.692-2.305-1.32-3.352-2.608l-1.023 2.092c1.723 2.037 3.087 3.011 5.582 3.984 2.857 1.114 4.818 1.286 7.83.685" fill="#EDAC09" fill-rule="nonzero"/><path d="M108.636 30.723c.146 1.614.057 2.745-.387 4.08 1.661.797 4.87 1.745 6.02 1.524-.466.46-.91.777-1.391.995 1.943 3.035 5.416 3.527 9.39 3.887 2.495.228 4.124.087 6.326-.599-.503-.525-.988-1.11-1.537-1.778-1.615.011-3.211-.426-4.934-1.316-1.093-.563-1.678-.98-2.56-1.832 5.37 2.352 9.804 2.034 11.793 2.14-.998.435-1.942.725-2.862.882 2.646 1.557 3.68 2.464 6.284 3.52 2.768 1.12 5.176 1.49 7.41 1.908.36.044.726.09 1.11.127 1.604.18 2.962.286 4.258.316a24.603 24.603 0 0 1-1.859-.65c-3.592-1.419-4.664-2.718-6.582-5.076-2.259-.8-3.547-1.521-5.46-3.047 4.175 2.078 10.711 3.514 14.553 3.996-2.738.38-4.653.323-6.967-.284 2.422 1.478 4.189 2.327 5.768 2.948 1.805.71 3.861 1.673 6.472 1.727 4.031.08 8.7.294 9.685-3.623.604-2.375-.498-4.299-1.696-6.041-1.656-2.396-19.295-13.15-34.191-9.488-6.355 1.57-16.276 3.55-16.276 3.55 1.372-.365 20.835-7.213 28.572-6.221 12.816 1.644 34.854 12.245 24.433 22.403-5.032 2.946-12.497 2.552-18.021 4.216-2.624.747-10.879 3.799-17.696 6.523.617.127 1.166.248 1.934.417 1.42.316 2.362.544 3.56.85 4.713-1.794 9.377-3.52 10.433-3.803 3.793-1.21 7.953-2.176 12.193-2.616 3.452-.822 6.966-1.55 10.086-3.413 7.255-4.33 1.785-14.103-2.814-17.476-3.376-2.47-7.397-4.992-11.512-6.713-5.213-1.85-10.472-4.246-16.113-3.318-7.08.83-13.89 2.99-20.67 4.938-2.607.895-5.17 1.826-7.74 2.706.61 1.239.853 2.16.988 3.641" fill="#EDAC09" fill-rule="nonzero"/><path d="M105.917 39.624l6.769-.108-1.071-2.063c-2.14-.234-3.171-.688-3.975-1.185l-1.723 3.356m44.539 62.306s-15.864-4.521-16.514-6.89c0 0-.665 1.244-.936 2.096-.205.638-.381 1.667-.381 1.667l8.297 3.282-1.068.327 7.126 2.657.971-1.069.977-.794 1.528-1.276m8.471-27.147c-.198.078-.444.11-.641.18.37.22.579.38.898.7.251.259.378.428.576.742.758.233 1.172.438 1.813.9.514.364.779.61 1.185 1.092a9.231 9.231 0 0 0-1.84-1.026 9.834 9.834 0 0 0-1.593-.577 2.127 2.127 0 0 0-.544-.813c-.471-.47-.912-.685-1.532-.721a4.871 4.871 0 0 1-1.138.07c-1.194.472-.866 1.779-1.518 2.624-.896 1.495-2.568 1.734-3.999 2.314-1.301.297-7.445 2.045-8.378 2.94-.59.566.9.573 1.377.886 1.323.637 9.75 7.666 13.178 9.579.808.33 1.125.188 1.515-.102.827-.631-.48-5.339-.625-5.63-.173-.034-.763-.57-.828-.652.246 1.421.947 3.312.877 4.949-.204.44-.777.392-1.167.064 0 0-7.848-6.371-11.5-8.408l-1.329-.357s6.326-1.897 9.591-1.027c2.922.96 2.681 4.79 5.676 5.192.733.087 1.342.457 1.82 1.082.861 1.593.993 3.416.904 5.242 2.952-2.25 6.26-5.872 5.322-10.023-.517-3.46-2.884-6.406-6.18-7.813-.392-.686-1.182-1.199-1.92-1.407" fill="#EDAC09" fill-rule="nonzero"/><path d="M117.042 89.106c1.572-6.13-2.116-13.585-4.08-15.616-.712 1.175-1.775 2.729-1.937 2.885 1.507-3.26 3.352-7.624 2.797-10.514-.33-1.89-1.09-4.394-4.661-5.111.93-.096 2.14.36 2.365.431 6.054 1.92 1.853 9.623 10.486 12.427-3.477.327-6.729-2.285-6.729-2.285 1.407 4.016 6.025 6.364 9.853 6.973-1.766 1.11-5.278 1.123-7.072.68 4.621 3.405 11.49-.008 16.287 2.989-6.755-.866-9.8 4.186-15.066 2.708l-.78-.355c.374 1.513 1.85 2.223 3.244 2.458 4.913.833 7.462-2.028 12.385-2.81 1.397-.22 4.995-.028 4.995-.028-.812-.279-1.672-.524-2.167-1.024 1.512.324 2.708.111 3.868-.133.295-.062 1.935-.807 4.597-1.772 2.005-.735 4.526-1.335 6.86-2.138 1.557-.53 2.084-2.155 2.563-3.374-1.954-.13-2.665-.412-4.166-1.462-.412.772-.466 1.112-2.195 1.58 1.472-.767 1.442-1.267 1.62-2-.053-.035-.286-.293-.61-.524a3.82 3.82 0 0 1-.003.354 2.1 2.1 0 1 1-4.185-.367 2.087 2.087 0 0 1 1.43-1.81c-.34-.206-.684-.422-.795-.438-1.239.722-1.03 2.311-1.128 2.938-.32-1.114-.354-2.33.541-3.134-.746-.292-2.416.135-2.416.135s.338-.237.446-.339c3.715-1.412 6.223 2.357 9.386 3.656 2.207 1.05 5.681.617 7.9-.273-.463.3-.956.493-1.131.61.04.074.205.06.284.163 1.269-.29 2.981-1.319 4.131.184-.133-.094-.558-.35-.85-.308.098.68.033.95-.703 1.658.522-.87.452-1.244.32-1.644 0 0-.214 0-.35.029a1.75 1.75 0 0 0-.395.137c.19.425.125 1.078-.335 1.393l2.134 1.26c.655-.842 1.004-1.993.547-3.104-.292-.574-.82-.916-1.475-1.32a4.708 4.708 0 0 0-1.341-.58s-1.104-1.442-1.81-1.989c-5.368-5.032-24.958-11.398-28.689-11.92-5.389-.751-11.005-2.462-16.71-1.96l-1.751.246c-.593-.09-9.562 2.964-9.562 2.964-2.713 1.295-4.737 2.012-6.936 4.322-1.483 1.553-2.19 2.613-3.076 4.567.177-1.458.435-2.3 1.12-3.597.788-1.487.545-1.084 1.59-2.2 0 0-17.855 6.728-22.001 8.614-4.479 2.217-8.326 4.363-12.412 7.184.85.009 1.482-.027 2.433.05 1.878.151 2.875.253 4.752.112 1.556-.118 2.46-.35 3.867-1.023-1.384.878-2.245 1.28-3.804 1.782-3.262 1.058-6.165-1.07-11.644 1.142-3.197 1.116-6.633 5.658-7.352 6.917-.641 1.13-.94 1.819-1.323 3.062-.218-.743.122-2.479.19-2.699 0 0-2.546 2.031-3.694 2.77-4.777 3.777-9.473 7.12-14.714 10.031-.767.364-1.754.4-2.297-.015-1.035-.775-1.878-3.159-1.906-4.877-.037-2.28.392-3.884.01-6.146-.143-.864-.472-1.633-.938-2.6 0 0-.582-7.412-9.43-7.84.574.375.924 1.183 1.09 1.483-.6-.077-4.003-1.964-6.773-1.036.662.315 1.334.864 1.537 1.48-1.554.457-3.772-.896-3.772-.896.324 2.36 2.694 4.957 4.619 5.601-1.004.32-2.058.318-2.693.256l-.48-.104s.076.107.175.222l.04.056c.011.013.025.022.037.037.037.05.086.104.125.144.193.218.399.424.609.603 2.564 2.2 5.96 1.48 9.326 1.019 1.276-.05 1.648.305 2.26.738-2.276-2.58-7.855-.212-10.499-1.36-.74-.321-1.697-1.141-1.697-1.141.92.327 4.792 1.027 6.466.206-3.062.233-6.856-4.408-6.856-4.408s1.888 2.089 7.143 2.275c-.745-.99-2.215-1.586-3.376-2.063-.073-.115 5.922.519 8.21 3.065.661.73.924 1.235 1.422 2.088 3.189 5.415-1.935 11.085 1.486 16.146.177.454.545.786.889 1.177.518.146.948.217 1.59.286 1.192.12 1.882.102 3.067-.103l.894.91-.323.048c-1.113.154-1.857.157-3.06.024-.4-.047-.706-.084-1.019-.146.433.291.89.53 1.34.68 5.968 1.76 21.23-7.119 21.23-7.119-.039-.418-.302-.696-.488-1.045-3.982 2.773-7.562 4.41-12.118 6.198-1.94.613-3.79 1.252-5.885 1.408l.323-.049-.894-.91c.986-.183 2.019-.376 3.194-.735 5.26-1.61 8.463-4.104 12.474-6.598 1.113-.735 1.916-1.367 2.942-2.095.052-1.24-.197-1.454.23-2.373-.046.952.032 2.211 1.935 6.139.92 5.647 3.033 10.894 5.75 15.757-1.439-3.222-2.616-6.804-3.612-11.04-.381-1.629-.836-4.203-.836-4.203.68.378 1.303.663 1.994.923.474.147 1.058.293 1.532.253.885-.064 1.605-.321 2.134-.821-.21-.314-1.596-1.517-1.692-1.93 2.05 1.76 4.065 3.147 9.252 3.115-2.615.942-4.51.183-6.035.048.164 1.188.624 3.3.624 3.3-.831-1.197-1.136-2.257-1.677-3.602-.72.394-1.667 1.07-2.691.936-.166-.026-.427-.064-.708-.126.562 4.909-.116 11.49 3.96 16.876 1.376 1.82 2.424 3.097 4.037 4.046-.196-.338-.71-1.913-.183-2.22-.13 1.871 3.82 5.618 3.82 5.618-1.375-.839-2.511-1.566-3.38-2.896-.784-.069-2.954-1.53-3.663-2.402-3.012-1.279-5.968-2.597-9.126-3.469-2.157-.596-6.411-.742-6.086-.83 4.108-.265 7.79 1.028 11.915.277-.748-.822-.947-1.609-1.697-2.432l-1.14-1.464c-.756.01-1.484.006-2.269.299-3.09.938-6.474 1.962-9.723 1.098a6.643 6.643 0 0 0-1.283-.161c-1.612 0-2.671.56-3.79 1.658.453-.003 1.399.122 1.399.122s-1.102.695-1.91 2.213c1.43-.368 1.18-.047 1.18-.047-.141.735-.838 1.414.516 4.601 1.012 2.393-.432 4.792-.248 7.227.109.172.749.628.749.628-.521-.085-.879-.041-1.35.052-1.53.331-2.36 2.05-2.36 2.05-.005-.686.218-1.58.9-2.203-.65-.486-.846-.36-1.665-.329-1.416.067-2.23.695-3.063 1.967-.516 2.856.639 5.238 1.867 6.185 1.918 1.195 3.703 2.048 6.242 1.907 2.906-.157 4.214-2.637 6.686-3.307 1.153-.311 2.14-1.518 2.304-2.741.339-3.026-.928-5.513.457-8.293-.872-.29-2.672-.758-2.672-.758 1.708-.604 15.938 2.912 21.227 3.633 2.144.327 3.53-1.096 5.078-2.081l.155-.618c-.093-.053.766-2.28 1.409-3.241 1.12-1.366 2.316-7.037 2.425-7.893.361-4.454 2.257-11.338-2.554-14.337-.493-.31-1.326-.689-1.326-.689s2.42.373 3.287 1.469c-.562-.809-2.167-3.362-2.611-4.672 0 0 2.104 3.542 4.286 4.75 1.796 1 3.006 1.5 5.124 1.222-.937-.612-5.893-3.454-6.22-7.457 3.44 2.957 6.519 3.969 11.04 3.632 3.702-.272 5.994-1.226 8.787-3.644-.226-.49-.308-1.22-.517-1.725.378.3 1.346.999 1.346.999s1.112-.451.887-1.1c-.53-1.485-.974-3.332-1.344-4.933-2.047-.243-3.41-.735-5.312-1.889-1.166-.703-1.784-1.193-2.741-2.174 1.809 1.077 2.98 1.52 5.042 1.895.634.114 1.157.187 1.658.229-.835-.65-1.884-1.646-2.076-2.597 1.11 1.224 2.155 1.159 3.32 1.455-.04-1.475 1.015-4.261 1.169-4.248-.127 6.884 2.854 13.858 7.978 18.58.038.122-3.184-.723-4.615-1.172 3.054 3.846 6.872 7.139 11.29 9.232.046.151-2.847.346-5.122-.155 4.635 2.864 10.657 4.382 16.152 5.023 0 0 .005.585-1.8 1.195 2.817.417 5.414-.07 8.488-1.413 2.913-1.27 3.744-3.336 6.512-4.9.59-.336 1.388-.376 2.083-.206-.942-1.872-3.09-3.51-5.351-3.846 1.17.808 1.306 1.17 1.306 1.17-2.435-.874-4.9-1.773-7.137-3.155-2.74-1.97-6.94-8.555-7.878-9.928-2.873-4.636-12.816-3.49-13.527-3.389.446-.137.857-.248 1.255-.347-.265-.53-1.734-1.495-2.15-1.446.827-.115 1.081.008 1.768.193.347.096.61.216.842.38a8.47 8.47 0 0 1 .013-1.566c.195-2.214.78-3.574 2.255-5.244-.485 1.008-.694 1.623-.913 2.716-.346 1.77-.37 2.778.03 4.49 6.575-.547 9.42 1.73 9.42 1.73" fill="#EDAC09" fill-rule="nonzero"/><g transform="matrix(1 0 0 -1 7.505 140.3)"><mask id="b" fill="#fff"><use xlink:href="#a"/></mask><g mask="url(#b)" fill="#FFF" fill-rule="nonzero"><path d="M101.91 79.597c1.004.337 1.593.466 2.646.569 1.56.16 2.48.101 4.007-.255a11.805 11.805 0 0 1-1.475 1.567c-1.201 1.085-1.994 1.608-3.47 2.273 3.862.42 6.078.48 9.963.293 9.244-.465 14.409-2.303 23.05-5.609 5.411-2.062 8.887-2.756 13.408-6.374 1.702-1.36 2.608-2.217 4.048-3.853 1.263.12 2.24-.354 2.921-1.422.882-1.382.58-3.14-.72-4.152l-4.674 2.833-3.263-.424-2.262-3.392-10.905-3.885-2.963-2.165c-2.564.318-4.082.285-6.636-.132-3.671-.603-5.178-3.556-8.895-3.433-2.638.085-4.256.61-6.442 2.085.187 2.977.01 4.727-.768 7.597-.763 2.814-1.467 4.383-3.074 6.815.523 1.334.677 2.18.677 3.616-.003 1.96-.12 3.281-1.28 4.862-1.082 1.47-2.118 2.159-3.893 2.586"/></g></g><path d="M151.6 82.983l-1.12.068c.314.207.485.353.73.638.244.286.364.464.523.798l-1.942-1.39-1.472.092 4.82 3.224c.347-.802-.405-2.836-1.538-3.43" fill="#EDAC09" fill-rule="nonzero"/><path d="M139.461 66.571c-1.263-2.375-5.676-7.288-11.027-6.693-.52.06-.73 1.046 1.502 3.043 0 0-.655 1.524 2.048 3.763-.114 2.094 1.92 3.777 3.644 4.093-1.98-.967-2.89-2.286-3.184-3.597 0 0 .706.487 1.125.418 0 0-3.027-2.488-3.027-4.21 1.168 1.234 2.075 1.574 2.075 1.574-1.166-1.234-4.459-4.81-2.284-4.28 3.69.903 7.732 3.048 9.226 6.936 0 .094.222.595.295.862-.03-.554-.011-1.039-.157-1.359.814.147.66.106 1.426.514-.333-.396-1.137-.93-1.662-1.064" fill="#0C2950" fill-rule="nonzero"/><path d="M133.983 64.45c-.265-.099-.398-.175-.706-.211 1.328.909 2.721 1.693 2.516 3.258-.235 1.825 1.561 2.916 1.561 2.916-1.537-2.18-.982-2.547-1.088-3.05.536.56.94.827 1.356 2.332.26-1.146-1.299-4.386-3.639-5.245" fill="#0C2950" fill-rule="nonzero"/><path d="M131.559 86.808c-2.565 1.464-5.035 3.197-8.014 3.697-.232.112-.538.109-.806.132 5.595 1.084 9.415-2.851 13.833-4.837-1.759-.46-3.444.357-5.013 1.008" fill="#FFF" fill-rule="nonzero"/><path d="M100.906 107.039c-9.739.354-14.833-2.056-14.833-2.056 8.695 4.58 15.888 3.055 15.888 3.055-.52-.413-.692-.726-1.055-1m-14.436.038c-1.959 3.52-4.61 7.055-6.696 10.562-1.477 2.117-3.626 3.357-5.514 4.42l-.76 1.924c1.923-.964 3.658-2.156 5.487-3.367 3.692-4 6.252-8.569 9.298-12.971l-1.816-.568" fill="#EDAC09" fill-rule="nonzero"/><path d="M39.446 116.958c-.007 1.304-.78 2.431-1.74 3.244 1.125 1.809.896 7.119.896 7.119.555-2.288.443-4.744.238-7.28.742-.16 1.337-1.505 1.39-2.787a14.08 14.08 0 0 0 1.202-.38s-1.364.088-1.986.084" fill="#252979" fill-rule="nonzero"/><path d="M34.787 126.508c-.993.417-1.303 1.87-1.432 2.824l1.298-.516c-.137-.835-.14-1.346.134-2.308m-5.163 4.727c.712-.998 1.2-1.326 2.049-1.542-.409-.87-.237-1.94-.038-2.868-1.514.486-1.886 3.798-2.011 4.41" fill="#FFF" fill-rule="nonzero"/><path d="M160.564 75.01l.727-.188a.482.482 0 0 1 .114.408.508.508 0 0 1-.284.39l-.557-.61" fill="#EDAC09" fill-rule="nonzero"/><path d="M148.966 73.278a1.6 1.6 0 0 0-.065-.618c-.282-.284-.455-.458-.831-.696a5.108 5.108 0 0 0-.804-.415c-.765.06-1.39.661-1.458 1.452a1.584 1.584 0 1 0 3.158.277" fill="#FDE012" fill-rule="nonzero"/><path d="M148.34 73.066a1.1 1.1 0 1 0-2.193-.192 1.1 1.1 0 0 0 1.009 1.19c.6.054 1.133-.393 1.185-.998" fill="#252979" fill-rule="nonzero"/><path fill="#FFF" fill-rule="nonzero" d="M146.055 71.556l.944 1.426-1.607-.554z"/><path d="M91.174 99.354a4.718 4.718 0 0 1-1.618-1.69c-.394-.7-1.445-.102-1.049.595a5.809 5.809 0 0 0 2.027 2.115c.678.43 1.32-.592.64-1.02m-3.635.05a4.703 4.703 0 0 1-1.614-1.687c-.4-.7-1.444-.101-1.05.591a5.986 5.986 0 0 0 2.023 2.117c.68.424 1.32-.59.64-1.021m-3.338.013a4.623 4.623 0 0 1-1.616-1.69c-.398-.698-1.445-.1-1.046.6a5.95 5.95 0 0 0 2.02 2.113c.68.432 1.323-.593.642-1.023" fill="#EDAC09" fill-rule="nonzero"/><path d="M151.349 73.487c-.671-1.076-1.185-1.631-2.194-2.387-.755-.57-1.226-.83-2.102-1.177.868.22 1.353.414 2.132.843 1.323.732 1.717 1.631 2.919 2.545.603.465.874.766 1.577 1.133l-1.34-.246-.992-.711" fill="#0C2950" fill-rule="nonzero"/><path d="M134.097 113.879c-2.319 1.852-3.853 2.702-6.653 3.675-2.25.786-3.612 1.057-5.995 1.204l1.802-1.67c-3.304.135-5.238-.09-8.433-.962-3.093-.84-4.81-1.608-7.524-3.322 3.696 1.766 6.025 2.435 10.094 2.891 3.195.355 5.065.32 8.238-.16a7.1 7.1 0 0 1-.755.98 7.68 7.68 0 0 1-1.055 1c2.594-.548 4.037-.985 6.506-1.948a37.529 37.529 0 0 0 3.775-1.688m-35.515-12.985c-1.645-2.225-2.443-3.61-3.533-6.149 1.685 2.845 2.795 4.381 4.986 6.867 1.512 1.715 2.435 2.638 4.166 4.149a8.304 8.304 0 0 1-1.144.102c-.47.024-.747.013-1.215-.02 1.38 1.415 2.219 2.176 3.777 3.4 1.948 1.54 3.136 2.33 5.311 3.527-2.378-1.01-3.672-1.732-5.803-3.192-2.17-1.492-3.328-2.469-5.16-4.364.458.01.717.022 1.172.021.525.005.82.003 1.342-.01" fill="#EDAC09" fill-rule="nonzero"/><path d="M161.808 76.136c.4.154.622.241 1.007.427.473.225.738.371 1.187.642l-.27.223-1.924-1.292" fill="#252979" fill-rule="nonzero"/><path d="M156.765 77.597c.168-.387.135-.77-.07-.857-.111-.044-.265.01-.4.144-.22.165-.358.314-.523.567a2.137 2.137 0 0 0-.397 1.03l.551-.672c.014.161.073.291.174.334.205.083.503-.158.665-.546" fill="#0C2950" fill-rule="nonzero"/><path d="M174.864 99.684c.766.107 2.873 1.767 3.036 2.024.498-.167.852-.099 1.234-.189.024-.777.73-1.442.73-1.442-1.664-1.536-5-.393-5-.393" fill="#EDAC09" fill-rule="nonzero"/><path d="M180.102 100.765l-.065.109c.714.21 1.142.406 1.81.802.77.454 1.182.777 1.807 1.42-.89-.66-1.504-.943-2.584-1.193a5.57 5.57 0 0 0-1.036-.169c4.35 1.053 6.028 5.763 6.028 5.763.106-3.02-2.254-5.487-4.9-6.991-.668-.374-.787-.119-1.06.259" fill="#FFF" fill-rule="nonzero"/><path d="M165.96 105.093s3.38-4.595 6.84-4.355c.336.023.91-.938.91-.938-.65-.13-4.695-1.082-7.75 5.293" fill="#EDAC09" fill-rule="nonzero"/><path d="M174.494 99.919c-.471.021-.669.162-.828.367.606.164.947.308 1.493.636 1.123.672 1.689 1.296 2.267 2.471-.606-.915-1.1-1.383-2.058-1.92-.74-.415-1.231-.59-2.048-.705 4.215.894 5.424 6.899 5.424 6.899.736-6.074-3.1-7.251-4.25-7.748" fill="#FFF" fill-rule="nonzero"/><path d="M165.514 106.342c-1.48.702-3.362.242-4.469 1.854.108.041.013.167.035.247-.516.389-.8-.314-1.25-.353-1.033-.788-2.248-1.213-3.536-1.54-.814.197-1.187 1.106-1.542 1.8 2.086.9 4.24 1.65 6.071 3.047 1.064 1.62.246 3.93.541 5.747.314.719-.335 2.198.163 2.64 5.1 4.424 5.878 2.488 6.83 1.42.62-1.009.68-1.586.631-2.557-.075-1.608-2.47-3.274-2.405-3.35.206.147.365.183.482.147.42-.119.562-.666.763-1.318.863-2.74 4.071-2.726 5.93-4.356-.043-.138-.23-.044-.498-.26 0 0 3.84.401 5.195-.444-.079-1.589-.415-3.075-1.318-4.408-.696 1.22-2.11 2.356-4.932 1.362-1.22 1.395-4.862 2.09-4.862 2.09 1.4-.705 3.136-.962 4.35-2.269-.251-.177-.51-.348-.83-.72 1.288.477 4.383 1.57 5.941-.894-.525-1.384-2.029-2.508-3.466-2.934-3.468-.436-5.748 2.738-7.824 5.049m12.57-4.255c.892.997.947 2.01 1.117 3.122 1.864.117 2.854-1.96 2.854-1.96s-1.69-1.408-3.971-1.162" fill="#EDAC09" fill-rule="nonzero"/><path d="M179.87 106.336c2.445.721 4.707 3.846 4.512 8.142.709-1.998.95-7.291-3.463-9.123-.108.089-.325.163-.552.222.387.165.625.302.988.56.806.572 1.204 1.042 1.647 1.924-.746-.675-1.188-1.227-2.183-1.537-.368-.112-.641-.172-.95-.188-.151-.043-.151-.043 0 0" fill="#FFF" fill-rule="nonzero"/><path d="M179.35 106.585c.04.76-.322 1.804-.482 2.454.474.658 1.093 1.274 2.013 1.408.766.144 1.423-.062 2.024-.468-.165-1.163-1.975-3.11-3.555-3.394" fill="#EDAC09" fill-rule="nonzero"/><path d="M156.868 106.148l1.78.743c.398-.58 1.18-.645 1.815-.884-1.047-.892-2.562-.384-3.595.141m2.275.922l1.526.888 1.72-1.326c-.938-.594-2.155-.134-3.094.234l-.152.203m9.964 13.841c-.154.234-.357.473-.468.742a14.841 14.841 0 0 0 2.89-.773c-.555.354-.89.537-1.51.79a8.103 8.103 0 0 1-1.464.456.94.94 0 0 0 .057.238c1.818-.057 5.865-1.966 6.152-3.717-1.674 1.408-3.644 2.195-5.657 2.265" fill="#FFF" fill-rule="nonzero"/><path d="M182.24 108.631c-.62.172-1.018.183-1.64.05-.652-.143-1.023-.34-1.518-.779l.179-1.41c.552.128.86.254 1.344.548.769.456 1.16.837 1.634 1.591m-3.793-.864a7.467 7.467 0 0 1-1.544.532c-1.57.383-2.573.383-4.14-.013l.27.264a11.4 11.4 0 0 1-1.685 1.199c-.957.585-1.793.45-2.605 1.223-.73.708-.95 1.322-1.277 2.285-.309.921-.398 1.493-.373 2.47a1.348 1.348 0 0 0-.528-.396c-.403-.18-.709-.19-1.123-.047a.713.713 0 0 1 .49-.356.678.678 0 0 1 .425.006c.208-1.908.49-2.994 1.22-4.76a14.905 14.905 0 0 1 1.296-2.521c.898-.17 1.412-.381 2.175-.884a5.13 5.13 0 0 0 1.069-.903c.69.275 1.141.343 1.885.3 1.375-.09 2.276-.572 3.12-1.665.351.442.514.717.755 1.225.351.744.486 1.214.57 2.04m2.189-5.386a3.835 3.835 0 0 0-.971.203 3.9 3.9 0 0 0-1.064.486l-.643-1.05c.376-.112.598-.137.984-.133.687.014 1.083.128 1.694.494m-28.201-1.92c-1.75-.335-3.082.11-4.467.901-1.066.603-2.421 2.103-3.03 3.506-.736.79-2.416 2.452-2.416 2.452-.3.377-.844.737-1.398.794-.82-.164-1.756-.827-2.557-.197-.766-.57-2.116-.601-2.906-.272-1.755 1.017-2.968 2.806-3.766 4.567h-.054c-.054.248.247.22.382.334l.197-.222c2.386.634 4.775 1.18 6.585 3.107 1.155 2.305 3.298 4.316 5.738 5.145 2.175 2.47 5.086 4.695 8.244 3.519 3.051-.34 5.662-2.202 7.583-4.624-1.645.909-4.42 2.038-5.852 1.896.003-1.345-.657-2.499-1.729-3.296-.768-.466-1.674-.664-2.553-.855-.274-.634-.52-1.265-1.074-1.783 1.074-2.063 2.938-3.662 3.49-5.944.968-.235 1.73-.288 2.973-.578.435.522.887 1.141 1.877 1.466.06.355-.097 1.172-.097 1.172s.381-.602.657-.88c.85.413 2.911.568 3.84-.606.743 2.168 1.425 5.86 1.485 7.232 1.674-3.284 1.268-8.852-1.616-11.3-.054-.825-2.064-1.448-2.064-1.448s1.258-.867.647-1.69c.968.485 1.85 1.047 2.846 1.956.327.303.679.679 1.009 1.079.203.263 1.069-.118 1.095-.66-.735-1.893-2.331-3.454-4.187-4.345-1.072-.523-2.535-1.031-3.769-1.2-.9-.647-2.335-.233-2.335-.233s-.454-.125-.698-.09c-1.05.12-1.363.368-2.08 1.098" fill="#0C2950" fill-rule="nonzero"/><path d="M132.382 112.196l.457.122c2.22.585 4.514 1.19 6.247 3.035l.018.027c1.178 2.35 3.352 4.3 5.674 5.088l.029.01.02.022c2.865 3.255 5.597 4.429 8.12 3.489l.026-.007c2.589-.288 5.111-1.756 7.154-4.15-1.597.814-4.041 1.782-5.42 1.645l-.102-.01v-.101c.003-1.258-.595-2.397-1.683-3.205-.749-.454-1.645-.648-2.511-.836l-.056-.012-.078-.181c-.254-.592-.493-1.15-.993-1.618l-.062-.059.04-.075c.416-.8.954-1.537 1.475-2.25.859-1.174 1.67-2.284 2.005-3.669l.016-.066.066-.016c.473-.115.898-.187 1.348-.263.486-.081.989-.166 1.626-.315l.067-.016.145.174c.394.478.842 1.02 1.726 1.31l.064.022.012.067c.03.18.009.466-.021.714.122-.17.266-.357.391-.484l.056-.057.072.035c.819.399 2.812.553 3.702-.574l.127-.16.067.194c.697 2.03 1.309 5.27 1.46 6.836 1.405-3.216.982-8.448-1.768-10.783l-.036-.03-.003-.048c-.04-.613-1.447-1.18-1.986-1.348l-.22-.068.19-.131c.006-.005.668-.468.756-1.003a.666.666 0 0 0-.136-.527l.14-.168a12.024 12.024 0 0 1 2.871 1.973c.334.31.687.686 1.02 1.09.042.055.17.058.312.014.266-.084.556-.315.584-.585-.702-1.787-2.204-3.34-4.123-4.261-.936-.457-2.408-1.008-3.735-1.19l-.028-.003-.022-.016c-.848-.609-2.225-.221-2.239-.217l-.03.008-.03-.008c-.12-.033-.47-.113-.653-.087-1.04.12-1.33.367-2.016 1.065l-.043.043-.058-.011c-1.865-.357-3.212.215-4.39.888-1.104.623-2.414 2.14-2.983 3.453l-.021.031c-.729.784-2.402 2.439-2.42 2.455-.285.361-.856.763-1.465.826l-.017.002-.016-.004a5.374 5.374 0 0 1-.697-.21c-.634-.22-1.232-.43-1.769-.007l-.067.053-.069-.052c-.733-.546-2.037-.574-2.796-.259-1.47.853-2.757 2.415-3.707 4.51l-.023.052a.64.64 0 0 0 .115.048c.036.013.075.026.112.044l.182-.205zm18.845 12.332c-2.089 0-4.284-1.29-6.549-3.857-2.36-.811-4.567-2.791-5.766-5.176-1.688-1.79-3.845-2.358-6.13-2.96l-.325-.087-.224.253-.083-.07a.48.48 0 0 0-.136-.062c-.119-.042-.34-.12-.283-.382l.02-.088h.071c.966-2.105 2.273-3.678 3.782-4.552.803-.335 2.134-.332 2.96.23.617-.43 1.304-.19 1.914.024.227.08.442.155.65.198.538-.061 1.043-.42 1.306-.75.025-.026 1.676-1.659 2.408-2.444.59-1.348 1.935-2.9 3.07-3.541 1.202-.687 2.577-1.273 4.484-.924.71-.72 1.048-.967 2.106-1.089.224-.031.6.058.71.086.22-.058 1.506-.362 2.377.243 1.347.187 2.831.744 3.776 1.205 1.978.95 3.524 2.556 4.243 4.405l.009.022-.002.025c-.019.384-.388.698-.742.81-.25.078-.45.046-.554-.088-.325-.394-.67-.763-.996-1.065a11.726 11.726 0 0 0-2.52-1.783.874.874 0 0 1 .017.377c-.074.446-.453.826-.68 1.018.529.186 1.834.714 1.937 1.432 1.35 1.165 2.245 3.073 2.522 5.38.257 2.148-.084 4.4-.914 6.027l-.211-.046c-.055-1.266-.682-4.781-1.418-7.016-.986 1.023-2.893.901-3.768.52-.259.285-.586.8-.59.805l-.204-.081c.001-.008.135-.708.105-1.067-.901-.315-1.358-.869-1.762-1.358l-.055-.067c-.612.14-1.1.223-1.573.302-.425.072-.827.14-1.266.244-.356 1.398-1.204 2.559-2.025 3.682-.5.684-1.016 1.39-1.42 2.146.494.488.743 1.07.985 1.634l.032.075c.866.188 1.759.388 2.531.856 1.126.836 1.753 1.999 1.782 3.288 1.339.07 3.904-.906 5.687-1.89l.142.168c-2.135 2.692-4.85 4.348-7.645 4.664a5.117 5.117 0 0 1-1.785.324z" fill="#0C2950" fill-rule="nonzero"/><path d="M152.8 100.543l2.775 1.159s-.068-1.324 1.125-1.929c-3.338-.905-3.9.77-3.9.77" fill="#EDAC09" fill-rule="nonzero"/><path d="M157.466 100.05c-.517-.027-.68.087-.926.424 1.253.278 1.97.5 3.174.98 1.05.433 1.637.714 2.608 1.285-.898-.478-1.442-.696-2.43-.967-1.022-.293-1.758-.427-2.634-.459 3.203.398 6.04 2.202 8.064 5.147-.265-3.506-4.558-5.807-7.856-6.41m-6.486 2.34c.36.466 1.421.188 2.198.44 2.808.899 4.994 3.927 4.95 7.043l-.002.135c.698-1.051.552-4.003-.249-5.28-.546-.987-2.851-2.92-3.24-2.971-.972-.594-2.871-1.398-3.718-.126a.538.538 0 0 1 .2-.067c2.435.053 4.085.887 5.584 2.818 1.382 1.786 1.813 3.446 1.437 5.602l-.011-.11c.162-1.805-.233-3.135-1.37-4.663-1.498-2.02-3.332-2.914-5.778-2.82" fill="#FFF" fill-rule="nonzero"/><path d="M146.27 103.547c.455-.55 3.16-2.355 4.427-2.019 0 0 .57-.96 1.35-.89-3.677-.675-5.002 2.11-5.776 2.91m9.766-1.466c.937.693 2.024 1.823 2.57 2.889.693-.478.91-.795 1.248-1.286.384-.855-.333-1.377-.99-1.599-.793-.188-1.724-.507-2.627-.427l-.2.423" fill="#EDAC09" fill-rule="nonzero"/><path d="M148.595 102.648c-1.783.558-2.719 1.861-3.766 2.966-1.153 1.782-2.822 2.306-4.553 3.294-.517.413-1.27-1.37-1.71-.992-1.51-.713-3.006-1.284-4.764-1.42-.99.714-4.718 4.401-5.325 5.365 5.565-1.095 8.996 1.449 10.806 3.238 1.098 2.226 3.049 4.185 5.41 4.895 2.14 2.06 4.56 4.785 7.72 3.878 1.33-.38 2.283-2.037 1.758-3.633-.571-1.745-2.446-2.559-4.15-2.639-.22-.795-.52-1.653-1.18-2.174 1.155-1.954 2.854-3.796 3.568-5.996l-.524.124c.495-.639 3.744-1.06 3.744-1.06s.051-.03-.206-.402c.934.415 1.312 1.37 2.249 1.672-.006-.771-.011-1.12-.285-1.783-.579-1.603-1.079.076-1.958.132-1.05.11-2.69.824-3.817.717.002 2.468-1.892 4.316-3.155 6.349.054 1.21 1.428 1.9 1.234 3.218.852-.276 2.004-.139 2.721.52.19.387.52.692.387 1.212-.333.47-.963.468-1.512.524-.936-.168-4.288-1.923-4.288-1.923.249-1.68-1.069-2.663-.409-4.347.685-1.978 1.95-4.182 1.263-6.216-.11-.003-1.111-.054-1.111-.054.603-.103 1.747-.293 2.348-.422.387-.089.806-.214 1.125-.65 0 0-.284-.198-.432-.363-.222-.246-.417-.74-.417-.74.925.698 2.091 1.455 3.428.853.83-.549 1.712-1.374 1.896-2.46-1.104-1.052-2.126-1.203-3.552-1.232-.398-.003-.508-.677-.75-.757-.476-.162-1.12.095-1.793.306" fill="#EDAC09" fill-rule="nonzero"/><path d="M154.771 105.803c.444.24.955.184 1.459.18-.125-.297-.63-.845-.931-1.123l-.528.943m4.015-.415l.33.973s.798-.798 2.251-.617c-1.299-1.117-2.58-.356-2.58-.356" fill="#EDAC09" fill-rule="nonzero"/><path d="M150.819 107.31c-.715.36-1.537.907-2.446.992.828 2.942-1.707 4.847-1.453 7.735.547.574.382 1.455.409 2.223 1.428 1.046 3.078 2.36 5 1.734.167-.439-.244-.827-.577-1.076-.633-.215-1.51-.441-2.11-.051-.747-.029-.227-.798-.47-1.266-.22-1.127-1.757-1.595-.988-2.888 1.314-1.897 3.103-3.686 3.019-6.085.66-.515 1.455-.05 2.197-.381.578-.193 1.158-.358 1.704-.66.138-.247.222-.716.603-.556.355.389.744.144 1.237.225.084-.304-.22-.601-.384-.876-.658.02-1.48.332-2.064-.246-.931.903-2.276 1.591-3.677 1.175" fill="#0C2950" fill-rule="nonzero"/><path d="M160.618 107.122c2.813 2.073 3.173 8.667 3.173 8.667.663-3.05.46-7.16-1.818-9.272-.36-.266-.795-.31-1.217-.203.327.338.527.575.83.986.614.844.898 1.379 1.253 2.36-.446-.961-.85-1.47-1.675-2.136a7.846 7.846 0 0 0-.546-.402" fill="#FFF" fill-rule="nonzero"/><path d="M158.591 110.283c2.048.776 3.19-.905 3.19-.905s-.939-2.1-2.665-2.532c.027 1.097.054 2.445-.525 3.437m-21.359-.801c.525.152 1.04.29 1.591.623.411-.64 1.65-.964 2.386-1.325-.354-.354-4.962-2.783-5.484-2.678-.63.195 1.916 2.827 1.507 3.38" fill="#EDAC09" fill-rule="nonzero"/><path d="M154.944 121.903s-.062.451-.18.713a2.177 2.177 0 0 1-.087.156c.24-.047.427-.084.706-.154.525-.123.82-.212 1.33-.4a7.24 7.24 0 0 1-1.346.592 8.79 8.79 0 0 1-.945.267c-.21.218-.43.376-.43.376 2.005-.35 3.447-1.372 4.93-2.747-1.291.687-2.465 1.114-3.978 1.197" fill="#FFF" fill-rule="nonzero"/><path d="M165.953 104.438l-.636.624.049 1.343-.685-.811-.535.367c.486.462.724.77 1.052 1.358.284.506.411.825.55 1.396.291-.777.391-1.248.437-2.068.044-.86-.008-1.37-.232-2.21M39.57 2.899c-10.7 2.686-16.51 6.946-25.795 11.617-3.55 1.782-8.102 1.929-10.035 1.762 1.495 4.121 11.593 5.92 12.746 6.07-2.637.262-4.743-.114-7.228-.204.394 2.335 3.772 5.586 13.881 8.329 0 0-3.65.47-7.178.463 1.448 2.102 6.854 6.035 15.706 7.189-1.672.619-4.827.936-6.776 1.035.146 1.773 9.514 5.31 13.19 5.677 0 0-.715.772-8.205 1.038 1.31 2.263 10.375 6.08 21.352 7.112-1.866.643-3.208 1.286-6.257 1.649 1.082 2.494 9.15 4.088 13.608 4.606-1.684.753-3.49 1.075-5.508 1.318 1.269 3.092 9.365 4.888 13.768 5.073-.375.799-2.406 1.587-3.269 1.81 1.907 1.728 5.489 2.023 8.367 2.321 7.125.233 13.344-2.137 18.888-5.66 2.34-.08 5.978-1.265 9.441-3.362.958-.424 1.92-.563 3.152-.933 2.54-.76 2.473-1.982 6.504-2.018 1.196-.015-.993-.348 4.367.858-2.87-2.282-4.334-3.43-6.654-5.664-2.315-2.204-5.034-5.472-5.09-8.792 1.23-4.165 4.73-7.548 5.312-11.924.206-2.393-1.174-4.524-2.413-6.48-5.49-6.38-12.777-10.829-19.493-15.337C81.124 7.478 72.61.712 53.546.68c-5.874-.01-8.626.88-13.975 2.219" fill="#0C2950" fill-rule="nonzero"/><path d="M17.634 13.466a33.708 33.708 0 0 1-7.717 2.936c13.31.414 22.751-9.336 35.275-10.842 3.905-.749 12.266-.21 13.322.085 0 0-13.06.016-20.969 3.296-2.631.958-16.627 9.049-28.024 8.422-1.898-.103-3.295-.355-4.846-.544 2.338 3.939 20.67 6.345 29.683 6.907.031.056-10.76-.011-15.873-.887-3.314.721-5.75.12-8.627-.15 5.497 8.04 32.575 8.516 32.575 8.516-6.32 1.207-11.94.446-17.618-.37 0 0-5.146.901-7.44.468 9.405 7.938 28.326 5.95 33.881 5.51.123.08-12.768 2.16-17.891 1.517 0 0-3.956 1.755-7.13 1.245 2.754 1.966 12.053 5.57 31.076 5.247.128.144-11.595 1.363-16.978.41-3.051.801-3.798 1.397-9.147.899 4.188 4.654 27.941 6.823 34.83 6.137 0 0-7.416 1.237-12.773.728-2.566 1.033-3.096 1.539-6.92 1.969 5.384 4.027 26.73 3.532 29.001 3.314.068.086-9.88 1.456-14.207 1.133-1.896.67-6.365 1.696-6.573 1.733 6.615 4.56 18.606 3.062 25.26 1.55 0 0-7.775 2.568-11.227 2.843-.821 1.006-2.152 1.47-3.359 1.986 7.768 3.244 16.985-.162 23.889-3.513-2.51-.203-6.788-1.025-8.036-3.408 2.324-.504 4.772-1.257 5.815-1.656-4.91-.703-11.669-3.018-14.272-5.827 0 0 3.21.172 4.293-.038-4.431-1.116-11.309-5.178-13.513-7.802 1.413.012 3.695-.074 4.813-.074-4.11-.793-12.183-7.795-11.369-7.776l4.445.455c-3.107-1.254-7.135-3.234-8.87-6.781 1.387-.027 5.475-.018 5.475-.018-2.91-.9-6.704-2.485-8.688-5.247 1.008.322 5.303-.124 5.303-.124-2.587-1.04-5.435-1.859-7.737-3.79 2.912 1.265 8.728 3.71 12.964 4.09.07.207-5.446.738-8.005.72 2.64 2.187 9.583 4.747 18.436 5.1.242.076-13.984.728-16.005.041C57.323 36 65.82 38.236 73.592 39.2c0 0-8.908.105-13.93-.658 3.983 4.619 13.064 6.67 19.412 7.55 0 0-6.615.836-13.56-.254 0 0 8.594 5.876 19.6 7.943.097.176-7.875.44-10 .209.992 1.31 10.681 4.447 15.508 4.295 0 0-.894.929-7.868 2.554 0 0 8.273 3.95 13.742.34l1.615-.874c-2.918-.42-6.387-1.935-7.576-4.912 1.448-.447 4.314-.133 5.547-.924-3.622-.034-11.294-3.404-11.865-5.953 1.023.082 3.648.196 5.258-.167-3.956-.787-8.568-4.238-10.232-7.064 1.941.35 3.277.373 4.969.405-3.006-.958-7.792-4.866-9.004-7.285 2.205.61 4.615.636 6.92.937-3.939-1.575-11.382-7.373-11.04-7.659 1.363.282 2.255.392 3.483.298-1.879-.716-5.163-3.62-5.163-3.62 2.86 1.689 6.116 3.42 9.46 3.997.07.182-5.179.412-5.179.412 5.23 5.008 12.066 6.88 19.335 7.448.07.147-9.642.9-15.648-.689 4.715 5.809 17.082 7.343 17.082 7.343-3.314.493-9.886.108-13.475-.651 3.743 5.231 14.67 6.727 14.67 6.727l-9.33.653c3.054 3.712 12.449 4.825 12.449 4.825-1.459.997-4.651 1.808-6.426 1.81 1.391 1.827 3.125 2.549 5.425 2.7 2.453.26 4.718-.024 6.844-1.173-3.403-1.666-6.063-5.058-6.89-8.785-1.88-6.717 2.294-10.213.95-16.528C95.632 18.177 70.141 7.786 70.561 7.79c9.167 3.42 31.213 14.345 30.674 26.335-.208 4.584-2.297 7.423-2.445 11.504.07 5.431 4.05 9.971 8.74 12.39.759-.005 1.692-.298 4.287.154 1.412.25 1.634.304 3.454 1.32l-1.477-1.304c-7.283-3.493-10.538-8.164-11.915-12.725-.925-3.079 6.934-11.072 4.724-16.39-3.185-6.744-9.218-10.245-16.403-15.16C80.045 6.96 73.261 3.365 61.057 1.83 43.668-.358 30.424 6.183 17.634 13.466" fill="#EDAC09" fill-rule="nonzero"/><path d="M109.837 58.651a11.846 11.846 0 0 1-1.748-.501 11.62 11.62 0 0 1-1.818-.812l-.614.8a11 11 0 0 0 2.045.425c.826.1 1.302.123 2.135.088M151.3 74.166a3.074 3.074 0 0 0-2.789-3.338 3.085 3.085 0 0 0-.538 6.147 3.075 3.075 0 0 0 3.327-2.809" fill="#0C2950" fill-rule="nonzero"/><path d="M150.554 73.95a2.466 2.466 0 0 0-.1-.919c-.417-.414-.677-.67-1.237-1.033-.425-.274-.792-.437-1.201-.616a2.37 2.37 0 0 0-.027 4.721 2.373 2.373 0 0 0 2.565-2.153" fill="#EDAC09" fill-rule="nonzero"/><path d="M149.623 73.636a1.65 1.65 0 0 0-1.493-1.784 1.647 1.647 0 0 0-.287 3.28 1.647 1.647 0 0 0 1.78-1.496" fill="#0C2950" fill-rule="nonzero"/><path fill="#FFF" fill-rule="nonzero" d="M146 71.204l1.41 2.11-2.392-.815z"/><path d="M48.116 98.652s-.016-1.984-.131-3.296c-.114-1.31-3.886 2.518-3.886 2.518s-6.012 3.828-6.15 3.877c-.132.06-5.57 1.758-5.897 1.796-.33.03-4.278.66-4.38.69-.097.019-3.308.012-3.133.275.173.264.991 1.26 1.391 1.487.404.233-.484-.01 1.27.476 2.025.558 2.721.295 5.48-.438 2.756-.732 7.713-2.862 9.272-3.669 1.565-.806 4.46-2.34 5.118-2.9a16.93 16.93 0 0 1 1.046-.816m-10.573 29.096c.122-.284-.28-8.13-.28-8.13l1.397-3.534 3.88-.356-.26 1.857s-.605 8.053-.73 8.337c-.123.285-4.007 1.826-4.007 1.826m17.16-11.946c.738 1.168 3.699 4.534 4.067 5.126.363.588-2.286.805-2.286.805s-6.672-1.975-6.766-1.983c-.101-.009-6.275-1.363-6.275-1.363l-.878-2.19s4.012-.234 4.174-.25c.167-.017 3.583-.14 3.71-.128.126.01 4.254-.017 4.254-.017m.28-2.731c.386.828.008.378.884 1.878.877 1.505.643 1.278 1.77 1.84 1.122.558-2.12-10.312-2.37-11.757-.252-1.45-.799-1.417-.973-3.24-.18-1.819.135-2.089-1.285-2.628-1.42-.55-2.109.148-2.247-.198-.14-.348.384 3.77 1.03 5.461.651 1.702.378 1.461 1.111 3.627.734 2.166 1.365 3.564 1.686 4.178.33.624.394.84.394.84" fill="#EDAC09" fill-rule="nonzero"/><path d="M57.75 101.55c-.172-.454-.313-1.203-.672-1.488-.35-.284-3.286.258-3.286.258l.034 2.482 1.807.412 2.117-1.664" fill="#FDE012" fill-rule="nonzero"/><path d="M66.018 94.167c-.57 2.667-5.345 18.536-5.345 18.536l-8.881-8.276.543-8.743 12.093-2.671 1.59 1.154m43.197-6.914c-1.22.155-.23-.28-2.227.763-1.994 1.037-3.314 1.267-3.674 1.407-.357.142-1.761-2.579-1.761-2.579l3.027-4.936 3.303-3.175 1.316 2.804.016 5.716" fill="#EDAC09" fill-rule="nonzero"/><path fill="#EDAC09" fill-rule="nonzero" d="M66.488 99.971l-1.173 4.49-4.146-1.056.06-3.634 5.259.2M53.3 122.861c2.719 0 4.795.52 6.283 1.563 1.333.995 1.95 2.273 1.95 3.977v44.352l1.678 2.411s-3.123.448-5.113.775c-2.002.328-5.12.908-5.12.908l1.185-2.872-.122-22.383h-4.57l.92-5.193 3.65.01v-16.658h-5.44v45.386l1.617 2.268s-3.146.664-5.148 1.132c-2.042.48-5.219 1.303-5.219 1.303l1.258-2.982.054-51.897-1.856-2.119 13.993.02zm-33.094 66.313l6.913-4.045.02-25.667 9.381.057-.008 27.655c-2.605 1.268-17.043 9.837-17.043 9.837-5.542 3.76-8.338 3.436-8.338-1.565v-73.682c0-4.877 3.333-7.938 8.353-7.938h8.915c5.542 0 8.113 2.563 8.113 6.375v16.83l-11.6-.041 2.327-4.18v-12.013l-6.924-.062-.11 68.439zm109.643-64.349l-1.496-1.89h10.778l-1.634 1.974v46.861l1.475 2.883s-3.444-.358-5.644-.615c-2.04-.239-5.23-.65-5.23-.65l1.751-2.423v-46.14zm-14.114 12.113l2.391-2.639v-6.797h-5.389v8.146c0 1.28.615 2.653 1.488 3.647 9.648 10.94 9.648 11.037 9.648 11.037.974 1.184 1.864 3.86 1.864 5.375v12.506c0 3.457-2.976 4.876-8.26 4.45l-3.798-.183c-2.77-.144-4.824-.715-6.26-1.71-1.335-.9-2.165-2.248-2.165-3.763V155.5l9.802-.06-2.148 2.739v9.512l5.389.238v-11.51c0-1.47-.53-3.35-1.712-4.677l-9.597-10.658c-1.025-1.09-1.745-2.923-1.745-4.392v-8.856c0-3.175 2.976-4.928 8.263-4.928h3.798c2.72 0 4.875.428 6.312 1.423 1.334.899 1.95 2.083 1.95 3.646v8.927l-9.831.035zM93.42 124.693l-1.298-1.85 10.537.062-1.41 1.695.063 45.14 1.428 2.65s-3.23-.01-5.294.025c-2.045.032-5.243.152-5.243.152l1.35-2.707-.133-45.167zm-19.68 46.475l1.378 2.55s-2.93.298-4.801.517c-1.859.217-4.76.602-4.76.602l1.271-2.772.115-47.06-1.439-2.217 8.182.024v3.154l7.391 25.583v-28.745l8.127-.016-1.343 1.734.027 45.495 1.233 2.685s-2.673.152-4.383.257c-1.788.114-4.582.31-4.582.31l.921-2.7v-5.789L73.686 138l.053 33.168z"/><path d="M93.46 123.544l.527.75a.694.694 0 0 1 .126.396l.132 45.168a.694.694 0 0 1-.072.312l-.83 1.662a254.4 254.4 0 0 1 4.092-.11c1.276-.022 3.01-.027 4.144-.027l-.876-1.625a.693.693 0 0 1-.084-.328l-.062-45.14a.7.7 0 0 1 .16-.445l.472-.568-7.728-.045zm-1.257 49.716a.692.692 0 0 1-.62-1.003l1.277-2.56-.132-44.784-1.172-1.672a.695.695 0 0 1 .566-1.092h.004l10.537.062a.692.692 0 0 1 .528 1.137l-1.248 1.503.061 44.714 1.346 2.496a.695.695 0 0 1-.61 1.023h-.002c-.032 0-3.247-.01-5.28.024-2.015.032-5.197.15-5.229.152h-.026zm13.744-17.072v10.82c0 1.229.677 2.39 1.858 3.187 1.354.937 3.285 1.456 5.91 1.592l3.796.184.022.002c3.119.25 5.377-.18 6.528-1.243.662-.611.983-1.435.983-2.517v-12.506c0-1.416-.86-3.906-1.706-4.934a.682.682 0 0 1-.032-.042c-.091-.117-1.004-1.23-9.6-10.977-1.04-1.184-1.661-2.718-1.661-4.106v-8.146c0-.383.31-.694.692-.694h5.39c.382 0 .692.311.692.694v6.797a.693.693 0 0 1-.18.466l-1.335 1.474 7.57-.027v-8.236c0-1.357-.507-2.304-1.645-3.071-1.253-.867-3.244-1.304-5.925-1.304h-3.798c-2.828 0-7.57.55-7.57 4.234v8.856c0 1.311.654 2.958 1.556 3.917l9.607 10.669c1.394 1.566 1.89 3.681 1.89 5.14v11.511a.694.694 0 0 1-.722.693l-5.39-.238a.693.693 0 0 1-.662-.693v-9.512c0-.155.052-.306.148-.428l1.262-1.609-7.678.047zm13.24 17.242a22.14 22.14 0 0 1-1.754-.074l-3.788-.184c-2.89-.15-5.056-.748-6.62-1.831-1.564-1.054-2.464-2.635-2.464-4.334V155.5c0-.382.308-.692.689-.694l9.802-.06h.004a.692.692 0 0 1 .545 1.122l-2 2.55v8.61l4.004.177v-10.787c0-1.148-.403-2.94-1.537-4.214l-9.595-10.655c-1.128-1.198-1.923-3.2-1.923-4.857v-8.856c0-3.572 3.264-5.621 8.956-5.621h3.798c3.01 0 5.203.505 6.706 1.545 1.511 1.019 2.249 2.4 2.249 4.217v8.927a.693.693 0 0 1-.69.694l-9.831.035h-.003a.692.692 0 0 1-.513-1.16l2.212-2.44v-5.836h-4.004v7.452c0 1.044.504 2.266 1.315 3.189 4.985 5.652 7.344 8.354 8.445 9.624.698.806 1.042 1.203 1.211 1.435l.007-.005c1.039 1.264 2.021 4.09 2.021 5.816v12.506c0 1.47-.48 2.66-1.429 3.536-1.209 1.118-3.16 1.68-5.812 1.68zm10.157-.582c1.116.141 2.815.355 4.065.5 1.339.157 3.159.353 4.363.481l-.891-1.743a.693.693 0 0 1-.076-.316v-46.86c0-.162.056-.319.159-.443l.694-.84h-7.873l.607.768c.097.122.15.274.15.43v46.14a.694.694 0 0 1-.132.407l-1.066 1.476zm9.628 2.498a.73.73 0 0 1-.072-.003c-.034-.004-3.473-.362-5.652-.616-2.02-.237-5.206-.648-5.238-.652a.693.693 0 0 1-.472-1.094l1.619-2.24v-45.674l-1.347-1.702a.694.694 0 0 1 .543-1.124h10.778a.692.692 0 0 1 .534 1.136l-1.475 1.782v46.444l1.398 2.733a.695.695 0 0 1-.616 1.01zm-72.189-51.86l.74 1.14a.695.695 0 0 1 .113.38l-.115 47.061c0 .1-.022.198-.063.288l-.749 1.632a288.17 288.17 0 0 1 3.528-.44c1.163-.137 2.75-.305 3.778-.412l-.885-1.636a.696.696 0 0 1-.084-.33l-.053-33.168a.693.693 0 0 1 1.36-.186l7.392 26.78c.016.06.025.123.025.185v5.79a.693.693 0 0 1-.037.224l-.584 1.71c.978-.067 2.45-.167 3.545-.237 1.041-.064 2.438-.145 3.373-.2l-.808-1.76a.692.692 0 0 1-.064-.29l-.027-45.495a.69.69 0 0 1 .146-.425l.474-.613-6.018.012v28.053a.693.693 0 0 1-1.358.192L73.02 126.16a.699.699 0 0 1-.028-.193v-2.462l-6.21-.019zm-1.226 52.045a.693.693 0 0 1-.63-.984l1.21-2.634.113-46.704-1.326-2.043a.695.695 0 0 1 .58-1.071h.002l8.182.024c.382.001.69.311.69.693v3.056l6.007 20.788v-23.852c0-.382.309-.692.69-.693l8.128-.016h.001a.693.693 0 0 1 .547 1.118l-1.198 1.546.027 45.106 1.17 2.547a.695.695 0 0 1-.59.982s-2.671.152-4.38.258c-1.784.113-4.576.308-4.576.308a.694.694 0 0 1-.703-.916l.884-2.59v-5.58l-5.998-21.731.044 27.85 1.296 2.395a.694.694 0 0 1-.54 1.02c-.029.003-2.946.3-4.79.516-1.832.214-4.72.597-4.75.6a.65.65 0 0 1-.09.007zm-16.263-45.087v18.178l.414-2.344a.693.693 0 0 1 .682-.573h.002l2.957.009v-15.27h-4.055zm-8.456-6.906l.846.965c.11.127.172.29.172.458l-.054 51.897a.696.696 0 0 1-.055.27l-.714 1.694c1.113-.284 2.693-.681 3.879-.96 1.275-.298 3.028-.679 4.128-.915l-1.003-1.406a.695.695 0 0 1-.129-.404v-45.386c0-.383.31-.694.693-.694h5.44c.382 0 .693.31.693.694v16.658a.694.694 0 0 1-.693.694h-.002l-3.068-.01-.673 3.805h3.743c.381 0 .69.309.693.69l.121 22.383a.691.691 0 0 1-.052.27l-.7 1.694a252.61 252.61 0 0 1 3.883-.68c1.235-.203 2.92-.455 4.015-.616l-1.037-1.489a.696.696 0 0 1-.124-.397v-44.352c0-1.504-.515-2.56-1.67-3.42-1.364-.956-3.29-1.426-5.87-1.426h-.001l-12.461-.017zm-.987 56.996a.692.692 0 0 1-.638-.963l1.204-2.854.054-51.495-1.684-1.922a.694.694 0 0 1 .52-1.151h.001l13.993.019c2.874 0 5.059.552 6.68 1.688 1.515 1.13 2.244 2.613 2.244 4.545v44.135l1.554 2.232a.695.695 0 0 1-.47 1.083c-.031.005-3.14.45-5.1.773-1.97.323-5.074.9-5.105.905a.694.694 0 0 1-.766-.947l1.131-2.742-.117-21.554h-3.88a.695.695 0 0 1-.178-.024v22.653l1.488 2.087a.695.695 0 0 1-.421 1.082c-.031.006-3.162.667-5.134 1.129-2.01.472-5.17 1.29-5.202 1.299a.686.686 0 0 1-.174.022zM19.484 114.52c-4.725 0-7.66 2.775-7.66 7.244v73.682c0 1.771.359 2.86 1.068 3.238.737.39 2.408.318 6.188-2.247a.563.563 0 0 1 .035-.022c.566-.336 13.34-7.914 16.704-9.667l.008-26.54-7.996-.048-.02 24.97c0 .246-.13.474-.343.598l-6.913 4.044a.692.692 0 0 1-1.042-.6l.11-68.439c0-.184.074-.362.205-.492a.723.723 0 0 1 .494-.2l6.923.062c.38.004.686.313.686.694v12.012c0 .119-.03.235-.088.338L26.09 136.3l9.73.034v-16.133c0-3.664-2.635-5.681-7.42-5.681h-8.915zm-5.785 85.729a3.05 3.05 0 0 1-1.456-.34c-1.214-.645-1.805-2.105-1.805-4.463v-73.682c0-5.244 3.55-8.632 9.046-8.632h8.915c5.596 0 8.805 2.577 8.805 7.069v16.83a.694.694 0 0 1-.692.693h-.003l-11.6-.04a.692.692 0 0 1-.602-1.032l2.239-4.023v-11.145l-5.54-.05-.106 66.53 5.527-3.233.019-25.27a.694.694 0 0 1 .692-.693h.005l9.381.058a.693.693 0 0 1 .689.693l-.009 27.655a.694.694 0 0 1-.39.624c-2.508 1.221-16.394 9.455-16.975 9.8-2.629 1.781-4.629 2.651-6.14 2.651z" fill="#EDAC09" fill-rule="nonzero"/><path d="M53.3 122.861c2.719 0 4.795.52 6.283 1.563 1.333.995 1.95 2.273 1.95 3.977v44.352l1.678 2.411s-3.123.448-5.113.775c-2.002.328-5.12.908-5.12.908l1.185-2.872-.122-22.383h-4.57l.92-5.193 3.65.01v-16.658h-5.44v45.386l1.617 2.268s-3.146.664-5.148 1.132c-2.042.48-5.219 1.303-5.219 1.303l1.258-2.982.054-51.897-1.856-2.119 13.993.02zm-33.094 66.313l6.913-4.045.02-25.667 9.381.057-.008 27.655c-2.605 1.268-17.043 9.837-17.043 9.837-5.542 3.76-8.338 3.436-8.338-1.565v-73.682c0-4.877 3.333-7.938 8.353-7.938h8.915c5.542 0 8.113 2.563 8.113 6.375v16.83l-11.6-.041 2.327-4.18v-12.013l-6.924-.062-.11 68.439zm73.214-64.481l-1.298-1.85 10.537.062-1.41 1.695.063 45.14 1.428 2.65s-3.23-.01-5.294.025c-2.045.032-5.242.152-5.242.152l1.349-2.707-.133-45.167zm-19.68 46.475l1.378 2.55s-2.93.298-4.801.517c-1.859.217-4.76.602-4.76.602l1.271-2.772.115-47.06-1.439-2.217 8.182.024v3.154l7.391 25.583v-28.745l8.127-.016-1.343 1.734.027 45.495 1.233 2.685s-2.673.152-4.383.257c-1.788.114-4.582.31-4.582.31l.921-2.7v-5.789L73.686 138l.053 33.168zm42.33-34.024l2.392-2.639v-6.797h-5.39v8.146c0 1.28.618 2.653 1.489 3.647 9.647 10.942 9.647 11.037 9.647 11.037.974 1.184 1.867 3.858 1.867 5.375v12.503c0 3.46-2.978 4.88-8.265 4.454l-3.796-.187c-2.767-.14-4.82-.713-6.26-1.707-1.334-.902-2.162-2.248-2.162-3.763v-11.508l9.797-.06-2.143 2.739v9.512l5.387.238v-11.511c0-1.468-.53-3.348-1.713-4.676l-9.594-10.655c-1.025-1.092-1.745-2.926-1.745-4.395v-8.858c0-3.173 2.976-4.926 8.263-4.926h3.796c2.718 0 4.875.425 6.311 1.423 1.334.899 1.948 2.083 1.948 3.646v8.927l-9.828.035m49.384-14.185l-1.26 2.007-.011 51.664 1.672 3.43s-12.266-2.766-14.525-3.43c-2.205-.615-4.118-2.048-5.452-3.278-1.54-1.517-2.118-4.053-2.118-6.139v-42.217l-1.32-1.994 8.808-.01.003 47.063 5.438 1.469.01-48.573 8.755.008m-35.717 1.976l-1.499-1.89h10.779l-1.634 1.977v46.858l1.474 2.882s-3.444-.357-5.643-.615c-2.04-.238-5.23-.65-5.23-.65l1.753-2.422v-46.14" fill="#0C2950" fill-rule="nonzero"/></g></svg>