<svg width="200" height="200" xmlns="http://www.w3.org/2000/svg"><g fill="none"><path d="M156.904 88.623c2.662 6.784 6.55 8.825 7.704 9.302l-1.03-3.084 1.93-1.241c-3.133-2.343-6.734-3.906-8.604-4.977M85.085 108.68h11.64l-2.584 7.297h17.757c1.808-5.134 3.02-8.685 3.179-11.008.377-7.453-9.93-7.548-15.152-7.548h-21.95l-7.146 20.168h-9.646l-.241.653-5.42 14.97c-1.902 4.752-2.831 8.502-2.99 11.013-.467 7.269 9.74 7.374 14.948 7.374h31.726l3.987-11.25H73.69c3.205-11.095 6.315-20.048 11.396-31.669M68.521 97.429H39.013c3.207-11.097 6.319-20.05 11.398-31.675h11.642l-2.586 7.303h17.758c1.808-5.135 3.02-8.685 3.178-11.008.377-7.455-9.929-7.549-15.152-7.549H30.658l4.05 4.656c-3.428 2.803-4.906 6.598-8.442 16.165L20.847 90.29c-1.9 4.753-2.831 8.501-2.99 11.015-.465 7.268 9.742 7.373 14.95 7.373h31.726l3.988-11.248" fill="#FFF"/><path d="M159.426 71.452s8.091 6.172 12.94 16.004l1.761-2.205s1.957 6.84 1.436 12.165c1.558 9.03 1.658 17.074 1.658 17.074s-2.478 1.998-6.826 3.604c5.25 2.006 13.874 4.188 13.874 4.188-1.569-12.997-6.415-24.422-6.415-24.422a215.55 215.55 0 0 0 5.923-4.537c-2.327-9.657-6.47-17.542-10.379-23.359-5.864-4.518-13.085-8.095-18.695-10.503-.772 1-2.795 3.312-6.36 5.465-4.217 5.23-5.798 11.018-5.798 11.018s6.283-4.296 16.88-4.492m1.289 62.054c-2.39-1.74-5.873-3.445-6.88-3.907-1.163.593-3.44 1.92-3.44 1.92 4.448.598 10.32 1.987 10.32 1.987M143.229 54.07c2.706.042 5.618-1.001 7.961-4.426 3.048-4.454-.975-10.238-1.68-11.914-3.172-7.532 1.967-14.97 1.967-14.97-5.911 1.802-18.057 12.79-8.248 31.31m32.501-15.763s-.927 6.996-6.575 11.254a65.892 65.892 0 0 1 4.318 4.937c2.681-2.65 5.994-8.143 2.258-16.19" fill="#FFF"/><path d="M180.61 153.91c1.205-2.128 1.864-5.96 1.557-8.437 2.113-2.252 5.35-5.98 7.605-9.732 3.137.504 9.557 1.515 9.559 1.515 0 0-2.595-21.563-6.067-34.597 1.459-1.3 3.56-3.383 3.56-3.383-1.141-10.464-5.15-23.347-9.827-32.773 3.302-4.755 4.942-10.597 4.943-16.42-.001-4.97-1.196-9.937-3.61-14.214-3.029-5.375-8.643-12.602-19.431-16.073-.033 5.663-2.638 13.693-4.446 16.6-.938-2.09-2.089-4.047-2.089-5.847 0-3.355 6.538-11.924 9.965-14.52-5.818-4.623-12.808-6.606-19.208-6.605-11.288.014-22.462 5.444-28.852 12.836 0 0-5.988-.786-10.177-.786-14.777 0-29.318 4.952-40.819 14.592a58.361 58.361 0 0 0-4.814 4.527 82.422 82.422 0 0 0-3.202-.066L0 40.525l17.149 19.728a81.623 81.623 0 0 0-2.161 5.162L6.847 87.93c-1.512 4.241-2.81 8.6-2.939 13.133-.129 4.532 1.17 8.992 3.948 12.603 5.422 7.046 14.42 8.72 22.846 8.954v6.94h11.285l-.467 1.291c-1.511 4.24-2.81 8.6-2.938 13.132-.13 4.533 1.17 8.993 3.948 12.604 5.872 7.633 15.945 8.963 24.938 8.986l50.594.002c7.31 3.275 14.447 6.993 21.396 10.842 6.376 3.526 12.534 7.67 19.542 10.332 4.977 1.885 11.536 3.41 18.392 3.41 5.421 0 11.833-1.268 17.267-4.014-2.938-2.739-12.459-14.04-14.049-32.234zm-143.4-30.706h-1.186v4.301h-1.433v-4.3h-1.184v-1.214h3.802v1.213zm5.265 1.127h-.014l-1.324 3.174h-.57l-1.267-3.174h-.014l-.46 3.174h-1.427l.937-5.514h1.411l1.12 2.947 1.184-2.947h1.426l.834 5.514h-1.434l-.402-3.174zm107.496 52.301c-4.38-2.695-18.934-10.88-28.734-15.057a593.87 593.87 0 0 1-2.463-1.065H67.48c-7.932-.015-17.491-.908-21.947-8.515-4.016-6.856-.778-15.227 1.691-22.048 1.463-4.035 2.92-8.06 4.385-12.099l.093-.259H32.807c-7.934-.017-17.492-.908-21.948-8.516-4.016-6.854-.777-15.227 1.692-22.045l4.383-12.1c1.884-5.2 3.604-10.574 6.26-15.439L11.112 45.588l54.14.003c1.691.003 3.466.054 5.253.204 7.132-8.042 18.194-15.824 33.417-18.538 7.61-1.357 15.264-.912 22.45.514 4.203-5.982 10.935-10.288 18.271-12.177 11.519-2.965 19.782 1.46 19.782 1.46-4.587 4.973-8.954 12.175-6.507 17.015 1.4 2.758 2.627 5.628 3.2 8.589.646.457 1.278.927 1.9 1.408 5.244-1.803 9.523-10.036 9.686-17.013 0 0 6.948 3.131 11.688 12.157 4.37 8.33 2.738 20.414-3.412 26.685 7.153 13.17 10.008 26.42 10.549 31.44 0 0-3.148 2.972-3.988 3.671 3.85 12.785 5.962 30.208 5.962 30.208s-7.984-1.26-9.949-1.658c.535 1.567 1.703 3.894 1.703 3.894-2.21 3.804-6.917 8.785-8.394 10.232.638 4.035.39 6.773-1.456 8.855 1.786 21.513 10.277 31.213 10.277 31.213-10.582 3.133-23.068.662-35.712-7.118z" fill="#D3D5D7"/><path d="M170.395 118.094c4.348-1.606 6.826-3.604 6.826-3.604s-.1-8.044-1.658-17.074c-11.346 4.244-18.715 8.851-18.715 8.851s-.057-2.734 2.483-6.54c-3.779-3.97-5.21-9.734-5.437-10.752-3.435-4.813-6.723-8.116-6.723-8.116 7.558 1.462 13.61 3.792 16.828 5.184-1.867-5.559-6.522-9.548-6.522-9.548-5.41-.833-14.932-.551-14.932-.551s1.581-5.788 5.798-11.018c-4.306 2.602-10.865 4.974-20.216 4.52a119.822 119.822 0 0 0-8.21 6.146c1.1 11.724 4.136 22.345 4.136 22.345 2.69 3.065 16.712 14.385 16.712 14.385-5.278-.037-11.563-2.607-16.932-5.458-.77 6.16-3.584 12.21-5.633 18.023h-14.078c.8 2.004 1.754 4.3 2.77 6.556h8.91s-1.467 4.143-3.153 8.898c6.54 4.051 31.097 18.598 55.864 24.689a101.108 101.108 0 0 1-2.102-12.109c-6.05-1.725-7.03-8.591-7.03-8.591 4.643 2.61 9.24 1.06 9.24 1.06-1.353-3.656-3.235-5.847-3.235-5.847-6.315-2.99-15.99-4.379-20.538-4.652l-4.725 3.016s1.198-9.64 10.635-13.943c7.383 2.242 20.812 10.99 22.47 12.564 2.218-2.081 3.429-4.287 3.429-4.287-1.81-3.997-6.262-14.147-6.262-14.147zm-28.75 6.94s-.816-1.34-.68-3.307c0 0-2.944-1.245-3.593-5.929 0 0 2.288 2.603 6.344 3.183 2.022.294 3.535.79 4.668 1.311-3.632 1.76-6.74 4.741-6.74 4.741zm9.832-102.274s-12.657.536-18.779 12.335c-4.181 8.057.97 14.53 2.442 15.917.768.722 4.219 3 8.089 3.058-9.809-18.52 2.337-29.508 8.248-31.31m21.996 31.738a72.388 72.388 0 0 1 2.377 3.146c2.527-3.247 5.666-11.838-.12-19.337 3.737 8.048.424 13.54-2.257 16.19M99.925 88.513c2.486.003 5.15.112 7.772.484a21.53 21.53 0 0 0-.838-.974C103.532 84.401 87.4 73.001 87.4 73.001s-.226 7.138 2.19 15.512h10.335" fill="#D3D5D7"/><path d="M176.862 143.682c1.477-1.447 6.184-6.428 8.394-10.232 0 0-1.168-2.327-1.703-3.894 1.965.398 9.95 1.658 9.95 1.658s-2.113-17.423-5.963-30.208c.84-.7 3.988-3.67 3.988-3.67-.54-5.02-3.396-18.271-10.55-31.44 6.151-6.272 7.783-18.356 3.413-26.686-4.74-9.026-11.688-12.157-11.688-12.157-.163 6.977-4.442 15.21-9.685 17.013a56.977 56.977 0 0 0-1.902-1.408c-.572-2.96-1.799-5.83-3.199-8.589-2.447-4.84 1.92-12.042 6.507-17.015 0 0-8.263-4.425-19.782-1.46-7.336 1.889-14.068 6.195-18.27 12.177-7.187-1.426-14.841-1.871-22.451-.514-15.223 2.714-26.285 10.496-33.417 18.538a64.402 64.402 0 0 0-5.253-.204l-54.14-.003 12.084 13.901c-2.657 4.865-4.377 10.239-6.261 15.439l-4.383 12.1c-2.47 6.818-5.708 15.19-1.692 22.045 4.456 7.608 14.014 8.5 21.948 8.516h18.895l-.093.26c-1.465 4.037-2.922 8.063-4.385 12.098-2.469 6.82-5.707 15.192-1.69 22.048 4.455 7.607 14.014 8.5 21.946 8.515h51.294c.861.374 1.687.732 2.463 1.065 9.8 4.176 24.353 12.362 28.734 15.057 12.644 7.78 25.13 10.25 35.712 7.118 0 0-8.49-9.7-10.277-31.213 1.845-2.082 2.094-4.82 1.456-8.855zM175.73 38.307c5.785 7.499 2.646 16.09.119 19.337a72.388 72.388 0 0 0-2.377-3.146 65.892 65.892 0 0 0-4.318-4.937c5.648-4.258 6.576-11.254 6.576-11.254zm-26.221-.577c.705 1.676 4.728 7.46 1.68 11.914-2.343 3.425-5.255 4.468-7.961 4.426-3.87-.058-7.321-2.336-8.089-3.058-1.472-1.388-6.623-7.86-2.442-15.917 6.122-11.799 18.779-12.335 18.779-12.335s-5.14 7.438-1.967 14.97zM87.4 73s16.132 11.4 19.459 15.022c.297.323.572.648.838.974-2.622-.372-5.286-.48-7.772-.484H89.59C87.174 80.139 87.4 73 87.4 73zm-54.593 35.676c-5.208 0-15.415-.105-14.95-7.373.159-2.514 1.09-6.262 2.99-11.015l5.42-14.968c3.535-9.567 5.013-13.362 8.442-16.165L30.658 54.5H65.25c5.223 0 15.529.094 15.152 7.55-.159 2.322-1.37 5.872-3.178 11.007H59.467l2.586-7.303H50.41c-5.08 11.625-8.191 20.578-11.398 31.675H68.52l-3.988 11.248H32.807zm66.4 42.922H67.48c-5.208 0-15.415-.105-14.948-7.374.159-2.51 1.088-6.261 2.99-11.013l5.42-14.97.241-.653h9.646l7.145-20.168h21.95c5.224 0 15.53.095 15.153 7.548-.158 2.323-1.37 5.874-3.179 11.008H94.141l2.584-7.297h-11.64c-5.08 11.621-8.191 20.574-11.396 31.668h29.504L99.206 151.6zm74.02-15.071c-1.657-1.574-15.086-10.322-22.47-12.564-9.436 4.304-10.634 13.943-10.634 13.943l4.725-3.016c4.547.273 14.223 1.662 20.538 4.652 0 0 1.882 2.19 3.236 5.847 0 0-4.598 1.55-9.24-1.06 0 0 .978 6.866 7.029 8.591.27 2.425.863 6.937 2.102 12.109-24.767-6.091-49.324-20.638-55.864-24.689l3.154-8.898h-8.911a168.12 168.12 0 0 1-2.77-6.556H118.2c2.05-5.812 4.864-11.863 5.633-18.023 5.369 2.851 11.654 5.421 16.932 5.458 0 0-14.023-11.32-16.712-14.385 0 0-3.035-10.62-4.136-22.345a119.822 119.822 0 0 1 8.21-6.146c9.351.454 15.91-1.918 20.216-4.52 3.565-2.153 5.588-4.465 6.36-5.465 5.61 2.408 12.83 5.985 18.695 10.503 3.91 5.817 8.052 13.702 10.38 23.36 0 0-2.607 2.085-5.924 4.536 0 0 4.846 11.425 6.415 24.422 0 0-8.625-2.182-13.874-4.188 0 0 4.453 10.15 6.262 14.147 0 0-1.211 2.206-3.43 4.287zm-12.513-3.022s-5.872-1.389-10.32-1.987c0 0 2.277-1.327 3.44-1.92 1.007.462 4.49 2.167 6.88 3.907z" fill="#1C4F9C"/><path fill="#1C4F9C" d="M33.407 123.204h1.184v4.301h1.433v-4.3h1.185v-1.214h-3.802v1.213m10.07-1.214h-1.426l-1.185 2.948-1.119-2.947h-1.411l-.937 5.514h1.427l.46-3.174h.014l1.266 3.174h.57l1.325-3.174h.014l.402 3.174h1.434l-.834-5.514m130.65-36.74l-1.761 2.205c-4.849-9.832-12.94-16.004-12.94-16.004-10.598.196-16.881 4.492-16.881 4.492s9.521-.282 14.932.551c0 0 4.655 3.99 6.522 9.548-3.218-1.392-9.27-3.722-16.828-5.184 0 0 3.288 3.303 6.723 8.116.228 1.018 1.658 6.781 5.437 10.751-2.54 3.807-2.483 6.541-2.483 6.541s7.37-4.607 18.715-8.85c.521-5.327-1.436-12.166-1.436-12.166zm-9.519 12.674c-1.154-.477-5.042-2.518-7.704-9.302 1.87 1.071 5.471 2.634 8.603 4.977l-1.928 1.241 1.03 3.084zm-27.236 17.873c.65 4.684 3.593 5.93 3.593 5.93-.136 1.966.68 3.305.68 3.305s3.107-2.982 6.739-4.74c-1.133-.522-2.646-1.018-4.668-1.312-4.056-.58-6.344-3.183-6.344-3.183"/><path d="M85.085 108.68h11.64l-2.584 7.297h17.757c1.808-5.134 3.02-8.685 3.179-11.008.377-7.453-9.93-7.548-15.152-7.548h-21.95l-7.146 20.168h-9.646l-.241.653-5.42 14.97c-1.902 4.752-2.831 8.502-2.99 11.013-.467 7.269 9.74 7.374 14.948 7.374h31.726l3.987-11.25H73.69c3.205-11.095 6.315-20.048 11.396-31.669" fill="#FFF"/></g></svg>