<svg width="200" height="200" xmlns="http://www.w3.org/2000/svg"><g fill-rule="nonzero" fill="none"><path fill="#4A071C" d="M4.943 152.605h162.893l-4.942 10.983H0l4.943-10.983"/><path fill="#FBC31C" d="M120.625 55.989h20.759l-1.71 4.517h-16.73l-25.517 57.633-4.519.246 27.717-62.396M132.591 84.316h51.529l15.384-32.968-3.296-2.442L181.8 79.921h-47.254l-1.955 4.395"/><path fill="#FBC31C" d="M174.351 98.847h4.274l-15.14 34.312-33.335 14.529H52.003l-17.093-12.76 1.647-3.54 16.057 11.783h74.971l33.7-14.287 13.066-30.037M13.114 95.794l-2.014 4.213h34.123l1.873-4.213H13.114M16.079 115.75l-2.015 4.213h22.131l1.92-4.212H16.08M168.287 159.922h4.423l-4.936 10.964H5.377l2.002-4.394h157.976l2.932-6.57M31.7 60.996l-2.015 4.21h31.439l1.933-4.21H31.699"/><path fill="#4A071C" d="M38.053 115.75H61.23l1.264-2.81-52.469.005 3.449-7.663h29.321l4.261-9.488h34.806l1.487-3.305-76.19.004 4.863-10.804h41.39l9.459-20.694H78.5l1.465-3.175h-54.46l2.932-6.35h38.584l3.326-7.413L99.826 28.76h74.172l20.749 15.297-15.433 33.085-51.662.006L138.33 53.18h-20.269l-27.838 63.007h19.596l11.272-24.599 52.696-.006-15.013 34.475-33.677 14.32H53.505l-19.94-14.91 4.488-9.716"/></g></svg>