<?xml version="1.0" encoding="UTF-8"?>
<svg width="200px" height="200px" viewBox="0 0 200 200" version="1.1" xmlns="http://www.w3.org/2000/svg" xmlns:xlink="http://www.w3.org/1999/xlink">
    <!-- Generator: Sketch 51.3 (57544) - http://www.bohemiancoding.com/sketch -->
    <title>charlotte</title>
    <desc>Created with Sketch.</desc>
    <defs></defs>
    <g id="charlotte" stroke="none" stroke-width="1" fill="none" fill-rule="evenodd">
        <g id="charlotte_BGL" transform="translate(7.407407, 0.930233)">
            <g id="charlotte">
                <g id="g10" transform="translate(92.446375, 100.014298) scale(-1, 1) rotate(-180.000000) translate(-92.446375, -100.014298) translate(0.000000, 0.142376)" fill-rule="nonzero">
                    <g id="g12">
                        <path d="M139.128791,75.1403554 C140.703811,76.4632809 142.196252,77.8580365 143.605683,79.3222494 C144.395017,79.1729808 144.974147,79.0621079 145.295243,78.9991217 C145.297602,78.9982589 145.882309,78.8828561 145.882309,78.8828561 C151.311121,77.8017372 165.732112,74.9315519 173.281399,89.5206179 C174.612755,92.0983058 175.283045,94.8811301 175.283045,97.6482079 C175.283045,99.9985415 174.800222,102.336796 173.82857,104.527722 C172.049996,108.538993 168.897381,111.393 165.178721,112.358716 C164.586721,112.512731 163.005051,112.918474 160.64799,113.521588 C164.342413,128.693492 164.18326,143.325699 160.087521,156.537913 C154.613237,174.19885 142.637249,188.022159 125.456594,196.514508 L118.962826,199.723783 L120.939162,192.721964 C121.028606,192.403581 127.938275,167.152163 122.273093,135.333573 C120.704722,136.282679 118.828554,137.172898 116.54442,137.91277 L116.336577,137.980718 L86.9424906,143.241574 L86.7612442,143.264007 C76.7107575,144.778264 68.6177316,141.096592 63.3313433,138.34936 C58.121958,139.677678 49.9019524,141.774125 49.8841495,141.778655 C46.8801785,142.879835 40.40357,143.545504 34.251489,140.890162 C28.9410775,138.598284 24.9558023,134.24361 22.7265791,128.296593 C19.5237734,119.756788 19.4605195,112.734261 22.538898,107.42444 C22.8411183,106.903078 23.1682197,106.428956 23.5049733,105.97511 C13.6449991,97.3431995 2.59963066,82.6505945 0.239545501,59.1582594 C0.0795131053,57.5648385 0,55.9744374 0,54.3922332 C0,42.4214078 4.53870945,30.8668951 13.0397434,21.4293004 C25.1608573,7.97269141 44.2230424,-0.0381698406 64.0308042,0.000252781659 C88.5666297,0.0496292269 108.46791,10.9555184 120.56573,19.7837002 L152.784043,19.7837002 C166.172465,19.7837002 170.623619,32.0496116 174.200714,41.9058702 L174.484274,42.6867263 C175.518772,45.531674 183.102593,69.8999915 183.424117,70.9360279 L184.732952,75.1403554 C184.732952,75.1403554 162.592796,75.1403554 139.128791,75.1403554" id="path14" fill="#927F3B"></path>
                        <path d="M129.450878,72.1791421 C134.06955,74.9328461 138.547301,78.416931 142.514559,82.821218 C144.293562,82.4860107 145.479063,82.2616764 145.909764,82.1773353 C150.905515,81.2049322 163.738402,78.0916462 170.42457,91.0150297 C174.454674,98.8128051 170.469184,107.640793 164.374158,109.223428 C163.545787,109.438703 160.806929,110.140611 156.71119,111.187648 C166.886726,147.848409 153.326924,179.130538 124.036008,193.608516 C124.036008,193.608516 132.166142,164.952608 124.427887,129.53151 C122.620785,131.396289 119.955927,133.405592 115.556896,134.830977 L86.4633138,140.038338 L86.3678645,140.050202 C76.5445256,141.529514 68.7022418,137.53852 63.7296564,134.907122 C54.8717494,137.16578 49.1411466,138.626758 49.0635002,138.647465 C45.8975873,139.991961 31.1797384,141.666704 25.7391298,127.154429 C21.1371664,114.883125 24.4704052,108.680496 28.262208,105.654355 C18.3336819,97.796398 5.89863637,83.2742008 3.44310194,58.8331903 C0.313779297,27.6835045 29.8172804,3.17154829 64.0247984,3.23794262 C88.3768036,3.28757659 108.201939,14.6283245 119.807498,23.2977682 C135.561347,23.2977682 147.530901,23.2977682 152.43635,23.2977682 C163.602628,23.2977682 166.926622,30.1162379 173.642819,49.9010166 C174.603103,52.7254722 180.822535,72.1791421 180.822535,72.1791421 L129.450878,72.1791421" id="path16" fill="#00613C"></path>
                        <path d="M51.5130074,54.5509929 C50.6964335,54.5509929 45.4962713,54.5509929 42.5684453,54.5509929 L35.7038194,53.2487752 L58.3666942,68.7839282 L54.8185552,63.6527116 C53.7143465,60.6082358 51.7845552,55.2951789 51.5130074,54.5509929 Z M46.7426887,41.7535817 L51.8589842,44.5722132 L54.3694073,51.5962508 L61.7376622,51.5962508 L68.8714765,54.5509929 C68.8714765,54.5509929 61.2012159,54.5509929 59.3992623,54.5509929 L54.3694073,51.6730422 L60.012926,69.1812588 L67.9946302,78.8791891 L24.6986255,48.7318896 L24.7046313,48.7346938 L32.9257093,51.5977608 L53.6499987,51.5977608 L49.379877,48.7390079 C48.7981727,47.1951994 46.7426887,41.7535817 46.7426887,41.7535817 Z" id="path18" fill="#FFFFFF"></path>
                        <polyline id="path20" fill="#FFFFFF" points="107.969 66.4704803 98.8708613 41.8079396 104.269429 44.7939591 112.92078 44.7939591 116.501093 47.2357521 108.010826 47.2357521 108.027557 47.2816975 108.012971 47.2445961 104.589238 45.218253 107.940902 54.221394 115.769887 54.221394 119.630327 56.9175045 119.635475 56.9218186 111.64798 56.9218186 111.646264 56.9175045 108.127725 54.9914648 111.347904 63.7715656 120.423951 63.7715656 123.591794 66.4594793 123.595869 66.4704803 107.969 66.4704803"></polyline>
                        <path d="M133.803794,53.1750037 C138.547301,53.6404975 141.251196,55.2296043 142.809057,58.6422904 C144.259028,61.8101501 141.011394,63.2396344 141.011394,63.2396344 L138.072628,60.8949092 C138.709243,60.443652 138.973712,59.7022702 138.525637,58.4887077 C137.536826,55.805971 134.770084,55.4170529 132.43533,55.4170529 L131.894379,55.4170529 L131.747237,55.4170529 L131.74166,55.4157586 L131.6194,55.3471641 L128.204461,53.4083977 L131.990687,63.7124622 C131.990687,63.7124622 136.322153,63.7124622 137.527173,63.7124622 C140.238576,63.7124622 141.011394,63.2396344 141.011394,63.2396344 L144.150495,65.5675346 C144.150495,65.5675346 144.161434,65.5638676 144.177521,65.5571807 C142.931962,66.171296 141.285086,66.4704803 139.355295,66.4704803 L128.684495,66.4704803 L119.584855,41.8120381 L124.83864,44.3416234 L128.055174,53.1987314 L133.66995,53.1987314 L130.306918,51.2772215 L130.303916,51.2685933 L133.536965,41.8053512 L137.726437,43.9587451 L133.803794,53.1750037" id="path22" fill="#FFFFFF"></path>
                        <path d="M166.371631,52.1557924 C166.362297,52.2611258 166.354297,52.3651258 166.343631,52.4704591 C166.354297,52.3651258 166.362297,52.2611258 166.371631,52.1557924" id="path24" fill="#FFFFFF"></path>
                        <path d="M161.865022,51.257808 L165.757851,53.8583606 C164.966373,55.0395672 163.459132,55.7891459 161.6205,56.3290582 L159.977915,56.8200053 C159.096779,57.1081887 157.824408,57.5214815 157.614419,58.4067394 C157.598976,58.4701569 157.580529,58.5346531 157.58675,58.5020814 L157.429312,58.3961698 L153.976837,56.0661125 C153.347515,63.636965 162.053347,64.8962572 165.550651,63.4109051 L170.309173,64.5711881 C168.325544,65.8155966 165.229555,66.5977469 162.456164,66.5977469 C156.961289,66.5977469 151.781503,63.3310938 149.931718,58.3217512 C149.057231,55.9479056 149.251133,54.4962036 150.165301,53.4948959 L153.961179,56.0542487 C153.961179,56.0542487 154.611735,54.9396953 157.033144,54.1726444 C161.170709,52.8658969 161.866738,51.265142 161.866738,51.265142 L158.120837,48.6555296 C158.109683,48.6177811 158.105608,48.5824053 158.090593,48.5440096 C157.455695,46.8056342 155.389915,46.0532513 153.711938,46.0532513 C151.272083,46.0532513 149.581237,47.2016705 148.316373,48.6061329 L143.348507,43.4369521 L148.574408,44.2559881 C153.749045,41.4002551 162.884506,44.3181115 161.865022,51.257808" id="path26" fill="#FFFFFF"></path>
                        <path d="M166.356715,51.5932309 C166.356715,51.6265643 166.362048,51.6585643 166.362048,51.6905643 C166.362048,51.6585643 166.356715,51.6265643 166.356715,51.5932309" id="path28" fill="#FFFFFF"></path>
                        <path d="M144.184814,42.8769723 C144.222147,42.8543056 144.258147,42.831639 144.29948,42.803639 C144.258147,42.831639 144.222147,42.8543056 144.184814,42.8769723" id="path30" fill="#FFFFFF"></path>
                        <path d="M93.0190701,70.4325699 C93.0853484,70.3506015 93.156131,70.2738102 93.2164035,70.1866649 C94.0426295,68.9916531 94.1653194,67.4342551 93.5619513,65.8004972 C92.2831455,62.3399243 88.2470355,59.6289301 84.3735109,59.6289301 C82.4728907,59.6289301 80.9592154,60.3038745 80.1108965,61.5293008 C80.008798,61.6768438 79.9457371,61.7775785 79.9457371,61.7775785 L74.9665025,58.5063956 C76.5955749,56.0100289 86.5261602,53.2591291 96.7205715,62.0681346 C101.633957,68.5080401 97.2008208,72.7259571 97.2008208,72.7259571 L93.1355397,70.3124216 C93.1355397,70.3124216 93.0952151,70.3581513 93.0190701,70.4325699" id="path32" fill="#FFFFFF"></path>
                        <path d="M70.573262,55.5479865 C70.5316504,55.5960889 70.48532,55.6381516 70.4447808,55.687764 L74.9665025,58.5063956 C72.1723054,64.7543226 75.3581662,69.8984816 81.7401835,73.2550841 C91.0594644,78.1507496 97.2008208,72.7259571 97.2008208,72.7259571 L101.85231,75.7126237 C101.771447,75.7995532 101.697232,75.8920911 101.612079,75.9757851 C99.6747801,77.9031191 95.9782121,79.0086128 91.469789,79.0086128 C83.217824,79.0086128 72.7773895,74.7850874 69.3549432,65.5120981 C68.0714186,62.0375043 68.2466592,58.7268472 69.8364794,56.4274202 C70.05612,56.1096851 70.3070765,55.8215018 70.573262,55.5479865" id="path34" fill="#FFFFFF"></path>
                        <path d="M68.3753548,41.9354219 L77.5918937,44.7704471 C77.5918937,44.7704471 84.6637196,50.2979158 90.5880093,55.7550643 C89.4027224,55.3115726 86.7775457,54.3971945 83.7508385,53.7528804 C83.6845602,53.6538713 69.7185084,42.9654185 68.3669896,41.9343434 C68.3774997,41.937579 68.3753548,41.9354219 68.3753548,41.9354219" id="path36" fill="#FFFFFF"></path>
                        <path d="M155.359242,30.0299554 C155.525625,30.1206221 155.69286,30.2312888 155.859242,30.3312888 C155.688594,30.2312888 155.528184,30.1246221 155.359242,30.0299554" id="path38" fill="#FFFFFF"></path>
                        <polyline id="path40" fill="#FFFFFF" points="151.618274 32.9335752 162.581857 36.8861737 45.0522713 36.8861737 42.0869091 29.3388331 42.1604801 29.3388331 49.1340683 32.9335752 151.618274 32.9335752"></polyline>
                        <path d="M152.037631,29.3741873 C151.896298,29.3715207 151.764298,29.356854 151.617631,29.352854 C151.758964,29.360854 151.896298,29.3715207 152.037631,29.3741873" id="path42" fill="#FFFFFF"></path>
                        <path d="M154.441857,29.7465176 C154.608309,29.9052854 154.775405,30.0687925 154.941857,30.2465176 C154.777975,30.0687925 154.609273,29.9100247 154.441857,29.7465176" id="path44" fill="#FFFFFF"></path>
                        <polyline id="path46" fill="#927F3B" points="46.7426887 41.7535817 54.6488914 41.7535817 57.2832913 48.7493618 63.1743347 48.7493618 68.8714765 54.5509929 61.7376622 51.5962508 54.3694073 51.5962508 51.8589842 44.5722132 46.7426887 41.7535817"></polyline>
                        <polyline id="path48" fill="#927F3B" points="54.3694073 51.6730422 59.3992623 54.5509929 67.9946302 78.8791891 60.012926 69.1812588 54.3694073 51.6730422"></polyline>
                        <polyline id="path50" fill="#927F3B" points="49.3736567 48.7346938 53.6499987 51.5977608 32.9257093 51.5977608 24.7046313 48.7346938 49.3736567 48.7346938"></polyline>
                        <polyline id="path52" fill="#927F3B" points="42.5684453 54.5509929 35.7038194 53.2487752 58.3666942 68.7839282 54.8059001 63.6341609 42.5684453 54.5509929"></polyline>
                        <path d="M93.1355397,70.3124216 L97.2008208,72.7259571 C97.2008208,72.7259571 91.0594644,78.1507496 81.7401835,73.2550841 C75.3581662,69.8984816 72.1723054,64.7543226 74.9665025,58.5063956 L79.9457371,61.7775785 C79.9457371,61.7775785 77.5155343,65.7825936 83.0666066,70.1644472 C89.3771978,74.6105812 93.1355397,70.3124216 93.1355397,70.3124216" id="path54" fill="#927F3B"></path>
                        <path d="M101.863464,75.7193105 L97.2008208,72.7259571 C97.2008208,72.7259571 101.633957,68.5080401 96.7205715,62.0681346 C86.5261602,53.2591291 76.5955749,56.0100289 74.9665025,58.5063956 L70.4447808,55.687764 C74.8738416,50.313231 87.5267688,54.6103121 90.5880093,55.7550643 C84.6637196,50.2979158 77.5918937,44.7704471 77.5918937,44.7704471 L68.3753548,41.9354219 L79.2872444,41.9354219 C79.2872444,41.9354219 90.1888383,50.7552128 93.5355687,53.6996009 C96.8805831,56.648519 108.810026,67.5326171 101.863464,75.7193105" id="path56" fill="#927F3B"></path>
                        <polyline id="path58" fill="#927F3B" points="109.697168 51.4793381 117.657209 51.4793381 119.630327 56.9175045 115.769887 54.221394 107.940902 54.221394 104.589238 45.218253 108.012971 47.2445961 109.697168 51.4793381"></polyline>
                        <polyline id="path60" fill="#927F3B" points="113.104386 61.0327454 121.593794 61.0327454 123.592866 66.4601264 120.423951 63.7715656 111.347904 63.7715656 108.127725 54.9914648 111.646264 56.9175045 113.104386 61.0327454"></polyline>
                        <polyline id="path62" fill="#927F3B" points="98.8648555 41.8053512 104.269429 44.7939591 112.92078 44.7939591 116.501093 47.2357521 114.503736 41.8053512 98.8648555 41.8053512"></polyline>
                        <polyline id="path64" fill="#927F3B" points="126.845649 41.7993114 119.571556 41.8053512 124.83864 44.3416234 128.055174 53.1987314 133.66995 53.1987314 130.306918 51.2772215 126.845649 41.7993114"></polyline>
                        <path d="M144.150495,65.5675346 L141.011394,63.2396344 C141.011394,63.2396344 144.259028,61.8101501 142.809057,58.6422904 C141.251196,55.2296043 138.547301,53.6404975 133.803794,53.1750037 L137.726437,43.9587451 L133.536965,41.8053512 L142.426188,41.8096653 L137.520095,51.9142016 C137.520095,51.9142016 141.900681,52.2468204 144.887492,56.515644 C149.722373,63.6712623 144.150495,65.5675346 144.150495,65.5675346" id="path66" fill="#927F3B"></path>
                        <path d="M131.74166,55.4157586 L128.204461,53.4083977 L131.990687,63.7124622 C131.990687,63.7124622 136.322153,63.7124622 137.527173,63.7124622 C140.238576,63.7124622 141.011394,63.2396344 141.011394,63.2396344 L138.072628,60.8949092 C138.072628,60.8949092 137.550124,61.4464696 135.327765,61.5528128 C134.34024,61.5648923 134.010994,61.5648923 134.010994,61.5648923 L131.74166,55.4157586" id="path68" fill="#927F3B"></path>
                        <path d="M170.309173,64.5711881 L165.550651,63.4109051 C162.053347,64.8962572 153.347515,63.636965 153.976837,56.0661125 L157.58675,58.5020814 C157.29697,60.1235442 161.619642,63.1020139 165.636019,59.5972213 L170.309173,64.5711881" id="path70" fill="#927F3B"></path>
                        <path d="M153.961179,56.0542487 L150.155005,53.488209 C150.155005,53.488209 151.361956,52.0205447 154.521434,51.3037534 C158.80657,50.3309189 158.115903,48.6518626 158.115903,48.6518626 L161.866738,51.265142 C161.866738,51.265142 161.170709,52.8658969 157.033144,54.1726444 C154.611735,54.9396953 153.961179,56.0542487 153.961179,56.0542487" id="path72" fill="#927F3B"></path>
                        <path d="M143.348507,43.4369521 L148.574408,44.2559881 C153.749045,41.4002551 162.884506,44.3181115 161.865022,51.257808 L165.770292,53.8665575 C167.945677,51.1587989 164.089097,42.9048051 156.775324,41.2967162 C150.931254,39.7121392 146.368993,40.9537435 143.348507,43.4369521" id="path74" fill="#927F3B"></path>
                        <path d="M49.1340683,32.9335752 L151.618274,32.9335752 L162.581857,36.8861737 C161.749839,35.5705822 158.820512,29.3388331 151.342651,29.3388331 C142.82686,29.3388331 42.1604801,29.3388331 42.1604801,29.3388331 L49.1340683,32.9335752" id="path76" fill="#927F3B"></path>
                        <path d="M46.631367,124.661729 L45.7830481,124.86514 C46.260938,129.291213 44.9892105,133.091308 42.2973265,133.978291 C42.2593613,133.990371 41.9809497,134.059828 41.9809497,134.059828 L41.9800917,134.056161 C38.0737498,135.069764 33.9243876,131.170445 31.5184224,125.081493 C29.0521848,118.832703 29.9652804,112.600954 33.5608223,111.163705 C34.0955528,110.949293 34.6618136,110.86603 35.243089,110.880698 L35.3842252,110.867324 C37.6548454,110.98963 40.1742773,112.75087 42.191796,115.53995 L45.9722307,114.797274 L61.8290361,111.684203 C61.9515115,111.801763 62.4214651,112.299397 62.5990651,112.507122 C62.6702767,112.590385 63.8210303,113.8184 64.9767172,116.206266 C65.4370187,117.158177 66.0163636,119.187324 66.0397433,119.317395 C66.0695578,119.486724 66.1347636,119.934962 66.1377665,119.983927 L46.631367,124.661729" id="path78" fill="#927F3B"></path>
                        <path d="M152.05584,99.9443993 L151.946234,99.9668327 C151.953527,99.9480663 151.938941,99.9554003 151.891109,99.8714906 C150.728344,97.7888482 149.392483,95.6384742 147.922564,93.6528996 C147.846205,93.5474193 147.821109,93.5079451 147.825614,93.514632 L147.965248,93.4827075 L159.115225,90.9537692 C161.028929,92.2158656 162.110616,93.9113155 163.196808,96.5698931 C163.321857,96.8772743 163.408512,97.1758115 163.470071,97.4678776 L152.05584,99.9443993" id="path80" fill="#927F3B"></path>
                        <path d="M42.191796,115.53995 C40.1742773,112.75087 37.6548454,110.98963 35.3842252,110.867324 L52.7532045,107.669482 C56.0094189,107.898346 59.2186594,109.052373 61.8363289,111.682478 L42.191796,115.53995" id="path82" fill="#231F20"></path>
                        <path d="M128.380774,112.021999 C130.471649,111.489205 132.106084,111.074618 133.188629,110.800024 C147.24348,149.022497 133.64035,180.116746 133.64035,180.116746 C133.64035,180.116746 138.844159,142.018952 128.380774,112.021999" id="path84" fill="#231F20"></path>
                        <path d="M147.825614,93.514632 C147.049579,92.4725558 146.233863,91.4790136 145.385544,90.5687338 L153.996356,88.9328188 C156.212495,89.2699674 157.873312,90.0421953 159.122518,90.9522593 L147.825614,93.514632" id="path86" fill="#231F20"></path>
                        <path d="M127.836391,98.7664283 L122.897481,99.6849048 L114.685841,101.21081 C105.867186,104.485228 108.061661,109.82417 107.918809,109.820503 C100.991551,109.721709 98.4444497,115.457982 98.4444497,115.457982 C90.687534,113.614773 89.3626123,117.918757 89.3626123,117.918757 C89.3548905,118.142228 86.6117428,111.771996 77.6483053,112.72628 C78.2523169,108.636492 83.7617776,103.368518 83.7617776,103.368518 C83.7617776,103.368518 64.2418651,101.153863 51.229019,87.8900955 C54.1096566,89.6795933 57.2240913,91.3226266 60.5487289,92.8077631 C79.4135806,101.235185 93.5042527,93.6483698 93.5042527,93.6483698 C93.245789,97.8598156 99.3131453,100.112434 99.3131453,100.112434 C93.43776,100.958218 86.2147167,108.225788 92.0476325,113.336944 C99.7850294,111.089717 108.89711,105.179802 109.156647,99.5479315 C109.156647,99.5602267 109.153644,99.5727377 109.153644,99.5852486 C109.179168,99.0319625 109.131551,98.4810491 108.979905,97.9361755 C108.919847,97.7196066 108.840484,97.5051947 108.771632,97.2890572 L120.460629,95.1227209 C111.828797,79.2428696 105.811203,71.5906959 105.811203,71.5906959 C105.811203,71.5906959 117.008154,81.6430313 125.137643,94.2562295 L126.66333,93.972576 C129.889516,93.8783124 132.314142,95.9486595 133.766043,97.6630916 L127.836391,98.7664283" id="path88" fill="#231F20"></path>
                        <path d="M62.3931521,128.876842 C62.2931984,128.902295 42.1428917,134.028335 42.2973265,133.978291 C44.9892105,133.091308 46.260938,129.291213 45.7830481,124.86514 L66.1450592,119.982633 C66.5551694,123.914739 64.3300216,126.989198 62.3931521,128.876842" id="path90" fill="#FFFFFF"></path>
                        <path d="M44.6207119,25.4748898 L36.0815411,25.5031473 L38.0743933,30.839069 C34.4419586,34.6976196 31.9403296,39.307906 30.6344978,44.4952062 L20.6617647,44.4952062 C25.4937501,28.3729012 41.5075642,13.9576943 67.4350186,13.5909939 C73.042288,13.7025571 78.190972,14.1880684 82.8531863,14.9109427 C92.1486586,16.5626042 102.406345,19.8279415 113.573267,25.0971885 C82.2234356,14.943881 58.6877898,16.5649554 44.6207119,25.4748898" id="path92" fill="#927F3B"></path>
                        <path d="M133.64035,180.116746 C133.64035,180.116746 147.24348,149.022497 133.188629,110.800024 C133.187127,110.784925 134.551944,110.455757 134.662194,110.429225 C135.927486,110.129825 137.143017,108.886711 137.570715,107.161062 L123.345985,110.490055 C123.718559,111.2996 124.016919,112.16264 124.223475,113.0809 C124.236559,113.091901 124.236559,113.05631 124.242565,113.082195 C124.273452,113.268133 124.310774,113.455366 124.32922,113.635481 C124.34402,113.714214 124.349811,113.877503 124.349811,113.877503 C124.98042,121.389684 115.237087,123.249501 115.237087,123.249501 C115.237087,123.249501 116.470206,128.168248 108.771632,129.82638 C99.8217076,131.751341 82.5915052,133.604257 82.5915052,133.604257 C74.5248619,133.144371 70.7214765,130.959053 69.0911171,129.57422 C69.4394533,129.096215 69.7551867,128.616916 70.0466823,128.133303 C70.1037374,128.038392 70.8031982,126.767452 71.0378533,126.208342 C71.0384968,126.206185 71.0399982,126.203381 71.0408562,126.201008 C71.1588272,125.919512 71.3748214,125.310142 71.3808272,125.290944 C71.4730591,125.011605 71.6354301,124.415609 71.6382185,124.402451 C71.7877199,123.796101 71.8936794,123.170553 71.947946,122.519983 L71.9449431,122.520846 C72.0172272,121.661042 71.8945373,119.798204 71.8945373,119.797341 C71.8593605,119.487371 71.740746,118.766482 71.7334533,118.726145 C71.682404,118.441628 71.5035171,117.644163 71.4824968,117.558312 C71.4269431,117.332683 70.9368272,115.673903 70.9134475,115.602073 C70.7868968,115.229765 70.6530533,114.850553 70.5033374,114.461419 C70.3727113,114.123408 69.9042591,113.068821 69.849778,112.954928 C69.7474649,112.738359 69.3534417,111.96721 69.2597084,111.798096 C69.1518186,111.602019 68.7286244,110.883071 68.6267403,110.720429 C68.0718476,109.836034 67.424723,108.968032 66.6933027,108.139074 C66.6064331,108.041143 66.0571172,107.452266 65.8625723,107.258993 C65.7325897,107.129138 65.085894,106.526455 64.8885607,106.357557 C64.7287636,106.219937 62.5263521,104.590493 61.4347985,104.032893 C61.4335115,104.032245 61.4317956,104.031383 61.4305086,104.030736 C61.0791695,103.850837 60.7162478,103.681939 60.3434594,103.522101 C60.3224391,103.512609 60.3014188,103.503981 60.2803985,103.495353 C57.9795348,102.517773 55.2616972,101.922208 52.0612509,101.902795 C52.0640393,101.902795 52.0663987,101.902795 52.0691871,101.902795 C44.528909,95.9918008 19.2514749,83.5856804 19.1000859,55.1038476 C19.0900262,53.1829849 19.2441821,51.2496111 19.5508424,49.3222772 L29.6832224,56.4364799 C30.732092,69.5841978 38.7506889,80.1468939 51.2296625,87.8900955 C64.242723,101.153863 83.7617776,103.368518 83.7617776,103.368518 C83.7617776,103.368518 78.2523169,108.636492 77.6483053,112.72628 C86.6117428,111.771996 89.3548905,118.142228 89.3626123,117.918757 C89.3626123,117.918757 90.687534,113.614773 98.4444497,115.457982 C98.4444497,115.457982 100.991551,109.721709 107.918809,109.820503 C108.061661,109.82417 105.867186,104.485228 114.685841,101.21081 L122.897481,99.6849048 L127.836391,98.7664283 L133.766043,97.6630916 C132.314142,95.9486595 129.889516,93.8783124 126.66333,93.972576 L125.137643,94.2562295 C117.008154,81.6430313 105.811203,71.5906959 105.811203,71.5906959 C105.823644,71.5894016 125.316316,79.5008541 135.969956,97.311275 C136.059828,97.4581708 136.146698,97.6098122 136.233997,97.7597279 C136.581475,98.3544296 136.918014,98.961858 137.246831,99.5794245 C137.353434,99.7802469 137.460681,99.9793436 137.565568,100.182754 C137.963023,100.959296 138.348252,101.746624 138.709243,102.557031 C139.14402,103.538494 139.556489,104.507877 139.955017,105.471437 C140.011214,105.614881 140.069556,105.756816 140.129614,105.90026 C140.510339,106.832326 140.876478,107.757705 141.223312,108.673809 C141.223312,108.673809 141.223312,108.675535 141.223312,108.676182 C158.621248,154.607559 133.64035,180.116746 133.64035,180.116746" id="path94" fill="#927F3B"></path>
                        <path d="M83.883824,119.75571 C83.0462298,119.579478 81.5990472,119.530944 81.102711,120.900894 C81.102711,120.900894 82.3075168,125.507513 80.953853,129.075076 C80.953853,129.075076 84.5579747,130.646063 86.7026877,128.568598 C88.0662181,127.248045 86.9534297,120.402181 83.883824,119.75571" id="path96" fill="#FFFFFF"></path>
                        <path d="M109.942762,124.708322 C109.032241,126.251052 105.434983,126.464601 104.650797,126.496525 C105.064554,122.240428 102.439592,118.086145 102.053505,117.419397 C102.420287,116.080725 105.305858,115.177132 106.048003,115.311733 C108.947731,115.839134 111.261249,122.469508 109.942762,124.708322" id="path98" fill="#FFFFFF"></path>
                        <path d="M115.092948,119.327102 C114.75791,116.300098 112.274084,113.062997 111.344473,111.941541 C110.759122,110.275427 115.226791,106.799539 118.64173,113.252602 C120.076472,116.063684 120.7562,118.466866 115.092948,119.327102" id="path100" fill="#FFFFFF"></path>
                        <path d="M98.3976903,127.525443 C97.7156034,128.210957 94.0917484,128.460961 93.2164035,128.512299 C92.8970238,122.77236 91.4020093,120.683462 91.4020093,120.683462 C91.4020093,120.683462 92.9221194,118.319754 95.9975164,119.250095 C99.0604729,120.182377 99.6732787,126.239835 98.3976903,127.525443" id="path102" fill="#FFFFFF"></path>
                        <path d="M105.811203,71.5906959 C113.729203,73.2410632 132.724895,79.8543964 143.970965,99.0416692 C173.735265,149.851024 133.64035,180.116746 133.64035,180.116746 C133.64035,180.116746 160.856906,152.338547 138.709243,102.557031 C129.135359,81.0448783 105.825145,71.5894016 105.811203,71.5906959" id="path104" fill="#FFFFFF"></path>
                        <path d="M137.570715,107.161062 C137.143017,108.886711 135.927486,110.129825 134.662194,110.429225 C134.349678,110.50386 130.382205,111.512286 124.223475,113.0809 C124.016919,112.16264 123.718559,111.2996 123.345985,110.490055 L137.570715,107.161062" id="path106" fill="#FFFFFF"></path>
                        <path d="M160.845109,103.635131 C159.529625,103.988026 156.344622,104.765215 154.608732,105.18541 C153.876669,103.619384 152.982448,101.824494 151.946234,99.9668327 L163.489376,97.4635635 C164.496205,100.330729 162.698541,103.141595 160.845109,103.635131" id="path108" fill="#FFFFFF"></path>
                        <path d="M20.6526273,44.4952062 L12.6763498,44.4952062 L19.5520221,49.3229243 C19.2451902,51.2504739 19.0898546,53.183632 19.1000859,55.1038476 C19.2514749,83.5856804 44.528909,95.9918008 52.0691871,101.902795 C50.2408509,101.892872 48.2595814,102.06328 46.1047873,102.464925 C42.6668975,103.106651 39.828086,103.670722 37.4864686,104.161885 C31.2844108,99.6590201 14.0065481,88.3407056 9.9102299,62.8580503 C4.22893902,27.4822507 40.4042135,9.24906751 62.1370477,9.24906751 C93.5267745,9.24906751 113.573267,25.0971885 113.573267,25.0971885 C60.309355,-0.0351365815 27.8960689,20.3128488 20.6526273,44.4952062" id="path110" fill="#231F20"></path>
                        <path d="M40.6693265,44.4952062 L30.6344978,44.4952062 C31.9403296,39.307906 34.4419586,34.6976196 38.0743933,30.839069 L41.8867874,41.0454186 C41.4054656,42.1785227 41.0013613,43.3308247 40.6693265,44.4952062" id="path112" fill="#FFFFFF"></path>
                        <path d="M41.660712,64.8462134 C42.2587178,66.3050337 42.9620395,67.6493141 43.7590946,68.8363448 C55.1021146,85.7142682 80.4017487,85.7142682 87.7060848,85.0826807 C100.280508,84.0058759 107.000994,90.813776 108.979905,97.9361755 C110.665818,104.011322 100.525887,110.874011 92.0476325,113.336944 C86.2147167,108.225788 93.43776,100.958218 99.3131453,100.112434 C99.3131453,100.112434 93.245789,97.8598156 93.5042527,93.6483698 C93.5042527,93.6483698 79.4135806,101.235185 60.5487289,92.8077631 C42.8196163,84.8948007 30.9721094,72.6204768 29.682579,56.4356171 L41.660712,64.8462134" id="path114" fill="#FFFFFF"></path>
                        <path d="M67.6025374,23.1601477 C64.2991346,23.6441922 61.3547927,24.4269896 58.7049493,25.4278659 L44.6207119,25.4748898 C58.6877898,16.5649554 82.2234356,14.943881 113.573267,25.0971885 C95.4291107,21.2253072 80.806282,21.2253072 67.6025374,23.1601477" id="path116" fill="#FFFFFF"></path>
                        <polyline id="path118" fill="#231F20" points="170.894738 25.96066 175.281972 25.96066 175.281972 25.3105218 173.453422 25.3105218 173.453422 20.5272176 172.723932 20.5272176 172.723932 25.3105218 170.894738 25.3105218 170.894738 25.96066"></polyline>
                        <path d="M180.407062,20.5272176 L180.407062,23.7362987 C180.407062,23.8952741 180.421862,24.5838079 180.421862,25.090933 L180.407062,25.090933 L178.886523,20.5272176 L178.164111,20.5272176 L176.644216,25.0829519 L176.629201,25.0829519 C176.629201,24.5838079 176.644216,23.8952741 176.644216,23.7362987 L176.644216,20.5272176 L175.936819,20.5272176 L175.936819,25.96066 L176.982471,25.96066 L178.525746,21.3674575 L178.540546,21.3674575 L180.075671,25.96066 L181.11403,25.96066 L181.11403,20.5272176 L180.407062,20.5272176" id="path120" fill="#231F20"></path>
                    </g>
                </g>
            </g>
        </g>
    </g>
</svg>