<svg width="200" height="200" xmlns="http://www.w3.org/2000/svg"><path d="M105.996 106.328c-3.198 23.903-3.396 47.788-3.04 71.515-12.79-21.408-19.325-45.269-17.733-70.508l-3.875.177c-.744.035-1.304-.429-1.4-1.07l-7.46.368c-.761.037-1.294-.552-1.148-1.268l6.218-18.435c.138-.679.833-1.2 1.54-1.154l3.931.413c.28-.666 1.002-1.152 1.753-1.117l3.82.178c6.193-25.24 20.086-49.1 39.48-70.508-7.674 23.727-14.843 47.611-19.018 71.515l5.44 2.236 52.076-2.56c.77-.039 1.482-.548 1.613-1.285a.11.11 0 0 1 .002-.014c3.275-18.866 7.425-39.917 11.435-58.62.204-.947 0-1.788-.61-2.527a1300.408 1300.408 0 0 1-14.604-18.142c-.6-.753-1.452-1.157-2.554-1.211-29.874-1.455-59.751-2.89-89.63-4.306-1.017-.049-1.992.288-2.923 1.013a1716.806 1716.806 0 0 0-22.56 17.864c-.923.744-1.49 1.63-1.701 2.66A1575.275 1575.275 0 0 0 21.02 179.048c-.106 1.048.186 1.942.875 2.68a1420.39 1420.39 0 0 0 16.88 17.796c.621.642 2.594.448 2.594.448h86.43s2.16-.478 2.905-1.178c6.743-6.39 17.166-16.913 23.983-23.154.847-.77 1.323-3.447 1.428-4.413a1447.508 1447.508 0 0 1 5.622-44.54c.87-6.122 1.968-12.805 2.973-19.04.207-1.285-.806-2.45-2.147-2.472l-50.47-.874-6.098 2.027" fill="#124D39" fill-rule="evenodd"/></svg>