<svg width="200" height="200" xmlns="http://www.w3.org/2000/svg" xmlns:xlink="http://www.w3.org/1999/xlink"><defs><path id="a" d="M0 0h168.1v132.406H0z"/></defs><g fill="none" fill-rule="evenodd"><path d="m120.563 91.05-30.75 14.84 4.658 22.004 24.994 15.24 11.313 12.868 14.009-2.19 1.317-7.326 4.277-1.07 1.984-9.286 9.185-2.618 1.47-3.381s-3.952-8.69-5.99-15.858l4.52-5.977-1.438-6.85s-10.293-10.132-39.549-10.395" fill="#FFFFFE"/><path d="M160.547 51.148s-6.515-16.355-14.647-22.9c0 0-43.065-1.754-69.729 37.879l3.552 15.63s63.108-14.693 80.824-30.61" fill="#15233C"/><path d="M152.931 41.234s-.925-4.582-7.757-10.024c-4.574.38-40.027-1.2-66.343 34.312l.827 8.254-1.754 1.516-2.958-9.936s26.332-39.558 71.619-37.26c0 0 5.487 2.6 10.944 14.3l-4.578-1.162" fill="#0B0B09"/><path d="M59.678 111.471s30.044-31.459 53.902-28.595c23.859 2.863 55.498 7.008 66.236 3.27 10.738-3.736 19.647-14.7 15.589-27.8l-11.149-.238-8.234 2.551s-4.744-10.016 1.16-25.382c0 0-23.252-2.23-34.907 3.842 0 0-4.3 3.998-1.374 12.116 0 0-6.89-2.378-10.19-10.38 0 0-70.954 14.599-85.99 74.635 0 0 3.173 2.299 14.957-4.019" fill="#15233C"/><path d="m100.117 137.61 7.098 5.487 21.196 11.482 4.072-7.99-.234-3.454s-7.419-8.577-12.901-13.032l-6.561-17.884-1.646-1.905-10.22 25.708" fill="#1C1B19"/><g transform="translate(0 39.212)"><mask id="b" fill="#fff"><use xlink:href="#a"/></mask><path d="m111.4 41.263 9.459 27.218-8.115-3.022s10.337-2.382 15.335-10.084c0 0-18.735-12.312-50.395 5.093l-.874.437" fill="#1C1B19" mask="url(#b)"/><path d="m149.35 107.84-7.718-1.988s2.035 3.671-1.927 4.663c-3.963.993-6.112-2.065-7.456-6.592-1.343-4.527-12.901-13.031-12.901-13.031l-3.756-10.238c3.364-6.83 3.777-11.64 3.777-11.64.247 4.296-.602 8.736-.602 8.736 6.088-8.593 9.155-23.173 9.155-23.173l-17.106-2.006v2.25c-2.478-.105-9.133-.272-14.956.616L83.296 57.61s3.39 6.12-.833 16.868l-.101.26c-4.42 11.415-3.56 20.521 5.49 32.31 6.415 8.356 16.679 13.29 16.679 13.29-2.665-4.046-2.831-8.19-2.831-8.19 5.063 8.881 10.27 10.166 10.27 10.166-4.396-6.947-4.396-10.561-4.396-10.561 1.07 1.48 3.076 2.368 3.076 2.368-.988-3.257-.787-7.04-.787-7.04 2.948 11.382 13.397 18.191 13.397 18.191l-1.297-5.628c3.125 9.162 12.863 12.02 12.863 12.02-.917-1.45-1.277-3.645-1.409-5.456 1.409 5.456 10.912 6.213 10.912 6.213-2.494-1.392-3.446-3.279-3.446-3.279 9.804 5.167 16.31 2.33 16.31 2.33-4.207-.337-6.141-2.609-6.141-2.609 10.498 2.561 17.048-3.23 17.048-3.23-7.834 1.196-13.896-5.13-13.896-5.13 1.845.659 4.22.311 4.22.311s-7.642-4.259-9.074-12.974" fill="#0B0B09" mask="url(#b)"/><path fill="#0B0B09" mask="url(#b)" d="m127.486 54.123-7.876 9.004 4.555 1.46-11.473 9.415-7.553-.65 9.24-20.492 13.107 1.263M69.676 33.056s-8.784 4.387-18.81 3.999c0 0 .33-1.493.211-2.76 0 0-.81 1.653-2.4 2.79l-8.324-.002s.3-.568.526-1.484c0 0-.834.887-2.717.858 0 0-21.407.738-38.162 13.968 0 0 1.446-16.673 21.553-29.008 0 0-1.652.272-3.4.718 0 0 11.894-14.123 33.921-17.62l-3.318-.97s35.988-11.074 55.77 5.924c0 0-26.01 18.758-34.85 23.587"/></g><path d="M2.636 85.578S13.83 76.62 30.853 74.132a66.684 66.684 0 0 1 6.228-.599 5.262 5.262 0 0 0 2.251-.622c1.462-.797 2.84-1.725 3.955-2.792 0 0 .142 1.179-.463 3.29 2.047.004 4.037.046 5.984.066 1.418-1.29 3.046-3.044 4.261-5.16 0 0 .56 2.114-.157 5.145 7.336-.163 14.696-1.3 21.532-6.894l.34-.062c10.152-2.696 27.914-16.25 27.914-16.25S90.57 38.361 63.37 41.713c-3.027.373-5.41.941-8.4 1.671l2.403 1.367c-10.955.335-24.027 6.351-32.708 14.013l5.55-.974S11.062 63.834 2.636 85.578" fill="#A09062"/><path d="M108.187 109.159s-1.952 6.613-1.357 11.68l-1.76.771-3.226.18-5.144-8.662 3.5-7.237 7.987 3.268" fill="#FFFFFE"/><path d="m108.92 138.672 1.896 4.63c15.936 2.446 26.055 21.372 26.055 21.372l14.766-6.625-3.015-9.732 3.117-1.16 1.01-7.33-3.323-.168-1.202 4.064-6.592 1.34 2.538 2.788.617 5.962-8.983 2.783s-8.608-14.828-21.692-17.338l-4.36-10.484-.831 9.898" fill="#0B0B09"/><g fill="#0B0B09"><path d="M158.618 132.914c-8.245-2.778-11.293-.054-15.783 1.393-7.431 2.394-10-1.824-10-1.824s.265 4.806 8.771 6.5l10.517 2.097s4.078.765 5.962-.617c2.547-1.867.533-7.549.533-7.549M175.273 83.428c-17.067 2.337-31.606-7.744-52.216-4.229 0 0 3.531-3.006 12.526-4.553 0 0-38.781-9.641-78.729 35.847 0 0-5.656 3.381-12 4.834 0 0 6.763-20.951 27.226-41.249 20.463-20.298 57.603-29.922 57.603-29.922s4.205 5.574 11.924 7.978c0 0-1.227-4.037 1.293-12.267 0 0 14.451-3.577 30.242-1.964 0 0-9.34 25.195 9.803 30.471 0 0-1.693-1.996-1.324-5.025 0 0 5.862.423 8.999-3.21 0 0 1.72 20.952-15.347 23.29Zm22.85-39.402s-3.004 9.302-15.523 10.528c0 0-.539 2.417-3.404 2.713 0 0-4.424-11.208 7.544-24.853 0 0-28.242-1.392-47.111 4.614 0 0-1.48 6.964-.96 10.571 0 0-4.441-2.89-5.862-8.905 0 0-74.614 13.09-95.323 81.806 0 0 23.301-1.954 39.326-12.59 0 0 5.035-11.525 25.925-19.153 21.478-7.843 40.026-4.473 56.08.69 0 0 13.836 6.588 28.65-5.174 14.812-11.762 13.682-29.734 10.657-40.247Z"/></g><path d="M85.815 96.06c35.748-24.808 81.16-6.345 81.16-6.345l-4.094 12.664c-37.007-10.719-66.7-1.749-77.175 0 0 0-1.042-2.365-2.41-4.623l2.52-1.697" fill="#A09062"/><path d="m108.916 111.265.169-3.43s-3.424-4.18-7.417-4.568c0 0-5.439 1.834-8.35 6.658 0 0 .862 5.773 3.37 9.144 0 0 1.404 2.552 1.844 5.248 0 0 1.287 1.018 3.965.96 2.677-.06 4.239-.748 4.239-.748l.094-4.655v-1.634l.05-2.342-1.119-.681-.815 4.926-1.962 1.05-4.427-7.095 3.177-6.338 7.182 3.505" fill="#FFFFFE"/><path d="m98.602 113.395-.374 1.445s-.998-4.178 1.843-6.73l1.273.191" fill="#B8B7C0"/><path d="M109.15 111.978s-5.287-3.127-10.113-3.972c0 0 1.259-.851 3.686-.732l5.374 2.09.682-1.488s-4.1-3.244-7.742-3.423c0 0-4.976 2.19-6.642 5.15 0 0 .368 4.885 3.254 8.07 2.886 3.184 2.11 5.988 2.11 5.988s6.772 1.764 7.003-.161l.456 1.4s-2.21.892-4.638.773c-2.428-.12-3.324-.467-4.797-1.453 0 0 .105-2.124-1.582-4.945s-3.329-6.553-3.165-9.89c0 0 2.09-5.375 8.235-6.594 0 0 6.328 1.224 8.592 4.682l-.713 4.505" fill="#0B0B09"/><path d="M102.723 107.274s-7.94 1.728-4.495 7.566c2.405 4.076 3.205 4.397 3.616 6.95 0 0 2.271.422 3.226-.18.956-.601.967-3.064.967-3.064s-.794 1.94-1.924 2.294l-1.469-.191s-.136-2.913-2.41-5.68c-2.872-3.494 2.49-7.695 2.49-7.695M88.842 102.817s19.208-5.03 41.106-4.306c21.898.722 31.119 5.44 33.103 5.24 1.984-.199 3.385-2.884 2.451-6.969 0 0 2.277-5.019 2.598-7.704.32-2.684-2.715-1.634-2.715-1.634s-.35 1.985-.817 3.502c-.466 1.517-.406 3.007-2.48 2.67-2.072-.336-11.293-1.772-18.547-.891 0 0 16.507 3.357 18.009 4.174 1.5.817 1.538 2.697.735 3.89-.802 1.194-7.015-2.14-22.112-4.007-12.199-1.508-35.329-1.376-53.696 5.37l2.365.665M85.866 97.617s9.76-6.822 22.627-9.559c0 0-15.964 5.718-22 11l-.627-1.441M88.191 100.54s4.805-3.408 13.469-5.869c0 0-8.11.928-14.378 4.651l.91 1.218M75.528 102.428s.143 1.026-.607 1.697c-.75.67 1.5.357 2.689.858 1.188.5.102-2.004-.415-2.534-.518-.53-1.06-1.718-1.667-.021" fill="#0B0B09"/><path d="M89.545 99.689s-1.267.7-.715 1.652l-1.024.368-1.042-2.02h2.781M87.584 96.513s-1.11.664-1.878.368l-1.175.785 1.305 1.32 1.748-2.473" fill="#0B0B09"/><path d="M88.635 97.426s-1.154.932-1.051 1.19c.103.26.333.28 1.464-.25l-1.242 1.45-1.042-.646-.722-1.15 2.593-.594M86.634 95.5s-1.378.994-.928 1.381l-1.015.876-1.781.225 3.724-2.482M49.262 126.17s-10.321 2.355-15.388-.54c0 0 2.014 7.221 7.71 7.465 0 0 6.806-2.25 7.678-6.925" fill="#0B0B09"/><path d="M54.564 125.154c.557-.402-7.484 5.45-17.488 3.028 0 0 4.392 6.78 13.966 5.046l3.522-8.074" fill="#A09062"/><path d="M86.477 103.324s-.097 23.094-22.307 31.458c-22.21 8.364-31.705 1.345-37.397-3.995 0 0 12.406 2.9 20.778-3.445 8.372-6.343 16.8-25.49 34.84-24.743l4.086.725" fill="#0B0B09"/><path d="M84.49 104.529s-.413 6.285-3.67 12.088c-3.256 5.802-9.91 14.974-24.712 18.307-15.714 3.54-23.919-1.841-23.919-1.841s6.134 2.205 14.343-2.334c7.073-3.911 10.747-11.046 17.248-17.673 5.863-5.977 11.7-9.068 20.71-8.547" fill="#A09062"/><path d="M87.83 100.576s.645 4.409-3.395 4.852c0 0-3.91-1.353-4.248-3.659-.474-3.226 2.454-3.91 4.504-4.012 0 0 2.457-.627 3.14 2.82" fill="#A09062"/><path d="M85.834 105.048s-1.284.525-1.976-1.583c-.413-1.262-1.06-.412-2.488-.667-1.234-.22-1.234-1.803-1.234-1.803s-.511 1.802.42 2.769c.932.967 2.14 1.263 2.84 1.532.7.268 1.698.337 2.438-.248" fill="#0B0B09"/><path d="M79.05 104.695s2.524-1.99 3.268.09c.019.053-.75 2.786-8.607 6.789-6.949 3.539-9.463 8.76-9.463 8.76s1.078-4.283 5.771-7.771c4.693-3.488 7.63-3.813 9.044-5.983 1.1-1.689-.013-1.885-.013-1.885" fill="#0B0B09"/><path d="M79.961 111.521s1.641-1.655 2.422-3.67c.913-2.356 2.537-1.96 2.537-1.96s-.804-1.041-1.624-1.419c-.82-.377-2.33 1.004-2.33 1.004.784.41.972.805-.162 3.205-.774 1.641-2.902 4.25-5.833 6.086 0 0 2.67-1.08 4.99-3.246M157.228 110.79s-2.028 8.575-6.992 8.97c-4.964.393-9.448-1.849-11.834-6.31-2.385-4.462-.954-8.527-.954-8.527s9.136.235 19.78 5.868" fill="#0B0B09"/><path d="M138.324 105.037s-12.62-1.372-27.09-5.264l-2.15.52s15.501 5.598 29.354 6.75l-.114-2.006M155.705 113.277s1.309-1.226 2.563-2.866l1.646-2.152-1.809-7.86 3.555 1.016s.416 1.51 1.537 7.059c0 0-1.647 1.84-4.415 5.502 0 0 2.001 11.06 5.612 16.094l-1.092 5.044-4.371.967-11.118-2.963-1.04-2.295 2.61-6.141.37 5.833 10.13 2.172.944-2.948c-4.332-7.488-5.122-16.462-5.122-16.462" fill="#0B0B09"/><path d="M150.774 106.961c-3.548-2.372-6.38-7.439-18.9-6.344 0 0 7.251.871 11.58 5.304 3.18 3.255 4.387 8.402 8.717 8.347 1.733-.022 3.93-2.315 3.943-4.05 0 0-1.08-.407-5.34-3.257M158.981 114.982s-1.209-4.236-1.469-8.113c0 0-1.31 3.801-1.534 8.458 0 0 1.908-.71 3.003-.345M87.413 151.556s-16.793-15.541-7.028-32.542l9.428 5.256s-7.862 12.233-2.4 27.286" fill="#0B0B09"/></g></svg>