<svg width="200" height="200" xmlns="http://www.w3.org/2000/svg"><g fill="none"><path d="M146.536 125.676a57.882 57.882 0 0 0 4.477-4.182c.79.15 1.369.26 1.69.323l.587.117c5.429 1.08 19.85 3.95 27.399-10.638 1.331-2.578 2.001-5.36 2.001-8.128 0-2.35-.482-4.688-1.454-6.88-1.779-4.01-4.931-6.865-8.65-7.83-.592-.154-2.174-.56-4.53-1.163 3.694-15.172 3.535-29.804-.561-43.016-5.474-17.661-17.45-31.485-34.631-39.977l-6.494-3.21 1.977 7.002c.089.319 6.999 25.57 1.334 57.389-1.569-.95-3.445-1.84-5.73-2.58l-.207-.067-29.394-5.261-.181-.023c-10.05-1.514-18.144 2.168-23.43 4.915l-13.447-3.43c-3.004-1.1-9.481-1.766-15.633.89-5.31 2.291-9.296 6.646-11.525 12.593-3.203 8.54-3.266 15.562-.188 20.872.303.521.63.995.966 1.45-9.86 8.631-20.905 23.324-23.265 46.816a47.69 47.69 0 0 0-.24 4.766c0 11.971 4.54 23.526 13.04 32.963 12.121 13.457 31.183 21.468 50.991 21.43 24.536-.05 44.437-10.956 56.535-19.784h32.218c13.389 0 17.84-12.266 21.417-22.122l.284-.781c1.034-2.845 8.618-27.214 8.94-28.25l1.308-4.204h-45.604" fill="#927F3B"/><path d="M136.858 128.637c4.619-2.753 9.097-6.237 13.064-10.642 1.779.335 2.964.56 3.395.644 4.996.973 17.829 4.086 24.515-8.838 4.03-7.797.045-16.625-6.05-18.208-.829-.215-3.568-.917-7.663-1.964 10.175-36.661-3.385-67.943-32.676-82.421 0 0 8.13 28.656.392 64.077-1.807-1.865-4.472-3.874-8.87-5.3L93.87 60.778l-.096-.012c-9.823-1.48-17.665 2.512-22.638 5.143l-14.666-3.74c-3.166-1.345-17.884-3.02-23.324 11.493-4.602 12.271-1.27 18.474 2.523 21.5-9.929 7.858-22.364 22.38-24.82 46.821-3.129 31.15 26.375 55.662 60.582 55.596 24.352-.05 44.177-11.39 55.783-20.06h32.629c11.166 0 14.49-6.819 21.206-26.604.96-2.824 7.18-22.278 7.18-22.278h-51.372" fill="#00613C"/><path d="M58.92 146.265h-8.944l-6.865 1.303 22.663-15.535-3.548 5.13a11638.11 11638.11 0 0 1-3.306 9.102zm-4.77 12.798l5.116-2.819 2.51-7.024h7.37l7.133-2.955h-9.472l-5.03 2.878 5.643-17.508 7.982-9.698-43.296 30.148.006-.003 8.221-2.863h20.724l-4.27 2.858c-.581 1.544-2.637 6.986-2.637 6.986zm61.226-24.717l-9.098 24.663 5.399-2.987h8.651l3.58-2.441h-8.49l.017-.046-.015.037-3.423 2.026 3.351-9.003h7.83l3.86-2.696.005-.004h-7.988l-.001.004-3.519 1.926 3.22-8.78h9.076l3.168-2.688.004-.011h-15.627m25.835 13.295c4.744-.465 7.448-2.054 9.005-5.467 1.45-3.168-1.797-4.597-1.797-4.597l-2.939 2.345c.637.45.901 1.192.453 2.406-.989 2.682-3.756 3.071-6.09 3.071h-.688l-.006.002-.122.068-3.415 1.94 3.786-10.305h5.537c2.711 0 3.484.473 3.484.473l3.139-2.328.027.01c-1.246-.614-2.893-.913-4.822-.913h-10.671l-9.1 24.658 5.254-2.53 3.217-8.856h5.614l-3.363 1.921-.003.009 3.233 9.463 4.19-2.153-3.923-9.217m32.568 1.019c-.01-.105-.017-.209-.028-.314l.028.315m-4.507.898l3.893-2.6c-.791-1.182-2.298-1.932-4.137-2.472l-1.643-.49c-.88-.289-2.153-.702-2.363-1.587-.016-.064-.034-.128-.028-.096l-.157.106-3.453 2.33c-.63-7.57 8.077-8.83 11.574-7.344l4.759-1.16c-1.984-1.245-5.08-2.027-7.853-2.027-5.495 0-10.675 3.266-12.525 8.276-.874 2.374-.68 3.825.234 4.827l3.796-2.56s.65 1.115 3.072 1.882c4.137 1.307 4.833 2.907 4.833 2.907l-3.746 2.61c-.01.038-.015.073-.03.111-.635 1.739-2.7 2.491-4.379 2.491-2.44 0-4.13-1.148-5.395-2.553l-4.968 5.17 5.226-.82c5.174 2.856 14.31-.062 13.29-7.001m4.492-.336c0-.033.005-.065.005-.097 0 .032-.005.064-.005.097m-73.338-18.839c.067.082.138.159.198.246.826 1.195.949 2.752.345 4.386-1.278 3.46-5.315 6.172-9.188 6.172-1.9 0-3.414-.675-4.263-1.9-.102-.148-.165-.25-.165-.25l-4.98 3.272c1.63 2.496 11.56 5.247 21.755-3.562 4.913-6.44.48-10.658.48-10.658l-4.065 2.414s-.04-.046-.117-.12" fill="#FFF"/><path d="M77.98 145.268c-.04-.048-.087-.09-.128-.14l4.522-2.818c-2.794-6.248.392-11.392 6.774-14.749 9.319-4.895 15.46.53 15.46.53l4.652-2.987c-.081-.087-.155-.18-.24-.263-1.938-1.928-5.634-3.033-10.143-3.033-8.252 0-18.692 4.223-22.115 13.496-1.283 3.475-1.108 6.786.482 9.085.22.318.47.606.737.88m-2.198 13.612l9.216-2.835s7.072-5.527 12.996-10.985a50.238 50.238 0 0 1-6.837 2.003c-.066.099-14.032 10.787-15.384 11.818.01-.003.009-.001.009-.001m86.984 11.905c.166-.09.333-.2.5-.3-.171.1-.331.206-.5.3m-3.741-2.903l10.963-3.953H52.46l-2.965 7.548h.074l6.973-3.595h102.485m.418 3.559c-.141.003-.273.018-.42.022.141-.008.279-.02.42-.022m2.405-.372c.166-.159.333-.322.5-.5-.165.178-.333.336-.5.5" fill="#FFF"/><path fill="#927F3B" d="M54.15 159.063h7.906l2.635-6.996h5.89l5.698-5.802-7.134 2.955h-7.368l-2.51 7.024-5.117 2.819m7.627-9.92l5.03-2.878 8.595-24.328-7.982 9.698-5.643 17.508m-4.996 2.939l4.276-2.863H40.333l-8.221 2.863h24.67m-6.806-5.817l-6.865 1.303 22.663-15.535-3.56 5.15-12.238 9.082m50.567-15.761l4.065-2.414s-6.141-5.424-15.46-.529c-6.382 3.357-9.568 8.501-6.774 14.75l4.98-3.272s-2.431-4.005 3.12-8.387c6.31-4.446 10.069-.148 10.069-.148"/><path d="M109.27 125.097l-4.662 2.993s4.433 4.218-.48 10.658c-10.194 8.81-20.125 6.058-21.754 3.562l-4.522 2.819c4.43 5.374 17.082 1.077 20.143-.068C92.071 150.52 85 156.046 85 156.046l-9.216 2.835h10.912s10.901-8.82 14.248-11.764c3.345-2.95 15.274-13.833 8.328-22.02m7.833 24.24h7.96l1.973-5.438-3.86 2.696h-7.83l-3.351 9.003 3.423-2.026 1.685-4.235m3.407-9.553h8.49l1.998-5.428-3.169 2.689h-9.076l-3.22 8.78 3.519-1.926 1.458-4.115m-14.24 19.227l5.405-2.989h8.651l3.58-2.441-1.997 5.43h-15.639m27.981.006l-7.274-.006 5.267-2.536 3.217-8.857h5.614l-3.363 1.921-3.46 9.478m17.304-23.768l-3.14 2.328s3.248 1.43 1.798 4.597c-1.557 3.413-4.261 5.002-9.005 5.467l3.923 9.217-4.19 2.153 8.89-.004-4.906-10.105s4.38-.332 7.367-4.601c4.835-7.156-.737-9.052-.737-9.052" fill="#927F3B"/><path d="M139.15 145.4l-3.538 2.008 3.786-10.304h5.537c2.711 0 3.484.473 3.484.473l-2.939 2.345s-.522-.552-2.745-.658c-.987-.012-1.317-.012-1.317-.012l-2.269 6.149m38.568-9.156l-4.759 1.16c-3.497-1.485-12.203-.226-11.574 7.345l3.61-2.436c-.29-1.621 4.033-4.6 8.05-1.095l4.673-4.974m-16.348 8.517l-3.807 2.566s1.207 1.468 4.367 2.185c4.285.973 3.594 2.652 3.594 2.652l3.751-2.614s-.696-1.6-4.833-2.907c-2.422-.767-3.072-1.882-3.072-1.882" fill="#927F3B"/><path d="M150.756 157.38l5.226-.82c5.174 2.856 14.31-.062 13.29-7.001l3.906-2.61c2.175 2.709-1.681 10.963-8.995 12.57-5.844 1.585-10.407.344-13.427-2.14m-94.215 10.504h102.485l10.963-3.953c-.832 1.316-3.761 7.548-11.239 7.548H49.568l6.973-3.595m-2.502-91.728l-.849-.204c.478-4.426-.793-8.226-3.485-9.113a15.873 15.873 0 0 0-.317-.081v.003c-3.907-1.013-8.056 2.886-10.462 8.975-2.466 6.249-1.553 12.48 2.042 13.918a4.196 4.196 0 0 0 1.682.283l.142.013c2.27-.122 4.79-1.883 6.807-4.672l3.78.742 15.857 3.113c.123-.117.593-.615.77-.823.072-.083 1.222-1.31 2.378-3.699.46-.952 1.04-2.98 1.063-3.11.03-.17.095-.619.098-.667L54.04 76.155m105.423 24.717l-.11-.022c.008.018-.007.011-.054.095-1.163 2.083-2.5 4.233-3.969 6.219-.076.105-.101.145-.097.138l.14.032 11.15 2.529c1.913-1.262 2.995-2.958 4.081-5.616.125-.308.212-.606.273-.898l-11.414-2.477" fill="#927F3B"/><path d="M49.6 85.277c-2.018 2.789-4.538 4.55-6.808 4.672l17.369 3.198c3.256-.229 6.465-1.383 9.083-4.013l-19.645-3.857m86.189 3.517c2.091.533 3.725.948 4.808 1.222 14.055-38.222.452-69.316.452-69.316s5.204 38.098-5.26 68.094m19.445 18.508a34.926 34.926 0 0 1-2.44 2.946l8.61 1.636c2.217-.338 3.878-1.11 5.127-2.02l-11.297-2.562m-19.989-5.252l-4.94-.918-8.21-1.526c-8.82-3.275-6.625-8.614-6.768-8.61-6.927.099-9.474-5.638-9.474-5.638-7.757 1.844-9.082-2.46-9.082-2.46-.008-.224-2.75 6.146-11.714 5.192.604 4.09 6.113 9.358 6.113 9.358s-19.52 2.215-32.533 15.478a77.76 77.76 0 0 1 9.32-4.917c18.865-8.428 32.956-.84 32.956-.84-.259-4.212 5.809-6.465 5.809-6.465-5.876-.846-13.099-8.113-7.266-13.224 7.737 2.247 16.85 8.157 17.11 13.789 0-.013-.004-.025-.004-.038a5.21 5.21 0 0 1-.174 1.65c-.06.216-.14.43-.208.646l11.689 2.167c-8.632 15.88-14.65 23.532-14.65 23.532s11.198-10.053 19.327-22.666l1.526.284c3.226.094 5.65-1.976 7.102-3.69l-5.93-1.104" fill="#231F20"/><path d="M69.8 71.94c-.1-.026-20.25-5.152-20.095-5.102 2.692.887 3.963 4.687 3.485 9.113l20.362 4.883c.41-3.932-1.815-7.007-3.751-8.894" fill="#FFF"/><path d="M52.028 175.342l-8.54-.029 1.994-5.336c-3.633-3.858-6.134-8.468-7.44-13.656h-9.973c4.832 16.123 20.846 30.538 46.773 30.904a115.648 115.648 0 0 0 15.419-1.32c9.295-1.651 19.553-4.916 30.72-10.186-31.35 10.154-54.886 8.532-68.953-.377M141.048 20.7s13.603 31.094-.452 69.316c-.001.016 1.363.345 1.474.371 1.265.3 2.48 1.543 2.908 3.268l-14.225-3.329c.373-.81.671-1.672.878-2.59.013-.011.013.024.019-.002.03-.186.068-.373.087-.553.014-.079.02-.242.02-.242.63-7.512-9.113-9.372-9.113-9.372s1.234-4.919-6.465-6.577c-8.95-1.925-26.18-3.778-26.18-3.778-8.067.46-11.87 2.645-13.5 4.03.348.478.664.958.955 1.441.057.095.757 1.366.991 1.925l.003.007c.118.282.334.891.34.91.092.28.255.876.258.889.15.606.255 1.232.31 1.882h-.004c.073.86-.05 2.722-.05 2.723a30.14 30.14 0 0 1-.161 1.071 37.81 37.81 0 0 1-.251 1.168c-.056.226-.546 1.885-.57 1.956-.126.373-.26.752-.41 1.141-.13.338-.598 1.393-.653 1.507a40.36 40.36 0 0 1-.59 1.156 44.28 44.28 0 0 1-.633 1.078 19.895 19.895 0 0 1-1.933 2.581c-.087.098-.636.687-.831.88-.13.13-.777.733-.974.902-.16.138-2.362 1.767-3.454 2.325l-.004.002a17.617 17.617 0 0 1-1.15.535c-2.301.978-5.019 1.573-8.22 1.593h.009c-7.54 5.91-32.818 18.317-32.97 46.799-.01 1.92.145 3.854.451 5.781l10.133-7.114c1.048-13.148 9.067-23.71 21.546-31.454C71.65 99.663 91.17 97.448 91.17 97.448s-5.51-5.268-6.113-9.358c8.963.954 11.706-5.416 11.714-5.192 0 0 1.325 4.304 9.082 2.46 0 0 2.547 5.737 9.474 5.638.143-.004-2.051 5.335 6.767 8.61l8.212 1.526 4.939.918 5.93 1.103c-1.452 1.715-3.877 3.785-7.103 3.69l-1.526-.283c-8.13 12.613-19.326 22.666-19.326 22.666.012.001 19.505-7.91 30.158-25.72.09-.148.177-.3.264-.45.348-.594.684-1.201 1.013-1.819.107-.2.214-.4.319-.603.397-.777.783-1.564 1.144-2.375a127.346 127.346 0 0 0 1.42-3.343c.38-.932.747-1.857 1.094-2.773v-.003c17.398-45.931-7.583-71.44-7.583-71.44" fill="#927F3B"/><path d="M91.291 81.06c-.837.177-2.285.226-2.78-1.144 0 0 1.204-4.607-.15-8.175 0 0 3.604-1.57 5.75.507 1.363 1.32.25 8.166-2.82 8.813m26.059-4.953c-.91-1.543-4.508-1.756-5.292-1.788.414 4.256-2.211 8.41-2.597 9.077.367 1.339 3.252 2.242 3.994 2.108 2.9-.528 5.214-7.158 3.895-9.397m5.15 5.382c-.335 3.026-2.819 6.263-3.748 7.385-.585 1.666 3.882 5.142 7.297-1.311 1.435-2.811 2.115-5.214-3.549-6.075m-16.695-8.198c-.682-.686-4.306-.936-5.181-.987-.32 5.74-1.815 7.829-1.815 7.829s1.52 2.364 4.596 1.433c3.063-.932 3.676-6.99 2.4-8.275" fill="#FFF"/><path d="M113.219 129.226c7.918-1.65 26.913-8.264 38.16-27.451 29.764-50.81-10.331-81.075-10.331-81.075s27.216 27.778 5.069 77.56c-9.574 21.512-32.884 30.967-32.898 30.966" fill="#FFF"/><path d="M144.978 93.655c-.428-1.725-1.643-2.968-2.908-3.268-.313-.074-4.28-1.083-10.44-2.651a13.016 13.016 0 0 1-.877 2.59l14.225 3.33m23.275 3.525c-1.316-.353-4.501-1.13-6.237-1.55a82.483 82.483 0 0 1-2.662 5.219l11.543 2.503c1.007-2.867-.791-5.678-2.644-6.172" fill="#FFF"/><path d="M28.06 156.321h-7.976l6.875-4.827a35.58 35.58 0 0 1-.452-5.781c.152-28.482 25.43-40.888 32.97-46.8-1.829.01-3.81-.16-5.965-.561a397.885 397.885 0 0 1-8.618-1.697c-6.202 4.502-23.48 15.82-27.576 41.303-5.682 35.376 30.494 53.61 52.226 53.61 31.39 0 51.437-15.849 51.437-15.849-53.264 25.133-85.678 4.785-92.921-19.398" fill="#231F20"/><path d="M48.077 156.321H38.042c1.306 5.188 3.807 9.798 7.44 13.656l3.812-10.206a29.535 29.535 0 0 1-1.217-3.45m.991-20.351c.598-1.459 1.301-2.803 2.099-3.99 11.343-16.878 36.642-16.878 43.946-16.246 12.575 1.077 19.295-5.731 21.274-12.854 1.686-6.075-8.454-12.938-16.932-15.4-5.833 5.11 1.39 12.378 7.266 13.224 0 0-6.068 2.253-5.81 6.464 0 0-14.09-7.587-32.955.84-17.729 7.914-29.576 20.188-30.866 36.373l11.978-8.41m25.942 41.685c-3.303-.484-6.248-1.267-8.898-2.267l-14.084-.047c14.067 8.91 37.603 10.53 68.953.377-18.144 3.872-32.767 3.872-45.971 1.937" fill="#FFF"/><path fill="#231F20" d="M178.302 174.856h4.387v.65h-1.828v4.783h-.73v-4.783h-1.829v-.65m9.512 5.434v-3.21c0-.159.015-.847.015-1.354h-.015l-1.52 4.563h-.722l-1.52-4.555h-.015c0 .499.015 1.187.015 1.346v3.21h-.708v-5.434h1.046l1.543 4.593h.015l1.535-4.593h1.038v5.433h-.707"/></g></svg>