<svg width="200" height="200" xmlns="http://www.w3.org/2000/svg"><g fill="none"><path d="m98.514 12.673-.165.006c-20.002.443-44.886.988-61.886 16.13-12.139 10.744-15.68 24.953-22.11 50.727l-.011.046-.012.038-9.692 39.918-.07.263-.055.273c-1.56 7.62-2.686 15.374-3.347 20.539C-.257 151.639-.054 153.14.13 154.61c1.137 8.522 6.288 23.727 28.168 30.002 10.977 3.156 22.87 3.156 30.736 3.156h101.804l12.927-60.796-83.628.125s3.873-19.16 6.433-29.27c2.883-11.392 6.387-24.588 6.387-24.588h2.049l-3.892 16.698 80.09-.013 18.076-77.25H98.514" fill="#22437C"/><path d="M174.078 80.747h-61.137l3.814-16.587H96.847l-17.332 72.11 83.077-.106-9.035 42.428H59.193c-7.356 0-18.471 0-28.205-2.8-16.011-4.595-20.588-14.698-21.6-22.38-.338-2.582 1.89-19.923 4.27-31.495l.02-.115.026-.102 9.705-39.918.005-.008v-.024c6.171-24.767 9.273-37.21 19.278-46.068C57.164 22.766 80.199 22.26 98.706 21.847h89.158l-13.786 58.9" fill="#FFF"/><path d="M120.624 74.634h48.605l10.922-46.666H98.839c-18.84.412-39.455 1.018-52.077 12.279-8.325 7.374-11.137 17.802-17.406 42.99l-9.707 39.91c-2.646 12.883-4.203 27.697-4.2 29.346 0 .056 0 .103.006.125 2.6 19.643 28.738 19.856 43.738 19.856h89.416l6.423-30.183-82.743.102 20.04-84.344h32.104l-3.809 16.585" fill="#EAAD0F"/></g></svg>