<svg width="200" height="200" xmlns="http://www.w3.org/2000/svg" xmlns:xlink="http://www.w3.org/1999/xlink"><defs><path id="a" d="M0 0h200v174.397H0z"/></defs><g fill="none" fill-rule="evenodd"><g transform="translate(0 13)"><mask id="b" fill="#fff"><use xlink:href="#a"/></mask><path d="m100.557 76.968-8.55 36.993h81.938l-13.876 60.436H60.198c-28.251 0-44.157-4.87-53.187-16.28-6.814-8.612-8.672-19.926-5.526-33.631l18.722-81.544C23.887 26.914 33.504 14.81 48.02 7.945 59.48 2.525 74.185 0 94.31 0H200l-17.674 76.968h-81.77" fill="#FFFFFE" mask="url(#b)"/></g><path d="M97.167 64.448h18.442l-3.792 16.516h63.387l13.536-58.96H94.345c-18.763 0-32.266 2.253-42.49 7.091C39.725 34.832 32.012 44.557 28.925 58l-18.722 81.547c-2.536 11.041-1.292 19.54 3.8 25.977 7.138 9.02 20.942 12.869 46.16 12.869h92.781l9.741-42.428H80.747l16.42-71.517" fill="#00416D"/><path d="m180.946 28.239-10.676 46.49H119.61l3.792-16.513H92.235l-19.283 83.983h81.939l-6.879 29.959H60.14c-32.946 0-49.61-6.323-43.9-31.186l18.723-81.547C40.53 35.177 61.713 28.24 94.369 28.24h86.577" fill="#E7AE27"/></g></svg>