<svg width="200" height="200" xmlns="http://www.w3.org/2000/svg"><g fill-rule="nonzero" fill="none"><path d="M0 62.29s23.005-27.435 70.376-34.421c0 0 5.453-13.974 9.884-17.722 0 0 8.861 5.794 16.359 7.668 0 0 1.533-10.395 8.86-14.655 0 0 19.938 15.167 57.767 18.745 0 0 11.076 12.439 36.637 21.64 0 0-.681 19.086-10.224 33.059-3.067 3.067-6.135 4.09-6.135 4.09s-5.112 10.224-15.507 12.95c0 0 6.476-8.69-1.533-12.78s-14.655-6.986-21.3 2.727c-6.647 9.713-7.498 21.13-1.194 23.345 6.305 2.215 13.632-4.601 14.825-8.52 0 0 3.41 6.475.171 14.654-.681 1.704-1.533 3.238 2.386 4.43 0 0-.46 4.756-1.847 7.683-1.387 2.928-15.535 24.353-15.535 24.353s-18.744-25.56-34.25-19.596c-15.507 5.964-30.502 23.686-40.045 37.318-9.542 13.632-22.322 29.82-22.322 29.82s15.336-50.609-1.875-85.201C28.288 77.285 0 62.29 0 62.29" fill="#100F0D"/><path d="M11.758 61.097s18.063-21.13 56.915-27.605c0 0-4.43 10.905 22.663 12.439 0 0-27.435-3.407-9.713-27.776 0 0 16.87 9.031 35.615 10.394 18.744 1.363 34.762-1.363 37.829-1.193 3.067.17 8.349 4.602 9.202 5.113.852.51 24.538 12.268 32.036 13.632 0 0-15.167.852-15.507 1.704-.34.852-1.705 4.09.51 5.794 2.216 1.704 4.09-1.704 4.09-1.704s3.75-2.046 5.454 1.022c1.704 3.067 6.475 23.345-14.314 24.368-4.43 0-19.086-5.283-24.198-5.624-5.111-.34-10.223-.34-16.188 9.713-5.964 10.054-11.076 27.265 5.112 36.637a5065.138 5065.138 0 0 1 13.483 4.399l-10.927 17.923s-1.022-13.972-17.21-18.914c-16.189-4.942-47.883-13.121-54.53-22.323-6.645-9.202-2.215-19.426 6.305-28.287 0 0-18.062 10.054-16.358 22.323 1.704 12.269 9.372 16.188 10.394 17.722 1.023 1.534-1.023 10.735-3.749 14.484-2.726 3.749-8.35 11.758-8.35 11.758s-7.327-51.972-48.564-76" fill="#1F6836"/><path d="M102.754 19.177s-.342-6.305 2.896-7.838c3.238-1.534 6.646 2.385 12.099 4.6 5.453 2.216 23.685 7.669 28.287 8.18 0 0-25.56 2.385-43.282-4.942" fill="#1F6836"/><path d="M149.763 113.036s6.427-5.188 7.813-8.991c0 0 .737 7.34-4.364 11.468 0 0-2.74-.708-3.449-2.477M172.86 81.773s2.48 4.389-.464 7.693c0 0 6.04-2.116 7.849-7.951 0 0-5.423.154-7.384.258" fill="#FFF"/><path d="m85.29 58.538 78.6 1.832a9.325 9.325 0 0 1 1.04-3.374l-79.64 1.542M102.638 62.462l61.81 2.41a9.537 9.537 0 0 1-.616-3.223l-61.194.813M164.748 65.574l-49.202.812 51.557 2.162a8.508 8.508 0 0 1-2.355-2.974M134.183 34.372s12.444.464 18.64-.465c0 0 5.319 8.571 21.532 11.721 0 0-5.629.671-7.539.878 0 0-3.873 2.995-8.159 2.117-4.285-.878-8.88-5.06-9.603-9.552 0 0-10.585-2.582-14.871-4.7" fill="#231F20"/><path d="M153.907 39.123s-1.6 5.111 2.376 7.022c3.975 1.91 7.538-.672 7.538-.672l-2.892-1.807s-1.696 1.635-3.098 1.085c-1.566-.615-2.58-1.86-2.116-4.441l-1.808-1.187" fill="#FFF"/><path d="M156.902 41.704s.155 1.085.516 1.394c.362.31 1.498.465 1.705.052l-2.221-1.446" fill="#FFF"/></g></svg>