<?xml version="1.0" encoding="UTF-8"?>
<svg width="200px" height="200px" viewBox="0 0 200 200" version="1.1" xmlns="http://www.w3.org/2000/svg" xmlns:xlink="http://www.w3.org/1999/xlink">
    <!-- Generator: Sketch 51.3 (57544) - http://www.bohemiancoding.com/sketch -->
    <title>chicago-st</title>
    <desc>Created with Sketch.</desc>
    <defs></defs>
    <g id="chicago-st" stroke="none" stroke-width="1" fill="none" fill-rule="evenodd">
        <g id="chicago-st_BGL" transform="translate(0.000000, 3.980100)">
            <g id="chicago-st">
                <g id="g10" transform="translate(99.973267, 96.601229) scale(-1, 1) rotate(-180.000000) translate(-99.973267, -96.601229) translate(0.000000, 0.119145)" fill-rule="nonzero">
                    <g id="g12">
                        <path d="M0,134.097332 C0,134.097332 23.0047575,161.391444 70.3764751,168.342196 C70.3764751,168.342196 75.8291347,182.243701 80.2598216,185.973207 C80.2598216,185.973207 89.1211953,180.209174 96.6186557,178.344421 C96.6186557,178.344421 98.1519355,188.685556 105.479388,192.923959 C105.479388,192.923959 125.417372,177.83531 163.246401,174.275579 C163.246401,174.275579 174.321942,161.900129 199.882593,152.7455 C199.882593,152.7455 199.201706,133.758209 189.658803,119.856917 C186.591602,116.805232 183.524401,115.788288 183.524401,115.788288 C183.524401,115.788288 178.411757,105.616289 168.017317,102.903941 C168.017317,102.903941 174.492805,111.550097 166.484038,115.618513 C158.475056,119.687143 151.829347,122.569266 145.183423,112.905952 C138.5375,103.242851 137.685749,91.8837079 143.990373,89.6802571 C150.295211,87.4768063 157.62245,94.2577842 158.8155,98.1570646 C158.8155,98.1570646 162.224428,91.714359 158.986149,83.5773132 C158.304834,81.8823346 157.45287,80.3564923 161.372036,79.1695605 C161.372036,79.1695605 160.912052,74.439279 159.525257,71.52652 C158.138462,68.6135482 143.990373,47.2983474 143.990373,47.2983474 C143.990373,47.2983474 125.245867,72.7279187 109.739425,66.7943237 C94.2329835,60.860516 79.2378489,43.2295054 69.6953738,29.6673368 C60.1528988,16.1051682 47.372573,0 47.372573,0 C47.372573,0 62.7090067,50.3500321 45.4979941,84.7646704 C28.2871952,119.179096 0,134.097332 0,134.097332" id="path14" fill="#100F0D"></path>
                        <path d="M11.7580537,135.284477 C11.7580537,135.284477 29.8206889,156.306083 68.6727596,162.74815 C68.6727596,162.74815 64.2420727,151.898543 91.336218,150.372701 C91.336218,150.372701 63.9012013,153.762232 81.6233072,178.005723 C81.6233072,178.005723 98.4938762,169.021081 117.237741,167.665013 C135.981606,166.308945 151.999569,169.021294 155.066556,168.851732 C158.133971,168.682171 163.415981,164.274205 164.268587,163.765733 C165.120766,163.257473 188.807266,151.560058 196.304726,150.203564 C196.304726,150.203564 181.137873,149.355756 180.797643,148.50816 C180.457199,147.660565 179.0935,144.439318 181.308736,142.744127 C183.524401,141.048936 185.398766,144.439531 185.398766,144.439531 C185.398766,144.439531 189.147496,146.474271 190.851639,143.422587 C192.555996,140.370689 197.327127,120.196679 176.538247,119.179734 C172.107133,119.179734 157.452442,124.435083 152.34044,124.773993 C147.228652,125.113116 142.116864,125.113329 136.152469,115.111105 C130.188075,105.108881 125.076287,87.9861296 141.264257,78.6623647 C147.569095,76.6280501 154.747497,74.2858863 154.747497,74.2858863 L143.820151,56.4542526 C143.820151,56.4542526 142.798393,70.3544807 126.609566,75.2713439 C110.420954,80.1884198 78.7265417,88.3254657 72.0806184,97.4800943 C65.4349088,106.634723 69.865168,116.806296 78.3854565,125.621802 C78.3854565,125.621802 60.3229068,115.619152 62.0268362,103.413477 C63.7307656,91.2075887 71.3990894,87.3087339 72.4214898,85.7826788 C73.4436763,84.2566236 71.3984478,75.101995 68.6723319,71.372489 C65.9462159,67.6429831 60.322693,59.6750735 60.322693,59.6750735 C60.322693,59.6750735 52.9952406,111.380323 11.7580537,135.284477" id="path16" fill="#1F6836"></path>
                        <path d="M102.7537,176.989204 C102.7537,176.989204 102.412187,183.261709 105.650251,184.787339 C108.888316,186.313181 112.295961,182.413901 117.748834,180.210237 C123.201922,178.006361 141.434479,172.581026 146.035816,172.072553 C146.035816,172.072553 120.475806,169.699754 102.7537,176.989204" id="path18" fill="#1F6836"></path>
                        <path d="M149.763375,83.6111404 C149.763375,83.6111404 156.190106,88.7728787 157.575831,92.5566359 C157.575831,92.5566359 158.312533,85.2535697 153.212079,81.1474964 C153.212079,81.1474964 150.471207,81.8512732 149.763375,83.6111404" id="path20" fill="#FFFFFF"></path>
                        <path d="M172.860514,114.714539 C172.860514,114.714539 175.339424,110.348273 172.39604,107.060648 C172.39604,107.060648 178.436777,109.166234 180.244636,114.971116 C180.244636,114.971116 174.822343,114.81751 172.860514,114.714539" id="path22" fill="#FFFFFF"></path>
                        <path d="M85.2894927,137.830455 L163.889437,136.007188 C164.025016,137.223267 164.388555,138.358288 164.929373,139.363957 L85.2894927,137.830455" id="path24" fill="#231F20"></path>
                        <path d="M102.637581,133.926069 L164.447149,131.527952 C164.067358,132.515324 163.854153,133.598434 163.831699,134.734731 L102.637581,133.926069" id="path26" fill="#231F20"></path>
                        <path d="M164.748245,130.830558 L115.545787,130.022108 L167.103123,127.871845 C166.12948,128.642638 165.318146,129.652136 164.748245,130.830558" id="path28" fill="#231F20"></path>
                        <path d="M134.182942,161.872259 C134.182942,161.872259 146.626888,161.410166 152.822878,162.334564 C152.822878,162.334564 158.141669,153.807335 174.354874,150.673742 C174.354874,150.673742 168.726219,150.00592 166.816141,149.800403 C166.816141,149.800403 162.942525,146.821054 158.657467,147.694392 C154.372196,148.567518 149.776206,152.72848 149.053618,157.197505 C149.053618,157.197505 138.468855,159.766247 134.182942,161.872259" id="path30" fill="#231F20"></path>
                        <path d="M153.90708,157.14602 C153.90708,157.14602 152.30708,152.060446 156.282701,150.159951 C160.258323,148.259243 163.821434,150.827773 163.821434,150.827773 L160.929373,152.625509 C160.929373,152.625509 159.233142,150.999675 157.831378,151.546867 C156.26538,152.158523 155.250464,153.396515 155.714939,155.964832 L153.90708,157.14602" id="path32" fill="#FFFFFF"></path>
                        <path d="M156.901787,154.577703 C156.901787,154.577703 157.056612,153.498635 157.418226,153.190573 C157.780055,152.882724 158.916222,152.72848 159.122584,153.139513 L156.901787,154.577703" id="path34" fill="#FFFFFF"></path>
                    </g>
                </g>
            </g>
        </g>
    </g>
</svg>