<svg width="200" height="200" xmlns="http://www.w3.org/2000/svg"><g fill="none"><path d="M0 62.966s23.005-27.294 70.376-34.245c0 0 5.453-13.901 9.884-17.63 0 0 8.861 5.763 16.359 7.628 0 0 1.533-10.341 8.86-14.58 0 0 19.938 15.09 57.767 18.649 0 0 11.076 12.375 36.637 21.53 0 0-.681 18.987-10.224 32.888-3.067 3.052-6.135 4.07-6.135 4.07s-5.112 10.171-15.507 12.883c0 0 6.476-8.646-1.533-12.714-8.009-4.069-14.655-6.95-21.3 2.712-6.647 9.664-7.498 21.023-1.194 23.226 6.305 2.204 13.632-4.577 14.825-8.477 0 0 3.41 6.443.171 14.58-.681 1.695-1.533 3.22 2.386 4.408 0 0-.46 4.73-1.847 7.643-1.387 2.913-15.535 24.228-15.535 24.228s-18.744-25.43-34.25-19.496c-15.507 5.934-30.502 23.565-40.045 37.127-9.542 13.562-22.322 29.667-22.322 29.667s15.336-50.35-1.875-84.764C28.288 77.884 0 62.966 0 62.966" fill="#100F0D"/><path d="M11.758 61.779s18.063-21.022 56.915-27.464c0 0-4.43 10.85 22.663 12.376 0 0-27.435-3.39-9.713-27.633 0 0 16.87 8.984 35.615 10.34 18.744 1.356 34.762-1.356 37.829-1.186 3.067.17 8.349 4.577 9.202 5.086.852.508 24.538 12.205 32.036 13.562 0 0-15.167.848-15.507 1.695-.34.848-1.704 4.07.51 5.764 2.216 1.695 4.09-1.695 4.09-1.695s3.75-2.035 5.454 1.017c1.704 3.052 6.475 23.226-14.314 24.243-4.43 0-19.086-5.256-24.198-5.595-5.111-.339-10.223-.339-16.188 9.663-5.964 10.003-11.076 27.125 5.112 36.449a5083.695 5083.695 0 0 1 13.483 4.377l-10.927 17.831s-1.022-13.9-17.21-18.817c-16.189-4.917-47.883-13.054-54.53-22.209-6.645-9.154-2.215-19.326 6.305-28.141 0 0-18.062 10.002-16.358 22.208 1.704 12.206 9.372 16.105 10.394 17.63 1.023 1.527-1.023 10.681-3.749 14.41-2.726 3.73-8.35 11.698-8.35 11.698s-7.327-51.705-48.564-75.61" fill="#1F6836"/><path d="M102.754 20.074s-.342-6.272 2.896-7.798c3.238-1.526 6.646 2.374 12.099 4.577 5.453 2.204 23.685 7.63 28.287 8.138 0 0-25.56 2.373-43.282-4.917" fill="#1F6836"/><path d="M149.763 113.452s6.427-5.161 7.813-8.945c0 0 .737 7.303-4.364 11.409 0 0-2.74-.704-3.449-2.464m23.097-31.103s2.48 4.366-.464 7.654c0 0 6.04-2.106 7.849-7.91 0 0-5.423.153-7.384.256" fill="#FFF"/><path d="M85.29 59.233l78.6 1.823a9.242 9.242 0 0 1 1.04-3.357l-79.64 1.534m17.348 3.904l61.81 2.398a9.445 9.445 0 0 1-.616-3.206l-61.194.808m62.11 3.096l-49.202.808 51.557 2.15a8.471 8.471 0 0 1-2.355-2.958m-30.565-31.042s12.444.462 18.64-.462c0 0 5.319 8.527 21.532 11.66 0 0-5.629.668-7.539.874 0 0-3.873 2.98-8.159 2.106-4.285-.873-8.88-5.034-9.603-9.503 0 0-10.585-2.569-14.871-4.675" fill="#231F20"/><path d="M153.907 39.917s-1.6 5.086 2.376 6.986c3.975 1.901 7.538-.667 7.538-.667l-2.892-1.798s-1.696 1.626-3.098 1.079c-1.566-.612-2.58-1.85-2.116-4.418l-1.808-1.182" fill="#FFF"/><path d="M156.902 42.486s.155 1.079.516 1.387c.362.308 1.498.462 1.705.05l-2.221-1.437" fill="#FFF"/></g></svg>