<svg width="200" height="200" xmlns="http://www.w3.org/2000/svg"><g fill="none"><path d="M103.366 29.933c-.797 4.268.313 7.472 2.551 9.255a5.5 5.5 0 0 0 2.959 1.678c3.774.8 8.103-.48 11.788-3.34 2.518-1.952 4.734-4.641 6.271-7.907 1.02-2.17 1.663-4.17 1.993-5.986.465-2.546.312-4.727-.293-6.484a8.124 8.124 0 0 0-1.497-2.652 6.993 6.993 0 0 0-2.19-1.705c-1.1-.544-2.292-.828-3.531-.883 1.625-.802 3.34-1.224 5.035-1.168 1.364.045 2.597.398 3.671.998.022.01.042.025.062.037.384-.882.818-1.732 1.3-2.548 2.267-3.851 5.549-6.898 9.098-8.57l-.018-.125c-13.534-.341-34.383 14.309-37.2 29.4m-24.999 8.842c.086 3.539 1.55 5.902 3.69 6.948.776.534 1.684.84 2.714.84 3.23.003 6.557-1.743 9.081-4.64 1.724-1.98 3.077-4.496 3.77-7.357.46-1.902.642-3.603.599-5.105-.062-2.108-.564-3.818-1.361-5.12a6.62 6.62 0 0 0-1.688-1.862 5.87 5.87 0 0 0-2.087-.989 7.546 7.546 0 0 0-3.046-.112c1.192-.91 2.523-1.537 3.921-1.777a6.872 6.872 0 0 1 3.182.179l.06.02c.16-.769.368-1.517.62-2.25 1.18-3.415 3.318-6.363 5.902-8.294l-.047-.144c-11.138 2.06-25.614 17.194-25.31 29.663m-7.521-2.918l.048.008c.043-.602.12-1.196.235-1.78.542-2.738 1.881-5.218 3.679-6.97l-.067-.095c-8.43 2.771-18.006 15.864-16.397 25.344.458 2.69 1.856 4.338 3.638 4.904a3.74 3.74 0 0 0 2.201.353c2.513-.344 4.904-2.034 6.547-4.515a13.287 13.287 0 0 0 2.12-6.016c.15-1.503.102-2.822-.098-3.961-.281-1.602-.859-2.853-1.624-3.76a5.169 5.169 0 0 0-1.515-1.241 4.637 4.637 0 0 0-1.734-.532 6.028 6.028 0 0 0-2.378.242c.827-.824 1.793-1.442 2.855-1.775a5.472 5.472 0 0 1 2.49-.206m59.491-1.816c-1.437 2.847-1.352 5.33-.211 7.043.347.745.89 1.36 1.653 1.784 2.387 1.332 5.593 1.312 8.686.051 2.119-.864 4.185-2.31 5.91-4.3 1.148-1.322 2-2.6 2.607-3.813.848-1.7 1.197-3.265 1.159-4.627a5.95 5.95 0 0 0-.461-2.176 4.906 4.906 0 0 0-1.126-1.65 6.074 6.074 0 0 0-2.207-1.34c1.27-.233 2.52-.18 3.66.201.91.31 1.675.81 2.277 1.452.01.015.025.027.036.04a16.87 16.87 0 0 1 1.412-1.53c2.299-2.21 5.095-3.665 7.8-4.152l.017-.177c-9.141-2.876-26.171 3.19-31.212 13.194" fill="#1A0F09"/><path fill="#D01C2E" d="M98.517 199.542H35.806l7.474-25.553h62.71l-7.473 25.553"/><path d="M135.862 57.15c-7.902-4.37-15.956-7.294-26.44-7.294-32.604 0-60.095 29.206-66.476 59.658-7.362 35.13 14.087 56.554 38.31 56.093 25.933-.496 38.26-28.3 40.397-34.015l-.252-.035c-8.88 14.671-22.135 19.9-27.937 19.9-24.591 0-24.814-24.4-19.551-43.91 7.276-26.968 18.702-43.725 35.379-43.725 6.034 0 14.732 4.268 16.658 23.575l.35.038c1.596-4.483 9.562-30.285 9.562-30.285" fill="#1A0F09"/><path d="M107.765 196.752h.642c.545 0 1.043-.026 1.043-.622 0-.5-.454-.578-.87-.578h-.815v1.2zm-.618-1.675h1.532c.943 0 1.389.355 1.389 1.08 0 .681-.454.966-1.043 1.026l1.133 1.667h-.662l-1.079-1.623h-.652v1.623h-.618v-3.773zm1.324 4.646c1.569 0 2.784-1.192 2.784-2.772 0-1.545-1.215-2.737-2.784-2.737-1.587 0-2.802 1.192-2.802 2.737 0 1.58 1.215 2.772 2.802 2.772zm0-5.985c1.85 0 3.4 1.391 3.4 3.213 0 1.857-1.55 3.247-3.4 3.247-1.86 0-3.419-1.39-3.419-3.247 0-1.822 1.56-3.213 3.419-3.213z" fill="#231F20"/></g></svg>