<svg width="200" height="200" xmlns="http://www.w3.org/2000/svg"><g fill-rule="nonzero" fill="none"><path d="M103.56 28.49c-.797 4.268.313 7.472 2.552 9.256a5.5 5.5 0 0 0 2.958 1.677c3.774.8 8.103-.479 11.788-3.339 2.518-1.953 4.735-4.642 6.271-7.908 1.02-2.17 1.664-4.17 1.993-5.985.465-2.546.313-4.727-.293-6.485a8.124 8.124 0 0 0-1.497-2.652 6.993 6.993 0 0 0-2.19-1.705c-1.1-.543-2.291-.827-3.531-.883 1.625-.801 3.34-1.223 5.035-1.167 1.364.045 2.598.397 3.672.997.021.01.041.025.061.037.384-.882.819-1.731 1.3-2.548 2.267-3.85 5.549-6.897 9.098-8.569l-.018-.125c-13.533-.342-34.382 14.308-37.199 29.4M78.56 37.333c.086 3.538 1.55 5.902 3.691 6.947.775.535 1.683.84 2.713.84 3.23.003 6.557-1.742 9.082-4.64 1.723-1.98 3.076-4.496 3.77-7.357.46-1.901.641-3.603.598-5.105-.062-2.108-.563-3.818-1.361-5.119a6.62 6.62 0 0 0-1.688-1.862 5.87 5.87 0 0 0-2.087-.99 7.546 7.546 0 0 0-3.046-.112c1.192-.91 2.523-1.536 3.922-1.776a6.872 6.872 0 0 1 3.181.179c.02.007.04.012.06.02.16-.769.368-1.518.621-2.25 1.18-3.416 3.317-6.363 5.901-8.294l-.046-.145C92.73 9.73 78.257 24.864 78.56 37.333M71.04 34.415l.048.008c.042-.602.12-1.197.235-1.781.541-2.737 1.88-5.217 3.678-6.969l-.067-.096c-8.43 2.772-18.005 15.865-16.397 25.344.458 2.691 1.856 4.339 3.638 4.904a3.74 3.74 0 0 0 2.202.353c2.512-.343 4.904-2.034 6.546-4.514a13.287 13.287 0 0 0 2.12-6.016c.15-1.503.102-2.822-.098-3.962-.28-1.601-.858-2.852-1.623-3.76a5.169 5.169 0 0 0-1.515-1.24 4.637 4.637 0 0 0-1.734-.533 6.028 6.028 0 0 0-2.379.243c.828-.824 1.794-1.442 2.855-1.775a5.472 5.472 0 0 1 2.49-.206M130.53 32.599c-1.436 2.847-1.352 5.33-.21 7.043.347.744.89 1.36 1.652 1.783 2.387 1.332 5.593 1.313 8.687.052 2.118-.864 4.184-2.311 5.91-4.3 1.147-1.323 2-2.601 2.606-3.814.848-1.7 1.197-3.265 1.16-4.627a5.95 5.95 0 0 0-.462-2.176 4.906 4.906 0 0 0-1.126-1.649 6.074 6.074 0 0 0-2.207-1.34c1.27-.233 2.52-.181 3.66.2.91.311 1.675.811 2.277 1.452.01.016.026.028.036.04a16.87 16.87 0 0 1 1.412-1.53c2.3-2.209 5.096-3.665 7.8-4.152l.018-.177c-9.142-2.876-26.172 3.19-31.213 13.195" fill="#1A0F09"/><path fill="#D01C2E" d="M98.712 198.1H36l7.474-25.554h62.71L98.712 198.1"/><path d="M136.056 55.707c-7.901-4.369-15.956-7.293-26.44-7.293-32.603 0-60.095 29.206-66.476 59.658-7.361 35.129 14.088 56.554 38.311 56.093 25.933-.496 38.26-28.3 40.397-34.016l-.253-.034c-8.88 14.67-22.135 19.9-27.937 19.9-24.59 0-24.814-24.4-19.55-43.91 7.275-26.969 18.7-43.725 35.378-43.725 6.035 0 14.733 4.268 16.659 23.575l.349.037c1.597-4.482 9.562-30.285 9.562-30.285" fill="#1A0F09"/><path d="M107.959 195.31h.642c.546 0 1.043-.027 1.043-.623 0-.499-.453-.578-.87-.578h-.815v1.2Zm-.618-1.676h1.533c.943 0 1.388.355 1.388 1.08 0 .682-.453.967-1.043 1.027l1.134 1.666h-.662l-1.08-1.622h-.652v1.622h-.618v-3.773Zm1.324 4.647c1.569 0 2.785-1.192 2.785-2.773 0-1.545-1.216-2.736-2.785-2.736-1.586 0-2.802 1.191-2.802 2.736 0 1.58 1.216 2.773 2.802 2.773Zm0-5.985c1.85 0 3.4 1.39 3.4 3.212 0 1.858-1.55 3.248-3.4 3.248-1.859 0-3.418-1.39-3.418-3.248 0-1.821 1.559-3.212 3.418-3.212Z" fill="#231F20"/></g></svg>