<svg width="200" height="200" xmlns="http://www.w3.org/2000/svg"><g fill="none" fill-rule="evenodd"><path d="M198.847 82.416V37.863s-9.225-1.4-15.744-10.179C176.584 18.904 170.738 13 161.213 13H37.634c-9.525 0-15.37 5.905-21.89 14.684C9.226 36.464 0 37.863 0 37.863v123.89s9.226 1.399 15.744 10.178c6.52 8.78 12.365 14.684 21.89 14.684h123.579c9.525 0 15.371-5.904 21.89-14.684s15.744-10.178 15.744-10.178v-46.807h-52.154v25.722H51.907V58.7h94.786v23.716h52.154" fill="#15233C"/><path d="M155.887 73.47H189.9V44.342c-1.816-.756-7.366-3.47-13.188-10.349-1.061-1.254-2.01-2.416-2.884-3.485-4.803-5.878-6.995-8.561-12.616-8.561H37.634c-5.62 0-7.813 2.683-12.616 8.561-.873 1.069-1.822 2.23-2.884 3.485-5.822 6.88-11.372 9.593-13.188 10.35v110.93c1.816.756 7.366 3.47 13.188 10.35 1.062 1.254 2.01 2.416 2.884 3.484 4.803 5.879 6.995 8.562 12.616 8.562h123.579c5.621 0 7.813-2.683 12.616-8.562.874-1.068 1.823-2.23 2.884-3.484 5.822-6.88 11.372-9.594 13.188-10.35v-31.38h-34.014v25.969H42.96V49.754h112.927V73.47" fill="#77A5C3"/><path fill="#15233C" d="m101.365 63.815 9.722 25.926h32.211l-26.204 16.024 9.722 25.927-25.916-16.024-26.204 16.024 10.187-25.927-25.916-16.024h32.212l10.186-25.926M200 181.462h-1.44v-4.204h-.156l-1.322 2.941h-1.01l-1.337-2.992h-.193v4.255h-1.366v-5.376h2.338l1.086 2.628 1.128-2.628H200v5.376Zm-7.678-4.21h-1.537v4.21h-1.45v-4.21H187.8v-1.166h4.523v1.165Z"/></g></svg>