<svg width="200" height="200" xmlns="http://www.w3.org/2000/svg"><g fill="none"><path d="M115.941 111.62l-2.46 2.074 1.544-1.302.916-.773zm.76-9.69h15.457v12.268l-.516.5-10.033 9.747-.495.48H91.43l-.5-.515-9.398-9.686-.48-.494V67.015l.512-.501 9.842-9.596.496-.483h30.252l.503.532 8.942 9.463.463.491v13.094h-15.887v-7.974l-2.845-3.25h-12.883l-3.679 4.173v35.699l3.963 3.332h12.13l3.84-3.24v-6.825zm-1.98 5.904l-2.585 2.18h-10.683l-2.703-2.274V73.713l2.591-2.94h11.09l1.762 2.013v9.211h19.851V66.133l-1.006-1.064-8.94-9.463-1.09-1.153H91.096L90.023 55.5l-9.842 9.596-1.111 1.084v48.854l1.04 1.072 9.398 9.685 1.084 1.118h31.326l1.071-1.041 10.035-9.747 1.115-1.085V99.948H114.72v7.886zm74.247-16.937a185.89 185.89 0 0 0-2.182 1.424l-.469.315a86.424 86.424 0 0 0-1.436.99 62.06 62.06 0 0 0-1.44 1.048 39.364 39.364 0 0 0-2.272 1.828c-.141.124-.28.248-.417.372-.818.745-1.537 1.495-2.085 2.226-.763 1.017-1.519 2.266-2.267 3.597a68.353 68.353 0 0 0-.708 1.281c-.09.164-.18.328-.268.492l-.267.495c-.445.825-.89 1.65-1.333 2.445a68.248 68.248 0 0 1-.797 1.392c-.177.298-.355.59-.532.87a21.629 21.629 0 0 1-1.064 1.552 12.246 12.246 0 0 1-.801.95 7.857 7.857 0 0 1-.535.51 50.36 50.36 0 0 0-1.015.882 30.327 30.327 0 0 0-1.677 1.608 18.537 18.537 0 0 0-.66.726c-.2.232-.38.457-.54.673-.16.216-.3.423-.42.622a4.247 4.247 0 0 0-.397.836 2.614 2.614 0 0 0-.07.253 1.487 1.487 0 0 0-.028.502c.024.254.1.511.209.766.13.306.309.607.498.894a11 11 0 0 0 .223.327c.214.304.426.584.588.826.08.121.149.233.199.333a.407.407 0 0 1 .033.095c.003.01.001.019.002.03l.001.028a.233.233 0 0 1-.023.104l-.003.004a.271.271 0 0 1-.046.062.21.21 0 0 1-.028.022c-.008.007-.015.014-.024.02a.668.668 0 0 1-.122.072l-.012.004a1.408 1.408 0 0 1-.197.067c-.06.016-.122.03-.19.043l-.008.001-.024.004a3.964 3.964 0 0 1-.268.037l-.046.006a5.816 5.816 0 0 1-.204.017c-.012 0-.023 0-.035.002a5.063 5.063 0 0 1-.242.012l-.067.003a12.71 12.71 0 0 1-.279.006h-.048l-.15.001h-.06c-.115 0-.232-.002-.347-.004h-.05a38.367 38.367 0 0 1-.396-.012h-.03a1.309 1.309 0 0 0-.09-.003l-.288-.011c-.142-.006-.278-.01-.402-.016h-.03c-.037 0-.065.011-.098.017-.035.006-.072.007-.101.018-.033.012-.057.034-.084.051-.025.018-.052.03-.073.05-.002.003-.006.004-.008.006-.02.022-.031.053-.047.079-.016.026-.036.049-.048.08l-.005.007c-.01.03-.016.069-.025.104-.009.035-.02.067-.026.105-.005.042-.006.09-.008.135-.002.042-.007.082-.006.127 0 .048.006.102.01.153.003.048.004.095.01.146.006.053.016.11.024.165.008.054.014.107.025.162.01.058.023.117.036.176.01.057.022.114.035.172l.044.188c.015.058.027.114.043.172l.05.19c.016.058.03.117.047.176l.056.2.08.29.06.21.046.167.044.163.038.153.036.146v.002c.013.059.022.11.033.163l.02.097c.01.064.015.12.019.173.001.014.005.031.005.044a.802.802 0 0 1-.092.399c-.102.204-.291.414-.571.619a4.372 4.372 0 0 1-.683.4 8.78 8.78 0 0 1-1.508.54c-.402.107-.848.204-1.342.29-.247.043-.505.082-.776.118-.811.108-1.73.185-2.763.219a8.277 8.277 0 0 0-1.676.21l-.17.044c-1.248.348-1.826 1.003-2.065 1.75a3.2 3.2 0 0 0-.13.644c-.015.145-.02.292-.02.438 0 .152.005.303.016.452a9.324 9.324 0 0 0 .063.609l.025.199.025.19c.016.124.03.243.04.355.016.167.023.32.014.45-.036.523-.326 1.178-.744 1.808a7.567 7.567 0 0 1-.706.908 5.95 5.95 0 0 1-1.072.95 2.47 2.47 0 0 1-1.037.425 16.128 16.128 0 0 1-.937.128l-.751.075c-.4.038-.835.083-1.301.14a25.573 25.573 0 0 0-2.57.447 21.01 21.01 0 0 0-1.15.302c-.197.058-.375.13-.538.215a2.583 2.583 0 0 0-1.077 1.046 3.203 3.203 0 0 0-.287.675 4.53 4.53 0 0 0-.158.726 6.529 6.529 0 0 0-.058.735 8.208 8.208 0 0 0 .03.93 16.187 16.187 0 0 0 .042.416c.024.197.05.376.074.531l.042.274c.018.12.03.209.033.264l-.001.042a.415.415 0 0 1-.1.156l-.017.02a3.748 3.748 0 0 1-.327.301 11.863 11.863 0 0 1-.752.575l-.207.149a20.93 20.93 0 0 1-.652.439 30.68 30.68 0 0 1-.492.315c-.075.046-.149.094-.225.14-.123.076-.248.151-.374.227-.38.225-.766.444-1.149.646a5.274 5.274 0 0 1-1.316.493c-.2.046-.398.081-.606.119l-.322.057c-.609.116-1.34.29-2.444.774-.502.22-1.08.504-1.758.876-.271.148-.559.31-.863.489a13.346 13.346 0 0 1-.576.316c-.09.046-.179.094-.262.134-.053.026-.1.046-.15.07-.075.033-.15.07-.22.1a2.41 2.41 0 0 1-.145.057c-.065.027-.131.055-.193.077-.048.018-.092.03-.138.046a4.713 4.713 0 0 1-.169.055c-.045.013-.085.021-.128.032-.05.013-.103.027-.15.037-.041.01-.08.013-.118.02-.045.007-.092.015-.134.02l-.106.006c-.035.002-.073.007-.107.007l-.01-.001a1.427 1.427 0 0 1-.262-.026l-.057-.014a.989.989 0 0 1-.193-.066c-.01-.004-.02-.006-.028-.011a.86.86 0 0 1-.175-.116l-.037-.034a.976.976 0 0 1-.124-.138l-.015-.02a1.13 1.13 0 0 1-.125-.233 1.751 1.751 0 0 1-.07-.195l-.007-.02a2.447 2.447 0 0 1-.05-.233l-.005-.024-.004-.034a3.438 3.438 0 0 1-.03-.25 4.495 4.495 0 0 1-.014-.285v-.036a8.452 8.452 0 0 1-.001-.25v-.011c.001-.09.004-.179.007-.268l.003-.063.011-.254.01-.217c0-.02 0-.04.002-.061l.006-.222v-.006c0-.07 0-.133-.003-.195l-.002-.045a1.655 1.655 0 0 0-.017-.17c-.037-.225-.064-.478-.103-.745a12.143 12.143 0 0 0-.044-.269 4.655 4.655 0 0 0-.13-.547 2.938 2.938 0 0 0-.22-.531 2.337 2.337 0 0 0-.343-.486 2.407 2.407 0 0 0-.836-.574 3.178 3.178 0 0 0-.382-.135 4.72 4.72 0 0 0-.949-.161h-.007a3.638 3.638 0 0 0-.276-.01h-.018a3.02 3.02 0 0 0-.42.031l-.008.001c-.13.02-.25.05-.359.088l-.009.003a1.652 1.652 0 0 0-.292.133l-.017.008a1.58 1.58 0 0 0-.23.17l-.019.015a1.494 1.494 0 0 0-.178.197l-.017.02a1.63 1.63 0 0 0-.134.218l-.014.026a2.04 2.04 0 0 0-.096.23l-.01.028a2.345 2.345 0 0 0-.064.238l-.006.028c-.016.08-.028.16-.037.238l-.003.028a3.62 3.62 0 0 0-.016.223v.008l-.001.024c-.001.075 0 .148.001.218v.022c.004.069.008.134.014.196l.001.015c.006.061.012.118.019.169l.002.01c.007.05.013.095.02.131v.006l.018.086.001.005a69.878 69.878 0 0 1 .149.641l.04.181c.028.128.056.256.08.376.016.071.03.137.043.206.021.103.042.205.06.302l.037.197.047.263.03.181a11.301 11.301 0 0 1 .059.395c.01.072.017.14.025.206l.016.142.016.191.009.113a5.6 5.6 0 0 1 .007.194l.003.064v.007c.001.081 0 .156-.005.225 0 .019-.003.034-.004.052a2.103 2.103 0 0 1-.014.138l-.01.06a1.125 1.125 0 0 1-.02.096c-.003.006-.003.014-.004.02l-.013.033a.684.684 0 0 1-.026.072l-.022.043a.492.492 0 0 1-.057.084.334.334 0 0 1-.038.035.246.246 0 0 1-.074.042l-.03.012a.342.342 0 0 1-.057.007c-.008 0-.015.004-.023.004l-.004-.001a.546.546 0 0 1-.137-.023l-.013-.003-.011-.005a1.102 1.102 0 0 1-.147-.064l-.028-.014a2.535 2.535 0 0 1-.16-.096c0-.002-.003-.002-.005-.003l-.014-.012a3.061 3.061 0 0 1-.167-.121l-.01-.007a5.95 5.95 0 0 1-.175-.14l-.029-.024-.172-.146-.18-.152a.279.279 0 0 1-.025-.022c-.058-.047-.114-.095-.169-.138a6.78 6.78 0 0 0-.668-.486 2.174 2.174 0 0 0-.858-.315 6.47 6.47 0 0 0-.772-.053l-.523-.01h-.043c-.042 0-.08.005-.12.006-.042.003-.086.003-.126.008-.044.005-.084.013-.125.02-.037.007-.076.012-.11.02l-.015.003-.096.031c-.033.01-.067.02-.097.032-.034.013-.065.029-.097.044-.029.014-.059.027-.086.042-.03.017-.057.036-.085.054-.026.017-.053.032-.078.05l-.076.061c-.024.019-.048.037-.07.057-.024.021-.046.043-.07.066-.021.02-.043.04-.065.063l-.066.07-.062.065-.065.074c-.04.045-.08.089-.118.134a.726.726 0 0 0-.058.065l-.068.071c-.021.021-.04.043-.061.063a1.952 1.952 0 0 1-.073.068l-.064.06-.003.002c-.026.022-.053.041-.079.062-.023.017-.044.035-.068.052-.03.02-.063.04-.095.059-.024.014-.046.029-.07.042-.04.02-.081.037-.122.055-.023.009-.043.02-.067.03a1.587 1.587 0 0 1-.212.061 5.832 5.832 0 0 0-.817.246c-.717.274-1.126.595-1.126.595-.022.241-.037.466-.047.675-.035.808.03 1.382.196 1.824a2.14 2.14 0 0 0 .311.554c.158.198.35.367.58.526.102.069.21.137.327.204l.179.102c.123.067.253.135.391.207l.436.22.481.247a21.621 21.621 0 0 1 1.4.79 11.73 11.73 0 0 1 .824.558 6.725 6.725 0 0 1 .436.355c.13.117.247.23.349.342.103.113.191.222.265.329.182.26.281.505.308.734l.004.02a1.184 1.184 0 0 1-.01.274 1.077 1.077 0 0 1-.232.499c-.03.038-.063.076-.1.113-.4.41-1.13.727-2.117.939l-.009.001a9.406 9.406 0 0 1-.484.091c-.054.009-.103.015-.155.022a7.45 7.45 0 0 1-.303.04c-.057.007-.112.01-.168.015a5.304 5.304 0 0 1-.254.018c-.056.004-.11.004-.164.006-.046 0-.094.004-.139.004-.033 0-.065-.002-.098-.003a4.79 4.79 0 0 1-.365-.02l-.084-.007a4.014 4.014 0 0 1-.301-.043l-.058-.013a4.303 4.303 0 0 1-.167-.035l-.053-.016-.086-.025a3.102 3.102 0 0 1-.176-.058l-.075-.027a2.668 2.668 0 0 1-.61-.33l-.057-.043a3.346 3.346 0 0 1-.122-.099l-.038-.033a2.487 2.487 0 0 1-.143-.137l-.032-.034a3.176 3.176 0 0 1-.098-.11 2.361 2.361 0 0 1-.155-.197 6.127 6.127 0 0 1-.099-.138l-.001-.002a6.487 6.487 0 0 1-.426-.775 19.809 19.809 0 0 1-.425-.972c-.14-.345-.28-.705-.417-1.062-.137-.357-.271-.711-.402-1.043a3.18 3.18 0 0 1-.13-.43 6.267 6.267 0 0 1-.121-.712 17.305 17.305 0 0 1-.111-1.631l-.001-.01a31.205 31.205 0 0 1 .02-2.185 1.204 1.204 0 0 1-.211.187c-.01.006-.016.015-.025.021-.013.009-.028.013-.041.021-.061.038-.126.07-.193.098-.02.008-.038.018-.058.024a1.574 1.574 0 0 1-.268.07l-.063.007a1.98 1.98 0 0 1-.233.017c-.015 0-.028.004-.043.004l-.043-.003a2.539 2.539 0 0 1-.227-.014l-.06-.005a3.351 3.351 0 0 1-.289-.047l-.075-.016a4.424 4.424 0 0 1-.219-.054l-.093-.027a7.315 7.315 0 0 1-.284-.09 8.203 8.203 0 0 1-.266-.102l-.047-.02c-.07-.03-.14-.058-.206-.088l-.076-.036a5.499 5.499 0 0 1-.162-.078 5.66 5.66 0 0 1-.255-.133 2.366 2.366 0 0 0-.299-.135c-.018-.008-.035-.016-.054-.022a3.479 3.479 0 0 0-.329-.103l-.067-.017a4.307 4.307 0 0 0-.368-.075l-.023-.003a5.06 5.06 0 0 0-.737-.056l-.064.002c-.045 0-.09.003-.135.005a5.496 5.496 0 0 0-.398.036 3.1 3.1 0 0 0-.252.048c-.038.008-.078.015-.114.025-.014.004-.029.005-.042.01-.1.028-.196.061-.286.1-.22.095-.289.382-.25.821.01.11.027.23.05.358.068.385.191.85.352 1.378.43 1.408 1.129 3.266 1.764 5.256.475 1.493.76 2.555.884 3.356.207 1.337-.032 1.95-.573 2.632-.107.135-.208.258-.302.373-.14.172-.266.328-.383.488a3.96 3.96 0 0 0-.427.712 7.12 7.12 0 0 0-.296.745c-.132.394-.267.882-.418 1.516a13.52 13.52 0 0 1-.115.453l-.038.124a8.91 8.91 0 0 1-.085.285c-.017.054-.036.102-.054.154-.024.072-.05.146-.075.215-.017.045-.035.084-.053.127-.027.067-.054.137-.083.2a.006.006 0 0 1 0 .001c-.018.04-.037.073-.055.11-.03.062-.06.126-.09.183-.021.036-.042.067-.062.102-.03.052-.061.106-.093.155l-.065.088c-.033.046-.065.092-.1.134-.022.029-.047.052-.071.079-.033.037-.066.076-.1.11l-.002.001c-.026.026-.053.047-.08.07-.035.031-.07.065-.107.093-.027.021-.056.039-.085.058-.037.026-.073.054-.112.076-.03.018-.063.033-.095.049-.037.02-.073.04-.111.058l-.005.001c-.033.015-.068.026-.102.04-.04.014-.08.031-.12.044-.038.012-.077.02-.114.03-.042.011-.082.023-.125.033-.04.008-.084.013-.126.02-.042.007-.082.015-.126.02-.044.006-.091.01-.136.014-.044.003-.087.008-.132.01-.047.003-.096.003-.146.004a2.778 2.778 0 0 1-.13.004h-.015a6.82 6.82 0 0 1-.626-.031 8.907 8.907 0 0 1-1.976-.416 6.854 6.854 0 0 1-.483-.18c-.376-.157-.677-.327-.86-.49a2.225 2.225 0 0 1-.368-.465 4.8 4.8 0 0 1-.475-1.046 5.06 5.06 0 0 1-.16-.648 4.378 4.378 0 0 1-.067-.695 3.387 3.387 0 0 1 .449-1.78c.4-.686.599-1.318.653-1.948.018-.21.02-.42.009-.632a5.737 5.737 0 0 0-.075-.642c-.088-.516-.243-1.053-.434-1.636l-.071-.215a36.532 36.532 0 0 0-.085-.25c-.013-.042-.027-.079-.041-.117l-.024-.066a3.705 3.705 0 0 0-.114-.263l-.022-.047a2.605 2.605 0 0 0-.069-.13l-.026-.044a2.154 2.154 0 0 0-.187-.272 2.865 2.865 0 0 0-.367-.361l-.15-.124a4.03 4.03 0 0 1-.224-.202 2.351 2.351 0 0 1-.371-.487c-.245-.421-.481-1.082-.697-2.24-.13-.696-.3-1.358-.505-1.977a11.74 11.74 0 0 0-.46-1.181 10.24 10.24 0 0 0-.55-1.054 8.124 8.124 0 0 0-.634-.912 6.51 6.51 0 0 0-.713-.756 5.24 5.24 0 0 0-.783-.585 4.274 4.274 0 0 0-1.295-.526 8.323 8.323 0 0 1-1.164-.34 5.335 5.335 0 0 1-.815-.395c-.518-.318-.783-.655-.944-.938a3.135 3.135 0 0 1-.162-.33c-.057-.127-.08-.386-.098-.717l-.011-.262-.012-.283-.013-.3a14.155 14.155 0 0 0-.044-.626 7.952 7.952 0 0 0-.084-.627 3.74 3.74 0 0 0-.241-.844 1.71 1.71 0 0 0-.268-.436 1.773 1.773 0 0 1-.27-.434 3.325 3.325 0 0 1-.195-.597 6.315 6.315 0 0 1-.136-.887 9.849 9.849 0 0 1-.024-.328c-.043-.767-.009-1.527-.01-2.015a4.71 4.71 0 0 0-.037-.592 6.872 6.872 0 0 0-.077-.49 7.813 7.813 0 0 0-.406-1.419 5.608 5.608 0 0 0-.256-.563 3.988 3.988 0 0 0-.494-.744 2.516 2.516 0 0 0-.408-.384c-.662-.49-.836-.815-.852-1.532-.005-.239.007-.52.025-.867.018-.346.041-.757.058-1.25.006-.166.01-.34.014-.525.008-.37-.091-.759-.274-1.16a4.367 4.367 0 0 0-.153-.303 6.68 6.68 0 0 0-.624-.922c-.49-.619-1.119-1.238-1.805-1.824a20.754 20.754 0 0 0-1.43-1.115 19.203 19.203 0 0 0-.731-.503 22.797 22.797 0 0 0-1.408-.863 17.306 17.306 0 0 0-.536-.287l-.107-.056-.146-.07-.152-.076a9.05 9.05 0 0 0-.54-.235 3.682 3.682 0 0 0-.638-.2 3.027 3.027 0 0 1-1.34-.6 2.94 2.94 0 0 1-.697-.806c-.173-.295-.234-.515-.234-.515s.071-.387-.06-.933a3.035 3.035 0 0 0-.385-.912 3.81 3.81 0 0 0-.899-.982 10.81 10.81 0 0 1-.56-.47 9.133 9.133 0 0 1-.664-.66 7.745 7.745 0 0 1-.335-.399 5.974 5.974 0 0 1-.26-.359 4.533 4.533 0 0 1-.326-.57 2.04 2.04 0 0 1-.107-.274c-.026-.089-.03-.211-.054-.365a1.829 1.829 0 0 0-.105-.395 2.066 2.066 0 0 0-.276-.487c-.265-.354-.712-.762-1.484-1.21a3.272 3.272 0 0 1-.634-.468 2.298 2.298 0 0 1-.224-.249 1.961 1.961 0 0 1-.168-.255 2.062 2.062 0 0 1-.245-1.072c.006-.273.05-.55.106-.82.057-.272.126-.54.181-.799.037-.172.068-.34.084-.502.008-.082.01-.166.005-.255a1.9 1.9 0 0 0-.037-.277 3.067 3.067 0 0 0-.202-.618 5.235 5.235 0 0 0-.376-.699 9.409 9.409 0 0 0-.904-1.184c-.064-.073-.136-.148-.205-.223-.063-.068-.122-.135-.189-.205-.14-.145-.287-.293-.442-.444-.778-.751-1.757-1.564-2.953-2.421-1.197-.858-2.264-1.523-3.223-2.183a29.475 29.475 0 0 1-.833-.596 14.99 14.99 0 0 1-.525-.41 11.903 11.903 0 0 1-1.21-1.136 10.256 10.256 0 0 1-1.077-1.404 11.891 11.891 0 0 1-.589-1.03 16.205 16.205 0 0 1-.723-1.652 11.174 11.174 0 0 0-.84-1.743 12.993 12.993 0 0 0-1.09-1.566 14.391 14.391 0 0 0-.62-.716 16.286 16.286 0 0 0-1.34-1.297 20.227 20.227 0 0 0-2.855-2.059 20.312 20.312 0 0 0-3.186-1.566 4.984 4.984 0 0 1-.956-.484 4.784 4.784 0 0 1-.765-.623 5.634 5.634 0 0 1-.61-.723 7.514 7.514 0 0 1-.485-.79 11.987 11.987 0 0 1-.398-.815 31.504 31.504 0 0 1-.342-.805 53.534 53.534 0 0 0-.32-.758 7.875 7.875 0 0 0-.332-.673 24.802 24.802 0 0 0-.726-1.154l-.207-.315c-.216-.33-.459-.699-.721-1.102l-.27-.415a130.5 130.5 0 0 1-1.19-1.875 93.326 93.326 0 0 1-1.64-2.75 70.439 70.439 0 0 1-1.22-2.23 53.29 53.29 0 0 1-1.379-2.818c-.07-.154-.137-.308-.205-.463-.167-.381-.33-.764-.486-1.15a37.179 37.179 0 0 1-.666-1.76 23.09 23.09 0 0 0-.846-2.113 16.427 16.427 0 0 0-.462-.919 10.998 10.998 0 0 0-.688-1.098c-.719-.992-1.452-1.556-2.204-1.882a4.942 4.942 0 0 0-.78-.261 6.89 6.89 0 0 0-.754-.137 12.52 12.52 0 0 0-.304-.034c-.357-.035-.717-.054-1.082-.075a17.683 17.683 0 0 1-1.105-.091 4.994 4.994 0 0 1-1.024-.237 4.524 4.524 0 0 1-1.226-.66c-.59-.444-1.045-.997-1.433-1.543l-.133-.193a26.66 26.66 0 0 1-.303-.452l-.281-.423c-.04-.057-.079-.116-.117-.172a5.51 5.51 0 0 0-.386-.5c-.032-.035-.072-.075-.108-.112a9.454 9.454 0 0 0-1.04-.894 27.735 27.735 0 0 0-.377-.283 60.713 60.713 0 0 0-2.144-1.476l-.439-.292a60.782 60.782 0 0 1-1.92-1.307 2.77 2.77 0 0 1-.5-.457 1.918 1.918 0 0 1-.169-.233 1.702 1.702 0 0 1-.249-.713 2.12 2.12 0 0 1 0-.48c.007-.08.019-.16.033-.24.028-.16.067-.318.109-.476.105-.393.232-.778.273-1.14.074-.653 2.397-3.66 4.416-6.167 1.57-1.949 2.956-3.595 2.956-3.595a36.544 36.544 0 0 0 2.286-.303 48.2 48.2 0 0 0 4.531-.985 55.94 55.94 0 0 0 4.172-1.296 48.61 48.61 0 0 0 1.835-.692 33.045 33.045 0 0 0 2.942-1.328c.182-.095.354-.188.52-.279l.158-.086.201-.111.12-.068.165-.093.286-.165.143-.082.304-.177.405-.236.08-.045.249-.14.105-.059a13.068 13.068 0 0 1 .556-.28l.053-.025c.097-.043.192-.082.287-.117l.069-.024c.071-.026.142-.049.214-.07.032-.01.064-.018.096-.026.065-.017.13-.032.197-.046.032-.006.065-.013.099-.018.073-.013.148-.023.223-.03.026-.003.05-.007.076-.009a3.54 3.54 0 0 1 .295-.013l.017.002.065.001a4.476 4.476 0 0 1 .634.058c.038.006.075.01.114.017l.054.009c.108.019.22.042.336.068.191.043.372.073.549.095.049.007.097.012.144.017.144.014.283.023.42.025.022 0 .047.004.07.004h.034c.037 0 .072-.003.108-.004a4.435 4.435 0 0 0 .586-.06 3.718 3.718 0 0 0 .353-.076c.031-.008.063-.015.093-.024a4.83 4.83 0 0 0 .322-.102c.019-.006.037-.014.056-.021a6.168 6.168 0 0 0 .717-.313 7.188 7.188 0 0 0 .336-.173l.274-.151c.022-.014.044-.025.067-.038.117-.067.236-.137.358-.209l.112-.066c.092-.055.187-.11.283-.169l.28-.168.225-.135.281-.167.156-.093.457-.266a5.37 5.37 0 0 1 .474-.237c.05-.023.102-.042.153-.063a5.488 5.488 0 0 1 .52-.185c.123-.038.246-.07.37-.1.05-.012.097-.025.146-.036a7.14 7.14 0 0 1 .522-.095l.069-.008a9.005 9.005 0 0 1 1.188-.083l.113-.002c.052 0 .103.004.155.004a12.081 12.081 0 0 1 .658.025c.145.009.288.021.43.034l.201.019c.18.019.359.04.533.064l.07.009a21.349 21.349 0 0 1 .752.118c.13.022.259.045.382.068l.058.01c.048.009.09.018.138.026a115.525 115.525 0 0 1 .871.167l.37.067c.123.019.45.046.953.08a153.12 153.12 0 0 0 1.527.095l.985.056.543.03.574.032 1.237.065c.862.046 1.796.094 2.786.144l.753.038.039.002a685.903 685.903 0 0 0 2.33.115l1.656.082a7471.545 7471.545 0 0 0 6.096.294l4.43.21c.305.014.61.03.914.043l1.681.08 1.681.08c.276.013.55.025.821.039l1.595.075.772.037 3.533.167 1.234.06 1.621.079c1.31.064 2.251.113 2.695.14.89.054 1.497.159 1.908.304a2.42 2.42 0 0 1 .273.116c.12.061.215.129.289.2a.78.78 0 0 1 .243.488c.017.12.013.247 0 .38-.027.297-.102.625-.102.969a24.59 24.59 0 0 0 .001.277l.003.158.004.085a3.82 3.82 0 0 0 .03.38c.005.026.008.053.012.08.009.06.02.118.033.177.003.015.005.029.009.042l.001.007c.017.07.037.137.06.203.007.018.016.035.023.054.019.049.04.097.063.144l.038.066a1.307 1.307 0 0 0 .126.182c.03.035.062.07.096.103.02.018.038.038.06.055.04.035.087.068.135.099.018.011.034.024.053.035.07.04.146.076.229.107.017.006.037.01.055.016.068.023.14.043.218.06.034.007.07.01.107.016a2.673 2.673 0 0 0 .347.032c.036.002.068.005.105.005.06 0 .123-.003.186-.006.02-.001.037 0 .057-.002.127-.008.265-.022.41-.043l.099-.015a7.55 7.55 0 0 0 .765-.16c.03-.007.058-.016.088-.024.059-.018.117-.034.172-.052l.1-.034c.047-.016.095-.032.14-.049l.097-.038.123-.05a6.702 6.702 0 0 0 .202-.09 3.006 3.006 0 0 0 .186-.09l.08-.043c.031-.017.062-.032.092-.05l.074-.04.087-.05.072-.041.1-.058.09-.053c.022-.013.045-.026.066-.04l.07-.037.058-.033.066-.034.054-.027.068-.03.047-.02a.999.999 0 0 1 .08-.026.884.884 0 0 1 .146-.036l.022-.001a.727.727 0 0 1 .09-.007h.005c.026 0 .053.002.081.005l.022.001c.036.006.074.013.112.023l.034.012c.027.008.054.017.083.028l.048.023c.024.011.05.022.075.036l.056.032.076.046.061.042a2.8 2.8 0 0 1 .08.057l.068.054a3.379 3.379 0 0 1 .157.132 4.256 4.256 0 0 1 .267.252l.086.086.106.11.093.098.117.127.098.108.132.15.1.115c.05.056.1.115.15.175l.103.12.183.218.09.108.295.36a32.693 32.693 0 0 1 .82 1.052 12.733 12.733 0 0 1 .58.847c.156.253.28.478.376.682.223.477.294.841.295 1.179 0 .096-.005.19-.015.285-.01.094-.024.188-.04.284-.016.097-.033.194-.052.296-.064.356-.132.76-.126 1.298.003.23.02.486.057.772.024.192.06.37.105.539.138.504.368.908.661 1.238l.008.008c.292.326.647.58 1.037.781.131.068.266.13.405.188.138.058.28.11.423.16.285.098.58.18.874.255.146.038.293.073.439.106.291.069.578.133.851.198.274.067.535.136.775.215.03.01.068.02.116.029.095.02.225.038.387.057.486.056 1.263.108 2.268.157.503.025 1.063.049 1.672.072a262.049 262.049 0 0 0 2.683.088c.243.007.489.015.74.021l.765.02.787.02a491.464 491.464 0 0 0 2.48.057l1.737.035a1247.704 1247.704 0 0 0 7.299.122c1.541.022 3.077.042 4.572.06l1.77.022 1.717.02.835.009c3.3.035 6.154.06 8.067.075l.458.005 2.076.015 20.661 21.16 20.66 21.159c-.52.373-1.396.93-2.461 1.616zm4.65-3.752l-41.323-42.319-.891-.913-1.276-.009c-13.977-.092-36.92-.385-39.662-.784a19.21 19.21 0 0 0-1.394-.357c-.58-.133-1.65-.379-1.91-.616a.766.766 0 0 1-.029-.144c-.066-.52-.02-.772.055-1.19.442-2.44-.143-4.021-2.612-7.05-1.527-1.874-2.97-3.643-5.143-3.643-1.109 0-1.893.46-2.412.765-.078.047-.151.089-.221.129.015-.738-.125-1.718-.865-2.629-1.155-1.42-3.037-1.717-4.725-1.82-1.258-.078-6.235-.313-12.536-.61-10.426-.493-26.158-1.237-27.656-1.407a26.26 26.26 0 0 1-.643-.12c-1.07-.208-2.688-.524-4.427-.524-1.963 0-3.671.41-5.077 1.216a66.69 66.69 0 0 0-1.252.74c-1.315.791-1.856 1.089-2.324 1.089-.143 0-.315-.022-.51-.066a8.552 8.552 0 0 0-1.893-.23c-1.883 0-3.184.76-4.562 1.564-.498.29-1.063.62-1.754.981-2.573 1.344-8.826 3.692-14.654 4.273l-1.236.124-.8.95c-7.798 9.262-7.97 10.497-8.07 11.374-.012.072-.064.255-.102.391-.31 1.098-1.132 4.015 1.847 6.178.57.415 1.286.89 2.043 1.393 1.065.707 3.047 2.023 3.492 2.525.101.114.31.432.478.687.931 1.415 2.665 4.048 6.34 4.499.52.064 1.012.092 1.445.117 1.137.066 1.605.118 2.008.406.42.301 1.272 1.228 2.257 4.058 2.132 6.122 5.936 11.923 7.98 15.038.419.639.814 1.242.956 1.493.136.24.3.639.475 1.06.724 1.753 1.936 4.688 5.313 5.966 2.361.894 6.737 3.41 8.153 7.166 1.834 4.867 4.475 6.614 7.272 8.465.634.42 1.291.854 1.986 1.352 2.644 1.896 3.704 3.249 3.992 3.792l-.051.222c-.173.74-.41 1.751-.208 2.929.185 1.08.807 2.598 2.717 3.708.2.116.337.211.429.28.02.118.05.253.093.4.195.659.906 2.393 3.297 4.27.086.068.14.124.17.163l-.074.394.188.68c.431 1.56 1.895 3.565 4.6 4.1.426.129 1.89.868 3.47 2.057 1.79 1.347 2.48 2.33 2.632 2.66-.012.525-.036.956-.056 1.34-.091 1.722-.185 3.5 1.983 5.143.23.308.49 1.243.507 1.709.003.096 0 .324-.003.525-.024 1.57-.06 3.903 1.186 5.567.073.34.1 1.028.114 1.378.032.806.06 1.5.376 2.21.55 1.231 1.688 2.96 5.216 3.74.905.2 2.087 1.833 2.595 4.565.508 2.734 1.266 3.826 2.4 4.77a.047.047 0 0 1 .005.01c.665 1.95.59 2.224.257 2.794-1.826 3.12-.433 6.984 1.227 8.461 1.388 1.235 4.055 1.887 5.971 1.892h.022c4.176 0 5.406-3.137 5.967-5.495.373-1.568.472-1.688.947-2.27.093-.115.193-.237.299-.371 1.292-1.625 1.51-3.235 1.177-5.187.09.157.18.306.275.447.831 1.248 2.436 2.734 5.363 2.734.714 0 1.493-.089 2.316-.265 3.543-.759 4.578-2.603 4.822-4.018.365-2.114-.84-4.044-3.584-5.737a26.606 26.606 0 0 0-1.973-1.094 5.2 5.2 0 0 0 1.257-1.016l.194.007c.055.042.13.099.231.18.077.062.159.132.243.204.67.57 1.681 1.433 3.11 1.433a3.342 3.342 0 0 0 2.638-1.28c.136-.172.253-.352.353-.542.038.045.079.089.12.133.77.806 1.84 1.25 3.016 1.25 1.194 0 2.508-.442 4.137-1.393 2.577-1.505 3.535-1.676 4.38-1.827.726-.129 1.63-.29 2.818-.918a32.065 32.065 0 0 0 3.212-1.964c1.367-.955 2.43-1.797 2.667-3.199.09-.536.027-.95-.041-1.388-.198-1.274-.139-1.842-.076-2.08 1.703-.485 3.22-.633 4.447-.753.842-.082 1.57-.154 2.239-.315 2.604-.63 5.447-4.062 5.633-6.802.038-.557-.028-1.071-.093-1.568-.03-.222-.071-.545-.083-.789.205-.054.555-.117 1.106-.136 4.745-.158 7.963-1.118 9.564-2.855.774-.838 1.172-1.878 1.123-2.928a6.043 6.043 0 0 0-.17-1.102c1.121-.127 2.4-.524 3.16-1.754.607-.98.657-2.192.133-3.244-.223-.448-.515-.852-.797-1.242-.127-.176-.325-.448-.47-.677.333-.513 1.23-1.629 3.597-3.635 2.096-1.776 3.821-4.976 5.649-8.363 1.13-2.094 2.298-4.26 3.392-5.719 1.964-2.617 7.153-5.952 9.94-7.744.92-.59 1.646-1.058 2.157-1.423l2.897-2.073-2.489-2.549z" fill="#FFF"/><path fill="#5288CF" d="M130.459 103.63h-12.058v5.915l-2.46 2.074-.916.773-1.544 1.302h-13.37l-5.042-4.24V72.321l4.61-5.23h14.422l3.773 4.31v6.914h12.49v-10.72l-8.942-9.462h-28.83l-9.841 9.597v45.81l9.398 9.686h28.276l10.034-9.748v-9.85"/><path d="M118.4 109.545v-5.916h12.059v9.85l-10.034 9.748H92.149l-9.398-9.686v-45.81l9.842-9.597h28.829l8.942 9.463v10.72h-12.49v-6.915l-3.773-4.31H99.68l-4.61 5.23v37.131l5.041 4.241h13.37l4.92-4.149zm-17.67 2.45l-3.962-3.332v-35.7l3.679-4.172h12.883l2.845 3.25v7.974h15.887V66.921l-.463-.491-8.942-9.463-.503-.532H91.902l-.496.483-9.842 9.596-.512.5v47.216l.48.494 9.398 9.686.5.516h29.684l.495-.48 10.033-9.748.516-.5V101.93h-15.456v6.825l-3.842 3.24h-12.13zm33.41 3.04l-1.116 1.085-10.035 9.747-1.07 1.04H90.591l-1.084-1.117-9.399-9.685-1.04-1.072V66.18l1.112-1.084 9.842-9.596 1.073-1.046h31.912l1.09 1.153 8.94 9.463 1.006 1.064v15.864h-19.851v-9.211l-1.762-2.013h-11.09l-2.591 2.94v34.027l2.703 2.273h10.683l2.584-2.179v-7.886h19.42v15.087zm15.968-68.073l-2.076-.015-.458-.005a2702.62 2702.62 0 0 1-8.902-.085c-.561-.006-1.134-.012-1.717-.02l-1.77-.02a2279.38 2279.38 0 0 1-7.347-.103 1247.704 1247.704 0 0 1-8.74-.172l-.788-.02a496.615 496.615 0 0 1-2.22-.062c-.7-.022-1.359-.044-1.968-.067-.61-.023-1.169-.047-1.672-.072a39.207 39.207 0 0 1-2.268-.157 4.569 4.569 0 0 1-.387-.057.996.996 0 0 1-.116-.03 10.96 10.96 0 0 0-.775-.214c-.273-.065-.56-.13-.851-.198a20.671 20.671 0 0 1-.44-.106 11.21 11.21 0 0 1-.873-.255 6.954 6.954 0 0 1-.423-.16 5.412 5.412 0 0 1-.405-.188 3.599 3.599 0 0 1-1.037-.78c-.002-.004-.005-.005-.008-.009a3.031 3.031 0 0 1-.66-1.238 3.847 3.847 0 0 1-.106-.539 7.266 7.266 0 0 1-.057-.772 6.405 6.405 0 0 1 .126-1.298c.019-.102.036-.2.052-.296.016-.096.03-.19.04-.284.01-.094.015-.189.015-.285 0-.338-.072-.702-.295-1.179a6.754 6.754 0 0 0-.376-.682 12.733 12.733 0 0 0-.58-.847 24.271 24.271 0 0 0-.82-1.053l-.295-.36-.09-.107-.183-.218-.103-.12c-.05-.06-.1-.12-.15-.175l-.1-.115-.132-.15-.098-.108-.117-.127-.093-.098-.106-.11-.086-.086a6.966 6.966 0 0 0-.177-.17 6.155 6.155 0 0 0-.248-.214l-.068-.054a2.8 2.8 0 0 0-.079-.057c-.02-.014-.041-.03-.061-.042a1.317 1.317 0 0 0-.076-.046l-.056-.032a1.016 1.016 0 0 0-.075-.036l-.048-.023a1.16 1.16 0 0 0-.083-.028l-.034-.012a1.129 1.129 0 0 0-.112-.023l-.022-.001a.817.817 0 0 0-.176.002c-.008 0-.016 0-.023.002a.884.884 0 0 0-.225.062l-.047.02c-.022.01-.045.018-.068.03l-.054.026-.066.034c-.02.01-.039.022-.059.033l-.069.038a3.177 3.177 0 0 1-.066.039l-.09.053-.1.058-.072.042a10.906 10.906 0 0 1-.161.09c-.03.017-.061.032-.092.05l-.08.041a3.006 3.006 0 0 1-.1.05c-.028.014-.056.028-.086.041-.035.018-.073.034-.11.05l-.092.04-.123.05-.097.038-.14.05-.1.033c-.055.018-.113.034-.172.052l-.088.025a7.55 7.55 0 0 1-.765.16l-.1.014c-.144.02-.282.035-.41.043-.02.001-.037 0-.056.002a4.022 4.022 0 0 1-.186.006c-.037 0-.069-.003-.105-.005a2.673 2.673 0 0 1-.347-.031c-.037-.006-.073-.01-.107-.018a1.906 1.906 0 0 1-.218-.059c-.018-.006-.038-.01-.055-.016a1.538 1.538 0 0 1-.229-.107c-.019-.01-.034-.024-.053-.035a1.268 1.268 0 0 1-.136-.099l-.03-.027-.029-.028a1.264 1.264 0 0 1-.146-.168 1.307 1.307 0 0 1-.103-.164l-.01-.02a1.67 1.67 0 0 1-.064-.143c-.007-.019-.016-.036-.022-.054a2.152 2.152 0 0 1-.061-.203l-.001-.007c-.004-.013-.006-.027-.009-.042a2.46 2.46 0 0 1-.033-.178l-.011-.08a3.642 3.642 0 0 1-.016-.148l-.007-.086a3.82 3.82 0 0 1-.008-.145l-.004-.085-.003-.158v-.066l-.001-.211c0-.344.075-.672.103-.97.012-.132.016-.26 0-.379a.78.78 0 0 0-.243-.487 1.196 1.196 0 0 0-.29-.201 2.283 2.283 0 0 0-.273-.116c-.411-.145-1.018-.25-1.908-.304-.444-.027-1.385-.076-2.695-.14l-1.621-.08-1.234-.059-3.533-.167a679.35 679.35 0 0 0-.772-.037l-1.595-.075-.82-.04-1.682-.079-1.681-.08c-.304-.013-.609-.029-.915-.043l-4.429-.21a8968.643 8968.643 0 0 1-6.096-.294l-1.656-.082c-.285-.013-.567-.028-.846-.042l-1.484-.073-.792-.04a1558.876 1558.876 0 0 1-4.597-.24l-.543-.03a236.07 236.07 0 0 1-2.512-.151c-.503-.035-.83-.062-.952-.081a17.902 17.902 0 0 1-.556-.102l-.335-.065-.351-.067-.196-.036a26.86 26.86 0 0 0-.382-.068l-.171-.03a21.349 21.349 0 0 0-.581-.088l-.07-.009a19.036 19.036 0 0 0-.533-.064l-.2-.019a16.045 16.045 0 0 0-.431-.034l-.234-.013a14.79 14.79 0 0 0-.424-.012c-.09-.001-.178-.003-.268-.002l-.18.004a10.69 10.69 0 0 0-.544.028c-.155.013-.31.03-.464.05l-.069.009c-.175.025-.35.057-.522.095-.049.011-.097.024-.145.036a5.969 5.969 0 0 0-.891.285c-.051.021-.103.04-.153.063a5.66 5.66 0 0 0-.474.237l-.457.266-.156.093c-.095.056-.19.112-.28.167l-.226.135-.28.168-.283.169-.112.066-.358.21c-.023.012-.045.023-.067.037-.093.051-.184.102-.274.15l-.115.061c-.074.04-.148.078-.221.113-.04.021-.082.04-.122.06a9.27 9.27 0 0 1-.329.148 6.168 6.168 0 0 1-.266.105c-.019.007-.037.015-.056.021a4.83 4.83 0 0 1-.322.102c-.03.009-.062.016-.093.024a4.38 4.38 0 0 1-.234.054l-.119.022a3.732 3.732 0 0 1-.344.045c-.08.008-.16.011-.242.015-.036 0-.071.003-.108.003l-.034.001c-.023 0-.048-.003-.07-.004a4.97 4.97 0 0 1-.42-.025c-.047-.005-.095-.01-.144-.017a5.91 5.91 0 0 1-.55-.095 7.624 7.624 0 0 0-.39-.077l-.113-.017a5.174 5.174 0 0 0-.634-.058l-.065-.001a3.236 3.236 0 0 0-.312.011l-.076.009a3.478 3.478 0 0 0-.199.026l-.024.003-.1.02c-.032.006-.064.015-.096.022-.033.007-.067.014-.1.023-.032.008-.064.016-.096.026a4.42 4.42 0 0 0-.14.046l-.073.023-.07.025a5.98 5.98 0 0 0-.256.104l-.03.013c-.018.007-.036.017-.054.025-.032.014-.065.032-.098.047-.048.023-.095.044-.143.068a6.314 6.314 0 0 0-.1.052l-.124.065-.09.048-.106.059h-.001a21.697 21.697 0 0 0-.249.14l-.08.045-.002.002-.37.215-.032.019-.304.177a14.81 14.81 0 0 1-.143.082l-.286.165-.106.06-.058.032-.001.001-.12.068-.2.11-.16.087c-.165.091-.337.184-.52.279-.787.41-1.788.867-2.94 1.328a48.61 48.61 0 0 1-2.825 1.032 55.94 55.94 0 0 1-4.296 1.24 48.2 48.2 0 0 1-3.418.7c-.765.126-1.53.229-2.286.304 0 0-1.386 1.646-2.956 3.595-2.019 2.507-4.342 5.514-4.416 6.166-.041.363-.168.748-.273 1.14a5.756 5.756 0 0 0-.109.477 3.13 3.13 0 0 0-.046.48 1.762 1.762 0 0 0 .058.48c.041.158.107.317.204.473.048.078.105.156.17.233.13.155.294.308.5.457.515.374 1.195.826 1.92 1.307l.438.292c.736.49 1.492.999 2.144 1.476.13.096.257.19.378.283.425.325.781.627 1.039.894.036.037.076.077.108.113.13.145.257.314.386.5.039.055.077.114.117.171a61.943 61.943 0 0 1 .079.117l.249.376-.047-.07a29.078 29.078 0 0 0 .436.645c.388.546.842 1.099 1.433 1.544.355.266.758.494 1.226.659a4.855 4.855 0 0 0 1.024.237c.26.032.517.051.773.068l.058.006.274.017.34.02.304.02c.146.01.293.02.438.035.102.01.203.021.304.034.254.033.505.075.755.137.262.065.522.15.78.261.75.326 1.484.89 2.203 1.882a10.998 10.998 0 0 1 .688 1.098 16.427 16.427 0 0 1 .463.92c.283.613.565 1.309.845 2.112.205.589.43 1.176.666 1.76.157.386.319.769.486 1.15a51.955 51.955 0 0 0 1.584 3.28 72.57 72.57 0 0 0 2.217 3.93c1.745 2.895 3.291 5.088 3.757 5.912.116.206.225.433.332.673.113.253.225.525.34.803l-.02-.045a49.373 49.373 0 0 0 .342.805 10.212 10.212 0 0 0 .397.815c.146.27.306.535.487.79.18.253.382.497.61.723.226.227.48.437.764.623.09.059.19.112.287.166.056.031.107.066.165.096-.058-.03-.11-.065-.165-.096.208.116.427.226.669.318.885.335 2.006.856 3.187 1.566a20.783 20.783 0 0 1 2.854 2.059 17.24 17.24 0 0 1 1.34 1.297c.214.231.42.47.62.716.15.185.29.38.43.573.113.155.22.314.327.474.113.171.229.34.334.519.325.55.609 1.132.84 1.743.23.611.47 1.158.722 1.652a11.891 11.891 0 0 0 .793 1.338l-.122-.185a10.647 10.647 0 0 0 .549.76 10.256 10.256 0 0 0 .913 1c.239.23.486.447.743.656a14.99 14.99 0 0 0 .796.612c.183.132.37.264.562.395.959.66 2.026 1.325 3.223 2.183 1.196.857 2.175 1.67 2.953 2.421.23.223.436.438.631.65.069.074.141.15.205.222.371.42.671.816.904 1.184.155.245.28.479.376.699.096.22.163.426.202.618a1.9 1.9 0 0 1 .032.532c-.013.132-.04.27-.069.41-.004.02-.005.039-.01.058-.017.081-.034.163-.053.245-.045.193-.09.388-.133.587-.056.272-.1.548-.106.821-.008.365.053.727.245 1.072a2.228 2.228 0 0 0 .392.504c.169.162.377.32.634.468.772.448 1.22.856 1.484 1.21a1.884 1.884 0 0 1 .381.882c.024.154.028.276.054.365.02.066.054.158.107.273a4.533 4.533 0 0 0 .326.57c.075.114.16.233.26.36a7.823 7.823 0 0 0 .998 1.058c.171.154.357.31.561.47.408.321.696.658.898.983a3.035 3.035 0 0 1 .385.912c.132.546.061.933.061.933s.06.22.234.515a2.886 2.886 0 0 0 .964.994c.289.18.643.33 1.073.413a2.826 2.826 0 0 1 .384.108c.045.017.093.033.142.05.094.037.19.073.295.118a10.703 10.703 0 0 1 .51.234l.145.07.107.056c.115.059.235.125.354.19.17.093.342.187.522.292a22.797 22.797 0 0 1 1.798 1.172 22.35 22.35 0 0 1 1.43 1.114c.687.586 1.315 1.205 1.806 1.824.106.135.203.269.296.402.052.075.098.149.145.223.063.1.13.199.183.297.056.102.107.203.153.303.019.041.032.081.049.122.037.088.07.175.098.262l.005.019a2.9 2.9 0 0 1 .065.237l.015.082v-.002c.011.06.023.12.03.179.003.03.002.062.004.092.004.057.01.113.008.17.002-.055-.004-.111-.008-.166.004.055.01.11.008.165-.06 2.952-.421 3.304.755 4.174.147.109.283.238.408.384.187.218.351.473.494.744.095.181.18.37.255.564a7.813 7.813 0 0 1 .45 1.673 6.872 6.872 0 0 1 .056.45 4.71 4.71 0 0 1 .015.377c.001.488-.033 1.248.01 2.015l.002.023c.024.411.071.822.158 1.192.051.215.114.418.195.597.075.165.164.312.27.434.107.122.194.27.268.436.11.248.186.538.241.844.036.204.063.416.084.627a14.13 14.13 0 0 1 .057.926l.012.283c.009.208.017.393.031.552l-.005-.056.005.056.008.08c.005.052.011.1.019.144l.01.06c.002.012.006.02.009.032a.608.608 0 0 0 .032.112l.025.055-.025-.055c-.009-.019-.014-.048-.021-.072.007.024.012.053.02.072l.046.1.026.054c.017.035.036.073.057.111l.034.064a2.283 2.283 0 0 0 .167.253c.007.011.018.022.026.032.02.026.041.053.064.079l.019.023.026.028.075.079.028.03a3.745 3.745 0 0 0 .113.102l.04.037.02.015.113.087.046.036a5.335 5.335 0 0 0 1.022.532c.326.124.71.24 1.164.34.453.1.886.278 1.295.526.272.165.534.36.783.585.25.224.488.477.713.756.225.28.437.584.634.912.198.329.382.68.55 1.054.17.373.323.767.46 1.18.206.62.375 1.282.505 1.977.216 1.16.452 1.82.697 2.241a2.353 2.353 0 0 0 .408.523l-.037-.036.075.072c.05.046.1.09.15.13.05.043.1.083.149.124a4.444 4.444 0 0 1 .222.2 2.865 2.865 0 0 1 .162.183 2.397 2.397 0 0 1 .17.25l.026.043c.023.042.046.085.069.131l.022.047a3.705 3.705 0 0 1 .114.263l.024.066c.014.038.028.075.041.116.03.085.057.167.085.25l.071.216c.19.583.346 1.12.434 1.636.037.217.063.43.075.642.011.212.01.422-.009.632-.004.043-.013.087-.018.13-.015.122-.03.243-.056.365-.008.038-.021.076-.03.113a4.579 4.579 0 0 1-.098.359c-.021.064-.052.13-.076.193 0 .001 0 .002-.002.003h.001c-.037.095-.07.189-.114.286l-.027.052a5.808 5.808 0 0 0-.233.447c-.076.13-.138.26-.192.394-.01.024-.021.048-.03.073a3.427 3.427 0 0 0-.109.325l-.013.061-.017.076c-.01.045-.022.09-.03.133-.011.061-.016.122-.023.183-.006.043-.013.085-.017.127-.013.137-.02.273-.018.408.003.237.027.47.067.695.04.225.095.443.16.648.132.41.304.77.475 1.046.079.126.156.232.23.319l.004.005c.046.055.091.103.133.141.051.046.114.09.182.137l.071.045c.05.03.103.062.16.093l.035.022.099.048.07.035c.078.037.158.074.244.11a6.854 6.854 0 0 0 .747.263 8.324 8.324 0 0 0 .558.147c.09.02.184.035.276.054.07.014.14.029.211.04.033.007.066.015.1.02a8.324 8.324 0 0 0 1.193.103c.05 0 .097-.002.145-.004.05 0 .1 0 .146-.003l.132-.011.136-.013.126-.02c.042-.008.085-.013.126-.021.043-.01.083-.022.125-.033.037-.01.076-.018.113-.03.041-.013.08-.03.12-.045.035-.013.07-.024.103-.039.04-.017.076-.038.115-.058-.037.019-.073.04-.11.057.038-.018.074-.039.111-.058.032-.016.064-.03.095-.049.014-.008.026-.018.04-.027.024-.016.049-.032.072-.049.029-.019.058-.037.085-.058.016-.012.03-.026.045-.038l.06-.052.003-.002c.026-.024.053-.045.078-.07.034-.033.067-.072.1-.109-.032.036-.064.075-.097.107.034-.034.067-.073.1-.11.024-.027.049-.05.071-.079.023-.027.045-.058.066-.088l.03-.04a.024.024 0 0 1 .004-.006l.065-.088.044-.075.049-.08.061-.102c.03-.055.059-.116.087-.175l.004-.008c.018-.037.037-.07.054-.11l.001-.001a.006.006 0 0 1 0 .001c.028-.063.055-.133.083-.2.018-.044.036-.083.053-.128l.075-.215c.018-.052.037-.1.054-.154a8.91 8.91 0 0 0 .085-.285l.038-.124c.039-.144.078-.295.115-.453.151-.634.286-1.122.418-1.515a7.12 7.12 0 0 1 .296-.746 3.96 3.96 0 0 1 .427-.712c.117-.16.243-.316.383-.488.094-.115.195-.238.302-.373.54-.681.78-1.295.573-2.632-.124-.801-.409-1.863-.884-3.356-.635-1.99-1.334-3.848-1.764-5.256a12.355 12.355 0 0 1-.352-1.378 4.251 4.251 0 0 1-.05-.358c-.039-.439.03-.726.25-.821.09-.039.185-.072.286-.1.013-.005.028-.006.042-.01.036-.01.076-.017.114-.025a3.1 3.1 0 0 1 .389-.065c.086-.008.173-.015.261-.019.045-.002.09-.005.135-.005l.064-.002a5.007 5.007 0 0 1 .737.056l.023.003c.127.02.249.046.368.075l.067.017a3.479 3.479 0 0 1 .383.125c.107.04.209.085.299.135a5.66 5.66 0 0 0 .255.133c.051.026.106.052.162.078l.076.036c.067.03.135.059.206.088l.047.02c.086.035.176.069.266.101l.075.025.21.066c.03.01.061.018.092.027.073.02.146.038.22.054l.074.016c.097.02.193.036.29.047l.059.005c.077.008.152.013.227.014h.086c.08-.002.157-.008.233-.018l.063-.007c.093-.016.182-.039.268-.07.02-.006.038-.016.058-.024a1.286 1.286 0 0 0 .469-.326v-.001s-.029.6-.029 1.402a28.919 28.919 0 0 0 .025 1.2 17.305 17.305 0 0 0 .097 1.224 8.18 8.18 0 0 0 .122.711c.037.162.08.306.129.43.131.333.265.687.402 1.044s.276.717.417 1.062c.092.227.185.443.278.65.05.11.098.22.147.322a6.457 6.457 0 0 0 .427.777h.001a4.7 4.7 0 0 0 .097.139l.036.046c.025.034.052.068.079.1v.001l.041.05.055.06.043.05.032.033c.021.022.044.043.067.064.025.025.05.05.076.073l.038.033c.04.034.08.067.122.099l.057.042c.027.02.056.038.084.057l.045.03a2.658 2.658 0 0 0 .258.147.11.11 0 0 1 .016.007c.038.019.078.034.117.051l.09.04.075.026c.037.014.075.026.113.038.021.007.042.015.063.02l.086.025.053.016-.053-.016c.07.02.144.036.22.051.02.004.038.01.058.013.096.017.197.032.3.043l.085.008c.081.008.164.012.25.016a6.062 6.062 0 0 0 .352.001 5.304 5.304 0 0 0 .418-.023c.056-.005.11-.008.168-.015.098-.01.2-.025.303-.04.052-.007.101-.013.155-.022.155-.025.317-.055.484-.09l.009-.002c.987-.212 1.718-.53 2.117-.939a1.536 1.536 0 0 0 .185-.23 1.077 1.077 0 0 0 .148-.382 1.005 1.005 0 0 0 .006-.294c-.028-.23-.127-.475-.309-.734a3.213 3.213 0 0 0-.265-.329 4.785 4.785 0 0 0-.349-.342 6.453 6.453 0 0 0-.436-.355 11.73 11.73 0 0 0-.823-.558 21.621 21.621 0 0 0-1.4-.79 73.186 73.186 0 0 0-.482-.246l-.436-.221c-.138-.072-.268-.14-.391-.207l-.18-.102a5.184 5.184 0 0 1-.325-.204 2.615 2.615 0 0 1-.58-.526 1.95 1.95 0 0 1-.194-.294 2.14 2.14 0 0 1-.118-.26c-.167-.442-.231-1.016-.196-1.824.01-.21.025-.434.047-.675 0 0 .41-.321 1.126-.595.24-.092.513-.178.817-.246a1.57 1.57 0 0 0 .212-.061c.024-.01.044-.021.067-.03.041-.018.083-.035.121-.055.025-.013.047-.028.07-.042a.006.006 0 0 0 .004-.003c.03-.019.063-.036.092-.056.024-.017.045-.035.068-.052l.08-.062-.079.06c.027-.02.056-.04.08-.063.023-.019.044-.04.065-.059l.018-.017c.018-.017.038-.033.055-.051l.06-.063a4.76 4.76 0 0 0 .058-.062l.01-.009.059-.065c.004-.007.01-.012.015-.019l.082-.092c.008-.007.014-.015.021-.023l.065-.074.062-.065.066-.07.065-.063c.024-.023.046-.045.07-.066.022-.02.046-.038.07-.057.025-.02.05-.042.076-.061.025-.018.052-.033.078-.05.028-.018.055-.037.085-.054.027-.015.057-.028.086-.042.032-.015.063-.03.097-.044.014-.006.03-.01.045-.015l.052-.017c.032-.01.062-.022.096-.031.004-.001.01-.001.014-.003.035-.008.074-.013.111-.02.041-.007.08-.015.125-.02.04-.005.084-.005.126-.008.04-.001.078-.006.12-.006h.043l.523.01c.312.008.558.021.772.053a2.174 2.174 0 0 1 .858.315c.193.118.405.275.668.486.055.043.111.09.169.138a33.846 33.846 0 0 0 .205.174l.172.146.028.023h.001c.059.049.117.096.175.141l.01.007c.056.043.112.084.167.121l.014.012-.014-.012.02.015a2.535 2.535 0 0 0 .177.106l.01.004c.05.027.1.048.147.064l.011.005-.01-.005.023.008a.546.546 0 0 0 .137.023c.01 0 .018-.002.027-.003a.342.342 0 0 0 .056-.007l.03-.011a.246.246 0 0 0 .046-.022l.029-.02a.334.334 0 0 0 .095-.12l.022-.043a.684.684 0 0 0 .026-.072 1.125 1.125 0 0 0 .037-.15l.003-.02.007-.04a2.43 2.43 0 0 0 .014-.137v-.001l.004-.051a3.27 3.27 0 0 0 .005-.225l-.003-.071a5.6 5.6 0 0 0-.007-.194l-.009-.113-.016-.191-.016-.142a8.097 8.097 0 0 0-.049-.37 8.741 8.741 0 0 0-.035-.23l-.03-.182-.047-.263-.036-.197-.06-.302-.043-.206c-.025-.12-.053-.248-.082-.376l-.04-.181a47.87 47.87 0 0 0-.142-.614l-.006-.027-.001-.005-.017-.086v-.006a2.684 2.684 0 0 1-.021-.13l-.002-.011a5.198 5.198 0 0 1-.019-.17l-.001-.014a4.386 4.386 0 0 1-.013-.196v-.022a5.084 5.084 0 0 1-.002-.218l.001-.024v-.008.008c.003-.075.008-.153.016-.231 0-.01.002-.019.003-.028.009-.078.021-.158.037-.238l.006-.028c.017-.08.039-.159.064-.238l.01-.028a2.04 2.04 0 0 1 .096-.23c.004-.01.01-.017.014-.026a1.63 1.63 0 0 1 .134-.217l.017-.021c.052-.07.111-.135.178-.197l.018-.014a1.58 1.58 0 0 1 .231-.17l.017-.01c.088-.05.185-.095.292-.132l.01-.003c.109-.037.228-.067.358-.088h.008c.128-.02.27-.03.42-.032h.03c.085 0 .172.003.264.01h.007a4.7 4.7 0 0 1 .949.161c.137.04.264.084.382.135.354.15.625.348.836.574.139.15.252.315.344.486.092.17.162.35.218.531.057.182.098.366.131.547.016.09.03.181.044.269.039.267.066.52.103.745.009.051.013.109.017.17a3.284 3.284 0 0 1 .006.24l-.001.006-.006.222-.002.061-.01.217-.011.254-.003.063c-.003.09-.006.178-.007.268v.261l.002.062a4.495 4.495 0 0 0 .043.509l.008.058c.014.08.03.158.051.233.002.007.005.013.006.02a1.751 1.751 0 0 0 .091.244c.03.065.064.128.105.184l.015.02a.9.9 0 0 0 .124.138l.037.034a.86.86 0 0 0 .175.116c.009.005.019.007.028.011.058.028.123.05.193.066l.057.014c.081.015.167.025.262.026.037 0 .078-.004.117-.006l.106-.006c.042-.005.089-.013.134-.02.039-.007.077-.01.117-.02.048-.01.1-.024.15-.037.044-.01.084-.019.13-.032a5.43 5.43 0 0 0 .168-.055c.046-.016.09-.028.138-.046.062-.022.128-.05.193-.077a2.41 2.41 0 0 0 .145-.057c.07-.03.145-.067.22-.1.05-.024.097-.044.15-.07.083-.04.173-.088.262-.134a13.346 13.346 0 0 0 .576-.317c.304-.177.592-.34.863-.488a22.757 22.757 0 0 1 1.758-.876c1.103-.483 1.835-.658 2.444-.774l.322-.057c.208-.038.406-.073.606-.119a5.274 5.274 0 0 0 1.316-.493 27.269 27.269 0 0 0 1.523-.873c.076-.046.15-.094.225-.14l.266-.169.226-.146-.13.084.265-.173c-.045.03-.089.06-.135.089a33.979 33.979 0 0 0 .652-.44l-.129.089a22.57 22.57 0 0 0 .49-.348c.233-.17.435-.327.598-.464.14-.116.252-.22.327-.301l.016-.02a.415.415 0 0 0 .1-.156.218.218 0 0 0 .002-.042 3.172 3.172 0 0 0-.033-.264l-.042-.274a14.847 14.847 0 0 1-.096-.734c-.02-.208-.038-.432-.046-.665a8.208 8.208 0 0 1-.004-.478 6.529 6.529 0 0 1 .098-.98 4.79 4.79 0 0 1 .118-.48 3.46 3.46 0 0 1 .287-.676 2.499 2.499 0 0 1 .277-.404 2.494 2.494 0 0 1 .8-.642c.163-.084.341-.157.539-.215a21.01 21.01 0 0 1 1.698-.422c.723-.149 1.4-.25 2.02-.327.467-.057.902-.102 1.302-.14.266-.027.517-.05.751-.075a16.384 16.384 0 0 0 .937-.128c.09-.016.177-.035.257-.054.244-.06.51-.189.78-.37a5.95 5.95 0 0 0 1.072-.951 7.567 7.567 0 0 0 .706-.907c.418-.631.708-1.286.744-1.81a2.96 2.96 0 0 0-.014-.45c-.01-.11-.024-.23-.04-.354l-.025-.19a14.64 14.64 0 0 1-.052-.425 9.324 9.324 0 0 1-.036-.383c-.01-.15-.017-.3-.017-.452 0-.146.006-.293.022-.438a3.2 3.2 0 0 1 .13-.644c.238-.747.816-1.402 2.064-1.75l.17-.044a8.277 8.277 0 0 1 1.676-.21 27.914 27.914 0 0 0 2.763-.22c.27-.035.529-.074.776-.118.494-.085.94-.182 1.342-.29a8.78 8.78 0 0 0 1.508-.539c.27-.13.496-.264.683-.4.28-.205.469-.415.57-.619a.802.802 0 0 0 .093-.399c0-.013-.004-.03-.005-.044a2.048 2.048 0 0 0-.02-.173 1.861 1.861 0 0 0-.02-.097l-.032-.165-.036-.146-.038-.153-.044-.163-.046-.167-.06-.21-.08-.29-.056-.2-.047-.176-.05-.19c-.016-.059-.028-.114-.043-.172l-.044-.188a6.213 6.213 0 0 1-.035-.172 3.928 3.928 0 0 1-.036-.176c-.01-.055-.017-.108-.025-.162-.008-.056-.018-.112-.024-.165-.006-.051-.007-.098-.01-.146-.004-.051-.01-.105-.01-.153 0-.046.004-.085.006-.127.002-.046.003-.093.008-.135.006-.038.017-.07.026-.105.01-.035.014-.073.025-.104l.005-.008c.012-.03.032-.053.048-.08.016-.025.028-.056.047-.078l.008-.005c.02-.021.048-.033.073-.05.027-.018.051-.04.084-.052.029-.011.066-.012.1-.018.034-.006.062-.017.1-.017h.03l.4.016h.001l.288.01.09.004a1.309 1.309 0 0 0-.09-.003l.12.003c.13.005.262.008.396.011l.05.001.347.004h.06-.06.258l.279-.007.067-.003a7.3 7.3 0 0 0 .242-.012l.035-.002a5.816 5.816 0 0 0 .25-.023l-.046.006.046-.006.058-.007.055-.008a3.213 3.213 0 0 0 .179-.026l.008-.001h-.008a2.451 2.451 0 0 0 .197-.043.94.94 0 0 1 .044-.012c.039-.012.072-.025.107-.038.015-.006.033-.01.047-.017l.012-.004a.668.668 0 0 0 .122-.072c.009-.006.016-.013.024-.02.01-.007.02-.014.028-.022a.21.21 0 0 1-.028.022.303.303 0 0 0 .074-.084l.003-.004a.233.233 0 0 0 .022-.133.358.358 0 0 0-.035-.124 3.18 3.18 0 0 0-.2-.333c-.161-.242-.373-.522-.587-.826a11 11 0 0 1-.223-.327 5.77 5.77 0 0 1-.498-.894 2.594 2.594 0 0 1-.21-.766 1.487 1.487 0 0 1 .028-.502l.001-.002v-.001c.08-.351.256-.742.522-1.171a7.038 7.038 0 0 1 .22-.333 13.04 13.04 0 0 1 1-1.234 22.463 22.463 0 0 1 .345-.37c.362-.376.768-.774 1.22-1.191.447-.413.938-.846 1.472-1.298a6.99 6.99 0 0 0 .535-.51c.267-.28.534-.6.801-.95.355-.467.71-.99 1.064-1.552.177-.28.355-.572.532-.87a57.991 57.991 0 0 0 .797-1.392c.444-.795.888-1.62 1.333-2.445l.267-.495.535-.982c.147-.266.294-.53.441-.79.748-1.332 1.504-2.58 2.267-3.598.548-.731 1.267-1.48 2.085-2.226.136-.124.276-.248.417-.372.71-.62 1.48-1.233 2.272-1.828.158-.12.317-.237.477-.355a62.06 62.06 0 0 1 1.445-1.03c.32-.223.64-.441.954-.653a122.505 122.505 0 0 1 2.65-1.74c1.066-.686 1.942-1.242 2.463-1.615l-20.66-21.16-20.662-21.16zM62.876 110.3a.976.976 0 0 1-.007.255c-.013.075-.042.156-.064.234.022-.078.05-.159.064-.234a.976.976 0 0 0 .007-.255zm19.679 32.68zm1.317 5.842c.009.039.023.066.033.1-.005-.02-.012-.035-.018-.056-.005-.016-.011-.026-.015-.044zm80.319-26.266h-.048a.714.714 0 0 0 .048 0zM62.766 111.023c.007-.02.009-.038.016-.058.02-.06.03-.117.048-.176-.022.078-.037.154-.064.234zm52.26 1.369l-1.545 1.302 1.544-1.302zm78.183-20.625c-.511.365-1.238.832-2.157 1.423-2.787 1.792-7.976 5.127-9.94 7.744-1.094 1.459-2.262 3.625-3.392 5.719-1.828 3.387-3.553 6.587-5.649 8.363-2.367 2.006-3.264 3.122-3.597 3.635.145.23.343.501.47.677.282.39.574.794.797 1.242a3.317 3.317 0 0 1-.132 3.244c-.762 1.23-2.04 1.627-3.162 1.754.09.378.153.74.171 1.102.05 1.05-.35 2.09-1.123 2.928-1.601 1.737-4.82 2.697-9.564 2.855-.551.019-.9.082-1.106.136.012.244.054.567.083.79.065.496.131 1.01.093 1.567-.186 2.74-3.03 6.172-5.633 6.802-.669.161-1.397.233-2.24.315-1.225.12-2.743.268-4.446.753-.063.238-.122.806.076 2.08.068.438.132.852.041 1.388-.236 1.402-1.3 2.244-2.667 3.199a32.065 32.065 0 0 1-3.212 1.964c-1.188.628-2.092.79-2.817.918-.846.15-1.804.322-4.38 1.827-1.63.95-2.944 1.393-4.138 1.393-1.175 0-2.246-.444-3.016-1.25a4.095 4.095 0 0 1-.12-.133c-.1.19-.217.37-.353.542a3.342 3.342 0 0 1-2.639 1.28c-1.428 0-2.44-.862-3.11-1.433a9.062 9.062 0 0 0-.474-.383 4.583 4.583 0 0 0-.193-.008 5.2 5.2 0 0 1-1.257 1.016c.549.28 1.208.623 1.973 1.094 2.743 1.693 3.95 3.623 3.584 5.737-.244 1.415-1.279 3.26-4.822 4.018a11.13 11.13 0 0 1-2.316.265c-2.927 0-4.532-1.486-5.363-2.734a7.41 7.41 0 0 1-.275-.447c.332 1.952.115 3.562-1.177 5.187-.106.134-.206.256-.3.37-.474.583-.573.703-.946 2.27-.561 2.36-1.79 5.496-5.967 5.496h-.022c-1.916-.005-4.583-.657-5.971-1.892-1.66-1.477-3.053-5.34-1.227-8.46.333-.571.408-.845-.257-2.794a.047.047 0 0 0-.004-.011c-1.135-.944-1.893-2.036-2.4-4.77-.509-2.732-1.69-4.365-2.596-4.565-3.528-.78-4.666-2.509-5.216-3.74-.316-.71-.344-1.404-.376-2.21-.014-.35-.041-1.037-.114-1.378-1.247-1.664-1.21-3.997-1.186-5.567.003-.2.006-.429.003-.525-.018-.466-.277-1.4-.507-1.709-2.168-1.643-2.074-3.42-1.983-5.142.02-.385.044-.816.056-1.341-.151-.33-.843-1.313-2.631-2.66-1.581-1.19-3.045-1.928-3.47-2.056-2.706-.536-4.17-2.54-4.6-4.1l-.189-.68.073-.395a.965.965 0 0 0-.17-.163c-2.39-1.877-3.101-3.611-3.296-4.27a3.74 3.74 0 0 1-.093-.4 4.22 4.22 0 0 0-.43-.28c-1.91-1.11-2.531-2.629-2.716-3.708-.202-1.178.035-2.19.208-2.929l.051-.222c-.288-.543-1.348-1.896-3.992-3.792a61.798 61.798 0 0 0-1.986-1.352c-2.797-1.851-5.438-3.598-7.272-8.465-1.416-3.757-5.792-6.272-8.153-7.166-3.377-1.278-4.59-4.213-5.313-5.966-.175-.421-.339-.82-.475-1.06-.142-.25-.537-.854-.956-1.493-2.044-3.115-5.848-8.916-7.98-15.038-.985-2.83-1.837-3.757-2.257-4.058-.403-.288-.87-.34-2.008-.406-.433-.025-.925-.053-1.444-.117-3.676-.45-5.41-3.084-6.34-4.499-.169-.255-.378-.573-.479-.687-.445-.502-2.427-1.818-3.492-2.525-.757-.503-1.472-.978-2.043-1.393-2.98-2.163-2.157-5.08-1.847-6.178.038-.136.09-.319.102-.391.1-.877.272-2.112 8.07-11.374l.8-.95 1.236-.124c5.828-.581 12.081-2.929 14.654-4.273.691-.36 1.256-.69 1.754-.98 1.378-.805 2.679-1.565 4.562-1.565.59 0 1.208.075 1.892.23.196.044.368.066.511.066.468 0 1.009-.298 2.324-1.089.37-.223.79-.475 1.252-.74 1.406-.807 3.114-1.216 5.077-1.216 1.739 0 3.357.316 4.427.524.257.05.48.093.643.12 1.498.17 17.23.914 27.656 1.406 6.301.298 11.278.533 12.536.61 1.688.104 3.57.401 4.725 1.821.74.91.88 1.891.865 2.629.07-.04.143-.082.22-.129.52-.305 1.304-.765 2.413-.765 2.173 0 3.616 1.77 5.143 3.643 2.469 3.029 3.054 4.61 2.612 7.05-.076.418-.121.67-.055 1.19.01.078.023.123.03.144.258.237 1.329.483 1.909.616.457.105.928.213 1.394.357 2.743.399 25.685.692 39.662.784l1.276.01.89.912 41.323 42.319 2.489 2.55-2.897 2.072zm2.158-6.33l-41.322-42.32-1.604-1.643-2.297-.015c-14.463-.096-35.826-.388-39.187-.745a22.766 22.766 0 0 0-1.24-.312c.293-2.758-.599-4.937-3.246-8.184-1.736-2.13-3.703-4.544-7.038-4.544a6.24 6.24 0 0 0-.983.077 6.354 6.354 0 0 0-.618-.91c-1.987-2.443-5.13-2.635-6.472-2.718-1.276-.078-6.26-.314-12.572-.612-9.555-.451-25.462-1.203-27.443-1.388a42.91 42.91 0 0 1-.503-.096c-1.163-.226-2.92-.568-4.894-.568-2.396 0-4.513.518-6.294 1.54-.484.278-.915.536-1.295.765-.411.247-.9.541-1.203.697-.8-.17-1.54-.253-2.263-.253-2.546 0-4.273 1.008-5.796 1.897-.498.29-1.013.591-1.653.926-2.41 1.259-8.28 3.46-13.765 4.006l-2.224.222-1.44 1.71c-.075.09-1.88 2.235-3.732 4.563-3.863 4.852-4.649 6.277-4.876 7.947l-.048.167C1.15 46.39.8 47.631.964 49.171c.223 2.098 1.345 3.979 3.16 5.296.612.445 1.349.934 2.128 1.452.876.581 2.47 1.64 3.012 2.119.073.104.182.27.267.4 1.067 1.62 3.287 4.993 8.086 5.581.597.073 1.13.104 1.601.132.256.015.58.034.8.058.21.276.693 1.034 1.297 2.768 2.23 6.408 6.142 12.371 8.244 15.576.34.518.763 1.163.872 1.355.068.124.227.509.343.79.818 1.98 2.341 5.667 6.708 7.32 2.14.81 5.7 3.007 6.73 5.74 2.113 5.608 5.213 7.659 8.211 9.643.616.407 1.253.828 1.911 1.3 1.492 1.07 2.337 1.873 2.791 2.373-.144.802-.243 1.833-.044 2.996.36 2.094 1.583 3.903 3.464 5.14.399 1.061 1.288 2.702 3.255 4.43l.155.562c.606 2.193 2.61 4.992 6.275 5.806 1.111.45 3.4 2.064 4.31 3.082-.007.172-.016.335-.024.49-.095 1.802-.236 4.462 2.422 6.792.029.107.054.224.065.312 0 .09-.001.245-.003.363-.026 1.648-.067 4.26 1.272 6.476.013.204.022.436.03.605.036.924.078 1.97.585 3.108 1.163 2.604 3.324 4.262 6.602 5.059.25.296.749 1.139 1.038 2.697.494 2.653 1.27 4.326 2.687 5.705.055.173.098.318.13.435-1.072 1.98-1.344 4.336-.762 6.669.464 1.863 1.417 3.542 2.614 4.607 1.938 1.725 5.209 2.503 7.59 2.51h.028c2.301 0 4.222-.742 5.71-2.203 1.644-1.615 2.292-3.725 2.637-5.172.152-.64.25-.954.298-1.088l.164-.202.32-.395a8.74 8.74 0 0 0 1.132-1.836c1.134.496 2.403.754 3.767.754.886 0 1.836-.108 2.828-.319 5.33-1.142 6.475-4.572 6.72-5.994.259-1.497-.015-3.022-.773-4.406a5.735 5.735 0 0 0 1.159-.626c.86.394 1.813.6 2.81.6 1.645 0 3.35-.549 5.37-1.728 2.201-1.285 2.899-1.41 3.575-1.53.8-.142 2.007-.357 3.532-1.164a34.615 34.615 0 0 0 3.47-2.122c1.295-.904 3.252-2.271 3.678-4.796a6.011 6.011 0 0 0 0-1.934 33.355 33.355 0 0 1 2.156-.26c.895-.087 1.74-.17 2.575-.373 3.664-.884 7.238-5.18 7.5-9.012.006-.097.01-.194.014-.289 4.709-.332 7.934-1.504 9.836-3.566 1.023-1.108 1.63-2.46 1.753-3.875a5.787 5.787 0 0 0 2.643-2.28c1.055-1.705 1.146-3.807.243-5.622a7.686 7.686 0 0 0-.38-.677 32.236 32.236 0 0 1 2.102-1.922c2.447-2.074 4.28-5.471 6.22-9.067 1.086-2.015 2.211-4.1 3.196-5.412 1.7-2.266 6.836-5.567 9.305-7.154.949-.61 1.697-1.091 2.258-1.492l5.214-3.732-4.479-4.588z" fill="#16243A"/></g></svg>