<svg width="200" height="200" xmlns="http://www.w3.org/2000/svg"><path d="M105.854 4.026c-.2.557.132 1.003.2 1.404-.22.044-.32.37-.4.401-.727.245-1.656-.188-2.408 0-.402.095-.971.916-1.404 1.003-.928.183-1.424-.426-2.207.201-.376.289-1.192 2.84-1.405 3.41-.219-.119-.376.089-.602 0-.225-.087-.52-.689-.802-.802-1.837-.745-1.768.765-2.608 1.405-.307.225-.835.225-1.204.4 0 0-.15-.595-.2-.802.238-.219.909-.464 1.003-.802.056-.226-.094-.595 0-.803-.176-.138-.357-.12-.402-.4-.37 0-.846.08-1.204 0-.2.275-.727.676-.802 1.002-.038.138.088.464 0 .602-.15.213-.935.376-1.003.602-.301.91.2 1.598.401 2.207h-.401c-.294.094-.884 1.147-.803 1.605.025.163.54.482.602.602.07.138.095.709.2.802.164.144.465.019.603.201-.357.758-.326 1.09-.602 2.006-.106-.07-.495 0-.602 0-.527-1.116-.658-.702-.401-2.407-.2-.095-.627-.559-.803-.602-.602-.163-1.423.169-2.006 0-.2-.063-.314-.727-.602-.803-.219-.062-.965.157-.802.2-.245.427-.54.841-.803 1.405-.03.063-.382.144-.401.201-.131.326.037.971-.2 1.204-.37.338-1.016.087-1.405.401-.288.219-.834 3.128-.401 3.41.62.401.984.02 1.404-.2.313-.17.145-.389.2-.803l.602.201c-.112.602-.156.72-.2 1.405-.22.043-.32.369-.401.4-.609.207-1.58-.156-2.207 0l-.2.402c-.327.206-.615.013-1.004.2.22-1.072.326-1.692.602-2.608-.376-.157-.1-.019-.2-.4-.966-.076-1.813-.39-2.408.4-.784 1.023-.495 2.057 0 3.01-.402.482-1.097 1.047-1.204 1.806-.037.238.12.79 0 1.003-.044.062-.909.175-1.003.2-.063.389-.05.89-.2 1.405.037.006.72.132.802.2.22.182.194.84.401 1.003-.439-.013-2.683.194-3.21.602-.501.377.263 2.42 0 3.21-.144.42-.783.846-1.003 1.204-.909 1.454-1.573 2.551-2.608 3.812-.176.207-.702.401-.802.803-.627 2.463.601 1.573 1.203 1.804.138.05.784.647 1.003.803-.37.784-1.279 2.025-.601 3.21.118.213.677.333.802.602.132.295-.282.144-.2.602.193 1.178 1.51 1.203 2.608 1.203-.12.045-.765.59-.803.602-1.937.571-1.65-.275-2.407 1.606-.897-1.185-1.568-1.467-3.411-1.806-.15.313-.37.388-.602.602.364.91.376 1.348.803 2.206-.32.214-.966.496-1.205.803-.225.276-.156.772-.4 1.003-.207.189-.559.044-.803.2-.257.158-.608.754-.802 1.005.08.137 0 .633 0 .801 1.015.258 1.134.37 2.407.201-.113.22.088.364 0 .603l-.402.2c-.432.658-.225 1.054-.4 2.006.125.07.727.295.802.401.564.777.859 1.436 1.404 2.207-.395.263-1.467.727-1.605 1.204-.106.345.1.653 0 1.004.527.137 1.455.319 2.007.6.119.058.42.552.602.603.35.087.645-.094 1.002 0-.119.458-.225.902-.4 1.605-.502.019-.565-.39-1.204-.201-.12.032-.414.508-.602.602.765 1.423-.094 1.035 2.006 1.204.194.533.413 1.147.602 1.605h.2c.157.846-.27 1.14-.2 2.007.05.72.683 2.168.802 2.808.082.464-.157.96 0 1.404.026.082.351.182.402.401 1.661-.589.501.346 1.604-1.003.22.107.364-.093.603 0 .056.02.47.571.601.602.865.195.99-.37 1.806 0 .884.401-.094.997-.201 1.404-.062.226.082.577 0 .803 1.48 1.06 2.026 1.674 4.213 1.605.113-.276.201-.74.402-1.002.15-.214.652-.227.802-.402v2.206c.05.245 1.166 1.605 1.404 2.007.54-.044 1.054 0 1.605 0 .063-.131.283-.778.402-.803 1.805-.407 2.288 1.555 3.21 1.806.57.15.897-.113 1.404-.2.195.237.295.896.602 1.002.213.07.596-.112.802 0 .038-.213.37-.319.402-.4.112-.345-.1-.659 0-1.004-.182-.038-1.079-.063-1.405-.2-.35-.157-.501-1.104-.802-1.204H89c-.106-.22.107-.596 0-.803.138-.219.484-.557.602-.802.264.238.822.275 1.003.601.1.189-.062.59 0 .803.082.308.627.552.803.802.383-.075.815.088 1.204 0 .69-.163.86-.965 1.805-1.003 1.085-.05 2.107.997 3.612.602 1.022-.276.77-1.592 1.404-2.006.702-.47 1.686-.119 2.608-.401.22-.076.564-.495.802-.601 0-.177-.08-.653 0-.804.107-.219.465-.137.603-.4.94.3 2.131.959 3.21.4.257-.137.388-.846.602-1.003.2-.163.576-.088.803-.2.194-.107.6-.703.802-.803.47-.25.946-.226 1.403-.401 0 0 .258-.94.202-1.204-.076-.307-.746-.577-.803-.802-.156-.59.257-.508.2-1.004.283-.206.408-.514.603-.801.784.106 1.673.35 2.406 0 .44-.22.308-.666.603-1.004.395-.47 1.31-.859 1.805-1.204-.087-.652-.288-1.31-.2-1.806.075-.451.802-.877 1.003-1.203.257-.433.188-.746.401-1.204-.068-.05-.577-.326-.602-.401-.093-.232.113-.388 0-.602 1.599-1.135 1.9-1.742 0-2.81 1.192-.62 2.226-1.253 3.41-1.804-.093-.263 0-.721 0-1.003-.237-.114-.582-.533-.801-.603-.804-.25-1.299.025-1.806-.401-.213-.181-.12-.665-.2-1.002-.446.156-.308-.559-.402-.804.031 0 1.123.076.803.201 1.291-.15 3.542-.307 2.406-2.006-.106-.157-.751-.244-.801-.4-.126-.396.357-.967.2-1.607-.132-.507-.877-.607-1.004-.802-.413-.627-.595-.808.2-1.203-.1-1.373-.168-1.317.604-2.006.043-.045.539 0 .602 0 .031-.226.018-1.148.2-1.405l1.203-.602c-.275-.84-.601-1.649-.401-2.207.05-.162.57-.651.603-.802.075-.464-.276-.295-.202-.603-.232.05-.783.202-.802.202-.501 1.686-.314 2.269-1.404.802-.533.063-.47.257-.803.4 0 0-.03-1.259 0-1.603 1.606-.37 1.004-.095 1.805-1.204.176.125.39-.082.603 0 .206.08.25.695.4.802.93.658 2.177.207 3.01 0-.094-.388.108-.827 0-1.203-.069-.233-.732-.703-.802-1.004-.058-.225-.114-1.103.2-1.003v-.401c-.044-.126-.576-.54-.601-.602-.05-.12.05-.496 0-.602 1.485-.652 1.68-.765 2.407-2.207l.402-.4c.062-.44-.351-.772-.202-1.405.075-.351.74-.784.803-1.204.057-.446-.338-.934-.2-1.605.081-.401.909-1.078 1.002-1.405.12-.438-.074-.96 0-1.404-1.316-.771-1.254-.445-1.403-2.407.326-.208.118-.177.2-.602h.4c.02.401-.036 1.009 0 1.605.038-.007 1.117-.038.803-.2.076-.24.401-1.03.603-1.205.024-.031.006-.564 0-.601-.083-.327-.596-.721-.803-1.004.163-.263.458-.564.601-.802.14-.245.559-.84.603-1.003.213-.953-.389-1.75-.401-2.207-.032-.803.488-1.216.401-2.207l-.401-.602c-.458-2.22-.101-1.875-2.208-2.407-.093.4-.307 1.146-.401 1.605-.388.1-.25-.176-.4.2-.703-.032-1.593-.169-2.007-.2.088-1.536-.013-2.089-.401-3.411-.583-.131-1.574-.684-2.407-.401-.152.044-.39.495-.602.602 0 .463.068.933 0 1.404h-.402c-.201-.42 0-.64-.201-1.003-.282-.496-1.292-.928-1.404-1.605-.194-1.135.552-1.166.402-2.207-.045-.282-1.756-2.558-2.007-2.608-1.11-.239-1.273.514-1.805.802-.653.339-1.41.52-2.007.803.326 1.316 1.098 3.768-1.404 3.21-.884-.2-.64-.81-1.004-1.605-.062-.131-.576-.27-.6-.402-.183-.922.488-1.724 0-2.608-.29-.514-1.01-.357-1.606-.602-.044.113-.564.282-.602.402zM46.068 29.305c-.289.281 0 1.015-.2 1.404-.189.351-1.248.865-2.007.602 0 0-.376-1.073-1.003-1.204-.583-.125-1.335.188-1.605.2l-.2 1.606-1.003 1.204.601.2c.389.595.439.834.803 1.605-.213-.1-.583.075-.803 0-.69-.238-1.435-2.27-2.206-2.608-.979-.439-2.665-.39-3.812-.603-.207.283-.515.408-.803.603.006 0 0 .571 0 .602.25.063.32.502 0 .4-.044-.011-.17-.337-.2-.4-.559 0-1.255.018-1.806 0-.238 1.317-.803 1.918-1.405 2.809-.244-.188-.564-.019-.802-.2-.082-.064-.382-.747-.401-.803 1.347-.377-2.264.075-.803.2-.326.094-.558.006-.802.2l-1.204 1.405c-.313.558-.15 1.63-.803 2.007-.3.168-1.166.156-1.404.2-.984 2.582-.846.871-2.408 1.604-.257.114-.376.815-.601 1.004-.207.157-.583.081-.803.201l-.2.4c-.878.565-1.706.37-2.609.402-.119.282-.194.865-.401 1.204-.345.54-1.066.445-1.605.803-.69.444-2.326 3.047-2.809 3.21-.063.018-.846-.226-1.203-.202-.74.045-2 .44-2.609.603 0 1.052.088 1.774.201 2.608-.464-.12.07.226-.401.2l-.401-.401c-.677-.182-1.448.47-1.605.802-.333.697-.05 1.317 0 2.006.345 0 .871-.106 1.204 0-.183 2.295.062 2.327-2.007 2.207-.056.132-.495.509-.602.602.232.791.176 1.154.402 2.007-.088-.013-.866.15-1.204.2 0 0 .088-1.04-2.006.401.295 2.214-.734 2.979-.402 5.417-.59.339-1.266.853-1.805 1.204.069.351-.076.646 0 1.003.1.502.727 1.166.802 1.806.075.696-.006 1.292-.2 1.806a8.123 8.123 0 0 1-.402.201c-.225 1.24.276 2.72.402 3.811.244.082.514-.012.602.2.087.214-.113.59 0 .803-.145.17-.684.401-.803.602-.652 1.053-.031 2-.2 3.21 0 0-.358.176-.402.2v.402c-.056.313-.25.985 0 1.605.05.125.49.288.602.401v.402c2.075.144 2.094.163 3.21-1.204.15.05.576.213.602.2-.088.283-.377.665-.401.803-.063.295.2 1.204.2 1.204.088.062.565.288.602.4.15.465-.044 1.111 0 1.606-1.837-.853-3.034-.677-2.207 1.605.1.282-.019.458.201.602.364.231.921-.013 1.404.2.125.057.47.778.602.803 1.292.238 1.812-1.072 2.207-1.806.226.113.552.389.803.402-.696 1.391-.42 1.185 0 2.407-.044.018 0 .552 0 .602-.107-.294-.22.52-.201.602.257 1.191 1.906 1.078 3.01 1.003-.063.1.037.482 0 .602-.214.539-1.53 1.116-2.007 1.404.119.339-.125.659 0 1.003.07.201 1.173 1.147 1.404 1.204.828.2 2.301-.326 2.809-.602.188-.106.52-.759.803-.802.639-.106.865.25 1.404.401-.013 0 0 .571 0 .602-2.502.276-3.16.896-1.806 2.809 1.072-.276 1.33-.132 2.408-.402.081.658.263 1.957.803 2.207.363.163.99-.057 1.404 0 2.132.289 2.181 1.21 3.61-.802 1.029.113 1.662.288 2.408 0l.402-.401c.67-.094 1.36.363 1.805.4.57.038.772-.2 1.204-.2.125-.507.226-.947.401-1.605-.32-.256-.646-.382-1.003-.602v-.401c.665-.313 1.417-.808 2.006-1.003.69-.233 1.762-.326 2.408 0l.401.401c1.034.15 1.549-.496 2.207-.602.452-.082 1.185.176 1.605 0 .614-.269.577-1.517 1.003-2.006.445-.527 1.455-.77 2.007-1.204-.189-.489.601 0 .601 0 .282 1.824-.025 1.517 1.806 1.806.3-.57.796-1.787 1.605-1.806.35-.012.113.276.602.2.1.283-.107.716 0 1.004.038.107.501.395.602.602.22-.088.57.057.802 0 .627-.176.965-1.63 1.204-2.207 2.244-.094 1.78.113 2.608-1.404.897.12 1.36.056 2.207 0 .044-.22.37-.32.401-.402.15-.439-.15-.965 0-1.404.12-.357.966-.696 1.204-1.003.257-.345.294-.935.602-1.204.59-.532 1.51-.558 1.806-1.404.15-.445-.088-.94 0-1.405.037-.238.576-.965.601-1.203.15-1.53-.733-1.668-1.605-2.207-.263.35-.533.658-.802 1.003.501.094-.602.401-.602.401.188-1.084-.157-1.053 1.003-1.806.464-.306.765-.276 1.204-.602.131-.106.244-.532.4-.601.684-.332 1.518-.025 2.208-.402.32-.181.15-.808.401-1.003-.313-.577-.075-.664-.602-1.003-.3-.194-.62-.238-1.003-.401.213-.144.357-.708.602-.803.577-.231 1.16.057 1.605-.2.395-.239.132-.627.4-1.003.17-.251.848-.37 1.004-.602.182-.289.915-2.451.803-3.01-.07-.32-.696-.577-.803-.802-.22-.47-.044-.79-.2-1.405.263-.011.294-.376.4-.4.427-.114.578.344.803.4 1.217.276 1.473-.439 2.007-.802-.1-.859-.232-1.919-.201-2.608-.953-.483-1.348-.182-1.404-1.605-.063-1.38.683-1.292.802-1.806.094-.42-.194-1.122-.2-1.204-.151-1.768.488-1.95 0-3.611.27-.1.72 0 1.003 0 .601-1.285.526-.758.2-2.207-.27-.081-.633-.05-.802-.2-.445-.413-.846-1.147-1.204-1.605.865-.69 1.48-1.373 2.407-2.006-.106-.351.1-.659 0-1.004-.037-.119-.557-.595-.601-.802-.188-.872-.088-1.43-.201-2.207.226.006 1.09.15 1.605.2 0 0 .238-.927.2-1.203-.018-.1-.958-2.564-1.003-2.609-.2-.187-.796-.269-1.003-.4.295-.929.978-2.596-.2-3.01-.345-.125-.665.12-1.003 0-.145.377-.245.721-.402 1.004-1.003 1.748-.175.113-1.003.4 0-.364.088-.858 0-1.204.063-.037.389-.162.401-.2.088-.295.2-.25.402-.4-.163-.44-.345-.898-.402-1.204-.357.168-1.617.695-2.006.601-.044-.012-.501-.576-.602-.601-.232-.063-.583.08-.802 0-.157.15-.627.94-.803 1.003-.219.068-.601-.113-.802 0 .702 0-.395-2.596-.401-2.608 1.028-.383 1.072-.502 1.805-1.004-.094-.35 0-.846 0-1.203-.878-.17-1.053-.289-2.207-.201-.257-.527-.194-.464-.601-.803-.615.377-.696.627-1.605 1.004-.233 2.037-.107 2.012 1.605 2.006-.414.833-.339 1.147-.602 2.207-.502-.665-1.229-1.418-2.007-1.806h-.2c-.345-.696-.094-1.674-.2-2.407.425-.082.376 0 .601-.201.295-.276.978-.483 1.204-.803.094-.137.163-.84 0-.601-.063-.032-.288-.747-.401-.803-.953-.496-2.401.194-3.21 0-.571-.145-.865-1.424-1.405-1.605h-.4c-.114.187-.465.056-.603.2zm124.387 2.608c-.226.345-.093.539-.2 1.003-.917-.245-1.299-.163-2.207-.401-1.223 2.626-.784 1.886-3.812 2.006l-1.003.401c-.158.031-.357-.176-.201-.2-.283-.126-.727.118-1.003 0-.257-.113-.301-1.386-1.405-1.004-.025.006-.483.765 0 .602 0 0 .158.984.201 1.204-.921.652-.777.42-1.404 1.405-.596-.176-.809-.138-1.204-.402-.76-.507-.357-.947-.2-.802.068-.446.589-.427.4-1.204-.05-.188-.695-.439-.802-.602-.169-.25-.106-.483-.2-.802-.07.012-.709-.152-1.004-.201-.08.996-.163 2.025 0 3.21-.489.05-1.743-.02-2.406.2-.29.088-.917.965-1.205 1.204-.25-.112-.746 0-1.003 0-.094-.326-.131-.683-.2-1.203-.564-.145-1.38-.684-2.407-.402-.127.031-.54.576-.603.602h-.401c-1.455 1.417.796 1.737 1.605 2.206.25.145.552.647.802.804-.333.225-.552.37-.802.602-.878-.622-1.855-1.355-3.411-.803-.339.112-.665.708-1.003.803-.383.1-.821-.077-1.203 0-.207-.797-.647-2.377-1.605-2.408-.314-.012-.59.314-1.003.401-.051.213-.377.314-.402.402-.188.532-.163 1.41-.2 1.804-1.467.377-2.465.803-4.214 1.004-.294.79-.488 1.323-.802 2.006h-.402v-.4c-.338-.966-1.317-.547-2.005-.402-.258 1.53-.652 1.843-1.204 3.01-1.711-.571-1.33-.54-2.61 0 0 .363.083.84 0 1.202l.603.201c-.007 0 0 .571 0 .603-1.016-.152-1.58-.032-2.408 0-.075.45-.557.394-.4 1.203.007.044.633.784.602.803-.571.238-.853 1.604-1.004 2.206-1.661.42-2.44.37-3.61 1.205.068.45-.157.971 0 1.404.136.375 1.14.67 1.404 1.002.313.396.383 1.342.802 1.605.458.29.896-.062 1.204 0 .043.007.212.37.401.402-.006.013-.358 1.192-.201 1.203-1.335-.15-1.73-.13-3.009.201.088-.94.32-2.295-.602-2.608-.225-.081-.596.094-.803 0-.05.213-.375.313-.4.402-.32.927.432 1.303.2 2.206-.131.483-2.865 2.734-3.41 3.41.238.226.093.377.2.804.482.125 1.298.5 1.806.601-2.308.571-3.442 1.392-2.409 3.611-.695.496-2.419 2.358-2.206 3.612.044.276.733.602.803.803.075.219-.1.589 0 .802-.44.25-2.709 1.93-2.809 2.207-.139.357.081.821 0 1.203.088.02.652.113.802.201.151.088.083.527.201.603-.32.538-1.254 1.254-1.404 1.804-.233.835.376 2.345-.402 2.609-.45.144.602 1.203.602 1.203v.201c.138.069.52.696.602.803.207.288.345.376.602.601-.426.622-1.455 1.668-1.003 3.01.044.144.495.383.602.602.558-.094.996-.188 1.404-.2v2.005c.044-.439.012 2.101.201 2.408.125.206.965.232 1.203.401.139.1.213.684.402.803.458.282 1.373.458 1.805.601 0 .521-.182 1.518 0 2.007.214.59 1.173.539 1.806.802.2-.295.571-.508.802-.802.183-.245.264-.564.402-.803.163.483.594 1.894 1.003 2.207.702.545 1.441.326 2.408.2-.088.139.031.452 0 .603-.057.213-.835.833-1.004 1.003.182.256.289.745.402 1.003.658 0 1.229-.088 2.005 0 .314.032.803.577 1.606.401.175-.044.627-.746.802-.802.22-.082.582.087.803 0 1.147 1.623.401 1.712 2.809 2.207.67-.96 1.278-3.004 3.21-2.609.113.019.588.753.802.803.746.156 1.16-.433 2.007-.2.194.05.42.689.6.802.32.195.647-.007 1.005.2.2.112.231.683.4.802.345.245 2.828 1.223 3.611 1.004.346-.106.559-.897 1.004-1.004 1.072-.27 1.568.458 2.609.202.707-.182 1.158-1.568 1.403-2.207 2.746.37 1.838.062 3.412-1.003.319-.226.707-.182 1.003-.402.174-.138.393-.74.6-.802.816-.27 1.769.206 2.609 0 .351-.094.715-.621 1.004-.803-.064-.332-.214-.903-.2-1.003-.478-.219-.992-.596-1.406-.802.671.05 1.6.263 2.006.2.71-.113 2.489-1.485 2.608-2.207.1-.652-.92-1.448 0-1.805.49-.195 1.274.08 1.807 0 .47-.076 1.378-.646 1.805-.803-.095-.263 0-.721 0-1.003-1.367-.645-1.63-.695-3.01.2l-.2.402c-.71.119-.571-.37-1.003-.401.05-.307.207-.934.2-1.003 1.586.15 2.358.15 3.21-.803 1.517-1.705.659-2.194-1.204-2.809.107-.225-.094-.37 0-.602.082-.225.722-.582.802-.802.076-.226-.093-.59 0-.803h.402c.039.02 0 .728 0 .803.264.132.47.132.602.401 1.073-.357 2.884-1.072 3.01-2.207.175-1.718-1.912-1.674-3.01-1.605.47-1.147.615-1.768.401-3.21.476-.175.697-.093 1.203-.2.045-.22.37-.32.402-.402.364-1.066-.05-1.015.602-1.805.25-.314.69-.533 1.003-.803-.05.176-.388.697-.402.803-.1.664.377.834.203 1.404-.07.2-.841.652-1.004.803.087.257 0 .715 0 1.003.984.188.884.903 2.006-.2.357-.365.2-.665.401-1.205.188.12.589-.087.802 0 .157.063.34.84.402 1.003.796-.382 1.83-.476 2.206-1.203.089-.182.615-2.853.603-3.01-.031-.332-.546-.64-.402-1.404 0 0 .91-1.586 1.004-1.806-.696-.188-.86-.444-1.605-.602.106-.068-.113-.539 0-.601.294-.176.696-.132 1.003-.201-.014-.226-.132-1.21 0-1.605.05-.169.65-.482.802-.602-.47-.996-.59-1.573-1.003-2.608.432-.207.81-.138 1.204-.401.157-.112.414-.734.602-.803.633-.257 1.234-.012 1.805-.2.37-.132.62-.608 1.204-.602 1.235.012 1.492 1.279 1.806 2.206.181-.106.67-.407.802-.4-.082-1.08.056-1.511.2-2.408.039-.239-.188-.514-.2-.402v-.6c.69-.546 1.31-1.066 2.007-1.606-.076-.39.099-.828 0-1.204l-.402-.4s-.182-.364-.2-.403c-.652.095-1.386.396-2.007.2-.1-.03-.438-.526-.601-.601.47-.764.595-1.034 1.203-1.605-.27-1.053-.971-4.025-.802-5.015.124-.784 1.366-1.38 1.605-2.007.577-1.586-.495-5.222-1.405-5.617-.953-.414-2.063.239-3.009-.201-.3-.144-.201-.727-.401-1.002-.414-.571-1.254-.383-1.806-.803-.64-.483-1.323-2.947-2.007-3.21-.212-.082-.425.125-.601 0-.364 2-.294 1.919-2.207 2.408-.145-.264-.194-.71-.401-1.004-.157-.22-.94-.395-1.004-.601-.23-.753.434-1.148.201-2.007-.087-.302-.784-.608-1.004-.803 0 0 .183-.375.203-.401.488.038 1.134-.157 1.604 0 .401.132.695 1.072 1.204 1.204 2.545.646 2.012-1.229 1.003-2.006-.677-.527-1.267-.74-2.007-1.205l-.4.202zm-9.229 26.081c-.018-.006-1.422.332-2.005.4.03.196-.189.722.2.603.226.282.395.664.602 1.004 1.128-.177 1.034.375 1.805-.804l.4-.2c.045-.163-.118-.834-.2-.602-.338-.131-.137-.376-.802-.4zM95.422 85.28c.006.106 0 2.608 0 2.608-.1.15-.508.244-.602.401-.088.132-.095.91-.201 1.003-.3.244-.502.106-1.003.201.25.131-.477.238-.602.2-.094-.031-.194-.338-.401-.4.138-1.054.401-2.227-.602-2.609-.401-.157-.464.283-1.003.2-.17-.03-.64-.57-.803-.601-1.586-.344-2.27.715-3.01 1.204-.2-.132-.388.082-.601 0-.307-.119-.52-.872-.803-1.003-.708-.339-2.482-.194-3.21.2-.958.514-.451 2.664-1.002 3.611-.088.145-1.386 1.192-1.605 1.405-.232-.22-.985-1.141-1.204-1.204-2.095-.602-3.38 2.984-4.414-.802-.113-.013-.771-.308-1.204-.201l-.2.401c-.665.427-1.216 1.298-.201 1.806.17.082-.282.22-.2.401-.44.113-.966.483-1.405.401-.514-.107-.451-.99-1.605-.802-.282.044-1.68 1.372-1.805 1.404-.446.094-1.38-.132-2.007-.2l-.2.601c-1.587.414.131-.815.401-1.003-.056-.306-.213-.933-.2-1.003-.81-.125-1.048-.088-1.806-.2-.056.263-.239.27-.402.4.207.816.2 1.161.402 1.806-.508.232-1.185.126-1.405.602-.194.395-.17 1.518-.2 1.806-.408-.125-.402.32-.803.2-.263-.08-.414-.89-.802-1.002-1.047-.314-1.994-.063-3.01-.201-.163 2.019-1.097 3.323-2.006 4.614-.094-.07-.508 0-.602 0-.42-.89-.364-.714-.601-2.006-.34-.094-.314.15-.402-.2-.207.106-.59-.076-.802 0-.095.024-.195.325-.402.4 0 .007.02.941.201.603-.05.193-.201.802-.201.802-.463.069-.972-.15-1.404 0-.289.095-.52.878-.803 1.003-1.467.64-2.746-.207-3.812-.602-.426.577-.727.69-1.002 1.605.006-.156.075-1.348 0-1.605-.038-.12-.37-.15-.402-.4-.288.1-.72-.108-1.003 0-.157.05-.527.444-.802.6-.195-.124-.402-.695-.602-.802-.289-.15-2.37-.539-2.81-.4-.037.005-.162.363-.2.4-1.172 1.029-.564.785-.4 2.007l.2.802c.006-.006.94-.025.602-.2.231 0 .564.012.802 0 0 .062-.031.79 0 .802-.476-.094-.332.288-.802.2-.164-.03-.64-.77-.803-.802-.62-.131-2.77.545-3.21.803-.2.113-.056.457-.2.602-.245.231-.69.2-1.004.4-.131.076-.276.552-.401.603-.119.044-.495-.063-.602 0-.144-.37-.3.006-.401-.2-.082-.165 0-.628 0-.803-.351-.082-.113-.076-.2-.402-.352 0-.878.1-1.204 0-.446.62-.94 1.46-1.605 1.806-.972.495-3.26.609-3.812 1.404-.213.295.006.502-.201.803-.351-.126-.157.225-.2.401-.514-.156 0 .602 0 .602.526.157.652-.214 1.203-.2 0 .024-.006.595 0 .601-.495.144-.451.063-1.003.2.301.208-.564.188-.602.202l-.2-1.004c-.138-.082-.947.107-1.003 0-.17-.332 0-1.223 0-1.605-2.151-.476-1.461-.345-2.408 1.405-.038.062-.602.583-.602.6-.163.716.295 1.35.2 1.807-.05.213-.532.402-.601.601-.245-.106-.734 0-1.003 0 .031-.564.088-.795.2-1.403-.175-.138-.357-.12-.401-.401-.382.019-1.404.2-1.404.2-.013.013-.57.163-.602.2-.282.27-.125 1.123-.401 1.404-.402.397-1.192.24-1.605.603-.138.113 0 .514-.2.602-.283.107-.728-.113-1.004 0 .207-.1-.401-.401-.401-.401.037-.063.4-.603.4-.603.716-.218 1.418-.105 1.807-.601.037-.05.4-.602.4-.602.07-.3-.2-1.204-.2-1.204-1.9 0-2.997.226-4.012 1.605-.17.22-.17.697-.402.802-.614.27-1.316-.087-1.805.201-.257.145-1.016 2.533-.803 3.21.044.138.502.39.602.602.364 0 .84-.088 1.204 0-.025.038-.244.39-.201.402-1.536.269-1.586.607-2.206 1.805-2 0-2.314.162-2.809 1.605v.402c-.408.326-1.179.099-1.606.4-.983.684-.2 3.492-.2 5.216.871.24 2.113.646 2.408 1.406.081.213-.132.4 0 .6-.47.327-3.123 2.684-3.21 3.01-.188.64.144 1.06.2 1.605.263-.013.665.3 1.204.201.426-.087.527-.62.802-.803.007 0 .89.313.602.402.126.094.533.262.602.401.226.45.044.79.2 1.405-.275.049-.294.382-.4.602-.22-.107-.458-.558-.602-.602-.427-.145-.966.062-1.405 0-.213.65-.903 1.849-.802 2.608.013.125.564.513.601.602.302.676-.056.689 0 1.403-.256-.13-.162.309-.601.202-.05-.013-.226-.358-.401-.402.796-.3-1.123-.3-.603-.2l-.2.802c.803.489 2.264.84 2.809 1.605.3.427.207 1.078.602 1.404.627.52 1.404.213 1.605 1.204.225 1.148-.57 1.48-.401 2.408.087.507 1.002.796 1.203 1.203.15.32.383 1.442.402 1.605.08.903-.233 3.148.2 4.213h.2c.602.302 1.041 1.411 1.606 1.605h.401c.1.089.063.528.2.602.446.226.94-.057 1.405.2.37.207 1.994 2.496 1.204 3.21.996.784 3.015 1.3 2.808 3.21-.006 0-.526.828-.601 1.004.25-.131.157.307.601.2.22-.056.276-.582.402-.802.156 0 .664.082.802 0 .42.408 2.05 1.63.602 2.006-.144-.174-.401-.733-.602-.801-.226-.083-.596.093-.802 0-.1.194-.445.463-.602.6 0 0 0 .734.2.403.138.457.088.33.201.801.401-.188.2 1.405.2 1.405 1.21-.395 1.643-.502 3.01-.401.031-.07.163-.396.2-.402.182-.05.985.15.803.202.301.513.652.951 1.003 1.404-.922.275-1.993.307-2.207 1.203-.031.1.05.508 0 .602-.125.2-.727.37-.802.602-.107.282.1.715 0 1.003.363-.175.67-.018 1.003-.2.37-.215.658-.935 1.003-1.204.677-.552 1.342-.853 2.006-1.405.464.677 1.016 1.624 1.605 2.207.245.245 1.072.49 1.204.803.232.582-.244.745-.2 1.203l.4.602c.295 1.467.082 1.104.603 2.208.219-.089.57.056.802 0 .552-.151 1.16-1.047 1.605-1.405 1.511 1.367 2.784 2.464 5.216 1.203-.131 1.192-.263 2.37.803 2.81.32.13.614-.058.802.2.138.188.509 1.58.602 1.806 2.276-.339 2.878-.063 4.414.802.307-.194 1.128-1.09 1.605-1.003 0 0-.157.972-.2 1.203.144.095 1.122.659 1.203.803.163.314-.081.853 0 1.204.075.345.96.978 1.003 1.204.082.464-.294.745-.4 1.204.55-.126 1.39-.502 2.005-.402.565.089.99.947 1.404 1.204.32.2.646-.007 1.004.2.545.314 1.554 2.42 1.805 3.21.759-.25 2.15-.601 3.01-.601.25-.007.683.401 1.203.2v-.2c.327-.169.358-.64.602-.803.326-.226.62 0 1.003-.2.602 1.988-.187 1.266 1.806 1.805.044-.068.32-.577.401-.602.226-.093.383.113.602 0 .17.138.408.696.602.802.558.302 2.175.327 2.809.402.069.452-.157.972 0 1.405.307.852 4.031 1.542 5.216 1.805.088.351-.094.646 0 1.003.006.031 1.75 1.78 1.805 1.806 1.762.796 1.818-.564 2.609-.803 1.605-.495 2.194.459 2.808.803.326.182.633.025 1.004.2.112-.295.332-.268.601-.4-.156-1.122-.1-1.738-.2-2.408.32.081.482-.107.802-.201.176.307.671 1.48 1.003 1.605 1.135.426 2.627-.376 3.411-.4 1.348-.058 1.517.444 2.207 1.002 1.88-.828 2.038-.044 4.213-.401.2-.038 1.085-.59 1.204-.602.695-.114 1.373.276 1.805.2.188-.037.59-.507.803-.601-.094-.357.088-.653 0-1.003-.019-.076-2.007-2.922.602-2.207.087.018.445.57.602.602.407.074.614-.24.802-.201-.213-.163.163-.865.2-1.003-.225-.12-.087-.351-.2-.402-.357-.175-.665-.118-1.003-.201.025-.407-.22-.6-.2-.802.05-.72 1.266-1.09 1.604-1.605.251-.401.138-.979.402-1.404.3-.515 2.664-1.542 3.61-1.404.095.012.56.582.603.602.207.069.608-.113.802 0 .27.157.508.883.802 1.003.151.056.446-.1.603 0 .175-2.27.08-1.743 1.804-1.806-.024.533.127 1.285 0 1.806-.01.018-.569.37-.6.401.363 1.354-.083.959.802 1.805-.212.063-.314.37-.401.402-.314.1-.683-.094-1.004 0 .32.118-.77.194-.802.2-.051-.144-.089-.432-.2-.602-.998-1.48-.746-1.404-3.21-1.404-.139.39-.139 1.048-.402 1.404-.226.289-.928.352-1.204.602-.3.264-.188.195-.401.602.007 0 0 .57 0 .602.138 0 .684-.089.803 0-.013.069.144.696.2 1.003-.99 0 .075 1.574.2 1.806-.657.514-1.203 1.047-1.805 1.605.107.351.25.432.2.802 2.088 1.223 2.503 1.004 3.612-1.003.131.163.665.214.803.4.175.24.037.547.2.804.809 1.31 1.787.677 2.809.2-.169-1.516-.031-1.786.2-2.808.195.113.59-.094.803 0 .301.125.571 1.09 1.003 1.204 1.51.376 1.724-.765 2.408-1.204.35-.232.64-.025 1.002-.2.351-.183.69-.771 1.004-1.004.163.075.433-.043.601 0 .32.075.565.69.803.803.678.313 1.06.037 1.805 0 .032-.139.39-.564.402-.602.276-1.084-.62-1.618.2-2.208.207.095.578-.081.803 0 .314.107.37.834.602 1.003 1.073.784 1.95 0 2.808-.4-.024-.59 0-1.223 0-1.806-.457-.188-1.648-.546-1.805-1.003-.081-.226.094-.595 0-.802.521.143.445-.333 1.004 0 .664.388.269 1.304 1.605 1.203.784-.063 1.53-.94 1.804-1.605 0 0 .496-.269.201-.401-.332-.157-.72-.79-.601-1.404.013-.094.545-.333.601-.402.47-.626.364-1.116.603-2.006-.177-.138-.358-.12-.401-.401-.069 0-.552.037-.603 0v-.602c2.747 1.272 3.047.15 5.618-.602.056-.358.019-1.141.2-1.605.082-.232.721-.514.802-.802.107-.402-.08-.797 0-1.204-.18-.144-.337-.132-.4-.401-.27 0-.77.1-1.004 0-.137-.063-.32-.76-.4-.804.187-.006.47-.307.6-.4 1.11.746.678.652 2.208.602-.05-.483.245-.326.2-.802-.024-.207-.588-.722-.6-.803-.139-.708.319-.89.4-1.204.088-.389-.107-.828 0-1.204.113-.432.747-.833 1.003-1.204-.087-.144.03-.458 0-.6-.112-.459-1.028-.779-1.404-1.005.49-1.674 1.104-2.213 1.404-4.213-.17-.038-.533-.388-.601-.4-1.204-.27-1.793.946-2.408 1.403-.113.076-.333.495-.402.602-.087-.407-.225-1.36-.4-2.005-.05-.164-.578-.64-.603-.804-.194-1.19.979-1.353 1.204-2.206v-.201c-.037.15-.25-.59-.2-.802.068-.327 1.643-3.085.802-3.612-1.19-.752-1.918.432-2.608.602-.12.025-.502-.05-.602 0-.05-.219-.376-.32-.4-.401-.22-.633 0-1.736 0-2.408.105.365.199-.2.199-.2-.689-1.512-.544-1.129-2.207-1.003-.18.696-.601 3.266-1.204 3.61-.481.264-1.14-.005-1.605.201-.093.038-.564.59-.6.602-.44.094-.59-.25-.804-.2.233 0-.2-.602-.2-.602-.057-.727.74-1.975.803-2.408.1-.802-.301-1.473-.402-2.006l.201-.601c.375.081.828-.126 1.203 0 .94.313.615 2.106 2.207 1.404 1.58-.709.633-2.42.2-3.41-1.053.08-1.504.062-2.407.2.396-1.36.264-1.217 0-2.408-.187-.024-.665-.258-1.002-.401 0 0-1.336 1.297-1.004 1.404.865.264.395 2.558 0 3.21-.295.47-1.267.778-1.805 1.003.15-2.564-.075-2.019 1.605-3.61-.245-.74-.182-.929-.402-1.606.1-.081.546-.289.602-.401.176-.388-.17-.59.201-.803 0 0-.37-1.046-.401-1.203.2.125.595.069.802.2.126.075.276.558.402.602.219.07.964-.15.801-.2.039-.12.559-.288.603-.402.207-.608-.213-1.605 0-2.206.15-.446 1.241-.257 1.002-1.606-.08-.451-.895-.915-1.203-1.204.601-1.304.601-.783.201-2.006-.295-.903-.558-1.874-1.404-2.207-2.195-.864-2.484.377-2.207 2.207-.144.107-.96.458-1.004.603v.401h-.4c-.151-.54-.038-.921-.403-1.204l-.2-.201c.094-.094-.056-.47 0-.601h.2c.772-.389 1.085-1.148 1.606-1.806-1.974-.358-1.974-1.241-2.608-3.411.476-.226 1.498-.984 2.006-1.003 1.066-.05.815.558 1.204.802.364.227.608-.038 1.003.2.25-.169.52-.47.803-.6-.15-.59.056-.991-.201-1.405-.032-.044-.803-.401-.803-.401-.188-.752.558-.734.4-1.605-.08-.451-.782-.69-1.002-1.004-.182-.257-.05-.558-.2-.803-.351-.563-1.223-.876-1.806-1.203.087-.39-.113-.827 0-1.203.063-.22.765-.71.803-1.004.113-1.116-1.06-1.71-1.806-2.007-.408-.161.552-.443.803-.4l.4.4c1.782.477 1.455-1.247 1.405-2.206-.257-.044-.288-.363-.4-.4-.98-.34-2.251.77-2.81 1.003l-.402-.603c.038-.118.559-.288.603-.4.113-.34 0-.848 0-1.205.307.133.113-.325.602-.201.08.02.294.533.4.603 1.023.633 1.443.131 2.208-.402-.82-2.038-.841-2.84-3.21-1.605.03-.025 0-.564 0-.601.796-.351 1.191-.289 1.605-1.003.05-.095.288-.151.401-.201-.094-.22.075-.584 0-.804-.138-.393-.908-.77-1.004-1.202-.256-1.16.176-2.026 0-3.211.196.113.396-.338.803 0 .427.358.057 2.02 0 2.81.383-.058.727.256 1.405 0 .063-.032.144-.39.2-.402.013-.182.57-.52.402-1.204-.013-.05-.426-.458-.402-.602.038-.295.89-.495.803-1.605-.057-.658-.734-.464-.401-1.404.012-.056.532-.502.6-.602 0 0-.042-.52-.199-.2-.125-.07-.22-.734-.401-.804-.408-.15-1.166 0-1.605 0v-.4h.2c.031-.144.094-.916.201-1.003.859-.765 1.787.087 2.809-.202.113-.037.407-.513.6-.6 0-.183-.08-.64 0-.803-.664-.822-1.24-1.267-2.205-1.806 0-.25.119-1.003 0-1.204-.238-.395-.633-.125-1.003-.401-.458-.339-.659-1.423-.803-2.006-.22-.05-.32-.377-.401-.402-2.501-.865-1.567 2.038-1.204 3.01-.35.118-.37.012-.602.2-.778.615-.678.533-1.805.201.15-.245-.42-.276-.201-.401 1.129-.684.664-1.969.601-3.612l.603-.2c1.01-1.78.188-1.668-1.605-1.605.138 2.013.426 1.442-1.203 1.805-1.048-1.523-1.45-1.805-3.412-1.805-.074.17-.239.771-.4 1.003.074.12.57.52.601.602-.107.075 0 .853 0 1.003-.558.106-.79.013-1.205.2-.293-1.135-.513-2.864-1.002-3.811.59-.47.971-.772 1.404-1.405-.168-.276-.137-.727-.2-1.003-.138-.025-1.028-.138-.802 0-.61.326-.647.05-1.004.602-.088.125-.389 1.073-.401 1.204-.232-.056-.79-.207-.803-.2-.12-.164-.238-.497-.4-.603-.22.144-.327-.345-.402-.4 1.492-.841 1.536-.578 1.203-2.208-.256-.044-.288-.363-.4-.401-.251-.088-.941.163-.803.2h-.401c-.295.1-.27.885-.602 1.004-.22.068-.602-.113-.803 0-.25-.934-.607-2.302-1.404-2.608-.22-.088-.407.125-.602 0-.1.163-.62.306-.802.4zm84.261 10.031c-.006.013.145.577.202.803-.22.043-.32.37-.402.4-.52.176-1.216.132-1.605.202-.15 1.868-.69 2.72-.602 4.213-.802-1.5-1.366-1.38-2.609-.402-.193-.238-.337-.858-.6-1.003-.647-.363-3.512-.175-4.615-.4-.05.212-.376.313-.4.4-.258.733 0 2.02 0 2.81-.033.012-.402.2-.402.2-.145-.301-.377-.402-.602-.602.52-1.724.056-4.013-2.007-2.608-.257.169-.181.796-.4 1.003-.202.181-.79.307-1.005.401.145.558-.056.935.202 1.404.388.709 2.125.602 2.406 1.405.12.338-.124.658 0 1.003-.068 0-.55-.043-.6 0-.627-.57-.853-.934-1.205-1.806-.676-.093-1.793.038-2.608-.2-.069-.025-.482-.583-.602-.602-.758-.126-1.021.47-1.805.2-.087-.031-.194-.363-.4-.4 1.052-.603.964-.502.801-2.007l-.602-.2c-.169.238-.464.193-.602.4-.118.17-.057.884-.2 1.004-.477.376-1.185-.082-1.605.602-.176.275-.527 1.899-.603 2.206-3.88-1.14-2.439 1.794-4.814 1.805 0 0-.502-.187-.602-.2v-.4c.276-.095.715 0 1.003 0-.094-.063.17-.352.2-.402-.2-.163-.306-.107-.4-.401-.81-.15-2.026-.509-2.608-.402-.376.063-.891.816-1.205 1.004-.752.432-1.561.4-2.407.801-.15.064-.408.559-.602.603-.677.125-.84-.395-1.404-.2-.069.018-.351.526-.4.601-.722.916-.553 1.354 0 2.408-.465.113-.91.219-1.606.401.094-.214-.082-.583 0-.802.019-.07.526-.352.601-.402-.124-.345.12-.664 0-1.003-.043-.119-.514-.408-.6-.602-.41.17-.86.132-1.205.2-.094.803-.314 2.201-.402 3.01-.62 0-.57-.082-1.203 0 .1.282-.107.715 0 1.003.106.314 1.085.622 1.405.803-.007.032-.082 1.122-.202.803-.125.207.082.369 0 .6-.043.107-.495.414-.602.603h-.4c-.302-.64-.433-1.11-.802-1.606-.904-1.196-.747-.488-2.208-1.002-.063-.025-.345-.583-.401-.603-.346-.124-.665.12-1.004 0-.106.214-.557.453-.601.603-.194.577.044 1.166-.201 1.605-.4.696-1.361.42-2.005.803-.785.45-1.192 2.212-1.405 3.21-1.599-.753-.621-.753-2.207 0 .07.345-.1.457-.201.802.834.595.853.652 1.805.803-.068.025-.043.733-.2.802-.238.1-.74 0-1.003 0-.112.226-.558.59-.602.802-.187.809.358 1.642.402 2.207.025.402-.22.596-.2.803h-.402c-.42-.145-.79-1.286-1.204-1.405-.646-.187-.709.22-1.204.201-.514 1.73-.652 1.592.601 2.608-.407.363.088 2.621.202 3.411-.301-.295-.696-.509-1.003-.803.414 0-1.098-.168-.603 0-.23.194-.576 0-.802.2v.403c-.627 1.805.565 2.024 1.204 3.61-.068.062.031.515 0 .603-.1.244-1.066.526-1.204.802-.1.18.031.595 0 .803-.038.188-.589.94-.601 1.003-.102.382.086.814 0 1.203.362.313 1.134.809 1.403 1.204.22.325.139.74.402 1.003.282.282.758.27 1.002.602.597.815 1.11 2.896 1.406 4.012.294.069.708.02 1.003.202-.089.074-.145.513-.2.6-.189.265-.86.345-1.005.603-.363.62.07 2.187 0 3.21.37.15.096.013.202.4.808.027 1.248.139 2.206 0-.087.22.057.572 0 .803-.175.634-1.348 1.098-.602 2.208.107.162.746.213.802.4.283.96-.677 1.487.202 2.007.238.138 1.11.345 1.403.4-.08.716-.413 1.663 0 2.408.069.126.566.27.602.402.126.47-.188 1.154 0 1.605.045.113.296.1.402.201.539.476 1.06.4 1.605.802.194.144.056.37.201.602.783 1.272 1.85.558 2.808 0-.113 1.397-.162 1.918-.4 3.21.143.037 1.203.294 1.002.2.552-.363 1.192-.238 1.404-1.004.051-.212-.105-.62 0-.801.101-.188.728-.076.803-.201.075.163-.044.433 0 .602.032.125.583.54.602.603.068.318-.27 1.158-.2 1.203-.126.037-.376.338-.402.402.037.03 0 .544 0 .6.99.434 1.26.57 2.809.403 0 .118-.082.951 0 1.002-.163.238-.571.402-.802.602.063.181 0 .601 0 .803.288.112.262.331.4.601 1.098-.207 1.167-.187 1.806-.6.188-.127.871-.421 1.003-.604.351-.513.082-1.103.602-1.404.25-.15.708.075 1.003 0l.401-.4c1.048-.245.665.08 1.406.2-.107.326 0 .852 0 1.204-.553.2-1.142.407-1.605.601.037.333.2 1.405.2 1.405.313.044.633.313 1.204.2.275-.056.732-.64 1.003-.802 1.247-.79 1.968-.314 3.41-.803.081-.03.182-.358.401-.401-.088-.446.182-1.009 0-1.404h-.2c-.364 0-.734-.458-1.003-.602 0-.37.081-.846 0-1.203.182-.157.288-.603.601-.603h.2c.377.358.854 1.254 1.405 1.404.226.057.577-.087.803 0-.238.734-.163 1.017-.401 1.806.72.314 1.925.985 3.009.402.972-.533.288-1.31.2-1.806-.093-.521.226-.746.201-1.003 1.336-.082 2.47-.289 3.812-.803.063-.032.144-.389.2-.4h.402c.294-.49-.025-1.154.2-1.807.144-.439.816-.658 1.004-1.003.207-.408.025-.615.2-1.003.866.03 2.702.12 3.612-.401.408-.238.62-.928 1.004-1.204.174-.138.387.075.6 0 1.305-.508.42-1.812 0-2.408.696-.188 1.994-.382 2.208-1.003.107-.326-.158-.921 0-1.203h.2c.803-.408 1.374-1.21 2.006-1.806.207.094.577-.081.803 0 .489.17.595 1.203 1.806.803.144-.05.382-.501.6-.603-.187-.306-.011-.739-.2-1.002-.093-.126-1.11-.558-1.203-.802-.088-.22.125-.408 0-.602 1.888-.496 2.244-.408 2.006-2.61.677-.425 1.335-.538 2.007-1.002.207-.15.163-.446.4-.602-.144-.94-.388-2.188.401-2.608 1.468-.784 1.925.464 2.61.601.839.163.94-.313 1.403-.4-.05-.483.245-.327.201-.803-.019-.188-.445-.64-.4-1.003.006-.094.582-.564.6-.602.089-.239-.113-.382 0-.602-.32-.15-.858-.414-1.204-.601.585-1.267.51-1.7 0-3.01.653.357 1.293.71 2.007 1.003-.05.006 1.01.02 1.204 0 .15-.345.764-2.244 1.003-2.408.514-.37 1.26-.075 1.806-.4.425-.264.17-1.136 0-1.003.087-.327-.106-.697 0-1.004.025-.087.357-.194.4-.4 1.581.119 1.819 0 2.81-.403.156-1.442.169-2.043-.803-2.809-.1-.074-.564-.288-.601-.4-.152-.439.068-.947 0-1.405.319-.093.325.164.4-.2.333.145.665-.15 1.003 0 .258.112.17.845.402 1.002 1.178.803 2.677.252 3.009-.802.239-.777-.106-.758-.2-1.404h-.401l.2-1.606c-.715.05-.827.032-1.203 0-.127-.344.118-.664 0-1.002-.05-.132-.527-.283-.603-.401-.213-.345-.024-.622-.2-1.004.22-.12.363-.545.601-.601.132-.038.47.087.602 0 .37-.27.584-1.26 1.003-1.404.452-.17 1.317.018 1.806 0 .313-1.086.677-1.95 1.004-2.81-.151-.1-.214-.696-.401-.802-.39-.226-.904-.207-1.204-.401-1.174-.752 1.316-1.342 1.805-1.807.188-.187 0-.613.201-.801-.22-.05-2.728-.552-2.809-.603-.107-.069-.684-1.567-.802-1.805 1.002-.326 1.127-.539 1.805-1.003-.295-.263-.276-.758-.601-1.003-.283-.213-.46-.1-.804-.2.007-.038-.15-.735-.2-1.005.627-.294 1.078-.5 1.605-.801-.107-.289.1-.722 0-1.004-.05-.13-.527-.282-.601-.4-.27-.434-.44-1.205-.603-1.606-.106.332-.2-.602-.2-.602.86-.5.232-1.68-.803-1.605l-.4.402c-.384.188-.665.25-1.004.4-.007.032-.026 1.305 0 1.205.119.25.508.407.601.601.202.427.075.828.202 1.204-.447-.388-.798-.602-1.204-1.003-.345.119-.665-.126-1.004 0-.25.081-.558.915-.803 1.003-.344.119-.664-.126-1.002 0a18.112 18.112 0 0 1-.201-.402c-.1.309-.2-.764-.2-.802.043-.038.583-.356.602-.4.144-.51-.245-.766-.2-1.004h-.402c-.27.088-.528 1.016-.803 1.204-.138.088-.464-.039-.602 0-.137.03-.658.552-.802.602-1.204.383-2.3.4-3.812.4-.358.747-.332.722-.603 1.807-.03 0-.6-.013-.6 0-.044-.484-.201-1.437-.201-2.207.45-.157.62-.094 1.203-.2-.069-.904-.069-1.982-.402-3.01.947.175 1.041.3 2.007 0l.201-.402c.344-.138 1.034 0 1.404 0-.037-.188.276-.395.2-.802-.157-.84-1.316-1.605-1.805-2.207-.213.294.007.502-.201.803-.156.22-.388.03-.601.2-.238.176-.414.758-.602 1.003-.038-.057-.546-.144-.603-.2-.174-.17-.124-.54-.2-.803-.213-.044-.32-.376-.4-.401-.747-.257-1.154.263-1.606.401l-.201-.2c.07-1.21-.069-1.361-.2-2.207-.157 0-.671.08-.802 0-.163.256-.697.47-.804.802zm-66.205 3.611c-.1.264-.358.276-.603.402.17.451.12.802.202 1.203.332.038.194.239.4.402.095-.089.671 0 .803 0-.112-.815-.094-1.267-.2-2.007-.031 0-.602.006-.602 0zm-2.208 2.609c-.056.156-.475.494-.6.601.45.922.632 2.088 2.005 1.605.39-.144.339-.596.602-.803-.2-.131-.388.083-.602 0-.482-.187-.545-1.247-1.003-1.403h-.402zm67.812 2.206c-.107.214-.557.451-.602.602-.17.496-.138 1.223-.2 1.605-.69.232-1.374.539-2.007.803.508.815.753 1.542 1.605 2.006 3.63 1.955 1.819-3.084 1.605-5.016h-.4zm-75.436 4.414v.402c-.018-.094-.262.72-.2 1.003.063.326.59 1.002.803 1.404h.401c.107.094.257.552.402.602.22.075.589-.1.802 0 .05-.12.602-.803.602-.803.063-.489-.358-.413-.401-.601-.131-.49.237-.778.2-1.004-.074-.382-1.661-1.442-2.609-1.003zm38.923 3.41c.613 1.123 1.196 1.837 1.404 3.412.2.03.501.382.601.4 1.123.207 1.838-.602 2.408.803.338.834-.05 2.376 1.003 1.805.3-.169.345-1.817.401-2.206-1.385-.358-2.351-.96-3.21-1.806.051-.15.207-.59.2-.601-.169-.245-2.407-1.562-2.807-1.806zm-27.887 9.43c.338.728.326 1.894 1.805 1.405.144-.05.383-.503.602-.603 0-.288-.094-.746 0-1.002-.188-.145-.658-.747-.803-.803-.22-.088-.407.125-.601 0-.276.332-.722.651-1.003 1.002zm4.414 16.652c.061.087 0 .501 0 .602.213.1.607.559.802.601 2.144.483 1.272-1.541 1.003-2.206-.176 0-.652.075-.803 0-.25.32-.758.67-1.002 1.003zm-2.007 15.65c.088.344 0 .839 0 1.202 1.98.502 1.254 1.017 1.806-1.003-.182-.144-.339-.131-.401-.401-.333-.1-.54-.038-.804-.2-.043.113-.481.307-.6.401zm3.41 4.613c-.79.746-1.328 1.53-2.005 2.408 0-.006.4-.402.4-.402.715-.244 1.255-.357 2.408-.401-.107-.645-.126-.865-.2-1.605-.032 0-.603.006-.603 0zm-5.216 1.204c.006.07-.15.696-.2 1.003 1.367 1.072 3.518 2.427 2.207-.802-.847-.12-1.242-.088-2.007-.201zm-101.515 1.204c.288.081 1.103 1.129 0 .802-.276-.081-.558-.965 0-.802zm1.805 0c.032.112.564.282.602.4.107.364-.006.502-.2.603 0 0 .338.965.4 1.203-.294-.206-.445-.094-.802-.2-.05-.264-.376-.452-.401-.601-.107-.572.338-1.054.401-1.405zm111.654 26.414h.781c.803 0 1.063-.23 1.063-.702 0-.41-.2-.642-.951-.642h-.893v1.344zm0 2.406h-.662v-4.29h1.644c1.023 0 1.524.38 1.524 1.223 0 .77-.482 1.103-1.123 1.183l1.223 1.884h-.722l-1.143-1.865h-.741v1.865zm.792-5.263c-1.725 0-3.059 1.333-3.059 3.107 0 1.815 1.334 3.13 3.06 3.13 1.704 0 3.036-1.315 3.036-3.13 0-1.774-1.332-3.107-3.037-3.107zm0-.602c2.025 0 3.76 1.575 3.76 3.71 0 2.155-1.735 3.73-3.76 3.73-2.046 0-3.78-1.575-3.78-3.73 0-2.135 1.734-3.71 3.78-3.71z" fill="#F2541B"/></svg>