<svg width="200" height="200" xmlns="http://www.w3.org/2000/svg"><g fill="none" fill-rule="evenodd"><path d="M30.195 2.704c-3.205 2.51-7.583 9.498-13.009 20.769-2.963 6.153-8.315 17.266-8.315 29.059 0 7.837 2.363 15.975 9.362 23.157 2.482 2.547 5.094 4.692 7.792 6.415-.045.485-.092.985-.143 1.562l-.285 3.175 5.41 2.332-.079 9.707-.778.179-.46 6.366c-.136 1.721-.967 6.933-3.13 10.103-1.608 2.358-6.256 4.665-8.89 5.481L7 124.315l2.652 4.748c.354.636 2.21 3.898 3.866 5.66l.185.198c1.8 1.933 4.124 4.006 9.042 4.786a42.22 42.22 0 0 0-.284 4.985c0 6.319 1.292 13.03 3.544 18.416 3.9 9.32 12.541 14.015 13.514 14.52l4.02 2.086c1.672 2.576 2.802 3.732 3.8 4.744l.662.68.158.143c5.12 4.494 11.536 5.047 12.25 5.096l1.968.133c3.594 3.023 7.855 5.031 11.147 6.576l5.667 2.659.13-3.195c1.828 1.178 4.012 2.12 6.573 2.495 2.164.318 10.869.9 14.353.913.761.036 6.665.268 14.684-.913 2.994-.438 5.423-1.711 7.344-3.344l1.148 3.335 4.16-1.95c3.872-1.817 7.741-3.835 10.934-6.554l2.196-.157c.683-.048 6.836-.605 11.95-5.094l.124-.11.698-.715c1-1.015 2.134-2.175 3.8-4.742l4.018-2.086c.971-.503 9.613-5.194 13.514-14.52 2.252-5.386 3.542-12.098 3.542-18.416 0-1.756-.098-3.437-.289-5.03 3.595-.663 6.715-2.29 9.102-4.802 1.602-1.685 3.588-5.085 3.97-5.75l2.746-4.774-10.736-3.327c-2.634-.816-7.281-3.122-8.89-5.48-2.163-3.172-2.995-8.385-3.133-10.126l-.227-3.134-.23-3.21-.78-.18-.077-9.706 5.409-2.332-.285-3.175c-.051-.577-.098-1.077-.142-1.562 2.699-1.724 5.311-3.87 7.792-6.416 7-7.182 9.362-15.32 9.362-23.155 0-11.794-5.352-22.907-8.317-29.06-5.427-11.271-9.801-18.26-13.008-20.77-3.405-2.664-7.698-3.071-11.207-1.06-5.567 3.188-6.698 10.569-7.093 18.071a109.84 109.84 0 0 0-.139 5.722c0 4.341.212 9.13.62 13.785.045.501.066.977.066 1.424a9.24 9.24 0 0 1-.24 2.154c-2.603-.913-4.83-.5-6.334.36-.35.145-.695.287-1.035.424-2.792-3.426-5.434-6.575-7.776-8.802-13.062-12.417-27.607-20.44-37.055-20.44-9.492 0-24.037 8.023-37.098 20.44-2.342 2.227-4.985 5.377-7.776 8.802-.307-.124-.615-.25-.93-.38-1.426-.838-3.7-1.376-6.441-.41a9.203 9.203 0 0 1-.239-2.15c0-.446.022-.92.065-1.42.41-4.659.62-9.448.62-13.791 0-2.022-.045-3.948-.139-5.718-.395-7.502-1.527-14.883-7.093-18.071-3.51-2.012-7.804-1.605-11.207 1.06m131.089 179.739h-1.365v-.525h3.32v.525h-1.366v3.807h-.589v-3.807m3.018 3.808h-.541v-4.333h.842l1.07 3.314a2.8 2.8 0 0 1 .103.356c.03-.133.06-.247.096-.356l1.112-3.314h.842v4.332h-.571v-3.692c-.03.144-.066.27-.102.38l-1.113 3.312h-.553l-1.088-3.313a2.502 2.502 0 0 1-.097-.38v3.693" fill="#1A1919"/><path d="M47.504 52.156s-9.713-1.312-8.535-14.714C40.143 24.046 39.88 5.12 34.67 9.2c-1.174.918-4.58 5.376-10.35 17.363-5.774 11.987-12.908 28.66-.544 41.348 6.205 6.369 11.482 7.622 11.482 7.622s1.072-5.916 5.1-12.673c4.125-6.933 7.145-10.705 7.145-10.705" fill="#FFFFFE"/><path d="M155.593 83.292c-5.276-33.903-42.086-60.134-55.394-60.134-12.77 0-49.49 26.412-54.62 60.425 0 0 1.21-.51 3.62-1.271l.156-.068c1.313-4.667 8.15-26.742 23.517-40.236 17.27-15.165 27.454-15.96 27.454-15.96v48.625c36.193 0 55.267 8.619 55.267 8.619" fill="#9E9F9E"/><path d="M159.207 97.797c-38.373-13.47-79.368-13.545-117.74-.074 0-3.462 0-6.707.06-10.105 38.162-12.891 79.359-12.893 117.65-.321 0 3.505 0 6.943.03 10.5" fill="#9E9F9E"/><path d="M104.633 82.806c0 2.335-1.831 4.229-4.09 4.229-2.261 0-4.093-1.894-4.093-4.229s1.832-4.228 4.092-4.228 4.091 1.893 4.091 4.228" fill="#1A1919"/><path d="M102.085 82.84c0-1.713-1.36-2.113-1.36-2.113a2.145 2.145 0 0 1 2.413 2.125 2.146 2.146 0 0 1-2.37 2.13s1.317-.429 1.317-2.142" fill="#FFFFFE"/><path d="M80.069 84.448c0 2.336-1.832 4.23-4.093 4.23-2.26 0-4.092-1.894-4.092-4.23 0-2.335 1.832-4.228 4.092-4.228s4.093 1.893 4.093 4.228" fill="#1A1919"/><path d="M77.52 84.481c0-1.712-1.362-2.112-1.362-2.112a2.145 2.145 0 0 1 2.414 2.125 2.146 2.146 0 0 1-2.369 2.13s1.317-.43 1.317-2.143" fill="#FFFFFE"/><path d="M56.933 89.37c0 2.334-1.831 4.228-4.092 4.228-2.26 0-4.092-1.894-4.092-4.229s1.832-4.227 4.092-4.227 4.092 1.892 4.092 4.227" fill="#1A1919"/><path d="M54.384 89.402c0-1.712-1.361-2.112-1.361-2.112a2.145 2.145 0 0 1 2.414 2.125 2.146 2.146 0 0 1-2.369 2.13s1.316-.43 1.316-2.143" fill="#FFFFFE"/><path d="M128.673 84.552c0 2.336-1.832 4.229-4.093 4.229-2.26 0-4.09-1.893-4.09-4.229 0-2.335 1.83-4.227 4.09-4.227s4.093 1.892 4.093 4.227" fill="#1A1919"/><path d="M126.123 84.586c0-1.713-1.36-2.113-1.36-2.113a2.145 2.145 0 0 1 2.413 2.125 2.145 2.145 0 0 1-2.369 2.13s1.316-.429 1.316-2.142" fill="#FFFFFE"/><path d="M151.602 89.25c0 2.336-1.831 4.229-4.092 4.229-2.26 0-4.091-1.893-4.091-4.228 0-2.336 1.832-4.228 4.09-4.228 2.262 0 4.093 1.892 4.093 4.228" fill="#1A1919"/><path d="M149.054 89.284c0-1.713-1.364-2.114-1.364-2.114a2.146 2.146 0 0 1 2.416 2.125 2.146 2.146 0 0 1-2.37 2.132s1.318-.43 1.318-2.143m4.093-37.136s9.715-1.312 8.537-14.714c-1.176-13.397-.913-32.323 4.298-28.242 1.173.919 4.58 5.376 10.35 17.363 5.773 11.987 12.908 28.66.543 41.348-6.204 6.369-11.481 7.624-11.481 7.624s-1.073-5.917-5.1-12.675c-4.125-6.932-7.147-10.704-7.147-10.704" fill="#FFFFFE"/><path d="M60.502 99.002s-6.963 3.688-8.704 6.528c-1.741 2.832-1.741 6.234-1.741 6.234l-4.062-2.268s.87 1.42-2.032 7.941c-2.903 6.523-6.962 9.075-6.962 9.075s4.059.286 8.415-2.266c4.351-2.55 7.835-7.943 7.835-7.943s.87 5.104-3.484 10.777c-4.351 5.673-10.736 8.511-10.736 8.511l12.48-3.403s-5.807 3.685-10.451 14.463c-4.643 10.777 2.032 21.838 2.032 21.838s-6.776-3.517-9.575-10.208c-2.657-6.353-3.773-15.603-2.032-22.124 1.741-6.524 1.741-7.94 1.741-7.94s-3.482 1.981-7.834 1.701c-4.353-.285-5.514-1.984-5.514-1.984s9.285-2.837 13.348-8.794c4.063-5.956 4.642-14.465 4.642-14.465l22.634-5.673m79.386-.086s6.963 3.685 8.705 6.525c1.741 2.836 1.741 6.239 1.741 6.239l4.062-2.27s-.87 1.415 2.028 7.938c2.904 6.527 6.966 9.076 6.966 9.076s-4.062.287-8.414-2.264c-4.355-2.554-7.834-7.944-7.834-7.944s-.873 5.104 3.48 10.78c4.354 5.67 10.739 8.509 10.739 8.509l-12.477-3.401s5.802 3.682 10.444 14.462c4.639 10.777-2.027 21.837-2.027 21.837s7.24-3.35 9.573-10.214c2.364-6.946 3.765-11.732 2.03-22.118-1.11-6.656-1.739-7.94-1.739-7.94s3.482 1.985 7.83 1.699c4.356-.282 5.519-1.983 5.519-1.983s-9.289-2.835-13.349-8.793c-4.066-5.957-5.143-14.617-5.143-14.617l-22.134-5.521m-69.529-.854l-2.27-5.553s12.198 2.757 17.393 5.502c5.173 2.734 9.628 7.111 9.628 7.111l-3.878 2.588s-2.991-2.793-7.797-5.035c-4.8-2.235-13.778-2.777-13.778-2.777l.702-1.836m19.398 38.758s-4.666-.28-8.855 1.852c-4.305 2.183-10.915 6.333-12.283 17.336-1.695 13.667 4.094 29.666 4.094 29.666s2.424-22.075 8.831-30.616c6.566-8.743 16.11-7.58 16.11-7.58l1.391-6.606s-1.84-2.99-7.931.132c-6.094 3.12-10.562 6.087-10.562 6.087l9.205-10.272" fill="#CAA270"/><path d="M55.449 134.725s-1.705 4.34 2.046 7.004c3.751 2.667 9.21 1.907 9.21 1.907s-7.393 9.002-3.07 25.43c2.289 8.696-4.774-10.002-9.55-7.67-4.775 2.334-.708 16.206-.708 16.206s-11.064-12.054-8.419-26.463c2.647-14.409 10.49-16.414 10.49-16.414m56.004 1.84s4.67-.276 8.86 1.851c4.3 2.184 10.913 6.333 12.282 17.338 1.692 13.666-4.1 29.67-4.1 29.67s-2.419-22.078-8.833-30.618c-6.56-8.745-16.108-7.579-16.108-7.579l-1.391-6.61s1.842-2.987 7.935.129c6.093 3.122 10.564 6.096 10.564 6.096l-9.21-10.277" fill="#CAA270"/><path d="M100.34 174.778l2.935-7.067s1.106 1.299 2.374 2.21c1.267.913 4.131 2.297 4.131 2.297s-2.42-3.202-3.42-6.129c-1.023-2.997-.65-4.349-.65-4.349 1.078-.082 1.957-.176 2.518-.275 2.982-.532 4.684-4.432 4.684-4.432s5.542 6.738 6.183 9.751c.638 3.014-4.902 5.497-4.902 5.497s6.391 1.24 7.032 3.186c.639 1.954-1.837 6.8-1.837 6.8s-1.979 5.588-5.601 6.117c-1.81.267-10.576.824-13.618.824-3.043 0-11.479-.56-13.289-.827-3.623-.53-5.601-6.117-5.601-6.117s-2.476-4.847-1.837-6.8c.64-1.946 7.03-3.186 7.03-3.186s-5.538-2.484-4.9-5.497c.64-3.013 6.182-9.751 6.182-9.751s1.704 3.9 4.685 4.431c.56.1 1.44.194 2.519.276 0 0 .37 1.352-.652 4.349-1 2.927-3.42 6.128-3.42 6.128s2.863-1.383 4.13-2.297c1.269-.911 2.393-2.209 2.393-2.209l2.936 7.067m30.061-76.617l2.269-5.553s-12.198 2.757-17.394 5.502c-5.172 2.734-9.628 7.11-9.628 7.11l3.878 2.588s2.993-2.793 7.798-5.035c4.8-2.233 13.778-2.777 13.778-2.777l-.701-1.835m14.608 36.638s1.704 4.34-2.048 7.004c-3.752 2.667-9.21 1.907-9.21 1.907s7.393 9.002 3.07 25.431c-2.288 8.695 4.774-10.003 9.55-7.672 4.777 2.335.708 16.208.708 16.208s11.065-12.055 8.42-26.464c-2.646-14.409-10.49-16.414-10.49-16.414" fill="#CAA270"/><path d="M68.703 129.296s-11.732-5.1-12.117-16.02c-.253-7.11 4.823-7.345 7.525-6.97l2.7.383.946-3.427 1.923-.017s-.014 3.614 1.592 6.486c1.005 1.79 3.809 3.3 3.809 3.3s-2.31-2.477-1.902-6.033c.405-3.558 1.118-3.195 1.118-3.195l15.113 6.902s-.002 1.815-4.866 3.597c-4.862 1.773-9.861 1.558-9.861 1.558s3.758 2.047 8.623 1.32c6.919-1.037 10.51-3.49 10.51-3.49l-2.267 10.317s-2.885-.607-5.034 1.282c-3.284 2.886-1.656 7.03-1.656 7.03l-14.47 6.552-6.749-.941s.38-1.446-1.267-6.203c-.939-2.713-3.395-5.864-3.395-5.864s1.214 2.038 4.052 3.18c2.835 1.146 5.673.253 5.673.253M87.49 94.848l9.408 5.332-1.889-4.262 3.539 1.94 1.8-3.075 1.53 2.984 3.625-1.933-1.613 4.39 10.055-5.387s-5.765-.496-13.669-.547c-8.183-.055-12.785.558-12.785.558" fill="#F0D0AF"/><path d="M106.714 133.328l4.136 1.591s3.897-3.315 1.548-6.215c-3.03-3.746-6.72 1.588-6.72 1.588l-1.29-1.32s2.297-2.652 1.94-7.925c-.326-4.773-2.972-6.346-2.972-6.346s.995.022 1.64-3.806c.644-3.831.503-4.059.503-4.059l-5.158-3.108-4.952 3.108s-.14.228.503 4.059c.646 3.828 1.64 3.806 1.64 3.806s-2.646 1.573-2.97 6.346c-.359 5.273 1.938 7.925 1.938 7.925l-1.29 1.32s-3.688-5.334-6.719-1.588c-2.349 2.9 1.548 6.215 1.548 6.215l4.135-1.59s2.816 3.848 6.158 3.848c3.343 0 6.382-3.849 6.382-3.849" fill="#F0D0AF"/><path d="M132.2 129.43s11.73-5.1 12.116-16.02c.253-7.11-4.823-7.346-7.525-6.97l-2.7.382-.945-3.426-1.924-.018s.015 3.614-1.592 6.486c-1.004 1.791-3.81 3.301-3.81 3.301s2.31-2.478 1.903-6.034c-.406-3.558-1.117-3.194-1.117-3.194l-15.114 6.902s.002 1.815 4.867 3.598c4.86 1.771 9.86 1.556 9.86 1.556s-3.758 2.047-8.624 1.32c-6.918-1.036-10.51-3.49-10.51-3.49l2.268 10.317s2.885-.606 5.034 1.282c3.283 2.886 1.656 7.032 1.656 7.032l14.47 6.55 6.749-.94s-.38-1.445 1.268-6.203c.938-2.712 3.394-5.865 3.394-5.865s-1.213 2.038-4.052 3.18c-2.835 1.147-5.673.254-5.673.254m-31.598 28.247c2.636 0 4.293-.261 5.957-.81 3.8-1.25 3.94-3.355 3.94-3.355-3.644-.362-3.644-.352-4.502-.352-.938 0-2 .701-5.42.701-3.421 0-4.571-.704-5.51-.704-.858 0-.858-.01-4.5.352 0 0 .097 2.238 3.939 3.356 1.892.55 3.461.812 6.096.812" fill="#F0D0AF"/><path d="M87.265 109.706s-3.535 3.867-7.94 2.376c-6.729-2.278-5.095-7.875-5.095-7.875l.134-.424 12.901 5.923" fill="#FFFFFE"/><path d="M76.64 105.345s-.498 3.52 2.329 4.793c2.44 1.1 4.014.261 4.792-.33.777-.59.769-1.362.769-1.362l-7.83-3.612-.06.511" fill="#004D38"/><path d="M82.596 107.423c.04.249.022.5-.06.735-.31.874-1.646 1.241-2.689.79a1.933 1.933 0 0 1-1.088-2.424c.096-.272.27-.493.494-.654l3.343 1.553" fill="#1A1919"/><path d="M113.714 109.79s3.534 3.867 7.941 2.375c6.727-2.278 5.094-7.874 5.094-7.874l-.135-.378-12.9 5.877" fill="#FFFFFE"/><path d="M124.34 105.468s.497 3.52-2.33 4.793c-2.439 1.1-4.014.261-4.792-.33-.777-.59-.78-1.4-.78-1.4l7.843-3.574.059.511" fill="#004D38"/><path d="M118.418 107.48c-.045.26-.03.52.056.765.309.874 1.644 1.24 2.688.789a1.932 1.932 0 0 0 1.088-2.423 1.343 1.343 0 0 0-.498-.657l-3.334 1.527" fill="#1A1919"/></g></svg>