<svg width="200" height="200" xmlns="http://www.w3.org/2000/svg"><g fill="none" fill-rule="evenodd"><path d="M101.41 168.625c.37-2.157 2.67-8.179 4.894-7.658-.593-3.272 2.225-5.428 2.225-5.428s-5.785 2.082-11.94-1.487c-6.008-3.42-5.712-9.963-5.712-9.963s.668 8.773-5.71 15.39c.37-1.56-2.003-32.713-37.677-42.602-18.393-5.13-36.045 3.792-36.045 3.792 6.527-25.8 28.85-34.572 28.85-34.572s-2.966-.075-6.007.594c-1.854.372-4.598 1.636-4.598 1.636s9.42-22.082 44.203-34.052c.816-.297-1.557-2.825-4.524-3.048-2.967-.149-5.933 2.379-5.933 2.379s-2.522-6.32 5.859-11.376c4.376-2.676 9.42-.669 9.42-.669s-1.04-5.353-5.712-7.137c-6.378-2.454-9.345-.446-9.345-.446s3.634-7.287 13.35-8.997c10.458-1.784 16.169 1.636 16.169 1.636S102.67-.297 134.487.372c42.943.892 44.945 41.858 31.447 61.784 1.41-5.13.074-16.654-11.199-16.431-9.79.223-10.828 10.93-10.828 10.93s5.562 1.338 11.57 6.17c5.191 4.164 8.529 8.179 8.529 11.376.074 2.453-.445 2.974-.445 2.974.667.818 11.421 10.632 12.682 20.446 1.261 9.814-1.186 17.472-1.186 17.472s12.015 13.532 13.424 25.65c3.04 25.354-8.307 31.97-8.307 31.97s.742-3.345 0-6.096c-.742-2.75-2.002-4.163-2.002-4.163s-.52 12.193-4.005 17.695c-3.412 5.502-10.977 11.45-15.205 11.598l-4.227.149s-4.598 6.17-8.826 7.137c-4.302.967-9.642-1.933-9.642-1.933s-4.746 2.38-8.306 2.305c-3.56-.074-11.051-8.401-14.24-9.293-9.568-2.528-12.09-11.376-12.312-12.194-.297-.966-.593-5.427 0-9.293z" fill="#111"/><path d="M110.013 169.74s-2.596 3.197-1.632 6.022c.89 2.825 3.708 6.84 7.49 8.179 3.783 1.338 7.195 5.204 7.862 6.245.668 1.115 2.745 2.602 4.895 3.123 2.151.446 4.228-1.339 4.228-1.339s-8.084-2.23-10.977-5.799c-2.892-3.494-2.373-5.353-2.373-5.353s-3.115.223-4.97-2.156c-1.853-2.38-4.523-8.922-4.523-8.922z" fill="#006F71" fill-rule="nonzero"/><path d="M128.332 149.442l-1.41 7.212s5.415-5.204 10.087-4.015c4.673 1.19 2.373 8.55 2.373 8.55s5.637-4.98 10.755-2.973c10.012 4.014 7.565 19.48 7.565 19.48l4.375-2.083s1.113-9.293-3.634-17.472c-3.337-5.725-10.383-7.583-10.383-7.583s1.187.966 1.706 1.487c.816.892 1.038 1.933 1.038 1.933s-1.557-.595-2.67-.67c-.89-.074-2.299.224-2.299.224l1.928 1.635s-1.038-.446-2.67-.148c-.741.148-1.78.892-1.78.892s.742-2.602-2.67-6.32c-2.373-2.528-5.71-3.494-5.71-3.494s1.26.892 1.26 2.304c0 0-1.335-.148-2.225-.074-.89.074-2.521 1.71-2.521 1.71s.667-.818 0-2.379c-.668-1.636-3.115-2.305-3.115-2.305s9.419 1.413 14.536-7.36c2.522-4.387 1.039-9.74 1.855-18.142.89-8.401 3.708-9.888 3.708-9.888s14.61-.149 18.69 8.253c11.57 3.791 15.871 22.007 15.871 22.007s-2.299-2.23-4.227-3.346c-1.187-.669-4.227-1.264-4.227-1.264s2.299 3.049 4.079 7.956c1.78 4.907.074 14.126.074 14.126s-.742-2.528-2.374-4.981c-1.78-2.602-3.56-3.123-3.56-3.123s1.484 5.65-1.038 19.108c-2.522 13.457-12.83 15.91-14.24 15.91-1.335 0-3.115-1.932-3.412-2.602-2.15-4.684.223-14.2.223-14.2l-3.634 2.081s-.89 5.354-.964 7.733c-.075 2.453-2.522 4.386-2.522 4.386l.593 1.413 2.225-1.04s-.074.222-.89 3.122c-.816 2.9-2.67 4.981-4.376 5.65-1.705.67-3.856-.892-4.969-1.71-1.112-.743-2.67-6.17-3.263-8.252-.593-2.082-.148-7.956-.148-7.956l-4.228-4.535s-2.225 4.387 0 14.126c.371 1.71 1.78 5.056 1.78 5.056s.297 0-.964.074c-1.26.075-5.563-1.115-8.233-6.765-4.079-8.7-1.26-15.762-1.26-15.762l-2.448-3.272s-.964 1.264-1.854 4.164c-.89 2.9-.668 8.773-.668 8.773s-2.002-6.543-1.928-9.814c.074-3.346 2.225-7.063 2.225-7.063s-.222-.075-1.854 1.338c-1.632 1.413-2.15 2.825-2.15 2.825s.667-4.46 2.002-7.88c1.335-3.42 3.708-5.205 6.526-6.098 2.745-.966 5.044 1.041 5.044 1.041zm29.37-32.862s3.04 1.933 4.45 4.015c2.076 3.197 1.483 4.312 1.483 4.312s-1.928-2.677-5.117-3.792c-4.599-1.561-9.271-1.264-9.271-1.264s4.153 1.487 7.12 3.866c2.966 2.38 2.744 4.015 2.744 4.015s-1.038-.892-4.821-1.635c-2.522-.52-7.565.446-7.565.446s10.013 2.602 15.204 12.565c6.379 12.267 4.45 26.022 4.45 26.022s3.709-7.286 4.005-13.457c.223-4.164-1.186-10.186-1.186-10.186s1.854.372 3.485 2.23c1.558 1.785 2.745 4.908 2.745 4.908s-.149-6.097-3.115-12.194c-1.632-3.494-4.821-7.063-4.821-7.063s2.002.074 3.56.67c2.818 1.114 4.598 2.676 4.598 2.676s-1.706-4.684-7.194-9.889c-5.637-4.981-10.754-6.245-10.754-6.245z" fill="#006F71"/><path d="M140.124 111.375s-2.818 3.57-3.263 8.7c-.445 5.13 1.928 14.646-2.967 18.29-3.04 2.23-6.156 2.081-6.156 2.081s2.522-3.271 1.855-10.334c-.445-4.833 1.78-10.558 3.782-13.309 1.928-2.602 6.75-5.428 6.75-5.428zm-8.381 0s-3.856 4.759-5.414 7.435c-1.78 3.049-3.337 9.591-4.598 17.25-1.187 7.732-7.565 12.118-11.273 12.788-3.709.743-11.645-.075-15.353-7.51-4.153-8.252-.89-17.844 8.974-25.13 10.31-7.658 27.664-4.833 27.664-4.833zm-9.938 12.045s-2.077 1.933-3.93 3.048c-1.855 1.116-4.377 1.785-4.377 1.785s.742 2.602.52 5.576c-.223 2.974-2.819 7.955-7.714 8.699-4.895.669-8.974-5.65-8.974-5.65s-.222 6.393 4.895 8.55c5.118 2.23 8.53 1.635 13.202-2.454 4.672-4.164 6.378-19.554 6.378-19.554z" fill="#A27752" fill-rule="nonzero"/><path d="M143.98 100.297s-11.347-5.65-13.72-6.84c-2.373-1.115-6.75-2.825-8.084-1.933-1.113.744-1.261 1.933-.223 2.751.964.818 3.783 2.528 5.044 2.974.445.149 1.631.744 1.631.744l.223 1.784s-5.118-1.859-6.379-2.38c-1.26-.52-2.67-1.338-2.67-1.338s1.41 4.238 4.376 5.577c5.415 2.453 15.575.52 15.575.52s-2.595-.743-3.263-.892c-.667-.149-1.78-.52-1.78-.52l1.187-.967s1.038-.074 2.67.149c1.706 0 5.414.371 5.414.371z" fill="#FFF" fill-rule="nonzero"/><path d="M157.257 80.67s9.864 5.501 12.311 14.423c2.448 8.996.297 17.546.297 17.546s-4.08-5.278-7.49-7.286c-6.898-4.015-35.897-16.134-35.897-16.134s-5.785-2.007-7.862 2.008c-2.003 4.015-.074 12.119 5.785 13.457 5.859 1.264 20.84-1.933 20.84-1.933l4.821 1.19s-16.539 5.947-25.365 3.494c-8.825-2.528-11.347-9.889-9.196-15.762 2.225-5.874 8.974-6.097 14.536-4.09 5.637 2.008 7.936 4.759 12.09 3.792 6.452-1.338 15.13-10.706 15.13-10.706zm-5.86 9.59s.594-.148 1.261-.966c.668-.818 2.3-1.339 3.115-1.487.816-.149 2.967 0 3.338-1.71.37-1.71-3.041-1.933-4.747-.67-1.706 1.19-2.966 4.833-2.966 4.833z" fill="#A27752" fill-rule="nonzero"/><path d="M130.557 72.342s6.378 5.204 8.232 6.171c1.78.967 5.563 2.9 5.563 2.9s-1.484 3.271-5.414 2.379c-3.931-.892-5.118-4.907-5.934-6.32-.89-1.413-2.447-5.13-2.447-5.13z" fill="#FFF" fill-rule="nonzero"/><path d="M156.292 72.268c-2.225-5.28-8.825-8.104-8.825-8.104s.964 1.71 1.038 3.42c0 1.71-.297 2.825-.297 2.825s-11.866-19.33-47.689-14.647C65.883 60.297 46.6 82.23 46.6 82.23s5.637-3.048 11.496-3.717c8.158-.967 12.163 2.602 12.163 2.602s-7.565-.446-18.467 5.874c-18.171 10.483-19.284 19.628-19.284 19.628s6.898-2.9 20.248.595c9.048 2.38 17.577 10.706 17.577 10.706s-.667-4.535-1.483-6.617c-.742-2.082-1.26-3.42-1.26-3.42s5.636 1.71 12.83 11.152c4.08 5.28 5.86 15.763 5.86 15.763s1.557-13.235 12.088-21.264c10.606-8.03 16.836-6.469 16.836-6.469s-7.342-7.063-3.93-15.539c3.411-8.401 11.57-8.327 15.574-7.732 4.005.669 7.788 3.122 9.494 3.643 1.705.52 4.079 1.859 7.713 0 3.56-1.859 7.194-5.725 7.268-5.874.074-.148.297-.446.297-.446-2.002.967-4.153.67-4.153.67s-2.3 5.055-6.824 5.278c-4.524.223-6.452-1.71-8.455-4.163-2.002-2.38-6.526-14.35-6.526-14.35s-5.415-5.353-11.496-3.866c-6.082 1.487-8.752 9.368-8.752 9.368s-3.115-7.138 1.706-12.342c4.82-5.13 9.642-3.94 12.83-2.677 3.19 1.264 16.466 11.302 19.21 13.383 2.744 2.082 8.084 5.65 9.567 4.907 1.558-.669 3.115-.892 2.003-3.94 1.335-.223 2.448-1.784 2.448-1.784s1.631 3.866.89 6.691c0 0 1.557-.149 2.15-.67.668-.445 1.706-1.337.074-5.352zM122.324 80s-8.677.223-12.905 6.543c-4.747 7.137-2.373 12.267-2.373 12.267s-1.41-1.487-6.082 0c-4.747 1.487-5.562 7.064-5.562 7.064s-3.041-4.09-1.855-10.632c.965-5.502 4.08-7.51 4.08-7.51s-5.34-.148-13.499 2.305c-10.235 3.049-21.508 13.457-21.508 13.457s4.747-16.728 30.927-25.724c16.614-5.725 28.777 2.23 28.777 2.23z" fill="#006F71" fill-rule="nonzero"/><path d="M76.86 32.119s7.268 1.115 9.567 7.584c1.855 5.13-.667 10.557-.667 10.557s7.936-2.9 20.99-2.007c13.127.892 18.318 3.197 18.318 3.197s2.448-12.49 15.946-16.283c15.946-4.46 24.327 4.238 24.327 4.238.593-5.204-2.374-33.903-34.562-31.078-32.188 2.825-29.444 29.814-29.444 29.814s-4.672-5.65-11.644-6.691c-7.046-1.115-12.831.669-12.831.669z" fill="#A27752" fill-rule="nonzero"/><path d="M187.442 180.52c0 .595-.074 1.041-.296 1.562-.223.446-.445.818-.816 1.19-.37.297-.742.594-1.187.743-.445.149-.89.297-1.409.297s-1.038-.074-1.483-.297c-.445-.223-.816-.446-1.187-.818a3.239 3.239 0 0 1-.742-1.19c-.148-.446-.296-.966-.296-1.487 0-.594.074-1.04.296-1.56.223-.447.446-.819.816-1.19.371-.298.742-.595 1.187-.744.445-.149.89-.297 1.41-.297.518 0 .963.074 1.408.297.445.149.816.446 1.187.744.37.297.593.743.816 1.19.222.445.297.966.297 1.56zm-.815 0a3.48 3.48 0 0 0-.223-1.263c-.148-.372-.37-.67-.593-.967-.223-.297-.594-.52-.89-.67a2.97 2.97 0 0 0-1.113-.222c-.37 0-.815.074-1.112.223a2.026 2.026 0 0 0-.89.669c-.223.297-.445.595-.594.967a3.48 3.48 0 0 0-.222 1.263c0 .447.074.818.222 1.19.149.372.297.67.594.967.222.297.519.52.89.669a3.068 3.068 0 0 0 2.299 0c.37-.149.667-.372.89-.67.222-.297.445-.594.593-.966.075-.372.149-.743.149-1.19zm-3.56 2.082h-.668v-4.163h1.558c.519 0 .89.074 1.112.297.223.223.371.52.371.892s-.074.67-.297.818c-.222.149-.445.297-.741.297l1.186 1.785h-.741l-1.039-1.785h-.741v1.86zm.741-2.305h.371c.148 0 .223-.074.297-.074l.222-.223c.075-.074.075-.223.075-.372 0-.148 0-.223-.075-.297-.074-.074-.148-.149-.222-.149-.074-.074-.149-.074-.297-.074h-1.112v1.19h.741z" fill="#111" fill-rule="nonzero"/></g></svg>