<svg width="200" height="200" xmlns="http://www.w3.org/2000/svg"><g fill="none"><path fill="#97854A" d="M123.543 199.115H72.409l-38.253-33.22-.086-132.459L72.044.361l90.194-.036v73.743l-53.74-.07v-19.48H87.771v90.248h20.727v-19.14h53.74v40.36l-38.695 33.13"/><path d="M76.442 188.321h43.108l31.888-27.303v-24.596h-32.139v19.139H76.971V43.722l42.328-.001v19.495l32.139.042V11.123l-32.139.004v7.656l-9.12-7.626h-34.09l-31.216 27.19.08 122.625 31.49 27.349zm44.963 5.015H74.567L39.936 163.26l-.082-127.195L74.209 6.14l82.246-.035v62.176l-42.174-.056V48.737H81.988v101.808h32.293v-19.14h42.174v31.92l-35.05 30.011z" fill="#881211"/><path fill="#FFF" d="M119.3 43.72v19.496l32.138.042V11.123l-32.139.004v7.656l-9.12-7.626h-34.09l-31.216 27.19.08 122.625 31.49 27.349h43.107l31.888-27.303v-24.596h-32.139v19.139H76.971V43.722l42.328-.001"/><path fill="#F2F2F2" d="M68.157 163.32l-7.24-6.416-.074-114.55 17.432-14.91h30.363l10.68 9.157-.024 7.143-42.29.012-.026 111.805-8.821 7.76m83.285-152.194L135.33 25.122v24.479l-16.01 13.564 32.129.04-.006.038V11.127M95.714 171.95h22.09l17.54-15.276.034-6.331 16.064-13.87.016 24.544-31.908 27.327H76.442l19.272-16.394"/><path fill="#881211" d="M184.798 118.061H14V81.782h170.798v36.28"/><path fill="#FFF" d="M36.827 95.981v-5.173h-4.04v.97l-1.326-1.025h-3.36l-2.758 2.325v14.45l2.682 1.988h6.155l2.647-2.06v-3.05h-3.971v1.413h-3.638V94.6h3.569v1.382h4.04M53.263 94.6v-3.792h-6.121V94.6h1.113v3.89H44.36V94.6h1.045v-3.79h-6.12v3.79h1.031v11.096h-1.032v3.79h6.121v-3.79H44.36v-3.509h3.895v3.51h-1.113v3.79h6.121v-3.79h-.959V94.598h.96m9.582 6.356h-1.188l.881-3.522h.394l.88 3.522h-.967zm5.818 4.741L65.53 90.787h-5.59l-3.131 14.908h-1.03v3.79h6.125v-3.79h-.99l.202-1.04h3.245l.197 1.04h-.92v3.79h6.121v-3.79h-1.094zm12.011-7.282h-3.44v-3.625h3.44v3.625zm3.216 7.282l-1.573-3.977 2.312-2.291v-5.66l-2.666-2.942H78.64l-1.67 1.297v-1.314h-4.79V94.6h1.22v11.096h-1.116v3.79h6.117v-3.79h-1.088v-3.616h.926l3.12 7.406h4.037v-3.79H83.89zm15.909-1.361h-3.88v1.388h-2.58V94.599h.959v-3.79h-6.12v3.79h1.12v11.123h-1.12v3.794h11.638l-.017-5.182m44.171-8.25l-.022-5.276h-13.278l.024 5.276h3.875V94.6h.78v11.096h-1.136v3.79h6.121v-3.79h-.946V94.6h.7v1.485h3.882m-29.512-.001v-3.37h-.022v-1.906H102.4V94.6h1.161v11.13H102.4v3.787h12.037v-1.899h.022v-3.377h-3.878v1.489h-2.98v-3.543h4.94v-3.698h-4.94V94.6h2.98v1.485h3.878m14.483-.104v-5.173h-4.034v1.033l-1.494-1.054h-3.316l-2.675 2.357v7.159l2.234 1.776h5.239v3.705h-3.513v-1.49h-3.96v3.264l2.834 1.927h6.16l2.479-2.245v-7.09l-2.562-1.737h-4.754v-3.708h3.328v1.276h4.034m44.922-5.139h-6.123v3.794h.987v4.717l-3.8-8.528h-1.326l-.009.017h-3.772v3.794h.908v10.979h-.863v3.799h6.115v-3.8h-1.173v-5.17l4.082 9.041h4.041V94.636h.933v-3.794m-19.822 3.928h-4.157v10.739l4.184.007-.027-10.746zm4.106-1.616v13.855l-2.71 2.53-7.014-.006-2.559-2.524V93.174l2.654-2.439h6.906l2.723 2.419z"/></g></svg>