<svg width="200" height="200" xmlns="http://www.w3.org/2000/svg" xmlns:xlink="http://www.w3.org/1999/xlink"><defs><path id="a" d="M.055.189H199.29v185.144H.055z"/></defs><g fill="none" fill-rule="evenodd"><g transform="translate(0 7)"><mask id="b" fill="#fff"><use xlink:href="#a"/></mask><path d="M101.59 185.388c-28.913 0-55.224-10.172-74.082-28.643C10.026 139.623 0 116.311 0 92.788 0 68.17 9.77 45.155 27.51 27.982 46.023 10.059 71.987.189 100.62.189c34.936 0 69.83 14.192 93.336 37.964l5.334 5.393-32.143 31.413-5.272-5.271C146.367 54.18 123.468 44.92 100.619 44.92c-15.633 0-29.738 5.082-39.718 14.31C51.415 68 46.19 79.918 46.19 92.787c0 11.815 5.397 23.703 14.808 32.62 10.38 9.832 24.797 15.248 40.593 15.248 21.908 0 45.007-9.49 60.284-24.767l5.272-5.272 32.143 31.413-5.334 5.395c-23.156 23.417-58.549 37.963-92.365 37.963m-.972-182.056c-27.812 0-53 9.556-70.925 26.906C12.572 46.815 3.142 69.03 3.142 92.788c0 22.684 9.682 45.176 26.566 61.712 18.267 17.893 43.795 27.746 71.883 27.746 33.007 0 67.543-14.19 90.13-37.03l3.113-3.147-27.661-27.033-3.076 3.075c-15.845 15.844-39.796 25.687-62.506 25.687-16.605 0-31.788-5.721-42.754-16.11-10.034-9.506-15.79-22.227-15.79-34.9 0-13.756 5.584-26.492 15.721-35.866 10.563-9.765 25.425-15.143 41.851-15.143 23.663 0 47.393 9.602 63.478 25.686l3.076 3.077 27.66-27.033-3.112-3.147c-22.928-23.188-56.987-37.03-91.102-37.03" fill="#772430" mask="url(#b)"/></g><path d="m167.207 128.222 21.387 20.9c-21.63 21.873-54.682 35.725-87.003 35.725-58.082 0-94.05-42.286-94.05-85.059 0-44.959 36.21-85.058 93.078-85.058 33.293 0 66.345 13.853 87.975 35.725l-21.387 20.9c-16.039-16.04-40.827-26.976-66.588-26.976-36.94 0-61.97 25.032-61.97 55.41 0 27.704 24.788 55.41 62.942 55.41 24.789 0 49.577-10.938 65.616-26.977" fill="#772430"/><path d="m164.004 74.49 3.075 3.075 27.663-27.033-3.114-3.147c-22.928-23.187-56.986-37.03-91.102-37.03-27.812 0-53 9.556-70.924 26.908-17.123 16.576-26.554 38.79-26.554 62.55 0 22.683 9.684 45.176 26.567 61.711 18.267 17.892 43.796 27.746 71.884 27.746 33.006 0 67.542-14.189 90.13-37.03l3.113-3.147-27.663-27.033-3.075 3.076c-15.844 15.843-39.796 25.687-62.505 25.687-16.605 0-31.788-5.722-42.754-16.11-10.035-9.507-15.79-22.228-15.79-34.9 0-13.756 5.583-26.494 15.72-35.866 10.562-9.766 25.425-15.144 41.851-15.144 23.664 0 47.393 9.602 63.478 25.686M38.555 99.813c0 27.704 24.79 55.409 62.944 55.409 24.787 0 49.576-10.937 65.616-26.975l21.385 20.9c-21.629 21.871-54.68 35.723-87.001 35.723-58.083 0-94.05-42.286-94.05-85.057 0-44.96 36.21-85.059 93.077-85.059 33.294 0 66.345 13.852 87.974 35.725l-21.385 20.9c-16.04-16.04-40.83-26.975-66.589-26.975-36.94 0-61.97 25.03-61.97 55.409" fill="#FFFFFE"/></g></svg>