<svg width="200" height="200" xmlns="http://www.w3.org/2000/svg"><g fill="none"><path fill="#FFF" d="M142.676.337H57.109l-37.752 37.75v124.25l37.752 37.746h123.318V38.09L142.676.337"/><path fill="#231F20" d="M140.636 5.26H59.147L24.28 40.125v120.173l34.867 34.862h81.49l34.867-34.862V40.128L140.636 5.26"/><path d="M166.339 87.252V43.92L136.84 14.425H62.943L33.446 43.92v112.582l29.497 29.495h73.898L166.34 156.5v-42.904h-54.765v25.757H88.016V115.88c.226-1.227.341-2.201.341-2.65 0-.02-.003-.028-.005-.047-.113.067-.224.15-.336.232V61.069h23.558v26.183h54.765" fill="#B5B4B4"/><path d="M139.334 97.523c-2.078 3.105-3.438 4.964-4.91 5.773l-.002-.014c0-2.05 2.092-9.623 2.266-10.274.879-.471 3.951-2.13 3.951-2.13l1.621-8.344-3.222 1.672c.13-.507.301-1.165.489-1.89h7.153c-3.843 4.083-6.833 10.027-7.346 15.207zm-10.532-8.61l-1.665.768-2.554 9.67 1.676-.857c-.487 1.854-.95 3.727-1.225 5.525-1.716 2.504-2.809 4.068-3.572 4.928.24-1.725.993-4.997 1.549-7.07l3.1-11.732-4.845 2.228-4.16 4.203c-1.041-.704-2.632-1.128-5.032-.023-4.437 2.044-12.608 11.05-13.836 20.003a48.419 48.419 0 0 1-2.532 3.694l3.307-17.583-3.544 1.634s-2.83 2.597-4.051 3.627c-1.463-.535-2.987-.439-4.717.358-1.217.56-2.439 1.39-3.619 2.42V56.134h33.427v26.18h14.052l-1.759 6.599zm-15.155 12.63c.366 2.612-2.773 12.633-5.89 14.125-.55-3.013 3.288-12.811 5.89-14.126zm-27.244 42.746c3.041-3.601 5.676-8.9 7.5-15.282 2.22-1.89 3.846-3.54 5.446-5.575 1.028 1.492 3.203 2.992 6.346 1.546 2.526-1.164 4.783-3.493 7.355-7.657.636 1.375 1.695 2.398 3.46 2.311v24.657H86.402zm-3.249-17.866c-.782-2.15 1.618-11.137 5.198-13.24.002.018.006.026.005.047-.126 3.637-2.503 12.433-5.203 13.193zm76.298-44.108h1.952v-36.35l-26.606-26.604H64.986L38.378 45.965v108.49l26.608 26.606h69.812l26.606-26.606v-35.924h-41.937c1.96-1.274 3.748-3.485 6.364-7.093.99 1.562 3.072 2.852 6.105 1.458 2.6-1.196 5.104-3.67 8.83-8.82.96 1.161 3.485 3.152 8.407.887 4.063-1.872 6.957-4.743 11.912-11.818l.296-.423v-8.685l-3.106 4.484c-2.926 4.227-4.539 6.554-6.916 7.648-1.59.734-2.183.457-2.586-.37 5.242-4.088 10.307-8.79 10.679-13.484z" fill="#FFF"/><path d="M121.442 149.223H78.148c-2.647 0-3.706-2.485-3.706-4.625 0-2.815 1.596-5.588 3.706-8.09v-.272a4.064 4.064 0 0 1-1.974-.628c-1.645-1.059-2.55-3.273-2.55-6.234 0-3.939 1.838-8.758 4.524-12.873V51.2h43.294v26.183h35.028V48.01l-23.716-23.717H67.03L43.313 48.011v104.403l23.717 23.713h65.724l23.716-23.713v-28.949h-35.028v25.758" fill="#8E0A26"/><path fill="#B9505A" d="M124.965 152.744H78.147v3.529h50.345v-25.756h24.453v-3.526h-27.98v25.753m0-78.885h3.527V51.2h-3.527v22.66M50.361 50.93c1.805-1.802 17.786-17.784 19.588-19.587h64.872c-1.787-1.787-3.104-3.103-3.526-3.528H68.489c-1.801 1.807-19.848 19.851-21.651 21.654v101.484c.422.422 1.74 1.739 3.523 3.524V50.929"/><path d="M70.35 101.548l-1.045-.06s-4.734 7.746-4.734 8.472c0 .538.232 1.046.638 1.393.725.618 1.654.467 2.052.404.342-.036.523-.004.61.017.013.055.025.14.025.285 0 1.357-.798 2.855-5.155 7.27l-.657.664 1.247 4.767 1.99-1.613c6.923-5.603 10.583-11.101 10.583-15.894 0-3.417-2.025-5.495-5.553-5.705" fill="#FFF"/><path d="M70.263 103.198s-4.041 6.513-4.041 6.77c0 .205.255.24.767.159 1.738-.186 2.557.46 2.557 1.943 0 2.096-1.28 4.016-5.627 8.42l.358 1.37c6.446-5.216 9.975-10.37 9.975-14.617 0-2.507-1.33-3.89-3.989-4.045M151.29 82.42c1.126-.517 1.74.07 1.74 1.604 0 3.223-2.2 6.486-6.394 9.594 0-5.985 2.762-10.327 4.654-11.198m-42.867 34.773c-1.38.636-2.353-.145-2.353-1.935 0-4.195 3.274-13.579 6.956-15.275 1.433-.66 2.303.065 2.303 1.907 0 4.196-3.223 13.609-6.906 15.303m-24.452 10.693c-1.585.73-2.61-.232-2.61-2.534 0-4.245 2.66-12.069 6.6-13.882 1.177-.542 2.048.184 2.048 1.77 0 1.33-1.536 12.575-6.038 14.646m-3.58 17.3c-1.434.662-2.405.035-2.405-1.448 0-2.61 2.558-5.885 8.083-10.424-1.74 7.4-3.378 10.815-5.679 11.873m71.667-47.518c-2.762 1.272-4.605.38-5.22-2.458 4.197-3.208 11.001-8.643 11.001-13.452 0-2.608-2.046-3.407-5.117-1.993-5.763 2.653-11.292 11.401-11.779 18.333-2.437 3.654-4.01 5.918-6.072 6.87-1.228.564-2.098-.11-2.098-1.696 0-2.966 1.943-9.08 2.506-11.384l3.889-2.1.818-4.21-3.424 1.576 2.503-9.646-6.51 3.811-2.328 8.763-1.975.903-1.413 5.35 1.944-.996c-.72 2.93-1.743 6.28-2.159 9.292-3.172 4.63-4.191 6.061-5.361 6.599-.921.424-1.534-.061-1.534-1.442 0-1.534 1.125-6.246 1.689-8.348l2.199-8.328-1.38.636-5.118 5.169c-.818-1.516-2.3-1.805-4.347-.863-4.314 1.985-11.993 10.908-12.946 19.093-2.554 4.123-4.457 6.386-6.697 8.311 0 0 3.225-17.851 3.837-20.026l-.563.259c-2.098 1.938-3.018 2.77-4.706 4.16-1.33-.818-2.61-.843-4.297-.067-5.883 2.709-12.124 12.794-12.124 19.598 0 4.143 1.944 6.114 4.706 4.843 2.251-1.04 4.247-3.337 7.674-8.752l-1.074 5.406c-4.246 3.489-10.488 8.715-10.488 13.728 0 2.659 1.739 3.65 4.35 2.45 4.858-2.238 9.361-9.375 12.02-18.988 3.026-2.534 4.948-4.561 7.346-8.068.424 3.178 2.537 4.695 5.185 3.475 2.918-1.342 5.525-4.589 8.952-11.077-.05 1.557-.1 7.004 3.737 5.237 2.508-1.154 4.63-4.107 8.768-9.905.211 3.459 2.09 4.906 4.786 3.665 2.66-1.225 5.372-4.16 9.823-10.609v-.006c.667 3.43 3.462 4.499 7.416 2.68 3.734-1.72 6.498-4.475 11.256-11.268v-2.866c-3.07 4.431-4.861 7.046-7.675 8.34m18.48 94.222l1.878-5.047h3.09v8.317h-2.142v-5.673h-.04l-1.98 5.673h-1.632l-1.98-5.673h-.04v5.673h-2.14v-8.317h3.088l1.898 5.047zm-6.562-3.33h-2.322v6.6h-2.262v-6.6h-2.3v-1.717h6.884v1.716z" fill="#231F20"/><path fill="#FFF" d="M142.676.337H57.109l-37.752 37.75v124.25l37.752 37.746h123.318V38.09L142.676.337"/><path fill="#231F20" d="M140.636 5.26H59.147L24.28 40.125v120.173l34.867 34.862h81.49l34.867-34.862V40.128L140.636 5.26"/><path d="M166.339 87.252V43.92L136.84 14.425H62.943L33.446 43.92v112.582l29.497 29.495h73.898L166.34 156.5v-42.904h-54.765v25.757H88.016V115.88c.226-1.227.341-2.201.341-2.65 0-.02-.003-.028-.005-.047-.113.067-.224.15-.336.232V61.069h23.558v26.183h54.765" fill="#C8C7C7"/><path d="M139.334 97.523c-2.078 3.105-3.438 4.964-4.91 5.773l-.002-.014c0-2.05 2.092-9.623 2.266-10.274.879-.471 3.951-2.13 3.951-2.13l1.621-8.344-3.222 1.672c.13-.507.301-1.165.489-1.89h7.153c-3.843 4.083-6.833 10.027-7.346 15.207zm-10.532-8.61l-1.665.768-2.554 9.67 1.676-.857c-.487 1.854-.95 3.727-1.225 5.525-1.716 2.504-2.809 4.068-3.572 4.928.24-1.725.993-4.997 1.549-7.07l3.1-11.732-4.845 2.228-4.16 4.203c-1.041-.704-2.632-1.128-5.032-.023-4.437 2.044-12.608 11.05-13.836 20.003a48.419 48.419 0 0 1-2.532 3.694l3.307-17.583-3.544 1.634s-2.83 2.597-4.051 3.627c-1.463-.535-2.987-.439-4.717.358-1.217.56-2.439 1.39-3.619 2.42V56.134h33.427v26.18h14.052l-1.759 6.599zm-15.155 12.63c.366 2.612-2.773 12.633-5.89 14.125-.55-3.013 3.288-12.811 5.89-14.126zm-27.244 42.746c3.041-3.601 5.676-8.9 7.5-15.282 2.22-1.89 3.846-3.54 5.446-5.575 1.028 1.492 3.203 2.992 6.346 1.546 2.526-1.164 4.783-3.493 7.355-7.657.636 1.375 1.695 2.398 3.46 2.311v24.657H86.402zm-3.249-17.866c-.782-2.15 1.618-11.137 5.198-13.24.002.018.006.026.005.047-.126 3.637-2.503 12.433-5.203 13.193zm76.298-44.108h1.952v-36.35l-26.606-26.604H64.986L38.378 45.965v108.49l26.608 26.606h69.812l26.606-26.606v-35.924h-41.937c1.96-1.274 3.748-3.485 6.364-7.093.99 1.562 3.072 2.852 6.105 1.458 2.6-1.196 5.104-3.67 8.83-8.82.96 1.161 3.485 3.152 8.407.887 4.063-1.872 6.957-4.743 11.912-11.818l.296-.423v-8.685l-3.106 4.484c-2.926 4.227-4.539 6.554-6.916 7.648-1.59.734-2.183.457-2.586-.37 5.242-4.088 10.307-8.79 10.679-13.484z" fill="#FFF"/><path d="M121.442 149.223H78.148c-2.647 0-3.706-2.485-3.706-4.625 0-2.815 1.596-5.588 3.706-8.09v-.272a4.064 4.064 0 0 1-1.974-.628c-1.645-1.059-2.55-3.273-2.55-6.234 0-3.939 1.838-8.758 4.524-12.873V51.2h43.294v26.183h35.028V48.01l-23.716-23.717H67.03L43.313 48.011v104.403l23.717 23.713h65.724l23.716-23.713v-28.949h-35.028v25.758" fill="#8E0A26"/><path fill="#B9505A" d="M124.965 152.744H78.147v3.529h50.345v-25.756h24.453v-3.526h-27.98v25.753m0-78.885h3.527V51.2h-3.527v22.66M50.361 50.93c1.805-1.802 17.786-17.784 19.588-19.587h64.872c-1.787-1.787-3.104-3.103-3.526-3.528H68.489c-1.801 1.807-19.848 19.851-21.651 21.654v101.484c.422.422 1.74 1.739 3.523 3.524V50.929"/><path d="M70.35 101.548l-1.045-.06s-4.734 7.746-4.734 8.472c0 .538.232 1.046.638 1.393.725.618 1.654.467 2.052.404.342-.036.523-.004.61.017.013.055.025.14.025.285 0 1.357-.798 2.855-5.155 7.27l-.657.664 1.247 4.767 1.99-1.613c6.923-5.603 10.583-11.101 10.583-15.894 0-3.417-2.025-5.495-5.553-5.705" fill="#FFF"/><path d="M70.263 103.198s-4.041 6.513-4.041 6.77c0 .205.255.24.767.159 1.738-.186 2.557.46 2.557 1.943 0 2.096-1.28 4.016-5.627 8.42l.358 1.37c6.446-5.216 9.975-10.37 9.975-14.617 0-2.507-1.33-3.89-3.989-4.045M151.29 82.42c1.126-.517 1.74.07 1.74 1.604 0 3.223-2.2 6.486-6.394 9.594 0-5.985 2.762-10.327 4.654-11.198m-42.867 34.773c-1.38.636-2.353-.145-2.353-1.935 0-4.195 3.274-13.579 6.956-15.275 1.433-.66 2.303.065 2.303 1.907 0 4.196-3.223 13.609-6.906 15.303m-24.452 10.693c-1.585.73-2.61-.232-2.61-2.534 0-4.245 2.66-12.069 6.6-13.882 1.177-.542 2.048.184 2.048 1.77 0 1.33-1.536 12.575-6.038 14.646m-3.58 17.3c-1.434.662-2.405.035-2.405-1.448 0-2.61 2.558-5.885 8.083-10.424-1.74 7.4-3.378 10.815-5.679 11.873m71.667-47.518c-2.762 1.272-4.605.38-5.22-2.458 4.197-3.208 11.001-8.643 11.001-13.452 0-2.608-2.046-3.407-5.117-1.993-5.763 2.653-11.292 11.401-11.779 18.333-2.437 3.654-4.01 5.918-6.072 6.87-1.228.564-2.098-.11-2.098-1.696 0-2.966 1.943-9.08 2.506-11.384l3.889-2.1.818-4.21-3.424 1.576 2.503-9.646-6.51 3.811-2.328 8.763-1.975.903-1.413 5.35 1.944-.996c-.72 2.93-1.743 6.28-2.159 9.292-3.172 4.63-4.191 6.061-5.361 6.599-.921.424-1.534-.061-1.534-1.442 0-1.534 1.125-6.246 1.689-8.348l2.199-8.328-1.38.636-5.118 5.169c-.818-1.516-2.3-1.805-4.347-.863-4.314 1.985-11.993 10.908-12.946 19.093-2.554 4.123-4.457 6.386-6.697 8.311 0 0 3.225-17.851 3.837-20.026l-.563.259c-2.098 1.938-3.018 2.77-4.706 4.16-1.33-.818-2.61-.843-4.297-.067-5.883 2.709-12.124 12.794-12.124 19.598 0 4.143 1.944 6.114 4.706 4.843 2.251-1.04 4.247-3.337 7.674-8.752l-1.074 5.406c-4.246 3.489-10.488 8.715-10.488 13.728 0 2.659 1.739 3.65 4.35 2.45 4.858-2.238 9.361-9.375 12.02-18.988 3.026-2.534 4.948-4.561 7.346-8.068.424 3.178 2.537 4.695 5.185 3.475 2.918-1.342 5.525-4.589 8.952-11.077-.05 1.557-.1 7.004 3.737 5.237 2.508-1.154 4.63-4.107 8.768-9.905.211 3.459 2.09 4.906 4.786 3.665 2.66-1.225 5.372-4.16 9.823-10.609v-.006c.667 3.43 3.462 4.499 7.416 2.68 3.734-1.72 6.498-4.475 11.256-11.268v-2.866c-3.07 4.431-4.861 7.046-7.675 8.34m18.48 94.222l1.878-5.047h3.09v8.317h-2.142v-5.673h-.04l-1.98 5.673h-1.632l-1.98-5.673h-.04v5.673h-2.14v-8.317h3.088l1.898 5.047zm-6.562-3.33h-2.322v6.6h-2.262v-6.6h-2.3v-1.717h6.884v1.716z" fill="#231F20"/></g></svg>