<svg width="200" height="200" xmlns="http://www.w3.org/2000/svg"><g fill-rule="nonzero" fill="none"><path d="M200 100c0 55.228-44.772 100-100 100S0 155.228 0 100 44.772 0 100 0s100 44.772 100 100" fill="#C8C754"/><path d="M195.856 100c0 52.94-42.916 95.856-95.856 95.856S4.144 152.94 4.144 100C4.144 47.06 47.06 4.144 100 4.144S195.856 47.06 195.856 100" fill="#0D4520"/><path d="M109.814 152.542c-3.291.325-6.9 1.095-9.812 1.038-2.912.057-6.526-.713-9.815-1.038-.527-.059-.911.325-.911.325-1.92 4.097 9.105 6.36 10.693 6.289 1.59.072 12.674-2.192 10.757-6.289 0 0-.391-.384-.912-.325M163.369 94.417c-.452-3.753-3.756-4.922-6.668-5.833-8.428-2.653-11.99.65-14.45.911 2.652-3.04 2.005-8.101-1.486-8.686-6.552-1.034-4.738 6.031-3.179 9.334 1.037 2.076 2.33 5.508 5.57 5.244 3.955-.322 3.361-3.561 9.072-4.011 0 0 7.124.52 7.004 2.789-.264 3.366-3.963 4.595-6.354 5.434-3.564 1.171-7.654-.574-10.566 2.729-.9 1.098-1.62 2.46-1.3 3.689.325 1.234.466.714 4.41 1.032-2.205 2.727-3.498 6.877-3.562 10.507-.123 9.784-2.591 17.36-1.621 20.736 4.735-5.709 4.664-14.32 5.446-21.193.451-3.57 1.744-7.52 3.501-10.107 2.008-3.045 5.833-3.18 8.354-5.053 2.399-1.753 6.152-4.733 5.829-7.522M59.184 80.809c-3.44.585-4.085 5.645-1.498 8.686-2.39-.261-5.956-3.564-14.38-.911-2.912.911-6.22 2.08-6.674 5.833-.326 2.79 3.434 5.77 5.83 7.522 2.467 1.873 6.354 2.008 8.361 5.053 1.682 2.587 3.041 6.537 3.503 10.107.773 6.874.646 15.484 5.442 21.193.9-3.377-1.56-10.952-1.616-20.736-.077-3.63-1.434-7.78-3.567-10.507 3.949-.318 4.013.202 4.337-1.032.385-1.23-.388-2.591-1.297-3.69-2.851-3.302-6.929-1.557-10.564-2.728-2.394-.839-6.083-2.068-6.28-5.434-.128-2.27 7-2.79 7-2.79 5.697.45 5.047 3.69 9 4.012 3.241.264 4.604-3.168 5.645-5.244 1.555-3.303 3.364-10.368-3.242-9.334M100.08 116.653v-.006c-.026 0-.045.004-.068.004l-.06-.004v.006c-3.095.071-4.77 2.687-7.646 5.697-4.988 5.44-15.231 18.981-7.777 25.398 3.303 2.85 7.65 4.794 13.607 2.978 1.492-1.031.646-4.078-.127-5.447-2.789-3.623-7.128-2.193-8.361-4.01-1.17-1.748-.388-3.117.323-4.014 1.037-1.296 2.719-.975 4.146-.586 2.53.572 4.25 1.632 5.836 3.182v.118c.02-.021.042-.035.059-.057.023.022.042.036.068.057v-.12c1.524-1.553 3.307-2.613 5.831-3.18 1.361-.39 3.11-.71 4.085.586.778.897 1.489 2.266.325 4.015-1.235 1.816-5.508.386-8.297 4.01-.773 1.368-1.687 4.415-.203 5.446 6.034 1.816 10.309-.127 13.612-2.978 7.52-6.417-2.718-19.958-7.777-25.398-2.806-3.008-4.551-5.626-7.576-5.697M76.37 108.1c-1.294-2.274-4.6-1.822-6.155-2.73-2.518-1.622-2.393-5.12-.06-7.252 3.048-2.792 10.954 6.153 9.203 13.148-.78.256-1.166-.189-2.989-3.167Zm8.558 14.441c2.66-4.078 5.45-12.962 3.828-16.715-2.591-1.038-5.706-3.051-7.588-5.901-1.88-2.719-2.976-5.76-6.278-6.667-2.205-.785-4.675-.325-6.483.648-2.915 1.682-3.624 5.693-4.081 8.869-.19 6.544 1.032 16.203 3.883 22.291 1.686 4.537 5.574 12.055 10.428 19.115-1.356-11.209 4.863-18.591 6.29-21.64ZM129.766 105.37c-1.488.908-4.796.456-6.15 2.73-1.813 2.977-2.208 3.422-2.983 3.166-1.746-6.995 6.15-15.94 9.2-13.148 2.393 2.131 2.464 5.63-.067 7.253Zm1.815-11.464c-1.815-.973-4.274-1.433-6.475-.648-3.303.907-4.346 3.948-6.296 6.667-1.868 2.85-4.983 4.863-7.575 5.901-1.625 3.753 1.171 12.637 3.826 16.715 1.487 3.049 7.638 10.431 6.347 21.64 4.857-7.06 8.74-14.578 10.364-19.115 2.854-6.088 4.148-15.747 3.89-22.291-.388-3.176-1.163-7.187-4.081-8.87Z" fill="#FFF"/><path d="M169.568 49.168ZM153.66 167.356h.001Zm14.07-13.605c-3.01 4.084-6.469 7.45-10.858 9.009-2.748 1.097-5.632 1.557-8.446.259-2.214-.97-3.597-3.176-3.993-5.643-.51-3.625 1.513-7.9 3.273-10.757 2.43-4.073 7.99-11.201 14.399-15.932 9.1-6.743 15.444-8.622 13.093-10.175-1.639-1.102-10.27 3.633-11.972 4.537-9.692 4.99-23.048 19.436-24.616 30.134-1.083 7.37 6.2 12.902 12.463 12.646-20.801 16.703-43.437 17.248-51.028 17.426l-.054-.003-.013.002c-7.655-.18-30.336-.747-51.058-17.426 6.268.262 13.56-5.272 12.47-12.645-1.571-10.698-14.985-25.143-24.602-30.134-1.703-.904-10.346-5.64-11.982-4.537-2.355 1.553 3.989 3.432 13.09 10.175 6.417 4.73 11.915 11.86 14.332 15.932 1.833 2.856 3.862 7.132 3.338 10.757-.395 2.467-1.83 4.673-3.993 5.643-2.817 1.298-5.689.838-8.504-.26-4.316-1.559-7.789-4.924-10.8-9.008-5.69-7.713-11.25-16.588-14.073-25.98 2.417 5.378 17.737 27.86 24.543 28.185 6.997.388-6.806-18.27-16.297-26.044-2.29-1.88-4.91-4.087-5.424-7.59-.405-2.53.907-4.21 3.397-4.338 3.8-.132 13.68 4.988 13.805 4.797-17.14-30.777 9.099-46.325-1.762-53.068-3.802-2.403-11.84 0-16.231.648 40.384-23.848 47.442-.063 59.617 10.882 1.898 1.753 10.47 0 12.106-2.008 2.16-2.59 6.476-11.925 1.569-18.078-6.769-8.57-34.003-33.163-59.77-14.617 6.275-8.637 15.723-16.438 27.022-22.227 12.729-6.523 26.677-9.925 39.258-9.568h.072c24.699-.687 52.33 12.777 66.142 31.793-25.823-18.542-52.987 6.05-59.83 14.619-4.839 6.153-.585 15.487 1.573 18.078 1.7 2.008 10.272 3.76 12.17 2.008 12.176-10.945 19.243-34.73 59.615-10.882-4.38-.648-12.493-3.05-16.22-.648-10.875 6.743 15.304 22.291-1.774 53.068.134.19 10.02-4.929 13.81-4.797 2.488.128 3.8 1.808 3.404 4.338-.523 3.503-3.206 5.71-5.432 7.59-9.492 7.775-23.294 26.432-16.362 26.044 6.87-.326 22.19-22.807 24.607-28.186-2.813 9.393-8.437 18.268-14.074 25.98ZM100.028 9.35C50.075 9.35 9.385 50.047 9.385 100c0 49.892 40.69 90.65 90.643 90.65 49.89 0 90.587-40.758 90.587-90.65 0-49.953-40.697-90.65-90.587-90.65Z" fill="#FFF"/></g></svg>