<svg width="200" height="200" xmlns="http://www.w3.org/2000/svg"><g fill="none" fill-rule="evenodd"><path d="M91.95 30.38l-1.558.525C73.664 36.21 65.72 46.428 63.898 49.058c-.63.625-5.17 8.395-7.302 10.514-5.255.66-19.03 4.217-25.662 12.076-3.77-.137-9.763-.045-9.83-.04-2.458.177-4.567 1.742-5.372 3.987a5.913 5.913 0 0 0-.343 2.001c0 1.418.5 3.284 2.454 5.142 1.227 1.178 3.226 2.468 5.35 3.576-.865 3.175-1.36 7.445-1.36 11.352 0 1.723.109 3.349.306 4.797-.953.463-1.869.955-2.476 1.363-1.486 1.003-4.576 3.684-6.733 7.361-1.371 2.344-2.013 4.15-2.2 8.661-.034.77-.131 3.109-.664 4.032-.646 1.119-2.793 4.186-3.946 5.833l-1.233 1.78c-.847 1.28-1.38 3.033-2.045 5.363l-.256.855c-.207.637-.975 2.416-1.273 2.898C.349 142.074 0 143.766 0 145.514c0 1.794.366 3.649.793 5.382 1.113 4.507 5.623 11.67 9.427 17.404l.511.775-.108-.183c1.01 1.839 2.416 2.987 4.18 3.419 2.628.636 4.557-.66 5.483-1.281l.46-.304c3.084-1.895 4.749-4.482 5.737-6.03l.25-.374 1.032-.767c1.915-1.381 3.128-2.278 3.94-3.267 3.128-3.8 4.653-9.532 4.879-12.249l.211-2.252c.552-5.73.739-8.12.739-9.426 0-.478-.025-.81-.07-1.11l.037.51c.025-.54.33-1.884.608-2.681 1.682.419 3.86 1.244 4.54 1.636 2.082 1.225 7.892 4.07 16.725 4.025 9.7-.046 14.977-1.355 16.364-1.753 2.003-.58 5.727-1.791 7.215-2.58l-.127.062.266-.117c1.024-.447 2.492-1.132 3.83-2.156 5.057-.167 8.885-.167 11.705-.072-1.7 1.861-3.339 4.239-4.361 7.238-1.06 3.101-1.752 7.35-2.069 12.623-.139 2.334-.227 4.075-.227 5.418 0 3.016.448 4.039 1.8 5.281l1.943 1.786 11.01-1.895c-.01 0-.239.043-.239.043l1.567-.026 3.779-.154c2.345-.299 5.756-1.17 8.304-2.713 2.759-1.675 5.252-4.723 5.824-5.45.645-.662 3.3-2.654 4.257-3.315a69.56 69.56 0 0 0 1.15-.547l3.227-1.714c.06-.039 5.84-4.252 8.027-6.622a86.16 86.16 0 0 0 2.636-3.07 58.65 58.65 0 0 0 1.673 1.927l.424.468c2.446 2.778 5.554 3.005 7.477 2.354l.452-.155.414-.23c1.6-.877 5.278-2.924 6.7-3.881.31-.135 1.123-.304 1.499-.326h.01c2.287 0 4.482-1.355 5.635-2.517-.1.094.264-.24.264-.24 6.711-6.188 18.739-17.712 23.873-25.363 2.397-3.566 3.937-6.508 4.725-10.99 1.168-6.58 1.057-8.23.41-14.15l-.125-1.165c-1.066-9.842-10.482-20.883-12.05-22.155.004 0-.286-.244-.286-.244-1.835-1.573-6.706-5.756-16.373-8.818-4.617-1.465-10.334-1.74-12.938-1.66l-.085-.042c-.431-.554-1.363-1.812-1.864-2.657-2.495-4.18-6.706-8.455-12.517-12.714l-.144-.11c-.005 0-.246-.184-.246-.184-1.864-1.43-7.538-5.774-19.093-8.065-15.617-3.094-25.716.407-31.14 2.289" fill="#D5C581"/><path d="M77.209 121.39l1.947-13.175H64.42L55.675 97.71l5.085-34.389c-4.676.749-20.698 4.583-26.781 12.989-.394.543-1.693.717-2.41.673-.629-.038-9.675-.044-10.075-.018-.403.03-1.462.436.059 1.884 1.337 1.28 4.498 3.133 7.229 4.11.967.344.794 1.94.304 2.781-1.69 2.942-2.577 14.101-1.22 17.938.189.542-.093 2.338-.842 2.553-1.07.306-3.44 1.43-4.356 2.047-.917.62-3.425 2.768-5.1 5.626-.915 1.565-1.32 2.493-1.47 6.165-.092 2.169-.305 4.642-1.376 6.496-1.07 1.855-4.738 6.957-5.35 7.888-.613.926-1.372 4.017-1.68 4.945-.308.929-1.303 3.277-1.874 4.14-.913 1.385-.195 4.5.196 6.064 1.22 4.948 8.986 16.098 9.319 16.7.765 1.395 1.185.717 2.598-.155 3.018-1.855 4.126-4.946 5.043-5.72.917-.77 3.93-2.758 4.587-3.554 2.292-2.786 3.514-7.425 3.669-9.279.153-1.86 1.068-10.513.916-11.598-.154-1.083.762-5.257 1.68-6.337.915-1.085 2.742-2.27 3.668-2.17 2.484.272 6.507 1.796 7.87 2.59 2.638 1.55 7.45 3.32 13.984 3.289 7.795-.039 12.852-.955 14.903-1.548 2.406-.695 5.385-1.741 6.189-2.16.296-.16 1.314-.553 2.271-1.086l-5.502-7.185" fill="#211D1D"/><path d="M193.342 85.317c-.85-7.86-8.941-17.626-10.086-18.555-1.145-.928-5.39-5.104-14.898-8.118-4.57-1.447-10.895-1.508-11.696-1.39-.907.128-2.867-.93-3.325-1.391-.455-.468-2.059-2.595-2.864-3.946-3.32-5.565-9.973-10.323-11.232-11.247-1.263-.928-6.077-5.106-17.192-7.308-15.963-3.162-25.494 1.227-30.034 2.669-8.788 2.784-14.845 7.023-18.674 10.504h40.871l7.777 10.715-2.067 13.945h-13.834l1.667-11.242H75.72l-5.143 34.741h10.577l1.824-12.352h-4.252l1.66-11.19h18.609l-3.484 23.542h7l1.822-12.31h13.939l-2.283 15.43-11.002 10.4H93.514l-1.475 9.969h27.396l6.976-47.173h18.53l-1.675 11.315h-4.298l-5.796 39.192-10.619 10.258h-15.53c-3.146 1.528-6.112 4.314-7.672 9.326-2 6.437-1.949 17.625-1.949 17.625s7.107-1.16 8.139-1.39c1.03-.234 3.784 0 5.618-.234 1.836-.228 4.469-.926 6.188-1.967 1.716-1.047 3.67-3.25 4.468-4.294.807-1.045 4.815-3.94 5.505-4.406.687-.463 3.324-1.511 4.128-2.09.8-.577 5.613-4.174 7.22-5.912 1.605-1.741 4.508-5.313 5.386-6.612 1.49-2.2 3.004-.365 3.212.349.574 1.97 3.207 4.642 4.126 5.68.916 1.05 1.717.816 1.717.816s5.274-2.896 6.42-3.713c1.143-.813 3.554-1.16 4.241-1.16.688 0 1.604-.578 1.949-.924.343-.349 17.421-15.776 23.495-24.821 2.009-2.992 3.256-5.295 3.9-8.932 1.144-6.49.918-7.419.228-13.799" fill="#211D1D"/><path d="M163.993 99.869c-1.525 2.32-3.588 2.324-3.588 2.324-4.663.206-4.869-4.462-4.869-4.462.241-10.068 11.65-16.299 15.606-18.354 0 0 1.474-.845.738.44-3.81 6.633-5.544 11.553-6.045 13.865 0 0-.895 4.74-1.842 6.187" fill="#FFF" fill-rule="nonzero"/><path d="M163.993 99.869c-1.525 2.32-3.586 2.324-3.586 2.324-4.665.206-4.87-4.462-4.87-4.462.242-10.068 11.649-16.299 15.605-18.354 0 0 1.474-.845.738.44-3.808 6.633-5.544 11.553-6.045 13.865 0 0-.895 4.74-1.842 6.187" fill="#FFF" fill-rule="nonzero"/><path d="M143.634 151.299h.95c.475 0 1.384 0 1.384-.911 0-.266-.115-.618-.46-.78-.232-.087-.434-.087-1.14-.087h-.734v1.778zm.936-2.689c.66 0 1.124.014 1.512.162.71.25 1.039.909 1.039 1.529 0 .455-.174 1.263-1.326 1.555.62.265.805.649.92 1.382.131.908.204 1.379.493 1.97h-1.312c-.191-.384-.217-.634-.347-1.44-.217-1.398-.301-1.532-1.932-1.532v2.971h-1.153v-6.597h2.106zm.06-1.425c-2.539 0-4.658 2.086-4.658 4.76 0 2.688 2.105 4.757 4.67 4.757 2.694 0 4.671-2.2 4.671-4.742 0-2.646-1.99-4.775-4.682-4.775zm0 9.99c-2.67 0-5.119-2.132-5.119-5.23 0-3.012 2.366-5.232 5.12-5.232 2.88 0 5.142 2.278 5.142 5.247 0 2.789-2.163 5.215-5.142 5.215z" fill="#211D1D" fill-rule="nonzero"/></g></svg>