<svg width="200" height="200" xmlns="http://www.w3.org/2000/svg"><g fill-rule="nonzero" fill="none"><path d="M157.628 71.999s17.322 25.738 4.209 58.462l-16.785-18.981s-.108 12.334-7.243 26.808c-7.44 15.097-15.176 14.826-17.553 15.522-.844.144-13.436 24.333-16.091 23.632-7.641-2.007-15.667-21.955-16.504-21.394-3.656 2.432-5.454-2.078-5.454-2.078 14.454 28.332 17.463 22.558 17.463 24.31 0 .98-1.64 9.377-2.059 9.23-11.29-3.761-28.636-48.753-28.636-48.753l-4.754 12.311c-6.995-6.44-3.73-41.517-4.85-40.96-13.924 6.967-16.582 15.714-18.476 20.033l-1.915-5.837c-12.588-19.72 3.394-52.86 3.394-52.86-3.633-.28-12.869 7.972-12.869 7.551 0-18.08 20.843-34.815 16.652-34.4-4.201.423-10.075 2.097-10.075 2.097-1.432-5.714 8.263-15.102 7.632-15.102-11.33 0-15.11-4.823-15.11-4.823 5.459-.626 11.219-11.815 17.09-12.1 9.312-.44 10.491 5.04 10.491 5.04 6.507-4.2 15.53-4.835 15.53-4.835-1.466-3.36-5.876-5.317-5.876-5.317 8.12-2.952 20.895 2.809 20.895 2.809.628-4.823-1.192-6.369-1.192-6.369 6.223-1.03 14.864 8.957 14.864 8.957l.263.63s8.368-10.062 14.592-9.023c0 0-1.82 1.534-1.19 6.365 0 0 12.77-5.757 20.894-2.81 0 0-4.406 1.957-5.875 5.318 0 0 6.625.634 13.13 4.825 0 0 3.584-5.47 12.89-5.03 5.874.28 11.628 11.468 17.086 12.102 0 0-3.776 4.825-15.106 4.825-.63 0 9.86 9.387 8.434 15.098 0 0-5.88-1.675-10.075-2.094-4.196-.418 15.047 16.316 15.047 34.399 0 .42-9.227-7.831-12.868-7.558" fill="#88C3EC"/><path d="M84.116 105.11s-5.997 5.661 1.999 19.05c0 0-.199-4.153 1.396-9.807.996-3.519 2.2-6.975 2.2-8.489 0-1.508-4.197-.755-5.595-.755" fill="#FFF"/><path d="M84.331 105.59c-.35.404-1.376 1.764-1.75 4.184-.387 2.516-.126 6.682 3.076 12.603.092-1.756.403-4.663 1.388-8.155.267-.947.548-1.881.82-2.785.7-2.333 1.361-4.536 1.361-5.573a.174.174 0 0 0-.064-.146c-.506-.467-2.64-.293-3.786-.2-.399.032-.755.06-1.045.071Zm1.368 18.818c-3.376-5.653-4.742-10.656-4.06-14.871.52-3.215 2.078-4.717 2.144-4.78l.14-.132h.193c.28 0 .699-.033 1.182-.073 2.026-.164 3.765-.243 4.52.454.247.227.377.523.377.858 0 1.18-.65 3.344-1.403 5.851-.27.9-.55 1.831-.815 2.77-1.552 5.502-1.38 9.611-1.378 9.652l-.9.271Z" fill="#114781"/><path d="M118.74 105.11s5.989 5.661-2 19.05c0 0 .195-4.153-1.397-9.807-1.001-3.519-2.2-6.975-2.2-8.489 0-1.508 4.198-.755 5.596-.755" fill="#FFF"/><path d="M115.4 105.408c-.762 0-1.45.07-1.71.31a.174.174 0 0 0-.063.146c0 1.048.67 3.28 1.38 5.643.266.882.54 1.793.802 2.714.984 3.493 1.295 6.401 1.387 8.157 5.833-10.783 2.069-15.935 1.329-16.789-.29-.01-.647-.04-1.046-.072-.56-.045-1.353-.11-2.078-.11Zm1.755 19-.9-.27c.002-.042.171-4.151-1.378-9.654-.26-.913-.533-1.82-.797-2.698-.763-2.539-1.422-4.732-1.422-5.922 0-.334.13-.631.376-.858.757-.697 2.496-.618 4.523-.454.483.04.901.073 1.182.073h.193l.14.133c.066.062 1.622 1.565 2.141 4.779.681 4.215-.685 9.218-4.058 14.871Z" fill="#114781"/><path d="M88.11 142.444s-5.993-5.659 2-19.048c0 0-.2 4.15 1.4 9.812.994 3.515 2.197 6.972 2.197 8.48 0 1.507-4.198.756-5.598.756" fill="#FFF"/><path d="M88.325 141.964c.29.01.645.04 1.043.072 1.148.092 3.284.264 3.79-.202a.174.174 0 0 0 .065-.147c0-1.033-.661-3.235-1.361-5.567-.271-.903-.552-1.836-.819-2.78-.987-3.496-1.299-6.402-1.39-8.158-1.941 3.6-3.738 8.3-3.076 12.6.373 2.419 1.398 3.778 1.748 4.182Zm3.109 1.148c-.648 0-1.375-.05-2.143-.111-.483-.04-.9-.073-1.182-.073h-.192l-.14-.132c-.066-.063-1.624-1.565-2.143-4.778-.68-4.214.685-9.217 4.06-14.87l.9.27c-.002.042-.176 4.148 1.381 9.659.265.936.544 1.865.814 2.764.753 2.507 1.403 4.67 1.403 5.846 0 .335-.13.631-.376.858-.47.434-1.32.567-2.382.567Z" fill="#114781"/><path d="M114.74 142.444s5.995-5.659-2-19.048c0 0 .201 4.15-1.397 9.812-.995 3.515-2.197 6.972-2.197 8.48 0 1.507 4.193.756 5.594.756" fill="#FFF"/><path d="M113.199 125.18c-.092 1.755-.403 4.663-1.39 8.16-.267.94-.545 1.87-.815 2.768-.701 2.337-1.364 4.544-1.364 5.58 0 .064.017.102.065.146.506.466 2.638.294 3.785.202.399-.032.755-.061 1.045-.072.35-.404 1.375-1.764 1.748-4.183.388-2.516.126-6.681-3.074-12.602Zm-1.782 17.932c-1.06 0-1.91-.133-2.379-.566a1.14 1.14 0 0 1-.376-.859c0-1.177.65-3.346 1.404-5.857.269-.895.547-1.821.81-2.754 1.556-5.51 1.383-9.616 1.381-9.657l.9-.271c3.375 5.653 4.74 10.656 4.06 14.87-.52 3.213-2.078 4.715-2.144 4.778l-.14.132h-.193c-.282 0-.7.034-1.182.073-.768.062-1.494.111-2.14.111Z" fill="#114781"/><path d="m89.238 106.336 3.594 9.806 3.796-8.017 4.3 8.109 4.495-8.491 3.994 8.4 3.904-9.246s-9.496-4.53-12.295-4.53c-2.8 0-10.991 3.118-11.788 3.969" fill="#FFF"/><path d="m96.603 107.046 4.324 8.153 4.519-8.535 3.945 8.296 3.303-7.823c-1.855-.865-9.334-4.286-11.668-4.286-2.525 0-9.737 2.71-11.213 3.647l3.076 8.393 3.714-7.845Zm-3.828 10.348-4.095-11.171.204-.218c.938-1 9.24-4.122 12.142-4.122 2.876 0 12.112 4.39 12.504 4.577l.417.2-4.504 10.665-4.043-8.504-4.472 8.447-4.276-8.063-3.877 8.19Z" fill="#114781"/><path d="m93.635 139.807 2.596-8.104 4.795 5.658 4.994-5.845 3.001 7.73s-6.397 1.696-8.395 1.696c-1.996 0-6.991-1.135-6.991-1.135" fill="#FFF"/><path d="M94.258 139.448c1.32.286 4.82 1.01 6.368 1.01 1.586 0 6.187-1.144 7.747-1.544l-2.51-6.468-4.838 5.662-4.599-5.426-2.168 6.766Zm6.368 1.978c-2.027 0-6.892-1.1-7.098-1.147l-.516-.117 3.024-9.438 4.992 5.89 5.15-6.029 3.49 8.99-.522.138c-.264.07-6.483 1.713-8.52 1.713Z" fill="#114781"/><path d="M121.562 118.816c-2.215 5.909-2.963 10.364-2.617 12.317.497 2.858.069 6.645-2.13 8.3-1.501 1.133-3.494.255-5.125.129-1.62-.13-12.307-1.113-19 .622-3.996 1.038-6.396.894-7.249-.496-1.997-3.277-.75-5.762-.874-8.305-.249-5.152.189-6.854-2.5-11.693-2.74-4.928-3.284-9.677 2.437-13.518 3.263.438 4.879.881 9.624.35 2.996-.338 6.25-1.037 6.498-2.796h.48c.25 1.76 3.708 2.61 6.501 2.763 5.555.313 4.896.69 11.23-.497 1.753 1.799 6.01 4.075 2.725 12.824Zm6.04-21.38c-.498 1.008-1.691 1.77-3.498 2.518-4.101 1.694-15.5 1.255-17.998-.756l-1.498-7.543h-7.481l-1.499 7.543c-2.501 2.01-11.498 2.575-16.501.756-1.836-.671-2.995-1.51-3.501-2.517l-3.995.69s2.026 2.882 2.497 3.838c.444.877 2.256 1.95 4.66 2.453-1.062 1.35-4.811 7.952-1.343 14.645 1.843 3.56 4.495 7.072 3.87 12.194-.739 6.076-1.895 9.334 1.004 12.575 2.248 2.52 6.014 2.249 11.249.762 7.493-2.144 15.875-.257 18.248.246 2.41.51 6.997 1.005 9.125-1.386 2.126-2.389 2.275-8.352 2.126-12.32-.25-6.605 1.619-9.557 3-12.07 3.314-6.035.26-12.91-1.406-14.917 2.794-.307 4.115-1.533 4.441-2.182.473-.956 1.963-3.651 1.963-3.651l-3.462-.877Z" fill="#114781"/><path d="M83.422 123.943c.357 2.844 3.208 8.185 3.208 8.185-1.428 4.269 1.78 10.678 1.78 10.678l-3.917.358L82 133.2l1.422-9.256M120.19 126.078c-.22 2.488-3.08 6.407-3.08 6.407l-.224 8.9 3.083 1.42 1.543-10.677-1.322-6.05M90.188 127.498l5.338 6.41-2.136 4.985zM112.26 128.215l-5.699 4.984 2.46 6.047zM87.51 114.353l5.525 3.184-3.493-10.368zM92.832 116.142l3.796-8.017 2.814 5.503zM101.218 117.184l7.55-2.181-3.345-7.26zM109.417 116.142l5.926-1.789-2.026-7.557z" fill="#114781"/><path d="M86.983 118.25c7.476-.713 11.392 3.916 13.529 4.631 2.133.712 5.093-7.832 15.775-4.271l-1.142-4.982-5.728 2.514-4.214-5.315-4.389 5.714-3.508-5.59-4.474 5.191-4.776-3.937-1.073 6.046M77.372 115.757l5.341.361-1.142-10.747zM120.57 115.984l5.924-.935-5.651-10.316zM69.747 60.84s-18.784 15.577 2.398 28.766c0 0-18.161 2.794-23.385-8.393-2.792-5.996 6.309-14.571 6.996-14.981M131.937 60.84s18.79 15.577-2.393 28.766c0 0 18.162 2.794 23.38-8.393 2.8-5.996-6.31-14.571-6.995-14.981M100.512 155.612c.036.175.067.354.1.544.792-.16-.1-.544-.1-.544" fill="#114781"/><path d="M48.298 19.022c4.517-.218 7.018 1.031 8.388 2.305l-8.954 8.453c-10.025-.266-13.422-4.564-13.422-4.564 5.195-.604 8.395-5.926 13.988-6.194Zm24.515-6.398c7.733-2.81 16.852 4.203 16.852 4.203.602-4.603-1.132-6.065-1.132-6.065 5.93-.988 11.873 8.528 11.873 8.528l.25.595s5.688-9.578 11.613-8.589c0 0-1.731 1.466-1.136 6.061 0 0 9.127-7.012 16.854-4.2 0 0-4.192 1.865-5.595 5.064 0 0 9.902 1.512 16.726 4.387 3.84 3.009 10.65 10.097 15.03 20.53-.974-.17-1.95-.323-2.84-.415-2.234-.22-1.607 10.468 2.312 18.653 3.761 5.812 4.658 12.74 4.235 16.232-1.248 10.248-9.437 21.43-15.134 29.26-5.694 7.83-7.829 22.413-9.964 29.175-2.137 6.763-4.397 17.793-18.951 18.504-9.064.44-16.702 1.655-25.75-.352-12.817-2.85-16.02-11.745-18.16-18.505-2.132-6.764-4.269-21.35-9.967-29.174-5.695-7.835-15.656-16.818-16.727-29.272-.549-6.37.836-8.258 3.49-15.228 3.825-5.588 4.28-19.968 2.809-19.823-.79.08-1.635.204-2.493.352 4.708-11.073 12.127-18.323 15.728-20.887 6.741-2.598 15.671-3.966 15.671-3.966-1.399-3.201-5.594-5.068-5.594-5.068Zm79.692 6.93c5.593.267 8.791 5.594 13.987 6.193 0 0-3.296 4.185-12.998 4.558l-9.148-8.644c1.415-1.2 3.884-2.311 8.159-2.107ZM170.89 56.31s3.797-1 11.388 3.398c0 0-4.795-18.782-14.986-24.977-.51-.305 4.392-.397 11.592-11.383 0 0-7.837-3.316-11.39-5.391-5.798-3.399-11.394-6.395-14.592-6.595-1.412-.086-7.458-1.537-10.79 1.794-.6.6-4.528-1.594-6.128-1.594 0 0 .598-1.067 7.195-2.67.586-.14-11.126-7.05-23.985-3.192 0 0 1.332-3.197 5.599-3.994 0 0-13.296-4.646-24.138 4.096C89.8-3.053 76.012 1.175 76.012 1.175c4.26.8 5.591 3.993 5.591 3.993C68.75 1.306 57.042 8.225 57.623 8.37c6.598 1.592 7.195 2.656 7.195 2.656-1.594 0-5.525 2.2-6.124 1.598-3.334-3.332-9.382-1.884-10.794-1.793-3.2.195-8.793 3.195-14.586 6.587-3.56 2.084-11.396 5.396-11.396 5.396 7.199 10.992 12.107 11.077 11.592 11.39-10.188 6.192-14.987 24.973-14.987 24.973 7.598-4.396 11.39-3.402 11.39-3.402-19.385 14.985-14.395 52.222-14.189 48.546.203-3.595 7.482-8.081 9.03-8.526-.778 5.555-.865 12.787.96 22.309 4.797 25.042 21.849 37.297 21.849 37.297-2.484-7.61-1.982-14.578-1.127-19.077.174.32.3.644.328.962.992 10.901 4.403 20.187 6.597 23.174 6.262 8.523 2.955 6.261 15.882 16.25l-.56-13.19c.484 1.092 2.418 6.41 3 7.523 11.193 21.48 33.907 28.176 33.907 28.176-1.933-12.65 2.316-12.476 7.857-16.98 5.513-4.498 7.661-7.634 9.857-10.946l.022-.02.06-.114c1.065-1.604 2.146-3.257 3.645-5.122-1.008 5.987-1.913 9.81-6.239 13.067-.709.53 31.277-15.44 29.825-41.553-.134-2.399 3.376 12.39 2.62 18.38 0 0 17.053-12.254 21.853-37.298 1.823-9.52 1.737-16.747.955-22.309 1.55.444 8.83 4.934 9.033 8.532.206 3.681 5.197-33.564-14.187-48.545Z" fill="#114781"/><path d="M93.862 51.582s5.796-5.996 13.99-.602l-2.6 1.201s-4.397-2.7-8.99 0l-2.4-.6M128.908 88.668s-1.254 2.389.752 2.072c10.854-1.689 25.713 2.606 36.479 10.799 0 0-17.31-15.595-37.231-12.871M127.954 88.77s-.77 1.492-.068 2.078c.264.233-1.269.192-1.269.192s-.394-1.732.136-1.998c.537-.271 1.2-.271 1.2-.271" fill="#114781"/><path d="M125.114 92.879s-1.309 2.35.704 2.09c10.89-1.433 25.647 3.199 36.211 11.648 0 0-16.941-16.004-36.915-13.738M124.205 92.969s-.763 1.483-.065 2.08c.265.225-1.263.18-1.263.18s-.403-1.73.129-1.992c.533-.268 1.199-.268 1.199-.268" fill="#114781"/><path d="M121.597 97.29s-1.445 2.274.582 2.121c10.957-.806 25.42 4.672 35.482 13.707 0 0-15.997-16.937-36.064-15.829M120.656 97.364s-.763 1.48-.063 2.084c.262.223-1.266.18-1.266.18s-.402-1.732.13-2c.538-.264 1.2-.264 1.2-.264M71.682 88.668s1.259 2.389-.749 2.072c-10.85-1.689-25.713 2.606-36.472 10.799 0 0 17.305-15.595 37.221-12.871M72.645 88.77s.765 1.492.066 2.078c-.265.233 1.266.192 1.266.192s.395-1.732-.135-1.998c-.535-.271-1.197-.271-1.197-.271" fill="#114781"/><path d="M75.476 92.879s1.314 2.35-.698 2.09c-10.888-1.433-25.649 3.199-36.212 11.648 0 0 16.942-16.004 36.91-13.738M76.394 92.969s.762 1.483.065 2.08c-.267.225 1.265.18 1.265.18s.395-1.73-.136-1.992c-.533-.268-1.194-.268-1.194-.268" fill="#114781"/><path d="M78.999 97.29s1.443 2.274-.579 2.121c-10.958-.806-25.423 4.672-35.487 13.707 0 0 15.995-16.937 36.066-15.829M79.938 97.364s.765 1.48.065 2.084c-.266.223 1.27.18 1.27.18s.396-1.732-.138-2c-.532-.264-1.197-.264-1.197-.264M45.615 65.168l6.407-8.836-11.495 3.95zM156.941 66.468l-7.83-9.277 11.499 3.95zM86.308 44.917l-3.664-7.084c-9.419-2.456-13.052-6.35-15.103-11.675 12.702 6.146 22.02 9.629 22.02 9.629l.844 14.252-4.097-5.122M96.757 8.644h8.556c-1.64 14.747-2.638 27.852-2.638 27.852l-3.28-.407c-1.226-15.567-2.638-27.445-2.638-27.445M119.565 83.62c-.18.187-.01.39-.236.586.427-.506-.243-.523-.29-1.083 2.049-1.368 0-2.047 0-2.047-3.751-.684-7.943 1.824-12.623 2.677-2.069.377-7.174 1.299-10.552 0-4.436-1.704-8.872-3.361-12.624-2.677 0 0-1.105.371-.873 1.109-.557.285-1.075 1.15-.493 3.664 1.022 4.435 11.939 5.796 14.33 7.507 0 0-.044-.338-.167-.81 1.96 1.771 3.325 4.291 3.215 8.313 0 0-.275 1.781 1.889.912 2.164.87 1.891-.912 1.891-.912-.952-3.784.729-6.496 3.305-8.639a7.566 7.566 0 0 0-.263 1.136c2.39-1.71 13.31-3.072 14.331-7.507 1.027-4.431-.84-2.229-.84-2.229" fill="#114781"/><path d="M89.708 56.542c-1.769 4.068-5.274 24.534-5.274 24.534l-3.16 4.722c-6.373-4.722 2.128-24.844 2.128-29.623 0-4.773 6.306.367 6.306.367M115.237 44.917l3.663-7.084c9.425-2.456 13.06-6.35 15.104-11.675-12.7 6.146-22.018 9.629-22.018 9.629l-.846 14.252 4.097-5.122M112.193 56.542c1.701 4.068 5.119 24.534 5.119 24.534l3.048 4.722c6.14-4.722-2.05-24.844-2.05-29.623 0-4.773-6.117.367-6.117.367M76.45 50.717c0 2.778-2.25 4.125-5.025 4.125-2.778 0-5.029-1.347-5.029-4.125a5.028 5.028 0 0 1 10.053 0" fill="#114781"/><path d="M71.425 46.812a3.91 3.91 0 0 0-3.908 3.905c0 2.787 2.991 3.004 3.908 3.004.916 0 3.903-.217 3.903-3.004a3.909 3.909 0 0 0-3.903-3.905Zm0 9.15c-3.736 0-6.15-2.058-6.15-5.245a6.155 6.155 0 0 1 6.15-6.147 6.153 6.153 0 0 1 6.146 6.147c0 3.187-2.413 5.245-6.146 5.245Z" fill="#114781"/><path d="M56.748 45.032c7.709-1.906 6.826-1.961 13.986-2.11 17.403-.366 14.647 11.17 18.742 12.898l-5.432 5.492c-2.34-2.328-1.073-3.592-4.12-7.183.681-7.846-6.082-8.461-9.564-7.627-2.87 2.552-5.91-.847-3.678 2.664-12.72-1.908-9.934-4.134-9.934-4.134M125.345 50.717c0 2.778 2.247 4.125 5.026 4.125 2.778 0 5.03-1.347 5.03-4.125a5.03 5.03 0 0 0-5.03-5.026 5.026 5.026 0 0 0-5.026 5.026" fill="#114781"/><path d="M130.37 46.812a3.909 3.909 0 0 0-3.903 3.905c0 2.787 2.988 3.004 3.904 3.004.917 0 3.91-.217 3.91-3.004a3.912 3.912 0 0 0-3.91-3.905Zm0 9.15c-3.733 0-6.146-2.058-6.146-5.245a6.154 6.154 0 0 1 6.147-6.147c3.392 0 6.152 2.758 6.152 6.147 0 3.187-2.415 5.245-6.152 5.245Z" fill="#114781"/><path d="M145.048 45.032c-6.825-2.54-6.826-1.952-13.99-2.11-16.644-.366-14.645 11.17-18.744 12.898l5.439 5.492c2.34-2.328 1.066-3.592 4.119-7.183-.682-7.846 6.08-8.461 9.562-7.627 2.874 2.552 6.795-1.484 4.562 2.03 11.765-.32 9.052-3.5 9.052-3.5" fill="#114781"/><path d="M75.379 50.373c0 1.821-1.722 3.295-3.844 3.295-2.116 0-3.84-1.474-3.84-3.295 0-1.81 1.724-3.289 3.84-3.289 2.122 0 3.844 1.479 3.844 3.289" fill="#FFF"/><path d="M74.233 49.004c0 1.537-1.163 2.79-2.595 2.79-1.428 0-2.593-1.253-2.593-2.79 0-1.544 1.165-2.794 2.593-2.794 1.432 0 2.595 1.25 2.595 2.794" fill="#114781"/><path d="M134.394 50.373c0 1.821-1.72 3.295-3.845 3.295-2.117 0-3.839-1.474-3.839-3.295 0-1.81 1.722-3.289 3.839-3.289 2.126 0 3.845 1.479 3.845 3.289" fill="#FFF"/><path d="M133.244 49.004c0 1.537-1.162 2.79-2.589 2.79-1.435 0-2.595-1.253-2.595-2.79 0-1.544 1.16-2.794 2.595-2.794 1.427 0 2.59 1.25 2.59 2.794" fill="#114781"/></g></svg>