<?xml version="1.0" encoding="UTF-8"?>
<svg width="200px" height="200px" viewBox="0 0 200 200" version="1.1" xmlns="http://www.w3.org/2000/svg" xmlns:xlink="http://www.w3.org/1999/xlink">
    <!-- Generator: Sketch 51.3 (57544) - http://www.bohemiancoding.com/sketch -->
    <title>columbia</title>
    <desc>Created with Sketch.</desc>
    <defs></defs>
    <g id="columbia" stroke="none" stroke-width="1" fill="none" fill-rule="evenodd">
        <g id="columbia_BGL" transform="translate(13.733906, 0.000000)">
            <g id="columbia">
                <g id="g10" transform="translate(85.972193, 100.126475) scale(-1, 1) rotate(-180.000000) translate(-85.972193, -100.126475) translate(0.000000, 0.037774)" fill-rule="nonzero">
                    <g id="g12">
                        <path d="M143.462566,127.856483 C143.462566,127.856483 160.885671,101.989831 147.695334,69.1016389 L130.812531,88.1782564 C130.812531,88.1782564 130.703981,75.7825874 123.527472,61.2356223 C116.042886,46.0634639 108.262236,46.3356252 105.871475,45.6364484 C105.022208,45.491592 92.3572689,21.181724 89.6860139,21.8855441 C82.0003445,23.9028702 73.9276335,43.9506037 73.0854841,43.3865077 C69.4083655,40.9423883 67.5997241,45.474929 67.5997241,45.474929 C82.1389233,17.0013044 85.1656338,22.8046717 85.1656338,21.0435549 C85.1656338,20.0595752 83.5149232,11.6196205 83.0945159,11.7675874 C71.7381786,15.5479187 54.2910507,60.7643945 54.2910507,60.7643945 L49.5086389,48.3913871 C42.4727102,54.8632714 45.756114,90.1164891 44.6308013,89.5557257 C30.6252304,82.5552932 27.9513061,73.7643726 26.0461267,69.4231224 L24.1198158,75.2895867 C11.4590145,95.1087046 27.5337905,128.413692 27.5337905,128.413692 C23.879583,128.695629 14.589826,120.401708 14.589826,120.824724 C14.589826,138.9951 35.554896,155.814668 31.3390332,155.39765 C27.1131607,154.971745 21.2051026,153.289678 21.2051026,153.289678 C19.7650628,159.031947 29.5168231,168.466724 28.8822081,168.466724 C17.4855207,168.466724 13.6843486,173.314749 13.6843486,173.314749 C19.1744906,173.94372 24.9679709,185.188757 30.8741383,185.474693 C40.2403249,185.917483 41.4259181,180.409827 41.4259181,180.409827 C47.9711491,184.629771 57.0470545,185.26874 57.0470545,185.26874 C55.5722922,188.645539 51.1359935,190.612654 51.1359935,190.612654 C59.3036856,193.579323 72.153025,187.789731 72.153025,187.789731 C72.7847483,192.636868 70.954308,194.189853 70.954308,194.189853 C77.2143738,195.224955 85.9059067,185.188757 85.9059067,185.188757 L86.1703852,184.555788 C86.1703852,184.555788 94.5867626,194.667968 100.846828,193.623758 C100.846828,193.623758 99.0163881,192.081659 99.6503357,187.226746 C99.6503357,187.226746 112.495004,193.012561 120.666477,190.051446 C120.666477,190.051446 116.234405,188.083665 114.757641,184.705532 C114.757641,184.705532 121.421431,184.068786 127.963548,179.856618 C127.963548,179.856618 131.569264,185.354498 140.929445,184.912819 C146.838059,184.629771 152.625222,173.386733 158.114986,172.749765 C158.114986,172.749765 154.317306,167.900851 142.92093,167.900851 C142.287205,167.900851 152.83765,158.466074 151.404484,152.726693 C151.404484,152.726693 145.489419,154.41076 141.27022,154.831777 C137.05013,155.251683 156.405329,138.434115 156.405329,120.260629 C156.405329,119.838723 147.124336,128.130644 143.462566,127.856483" id="path14" fill="#88C3EC"></path>
                        <path d="M69.5200293,94.5801563 C69.5200293,94.5801563 63.4877398,88.890097 71.5306442,75.4344431 C71.5306442,75.4344431 71.3311175,79.6081753 72.9346713,85.2904585 C73.936531,88.827 75.1477046,92.3004445 75.1477046,93.8218816 C75.1477046,95.3373201 70.9262808,94.5801563 69.5200293,94.5801563" id="path16" fill="#FFFFFF"></path>
                        <path d="M69.7364612,94.098042 C69.3841198,93.6916886 68.3522311,92.3248835 67.9769786,89.8925392 C67.5866003,87.3633278 67.8499666,83.1767096 71.0704205,77.226042 C71.1625097,78.9909801 71.4752572,81.912326 72.465995,85.4222068 C72.7353671,86.3735494 73.0176406,87.3126724 73.2907942,88.2211357 C73.9952545,90.5652775 74.6605659,92.7794484 74.6605659,93.8218816 C74.6605659,93.8863117 74.6436606,93.9247475 74.5960589,93.9687377 C74.0871213,94.4377437 71.940597,94.2633384 70.7879245,94.1702481 C70.3862019,94.1378109 70.0280771,94.1087063 69.7364612,94.098042 Z M71.1126836,75.1851656 C67.7167264,80.8665602 66.3425059,85.8947677 67.028504,90.1309303 C67.5514551,93.3610959 69.1191965,94.8712023 69.1857054,94.9338549 L69.326286,95.066714 L69.5200293,95.066714 C69.8027477,95.066714 70.2229326,95.1007064 70.7091815,95.1400309 C72.7467114,95.3053273 74.4957395,95.384865 75.2564766,94.6839109 C75.5038274,94.4559619 75.6348432,94.1580286 75.6348432,93.8218816 C75.6348432,92.6363693 74.9808762,90.4606342 74.2236981,87.9414205 C73.9518792,87.0367342 73.6707178,86.1011659 73.4033477,85.1580437 C71.8427244,79.6286152 72.0153361,75.4984288 72.017338,75.4575491 L71.1126836,75.1851656 Z" id="path18" fill="#114781"></path>
                        <path d="M104.345774,94.5801563 C104.345774,94.5801563 110.370723,88.890097 102.334047,75.4344431 C102.334047,75.4344431 102.53135,79.6081753 100.929575,85.2904585 C99.9228219,88.827 98.716542,92.3004445 98.716542,93.8218816 C98.716542,95.3373201 102.939523,94.5801563 104.345774,94.5801563" id="path20" fill="#FFFFFF"></path>
                        <path d="M100.987854,94.2802235 C100.220444,94.2802235 99.5291071,94.2089061 99.2679652,93.9685155 C99.2203635,93.9247475 99.2034582,93.8863117 99.2034582,93.8218816 C99.2034582,92.7687841 99.8783344,90.5255086 100.592582,88.1504848 C100.859285,87.2646832 101.134663,86.3488882 101.398029,85.4233177 C102.3881,81.9121039 102.70107,78.9898693 102.793826,77.2251533 C108.660844,88.0622824 104.874286,93.2402341 104.130232,94.098042 C103.838171,94.1087063 103.479824,94.1378109 103.077879,94.1702481 C102.515779,94.2155713 101.717227,94.2802235 100.987854,94.2802235 Z M102.752453,75.1851656 L101.847576,75.4573269 C101.849578,75.4982066 102.01952,79.628393 100.460899,85.1584881 C100.199535,86.0760604 99.9250463,86.9883006 99.6596781,87.8705475 C98.8922678,90.4219762 98.2294033,92.625705 98.2294033,93.8218816 C98.2294033,94.1578064 98.3601967,94.4559619 98.6077699,94.6839109 C99.3682846,95.384865 101.11798,95.3053273 103.156844,95.1400309 C103.642871,95.1007064 104.063056,95.066714 104.345774,95.066714 L104.539518,95.066714 L104.680543,94.9336327 C104.74683,94.8709801 106.312569,93.3608738 106.83463,90.1307081 C107.519071,85.8947677 106.145518,80.8665602 102.752453,75.1851656 Z" id="path22" fill="#114781"></path>
                        <path d="M73.5370328,57.0590019 C73.5370328,57.0590019 67.509192,62.746173 75.5494271,76.2024934 C75.5494271,76.2024934 75.3474537,72.0320938 76.9565684,66.3411458 C77.9575383,62.8081591 79.1675997,59.3344925 79.1675997,57.8192762 C79.1675997,56.3038377 74.9443964,57.0590019 73.5370328,57.0590019" id="path24" fill="#FFFFFF"></path>
                        <path d="M73.7534647,57.5411162 C74.0448582,57.5304519 74.4025381,57.5015695 74.8033709,57.4693545 C75.9578229,57.3767086 78.1065716,57.2031919 78.6159541,57.6724202 C78.6637782,57.7164103 78.6806835,57.7548461 78.6806835,57.8192762 C78.6806835,58.8577103 78.0153721,61.0712147 77.3111342,63.41469 C77.0386479,64.3218202 76.7565969,65.2596102 76.487892,66.2085089 C75.494485,69.7215001 75.1810702,72.6421795 75.0887585,74.407562 C73.1368672,70.7899275 71.3300053,66.0658741 71.9957615,61.7450638 C72.3705692,59.3136082 73.4013457,57.9474697 73.7534647,57.5411162 Z M76.8809396,56.3871524 C76.2294194,56.3871524 75.498044,56.4371412 74.7250728,56.4995717 C74.2392688,56.538674 73.8197511,56.5726664 73.5370328,56.5726664 L73.3432895,56.5726664 L73.2027088,56.7053034 C73.1361999,56.7681782 71.5695708,58.277618 71.0472869,61.5071171 C70.3624011,65.7421688 71.7363991,70.7703763 75.1312442,76.4517709 L76.0358985,76.1793875 C76.0338966,76.1382855 75.8592829,72.0114318 77.4252448,66.4731163 C77.6919476,65.5319937 77.9726641,64.5979806 78.2442606,63.6946273 C79.0009938,61.1758579 79.6547384,59.0007894 79.6547384,57.8192762 C79.6547384,57.4833514 79.523945,57.1854181 79.2765942,56.957247 C78.8036915,56.5215667 77.9493081,56.3871524 76.8809396,56.3871524 Z" id="path26" fill="#114781"></path>
                        <path d="M100.323432,57.0590019 C100.323432,57.0590019 106.353053,62.746173 98.3123726,76.2024934 C98.3123726,76.2024934 98.5139012,72.0320938 96.9061211,66.3411458 C95.9051512,62.8081591 94.6966468,59.3344925 94.6966468,57.8192762 C94.6966468,56.3038377 98.9138443,57.0590019 100.323432,57.0590019" id="path28" fill="#FFFFFF"></path>
                        <path d="M98.7730412,74.410228 C98.6809519,72.6450677 98.3675371,69.7230553 97.3750199,66.2089532 C97.1069824,65.2638315 96.8267108,64.3298184 96.5553367,63.4264651 C95.8499866,61.0778799 95.1837855,58.8597099 95.1837855,57.8192762 C95.1837855,57.754624 95.2006908,57.715966 95.2485149,57.6719758 C95.7572301,57.2036362 97.9026422,57.3762642 99.0555371,57.4693545 C99.4570373,57.5015695 99.8151621,57.5304519 100.107223,57.5411162 C100.459564,57.9474697 101.490341,59.3138304 101.865371,61.745286 C102.255527,64.2740531 101.991938,68.4597826 98.7730412,74.410228 Z M96.9810826,56.3871524 C95.9138262,56.3871524 95.0603326,56.5215667 94.5880972,56.9568026 C94.340524,57.1849737 94.2097306,57.4831292 94.2097306,57.8192762 C94.2097306,59.0023446 94.8641425,61.1820788 95.6224328,63.7059581 C95.8924722,64.6057566 96.171854,65.536215 96.4374447,66.4735606 C98.0018495,72.0114318 97.8279031,76.1382855 97.8259012,76.1793875 L98.7305556,76.4517709 C102.125623,70.7703763 103.499399,65.7421688 102.814068,61.5071171 C102.291339,58.277618 100.724265,56.7681782 100.657979,56.7053034 L100.516953,56.5726664 L100.323432,56.5726664 C100.040047,56.5726664 99.6200842,56.538674 99.1340577,56.4995717 C98.3621986,56.4371412 97.6319355,56.3871524 96.9810826,56.3871524 Z" id="path30" fill="#114781"></path>
                        <path d="M74.6716878,93.3475434 L78.2869686,83.4919723 L82.1051127,91.5492794 L86.4304149,83.4002151 L90.9516848,91.9338599 L94.9693555,83.4919723 L98.8960493,92.7836697 C98.8960493,92.7836697 89.344572,97.3357615 86.5291773,97.3357615 C83.712448,97.3357615 75.4735759,94.2024631 74.6716878,93.3475434" id="path32" fill="#FFFFFF"></path>
                        <path d="M82.0804221,92.6341476 L86.42997,84.4397601 L90.9748183,93.0180616 L94.9431079,84.6805951 L98.2654382,92.5421682 C96.3998527,93.4119734 88.8763405,96.849426 86.5291773,96.849426 C83.9891605,96.849426 76.7352428,94.1262579 75.2502484,93.1844688 L78.3441351,84.7499129 L82.0804221,92.6341476 Z M78.2295797,82.2340318 L74.1111446,93.4615179 L74.3160098,93.6801356 C75.2593683,94.6856882 83.6096817,97.8223193 86.5291773,97.8223193 C89.4215354,97.8223193 98.7118708,93.4104182 99.1060305,93.2229046 L99.5257705,93.0225051 L94.9956032,82.3033496 L90.9283288,90.8496583 L86.4308598,82.3606701 L82.1298033,90.464189 L78.2295797,82.2340318 Z" id="path34" fill="#114781"></path>
                        <path d="M79.0946401,59.7092974 L81.7062818,67.8534739 L86.5291773,62.1671915 L91.5524891,68.0418762 L94.5711919,60.2733933 C94.5711919,60.2733933 88.1360676,58.5684418 86.1263425,58.5684418 C84.1186193,58.5684418 79.0946401,59.7092974 79.0946401,59.7092974" id="path36" fill="#FFFFFF"></path>
                        <path d="M79.7214697,60.069439 C81.0487558,59.7826143 84.5688333,59.0549995 86.1263425,59.0549995 C87.722111,59.0549995 92.3499285,60.204742 93.9190044,60.6068742 L91.3934461,67.1067522 L86.5276202,61.4164707 L81.9022495,66.8696942 L79.7214697,60.069439 Z M86.1263425,58.0821062 C84.087478,58.0821062 79.1940698,59.1878586 78.9867578,59.2349592 L78.4687003,59.3527106 L81.5103142,68.8372536 L86.5307343,62.9181345 L91.7115321,68.9770001 L95.2222673,59.9425785 L94.696202,59.8032764 C94.4308337,59.7328477 88.1761064,58.0821062 86.1263425,58.0821062 Z" id="path38" fill="#114781"></path>
                        <path d="M107.18497,80.8050184 C104.957701,74.8667925 104.205194,70.3893505 104.552419,68.4262345 C105.052681,65.5542109 104.622264,61.7483964 102.410343,60.0858798 C100.900658,58.946135 98.8960493,59.828604 97.2553484,59.9556867 C95.6266591,60.0858798 84.8766872,61.0741029 78.1450533,59.3307155 C74.1251582,58.2867271 71.7108188,58.4315835 70.8533212,59.828604 C68.8438185,63.1216445 70.0994797,65.6193075 69.9733574,68.1749575 C69.7233374,73.3531314 70.1635417,75.0638594 67.4593659,79.9265484 C64.703807,84.8792173 64.1557203,89.6521486 69.9101851,93.5121732 C73.1929215,93.0724939 74.8176069,92.6268159 79.5908988,93.160252 C82.604263,93.5006202 85.8776571,94.2024631 86.1263425,95.9702895 L86.6101446,95.9702895 C86.8614993,94.2024631 90.3395361,93.3475434 93.1489249,93.1938001 C98.7363389,92.879426 98.0728071,92.5008441 104.443869,93.6936881 C106.207133,91.8854263 110.489728,89.5979385 107.18497,80.8050184 Z M113.26108,102.291319 C112.759705,101.278656 111.559208,100.513717 109.741669,99.7612185 C105.616561,98.0584886 94.1518968,98.5003897 91.6392399,100.521493 L90.1322241,108.101573 L82.6069323,108.101573 L81.0999165,100.521493 C78.583923,98.5003897 69.5344878,97.9334055 64.5020559,99.7612185 C62.6553777,100.435956 61.4898038,101.278656 60.9804214,102.291319 L56.9625282,101.597252 C56.9625282,101.597252 59.0002805,98.7014557 59.4738504,97.7401154 C59.9200606,96.8587572 61.7433829,95.7798877 64.1603915,95.275334 C63.0929127,93.917638 59.321703,87.28379 62.8099719,80.5566296 C64.6637682,76.9794305 67.3319091,73.4499986 66.7026327,68.3020401 C65.9594681,62.1958518 64.7965635,58.9214738 67.7125001,55.663981 C69.9733574,53.1309926 73.7616949,53.4040425 79.0274639,54.8979303 C86.5647673,57.0532255 94.9949359,55.1560947 97.3819154,54.6513188 C99.8062646,54.1376561 104.420069,53.6408784 106.560365,56.0434516 C108.698659,58.4444695 108.848582,64.4380164 108.698659,68.4262345 C108.447749,75.0638594 110.327348,78.0307507 111.717139,80.5566296 C115.049702,86.6214939 111.977836,93.5310579 110.302435,95.5474953 C113.112936,95.8558707 114.441779,97.0884836 114.76943,97.7401154 C115.245224,98.7014557 116.743788,101.40996 116.743788,101.40996 L113.26108,102.291319 Z" id="path40" fill="#114781"></path>
                        <path d="M68.8220196,75.6526165 C69.1812566,72.7941454 72.0484793,67.4264584 72.0484793,67.4264584 C70.612866,63.13653 73.8391032,56.6953056 73.8391032,56.6953056 L69.8990632,56.335164 L67.3921897,66.3498106 L68.8220196,75.6526165" id="path42" fill="#114781"></path>
                        <path d="M105.804966,73.5070969 C105.583196,71.0067679 102.706408,67.0676498 102.706408,67.0676498 L102.481523,58.1227638 L105.583196,56.6953056 L107.134699,67.4264584 L105.804966,73.5070969" id="path44" fill="#114781"></path>
                        <polygon id="path46" fill="#114781" points="75.6277252 72.0794166 80.9964829 65.63797 78.8484015 60.6273141"></polygon>
                        <polygon id="path48" fill="#114781" points="97.8281256 71.3586891 92.0967943 66.3498106 94.5711919 60.2733933"></polygon>
                        <polygon id="path50" fill="#114781" points="72.9346713 85.2904585 78.4911665 82.0907305 74.9775397 92.5106197"></polygon>
                        <polygon id="path52" fill="#114781" points="78.2869686 83.4919723 82.1051127 91.5492794 84.9358556 86.0189621"></polygon>
                        <polygon id="path54" fill="#114781" points="86.7226981 82.4448735 94.3165007 84.6374936 90.9516848 91.9338599"></polygon>
                        <polygon id="path56" fill="#114781" points="94.9693555 83.4919723 100.929575 85.2904585 98.8922678 92.8852025"></polygon>
                        <path d="M72.4034899,81.3731134 C79.9238881,82.0907305 83.8625934,77.4379945 86.0120095,76.7194887 C88.1578665,76.0045377 91.1351959,84.5912818 101.879384,81.0123053 L100.730938,86.0189621 L94.9693555,83.4919723 L90.7303592,88.8338874 L86.3158595,83.0916175 L82.7871069,88.7085821 L78.2869686,83.4919723 L73.4829804,87.4495307 L72.4034899,81.3731134" id="path58" fill="#114781"></path>
                        <polygon id="path60" fill="#114781" points="62.7372348 83.8794411 68.1091066 83.5166335 66.960438 94.3177706"></polygon>
                        <polygon id="path62" fill="#114781" points="106.187336 83.6508257 112.145554 84.5912818 106.461602 94.9587382"></polygon>
                        <path d="M55.0673585,139.071083 C55.0673585,139.071083 36.1728281,123.4157 57.4788062,110.161334 C57.4788062,110.161334 39.2115503,107.353296 33.9575704,118.596335 C31.1486264,124.621652 40.3030523,133.239945 40.9941665,133.652075" id="path64" fill="#114781"></path>
                        <path d="M117.620415,139.071083 C117.620415,139.071083 136.520284,123.4157 115.213638,110.161334 C115.213638,110.161334 133.481784,107.353296 138.72998,118.596335 C141.547377,124.621652 132.384054,133.239945 131.695164,133.652075" id="path66" fill="#114781"></path>
                        <path d="M86.0120095,43.8255206 C86.0540991,43.6488934 86.0907827,43.4693781 86.1282385,43.2780876 C87.0549817,43.4389404 86.0120095,43.8255206 86.0120095,43.8255206" id="path68" fill="#114781"></path>
                        <path d="M33.4924531,181.097896 C38.036634,181.316958 40.5517378,180.061683 41.9301845,178.78197 L32.9234573,170.285872 C22.8399089,170.554034 19.4232427,174.873512 19.4232427,174.873512 C24.6487727,175.47982 27.8670022,180.828845 33.4924531,181.097896 Z M58.1507907,187.527567 C65.929439,190.352268 75.1018824,183.303624 75.1018824,183.303624 C75.7066906,187.929699 73.9634459,189.398926 73.9634459,189.398926 C79.9272246,190.392703 85.9059067,180.828845 85.9059067,180.828845 L86.156594,180.231201 C86.156594,180.231201 91.8783605,189.856379 97.8379128,188.862379 C97.8379128,188.862379 96.0964476,187.389376 96.6948052,182.771077 C96.6948052,182.771077 105.875256,189.818832 113.648121,186.992131 C113.648121,186.992131 109.430924,185.117662 108.020001,181.903493 C108.020001,181.903493 117.979652,180.383167 124.844303,177.494258 C128.706045,174.470268 135.555571,167.346752 139.961618,156.860878 C138.982225,157.031506 137.999495,157.186361 137.104628,157.279007 C134.857784,157.498735 135.488395,146.758695 139.431104,138.53276 C143.213881,132.690734 144.115866,125.727849 143.690787,122.218857 C142.435349,111.920274 134.198478,100.681235 128.467814,92.8123299 C122.740487,84.9443138 120.593518,70.2878177 118.445659,63.4924504 C116.296243,56.6953056 114.023151,45.6100099 99.3838553,44.8950589 C90.266354,44.4524913 82.5844661,43.2318757 73.4829804,45.2492018 C60.5909329,48.1134494 57.3686995,57.0532255 55.217504,63.8463711 C53.0727591,70.6448489 50.9231206,85.3040111 45.1920118,93.1662507 C39.4633498,101.041154 29.4443083,110.068688 28.3672647,122.584553 C27.8149518,128.986453 29.2080795,130.884472 31.8779998,137.888904 C35.7250609,143.50498 36.1826153,157.957299 34.7027369,157.811332 C33.909079,157.730461 33.0580322,157.606267 32.1951961,157.457411 C36.9308959,168.58603 44.3932378,175.872399 48.0154143,178.448711 C54.795762,181.05946 63.778021,182.43493 63.778021,182.43493 C62.3711022,185.652209 58.1507907,187.527567 58.1507907,187.527567 Z M138.308906,180.563571 C143.934357,180.295409 147.151919,174.941718 152.377871,174.339187 C152.377871,174.339187 149.063104,170.133906 139.304092,169.758435 L130.10251,178.445823 C131.525444,179.652441 134.008961,180.768636 138.308906,180.563571 Z M156.802158,143.622287 C156.802158,143.622287 160.622304,144.627839 168.257703,140.20794 C168.257703,140.20794 163.433918,159.083269 153.183319,165.309653 C152.669932,165.616251 157.6016,165.708897 164.843506,176.749758 C164.843506,176.749758 156.960312,180.082345 153.386627,182.167878 C147.555198,185.583114 141.926633,188.594217 138.709739,188.795505 C137.289029,188.882153 131.207358,190.340493 127.857223,186.992131 C127.253527,186.3896 123.302365,188.594217 121.692138,188.594217 C121.692138,188.594217 122.29361,189.667088 128.929818,191.27695 C129.519278,191.418029 117.738752,198.362919 104.803996,194.485343 C104.803996,194.485343 106.143739,197.698623 110.435898,198.499777 C110.435898,198.499777 97.0627173,203.168954 86.156594,194.382921 C75.2375694,203.283595 61.3687977,199.034768 61.3687977,199.034768 C65.6533938,198.230726 66.9929139,195.021 66.9929139,195.021 C54.0646091,198.902798 42.2878644,191.949466 42.8715411,191.803721 C49.5086389,190.203412 50.1094433,189.133652 50.1094433,189.133652 C48.5063344,189.133652 44.5516135,186.922147 43.9499194,187.527567 C40.5960029,190.876817 34.5125526,189.421587 33.0922876,189.32983 C29.8731683,189.133652 24.2483848,186.119438 18.4207157,182.710201 C14.8399795,180.615781 6.95847587,177.287193 6.95847587,177.287193 C14.1992697,166.240556 19.1359866,166.154575 18.6180403,165.841089 C8.37017709,159.617594 3.54363367,140.742265 3.54363367,140.742265 C11.1861946,145.160387 15.0011579,144.161499 15.0011579,144.161499 C-4.49829203,129.10176 0.521425244,91.6785838 0.728657156,95.3726455 C0.931978612,98.9853922 8.25435375,103.49416 9.81141805,103.940949 C9.02888202,98.3584214 8.94068545,91.0898267 10.7767534,81.5210803 C15.6020067,56.35316 32.7532924,44.0372509 32.7532924,44.0372509 C30.2546491,51.6846497 30.7598052,58.6877484 31.6195272,63.2096248 C31.795253,62.8872525 31.9224874,62.5626585 31.9498472,62.2431745 C32.9474806,51.2871832 36.378583,41.9550505 38.585388,38.9526116 C44.8837131,30.3874183 41.5571564,32.6602427 54.5597555,22.6220459 L53.9974329,35.8773002 C54.4836818,34.7802125 56.4291224,29.4360758 57.0139113,28.316993 C68.2732657,6.73027083 91.1194028,0 91.1194028,0 C89.1752968,12.7142643 93.4489935,12.5387703 99.0226163,17.0642459 C104.568212,21.5858779 106.72875,24.7371279 108.937334,28.0654938 L108.959801,28.0852671 L109.020304,28.2007968 C110.091119,29.8128803 111.17884,31.4731752 112.686523,33.3476444 C111.671762,27.3312137 110.761547,23.4887407 106.411109,20.2152737 C105.697751,19.6820597 137.870703,35.7335546 136.409732,61.9761232 C136.27538,64.3869167 139.805467,49.5251333 139.046064,43.504037 C139.046064,43.504037 156.198017,55.8197239 161.025807,80.9894216 C162.859361,90.5563906 162.773055,97.8198754 161.986515,103.409513 C163.546471,102.962946 170.869122,98.4510674 171.07243,94.8345438 C171.279742,91.1351499 176.300385,128.566547 156.802158,143.622287 Z" id="path70" fill="#114781"></path>
                        <path d="M79.3233061,148.375667 C79.3233061,148.375667 85.1531773,154.400984 93.3958308,148.979976 L90.7797404,147.773135 C90.7797404,147.773135 86.3574553,150.486527 81.7376455,147.773135 L79.3233061,148.375667" id="path72" fill="#114781"></path>
                        <path d="M114.57413,111.104012 C114.57413,111.104012 113.312463,108.702994 115.330863,109.021589 C126.247886,110.718543 141.194146,106.401954 152.022416,98.1689083 C152.022416,98.1689083 134.6111,113.840955 114.57413,111.104012" id="path74" fill="#114781"></path>
                        <path d="M113.614311,111.00048 C113.614311,111.00048 112.839338,109.501704 113.546022,108.913169 C113.811835,108.678555 112.269897,108.719879 112.269897,108.719879 C112.269897,108.719879 111.873068,110.460156 112.406251,110.728318 C112.946997,111.00048 113.614311,111.00048 113.614311,111.00048" id="path76" fill="#114781"></path>
                        <path d="M110.757765,106.872071 C110.757765,106.872071 109.441601,104.510822 111.466452,104.772096 C122.419732,106.211774 137.262558,101.556816 147.888855,93.0647178 C147.888855,93.0647178 130.848788,109.148672 110.757765,106.872071" id="path78" fill="#114781"></path>
                        <path d="M109.843546,106.781424 C109.843546,106.781424 109.075691,105.290647 109.778372,104.691226 C110.044852,104.465276 108.507585,104.510822 108.507585,104.510822 C108.507585,104.510822 108.102303,106.24821 108.637266,106.512374 C109.174231,106.781424 109.843546,106.781424 109.843546,106.781424" id="path80" fill="#114781"></path>
                        <path d="M107.220337,102.439285 C107.220337,102.439285 105.767374,100.153797 107.806016,100.306652 C118.826695,101.117137 133.375236,95.6114809 143.495264,86.5317362 C143.495264,86.5317362 127.404784,103.55348 107.220337,102.439285" id="path82" fill="#114781"></path>
                        <path d="M106.274087,102.364413 C106.274087,102.364413 105.50601,100.876524 106.210915,100.269993 C106.474281,100.045377 104.937459,100.089812 104.937459,100.089812 C104.937459,100.089812 104.532622,101.830089 105.067585,102.098251 C105.608776,102.364413 106.274087,102.364413 106.274087,102.364413" id="path84" fill="#114781"></path>
                        <path d="M57.0139113,111.104012 C57.0139113,111.104012 58.2793597,108.702994 56.2600697,109.021589 C45.3468285,110.718543 30.3963419,106.401954 19.5749675,98.1689083 C19.5749675,98.1689083 36.980722,113.840955 57.0139113,111.104012" id="path86" fill="#114781"></path>
                        <path d="M57.9821828,111.00048 C57.9821828,111.00048 58.7511502,109.501704 58.0480244,108.913169 C57.7817664,108.678555 59.321703,108.719879 59.321703,108.719879 C59.321703,108.719879 59.7196442,110.460156 59.1857935,110.728318 C58.6483839,111.00048 57.9821828,111.00048 57.9821828,111.00048" id="path88" fill="#114781"></path>
                        <path d="M60.8291637,106.872071 C60.8291637,106.872071 62.1508888,104.510822 60.1271501,104.772096 C49.1756496,106.211774 34.3290415,101.556816 23.7034123,93.0647178 C23.7034123,93.0647178 40.7445913,109.148672 60.8291637,106.872071" id="path90" fill="#114781"></path>
                        <path d="M61.7531701,106.781424 C61.7531701,106.781424 62.5196906,105.290647 61.8187893,104.691226 C61.5503069,104.465276 63.0904659,104.510822 63.0904659,104.510822 C63.0904659,104.510822 63.4877398,106.24821 62.954334,106.512374 C62.4178142,106.781424 61.7531701,106.781424 61.7531701,106.781424" id="path92" fill="#114781"></path>
                        <path d="M64.373042,102.439285 C64.373042,102.439285 65.8248933,100.153797 63.7913673,100.306652 C52.7691316,101.117137 38.2188106,95.6114809 28.096558,86.5317362 C28.096558,86.5317362 44.1845912,103.55348 64.373042,102.439285" id="path94" fill="#114781"></path>
                        <path d="M65.3179576,102.364413 C65.3179576,102.364413 66.0875923,100.876524 65.3829095,100.269993 C65.1153168,100.045377 66.6599246,100.089812 66.6599246,100.089812 C66.6599246,100.089812 67.058978,101.830089 66.5222356,102.098251 C65.9866055,102.364413 65.3179576,102.364413 65.3179576,102.364413" id="path96" fill="#114781"></path>
                        <polygon id="path98" fill="#114781" points="30.7942831 134.721835 37.2383049 143.601625 25.6759903 139.63118"></polygon>
                        <polygon id="path100" fill="#114781" points="142.771452 133.414572 134.896043 142.738707 146.461472 138.769373"></polygon>
                        <path d="M71.7252772,155.073278 L68.0399285,162.193017 C58.5656371,164.660909 54.9114296,168.575144 52.848097,173.925946 C65.6246993,167.749773 74.9975591,164.249668 74.9975591,164.249668 L75.8454918,149.926431 L71.7252772,155.073278" id="path102" fill="#114781"></path>
                        <path d="M82.2354612,191.52756 L90.8409108,191.52756 C89.1910899,176.707323 88.1876732,163.536939 88.1876732,163.536939 L84.8884764,163.945958 C83.6552815,179.590455 82.2354612,191.52756 82.2354612,191.52756" id="path104" fill="#114781"></path>
                        <path d="M105.176357,116.176876 C104.995293,115.989363 105.16657,115.785408 104.939461,115.588119 C105.368543,116.096894 104.694779,116.113779 104.648067,116.676764 C106.708286,118.051123 104.648067,118.733415 104.648067,118.733415 C100.874411,119.421705 96.6578805,116.900492 91.9506527,116.043795 C89.8695251,115.664991 84.7345494,114.738309 81.3370351,116.043795 C76.8751562,117.7563 72.4132772,119.421705 68.6387309,118.733415 C68.6387309,118.733415 67.5278767,118.36061 67.7609915,117.61922 C67.2008932,117.333284 66.679944,116.463701 67.2647329,113.936711 C68.2928402,109.479265 79.2737025,108.111571 81.6791444,106.391956 C81.6791444,106.391956 81.6348793,106.732102 81.5105366,107.20644 C83.4828922,105.426617 84.8548883,102.89385 84.7443367,98.8514222 C84.7443367,98.8514222 84.468069,97.0618229 86.6444,97.935405 C88.8211759,97.0618229 88.5469102,98.8514222 88.5469102,98.8514222 C87.5893156,102.655237 89.280065,105.380405 91.8714649,107.533923 C91.670826,106.884957 91.6069864,106.391956 91.6069864,106.391956 C94.0106488,108.111571 104.995293,109.479265 106.021398,113.936711 C107.053954,118.390381 105.176357,116.176876 105.176357,116.176876" id="path106" fill="#114781"></path>
                        <path d="M75.1448129,143.390561 C73.3657557,139.302587 69.8403397,118.733415 69.8403397,118.733415 L66.6612592,113.988033 C60.2514928,118.733415 68.8022227,138.956665 68.8022227,143.759367 C68.8022227,148.556071 75.1448129,143.390561 75.1448129,143.390561" id="path108" fill="#114781"></path>
                        <path d="M100.823028,155.073278 L104.507709,162.193017 C113.987561,164.660909 117.644216,168.575144 119.699985,173.925946 C106.925607,167.749773 97.5536374,164.249668 97.5536374,164.249668 L96.7025905,149.926431 L100.823028,155.073278" id="path110" fill="#114781"></path>
                        <path d="M97.7609494,143.390561 C99.4726079,139.302587 102.909939,118.733415 102.909939,118.733415 L105.976021,113.988033 C112.15156,118.733415 103.914912,138.956665 103.914912,143.759367 C103.914912,148.556071 97.7609494,143.390561 97.7609494,143.390561" id="path112" fill="#114781"></path>
                        <path d="M61.809002,149.244361 C61.809002,146.452986 59.5465876,145.099289 56.7547713,145.099289 C53.9605082,145.099289 51.6967591,146.452986 51.6967591,149.244361 C51.6967591,152.029737 53.9605082,154.29523 56.7547713,154.29523 C59.5465876,154.29523 61.809002,152.029737 61.809002,149.244361" id="path114" fill="#114781"></path>
                        <path d="M56.7547713,153.168816 C54.5877827,153.168816 52.8245186,151.408321 52.8245186,149.244361 C52.8245186,146.443433 55.8327668,146.225704 56.7547713,146.225704 C57.675886,146.225704 60.6812426,146.443433 60.6812426,149.244361 C60.6812426,151.408321 58.919758,153.168816 56.7547713,153.168816 Z M56.7547713,143.972875 C52.9971303,143.972875 50.5689997,146.041967 50.5689997,149.244361 C50.5689997,152.65071 53.3439107,155.421867 56.7547713,155.421867 C60.1636299,155.421867 62.9367614,152.65071 62.9367614,149.244361 C62.9367614,146.041967 60.5101879,143.972875 56.7547713,143.972875 Z" id="path116" fill="#114781"></path>
                        <path d="M41.9917998,154.957971 C49.74598,156.873542 48.8580085,156.928863 56.0598757,157.077718 C73.5643926,157.446525 70.7928181,145.853565 74.9116981,144.116176 L69.4475146,138.596745 C67.094568,140.936444 68.3689139,142.206381 65.3041665,145.816018 C65.9888299,153.700919 59.1857935,154.319003 55.6835111,153.480968 C52.7964914,150.915542 49.738862,154.331889 51.9841487,150.803123 C39.1901962,152.720916 41.9917998,154.957971 41.9917998,154.957971" id="path118" fill="#114781"></path>
                        <path d="M110.990657,149.244361 C110.990657,146.452986 113.249958,145.099289 116.045555,145.099289 C118.840263,145.099289 121.10557,146.452986 121.10557,149.244361 C121.10557,152.029737 118.840263,154.29523 116.045555,154.29523 C113.249958,154.29523 110.990657,152.029737 110.990657,149.244361" id="path120" fill="#114781"></path>
                        <path d="M116.045555,153.168816 C113.880346,153.168816 112.118639,151.408321 112.118639,149.244361 C112.118639,146.443433 115.124218,146.225704 116.045555,146.225704 C116.968005,146.225704 119.97781,146.443433 119.97781,149.244361 C119.97781,151.408321 118.213656,153.168816 116.045555,153.168816 Z M116.045555,143.972875 C112.289694,143.972875 109.862898,146.041967 109.862898,149.244361 C109.862898,152.65071 112.636474,155.421867 116.045555,155.421867 C119.457528,155.421867 122.233329,152.65071 122.233329,149.244361 C122.233329,146.041967 119.804531,143.972875 116.045555,143.972875 Z" id="path122" fill="#114781"></path>
                        <path d="M130.808527,154.957971 C123.944098,157.511621 123.942763,156.919976 116.736002,157.077718 C99.9957815,157.446525 102.005729,145.853565 97.8835126,144.116176 L103.353924,138.596745 C105.707316,140.936444 104.426297,142.206381 107.496828,145.816018 C106.811052,153.700919 113.612976,154.319003 117.115036,153.480968 C120.005392,150.915542 123.949881,154.971745 121.70326,151.44098 C133.537171,151.761353 130.808527,154.957971 130.808527,154.957971" id="path124" fill="#114781"></path>
                        <path d="M60.731736,149.590284 C60.731736,147.760249 59.0002805,146.278359 56.8659902,146.278359 C54.7370384,146.278359 53.003581,147.760249 53.003581,149.590284 C53.003581,151.409432 54.7370384,152.895321 56.8659902,152.895321 C59.0002805,152.895321 60.731736,151.409432 60.731736,149.590284" id="path126" fill="#FFFFFF"></path>
                        <path d="M59.5792859,150.966642 C59.5792859,149.421655 58.4097082,148.161715 56.9694237,148.161715 C55.5333656,148.161715 54.3606737,149.421655 54.3606737,150.966642 C54.3606737,152.517628 55.5333656,153.773791 56.9694237,153.773791 C58.4097082,153.773791 59.5792859,152.517628 59.5792859,150.966642" id="path128" fill="#114781"></path>
                        <path d="M120.092143,149.590284 C120.092143,147.760249 118.36269,146.278359 116.224618,146.278359 C114.094999,146.278359 112.363321,147.760249 112.363321,149.590284 C112.363321,151.409432 114.094999,152.895321 116.224618,152.895321 C118.36269,152.895321 120.092143,151.409432 120.092143,149.590284" id="path130" fill="#FFFFFF"></path>
                        <path d="M118.935912,150.966642 C118.935912,149.421655 117.766334,148.161715 116.331833,148.161715 C114.887989,148.161715 113.721081,149.421655 113.721081,150.966642 C113.721081,152.517628 114.887989,153.773791 116.331833,153.773791 C117.766334,153.773791 118.935912,152.517628 118.935912,150.966642" id="path132" fill="#114781"></path>
                    </g>
                </g>
            </g>
        </g>
    </g>
</svg>