<svg width="200" height="200" xmlns="http://www.w3.org/2000/svg"><g fill="none" fill-rule="evenodd"><path d="M61.707 82.437h-2.12c-5.561-54.429-13.428-57.498-20.448-57.498-7.59 0-16 11.39-16 72.286 0 63.42 1.947 77.954 16 77.954 10.882 0 22.978-11.874 22.978-51.71h2.052c0 33.37-9.643 53.39-25.132 53.39-24.004 0-36.416-25.557-36.416-79.225 0-53.668 21.405-74.331 36.313-74.331 11.9 0 12.105 6.068 16.413 6.068 2.12 0 4.171-4.261 4.171-5.387 0-1.15 2.189-1.201 2.189 0v58.453m9.7 33.355h2.014c1.359 47.442 14.547 59.243 25.318 59.243 10.77 0 18.331-11.498 18.285-24.898-.198-55.883-48.547-33.848-48.547-89.669 0-26.732 17.644-37.506 25.835-37.506 12.376 0 14.768 6.273 19.28 6.273 2.402 0 4.79-4.125 4.79-5.353 0-1.278 1.926-1.278 1.926 0l-.008 58.342h-1.422c-4.308-50.125-14.293-57.012-24.55-57.012-11.49 0-15.183 11.934-15.183 23.118 0 31.099 50.06 38.235 50.06 89.606 0 23.733-12.417 39.214-30.466 39.008-13.712-.157-17.815-8.32-21.85-8.32-3.898 0-5.118 5.184-5.118 6.751 0 1.569-2.006 2.148-2.006 0s1.642-59.583 1.642-59.583m123.278-92.689h-14.328c-1.65 0-1.75 1.907 0 1.907 3.405 0 6.288 1.43 6.288 8.916v112.21c0 7.82-2.047 16.044-5.74 20.852-3.24 4.216-7.796 6.82-12.035 6.82-8.322 0-14.969-2.046-14.969-15.004l-.02-124.921c0-7.22 2.01-8.932 6.341-8.873 1.446.019 1.339-1.907 0-1.907h-30.786c-1.444 0-1.547 1.932 0 1.907 3.546-.059 5.377 1.742 5.377 8.873 0 7.13.035 115.288.035 115.288 0 15.157 4.342 27.724 27.828 27.724 18.434 0 26.572-11.34 26.572-35.663 0-10.21-.02-107.306-.02-107.306 0-7.447 2.983-8.916 5.457-8.916 1.647 0 1.65-1.907 0-1.907" fill="#2151A8" fill-rule="nonzero"/><path d="M197.785 48.146c.467-.948 1.158-3.009 1.168-4.863a.061.061 0 0 0-.023-.047.06.06 0 0 0-.05-.012c-2.949.614-7.785 3.514-11.414 6.08.53-.932 1.3-1.966 2.046-2.969 1.13-1.517 2.197-2.95 2.527-4.084a.061.061 0 0 0-.026-.069.061.061 0 0 0-.073.006c-1.223 1.09-5.682 3.911-10.844 6.86-4.241 2.423-9.343 5.129-11.203 5.61.435-.613 1.007-1.304 1.662-2.097 1.105-1.336 2.359-2.85 3.465-4.606 1.642-2.597 2.838-5.43 3.481-6.95l.072-.171a.06.06 0 0 0-.026-.076.06.06 0 0 0-.079.016c-2.145 2.875-6.911 5.975-8.412 6.834l-.111.064c-1.43.817-4.782 2.731-7.591 5.048-2.826 2.324-6.617 4.584-10.289 6.77.08-.122.164-.246.25-.375.636-.942 1.355-2.01 1.326-3.3a.06.06 0 0 0-.045-.057.059.059 0 0 0-.068.028c-1.105 1.9-6.89 6.394-9.999 8.808-.706.549-1.264.982-1.576 1.238-1.392 1.148-6.402 3.393-9.396 4.734-.518.232-.97.435-1.326.597-2.206 1.002-7.168 2.726-10.133 3.756l-.655.227c-2.923 1.01-10.274 7.034-12.469 9.204-2.072 2.053-7.635 6.978-7.696 7.033-3.53 4.06-12.248 11.803-15.654 11.5-2.152-.184-3.534-5.299-4.644-9.408-.151-.559-.296-1.096-.437-1.597-1.315-4.704-3.565-10.798-5.937-13.793-.853-1.076-2.275-3.562-3.65-5.966-1.166-2.037-2.372-4.144-3.272-5.475-1.493-2.204-5.53-6.381-12-12.414-1.915-1.787-4.948-4.752-7.882-7.62-3.162-3.09-6.148-6.01-7.859-7.584-1.998-1.837-6.344-9.008-8.757-13.12-.633-1.075-1.2-1.556-1.686-1.428-.586.154-.868 1.186-.882 2.08-.022 1.104.135 1.787.373 2.821.098.427.21.91.33 1.512.426 2.133 3.589 7.558 5.187 9.988.89 1.352 2.193 2.684 3.454 3.973 1.01 1.032 1.967 2.011 2.677 2.956-1.412-.752-5.964-3.714-10.683-7.736-4.425-3.771-10.116-9.444-12.095-15.05a.06.06 0 0 0-.105-.019c-2.189 2.66-1.088 7.28-.284 10.653.27 1.138.507 2.127.6 2.92-2.384-.963-9.329-7.838-11.63-14.648a.061.061 0 0 0-.111-.009c-1.896 3.647-.319 7.885 1.206 11.984.248.666.504 1.353.736 2.018-1.146-.624-3.958-2.666-5.229-5.806a.06.06 0 0 0-.055-.038c-.025.001-.047.013-.057.036C.437 35.426.937 38.974 3.42 42.658c.067.098.118.175.151.228.74 1.21.721 2.745.527 3.481-.162.6-.054 1.598.061 2.655.031.286.063.574.089.856.086.922.557 1.684 1.056 2.492.21.339.426.69.615 1.056.384.745.39 2.018.395 3.142.003.721.006 1.402.102 1.91.163.864 1.214 2.179 2.326 3.571.583.73 1.186 1.484 1.649 2.166.94 1.39 2.714 2.21 4.28 2.935.624.289 1.214.561 1.664.837 1.38.847 1.586 1.136 2.349 2.215l.205.289c-.13.011-.273.033-.432.058-.922.142-2.464.38-5.215-1.063-1.15-.606-1.79-.774-2.016-.533-.282.303.171 1.086.792 2.077.108.172.208.332.288.468.579.981 3.07 2.58 4.133 3.263.137.088.25.16.33.214.56.365.896 1.373 1.166 2.184.061.185.12.358.175.51.217.585 1.248 1.318 2.075 1.908.33.234.642.456.843.628.699.59 1.341 1.695 1.65 2.226.335.57 1.058 1.175 1.968 1.905.67.537 1.245 1.484 1.753 2.319.195.32.378.622.559.889.487.712 1.319 1.245 2.053 1.716.278.177.54.345.764.51.232.17.495.337.748.498.61.387 1.239.787 1.207 1.113-.051.53.818 1.925 1.755 2.815.91.865 1.234 1.272 1.027 2.119-.223.915.676 2.178 1.386 2.782.68.58.916 1.875.711 2.72-.218.887.654 2.294 1.374 2.911.654.563 2.459 1.234 3.138 1.487l.127.047c.207.079.352.487.506.92.18.507.383 1.08.758 1.399.694.581 1.762 1.23 1.768 1.232.588.451.708 1.029.815 1.538.101.49.198.952.685 1.204.537.275.91.257 1.38.234a5.55 5.55 0 0 1 1.237.047.819.819 0 0 0-.489.51c-.27.773.358 2.022.915 2.627.698.75 1.762.962 2.89 1.186.17.034.344.069.519.106-.035.985 1.646 1.864 2.602 1.971.331.036.687.047 1.031.057.691.021 1.406.043 1.944.272.405.175.688.544 1.016.972.321.42.685.895 1.259 1.337.86.664 1.416 1.487 2.12 2.528.232.346.472.702.744 1.081-1.156.829-9.115 3.141-12.541 4.137l-1.072.312c-.74.216-1.76.465-2.941.753-3.256.795-7.714 1.883-9.432 3.124-.911.657-1.365 1.388-1.349 2.172.02.915.677 1.587 1.022 1.815.734.477 1.5.93 2.785 1.207-.15.339-.166.705-.181 1.06-.013.296-.025.574-.107.836-.133.414.005 1.052.367 1.705.366.66.856 1.138 1.278 1.247.355.095.87.185 1.465.29 1.018.177 2.28.398 3.277.745-.673 1.99-.21 3.03.302 3.552.723.74 1.784.764 2.284.606 1.063-.339 1.52-.337 2.707-.321-.286 1.166 1.4 2.797 2.683 3.313.807.323 1.688.11 2.54-.095.563-.136 1.094-.264 1.54-.213.455.051.865.227 1.298.413.618.265 1.258.541 2.09.479 1.38-.1 3.186-.711 4.107-1.115.27.603.96.503 2.082.341.322-.046.687-.099 1.086-.14 1.754-.181 2.188-.387 3.21-1.232.018.13.08.247.187.35.516.498 1.998.557 2.886.439.6-.083 1.108-.464 1.752-.947.45-.34.96-.721 1.6-1.07.054 1.372.73 1.782 1.296 1.883 1.059.189 2.418-.575 2.639-1.141.13-.327.236-.63.348-.95.185-.527.395-1.124.77-2.004a21.103 21.103 0 0 0 1.523-5.823c.253.965 1.12 2.286 2.004 2.976.18.142.38.286.594.439.69.496 1.474 1.058 1.698 1.657.286.773 1.203 1.71 2.088 2.134.902.424 1.586 1.54 1.7 2.777a.06.06 0 0 0 .04.051.062.062 0 0 0 .065-.014c.29-.296.725-.386 1.145-.472.384-.078.746-.152 1.01-.371.125-.103.284-.136.474-.098.523.103 1.135.704 1.402 1.202.313.585.863.995 1.47 1.096.441.075.854-.03 1.13-.286.139-.128.5.094.851.307.385.235.787.479 1.11.449a.06.06 0 0 0 .054-.054c.095-.9.673-3.416.942-4.31.252-.828.961-1.622 2.107-2.362.962-.626 2.489-.42 3.01.02.327.282.356 1.489.38 2.554.014.548.026 1.065.076 1.446.19 1.46 2.854 3.21 3.99 3.894a.06.06 0 0 0 .076-.01.06.06 0 0 0 .004-.077c-1.398-1.876-1.57-3.616-.527-5.32.483-.795.906-1.202 1.291-1.247.419-.048.778.316 1.195.739.16.163.327.332.508.487.218.185.51.298.847.43.317.123.677.264 1.024.49.55.358.811 1.294 1.114 2.377.075.268.152.546.237.823.115.379.142.958.173 1.63.084 1.793.198 4.25 2.092 5.593.021.015.05.015.072 0a.06.06 0 0 0 .02-.07c-.674-1.919-.466-3.623-.046-4.577.473-1.064 1.097-1.773 1.668-1.896.23-.052.517-.033.85-.011.487.031 1.038.067 1.618-.097.894-.255 2.1 1.809 2.617 2.69l.059.1c.44.746 1.413 2.78.945 5.558a.06.06 0 0 0 .116.034c.274-.628 2.032-3.268 3.117-3.547.507.502.527 3.214.536 4.527a.06.06 0 0 0 .061.06.06.06 0 0 0 .06-.054c.094-.918 1.078-2.439 1.723-3.14.194-.213.415-.36.65-.516.516-.344 1.05-.699 1.293-1.797.091-.41.202-.798.31-1.172.253-.884.493-1.72.468-2.805-.04-1.57-2.21-2.605-3.352-2.933-.574-.169-1.39-.577-2.254-1.01-.772-.386-1.571-.786-2.261-1.046-1.06-.4-2.024-1.839-2.799-2.994a17.198 17.198 0 0 0-.735-1.046c-.786-.99-1.624-1.684-2.987-2.472-1.272-.727-3.834-.836-5.165-.68-7.57.826-10.59-2.088-13.24-5.423 2.455-2.944 6.909-4.205 12.547-3.552 5.119.593 10.708 2.67 15.334 5.699a.06.06 0 0 0 .063.002c1.766-.992 2.863-2.367 3.557-4.456.492-1.484.124-5.491-2.826-6.52-.495-.175-.875-1.36-1.242-2.505-.218-.679-.424-1.32-.656-1.771-.654-1.26-1.794-2.813-2.838-3.867-1.153-1.146-2.892-2.247-4.289-3.132a71.92 71.92 0 0 1-.957-.612c-1.476-.97-2.928-2.006-3.06-3.071-.044-.331.114-.718.456-1.118.65-.763 1.81-1.38 2.64-1.406 1.296-.04 2.633-1.844 2.968-2.863.938.281 1.8.095 2.887-.14 1.124-.252 1.697-1.905 1.972-2.7l.032-.09c.173.02.34.043.502.066.685.097 1.332.19 2.12-.033.717-.204 1.2-.853 1.666-1.481.171-.23.333-.448.502-.637 1.408.514 2.88.408 3.942-.283 1.088-.71 1.154-2.121 1.086-2.949.522.042 1.13-.072 1.718-.182.252-.048.49-.092.713-.123.796-.107 1.902-1.835 2.24-3.15.202.024.41.052.62.08.974.133 1.98.27 2.925.06 1.096-.24 2.878-1.33 3.244-2.51 1.017.272 4.232-.122 5.36-.37.626-.138 1.252-.656 1.636-1.353.32-.58.412-1.197.26-1.71.377.051.827.153 1.3.26 1.21.274 2.58.584 3.666.3 1.255-.325 2.68-1.244 3.621-1.851.232-.15.432-.279.592-.374.356-.217.965-.25 1.61-.284.784-.042 1.594-.086 2.058-.467.299-.246.693-.59 1.11-.952.718-.625 1.532-1.334 1.986-1.65.365-.256.944-.317 1.557-.382.542-.058 1.155-.123 1.712-.333 1.22-.46 3.823-2.092 4.317-3.21.374-.834 1.558-1.722 2.422-2.37.258-.193.502-.376.69-.53.34-.28 1.256-.816 2.226-1.382 1.375-.804 2.935-1.714 3.427-2.224.728-.751.745-1.263.759-1.674.002-.072.005-.14.01-.204.034-.33.539-.892 1.123-1.543 1.042-1.16 2.468-2.748 2.44-4.343a.06.06 0 0 0-.034-.053c-.875-.445-1.514-.251-2.407.1 1.468-1.626 3.058-5.198 2.945-7.524-.038-.784-.264-1.367-.673-1.735 3.45-2.877 3.392-6.277 3.04-8.596z" fill="#FCD006"/><path d="M130.256 131.29c1.258.24 1.545 1.861 1.603 2.353.072.607-.277 1.757-.585 2.77-.111.369-.218.72-.303 1.035-.976-1.64-5.309-5.539-6.91-6.734 1.802-.22 4.915.326 6.195.576zm.682 6.347c.01.02.032.033.054.033H131a.061.061 0 0 0 .052-.046c.089-.35.21-.75.34-1.175.326-1.076.664-2.188.59-2.82-.061-.512-.363-2.203-1.702-2.458-1.321-.259-4.588-.831-6.384-.557a.06.06 0 0 0-.026.109c1.56 1.127 6.284 5.398 7.069 6.914zm63.674-80.942a.061.061 0 0 0 0 .093c.417.342.647.912.685 1.695.117 2.397-1.6 6.135-3.1 7.632a.06.06 0 0 0 .065.099l.032-.012c1.006-.4 1.617-.644 2.499-.21.005 1.536-1.39 3.089-2.41 4.225-.623.694-1.115 1.242-1.152 1.61a3.287 3.287 0 0 0-.011.213c-.013.39-.03.876-.726 1.593-.48.499-2.032 1.405-3.4 2.204-1.018.594-1.895 1.107-2.243 1.393a19.78 19.78 0 0 1-.684.527c-.875.656-2.074 1.555-2.461 2.419-.474 1.072-3.075 2.703-4.249 3.144-.542.205-1.121.267-1.682.326-.629.067-1.223.13-1.614.404-.459.32-1.276 1.03-1.996 1.658-.416.362-.81.704-1.108.95-.432.355-1.222.398-1.986.439-.661.035-1.285.069-1.667.3-.162.098-.362.227-.595.377-.935.603-2.349 1.515-3.585 1.835-1.06.277-2.413-.03-3.608-.3-.518-.117-1.007-.227-1.41-.273a.059.059 0 0 0-.054.022.06.06 0 0 0-.01.059c.182.496.102 1.117-.22 1.702-.362.657-.973 1.164-1.556 1.293-1.11.244-4.449.65-5.357.355a.062.062 0 0 0-.047.004.06.06 0 0 0-.03.037c-.283 1.053-1.965 2.22-3.17 2.484-.923.204-1.919.07-2.882-.061a32.18 32.18 0 0 0-.676-.087.06.06 0 0 0-.066.046c-.31 1.273-1.409 3.01-2.151 3.11a15.07 15.07 0 0 0-.72.124c-.607.114-1.234.232-1.756.174a.06.06 0 0 0-.067.066c.075.788.042 2.213-1.024 2.908-1.04.677-2.488.774-3.873.258a.06.06 0 0 0-.066.016c-.182.2-.354.43-.536.676-.455.612-.926 1.244-1.602 1.437-.763.215-1.369.13-2.07.03a18.418 18.418 0 0 0-.553-.074.06.06 0 0 0-.065.04l-.048.138c-.268.774-.826 2.384-1.883 2.62-1.21.263-1.997.409-2.883.125a.06.06 0 0 0-.046.004.06.06 0 0 0-.03.037c-.248.829-1.526 2.794-2.874 2.835-.875.027-2.048.65-2.729 1.448-.364.427-.532.847-.484 1.212.139 1.116 1.615 2.171 3.114 3.157.286.187.61.393.959.614 1.392.881 3.125 1.978 4.268 3.115 1.036 1.045 2.167 2.587 2.816 3.836.228.442.432 1.079.648 1.753.376 1.174.766 2.387 1.318 2.582 2.876 1.003 3.232 4.918 2.75 6.368-.679 2.046-1.75 3.396-3.468 4.37-4.636-3.028-10.23-5.104-15.356-5.697-5.705-.66-10.21.63-12.686 3.633a.06.06 0 0 0 0 .076c2.678 3.378 5.717 6.34 13.379 5.506 1.315-.153 3.843-.048 5.09.665 1.349.78 2.177 1.464 2.953 2.442.215.27.465.643.73 1.038.783 1.17 1.76 2.626 2.855 3.04.685.258 1.48.657 2.25 1.042.87.435 1.69.846 2.275 1.017 1.113.32 3.227 1.32 3.264 2.82.025 1.067-.212 1.894-.463 2.769-.108.376-.22.764-.311 1.179-.233 1.05-.746 1.392-1.243 1.722-.23.153-.468.311-.672.536-.561.61-1.339 1.77-1.637 2.693-.024-1.853-.115-3.713-.597-4.118a.06.06 0 0 0-.052-.013c-1.034.226-2.537 2.397-3.065 3.309.34-2.638-.585-4.564-1.013-5.29l-.058-.099c-.53-.906-1.77-3.03-2.755-2.746-.56.159-1.1.124-1.576.093-.343-.023-.64-.042-.885.014-.609.13-1.264.865-1.753 1.965-.535 1.217-.54 2.88-.02 4.482-1.697-1.332-1.805-3.667-1.885-5.385-.031-.68-.059-1.266-.18-1.659-.083-.276-.16-.553-.235-.82-.31-1.107-.576-2.064-1.164-2.446-.358-.234-.724-.376-1.047-.502-.327-.127-.61-.237-.812-.41-.177-.15-.341-.318-.5-.479-.421-.426-.818-.826-1.296-.774-.43.05-.87.464-1.381 1.304-1.026 1.676-.91 3.383.357 5.21-1.076-.672-3.503-2.323-3.675-3.65-.05-.374-.062-.889-.075-1.433-.027-1.143-.055-2.325-.424-2.642-.56-.474-2.133-.696-3.154-.03-1.17.755-1.896 1.572-2.157 2.427-.266.882-.83 3.334-.94 4.281-.282-.004-.655-.231-.986-.433-.425-.259-.791-.482-.997-.293-.249.23-.624.324-1.029.256-.57-.095-1.086-.482-1.382-1.035-.286-.533-.92-1.152-1.486-1.263-.227-.045-.42-.003-.574.124-.241.199-.589.27-.957.346-.398.081-.809.165-1.117.421-.151-1.23-.847-2.327-1.757-2.754-.86-.412-1.75-1.32-2.026-2.067-.237-.634-1.036-1.207-1.741-1.714a18.02 18.02 0 0 1-.59-.435c-1.01-.788-1.995-2.409-2.03-3.335a.06.06 0 0 0-.058-.058c-.034.001-.06.023-.063.054-.224 2.24-.735 4.278-1.564 6.234a29.957 29.957 0 0 0-.771 2.01c-.113.32-.218.622-.347.947-.181.465-1.456 1.252-2.504 1.066-.766-.137-1.181-.78-1.2-1.864a.06.06 0 0 0-.03-.05.061.061 0 0 0-.06-.002c-.688.364-1.226.768-1.701 1.125-.63.472-1.127.846-1.696.924-.838.11-2.303.059-2.785-.406a.449.449 0 0 1-.15-.385.06.06 0 0 0-.1-.053c-1.071.894-1.469 1.103-3.244 1.286-.401.042-.767.095-1.09.142-1.097.158-1.76.253-1.975-.323a.06.06 0 0 0-.034-.035.06.06 0 0 0-.048 0c-.895.4-2.73 1.03-4.124 1.13-.803.058-1.428-.21-2.033-.47-.442-.189-.86-.368-1.332-.422-.468-.052-1.009.078-1.582.216-.833.2-1.696.41-2.467.1-1.27-.51-2.954-2.132-2.59-3.241a.06.06 0 0 0-.057-.08h-.038c-1.232-.016-1.693-.022-2.787.326-.507.16-1.512.088-2.16-.574-.492-.503-.936-1.516-.255-3.485a.06.06 0 0 0-.037-.077c-1.015-.363-2.311-.589-3.354-.771-.592-.104-1.104-.193-1.454-.287-.385-.1-.858-.566-1.203-1.189-.341-.615-.478-1.232-.358-1.61.088-.276.1-.576.113-.866.016-.367.033-.748.202-1.082a.06.06 0 0 0-.042-.087c-1.31-.272-2.08-.725-2.818-1.206-.327-.215-.95-.85-.967-1.715-.016-.743.421-1.44 1.298-2.072 1.7-1.227 6.144-2.312 9.39-3.104 1.182-.289 2.203-.538 2.946-.755l1.072-.312c3.776-1.097 11.635-3.38 12.629-4.193a.06.06 0 0 0 .01-.083c-.284-.396-.534-.767-.776-1.125-.681-1.01-1.27-1.881-2.146-2.557-.561-.433-.92-.901-1.237-1.314-.338-.442-.63-.823-1.064-1.01-.56-.239-1.286-.26-1.988-.282-.342-.01-.695-.02-1.022-.056-1.022-.115-2.577-1.029-2.49-1.893a.06.06 0 0 0-.048-.066l-.573-.117c-1.155-.23-2.153-.428-2.824-1.15-.605-.656-1.118-1.846-.89-2.504.097-.278.32-.447.66-.502a.06.06 0 0 0 .003-.119c-.681-.138-1.152-.115-1.53-.097-.454.023-.812.04-1.32-.22-.435-.226-.521-.641-.622-1.122-.11-.53-.235-1.13-.865-1.613-.01-.006-1.071-.65-1.758-1.225-.35-.297-.547-.854-.722-1.346-.17-.48-.317-.895-.577-.993l-.127-.047c-.61-.227-2.464-.917-3.102-1.465-.697-.598-1.542-1.949-1.335-2.791.213-.877-.013-2.212-.75-2.841-.666-.567-1.555-1.806-1.347-2.662.223-.908-.114-1.335-1.062-2.235-.898-.853-1.765-2.224-1.718-2.716.04-.4-.563-.783-1.262-1.226-.252-.16-.512-.325-.74-.493a14.654 14.654 0 0 0-.771-.515c-.725-.464-1.546-.99-2.019-1.682-.178-.264-.361-.565-.555-.884-.513-.844-1.094-1.8-1.78-2.35-.87-.698-1.616-1.32-1.94-1.872-.312-.537-.962-1.655-1.676-2.258a13.532 13.532 0 0 0-.851-.634c-.814-.58-1.828-1.3-2.032-1.852-.055-.15-.113-.322-.174-.506-.276-.828-.619-1.858-1.214-2.247a40.276 40.276 0 0 0-.331-.214c-1.056-.678-3.53-2.266-4.094-3.222-.08-.137-.181-.298-.29-.47-.417-.667-1.047-1.673-.806-1.931.122-.131.545-.14 1.87.557 2.787 1.462 4.354 1.22 5.29 1.075.202-.03.376-.057.528-.063a.06.06 0 0 0 .053-.034.06.06 0 0 0-.005-.062 90.02 90.02 0 0 1-.268-.377c-.775-1.094-.983-1.388-2.384-2.248-.457-.28-1.05-.554-1.677-.844-1.551-.717-3.31-1.53-4.23-2.893-.466-.686-1.07-1.442-1.655-2.173-1.054-1.32-2.144-2.684-2.302-3.518-.094-.497-.097-1.173-.1-1.889-.005-1.193-.01-2.426-.408-3.196a15.829 15.829 0 0 0-.62-1.065c-.49-.795-.955-1.546-1.038-2.44a52.19 52.19 0 0 0-.089-.857c-.114-1.045-.221-2.032-.065-2.61.172-.652.28-2.238-.54-3.576a7.079 7.079 0 0 0-.154-.233C1.095 38.992.58 35.528 1.986 32.292c1.364 3.23 4.327 5.284 5.367 5.808a.06.06 0 0 0 .067-.008.06.06 0 0 0 .018-.066c-.246-.71-.52-1.45-.787-2.165-1.498-4.026-3.047-8.188-1.277-11.759 1.404 4.05 4.248 7.696 5.83 9.52 2.214 2.551 4.648 4.65 5.92 5.103a.06.06 0 0 0 .08-.063c-.086-.817-.33-1.845-.614-3.034-.79-3.313-1.867-7.836.193-10.464 2.02 5.599 7.684 11.242 12.094 15 5.02 4.278 9.856 7.361 10.935 7.867a.06.06 0 0 0 .075-.09c-.727-1.015-1.752-2.064-2.838-3.174-1.257-1.284-2.556-2.612-3.439-3.954-1.594-2.424-4.747-7.83-5.17-9.945a51.264 51.264 0 0 0-.33-1.516c-.245-1.061-.392-1.702-.37-2.792.013-.876.29-1.833.791-1.965.294-.077.801.099 1.55 1.373 2.951 5.029 6.87 11.392 8.78 13.147 1.71 1.573 4.695 4.492 7.856 7.582 2.934 2.868 5.968 5.834 7.884 7.621 6.463 6.027 10.495 10.197 11.982 12.394.898 1.327 2.102 3.432 3.267 5.467 1.441 2.519 2.802 4.898 3.66 5.981 2.36 2.981 4.604 9.058 5.916 13.75.14.5.286 1.038.437 1.597 1.12 4.145 2.514 9.305 4.75 9.497.068.006.138.01.21.009 3.81 0 12.725-8.304 15.54-11.545.057-.05 5.622-4.977 7.697-7.032 2.189-2.165 9.515-8.171 12.423-9.175l.654-.228c2.968-1.03 7.934-2.755 10.145-3.76.355-.162.807-.364 1.325-.596 3-1.344 8.019-3.594 9.423-4.752.311-.254.868-.687 1.574-1.235 3.02-2.345 8.56-6.65 9.914-8.66-.05 1.159-.714 2.143-1.303 3.018-.14.206-.27.4-.391.593a.06.06 0 0 0 .082.085l.183-.109c3.687-2.195 7.5-4.465 10.342-6.804 2.802-2.31 6.146-4.22 7.574-5.036l.112-.064c1.443-.826 5.898-3.72 8.166-6.504-.663 1.565-1.815 4.23-3.366 6.682-1.102 1.749-2.352 3.26-3.456 4.593-.704.851-1.311 1.586-1.758 2.236a.06.06 0 0 0 0 .068.06.06 0 0 0 .062.025c3.369-.708 19.115-9.931 22.091-12.393-.39 1.088-1.432 2.487-2.442 3.843-.811 1.09-1.65 2.218-2.183 3.216a.06.06 0 0 0 .089.077c3.61-2.574 8.514-5.542 11.51-6.198-.028 1.825-.707 3.834-1.162 4.751a.06.06 0 0 0-.006.036c.352 2.303.418 5.694-3.05 8.55zm3.173-8.549c.467-.948 1.158-3.009 1.168-4.863a.061.061 0 0 0-.023-.047.06.06 0 0 0-.05-.012c-2.949.614-7.785 3.514-11.414 6.08.53-.932 1.3-1.966 2.046-2.969 1.13-1.517 2.197-2.95 2.527-4.084a.061.061 0 0 0-.026-.069.061.061 0 0 0-.073.006c-1.223 1.09-5.682 3.911-10.844 6.86-4.241 2.423-9.343 5.129-11.203 5.61.435-.613 1.007-1.304 1.662-2.097 1.105-1.336 2.359-2.85 3.465-4.606 1.642-2.597 2.838-5.43 3.481-6.95l.072-.171a.06.06 0 0 0-.026-.076.06.06 0 0 0-.079.016c-2.145 2.875-6.911 5.975-8.412 6.834l-.111.064c-1.43.817-4.782 2.731-7.591 5.048-2.826 2.324-6.617 4.584-10.289 6.77.08-.122.164-.246.25-.375.636-.942 1.355-2.01 1.326-3.3a.06.06 0 0 0-.045-.057.059.059 0 0 0-.068.028c-1.105 1.9-6.89 6.394-9.999 8.808-.706.549-1.264.982-1.576 1.238-1.392 1.148-6.402 3.393-9.396 4.734-.518.232-.97.435-1.326.597-2.206 1.002-7.168 2.726-10.133 3.756l-.655.227c-2.923 1.01-10.274 7.034-12.469 9.204-2.072 2.053-7.635 6.978-7.696 7.033-3.53 4.06-12.248 11.803-15.654 11.5-2.152-.184-3.534-5.299-4.644-9.408-.151-.559-.296-1.096-.437-1.597-1.315-4.704-3.565-10.798-5.937-13.793-.853-1.076-2.275-3.562-3.65-5.966-1.166-2.037-2.372-4.144-3.272-5.475-1.493-2.204-5.53-6.381-12-12.414-1.915-1.787-4.948-4.752-7.882-7.62-3.162-3.09-6.148-6.01-7.859-7.584-1.998-1.837-6.344-9.008-8.757-13.12-.633-1.075-1.2-1.556-1.686-1.428-.586.154-.868 1.186-.882 2.08-.022 1.104.135 1.787.373 2.821.098.427.21.91.33 1.512.426 2.133 3.589 7.558 5.187 9.988.89 1.352 2.193 2.684 3.454 3.973 1.01 1.032 1.967 2.011 2.677 2.956-1.412-.752-5.964-3.714-10.683-7.736-4.425-3.771-10.116-9.444-12.095-15.05a.06.06 0 0 0-.105-.019c-2.189 2.66-1.088 7.28-.284 10.653.27 1.138.507 2.127.6 2.92-2.384-.963-9.329-7.838-11.63-14.648a.061.061 0 0 0-.111-.009c-1.896 3.647-.319 7.885 1.206 11.984.248.666.504 1.353.736 2.018-1.146-.624-3.958-2.666-5.229-5.806a.06.06 0 0 0-.055-.038c-.025.001-.047.013-.057.036C.437 35.426.937 38.974 3.42 42.658c.067.098.118.175.151.228.74 1.21.721 2.745.527 3.481-.162.6-.054 1.598.061 2.655.031.286.063.574.089.856.086.922.557 1.684 1.056 2.492.21.339.426.69.615 1.056.384.745.39 2.018.395 3.142.003.721.006 1.402.102 1.91.163.864 1.214 2.179 2.326 3.571.583.73 1.186 1.484 1.649 2.166.94 1.39 2.714 2.21 4.28 2.935.624.289 1.214.561 1.664.837 1.38.847 1.586 1.136 2.349 2.215l.205.289c-.13.011-.273.033-.432.058-.922.142-2.464.38-5.215-1.063-1.15-.606-1.79-.774-2.016-.533-.282.303.171 1.086.792 2.077.108.172.208.332.288.468.579.981 3.07 2.58 4.133 3.263.137.088.25.16.33.214.56.365.896 1.373 1.166 2.184.061.185.12.358.175.51.217.585 1.248 1.318 2.075 1.908.33.234.642.456.843.628.699.59 1.341 1.695 1.65 2.226.335.57 1.058 1.175 1.968 1.905.67.537 1.245 1.484 1.753 2.319.195.32.378.622.559.889.487.712 1.319 1.245 2.053 1.716.278.177.54.345.764.51.232.17.495.337.748.498.61.387 1.239.787 1.207 1.113-.051.53.818 1.925 1.755 2.815.91.865 1.234 1.272 1.027 2.119-.223.915.676 2.178 1.386 2.782.68.58.916 1.875.711 2.72-.218.887.654 2.294 1.374 2.911.654.563 2.459 1.234 3.138 1.487l.127.047c.207.079.352.487.506.92.18.507.383 1.08.758 1.399.694.581 1.762 1.23 1.768 1.232.588.451.708 1.029.815 1.538.101.49.198.952.685 1.204.537.275.91.257 1.38.234a5.55 5.55 0 0 1 1.237.047.819.819 0 0 0-.489.51c-.27.773.358 2.022.915 2.627.698.75 1.762.962 2.89 1.186.17.034.344.069.519.106-.035.985 1.646 1.864 2.602 1.971.331.036.687.047 1.031.057.691.021 1.406.043 1.944.272.405.175.688.544 1.016.972.321.42.685.895 1.259 1.337.86.664 1.416 1.487 2.12 2.528.232.346.472.702.744 1.081-1.156.829-9.115 3.141-12.541 4.137l-1.072.312c-.74.216-1.76.465-2.941.753-3.256.795-7.714 1.883-9.432 3.124-.911.657-1.365 1.388-1.349 2.172.02.915.677 1.587 1.022 1.815.734.477 1.5.93 2.785 1.207-.15.339-.166.705-.181 1.06-.013.296-.025.574-.107.836-.133.414.005 1.052.367 1.705.366.66.856 1.138 1.278 1.247.355.095.87.185 1.465.29 1.018.177 2.28.398 3.277.745-.673 1.99-.21 3.03.302 3.552.723.74 1.784.764 2.284.606 1.063-.339 1.52-.337 2.707-.321-.286 1.166 1.4 2.797 2.683 3.313.807.323 1.688.11 2.54-.095.563-.136 1.094-.264 1.54-.213.455.051.865.227 1.298.413.618.265 1.258.541 2.09.479 1.38-.1 3.186-.711 4.107-1.115.27.603.96.503 2.082.341.322-.046.687-.099 1.086-.14 1.754-.181 2.188-.387 3.21-1.232.018.13.08.247.187.35.516.498 1.998.557 2.886.439.6-.083 1.108-.464 1.752-.947.45-.34.96-.721 1.6-1.07.054 1.372.73 1.782 1.296 1.883 1.059.189 2.418-.575 2.639-1.141.13-.327.236-.63.348-.95.185-.527.395-1.124.77-2.004a21.103 21.103 0 0 0 1.523-5.823c.253.965 1.12 2.286 2.004 2.976.18.142.38.286.594.439.69.496 1.474 1.058 1.698 1.657.286.773 1.203 1.71 2.088 2.134.902.424 1.586 1.54 1.7 2.777a.06.06 0 0 0 .04.051.062.062 0 0 0 .065-.014c.29-.296.725-.386 1.145-.472.384-.078.746-.152 1.01-.371.125-.103.284-.136.474-.098.523.103 1.135.704 1.402 1.202.313.585.863.995 1.47 1.096.441.075.854-.03 1.13-.286.139-.128.5.094.851.307.385.235.787.479 1.11.449a.06.06 0 0 0 .054-.054c.095-.9.673-3.416.942-4.31.252-.828.961-1.622 2.107-2.362.962-.626 2.489-.42 3.01.02.327.282.356 1.489.38 2.554.014.548.026 1.065.076 1.446.19 1.46 2.854 3.21 3.99 3.894a.06.06 0 0 0 .076-.01.06.06 0 0 0 .004-.077c-1.398-1.876-1.57-3.616-.527-5.32.483-.795.906-1.202 1.291-1.247.419-.048.778.316 1.195.739.16.163.327.332.508.487.218.185.51.298.847.43.317.123.677.264 1.024.49.55.358.811 1.294 1.114 2.377.075.268.152.546.237.823.115.379.142.958.173 1.63.084 1.793.198 4.25 2.092 5.593.021.015.05.015.072 0a.06.06 0 0 0 .02-.07c-.674-1.919-.466-3.623-.046-4.577.473-1.064 1.097-1.773 1.668-1.896.23-.052.517-.033.85-.011.487.031 1.038.067 1.618-.097.894-.255 2.1 1.809 2.617 2.69l.059.1c.44.746 1.413 2.78.945 5.558a.06.06 0 0 0 .116.034c.274-.628 2.032-3.268 3.117-3.547.507.502.527 3.214.536 4.527a.06.06 0 0 0 .061.06.06.06 0 0 0 .06-.054c.094-.918 1.078-2.439 1.723-3.14.194-.213.415-.36.65-.516.516-.344 1.05-.699 1.293-1.797.091-.41.202-.798.31-1.172.253-.884.493-1.72.468-2.805-.04-1.57-2.21-2.605-3.352-2.933-.574-.169-1.39-.577-2.254-1.01-.772-.386-1.571-.786-2.261-1.046-1.06-.4-2.024-1.839-2.799-2.994a17.198 17.198 0 0 0-.735-1.046c-.786-.99-1.624-1.684-2.987-2.472-1.272-.727-3.834-.836-5.165-.68-7.57.826-10.59-2.088-13.24-5.423 2.455-2.944 6.909-4.205 12.547-3.552 5.119.593 10.708 2.67 15.334 5.699a.06.06 0 0 0 .063.002c1.766-.992 2.863-2.367 3.557-4.456.492-1.484.124-5.491-2.826-6.52-.495-.175-.875-1.36-1.242-2.505-.218-.679-.424-1.32-.656-1.771-.654-1.26-1.794-2.813-2.838-3.867-1.153-1.146-2.892-2.247-4.289-3.132a71.92 71.92 0 0 1-.957-.612c-1.476-.97-2.928-2.006-3.06-3.071-.044-.331.114-.718.456-1.118.65-.763 1.81-1.38 2.64-1.406 1.296-.04 2.633-1.844 2.968-2.863.938.281 1.8.095 2.887-.14 1.124-.252 1.697-1.905 1.972-2.7l.032-.09c.173.02.34.043.502.066.685.097 1.332.19 2.12-.033.717-.204 1.2-.853 1.666-1.481.171-.23.333-.448.502-.637 1.408.514 2.88.408 3.942-.283 1.088-.71 1.154-2.121 1.086-2.949.522.042 1.13-.072 1.718-.182.252-.048.49-.092.713-.123.796-.107 1.902-1.835 2.24-3.15.202.024.41.052.62.08.974.133 1.98.27 2.925.06 1.096-.24 2.878-1.33 3.244-2.51 1.017.272 4.232-.122 5.36-.37.626-.138 1.252-.656 1.636-1.353.32-.58.412-1.197.26-1.71.377.051.827.153 1.3.26 1.21.274 2.58.584 3.666.3 1.255-.325 2.68-1.244 3.621-1.851.232-.15.432-.279.592-.374.356-.217.965-.25 1.61-.284.784-.042 1.594-.086 2.058-.467.299-.246.693-.59 1.11-.952.718-.625 1.532-1.334 1.986-1.65.365-.256.944-.317 1.557-.382.542-.058 1.155-.123 1.712-.333 1.22-.46 3.823-2.092 4.317-3.21.374-.834 1.558-1.722 2.422-2.37.258-.193.502-.376.69-.53.34-.28 1.256-.816 2.226-1.382 1.375-.804 2.935-1.714 3.427-2.224.728-.751.745-1.263.759-1.674.002-.072.005-.14.01-.204.034-.33.539-.892 1.123-1.543 1.042-1.16 2.468-2.748 2.44-4.343a.06.06 0 0 0-.034-.053c-.875-.445-1.514-.251-2.407.1 1.468-1.626 3.058-5.198 2.945-7.524-.038-.784-.264-1.367-.673-1.735 3.45-2.877 3.392-6.277 3.04-8.596z" fill="#FCD006" fill-rule="nonzero"/><path d="M130.256 131.29c1.258.24 1.545 1.861 1.603 2.353.072.607-.277 1.757-.585 2.77-.111.369-.218.72-.303 1.035-.976-1.64-5.309-5.539-6.91-6.734 1.802-.22 4.915.326 6.195.576zm.682 6.347c.01.02.032.033.054.033H131a.061.061 0 0 0 .052-.046c.089-.35.21-.75.34-1.175.326-1.076.664-2.188.59-2.82-.061-.512-.363-2.203-1.702-2.458-1.321-.259-4.588-.831-6.384-.557a.06.06 0 0 0-.026.109c1.56 1.127 6.284 5.398 7.069 6.914zm63.674-80.942a.061.061 0 0 0 0 .093c.417.342.647.912.685 1.695.117 2.397-1.6 6.135-3.1 7.632a.06.06 0 0 0 .065.099l.032-.012c1.006-.4 1.617-.644 2.499-.21.005 1.536-1.39 3.089-2.41 4.225-.623.694-1.115 1.242-1.152 1.61a3.287 3.287 0 0 0-.011.213c-.013.39-.03.876-.726 1.593-.48.499-2.032 1.405-3.4 2.204-1.018.594-1.895 1.107-2.243 1.393a19.78 19.78 0 0 1-.684.527c-.875.656-2.074 1.555-2.461 2.419-.474 1.072-3.075 2.703-4.249 3.144-.542.205-1.121.267-1.682.326-.629.067-1.223.13-1.614.404-.459.32-1.276 1.03-1.996 1.658-.416.362-.81.704-1.108.95-.432.355-1.222.398-1.986.439-.661.035-1.285.069-1.667.3-.162.098-.362.227-.595.377-.935.603-2.349 1.515-3.585 1.835-1.06.277-2.413-.03-3.608-.3-.518-.117-1.007-.227-1.41-.273a.059.059 0 0 0-.054.022.06.06 0 0 0-.01.059c.182.496.102 1.117-.22 1.702-.362.657-.973 1.164-1.556 1.293-1.11.244-4.449.65-5.357.355a.062.062 0 0 0-.047.004.06.06 0 0 0-.03.037c-.283 1.053-1.965 2.22-3.17 2.484-.923.204-1.919.07-2.882-.061a32.18 32.18 0 0 0-.676-.087.06.06 0 0 0-.066.046c-.31 1.273-1.409 3.01-2.151 3.11a15.07 15.07 0 0 0-.72.124c-.607.114-1.234.232-1.756.174a.06.06 0 0 0-.067.066c.075.788.042 2.213-1.024 2.908-1.04.677-2.488.774-3.873.258a.06.06 0 0 0-.066.016c-.182.2-.354.43-.536.676-.455.612-.926 1.244-1.602 1.437-.763.215-1.369.13-2.07.03a18.418 18.418 0 0 0-.553-.074.06.06 0 0 0-.065.04l-.048.138c-.268.774-.826 2.384-1.883 2.62-1.21.263-1.997.409-2.883.125a.06.06 0 0 0-.046.004.06.06 0 0 0-.03.037c-.248.829-1.526 2.794-2.874 2.835-.875.027-2.048.65-2.729 1.448-.364.427-.532.847-.484 1.212.139 1.116 1.615 2.171 3.114 3.157.286.187.61.393.959.614 1.392.881 3.125 1.978 4.268 3.115 1.036 1.045 2.167 2.587 2.816 3.836.228.442.432 1.079.648 1.753.376 1.174.766 2.387 1.318 2.582 2.876 1.003 3.232 4.918 2.75 6.368-.679 2.046-1.75 3.396-3.468 4.37-4.636-3.028-10.23-5.104-15.356-5.697-5.705-.66-10.21.63-12.686 3.633a.06.06 0 0 0 0 .076c2.678 3.378 5.717 6.34 13.379 5.506 1.315-.153 3.843-.048 5.09.665 1.349.78 2.177 1.464 2.953 2.442.215.27.465.643.73 1.038.783 1.17 1.76 2.626 2.855 3.04.685.258 1.48.657 2.25 1.042.87.435 1.69.846 2.275 1.017 1.113.32 3.227 1.32 3.264 2.82.025 1.067-.212 1.894-.463 2.769-.108.376-.22.764-.311 1.179-.233 1.05-.746 1.392-1.243 1.722-.23.153-.468.311-.672.536-.561.61-1.339 1.77-1.637 2.693-.024-1.853-.115-3.713-.597-4.118a.06.06 0 0 0-.052-.013c-1.034.226-2.537 2.397-3.065 3.309.34-2.638-.585-4.564-1.013-5.29l-.058-.099c-.53-.906-1.77-3.03-2.755-2.746-.56.159-1.1.124-1.576.093-.343-.023-.64-.042-.885.014-.609.13-1.264.865-1.753 1.965-.535 1.217-.54 2.88-.02 4.482-1.697-1.332-1.805-3.667-1.885-5.385-.031-.68-.059-1.266-.18-1.659-.083-.276-.16-.553-.235-.82-.31-1.107-.576-2.064-1.164-2.446-.358-.234-.724-.376-1.047-.502-.327-.127-.61-.237-.812-.41-.177-.15-.341-.318-.5-.479-.421-.426-.818-.826-1.296-.774-.43.05-.87.464-1.381 1.304-1.026 1.676-.91 3.383.357 5.21-1.076-.672-3.503-2.323-3.675-3.65-.05-.374-.062-.889-.075-1.433-.027-1.143-.055-2.325-.424-2.642-.56-.474-2.133-.696-3.154-.03-1.17.755-1.896 1.572-2.157 2.427-.266.882-.83 3.334-.94 4.281-.282-.004-.655-.231-.986-.433-.425-.259-.791-.482-.997-.293-.249.23-.624.324-1.029.256-.57-.095-1.086-.482-1.382-1.035-.286-.533-.92-1.152-1.486-1.263-.227-.045-.42-.003-.574.124-.241.199-.589.27-.957.346-.398.081-.809.165-1.117.421-.151-1.23-.847-2.327-1.757-2.754-.86-.412-1.75-1.32-2.026-2.067-.237-.634-1.036-1.207-1.741-1.714a18.02 18.02 0 0 1-.59-.435c-1.01-.788-1.995-2.409-2.03-3.335a.06.06 0 0 0-.058-.058c-.034.001-.06.023-.063.054-.224 2.24-.735 4.278-1.564 6.234a29.957 29.957 0 0 0-.771 2.01c-.113.32-.218.622-.347.947-.181.465-1.456 1.252-2.504 1.066-.766-.137-1.181-.78-1.2-1.864a.06.06 0 0 0-.03-.05.061.061 0 0 0-.06-.002c-.688.364-1.226.768-1.701 1.125-.63.472-1.127.846-1.696.924-.838.11-2.303.059-2.785-.406a.449.449 0 0 1-.15-.385.06.06 0 0 0-.1-.053c-1.071.894-1.469 1.103-3.244 1.286-.401.042-.767.095-1.09.142-1.097.158-1.76.253-1.975-.323a.06.06 0 0 0-.034-.035.06.06 0 0 0-.048 0c-.895.4-2.73 1.03-4.124 1.13-.803.058-1.428-.21-2.033-.47-.442-.189-.86-.368-1.332-.422-.468-.052-1.009.078-1.582.216-.833.2-1.696.41-2.467.1-1.27-.51-2.954-2.132-2.59-3.241a.06.06 0 0 0-.057-.08h-.038c-1.232-.016-1.693-.022-2.787.326-.507.16-1.512.088-2.16-.574-.492-.503-.936-1.516-.255-3.485a.06.06 0 0 0-.037-.077c-1.015-.363-2.311-.589-3.354-.771-.592-.104-1.104-.193-1.454-.287-.385-.1-.858-.566-1.203-1.189-.341-.615-.478-1.232-.358-1.61.088-.276.1-.576.113-.866.016-.367.033-.748.202-1.082a.06.06 0 0 0-.042-.087c-1.31-.272-2.08-.725-2.818-1.206-.327-.215-.95-.85-.967-1.715-.016-.743.421-1.44 1.298-2.072 1.7-1.227 6.144-2.312 9.39-3.104 1.182-.289 2.203-.538 2.946-.755l1.072-.312c3.776-1.097 11.635-3.38 12.629-4.193a.06.06 0 0 0 .01-.083c-.284-.396-.534-.767-.776-1.125-.681-1.01-1.27-1.881-2.146-2.557-.561-.433-.92-.901-1.237-1.314-.338-.442-.63-.823-1.064-1.01-.56-.239-1.286-.26-1.988-.282-.342-.01-.695-.02-1.022-.056-1.022-.115-2.577-1.029-2.49-1.893a.06.06 0 0 0-.048-.066l-.573-.117c-1.155-.23-2.153-.428-2.824-1.15-.605-.656-1.118-1.846-.89-2.504.097-.278.32-.447.66-.502a.06.06 0 0 0 .003-.119c-.681-.138-1.152-.115-1.53-.097-.454.023-.812.04-1.32-.22-.435-.226-.521-.641-.622-1.122-.11-.53-.235-1.13-.865-1.613-.01-.006-1.071-.65-1.758-1.225-.35-.297-.547-.854-.722-1.346-.17-.48-.317-.895-.577-.993l-.127-.047c-.61-.227-2.464-.917-3.102-1.465-.697-.598-1.542-1.949-1.335-2.791.213-.877-.013-2.212-.75-2.841-.666-.567-1.555-1.806-1.347-2.662.223-.908-.114-1.335-1.062-2.235-.898-.853-1.765-2.224-1.718-2.716.04-.4-.563-.783-1.262-1.226-.252-.16-.512-.325-.74-.493a14.654 14.654 0 0 0-.771-.515c-.725-.464-1.546-.99-2.019-1.682-.178-.264-.361-.565-.555-.884-.513-.844-1.094-1.8-1.78-2.35-.87-.698-1.616-1.32-1.94-1.872-.312-.537-.962-1.655-1.676-2.258a13.532 13.532 0 0 0-.851-.634c-.814-.58-1.828-1.3-2.032-1.852-.055-.15-.113-.322-.174-.506-.276-.828-.619-1.858-1.214-2.247a40.276 40.276 0 0 0-.331-.214c-1.056-.678-3.53-2.266-4.094-3.222-.08-.137-.181-.298-.29-.47-.417-.667-1.047-1.673-.806-1.931.122-.131.545-.14 1.87.557 2.787 1.462 4.354 1.22 5.29 1.075.202-.03.376-.057.528-.063a.06.06 0 0 0 .053-.034.06.06 0 0 0-.005-.062 90.02 90.02 0 0 1-.268-.377c-.775-1.094-.983-1.388-2.384-2.248-.457-.28-1.05-.554-1.677-.844-1.551-.717-3.31-1.53-4.23-2.893-.466-.686-1.07-1.442-1.655-2.173-1.054-1.32-2.144-2.684-2.302-3.518-.094-.497-.097-1.173-.1-1.889-.005-1.193-.01-2.426-.408-3.196a15.829 15.829 0 0 0-.62-1.065c-.49-.795-.955-1.546-1.038-2.44a52.19 52.19 0 0 0-.089-.857c-.114-1.045-.221-2.032-.065-2.61.172-.652.28-2.238-.54-3.576a7.079 7.079 0 0 0-.154-.233C1.095 38.992.58 35.528 1.986 32.292c1.364 3.23 4.327 5.284 5.367 5.808a.06.06 0 0 0 .067-.008.06.06 0 0 0 .018-.066c-.246-.71-.52-1.45-.787-2.165-1.498-4.026-3.047-8.188-1.277-11.759 1.404 4.05 4.248 7.696 5.83 9.52 2.214 2.551 4.648 4.65 5.92 5.103a.06.06 0 0 0 .08-.063c-.086-.817-.33-1.845-.614-3.034-.79-3.313-1.867-7.836.193-10.464 2.02 5.599 7.684 11.242 12.094 15 5.02 4.278 9.856 7.361 10.935 7.867a.06.06 0 0 0 .075-.09c-.727-1.015-1.752-2.064-2.838-3.174-1.257-1.284-2.556-2.612-3.439-3.954-1.594-2.424-4.747-7.83-5.17-9.945a51.264 51.264 0 0 0-.33-1.516c-.245-1.061-.392-1.702-.37-2.792.013-.876.29-1.833.791-1.965.294-.077.801.099 1.55 1.373 2.951 5.029 6.87 11.392 8.78 13.147 1.71 1.573 4.695 4.492 7.856 7.582 2.934 2.868 5.968 5.834 7.884 7.621 6.463 6.027 10.495 10.197 11.982 12.394.898 1.327 2.102 3.432 3.267 5.467 1.441 2.519 2.802 4.898 3.66 5.981 2.36 2.981 4.604 9.058 5.916 13.75.14.5.286 1.038.437 1.597 1.12 4.145 2.514 9.305 4.75 9.497.068.006.138.01.21.009 3.81 0 12.725-8.304 15.54-11.545.057-.05 5.622-4.977 7.697-7.032 2.189-2.165 9.515-8.171 12.423-9.175l.654-.228c2.968-1.03 7.934-2.755 10.145-3.76.355-.162.807-.364 1.325-.596 3-1.344 8.019-3.594 9.423-4.752.311-.254.868-.687 1.574-1.235 3.02-2.345 8.56-6.65 9.914-8.66-.05 1.159-.714 2.143-1.303 3.018-.14.206-.27.4-.391.593a.06.06 0 0 0 .082.085l.183-.109c3.687-2.195 7.5-4.465 10.342-6.804 2.802-2.31 6.146-4.22 7.574-5.036l.112-.064c1.443-.826 5.898-3.72 8.166-6.504-.663 1.565-1.815 4.23-3.366 6.682-1.102 1.749-2.352 3.26-3.456 4.593-.704.851-1.311 1.586-1.758 2.236a.06.06 0 0 0 0 .068.06.06 0 0 0 .062.025c3.369-.708 19.115-9.931 22.091-12.393-.39 1.088-1.432 2.487-2.442 3.843-.811 1.09-1.65 2.218-2.183 3.216a.06.06 0 0 0 .089.077c3.61-2.574 8.514-5.542 11.51-6.198-.028 1.825-.707 3.834-1.162 4.751a.06.06 0 0 0-.006.036c.352 2.303.418 5.694-3.05 8.55zm3.173-8.549c.467-.948 1.158-3.009 1.168-4.863a.061.061 0 0 0-.023-.047.06.06 0 0 0-.05-.012c-2.949.614-7.785 3.514-11.414 6.08.53-.932 1.3-1.966 2.046-2.969 1.13-1.517 2.197-2.95 2.527-4.084a.061.061 0 0 0-.026-.069.061.061 0 0 0-.073.006c-1.223 1.09-5.682 3.911-10.844 6.86-4.241 2.423-9.343 5.129-11.203 5.61.435-.613 1.007-1.304 1.662-2.097 1.105-1.336 2.359-2.85 3.465-4.606 1.642-2.597 2.838-5.43 3.481-6.95l.072-.171a.06.06 0 0 0-.026-.076.06.06 0 0 0-.079.016c-2.145 2.875-6.911 5.975-8.412 6.834l-.111.064c-1.43.817-4.782 2.731-7.591 5.048-2.826 2.324-6.617 4.584-10.289 6.77.08-.122.164-.246.25-.375.636-.942 1.355-2.01 1.326-3.3a.06.06 0 0 0-.045-.057.059.059 0 0 0-.068.028c-1.105 1.9-6.89 6.394-9.999 8.808-.706.549-1.264.982-1.576 1.238-1.392 1.148-6.402 3.393-9.396 4.734-.518.232-.97.435-1.326.597-2.206 1.002-7.168 2.726-10.133 3.756l-.655.227c-2.923 1.01-10.274 7.034-12.469 9.204-2.072 2.053-7.635 6.978-7.696 7.033-3.53 4.06-12.248 11.803-15.654 11.5h0c-2.152-.184-3.534-5.299-4.644-9.408-.151-.559-.296-1.096-.437-1.597-1.315-4.704-3.565-10.798-5.937-13.793-.853-1.076-2.275-3.562-3.65-5.966-1.166-2.037-2.372-4.144-3.272-5.475-1.493-2.204-5.53-6.381-12-12.414-1.915-1.787-4.948-4.752-7.882-7.62-3.162-3.09-6.148-6.01-7.859-7.584-1.998-1.837-6.344-9.008-8.757-13.12-.633-1.075-1.2-1.556-1.686-1.428-.586.154-.868 1.186-.882 2.08-.022 1.104.135 1.787.373 2.821.098.427.21.91.33 1.512.426 2.133 3.589 7.558 5.187 9.988.89 1.352 2.193 2.684 3.454 3.973 1.01 1.032 1.967 2.011 2.677 2.956-1.412-.752-5.964-3.714-10.683-7.736-4.425-3.771-10.116-9.444-12.095-15.05a.06.06 0 0 0-.105-.019c-2.189 2.66-1.088 7.28-.284 10.653.27 1.138.507 2.127.6 2.92-2.384-.963-9.329-7.838-11.63-14.648a.061.061 0 0 0-.111-.009c-1.896 3.647-.319 7.885 1.206 11.984.248.666.504 1.353.736 2.018-1.146-.624-3.958-2.666-5.229-5.806a.06.06 0 0 0-.055-.038c-.025.001-.047.013-.057.036C.437 35.426.937 38.974 3.42 42.658c.067.098.118.175.151.228.74 1.21.721 2.745.527 3.481-.162.6-.054 1.598.061 2.655.031.286.063.574.089.856.086.922.557 1.684 1.056 2.492.21.339.426.69.615 1.056.384.745.39 2.018.395 3.142.003.721.006 1.402.102 1.91.163.864 1.214 2.179 2.326 3.571.583.73 1.186 1.484 1.649 2.166.94 1.39 2.714 2.21 4.28 2.935.624.289 1.214.561 1.664.837 1.38.847 1.586 1.136 2.349 2.215l.205.289c-.13.011-.273.033-.432.058-.922.142-2.464.38-5.215-1.063-1.15-.606-1.79-.774-2.016-.533-.282.303.171 1.086.792 2.077.108.172.208.332.288.468.579.981 3.07 2.58 4.133 3.263.137.088.25.16.33.214.56.365.896 1.373 1.166 2.184.061.185.12.358.175.51.217.585 1.248 1.318 2.075 1.908.33.234.642.456.843.628.699.59 1.341 1.695 1.65 2.226.335.57 1.058 1.175 1.968 1.905.67.537 1.245 1.484 1.753 2.319.195.32.378.622.559.889.487.712 1.319 1.245 2.053 1.716.278.177.54.345.764.51.232.17.495.337.748.498.61.387 1.239.787 1.207 1.113-.051.53.818 1.925 1.755 2.815.91.865 1.234 1.272 1.027 2.119-.223.915.676 2.178 1.386 2.782.68.58.916 1.875.711 2.72-.218.887.654 2.294 1.374 2.911.654.563 2.459 1.234 3.138 1.487l.127.047c.207.079.352.487.506.92.18.507.383 1.08.758 1.399.694.581 1.762 1.23 1.768 1.232.588.451.708 1.029.815 1.538.101.49.198.952.685 1.204.537.275.91.257 1.38.234a5.55 5.55 0 0 1 1.237.047.819.819 0 0 0-.489.51c-.27.773.358 2.022.915 2.627.698.75 1.762.962 2.89 1.186.17.034.344.069.519.106-.035.985 1.646 1.864 2.602 1.971.331.036.687.047 1.031.057.691.021 1.406.043 1.944.272.405.175.688.544 1.016.972.321.42.685.895 1.259 1.337.86.664 1.416 1.487 2.12 2.528.232.346.472.702.744 1.081-1.156.829-9.115 3.141-12.541 4.137l-1.072.312c-.74.216-1.76.465-2.941.753-3.256.795-7.714 1.883-9.432 3.124-.911.657-1.365 1.388-1.349 2.172.02.915.677 1.587 1.022 1.815.734.477 1.5.93 2.785 1.207-.15.339-.166.705-.181 1.06-.013.296-.025.574-.107.836-.133.414.005 1.052.367 1.705.366.66.856 1.138 1.278 1.247.355.095.87.185 1.465.29 1.018.177 2.28.398 3.277.745-.673 1.99-.21 3.03.302 3.552.723.74 1.784.764 2.284.606 1.063-.339 1.52-.337 2.707-.321-.286 1.166 1.4 2.797 2.683 3.313.807.323 1.688.11 2.54-.095.563-.136 1.094-.264 1.54-.213.455.051.865.227 1.298.413.618.265 1.258.541 2.09.479 1.38-.1 3.186-.711 4.107-1.115.27.603.96.503 2.082.341.322-.046.687-.099 1.086-.14 1.754-.181 2.188-.387 3.21-1.232.018.13.08.247.187.35.516.498 1.998.557 2.886.439.6-.083 1.108-.464 1.752-.947.45-.34.96-.721 1.6-1.07.054 1.372.73 1.782 1.296 1.883 1.059.189 2.418-.575 2.639-1.141.13-.327.236-.63.348-.95.185-.527.395-1.124.77-2.004a21.103 21.103 0 0 0 1.523-5.823c.253.965 1.12 2.286 2.004 2.976.18.142.38.286.594.439.69.496 1.474 1.058 1.698 1.657.286.773 1.203 1.71 2.088 2.134.902.424 1.586 1.54 1.7 2.777a.06.06 0 0 0 .04.051.062.062 0 0 0 .065-.014c.29-.296.725-.386 1.145-.472.384-.078.746-.152 1.01-.371.125-.103.284-.136.474-.098.523.103 1.135.704 1.402 1.202.313.585.863.995 1.47 1.096.441.075.854-.03 1.13-.286.139-.128.5.094.851.307.385.235.787.479 1.11.449a.06.06 0 0 0 .054-.054c.095-.9.673-3.416.942-4.31.252-.828.961-1.622 2.107-2.362.962-.626 2.489-.42 3.01.02.327.282.356 1.489.38 2.554.014.548.026 1.065.076 1.446.19 1.46 2.854 3.21 3.99 3.894a.06.06 0 0 0 .076-.01.06.06 0 0 0 .004-.077c-1.398-1.876-1.57-3.616-.527-5.32.483-.795.906-1.202 1.291-1.247.419-.048.778.316 1.195.739.16.163.327.332.508.487.218.185.51.298.847.43.317.123.677.264 1.024.49.55.358.811 1.294 1.114 2.377.075.268.152.546.237.823.115.379.142.958.173 1.63.084 1.793.198 4.25 2.092 5.593.021.015.05.015.072 0a.06.06 0 0 0 .02-.07c-.674-1.919-.466-3.623-.046-4.577.473-1.064 1.097-1.773 1.668-1.896.23-.052.517-.033.85-.011.487.031 1.038.067 1.618-.097.894-.255 2.1 1.809 2.617 2.69l.059.1c.44.746 1.413 2.78.945 5.558a.06.06 0 0 0 .116.034c.274-.628 2.032-3.268 3.117-3.547.507.502.527 3.214.536 4.527a.06.06 0 0 0 .061.06.06.06 0 0 0 .06-.054c.094-.918 1.078-2.439 1.723-3.14.194-.213.415-.36.65-.516.516-.344 1.05-.699 1.293-1.797.091-.41.202-.798.31-1.172.253-.884.493-1.72.468-2.805-.04-1.57-2.21-2.605-3.352-2.933-.574-.169-1.39-.577-2.254-1.01-.772-.386-1.571-.786-2.261-1.046-1.06-.4-2.024-1.839-2.799-2.994a17.198 17.198 0 0 0-.735-1.046c-.786-.99-1.624-1.684-2.987-2.472-1.272-.727-3.834-.836-5.165-.68-7.57.826-10.59-2.088-13.24-5.423 2.455-2.944 6.909-4.205 12.547-3.552 5.119.593 10.708 2.67 15.334 5.699a.06.06 0 0 0 .063.002c1.766-.992 2.863-2.367 3.557-4.456.492-1.484.124-5.491-2.826-6.52-.495-.175-.875-1.36-1.242-2.505-.218-.679-.424-1.32-.656-1.771-.654-1.26-1.794-2.813-2.838-3.867-1.153-1.146-2.892-2.247-4.289-3.132a71.92 71.92 0 0 1-.957-.612c-1.476-.97-2.928-2.006-3.06-3.071-.044-.331.114-.718.456-1.118.65-.763 1.81-1.38 2.64-1.406 1.296-.04 2.633-1.844 2.968-2.863.938.281 1.8.095 2.887-.14 1.124-.252 1.697-1.905 1.972-2.7l.032-.09c.173.02.34.043.502.066.685.097 1.332.19 2.12-.033.717-.204 1.2-.853 1.666-1.481.171-.23.333-.448.502-.637 1.408.514 2.88.408 3.942-.283 1.088-.71 1.154-2.121 1.086-2.949.522.042 1.13-.072 1.718-.182.252-.048.49-.092.713-.123.796-.107 1.902-1.835 2.24-3.15.202.024.41.052.62.08.974.133 1.98.27 2.925.06 1.096-.24 2.878-1.33 3.244-2.51 1.017.272 4.232-.122 5.36-.37.626-.138 1.252-.656 1.636-1.353.32-.58.412-1.197.26-1.71.377.051.827.153 1.3.26 1.21.274 2.58.584 3.666.3 1.255-.325 2.68-1.244 3.621-1.851.232-.15.432-.279.592-.374.356-.217.965-.25 1.61-.284.784-.042 1.594-.086 2.058-.467.299-.246.693-.59 1.11-.952.718-.625 1.532-1.334 1.986-1.65.365-.256.944-.317 1.557-.382.542-.058 1.155-.123 1.712-.333 1.22-.46 3.823-2.092 4.317-3.21.374-.834 1.558-1.722 2.422-2.37.258-.193.502-.376.69-.53.34-.28 1.256-.816 2.226-1.382 1.375-.804 2.935-1.714 3.427-2.224.728-.751.745-1.263.759-1.674.002-.072.005-.14.01-.204.034-.33.539-.892 1.123-1.543 1.042-1.16 2.468-2.748 2.44-4.343a.06.06 0 0 0-.034-.053c-.875-.445-1.514-.251-2.407.1 1.468-1.626 3.058-5.198 2.945-7.524-.038-.784-.264-1.367-.673-1.735 3.45-2.877 3.392-6.277 3.04-8.596z" stroke="#2151A8" stroke-width="1.341" stroke-linejoin="round"/><path d="M36.173 43.998c4.084 5.471 15.645 13.36 20.29 19.155 4.231 5.263 11.285 13.8 14.598 22.27 3.316 8.464 5.301 15.048 5.762 17.99.462 2.945 1.408 8.641 7.098 9.376" fill="#FCD006" fill-rule="nonzero"/><path d="M83.921 112.89h-.013c-5.82-.753-6.742-6.634-7.185-9.46-.394-2.517-2.138-8.733-5.756-17.97-3.148-8.047-9.65-16.12-13.952-21.46l-.63-.784c-2.271-2.832-6.253-6.213-10.105-9.482-3.981-3.38-8.098-6.876-10.188-9.675a.1.1 0 1 1 .163-.121c2.075 2.781 6.184 6.269 10.157 9.642 3.858 3.276 7.848 6.663 10.13 9.51l.631.783c4.31 5.351 10.824 13.437 13.982 21.514 2.983 7.615 5.248 14.684 5.768 18.011.436 2.778 1.342 8.559 7.011 9.291a.1.1 0 0 1-.013.201" fill="#2151A8" fill-rule="nonzero"/><path d="M121.197 109.487c-1.192-.326-2.66-.782-3.754-1.195" fill="#FCD006" fill-rule="nonzero"/><path d="M121.197 109.588a.102.102 0 0 1-.027-.004 45.562 45.562 0 0 1-3.763-1.198.1.1 0 0 1-.058-.13.102.102 0 0 1 .13-.059c.99.374 2.424.832 3.745 1.193a.101.101 0 0 1-.027.198" fill="#2151A8" fill-rule="nonzero"/><path d="M124.823 106.596c-.83-.548-1.641-.836-2.44-1.405" fill="#FCD006" fill-rule="nonzero"/><path d="M124.823 106.697a.102.102 0 0 1-.056-.017 12.271 12.271 0 0 0-1.138-.645c-.429-.223-.872-.454-1.304-.762a.1.1 0 1 1 .117-.165c.421.3.839.518 1.28.748.377.195.767.398 1.157.656a.1.1 0 0 1-.056.185" fill="#2151A8" fill-rule="nonzero"/><path d="M129.713 103.676c-1.17-.582-1.521-.817-3.166-1.385" fill="#FCD006" fill-rule="nonzero"/><path d="M129.713 103.776a.1.1 0 0 1-.045-.01l-.554-.279c-.78-.396-1.251-.635-2.6-1.1a.101.101 0 0 1-.063-.129.102.102 0 0 1 .13-.062c1.361.47 1.837.712 2.625 1.111.166.085.346.176.552.278a.1.1 0 0 1-.045.191" fill="#2151A8" fill-rule="nonzero"/><path d="M134.526 101.587c-1.304-.859-2.675-1.3-3.824-2.106" fill="#FCD006" fill-rule="nonzero"/><path d="M134.526 101.688a.104.104 0 0 1-.056-.017c-.63-.415-1.28-.733-1.908-1.041-.68-.333-1.322-.648-1.918-1.066a.1.1 0 1 1 .116-.165c.583.409 1.218.72 1.89 1.05.635.31 1.291.632 1.932 1.053a.1.1 0 0 1-.056.186" fill="#2151A8" fill-rule="nonzero"/><path d="M139.505 98.358c-1.652-.476-3.2-1.037-5.28-1.947" fill="#FCD006" fill-rule="nonzero"/><path d="M139.505 98.46a.106.106 0 0 1-.028-.005c-1.709-.493-3.291-1.076-5.293-1.951a.101.101 0 1 1 .081-.185c1.993.871 3.569 1.452 5.268 1.942a.1.1 0 0 1-.028.198" fill="#2151A8" fill-rule="nonzero"/><path d="M144.197 94.904c-1.55-.208-4.516-1.153-6.222-2.02" fill="#FCD006" fill-rule="nonzero"/><path d="M144.198 95.005h-.014c-1.61-.217-4.59-1.185-6.255-2.032a.1.1 0 0 1-.044-.136.101.101 0 0 1 .136-.044c1.648.839 4.598 1.797 6.19 2.011a.101.101 0 0 1-.013.201" fill="#2151A8" fill-rule="nonzero"/><path d="M150.99 92.524c-1.285-.723-3.59-2.236-5.24-2.714" fill="#FCD006" fill-rule="nonzero"/><path d="M150.99 92.625a.101.101 0 0 1-.05-.013c-.286-.161-.627-.364-.99-.58-1.247-.74-2.957-1.757-4.23-2.126a.101.101 0 1 1 .057-.193c1.297.376 2.95 1.357 4.277 2.146.361.215.702.417.986.577a.1.1 0 0 1-.05.19" fill="#2151A8" fill-rule="nonzero"/><path d="M158.2 89.096c-1.757-.388-3.267-.46-5.26-1.266" fill="#FCD006" fill-rule="nonzero"/><path d="M158.2 89.197c-.007 0-.015 0-.022-.003a33.882 33.882 0 0 0-1.507-.286c-1.157-.203-2.355-.412-3.77-.985a.1.1 0 1 1 .076-.186c1.395.564 2.53.762 3.73.972.488.085.993.173 1.514.288a.101.101 0 0 1-.021.2" fill="#2151A8" fill-rule="nonzero"/><path d="M167.143 87.509c-2.776-.602-7.95-1.762-11.072-2.697" fill="#FCD006" fill-rule="nonzero"/><path d="M167.144 87.61a.11.11 0 0 1-.022-.003c-2.794-.605-7.949-1.761-11.08-2.699a.1.1 0 0 1-.068-.125.101.101 0 0 1 .126-.068c3.125.936 8.274 2.09 11.065 2.695a.1.1 0 0 1-.021.2" fill="#2151A8" fill-rule="nonzero"/><path d="M175.94 83.683c-2.414-.464-12.089-1.074-14.765-1.666" fill="#FCD006" fill-rule="nonzero"/><path d="M175.94 83.784c-.007 0-.013 0-.02-.002-1.095-.21-3.702-.452-6.463-.708-3.364-.312-6.841-.635-8.304-.958a.101.101 0 1 1 .043-.197c1.451.32 4.923.642 8.28.954 2.765.256 5.378.499 6.483.711a.1.1 0 0 1-.02.2" fill="#2151A8" fill-rule="nonzero"/><path d="M170.368 54.295c-1.49 1.18-7.456 5.13-9.613 6.334" fill="#FCD006" fill-rule="nonzero"/><path d="M160.755 60.73a.1.1 0 0 1-.05-.189c2.192-1.222 8.171-5.193 9.6-6.326a.101.101 0 0 1 .126.159c-1.434 1.135-7.43 5.118-9.627 6.343a.099.099 0 0 1-.05.012" fill="#2151A8" fill-rule="nonzero"/><path d="M109.335 92.924s2.136-3.42 2.67-4.467c.46.582 1.303 1.16 2.334 1.228-.576 1.043-2.73 4.653-2.73 4.653" fill="#FCD006" fill-rule="nonzero"/><path d="M111.61 94.44a.1.1 0 0 1-.087-.153c.02-.035 1.992-3.34 2.652-4.516-.944-.109-1.706-.629-2.15-1.133-.625 1.169-2.584 4.306-2.604 4.34a.101.101 0 0 1-.172-.108c.021-.034 2.14-3.428 2.666-4.458a.101.101 0 0 1 .17-.017c.42.531 1.234 1.122 2.26 1.19a.101.101 0 0 1 .082.148c-.57 1.033-2.71 4.62-2.73 4.657a.102.102 0 0 1-.088.05" fill="#2151A8" fill-rule="nonzero"/><path d="M81.84 99.552c.858 1.828 2.293 4.496 3.26 6.147.97 1.653 2.91 4.953 5.775 5.565" fill="#FCD006" fill-rule="nonzero"/><path d="M90.875 111.365c-.007 0-.014 0-.021-.002-2.91-.622-4.89-3.993-5.841-5.613-.915-1.562-2.37-4.25-3.265-6.155a.101.101 0 0 1 .184-.085c.892 1.9 2.343 4.58 3.256 6.138.936 1.595 2.886 4.915 5.708 5.518a.101.101 0 0 1-.02.2" fill="#2151A8" fill-rule="nonzero"/><path d="M121.53 115.017c-1.298-.917-5.587-3.97-6.505-4.261-.912-.299-2.704-.697-3.349-1.154-.588-.417-1.675-1.405-2.167-1.808-.751-.613-2.078-1.456-3.282-2.045-1.202-.582-3.321-1.536-4.855-2.046-1.231-.41-3.385-.847-5.198-1.159-1.983-.34-6.788-.847-7.723-.954" fill="#FCD006" fill-rule="nonzero"/><path d="M121.53 115.118a.101.101 0 0 1-.058-.019l-.203-.143c-1.481-1.048-5.415-3.831-6.275-4.104a24.56 24.56 0 0 0-.925-.272c-.925-.26-1.973-.556-2.451-.896-.396-.28-1.02-.821-1.523-1.256a34.612 34.612 0 0 0-.65-.556c-.783-.64-2.125-1.475-3.263-2.033-1.31-.634-3.365-1.55-4.842-2.04-1.485-.494-4.12-.973-5.183-1.155-1.671-.287-5.42-.7-7.022-.877l-.696-.077a.1.1 0 0 1-.089-.112.102.102 0 0 1 .112-.089l.695.078c1.74.191 5.357.59 7.034.878 1.069.183 3.715.664 5.213 1.162 1.486.494 3.55 1.414 4.867 2.05 1.15.564 2.509 1.41 3.302 2.06.166.135.398.335.655.559.499.432 1.12.97 1.507 1.244.45.319 1.525.622 2.39.866.346.098.674.19.931.274.89.282 4.842 3.078 6.33 4.131l.203.144a.1.1 0 1 1-.059.183" fill="#2151A8" fill-rule="nonzero"/><path d="M115.073 117.824l2.248 1.48" fill="#FCD006" fill-rule="nonzero"/><path d="M117.321 119.405a.104.104 0 0 1-.055-.017l-2.249-1.48a.101.101 0 1 1 .112-.168l2.248 1.48a.1.1 0 0 1-.056.185" fill="#2151A8" fill-rule="nonzero"/><path d="M112.952 129.017c.686.014 2.558.228 3.41.577" fill="#FCD006" fill-rule="nonzero"/><path d="M116.361 129.695a.101.101 0 0 1-.038-.008c-.832-.34-2.664-.555-3.373-.57a.101.101 0 0 1-.1-.103.101.101 0 0 1 .102-.098h.002c.722.015 2.592.235 3.446.584a.1.1 0 0 1-.039.195" fill="#2151A8" fill-rule="nonzero"/><path d="M111.959 125.694c.671.203 2.76.76 3.24 1.007" fill="#FCD006" fill-rule="nonzero"/><path d="M115.2 126.802a.1.1 0 0 1-.047-.012c-.352-.18-1.65-.549-2.508-.793-.295-.084-.549-.156-.716-.207a.101.101 0 1 1 .059-.193c.166.05.419.122.713.206.918.26 2.174.618 2.545.808a.1.1 0 0 1-.047.19" fill="#2151A8" fill-rule="nonzero"/><path d="M116.729 115.757c.676.206 2.918 1.686 3.375 2.182" fill="#FCD006" fill-rule="nonzero"/><path d="M120.104 118.04a.102.102 0 0 1-.075-.033c-.436-.473-2.667-1.951-3.33-2.153a.1.1 0 1 1 .06-.193c.695.212 2.956 1.707 3.42 2.21a.1.1 0 0 1-.075.169" fill="#2151A8" fill-rule="nonzero"/><path d="M132.093 127.198c-1.608.008-2.882.446-3.423.187-.924-.432-1.398-1.883-1.98-2.391-.447-.387-1.524-.379-2.675-.189-.827.135-2.78.394-3.533.41" fill="#FCD006" fill-rule="nonzero"/><path d="M129.148 127.568c-.209 0-.383-.026-.522-.092-.59-.276-.998-.938-1.358-1.521-.22-.359-.43-.697-.645-.886-.37-.32-1.29-.379-2.592-.164-.829.134-2.777.394-3.547.41h-.002a.101.101 0 0 1-.002-.202c.75-.015 2.717-.277 3.519-.407.962-.16 2.222-.252 2.757.211.24.209.456.56.685.932.345.56.736 1.194 1.272 1.444.274.132.798.06 1.46-.03.535-.072 1.2-.162 1.92-.166a.1.1 0 0 1 0 .202c-.705.003-1.336.09-1.893.165-.417.056-.767.104-1.052.104" fill="#2151A8" fill-rule="nonzero"/><path d="M108.493 107.057c-.705-.464-1.829-.912-2.45-.984.915.876 1.126 1.285 1.562 1.974-1.23-.267-1.455-.551-2.063-.748.672.847.73 1.504 1.068 1.924-.762.039-1.757-.071-2.406.109 1.878 1.371 1.565.699 2.141 1.277.571.576.654.972-.576.703-1.235-.268-1.745-.203-2.23-.38.832.48 1.407 1.053 1.869 1.492-1.024.141-1.914.167-2.807.327 1.805 2.129 1.467 1.71 2.154 2.426-.936.535-2.705.593-3.904 1.23.58.451 2.266 1.283 3.212 1.904-1.058.521-2.904 1.343-3.714 1.896.598.324 2.451.665 3.3 1.015-.591.834-2.923 1.469-3.622 2.157.853.349 3.59.665 4.328.876-.577.703-2.722 2.008-3.436 2.818.612.203 2.246.257 3.102.484-.562.582-2.083 1.95-2.635 2.398.986.244 2.594.553 3.342.642-.216.873-.918 1.565-1.476 2.139.49.185 1.138 0 1.76.072-.332.733-1.853 2.306-1.924 3.035" fill="#FCD006" fill-rule="nonzero"/><path d="M103.089 135.944h-.01a.101.101 0 0 1-.091-.11c.044-.462.596-1.19 1.129-1.892.297-.393.58-.767.737-1.046-.203-.011-.409 0-.609.011-.37.02-.721.04-1.029-.077a.101.101 0 0 1-.037-.165l.073-.074c.527-.54 1.12-1.15 1.348-1.908a37.05 37.05 0 0 1-3.238-.63.1.1 0 0 1-.04-.176 48.365 48.365 0 0 0 2.502-2.263c-.404-.088-.932-.148-1.446-.206-.603-.069-1.174-.134-1.491-.239a.1.1 0 0 1-.044-.163c.366-.415 1.093-.952 1.795-1.47.62-.459 1.21-.894 1.53-1.224-.324-.074-.85-.161-1.403-.253-1.055-.174-2.25-.371-2.776-.586a.1.1 0 0 1-.033-.165c.324-.32.964-.618 1.64-.933.752-.35 1.528-.71 1.889-1.11-.389-.143-.939-.288-1.473-.428-.71-.186-1.38-.362-1.711-.542a.1.1 0 0 1-.053-.083.1.1 0 0 1 .044-.088c.615-.42 1.786-.977 2.82-1.468.267-.127.52-.247.746-.357-.415-.262-.94-.554-1.448-.838-.67-.373-1.303-.727-1.621-.974a.1.1 0 0 1 .014-.168c.63-.335 1.399-.51 2.141-.678.622-.141 1.212-.275 1.646-.49a27.957 27.957 0 0 0-.224-.229c-.323-.327-.4-.404-1.842-2.106a.1.1 0 0 1 .06-.165c.509-.09 1.012-.138 1.545-.188.34-.032.69-.065 1.056-.111-.43-.412-.964-.91-1.697-1.333a.101.101 0 0 1 .086-.182c.229.084.468.111.8.15.351.04.788.09 1.416.227.747.162.84.039.849.025.007-.013.055-.135-.366-.56-.22-.22-.29-.24-.433-.282-.217-.063-.58-.17-1.696-.983a.101.101 0 0 1 .033-.18c.445-.123 1.036-.114 1.608-.107.222.003.435.006.636.002a4.011 4.011 0 0 1-.246-.512c-.146-.344-.329-.773-.712-1.256a.1.1 0 0 1 .11-.158c.22.071.392.153.573.24.29.14.616.298 1.244.45l-.005-.006c-.351-.562-.605-.968-1.413-1.741a.101.101 0 0 1-.021-.116.103.103 0 0 1 .103-.057c.642.074 1.785.532 2.495 1a.1.1 0 0 1 .029.14.102.102 0 0 1-.14.029 7.477 7.477 0 0 0-2.088-.91c.643.646.885 1.033 1.207 1.548l.134.213a.101.101 0 0 1-.107.153c-.81-.176-1.19-.36-1.526-.52a5.32 5.32 0 0 0-.23-.108c.264.388.411.733.533 1.02.105.246.196.458.328.622a.1.1 0 0 1-.074.164c-.26.013-.538.009-.833.005-.467-.007-.947-.013-1.336.053.944.673 1.259.765 1.45.821.174.05.276.089.521.335.368.371.495.624.4.798-.106.19-.435.213-1.07.075-.619-.135-1.05-.184-1.396-.224a16.416 16.416 0 0 1-.274-.033c.54.374.955.772 1.304 1.106l.097.092a.1.1 0 0 1-.057.172c-.446.062-.867.101-1.273.14-.467.044-.912.085-1.355.157 1.328 1.565 1.408 1.646 1.717 1.96.082.082.18.181.318.326a.1.1 0 0 1-.022.158c-.467.267-1.123.415-1.816.573-.673.152-1.367.31-1.946.585.334.232.885.54 1.465.862.575.32 1.17.653 1.61.942.03.02.047.054.045.09a.102.102 0 0 1-.056.085 74.6 74.6 0 0 1-.909.436c-.9.428-2.005.953-2.643 1.354.351.146.938.3 1.508.45.6.158 1.222.321 1.624.487a.101.101 0 0 1 .044.151c-.343.484-1.21.888-2.05 1.278-.58.27-1.131.526-1.46.785.566.185 1.628.36 2.576.517.69.115 1.287.213 1.585.298.032.01.058.035.069.067a.101.101 0 0 1-.019.094c-.295.36-.965.855-1.674 1.378-.627.464-1.274.941-1.653 1.324.316.075.794.13 1.296.186.596.068 1.213.138 1.645.253a.101.101 0 0 1 .047.167c-.53.548-1.86 1.748-2.488 2.277.98.233 2.44.51 3.134.593a.1.1 0 0 1 .086.125c-.207.838-.851 1.516-1.384 2.064.236.05.507.035.792.02.258-.014.524-.029.79.001.032.004.06.023.076.05a.1.1 0 0 1 .004.092c-.139.308-.473.748-.826 1.214-.492.65-1.05 1.385-1.089 1.79a.101.101 0 0 1-.1.09" fill="#2151A8" fill-rule="nonzero"/><path d="M39.506 138.96c3.13-.996 13.8-4.412 16.446-5.658" fill="#FCD006" fill-rule="nonzero"/><path d="M39.506 139.06a.101.101 0 0 1-.03-.197c4.106-1.306 13.927-4.472 16.433-5.653a.101.101 0 1 1 .086.183c-2.516 1.186-12.348 4.355-16.458 5.663a.104.104 0 0 1-.03.004" fill="#2151A8" fill-rule="nonzero"/><path d="M45.539 144.202c2.42-1.523 10.35-5.252 13.518-6.697" fill="#FCD006" fill-rule="nonzero"/><path d="M45.539 144.303a.1.1 0 0 1-.054-.186c2.502-1.576 10.815-5.465 13.53-6.703a.1.1 0 1 1 .084.183c-2.712 1.237-11.014 5.12-13.506 6.69a.102.102 0 0 1-.054.016" fill="#2151A8" fill-rule="nonzero"/><path d="M50.89 148.663c1.719-2.123 7.985-6.807 10.952-8.787" fill="#FCD006" fill-rule="nonzero"/><path d="M50.89 148.764a.1.1 0 0 1-.078-.164c1.74-2.15 7.973-6.805 10.974-8.808a.101.101 0 0 1 .112.167c-2.909 1.942-9.226 6.664-10.929 8.767a.1.1 0 0 1-.079.038" fill="#2151A8" fill-rule="nonzero"/><path d="M57.463 150.949c2.05-2.857 7.64-8.385 9.366-10.506" fill="#FCD006" fill-rule="nonzero"/><path d="M57.463 151.05a.1.1 0 0 1-.082-.16c1.248-1.74 3.772-4.431 5.999-6.806 1.446-1.542 2.694-2.874 3.37-3.705a.101.101 0 0 1 .157.127c-.68.837-1.93 2.171-3.38 3.716-2.222 2.37-4.741 5.057-5.982 6.785a.102.102 0 0 1-.082.043" fill="#2151A8" fill-rule="nonzero"/><path d="M65.04 150.773c1.427-1.637 4.52-7.45 4.927-8.946.402-1.5 2.346-3.34 2.722-4.578" fill="#FCD006" fill-rule="nonzero"/><path d="M65.04 150.874a.1.1 0 0 1-.077-.167c1.38-1.583 4.483-7.348 4.907-8.907.219-.818.873-1.715 1.505-2.583.538-.739 1.047-1.437 1.217-1.997a.1.1 0 0 1 .126-.067.1.1 0 0 1 .068.126c-.18.592-.699 1.304-1.247 2.057-.622.853-1.265 1.734-1.474 2.517-.427 1.573-3.557 7.39-4.95 8.986a.101.101 0 0 1-.076.035" fill="#2151A8" fill-rule="nonzero"/><path d="M71.507 150.346c1.067-1.801 5.315-9.029 6.01-11.01" fill="#FCD006" fill-rule="nonzero"/><path d="M71.507 150.447a.101.101 0 0 1-.088-.152c.88-1.484 5.298-8.986 6.003-10.991a.101.101 0 0 1 .192.066c-.712 2.023-5.14 9.54-6.02 11.027a.101.101 0 0 1-.087.05" fill="#2151A8" fill-rule="nonzero"/><path d="M77.929 149.147c.625-2.503 2.552-6.65 2.058-9.277" fill="#FCD006" fill-rule="nonzero"/><path d="M77.93 149.248a.1.1 0 0 1-.098-.125c.176-.71.459-1.554.757-2.448.773-2.31 1.648-4.927 1.299-6.786a.101.101 0 1 1 .199-.037c.359 1.91-.525 4.554-1.306 6.887-.297.89-.578 1.73-.754 2.432a.1.1 0 0 1-.098.077" fill="#2151A8" fill-rule="nonzero"/><path d="M80.672 131.208c-.164 1.269-.69 2.765.195 3.61" fill="#FCD006" fill-rule="nonzero"/><path d="M80.748 134.92a.101.101 0 0 1-.08-.038c-.567-.712-.414-1.829-.266-2.91.036-.257.072-.523.097-.774.005-.055.051-.094.11-.09a.101.101 0 0 1 .091.11c-.025.255-.062.523-.097.782-.142 1.039-.29 2.112.224 2.756a.1.1 0 0 1-.08.164" fill="#2151A8" fill-rule="nonzero"/><path d="M84.209 132.899c.152 1.045.467 2.882 1.441 3.248" fill="#FCD006" fill-rule="nonzero"/><path d="M85.65 136.248a.107.107 0 0 1-.036-.007c-.957-.36-1.307-1.967-1.505-3.328a.101.101 0 0 1 .086-.114.102.102 0 0 1 .114.085c.112.767.408 2.804 1.377 3.168a.1.1 0 0 1-.036.196" fill="#2151A8" fill-rule="nonzero"/><path d="M89.047 132.416c-.437 2.97 1.807 4.354 2.553 1.864.055 2.433 1.63 4.52 2.4 1.525.234 1.95.464 2.77 1.415 3.385" fill="#FCD006" fill-rule="nonzero"/><path d="M95.415 139.29a.1.1 0 0 1-.055-.016c-.883-.571-1.172-1.312-1.4-2.983-.33.949-.738 1.128-1.04 1.09-.648-.073-1.25-1.248-1.391-2.622-.314.68-.79 1.009-1.322.89-.828-.183-1.525-1.448-1.26-3.247a.1.1 0 0 1 .115-.085.1.1 0 0 1 .085.114c-.245 1.661.382 2.861 1.103 3.02.524.115.993-.332 1.253-1.2a.101.101 0 0 1 .198.027c.036 1.584.685 2.84 1.242 2.903.375.047.716-.454.96-1.401a.101.101 0 1 1 .199.013c.235 1.973.466 2.729 1.368 3.312a.1.1 0 0 1-.055.186" fill="#2151A8" fill-rule="nonzero"/><path d="M95.725 150.21c.053-.522.397-2.025.651-2.676" fill="#FCD006" fill-rule="nonzero"/><path d="M95.725 150.311h-.01a.1.1 0 0 1-.09-.111c.05-.506.395-2.033.657-2.702a.1.1 0 1 1 .189.073c-.257.657-.595 2.153-.645 2.65a.101.101 0 0 1-.1.09" fill="#2151A8" fill-rule="nonzero"/><path d="M91.963 149.11c.116-.66 1.057-4.407 1.496-5.03" fill="#FCD006" fill-rule="nonzero"/><path d="M91.964 149.212c-.006 0-.012 0-.018-.002a.1.1 0 0 1-.082-.117c.105-.604 1.045-4.408 1.512-5.07a.101.101 0 0 1 .166.115c-.415.588-1.359 4.303-1.479 4.99a.101.101 0 0 1-.1.084" fill="#2151A8" fill-rule="nonzero"/><path d="M88.536 145.596c.25-.598 1.761-2.983 2.235-3.459" fill="#FCD006" fill-rule="nonzero"/><path d="M88.536 145.697a.1.1 0 0 1-.093-.14c.254-.612 1.782-3.014 2.256-3.491a.1.1 0 0 1 .143 0 .1.1 0 0 1 0 .142c-.464.467-1.962 2.826-2.213 3.427a.1.1 0 0 1-.093.062" fill="#2151A8" fill-rule="nonzero"/><path d="M101.902 148.93c-.412-.138-1.48-.307-1.872-.641" fill="#FCD006" fill-rule="nonzero"/><path d="M101.902 149.03a.108.108 0 0 1-.032-.004 6.81 6.81 0 0 0-.466-.125c-.508-.124-1.14-.28-1.44-.535a.101.101 0 0 1 .132-.153c.263.224.895.379 1.357.492.194.048.362.09.482.13a.1.1 0 0 1-.033.196" fill="#2151A8" fill-rule="nonzero"/><path d="M66.495 126.436c-1.093 4.305 1.865 6.377 3.354 2.352-1.217 4.627 1.566 5.14 2.742 3.778-.051 1.92.826 7.322 3.664 3.063-.003 1.929 4.438 5.707 3.93 1.313" fill="#FCD006" fill-rule="nonzero"/><path d="M79.359 139.085c-.242 0-.52-.08-.826-.242-.987-.52-2.16-1.87-2.352-2.927-.78 1.1-1.484 1.56-2.093 1.367-1.217-.384-1.58-3.187-1.6-4.468-.57.517-1.375.662-1.997.336-.447-.234-1.352-1.02-.945-3.447-.662 1.194-1.455 1.474-2.04 1.293-1.32-.408-1.6-2.652-1.11-4.586a.101.101 0 0 1 .197.05c-.595 2.346.027 4.05.972 4.343.62.19 1.521-.246 2.189-2.05a.101.101 0 0 1 .192.06c-.553 2.105-.314 3.66.64 4.159.606.317 1.418.119 1.928-.472a.1.1 0 0 1 .113-.029.1.1 0 0 1 .065.097c-.038 1.446.415 4.193 1.457 4.522.554.174 1.234-.336 2.022-1.518a.101.101 0 0 1 .185.056c-.001.99 1.248 2.496 2.272 3.036.325.172.781.33 1.102.113.343-.234.465-.865.355-1.824a.101.101 0 1 1 .2-.023c.122 1.053-.026 1.73-.441 2.013a.843.843 0 0 1-.485.141" fill="#2151A8" fill-rule="nonzero"/><path d="M63.03 125.496c.769-.473 3.482-1.613 4.275-2.008" fill="#FCD006" fill-rule="nonzero"/><path d="M63.03 125.597a.101.101 0 0 1-.053-.187c.499-.307 1.814-.895 2.871-1.367.606-.27 1.13-.505 1.412-.645a.101.101 0 1 1 .09.18c-.286.143-.811.377-1.42.649-1.05.47-2.36 1.055-2.846 1.355a.101.101 0 0 1-.054.015" fill="#2151A8" fill-rule="nonzero"/><path d="M60.34 122.006c1.425-.733 2.642-1.558 3.415-1.756" fill="#FCD006" fill-rule="nonzero"/><path d="M60.34 122.107a.101.101 0 0 1-.047-.19 39.892 39.892 0 0 0 1.438-.789c.8-.453 1.49-.845 2-.976a.101.101 0 0 1 .05.196c-.484.123-1.163.51-1.95.956-.437.248-.932.528-1.444.792a.101.101 0 0 1-.046.011" fill="#2151A8" fill-rule="nonzero"/><path d="M57.832 119.51c1.602-.91 2.266-1.196 3.116-1.894" fill="#FCD006" fill-rule="nonzero"/><path d="M57.832 119.61a.1.1 0 0 1-.05-.189c.411-.232.76-.424 1.067-.593.879-.484 1.41-.777 2.035-1.29a.101.101 0 1 1 .129.156c-.64.525-1.177.82-2.066 1.31-.306.169-.655.36-1.064.594a.105.105 0 0 1-.05.013" fill="#2151A8" fill-rule="nonzero"/><path d="M52.295 117.216c1.142-.543 4.041-1.182 5.16-1.536" fill="#FCD006" fill-rule="nonzero"/><path d="M52.295 117.317a.1.1 0 0 1-.043-.192c.772-.367 2.345-.78 3.61-1.111.64-.168 1.194-.314 1.562-.43a.101.101 0 0 1 .062.193c-.373.117-.93.263-1.573.432-1.256.329-2.819.739-3.574 1.099a.1.1 0 0 1-.044.01" fill="#2151A8" fill-rule="nonzero"/><path d="M48.671 112.824c1.513-.473 3.364-1.037 5.088-1.272" fill="#FCD006" fill-rule="nonzero"/><path d="M48.671 112.925a.1.1 0 0 1-.03-.197c1.663-.52 3.427-1.047 5.104-1.276a.102.102 0 0 1 .114.086.101.101 0 0 1-.087.114c-1.662.227-3.416.751-5.07 1.268a.098.098 0 0 1-.03.005" fill="#2151A8" fill-rule="nonzero"/><path d="M44.316 109.765c1.236-.33 3.544-.238 4.745-.5" fill="#FCD006" fill-rule="nonzero"/><path d="M44.316 109.866a.101.101 0 0 1-.02-.2c.67-.137 1.65-.18 2.596-.221.824-.036 1.602-.07 2.152-.162a.1.1 0 1 1 .033.2c-.561.093-1.346.127-2.176.164-.938.04-1.91.083-2.565.217a.104.104 0 0 1-.02.002" fill="#2151A8" fill-rule="nonzero"/><path d="M41.269 106.206c1.371-.2 3.084-.389 4.937-.5" fill="#FCD006" fill-rule="nonzero"/><path d="M41.269 106.307a.101.101 0 0 1-.101-.09.101.101 0 0 1 .09-.112 79.742 79.742 0 0 1 4.943-.372c.054-.008.103.04.106.096a.1.1 0 0 1-.097.105 79.601 79.601 0 0 0-4.941.373" fill="#2151A8" fill-rule="nonzero"/><path d="M36.62 100.255c2.318.263 5.512.93 7.41.368" fill="#FCD006" fill-rule="nonzero"/><path d="M42.17 100.942c-1.253 0-2.676-.198-3.988-.38-.556-.077-1.082-.15-1.573-.206a.1.1 0 1 1 .023-.2c.494.055 1.02.128 1.578.206 2.024.282 4.318.6 5.79.164a.1.1 0 1 1 .058.193c-.543.161-1.189.223-1.889.223" fill="#2151A8" fill-rule="nonzero"/><path d="M34.451 95.205c2.499.621 5.553 1.738 8.092.916" fill="#FCD006" fill-rule="nonzero"/><path d="M40.546 96.512c-1.62 0-3.32-.46-4.876-.881-.433-.117-.842-.228-1.243-.328a.1.1 0 1 1 .049-.196c.403.1.813.212 1.247.33 2.197.594 4.687 1.268 6.789.588a.1.1 0 1 1 .062.192 6.56 6.56 0 0 1-2.028.295" fill="#2151A8" fill-rule="nonzero"/><path d="M31.196 90.644c1.412.837 5.865-1.597 9.414-1.198" fill="#FCD006" fill-rule="nonzero"/><path d="M32.016 90.923c-.35 0-.643-.057-.872-.192a.101.101 0 0 1 .103-.173c.653.386 2.067.015 3.704-.414 1.797-.47 3.834-1.004 5.67-.798a.1.1 0 0 1 .09.111.1.1 0 0 1-.112.09c-1.8-.203-3.817.326-5.597.792-1.199.315-2.225.584-2.986.584" fill="#2151A8" fill-rule="nonzero"/><path d="M25.736 85.506c4.428.692 11.075.812 12.68.37" fill="#FCD006" fill-rule="nonzero"/><path d="M34.613 86.24c-2.684 0-6.16-.207-8.893-.634a.101.101 0 0 1-.084-.115.102.102 0 0 1 .116-.085c4.426.692 11.084.8 12.638.374a.101.101 0 0 1 .054.195c-.639.175-2.063.264-3.831.264" fill="#2151A8" fill-rule="nonzero"/><path d="M21.658 80.778c2.534-.075 6.917.517 8.948.989 2.03.468 5.97 1.25 7.745 1.452" fill="#FCD006" fill-rule="nonzero"/><path d="M38.351 83.32a.11.11 0 0 1-.011 0c-1.77-.201-5.71-.983-7.757-1.455-1.991-.463-6.349-1.063-8.922-.986a.102.102 0 0 1-.105-.097.101.101 0 0 1 .099-.104c2.59-.077 6.972.525 8.974.99 2.041.471 5.971 1.25 7.733 1.45a.1.1 0 0 1-.011.202" fill="#2151A8" fill-rule="nonzero"/><path d="M17.085 75.183c5.19 1.066 14.519 3.178 19.469 3.304" fill="#FCD006" fill-rule="nonzero"/><path d="M36.554 78.588h-.003c-4.258-.109-11.655-1.664-17.057-2.799a566.28 566.28 0 0 0-2.43-.507.1.1 0 1 1 .041-.198c.735.151 1.554.323 2.431.507 5.394 1.134 12.78 2.687 17.02 2.795a.101.101 0 0 1-.002.202" fill="#2151A8" fill-rule="nonzero"/><path d="M19 70.544c3.97 1.107 11.677 3.856 16.256 4.374" fill="#FCD006" fill-rule="nonzero"/><path d="M35.256 75.02l-.012-.002c-3.326-.376-8.291-1.924-12.281-3.168-1.49-.465-2.897-.904-3.99-1.208a.1.1 0 1 1 .054-.195c1.097.306 2.505.745 3.996 1.21 3.982 1.242 8.938 2.787 12.244 3.161a.1.1 0 0 1-.011.201" fill="#2151A8" fill-rule="nonzero"/><path d="M6.237 54.25C12.48 60.409 24.22 66.835 33.32 70.364" fill="#FCD006" fill-rule="nonzero"/><path d="M33.321 70.464a.101.101 0 0 1-.036-.007c-8.54-3.311-20.668-9.773-27.12-16.135a.1.1 0 0 1 0-.142c.04-.04.103-.04.143-.001 6.43 6.341 18.53 12.786 27.05 16.09a.1.1 0 0 1-.037.195" fill="#2151A8" fill-rule="nonzero"/><path d="M3.764 43.126c8.57 10.809 17.067 16 27.816 21.325" fill="#FCD006" fill-rule="nonzero"/><path d="M31.58 64.552a.098.098 0 0 1-.045-.01c-11.39-5.643-19.597-10.945-27.85-21.354a.1.1 0 0 1 .016-.142.101.101 0 0 1 .142.017c8.23 10.379 16.419 15.668 27.782 21.298a.1.1 0 0 1-.045.19" fill="#2151A8" fill-rule="nonzero"/><path d="M7.38 38.046c6.647 6.567 16.767 16.894 24.995 21.546" fill="#FCD006" fill-rule="nonzero"/><path d="M32.375 59.693a.101.101 0 0 1-.05-.013c-7.61-4.302-16.753-13.37-23.429-19.99L7.31 38.118a.1.1 0 0 1 0-.143.1.1 0 0 1 .143 0c.51.503 1.039 1.028 1.587 1.571 6.668 6.613 15.8 15.67 23.386 19.958a.1.1 0 0 1-.05.189" fill="#2151A8" fill-rule="nonzero"/><path d="M17.144 38.668c4.64 3.992 12.223 11.333 17.28 14.928" fill="#FCD006" fill-rule="nonzero"/><path d="M34.424 53.697a.1.1 0 0 1-.059-.019c-3.45-2.453-8.064-6.637-12.135-10.33-1.89-1.714-3.675-3.333-5.152-4.604a.101.101 0 1 1 .132-.153c1.48 1.273 3.265 2.893 5.156 4.608 4.067 3.689 8.676 7.869 12.117 10.315a.1.1 0 0 1-.06.183" fill="#2151A8" fill-rule="nonzero"/><path d="M46.782 54.028c-4.58-5.014-8.729-.47-1.142 4.915-6.325-4.282-7.335.616-.073 4.518-5.789-3.541-9.869-.535.142 4.257-8.335-4.505-8.628 2.206.628 4.116-9.013-3.429-5.679 3.89.57 5.654-9.21-2.39-6.565 3.304.227 3.399-7.17-.57-6.454 5.05 3.179 5.077-7.85.082-7.492 3.105 1.386 4.108-8.28-.356-5.11 3.855.496 4.488-6.056.088-4.402 5.286 1.843 4.257-4.968 1.464-1.166 4.11 2.173 2.85-3.95 1.673-5.26 3.45 1.826 3.476-4.545 2.96-1.588 4.549 2.208 3.436-2.128 3.32 2.625 3.52 3.498 2.8-1.396 3.6 1.594 3.939 4.456 2.72" fill="#FCD006" fill-rule="nonzero"/><path d="M65.488 114.84c-.728 0-1.32-.184-1.705-.554-.401-.386-.752-1.161-.231-2.679-.817.354-2.609.31-3.457-.439-.45-.397-.81-1.135-.07-2.423-2.063.547-3.89.304-4.305-.593-.207-.447-.208-1.408 1.987-2.91-3.088-.036-4.664-.413-4.814-1.153-.136-.672.98-1.423 2.235-2.04-1.32.19-2.53-.147-3.14-.67-.348-.298-.497-.657-.42-1.01.08-.372.432-.878 1.574-1.348-1.665.111-3.574-.194-4.47-1.4-.393-.529-.469-1.135-.207-1.663.38-.765 1.375-1.27 2.79-1.438-2.683-.512-4.797-1.84-4.702-3.054.07-.894 1.351-1.42 3.575-1.504-3.445-.546-5.563-1.472-5.513-2.461.04-.77 1.411-1.323 3.694-1.54-2.51-.252-5.065-.992-5.872-2.482-.274-.506-.265-1.03.025-1.473.432-.661 1.415-1.083 2.755-1.215-1.903-.358-3.7-1.186-4.23-2.342-.18-.39-.148-.76.089-1.04.555-.66 2.099-.782 4.327-.363-2.48-1.118-4.33-3.057-4.648-4.482-.126-.566-.006-1.026.346-1.329.295-.254.82-.457 1.76-.396-2.11-.96-3.275-2.19-3.497-3.174-.115-.508.027-.943.4-1.224.278-.21 1.209-.68 3.381.03-2.267-1.352-3.581-2.636-3.621-3.595-.015-.351.145-.635.464-.821.617-.362 1.9-.358 3.565.285-2.17-1.542-3.159-3.076-3.154-4.07.002-.426.186-.747.531-.928.675-.355 1.864-.114 3.312.641-2.353-2.019-3.053-3.81-2.869-4.902.106-.627.49-1.069 1.083-1.243.94-.275 2.588.137 4.4 2.122a.1.1 0 0 1-.006.142.102.102 0 0 1-.143-.006c-1.75-1.916-3.314-2.323-4.194-2.064-.514.15-.848.535-.94 1.083-.205 1.216.771 3.365 4.125 5.745a.1.1 0 0 1-.115.166c-3.011-2.038-4.25-1.668-4.559-1.506-.275.145-.421.405-.423.752-.005 1.06 1.31 2.903 4.188 4.631.27.142.548.299.831.472a.1.1 0 0 1-.1.175c-.288-.154-.562-.31-.823-.466-2.11-1.101-3.87-1.286-4.607-.855-.253.148-.376.363-.364.638.035.836 1.349 2.335 4.84 4.166.37.17.767.367 1.19.596a.1.1 0 0 1-.091.18 35.828 35.828 0 0 1-1.157-.58c-2.48-1.133-3.998-1.098-4.622-.628-.31.235-.423.587-.325 1.02.233 1.03 1.569 2.345 4.016 3.304.73.125 1.646.377 2.796.815a.1.1 0 0 1 .061.123.103.103 0 0 1-.118.07 17.177 17.177 0 0 1-2.775-.808c-1.401-.236-2.03.024-2.308.263-.37.318-.356.791-.28 1.132.365 1.64 2.855 3.989 5.982 4.871a.101.101 0 0 1-.053.195c-4.335-1.125-5.422-.321-5.651-.048-.236.28-.163.604-.06.828.41.895 2.25 2.144 5.151 2.381.265.004.538.017.82.04a.101.101 0 0 1 .093.105.097.097 0 0 1-.102.096 10.81 10.81 0 0 1-.755-.038c-1.86-.036-3.235.384-3.747 1.166-.251.385-.256.823-.016 1.267.616 1.136 3.001 2.467 7.698 2.48a.101.101 0 0 1 0 .202c-3.747.04-5.46.755-5.495 1.446-.042.805 2.098 1.919 6.892 2.46a.101.101 0 0 1 .09.109c-.004.054-.05.099-.105.093-3.018-.13-4.866.36-4.94 1.308-.103 1.32 2.846 2.685 5.452 2.98a.1.1 0 0 1-.01.2c-1.833.027-3.127.532-3.55 1.387-.23.464-.164.98.188 1.453.632.851 2.37 1.68 5.187 1.216a.1.1 0 0 1 .045.197c-1.839.541-2.231 1.17-2.302 1.497-.076.356.15.64.354.814.747.64 2.469.946 4.056.347a.1.1 0 1 1 .075.187c-2.088.886-3.27 1.742-3.158 2.29.074.365.814.978 4.945.993a.1.1 0 1 1 .055.185c-1.71 1.114-2.508 2.15-2.188 2.84.384.83 2.278 1.012 4.312.415a.1.1 0 1 1 .114.151c-.662 1.034-.697 1.858-.1 2.384.911.805 2.94.704 3.448.285a.101.101 0 1 1 .159.114c-.488 1.258-.458 2.2.087 2.725.73.703 2.392.65 4.236-.134a.101.101 0 0 1 .079.185c-1.013.432-1.962.648-2.751.648" fill="#2151A8" fill-rule="nonzero"/><path d="M52.395 70.786c-2.679 2.203-.984 3.694 3.968 4.253-6.142.943-6.627 4.408 2.093 4.138-6.88 1.732-3.756 4.491.569 5.655-5.374-.127-6.759 5.21 1.17 4.373-5.842.783-2.879 5.163 1.273 4.285-4.677 2.362-1.955 6.33 3.357 4.232-6.192 2.386-2.412 6.187.413 4.387-3.196 3.156 1.208 3.983 2.835 2.823-2.675 3.166.419 4.814 2.323 3.247-1.874 3.64 2.362 5.665 4.734 3.718" fill="#FCD006" fill-rule="nonzero"/><path d="M72.976 112.756a3.39 3.39 0 0 1-2.126-.73c-1.043-.837-1.296-2.142-.708-3.543-.926.563-2.098.525-2.756-.138-.276-.278-1.017-1.282.3-3.087-1.07.453-2.727.376-3.405-.425-.298-.353-.592-1.108.488-2.37-.825.328-1.743.281-2.46-.152-.636-.384-.98-1.007-.922-1.667.048-.534.398-1.469 2.032-2.383-2.235.484-3.81-.18-4.298-1.259-.382-.846-.11-2.184 1.793-3.323-1.632.169-2.966-.448-3.614-1.204-.449-.523-.588-1.13-.384-1.664.237-.618.901-1.105 1.913-1.418-2.034.03-3.485-.415-4.062-1.28-.32-.482-.33-1.05-.027-1.597.43-.776 1.62-1.653 3.62-1.773-1.99-.63-4.043-1.727-4.032-3.03.008-.957 1.124-1.77 3.32-2.42-4.23.018-5.842-.899-5.926-1.808-.092-.996 1.476-1.942 3.96-2.43-2.73-.38-4.317-1.084-4.604-2.049-.201-.676.22-1.449 1.252-2.298a.101.101 0 0 1 .129.156c-.963.792-1.363 1.494-1.187 2.085.285.957 2.05 1.645 5.103 1.99a.1.1 0 0 1 .09.098.101.101 0 0 1-.086.102c-3.024.464-4.53 1.522-4.455 2.328.077.833 1.832 1.754 6.529 1.61.06-.006.096.035.103.086a.101.101 0 0 1-.075.112c-3.255.82-3.945 1.78-3.95 2.44-.01 1.076 1.807 2.29 4.52 3.02a.1.1 0 0 1 .074.112c-.007.05-.054.084-.102.086-2.17-.052-3.623.807-4.106 1.68-.265.479-.258.972.019 1.388.31.466 1.443 1.506 5.249 1.104a.101.101 0 0 1 .024.2c-1.699.228-2.801.788-3.104 1.578-.18.47-.056.989.349 1.461.683.797 2.183 1.43 3.993 1.047a.1.1 0 1 1 .067.189c-2.234 1.128-2.586 2.504-2.208 3.339.528 1.17 2.592 1.82 5.392.744l.09-.035a.101.101 0 0 1 .075.188l-.094.036c-2.64 1.04-3.126 2.205-3.18 2.81-.052.581.257 1.133.825 1.477.807.488 1.894.443 2.77-.115a.101.101 0 0 1 .125.157c-1.056 1.043-1.366 1.939-.873 2.522.652.771 2.592.85 3.578.147a.101.101 0 0 1 .136.147c-1.095 1.296-1.327 2.494-.62 3.206.579.583 1.815.71 2.801-.101a.101.101 0 0 1 .155.124c-.741 1.439-.558 2.801.49 3.643 1.161.933 2.92.912 4.09-.05a.101.101 0 0 1 .128.156c-.633.52-1.428.78-2.218.78" fill="#2151A8" fill-rule="nonzero"/><path d="M103.088 135.843c-2.968-2.554-5.802-8.216-7.273-9.986-1.461-1.774-1.91-3.619-5.447-5.432" fill="#FCD006" fill-rule="nonzero"/><path d="M103.088 135.944a.1.1 0 0 1-.066-.025c-1.97-1.695-3.854-4.708-5.368-7.128-.762-1.22-1.42-2.273-1.917-2.87-.375-.455-.688-.922-.991-1.373-.89-1.323-1.809-2.693-4.424-4.033a.101.101 0 0 1 .093-.18c2.661 1.365 3.596 2.756 4.5 4.101.3.447.61.91.978 1.357.505.607 1.167 1.665 1.933 2.891 1.506 2.41 3.381 5.407 5.328 7.083a.1.1 0 0 1-.066.177" fill="#2151A8" fill-rule="nonzero"/><path d="M124.601 93.396c2.921.044 9.784.434 8.252-4.08 6.629 1.715 7.943-1.991 5.587-2.933 8.733 1.472 7.8-.561 4.155-1.934 8.46 1.433 12.816-1.538 2.333-2.533 12.438.346 16.115-1.457 2.1-3.04 13.868.22 18.035-2.683 2.475-2.996 4.95-.403 5.616.538 9.908-.81 4.29-1.342 4.248-4.72.738-3.673-3.504 1.05-6.642 2.237-9.56 1.135" fill="#FCD006" fill-rule="nonzero"/><path d="M126.482 93.524c-.495 0-.963-.01-1.382-.018l-.5-.009a.101.101 0 0 1 .001-.202h.002l.5.01c2.335.046 6.245.124 7.484-1.563.446-.607.503-1.412.17-2.393a.101.101 0 0 1 .121-.13c3.88 1.003 6.081.142 6.485-1.082.222-.675-.164-1.342-.96-1.66a.101.101 0 0 1 .054-.194c4.713.795 6.537.542 6.673.042.1-.367-.752-1.096-2.571-1.782a.1.1 0 0 1 .053-.194c4.572.775 7.753.244 8.29-.436.08-.1.097-.196.052-.3-.221-.516-1.923-1.207-6.035-1.597a.1.1 0 0 1-.092-.107.106.106 0 0 1 .104-.094c7.94.22 10.95-.43 10.983-.892.006-.096-.186-.963-8.897-1.947a.101.101 0 0 1-.09-.107.104.104 0 0 1 .103-.094c7.907.127 12.296-.773 12.308-1.442.001-.047-.09-1.156-9.837-1.352a.101.101 0 0 1-.1-.098.101.101 0 0 1 .094-.103c1.895-.155 3.144-.113 4.246-.077 1.743.058 3.002.1 5.64-.73 2.32-.725 3.463-2.13 3.19-3.016-.201-.655-1.14-.837-2.393-.463-.353.106-.702.213-1.047.319-3.046.934-5.923 1.816-8.577.813a.1.1 0 1 1 .071-.188c2.591.978 5.435.105 8.446-.818.346-.106.696-.214 1.049-.32 1.04-.31 2.357-.34 2.645.598.307 1-.852 2.495-3.323 3.268-2.671.84-3.945.797-5.708.739-.458-.015-.94-.031-1.486-.034 3.273.157 7.31.539 7.293 1.466-.017.941-4.61 1.624-10.741 1.65 3.692.473 7.372 1.147 7.315 1.95-.063.892-4.618 1.157-9.174 1.117 2.443.36 3.942.88 4.2 1.48a.474.474 0 0 1-.08.504c-.61.773-3.652 1.2-7.649.64 1.124.508 2.063 1.15 1.914 1.7-.255.939-3.462.654-6.332.198.54.406.763 1.01.56 1.624-.44 1.335-2.632 2.23-6.55 1.259.291.969.206 1.776-.254 2.402-1.072 1.46-3.957 1.663-6.268 1.663" fill="#2151A8" fill-rule="nonzero"/><path d="M160.835 71.243c1.426-1.175 3.41-3.913.356-3.15-3.055.765-5.065 1.021-7.399.756" fill="#FCD006" fill-rule="nonzero"/><path d="M160.835 71.344a.1.1 0 0 1-.065-.179c1.091-.898 2.152-2.35 1.886-2.877-.135-.265-.633-.299-1.44-.097-3.25.814-5.196 1.012-7.435.759a.1.1 0 1 1 .022-.2c2.212.25 4.14.053 7.363-.755.923-.23 1.486-.162 1.67.202.208.41-.142 1.062-.473 1.538a8.458 8.458 0 0 1-1.464 1.586.101.101 0 0 1-.064.023" fill="#2151A8" fill-rule="nonzero"/><path d="M161.19 68.093c2.748-1.468 5.819-4.786 1.693-4.189-4.116.593-5.53.53-6.767 1.547" fill="#FCD006" fill-rule="nonzero"/><path d="M161.19 68.194a.1.1 0 0 1-.048-.19c1.853-.99 3.89-2.882 3.627-3.678-.122-.37-.769-.481-1.871-.322-.91.131-1.681.23-2.361.316-2.345.298-3.415.435-4.357 1.209a.101.101 0 0 1-.129-.156c.987-.811 2.076-.95 4.46-1.253.68-.087 1.45-.185 2.358-.316 1.23-.178 1.933-.023 2.092.459.331 1-1.984 2.99-3.723 3.92a.099.099 0 0 1-.047.011" fill="#2151A8" fill-rule="nonzero"/><path d="M148.252 68.831c4.575-2.886 5.716-4.879.773-4.276-.766.09-2.69 1.428-3.314 1.935-.616.51-1.872 1.875-2.594 2.31-.4.243-1.76 1.534-2.561 2.022-.805.486-2.03 1.408-2.892 2.468-.859 1.062-2.4 2.418-4.95 4.162-2.538 1.736-9.404 7.127-11.145 9.436-1.75 2.307-5.213 6.731-6.565 8.895-1.347 2.158-2.725 4.606-2.486 7.905" fill="#FCD006" fill-rule="nonzero"/><path d="M112.518 103.79a.101.101 0 0 1-.101-.094c-.237-3.273 1.105-5.73 2.5-7.966 1.096-1.752 3.583-4.998 5.398-7.368.437-.57.837-1.091 1.173-1.535 1.762-2.337 8.623-7.717 11.17-9.459 2.344-1.603 4.002-2.997 4.928-4.142.859-1.056 2.07-1.979 2.917-2.49.462-.281 1.126-.845 1.66-1.299.391-.331.728-.618.902-.723.449-.27 1.117-.917 1.706-1.486.333-.323.648-.627.875-.815.64-.52 2.58-1.865 3.367-1.958 2.01-.245 3.088-.08 3.297.502.346.967-1.986 2.687-4.004 3.96a.101.101 0 0 1-.14-.032.1.1 0 0 1 .032-.14c2.724-1.717 4.153-3.073 3.921-3.72-.095-.267-.622-.67-3.081-.37-.736.088-2.657 1.421-3.263 1.914-.22.182-.533.484-.863.803-.597.578-1.273 1.232-1.742 1.515-.16.097-.491.378-.875.704-.54.458-1.211 1.028-1.687 1.317-.832.503-2.022 1.41-2.865 2.445-.938 1.16-2.61 2.567-4.97 4.182-2.54 1.736-9.374 7.093-11.123 9.413-.337.445-.737.967-1.174 1.537-1.813 2.366-4.296 5.608-5.386 7.352-1.378 2.208-2.704 4.632-2.471 7.844a.1.1 0 0 1-.094.108h-.007" fill="#2151A8" fill-rule="nonzero"/><path d="M127.107 125.69c.622.349.53 1.196.008 1.666-.529.476-1.468.511-1.773-.2-.35-.794-.673-2.293-.673-2.293s1.724.428 2.438.827" fill="#FCD006" fill-rule="nonzero"/><path d="M124.804 125.002c.093.406.356 1.49.63 2.114a.77.77 0 0 0 .565.464c.35.077.762-.04 1.048-.299.271-.244.423-.611.387-.935a.72.72 0 0 0-.377-.568c-.567-.317-1.811-.66-2.253-.776zm1.412 2.802c-.089 0-.176-.008-.26-.027a.976.976 0 0 1-.707-.581c-.35-.794-.666-2.25-.68-2.312a.1.1 0 0 1 .124-.12c.071.018 1.746.437 2.463.838.274.154.444.41.479.721.044.393-.13.817-.452 1.108a1.474 1.474 0 0 1-.967.373z" fill="#2151A8" fill-rule="nonzero"/><path d="M117.672 153.207c.185-2.487 1.544-5.56-.905-7.514 6.043 1.263 7.604 2.022 7.084 6.65 1.382-3.183 2.334-5.64 1.113-7.26" fill="#FCD006" fill-rule="nonzero"/><path d="M117.673 153.308h-.008a.101.101 0 0 1-.094-.108c.043-.575.145-1.166.253-1.79.355-2.05.721-4.17-1.12-5.638a.101.101 0 0 1 .084-.178c5.878 1.229 7.529 2.042 7.225 6.118 1.245-2.918 1.966-5.115.87-6.569a.1.1 0 0 1 .02-.141.102.102 0 0 1 .142.02c1.234 1.637.323 4.083-1.1 7.36a.102.102 0 0 1-.12.058.101.101 0 0 1-.074-.11c.494-4.406-.82-5.224-6.625-6.458 1.598 1.523 1.242 3.58.898 5.572-.107.62-.209 1.205-.25 1.77a.101.101 0 0 1-.101.094" fill="#2151A8" fill-rule="nonzero"/><path d="M135.363 156.277c-.157-2.199-3.027-3.168-5.439-4.205" fill="#FCD006" fill-rule="nonzero"/><path d="M135.363 156.378a.101.101 0 0 1-.1-.093c-.138-1.92-2.432-2.882-4.65-3.812a82.164 82.164 0 0 1-.729-.308.1.1 0 1 1 .08-.186c.24.103.482.205.727.308 2.275.954 4.627 1.94 4.773 3.983a.101.101 0 0 1-.101.108" fill="#2151A8" fill-rule="nonzero"/><path d="M130.875 158.278c.535-1.547 1.183-2.952-1.924-4.65" fill="#FCD006" fill-rule="nonzero"/><path d="M130.875 158.38a.1.1 0 0 1-.096-.134l.066-.188c.517-1.477.963-2.753-1.942-4.34a.1.1 0 1 1 .097-.178c3.056 1.67 2.56 3.086 2.036 4.585l-.065.186a.101.101 0 0 1-.096.068" fill="#2151A8" fill-rule="nonzero"/><path d="M187.45 49.285c-1.233 1.45-9.41 8.626-11.517 9.784-1.449.796-3.218 1.513-3.866 1.825-.64.311-2.051 1.165-2.776 2.288" fill="#FCD006" fill-rule="nonzero"/><path d="M169.291 63.283a.1.1 0 0 1-.085-.155c.873-1.353 2.62-2.23 2.817-2.325.19-.092.468-.214.82-.37.852-.376 2.019-.89 3.042-1.453 2.026-1.113 10.188-8.23 11.489-9.76a.101.101 0 0 1 .154.13c-1.15 1.352-9.371 8.612-11.546 9.807-1.03.566-2.202 1.083-3.057 1.461-.337.148-.627.276-.814.367-.693.337-2.05 1.19-2.735 2.252a.101.101 0 0 1-.085.046" fill="#2151A8" fill-rule="nonzero"/><path d="M191.622 71.204c-3.04 1.104-8.556 2.59-11.336 2.951-2.775.365-5.898.396-7.337.618-1.436.225-3.654.645-4.719.908" fill="#FCD006" fill-rule="nonzero"/><path d="M168.23 75.782a.101.101 0 0 1-.025-.199c1.11-.275 3.341-.692 4.728-.91.658-.101 1.66-.163 2.819-.234 1.41-.087 3.008-.185 4.521-.384 2.81-.365 8.39-1.883 11.314-2.945a.1.1 0 1 1 .07.19c-2.996 1.087-8.49 2.582-11.357 2.955-1.52.2-3.123.298-4.536.385-1.154.071-2.151.132-2.8.233-1.382.216-3.604.633-4.71.906a.101.101 0 0 1-.024.003" fill="#2151A8" fill-rule="nonzero"/><path d="M192.24 66.158c-1.461 1.375-8.258 5.043-11.607 5.53" fill="#FCD006" fill-rule="nonzero"/><path d="M180.632 71.79a.101.101 0 0 1-.014-.2c3.29-.48 10.082-4.121 11.553-5.506a.102.102 0 0 1 .143.005.1.1 0 0 1-.004.142c-1.486 1.398-8.343 5.074-11.663 5.558a.093.093 0 0 1-.015 0" fill="#2151A8" fill-rule="nonzero"/><path d="M194.651 56.741c-1.103 1.128-6.533 6.206-7.924 7.349-1.385 1.144-4.187 3.143-4.668 3.713-.484.571-2.135 1.492-2.638 1.773-.497.284-1.83.857-2.622 1.197" fill="#FCD006" fill-rule="nonzero"/><path d="M176.799 70.874a.101.101 0 0 1-.04-.194l.049-.02c.778-.335 2.081-.896 2.563-1.172 1.418-.79 2.296-1.379 2.611-1.75.296-.351 1.41-1.199 2.587-2.097a75.633 75.633 0 0 0 2.093-1.629c1.381-1.135 6.822-6.222 7.917-7.34a.101.101 0 1 1 .145.14c-1.097 1.12-6.548 6.218-7.933 7.356a75.51 75.51 0 0 1-2.099 1.634c-1.117.851-2.273 1.732-2.555 2.066-.499.588-2.13 1.497-2.667 1.796-.49.28-1.8.844-2.582 1.18l-.049.022a.101.101 0 0 1-.04.008" fill="#2151A8" fill-rule="nonzero"/><path d="M197.722 48.136c-1.145 1.556-11.851 11.282-13.682 12.569-1.83 1.287-6.215 4.065-7.35 5-1.129.932-3.616 2.144-4.67 2.794" fill="#FCD006" fill-rule="nonzero"/><path d="M172.02 68.6a.101.101 0 0 1-.054-.187c.345-.212.83-.478 1.391-.785 1.12-.614 2.514-1.377 3.268-2 .694-.572 2.563-1.807 4.371-3.002a146 146 0 0 0 2.986-2.004c1.806-1.27 12.536-11.02 13.658-12.545a.101.101 0 0 1 .142-.022.1.1 0 0 1 .021.141c-1.126 1.532-11.893 11.318-13.704 12.591-.72.507-1.824 1.235-2.99 2.007-1.805 1.192-3.67 2.425-4.355 2.99-.769.634-2.172 1.403-3.3 2.02-.558.307-1.04.571-1.381.781a.101.101 0 0 1-.054.015" fill="#2151A8" fill-rule="nonzero"/><path d="M182.659 78.857c-2.36-.075-13.397-.261-16.836-.844" fill="#FCD006" fill-rule="nonzero"/><path d="M182.659 78.957h-.004a311.43 311.43 0 0 0-1.601-.042c-3.999-.1-12.32-.306-15.248-.803a.1.1 0 1 1 .034-.199c2.914.494 11.225.7 15.219.8.694.018 1.247.031 1.603.043a.1.1 0 0 1 .098.104.101.101 0 0 1-.101.097" fill="#2151A8" fill-rule="nonzero"/><path d="M127.895 86.34c4.458-.869 8.138-2.38 2.642-4.734 7.91.893 13.228-1.522 1.582-3.738 10.136 1.146 14.175-1.339 4.529-3.5 9.556 1.08 12.765-1.162 3.033-2.954 9.338.924 11.207-.265 8.571-2.583-.82-.72-3.301.614-5.423.245" fill="#FCD006" fill-rule="nonzero"/><path d="M127.895 86.441a.101.101 0 0 1-.02-.2c3.385-.66 5.223-1.472 5.317-2.35.07-.659-.837-1.396-2.695-2.193a.1.1 0 0 1-.058-.118.1.1 0 0 1 .11-.075c4.546.514 8.093-.087 8.227-.967.045-.296-.303-1.358-6.676-2.571a.101.101 0 0 1 .03-.2c2.771.314 5.314.373 7.163.168 1.638-.181 2.663-.569 2.742-1.036.096-.568-1.275-1.506-5.41-2.432a.101.101 0 0 1 .035-.199c5.856.662 8.725.035 8.82-.598.073-.487-1.407-1.345-5.817-2.157a.1.1 0 0 1 .028-.2c7.308.724 9.201.052 9.503-.638.184-.423-.155-1.017-1.009-1.768-.383-.337-1.233-.167-2.217.03-.987.197-2.106.42-3.157.238a.101.101 0 0 1-.082-.117.102.102 0 0 1 .117-.082c1.014.177 2.113-.043 3.082-.237 1.037-.208 1.932-.387 2.391.016.94.827 1.287 1.481 1.06 2-.435.996-3.04 1.298-7.946.916 1.983.455 4.374 1.182 4.247 2.029-.138.922-3.257 1.275-7.61.91 2.826.748 4.293 1.56 4.164 2.323-.183 1.084-3.64 1.556-8.313 1.206 3.398.773 5.178 1.622 5.055 2.43-.162 1.061-3.68 1.584-7.828 1.2 1.583.75 2.319 1.454 2.245 2.143-.106.989-1.949 1.84-5.478 2.528a.11.11 0 0 1-.02.001" fill="#2151A8" fill-rule="nonzero"/><path d="M120.756 88.133c8.412 2.697 10.077-1.354 3.751-4.188" fill="#FCD006" fill-rule="nonzero"/><path d="M125.484 89.119c-1.213 0-2.798-.261-4.759-.89a.1.1 0 1 1 .062-.192c3.138 1.006 6.789 1.38 7.388-.175.353-.919-.656-2.457-3.71-3.825-.05-.022-.073-.082-.05-.133a.101.101 0 0 1 .134-.05c2.286 1.023 4.353 2.683 3.815 4.08-.27.7-1.23 1.185-2.88 1.185m-3.591 20.355c.282-.008.562-.115.833-.263-4.5-9-10.817-16.086-17.262-22.415-2.372 2.177-5.14 4.627-5.14 4.627-2.341 2.692-7.753 7.748-11.878 10.167h.005c.94.059 5.74.613 7.723.954 1.813.312 3.967.75 5.198 1.159 1.534.51 3.653 1.464 4.855 2.046 1.204.59 2.531 1.432 3.282 2.045.492.403 1.58 1.391 2.167 1.808.645.457 2.437.855 3.349 1.154.918.29 5.207 3.344 6.505 4.261l.036-.01c-1.34-.891-2.698-1.898-2.828-2.94-.144-1.103 1.831-2.551 3.155-2.593" fill="#2151A8" fill-rule="nonzero"/></g></svg>