<svg width="200" height="200" xmlns="http://www.w3.org/2000/svg"><g fill="none" fill-rule="evenodd"><path d="M83.554 185.628l2.154 2.747c1.052 1.305 2.665 2.64 5.138 3.764 0 0 .112.438.392 1.115 0 0 .364 1.498 1.369 2.492 16.602 13.119 50.118-6.587 50.118-6.587s59.93-10.99 47.81-67.414l3.998 1.354s-10.399-32.997-40.956-47.285c0 0 1.59-4.027-1.804-9.085 0 0 4.102-1.817 5.413-4.334h13.776V27.254L142.425.33H59.931L31.392 26.922v46.399S6.6 87.065 4.33 103.703l2.788-.59s-3.606 7.802 0 13.581c3.61 5.781 3.11 3.668 6.235 9.548C17.288 133.654 28.44 139.1 28.44 139.1v15.084l29.523 29.238 25.238.011s-.177.613.354 2.195zm34.316-144.28c-6.75-2.437-13.659-1.62-13.659-1.62l.472 1.159c-2.775-.203-8.072.828-8.072.828-.768-1.546-3.143-2.969-3.143-2.969h24.402v2.602z" fill="#231F20" fill-rule="nonzero"/><path d="M83.69 185.554l2.137 2.726c1.19 1.476 2.9 2.728 5.081 3.72a.15.15 0 0 1 .085.1 9.205 9.205 0 0 0 .393 1.118c.004.015.367 1.468 1.327 2.42 3.744 2.956 8.698 4.46 14.712 4.46h.017c4.83-.002 10.35-.968 16.405-2.872 10.318-3.244 18.718-8.15 18.801-8.199a.146.146 0 0 1 .05-.018c.069-.013 7.016-1.314 15.57-5.159 7.89-3.545 18.799-10.042 25.97-20.856 7.519-11.339 9.587-25.207 6.148-41.217a.151.151 0 1 1 .197-.177l3.71 1.256c-.527-1.548-3.24-9.102-8.912-17.966-5.846-9.137-16.12-21.574-31.868-28.937a.154.154 0 0 1-.077-.195c.016-.04 1.516-4.018-1.789-8.944a.153.153 0 0 1 .064-.225c.041-.018 4.07-1.825 5.34-4.265a.152.152 0 0 1 .135-.082h13.625V27.32L142.365.483H59.99L31.544 26.989v46.332c0 .055-.03.107-.079.134-.061.034-6.263 3.494-12.66 8.938-5.842 4.972-13.037 12.655-14.295 21.115l2.576-.546a.15.15 0 0 1 .15.055.154.154 0 0 1 .02.16c-.037.077-3.53 7.795-.01 13.436 1.584 2.536 2.384 3.562 3.027 4.386.845 1.083 1.456 1.866 3.213 5.17 3.868 7.285 14.908 12.74 15.02 12.794a.152.152 0 0 1 .085.137v15.02l29.433 29.15 25.177.01a.152.152 0 0 1 .145.196c-.001.004-.148.6.344 2.078zm23.735 14.85c-6.084 0-11.101-1.526-14.912-4.538-1-.987-1.38-2.407-1.42-2.563a10.173 10.173 0 0 1-.375-1.055c-2.194-1.006-3.919-2.276-5.128-3.776l-2.155-2.749a.158.158 0 0 1-.025-.046c-.38-1.134-.405-1.792-.384-2.091l-25.064-.01a.151.151 0 0 1-.107-.045l-29.522-29.238a.153.153 0 0 1-.046-.109v-14.989c-1.048-.529-11.338-5.854-15.069-12.88-1.744-3.282-2.348-4.056-3.184-5.127-.648-.83-1.453-1.862-3.045-4.412-3.227-5.171-.72-12.008-.127-13.454l-2.502.53a.15.15 0 0 1-.134-.037.154.154 0 0 1-.047-.133c1.179-8.643 8.5-16.476 14.435-21.526 6.028-5.13 11.884-8.504 12.626-8.925V26.922c0-.042.018-.083.05-.112L59.826.217a.152.152 0 0 1 .104-.04h82.494c.039 0 .076.014.104.041l28.537 26.924c.031.029.049.07.049.112v35.14a.152.152 0 0 1-.153.153h-13.685c-1.222 2.236-4.496 3.878-5.279 4.246 2.932 4.482 2.002 8.192 1.767 8.94 15.747 7.403 26.024 19.85 31.877 28.999 6.356 9.937 9.01 18.238 9.036 18.321a.152.152 0 1 1-.193.191l-3.746-1.269c3.379 15.985 1.276 29.842-6.25 41.19-7.213 10.877-18.177 17.406-26.105 20.968-8.319 3.738-15.126 5.08-15.605 5.172-.497.288-8.757 5.043-18.842 8.213-6.084 1.913-11.634 2.884-16.495 2.886h-.017z" fill="#231F20" fill-rule="nonzero"/><path d="M31.076 80.175v-2.133S15.41 88.292 10.32 98.432l4.627-1.062s-7.652 10.534-4.354 17.908c0 0 1.515 2.16 2.191 2.556.675.394 2.765 3.05 3.514 4.791 0 0 7.342 13.098 22.685 14.126 0 0 9.175.74 12.187-3.321l-2.19-.76 3-1.287s-.01-1.277-1.207-2.45c0 0 2.993-.825 4.004-2.727l-2.525-.89 2.993-1.25s.016-1.358-1.508-2.447c0 0 2.362-.553 3.448-2.856l-2.797-1.141 2.953-1.16s-.115-1.439-2.852-2.779c0 0 1.687-1.037 2.073-2.437l-3.763-1.186 3.53-1.41s-.557-1.455-3.347-2.36c0 0 1.33-1.172 1.641-2.17l-3.34-.835 3.105-1.699s-1.396-8.378-32.064 2.675c0 0 5.665-4.355 8.896-6.132V85.268s-5.855 4.05-10.444 8.393c0 0 5.142-7.915 10.301-13.486" fill="#91510F"/><path d="M31.219 92.465V87.24c-3.163 3.653-6.3 8.438-8.798 13.11 0 0 4.08-4.092 8.798-7.885m0 3.442v-1.648c-3.04 2.125-3.377 3.292-4.238 4.463 0 0 .497-.735 4.238-2.815m26.121 20.555s-.115-1.439-2.852-2.779c0 0 1.687-1.037 2.073-2.437l-3.763-1.186 3.53-1.41s-.557-1.455-3.347-2.36c0 0 1.33-1.172 1.641-2.17l-3.338-.835 3.104-1.699s-.655-3.858-10.691-2.872c2.704.355 4.864 1.745 5.17 3.556.214 1.284-.52 2.51-1.846 3.413 2.005.58 3.47 1.767 3.72 3.253.232 1.377-.64 2.693-2.162 3.61 1.637.632 2.799 1.717 3.017 3.024.299 1.789-1.26 3.481-3.707 4.315.819.601 1.367 1.357 1.51 2.213.325 1.96-1.566 3.795-4.416 4.526.645.556 1.023 2.044 1.147 2.79.299 1.791-1.534 2.378-3.988 3.216 0 0-8.246 1.158-17.856-4.632.177-.03.368-.094.368-.094l4.385-.935s-8.545-.31-13.81-9.346c0 0 .077 1.797.974 3.854l.094 1.148s7.342 13.098 22.685 14.126c0 0 9.178.74 12.187-3.321l-2.189-.76 3-1.287s-.011-1.277-1.208-2.45c0 0 2.993-.825 4.004-2.727l-2.524-.89 2.992-1.25s.017-1.358-1.508-2.447c0 0 2.362-.553 3.448-2.856l-2.796-1.141 2.952-1.16" fill="#753D0C" fill-rule="nonzero"/><path d="M60.354 177.707l-27.666-27.335V140.4s18.818 4.294 23.672-6.93c0 0 4.77-.19 6.94-2.24l-.147-.535s-2.488.776-6.294-.16c0 0 2.676-2.178 3.003-4.947 0 0 4.222-.267 6.25-2.18l-.146-.533s-3.039.687-6.195-.14c0 0 1.519-2.2 1.696-4.495 0 0 4.476-.494 6.083-2.346l-.163-.53s-2.066.598-5.94.086c0 0-.312-1.643-1.012-2.298 0 0 .885-2.13.728-3.209 0 0 5.237-1.577 6.52-4.545l-.323-.457s-1.453 1.347-7.118 1.851c0 0-.507-1.267-1.333-1.862 0 0 .336-1.541.327-2.288 0 0 4.564-1.843 5.588-4.186l-.327-.459s-2.461 1.656-6.032 1.792c0 0-1.795-8.313-21.245-3.335V29.687L62.258 6.163h77.96l24.968 23.675V55.89h-7.19s.31-8.328-7.52-11.856c-7.454-3.357-13.382 2.918-14.17 4.465 0 0-3.924-3.449-10.253-3.178 0 0-2.324-1.722-3.497-2.49v-9.724H85.98s-10.62-3.198-16.349 7.745c-5.443 10.396 2.912 18.257 3.791 18.819 0 0-8.709 10.164-5.27 25.168l1.787-.598s.111 2.716-.17 6.207c-.285 3.495 1.398 10.599 8.413 15.11l.513-1.281s.68.673 1.14 1.06v38.679h42.717v-15.474h27.357s7.787 18.75-10.606 26.625l.024-1.831s-5.859 3.243-12.14 4.353c0 0-39.119-7.415-41.626 4.224 0 0-1.558.173-5.36-1.515l-.353.476s.052 2.664 5.224 4.095c0 0-2.466 1.85-2.978 5.123 0 0-3.888.065-6.045-1.477l-.35.476s1.434 2.886 5.97 4.358c0 0-1.484 2.787-.76 5.156.718 2.369 0 0 0 0l-20.554-.9" fill="#E22739" fill-rule="nonzero"/><path d="M61.665 4.597L35.728 28.973V96.72a67.068 67.068 0 0 1 1.492-.348V29.687L62.258 6.163h77.96l24.968 23.675V55.89h-7.19s-.115 1.129-.225 1.582h8.973V28.996l-25.962-24.4H61.665m88.243 123.947h-26.299v15.474H78.483V103.95s1.134 1.173 1.649 1.713v36.766h41.87v-15.475h27.322s.354.63.584 1.588" fill="#FFF" fill-rule="nonzero"/><path d="M85.87 33.108s1.43.524 2.538 1.529h33.544v7.992s.965.446 1.668.955V33.108H85.87M34.336 151.003l26.167 25.98 19.018.014c.738.255 1.663 1.52 1.663 1.52-.137.212-.37.04-.37.04l-20.94.007-27.186-26.996v-11.17s1.035.126 1.648.117v10.488" fill="#FFF" fill-rule="nonzero"/><path d="M141.053 184.948c-27.97 16.308-44.633 9.286-44.633 9.286l2.325-2.149-3.875-.195s-.018-.954 1.386-2.58c0 0-3.709.084-6.431-2.174l2.617-1.317-4.094-.9s-.53-1.804.744-3.01c0 0-2.178-.998-3.396-1.969l2.994-1.311-3.888-1.278s.038-1.477 2.754-3.03c0 0-.758-.333-1.212-1.36l2.997-1.233-3.509-1.347s.635-2.47 3.915-3.46c0 0-.65-.875-.627-1.883l3.945-1.031-3.6-1.292s.502-4.743 18.95-3.872c13.189.62 18.946 3.244 18.946 3.244s7.903-2.209 9.107-2.98l-.29 1.679s31.662-6.921 15.26-41.823c-2.24-10.717-.186-12.783-.186-12.783 4.021-7.17 8.119 13.082 8.119 13.082 8.649 11.485 3.133 27.395 3.133 27.395 12.099-12.527 4.39-28.063 4.39-28.063 3.534 2.636 6.743 9.317 6.743 9.317.844-16.33-13.338-23.987-13.338-23.987 11.622 3.282 19.226 13.53 19.226 13.53-3.168-10.752-10.81-17.131-10.81-17.131 6.618 3.16 9.286 5.557 9.286 5.557-4.653-6.351-9.245-9.526-9.245-9.526 3.275 1.27 7.931 3.888 9.05 4.526 6.485 8.41 9.73 15.403 9.73 15.403l-4.431-1.358s25.759 52.024-42.052 70.023" fill="#91510F" fill-rule="nonzero"/><path d="M141.674 56.8c0-.24.077-.477.273-.708" fill="#231F20" fill-rule="nonzero"/><path d="M128.935 49.625c2.868.339 11.115 2.255 16.74 12.914 0 0 1.401 3.126 1.699 4.211 0 0 .92 2.595 1.624 3.917.871 1.63.657 4.663.074 6.658 0 0-1.407 4.223-.94 6.508.472 2.285-1.111 6.68-2.695 8.55 0 0-4.867 6.768-5.626 9.812l-.644-1.509s-1.566 2.202-3.316 5.944c-1.75 3.747-4.305 8.345-9.54 10.684 0 0 .719-2.39.817-3.599 0 0-.734 2.21-3.5 4.788 0 0-1.483 1.657-5.89 1.112-4.406-.545-8.137-2.65-8.137-2.65s-1.89-.754-2.18-3.926c0 0-.215-5.37-1.835-7.284 0 0 .153 5.098-.898 8.596 0 0-1.76-2.664-5.645-3.533-3.884-.863-8.694-2.442-11.312-6.346 0 0-1.36 1.927-1.538 2.753 0 0-2.009-3.01-4.268-4.642-2.257-1.629-3.956-6.405-3.956-6.405s-1.173 1.755-1.537 2.915c0 0-3.343-2.98-2.888-10.509.452-7.527.452-9.733 0-11.266 0 0-1.536 1.037-2.351 1.8 0 0-1.201-11.03 10.184-22.514 0 0-1.664.566-3.38 1.774a11.265 11.265 0 0 1-6.314-10.13c0-6.185 4.979-11.202 11.12-11.202 5.653 0 10.32 4.247 11.029 9.746l.37-.175s4.33-3.256 13.662-3.078l-.614-.894s16.736-.617 23.675 13.263c0 0 .265-2.993-1.99-6.283" fill="#91510F"/><path d="M105.586 105.678c.022 0 .043.01.058.027 1.618 1.911 1.844 7.11 1.853 7.331.28 3.079 2.113 3.85 2.132 3.857.046.025 3.778 2.11 8.118 2.646 3.448.427 5.317-.524 5.825-1.087 2.722-2.538 3.476-4.74 3.484-4.761a.075.075 0 0 1 .087-.05.077.077 0 0 1 .06.08c-.083 1.022-.61 2.897-.773 3.455 4.947-2.274 7.504-6.619 9.352-10.579 1.733-3.706 3.307-5.934 3.323-5.956a.076.076 0 0 1 .131.014l.56 1.31c.913-3.116 5.531-9.561 5.58-9.627 1.573-1.858 3.15-6.224 2.682-8.49-.466-2.278.884-6.374.942-6.547.592-2.026.77-5.028-.07-6.598-.698-1.312-1.619-3.901-1.628-3.927-.294-1.072-1.682-4.175-1.696-4.206-5.441-10.31-13.238-12.424-16.514-12.849 2.144 3.221 1.911 6.164 1.909 6.194a.076.076 0 0 1-.144.027c-3.571-7.144-9.796-10.358-14.39-11.796-4.47-1.4-8.306-1.435-9.074-1.427l.533.776a.076.076 0 0 1 .005.08c-.014.025-.042.036-.068.04-4.806-.09-8.258.748-10.304 1.469-2.213.778-3.3 1.586-3.311 1.594l-.384.183a.076.076 0 0 1-.108-.06c-.711-5.517-5.42-9.679-10.952-9.679-6.09 0-11.045 4.991-11.045 11.126 0 4.25 2.444 8.187 6.23 10.042a15.162 15.162 0 0 1 3.364-1.758.075.075 0 0 1 .088.032c.02.03.015.069-.01.094-5.867 5.918-8.317 11.707-9.34 15.521-.96 3.584-.876 6.142-.835 6.777.832-.745 2.23-1.691 2.246-1.701a.077.077 0 0 1 .068-.009.08.08 0 0 1 .047.05c.454 1.543.455 3.759.003 11.293-.234 3.868.557 6.502 1.262 8.032.621 1.347 1.286 2.096 1.516 2.333.398-1.152 1.462-2.749 1.508-2.819a.072.072 0 0 1 .073-.033.075.075 0 0 1 .062.05c.017.048 1.717 4.773 3.928 6.369 1.972 1.425 3.773 3.92 4.195 4.526.29-.89 1.452-2.545 1.505-2.619.014-.02.037-.027.062-.032.025 0 .049.013.062.033 2.692 4.014 7.72 5.527 11.266 6.315 3.383.756 5.187 2.892 5.6 3.437.987-3.441.853-8.374.851-8.424a.076.076 0 0 1 .076-.079zm13.865 14.125c-.517 0-1.09-.034-1.723-.112-4.37-.54-8.127-2.639-8.164-2.66-.66-.262-1.986-1.439-2.219-3.985-.002-.056-.219-5.059-1.679-7.065.014 1.032.01 5.342-.905 8.392a.076.076 0 0 1-.062.053.073.073 0 0 1-.074-.033c-.018-.026-1.79-2.649-5.599-3.5-3.545-.788-8.56-2.295-11.296-6.286-.268.389-1.311 1.933-1.462 2.634a.075.075 0 0 1-.137.026c-.02-.03-2.028-3.016-4.25-4.622-2.03-1.465-3.626-5.49-3.93-6.299-.273.421-1.146 1.812-1.446 2.77a.077.077 0 0 1-.053.051.077.077 0 0 1-.07-.016c-.035-.031-.857-.775-1.633-2.456-.715-1.547-1.517-4.21-1.28-8.116.44-7.348.45-9.619.03-11.138-.334.23-1.564 1.086-2.254 1.733a.077.077 0 0 1-.079.016.077.077 0 0 1-.048-.064c-.003-.028-.29-2.82.824-6.978 1.013-3.781 3.42-9.491 9.137-15.35-.566.226-1.795.767-3.04 1.643a.075.075 0 0 1-.076.006c-3.861-1.872-6.356-5.875-6.356-10.199 0-6.219 5.023-11.279 11.197-11.279 5.574 0 10.323 4.167 11.09 9.71l.276-.131c-.002 0 1.105-.822 3.339-1.609 2.036-.717 5.45-1.549 10.209-1.48l-.53-.77a.076.076 0 0 1-.006-.078.075.075 0 0 1 .065-.042c.042-.002 4.255-.137 9.261 1.43 4.565 1.428 10.733 4.6 14.35 11.608-.003-.83-.177-3.3-1.986-5.94a.077.077 0 0 1-.002-.082.076.076 0 0 1 .074-.036c1.394.165 4.206.721 7.366 2.597 3.832 2.275 7.006 5.76 9.433 10.357.059.132 1.408 3.148 1.704 4.227.007.02.924 2.599 1.618 3.901.867 1.623.697 4.607.08 6.716-.015.044-1.396 4.232-.938 6.47.475 2.305-1.121 6.737-2.713 8.615-.045.063-4.862 6.787-5.609 9.782a.077.077 0 0 1-.068.058.081.081 0 0 1-.076-.046l-.59-1.383c-.337.494-1.723 2.594-3.231 5.82-1.88 4.025-4.487 8.446-9.579 10.721a.076.076 0 0 1-.08-.012c-.023-.02-.032-.051-.023-.08.006-.02.537-1.792.744-3.04-.385.808-1.335 2.474-3.302 4.308-.05.054-1.155 1.243-4.23 1.243z" fill="#231F20" fill-rule="nonzero"/><path d="M91.189 48.602c-2.966 1.915-8.299 6.003-8.299 6.003.204-.82 1.26-2.827 1.26-2.827-3.555 1.78-5.782 3.819-5.782 3.819s-2.97-1.585-3.284-6.603c-.31-5.021 3.962-7.25 3.962-7.25-.523-.574-2.36-.982-2.36-.982s6.03-2.59 10.233.94c4.201 3.527 3.423 7.134 3.423 7.134" fill="#231F20" fill-rule="nonzero"/><path d="M105.252 54.475s7.13-.811 9.437.609c2.296 1.418 5.06 5.514 5.06 5.514s5.758 10.116 12.657 9.852c0 0-.571.776-1.033.79 0 0 1.825 1.323 6.098-3.998 3.569-4.44 5.524-2.255 5.524-2.255s-1.034-4.805-7.48.285c0 0 1.957-2.551 2.073-6.215 0 0-3.224 6.366-7.137 5.978 0 0-1.033-.07-2.646-3.346-1.611-3.276-4.49-9.195-10.012-9.846 0 0 3.452 1.162 7.48 10.805l-3.569-4.491s-3.91-6.853-11.388-5.382c0 0-3.568.673-5.064 1.7m38.563 16.756s.786 4.722-2.793 8.46c0 0 3.167-.153 4.462-2.945 1.298-2.79-1.669-5.515-1.669-5.515" fill="#753D0C" fill-rule="nonzero"/><path d="M121.842 71.384s3.546-2.502 6.422-.536l2.748 2.134-.527.226s-2.439-1.523-4.39-1.655c-1.952-.133-3.37.127-3.99.277l-.263-.446m3.546 2.722s2.613-2.047 5.272.714l-.531.227s-2.639-1.072-4.445-.5l-.296-.44M134.3 95.31c-.26-.447-2.014-1.841-2.014-1.841-2.145-1.588-2.02-2.979-2.02-2.979-1.944 1.518-6.931.67-8.384.274-1.446-.395-4.821-.75-4.821-.75-12.393-.43-10.218 7.468-10.218 7.468s.916-2.393 1.74-2.808c0 0 1.664 5.703 1.507 11.992-.164 6.289.207 7.876 4.194 8.814 0 0-1.526-1.287-1.681-2.309 0 0 2.424 1.832 7.773 2.203 5.35.377 6.73-3.114 6.73-3.114s1.442-3.78 1.823-5.396c.383-1.617.603-4.535 2.931-7.764 2.329-3.224 2.44-3.79 2.44-3.79" fill="#231F20" fill-rule="nonzero"/><path d="M117.152 91.64s8.806 2.024 11.833.921c0 0 .96 1.097 2.014 1.626 1.049.527 1.497 1.404.766 2.716 0 0-.607 1.457-1.946 2.462 0 0-.607.679-.607-.217 0 0 .447-2.345.506-3.032 0 0 .1-.6-.446-.13 0 0-.377.52-.857.387l-.414-.13s-.353-.05-.449-.73c0 0 .128-.481-.445-.102 0 0-.319.518-.86.45l-.573-.158s-.326-.046-.385-.733c0 0 0-.446-.514-.097 0 0-.317.488-.701.386l-.605-.158s-.38-.138-.411-.673c-.034-.535-.382-.282-.61-.153 0 0-.285.43-.734.356l-.543-.128s-.411-.193-.475-.67l-.066-.355s-.096-.862-.894.093c0 0-1.051 1.413-1.598 2.209 0 0-.986 1.322-1.144.075 0 0-.352-1.895.158-4.214m-1.626 16.997s-.373.467-.638-.119c0 0-.406-1.102-.552-2.265l-.22-1.253s-.101-1.232-.746-.253c0 0-1.717 2.27-1.064 5.365 0 0 .354.917 1.214.882 0 0 .972.019 1.341-.666 0 0 .072.695.815.89 0 0 .788.238 1.592-.601 0 0-.03.756.885 1.056 0 0 .686.19 1.253-.543 0 0 .093.785.913 1.002 0 0 .712.124 1.084-.39 0 0 .086.63.622.794 0 0 .5.153.993-.277 0 0 .006.791.53.873 0 0 .63.22 1.222-.612 0 0 1.424-1.553 1.955-4.407 0 0 .154-1.147-.616-.19 0 0-1.536 2.13-2.237 2.798 0 0-.451.233-.435-.197 0 0 .071-.36-.287-.49l-.484-.17s-.386-.2-.611.093c0 0-.322.465-.43.066 0 0 .019-.381-.313-.536l-.616-.167s-.329-.059-.557.188l-.147.123s-.302.297-.434-.171c0 0 .069-.36-.287-.492l-.77-.208s-.307-.083-.56.212l-.146.175s-.326.32-.383-.203c0 0 .07-.385-.418-.531l-.817-.206s-.35-.035-.651.43" fill="#FFF" fill-rule="nonzero"/><path d="M100.038 107.257c-4.552-2.47-7.001-8.464-7.001-8.464l-1.017 3.753c-3.383-5.336-5.41-12.118-5.41-19.507 0-7.837 2.277-14.996 6.039-20.46 0 0-1.882-.27-3.21-.219 0 0 1.84-2.482 6.975-2.962 0 0-1.09 2.278-.848 4.22 0 0 1.94-1.068 2.819-1.023 0 0-5.111 6.714 5.028 12.65 0 0-8.222-8.74.12-16.517 0 0-3.507.203-4.779 1.214 0 0 .908-2.873 1.716-4.078 0 0-12.026-1.088-17.895 10.313l2.327-.776c-2.773 6.032-3.797 13.48-2.461 21.203a38.673 38.673 0 0 0 3.057 9.794c-2.027-1.39-3.323-3.603-3.323-3.603-5.667-8.128-2.928-20.813-2.928-20.813l-3.296 2.042c-1.295-7.426 3.663-15.651 3.663-15.651-10.306 11.403-8.421 20.745-8.421 20.745.815-.763 2.351-1.8 2.351-1.8.452 1.533.452 3.739 0 11.266-.455 7.53 2.888 10.51 2.888 10.51.364-1.16 1.537-2.916 1.537-2.916s1.7 4.776 3.956 6.405c2.26 1.633 4.268 4.642 4.268 4.642.179-.826 1.538-2.753 1.538-2.753 2.618 3.904 7.428 5.483 11.312 6.346 3.885.87 5.645 3.533 5.645 3.533.021-.074.038-.148.062-.222-.642-2.266-1.979-5.39-4.712-6.872" fill="#753D0C" fill-rule="nonzero"/><path d="M116.74 73.384s-2.412 1.145-7.56 2.473c0 0 .398.507 2.895.716 0 0-.486.772-2.737 2.29-2.254 1.516-6.764 5.828-6.764 9.669 0 0 1.209-.875 1.93-1.204 0 0-2.01 6.027.083 10.091 0 0 .486-8.983 5.716-14.68 0 0-2.254.616-2.736.935 0 0 1.048-1.546 4.666-4.47 4.992-4.034 4.507-5.82 4.507-5.82" fill="#231F20" fill-rule="nonzero"/><path d="M104.503 87.328c-.72.329-1.93 1.204-1.93 1.204 0-3.841 4.511-8.153 6.765-9.67 2.251-1.517 2.737-2.29 2.737-2.29a12.612 12.612 0 0 1-1.706-.242c-1.29.452-3.065.999-4.95 1.338l1.437.53S99.39 81.893 99.52 90.2l2.225-1.187s-1.963 6.598 3.145 12.927c0 0-.4-1.94-.282-4.803-.015.182-.021.282-.021.282-2.092-4.064-.084-10.091-.084-10.091" fill="#753D0C" fill-rule="nonzero"/><path d="M117.347 70.397c-1.982-10.012-11.35-9.09-11.35-9.09.676.42 1.309.815 1.926 1.197-1.657-.076-3.198.313-3.198.313s2.616.425 4.085 1.33c-.42.556-.7 1.226-.774 1.97-.217 2.154 1.346 4.072 3.48 4.286a3.882 3.882 0 0 0 3.929-2.286 33.942 33.942 0 0 1 1.902 2.28m27.273.994s-.895-.622-1.994-1.007c.51-.123 1.02-.238 1.526-.334 0 0-4.814-2.418-8.615 1.454l-2.354 1.855s1.6.128 2.08 1.323l.311.85s-1.502-.231-2.39.154c0 0 2.521.638 3.342 2.456l.302.91s-1.976.206-4.534-1.1c-2.555-1.307-5.484-2.214-8.21.696 0 0-1.057 1.281-1.296 2.919 0 0-.071.64.923 1.686l.507.492s1.297 1.383 3.613-.524c0 0 .303-.227.512-.517.287-.392.921-.927 1.805-.613.886.32 1.533 1.305.445 2.75 0 0-.514 1.103-2.762 1.73 0 0 .887 1.307 3.001 2.788 0 0 2.246-.981 3.44-1.245 0 0-1.328-1.42-.611-2.913 0 0 .54-1.975 1.94-1.806 1.397.17.82 1.894.82 1.894s-.785 1.815.338 1.995c0 0 .99.152 1.943-.46 0 0 .991 2.612-2.722 7.727 0 0-1.538 2.1-1.367 3.049l3.48-3.418s4.633-4.48 1.976-9.863c0 0 1.263-3.046-.921-4.62l-.454-4.007-.196-.36a3.115 3.115 0 0 0 3.777-2.217 3.145 3.145 0 0 0-.102-1.953c1.14-.046 2.447.23 2.447.23" fill="#231F20" fill-rule="nonzero"/><path d="M142.006 52.842s4.613-6.524 10.624.141h-1.075s1.914 4.27-3.773 7.462c0 0 .852 1.656 1.271 2.783 3.253-1.036 5.583-4.184 5.583-7.81 0-4.476-3.603-8.106-8.053-8.106-2.898 0-5.442 1.548-6.856 3.865l2.279 1.665" fill="#753D0C" fill-rule="nonzero"/><path d="M113.208 67.056a.941.941 0 0 1-1.763-.226.96.96 0 0 1 .286-.894c-.408-.287-.784-.53-1.11-.728a2.289 2.289 0 0 0-.467 1.903 2.27 2.27 0 0 0 2.693 1.747 2.275 2.275 0 0 0 1.375-.921 23.264 23.264 0 0 0-1.014-.88m26.058 4.77a.616.616 0 0 1-.028.599.602.602 0 1 1-1.104-.267c-.26.085-.522.184-.801.29.088.344.292.656.61.861.664.44 1.56.251 1.996-.422.249-.382.286-.836.154-1.239-.24.045-.51.1-.827.178m-12.496 7.061s1.843-1.353 5.007.453c2.722 1.55 5.012 1.37 5.012 1.37s1.767-.16 1.997 1.21c0 0-1.275-.44-3.602-.413-2.322.028-4.259-1.461-4.259-1.461s-.784-.858-4.155-1.159" fill="#FFF" fill-rule="nonzero"/><path d="M135.384 81.478c1.945 0 3.124.327 3.365.401-.105-.53-.46-.882-1.054-1.048-.46-.128-.899-.09-.903-.09-.024.001-2.33.161-5.03-1.375-1.625-.928-2.892-1.002-3.668-.9-.655.085-1.081.306-1.239.401 3.274.305 4.059 1.125 4.09 1.16.016.011 1.918 1.453 4.174 1.453h.064l.201-.002zm3.438.486l-.045-.016c-.013-.004-1.224-.412-3.393-.412h-.2c-2.302.027-4.257-1.452-4.276-1.467-.006-.005-.207-.218-.815-.465-.56-.228-1.594-.533-3.326-.687l-.076-.007.062-.045c.005-.003.476-.344 1.33-.456.786-.103 2.066-.03 3.708.907 2.683 1.527 4.974 1.369 4.996 1.367.004 0 .452-.039.922.092.627.175 1.01.57 1.105 1.141l.008.048z" fill="#231F20" fill-rule="nonzero"/><path d="M183.667 115.097c-3.24-6.702-5.666-9.217-5.666-9.217s-2.668-2.396-9.286-5.557c0 0 7.642 6.38 10.81 17.132 0 0-7.604-10.25-19.226-13.53 0 0 14.182 7.656 13.338 23.986 0 0-3.209-6.68-6.743-9.317 0 0 7.709 15.536-4.39 28.063 0 0 5.516-15.91-3.133-27.395 0 0 2.511 8.341-1.506 15.509 0 0 1.348-11.434-4.882-17.844 0 0-3.168 4.63-8.873 6.692 0 0 1.807-2.983 1.986-5.076 0 0-2.97 4.128-11.43 5.973 0 0 1.424-3.18 1.82-4.638 0 0-14.657 11.604-33.965 3.214 5.361 5.076 15.32 7.47 16.026 7.63l-.061.03c-.366.172-2.96 1.47-9.727 1.132 0 0 3.698 2.743 8.963 3.31v2.958h-33.34v-26.909c.281.7 1.935 1.39 1.935 1.39l.352-2.317c.554.473 2.933 2.822 6.817 3.367 7.37 1.04 10.383 6.823 10.383 6.823v-2.36s10.764 9.284 21.89 3.252c5.17-2.424 10.165-6.25 12.79-12.5l1.454 2.395s1.66-6.556 4.98-11.472c3.078-4.557 5.824-7.916 6.758-12.18 0 0 7.605 3.805 14.063 9.487 0 0-5.89-8.53-11.885-13.01 0 0 6 2.852 9.362 5.866 0 0-4.216-5.805-8.642-9.62 0 0 11.439 4.963 23.414 20.656 0 0 6.606 8.866 9.483 15.263l-3.869-1.186" fill="#753D0C" fill-rule="nonzero"/><path d="M168.974 100.548s9.293 6.075 14.13 14.377l4.432 1.358-5.042-6.89-5.367-5.896-4.88-2.738-3.273-.21" fill="#753D0C" fill-rule="nonzero"/><path d="M85.238 185.448s-4.954.679-7.405-.32l-.235.544s4.176 3.354 10.927 3.442m-5.518-12.484s-4.953.673-7.407-.32l-.23.54s4.172 3.355 10.926 3.445m6.696 12.553s-4.953.678-7.406-.32l-.233.54s3.248 2.772 7.998 3.147" fill="#231F20" fill-rule="nonzero"/><path d="M105.258 190.468c-3.478-.344-4.772-1.21-4.887-3.332-.042-.844.345-1.614 1.025-2.233-3.125-.165-6.741-1.96-6.85-4.016-.055-1.03.017-2.017 1.002-2.685-1.964-.669-3.892-2.002-3.97-3.51-.068-1.32 1.425-2.454 2.959-3.11-1.296-.73-1.638-1.727-1.697-2.891-.088-1.667 1.982-2.985 4.23-3.469-.91-.685-.957-1.55-1.004-2.498-.085-1.59 1.329-2.922 3.419-3.463l-.802-.291c-.342.036-.675.07-.994.111-.01.002-.021.002-.03.002a57.817 57.817 0 0 0-.946.13 28.6 28.6 0 0 0-2.245.438c-.036.007-.074.014-.107.024-.305.076-.583.154-.851.238a17.61 17.61 0 0 0-.794.264c-.044.017-.089.031-.127.043-.227.09-.435.177-.63.262-.033.015-.062.03-.092.042a8.314 8.314 0 0 0-.46.233l-.102.052c-.158.09-.307.178-.439.265-.01.005-.014.01-.022.015a5.005 5.005 0 0 0-.34.246c-.025.018-.048.034-.07.055a3.228 3.228 0 0 0-.276.243h-.005c-.082.078-.155.161-.22.234a3.007 3.007 0 0 0-.18.23.17.17 0 0 0-.02.028c-.044.062-.081.126-.113.18l-.016.035c-.026.045-.044.088-.061.128a1.071 1.071 0 0 0-.051.136l-.004.015-.017.063-.003.013c0 .01-.003.02-.003.02l3.6 1.292-3.945 1.031c-.024 1.008.627 1.883.627 1.883-3.28.99-3.915 3.46-3.915 3.46l3.51 1.347-2.998 1.233c.454 1.027 1.212 1.36 1.212 1.36-2.716 1.553-2.754 3.03-2.754 3.03l3.888 1.278-2.994 1.311c1.218.97 3.396 1.97 3.396 1.97-1.273 1.205-.744 3.009-.744 3.009l4.094.9-2.617 1.317c.249.21.508.39.77.56.055.034.106.069.16.102.253.154.507.298.766.423l.147.065c.239.113.478.213.717.303.03.012.065.024.1.039.255.09.505.17.748.237.059.016.118.037.176.051.235.061.466.115.681.163l.116.017c.192.037.375.07.548.094.045.004.09.017.131.02a8.4 8.4 0 0 0 .5.056c.048.003.09.008.134.016l.343.02.08.004.196.001h.118c-.825.963-1.382 1.927-1.386 2.583l3.875.195-.96.885-1.365 1.264 1.363.439c4.436 1.23 19.56 3.793 42.405-9.239.272-.876.494-1.862.68-2.885l.764-.501c.108-.031-.65-.77-.544-.803.611-4.123.676-8.363.676-8.363s-7.867 16.173-36.506 17.586" fill="#753D0C" fill-rule="nonzero"/><path d="M174.3 145.77c-1.556 9.072-6.425 16.63-11.746 22.467 4.057-6.71 3.22-12.062 3.22-12.062-6.598 9.952-5.326 14.213-12.197 16.911l1.283-4.761c-3.73 4.822-4.501 10.028-13.772 12.92-.066.438-.138.872-.22 1.304l-.68 2.885c29.918-7.009 31.4-20.946 34.155-23.705 1.341-7.29-.042-15.96-.042-15.96m6.463-24.202c4.172 16.36 1.29 27.906-1.96 34.81a.33.33 0 0 1 .04-.052c.28-.373.562-.74.83-1.112.042-.056.077-.107.115-.16.084-.115.16-.232.24-.347 4.211-7.722 5.583-15.542 5.692-22.18-2.202-6.738-4.957-10.96-4.957-10.96" fill="#753D0C" fill-rule="nonzero"/><path d="M69.446 188.084h-1.309v3.646h-.75v-3.646H66.08v-.621h3.366v.62zm3.105 2.513l1.195-3.134h1.152v4.267h-.752v-3.472h-.02L72.8 191.73h-.516l-1.326-3.472h-.022v3.472h-.75v-4.267h1.152l1.213 3.134z" fill="#231F20" fill-rule="nonzero"/></g></svg>