<?xml version="1.0" encoding="UTF-8"?>
<svg width="200px" height="200px" viewBox="0 0 200 200" version="1.1" xmlns="http://www.w3.org/2000/svg" xmlns:xlink="http://www.w3.org/1999/xlink">
    <!-- Generator: Sketch 51.3 (57544) - http://www.bohemiancoding.com/sketch -->
    <title>cornell</title>
    <desc>Created with Sketch.</desc>
    <defs></defs>
    <g id="cornell" stroke="none" stroke-width="1" fill="none" fill-rule="evenodd">
        <g id="cornell_BGL" transform="translate(3.827751, 0.000000)">
            <g id="cornell" transform="translate(0.000000, -0.961722)">
                <g id="g10" transform="translate(96.093999, 100.866035) scale(-1, 1) rotate(-180.000000) translate(-96.093999, -100.866035) translate(0.116499, 0.366035)">
                    <g id="g12" transform="translate(0.209698, 0.000000)">
                        <path d="M79.4000785,14.7758582 L81.5541437,12.0289512 C82.6061291,10.7238713 84.2187073,9.38927383 86.6917465,8.2655925 C86.6917465,8.2655925 86.8038185,7.82757029 87.0843479,7.14986539 C87.0843479,7.14986539 87.4485236,5.65221802 88.4529774,4.65803339 C105.05524,-8.46062359 138.57105,11.2450257 138.57105,11.2450257 C138.57105,11.2450257 198.501361,22.235258 186.380347,78.6595707 L190.379289,77.3050056 C190.379289,77.3050056 179.980128,110.302615 149.423158,124.590427 C149.423158,124.590427 151.01267,128.617284 147.618823,133.67561 C147.618823,133.67561 151.721216,135.492646 153.031829,138.009608 L166.808526,138.009608 L166.808526,173.150636 L138.271182,200.074641 L55.7766586,200.074641 L27.2383818,173.481945 L27.2383818,127.08369 C27.2383818,127.08369 2.44466014,113.339535 0.175203439,96.7015897 L2.96335997,97.2921735 C2.96335997,97.2921735 -0.642654696,89.4895218 2.96335997,83.7101534 C6.57263662,77.928908 6.07250671,80.0422924 9.19831279,74.162499 C13.1338796,66.7500502 24.2851339,61.3038678 24.2851339,61.3038678 L24.2851339,46.2199299 L53.8078267,16.9819246 L79.0463878,16.9711078 C79.0463878,16.9711078 78.8693094,16.3583037 79.4000785,14.7758582 Z M113.716003,159.056636 C106.966055,161.493586 100.057436,160.676107 100.057436,160.676107 L100.529023,159.517699 C97.7542519,159.720661 92.4570456,158.689193 92.4570456,158.689193 C91.6888516,160.234988 89.3139044,161.657832 89.3139044,161.657832 L113.716003,161.657832 L113.716003,159.056636 Z" id="path14" fill="#231F20" fill-rule="nonzero"></path>
                        <path d="M79.5356833,14.8500273 L81.6732056,12.1240031 C82.8631257,10.6480832 84.573097,9.39633644 86.75419,8.40517864 C86.7963626,8.38591486 86.8273513,8.34888898 86.8390012,8.30379156 C86.8399332,8.29959154 86.9524711,7.8665202 87.2246126,7.20852488 C87.2276416,7.20127457 87.2299716,7.19376615 87.2320686,7.18625774 C87.2355635,7.17149901 87.5988072,5.71791666 88.5594574,4.76709313 C92.302568,1.81074595 97.2570345,0.305946822 103.270942,0.305946822 C103.277,0.305946822 103.282126,0.305946822 103.287951,0.305946822 C108.11823,0.308053871 113.637483,1.27428608 119.692631,3.17814812 C130.011175,6.42183063 138.41098,11.3278764 138.494394,11.3769157 C138.509771,11.3860901 138.526547,11.3924018 138.543789,11.3954287 C138.61299,11.4080756 145.560054,12.7091198 154.114803,16.5541795 C162.003645,20.0997707 172.91307,26.5962162 180.08358,37.4099773 C187.602886,48.7493275 189.671208,62.616902 186.23216,78.6271907 C186.22051,78.6811574 186.238451,78.7370012 186.279226,78.7736048 C186.32,78.8102083 186.376852,78.8219402 186.42881,78.804577 L190.138136,77.5478559 C189.61226,79.0959974 186.898767,86.6506367 181.227133,95.5147907 C175.38145,104.651359 165.107642,117.087877 149.359317,124.451521 C149.286155,124.485778 149.252371,124.571421 149.281962,124.64674 C149.297572,124.686159 150.797846,128.664211 147.493004,133.589967 C147.46784,133.627509 147.460384,133.674436 147.472966,133.717844 C147.485548,133.761487 147.516537,133.797387 147.557544,133.815454 C147.598086,133.833521 151.626852,135.640703 152.897389,138.080703 C152.923718,138.13115 152.975444,138.162592 153.031829,138.162592 L166.656612,138.162592 L166.656612,173.084233 L138.211068,199.921657 L55.836073,199.921657 L27.3902964,173.415073 L27.3902964,127.08369 C27.3902964,127.027846 27.3600066,126.97646 27.3115431,126.949477 C27.2497986,126.91522 21.0484441,123.455248 14.6518374,118.011412 C8.80922967,113.039433 1.61360105,105.356447 0.356414496,96.8963392 L2.93204506,97.4418726 C2.98891984,97.4540737 3.04654021,97.4329563 3.08221218,97.3874366 C3.11807055,97.3419168 3.12536339,97.280207 3.10115491,97.2276481 C3.06538974,97.1504522 -0.427679221,89.4325048 3.09185829,83.7913382 C4.67561464,81.2551361 5.47582249,80.2297681 6.11891988,79.4057195 C6.96435262,78.3223959 7.5752497,77.5396436 9.33219336,74.2347675 C13.1998646,66.950431 24.2401653,61.4958017 24.3513053,61.4416003 C24.4037298,61.4160248 24.4368155,61.3625273 24.4368155,61.3038678 L24.4368155,46.2842208 L53.8700371,17.1347208 L79.0466208,17.1240917 C79.0943853,17.123904 79.1393539,17.1016369 79.1680127,17.0631328 C79.1966714,17.0243706 79.2055253,16.9746743 79.1922444,16.9282159 C79.1910794,16.9241802 79.0435918,16.3284108 79.5356833,14.8500273 Z M103.270942,0 C97.1869021,-0.000274967568 92.1699922,1.52652192 88.3593122,4.53785181 C87.3597514,5.52572468 86.9792659,6.9457538 86.9398893,7.10136571 C86.7234342,7.62601626 86.6074013,8.00490969 86.5642967,8.15606348 C84.3703889,9.16214426 82.6452727,10.4326855 81.4360138,11.9325385 L79.2807836,14.6810879 C79.2700657,14.6949315 79.2616778,14.7104176 79.2560859,14.7268423 C78.8756003,15.8610589 78.8511356,16.5189838 78.8723384,16.8184054 L53.8078267,16.8286825 C53.767984,16.8286825 53.7297724,16.8446144 53.7013466,16.8728648 L24.1786539,46.1108233 C24.1495291,46.1396837 24.1332193,46.1788683 24.1332193,46.2199299 L24.1332193,61.2090741 C23.0847289,61.7379481 12.7954968,67.0630573 9.06443222,74.0902305 C7.32004715,77.3716428 6.7159769,78.1454789 5.88000388,79.2166013 C5.23252613,80.0460466 4.42686613,81.0786884 2.83474516,83.6287341 C-0.391545913,88.7996861 2.11545746,95.6365679 2.70822732,97.0819379 L0.206512527,96.5518907 C0.158820894,96.5410973 0.107943481,96.5554102 0.0717197701,96.5896674 C0.0354957793,96.6236899 0.0180209165,96.6731985 0.0246650089,96.7224725 C1.20358073,105.365128 8.52527518,113.198752 14.4598006,118.248631 C20.4881542,123.378287 26.344136,126.752616 27.0864671,127.173322 L27.0864671,173.481945 C27.0864671,173.524649 27.104175,173.565241 27.1351637,173.594336 L55.6734405,200.187033 C55.7016333,200.213078 55.7384469,200.227625 55.7766586,200.227625 L138.271182,200.227625 C138.309626,200.227625 138.346906,200.212843 138.374866,200.186329 L166.912444,173.262324 C166.943199,173.233463 166.960674,173.192871 166.960674,173.150636 L166.960674,138.009608 C166.960674,137.925373 166.892639,137.856859 166.808526,137.856859 L153.122698,137.856859 C151.900857,135.621462 148.626772,133.979231 147.844132,133.61085 C150.775711,129.129499 149.845816,125.419168 149.610954,124.671142 C165.358348,117.267844 175.635184,104.821707 181.487625,95.6727021 C187.844505,85.7348447 190.497885,77.4338218 190.523981,77.3512293 C190.541222,77.296324 190.526311,77.2362566 190.485769,77.1958989 C190.444761,77.1555412 190.385347,77.1419322 190.330825,77.1599993 L186.584919,78.4289215 C189.963854,62.4442084 187.861514,48.5876619 180.334984,37.2384569 C173.122302,26.3620475 162.157889,19.8330577 154.23037,16.270948 C145.911414,12.5331413 139.103683,11.1908478 138.624872,11.0995736 C138.128354,10.8109454 129.867648,6.05621771 119.783035,2.88604728 C113.698761,0.973290117 108.148985,0.00238305382 103.287951,0 C103.282592,0 103.276767,0 103.270942,0 Z" id="path16" fill="#231F20" fill-rule="nonzero"></path>
                        <path d="M26.9224367,120.22968 L26.9224367,122.36207 C26.9224367,122.36207 11.2559868,112.112848 6.16533306,101.972498 L10.7923443,103.034704 C10.7923443,103.034704 3.13983255,92.4999272 6.43803375,85.1259591 C6.43803375,85.1259591 7.95324213,82.9670549 8.62912232,82.5702821 C9.30444332,82.1760903 11.3939681,79.5197536 12.1430096,77.7789743 C12.1430096,77.7789743 19.484912,64.6817163 34.82852,63.6530634 C34.82852,63.6530634 44.0025777,62.9130151 47.0150071,66.9743641 L44.8250602,67.733418 L47.8256066,69.0211113 C47.8256066,69.0211113 47.8148887,70.2987152 46.6184447,71.4716705 C46.6184447,71.4716705 49.6106032,72.2959538 50.6222799,74.1981639 L48.0968161,75.0883805 L51.0899066,76.3387663 C51.0899066,76.3387663 51.1057505,77.6961471 49.5821775,78.785102 C49.5821775,78.785102 51.9436108,79.3381438 53.0296138,81.6415849 L50.2329405,82.7823948 L53.1857224,83.9424451 C53.1857224,83.9424451 53.0713204,85.3812452 50.3342946,86.7212628 C50.3342946,86.7212628 52.0207331,87.7581281 52.4075095,89.1582129 L48.6436621,90.3447773 L52.1745117,91.7542477 C52.1745117,91.7542477 51.6167148,93.2092379 48.8265654,94.1137673 C48.8265654,94.1137673 50.1565172,95.2867226 50.4685013,96.2848726 L47.128477,97.1197146 L50.2329405,98.8180244 C50.2329405,98.8180244 48.8372833,107.196243 18.1695459,96.1431513 C18.1695459,96.1431513 23.83405,100.498736 27.0650313,102.27565 L27.0650313,115.136627 C27.0650313,115.136627 21.2104475,111.085602 16.6205761,106.743392 C16.6205761,106.743392 21.763468,114.657966 26.9224367,120.22968" id="path18" fill="#91510F"></path>
                        <path d="M27.0650313,107.939342 L27.0650313,113.164495 C23.9016194,109.511651 20.7653051,104.725974 18.2671254,100.055036 C18.2671254,100.055036 22.3472208,104.145949 27.0650313,107.939342" id="path20" fill="#753D0C" fill-rule="nonzero"></path>
                        <path d="M27.0650313,104.497437 L27.0650313,106.14483 C24.0251083,104.020653 23.6879604,102.852859 22.8269634,101.68225 C22.8269634,101.68225 23.3237847,102.417371 27.0650313,104.497437" id="path22" fill="#753D0C" fill-rule="nonzero"></path>
                        <path d="M53.1857224,83.9424451 C53.1857224,83.9424451 53.0713204,85.3812452 50.3342946,86.7212628 C50.3342946,86.7212628 52.0207331,87.7581281 52.4075095,89.1582129 L48.6436621,90.3447773 L52.1745117,91.7542477 C52.1745117,91.7542477 51.6167148,93.2092379 48.8265654,94.1137673 C48.8265654,94.1137673 50.1565172,95.2867226 50.4685013,96.2848726 L47.129642,97.1197146 L50.2343385,98.8180244 C50.2343385,98.8180244 49.5789155,102.676646 39.5427657,101.690228 C42.2474049,101.334986 44.407295,99.9454599 44.7129882,98.1340546 C44.9266472,96.8501156 44.192471,95.6246013 42.8669462,94.7217143 C44.8716598,94.1416892 46.3369833,92.9539517 46.586524,91.468224 C46.8192889,90.090899 45.9462459,88.7748145 44.4252359,87.8580838 C46.0625118,87.2264384 47.2240061,86.1414723 47.4420921,84.8345387 C47.7405624,83.0456587 46.1825057,81.3532148 43.7346302,80.5193114 C44.5540837,79.9181689 45.1018616,79.1619306 45.2444563,78.3066752 C45.5701873,76.3455708 43.6789437,74.5109364 40.8286809,73.7802737 C41.474551,73.2246509 41.8520075,71.7358729 41.9761954,70.9908972 C42.2746656,69.1989669 40.4419044,68.6126066 37.987971,67.7747143 C37.987971,67.7747143 29.7417108,66.6165412 20.1324829,72.4067029 C20.3088623,72.4362673 20.4999905,72.5003234 20.4999905,72.5003234 L24.8846374,73.4355905 C24.8846374,73.4355905 16.3398836,73.7455473 11.0755998,82.7814563 C11.0755998,82.7814563 11.15186,80.9843639 12.0486222,78.9268234 L12.1430096,77.7789743 C12.1430096,77.7789743 19.484912,64.6817163 34.82852,63.6530634 C34.82852,63.6530634 44.0060727,62.9130151 47.0150071,66.9743641 L44.8264582,67.733418 L47.8256066,69.0211113 C47.8256066,69.0211113 47.8148887,70.2987152 46.6184447,71.4716705 C46.6184447,71.4716705 49.6106032,72.2959538 50.6222799,74.1981639 L48.0984471,75.0883805 L51.0899066,76.3387663 C51.0899066,76.3387663 51.1071485,77.6961471 49.5821775,78.785102 C49.5821775,78.785102 51.9436108,79.3381438 53.0296138,81.6415849 L50.2343385,82.7823948 L53.1857224,83.9424451" id="path24" fill="#753D0C" fill-rule="nonzero"></path>
                        <path d="M56.2004817,22.6977529 L28.5338499,50.0318587 L28.5338499,60.0053812 C28.5338499,60.0053812 47.351922,55.7115059 52.2064324,66.9356489 C52.2064324,66.9356489 56.9765975,67.125471 59.1451086,69.1747992 L58.998553,69.7107124 C58.998553,69.7107124 56.5110678,68.9345299 52.7045818,69.8695623 C52.7045818,69.8695623 55.3805622,72.0486453 55.7076912,74.817139 C55.7076912,74.817139 59.9298454,75.0843916 61.9571598,76.9973952 L61.8117691,77.5307273 C61.8117691,77.5307273 58.773011,76.8437073 55.616589,77.6708062 C55.616589,77.6708062 57.1359681,79.8712413 57.3135124,82.1652969 C57.3135124,82.1652969 61.7887023,82.6596792 63.3959216,84.5114422 L63.2335221,85.0405508 C63.2335221,85.0405508 61.167064,84.4436318 57.2923096,84.9551426 C57.2923096,84.9551426 56.9807915,86.5983125 56.2808659,87.2531871 C56.2808659,87.2531871 57.1657918,89.3827615 57.0092172,90.4623309 C57.0092172,90.4623309 62.2463101,92.0388636 63.5284973,95.0075034 L63.2062613,95.4645782 C63.2062613,95.4645782 61.7528207,94.1177562 56.0884097,93.6128152 C56.0884097,93.6128152 55.5809404,94.8805643 54.7551959,95.4751369 C54.7551959,95.4751369 55.0914119,97.0167085 55.0818589,97.7637959 C55.0818589,97.7637959 59.64652,99.6061734 60.6700796,101.949503 L60.3429506,102.407986 C60.3429506,102.407986 57.8820272,100.75238 54.310636,100.616055 C54.310636,100.616055 52.5160865,108.929045 33.0658912,103.950965 L33.0658912,170.717675 L58.1045402,194.241541 L136.064459,194.241541 L161.032044,170.566568 L161.032044,144.513538 L153.841497,144.513538 C153.841497,144.513538 154.15185,152.841075 146.321724,156.369796 C138.867889,159.726058 132.940191,153.451603 132.152192,151.904635 C132.152192,151.904635 128.227576,155.35311 121.899354,155.081868 C121.899354,155.081868 119.574967,156.804111 118.402289,157.572316 L118.402289,167.295949 L81.8246543,167.295949 C81.8246543,167.295949 71.2050778,170.494768 65.4761265,159.551018 C60.0332965,149.155147 68.3881337,141.293836 69.2672346,140.732582 C69.2672346,140.732582 60.5580076,130.568064 63.997522,115.564138 L65.7839166,116.162465 C65.7839166,116.162465 65.8955226,113.44653 65.6135952,109.955351 C65.3288718,106.460184 67.0122813,99.3562839 74.0273809,94.8446646 L74.5404422,96.1267266 C74.5404422,96.1267266 75.2196309,95.4537849 75.6805007,95.0661629 L75.6805007,56.387498 L118.396697,56.387498 L118.396697,71.8616388 L145.753675,71.8616388 C145.753675,71.8616388 153.541395,53.1114824 135.148078,45.2367968 L135.171844,47.0674424 C135.171844,47.0674424 129.313113,43.8247453 123.032423,42.7144384 C123.032423,42.7144384 83.9134801,50.1294681 81.4061901,38.490016 C81.4061901,38.490016 79.8479004,38.3175571 76.0456083,40.0050735 L75.6930826,39.5294623 C75.6930826,39.5294623 75.7448081,36.8649133 80.9166616,35.4343254 C80.9166616,35.4343254 78.4515442,33.5837356 77.9391819,30.3117088 C77.9391819,30.3117088 74.0506807,30.2464795 71.8940525,31.7880511 L71.5433907,31.3126745 C71.5433907,31.3126745 72.9781915,28.4266272 77.5141939,26.9542738 C77.5141939,26.9542738 76.0302305,24.1674784 76.7541548,21.7983386 C77.4724872,19.42941 76.7541548,21.7983386 76.7541548,21.7983386 L56.2004817,22.6977529" id="path26" fill="#E22739" fill-rule="nonzero"></path>
                        <path d="M57.5106286,195.807515 L31.5744719,171.431209 L31.5744719,103.68512 C31.9374826,103.781556 33.0658912,104.033792 33.0658912,104.033792 L33.0658912,170.717675 L58.1045402,194.241541 L136.064459,194.241541 L161.032044,170.566568 L161.032044,144.513538 L153.841497,144.513538 C153.841497,144.513538 153.727328,143.384695 153.61712,142.931609 L162.589634,142.931609 L162.589634,171.408214 L136.628547,195.807515 L57.5106286,195.807515" id="path28" fill="#FFFFFF" fill-rule="nonzero"></path>
                        <path d="M145.753675,71.8616388 L119.45544,71.8616388 L119.45544,56.387498 L74.3286471,56.387498 L74.3286471,96.4533427 C74.3286471,96.4533427 75.4631137,95.2799181 75.977806,94.7402507 L75.977806,57.9745894 L117.847987,57.9745894 L117.847987,73.4491995 L145.169782,73.4491995 C145.169782,73.4491995 145.524172,72.8184926 145.753675,71.8616388" id="path30" fill="#FFFFFF" fill-rule="nonzero"></path>
                        <path d="M81.7165432,167.295949 C81.7165432,167.295949 83.1462181,166.772237 84.2543559,165.767517 L117.798359,165.767517 L117.798359,157.775512 C117.798359,157.775512 118.762737,157.328996 119.466157,156.820066 L119.466157,167.295949 L81.7165432,167.295949" id="path32" fill="#FFFFFF" fill-rule="nonzero"></path>
                        <path d="M30.1823097,49.4013865 L56.3491343,23.4215408 L75.3673516,23.4072513 C76.1045568,23.1519886 77.0304903,21.8879703 77.0304903,21.8879703 C76.8925556,21.6754118 76.6595577,21.8464394 76.6595577,21.8464394 L55.7195741,21.8398461 L28.5338499,48.8361435 L28.5338499,60.0053812 C28.5338499,60.0053812 29.5688263,59.8798498 30.1823097,59.8892354 L30.1823097,49.4013865" id="path34" fill="#FFFFFF" fill-rule="nonzero"></path>
                        <path d="M136.89929,15.4560503 C108.929295,-0.851754677 92.2664533,6.17050988 92.2664533,6.17050988 L94.591539,8.31911342 L90.7156196,8.51405066 C90.7156196,8.51405066 90.6976787,9.46792449 92.1021898,11.0941535 C92.1021898,11.0941535 88.3930969,11.0099184 85.6707499,13.268051 L88.2882479,14.5851444 L84.1940095,15.4856381 C84.1940095,15.4856381 83.6646383,17.2893473 84.9377387,18.4946122 C84.9377387,18.4946122 82.7599077,19.4937477 81.5420278,20.4639054 L84.5365163,21.7756022 L80.6477821,23.052901 C80.6477821,23.052901 80.6857607,24.530698 83.4020498,26.0832976 C83.4020498,26.0832976 82.6438747,26.4160143 82.1902279,27.4430247 L85.1872794,28.6765167 L81.6780986,30.0233387 C81.6780986,30.0233387 82.3134838,32.4933729 85.5933946,33.4837798 C85.5933946,33.4837798 84.9423986,34.3585102 84.9663974,35.3660458 L88.9105852,36.3975144 L85.3112342,37.6894312 C85.3112342,37.6894312 85.8126456,42.4326381 104.260717,41.5614273 C117.449561,40.9415137 123.207404,38.3175571 123.207404,38.3175571 C123.207404,38.3175571 131.109759,40.5259698 132.313892,41.2969903 L132.024975,39.6183901 C132.024975,39.6183901 163.685656,46.5395069 147.284704,81.4414387 C145.04373,92.1587636 147.09784,94.2245164 147.09784,94.2245164 C151.11915,101.39388 155.216883,81.1420406 155.216883,81.1420406 C163.865997,69.6574495 158.349772,53.7473513 158.349772,53.7473513 C170.448885,66.2742044 162.739685,81.810055 162.739685,81.810055 C166.274029,79.1738972 169.483342,72.4937536 169.483342,72.4937536 C170.327027,88.8229153 156.14468,96.4798568 156.14468,96.4798568 C167.766614,93.1986791 175.370965,82.9496917 175.370965,82.9496917 C172.203126,93.7019776 164.561262,100.081785 164.561262,100.081785 C171.178867,96.9207416 173.846926,94.5239145 173.846926,94.5239145 C169.194192,100.875565 164.602503,104.049982 164.602503,104.049982 C167.876589,102.780591 172.533517,100.162265 173.65214,99.524754 C180.137169,91.1143899 183.381897,84.1212392 183.381897,84.1212392 L178.950744,85.4797932 C178.950744,85.4797932 204.710055,33.4553886 136.89929,15.4560503" id="path36" fill="#91510F" fill-rule="nonzero"></path>
                        <path d="M137.519997,143.603847 C137.519997,143.844351 137.59733,144.080866 137.79333,144.311984" id="path38" fill="#231F20" fill-rule="nonzero"></path>
                        <path d="M124.780839,150.779781 C127.649275,150.440494 135.896467,148.52444 141.521502,137.86554 C141.521502,137.86554 142.922518,134.739224 143.21959,133.654023 C143.21959,133.654023 144.139233,131.059631 144.843818,129.736976 C145.71523,128.106712 145.501338,125.074016 144.917912,123.079358 C144.917912,123.079358 143.511537,118.856109 143.978464,116.571439 C144.449586,114.286769 142.866831,109.89106 141.282679,108.021934 C141.282679,108.021934 136.416286,101.253567 135.657179,98.2089042 L135.012707,99.7183304 C135.012707,99.7183304 133.447194,97.5167221 131.696914,93.7744808 C129.9471,90.0268428 127.392279,85.4295806 122.156584,83.0900052 C122.156584,83.0900052 122.875848,85.4797932 122.97394,86.689352 C122.97394,86.689352 122.240463,84.4795314 119.473846,81.9008599 C119.473846,81.9008599 117.991048,80.2443157 113.583427,80.7891451 C109.177904,81.3346784 105.446676,83.4400851 105.446676,83.4400851 C105.446676,83.4400851 103.556365,84.1932731 103.267214,87.3653441 C103.267214,87.3653441 103.052157,92.7362077 101.432356,94.6494458 C101.432356,94.6494458 101.584737,89.5512316 100.533916,86.0534831 C100.533916,86.0534831 98.7745495,88.7170935 94.8888442,89.585958 C91.0047699,90.4489565 86.1947621,92.0283048 83.5765652,95.9319771 C83.5765652,95.9319771 82.2179546,94.0055992 82.0394783,93.1796735 C82.0394783,93.1796735 80.0303377,96.1884364 77.7709575,97.8215168 C75.5141402,99.4501391 73.8151198,104.226195 73.8151198,104.226195 C73.8151198,104.226195 72.6417426,102.470869 72.278266,101.310818 C72.278266,101.310818 68.9347467,104.290486 69.3900245,111.820254 C69.8418073,119.347675 69.8418073,121.553507 69.3900245,123.086162 C69.3900245,123.086162 67.8536366,122.049063 67.0390761,121.286489 C67.0390761,121.286489 65.8377391,132.315413 77.2229465,143.800239 C77.2229465,143.800239 75.5586428,143.233823 73.8423806,142.025906 C70.1137158,143.833558 67.5286046,147.706961 67.5286046,152.155932 C67.5286046,158.341694 72.5077688,163.358723 78.6498254,163.358723 C84.3023535,163.358723 88.9688346,159.111306 89.6780801,153.612096 L90.0483137,153.78737 C90.0483137,153.78737 94.3781129,157.043207 103.710143,156.865586 L103.095961,157.759088 C103.095961,157.759088 119.832197,158.37642 126.771106,144.496175 C126.771106,144.496175 127.036258,147.488983 124.780839,150.779781" id="path40" fill="#91510F"></path>
                        <path d="M101.432356,94.7259378 C101.454025,94.7259378 101.475228,94.7163177 101.49014,94.6991891 C103.10831,92.787828 103.334318,87.5887194 103.343172,87.3681597 C103.623934,84.2894746 105.456229,83.5186888 105.474636,83.5111804 C105.521003,83.4858395 109.253395,81.4022542 113.592747,80.8651678 C117.041116,80.4383613 118.910225,81.3895837 119.417694,81.952011 C122.140274,84.4903248 122.894488,86.6916984 122.901711,86.7135197 C122.91406,86.7503579 122.951572,86.7731178 122.989085,86.7642015 C123.026598,86.7564585 123.052693,86.7214974 123.049665,86.6830168 C122.966484,85.6611683 122.438511,83.7859415 122.276345,83.228207 C127.222889,85.5023184 129.779575,89.8473447 131.62818,93.8070955 C133.361451,97.5129679 134.935351,99.7408556 134.950962,99.7629116 C134.966806,99.7852022 134.993601,99.7969341 135.020862,99.7943531 C135.048122,99.7915374 135.071655,99.7737049 135.082373,99.7485987 L135.641335,98.4397879 C136.555152,101.555311 141.173403,108.000348 141.221168,108.06675 C142.794835,109.924144 144.371299,114.290288 143.904138,116.555718 C143.438375,118.834757 144.788365,122.930363 144.846148,123.10376 C145.438429,125.128921 145.615973,128.131114 144.776948,129.700842 C144.077721,131.013407 143.15738,133.602403 143.148293,133.628447 C142.85425,134.700743 141.466281,137.802892 141.452301,137.833864 C136.010636,148.144796 128.213829,150.257946 124.937879,150.68311 C127.081692,147.461999 126.849161,144.51917 126.846598,144.489371 C126.843569,144.455348 126.818638,144.427426 126.785319,144.421091 C126.752233,144.414521 126.718216,144.43118 126.703071,144.461918 C123.13168,151.606176 116.906909,154.820247 112.313822,156.258108 C107.843292,157.657959 104.006982,157.693154 103.239022,157.685411 L103.772354,156.908994 C103.788896,156.88553 103.790527,156.854558 103.777014,156.829452 C103.7635,156.804111 103.734841,156.793552 103.708745,156.789094 C98.9029313,156.879664 95.4508351,156.041303 93.4046479,155.32073 C91.1923332,154.541966 90.1044662,153.734108 90.0937483,153.725895 L89.7104668,153.542878 C89.688565,153.532319 89.6629352,153.533257 89.6417324,153.544989 C89.6202966,153.556721 89.6058508,153.578073 89.6028218,153.602241 C88.8910133,159.120692 84.1823596,163.282231 78.6498254,163.282231 C72.5594944,163.282231 67.6045619,158.291012 67.6045619,152.155932 C67.6045619,147.9057 70.0487094,143.969178 73.8356236,142.11413 C75.5281201,143.297175 77.1819389,143.867111 77.1987148,143.872742 C77.2322664,143.884474 77.2688471,143.870865 77.2874869,143.840597 C77.3061268,143.810563 77.3016998,143.771378 77.276769,143.746272 C71.4103489,137.828467 68.9599104,132.039479 67.9370498,128.224969 C66.9763997,124.641343 67.0609779,122.08285 67.1024515,121.44792 C67.9340209,122.19313 69.33294,123.13966 69.3476189,123.149749 C69.3678897,123.163124 69.3932865,123.166174 69.4156543,123.158196 C69.438488,123.149749 69.4559629,123.131213 69.4629528,123.107984 C69.9172986,121.565708 69.9179976,119.349552 69.4657488,111.815796 C69.2320519,107.947789 70.0230797,105.313039 70.7278982,103.783668 C71.3490705,102.435908 72.0138134,101.686943 72.2444813,101.450663 C72.6424416,102.602266 73.7056108,104.199212 73.7522104,104.2689 C73.7680543,104.292598 73.794616,104.307146 73.8246728,104.301983 C73.8530985,104.298699 73.8768643,104.279224 73.8866502,104.252006 C73.903659,104.204374 75.6038444,99.4797035 77.8152271,97.8836959 C79.787088,96.4585047 81.5876954,93.9631297 82.0096546,93.3575291 C82.2992709,94.2470417 83.4623962,95.9019434 83.5148207,95.9763237 C83.5292666,95.9967372 83.5521004,96.0028378 83.5774971,96.0087037 C83.6024279,96.0082344 83.6257277,95.9957986 83.6394746,95.9749158 C86.3315318,91.9609637 91.3584607,90.4487219 94.9051541,89.6605729 C98.287584,88.9043346 100.091686,86.768425 100.504559,86.223361 C101.49247,89.6645617 101.357797,94.5968869 101.356166,94.6470995 C101.355234,94.6797141 101.374806,94.7090439 101.404862,94.7205412 C101.413716,94.7242954 101.423036,94.7259378 101.432356,94.7259378 Z M115.296661,80.6014347 C114.779638,80.6014347 114.207163,80.6349879 113.574108,80.713357 C109.204233,81.2541976 105.446909,83.3523305 105.40963,83.3734479 C104.750013,83.6355386 103.423556,84.8122481 103.19149,87.3583049 C103.18916,87.4139141 102.972239,92.4168654 101.512274,94.4237241 C101.526021,93.3915516 101.522992,89.0814863 100.606612,86.0311924 C100.597991,86.0030359 100.574225,85.9821531 100.5451,85.9779296 C100.514578,85.9722983 100.487084,85.9866112 100.470774,86.0110136 C100.453066,86.037293 98.6808844,88.6598419 94.8723014,89.5111085 C91.3272389,90.2990229 86.312659,91.8068066 83.5758662,95.7975295 C83.3076856,95.4084997 82.2650202,93.8643471 82.1135716,93.1634834 C82.1072807,93.1334498 82.0837479,93.1102206 82.0536911,93.1045893 C82.0227024,93.098958 81.9933447,93.1116285 81.9765689,93.1369694 C81.956531,93.167003 79.9487885,96.1534754 77.7266879,97.7593378 C75.6965776,99.2244174 74.1014742,103.249867 73.796247,104.058195 C73.5243385,103.637254 72.6510625,102.246789 72.3507283,101.288059 C72.3430394,101.263187 72.3232345,101.244181 72.2985368,101.237142 C72.273839,101.230572 72.2472772,101.236438 72.2279384,101.253567 C72.1932217,101.284539 71.3712053,102.028341 70.5946234,103.709757 C69.880252,105.256022 69.0780404,107.919397 69.3143002,111.824947 C69.7551321,119.173105 69.765384,121.444166 69.3459879,122.963681 C69.010704,122.733502 67.7814073,121.877073 67.0908016,121.230411 C67.0695988,121.210936 67.0395421,121.20507 67.0125143,121.21469 C66.9857196,121.224779 66.9668468,121.249416 66.9635848,121.278042 C66.9605558,121.305964 66.6746674,124.097687 67.7883972,128.256645 C68.8007729,132.037602 71.2074078,137.747517 76.9247093,143.605724 C76.3589905,143.380002 75.1301598,142.838927 73.8859512,141.963258 C73.8633504,141.947303 73.8342257,141.944722 73.8095279,141.956923 C69.9480544,143.829099 67.4526473,147.832493 67.4526473,152.155932 C67.4526473,158.375247 72.4756151,163.435215 78.6498254,163.435215 C84.2238332,163.435215 88.9730286,159.268748 89.7395915,153.725661 L90.015927,153.856589 C90.01383,153.856823 91.1205698,154.678525 93.3547863,155.465267 C95.3914206,156.18232 98.8053052,157.014347 103.563588,156.944659 L103.03375,157.71568 C103.017674,157.738674 103.015577,157.768473 103.028158,157.793345 C103.040507,157.818451 103.065438,157.834641 103.093165,157.83558 C103.135337,157.837222 107.347939,157.972374 112.354131,156.405696 C116.919258,154.97722 123.086944,151.804445 126.703304,144.796981 C126.70144,145.626896 126.527158,148.097399 124.718395,150.736373 C124.701619,150.76101 124.700454,150.79339 124.715832,150.8192 C124.731443,150.844775 124.759869,150.859323 124.789926,150.855803 C126.184418,150.690618 128.99577,150.134057 132.15592,148.258361 C135.988502,145.98378 139.162165,142.499171 141.588605,137.90144 C141.64802,137.769104 142.997543,134.752833 143.292985,133.674436 C143.30044,133.654023 144.216821,131.075586 144.910689,129.773111 C145.77814,128.150354 145.607585,125.166698 144.99084,123.057771 C144.975928,123.012955 143.595416,118.825137 144.052791,116.586925 C144.527873,114.282545 142.931838,109.849999 141.340462,107.972191 C141.295494,107.909543 136.477797,101.185756 135.731039,98.1901331 C135.722884,98.158457 135.695623,98.1352278 135.66347,98.1324122 C135.632481,98.1319429 135.600327,98.1483676 135.587279,98.1786359 L134.996863,99.5615922 C134.659948,99.0674446 133.274077,96.9671999 131.765648,93.7418661 C129.886288,89.7166514 127.278576,85.2948984 122.187339,83.0200831 C122.160079,83.0083512 122.128391,83.013044 122.106256,83.0327536 C122.083888,83.0524632 122.075267,83.08367 122.083888,83.1122958 C122.090179,83.132944 122.620948,84.9046955 122.827851,86.1525003 C122.443404,85.3446417 121.492773,83.6784773 119.525572,81.8445468 C119.476875,81.7898761 118.371533,80.6014347 115.296661,80.6014347 Z" id="path42" fill="#231F20" fill-rule="nonzero"></path>
                        <path d="M87.0347194,151.801864 C84.0693556,149.887218 78.7360346,145.798885 78.7360346,145.798885 C78.9403738,146.61918 79.9958541,148.626038 79.9958541,148.626038 C76.4407727,146.846309 74.2140122,144.80754 74.2140122,144.80754 C74.2140122,144.80754 71.2435225,146.392285 70.9303733,151.410488 C70.6197872,156.431271 74.8925019,158.659863 74.8925019,158.659863 C74.3691887,159.234491 72.5315346,159.641823 72.5315346,159.641823 C72.5315346,159.641823 78.5617522,162.232461 82.7645676,158.702332 C86.966218,155.175254 86.1880052,151.56793 86.1880052,151.56793" id="path44" fill="#231F20" fill-rule="nonzero"></path>
                        <path d="M101.097771,145.929813 C101.097771,145.929813 108.228671,146.740722 110.53465,145.320458 C112.831077,143.901837 115.594898,139.8067 115.594898,139.8067 C115.594898,139.8067 121.352974,129.690049 128.251575,129.95472 C128.251575,129.95472 127.680963,129.178303 127.219394,129.163756 C127.219394,129.163756 129.043767,127.841101 133.316948,133.162691 C136.886009,137.602276 138.841327,135.417797 138.841327,135.417797 C138.841327,135.417797 137.806584,140.222244 131.360465,135.132008 C131.360465,135.132008 133.318346,137.683696 133.43368,141.347333 C133.43368,141.347333 130.209689,134.981135 126.297189,135.369696 C126.297189,135.369696 125.263843,135.439149 123.650566,138.715164 C122.040085,141.99118 119.160697,147.909923 113.639114,148.561748 C113.639114,148.561748 117.09121,147.399586 121.11951,137.755964 L117.550216,142.247639 C117.550216,142.247639 113.639114,149.100476 106.16198,147.629531 C106.16198,147.629531 102.594549,146.955885 101.097771,145.929813" id="path46" fill="#753D0C" fill-rule="nonzero"></path>
                        <path d="M139.66148,129.173141 C139.66148,129.173141 140.446683,124.451521 136.867603,120.713268 C136.867603,120.713268 140.035441,120.866722 141.330444,123.657975 C142.627776,126.447586 139.66148,129.173141 139.66148,129.173141" id="path48" fill="#753D0C" fill-rule="nonzero"></path>
                        <path d="M117.688384,129.020627 C117.688384,129.020627 121.233679,131.521868 124.109572,129.55654 L126.858481,127.422742 L126.33074,127.195847 C126.33074,127.195847 123.892185,128.718882 121.941993,128.850983 C119.988772,128.984727 118.571679,128.724044 117.950972,128.57458 L117.688384,129.020627" id="path50" fill="#231F20" fill-rule="nonzero"></path>
                        <path d="M121.233679,126.297887 C121.233679,126.297887 123.847216,128.344869 126.505722,125.584353 L125.974953,125.357224 C125.974953,125.357224 123.336019,126.42905 121.530518,125.858176 L121.233679,126.297887" id="path52" fill="#231F20" fill-rule="nonzero"></path>
                        <path d="M130.146313,105.094825 C129.886521,105.540872 128.13228,106.935795 128.13228,106.935795 C125.986836,108.522886 126.112887,109.914055 126.112887,109.914055 C124.168054,108.396182 119.180735,109.244633 117.728226,109.639998 C116.282009,110.035363 112.907035,110.389666 112.907035,110.389666 C100.513879,110.820931 102.688681,102.922312 102.688681,102.922312 C102.688681,102.922312 103.605527,105.315385 104.429175,105.730694 C104.429175,105.730694 106.092779,100.027114 105.936438,93.7385812 C105.771941,87.4495791 106.143107,85.8620185 110.130166,84.9241704 C110.130166,84.9241704 108.604496,86.2111598 108.449087,87.2330082 C108.449087,87.2330082 110.872963,85.4014241 116.222361,85.0299921 C121.571759,84.6531635 122.952737,88.1443422 122.952737,88.1443422 C122.952737,88.1443422 124.393596,91.9236563 124.77548,93.5405467 C125.157829,95.1572025 125.378012,98.0751605 127.70636,101.304249 C130.034707,104.528409 130.146313,105.094825 130.146313,105.094825" id="path54" fill="#231F20" fill-rule="nonzero"></path>
                        <path d="M112.99837,108.763625 C112.99837,108.763625 121.803592,106.740576 124.831166,107.842905 C124.831166,107.842905 125.791816,106.746207 126.8452,106.217099 C127.89369,105.690806 128.341978,104.813025 127.610831,103.500929 C127.610831,103.500929 127.004337,102.044297 125.664599,101.039812 C125.664599,101.039812 125.058106,100.360769 125.058106,101.256382 C125.058106,101.256382 125.505462,103.600885 125.563944,104.287905 C125.563944,104.287905 125.664599,104.888813 125.11822,104.418599 C125.11822,104.418599 124.740996,103.898875 124.26102,104.031211 L123.847216,104.160966 C123.847216,104.160966 123.493758,104.210475 123.398462,104.891629 C123.398462,104.891629 123.526145,105.372637 122.952737,104.993227 C122.952737,104.993227 122.634462,104.474912 122.092975,104.54413 L121.520034,104.701807 C121.520034,104.701807 121.193604,104.747326 121.135121,105.434112 C121.135121,105.434112 121.135121,105.880393 120.620662,105.531487 C120.620662,105.531487 120.303552,105.043674 119.919804,105.145272 L119.315175,105.302949 C119.315175,105.302949 118.935621,105.440916 118.903934,105.97636 C118.870382,106.5111 118.521584,106.25863 118.293712,106.128875 C118.293712,106.128875 118.009455,105.699722 117.559769,105.773164 L117.016884,105.901745 C117.016884,105.901745 116.605876,106.094148 116.542267,106.571168 L116.475863,106.926409 C116.475863,106.926409 116.380101,107.788235 115.581617,106.833024 C115.581617,106.833024 114.530564,105.420737 113.984184,104.624376 C113.984184,104.624376 112.99837,103.301956 112.840397,104.549761 C112.840397,104.549761 112.487872,106.444228 112.99837,108.763625" id="path56" fill="#FFFFFF" fill-rule="nonzero"></path>
                        <path d="M111.371812,91.7662142 C111.371812,91.7662142 110.999015,91.2997539 110.733631,91.884941 C110.733631,91.884941 110.327748,92.9877396 110.181892,94.1499016 L109.961709,95.4031031 C109.961709,95.4031031 109.860821,96.6349525 109.216349,95.6567467 C109.216349,95.6567467 107.499387,93.3868588 108.151781,90.2912798 C108.151781,90.2912798 108.506404,89.3747838 109.365933,89.4097449 C109.365933,89.4097449 110.338466,89.3905046 110.707302,90.0749436 C110.707302,90.0749436 110.778832,89.3801805 111.521862,89.1851963 C111.521862,89.1851963 112.309861,88.9472734 113.113704,89.7863388 C113.113704,89.7863388 113.084579,89.029866 113.998863,88.7307025 C113.998863,88.7307025 114.684808,88.5408804 115.252391,89.2731856 C115.252391,89.2731856 115.345357,88.4878522 116.165044,88.2710467 C116.165044,88.2710467 116.876619,88.1471578 117.249183,88.6612497 C117.249183,88.6612497 117.335159,88.0305428 117.871287,87.867704 C117.871287,87.867704 118.371766,87.7140161 118.863625,88.1443422 C118.863625,88.1443422 118.870382,87.3531429 119.394627,87.2717235 C119.394627,87.2717235 120.023488,87.0513984 120.616235,87.8836594 C120.616235,87.8836594 122.040085,89.436259 122.570621,92.2901608 C122.570621,92.2901608 122.724632,93.4377753 121.955274,92.479983 C121.955274,92.479983 120.418886,90.3501739 119.718028,89.6819249 C119.718028,89.6819249 119.266944,89.4493987 119.283254,89.8797248 C119.283254,89.8797248 119.354551,90.2391902 118.996201,90.3687103 L118.512031,90.5399961 C118.512031,90.5399961 118.12642,90.7401423 117.900645,90.4463755 C117.900645,90.4463755 117.579341,89.9810884 117.470531,90.3804422 C117.470531,90.3804422 117.489637,90.7614943 117.157615,90.9163554 L116.542267,91.0836523 C116.542267,91.0836523 116.213041,91.1420772 115.985169,90.895238 L115.837915,90.7722877 C115.837915,90.7722877 115.536416,90.4757053 115.403607,90.9433388 C115.403607,90.9433388 115.472807,91.304212 115.117252,91.4349054 L114.347893,91.6432639 C114.347893,91.6432639 114.03987,91.7263258 113.787767,91.4311512 L113.640745,91.2561112 C113.640745,91.2561112 113.31548,90.9365343 113.258395,91.4590731 C113.258395,91.4590731 113.328761,91.844114 112.840397,91.9907628 L112.023274,92.1963056 C112.023274,92.1963056 111.673078,92.2312667 111.371812,91.7662142" id="path58" fill="#FFFFFF" fill-rule="nonzero"></path>
                        <path d="M95.8837451,93.1475281 C91.3318989,95.6168583 88.8826254,101.611624 88.8826254,101.611624 L87.8658227,97.8585896 C84.4826938,103.194727 82.4567774,109.976703 82.4567774,117.365219 C82.4567774,125.202128 84.7333995,132.360933 88.494684,137.825417 C88.494684,137.825417 86.6127603,138.095251 85.2853715,138.044334 C85.2853715,138.044334 87.1253556,140.526804 92.2596964,141.006404 C92.2596964,141.006404 91.1692664,138.728539 91.4122832,136.787144 C91.4122832,136.787144 93.3524563,137.854747 94.2306253,137.809227 C94.2306253,137.809227 89.1195842,131.09553 99.2589521,125.159658 C99.2589521,125.159658 91.0366906,133.898516 99.378247,141.675827 C99.378247,141.675827 95.8718622,141.472865 94.6001599,140.462748 C94.6001599,140.462748 95.5083855,143.335421 96.3159561,144.540287 C96.3159561,144.540287 84.2904706,145.628069 78.4214875,134.227478 L80.7479711,135.003426 C77.9752966,128.971353 76.951038,121.52277 78.2870478,113.800599 C78.8926092,110.289241 79.9452935,106.999851 81.3437467,104.006105 C79.3171313,105.39657 78.0214302,107.609206 78.0214302,107.609206 C72.3537573,115.73777 75.0928801,128.4223 75.0928801,128.4223 L71.7973584,126.380715 C70.5018903,133.806538 75.4596187,142.031303 75.4596187,142.031303 C65.1536574,130.628131 67.0390761,121.286489 67.0390761,121.286489 C67.8536366,122.049063 69.3900245,123.086162 69.3900245,123.086162 C69.8418073,121.553507 69.8418073,119.347675 69.3900245,111.820254 C68.9347467,104.290486 72.278266,101.310818 72.278266,101.310818 C72.6417426,102.470869 73.8151198,104.226195 73.8151198,104.226195 C73.8151198,104.226195 75.5141402,99.4501391 77.7709575,97.8215168 C80.0303377,96.1884364 82.0394783,93.1796735 82.0394783,93.1796735 C82.2179546,94.0055992 83.5765652,95.9319771 83.5765652,95.9319771 C86.1947621,92.0283048 91.0047699,90.4489565 94.8888442,89.585958 C98.7745495,88.7170935 100.533916,86.0534831 100.533916,86.0534831 C100.555119,86.1269247 100.572361,86.2017743 100.59636,86.2749813 C99.9544507,88.5408804 98.617043,91.664616 95.8837451,93.1475281" id="path60" fill="#753D0C" fill-rule="nonzero"></path>
                        <path d="M112.585964,127.020572 C112.585964,127.020572 110.173737,125.875774 105.026348,124.547723 C105.026348,124.547723 105.424075,124.039966 107.921113,123.831607 C107.921113,123.831607 107.435313,123.059179 105.184088,121.541541 C102.930066,120.025075 98.4199268,115.713602 98.4199268,111.872344 C98.4199268,111.872344 99.6289527,112.747543 100.349382,113.076271 C100.349382,113.076271 98.3407075,107.04936 100.433028,102.98496 C100.433028,102.98496 100.918829,111.96878 106.148699,117.664382 C106.148699,117.664382 103.894677,117.049631 103.413071,116.730523 C103.413071,116.730523 104.460862,118.276084 108.079086,121.200846 C113.071298,125.234273 112.585964,127.020572 112.585964,127.020572" id="path62" fill="#231F20" fill-rule="nonzero"></path>
                        <path d="M100.349382,113.076271 C99.6289527,112.747543 98.4199268,111.872344 98.4199268,111.872344 C98.4199268,115.713602 102.930066,120.025075 105.184088,121.541541 C107.435313,123.059179 107.921113,123.831607 107.921113,123.831607 C107.178083,123.894256 106.628907,123.981072 106.21487,124.074692 C104.92546,123.621841 103.150249,123.075369 101.265064,122.736083 L102.701728,122.206739 C102.701728,122.206739 95.236244,118.511426 95.3662568,110.203833 L97.5911534,111.39157 C97.5911534,111.39157 95.6276804,104.792846 100.735693,98.4639557 C100.735693,98.4639557 100.335169,100.405116 100.454231,103.266995 C100.43862,103.085386 100.433028,102.98496 100.433028,102.98496 C98.3407075,107.04936 100.349382,113.076271 100.349382,113.076271" id="path64" fill="#753D0C" fill-rule="nonzero"></path>
                        <path d="M113.193389,130.007045 C111.211276,140.019048 101.842199,139.097155 101.842199,139.097155 C102.518825,138.676449 103.151647,138.282492 103.768626,137.900267 C102.112477,137.976289 100.571196,137.587729 100.571196,137.587729 C100.571196,137.587729 103.187529,137.162799 104.656114,136.256862 C104.236951,135.701005 103.956888,135.031583 103.882329,134.287546 C103.665175,132.133803 105.228124,130.215169 107.362385,130.001413 C109.067463,129.830362 110.625054,130.796367 111.290962,132.287491 C112.33619,131.149262 113.193389,130.007045 113.193389,130.007045" id="path66" fill="#231F20" fill-rule="nonzero"></path>
                        <path d="M140.465556,129.012883 C140.465556,129.012883 139.57131,129.635378 138.472492,130.020184 C138.982291,130.143135 139.491624,130.258107 139.998162,130.354309 C139.998162,130.354309 135.183727,132.772253 131.3826,128.900492 L129.029322,127.044975 C129.029322,127.044975 130.629085,126.917801 131.109759,125.721851 L131.420113,124.872461 C131.420113,124.872461 129.917975,125.10358 129.029322,124.718539 C129.029322,124.718539 131.551057,124.079854 132.372375,122.261879 L132.673641,121.351718 C132.673641,121.351718 130.698285,121.146176 128.139969,122.451467 C125.585147,123.759574 122.655665,124.666684 119.930755,121.756704 C119.930755,121.756704 118.873178,120.475346 118.634355,118.837338 C118.634355,118.837338 118.562825,118.197245 119.556561,117.151229 L120.064496,116.659663 C120.064496,116.659663 121.360663,115.276706 123.677128,117.183375 C123.677128,117.183375 123.979792,117.410504 124.189257,117.700282 C124.475844,118.091893 125.110065,118.627571 125.993592,118.313626 C126.879683,117.99311 127.527184,117.008335 126.43955,115.564138 C126.43955,115.564138 125.924625,114.460635 123.677128,113.833683 C123.677128,113.833683 124.563685,112.526045 126.678373,111.045714 C126.678373,111.045714 128.92424,112.026266 130.118354,112.290703 C130.118354,112.290703 128.790499,113.709794 129.506967,115.203265 C129.506967,115.203265 130.046823,117.177978 131.446208,117.009508 C132.84373,116.838691 132.266361,115.115041 132.266361,115.115041 C132.266361,115.115041 131.482323,113.300585 132.604674,113.120383 C132.604674,113.120383 133.595614,112.968103 134.548109,113.580039 C134.548109,113.580039 135.539049,110.967814 131.825762,105.85341 C131.825762,105.85341 130.288209,103.752931 130.459462,102.804524 L133.93812,106.222261 C133.93812,106.222261 138.572215,110.702204 135.914874,116.085034 C135.914874,116.085034 137.177956,119.131339 134.994067,120.705056 L134.54042,124.712204 L134.34377,125.071435 C135.991764,124.651667 137.676571,125.632689 138.121131,127.289233 C138.303102,127.962644 138.249513,128.638636 138.018845,129.242594 C139.159835,129.288114 140.465556,129.012883 140.465556,129.012883" id="path68" fill="#231F20" fill-rule="nonzero"></path>
                        <path d="M137.851553,147.562659 C137.851553,147.562659 142.46491,154.086534 148.476022,147.420938 L147.401436,147.420938 C147.401436,147.420938 149.314581,143.150996 143.628501,139.959215 C143.628501,139.959215 144.479876,138.303609 144.899505,137.175939 C148.152155,138.212804 150.4819,141.360708 150.4819,144.985395 C150.4819,149.462523 146.878822,153.092607 142.428795,153.092607 C139.531234,153.092607 136.986664,151.543997 135.5726,149.227181 L137.851553,147.562659" id="path70" fill="#753D0C" fill-rule="nonzero"></path>
                        <path d="M109.053949,133.348055 C108.929295,133.103797 108.701423,132.911394 108.413205,132.847338 C107.902241,132.734946 107.400829,133.061093 107.290854,133.574011 C107.219091,133.916114 107.34491,134.247422 107.577442,134.467982 C107.168996,134.755179 106.793404,134.998264 106.466974,135.196064 C106.057131,134.68033 105.851394,133.997533 105.999813,133.293384 C106.262868,132.064116 107.472593,131.281364 108.693501,131.546035 C109.270171,131.674148 109.750613,132.013669 110.067723,132.467693 C109.722886,132.785862 109.380612,133.079864 109.053949,133.348055" id="path72" fill="#FFFFFF" fill-rule="nonzero"></path>
                        <path d="M135.112197,128.577161 C135.203532,128.391327 135.200736,128.167014 135.084237,127.978599 C134.898305,127.697972 134.524343,127.620542 134.248474,127.802151 C134.089336,127.906565 133.998933,128.071985 133.980526,128.246087 C133.720267,128.160444 133.457912,128.061426 133.179013,127.954666 C133.266621,127.611391 133.47096,127.299792 133.789468,127.094249 C134.45258,126.653364 135.348457,126.843186 135.784862,127.516362 C136.033936,127.898588 136.071449,128.352612 135.93864,128.755016 C135.699584,128.71067 135.429307,128.655999 135.112197,128.577161" id="path74" fill="#FFFFFF" fill-rule="nonzero"></path>
                        <path d="M122.615822,121.5162 C122.615822,121.5162 124.458603,122.869592 127.622946,121.063114 C130.34506,119.513564 132.635196,119.692593 132.635196,119.692593 C132.635196,119.692593 134.402252,119.852851 134.631988,118.483504 C134.631988,118.483504 133.356791,118.922981 131.029841,118.896232 C128.708018,118.868075 126.771106,120.357792 126.771106,120.357792 C126.771106,120.357792 125.986836,121.215394 122.615822,121.5162" id="path76" fill="#FFFFFF" fill-rule="nonzero"></path>
                        <path d="M131.230219,118.926031 C133.174586,118.926031 134.354255,118.598946 134.595407,118.525269 C134.490325,119.054613 134.135936,119.407273 133.541325,119.573397 C133.081387,119.701744 132.642186,119.664202 132.637759,119.663733 C132.61446,119.661856 130.307781,119.501833 127.608734,121.038242 C125.982875,121.96647 124.715599,122.040146 123.940182,121.939017 C123.284992,121.853609 122.859072,121.632111 122.701333,121.537082 C125.974953,121.232757 126.759922,120.412228 126.791843,120.377267 C126.807454,120.366004 128.708717,118.924623 130.965534,118.924623 C130.98697,118.924623 131.008172,118.924858 131.029375,118.925092 C131.097178,118.925796 131.164281,118.926031 131.230219,118.926031 Z M134.668103,118.440565 L134.622668,118.456286 C134.610319,118.460509 133.399196,118.868545 131.230452,118.868545 C131.164514,118.868545 131.097877,118.86831 131.030074,118.867371 C128.727589,118.841796 126.773203,120.320015 126.753631,120.335032 C126.74804,120.340429 126.547428,120.55348 125.939304,120.800554 C125.378245,121.028622 124.345366,121.332947 122.61326,121.487339 L122.537535,121.494144 L122.598814,121.539429 C122.603707,121.542714 123.075294,121.883173 123.928998,121.99533 C124.714667,122.098571 125.995456,122.025129 127.636926,121.08822 C130.320363,119.560961 132.610732,119.719342 132.633099,119.721219 C132.637293,119.721688 133.085115,119.760169 133.555305,119.629241 C134.182069,119.454436 134.564186,119.060009 134.660181,118.488196 L134.668103,118.440565 Z" id="path78" fill="#231F20" fill-rule="nonzero"></path>
                        <path d="M179.513201,85.3078035 C176.273366,92.0097684 173.846926,94.5239145 173.846926,94.5239145 C173.846926,94.5239145 171.178867,96.9207416 164.561262,100.081785 C164.561262,100.081785 172.203126,93.7019776 175.370965,82.9496917 C175.370965,82.9496917 167.766614,93.1986791 156.14468,96.4798568 C156.14468,96.4798568 170.327027,88.8229153 169.483342,72.4937536 C169.483342,72.4937536 166.274029,79.1738972 162.739685,81.810055 C162.739685,81.810055 170.448885,66.2742044 158.349772,53.7473513 C158.349772,53.7473513 163.865997,69.6574495 155.216883,81.1420406 C155.216883,81.1420406 157.728367,72.8008947 153.711251,65.633408 C153.711251,65.633408 155.059143,77.0670827 148.829014,83.4771579 C148.829014,83.4771579 145.660942,78.8465772 139.955756,76.7852824 C139.955756,76.7852824 141.762888,79.7684698 141.942296,81.8609714 C141.942296,81.8609714 138.971573,77.7336892 130.512353,75.8887307 C130.512353,75.8887307 131.93597,79.0685447 132.332765,80.5258813 C132.332765,80.5258813 117.675103,68.9223287 98.3672693,77.3127486 C103.72855,72.2358864 113.686879,69.8430482 114.393095,69.6813826 L114.331817,69.6529914 C113.965777,69.4807671 111.371812,68.1822805 104.604622,68.5203938 C104.604622,68.5203938 108.303463,65.7774757 113.567817,65.210825 L113.567817,62.2527438 L80.2272209,62.2527438 L80.2272209,89.1610286 C80.5091483,88.4618074 82.1629671,87.7712678 82.1629671,87.7712678 L82.5152599,90.0880833 C83.0690958,89.6152878 85.447771,87.2665615 89.3318453,86.7212628 C96.7015676,85.6820511 99.7151619,79.89799 99.7151619,79.89799 L99.7151619,82.2589175 C99.7151619,82.2589175 110.478964,72.9745268 121.604845,79.0058964 C126.774834,81.4306454 131.770075,85.2571217 134.395728,91.5071739 L135.849402,89.1117546 C135.849402,89.1117546 137.509279,95.6675401 140.828799,100.582971 C143.906934,105.140345 146.65328,108.498953 147.587135,112.763499 C147.587135,112.763499 155.191719,108.958609 161.650187,103.276615 C161.650187,103.276615 155.759768,111.807114 149.765432,116.285415 C149.765432,116.285415 155.765127,113.434563 159.127053,110.420169 C159.127053,110.420169 154.910957,116.225348 150.484696,120.039857 C150.484696,120.039857 161.923726,115.077733 173.898651,99.3844405 C173.898651,99.3844405 180.505539,90.5184094 183.381897,84.1212392 L179.513201,85.3078035" id="path80" fill="#753D0C" fill-rule="nonzero"></path>
                        <path d="M164.819657,99.8558282 C164.819657,99.8558282 174.113475,93.7810506 178.950744,85.4797932 L183.381897,84.1212392 L178.340523,91.0113838 L172.972718,96.9073672 L168.092811,99.6448887 L164.819657,99.8558282" id="path82" fill="#753D0C" fill-rule="nonzero"></path>
                        <path d="M81.0837211,14.9565294 C81.0837211,14.9565294 76.1301866,14.2774402 73.6792821,15.2758483 L73.4437213,14.732239 C73.4437213,14.732239 77.6197419,11.3785582 84.3706219,11.2905689" id="path84" fill="#231F20" fill-rule="nonzero"></path>
                        <path d="M78.8527666,23.7746944 C78.8527666,23.7746944 73.9001641,23.1013068 71.4464636,24.0949753 L71.2155627,23.5541347 C71.2155627,23.5541347 75.3880884,20.1994919 82.1422303,20.1096724" id="path86" fill="#231F20" fill-rule="nonzero"></path>
                        <path d="M88.8376568,7.55607068 C88.8376568,7.55607068 83.8845883,6.87864733 81.4318199,7.87541298 L81.199055,7.3357456 C81.199055,7.3357456 84.4470452,4.5644363 89.1971725,4.18901551" id="path88" fill="#231F20" fill-rule="nonzero"></path>
                        <path d="M101.104528,9.93600381 C97.6258701,10.2804524 96.331567,11.1462196 96.216932,13.268051 C96.1749924,14.1120908 96.5617689,14.8819146 97.2423556,15.5013119 C94.1166893,15.6658401 90.5005625,17.4603749 90.3919855,19.5176573 C90.337464,20.5479528 90.4089944,21.5339016 91.3941093,22.2018925 C89.4301704,22.8710566 87.5023461,24.2045512 87.4240588,25.7118656 C87.3557904,27.0317043 88.8495397,28.166179 90.3826656,28.8222269 C89.0871975,29.5517164 88.7453897,30.5496317 88.6857422,31.7134362 C88.597669,33.3805391 90.667855,34.6982661 92.9153524,35.1818549 C92.0052627,35.8669979 91.9588961,36.7330467 91.9122966,37.6802803 C91.8272524,39.2699527 93.2410834,40.6022272 95.3306082,41.1430677 L94.5290955,41.4344881 C94.1870547,41.3983539 93.8541007,41.3648006 93.5348937,41.3232697 C93.5255738,41.3209233 93.5136909,41.3209233 93.5050699,41.3209233 C93.1839989,41.279627 92.8769077,41.2397386 92.5796024,41.1965652 C92.5737775,41.1965652 92.5651566,41.1965652 92.5590986,41.1914032 C92.5364978,41.1857719 92.515295,41.1834255 92.4912963,41.1820176 C92.1226936,41.1245313 91.7750608,41.0630562 91.4439709,40.9987654 C91.3526357,40.98281 91.2615336,40.9654468 91.1734604,40.9457372 C90.8747571,40.8840274 90.5856068,40.8209098 90.3141643,40.7530994 C90.2785156,40.7462949 90.2405369,40.739725 90.2069852,40.7291663 C89.902457,40.652909 89.6242576,40.5754784 89.3556111,40.4910088 C89.2973616,40.475288 89.2391121,40.4579248 89.1794647,40.4377459 C88.9630097,40.3682931 88.7540106,40.2962592 88.5617874,40.2265717 C88.5184498,40.2106164 88.4732482,40.1958342 88.4348035,40.1841023 C88.2080966,40.0944706 88.0004955,40.0074199 87.8047773,39.9220116 C87.7723906,39.9074641 87.7425669,39.8926819 87.7127432,39.8807153 C87.5494117,39.8042234 87.3947011,39.7244464 87.2530384,39.6470159 C87.2197197,39.6308259 87.18244,39.6122895 87.1514513,39.5949263 C86.9927798,39.5050599 86.8436611,39.4170707 86.7122503,39.33002 C86.7015324,39.3248579 86.6975715,39.3206345 86.6896496,39.3152378 C86.5649957,39.234053 86.4554867,39.149818 86.3494727,39.0698065 C86.3254739,39.0510354 86.3021741,39.0348454 86.2798063,39.0146665 C86.1761223,38.9334818 86.0838551,38.8504199 86.0039369,38.7715816 C86.0016069,38.7715816 86.0016069,38.7715816 85.9992769,38.7715816 C85.9170287,38.6929778 85.8441003,38.6101506 85.7781619,38.5376475 C85.7648811,38.5221614 85.7509012,38.5073792 85.7390183,38.490016 C85.6865938,38.4283062 85.6395282,38.3654232 85.5978216,38.3079369 C85.5933946,38.3001938 85.5852397,38.2908083 85.5798808,38.2788418 C85.5346792,38.2173666 85.4976325,38.1530758 85.4659448,38.0984052 C85.4598869,38.0864386 85.4559259,38.0768185 85.4498679,38.0646173 C85.4240052,38.0195668 85.4060643,37.9763934 85.3888225,37.936505 C85.3853275,37.9299351 85.3795026,37.9203149 85.3767066,37.9125719 C85.3589988,37.8698678 85.3464169,37.8299793 85.337796,37.8001803 C85.335233,37.7924372 85.335233,37.7907948 85.334534,37.7856327 C85.3270781,37.761465 85.3224181,37.7375319 85.3170592,37.7227497 C85.3170592,37.7189955 85.3137972,37.712191 85.3137972,37.70961 C85.3137972,37.6988167 85.3112342,37.6894312 85.3112342,37.6894312 L88.9105852,36.3975144 L84.9663974,35.3660458 C84.9423986,34.3585102 85.5933946,33.4837798 85.5933946,33.4837798 C82.3134838,32.4933729 81.6780986,30.0233387 81.6780986,30.0233387 L85.1872794,28.6765167 L82.1902279,27.4430247 C82.6438747,26.4160143 83.4020498,26.0832976 83.4020498,26.0832976 C80.6857607,24.530698 80.6477821,23.052901 80.6477821,23.052901 L84.5365163,21.7756022 L81.5420278,20.4639054 C82.7599077,19.4937477 84.9377387,18.4946122 84.9377387,18.4946122 C83.6646383,17.2893473 84.1940095,15.4856381 84.1940095,15.4856381 L88.2882479,14.5851444 L85.6707499,13.268051 C85.9195916,13.0592466 86.1793842,12.8776838 86.4410408,12.7080405 C86.4960283,12.6742057 86.5470549,12.6397374 86.6001784,12.6063953 C86.854146,12.452684 87.1083467,12.3084051 87.3674403,12.1828503 C87.4182339,12.1614982 87.4657654,12.1401227 87.514229,12.1187706 C87.7530518,12.0054874 87.9918746,11.9050389 88.2306974,11.8152195 C88.2619191,11.8034876 88.2964028,11.7917557 88.3313525,11.7764338 C88.5855531,11.6856993 88.8362588,11.6058755 89.0785766,11.5392383 C89.1379911,11.5228371 89.1971725,11.5026582 89.255422,11.4880872 C89.4898178,11.4268701 89.7211847,11.3731615 89.9362417,11.3250373 C89.9779483,11.3196406 90.01383,11.3130238 90.0515757,11.3079087 C90.2437989,11.2715163 90.4271682,11.2382447 90.6002856,11.2143116 C90.6454872,11.2102993 90.6897568,11.1969014 90.7314634,11.1941562 C90.9139007,11.1701527 91.0825912,11.1486129 91.2317098,11.1380542 C91.2794744,11.1356844 91.321181,11.1301 91.3652176,11.1221223 C91.4942984,11.1143323 91.6124283,11.1087245 91.7079575,11.1030463 C91.7363832,11.1007703 91.7631779,11.1007703 91.7888077,11.0981892 C91.865697,11.0969926 91.9334994,11.0969926 91.9840599,11.0969926 C91.9973408,11.0969926 92.0124857,11.0969926 92.0257665,11.0969926 C92.0555903,11.0969926 92.0900739,11.0969926 92.0900739,11.0969926 C92.0933359,11.0969926 92.1021898,11.0969926 92.1021898,11.0969926 C91.2769114,10.1344372 90.7195805,9.16986385 90.7156196,8.51405066 L94.591539,8.31911342 L93.6318208,7.43471591 L92.2664533,6.17050988 L93.6290248,5.73131449 C98.064838,4.50038012 113.189195,1.93833036 136.033936,14.9701854 C136.306311,15.8464879 136.527892,16.8324367 136.713591,17.8554818 L137.477824,18.3566686 C137.586168,18.3873592 136.828925,19.1264689 136.933774,19.1595763 C137.54516,23.2824239 137.6104,27.5220977 137.6104,27.5220977 C137.6104,27.5220977 129.742761,11.3489703 101.104528,9.93600381" id="path90" fill="#753D0C" fill-rule="nonzero"></path>
                        <path d="M170.14692,54.6347522 C168.590494,45.5627089 163.721305,38.0047846 158.399867,32.1674607 C162.457058,38.8771687 161.62013,44.2294959 161.62013,44.2294959 C155.022097,34.2773255 156.294498,30.0165342 149.423158,27.3179627 L150.70651,32.0794714 C146.976914,27.2576607 146.204759,22.0508325 136.933774,19.1595763 C136.867603,18.7215541 136.795606,18.2870045 136.713591,17.8554818 L136.033936,14.9701854 C165.95156,21.9789864 167.434825,35.9165065 170.189092,38.6756146 C171.530461,45.9651131 170.14692,54.6347522 170.14692,54.6347522" id="path92" fill="#753D0C" fill-rule="nonzero"></path>
                        <path d="M176.610513,78.8374263 C180.781641,62.4772924 177.899924,50.9309915 174.649603,44.026534 C174.660088,44.0438972 174.673369,44.0624336 174.689446,44.0797968 C174.970441,44.452402 175.251903,44.8198451 175.51985,45.191277 C175.562256,45.2475901 175.59674,45.2980373 175.635184,45.3517694 C175.718831,45.4662727 175.79572,45.5828878 175.87424,45.6980951 C180.086375,53.420266 181.458267,61.2400463 181.566844,67.8774858 C179.364781,74.6165235 176.610513,78.8374263 176.610513,78.8374263" id="path94" fill="#753D0C" fill-rule="nonzero"></path>
                        <path d="M65.2925241,12.3204185 L63.9835422,12.3204185 L63.9835422,8.67454305 L63.2335221,8.67454305 L63.2335221,12.3204185 L61.9259381,12.3204185 L61.9259381,12.9414818 L65.2925241,12.9414818 L65.2925241,12.3204185 Z M68.3967546,9.80739873 L69.5915676,12.9414818 L70.7439751,12.9414818 L70.7439751,8.67454305 L69.991625,8.67454305 L69.991625,12.1458244 L69.9715871,12.1458244 L68.6465283,8.67454305 L68.1302051,8.67454305 L66.8037483,12.1458244 L66.7823125,12.1458244 L66.7823125,8.67454305 L66.0313603,8.67454305 L66.0313603,12.9414818 L67.1837678,12.9414818 L68.3967546,9.80739873 Z" id="path96" fill="#231F20" fill-rule="nonzero"></path>
                    </g>
                </g>
            </g>
        </g>
    </g>
</svg>