<svg width="200" height="200" xmlns="http://www.w3.org/2000/svg"><g fill-rule="nonzero" fill="none"><path d="m170.456 181.326-.188-2.815c-.023-.363 0-.81-.012-1.266h-.035c-.116.434-.26.926-.4 1.337l-.971 2.685h-.54l-.949-2.756a21.285 21.285 0 0 1-.342-1.266h-.035c-.012.446 0 .843-.024 1.266l-.174 2.815h-.681l.364-4.668h.926l.915 2.534c.116.35.21.738.329 1.17h.023c.105-.432.21-.843.327-1.182l.915-2.522h.914l.353 4.668h-.715Zm-4.515-4.668v.599h-1.43v4.069h-.704v-4.07h-1.418v-.598h3.552ZM81.196 199.79c-23.522 0-42.123-5.21-53.587-9.582C12.621 184.7 3.143 176.644 2.746 176.3L0 173.946l16.479-13.067 11.187-54.29c-6.706-3.391-13.842-5.488-21.257-6.235l-4.218-.425 1.814-3.832c1.79-3.758 6.765-9.554 13.059-15.285-10.707-8.442-12.04-18.347-12.093-18.8l-.674-5.473 5.167 2.529C4.237 46.27 7.316 31.448 7.477 30.707l1.761-8.19 3.817 7.454c.008 0 .353.635 1.14 1.616a92.81 92.81 0 0 1 .441-3.546c1.431-9.734 5.462-15.058 5.63-15.279l2.605-3.372 2.704 4.248c1.874 2.957 3.987 6.282 7.167 9.696l.487-.33c.453-.31 11.261-7.546 26.928-12.6 22.778-7.627 44.562-9.23 58.82-9.23 27.42 0 47.323 6.416 56.749 10.238 9.692 3.934 13.711 7.153 13.876 7.292l1.41 1.142-11.918 58.33H149.61c1.809 2.243 3.843 4.944 5.241 7.191.244.026 2.067.279 2.067.279l.743 1.112a43.583 43.583 0 0 1 1.619 2.623c4.232 2.221 10.755 5.786 20.37 11.142 16.575 9.236 19.257 15.391 19.625 16.534l.493 1.516-.989 1.254c-.66.838-2.929 2.823-9.668 3.043-.507.013-1.217.021-2.103.021-1.918 0-4.69-.037-7.958-.074-2.812-.031-9.198-.098-9.198-.098l-.102.227-12.412 60.516-3.687 1.524c-.359.147-36.99 14.805-72.456 14.805" fill="#C8C7C7"/><path d="m149.739 90.009-.454-.917c-2.496-5.047-11.406-13.924-17.407-18.191-7.42-5.276-14.362-8.913-21.848-11.447-6.963-2.358-14.776-3.912-25.327-5.04-17.2-1.839-27.308-3.348-34.817-6.493-6.889-2.885-11.586-5.483-15.705-8.691-3.737-2.908-6.106-6.159-6.13-6.191l-.997-1.58-.271 1.822.07.323c.91 4.237 3.872 8.856 8.34 13.005 3.724 3.458 8.269 6.392 13.02 8.43-13.11-2.196-20.46-7.052-24.372-10.867l-1.454-1.419.375 1.998c3.119 16.558 16.77 23.54 16.909 23.602l.146.047c2.469.478 5.317.72 8.467.72 1.054 0 2.13-.027 3.219-.08-2.935.736-6.61 1.374-10.538 1.374-4.144 0-7.913-.715-11.199-2.128l-1.275-.501.41 1.56c2.258 4.363 6.205 7.75 9.118 9.823 3.055 2.174 6.47 3.966 9.475 4.979-1.908 1.358-5.108 3.79-5.365 3.976l1.603 2.138s2.913-1.55 10.744-3.047c7.833-1.496 13.146-1.83 13.146-1.83s.586.056.694-.07c6.088-7.135 16.766-12.063 25.346-10.336.143-.083.453-.197.51-.254-1.133-1.699-8.128-3.994-10.195-3.682 0 0 .886-.239 1.204-.32 2.576-.662 5.956-1.622 10.279-1.596 2.678.033 5.03.008 7.84.5 4.24.79 7.878 1.786 10.482 2.828 1.876.768 6.472 3.119 8.25 4.148 3.9 2.313 10.13 6.597 14.594 11.366 6.014 2.03 10.232 2.265 11.452 2.258 1.217-.01 1.661-.217 1.661-.217" fill="#1E59AE"/><path d="M102.745 90.68c.12-.566.322-1.11.596-1.615 0 0 .523-.878 1.157-1.512.2-.2.442-.39.679-.558l-4.493-2.934c-1.392 1.107-2.382 2.602-2.756 4.342-.976 4.543 2.401 9.333 7.687 10.906l.266.079.503-1.077-.23-.153c-2.667-1.77-4.008-4.706-3.409-7.479M112.367 134.826l-3.128 15.271H73.93l.905-4.382a75.619 75.619 0 0 1-5.762-2.9l-.155.695s.002 0 .002.003l-1.609 7.793-8.09 3.89.28 1.225h54.812l3.13-15.274h30.178l-6.343 30.953c-3.428 1.075-30.933 9.448-58.01 9.448-15.52 0-29.24-2.891-38.016-5.312-7.25-2.002-12.4-4.015-14.46-4.871l2.283-1.771 11.337-54.99.002.003.143-.672a92.014 92.014 0 0 0-5.426-4.567l-11.843 57.46-7.914 6.054.838.481c.059.036 5.986 3.43 13.885 6.158 11.02 3.806 28.355 8.347 48.344 8.347 31.64 0 63.104-10.798 63.4-10.906l.873-.319 8.573-41.817h-42.919M176.805 24.02c-.251-.11-26.815-10.946-59.061-10.946-14.699 0-30.032 2.142-45.576 6.365-12.639 3.433-21.633 7.842-21.723 7.887l-.737.365 5.026 5.961-1.448 7.03c.979.373 3.101 1.165 5.936 2.085l.112-.532h-.002l2.28-11.06-1.423-1.549c2.2-.79 8.302-2.883 16.66-4.952 9.715-2.408 24.55-5.277 40.07-5.277 26.522 0 50.137 8.025 53.887 9.362l-6.379 31.183h-30.18l3.149-15.42H79.982l6.494 3.887c-.01-.003-.02-.004-.03-.005l.03.006.713.7c3.181.607 5.799 1.17 7.372 1.734h35.07l-2.529 12.845.373.236a77.788 77.788 0 0 1 3.296 2.218l.167.119H169.5l8.542-41.71-1.236-.533" fill="#1E59AE"/><path d="M102.443 85.858a6.737 6.737 0 0 0-2.108 3.61c-.777 3.636 1.51 7.41 5.266 9.091.01.006.093.032.1.038l.085-.3c-2.644-1.855-3.962-4.87-3.356-7.684.13-.598.338-1.17.629-1.701l.076-.144-.07-.148a2.163 2.163 0 0 1-.218-1.07c.027-.407.172-.789.421-1.108l.215-.272-.29-.192-.57-.386-.18.266M149.105 88.741c-1.255-2.35-3.866-5.61-7.351-9.185-3.31-3.389-6.91-6.545-9.876-8.655-7.42-5.276-14.362-8.913-21.848-11.447-6.963-2.358-14.776-3.912-25.327-5.04-17.2-1.839-27.308-3.348-34.817-6.493-6.889-2.885-11.586-5.483-15.705-8.691-3.73-2.901-6.106-6.16-6.13-6.191l-1.128-.919-.07 1.484c1.716 7.987 10.49 16.621 20.882 21.224 1.035.459 4.567 1.235 6.603 1.636.28.072.563.142.843.208 9.18 2.136 17.169 2.627 23.574 2.365-2.42 1.189-5.198 2.652-7.593 4.167l.116.123s17.92-6.082 37.246-.12c.058.016.108.033.163.05l.724.235c17.293 5.665 28.97 16.247 35.786 24.592.285.382.796.94 1.267 1.08.696.208 1.345.378 1.938.507l1.356.296-.653-1.226" fill="#76AFE3"/><path d="m133.497 60.554 3.146-15.42H82.2l6.808 4.076-.046.228c-1.044-.18-2.074-.346-3.06-.498-10.324-1.584-19.503-3.7-27.28-6.295l2.327-11.287-1.83-1.992c.613-.231 7.436-2.773 17.562-5.283 9.751-2.418 24.65-5.3 40.237-5.3 15.101 0 29.148 2.608 38.273 4.796 9.568 2.294 15.868 4.617 16.324 4.785l-6.588 32.19h-31.43M83.267 182.159c-15.588 0-29.366-2.9-38.178-5.332-9.089-2.509-14.907-5.048-15.496-5.307l2.926-2.273 11.508-55.815c5.934 5.292 9.245 10.042 10.394 11.844l.507.791-.93.143c-.545.083-1.18.128-1.886.128-1.74 0-3.624-.254-4.9-.465l-.095-.016.066.07c2.56 2.692 9.872 9.768 22.424 17.282l-1.759 8.52-8.362 4.022.014.06h54.312l3.13-15.275h31.432l-6.57 32.037c-.87.281-29.93 9.586-58.537 9.586" fill="#FFF"/><path d="M93.668 145.474c-7.442-7.285-11.232-13.51-13.102-17.45-2.048-4.318-2.313-6.893-2.323-7.002l-.069-.721.726.02h.054c.32 0 3.007-.043 6.724-1.447-6.51-1.124-12.012-4.053-16.369-8.713-3.504-3.751-5.293-7.648-5.985-9.418-1.368.501-2.63 1.062-3.578 1.59l-.242.136-.721-.95.195-.2c10.48-10.595 23.703-12.176 30.651-12.176 2.227 0 3.87.16 4.65.255l.524.065.038.526c.34 4.595 3.617 8.627 8.767 10.782 1.586.664 3.331.998 5.181.998 4.853 0 9.944-2.382 12.383-5.797l.286-.402.463.175c1.24.47 2.45.973 3.594 1.494 9.587 4.366 13.586 9.484 15.251 13.008l.41.87-.96.046c-11 .53-20.902 3.063-28.635 7.321-7.542 4.156-12.933 9.89-15.587 16.594-1.291 3.256-1.817 7.372-1.252 9.787l.503 2.15-1.577-1.54M118.036 76.076a46.215 46.215 0 0 0-5.574-2.732c-3.279-1.31-6.799-2.322-10.468-3.003a52.115 52.115 0 0 0-8.685-.789c-2.452 0-4.607.485-6.284.697-1.33.207-3.65.98-3.67.991l-.005.001c5.266.763 9.093 2.637 9.57 3.06-9.5-1.37-19.95 4.483-25.006 10.664.088.257.038.641.038.641a128.98 128.98 0 0 1 7.667-.225c3.303 0 6.689.124 10.062.37 2.78.203 5.763.531 8.868.976l.545.077.16-.526c.112-.369.246-.735.398-1.087a9.376 9.376 0 0 1 1.978-2.906l.427-.431-2.641-2.934c4.898 2.845 15.727 8.625 27.905 11.874 3.189.852 6.295 1.48 9.235 1.865l1.187.155-.527-1.075c-2.94-5.973-8.47-11.681-15.18-15.663" fill="#FFF"/><path d="M107.683 88.462a112.508 112.508 0 0 1-4.2-2.679c-.036-.023-.281.225-.466.461-.28.357-.458.796-.491 1.285-.023.434.068.854.25 1.23.155.45.658 1.667.913 1.797a3.305 3.305 0 0 0 1.514.366c1.156 0 2.197-.618 2.715-1.614l.279-.534-.514-.312" fill="#FFF"/><path d="M190.026 115.342s-1.464-1.405-1.528-1.458c-1.47-1.364-3.49-2.843-6.002-4.39-10.352-6.7-24.16-12.337-29.718-14.486l-1.017-1.437-.18-.253s-3.53.109-7.823 1.703h-.002l-.169.063-.022.01-1.878.707.078.02c-3.863 1.68-6.7 4.123-6.7 4.123l32.632 9.433c-5.373-.733-21.828-3.39-21.828-3.39l5.933 6.484s13.005 1.367 33.56 2.597c.694.045 4.664.274 4.664.274" fill="#7B7979"/><path d="M140.766 110.247c-1.665-3.524-5.664-8.642-15.251-13.008 0 0-.286.21-.267.585.15 9.531-15.458 18.896-28.941 18.708 0 0 4.699-1.574 7.68-4.155-3.533 1.59-29.112 3.417-35.613-13.718a34.51 34.51 0 0 0-4.67 1.267c-.204.072-.51.48-.448.64 1.308 3.435 6.995 15.639 22.422 18.308-3.717 1.404-6.405 1.446-6.724 1.446H78.9l-.726-.02.069.722c.01.11.275 2.684 2.323 7.003 1.87 3.94 5.66 10.164 13.102 17.45l1.576 1.54-.502-2.15c-.565-2.415-.039-6.53 1.252-9.787 2.654-6.703 8.045-12.438 15.587-16.594 7.733-4.258 17.636-6.79 28.635-7.32l.96-.047-.41-.87M133.216 91.739c-2.94-5.973-8.47-11.681-15.18-15.663a46.165 46.165 0 0 0-5.574-2.732c-3.279-1.31-6.799-2.322-10.468-3.003a52.115 52.115 0 0 0-8.685-.789c-1.22 0-3.599.153-4.88.382-3.129.562-4.721 1.181-5.08 1.307 26.375-.768 37.856 12.574 40.136 18.935.274.57.801.872 1.28.99a71.072 71.072 0 0 0 7.79 1.493l1.188.155-.527-1.075M188.769 114.137s-.207-.2-.27-.253c-1.47-1.364-3.491-2.843-6.003-4.39-10.352-6.7-24.16-12.337-29.718-14.486l-1.017-1.437-.18-.253-.308-.016s-.048-.002-.138-.002c-.659 0-3.156.129-7.57 1.794l-.88.311s.78.188 1.106.289c13.293 3.524 34.127 13.482 44.29 18.894 1.686.912 1.945.754 1.945.754l-1.257-1.205M116.918 18.752c-30.181 0-57.856 10.6-57.856 10.6l1.852 2.016-2.33 11.299c.63.209 1.27.416 1.924.623l2.582-12.527-.482-.527c7.752-2.618 30.363-9.473 54.31-9.473 24.306 0 46.531 6.812 52.313 8.869l-5.916 28.942h-27.39l3.148-15.42H75.036l9.312 5.574c.955.17 4.639.748 4.639.748l.056-.282-6.728-4.028h54.29l-3.147 15.421h31.495l6.597-32.244s-25.395-9.59-54.632-9.59" fill="#C8C7C7"/><path d="m116.917 140.503-3.131 15.274H59.5l8.377-4.03 1.767-8.551a150.414 150.414 0 0 1-1.828-1.116l-1.71 8.288-15.44 7.423h64.762l3.13-15.274h27.389l-5.852 28.53c-5.408 1.724-31.447 9.13-56.828 9.13-22.981 0-42.408-6.397-49.75-9.196l.793-.602 11.423-55.417a59.088 59.088 0 0 1-1.726-1.59L32.491 169.23l-2.96 2.294s23.552 10.669 53.736 10.669c29.24 0 58.565-9.595 58.565-9.595l6.58-32.095h-31.495" fill="#C8C7C7"/><path d="M188.081 114.588c-.558-.033-1.93-.114-2.683-.156-20.73-1.247-33.286-2.572-33.286-2.572l-4.492-4.91c11.307 2.018 26.189 3.88 26.189 3.88l-.197-.412-37.237-10.764s2.274-1.975 7.082-3.833c.112-.044.222-.085.334-.127 4.974-1.875 7.447-1.75 7.447-1.75l1.129 1.593c6.003 2.315 19.554 7.876 29.78 14.495 2.352 1.45 4.39 2.906 5.914 4.322.07.061.263.247.263.247s-.09-.006-.243-.013ZM95.396 134.84c-1.263 3.188-1.902 7.514-1.279 10.173-14.275-13.968-15.235-24.051-15.235-24.051s3.922.108 9.174-2.409c-17.505-1.817-23.309-15.677-24.352-18.627-1.707.592-3.208 1.253-4.27 1.846 13.488-13.634 31.545-12.13 34.768-11.736.334 4.535 3.507 8.962 9.161 11.328 6.643 2.78 14.981-.328 18.33-5.019a59.02 59.02 0 0 1 3.555 1.479c9.562 4.353 13.4 9.446 14.94 12.698-22.85 1.102-39.325 10.524-44.792 24.318Zm50.759 41.321-.534.194c-.303.112-31.793 10.868-63.18 10.868-19.881 0-37.127-4.51-48.135-8.311-7.93-2.74-13.772-6.108-13.772-6.108l7.338-5.613 11.676-56.662c7.094 5.419 11.927 11.269 14.357 15.073-3.142.485-8.293-.654-8.293-.654l-.059.096s8.835 10.649 28.47 21.404l-.887 4.294h36.63l3.128-15.27h41.6l-8.34 40.69ZM105.6 98.56c.065.046.132.09.198.135-4.934-1.467-8.153-5.922-7.244-10.156.327-1.516 1.138-2.806 2.28-3.788.464.326 1.004.7 1.608 1.108.183.126.377.255.574.386 1.258.843 2.74 1.801 4.331 2.767-.44.844-1.381 1.369-2.435 1.253a2.704 2.704 0 0 1-2.137-1.505 6.673 6.673 0 0 0-.66 1.786c-.654 3.032.823 6.147 3.485 8.014ZM39.94 67.77c-.897-.413-13.577-7.374-16.546-23.137 8.027 7.827 20.506 10.896 30.945 11.832C41.544 53.17 29.505 42.896 27.48 33.469l.05-.054s2.39 3.314 6.257 6.322c4.037 3.142 8.684 5.775 15.852 8.776 7.838 3.283 18.59 4.785 34.997 6.54 19.523 2.086 32.019 5.813 46.87 16.371 5.99 4.26 14.433 12.749 17.032 17.62-.913-.2-2.012-.507-3.34-.96a57.01 57.01 0 0 1-2.12-.772c-7.9-3.05-13.628-6.875-18.799-10.358-4.159-2.803-11.326-6.572-21.77-7.961-11.408-1.52-19.103 2.222-19.153 2.247l-.002.001.012-.003c.062-.016.392-.098.959-.21 1.579-.313 4.964-.86 9.288-.833 2.432.015 5.161.21 8.033.732l.238.046c4.24.787 7.734 1.926 10.338 2.967 3.454 1.382 5.344 2.594 5.337 2.598.053.03.103.063.156.094 5.44 3.228 11.548 8.525 14.925 15.39-3.084-.405-6.16-1.048-9.155-1.846-16.274-4.345-30.17-13.27-30.17-13.27l-.303.302 4.162 4.624c-.88.884-1.6 1.922-2.112 3.105-.163.38-.303.765-.422 1.153a129.671 129.671 0 0 0-8.913-.979c-6.6-.48-12.56-.458-17.813-.146-11.32.675-19.352 2.7-23.4 3.954l-.38-.488c3.233-2 8.268-5.45 13.344-10.266.002 0-7.014 3.916-10.869 4.976-5.917-2.292-13.776-7.595-17.137-14.09.003-.03.029-.132.04-.176 12.662 5.445 27.813-1.018 27.813-1.018s-9.422 1.453-17.386-.087Zm10.793-39.865s8.88-4.387 21.606-7.843c11.892-3.23 27.891-6.341 45.406-6.341 31.968 0 58.554 10.782 58.81 10.892l.75.325-8.33 40.68h-36.728a79.174 79.174 0 0 0-4.292-2.913l2.462-12.506h-34.38a156.643 156.643 0 0 0-10.041-1.864c-13.457-2.063-23.847-4.845-31.978-8.004l1.411-6.854-4.696-5.572Zm127.464 75.22c-9.207-5.129-16.535-9.15-21.103-11.522a37.436 37.436 0 0 0-1.919-3.196c-.716-.1-1.437-.162-2.117-.2-1.672-3.12-5.892-8.442-8.213-11.076a89.065 89.065 0 0 0-1.778-1.95h33.582l11.065-54.159s-3.73-3.03-13.117-6.84c-10.912-4.429-30-10.02-55.614-10.02-14.038 0-35.476 1.575-57.897 9.086-15.442 4.98-26.169 12.23-26.169 12.23l8.733 10.007c-12.484-7.03-17.21-14.952-21.003-20.9 0 0-3.707 4.816-5.035 13.893-.547 3.723-.782 6.867-.63 9.762-4.828-3.515-6.57-6.908-6.57-6.908S6.001 51.84 16.04 64.505c-2.299-.443-4.978-1.334-8.09-2.865 0 0 1.316 10.761 13.921 18.923C13.73 87.51 8.35 93.948 6.723 97.376c9.416.947 17.548 3.88 24.334 7.614l-11.861 57.538L4.71 174.014s9.291 7.985 23.979 13.38c11.23 4.284 29.454 9.388 52.514 9.388 34.285 0 69.863-13.981 71.306-14.58l2.224-.915 11.355-55.374h-49.825c7.216-2.923 16.813-4.937 28.875-5.813 13.08-.85 38.904-.076 43.868-.234 6.077-.194 7.417-1.9 7.417-1.9s-1.847-5.718-18.227-14.843Z" fill="#112552"/></g></svg>