<svg width="200" height="200" xmlns="http://www.w3.org/2000/svg"><g fill="none"><path d="M170.456 181.41l-.188-2.8c-.023-.362 0-.807-.012-1.261h-.035c-.116.432-.26.922-.4 1.33l-.971 2.672h-.54l-.949-2.742a21.094 21.094 0 0 1-.342-1.26h-.035c-.012.444 0 .839-.024 1.26l-.174 2.8h-.681l.364-4.643h.926l.915 2.52c.116.349.21.735.329 1.165h.023c.105-.43.21-.839.327-1.176l.915-2.51h.914l.353 4.645h-.715zm-4.515-4.644v.595h-1.43v4.049h-.704v-4.049h-1.418v-.595h3.552zm-84.745 23.016c-23.522 0-42.123-5.184-53.587-9.535-14.988-5.48-24.466-13.496-24.863-13.838L0 174.067l16.479-13.001 11.187-54.017c-6.706-3.375-13.842-5.461-21.257-6.205l-4.218-.422 1.814-3.812c1.79-3.74 6.765-9.507 13.059-15.21C6.357 73.002 5.024 63.148 4.971 62.697l-.674-5.446 5.167 2.516C4.237 47.033 7.316 32.285 7.477 31.548l1.761-8.15 3.817 7.417c.008 0 .353.632 1.14 1.608a91.9 91.9 0 0 1 .441-3.528c1.431-9.685 5.462-14.982 5.63-15.202l2.605-3.355 2.704 4.226c1.874 2.943 3.987 6.25 7.167 9.648l.487-.33c.453-.307 11.261-7.506 26.928-12.536 22.778-7.588 44.562-9.184 58.82-9.184 27.42 0 47.323 6.385 56.749 10.188 9.692 3.914 13.711 7.117 13.876 7.255l1.41 1.137-11.918 58.036H149.61c1.809 2.232 3.843 4.92 5.241 7.155.244.026 2.067.278 2.067.278l.743 1.106a43.326 43.326 0 0 1 1.619 2.61c4.232 2.21 10.755 5.757 20.37 11.085 16.575 9.191 19.257 15.315 19.625 16.452l.493 1.508-.989 1.248c-.66.833-2.929 2.809-9.668 3.028-.507.013-1.217.02-2.103.02-1.918 0-4.69-.036-7.958-.073-2.812-.031-9.198-.098-9.198-.098l-.102.226-12.412 60.212-3.687 1.517c-.359.145-36.99 14.73-72.456 14.73" fill="#C8C7C7"/><path d="M149.739 90.552l-.454-.912c-2.496-5.023-11.406-13.855-17.407-18.1-7.42-5.25-14.362-8.869-21.848-11.39-6.963-2.346-14.776-3.892-25.327-5.015-17.2-1.829-27.308-3.33-34.817-6.46-6.889-2.87-11.586-5.455-15.705-8.647-3.737-2.893-6.106-6.128-6.13-6.16l-.997-1.572-.271 1.813.07.321c.91 4.216 3.872 8.812 8.34 12.94 3.724 3.44 8.269 6.36 13.02 8.387-13.11-2.184-20.46-7.016-24.372-10.812l-1.454-1.411.375 1.987c3.119 16.475 16.77 23.421 16.909 23.484l.146.047c2.469.475 5.317.715 8.467.715 1.054 0 2.13-.026 3.219-.08-2.935.733-6.61 1.368-10.538 1.368-4.144.001-7.913-.711-11.199-2.117l-1.275-.499.41 1.552c2.258 4.342 6.205 7.712 9.118 9.775 3.055 2.162 6.47 3.945 9.475 4.953-1.908 1.352-5.108 3.771-5.365 3.956l1.603 2.127s2.913-1.542 10.744-3.031c7.833-1.49 13.146-1.82 13.146-1.82s.586.055.694-.07c6.088-7.1 16.766-12.003 25.346-10.285.143-.083.453-.196.51-.253-1.133-1.69-8.128-3.973-10.195-3.663 0 0 .886-.237 1.204-.319 2.576-.658 5.956-1.614 10.279-1.587 2.678.032 5.03.008 7.84.498 4.24.785 7.878 1.776 10.482 2.813 1.876.764 6.472 3.103 8.25 4.127 3.9 2.302 10.13 6.564 14.594 11.31 6.014 2.018 10.232 2.253 11.452 2.245 1.217-.01 1.661-.215 1.661-.215" fill="#1E59AE"/><path d="M102.745 91.219c.12-.563.322-1.104.596-1.606 0 0 .523-.874 1.157-1.505.2-.199.442-.387.679-.555l-4.493-2.919c-1.392 1.101-2.382 2.59-2.756 4.32-.976 4.52 2.401 9.286 7.687 10.851l.266.079.503-1.072-.23-.152c-2.667-1.761-4.008-4.682-3.409-7.441m9.622 43.924l-3.128 15.195H73.93l.905-4.36a75.77 75.77 0 0 1-5.762-2.887l-.155.693s.002 0 .002.003l-1.609 7.754-8.09 3.87.28 1.22h54.812l3.13-15.198h30.178l-6.343 30.797c-3.428 1.07-30.933 9.4-58.01 9.4-15.52 0-29.24-2.876-38.016-5.284-7.25-1.993-12.4-3.996-14.46-4.847l2.283-1.762 11.337-54.715.002.004.143-.669a91.906 91.906 0 0 0-5.426-4.544l-11.843 57.171-7.914 6.024.838.48c.059.035 5.986 3.412 13.885 6.126 11.02 3.787 28.355 8.305 48.344 8.305 31.64 0 63.104-10.744 63.4-10.851l.873-.318 8.573-41.607h-42.919m64.437-110.25c-.251-.108-26.815-10.89-59.061-10.89-14.699 0-30.032 2.131-45.576 6.333-12.639 3.416-21.633 7.803-21.723 7.848l-.737.363 5.026 5.93-1.448 6.995c.979.371 3.101 1.16 5.936 2.075l.112-.53h-.002l2.28-11.004-1.423-1.54c2.2-.787 8.302-2.869 16.66-4.928 9.715-2.396 24.55-5.25 40.07-5.25 26.522 0 50.137 7.985 53.887 9.315l-6.379 31.026h-30.18l3.149-15.343H79.982l6.494 3.868c-.01-.003-.02-.004-.03-.005l.03.005.713.698c3.181.604 5.799 1.163 7.372 1.724h35.07l-2.529 12.781.373.235a77.814 77.814 0 0 1 3.296 2.207l.167.118H169.5l8.542-41.5-1.236-.53" fill="#1E59AE"/><path d="M102.443 86.422a6.696 6.696 0 0 0-2.108 3.592c-.777 3.617 1.51 7.371 5.266 9.045.01.006.093.031.1.037l.085-.298c-2.644-1.845-3.962-4.846-3.356-7.645.13-.595.338-1.164.629-1.693l.076-.143-.07-.147a2.143 2.143 0 0 1-.218-1.066c.027-.404.172-.784.421-1.1l.215-.271-.29-.192c-.195-.13-.385-.26-.57-.384l-.18.265m46.662 2.868c-1.255-2.338-3.866-5.583-7.351-9.139-3.31-3.372-6.91-6.511-9.876-8.611-7.42-5.25-14.362-8.869-21.848-11.39-6.963-2.346-14.776-3.892-25.327-5.015-17.2-1.829-27.308-3.33-34.817-6.46-6.889-2.87-11.586-5.455-15.705-8.647-3.73-2.887-6.106-6.128-6.13-6.16l-1.128-.914-.07 1.476c1.716 7.948 10.49 16.538 20.882 21.118 1.035.456 4.567 1.228 6.603 1.627.28.072.563.142.843.207 9.18 2.125 17.169 2.614 23.574 2.353-2.42 1.183-5.198 2.64-7.593 4.147l.116.121s17.92-6.05 37.246-.119l.163.05.724.234c17.293 5.637 28.97 16.166 35.786 24.468.285.38.796.935 1.267 1.074.696.208 1.345.377 1.938.505l1.356.295-.653-1.22" fill="#76AFE3"/><path d="M133.497 61.245l3.146-15.342H82.2l6.808 4.055-.046.227a165.54 165.54 0 0 0-3.06-.496c-10.324-1.576-19.503-3.682-27.28-6.264l2.327-11.23-1.83-1.982c.613-.23 7.436-2.759 17.562-5.256 9.751-2.406 24.65-5.273 40.237-5.273 15.101 0 29.148 2.595 38.273 4.772 9.568 2.282 15.868 4.593 16.324 4.76l-6.588 32.029h-31.43m-50.23 120.994c-15.588 0-29.366-2.886-38.178-5.306-9.089-2.496-14.907-5.022-15.496-5.28l2.926-2.261 11.508-55.535c5.934 5.265 9.245 9.992 10.394 11.785l.507.787-.93.141a12.71 12.71 0 0 1-1.886.128c-1.74 0-3.624-.253-4.9-.463l-.095-.015.066.069c2.56 2.679 9.872 9.719 22.424 17.195l-1.759 8.477-8.362 4.002.014.06h54.312l3.13-15.198h31.432l-6.57 31.876c-.87.28-29.93 9.538-58.537 9.538" fill="#FFF"/><path d="M93.668 145.738c-7.442-7.248-11.232-13.442-13.102-17.362-2.048-4.297-2.313-6.858-2.323-6.967l-.069-.718.726.02h.054c.32 0 3.007-.042 6.724-1.439-6.51-1.118-12.012-4.033-16.369-8.67-3.504-3.732-5.293-7.61-5.985-9.37-1.368.498-2.63 1.056-3.578 1.581l-.242.136-.721-.946.195-.197C69.458 91.264 82.681 89.69 89.629 89.69c2.227 0 3.87.16 4.65.254l.524.065.038.523c.34 4.572 3.617 8.584 8.767 10.728 1.586.66 3.331.993 5.181.993 4.853 0 9.944-2.37 12.383-5.769l.286-.4.463.175c1.24.468 2.45.968 3.594 1.487 9.587 4.344 13.586 9.436 15.251 12.942l.41.866-.96.046c-11 .527-20.902 3.047-28.635 7.284-7.542 4.135-12.933 9.84-15.587 16.51-1.291 3.24-1.817 7.335-1.252 9.738l.503 2.139-1.577-1.533m24.368-69.05a46.313 46.313 0 0 0-5.574-2.718c-3.279-1.304-6.799-2.31-10.468-2.988a52.37 52.37 0 0 0-8.685-.784c-2.452 0-4.607.482-6.284.693-1.33.206-3.65.976-3.67.986l-.005.001c5.266.76 9.093 2.624 9.57 3.046-9.5-1.365-19.95 4.46-25.006 10.61.088.255.038.637.038.637a129.63 129.63 0 0 1 7.667-.224c3.303 0 6.689.124 10.062.369 2.78.201 5.763.528 8.868.97l.545.077.16-.523c.112-.367.246-.732.398-1.082a9.327 9.327 0 0 1 1.978-2.892l.427-.429-2.641-2.919c4.898 2.83 15.727 8.582 27.905 11.815 3.189.847 6.295 1.472 9.235 1.855l1.187.155-.527-1.07c-2.94-5.943-8.47-11.623-15.18-15.585" fill="#FFF"/><path d="M107.683 89.013a112.584 112.584 0 0 1-4.2-2.666c-.036-.023-.281.223-.466.46-.28.354-.458.79-.491 1.277-.023.432.068.85.25 1.224.155.448.658 1.658.913 1.788a3.318 3.318 0 0 0 1.514.364c1.156 0 2.197-.615 2.715-1.606l.279-.53-.514-.311" fill="#FFF"/><path d="M190.026 115.758s-1.464-1.398-1.528-1.45c-1.47-1.358-3.49-2.83-6.002-4.368-10.352-6.667-24.16-12.276-29.718-14.415l-1.017-1.429-.18-.252s-3.53.108-7.823 1.694h-.002l-.169.064c-.008.002-.014.005-.022.009l-1.878.703.078.02c-3.863 1.672-6.7 4.102-6.7 4.102l32.632 9.387c-5.373-.73-21.828-3.374-21.828-3.374l5.933 6.452s13.005 1.36 33.56 2.584c.694.045 4.664.273 4.664.273" fill="#7B7979"/><path d="M140.766 110.688c-1.665-3.506-5.664-8.598-15.251-12.942 0 0-.286.208-.267.581.15 9.484-15.458 18.801-28.941 18.614 0 0 4.699-1.566 7.68-4.134-3.533 1.583-29.112 3.4-35.613-13.648-1.617.311-3.219.76-4.67 1.26-.204.071-.51.478-.448.637 1.308 3.417 6.995 15.56 22.422 18.216-3.717 1.397-6.405 1.439-6.724 1.439H78.9l-.726-.02.069.718c.01.109.275 2.67 2.323 6.967 1.87 3.92 5.66 10.114 13.102 17.362l1.576 1.533-.502-2.139c-.565-2.403-.039-6.498 1.252-9.738 2.654-6.67 8.045-12.375 15.587-16.51 7.733-4.237 17.636-6.757 28.635-7.284l.96-.046-.41-.866m-7.55-18.415c-2.94-5.943-8.47-11.623-15.18-15.585a46.262 46.262 0 0 0-5.574-2.718c-3.279-1.304-6.799-2.31-10.468-2.988a52.37 52.37 0 0 0-8.685-.784c-1.22 0-3.599.151-4.88.38-3.129.559-4.721 1.175-5.08 1.3 26.375-.764 37.856 12.51 40.136 18.84.274.567.801.868 1.28.986a71.393 71.393 0 0 0 7.79 1.484l1.188.155-.527-1.07m55.553 22.285s-.207-.198-.27-.25c-1.47-1.358-3.491-2.83-6.003-4.368-10.352-6.667-24.16-12.276-29.718-14.415l-1.017-1.429-.18-.252-.308-.016s-.048-.002-.138-.002c-.659 0-3.156.128-7.57 1.785l-.88.31s.78.187 1.106.287c13.293 3.506 34.127 13.415 44.29 18.8 1.686.907 1.945.75 1.945.75l-1.257-1.2m-71.851-94.905c-30.181 0-57.856 10.547-57.856 10.547l1.852 2.005-2.33 11.242c.63.208 1.27.415 1.924.62l2.582-12.463-.482-.524c7.752-2.605 30.363-9.426 54.31-9.426 24.306 0 46.531 6.778 52.313 8.824l-5.916 28.796h-27.39l3.148-15.34H75.036l9.312 5.544c.955.169 4.639.745 4.639.745l.056-.28-6.728-4.009h54.29l-3.147 15.344h31.495l6.597-32.082s-25.395-9.543-54.632-9.543" fill="#C8C7C7"/><path d="M116.917 140.792l-3.131 15.197H59.5l8.377-4.009 1.767-8.509c-.685-.41-1.706-1.03-1.828-1.11l-1.71 8.247-15.44 7.385h64.762l3.13-15.197h27.389l-5.852 28.387c-5.408 1.715-31.447 9.084-56.828 9.084-22.981 0-42.408-6.366-49.75-9.15l.793-.6 11.423-55.138a58.977 58.977 0 0 1-1.726-1.582l-11.516 55.578-2.96 2.282s23.552 10.615 53.736 10.615c29.24 0 58.565-9.546 58.565-9.546l6.58-31.934h-31.495" fill="#C8C7C7"/><path d="M188.081 115.007c-.558-.033-1.93-.113-2.683-.155-20.73-1.24-33.286-2.56-33.286-2.56l-4.492-4.885c11.307 2.009 26.189 3.862 26.189 3.862l-.197-.41-37.237-10.71s2.274-1.966 7.082-3.814c.112-.044.222-.085.334-.127 4.974-1.865 7.447-1.742 7.447-1.742l1.129 1.586c6.003 2.304 19.554 7.836 29.78 14.422 2.352 1.444 4.39 2.891 5.914 4.3.07.061.263.246.263.246s-.09-.006-.243-.013zm-92.685 20.15c-1.263 3.173-1.902 7.477-1.279 10.123-14.275-13.899-15.235-23.93-15.235-23.93s3.922.107 9.174-2.397c-17.505-1.808-23.309-15.6-24.352-18.534-1.707.589-3.208 1.247-4.27 1.836C72.922 88.69 90.98 90.186 94.202 90.58c.334 4.512 3.507 8.917 9.161 11.27 6.643 2.766 14.981-.326 18.33-4.993 1.267.478 2.447.97 3.555 1.471 9.562 4.332 13.4 9.4 14.94 12.635-22.85 1.096-39.325 10.471-44.792 24.196zm50.759 41.114l-.534.193c-.303.111-31.793 10.813-63.18 10.813-19.881 0-37.127-4.486-48.135-8.27-7.93-2.724-13.772-6.076-13.772-6.076l7.338-5.585 11.676-56.377c7.094 5.391 11.927 11.212 14.357 14.997-3.142.483-8.293-.65-8.293-.65l-.059.095s8.835 10.595 28.47 21.297l-.887 4.272h36.63l3.128-15.194h41.6l-8.34 40.485zM105.6 99.06c.065.046.132.09.198.134-4.934-1.46-8.153-5.892-7.244-10.105.327-1.509 1.138-2.792 2.28-3.768.464.324 1.004.695 1.608 1.102.183.125.377.253.574.384a114.83 114.83 0 0 0 4.331 2.752c-.44.84-1.381 1.363-2.435 1.247a2.703 2.703 0 0 1-2.137-1.497 6.619 6.619 0 0 0-.66 1.777c-.654 3.017.823 6.116 3.485 7.974zM39.94 68.424c-.897-.411-13.577-7.337-16.546-23.022 8.027 7.789 20.506 10.842 30.945 11.773-12.794-3.277-24.833-13.5-26.858-22.88l.05-.053s2.39 3.297 6.257 6.29c4.037 3.127 8.684 5.746 15.852 8.732 7.838 3.267 18.59 4.762 34.997 6.507 19.523 2.076 32.019 5.784 46.87 16.29 5.99 4.238 14.433 12.684 17.032 17.53-.913-.199-2.012-.504-3.34-.955a56.754 56.754 0 0 1-2.12-.768c-7.9-3.034-13.628-6.84-18.799-10.305-4.159-2.79-11.326-6.54-21.77-7.922-11.408-1.513-19.103 2.211-19.153 2.236l-.002.001.012-.003c.062-.016.392-.097.959-.209 1.579-.311 4.964-.855 9.288-.828a47.01 47.01 0 0 1 8.033.728c.079.014.157.03.238.046a55.16 55.16 0 0 1 10.338 2.952c3.454 1.375 5.344 2.58 5.337 2.585.053.03.103.062.156.093 5.44 3.212 11.548 8.482 14.925 15.312-3.084-.402-6.16-1.042-9.155-1.837-16.274-4.322-30.17-13.202-30.17-13.202l-.303.3 4.162 4.6c-.88.88-1.6 1.913-2.112 3.09-.163.378-.303.761-.422 1.148-3.023-.43-6.008-.764-8.913-.974-6.6-.479-12.56-.457-17.813-.146-11.32.671-19.352 2.686-23.4 3.934l-.38-.485c3.233-1.99 8.268-5.423 13.344-10.215.002 0-7.014 3.897-10.869 4.951-5.917-2.28-13.776-7.557-17.137-14.02.003-.028.029-.13.04-.174 12.662 5.418 27.813-1.013 27.813-1.013s-9.422 1.446-17.386-.087zM50.732 28.76s8.88-4.365 21.606-7.804c11.892-3.214 27.891-6.309 45.406-6.309 31.968 0 58.554 10.728 58.81 10.837l.75.324-8.33 40.475h-36.728a79.196 79.196 0 0 0-4.292-2.898l2.462-12.443h-34.38a157.355 157.355 0 0 0-10.041-1.855c-13.457-2.053-23.847-4.82-31.978-7.963l1.411-6.82-4.696-5.544zm127.464 74.84c-9.207-5.102-16.535-9.103-21.103-11.463a37.21 37.21 0 0 0-1.919-3.18 26.234 26.234 0 0 0-2.117-.2c-1.672-3.103-5.892-8.398-8.213-11.02a88.782 88.782 0 0 0-1.778-1.94h33.582l11.065-53.886s-3.73-3.016-13.117-6.805c-10.912-4.408-30-9.971-55.614-9.971-14.038 0-35.476 1.567-57.897 9.04-15.442 4.955-26.169 12.17-26.169 12.17l8.733 9.956c-12.484-6.995-17.21-14.877-21.003-20.795 0 0-3.707 4.791-5.035 13.823-.547 3.704-.782 6.832-.63 9.713-4.828-3.498-6.57-6.873-6.57-6.873s-4.41 20.405 5.628 33.007c-2.299-.441-4.978-1.328-8.09-2.85 0 0 1.316 10.706 13.921 18.827C13.73 88.066 8.35 94.47 6.723 97.88c9.416.943 17.548 3.86 24.334 7.576l-11.861 57.25L4.71 174.134s9.291 7.945 23.979 13.314c11.23 4.262 29.454 9.34 52.514 9.34 34.285 0 69.863-13.91 71.306-14.506l2.224-.911 11.355-55.096h-49.825c7.216-2.908 16.813-4.912 28.875-5.783 13.08-.847 38.904-.076 43.868-.233 6.077-.194 7.417-1.89 7.417-1.89s-1.847-5.69-18.227-14.769z" fill="#112552"/></g></svg>