<?xml version="1.0" encoding="UTF-8"?>
<svg width="200px" height="200px" viewBox="0 0 200 200" version="1.1" xmlns="http://www.w3.org/2000/svg" xmlns:xlink="http://www.w3.org/1999/xlink">
    <!-- Generator: Sketch 51.3 (57544) - http://www.bohemiancoding.com/sketch -->
    <title>creighton</title>
    <desc>Created with Sketch.</desc>
    <defs></defs>
    <g id="creighton" stroke="none" stroke-width="1" fill="none" fill-rule="evenodd">
        <g id="creighton_BGL" transform="translate(0.000000, 1.990050)">
            <g id="creighton">
                <g id="g10" transform="translate(99.971037, 98.899295) scale(-1, 1) rotate(-180.000000) translate(-99.971037, -98.899295) translate(0.000000, 0.006920)" fill-rule="nonzero">
                    <g id="g12">
                        <path d="M170.456063,18.3721285 L170.2684,21.1723963 C170.244537,21.5341026 170.2684,21.9783115 170.256353,22.4326862 L170.220905,22.4326862 C170.104832,22.0007179 169.961421,21.5108664 169.821716,21.1021574 L168.849808,18.4306571 L168.309524,18.4306571 L167.361015,21.1723963 C167.242162,21.5459052 167.126089,22.0007179 167.019283,22.4326862 L166.983836,22.4326862 C166.972484,21.9889384 166.983836,21.5938069 166.960436,21.1723963 L166.785747,18.3721285 L166.104601,18.3721285 L166.468574,23.0158977 L167.395073,23.0158977 L168.309524,20.495433 C168.426292,20.1468432 168.520355,19.7610016 168.638513,19.3308543 L168.662145,19.3308543 C168.766865,19.7610016 168.872744,20.1697337 168.98928,20.5071203 L169.9035,23.0158977 L170.818183,23.0158977 L171.171035,18.3721285 L170.456063,18.3721285 Z M165.941264,23.0158977 L165.941264,22.4206993 L164.510393,22.4206993 L164.510393,18.3721285 L163.807236,18.3721285 L163.807236,22.4206993 L162.388643,22.4206993 L162.388643,23.0158977 L165.941264,23.0158977 Z" id="path14" fill="#C8C7C7"></path>
                        <path d="M81.1957118,0 C57.6736736,0 39.0728053,5.18415034 27.6091508,9.53472325 C12.6210017,15.0143981 3.14319135,23.0302359 2.74590205,23.3729476 L0,25.7143225 L16.4790497,38.7157882 L27.665913,92.7324628 C20.960208,96.1077125 13.8241294,98.1939037 6.40929031,98.9373253 L2.19120991,99.3598655 L4.00484207,103.172178 C5.79586432,106.911647 10.770159,112.678524 17.0639556,118.380857 C6.35732391,126.780715 5.02308704,136.635145 4.97130599,137.085808 L4.29653045,142.531343 C4.29653045,142.531343 9.39491433,140.049582 9.46351555,140.015466 C4.23661733,152.749069 7.31609597,167.496711 7.47746289,168.23414 L9.23843591,176.383655 L13.0553139,168.966496 C13.0630984,168.966496 13.4075409,168.334646 14.1949142,167.3584 C14.3101995,168.466041 14.4571789,169.639841 14.6360147,170.886484 C16.0670022,180.571943 20.0984646,185.868563 20.2668052,186.088478 L22.8705931,189.443442 L25.575441,185.217579 C27.4485947,182.275013 29.56154,178.966844 32.7420785,175.570156 L33.2290753,175.899105 C33.6817831,176.206617 44.4902393,183.406166 60.157311,188.435385 C82.9351847,196.024049 104.718908,197.619236 118.977582,197.619236 C146.396984,197.619236 166.299677,191.234339 175.725683,187.431939 C185.418356,183.518198 189.437122,180.314915 189.601849,180.176835 L191.011174,179.039918 L179.093653,121.003234 L149.611117,121.003234 C151.419863,118.771586 153.454499,116.083972 154.852472,113.848405 C155.095507,113.823048 156.919313,113.571092 156.919313,113.571092 L157.661855,112.464373 C158.305701,111.500806 158.844595,110.620918 159.280853,109.854905 C163.512536,107.644695 170.036486,104.09794 179.651313,98.7692775 C196.225886,89.5787412 198.907612,83.4547906 199.275987,82.317874 L199.769239,80.8093619 L198.780418,79.5613355 C198.120122,78.7284727 195.851487,76.7526999 189.111608,76.5341685 C188.604687,76.521029 187.89458,76.5131913 187.009321,76.5131913 C185.090989,76.5131913 182.318443,76.5500743 179.051487,76.5871877 C176.23886,76.6180772 169.853225,76.684236 169.853225,76.684236 L169.750821,76.4585585 L157.338658,16.2464957 L153.652125,14.7301229 C153.293248,14.5842509 116.661914,0 81.1957118,0" id="path16" fill="#C8C7C7"></path>
                        <path d="M149.739006,109.22997 L149.284908,110.142131 C146.789223,115.164434 137.878711,123.996515 131.878132,128.242202 C124.457338,133.491105 117.516128,137.110243 110.029537,139.631192 C103.06678,141.977407 95.2539797,143.524186 84.7026912,144.646349 C67.5021124,146.475743 57.3949595,147.97757 49.8858951,151.106395 C42.997045,153.976579 38.2999122,156.562073 34.1808274,159.75383 C30.4444823,162.647066 28.0748328,165.881469 28.0502744,165.913742 L27.0535759,167.485877 L26.782739,165.673081 L26.8531705,165.351508 C27.7636831,161.135788 30.7252816,156.540174 35.1937437,152.41159 C38.9168829,148.971104 43.4620319,146.051819 48.2124517,144.024871 C35.1031558,146.209033 27.753489,151.040698 23.8410651,154.836413 L22.3865155,156.248107 L22.7621888,154.260578 C25.880567,137.786123 39.5324635,130.839222 39.6705464,130.776982 L39.8169698,130.729956 C42.2855477,130.254857 45.1338535,130.014427 48.2842733,130.014427 C49.3381974,130.014427 50.413668,130.040706 51.5030395,130.093956 C48.5680845,129.361368 44.8929036,128.726751 40.9647253,128.726751 C36.8206188,128.725599 33.0518382,129.43767 29.7661157,130.843832 L28.4911664,131.342443 L28.9005495,129.790363 C31.1592231,125.44855 35.1061677,122.078602 38.0193445,120.016154 C41.0736161,117.853431 44.4888492,116.070833 47.4937723,115.062545 C45.5863296,113.711016 42.3856346,111.291265 42.1286986,111.10662 L43.7321738,108.979627 C43.7321738,108.979627 46.6453507,110.521564 54.4762222,112.011174 C62.3087155,113.499861 67.622124,113.830886 67.622124,113.830886 C67.622124,113.830886 68.2082809,113.776022 68.31555,113.900502 C74.4039367,121.000698 85.0817239,125.903363 93.6618569,124.185309 C93.8050368,124.268296 94.1145647,124.381711 94.1717903,124.438418 C93.0390941,126.128579 86.0439017,128.411863 83.9768296,128.101586 C83.9768296,128.101586 84.8632472,128.339019 85.1808841,128.420392 C87.7571944,129.078753 91.1372117,130.034251 95.4597138,130.008203 C98.1381962,129.975469 100.490701,129.999904 103.300779,129.509822 C107.539876,128.724677 111.178219,127.733448 113.781636,126.697037 C115.657802,125.932408 120.254153,123.593799 122.03278,122.569376 C125.931766,120.268111 132.162638,116.005596 136.625771,111.260376 C142.639556,109.241265 146.857569,109.006598 148.07761,109.014435 C149.295102,109.023886 149.739006,109.22997 149.739006,109.22997" id="path18" fill="#1E59AE"></path>
                        <path d="M102.744973,108.56285 C102.865216,109.125776 103.06678,109.667033 103.34086,110.169102 C103.34086,110.169102 103.864231,111.042305 104.497652,111.673695 C104.69852,111.872402 104.940165,112.060735 105.176713,112.228783 L100.683925,115.147607 C99.2917438,114.04642 98.3017641,112.558655 97.9278284,110.827462 C96.9517497,106.307228 100.329218,101.541491 105.615057,99.9767326 L105.881028,99.8981259 L106.384243,100.969575 L106.153719,101.121487 C103.486589,102.883108 102.146305,105.804006 102.744973,108.56285" id="path20" fill="#1E59AE"></path>
                        <path d="M112.367446,64.6382688 L109.239267,49.4436514 L73.9282924,49.4436514 L74.8339396,53.8039061 C72.841006,54.6955511 70.914797,55.6694912 69.0722253,56.6902264 L68.9172297,55.9979798 C68.9172297,55.9979798 68.9186198,55.9979798 68.9186198,55.994522 L67.3100475,48.2410372 L59.2194599,44.3708645 L59.5000275,43.1511919 L114.311726,43.1511919 L117.442453,58.3490365 L147.620269,58.3490365 L141.277031,27.5513233 C137.849055,26.4814876 110.344393,18.1510614 83.2671859,18.1510614 C67.747696,18.1510614 54.027453,21.0274233 45.2508532,23.4358791 C38.0012733,25.4284797 32.8514327,27.4312232 30.7917745,28.2829885 L33.073848,30.0450708 L44.4110038,84.7592939 C44.4126256,84.7553751 44.4126256,84.7553751 44.4133206,84.7553751 L44.5558054,85.4245699 C42.2074707,87.5513322 40.155458,89.1778698 39.1304942,89.9685477 L27.2868803,32.7976905 L19.3727421,26.7735543 L20.2114099,26.2945372 C20.2695159,26.2588068 26.196582,22.881298 34.0957999,20.1678434 C45.116709,16.3806804 62.4512003,11.8625206 82.440079,11.8625206 C114.079348,11.8625206 145.543697,22.6062896 145.840946,22.7138956 L146.712768,23.0312963 L155.285719,64.6382688 L112.367446,64.6382688" id="path22" fill="#1E59AE"></path>
                        <path d="M176.805324,174.888282 C176.553717,174.996396 149.99015,185.77797 117.743872,185.77797 C103.045233,185.77797 87.712248,183.647519 72.1679681,179.44563 C59.5292195,176.029809 50.5353014,171.643045 50.4454085,171.598094 L49.7077312,171.235028 L54.7336216,165.30379 L53.2860688,158.309402 C54.264696,157.938268 56.3873719,157.150356 59.22224,156.234507 L59.3341427,156.764007 C59.3322893,156.764007 59.3322893,156.764007 59.3322893,156.764007 L61.6122776,167.768723 L60.1892832,169.309277 C62.3891094,170.095806 68.4911654,172.177617 76.8481881,174.236607 C86.5635657,176.632615 101.399824,179.487585 116.918155,179.487585 C143.44141,179.487585 167.056353,171.502198 170.806135,170.172107 L164.427219,139.146181 L134.246391,139.146181 L137.395884,154.488791 L79.9819268,154.488791 L86.4759897,150.620924 C86.4664907,150.623459 86.4565284,150.624612 86.4467977,150.625995 L86.4759897,150.620232 L87.1888771,149.923145 C90.3703424,149.319186 92.9876606,148.759488 94.561017,148.198406 L129.631274,148.198406 L127.102458,135.417547 L127.475467,135.182648 C128.591019,134.47611 129.700547,133.733841 130.771384,132.976127 L130.938427,132.857871 L169.499214,132.857871 L178.041119,174.357168 L176.805324,174.888282" id="path24" fill="#1E59AE"></path>
                        <path d="M102.442627,113.359706 C101.397275,112.42311 100.645697,111.200671 100.335474,109.767769 C99.5584105,106.150245 101.844191,102.396253 105.601156,100.722459 C105.610423,100.716697 105.69406,100.69157 105.701938,100.685577 L105.786038,100.983867 C103.141845,102.829167 101.824266,105.829594 102.429884,108.629009 C102.559163,109.223976 102.768141,109.792435 103.058671,110.321474 L103.135126,110.464857 L103.06539,110.612158 C102.901127,110.949406 102.824672,111.317775 102.846681,111.677383 C102.87402,112.081482 103.01859,112.461607 103.268112,112.778569 L103.483114,113.049198 L103.193742,113.240989 C102.998202,113.371232 102.807527,113.499861 102.622413,113.624572 C102.622413,113.624572 102.525801,113.480728 102.442627,113.359706" id="path26" fill="#76AFE3"></path>
                        <path d="M149.105122,110.491366 C147.849634,112.829283 145.239498,116.07429 141.753602,119.630728 C138.44448,123.002289 134.844596,126.14218 131.878132,128.242202 C124.457338,133.491105 117.516128,137.110243 110.029537,139.631192 C103.06678,141.977407 95.2539797,143.524186 84.7026912,144.646349 C67.5021124,146.475743 57.3949595,147.97757 49.8858951,151.106395 C42.997045,153.976579 38.2999122,156.562073 34.1808274,159.75383 C30.4509694,162.640612 28.0748328,165.88193 28.0502744,165.913742 L26.9231386,166.827747 L26.8531705,165.351508 C28.5687801,157.404157 37.3435264,148.81389 47.7347222,144.233721 C48.7703434,143.777525 52.3021128,143.005519 54.3379077,142.606723 C54.6184753,142.53434 54.9006647,142.464723 55.1812323,142.399717 C64.3618866,140.274568 72.3498389,139.785408 78.7547041,140.046586 C76.3354745,138.863565 73.5569052,137.407612 71.1617706,135.900021 L71.2776119,135.778308 C71.2776119,135.778308 89.1971017,141.829415 108.524295,135.897716 C108.582216,135.880888 108.631796,135.864061 108.6874,135.847002 C108.926264,135.770009 109.167909,135.692094 109.411176,135.613257 C126.703501,129.977083 138.38123,119.448157 145.197332,111.145577 C145.48207,110.765683 145.993393,110.210595 146.463941,110.071362 C147.159684,109.864126 147.808626,109.694695 148.401966,109.566296 L149.75754,109.271924 L149.105122,110.491366" id="path28" fill="#76AFE3"></path>
                        <path d="M133.496666,138.53669 L136.642916,153.87907 L82.1998242,153.87907 L89.0078171,149.823791 L88.9617122,149.596731 C87.9175188,149.775843 86.8883847,149.941817 85.9018803,150.093037 C75.5783358,151.668399 66.3990716,153.774876 58.6224138,156.35622 L60.9494337,167.586152 L59.1184462,169.56838 C59.7319417,169.798437 66.5554574,172.327223 76.6806815,174.824659 C86.4324334,177.230579 101.331014,180.097306 116.918155,180.097306 C132.018995,180.097306 146.066142,177.503052 155.190729,175.325806 C164.759451,173.043444 171.059364,170.732728 171.514621,170.564911 L164.926726,138.53669 L133.496666,138.53669" id="path30" fill="#FFFFFF"></path>
                        <path d="M83.2671859,17.5431614 C67.6791179,17.5431614 53.9014177,20.4285136 45.0891388,22.8485183 C35.9999991,25.3445711 30.1824493,27.8708217 29.5925854,28.1283107 L32.5187365,30.3901568 L44.0266424,85.9250252 C49.9611919,80.6592945 53.2719361,75.9329766 54.4208501,74.1400049 L54.9277716,73.3527847 L53.9984927,73.2112464 C53.4526485,73.1282598 52.8176066,73.0840003 52.1116697,73.0840003 C50.3724285,73.0840003 48.4876906,73.3366484 47.2120463,73.5466506 L47.1168248,73.5620954 L47.1833177,73.4929398 C49.743642,70.8138555 57.0553128,63.773825 69.6069487,56.2976537 L67.8480145,47.8210327 L59.4858948,43.8187731 L59.5000275,43.7595298 L113.812218,43.7595298 L116.942945,58.9571439 L148.3737,58.9571439 L141.804109,27.0803743 C140.933909,26.800986 111.87373,17.5431614 83.2671859,17.5431614" id="path32" fill="#FFFFFF"></path>
                        <path d="M93.667649,54.0434147 C86.2255409,61.2916033 82.4356771,67.4856315 80.5662302,71.4053656 C78.5183878,75.7026888 78.2531113,78.2642088 78.2426856,78.3730134 L78.1741075,79.0903865 L78.8995057,79.071023 L78.9541828,79.071023 C79.2734414,79.071023 81.9611911,79.1129773 85.6776115,80.5096881 C79.1677941,81.6279326 73.6660277,84.5426067 69.3092366,89.1787918 C65.8050375,92.911345 64.0164479,96.7888943 63.3239486,98.5500545 C61.9560946,98.0514433 60.6948146,97.4935889 59.7460744,96.9686986 L59.5044294,96.8329233 L58.7825065,97.7782791 L58.9780466,97.9760638 C69.4584402,108.518129 82.6812606,110.091878 89.6294214,110.091878 C91.8563545,110.091878 93.4987524,109.93259 94.278596,109.837386 L94.803357,109.773071 L94.8408896,109.250025 C95.1803046,104.677463 98.4581499,100.665982 103.608454,98.5219313 C105.194321,97.8612657 106.939354,97.5286277 108.789108,97.5286277 C113.641932,97.5286277 118.732925,99.899509 121.171616,103.29735 L121.458207,103.697299 L121.921109,103.522566 C123.160148,103.054844 124.370457,102.554619 125.514506,102.035953 C135.102458,97.6918347 139.1013,92.5999147 140.766171,89.0937306 L141.176944,88.2279036 L140.216156,88.1817999 C129.216562,87.6546045 119.313521,85.1343473 111.581115,80.897881 C104.038688,76.7630732 98.6478979,71.0568219 95.9935105,64.3876953 C94.7030385,61.1475293 94.177119,57.0526013 94.7421928,54.649678 L95.2447124,52.5111592 L93.667649,54.0434147" id="path34" fill="#FFFFFF"></path>
                        <path d="M118.036024,123.093344 C116.279638,124.104397 114.404399,125.017942 112.461509,125.811616 C109.1832,127.115428 105.663478,128.12141 101.994321,128.799365 C99.2157519,129.285758 96.3966382,129.54901 93.6152887,129.582205 C93.5142751,129.583127 93.4102496,129.584049 93.308541,129.584049 C90.8566441,129.584049 88.7017644,129.101805 87.0253091,128.89065 C85.6952194,128.684566 83.3756133,127.914866 83.3556886,127.904262 C83.3526767,127.90334 83.3512867,127.90334 83.3496649,127.90334 C88.6160418,127.144473 92.4434382,125.27981 92.9197776,124.858192 C83.4191696,126.222861 72.9695898,120.398123 67.9138124,114.248354 C68.0018518,113.992479 67.9518083,113.61051 67.9518083,113.61051 C70.4657961,113.760117 73.0441916,113.834574 75.6188802,113.834574 C78.9215155,113.834574 82.3075566,113.711016 85.6813184,113.465745 C88.4603511,113.264733 91.4444229,112.938088 94.5485062,112.495954 L95.0943504,112.418961 L95.2539797,112.942007 C95.366114,113.308992 95.5000266,113.673672 95.6520104,114.023599 C96.1176924,115.09574 96.7819263,116.068066 97.6298846,116.915221 L98.057339,117.344447 L95.4156941,120.2635 C100.313927,117.432966 111.142772,111.681302 123.320935,108.448513 C126.509583,107.601358 129.615983,106.977114 132.555803,106.593301 L133.743177,106.439084 L133.21633,107.50892 C130.27651,113.451453 124.74671,119.131425 118.036024,123.093344" id="path36" fill="#FFFFFF"></path>
                        <path d="M107.683056,110.769141 C106.320299,111.590708 104.907498,112.487194 103.483114,113.434625 C103.446508,113.457446 103.201851,113.211252 103.016736,112.975663 C102.737559,112.621125 102.559163,112.184293 102.525801,111.697438 C102.502633,111.265677 102.594147,110.847978 102.776018,110.473386 C102.930782,110.025719 103.433765,108.815267 103.688848,108.685255 C104.046102,108.504068 104.436256,108.384659 104.842859,108.342013 C104.961712,108.328643 105.084967,108.321958 105.202893,108.321958 C106.359453,108.321958 107.400171,108.93652 107.917982,109.927518 L108.196696,110.458402 L107.683056,110.769141" id="path38" fill="#FFFFFF"></path>
                        <path d="M190.026291,84.0241709 C190.026291,84.0241709 188.561826,85.4218037 188.498345,85.4745924 C187.028782,86.8318845 185.008046,88.3039747 182.495912,89.8419931 C172.144102,96.5083534 158.335357,102.117787 152.777755,104.256536 L151.760668,105.68575 L151.580882,105.937246 C151.580882,105.937246 148.050503,105.829594 143.757656,104.243397 L143.755571,104.243397 L143.587138,104.180004 C143.579029,104.177238 143.572774,104.174241 143.564665,104.170784 L141.686646,103.467242 L141.764723,103.447186 C137.902111,101.775928 135.064231,99.3453428 135.064231,99.3453428 L167.697187,89.9588659 C162.324236,90.6886871 145.869212,93.3322715 145.869212,93.3322715 L151.802139,86.8807543 C151.802139,86.8807543 164.806715,85.5209266 185.361826,84.2968741 C186.05641,84.2516925 190.026291,84.0241709 190.026291,84.0241709" id="path40" fill="#7B7979"></path>
                        <path d="M140.766171,89.0937306 C139.1013,92.5999147 135.102458,97.6918347 125.514506,102.035953 C125.514506,102.035953 125.228841,101.827795 125.247608,101.454355 C125.398433,91.9708301 109.790209,82.6535088 96.3067453,82.8404591 C96.3067453,82.8404591 101.005963,84.4063703 103.987487,86.9743448 C100.454095,85.3916058 74.8751791,83.5741991 68.3743974,100.623106 C66.7572529,100.311445 65.1553995,99.8630871 63.7036764,99.3626317 C63.499564,99.2916321 63.1942064,98.8849977 63.2558339,98.7252485 C64.5641455,95.3082749 70.2514897,83.1657205 85.6776115,80.5096881 C81.9611911,79.1129773 79.2734414,79.071023 78.9541828,79.071023 L78.8995057,79.071023 L78.1741075,79.0903865 L78.2426856,78.3730134 C78.2531113,78.2642088 78.5183878,75.7026888 80.5662302,71.4053656 C82.4356771,67.4856315 86.2255409,61.2916033 93.667649,54.0434147 L95.244249,52.5111592 L94.7421928,54.649678 C94.177119,57.0526013 94.7030385,61.1475293 95.9935105,64.3876953 C98.6478979,71.0568219 104.038688,76.7630732 111.581115,80.897881 C119.313521,85.1343473 129.216562,87.6546045 140.216156,88.1817999 L141.176944,88.2279036 L140.766171,89.0937306" id="path42" fill="#C8C7C7"></path>
                        <path d="M133.21633,107.50892 C130.27651,113.451453 124.74671,119.131425 118.036024,123.093344 C116.279638,124.104397 114.405094,125.017942 112.461509,125.811616 C109.1832,127.115428 105.663478,128.12141 101.994321,128.799365 C99.2157519,129.285758 96.3966382,129.54901 93.6152887,129.582205 C93.5142751,129.583127 93.4102496,129.584049 93.308541,129.584049 C92.0885004,129.584049 89.7102787,129.432368 88.429074,129.203924 C85.3004323,128.644917 83.7078462,128.028972 83.3496649,127.90334 C109.723716,128.667739 121.204746,115.393109 123.484967,109.064227 C123.758584,108.49623 124.286125,108.195865 124.765708,108.07807 C127.447202,107.417635 130.06174,106.919023 132.555803,106.593301 L133.743177,106.439084 L133.21633,107.50892" id="path44" fill="#C8C7C7"></path>
                        <path d="M188.76895,85.2233274 C188.76895,85.2233274 188.561826,85.4218037 188.498345,85.4745924 C187.028782,86.8318845 185.008046,88.3039747 182.495912,89.8419931 C172.144102,96.5083534 158.335357,102.117787 152.777755,104.256536 L151.760668,105.68575 L151.580882,105.937246 L151.272745,105.953613 C151.272745,105.953613 151.225481,105.955226 151.135357,105.955226 C150.475988,105.955226 147.978913,105.827519 143.564665,104.170784 L142.685429,103.860736 C142.685429,103.860736 143.465041,103.673786 143.790787,103.573741 C157.083576,100.067326 177.918327,90.1591864 188.081084,84.7742776 C189.766575,83.8667269 190.026291,84.0241709 190.026291,84.0241709 L188.76895,85.2233274" id="path46" fill="#C8C7C7"></path>
                        <path d="M116.918155,180.128656 C86.7368643,180.128656 59.061684,169.58175 59.061684,169.58175 L60.9144497,167.576471 L58.5837228,156.334321 C59.2138995,156.126394 59.8547335,155.919849 60.5080784,155.713996 L63.0904126,168.177893 L62.6078177,168.702092 C70.3599172,171.306949 92.9707477,178.127987 116.918155,178.127987 C141.224207,178.127987 163.449055,171.349826 169.231389,169.303975 L163.314679,140.507392 L135.925858,140.507392 L139.073034,155.848619 L75.0355035,155.848619 L84.3475218,150.303269 C85.3032125,150.134991 88.9867339,149.559156 88.9867339,149.559156 L89.0432645,149.839466 L82.3149704,153.847489 L136.604456,153.847489 L133.457975,138.503957 L164.95337,138.503957 L171.5503,170.585888 C171.5503,170.585888 146.154876,180.128656 116.918155,180.128656" id="path48" fill="#C8C7C7"></path>
                        <path d="M116.916533,58.9898775 L113.786038,43.7927245 L59.5000275,43.7927245 L67.8765115,47.8014387 L69.6435546,56.3103322 C68.9593959,56.7199633 67.938139,57.3409798 67.816274,57.4202781 L66.1057615,49.1741755 L50.6657387,41.7883674 L115.427509,41.7883674 L118.558931,56.9859815 L145.946594,56.9859815 L140.094986,28.5985682 C134.686588,26.8835116 108.648477,19.514831 83.2671859,19.514831 C60.2858948,19.514831 40.859078,25.8802957 33.5165934,28.6649574 L34.3101063,29.2640746 L45.733448,84.4024515 C45.3247599,84.7615991 44.3639722,85.6306533 44.0071811,85.9842685 L32.4909346,30.4069846 L29.5309578,28.1243919 C29.5309578,28.1243919 53.0831148,17.5094827 83.2671859,17.5094827 C112.506224,17.5094827 141.832374,27.0559393 141.832374,27.0559393 L148.411696,58.9898775 L116.916533,58.9898775" id="path50" fill="#C8C7C7"></path>
                        <path d="M188.081084,84.7742776 C187.522729,84.8074723 186.150473,84.8876927 185.397968,84.930108 C164.667937,86.1705273 152.112362,87.4890923 152.112362,87.4890923 L147.620269,92.3742373 C158.926611,90.3661919 173.808973,88.5128243 173.808973,88.5128243 L173.61158,88.923608 L136.375322,99.6330297 C136.375322,99.6330297 138.648592,101.598429 143.456932,103.447186 C143.568603,103.490524 143.679116,103.532017 143.790787,103.573741 C148.765012,105.439096 151.23776,105.315538 151.23776,105.315538 L152.366981,103.729571 C158.370341,101.426002 171.921224,95.8933305 182.147925,89.3076516 C184.49904,87.8641456 186.536688,86.4162599 188.060928,85.0071012 C188.131359,84.9464748 188.323888,84.7615991 188.323888,84.7615991 C188.323888,84.7615991 188.234921,84.7675926 188.081084,84.7742776 Z M95.3960011,64.6242072 C94.133331,61.4520441 93.493887,57.1480359 94.1171132,54.5021462 C79.8415271,68.4005589 78.8823612,78.4324872 78.8823612,78.4324872 C78.8823612,78.4324872 82.803589,78.3250656 88.056065,80.828956 C70.5508236,82.637142 64.7474064,96.4279025 63.7036764,99.3626317 C61.9968707,98.7738878 60.4957992,98.1157579 59.4344613,97.526553 C72.9216315,111.091406 90.9794359,109.595341 94.2021407,109.202769 C94.536227,104.691063 97.7086567,100.285858 103.363102,97.9324958 C110.006137,95.1665061 118.344162,98.2586793 121.693828,102.925523 C122.959742,102.447659 124.140397,101.956655 125.247608,101.454355 C134.809611,97.1226849 138.648592,92.0556609 140.187196,88.8198747 C117.337732,87.7235295 100.862552,78.3485785 95.3960011,64.6242072 Z M146.154876,23.510567 L145.621079,23.3176232 C145.317807,23.2065133 113.827741,12.5042607 82.440079,12.5042607 C62.5598594,12.5042607 45.3136392,16.991093 34.3061677,20.7738531 C26.3752093,23.4990411 20.5336803,26.8510085 20.5336803,26.8510085 L27.8718788,32.4353156 L39.548218,88.8127287 C46.6418755,83.4215959 51.4747743,77.6010075 53.9051246,73.8158961 C50.7628137,73.3331906 45.611583,74.4664189 45.611583,74.4664189 L45.5529673,74.3705232 C45.5529673,74.3705232 54.3877195,63.7758996 74.0230506,53.074085 L73.1361696,48.8021189 L109.765882,48.8021189 L112.89406,63.9955836 L154.494754,63.9955836 L146.154876,23.510567 Z M105.601156,100.722459 C105.665795,100.677047 105.733215,100.633018 105.798781,100.588759 C100.864637,102.048401 97.6463341,106.481039 98.5545298,110.693531 C98.8818973,112.202274 99.6934814,113.485339 100.83475,114.462045 C101.29881,114.138167 101.838862,113.766571 102.442627,113.359706 C102.626351,113.234765 102.82027,113.106597 103.016736,112.975663 C104.275005,112.136806 105.756615,111.183613 107.348274,110.223273 C106.908077,109.383495 105.966751,108.861141 104.912595,108.97663 C103.959916,109.078289 103.162928,109.676023 102.776018,110.473386 C102.47877,109.927518 102.252879,109.333703 102.115723,108.69655 C101.462146,105.679987 102.938659,102.580668 105.601156,100.722459 Z M39.9386031,131.357427 C39.0417598,131.769133 26.36154,138.694826 23.3925277,154.379295 C31.4200977,146.591002 43.8989853,143.537786 54.3379077,142.606723 C41.5443951,145.884002 29.5054728,156.105877 27.4803353,165.48613 L27.5299153,165.539841 C27.5299153,165.539841 29.9197212,162.242276 33.786967,159.249226 C37.8244995,156.122705 42.4711255,153.503556 49.6391531,150.517421 C57.4765117,147.250515 68.228669,145.756064 84.6361983,144.01081 C104.159395,141.9343 116.654964,138.226643 131.505123,127.721461 C137.495739,123.48292 145.938948,115.036958 148.538427,110.191001 C147.625134,110.389708 146.526032,110.694684 145.197332,111.145577 C144.546536,111.365492 143.843379,111.620445 143.077668,111.913434 C135.177523,114.948208 129.450098,118.754066 124.279406,122.219218 C120.120009,125.008029 112.953139,128.758793 102.509815,130.140751 C91.1010693,131.653412 83.4059637,127.929619 83.3556886,127.904262 L83.3542985,127.90334 C83.3542985,127.90334 83.3603223,127.905645 83.3661143,127.907028 C83.4277419,127.922703 83.7576579,128.004076 84.3248169,128.115647 C85.9039654,128.426847 89.2890797,128.971101 93.6132036,128.94413 C96.0447123,128.929146 98.7743966,128.734589 101.645639,128.215692 C101.724643,128.201631 101.80272,128.185033 101.884272,128.170049 C106.1236,127.386979 109.617837,126.254211 112.221717,125.217801 C115.675873,123.842989 117.565708,122.637378 117.558989,122.632999 C117.611581,122.60257 117.66232,122.570989 117.714912,122.5401 C123.155514,119.327826 129.263362,114.057485 132.639904,107.227457 C129.555977,107.629942 126.479927,108.270091 123.484967,109.064227 C107.21135,113.387138 93.3152598,122.266935 93.3152598,122.266935 L93.0117556,121.967031 L97.1739333,117.366346 C96.2944662,116.486457 95.57347,115.453735 95.0619148,114.276939 C94.8985786,113.898428 94.7586423,113.515537 94.6395574,113.129188 C91.6170264,113.558874 88.6324913,113.892895 85.7271916,114.102897 C79.1265546,114.581223 73.16652,114.559324 67.9138124,114.248354 C56.5940328,113.577316 48.5615974,111.562585 44.5136392,110.314328 L44.1334481,110.80003 C47.3672736,112.789404 52.401968,116.222975 57.4779018,121.014299 C57.4797553,121.014299 50.4644065,117.117616 46.6089765,116.063456 C40.6922666,118.343513 32.8331298,123.620309 29.4721105,130.082891 C29.4751223,130.112167 29.5008391,130.214056 29.5124232,130.257393 C42.1743401,124.840212 57.324528,131.270291 57.324528,131.270291 C57.324528,131.270291 47.9033872,129.825171 39.9386031,131.357427 Z M50.7317682,171.022951 C50.7317682,171.022951 59.6114668,175.387585 72.3377914,178.826919 C84.2295953,182.040575 100.229132,185.135745 117.743872,185.135745 C149.711899,185.135745 176.297708,174.407652 176.553717,174.298616 L177.303674,173.974969 L168.973758,133.499864 L132.245812,133.499864 C130.851778,134.508152 129.424845,135.474485 127.954355,136.398172 L130.415519,148.8404 L96.0363718,148.8404 C92.8189957,149.547169 89.4748892,150.165189 85.9950167,150.695842 C72.5381969,152.748608 62.1483911,155.516442 54.0174907,158.659099 L55.4279743,165.478984 L50.7317682,171.022951 Z M178.195883,96.1814784 C168.98928,101.284002 161.660928,105.285109 157.092843,107.644926 C156.626929,108.519051 155.998143,109.593958 155.174048,110.824696 C154.45838,110.923588 153.736921,110.986059 153.057164,111.023864 C151.384879,114.128024 147.164549,119.423031 144.843784,122.044716 C144.258091,122.702846 143.66591,123.34945 143.066084,123.984528 L176.64778,123.984528 L187.713404,177.870959 C187.713404,177.870959 183.983778,180.886831 174.596462,184.676092 C163.683981,189.083372 144.595652,194.646933 118.98152,194.646933 C104.944104,194.646933 83.5058189,193.079869 61.0847364,185.606694 C45.6428601,180.651241 34.9159563,173.43763 34.9159563,173.43763 L43.6489998,163.480851 C31.1645518,170.4757 26.4386903,178.357353 22.6458842,184.275681 C22.6458842,184.275681 18.9387774,179.484357 17.6106801,170.453109 C17.0639556,166.748679 16.8287514,163.620545 16.9808973,160.739757 C12.1530261,164.237412 10.4111437,167.612662 10.4111437,167.612662 C10.4111437,167.612662 6.00157529,147.207408 16.0387601,134.60543 C13.740492,135.046873 11.0611292,135.933447 7.94889062,137.456251 C7.94889062,137.456251 9.26521842,126.749365 21.8701182,118.628895 C13.7300894,111.715419 8.34854309,105.310697 6.72331289,101.900408 C16.1392177,100.957588 24.2706047,98.0401479 31.0572827,94.3244225 L19.1959914,37.0749586 L4.7101302,25.6474722 C4.7101302,25.6474722 14.0010422,17.7024496 28.68856,12.333631 C39.9191418,8.0716463 58.1432942,2.99394934 81.2026623,2.99394934 C115.48821,2.99394934 151.065852,16.904372 152.509235,17.499847 L154.733387,18.4108556 L166.088151,73.5063099 L116.262725,73.5063099 C123.478711,76.41476 133.075699,78.4188866 145.13779,79.2897849 C158.21882,80.1364788 184.041698,79.365856 189.005961,79.5226085 C195.083459,79.7164744 196.422584,81.4126284 196.422584,81.4126284 C196.422584,81.4126284 194.576074,87.102513 178.195883,96.1814784 Z" id="path52" fill="#112552"></path>
                    </g>
                </g>
            </g>
        </g>
    </g>
</svg>