<svg width="200" height="200" xmlns="http://www.w3.org/2000/svg"><g fill="none"><path d="M98.157 58.466V81.59l-3.372-1.138-3.37 1.138V58.466h6.742zm10.494-20.234H67.898v20.234h2.574v24.69h-2.574v6.377l-27.791 9.385H0v40.144h6.74l4.525 22.834h167.043s4.146-20.941 4.522-22.834h6.742V98.918h-40.113L119.1 88.664V47.155l-9.955-8.923h-.493z" fill="#100F0D"/><path d="M90.122 57.175h9.327V83.39l-4.664-1.575-4.663 1.574V57.175zm98.159 43.034h-39.032L117.808 89.59V47.732l-9.157-8.21H69.187v17.653h2.577v27.272h-2.577v6.012l-28.868 9.75H1.291v37.563h6.508l4.526 22.832h164.922l4.523-22.832h6.51V100.21z" fill="#1D5C2D"/><path fill="#100F0D" d="M175.889 141.21H12.11l3.138 15.832h159.075l3.135-15.831h-1.57"/><path fill="#FFF" d="M175.889 142.5H13.683l2.626 13.252h156.955l2.625-13.252"/><path d="M13.846 111.357v15.327h-1.794v-15.327h1.794zm3.478-8.923H3.514v8.923h1.337v15.327H3.515v8.862h14.51l3.02-4.646v-23.755l-3.014-4.711h-.707z" fill="#100F0D"/><path d="M14.74 110.067l.397.646v16.637c-.035.058-.312.495-.39.623H10.76v-17.906h3.978zm-9.935-6.343v6.343h1.337v17.906H4.805v6.283h12.52l2.428-3.738v-22.995l-2.429-3.799H4.805z" fill="#FFF"/><path d="M36.415 102.434h-9.907l-2.69 23.64h-1.586v9.472h8.848v-6.892h1.837v6.892h8.826v-9.47h-1.535l-2.639-23.642h-1.154" fill="#100F0D"/><path d="M33.64 121.444L32 109.531l-1.303 11.913h2.943zm2.775-17.72l2.64 23.64h1.397v6.892h-6.244v-6.894l-4.419.003v6.891h-6.266v-6.894h1.447l2.69-23.638h8.755z" fill="#FFF"/><path d="M53.198 110.601l.01.017v3.86l-.01.019h-1.144v-3.896h1.144zm2.918-8.167H43.551v8.167h1.47v15.475h-1.47v9.47h8.503v-12.38h1.144l.01.02v12.36h8.502v-9.47h-1.47v-5.982l-.898-1.688.899-1.69v-9.826l-3.497-4.456h-.628z" fill="#100F0D"/><path d="M53.975 115.786l.523-.985v-4.504l-.523-.986h-3.212v6.475h3.212zm-3.212 11.543v6.927h-5.92v-6.891h1.468V109.31h-1.469v-5.587h11.274l2.834 3.613v9.058l-1.069 2.011 1.069 2.012v6.947h1.47v6.891h-5.922v-11.392l-.523-.988h-3.212v5.453z" fill="#FFF"/><path d="M162.233 102.434H145.27v11.252h5.619v12.39h-1.468v9.402h9.97v-9.402h-1.468v-12.39h5.6v-11.252h-1.29" fill="#100F0D"/><path fill="#FFF" d="M158.596 112.396v-1.815h-1.965v16.784h1.468v6.824h-7.386v-6.824h1.468V110.58h-1.963v1.815h-3.656v-8.672h15.671v8.672h-3.637"/><path d="M78.895 102.434H61.932v11.252h5.62v12.39h-1.468v9.47h9.97v-9.47h-1.469v-12.39h5.601v-11.252h-1.29" fill="#100F0D"/><path fill="#FFF" d="M75.26 112.396v-1.815h-1.966v16.784h1.469v6.891h-7.388v-6.891h1.468V110.58h-1.964v1.815h-3.656v-8.672h15.672v8.672H75.26"/><path d="M102.363 102.434h-6.652l-2.806 8.833-2.808-8.833h-7.942v9.438h1.468v14.204h-1.468v9.47h8.502v-7.862l2.248 7.007 2.247-7.005v7.86h8.503v-9.47h-1.47v-14.204h1.47v-9.438h-1.292" fill="#100F0D"/><path fill="#FFF" d="M89.367 119.435v14.821h-5.921v-6.891h1.468V110.58h-1.468v-6.857h5.707l3.752 11.804 3.751-11.804h5.707v6.857h-1.468v16.784h1.468v6.891h-5.92v-14.82l-3.538 11.03-3.538-11.03"/><path d="M115.31 111.872v14.204h-2.81v-14.204h2.81zm3.157-9.44h-9.898l-3.1 5.833v21.38l3.095 5.9h10.683l3.095-5.9v-21.38l-3.1-5.834h-.775z" fill="#100F0D"/><path d="M116.093 110.58h-4.356l-.526.951v14.882l.526.952h4.356l.507-.952v-14.882l-.507-.95zm-6.747-6.858h9.12l2.587 4.866v20.738l-2.586 4.93h-9.12l-2.59-4.93v-20.738l2.59-4.866z" fill="#FFF"/><path d="M142.645 102.433h-7.708v23.643h-1.816v-23.643h-8.997v9.439h1.468v17.772l3.096 5.902h10.683l3.095-5.902v-17.772h1.471v-9.44h-1.292" fill="#100F0D"/><path fill="#FFF" d="M138.59 134.256h-9.122l-2.586-4.93V110.58h-1.468v-6.858h6.418v22.691l.524.95h3.369l.502-.95v-22.69h6.418v6.857h-1.468v18.745l-2.586 4.93"/><path d="M184.768 102.434h-8.434v9.438h1.223v1.992h-3.886v-1.992h1.22v-9.438h-9.722v9.438h1.469v14.204h-1.469v9.47h9.721v-9.47h-1.22v-2.91h3.887v2.91h-1.223v9.47h9.723v-9.47h-1.469v-14.204h1.469v-9.438h-1.29" fill="#100F0D"/><path fill="#FFF" d="M178.846 121.876h-6.466v5.489h1.221v6.891h-7.143v-6.891h1.47V110.58h-1.47v-6.857h7.143v6.857h-1.221v4.573h6.466v-4.573h-1.222v-6.857h7.144v6.857h-1.472v16.784h1.472v6.891h-7.144v-6.891h1.222v-5.489"/><path d="M101.617 53.615l1.39 1.247v31.932l-1.378 1.213H86.563V53.615h15.054zm5.177-10.532H72.749v10.532h2.574v34.392h-2.574V98.54h34.54l6.96-6.242V49.322l-6.96-6.239h-.495z" fill="#100F0D"/><path d="M85.271 89.298V52.324h16.841c.34.304 1.797 1.613 2.188 1.962v33.091c-.396.349-1.848 1.624-2.183 1.92H85.27zm21.523-44.924H74.038v7.95h2.577v36.974h-2.577v7.95h32.756l6.162-5.527V49.898l-6.162-5.524z" fill="#FFF"/><path d="M36.42 152.103h1.318c1.29 0 1.744-.342 1.744-1.151 0-.689-.604-1.058-1.428-1.058h-1.633v2.21zm0-3.924h1.223c.85 0 1.194-.52 1.194-1.016 0-.48-.343-.988-1.194-.988H36.42v2.004zm1.717-3.72c2.209 0 3.101 1.303 3.101 2.347 0 .782-.494 1.482-1.276 1.866 1.33.343 1.99 1.304 1.99 2.4 0 1.072-.577 2.746-3.308 2.746h-4.556v-9.36h4.049zm13.558 9.359h-2.333v-9.36h2.333v9.36m16.701-6.67c-1.194-.577-2.347-.864-3.5-.864-2.538 0-3.43 1.565-3.43 2.95 0 1.662 1.303 2.76 3.238 2.76.576 0 .865-.055 1.552-.33v-1.099h-1.36v-1.714h3.692v3.83c-.7.726-2.429 1.26-3.938 1.26-3.267 0-5.585-1.99-5.585-4.788 0-2.854 2.304-4.818 5.64-4.818 1.398 0 2.758.317 3.691.768v2.045m26.197 0c-1.194-.577-2.347-.864-3.5-.864-2.538 0-3.43 1.565-3.43 2.95 0 1.662 1.304 2.76 3.24 2.76.575 0 .864-.055 1.55-.33v-1.099h-1.36v-1.714h3.692v3.83c-.7.726-2.429 1.26-3.938 1.26-3.266 0-5.585-1.99-5.585-4.788 0-2.854 2.306-4.818 5.64-4.818 1.4 0 2.758.317 3.691.768v2.045m10.17 1.152h1.234c.645 0 1.278-.273 1.278-1.07 0-.697-.454-1.055-1.333-1.055h-1.179v2.125zm1.852-3.841c1.92 0 3.06 1.291 3.06 2.69 0 1.03-.534 1.798-1.606 2.29.961.481 1.248 1.633 2.567 4.379h-2.567c-1.002-2.002-1.372-3.8-2.634-3.8h-.672v3.8h-2.332v-9.36h4.184zm17.649 9.359h-6.903v-9.36h6.807v1.717h-4.475v1.961h4.267v1.717h-4.267v2.25h4.571v1.715m14.326 0h-6.903v-9.36h6.807v1.717h-4.474v1.961h4.269v1.717h-4.27v2.25h4.572v1.715m16.879 0h-1.964l-5.172-5.996v5.996h-2.332v-9.36h2.139l4.996 5.723v-5.722h2.333v9.359" fill="#1D5C2D"/><path fill="#100F0D" d="M195.061 132.806h-1.054v2.74h-.919v-2.74h-1.054v-.791h3.027v.791m.856-.791h1.354l.609 2.354h.01l.609-2.354h1.354v3.53h-.865v-2.68h-.01l-.742 2.68h-.701l-.743-2.68h-.01v2.68h-.865v-3.53"/></g></svg>