<svg width="200" height="200" xmlns="http://www.w3.org/2000/svg"><g fill="none" fill-rule="evenodd"><path d="M22 0v62.069h7.9v75.74H22v62.07h126.53l30.535-27.384V27.377L148.53 0H22Zm72.14 137.81h20.684V62.069H94.14v75.74Z" fill="#000"/><path d="M90.182 141.768h28.602V58.11H90.182v83.658ZM25.96 3.96v54.15h7.9v83.658h-7.9v54.152h121.057l28.09-25.194V29.142L147.015 3.96H25.959Z" fill="#FFF"/><path d="M125.439 47.188c1.045.935 3.362 3.015 4.266 3.827v97.952c-1.538 1.354-4.226 3.719-4.228 3.724H79.259V47.188h46.18ZM36.88 14.881v32.307h7.9v105.503h-7.9v32.307h105.954l21.348-19.149V34.02l-21.348-19.139H36.881Z" fill="#000"/><path d="M75.3 156.65V43.228h51.654c1.045.935 5.514 4.95 6.71 6.019v101.511c-1.215 1.07-5.663 4.982-6.695 5.892h-51.67Zm66.02-137.81H40.84v24.388h7.9V156.65h-7.9v24.388h100.48l18.904-16.955V35.79L141.32 18.84Z" fill="#005F2F"/></g></svg>