<svg width="200" height="200" fill="none" xmlns="http://www.w3.org/2000/svg"><g clip-path="url(#a)"><path d="M0 11.02h1.553c23.75 0 47.498-.05 71.247.021 14.678.041 28.933 2.407 42.376 8.578 12.62 5.801 22.803 14.348 29.591 26.629a56.618 56.618 0 0 1 2.078 4.186c.257.576.576.751 1.193.792 13.556.977 27.04 2.674 40.463 4.824 1.666.268 3.322.566 4.988.782.617.082.833.277.833.915-.02 11.91-.03 23.821-.041 35.732 0 .03-.031.072-.051.113-.36.061-.473-.268-.648-.463-8.763-9.185-17.526-18.36-26.279-27.565-.638-.668-1.337-1.152-2.212-1.46-4.33-1.554-8.732-2.84-13.247-3.713-1.553-.299-1.543-.31-1.224 1.172 2.982 13.937 2.499 27.678-2.767 41.018-5.75 14.575-16.189 24.86-30.003 31.916-5.204 2.664-10.666 4.649-16.405 6.223 1.563 2.797 3.405 5.297 5.482 7.611 7.653 8.516 17.29 13.577 28.378 15.953 21.64 4.649 40.607-.864 57.146-15.315 1.295-1.132 2.54-2.335 3.805-3.508 1.224-1.141 2.438-2.293 3.713-3.487.093.031 0 .227-.02.35-3.035 10.985-8.044 20.869-16.21 28.974-8.259 8.208-18.257 13.227-29.622 15.305-19.09 3.507-37.47 1.234-54.719-7.961-13.957-7.447-23.975-18.555-29.755-33.345-.33-.854-.782-.947-1.543-.947-22.145.011-44.29.011-66.444.011H.072c.525-.484.833-.782 1.152-1.06 5.112-4.381 10.224-8.773 15.366-13.124.617-.524.895-1.039.895-1.862-.02-33.767-.02-67.523 0-101.29 0-.782-.247-1.276-.823-1.77-4.978-4.206-9.935-8.464-14.903-12.712C1.265 12.11.77 11.689 0 11.02ZM49.535 77.7c0 18.69 0 37.378-.021 56.067 0 1.008.226 1.296 1.265 1.285 4.927-.061 9.864-.041 14.79-.01.762 0 1.04-.051.864-.998-1.409-7.518-1.727-15.078-.627-22.669 2.53-17.444 10.656-31.802 24.006-43.219 7.653-6.542 16.385-11.15 26.033-13.999.936-.277 1.018-.647.751-1.44-.597-1.748-1.07-3.527-1.698-5.266-3.229-8.804-8.331-16.168-16.508-21.095-7.24-4.361-15.232-5.914-23.574-5.976-7.971-.051-15.942.01-23.913-.04-1.142 0-1.389.308-1.389 1.408.03 18.648.02 37.295.02 55.943v.01Zm69.323-11.745c-.247.062-.339.072-.401.113-.247.144-.494.298-.73.453-6.891 4.412-12.199 10.295-16.138 17.433-4.556 8.28-6.696 17.218-7.097 26.609a61.605 61.605 0 0 0 1.944 18.287c.226.875.442 1.173 1.347.587 1.45-.936 2.911-1.842 4.269-2.911 7.045-5.596 11.232-13.042 13.824-21.486 2.993-9.72 3.702-19.707 3.527-29.808-.051-3.075-.144-6.14-.545-9.267v-.01Z" fill="#EC1C24"/></g><defs><clipPath id="a"><path fill="#fff" transform="translate(0 11)" d="M0 0h200v177.187H0z"/></clipPath></defs></svg>