<svg width="200" height="200" xmlns="http://www.w3.org/2000/svg"><g fill="none"><path fill="#E51636" d="M99.875.165L0 100.037l99.875 99.88 99.873-99.88L99.875.165"/><path d="M175.835 52.05l1.467-4.146-4.393-.21c-7.212-.345-14.785-1.758-23.154-4.32-2.153-.66-4.227-1.468-6.424-2.325-2.57-1.002-5.228-2.038-8.095-2.85-1.378-.39-2.714-.747-4.014-1.08a95.407 95.407 0 0 0-14.57-3.023c-6.029-.937-9.634-1.076-9.895-1.085-1.785-.046-3.5-.068-5.127-.068-7.311 0-13.746.45-19.673 1.375-6.472 1.01-13.027 2.765-20.04 5.366-1.003.372-2 .756-2.999 1.14-3.52 1.355-6.846 2.635-10.323 3.369-3.988.842-8.195 1.468-12.547 1.888-11.036.849-16.289-1.06-16.289-1.06l2.682 5.764c.023.055.08.187.168.379 1.71 4.146 4.368 8.381 8.132 12.933.661.8 1.336 1.56 2.016 2.303 3.153 3.484 7.024 6.888 11.626 9.41-.608 1.213-1.146 2.441-1.656 3.634-1.018 2.377-1.999 4.954-2.984 7.802-3.016 8.465-5.705 18.379-5.915 25.948-.19 6.818-.024 12.546-.024 12.546l5.128-6.33c-.099 5.528.623 12.224 3.806 19.657.97 2.332 3.17 6.128 3.993 7.277 3.528 5.009 8.705 9.549 16.298 11.97l5.03 1.604-.805-5.218c-.355-2.345-.77-9.778 1.895-13 .653-.789 1.458-1.26 2.491-1.448.35 1.516.88 3.27 1.773 5.126.044.093.093.188.14.28.076.155.15.308.233.462 1.153 2.201 2.832 4.515 5.333 6.72l.062.053.064.051c1.162.931 5.311 4.076 10.477 5.911l4.778 1.537-.53-3.06a34.059 34.059 0 0 0 4.461 1.98l5.362 1.95-.648-3.54c1.294.4 2.496.685 3.362.838l4.617.691-1.042-5.279.043-.038c.321-.192.794-.419 1.145-.588.533-.255 1.085-.52 1.634-.851 3.746-2.268 6.871-5.62 9.037-9.69a25.404 25.404 0 0 0 1.41-3.153c.218-.598.377-1.18.517-1.693.129-.473.25-.92.391-1.279.146-.366.441-.8.797-.824l.091-.002c.098 0 .195.01.296.03.13.032.25.075.373.115 1.418.57 2.989 2.764 3.737 4.836 2.281 6.112.284 13.784-2.943 18.48l.027.024c-2.773 3.945-5.985 6.132-5.985 6.132s3.114.66 10.61-2.635c5.905-2.596 16.158-9.41 20.632-14.15 2.907-3.08 5.307-6.144 6.84-9.39 1.82-3.852 3.035-8.315 3.822-14.043.273-1.992.429-4.033.468-6.106.422.22.76.393.943.488l5.308 2.744-.55-5.95c-1.15-12.402-4.86-23.169-7.783-30.045a97.418 97.418 0 0 0-4.096-9.647c11.94-5.128 18.677-23.804 18.99-24.686" fill="#FFF"/><path d="M127.71 92.812a13.26 13.26 0 0 1-.033.529l-.006.087a19.797 19.797 0 0 1-.697 3.718c-.056.2-.112.388-.166.558l28.687-3.611-27.785-1.281m-1.79 6.747c-.7 1.252-1.88 3.114-3.392 4.78l35.254-1.925-31.862-2.855m26.267-14.269l-26.06.272c.564 1.157 1.014 2.24 1.29 3.58.02.085.036.173.053.26.052.28.094.577.13.885.012.097.035.19.044.287.007.089.01.176.016.264.001.005.006.01.007.016l24.52-5.564m-93.312 4.583c.222-1.024.518-2.029.894-2.991.013-.035.024-.07.038-.105l-10.924-.623 9.992 3.72m1.924 12.747c-.05-.078-.105-.154-.154-.233a14.47 14.47 0 0 1-1.433-3.168l-.007-.03-15.156 3.103 16.75.328m-2.213-6.071l.012-.01a18.438 18.438 0 0 1-.148-3.449l-11.812.313 11.948 3.146" fill="#E51636"/><path d="M75.58 78.315a4.735 4.735 0 0 0 4.744-4.695c.6.18 1.2.38 1.817.6 0 0-3.122 5.788-8.92 5.16-5.8-.622-6.511-5.87-6.157-7.56 0 0 1.583-.12 4.099.067a4.623 4.623 0 0 0-.325 1.694 4.736 4.736 0 0 0 4.741 4.734zm25.487 33.589l-15.635.11c-.898 3.304-1.067 7.933-1.067 7.933-3.75-4.387-2.78-8.721-2.78-8.721l10.372-4.374c4.734 1.301 9.441 2.71 14.133 4.159-1.368 2.696-1.778 6.072-2.085 9.05-2.376-2.177-2.877-5.979-2.938-8.157zm2.23 25.904c-5.552-2.65-12.669-2.66-18.22 0-.034-.014-1.41-4.492.347-9.013l3.17 4.925s6.68.265 9.72-.261c0 0 .553-2.668 3.2-5.061 0 0-.608 5.587 1.784 9.41zm51.608-28.18c.71 7.041.611 14.137-1.46 20.962-3.547 11.696-14.061 18.75-14.639 19.135.135-6.005-.4-11.925-3.978-16.954-1.72-2.418-3.753-4.168-6.637-5.016-1.339-.393-2.782-.629-4.182-.57-.194.047-5.84-.39-7.57 5.435-.027.06-.045.122-.068.182-.708 3.72-2.223 7.183-4.67 10.083a3.129 3.129 0 0 0-.053.054c-2.312 2.607-4.514 3.502-4.514 3.502-6.889 3.81-9.063-1.797-9.063-1.797l-2.646 4.515c-2.244.132-6.432-3.767-6.432-3.767l-1.763 4.272c-3.106-1.075-5.51-3.58-6.889-6.517-.712-1.274-1.145-2.702-1.563-4.094-.43-1.43-.728-2.646-.655-4.157l.01.009c.716-6.115.132-15.653-.822-17.806-.274-.772-.968-2.592-2.046-3.921-.99-1.372-3.331-3.285-3.47-3.409h-.001c2.132.702 4.387 1.892 5.765 3.708 1.003 1.323 1.584 3.067 2.105 4.625.48 1.44.805 2.926 1.01 4.43.23 1.696.315 3.41.338 5.121.028 2.131-.192 4.154-.023 6.406.232 3.078 1.588 7.247 5.141 7.822 5.387-1.82 15.028-.137 15.028-.137 4.962-2.497 11.417-5.463 14.32-27.763-.173-1.864-1.642-3.313-3.378-3.83 3.623-.378 6.81-2.435 9.428-4.872l.102-.074a9.65 9.65 0 0 0 .898-.865c1.513-1.667 2.691-3.529 3.392-4.781.241-.43.827-1.67.888-1.855.061-.19.112-.373.166-.558.449-1.556.629-2.915.697-3.718l.006-.087c.018-.227.03-.415.033-.53.037-.985-.026-1.677-.05-1.973-.015-.191-.038-.37-.06-.55a14.225 14.225 0 0 0-.13-.887 7.52 7.52 0 0 0-.052-.26c-.277-1.339-.727-2.422-1.291-3.579-6.32.958-12.578 2.546-18.694 4.392 3.983 1.622 9.132 5.031 9.132 9.86.13 3.974-3.81 5.324-7.063 5.789l-13.477-4.121c6.961-5.005 8.996-11.49 8.996-11.49l-23.842.56c.312 5.06 3.755 8.958 6.63 11.362l-11.791 4.59c-1.83.076-4.057-.708-5.52-1.804a5.634 5.634 0 0 1-2.207-3.581c-.716-2.73 1.032-6.037 3.06-7.802 1.659-1.445 3.91-2.167 6.089-2.251l-17.633-4.289c-.014.034-.025.07-.038.105a19.699 19.699 0 0 0-.894 2.991 19.822 19.822 0 0 0-.425 3.218 18.438 18.438 0 0 0 .148 3.448c.127.903.334 1.788.607 2.65l.007.031a14.47 14.47 0 0 0 1.433 3.168c.049.079.103.155.154.233l.004.007c.582.91 1.269 1.762 2.085 2.524l.729.426c4.842 3.017 7.86 6.666 8.731 8.082 4.362 7.872.466 16.752.899 18.743-3.721-.948-10.724-.449-15.36 14.576-14.406-12.1-11.457-34.953-10.867-38.219a192.671 192.671 0 0 0-5.406 2.261c3.949-23.887 11.838-37.156 11.838-37.156.704-1.4 1.988-2.464 3.626-2.056 1.628.406 2.892 1.835 3.717 3.221.957 1.608 2.002 3.047 3.419 4.304 2.476 2.195 5.467 3.328 8.782 3.107 1.708-.113 7.337-.1 6.133 3.914 0 0 15.292-12.068-1.947-17.908l-12.775-3.961c-2.544-.943-5.082-2.05-7.343-3.567-1.409-.946-2.851-2.125-3.58-3.699-2.165-4.671 4.584-8.15 7.806-9.702 4.43-1.778 8.954-3.52 13.587-4.683 7.502-1.882 15.368-2.685 23.091-2.833v-.023c4.075-.075 6.55.112 6.55.112 8.402.41 16.743 2.151 24.855 4.302 3.295.874 6.57 1.835 9.808 2.901 3.242 1.068 6.408 2.351 9.653 3.411a85.433 85.433 0 0 0 17.987 3.778c-1.202 2.351-5.022 14.84-20.804 16.969l1.61 3.044c12.327 23.214 12.607 36.968 12.607 36.968a100.124 100.124 0 0 0-5.329-1.837zm3.07-22.027a93.569 93.569 0 0 0-5.795-12.904c12.801-1.531 20.65-23.717 20.65-23.717-8.2-.393-16.124-2.063-23.954-4.461-4.885-1.495-9.38-3.718-14.453-5.154-16.56-4.686-27.7-5.067-27.7-5.067-8.06-.204-16.208.025-24.184 1.27-6.649 1.037-13.105 2.864-19.408 5.201-4.552 1.688-9.014 3.636-13.783 4.642-6.012 1.27-12.202 2.026-18.334 2.367-1.213.066-4.479.371-5.45-.201l.013.028c-.003-.002-.009-.003-.012-.006 1.796 4.497 4.706 8.723 7.774 12.433 4.268 5.162 9.509 9.7 15.676 12.423-1.309 1.95-2.283 4.141-3.204 6.294-1.278 2.986-2.398 6.04-3.427 9.12-2.116 6.33-3.99 12.868-4.872 19.499-.314 2.37-.383 4.749-.36 7.137v.022l.03-.038 5.763-3.084c-1.79 5.704-1.483 34.594 21.155 41.812 0 0-2.758-17.88 8.344-18.305.636.018 1.284.056 1.996.172.555 3.236 1.478 8.527 6.919 13.32.23.184 4.373 3.554 9.535 5.388-.034-.023-.813-5.89-.813-5.89.764 1.447 3.659 4.215 9.546 6.356l-.786-4.293c.545.898 4.55 2.73 8.312 3.394 0 0-.796-1.426-.077-2.821.728-1.411 2.797-1.965 4.212-2.822 3.315-2.007 6.03-5.018 7.844-8.43.47-.883.88-1.799 1.225-2.74.366-1 .55-2.063.94-3.05.613-1.549 1.915-2.777 3.633-2.885 3.757-.233 6.662 4.047 7.776 7.133 2.575 6.897.5 15.312-3.566 21.228 7.123-4.35 14.564-8.668 20.528-14.587 2.49-2.474 4.682-5.28 6.186-8.467 1.928-4.078 2.928-8.644 3.539-13.09.51-3.707.57-7.428.259-11.153.596.336 5.894 3.074 5.894 3.074-.967-10.436-3.971-20.706-7.57-29.148z" fill="#231F20"/><path d="M113.099 79.57c-5.799.627-8.92-5.162-8.92-5.162a41.1 41.1 0 0 1 3.97-1.198 4.498 4.498 0 0 0-.08.798 4.735 4.735 0 0 0 4.742 4.731 4.734 4.734 0 0 0 4.744-4.731c0-.732-.174-1.41-.471-2.03a25.66 25.66 0 0 1 2.169.031c.361 1.69-.357 6.94-6.154 7.561zm19.28-18.91l-25.11 7.787c-16.546 6.034-1.947 17.908-1.947 17.908-.26-2.077-.972-4.322 6.424-3.893 13.43.779 12.458-13.042 12.458-13.042l8.175-8.76z" fill="#231F20"/><path d="M166.82 54.483c-9.051 3.38-18.005 5.61-27.768 5.313 2.773 3.466 4.687 7.837 6.965 11.656 15.782-2.129 19.602-14.618 20.804-16.969m-55.474 18.109l1.31 4.15 1.235-4.545zm-37.122-.213l1.316 4.55 1.23-4.17z" fill="#E51636"/><path d="M116.696 61.135L98.12 62.607l-4.328-12.794 1.405 22.932s.718-6.764 21.499-11.61m-46.92.782l16.208.75 4.042-13.51L88.814 72.1s-2.01-6.553-19.038-10.183" fill="#231F20"/><path d="M85.332 93.364s.533 2.13 1.509 2.9c0 0-.026-.514.67-.968.704-.444 1.962.356 1.979 1.774.007.492-.26 1.691-.26 1.691l2.65 2.248 2.546-2.757s-1.098-.806-1.165-1.356c-.061-.558.38-1.424 1.095-1.794 1.129-.59 2.387.498 2.387.498l2.454-2.615s-10.343.359-13.865.379" fill="#E51636"/></g></svg>