<svg width="200" height="200" xmlns="http://www.w3.org/2000/svg"><g fill-rule="nonzero" fill="#DD1A35"><path d="m0 37.252 20.69 27.886h44.215l19.094-27.886H0M26.027 72.318 43.44 95.809h41.738V72.318h-59.15M48.737 102.888l18.549 25.072 16.886-25.072zM161.275 102.888c-.056 22.55-.796 27.397-2.678 29.283-1.79 1.786-4.827 2.325-12.868 2.325h-16.266v-31.608H92.431L75.042 127.96h30.8l-13.014 6.567-.009 27.853h58.809c18.051 0 27.708-2.326 35.214-9.835 8.29-8.291 12.743-20.596 13.031-49.657h-38.598"/><path d="M92.818 95.81h36.645V65.139h16.266c8.041 0 11.08.537 12.868 2.325 1.856 1.855 2.596 6.75 2.676 28.348h38.59c-.375-28.384-4.818-40.525-13.02-48.724-7.507-7.51-17.164-9.835-35.215-9.835H92.775L73.687 65.138h32.155l-13.024 7.194v23.479"/></g></svg>