<svg width="200" height="200" xmlns="http://www.w3.org/2000/svg"><g fill="none"><path d="M79.6 97.74l-2.116 1.444c-.122.073-.439.192-.837.321.191-.548.35-1.107.486-1.643.086-.345.29-.981.719-1.612.77.328 1.684.452 2.597.441-.389.363-.676.74-.849 1.05zm119.798-70.366c-.602-1.206-1.972-1.962-4.073-2.245-6.395-.862-19.713 2.591-37.379 12.722-9.55 4.241-22.78 12.883-37.642 27.456a318.54 318.54 0 0 0-5.31 4.773c-3.994-2.14-9.045-3.073-14.816-1.455-3.367-2.249-7.158-2.111-7.272-2.12-1.089-4.22-3.615-8.493-8.855-11.58l-.108-.064-.119-.044c-1.326-.496-3.012-.343-3.746 1.057-.25.32-.463.715-.463 1.235l.001.057c.023.832.516 1.585 1.465 2.236l.085.059.098.048c.278.137 4.372 2.254 6.587 7.329-.023.005-3.467.561-7.191 3.18-3.131-3.516-7.692-6.707-14.02-7.008-31.2-17.465-54.103-20.891-62.713-18.058-2.034.67-3.285 1.696-3.72 3.053-2.427 7.566 16.964 20.17 37.258 29.306l.873.084c15.139-2.405 30.757 3.512 38.85 6.579l.051.051c.407 1 .825 1.926 1.248 2.797a6.488 6.488 0 0 0-2.68 2.605c-1.629.38-3.264 1.309-4.87 2.222-1.22.693-2.48 1.41-3.819 1.973-4.435 1.865-5.265 5.424-5.086 7.193-.033.027-.067.05-.1.076l-.136.106-.104.137c-.787 1.037-1.722 3.382-.343 5.538-2.213.949-3.027 2.7-3.027 2.7-.814 1.638-.556 2.85-.196 3.578.866 1.746 2.983 2.211 3.222 2.26 0 0 2.583-2.83 4.078-1.784.065 1.474-3.766 1.973-3.766 1.973s7.23 1.392 10.67-1.631h.313c3.462 0 5.984-4.943 6.455-5.934.413-.872 1.21-1.855 1.955-2.662.91.343 1.842.426 2.747.289a2.2 2.2 0 0 0-.116.462c-3.969.554-4.36 4.224-4.36 4.224-.446 2.46 2.344 3.234 2.344 3.234-1.047-.44-.807-1.451-.807-1.451.636-2.631 4.013-2.902 4.013-2.902 2.468-.198 2.072 1.96 2.072 1.96l-.38-.205c-.054.635-1.845 2.353-1.845 2.353 2.907-.808 3.755-2.655 4.002-3.612.052.439.042.766.042.766 1.426-.407 2.242-2.823 2.51-4.465.093-.573.427-1.248.818-1.884.937.995 2.039 1.87 3.337 2.578.224.123.447.238.67.35l.906.013c-19.436 13.049-6.998 30.17-23.196 55.279l-.209.194c-20.7 9.791-47.187 13.45-47.187 13.45s29.103-1.522 48.572-6.544c9.095.089 40.652-2.004 56.438-33.894 0 0 1.178-2.382 2.333-6.15 2.382-1.574 4.75-3.996 5.665-7.647l.01-.036.006-.036c.12-.625.171-1.214.158-1.768 2.694-3.504 1.927-7.944.448-10.685-.768-1.424-1.753-5.53-2.068-6.992l-.015-.066-.022-.064c-1.088-3.282-3.72-2.606-4.983-2.281a5.836 5.836 0 0 1-.893.15 27.583 27.583 0 0 0-.515-.862c.063-1.581-.527-2.523-1.053-3.035-.586-.569-1.286-.831-1.88-.953-.323-.366-.679-.724-1.028-1.084.995-.944 1.903-2.236 1.713-3.889-.121-1.073-.868-2.075-2.417-3.163-1.076-.756-2.432-.442-2.432-.442s.919-5.443-1.767-8.984c9.556-5.704 18.237-9.927 25.886-12.58 8.348-2.893 13.696-3.3 16.713-3.131l.45.025.403-.256c18.974-12.108 36.616-27.336 33.262-34.064z" fill="#231F20"/><path d="M66.737 103.092s-.934.308-1.45.892c0 0-.243 1.098.794 1.819 0 0 .656-1.03.656-2.711m.822 2.044s.325-.944.359-1.7c0 0 3.255-.69 5.048 2.036 0 0-2.333-1.88-5.407-.336" fill="#289EE0"/><path d="M73.91 102.848s1.522-1.098 1.972-1.546c0 0 2.051-.53 2.544-.896.492-.367 2.16-1.816 3.888-.992 0 0 1.98 1.12-.524 3.477 0 0-2.708 2.363-3.734 4.523-1.024 2.16-3.117 5.176-5.25 5.176 0 0 1.786-2.842-.52-4.9 0 0-2.027-1.618-4.241-.762l-.612-.451.397-.453s3.886-1.432 6.142 1.681c0 0 .69-2.677-.062-4.857m-11.958 9.742s.127-2.579 5.074-2.241l-1.06 1.817s-3.14-.886-4.014.424m5.267-.236l.741-1.674s1.045.134 1.382.837c0 0-.068.737-1.314 1.34 0 0-.37-.436-.81-.503" fill="#289EE0"/><path d="M72.505 103.562c.364.395.678.906.902 1.57l.012.01c-.03-.314-.334-2.963-2.007-4.084 0 0-.259-.193-.723-.407a14.216 14.216 0 0 1 1.816 2.91" fill="#289EE0"/><path d="M66.017 76.35a77.921 77.921 0 0 0-6.01.726c1.165.268 2.38.57 3.642.907h.001c1.996-.2 4.26-.344 6.717-.388a92.68 92.68 0 0 0-4.35-1.246" fill="#FFF"/><path d="M86.592 97.182c-1.243.147-1.973-.24-1.973-.24-2.502-.53-3.69 1.59-3.69 1.59.655-.49 1.927-.164 1.927-.164 2.83 1.182.41 4.197-.123 4.36-.534.163-1.272 1.263-1.272 1.263 2.05.896 3.773.04 4.84-1.018 1.067-1.06 4.102-2.079 4.102-2.079a4.22 4.22 0 0 0-.811-2.154c-.581-.185-1.652-.618-3-1.558" fill="#289EE0"/><path d="M79.176 88.182c-1.432.763-2.104 2.159-2.104 2.159 1.066 0 1.786.17 2.276.387a8.98 8.98 0 0 1 .602-1.162 36.25 36.25 0 0 1-.774-1.384" fill="#7DD5F7"/><path d="M79.95 89.566a8.98 8.98 0 0 0-.602 1.162c.868.385 1.006.917 1.006.917.943 1.588-1.97 3.463-1.97 3.463 1.621.805 4.45.277 5.466-.298-1.249-1.298-2.584-3.003-3.9-5.244" fill="#289EE0"/><path d="M44.57 53.822c-.779-.32-1.547-.629-2.306-.926l.636.423c.548.158 1.105.328 1.67.503" fill="#FFF"/><path d="M73.356 78.573a108.067 108.067 0 0 0-2.989-.978 82.715 82.715 0 0 0-6.717.388h-.001c3.448.92 7.284 2.13 11.489 3.65-.685-.908-1.356-1.967-1.782-3.06" fill="#289EE0"/><path d="M72.934 76.946c-.072-.628-.025-1.247.183-1.836.01-.028.027-.053.037-.08-2.282.085-4.33.272-5.99.486 1.806.486 3.754 1.077 5.827 1.77-.02-.113-.044-.227-.057-.34" fill="#7DD5F7"/><path d="M73.865 73.882c-4.184-.022-7.7.381-10.136.785 1.086.24 2.235.525 3.435.85a67.122 67.122 0 0 1 5.99-.487c.163-.428.402-.81.711-1.148m7.077 8.706c-1.366-1.14-1.846-2.279-1.846-2.279-.408 3.3.234 7.78 4.344 11.548-.387-.295-3.475-4.73-2.498-9.269m19.863-5.358c.064.441.507 4.533-1.14 8.94 2.47-3.148 3.586-6.372 3.594-10.37 0 0-1.44.17-2.454 1.43M87.74 87.54a3.617 3.617 0 0 1-1.637-.4c.154.653.36 1.457.416 1.963.128 1.117.099 2.003.015 2.716.54.307 1.658.47 2.355.545a40.245 40.245 0 0 1-1.15-4.824m-1.213 4.35a8.38 8.38 0 0 1-.19 1.054c1.716 1.738 3.079 2.413 3.766 2.666a23.192 23.192 0 0 1-.897-2.255c-1.62-.355-2.429-1.162-2.679-1.466" fill="#FFF"/><path d="M92.356 84.662c-1.784 2.194-3.353 2.878-4.617 2.878.319 1.815.767 3.703 1.362 5.491-.072-.222-.144-.443-.212-.667.343.036.59.054.59.054.974-.11 2.659-1.279 2.659-1.279l.466 1.098c-1.277 1.126-2.696 1.242-2.696 1.242a6.447 6.447 0 0 1-.703-.124c.27.778.561 1.54.897 2.255-.687-.253-2.05-.928-3.765-2.666.205-.773.389-2.034.182-3.841-.057-.506-.262-1.31-.416-1.963a4.928 4.928 0 0 1-1.714-1.479c2.4 6.171.502 7.595.502 7.595 3.204 3.508 5.548 3.748 5.548 3.748 4.335-2.457 6.753-6.402 6.753-6.402-7.093 1.381-4.836-5.94-4.836-5.94" fill="#ED192D"/><path d="M92.604 92.237l-.466-1.098s-1.685 1.17-2.66 1.28c0 0-.246-.019-.59-.055.07.224.141.445.213.667.036.108.067.217.104.324.223.049.449.096.703.124 0 0 1.42-.116 2.696-1.242" fill="#231F20"/><path d="M89.205 93.355a28.855 28.855 0 0 1-.316-.99c-.697-.075-1.815-.239-2.355-.546l-.008.07c.25.304 1.059 1.111 2.679 1.466" fill="#231F20"/><path d="M83.332 73.544c.026.038.055.079.08.118 1.026 1.39 1.927 3.373 2.459 4.665.33.782.493 1.269.503 1.298l.064.203-.907-7.705-.01-.102c.982-.517 2.07-.854 2.985-.91.192.712.492 2.25.726 3.503.01-.268.029-.542.029-.802 0-2.177-.357-4.05-.904-5.677-.027.002-.042-.007-.053-.02a13.914 13.914 0 0 0-6.624 3.124 34.028 34.028 0 0 1 1.652 2.302v.003m10.337-2.947s2.132-.32 3.999.657c.195-.143.373-.27.538-.385l.006-.005a24.9 24.9 0 0 1 .956-.64l.014-.009.061-.038c-2.171-1.115-4.168-1.754-5.984-2.055.155.882.256 1.754.31 2.606.037-.044.062-.087.1-.131" fill="#861810"/><path d="M94.513 70.52c.795 0 2.025.115 3.152.7a30.927 30.927 0 0 1 1.503-1.03l.017-.01c-1.996-1.02-3.978-1.7-5.89-2.023.141.815.242 1.652.298 2.491a.936.936 0 0 1 .054-.07l.007-.008.01-.002c.009 0 .339-.048.849-.048zm3.157.768l-.015-.009c-1.77-.926-3.806-.678-3.971-.655-.017.02-.031.04-.045.06l-.047.062-.047.057-.005-.073a23.8 23.8 0 0 0-.31-2.603l-.007-.04.04.006c1.946.324 3.962 1.016 5.993 2.058l.045.024-.043.026-.06.038-.023-.02.016.024-.008.006a22.96 22.96 0 0 0-.962.644 31.7 31.7 0 0 0-.536.384l-.015.01zm21.386 36.532l.166-.18c.037-.042.942-1.025 1.71-1.655.27-.22.686-.851.772-1.926-.72 1.2-1.695 2.511-2.896 3.654.083.037.166.07.248.107" fill="#861810"/><path d="M118.864 107.703l.073.03c.037.017.075.032.111.049l.15-.163c.008-.008.925-1.011 1.715-1.658.286-.233.644-.831.746-1.767-.578.946-1.513 2.282-2.795 3.509zm.2.156l-.021-.01a5.151 5.151 0 0 0-.13-.057l-.118-.05-.043-.02.034-.032c1.349-1.283 2.316-2.692 2.89-3.647l.06.018c-.083 1.035-.473 1.696-.783 1.948-.787.645-1.699 1.644-1.707 1.653l-.182.197zm6.264-12.017a8.3 8.3 0 0 1 1.075-.618c-.073-.076-.154-.148-.228-.223-.17.122-.324.23-.45.323-.107.09-.243.273-.397.518" fill="#861810"/><path d="M126.172 95.042l-.144.103-.285.205a1.947 1.947 0 0 0-.303.378 8.63 8.63 0 0 1 .91-.513l-.088-.085a4.863 4.863 0 0 1-.09-.088zm-.825.826l-.045-.043c.163-.26.298-.436.402-.525.086-.063.182-.132.287-.206l.188-.135.02.02c.034.036.07.07.107.105.04.039.082.078.12.118l.03.03-.039.02a8.206 8.206 0 0 0-1.07.616z" fill="#861810"/><path d="M87.815 159.967c-.932-3.143-3.33-4.892-3.33-4.892 2.218 1.215 3.575 2.746 4.405 4.303 4.33-2.47 7.967-5.56 11.02-8.968-1.2-2.428-3.22-4.86-6.499-7.008 0 0 4.652 1.216 8.05 5.193 3.89-4.785 6.733-10.045 8.798-15.012-8.438-6.782-20.504-4.626-21.257-4.482-.351 11.567-3.95 26.665-9.651 33.444.202.222.384.448.527.667a43.314 43.314 0 0 0 7.937-3.245" fill="#ED192D"/><path d="M106.657 102.886c.227-.853.856-1.982 2.4-3.198l-3.163 1.18c-1.785-2.06-1.1-5.15-1.099-5.154-3.263-.862-4.531-2.934-4.778-4.67a28.671 28.671 0 0 1-6.69 6.215c-.526.944-.925 1.882-1.079 2.768 0 0 .831 5.214 8.157 6.14.97-1.69 2.865-3.27 6.252-3.28" fill="#861810"/><path d="M92.278 100.027c.015.086.252 1.352 1.326 2.708 1.846 2.33 4.705 3.135 6.786 3.4.86-1.49 2.64-3.258 6.245-3.277.353-1.296 1.396-2.373 2.264-3.08l-2.995 1.116-.02.007-.012-.015c-1.69-1.948-1.174-4.833-1.11-5.152-3.775-1.008-4.59-3.515-4.764-4.62a28.834 28.834 0 0 1-6.65 6.164c-.58 1.044-.93 1.943-1.07 2.75zm8.143 6.17l-.02-.002c-2.094-.264-4.98-1.074-6.844-3.427-1.115-1.409-1.335-2.723-1.337-2.736v-.01c.14-.815.495-1.724 1.082-2.777l.009-.01a28.777 28.777 0 0 0 6.683-6.209l.042-.053.01.067c.15 1.059.915 3.63 4.756 4.646l.022.005-.001.03c-.027.127-.638 3.113 1.08 5.112l3.02-1.126.164-.06v.07h-.02c-.89.701-2.02 1.82-2.382 3.177l-.006.021h-.022c-3.605.012-5.376 1.783-6.227 3.266l-.01.017z" fill="#861810"/><path d="M104.795 95.714c.279-.653.72-5.596 9.614-5.526.23-.009 3.564-.16 5.469-1.703 0 0 .71-.513 1.711-1.038a15.892 15.892 0 0 0-.448-3.441c-6.037-1.084-12.321-.232-18.05 2.188a28.653 28.653 0 0 1-3.074 4.85c.247 1.736 1.515 3.808 4.778 4.67" fill="#ED192D"/><path d="M127.574 112.607c.217 1.485.04 2.767.04 2.767 3.887-1.672 3.088-8.13 2.729-9.657-.338 4.496-1.942 6.267-2.77 6.89m12.113-1.584c.085 1.59-.134 4.08-1.909 5.998.827.977.997 2.076.997 2.076 2.069-2.686 1.677-5.934.912-8.074M78.548 91.765a4.24 4.24 0 0 0-1.359-.642c-.135.22-.317.45-.46.534-2.201 1.322-2.963 3.546-3.189 4.44-.364 1.459-.839 2.557-1.222 3.18-.34-.386-1.11-.214-1.949-.08 2.25.711 3.103 2.593 3.103 2.593 1.681-.08 2.452-3.788 2.534-4.115.082-.325.595-2.477 2.584-3.626 1.148-.664-.042-2.284-.042-2.284" fill="#289EE0"/><path d="M72.318 99.278c.383-.624.858-1.722 1.222-3.182.226-.893.988-3.117 3.188-4.439.144-.085.326-.315.461-.534-2.73-.719-5.224 2.11-9.387 3.864-4.84 2.037-4.171 5.371-4.171 5.371 3.025-1.591 5.204-1.646 6.738-1.16.84-.135 1.61-.307 1.95.08" fill="#7DD5F7"/><path d="M61.114 112.04c-.01.005-.014.012-.014.017-.01.024 0 .064-.01.083.01-.03.014-.065.024-.1" fill="#289EE0"/><path d="M69.014 107.492l.4.465c-2.298 1.262-5.878-.298-5.878-.298-2.035.086-3.155 1.362-3.609 2.034.205.786.558 1.719 1.164 2.436 0 0 .131-1.867 1.806-2.898 0 0 .13.466.2.674.872-.986 3.152-1.228 3.152-1.228l-.09.514a8.966 8.966 0 0 1 1.781.12c3.487.7 2.077 3.523 2.077 3.523l-.443-.433c-.33.856-3.487 2.521-3.487 2.521 5.981.043 6.266-3.647 6.266-3.647.846-3.296-3.34-3.783-3.34-3.783" fill="#289EE0"/><path d="M59.68 110.104c-1.6 3.219 2.092 3.953 2.092 3.953-.834-.67-.8-1.451-.682-1.917l.001-.01c-.606-.718-.959-1.65-1.164-2.437-.164.242-.247.41-.247.41" fill="#7DD5F7"/><path d="M71.412 101.058s-3.297-2.467-7.641.4c-.704 1.438-1.386 4.15 1.829 6.302a7.97 7.97 0 0 0 2.408.063s-5.496-1.671-3.53-5.339l.535.53.014-.01c.155-.367.758-1.252 3.018-1.501l-.108.968c.485-.119 4.295-.92 5.485 2.701 0 0-.229-2.921-2.01-4.114" fill="#289EE0"/><path d="M63.771 101.457c-.279.185-.563.39-.85.62 0 0-1.887 2.486.205 4.644 0 0 .839.741 2.474 1.039-3.215-2.152-2.533-4.864-1.829-6.303m4.386-32.842c2.176 1.46 4.357 2.931 6.44 4.35.867.018 1.74.08 2.611.14-3.103-2.963-6.442-4.105-9.051-4.49M54.74 59.7a2058.55 2058.55 0 0 1 6.443 4.261c.407-.334.891-.59 1.393-.746-.022.007-.042.016-.062.023A135.47 135.47 0 0 0 54.74 59.7" fill="#7DD5F7"/><path d="M50.783 57.097A1618.3 1618.3 0 0 1 54.74 59.7a135.47 135.47 0 0 1 7.774 3.538c.02-.007.04-.016.062-.023l.123-.038.128-.017c.394-.05.773-.076 1.154-.106-4.734-2.435-9.147-4.402-13.198-5.957" fill="#FFF"/><path d="M69.41 70.465c-13.539-4.584-24.366-2-29.46-.151a145.677 145.677 0 0 0 7.545 3.588c2.437-.596 6.852-1.032 14.008.308 4.062-.83 7.842-1.235 11.594-1.255a1099.53 1099.53 0 0 0-3.687-2.49" fill="#7DD5F7"/><path d="M69.41 70.465c-.57-.385-1.14-.77-1.713-1.153-.902-.316-1.792-.6-2.668-.855-.873.043-1.432.149-1.533.17l-.11.022s-2.158.113-2.964-1.297c-10.641-2.026-18.86.116-22.954 1.657.805.436 1.635.87 2.483 1.305 5.093-1.85 15.92-4.433 29.46.151" fill="#FFF"/><path d="M60.585 64.596a4971.956 4971.956 0 0 0-11.387-7.523l-.012-.006c-8.206-2.835-14.735-3.914-19.265-3.937h-.01c5.947 1.206 13.91 4.544 23.556 12.548a46.96 46.96 0 0 1 6.673.744c-.005-.046-.016-.087-.018-.135-.013-.103.023-.223.023-.322 0-.513.167-.973.44-1.37" fill="#7DD5F7"/><path d="M49.186 57.067l.012.006-1.884-1.241c-12.377-4.274-20.94-4.562-24.587-3.243 1.894-.13 4.304-.043 7.183.541h.01c4.531.023 11.06 1.102 19.266 3.937" fill="#FFF"/><path d="M116.541 81.175a30.48 30.48 0 0 1 3.321.386l1.088-1.012a26.8 26.8 0 0 0-.941-1.546c-1.144.705-2.3 1.427-3.468 2.172m-6.895-6.071l.697-.666c.841-.807 1.68-1.6 2.515-2.381a16.301 16.301 0 0 0-3.297-1.419c.026.124.059.244.074.375.088.77-.674 5.952-4.177 8.247-.117.667-.412 2.034-1.029 3.774a25.728 25.728 0 0 1 4.083-1.263c-2.954-2.718 1.134-6.667 1.134-6.667" fill="#289EE0"/><path d="M166.006 35.063c1.64-.365 3.046-.52 4.176-.47.23.01.425.046.633.072 5.052-2.274 9.658-3.936 13.418-5.003 4.43-1.868 8.17-2.705 11.073-3.028-4.765-.776-15.038 1.28-29.3 8.43" fill="#FFF"/><path d="M170.815 34.665c1.117.142 1.92.518 2.39 1.129 4.023-2.765 7.718-4.737 11.028-6.132-3.76 1.067-8.366 2.729-13.418 5.003m27.44-6.163c-6.934 1.012-15.673 4.13-24.799 10.887a9.395 9.395 0 0 1-.229.633c2.862-.753 4.422-.867 4.422-.867 7.577-7.198 18.2-7.922 20.415-7.993.36-1.036.422-1.925.191-2.66" fill="#289EE0"/><path d="M173.456 39.389c9.126-6.758 17.865-9.875 24.8-10.887-.04-.126-.07-.258-.127-.374a1.967 1.967 0 0 0-.628-.708c-6.765.603-14.751 3.13-23.814 9.37.178.744.091 1.618-.23 2.599m-.943 2.103a22.934 22.934 0 0 1-1.4 2.193c4.869-1.42 11.495-2.644 18.998-2.242.5-.482.988-.96 1.448-1.427a54.395 54.395 0 0 0-19.046 1.476" fill="#FFF"/><path d="M171.115 43.685c-1.31 1.846-3.054 3.86-5.101 5.958 5.157-.277 9.403.153 12.401.683l.994.174c4.158-3.172 7.77-6.234 10.703-9.057-7.503-.402-14.13.823-18.997 2.242" fill="#289EE0"/><path d="M164.803 50.86c-.735.723-1.5 1.454-2.293 2.188 5.495-.663 10.185-.516 13.66-.144.668-.485 1.339-.97 1.982-1.452-3.031-.536-7.633-1.014-13.35-.592" fill="#FFF"/><path d="M144.147 63.965c.84-.007 1.672-.024 2.531-.009a87.114 87.114 0 0 1 3.11-1.074c-1.356.088-3.208.37-5.641 1.083m18.363-10.917c-3.402 3.147-7.308 6.37-11.332 9.398 6.865-2.085 11.488-2.405 14.286-2.248a212.399 212.399 0 0 0 10.705-7.294c-3.474-.372-8.164-.519-13.66.144" fill="#289EE0"/><path d="M138.15 66.18c-.554.242-1.144.538-1.75.856a100.75 100.75 0 0 1 3.667-.388 116.728 116.728 0 0 1 3.69-1.566c-.966.018-2.06.06-3.253.13-.748.29-1.528.607-2.355.968" fill="#FFF"/><path d="M127.073 72.954c.176-.013.367-.03.534-.042 4.587-2.55 8.73-4.608 12.46-6.264-1.13.096-2.373.229-3.666.388-2.761 1.45-6.013 3.614-9.328 5.918m-16.263 3.051l-1.63 2.555 2.227-1.808c3.275-1.8 8.61-2.882 11.75-3.379 2.887-1.906 5.532-3.5 7.957-4.842-4.193.597-10.87 1.989-17.26 4.674-1.033.896-2.121 1.777-3.043 2.8" fill="#7DD5F7"/><path d="M115.35 71.802c-.46.487-.973.946-1.497 1.403 6.39-2.685 13.068-4.077 17.26-4.674a90.12 90.12 0 0 1 3.492-1.838c-4.179.438-11.373 1.667-19.255 5.11" fill="#FFF"/><path d="M128.218 64.242c-1.06 1.109-2.116 2.215-3.146 3.3 3.684-.955 7.47-1.561 11.622-1.848 6.738-3.092 11.155-3.835 13.663-3.916a158.98 158.98 0 0 0 6.685-5.29c-5.39-.35-16.77.337-28.824 7.754" fill="#7DD5F7"/><path d="M129.62 62.778l-1.402 1.464c12.053-7.417 23.434-8.105 28.824-7.753a129.19 129.19 0 0 0 2.14-1.829c-5.271-.44-16.713-.13-29.562 8.118" fill="#FFF"/><path d="M123.606 67.939c5.6-5.916 12.07-12.596 16.561-17.21-6.507 4.724-14.342 11.306-22.078 19.097 1.842-.714 3.672-1.36 5.517-1.887" fill="#7DD5F7"/><path d="M116.749 70.336c.45-.185.893-.337 1.34-.51 7.736-7.791 15.57-14.373 22.078-19.097 1.392-1.43 2.6-2.668 3.528-3.614-7.891 5.372-17.029 12.921-26.946 23.22" fill="#FFF"/><path d="M145.239 46.684a4245.67 4245.67 0 0 0-13.415 13.825c3.867-2.21 7.572-3.739 10.997-4.775 7.803-9.879 14.915-15.024 20.493-17.683-4.426 1.24-10.775 3.99-18.063 8.622l-.012.011" fill="#7DD5F7"/><path d="M146.834 45.048l-1.595 1.636.012-.01c7.288-4.633 13.637-7.382 18.063-8.623 2.712-1.293 5.064-2.001 6.952-2.374-3.845-.27-12.177 2.216-23.432 9.37" fill="#FFF"/><path d="M159.474 45.4l-.005.002c3.378-.762 6.928-.765 8.796-.693.93-1.307 1.61-2.484 1.998-3.498-5.1.872-8.7 2.779-10.79 4.19" fill="#7DD5F7"/><path d="M172.353 39.517c-8.615 1.475-12.954 5.9-12.954 5.9l.07-.015.005-.002c2.09-1.41 5.69-3.317 10.789-4.19-.389 1.015-1.068 2.192-1.998 3.499.303.01.566.025.773.037 1.622-2.009 2.758-3.783 3.315-5.229m-3.987 6.043c-9.642-.107-16.899 3.213-19.985 4.924-.358.38-.72.781-1.08 1.182 3.81-1.846 11.12-4.524 19.585-4.547-.076.083-.165.171-.243.256.039 0 .077-.003.115-.003a57.219 57.219 0 0 0 1.608-1.813" fill="#FFF"/><path d="M147.3 51.666l-.184.088a84.993 84.993 0 0 0-2.847 3.347c6.462-1.764 11.815-1.802 15.163-1.523l.746.064c2.472-2.197 4.638-4.305 6.465-6.267.078-.085.167-.173.243-.256-8.465.023-15.775 2.701-19.585 4.547m23.841-13.802a1.434 1.434 0 0 0-.511-.47c-5.87 1.028-12.822 4.09-20.5 11.314 4.958-2.417 7.877-2.874 7.877-2.874 4.374-4.825 10.668-6.412 13.463-6.9l-.035.003c-.01-.41-.102-.772-.294-1.073" fill="#7DD5F7"/><path d="M150.08 48.733c.118-.059.234-.112.356-.172-.048.02-.154.06-.297.113-.024.022-.048.038-.06.059" fill="#7DD5F7"/><path d="M172.454 36.573a1.441 1.441 0 0 0-.513-.47c-6.212 1.087-13.64 4.452-21.854 12.623l.038-.015.005-.003c7.68-7.225 14.631-10.286 20.5-11.314.227.13.398.289.512.47.192.3.284.662.294 1.073l.035-.003c.49-.086.886-.141 1.13-.17.236-.902.197-1.643-.147-2.19" fill="#FFF"/><path d="M112.934 80.697c.489-.334 2.922-2.165 5.217-3.84-2.233.514-6.362 1.553-8.517 2.392-.752.991-.623 1.929 3.3 1.448" fill="#7DD5F7"/><path d="M111.67 77.439s-1.367.926-2.036 1.81c2.155-.84 6.284-1.878 8.517-2.393a126.922 126.922 0 0 1 2.868-2.047c-2.172.315-5.67 1.032-9.348 2.63" fill="#FFF"/><path d="M23.911 58.25c.567.885 1.551 2.001 2.658 3.042 1.78-.577 5.21-1.54 8.638-1.678-2.315-.877-6.193-1.854-11.296-1.365" fill="#7DD5F7"/><path d="M21.535 57.082c.848 1.328 2.321 2.836 4.316 4.452.192-.067.436-.15.718-.242-1.107-1.041-2.091-2.157-2.658-3.043 5.103-.489 8.98.488 11.296 1.365a.435.435 0 0 0 .054-.016c-.217-.139-5.294-3.322-13.726-2.516" fill="#FFF"/><path d="M48.695 63.025c-3.853-.925-11.29-1.962-20.11.562 2.243 1.578 4.897 3.223 7.882 4.875l.707-.266c3.168-1.194 8.333-2.603 14.94-2.548a81.805 81.805 0 0 0-3.419-2.623" fill="#7DD5F7"/><path d="M48.695 63.025c-.048-.037-.098-.073-.147-.109-.525-.38-1.047-.75-1.562-1.104-3.34-.915-11.042-2.347-20.314.371.308.237.628.477.956.719.187.136.382.275.575.412.127.091.252.182.381.273 8.821-2.524 16.258-1.487 20.111-.562" fill="#FFF"/><path d="M44.92 60.47c-8.944-5.314-16.302-6.564-22.179-6.026-.19.194-.32.402-.392.619-.118.359-.131.754-.054 1.177-.05.005-.083.01-.13.014 2.744-.264 9.241-.388 14.547 3.407 0 0 2.932-.327 8.261.82l-.052-.011" fill="#7DD5F7"/><path d="M22.349 55.063c.071-.217.203-.425.392-.619 5.877-.538 13.235.712 22.18 6.026l.052.011c-9.666-6.14-17.548-7.574-23.771-7.004-.19.195-.32.402-.392.62-.217.654-.095 1.422.325 2.28.112-.017.259-.037.426-.057.057-.008.12-.014.183-.022.13-.015.266-.03.42-.044.048-.005.082-.01.131-.014-.077-.423-.064-.818.054-1.177" fill="#FFF"/><path d="M63.017 64.616s-1.463.456-1.385 1.445c.408-.365.962-.54.962-.54 14.94-1.92 20.925 12.642 21.826 15.104.215.003.434-.118.546-.553 0 0-5.637-17.553-21.949-15.456" fill="#289EE0"/><path d="M62.594 65.522s-.554.174-.962.539c.003.064-.232 1.234 1.56 1.13 0 0 13.682-2.908 20.639 13.189 0 0 .291.241.589.245-.901-2.462-6.886-17.023-21.826-15.103" fill="#FFF"/><path d="M183.271 38.428c4.078-.15 7.76.316 9.288.547 1.6-1.7 2.893-3.28 3.858-4.715-5.756.816-10.505 2.672-13.144 4.166 0 0 0 .002-.002.002" fill="#289EE0"/><path d="M179.566 38.746a35.755 35.755 0 0 1 3.705-.318c.002 0 .002-.001.002-.002 2.64-1.494 7.388-3.35 13.144-4.166a17.08 17.08 0 0 0 1.22-2.088c-11.721.999-18.07 6.574-18.07 6.574" fill="#FFF"/><path d="M88.641 67.925c-.11.016-.23.028-.337.044.088.11.202.181.413.164-.023-.07-.057-.136-.076-.208m4.871 6.921a34.71 34.71 0 0 1 4.156-3.592c-1.867-.978-4-.657-4-.657-.037.044-.062.087-.099.131a27.748 27.748 0 0 1-.057 4.118" fill="#ED192D"/><path d="M83.318 56.153s-1.052-.393-1.682.028c.397.035.723.156.723.156 12.828 7.558 8.241 22.674 7.565 24.68.154.22.426.386.88.038 0 0 6.27-16.798-7.486-24.902" fill="#289EE0"/><path d="M82.359 56.337s-.326-.121-.723-.156a.938.938 0 0 0-.347.426s-.827.635.609 1.62c0 0 12.232 5.92 7.85 22.389 0 0 .049.219.176.4.676-2.005 5.263-17.121-7.565-24.68" fill="#FFF"/><path d="M60.204 75.103c-6.336-1.06-10.263-.649-12.442-.115l-.326.08-.317-.14c-4.441-1.961-8.818-4.148-12.731-6.398a56.562 56.562 0 0 0-7.934 1.744 198.202 198.202 0 0 0 11.51 5.632c3.3-.798 9.29-1.363 19.012.528a87.794 87.794 0 0 1 5.463-.903 64.94 64.94 0 0 0-2.235-.428" fill="#289EE0"/><path d="M31.788 66.984a50.298 50.298 0 0 0-7.48 2.14c.697.383 1.425.767 2.146 1.15a56.562 56.562 0 0 1 7.934-1.744 98.118 98.118 0 0 1-2.6-1.546" fill="#FFF"/><path d="M17.55 56.558c-2.802-1.077-7.765-2.217-13.563-2.03 1.147 1.332 2.65 2.762 4.483 4.262 1.495-.521 5.15-1.688 9.264-2.255l-.183.023m4.498 2.863c-3.347.097-7.022.51-10.893 1.45 3.269 2.408 7.25 4.943 11.79 7.494l.956-.359a51.174 51.174 0 0 1 6.454-1.923c-3.518-2.27-6.417-4.543-8.307-6.662" fill="#289EE0"/><path d="M20.73 57.722a52.041 52.041 0 0 0-11.14 1.966c.5.39 1.026.785 1.566 1.182a52.611 52.611 0 0 1 10.893-1.449 13.986 13.986 0 0 1-1.32-1.699m-.999-2.319c-2.643-1.278-8.647-3.521-17.16-2.746.38.597.86 1.223 1.417 1.871 5.798-.187 10.761.953 13.564 2.03l.183-.023c.742-.102 1.5-.175 2.26-.231a5.09 5.09 0 0 1-.264-.901" fill="#FFF"/><path d="M19.819 53.698c.138-.42.407-.786.757-1.118-7.237-2.92-13.71-3.891-19.08-3.704-.162.824.011 1.765.524 2.81 1.896-.278 10.06-1.168 17.674 2.538a3.05 3.05 0 0 1 .125-.526" fill="#289EE0"/><path d="M22.576 51.456c.099-.033.213-.06.317-.09-8.064-3.349-14.98-4.16-20.811-3.652-.255.264-.43.548-.527.846-.032.1-.037.21-.058.316 5.368-.187 11.842.784 19.08 3.704.48-.455 1.131-.838 1.999-1.124" fill="#FFF"/><path d="M31.192 50.954c-5.98-1.747-11.379-2.789-15.658-3.277 2.81.7 5.928 1.759 9.326 3.287 1.712-.227 3.834-.246 6.332-.01" fill="#289EE0"/><path d="M39.429 52.395l-1.886-1.258c-16.84-5.95-28.463-6.41-33.401-4.63 2.92-.187 6.744.013 11.392 1.17 4.279.488 9.677 1.53 15.658 3.277 2.409.228 5.165.695 8.237 1.44" fill="#FFF"/><path d="M89.681 82.568c-.789-.29-1.208-1.046-1.338-1.657l-.071-.332.088-.327c.547-2.059.809-3.927.872-5.638-.234-1.252-.534-2.791-.726-3.502-.915.055-2.003.392-2.986.909l.01.102.908 7.705.064.199-.104.408-.003.008c-.015.06-.037.11-.055.167-.306.931-.945 1.275-1.317 1.393-.824.263-1.648-.086-2.144-.5l-.267-.225-.139-.32c-1.12-2.595-2.423-4.65-3.805-6.292a6.473 6.473 0 0 0-2.42.873c-1.28 1.796 1.334 5.978 2.029 7.024l.014.08a.232.232 0 0 0 .016.017c-.978-3.083-.09-6.044-.09-6.044 4.086 6.416 8.623 8.067 8.623 8.067 2.338 1.074 4.715-2.385 4.715-2.385l.065-.07c-.833.602-1.57.476-1.939.34" fill="#ED192D"/><path d="M76.248 75.54s1.068-.698 2.42-.874c-.26-.309-.522-.608-.787-.888-3.147.017-3.297 2.483-3.297 2.483-.043 2.337 3.544 6.207 3.707 6.382l-.014-.08c-.695-1.046-3.308-5.228-2.03-7.024" fill="#FFF"/><path d="M80.015 165.694c-.19.544-.54 1.138-1.148 1.707a76.676 76.676 0 0 0 8.497-1.061 11.9 11.9 0 0 0 .584-1.8c-2.498.507-5.14.896-7.933 1.154" fill="#861810"/><path d="M80.038 165.723c-.212.599-.577 1.15-1.085 1.64a76.406 76.406 0 0 0 8.388-1.051c.265-.665.45-1.232.565-1.73a74.557 74.557 0 0 1-7.868 1.141zm-1.257 1.716l.064-.061c.54-.504.923-1.074 1.14-1.694l.007-.02.02-.002a74.48 74.48 0 0 0 7.93-1.152l.047-.01-.01.048c-.115.518-.307 1.107-.585 1.803l-.007.017-.017.003a76.519 76.519 0 0 1-8.5 1.062l-.09.006zm49.969-38.612a59.545 59.545 0 0 1-1.08 2.98 10.49 10.49 0 0 0 2.245-1.55 38.1 38.1 0 0 0-1.165-1.43m-38.67 35.25c.014.67-.03 1.256-.088 1.727a63.109 63.109 0 0 0 4.548-1.192 62.119 62.119 0 0 0 6.165-2.248c.177-.6.352-1.296.491-2.088-3.325 1.535-7.017 2.827-11.116 3.8" fill="#861810"/><path d="M90.113 164.102c.01.547-.018 1.106-.084 1.662a63.41 63.41 0 0 0 4.502-1.182 62.463 62.463 0 0 0 6.148-2.24c.2-.685.356-1.344.475-2.012-3.415 1.572-7.13 2.84-11.041 3.772zm-.158 1.743l.005-.044c.07-.577.1-1.157.089-1.724v-.025l.024-.006c3.938-.935 7.676-2.214 11.11-3.8l.055-.025-.01.06c-.122.696-.283 1.38-.492 2.092l-.004.014-.014.006a62.507 62.507 0 0 1-6.168 2.25 63.518 63.518 0 0 1-4.55 1.192l-.045.01zm14.995-7.484a20.88 20.88 0 0 1-.102 2.066 56.164 56.164 0 0 0 8.479-5.386 54.616 54.616 0 0 0 4.908-4.28 39.447 39.447 0 0 0-.35-2.84 49.69 49.69 0 0 1-12.935 10.44" fill="#861810"/><path d="M104.982 158.38c.003.603-.03 1.273-.097 1.992a56.323 56.323 0 0 0 8.422-5.356 54.817 54.817 0 0 0 4.895-4.267 39.657 39.657 0 0 0-.337-2.756 49.883 49.883 0 0 1-12.883 10.386zm-.17 2.102l.004-.058c.071-.746.106-1.44.102-2.063v-.019l.016-.009a49.811 49.811 0 0 0 12.928-10.432l.044-.05.011.066c.144.89.262 1.845.35 2.841v.015l-.01.01a54.834 54.834 0 0 1-4.91 4.283 56.4 56.4 0 0 1-8.484 5.389l-.052.027zm22.84-28.632c-1.52 3.84-3.706 8.165-6.82 12.413.375 1.293.58 2.335.683 2.95 3.205-3.743 5.995-7.952 8.31-12.628.013-.025.518-1.075 1.176-2.823-.15-.224-.33-.485-.567-.812.002 0-1.362.567-2.782.9m-2.324-36.008a8.3 8.3 0 0 1 1.075-.618c-.073-.076-.154-.148-.228-.223-.17.122-.324.23-.45.323-.107.09-.243.273-.397.518m-6.106 11.798c.037-.042.942-1.025 1.71-1.655.27-.22.686-.851.772-1.926-.72 1.2-1.695 2.511-2.896 3.654.083.037.166.07.248.107l.166-.18" fill="#861810"/><path d="M107.492 93.895s.813-2.665 7.105-2.36c0 0 5.002-.443 6.242-1.983-1.233 2.65-1.656 5.793-3.375 6.546 0 0-.288-1.673-4.102-.334 0 0-4.123 2.884-5.712-.289 0 0-.417-1.076-.158-1.58m8.933 20.476s.482-4.776 5.814-5.242c0 0 5.206-.395 4.948 6 0 0-.352 1.64-1.316 3.069 0 0 2.08-4.124-.72-7.462l-.393 1.113s-.453-1.251-2.126-1.724l-.113 1.39s-.458-.635-1.193-.825c0 0-3.104.086-4.901 3.681m9.7 7.137s2.154-5.374 8.676-4.841c0 0 4.298.36 3.364 5.263 0 0-.8 3.478-4.665 5.783 0 0 3.351-2.683 2.008-7.577l-.896 1.725s.207-1.758-.728-3.116l-.84 1.391s-.223-1.28-1.175-1.835c0 0-3.135-.112-5.744 3.207m-19.619-6.331s3.752-4.162.953-9.558l-1.231 1.502-.505-1.835s-3.526 0-4.764 3.945c0 0 .15-5.023 5.947-5 0 0 2.568.131 3.016 3.09 0 0 1.057 5.006-3.416 7.856" fill="#289EE0"/><path d="M104.857 106.438s-3.388 1.4-3.929 4.528c0 0 1.076-1.511 2.766-1.673 0 0 .28-2.072 1.163-2.855m.432.692s-.96 1.81-.927 2.373c0 0 .747.632.811 1.379 0 0 .514-.34.841-1.028 0 0 .737 2.784.487 4.66 0 0 1.083-4.043.287-6.817l-.911 1.358-.588-1.924m21.048-19.206a2.009 2.009 0 0 0-.96-.358c-2.435.533-3.573 3.867-4.808 7.305-1.514 4.208-6.204 6.012-8.02 6.313-1.814.3-2.572 1.502-2.27 2.555.205.71.064 1.556-.049 2.031-.009-.019-.023-.035-.032-.054.782 1.59.573 3.804.573 3.804 7.364 1.156 11.307-8.127 11.396-8.945.089-.82 1.959-5.385 2.985-6.134 1.027-.75 2.066-.605 2.928-2.451.45-1.329.361-2.588-1.743-4.066" fill="#289EE0"/><path d="M110.28 103.74c-.303-1.053.455-2.255 2.27-2.555 1.815-.301 6.505-2.105 8.019-6.313 1.235-3.438 2.373-6.772 4.808-7.305-2.91.124-3.693 2.185-3.693 2.185-.94 1.114-1.143 7.748-8.904 9.325-4.57 1.19-4.787 5.064-4.787 5.064.259.02 1.621.581 2.205 1.576.01.018.023.035.032.054.113-.475.254-1.321.05-2.031" fill="#7DD5F7"/><path d="M130.318 105.615c-.343-1.32-.09-3.199.156-6.456.248-3.256-2.823-2.962-2.823-2.962-1.41.564-2.39 1.43-3.071 2.386-.265 1.668.224 3.727.224 5.608 0 2.234-.828 3.439-1.367 3.984 0 .003-.004.003-.005.006 5.118.39 4.182 7.193 4.182 7.193 3.98-1.711 3.049-8.44 2.704-9.76" fill="#289EE0"/><path d="M124.804 104.19c0-1.88-.49-3.939-.224-5.607-1.25 1.755-1.485 3.82-1.444 4.927.066 1.71-.529 2.96-1.236 3.54-.708.58-1.584 1.533-1.584 1.533 1.234-.359 2.258-.468 3.116-.402.001-.003.005-.003.005-.006.54-.545 1.367-1.75 1.367-3.984" fill="#7DD5F7"/><path d="M139.12 109.739c-1.02-1.892-2.189-7.319-2.189-7.319-.722-2.172-2.162-1.812-3.49-1.47-1.327.34-1.72.214-1.72.214-.93 1.307.263 4.532.503 7.36.168 2.001-.098 3.214-.48 3.957.43 1.108 1.107 2.557 2.066 3.07l.016.015c4.354-.267 4.948 3.53 4.948 3.53 2.547-3.304 1.366-7.465.346-9.357" fill="#289EE0"/><path d="M131.745 112.48c-.588 1.144-1.454 1.164-1.454 1.164-.16 1.75.698 2.532.698 2.532 1.096-.386 2.024-.561 2.837-.61l-.016-.015c-.959-.513-1.637-1.962-2.065-3.07" fill="#7DD5F7"/><path d="M125.708 122.78s1.624-2.547 5.601-3.478c0 0 1.222.228 1.604 2.44 0 0 .667-.558.757-1.142 0 0 .516 1.872.395 2.652 0 0 .617-.485 1.026-1.44 0 0 .237 2.489-1.84 5.564 0 0 .527-1.735.295-2.707l-.812.454s.424-1.97-.077-3.022l-.924.917s.078-1.026-.556-2.12c0 0-2.665-.683-5.47 1.883m-8.961-7.521s.966-2.884 4.583-3.691c0 0 1.22.803 1.524 1.448 0 0 .296-.872.218-1.682 0 0 1.634.986 1.889 2.081 0 0 .315-.749.323-1.066 0 0 .884 1.43.636 3.685 0 0-.303-1.023-.748-1.39l-.317.749s-.41-1.637-1.454-2.155l-.037.893s-1.131-1.389-1.978-1.498c0 0-2.345-.675-4.64 2.625" fill="#289EE0"/><path d="M77.945 164.012c-.39-.495-1-.962-1.809-.63-.482.237-7.637 3.696-20.611 7.573l.006.001c8.818-1.091 19.16-5.486 22.414-6.944" fill="#FFF"/><path d="M75.577 167.016l.186-.047.181.001c.01-.001.963-.019 1.581-.655.144-.147.265-.325.36-.526.183-.382.268-.886.276-1.478a3.422 3.422 0 0 0-.216-.3c-3.254 1.459-13.596 5.854-22.414 6.945a.016.016 0 0 0-.006-.001c-.337.1-.661.2-1.006.3 6.362-.935 13.868-2.3 21.058-4.239" fill="#289EE0"/><path d="M104.379 111.138a6.236 6.236 0 0 0-.607-1.024c-.948-.02-1.645.492-2.158 1.195a24.248 24.248 0 0 1 2.763-.17h.002" fill="#861810"/><path d="M114.6 112.628c.323.274.639.563.943.877.01-.039.026-.077.037-.117a9.827 9.827 0 0 1 2.16-4.126 32.36 32.36 0 0 0-.59-.209c-1.495 1.011-3.076 1.572-4.723 1.677 1.052.783 1.914 1.594 2.173 1.898" fill="#231F20"/><path d="M115.543 113.505a13.109 13.109 0 0 0-.942-.874 49.013 49.013 0 0 0-3.998-.902c.113-.333.206-.676.264-1.032-.263 1.582-1.099 2.938-2.131 4.065h.004c2.088-.024 4.29.124 6.529.535h.001c.041-.59.14-1.237.31-1.909-.011.04-.028.078-.037.117" fill="#ED192D"/><path d="M114.601 112.63l-.001-.001c-.158-.186-.556-.569-1.07-1.01a18.368 18.368 0 0 0-1.131-.889 9.029 9.029 0 0 1-1.532-.033 6.497 6.497 0 0 1-.264 1.032 48.69 48.69 0 0 1 3.998.902" fill="#861810"/><path d="M107.476 70.484a1.56 1.56 0 0 0-.08-.153c-1.513-1.541-6.084.506-6.084.506-3.403 1.878-6.18 4.274-8.063 6.142-.43 2.71-1.077 4.515-1.097 4.572l-.059.155c6.534-7.226 12.684-8.563 12.684-8.563.248 1.3-.537 4.67-.537 4.67 2.475-2.626 3.094-6.193 3.235-7.329" fill="#ED192D"/><path d="M107.476 70.484h-.001c-.14 1.136-.76 4.703-3.235 7.329 4.269-4.12 3.518-6.702 3.236-7.329m22.394 52.756l.32-.983s.415.65.351 1.713l-.67-.73" fill="#861810"/><path d="M92.256 113.555c-.155.182-.295.366-.442.549-9.387 11.72-2.527 24.411-15.204 47.134 1.158-.026 2.094.598 2.74 1.307 5.879-6.99 9.524-22.823 9.676-34.51.054-4.074.64-7.319 1.398-9.88.568-1.92 1.231-3.466 1.857-4.63l-.025.03" fill="#FFF"/><path d="M106.765 116.518c-1.969 1.46-3.889 2.221-3.889 2.221s.845-.954 1.455-2.387c-3.537-.228-9.117.92-9.964 1.139 0 0 6.178-2.4 10.41-2.483.266-1.17.254-2.51-.398-3.87l-.002.001a24.15 24.15 0 0 0-2.763.17c-1.097 1.503-1.344 3.893-1.349 3.9 0 0-.34-1.784-.557-3.585-7.707 1.7-9.365 7.246-9.365 7.246-.023-.098.008-.358.081-.716.282-.951.587-1.81.9-2.575-1.16 2.81-2.223 6.868-2.298 12.456-.005.35-.013.706-.024 1.064 10.379-2.742 17.476-1.288 22.328 1.762.2-.538 2.293-6.276 3.452-12.292 0-.004.002-.008.003-.011-2.474-1.362-7.29-1.958-8.02-2.04" fill="#ED192D"/><path d="M90.343 118.87s1.658-5.546 9.365-7.246c-.11-.92-.188-1.844-.17-2.539.007-.281.057-.61.128-.952-.82.217-1.647.479-2.52.794-1.973 1.53-3.554 3.055-4.862 4.592a23.72 23.72 0 0 0-.492.984c-.138.296-.276.614-.413.945-.018.044-.038.085-.055.13a27.359 27.359 0 0 0-.9 2.576c-.073.358-.104.618-.081.716" fill="#861810"/><path d="M97.162 108.955c-1.886 1.462-3.473 2.962-4.853 4.585-.141.264-.298.576-.488.976a24.459 24.459 0 0 0-.437 1.001c-.01.024-.021.048-.03.073-.333.814-.635 1.68-.9 2.573a4.65 4.65 0 0 0-.083.53c.157-.42.65-1.564 1.74-2.83 1.257-1.458 3.589-3.38 7.562-4.263-.126-1.068-.182-1.914-.166-2.515.006-.247.045-.545.118-.908-.792.211-1.598.466-2.463.778zm-6.823 10.038l-.027-.116c-.03-.13.027-.468.081-.73.266-.897.569-1.765.901-2.58l.031-.075a22.064 22.064 0 0 1 .931-1.988c1.388-1.632 2.98-3.136 4.87-4.602l.01-.005c.886-.32 1.711-.58 2.522-.795l.05-.013-.01.05c-.08.383-.122.693-.128.947-.016.604.041 1.457.17 2.535l.002.028-.027.006c-3.973.876-6.302 2.795-7.556 4.25-1.357 1.575-1.782 2.96-1.786 2.974l-.034.114z" fill="#861810"/><path fill="#231F20" d="M127.511 81.848h-.735v-2.34h-1.064v-.503h2.863v.503h-1.064v2.34m5.189 0h-.687v-2.376h-.01l-.656 2.376h-.721l-.643-2.376h-.009v2.376h-.687v-2.843h1.074l.637 2.241h.01l.627-2.241h1.064v2.843"/></g></svg>