<?xml version="1.0" encoding="UTF-8"?>
<svg width="200px" height="200px" viewBox="0 0 200 200" version="1.1" xmlns="http://www.w3.org/2000/svg" xmlns:xlink="http://www.w3.org/1999/xlink">
    <!-- Generator: Sketch 51.3 (57544) - http://www.bohemiancoding.com/sketch -->
    <title>delaware</title>
    <desc>Created with Sketch.</desc>
    <defs></defs>
    <g id="delaware" stroke="none" stroke-width="1" fill="none" fill-rule="evenodd">
        <g id="delaware_BGL" transform="translate(0.000000, 32.835821)">
            <g id="delaware">
                <g id="g10" transform="translate(99.999998, 67.754275) scale(-1, 1) rotate(-180.000000) translate(-99.999998, -67.754275) translate(0.000000, 0.007836)" fill-rule="nonzero">
                    <g id="g12" transform="translate(0.000000, 0.352438)">
                        <path d="M112.223666,131.809899 C112.226876,131.812651 112.230086,131.814486 112.232494,131.818156 C112.399428,131.975037 112.554725,132.158523 112.723666,132.309899 C112.553923,132.158523 112.386988,131.99155 112.223666,131.809899" id="path14" fill="#231F20"></path>
                        <path d="M5.99712017,28.7440699 C7.12433907,27.6460293 15.3473369,19.9017499 24.5351079,18.4340018 C26.6151867,18.1031407 29.2421689,17.9903996 31.894871,17.9943939 C32.2885988,16.5931783 32.96351,15.2464731 33.9758966,14.0493583 C38.3652456,8.86969269 45.8366852,6.12729336 56.8224838,5.6621142 C62.3222864,5.43189379 67.90059,5.34531149 71.5017734,5.31320046 C72.4571974,4.20889435 73.7021678,3.08459717 75.4118324,2.02300264 C80.5037455,-1.13961258 89.0769208,-0.161381024 101.25838,2.44274469 C109.909267,4.29304874 116.52978,6.72295294 121.059563,9.68225836 C129.390529,6.79743486 145.46548,1.55507055 153.03826,1.28554154 C166.723467,0.79298577 174.153053,5.51600902 176.355814,9.71115828 C176.870213,10.6901531 177.115972,11.7256163 177.196051,12.755088 C180.685597,11.6523483 184.302165,10.5088824 184.302165,10.5088824 C184.328989,10.5402494 186.316761,10.1953299 186.34398,10.1928629 C188.066662,10.0452696 193.401968,9.2768762 197.054038,14.1229004 C198.640626,16.228209 200.190528,19.3609923 199.442599,24.9658941 C199.45246,24.9001056 199.425636,25.0301553 199.442599,24.9658941 L199.442599,24.8833061 C197.699798,39.4742443 186.196051,45.9132887 177.317155,51.2037765 C176.652067,51.6000736 176.028792,51.9783572 175.388556,52.3648643 C175.692303,53.5925237 175.906504,54.9302222 175.906504,56.365037 C175.906504,57.2903828 175.7854,58.2580213 175.590528,59.2421068 C176.864295,60.9075727 178.02682,63.1760994 178.764887,66.5450163 C178.744769,66.4717875 178.731751,66.3942511 178.710844,66.3218055 C178.740824,66.4271453 178.764887,66.5352263 178.790134,66.6421325 C179.735696,70.0972009 180.206307,73.7981928 180.206307,77.6323279 C180.206307,98.1873023 166.94043,122.427605 143.88757,131.353687 C135.856407,135.169809 122.192896,136.617547 112.232344,131.813423 C109.181851,130.566576 106.511634,128.902284 104.197236,126.957218 C103.882838,127.867291 103.393686,128.720583 102.700195,129.4329 C101.007493,131.172769 98.5104512,131.899183 96.1526603,131.289465 C91.6256387,130.118588 89.343982,128.162556 86.457986,125.686091 L84.9360926,124.392251 C84.5956586,124.102469 84.2489131,123.749248 83.9731734,123.398376 C80.8721873,119.455376 78.9542387,116.176527 77.7700178,113.146734 C77.0915168,113.132245 76.4078876,113.03787 75.7439823,112.813876 C69.6516748,110.759162 66.0082824,104.817055 65.7262311,96.508522 C65.7222863,96.448216 65.7211029,96.3883015 65.718736,96.3295618 C60.3266257,94.9534867 55.6362905,92.4257222 52.5053241,89.0168624 C51.3546338,87.7641407 50.7435885,86.1480161 50.7435885,84.5021301 C50.7435885,83.7929463 50.8568035,83.0794549 51.0895451,82.3863266 C51.2615372,81.8725501 51.4990125,81.4519739 51.7274149,81.0196499 C48.2153834,77.0938808 46.7881645,73.2299842 46.7881645,69.7545527 C46.7881645,69.0163907 46.875344,68.3032909 46.9936872,67.6027222 C43.5183421,66.1146502 39.2347919,64.4362615 33.6168828,62.2566275 C24.0720704,58.5509365 20.4041809,51.4912094 20.1635103,46.5727396 C20.1540823,46.3859474 20.1496247,46.2018964 20.1496247,46.0182369 C20.1496247,45.0780104 20.288323,44.1941739 20.5179088,43.3573291 C20.0867451,43.1325519 19.6545163,42.9073831 19.2269029,42.6896547 C15.3248122,40.7085609 13.2951081,40.2159307 12.5472975,40.092969 C10.1997236,40.8232991 7.5402365,40.2758452 5.70422076,38.4110168 C4.42090719,37.1086404 3.78097426,35.4172899 3.78097426,33.7278973 C3.78097426,32.0010289 4.45021685,30.2740429 5.78465469,28.9644612 C5.79696238,28.9524 5.86228782,28.9074054 5.84118329,28.9092459 L5.99712017,28.7440699" id="path16" fill="#231F20"></path>
                        <path d="M196.1211,25.1312659 C196.124255,25.1046372 195.616563,27.8782469 195.623269,27.8508742 L194.710449,30.6538537 C191.436682,39.7389644 184.27968,44.5250741 176.074552,49.4133908 C174.439443,50.3876864 172.900982,51.3255634 171.418536,52.2622656 C172.142796,53.9159836 172.742008,55.8289394 172.742008,57.9275126 C172.742008,58.8567745 172.627215,59.8169725 172.360153,60.7971421 C172.27968,61.0896658 172.151869,61.3665255 171.981061,61.6171481 C171.940824,61.6770626 171.93609,61.6915517 171.902165,61.7436343 C173.050489,62.8079974 174.774749,64.7295683 175.705321,69.0406697 C175.715972,69.0821791 175.727017,69.1225137 175.735301,69.1640231 C175.730962,69.1409188 175.72465,69.1240801 175.719128,69.1013674 C176.622875,72.3340082 177.067451,75.8059153 177.067451,79.4035253 C177.067451,98.4919655 164.662323,121.047614 143.129385,129.318945 C136.003547,132.775971 123.773961,134.135599 114.877315,129.901642 C108.067058,127.226637 103.377907,122.136647 100.45483,116.676598 C100.446546,116.986743 100.420116,117.303938 100.420116,117.609384 C100.420116,121.264167 100.970412,124.48506 101.310846,125.584667 C101.392502,125.851345 101.433528,126.124289 101.433528,126.394883 C101.433528,127.095452 101.164495,127.782314 100.661536,128.302748 C99.964889,129.025246 98.9285971,129.316987 97.9534492,129.064798 C94.3207077,128.125354 92.5439819,126.600864 89.8532522,124.293177 L88.2994061,122.971142 C88.1589722,122.851705 88.0157769,122.706422 87.901773,122.561923 C83.5747514,117.060755 81.7905305,113.084078 81.138065,109.327088 C81.0209053,109.548341 80.9088737,109.773901 80.7293865,109.960302 C79.9830355,110.740757 78.8481243,111.017225 77.8216943,110.671835 C73.3053236,109.148128 70.7041402,104.618906 70.4883612,97.9198409 C70.4840219,97.8379969 70.4792882,97.756153 70.4792882,97.6739174 C70.4792882,96.7133277 70.8189331,95.7637028 71.1850081,94.8313082 C64.980669,94.0034702 59.5364877,91.5399277 56.2394463,87.9505413 C55.7648901,87.4344152 55.5140026,86.7690904 55.5140026,86.0912344 C55.5140026,85.7998856 55.5605509,85.5054039 55.6564089,85.2203206 C56.1211031,83.8344556 57.0086771,83.008184 58.0489137,82.4928412 C53.0579868,78.212676 51.5427995,74.4090855 51.5427995,71.3918236 C51.5427995,69.6480381 52.05562,68.2053914 52.6690322,67.0423456 C48.6019712,65.1407462 43.3830364,63.0926891 35.8622871,60.174893 C28.5839046,57.3499057 25.1268238,52.0100766 24.9286384,47.9691777 C24.922958,47.85209 24.919881,47.7357854 24.919881,47.6206556 C24.919881,45.7711387 25.6811039,44.2858078 26.9650092,43.4904724 C25.2650487,42.5565114 23.5342795,41.6339067 21.8364886,40.7712165 C14.8314395,37.2131188 12.6358971,37.7211387 12.6147926,37.7264645 L12.6016959,37.7309287 C11.4817749,38.1451609 10.2745954,38.0025801 9.37143961,36.9006236 C8.90781043,36.3352346 8.65305698,35.6780941 8.65305698,35.0382231 C8.65305698,34.4324603 8.88145934,33.8411083 9.37625223,33.355566 C9.37932915,33.3516109 9.39502935,33.3370826 9.39964474,33.3324618 C9.88043368,32.8628576 17.8131356,25.2169083 25.9661532,23.9141012 C28.781735,23.4645077 32.8618138,23.4700292 36.4564882,23.6043473 C36.3307289,23.1243266 36.2633916,22.641408 36.2633916,22.1604475 C36.2633916,20.7602108 36.7930168,19.3817862 37.8163699,18.1724535 C41.4465473,13.8879416 47.9810639,11.6041426 57.7917145,11.1879132 C64.3108465,10.9142645 71.1187359,10.845265 74.3199192,10.8284654 C74.9972368,9.66389241 76.1798798,8.27955464 78.3171578,6.95317335 C81.6903333,4.85812453 88.3270195,5.12762221 101.223272,7.88396243 C112.378695,10.2704384 118.178695,13.2563725 121.22051,15.6717092 C127.656802,13.4067069 146.228793,7.08870539 153.979878,6.8125897 C164.999601,6.4164101 171.893881,9.80525926 173.635893,13.1215845 C174.318339,14.4225902 174.247727,15.8298756 173.445755,16.8853495 C173.046544,17.4107956 171.869029,18.5640514 169.529384,18.1251876 C168.828793,18.1595699 167.401968,19.1960905 165.781061,20.7257894 C169.875341,20.2346081 173.75542,19.768215 174.022481,19.7362215 C174.50256,19.5854171 186.30611,15.8531366 186.30611,15.8531366 C186.323072,15.8162872 186.328595,15.8268212 186.405518,15.8162872 C186.417747,15.81476 191.641021,13.7235096 194.211041,17.134719 C195.254433,18.5175296 196.537273,20.01966 196.1211,25.1312659" id="path18" fill="#FDDF12"></path>
                        <path d="M114.760155,129.854651 C114.853905,129.917317 114.956444,129.954651 115.050194,130.014651 C115.126366,130.054651 115.186913,130.113317 115.260155,130.155984 C115.092186,130.063984 114.924217,129.963984 114.760155,129.854651" id="path20" fill="#FDDF12"></path>
                        <path d="M193.049305,24.8833061 C193.979088,14.9434546 187.149108,18.4814243 187.149108,18.4814243 L174.615775,22.444356 L158.885203,24.3327586 C158.885203,24.3327586 166.120706,14.6199164 170.000785,15.4116882 C173.884808,16.2000532 169.391317,9.01885234 154.079286,9.5698306 C145.738063,9.86705341 122.493488,18.1435144 120.615776,18.8150657 C118.738853,16.9084538 113.685204,13.3727554 100.637473,10.5817196 C93.7309641,9.10543463 83.3136074,7.10323367 79.7897416,9.29297087 C76.2654813,11.4800844 76.2063097,13.5813988 76.2063097,13.5813988 C76.2063097,13.5813988 66.8149885,13.5703949 57.9096632,13.94441 C49.0015767,14.3214797 43.0153835,16.3225841 39.9431943,19.9471752 C37.6559359,22.6508847 40.0272179,25.5098627 43.633924,26.8178781 C38.4792495,26.359591 30.5874154,25.9715175 26.4068632,26.6381346 C18.9587766,27.8280832 11.329191,35.3166101 11.329191,35.3166101 C11.329191,35.3166101 13.360907,33.3676664 23.1023663,38.3163284 C32.8425633,43.2660868 43.5183421,50.0419055 43.5183421,50.0419055 C43.5183421,50.0419055 34.1495455,49.3307637 30.2856797,46.2300914 C26.4214984,43.1302024 25.6330171,53.2428268 36.8736085,57.6056191 C47.4781053,61.72053 53.2552255,64.0090282 57.9538447,66.6276434 C57.9676514,66.6546637 57.9794857,66.6805091 57.992109,66.707921 C57.3459552,66.6797259 56.497829,66.5360095 56.0370795,66.9084191 C52.2733715,71.4493885 55.1842195,76.488862 60.0852056,80.6065141 C61.8094659,82.0491608 63.7917144,83.2317865 65.9605506,84.297716 C63.5297814,84.817758 59.1246534,83.6092868 58.2919118,86.0920176 C61.4654817,89.5474776 67.5167636,92.1046119 74.5589725,92.3685489 C75.1554222,93.5026165 73.1526609,96.4337268 73.2615366,97.7804321 C73.3854025,101.912573 74.646152,106.687718 78.7155799,108.059877 C78.0299783,106.346636 82.2426015,101.264479 83.8098598,100.413145 C83.3029565,107.721537 83.0110433,111.862685 90.0915165,120.864346 C93.8552245,124.0218 95.1001949,125.476978 98.6536464,126.395666 C98.0642974,124.4925 96.1948694,113.706328 99.8102539,106.713172 C101.128203,113.689489 105.860352,123.443801 115.975145,127.374269 C124.12189,131.30787 135.762916,129.881671 142.040628,126.78139 C166.700193,117.366202 178.272579,88.2704768 173.014197,69.7267493 C171.306899,61.5920859 166.82327,64.27414 169.677313,60.0754272 C170.484808,57.1188629 169.48757,54.1850114 167.840627,51.2742641 C177.047333,45.034543 187.319127,41.0414191 191.804334,29.664325 C192.717155,26.8620895 192.80039,26.8613063 193.049305,24.8833061" id="path22" fill="#231F20"></path>
                        <path d="M121.345954,75.4104014 C113.183035,73.9861598 113.105323,68.0542346 113.174356,65.6404251 C112.785402,61.5392202 115.442206,51.8322911 120.866664,47.1448641 C108.228005,49.8092963 98.0717924,54.6686348 79.5593668,49.3374208 C74.0796826,46.1588206 77.7356983,40.0984513 80.0252445,36.7572596 C85.2891497,29.7348126 96.6966445,25.4852312 108.66982,22.0497036 C94.8938832,23.8479995 84.362917,28.9164513 77.4157772,35.9137969 C76.2564084,36.9495734 75.5341204,39.1886911 73.6536471,39.8376471 C72.1637063,39.6935391 68.7333316,38.6796138 67.231951,39.088207 C66.2280062,40.8683328 73.8232723,42.6504949 69.2698208,44.500795 C65.4173554,43.3205189 60.6059156,43.4873396 56.9976317,44.7361454 C55.5214976,47.214177 62.0903338,48.3086931 63.224456,48.5886856 C67.3487163,49.7450743 73.4138049,49.8860495 77.5234695,50.8031718 C78.1061124,51.4743706 75.1854025,53.1625492 74.4994064,53.5012814 C71.290728,54.1951929 77.6615365,54.0291554 78.4106489,54.1008178 C80.4946725,54.3671044 79.4212998,54.5076881 80.2149881,56.3364503 C79.4713984,57.0585569 84.0232721,55.5963303 84.3439821,55.7416131 C85.1806685,55.3558891 86.3999978,54.7297241 87.6212996,54.9000692 C87.8863883,56.2240617 86.2737651,56.5024878 85.6035482,57.8746469 C89.412621,56.7456701 93.0930943,55.8923783 96.1696228,54.137628 C95.8520686,56.3732605 93.4228773,60.9623964 92.5637058,63.2469787 C89.8749484,71.4278506 87.2347118,80.1440369 99.599603,84.1579155 C109.426822,87.2707273 116.11834,79.4250632 121.345954,75.4104014" id="path24" fill="#1266AC"></path>
                        <path d="M124.877709,72.7165993 C130.694277,67.2350118 136.338458,61.5591917 142.38974,56.125379 C136.158971,55.837163 138.387373,48.8534058 140.65404,45.8247876 C142.228793,43.3541964 145.336091,44.2674027 147.255223,44.3421979 C148.469424,42.2052481 144.059957,40.755161 141.240233,39.8634926 C136.5783,41.9299548 129.927413,43.2770516 126.52189,46.2332242 C118.236289,53.0372379 114.673764,63.5011257 118.730964,71.7031439 C119.623271,73.075303 123.285204,74.3754081 124.877709,72.7165993" id="path26" fill="#FFFFFF"></path>
                        <path d="M122.930963,43.9944589 C129.543192,40.7880552 144.147136,36.8011969 151.531357,33.7005246 C153.097038,35.2904513 140.648517,37.5652436 144.842994,38.5771326 C153.09546,40.5096291 151.616959,46.3401304 151.956604,49.8997554 C155.079286,49.1087277 158.916367,48.4602415 161.854828,50.168 C162.255223,50.4100075 162.437866,50.8411568 163.099799,50.8184441 C176.500587,43.944726 191.366465,33.073968 188.673763,21.0202318 C164.396446,29.8119182 143.490726,24.3111815 125.710056,31.9433857 C124.988163,32.3517831 124.955815,33.2177627 124.520312,33.8433796 C127.727807,34.7335208 131.388162,34.4468319 134.893882,35.0038017 C136.186584,35.8206357 134.066269,35.6264032 133.570411,35.8425261 C126.384218,35.8887346 118.817354,36.1730739 111.564889,34.2221331 C111.03195,33.7188906 111.419327,32.9231245 111.987374,32.5613663 C115.397236,31.9872838 117.211042,33.8634294 120.764494,33.7929026 C123.889543,26.4587045 131.237867,23.4614532 139.069819,19.1835593 C145.682048,16.3225841 155.673369,12.8047818 163.854039,12.3305959 C162.03826,10.4536671 158.061929,11.3907609 155.243389,11.2913342 C140.874158,13.7643533 126.128202,18.0624537 112.866269,23.0623758 C110.369228,23.9050553 108.504928,25.585402 106.184218,26.0678898 C105.424455,25.7538282 106.218932,25.1985424 105.661141,25.007051 C93.7581831,29.0929836 82.2674536,36.2396455 82.8390512,42.4668355 C82.7629171,44.4381394 84.5779072,45.9340434 86.3345146,46.6087666 C99.6165656,50.3434359 110.078893,47.0896488 122.930963,43.9944589" id="path28" fill="#FDDF12"></path>
                        <path d="M144.429188,52.495658 C144.130963,51.2441111 144.459168,50.0403391 144.467846,48.6936339 C142.611831,49.8233939 142.331357,51.9893219 142.999207,53.5517976 C144.362127,54.227304 144.606308,52.9268073 144.429188,52.495658" id="path30" fill="#FFFFFF"></path>
                        <path d="M166.574749,42.4002638 C163.767649,43.338924 158.758181,43.3620283 155.944375,44.0578978 C155.550686,44.8501004 159.136485,46.6772962 160.47258,46.078543 C163.206308,45.2855573 165.367254,44.0610306 166.574749,42.4002638" id="path32" fill="#231F20"></path>
                        <path d="M147.032738,24.8558942 C149.692304,22.6203009 151.780272,19.9483892 152.934907,17.3266803 C144.6426,20.164238 137.188162,23.4085483 131.346742,27.6162287 C135.333724,26.8405124 140.576722,25.2949146 147.032738,24.8558942" id="path34" fill="#BF2033"></path>
                        <path d="M156.417748,112.302449 C152.060746,119.119777 140.572383,127.090753 125.520312,126.963483 C119.28047,126.407023 114.689938,123.807204 111.263903,120.968119 C104.264297,114.782439 103.21696,108.142504 101.319524,101.645895 C98.8670587,101.067505 98.5211021,102.461202 98.0465459,103.281208 C96.5254414,108.765145 92.9207077,113.950685 95.4362895,121.682394 C89.3025619,116.386815 86.4887552,107.992522 86.7230748,101.92902 C86.3285974,100.341091 88.78698,97.9852378 85.5873746,97.3336188 C82.5834299,98.1512753 77.8232722,100.738954 77.3712012,103.727238 C73.4556195,99.4995469 77.3526608,95.2616743 77.3309645,91.8453741 C71.5834302,91.0735346 64.989742,89.6516426 61.4627204,86.4738256 C64.389742,86.3551714 67.3865861,86.8861782 70.082444,86.165638 C70.2465466,83.9766057 66.196448,83.4702696 64.250097,82.121998 C59.3167638,78.896406 53.9124247,70.8165663 59.4844167,68.365555 C59.5510833,68.6698265 62.921103,77.5857278 69.6280061,79.9682095 C70.1763296,80.7122455 69.1049292,77.7944495 69.6497024,76.9521224 C66.1838248,73.791144 63.9834304,70.641522 62.6027598,67.2373614 C61.1266257,65.4148647 58.6039433,63.2332727 54.3593675,61.6257633 C45.5992099,58.3085374 41.3806696,56.7695576 38.1872574,55.8637916 C34.9918334,54.9584173 34.0116362,54.0009604 32.0420505,52.5262026 C30.0727409,51.0514449 29.3951866,48.1391312 29.3951866,48.1391312 C29.3951866,48.1391312 33.5379873,51.5816685 42.5230759,51.96191 C46.1400383,52.1161996 50.2650875,50.3884696 50.2650875,50.3884696 C50.2650875,50.3884696 46.4907286,48.8702445 42.1487169,45.8882264 C37.5644172,42.7393876 37.0389734,42.2338347 34.76994,40.7927544 C32.3972378,39.2866689 28.4986581,37.4656602 26.9091906,36.6824644 C25.3215773,35.8985246 18.1370015,33.6974702 18.1370015,33.6974702 C18.1370015,33.6974702 19.9930567,31.2076123 25.7103741,30.2807784 C29.0307685,29.7438585 34.1061135,29.7406474 36.9287959,29.623168 C39.7518728,29.5045922 47.6560146,29.3095764 48.8615372,29.4004271 C50.0658765,29.4923743 48.3088745,27.0797788 45.7617346,25.1890657 C42.9936873,23.1316495 43.3704131,19.5262075 48.6402355,18.2695698 C53.9124247,17.0144593 57.2895449,16.4518506 63.3132134,16.9115082 C69.3404322,17.3681506 76.9913196,17.2870506 76.9913196,17.2870506 C76.9913196,17.2870506 76.2761322,12.9578966 81.1447711,11.6716149 C86.014988,10.3828662 95.2236663,11.8963138 102.023666,13.4067069 C108.02406,14.7409202 113.988952,18.5757994 115.309662,19.460419 C115.616171,19.4451467 115.79408,19.4789416 115.583035,19.645684 L109.521102,20.0894428 L102.849702,20.9504883 C89.9088735,23.4446145 78.6422071,29.2488396 71.8422073,36.0583748 C70.3581836,37.5710784 66.6023652,36.1289016 64.1925033,36.7361525 C63.7802745,37.1239519 63.5226809,37.4899785 63.5136079,37.8045099 C63.4650872,39.4605383 65.8094658,41.956975 65.8094658,41.956975 C65.8094658,41.956975 63.1143968,41.7568685 59.3617342,42.1320193 C55.3297817,42.5349735 54.4741604,44.0794357 54.8264286,45.7625235 C55.1120302,47.1186271 55.9779079,47.6801785 58.1443772,49.0965881 C58.2311623,48.7652963 57.9771189,49.420048 58.1443772,49.0965881 C62.6351069,51.2711313 67.3088741,51.1630503 71.2504913,52.6804922 C70.8252448,52.7525462 70.482444,52.9201501 70.0571975,52.9918126 C69.7041403,53.7131359 70.2950673,54.6279086 71.2220889,55.1342447 C72.9061126,55.9519012 75.2153827,56.0259132 77.0836273,55.9295801 C76.5427989,56.771124 75.2899389,57.4693431 76.237079,58.4553866 C78.0998008,58.9131646 79.8240611,58.312845 81.5755404,58.1937992 C80.7972366,58.986785 80.3727791,59.852608 81.4291893,60.6236642 C84.8390511,60.8417843 88.2702148,59.1575217 90.6599583,57.7399372 C88.3053232,64.4029757 84.353844,71.4873735 86.014988,77.9350331 C87.5857966,81.9054443 88.7984199,87.2425323 101.109268,89.2079622 C107.268242,89.6684813 114.579879,87.213554 120.734908,82.4987152 C130.129385,74.4924959 137.16686,66.252101 145.401574,57.6909875 C148.343192,55.6719087 150.681653,53.2902102 155.31045,52.0911374 C157.097037,51.8988628 159.145953,51.4430428 160.758181,52.4044157 C163.013408,54.4505148 162.319917,56.9285464 163.059562,59.1426409 C163.943586,61.8603304 159.024848,59.6701233 157.23826,61.4491526 C155.107688,61.8078563 152.64615,67.8948543 152.457984,63.4909442 C150.351081,62.7453417 150.958971,64.6943245 149.880075,65.0307071 C149.514395,64.7170372 148.564888,64.524371 148.117945,64.9089202 C144.880075,72.5803233 138.320312,78.7855838 132.897827,85.0617235 C132.413803,85.5175435 130.721101,86.0485502 131.45759,86.6727573 C146.488754,82.5891743 150.689148,72.4146774 159.164888,64.6966741 C160.310055,63.4231977 162.688359,62.5581579 165.282442,63.6393598 C167.359759,65.2523516 169.375933,67.2518505 169.680469,69.2956 C170.986978,83.3692373 169.260351,99.9197314 156.417748,112.302449" id="path36" fill="#2D9EDF"></path>
                        <path d="M167.022087,57.6949035 C166.61538,56.7206079 166.716367,55.713418 166.542402,54.625559 C165.198418,55.7416131 165.261534,57.5175096 166.011436,58.7052261 C167.20039,59.0983904 167.22327,58.0246289 167.022087,57.6949035" id="path38" fill="#FFFFFF"></path>
                        <path d="M2.72682439,24.6161971 L3.06767645,24.6161971 C3.46539242,24.6161971 3.787136,24.747774 3.787136,25.0677879 C3.787136,25.3493859 3.57895849,25.5377053 3.12438256,25.5377053 C2.93515969,25.5377053 2.80248514,25.5188695 2.72682439,25.5000728 L2.72682439,24.6161971 Z M2.7080236,22.8869008 L1.98841415,22.8869008 L1.98841415,25.969677 C2.27225241,26.0076228 2.66996443,26.0640521 3.18124252,26.0640521 C3.76833521,26.0640521 4.03337268,25.969677 4.24169615,25.8196167 C4.4310847,25.6880398 4.56362908,25.4624402 4.56362908,25.161693 C4.56362908,24.7858374 4.27944762,24.5414019 3.9199644,24.4286609 L3.9199644,24.3907542 C4.22276124,24.2971232 4.37439831,24.0523745 4.46899397,23.6387296 C4.56362908,23.1688121 4.63925038,22.9997984 4.696134,22.8869008 L3.93876519,22.8869008 C3.84399596,22.9997984 3.787136,23.2629131 3.69267841,23.6387296 C3.63581845,23.9587434 3.44643778,24.109117 3.04872576,24.109117 L2.7080236,24.109117 L2.7080236,22.8869008 Z M3.18124252,26.9477319 C1.83678496,26.9477319 0.795274142,25.8384134 0.795274142,24.4846594 C0.795274142,23.1128528 1.83678496,22.0223309 3.21915179,22.0223309 C4.56362908,22.0035342 5.58615371,23.1128528 5.58615371,24.4662935 C5.58615371,25.8384134 4.56362908,26.9477319 3.200351,26.9477319 L3.18124252,26.9477319 Z M3.21915179,27.5681797 C4.98027601,27.5681797 6.38157775,26.2139558 6.38157775,24.4846594 C6.38157775,22.755363 4.98027601,21.3832431 3.200351,21.3832431 C1.42011831,21.3832431 0,22.755363 0,24.4846594 C0,26.2139558 1.42011831,27.5681797 3.200351,27.5681797 L3.21915179,27.5681797 Z" id="path40" fill="#1266AC"></path>
                    </g>
                </g>
            </g>
        </g>
    </g>
</svg>