<svg width="200" height="200" xmlns="http://www.w3.org/2000/svg" xmlns:xlink="http://www.w3.org/1999/xlink"><defs><path id="a" d="M0 .131h199.784v138.53H0z"/></defs><g fill="none" fill-rule="evenodd"><path d="m110.617 34.26.01-.004.029-.014-.039.018M63.178 70.655c0-.042.008-.08.01-.122.003-.074.002-.146.009-.222-.01.114-.016.229-.02.344" fill="#006095"/><g transform="translate(0 31)"><mask id="b" fill="#fff"><use xlink:href="#a"/></mask><path d="M199.586 113.06v-.013c-.012-.044-.004 0 0 .013" fill="#006095" mask="url(#b)"/><path d="M194.25 121.094c-2.622 3.506-7.95 1.356-7.964 1.355-.076-.01-.083 0-.1-.037 0 0-12.04-3.836-12.53-3.99-.273-.034-4.23-.514-8.408-1.018 1.654 1.572 3.11 2.637 3.825 2.672 2.386-.45 3.587.735 3.994 1.274.819 1.085.891 2.53.194 3.868-1.776 3.407-8.81 6.89-20.05 6.482-7.907-.283-26.85-6.776-33.416-9.103-3.103 2.482-9.02 5.55-20.398 8.003-13.156 2.832-19.925 3.11-23.365.956-2.18-1.363-3.387-2.785-4.078-3.982-3.266-.018-10.21-.088-16.86-.37-10.007-.427-16.673-2.774-20.376-7.176-1.044-1.242-1.584-2.66-1.584-4.098 0-.495.069-.99.196-1.484-3.666.138-7.828.144-10.7-.318-8.316-1.338-16.408-9.195-16.898-9.677l-.024-.024a2.393 2.393 0 0 1-.738-1.73c0-.657.26-1.332.733-1.913.921-1.133 1.936-1.084 3.281-.85l.027.001c.022.006 2.262.527 9.407-3.129a185.089 185.089 0 0 0 5.231-2.794c-1.31-.817-2.086-2.343-2.086-4.244 0-.118.003-.238.009-.358.202-4.152 3.728-9.639 11.153-12.542 7.672-2.998 12.996-5.103 17.143-7.056-.625-1.196-1.148-2.677-1.148-4.47 0-3.1 1.545-7.009 6.636-11.407-1.061-.53-1.966-1.378-2.44-2.802a2.836 2.836 0 0 1 .595-2.806c3.363-3.688 8.916-6.22 15.245-7.07-.373-.958-.72-1.934-.72-2.921 0-.084.005-.169.01-.252-.002.02-.004.038-.004.059 0-.048.003-.095.006-.142l-.003.083c.22-6.885 2.874-11.538 7.481-13.104a2.833 2.833 0 0 1 2.966.731c.183.191.297.424.417.651.665-3.86 2.486-7.947 6.9-13.6.115-.149.261-.298.404-.42l1.585-1.359c2.745-2.371 4.558-3.938 8.263-4.903a2.834 2.834 0 0 1 3.425 3.576c-.347 1.13-.908 4.44-.908 8.195 0 .314.027.64.035.959 2.982-5.611 7.765-10.841 14.71-13.59-.037.018-.08.03-.117.049.067-.034.135-.063.205-.091-.03.012-.055.03-.087.043 9.076-4.352 21.55-2.954 28.819.598 21.965 8.499 34.619 31.676 34.619 51.29 0 3.698-.453 7.265-1.376 10.587.006-.023.012-.04.017-.064l-.03.126c-.95 4.43-2.71 6.405-3.88 7.499.034.053.039.068.08.13.175.257.305.542.386.842a11.21 11.21 0 0 1 .39 2.949c0 2.156-.61 4.122-1.35 5.82 1.512.964 3.083 1.927 4.75 2.928 8.37 5.023 15.67 9.941 19.01 19.277l.93 2.88c-.007-.028.511 2.822.509 2.795.424 5.252-.884 6.795-1.948 8.216Zm5.336-8.047c.003.023.001.02 0 .013v.072c-1.779-14.993-13.513-21.61-22.57-27.045-.678-.408-1.314-.797-1.967-1.193.31-1.262.528-2.636.528-4.11 0-.952-.123-1.946-.322-2.957 1.284-1.692 2.459-3.992 3.212-7.392l.052-.212c.964-3.55 1.445-7.353 1.445-11.293 0-21.121-13.532-46.03-37.047-55.202-8.185-3.917-22.104-5.405-32.261-.486l-.03.014a30.759 30.759 0 0 0-8.196 4.99c-.32-.935-.82-1.812-1.527-2.544-1.727-1.788-4.274-2.534-6.678-1.908-4.619 1.203-6.946 3.213-9.89 5.758l-1.552 1.33c-.348.298-.7.66-.983 1.02-3.162 4.053-5.118 7.422-6.327 10.535a6.865 6.865 0 0 0-2.067.342c-6.214 2.111-9.93 8.218-10.219 16.754l-.007.184c-5.5 1.414-10.285 4.012-13.478 7.515a6.883 6.883 0 0 0-1.444 6.812c.175.529.417.962.65 1.405-3.582 4.034-5.038 8.005-5.038 11.576 0 .759.089 1.491.209 2.211-3.544 1.53-7.914 3.253-13.645 5.493-9.736 3.808-13.477 11.062-13.723 16.116a10.351 10.351 0 0 0 .361 3.304c-.44.231-.88.462-1.316.686-3.98 2.036-6.051 2.542-6.814 2.668-2.395-.75-5.107-.187-6.98 1.728A6.865 6.865 0 0 0 0 104.044a6.862 6.862 0 0 0 2.102 4.95l.133.122c1.15 1.128 9.564 9.135 18.935 10.643 2.122.34 4.802.457 7.508.452a10.76 10.76 0 0 0 2.123 4.054c4.477 5.322 12.099 8.14 23.304 8.618 5.61.237 11.3.325 14.974.359.975 1.134 2.245 2.29 3.988 3.38 5.195 3.25 13.939 2.245 26.365-.431 8.825-1.901 15.578-4.399 20.198-7.439 8.499 2.965 24.897 8.351 32.621 8.628 13.959.506 21.538-4.347 23.785-8.658.525-1.005.775-2.07.856-3.128l7.25 2.308c.026-.032 2.055.323 2.082.326 1.757.15 7.2.94 10.925-4.038 1.619-2.164 3.2-5.383 2.437-11.143Z" fill="#006095" mask="url(#b)"/></g><path d="m68.042 69.143.003-.06c.002-.027.002-.054.003-.082-.003.047-.006.094-.006.142" fill="#FFFFFE"/><path d="M189.104 151.523s-5.763-1.424-9.514-2.846c-2.028-.77-4.356-1.502-5.933-1.803-1.524-.29-9.768-1.558-11.449-1.558-1.68 0-3.993-.618-3.993-.618s6.837 7.472 7.614 7.988c0 0 1.965 1.409 2.844 1.294.88-.116 1.94-.776 2.2-.13.257.646.904.129-.26 1.68-1.163 1.553-5.43 3.622-8.276 4.139-2.844.517-5.818 1.68-12.542.259-6.724-1.423-30.515-9.181-30.515-9.181l-.378-.108c-2.113 2.01-7.383 5.449-20.103 8.19-7.045 1.516-17.67 3.573-21.266 1.323-3.595-2.247-3.655-4.406-3.655-4.406s-9.58.011-18.664-.374c-9.087-.388-15.193-2.443-18.326-6.168-2.333-2.778.085-5.715 3.765-7.06-5.258.47-13.309.87-17.573.186-7.598-1.224-15.38-8.918-15.38-8.918s2.072 2.002 12.009-3.083c9.936-5.086 20.826-12.049 20.826-12.049s-9.557.731-13.498 3.917c-3.942 3.186-4.747-7.206 6.72-11.688 10.817-4.23 16.71-6.58 21.503-9.271.014-.028.025-.054.038-.083-.659.029-1.524.176-1.994-.206-3.839-4.665-.87-9.844 4.13-14.076 1.758-1.481 3.78-2.697 5.992-3.793-2.479-.534-6.973.708-7.822-1.843 3.238-3.551 9.41-6.178 16.593-6.45.609-1.165-1.434-4.176-1.323-5.56.126-4.247 1.412-9.154 5.563-10.563-.699 1.76 3.598 6.983 5.197 7.858-.518-7.51-.815-11.766 6.407-21.015 3.84-3.245 5.11-4.74 8.734-5.685-.6 1.956-2.508 13.04 1.18 20.226 1.345-7.169 6.172-17.192 16.49-21.23 8.31-4.043 20.184-2.577 26.588.609 25.153 9.674 36.957 39.572 31.594 58.626-1.741 8.36-6.315 5.604-3.404 9.918.824 3.038-.194 6.052-1.873 9.043 5.917 4.04 12.263 7.164 17.294 11.845 4.04 3.477 7.256 7.706 8.338 13.741 1.811 10.086-3.878 8.923-3.878 8.923Zm6.585-10.44-.93-2.88c-3.34-9.336-10.64-14.254-19.01-19.277-1.667-1-3.238-1.964-4.75-2.928.74-1.698 1.35-3.664 1.35-5.82 0-.955-.116-1.941-.39-2.95a2.823 2.823 0 0 0-.386-.841c-.041-.062-.046-.077-.08-.13 1.17-1.094 2.93-3.069 3.88-7.499l.03-.126c-.005.024-.011.041-.017.064.923-3.322 1.376-6.89 1.376-10.586 0-19.615-12.654-42.792-34.619-51.291-7.27-3.552-19.743-4.95-28.82-.598-6.945 2.748-11.728 7.978-14.71 13.589-.008-.32-.035-.645-.035-.959 0-3.755.56-7.065.908-8.195a2.833 2.833 0 0 0-.663-2.793 2.834 2.834 0 0 0-2.762-.783c-3.705.965-5.518 2.532-8.263 4.903l-1.585 1.359a3.031 3.031 0 0 0-.405.42c-4.413 5.653-6.234 9.74-6.9 13.6-.12-.227-.233-.46-.416-.651a2.833 2.833 0 0 0-2.966-.73c-4.607 1.565-7.26 6.218-7.48 13.103-.005.083-.01.168-.01.252 0 .987.347 1.963.72 2.921-6.329.85-11.882 3.382-15.245 7.07a2.835 2.835 0 0 0-.596 2.806c.475 1.424 1.38 2.273 2.441 2.802-5.09 4.398-6.636 8.308-6.636 11.407 0 1.793.523 3.274 1.148 4.47-4.147 1.953-9.471 4.058-17.143 7.056-7.425 2.903-10.951 8.39-11.153 12.542-.006.12-.01.24-.01.358 0 1.901.778 3.427 2.087 4.244-1.734.96-3.5 1.908-5.23 2.794-7.146 3.656-9.386 3.135-9.408 3.13l-.027-.002c-1.345-.234-2.36-.283-3.28.85-.474.581-.734 1.256-.734 1.914 0 .621.233 1.23.738 1.729l.024.024c.49.482 8.582 8.34 16.898 9.677 2.872.462 7.034.456 10.7.318-.127.494-.196.99-.196 1.484 0 1.439.54 2.856 1.584 4.098 3.703 4.402 10.369 6.75 20.376 7.177 6.65.281 13.594.351 16.86.37.69 1.196 1.897 2.618 4.078 3.981 3.44 2.153 10.209 1.876 23.365-.956 11.379-2.452 17.295-5.52 20.398-8.003 6.565 2.327 25.51 8.82 33.415 9.103 11.242.408 18.275-3.075 20.051-6.482.697-1.337.625-2.783-.194-3.868-.407-.54-1.608-1.725-3.994-1.274-.715-.035-2.17-1.1-3.825-2.672 4.177.504 8.135.984 8.407 1.018.49.154 12.53 3.99 12.53 3.99.018.037.025.026.101.037.014.001 5.342 2.15 7.964-1.355 1.064-1.42 2.372-2.964 1.948-8.216.002.027-.516-2.823-.509-2.795Z" fill="#FFDA1B"/><path d="M113.206 36.269c.038-.02.08-.03.118-.048.032-.013.057-.03.087-.043-.07.028-.138.057-.205.09M55.429 119.269l.025-.017c-.09-.176-.06-.072-.025.017" fill="#FFFFFE"/><path d="M114.044 149.514c.216.172.034.207-.278.19-1.347.91-7.432 4.85-13.553 6.22-6.936 1.553-16.33 3.108-21.298 1.784-4.966-1.322-4.236-5.77-4.236-5.77s-7.805-.083-13.953.386c-6.145.473-9.59-.106-14.967-1.396-5.375-1.291-5.759-4.996-2.936-7.11 2.598-1.942 4.39-4.421 3.161-4.327-1.23.093-9.292-.107-12.171-.229-2.88-.122-8.057-.125-11.444-.676-5.832-.952-7.725-3.51-7.725-3.51s7.328-2.263 8.948-3.068c1.621-.805 5.598-2.677 8.018-4.224 2.315-1.48 2.85-2 7.527-5.236 4.429-3.063 8.28-4.623 8.28-4.623s-4.209-1.776-7.898-1.617c-9.165.39-13.391 3.928-13.391 3.928s.691-2.993 2.7-4.509c2.01-1.515 3.009-2.498 6.268-3.429 3.258-.93 7.56-2.512 16.497-5.92 4.33-1.652 6.903-3.894 8.408-5.766 1.409-3.499 3.654-6.735 7.189-9.983-.556-.865.537-3.864-.022-3.099-6.842 2.448-10.28 11.61-10.348 11.922l.004.002-.004-.002c-5.683-2.519-.17-10.821 4.862-14.135 1.985-1.386 6.117-1.906 5.95-4.155-2.75-.74-5.808-.195-8.794-.318 3.598-3.265 10.324-4.726 16.187-5.519.022-3.51-3.953-7.865.04-12.209.463 3.071 5.317 5.73 8.383 6.57 3.263-.67.755-3.09 1.158-4.722-.24-6.231 2.63-14.856 8.887-20.297-2.566 7.943 1.112 13.273 2.663 18.907.485.843.837 2.275 3.339 1.68 1.935-6.675 3.003-13.498 10.143-19.854 3.495-2.917 8.178-5.589 14.543-6.16 15.353-.131 27.072 8.059 31.517 15.065 13.1 12.724 14.861 29.73 13.528 44.192-.31 2.1-2.367 4.154-4.486 5.811-2.646 1.112-5.072.223-6.24-1.086-8.646-7.93-12.93-18.385-28.263-22.582-.751.642.975 1.187 1.469 1.655 5.532 6.45 12.223 12.826 15.526 20.709.456.395 1.423.197 1.797-.125 1.1.346.48 2.348 2.63 1.581.192-4.525 2.702 1.73 4.875 2.1 1.823 1.827 6.84-.423 5.939 2.37-.754 2.275-.048 4.82-2.347 6.922-1.645.989-3.735.52-5.557.323-4.722-1.232-7.108-3.68-10.11-5.755-8.398-8.796-15.577-17.264-25.16-25.49-6.278-4.845-13.737-7.368-20.02-6.895-12.557 2.02-13.793 7.504-15.396 11.584-1.694 6.625 2.337 13.905 4.739 20.751-2.438-1.456-5.938-3.186-9.417-2.963-1.077.793-.644 1.682.15 2.497-1.787-.122-3.546-.739-5.446-.269-.966 1.013.312 1.731.864 2.595-1.906-.1-4.261-.022-5.98.818-.945.52-1.547 1.46-1.187 2.201.433.074.783.246 1.216.32-4.02 1.559-8.787 1.448-13.368 3.683.041.16.006.094-.025.017-2.191 1.442-3.07 2.02-3.36 3.409-.36 1.73.514 3.316 4.627 3.73 3.827.386 6.577.18 6.577.18s-2.392 2.565-2.342 4.267c.009.323.272.7.692 1.097 2.459.625 6.29-.857 7.803.698 6.937 6.996 18.43 12.96 31.63 15.523l6.805.886 6.183.455Zm-38.933-16.716c-1.182-1.065-1.919-3.366-3.837-4.032-1.52.148-5.02 1.19-6.55.77-1.024-1.83 6.723-3.66 2.078-5.562-3.93 1.213-8.837 1.042-12.518-.242-1.506-2.546 5.195-3.67 6.352-3.958 4.207-1.189 10.394-1.333 14.586-2.276.594-.69-2.386-2.424-3.085-2.772-3.274-.713 3.225-.542 3.99-.616 2.125-.274 1.03-.419 1.84-2.297-.759-.743 3.884.76 4.211.61.854.397 2.098 1.04 3.344.866.27-1.362-1.374-1.648-2.058-3.057 3.886 1.159 7.64 2.037 10.777 3.84-.324-2.297-2.8-7.013-3.678-9.36-2.743-8.407-5.436-17.363 7.178-21.488 9.478-3.024 18.586 4.83 24.058 9.18.013-.004 2.81 1.966 2.81 1.966l4.28 3.831 8.263 7.586 5.611 5.837c2.95 2.421 6.015 4.63 8.066 5.245 3.88 1.163 8.017 1.552 10.086.388 2.07-1.164 2.587-1.81 2.587-1.81s.517-3.75.646-4.785c.13-1.034.258-2.973.258-2.973s2.457-1.423 2.975-1.164c.517.259 1.033 7.5-1.682 10.085 0 0 2.457 1.036 10.087 5.949 3.063 1.972 6.146 3.967 8.858 6.3-5.031-4.681-11.377-7.806-17.294-11.845 1.68-2.991 2.697-6.005 1.873-9.043-2.911-4.314 1.663-1.558 3.404-9.918 5.363-19.054-6.44-48.952-31.594-58.626-6.404-3.186-18.279-4.652-26.589-.61-10.317 4.04-15.144 14.062-16.49 21.23-3.687-7.185-1.78-18.269-1.179-20.225-3.623.945-4.894 2.44-8.734 5.685-7.222 9.25-6.925 13.504-6.407 21.015-1.599-.875-5.896-6.098-5.197-7.858-4.15 1.41-5.437 6.316-5.563 10.562-.11 1.385 1.932 4.396 1.323 5.562-7.183.27-13.355 2.898-16.593 6.449.85 2.55 5.343 1.31 7.822 1.843-2.212 1.096-4.234 2.312-5.992 3.793-5 4.232-7.969 9.41-4.13 14.076.47.382 1.335.235 1.994.206-.013.029-.024.055-.038.083-4.793 2.691-10.686 5.042-21.504 9.27-11.466 4.483-10.661 14.875-6.72 11.69 3.942-3.187 13.499-3.918 13.499-3.918s-10.89 6.963-20.826 12.049c-9.937 5.085-12.01 3.083-12.01 3.083s7.783 7.694 15.38 8.918c4.265.684 12.316.285 17.574-.185-3.68 1.344-6.098 4.281-3.765 7.06 3.133 3.724 9.239 5.78 18.326 6.167 9.084.385 18.664.374 18.664.374s.06 2.159 3.655 4.406c3.595 2.25 14.22.193 21.266-1.324 12.72-2.74 17.99-6.18 20.103-8.189l-13.404-3.817c-13.317-2.013-23.555-7.092-30.387-14.024Z" fill="#FFFFFE"/><path d="M152.145 151.897c-8.458-2.916-16.062-6.25-22.021-10.573 4.067.797 9.416 2.386 16 2.837 2.713 2.297 4.843 5.042 6.02 7.736Zm-27.77-15.02c-.737-.42-.77-1.309-1.214-1.952 3.272-.914 7.006-.62 10.582-1.192 1.318-.84-.845-.64-1.351-.863-7.33-.046-15.048-.338-22.446 1.666-.545.518-.148 1.335.43 1.706 3.48.59 5.329-1.337 8.954-1.265 3.187 7.536 10.683 10.616 18.672 15.012 6.744 2.94 16.936 6.554 25.28 7.042-1.85 1.928-5.907.966-8.782 1.067-14.658-2.54-29.698-6.957-43.227-12.095-2.546-.865-4.45-2.593-6.816-3.088-.775.323.035.893-.533 1.09-12.142-4.199-23.864-11.542-23.28-17.94-.078-2.026 1.774-3.564 3.565-4.257 13.55-3.837 24.22-.494 37.33 2.687 6.745 3.294 21.642 7.391 29.174 10.577 1.597-1.634-11.1-3.97-6.822-5.01 8.417-1.987 6.909-7.978 7.256-11.636 3.186.813 7.1 1.48 10.097-.275.407-.25.595-.692 1.27-.668 13.67 7.063 28.833 18.232 26.086 30.619-24.763-9.035-46.088-3.382-64.226-11.225Zm-7.12-40.855c.91-1.41 4.646-2.745 6.27-1.041 5.933 5.633 11.107 9.68 17.863 17.048-6.356.296-4.083 7.473-1.77 10.585 3.088 2.994 4.735 1.602 6.733 1.523 1.24 2.196-3.259 3.686-6.135 4.602-4.756-2.123-11.54-3.507-15.013-6.545-8.452-6.991-12.086-17.743-7.948-26.172Zm24.755 18.652c1.39-.694 1.64.641 1.458 1.085-.303 1.286.032 2.523.04 3.907-1.893-1.161-2.18-3.386-1.498-4.992Zm23.473-5.296c1.214-.403 1.238.7 1.032 1.039-.415 1.002-.311 2.036-.49 3.153-1.37-1.146-1.306-2.971-.542-4.192Zm19.16 19.48c-2.711-2.332-5.794-4.327-8.857-6.299-7.63-4.913-10.087-5.95-10.087-5.95 2.715-2.585 2.2-9.825 1.682-10.084-.518-.259-2.975 1.164-2.975 1.164s-.128 1.939-.258 2.973c-.129 1.034-.646 4.785-.646 4.785s-.518.646-2.587 1.81c-2.069 1.164-6.206.775-10.086-.388-2.051-.615-5.116-2.824-8.066-5.245l-5.61-5.837-8.263-7.586-4.282-3.83s-2.796-1.97-2.809-1.966c-5.472-4.351-14.58-12.205-24.058-9.18-12.614 4.124-9.92 13.08-7.178 21.486.878 2.348 3.354 7.064 3.678 9.36-3.137-1.802-6.891-2.68-10.777-3.839.684 1.41 2.328 1.695 2.058 3.057-1.246.174-2.49-.47-3.344-.865-.327.15-4.97-1.354-4.212-.611-.81 1.878.286 2.023-1.84 2.297-.764.074-7.263-.097-3.99.616.7.348 3.68 2.082 3.086 2.772-4.192.943-10.38 1.087-14.586 2.276-1.157.287-7.858 1.412-6.352 3.958 3.68 1.284 8.589 1.455 12.518.242 4.645 1.902-3.102 3.732-2.078 5.562 1.53.42 5.03-.622 6.55-.77 1.918.666 2.655 2.967 3.837 4.032 6.832 6.932 17.07 12.011 30.387 14.024l13.404 3.817.378.108s23.79 7.758 30.515 9.18c6.724 1.423 9.698.259 12.542-.258 2.845-.517 7.113-2.586 8.276-4.138 1.164-1.552.517-1.035.26-1.68-.26-.647-1.32.013-2.2.129-.879.115-2.844-1.294-2.844-1.294-.777-.516-7.614-7.988-7.614-7.988s2.313.618 3.993.618c1.681 0 9.925 1.268 11.449 1.558 1.577.3 3.905 1.033 5.933 1.803 3.75 1.422 9.514 2.846 9.514 2.846s5.69 1.163 3.878-8.923c-1.082-6.035-4.297-10.264-8.338-13.741Z" fill="#006095"/><path d="M155.215 124.43c-.402-.815 3.256-2.693 4.62-2.078 2.787.816 4.992 2.074 6.223 3.78-2.863-.964-7.974-.987-10.843-1.703Zm7.299-6.947c-.675-.024-.863.419-1.27.668-2.998 1.754-6.911 1.088-10.097.275-.347 3.658 1.161 9.649-7.256 11.635-4.278 1.04 8.42 3.377 6.822 5.011-7.532-3.186-22.43-7.283-29.173-10.577-13.11-3.181-23.782-6.524-37.33-2.687-1.792.693-3.644 2.231-3.567 4.256-.583 6.399 11.14 13.742 23.28 17.94.569-.196-.24-.766.534-1.089 2.367.495 4.27 2.223 6.816 3.088 13.53 5.138 28.57 9.555 43.227 12.095 2.875-.101 6.931.86 8.783-1.067-8.345-.488-18.537-4.102-25.28-7.042-7.99-4.396-15.486-7.476-18.673-15.012-3.625-.072-5.475 1.856-8.953 1.265-.58-.371-.976-1.188-.431-1.706 7.398-2.004 15.116-1.712 22.446-1.666.506.223 2.67.024 1.35.863-3.575.572-7.31.278-10.58 1.192.443.643.476 1.533 1.212 1.952 18.138 7.843 39.463 2.19 64.226 11.225 2.747-12.387-12.417-23.556-26.086-30.62Z" fill="#FFDA1B"/><path d="M125.203 122.194c3.473 3.038 10.257 4.422 15.013 6.545 2.876-.916 7.374-2.406 6.135-4.602-1.998.079-3.645 1.471-6.733-1.523-2.313-3.112-4.586-10.289 1.77-10.585-6.756-7.367-11.93-11.415-17.863-17.048-1.624-1.704-5.36-.368-6.27 1.041-4.138 8.429-.504 19.181 7.948 26.172" fill="#FFFFFE"/><path d="M143.508 119.666c-.008-1.384-.343-2.62-.04-3.907.182-.444-.068-1.78-1.458-1.085-.681 1.606-.395 3.831 1.498 4.992" fill="#FFFFFE"/><path d="m56.82 99.452.004.002"/><path d="M69.426 132.65c-1.513-1.555-5.344-.073-7.803-.698-.42-.398-.683-.774-.692-1.097-.05-1.702 2.342-4.266 2.342-4.266s-2.75.205-6.577-.18c-4.113-.415-4.986-2.001-4.626-3.731.29-1.389 1.168-1.967 3.359-3.41-.035-.088-.065-.192.025-.016 4.58-2.235 9.348-2.124 13.368-3.683-.433-.074-.783-.246-1.216-.32-.36-.741.242-1.681 1.188-2.201 1.718-.84 4.073-.917 5.979-.818-.552-.864-1.83-1.582-.864-2.595 1.9-.47 3.659.147 5.446.269-.794-.815-1.227-1.704-.15-2.497 3.479-.223 6.979 1.507 9.417 2.963-2.402-6.846-6.433-14.126-4.739-20.75 1.603-4.08 2.84-9.565 15.397-11.585 6.282-.473 13.74 2.05 20.02 6.895 9.582 8.226 16.76 16.694 25.16 25.49 3 2.075 5.387 4.523 10.109 5.755 1.822.197 3.912.666 5.557-.323 2.3-2.102 1.593-4.647 2.347-6.923.901-2.792-4.116-.542-5.939-2.37-2.173-.369-4.683-6.624-4.875-2.099-2.15.767-1.53-1.235-2.63-1.581-.374.322-1.341.52-1.797.125-3.303-7.883-9.994-14.26-15.526-20.709-.494-.468-2.22-1.013-1.469-1.655 15.333 4.197 19.617 14.652 28.263 22.582 1.168 1.309 3.594 2.198 6.24 1.086 2.119-1.657 4.176-3.711 4.486-5.81 1.333-14.464-.428-31.47-13.528-44.193-4.445-7.006-16.164-15.196-31.517-15.066-6.365.572-11.048 3.244-14.543 6.161-7.14 6.356-8.208 13.179-10.143 19.855-2.502.594-2.854-.838-3.34-1.68-1.55-5.635-5.228-10.965-2.662-18.908-6.256 5.44-9.126 14.066-8.887 20.297-.403 1.631 2.105 4.052-1.158 4.722-3.066-.84-7.92-3.499-8.382-6.57-3.994 4.344-.019 8.699-.04 12.21-5.864.792-12.59 2.253-16.188 5.518 2.986.123 6.043-.422 8.793.318.168 2.249-3.964 2.77-5.949 4.155-5.032 3.314-10.545 11.616-4.862 14.135.069-.313 3.506-9.474 10.348-11.922.559-.765-.534 2.234.022 3.099-3.535 3.248-5.78 6.484-7.189 9.983-1.505 1.872-4.079 4.114-8.408 5.766-8.936 3.408-13.24 4.99-16.497 5.92-3.26.93-4.258 1.914-6.268 3.429-2.009 1.516-2.7 4.509-2.7 4.509s4.226-3.538 13.391-3.928c3.69-.16 7.898 1.617 7.898 1.617s-3.851 1.56-8.28 4.623c-4.676 3.236-5.212 3.756-7.527 5.236-2.42 1.547-6.397 3.419-8.018 4.224-1.62.805-8.948 3.068-8.948 3.068s1.893 2.558 7.725 3.51c3.387.551 8.564.554 11.444.676 2.879.122 10.942.322 12.171.229 1.23-.094-.563 2.385-3.161 4.327-2.823 2.114-2.44 5.819 2.936 7.11 5.378 1.29 8.822 1.869 14.967 1.396 6.148-.47 13.953-.386 13.953-.386s-.73 4.448 4.236 5.77c4.968 1.324 14.362-.23 21.298-1.784 6.12-1.37 12.206-5.31 13.553-6.22.312.017.494-.018.278-.19l-6.183-.455-6.805-.886c-13.2-2.562-24.693-8.527-31.63-15.523" fill="#006095"/><path d="M55.454 119.252c-.009.005-.017.01-.025.017.031.077.066.143.025-.017" fill="#006095"/><path d="M166.025 113.57c.179-1.117.075-2.151.49-3.153.206-.34.182-1.442-1.032-1.039-.764 1.22-.828 3.046.542 4.192" fill="#FFFFFE"/><path d="M159.834 122.352c-1.363-.615-5.02 1.263-4.619 2.077 2.87.716 7.98.74 10.843 1.703-1.23-1.706-3.436-2.964-6.224-3.78" fill="#006095"/><path d="M130.124 141.324c5.959 4.323 13.563 7.657 22.02 10.573-1.177-2.694-3.307-5.44-6.02-7.736-6.584-.451-11.933-2.04-16-2.837" fill="#FFDA1B"/><path d="M23.8 156.475h-.454v-1.186c.1-.025.277-.05.53-.05.605 0 .882.252.882.63 0 .43-.428.606-.958.606Zm1.136.303v-.05c.479-.152.857-.48.857-.985 0-.403-.177-.706-.429-.883-.278-.201-.63-.328-1.413-.328-.681 0-1.211.076-1.59.127v4.138h.96v-1.64h.454c.53 0 .782.201.857.63.126.505.202.858.328 1.01h1.01c-.076-.152-.177-.379-.303-1.01-.126-.555-.328-.883-.731-1.009Z" fill="#006095"/><path d="M24.002 159.957c-1.843 0-3.23-1.463-3.23-3.305 0-1.817 1.387-3.306 3.179-3.306h.025c1.817 0 3.18 1.489 3.18 3.33 0 1.818-1.363 3.307-3.154 3.281Zm0-7.444h-.026c-2.372 0-4.264 1.818-4.264 4.14 0 2.32 1.892 4.163 4.264 4.163 2.372 0 4.24-1.843 4.24-4.164 0-2.321-1.868-4.139-4.214-4.139Z" fill="#006095"/></g></svg>