<svg width="200" height="200" xmlns="http://www.w3.org/2000/svg"><g fill-rule="nonzero" fill="none"><path d="M79.6 97.347 77.484 98.8c-.122.074-.439.194-.837.324.191-.552.35-1.115.486-1.654.086-.348.29-.988.719-1.623.77.33 1.684.455 2.597.444a4.51 4.51 0 0 0-.849 1.056Zm119.798-70.832c-.602-1.214-1.972-1.975-4.073-2.26-6.395-.868-19.713 2.608-37.379 12.806-9.55 4.27-22.78 12.969-37.642 27.639a319.267 319.267 0 0 0-5.31 4.804c-3.994-2.155-9.045-3.094-14.816-1.464-3.367-2.264-7.158-2.126-7.272-2.135-1.089-4.248-3.615-8.549-8.855-11.657l-.108-.064-.119-.045c-1.326-.498-3.012-.345-3.746 1.065-.25.321-.463.719-.463 1.243l.001.057c.023.838.516 1.595 1.465 2.25l.085.06.098.049c.278.137 4.372 2.268 6.587 7.377-.023.005-3.467.565-7.191 3.201-3.131-3.54-7.692-6.751-14.02-7.054-31.2-17.58-54.103-21.03-62.713-18.178-2.034.674-3.285 1.708-3.72 3.074-2.427 7.616 16.964 20.303 37.258 29.5l.873.085c15.139-2.421 30.757 3.535 38.85 6.622l.051.051a46.817 46.817 0 0 0 1.248 2.816c-1.323.675-2.233 1.785-2.68 2.622-1.629.383-3.264 1.317-4.87 2.237-1.22.697-2.48 1.419-3.819 1.985-4.435 1.878-5.265 5.46-5.086 7.242-.033.026-.067.049-.1.076l-.136.106-.104.138c-.787 1.044-1.722 3.404-.343 5.575-2.213.955-3.027 2.717-3.027 2.717-.814 1.65-.556 2.87-.196 3.603.866 1.757 2.983 2.226 3.222 2.274 0 0 2.583-2.849 4.078-1.795.065 1.484-3.766 1.986-3.766 1.986s7.23 1.401 10.67-1.642h.313c3.462 0 5.984-4.976 6.455-5.973.413-.878 1.21-1.868 1.955-2.68.91.345 1.842.429 2.747.291a2.226 2.226 0 0 0-.116.465c-3.969.558-4.36 4.253-4.36 4.253-.446 2.475 2.344 3.254 2.344 3.254-1.047-.442-.807-1.46-.807-1.46.636-2.649 4.013-2.921 4.013-2.921 2.468-.2 2.072 1.972 2.072 1.972l-.38-.206c-.054.64-1.845 2.368-1.845 2.368 2.907-.812 3.755-2.672 4.002-3.635.052.442.042.77.042.77 1.426-.408 2.242-2.84 2.51-4.493.093-.578.427-1.257.818-1.897a13.338 13.338 0 0 0 3.337 2.595c.224.124.447.24.67.352l.906.014c-19.436 13.135-6.998 30.37-23.196 55.644-.07.067-.139.131-.209.195-20.7 9.857-47.187 13.54-47.187 13.54s29.103-1.532 48.572-6.587c9.095.089 40.652-2.017 56.438-34.118 0 0 1.178-2.399 2.333-6.19 2.382-1.586 4.75-4.024 5.665-7.7l.01-.035.006-.037c.12-.628.171-1.222.158-1.78 2.694-3.527 1.927-7.996.448-10.755-.768-1.434-1.753-5.567-2.068-7.039l-.015-.066-.022-.064c-1.088-3.304-3.72-2.624-4.983-2.297a5.801 5.801 0 0 1-.893.152c-.164-.291-.338-.58-.515-.869.063-1.591-.527-2.539-1.053-3.054-.586-.573-1.286-.837-1.88-.96-.323-.368-.679-.728-1.028-1.09.995-.951 1.903-2.251 1.713-3.915-.121-1.08-.868-2.09-2.417-3.185-1.076-.76-2.432-.445-2.432-.445s.919-5.478-1.767-9.042c9.556-5.742 18.237-9.993 25.886-12.663 8.348-2.914 13.696-3.323 16.713-3.153l.45.025.403-.257c18.974-12.189 36.616-27.518 33.262-34.29Z" fill="#231F20"/><path d="M66.737 102.734s-.934.31-1.45.898c0 0-.243 1.105.794 1.831 0 0 .656-1.037.656-2.729M67.559 104.792s.325-.95.359-1.71c0 0 3.255-.696 5.048 2.048 0 0-2.333-1.892-5.407-.338" fill="#289EE0"/><path d="M73.91 102.489s1.522-1.105 1.972-1.557c0 0 2.051-.533 2.544-.902.492-.369 2.16-1.827 3.888-.998 0 0 1.98 1.128-.524 3.5 0 0-2.708 2.379-3.734 4.553-1.024 2.175-3.117 5.21-5.25 5.21 0 0 1.786-2.86-.52-4.931 0 0-2.027-1.63-4.241-.769l-.612-.453.397-.456s3.886-1.442 6.142 1.692c0 0 .69-2.695-.062-4.89M61.952 112.296s.127-2.597 5.074-2.257l-1.06 1.83s-3.14-.892-4.014.427M67.219 112.057l.741-1.685s1.045.135 1.382.843c0 0-.068.742-1.314 1.348 0 0-.37-.438-.81-.506" fill="#289EE0"/><path d="M72.505 103.207c.364.398.678.913.902 1.58l.012.011c-.03-.316-.334-2.983-2.007-4.111 0 0-.259-.194-.723-.41a14.324 14.324 0 0 1 1.816 2.93" fill="#289EE0"/><path d="M66.017 75.815c-2.322.194-4.354.46-6.01.731 1.165.27 2.38.574 3.642.913h.001a82.177 82.177 0 0 1 6.717-.39 92.21 92.21 0 0 0-4.35-1.254" fill="#FFF"/><path d="M86.592 96.785c-1.243.148-1.973-.241-1.973-.241-2.502-.533-3.69 1.6-3.69 1.6.655-.493 1.927-.165 1.927-.165 2.83 1.19.41 4.224-.123 4.39-.534.163-1.272 1.27-1.272 1.27 2.05.903 3.773.041 4.84-1.025 1.067-1.067 4.102-2.092 4.102-2.092a4.264 4.264 0 0 0-.811-2.168c-.581-.186-1.652-.623-3-1.57" fill="#289EE0"/><path d="M79.176 87.726c-1.432.768-2.104 2.173-2.104 2.173 1.066 0 1.786.171 2.276.39.149-.367.363-.768.602-1.17a37.08 37.08 0 0 1-.774-1.393" fill="#7DD5F7"/><path d="M79.95 89.119a9.063 9.063 0 0 0-.602 1.17c.868.387 1.006.922 1.006.922.943 1.6-1.97 3.487-1.97 3.487 1.621.81 4.45.278 5.466-.3-1.249-1.308-2.584-3.024-3.9-5.28" fill="#289EE0"/><path d="M44.57 53.138c-.779-.322-1.547-.633-2.306-.932l.636.426c.548.16 1.105.33 1.67.506" fill="#FFF"/><path d="M73.356 78.053c-1.013-.349-2.011-.68-2.989-.984a82.177 82.177 0 0 0-6.717.39h-.001c3.448.926 7.284 2.144 11.489 3.675-.685-.915-1.356-1.98-1.782-3.081" fill="#289EE0"/><path d="M72.934 76.415c-.072-.632-.025-1.255.183-1.848.01-.028.027-.053.037-.081-2.282.086-4.33.274-5.99.49 1.806.489 3.754 1.084 5.827 1.782-.02-.115-.044-.23-.057-.343" fill="#7DD5F7"/><path d="M73.865 73.33c-4.184-.021-7.7.384-10.136.79 1.086.243 2.235.53 3.435.856a66.689 66.689 0 0 1 5.99-.49 3.59 3.59 0 0 1 .711-1.155M80.942 82.095c-1.366-1.148-1.846-2.294-1.846-2.294-.408 3.32.234 7.83 4.344 11.624-.387-.297-3.475-4.761-2.498-9.33M100.805 76.7c.064.445.507 4.564-1.14 9 2.47-3.169 3.586-6.414 3.594-10.438 0 0-1.44.171-2.454 1.439M87.74 87.08a3.598 3.598 0 0 1-1.637-.403c.154.657.36 1.466.416 1.975.128 1.125.099 2.017.015 2.735.54.309 1.658.474 2.355.549a40.737 40.737 0 0 1-1.15-4.857M86.526 91.458c-.05.411-.115.78-.19 1.061 1.716 1.75 3.079 2.429 3.766 2.684a23.437 23.437 0 0 1-.897-2.27c-1.62-.357-2.429-1.17-2.679-1.475" fill="#FFF"/><path d="M92.356 84.183c-1.784 2.208-3.353 2.896-4.617 2.896.319 1.827.767 3.728 1.362 5.528-.072-.224-.144-.446-.212-.671.343.036.59.054.59.054.974-.11 2.659-1.288 2.659-1.288l.466 1.106c-1.277 1.133-2.696 1.25-2.696 1.25a6.409 6.409 0 0 1-.703-.126c.27.784.561 1.55.897 2.27-.687-.254-2.05-.933-3.765-2.683.205-.778.389-2.047.182-3.867-.057-.509-.262-1.318-.416-1.975a4.94 4.94 0 0 1-1.714-1.49c2.4 6.213.502 7.646.502 7.646 3.204 3.532 5.548 3.773 5.548 3.773 4.335-2.473 6.753-6.445 6.753-6.445-7.093 1.391-4.836-5.978-4.836-5.978" fill="#ED192D"/><path d="m92.604 91.808-.466-1.106s-1.685 1.178-2.66 1.288c0 0-.246-.018-.59-.054.07.225.141.447.213.671.036.108.067.218.104.325.223.05.449.098.703.126 0 0 1.42-.117 2.696-1.25" fill="#231F20"/><path d="M89.205 92.932a29.186 29.186 0 0 1-.316-.996c-.697-.075-1.815-.24-2.355-.55l-.008.072c.25.305 1.059 1.118 2.679 1.474" fill="#231F20"/><path d="M83.332 72.99c.026.039.055.08.08.12 1.026 1.4 1.927 3.395 2.459 4.696.33.787.493 1.276.503 1.306l.064.204-.907-7.755-.01-.103c.982-.52 2.07-.86 2.985-.916.192.716.492 2.265.726 3.526.01-.27.029-.546.029-.807 0-2.192-.357-4.077-.904-5.715-.027.002-.042-.007-.053-.021-3.064.536-5.29 2-6.624 3.145a34.25 34.25 0 0 1 1.652 2.318v.002M93.669 70.024s2.132-.323 3.999.661c.195-.144.373-.27.538-.387l.006-.005c.48-.337.817-.557.956-.644l.014-.01.061-.038c-2.171-1.122-4.168-1.765-5.984-2.068.155.888.256 1.766.31 2.623.037-.045.062-.088.1-.132" fill="#861810"/><path d="M94.513 69.946c.795 0 2.025.116 3.152.705a30.93 30.93 0 0 1 1.503-1.036l.017-.011c-1.996-1.027-3.978-1.712-5.89-2.036.141.82.242 1.663.298 2.508a.941.941 0 0 1 .054-.07l.007-.009.01-.002c.009 0 .339-.049.849-.049Zm3.157.773-.015-.008c-1.77-.933-3.806-.683-3.971-.66-.017.02-.031.04-.045.06-.015.021-.03.042-.047.063l-.047.057-.005-.073a24.109 24.109 0 0 0-.31-2.62l-.007-.04.04.006c1.946.325 3.962 1.022 5.993 2.072l.045.023-.043.027-.06.038-.023-.02.016.024-.008.005a22.948 22.948 0 0 0-.962.65c-.14.098-.327.232-.536.386l-.015.01ZM119.056 107.494l.166-.18c.037-.044.942-1.034 1.71-1.667.27-.222.686-.857.772-1.94-.72 1.208-1.695 2.529-2.896 3.679.083.037.166.07.248.108" fill="#861810"/><path d="m118.864 107.376.073.031.111.048.15-.163c.008-.009.925-1.018 1.715-1.67.286-.234.644-.837.746-1.779-.578.953-1.513 2.298-2.795 3.533Zm.2.157-.021-.01-.13-.058-.118-.05-.043-.02.034-.032c1.349-1.292 2.316-2.71 2.89-3.672l.06.02c-.083 1.04-.473 1.706-.783 1.96-.787.649-1.699 1.654-1.707 1.663l-.182.199ZM125.328 95.436c.33-.23.694-.433 1.075-.622-.073-.077-.154-.149-.228-.224-.17.122-.324.231-.45.325-.107.091-.243.274-.397.521" fill="#861810"/><path d="m126.172 94.631-.144.104-.285.206c-.079.068-.181.196-.303.381.256-.17.55-.337.91-.517l-.088-.086-.09-.088Zm-.825.831-.045-.043c.163-.261.298-.44.402-.528.086-.064.182-.133.287-.208l.188-.135.02.02.107.106c.04.039.082.078.12.118l.03.03-.039.02a8.193 8.193 0 0 0-1.07.62Z" fill="#861810"/><path d="M87.815 159.986c-.932-3.164-3.33-4.925-3.33-4.925 2.218 1.223 3.575 2.765 4.405 4.332 4.33-2.487 7.967-5.597 11.02-9.027-1.2-2.445-3.22-4.893-6.499-7.055 0 0 4.652 1.224 8.05 5.228 3.89-4.817 6.733-10.112 8.798-15.112-8.438-6.826-20.504-4.656-21.257-4.511-.351 11.643-3.95 26.84-9.651 33.665.202.224.384.45.527.672a43.153 43.153 0 0 0 7.937-3.267" fill="#ED192D"/><path d="M106.657 102.527c.227-.858.856-1.995 2.4-3.22l-3.163 1.188c-1.785-2.072-1.1-5.183-1.099-5.187-3.263-.869-4.531-2.954-4.778-4.702a28.748 28.748 0 0 1-6.69 6.256c-.526.95-.925 1.895-1.079 2.787 0 0 .831 5.249 8.157 6.18.97-1.7 2.865-3.29 6.252-3.302" fill="#861810"/><path d="M92.278 99.65c.015.086.252 1.36 1.326 2.725 1.846 2.345 4.705 3.156 6.786 3.423.86-1.5 2.64-3.28 6.245-3.3.353-1.304 1.396-2.388 2.264-3.1l-2.995 1.124-.02.007-.012-.015c-1.69-1.961-1.174-4.866-1.11-5.186-3.775-1.015-4.59-3.538-4.764-4.65a28.909 28.909 0 0 1-6.65 6.204c-.58 1.05-.93 1.956-1.07 2.768Zm8.143 6.21-.02-.002c-2.094-.266-4.98-1.08-6.844-3.45-1.115-1.418-1.335-2.74-1.337-2.754v-.01c.14-.82.495-1.735 1.082-2.796l.009-.01a28.852 28.852 0 0 0 6.683-6.25l.042-.053.01.067c.15 1.066.915 3.655 4.756 4.677l.022.006-.001.03c-.027.127-.638 3.133 1.08 5.146l3.02-1.134.164-.061v.07h-.02c-.89.707-2.02 1.833-2.382 3.199l-.006.021h-.022c-3.605.012-5.376 1.795-6.227 3.288l-.01.017Z" fill="#861810"/><path d="M104.795 95.307c.279-.657.72-5.633 9.614-5.562.23-.009 3.564-.16 5.469-1.715 0 0 .71-.516 1.711-1.044a16.098 16.098 0 0 0-.448-3.464c-6.037-1.091-12.321-.233-18.05 2.203a28.87 28.87 0 0 1-3.074 4.881c.247 1.748 1.515 3.833 4.778 4.701" fill="#ED192D"/><path d="M127.574 112.313c.217 1.494.04 2.785.04 2.785 3.887-1.684 3.088-8.185 2.729-9.721-.338 4.526-1.942 6.308-2.77 6.936M139.686 110.718c.085 1.6-.134 4.106-1.909 6.038.827.983.997 2.089.997 2.089 2.069-2.703 1.677-5.973.912-8.127M78.548 91.333a4.227 4.227 0 0 0-1.359-.647c-.135.22-.317.452-.46.538-2.201 1.33-2.963 3.569-3.189 4.468-.364 1.47-.839 2.575-1.222 3.203-.34-.389-1.11-.217-1.949-.081 2.25.715 3.103 2.61 3.103 2.61 1.681-.082 2.452-3.813 2.534-4.143.082-.327.595-2.493 2.584-3.65 1.148-.668-.042-2.298-.042-2.298" fill="#289EE0"/><path d="M72.318 98.895c.383-.628.858-1.733 1.222-3.203.226-.9.988-3.138 3.188-4.468.144-.086.326-.317.461-.538-2.73-.723-5.224 2.124-9.387 3.89-4.84 2.05-4.171 5.407-4.171 5.407 3.025-1.602 5.204-1.658 6.738-1.17.84-.135 1.61-.307 1.95.082" fill="#7DD5F7"/><path d="M61.114 111.742c-.01.006-.014.012-.014.018-.01.024 0 .064-.01.082.01-.029.014-.065.024-.1" fill="#289EE0"/><path d="m69.014 107.163.4.468c-2.298 1.271-5.878-.3-5.878-.3-2.035.087-3.155 1.372-3.609 2.048.205.791.558 1.73 1.164 2.453 0 0 .131-1.88 1.806-2.918 0 0 .13.47.2.679.872-.993 3.152-1.236 3.152-1.236l-.09.517c1.026-.029 1.781.12 1.781.12 3.487.705 2.077 3.547 2.077 3.547l-.443-.436c-.33.862-3.487 2.538-3.487 2.538 5.981.043 6.266-3.672 6.266-3.672.846-3.317-3.34-3.808-3.34-3.808" fill="#289EE0"/><path d="M59.68 109.792c-1.6 3.24 2.092 3.98 2.092 3.98-.834-.674-.8-1.461-.682-1.93l.001-.01c-.606-.723-.959-1.662-1.164-2.453-.164.244-.247.413-.247.413" fill="#7DD5F7"/><path d="M71.412 100.687s-3.297-2.484-7.641.402c-.704 1.449-1.386 4.178 1.829 6.344a7.919 7.919 0 0 0 2.408.063s-5.496-1.682-3.53-5.373l.535.533s.012-.01.014-.01c.155-.37.758-1.26 3.018-1.512l-.108.975c.485-.12 4.295-.925 5.485 2.72 0 0-.229-2.942-2.01-4.142" fill="#289EE0"/><path d="M63.771 101.089c-.279.186-.563.391-.85.624 0 0-1.887 2.502.205 4.674 0 0 .839.746 2.474 1.046-3.215-2.166-2.533-4.895-1.829-6.344M68.157 68.029c2.176 1.47 4.357 2.95 6.44 4.378.867.02 1.74.081 2.611.14-3.103-2.98-6.442-4.13-9.051-4.518M54.74 59.055c1.893 1.255 4.086 2.713 6.443 4.29.407-.337.891-.594 1.393-.751-.022.006-.042.016-.062.023a135.04 135.04 0 0 0-7.774-3.562" fill="#7DD5F7"/><path d="M50.783 56.435c1.047.69 2.403 1.587 3.957 2.62a135.04 135.04 0 0 1 7.774 3.562c.02-.007.04-.017.062-.023l.123-.04.128-.016c.394-.05.773-.077 1.154-.106-4.734-2.452-9.147-4.432-13.198-5.997" fill="#FFF"/><path d="M69.41 69.891c-13.539-4.614-24.366-2.013-29.46-.152a145.253 145.253 0 0 0 7.545 3.612c2.437-.6 6.852-1.038 14.008.31 4.062-.835 7.842-1.243 11.594-1.263-1.208-.826-2.445-1.666-3.687-2.507" fill="#7DD5F7"/><path d="M69.41 69.891c-.57-.387-1.14-.774-1.713-1.16a52.419 52.419 0 0 0-2.668-.861 10.87 10.87 0 0 0-1.533.17l-.11.023s-2.158.114-2.964-1.305c-10.641-2.04-18.86.116-22.954 1.668.805.438 1.635.876 2.483 1.313 5.093-1.861 15.92-4.462 29.46.152" fill="#FFF"/><path d="M60.585 63.983a4969.305 4969.305 0 0 0-11.387-7.573l-.012-.006c-8.206-2.853-14.735-3.94-19.265-3.963h-.01c5.947 1.215 13.91 4.575 23.556 12.632 2.095.08 4.326.316 6.673.749-.005-.047-.016-.088-.018-.137-.013-.103.023-.224.023-.324 0-.516.167-.98.44-1.378" fill="#7DD5F7"/><path d="m49.186 56.404.012.006-1.884-1.249c-12.377-4.302-20.94-4.592-24.587-3.264 1.894-.131 4.304-.043 7.183.545h.01c4.531.022 11.06 1.11 19.266 3.962" fill="#FFF"/><path d="M116.541 80.672c1.111.073 2.22.194 3.321.389l1.088-1.019a27.011 27.011 0 0 0-.941-1.556c-1.144.709-2.3 1.436-3.468 2.186M109.646 74.561l.697-.67a309.04 309.04 0 0 1 2.515-2.397 16.245 16.245 0 0 0-3.297-1.428c.026.124.059.245.074.377.088.775-.674 5.991-4.177 8.301-.117.672-.412 2.048-1.029 3.8a25.603 25.603 0 0 1 4.083-1.272c-2.954-2.736 1.134-6.71 1.134-6.71" fill="#289EE0"/><path d="M166.006 34.255c1.64-.367 3.046-.523 4.176-.474.23.01.425.047.633.073 5.052-2.289 9.658-3.962 13.418-5.036 4.43-1.88 8.17-2.723 11.073-3.048-4.765-.782-15.038 1.289-29.3 8.485" fill="#FFF"/><path d="M170.815 33.854c1.117.144 1.92.522 2.39 1.137 4.023-2.784 7.718-4.769 11.028-6.173-3.76 1.074-8.366 2.747-13.418 5.036M198.255 27.65c-6.934 1.02-15.673 4.157-24.799 10.96-.066.207-.141.419-.229.636 2.862-.757 4.422-.872 4.422-.872 7.577-7.245 18.2-7.975 20.415-8.046.36-1.043.422-1.937.191-2.678" fill="#289EE0"/><path d="M173.456 38.61c9.126-6.803 17.865-9.94 24.8-10.96-.04-.127-.07-.26-.127-.376a1.976 1.976 0 0 0-.628-.713c-6.765.607-14.751 3.15-23.814 9.432.178.749.091 1.629-.23 2.617M172.514 40.726a23.106 23.106 0 0 1-1.4 2.208c4.869-1.429 11.495-2.662 18.998-2.257.5-.485.988-.965 1.448-1.436-7.481-.758-14.017.177-19.046 1.485" fill="#FFF"/><path d="M171.115 42.934c-1.31 1.858-3.054 3.886-5.101 5.997 5.157-.279 9.403.154 12.401.688l.994.175c4.158-3.193 7.77-6.276 10.703-9.117-7.503-.405-14.13.828-18.997 2.257" fill="#289EE0"/><path d="M164.803 50.157c-.735.727-1.5 1.463-2.293 2.202 5.495-.667 10.185-.52 13.66-.145.668-.488 1.339-.977 1.982-1.462-3.031-.54-7.633-1.02-13.35-.595" fill="#FFF"/><path d="M144.147 63.348c.84-.007 1.672-.024 2.531-.009 1.084-.4 2.116-.756 3.11-1.081-1.356.089-3.208.373-5.641 1.09M162.51 52.36c-3.402 3.167-7.308 6.41-11.332 9.46 6.865-2.1 11.488-2.422 14.286-2.264a212.338 212.338 0 0 0 10.705-7.342c-3.474-.375-8.164-.522-13.66.145" fill="#289EE0"/><path d="M138.15 65.578c-.554.244-1.144.541-1.75.862 1.294-.16 2.536-.294 3.667-.391a116.312 116.312 0 0 1 3.69-1.576c-.966.018-2.06.06-3.253.131-.748.292-1.528.61-2.355.974" fill="#FFF"/><path d="M127.073 72.397c.176-.014.367-.03.534-.042 4.587-2.567 8.73-4.64 12.46-6.306-1.13.097-2.373.23-3.666.39-2.761 1.46-6.013 3.639-9.328 5.958M110.81 75.468l-1.63 2.572 2.227-1.82c3.275-1.812 8.61-2.901 11.75-3.401a119.286 119.286 0 0 1 7.957-4.875c-4.193.601-10.87 2.002-17.26 4.705-1.033.902-2.121 1.79-3.043 2.82" fill="#7DD5F7"/><path d="M115.35 71.238c-.46.49-.973.952-1.497 1.411 6.39-2.703 13.068-4.104 17.26-4.705a89.914 89.914 0 0 1 3.492-1.85c-4.179.441-11.373 1.678-19.255 5.144" fill="#FFF"/><path d="M128.218 63.627c-1.06 1.116-2.116 2.23-3.146 3.322 3.684-.962 7.47-1.572 11.622-1.86 6.738-3.113 11.155-3.86 13.663-3.942a159.148 159.148 0 0 0 6.685-5.325c-5.39-.353-16.77.34-28.824 7.805" fill="#7DD5F7"/><path d="m129.62 62.153-1.402 1.474c12.053-7.466 23.434-8.158 28.824-7.805.733-.617 1.449-1.232 2.14-1.84-5.271-.444-16.713-.131-29.562 8.171" fill="#FFF"/><path d="M123.606 67.348c5.6-5.954 12.07-12.678 16.561-17.323-6.507 4.755-14.342 11.38-22.078 19.223 1.842-.718 3.672-1.368 5.517-1.9" fill="#7DD5F7"/><path d="M116.749 69.761c.45-.185.893-.339 1.34-.513 7.736-7.843 15.57-14.468 22.078-19.223 1.392-1.44 2.6-2.686 3.528-3.639-7.891 5.409-17.029 13.007-26.946 23.375" fill="#FFF"/><path d="M145.239 45.953c-3.926 4.056-8.93 9.238-13.415 13.916 3.867-2.225 7.572-3.763 10.997-4.807 7.803-9.943 14.915-15.123 20.493-17.8-4.426 1.25-10.775 4.017-18.063 8.68l-.012.011" fill="#7DD5F7"/><path d="m146.834 44.306-1.595 1.647.012-.011c7.288-4.663 13.637-7.43 18.063-8.68 2.712-1.3 5.064-2.014 6.952-2.389-3.845-.272-12.177 2.23-23.432 9.433" fill="#FFF"/><path d="m159.474 44.66-.005.002c3.378-.766 6.928-.77 8.796-.698.93-1.315 1.61-2.5 1.998-3.52-5.1.877-8.7 2.797-10.79 4.217" fill="#7DD5F7"/><path d="M172.353 38.739c-8.615 1.484-12.954 5.938-12.954 5.938l.07-.015.005-.001c2.09-1.42 5.69-3.34 10.789-4.218-.389 1.02-1.068 2.206-1.998 3.521.303.012.566.025.773.038 1.622-2.022 2.758-3.808 3.315-5.263M168.366 44.82c-9.642-.106-16.899 3.236-19.985 4.958-.358.383-.72.787-1.08 1.19 3.81-1.858 11.12-4.554 19.585-4.577-.076.083-.165.172-.243.257.039 0 .077-.003.115-.003a57.478 57.478 0 0 0 1.608-1.824" fill="#FFF"/><path d="m147.3 50.968-.184.088a85.41 85.41 0 0 0-2.847 3.37c6.462-1.776 11.815-1.814 15.163-1.533l.746.064c2.472-2.212 4.638-4.334 6.465-6.309.078-.085.167-.174.243-.257-8.465.023-15.775 2.719-19.585 4.577M171.142 37.075a1.438 1.438 0 0 0-.511-.474c-5.87 1.035-12.822 4.117-20.5 11.39 4.958-2.434 7.877-2.894 7.877-2.894 4.374-4.856 10.668-6.454 13.463-6.946l-.035.004c-.01-.414-.102-.778-.294-1.08" fill="#7DD5F7"/><path d="m150.08 48.015.356-.172c-.048.02-.154.06-.297.114-.024.021-.048.037-.06.058" fill="#7DD5F7"/><path d="M172.454 35.775a1.445 1.445 0 0 0-.513-.473c-6.212 1.094-13.64 4.481-21.854 12.706a1.595 1.595 0 0 0 .043-.018c7.68-7.272 14.631-10.354 20.5-11.39.227.132.398.292.512.475.192.302.284.666.294 1.08l.035-.004c.49-.086.886-.142 1.13-.171.236-.908.197-1.654-.147-2.205" fill="#FFF"/><path d="M112.934 80.191c.489-.336 2.922-2.18 5.217-3.866-2.233.518-6.362 1.564-8.517 2.409-.752.997-.623 1.941 3.3 1.457" fill="#7DD5F7"/><path d="M111.67 76.911s-1.367.933-2.036 1.823c2.155-.845 6.284-1.89 8.517-2.409a126.934 126.934 0 0 1 2.868-2.06c-2.172.316-5.67 1.038-9.348 2.646" fill="#FFF"/><path d="M23.911 57.595c.567.891 1.551 2.015 2.658 3.063 1.78-.581 5.21-1.551 8.638-1.69-2.315-.883-6.193-1.866-11.296-1.373" fill="#7DD5F7"/><path d="M21.535 56.42c.848 1.336 2.321 2.854 4.316 4.481.192-.068.436-.151.718-.243-1.107-1.048-2.091-2.172-2.658-3.063 5.103-.493 8.98.49 11.296 1.374a.432.432 0 0 0 .054-.017c-.217-.14-5.294-3.344-13.726-2.533" fill="#FFF"/><path d="M48.695 62.402c-3.853-.931-11.29-1.975-20.11.565 2.243 1.59 4.897 3.245 7.882 4.908l.707-.268c3.168-1.201 8.333-2.62 14.94-2.565a81.867 81.867 0 0 0-3.419-2.64" fill="#7DD5F7"/><path d="m48.695 62.402-.147-.11a76.984 76.984 0 0 0-1.562-1.11c-3.34-.922-11.042-2.363-20.314.373.308.238.628.48.956.723.187.138.382.277.575.415.127.092.252.183.381.274 8.821-2.54 16.258-1.496 20.111-.565" fill="#FFF"/><path d="M44.92 59.83c-8.944-5.35-16.302-6.608-22.179-6.066-.19.195-.32.404-.392.623-.118.361-.131.76-.054 1.185-.05.005-.083.01-.13.014 2.744-.265 9.241-.39 14.547 3.43 0 0 2.932-.33 8.261.826-.016-.005-.034-.008-.052-.012" fill="#7DD5F7"/><path d="M22.349 54.387c.071-.219.203-.428.392-.623 5.877-.542 13.235.717 22.18 6.066.018.004.036.007.052.012-9.666-6.182-17.548-7.625-23.771-7.051-.19.196-.32.404-.392.623-.217.66-.095 1.432.325 2.296.112-.017.259-.037.426-.058l.183-.022c.13-.014.266-.029.42-.044.048-.005.082-.01.131-.014-.077-.426-.064-.824.054-1.185" fill="#FFF"/><path d="M63.017 64.003s-1.463.46-1.385 1.455c.408-.367.962-.543.962-.543C77.534 62.983 83.52 77.64 84.42 80.12c.215.003.434-.12.546-.557 0 0-5.637-17.67-21.949-15.559" fill="#289EE0"/><path d="M62.594 64.915s-.554.176-.962.543c.003.065-.232 1.243 1.56 1.137 0 0 13.682-2.927 20.639 13.277 0 0 .291.243.589.247-.901-2.479-6.886-17.136-21.826-15.204" fill="#FFF"/><path d="M183.271 37.642c4.078-.15 7.76.318 9.288.55 1.6-1.71 2.893-3.301 3.858-4.745-5.756.821-10.505 2.69-13.144 4.193 0 0 0 .002-.002.002" fill="#289EE0"/><path d="M179.566 37.962a35.525 35.525 0 0 1 3.705-.32c.002 0 .002-.001.002-.002 2.64-1.504 7.388-3.372 13.144-4.193a17.22 17.22 0 0 0 1.22-2.102c-11.721 1.005-18.07 6.617-18.07 6.617" fill="#FFF"/><path d="M88.641 67.336c-.11.016-.23.028-.337.044.088.11.202.18.413.164-.023-.071-.057-.136-.076-.208M93.512 74.301a34.767 34.767 0 0 1 4.156-3.616c-1.867-.984-4-.661-4-.661-.037.044-.062.087-.099.132a28.116 28.116 0 0 1-.057 4.145" fill="#ED192D"/><path d="M83.318 55.484s-1.052-.395-1.682.029c.397.035.723.157.723.157 12.828 7.607 8.241 22.824 7.565 24.843.154.221.426.39.88.039 0 0 6.27-16.91-7.486-25.068" fill="#289EE0"/><path d="M82.359 55.67s-.326-.122-.723-.157a.943.943 0 0 0-.347.429s-.827.64.609 1.631c0 0 12.232 5.958 7.85 22.536 0 0 .049.22.176.404.676-2.02 5.263-17.236-7.565-24.843" fill="#FFF"/><path d="M60.204 74.56c-6.336-1.068-10.263-.653-12.442-.116l-.326.08-.317-.14c-4.441-1.975-8.818-4.175-12.731-6.44a56.243 56.243 0 0 0-7.934 1.755 197.659 197.659 0 0 0 11.51 5.67c3.3-.804 9.29-1.373 19.012.53a87.263 87.263 0 0 1 5.463-.908 64.56 64.56 0 0 0-2.235-.431" fill="#289EE0"/><path d="M31.788 66.387c-3.077.64-5.6 1.444-7.48 2.155.697.385 1.425.772 2.146 1.157a56.243 56.243 0 0 1 7.934-1.755 97.981 97.981 0 0 1-2.6-1.557" fill="#FFF"/><path d="M17.55 55.892c-2.802-1.084-7.765-2.232-13.563-2.043 1.147 1.34 2.65 2.78 4.483 4.29 1.495-.524 5.15-1.7 9.264-2.27l-.183.023M22.049 58.774a52.284 52.284 0 0 0-10.893 1.459c3.269 2.424 7.25 4.976 11.79 7.544l.956-.361a50.922 50.922 0 0 1 6.454-1.936c-3.518-2.285-6.417-4.573-8.307-6.706" fill="#289EE0"/><path d="M20.73 57.064a51.731 51.731 0 0 0-11.14 1.979c.5.392 1.026.79 1.566 1.19a52.284 52.284 0 0 1 10.893-1.459 14.067 14.067 0 0 1-1.32-1.71M19.73 54.73c-2.643-1.287-8.647-3.545-17.16-2.765.38.601.86 1.232 1.417 1.884 5.798-.189 10.761.96 13.564 2.043l.183-.023c.742-.102 1.5-.177 2.26-.233a5.149 5.149 0 0 1-.264-.907" fill="#FFF"/><path d="M19.819 53.013c.138-.422.407-.79.757-1.125-7.237-2.939-13.71-3.917-19.08-3.73-.162.831.011 1.778.524 2.83 1.896-.28 10.06-1.176 17.674 2.555.026-.18.068-.357.125-.53" fill="#289EE0"/><path d="M22.576 50.756c.099-.032.213-.06.317-.09-8.064-3.371-14.98-4.188-20.811-3.676a2.21 2.21 0 0 0-.527.85c-.032.102-.037.213-.058.319 5.368-.188 11.842.79 19.08 3.73.48-.46 1.131-.844 1.999-1.133" fill="#FFF"/><path d="M31.192 50.251c-5.98-1.759-11.379-2.807-15.658-3.299 2.81.705 5.928 1.77 9.326 3.31 1.712-.23 3.834-.249 6.332-.01" fill="#289EE0"/><path d="m39.429 51.702-1.886-1.267c-16.84-5.99-28.463-6.452-33.401-4.66 2.92-.188 6.744.012 11.392 1.177 4.279.492 9.677 1.54 15.658 3.3 2.409.228 5.165.699 8.237 1.45" fill="#FFF"/><path d="M89.681 82.074c-.789-.291-1.208-1.052-1.338-1.668l-.071-.333.088-.33c.547-2.072.809-3.953.872-5.675-.234-1.261-.534-2.81-.726-3.526-.915.056-2.003.395-2.986.916l.01.103.908 7.755.064.2-.104.411-.003.009c-.015.06-.037.111-.055.167-.306.938-.945 1.284-1.317 1.403-.824.265-1.648-.087-2.144-.504l-.267-.226-.139-.322c-1.12-2.612-2.423-4.681-3.805-6.334-1.352.178-2.42.879-2.42.879-1.28 1.808 1.334 6.017 2.029 7.07l.014.081a.233.233 0 0 0 .016.017c-.978-3.103-.09-6.084-.09-6.084 4.086 6.459 8.623 8.12 8.623 8.12 2.338 1.081 4.715-2.4 4.715-2.4l.065-.072c-.833.607-1.57.48-1.939.343" fill="#ED192D"/><path d="M76.248 74.999s1.068-.701 2.42-.879c-.26-.31-.522-.612-.787-.894-3.147.017-3.297 2.5-3.297 2.5-.043 2.352 3.544 6.248 3.707 6.424l-.014-.08c-.695-1.054-3.308-5.263-2.03-7.071" fill="#FFF"/><path d="M80.015 165.75c-.19.549-.54 1.147-1.148 1.72a76.195 76.195 0 0 0 8.497-1.07c.248-.623.456-1.233.584-1.81-2.498.51-5.14.902-7.933 1.16" fill="#861810"/><path d="M80.038 165.78c-.212.603-.577 1.158-1.085 1.651 2.835-.2 5.657-.555 8.388-1.058.265-.669.45-1.24.565-1.742-2.512.51-5.159.897-7.868 1.15Zm-1.257 1.727.064-.061c.54-.507.923-1.08 1.14-1.706l.007-.019.02-.002a74.022 74.022 0 0 0 7.93-1.16l.047-.01-.01.048c-.115.521-.307 1.115-.585 1.815l-.007.017-.017.003a76.04 76.04 0 0 1-8.5 1.069l-.09.006ZM128.75 128.64c-.318.96-.673 1.958-1.08 2.999.344-.174 1.309-.702 2.245-1.56-.327-.43-.729-.922-1.165-1.439M90.08 164.123c.014.675-.03 1.265-.088 1.739 1.49-.337 3.015-.73 4.548-1.2a61.855 61.855 0 0 0 6.165-2.263c.177-.604.352-1.305.491-2.102-3.325 1.545-7.017 2.846-11.116 3.826" fill="#861810"/><path d="M90.113 164.148c.01.55-.018 1.114-.084 1.673a63.074 63.074 0 0 0 4.502-1.19 62.198 62.198 0 0 0 6.148-2.255c.2-.689.356-1.352.475-2.025-3.415 1.583-7.13 2.86-11.041 3.797Zm-.158 1.755.005-.045c.07-.58.1-1.164.089-1.734v-.026l.024-.006c3.938-.941 7.676-2.228 11.11-3.824l.055-.026-.01.06c-.122.7-.283 1.39-.492 2.106l-.004.015-.014.005a62.242 62.242 0 0 1-6.168 2.264c-1.426.437-2.957.841-4.55 1.201l-.045.01ZM104.95 158.37c.004.662-.034 1.36-.102 2.079a56.115 56.115 0 0 0 8.479-5.421 54.725 54.725 0 0 0 4.908-4.31 39.959 39.959 0 0 0-.35-2.857 49.755 49.755 0 0 1-12.935 10.508" fill="#861810"/><path d="M104.982 158.388c.003.607-.03 1.282-.097 2.006a56.275 56.275 0 0 0 8.422-5.391 54.926 54.926 0 0 0 4.895-4.296 40.172 40.172 0 0 0-.337-2.774 49.946 49.946 0 0 1-12.883 10.455Zm-.17 2.116.004-.058c.071-.751.106-1.45.102-2.076v-.02l.016-.008a49.874 49.874 0 0 0 12.928-10.502l.044-.05.011.066c.144.895.262 1.858.35 2.86v.015l-.01.01a54.943 54.943 0 0 1-4.91 4.312 56.35 56.35 0 0 1-8.484 5.424l-.052.027ZM127.652 131.682c-1.52 3.867-3.706 8.22-6.82 12.496.375 1.302.58 2.35.683 2.97 3.205-3.768 5.995-8.005 8.31-12.712.013-.026.518-1.082 1.176-2.842a26.48 26.48 0 0 0-.567-.817c.002-.001-1.362.57-2.782.905M125.328 95.436c.33-.23.694-.433 1.075-.622-.073-.077-.154-.149-.228-.224-.17.122-.324.231-.45.325-.107.091-.243.274-.397.521M119.222 107.313c.037-.043.942-1.033 1.71-1.666.27-.222.686-.857.772-1.94-.72 1.208-1.695 2.529-2.896 3.679.083.037.166.07.248.108l.166-.18" fill="#861810"/><path d="M107.492 93.476s.813-2.682 7.105-2.375c0 0 5.002-.446 6.242-1.996-1.233 2.668-1.656 5.83-3.375 6.589 0 0-.288-1.685-4.102-.337 0 0-4.123 2.904-5.712-.29 0 0-.417-1.084-.158-1.59M116.425 114.088s.482-4.808 5.814-5.277c0 0 5.206-.397 4.948 6.04 0 0-.352 1.651-1.316 3.09 0 0 2.08-4.152-.72-7.512l-.393 1.12s-.453-1.259-2.126-1.735l-.113 1.4s-.458-.64-1.193-.832c0 0-3.104.087-4.901 3.706M126.125 121.272s2.154-5.409 8.676-4.873c0 0 4.298.362 3.364 5.298 0 0-.8 3.502-4.665 5.821 0 0 3.351-2.7 2.008-7.627l-.896 1.736s.207-1.77-.728-3.135l-.84 1.4s-.223-1.289-1.175-1.848c0 0-3.135-.113-5.744 3.228M106.506 114.899s3.752-4.19.953-9.62l-1.231 1.512-.505-1.848s-3.526 0-4.764 3.97c0 0 .15-5.055 5.947-5.032 0 0 2.568.132 3.016 3.11 0 0 1.057 5.04-3.416 7.908" fill="#289EE0"/><path d="M104.857 106.103s-3.388 1.41-3.929 4.557c0 0 1.076-1.52 2.766-1.684 0 0 .28-2.085 1.163-2.873M105.289 106.8s-.96 1.821-.927 2.388c0 0 .747.636.811 1.388 0 0 .514-.342.841-1.035 0 0 .737 2.802.487 4.69 0 0 1.083-4.069.287-6.86l-.911 1.366-.588-1.937M126.337 87.467a2 2 0 0 0-.96-.36c-2.435.536-3.573 3.893-4.808 7.353-1.514 4.236-6.204 6.051-8.02 6.355-1.814.302-2.572 1.512-2.27 2.571.205.715.064 1.567-.049 2.046-.009-.02-.023-.036-.032-.055.782 1.601.573 3.83.573 3.83 7.364 1.163 11.307-8.182 11.396-9.005.089-.825 1.959-5.421 2.985-6.175 1.027-.754 2.066-.609 2.928-2.467.45-1.338.361-2.606-1.743-4.093" fill="#289EE0"/><path d="M110.28 103.386c-.303-1.059.455-2.27 2.27-2.571 1.815-.304 6.505-2.119 8.019-6.355 1.235-3.46 2.373-6.817 4.808-7.354-2.91.126-3.693 2.2-3.693 2.2-.94 1.121-1.143 7.799-8.904 9.387-4.57 1.198-4.787 5.097-4.787 5.097.259.02 1.621.586 2.205 1.587.01.018.023.035.032.055.113-.48.254-1.33.05-2.046" fill="#7DD5F7"/><path d="M130.318 105.274c-.343-1.328-.09-3.22.156-6.499.248-3.278-2.823-2.981-2.823-2.981-1.41.568-2.39 1.44-3.071 2.402-.265 1.679.224 3.752.224 5.645 0 2.248-.828 3.46-1.367 4.01 0 .003-.004.003-.005.006 5.118.392 4.182 7.24 4.182 7.24 3.98-1.722 3.049-8.496 2.704-9.823" fill="#289EE0"/><path d="M124.804 103.84c0-1.892-.49-3.965-.224-5.644-1.25 1.766-1.485 3.844-1.444 4.96.066 1.72-.529 2.979-1.236 3.562-.708.585-1.584 1.544-1.584 1.544 1.234-.361 2.258-.471 3.116-.405.001-.003.005-.003.005-.006.54-.55 1.367-1.762 1.367-4.01" fill="#7DD5F7"/><path d="M139.12 109.425c-1.02-1.904-2.189-7.367-2.189-7.367-.722-2.187-2.162-1.824-3.49-1.48-1.327.342-1.72.216-1.72.216-.93 1.315.263 4.562.503 7.409.168 2.014-.098 3.235-.48 3.982.43 1.116 1.107 2.575 2.066 3.091l.016.015c4.354-.269 4.948 3.554 4.948 3.554 2.547-3.327 1.366-7.515.346-9.42" fill="#289EE0"/><path d="M131.745 112.185c-.588 1.15-1.454 1.172-1.454 1.172-.16 1.76.698 2.548.698 2.548 1.096-.388 2.024-.565 2.837-.614l-.016-.015c-.959-.516-1.637-1.975-2.065-3.09" fill="#7DD5F7"/><path d="M125.708 122.553s1.624-2.564 5.601-3.501c0 0 1.222.23 1.604 2.455 0 0 .667-.56.757-1.148 0 0 .516 1.884.395 2.67 0 0 .617-.49 1.026-1.45 0 0 .237 2.504-1.84 5.6 0 0 .527-1.747.295-2.724l-.812.456s.424-1.982-.077-3.042l-.924.923s.078-1.032-.556-2.133c0 0-2.665-.688-5.47 1.894M116.746 114.982s.966-2.903 4.583-3.715c0 0 1.22.81 1.524 1.458 0 0 .296-.878.218-1.693 0 0 1.634.992 1.889 2.095 0 0 .315-.754.323-1.074 0 0 .884 1.44.636 3.71 0 0-.303-1.03-.748-1.4l-.317.755s-.41-1.648-1.454-2.169l-.037.898s-1.131-1.397-1.978-1.508c0 0-2.345-.679-4.64 2.643" fill="#289EE0"/><path d="M77.945 164.057c-.39-.498-1-.968-1.809-.634-.482.239-7.637 3.72-20.611 7.624l.006.001c8.818-1.099 19.16-5.523 22.414-6.99" fill="#FFF"/><path d="m75.577 167.082.186-.048s.18 0 .181.002c.01-.002.963-.02 1.581-.66.144-.148.265-.327.36-.53.183-.384.268-.892.276-1.487a3.41 3.41 0 0 0-.216-.302c-3.254 1.468-13.596 5.892-22.414 6.991a.016.016 0 0 0-.006-.001c-.337.1-.661.2-1.006.302 6.362-.942 13.868-2.315 21.058-4.267" fill="#289EE0"/><path d="M104.379 110.834a6.286 6.286 0 0 0-.607-1.031c-.948-.02-1.645.495-2.158 1.203a24.091 24.091 0 0 1 2.763-.171l.002-.001" fill="#861810"/><path d="M114.6 112.334c.323.275.639.567.943.882.01-.038.026-.077.037-.117a9.916 9.916 0 0 1 2.16-4.154 32.218 32.218 0 0 0-.59-.21c-1.495 1.018-3.076 1.582-4.723 1.688 1.052.788 1.914 1.605 2.173 1.91" fill="#231F20"/><path d="M115.543 113.216a13.143 13.143 0 0 0-.942-.88 48.737 48.737 0 0 0-3.998-.907c.113-.336.206-.68.264-1.04-.263 1.594-1.099 2.959-2.131 4.092h.004c2.088-.023 4.29.125 6.529.54h.001c.041-.594.14-1.246.31-1.922-.011.04-.028.079-.037.117" fill="#ED192D"/><path d="m114.601 112.336-.001-.001c-.158-.188-.556-.573-1.07-1.018a18.386 18.386 0 0 0-1.131-.894 8.97 8.97 0 0 1-1.532-.033 6.575 6.575 0 0 1-.264 1.039c1.258.229 2.584.524 3.998.907" fill="#861810"/><path d="M107.476 69.91c-.046-.099-.08-.154-.08-.154-1.513-1.55-6.084.51-6.084.51-3.403 1.89-6.18 4.302-8.063 6.183-.43 2.727-1.077 4.545-1.097 4.602l-.059.156c6.534-7.274 12.684-8.62 12.684-8.62.248 1.308-.537 4.701-.537 4.701 2.475-2.644 3.094-6.234 3.235-7.377" fill="#ED192D"/><path d="M107.476 69.91h-.001c-.14 1.144-.76 4.734-3.235 7.378 4.269-4.147 3.518-6.746 3.236-7.377M129.87 123.016l.32-.99s.415.655.351 1.724l-.67-.734" fill="#861810"/><path d="M92.256 113.267c-.155.183-.295.368-.442.552-9.387 11.799-2.527 24.573-15.204 47.446 1.158-.026 2.094.602 2.74 1.316 5.879-7.036 9.524-22.974 9.676-34.739.054-4.1.64-7.367 1.398-9.946.568-1.932 1.231-3.488 1.857-4.66l-.025.03" fill="#FFF"/><path d="M106.765 116.25c-1.969 1.47-3.889 2.235-3.889 2.235s.845-.96 1.455-2.403c-3.537-.23-9.117.927-9.964 1.147 0 0 6.178-2.417 10.41-2.5.266-1.177.254-2.527-.398-3.895h-.002c-.987.007-1.905.067-2.763.172-1.097 1.513-1.344 3.918-1.349 3.925 0 0-.34-1.795-.557-3.608-7.707 1.711-9.365 7.294-9.365 7.294-.023-.099.008-.36.081-.72.282-.959.587-1.822.9-2.593-1.16 2.828-2.223 6.913-2.298 12.538-.005.354-.013.711-.024 1.072 10.379-2.76 17.476-1.297 22.328 1.774.2-.542 2.293-6.318 3.452-12.374l.003-.012c-2.474-1.37-7.29-1.97-8.02-2.052" fill="#ED192D"/><path d="M90.343 118.617s1.658-5.583 9.365-7.294c-.11-.926-.188-1.856-.17-2.556a5.64 5.64 0 0 1 .128-.958 29.94 29.94 0 0 0-2.52.8c-1.973 1.54-3.554 3.074-4.862 4.622-.161.302-.326.639-.492.99-.138.298-.276.618-.413.952-.018.044-.038.085-.055.13a27.663 27.663 0 0 0-.9 2.593c-.073.36-.104.622-.081.72" fill="#861810"/><path d="M97.162 108.636c-1.886 1.472-3.473 2.982-4.853 4.615-.141.266-.298.58-.488.983a24.705 24.705 0 0 0-.437 1.008c-.01.024-.021.048-.03.073-.333.82-.635 1.69-.9 2.59a4.71 4.71 0 0 0-.083.533c.157-.421.65-1.574 1.74-2.847 1.257-1.469 3.589-3.404 7.562-4.292-.126-1.075-.182-1.927-.166-2.532.006-.25.045-.548.118-.914-.792.213-1.598.47-2.463.783Zm-6.823 10.105-.027-.117c-.03-.13.027-.471.081-.734a27.85 27.85 0 0 1 .901-2.598l.031-.075.024-.056c.147-.357.283-.67.414-.954.191-.404.348-.719.493-.991 1.388-1.644 2.98-3.157 4.87-4.633l.01-.005a30 30 0 0 1 2.522-.8l.05-.013-.01.05c-.08.385-.122.697-.128.953-.016.608.041 1.466.17 2.552l.002.028-.027.006c-3.973.882-6.302 2.813-7.556 4.278-1.357 1.586-1.782 2.98-1.786 2.993l-.034.116Z" fill="#861810"/><path fill="#231F20" d="M127.511 81.35h-.735v-2.356h-1.064v-.506h2.863v.506h-1.064v2.356M132.7 81.35h-.687v-2.392h-.01l-.656 2.392h-.721l-.643-2.392h-.009v2.392h-.687v-2.862h1.074l.637 2.256h.01l.627-2.256h1.064v2.862"/></g></svg>