<?xml version="1.0" encoding="UTF-8"?>
<svg width="200px" height="200px" viewBox="0 0 200 200" version="1.1" xmlns="http://www.w3.org/2000/svg" xmlns:xlink="http://www.w3.org/1999/xlink">
    <!-- Generator: Sketch 51.3 (57544) - http://www.bohemiancoding.com/sketch -->
    <title>delaware-st</title>
    <desc>Created with Sketch.</desc>
    <defs></defs>
    <g id="delaware-st" stroke="none" stroke-width="1" fill="none" fill-rule="evenodd">
        <g id="delaware-st_BGL" transform="translate(0.000000, 24.875622)">
            <g id="delaware-st">
                <g id="g10" transform="translate(99.978616, 75.483855) scale(-1, 1) rotate(-180.000000) translate(-99.978616, -75.483855) translate(0.000000, 0.037383)" fill-rule="nonzero">
                    <g id="g12">
                        <path d="M79.6004256,78.065518 C79.6004256,78.065518 77.5047233,76.6373027 77.4843684,76.6220095 C77.3618967,76.5492818 77.0454546,76.4301648 76.6465664,76.3005124 C76.8381422,76.8493685 76.9977317,77.4079102 77.1332031,77.944022 C77.2190701,78.2891386 77.4226194,78.9249961 77.8516123,79.5559257 C78.6218496,79.2283113 79.5357688,79.1042664 80.4493459,79.1148017 C80.0602075,78.751843 79.7728438,78.3749505 79.6004256,78.065518 Z M199.3979,148.431927 C198.795804,149.637882 197.425695,150.393536 195.325204,150.67663 C188.929651,151.538997 175.611713,148.085961 157.946372,137.954893 C148.395121,133.713748 135.166471,125.071559 120.304295,110.498495 C118.548981,108.95796 116.779129,107.365767 114.993198,105.725996 C111.00004,107.866025 105.948768,108.79891 100.177547,107.180549 C96.8111158,109.4295 93.0204809,109.292201 92.9063907,109.301377 C91.8174875,113.520772 89.2914239,117.793693 84.0513128,120.880881 L83.9426962,120.944603 L83.8239876,120.989123 C82.4980095,121.484623 80.8123136,121.332031 80.0779967,119.932023 C79.8289482,119.612565 79.6151359,119.21732 79.6151359,118.696672 C79.6151359,118.67781 79.6161622,118.658948 79.6161622,118.640427 C79.6389118,117.807797 80.1318774,117.055371 81.0806907,116.404051 L81.1662156,116.345427 L81.2642272,116.297168 C81.5423542,116.160379 85.6355762,114.04312 87.8511845,108.968325 C87.8279217,108.963227 84.3836626,108.406724 80.6599082,105.788188 C77.5286703,109.304436 72.967798,112.494938 66.6404944,112.796214 C35.4396399,130.260883 12.5366856,133.6869 3.92672216,130.853919 C1.89324776,130.184417 0.64170364,129.157563 0.206062,127.800546 C-2.21964502,120.234828 17.1711777,107.631529 37.4652118,98.4953691 L38.338079,98.4105767 C53.4766717,100.815688 69.0954013,94.8985775 77.1870838,91.8319503 C77.2045309,91.8158074 77.2245437,91.7955864 77.2394251,91.7809729 C77.6463526,90.7801177 78.0642273,89.8550488 78.4872334,88.983676 C77.1643342,88.313154 76.2543492,87.2098343 75.8070539,86.3785637 C74.1784886,85.9984426 72.5425682,85.0703151 70.9365815,84.1568011 C69.7168253,83.4643588 68.4567013,82.7471075 67.1180655,82.1843176 C62.6827438,80.3185468 61.8531522,76.7601581 62.0324124,74.9907344 C61.9985445,74.9642262 61.9646767,74.9416263 61.9318351,74.915118 L61.7961926,74.8090852 L61.6921943,74.6722959 C60.9053652,73.6352468 59.9695516,71.2902889 61.3492394,69.1337772 C59.1358548,68.1849189 58.3219998,66.4345268 58.3219998,66.4345268 C57.5078027,64.7961149 57.76643,63.5833638 58.1261478,62.8557472 C58.992344,61.1101129 61.1089144,60.6445198 61.3482131,60.596771 C61.3482131,60.596771 63.9307232,63.4266934 65.4263828,62.3797887 C65.4912107,60.9056938 61.6596948,60.4067955 61.6596948,60.4067955 C61.6596948,60.4067955 68.8906547,59.0146042 72.3304664,62.0382405 L72.6426324,62.0373908 C76.1050227,62.0373908 78.6274943,66.9811738 79.0983944,67.9721734 C79.5114797,68.844056 80.3075456,69.8272391 81.0529807,70.6337007 C81.9627946,70.290963 82.8951872,70.2082098 83.8000407,70.344999 C83.7415416,70.1830609 83.7023712,70.0282597 83.6835557,69.8826344 C79.7152001,69.3290205 79.3240091,65.6584816 79.3240091,65.6584816 C78.8782533,63.1995044 81.6680758,62.4249886 81.6680758,62.4249886 C80.6205667,62.8640735 80.8610628,63.8763136 80.8610628,63.8763136 C81.4966839,66.5072545 84.8744045,66.7781141 84.8744045,66.7781141 C87.3421402,66.976416 86.9463309,64.8188848 86.9463309,64.8188848 L86.5662583,65.0233039 C86.5123776,64.3881262 84.7209729,62.6703596 84.7209729,62.6703596 C87.6276224,63.4775009 88.4755163,65.3254296 88.7228543,66.2815947 C88.7748535,65.8431896 88.7645905,65.5162548 88.7645905,65.5162548 C90.1911459,65.9227142 91.0073956,68.3392103 91.2744044,69.9805109 C91.3683107,70.5543459 91.7016868,71.2289462 92.0925356,71.8649735 C93.0302307,70.8698957 94.1316205,69.9951245 95.4297175,69.2870491 C95.6537928,69.1638539 95.8770128,69.0486451 96.100917,68.9371746 L97.0064547,68.9235806 C77.5704064,55.8749094 90.0077805,38.7533182 73.8095342,13.6452761 C73.7395748,13.5786997 73.6709838,13.5150969 73.6013666,13.4513753 C52.9002339,3.65968065 26.4138544,0 26.4138544,0 C26.4138544,0 55.5167829,1.52321329 74.9855017,6.54481151 C84.0814176,6.45612792 115.637885,8.54873098 131.423559,40.4384593 C131.423559,40.4384593 132.60175,42.8209705 133.756507,46.5880265 C136.138718,48.1628866 138.506218,50.5846504 139.421848,54.2359878 L139.432453,54.271502 L139.437585,54.3078658 C139.558004,54.9325082 139.609148,55.5221462 139.595977,56.0764399 C142.290182,59.5801128 141.522682,64.0202397 140.044127,66.7607818 C139.275943,68.1849189 138.290867,72.2911441 137.975964,73.7531744 L137.960741,73.8194449 L137.939359,73.8824869 C136.850627,77.1645784 134.218855,76.4892985 132.956336,76.1642329 C132.638355,76.0831789 132.340557,76.0400181 132.063114,76.01334 C131.899077,76.3027214 131.725462,76.5892141 131.548083,76.8763865 C131.610516,78.4573639 131.020737,79.3989154 130.495271,79.910728 C129.908571,80.479975 129.208977,80.7419986 128.615605,80.8636645 C128.292492,81.2300217 127.936195,81.5878827 127.587254,81.9476128 C128.582079,82.8920531 129.490354,84.1838191 129.300489,85.8365046 C129.17853,86.9095777 128.431727,87.9117924 126.883042,88.9999888 C125.806625,89.7561527 124.450542,89.4421323 124.450542,89.4421323 C124.450542,89.4421323 125.369593,94.8844737 122.684111,98.4255301 C132.23998,104.129555 140.920587,108.352519 148.570276,111.00504 C156.91802,113.899364 162.265893,114.305823 165.282527,114.137428 L165.733244,114.111769 L166.136066,114.367845 C185.110109,126.476155 202.752187,141.703937 199.3979,148.431927 Z" id="path14" fill="#231F20"></path>
                        <path d="M66.7367954,72.7142561 C66.7367954,72.7142561 65.8032055,72.4055033 65.2866351,71.8223225 C65.2866351,71.8223225 65.0442575,70.7244404 66.0806483,70.0032808 C66.0806483,70.0032808 66.7367954,71.033533 66.7367954,72.7142561" id="path16" fill="#289EE0"></path>
                        <path d="M67.5590319,70.6700645 C67.5590319,70.6700645 67.8841976,71.6136552 67.9178944,72.3693094 C67.9178944,72.3693094 71.1733144,73.0595426 72.9657454,70.3342937 C72.9657454,70.3342937 70.6333102,72.2134886 67.5590319,70.6700645" id="path18" fill="#289EE0"></path>
                        <path d="M73.9102825,72.9579278 C73.9102825,72.9579278 75.4317706,74.0558099 75.8824869,74.5040707 C75.8824869,74.5040707 77.9333741,75.0337253 78.4263397,75.4000825 C78.9177658,75.7667796 80.5860147,77.2157257 82.3136178,76.3921017 C82.3136178,76.3921017 84.2947167,75.2716196 81.7900343,72.9149369 C81.7900343,72.9149369 79.0816315,70.5517971 78.0560169,68.3915471 C77.0315995,66.2316369 74.9389761,63.2163269 72.806156,63.2163269 C72.806156,63.2163269 74.5915739,66.0574643 72.2863356,68.1152499 C72.2863356,68.1152499 70.2593953,69.7342904 68.0448134,68.8783807 L67.4333103,69.3290205 L67.8303169,69.7822091 C67.8303169,69.7822091 71.7160555,71.2138229 73.9722026,68.1008063 C73.9722026,68.1008063 74.6623886,70.7779666 73.9102825,72.9579278" id="path20" fill="#289EE0"></path>
                        <path d="M61.9516769,63.2154773 C61.9516769,63.2154773 62.07928,65.7947611 67.0263828,65.4571211 L65.9658739,63.6402885 C65.9658739,63.6402885 62.8257414,64.5259349 61.9516769,63.2154773" id="path22" fill="#289EE0"></path>
                        <path d="M67.2186427,63.452352 L67.9599726,65.1262782 C67.9599726,65.1262782 69.0054291,64.9923777 69.341542,64.2888903 C69.341542,64.2888903 69.2738063,63.5522676 68.0280505,62.9497154 C68.0280505,62.9497154 67.6572145,63.3850619 67.2186427,63.452352" id="path24" fill="#289EE0"></path>
                        <path d="M72.5049373,72.244075 C72.8692734,71.8490006 73.1831498,71.3378677 73.4067119,70.6748224 L73.4186854,70.6634375 C73.3884095,70.9777978 73.0851382,73.6272603 71.4115868,74.7480823 C71.4115868,74.7480823 71.1531306,74.9409466 70.6892435,75.1548815 C71.1331177,74.6133321 71.8546059,73.6231822 72.5049373,72.244075" id="path26" fill="#289EE0"></path>
                        <path d="M66.0166757,99.456462 C63.6946745,99.2637676 61.6626027,98.9988553 60.0063273,98.7296949 C61.1718608,98.4620639 62.3868276,98.1599381 63.6488331,97.8229779 C63.6495173,97.8233177 63.6495173,97.8233177 63.6503726,97.8233177 C65.6456687,98.022979 67.9091708,98.1665652 70.3669856,98.2105756 C68.8798785,98.6717507 67.4223631,99.0952025 66.0166757,99.456462" id="path28" fill="#FFFFFF"></path>
                        <path d="M86.5920868,78.6242297 C85.3488967,78.4770751 84.6188561,78.8639932 84.6188561,78.8639932 C82.1170815,79.393138 80.9281143,77.2748594 80.9281143,77.2748594 C81.5842614,77.7637321 82.8555036,77.4383267 82.8555036,77.4383267 C85.686207,76.2556523 83.2661942,73.2413618 82.7326898,73.0777246 C82.1990144,72.9149369 81.4609345,71.8148458 81.4609345,71.8148458 C83.5118217,70.918664 85.2341223,71.7740639 86.3007889,72.8332032 C87.3684819,73.8931922 90.4025635,74.9115496 90.4025635,74.9115496 C90.3170386,75.8167374 89.995636,76.5193751 89.5916163,77.0658523 C89.0109022,77.2505602 87.9401304,77.6840375 86.5920868,78.6242297" id="path30" fill="#289EE0"></path>
                        <path d="M79.1762221,87.6239403 C77.744022,86.8608094 77.0717962,85.4650497 77.0717962,85.4650497 C78.1377787,85.4650497 78.8580694,85.2949553 79.3479561,85.0774519 C79.4967694,85.4421099 79.7110949,85.840243 79.9497094,86.2400753 C79.6902268,86.6798398 79.4329679,87.1423743 79.1762221,87.6239403" id="path32" fill="#7DD5F7"></path>
                        <path d="M79.9497094,86.2400753 C79.7110949,85.840243 79.4967694,85.4421099 79.3479561,85.0774519 C80.2160339,84.6934226 80.353558,84.1610492 80.353558,84.1610492 C81.2972398,82.5725951 78.3842615,80.6974784 78.3842615,80.6974784 C80.0053005,79.8928859 82.8332671,80.4213511 83.8499872,80.9958658 C82.6009815,82.2944287 81.2662798,83.9991111 79.9497094,86.2400753" id="path34" fill="#289EE0"></path>
                        <path d="M44.5695948,121.984031 C43.7914892,122.303489 43.0226203,122.612581 42.2635012,122.910289 C42.4593532,122.780127 42.688731,122.627195 42.8998065,122.486667 C43.447508,122.328468 44.0047883,122.159223 44.5695948,121.984031" id="path36" fill="#FFFFFF"></path>
                        <path d="M73.3559101,97.23317 C72.3434662,97.5794761 71.3445353,97.9077702 70.3669856,98.2105756 C67.9091708,98.1665652 65.6456687,98.022979 63.6503726,97.8233177 C63.6495173,97.8233177 63.6495173,97.8233177 63.6488331,97.8229779 C67.0971974,96.9031766 70.9328184,95.6934842 75.1375649,94.1726601 C74.4528525,95.0809064 73.7816531,96.139536 73.3559101,97.23317" id="path38" fill="#289EE0"></path>
                        <path d="M72.9337591,98.8601969 C72.8620893,99.487898 72.9087859,100.107103 73.1171245,100.696061 C73.1273875,100.724099 73.1436373,100.749078 73.1542423,100.776435 C70.8719247,100.690793 68.8236032,100.503876 67.1637358,100.289772 C68.9703639,99.8042974 70.917766,99.2133 72.9907187,98.5198382 C72.9705348,98.6333477 72.94693,98.7473671 72.9337591,98.8601969" id="path40" fill="#7DD5F7"></path>
                        <path d="M73.8652964,101.923935 C69.6807338,101.945686 66.1644627,101.542965 63.7293976,101.139224 C64.8148797,100.898271 65.9639924,100.613648 67.1637358,100.289772 C68.8236032,100.503876 70.8719247,100.690793 73.1542423,100.776435 C73.3165686,101.204305 73.5560384,101.585616 73.8652964,101.923935" id="path42" fill="#FFFFFF"></path>
                        <path d="M80.9419693,93.2178544 C79.5763076,94.3575379 79.0963418,95.4965417 79.0963418,95.4965417 C78.6877038,92.1977977 79.3301669,87.7170589 83.4399808,83.9491533 C83.052724,84.2441423 79.9645907,88.6790014 80.9419693,93.2178544" id="path44" fill="#FFFFFF"></path>
                        <path d="M100.804958,98.5762531 C100.868931,98.1347893 101.31195,94.0430077 99.6643978,89.636186 C102.135897,92.7840372 103.251141,96.0078445 103.258839,100.005148 C103.258839,100.005148 101.818428,99.8352236 100.804958,98.5762531" id="path46" fill="#FFFFFF"></path>
                        <path d="M87.7393179,88.265915 C87.1160124,88.265915 86.5672846,88.4322711 86.1033975,88.6655774 C86.2568291,88.0132373 86.462431,87.2089847 86.5190485,86.7032894 C86.6469938,85.5856961 86.6179153,84.7003895 86.5342719,83.9870465 C87.0737631,83.6796531 88.1915736,83.5160158 88.8886016,83.4415889 C88.4009386,85.030043 88.017787,86.6757616 87.7393179,88.265915" id="path48" fill="#FFFFFF"></path>
                        <path d="M86.5264037,83.9165278 C86.4752598,83.5073497 86.4106029,83.1413323 86.3367094,82.8619765 C88.052339,81.1234791 89.4149219,80.4492187 90.1022,80.1958613 C89.7664292,80.9117532 89.4741051,81.672675 89.2045306,82.4514389 C87.5845178,82.8057315 86.7764785,83.6127029 86.5264037,83.9165278" id="path50" fill="#FFFFFF"></path>
                        <path d="M92.3559524,91.1435862 C90.5722449,88.950031 89.003205,88.265915 87.7393179,88.265915 C88.0579837,86.4511215 88.5063052,84.5630905 89.1007034,82.7744654 C89.0290335,82.9967266 88.9573636,83.2176284 88.8886016,83.4415889 C89.2317275,83.4055649 89.4788945,83.3877228 89.4788945,83.3877228 C90.4526811,83.4971542 92.1375218,84.6667444 92.1375218,84.6667444 L92.6044877,83.5688623 C91.3274298,82.4432825 89.9077164,82.3267143 89.9077164,82.3267143 C89.6537074,82.3547519 89.4282637,82.4019909 89.2045306,82.4514389 C89.4741051,81.672675 89.7664292,80.9117532 90.1022,80.1958613 C89.4149219,80.4492187 88.052339,81.1234791 86.3367094,82.8619765 C86.5423113,83.634963 86.7260188,84.8954628 86.5190485,86.7032894 C86.462431,87.2089847 86.2568291,88.0132373 86.1033975,88.6655774 C85.0081655,89.2174921 84.3887941,90.14494 84.3887941,90.14494 C86.7893072,83.9736225 84.8908253,82.5499951 84.8908253,82.5499951 C88.0954436,79.0419041 90.438826,78.8018008 90.438826,78.8018008 C94.7737415,81.258739 97.1922148,85.2043855 97.1922148,85.2043855 C90.098779,83.8227295 92.3559524,91.1435862 92.3559524,91.1435862" id="path52" fill="#ED192D"></path>
                        <path d="M92.6044877,83.5688623 L92.1375218,84.6667444 C92.1375218,84.6667444 90.4526811,83.4971542 89.4788945,83.3877228 C89.4788945,83.3877228 89.2317275,83.4055649 88.8886016,83.4415889 C88.9573636,83.2176284 89.0290335,82.9967266 89.1007034,82.7744654 C89.1369659,82.6674129 89.1677549,82.5576417 89.2045306,82.4514389 C89.4282637,82.4019909 89.6537074,82.3547519 89.9077164,82.3267143 C89.9077164,82.3267143 91.3274298,82.4432825 92.6044877,83.5688623" id="path54" fill="#231F20"></path>
                        <path d="M89.2045306,82.4514389 C89.0923219,82.7765045 88.9902052,83.1087068 88.8886016,83.4415889 C88.1915736,83.5160158 87.0737631,83.6796531 86.5342719,83.9870465 C86.531193,83.9641067 86.5294825,83.9399774 86.5264037,83.9165278 C86.7764785,83.6127029 87.5845178,82.8057315 89.2045306,82.4514389" id="path56" fill="#231F20"></path>
                        <path d="M83.3320484,102.262425 C83.3578769,102.223852 83.3869554,102.1829 83.4122707,102.144327 C84.4383986,100.753156 85.3391469,98.7706467 85.8709408,97.4785409 C86.2010669,96.6965485 86.3635642,96.2102246 86.3739983,96.1804878 L86.4381419,95.9781077 L85.5308937,103.682484 L85.5201176,103.784948 C86.503483,104.302029 87.5905045,104.638989 88.5063052,104.694214 C88.6980521,103.98325 88.9982445,102.444414 89.2324117,101.191731 C89.2423326,101.459702 89.2606349,101.73396 89.2606349,101.993774 C89.2606349,104.170507 88.903825,106.043245 88.3568077,107.670951 C88.3297818,107.668742 88.3150716,107.677748 88.3037823,107.691852 C85.2402801,107.159139 83.0138957,105.704415 81.6802203,104.566941 C82.2587108,103.824371 82.8821874,102.962174 83.3315352,102.264804 L83.3320484,102.262425" id="path58" fill="#861810"></path>
                        <path d="M93.6685886,105.209086 C93.6685886,105.209086 95.8005535,105.529733 97.6679043,104.552157 C97.8632432,104.695404 98.041135,104.821318 98.205685,104.936697 C98.2087638,104.938736 98.2104743,104.940605 98.2123559,104.941794 C98.6914664,105.277055 99.0292898,105.495068 99.1678402,105.58173 C99.1760505,105.586828 99.1750242,105.586828 99.1822083,105.590736 C99.2179578,105.613506 99.2431021,105.629139 99.2431021,105.629139 C97.0716247,106.743504 95.0753023,107.38259 93.2587533,107.684206 C93.4142376,106.801618 93.5148149,105.929735 93.5692087,105.077904 C93.6058134,105.122424 93.6306156,105.165075 93.6685886,105.209086" id="path60" fill="#861810"></path>
                        <path d="M94.5128905,105.286231 C95.307588,105.286231 96.5379493,105.171022 97.6653386,104.585803 C97.8687168,104.734656 98.0515691,104.863799 98.1890931,104.960146 C98.1933694,104.963715 98.195593,104.965244 98.1976456,104.966433 C98.7256764,105.336359 99.0621314,105.549444 99.1524457,105.606029 C99.1609982,105.611637 99.1628797,105.612826 99.1680112,105.615715 C99.1739979,105.619623 99.1796426,105.623191 99.1849451,105.62659 C97.1886228,106.646137 95.2071817,107.326684 93.2941606,107.649201 C93.436303,106.834243 93.5367092,105.996686 93.5929846,105.157598 C93.6095764,105.180878 93.6263393,105.204158 93.6466943,105.227777 L93.6537073,105.235934 L93.6643124,105.237463 C93.6725228,105.238822 94.002991,105.286231 94.5128905,105.286231 Z M97.6704701,104.518342 L97.6545625,104.526669 C95.8841969,105.453437 93.8493883,105.204837 93.683641,105.182237 C93.6670492,105.162186 93.6528521,105.142305 93.6386549,105.122424 C93.6237736,105.101693 93.6090633,105.080962 93.5916162,105.059892 L93.5450907,105.003307 L93.5404723,105.076205 C93.484539,105.952845 93.3801986,106.828636 93.230359,107.679278 L93.223346,107.71921 L93.2635427,107.712583 C95.2090633,107.389387 97.2253985,106.696944 99.256444,105.654628 L99.3014301,105.631348 L99.2584966,105.60484 C99.2583255,105.60467 99.2333522,105.589207 99.1977739,105.566607 L99.1748532,105.586148 L99.191274,105.562698 L99.1832346,105.557431 C99.0930914,105.501186 98.7578338,105.28861 98.2289477,104.918345 C98.226382,104.916136 98.2241583,104.914436 98.2214215,104.912567 C98.0818449,104.814861 97.8938611,104.68198 97.6850093,104.529048 L97.6704701,104.518342 Z" id="path62" fill="#861810"></path>
                        <path d="M119.056144,67.9857674 L119.222233,68.1652077 C119.259351,68.2076888 120.164205,69.1912117 120.932903,69.8209519 C121.202648,70.0406642 121.618299,70.6719337 121.703653,71.7470459 C120.983191,70.5478888 120.008721,69.235562 118.808122,68.0933296 C118.890568,68.0561161 118.973869,68.0236606 119.056144,67.9857674" id="path64" fill="#861810"></path>
                        <path d="M118.864226,68.1030153 C118.888515,68.0926499 118.912633,68.0822845 118.936922,68.072089 C118.974211,68.0562861 119.0115,68.040653 119.048276,68.0240004 L119.1988,68.1866181 C119.205984,68.1947745 120.12264,69.1980087 120.912719,69.8452511 C121.198885,70.0782175 121.556721,70.6763517 121.659009,71.6121259 C121.08069,70.6659863 120.145731,69.3302099 118.864226,68.1030153 Z M119.063841,67.9473645 L119.042802,67.9570502 C118.999356,67.9769313 118.955738,67.9954531 118.91212,68.0139749 C118.87295,68.0304575 118.833779,68.0469402 118.794951,68.0646124 L118.752189,68.0838138 L118.786056,68.1159296 C120.134955,69.3993692 121.102242,70.8077033 121.676456,71.7631887 L121.735297,71.744497 C121.653193,70.7099968 121.262687,70.0486507 120.953087,69.7964827 C120.166428,69.1519592 119.254049,68.1533129 119.246352,68.144307 L119.063841,67.9473645 Z" id="path66" fill="#861810"></path>
                        <path d="M125.32837,79.9642542 C125.657127,80.1933124 126.021977,80.3941632 126.402905,80.5824395 C126.329866,80.6582258 126.249131,80.729764 126.175408,80.8050406 C126.005214,80.6832047 125.851269,80.5749628 125.72435,80.4816743 C125.618128,80.3911045 125.482486,80.2092853 125.32837,79.9642542" id="path68" fill="#861810"></path>
                        <path d="M126.171987,80.763579 L126.027792,80.6607747 C125.923281,80.5863478 125.827151,80.5180381 125.743166,80.4563555 C125.663969,80.3887256 125.561682,80.2612822 125.439552,80.0775938 C125.695614,80.2463289 125.989477,80.4120052 126.349708,80.5912756 C126.320972,80.6198229 126.291551,80.6480303 126.262131,80.6762378 C126.231684,80.705125 126.201408,80.7341821 126.171987,80.763579 Z M125.346672,79.9382558 L125.301515,79.9809068 C125.464868,80.2408913 125.600168,80.4174428 125.703653,80.5058036 C125.789691,80.5690155 125.885821,80.637495 125.990675,80.7120919 L126.179172,80.8465021 L126.198158,80.8271308 C126.233052,80.7914466 126.269657,80.7566121 126.30609,80.7217776 C126.346629,80.6830348 126.38751,80.644292 126.425825,80.6043598 L126.45593,80.5734335 L126.417102,80.554232 C125.979043,80.3377482 125.638996,80.1419952 125.346672,79.9382558 Z" id="path70" fill="#861810"></path>
                        <path d="M87.815093,15.8384914 C86.8832136,18.9817546 84.4856083,20.7312971 84.4856083,20.7312971 C86.7032692,19.516337 88.0603784,17.9848076 88.8896279,16.4283163 C93.2202671,18.8984916 96.8567861,21.9887383 99.9101963,25.3955543 C98.710453,27.824285 96.6894994,30.256754 93.4113297,32.4044296 C93.4113297,32.4044296 98.0626873,31.1879402 101.460763,27.2110275 C105.350949,31.9957612 108.193968,37.2557737 110.25871,42.2230063 C101.821336,49.0046925 89.755311,46.8485207 89.0023497,46.7047646 C88.6510134,35.1381747 85.0517832,20.0402142 79.350864,13.260754 C79.5527027,13.0389855 79.7350418,12.8131729 79.8776974,12.5935965 C82.7417555,13.4513753 85.3849882,14.545536 87.815093,15.8384914" id="path72" fill="#ED192D"></path>
                        <path d="M106.657085,72.9195249 C106.884239,73.7727157 107.512676,74.9020338 109.056572,76.1178435 C109.057598,76.1178435 109.057598,76.1180135 109.057598,76.1180135 C107.864868,75.6736609 106.783662,75.2709399 105.893519,74.9387375 C104.109127,76.9970328 104.794524,80.0879592 104.795037,80.0918675 L104.795037,80.0923773 C101.532433,80.9544042 100.263585,83.0262935 100.016931,84.762242 C98.3331171,82.6057304 96.1623239,80.4461601 93.3268311,78.5474238 C92.801024,77.6033234 92.4017937,76.6653402 92.248362,75.7786743 C92.248362,75.7786743 93.0794931,70.5645414 100.405043,69.6391327 C101.374554,71.3292016 103.269957,72.9084798 106.657085,72.9195249" id="path74" fill="#861810"></path>
                        <path d="M92.2776115,75.7785043 C92.2926639,75.6926925 92.5300811,74.426925 93.6042739,73.0710975 C95.4499014,70.7417726 98.308828,69.935481 100.389649,69.6700589 C101.250201,71.1601267 103.030658,72.9292106 106.634849,72.9480722 C106.988238,74.2442562 108.030957,75.3210676 108.898693,76.0282933 C107.772843,75.6087498 106.751676,75.2282889 105.903782,74.9118895 L105.884795,74.9049226 L105.871624,74.9200458 C104.182508,76.8682301 104.698052,79.7533779 104.761511,80.0716465 C100.986613,81.0796385 100.172245,83.5865345 99.998287,84.6917233 C98.1225547,82.3010558 95.8859074,80.2272973 93.3487255,78.5275427 C92.7683535,77.4843763 92.4178724,76.5851359 92.2776115,75.7785043 Z M100.420609,69.6083763 L100.401451,69.6107553 C98.3074596,69.8751578 95.4201387,70.684678 93.5568931,73.0381322 C92.4416483,74.4469761 92.2218493,75.7610021 92.2197967,75.7740863 L92.2191125,75.7788442 L92.2197967,75.7836021 C92.3609128,76.5992396 92.7148149,77.5078258 93.3016868,78.5613577 L93.3107524,78.5712133 C95.8636709,80.2808235 98.1122918,82.3697052 99.9940108,84.7797442 L100.035918,84.8334404 L100.045497,84.7661503 C100.19585,83.7073508 100.960613,81.1352039 104.802392,80.120075 L104.823944,80.1144675 L104.822918,80.0843908 C104.796063,79.957967 104.185073,76.9717141 105.902242,74.9727224 C106.757663,75.2918406 107.787724,75.6757 108.922982,76.0986421 L109.086506,76.159475 L109.086506,76.0892962 L109.066835,76.0891263 C108.177889,75.387848 107.046224,74.2692351 106.684966,72.9122181 L106.679322,72.8909776 L106.657256,72.8908076 C103.05221,72.8790828 101.281161,71.1082998 100.430188,69.624859 L100.420609,69.6083763 Z" id="path76" fill="#861810"></path>
                        <path d="M104.795037,80.0923773 L104.795037,80.0918675 C105.073677,80.7452272 105.514472,85.6881605 114.409405,85.6178118 C114.639125,85.6264779 117.972886,85.777031 119.878038,87.3211348 C119.878038,87.3211348 120.587724,87.8343068 121.589221,88.3590336 C121.563392,89.4808751 121.428092,90.6351721 121.141241,91.8001744 C115.104038,92.8839528 108.82001,92.0316115 103.090868,89.6118868 C102.327472,88.0766191 101.31195,86.4198554 100.016931,84.762242 C100.263585,83.0262935 101.532433,80.9544042 104.795037,80.0923773" id="path78" fill="#ED192D"></path>
                        <path d="M127.57357,63.1988247 C127.790974,61.7141945 127.614279,60.4317744 127.614279,60.4317744 C131.501215,62.1041712 130.702071,68.5624911 130.343037,70.0890927 C130.00453,65.5927209 128.401109,63.8219378 127.57357,63.1988247" id="path80" fill="#289EE0"></path>
                        <path d="M139.685607,64.7825209 C139.770961,63.1927074 139.551504,60.7034836 137.777375,58.7850362 C138.603888,57.8076305 138.774082,56.7094086 138.774082,56.7094086 C140.842759,59.3945553 140.451055,62.6430017 139.685607,64.7825209" id="path82" fill="#289EE0"></path>
                        <path d="M78.5481272,84.0407426 C78.0828717,84.3658082 77.6328396,84.5661492 77.1894785,84.683397 C77.053836,84.4636847 76.8723522,84.2337769 76.7283282,84.1488146 C74.5279434,82.826972 73.7659165,80.6031703 73.5403018,79.7097073 C73.1761367,78.250056 72.7009603,77.1521739 72.3183219,76.5282112 C71.9781038,76.9144495 71.2088928,76.7433356 70.3690382,76.6085855 C72.6185143,75.8977913 73.4717108,74.0162175 73.4717108,74.0162175 C75.1531305,74.0967617 75.9243941,77.8040042 76.006498,78.1311089 C76.0882598,78.4558346 76.6008961,80.6077582 78.5898633,81.7569575 C79.7381207,82.4213623 78.5481272,84.0407426 78.5481272,84.0407426" id="path84" fill="#289EE0"></path>
                        <path d="M72.3183219,76.5282112 C72.7009603,77.1521739 73.1761367,78.250056 73.5403018,79.7097073 C73.7659165,80.6031703 74.5279434,82.826972 76.7283282,84.1488146 C76.8723522,84.2337769 77.053836,84.4636847 77.1894785,84.683397 C74.4593524,85.4014979 71.964933,82.5725951 67.8020937,80.8191443 C62.9622392,78.7817497 63.6308729,75.4474914 63.6308729,75.4474914 C66.656231,77.0390042 68.8347214,77.0938898 70.3690382,76.6085855 C71.2088928,76.7433356 71.9781038,76.9144495 72.3183219,76.5282112" id="path86" fill="#7DD5F7"></path>
                        <path d="M61.1137569,63.7659471 C61.1044235,63.7606138 61.1004235,63.7539471 61.1004235,63.7486138 C61.0897569,63.7246138 61.1004235,63.6846138 61.0897569,63.6659471 C61.1004235,63.6952804 61.1044235,63.7312804 61.1137569,63.7659471" id="path88" fill="#289EE0"></path>
                        <path d="M69.0136395,68.3142314 L69.4147513,67.849318 C67.1160129,66.5866092 63.5357692,68.1470257 63.5357692,68.1470257 C61.5009606,68.0613838 60.3809264,66.7849111 59.9269602,66.1126898 C60.1323911,65.326789 60.4854379,64.3942435 61.0911253,63.6764824 C61.0911253,63.6764824 61.2223205,65.5442924 62.8974113,66.5745445 C62.8974113,66.5745445 63.0272381,66.1089515 63.0970264,65.900624 C63.9688673,66.8872056 66.2491324,67.1286683 66.2491324,67.1286683 L66.1593313,66.6148167 C67.1849459,66.643364 67.9401309,66.4956996 67.9401309,66.4956996 C71.4273234,65.7947611 70.0168467,62.9716357 70.0168467,62.9716357 L69.5739987,63.4047732 C69.2447278,62.5485237 66.0866351,60.8837735 66.0866351,60.8837735 C72.068076,60.8406127 72.3533871,64.5312026 72.3533871,64.5312026 C73.1985442,67.8267181 69.0136395,68.3142314 69.0136395,68.3142314" id="path90" fill="#289EE0"></path>
                        <path d="M59.6801353,65.7023222 C58.0803064,62.4834426 61.7724167,61.749029 61.7724167,61.749029 C60.9382067,62.4181916 60.9712193,63.200354 61.0897569,63.6659471 C61.0911253,63.6683261 61.0897569,63.6734238 61.0911253,63.6764824 C60.4854379,64.3942435 60.1323911,65.326789 59.9269602,66.1126898 C59.7630945,65.8705474 59.6801353,65.7023222 59.6801353,65.7023222" id="path92" fill="#7DD5F7"></path>
                        <path d="M71.4115868,74.7480823 C71.4115868,74.7480823 68.1146017,77.215046 63.7709627,74.3487597 C63.0669217,72.9094993 62.3851171,70.1976744 65.5998273,68.0462605 C66.2711978,67.9244247 67.0631585,67.8698789 68.0078666,67.9833885 C68.0078666,67.9833885 62.511694,69.6544259 64.4787668,73.3217361 L65.0129554,72.7922514 C65.0129554,72.7922514 65.0250999,72.8009176 65.0274946,72.802277 C65.1819526,73.1693139 65.7854164,74.0542806 68.0448134,74.3033899 L67.937052,73.3353301 C68.4216361,73.4535975 72.2315996,74.2544516 73.4224485,70.6337007 C73.4224485,70.6337007 73.1930707,73.5553823 71.4115868,74.7480823" id="path94" fill="#289EE0"></path>
                        <path d="M63.7709627,74.3487597 C63.4919805,74.1640518 63.2075246,73.9596326 62.9206741,73.7288752 C62.9206741,73.7288752 61.0341657,71.2433897 63.1257628,69.0850089 C63.1257628,69.0850089 63.9645911,68.3437983 65.5998273,68.0462605 C62.3851171,70.1976744 63.0669217,72.9094993 63.7709627,74.3487597" id="path96" fill="#7DD5F7"></path>
                        <path d="M68.1565089,107.191255 C70.3331178,105.731263 72.5136608,104.259547 74.5965344,102.841528 C75.4642701,102.822666 76.336111,102.761323 77.208465,102.70185 C74.1047662,105.663973 70.7663869,106.806036 68.1565089,107.191255" id="path98" fill="#7DD5F7"></path>
                        <path d="M54.7403878,116.106343 C56.6328829,114.859607 58.8257415,113.410661 61.1834922,111.844637 C61.5897355,112.178538 62.0743196,112.434275 62.5756666,112.590605 C62.5544564,112.584318 62.5344436,112.574462 62.5140887,112.567835 C59.8109885,113.896305 57.2105181,115.081018 54.7403878,116.106343" id="path100" fill="#7DD5F7"></path>
                        <path d="M50.7833214,118.709076 C51.8298041,118.023261 53.185545,117.132007 54.7403878,116.106343 C57.2105181,115.081018 59.8109885,113.896305 62.5140887,112.567835 C62.5344436,112.574462 62.5544564,112.584318 62.5756666,112.590605 L62.6989935,112.629348 L62.8272809,112.645661 C63.2205244,112.696298 63.5997418,112.721957 63.9808408,112.751524 C59.2473793,115.187051 54.8344652,117.153587 50.7833214,118.709076" id="path102" fill="#FFFFFF"></path>
                        <path d="M69.4104751,105.340947 C55.871027,109.92466 45.0435738,107.341128 39.9505656,105.49235 C42.3185792,104.279259 44.8436166,103.074834 47.4947176,101.903884 C49.9318354,102.499979 54.3466311,102.935496 61.5028422,101.595981 C65.5649331,102.425213 69.3446209,102.830992 73.0971117,102.851213 C71.8891579,103.670929 70.6522967,104.505598 69.4104751,105.340947" id="path104" fill="#7DD5F7"></path>
                        <path d="M69.4104751,105.340947 C68.8398529,105.725996 68.2694018,106.110195 67.696727,106.494224 C66.7947813,106.810114 65.9048091,107.093718 65.028863,107.349114 C64.1563379,107.305784 63.596834,107.200261 63.4960856,107.17953 L63.3864427,107.15744 C63.3864427,107.15744 61.2284783,107.0441 60.4219784,108.453794 C49.7807984,110.479973 41.5620259,108.337905 37.4682907,106.79652 C38.2732511,106.361174 39.1031848,105.926337 39.9505656,105.49235 C45.0435738,107.341128 55.871027,109.92466 69.4104751,105.340947" id="path106" fill="#FFFFFF"></path>
                        <path d="M60.585331,111.210139 C56.592002,113.857392 52.5629236,116.516371 49.1982027,118.733375 C49.192216,118.736434 49.192216,118.735414 49.1864003,118.739153 C40.9801144,121.573663 34.4514851,122.653193 29.9205466,122.676133 C29.9171256,122.676133 29.9135336,122.676133 29.9102836,122.675793 C35.8575146,121.469839 43.8203966,118.132013 53.4667509,110.12755 C55.561769,110.048195 57.7931138,109.813189 60.1402593,109.38362 C60.13547,109.43035 60.1243517,109.471131 60.1222991,109.51939 C60.1094704,109.621855 60.1450487,109.742161 60.1450487,109.841397 C60.1450487,110.353719 60.3116513,110.814215 60.585331,111.210139" id="path108" fill="#7DD5F7"></path>
                        <path d="M49.1864003,118.739153 C49.192216,118.735414 49.192216,118.736434 49.1982027,118.733375 C48.5459898,119.162944 47.9096845,119.581299 47.3137469,119.973994 C34.9365824,124.247765 26.3734866,124.535957 22.7267046,123.217173 C24.6210813,123.347335 27.0308311,123.259994 29.9102836,122.675793 C29.9135336,122.676133 29.9171256,122.676133 29.9205466,122.676133 C34.4514851,122.653193 40.9801144,121.573663 49.1864003,118.739153" id="path110" fill="#FFFFFF"></path>
                        <path d="M116.541199,94.6312862 C117.652338,94.5588984 118.761938,94.4387618 119.862302,94.2452178 L120.949666,95.2569482 C120.678381,95.7410631 120.361254,96.263241 120.008721,96.8025813 C118.864568,96.0984143 117.709127,95.3764051 116.541199,94.6312862" id="path112" fill="#289EE0"></path>
                        <path d="M109.64601,100.701499 L110.342525,101.368282 C111.184432,102.174744 112.023602,102.967782 112.857812,103.749094 C111.847421,104.318851 110.75407,104.806874 109.560656,105.167794 C109.586997,105.043919 109.62001,104.924292 109.635234,104.792601 C109.72264,104.023352 108.960613,98.8408255 105.457513,96.5459954 C105.34137,95.8792117 105.046138,94.5123391 104.429161,92.7721424 C105.75685,93.3121625 107.12388,93.7240594 108.51212,94.0346814 C105.55809,96.7527935 109.64601,100.701499 109.64601,100.701499" id="path114" fill="#289EE0"></path>
                        <path d="M166.006068,140.742505 C167.646607,141.107672 169.051781,141.262474 170.182249,141.213365 C170.411456,141.203 170.607479,141.167146 170.814792,141.140978 C175.866577,143.415077 180.472948,145.077108 184.232623,146.144064 C188.662813,148.011534 192.403673,148.849092 195.306388,149.172288 C190.54094,149.948334 180.267688,147.891907 166.006068,140.742505" id="path116" fill="#FFFFFF"></path>
                        <path d="M170.814792,141.140978 C171.932431,140.998581 172.734655,140.622878 173.205042,140.011999 C177.228133,142.77718 180.922809,144.748814 184.232623,146.144064 C180.472948,145.077108 175.866577,143.415077 170.814792,141.140978" id="path118" fill="#289EE0"></path>
                        <path d="M198.255287,147.303969 C191.320927,146.291898 182.581992,143.174804 173.456485,136.416907 C173.389775,136.210619 173.314514,136.000252 173.227278,135.784448 C176.088942,136.537044 177.648916,136.651233 177.648916,136.651233 C185.226423,143.848724 195.848616,144.572942 198.063711,144.643631 C198.424626,145.68 198.486204,146.568705 198.255287,147.303969" id="path120" fill="#289EE0"></path>
                        <path d="M173.456485,136.416907 C182.581992,143.174804 191.320927,146.291898 198.255287,147.303969 C198.215945,147.430393 198.186867,147.561744 198.12871,147.677803 C197.997002,147.942375 197.78661,148.17959 197.500957,148.386048 C190.735937,147.783326 182.749621,145.256039 173.687402,139.016582 C173.865294,138.272142 173.778059,137.398051 173.456485,136.416907" id="path122" fill="#FFFFFF"></path>
                        <path d="M172.514,134.314261 C172.127428,133.616212 171.658751,132.882647 171.114813,132.120706 C175.982891,133.540425 182.60936,134.765411 190.111605,134.36269 C190.612781,134.845105 191.100273,135.322083 191.560397,135.790055 C184.078678,136.542991 177.542865,135.613844 172.514,134.314261" id="path124" fill="#FFFFFF"></path>
                        <path d="M171.114813,132.120706 C169.804229,130.275326 168.060547,128.260701 166.013765,126.163154 C171.171259,126.4403 175.416716,126.010222 178.415219,125.480227 L179.409018,125.305715 C183.567239,128.477865 187.179811,131.540244 190.111605,134.36269 C182.60936,134.765411 175.982891,133.540425 171.114813,132.120706" id="path126" fill="#289EE0"></path>
                        <path d="M164.802562,124.945815 C164.067903,124.223126 163.302797,123.492281 162.509639,122.757697 C168.004614,123.420742 172.695313,123.274097 176.169335,122.901453 C176.83814,123.386757 177.508655,123.872741 178.151802,124.354307 C175.1208,124.890249 170.519217,125.368247 164.802562,124.945815" id="path128" fill="#FFFFFF"></path>
                        <path d="M144.146757,111.840728 C144.986441,111.848035 145.818598,111.865198 146.678294,111.849904 C147.762066,112.247358 148.794352,112.60165 149.78798,112.924167 C148.431726,112.835806 146.579599,112.553732 144.146757,111.840728" id="path130" fill="#289EE0"></path>
                        <path d="M162.509639,122.757697 C159.1078,119.611035 155.201878,116.388587 151.178102,113.359683 C158.042844,115.444657 162.665636,115.765134 165.464011,115.608294 C169.280475,118.042972 172.857811,120.492264 176.169335,122.901453 C172.695313,123.274097 168.004614,123.420742 162.509639,122.757697" id="path132" fill="#289EE0"></path>
                        <path d="M138.149066,109.625593 C137.596405,109.38345 137.006112,109.088122 136.400937,108.770023 C137.693903,108.928902 138.936067,109.061613 140.066535,109.158131 C141.344277,109.725678 142.575322,110.246667 143.756593,110.723475 C142.790674,110.705463 141.696469,110.664511 140.504422,110.593483 C139.755566,110.303761 138.97575,109.987362 138.149066,109.625593" id="path134" fill="#FFFFFF"></path>
                        <path d="M127.073078,102.851723 C127.248917,102.865147 127.440493,102.88146 127.607095,102.893864 C132.194309,105.443411 136.337478,107.502047 140.066535,109.158131 C138.936067,109.061613 137.693903,108.928902 136.400937,108.770023 C133.63968,107.320397 130.388194,105.155899 127.073078,102.851723" id="path136" fill="#7DD5F7"></path>
                        <path d="M110.810859,99.800559 L109.179557,97.2459143 L111.406967,99.0540808 C114.681716,100.854431 120.017786,101.93617 123.157577,102.432859 C126.044384,104.338562 128.689328,105.933474 131.113617,107.275027 C126.920672,106.678423 120.243401,105.286401 113.853151,102.601424 C112.821207,101.704903 111.732646,100.824014 110.810859,99.800559" id="path138" fill="#7DD5F7"></path>
                        <path d="M115.349837,104.003471 C114.890568,103.516808 114.377419,103.057672 113.853151,102.601424 C120.243401,105.286401 126.920672,106.678423 131.113617,107.275027 C132.332004,107.948778 133.49959,108.564075 134.604572,109.113101 C130.426338,108.674695 123.232154,107.446141 115.349837,104.003471" id="path140" fill="#FFFFFF"></path>
                        <path d="M128.218256,111.564431 C127.158432,110.455164 126.10237,109.348786 125.072479,108.264158 C128.755695,109.219133 132.541711,109.825424 136.694117,110.111917 C143.431769,113.204372 147.848788,113.946942 150.356721,114.027996 C152.726616,115.804047 154.962579,117.577039 157.041689,119.317236 C151.652081,119.66881 140.271282,118.980616 128.218256,111.564431" id="path142" fill="#7DD5F7"></path>
                        <path d="M129.62001,113.028161 C129.152188,112.540308 128.685736,112.052454 128.218256,111.564431 C140.271282,118.980616 151.652081,119.66881 157.041689,119.317236 C157.774638,119.930833 158.490995,120.541202 159.182891,121.145453 C153.910965,121.586408 142.469101,121.276125 129.62001,113.028161" id="path144" fill="#FFFFFF"></path>
                        <path d="M123.605727,107.867044 C129.206924,113.782795 135.675344,120.462527 140.167112,125.076487 C133.659522,120.353266 125.824927,113.771071 118.088686,105.979693 C119.931064,106.693546 121.761468,107.339089 123.605727,107.867044" id="path146" fill="#7DD5F7"></path>
                        <path d="M116.749024,105.47009 C117.198714,105.654458 117.642246,105.80705 118.088686,105.979693 C125.824927,113.771071 133.659522,120.353266 140.167112,125.076487 C141.559287,126.506401 142.767754,127.744471 143.694501,128.69129 C135.803974,123.318618 126.666321,115.769892 116.749024,105.47009" id="path148" fill="#FFFFFF"></path>
                        <path d="M145.238568,129.121709 C141.313146,125.092459 136.308057,119.944087 131.823986,115.297332 C135.690567,117.50788 139.396362,119.035671 142.821292,120.07238 C150.624414,129.9506 157.735981,135.096254 163.314428,137.755402 C158.888172,136.514274 152.539145,133.765405 145.250713,129.132754 C145.244555,129.127316 145.244042,129.126807 145.238568,129.121709" id="path150" fill="#7DD5F7"></path>
                        <path d="M146.833779,130.758082 C146.326787,130.238113 145.793283,129.690616 145.238568,129.121709 C145.244042,129.126807 145.244555,129.127316 145.250713,129.132754 C152.539145,133.765405 158.888172,136.514274 163.314428,137.755402 C166.026423,139.047848 168.378187,139.755923 170.266064,140.128567 C166.420693,140.398917 158.088685,137.913262 146.833779,130.758082" id="path152" fill="#FFFFFF"></path>
                        <path d="M159.473505,130.405488 C159.473505,130.405488 159.469571,130.403959 159.469057,130.403959 C162.846949,131.165561 166.396746,131.168449 168.264952,131.097421 C169.194608,132.4038 169.87436,133.581377 170.262985,134.595146 C165.163819,133.723264 161.56322,131.816371 159.473505,130.405488" id="path154" fill="#7DD5F7"></path>
                        <path d="M172.353214,136.288614 C163.738119,134.814349 159.39944,130.389176 159.39944,130.389176 C159.423216,130.394613 159.446137,130.398691 159.469057,130.403959 C159.469571,130.403959 159.473505,130.405488 159.473505,130.405488 C161.56322,131.816371 165.163819,133.723264 170.262985,134.595146 C169.87436,133.581377 169.194608,132.4038 168.264952,131.097421 C168.568223,131.086036 168.830785,131.072442 169.037584,131.059868 C170.65982,133.068885 171.795591,134.843236 172.353214,136.288614" id="path156" fill="#FFFFFF"></path>
                        <path d="M168.365529,130.246609 C158.723793,130.352472 151.467176,127.032827 148.380753,125.321857 C148.022575,124.941397 147.661489,124.540545 147.300574,124.140033 C151.11105,125.985752 158.420864,128.664272 166.885948,128.686872 C166.809831,128.603779 166.721398,128.515588 166.643058,128.431136 C166.681886,128.431136 166.72003,128.433855 166.758003,128.433855 C167.329481,129.053569 167.868972,129.65986 168.365529,130.246609" id="path158" fill="#FFFFFF"></path>
                        <path d="M147.300574,124.140033 C147.240706,124.110976 147.173655,124.080729 147.116182,124.052182 C146.174211,123.000689 145.225739,121.890742 144.268716,120.704669 C150.731491,122.468486 156.083811,122.507058 159.432453,122.227533 L160.17823,122.164151 C162.6499,124.361104 164.816246,126.469018 166.643058,128.431136 C166.721398,128.515588 166.809831,128.603779 166.885948,128.686872 C158.420864,128.664272 151.11105,125.985752 147.300574,124.140033" id="path160" fill="#7DD5F7"></path>
                        <path d="M171.142181,137.941639 C171.028091,138.123289 170.857383,138.281658 170.630913,138.41233 C164.761339,137.384287 157.80919,134.322588 150.130422,127.097908 C155.088643,129.515424 158.007779,129.972181 158.007779,129.972181 C162.381694,134.796507 168.676327,136.383942 171.470597,136.872305 C171.458623,136.870095 171.44665,136.870095 171.436387,136.868566 C171.426124,137.279614 171.333757,137.641213 171.142181,137.941639" id="path162" fill="#7DD5F7"></path>
                        <path d="M150.079107,127.072929 C150.197773,127.131596 150.313773,127.184929 150.43644,127.244929 C150.38844,127.224929 150.281773,127.184929 150.139107,127.131596 C150.115107,127.110263 150.091107,127.094263 150.079107,127.072929" id="path164" fill="#7DD5F7"></path>
                        <path d="M172.454133,139.232895 C172.33953,139.415224 172.166769,139.572744 171.940984,139.703077 C165.728796,138.6159 158.300445,135.250715 150.086804,127.080406 C150.105106,127.087203 150.11879,127.092301 150.124948,127.09485 C150.126488,127.095869 150.128027,127.096889 150.130422,127.097908 C157.80919,134.322588 164.761339,137.384287 170.630913,138.41233 C170.857383,138.281658 171.028091,138.123289 171.142181,137.941639 C171.333757,137.641213 171.426124,137.279614 171.436387,136.868566 C171.44665,136.870095 171.458623,136.870095 171.470597,136.872305 C171.961509,136.957946 172.356635,137.013172 172.601236,137.042739 C172.837285,137.944358 172.797943,138.685399 172.454133,139.232895" id="path166" fill="#FFFFFF"></path>
                        <path d="M112.9341,95.108944 C113.422961,95.4428456 115.855802,97.2741218 118.15112,98.9495772 C115.917893,98.4345361 111.789435,97.3962975 109.633694,96.5565307 C108.882443,95.5655311 109.010902,94.6280577 112.9341,95.108944" id="path168" fill="#7DD5F7"></path>
                        <path d="M111.670726,98.3674159 C111.670726,98.3674159 110.302841,97.4406478 109.633694,96.5565307 C111.789435,97.3962975 115.917893,98.4345361 118.15112,98.9495772 C119.202905,99.7179757 120.226638,100.453069 121.019283,100.996658 C118.847292,100.681618 115.349324,99.9647061 111.670726,98.3674159" id="path170" fill="#FFFFFF"></path>
                        <path d="M23.9113956,117.556818 C24.4779126,116.670832 25.4619622,115.554938 26.5689966,114.51398 C28.3480857,115.090874 31.7791739,116.054686 35.2073543,116.191645 C32.8915108,117.069305 29.0139826,118.045691 23.9113956,117.556818" id="path172" fill="#7DD5F7"></path>
                        <path d="M21.5351716,118.724369 C22.3832366,117.39641 23.8564886,115.88833 25.8505873,114.271668 C26.0426763,114.339298 26.2872775,114.422391 26.5689966,114.51398 C25.4619622,115.554938 24.4779126,116.670832 23.9113956,117.556818 C29.0139826,118.045691 32.8915108,117.069305 35.2073543,116.191645 C35.2126568,116.192155 35.2355775,116.199292 35.2607218,116.208298 C35.0438306,116.346616 29.9669011,119.530321 21.5351716,118.724369" id="path174" fill="#FFFFFF"></path>
                        <path d="M48.6954873,112.78126 C44.8424192,113.70599 37.4051733,114.742529 28.5841344,112.21932 C30.828479,110.640892 33.4821458,108.995853 36.4673072,107.344017 L37.1735719,107.610288 C40.3417565,108.803668 45.5067767,110.212852 52.1140889,110.158306 C50.9519765,111.100367 49.8139821,111.968002 48.6954873,112.78126" id="path176" fill="#7DD5F7"></path>
                        <path d="M48.6954873,112.78126 C48.6465671,112.817454 48.5966206,112.853818 48.5475293,112.889842 C48.0229195,113.269454 47.5007044,113.640399 46.9856734,113.993842 C43.6459258,114.909225 35.9435527,116.340839 26.6721396,113.622896 C26.9800293,113.385512 27.3002345,113.145918 27.6283081,112.903946 C27.8147524,112.767497 28.0102623,112.629348 28.2032065,112.491879 C28.3299544,112.400969 28.4546497,112.3104 28.5841344,112.21932 C37.4051733,114.742529 44.8424192,113.70599 48.6954873,112.78126" id="path178" fill="#FFFFFF"></path>
                        <path d="M44.92076,115.336245 C35.975539,120.649954 28.6180023,121.900428 22.7414149,121.361937 C22.5518917,121.168053 22.4203544,120.960406 22.3486845,120.743072 C22.2308312,120.384192 22.2178314,119.988947 22.295488,119.565835 C22.2455415,119.561247 22.2118446,119.55666 22.1642928,119.552072 C24.9093002,119.815624 31.4061142,119.940179 36.7117374,116.145425 C36.7117374,116.145425 39.6437022,116.47236 44.9734434,115.32452 C44.9566805,115.329448 44.9385492,115.332167 44.92076,115.336245" id="path180" fill="#7DD5F7"></path>
                        <path d="M22.3486845,120.743072 C22.4203544,120.960406 22.5518917,121.168053 22.7414149,121.361937 C28.6180023,121.900428 35.975539,120.649954 44.92076,115.336245 C44.9385492,115.332167 44.9566805,115.329448 44.9734434,115.32452 C35.3065632,121.465251 27.4245877,122.898564 21.2019665,122.329147 C21.0124433,122.134074 20.8814192,121.927106 20.8097493,121.709773 C20.5933713,121.055054 20.7153298,120.287335 21.1354282,119.428876 C21.2469526,119.446039 21.3935423,119.46575 21.5611712,119.486311 C21.6176176,119.493957 21.6810771,119.500415 21.7438524,119.508061 C21.8735081,119.522675 22.010348,119.537118 22.1642928,119.552072 C22.2118446,119.55666 22.2455415,119.561247 22.295488,119.565835 C22.2178314,119.988947 22.2308312,120.384192 22.3486845,120.743072" id="path182" fill="#FFFFFF"></path>
                        <path d="M63.0171462,111.190427 C63.0171462,111.190427 61.553815,110.73435 61.6316427,109.74505 C62.0395965,110.109878 62.59414,110.28439 62.59414,110.28439 C77.5336307,112.204027 83.5190058,97.6431978 84.4197541,95.180822 C84.6349348,95.1775935 84.8543917,95.2992594 84.9659162,95.7342661 C84.9659162,95.7342661 79.3291406,113.286786 63.0171462,111.190427" id="path184" fill="#289EE0"></path>
                        <path d="M62.59414,110.28439 C62.59414,110.28439 62.0395965,110.109878 61.6316427,109.74505 C61.6354058,109.680818 61.4003833,108.510548 63.191788,108.615732 C63.191788,108.615732 76.8738916,111.52314 83.8310007,95.4263629 C83.8310007,95.4263629 84.1224696,95.1847303 84.4197541,95.180822 C83.5190058,97.6431978 77.5336307,112.204027 62.59414,110.28439" id="path186" fill="#FFFFFF"></path>
                        <path d="M183.271323,137.37783 C187.349151,137.527703 191.031853,137.06194 192.559328,136.830843 C194.158644,138.530088 195.45178,140.111065 196.416501,141.545738 C190.660675,140.72959 185.912332,138.874015 183.273034,137.379869 C183.273034,137.379359 183.273034,137.37834 183.271323,137.37783" id="path188" fill="#289EE0"></path>
                        <path d="M179.566384,137.059901 C180.806495,137.236453 182.055159,137.3328 183.271323,137.37783 C183.273034,137.37834 183.273034,137.379359 183.273034,137.379869 C185.912332,138.874015 190.660675,140.72959 196.416501,141.545738 C196.910835,142.281511 197.324776,142.981939 197.637797,143.6336 C185.915753,142.635124 179.566384,137.059901 179.566384,137.059901" id="path190" fill="#FFFFFF"></path>
                        <path d="M88.6411156,107.881227 C88.5304489,107.865227 88.4104489,107.853227 88.3037823,107.837227 C88.3917823,107.726561 88.5064489,107.655894 88.7171156,107.673227 C88.6944489,107.743894 88.6597823,107.809227 88.6411156,107.881227" id="path192" fill="#ED192D"></path>
                        <path d="M93.511736,100.960124 C95.2839831,102.76897 97.1054925,104.16456 98.205685,104.936697 C98.041135,104.821318 97.8632432,104.695404 97.6679043,104.552157 C95.8005535,105.529733 93.6685886,105.209086 93.6685886,105.209086 C93.6306156,105.165075 93.6058134,105.122424 93.5692087,105.077904 C93.6607203,103.625219 93.6215499,102.233708 93.511736,100.960124" id="path194" fill="#ED192D"></path>
                        <path d="M83.3180223,119.653347 C83.3180223,119.653347 82.2660659,120.046042 81.6360895,119.625139 C82.0334382,119.590305 82.3586039,119.469148 82.3586039,119.469148 C95.1868268,111.911247 90.600126,96.7949347 89.923624,94.7894859 C90.0775688,94.5692638 90.3497091,94.4025679 90.8047016,94.7507432 C90.8047016,94.7507432 97.0735062,111.549308 83.3180223,119.653347" id="path196" fill="#289EE0"></path>
                        <path d="M82.3586039,119.469148 C82.3586039,119.469148 82.0334382,119.590305 81.6360895,119.625139 C81.4929208,119.530321 81.3719886,119.392512 81.2893715,119.198799 C81.2893715,119.198799 80.4620035,118.563451 81.8977957,117.578059 C81.8977957,117.578059 94.1295679,111.659759 89.748469,95.189998 C89.748469,95.189998 89.796534,94.9711352 89.923624,94.7894859 C90.600126,96.7949347 95.1868268,111.911247 82.3586039,119.469148" id="path198" fill="#FFFFFF"></path>
                        <path d="M60.204232,100.703198 C53.8675206,101.763527 49.940901,101.35163 47.7618975,100.818237 L47.4357055,100.738372 L47.1194344,100.877031 C42.6777838,102.839319 38.3009612,105.025737 34.3875125,107.275707 C31.298695,106.81878 28.616976,106.181224 26.4542221,105.531772 C30.0360052,103.630487 33.8835998,101.737868 37.9646773,99.899625 C41.2649124,100.69844 47.2535374,101.263099 56.9761799,99.3721794 C58.8394255,99.746693 60.6491325,100.030807 62.4386557,100.275158 C61.684155,100.42894 60.9305095,100.581872 60.204232,100.703198" id="path200" fill="#289EE0"></path>
                        <path d="M31.7878974,108.82236 C28.7110534,108.186502 26.1875555,107.387857 24.3073759,106.681481 C25.0052592,106.298471 25.732563,105.914782 26.4542221,105.531772 C28.616976,106.181224 31.298695,106.81878 34.3875125,107.275707 C33.4949746,107.789049 32.6270678,108.3046 31.7878974,108.82236" id="path202" fill="#FFFFFF"></path>
                        <path d="M17.5509083,119.247737 C14.7479663,120.324718 9.78457961,121.465251 3.98720537,121.277995 C5.13356412,119.945957 6.63719462,118.516212 8.46970259,117.016119 C9.96519111,117.536937 13.6208506,118.704148 17.7341026,119.270677 C17.6740641,119.26303 17.6080389,119.255723 17.5509083,119.247737" id="path204" fill="#289EE0"></path>
                        <path d="M22.0488342,116.384679 C18.7022446,116.287482 15.0269314,115.875246 11.1557149,114.935733 C14.4248532,112.527393 18.4059863,109.99212 22.9461615,107.441044 L23.9019879,107.799924 C25.6242884,108.447506 27.8046604,109.135021 30.3555263,109.723299 C26.838229,111.992981 23.9394478,114.2664 22.0488342,116.384679" id="path206" fill="#289EE0"></path>
                        <path d="M20.729527,118.083924 C17.3037413,117.857924 13.5517636,117.271685 9.59028413,116.118238 C10.090468,115.728431 10.6161725,115.333186 11.1557149,114.935733 C15.0269314,115.875246 18.7022446,116.287482 22.0488342,116.384679 C21.5322637,116.963102 21.0861658,117.531669 20.729527,118.083924" id="path208" fill="#FFFFFF"></path>
                        <path d="M19.7295697,120.403223 C17.0868159,121.681395 11.0831556,123.924399 2.56928794,123.149033 C2.94954878,122.551918 3.42989087,121.925577 3.98720537,121.277995 C9.78457961,121.465251 14.7479663,120.324718 17.5509083,119.247737 C17.6080389,119.255723 17.6740641,119.26303 17.7341026,119.270677 C18.4762878,119.372801 19.2343805,119.446379 19.994868,119.502284 C19.8766726,119.808318 19.7837925,120.109594 19.7295697,120.403223" id="path210" fill="#FFFFFF"></path>
                        <path d="M19.8185156,122.108416 C19.9567239,122.527279 20.2257853,122.893637 20.5762663,123.225669 C13.338875,126.145481 6.86530665,127.11711 1.49668587,126.930363 C1.33392171,126.105719 1.50737649,125.165357 2.01951673,124.119132 C3.91609997,124.397468 12.0791273,125.288043 19.6941624,121.58148 C19.719991,121.76109 19.7617271,121.936282 19.8185156,122.108416" id="path212" fill="#289EE0"></path>
                        <path d="M22.5756676,124.350229 C22.6750475,124.382515 22.7886246,124.409533 22.892965,124.439779 C14.8287531,127.788821 7.91291834,128.599871 2.08200123,128.091966 C1.82696596,127.827734 1.6512328,127.54396 1.5551507,127.246252 C1.52314557,127.145657 1.51760013,127.035376 1.49668587,126.930363 C6.86530665,127.11711 13.338875,126.145481 20.5762663,123.225669 C21.0562321,123.681067 21.708445,124.063567 22.5756676,124.350229" id="path214" fill="#FFFFFF"></path>
                        <path d="M31.1921309,124.851676 C25.2112031,126.59918 19.8130421,127.640477 15.534402,128.12901 C18.3449215,127.429431 21.4617912,126.370122 24.8598668,124.841821 C26.5724176,125.06884 28.6939484,125.088211 31.1921309,124.851676" id="path216" fill="#289EE0"></path>
                        <path d="M39.4285216,123.411057 C38.7816112,123.842495 38.1475295,124.265947 37.5433816,124.668838 C20.7025011,130.619763 9.07993991,131.079239 4.14161204,129.29894 C7.06288629,129.485687 10.8859865,129.286366 15.534402,128.12901 C19.8130421,127.640477 25.2112031,126.59918 31.1921309,124.851676 C33.6005123,124.624317 36.3571511,124.156855 39.4285216,123.411057" id="path218" fill="#FFFFFF"></path>
                        <path d="M89.6814175,93.2380754 C88.8921936,93.5274568 88.4726084,94.2837907 88.3429527,94.895009 L88.271796,95.2265317 L88.3598866,95.5541461 C88.907246,97.6126114 89.1689522,99.481101 89.2324117,101.191731 C88.9982445,102.444414 88.6980521,103.98325 88.5063052,104.694214 C87.5905045,104.638989 86.503483,104.302029 85.5201176,103.784948 L85.5308937,103.682484 L86.4381419,95.9781077 L86.5022856,95.7791262 L86.3976031,95.3709675 C86.3969189,95.3679089 86.3955505,95.3656999 86.3945242,95.3626412 C86.379814,95.302318 86.3579196,95.2520204 86.3396173,95.1961152 C86.0342933,94.2645892 85.3952512,93.9211718 85.0232179,93.8027345 C84.1990999,93.5398613 83.3751529,93.8893959 82.8792795,94.3035019 L82.6120997,94.5276323 L82.4733783,94.8476001 C81.3521468,97.4430267 80.0502866,99.4984333 78.667862,101.139734 C77.3158843,100.963522 76.2475072,100.266832 76.2475072,100.266832 C74.9687388,98.4710699 77.5823799,94.2893982 78.2765001,93.2428333 C78.2794079,93.2334874 78.2845394,93.2012018 78.2913814,93.1627988 C78.2944603,93.1583808 78.3066048,93.1461462 78.3066048,93.1461462 C77.3288841,96.2289163 78.2166326,99.1895106 78.2166326,99.1895106 C82.3026706,92.7736718 86.8395959,91.1228554 86.8395959,91.1228554 C89.1776758,90.0492725 91.5549261,93.5077455 91.5549261,93.5077455 C91.5766494,93.5327244 91.5980306,93.553965 91.619754,93.578774 C90.7865703,92.9760518 90.050543,93.1019659 89.6814175,93.2380754" id="path220" fill="#ED192D"></path>
                        <path d="M76.2475072,100.266832 C76.2475072,100.266832 77.3158843,100.963522 78.667862,101.139734 C78.4071821,101.448657 78.145818,101.747894 77.8806908,102.027759 C74.7342295,102.011447 74.5838767,99.5448227 74.5838767,99.5448227 C74.5407721,97.2080212 78.1280288,93.337991 78.2913814,93.1627988 C78.2845394,93.2012018 78.2794079,93.2334874 78.2765001,93.2428333 C77.5823799,94.2893982 74.9687388,98.4710699 76.2475072,100.266832" id="path222" fill="#FFFFFF"></path>
                        <path d="M80.0152214,10.1120363 C79.8246719,9.56775113 79.4755593,8.97354219 78.8673061,8.40502584 C81.2992924,8.57223154 84.2150075,8.88944657 87.3643767,9.46632321 C87.6123989,10.0864116 87.8202244,10.6920395 87.9476566,11.2651268 C85.4501582,10.7588028 82.8074386,10.3695058 80.0152214,10.1120363" id="path224" fill="#861810"></path>
                        <path d="M80.0383132,10.0825034 C79.8255272,9.48436919 79.4605069,8.93291325 78.952831,8.44273208 C81.7884949,8.64086404 84.6101326,8.99464682 87.341456,9.49419082 C87.6064122,10.1586295 87.791317,10.7254806 87.9059204,11.2245149 C85.3938828,10.7169844 82.7472291,10.3329381 80.0383132,10.0825034 Z M78.7805839,8.36725163 L78.8454118,8.42811858 C79.3843897,8.93172378 79.7678834,9.50170148 79.9851167,10.1223847 L79.9917876,10.1416371 L80.0123136,10.1434893 C82.7432949,10.3953344 85.4109878,10.783102 87.9413277,11.296257 L87.9892217,11.3057558 L87.9787876,11.2583638 C87.8635,10.740417 87.6722664,10.1504732 87.3939683,9.45476834 L87.3874684,9.4384386 L87.3701924,9.43526101 C84.6031195,8.92834228 81.7429956,8.57116101 78.8693587,8.37336891 L78.7805839,8.36725163 Z" id="path226" fill="#861810"></path>
                        <path d="M128.750221,46.9786829 C128.431727,46.0255764 128.076627,45.0332174 127.669186,43.9997367 C128.014023,44.1722101 128.978744,44.6969369 129.914728,45.549448 C129.588023,45.9757885 129.186056,46.465341 128.750221,46.9786829" id="path228" fill="#861810"></path>
                        <path d="M90.0804767,11.7292416 C90.0943317,11.0583627 90.0495167,10.4724631 89.9920439,10.0015853 C91.4829141,10.3361836 93.0073101,10.7275537 94.5404295,11.1939794 C96.6612762,11.8389618 98.7131897,12.5975047 100.705407,13.4416896 C100.881588,14.0420668 101.057427,14.7377716 101.19632,15.5304353 C97.8714536,13.9950147 94.1793434,12.702722 90.0804767,11.7292416" id="path230" fill="#861810"></path>
                        <path d="M90.1128051,11.7044156 C90.122897,11.1570718 90.0946738,10.5981732 90.0289907,10.0421973 C91.6050437,10.3971865 93.1195187,10.7946569 94.5310218,11.224175 C96.5485544,11.8377554 98.6170598,12.5917443 100.679065,13.4648503 C100.879365,14.1489323 101.03502,14.8075936 101.154413,15.4762124 C97.7392321,13.9039351 94.0248854,12.6352789 90.1128051,11.7044156 Z M89.9549261,9.96082045 L89.9603997,10.0053747 C90.0307012,10.5819114 90.0604639,11.1615239 90.0486614,11.7285109 L90.0481483,11.7538636 L90.0729505,11.759777 C94.0113725,12.6952113 97.749153,13.9735702 101.182978,15.5591696 L101.238056,15.5844713 L101.227793,15.5247938 C101.105663,14.8288341 100.944706,14.1443613 100.735854,13.4328705 L100.731578,13.4184609 L100.717723,13.4126835 C98.6490461,12.536043 96.5738697,11.7793523 94.5496662,11.1636989 C93.1236239,10.7298647 91.592557,10.3283501 89.999057,9.97065908 L89.9549261,9.96082045 Z" id="path232" fill="#861810"></path>
                        <path d="M104.950179,17.4449575 C104.9536,16.7863472 104.915969,16.0935821 104.848233,15.3790326 C107.855118,16.9362206 110.69044,18.7319656 113.326831,20.7646023 C115.045026,22.0910328 116.681973,23.5189083 118.235105,25.04517 C118.148212,26.0300524 118.032411,26.9787408 117.88565,27.8840984 C114.501943,24.0585885 110.263842,20.4339292 104.950179,17.4449575" id="path234" fill="#861810"></path>
                        <path d="M104.981994,17.4266057 C104.98456,16.8230509 104.95189,16.1530556 104.885351,15.4339182 C107.882486,16.9899337 110.715926,18.7916091 113.307331,20.7895812 C115.011842,22.1054764 116.658539,23.5409985 118.202092,25.0570647 C118.116567,26.0217261 118.003333,26.9481544 117.864782,27.8129001 C114.181738,23.6601155 109.847677,20.1659583 104.981994,17.4266057 Z M104.811116,15.32413 L104.816418,15.3820743 C104.887404,16.1282297 104.921614,16.8223882 104.918364,17.4447876 L104.918193,17.4634793 L104.934443,17.4724853 C109.820309,20.220674 114.169764,23.7306342 117.861703,27.9049991 L117.906347,27.9552968 L117.916952,27.8890262 C118.061147,26.9998114 118.17883,26.0438162 118.266749,25.0478888 L118.267947,25.0331054 L118.257341,25.02274 C116.708999,23.5010662 115.056657,22.0599367 113.34633,20.7397933 C110.736965,18.7278874 107.882657,16.9149801 104.862944,15.3510121 L104.811116,15.32413 Z" id="path236" fill="#861810"></path>
                        <path d="M127.652253,43.9565759 C126.132646,40.115093 123.945603,35.7908547 120.831641,31.5429125 C121.206753,30.249957 121.4115,29.2083199 121.514985,28.5920038 C124.720459,32.3356102 127.509597,36.5449796 129.824756,41.2213014 C129.837927,41.2462803 130.343037,42.2962437 131.000895,44.0442569 C130.850371,44.2677076 130.671795,44.5288815 130.433865,44.8559862 C130.435917,44.8568358 129.071795,44.2889482 127.652253,43.9565759" id="path238" fill="#861810"></path>
                        <path d="M125.32837,79.9642542 C125.657127,80.1933124 126.021977,80.3941632 126.402905,80.5824395 C126.329866,80.6582258 126.249131,80.729764 126.175408,80.8050406 C126.005214,80.6832047 125.851269,80.5749628 125.72435,80.4816743 C125.618128,80.3911045 125.482486,80.2092853 125.32837,79.9642542" id="path240" fill="#861810"></path>
                        <path d="M119.222233,68.1652077 C119.259351,68.2076888 120.164205,69.1912117 120.932903,69.8209519 C121.202648,70.0406642 121.618299,70.6719337 121.703653,71.7470459 C120.983191,70.5478888 120.008721,69.235562 118.808122,68.0933296 C118.890568,68.0561161 118.973869,68.0236606 119.056144,67.9857674 L119.222233,68.1652077" id="path242" fill="#861810"></path>
                        <path d="M107.492321,81.9110791 C107.492321,81.9110791 108.304808,84.5756649 114.596875,84.2708204 C114.596875,84.2708204 119.599227,84.7139835 120.839338,86.2538391 C119.60624,83.6031871 119.183063,80.4612833 117.464012,79.7083479 C117.464012,79.7083479 117.175794,81.3814244 113.362409,80.0424195 C113.362409,80.0424195 109.239082,77.1579513 107.649858,80.3306114 C107.649858,80.3306114 107.233181,81.407253 107.492321,81.9110791" id="path244" fill="#289EE0"></path>
                        <path d="M116.424543,61.4348386 C116.424543,61.4348386 116.907074,66.211246 122.238526,66.6768391 C122.238526,66.6768391 127.445453,67.0719135 127.187339,60.6769754 C127.187339,60.6769754 126.83549,59.0365244 125.871111,57.6079693 C125.871111,57.6079693 127.95005,61.7323764 125.151162,65.0695234 L124.757919,63.9566879 C124.757919,63.9566879 124.305321,65.2080118 122.631769,65.6810816 L122.518877,64.2905895 C122.518877,64.2905895 122.060805,64.9255973 121.326146,65.1164225 C121.326146,65.1164225 118.222276,65.0301009 116.424543,61.4348386" id="path246" fill="#289EE0"></path>
                        <path d="M126.12512,54.2980102 C126.12512,54.2980102 128.27915,59.6717021 134.800595,59.1393287 C134.800595,59.1393287 139.098735,58.7797685 138.164803,53.8764275 C138.164803,53.8764275 137.365658,50.3975635 133.49959,48.0930476 C133.49959,48.0930476 136.850969,50.7761553 135.507886,55.6698106 L134.611585,53.945247 C134.611585,53.945247 134.819411,55.7031158 133.883597,57.0604726 L133.044769,55.6698106 C133.044769,55.6698106 132.820694,56.9493419 131.86863,57.5048251 C131.86863,57.5048251 128.734485,57.6169753 126.12512,54.2980102" id="path248" fill="#289EE0"></path>
                        <path d="M106.506219,60.6293965 C106.506219,60.6293965 110.257684,64.7908472 107.458967,70.1864594 L106.22775,68.6844969 L105.722811,70.5200212 C105.722811,70.5200212 102.196961,70.5200212 100.958561,66.5752242 C100.958561,66.5752242 101.108229,71.5976823 106.906134,71.5744026 C106.906134,71.5744026 109.474276,71.4435608 109.922426,68.4844958 C109.922426,68.4844958 110.978659,63.4788603 106.506219,60.6293965" id="path250" fill="#289EE0"></path>
                        <path d="M104.857128,69.3679332 C104.857128,69.3679332 101.469144,67.9674156 100.928114,64.8401253 C100.928114,64.8401253 102.004188,66.3512638 103.69416,66.5132018 C103.69416,66.5132018 103.973143,68.5845813 104.857128,69.3679332" id="path252" fill="#289EE0"></path>
                        <path d="M105.289029,68.675321 C105.289029,68.675321 104.328584,66.865965 104.362281,66.3028353 C104.362281,66.3028353 105.108571,65.6707162 105.173057,64.924068 C105.173057,64.924068 105.68672,65.2640869 106.014451,65.9522811 C106.014451,65.9522811 106.750649,63.1684082 106.500575,61.2924419 C106.500575,61.2924419 107.584346,65.3351153 106.78828,68.1084529 L105.876756,66.7509262 L105.289029,68.675321" id="path254" fill="#289EE0"></path>
                        <path d="M126.337051,87.8805263 C126.023516,88.1005785 125.700403,88.2045723 125.376777,88.2394068 C122.941712,87.705674 121.80423,84.3715856 120.568567,80.9338433 C119.054947,76.7254935 114.365274,74.9222549 112.549922,74.6208088 C110.734742,74.3208921 109.977162,73.1186764 110.279065,72.0661641 C110.484325,71.3562196 110.343038,70.5099956 110.230316,70.0345469 C110.221079,70.0537484 110.207395,70.0695514 110.198158,70.0889228 C110.980027,68.4980897 110.771346,66.2844834 110.771346,66.2844834 C118.134528,65.1284872 122.078423,74.4116318 122.167369,75.2299881 C122.255802,76.0491941 124.12589,80.615065 125.151675,81.3637523 C126.179,82.1132892 127.217957,81.9686835 128.079535,83.8150829 C128.530251,85.1435526 128.440963,86.4032028 126.337051,87.8805263" id="path256" fill="#289EE0"></path>
                        <path d="M110.279065,72.0661641 C109.977162,73.1186764 110.734742,74.3208921 112.549922,74.6208088 C114.365274,74.9222549 119.054947,76.7254935 120.568567,80.9338433 C121.80423,84.3715856 122.941712,87.705674 125.376777,88.2394068 C122.466193,88.1145123 121.684325,86.0534982 121.684325,86.0534982 C120.744748,84.9401529 120.540685,78.306301 112.779642,76.7285521 C108.209191,75.538401 107.992813,71.6653122 107.992813,71.6653122 C108.251783,71.645601 109.614023,71.0834908 110.198158,70.0889228 C110.208935,70.0709108 110.221079,70.0537484 110.230316,70.0345469 C110.343038,70.5099956 110.484325,71.3562196 110.279065,72.0661641" id="path258" fill="#7DD5F7"></path>
                        <path d="M130.318064,70.1913872 C129.975109,71.510511 130.228092,73.3898758 130.474061,76.6468185 C130.721912,79.9034212 127.651226,79.6089421 127.651226,79.6089421 C126.240921,79.0446229 125.261489,78.1790276 124.580027,77.2226926 C124.3149,75.5545439 124.80376,73.4955689 124.80376,71.6150146 C124.80376,69.3810174 123.97605,68.1764227 123.437072,67.6306252 C123.436559,67.6282463 123.43348,67.6275666 123.432454,67.6253576 C128.550093,67.2355508 127.614279,60.4317744 127.614279,60.4317744 C131.593753,62.1434237 130.662558,68.8727732 130.318064,70.1913872" id="path260" fill="#289EE0"></path>
                        <path d="M124.80376,71.6150146 C124.80376,73.4955689 124.3149,75.5545439 124.580027,77.2226926 C123.329824,75.4682222 123.095143,73.4032999 123.136366,72.2955622 C123.202392,70.585782 122.607309,69.3359874 121.900189,68.756375 C121.19153,68.175743 120.315584,67.2226365 120.315584,67.2226365 C121.549537,67.5815171 122.573955,67.6906086 123.432454,67.6253576 C123.43348,67.6275666 123.436559,67.6282463 123.437072,67.6306252 C123.97605,68.1764227 124.80376,69.3810174 124.80376,71.6150146" id="path262" fill="#7DD5F7"></path>
                        <path d="M139.120458,66.06732 C138.100317,67.9592592 136.931363,73.3857977 136.931363,73.3857977 C136.209019,75.5581123 134.768609,75.1975325 133.441091,74.8568339 C132.114087,74.5159654 131.720672,74.6417095 131.720672,74.6417095 C130.791017,73.3349902 131.984431,70.1099934 132.223901,67.2816003 C132.392385,65.2807395 132.126231,64.0678185 131.744619,63.3252485 C132.173441,62.217001 132.851312,60.767885 133.810388,60.2545431 L133.825611,60.2402695 C138.180198,60.5067111 138.774082,56.7094086 138.774082,56.7094086 C141.321356,60.0139301 140.140257,64.174701 139.120458,66.06732" id="path264" fill="#289EE0"></path>
                        <path d="M131.744619,63.3252485 C131.156721,62.1821665 130.290696,62.1616056 130.290696,62.1616056 C130.130593,60.4120631 130.989263,59.6300706 130.989263,59.6300706 C132.085008,60.0154594 133.013296,60.1909914 133.825611,60.2402695 L133.810388,60.2545431 C132.851312,60.767885 132.173441,62.217001 131.744619,63.3252485" id="path266" fill="#7DD5F7"></path>
                        <path d="M125.707929,53.0254457 C125.707929,53.0254457 127.332218,55.5729536 131.309298,56.5041398 C131.309298,56.5041398 132.531277,56.2755914 132.912719,54.0648738 C132.912719,54.0648738 133.580155,54.6218863 133.670298,55.2057468 C133.670298,55.2057468 134.186355,53.3335188 134.06491,52.5537353 C134.06491,52.5537353 134.681716,53.0390397 135.090525,53.9936754 C135.090525,53.9936754 135.328455,51.5053013 133.251055,48.4300079 C133.251055,48.4300079 133.777888,50.1652768 133.546116,51.1365651 L132.7338,50.6830367 C132.7338,50.6830367 133.157662,52.6522915 132.656657,53.7053136 L131.732988,52.7884011 C131.732988,52.7884011 131.810816,53.8135555 131.176734,54.9073594 C131.176734,54.9073594 128.511949,55.5909656 125.707929,53.0254457" id="path268" fill="#289EE0"></path>
                        <path d="M116.745945,60.5468132 C116.745945,60.5468132 117.711864,63.4304318 121.328541,64.2374032 C121.328541,64.2374032 122.549494,63.4334904 122.852766,62.7893067 C122.852766,62.7893067 123.148511,63.6613592 123.070683,64.4713892 C123.070683,64.4713892 124.705235,63.4849775 124.959586,62.3894744 C124.959586,62.3894744 125.27466,63.1388414 125.282871,63.4562603 C125.282871,63.4562603 126.166856,62.0261758 125.919347,59.7707681 C125.919347,59.7707681 125.616076,60.7943932 125.171004,61.1616 L124.854049,60.4120631 C124.854049,60.4120631 124.444384,62.0487758 123.399954,62.5665357 L123.363349,61.6740923 C123.363349,61.6740923 122.231513,63.0625453 121.3855,63.1723165 C121.3855,63.1723165 119.039894,63.8467468 116.745945,60.5468132" id="path270" fill="#289EE0"></path>
                        <path d="M77.9453476,11.7942887 C77.5544988,12.2893297 76.9457325,12.7558913 76.1361538,12.4248614 C75.6543064,12.1871711 68.4994638,8.72820522 55.5248222,4.85120814 C55.527388,4.85120814 55.5297827,4.85047747 55.5314932,4.84967882 C64.348769,5.94144365 74.691296,10.3361836 77.9453476,11.7942887" id="path272" fill="#FFFFFF"></path>
                        <path d="M75.577163,8.78954796 L75.762752,8.83726276 C75.762752,8.83726276 75.9425254,8.83641313 75.9444069,8.83561449 C75.9533015,8.83726276 76.9072463,8.85459505 77.5254203,9.49135308 C77.6692732,9.63809987 77.7898634,9.81619772 77.8856512,10.0167086 C78.0681614,10.3989198 78.1528311,10.9032386 78.1610414,11.4945249 C78.1001477,11.5914328 78.0253989,11.6937274 77.9453476,11.7942887 C74.691296,10.3361836 64.348769,5.94144365 55.5314932,4.84967882 C55.5297827,4.85047747 55.527388,4.85120814 55.5248222,4.85120814 C55.187512,4.75124157 54.8638857,4.65134296 54.5192204,4.55059473 C60.8812471,5.48636888 68.3872551,6.85001288 75.577163,8.78954796" id="path274" fill="#289EE0"></path>
                        <path d="M104.379044,64.667652 C104.21552,65.00971 104.022918,65.3510882 103.771988,65.6917868 C102.824201,65.7114981 102.126831,65.2003652 101.614195,64.4972177 C102.472009,64.6008716 103.389521,64.6606851 104.377333,64.6668023 C104.378531,64.6668023 104.378531,64.667652 104.379044,64.667652" id="path276" fill="#861810"></path>
                        <path d="M114.599612,63.1775841 C114.922554,62.9043456 115.238654,62.6144544 115.542952,62.3009437 C115.552189,62.3395166 115.568952,62.3780894 115.58007,62.4175119 C115.919262,63.7582161 116.56104,65.2035938 117.739232,66.5441281 C117.544577,66.6153264 117.348041,66.6843158 117.149965,66.7524555 C115.654819,65.7417446 114.073634,65.1808239 112.427451,65.0763204 C113.479236,64.2926286 114.340814,63.4819189 114.599612,63.1775841" id="path278" fill="#231F20"></path>
                        <path d="M115.542952,62.3009437 C115.238654,62.6144544 114.922554,62.9043456 114.599612,63.1775841 C114.599612,63.1775841 114.600125,63.1752052 114.601494,63.1752052 C113.187083,63.5554962 111.860592,63.8491257 110.603033,64.0769944 C110.715926,64.4102164 110.808806,64.7529541 110.867305,65.1087759 C110.603547,63.526609 109.76831,62.1706116 108.736025,61.0441822 C108.736538,61.0441822 108.738077,61.0441822 108.739617,61.0441822 C110.827793,61.0676318 113.030059,60.9201373 115.268588,60.5089201 C115.269101,60.5082404 115.269101,60.5082404 115.27047,60.5082404 C115.311351,61.098728 115.410388,61.7459703 115.58007,62.4175119 C115.568952,62.3780894 115.552189,62.3395166 115.542952,62.3009437" id="path280" fill="#ED192D"></path>
                        <path d="M114.601494,63.1752052 C114.600125,63.1752052 114.599612,63.1769044 114.599612,63.1769044 C114.441562,63.3631417 114.0437,63.7454718 113.529525,64.1874454 C113.206925,64.4608539 112.840536,64.7560127 112.398543,65.0756407 C111.892578,65.0445445 111.383534,65.0528708 110.867305,65.1087759 C110.808806,64.7529541 110.715926,64.4102164 110.603033,64.0769944 C111.860592,63.8491257 113.187083,63.5554962 114.601494,63.1752052" id="path282" fill="#861810"></path>
                        <path d="M107.475559,105.321745 C107.430401,105.420642 107.396876,105.475187 107.396876,105.475187 C105.883427,107.016063 101.31195,104.968982 101.31195,104.968982 C97.9085714,103.090637 95.1329461,100.694532 93.2486613,98.8265519 C92.8198395,96.116936 92.1720738,94.3116583 92.1517189,94.2545637 L92.0933909,94.1001023 C98.6273227,101.325971 104.777419,102.663447 104.777419,102.663447 C105.024757,101.363864 104.239809,97.9929024 104.239809,97.9929024 C106.715071,100.619425 107.334442,104.18614 107.474532,105.321745 C107.474532,105.321745 107.474532,105.321745 107.475559,105.321745" id="path284" fill="#ED192D"></path>
                        <path d="M107.475559,105.321745 C107.474532,105.321745 107.474532,105.321745 107.474532,105.321745 C107.334442,104.18614 106.715071,100.619425 104.239809,97.9929024 C108.50887,102.112552 107.758133,104.694894 107.475559,105.321745" id="path286" fill="#861810"></path>
                        <path d="M129.870427,52.5659699 L130.189948,53.5484733 C130.189948,53.5484733 130.605085,52.8981723 130.541113,51.8361442 L129.870427,52.5659699" id="path288" fill="#861810"></path>
                        <path d="M92.2564014,62.2509859 C92.1014302,62.068487 91.9608273,61.8846287 91.8144087,61.7019599 C82.4271949,49.9812485 89.2866345,37.2906082 76.6104749,14.5683059 C77.7677979,14.5939985 78.7037825,13.9699848 79.350864,13.260754 C85.2286487,20.2505807 88.8735492,36.0839744 89.0262967,47.7713806 C89.0801774,51.8444705 89.6653388,55.0898583 90.4244579,57.6516398 C90.9923432,59.5709369 91.6553323,61.1169099 92.2808615,62.2805528 C92.2731643,62.2706972 92.2639276,62.2606716 92.2564014,62.2509859" id="path290" fill="#FFFFFF"></path>
                        <path d="M106.76536,59.2876728 C104.796063,57.8275117 102.876029,57.0665898 102.876029,57.0665898 C102.876029,57.0665898 103.720673,58.0212256 104.331492,59.4543687 C100.794182,59.6822375 95.2138527,58.5330382 94.366814,58.315025 C94.366814,58.315025 100.544791,60.7157182 104.776393,60.7974519 C105.042546,61.9670421 105.030744,63.308426 104.379044,64.667652 C104.378531,64.667652 104.378531,64.6668023 104.377333,64.6668023 C103.389521,64.6606851 102.472009,64.6008716 101.614195,64.4972177 C100.51691,62.9935559 100.270427,60.6042477 100.265296,60.5974507 C100.265296,60.5974507 99.9243935,62.3804684 99.7075023,64.181498 C92.0008529,62.4819133 90.3428671,56.9362578 90.3428671,56.9362578 C90.3199464,57.0341343 90.3507354,57.2937789 90.4244579,57.6516398 C90.7058348,58.6033869 91.0111587,59.4611657 91.3236667,60.2273552 C90.1632648,57.4178238 89.1007034,53.3593473 89.0262967,47.7713806 C89.0213362,47.4201467 89.0131258,47.0651744 89.0023497,46.7069736 C99.3807972,49.449045 106.477825,47.9946614 111.330166,44.9445168 C111.529781,45.4826677 113.623089,51.2205078 114.782465,57.2368542 C114.782465,57.2405925 114.784004,57.2453504 114.784517,57.2482391 C112.310795,58.6095042 107.494545,59.206109 106.76536,59.2876728" id="path292" fill="#ED192D"></path>
                        <path d="M90.3428671,56.9362578 C90.3428671,56.9362578 92.0008529,62.4819133 99.7075023,64.181498 C99.5982015,65.1012993 99.5200317,66.0256885 99.5383341,66.7206796 C99.5453471,67.0022445 99.5951226,67.3300288 99.6661083,67.6731064 C98.8460955,67.4557729 98.0187275,67.1939193 97.1460314,66.8788793 C95.1728007,65.3488792 93.5921294,63.8241468 92.2844535,62.2865001 C92.1228115,61.9859037 91.9580905,61.6520021 91.7923432,61.3031471 C91.6544771,61.0071387 91.5160978,60.68904 91.3785737,60.3575174 C91.3607845,60.3135069 91.3411138,60.272725 91.3236667,60.2273552 C91.0111587,59.4611657 90.7058348,58.6033869 90.4244579,57.6516398 C90.3507354,57.2937789 90.3199464,57.0341343 90.3428671,56.9362578" id="path294" fill="#861810"></path>
                        <path d="M97.1615969,66.8508418 C95.2761148,65.3886416 93.6887725,63.888888 92.3087426,62.2661092 C92.1676265,62.0023864 92.011458,61.6902351 91.8210796,61.2897231 C91.6900554,61.0081582 91.5549261,60.6994054 91.4079943,60.3454527 C91.400126,60.3264212 91.3919156,60.3073896 91.3837052,60.288528 C91.3734422,60.2647386 91.3630082,60.241289 91.3534294,60.2159703 C91.0214217,59.402032 90.7191767,58.5364366 90.4549047,57.6428038 C90.4099186,57.4236012 90.3813533,57.2416121 90.3712614,57.1136589 C90.5281141,57.5321829 91.0209086,58.677304 92.111009,59.9422219 C93.3683962,61.4011936 95.6998052,63.3233794 99.6726082,64.2061371 C99.5465444,65.2737726 99.4907822,66.1198266 99.5065188,66.7213593 C99.5126766,66.9684295 99.5515049,67.2657974 99.6247142,67.6294358 C98.8332667,67.4178798 98.0269379,67.162993 97.1615969,66.8508418 Z M90.339104,56.8128926 L90.3119071,56.9291209 C90.2818023,57.0580936 90.3394461,57.3967531 90.3931557,57.658097 C90.6587961,58.5563178 90.9617253,59.4237823 91.2942462,60.23908 C91.303996,60.2645687 91.3147721,60.2892077 91.3253772,60.3135069 C91.3334166,60.3320287 91.3412849,60.3503805 91.3489821,60.3694121 C91.496427,60.7242144 91.6318985,61.0339867 91.7634358,61.3164012 C91.9543274,61.7182727 92.111009,62.0311036 92.2564014,62.3014535 C93.6439575,63.934088 95.2359181,65.4379197 97.1263606,66.9038582 L97.1350842,66.9086161 C98.0221485,67.2287538 98.8472928,67.4887383 99.6578979,67.7036928 L99.7076734,67.7167769 L99.6972393,67.6668191 C99.6180433,67.2839793 99.5764782,66.9742069 99.5701493,66.71983 C99.5542417,66.1159184 99.6110302,65.2632373 99.7391465,64.1852363 L99.7423965,64.156859 L99.7145154,64.1507417 C95.7420545,63.274611 93.4133823,61.3561636 92.1594161,59.9011002 C90.8016227,58.3255604 90.3774192,56.9411856 90.373314,56.9274217 L90.339104,56.8128926 Z" id="path296" fill="#861810"></path>
                        <polyline id="path298" fill="#231F20" points="127.511136 93.9577056 126.775964 93.9577056 126.775964 96.2984154 125.712034 96.2984154 125.712034 96.801052 128.575066 96.801052 128.575066 96.2984154 127.511136 96.2984154 127.511136 93.9577056"></polyline>
                        <polyline id="path300" fill="#231F20" points="132.699248 93.9577056 132.013339 93.9577056 132.013339 96.3339296 132.002733 96.3339296 131.346929 93.9577056 130.625954 93.9577056 129.983319 96.3339296 129.974083 96.3339296 129.974083 93.9577056 129.286805 93.9577056 129.286805 96.801052 130.360655 96.801052 130.998329 94.559918 131.008421 94.559918 131.635318 96.801052 132.699248 96.801052 132.699248 93.9577056"></polyline>
                    </g>
                </g>
            </g>
        </g>
    </g>
</svg>