<svg width="200" height="200" xmlns="http://www.w3.org/2000/svg"><g fill="none"><path d="M112.224 36.174c.003-.003.006-.004.008-.008.167-.157.323-.34.492-.492a6.55 6.55 0 0 0-.5.5" fill="#231F20"/><path d="M5.997 139.24c1.127 1.098 9.35 8.842 18.538 10.31 2.08.331 4.707.444 7.36.44a10.44 10.44 0 0 0 2.08 3.945c4.39 5.18 11.862 7.922 22.847 8.387 5.5.23 11.079.317 14.68.349.955 1.104 2.2 2.228 3.91 3.29 5.092 3.163 13.665 2.184 25.846-.42 8.651-1.85 15.272-4.28 19.802-7.24 8.33 2.886 24.405 8.128 31.978 8.398 13.685.492 21.115-4.23 23.318-8.426.514-.98.76-2.015.84-3.044l7.106 2.246c.027-.031 2.015.314 2.042.316 1.723.148 7.058.916 10.71-3.93 1.587-2.105 3.137-5.238 2.389-10.843.01.066-.017-.064 0 0v.083c-1.743-14.591-13.247-21.03-22.126-26.32-.665-.397-1.288-.775-1.928-1.162.303-1.227.518-2.565.518-4 0-.925-.122-1.893-.316-2.877 1.273-1.665 2.436-3.934 3.174-7.303-.02.073-.033.15-.054.223.03-.105.054-.213.08-.32.945-3.455 1.415-7.156 1.415-10.99 0-20.555-13.266-44.796-36.318-53.722-8.032-3.816-21.695-5.263-31.656-.46a30.203 30.203 0 0 0-8.035 4.857 6.618 6.618 0 0 0-1.497-2.476c-1.693-1.74-4.19-2.466-6.547-1.856-4.527 1.17-6.809 3.127-9.695 5.603l-1.522 1.294c-.34.29-.687.643-.963.994-3.1 3.943-5.019 7.222-6.203 10.251a6.76 6.76 0 0 0-2.026.333c-6.092 2.055-9.736 7.997-10.018 16.306-.004.06-.005.12-.007.179-5.392 1.376-10.083 3.903-13.214 7.312a6.671 6.671 0 0 0-1.415 6.63c.172.515.409.935.637 1.367-3.512 3.926-4.939 7.79-4.939 11.266 0 .738.087 1.45.206 2.151-3.476 1.488-7.76 3.167-13.377 5.346-9.545 3.706-13.213 10.766-13.453 15.684a9.998 9.998 0 0 0 .354 3.215c-.431.226-.863.45-1.291.668-3.902 1.982-5.932 2.474-6.68 2.597-2.347-.73-5.007-.183-6.843 1.682a6.652 6.652 0 0 0-1.923 4.683c0 1.727.67 3.454 2.004 4.764.012.012.077.057.056.055l.156.165" fill="#231F20"/><path d="M196.121 142.853c.003.026-.504-2.747-.498-2.72l-.913-2.803c-3.273-9.085-10.43-13.871-18.635-18.76a208.517 208.517 0 0 1-4.656-2.848c.724-1.654 1.323-3.567 1.323-5.665 0-.93-.115-1.89-.382-2.87a2.75 2.75 0 0 0-.379-.82c-.04-.06-.045-.074-.079-.127 1.148-1.064 2.873-2.985 3.803-7.297.011-.041.022-.081.03-.123-.004.023-.01.04-.016.063.904-3.233 1.348-6.705 1.348-10.302 0-19.089-12.405-41.645-33.938-49.916-7.125-3.457-19.355-4.817-28.252-.583-6.81 2.675-11.5 7.765-14.422 13.225-.008-.31-.035-.627-.035-.932 0-3.655.55-6.876.89-7.976a2.745 2.745 0 0 0-.65-2.718 2.793 2.793 0 0 0-2.707-.762c-3.632.94-5.409 2.464-8.1 4.772L88.3 45.013c-.14.12-.283.265-.397.41-4.327 5.5-6.111 9.477-6.764 13.234-.117-.221-.23-.447-.409-.633a2.792 2.792 0 0 0-2.907-.712c-4.517 1.524-7.118 6.053-7.334 12.752-.004.082-.009.164-.009.246 0 .96.34 1.91.706 2.843-6.204.828-11.649 3.291-14.946 6.88a2.745 2.745 0 0 0-.583 2.73c.465 1.387 1.353 2.213 2.393 2.728-4.991 4.28-6.506 8.084-6.506 11.101 0 1.744.513 3.187 1.126 4.35-4.067 1.901-9.286 3.95-16.807 6.867-7.278 2.825-10.735 8.165-10.933 12.206a7.198 7.198 0 0 0-.01.348c0 1.85.762 3.335 2.046 4.13-1.7.935-3.43 1.857-5.129 2.72-7.005 3.558-9.2 3.05-9.221 3.045l-.013-.005c-1.12-.414-2.327-.271-3.23.83-.464.566-.719 1.223-.719 1.863 0 .606.228 1.197.723 1.683l.024.023c.48.47 8.413 8.115 16.566 9.418 2.816.45 6.896.444 10.49.31-.125.48-.193.963-.193 1.444 0 1.4.53 2.778 1.553 3.988 3.63 4.284 10.165 6.568 19.976 6.984 6.519.274 13.327.343 16.528.36.677 1.164 1.86 2.549 3.997 3.875 3.373 2.095 10.01 1.825 22.906-.93 11.156-2.387 16.956-5.373 19.998-7.789 6.436 2.265 25.008 8.583 32.759 8.86 11.02.396 17.914-2.993 19.656-6.31.682-1.3.612-2.708-.19-3.763-.4-.526-1.577-1.679-3.917-1.24-.7-.034-2.127-1.071-3.748-2.6 4.094.49 7.974.957 8.241.989.48.15 12.284 3.883 12.284 3.883.017.037.023.026.1.037.012.001 5.235 2.093 7.805-1.319 1.043-1.382 2.326-2.885 1.91-7.996" fill="#FDDF12"/><path d="M114.76 38.13c.094-.063.196-.1.29-.16.076-.04.137-.1.21-.142a6.74 6.74 0 0 0-.5.301" fill="#FDDF12"/><path d="M193.05 143.1c.93 9.94-5.9 6.403-5.9 6.403l-12.534-3.963-15.73-1.889s7.235 9.713 11.115 8.921c3.884-.788-.61 6.393-15.922 5.842-8.34-.297-31.586-8.573-33.463-9.245-1.877 1.907-6.93 5.442-19.979 8.233-6.906 1.477-17.323 3.479-20.847 1.29-3.525-2.188-3.584-4.29-3.584-4.29s-9.391.012-18.296-.362c-8.908-.377-14.895-2.378-17.967-6.003-2.287-2.704.084-5.563 3.69-6.87-5.154.458-13.046.846-17.226.179-7.448-1.19-15.078-8.679-15.078-8.679s2.032 1.95 11.773-3c9.74-4.949 20.416-11.725 20.416-11.725s-9.368.711-13.232 3.812c-3.865 3.1-4.653-7.013 6.588-11.376 10.604-4.114 16.381-6.403 21.08-9.022.014-.027.025-.052.038-.08-.646.028-1.494.172-1.955-.2-3.764-4.541-.853-9.58 4.048-13.698 1.724-1.443 3.707-2.626 5.876-3.692-2.431-.52-6.836.689-7.67-1.794 3.174-3.455 9.226-6.013 16.268-6.276.596-1.135-1.406-4.066-1.297-5.412.123-4.132 1.384-8.908 5.454-10.28-.686 1.713 3.527 6.796 5.094 7.647-.507-7.308-.799-11.45 6.282-20.451 3.763-3.158 5.008-4.613 8.562-5.532-.59 1.904-2.46 12.69 1.156 19.683 1.318-6.976 6.05-16.73 16.165-20.661 8.147-3.934 19.788-2.508 26.066.593 24.66 9.415 36.232 38.51 30.973 57.054-1.707 8.135-6.19 5.453-3.337 9.652.808 2.956-.19 5.89-1.836 8.8 9.206 6.24 19.478 10.234 23.963 21.61.913 2.803.996 2.804 1.245 4.782" fill="#231F20"/><path d="M121.346 92.574c-8.163 1.424-8.24 7.356-8.172 9.77-.389 4.1 2.268 13.808 7.693 18.495-12.639-2.664-22.795-7.524-41.308-2.192-5.48 3.178-1.823 9.239.466 12.58 5.264 7.022 16.672 11.272 28.645 14.707-13.776-1.798-24.307-6.866-31.254-13.864-1.16-1.035-1.882-3.275-3.762-3.924-1.49.145-4.92 1.158-6.422.75-1.004-1.78 6.591-3.562 2.038-5.413-3.853 1.18-8.664 1.014-12.272-.235-1.477-2.478 5.092-3.573 6.226-3.853 4.125-1.156 10.19-1.297 14.3-2.214.582-.671-2.339-2.36-3.025-2.698-3.208-.694 3.163-.528 3.912-.6 2.084-.266 1.01-.407 1.804-2.235-.744-.722 3.808.74 4.129.594.837.386 2.056 1.012 3.277.842.265-1.324-1.347-1.602-2.017-2.975 3.809 1.13 7.49 1.983 10.566 3.737-.318-2.235-2.747-6.824-3.606-9.109-2.69-8.18-5.33-16.897 7.036-20.91 9.827-3.114 16.518 4.732 21.746 8.747" fill="#1266AC"/><path d="M124.878 95.267c5.816 5.482 11.46 11.158 17.512 16.592-6.231.288-4.003 7.272-1.736 10.3 1.575 2.47 4.682 1.558 6.601 1.483 1.214 2.137-3.195 3.587-6.015 4.479-4.662-2.067-11.313-3.414-14.718-6.37-8.286-6.804-11.848-17.268-7.791-25.47.892-1.372 4.554-2.672 6.147-1.014" fill="#FFF"/><path d="M122.931 123.99c6.612 3.206 21.216 7.193 28.6 10.294 1.566-1.59-10.882-3.865-6.688-4.877 8.252-1.933 6.774-7.763 7.114-11.323 3.122.791 6.96 1.44 9.898-.268.4-.242.583-.673 1.245-.65 13.4 6.873 28.266 17.744 25.574 29.798-24.278-8.792-45.183-3.291-62.964-10.923-.722-.409-.754-1.275-1.19-1.9 3.208-.89 6.868-.604 10.374-1.16 1.293-.818-.828-.623-1.324-.84-7.186-.046-14.753-.33-22.005 1.621-.533.503-.146 1.299.422 1.66 3.41.575 5.224-1.301 8.777-1.23 3.126 7.333 10.474 10.33 18.306 14.609 6.612 2.86 16.603 6.378 24.784 6.853-1.816 1.876-5.792.94-8.61 1.039-14.37-2.473-29.116-6.771-42.378-11.771-2.497-.843-4.361-2.523-6.682-3.006-.76.314.035.87-.523 1.061-11.903-4.086-23.394-11.233-22.822-17.46-.076-1.971 1.739-3.467 3.496-4.142 13.282-3.734 23.744-.48 36.596 2.615" fill="#FDDF12"/><path d="M144.43 115.488c-.299 1.252.03 2.456.038 3.802-1.856-1.13-2.137-3.295-1.469-4.858 1.363-.675 1.607.625 1.43 1.056" fill="#FFF"/><path d="M166.575 125.584c-2.807-.939-7.817-.962-10.63-1.658-.394-.792 3.191-2.62 4.528-2.02 2.733.793 4.894 2.017 6.102 3.678" fill="#231F20"/><path d="M147.033 143.128c2.66 2.236 4.747 4.908 5.902 7.53-8.292-2.838-15.747-6.082-21.588-10.29 3.987.776 9.23 2.321 15.686 2.76" fill="#BF2033"/><path d="M156.418 55.682c-4.357-6.818-15.846-14.789-30.898-14.661-6.24.556-10.83 3.156-14.256 5.995-7 6.186-8.047 12.826-9.944 19.322-2.453.579-2.799-.815-3.273-1.635-1.522-5.484-5.126-10.67-2.61-18.401-6.134 5.295-8.948 13.69-8.714 19.753-.394 1.588 2.064 3.944-1.136 4.595-3.004-.817-7.764-3.405-8.216-6.393-3.915 4.228-.018 8.465-.04 11.882-5.748.772-12.341 2.193-15.868 5.371 2.927.119 5.924-.412 8.62.308.164 2.19-3.887 2.696-5.833 4.044-4.933 3.226-10.338 11.306-4.766 13.757.067-.305 3.437-9.22 10.144-11.603.548-.744-.523 2.174.022 3.016-3.466 3.161-5.667 6.31-7.047 9.715-1.476 1.822-4 4.004-8.244 5.611-8.76 3.318-12.978 4.857-16.172 5.762-3.195.906-4.175 1.863-6.145 3.338-1.97 1.475-2.647 4.387-2.647 4.387s4.143-3.443 13.128-3.823c3.617-.154 7.742 1.574 7.742 1.574s-3.774 1.518-8.116 4.5c-4.585 3.149-5.11 3.654-7.38 5.095-2.372 1.506-6.27 3.327-7.86 4.11-1.587.785-8.772 2.986-8.772 2.986s1.856 2.49 7.573 3.416c3.32.537 8.396.54 11.219.658 2.823.119 10.727.314 11.933.223 1.204-.092-.553 2.32-3.1 4.211-2.768 2.057-2.392 5.663 2.878 6.92 5.272 1.255 8.65 1.817 14.673 1.358 6.027-.457 13.678-.376 13.678-.376s-.715 4.33 4.154 5.615c4.87 1.29 14.079-.224 20.879-1.735 6-1.334 11.965-5.169 13.286-6.053.306.015.484-.019.273-.186l-6.062-.443-6.671-.861c-12.941-2.495-24.208-8.299-31.008-15.108-1.484-1.513-5.24-.07-7.65-.678-.412-.388-.67-.754-.678-1.068-.049-1.656 2.295-4.153 2.295-4.153s-2.695.2-6.447-.175c-4.032-.403-4.888-1.947-4.536-3.63.286-1.357 1.152-1.918 3.318-3.334.087.33-.167-.324 0 0 4.491-2.175 9.165-2.067 13.106-3.584-.425-.072-.768-.24-1.193-.312-.353-.721.238-1.636 1.165-2.142 1.684-.818 3.993-.892 5.862-.795-.541-.842-1.794-1.54-.847-2.526 1.863-.458 3.587.142 5.339.261-.779-.793-1.203-1.659-.147-2.43 3.41-.218 6.841 1.467 9.231 2.884-2.355-6.663-6.306-13.747-4.645-20.195 1.57-3.97 2.783-9.307 15.094-11.273 6.16-.46 13.47 1.995 19.626 6.71 9.394 8.006 16.432 16.246 24.667 24.807 2.941 2.02 5.28 4.4 9.908 5.6 1.787.192 3.836.648 5.448-.313 2.255-2.046 1.562-4.524 2.302-6.739.884-2.717-4.035-.527-5.822-2.306-2.13-.359-4.592-6.446-4.78-2.042-2.107.746-1.499-1.203-2.578-1.54-.366.314-1.315.507-1.762.122-3.238-7.671-9.798-13.876-15.22-20.153-.484-.455-2.177-.986-1.44-1.61 15.03 4.083 19.231 14.257 27.707 21.975 1.145 1.274 3.523 2.139 6.117 1.058 2.078-1.613 4.094-3.613 4.398-5.657 1.307-14.073-.42-30.624-13.262-43.006" fill="#2D9EDF"/><path d="M167.022 110.29c-.407.973-.306 1.98-.48 3.069-1.344-1.117-1.28-2.892-.53-4.08 1.188-.393 1.211.68 1.01 1.01" fill="#FFF"/><path d="M2.727 143.368h.34c.398 0 .72-.132.72-.452 0-.281-.208-.47-.663-.47-.189 0-.322.02-.397.038v.884zm-.019 1.73h-.72v-3.084c.284-.038.682-.094 1.193-.094.587 0 .852.094 1.06.244.19.132.323.358.323.658 0 .376-.285.62-.644.733v.038c.303.094.454.339.549.752.095.47.17.64.227.752H3.94c-.095-.113-.152-.376-.246-.752-.057-.32-.247-.47-.644-.47h-.341v1.222zm.473-4.062c-1.344 0-2.386 1.11-2.386 2.463 0 1.372 1.042 2.463 2.424 2.463 1.345.019 2.367-1.09 2.367-2.444 0-1.372-1.022-2.482-2.386-2.482h-.019zm.038-.62c1.761 0 3.163 1.354 3.163 3.083 0 1.73-1.402 3.102-3.182 3.102S0 145.229 0 143.499c0-1.729 1.42-3.083 3.2-3.083h.02z" fill="#1266AC"/></g></svg>