<svg width="200" height="200" fill="none" xmlns="http://www.w3.org/2000/svg"><path d="M59.29 28.018c-19.58 0-39.16 0-58.742-.01-.436 0-.548.1-.548.544.014 6.95.014 13.897.004 20.847 0 .335.1.52.396.67 1.548.801 3.077 1.638 4.631 2.424.394.199.513.426.513.859-.015 10.467-.011 20.933-.011 31.4 0 13.031 0 26.066.007 39.097 0 .324-.076.512-.386.671-1.587.815-3.156 1.673-4.743 2.492-.324.166-.404.368-.404.707.007 6.921.007 13.839.007 20.76 0 .66-.06.581.574.581h53.38c.13 0 .26.011.389-.004.227-.021.371.061.49.263.347.581.725 1.144 1.075 1.724 3.336 5.512 7.665 10.081 13.042 13.63 7.188 4.739 15.105 7.131 23.722 7.134 20.129.008 40.258 0 60.387.004 2.846 0 5.67-.249 8.454-.822 9.208-1.894 17.009-6.29 23.35-13.233 3.989-4.365 6.918-9.367 8.833-14.961 1.612-4.718 2.319-9.576 2.301-14.557-.022-5.781-.004-11.563-.004-17.345 0-12.728 0-25.46-.007-38.188 0-.331.058-.544.393-.71 1.057-.523 2.085-1.111 3.142-1.638.346-.173.461-.375.461-.76-.014-6.922-.01-13.84-.01-20.76 0-.56 0-.56-.549-.56-16.958 0-33.914-.004-50.872.014-.516 0-.765-.136-.996-.616-2.146-4.516-5.125-8.407-8.981-11.592-6.47-5.349-13.929-8.047-22.329-8.054-18.99-.022-37.979-.01-56.968-.01Z" fill="#FEFEFD"/><path d="M59.29 28.018c18.99 0 37.98-.01 56.973.004 8.4.007 15.858 2.705 22.329 8.053 3.855 3.185 6.834 7.077 8.98 11.592.228.48.477.617.996.617 16.959-.014 33.914-.014 50.873-.014.548 0 .548 0 .548.559 0 6.921-.004 13.839.011 20.76 0 .39-.116.588-.462.761-1.057.527-2.085 1.111-3.141 1.638-.336.165-.393.378-.393.71.007 12.728.007 25.46.007 38.188 0 5.782-.018 11.563.003 17.345.018 4.981-.689 9.835-2.301 14.557-1.915 5.594-4.844 10.596-8.833 14.96-6.344 6.943-14.145 11.34-23.35 13.233-2.784.574-5.608.823-8.454.823-20.129-.004-40.258.003-60.387-.004-8.616-.004-16.533-2.395-23.721-7.134-5.378-3.545-9.706-8.119-13.042-13.63-.35-.581-.729-1.143-1.075-1.724-.12-.202-.264-.285-.49-.263-.13.011-.26.003-.39.003H.59c-.638 0-.573.08-.573-.58 0-6.922 0-13.839-.007-20.761 0-.339.079-.537.404-.706 1.587-.816 3.155-1.674 4.742-2.493.31-.158.386-.346.386-.671-.007-13.031-.007-26.065-.007-39.096 0-10.467-.003-20.934.011-31.4 0-.433-.12-.66-.512-.859C3.48 51.7 1.95 50.863.404 50.062c-.296-.151-.397-.335-.397-.67.01-6.95.014-13.897-.004-20.847 0-.44.112-.545.549-.545 19.577.018 39.158.018 58.739.018Zm1.353 2.766H11.852c-2.886 0-5.768.004-8.653-.003-.274 0-.444.007-.444.375.011 5.565.011 11.13.004 16.692 0 .256.094.382.31.498 1.609.84 3.207 1.698 4.822 2.528.318.162.408.357.408.7-.007 24.651-.007 49.303 0 73.955 0 .336-.094.509-.393.664-1.587.819-3.16 1.666-4.747 2.485-.295.152-.404.321-.404.66.011 5.479.008 10.957.008 16.436 0 .086.007.173 0 .26-.015.184.064.267.252.256.13-.008.26 0 .39 0 17.43 0 34.866 0 52.297-.011.386 0 .595.119.783.443.483.819 1.017 1.605 1.504 2.424 2.488 4.173 5.554 7.848 9.348 10.9 7.333 5.893 15.704 8.966 25.121 8.984 20.201.04 40.403.011 60.604.014 2.37 0 4.718-.191 7.047-.605 7.809-1.396 14.622-4.808 20.425-10.2 3.722-3.463 6.662-7.513 8.844-12.108 2.582-5.432 3.859-11.166 3.866-17.168.022-19.318.011-38.635 0-57.953 0-.35.101-.537.415-.696 1.053-.53 2.085-1.107 3.142-1.641.328-.166.44-.353.44-.725-.015-5.45-.008-10.9-.011-16.35 0-.641.076-.57-.584-.57-16.71 0-33.424-.003-50.134.008-.325 0-.505-.065-.642-.397-2.618-6.366-6.824-11.415-12.667-15.054-5.053-3.149-10.578-4.783-16.54-4.786-18.676-.025-37.348-.015-56.02-.015Z" fill="#A89968"/><path d="M60.644 30.785c18.672 0 37.343-.011 56.015.007 5.962.007 11.488 1.637 16.541 4.786 5.843 3.643 10.048 8.692 12.667 15.054.137.332.317.397.642.397 16.71-.007 33.423-.007 50.133-.007.66 0 .584-.072.584.57.004 5.45-.003 10.9.011 16.349 0 .371-.112.563-.44.725-1.053.53-2.084 1.11-3.141 1.641-.318.159-.419.346-.415.696.007 19.318.022 38.635 0 57.953-.007 6.001-1.284 11.733-3.866 17.168-2.182 4.595-5.122 8.645-8.844 12.108-5.803 5.395-12.613 8.804-20.425 10.199-2.33.419-4.678.606-7.047.606-20.202-.007-40.403.022-60.604-.014-9.417-.018-17.785-3.091-25.121-8.984-3.794-3.048-6.86-6.727-9.349-10.9-.487-.815-1.024-1.601-1.504-2.424-.19-.324-.4-.443-.782-.443-17.432.011-34.867.011-52.298.011-.13 0-.26-.008-.39 0-.183.01-.263-.073-.252-.256.007-.087 0-.174 0-.26 0-5.479.004-10.957-.007-16.436 0-.339.105-.509.404-.66 1.587-.819 3.16-1.666 4.746-2.485.3-.155.393-.328.393-.664-.007-24.652-.007-49.304 0-73.956 0-.342-.09-.533-.407-.7-1.612-.829-3.21-1.687-4.822-2.528-.217-.111-.31-.241-.31-.497.007-5.566.01-11.13-.004-16.692 0-.372.17-.379.444-.375 2.885.007 5.767.003 8.652.003 16.266.008 32.53.008 48.796.008Zm2.982 6.138c-18.066 0-36.136 0-54.202-.007-.4 0-.533.076-.526.509.025 2.203.018 4.41.003 6.618-.003.31.076.487.365.635 1.587.815 3.152 1.666 4.739 2.481.324.166.436.35.436.721-.01 13.897-.01 27.794-.01 41.694 0 13.204-.004 26.412.01 39.616 0 .375-.122.556-.44.718-1.583.819-3.152 1.666-4.739 2.485-.267.137-.364.292-.36.595.014 2.179.007 4.354.007 6.532 0 .624 0 .628.606.628H116.49c4.014 0 7.866-.819 11.397-2.716 9.118-4.887 14.041-12.537 14.131-22.907.148-17.37.04-34.743.04-52.113 0-1.62-.159-3.221-.469-4.808-2.362-12.014-12.901-20.677-25.146-20.677-17.604-.004-35.212-.004-52.817-.004Zm-.083 109.363c.004.076-.003.108.008.13.054.101.108.202.169.299 1.886 3.052 4.173 5.76 6.921 8.072 6.377 5.367 13.738 8.09 22.07 8.101 20.143.022 40.287.007 60.43.007 2.778 0 5.522-.31 8.209-.995 6.857-1.746 12.664-5.244 17.309-10.582 5.576-6.402 8.393-13.875 8.396-22.38.008-16.739.004-33.474.004-50.213 0-3.805.004-7.614-.007-11.419 0-.335.101-.512.4-.663 1.079-.545 2.139-1.13 3.214-1.685.296-.151.433-.332.429-.692a331.84 331.84 0 0 1 0-6.619c.004-.378-.087-.48-.472-.48-12.242.011-24.483.011-36.728.008-.35 0-.689.054-1.02.151-1.717.509-2.774 1.988-2.774 3.885v55.835c0 1.706-.155 3.398-.476 5.068-1.327 6.849-4.602 12.591-9.922 17.11-5.475 4.649-11.841 7.041-19.036 7.051-18.874.026-37.752.008-56.626.008-.155.003-.314.003-.498.003Z" fill="#FEFEFD"/><path d="M63.626 36.923h52.817c12.241 0 22.783 8.663 25.146 20.677.31 1.587.469 3.189.469 4.808 0 17.374.104 34.744-.04 52.114-.086 10.369-5.01 18.019-14.131 22.906-3.535 1.893-7.383 2.716-11.397 2.716H9.514c-.606 0-.606 0-.606-.628 0-2.178.008-4.353-.007-6.532-.003-.303.094-.458.36-.595 1.584-.818 3.153-1.67 4.74-2.485.321-.166.44-.346.44-.717-.01-13.205-.01-26.413-.01-39.617 0-13.896-.004-27.793.01-41.693 0-.372-.112-.556-.436-.722-1.587-.815-3.156-1.666-4.74-2.481-.288-.148-.367-.325-.364-.635.015-2.207.022-4.411-.003-6.618-.004-.433.126-.509.526-.509 18.066.014 36.136.01 54.202.01Zm-14.229 51.14v36.886c0 .631-.079.548.552.548 15.282 0 30.564.003 45.849-.004.4 0 .808-.032 1.205-.097 4.576-.761 7.768-4.537 7.768-9.19V59.988c0-.664-.061-1.32-.184-1.973-.793-4.13-4.638-7.31-8.836-7.31-15.282 0-30.563.003-45.849-.012-.425 0-.512.112-.512.523.011 12.285.007 24.566.007 36.847Z" fill="#B90C2F"/><path d="M63.543 146.286h.501c18.874 0 37.752.018 56.626-.007 7.195-.011 13.558-2.402 19.036-7.051 5.32-4.52 8.599-10.261 9.922-17.111.325-1.67.476-3.361.476-5.067-.003-18.61-.003-37.225 0-55.836 0-1.893 1.057-3.372 2.774-3.884a3.61 3.61 0 0 1 1.021-.152c12.241.004 24.482.004 36.727-.007.386 0 .476.101.472.48a405.592 405.592 0 0 0 0 6.618c.004.364-.129.541-.429.693-1.075.555-2.135 1.14-3.213 1.684-.303.151-.404.325-.401.664.015 3.805.007 7.61.007 11.418 0 16.74.004 33.475-.003 50.213-.004 8.505-2.821 15.978-8.397 22.38-4.645 5.338-10.456 8.837-17.308 10.582-2.691.685-5.432.996-8.209.996-20.144 0-40.287.014-60.43-.008-8.332-.007-15.697-2.734-22.07-8.1-2.745-2.312-5.035-5.021-6.922-8.072-.061-.098-.115-.199-.17-.3-.014-.025-.006-.057-.01-.133Z" fill="#A89968"/><path d="M49.398 88.063c0-12.281.003-24.562-.011-36.843 0-.411.086-.523.512-.523 15.282.01 30.563.01 45.849.01 4.198 0 8.043 3.182 8.836 7.312.126.653.184 1.309.184 1.973v56.218c0 4.652-3.188 8.428-7.769 9.189a7.495 7.495 0 0 1-1.205.098c-15.281.003-30.563.003-45.848.003-.631 0-.552.083-.552-.548.004-12.299.004-24.594.004-36.89Zm46.285.086V61.423c0-.23-.004-.461-.011-.692-.076-1.868-1.782-3.546-3.65-3.546-12.3-.007-24.598 0-36.897-.01-.346 0-.393.122-.393.425.01 2.265.01 4.527 0 6.792 0 .267.08.407.32.534 1.054.537 2.082 1.121 3.142 1.64.411.203.534.444.534.891-.01 17.024-.01 34.052-.018 51.075 0 .365.047.516.48.516 10.9-.014 21.802-.011 32.702-.011.498 0 .977-.083 1.428-.288 1.649-.758 2.373-2.071 2.37-3.867-.015-8.916-.007-17.824-.007-26.733Z" fill="#FEFEFD"/><path d="M95.683 88.15c0 8.908-.007 17.817.003 26.725.004 1.796-.725 3.106-2.37 3.867-.446.205-.93.288-1.427.288-10.9-.003-21.803-.003-32.703.011-.429 0-.48-.151-.48-.516.008-17.023.004-34.05.019-51.075 0-.447-.123-.688-.534-.89-1.06-.52-2.088-1.104-3.142-1.641-.241-.123-.32-.267-.32-.534.01-2.265.01-4.527 0-6.792 0-.299.046-.425.393-.425 12.299.01 24.597.003 36.896.01 1.865 0 3.571 1.678 3.65 3.546.011.23.011.462.011.692.004 8.913.004 17.821.004 26.734Z" fill="#A89968"/></svg>