<svg width="200" height="200" xmlns="http://www.w3.org/2000/svg"><g fill="none"><path d="M117.202 70.14c-.55-3.705-.985-7.788-1.153-8.927.103.005.243.01.281.01l.017-.024 2.18.165c-.176 1.013-.687 5.105-1.325 8.776zm15.845-20.298c-.053-.01-5.321-.994-15.052-1.867v-.001l-.065-.005-.623-.056-1.032-.09v.035c-6.773-.437-14.727-.554-14.81-.555l-.969-.014-.037 13.445 3.097.034 7.777 42.808.714.075c3.045.323 9.652 1.387 9.718 1.398l.92.148 8.047-42.345c.971.161 2.003.363 2.017.365l1.148.225-.075-13.453-.775-.147zm49.107 40.078l.025-11.19c1.653.751 2.566 1.376 2.989 1.611.002.867-.045 8.828-.04 11.319-1.455-.858-2.424-1.465-2.974-1.74zm-.147 27.73c-.001-.25-.088-6.434-.096-8.19.374 1.965 1.182 7.036 1.628 9.387-.45-.35-1.309-1.024-1.532-1.198zm17.912 36.024v-20.446l-.22-.266-2.366-2.86s-4.676-23.102-4.822-23.947c.517-.597 4.723-4.022 4.723-4.022l.197-24.267-6.133-12.666-.342-.138c-.11-.045-11.04-4.464-22.36-8.009l-1.25-.391.074 15.69.765.156c.007.001.668.149 1.85.566l.06 36a15.636 15.636 0 0 0-1.315-.597l-1.293-.495-.073 14.968.398.288c.084.061 8.47 6.141 15.197 11.954l1.576 1.36s-.2-8.602-.183-12.58c1.057 5.56 3.16 15.517 3.16 15.517s6.388 6.722 10.651 12.052l1.706 2.133zm-45.375-56.626l-1.283-.498-.064 4.183a199.736 199.736 0 0 0-3.019-1.212l.053-9.596c1.177.377 3.09 1.001 5.314 1.77l1.278.441-.075-14.405-6.378-1.723.053-9.25c.7.164 1.685.41 2.868.742l-.064 3.76.7.206c.06.017 5.94 1.746 9.865 3.054l1.26.42V56.21l-.71-.19c-.136-.037-13.737-3.645-27.874-5.895l-1.102-.176-.075 13.8.866.088c.01 0 .864.09 2.012.29v31.178a79.654 79.654 0 0 0-1.596-.346l-1.15-.235v13.32l.687.203c.139.041 14.105 4.215 27.633 12.044l1.432.828.072-19.49-.53-.265c-3.19-1.6-9.89-4.206-10.173-4.316zM50.178 95.446l-.623.23-.016 3.08-2.781 1.022v-8.45a124.258 124.258 0 0 1 5.932-2.002l.677-.208V75.153l-6.747 2.01.04-9.849a58.685 58.685 0 0 1 2.89-.812l.048 3.961 1.166-.278c.065-.015 6.553-1.56 10.168-2.292l.768-.155V50.172l-1.108.176c-.141.022-14.306 2.29-28.272 6.25l-.699.199.056 15.38 2.974-1.028-.057 33.91-2.832 1.496.006.574v15.614l1.461-.902c.139-.087 14.052-8.638 27.776-13.075l.662-.214.036-16.832-1.236.37c-.064.02-6.449 1.938-10.29 3.356zm32.607-34.147c.069-.004 1.349-.048 2.128-.089.017.735-.05 3.074 0 5.098-.593-1.313-1.268-3.103-2.128-5.01zm-.112-13.308l-.902.05-.046 10.91-4.778-10.592-.683.066c-.06.005-6.15.592-12.44 1.44l-.834.113.056 13.997 1.157-.251c.008-.002.667-.144 1.667-.305.007 2.014.086 28.876.09 30.24l-2.94.771.021.741.106 13.117 1.197-.322c.087-.023 8.772-2.353 15.421-3.428l.805-.13V91.006l-2.542.336-.027-7.814 8.567 20.166.69-.057c.049-.004 4.877-.4 7.816-.524l.918-.039V60.713l2.866-.048.007-.942V47.4l-.972.015c-6.517.1-15.134.57-15.22.576zm-65.655 67.74l-1.92 1.56-.044-38.209a71.32 71.32 0 0 1 2.077-1.054l-.113 37.704zM.144 69.62L.107 86.66l2.96-1.553-.082 43.366-2.87 2.774-.005.405-.11 20.63 1.715-2.108c.13-.158 13.02-15.922 24.304-23.318l.228-.15 3.27-7.052-.241-51.987-7.583-7.847-.612.273c-.102.045-10.354 4.609-20.385 9.27l-.552.257z" fill="#231F20"/><path d="M67.591 61.543a39.714 39.714 0 0 0-2.825.479l-.048-10.44c6.346-.857 10.871-1.438 10.871-1.438l10.824 22.893-.24-13.601-2.73.143.049-9.866s7.076-.472 13.649-.574v9.818c-1.28.012-2.874.048-2.874.048v42.385c-2.993.126-6.321.526-6.321.526L76.26 75.72l.048 17.481s1.161-.126 2.538-.335v9.961c-6.777 1.095-13.985 3.066-13.985 3.066l-.095-9.962s1.775-.497 2.921-.766l-.096-33.621M186.444 79.23l.03 15.274a705.003 705.003 0 0 1-5.663-3.508l.03-14.892 5.603 3.126zm-14.686-7.597l.064 40.613c-1.367-.862-2.618-1.341-2.618-1.341l-.064 10.791s6.89 4.946 13.73 10.855l.063-12.132c-1.295-1.012-2.363-1.62-2.363-1.62l.099-16.922.859.638 7.535 35.72s4.79 4.979 9.132 10.41V134.34l-2.395-2.993-4.949-26.022 4.901-4.15-.047-22.326-5.62-12.285s-9.595-3.897-21.009-7.472l.064 11.71 2.618.83zm-31.865-9.068v34.738c-.648-.21-2.745-.639-2.745-.639v9.898s12.516 3.553 26.309 11.534l.063-15.11c-3.184-1.598-8.556-3.727-8.556-3.727l-.064 4.214a200.954 200.954 0 0 0-6.45-2.53l.064-13.243s2.853.82 6.577 2.108l-.063-10.577s-3.34-.903-6.386-1.724l.063-13.242s3.485.922 6.322 1.748l-.063 4.15s4.378 1.353 8.365 2.683V57.71s-11.993-3.606-26.245-5.874l-.064 10.28 2.873.448m-34.77-3.512l7.79 42.88c3.108.33 8.238 1.405 8.238 1.405L129.197 61c1.126.15 2.97.511 2.97.511l-.064-9.962s-4.183-1.021-14.432-1.915l.032 9.882s1.361.07 2.714.207l-3.289 18.359-2.969-18.678s.67 0 2.043.096l.064-9.866c-6.986-.486-14.048-.607-14.048-.607l-.032 9.994 2.937.031m-68.806 47.35l.06-37.352c-1.036.32-1.11.393-2.981 1.018l-.048-11.782c14.072-3.99 26.628-5.962 26.628-5.962v14.248c-3.674.742-8.668 1.915-8.668 1.915l-.048-4.358c-3.257.79-6.322 1.724-6.322 1.724l-.048 13.362s3.448-1.065 6.753-2.011v10.44a123.81 123.81 0 0 0-6.61 2.251V102.3s2.511-1.15 6.227-2.49l.016-3.082 8.7-2.953-.032 13.314c-14 4.526-26.452 12.404-26.452 12.404v-11.598l2.825-1.493M18.74 116.955l-5.363 3.88-.048-43.092s3.296-1.354 5.53-2.381l-.118 41.593zm2.73-54.837s-9.464 4.168-19.604 8.88l-.031 12.927s1.605-.823 2.959-1.554l-.086 47.275a549.37 549.37 0 0 1-2.873 2.778l-.096 15.23s8.638-12.158 23.257-22.575l2.796-6.4-.238-49.856-6.083-6.705z" fill="#A4965F"/><path d="M20.29 117.997c-3.8 2.783-8.51 6.249-8.51 6.249V76.76s3.883-1.538 8.51-3.538v44.774zm.654-53.7s-7.31 3.238-17.45 7.95v8.812s1.49-.754 2.843-1.484v50.993a209.159 209.159 0 0 0-2.858 2.886l-.004 9.291s8.178-9.77 20.492-19.145l2.245-5.136-.256-48.444-5.012-5.723zm14.08 45.131v7.383s9.387-6.345 23.388-10.872V95.918s-1.746.58-5.604 2.006v3.07c-3.715 1.342-9.083 3.593-9.083 3.593V88.56s2.943-1.198 6.433-2.27v-6.938c-3.304.946-6.817 2.12-6.817 2.12V64.601s5.243-1.43 9.451-2.412v4.088s1.946-.455 5.62-1.197V54.327s-9.387 1.293-23.46 5.284v8.03s2.198-.734 2.898-.95v41.244l-2.826 1.493m34.227-50.004v37.08c-1.145.27-2.857.689-2.857.689v6.727s5.492-1.469 11.063-2.614v-6.657c-1.377.21-2.778.46-2.778.46V67.994l14.416 32.073s1.118-.169 3.622-.328l.002-42.523s1.483-.048 2.762-.06v-6.562c-6.573.102-10.6.473-10.6.473v6.628s2.065-.15 2.762-.186v21.644l-13.09-27.38s-1.825.312-8.171 1.168l-.004 6.939 2.873-.455m37.361-2.205l7.675 43.2c3.106.33 5.64 1.006 5.64 1.006l7.847-42.284c1.126.15 2.908.431 2.908.431V52.72s-5.212-.922-11.255-1.365v6.651s1.367.126 2.72.264l-5.035 27.093-4.927-27.8s1.287.084 2.676.191v-6.62c-6.986-.485-11.135-.527-11.135-.527v6.549l2.898-.042m34.81 4.01v38.278c-.65-.21-2.93-.892-2.93-.892v6.903s11.062 3.292 23.484 10.494V104.12c-3.184-1.599-5.652-2.515-5.652-2.515v3.88c-3.765-1.724-9.446-3.658-9.446-3.658V85.68s3.089.88 6.812 2.167v-6.986s-3.777-1.216-6.824-2.036v-16.54s6.62 1.76 9.458 2.586v3.747s1.64.527 5.628 1.856v-11.47s-9.208-3.155-23.46-5.424v6.986l2.93.557m46.159 17.341l.03 18.34c-3.433-2.108-7.96-5.042-7.96-5.042l.029-17.574 7.901 4.276zM173.291 70.1l.064 44.836a31.813 31.813 0 0 0-2.619-1.477l-.063 7.47s3.825 2.648 10.664 8.557l.063-8.197c-1.295-1.011-2.362-1.628-2.362-1.628l.239-20.498 3.496 2.394 7.567 35.824s1.98 1.618 6.322 7.049v-9.348l-2.107-2.394-5.3-28.13 5.06-4.581-.048-20.45-5.172-11.782s-7.072-3.163-18.486-6.737l.063 8.262 2.619.83z" fill="#960A2C"/></g></svg>