<svg width="200" height="200" fill="none" xmlns="http://www.w3.org/2000/svg"><g clip-path="url(#a)"><path d="M116.508 195.607c0 .73-.259 1.354-.776 1.88a2.554 2.554 0 0 1-1.88.775c-.74 0-1.355-.258-1.88-.775a2.556 2.556 0 0 1-.776-1.88c0-.74.259-1.355.776-1.881a2.567 2.567 0 0 1 1.88-.775c.731 0 1.363.258 1.88.775.517.517.776 1.15.776 1.881Zm-.58 0c0-.571-.205-1.061-.606-1.471a1.972 1.972 0 0 0-1.461-.615c-.571 0-1.061.205-1.462.615-.401.41-.606.9-.606 1.471 0 .57.205 1.06.606 1.47.401.41.891.615 1.462.615.57 0 1.06-.205 1.461-.615.401-.41.606-.9.606-1.47Zm-.579 1.256h-.829l-.802-.971h-.267v.971h-.651v-2.647h1.007c.187 0 .339 0 .446.018.116.018.223.054.339.107a.792.792 0 0 1 .267.241.732.732 0 0 1 .089.356.687.687 0 0 1-.16.472c-.107.125-.25.223-.428.295l.998 1.14-.009.018Zm-1.141-1.854a.3.3 0 0 0-.035-.151.366.366 0 0 0-.116-.116.523.523 0 0 0-.178-.053c-.072 0-.143-.009-.223-.009h-.205v.739h.16c.107 0 .205 0 .277-.026a.457.457 0 0 0 .187-.081.4.4 0 0 0 .107-.133.425.425 0 0 0 .035-.187" fill="#000"/><path d="M24.185 30.958s.026.054.035.09c.232-.58.107-.366-.035-.09Z" fill="#CE0E2D"/><path d="M186.044 2.932s-4.189 22.332-10.453 28.695C173.015 20.62 149.631-.178 100.378 0 51.115.178 30.182 16.896 24.22 31.047c-.294.704-.196.241-.035-.089-3.779-5.222-6.568-17.787-6.105-29.416-27.456 47.925-8.42 86.111 3.85 108.194 9.9 17.814 34.773 50.038 74.919 87.029l3.493 3.226 3.511-3.217c27.029-24.738 61.48-62.033 77.093-92.537 15.248-29.79 23.233-62.692 5.089-101.314l.009.009Z" fill="#CE0E2D"/><path d="M186.899 19.115c-3.538 11.47-9.508 20.203-15.301 25.942 2.415-14.116-6.701-27.59-33.569-34.729 9.58 10.525 12.699 20.675 10.453 26.85-6.728-13.607-20.612-30.575-48.095-30.503-27.412.071-41.091 14.713-47.926 28.516-3.565-4.785-2.094-12.743 8.947-24.871-28.472 7.565-36.992 23.276-33.017 37.258.134.473.285.927.455 1.382C22.59 40.895 16.592 29.05 15.05 18.937c-12.004 37.116-1.337 65.312 11.415 88.268 13.439 24.186 44.361 58.522 73.903 85.737 30.424-27.839 62.086-63.957 75.979-91.075 15.016-29.337 18.055-56.873 10.56-82.77l-.009.018Z" fill="#000"/><path d="M57.923 108.907c-6.158.642-15.951-11.442-18.642-43.782-13.475-2.023-22.912-22.911-22.912-22.911-2.7 35.717 17.484 81.62 84.008 141.594-13.278-17.6-29.987-39.531-36.92-52.89-1.105-2.887-5.543-22.011-5.543-22.011h.01ZM164.612 58.379c-2.701 51.205-20.818 51.161-20.818 51.161-1.514 7.673-2.21 17.021-6.166 22.457-9.446 11.656-23.963 34.202-37.241 51.802 70.775-63.102 87.51-115.279 84.249-145.052-3.699 6.728-10.988 15.649-20.024 19.632ZM103.8 115.822V91.111l6.211 18.17-6.211 6.541Z" fill="#003DA6"/><path d="m112.292 89.017 1.043 4.919 18.09-14.65-19.133 9.73ZM89.933 89.017l-1.043 4.919-18.099-14.65 19.142 9.73Z" fill="#CE0E2D"/><path d="M136.477 45.449a29.092 29.092 0 0 0 3.128-1.034c-6.38-13.911-17.555-20.158-17.555-20.158 8.198 7.263 12.556 16.629 14.427 21.192Z" fill="#0071CE"/><path d="m88.061 79.098 4.804 5 .606-20.131-5.41 15.131ZM48.38 21.227c-30.897 20.906-.598 40.6 15.452 42.107 7.298.695 8.956-1.114 10.301-4.242-9.526-.704-48.781-10.596-25.754-37.865Z" fill="#003DA6"/><path d="M151.057 21.227c23.027 27.27-16.219 37.16-25.745 37.865 1.337 3.128 3.003 4.937 10.302 4.242 1.8-.17 3.787-.57 5.846-1.177.017.179.044.357.062.535l-24.667 12.922 1.399 3.983 23.357-10.328-3.823 12.226s-18.634 24.231-20.969 41.465l4.135 1.266 3.458 6.478 6.906-8.635 5.009-9.704s-7.557 1.131-8.85 1.559c7.914-9.651 14.722-16.566 15.417-19.98l.455 5.962c8.457 5.971 13.839-33.578 13.839-33.578l-15.72 22.52c-.062-.134-.124-.268-.187-.384l6.515-20.701a38.506 38.506 0 0 0-1.203-7.477c14.9-6.55 29.06-22.421 4.473-39.05l-.009-.009Z" fill="#0071CE"/><path d="M109.895 121.686s2.807.526 6.924 1.274c2.335-17.243 20.968-41.465 20.968-41.465-15.978 8.627-27.892 40.191-27.892 40.191Z" fill="#003DA6"/><path d="m124.403 130.705-3.458-6.479-4.135-1.266 3.422 8.645-6.006-3.128-6.978-.098-1.88 5.195 7.441-1.301.562 16.771 14.686-16.637c4.91-5.009 6.336-11.523 8.252-20.042l-5.008 9.704-6.907 8.636h.009ZM118.254 79.597l-1.4-3.983-4.402 2.308-4.981-13.955.597 20.13 10.186-4.5Z" fill="#003DA6"/></g><defs><clipPath id="a"><path fill="#fff" transform="translate(4)" d="M0 0h192.488v200H0z"/></clipPath></defs></svg>