<svg width="200" height="200" xmlns="http://www.w3.org/2000/svg"><g fill="none"><path d="M189.62 65.3l7.155-19.21h-20.167c-5.36-12.695-15.936-20.1-25.407-21.179 6.88 12.757 3.2 21.224-9.501 21.146h-15.38l-6.659-6.985H81.704l5.435 6.826c-5.092-.421-9.598-1.84-11.835-6.158-2.12-4.088-1.917-10.427 4.256-17.45-11.502.89-21.449 7.014-28.27 16.977H25.188l7.717 11.779-10.56 27.824-19.784 8.527 40.085-.002c.031.206.06.41.093.617L0 91.095l44.677 6.285c.217.857.447 1.718.69 2.584l-32.918 3.239 35.404 4.575c.347.975.71 1.955 1.09 2.94l-26 4.038 28.753 2.581c2.312 5.164 5.049 10.434 8.249 15.784l-38.777.045 14.937 12.395-4.268 11.157H76.79c5.639 6.776 12.034 13.611 19.253 20.453 9.584-7.001 18.175-13.823 25.86-20.453h39.57c5.934.001 9.44-1.352 12.14-8.749l5.148-13.513-22.615-12.97c9.652-12.383 15.944-23.791 19.649-34.094h3.3c12.416.052 14.154-3.772 16.785-11.04l4.116-11.052H189.62" fill="#EE293D"/><path d="M80.09 156.73c4.964 5.918 10.327 11.388 16.001 16.216a242.382 242.382 0 0 0 22.156-16.216H80.09m102.746-89.097c.806-2.165 1.145-3.078 1.633-4.385h1.817l5.52-14.823h-18.247c-2.906-7.497-8.257-13.704-16.293-18.087 0 0 5.107 17.875-13.637 17.812a7495.94 7495.94 0 0 0-19.127-.031l-6.49-6.518H87.288l4.897 6.516-6.666.004c-15.717-.007-17.1-13.101-13.589-20.443-7.723 3.183-13.587 7.966-17.805 13.923H31.437l5.999 9.153-11.372 29.904-12.564 4.4h32.964c.244 1.712.538 3.438.873 5.174l-31.54 1.28 32.68 3.959 40.574 4.914-17.206.816-22.72-3.196c.37 1.403.766 2.809 1.192 4.219l-24.12 1.144 69.08 5.725-21.809 1.965-21.144-2.722a145.12 145.12 0 0 0 1.666 4.476l-15.459 1.393 62.669 2.802 4.226 5.544-4.552.812-2.111-2.814-42.944-3.28a158.939 158.939 0 0 0 7.84 15.751h91.389s-9.372-10.207-11.732-12.647l.767-1.849s-1.21-.46-1.511-1.252c-.302-.792 2.317-2.574 3.21-3.233l-5.905-6.134.922-2.77s-1.871-2.684-2.768-3.475c0 0 8.137-1.473 8.073-5.498-.045-2.929-3.932-5.983-6.899-7.592 14.874 6.588 8.859 11.94 2.937 13.82.445.628.87 1.28 1.267 1.963l-1.421 3.499 6.936 6.551-4.06 2.947 1.506 1.522-1.088 1.73 16.521 14.944-96.625.094.002.002H27.505l11.525 9.432-3.59 9.165h42.604l.015.018H121.2l.021-.018h40.444c3.885-.036 7.284-1.201 9.232-6.115l4.78-12.482-23.843-13.453c9.56-12.579 16.531-25.25 20.504-37.133l3.693.002c10.7.008 13.077-1.973 15.732-8.659l3.264-8.766h-12.192" fill="#000"/><path d="M97.528 88.195s20.063-2.561 34.768 5.576c1.11-2.764-3.449-6.646-3.449-6.646 12.24 4.882 8.731 10.08 8.731 10.08 1.701-.477 7.921-2.08-1.063-9.75.603.115 1.583.515 2.69 1.115 14.873 6.588 8.86 11.938 2.938 13.82.444.628.868 1.28 1.266 1.963l-1.421 3.499 6.936 6.551-4.06 2.947 1.506 1.522-1.088 1.73 1.28 1.158c10.814-14.005 17.053-26.691 20.646-36.705-8.192-.001-14.852.003-14.852.003H52.634c.156 1.549.36 3.198.62 4.934l44.274-1.797M54.96 98.826a116.1 116.1 0 0 0 .785 3.14l16.1-.765-16.884-2.375m2.903 10.223a123.14 123.14 0 0 0 1.156 3.31l14.448-1.302-15.604-2.008m40.899 11.5l-37.658-2.877a130.617 130.617 0 0 0 5.638 11.785l34.131-6.094-2.111-2.814M61.536 41.601h1.904l6.87 6.729c-1.367-1.662-4.724-6.503-3.702-12.99 0 0-3.396 2.191-6.023 6.261h.951m102.184 6.824h3.845c-1.554-6.272-6.006-10.299-6.006-10.299-.026 4.67-2.105 8.16-3.887 10.3l6.047-.001m7.911 89.915l-3.395 8.866c-1.453 3.664-3.68 4.418-6.801 4.447H39.12l3.158-7.249-7.72-6.065H171.63M85.907 156.73a174.673 174.673 0 0 0 10.57 11.033 269.89 269.89 0 0 0 14.987-11.033H85.907" fill="#1478C7"/><path d="M131.906 93.558c-14.669-7.879-34.378-5.363-34.378-5.363 20.685 0 32.237 7.26 32.51 7.433 1.205-.495 1.623-1.213 1.868-2.07" fill="#EE293D"/><path d="M143.316 120.373l.767-1.849s-1.21-.46-1.511-1.252c-.302-.792 2.317-2.574 3.21-3.233l-5.905-6.134.922-2.77s-1.871-2.684-2.768-3.475c0 0 8.137-1.473 8.073-5.498-.062-4.022-7.37-8.283-9.59-8.707 8.985 7.67 2.765 9.273 1.064 9.75 0 0 3.51-5.198-8.731-10.08 7.862 4.723 7.679 9.358 2.715 11.826-4.963 2.47-11.019 1.312-11.019 1.312-1.475-1.198-3.469-4.147 1.028-3.967 4.566.181 7.056-.09 8.466-.668-.272-.173-11.824-7.433-32.509-7.433l-81.73 3.317 73.253 8.873-62.854 2.983 69.08 5.725-56.746 5.112 62.669 2.802 4.226 5.544-43.265 7.724 1.492 2.745h91.395s-9.372-10.207-11.732-12.647" fill="#000"/><path d="M141.003 123.4l-1.552-2.11-4.586.658-1.77 1.583.637-3.166 4.147-1.583c-4.723-7.653-15.72-11.346-15.72-11.346l-2.559-3.825 7.775 1.37-.02-.023a43.252 43.252 0 0 0-2.013-2.232.023.023 0 0 0 .011.002c-3.593-.626-3.974-1.797-4.81-2.465 0 0 6.056 1.158 11.02-1.312 4.963-2.468 5.146-7.103-2.716-11.826 0 0 3.677 3.673 3.2 5.851-.475 2.18-1.153 3.69-10.476 3.32-2.2-.088-2.844.573-2.758 1.41v.004c.006.06.016.121.03.183-7.962-3.927-20.769-4.42-52.14-5.101 0 0 20.894 1.055 35.484 2.64 14.586 1.581 14.874 7.52 14.874 7.52l-4.812-1.32 3.918 7.386-15.17-5.407c6.133 9.498 9.217 10.555 10.669 10.555 1.45 0 1.633-1.715 1.633-1.715l8.57 2.637-6.363 2.112c4.34 7.916 7.928 8.444 7.928 8.444l-45.11 5.154 61.729-2.516-3.666-4.881h4.616" fill="#289EE0"/><path fill="#1478C7" d="M136.74 108.823l5.24 4.748-3.474.461z"/><path d="M126.563 107.099l7.286 1.473s.518 1.088-.385 1.708l-6.901-3.181" fill="#EE293D"/><path fill="#1478C7" d="M131.479 121.141l-.885 3.518-7.16.985-45.11 5.154 61.729-2.516-3.666-4.881h4.616l-1.552-2.111-4.586.658-1.77 1.583.637-3.166-2.253.776m4.182-1.511l2.218-.848c-4.723-7.653-15.72-11.346-15.72-11.346s9.354 4.621 13.502 12.194m-9.329-16.755a21.16 21.16 0 0 1-.99-.149c.671.69 1.337 1.432 2.014 2.232l.02.024 4.2.738a13.576 13.576 0 0 0-1.873-2.998 9.849 9.849 0 0 1-3.37.153m-6.163-6.509c-8.523-3.327-19.26-3.92-25.115-3.838-9.361.133-28.353.264-28.353.264 31.372.68 44.179 1.174 52.14 5.101-.154-.703.14-1.315 1.329-1.527m21.397-43.904h-18.482l.961 4.32-11.13 19.633-5.478 4.607h12.43l3.568-7.008h2.942l-1.391 6.028c-.018.005-.065.212-.065.212l-.171.768h4.586c4.983.023 6.3-1.346 7.363-4.423l.55-1.475.317-.85h-2.37l2.726-15.063h2.039l2.512-6.749h-.907zm-13.659 14.93h-1.102l2.018-3.966-.916 3.966z"/><path d="M116.652 45.639H94.877s2.604 4.378 2.876 4.833l-9.567 25.686-5.807 4.864h13.147c3.53-.017 5.72-1.418 6.896-4.41l1.045-2.813h-2.988l1.634-4.389h6.155c2.72.01 7.528-.657 9.154-5.226l4.748-12.747.14-.378-5.396-5.42h-.262zm-6.17 7.684l-3.13 8.401h-2.375l3.127-8.401h2.377zm-48.946-7.684H38.91s2.716 4.144 3.02 4.61L30.322 81.021h18.87c4.513.136 7.534-1.665 8.96-5.353l9.167-24.616-5.526-5.414h-.257zm-6.474 7.684L47.61 73.335h-2.865l7.454-20.012h2.864z" fill="#1478C7"/><path d="M61.279 46.899l4.574 4.481-8.879 23.842c-1.227 3.173-3.767 4.66-7.763 4.54H32.144l11.19-29.668-2.093-3.195H61.28zm-5.31 5.163h-4.646L42.93 74.595h5.554l8.392-22.533h-.907zm60.421-5.163l4.458 4.476-4.61 12.378c-1.37 3.846-5.58 4.405-7.968 4.397h-7.033l-2.572 6.91h2.99l-.41 1.102c-.972 2.472-2.737 3.586-5.722 3.6h-9.677l3.404-2.852 9.894-26.564s-1.38-2.318-2.05-3.447h19.296zm-5.002 5.163h-4.16l-4.065 10.923h5.065l4.067-10.923h-.907z" fill="#FFF"/><path d="M169.219 52.462h-10.085s-7.96 21.368-8.253 22.158h-2.172l8.254-22.158h-12.247l1.213 4.39-7.35 19.738 4.36 4.432h8.72c3.045.033 6.812-1.325 7.867-4.383l6.492-17.428h1.594l2.514-6.749h-.907" fill="#1478C7"/><path d="M168.312 53.722l-1.575 4.23h-1.594l-6.803 18.261c-.819 2.374-3.977 3.578-6.675 3.548h-8.198l-3.427-3.484c.27-.722 7.212-19.366 7.212-19.366l-.88-3.189h8.778l-8.254 22.159h4.86l8.254-22.159h8.302" fill="#FFF"/><path d="M184.509 52.462h-13.165l1.219 4.391-7.304 19.613-4.842 4.556h17.49c6.366.013 8.24-2.66 9.315-5.551l1.416-3.8h-8.668l-1.099 2.95h-3.526l5.74-15.41h1.817l2.514-6.749h-.907" fill="#1478C7"/><path d="M183.602 53.722l-1.575 4.23h-1.818l-6.678 17.929h6.216l1.098-2.95h5.979l-.782 2.1c-1.06 2.847-2.849 4.741-8.134 4.73h-14.313a2522.5 2522.5 0 0 0 2.741-2.58l7.55-20.27-.884-3.189h10.6" fill="#FFF"/><path d="M91.648 52.462H68.593l1.221 4.392-7.304 19.612-4.844 4.556h16.978c4.798.03 7.872-1.475 9.133-4.47l1.82-4.881h-8.671l-1.099 2.95h-3.236l1.905-5.115h5.712l2.384-6.4h-5.713l1.58-4.242h3.043l-.843 2.265h8.668l3.228-8.667h-.907" fill="#1478C7"/><path d="M90.74 53.722l-2.288 6.147h-5.98l.844-2.265h-5.733l-2.519 6.762h5.714c-.4 1.071-1.233 3.31-1.445 3.88H73.62l-2.844 7.635h5.927l1.099-2.95h5.98l-1.176 3.156c-1.035 2.456-3.715 3.7-7.957 3.674H60.845c1.118-1.05 2.743-2.58 2.743-2.58l7.55-20.271-.886-3.188H90.74m49.921 0l-1.574 4.23h-2.216l-3.18 17.582h2.063l-.238.639c-.8 2.312-1.478 3.61-6.175 3.588h-3.005c.383-1.62 1.449-6.235 1.449-6.235l.178-.772h-5.299l-3.567 7.007h-8.202l3.006-2.528 11.482-20.251-.726-3.26h16.004zm-10.826 4.941l-4.617 9.073-.466.916h4.16l2.303-9.989h-1.38zm-78.393 85.534l.673-1.678h1.705l-.672 1.678h-1.706zm3.945 1.927c.045-.61-.408-1.025-1.134-1.179a2.995 2.995 0 0 0 2.169-1.316c.523-1.055 1.156-3.01-.373-2.996l-7.958.043 1.057 1.774-2.108 5.255-1.854 1.858 7.527-.029c.888 0 1.634-.817 1.957-1.539l.717-1.871zm-5.38 1.65l.75-1.871h1.74l-.75 1.871h-1.74zm14.358 1.789H55.91l1.832-1.886 2.108-5.255-1.011-1.844h5.6l-.752 1.872h-.736l-2.097 5.227h1.354l.624-1.553h2.912l-1.38 3.439m14.097-7.113h-.718l-2.16 5.38c-.305.763-1.396 1.733-2.434 1.733h-4.25c-1.038 0-1.484-.762-1.14-1.623l2.202-5.49-.96-1.844h4.763l-2.85 7.1h1.674l2.848-7.1h3.766l-.74 1.844m7.385 7.113h-8.486l1.82-1.858 2.11-5.255-.98-1.844h8.963l-1.13 2.815h-2.51l.39-.971h-1.722l-.673 1.679 2.33.027-.662 1.65h-2.341l-.763 1.9h1.723l.474-1.18h2.677l-1.22 3.037m14.739-1.831l2.104-5.24h1.69l-2.103 5.24h-1.69zm6.889-5.614c.282-.708-.014-1.512-.934-1.512l-7.849-.028 1.002 1.872-2.107 5.255-1.82 1.858 7.243-.029c.82 0 1.716-.567 1.984-1.233l2.48-6.183zm7.436 7.445h-8.487l1.82-1.858 2.109-5.255-.978-1.844h8.963l-1.13 2.815h-2.51l.39-.971h-1.725l-.672 1.679 2.331.027-.66 1.65h-2.344l-.761 1.9h1.723l.472-1.18h2.678l-1.219 3.037m14.674 0h-3.598l1.937-4.825-3.906 3.605c-.441-1.151-.9-2.344-1.343-3.494l-1.89 4.714h-3.936l1.787-1.858 2.107-5.255-.967-1.872h4.53l1.162 3.854 4.156-3.854h3.481l-.75 1.872-.698.028-2.085 5.199h.771l-.758 1.886m6.022-1.831l2.102-5.24h1.64l-2.103 5.24h-1.64zm6.937-5.78c.3-.75-.214-1.346-1.134-1.346h-4.033c-.868 0-2.107.5-2.429 1.303l-2.565 6.392c-.289.721.28 1.262 1.15 1.262h4.385c.97 0 1.906-.833 2.223-1.623l2.403-5.989zm12.046.498l-.73.028-2.842 7.085-2.85-.029-1.07-4.546-1.836 4.575h-3.97l1.854-1.858 2.11-5.255-1.002-1.872h4.58l1.091 4.494 1.792-4.466h3.614l-.74 1.844m7.809 5.643c-.316.79-1.393 1.47-2.33 1.47h-5.822l1.106-2.76h2.895l-.35.874h1.656l.734-1.83h-2.927c-1.088 0-1.508-.832-1.151-1.718l.85-2.123c.339-.845 1.566-1.4 2.587-1.4h5.386l-1.056 2.634h-2.644l.318-.79h-1.724l-.684 1.706h3.062c.988 0 1.372.749 1.045 1.566l-.95 2.37" fill="#FFF"/><path d="M112.235 171.036l.667 1.876.665-1.876h.756v2.62h-.482v-2.114l-.719 2.115h-.43l-.73-2.115v2.115h-.481v-2.621h.754zm-3.432.433v-.433h2.234v.433h-.857v2.188h-.52v-2.188h-.857z" fill="#000"/></g></svg>