<?xml version="1.0" encoding="UTF-8"?>
<svg width="200px" height="200px" viewBox="0 0 200 200" version="1.1" xmlns="http://www.w3.org/2000/svg" xmlns:xlink="http://www.w3.org/1999/xlink">
    <!-- Generator: Sketch 51.3 (57544) - http://www.bohemiancoding.com/sketch -->
    <title>detroit</title>
    <desc>Created with Sketch.</desc>
    <defs></defs>
    <g id="detroit" stroke="none" stroke-width="1" fill="none" fill-rule="evenodd">
        <g id="detroit_BGL" transform="translate(0.000000, 25.870647)">
            <g id="detroit">
                <g id="g10" transform="translate(99.999998, 74.782498) scale(-1, 1) rotate(-180.000000) translate(-99.999998, -74.782498) translate(0.000000, 0.441505)" fill-rule="nonzero">
                    <g id="g12">
                        <path d="M199.65359,95.0928427 C199.65359,96.3634569 199.035289,97.5555098 197.998034,98.296972 C193.034636,101.835473 185.024832,104.034538 177.092806,104.034538 C176.539865,104.034538 175.988884,104.02415 175.439865,104.001426 L162.128754,104.000127 C160.58431,121.484869 153.019604,135.99662 139.813722,143.316449 C139.556206,143.459937 139.299997,143.589141 139.039212,143.724188 L136.718297,141.769247 L135.341827,145.416176 C114.953592,153.452145 88.728756,143.311904 68.711763,121.044666 L68.7705865,123.845601 L65.114116,129.56369 L48.952221,124.511749 L45.7707832,120.020774 C41.4315022,123.128811 36.3089533,126.741978 34.1324828,128.06778 C31.318692,129.777948 28.3307836,131.202438 25.9522869,132.231525 C25.7804569,132.503568 25.5869275,132.764573 25.3689536,133.008048 C17.5696728,141.732239 16.6653591,143.132057 13.4852284,143.074272 C9.5430063,143.002204 6.16549004,140.667442 3.80515023,137.28022 C1.45118297,133.897542 0.662019591,130.136992 1.58190192,126.694582 C2.40911105,123.587843 4.38113061,122.826903 15.3147709,118.602127 C15.5491499,118.513826 15.7868624,118.437213 16.0281042,118.378779 C17.8260126,116.479675 20.2180387,114.127383 22.8028099,112.06791 C24.772287,110.497335 29.8432672,106.984155 34.2243782,103.993635 L3.97084304,103.993635 C1.77696074,103.993635 0,102.228929 0,100.049991 L0,72.1880257 C0,71.0725862 0.47692025,70.0058416 1.31254899,69.2578869 C2.04529407,68.6040757 2.99249666,68.2450314 3.97084304,68.2450314 C4.10666656,68.2450314 4.24275153,68.2508748 4.38113061,68.2651587 L9.79777753,68.826774 C9.47686251,68.2521733 9.30045728,67.5983622 9.30045728,66.915334 L9.30045728,51.2791183 C9.30045728,49.1007649 11.0773853,47.3353449 13.270784,47.3353449 L37.5858161,47.3353449 C38.7206526,47.3353449 39.7352278,47.8184639 40.4585611,48.576807 C40.6643127,41.7302937 41.7450316,35.2622378 43.6922865,29.4125431 L46.9875805,28.2676918 L44.9486917,25.6110239 C48.7252275,16.8446301 55.0332012,9.27535362 63.0320899,4.83906623 C74.9869262,-1.78928706 89.4901938,-1.37639264 103.729409,4.66380978 L104.192154,7.87943105 L106.239213,5.78100882 C107.804572,6.52058158 109.36405,7.32632107 110.916337,8.19776632 L111.229409,12.2807425 L115.588232,11.0342161 C122.609147,15.6272558 129.365356,21.5634977 135.496729,28.6534209 L143.182349,23.2736652 C167.801303,6.4901245 187.620257,8.40345389 187.620257,8.40345389 C187.620257,8.40345389 183.578427,26.727697 158.529408,44.9358514 L156.019604,46.6926362 C161.798035,47.6690678 166.516989,47.7048423 170.810453,47.7365265 C176.884963,47.7814558 182.620257,47.8243073 188.977119,50.6303714 C189.054244,50.6660811 189.130061,50.7026348 189.20457,50.7414609 C196.09542,54.3215153 199.600649,60.3830656 199.624832,68.7547055 C199.692152,70.7791178 199.647054,73.185948 199.030714,75.6447196 C199.424178,76.2563284 199.65359,76.9828574 199.65359,77.7645741 L199.65359,95.0928427" id="path14" fill="#E8E5DE"></path>
                        <path d="M195.681694,95.0928427 C190.974505,98.4489003 182.992806,100.366184 175.5098,100.058431 L158.192807,100.058431 C157.664702,117.37761 151.011107,131.875727 138.506532,139.079986 C138.27516,139.215034 138.040519,139.338394 137.803265,139.46565 L135.609147,137.641212 L134.434637,141.066741 C112.650324,149.977921 82.8581679,135.583038 63.1058808,106.895206 L58.1865345,110.338265 L64.6252271,115.527201 L64.7760768,122.736655 L63.3986912,124.892868 L51.425685,121.150497 L46.7095413,114.492271 C44.2271884,116.296582 35.48562,122.61654 32.0590842,124.703282 C28.7635287,126.707567 25.1475811,128.312554 22.8704569,129.242303 C22.8349667,129.672117 22.6915027,130.060379 22.3996726,130.38631 C15.5236597,138.079467 14.3898036,139.220228 13.3762088,139.124786 C11.4179736,138.941043 9.06176448,137.894426 7.07130701,135.037005 C5.08093451,132.177636 4.91447047,129.599399 5.4204966,127.702243 C5.68423515,126.719254 6.72464035,126.153743 16.7636597,122.275675 C17.1287577,122.134135 17.5015028,122.124396 17.8727447,122.20945 C19.5248361,120.396049 22.269738,117.549666 25.2882347,115.144134 C28.4229405,112.644459 37.3618945,106.605633 39.9093454,104.89157 L36.480522,100.049991 L3.97084304,100.049991 L3.97084304,72.1867272 L14.5749016,73.2820395 L14.5749016,67.5217487 L13.2710454,66.915334 L13.2710454,51.2803519 L37.5850317,51.2803519 L37.5850317,54.6208271 L44.4377767,54.6136852 C44.0456198,46.7030244 44.8481035,39.2430843 46.8346394,32.6197888 L50.2182994,31.3628742 L48.2367962,28.5735612 C51.498953,20.3374881 56.7907175,13.6845861 64.0615017,9.49422129 C75.0444426,3.16390721 88.6169912,3.56969865 102.056207,9.35073344 L102.191501,13.1171922 L104.396076,10.4123488 C105.720912,11.0433707 107.043135,11.7230876 108.360782,12.4580571 L108.439867,16.7926888 L112.745095,15.1007658 C120.467971,20.1097255 127.897382,26.8463829 134.502611,35.0240869 L145.46797,26.5012329 C156.113068,19.0592775 170.176466,12.9528629 181.684309,12.5562262 C177.422871,23.182638 166.887578,34.2703536 156.243133,41.7108157 L146.503918,48.5268135 C147.14248,48.7182821 147.794114,48.9052059 148.466663,49.0845332 C167.305878,54.09174 176.159473,49.2876887 187.365355,54.2337994 C192.348361,56.8257355 195.654897,61.2245148 195.654897,68.8423564 C195.758819,71.9004007 195.518949,75.055835 193.9464,77.7645741 L195.681694,77.7645741 L195.681694,95.0928427" id="path16" fill="#19336E"></path>
                        <path d="M69.3202597,54.5845331 L67.2967303,51.9303974 L67.5176454,52.1822478 L59.2762077,40.6935453 C60.1047044,39.2844426 61.0434625,37.9820793 62.0874494,36.7971683 L65.790848,40.4563683 L63.7872533,35.0745998 C65.0362729,33.9325404 66.4039199,32.9307225 67.908495,32.1042064 C80.8732006,24.989676 99.3032655,32.3043103 113.741827,48.7053617 L105.402612,54.5416815 L69.3202597,54.5845331 Z M54.9233973,54.6012842 C55.3546391,50.810413 56.2201293,47.2939866 57.5321554,44.16712 L69.3071878,54.5845331 L54.9233973,54.6012842 Z M134.437905,102.626929 C133.943134,112.261392 130.784964,120.394102 125.018951,125.445394 L119.679082,119.727954 L124.136598,126.197244 C123.21699,126.919228 122.241827,127.567196 121.202611,128.137901 C106.153592,136.395919 83.7398672,125.216203 68.7588218,102.938577 L69.2039198,102.626929 L134.437905,102.626929 Z" id="path18" fill="#E8E5DE"></path>
                        <path d="M69.2581682,102.626929 L93.578429,102.626929 C93.5522852,104.448121 93.0045728,106.061548 91.933331,107.136084 C90.1470566,108.931954 87.0999978,109.045576 83.9823508,107.74964 C96.1601283,119.452665 110.64052,125.434356 120.580389,122.726916 L122.243788,125.12076 C121.469278,125.690167 120.658821,126.213476 119.803919,126.675104 C105.068625,134.659781 83.4398672,123.981947 69.2581682,102.626929 M64.4656193,46.7510052 L67.5660114,52.2172432 L59.2080377,40.6032323 L60.1664691,39.1765995 L61.8869919,42.2106859 C62.5375148,41.2687303 63.2337893,40.3777421 63.994835,39.5527194 L66.6751617,42.6418636 C65.7928088,43.9944152 65.0952271,45.2206196 64.4656193,46.7510052 M67.2816977,41.7660683 L65.624835,37.956693 C66.8281029,36.8874812 68.1418284,35.9480578 69.5784296,35.1689382 C74.0450962,32.7471099 79.1503248,32.0458374 84.4862724,32.8341116 C80.4803901,32.944422 76.71307,33.9695486 73.3895406,36.0167502 C70.9653577,37.5105821 68.9398676,39.4624714 67.2816977,41.7660683 M124.772546,122.930785 L123.592154,121.66082 C124.44967,121.279701 125.296075,120.852484 126.103918,120.353198 C126.706533,119.97922 127.280389,119.568884 127.843134,119.141667 C126.934637,120.527201 125.910454,121.790673 124.772546,122.930785 M63.3539853,50.083819 C62.9409135,51.5225932 62.6335278,53.0346695 62.4016978,54.5916101 L57.0388875,54.5982326 C57.5426129,51.8477457 58.2988874,49.2676263 59.3173188,46.9128024 L63.3539853,50.083819" id="path20" fill="#FFFFFF"></path>
                        <path d="M125.16601,127.164651 L132.994114,136.717955 C113.248363,146.529019 84.8862724,132.593816 66.1379068,104.773403 L68.7594754,102.938577 C79.8267954,119.397478 94.9470564,129.787687 108.163396,130.766131 C113.701958,131.44851 118.981043,130.641472 123.609801,128.100244 C124.143788,127.808074 124.662088,127.495127 125.16601,127.164651" id="path22" fill="#AD0C3C"></path>
                        <path d="M146.243134,123.741069 C146.053591,124.091673 140.689539,121.48422 140.689539,121.48422 L144.898689,125.986882 C142.488232,129.694842 139.453591,132.802879 135.818297,135.145432 L126.15686,126.458249 C132.92614,121.481623 136.781042,112.929487 137.622219,102.626929 L151.814375,102.626929 C151.373199,110.601867 149.509147,117.819761 146.243134,123.741069" id="path24" fill="#AD0C3C"></path>
                        <path d="M118.973853,34.6616664 L120.352938,39.2273721 C119.37516,38.483248 107.008494,29.8324885 100.462743,25.2589917 L102.409148,16.2661339 C103.983658,17.063303 105.559474,17.9471493 107.120259,18.9091022 C107.28954,19.0138938 105.842481,25.9698734 105.842481,25.9698734 L109.637906,20.515517 C116.61503,25.2052325 123.35882,31.4503303 129.388232,38.9980512 L126.939866,40.9012456 C125.305879,39.6443309 120.31699,35.792104 118.973853,34.6616664" id="path26" fill="#AD0C3C"></path>
                        <path d="M54.1255542,54.6012842 L48.6721556,54.6078418 C48.4119596,48.1022582 49.0198681,41.9646789 50.4879072,36.4550049 L56.7759463,41.9862345 C55.3104561,45.7570434 54.4232666,50.0117505 54.1255542,54.6012842" id="path28" fill="#AD0C3C"></path>
                        <path d="M68.2019591,28.2755479 C64.3111749,30.4110498 61.2167959,33.5840792 58.9164691,37.5237622 L53.7339202,27.8677438 C56.7032012,22.058823 60.9469266,17.4003372 66.4542467,14.3850795 C75.9915014,9.15011015 87.6875795,9.71036205 99.3601282,14.8415786 L99.6111086,24.6642638 C97.699344,23.328723 96.4555531,22.4595501 96.4555531,22.4595501 C96.4555531,22.4595501 97.7130695,24.4194904 99.6797361,27.3828067 L99.6980367,28.0977788 L99.6980367,28.787884 L99.9241805,27.7490579 C101.209801,29.6831573 102.776468,32.0133741 104.48235,34.4864295 C92.0045729,25.4778594 78.4986908,22.6261519 68.2019591,28.2755479" id="path30" fill="#AD0C3C"></path>
                        <path d="M130.839866,137.470455 C111.488886,145.047393 84.159475,131.707567 65.2305212,105.407087 L66.7758153,104.326059 C85.1169913,130.075961 111.516337,143.568364 130.839866,137.470455 Z M112.316337,33.554148 L114.69869,30.5609004 C112.554246,28.6567322 110.393461,26.9394877 108.237252,25.4083879 L105.985618,29.1203732 C105.464703,28.7566543 104.950978,28.3975451 104.44771,28.044474 L107.550324,23.5412278 L109.800651,20.2545768 L112.609148,19.3481361 L111.583657,21.4840924 L108.921566,23.6619264 C111.481697,25.4537716 114.04052,27.4872737 116.572546,29.7805472 L117.205879,30.3565114 L113.820912,34.6097251 C113.332023,34.2663282 112.832677,33.9145557 112.316337,33.554148 Z M126.728755,129.228668 L127.001958,129.402672 L130.755552,133.985193 L126.631369,131.340082 C125.36601,131.97052 124.028755,132.493829 122.623526,132.902217 L127.04052,136.338784 L125.114376,136.743926 C122.712415,137.250354 120.159474,137.453574 117.4732,137.334109 L117.132677,137.319825 L113.417644,133.883259 C112.038559,133.798854 110.62418,133.619007 109.176468,133.339823 L112.351631,136.862092 L109.352285,136.051159 C106.633331,135.31554 103.841174,134.273468 100.994769,132.912605 L100.792154,132.815215 L98.4241805,129.666274 C96.871893,128.904035 95.3078408,128.035966 93.7326774,127.064664 L92.6568604,128.065183 C89.946403,126.20114 87.2405207,124.055964 84.5640502,121.629006 L84.4222201,121.501101 L83.517645,119.489674 C88.9843115,124.035836 94.7294094,127.343199 100.350324,129.180623 L101.995422,131.362807 C103.576468,132.110762 105.135945,132.755483 106.669278,133.29827 L103.816337,130.135693 C103.978429,130.171403 104.137252,130.194127 104.298037,130.22724 L106.785618,130.907671 C109.246402,131.58096 111.608494,131.964677 113.849017,132.077649 L114.183004,132.09453 L117.890847,135.522656 C119.567317,135.58109 121.181696,135.503178 122.726794,135.301256 L118.46601,131.982856 L120.390847,131.578363 C122.50784,131.132966 124.461435,130.427214 126.250324,129.479934 L126.728755,129.228668 Z M142.822872,123.764443 C142.782349,123.827422 142.746402,123.889102 142.708493,123.951432 L142.304572,124.614982 L136.485618,122.293855 C135.57516,123.707308 134.556859,125.021423 133.428101,126.225812 L138.874506,129.057262 L137.959474,129.93507 C136.953591,130.900529 135.858167,131.761456 134.711761,132.557457 L136.188885,133.707957 L139.703918,132.176337 L135.803918,135.295413 L126.14967,126.502399 L126.538559,126.189453 L133.209147,131.384882 C134.089539,130.800542 134.937905,130.175948 135.734637,129.485778 L130.355552,126.691985 L131.263395,125.812878 C132.811108,124.314372 134.165356,122.597712 135.322872,120.689518 L135.726794,120.023371 L141.463395,122.311385 L142.822872,123.764443 Z M148.176467,107.890531 L148.044441,108.817034 L141.720911,107.765223 C141.384964,109.872741 140.91699,111.915333 140.311761,113.879363 L146.462088,115.629785 L146.152284,116.53746 C145.471892,118.523565 144.64967,120.411632 143.695421,122.199711 C145.032023,122.461366 146.404572,122.72302 146.797382,122.774312 C146.697382,122.984025 146.50065,123.414489 146.40065,123.621604 C146.366663,123.691076 145.82614,123.954029 145.82614,123.954029 L140.771238,121.619267 C140.771238,121.619267 141.193461,121.704321 141.809147,121.825734 C142.677774,120.259054 143.445094,118.603425 144.089539,116.854302 L137.974506,115.113619 L138.276467,114.20984 C139.082349,111.803659 139.665356,109.252042 140.039866,106.584856 L140.170585,105.654458 L146.481696,106.706269 C146.64967,105.366184 146.767317,104.004023 146.841173,102.626929 L148.679735,102.626929 C148.584964,104.406568 148.422872,106.16543 148.176467,107.890531 Z M101.177775,25.7583424 C100.916991,25.5752493 100.664703,25.4005318 100.419605,25.2285411 L102.353592,16.2382803 L104.650978,14.2709385 L104.630063,17.609336 L101.177775,25.7583424 Z M123.550324,36.8483954 L124.186271,37.5833649 C125.095422,38.6366696 125.989539,39.7325662 126.873853,40.8505379 C126.016337,40.1903639 124.345749,38.9022195 122.726794,37.6392018 L123.550324,36.8483954 Z M49.3974497,54.6066082 L47.4769923,54.6103739 C47.1397374,48.0527842 47.6667308,41.6841958 49.077319,35.5349296 L50.5678419,36.752304 C49.4230053,42.5868058 49.0405216,48.533436 49.3974497,54.6066082 Z M99.8888864,27.6978308 C99.983004,27.8398253 100.075814,27.9808459 100.175814,28.1274503 L99.4045727,29.9448765 L99.8888864,27.6978308 Z M69.8705865,104.601348 L69.8751617,104.556548 C72.2254884,107.884688 74.7365994,110.955068 77.3653575,113.72289 L76.8019589,114.180623 C74.41307,111.416047 72.2562073,108.075572 70.0588218,104.875338 L69.8705865,104.601348 Z M54.736796,43.3463825 L54.8876457,43.7709377 C55.0934627,42.8132699 55.3408483,41.8789757 55.6056195,40.9563034 L56.1986914,41.4772097 L56.7759463,41.9862345 C55.0909137,46.4270862 54.4156196,50.6069978 54.1250313,54.6012842 L52.9894104,54.6025178 L52.3703255,53.3047643 L52.3679725,53.104141 C52.3235935,49.8365135 52.5160771,46.6302417 52.9595412,43.5223986 L54.736796,43.3463825 Z M95.9032656,25.5564855 L96.9548995,23.2345793 C97.4954224,24.0670037 98.44771,25.5257752 99.6803897,27.3828067 L99.6843112,27.5296708 C98.6823505,26.9607836 97.6901936,26.4231262 96.702612,25.9420199 L95.9032656,25.5564855 Z M97.1019584,22.9107253 L98.5274485,19.7650949 C96.3555531,18.7696398 94.226795,17.9704579 92.1496709,17.3607969 L90.1973834,23.3890398 L89.3483638,23.1554987 C86.8862723,22.4828588 84.5287561,22.1004409 82.2836581,21.9880529 L81.2098019,21.9348131 L82.4954228,15.8720292 C80.5960764,15.8524863 78.7810438,16.0069467 77.0542464,16.3232044 L76.392155,22.3530055 L75.7418282,22.4879231 C73.626142,22.9315018 71.674508,23.6399163 69.881044,24.5843391 L68.5065342,25.3089852 L68.6019591,19.5753793 C67.2267957,20.4227368 65.9477108,21.4017005 64.7661422,22.4957792 L65.1756846,27.9567582 L64.8679722,28.2534729 C63.321567,29.7539273 60.5701292,32.4199447 59.4107175,34.3286578 L58.731894,30.6849103 C58.1778417,31.7795733 57.6789528,32.9203342 57.2281031,34.0943375 L58.2710443,35.9539012 L59.5529397,36.4783785 C59.3201292,36.8400199 59.0982338,37.2088031 58.8799332,37.5833649 L57.541894,37.1380331 L52.6447699,30.1708212 L52.6585608,30.1538754 C52.5911752,30.0823262 52.5628091,30.001947 52.6018941,29.9116341 C55.5397372,23.2262038 60.0441815,17.8872869 66.0954232,14.5755093 C68.2071878,13.4139719 70.4379067,12.5582389 72.7418282,11.9640303 C71.1065342,12.5067521 69.5176453,13.179327 67.9869264,14.0190881 C61.737907,17.4386439 57.643724,22.7235418 54.7599986,29.6915328 L56.0786914,32.0433053 C56.7652273,30.4422145 57.5431358,28.9098811 58.4277763,27.4601344 L59.7245083,25.3343066 L60.555554,30.449811 C61.3850311,29.3052194 62.2918939,28.2352285 63.279737,27.2478892 L62.8691488,21.7750287 L63.1778416,21.4770154 C64.944116,19.7830796 66.9241813,18.3359299 69.1156845,17.1756261 L70.4941159,16.4439679 L70.3947695,22.3043106 C71.7562074,21.6946495 73.1960766,21.2064012 74.7084949,20.847292 L75.3699328,14.8040511 L76.0222203,14.6667962 C78.424181,14.1623812 80.9771222,13.9584466 83.6640502,14.0786907 L84.7464031,14.1268663 L83.4477103,20.2363324 C85.2392136,20.3882608 87.0862723,20.7006877 88.9830043,21.1739379 L90.9392134,15.1332291 L91.7869258,15.3609917 C94.2843114,16.0360988 96.841174,16.9744834 99.4450956,18.1786776 L99.4522851,18.4878583 L99.5405204,21.9672764 L98.6300629,23.9779893 C97.9908472,23.5333717 97.4732002,23.1696527 97.1019584,22.9107253 Z" id="path32" fill="#FFFFFF"></path>
                        <path d="M152.149669,40.0622636 L142.143787,47.0659643 C136.294114,44.8843645 132.781696,42.6664059 132.781696,42.6664059 L130.763395,43.6111533 C130.763395,43.6111533 130.416337,43.3555372 129.854245,42.9352671 L146.119604,31.5518107 C156.262088,24.4618875 165.57712,20.0351897 175.115028,17.6463442 C169.630715,25.759641 162.292153,32.9748726 152.149669,40.0622636 Z M51.4718941,102.626929 L62.7583644,102.626929 L55.2132012,107.90936 L51.4718941,102.626929 Z M117.392154,51.6562122 C118.438559,52.8340462 119.39869,53.8196325 120.22418,54.5246708 L113.284311,54.533306 L117.392154,51.6562122 Z" id="path34" fill="#FFFFFF"></path>
                        <path d="M117.374507,51.6382275 C118.428102,52.8236579 119.394115,53.8158018 120.224834,54.5254499 L113.237252,54.5325269 L117.374507,51.6382275 Z M167.42614,22.9731198 L136.461434,44.642383 C134.106533,43.4995444 132.781042,42.6659514 132.781042,42.6659514 L132.913722,45.1610169 C132.913722,45.1610169 130.409801,43.3496938 129.832023,42.9190354 L143.714375,33.2028949 C150.832676,28.2248402 160.139212,23.7976231 167.430061,22.9652637 C167.430061,22.9690943 167.428754,22.970328 167.42614,22.9731198 Z" id="path36" fill="#E8E5DE"></path>
                        <polyline id="path38" fill="#FFFFFF" points="44.4737897 100.049991 44.4737897 100.059081 46.0386263 100.059081 53.9481032 111.225812 61.0347697 116.984155 61.364639 121.299179 52.7262078 117.686661 40.2346395 100.049991 44.4737897 100.049991"></polyline>
                        <polyline id="path40" fill="#E8E5DE" points="44.4737897 100.049991 44.4737897 100.059081 46.0386263 100.059081 52.532417 109.225423 43.9220904 105.257107 40.2346395 100.049991 44.4737897 100.049991"></polyline>
                        <path d="M30.3015025,119.283856 C32.9437247,117.436694 37.7377115,114.022202 43.2623519,110.143485 L45.2118943,112.897024 C40.2693454,116.381636 34.9583651,119.874039 32.1310449,121.851055 C28.482679,124.400075 22.6728753,127.026357 21.787908,125.77587 C21.6018295,125.512917 27.3858817,121.321903 30.3015025,119.283856" id="path42" fill="#E8E5DE"></path>
                        <path d="M20.5486923,130.180493 C19.8684962,130.948575 14.8649669,136.867287 13.5547055,137.201009 C12.2459474,137.534083 10.5034638,136.569923 8.81967298,134.151406 C8.68718933,133.962469 8.56947691,133.777428 8.45816972,133.593686 C10.0058821,135.477207 11.6909147,134.955847 12.6062088,134.700685 C13.6284964,134.415657 19.0612414,129.732499 19.3734636,129.355925 C19.6872544,128.979999 21.2277772,129.412411 20.5486923,130.180493" id="path44" fill="#FFFFFF"></path>
                        <path d="M165.677774,67.7658729 L166.84444,68.9358508 L169.313068,71.4179959 C170.407185,71.0764818 171.575159,70.7726252 172.800649,70.4765597 L173.266662,70.367483 C175.267316,69.8948171 176.169277,69.6487452 176.56078,68.9838965 C172.675159,68.7943107 169.066662,68.3911163 165.677774,67.7658729 M159.791499,70.9024784 L159.791499,78.9774036 L159.788231,79.2397071 C159.787578,79.5072049 159.783656,79.9149441 159.827447,80.0181775 L159.843787,80.0441481 L160.047708,80.1512771 L160.103264,80.1817926 L160.331369,80.3058024 C161.137251,75.9485762 163.537251,73.729384 166.945094,72.2750274 L165.246401,71.991298 C163.396074,71.6854936 161.577774,71.3212552 159.791499,70.9024784 M192.645093,93.5034388 L191.850322,94.0416805 C187.092152,97.2698327 181.288231,97.2698327 176.173198,97.2698327 L175.741826,97.2698327 C170.739211,97.2698327 167.250323,96.4128011 164.765355,94.5721311 C162.55163,92.9294874 161.372545,91.3180084 160.735944,89.3903367 L145.141173,89.3903367 L145.141173,84.4604576 L143.099343,88.406049 L142.592153,89.3903367 L126.628755,89.3903367 L126.628755,80.6395253 L127.678428,80.1512771 C127.834637,80.07791 127.890193,80.0272672 127.894114,80.0272672 C127.941173,79.9149441 127.937905,79.5130483 127.933984,79.2487969 L127.932677,78.9774036 L127.932677,67.5087634 L127.933984,67.2373701 C127.937905,66.9718202 127.941173,66.5686258 127.904572,66.4738329 C127.901958,66.4725344 127.852938,66.4192945 127.679082,66.3387855 L127.126794,66.0810268 L126.794114,66.2511346 C126.474507,66.4153989 126.320912,66.9094906 126.106533,67.7009462 C126.044441,67.9405255 125.977121,68.1736121 125.912415,68.3950119 L120.984311,87.9190992 L120.639866,89.2864541 L100.453592,89.2864541 L100.090194,87.9522118 L97.0601283,76.8679373 L97.0601283,89.335149 L61.2821553,89.335149 L61.2821553,89.3591719 L43.8495414,89.3591719 L43.8495414,97.0360968 L7.00620898,97.0360968 L7.00620898,75.5285009 L9.01627428,75.7369154 L17.5076466,76.6147234 L17.6105224,76.6231639 L17.6105224,66.6601723 L17.6115682,66.388779 C17.6141172,66.1232291 17.6179734,65.7213332 17.578627,65.6252418 C17.578627,65.6252418 17.5283656,65.5707035 17.3532022,65.4875974 L16.3054244,65.0019462 L16.3054244,54.2956745 L34.5503913,54.2956745 L34.5503913,65.0019462 L33.5041168,65.4875974 C33.3471233,65.5596659 33.2907181,65.6142043 33.2858162,65.6142043 C33.2403913,65.7278259 33.2439861,66.1245276 33.2452279,66.388779 L33.2465351,66.6601723 L33.2465351,76.6231639 L33.3496724,76.6147234 L44.4058812,75.4681191 L44.4058812,67.4750016 L44.4071884,67.205556 C44.4097375,66.9413047 44.4132669,66.5446029 44.3765348,66.4491608 C44.3765348,66.4491608 44.328561,66.3959209 44.1559466,66.3154119 L43.1091492,65.8284622 L43.1091492,57.0963497 L61.2821553,57.0963497 L61.2821553,65.8284622 L60.2343776,66.3154119 C60.0834626,66.3848834 60.028626,66.437474 60.0234626,66.437474 C59.976992,66.5504463 59.9821554,66.9439017 59.9841815,67.205556 L59.9854233,67.4750016 L59.9854233,71.930267 L70.6816976,72.776261 L70.8300636,72.7872985 L70.8300636,67.4866884 L70.8313708,67.2178921 C70.8339852,66.9523422 70.8372531,66.5491478 70.7980374,66.4530564 C70.7980374,66.4530564 70.7490178,66.3972195 70.5738544,66.3154119 L69.5261421,65.8284622 L69.5261421,57.0464211 L87.7627429,57.0464211 L87.7627429,65.8284622 L86.7156841,66.3154119 C86.5581678,66.388779 86.5039194,66.4413696 86.4986906,66.4413696 C86.4516318,66.5543419 86.4548998,66.9536407 86.4588214,67.2178921 L86.4588214,67.4866884 L86.4588214,72.7872985 L86.607841,72.776261 L95.0980368,72.1140094 L95.7490172,72.0640159 L94.6078408,67.8885842 C94.257514,66.4920124 93.9673179,66.4115033 93.9548996,66.408257 L92.533331,66.0920643 L92.533331,57.0464211 L111.039867,57.0464211 L111.039867,66.0089582 L109.715684,66.3809878 C109.709801,66.3835849 109.706533,66.3848834 109.702612,66.3874805 C109.76601,66.6796503 109.873853,67.1432265 110.032677,67.8041796 C110.526141,67.3587829 111.132677,66.6867923 111.848363,65.6557574 C114.05686,62.4781831 113.914376,58.9871431 113.913069,58.9508491 L113.820912,57.0464211 L127.778428,57.0464211 L127.778428,57.1004401 L128.044441,57.1004401 C122.026141,53.4833125 104.881697,31.1082319 104.881697,31.1082319 C104.881697,31.1082319 121.611762,44.2878187 125.735291,46.8881952 L125.220912,43.7443178 C125.220912,43.7443178 129.807186,48.2534074 141.296075,53.5028554 L136.701304,47.2878835 C136.701304,47.2878835 141.03333,49.0949215 145.224179,50.783793 C151.165356,53.1840657 167.953591,54.3877405 175.043133,54.3877405 C175.380388,54.3877405 175.715028,54.3877405 176.058819,54.386442 C187.047054,54.386442 192.618949,59.2488623 192.618949,68.8430057 L192.618949,69.0170091 L192.621564,69.5610942 C192.629407,71.1985439 192.63725,73.0489529 191.974505,74.8065168 C191.347054,76.645239 190.17908,78.0840131 188.286923,79.3390449 C187.456204,79.8818315 186.496727,80.358393 185.476466,80.7791176 L192.645093,80.7791176 L192.645093,93.5034388" id="path46" fill="#FFFFFF"></path>
                        <path d="M190.824178,82.5892721 L190.824178,92.5477188 C186.466008,95.5012312 180.952283,95.4596782 175.742479,95.4596782 C172.146401,95.4596782 168.417643,95.0188263 165.856205,93.123618 C162.7098,90.7882071 162.037251,88.7618469 161.858819,84.705231 L161.858819,83.8676774 C161.858819,75.7135418 165.945094,73.9968817 173.224832,72.2360714 C176.550976,71.4433173 178.666009,71.1336172 178.666009,67.2555495 C171.150976,67.0373961 165.096074,66.0621981 159.915029,64.5540823 L165.548362,70.2084127 C153.254898,68.1638731 141.201304,63.4574065 130.444441,54.5642111 C130.572546,55.3894935 130.707186,56.2135423 130.84052,57.0393441 C124.983657,52.4178665 119.799343,46.8082705 114.852285,40.9836375 C118.62418,44.0838841 124.22418,48.135241 128.227448,50.7771705 C128.088886,49.9501351 127.949016,49.1253721 127.813069,48.2958045 C135.649016,54.8904025 142.532023,57.6185546 150.501957,59.2863899 L143.408493,52.2867147 C152.685617,55.2193208 165.188231,56.2647694 176.059473,56.1939994 C187.516335,56.1939994 190.797381,61.5725215 190.797381,68.8423564 L190.797381,69.0189569 C190.797381,70.7810656 190.880387,72.5873245 190.252936,74.2176322 C189.713067,75.8024913 188.681041,76.9029977 187.28627,77.8256051 C184.86078,79.4156583 180.996074,80.4285138 178.121564,81.1797149 C177.133329,81.4426677 175.425486,81.9711705 174.75163,82.6782215 C174.121564,83.2943753 174.032675,84.0442779 174.032675,84.7928819 C174.032675,85.4174761 174.237251,85.9777929 174.584963,86.4115028 L170.227447,87.3068411 L176.454244,87.3068411 L176.437904,87.2958036 C176.476466,87.2971021 176.508492,87.3055426 176.547054,87.3055426 C178.882348,87.3055426 179.282348,85.3200862 179.282348,83.6462776 L179.282348,82.5892721 L190.824178,82.5892721 Z M140.402611,62.5560301 L140.402611,64.7001672 C138.962742,65.3681324 139.098689,66.4381233 139.098689,67.5087634 L139.098689,71.7900255 L139.189539,71.7900255 L143.420911,64.1599127 C147.992153,66.4348769 152.848362,68.2450314 157.969931,69.5844678 L157.969931,78.9787021 C157.969931,79.6786112 157.914375,80.3798188 158.276467,80.9680541 L153.971238,81.7517185 L159.198689,81.7517185 C159.223525,81.7653531 159.245748,81.7770399 159.271891,81.7880774 L159.271891,87.5808315 L146.962741,87.5808315 L146.962741,81.7880774 C148.399996,81.1212809 148.265356,80.0499915 148.265356,78.9787021 L148.265356,74.6305656 L148.175813,74.6305656 L141.479735,87.5808315 L128.450324,87.5808315 L128.450324,81.7880774 C129.888886,81.1212809 129.752938,80.0499915 129.752938,78.9787021 L129.752938,67.5087634 C129.752938,66.4381233 129.888886,65.3681324 128.450324,64.7001672 L128.450324,58.9079975 L134.56797,58.9079975 C136.451631,60.2161393 138.396075,61.4348121 140.402611,62.5560301 Z M44.9295414,81.6958816 C46.3620903,81.0297344 46.2275152,79.9649376 46.2275152,78.8981931 L46.2275152,67.4743523 C46.2275152,66.4115033 46.3620903,65.3480051 44.9295414,64.6806243 L44.9295414,58.9039071 L59.46026,58.9039071 L59.46026,64.6806243 C58.0299985,65.3480051 58.163528,66.4115033 58.163528,67.4743523 L58.163528,78.8981931 C58.163528,79.6117367 58.106077,80.3285268 58.4982338,80.9213069 L58.4860116,80.9154635 L54.196796,81.6984787 L59.46026,81.6984787 L59.46026,87.5516145 L44.9295414,87.5516145 L44.9295414,81.6958816 Z M8.82686252,77.5321367 L17.3192153,78.4125419 L17.3192153,85.4200732 C17.3192153,86.7244492 17.7236597,87.4263061 19.4306531,87.4587694 L19.4306531,66.6601723 C19.4306531,65.59148 19.5656858,64.5221384 18.1267969,63.8515112 L18.1267969,56.1032319 L32.7298031,56.1032319 L32.7298031,63.8515112 C31.2923522,64.5221384 31.4258816,65.59148 31.4258816,66.6601723 L31.4258816,86.5030494 L26.8142477,87.462665 L31.4516986,87.462665 L31.4516986,87.4587694 C33.1380384,87.4198134 33.5386266,86.7173073 33.5386266,85.4200732 L33.5386266,78.4125419 L42.0289532,77.5321367 L42.0289532,95.2272408 L8.82686252,95.2272408 L8.82686252,77.5321367 Z M109.177121,71.8133991 L111.356206,81.1349155 L111.444442,81.1349155 L113.549017,71.8133991 L109.177121,71.8133991 Z M115.730716,58.8539785 L125.95686,58.8539785 L125.95686,64.6456288 C124.654899,65.3148925 124.518951,66.7867793 124.160128,67.8911813 L119.216337,87.4782474 L101.850978,87.4782474 L96.3745074,67.4548743 C96.1496708,66.5530434 95.7019584,64.9480571 94.354246,64.6456288 L94.354246,58.8539785 L109.21503,58.8539785 L109.21503,64.6456288 C108.268625,64.9157236 107.820259,65.4499399 107.820259,66.218022 C107.820259,66.4381233 108.362089,68.6638082 108.644442,69.8169051 C108.500651,69.950654 108.288886,70.1214111 108.018298,70.2746379 C107.534638,70.5460312 106.76405,70.7602891 106.76405,70.7602891 C106.76405,70.7602891 108.015684,70.8797541 109.281043,70.3941029 C110.137906,70.0675219 111.494768,69.3468363 113.34771,66.6809489 C115.969278,62.9131266 115.730716,58.8539785 115.730716,58.8539785 Z M95.2411741,73.9170219 L95.2411741,87.5256438 L62.0458154,87.5256438 L62.0458154,73.9170219 L70.5385603,74.577975 L70.5385603,79.6117367 C70.5385603,80.916762 70.9431355,81.6205667 72.650325,81.65303 L72.650325,67.4879869 C72.650325,66.4192945 72.7849655,65.3512515 71.3477106,64.6806243 L71.3477106,58.8539785 L85.9405207,58.8539785 L85.9405207,64.6806243 C84.5045731,65.3512515 84.6405208,66.4192945 84.6405208,67.4879869 L84.6405208,80.69731 L80.0261418,81.6543286 L84.6647038,81.6543286 L84.6647038,81.6517315 C86.3483639,81.611477 86.7509782,80.9102694 86.7509782,79.6117367 L86.7509782,74.577975 L95.2411741,73.9170219 Z" id="path48" fill="#AD0C3C"></path>
                        <path d="M93.7522852,74.0325913 L95.2405205,73.9163726 L95.2405205,87.5256438 L93.7522852,87.5256438 L93.7522852,74.0325913 Z M57.9718286,81.6984787 L59.4594756,81.6984787 L59.4594756,87.5509652 L57.9718286,87.5509652 L57.9718286,81.6984787 Z M69.0503251,79.6117367 L69.0503251,74.5773258 L62.0465998,74.0325913 L62.0465998,73.9163726 L70.5379067,74.5773258 L70.5379067,79.6117367 C70.5379067,80.3882593 70.8189525,81.065444 71.3267956,81.2868438 C71.8359459,81.5082436 72.6509786,81.65303 72.6509786,81.65303 C69.6091486,81.65303 69.0503251,80.916762 69.0503251,79.6117367 Z M107.820912,66.218022 C107.820912,66.4381233 108.361435,68.6638082 108.645095,69.8162559 C108.501304,69.950654 108.288233,70.1207618 108.017644,70.2746379 C107.927448,70.3239821 107.824834,70.3726771 107.719605,70.4194243 C106.479082,70.8719629 105.274507,70.7602891 105.274507,70.7602891 C105.274507,70.7602891 106.045095,70.545382 106.526795,70.2746379 C106.79869,70.1207618 107.011108,69.950654 107.154246,69.8162559 C106.872546,68.6638082 106.33137,66.4381233 106.33137,66.218022 C106.33137,65.4499399 106.779082,64.9157236 107.725488,64.6456288 L107.725488,58.8539785 L109.214376,58.8539785 L109.214376,64.6456288 C108.267971,64.9157236 107.820912,65.4499399 107.820912,66.218022 Z M84.6398672,67.4879869 L84.6398672,80.69731 L80.0267954,81.6543286 L78.5379065,81.6543286 L83.1522855,80.69731 L83.1522855,67.4879869 C83.1522855,66.4192945 83.0156842,65.3512515 84.4522855,64.6806243 L84.4522855,58.8539785 L85.9411743,58.8539785 L85.9411743,64.6806243 C84.5039195,65.3512515 84.6398672,66.4192945 84.6398672,67.4879869 Z M175.741826,95.4596782 C175.681041,95.4596782 175.617643,95.4570811 175.556858,95.4570811 C180.371237,95.444745 185.337904,95.2551593 189.334636,92.5477188 L189.334636,82.5892721 L190.824832,82.5892721 L190.824832,92.5477188 C186.465355,95.500582 180.952937,95.4596782 175.741826,95.4596782 Z M107.687579,71.8133991 L109.177775,71.8133991 L111.410455,81.2407459 L110.721566,84.2909991 L107.687579,71.8133991 Z M187.286923,77.8256051 C184.861433,79.4156583 180.996728,80.4285138 178.120911,81.1797149 C177.133982,81.4426677 175.424832,81.9711705 174.752283,82.6782215 C174.122218,83.2943753 174.033329,84.0442779 174.033329,84.7928819 C174.033329,85.4174761 174.236597,85.9771437 174.585617,86.4115028 L170.226793,87.3068411 L168.736597,87.3068411 L173.095421,86.4115028 C172.747708,85.9771437 172.542479,85.4174761 172.542479,84.7928819 C172.542479,84.0442779 172.632675,83.2943753 173.262087,82.6782215 C173.934636,81.9711705 175.643133,81.4426677 176.632022,81.1797149 C179.506531,80.4285138 183.371891,79.4156583 185.79542,77.8256051 C187.190845,76.9029977 188.222871,75.8024913 188.763394,74.2176322 C189.390191,72.5873245 189.307838,70.7804164 189.307838,69.0189569 L189.307838,68.8423564 C189.307838,61.6732227 186.11176,56.3512517 175.042479,56.2018555 L175.042479,56.1939994 C175.382349,56.1939994 175.724179,56.1952979 176.060126,56.1939994 C187.515682,56.1939994 190.798034,61.5725215 190.798034,68.8423564 L190.798034,69.0189569 C190.798034,70.7804164 190.879734,72.5873245 190.25359,74.2176322 C189.713067,75.8024913 188.681695,76.9029977 187.286923,77.8256051 Z M156.479081,78.9787021 L156.479081,69.2033485 L157.969277,69.5844678 L157.969277,78.9787021 C157.969277,79.6786112 157.913722,80.3798188 158.27712,80.9680541 L153.971892,81.7517185 L152.481696,81.7517185 L156.786924,80.9680541 C156.422872,80.3798188 156.479081,79.6786112 156.479081,78.9787021 Z M148.230062,71.8568999 L148.230062,74.5623926 L141.479081,87.5801822 L139.990193,87.5801822 L148.230062,71.8568999 Z M58.1640508,67.4743523 L58.1640508,78.8981931 C58.1640508,79.6117367 58.1065999,80.3285268 58.4977763,80.9213069 L58.4865345,80.9154635 L54.1973189,81.6984787 L52.7093451,81.6984787 L56.9975803,80.9154635 L57.0098025,80.9213069 C56.6176456,80.3285268 56.6750966,79.6117367 56.6750966,78.8981931 L56.6750966,67.4743523 C56.6750966,66.4115033 56.5418287,65.3480051 57.9718286,64.6806243 L57.9718286,58.9039071 L59.4607828,58.9039071 L59.4607828,64.6806243 C58.029541,65.3480051 58.1640508,66.4115033 58.1640508,67.4743523 Z M159.271238,81.7880774 L159.271238,87.5801822 L157.780388,87.5801822 L157.780388,81.7880774 C157.756205,81.7770399 157.733983,81.7653531 157.7098,81.7517185 L159.199342,81.7517185 C159.224179,81.7653531 159.245748,81.7770399 159.271238,81.7880774 Z M140.401957,62.5560301 L140.401957,64.7001672 C138.962088,65.3681324 139.099343,66.4381233 139.099343,67.5087634 L139.099343,71.849758 L137.609147,74.3831951 L137.609147,67.5087634 C137.609147,66.4381233 137.471892,65.3681324 138.911761,64.7001672 L138.911761,61.6724436 L140.401957,62.5560301 Z M31.4264044,66.6601723 L31.4264044,86.5030494 L26.8137248,87.462665 L25.325751,87.462665 L29.9374502,86.5030494 L29.9374502,66.6601723 C29.9374502,65.59148 29.8039208,64.5221384 31.2400646,63.8515112 L31.2400646,56.1032319 L32.7292802,56.1032319 L32.7292802,63.8515112 C31.2918946,64.5221384 31.4264044,65.59148 31.4264044,66.6601723 Z M40.5405219,77.6860129 L42.0294761,77.5321367 L42.0294761,95.2265916 L40.5405219,95.2265916 L40.5405219,77.6860129 Z M124.467317,64.6456288 L124.467317,58.8539785 L125.95686,58.8539785 L125.95686,64.6456288 C124.655552,65.3148925 124.518298,66.78613 124.159474,67.890532 L119.215683,87.4782474 L117.725487,87.4782474 L122.670585,67.890532 C123.028101,66.78613 123.165356,65.3148925 124.467317,64.6456288 Z M15.8307839,85.4194239 L15.8307839,78.2515238 L17.3199996,78.4125419 L17.3199996,85.4194239 C17.3199996,86.1959464 17.5038558,86.8497576 17.9422218,87.0932325 C18.3823525,87.3367073 19.4314374,87.4600679 19.4314374,87.4600679 C16.0820257,87.4600679 15.8307839,86.7244492 15.8307839,85.4194239 Z" id="path50" fill="#19336E"></path>
                        <path d="M50.0704563,94.220878 L53.5480379,94.220878 C54.3864692,94.220878 54.7130052,94.4578603 54.7130052,95.3609897 L54.7130052,96.219969 C54.7130052,97.1230985 54.3864692,97.3600807 53.5480379,97.3600807 L50.0704563,97.3600807 L50.0704563,94.220878 Z M48.1109792,98.9377978 L54.0247045,98.9377978 C55.984247,98.9377978 56.6725476,98.2976212 56.6725476,96.7289938 L56.6725476,94.8000236 C56.6725476,93.2300977 55.984247,92.5899211 54.0247045,92.5899211 L48.1109792,92.5899211 L48.1109792,98.9377978 Z" id="path52" fill="#FFFFFF"></path>
                        <polyline id="path54" fill="#FFFFFF" points="57.8523515 98.9377978 64.8427435 98.9377978 64.8427435 97.4652618 59.8118286 97.4652618 59.8118286 96.4485108 64.5779722 96.4485108 64.5779722 95.132448 59.8118286 95.132448 59.8118286 94.1156969 64.957384 94.1156969 64.957384 92.5899211 57.8523515 92.5899211 57.8523515 98.9377978"></polyline>
                        <polyline id="path56" fill="#FFFFFF" points="65.669933 98.9377978 73.1365995 98.9377978 73.1365995 97.3600807 70.3830048 97.3600807 70.3830048 92.5899211 68.4235277 92.5899211 68.4235277 97.3600807 65.669933 97.3600807 65.669933 98.9377978"></polyline>
                        <path d="M75.9503249,95.8167746 L79.1895405,95.8167746 C79.7189523,95.8167746 79.9130699,96.0271369 79.9130699,96.4829219 L79.9130699,96.6932842 C79.9130699,97.2548995 79.630717,97.3600807 79.0130699,97.3600807 L75.9503249,97.3600807 L75.9503249,95.8167746 Z M73.9908478,98.9377978 L79.9039196,98.9377978 C81.4137235,98.9377978 81.8196058,98.1924401 81.8196058,97.0529777 L81.8196058,96.6497833 C81.8196058,95.7992445 81.6254882,95.2993094 80.7248346,95.0889471 L80.7248346,95.0714169 C81.3071875,94.9662358 81.7928084,94.7123726 81.7928084,93.6690017 L81.7928084,92.5899211 L79.8339849,92.5899211 L79.8339849,93.352809 C79.8339849,94.0196055 79.6392137,94.2384082 79.030717,94.2384082 L75.9503249,94.2384082 L75.9503249,92.5899211 L73.9908478,92.5899211 L73.9908478,98.9377978 Z" id="path58" fill="#FFFFFF"></path>
                        <path d="M85.0117626,95.42267 C85.0117626,94.5020104 85.2058802,94.1507573 86.1326776,94.1507573 L88.6392135,94.1507573 C89.5660108,94.1507573 89.7601285,94.5020104 89.7601285,95.42267 L89.7601285,96.1063474 C89.7601285,96.895206 89.5660108,97.3776109 88.5333311,97.3776109 L86.2385599,97.3776109 C85.2058802,97.3776109 85.0117626,96.895206 85.0117626,96.1063474 L85.0117626,95.42267 Z M82.9993443,96.7108144 C82.9993443,98.5703131 84.0496711,99.0085678 85.8150305,99.0085678 L88.9575141,99.0085678 C90.72222,99.0085678 91.7725467,98.5703131 91.7725467,96.7108144 L91.7725467,94.8175538 C91.7725467,92.9587043 90.72222,92.5204496 88.9575141,92.5204496 L85.8150305,92.5204496 C84.0496711,92.5204496 82.9993443,92.9587043 82.9993443,94.8175538 L82.9993443,96.7108144 Z" id="path60" fill="#FFFFFF"></path>
                        <polyline id="path62" fill="#FFFFFF" points="93.0588212 98.9377978 95.0176447 98.9377978 95.0176447 92.5899211 93.0588212 92.5899211 93.0588212 98.9377978"></polyline>
                        <polyline id="path64" fill="#FFFFFF" points="95.9790826 98.9377978 103.445749 98.9377978 103.445749 97.3600807 100.692154 97.3600807 100.692154 92.5899211 98.7333309 92.5899211 98.7333309 97.3600807 95.9790826 97.3600807 95.9790826 98.9377978"></polyline>
                        <polyline id="path66" fill="#FFFFFF" points="108.658167 98.9377978 111.667971 98.9377978 113.883004 94.8519649 116.09869 98.9377978 119.108494 98.9377978 119.108494 92.5899211 117.201958 92.5899211 117.201958 97.1497184 117.184311 97.1497184 114.615683 92.5899211 113.150978 92.5899211 110.58235 97.1497184 110.564703 97.1497184 110.564703 92.5899211 108.658167 92.5899211 108.658167 98.9377978"></polyline>
                        <polyline id="path68" fill="#FFFFFF" points="120.428755 98.9377978 127.418951 98.9377978 127.418951 97.4652618 122.388232 97.4652618 122.388232 96.4485108 127.154245 96.4485108 127.154245 95.132448 122.388232 95.132448 122.388232 94.1156969 127.533984 94.1156969 127.533984 92.5899211 120.428755 92.5899211 120.428755 98.9377978"></polyline>
                        <path d="M130.673853,95.8167746 L133.913069,95.8167746 C134.44248,95.8167746 134.636598,96.0271369 134.636598,96.4829219 L134.636598,96.6932842 C134.636598,97.2548995 134.354245,97.3600807 133.735944,97.3600807 L130.673853,97.3600807 L130.673853,95.8167746 Z M128.714376,98.9377978 L134.627448,98.9377978 C136.137251,98.9377978 136.543134,98.1924401 136.543134,97.0529777 L136.543134,96.6497833 C136.543134,95.7992445 136.348363,95.2993094 135.448363,95.0889471 L135.448363,95.0714169 C136.031369,94.9662358 136.516336,94.7123726 136.516336,93.6690017 L136.516336,92.5899211 L134.556859,92.5899211 L134.556859,93.352809 C134.556859,94.0196055 134.362742,94.2384082 133.754245,94.2384082 L130.673853,94.2384082 L130.673853,92.5899211 L128.714376,92.5899211 L128.714376,98.9377978 Z" id="path70" fill="#FFFFFF"></path>
                        <path d="M137.722872,96.7108144 C137.722872,98.5703131 138.772546,99.0085678 140.537905,99.0085678 L142.841826,99.0085678 C145.630715,99.0085678 145.992807,98.4125414 145.97516,96.6147229 L144.015683,96.6147229 L144.015683,96.7900248 C144.015683,97.2458098 143.680389,97.3776109 143.097382,97.3776109 L140.962088,97.3776109 C139.929408,97.3776109 139.735291,96.895206 139.735291,96.1063474 L139.735291,95.42267 C139.735291,94.5020104 139.929408,94.1507573 140.856206,94.1507573 L142.947709,94.1507573 C143.830715,94.1507573 144.095421,94.2384082 144.095421,95.0272668 L146.054898,95.0272668 L146.054898,94.4318896 C146.054898,93.3618987 145.666009,92.5204496 143.697382,92.5204496 L140.537905,92.5204496 C138.772546,92.5204496 137.722872,92.9587043 137.722872,94.8175538 L137.722872,96.7108144" id="path72" fill="#FFFFFF"></path>
                        <polyline id="path74" fill="#FFFFFF" points="149.732676 94.8000236 146.19346 98.9377978 148.55882 98.9377978 150.712415 96.3433296 152.866009 98.9377978 155.231369 98.9377978 151.692153 94.8000236 151.692153 92.5899211 149.732676 92.5899211 149.732676 94.8000236"></polyline>
                    </g>
                </g>
            </g>
        </g>
    </g>
</svg>