<svg width="200" height="200" xmlns="http://www.w3.org/2000/svg"><g fill-rule="nonzero" fill="none"><path d="M199.654 79.39c0-1.278-.619-2.478-1.656-3.225-4.963-3.562-12.973-5.775-20.905-5.775-.553 0-1.104.01-1.653.033l-13.311.001c-1.545-17.601-9.11-32.21-22.315-39.578-.258-.145-.514-.275-.775-.41l-2.32 1.967-1.377-3.671c-20.388-8.09-46.613 2.118-66.63 24.534l.059-2.82-3.657-5.756-16.162 5.086-3.181 4.52c-4.34-3.128-9.462-6.765-11.639-8.1-2.813-1.721-5.801-3.155-8.18-4.191a5.863 5.863 0 0 0-.583-.782c-7.8-8.782-8.704-10.192-11.884-10.133-3.942.072-7.32 2.422-9.68 5.832-2.354 3.405-3.143 7.191-2.223 10.656.827 3.128 2.8 3.894 13.733 8.147.234.089.472.166.713.225 1.798 1.911 4.19 4.28 6.775 6.353 1.97 1.58 7.04 5.117 11.421 8.128H3.971A3.97 3.97 0 0 0 0 74.4v28.047c0 1.123.477 2.197 1.313 2.95a3.978 3.978 0 0 0 3.068 1l5.417-.566a3.958 3.958 0 0 0-.498 1.924v15.74a3.97 3.97 0 0 0 3.97 3.97h24.316c1.135 0 2.15-.486 2.873-1.249.205 6.892 1.286 13.403 3.233 19.292l3.296 1.153-2.04 2.674c3.777 8.825 10.085 16.444 18.084 20.91 11.955 6.673 26.458 6.257 40.697.177l.463-3.237 2.047 2.112a74.854 74.854 0 0 0 4.677-2.433l.313-4.11 4.36 1.255c7.02-4.624 13.776-10.6 19.908-17.737l7.685 5.416c24.62 16.895 44.438 14.97 44.438 14.97s-4.042-18.447-29.09-36.777l-2.51-1.768c5.778-.983 10.497-1.02 14.79-1.051 6.075-.045 11.81-.088 18.167-2.913.077-.036.153-.073.228-.112 6.89-3.604 10.396-9.706 10.42-18.133.067-2.038.022-4.461-.594-6.936a3.948 3.948 0 0 0 .623-2.134V79.39" fill="#E8E5DE"/><path d="M195.682 79.39c-4.707-3.378-12.69-5.308-20.172-4.998h-17.317c-.528-17.434-7.182-32.03-19.686-39.282-.232-.135-.466-.26-.704-.388l-2.194 1.837-1.174-3.449c-21.785-8.97-51.577 5.52-71.33 34.4l-4.918-3.466 6.438-5.224.151-7.257-1.377-2.17-11.973 3.766-4.716 6.703c-2.483-1.816-11.224-8.178-14.65-10.279-3.296-2.018-6.912-3.633-9.19-4.57-.035-.432-.178-.823-.47-1.15-6.876-7.745-8.01-8.894-9.024-8.798-1.958.185-4.314 1.239-6.305 4.115-1.99 2.879-2.157 5.474-1.65 7.384.263.99 1.304 1.559 11.343 5.463.365.142.738.152 1.109.066 1.652 1.826 4.397 4.691 7.415 7.113 3.135 2.516 12.074 8.595 14.621 10.32l-3.428 4.875H3.97v28.049l10.604-1.103v5.799l-1.304.61v15.74h24.314v-3.363l6.853.007c-.392 7.963.41 15.473 2.397 22.14l3.383 1.266-1.981 2.808c3.262 8.29 8.554 14.988 15.825 19.206 10.982 6.373 24.555 5.964 37.994.145l.136-3.792 2.204 2.723a69.194 69.194 0 0 0 3.965-2.06l.079-4.363 4.305 1.703c7.723-5.042 15.152-11.824 21.758-20.056l10.965 8.58c10.645 7.491 24.708 13.638 36.216 14.038-4.261-10.698-14.796-21.86-25.44-29.35l-9.74-6.86c.638-.193 1.29-.382 1.963-.562 18.839-5.04 27.692-.205 38.898-5.184 4.983-2.609 8.29-7.037 8.29-14.706.104-3.078-.136-6.255-1.709-8.981h1.736V79.39" fill="#19336E"/><path d="m69.32 120.17-2.023 2.671.22-.253-8.24 11.565a25.372 25.372 0 0 0 2.81 3.922l3.704-3.683-2.004 5.417a21.3 21.3 0 0 0 4.121 2.99c12.965 7.162 31.395-.201 45.834-16.711l-8.34-5.876-36.082-.043Zm-14.397-.018c.432 3.816 1.297 7.356 2.61 10.504l11.774-10.487-14.384-.017Zm79.515-48.345c-.495-9.7-3.653-17.886-9.419-22.971l-5.34 5.756 4.458-6.513a21.49 21.49 0 0 0-2.934-1.954c-15.05-8.313-37.463 2.942-52.444 25.368l.445.314h65.234Z" fill="#E8E5DE"/><path d="M69.258 71.807h24.32c-.026-1.834-.573-3.458-1.645-4.54-1.786-1.808-4.833-1.922-7.95-.617C96.16 54.869 110.64 48.847 120.58 51.573l1.664-2.41a20.811 20.811 0 0 0-2.44-1.565c-14.735-8.038-36.364 2.711-50.546 24.209m-4.792 56.248 3.1-5.503-8.358 11.692.958 1.436 1.721-3.054c.65.948 1.347 1.845 2.108 2.675l2.68-3.11c-.882-1.361-1.58-2.595-2.21-4.136m2.817 5.018-1.657 3.835a21.066 21.066 0 0 0 3.953 2.806c4.467 2.438 9.572 3.144 14.908 2.35-4.006-.11-7.773-1.142-11.096-3.203-2.425-1.504-4.45-3.469-6.108-5.788m57.49-81.706-1.18 1.279c.858.383 1.704.813 2.512 1.316.603.377 1.176.79 1.74 1.22a24.018 24.018 0 0 0-3.071-3.815M63.354 124.7a35.542 35.542 0 0 1-.952-4.538l-5.363-.007c.504 2.77 1.26 5.367 2.278 7.737l4.037-3.192" fill="#FFF"/><path d="m125.166 47.105 7.828-9.617c-19.746-9.876-48.108 4.152-66.856 32.158l2.621 1.847c11.068-16.569 26.188-27.028 39.404-28.013 5.539-.687 10.818.125 15.447 2.683.534.295 1.052.61 1.556.942M146.243 50.552c-.19-.353-5.553 2.272-5.553 2.272l4.209-4.533c-2.41-3.733-5.445-6.862-9.08-9.22l-9.662 8.745c6.77 5.01 10.624 13.62 11.465 23.99h14.192c-.44-8.028-2.305-15.294-5.57-21.254M118.974 140.225l1.379-4.596c-.978.749-13.345 9.457-19.89 14.061l1.946 9.053a64.562 64.562 0 0 0 4.711-2.66c.17-.106-1.278-7.108-1.278-7.108l3.796 5.49c6.977-4.72 13.72-11.007 19.75-18.605l-2.448-1.916c-1.634 1.265-6.623 5.143-7.966 6.28M54.126 120.152l-5.454-.006c-.26 6.549.348 12.727 1.816 18.274l6.288-5.568c-1.466-3.796-2.353-8.08-2.65-12.7" fill="#AD0C3C"/><path d="M68.202 146.654c-3.89-2.15-6.985-5.344-9.286-9.31l-5.182 9.72c2.97 5.848 7.213 10.537 12.72 13.573 9.538 5.27 21.234 4.706 32.906-.46l.251-9.888c-1.912 1.344-3.155 2.22-3.155 2.22s1.257-1.974 3.224-4.957l.018-.72v-.694l.226 1.046a480.187 480.187 0 0 1 4.558-6.783c-12.477 9.069-25.983 11.94-36.28 6.253" fill="#AD0C3C"/><path d="M130.84 36.73c-19.351-7.627-46.68 5.802-65.61 32.278l1.546 1.088c18.341-25.921 44.74-39.504 64.064-33.365Zm-18.524 104.61 2.383 3.013a76.247 76.247 0 0 1-6.462 5.187l-2.251-3.737-1.538 1.083 3.102 4.533 2.25 3.309 2.81.913-1.026-2.15-2.662-2.193a78.318 78.318 0 0 0 7.65-6.16l.634-.58-3.385-4.28c-.489.345-.988.699-1.505 1.062Zm14.413-96.313.273-.175 3.754-4.613-4.125 2.663a23.886 23.886 0 0 0-4.007-1.573l4.417-3.46-1.927-.407c-2.402-.51-4.955-.714-7.64-.594l-.341.014-3.715 3.46c-1.38.085-2.794.266-4.242.547l3.176-3.546-3 .816c-2.719.741-5.51 1.79-8.357 3.16l-.203.098-2.368 3.17a55.766 55.766 0 0 0-4.691 2.619l-1.076-1.007a77.317 77.317 0 0 0-8.093 6.479l-.142.129-.904 2.024c5.466-4.576 11.211-7.906 16.832-9.755l1.645-2.197a49.628 49.628 0 0 1 4.674-1.948l-2.853 3.183c.162-.036.321-.058.482-.092l2.488-.685c2.46-.678 4.822-1.064 7.063-1.178l.334-.017 3.708-3.45c1.676-.06 3.29.02 4.836.222l-4.261 3.34 1.925.408a22.151 22.151 0 0 1 5.86 2.113l.478.252Zm16.094 5.501c-.04-.063-.077-.125-.115-.188l-.403-.668-5.82 2.337a27.72 27.72 0 0 0-3.057-3.959l5.447-2.85-.916-.884c-1.005-.972-2.1-1.838-3.247-2.64l1.477-1.158 3.515 1.542-3.9-3.14-9.654 8.852.389.315 6.67-5.23c.88.588 1.729 1.217 2.526 1.912l-5.38 2.812.908.885a25.668 25.668 0 0 1 4.06 5.158l.404.67 5.736-2.303 1.36-1.463Zm5.353 15.98-.132-.933-6.323 1.059a45.142 45.142 0 0 0-1.41-6.155l6.151-1.762-.31-.914c-.68-2-1.502-3.9-2.457-5.7 1.337-.263 2.71-.527 3.102-.578-.1-.211-.296-.645-.396-.853-.034-.07-.575-.335-.575-.335l-5.055 2.35 1.038-.207a36.036 36.036 0 0 1 2.28 5.004l-6.114 1.753.301.91c.806 2.422 1.39 4.99 1.764 7.675l.13.937 6.312-1.059c.168 1.349.285 2.72.36 4.107h1.838a60.504 60.504 0 0 0-.504-5.3Zm-46.998 82.68-.758.533 1.934 9.05 2.297 1.98-.02-3.36-3.453-8.203Zm22.372-11.164.636-.74a99.528 99.528 0 0 0 2.688-3.29 861.66 861.66 0 0 0-4.147 3.234l.823.796Zm-74.153-17.877-1.92-.004c-.337 6.602.19 13.013 1.6 19.203l1.49-1.226c-1.144-5.873-1.526-11.86-1.17-17.973Zm50.492 27.088c.094-.143.187-.285.287-.432l-.771-1.83.484 2.262ZM69.87 69.82l.004.045a82.447 82.447 0 0 1 7.49-9.227l-.563-.461c-2.389 2.783-4.546 6.146-6.743 9.367l-.188.276Zm-15.134 61.663.15-.427c.206.964.454 1.904.719 2.833l.593-.524.577-.512c-1.685-4.471-2.36-8.679-2.651-12.7h-1.136l-.619 1.306-.002.201a62.75 62.75 0 0 0 .592 9.646l1.777.177Zm41.166 17.909 1.052 2.337c.54-.838 1.493-2.306 2.725-4.176l.004-.148a53.67 53.67 0 0 1-2.981 1.599l-.8.388Zm1.199 2.663 1.425 3.167a47.112 47.112 0 0 1-6.377 2.42l-1.953-6.068-.849.235c-2.462.677-4.82 1.062-7.064 1.175l-1.074.054 1.285 6.103a28.35 28.35 0 0 1-5.44-.454l-.663-6.07-.65-.136a22.27 22.27 0 0 1-5.861-2.11l-1.374-.73.095 5.772a24.783 24.783 0 0 1-3.836-2.94l.41-5.497-.308-.3c-1.546-1.51-4.298-4.193-5.457-6.115l-.68 3.668a36.998 36.998 0 0 1-1.503-3.432l1.043-1.872 1.282-.528a29.429 29.429 0 0 1-.673-1.112l-1.338.448-4.897 7.014.014.017c-.068.072-.096.153-.057.244 2.938 6.73 7.442 12.104 13.493 15.438a28.41 28.41 0 0 0 6.647 2.629 28.43 28.43 0 0 1-4.755-2.069c-6.25-3.442-10.343-8.762-13.227-15.777l1.319-2.367a36.415 36.415 0 0 0 2.349 4.613l1.297 2.14.83-5.15a26.648 26.648 0 0 0 2.725 3.224l-.41 5.51.308.3a26.425 26.425 0 0 0 5.938 4.33l1.378.736-.1-5.9a24.129 24.129 0 0 0 4.314 1.467l.662 6.084.652.138c2.402.508 4.955.713 7.642.592l1.082-.048-1.298-6.15a34.938 34.938 0 0 0 5.535-.944l1.956 6.08.848-.229c2.497-.68 5.054-1.624 7.658-2.836l.007-.311.089-3.503-.91-2.024c-.64.447-1.158.814-1.529 1.074ZM152.15 134.788l-10.006-7.05c-5.85 2.196-9.362 4.429-9.362 4.429l-2.019-.951s-.347.257-.909.68l16.266 11.46c10.142 7.137 19.457 11.593 28.995 13.998-5.484-8.168-12.823-15.431-22.965-22.566ZM51.472 71.807h11.286l-7.545-5.318-3.741 5.318Zm65.92 51.31c1.047-1.186 2.007-2.178 2.832-2.888l-6.94-.008 4.108 2.896Z" fill="#FFF"/><path d="M117.375 123.135c1.053-1.193 2.02-2.192 2.85-2.906l-6.988-.007 4.138 2.913Zm50.051 28.856-30.965-21.813c-2.354 1.15-3.68 1.99-3.68 1.99l.133-2.512s-2.504 1.823-3.082 2.256l13.882 9.781c7.119 5.012 16.425 9.468 23.716 10.306 0-.004-.001-.005-.004-.008Z" fill="#E8E5DE"/><path fill="#FFF" d="M44.474 74.4v-.008h1.565l7.91-11.242 7.086-5.796.33-4.344-8.639 3.636-12.491 17.755h4.239"/><path fill="#E8E5DE" d="M44.474 74.4v-.008h1.565l6.493-9.228-8.61 3.995-3.687 5.242h4.239M30.302 55.039c2.642 1.859 7.436 5.296 12.96 9.2l1.95-2.771c-4.943-3.508-10.254-7.024-13.081-9.014-3.648-2.566-9.458-5.21-10.343-3.95-.186.264 5.598 4.483 8.514 6.535"/><path d="M20.549 44.07c-.68-.774-5.684-6.732-6.994-7.068-1.31-.335-3.052.635-4.735 3.07-.133.19-.25.376-.362.561 1.548-1.896 3.233-1.37 4.148-1.114 1.022.287 6.455 5.001 6.767 5.38.314.379 1.855-.057 1.176-.83M165.678 106.9l1.166-1.178 2.47-2.498c1.093.343 2.261.65 3.487.947l.466.11c2 .476 2.902.724 3.294 1.393-3.886.19-7.494.597-10.883 1.226m-5.887-3.158v-8.128l-.003-.264c0-.27-.004-.68.04-.784l.016-.026.204-.108.055-.03.228-.126c.806 4.387 3.206 6.62 6.614 8.085l-1.699.285c-1.85.308-3.668.675-5.455 1.096m32.854-22.751-.795-.542c-4.758-3.25-10.562-3.25-15.677-3.25h-.431c-5.003 0-8.492.863-10.977 2.716-2.213 1.654-3.392 3.276-4.03 5.216h-15.594v4.963l-2.042-3.972-.507-.99H126.63v8.809l1.05.491c.156.074.211.125.215.125.047.113.044.518.04.784l-.001.273v11.545l.001.273c.004.267.007.673-.03.769-.002.001-.051.055-.225.136l-.552.26-.333-.172c-.32-.166-.473-.663-.687-1.46-.063-.24-.13-.475-.195-.698l-4.928-19.655-.344-1.376h-20.186l-.364 1.343-3.03 11.158v-12.55H61.282v-.024H43.85v-7.728H7.006v21.65l2.01-.21 8.492-.883.103-.008v10.302c.003.268.007.672-.032.769 0 0-.05.055-.226.138l-1.048.49v10.777H34.55v-10.778l-1.046-.489c-.157-.072-.213-.127-.218-.127-.046-.114-.042-.514-.04-.78V97.983l.104.01 11.056 1.153v8.047l.001.271c.003.266.006.665-.03.761 0 0-.048.054-.221.135l-1.047.49v8.79h18.173v-8.79l-1.048-.49c-.15-.07-.205-.123-.21-.123-.047-.113-.042-.51-.04-.773l.001-.271v-4.485l10.697-.852.148-.01v5.335l.001.27c.003.268.006.674-.033.77 0 0-.049.057-.224.14l-1.048.49v8.84h18.237v-8.84l-1.047-.49c-.158-.075-.212-.128-.217-.128-.047-.113-.044-.515-.04-.781v-5.607l.149.011 8.49.667.651.05-1.141 4.203c-.35 1.406-.64 1.487-.653 1.49l-1.422.319v9.106h18.507v-9.022l-1.324-.375-.013-.006c.063-.295.17-.761.33-1.427.493.449 1.1 1.125 1.815 2.163 2.209 3.199 2.066 6.713 2.065 6.75l-.092 1.917h13.957v-.054h.266c-6.018 3.64-23.162 26.165-23.162 26.165s16.73-13.267 20.853-15.885l-.514 3.165s4.586-4.54 16.075-9.824l-4.595 6.257s4.332-1.82 8.523-3.52c5.941-2.416 22.73-3.628 29.82-3.628.336 0 .671 0 1.015.002 10.988 0 16.56-4.895 16.56-14.553v-.175l.003-.548c.007-1.649.015-3.511-.647-5.28-.628-1.852-1.796-3.3-3.688-4.563-.83-.547-1.79-1.026-2.81-1.45h7.168V80.99" fill="#FFF"/><path d="M190.824 91.978V81.953c-4.358-2.973-9.872-2.931-15.082-2.931-3.596 0-7.324.443-9.886 2.351-3.146 2.351-3.819 4.391-3.997 8.475v.843c0 8.208 4.086 9.936 11.366 11.709 3.326.798 5.441 1.11 5.441 5.014-7.515.22-13.57 1.201-18.751 2.72l5.633-5.693c-12.293 2.058-24.347 6.796-35.104 15.749.129-.831.263-1.66.397-2.492-5.857 4.652-11.042 10.3-15.989 16.163 3.772-3.121 9.372-7.2 13.375-9.859-.138.833-.278 1.663-.414 2.498 7.836-6.639 14.719-9.385 22.689-11.064l-7.094 7.046c9.278-2.952 21.78-4.004 32.651-3.933 11.457 0 14.738-5.414 14.738-12.733v-.177c0-1.774.083-3.593-.544-5.234-.54-1.595-1.572-2.703-2.967-3.632-2.425-1.6-6.29-2.62-9.164-3.376-.989-.265-2.697-.797-3.37-1.509-.63-.62-.72-1.375-.72-2.129 0-.628.205-1.192.553-1.629l-4.358-.901h6.227l-.016.01c.038 0 .07-.009.11-.009 2.334 0 2.734 1.999 2.734 3.684v1.064h11.542Zm-50.421 20.167v-2.159c-1.44-.672-1.304-1.75-1.304-2.827v-4.31h.09l4.232 7.681c4.571-2.29 9.427-4.112 14.549-5.46v-9.458c0-.704-.056-1.41.306-2.002l-4.305-.79h5.228a.764.764 0 0 1 .073-.036v-5.831h-12.31v5.831c1.438.672 1.303 1.75 1.303 2.828v4.378h-.09l-6.695-13.037h-13.03v5.831c1.439.672 1.303 1.75 1.303 2.828v11.547c0 1.078.136 2.155-1.303 2.827v5.83h6.118a70.548 70.548 0 0 1 5.835-3.671ZM44.93 92.877c1.432.67 1.298 1.743 1.298 2.816v11.5c0 1.07.134 2.141-1.298 2.813v5.815h14.53v-5.815c-1.43-.672-1.296-1.743-1.296-2.813v-11.5c0-.718-.058-1.44.334-2.036l-.012.006-4.29-.788h5.264v-5.893H44.93v5.895ZM8.827 97.07l8.492-.887v-7.054c0-1.313.405-2.02 2.112-2.052v20.937c0 1.076.135 2.152-1.304 2.827v7.8H32.73v-7.8c-1.438-.675-1.304-1.751-1.304-2.827V88.038l-4.612-.966h4.638v.004c1.686.039 2.087.746 2.087 2.052v7.054l8.49.887V79.256H8.827v17.813Zm100.35 5.756 2.18-9.383h.087l2.105 9.383h-4.372Zm6.554 13.046h10.226v-5.83c-1.302-.674-1.438-2.155-1.797-3.267l-4.944-19.718h-17.365l-5.476 20.157c-.225.908-.673 2.524-2.02 2.828v5.83h14.86v-5.83c-.946-.272-1.395-.81-1.395-1.583 0-.221.542-2.462.824-3.623a3.364 3.364 0 0 0-.626-.46c-.483-.274-1.254-.49-1.254-.49s1.252-.12 2.517.37c.857.328 2.214 1.053 4.067 3.737 2.621 3.793 2.383 7.88 2.383 7.88Zm-20.49-15.163v-13.7H62.046v13.7l8.493-.666v-5.067c0-1.314.404-2.022 2.111-2.055v14.26c0 1.076.135 2.15-1.302 2.826v5.865H85.94v-5.865c-1.436-.675-1.3-1.75-1.3-2.826V93.882l-4.615-.963h4.639v.003c1.683.04 2.086.746 2.086 2.053v5.067l8.49.666Z" fill="#AD0C3C"/><path d="m93.752 100.592 1.489.116v-13.7h-1.489v13.584Zm-35.78-7.717h1.487v-5.892h-1.487v5.892Zm11.078 2.1v5.068l-7.003.549v.116l8.49-.665v-5.068c0-.782.282-1.463.79-1.686.509-.223 1.324-.369 1.324-.369-3.042 0-3.6.741-3.6 2.055Zm38.77 13.483c0-.221.541-2.462.825-3.622a3.379 3.379 0 0 0-.627-.461 4.097 4.097 0 0 0-.298-.146c-1.24-.456-2.445-.343-2.445-.343s.77.216 1.252.489c.272.154.484.326.627.461-.281 1.16-.823 3.4-.823 3.622 0 .773.448 1.311 1.394 1.583v5.83h1.49v-5.83c-.947-.272-1.394-.81-1.394-1.583Zm-23.18-1.278V93.882l-4.613-.963h-1.49l4.615.963v13.298c0 1.076-.136 2.15 1.3 2.826v5.865h1.49v-5.865c-1.438-.675-1.302-1.75-1.302-2.826Zm91.102-28.158-.185.002c4.814.013 9.78.203 13.778 2.929v10.025h1.49V81.953c-4.36-2.973-9.872-2.931-15.083-2.931Zm-68.054 23.803h1.49l2.232-9.49-.688-3.07-3.034 12.56Zm79.599-6.052c-2.426-1.6-6.29-2.62-9.166-3.376-.987-.265-2.696-.797-3.369-1.509-.63-.62-.719-1.375-.719-2.129 0-.628.204-1.192.553-1.629l-4.36-.901h-1.49l4.36.901c-.348.437-.554 1-.554 1.63 0 .753.09 1.508.72 2.128.673.712 2.381 1.244 3.37 1.509 2.875.756 6.74 1.776 9.163 3.376 1.396.929 2.428 2.037 2.968 3.632.627 1.641.545 3.46.545 5.234v.177c0 7.217-3.196 12.575-14.266 12.725v.008h1.018c11.456 0 14.738-5.414 14.738-12.733v-.177c0-1.774.082-3.593-.544-5.234-.54-1.595-1.572-2.703-2.967-3.632Zm-30.808-1.16v9.84l1.49-.384v-9.457c0-.704-.055-1.41.308-2.002l-4.305-.79h-1.49l4.305.79c-.364.592-.308 1.298-.308 2.002Zm-8.249 7.169v-2.724l-6.75-13.104h-1.49l8.24 15.828Zm-90.066 4.411v-11.5c0-.718-.057-1.44.334-2.036l-.011.006-4.29-.788H52.71l4.289.788.012-.006c-.392.597-.335 1.318-.335 2.036v11.5c0 1.07-.133 2.141 1.297 2.813v5.815h1.489v-5.815c-1.431-.672-1.297-1.743-1.297-2.813Zm101.107-14.409v-5.83h-1.49v5.83a.908.908 0 0 0-.071.037h1.49a.827.827 0 0 1 .071-.037Zm-18.869 19.36v-2.158c-1.44-.672-1.303-1.75-1.303-2.827v-4.37l-1.49-2.55v6.92c0 1.078-.137 2.155 1.303 2.827v3.048l1.49-.89Zm-108.976-4.13V88.037l-4.612-.966h-1.488l4.611.966v19.975c0 1.076-.133 2.152 1.303 2.827v7.8h1.49v-7.8c-1.438-.675-1.304-1.751-1.304-2.827Zm9.115-11.1 1.488.155V79.256h-1.488v17.658Zm83.926 13.127v5.83h1.49v-5.83c-1.301-.674-1.439-2.155-1.798-3.266l-4.943-19.719h-1.49l4.945 19.719c.357 1.111.494 2.592 1.796 3.266ZM15.831 89.129v7.215l1.489-.162V89.13c0-.782.184-1.44.622-1.685.44-.245 1.49-.37 1.49-.37-3.35 0-3.601.741-3.601 2.055Z" fill="#19336E"/><path d="M50.07 80.269h3.478c.838 0 1.165-.239 1.165-1.148v-.865c0-.909-.327-1.147-1.165-1.147H50.07v3.16Zm-1.959-4.749h5.914c1.96 0 2.648.645 2.648 2.224v1.942c0 1.58-.689 2.224-2.648 2.224H48.11v-6.39ZM57.852 75.52h6.99v1.483h-5.03v1.023h4.766v1.325h-4.766v1.024h5.145v1.535h-7.105v-6.39M65.67 75.52h7.467v1.589h-2.754v4.801h-1.96V77.11H65.67V75.52M75.95 78.662h3.24c.529 0 .723-.212.723-.67v-.212c0-.566-.282-.671-.9-.671H75.95v1.553Zm-1.96-3.142h5.914c1.51 0 1.916.75 1.916 1.898v.406c0 .856-.195 1.359-1.095 1.57v.018c.582.106 1.068.362 1.068 1.412v1.086h-1.959v-.768c0-.67-.195-.891-.803-.891h-3.08v1.66h-1.96v-6.39ZM85.012 79.059c0 .927.194 1.28 1.12 1.28h2.507c.927 0 1.121-.353 1.121-1.28v-.688c0-.795-.194-1.28-1.227-1.28H86.24c-1.033 0-1.227.485-1.227 1.28v.688Zm-2.013-1.297c0-1.872 1.05-2.313 2.816-2.313h3.143c1.764 0 2.815.441 2.815 2.313v1.906c0 1.871-1.05 2.312-2.815 2.312h-3.143c-1.765 0-2.816-.44-2.816-2.312v-1.906ZM93.059 75.52h1.959v6.39h-1.96v-6.39M95.98 75.52h7.466v1.589h-2.754v4.801h-1.959V77.11H95.98V75.52M108.658 75.52h3.01l2.215 4.113 2.216-4.113h3.01v6.39h-1.907v-4.59h-.018l-2.568 4.59h-1.465l-2.569-4.59h-.017v4.59h-1.907v-6.39M120.429 75.52h6.99v1.483h-5.03v1.023h4.765v1.325h-4.766v1.024h5.146v1.535h-7.105v-6.39M130.674 78.662h3.24c.528 0 .723-.212.723-.67v-.212c0-.566-.283-.671-.901-.671h-3.062v1.553Zm-1.96-3.142h5.913c1.51 0 1.916.75 1.916 1.898v.406c0 .856-.195 1.359-1.095 1.57v.018c.583.106 1.068.362 1.068 1.412v1.086h-1.96v-.768c0-.67-.193-.891-.802-.891h-3.08v1.66h-1.96v-6.39ZM137.723 77.762c0-1.872 1.05-2.313 2.815-2.313h2.304c2.789 0 3.15.6 3.133 2.41h-1.96v-.177c0-.458-.335-.591-.918-.591h-2.135c-1.033 0-1.227.485-1.227 1.28v.688c0 .927.194 1.28 1.121 1.28h2.092c.883 0 1.147-.088 1.147-.882h1.96v.6c0 1.076-.389 1.923-2.358 1.923h-3.16c-1.764 0-2.814-.44-2.814-2.312v-1.906M149.733 79.686l-3.54-4.166h2.366l2.153 2.612 2.154-2.612h2.365l-3.539 4.166v2.224h-1.96v-2.224" fill="#FFF"/></g></svg>