<svg width="200" height="200" xmlns="http://www.w3.org/2000/svg"><g fill="none"><path d="M199.654 79.901c0-1.27-.619-2.462-1.656-3.204-4.963-3.538-12.973-5.737-20.905-5.737-.553 0-1.104.01-1.653.033l-13.311.001c-1.545-17.485-9.11-31.996-22.315-39.316-.258-.144-.514-.273-.775-.408l-2.32 1.955-1.377-3.647c-20.388-8.036-46.613 2.104-66.63 24.371l.059-2.8-3.657-5.719-16.162 5.052-3.181 4.491c-4.34-3.108-9.462-6.72-11.639-8.047-2.813-1.71-5.801-3.134-8.18-4.163a5.827 5.827 0 0 0-.583-.777c-7.8-8.724-8.704-10.124-11.884-10.066-3.942.072-7.32 2.407-9.68 5.794C1.451 41.097.662 44.857 1.582 48.3c.827 3.106 2.8 3.867 13.733 8.092.234.088.472.165.713.223 1.798 1.9 4.19 4.252 6.775 6.311 1.97 1.57 7.04 5.084 11.421 8.075H3.971C1.777 71 0 72.765 0 74.944v27.862c0 1.116.477 2.182 1.313 2.93a3.993 3.993 0 0 0 3.068.993l5.417-.562a3.912 3.912 0 0 0-.498 1.912v15.636c0 2.178 1.777 3.944 3.97 3.944h24.316c1.135 0 2.15-.483 2.873-1.242.205 6.847 1.286 13.315 3.233 19.165l3.296 1.144-2.04 2.657c3.777 8.767 10.085 16.336 18.084 20.772 11.955 6.628 26.458 6.216 40.697.175l.463-3.215 2.047 2.098a75.035 75.035 0 0 0 4.677-2.417l.313-4.083 4.36 1.247c7.02-4.593 13.776-10.53 19.908-17.62l7.685 5.38c24.62 16.784 44.438 14.87 44.438 14.87s-4.042-18.324-29.09-36.532l-2.51-1.756c5.778-.977 10.497-1.013 14.79-1.044 6.075-.045 11.81-.088 18.167-2.894a5.41 5.41 0 0 0 .228-.111c6.89-3.58 10.396-9.642 10.42-18.014.067-2.024.022-4.43-.594-6.89a3.903 3.903 0 0 0 .623-2.12V79.902" fill="#E8E5DE"/><path d="M195.682 79.901c-4.707-3.356-12.69-5.273-20.172-4.965h-17.317c-.528-17.32-7.182-31.818-19.686-39.022-.232-.135-.466-.258-.704-.386l-2.194 1.825-1.174-3.426c-21.785-8.91-51.577 5.484-71.33 34.172l-4.918-3.443 6.438-5.19.151-7.209-1.377-2.156-11.973 3.743-4.716 6.658c-2.483-1.804-11.224-8.124-14.65-10.211-3.296-2.004-6.912-3.61-9.19-4.54-.035-.429-.178-.817-.47-1.143-6.876-7.693-8.01-8.834-9.024-8.739-1.958.184-4.314 1.23-6.305 4.088-1.99 2.86-2.157 5.438-1.65 7.335.263.983 1.304 1.548 11.343 5.426.365.142.738.152 1.109.067 1.652 1.813 4.397 4.66 7.415 7.065 3.135 2.5 12.074 8.539 14.621 10.253l-3.428 4.841H3.97v27.863l10.604-1.095v5.76l-1.304.607v15.635h24.314v-3.34l6.853.006c-.392 7.911.41 15.371 2.397 21.994l3.383 1.257-1.981 2.79c3.262 8.236 8.554 14.889 15.825 19.079 10.982 6.33 24.555 5.924 37.994.143l.136-3.766 2.204 2.705a69.362 69.362 0 0 0 3.965-2.046l.079-4.335 4.305 1.692c7.723-5.009 15.152-11.745 21.758-19.923l10.965 8.523c10.645 7.442 24.708 13.548 36.216 13.945-4.261-10.627-14.796-21.714-25.44-29.155l-9.74-6.816a66.18 66.18 0 0 1 1.963-.557c18.839-5.008 27.692-.204 38.898-5.15 4.983-2.592 8.29-6.99 8.29-14.608.104-3.058-.136-6.214-1.709-8.922h1.736V79.9" fill="#19336E"/><path d="M69.32 120.41l-2.023 2.654.22-.252-8.24 11.489a25.208 25.208 0 0 0 2.81 3.896l3.704-3.66-2.004 5.383a21.295 21.295 0 0 0 4.121 2.97c12.965 7.114 31.395-.2 45.834-16.601l-8.34-5.837-36.082-.042zm-14.397-.017c.432 3.79 1.297 7.307 2.61 10.434l11.774-10.417-14.384-.017zm79.515-48.026c-.495-9.634-3.653-17.767-9.419-22.818l-5.34 5.717 4.458-6.47a21.501 21.501 0 0 0-2.934-1.94c-15.05-8.258-37.463 2.922-52.444 25.2l.445.311h65.234z" fill="#E8E5DE"/><path d="M69.258 72.367h24.32c-.026-1.821-.573-3.434-1.645-4.509-1.786-1.796-4.833-1.91-7.95-.614C96.16 55.541 110.64 49.56 120.58 52.267l1.664-2.394a20.829 20.829 0 0 0-2.44-1.554c-14.735-7.985-36.364 2.693-50.546 24.048m-4.792 55.876l3.1-5.466-8.358 11.614.958 1.427 1.721-3.035c.65.942 1.347 1.833 2.108 2.658l2.68-3.089c-.882-1.352-1.58-2.578-2.21-4.109m2.817 4.985l-1.657 3.81a21.065 21.065 0 0 0 3.953 2.787c4.467 2.422 9.572 3.123 14.908 2.335-4.006-.11-7.773-1.135-11.096-3.183-2.425-1.493-4.45-3.445-6.108-5.749m57.49-81.165l-1.18 1.27c.858.381 1.704.809 2.512 1.308.603.374 1.176.784 1.74 1.211a23.889 23.889 0 0 0-3.071-3.789M63.354 124.91a35.103 35.103 0 0 1-.952-4.507l-5.363-.007c.504 2.75 1.26 5.33 2.278 7.685l4.037-3.17" fill="#FFF"/><path d="M125.166 47.83l7.828-9.554c-19.746-9.81-48.108 4.124-66.856 31.945l2.621 1.835c11.068-16.46 26.188-26.85 39.404-27.828 5.539-.682 10.818.125 15.447 2.666.534.292 1.052.605 1.556.935m21.077 3.424c-.19-.35-5.553 2.257-5.553 2.257l4.209-4.503c-2.41-3.708-5.445-6.816-9.08-9.158l-9.662 8.687c6.77 4.977 10.624 13.529 11.465 23.831h14.192c-.44-7.975-2.305-15.193-5.57-21.114m-27.27 89.079l1.379-4.565c-.978.744-13.345 9.395-19.89 13.968l1.946 8.993a64.682 64.682 0 0 0 4.711-2.643c.17-.105-1.278-7.06-1.278-7.06l3.796 5.454c6.977-4.69 13.72-10.935 19.75-18.483l-2.448-1.903c-1.634 1.257-6.623 5.109-7.966 6.24m-64.848-19.94l-5.454-.007c-.26 6.506.348 12.643 1.816 18.153l6.288-5.531c-1.466-3.77-2.353-8.026-2.65-12.615" fill="#AD0C3C"/><path d="M68.202 146.719c-3.89-2.136-6.985-5.309-9.286-9.249l-5.182 9.656c2.97 5.81 7.213 10.468 12.72 13.483 9.538 5.235 21.234 4.675 32.906-.456l.251-9.823c-1.912 1.335-3.155 2.205-3.155 2.205s1.257-1.96 3.224-4.924l.018-.715v-.69l.226 1.04a476.808 476.808 0 0 1 4.558-6.738c-12.477 9.008-25.983 11.86-36.28 6.21" fill="#AD0C3C"/><path d="M130.84 37.524c-19.351-7.577-46.68 5.763-65.61 32.063l1.546 1.081c18.341-25.75 44.74-39.242 64.064-33.144zM112.316 141.44l2.383 2.993a76.161 76.161 0 0 1-6.462 5.153l-2.251-3.712c-.521.363-1.035.723-1.538 1.076l3.102 4.503 2.25 3.287 2.81.906-1.026-2.136-2.662-2.178a78.227 78.227 0 0 0 7.65-6.118l.634-.576-3.385-4.254c-.489.344-.988.696-1.505 1.056zm14.413-95.675l.273-.174 3.754-4.582-4.125 2.645a23.982 23.982 0 0 0-4.007-1.562l4.417-3.437-1.927-.405c-2.402-.506-4.955-.71-7.64-.59l-.341.014-3.715 3.437c-1.38.084-2.794.264-4.242.543l3.176-3.522-3 .811c-2.719.736-5.51 1.778-8.357 3.139l-.203.097-2.368 3.149a55.873 55.873 0 0 0-4.691 2.601l-1.076-1a77.231 77.231 0 0 0-8.093 6.436l-.142.128-.904 2.011c5.466-4.546 11.211-7.853 16.832-9.69l1.645-2.183a49.812 49.812 0 0 1 4.674-1.935l-2.853 3.162c.162-.035.321-.058.482-.091l2.488-.68c2.46-.674 4.822-1.058 7.063-1.17l.334-.017 3.708-3.429c1.676-.058 3.29.02 4.836.222l-4.261 3.318 1.925.405a22.247 22.247 0 0 1 5.86 2.098l.478.251zm16.094 5.465c-.04-.063-.077-.125-.115-.187l-.403-.664-5.82 2.321a27.56 27.56 0 0 0-3.057-3.932l5.447-2.831-.916-.878c-1.005-.965-2.1-1.826-3.247-2.622l1.477-1.15 3.515 1.53-3.9-3.118-9.654 8.793.389.313 6.67-5.196c.88.585 1.729 1.21 2.526 1.9l-5.38 2.793.908.88a25.525 25.525 0 0 1 4.06 5.123l.404.666 5.736-2.288 1.36-1.453zm5.353 15.874l-.132-.927-6.323 1.052a44.591 44.591 0 0 0-1.41-6.114l6.151-1.75-.31-.908a38.535 38.535 0 0 0-2.457-5.663c1.337-.261 2.71-.523 3.102-.574-.1-.21-.296-.64-.396-.847-.034-.07-.575-.333-.575-.333l-5.055 2.335 1.038-.207a35.684 35.684 0 0 1 2.28 4.972l-6.114 1.74.301.904c.806 2.406 1.39 4.958 1.764 7.625l.13.93 6.312-1.051c.168 1.34.285 2.702.36 4.08h1.838a59.716 59.716 0 0 0-.504-5.264zm-46.998 82.132l-.758.53 1.934 8.99 2.297 1.967-.02-3.338-3.453-8.15zm22.372-11.09l.636-.735a99.005 99.005 0 0 0 2.688-3.267c-.858.66-2.528 1.948-4.147 3.21l.823.792zm-74.153-17.758l-1.92-.004c-.337 6.557.19 12.926 1.6 19.075l1.49-1.217c-1.144-5.835-1.526-11.781-1.17-17.854zm50.492 26.908c.094-.142.187-.283.287-.43l-.771-1.817.484 2.247zM69.87 70.393l.004.045a82.008 82.008 0 0 1 7.49-9.167l-.563-.457c-2.389 2.764-4.546 6.105-6.743 9.305l-.188.274zm-15.134 61.255l.15-.425c.206.958.454 1.892.719 2.815l.593-.521.577-.51c-1.685-4.44-2.36-8.62-2.651-12.614l-1.136-.001-.619 1.297-.002.201a61.927 61.927 0 0 0 .592 9.582l1.777.176zm41.166 17.79l1.052 2.322a487.54 487.54 0 0 1 2.725-4.149l.004-.147a53.788 53.788 0 0 1-2.981 1.588l-.8.386zm1.199 2.645l1.425 3.146a47.307 47.307 0 0 1-6.377 2.404l-1.953-6.028-.849.234c-2.462.672-4.82 1.055-7.064 1.167l-1.074.053 1.285 6.063a28.502 28.502 0 0 1-5.44-.451l-.663-6.03-.65-.135a22.365 22.365 0 0 1-5.861-2.096l-1.374-.725.095 5.734a24.765 24.765 0 0 1-3.836-2.92l.41-5.462-.308-.296c-1.546-1.5-4.298-4.167-5.457-6.076l-.68 3.644a36.628 36.628 0 0 1-1.503-3.41l1.043-1.859 1.282-.524c-.233-.362-.455-.73-.673-1.105l-1.338.445-4.897 6.967.014.017c-.068.072-.096.152-.057.243 2.938 6.685 7.442 12.024 13.493 15.336a28.523 28.523 0 0 0 6.647 2.611 28.53 28.53 0 0 1-4.755-2.055c-6.25-3.42-10.343-8.704-13.227-15.672l1.319-2.352a36.083 36.083 0 0 0 2.349 4.583l1.297 2.126.83-5.116a26.517 26.517 0 0 0 2.725 3.202l-.41 5.473.308.298a26.418 26.418 0 0 0 5.938 4.302l1.378.731-.1-5.86a24.24 24.24 0 0 0 4.314 1.457l.662 6.043.652.137c2.402.505 4.955.709 7.642.588l1.082-.048-1.298-6.11a35.15 35.15 0 0 0 5.535-.937l1.956 6.04.848-.227c2.497-.675 5.054-1.613 7.658-2.818l.007-.309.089-3.48-.91-2.01c-.64.445-1.158.808-1.529 1.067zm55.049-17.151l-10.006-7.004c-5.85 2.182-9.362 4.4-9.362 4.4l-2.019-.945s-.347.256-.909.676l16.266 11.383c10.142 7.09 19.457 11.517 28.995 13.906-5.484-8.114-12.823-15.329-22.965-22.416zM51.472 72.367h11.286l-7.545-5.282-3.741 5.282zm65.92 50.97c1.047-1.177 2.007-2.162 2.832-2.868l-6.94-.008 4.108 2.877z" fill="#FFF"/><path d="M117.375 123.356c1.053-1.186 2.02-2.178 2.85-2.887l-6.988-.007 4.138 2.894zm50.051 28.665l-30.965-21.67c-2.354 1.144-3.68 1.977-3.68 1.977l.133-2.495s-2.504 1.811-3.082 2.242l13.882 9.716c7.119 4.978 16.425 9.406 23.716 10.238 0-.004-.001-.005-.004-.008z" fill="#E8E5DE"/><path fill="#FFF" d="M44.474 74.944v-.009h1.565l7.91-11.167 7.086-5.758.33-4.315-8.639 3.612-12.491 17.637h4.239"/><path fill="#E8E5DE" d="M44.474 74.944v-.009h1.565l6.493-9.166-8.61 3.968-3.687 5.207h4.239M30.302 55.71c2.642 1.847 7.436 5.262 12.96 9.14l1.95-2.753c-4.943-3.484-10.254-6.977-13.081-8.954-3.648-2.549-9.458-5.175-10.343-3.925-.186.263 5.598 4.454 8.514 6.492"/><path d="M20.549 44.814c-.68-.768-5.684-6.687-6.994-7.02-1.31-.334-3.052.63-4.735 3.049-.133.189-.25.374-.362.557 1.548-1.883 3.233-1.362 4.148-1.107 1.022.285 6.455 4.969 6.767 5.345.314.376 1.855-.056 1.176-.824m145.129 62.414l1.166-1.17 2.47-2.482c1.093.342 2.261.646 3.487.942l.466.109c2 .472 2.902.718 3.294 1.383-3.886.19-7.494.593-10.883 1.218m-5.887-3.136v-8.075l-.003-.263c0-.267-.004-.675.04-.778l.016-.026.204-.107.055-.03.228-.125c.806 4.358 3.206 6.577 6.614 8.031l-1.699.284c-1.85.306-3.668.67-5.455 1.089m32.854-22.601l-.795-.539c-4.758-3.228-10.562-3.228-15.677-3.228h-.431c-5.003 0-8.492.857-10.977 2.698-2.213 1.643-3.392 3.254-4.03 5.182h-15.594v4.93l-2.042-3.946-.507-.984H126.63v8.75l1.05.489c.156.073.211.124.215.124.047.112.044.514.04.778l-.001.272v11.468l.001.272c.004.265.007.669-.03.763-.002.002-.051.055-.225.135l-.552.258-.333-.17c-.32-.164-.473-.658-.687-1.45-.063-.24-.13-.472-.195-.694l-4.928-19.524-.344-1.367h-20.186l-.364 1.334-3.03 11.084V85.66H61.282v-.024H43.85v-7.677H7.006v21.508l2.01-.209 8.492-.878.103-.008v10.234c.003.266.007.668-.032.764 0 0-.05.054-.226.138l-1.048.485v10.706H34.55v-10.706l-1.046-.485c-.157-.073-.213-.127-.218-.127-.046-.114-.042-.51-.04-.775V98.371l.104.008 11.056 1.147v7.993l.001.27c.003.264.006.66-.03.756 0 0-.048.053-.221.134l-1.047.487v8.732h18.173v-8.732l-1.048-.487c-.15-.07-.205-.122-.21-.122-.047-.113-.042-.507-.04-.768l.001-.27v-4.455l10.697-.846.148-.011v5.3l.001.27c.003.265.006.668-.033.764 0 0-.049.056-.224.138l-1.048.487v8.782h18.237v-8.782l-1.047-.487c-.158-.074-.212-.126-.217-.126-.047-.113-.044-.513-.04-.777v-5.569l.149.01 8.49.663.651.05-1.141 4.176c-.35 1.396-.64 1.477-.653 1.48l-1.422.316v9.046h18.507v-8.963l-1.324-.372-.013-.006c.063-.293.17-.756.33-1.417.493.445 1.1 1.117 1.815 2.148 2.209 3.178 2.066 6.669 2.065 6.705l-.092 1.905h13.957v-.054h.266c-6.018 3.617-23.162 25.992-23.162 25.992s16.73-13.18 20.853-15.78l-.514 3.144s4.586-4.51 16.075-9.759l-4.595 6.215s4.332-1.807 8.523-3.496c5.941-2.4 22.73-3.604 29.82-3.604.336 0 .671 0 1.015.002 10.988 0 16.56-4.863 16.56-14.457v-.174l.003-.544c.007-1.637.015-3.488-.647-5.245-.628-1.84-1.796-3.278-3.688-4.533-.83-.543-1.79-1.02-2.81-1.44h7.168V81.491" fill="#FFF"/><path d="M190.824 92.405v-9.959c-4.358-2.953-9.872-2.912-15.082-2.912-3.596 0-7.324.441-9.886 2.337-3.146 2.335-3.819 4.361-3.997 8.418v.837c0 8.155 4.086 9.871 11.366 11.632 3.326.793 5.441 1.103 5.441 4.98-7.515.219-13.57 1.194-18.751 2.702l5.633-5.654c-12.293 2.044-24.347 6.75-35.104 15.644.129-.825.263-1.65.397-2.475-5.857 4.621-11.042 10.23-15.989 16.056 3.772-3.1 9.372-7.152 13.375-9.794-.138.827-.278 1.652-.414 2.481 7.836-6.594 14.719-9.322 22.689-10.99l-7.094 7c9.278-2.933 21.78-3.979 32.651-3.908 11.457 0 14.738-5.378 14.738-12.648v-.177c0-1.762.083-3.568-.544-5.198-.54-1.585-1.572-2.686-2.967-3.608-2.425-1.59-6.29-2.603-9.164-3.355-.989-.263-2.697-.791-3.37-1.498-.63-.616-.72-1.366-.72-2.115 0-.624.205-1.185.553-1.618l-4.358-.896h6.227l-.016.011c.038-.001.07-.01.11-.01 2.334 0 2.734 1.986 2.734 3.66v1.057h11.542zm-50.421 20.033v-2.144c-1.44-.668-1.304-1.738-1.304-2.809v-4.28h.09l4.232 7.63c4.571-2.276 9.427-4.086 14.549-5.425v-9.395c0-.7-.056-1.4.306-1.989l-4.305-.784h5.228a.766.766 0 0 1 .073-.036v-5.793h-12.31v5.793c1.438.667 1.303 1.738 1.303 2.81v4.348h-.09l-6.695-12.95h-13.03v5.792c1.439.667 1.303 1.738 1.303 2.81v11.47c0 1.07.136 2.14-1.303 2.808v5.792h6.118a70.62 70.62 0 0 1 5.835-3.648zM44.93 93.298c1.432.666 1.298 1.731 1.298 2.798v11.424c0 1.063.134 2.126-1.298 2.794v5.776h14.53v-5.776c-1.43-.668-1.296-1.731-1.296-2.794V96.096c0-.714-.058-1.43.334-2.023l-.012.006-4.29-.783h5.264v-5.853H44.93v5.855zM8.827 97.462l8.492-.88v-7.008c0-1.304.405-2.006 2.112-2.039v20.799c0 1.069.135 2.138-1.304 2.809v7.748H32.73v-7.748c-1.438-.671-1.304-1.74-1.304-2.809V88.491l-4.612-.96h4.638v.004c1.686.04 2.087.742 2.087 2.04v7.007l8.49.88V79.767H8.827v17.695zm100.35 5.719l2.18-9.322h.087l2.105 9.322h-4.372zm6.554 12.96h10.226v-5.792c-1.302-.67-1.438-2.142-1.797-3.246l-4.944-19.587h-17.365l-5.476 20.023c-.225.902-.673 2.507-2.02 2.81v5.791h14.86v-5.791c-.946-.27-1.395-.805-1.395-1.573 0-.22.542-2.446.824-3.599a3.363 3.363 0 0 0-.626-.457c-.483-.272-1.254-.486-1.254-.486s1.252-.12 2.517.366c.857.327 2.214 1.047 4.067 3.713 2.621 3.768 2.383 7.827 2.383 7.827zm-20.49-15.064V87.468H62.046v13.61l8.493-.662v-5.034c0-1.305.404-2.008 2.111-2.04v14.164c0 1.069.135 2.137-1.302 2.808v5.826H85.94v-5.826c-1.436-.671-1.3-1.74-1.3-2.808v-13.21l-4.615-.956h4.639v.002c1.683.04 2.086.742 2.086 2.04v5.034l8.49.661z" fill="#AD0C3C"/><path d="M93.752 100.962l1.489.116v-13.61h-1.489v13.494zm-35.78-7.666h1.487v-5.853h-1.487v5.853zm11.078 2.086v5.035l-7.003.545v.116l8.49-.661v-5.035c0-.776.282-1.453.79-1.675.509-.221 1.324-.366 1.324-.366-3.042 0-3.6.736-3.6 2.041zm38.77 13.394c0-.22.541-2.446.825-3.598a3.377 3.377 0 0 0-.627-.458 4.108 4.108 0 0 0-.298-.145c-1.24-.453-2.445-.341-2.445-.341s.77.215 1.252.486c.272.153.484.323.627.458-.281 1.152-.823 3.378-.823 3.598 0 .768.448 1.302 1.394 1.573v5.791h1.49v-5.791c-.947-.27-1.394-.805-1.394-1.573zm-23.18-1.27v-13.21l-4.613-.956h-1.49l4.615.957v13.21c0 1.068-.136 2.136 1.3 2.807v5.826h1.49v-5.826c-1.438-.671-1.302-1.74-1.302-2.808zm91.102-27.972l-.185.003c4.814.012 9.78.202 13.778 2.91v9.958h1.49v-9.959c-4.36-2.952-9.872-2.912-15.083-2.912zm-68.054 23.647h1.49l2.232-9.428-.688-3.05-3.034 12.478zm79.599-6.012c-2.426-1.59-6.29-2.603-9.166-3.355-.987-.263-2.696-.791-3.369-1.498-.63-.616-.719-1.366-.719-2.115 0-.624.204-1.184.553-1.618l-4.36-.896h-1.49l4.36.896a2.568 2.568 0 0 0-.554 1.618c0 .749.09 1.499.72 2.115.673.707 2.381 1.235 3.37 1.498 2.875.752 6.74 1.764 9.163 3.355 1.396.922 2.428 2.023 2.968 3.608.627 1.63.545 3.437.545 5.198v.177c0 7.169-3.196 12.49-14.266 12.64v.008h1.018c11.456 0 14.738-5.378 14.738-12.648v-.177c0-1.761.082-3.568-.544-5.198-.54-1.585-1.572-2.686-2.967-3.608zm-30.808-1.154v9.776l1.49-.381v-9.395c0-.7-.055-1.4.308-1.989l-4.305-.784h-1.49l4.305.784c-.364.588-.308 1.29-.308 1.99zm-8.249 7.122v-2.705l-6.75-13.018h-1.49l8.24 15.723zm-90.066 4.383V96.096c0-.714-.057-1.43.334-2.023l-.011.006-4.29-.783H52.71l4.289.783.012-.006c-.392.593-.335 1.31-.335 2.023v11.424c0 1.063-.133 2.126 1.297 2.794v5.776h1.489v-5.776c-1.431-.668-1.297-1.731-1.297-2.794zm101.107-14.314v-5.792h-1.49v5.792a.91.91 0 0 0-.071.036h1.49a.829.829 0 0 1 .071-.036zm-18.869 19.232v-2.144c-1.44-.668-1.303-1.738-1.303-2.809v-4.34l-1.49-2.534v6.874c0 1.071-.137 2.141 1.303 2.809v3.028l1.49-.884zm-108.976-4.104V88.491l-4.612-.96h-1.488l4.611.96v19.843c0 1.069-.133 2.138 1.303 2.809v7.748h1.49v-7.748c-1.438-.671-1.304-1.74-1.304-2.809zm9.115-11.026l1.488.154V79.768h-1.488v17.54zm83.926 13.04v5.792h1.49v-5.791c-1.301-.67-1.439-2.141-1.798-3.245l-4.943-19.588h-1.49l4.945 19.588c.357 1.104.494 2.575 1.796 3.245zM15.831 89.576v7.168l1.489-.161v-7.007c0-.777.184-1.43.622-1.674.44-.244 1.49-.367 1.49-.367-3.35 0-3.601.736-3.601 2.04z" fill="#19336E"/><path d="M50.07 80.773h3.478c.838 0 1.165-.237 1.165-1.14v-.859c0-.903-.327-1.14-1.165-1.14H50.07v3.14zm-1.959-4.717h5.914c1.96 0 2.648.64 2.648 2.21v1.928c0 1.57-.689 2.21-2.648 2.21H48.11v-6.348zm9.741 0h6.99v1.473h-5.03v1.017h4.766v1.316h-4.766v1.016h5.145v1.526h-7.105v-6.348m7.818 0h7.467v1.578h-2.754v4.77h-1.96v-4.77H65.67v-1.578m10.28 3.121h3.24c.529 0 .723-.21.723-.666v-.21c0-.562-.282-.667-.9-.667H75.95v1.543zm-1.96-3.12h5.914c1.51 0 1.916.745 1.916 1.884v.403c0 .85-.195 1.35-1.095 1.561v.018c.582.105 1.068.359 1.068 1.402v1.08h-1.959v-.764c0-.666-.195-.885-.803-.885h-3.08v1.648h-1.96v-6.348zm11.022 3.514c0 .921.194 1.272 1.12 1.272h2.507c.927 0 1.121-.35 1.121-1.272v-.683c0-.79-.194-1.271-1.227-1.271H86.24c-1.033 0-1.227.482-1.227 1.27v.684zm-2.013-1.288c0-1.86 1.05-2.297 2.816-2.297h3.143c1.764 0 2.815.438 2.815 2.297v1.894c0 1.858-1.05 2.297-2.815 2.297h-3.143c-1.765 0-2.816-.439-2.816-2.297v-1.894zm10.06-2.227h1.959v6.348h-1.96v-6.348m2.922 0h7.466v1.578h-2.754v4.77h-1.959v-4.77H95.98v-1.578m12.678 0h3.01l2.215 4.086 2.216-4.086h3.01v6.348h-1.907v-4.56h-.018l-2.568 4.56h-1.465l-2.569-4.56h-.017v4.56h-1.907v-6.348m11.771 0h6.99v1.473h-5.03v1.017h4.765v1.316h-4.766v1.016h5.146v1.526h-7.105v-6.348m10.245 3.121h3.24c.528 0 .723-.21.723-.666v-.21c0-.562-.283-.667-.901-.667h-3.062v1.543zm-1.96-3.12h5.913c1.51 0 1.916.745 1.916 1.884v.403c0 .85-.195 1.35-1.095 1.561v.018c.583.105 1.068.359 1.068 1.402v1.08h-1.96v-.764c0-.666-.193-.885-.802-.885h-3.08v1.648h-1.96v-6.348zm9.009 2.226c0-1.86 1.05-2.297 2.815-2.297h2.304c2.789 0 3.15.596 3.133 2.393h-1.96v-.175c0-.456-.335-.587-.918-.587h-2.135c-1.033 0-1.227.482-1.227 1.27v.684c0 .921.194 1.272 1.121 1.272h2.092c.883 0 1.147-.087 1.147-.876h1.96v.595c0 1.07-.389 1.912-2.358 1.912h-3.16c-1.764 0-2.814-.439-2.814-2.297v-1.894m12.01 1.911l-3.54-4.138h2.366l2.153 2.595 2.154-2.595h2.365l-3.539 4.138v2.21h-1.96v-2.21" fill="#FFF"/></g></svg>