<svg width="200" height="200" xmlns="http://www.w3.org/2000/svg"><g fill="none"><path d="M100.005 0h2.47l.168.112.131.075c1.385.318 2.714.711 3.986 1.385 1.217.561 2.246 1.347 3.331 2.096.468.3.824.805 1.422.748 2.34-.093 4.66.188 6.943.749.28.037.618.15.898.075.543-.393.992-.898 1.516-1.31 1.16-1.01 2.47-1.834 3.855-2.508 1.572-.748 3.425-1.141 5.128-.655.804.262 1.684.655 2.264 1.291.711.712 1.422 1.348 1.834 2.284 1.216 2.133 1.871 4.435 2.376 6.811.188.655.169 1.385.412 2.021 1.104.824 2.246 1.572 3.256 2.527 1.198.954 2.115 2.357 3.088 3.48.599.3 1.235.468 1.834.768 2.77 1.085 5.277 2.694 7.541 4.622 1.666 1.553 3.163 3.293 4.267 5.296.487.804.936 1.628 1.198 2.545a21.24 21.24 0 0 1 1.44 6.25c.319.393.824.636 1.198.992 3.126 2.695 5.352 6.475 6.064 10.554.43 2.396.374 5.034-.188 7.392-.15.73-.561 1.329-.262 2.058.88 2.677.3 6.026-1.89 7.916-.561.543-1.01 1.104-1.684 1.497-.524.318-1.085.618-1.59.973-.356 4.772-3.013 9.264-6.7 12.258-.412.355-.898.599-1.123 1.123 4.23.786 8.384 1.89 12.332 3.649 1.31.599 2.64 1.16 3.874 1.927 4.398 2.246 8.29 5.52 11.602 9.151 1.834 2.096 3.5 4.342 4.866 6.774 2.451 4.099 4.154 8.683 5.09 13.38.356 1.74.524 3.519.842 5.278v7.579c-.318 1.74-.449 3.518-.786 5.258-.954 5.37-2.657 10.517-4.865 15.495-1.16 2.732-2.601 5.352-4.08 7.916a77.083 77.083 0 0 1-7.092 9.918c-1.329 1.703-2.826 3.293-4.342 4.828-.86.992-1.871 1.871-2.844 2.77-2.976 2.788-6.176 5.389-9.581 7.672-5.914 4.117-12.389 7.41-19.182 9.824-1.048.45-2.152.786-3.256 1.067-5.502 1.74-11.265 2.845-17.01 3.312-.936.188-1.89.15-2.845.281H64.898c.637-1.403 1.142-2.844 1.722-4.267.954-2.694 2.096-5.314 3.125-7.99 1.946-4.847 3.855-9.694 5.782-14.56a81.99 81.99 0 0 1 1.76-4.472c.074-.28.542-.187.767-.224 2.077 0 4.173.018 6.25-.02 2.115-6.08 4.379-12.107 6.55-18.17.243-.636.524-1.254.617-1.946-.15.037-.28.056-.43.094a166.992 166.992 0 0 0-5.427 4.846c-1.422 1.441-2.957 2.807-4.21 4.398-.45.487-.955.917-1.404 1.403-1.347 1.572-2.75 3.126-4.06 4.735-2.134 2.414-3.912 5.221-6.195 7.448-.487.599-1.048 1.085-1.647 1.553-1.852 1.553-4.023 2.826-6.418 3.275-1.048.15-2.153.206-3.182 0-.486-.094-.992-.318-1.478-.168-.58.168-1.142.393-1.722.524-1.852.318-3.724.037-5.464-.637a13.861 13.861 0 0 0-1.216-.505c-.637 3.144-1.629 6.27-3.144 9.095-1.067 1.89-2.47 3.668-4.267 4.903-1.01.599-1.984 1.141-3.144 1.366-.823.187-1.628.168-2.47.15-.43-.02-.749.168-1.142.318-2.189.898-4.51 1.384-6.886 1.104-1.74-.244-3.387-.973-4.604-2.265-.318-.355-.767-.336-1.216-.43-2.17-.28-4.529-.992-6.213-2.433-.936-.804-1.721-1.852-2.04-3.069-.13-.43-.15-.917-.355-1.31-.45-.411-.992-.73-1.441-1.141-1.254-1.18-2.208-2.676-2.545-4.38-.45-2.151-.206-4.36.954-6.25.524-.804 1.142-1.628 1.909-2.189.711-.505 1.254-1.31 1.684-2.077.337-.655.749-1.31.992-2.002.412-1.236.898-2.415 1.123-3.706.093-.468-.262-.88-.487-1.254-1.46-2.189-2.32-4.865-2.507-7.485-.038-2.19.486-4.416 1.628-6.288.262-.505.655-.917.43-1.515-3.237-9.376-5.651-18.995-6.587-28.875-.075-.88-.112-1.76-.243-2.62-.131-.842-.038-1.684-.187-2.508v-5.52c.13-.487.075-1.01.112-1.516.28-2.489.45-4.978.898-7.448.88-4.959 2.377-10.124 4.94-14.484.319-.749.337-1.647.506-2.433.88-5.146 2.433-10.217 4.266-15.102 2.864-7.298 6.588-14.54 11.453-20.715.674-1.011 1.478-1.89 2.227-2.826.73-.842 1.403-1.722 2.19-2.508 1.796-2.002 3.686-3.948 5.782-5.651 1.927-1.76 4.023-3.369 6.157-4.884 2.19-1.629 4.528-2.976 6.886-4.323 5.54-2.994 11.397-5.39 17.479-7.037 2.245-.636 4.566-1.066 6.811-1.628.768-.617 1.422-1.46 2.077-2.208 1.048-1.16 1.928-2.62 3.144-3.593 2.414-2.208 5.82-3.125 9.02-3.144 1.254-1.422 2.527-2.732 4.23-3.611 1.197-.674 2.6-1.01 3.967-1.329zm46.802 118.887c-1.665 4.49-3.2 9.02-4.884 13.492-2.34 6.568-4.772 13.062-7.093 19.668-.692 1.909-1.403 3.817-2.077 5.726a5.992 5.992 0 0 0 1.03-.786c3.35-2.975 6.493-6.381 8.963-10.124a44.134 44.134 0 0 0 5.128-10.03c1.197-3.612 2.04-7.635 1.572-11.453-.319-2.32-.955-4.491-2.358-6.381-.056-.075-.15-.112-.281-.112z" fill="#00539F"/><path d="M101.24 5.745c1.778.168 3.48 1.104 5.015 1.984 1.179.73 2.358 1.46 3.425 2.358a10.88 10.88 0 0 0-2.995-.393c-1.497.037-3.031.73-3.817 2.058-.805.225-.88.898-1.254 1.535-1.853 3.405-4.341 6.68-7.448 9.02-3.312 2.713-7.504 4.285-11.808 4.285-1.797-.019-3.967.187-5.67-.524-.468-.225-1.086-.543-1.048-1.16-.131-.936.692-1.816 1.235-2.49 1.909-2.02 4.005-3.873 6.12-5.67.86-.71 1.59-1.534 2.245-2.432.748-1.01 1.235-2.021 2.414-2.639.86-.449 1.946-.823 2.92-.935 1.496-.094 3.087-.375 4.472-1.03 1.384-.655 2.414-2.02 3.48-3.069.711-.73 1.722-1.01 2.714-.898zm28.238.823c1.198 1.348 1.535 3.537 1.666 5.278-.824.037-1.59-.206-2.395-.225-.524-.056-1.086 0-1.61-.094-.318-.299-.58-.673-.86-.991-.768-.899-1.685-1.591-2.47-2.452.766-.804 1.702-1.553 2.713-2.04 1.029-.467 2.208-.374 2.956.524z" fill="#BFC0C2"/><path d="M106.667 9.675c.991-.019 2.04.13 2.994.393.318.15.561.206.917.187 1.291-.056 2.638-.094 3.948.019 1.797.168 3.556.655 5.203 1.347 1.366.674 2.807 1.61 3.742 2.844-2.376.73-4.49 2.396-5.333 4.791.805-.168 1.497-.561 2.283-.823 2.264-.73 4.641-1.104 7.018-1.01 2.114.055 4.173.635 6.081 1.534 2.265 1.085 4.155 2.863 5.652 4.847.187.224.3.43.636.467 4.024.768 8.01 2.882 10.592 6.1.711.88 1.31 1.741 1.291 2.92.094 1.422-1.104 2.732-2.526 2.732-1.123.075-2.04-.243-2.845-.991-.804-.674-1.085-1.572-1.759-2.358-1.104-1.404-2.563-2.527-4.154-3.313-1.703-.692-3.35-1.328-5.24-1.216 1.254 1.048 2.583 2.227 3.275 3.724.374.805.562 1.666.206 2.508-.505 1.44-1.778 2.339-3.181 2.77-1.16.28-2.34.43-3.518.261-1.18-.168-2.34-.337-3.462-.786-1.703-.468-3.126-1.347-4.754-2.02-3.013-1.33-6.25-2.49-9.562-2.677-1.965-.093-4.098.28-5.708 1.46-.543.411-1.123.804-1.44 1.422 2.657.112 5.22.337 7.71 1.31l.074.168c-.28 1.516-.412 2.995-.075 4.51-3.106-.524-6.325-.28-9.3.805-3.818 1.366-7.28 4.023-9.245 7.598-.767 1.328-1.179 2.77-1.534 4.248-2.807 1.29-5.221 3.293-6.756 5.988-1.853 3.144-2.04 7.242-.468 10.517.15.3.187.617.206.954-.187 1.572-.075 2.957.356 4.491-.786.356-1.591.674-2.358 1.048-1.909 1.03-3.762 2.134-5.39 3.575-3.087 2.6-5.464 6.156-6.156 10.18-.262.786-.281 1.59-.262 2.414 1.31-2.17 2.9-4.117 4.753-5.839 3.33-3.087 7.317-5.501 11.602-6.924.487-.168 1.273-.655 1.76-.337 3.386 1.853 7.335 2.695 11.19 2.583 2.62.037 5.277-.169 7.86-.692 2.152-.393 4.304-.992 6.268-1.928 1.067-.393 2.022-.954 2.995-1.516 2.432-1.366 4.547-3.106 6.53-5.071 3.481-3.724 7.093-7.542 11.341-10.386 1.759-1.142 3.65-2.133 5.633-2.788 3.593-1.273 7.597-1.628 11.396-1.441 1.497.13 3.2.318 4.529 1.048.73.393 1.31 1.01 1.385 1.871.093 1.179-.917 2.227-1.928 2.657-.842.244-1.834.113-2.676-.15-1.16-.355-2.358-.486-3.518-.823-2.152-.393-4.379-.43-6.437.374-1.18.468-2.152 1.236-3.032 2.115-.131.112-.243.225-.374.337.973.636 1.946 1.123 2.694 2.04.824.954 1.31 2.17.974 3.424-.356 1.59-1.423 2.77-2.695 3.687-2.021 1.422-4.342 2.02-6.756 2.339-2.507.206-5.034-.019-7.41-.86-.374-.132-.767-.3-1.16-.394-.244.112-.43.393-.6.599-2.657 3.574-6.605 6.12-10.872 7.26-3.125.88-6.269.993-9.488.787-3.031-.262-6.138-.468-9.17-.243-3.405.15-6.998.73-10.123 2.095-2.601 1.142-4.847 2.938-6.082 5.54-.43.935-.86 2.04-.786 3.087.094-.056.187-.093.3-.15 1.01-.598 2.095-.972 3.18-1.384 3.687-1.348 7.561-2.059 11.472-2.208 2.732-.057 5.408.018 8.103.58-.655.355-1.329.393-2.04.655-6.961 2.096-13.997 5.09-19.649 9.73-3.836 3.145-7.036 7.28-8.252 12.146-1.217 4.622-.506 9.562 1.178 13.96-.505.019-.991.094-1.497.131-2.208-.393-3.798-1.628-5.782-2.545a8.792 8.792 0 0 0-4.473-.86c-2.17.111-4.023 1.047-6.175 1.122-1.441.056-2.863.037-4.267-.318-3.35-.786-6.344-2.639-8.72-5.128a2.813 2.813 0 0 1-.543-.786 19.9 19.9 0 0 0 6.288-.935c3.181-1.048 6.288-2.302 9.675-2.826 1.066-.187 2.096-.112 3.181-.112-2.133-.955-4.566-1.329-6.887-1.479-.28-1.104-.692-2.133-.748-3.293-.225-2.92 1.067-5.858 2.545-8.29.73-1.31 1.74-2.396 2.47-3.706.992-1.815 1.385-3.91 1.516-5.97.262-4.266-.225-8.364-.88-12.575-.524-3.836-.262-7.728 1.31-11.303 1.628-3.724 4.772-6.699 8.571-8.159-.15-.262-.318-.505-.58-.673-3.855-3.949-6.175-9.189-6.793-14.653-.468-3.967 0-8.01 1.198-11.808.617-1.666 1.122-3.35 1.946-4.94.449-.824.711-1.853 1.347-2.545.618 1.833 1.984 3.368 3.65 4.285 1.852 1.067 4.023 1.46 6.137 1.553 3.032.094 6.045-.412 8.927-1.385 2.376-.71 4.64-1.852 6.718-3.218 2.826-1.89 5.202-4.398 6.83-7.392a19.423 19.423 0 0 0 2.227-8.084c.019-.281-.15-.543-.262-.805.786-1.291 2.32-1.965 3.818-2.021z" fill="#FFF"/><path d="M65.834 23.055c-.618.543-1.273 1.03-1.834 1.647-3.2 3.05-5.932 6.624-7.953 10.554-.487 1.123-1.086 2.208-1.516 3.369-1.628 4.173-2.47 8.701-2.264 13.193.355-.73.58-1.479.86-2.227 1.441-3.855 3.22-7.71 5.577-11.097.169-.244.374-.468.58-.693-.019 1.123-.224 2.227-.206 3.369-.056 3.986 1.01 7.972 3.107 11.359.599 1.029 1.403 1.965 2.133 2.938 1.797 2.002 3.855 3.686 6.12 5.108.168.113.299.131.486.113.262.168.43.411.58.673-3.799 1.46-6.943 4.417-8.57 8.16-1.573 3.574-1.835 7.466-1.31 11.302.636 4.21 1.14 8.31.879 12.576-.131 2.058-.524 4.154-1.516 5.97-.711 1.31-1.74 2.395-2.47 3.705-1.478 2.451-2.77 5.39-2.545 8.29.056 1.16.468 2.19.748 3.293-2.301-.018-4.472-.075-6.755.3-3.48.542-7.092-.337-9.806-2.583-2.34-1.834-4.341-4.472-5.09-7.373-.337.786-.187 1.797-.187 2.639.224 3.144 1.478 6.456 3.78 8.664.599.655 1.31 1.179 1.965 1.778-.636.468-1.366.936-1.871 1.553-.375.45-.73.842-.655 1.478.467 4.585 1.87 8.852 3.649 13.081a36.427 36.427 0 0 1 1.254 3.369l-.15-.02c-.225.3-.28.75-.412 1.105-.748 2.582-1.815 5.127-3.293 7.392-1.441 2.17-3.425 4.06-5.914 4.94-1.909.674-3.986 1.085-5.988.487-1.984-.562-3.5-1.947-4.529-3.706-.486-.767-.711-1.628-1.123-2.432-.243-.58-.374-1.217-.636-1.797-.374-.898-.599-1.852-.936-2.77-2.451-7.653-4.379-15.625-5.314-23.616-.356-2.47-.524-4.996-.58-7.485.018-3.2-.113-6.344.187-9.544.468-4.641 1.422-9.226 3.181-13.567.112-.206.075-.412.374-.393.637 1.834 1.366 3.78 2.545 5.333.244.374.43.749.842.954a21.215 21.215 0 0 1-.411-3.93 280.71 280.71 0 0 1 0-5.613c.112-3.107.561-6.157 1.197-9.189.225-.804.412-1.61.562-2.432 1.61-6.101 4.08-11.977 7.26-17.423.469-.73.899-1.478 1.348-2.208 2.844-4.472 6.12-8.664 9.825-12.444 6.662-6.812 14.69-12.463 23.635-15.832.411-.15.786-.243 1.16-.318z" fill="#BFC0C2"/><path d="M119.86 36.753c.336-.018.655.225.954.374.43.262.936.43 1.31.768.056.617-.187 1.16.075 1.778.412 1.197 1.721 1.927 2.957 1.628.636-.131.991-.674 1.534-.899.636.262 1.123.655 1.703.992-.823 1.572-2.788 2.452-4.51 2.302-2.17-.15-4.06-1.871-4.435-4.023-.094-.992-.094-2.04.412-2.92z" fill="#FFF"/><path d="M143.757 39.205c3.387-.356 7.148-.094 10.217 1.515-2.32-.018-4.472-.15-6.755.375-.955.187-1.834.58-2.732.898.018.225.074.393.262.543a16.18 16.18 0 0 0 4.977 2.882c1.89.692 3.93 1.235 5.951 1.328 1.16-.355 2.302-1.029 3.219-1.834.187-.056.355.281.486.393 1.048 1.553 1.91 3.144 1.965 5.072-1.122-.375-1.927-1.217-3.162-1.385.337 1.74.542 3.574.224 5.352-.093.262-.056.73-.467.655a21.223 21.223 0 0 1-2.134-.374c-1.983-.43-3.892-.356-5.913-.337-.562 0-1.104.112-1.647.13-.356-.673-.505-1.44-.936-2.076-1.628-2.77-4.79-4.323-7.897-4.604.337 1.422.805 2.788.917 4.267.094 1.44.131 3.087-.374 4.472-.094.374-.43.43-.73.599-2.657 1.179-4.922 2.994-7.167 4.81-.43.374-.842.785-1.254 1.16-2.133 1.927-3.967 4.135-6.1 6.063a33.445 33.445 0 0 1-6.98 4.996c-2.77 1.441-5.82 2.414-8.983 2.34-1.647-.038-3.163-.656-4.529-1.554-2.077-1.403-3.48-3.686-3.836-6.156-.356-1.965-.094-3.818.225-5.764.205-.767.542-1.479.617-2.283-2.096 1.029-3.705 3.087-4.341 5.314-.768 2.452-.543 5.24.112 7.692.206.917.561 1.777.767 2.713-1.085.112-2.264-.243-3.294-.561-2.62-.842-5.164-2.62-6.55-5.034a.882.882 0 0 0-.28.112c-.019-.337-.056-.636-.206-.954-1.572-3.294-1.385-7.374.468-10.517 1.535-2.695 3.949-4.697 6.756-5.989.355-1.478.767-2.919 1.534-4.248 1.965-3.574 5.427-6.231 9.245-7.597 2.975-1.086 6.194-1.31 9.3-.805.075.3.15.618.225.917-3.032.262-5.989.898-8.459 2.807-1.815 1.329-3.087 3.256-3.761 5.408-.262.88-.524 1.74-.524 2.676a5.6 5.6 0 0 0 .711-.786c2.564-3.162 6.381-5.24 10.48-5.314 1.515-.094 2.956.168 4.453.355.899.225 1.797.524 2.658.824.374.112.018.505-.057.71-1.702 2.995-2.226 6.57-1.553 9.938.375 1.478.805 3.087 1.703 4.322-.093-5.034 2.021-9.936 5.24-13.735.767-.749 1.366-1.628 2.227-2.265 1.123-1.16 2.414-2.096 3.724-2.994 3.555-2.376 7.71-4.004 11.958-4.472z" fill="#BFC0C2"/><path d="M142.24 51.425c.207.037.375.112.544.205 1.29.805 2.283 2.003 2.713 3.481a.574.574 0 0 1 0 .356c-.823.224-1.647.337-2.451.617.018-.917.018-1.815-.169-2.713-.13-.674-.505-1.254-.636-1.946zm18.92 1.609c.468.355.749 1.179 1.01 1.703.394.805.394 1.628.375 2.507-.73-.243-1.403-.598-2.133-.823.075-.486.206-.936.318-1.403.187-.674.15-1.33.43-1.984z" fill="#FFF"/><path d="M143.457 65.347c.318.169.45.169.805.113 3.574-.506 7.28.28 10.274 2.32.168.131.449.28.449.524.206 2.115-.693 4.323-1.815 6.082-1.105 1.647-2.545 3.125-4.21 4.21-2.696 1.928-6.064 2.92-9.358 2.939-2.395.056-4.828-.375-7.13-1.03-1.085-.3-2.095-.804-3.162-1.179-.524.487-.88 1.123-1.422 1.591-.506.43-.973.898-1.479 1.329-2.32 1.946-5.09 3.424-8.028 4.191-1.61.506-3.312.749-4.977.749-4.473.131-8.627-.412-13.1-.58-3.705-.075-7.729.243-11.134 1.815-2.938 1.329-5.334 3.48-7.205 6.082-.094.112-.112.243-.038.393a1.492 1.492 0 0 1-.299.15c-.075-1.048.374-2.152.786-3.088 1.235-2.601 3.48-4.398 6.082-5.54 3.144-1.365 6.718-1.945 10.124-2.095 3.031-.225 6.138-.038 9.17.243 3.218.206 6.362.094 9.487-.786 4.286-1.16 8.234-3.686 10.873-7.26.168-.207.355-.487.599-.6.393.094.767.262 1.16.393 2.376.843 4.903 1.086 7.41.861 2.414-.318 4.735-.935 6.756-2.339 1.272-.917 2.358-2.096 2.695-3.686.318-1.254-.169-2.47-.974-3.425-.748-.917-1.721-1.422-2.694-2.04.112-.112.243-.224.355-.337z" fill="#BFC0C2"/><path d="M29.511 75.06c.056 1.983-.056 3.967.094 5.97.018 2.002.3 4.023.505 6.006.168.805.337 1.61.43 2.414.15 1.423.618 2.714.917 4.099a39.44 39.44 0 0 0 1.235 3.817c.206.468.375.936.487 1.441-.674-.393-1.216-1.104-1.722-1.703-2.32-2.844-4.042-6.269-4.528-9.918-.524-3.556.13-7.13 1.646-10.367.262-.6.506-1.217.936-1.76z" fill="#00539F"/><path d="M141.66 87.804c1.067-.075 2.115-.094 3.182 0 2.283.018 4.566.28 6.83.58 3.294.542 6.625 1.235 9.732 2.451a40.638 40.638 0 0 1 10.778 5.914c7.617 5.838 12.875 14.802 14.13 24.327.224 1.553.41 3.125.43 4.697.15 1.572-.038 3.107-.075 4.678-.206 1.965-.412 3.949-.786 5.914-.337 1.347-.562 2.713-.955 4.06-.991 3.5-2.227 6.943-3.799 10.218-1.029 2.377-2.301 4.641-3.63 6.868-5.034 8.271-11.733 15.532-19.48 21.315-3.687 2.676-7.598 5.24-11.715 7.204a67.358 67.358 0 0 1-6.718 2.995c-6.288 2.432-12.931 4.098-19.65 4.678-1.777.243-3.611.3-5.408.3H73.731c-.356-.038-.805.055-.618-.487.337-1.01.786-1.984 1.18-2.957.449-1.44 1.103-2.788 1.627-4.192 1.685-4.397 3.537-8.776 5.184-13.193 2.32-.187 4.678.019 6.999-.112.355-.487.486-1.16.711-1.722 3.05-8.327 5.988-16.655 9.057-24.982 1.535-4.38 3.2-8.702 4.697-13.1.393-1.235 1.048-2.432 1.273-3.705-.767-.73-1.778-1.235-2.62-1.871-4.098-2.695-8.103-5.52-12.22-8.197-1.347-.973-2.826-1.815-4.117-2.863 1.722-2.19 3.762-4.192 5.745-6.138 10.087-9.619 22.4-17.048 35.93-20.566 1.516-.318 2.994-.786 4.529-.954 3.48-.674 7.036-1.104 10.573-1.16zm5.147 31.083c-1.665 4.49-3.2 9.02-4.884 13.492-2.34 6.568-4.772 13.062-7.093 19.668-.692 1.909-1.403 3.817-2.077 5.726a5.992 5.992 0 0 0 1.03-.786c3.35-2.975 6.493-6.381 8.963-10.124a44.134 44.134 0 0 0 5.128-10.03c1.197-3.612 2.04-7.635 1.572-11.453-.319-2.32-.955-4.491-2.358-6.381-.056-.075-.15-.112-.281-.112z" fill="#FFF"/><path d="M104.664 91.883c.618.056 1.217.15 1.816.3-.3.318-.712.486-1.086.692a94.073 94.073 0 0 0-11.116 7.41c-.898.655-1.703 1.423-2.6 2.059-3.874 3.219-7.486 6.737-10.873 10.46-1.348 1.666-2.882 3.257-4.042 5.053a940.432 940.432 0 0 1 8.945 6.082 18.968 18.968 0 0 1-8.609 4.529c-.917.13-1.759.374-2.657.037.505-.037.992-.112 1.497-.13-1.684-4.398-2.395-9.357-1.179-13.961 1.217-4.865 4.417-9.001 8.253-12.145 5.651-4.64 12.688-7.635 19.649-9.731.674-.262 1.366-.3 2.002-.655z" fill="#BFC0C2"/><path d="M143.345 92.725c2.807-.037 5.651.3 8.44.655 1.534.3 3.088.674 4.603 1.048 1.76.543 3.518 1.104 5.203 1.834 3.387 1.422 6.55 3.443 9.3 5.876 4.847 4.267 8.403 10.087 9.844 16.374 1.44 5.652 1.31 11.79.15 17.497-1.797 8.571-5.802 16.768-10.986 23.804-5.651 7.691-12.912 14.222-21.09 19.162-1.497.843-2.9 1.722-4.453 2.452-6.307 3.256-13.1 5.558-20.117 6.737-.824.075-1.61.224-2.433.355-2.657.244-5.37.562-8.047.524H83.256c-.992 0-1.983.019-2.994-.037.225-1.03.692-1.928 1.03-2.92.523-1.403 1.16-2.75 1.646-4.154.356-.973.823-1.909 1.16-2.9.113-.319.225-.637.412-.917.206-.131.543-.075.767-.094 2.059 0 4.117.037 6.176-.019.449-.411.561-1.16.767-1.721 6.306-17.441 12.65-34.938 18.957-52.36.71-1.91 1.347-3.856 2.114-5.746.618-.505 1.422-.842 2.115-1.235 3.799-2.04 7.878-3.555 12.07-4.547 3.593-.805 7.28-1.104 10.947-.805a3.164 3.164 0 0 1-.224 1.01c-2.545 6.98-4.922 13.755-7.523 20.735-1.684 4.697-3.425 9.488-5.127 14.204-2.433 6.83-4.997 13.623-7.392 20.472a899.05 899.05 0 0 0-2.732 7.56c-.244.618-.487 1.236-.637 1.89.786-.018 1.516-.261 2.302-.374 7.167-1.628 13.81-5.015 19.724-9.338 6.737-4.996 12.482-11.246 16.692-18.489 2.545-4.304 4.473-8.945 5.596-13.81.804-3.63 1.179-7.485.73-11.19-.094-1.554-.543-3.126-.917-4.623-.992-3.368-2.733-6.493-5.184-9.001a20.917 20.917 0 0 0-9.544-5.652c-1.272-.374-2.526-.73-3.874-.842-4.08-.617-8.196-.28-12.22.58-1.46.188-2.825.712-4.247 1.086-6.644 2.19-12.857 5.782-18.265 10.18-1.946 1.572-3.742 3.312-5.539 5.034-2.264-1.422-4.454-2.976-6.662-4.473a6.887 6.887 0 0 1-1.104-.842c.412-.449.805-.898 1.254-1.291 4.921-4.79 10.46-9.001 16.468-12.37 4.453-2.488 9.132-4.622 13.997-6.175 1.048-.356 2.134-.561 3.163-.936 2.377-.542 4.697-1.16 7.13-1.478 3.031-.45 6.063-.767 9.057-.73z" fill="#00539F"/><path d="M144.374 110.297c.43-.056.88.28 1.254.45 3.219 1.515 5.932 4.154 7.43 7.372.748 1.348 1.16 2.882 1.553 4.36.355 1.816.56 3.668.505 5.521-.094 2.433-.337 4.81-1.01 7.167a23.9 23.9 0 0 1-1.124 3.743c-.505 1.722-1.328 3.275-2.077 4.903-1.46 2.863-3.144 5.595-5.109 8.14-.785 1.067-1.59 2.152-2.507 3.107-2.246 2.62-4.753 4.996-7.43 7.186-3.948 3.162-8.364 5.95-13.061 7.84.561-2.02 1.44-3.967 2.096-5.95.561-1.46 1.048-2.938 1.571-4.417a326.494 326.494 0 0 0 2.209-5.988c1.965-5.52 3.967-10.854 5.932-16.356.468-1.497 1.104-2.938 1.572-4.416 1.834-4.922 3.574-9.862 5.39-14.784.785-1.983 1.384-4.042 2.189-6.025.206-.618.318-1.235.617-1.853zm2.433 8.59c-1.665 4.49-3.2 9.02-4.884 13.492-2.34 6.568-4.772 13.062-7.093 19.668-.692 1.909-1.403 3.817-2.077 5.726a5.992 5.992 0 0 0 1.03-.786c3.35-2.975 6.493-6.381 8.963-10.124a44.134 44.134 0 0 0 5.128-10.03c1.197-3.612 2.04-7.635 1.572-11.453-.319-2.32-.955-4.491-2.358-6.381-.056-.075-.15-.112-.281-.112z" fill="#00539F"/><path d="M88.795 126.39c.262-.261.524.038.786.17 2.377 1.627 4.754 3.236 7.13 4.846.169.15.468.28.505.524-.093.543-.336 1.085-.524 1.61-.561 1.496-1.104 3.03-1.646 4.528-.113.337-.319.524-.6.71-1.627 1.105-3.2 2.247-4.715 3.52-1.853 1.515-3.743 2.975-5.52 4.565-2.003 1.59-3.874 3.387-5.727 5.146-1.347 1.329-2.695 2.676-3.91 4.136-.675.674-1.199 1.46-1.872 2.115-.28-.075-.356-.056-.618.075-1.703.898-3.705 1.628-5.633 1.628-1.665 0-3.237-.768-4.21-2.115-1.347-1.778-1.853-4.304-2.077-6.494-.187-2.339-.15-4.715.037-7.073-.168-.038-.318-.038-.486-.056 1.197-.375 2.432-.824 3.518-1.498 1.01-.598 1.834-1.384 2.657-2.226 1.684-1.984 2.639-4.174 3.799-6.457 5.988-.093 11.902-1.983 16.711-5.576.823-.636 1.59-1.385 2.395-2.077z" fill="#BFC0C2"/><path d="M42.835 137.506l.15.02c.449 1.421.786 2.9 1.085 4.36.262 1.758.636 3.574.618 5.351-.842.075-1.647.075-2.452.375-2.17.673-3.91 2.358-5.109 4.229-1.01 1.628-1.777 3.294-2.058 5.202a8.088 8.088 0 0 0 .674 4.641c.243.543.673.973.935 1.497.094.543.02 1.123.075 1.666.206 1.534.674 3.013 1.74 4.173 1.18 1.46 3.07 2.32 4.885 2.638-.374 1.965-.973 3.855-1.666 5.727-.655 1.628-1.44 3.181-2.545 4.547-.411.487-.692.973-1.291 1.235.262-1.197.3-2.489.037-3.686-.43-.131-.88-.225-1.066.3-.824 2.151-2.433 4.06-4.566 4.996-1.292.598-2.62.636-4.024.561.131-.393.3-.73.524-1.067.73-1.179 1.366-2.526 1.59-3.892.057-.318-.036-.599-.111-.898-.824-.075-1.01.524-1.554.992a10.077 10.077 0 0 1-3.462 2.152c-1.478.467-3.143.393-4.547-.3-.393-.206-.954-.43-1.216-.805.168-.28.636-.393.898-.58 1.422-.917 2.807-2.133 3.63-3.63.187-.393-.187-.823-.598-.767-.618.187-1.16.561-1.797.748-.88.262-1.796.505-2.713.562-1.03-.038-2.19-.281-2.882-1.123-.618-.73-.973-1.76-1.048-2.695-.056-.374.13-.505.374-.73.973-.823 1.815-1.834 2.582-2.863 2.04-2.882 3.612-6.344 3.855-9.9.075-.86.262-1.758.15-2.6-.524-.73-1.197-1.348-1.684-2.115a7.676 7.676 0 0 1-1.329-6.12c.43-1.684 1.479-3.18 2.676-4.416.412.805.637 1.666 1.123 2.433 1.03 1.74 2.545 3.144 4.529 3.705 2.002.6 4.06.187 5.988-.486 2.489-.88 4.473-2.77 5.914-4.94 1.478-2.246 2.526-4.81 3.293-7.392.112-.337.169-.786.393-1.105z" fill="#FFF"/><path d="M59.696 144.243c.168 0 .337.019.486.056-.205 2.34-.243 4.716-.037 7.074.225 2.19.73 4.716 2.077 6.494.973 1.347 2.564 2.114 4.21 2.114 1.947 0 3.95-.73 5.633-1.628.244-.13.337-.15.618-.075-2.526 3.331-5.015 6.587-8.01 9.526-.804.767-1.777 1.272-2.844 1.609-.898.3-1.946.262-2.882.224-.673-.018-1.216-.336-1.852-.449-1.235.487-2.396.899-3.762.842-1.721-.018-3.424-.804-4.341-2.283-1.89.113-3.855-.28-5.072-1.852-.636-.786-.655-1.628-.804-2.583-.487-.355-.992-.561-1.404-1.029-.486-.561-.804-1.254-1.01-1.965-.225-1.31-.038-2.62.468-3.836.374-.88.767-1.815 1.366-2.545.318.037.58.337.898.374.805.094 1.59-.075 2.302-.412 1.852-.842 3.518-2.19 5.034-3.536 1.179-1.067 2.04-2.452 3.237-3.5 1.628-1.254 3.761-2.002 5.689-2.62z" fill="#FFF"/><path d="M167.149 192.618c1.366-.057 2.732.018 4.098-.02.056.356.018.693-.038 1.03-.449-.019-.898.019-1.347.037-.056 1.31-.019 2.62-.019 3.912-.411 0-.823 0-1.235.018-.093-1.29-.037-2.6-.037-3.91-.468-.057-.955-.094-1.422-.057-.02-.355-.057-.674 0-1.01zm5.09.018c.71-.056 1.403-.018 2.114-.018.3.786.674 1.553.917 2.357.187-.112.337-.168.412-.374.318-.636.561-1.31.842-1.983.674-.02 1.347-.02 2.002-.02.094.806.056 1.591.056 2.396 0 .88.038 1.722-.056 2.601-.393-.018-.767-.037-1.16 0-.112-1.29 0-2.6-.075-3.91-.73.336-.898 1.552-1.272 2.207-.169.506-.6.543-1.067.412-.636-.73-.711-2.133-1.516-2.695-.093 1.31-.037 2.639-.037 3.968-.412-.02-.805-.02-1.217-.02.057-1.627 0-3.274.057-4.92z" fill="#00539F"/></g></svg>