<svg width="200" height="200" xmlns="http://www.w3.org/2000/svg"><g fill-rule="nonzero" fill="none"><path d="M100.145 0h2.47l.169.112.13.075c1.385.318 2.714.711 3.987 1.385 1.216.561 2.245 1.347 3.33 2.096.468.3.824.805 1.423.748 2.339-.093 4.66.188 6.942.749.281.037.618.15.899.075.542-.393.992-.898 1.516-1.31 1.16-1.01 2.47-1.834 3.854-2.508 1.572-.748 3.425-1.141 5.128-.655.805.262 1.684.655 2.264 1.291.711.712 1.423 1.348 1.834 2.284 1.217 2.133 1.872 4.435 2.377 6.811.187.655.168 1.385.412 2.021 1.104.824 2.245 1.572 3.256 2.527 1.197.954 2.114 2.357 3.087 3.48.6.3 1.235.468 1.834.768 2.77 1.085 5.278 2.694 7.542 4.622 1.665 1.553 3.162 3.293 4.266 5.296.487.804.936 1.628 1.198 2.545a21.24 21.24 0 0 1 1.441 6.25c.318.393.823.636 1.198.992 3.125 2.695 5.352 6.475 6.063 10.554.43 2.396.374 5.034-.187 7.392-.15.73-.562 1.329-.262 2.058.88 2.677.3 6.026-1.89 7.916-.562.543-1.01 1.104-1.684 1.497-.524.318-1.086.618-1.591.973-.356 4.772-3.013 9.264-6.7 12.258-.411.355-.898.599-1.122 1.123 4.229.786 8.383 1.89 12.332 3.649 1.31.599 2.638 1.16 3.874 1.927 4.397 2.246 8.29 5.52 11.602 9.151 1.834 2.096 3.5 4.342 4.865 6.774 2.452 4.099 4.155 8.683 5.09 13.38.356 1.74.524 3.519.843 5.278v7.579c-.319 1.74-.45 3.518-.786 5.258-.955 5.37-2.658 10.517-4.866 15.495-1.16 2.732-2.601 5.352-4.08 7.916a77.083 77.083 0 0 1-7.092 9.918c-1.329 1.703-2.826 3.293-4.341 4.828-.861.992-1.872 1.871-2.845 2.77-2.975 2.788-6.175 5.389-9.581 7.672-5.914 4.117-12.388 7.41-19.181 9.824-1.048.45-2.152.786-3.257 1.067-5.501 1.74-11.265 2.845-17.01 3.312-.936.188-1.89.15-2.845.281H65.04c.636-1.403 1.141-2.844 1.721-4.267.955-2.694 2.096-5.314 3.125-7.99 1.947-4.847 3.855-9.694 5.783-14.56a81.99 81.99 0 0 1 1.759-4.472c.075-.28.543-.187.767-.224 2.077 0 4.173.018 6.25-.02 2.115-6.08 4.38-12.107 6.55-18.17.243-.636.524-1.254.618-1.946-.15.037-.281.056-.43.094a166.992 166.992 0 0 0-5.428 4.846c-1.422 1.441-2.956 2.807-4.21 4.398-.45.487-.955.917-1.404 1.403-1.347 1.572-2.75 3.126-4.06 4.735-2.134 2.414-3.912 5.221-6.195 7.448-.486.599-1.048 1.085-1.646 1.553-1.853 1.553-4.024 2.826-6.42 3.275-1.047.15-2.151.206-3.18 0-.487-.094-.992-.318-1.479-.168-.58.168-1.141.393-1.721.524-1.853.318-3.724.037-5.465-.637a13.861 13.861 0 0 0-1.216-.505c-.636 3.144-1.628 6.27-3.144 9.095-1.067 1.89-2.47 3.668-4.267 4.903-1.01.599-1.983 1.141-3.143 1.366-.824.187-1.629.168-2.47.15-.431-.02-.75.168-1.142.318-2.19.898-4.51 1.384-6.887 1.104-1.74-.244-3.387-.973-4.603-2.265-.318-.355-.767-.336-1.217-.43-2.17-.28-4.528-.992-6.212-2.433-.936-.804-1.722-1.852-2.04-3.069-.131-.43-.15-.917-.356-1.31-.449-.411-.992-.73-1.44-1.141-1.255-1.18-2.209-2.676-2.546-4.38-.449-2.151-.206-4.36.955-6.25.524-.804 1.141-1.628 1.908-2.189.711-.505 1.254-1.31 1.685-2.077.336-.655.748-1.31.991-2.002.412-1.236.899-2.415 1.123-3.706.094-.468-.262-.88-.486-1.254-1.46-2.189-2.32-4.865-2.508-7.485-.037-2.19.487-4.416 1.628-6.288.262-.505.655-.917.43-1.515-3.237-9.376-5.65-18.995-6.587-28.875-.074-.88-.112-1.76-.243-2.62-.13-.842-.037-1.684-.187-2.508v-5.52c.131-.487.075-1.01.112-1.516.281-2.489.45-4.978.899-7.448.88-4.959 2.376-10.124 4.94-14.484.318-.749.337-1.647.505-2.433.88-5.146 2.433-10.217 4.267-15.102 2.863-7.298 6.587-14.54 11.452-20.715.674-1.011 1.479-1.89 2.227-2.826.73-.842 1.404-1.722 2.19-2.508 1.796-2.002 3.686-3.948 5.782-5.651 1.928-1.76 4.024-3.369 6.157-4.884 2.19-1.629 4.529-2.976 6.887-4.323 5.539-2.994 11.396-5.39 17.478-7.037 2.246-.636 4.566-1.066 6.812-1.628.767-.617 1.422-1.46 2.077-2.208 1.048-1.16 1.927-2.62 3.144-3.593 2.414-2.208 5.82-3.125 9.02-3.144 1.253-1.422 2.526-2.732 4.229-3.611 1.197-.674 2.6-1.01 3.967-1.329Zm46.802 118.887c-1.665 4.49-3.2 9.02-4.884 13.492-2.339 6.568-4.772 13.062-7.092 19.668-.693 1.909-1.404 3.817-2.077 5.726a5.992 5.992 0 0 0 1.029-.786c3.35-2.975 6.493-6.381 8.964-10.124a44.134 44.134 0 0 0 5.127-10.03c1.198-3.612 2.04-7.635 1.572-11.453-.318-2.32-.954-4.491-2.358-6.381-.056-.075-.15-.112-.28-.112Z" fill="#00539F"/><path d="M101.38 5.745c1.778.168 3.48 1.104 5.015 1.984 1.18.73 2.358 1.46 3.425 2.358a10.88 10.88 0 0 0-2.994-.393c-1.497.037-3.032.73-3.818 2.058-.804.225-.88.898-1.254 1.535-1.852 3.405-4.341 6.68-7.448 9.02-3.312 2.713-7.504 4.285-11.808 4.285-1.796-.019-3.967.187-5.67-.524-.468-.225-1.085-.543-1.048-1.16-.13-.936.693-1.816 1.235-2.49 1.909-2.02 4.005-3.873 6.12-5.67.86-.71 1.59-1.534 2.245-2.432.749-1.01 1.235-2.021 2.414-2.639.861-.449 1.946-.823 2.92-.935 1.497-.094 3.087-.375 4.472-1.03 1.385-.655 2.414-2.02 3.48-3.069.712-.73 1.722-1.01 2.714-.898ZM129.619 6.568c1.197 1.348 1.534 3.537 1.665 5.278-.823.037-1.59-.206-2.395-.225-.524-.056-1.085 0-1.61-.094-.318-.299-.58-.673-.86-.991-.768-.899-1.684-1.591-2.47-2.452.767-.804 1.702-1.553 2.713-2.04 1.03-.467 2.208-.374 2.957.524Z" fill="#BFC0C2"/><path d="M106.807 9.675c.992-.019 2.04.13 2.994.393.318.15.562.206.917.187 1.291-.056 2.639-.094 3.949.019 1.796.168 3.555.655 5.202 1.347 1.366.674 2.807 1.61 3.743 2.844-2.377.73-4.492 2.396-5.334 4.791.805-.168 1.497-.561 2.283-.823 2.265-.73 4.641-1.104 7.018-1.01 2.115.055 4.173.635 6.082 1.534 2.264 1.085 4.154 2.863 5.651 4.847.187.224.3.43.637.467 4.023.768 8.009 2.882 10.591 6.1.711.88 1.31 1.741 1.292 2.92.093 1.422-1.105 2.732-2.527 2.732-1.123.075-2.04-.243-2.844-.991-.805-.674-1.086-1.572-1.76-2.358-1.103-1.404-2.563-2.527-4.154-3.313-1.703-.692-3.35-1.328-5.24-1.216 1.254 1.048 2.583 2.227 3.275 3.724.375.805.562 1.666.206 2.508-.505 1.44-1.777 2.339-3.181 2.77-1.16.28-2.34.43-3.518.261-1.18-.168-2.34-.337-3.462-.786-1.703-.468-3.125-1.347-4.753-2.02-3.013-1.33-6.25-2.49-9.563-2.677-1.965-.093-4.098.28-5.707 1.46-.543.411-1.123.804-1.441 1.422 2.657.112 5.22.337 7.71 1.31l.074.168c-.28 1.516-.411 2.995-.074 4.51-3.107-.524-6.326-.28-9.301.805-3.818 1.366-7.28 4.023-9.245 7.598-.767 1.328-1.178 2.77-1.534 4.248-2.807 1.29-5.221 3.293-6.756 5.988-1.852 3.144-2.04 7.242-.467 10.517.15.3.187.617.205.954-.187 1.572-.074 2.957.356 4.491-.786.356-1.59.674-2.358 1.048-1.909 1.03-3.761 2.134-5.39 3.575-3.087 2.6-5.464 6.156-6.156 10.18-.262.786-.28 1.59-.262 2.414 1.31-2.17 2.9-4.117 4.753-5.839 3.331-3.087 7.317-5.501 11.602-6.924.487-.168 1.273-.655 1.76-.337 3.387 1.853 7.335 2.695 11.19 2.583 2.62.037 5.277-.169 7.86-.692 2.152-.393 4.304-.992 6.269-1.928 1.066-.393 2.02-.954 2.994-1.516 2.433-1.366 4.547-3.106 6.531-5.071 3.48-3.724 7.092-7.542 11.34-10.386 1.76-1.142 3.65-2.133 5.633-2.788 3.593-1.273 7.598-1.628 11.397-1.441 1.497.13 3.2.318 4.528 1.048.73.393 1.31 1.01 1.385 1.871.094 1.179-.917 2.227-1.927 2.657-.843.244-1.834.113-2.676-.15-1.16-.355-2.358-.486-3.519-.823-2.152-.393-4.379-.43-6.437.374-1.179.468-2.152 1.236-3.032 2.115-.13.112-.243.225-.374.337.973.636 1.946 1.123 2.695 2.04.823.954 1.31 2.17.973 3.424-.356 1.59-1.422 2.77-2.695 3.687-2.02 1.422-4.341 2.02-6.755 2.339-2.508.206-5.034-.019-7.41-.86-.375-.132-.768-.3-1.161-.394-.243.112-.43.393-.599.599-2.657 3.574-6.606 6.12-10.872 7.26-3.126.88-6.27.993-9.488.787-3.032-.262-6.138-.468-9.17-.243-3.406.15-6.999.73-10.124 2.095-2.6 1.142-4.847 2.938-6.082 5.54-.43.935-.86 2.04-.786 3.087.094-.056.188-.093.3-.15 1.01-.598 2.096-.972 3.181-1.384 3.687-1.348 7.56-2.059 11.471-2.208 2.733-.057 5.409.018 8.103.58-.655.355-1.328.393-2.04.655-6.96 2.096-13.997 5.09-19.648 9.73-3.837 3.145-7.037 7.28-8.253 12.146-1.217 4.622-.505 9.562 1.179 13.96-.505.019-.992.094-1.497.131-2.208-.393-3.8-1.628-5.783-2.545a8.792 8.792 0 0 0-4.472-.86c-2.171.111-4.024 1.047-6.176 1.122-1.44.056-2.863.037-4.266-.318-3.35-.786-6.344-2.639-8.72-5.128a2.813 2.813 0 0 1-.543-.786c2.133.02 4.247-.28 6.287-.935 3.182-1.048 6.288-2.302 9.675-2.826 1.067-.187 2.096-.112 3.181-.112-2.133-.955-4.566-1.329-6.886-1.479-.28-1.104-.693-2.133-.749-3.293-.224-2.92 1.067-5.858 2.545-8.29.73-1.31 1.74-2.396 2.47-3.706.992-1.815 1.385-3.91 1.516-5.97.262-4.266-.224-8.364-.88-12.575-.523-3.836-.261-7.728 1.31-11.303 1.629-3.724 4.773-6.699 8.571-8.159-.15-.262-.318-.505-.58-.673-3.855-3.949-6.175-9.189-6.793-14.653-.467-3.967 0-8.01 1.198-11.808.618-1.666 1.123-3.35 1.946-4.94.45-.824.711-1.853 1.348-2.545.617 1.833 1.983 3.368 3.649 4.285 1.852 1.067 4.023 1.46 6.138 1.553 3.031.094 6.044-.412 8.926-1.385 2.377-.71 4.641-1.852 6.718-3.218 2.826-1.89 5.202-4.398 6.83-7.392a19.423 19.423 0 0 0 2.227-8.084c.02-.281-.15-.543-.262-.805.786-1.291 2.32-1.965 3.818-2.021Z" fill="#FFF"/><path d="M65.974 23.055c-.617.543-1.272 1.03-1.834 1.647-3.2 3.05-5.932 6.624-7.953 10.554-.486 1.123-1.085 2.208-1.516 3.369-1.628 4.173-2.47 8.701-2.264 13.193.356-.73.58-1.479.86-2.227 1.442-3.855 3.22-7.71 5.577-11.097.169-.244.375-.468.58-.693-.018 1.123-.224 2.227-.205 3.369-.056 3.986 1.01 7.972 3.106 11.359.599 1.029 1.404 1.965 2.133 2.938 1.797 2.002 3.855 3.686 6.12 5.108.168.113.3.131.486.113.262.168.43.411.58.673-3.798 1.46-6.942 4.417-8.57 8.16-1.572 3.574-1.834 7.466-1.31 11.302.636 4.21 1.141 8.31.88 12.576-.132 2.058-.525 4.154-1.517 5.97-.71 1.31-1.74 2.395-2.47 3.705-1.478 2.451-2.77 5.39-2.545 8.29.056 1.16.468 2.19.749 3.293-2.302-.018-4.473-.075-6.756.3-3.48.542-7.092-.337-9.806-2.583-2.339-1.834-4.341-4.472-5.09-7.373-.336.786-.187 1.797-.187 2.639.225 3.144 1.479 6.456 3.78 8.664.6.655 1.31 1.179 1.965 1.778-.636.468-1.366.936-1.871 1.553-.374.45-.73.842-.655 1.478.468 4.585 1.871 8.852 3.65 13.081a36.427 36.427 0 0 1 1.253 3.369l-.15-.02c-.224.3-.28.75-.412 1.105-.748 2.582-1.815 5.127-3.293 7.392-1.441 2.17-3.425 4.06-5.914 4.94-1.908.674-3.986 1.085-5.988.487-1.983-.562-3.5-1.947-4.529-3.706-.486-.767-.71-1.628-1.122-2.432-.244-.58-.375-1.217-.637-1.797-.374-.898-.598-1.852-.935-2.77-2.452-7.653-4.38-15.625-5.315-23.616-.355-2.47-.524-4.996-.58-7.485.019-3.2-.112-6.344.187-9.544.468-4.641 1.422-9.226 3.181-13.567.113-.206.075-.412.375-.393.636 1.834 1.366 3.78 2.545 5.333.243.374.43.749.842.954a21.215 21.215 0 0 1-.412-3.93 280.71 280.71 0 0 1 0-5.613c.112-3.107.562-6.157 1.198-9.189.224-.804.411-1.61.561-2.432 1.61-6.101 4.08-11.977 7.261-17.423.468-.73.898-1.478 1.347-2.208 2.845-4.472 6.12-8.664 9.825-12.444 6.662-6.812 14.69-12.463 23.635-15.832.412-.15.786-.243 1.16-.318Z" fill="#BFC0C2"/><path d="M120 36.753c.337-.018.655.225.954.374.43.262.936.43 1.31.768.056.617-.187 1.16.075 1.778.412 1.197 1.722 1.927 2.957 1.628.636-.131.992-.674 1.534-.899.637.262 1.123.655 1.703.992-.823 1.572-2.788 2.452-4.51 2.302-2.17-.15-4.06-1.871-4.435-4.023-.093-.992-.093-2.04.412-2.92Z" fill="#FFF"/><path d="M143.897 39.205c3.387-.356 7.149-.094 10.218 1.515-2.32-.018-4.473-.15-6.756.375-.954.187-1.834.58-2.732.898.019.225.075.393.262.543a16.18 16.18 0 0 0 4.978 2.882c1.89.692 3.93 1.235 5.95 1.328 1.16-.355 2.302-1.029 3.22-1.834.186-.056.355.281.486.393 1.048 1.553 1.909 3.144 1.965 5.072-1.123-.375-1.928-1.217-3.163-1.385.337 1.74.543 3.574.225 5.352-.094.262-.056.73-.468.655a21.223 21.223 0 0 1-2.133-.374c-1.984-.43-3.893-.356-5.914-.337-.561 0-1.104.112-1.647.13-.355-.673-.505-1.44-.935-2.076-1.628-2.77-4.791-4.323-7.897-4.604.336 1.422.804 2.788.917 4.267.093 1.44.13 3.087-.375 4.472-.093.374-.43.43-.73.599-2.657 1.179-4.921 2.994-7.167 4.81-.43.374-.842.785-1.254 1.16-2.133 1.927-3.967 4.135-6.1 6.063a33.445 33.445 0 0 1-6.98 4.996c-2.77 1.441-5.82 2.414-8.983 2.34-1.647-.038-3.162-.656-4.528-1.554-2.078-1.403-3.481-3.686-3.837-6.156-.355-1.965-.093-3.818.225-5.764.206-.767.543-1.479.617-2.283-2.096 1.029-3.705 3.087-4.341 5.314-.767 2.452-.543 5.24.112 7.692.206.917.562 1.777.767 2.713-1.085.112-2.264-.243-3.293-.561-2.62-.842-5.165-2.62-6.55-5.034a.882.882 0 0 0-.28.112c-.02-.337-.057-.636-.206-.954-1.572-3.294-1.385-7.374.467-10.517 1.535-2.695 3.949-4.697 6.756-5.989.356-1.478.767-2.919 1.534-4.248 1.965-3.574 5.427-6.231 9.245-7.597 2.975-1.086 6.194-1.31 9.3-.805.075.3.15.618.225.917-3.032.262-5.988.898-8.458 2.807-1.816 1.329-3.088 3.256-3.762 5.408-.262.88-.524 1.74-.524 2.676.262-.243.505-.505.711-.786 2.564-3.162 6.382-5.24 10.48-5.314 1.516-.094 2.957.168 4.454.355.898.225 1.796.524 2.657.824.374.112.019.505-.056.71-1.703 2.995-2.227 6.57-1.553 9.938.374 1.478.804 3.087 1.703 4.322-.094-5.034 2.02-9.936 5.24-13.735.767-.749 1.365-1.628 2.226-2.265 1.123-1.16 2.414-2.096 3.724-2.994 3.556-2.376 7.71-4.004 11.958-4.472Z" fill="#BFC0C2"/><path d="M142.381 51.425c.206.037.375.112.543.205 1.291.805 2.283 2.003 2.713 3.481a.574.574 0 0 1 0 .356c-.823.224-1.646.337-2.451.617.019-.917.019-1.815-.168-2.713-.131-.674-.506-1.254-.637-1.946ZM161.3 53.034c.468.355.75 1.179 1.011 1.703.393.805.393 1.628.374 2.507-.73-.243-1.403-.598-2.133-.823.075-.486.206-.936.318-1.403.187-.674.15-1.33.43-1.984Z" fill="#FFF"/><path d="M143.598 65.347c.318.169.449.169.804.113 3.575-.506 7.28.28 10.274 2.32.168.131.45.28.45.524.205 2.115-.693 4.323-1.816 6.082-1.104 1.647-2.545 3.125-4.21 4.21-2.695 1.928-6.064 2.92-9.357 2.939-2.396.056-4.828-.375-7.13-1.03-1.086-.3-2.096-.804-3.163-1.179-.524.487-.88 1.123-1.422 1.591-.505.43-.973.898-1.478 1.329-2.32 1.946-5.09 3.424-8.028 4.191-1.61.506-3.313.749-4.978.749-4.473.131-8.627-.412-13.1-.58-3.705-.075-7.728.243-11.134 1.815-2.938 1.329-5.333 3.48-7.205 6.082-.093.112-.112.243-.037.393a1.492 1.492 0 0 1-.3.15c-.074-1.048.375-2.152.786-3.088 1.235-2.601 3.481-4.398 6.082-5.54 3.144-1.365 6.718-1.945 10.124-2.095 3.032-.225 6.138-.038 9.17.243 3.219.206 6.362.094 9.488-.786 4.285-1.16 8.233-3.686 10.872-7.26.168-.207.356-.487.599-.6.393.094.767.262 1.16.393 2.377.843 4.903 1.086 7.41.861 2.415-.318 4.735-.935 6.756-2.339 1.273-.917 2.358-2.096 2.695-3.686.318-1.254-.168-2.47-.973-3.425-.749-.917-1.722-1.422-2.695-2.04.112-.112.243-.224.356-.337Z" fill="#BFC0C2"/><path d="M29.651 75.06c.057 1.983-.056 3.967.094 5.97.019 2.002.3 4.023.505 6.006.169.805.337 1.61.43 2.414.15 1.423.618 2.714.918 4.099a39.44 39.44 0 0 0 1.235 3.817c.206.468.374.936.486 1.441-.673-.393-1.216-1.104-1.721-1.703-2.32-2.844-4.042-6.269-4.529-9.918-.524-3.556.131-7.13 1.647-10.367.262-.6.505-1.217.935-1.76Z" fill="#00539F"/><path d="M141.801 87.804c1.067-.075 2.115-.094 3.181 0 2.283.018 4.567.28 6.83.58 3.294.542 6.625 1.235 9.732 2.451a40.638 40.638 0 0 1 10.779 5.914c7.616 5.838 12.875 14.802 14.128 24.327.225 1.553.412 3.125.43 4.697.15 1.572-.037 3.107-.074 4.678-.206 1.965-.412 3.949-.786 5.914-.337 1.347-.561 2.713-.954 4.06-.992 3.5-2.227 6.943-3.8 10.218-1.028 2.377-2.3 4.641-3.63 6.868-5.033 8.271-11.733 15.532-19.48 21.315-3.687 2.676-7.598 5.24-11.715 7.204a67.358 67.358 0 0 1-6.718 2.995c-6.288 2.432-12.931 4.098-19.65 4.678-1.777.243-3.61.3-5.407.3H73.87c-.355-.038-.804.055-.617-.487.337-1.01.786-1.984 1.179-2.957.449-1.44 1.104-2.788 1.628-4.192 1.684-4.397 3.537-8.776 5.183-13.193 2.32-.187 4.679.019 7-.112.355-.487.486-1.16.71-1.722 3.05-8.327 5.989-16.655 9.058-24.982 1.534-4.38 3.2-8.702 4.697-13.1.393-1.235 1.048-2.432 1.272-3.705-.767-.73-1.777-1.235-2.62-1.871-4.098-2.695-8.103-5.52-12.22-8.197-1.347-.973-2.825-1.815-4.116-2.863 1.721-2.19 3.761-4.192 5.745-6.138 10.086-9.619 22.4-17.048 35.93-20.566 1.515-.318 2.994-.786 4.528-.954 3.48-.674 7.036-1.104 10.573-1.16Zm5.146 31.083c-1.665 4.49-3.2 9.02-4.884 13.492-2.339 6.568-4.772 13.062-7.092 19.668-.693 1.909-1.404 3.817-2.077 5.726a5.992 5.992 0 0 0 1.029-.786c3.35-2.975 6.493-6.381 8.964-10.124a44.134 44.134 0 0 0 5.127-10.03c1.198-3.612 2.04-7.635 1.572-11.453-.318-2.32-.954-4.491-2.358-6.381-.056-.075-.15-.112-.28-.112Z" fill="#FFF"/><path d="M104.805 91.883c.617.056 1.216.15 1.815.3-.3.318-.711.486-1.085.692a94.073 94.073 0 0 0-11.116 7.41c-.899.655-1.703 1.423-2.601 2.059-3.874 3.219-7.486 6.737-10.873 10.46-1.347 1.666-2.882 3.257-4.042 5.053a940.432 940.432 0 0 1 8.945 6.082 18.968 18.968 0 0 1-8.608 4.529c-.917.13-1.76.374-2.658.037.506-.037.992-.112 1.498-.13-1.685-4.398-2.396-9.357-1.18-13.961 1.217-4.865 4.417-9.001 8.253-12.145 5.652-4.64 12.688-7.635 19.65-9.731.673-.262 1.365-.3 2.002-.655Z" fill="#BFC0C2"/><path d="M143.485 92.725c2.807-.037 5.652.3 8.44.655 1.535.3 3.088.674 4.604 1.048 1.759.543 3.518 1.104 5.202 1.834 3.387 1.422 6.55 3.443 9.3 5.876 4.847 4.267 8.403 10.087 9.844 16.374 1.44 5.652 1.31 11.79.15 17.497-1.797 8.571-5.802 16.768-10.985 23.804-5.652 7.691-12.913 14.222-21.09 19.162-1.497.843-2.9 1.722-4.454 2.452-6.307 3.256-13.1 5.558-20.117 6.737-.823.075-1.61.224-2.433.355-2.657.244-5.37.562-8.047.524H83.396c-.991 0-1.983.019-2.994-.037.225-1.03.693-1.928 1.03-2.92.524-1.403 1.16-2.75 1.646-4.154.356-.973.824-1.909 1.16-2.9.113-.319.225-.637.412-.917.206-.131.543-.075.768-.094 2.058 0 4.117.037 6.175-.019.45-.411.561-1.16.767-1.721 6.307-17.441 12.65-34.938 18.957-52.36.711-1.91 1.347-3.856 2.115-5.746.617-.505 1.422-.842 2.114-1.235 3.799-2.04 7.879-3.555 12.07-4.547 3.593-.805 7.28-1.104 10.948-.805a3.164 3.164 0 0 1-.225 1.01c-2.545 6.98-4.921 13.755-7.523 20.735-1.684 4.697-3.424 9.488-5.127 14.204-2.433 6.83-4.997 13.623-7.392 20.472a899.05 899.05 0 0 0-2.732 7.56c-.243.618-.487 1.236-.636 1.89.786-.018 1.515-.261 2.301-.374 7.168-1.628 13.81-5.015 19.724-9.338 6.737-4.996 12.482-11.246 16.693-18.489 2.545-4.304 4.472-8.945 5.595-13.81.805-3.63 1.18-7.485.73-11.19-.094-1.554-.543-3.126-.917-4.623-.992-3.368-2.732-6.493-5.184-9.001a20.917 20.917 0 0 0-9.544-5.652c-1.272-.374-2.526-.73-3.873-.842-4.08-.617-8.197-.28-12.22.58-1.46.188-2.826.712-4.248 1.086-6.643 2.19-12.856 5.782-18.264 10.18-1.947 1.572-3.743 3.312-5.54 5.034-2.264-1.422-4.453-2.976-6.662-4.473a6.887 6.887 0 0 1-1.104-.842c.412-.449.805-.898 1.254-1.291 4.922-4.79 10.461-9.001 16.468-12.37 4.454-2.488 9.132-4.622 13.998-6.175 1.048-.356 2.133-.561 3.162-.936 2.377-.542 4.697-1.16 7.13-1.478 3.032-.45 6.063-.767 9.057-.73Z" fill="#00539F"/><path d="M144.515 110.297c.43-.056.88.28 1.253.45 3.22 1.515 5.933 4.154 7.43 7.372.748 1.348 1.16 2.882 1.553 4.36.355 1.816.561 3.668.505 5.521-.093 2.433-.337 4.81-1.01 7.167a23.9 23.9 0 0 1-1.123 3.743c-.505 1.722-1.329 3.275-2.077 4.903-1.46 2.863-3.144 5.595-5.11 8.14-.785 1.067-1.59 2.152-2.507 3.107-2.245 2.62-4.753 4.996-7.429 7.186-3.949 3.162-8.365 5.95-13.062 7.84.561-2.02 1.44-3.967 2.096-5.95.561-1.46 1.048-2.938 1.572-4.417a326.494 326.494 0 0 0 2.208-5.988c1.965-5.52 3.967-10.854 5.932-16.356.468-1.497 1.104-2.938 1.572-4.416 1.834-4.922 3.574-9.862 5.39-14.784.786-1.983 1.384-4.042 2.19-6.025.205-.618.317-1.235.617-1.853Zm2.432 8.59c-1.665 4.49-3.2 9.02-4.884 13.492-2.339 6.568-4.772 13.062-7.092 19.668-.693 1.909-1.404 3.817-2.077 5.726a5.992 5.992 0 0 0 1.029-.786c3.35-2.975 6.493-6.381 8.964-10.124a44.134 44.134 0 0 0 5.127-10.03c1.198-3.612 2.04-7.635 1.572-11.453-.318-2.32-.954-4.491-2.358-6.381-.056-.075-.15-.112-.28-.112Z" fill="#00539F"/><path d="M88.936 126.39c.262-.261.524.038.786.17 2.376 1.627 4.753 3.236 7.13 4.846.168.15.467.28.505.524-.094.543-.337 1.085-.524 1.61-.562 1.496-1.104 3.03-1.647 4.528-.112.337-.318.524-.599.71-1.628 1.105-3.2 2.247-4.716 3.52-1.852 1.515-3.742 2.975-5.52 4.565-2.002 1.59-3.874 3.387-5.726 5.146-1.348 1.329-2.695 2.676-3.912 4.136-.673.674-1.197 1.46-1.87 2.115-.282-.075-.356-.056-.618.075-1.703.898-3.706 1.628-5.633 1.628-1.666 0-3.238-.768-4.21-2.115-1.348-1.778-1.853-4.304-2.078-6.494-.187-2.339-.15-4.715.038-7.073-.169-.038-.319-.038-.487-.056 1.198-.375 2.433-.824 3.518-1.498 1.01-.598 1.834-1.384 2.657-2.226 1.685-1.984 2.639-4.174 3.8-6.457 5.988-.093 11.901-1.983 16.71-5.576.824-.636 1.591-1.385 2.396-2.077Z" fill="#BFC0C2"/><path d="m42.975 137.506.15.02c.45 1.421.786 2.9 1.086 4.36.262 1.758.636 3.574.617 5.351-.842.075-1.647.075-2.451.375-2.171.673-3.912 2.358-5.11 4.229-1.01 1.628-1.777 3.294-2.058 5.202a8.088 8.088 0 0 0 .674 4.641c.243.543.674.973.936 1.497.093.543.018 1.123.075 1.666.205 1.534.673 3.013 1.74 4.173 1.179 1.46 3.069 2.32 4.884 2.638-.374 1.965-.973 3.855-1.665 5.727-.655 1.628-1.441 3.181-2.545 4.547-.412.487-.693.973-1.292 1.235.262-1.197.3-2.489.038-3.686-.43-.131-.88-.225-1.067.3-.823 2.151-2.433 4.06-4.566 4.996-1.291.598-2.62.636-4.023.561.13-.393.3-.73.524-1.067.73-1.179 1.366-2.526 1.59-3.892.056-.318-.037-.599-.112-.898-.823-.075-1.01.524-1.553.992a10.077 10.077 0 0 1-3.462 2.152c-1.479.467-3.144.393-4.548-.3-.393-.206-.954-.43-1.216-.805.168-.28.636-.393.898-.58 1.423-.917 2.807-2.133 3.63-3.63.188-.393-.186-.823-.598-.767-.618.187-1.16.561-1.797.748-.88.262-1.796.505-2.713.562-1.03-.038-2.19-.281-2.882-1.123-.617-.73-.973-1.76-1.048-2.695-.056-.374.131-.505.374-.73.973-.823 1.816-1.834 2.583-2.863 2.04-2.882 3.612-6.344 3.855-9.9.075-.86.262-1.758.15-2.6-.524-.73-1.198-1.348-1.685-2.115a7.676 7.676 0 0 1-1.328-6.12c.43-1.684 1.478-3.18 2.676-4.416.411.805.636 1.666 1.122 2.433 1.03 1.74 2.546 3.144 4.53 3.705 2.001.6 4.06.187 5.987-.486 2.49-.88 4.473-2.77 5.914-4.94 1.478-2.246 2.526-4.81 3.293-7.392.113-.337.169-.786.393-1.105Z" fill="#FFF"/><path d="M59.836 144.243c.169 0 .337.019.487.056-.206 2.34-.243 4.716-.038 7.074.225 2.19.73 4.716 2.078 6.494.973 1.347 2.563 2.114 4.21 2.114 1.946 0 3.949-.73 5.633-1.628.243-.13.337-.15.617-.075-2.526 3.331-5.015 6.587-8.009 9.526-.805.767-1.778 1.272-2.844 1.609-.899.3-1.947.262-2.882.224-.674-.018-1.217-.336-1.853-.449-1.235.487-2.395.899-3.761.842-1.722-.018-3.425-.804-4.342-2.283-1.89.113-3.855-.28-5.071-1.852-.636-.786-.655-1.628-.805-2.583-.486-.355-.992-.561-1.403-1.029-.487-.561-.805-1.254-1.01-1.965-.225-1.31-.038-2.62.467-3.836.374-.88.767-1.815 1.366-2.545.318.037.58.337.898.374.805.094 1.59-.075 2.302-.412 1.853-.842 3.518-2.19 5.034-3.536 1.179-1.067 2.04-2.452 3.237-3.5 1.628-1.254 3.762-2.002 5.69-2.62Z" fill="#FFF"/><path d="M167.289 192.618c1.366-.057 2.732.018 4.098-.02.056.356.019.693-.037 1.03-.45-.019-.899.019-1.348.037-.056 1.31-.018 2.62-.018 3.912-.412 0-.824 0-1.235.018-.094-1.29-.038-2.6-.038-3.91-.468-.057-.954-.094-1.422-.057-.019-.355-.056-.674 0-1.01ZM172.379 192.636c.711-.056 1.403-.018 2.115-.018.299.786.673 1.553.917 2.357.187-.112.336-.168.411-.374.318-.636.562-1.31.842-1.983.674-.02 1.348-.02 2.003-.02.093.806.056 1.591.056 2.396 0 .88.037 1.722-.056 2.601-.393-.018-.768-.037-1.16 0-.113-1.29 0-2.6-.075-3.91-.73.336-.899 1.552-1.273 2.207-.168.506-.599.543-1.067.412-.636-.73-.71-2.133-1.515-2.695-.094 1.31-.038 2.639-.038 3.968-.412-.02-.804-.02-1.216-.02.056-1.627 0-3.274.056-4.92Z" fill="#00539F"/></g></svg>