<svg width="200" height="200" xmlns="http://www.w3.org/2000/svg" xmlns:xlink="http://www.w3.org/1999/xlink"><defs><path id="a" d="M0 0h45.133v37.042H0z"/></defs><g fill="none" fill-rule="evenodd"><path d="M145.565 107.638c-3.144-2.154-7.397-4.554-11.103-4.866-2.074-.174-4.427.12-6.848.57-.976.256-1.982.577-3.025.991l1.89 2.136 2.323-2.61s2.26 2.794 2.623 3.239c.473-.34 3.554-2.565 3.554-2.565l.183.07c.03.014 2.628 1.041 2.628 3.853 0 .43-.086.914-.225 1.43.777-.061 2.382-.5 2.905-3.051l.108-.524.447.291c.064.045 1.597 1.075 1.853 3.162.022.196.034.392.034.59 0 1.586-.796 3.313-2.282 5.135 1.923-.656 5.734-2.421 6.51-6.173-.2-.256-.729-.894-1.575-1.678M126.827 118.998c0-.87.299-1.73.778-2.578-.758-.05-2.27.102-3.103 1.981l-.151.339-.337-.159c-.062-.032-1.563-.76-1.87-2.282-.181-.96.163-2.005 1.012-3.084-.893-.262-2.077-.447-2.557-.036-.14.119-.206.311-.224.55.888 2.359 3.168 6.867 8.208 9.26-.706-.773-1.374-1.768-1.64-2.948a4.79 4.79 0 0 1-.116-1.043" fill="#FFFFFE"/><path d="M54.516 85.473c2.028-2.099 3.536-4.504 4.643-7.08-6.376-.598-23.108-.245-48.79 13.882 4.091 1.942 11.812 6.773 16.485 17.06 11.69-10.663 26.79-13.421 35.446-14.083-3.221-7.454-7.784-9.78-7.784-9.78M58.009 99.623s2.085 11.366 5.864 15.794c.506-.318 1.01-.62 1.506-.907.05-1.582.037-3.08-.021-4.503a30.826 30.826 0 0 1-7.35-10.384M74.458 110.51a40.47 40.47 0 0 1 6.34-1.453 32.536 32.536 0 0 1-3.254-1.904 57.517 57.517 0 0 0-3.086 3.357M44.814 102.625c2.945 9.398 9.208 17.118 10.922 19.115a56.324 56.324 0 0 1 4.41-3.734c-7.421-4.422-15.332-15.381-15.332-15.381M32.784 108.915c3.714 10.163 12.893 18.705 15.565 21.044a70.083 70.083 0 0 1 4.272-5.079c-9.07-3.934-19.837-15.965-19.837-15.965M102.43 81.814c1.3.354 2.468.592 3.486.743-3.625-3.366-12.807-12.7-15.52-23.103 0 0 .539 8.863-4.773 13.603 2.623 1.966 5.088 3.548 7.367 4.81l9.44 3.947" fill="#F7C124"/><path d="M95.744 85.658s8.475 4.128 17.43 1.82c0 0-3.24 2.105-5.709 1.963l4.293 2.699s-11.44-2.641-16.014-6.482ZM70.33 106.123c1.087-8.046 10.77-15.892 10.77-15.892-6.609-5.935-19.26-5.93-19.26-5.93 9.835-3.652 20.093-.533 20.093-.533-10.254-5.52-14.775-21.553-14.775-21.553C76.404 78.363 89.29 82.743 89.29 82.743c-2.402 4.152 2.666 10.743 2.666 10.743-13.26-1.067-21.626 12.637-21.626 12.637Zm73.39-9.49c.22-.72 2.866-3.373 2.866-3.373-2.124 3.763-.754 9.018-.754 9.018-3.82-3.485-4.88-8.957-4.88-8.957.436 1.637 2.768 3.311 2.768 3.311Zm-29.072 6.229.657-.022c2.228-.1 4.909-.684 7.697-1.294 3.965-.872 8.061-1.77 11.687-1.466 5.163.432 10.913 4.145 14.302 6.683-1.759-10.493.326-17.543 2.074-21.26-5.19 2.051-6.672 5.42-6.742 5.588l-.837 2.009-1.43-1.628c-4.13-4.713-18.473-2.067-23.652-.649l-3.683 1.01s3.607-5.014 4.889-6.791c-3.629.346-7.845.444-12.28.258-3.425-.216-22.535-2.584-42.388-28.774 0 0 7.118 17.564-4.33 28.558 0 0 11.836 9.632 7.202 30.318 0 0 9.776-19.08 24.35-18.797.499.017.974.047 1.427.089a1.31 1.31 0 0 1-.217.528c-.326.47-7.909 11.674 1.507 22.238 4.636 5.2 9.34 5.49 14.786 5.834 3.114.192 6.333.392 9.647 1.586 7.493 2.701 9.154 12.27 9.522 16.505 6.85-3.67 9.186-12.54 9.883-16.254-13.59 1.337-19.841-8.078-21.405-14.106-1.216-4.683-5.69-7.687-6.346-8.105 0 0-9.78-4.225-9.942-10.518 5.433 7.6 11.388 8.433 13.622 8.46Z" fill="#F7C124"/><path d="M167.343 146.794c-.59-1.31-1.103-2.44-1.87-3.138-1.758-1.608-3.531-2.334-5.267-2.156-.97.1-1.83.474-2.568.926 3.399.59 4.85 3.296 6.16 5.763.786 1.483 1.6 3.018 2.835 4.088 1.713 1.488 4.234 1.797 6.429 1.713-3.387-2.09-4.7-4.946-5.719-7.196M172.536 112.928c2.384-2.537 3.724-5.835 5.02-9.026 2.374-5.844 4.837-11.845 13.52-12.339-2.112-1.565-5.32-3.342-9.004-3.35-3.853-.007-7.535 1.922-10.945 5.74-1.543 1.725-2.362 4.172-3.306 7.005-1.85 5.543-4.111 12.257-13.026 17.067 5.167.244 13.207-.272 17.74-5.097" fill="#DB3440"/><g transform="translate(148.695 119.662)"><mask id="b" fill="#fff"><use xlink:href="#a"/></mask><path d="M34.147 10.204c0-.106.001-.218.005-.325.138-4.55 3.112-7.85 5.325-9.684-3.412-.68-5.761.501-9.221 2.257-4.339 2.201-10.283 5.212-21.402 5.794C7.32 8.325 2.951 7.493 0 6.88c3.127 5.69 5.3 5.59 9.823 5.362 2.307-.116 5.173-.262 8.844.298 5.568.844 9.61 3.384 16.023 10.06 3.366 3.501 7.684 3.562 10.443 3.12-7.273-5.156-10.986-10.363-10.986-15.516" fill="#DB3440" mask="url(#b)"/><path d="M17.938 32.615c-1.234-1.07-2.05-2.605-2.836-4.088-1.308-2.466-2.76-5.173-6.159-5.763.738-.452 1.598-.826 2.568-.926 1.736-.177 3.509.548 5.267 2.156.766.697 1.28 1.828 1.87 3.138 1.019 2.25 2.332 5.106 5.719 7.196-2.195.084-4.716-.224-6.429-1.713Zm3.17-6.594c-.685-1.516-1.331-2.95-2.506-4.023-2.36-2.157-4.849-3.112-7.393-2.844-4.207.446-6.888 4.14-7 4.297l-2.007 2.81 3.38-.703c4.402-.916 5.49 1.133 7.133 4.232.86 1.622 1.838 3.464 3.45 4.866 4.755 4.127 13.163 1.671 13.52 1.566l4.624-1.386-4.67-1.216c-5.776-1.503-7.175-4.604-8.53-7.599Z" fill="#1D2D4F" mask="url(#b)"/></g><path d="M167.821 100.958c.944-2.833 1.763-5.28 3.306-7.005 3.41-3.818 7.092-5.747 10.945-5.74 3.684.008 6.892 1.785 9.003 3.35-8.682.494-11.145 6.495-13.52 12.34-1.295 3.19-2.635 6.488-5.02 9.025-4.533 4.825-12.573 5.341-17.74 5.097 8.915-4.81 11.175-11.524 13.026-17.067Zm-23.13 18.31 4.74.907c.692.134 17.042 3.148 25.073-5.397 2.727-2.904 4.165-6.441 5.555-9.86 2.631-6.475 4.708-11.588 14.537-10.575l3.434.356-2.28-2.59c-.236-.27-5.877-6.568-13.651-6.598-4.664-.016-9.034 2.22-12.985 6.64-1.915 2.144-2.857 4.965-3.856 7.951-2.058 6.162-4.393 13.146-16.046 17.482l-4.522 1.684Z" fill="#1D2D4F"/><path d="M183.385 142.262c-6.412-6.677-10.455-9.216-16.023-10.06-3.67-.56-6.537-.414-8.843-.298-4.524.228-6.697.327-9.824-5.362 2.95.612 7.32 1.444 8.854 1.365 11.119-.581 17.063-3.592 21.402-5.793 3.46-1.756 5.81-2.937 9.22-2.257-2.212 1.834-5.186 5.134-5.324 9.684a9.54 9.54 0 0 0-.005.324c0 5.154 3.714 10.36 10.986 15.516-2.759.442-7.077.382-10.443-3.12Zm14.396 2.545c-8.139-5.191-12.369-10.435-12.234-15.17.155-5.583 6.24-9.058 6.304-9.094l2.469-1.386-2.627-1.047c-6.062-2.417-9.551-.648-13.965 1.591-4.354 2.209-9.771 4.958-20.322 5.505-1.42.078-7.436-1.122-10.896-1.897l-2.688-.597 1.173 2.492c4.436 9.436 7.563 9.705 13.66 9.4 2.296-.119 4.9-.25 8.302.269 4.95.75 8.469 3.001 14.48 9.26 6.525 6.787 15.73 3.225 16.12 3.068l2.443-.978-2.219-1.416ZM145.832 102.278s-1.37-5.255.754-9.018c0 0-2.645 2.654-2.866 3.372 0 0-2.332-1.674-2.768-3.311 0 0 1.06 5.472 4.88 8.957M89.29 82.743s-12.886-4.38-22.132-20.528c0 0 4.521 16.033 14.775 21.553 0 0-10.258-3.119-20.092.533 0 0 12.65-.005 19.259 5.93 0 0-9.683 7.846-10.77 15.892 0 0 8.366-13.704 21.626-12.637 0 0-5.068-6.59-2.666-10.743M107.465 89.44c2.47.143 5.71-1.962 5.71-1.962-8.956 2.308-17.43-1.82-17.43-1.82 4.574 3.84 16.013 6.482 16.013 6.482l-4.293-2.7" fill="#1D2D4F"/><path d="M128.836 143.385c-.368-4.234-2.029-13.804-9.522-16.505-3.314-1.194-6.533-1.394-9.647-1.586-5.446-.343-10.15-.635-14.786-5.834-9.416-10.564-1.833-21.767-1.507-22.238a1.31 1.31 0 0 0 .217-.528 24.791 24.791 0 0 0-1.427-.09c-14.574-.282-24.35 18.798-24.35 18.798 4.634-20.686-7.203-30.318-7.203-30.318 11.45-10.994 4.331-28.558 4.331-28.558 19.853 26.19 38.963 28.558 42.388 28.774 4.435.186 8.651.088 12.28-.258-1.282 1.777-4.889 6.79-4.889 6.79l3.683-1.009c5.179-1.418 19.522-4.064 23.653.649l1.43 1.628.836-2.009c.07-.168 1.552-3.537 6.742-5.587-1.748 3.716-3.833 10.766-2.074 21.259-3.389-2.538-9.14-6.25-14.302-6.683-3.626-.305-7.722.594-11.687 1.466-2.788.61-5.469 1.194-7.697 1.294l-.657.022c-2.234-.027-8.189-.86-13.622-8.46.163 6.293 9.942 10.518 9.942 10.518.655.418 5.13 3.422 6.346 8.105 1.564 6.028 7.814 15.443 21.405 14.106-.697 3.713-3.034 12.584-9.883 16.254ZM74.458 110.51a57.517 57.517 0 0 1 3.086-3.357 32.536 32.536 0 0 0 3.254 1.904 40.47 40.47 0 0 0-6.34 1.453Zm-9.079 4c-.496.288-1 .589-1.506.907-3.78-4.428-5.864-15.794-5.864-15.794a30.826 30.826 0 0 0 7.349 10.384c.058 1.424.07 2.921.021 4.503Zm-9.643 7.23c-1.714-1.997-7.977-9.717-10.922-19.115 0 0 7.91 10.959 15.333 15.381a56.324 56.324 0 0 0-4.411 3.734Zm-7.387 8.22c-2.672-2.34-11.851-10.882-15.565-21.045 0 0 10.768 12.03 19.837 15.965a70.083 70.083 0 0 0-4.272 5.08ZM10.37 92.274c25.682-14.127 42.414-14.48 48.79-13.882-1.107 2.576-2.615 4.981-4.643 7.08 0 0 4.563 2.325 7.784 9.779-8.656.662-23.757 3.42-35.446 14.084-4.673-10.288-12.394-15.119-16.485-17.06Zm80.027-32.82c2.713 10.402 11.895 19.736 15.52 23.102a30.016 30.016 0 0 1-3.485-.743l-9.44-3.946c-2.28-1.263-4.745-2.845-7.368-4.811 5.312-4.74 4.773-13.603 4.773-13.603Zm50.234 56.034c1.486-1.822 2.282-3.55 2.282-5.135a5.22 5.22 0 0 0-.034-.59c-.256-2.087-1.79-3.117-1.853-3.162l-.447-.29-.108.523c-.523 2.55-2.128 2.99-2.905 3.051.139-.516.225-1 .225-1.43 0-2.812-2.599-3.839-2.628-3.852l-.183-.07s-3.081 2.224-3.554 2.564a2400.07 2400.07 0 0 1-2.623-3.239l-2.323 2.61-1.89-2.136a25.946 25.946 0 0 1 3.025-.991c2.42-.45 4.774-.744 6.848-.57 3.706.312 7.959 2.712 11.103 4.866a14.984 14.984 0 0 1 1.575 1.678c-.776 3.752-4.587 5.517-6.51 6.173Zm-20.031-2.31c.48-.411 1.664-.226 2.557.036-.849 1.079-1.193 2.125-1.012 3.084.307 1.522 1.808 2.25 1.87 2.282l.337.159.151-.339c.833-1.879 2.345-2.032 3.103-1.981-.48.848-.778 1.707-.778 2.578 0 .344.038.695.116 1.043.266 1.18.934 2.175 1.64 2.948-5.04-2.393-7.32-6.901-8.208-9.26.018-.239.084-.431.224-.55Zm10.675 10.801.04-.102c-.028-.015-2.777-1.676-3.31-4.08-.244-1.097.003-2.166.755-3.267l.583-.856-1.004-.255c-1.033-.262-3.14-.16-4.42 1.786-.355-.307-.74-.804-.74-1.443 0-.667.382-1.422 1.134-2.263l.714-.791-.995-.372c-.474-.179-2.888-1.005-4.106-.006-.757-2.894-2.423-5.188-4.002-6.82 2.208-.152 4.646-.667 7.175-1.22l3.376 3.818 2.289-2.567c.673.828 2.462 3.043 2.462 3.043s3.31-2.386 3.881-2.802c.725.403 2.226 1.597 1.305 4.227l-.299.847.892.113c1.089.137 3.15-.323 4.148-2.691.284.396.567.927.647 1.643.184 1.668-.76 3.636-2.732 5.756l-1.567 1.678 2.246-.478c.3-.063 7.261-1.605 8.456-7.315a44.506 44.506 0 0 1 1.941 1.59l3.209 2.863-.995-4.181c-4.083-17.147 2.587-25.675 2.654-25.76l2.395-2.969-3.728.796c-6.42 1.382-9.577 4.63-10.953 6.596-5.308-3.79-15.83-2.307-21.467-1.128 1.173-1.626 4.25-5.906 4.25-5.906l-3.214.525c-3.613.586-7.993.748-12.766.616-4.516-4.246-17.592-17.89-20.337-36.063 0 0 .34 20.238-5.947 24.657C75.948 65.273 67.536 56.37 58.417 43c0 0 4.814 13.884 2.98 27.077L45.243 58.779l-3.444 13.364c-2.37-.758-20.566-6.568-20.566-6.568s-.352 10.18-.43 12.513c-2.58-.4-20.413-3.15-20.413-3.15L0 91.673s16.709 2.389 24.242 18.467c7.533 16.08 16.888 22.266 24.309 26.088 0 0 4.202-9.117 16.571-17.493-.281 3.16-.775 6.602-1.533 10.349 0 0 2.016-6.135 6.889-13.325a40.095 40.095 0 0 1 5.571-2.13c3.873-1.145 7.202-1.469 9.563-1.5 1.642 3.704 4.168 6.143 5.934 7.496.406.544.837 1.09 1.32 1.632 5.376 6.03 11.098 6.385 16.634 6.73 2.923.183 5.95.37 8.896 1.435 7.721 2.784 7.85 15.878 7.85 16.008l.006 1.928 1.808-.663c11.849-4.342 13.547-20.314 13.613-20.993l.17-1.746-1.733.284c-3.496.566-6.411.387-8.836-.26ZM30.057 130.725h-3.413v.886h1.235v4.617h.942v-4.617h1.236v-.886M32.894 134.394c-.226-.524-1.84-4.232-1.84-4.232l-1.191 6.066h.972s.428-2.438.548-3.114c.282.645 1.51 3.44 1.51 3.44l1.517-3.438.55 3.112h.968l-1.185-6.066-1.85 4.232" fill="#1D2D4F"/></g></svg>