<svg width="200" height="200" xmlns="http://www.w3.org/2000/svg"><g fill="none"><path d="M162.798 103.568c-.215-.8-.402-1.49-.772-1.958-.86-1.076-1.806-1.652-2.816-1.712-.575-.033-1.11.105-1.58.298 1.897.649 2.491 2.31 3.01 3.834.314.92.635 1.867 1.242 2.59.844 1.004 2.255 1.409 3.522 1.565-1.745-1.5-2.23-3.243-2.606-4.617m9.836-23.437c1.898-3.1 3.878-6.27 8.882-5.754-1.063-1.088-2.718-2.402-4.838-2.75-2.202-.36-4.49.397-6.792 2.25-1.045.84-1.74 2.156-2.546 3.68-1.574 2.977-3.492 6.584-9.036 8.494 2.934.618 7.574 1.07 10.62-1.256 1.598-1.22 2.672-2.973 3.71-4.664m-13.498 14.157c1.333.146 2.984.329 5.033.987 3.106.993 5.181 2.81 8.235 7.2 1.595 2.295 4.055 2.734 5.672 2.742-3.261-3.194-4.916-6.152-4.916-8.822 0-.406.04-.808.115-1.203.5-2.566 2.502-4.164 3.937-5.004-1.881-.695-3.338-.255-5.473.42-2.689.85-6.369 2.015-12.786 1.316-.886-.095-3.306-.973-4.937-1.592 1.259 3.522 2.512 3.667 5.12 3.956" fill="#EF2C30"/><path d="M148.084 76.094c-1.157-.288-2.515-.342-3.927-.31-.595.054-1.212.146-1.866.286.215.339.713 1.12.881 1.388.288-.23 1.574-1.27 1.574-1.27s1.032 1.796 1.2 2.083c.301-.152 2.27-1.129 2.27-1.129l.098.058c.016.008 1.178.698 1.178 2.036 0 .349-.106.75-.303 1.184.44.04 1.41-.04 1.955-1.463l.11-.288.227.208a2.639 2.639 0 0 1 .764 1.97c-.04 1.014-.676 2.036-1.821 3.047 1.156-.192 3.507-.846 4.3-2.913-.314-.564-2.263-3.755-6.392-4.87a.808.808 0 0 1-.248-.017m-5.911 8.953c0-.653.242-1.266.7-1.832-.437-.093-1.299-.133-1.941.842l-.119.179-.175-.123c-.036-.022-.824-.574-.858-1.467l-.002-.058c0-.55.305-1.088.875-1.609-.486-.23-1.154-.439-1.467-.251-.112.066-.179.196-.198.382.263 1.573 1.137 4.403 4.008 6.162-.393-.54-.773-1.255-.822-2.057l-.001-.168" fill="#FFF"/><path d="M155.2 163.488c0 .789-.751.803-3.48.08l-5.077-1.355v-2.908l2.727.725v2.202l2.915.773v-3.626l-2.351-.626c-2.773-.74-3.478-1.127-3.478-1.915v-2.573c0-.789.753-.801 3.478-.076l5.075 1.351v2.325l-2.724-.729v-1.615l-2.915-.774v3.148l2.35.625c2.729.727 3.48 1.14 3.48 1.928v3.04zm-14.999-2.402l-4.18-.734v-8.188l-2.915-.516v8.194l-4.184-.73v-.71l1.269.222v-7.487l-1.27-.219v-.71l6.532 1.144c2.775.49 3.48.825 3.48 1.612v7.192l1.268.224v.706zm-17.912-3.434c0 .789-.753.926-3.526.634l-1.74-.18c-2.772-.291-3.524-.583-3.524-1.368v-6.902c0-.783.752-.922 3.524-.63l1.74.18c2.773.294 3.526.582 3.526 1.37v6.896zm-16.182.06l-5.174-.18c-2.771-.097-3.524-.336-3.524-1.123v-6.897c0-.79.753-.977 3.524-.88l5.03.172v2.322l-2.68-.094v-1.612l-2.96-.1v7.484l2.96.103v-3.629l-1.503-.053v-.71l4.327.15v5.047zm-15.34.042l-4.184.22v-4.336l-2.912.151v4.336l-4.183.219v-.708l1.269-.064v-7.197c0-.786.752-1.037 3.477-1.182l1.786-.089c2.728-.141 3.477.033 3.477.818v7.192l1.27-.066v.706zm-16.88 1.47l-4.183.436v-4.332l-2.91.302v4.336l-4.185.435v-.706l1.268-.13v-7.486l-1.268.13v-.707l6.532-.684c2.776-.29 3.477-.147 3.477.635v2.288c0 .572-.371.84-1.55 1.095 1.179-.004 1.55.198 1.55.77v3.046l1.269-.136v.708zM56.3 160.627c0 .785-.705 1.173-3.478 1.86l-6.536 1.619v-.706l1.27-.313v-7.476l-1.27.315v-.723l6.536-1.613c2.773-.69 3.478-.653 3.478.138v6.899zm-10.48-19.074c0 3.666-1.965 8.253-14.428 12.06l-13.196 4.965 2.963-3.649v-29.847l-2.867-3.061 2.735-2.902.132-27.848-2.963-5.93 15.786 6.938c7.851 3.41 11.838 4.937 11.838 11.864v37.41zm140.245 12.402v-26.58l5.25-5.219s-4.602-4.572-5.06-5.025v-24.77c.084-.26 5.895-17.94 5.895-17.94l-1.904.99c-5.778 3.011-11.739 5.57-17.706 7.75-.74 1.049-1.58 2.042-2.662 2.867-3.407 2.601-8.28 2.27-11.506 1.64-1.381.38-2.755.742-4.118 1.087 1.869.717 4.203 1.55 4.87 1.623 6.09.665 9.444-.396 12.142-1.25 2.734-.865 4.89-1.549 8.137.386l1.407.839-1.543.557c-.04.015-3.844 1.429-4.454 4.586-.518 2.68 1.415 6.053 5.586 9.758l1.138 1.01-1.487.328c-.238.052-5.833 1.23-8.937-3.234a39.782 39.782 0 0 0-1.926-2.58v7.802l1.858.817-1.858.24v38.353l5.175 1.5 4.564-38.754h1.556l.045 46.68s-16.658-6.612-23.14-7.598l.039-.038c-1.592-.376-15.281-3.587-24.006-5.004l-16.863-1.606 3.062-3.486-3.617-14.82-3.228 14.82 3.024 3.428-17.045-.265c-4.173.05-15.336.247-22.16.97l.11.104s-8.383.695-11.468 1.502v-19.907c0-1.804-1.48-2.707-5.55-2.707h-2.219v20.24l3.085 3.178s-7.133.948-14.553 3.113l3.085-4.229V125.2l-2.858-3.166 2.858-3.428v-18.46l-3.085-5.008 11.744 2.45c.357 1.467.93 3.095 1.845 4.738-.091-.001-.179-.014-.273-.014l-1.848-.384v18.118h1.848c4.195 0 5.921-.901 5.921-3.613v-7.903c2.166 1.522 4.913 2.831 8.385 3.75v3.623c0 4.25-4.93 5.046-8.385 5.576 3.823.587 8.385 1.433 8.385 5.42v14.036l1.61 1.56 1.856-2.508v-14.792l-2.856-3.161 2.856-3.428v-4.986l1.845.441c1.317-4.29 3.857-7.375 6.419-9.532v15.89c2.71 0 5.052 0 6.782-3.613l1.724-3.61h1.232v17.05h-1.232l-1.724-3.293c-1.976-3.881-3.7-3.881-6.782-3.881v17.37h2.342c1.602 0 3.082-.16 4.316-.85 2.587-1.435 4.313-4.196 5.794-6.428l3.083-4.67h1.235l-1.504 12.483 2.132-1.557 8.035-19.982-1.764-3.985c-1.301.364-2.596.42-3.735-.08-2.542-1.118-3.672-4.471-3.453-10.25l1.543-.156c.03.123.646 2.496 2.49 3.368l-1.404-3.166-.018.05-.046-.2-.18-.404-4.246-2.934 1.285 12.47h-1.356l-3.578-5.523c-3.451-5.422-5.052-5.736-8.629-5.736h-.147a24.967 24.967 0 0 1 4.209-2.252l8.145.337.01.095 3.678-.06c-.15-1.43-.193-3.482.421-5.292-.403.06-.898.137-1.47.238-4.474.908-8.141 2.2-11.14 3.676-10.223 5.024-12.703 12.156-13.061 13.38l-.039.172-.007-.007-.004.017a35.232 35.232 0 0 1-2.19-.515c-.199-.056-.397-.11-.593-.166C62.985 108.87 60.207 99.58 59.64 94.578a19.656 19.656 0 0 1-.127-2.886 227.658 227.658 0 0 1-10.947-2.252 4.35 4.35 0 0 0-.31-.864c-.004-.013.031.008.044.011-4.727-12.857-4.27-33.017 15.555-62.729 0 0-25.954 33.605-17.757 62.112a3.79 3.79 0 0 0 .07.9c-5.99-1.46-12.127-3.23-18.236-5.392-6.352-2.247-12.666-4.91-18.729-8.067L7.3 74.42l5.896 17.94v24.77l-5.06 5.025 5.25 5.22v26.58L0 177.545l2.896-1.784c.154-.095 15.442-9.44 34.473-15.298l3.125 11.177.889-.322c.261-.096 26.692-9.509 59.514-9.509 32.827 0 59.257 9.413 59.521 9.509l.888.322s2.71-9.695 3.123-11.177c18.92 5.85 31.94 15.167 32.07 15.262l3.253 2.356-13.688-24.127z" fill="#FCD43D"/><path fill="#FCD43D" d="M127.622 104.143l-6.012 15.295 8.035 20.796 2.829 2.802 1.805-1.99v-15.638l-2.857-3.163 2.857-3.426v-15.367l-2.333-2.994-4.324 3.685m-16.638-4.653c-.464-.5-1.25-.754-2.336-.754-.714 0-1.595 1.043-2.312 2.233l5.151-.08c.007-.083.03-.831-.503-1.399m35.281-2.578l9.745-1.667c-1.699-.662-2.856-2.124-3.966-5.945-.655.158-1.31.31-1.961.46l-.008.036c-.065.244-1.122 4.076-3.81 7.116m-24.711-.719l-.23.48a75.213 75.213 0 0 0-1.693 3.841l11.57-1.012-.006-.007 8.353-1.432c.07-1.557-.02-4.02-.99-5.97a241.62 241.62 0 0 1-18.515 2.504l1.51 1.596m-4.401 13.58l.057.39-.283.278c-.109.103-1.1 1.06-2.536 2.133l1.808 5.23 4.642-13.45-1.75-2.474c-1.15 2.982-2.173 6.265-1.938 7.893m39.937-1.222l-3.573-5.525c-2.202-3.745-5.736-2.405-8.637-2.404l-2.341.175v19.654c2.714 0 5.057 0 6.784-3.612l1.726-3.614h1.23v17.05h-1.23l-1.726-3.29c-1.975-3.88-3.7-3.88-6.784-3.88v18.947h2.341c1.607 0 3.085.674 4.318-.013 2.591-1.437 4.32-4.196 5.796-6.427l3.086-5.512h1.231l-1.705 19.482 3.198-3.49V107.75c-.04-.044-.084-.09-.123-.134-.792-.945-1.18-2.083-1.522-3.086-.375-1.102-.68-1.988-1.37-2.521l.657 6.542h-1.356M83.67 153.08l2.913-.152v-3.148l-2.912.153v3.147m-16.878 1.843l2.91-.307v-3.15l-2.91.306v3.15m-16.321 7.428l2.912-.722v-7.458l-2.912.72v7.46m65.943-5.017l2.961.31v-7.486l-2.96-.31v7.486M32.251 96.464l-2.098-.754v52.71c4.642-1.245 7.89-2.74 7.89-8.932v-36.036c0-1.808-1.693-5.51-5.792-6.988m127.036 1.88c.524.029 1.03.15 1.516.352v-.637l-2.019-2.246a18.61 18.61 0 0 1-1.642-.242l.304 3.031a4.994 4.994 0 0 1 1.841-.258m-51.194-44.522l.002.001c.315-.622.592-1.262.835-1.916-1.73-1.568-7.111-6.438-8.078-7.312l-4.057 5.935-.415.614-8.078-4.93c-.331.812-1.474 3.647-2.364 5.847a29.857 29.857 0 0 0 5.235 2.118l9.57-3.49 7.35 3.133m-11.286 13.9c1.139 7.03 3.978 11.115 3.978 11.115 1.69-1.266 3.218-1.764 3.218-1.764-4.152-1.978-7.196-9.35-7.196-9.35m-7.47 2.463c1.603 9.12 6.295 12.54 6.295 12.54 1.016-1.7 3.007-2.56 3.007-2.56-5.19-1.633-9.302-9.98-9.302-9.98m15.299-2.949s-.239 5.854 1.79 8.546c0 0 .556-.192 1.215-.374.105-.629.2-1.245.266-1.832-1.11-1.231-2.486-3.264-3.271-6.34m12.949 7.256s-.917-.46-2.075-1.452c-.62.432-1.217.875-1.783 1.33 1.101-.013 3.345-.021 3.858.122m-25.268 11.75c.675-.87 1.423-1.572 1.423-1.572-6.261-.778-10.697-9.075-10.697-9.075-.086 3.515 3.532 7.932 5.995 10.523l3.28.124"/><path d="M154.636 76.861c-1.86-2.334-1.957-5.542-1.957-5.542.097.972 1.269 2.138 1.269 2.138.199-.387 1.958-1.653 1.958-1.653-1.566 1.946-1.27 5.057-1.27 5.057zM133.864 66.08l2.207 1.933s-2.446-.994-4.837-2.373c-1.444-.835-2.872-1.81-3.725-2.794 0 0 1.95 1.364 4.81 2.152 1.47.407 3.182.66 4.994.495 0 0-2.049.898-3.45.587zm-22.782 5.986c1.37-4.472 7.644-8.038 7.644-8.038-3.229-3.986-10.47-5.153-10.47-5.153 5.967-1.165 11.544 1.556 11.544 1.556-5.353-4.085-6.445-13.618-6.445-13.618 3.787 10.034 10.75 13.716 10.75 13.716-1.76 2.138.528 6.353.528 6.353-7.488-1.832-13.551 5.184-13.551 5.184zm48.103-4.241c-3.146.688-4.316 2.45-4.373 2.539l-.665 1.065-.667-1.059c-1.922-3.061-10.376-2.88-13.473-2.555l-2.203.234s2.534-2.517 3.43-3.41c-2.115-.139-4.488-.497-7-1.013l-.044.023c-1.939-.437-12.651-3.55-21.573-20.277 0 0 2.44 10.644-5.139 15.837 0 0 5.877 6.568 1.303 17.899 0 0 7.368-9.938 15.677-8.43.141.025.282.06.425.09.128.029.256.058.381.092a.785.785 0 0 1-.172.279c-.162.169-2.933 3.089-2.933 7.234 0 1.683.456 3.564 1.728 5.547 2.166 3.386 4.832 3.989 7.914 4.685 1.765.397 3.588.808 5.373 1.794 3.367 1.858 3.967 6.067 3.967 8.83 0 .557-.028 1.026-.059 1.434 4.265-1.453 6.427-6.285 7.17-8.33-7.604-.444-10.661-5.583-10.937-10.022-.1-1.64-2.033-4.195-2.862-5.151l-.015-.008.007-.011s-1.044-.666-2.145-1.717c-.253-.26-.494-.527-.717-.796a19.081 19.081 0 0 1-1.323-1.804c-.417-.813-.645-1.689-.522-2.583 1.898 3.814 4.37 5.255 5.96 5.799.128.042.246.08.361.113.13.038.263.07.4.1a6.562 6.562 0 0 0 .515.093c.073.006.138.015.187.02 1.275.141 2.846.06 4.483-.028 1.163-.063 2.341-.127 3.484-.114 1.171.01 2.302.103 3.334.36 2.915.725 5.857 3.364 7.56 5.12 0-.047-.004-.1-.004-.147 0-6.045 1.83-9.793 3.167-11.732zm-55.163 27.633c-.503.16-1.001.324-1.485.5a30.166 30.166 0 0 1 1.47-.427c.005-.023.009-.05.015-.073m-24.218 2.759c0-.337.024-.672.073-1.003a11.857 11.857 0 0 0-.706 3.973c0 1.415.288 3.016 1.117 4.633.177-.411.665-1.506 1.089-1.95-.142-.259-1.573-2.954-1.573-5.653m5.282 2.924s.868-1.21 1.345-1.317c0 0-1.082-2.83-.432-4.03 0 0-1.569 2.284-.913 5.347m4.944-3.193c.38-.363 1.294-.489 1.294-.489-.415-.505-.383-1.769-.383-1.769-.376.365-.912 2.258-.912 2.258" fill="#FCD43D"/><path d="M119.681 96.487c-.644-.684-7.107-7.52-7.504-7.94l-29.029-1.092-2.711-.103.028.016-10.503-.403-.907-.035s.099.005.91-.142c.982-.174 3.009-.568 7.175-1.448a18.783 18.783 0 0 1-.09-1.886c0-3.63.971-9.562 6.582-13.546 8.03-5.697 18.292-5.518 23.838-4.872-1.157-4.453-3.514-6.171-3.514-6.171 1.377-1.021 2.477-2.272 3.357-3.662a253.73 253.73 0 0 1-6.55-2.623c-.115.044-2.605.944-6.487 2.348 1.97.364 4.06.557 6.28.541 2.348-.02 1.712 5.991-5.859 3.825-.32-.12-.636-.242-.95-.365-23.073-8.95-27.6-24.828-28.359-28.571l-.023-.034C68.44 50.03 88.84 59.958 88.84 59.958c-12.472-.666-16.804 4.422-18.117 9.373-.722 2.725-.532 5.406-.274 7.068.159 1.037.342 1.678.342 1.678-5.664 1.746-8.72 4.564-10.142 7.787v-.001s-.015.03-.036.085c-.566 1.31-.865 2.684-.959 4.082h.005c-.005.024-.007.05-.01.074-.026.416-.035.832-.026 1.251-.01-.003-.02-.004-.03-.008.18.263.822 1.172 1.823 2.28.95 1.05 2.221 2.276 3.727 3.294 1.75 1.183 3.812 2.086 6.047 2.102l.002.002c12.091-8.355 30.087-6.17 34.12-5.546.077-.083.156-.162.237-.239a5.135 5.135 0 0 1 1.96-1.124c1.588-.503 3.607-.382 6.034.368a.775.775 0 0 1 .515.973.78.78 0 0 1-.979.512c-2.992-.924-5.166-.789-6.46.408-1.247 1.15-1.565 3.116-1.565 4.819 0 .283.01.556.026.82.85-1.385 2.082-2.836 3.568-2.836 1.554 0 2.734.43 3.508 1.277.936 1.024.909 2.296.894 2.546-.014.404-.392 9.205-5.742 9.205-1.699 0-2.964-.807-3.857-1.828.24 3.04 1.07 4.954 2.463 5.569 2.809 1.235 7.707-2.554 9.66-4.385-.006-.094-.019-.178-.019-.278 0-3.701 3.174-10.764 4.126-12.8m7.222-49.096s-.513 5.089-3.995 7.293a37.196 37.196 0 0 0 3.774 3.419l5.026 3.109c.71.324 1.357.567 1.929.747-1.762-2.25-6.148-8.405-6.734-14.567" fill="#FCD43D"/><path d="M77.612 108.114c-.386-.42-3.225-3.661-3.332-7.751a13.416 13.416 0 0 0-.206 2.363c0 2.199.535 5.216 2.85 7.84.062-.51.271-1.96.688-2.452m-11.83-30.122s1.023-.893 2.974-1.403c0 0-12.886-16.797-5.354-46.231 0 0-9.704 25.761 2.38 47.634" fill="#FCD43D"/><path d="M189.924 89.038h1.055v3.915h.803v-3.915h1.055v-.75h-2.913v.75m3.573 3.915l.47-2.64 1.29 2.916 1.292-2.914.47 2.638h.825l-1.013-5.141s-1.377 3.142-1.574 3.585l-1.572-3.585-.078.387-.937 4.754h.827M38.044 139.488c0 6.192-3.249 7.687-7.89 8.933V95.71l2.097.754c4.099 1.477 5.793 5.18 5.793 6.988v36.036zM33.98 92.279L18.195 85.34l2.963 5.931-.132 27.848-2.735 2.902 2.867 3.061v29.847l-2.963 3.649 13.196-4.965c12.463-3.807 14.428-8.394 14.428-12.06v-37.41c0-6.927-3.987-8.454-11.838-11.864zm19.404 69.349l-2.912.722v-7.46l2.912-.72v7.458zm-.562-8.038l-6.536 1.613v.723l1.27-.315v7.476l-1.27.313v.706l6.536-1.619c2.773-.687 3.478-1.075 3.478-1.86v-6.899c0-.791-.705-.828-3.478-.138zm16.882 1.026l-2.91.307v-3.15l2.91-.307v3.15zm2.914.99c0-.572-.371-.774-1.55-.77 1.179-.255 1.55-.523 1.55-1.095v-2.288c0-.782-.7-.925-3.477-.635l-6.532.684v.707l1.268-.13v7.485l-1.268.131v.706l4.184-.435v-4.336l2.91-.302v4.332l4.184-.436v-.708l-1.269.136v-3.046zm13.965-2.678l-2.912.152v-3.147l2.912-.153v3.148zm2.914-3.006c0-.785-.75-.96-3.477-.818l-1.786.089c-2.725.145-3.477.396-3.477 1.182v7.197l-1.27.064v.708l4.184-.22v-4.335l2.912-.151v4.335l4.183-.22v-.705l-1.269.066v-7.192zm12.283 3.303l1.504.053v3.63l-2.961-.104v-7.484l2.96.1v1.612l2.68.094v-2.322l-5.03-.172c-2.771-.097-3.524.09-3.524.88v6.897c0 .787.753 1.026 3.524 1.124l5.174.179v-5.047l-4.327-.15v.71m17.596 4.418l-2.96-.31v-7.486l2.96.31v7.486zm-.613-8.257l-1.74-.18c-2.772-.292-3.524-.153-3.524.63v6.902c0 .785.752 1.077 3.524 1.367l1.74.18c2.773.293 3.526.156 3.526-.633v-6.895c0-.789-.753-1.077-3.526-1.37zm20.169 3.578c0-.787-.704-1.122-3.48-1.612l-6.53-1.144v.71l1.269.22v7.486l-1.27-.222v.71l4.185.73v-8.194l2.914.516v8.188l4.181.734v-.706l-1.269-.224v-7.192m12.788 5.556l-2.35-.625v-3.148l2.915.774v1.615l2.724.729v-2.325l-5.075-1.35c-2.725-.726-3.478-.714-3.478.075v2.573c0 .788.705 1.175 3.478 1.915l2.35.626v3.626l-2.914-.773v-2.202l-2.727-.725v2.908l5.077 1.354c2.729.724 3.48.71 3.48-.079v-3.04c0-.788-.751-1.201-3.48-1.928m-73.408-45.334s.041-.172.125-.5c-.079.243-.125.407-.147.48l.022.02m79.992-27.135c5.544-1.91 7.462-5.517 9.036-8.494.806-1.524 1.5-2.84 2.546-3.68 2.302-1.853 4.59-2.61 6.792-2.25 2.12.348 3.775 1.662 4.838 2.75-5.004-.516-6.984 2.654-8.882 5.754-1.038 1.691-2.112 3.444-3.71 4.664-3.046 2.325-7.686 1.874-10.62 1.256zm11.573-.023c1.081-.825 1.922-1.818 2.662-2.868.512-.727.978-1.48 1.434-2.221 2.104-3.437 3.77-6.154 9.3-4.667l1.931.518-1.061-1.683c-.112-.175-2.754-4.278-7.2-5.012-2.665-.441-5.37.424-8.042 2.573-1.296 1.042-2.098 2.559-2.948 4.165-1.751 3.31-3.737 7.066-10.808 8.454l-2.744.538 2.629.957c.14.05 1.462.518 3.34.886 3.226.63 8.1.961 11.507-1.64zm-13.971-14.224s-1.759 1.266-1.958 1.653c0 0-1.172-1.166-1.27-2.138 0 0 .098 3.208 1.958 5.542 0 0-.296-3.111 1.27-5.057m-31.273-4.924s-2.287-4.214-.527-6.352c0 0-6.964-3.682-10.751-13.716 0 0 1.092 9.533 6.445 13.618 0 0-5.577-2.721-11.545-1.556 0 0 7.242 1.167 10.47 5.153 0 0-6.273 3.566-7.643 8.038 0 0 6.063-7.016 13.551-5.184" fill="#15366F"/><path d="M160.803 146.093l-3.198 3.489 1.705-19.482h-1.231l-3.086 5.512c-1.477 2.23-3.205 4.99-5.796 6.427-1.233.687-2.711.013-4.318.013h-2.341v-18.946c3.084 0 4.809 0 6.784 3.879l1.726 3.29h1.23v-17.05h-1.23l-1.726 3.614c-1.727 3.612-4.07 3.612-6.784 3.612v-19.654l2.341-.175c2.901-.001 6.435-1.341 8.637 2.404l3.573 5.525h1.356l-.657-6.542c.69.533.995 1.419 1.37 2.521.342 1.003.73 2.141 1.522 3.086.039.045.082.09.123.134v38.343zm-26.524-27.274l-2.857 3.426 2.857 3.163v15.639l-1.805 1.989-2.829-2.802-8.035-20.796 6.012-15.295 4.324-3.685 2.333 2.994v15.367zm-18.081-1.014l-1.808-5.231c1.436-1.073 2.427-2.03 2.536-2.133l.283-.278-.057-.39c-.235-1.628.788-4.91 1.937-7.893l1.75 2.475-4.641 13.45zm-10.284-3.856c-1.394-.615-2.223-2.528-2.463-5.569.893 1.02 2.158 1.828 3.857 1.828 5.35 0 5.728-8.8 5.742-9.205.015-.25.042-1.522-.894-2.546-.774-.846-1.954-1.277-3.508-1.277-1.486 0-2.718 1.451-3.568 2.836a13.38 13.38 0 0 1-.026-.82c0-1.703.318-3.668 1.564-4.82 1.295-1.196 3.47-1.331 6.461-.407a.78.78 0 0 0 .979-.512.775.775 0 0 0-.515-.973c-2.427-.75-4.446-.87-6.034-.368a5.13 5.13 0 0 0-1.96 1.124c-.081.077-.16.156-.237.239-4.033-.625-22.029-2.809-34.12 5.546l-.002-.002c-2.235-.016-4.298-.92-6.047-2.102-1.506-1.018-2.776-2.243-3.727-3.294a22.728 22.728 0 0 1-1.823-2.28c.01.004.02.005.03.008a14.772 14.772 0 0 1 .031-1.325c.326-4.875 3.13-9.485 11.137-11.953 0 0-.183-.641-.342-1.678-.258-1.662-.448-4.343.274-7.068 1.313-4.951 5.645-10.04 18.117-9.373 0 0-20.401-9.928-23.475-29.634-.027-.177-.057-.353-.08-.53-.027-.163-.036-.249-.036-.249.01.084.022.165.035.248.022.134.056.326.104.565.76 3.743 5.286 19.62 28.359 28.571.314.123.63.245.95.365 7.571 2.166 8.207-3.844 5.86-3.825a33.121 33.121 0 0 1-6.281-.541c3.882-1.404 6.372-2.304 6.487-2.348a253.73 253.73 0 0 0 6.55 2.623c-.88 1.39-1.98 2.641-3.357 3.662 0 0 2.357 1.718 3.514 6.171-5.546-.646-15.808-.825-23.838 4.872-5.61 3.984-6.583 9.915-6.583 13.546 0 .738.04 1.375.091 1.886-4.166.88-6.193 1.274-7.175 1.448-.811.147-.91.142-.91.142l.907.035 10.503.403-.028-.016 2.711.103 29.029 1.092c.397.42 6.86 7.256 7.504 7.94-.952 2.035-4.126 9.098-4.126 12.8 0 .1.013.183.02.277-1.954 1.83-6.852 5.62-9.661 4.385zm.422-12.98c.717-1.19 1.598-2.233 2.312-2.233 1.086 0 1.872.255 2.336.754.533.568.51 1.316.503 1.398l-5.151.081zm-16.307-3.021s.536-1.893.912-2.258c0 0-.032 1.264.383 1.77 0 0-.915.125-1.295.488zm-4.943 3.193c-.656-3.063.913-5.347.913-5.347-.65 1.2.432 4.03.432 4.03-.477.107-1.345 1.317-1.345 1.317zm-4.798 4.679a10.083 10.083 0 0 1-1.117-4.633c0-1.69.393-3.104.706-3.973-.049.33-.073.666-.073 1.003 0 2.699 1.431 5.394 1.573 5.652-.424.445-.912 1.54-1.09 1.95zm-3.364 4.746c-2.315-2.624-2.85-5.641-2.85-7.84 0-.996.107-1.815.206-2.363.107 4.09 2.946 7.332 3.332 7.751-.417.492-.626 1.941-.688 2.452zM63.402 30.358c-7.532 29.434 5.354 46.231 5.354 46.231-1.951.51-2.974 1.403-2.974 1.403-12.084-21.873-2.38-47.634-2.38-47.634zm24.9 15.856l8.078 4.93.415-.614 4.057-5.935 8.078 7.312c-.243.654-.52 1.294-.835 1.916l-.002-.001-7.35-3.133-9.57 3.49a29.857 29.857 0 0 1-5.235-2.118c.89-2.2 2.033-5.035 2.364-5.847zm25.425 28.157a32.842 32.842 0 0 1 1.783-1.33c1.158.991 2.075 1.452 2.075 1.452-.513-.143-2.757-.135-3.858-.122zm-9.091-7.134c.785 3.076 2.16 5.109 3.27 6.34-.066.587-.16 1.203-.265 1.832-.66.182-1.216.374-1.216.374-2.028-2.692-1.79-8.546-1.79-8.546zm-7.83.485s3.045 7.373 7.197 9.35c0 0-1.529.499-3.218 1.765 0 0-2.839-4.086-3.978-11.115zM93.74 84.671s-.748.703-1.423 1.572l-3.279-.124c-2.463-2.59-6.081-7.008-5.995-10.523 0 0 4.436 8.297 10.697 9.075zm-4.403-14.485s4.111 8.347 9.302 9.98c0 0-1.991.86-3.007 2.56 0 0-4.692-3.42-6.295-12.54zm50.21 27.877l-8.352 1.432.006.007-11.57 1.012a75.213 75.213 0 0 1 1.692-3.84l.23-.48-1.51-1.597-7.165-7.58-18.026-.679c4.37-4.23 8.52-6.61 11.973-7.926l.204-.074a53.014 53.014 0 0 1-1.94 6.157s1.815-3.464 5.438-7.203c3.002-.677 5.574-.705 7.459-.542.475.062.905.128 1.291.19.6 2.235 1.806 3.838 2.686 4.766.181.347.376.698.601 1.05 2.516 3.924 5.757 4.656 8.89 5.364 1.659.374 3.37.762 4.959 1.637.986.544 1.67 1.379 2.145 2.335.97 1.95 1.06 4.414.99 5.971zm-26.93-54.692c8.922 16.727 19.634 19.84 21.573 20.277l.044-.023c2.512.516 4.885.874 7 1.013-.896.893-3.43 3.41-3.43 3.41l2.203-.234c3.097-.326 11.55-.506 13.473 2.555l.667 1.06.665-1.066c.057-.089 1.227-1.85 4.373-2.54-1.337 1.94-3.167 5.688-3.167 11.733 0 .046.005.1.005.146-1.704-1.755-4.646-4.394-7.561-5.118-1.032-.258-2.163-.35-3.334-.361-1.143-.013-2.32.051-3.484.114-2.338.127-4.554.248-5.947-.298-1.588-.544-4.06-1.985-5.96-5.8-.122.895.106 1.77.523 2.584.356.546.8 1.176 1.323 1.804.223.269.464.536.717.796a15.872 15.872 0 0 0 2.145 1.717l-.007.011.015.008c.829.956 2.762 3.511 2.862 5.151.276 4.439 3.333 9.578 10.938 10.022-.744 2.045-2.906 6.877-7.17 8.33.03-.408.058-.877.058-1.433 0-2.764-.6-6.973-3.967-8.83-1.785-.987-3.608-1.398-5.373-1.795-3.082-.696-5.748-1.3-7.914-4.685-1.272-1.983-1.728-3.864-1.728-5.547 0-4.145 2.771-7.065 2.933-7.234a.785.785 0 0 0 .172-.28 9.17 9.17 0 0 0-.38-.091c-.144-.03-.285-.065-.426-.09-8.309-1.508-15.677 8.43-15.677 8.43 4.574-11.33-1.303-17.899-1.303-17.899 7.58-5.193 5.139-15.837 5.139-15.837zm14.286 4.02c.586 6.162 4.972 12.317 6.734 14.567a17.035 17.035 0 0 1-1.93-.747l-5.025-3.109a37.196 37.196 0 0 1-3.774-3.42c3.482-2.203 3.995-7.291 3.995-7.291zm23.52 36.503c1.146-1.01 1.782-2.033 1.822-3.047a2.639 2.639 0 0 0-.764-1.97l-.227-.208-.11.288c-.545 1.423-1.514 1.503-1.955 1.463.197-.434.303-.835.303-1.184 0-1.338-1.162-2.028-1.178-2.036l-.097-.058s-1.97.977-2.272 1.129c-.167-.287-1.199-2.083-1.199-2.083s-1.286 1.04-1.574 1.27c-.168-.268-.666-1.05-.88-1.388.653-.14 1.27-.232 1.865-.285 1.412-.033 2.77.02 3.927.31a.807.807 0 0 0 .248.015c4.13 1.116 6.078 4.307 6.393 4.87-.794 2.068-3.145 2.722-4.301 2.914zm-11.237-3.166c.313-.188.981.02 1.467.251-.57.521-.875 1.06-.875 1.609l.002.058c.034.893.822 1.445.858 1.467l.175.123.119-.18c.642-.974 1.504-.934 1.94-.84-.457.565-.7 1.178-.7 1.83l.002.169c.049.802.429 1.516.822 2.057-2.87-1.76-3.745-4.589-4.008-6.162.02-.186.086-.316.198-.382zm19.598 15.085l2.019 2.246v.637a4.595 4.595 0 0 0-1.516-.352 4.994 4.994 0 0 0-1.841.258l-.304-3.031c.5.103 1.045.174 1.642.242zm-4.768-5.481c1.63.619 4.051 1.497 4.937 1.592 6.417.699 10.097-.465 12.786-1.315 2.135-.676 3.592-1.116 5.473-.421-1.435.84-3.437 2.438-3.937 5.004a6.356 6.356 0 0 0-.115 1.203c0 2.67 1.655 5.628 4.916 8.822-1.617-.008-4.077-.447-5.672-2.742-3.054-4.39-5.129-6.207-8.235-7.2-2.049-.658-3.7-.84-5.033-.987-2.608-.289-3.861-.434-5.12-3.956zm8.01 11.278c.37.468.557 1.158.772 1.958.375 1.374.86 3.118 2.606 4.617-1.267-.156-2.678-.56-3.522-1.565-.607-.723-.928-1.67-1.242-2.59-.519-1.523-1.113-3.185-3.01-3.834.47-.193 1.005-.331 1.58-.298 1.01.06 1.956.636 2.816 1.712zm16.899 9.126l-4.564 38.754-5.175-1.5v-38.353l1.858-.24-1.858-.817v-7.803c.6.729 1.232 1.58 1.926 2.581 3.104 4.464 8.699 3.286 8.937 3.234l1.487-.329-1.138-1.01c-4.171-3.704-6.104-7.076-5.586-9.757.61-3.157 4.415-4.571 4.454-4.586l1.543-.557-1.407-.839c-3.247-1.935-5.403-1.251-8.137-.387-2.698.855-6.052 1.916-12.141 1.251-.668-.072-3.002-.906-4.871-1.623a58.81 58.81 0 0 1-1.186-.463l-1.482-.59.438 1.527c.007.024.015.046.021.07 1.11 3.822 2.267 5.284 3.966 5.946l-9.745 1.667c2.688-3.04 3.745-6.872 3.81-7.116l.008-.035.253-.942h-1.018c-2.073 0-3.735-.348-5.068-.904l.073-.116c-.015-.013-1.431-1.21-1.51-2.625-.04-.645.2-1.229.73-1.784l.421-.438-.561-.24a2.418 2.418 0 0 0-2.679.62c-.148-.175-.3-.42-.31-.715v-.027c0-.423.292-.87.872-1.332l.484-.389-.54-.307c-.258-.145-1.562-.839-2.354-.386-.102-1.4-1.02-3.03-1.87-4.263 1.325.147 2.847.08 4.43-.007l1.58 2.49s1.112-.894 1.55-1.25l1.125 1.957s2.112-1.048 2.482-1.234c.26.207.683.65.683 1.358 0 .329-.093.714-.334 1.159l-.253.46.504.148c.61.177 1.83.106 2.624-1.14.112.229.216.516.216.882 0 .032 0 .066-.003.1-.046.953-.771 1.994-2.097 3.015l-1.066.82 1.35-.063c.177-.01 4.303-.247 5.517-3.382.592.635.95 1.069.962 1.082l1.57 1.925-.181-2.47c-.742-10.127 3.866-14.357 3.915-14.399l1.647-1.467-2.207.11c-3.814.19-5.923 1.755-6.89 2.745-2.683-2.649-8.835-2.786-12.168-2.636l2.982-2.963h-1.889c-2.12 0-4.63-.31-7.35-.827-2.187-2.82-8.406-11.793-8.286-22.387 0 0-1.69 11.535-5.698 13.465-3.625-4.043-7.608-9.883-11.582-18.324 0 0 1.404 7.991-.673 15.205l-8.897-8.048-.508.741-4.138 6.062c-1.086-.66-8.382-5.115-8.382-5.115l-2.984 7.372c-14.876-8.725-19.41-28.1-19.41-28.1C39.6 45.34 29.667 64.998 27.954 81.484a19.495 19.495 0 0 0-.023 1.993c6.128 2.169 12.29 3.945 18.3 5.407a10.56 10.56 0 0 0-.134-.915C37.9 59.463 63.855 25.858 63.855 25.858 44.029 55.57 43.529 75.718 48.258 88.576c.046.292.13.576.241.848 3.758.87 7.447 1.625 11.015 2.268a19.57 19.57 0 0 0 .127 2.886c.566 5.001 3.344 14.29 15.862 17.937.196.057.394.11.594.166.7.189 1.428.361 2.189.515l.004-.017.046-.165c.358-1.224 2.838-8.356 13.061-13.38 2.999-1.475 6.666-2.768 11.14-3.676.484-.098.982-.19 1.485-.279-.006.013-.01.028-.015.04-.614 1.81-.572 3.863-.421 5.293l-3.679.06-.01-.095-8.144-.337a24.967 24.967 0 0 0-4.21 2.252h.148c3.577 0 5.178.314 8.63 5.736l3.577 5.522h1.356l-1.285-12.469 4.246 2.934.18.404.046.2.018-.05 1.403 3.166c-1.843-.872-2.458-3.245-2.489-3.368l-1.543.157c-.219 5.778.91 9.131 3.453 10.248 1.139.5 2.434.445 3.735.08l1.764 3.986-8.035 19.982-2.132 1.557 1.504-12.483h-1.235l-3.083 4.67c-1.48 2.232-3.207 4.993-5.794 6.428-1.234.69-2.714.85-4.316.85H85.35v-17.37c3.082 0 4.806 0 6.782 3.88l1.724 3.294h1.232v-17.05h-1.232l-1.724 3.61c-1.73 3.613-4.071 3.613-6.782 3.613v-15.89c-2.562 2.157-5.102 5.243-6.42 9.532l-1.844-.441v4.986l-2.856 3.428 2.856 3.161v14.792l-1.856 2.507-1.61-1.559V126.9c0-3.988-4.562-4.834-8.385-5.42 3.454-.531 8.385-1.328 8.385-5.577v-3.623c-3.472-.919-6.219-2.228-8.385-3.75v7.903c0 2.712-1.726 3.613-5.92 3.613h-1.849v-18.118l1.848.384c.094 0 .182.013.273.014a18.913 18.913 0 0 1-1.845-4.738l-11.744-2.45 3.085 5.008v18.46l-2.858 3.428 2.858 3.166v19.911l-3.085 4.229c7.42-2.165 14.553-3.113 14.553-3.113l-3.085-3.178v-20.24h2.218c4.071 0 5.551.903 5.551 2.707v19.907c3.085-.807 11.468-1.502 11.468-1.502l-.11-.103c6.824-.724 17.987-.92 22.16-.97l17.045.264-3.024-3.428 3.228-14.82 3.617 14.82-3.062 3.486 16.863 1.606c8.725 1.417 22.414 4.628 24.006 5.004l-.04.038c6.483.986 23.141 7.599 23.141 7.599l-.045-46.681h-1.556z" fill="#15366F"/><path d="M133.864 66.08c1.4.31 3.45-.588 3.45-.588-1.813.165-3.525-.088-4.995-.495-2.86-.788-4.81-2.152-4.81-2.152.853.984 2.28 1.96 3.725 2.794a44.88 44.88 0 0 0 4.837 2.373l-2.207-1.933M65.363 29.793c-.041-.169-.084-.33-.114-.5 0 0 .03.173.114.5" fill="#15366F"/></g></svg>