<?xml version="1.0" encoding="UTF-8"?>
<svg width="200px" height="200px" viewBox="0 0 200 200" version="1.1" xmlns="http://www.w3.org/2000/svg" xmlns:xlink="http://www.w3.org/1999/xlink">
    <!-- Generator: Sketch 51.3 (57544) - http://www.bohemiancoding.com/sketch -->
    <title>drexel</title>
    <desc>Created with Sketch.</desc>
    <defs></defs>
    <g id="drexel" stroke="none" stroke-width="1" fill="none" fill-rule="evenodd">
        <g id="drexel_BGL" transform="translate(0.000000, 22.885572)">
            <g id="drexel">
                <g id="g10" transform="translate(99.896155, 77.604303) scale(-1, 1) rotate(-180.000000) translate(-99.896155, -77.604303) translate(0.000000, 0.012385)" fill-rule="nonzero">
                    <g id="g12">
                        <path d="M162.798334,74.514243 C162.582758,75.3136874 162.396258,76.0037602 162.026164,76.4713754 C161.166351,77.5481696 160.220141,78.1239181 159.209549,78.1833502 C158.635095,78.2171935 158.099685,78.0785186 157.629072,77.8853642 C159.527306,77.2369765 160.121284,75.5749411 160.640494,74.0515806 C160.953682,73.1324465 161.275178,72.1844219 161.881616,71.4621567 C162.725645,70.457589 164.137068,70.0531205 165.404357,69.8966985 C163.658563,71.396121 163.173412,73.1402883 162.798334,74.514243" id="path14" fill="#EF2C30"></path>
                        <path d="M172.634264,97.9507168 C174.532498,101.050679 176.512145,104.220391 181.516091,103.704488 C180.453163,104.792838 178.798334,106.106535 176.677877,106.454874 C174.476008,106.814355 172.188158,106.058247 169.885769,104.204295 C168.840702,103.364404 168.146206,102.048643 167.339975,100.525283 C165.766143,97.5474865 163.848386,93.9411132 158.304046,92.0306186 C161.237795,91.413185 165.878293,90.9616661 168.923776,93.2865346 C170.521699,94.5069564 171.595842,96.2593781 172.634264,97.9507168" id="path16" fill="#EF2C30"></path>
                        <path d="M159.136445,83.7939063 C160.468532,83.6473896 162.120453,83.4649661 164.169466,82.8070857 C167.275178,81.8140742 169.350359,79.9972677 172.403734,75.6071335 C173.99875,73.3115683 176.458563,72.8728438 178.076423,72.865002 C174.814949,76.0586524 173.16012,79.0170506 173.16012,81.6869555 C173.16012,82.0930749 173.199165,82.4946544 173.275177,82.8896302 C173.774866,85.4559417 175.777358,87.0535923 177.211626,87.8938962 C175.330837,88.588509 173.874139,88.1485463 171.738729,87.4729188 C169.050048,86.6231222 165.370297,85.4592435 158.953267,86.1575707 C158.067286,86.252497 155.646517,87.1311842 154.01578,87.7502687 C155.274762,84.2276781 156.527514,84.0823996 159.136445,83.7939063" id="path18" fill="#EF2C30"></path>
                        <path d="M148.083901,101.98756 C146.927099,102.276054 145.568844,102.329295 144.157421,102.297102 C143.561782,102.243861 142.945375,102.151824 142.29117,102.011911 C142.5055,101.673065 143.003527,100.891368 143.172167,100.623511 C143.459602,100.854223 144.746414,101.893872 144.746414,101.893872 C144.746414,101.893872 145.77819,100.098114 145.945168,99.811272 C146.247141,99.9627413 148.216819,100.939657 148.216819,100.939657 L148.314015,100.881463 C148.330214,100.873621 149.492,100.183548 149.492,98.8455002 C149.492,98.4971621 149.386497,98.0955826 149.188781,97.6622235 C149.629903,97.6217766 150.598542,97.7022576 151.143921,99.124501 L151.25441,99.4129943 L151.481201,99.2049819 C151.514015,99.1744404 152.248802,98.4922094 152.248802,97.3477286 C152.248802,97.3105835 152.247141,97.2717876 152.245479,97.2346425 C152.205188,96.2205822 151.568844,95.1986801 150.423672,94.1879215 C151.580474,94.379425 153.93146,95.0340036 154.724814,97.1009202 C154.409965,97.6651125 152.461471,100.855874 148.331876,101.971464 C148.25254,101.96486 148.168221,101.968162 148.083901,101.98756" id="path20" fill="#FFFFFF"></path>
                        <path d="M142.17279,93.0351863 C142.17279,93.688114 142.414534,94.3005949 142.872271,94.8664381 C142.435718,94.9601262 141.574244,95.0001603 140.931668,94.024896 L140.813288,93.8457742 L140.638003,93.9683529 C140.602281,93.9910527 139.813911,94.5424506 139.779851,95.4355831 C139.779851,95.454981 139.77819,95.474379 139.77819,95.493777 C139.77819,96.043524 140.08307,96.5817148 140.652541,97.1025711 C140.16739,97.3332833 139.499062,97.5412957 139.185874,97.3539194 C139.073724,97.2878838 139.007265,97.1574633 138.987743,96.9721507 C139.250671,95.398438 140.125438,92.569222 142.995635,90.8101967 C142.602696,91.3504511 142.223049,92.0644619 142.174451,92.867208 C142.174451,92.9237511 142.17279,92.9786432 142.17279,93.0351863" id="path22" fill="#FFFFFF"></path>
                        <path d="M155.200411,14.5934715 C155.200411,13.8050881 154.44901,13.7907666 151.720038,14.5146414 L146.642987,15.8687029 L146.642987,18.7772855 L149.370297,18.051636 L149.370297,15.8493875 L152.284524,15.0771415 L152.284524,18.7029541 L149.933537,19.3286421 C147.160536,20.0686544 146.456486,20.4554171 146.456486,21.2436354 L146.456486,23.8170044 C146.456486,24.6053878 147.209134,24.6180997 149.933537,23.8924501 L155.008927,22.541773 L155.008927,20.2168219 L152.284524,20.9456907 L152.284524,22.5611297 L149.370297,23.3349852 L149.370297,20.186363 L151.720038,19.5622433 C154.44901,18.8349842 155.200411,18.4222612 155.200411,17.6340841 L155.200411,14.5934715 Z M140.20145,16.9954779 L136.02035,17.7293406 L136.02035,25.917723 L133.106123,26.4336267 L133.106123,18.2402504 L128.9217,18.9704398 L128.9217,19.6799519 L130.190651,19.4574529 L130.190651,26.9447016 L128.9217,27.1637749 L128.9217,27.8733283 L135.452541,26.7299206 C138.228449,26.2401422 138.932499,25.9044746 138.932499,25.1179072 L138.932499,17.9258793 L140.20145,17.7016056 L140.20145,16.9954779 Z M122.288678,20.429787 C122.288678,19.6411147 121.53603,19.5040494 118.763029,19.7958858 L117.023465,19.9766172 C114.25088,20.2668027 113.499478,20.5585978 113.499478,21.3435969 L113.499478,28.2455631 C113.499478,29.0292415 114.25088,29.1679164 117.023465,28.8757911 L118.763029,28.6953899 C121.53603,28.4019439 122.288678,28.113533 122.288678,27.3251496 L122.288678,20.429787 Z M106.107162,20.3699834 L100.932915,20.5491052 C98.1615759,20.647292 97.408928,20.8858871 97.408928,21.6724546 L97.408928,28.5694681 C97.408928,29.3594199 98.1615759,29.5464659 100.932915,29.4498887 L105.962614,29.2773705 L105.962614,26.9558038 L103.283902,27.049492 L103.283902,28.6615053 L100.322739,28.7614668 L100.322739,21.2774787 L103.283902,21.1742979 L103.283902,24.803371 L101.779852,24.8567361 L101.779852,25.5660831 L106.107162,25.4163059 L106.107162,20.3699834 Z M90.7663529,20.3282159 L86.5831754,20.1086472 L86.5831754,24.4440131 L83.6706106,24.2924612 L83.6706106,19.9572604 L79.4878485,19.7379807 L79.4878485,20.4459244 L80.7567996,20.5102267 L80.7567996,27.7069184 C80.7567996,28.4924127 81.5094476,28.7437197 84.2338504,28.8889982 L86.0203509,28.9776511 C88.7476613,29.1192151 89.4974017,28.9450873 89.4974017,28.1601295 L89.4974017,20.9679365 L90.7663529,21.0340547 L90.7663529,20.3282159 Z M73.8870179,18.8577252 L69.7038404,18.4222612 L69.7038404,22.7542427 L66.7933524,22.4513041 L66.7933524,18.1161033 L62.6085135,17.6806806 L62.6085135,18.3868083 L63.8774647,18.517724 L63.8774647,26.0031567 L62.6085135,25.872406 L62.6085135,26.5801847 L69.1410159,27.2637364 C71.9173398,27.5537569 72.6180667,27.4106246 72.6180667,26.6285145 L72.6180667,24.3408324 C72.6180667,23.7683443 72.2467272,23.5008586 71.0687417,23.246126 C72.2467272,23.2495103 72.6180667,23.0476888 72.6180667,22.4756547 L72.6180667,19.4302132 L73.8870179,19.5655038 L73.8870179,18.8577252 Z M56.3003101,17.4552925 C56.3003101,16.6697982 55.5945988,16.2814259 52.8215978,15.5948199 L46.2861878,13.9759966 L46.2861878,14.6821244 L47.5563851,14.9950509 L47.5563851,22.4706608 L46.2861878,22.1562897 L46.2861878,22.8785549 L52.8215978,24.4922192 C55.5945988,25.1822094 56.3003101,25.1451469 56.3003101,24.3535442 L56.3003101,17.4552925 Z M45.8188981,36.5288718 C45.8188981,32.8630664 43.8537891,28.2760221 31.3911519,24.4683638 L18.1950982,19.5040494 L21.1578396,23.1524791 L21.1578396,52.9994074 L18.2908407,56.0609864 L21.0264169,58.9628416 L21.1578396,86.8104985 L18.1950982,92.7417402 L33.980726,85.802629 C41.83219,82.3927118 45.8188981,80.8660495 45.8188981,73.9384945 L45.8188981,36.5288718 Z M186.063962,24.1265466 C186.063962,24.5697698 186.063962,50.0117058 186.063962,50.7067313 C186.52336,51.1627902 191.314637,55.9256132 191.314637,55.9256132 C191.314637,55.9256132 186.711522,60.4977583 186.253786,60.9505154 C186.253786,61.6488426 186.253786,85.4514017 186.253786,85.7204971 C186.338105,85.9800998 192.148697,103.661152 192.148697,103.661152 L190.245478,102.671029 C184.467285,99.6593899 178.50633,97.1009202 172.538729,94.9213302 C171.798542,93.8717757 170.958251,92.8787643 169.877462,92.0533183 C166.470193,89.4527509 161.596258,89.783342 158.370505,90.41357 C156.98982,90.0330394 155.61578,89.6719068 154.25254,89.3268704 C156.121699,88.6095579 158.456486,87.7758575 159.123568,87.703631 C165.212872,87.039147 168.566559,88.1002577 171.264793,88.9545943 C173.99875,89.8188362 176.155343,90.5023054 179.401865,88.5674601 L180.808718,87.7292198 L179.265624,87.1716311 C179.226579,87.156773 175.421802,85.7431969 174.811626,82.5862789 C174.294077,79.9052305 176.226787,76.5324584 180.398334,72.827857 L181.535613,71.8183366 L180.049424,71.4893964 C179.811003,71.437806 174.216403,70.2594819 171.112353,74.7234936 C170.417857,75.7247595 169.78525,76.576207 169.186289,77.304663 L169.186289,69.5017226 L171.044232,68.6845311 L169.186289,68.4443263 L169.186289,30.0917142 L174.360536,28.5922091 L178.925021,67.3460705 L180.480992,67.3460705 L180.526268,20.6649978 C180.526268,20.6649978 163.867909,27.2780992 157.385666,28.2633102 L157.42471,28.3019823 C155.833018,28.6776428 142.143714,31.8889577 133.419311,33.3062483 L116.556176,34.9118645 L119.617858,38.397764 L116.001243,53.2169124 L112.772583,38.397764 L115.796882,34.9700585 L98.7522301,35.2346139 C94.5790215,35.1846331 83.4159896,34.9877643 76.5918984,34.2638895 L76.7019711,34.1607087 C76.7019711,34.1607087 68.318586,33.4660134 65.2340586,32.6583146 L65.2340586,52.5656355 C65.2340586,54.3696476 63.7541002,55.2726855 59.6830722,55.2726855 L57.4654191,55.2726855 L57.4654191,35.0327511 L60.5495312,31.8552795 C60.5495312,31.8552795 53.4172365,30.907131 45.9970913,28.741945 L49.0816187,32.9707458 L49.0816187,52.8817813 L46.2242979,56.0477792 L49.0816187,59.4754435 L49.0816187,77.9353037 L45.9970913,82.9441097 L57.7412239,80.4937734 C58.0980255,79.0265433 58.6708189,77.3983511 59.585876,75.755301 C59.4949102,75.7569519 59.4072675,75.770159 59.3133942,75.770159 L57.4654191,76.1535787 L57.4654191,58.0358658 L59.3133942,58.0358658 C63.5077866,58.0358658 65.2340586,58.93684 65.2340586,61.6488426 L65.2340586,69.5516621 C67.400206,68.0299525 70.1470387,66.7207952 73.6191051,65.8016612 L73.6191051,62.1791917 C73.6191051,57.9293832 68.6882641,57.1328279 65.2340586,56.6024789 C69.0566961,56.0155868 73.6191051,55.1695047 73.6191051,51.1821881 L73.6191051,37.1466768 L75.2286586,35.5875333 L77.084941,38.0943301 L77.084941,52.8863213 L74.2292816,56.0477792 L77.084941,59.4754435 L77.084941,64.4619624 L78.929593,64.0203488 C80.2471423,68.3101914 82.7867061,71.396121 85.3486998,73.5530112 L85.3486998,57.6631769 C88.0598109,57.6631769 90.4012438,57.6631769 92.1308388,61.2761538 L93.8554494,64.8858289 L95.0870174,64.8858289 L95.0870174,47.8354176 L93.8554494,47.8354176 L92.1308388,51.1289469 C90.1545149,55.009781 88.4311504,55.009781 85.3486998,55.009781 L85.3486998,37.6398395 L87.6913789,37.6398395 C89.2930403,37.6398395 90.7725834,37.7996046 92.0074743,38.4893059 C94.5935594,39.9243437 96.3202468,42.6858731 97.8014513,44.9174662 L100.884317,49.5878393 L102.119208,49.5878393 L100.614743,37.1046204 L102.74683,38.6618241 L110.781721,58.643394 L109.018066,62.6290597 C107.716716,62.2646253 106.422012,62.2097332 105.283071,62.7095407 C102.7406,63.8267817 101.611212,67.1801559 101.830112,72.9582774 L103.373206,73.1146994 C103.403943,72.9921207 104.019104,70.6189636 105.862095,69.74688 L104.458564,72.9132906 L104.440704,72.8633512 L104.395428,73.0631091 L104.215158,73.4663394 L99.9692602,76.400387 L101.254411,63.9316134 L99.8978168,63.9316134 L96.3202468,69.453434 C92.8689489,74.8753756 91.2677028,75.1894578 87.6913789,75.1894578 L87.543923,75.1894578 C89.2199355,76.3021589 90.7435076,77.0244241 91.7528534,77.4416871 L99.8978168,77.1049051 L99.9073703,77.0095661 L103.585875,77.0694109 C103.435096,78.499496 103.392728,80.5519673 104.007474,82.3621703 C103.603736,82.3027382 103.108616,82.2251463 102.537484,82.1236164 C98.0627182,81.2160386 94.395844,79.9229775 91.3972978,78.4479057 C81.1738297,73.4242417 78.6944944,66.291976 78.3360313,65.0682524 C78.309863,64.9551663 78.2969866,64.8957342 78.2969866,64.8957342 L78.2903407,64.9023378 C78.2874331,64.8924325 78.2857717,64.8858289 78.2857717,64.8858289 C77.5248163,65.0393618 76.7979212,65.21188 76.096779,65.4004944 C75.897402,65.4566248 75.6992712,65.509866 75.5028019,65.5664091 C62.9852528,69.2132292 60.2072674,78.5027978 59.64112,83.503762 C59.4903412,84.8273646 59.4949102,85.8509176 59.5144326,86.389521 C55.9692613,87.0280035 52.3023871,87.7775084 48.5673923,88.6417503 C48.5104868,88.8930986 48.4099676,89.1787029 48.2575274,89.5059922 C48.2525429,89.5187866 48.2882646,89.4977377 48.3011411,89.4944359 C43.5729999,102.351995 44.0290747,122.512273 63.8546194,152.223787 C63.8546194,152.223787 37.9007675,118.619058 46.0976105,90.1122822 C46.0863955,89.7849929 46.1109023,89.4849433 46.1673924,89.2125461 C40.1788152,90.6715218 34.0407468,92.4416906 27.9319204,94.6035336 C21.5796879,96.8512229 15.2664171,99.5128733 9.20303196,102.671029 L7.29977136,103.661152 C7.29977136,103.661152 13.1100724,85.9800998 13.1960537,85.7204971 C13.1960537,85.4514017 13.1960537,61.6488426 13.1960537,60.9505154 C12.7385251,60.4977583 8.13536844,55.9256132 8.13536844,55.9256132 C8.13536844,55.9256132 12.9267286,51.1627902 13.3859187,50.7067313 C13.3859187,50.0117058 13.3859187,24.5697698 13.3859187,24.1265466 C13.1652333,23.7394537 0,0.535252164 0,0.535252164 L2.89622423,2.31995296 C3.05036337,2.41491226 18.3378604,11.7593854 37.3685557,17.6179467 C37.7823044,16.1411826 40.4935815,6.44058321 40.4935815,6.44058321 L41.3827196,6.7628373 C41.644028,6.85830012 68.07518,16.2716031 100.897194,16.2716031 C133.724192,16.2716031 160.153682,6.85830012 160.418272,6.7628373 L161.305915,6.44058321 C161.305915,6.44058321 164.015365,16.1361887 164.429072,17.6179467 C183.349528,11.7687129 196.368842,2.45038167 196.498437,2.35542237 L199.751605,0 C199.751605,0 186.283277,23.7394537 186.063962,24.1265466 Z" id="path24" fill="#FCD43D"></path>
                        <polyline id="path26" fill="#FCD43D" points="127.622011 73.9384945 121.610381 58.643394 129.645272 37.8479757 132.473517 35.0459995 134.279124 37.0352829 134.279124 52.6737689 131.421804 55.8368778 134.279124 59.2624784 134.279124 74.6302182 131.945999 77.6241106 127.622011 73.9384945"></polyline>
                        <path d="M110.984421,78.5915332 C110.520454,79.090928 109.733746,79.3459908 108.647972,79.3459908 C107.934369,79.3459908 107.052957,78.3026272 106.336031,77.1127468 L111.487432,77.1936405 C111.494078,77.2757724 111.516923,78.0240392 110.984421,78.5915332" id="path28" fill="#FCD43D"></path>
                        <path d="M146.265002,81.1694009 L156.009965,82.836389 C154.311107,83.4988093 153.154306,84.9610868 152.044441,88.7820761 C151.388989,88.6240032 150.733537,88.470883 150.082655,88.3210645 L150.074763,88.2855703 C150.00955,88.0420638 148.953267,84.209931 146.265002,81.1694009" id="path30" fill="#FCD43D"></path>
                        <path d="M121.553891,81.8883643 L121.323361,81.4079548 C120.903008,80.5342203 120.276633,79.1425184 119.63115,77.5675676 L131.201243,78.579977 L131.195012,78.5865806 L139.54766,80.0183166 C139.617442,81.5755203 139.528138,84.0390637 138.557837,85.9895925 C131.739976,84.7951722 125.45088,84.0035695 120.043195,83.484364 L121.553891,81.8883643" id="path32" fill="#FCD43D"></path>
                        <path d="M117.151814,68.3085405 L117.20872,67.9185173 L116.926269,67.6411674 C116.817443,67.5379867 115.826373,66.5804694 114.390444,65.5082151 L116.197713,60.2769515 L120.839872,73.7271803 L119.089094,76.2018673 C117.940184,73.2195311 116.916716,69.9371453 117.151814,68.3085405" id="path34" fill="#FCD43D"></path>
                        <path d="M157.088677,69.5306132 L153.516092,75.0557356 C151.314223,78.8007838 147.780266,77.461085 144.879332,77.4594341 L142.537899,77.285265 L142.537899,57.6309845 C145.252333,57.6309845 147.595427,57.6309845 149.321699,61.2423105 L151.047971,64.8569383 L152.277878,64.8569383 L152.277878,47.806527 L151.047971,47.806527 L149.321699,51.0967545 C147.347037,54.9759377 145.622426,54.9759377 142.537899,54.9759377 L142.537899,36.0294358 L144.879332,36.0294358 C146.485562,36.0294358 147.963859,35.3555417 149.196673,36.0423127 C151.788158,37.4802396 153.516092,40.2388799 154.992727,42.470019 L158.078501,47.9819342 L159.310069,47.9819342 L157.60498,28.5001306 L160.802904,31.9889192 L160.802904,70.3321212 C160.762197,70.3754571 160.718584,70.4208566 160.679539,70.4658434 C159.887846,71.4105663 159.499892,72.5488563 159.157628,73.5517731 C158.782966,74.6541561 158.47767,75.5394469 157.788158,76.0730977 L158.445271,69.5306132 L157.088677,69.5306132" id="path36" fill="#FCD43D"></path>
                        <polyline id="path38" fill="#FCD43D" points="83.6706106 25.0019733 86.5831754 25.1533601 86.5831754 28.3019823 83.6706106 28.1489859 83.6706106 25.0019733"></polyline>
                        <polyline id="path40" fill="#FCD43D" points="66.7933524 23.1590827 69.7038404 23.4654057 69.7038404 26.6156376 66.7933524 26.3094797 66.7933524 23.1590827"></polyline>
                        <polyline id="path42" fill="#FCD43D" points="50.4722729 15.731844 53.3844223 16.4541092 53.3844223 23.9119719 50.4722729 23.1913164 50.4722729 15.731844"></polyline>
                        <polyline id="path44" fill="#FCD43D" points="116.415366 20.7488218 119.376113 20.4392796 119.376113 27.9249186 116.415366 28.2344609 116.415366 20.7488218"></polyline>
                        <path d="M32.2510895,81.6176181 L30.1531872,82.3720756 L30.1531872,29.6612442 C34.7952224,30.907131 38.0435297,32.4016421 38.0435297,38.5940963 L38.0435297,74.6302182 C38.0435297,76.4375321 36.3496149,80.1404825 32.2510895,81.6176181" id="path46" fill="#FCD43D"></path>
                        <path d="M159.287223,79.7376649 C159.811419,79.7087743 160.316092,79.5878465 160.802904,79.386025 L160.802904,80.0228565 L158.784212,82.2688949 C158.187327,82.3365815 157.641948,82.4075698 157.14226,82.5107506 L157.445894,79.4797131 C158.000827,79.6617239 158.620557,79.77481 159.287223,79.7376649" id="path48" fill="#FCD43D"></path>
                        <path d="M108.09304,124.260155 L108.094701,124.258504 C108.409551,124.880891 108.687017,125.521024 108.930423,126.17519 C107.199167,127.742299 101.818897,132.612843 100.851919,133.486577 C100.048596,132.313206 96.7954285,127.552034 96.7954285,127.552034 L96.3800599,126.937902 C96.3800599,126.937902 89.5929365,131.079577 88.3015554,131.867878 C87.9705066,131.055639 86.8282429,128.221058 85.9376926,126.020419 C87.5634454,125.175988 89.3092397,124.458262 91.1734141,123.902324 C96.4124586,125.814057 100.743092,127.392723 100.743092,127.392723 C100.743092,127.392723 104.96656,125.59325 108.09304,124.260155" id="path50" fill="#FCD43D"></path>
                        <path d="M96.8066435,110.359646 C97.9459996,103.330561 100.78546,99.2450161 100.78546,99.2450161 C102.474348,100.510837 104.002905,101.008994 104.002905,101.008994 C99.8508802,102.987175 96.8066435,110.359646 96.8066435,110.359646" id="path52" fill="#FCD43D"></path>
                        <path d="M89.336654,107.896102 C90.9395616,98.7761628 95.631981,95.3551021 95.631981,95.3551021 C96.6479727,97.0559334 98.6388345,97.9152227 98.6388345,97.9152227 C93.4483881,99.5483675 89.336654,107.896102 89.336654,107.896102" id="path54" fill="#FCD43D"></path>
                        <path d="M104.635511,110.845008 C104.635511,110.845008 104.39709,104.990945 106.425335,102.298753 C106.425335,102.298753 106.981929,102.49067 107.640703,102.67268 C107.745792,103.30167 107.84008,103.917453 107.906539,104.504345 C106.796674,105.73591 105.420973,107.768984 104.635511,110.845008" id="path56" fill="#FCD43D"></path>
                        <path d="M117.585044,103.588513 C117.585044,103.588513 116.668325,104.049524 115.509862,105.040885 C114.890132,104.609177 114.292832,104.165499 113.726685,103.711091 C114.828242,103.723886 117.072479,103.73214 117.585044,103.588513" id="path58" fill="#FCD43D"></path>
                        <path d="M92.3173393,91.8387024 C92.9923134,92.707897 93.7403923,93.4107642 93.7403923,93.4107642 C87.4787102,94.1891597 83.0429886,102.485717 83.0429886,102.485717 C82.9570073,98.970968 86.5752834,94.5535941 89.038004,91.962932 L92.3173393,91.8387024" id="path60" fill="#FCD43D"></path>
                        <path d="M154.63551,101.220308 C152.77632,103.554669 152.678709,106.762765 152.678709,106.762765 C152.77632,105.790802 153.94766,104.625273 153.94766,104.625273 C154.147037,105.011994 155.906123,106.277815 155.906123,106.277815 C154.340183,104.331827 154.63551,101.220308 154.63551,101.220308 Z M133.863756,112.002696 L136.070609,110.069501 C136.070609,110.069501 133.625334,111.064164 131.233642,112.442658 C129.78982,113.277597 128.361783,114.253274 127.508616,115.236793 C127.508616,115.236793 129.458771,113.872744 132.319415,113.084443 C133.789405,112.677911 135.501139,112.424911 137.313392,112.589588 C137.313392,112.589588 135.263963,111.691503 133.863756,112.002696 Z M111.082033,106.016562 C112.451503,110.488828 118.725646,114.054754 118.725646,114.054754 C115.496986,118.04042 108.255449,119.207601 108.255449,119.207601 C114.22305,120.37313 119.799789,117.651635 119.799789,117.651635 C114.446934,121.73718 113.35493,131.269842 113.35493,131.269842 C117.142261,121.235721 124.105916,117.553407 124.105916,117.553407 C122.345584,115.415502 124.633434,111.201188 124.633434,111.201188 C117.145168,113.032852 111.082033,106.016562 111.082033,106.016562 Z M159.185043,110.258116 C156.039041,109.569694 154.869363,107.80778 154.812457,107.719044 L154.147037,106.653393 L153.48037,107.712441 C151.557629,110.774019 143.104046,110.59366 140.006642,110.268021 L137.803527,110.034007 C137.803527,110.034007 140.337691,112.550792 141.234887,113.443924 C139.119415,113.582599 136.745583,113.94043 134.233849,114.456334 L134.18982,114.433634 C132.251295,114.870708 121.538938,117.983877 112.61682,134.710301 C112.61682,134.710301 115.05711,124.066588 107.478294,118.873708 C107.478294,118.873708 113.35493,112.305634 108.781306,100.975151 C108.781306,100.975151 116.149114,110.912694 124.458148,109.40543 C124.599374,109.379429 124.740184,109.345585 124.883071,109.315044 C125.01142,109.286153 125.139353,109.25685 125.264379,109.223007 C125.24818,109.179671 125.230319,109.139224 125.207474,109.097539 C125.175075,109.044298 125.141015,108.992707 125.092416,108.944006 C124.930423,108.774789 122.159083,105.855187 122.159083,101.71021 C122.159083,100.027126 122.614743,98.1455221 123.887017,96.1628009 C126.053164,92.7772344 128.719,92.1742462 131.80145,91.4775698 C133.565521,91.080943 135.388989,90.6698709 137.173828,89.683463 C140.540806,87.8262097 141.141014,83.6164354 141.141014,80.8532551 C141.141014,80.2969046 141.113184,79.8280513 141.082447,79.4198682 C145.346621,80.8726531 147.509446,85.7044009 148.25254,87.7502687 C140.647556,88.1935331 137.590858,93.3331723 137.315054,97.7715951 C137.214534,99.4113434 135.281824,101.966511 134.452748,102.92279 C134.449426,102.924441 134.443195,102.928981 134.438211,102.930632 L134.444856,102.942188 C134.444856,102.942188 133.40145,103.607911 132.299893,104.659116 C132.046518,104.918719 131.806435,105.186163 131.582551,105.455259 C131.060017,106.082598 130.615573,106.712825 130.260433,107.259271 C129.843403,108.071922 129.614535,108.947308 129.737899,109.842091 C131.636134,106.027705 134.108823,104.586477 135.697193,104.042921 C135.825542,104.001236 135.943922,103.96244 136.058979,103.930247 C136.188989,103.891451 136.321907,103.859259 136.45981,103.830368 C136.602696,103.798176 136.733953,103.773825 136.84278,103.756078 C136.885147,103.751125 136.932084,103.744935 136.974451,103.73668 C137.047141,103.730489 137.112354,103.722235 137.160952,103.717282 C138.436134,103.575718 140.006642,103.656199 141.644026,103.744935 C142.807473,103.807668 143.985458,103.872053 145.127722,103.859259 C146.299062,103.848115 147.429695,103.756078 148.461886,103.498126 C151.377359,102.77421 154.318999,100.13526 156.022841,98.379536 C156.022841,98.4261737 156.017857,98.479415 156.017857,98.5260527 C156.017857,104.570381 157.848387,108.318731 159.185043,110.258116 Z" id="path62" fill="#FCD43D"></path>
                        <path d="M104.022427,82.6236164 C103.519416,82.4645927 103.020974,82.2996519 102.537484,82.1236164 C103.108616,82.3055691 103.603736,82.4446223 104.007474,82.5511312 C104.012458,82.5740602 104.015781,82.6006874 104.022427,82.6236164" id="path64" fill="#FCD43D"></path>
                        <path d="M79.8043594,79.8647836 C79.8043594,80.2019783 79.8284508,80.5371093 79.8774643,80.8677004 C79.5642763,79.9989186 79.1713376,78.5849297 79.1713376,76.8952418 C79.1713376,75.4796021 79.4587727,73.8790624 80.2878485,72.2620138 C80.4647955,72.6730859 80.953269,73.7676272 81.3765296,74.2125425 C81.2353043,74.4704944 79.8043594,77.1659881 79.8043594,79.8647836" id="path66" fill="#FCD43D"></path>
                        <path d="M85.0857715,76.9406414 C85.0857715,76.9406414 85.9538919,78.1511578 86.4307351,78.2576404 C86.4307351,78.2576404 85.3486998,81.0868563 85.9991671,82.2882929 C85.9991671,82.2882929 84.4303198,80.0034585 85.0857715,76.9406414" id="path68" fill="#FCD43D"></path>
                        <path d="M90.0294889,80.1342917 C90.4091358,80.4970752 91.3241929,80.622543 91.3241929,80.622543 C90.9088243,81.1273032 90.9412231,82.3914736 90.9412231,82.3914736 C90.5648991,82.0270392 90.0294889,80.1342917 90.0294889,80.1342917" id="path70" fill="#FCD43D"></path>
                        <path d="M119.681409,81.5949183 C119.037173,82.2783875 112.574452,89.1143181 112.176944,89.5348828 C111.703424,89.5526299 92.5428845,90.2732442 83.1484922,90.626535 C82.1117321,90.6665692 81.1979211,90.7020633 80.4369658,90.7297158 L80.4647955,90.7136196 L69.9621997,91.1164372 L69.0550346,91.1519314 C69.0550346,91.1519314 69.1538924,91.1469787 69.9651073,91.2939081 C70.9470387,91.4680772 72.9736223,91.8614022 77.140185,92.7417402 C77.0882639,93.2526913 77.0492193,93.8895228 77.0492193,94.6278842 C77.0492193,98.2586082 78.0211819,104.18985 83.6319813,108.173452 C91.6618876,113.871093 101.9244,113.691971 107.469987,113.045647 C106.313185,117.498515 103.955553,119.217093 103.955553,119.217093 C105.333331,120.237757 106.433227,121.48872 107.312562,122.878359 C103.985044,124.160276 101.585044,125.15824 100.762614,125.501626 C100.647557,125.457877 98.158253,124.558141 94.2758024,123.154058 C96.2454805,122.789623 98.3368615,122.596469 100.556591,122.612565 C102.904255,122.631963 102.268326,116.621479 94.6974016,118.788274 C94.3763216,118.907551 94.0614722,119.03013 93.7466228,119.152708 C70.6741415,128.103432 66.1474542,143.980471 65.3881604,147.723869 L65.3653151,147.757712 C68.4386276,128.051841 88.8402885,118.124203 88.8402885,118.124203 C76.3675993,118.789925 72.0357199,113.701876 70.723155,108.750851 C70.000829,106.026054 70.1906525,103.345006 70.4485964,101.682971 C70.6076826,100.646211 70.7912755,100.004426 70.7912755,100.004426 C65.1268935,98.2586082 62.0701957,95.4405357 60.6488043,92.2175821 L60.6488043,92.219233 C60.6488043,92.219233 60.6342664,92.1886915 60.6130826,92.1337993 C60.0465198,90.8246421 59.7482851,89.4494491 59.6539964,88.0515564 C59.6539964,88.0515564 59.6556579,88.0515564 59.6589809,88.0515564 C59.6539964,88.0276185 59.652335,88.0016169 59.649012,87.977679 C59.6232592,87.5616543 59.6137057,87.1456295 59.6232592,86.726303 C59.6137057,86.7296048 59.6020754,86.7312556 59.5925219,86.7345574 C59.7723765,86.4716529 60.4149518,85.5624242 61.4159902,84.4550885 C62.3667689,83.4038831 63.6373816,82.1785086 65.1430929,81.1611465 C66.8922102,79.9778697 68.9545154,79.0748318 71.1904447,79.0587356 L71.1921062,79.0570848 C83.2830716,87.4118358 101.278502,85.2272931 105.312147,84.603256 C105.388575,84.6853879 105.46791,84.7646307 105.548907,84.8418099 C106.107162,85.3560627 106.759291,85.7283388 107.509032,85.9656545 C109.097401,86.4683511 111.116093,86.3474233 113.543092,85.5979184 C113.955553,85.470387 114.18899,85.0337261 114.057733,84.6243049 C113.929384,84.2132328 113.492832,83.9841716 113.079125,84.1129411 C110.087225,85.0370279 107.913185,84.9016547 106.618481,83.7051708 C105.372375,82.5540865 105.054203,80.5886997 105.054203,78.8862174 C105.054203,78.6026768 105.063756,78.3302796 105.079956,78.0657242 C105.930215,79.4508225 107.161783,80.9015437 108.647972,80.9015437 C110.202282,80.9015437 111.381929,80.4710736 112.156176,79.6245788 C113.092417,78.6010259 113.064587,77.3290137 113.050049,77.0789036 C113.035511,76.6744351 112.657526,67.8735305 107.307993,67.8735305 C105.609135,67.8735305 104.343507,68.6812293 103.451295,69.7014805 C103.691379,66.6609504 104.520454,64.7475667 105.914016,64.1330222 C108.722739,62.8981551 113.621181,66.6869519 115.57466,68.5182037 C115.568014,68.6118918 115.555137,68.6956746 115.555137,68.7955536 C115.555137,72.4972659 118.728969,79.5601941 119.681409,81.5949183" id="path72" fill="#FCD43D"></path>
                        <path d="M126.903424,130.691205 C126.903424,130.691205 126.390443,125.603156 122.908408,123.399215 C124.230942,122.036817 125.493247,120.908432 126.682448,119.979805 L131.707577,116.871176 C132.418273,116.547188 133.065417,116.303682 133.636549,116.123322 C131.874555,118.3739 127.489093,124.529251 126.903424,130.691205" id="path74" fill="#FCD43D"></path>
                        <path d="M77.6124591,69.9676868 C77.2261663,70.3870133 74.3867063,73.6289523 74.2795412,77.7190369 C74.1806835,77.1709408 74.0735184,76.3520984 74.0735184,75.3557852 C74.0735184,73.1567972 74.6089286,70.140205 76.9241933,67.5156996 C76.9860832,68.0266507 77.195429,69.4761337 77.6124591,69.9676868" id="path76" fill="#FCD43D"></path>
                        <path d="M65.7823452,100.08986 C65.7823452,100.08986 66.8045674,100.982992 68.7563846,101.492705 C68.7563846,101.492705 55.8704036,118.290117 63.4022829,147.723869 C63.4022829,147.723869 53.6976103,121.962526 65.7823452,100.08986" id="path78" fill="#FCD43D"></path>
                        <path d="M189.923983,89.0433297 C189.923983,89.0433297 190.783796,89.0433297 190.978604,89.0433297 C190.978604,88.8142685 190.978604,85.1286524 190.978604,85.1286524 L191.781927,85.1286524 C191.781927,85.1286524 191.781927,88.8142685 191.781927,89.0433297 C191.973412,89.0433297 192.836548,89.0433297 192.836548,89.0433297 L192.836548,89.7944855 L192.713183,89.7944855 L189.923983,89.7944855 L189.923983,89.0433297" id="path80" fill="#15366F"></path>
                        <path d="M193.496984,85.1286524 C193.496984,85.1286524 193.865,87.195569 193.967596,87.7696666 C194.209341,87.2215705 195.257316,84.8529534 195.257316,84.8529534 C195.257316,84.8529534 196.305291,87.2182687 196.548697,87.7663649 C196.650878,87.1906163 197.01931,85.1286524 197.01931,85.1286524 L197.843816,85.1286524 L196.831148,90.2699424 C196.831148,90.2699424 195.453785,87.1278824 195.257316,86.6846179 C195.062508,87.1278824 193.685146,90.2699424 193.685146,90.2699424 L193.607056,89.883221 L192.669569,85.1286524 L193.496984,85.1286524" id="path82" fill="#15366F"></path>
                        <path d="M38.0435297,38.5940963 C38.0435297,32.4016421 34.7952224,30.907131 30.1531872,29.6612442 L30.1531872,82.3720756 L32.2510895,81.6176181 C36.3496149,80.1404825 38.0435297,76.4375321 38.0435297,74.6302182 L38.0435297,38.5940963 Z M33.980726,85.802629 L18.1950982,92.7417402 L21.1578396,86.8104985 L21.0264169,58.9628416 L18.2908407,56.0609864 L21.1578396,52.9994074 L21.1578396,23.1524791 L18.1950982,19.5040494 L31.3911519,24.4683638 C43.8537891,28.2760221 45.8188981,32.8630664 45.8188981,36.5288718 L45.8188981,73.9384945 C45.8188981,80.8660495 41.83219,82.3927118 33.980726,85.802629 Z" id="path84" fill="#15366F"></path>
                        <path d="M53.3844223,16.4541092 L50.4722729,15.731844 L50.4722729,23.1913164 L53.3844223,23.9119719 L53.3844223,16.4541092 Z M52.8215978,24.4922192 L46.2861878,22.8785549 L46.2861878,22.1562897 L47.5563851,22.4706608 L47.5563851,14.9950509 L46.2861878,14.6821244 L46.2861878,13.9759966 L52.8215978,15.5948199 C55.5945988,16.2814259 56.3003101,16.6697982 56.3003101,17.4552925 L56.3003101,24.3535442 C56.3003101,25.1451469 55.5945988,25.1822094 52.8215978,24.4922192 Z" id="path86" fill="#15366F"></path>
                        <path d="M69.7038404,23.4654057 L66.7933524,23.1590827 L66.7933524,26.3094797 L69.7038404,26.6156376 L69.7038404,23.4654057 Z M72.6180667,22.4756547 C72.6180667,23.0476888 72.2467272,23.2495103 71.0687417,23.246126 C72.2467272,23.5008586 72.6180667,23.7683443 72.6180667,24.3408324 L72.6180667,26.6285145 C72.6180667,27.4106246 71.9173398,27.5537569 69.1410159,27.2637364 L62.6085135,26.5801847 L62.6085135,25.872406 L63.8774647,26.0031567 L63.8774647,18.517724 L62.6085135,18.3868083 L62.6085135,17.6806806 L66.7933524,18.1161033 L66.7933524,22.4513041 L69.7038404,22.7542427 L69.7038404,18.4222612 L73.8870179,18.8577252 L73.8870179,19.5655038 L72.6180667,19.4302132 L72.6180667,22.4756547 Z" id="path88" fill="#15366F"></path>
                        <path d="M86.5831754,25.1533601 L83.6706106,25.0019733 L83.6706106,28.1489859 L86.5831754,28.3019823 L86.5831754,25.1533601 Z M89.4974017,28.1601295 C89.4974017,28.9450873 88.7476613,29.1192151 86.0203509,28.9776511 L84.2338504,28.8889982 C81.5094476,28.7437197 80.7567996,28.4924127 80.7567996,27.7069184 L80.7567996,20.5102267 L79.4878485,20.4459244 L79.4878485,19.7379807 L83.6706106,19.9572604 L83.6706106,24.2924612 L86.5831754,24.4440131 L86.5831754,20.1086472 L90.7663529,20.3282159 L90.7663529,21.0340547 L89.4974017,20.9679365 L89.4974017,28.1601295 Z" id="path90" fill="#15366F"></path>
                        <path d="M101.779852,24.8567361 L103.283902,24.803371 L103.283902,21.1742979 L100.322739,21.2774787 L100.322739,28.7614668 L103.283902,28.6615053 L103.283902,27.049492 L105.962614,26.9558038 L105.962614,29.2773705 L100.932915,29.4498887 C98.1615759,29.5464659 97.408928,29.3594199 97.408928,28.5694681 L97.408928,21.6724546 C97.408928,20.8858871 98.1615759,20.647292 100.932915,20.5491052 L106.107162,20.3699834 L106.107162,25.4163059 L101.779852,25.5660831 L101.779852,24.8567361" id="path92" fill="#15366F"></path>
                        <path d="M119.376113,20.4392796 L116.415366,20.7488218 L116.415366,28.2344609 L119.376113,27.9249186 L119.376113,20.4392796 Z M118.763029,28.6953899 L117.023465,28.8757911 C114.25088,29.1679164 113.499478,29.0292415 113.499478,28.2455631 L113.499478,21.3435969 C113.499478,20.5585978 114.25088,20.2668027 117.023465,19.9766172 L118.763029,19.7958858 C121.53603,19.5040494 122.288678,19.6411147 122.288678,20.429787 L122.288678,27.3251496 C122.288678,28.113533 121.53603,28.4019439 118.763029,28.6953899 Z" id="path94" fill="#15366F"></path>
                        <path d="M138.932499,25.1179072 C138.932499,25.9044746 138.228449,26.2401422 135.452541,26.7299206 L128.9217,27.8733283 L128.9217,27.1637749 L130.190651,26.9447016 L130.190651,19.4574529 L128.9217,19.6799519 L128.9217,18.9704398 L133.106123,18.2402504 L133.106123,26.4336267 L136.02035,25.917723 L136.02035,17.7293406 L140.20145,16.9954779 L140.20145,17.7016056 L138.932499,17.9258793 L138.932499,25.1179072" id="path96" fill="#15366F"></path>
                        <path d="M151.720038,19.5622433 L149.370297,20.186363 L149.370297,23.3349852 L152.284524,22.5611297 L152.284524,20.9456907 L155.008927,20.2168219 L155.008927,22.541773 L149.933537,23.8924501 C147.209134,24.6180997 146.456486,24.6053878 146.456486,23.8170044 L146.456486,21.2436354 C146.456486,20.4554171 147.160536,20.0686544 149.933537,19.3286421 L152.284524,18.7029541 L152.284524,15.0771415 L149.370297,15.8493875 L149.370297,18.051636 L146.642987,18.7772855 L146.642987,15.8687029 L151.720038,14.5146414 C154.44901,13.7907666 155.200411,13.8050881 155.200411,14.5934715 L155.200411,17.6340841 C155.200411,18.4222612 154.44901,18.8349842 151.720038,19.5622433" id="path98" fill="#15366F"></path>
                        <path d="M78.3116741,64.8957342 C78.3116741,64.8957342 78.3530074,65.067983 78.4370074,65.3957342 C78.3583407,65.1529113 78.3116741,64.9890357 78.2903407,64.914873 L78.3116741,64.8957342" id="path100" fill="#15366F"></path>
                        <path d="M158.304046,92.0306186 C163.848386,93.9411132 165.766143,97.5474865 167.339975,100.525283 C168.146206,102.048643 168.840702,103.364404 169.885769,104.204295 C172.188158,106.058247 174.476008,106.814355 176.677877,106.454874 C178.798334,106.106535 180.453163,104.792838 181.516091,103.704488 C176.512145,104.220391 174.532498,101.050679 172.634264,97.9507168 C171.595842,96.2593781 170.521699,94.5069564 168.923776,93.2865346 C165.878293,90.9616661 161.237795,91.413185 158.304046,92.0306186 Z M169.877462,92.0533183 C170.958251,92.8787643 171.798542,93.8717757 172.538729,94.9213302 C173.051294,95.6485481 173.516922,96.4013548 173.972997,97.143018 C176.077254,100.580175 177.742052,103.296717 183.2731,101.810089 L185.204149,101.291297 L184.142882,102.974381 C184.031148,103.149788 181.389404,107.25308 176.942052,107.986489 C174.277877,108.428102 171.572997,107.562622 168.90093,105.413574 C167.604565,104.371861 166.802903,102.855104 165.952644,101.249199 C164.201865,97.9379224 162.215988,94.1829689 155.145167,92.7949815 L152.401242,92.256378 L155.029695,91.3000989 C155.169259,91.2501594 156.491793,90.7813061 158.370505,90.41357 C161.596258,89.783342 166.470193,89.4527509 169.877462,92.0533183 Z" id="path102" fill="#15366F"></path>
                        <path d="M155.906123,106.277815 C155.906123,106.277815 154.147037,105.011994 153.94766,104.625273 C153.94766,104.625273 152.77632,105.790802 152.678709,106.762765 C152.678709,106.762765 152.77632,103.554669 154.63551,101.220308 C154.63551,101.220308 154.340183,104.331827 155.906123,106.277815" id="path104" fill="#15366F"></path>
                        <path d="M124.633434,111.201188 C124.633434,111.201188 122.345584,115.415502 124.105916,117.553407 C124.105916,117.553407 117.142261,121.235721 113.35493,131.269842 C113.35493,131.269842 114.446934,121.73718 119.799789,117.651635 C119.799789,117.651635 114.22305,120.37313 108.255449,119.207601 C108.255449,119.207601 115.496986,118.04042 118.725646,114.054754 C118.725646,114.054754 112.451503,110.488828 111.082033,106.016562 C111.082033,106.016562 117.145168,113.032852 124.633434,111.201188" id="path106" fill="#15366F"></path>
                        <path d="M160.802904,31.9889192 L157.60498,28.5001306 L159.310069,47.9819342 L158.078501,47.9819342 L154.992727,42.470019 C153.516092,40.2388799 151.788158,37.4802396 149.196673,36.0423127 C147.963859,35.3555417 146.485562,36.0294358 144.879332,36.0294358 L142.537899,36.0294358 L142.537899,54.9759377 C145.622426,54.9759377 147.347037,54.9759377 149.321699,51.0967545 L151.047971,47.806527 L152.277878,47.806527 L152.277878,64.8569383 L151.047971,64.8569383 L149.321699,61.2423105 C147.595427,57.6309845 145.252333,57.6309845 142.537899,57.6309845 L142.537899,77.285265 L144.879332,77.4594341 C147.780266,77.461085 151.314223,78.8007838 153.516092,75.0557356 L157.088677,69.5306132 L158.445271,69.5306132 L157.788158,76.0730977 C158.47767,75.5394469 158.782966,74.6541561 159.157628,73.5517731 C159.499892,72.5488563 159.887846,71.4105663 160.679539,70.4658434 C160.718584,70.4208566 160.762197,70.3754571 160.802904,70.3321212 L160.802904,31.9889192 Z M134.279124,59.2624784 L131.421804,55.8368778 L134.279124,52.6737689 L134.279124,37.0352829 L132.473517,35.0459995 L129.645272,37.8479757 L121.610381,58.643394 L127.622011,73.9384945 L131.945999,77.6241106 L134.279124,74.6302182 L134.279124,59.2624784 Z M116.197713,60.2769515 L114.390444,65.5082151 C115.826373,66.5804694 116.817443,67.5379867 116.926269,67.6411674 L117.20872,67.9185173 L117.151814,68.3085405 C116.916716,69.9371453 117.940184,73.2195311 119.089094,76.2018673 L120.839872,73.7271803 L116.197713,60.2769515 Z M105.914016,64.1330222 C104.520454,64.7475667 103.691379,66.6609504 103.451295,69.7014805 C104.343507,68.6812293 105.609135,67.8735305 107.307993,67.8735305 C112.657526,67.8735305 113.035511,76.6744351 113.050049,77.0789036 C113.064587,77.3290137 113.092417,78.6010259 112.156176,79.6245788 C111.381929,80.4710736 110.202282,80.9015437 108.647972,80.9015437 C107.161783,80.9015437 105.930215,79.4508225 105.079956,78.0657242 C105.063756,78.3302796 105.054203,78.6026768 105.054203,78.8862174 C105.054203,80.5886997 105.372375,82.5540865 106.618481,83.7051708 C107.913185,84.9016547 110.087225,85.0370279 113.079125,84.1129411 C113.492832,83.9841716 113.929384,84.2132328 114.057733,84.6243049 C114.18899,85.0337261 113.955553,85.470387 113.543092,85.5979184 C111.116093,86.3474233 109.097401,86.4683511 107.509032,85.9656545 C106.759291,85.7283388 106.107162,85.3560627 105.548907,84.8418099 C105.46791,84.7646307 105.388575,84.6853879 105.312147,84.603256 C101.278502,85.2272931 83.2830716,87.4118358 71.1921062,79.0570848 L71.1904447,79.0587356 C68.9545154,79.0748318 66.8922102,79.9778697 65.1430929,81.1611465 C63.6373816,82.1785086 62.3667689,83.4038831 61.4159902,84.4550885 C60.4149518,85.5624242 59.7723765,86.4716529 59.5925219,86.7345574 C59.6020754,86.7312556 59.6137057,86.7296048 59.6232592,86.726303 C59.6137057,87.1456295 59.6232592,87.5616543 59.649012,87.977679 C59.652335,88.0016169 59.6539964,88.0276185 59.6539964,88.0515564 C59.9800608,92.9270529 62.7837991,97.536343 70.7912755,100.004426 C70.7912755,100.004426 70.6076826,100.646211 70.4485964,101.682971 C70.1906525,103.345006 70.000829,106.026054 70.723155,108.750851 C72.0357199,113.701876 76.3675993,118.789925 88.8402885,118.124203 C88.8402885,118.124203 68.4386276,128.051841 65.3653151,147.757712 C65.3379008,147.935183 65.3084096,148.111003 65.2843182,148.288474 C65.25815,148.451087 65.2485965,148.53652 65.2485965,148.53652 C65.25815,148.452738 65.2714418,148.372257 65.2843182,148.288474 C65.305502,148.154339 65.3395622,147.962835 65.3881604,147.723869 C66.1474542,143.980471 70.6741415,128.103432 93.7466228,119.152708 C94.0614722,119.03013 94.3763216,118.907551 94.6974016,118.788274 C102.268326,116.621479 102.904255,122.631963 100.556591,122.612565 C98.3368615,122.596469 96.2454805,122.789623 94.2758024,123.154058 C98.158253,124.558141 100.647557,125.457877 100.762614,125.501626 C101.585044,125.15824 103.985044,124.160276 107.312562,122.878359 C106.433227,121.48872 105.333331,120.237757 103.955553,119.217093 C103.955553,119.217093 106.313185,117.498515 107.469987,113.045647 C101.9244,113.691971 91.6618876,113.871093 83.6319813,108.173452 C78.0211819,104.18985 77.0492193,98.2586082 77.0492193,94.6278842 C77.0492193,93.8895228 77.0882639,93.2526913 77.140185,92.7417402 C72.9736223,91.8614022 70.9470387,91.4680772 69.9651073,91.2939081 C69.1538924,91.1469787 69.0550346,91.1519314 69.0550346,91.1519314 L69.9621997,91.1164372 L80.4647955,90.7136196 L80.4369658,90.7297158 C81.1979211,90.7020633 82.1117321,90.6665692 83.1484922,90.626535 C92.5428845,90.2732442 111.703424,89.5526299 112.176944,89.5348828 C112.574452,89.1143181 119.037173,82.2783875 119.681409,81.5949183 C118.728969,79.5601941 115.555137,72.4972659 115.555137,68.7955536 C115.555137,68.6956746 115.568014,68.6118918 115.57466,68.5182037 C113.621181,66.6869519 108.722739,62.8981551 105.914016,64.1330222 Z M106.336031,77.1127468 C107.052957,78.3026272 107.934369,79.3459908 108.647972,79.3459908 C109.733746,79.3459908 110.520454,79.090928 110.984421,78.5915332 C111.516923,78.0240392 111.494078,77.2757724 111.487432,77.1936405 L106.336031,77.1127468 Z M90.0294889,80.1342917 C90.0294889,80.1342917 90.5648991,82.0270392 90.9412231,82.3914736 C90.9412231,82.3914736 90.9088243,81.1273032 91.3241929,80.622543 C91.3241929,80.622543 90.4091358,80.4970752 90.0294889,80.1342917 Z M85.0857715,76.9406414 C84.4303198,80.0034585 85.9991671,82.2882929 85.9991671,82.2882929 C85.3486998,81.0868563 86.4307351,78.2576404 86.4307351,78.2576404 C85.9538919,78.1511578 85.0857715,76.9406414 85.0857715,76.9406414 Z M80.2878485,72.2620138 C79.4587727,73.8790624 79.1713376,75.4796021 79.1713376,76.8952418 C79.1713376,78.5849297 79.5642763,79.9989186 79.8774643,80.8677004 C79.8284508,80.5371093 79.8043594,80.2019783 79.8043594,79.8647836 C79.8043594,77.1659881 81.2353043,74.4704944 81.3765296,74.2125425 C80.953269,73.7676272 80.4647955,72.6730859 80.2878485,72.2620138 Z M76.9241933,67.5156996 C74.6089286,70.140205 74.0735184,73.1567972 74.0735184,75.3557852 C74.0735184,76.3520984 74.1806835,77.1709408 74.2795412,77.7190369 C74.3867063,73.6289523 77.2261663,70.3870133 77.6124591,69.9676868 C77.195429,69.4761337 76.9860832,68.0266507 76.9241933,67.5156996 Z M63.4022829,147.723869 C55.8704036,118.290117 68.7563846,101.492705 68.7563846,101.492705 C66.8045674,100.982992 65.7823452,100.08986 65.7823452,100.08986 C53.6976103,121.962526 63.4022829,147.723869 63.4022829,147.723869 Z M88.3015554,131.867878 C89.5929365,131.079577 96.3800599,126.937902 96.3800599,126.937902 L96.7954285,127.552034 C96.7954285,127.552034 100.048596,132.313206 100.851919,133.486577 C101.818897,132.612843 107.199167,127.742299 108.930423,126.17519 C108.687017,125.521024 108.409551,124.880891 108.094701,124.258504 L108.09304,124.260155 C104.96656,125.59325 100.743092,127.392723 100.743092,127.392723 C100.743092,127.392723 96.4124586,125.814057 91.1734141,123.902324 C89.3092397,124.458262 87.5634454,125.175988 85.9376926,126.020419 C86.8282429,128.221058 87.9705066,131.055639 88.3015554,131.867878 Z M113.726685,103.711091 C114.292832,104.165499 114.890132,104.609177 115.509862,105.040885 C116.668325,104.049524 117.585044,103.588513 117.585044,103.588513 C117.072479,103.73214 114.828242,103.723886 113.726685,103.711091 Z M104.635511,110.845008 C105.420973,107.768984 106.796674,105.73591 107.906539,104.504345 C107.84008,103.917453 107.745792,103.30167 107.640703,102.67268 C106.981929,102.49067 106.425335,102.298753 106.425335,102.298753 C104.39709,104.990945 104.635511,110.845008 104.635511,110.845008 Z M96.8066435,110.359646 C96.8066435,110.359646 99.8508802,102.987175 104.002905,101.008994 C104.002905,101.008994 102.474348,100.510837 100.78546,99.2450161 C100.78546,99.2450161 97.9459996,103.330561 96.8066435,110.359646 Z M93.7403923,93.4107642 C93.7403923,93.4107642 92.9923134,92.707897 92.3173393,91.8387024 L89.038004,91.962932 C86.5752834,94.5535941 82.9570073,98.970968 83.0429886,102.485717 C83.0429886,102.485717 87.4787102,94.1891597 93.7403923,93.4107642 Z M89.336654,107.896102 C89.336654,107.896102 93.4483881,99.5483675 98.6388345,97.9152227 C98.6388345,97.9152227 96.6479727,97.0559334 95.631981,95.3551021 C95.631981,95.3551021 90.9395616,98.7761628 89.336654,107.896102 Z M139.54766,80.0183166 L131.195012,78.5865806 L131.201243,78.579977 L119.63115,77.5675676 C120.276633,79.1425184 120.903008,80.5342203 121.323361,81.4079548 L121.553891,81.8883643 L120.043195,83.484364 L112.878086,91.0648468 L94.8515033,91.7437761 C99.2211813,95.9741865 103.371545,98.3535345 106.824504,99.6692953 C106.894286,99.6948841 106.962406,99.7192348 107.028865,99.7435854 C106.563237,97.8537269 105.9352,95.811161 105.089925,93.5865842 C105.089925,93.5865842 106.903839,97.0509808 110.5271,100.789838 C113.528554,101.466704 116.100516,101.494356 117.985875,101.331331 C118.461056,101.270248 118.890963,101.204212 119.277256,101.141065 C119.877463,98.9065832 121.083278,97.3039799 121.962614,96.3753533 C122.14413,96.0290787 122.338938,95.6774387 122.564483,95.3257988 C125.07954,91.4020415 128.321492,90.6698709 131.454618,89.962051 C133.112769,89.588124 134.824503,89.1997517 136.412873,88.3243663 C137.399374,87.7808102 138.082655,86.9458716 138.557837,85.9895925 C139.528138,84.0390637 139.617442,81.5755203 139.54766,80.0183166 Z M112.61682,134.710301 C121.538938,117.983877 132.251295,114.870708 134.18982,114.433634 L134.233849,114.456334 C136.745583,113.94043 139.119415,113.582599 141.234887,113.443924 C140.337691,112.550792 137.803527,110.034007 137.803527,110.034007 L140.006642,110.268021 C143.104046,110.59366 151.557629,110.774019 153.48037,107.712441 L154.147037,106.653393 L154.812457,107.719044 C154.869363,107.80778 156.039041,109.569694 159.185043,110.258116 C157.848387,108.318731 156.017857,104.570381 156.017857,98.5260527 C156.017857,98.479415 156.022841,98.4261737 156.022841,98.379536 C154.318999,100.13526 151.377359,102.77421 148.461886,103.498126 C147.429695,103.756078 146.299062,103.848115 145.127722,103.859259 C143.985458,103.872053 142.807473,103.807668 141.644026,103.744935 C139.305916,103.617403 137.089509,103.496475 135.697193,104.042921 C134.108823,104.586477 131.636134,106.027705 129.737899,109.842091 C129.614535,108.947308 129.843403,108.071922 130.260433,107.259271 C130.615573,106.712825 131.060017,106.082598 131.582551,105.455259 C131.806435,105.186163 132.046518,104.918719 132.299893,104.659116 C133.40145,103.607911 134.444856,102.942188 134.444856,102.942188 L134.438211,102.930632 C134.443195,102.928981 134.449426,102.924441 134.452748,102.92279 C135.281824,101.966511 137.214534,99.4113434 137.315054,97.7715951 C137.590858,93.3331723 140.647556,88.1935331 148.25254,87.7502687 C147.509446,85.7044009 145.346621,80.8726531 141.082447,79.4198682 C141.113184,79.8280513 141.141014,80.2969046 141.141014,80.8532551 C141.141014,83.6164354 140.540806,87.8262097 137.173828,89.683463 C135.388989,90.6698709 133.565521,91.080943 131.80145,91.4775698 C128.719,92.1742462 126.053164,92.7772344 123.887017,96.1628009 C122.614743,98.1455221 122.159083,100.027126 122.159083,101.71021 C122.159083,105.855187 124.930423,108.774789 125.092416,108.944006 C125.141015,108.992707 125.175075,109.044298 125.207474,109.097539 C125.230319,109.139224 125.24818,109.179671 125.264379,109.223007 C125.139353,109.25685 125.01142,109.286153 124.883071,109.315044 C124.740184,109.345585 124.599374,109.379429 124.458148,109.40543 C116.149114,110.912694 108.781306,100.975151 108.781306,100.975151 C113.35493,112.305634 107.478294,118.873708 107.478294,118.873708 C115.05711,124.066588 112.61682,134.710301 112.61682,134.710301 Z M126.903424,130.691205 C127.489093,124.529251 131.874555,118.3739 133.636549,116.123322 C133.065417,116.303682 132.418273,116.547188 131.707577,116.871176 L126.682448,119.979805 C125.493247,120.908432 124.230942,122.036817 122.908408,123.399215 C126.390443,125.603156 126.903424,130.691205 126.903424,130.691205 Z M150.423672,94.1879215 C151.568844,95.1986801 152.205188,96.2205822 152.245479,97.2346425 C152.247141,97.2717876 152.248802,97.3105835 152.248802,97.3477286 C152.248802,98.4922094 151.514015,99.1744404 151.481201,99.2049819 L151.25441,99.4129943 L151.143921,99.124501 C150.598542,97.7022576 149.629903,97.6217766 149.188781,97.6622235 C149.386497,98.0955826 149.492,98.4971621 149.492,98.8455002 C149.492,100.183548 148.330214,100.873621 148.314015,100.881463 L148.216819,100.939657 C148.216819,100.939657 146.247141,99.9627413 145.945168,99.811272 C145.77819,100.098114 144.746414,101.893872 144.746414,101.893872 C144.746414,101.893872 143.459602,100.854223 143.172167,100.623511 C143.003527,100.891368 142.5055,101.673065 142.29117,102.011911 C142.945375,102.151824 143.561782,102.243861 144.157421,102.297102 C145.568844,102.329295 146.927099,102.276054 148.083901,101.98756 C148.168221,101.968162 148.25254,101.96486 148.331876,101.971464 C152.461471,100.855874 154.409965,97.6651125 154.724814,97.1009202 C153.93146,95.0340036 151.580474,94.379425 150.423672,94.1879215 Z M139.185874,97.3539194 C139.499062,97.5412957 140.16739,97.3332833 140.652541,97.1025711 C140.08307,96.5817148 139.77819,96.043524 139.77819,95.493777 C139.77819,95.474379 139.779851,95.454981 139.779851,95.4355831 C139.813911,94.5424506 140.602281,93.9910527 140.638003,93.9683529 L140.813288,93.8457742 L140.931668,94.024896 C141.574244,95.0001603 142.435718,94.9601262 142.872271,94.8664381 C142.414534,94.3005949 142.17279,93.688114 142.17279,93.0351863 C142.17279,92.9786432 142.174451,92.9237511 142.174451,92.867208 C142.223049,92.0644619 142.602696,91.3504511 142.995635,90.8101967 C140.125438,92.569222 139.250671,95.398438 138.987743,96.9721507 C139.007265,97.1574633 139.073724,97.2878838 139.185874,97.3539194 Z M158.784212,82.2688949 L160.802904,80.0228565 L160.802904,79.386025 C160.316092,79.5878465 159.811419,79.7087743 159.287223,79.7376649 C158.620557,79.77481 158.000827,79.6617239 157.445894,79.4797131 L157.14226,82.5107506 C157.641948,82.4075698 158.187327,82.3365815 158.784212,82.2688949 Z M154.01578,87.7502687 C155.646517,87.1311842 158.067286,86.252497 158.953267,86.1575707 C165.370297,85.4592435 169.050048,86.6231222 171.738729,87.4729188 C173.874139,88.1485463 175.330837,88.588509 177.211626,87.8938962 C175.777358,87.0535923 173.774866,85.4559417 173.275177,82.8896302 C173.199165,82.4946544 173.16012,82.0930749 173.16012,81.6869555 C173.16012,79.0170506 174.814949,76.0586524 178.076423,72.865002 C176.458563,72.8728438 173.99875,73.3115683 172.403734,75.6071335 C169.350359,79.9972677 167.275178,81.8140742 164.169466,82.8070857 C162.120453,83.4649661 160.468532,83.6473896 159.136445,83.7939063 C156.527514,84.0823996 155.274762,84.2276781 154.01578,87.7502687 Z M162.026164,76.4713754 C162.396258,76.0037602 162.582758,75.3136874 162.798334,74.514243 C163.173412,73.1402883 163.658563,71.396121 165.404357,69.8966985 C164.137068,70.0531205 162.725645,70.457589 161.881616,71.4621567 C161.275178,72.1844219 160.953682,73.1324465 160.640494,74.0515806 C160.121284,75.5749411 159.527306,77.2369765 157.629072,77.8853642 C158.099685,78.0785186 158.635095,78.2171935 159.209549,78.1833502 C160.220141,78.1239181 161.166351,77.5481696 162.026164,76.4713754 Z M178.925021,67.3460705 L174.360536,28.5922091 L169.186289,30.0917142 L169.186289,68.4443263 L171.044232,68.6845311 L169.186289,69.5017226 L169.186289,77.304663 C169.78525,76.576207 170.417857,75.7247595 171.112353,74.7234936 C174.216403,70.2594819 179.811003,71.437806 180.049424,71.4893964 L181.535613,71.8183366 L180.398334,72.827857 C176.226787,76.5324584 174.294077,79.9052305 174.811626,82.5862789 C175.421802,85.7431969 179.226579,87.156773 179.265624,87.1716311 L180.808718,87.7292198 L179.401865,88.5674601 C176.155343,90.5023054 173.99875,89.8188362 171.264793,88.9545943 C168.566559,88.1002577 165.212872,87.039147 159.123568,87.703631 C158.456486,87.7758575 156.121699,88.6095579 154.25254,89.3268704 C153.822634,89.489896 153.41848,89.6479689 153.066663,89.7895328 L151.585043,90.3797267 L152.023257,88.8530644 C152.029903,88.8287138 152.037795,88.8064267 152.044441,88.7820761 C153.154306,84.9610868 154.311107,83.4988093 156.009965,82.836389 L146.265002,81.1694009 C148.953267,84.209931 150.00955,88.0420638 150.074763,88.2855703 L150.082655,88.3210645 L150.336029,89.2624856 L149.318376,89.2624856 C147.244856,89.2624856 145.583382,89.6108238 144.249633,90.1667616 L144.322738,90.2831495 C144.3082,90.2959439 142.891793,91.493666 142.813704,92.9076549 C142.773413,93.5527409 143.013496,94.1363312 143.54226,94.692269 L143.964275,95.1293426 L143.402696,95.3695474 C142.839872,95.6147048 141.635718,95.7290291 140.723984,94.7504629 C140.576113,94.924632 140.423673,95.1693768 140.414119,95.4644737 C140.414119,95.474379 140.414119,95.4822208 140.414119,95.4921261 C140.414119,95.9143417 140.706123,96.3625589 141.285562,96.8235704 L141.770298,97.2123554 L141.230318,97.5202468 C140.972374,97.6651125 139.667702,98.3584871 138.876009,97.9053173 C138.773828,99.3065118 137.855448,100.936355 137.005189,102.168333 C138.33063,102.021403 139.852541,102.08909 141.436341,102.176175 L143.016403,99.6853915 C143.016403,99.6853915 144.12793,100.580175 144.566144,100.936355 C144.876009,100.397751 145.690547,98.9792225 145.690547,98.9792225 C145.690547,98.9792225 147.803112,100.027126 148.173205,100.212439 C148.43281,100.006077 148.856071,99.5628128 148.856071,98.8549929 C148.856071,98.5260527 148.763444,98.1409821 148.521699,97.6960668 L148.26874,97.2362934 L148.773413,97.0881258 C149.383589,96.910655 150.603527,96.9816433 151.396881,98.2280667 C151.50903,97.9990054 151.612873,97.712163 151.612873,97.3460777 C151.612873,97.3138853 151.612873,97.280042 151.60955,97.2461987 C151.564275,96.2932214 150.839041,95.2519213 149.513184,94.2312574 L148.447348,93.4107642 L149.797296,93.4734981 C149.973828,93.4834034 154.1001,93.7203064 155.313807,96.8557628 C155.906123,96.2205822 156.264586,95.787223 156.275801,95.7740159 L157.846725,93.849076 L157.664794,96.3192229 C156.923361,106.445381 161.53146,110.675791 161.580058,110.717476 L163.226995,112.184707 L161.020141,112.074922 C157.205811,111.884657 155.096569,110.319612 154.130837,109.329489 C151.447141,111.978345 145.2947,112.115369 141.961783,111.965551 C142.782966,112.781091 144.944129,114.928489 144.944129,114.928489 L143.055448,114.928489 C140.934991,114.928489 138.424919,115.238031 135.7055,115.755586 C133.518169,118.575309 127.29927,127.549145 127.419311,138.142918 C127.419311,138.142918 125.728346,126.607311 121.720869,124.677831 C118.095947,128.720865 114.112977,134.560482 110.139146,143.001905 C110.139146,143.001905 111.542676,135.01035 109.465833,127.797191 L100.569468,135.845289 L100.061472,135.103626 C100.061472,135.103626 96.6155739,130.056024 95.922739,129.041964 C94.8369654,129.702733 87.5406001,134.157252 87.5406001,134.157252 C87.5406001,134.157252 85.5547227,129.248325 84.5565919,126.784782 C69.6814105,135.510158 65.1464158,154.885438 65.1464158,154.885438 C39.601162,132.742025 29.6680366,113.082792 27.954641,96.5965728 C27.9108197,95.8338607 27.9059598,95.1776312 27.9319204,94.6035336 C34.0602276,92.4350871 40.222595,90.6587274 46.2326053,89.1964499 C46.2031141,89.4783397 46.1628234,89.7767384 46.0976105,90.1122822 C37.9007675,118.619058 63.8546194,152.223787 63.8546194,152.223787 C44.0290747,122.512273 43.5293862,102.363138 48.2575274,89.5059922 C48.304464,89.214197 48.3871224,88.9302436 48.4992719,88.6578465 C52.2571119,87.7874137 55.946416,87.0329561 59.5144326,86.389521 C59.4949102,85.8509176 59.4903412,84.8273646 59.64112,83.503762 C60.2072674,78.5027978 62.9852528,69.2132292 75.5028019,65.5664091 C75.6992712,65.509866 75.897402,65.4566248 76.096779,65.4004944 C76.7979212,65.21188 77.5248163,65.0393618 78.2857717,64.8858289 C78.2857717,64.8858289 78.2874331,64.8924325 78.2903407,64.9023378 C78.2969866,64.9279266 78.3115245,64.9844697 78.3360313,65.0682524 C78.6944944,66.291976 81.1738297,73.4242417 91.3972978,78.4479057 C94.395844,79.9229775 98.0627182,81.2160386 102.537484,82.1236164 C103.020974,82.2218445 103.519416,82.3138817 104.022427,82.4026171 C104.015781,82.3898227 104.012458,82.3749647 104.007474,82.3621703 C103.392728,80.5519673 103.435096,78.499496 103.585875,77.0694109 L99.9073703,77.0095661 L99.8978168,77.1049051 L91.7528534,77.4416871 C90.7435076,77.0244241 89.2199355,76.3021589 87.543923,75.1894578 L87.6913789,75.1894578 C91.2677028,75.1894578 92.8689489,74.8753756 96.3202468,69.453434 L99.8978168,63.9316134 L101.254411,63.9316134 L99.9692602,76.400387 L104.215158,73.4663394 L104.395428,73.0631091 L104.440704,72.8633512 L104.458564,72.9132906 L105.862095,69.74688 C104.019104,70.6189636 103.403943,72.9921207 103.373206,73.1146994 L101.830112,72.9582774 C101.611212,67.1801559 102.7406,63.8267817 105.283071,62.7095407 C106.422012,62.2097332 107.716716,62.2646253 109.018066,62.6290597 L110.781721,58.643394 L102.74683,38.6618241 L100.614743,37.1046204 L102.119208,49.5878393 L100.884317,49.5878393 L97.8014513,44.9174662 C96.3202468,42.6858731 94.5935594,39.9243437 92.0074743,38.4893059 C90.7725834,37.7996046 89.2930403,37.6398395 87.6913789,37.6398395 L85.3486998,37.6398395 L85.3486998,55.009781 C88.4311504,55.009781 90.1545149,55.009781 92.1308388,51.1289469 L93.8554494,47.8354176 L95.0870174,47.8354176 L95.0870174,64.8858289 L93.8554494,64.8858289 L92.1308388,61.2761538 C90.4012438,57.6631769 88.0598109,57.6631769 85.3486998,57.6631769 L85.3486998,73.5530112 C82.7867061,71.396121 80.2471423,68.3101914 78.929593,64.0203488 L77.084941,64.4619624 L77.084941,59.4754435 L74.2292816,56.0477792 L77.084941,52.8863213 L77.084941,38.0943301 L75.2286586,35.5875333 L73.6191051,37.1466768 L73.6191051,51.1821881 C73.6191051,55.1695047 69.0566961,56.0155868 65.2340586,56.6024789 C68.6882641,57.1328279 73.6191051,57.9293832 73.6191051,62.1791917 L73.6191051,65.8016612 C70.1470387,66.7207952 67.400206,68.0299525 65.2340586,69.5516621 L65.2340586,61.6488426 C65.2340586,58.93684 63.5077866,58.0358658 59.3133942,58.0358658 L57.4654191,58.0358658 L57.4654191,76.1535787 L59.3133942,75.770159 C59.4072675,75.770159 59.4949102,75.7569519 59.585876,75.755301 C58.6708189,77.3983511 58.0980255,79.0265433 57.7412239,80.4937734 L45.9970913,82.9441097 L49.0816187,77.9353037 L49.0816187,59.4754435 L46.2242979,56.0477792 L49.0816187,52.8817813 L49.0816187,32.9707458 L45.9970913,28.741945 C53.4172365,30.907131 60.5495312,31.8552795 60.5495312,31.8552795 L57.4654191,35.0327511 L57.4654191,55.2726855 L59.6830722,55.2726855 C63.7541002,55.2726855 65.2340586,54.3696476 65.2340586,52.5656355 L65.2340586,32.6583146 C68.318586,33.4660134 76.7019711,34.1607087 76.7019711,34.1607087 L76.5918984,34.2638895 C83.4159896,34.9877643 94.5790215,35.1846331 98.7522301,35.2346139 L115.796882,34.9700585 L112.772583,38.397764 L116.001243,53.2169124 L119.617858,38.397764 L116.556176,34.9118645 L133.419311,33.3062483 C142.143714,31.8889577 155.833018,28.6776428 157.42471,28.3019823 L157.385666,28.2633102 C163.867909,27.2780992 180.526268,20.6649978 180.526268,20.6649978 L180.480992,67.3460705 L178.925021,67.3460705 Z" id="path108" fill="#15366F"></path>
                        <path d="M133.863756,112.002696 C135.263963,111.691503 137.313392,112.589588 137.313392,112.589588 C135.501139,112.424911 133.789405,112.677911 132.319415,113.084443 C129.458771,113.872744 127.508616,115.236793 127.508616,115.236793 C128.361783,114.253274 129.78982,113.277597 131.233642,112.442658 C133.625334,111.064164 136.070609,110.069501 136.070609,110.069501 L133.863756,112.002696" id="path110" fill="#15366F"></path>
                        <path d="M65.3632632,148.288474 C65.3219298,148.457359 65.2792632,148.619589 65.2485965,148.788474 C65.2485965,148.788474 65.2792632,148.616261 65.3632632,148.288474" id="path112" fill="#15366F"></path>
                    </g>
                </g>
            </g>
        </g>
    </g>
</svg>