<?xml version="1.0" encoding="UTF-8"?>
<svg width="200px" height="200px" viewBox="0 0 200 200" version="1.1" xmlns="http://www.w3.org/2000/svg" xmlns:xlink="http://www.w3.org/1999/xlink">
    <!-- Generator: Sketch 51.3 (57544) - http://www.bohemiancoding.com/sketch -->
    <title>duke</title>
    <desc>Created with Sketch.</desc>
    <defs></defs>
    <g id="duke" stroke="none" stroke-width="1" fill="none" fill-rule="evenodd">
        <g id="duke_BGL" transform="translate(-2.040816, 15.306122)" fill="#1C4F9C">
            <g id="duke">
                <g id="g10" transform="translate(101.138167, 84.204509) scale(-1, 1) rotate(-180.000000) translate(-101.138167, -84.204509) translate(0.000000, 0.661387)" fill-rule="nonzero">
                    <g id="g12" transform="translate(0.000000, 3.132867)">
                        <path d="M143.256982,162.00334 L0,162.00334 L21.9523181,125.457402 L21.9523181,36.8968196 L0,0.346736588 L148.256346,0.437840101 C181.794111,0.437840101 182.649601,22.5310925 182.649601,39.7957659 C182.649601,46.8802226 182.649601,129.191431 182.649601,131.217352 C182.649601,139.533721 180.367714,162.00334 143.256982,162.00334 M118.82793,36.8968196 L98.2567755,2.64063794 L77.6817848,36.8968196 L77.6817848,125.45218 L98.2567755,159.708341 L118.82793,125.457402 L118.82793,36.8968196" id="path14"></path>
                        <path d="M192.712848,10.7216457 C193.666686,10.7216457 194.513805,10.6468398 194.513805,9.6433477 C194.513805,8.56915721 193.039978,8.7472781 191.960938,8.7472781 L190.7417,8.7472781 L190.7417,10.7216457 L192.712848,10.7216457 Z M193.543925,7.59692413 C194.606573,7.63093314 195.666432,8.20609272 195.666432,9.76573837 C195.666432,11.4355217 194.368027,11.8665346 192.930819,11.8665346 L189.586284,11.8665346 L189.586284,3.93648226 L190.7417,3.93648226 L190.7417,7.59692413 L192.213086,7.59692413 L194.245615,3.93648226 L195.555877,3.93648226 L193.543925,7.59692413 Z M192.320502,0.904235937 C196.275353,0.904235937 199.406102,4.02757908 199.406102,7.96134619 C199.406102,11.8910406 196.275353,15.0116546 192.320502,15.0116546 C188.362861,15.0116546 185.23804,11.8910406 185.23804,7.96134619 C185.23804,4.02757908 188.362861,0.904235937 192.320502,0.904235937 Z M192.320502,13.8626582 C195.555877,13.8626582 198.254871,11.2954477 198.254871,7.96134619 C198.254871,4.63946282 195.555877,2.055944 192.320502,2.055944 C189.086522,2.055944 186.387528,4.63946282 186.387528,7.96134619 C186.387528,11.2954477 189.086522,13.8626582 192.320502,13.8626582 Z" id="path16"></path>
                    </g>
                </g>
            </g>
        </g>
    </g>
</svg>