<svg width="200" height="200" xmlns="http://www.w3.org/2000/svg"><g fill-rule="nonzero" fill="#1C4F9C"><path d="M140.434 20.565H0l21.52 35.893v86.98L0 179.334l145.335-.09c32.877 0 33.716-21.699 33.716-38.655V50.801c0-8.168-2.237-30.236-38.617-30.236m-23.948 122.872-20.165 33.645-20.17-33.645V56.463l20.17-33.644 20.165 33.64v86.978M188.916 169.145c.935 0 1.765.073 1.765 1.06 0 1.054-1.445.88-2.503.88h-1.195v-1.94h1.933Zm.814 3.069c1.042-.033 2.08-.598 2.08-2.13 0-1.64-1.272-2.063-2.68-2.063h-3.28v7.788h1.133v-3.595h1.443l1.992 3.595h1.285l-1.973-3.595Zm-1.2 6.573c3.878 0 6.947-3.067 6.947-6.931 0-3.86-3.07-6.924-6.946-6.924-3.88 0-6.943 3.065-6.943 6.924 0 3.864 3.063 6.931 6.943 6.931Zm0-12.727c3.173 0 5.818 2.521 5.818 5.796 0 3.263-2.645 5.8-5.817 5.8-3.17 0-5.816-2.537-5.816-5.8 0-3.275 2.646-5.796 5.816-5.796Z"/></g></svg>