<svg width="200" height="200" xmlns="http://www.w3.org/2000/svg"><path d="M141.216 17.918H-2.04l21.953 36.545v88.561l-21.953 36.55 148.257-.091c33.537 0 34.393-22.093 34.393-39.358V48.704c0-8.317-2.282-30.786-39.393-30.786m-24.429 125.106L96.216 177.28l-20.575-34.256V54.47l20.575-34.256 20.571 34.25v88.561m73.885 26.175c.954 0 1.801.074 1.801 1.078 0 1.074-1.474.896-2.553.896h-1.22v-1.975h1.972zm.831 3.124c1.063-.034 2.123-.61 2.123-2.169 0-1.67-1.299-2.1-2.736-2.1h-3.345v7.93h1.156v-3.661h1.471l2.033 3.66h1.31l-2.012-3.66zm-1.223 6.693c3.955 0 7.085-3.124 7.085-7.057 0-3.93-3.13-7.05-7.085-7.05-3.958 0-7.083 3.12-7.083 7.05 0 3.933 3.125 7.057 7.083 7.057zm0-12.959c3.235 0 5.934 2.567 5.934 5.902 0 3.321-2.699 5.905-5.934 5.905-3.234 0-5.933-2.584-5.933-5.905 0-3.335 2.699-5.902 5.933-5.902z" fill="#1C4F9C"/></svg>