<svg width="200" height="200" xmlns="http://www.w3.org/2000/svg"><g fill="none"><path d="M181.192 74.441l-12.79 53.596 2.502 23.57c-34.878 7.518-45.108 36.414-45.108 36.414-29.037-23.21-84.164-17.251-109.544 2.524 0 0-5.283-39.27 25.36-61.669l3.395-12.11-14.108-.175c6.964-37.906 25.806-42.857 25.806-42.857s2.029-5.648 2.506-6.49c-4.873-2.713-8.607-6.02-12.443-12.056-4.438-6.983-5.8-14.65-6.254-19.695-.235-2.618 1.753-26.423 1.753-26.423s10.118 7.946 30.06 7.946l65.282-.01c22.758 0 53.066 20.296 43.583 57.435zm-69.45 112.75l-.291-2.323h-.01l-.962 2.322h-.414l-.92-2.322h-.01l-.335 2.322h-1.036l.68-4.034h1.025l.813 2.156.86-2.156h1.037l.606 4.034h-1.042zm-4.115-3.147h-.86v3.146h-1.042v-3.146h-.86v-.888h2.762v.888zm29.982-172.623l-65.283.01C51.305 11.43 37.43.322 37.43.322s-1.19 14.259-1.66 20.559c-.439 5.89-.689 13.197-.781 15.114-.895 18.584 13.412 30.78 17.193 33.573-6.602 3.274-26.153 17.238-27.936 52.526l13.455.166-.918 3.277c-37.648 28.987-24.807 74.838-24.807 74.838s43.366-31.226 89.659-17.146v6.302l15.062-.012c6.685 3.464 11.295 6.18 11.295 6.18s17.976-38.195 48.956-39.69l-2.931-27.607 12.546-52.57c10.69-41.866-23.9-64.412-48.955-64.412z" fill="#FFF"/><path d="M58.541 97.669c.923-1.706 1.95-3.293 2.966-4.312 1.218-1.22 3.374-2.564 5.508-3.689a50.553 50.553 0 0 1 3.673-1.756l2.236-.928.842-3.356c.084-.157.16-.328.224-.514.353-1.015.9-2.42 1.678-3.978 1.587-3.183 3.98-6.696 7.33-8.945 3.299-2.214 7.987-3.123 11.85-3.457l-11.85 44.487c-2.079 3.814-3.456 5.742-4.86 7.128-1.476 1.456-3.14 2.487-6.344 4.4-2.431 1.452-6.115 2.514-9.494 3.236l7.895-28.172-11.654-.144zm-2.91 34.29s12.149-1.184 18.615-5.047c6.413-3.83 8.592-5.228 13.246-13.88l13.652-51.246s-12.88-.948-20.812 4.377C71.74 71.93 68.856 83.436 68.856 83.436s-7.277 3.02-10.74 6.489c-3.934 3.942-6.968 12.494-6.968 12.494l12.717.157-8.234 29.383z" fill="#FFF"/><path d="M162.659 69.681l-13.629 57.094 1.283 12.057c-8.37 2.145-25.052 12.442-31.032 24.936-6.062-2.7-19.025-6.957-41.957-7.984-16.947-.758-29.451 2.349-37.417 5.407 1.707-4.19 4.2-9.11 8.383-13.01 20.224-18.849 67.1-4.804 67.1-4.804 4.224-10.522 15.758-13.246 15.758-13.246l2.058-15.19 10.464-42.345c4.717-22.083-19.356-19.07-19.356-19.07l-12.172-.054-.367-.001-31.446-.14c-8.388-.037-12.91-1.38-17.451-8.526-2.035-3.202-2.921-7.184-3.27-10.574 3.143.993 7.263 2.047 10.872 2.047l67.13-.009c14.256 0 30.494 12.086 25.049 33.412zm-62.996 45.153c4.653-1.628 9.676-2.513 14.943-2.513 4.792 0 9.52.732 13.811 2.147l-1.636 12.083c-3.225 1.149-4.996 2.123-7.697 4.237-2.81 2.197-5.1 4.596-6.175 6.759 0 0-7.307-2.265-18.546-3.46l5.3-19.253zm8.633-34.039l6.019-22.472 9.995.044c3.219-.001 12.25.694 13.604 3.066 1.578 2.76 2.147 6.214 1.098 9.967l-1.694 6.885-.431.185c-5.407 2.313-11.387 3.592-17.72 3.592a47.21 47.21 0 0 1-10.871-1.267zm-1.473 5.557a52.885 52.885 0 0 0 12.575 1.515c5.692 0 11.14-.923 16.21-2.63l-5.802 23.586c-4.856-1.505-10.123-2.307-15.43-2.307-4.49 0-8.827.574-12.947 1.653l5.394-21.817zm30.787-54.924l-67.13.01c-6.262 0-15.753-4.165-15.753-4.165s-1.238 11.74 4.102 20.142c5.728 9.013 12.124 10.716 21.48 10.757l27.499.123-19.941 75.267c-18.458-1.031-33.363 1.515-42.976 11.196-10.74 10.815-12.53 25.597-12.53 25.597s15.056-11.063 44.75-9.734c32.218 1.442 43.674 9.373 43.674 9.373s7.016-10.404 12.888-15.863c9.307-8.653 21.837-11.897 21.837-11.897l-1.611-15.142 13.425-56.242c6.443-25.237-13.246-39.422-29.714-39.422z" fill="#FFF"/><path d="M62.3 125.985c3.38-.722 7.063-1.784 9.494-3.237 3.203-1.912 4.868-2.943 6.344-4.399 1.404-1.386 2.781-3.314 4.86-7.128l11.85-44.487c-3.863.334-8.551 1.243-11.85 3.457-3.35 2.25-5.743 5.762-7.33 8.945a34.086 34.086 0 0 0-1.678 3.978c-.064.186-.14.357-.224.514l-.842 3.356-2.236.928c-.023.009-1.66.695-3.673 1.756-2.134 1.125-4.29 2.469-5.508 3.69-1.016 1.018-2.043 2.605-2.966 4.31l11.654.145-7.895 28.172" fill="#D41042"/><path d="M137.61 36.27l-67.13.008c-3.609 0-7.729-1.054-10.871-2.047.348 3.39 1.234 7.372 3.269 10.574 4.541 7.146 9.063 8.489 17.451 8.526l31.446.14.367.001 12.172.054s24.073-3.013 19.356 19.07l-10.464 42.345-2.058 15.19s-11.534 2.724-15.758 13.246c0 0-46.876-14.045-67.1 4.804-4.184 3.9-6.676 8.82-8.383 13.01 7.966-3.058 20.47-6.165 37.417-5.407 22.932 1.027 35.895 5.283 41.957 7.984 5.98-12.494 22.661-22.79 31.032-24.936l-1.283-12.057 13.629-57.094c5.445-21.326-10.793-33.412-25.048-33.412" fill="#D41042"/><path d="M137.318 78.285l1.694-6.885c1.05-3.753.48-7.207-1.098-9.967-1.354-2.372-10.385-3.067-13.604-3.066l-9.995-.044-6.02 22.472a47.21 47.21 0 0 0 10.873 1.267c6.332 0 12.312-1.279 17.719-3.592l.431-.185m-18.234 52.503c2.701-2.114 4.472-3.088 7.697-4.237l1.636-12.083c-4.291-1.415-9.02-2.147-13.811-2.147-5.267 0-10.29.885-14.943 2.513l-5.3 19.253c11.239 1.195 18.546 3.46 18.546 3.46 1.074-2.163 3.366-4.562 6.175-6.76m10.722-21.964l5.802-23.586c-5.07 1.707-10.518 2.63-16.21 2.63-4.282 0-8.539-.522-12.575-1.515l-5.394 21.817a50.984 50.984 0 0 1 12.946-1.653c5.308 0 10.575.802 15.431 2.307" fill="#0E2B58"/><path d="M167.324 70.85l-13.425 56.242 1.61 15.142s-12.529 3.244-21.836 11.897c-5.872 5.46-12.888 15.863-12.888 15.863s-11.456-7.93-43.675-9.373c-29.693-1.33-44.748 9.734-44.748 9.734s1.79-14.782 12.53-25.597c9.612-9.681 24.517-12.227 42.975-11.196l19.94-75.267-27.499-.123c-9.355-.041-15.751-1.744-21.48-10.757-5.339-8.403-4.101-20.142-4.101-20.142s9.49 4.164 15.753 4.164l67.13-.01c16.468 0 36.157 14.186 29.714 39.423zM58.117 89.925c3.462-3.47 10.74-6.49 10.74-6.49s2.883-11.504 11.475-17.272c7.932-5.325 20.812-4.377 20.812-4.377l-13.652 51.246c-4.654 8.652-6.833 10.05-13.246 13.88-6.466 3.863-18.615 5.047-18.615 5.047l8.234-29.383-12.717-.157s3.034-8.552 6.969-12.494zm79.492-72.918l-65.283.01c-19.941 0-30.06-7.947-30.06-7.947s-1.987 23.805-1.752 26.423c.454 5.046 1.816 12.712 6.254 19.695 3.836 6.036 7.57 9.343 12.443 12.057-.477.84-2.506 6.489-2.506 6.489s-18.842 4.951-25.806 42.857l14.108.174-3.395 12.111c-30.643 22.398-25.36 61.669-25.36 61.669 25.38-19.775 80.507-25.734 109.544-2.524 0 0 10.23-28.896 45.108-36.413l-2.503-23.571 12.79-53.596c9.484-37.139-20.824-57.434-43.582-57.434z" fill="#0E2B58"/><path fill="#0E2B58" d="M104.864 184.044h.86v3.146h1.042v-3.146h.86v-.888h-2.762v.888m6.279-.888l-.86 2.156-.814-2.156h-1.025l-.68 4.034h1.036l.335-2.322h.01l.92 2.322h.414l.961-2.322h.01l.293 2.322h1.042l-.606-4.034h-1.036"/></g></svg>