<svg width="200" height="200" xmlns="http://www.w3.org/2000/svg"><path d="M141.735 142.262H15.095c1.744-1.735 3.16-3.671 4.228-5.873L69.744 32.536c1.688-3.505 2.265-6.838 1.717-9.842l128.003-.26-12.05 26.51c-7.857-4.492-22.597-8.986-36.9-8.986l-35.096.446-14.854 30.572 40.05.446-10.8 19.335H91.117l-14.852 31.019 45-.45c17.099.45 36.626-5.496 37.799-5.847l-17.328 26.783M8.715 162.883l137.35 1.978L0 178.481l8.715-15.598m145.748-22.617h.372c.436 0 .79-.145.79-.497 0-.31-.23-.518-.727-.518-.208 0-.352.02-.435.04v.975zm-.021 1.928h-.788v-3.4a6.89 6.89 0 0 1 1.306-.103c.643 0 .933.104 1.182.249.186.145.332.414.332.746 0 .373-.29.664-.705.788v.041c.332.125.518.373.622.83.103.518.166.725.248.849h-.85c-.102-.124-.165-.435-.269-.828-.062-.374-.269-.54-.705-.54h-.373v1.368zm-2.094-1.782c0 1.513 1.12 2.716 2.654 2.716 1.492 0 2.592-1.203 2.592-2.696 0-1.513-1.1-2.736-2.613-2.736s-2.633 1.223-2.633 2.716zm6.116 0c0 1.927-1.514 3.441-3.483 3.441-1.948 0-3.504-1.514-3.504-3.441 0-1.887 1.556-3.4 3.504-3.4 1.97 0 3.483 1.513 3.483 3.4z" fill="#860533"/></svg>