<svg width="200" height="200" xmlns="http://www.w3.org/2000/svg"><g fill="none"><path d="M155.437 123.725c.053-.013 6.224 2.332 3.967 10.23-1.167 4.086-5.837 2.14-5.837 2.14s4.086 2.724 6.421 8.562c2.335 5.837 1.557 11.286-4.67 15.567-6.227 4.28-15.592-3.301-37.58-7.193-21.988-3.892-37.724.382-62.632 7.582-24.907 7.2-39.5 8.367-46.116 5.448-6.616-2.918-6.421-10.702-5.449-14.594.973-3.891 7.2-5.06 7.2-5.06l.39-20.041s-1.538.533-3.29-1.997c-1.387-2.005-2.043-6.897 3.577-7.664 2.785-.38 5.876 0 5.876 0l-.076-.055c-.434-.529-.17-.181-1.365-1.377-1.946-1.945-2.427-3.076-2.427-3.076s5.449-7.005 8.368-9.534c2.919-2.53 7.005-6.422 7.005-6.422s-7.394 5.838-10.313 8.562c-2.919 2.724-5.643 6.422-5.643 6.422s-1.012-1.723-2.761-6.095a285.728 285.728 0 0 1-2.104-5.386s25.88-19.848 34.636-25.491c8.756-5.643 39.112-25.88 39.112-25.88s-18.487 9.34-40.863 24.323C18.486 87.68 6.616 96.436 6.616 96.436s-.731-.924-4.086-4.087C.716 90.64 0 89.82 0 89.82s18.096-16.345 49.23-32.884c31.134-16.54 42.03-17.902 45.728-18.875 3.697-.973 6.421-.195 11.091-1.362 4.67-1.168 11.87-3.113 15.956-4.086 4.086-.974 18.68-.195 22.572 0 3.892.194 11.091 2.724 17.902 6.227 6.81 3.502 13.815 6.42 15.955 7.393 2.14.973 4.67 4.281 6.42 8.368 1.753 4.086 3.31 6.226 7.006 9.73 3.698 3.502 7.98 6.42 7.98 10.312 0 3.892-.78 4.67-4.476 9.924-3.698 5.254-9.34 15.956-9.34 15.956l-2.14-6.616-4.672 7.978-2.14-9.535-10.118.195s-1.307 1.298-.01 6.675c.88 3.638 7.404 6.946 7.404 6.946l9.924-2.919s-7.2 13.62-9.73 17.318c-2.528 3.697-4.28 3.308-7.004 3.697-2.724.39-11.786-.403-11.786-.403l-.315-.133" fill="#1266AC"/><path d="M96.985 106.135c-.113 1.579-.435 3.516-.435 3.516s6.568.32 10.413.64c3.845.32 12.657 1.122 13.457 1.763.801.64 1.083.559 1.083.559l3.524-1.282c3.634-.718 5.32-.437 10.379-.437 4.076 0 12.02.48 16.747 4.324 2.598 2.112 2.148 2.563 3.868 4.058 1.719 1.496 2.763 2.99 5.8 2.99h3.438c5.802 0 6.231-.853 8.38-3.845l6.691-11.887-5.877 1.54c-10.912-4.176-12.086-12.196-8.98-18.06l13.423.03 1.392 6.247 3.86-6.58 1.351-.04 1.52 5.743 7.678-13.302c4.512-5.339 5.155-7.048 1.503-10.464-1.004-.937-3.008-3.418-6.876-7.262-3.867-3.845-4.727-6.407-5.8-8.971-1.449-4.336-3.655-6.408-8.9-8.778l-18.174-8.522c-6.015-2.99-9.024-3.63-15.04-3.63h-15.9c-4.082 0-7.306.64-10.099 1.708-4.364 1.446-7.972 2.204-11.144 2.67-14.631 4.971-44.782 25.622-52.31 31.027-7.223 5.185-37.975 26.015-41.405 29.483.9 2.305 1.629 4.878 3.087 8.325 5.568-9.305 52.009-44.656 79.212-59.545-26.249 19.005-71.27 53.652-76.695 63.895 1.322 1.777 2.166 3.627 4.018 5.203 0 0 7.607.018 11.332 1.21 4.005 1.283 4.806 4.486 4.806 4.486s1.281-2.883 3.204-3.203c1.923-.32 3.845.16 4.166.96.32.802.8 2.404.8 2.404s.16-1.442 2.724-2.243c2.564-.8 5.279-2.24 7.53-1.923 2.251.318 2.883 2.724 2.883 2.724s1.283-8.33 1.923-9.932c.64-1.603 3.205-2.884 4.326-2.404 1.121.48 2.402.16 2.402.16s7.37-1.922 13.298-3.043c5.928-1.122 10.573-1.923 10.573-1.923s.963-1.442 2.884-1.442c1.261 0 2.317.207 3.029.531 0 0 10.672-7.176 21.93-5.926 7.586.843 12.645 5.058 12.645 5.058s-8.992-7.306-22.2-3.09c-10.498 3.35-11.444 6.48-11.444 6.48" fill="#231F20"/><path d="M64.443 54.762C50.905 61.732 8.9 91.104 6.198 93.847c-1.046-1.267-2.383-2.616-4.164-4.146C14.282 77.313 72.93 42.374 94.415 40.024c2.343-.256 9.193-.76 11.923-1.1-16.677 4.256-27.185 8.264-41.895 15.838" fill="#231F20"/><path d="M123.854 53.78l-21.488 1.834c2.148 5.768 3.008 8.33 11.325 9.074 1.083 2.112 2.648 4.92 8.298 4.899l-1.038-.031c-5.65.02-6.806-1.967-7.89-4.078-8.154.05-12.269-4.806-12.331-11.76l22.084.03m67.353 22.737l7.604-1.288-9.714.052c.898 3.005 2.188 6.209 5.41 7.917-3.007-4.27-2.949-4.605-3.3-6.68m-18.428-8.928c-3.506-.384-7.002-1.46-7.693-5.652l6.062.005 1.63 5.647" fill="#FFF"/><path d="M171.094 67.558c-1.888-.6-3.945-2.04-4.898-5.642l2.407-.005 2.49 5.647" fill="#231F20"/><path fill="#FFF" d="M154.718 60.561l15.599-.258v-1.202m1.615 3.809l7.8 1.25h-7.279zm1.856 45.122l-3.606 5.65c-1.505-.64-3.451-2.137-3.667-3.204l7.273-2.446M138.41 79.755c1.454-.187 18.844-5.613 31.35-2.611 11.16 2.678 12.345 5.802 14.387 7.153-3.601-3.265-8.164-5.405-15.518-6.475-7.354-1.07-18.148-.315-30.22 1.933"/><path d="M135.39 86.834c1.403-.32 17.694-6.67 30.676-4.854 11.585 1.622 13.374 4.608 15.661 5.758-4.208-2.9-9.151-4.6-16.649-4.98-7.497-.38-18.17.731-29.688 4.076m7.36-13.444c1.473-.091 19.457-3.7 31.481.115 10.731 3.407 11.47 6.594 13.31 8.074-3.122-3.487-7.364-5.92-14.533-7.474-7.168-1.552-17.928-2.153-30.258-.715" fill="#FFF"/><path fill="#231F20" d="M184.443 88.078l3.654-8.541 1.718 2.134-3.009 7.05-2.363-.643"/><path d="M165.536 109.223c-6.016-7.902-4.943-13.669-3.224-18.367-1.719 3.418-3.223 6.834-1.933 10.678 1.312 3.914 3.222 6.408 5.157 7.69" fill="#FFF"/><path d="M12.666 125.144l-.195 22.999s-3.118-.097-4.97 1.462c-1.85 1.559-3.897 6.528-1.46 10.621 2.435 4.093 7.015 6.627 22.9 4.58 15.884-2.046 48.041-14.519 63.537-15.201 15.495-.683 22.219.682 29.722 2.436 7.504 1.754 15.202 3.8 19.49 5.36 4.287 1.559 8.088 3.313 12.668 1.169s8.479-10.72-.39-20.075c-6.93-7.312-10.096-9.561-7.406-10.817 1.462-.682 3.605.39 4.093 1.267.488.877.975 5.262 3.996 5.555 3.02.292 3.02-1.364 2.728-5.36-.293-3.996-1.56-4.58-3.021-5.36-1.462-.78-7.21-3.8-10.622-2.924-3.41.878-4.093 1.755-4.093 1.755s-1.072-3.216-6.432-5.458c-5.359-2.241-10.232-3.118-11.206-3.118-.975 0-1.365.098-1.365.098s.001-1.17-3.995-1.754c-3.996-.585-9.16-1.365-13.838-1.267-4.677.097-7.309 0-7.309 0s.39-2.338.585-4.385c.195-2.047-2.34-2.924-3.8-2.535-1.463.39-1.657 1.268-1.657 1.268s-8.576 1.17-15.203 3.021c-6.626 1.852-9.94 2.436-9.94 2.436s-1.753-1.463-3.702.292c-1.95 1.754-1.656 3.217-2.144 5.262-.487 2.047-1.363 4.872-.487 5.945.876 1.072 1.753 1.17 2.533.975.78-.195 1.657-.975 1.657-.975s.292.487.975.487c.876 0 1.461-.195 1.461-.195 0 .488.098 8.089.098 8.089s-3.217-2.632-5.848-4.775c-2.63-2.144-4.288-4.093-4.677-4.776-.39-.682-1.169-1.17-2.241-.78-1.072.39-2.048.682-3.801.975-1.754.293-3.507 1.072-4.093 2.339-.585 1.267-.682 3.8.682 4.19 1.365.39 2.437-.389 2.437.195 0 .585.098 3.508.098 3.508s-.683-.779-1.56-.779-1.17.195-1.17.195-1.85-7.017-2.24-8.381c-.39-1.364-2.047-2.827-4.386-1.267-2.338 1.56-3.02 4.58-3.02 4.58s-.976-5.555-6.627-6.918c-5.652-1.365-14.422-.877-16.859-.683-2.436.195-3.898.78-3.703 3.704.195 2.923 3.8 3.02 3.8 3.02" fill="#231F20"/><path fill="#FFF" d="M12.603 156.385l3.91.04-.011.84-2.915-.031-.026 2.005 2.817.029-.01.84-2.818-.03-.026 2.043 3.013.03-.01.84-4.008-.04.084-6.566"/><path d="M12.647 162.824l3.754.038.007-.585-3.013-.03.03-2.297 2.816.029.008-.585-2.817-.03.03-2.259 2.914.03.007-.585-3.655-.036-.08 6.31zm4.005.295l-4.262-.043.087-6.819 4.164.041-.014 1.095-2.914-.03-.023 1.75 2.816.03-.013 1.093-2.817-.029-.023 1.788 3.013.03-.014 1.094zm6.718-2.879l-1.105-2.465-.993 2.476 2.097-.01zm-1.449-3.961l.67-.003 3.052 6.842-.983.005-.903-2.011-2.855.012-.82 2.022-.984.004 2.823-6.871z" fill="#FFF"/><path d="M22.271 158.102l-.81 2.02 1.712-.008-.902-2.012zm-1.188 2.278l1.175-2.932 1.308 2.919-2.483.013zm.924-3.974l-2.718 6.615.706-.002.821-2.022 3.023-.013.903 2.011.705-.004-2.938-6.587-.502.002zm-3.1 6.872l2.929-7.126.838-.004 3.165 7.097-1.262.006-.903-2.011-2.686.012-.82 2.021-1.26.005zm11.583-3.624l-.727-.44c-.456-.277-.78-.552-.969-.825a1.56 1.56 0 0 1-.273-.947c.01-.537.207-.978.584-1.319.377-.34.862-.516 1.455-.525a2.61 2.61 0 0 1 1.546.462l-.025 1.106c-.477-.463-.997-.691-1.562-.682-.315.004-.577.081-.784.233-.208.15-.314.342-.318.57a.843.843 0 0 0 .212.571c.147.176.385.36.712.551l.73.43c.812.488 1.212 1.112 1.194 1.88-.011.548-.202.995-.574 1.342-.37.348-.847.527-1.428.535a2.84 2.84 0 0 1-1.813-.6l.026-1.238c.51.664 1.108.989 1.8.98a1.18 1.18 0 0 0 .766-.27.834.834 0 0 0 .314-.645c.01-.416-.279-.805-.865-1.169" fill="#FFF"/><path d="M28.58 161.932c.5.365 1.061.545 1.68.536.546-.008.998-.176 1.344-.5.348-.326.522-.735.533-1.252.016-.722-.354-1.3-1.133-1.767l-.728-.43c-.338-.195-.589-.39-.746-.579a.973.973 0 0 1-.241-.656c.004-.27.129-.496.37-.67.227-.167.516-.254.859-.258.517-.006.997.17 1.44.53l.018-.758a2.532 2.532 0 0 0-1.414-.402c-.558.009-1.019.174-1.371.492-.35.317-.532.73-.542 1.227-.007.33.077.622.25.87.178.257.491.522.93.79l.73.44c.626.389.937.82.926 1.282a.958.958 0 0 1-.36.74 1.31 1.31 0 0 1-.847.299c-.633.011-1.195-.249-1.68-.766l-.018.832zm1.634.793a2.974 2.974 0 0 1-1.842-.628l-.051-.04.035-1.666.222.289c.488.634 1.041.931 1.696.93.272-.005.503-.086.685-.24a.703.703 0 0 0 .269-.548c.01-.366-.261-.721-.804-1.058l-.727-.44c-.478-.29-.807-.572-1.008-.861a1.689 1.689 0 0 1-.297-1.024c.012-.57.223-1.045.627-1.41.4-.362.917-.55 1.539-.56a2.736 2.736 0 0 1 1.62.485l.058.04-.034 1.47-.21-.206c-.45-.437-.944-.652-1.47-.646-.29.004-.528.074-.711.209-.176.127-.263.28-.265.469a.714.714 0 0 0 .182.487c.137.164.365.34.678.52l.73.431c.853.513 1.276 1.183 1.257 1.994-.012.581-.219 1.063-.614 1.433-.394.37-.903.56-1.514.57h-.051zm4.64-7.415l6.092-1.203.027.824-2.542.502.189 5.63-1.053.207-.186-5.63-2.5.495-.027-.825" fill="#FFF"/><path d="M37.506 155.483l.186 5.63.794-.156-.189-5.63 2.543-.502-.019-.561-5.834 1.152.02.562 2.499-.495zm-.064 5.944l-.186-5.63-2.5.496-.036-1.09 6.351-1.253.036 1.087-2.542.502.188 5.63-1.31.258zm6.954-8.348l3.985-.903-.042.825-2.97.673-.096 1.97 2.87-.65-.04.824-2.872.651-.097 2.006 3.071-.696-.042.824-4.084.927.317-6.451" fill="#FFF"/><path d="M44.518 153.181l-.304 6.189 3.828-.869.028-.562-3.07.696.11-2.268 2.87-.651.028-.563-2.87.652.11-2.233 2.97-.673.028-.562-3.728.844zm-.573 6.51l.33-6.715 4.241-.96-.055 1.087-2.97.673-.083 1.708 2.869-.651-.052 1.087-2.872.651-.085 1.743 3.072-.696-.055 1.088-4.34.985zm9.132-8.047l-.292.068-.073 2.033.371-.086c.496-.115.837-.233 1.025-.355.186-.123.333-.276.442-.461.108-.185.166-.381.174-.588a.764.764 0 0 0-.151-.51.651.651 0 0 0-.469-.238c-.205-.018-.547.026-1.027.137zm-1.484 5.965l.233-6.458 1.716-.397c.693-.16 1.237-.126 1.634.106.395.228.582.619.564 1.171a2.01 2.01 0 0 1-.335 1.044c-.21.32-.503.591-.88.812.213.086.422.222.622.407.201.187.482.527.84 1.021.225.312.407.544.545.695l.347.377-1.17.27-.282-.356a1.53 1.53 0 0 0-.056-.066l-.183-.21-.287-.4-.31-.428a3.402 3.402 0 0 0-.534-.505 1.438 1.438 0 0 0-.442-.234c-.134-.038-.359-.02-.679.054l-.255.06-.1 2.809-.988.228z" fill="#FFF"/><path d="M52.906 151.812l-.063 1.774.212-.049c.479-.111.81-.225.985-.338a1.27 1.27 0 0 0 .402-.42 1.12 1.12 0 0 0 .157-.528.638.638 0 0 0-.125-.43.528.528 0 0 0-.383-.19c-.191-.017-.523.028-.986.135l-.199.046zm-.325 2.092l.082-2.292.386-.09c.495-.114.844-.159 1.066-.14.24.025.426.12.556.285.125.16.185.358.178.592a1.37 1.37 0 0 1-.19.647c-.12.201-.281.37-.482.503-.203.131-.551.253-1.065.372l-.53.123zm-.633-2.652l-.224 6.198.735-.17.1-2.81.349-.08c.349-.08.584-.097.741-.053.149.043.311.129.482.255.17.122.356.298.553.522l.606.84.175.2c.03.033.05.058.061.072l.232.292.883-.204-.201-.22a8.508 8.508 0 0 1-.554-.706c-.348-.48-.625-.817-.824-1.002a1.92 1.92 0 0 0-.584-.383l-.237-.095.22-.129c.358-.21.64-.47.84-.773.194-.297.3-.627.313-.98.018-.507-.146-.853-.5-1.058-.366-.213-.885-.244-1.544-.092l-1.622.376zm-.486 6.516l.242-6.717 1.81-.419c.723-.167 1.303-.126 1.725.12.435.251.646.683.626 1.283-.015.4-.135.773-.355 1.109a2.643 2.643 0 0 1-.727.728c.154.086.305.197.449.33.21.197.499.546.857 1.04.218.303.398.533.536.684l.49.535-1.454.336-.332-.418a1.329 1.329 0 0 0-.052-.061l-.183-.21-.605-.838a3.29 3.29 0 0 0-.505-.476 1.32 1.32 0 0 0-.404-.216c-.076-.021-.245-.03-.616.056l-.16.037-.102 2.81-1.24.287zm13.752-10.572l.882-.243-.13 6.452-.797.22-4.248-3.769-.098 4.967-.87.24.13-6.452.748-.207 4.284 3.801.099-5.009" fill="#FFF"/><path d="M60.203 148.704l-.124 6.199.624-.173.102-5.14 4.396 3.9.645-.178.125-6.198-.637.176-.102 5.182-4.433-3.933-.596.165zm-.374 6.52l.134-6.707.9-.248 4.135 3.67.096-4.836 1.127-.311-.134 6.706-.949.262-4.1-3.638-.095 4.794-1.114.309zm15.532-11.057l.9-.214-.137 6.694-.901.216.138-6.696" fill="#FFF"/><path d="M75.481 144.264l-.133 6.444.656-.157.132-6.443-.655.156zm-.383 6.755l.143-6.948 1.145-.274-.142 6.947-1.146.275zm5.045-8.133l.968-.172.057 5.76 3.027-.537.008.859-3.995.708-.065-6.618" fill="#FFF"/><path d="M80.27 142.992l.063 6.362 3.743-.664-.006-.603-3.027.538-.057-5.76-.716.127zm-.186 6.663l-.068-6.874 1.22-.217.056 5.76 3.028-.537.01 1.114-4.246.754zm7.336-7.966l1.046-.14-.066 5.66 3.27-.439-.009.846-4.314.576.073-6.503" fill="#FFF"/><path d="M87.548 141.803l-.07 6.241 4.055-.542.006-.583-3.27.438.066-5.66-.787.106zm-.333 6.538l.076-6.766 1.306-.175-.065 5.66 3.27-.438-.013 1.107-4.574.612zm7.714-7.545l1.033-.01-.013 6.77-1.034.01.014-6.77" fill="#FFF"/><path d="M95.06 140.927l-.013 6.506.77-.007.013-6.506-.77.007zm-.277 6.772l.014-7.033 1.297-.012-.014 7.033-1.297.012zm10.44-6.871l.898.005-.211 6.554-.813-.006-4.264-5.077-.162 5.044-.885-.007.21-6.552.762.004 4.301 5.122.164-5.087" fill="#FFF"/><path d="M105.156 147.257l.633.005.204-6.305-.65-.004-.17 5.29-4.473-5.326-.583-.003-.203 6.304.636.005.169-5.248 4.437 5.282zm.874.255l-.99-.007-.038-.044-4.056-4.829-.155 4.841-1.133-.008.219-6.802.94.007 4.129 4.916.157-4.883 1.146.007-.219 6.802zm7.175-5.083c-.77-.097-1.407.067-1.906.495-.5.426-.752 1.02-.756 1.782a2.788 2.788 0 0 0 .737 1.937 2.924 2.924 0 0 0 1.866.974c.753.094 1.381-.077 1.886-.513.507-.435.762-1.026.767-1.77.004-.726-.244-1.368-.745-1.926a2.897 2.897 0 0 0-1.85-.979zm-.03-.93c1.042.133 1.906.577 2.595 1.334.689.757 1.031 1.639 1.025 2.648-.007 1.009-.36 1.798-1.064 2.37-.703.574-1.586.791-2.65.657-1.016-.13-1.861-.568-2.534-1.314a3.742 3.742 0 0 1-1-2.613c.006-1.022.35-1.824 1.036-2.407.686-.582 1.55-.808 2.591-.675z" fill="#FFF"/><path d="M112.795 142.53c-.558 0-1.032.165-1.413.492-.474.404-.707.956-.711 1.685a2.672 2.672 0 0 0 .704 1.85c.471.527 1.072.84 1.788.933.72.09 1.305-.068 1.786-.483.475-.407.717-.97.722-1.675a2.663 2.663 0 0 0-.712-1.839 2.786 2.786 0 0 0-1.77-.937 3.175 3.175 0 0 0-.394-.025zm.739 5.24c-.13 0-.265-.009-.403-.026a3.061 3.061 0 0 1-1.947-1.016 2.92 2.92 0 0 1-.77-2.022c.005-.798.275-1.43.802-1.879.524-.45 1.2-.627 2.005-.525.762.097 1.41.44 1.929 1.02.52.58.78 1.256.777 2.012-.005.782-.278 1.41-.811 1.867-.438.378-.969.569-1.582.569zm-.914-6.18c-.765 0-1.42.229-1.954.682-.652.555-.986 1.332-.991 2.31-.006.958.32 1.808.968 2.526a3.87 3.87 0 0 0 2.455 1.272c1.022.13 1.881-.082 2.553-.628.677-.55 1.01-1.294 1.016-2.272.006-.97-.328-1.83-.991-2.56-.665-.73-1.512-1.166-2.518-1.294a4.242 4.242 0 0 0-.538-.035zm1.046 7.084c-.194 0-.394-.013-.6-.04a4.12 4.12 0 0 1-2.614-1.354 3.884 3.884 0 0 1-1.033-2.7c.006-1.056.37-1.898 1.081-2.503.713-.605 1.618-.842 2.69-.705 1.068.136 1.968.599 2.675 1.375.708.779 1.064 1.699 1.058 2.734-.007 1.045-.38 1.876-1.11 2.47-.591.48-1.311.723-2.147.723zm6.623-5.649l1.137.148.116 6.55-1.137-.147-.116-6.55" fill="#FFF"/><path d="M120.539 149.457l.864.111-.11-6.276-.866-.112.112 6.277zm1.14.42l-1.407-.181-.122-6.825 1.41.182.002.117.118 6.707zm5.283-1.527l-.743-.58c-.468-.367-.8-.701-1-1.004a1.753 1.753 0 0 1-.305-.966c-.008-.513.174-.89.54-1.135.367-.244.847-.307 1.44-.186.566.117 1.09.376 1.567.782l.012 1.055c-.494-.548-1.025-.88-1.589-.995-.316-.066-.577-.048-.779.05a.491.491 0 0 0-.3.478c.004.195.08.392.233.591.154.202.396.43.732.685l.745.571c.833.644 1.254 1.333 1.263 2.064.006.522-.17.908-.53 1.16-.36.252-.831.318-1.414.199-.67-.136-1.282-.46-1.84-.973l-.014-1.18c.534.747 1.146 1.19 1.837 1.333.303.061.558.032.757-.09a.587.587 0 0 0 .297-.549c-.005-.396-.309-.832-.909-1.31" fill="#FFF"/><path d="M125.12 150.09c.527.474 1.112.78 1.739.906.546.111.988.051 1.316-.178.328-.229.484-.574.477-1.056-.008-.688-.416-1.35-1.213-1.967l-.745-.57c-.339-.257-.593-.496-.756-.709-.167-.217-.254-.441-.258-.665a.618.618 0 0 1 .37-.593c.228-.11.517-.13.86-.06.504.103.986.373 1.434.805l-.008-.683a3.355 3.355 0 0 0-1.468-.718c-.554-.113-1.007-.057-1.345.167-.332.222-.49.559-.484 1.03.003.315.098.617.284.899.19.288.518.616.974.974l.743.58c.638.508.95.968.956 1.406a.708.708 0 0 1-.358.659c-.225.137-.51.172-.846.105-.622-.128-1.186-.492-1.682-1.083l.01.75zm2.24 1.211c-.173 0-.357-.02-.55-.06-.689-.139-1.328-.476-1.9-1.003l-.04-.037-.02-1.633.232.325c.512.716 1.104 1.148 1.76 1.283.272.056.496.03.667-.074a.46.46 0 0 0 .236-.44c-.004-.354-.294-.762-.86-1.213l-.743-.58c-.484-.38-.82-.718-1.028-1.034a1.885 1.885 0 0 1-.326-1.034c-.008-.554.193-.972.597-1.24.395-.263.91-.331 1.533-.204a3.612 3.612 0 0 1 1.624.809l.043.036.018 1.445-.223-.247c-.473-.525-.985-.847-1.52-.956-.289-.06-.523-.046-.7.04-.158.077-.231.193-.23.364.004.167.073.341.207.516.15.195.387.417.709.66l.746.573c.86.666 1.302 1.393 1.311 2.162.007.563-.19.988-.584 1.264-.264.185-.586.278-.96.278z" fill="#FFF"/><path d="M10.84 119.744c-.48.053-1.229.8-.962 2.136.267 1.335.802 1.549 1.763 1.762.96.214 1.936.4 2.082.588.374.48.107 21.734.054 22.588-.054.855.16 2.457-.801 2.617-.961.16-2.136-.16-2.777.694-.64.855-.428 2.67.427 3.097.855.427 12.816.535 12.816.535s1.442-.267 1.389-1.763c-.053-1.495-.267-2.082-1.014-2.082-.748 0-2.457-.16-2.991-.374-.534-.214-.427-.588-.48-1.656-.054-1.068.213-23.923.213-23.923s3.31-.375 4.86.48c1.548.855 2.348 2.19 2.456 4.272.107 2.083-.267 4.7-1.442 5.714-1.175 1.015-1.976 1.495-3.258 1.816-1.281.32-2.67.961-2.35 2.243.321 1.281.962 2.135 3.632 1.548 2.67-.586 7.209-2.296 8.704-5.34 1.496-3.044 3.257-7.744 0-11.695-3.257-3.952-9.665-3.31-13.296-3.31-3.632 0-8.545 0-9.025.053" fill="#BDBCBC"/><path d="M150.19 153.472c-3.124 2.314-8.29-1.148-10.96-4.749-1.934-2.607-2.15-3.342-1.865-3.019.283.323 1.956 2.514 3.412 3.89 1.457 1.375 6.178 3.797 7.512 2.947 1.334-.849.728-2.346-.365-2.872-1.092-.526-1.74-.728-3.358-2.63s-4.977-6.959-6.069-8.942c-1.091-1.982-2.952-5.541-2.952-5.541s.809.203 1.982-.971c1.173-1.173 1.416-1.619 1.416-1.619s.526 2.144 1.254 3.48c.728 1.335 3.642 4.977 5.381 6.433 1.74 1.456 4.773 4.886 5.745 7.364 1.618 4.125.239 5.212-1.133 6.229zm-18.043-24.517c-1.174.243-3.683-.566-3.683-.566s-.162-7.729.121-7.93c0 0 2.59.728 3.116 1.335.526.607 1.82 1.9 1.862 3.56.04 1.659-.243 3.359-1.416 3.601zm-9.385 5.706s-.404-1.334-1.497-1.699c-1.092-.364-1.537-.243-1.942.404-.405.648-1.497 2.347-1.821 2.428-.323.081-2.387.04-4.693-.405-2.306-.444-2.59-.364-2.71-1.295-.122-.93-.122-6.715-.122-6.715s.445-.04 1.902.243c1.456.283 2.265.526 2.265.526s.323 1.86.688 2.306c.365.445 1.578 1.293 2.428.89.85-.405 1.092-.526.97-1.74-.12-1.214-.12-4.289-.04-5.34.081-1.053.202-2.549-1.254-2.913-1.457-.365-2.064-.041-2.266.606-.202.648-.324 1.861-.324 1.861l-4.37-.445-.04-6.716s1.619.162 2.994.324c1.376.161 2.468.161 3.237 1.254.769 1.093.769 2.306 1.457 2.953.687.648 1.74.648 2.347.364.606-.282.647-1.01.526-2.063-.122-1.052-.122-1.496-.122-1.496s.282.404.768.687c.486.283 1.457.445 1.579.648.12.202.04 15.333.04 15.333zm-18.73.12h-1.942s-.121-9.952-.08-12.38c.04-2.427.121-6.27.121-6.27s-.242-.162.769-.162c1.011 0 1.254-.04 1.295.243.04.282.12 16.952.04 17.518-.08.567.16 1.051-.203 1.051zm-17.64-21.321a56.996 56.996 0 0 1-3.317.526c-.93.122-1.578 1.052-1.7 2.266-.12 1.214.971 1.416 1.336 1.416.364 0 .97-.122.97-.122s.244 2.266.284 5.3c.04 3.035-.243 13.392-.243 13.392s-.323.203-.647.365c-.323.161-.688.323-.688.323s-.243-.243-1.254-.121c-1.011.12-1.173 0-1.295-.283-.12-.283-.243-5.785-.202-10.196.04-4.41.04-13.513.04-13.513s3.075-.688 5.543-1.053c2.469-.364 4.936-.04 4.936-.04l.283 1.214-.04.161s-.121-.12-.364-.12c-.242 0-2.104.201-3.642.485zm-12.501 24.073c-.081.526-.041.769-.405.971-.364.202-1.295.405-1.618.607-.323.202-.567.404-.567.404s0-13.877.04-15.09c.041-1.214.163-4.411.284-4.532.122-.122.607-.161 1.376-.566.769-.405 1.092-.931 1.092-.931s-.121 18.61-.202 19.137zm-5.017-20.229c-1.456.324-2.063.121-3.317.364-.909.175-1.174.647-1.174.647s-.283-.727 1.82-1.578c2.105-.85 7.809-2.508 7.809-2.508v1.618s-.243-.405-1.254-.121c-1.011.283-2.427 1.254-3.884 1.578zm-31.782 20.093l1.916-4.725.639 3.065-2.555 1.66zm112.493-2.048c-3.365-3.204-4.273-4.219-4.807-6.141-.534-1.923.962-3.098 2.724-2.884 1.761.213 3.898 1.602 4.378 2.51.481.908.962 2.723 1.123 3.204.16.48.907 1.175 2.082 1.228 1.175.053 1.228-.267 1.442-.64.213-.374.107-2.297-.214-4.326-.32-2.03-.854-2.724-1.282-3.044-.427-.32-.854-.268-1.335-.64-.481-.374-2.616-1.336-5.02-2.03-2.403-.695-4.004-.534-5.767-.214-1.762.32-3.366 2.99-3.366 2.99s-.587-1.815-1.548-3.364c-.961-1.55-3.526-3.471-5.607-4.325-2.083-.854-6.302-1.763-8.598-2.19-2.297-.427-2.403-.32-2.831-.213-.427.107-.748.693-.748.693s-.053-.16-.213-.8c-.16-.641-.427-.855-.961-1.121-.535-.267-.428-.054-1.175-.16-.748-.107-5.18-1.015-9.505-1.336-4.326-.32-12.176-.267-12.176-.267s-.268-.107-.804.373c-1.019.913-.427 2.938.107 3.098.534.16 1.602.213 1.602.213v6.836s-1.442.214-3.365.374c-1.922.16-4.539.267-4.539.267v-6.675s.32-.214.802-.32c.481-.107.908-.428 1.068-.695.16-.267.373-.8.373-.8s.428.16 1.335.16c.908 0 1.389-.962 1.549-1.229.16-.266.054-.961.054-1.975 0-1.014.16-3.151.32-4.22.16-1.067.053-1.922-.374-2.189-.427-.267-1.014-.32-1.816-.213-.801.107-1.068 1.28-1.068 1.28s-.533.108-2.243.321c-1.709.213-5.713.908-8.971 1.656-3.258.747-10.627 2.724-12.39 3.152a15.129 15.129 0 0 1-3.204.427s0-.213-.16-.374c-.16-.16-.854-.32-1.762.053-.908.375-1.175 1.281-1.335 2.403-.16 1.122-.587 2.724-1.015 5.448-.427 2.724 1.015 2.35 2.03 2.136 1.015-.213 1.228-1.175 1.228-1.175s.48.855 1.014.908c.534.053 2.243-.16 2.243-.16s.267 1.869.32 4.379c.054 2.51.054 7.636.054 7.636s-4.806-3.845-6.354-5.233c-1.549-1.389-5.501-4.753-6.035-5.447-.533-.694-.641-1.015-1.122-1.068-.48-.053-1.068.16-1.655.32-.588.16-2.617.908-4.005 1.121-1.388.214-1.87.961-2.03 2.03-.16 1.069.107 1.869 1.763 1.655 1.655-.213 1.655.32 1.762.587.107.267.16 2.778.053 9.079-.106 6.3-.373 8.811-.373 8.811l-.374-.107c-.374-.107-.64-.16-1.228-1.548-.588-1.388-1.976-8.277-1.976-8.277s1.495-.961 1.763-1.816c.267-.855-.322-1.495-.802-1.495-.48 0-1.709.694-1.709.694s-2.403-9.185-2.723-10.093c-.32-.908-1.442-.588-2.777-.16-1.334.427-3.845 8.598-6.034 14.152-2.19 5.553-5.554 12.87-5.554 12.87s-2.67.053-2.617 1.816c.084 2.776 2.083 2.029 3.364 1.815 1.282-.213 4.646-.587 5.5-.694.854-.107 1.336-1.549 1.175-2.67-.16-1.123-1.868-.961-1.868-.961s.907-3.044 1.068-3.311c.16-.268.267-.588 2.029-2.297 1.761-1.708 4.165-3.63 4.165-3.63l1.709 7.422s-.96.48-1.869 1.228c-.908.748-.32 2.456.374 2.67.693.214 4.325-.801 7.797-1.71 3.47-.907 5.875-1.76 6.943-1.975 1.068-.214 1.71-1.388 1.762-2.67.053-1.28-1.12-1.068-1.869-.961-.747.106-1.335.16-1.335.16l-.16-.32c-.16-.32-.267-3.204-.214-4.592.053-1.389 0-8.011 0-8.011s13.565 11.481 13.992 11.909c.426.427 1.39.908 1.924.747.533-.16 1.12-.747 1.12-.747s.695.32 1.763-.054 5.608-1.495 8.811-2.136c3.204-.64 7.797-1.441 8.652-1.495.855-.054.587.107 1.388-.854.801-.961-.053-2.243-.48-2.458-.428-.213-1.71-.266-1.71-.266l-.16-7.636s1.122-.267 3.685-.481a91.494 91.494 0 0 1 4.382-.267l-.107 7.743s-1.335-.106-1.922 1.068c-.855 1.708.373 2.51.693 2.67.32.16 1.55.054 5.875-.16 4.325-.213 10.146.48 16.448 1.709 6.301 1.228 10.413 2.617 11.534 2.937 1.121.32 1.603-.054 1.763-1.175.16-1.121-.641-2.029-1.282-2.243-.64-.214-1.549-.854-1.549-.854l.107-6.461s.855.32 1.335.48c.48.16 1.603 3.15 2.35 4.432.748 1.281 4.646 7.637 4.646 7.637s-1.175-.695-2.03-.748c-.853-.053-1.174.748-1.12 1.923.052 1.175.907 5.767 1.494 6.515.588.747 1.282 1.014 3.311 2.136 2.03 1.121 6.89 3.31 10.414 3.738 3.524.427 9.185-2.563 9.132-8.277-.053-5.715-5.288-11.537-8.652-14.741z" fill="#BDBCBC"/><path d="M15.014 127.92c0-4.368-.045-5.088-1.943-5.375l-.804-.138c-1.559.001-1.985-1.372.49-1.467 3.184-.123 4.652-.363 8.765-.363 4.294 0 6.975.637 9.009 1.885 2.35 1.489 3.398 3.955 3.261 7.12-.217 5.056-5.009 7.922-8.806 9.187-.815.27-2.247.21-2.609.162-.316-.288-.226-.69 0-.977 4.113-.865 6.647-4.225 6.647-8.16 0-3.89-2.35-7.297-6.462-7.297-2.26 0-3.555.144-3.555 2.016v20.978c0 5.088.407 5.232 2.53 5.472l1.673.191c.271.337.226 1.201-.09 1.393-2.668-.096-4.7-.144-6.69-.144-1.988 0-3.17-.142-4.978-.046-.362-.191-.407-1.056-.09-1.392l.723-.095c2.123-.337 2.93-.291 2.93-5.38v-17.57m24.104.14l-4.838 12.883s1.604-1.387 4.114-2.99a60.942 60.942 0 0 0 2.68-1.794l-1.956-8.1zm-12.61 22.993s1.577.108 2.174-.87 10.654-25.764 10.654-25.764.217-.543.488-.761c.272-.218.98-.11.98-.11l2.934 11.144 2.12-1.196c.226.238-1.957 1.739-1.957 1.739s2.012 8.914 2.446 9.784c0 0 .87 2.066 2.5 1.522 1.63-.543 1.686-2.609 1.686-2.609l.271-15.654s.163-2.065-.761-2.555c-.923-.489-2.88-.272-2.88-.272s-.49-.706.597-.923c1.087-.218 3.86-1.033 4.349-1.142.49-.109.815-.435.815-.435s1.141 1.631 2.229 2.61c1.087.977 12.882 10.708 13.045 10.816.163.108.27 0 .217-.979-.054-.978-.054-12.067-.054-12.067s-.054-2.882-.543-3.207c-.49-.326-2.664.108-2.827 0-.163-.108-.38-.979.435-1.033.815-.054 2.718-.325 3.805-.652 1.087-.326 3.37-1.413 3.587-1.359.218.055.49.381.11.653-.382.271-2.12 1.087-2.501 1.63-.381.544-.544 11.14-.544 12.72 0 2.065.163 9.24.054 9.457-.108.218-.49.651-.76.49-.272-.163-5.707-5.002-7.501-6.578-1.794-1.576-9.241-7.772-9.241-7.772s-.38 9.022-.272 10.707c.109 1.686.055 6.632.87 6.795.815.164 2.718-.598 2.772-.163.054.435.326.598-1.359 1.033-1.685.435-7.664 2.01-9.35 2.446-1.684.435-3.207 1.141-3.532 1.033-.326-.109-.762-.598.706-1.142 1.468-.543 1.577-.653 1.142-2.283-.435-1.63-2.174-8.968-2.174-8.968s-4.675 3.805-5.654 4.837c-.978 1.033-2.445 2.555-2.445 2.555l-1.523 4.674c-.053.435-.217.978.49 1.033.706.055 1.794-.27 1.794.218 0 .489.49.543-2.174.815-2.664.271-5.22.816-5.328.653-.108-.164-.597-.545.11-.87z" fill="#FFF"/><path d="M61.311 120.24s.89-3.227 1.057-4.563c.167-1.335.168-2.392.335-2.448.167-.055.556-.166.556-.166s.723.611 1.613.556c.891-.056 10.572-2.616 12.91-3.172 2.337-.556 11.518-2.003 12.63-2.281 1.114-.279 1.893-.612 2.004-.946.112-.334.168-.723.445-.723.278 0 .446-.223.334 1.001-.111 1.225-.389 4.117-.334 4.841.056.724.112 1.39-.333 1.447-.446.056-.502.056-.724-1.335-.222-1.392-.556-2.059-1.335-2.115-.78-.056-3.952-.112-7.568.39-3.617.5-4.284.834-4.396 1.28-.111.445.056 24.093-.111 24.093s-.056 1.558.556 1.892c.612.334 1.614.222 2.115.167.5-.056.612.277.5.667-.11.39.112.39-.612.5-.723.112-2.893.502-4.284.892-1.391.389-4.84 1.28-4.84 1.28s-.557-.78.277-1.113c.835-.334 2.56-1.002 2.838-1.614.278-.612.5-25.54.5-25.54s-.11-.724-.611-.613c-.501.112-4.84 1.28-7.011 2.115-2.17.834-3.394 1.391-3.784 1.892-.39.5-1.168 1.891-1.335 2.614-.168.724-.446 1.281-.89 1.337a.413.413 0 0 1-.502-.334" fill="#FFF"/><path d="M100.858 115.77c-.31.746-.062 10.07-.124 14.733s.187 5.097.808 5.409c.62.311 2.673.31 3.481-.187.809-.498.622-3.544.56-5.409-.062-1.864.187-12.868-.187-14.484-.374-1.617-2.539-1.239-3.17-1.181-.684.062-1.057.373-1.368 1.119zm-17.957-.37s1.67-.334 3.784-.612c2.114-.279 2.782-.501 3.005-.446.222.056.334.668 0 .835-.334.167-1.614.278-1.892 1.113-.279.834-.167 7.79-.167 7.79s0 .946.167 1.001c.167.056 4.006-.5 5.453-.556 1.446-.056 4.174-.222 4.563-.334.389-.111.444-.057.444-1.28v-6.51s.001-1.169-.611-1.391c-.612-.222-1.558-.334-1.558-.445 0-.112-.223-.78.111-.78s5.564-.277 7.011-.222c1.447.056 8.346.669 10.516 1.058s4.787.834 4.953.834c.167 0 .501 4.841.501 4.841s-.39.11-.78-.111c-.39-.223-.5-2.336-1.669-3.171-1.168-.836-2.337-1.28-4.84-1.503-2.505-.223-3.395-.613-3.227.5.166 1.113-.057 7.512-.057 7.512s-.222.946.612 1.058c.835.111 4.007.668 5.064.612 1.057-.056 1.336-.445 1.558-1.725.223-1.28-.111-.723.223-.835.333-.111.946.001.89.445-.056.445-.334 1.335-.278 3.339.055 2.003.389 3.172.222 3.394-.167.223-.778.334-.89 0-.111-.333-.445-2.28-.946-2.726-.5-.445-2.894-.946-4.23-1.057-1.334-.112-2.168-.334-2.168.166 0 .501-.169 4.397-.057 6.01.112 1.614-.055 3.004 1.002 3.56 1.057.558 6.399 1.504 7.345 1.56.946.054 1.948-.279 2.894-1.948.945-1.67 1.057-1.28 1.39-1.058.335.223.223.056.111.613-.11.556-.946 2.782-1.28 3.784-.333 1-.667.39-1.112.333-.445-.056-5.508-1.336-10.46-1.67-4.953-.333-8.737-.39-9.794-.278-1.057.112-2.337.224-2.504.168-.167-.056-.556-.835 0-.946.556-.111 1.724-.334 2.003-1.28.278-.946.056-6.678.111-7.68.056-1 .224-1.613-.834-1.613-1.057 0-2.058-.055-5.12.279-3.06.333-4.73.278-4.73.89 0 .611-.055 4.006-.055 6.232s.056 3.228.723 3.506c.668.277 1.558.221 1.78.277.224.056.168.557 0 .724-.166.167-1 .167-2.336.334-1.335.167-4.563.89-4.674.89-.111 0-.222-.668.111-.89.334-.223 1.447-.39 1.78-1.335.335-.947.334-17.863.223-18.697-.11-.835-.166-1.725-.89-1.78-.723-.056-1.39.222-1.446.056-.057-.168.055-.836.055-.836z" fill="#FFF"/><path d="M127.34 119.064c-.31.186-.248 1.99-.248 3.233 0 1.244-.187 6.403.125 6.9.238.38 1.802.684 3.668 1.057 1.865.374 3.356-.435 3.978-2.797.753-2.859-.932-5.284-2.673-6.652-1.74-1.368-3.544-1.617-3.544-1.617s-.994-.31-1.305-.124zm-5.034-2.486s8.392 1.864 10.07 2.548c1.679.684 5.596 2.673 5.657 6.776.063 4.104-1.988 4.788-3.107 5.16-1.12.374-1.43.187-.995 1.058.435.87 4.226 8.454 6.589 11.624 2.362 3.17 3.792 5.471 5.408 6.28 1.617.807 2.114 1.304 1.181 1.304-.932 0-4.685-1.113-6.402-3.294-5.533-7.025-8.704-14.795-9.947-15.914-1.243-1.12-3.046-1.617-3.42-1.43-.373.186-.247.124-.31 3.045-.063 2.922-.125 5.097.497 5.782.622.684 1.989 1.244 2.3 1.43.311.187.124.871-.124.808-.249-.063-2.487-.809-3.792-1.181-1.305-.373-2.926-.699-3.792-.808-.497-.063-.879-.131-.995-.933-.062-.435 1.368.186 2.176-.124.808-.311.87-.497.87-3.482 0-2.983.064-15.167-.124-15.976-.187-.808-.497-1.181-1.368-1.492-.87-.31-1.463-.493-1.118-1.181.124-.248.746 0 .746 0z" fill="#FFF"/><path d="M154.38 126.46s-1.017-.488-2.12-1.009c-1.815-.857-5.6-2.573-8.174-1.816-2.574.756-3.633 2.22-3.785 4.743-.152 2.524.303 4.441 6.762 11.254 6.46 6.813 7.166 10.8 6.359 12.616-.808 1.816-4.709 4.24-8.291 2.473-3.583-1.766-5.184-3.532-6.496-4.996-1.312-1.464-2.573-3.936-2.573-3.936s-.91-.758-.96 0c-.05.757.506 4.238.657 4.945.151.706.1.909.404 1.16.302.253 5.803 3.383 8.78 4.29 2.978.909 7.273 2.462 10.8-2.624 2.17-3.13.605-7.57-1.01-10.042-.95-1.457-3.582-4.693-7.973-8.983-3.652-3.567-5.136-7.252-1.817-9.336 2.17-1.362 6.367 1.606 6.712 1.918 1.06.959 1.514 1.766 1.817 2.926.303 1.16.453 1.767 1.06 1.867.606.102.657-.1.606-.756-.051-.656-.758-4.693-.758-4.693" fill="#FFF"/></g></svg>