<svg width="200" height="200" xmlns="http://www.w3.org/2000/svg"><g fill-rule="nonzero" fill="none"><path d="M46.37 122.153S32.09 80.005 2.48 53.529l47.724 5.575L65.532 78.61s-20.552-8.36-21.944-.698c-1.395 7.665 23.684 5.575 23.684 5.575l8.36 17.415s-21.595-3.83-19.158 2.79c2.438 6.616 20.902 4.527 20.902 4.527s3.483 12.19 2.787 14.282l-33.792-.35M75.284 129.117l20.204-18.808s6.97 22.293 14.633 20.552c0 0-.348-12.192-8.711-27.516 0 0 12.544-22.645 29.959-32.746 0 0 1.044 36.228 5.922 29.956 0 0 4.179-13.933 1.392-31.7 0 0 3.483 4.531 27.866-18.46 0 0-8.358 58.52-5.919 65.487 0 0-6.62 4.181-10.104 9.755 0 0-5.222 6.27-9.404 7.316 0 0-3.138-9.405-16.721-19.16 0 0 2.439 21.595 5.225 24.73 0 0-15.672 11.845-22.99 12.89 0 0-16.371-18.811-31.352-22.296M83.995 161.168s17.415-2.09 18.11-4.182c0 0 14.286 20.902 21.948 15.328 0 0 4.53-.348-13.932-18.463 0 0 8.358-2.437 11.495-6.62 0 0 6.618 6.972 40.056 14.98 0 0-22.989 18.466-56.08 27.87 0 0-6.27-19.857-21.597-28.913" fill="#FFF"/><path d="m30.698 138.178-6.27 2.437s2.088-7.316 11.146-6.967l-4.876 4.53Zm-12.89 2.437s-.697 10.45 8.36 15.328l-1.044-8.011s18.114-8.711 27.17 3.132l6.618.35s5.923-13.236 12.193-13.934c0 0 8.01-1.74 12.89 19.158 0 0 8.705 2.44 17.415-3.135 0 0-41.8-50.158-83.601-12.888Z" fill="#FFF"/><path d="M60.306 153.156s11.496-2.44 20.553 4.529c0 0-1.395-18.464-11.147-16.72 0 0-1.742-.698-9.406 12.191M61.35 155.943s-3.134 2.438-2.786 5.574c0 0-9.754 8.357 3.135 13.583 0 0-5.922-10.101 2.438-11.146 0 0 10.103 2.44 10.103 7.663 0 0-1.392 1.397-3.138 2.789 0 0 6.274 3.132 9.409-6.62 0 0-8.012-3.483-7.317-10.101 0 0-7.662-2.439-11.844-1.742" fill="#FFF"/><path d="M57.866 154.898s-12.886 18.808 0 21.597l-7.662 5.225s-5.574-6.967-11.146-6.967c0 0 7.313-6.966 13.236-20.55l5.572.695M42.541 193.216s7.314 1.045 7.314-7.663c0 0-5.225-3.833-5.922-3.484 0 0-19.505-15.327-25.777 2.092 0 0-1.394 7.314 4.528 8.357 0 0-4.528-10.1 5.924-8.357 0 0 4.179-8.363 12.19 1.043 0 0 10.452 4.876 1.743 8.012" fill="#FFF"/><path d="M46.37 122.153S32.09 80.005 2.48 53.529l47.724 5.575L65.532 78.61s-20.552-8.36-21.944-.698c-1.395 7.665 23.684 5.575 23.684 5.575l8.36 17.415s-21.595-3.83-19.158 2.79c2.438 6.616 20.902 4.527 20.902 4.527s3.483 12.19 2.787 14.282l-33.792-.35M75.284 129.117l20.204-18.808s6.97 22.293 14.633 20.552c0 0-.348-12.192-8.711-27.516 0 0 12.544-22.645 29.959-32.746 0 0 1.044 36.228 5.922 29.956 0 0 4.179-13.933 1.392-31.7 0 0 3.483 4.531 27.866-18.46 0 0-8.358 58.52-5.919 65.487 0 0-6.62 4.181-10.104 9.755 0 0-5.222 6.27-9.404 7.316 0 0-3.138-9.405-16.721-19.16 0 0 2.439 21.595 5.225 24.73 0 0-15.672 11.845-22.99 12.89 0 0-16.371-18.811-31.352-22.296M83.995 161.168s17.415-2.09 18.11-4.182c0 0 14.286 20.902 21.948 15.328 0 0 4.53-.348-13.932-18.463 0 0 8.358-2.437 11.495-6.62 0 0 6.618 6.972 40.056 14.98 0 0-22.989 18.466-56.08 27.87 0 0-6.27-19.857-21.597-28.913" fill="#C4122E"/><path d="m45.328 55.272 6.271 1.394s-1.395-15.33 3.135-16.025c0 0-5.924.348-9.406 14.63M37.314 54.225s-1.043-13.932 12.193-21.248c0 0-10.103 13.586-5.574 21.597l-6.619-.35M26.865 53.182S22.684 28.1 41.495 20.438c0 0-7.313 10.797-5.921 14.979l2.437 1.042s-5.224 12.543-3.83 17.07l-7.316-.347" fill="#FFF"/><path d="M15.022 52.137S5.964 17.997 30 6.156c0 0-9.754 16.372-4.53 21.944 0 0-6.964 16.72-2.437 24.385l-8.011-.348" fill="#FFF"/><path d="M4.918 50.047s-16.72-25.082 11.496-39.364c0 0-3.83 7.314-6.617 8.36 0 0-4.53 24.733 2.089 31.352l-6.968-.348M171.427 44.125s17.07-14.285 0-31.7c0 0 19.51-2.09 14.283 12.888 0 0 8.36 6.62-2.091 17.767 0 0-2.089 8.01-12.192 9.057v-8.012" fill="#FFF"/><path d="M170.382 58.058s24.732-11.146 25.781-35.182c0 0 6.964 4.527-1.397 14.28 0 0 8.01 11.496-1.392 18.813 0 0-8.01 11.496-22.992 12.54V58.06" fill="#FFF"/><path d="M168.99 71.992s24.033-3.137 31.002-18.115c0 0-5.922 12.193-3.829 14.633 0 0-2.093 9.054-27.172 10.449v-6.967" fill="#FFF"/><path d="M167.944 81.746s20.552 1.392 30.656-10.104c0 0 1.044 8.363-13.937 16.723 0 0-11.496 3.135-17.065-.698l.346-5.921M166.55 90.454s7.667 5.225 22.99 2.787c0 0-11.843 8.362-9.402 9.405 0 0-13.934.35-13.934-4.18l.345-8.012M165.505 102.298s1.397 4.53 12.542 3.482c0 0 0 6.621-12.89 3.137l.348-6.62" fill="#FFF"/><path d="m30.698 138.178-6.27 2.437s2.088-7.316 11.146-6.967l-4.876 4.53Zm-12.89 2.437s-.697 10.45 8.36 15.328l-1.044-8.011s18.114-8.711 27.17 3.132l6.618.35s5.923-13.236 12.193-13.934c0 0 8.01-1.74 12.89 19.158 0 0 8.705 2.44 17.415-3.135 0 0-41.8-50.158-83.601-12.888Z" fill="#231F20"/><path d="M60.306 153.156s11.496-2.44 20.553 4.529c0 0-1.395-18.464-11.147-16.72 0 0-1.742-.698-9.406 12.191M61.35 155.943s-3.134 2.438-2.786 5.574c0 0-9.754 8.357 3.135 13.583 0 0-5.922-10.101 2.438-11.146 0 0 10.103 2.44 10.103 7.663 0 0-1.392 1.397-3.138 2.789 0 0 6.274 3.132 9.409-6.62 0 0-8.012-3.483-7.317-10.101 0 0-7.662-2.439-11.844-1.742" fill="#231F20"/><path d="M57.866 154.898s-12.886 18.808 0 21.597l-7.662 5.225s-5.574-6.967-11.146-6.967c0 0 7.313-6.966 13.236-20.55l5.572.695M42.541 193.216s7.314 1.045 7.314-7.663c0 0-5.225-3.833-5.922-3.484 0 0-19.505-15.327-25.777 2.092 0 0-1.394 7.314 4.528 8.357 0 0-4.528-10.1 5.924-8.357 0 0 4.179-8.363 12.19 1.043 0 0 10.452 4.876 1.743 8.012M45.328 55.272l6.271 1.394s-1.395-15.33 3.135-16.025c0 0-5.924.348-9.406 14.63M37.314 54.225s-1.043-13.932 12.193-21.248c0 0-10.103 13.586-5.574 21.597l-6.619-.35M26.865 53.182S22.684 28.1 41.495 20.438c0 0-7.313 10.797-5.921 14.979l2.437 1.042s-5.224 12.543-3.83 17.07l-7.316-.347" fill="#231F20"/><path d="M15.022 52.137S5.964 17.997 30 6.156c0 0-9.754 16.372-4.53 21.944 0 0-6.964 16.72-2.437 24.385l-8.011-.348" fill="#231F20"/><path d="M4.918 50.047s-16.72-25.082 11.496-39.364c0 0-3.83 7.314-6.617 8.36 0 0-4.53 24.733 2.089 31.352l-6.968-.348M171.427 44.125s17.07-14.285 0-31.7c0 0 19.51-2.09 14.283 12.888 0 0 8.36 6.62-2.091 17.767 0 0-2.089 8.01-12.192 9.057v-8.012" fill="#231F20"/><path d="M170.382 58.058s24.732-11.146 25.781-35.182c0 0 6.964 4.527-1.397 14.28 0 0 8.01 11.496-1.392 18.813 0 0-8.01 11.496-22.992 12.54V58.06" fill="#231F20"/><path d="M168.99 71.992s24.033-3.137 31.002-18.115c0 0-5.922 12.193-3.829 14.633 0 0-2.093 9.054-27.172 10.449v-6.967" fill="#231F20"/><path d="M167.944 81.746s20.552 1.392 30.656-10.104c0 0 1.044 8.363-13.937 16.723 0 0-11.496 3.135-17.065-.698l.346-5.921M166.55 90.454s7.667 5.225 22.99 2.787c0 0-11.843 8.362-9.402 9.405 0 0-13.934.35-13.934-4.18l.345-8.012M165.505 102.298s1.397 4.53 12.542 3.482c0 0 0 6.621-12.89 3.137l.348-6.62" fill="#231F20"/></g></svg>