<?xml version="1.0" encoding="UTF-8"?>
<svg width="200px" height="200px" viewBox="0 0 200 200" version="1.1" xmlns="http://www.w3.org/2000/svg" xmlns:xlink="http://www.w3.org/1999/xlink">
    <!-- Generator: Sketch 51.3 (57544) - http://www.bohemiancoding.com/sketch -->
    <title>eastern-ill</title>
    <desc>Created with Sketch.</desc>
    <defs></defs>
    <g id="eastern-ill" stroke="none" stroke-width="1" fill="none" fill-rule="evenodd">
        <g id="eastern-ill_BGL" transform="translate(0.000000, 32.000000)">
            <g id="eastern-ill">
                <g id="g10" transform="translate(99.955847, 67.908165) scale(-1, 1) rotate(-180.000000) translate(-99.955847, -67.908165) translate(0.000000, 0.093597)" fill-rule="nonzero">
                    <g id="g12" transform="translate(0.000000, 0.158940)">
                        <path d="M155.436994,43.8384095 C155.490327,43.8520077 161.660923,41.5069305 159.404499,33.6091824 C158.236817,29.5228249 153.566619,31.4687851 153.566619,31.4687851 C153.566619,31.4687851 157.652976,28.7447233 159.98834,22.9068427 C162.323175,17.0693329 161.545073,11.6208562 155.318142,7.34023823 C149.09121,3.05891383 139.725736,10.641077 117.737745,14.533174 C95.7504612,18.4247236 80.0135962,14.1503219 55.1064004,6.95067532 C30.1990279,-0.249172621 15.6058981,-1.41632138 8.99000419,1.50234522 C2.37403968,4.42087406 2.56856506,12.2045383 3.54138622,16.0965824 C4.51434867,19.9881673 10.7412448,21.1558494 10.7412448,21.1558494 L11.1303132,41.1978798 C11.1303132,41.1978798 9.59298872,40.6652528 7.84174815,43.1948775 C6.45384531,45.1999989 5.79842811,50.0921842 11.4182602,50.8584535 C14.202684,51.2381444 17.293951,50.8584535 17.293951,50.8584535 L17.217642,50.913906 C16.7835934,51.4424711 17.0480879,51.0952747 15.8527148,52.2905064 C13.9070019,54.23629 13.4264014,55.3663562 13.4264014,55.3663562 C13.4264014,55.3663562 18.8748781,62.3713892 21.7937301,64.9008372 C24.7125822,67.4306385 28.7987631,71.3223823 28.7987631,71.3223823 C28.7987631,71.3223823 21.4045028,65.4846783 18.4858274,62.7607931 C15.5669753,60.0363782 12.84279,56.339248 12.84279,56.339248 C12.84279,56.339248 11.8309224,58.0614555 10.0818187,62.4335525 C8.72337285,65.8285193 7.97806603,67.8198659 7.97806603,67.8198659 C7.97806603,67.8198659 33.857306,87.6678124 42.6138621,93.3109027 C51.3704181,98.9538165 81.7259141,119.19099 81.7259141,119.19099 C81.7259141,119.19099 63.2393803,109.850593 40.8626921,94.8676356 C18.4858274,79.8841481 6.61589387,71.1279452 6.61589387,71.1279452 C6.61589387,71.1279452 5.88473274,72.0513889 2.52958934,75.2143028 C0.7161289,76.9236184 0,77.7439274 0,77.7439274 C0,77.7439274 18.0958936,94.0898873 49.2298442,110.629048 C80.3637949,127.168209 91.2607483,128.531034 94.9577018,129.50375 C98.6550086,130.476641 101.379247,129.698363 106.049445,130.865692 C110.719467,132.033374 117.918408,133.979158 122.004765,134.95205 C126.090946,135.925295 140.684853,135.14684 144.57695,134.95205 C148.468517,134.757436 155.66834,132.227458 162.478936,128.724942 C169.289709,125.222425 176.293859,122.304456 178.43355,121.331388 C180.573947,120.358496 183.104631,117.050416 184.854742,112.964059 C186.606618,108.877878 188.164234,106.737481 191.860481,103.234611 C195.558494,99.7322712 199.839289,96.8134192 199.839289,92.921852 C199.839289,89.0299315 199.060481,88.2516534 195.364234,82.9976138 C191.66622,77.7439274 186.023836,67.0415877 186.023836,67.0415877 L183.883439,73.6575699 L179.212358,65.6794686 L177.07196,75.2143028 L166.954345,75.0196891 C166.954345,75.0196891 165.646795,73.7218525 166.944632,68.3450756 C167.823395,64.7064001 174.348075,61.3983208 174.348075,61.3983208 L184.27196,64.3173494 C184.27196,64.3173494 177.07196,50.6968641 174.542336,46.9997339 C172.013594,43.3027804 170.262424,43.6918311 167.538186,43.3027804 C164.813771,42.9133764 155.752049,43.7054294 155.752049,43.7054294 L155.436994,43.8384095" id="path14" fill="#1266AC"></path>
                        <path d="M96.984545,61.4285194 C96.8722272,59.8498881 96.5495782,57.9131111 96.5495782,57.9131111 C96.5495782,57.9131111 103.118408,57.5925813 106.963176,57.272758 C110.807768,56.9522282 119.6196,56.1506388 120.420483,55.5097558 C121.221189,54.8695792 121.50269,54.9508154 121.50269,54.9508154 L125.026928,56.2324048 C128.660836,56.9506388 130.347546,56.6693143 135.405736,56.6693143 C139.481674,56.6693143 147.426221,56.1905505 152.153109,52.3457824 C154.750548,50.2336411 154.300923,49.7831334 156.021012,48.2880341 C157.739687,46.791522 158.783749,45.2980121 161.8211,45.2980121 C163.541188,45.2980121 165.25898,45.2980121 165.25898,45.2980121 C171.060835,45.2980121 171.490327,46.1511688 173.639378,49.142427 L180.330238,61.0294024 L174.452799,59.4906828 C163.541188,63.6662236 162.366618,71.6854728 165.473903,77.5493137 L178.896243,77.5199981 L180.287854,71.2731108 L184.14834,77.8532431 L185.499333,77.893508 L187.019863,72.1494022 L194.696684,85.4516535 C199.208825,90.7908145 199.851651,92.4996003 196.199554,95.9161124 C195.196463,96.8531543 193.192048,99.3342139 189.324499,103.177922 C185.456949,107.022514 184.596905,109.584986 183.523174,112.149225 C182.075051,116.484589 179.869311,118.557171 174.624808,120.927149 L156.449621,129.448827 C150.434787,132.438496 147.426221,133.079379 141.409445,133.079379 L125.509224,133.079379 C121.427635,133.079379 118.2045,132.438496 115.411035,131.370593 C111.047414,129.924588 107.438938,129.166619 104.26737,128.70163 C89.6358476,123.729445 59.4852082,103.07832 51.9577912,97.6739931 C44.7341269,92.4891809 13.9817215,71.6586296 10.5524942,68.1903736 C11.4521322,65.8859145 12.1810151,63.3123163 13.6389401,59.8659588 C19.2072401,69.1708592 65.6478571,104.522028 92.8510352,119.411035 C66.6020292,100.405825 21.5803968,65.7585856 16.1560437,55.5161134 C17.4783395,53.7391598 18.3219421,51.8883872 20.1743041,50.3129347 C20.1743041,50.3129347 27.7811914,50.2943917 31.5056946,49.1019855 C35.5106393,47.820043 36.3122287,44.6163344 36.3122287,44.6163344 C36.3122287,44.6163344 37.5934648,47.4996898 39.5161138,47.820043 C41.4389394,48.1405727 43.3614117,47.6596898 43.6819415,46.8589834 C44.0022947,46.058277 44.4826479,44.4559812 44.4826479,44.4559812 C44.4826479,44.4559812 44.6428245,45.898277 47.2061798,46.6989834 C49.7695352,47.4996898 52.4845903,48.9395131 54.7358927,48.6216323 C56.9870184,48.303575 57.6194246,45.898277 57.6194246,45.898277 C57.6194246,45.898277 58.9015438,54.2279898 59.5422502,55.8302856 C60.18278,57.4325813 62.7468417,58.7138175 63.8680779,58.2334643 C64.9891374,57.7529345 66.2703736,58.0734643 66.2703736,58.0734643 C66.2703736,58.0734643 73.6393801,59.9954069 79.5675035,61.1169963 C85.495627,62.2389388 90.1411015,63.0396452 90.1411015,63.0396452 C90.1411015,63.0396452 91.1035739,64.4821176 93.0253398,64.4821176 C94.2864436,64.4821176 95.3418078,64.2747887 96.0536841,63.9505503 C96.0536841,63.9505503 106.725825,71.1270622 117.983397,69.8765545 C125.570151,69.0338173 130.628518,64.818718 130.628518,64.818718 C130.628518,64.818718 121.63673,72.1246781 108.429313,67.9095789 C97.9313,64.5591154 96.984545,61.4285194 96.984545,61.4285194" id="path16" fill="#231F20"></path>
                        <path d="M64.4429123,112.801763 C50.9054292,105.831874 8.90101523,76.4595124 6.19832214,73.7165544 C5.15203519,74.9836626 3.81471072,76.3330665 2.03408383,77.8629561 C14.2820835,90.2505938 72.9297995,125.190284 94.4151853,127.540129 C96.7577901,127.7962 103.608121,128.298981 106.338364,128.639467 C89.6605717,124.384279 79.1530223,120.375626 64.4429123,112.801763" id="path18" fill="#231F20"></path>
                        <path d="M123.854125,113.784368 L102.366267,111.949313 C104.514434,106.182072 105.374302,103.618894 113.6913,102.876289 C114.77439,100.764148 116.338717,97.9562006 121.988871,97.9772161 L120.95099,98.007768 C115.300483,97.9869291 114.144986,99.9752734 113.061896,102.086002 C104.907194,102.035141 100.792404,106.892183 100.729711,113.845119 L122.814302,113.815803" id="path20" fill="#FFFFFF"></path>
                        <path d="M190.166883,91.07832 L197.771297,92.3669734 L188.056507,92.3152295 C188.955404,89.3096666 190.244587,86.1057815 193.467545,84.3973489 C190.460039,88.6684305 190.518318,89.0029117 190.166883,91.07832" id="path22" fill="#FFFFFF"></path>
                        <path d="M171.738804,100.005296 C168.232579,100.389931 164.736773,101.466311 164.046089,105.657393 L170.107545,105.652977 L171.738804,100.005296" id="path24" fill="#FFFFFF"></path>
                        <path d="M171.093859,100.005296 C169.206353,100.605737 167.149488,102.04556 166.196376,105.647679 L168.603263,105.652977 L171.093859,100.005296" id="path26" fill="#231F20"></path>
                        <polyline id="path28" fill="#FFFFFF" points="154.718407 107.002381 170.316994 107.260571 170.316994 108.46322"></polyline>
                        <polygon id="path30" fill="#FFFFFF" points="171.931828 104.653066 179.731563 103.404501 172.452976 103.404501"></polygon>
                        <path d="M173.788075,59.5313009 L170.181541,53.8820296 C168.677435,54.5220295 166.730768,56.018365 166.515139,57.0853849 L173.788075,59.5313009" id="path32" fill="#FFFFFF"></path>
                        <path d="M138.409886,87.8085629 C139.864014,87.9962892 157.254212,93.4216312 169.760879,90.419777 C180.920084,87.7419846 182.105073,84.6180994 184.146574,83.2671061 C180.545691,86.5317418 175.982689,88.6721391 168.628693,89.7418079 C161.275404,90.812713 150.480526,90.0566865 138.409886,87.8085629" id="path34" fill="#FFFFFF"></path>
                        <path d="M135.390019,80.7293578 C136.793462,81.0504174 153.084323,87.3997329 166.066221,85.5833974 C177.65121,83.9616756 179.440172,80.9755388 181.727148,79.8260466 C177.518759,82.7267087 172.575713,84.4248986 165.078142,84.8067087 C157.58057,85.186223 146.907899,84.0745233 135.390019,80.7293578" id="path36" fill="#FFFFFF"></path>
                        <path d="M142.750019,94.1737725 C144.223043,94.2650749 162.207148,97.8746112 174.231166,94.0584524 C184.962468,90.65183 185.700658,87.4650751 187.540834,85.9846336 C184.418538,89.472139 180.176596,91.9044569 173.008208,93.4583641 C165.839819,95.0103288 155.080261,95.612183 142.750019,94.1737725" id="path38" fill="#FFFFFF"></path>
                        <polyline id="path40" fill="#231F20" points="184.443262 79.4855609 188.097126 88.0271943 189.815448 85.8924482 186.806176 78.8432651 184.443262 79.4855609"></polyline>
                        <path d="M165.535537,58.3406608 C159.519643,66.2431772 160.593373,72.0095346 162.311872,76.7078127 C160.593373,73.2900644 159.089091,69.8735523 160.378981,66.0296672 C161.690769,62.1154951 163.601409,59.6217204 165.535537,58.3406608" id="path42" fill="#FFFFFF"></path>
                        <path d="M12.6663838,42.4196016 L12.4714346,19.4207501 C12.4714346,19.4207501 9.35327129,19.5182335 7.50172167,17.9588516 C5.65017204,16.4001762 3.60409704,11.4306752 6.04008815,7.33753624 C8.4760616,3.24448557 13.0559467,0.711023382 28.9403966,2.75745688 C44.8245463,4.80339061 76.9824263,17.2766265 92.4775253,17.9588516 C107.972624,18.6417655 114.696509,17.277174 122.199909,15.5231784 C129.703661,13.7688297 137.401851,11.7233021 141.689533,10.1637084 C145.977038,8.60416756 149.777656,6.84960689 154.357789,8.99392472 C158.938274,11.1381719 162.836729,19.713377 153.968738,29.0687851 C147.037171,36.3812794 143.872491,38.6297562 146.562469,39.8853853 C148.024191,40.5681226 150.166707,39.4963346 150.654654,38.6189836 C151.142601,37.7419858 151.630018,33.356997 154.650592,33.0641934 C157.671166,32.7717431 157.671696,34.4277254 157.379069,38.4236635 C157.086442,42.4196016 155.81951,43.0046788 154.357789,43.7840166 C152.896067,44.5630011 147.147723,47.5842814 143.736332,46.7074602 C140.325118,45.8299326 139.643264,44.9529349 139.643264,44.9529349 C139.643264,44.9529349 138.570769,48.1690054 133.211299,50.4104182 C127.852182,52.6520075 122.979246,53.5290053 122.004765,53.5290053 C121.030284,53.5290053 120.64035,53.430992 120.64035,53.430992 C120.64035,53.430992 120.641057,54.6006167 116.645295,55.1851642 C112.649357,55.769535 107.484677,56.5494026 102.807238,56.4522723 C98.1296223,56.3549655 95.4982758,56.4522723 95.4982758,56.4522723 C95.4982758,56.4522723 95.8887393,58.7902855 96.083353,60.8370846 C96.2781433,62.8842368 93.743927,63.7612346 92.2822052,63.3714774 C90.8204834,62.9815437 90.6260463,62.1040161 90.6260463,62.1040161 C90.6260463,62.1040161 82.0497993,60.9343914 75.4233977,59.0827358 C68.7969961,57.2310802 65.4837953,56.6470626 65.4837953,56.6470626 C65.4837953,56.6470626 63.7296231,58.1094908 61.7806607,56.3549655 C59.8318749,54.6006167 60.1245018,53.1381885 59.6372612,51.0924491 C59.1500206,49.0460032 58.2737292,46.2207494 59.1500206,45.1480783 C60.026312,44.0759371 60.9034863,43.9775706 61.6833539,44.1732439 C62.4632214,44.3682108 63.3403958,45.1480783 63.3403958,45.1480783 C63.3403958,45.1480783 63.6323163,44.6611909 64.3147004,44.6611909 C65.1913449,44.6611909 65.7764222,44.8558046 65.7764222,44.8558046 C65.7764222,44.3682108 65.873729,36.7671514 65.873729,36.7671514 C65.873729,36.7671514 62.6569521,39.3992043 60.026312,41.5422506 C57.3958485,43.6856501 55.7379236,45.6347891 55.3488728,46.3175264 C54.9594688,46.9997339 54.1804843,47.4873277 53.1079898,47.097394 C52.035672,46.7074602 51.0604844,46.4153631 49.306842,46.1227362 C47.5533763,45.8299326 45.799734,45.0509481 45.2144801,43.7840166 C44.6294029,42.5167318 44.532096,39.983222 45.8963344,39.5934648 C47.2607494,39.203531 48.3325374,39.9825156 48.3325374,39.3983213 C48.3325374,38.8135973 48.4305507,35.8905068 48.4305507,35.8905068 C48.4305507,35.8905068 47.74799,36.6693148 46.8708156,36.6693148 C45.9936412,36.6693148 45.7017207,36.4750543 45.7017207,36.4750543 C45.7017207,36.4750543 43.8502417,43.4913896 43.460308,44.8558046 C43.0703742,46.2198664 41.4142153,47.6822946 39.0753191,46.1227362 C36.7365995,44.5630011 36.0547452,41.5422506 36.0547452,41.5422506 C36.0547452,41.5422506 35.0788512,47.097394 29.4276372,48.4612791 C23.7757168,49.8258707 15.0056508,49.3379237 12.5691299,49.14331 C10.132662,48.9488729 8.67101082,48.3634425 8.86596004,45.4401755 C9.06090927,42.5167318 12.6663838,42.4196016 12.6663838,42.4196016" id="path44" fill="#231F20"></path>
                        <polyline id="path46" fill="#FFFFFF" points="12.60279 11.1784545 16.5121409 11.1394258 16.5017214 10.299673 13.5869842 10.3298894 13.5608473 8.32478566 16.3775537 8.29580553 16.3670636 7.45660026 13.5503573 7.48503293 13.5241498 5.44280781 16.5369002 5.4128034 16.5264278 4.57305066 12.5186222 4.61368642 12.60279 11.1784545"></polyline>
                        <path d="M12.6474169,4.73958487 L16.4007943,4.70143918 L16.4081056,5.28690495 L13.3953551,5.31712128 L13.424812,7.61340378 L16.2414477,7.58498877 L16.2488296,8.16990708 L13.431982,8.19888721 L13.4615096,10.4584721 L16.3761056,10.4282558 L16.3834168,11.0135273 L12.7283352,11.0498717 L12.6474169,4.73958487 Z M16.6521144,4.44453852 L12.3897569,4.48778797 L12.4772271,11.306843 L16.6408649,11.2653772 L16.6273373,10.1712845 L13.7126178,10.2015008 L13.689642,8.45068412 L16.5062777,8.42170398 L16.4927501,7.32801748 L13.6759025,7.35645015 L13.6530151,5.5687769 L16.6656243,5.53856057 L16.6521144,4.44453852 Z" id="path48" fill="#FFFFFF"></path>
                        <path d="M23.3691826,7.32346119 L22.2645469,9.78897989 L21.2724056,7.31230004 L23.3691826,7.32346119 Z M21.9212357,11.2847679 L22.5916109,11.2878055 L25.6429133,4.44570408 L24.6597786,4.44081225 L23.7568206,6.45213229 L20.9022511,6.439576 L20.0810591,4.41804845 L19.0984543,4.41377472 L21.9212357,11.2847679 Z" id="path50" fill="#FFFFFF"></path>
                        <path d="M22.2710811,9.46205716 L21.4613681,7.44109474 L23.1726264,7.45004838 L22.2710811,9.46205716 Z M21.0832666,7.18377024 L22.2580127,10.1156907 L23.5657389,7.19682101 L21.0832666,7.18377024 Z M22.0070635,11.1576333 L19.2891827,4.5423575 L19.9950547,4.54518311 L20.8162467,6.56692257 L23.839293,6.58016761 L24.742251,4.56863565 L25.4467102,4.57236192 L22.5089619,11.1597701 L22.0070635,11.1576333 Z M18.9075492,4.28538621 L21.8355844,11.4121145 L22.6744365,11.4158408 L25.8389398,4.31911689 L24.5773062,4.31277693 L23.6743482,6.32422059 L20.9884321,6.31222942 L20.1670635,4.29070188 L18.9075492,4.28538621 Z" id="path52" fill="#FFFFFF"></path>
                        <path d="M30.4909485,7.90956272 L29.7630015,8.34933312 C29.3070191,8.62714327 28.9838403,8.90170397 28.7943481,9.17439271 C28.605209,9.44584524 28.5130236,9.76317856 28.5206174,10.1218187 C28.5317432,10.6592845 28.7277697,11.0993375 29.1049882,11.4405295 C29.4820302,11.7815273 29.966975,11.9569622 30.5598226,11.9659158 C31.125827,11.9754346 31.6406173,11.8193375 32.1061361,11.5033816 L32.0807056,10.3977039 C31.604061,10.8605737 31.0837961,11.0887768 30.5193811,11.0795406 C30.2036196,11.0754611 29.9417211,10.9983397 29.7350986,10.8463044 C29.5270633,10.6963353 29.4207498,10.5049004 29.4172178,10.2760086 C29.4117432,10.0706399 29.4837962,9.88134192 29.6289617,9.70543022 C29.7755401,9.52951853 30.0135975,9.34484745 30.3413679,9.15480772 L31.0701979,8.72496225 C31.8830897,8.23717419 32.2827365,7.6123795 32.2648999,6.84471506 C32.2535974,6.29670624 32.062869,5.84988948 31.6914782,5.50269302 C31.3202641,5.15480782 30.8443259,4.97592924 30.2627807,4.96743475 C29.595231,4.95701533 28.9898447,5.15673276 28.4501538,5.56837072 L28.4762907,6.8056687 C28.9866659,6.14182766 29.5839286,5.81684754 30.2756725,5.82608374 C30.5778359,5.83118749 30.8346129,5.92038837 31.0419418,6.09532877 C31.2460919,6.26876806 31.352582,6.48441485 31.3562906,6.7403442 C31.36671,7.15673271 31.0770853,7.54580114 30.4909485,7.90956272" id="path54" fill="#FFFFFF"></path>
                        <path d="M28.5799551,5.63175262 C29.0800876,5.26641929 29.6413238,5.08713453 30.2608381,5.09582327 C30.8060036,5.10375263 31.2579242,5.27221179 31.6037078,5.59643253 C31.9516107,5.9215716 32.1259153,6.33077247 32.1366879,6.84732875 C32.1532884,7.56946559 31.7829573,8.14762011 31.0041493,8.61492252 L30.2760257,9.04422052 C29.9381891,9.24007041 29.6870633,9.43509027 29.5302421,9.62334634 C29.3637079,9.82520064 29.2826483,10.0457393 29.2888293,10.2793816 C29.2930677,10.549598 29.4179242,10.7759997 29.6598668,10.9504633 C29.8859154,11.1164501 30.1748337,11.2034964 30.5177917,11.2079114 C31.0345246,11.2141278 31.5145246,11.0380748 31.9586747,10.6779865 L31.9761581,11.4354258 C31.5475489,11.7108871 31.0721405,11.8412712 30.5621184,11.837545 C30.0040611,11.8292624 29.5429573,11.6635582 29.1909926,11.3453419 C28.841677,11.0290505 28.6592487,10.6165119 28.6488293,10.119205 C28.6419419,9.78966863 28.7263569,9.4966885 28.8997785,9.24785849 C29.0774386,8.99199978 29.3901979,8.72674592 29.8297564,8.45916094 L30.558763,8.01856051 C31.184635,7.63003954 31.4963348,7.19874596 31.4845025,6.73716539 C31.4802641,6.44591595 31.3594694,6.19653848 31.1251206,5.99750978 C30.8958933,5.80400868 30.6108602,5.70329346 30.2777917,5.69785416 C29.6450324,5.68674599 29.0829132,5.9468078 28.5976152,6.46426474 L28.5799551,5.63175262 Z M30.2138624,4.8387107 C29.5378359,4.8387107 28.9184982,5.04973056 28.372273,5.46633099 L28.3205291,5.50606609 L28.3556726,7.17315655 L28.5780125,6.88404398 C29.0656063,6.24973053 29.6192487,5.95254731 30.2739065,5.95447226 C30.5460478,5.95888727 30.776688,6.03938175 30.9591162,6.19335967 C31.1367763,6.3443707 31.2247233,6.52379675 31.2279021,6.74226915 C31.2370853,7.10762013 30.96671,7.46316979 30.4238403,7.80008811 L29.6965997,8.23945233 C29.2192487,8.53015431 28.8898889,8.81200861 28.6889176,9.10113885 C28.4840611,9.39514325 28.3841053,9.73951411 28.3922289,10.1245207 C28.4040611,10.6954346 28.614922,11.1701896 29.0188072,11.5357348 C29.418454,11.896865 29.9362465,12.0849269 30.55788,12.0941631 C31.1448999,12.10596 31.6898888,11.9410152 32.178189,11.6095538 L32.236114,11.5703662 L32.2022067,10.1006443 L31.9911692,10.3056774 C31.5413679,10.7426222 31.048476,10.9578452 30.5215003,10.951364 C30.2327586,10.9474964 29.9938182,10.8773507 29.8110368,10.7428342 C29.6349661,10.6158231 29.5484319,10.4626752 29.5456063,10.2740836 C29.5408381,10.1001675 29.6007057,9.94156267 29.727858,9.78717856 C29.8650765,9.62258696 30.0930677,9.44708144 30.4056505,9.26587173 L31.1353635,8.83547881 C31.98905,8.32319626 32.412008,7.65245014 32.3932884,6.84167753 C32.3811029,6.2608387 32.1744804,5.77870184 31.7792487,5.40893585 C31.3852531,5.03966433 30.8755842,4.84789392 30.2647233,4.8390639 C30.2477697,4.83885198 30.230816,4.8387107 30.2138624,4.8387107 Z" id="path56" fill="#FFFFFF"></path>
                        <polyline id="path58" fill="#FFFFFF" points="34.8535091 12.2539335 40.9464007 13.456812 40.9734206 12.6323882 38.4310807 12.1305251 38.6195134 6.50048549 37.567328 6.29352744 37.3808379 11.9231432 34.8812353 11.4285383 34.8535091 12.2539335"></polyline>
                        <path d="M37.5056944,12.0803706 L37.6921845,6.45054289 L38.4858269,6.60665767 L38.2973942,12.2364853 L40.8397341,12.7385427 L40.8213676,13.2998142 L34.9871956,12.1478319 L35.0060918,11.5858893 L37.5056944,12.0803706 Z M37.4424715,6.13631773 L37.2559814,11.7658628 L34.7563788,11.2711697 L34.7199991,12.3598937 L41.0712573,13.6139688 L41.1069305,12.5264279 L38.5647672,12.0243529 L38.7530233,6.39417203 L37.4424715,6.13631773 Z" id="path60" fill="#FFFFFF"></path>
                        <polyline id="path62" fill="#FFFFFF" points="44.3959371 14.4851034 48.3811025 15.3875493 48.3392482 14.5628429 45.3693587 13.8898363 45.2729349 11.9192933 48.1423388 12.5705781 48.1027803 11.7460659 45.2310805 11.0945693 45.1335971 9.08913002 48.2052085 9.78511234 48.1633542 8.96033532 44.0792925 8.0335892 44.3959371 14.4851034"></polyline>
                        <path d="M44.5176148,14.3827281 L44.213862,8.194119 L48.0416765,9.06263995 L48.0702858,9.62472382 L44.9992042,8.92895342 L45.1092262,11.1966796 L47.980926,11.848088 L48.0079458,12.4104544 L45.1383653,11.7589754 L45.247681,13.9922116 L48.2175705,14.6650769 L48.2461798,15.2271608 L44.5176148,14.3827281 Z M43.944723,7.87320069 L44.2742594,14.587408 L48.5160253,15.5479378 L48.4607493,14.4606089 L45.491213,13.7875317 L45.4075044,12.0796818 L48.2769083,12.7307546 L48.2246346,11.6439732 L45.3527582,10.9924765 L45.2681666,9.24930661 L48.3401312,9.94543021 L48.2848553,8.85810132 L43.944723,7.87320069 Z" id="path64" fill="#FFFFFF"></path>
                        <path d="M53.076555,15.9198407 L52.7846344,15.8514786 L52.7122283,13.8189842 L53.0832658,13.9047944 C53.5788066,14.0195846 53.9199987,14.1377657 54.1079015,14.2595846 C54.2936852,14.3823043 54.4409699,14.5361409 54.550109,14.7208826 C54.6580119,14.9054301 54.7164666,15.1019511 54.7240604,15.3084323 C54.7298883,15.5101453 54.6813231,15.6810769 54.5728905,15.8191961 C54.4641046,15.9570857 54.3079898,16.0358671 54.1041929,16.056706 C53.8991598,16.0750548 53.5572614,16.0303572 53.076555,15.9198407 Z M51.5932879,9.95461344 L51.8260473,16.4123969 L53.5420737,16.8098715 C54.234524,16.9690239 54.7793364,16.9354345 55.175981,16.7042645 C55.5710361,16.4759201 55.7582326,16.085121 55.739513,15.5326972 C55.7253849,15.1570857 55.6144798,14.8082999 55.4048551,14.4886884 C55.1948772,14.1684588 54.9018971,13.8974125 54.5248551,13.6766619 C54.7381885,13.5908518 54.9469302,13.455152 55.1468419,13.2695979 C55.3479898,13.0823661 55.6293143,12.7426222 55.9872834,12.2488297 C56.2124489,11.9366001 56.3943474,11.7052359 56.5319191,11.5540836 L56.8785858,11.1763176 L55.7096675,10.9063132 L55.4267536,11.2623397 C55.416864,11.2752492 55.3983209,11.2974655 55.371301,11.3283706 L55.1878132,11.5378717 L54.9013673,11.9390902 L54.5905505,12.3669931 C54.3975262,12.5858187 54.2200428,12.7531652 54.0570406,12.8713463 C53.8961576,12.9898628 53.7479898,13.0677436 53.6148331,13.1058893 C53.4814998,13.144035 53.2561576,13.1258275 52.935981,13.051673 L52.6814998,12.9926884 L52.5804843,10.1829401 L51.5932879,9.95461344 Z" id="path66" fill="#FFFFFF"></path>
                        <path d="M52.9063121,15.7513815 L52.8430892,13.9779246 L53.0550097,14.0268429 C53.5337735,14.1377657 53.8652525,14.2513021 54.0397337,14.3646442 C54.2076808,14.4754433 54.3434865,14.6170592 54.4423827,14.7844941 C54.539513,14.9506751 54.5921399,15.128653 54.5988507,15.3128473 C54.6039721,15.4880703 54.5631774,15.6285912 54.4743474,15.742004 C54.3871068,15.8523793 54.2618971,15.9147369 54.0913011,15.932185 C53.8998662,15.9495095 53.5676808,15.9043175 53.1049876,15.7978098 L52.9063121,15.7513815 Z M52.5813673,13.6602557 L52.6629567,15.9514345 L53.0486521,16.0416596 C53.5440163,16.1559731 53.8929788,16.2006 54.1153187,16.1813682 C54.3549655,16.1568031 54.541279,16.061121 54.6710803,15.8968649 C54.7961134,15.737589 54.855981,15.5383484 54.8490936,15.304706 C54.8407933,15.0778098 54.7766874,14.8605736 54.6581885,14.657695 C54.539513,14.4565471 54.3775704,14.2876641 54.1769523,14.1550725 C53.9740384,14.0235228 53.6259589,13.9019687 53.1115219,13.7829754 L52.5813673,13.6602557 Z M51.947725,16.311876 L51.7243254,10.1135538 L52.4588066,10.2834611 L52.5598221,13.0929975 L52.9075483,13.1737039 C53.2565108,13.2544103 53.4922724,13.2711696 53.6492702,13.2263308 C53.7979677,13.1835758 53.960087,13.0981012 54.1313894,12.9719908 C54.3005726,12.8494831 54.4868861,12.673695 54.6843253,12.4497834 L55.2897116,11.6105781 L55.4654291,11.4106664 C55.4952746,11.3767944 55.5155836,11.3522293 55.5263562,11.33796 L55.7584092,11.0460041 L56.6410582,11.2499953 L56.4397337,11.4692977 C56.2958043,11.6277613 56.1094909,11.8652712 55.8857381,12.1756995 C55.5378353,12.6555582 55.2605726,12.9928297 55.0615439,13.1777657 C54.8750538,13.351205 54.6786741,13.4797171 54.478056,13.5606354 L54.2414114,13.6558407 L54.4616322,13.7847061 C54.8190715,13.993854 55.1011024,14.2539334 55.3003077,14.557333 C55.4954512,14.8547811 55.6012348,15.1846707 55.6144798,15.5374654 C55.6316101,16.0448385 55.4677249,16.3911342 55.1132878,16.5960261 C54.7484313,16.8084941 54.2294026,16.8393991 53.5701532,16.6878406 L51.947725,16.311876 Z M51.462427,9.7958673 L51.7043696,16.5126883 L53.5138176,16.9317788 C54.237173,17.0982954 54.8173055,17.0580128 55.2390273,16.8123616 C55.6741708,16.560706 55.8848551,16.1287237 55.8647227,15.5286354 C55.849535,15.1290062 55.7301531,14.7562027 55.5095792,14.4199731 C55.3269743,14.1418275 55.0830891,13.8974125 54.7825152,13.6918495 C54.9372172,13.6058275 55.0876807,13.495099 55.2319633,13.3612712 C55.4428242,13.1652094 55.7310361,12.8155405 56.088652,12.3222955 C56.3071068,12.0192491 56.4872392,11.7891211 56.6246343,11.6381807 L57.1159368,11.1027105 L55.6607492,10.7666222 L55.3287403,11.1844589 C55.3183209,11.1980571 55.3013673,11.2181896 55.2769964,11.2459335 L55.0936852,11.455364 L54.4891819,12.2935273 C54.3113452,12.4941277 54.1388066,12.6576244 53.9835748,12.7700129 C53.8357602,12.8789401 53.7003077,12.951152 53.580396,12.9854478 C53.503928,13.0071697 53.3349214,13.0154522 52.9640605,12.9297657 L52.8031775,12.8925206 L52.702162,10.0826488 L51.462427,9.7958673 Z" id="path68" fill="#FFFFFF"></path>
                        <polyline id="path70" fill="#FFFFFF" points="65.2135966 20.367505 66.0962456 20.6108604 65.9664443 14.1587281 65.1694465 13.9388782 60.9214996 17.7077258 60.8227799 12.7411741 59.9539058 12.5001321 60.0833539 18.9531121 60.8309036 19.1597346 65.114877 15.3585868 65.2135966 20.367505"></polyline>
                        <path d="M60.2032656,18.8598671 L60.0789389,12.6612094 L60.7026916,12.8342248 L60.8049433,17.9738627 L65.2008814,14.0738186 L65.846356,14.2520085 L65.9710359,20.4499774 L65.3336849,20.27426 L65.2316098,15.0920968 L60.7994687,19.0248119 L60.2032656,18.8598671 Z M59.8286961,12.3390549 L59.9632656,19.0465337 L60.8621618,19.294834 L64.9981441,15.6250769 L65.0936849,20.46075 L66.2212787,20.7717434 L66.0865326,14.0655361 L65.1381882,13.8038142 L61.0380559,17.44143 L60.9426916,12.6479644 L59.8286961,12.3390549 Z" id="path72" fill="#FFFFFF"></path>
                        <polyline id="path74" fill="#FFFFFF" points="75.3614109 23.3965557 76.2610135 23.6111252 76.1241482 16.9165912 75.2227796 16.7003969 75.3614109 23.3965557"></polyline>
                        <path d="M75.4814992,23.2997787 L75.3479893,16.855823 L76.0042365,17.013174 L76.1359804,23.4558935 L75.4814992,23.2997787 Z M75.0975699,16.5451828 L75.2414992,23.4931561 L76.3862233,23.766357 L76.2440599,16.8199554 L75.0975699,16.5451828 Z" id="path76" fill="#FFFFFF"></path>
                        <polyline id="path78" fill="#FFFFFF" points="80.1430444 24.6774387 81.1106381 24.8496241 81.1676801 19.0894476 84.1949648 19.6266662 84.2030884 18.7682115 80.2082099 18.0595139 80.1430444 24.6774387"></polyline>
                        <path d="M80.2701967,24.5721848 L80.3327132,18.2096243 L84.0761127,18.8736419 L84.0702849,19.4763792 L81.0430002,18.9391607 L80.9859582,24.6993371 L80.2701967,24.5721848 Z M80.08353,17.9092269 L80.015892,24.7828691 L81.2353181,24.9999111 L81.2921834,19.239558 L84.3196447,19.7767765 L84.3302407,18.6626044 L80.08353,17.9092269 Z" id="path80" fill="#FFFFFF"></path>
                        <polyline id="path82" fill="#FFFFFF" points="87.4198654 25.8749662 88.4660464 26.0157168 88.4001744 20.3549664 91.6708145 20.7934653 91.6611015 19.9482556 87.3465762 19.3713019 87.4198654 25.8749662"></polyline>
                        <path d="M87.5482539,25.7612356 L87.4779669,19.5196463 L91.5327129,20.0619863 L91.5394238,20.6449443 L88.2687837,20.2064454 L88.3346556,25.8671958 L87.5482539,25.7612356 Z M87.2151855,19.222781 L87.2914768,25.9885203 L88.5974371,26.1640612 L88.5317417,20.5034873 L91.8022052,20.9419862 L91.78949,19.8347015 L87.2151855,19.222781 Z" id="path84" fill="#FFFFFF"></path>
                        <polyline id="path86" fill="#FFFFFF" points="94.9287393 26.7673282 95.9623817 26.7770413 95.9487835 20.0074167 94.9151411 19.9977037 94.9287393 26.7673282"></polyline>
                        <path d="M95.0601301,26.6368205 L95.0470616,20.1306838 L95.8172161,20.1379244 L95.8304612,26.6440611 L95.0601301,26.6368205 Z M94.783044,19.8647236 L94.7973486,26.8980126 L96.0943022,26.9100214 L96.0801742,19.876909 L94.783044,19.8647236 Z" id="path88" fill="#FFFFFF"></path>
                        <polyline id="path90" fill="#FFFFFF" points="105.222955 26.7355402 106.120969 26.7304188 105.909578 20.1765999 105.097393 20.182781 100.832669 25.2600435 100.670549 20.2156286 99.7857812 20.2223395 99.9968187 26.7752753 100.758143 26.7703305 105.059247 21.6487412 105.222955 26.7355402"></polyline>
                        <path d="M105.155671,20.3065779 L105.789136,20.3018096 L105.992757,26.6067985 L105.343397,26.6105071 L105.173154,21.3200878 L100.699865,26.6465336 L100.11726,26.6502422 L99.9141697,20.3456066 L100.550108,20.3408383 L100.718761,25.5888735 L105.155671,20.3065779 Z M106.030019,20.0513902 L105.039114,20.058984 L105.002205,20.102781 L100.946399,24.9313901 L100.790991,20.0904189 L99.6575693,20.0990723 L99.8765538,26.9003084 L100.816421,26.8941274 L104.945516,21.9773946 L105.102691,26.8605733 L106.249357,26.8542157 L106.030019,20.0513902 Z" id="path92" fill="#FFFFFF"></path>
                        <path d="M113.204589,25.1348338 C112.434081,25.231964 111.797966,25.0673724 111.298717,24.6394696 C110.799467,24.2133327 110.547459,23.6199553 110.54269,22.8573946 C110.538982,22.1202643 110.78428,21.4728471 111.279821,20.9207942 C111.774478,20.367505 112.397172,20.0434432 113.146487,19.9470194 C113.898628,19.8528913 114.527326,20.0233108 115.032403,20.4596904 C115.53907,20.8944807 115.794258,21.485739 115.798849,22.230463 C115.802558,22.9554078 115.555141,23.5978802 115.054125,24.1561142 C114.554876,24.7152312 113.93854,25.0414122 113.204589,25.1348338 Z M113.174214,26.0646351 C114.216509,25.9318316 115.080968,25.4875049 115.770417,24.730772 C116.458805,23.9735093 116.801057,23.09192 116.795229,22.0830017 C116.788341,21.0740834 116.434964,20.2845028 115.731388,19.712494 C115.027812,19.139249 114.144986,18.9215006 113.081498,19.0562468 C112.065163,19.1853417 111.219953,19.623664 110.547459,20.3696242 C109.874258,21.1159377 109.540483,21.9871076 109.546841,22.9831341 C109.552668,24.0049442 109.897922,24.8065336 110.583485,25.3894916 C111.269401,25.9717433 112.132448,26.1977918 113.174214,26.0646351 Z" id="path94" fill="#FFFFFF"></path>
                        <path d="M112.794699,25.0332886 C112.236995,25.0332886 111.762999,24.868697 111.382249,24.5421627 C110.9079,24.1375711 110.675317,23.5862246 110.670902,22.8565116 C110.667194,22.1536418 110.904191,21.5311253 111.375185,21.0062688 C111.846002,20.4798229 112.447326,20.1661805 113.162911,20.0741717 C113.883794,19.9837523 114.468342,20.1418097 114.948518,20.5564675 C115.423573,20.9640613 115.666399,21.5274167 115.670637,22.231346 C115.674346,22.9213239 115.434699,23.5401319 114.958761,24.0706396 C114.482999,24.6034431 113.887326,24.9188515 113.188518,25.0078581 C113.052889,25.0248117 112.921675,25.0332886 112.794699,25.0332886 Z M113.533772,19.7940834 C113.403088,19.7940834 113.268695,19.8027368 113.13077,19.8200437 C112.351785,19.9201761 111.697127,20.2618979 111.18428,20.8354962 C110.669666,21.4089178 110.410593,22.0893593 110.414655,22.858101 C110.419423,23.6554519 110.688916,24.2875049 111.215715,24.7367764 C111.740395,25.1867543 112.415715,25.3633548 113.220659,25.2619861 L113.220836,25.2619861 C113.982867,25.1648559 114.631874,24.8215446 115.149666,24.2415888 C115.669401,23.6623394 115.930946,22.9854299 115.927061,22.2297566 C115.922116,21.4481231 115.649092,20.8201319 115.115935,20.3623836 C114.678319,19.9844587 114.147282,19.7940834 113.533772,19.7940834 Z M112.619688,25.9729795 C111.855361,25.9729795 111.200174,25.7448117 110.666311,25.2918316 C110.014125,24.7371296 109.68035,23.9600877 109.674876,22.9824277 C109.668871,22.0241937 109.994523,21.1740392 110.642646,20.455452 C111.291476,19.7358052 112.117436,19.3077258 113.097746,19.1833991 C114.120439,19.053951 114.979423,19.2653417 115.650505,19.81192 C116.327944,20.3627368 116.660483,21.1058714 116.667017,22.0838847 C116.672668,23.0532445 116.339247,23.9147014 115.675582,24.644591 C115.010858,25.3744806 114.163706,25.8094475 113.157966,25.9374828 C112.973066,25.9611473 112.793463,25.9729795 112.619688,25.9729795 Z M113.666399,18.8898892 C113.472138,18.8898892 113.271874,18.9029576 113.065428,18.929271 C112.022602,19.0617214 111.143485,19.5173505 110.452271,20.2837964 C109.759997,21.0513019 109.412271,21.9599112 109.418629,22.9840171 C109.424633,24.0395579 109.788783,24.881942 110.500483,25.4869751 C111.212712,26.091655 112.118143,26.329006 113.190284,26.1917874 C114.258187,26.0556285 115.158143,25.5931119 115.865074,24.816953 C116.573419,24.0379685 116.929269,23.1178802 116.923264,22.0822953 C116.916377,21.0375271 116.542514,20.2067986 115.812271,19.6132445 C115.221896,19.132185 114.501896,18.8900658 113.666399,18.8898892 Z" id="path96" fill="#FFFFFF"></path>
                        <polyline id="path98" fill="#FFFFFF" points="120.288562 24.5384541 121.426399 24.3909928 121.541542 17.8410592 120.405295 17.9876375 120.288562 24.5384541"></polyline>
                        <path d="M120.538805,18.1070194 L121.403087,17.9955845 L121.292889,24.2716109 L120.427017,24.3837521 L120.538805,18.1070194 Z M121.67982,17.6863572 L120.271785,17.868079 L120.150107,24.6931561 L121.560085,24.5105513 L121.562028,24.3934652 L121.67982,17.6863572 Z" id="path100" fill="#FFFFFF"></path>
                        <path d="M126.962293,19.2134212 L126.219335,19.793377 C125.751343,20.1610591 125.418098,20.4950105 125.218363,20.7973505 C125.018452,21.1002202 124.91673,21.4221628 124.913728,21.7633549 C124.90631,22.2769089 125.087679,22.6546573 125.454125,22.8988957 C125.820924,23.1426043 126.300571,23.2052974 126.893418,23.0843261 C127.460482,22.9675932 127.983573,22.708697 128.460571,22.3028692 L128.473109,21.247505 C127.978628,21.7962025 127.44812,22.1278582 126.884235,22.2430017 C126.567591,22.3083438 126.307282,22.2912136 126.105251,22.1926705 C125.90269,22.0935977 125.802911,21.9346573 125.80503,21.7149663 C125.808915,21.5201761 125.88503,21.3223836 126.037789,21.1235315 C126.192138,20.921324 126.433728,20.6938626 126.769975,20.4390282 L127.515405,19.8675492 C128.347723,19.2238406 128.768915,18.5352755 128.777745,17.8036199 C128.784456,17.2818009 128.608032,16.8956994 128.247061,16.6435493 C127.887679,16.3916994 127.416686,16.3260217 126.834081,16.445015 C126.163529,16.5806442 125.551785,16.9052888 124.994611,17.4179068 L124.980306,18.597792 C125.513992,17.850419 126.126266,17.4070106 126.816597,17.2646177 C127.119997,17.2033726 127.374831,17.2332358 127.573683,17.354366 C127.775008,17.4757258 127.874434,17.65743 127.870549,17.9037523 C127.865604,18.2995139 127.562381,18.7358936 126.962293,19.2134212" id="path102" fill="#FFFFFF"></path>
                        <path d="M125.11929,17.4739245 C125.647149,16.9993815 126.23205,16.6946044 126.858981,16.5679466 C127.404677,16.4566707 127.847414,16.5165559 128.175184,16.7461364 C128.502602,16.9748164 128.65854,17.3200879 128.652359,17.8020305 C128.644059,18.4902424 128.235935,19.1517876 127.438584,19.7684763 L126.693683,20.3396021 C126.354964,20.5962026 126.100659,20.8346132 125.938187,21.0477699 C125.771299,21.2649884 125.684235,21.4889178 125.67982,21.7124939 C125.677171,21.9809266 125.805383,22.1854299 126.050328,22.3053416 C126.277789,22.4164233 126.567061,22.4365557 126.909666,22.3659156 C127.414213,22.2627809 127.895626,21.9924056 128.344191,21.5611474 L128.335891,22.2438847 C127.891388,22.611037 127.397789,22.8524498 126.868165,22.9615888 C126.313816,23.0747897 125.861012,23.0186308 125.523352,22.7945248 C125.190814,22.5727147 125.032226,22.2361142 125.039114,21.7651209 C125.041763,21.4497125 125.137304,21.1475491 125.322911,20.8662246 C125.513639,20.5778361 125.841233,20.2498891 126.296686,19.89192 L127.040173,19.311611 C127.677878,18.8042379 127.990284,18.3441938 127.995935,17.9053417 C128.000527,17.6143042 127.880085,17.392653 127.638319,17.2469576 C127.4128,17.1096155 127.127767,17.0742954 126.791697,17.141898 C126.170063,17.2701453 125.606001,17.6339068 125.110284,18.2248119 L125.11929,17.4739245 Z M127.35982,16.2627634 C127.187105,16.2627634 127.003441,16.2825603 126.80918,16.3222954 C126.121145,16.4612976 125.482028,16.7989753 124.909842,17.3257391 L124.869931,17.3624367 L124.850151,18.9956728 L125.082204,18.6705514 C125.593639,17.9544366 126.185604,17.5228252 126.841851,17.3874256 C127.113639,17.332291 127.337922,17.3576861 127.508518,17.4613682 C127.673286,17.5607766 127.748341,17.7006618 127.745162,17.9018097 C127.740924,18.2560702 127.451299,18.6641938 126.884765,19.1148781 L126.14216,19.6946573 C125.658452,20.0747015 125.322204,20.4127147 125.113816,20.7282997 C124.901012,21.0505955 124.791697,21.3984984 124.788341,21.7624719 C124.780394,22.3164674 124.981012,22.7343041 125.384544,23.0032665 C125.779776,23.2655182 126.295626,23.3342158 126.918496,23.2070634 C127.507458,23.0859155 128.053507,22.8137743 128.541807,22.3982334 L128.585251,22.3613239 L128.602557,20.9167324 L128.380041,21.1636198 C127.906575,21.6890061 127.394787,22.0107721 126.859335,22.1202643 C126.571476,22.1794255 126.336597,22.1660039 126.160173,22.0799994 C126.001763,22.0024719 125.92865,21.8869752 125.930416,21.7162025 C125.933772,21.5484321 126.003176,21.3743041 126.137215,21.1999995 C126.286266,21.0046794 126.524324,20.7823394 126.845736,20.538984 L127.59152,19.9671518 C128.452624,19.3008384 128.893772,18.5735978 128.903131,17.8050327 C128.910372,17.2420658 128.713816,16.8167766 128.318761,16.5407678 C128.054566,16.3556905 127.73333,16.2627634 127.35982,16.2627634 Z" id="path104" fill="#FFFFFF"></path>
                        <path d="M10.8396112,47.820043 C10.3590638,47.7670628 9.61100197,47.0193366 9.87823375,45.6842373 C10.1454832,44.3489614 10.6798408,44.1349216 11.6407944,43.9214117 C12.601748,43.708255 13.5765648,43.5226479 13.7233727,43.3342153 C14.0972005,42.8533323 13.8303749,21.6001761 13.7766884,20.7454299 C13.7233727,19.891037 13.9365295,18.2890945 12.9755758,18.1289179 C12.0146222,17.9690945 10.8400174,18.2890945 10.1990284,17.4346662 C9.55809248,16.5798142 9.7712492,14.7652447 10.6260306,14.3376773 C11.4806178,13.9104632 23.4424718,13.8031255 23.4424718,13.8031255 C23.4424718,13.8031255 24.8840612,14.0702866 24.8307279,15.565951 C24.7775711,17.0610503 24.5640612,17.6478406 23.8165115,17.6478406 C23.0686087,17.6478406 21.3596463,17.8087413 20.8257831,18.0217214 C20.2917434,18.2354079 20.3987633,18.6094477 20.3450768,19.6773505 C20.2917434,20.7454299 20.5589399,43.6010585 20.5589399,43.6010585 C20.5589399,43.6010585 23.8694917,43.9754514 25.4184541,43.1207053 C26.9670633,42.2657826 27.7674165,40.9315663 27.874613,38.8489174 C27.9818095,36.7660918 27.6081229,34.1492265 26.4332002,33.1344804 C25.2581009,32.1197343 24.4570413,31.6393811 23.1750988,31.3190279 C21.893686,30.9984981 20.5049001,30.3574385 20.8257831,29.0758492 C21.1463129,27.7947896 21.7871959,26.9407499 24.4570413,27.5275931 C27.1268867,28.1142598 31.6660478,29.8239286 33.1613237,32.8672839 C34.6567762,35.9113457 36.4183655,40.6115663 33.1613237,44.5630011 C29.9042818,48.5146125 23.4959818,47.8733763 19.8647236,47.8733763 C16.2334477,47.8733763 11.3200174,47.8733763 10.8396112,47.820043" id="path106" fill="#BDBCBC"></path>
                        <path d="M150.189842,14.0921674 C147.065957,11.7782072 141.899864,15.2400703 139.229665,18.8406176 C137.296244,21.4475933 137.080615,22.1829575 137.364588,21.8597787 C137.648208,21.5364233 139.320791,19.3460481 140.777038,17.9703307 C142.233639,16.5949841 146.954522,14.1728738 148.288915,15.0223572 C149.623131,15.8716111 149.017215,17.3684411 147.924411,17.8949223 C146.831961,18.421015 146.184367,18.6226927 144.566354,20.5246794 C142.948164,22.4263129 139.5894,27.4836196 138.49748,29.4663127 C137.405736,31.448476 135.544544,35.0080344 135.544544,35.0080344 C135.544544,35.0080344 136.353904,34.8051205 137.526707,35.978807 C138.699864,37.1521404 138.94269,37.5975267 138.94269,37.5975267 C138.94269,37.5975267 139.469136,35.4535973 140.196906,34.1183214 C140.925206,32.7826923 143.838937,29.1411913 145.578275,27.6845909 C147.317789,26.2285203 150.351431,22.79841 151.323087,20.3210591 C152.940923,16.1958495 151.561851,15.1085206 150.189842,14.0921674 Z M132.146575,38.6083876 C130.972712,38.3659152 128.464103,39.1750984 128.464103,39.1750984 C128.464103,39.1750984 128.301984,46.9033101 128.585427,47.1051644 C128.585427,47.1051644 131.174919,46.3768642 131.701012,45.7700651 C132.227458,45.1630894 133.521939,43.8689614 133.562734,42.2098003 C133.602822,40.5508158 133.320262,38.85086 132.146575,38.6083876 Z M122.762028,32.902604 C122.762028,32.902604 122.357966,34.2371735 121.265163,34.6016768 C120.172536,34.9660035 119.728032,34.8450322 119.323088,34.197615 C118.918143,33.5500212 117.825516,31.8505952 117.501984,31.7697122 C117.178805,31.6888292 115.114876,31.7298005 112.808827,32.174657 C110.502955,32.6189837 110.219512,32.5389837 110.098364,33.4693148 C109.976863,34.3992927 109.976863,40.1848997 109.976863,40.1848997 C109.976863,40.1848997 110.422249,40.2251646 111.878849,39.9422507 C113.33492,39.6591602 114.144103,39.416158 114.144103,39.416158 C114.144103,39.416158 114.467459,37.5554957 114.831785,37.110286 C115.196642,36.6650763 116.41024,35.8163346 117.259511,36.2203964 C118.109313,36.6244582 118.351962,36.7459593 118.230284,37.9595575 C118.109313,39.1736856 118.109313,42.2482992 118.190196,43.3004846 C118.271079,44.3528466 118.392227,45.8488289 116.935803,46.2131556 C115.479202,46.5774823 114.872403,46.2537737 114.670019,45.6063565 C114.468342,44.9587627 114.346311,43.7455177 114.346311,43.7455177 L109.976863,44.1903742 L109.936774,50.9063122 C109.936774,50.9063122 111.554611,50.7447228 112.930328,50.5831334 C114.305869,50.4213674 115.398319,50.4213674 116.166885,49.3285639 C116.935803,48.2361136 116.935803,47.0232218 117.623662,46.3758046 C118.311344,45.7282108 119.363706,45.7282108 119.970681,46.0113013 C120.57748,46.2940386 120.618452,47.0223388 120.496597,48.0743476 C120.374743,49.1268862 120.374743,49.5712129 120.374743,49.5712129 C120.374743,49.5712129 120.65748,49.1666213 121.143308,48.8835308 C121.629136,48.6007935 122.600438,48.4383211 122.721763,48.2361136 C122.842911,48.0340827 122.762028,32.902604 122.762028,32.902604 Z M104.032315,32.7823391 C103.668342,32.7823391 102.090417,32.7823391 102.090417,32.7823391 C102.090417,32.7823391 101.968739,42.7344802 102.009534,45.162383 C102.049622,47.5902858 102.131388,51.4336411 102.131388,51.4336411 C102.131388,51.4336411 101.888916,51.5948773 102.899953,51.5948773 C103.910991,51.5948773 104.15417,51.6354954 104.194788,51.3522283 C104.235053,51.0696676 104.315759,34.4001757 104.235053,33.8334649 C104.15417,33.2672839 104.395936,32.7823391 104.032315,32.7823391 Z M86.3922274,54.1038397 C84.8542142,53.8200428 84.0054725,53.6994247 83.075318,53.5775704 C82.1449869,53.4555395 81.4968633,52.5259148 81.3755388,51.31214 C81.2543909,50.098012 82.346488,49.8961577 82.7108147,49.8961577 C83.075318,49.8961577 83.6815873,50.0173056 83.6815873,50.0173056 C83.6815873,50.0173056 83.9247661,47.7518752 83.965031,44.7171733 C84.0054725,41.6822948 83.7220288,31.3257387 83.7220288,31.3257387 C83.7220288,31.3257387 83.3986734,31.1230014 83.075318,30.9612354 C82.7519626,30.799646 82.3874593,30.6380566 82.3874593,30.6380566 C82.3874593,30.6380566 82.1442805,30.8803524 81.1330664,30.7590279 C80.1220289,30.6380566 79.9595565,30.7590279 79.838232,31.0421184 C79.7170841,31.3248557 79.5952298,36.8271955 79.6356713,41.2377915 C79.6761128,45.6482108 79.6766426,54.7509037 79.6766426,54.7509037 C79.6766426,54.7509037 82.7512562,55.4391156 85.2194239,55.8034423 C87.6877682,56.1679456 90.1552295,55.8437072 90.1552295,55.8437072 L90.4381434,54.630109 L90.3977019,54.468343 C90.3977019,54.468343 90.276554,54.5893143 90.0340816,54.5893143 C89.7916092,54.5893143 87.9302406,54.38746 86.3922274,54.1038397 Z M73.8908591,30.0312575 C73.8099761,29.504635 73.8495346,29.2618094 73.4857377,29.0596019 C73.1221174,28.857571 72.1910799,28.6544805 71.8677245,28.4526262 C71.5445457,28.2504187 71.3013669,28.0485644 71.3013669,28.0485644 C71.3013669,28.0485644 71.3013669,41.925297 71.3418084,43.139425 C71.3822499,44.3531998 71.5041042,47.5500209 71.6252521,47.6711688 C71.7465766,47.7924933 72.2324044,47.8318752 73.0007929,48.2369966 C73.7695346,48.6419414 74.09289,49.1678575 74.09289,49.1678575 C74.09289,49.1678575 73.9717421,30.5571736 73.8908591,30.0312575 Z M68.8741705,50.259778 C67.4175701,49.9360694 66.810771,50.1386301 65.5565547,49.8961577 C64.6484752,49.7211467 64.3830447,49.2487405 64.3830447,49.2487405 C64.3830447,49.2487405 64.1001308,49.9761577 66.2037953,50.8263122 C68.3076363,51.6764667 74.012007,53.335098 74.012007,53.335098 L74.012007,51.7172614 C74.012007,51.7172614 73.7686516,52.1222062 72.7577907,51.8382327 C71.7465766,51.5546124 70.3305943,50.5838398 68.8741705,50.259778 Z M37.0920962,30.1663569 L39.0078577,34.8918314 L39.6469747,31.8265776 L37.0920962,30.1663569 Z M149.584632,32.2149219 C146.220394,35.4188071 145.312314,36.4335532 144.778451,38.3562021 C144.243882,40.2790277 145.740041,41.4534206 147.50163,41.2402639 C149.263396,41.0267539 151.400261,39.6377915 151.880438,38.7298887 C152.360967,37.8218092 152.842204,36.0063567 153.002557,35.5260035 C153.162557,35.0454737 153.910107,34.3507276 155.085382,34.2975709 C156.260482,34.2447674 156.313285,34.5649439 156.526795,34.9384539 C156.739952,35.3119638 156.633638,37.2351426 156.313285,39.2642816 C155.993285,41.2928908 155.458892,41.9878135 155.031166,42.3081667 C154.60397,42.6281667 154.177303,42.5753632 153.696067,42.9485199 C153.214831,43.3222064 151.079731,44.2837958 148.676729,44.9785419 C146.273374,45.6729348 144.671961,45.5120518 142.909312,45.1916986 C141.14684,44.8713455 139.542778,42.2009702 139.542778,42.2009702 C139.542778,42.2009702 138.955582,44.0164227 137.994522,45.5657384 C137.033639,47.1148774 134.469401,49.0371732 132.387635,49.8906831 C130.305162,50.7447228 126.085648,51.653332 123.789666,52.0805285 C121.49333,52.5082548 121.386664,52.4010583 120.958937,52.2938618 C120.531918,52.1870186 120.211388,51.6003519 120.211388,51.6003519 C120.211388,51.6003519 120.158231,51.7603519 119.998231,52.4010583 C119.838231,53.0419413 119.571035,53.255981 119.036642,53.5221179 C118.502249,53.7886079 118.609092,53.5761576 117.861542,53.6822945 C117.113816,53.7886079 112.682381,54.6966874 108.356554,55.0173938 C104.030726,55.33863 96.1808364,55.2845902 96.1808364,55.2845902 C96.1808364,55.2845902 95.9134634,55.3917867 95.3769513,54.9114335 C94.3583199,53.998939 94.9502846,51.9738618 95.4839711,51.8135086 C96.0176576,51.653332 97.0862669,51.6003519 97.0862669,51.6003519 L97.0862669,44.7645022 C97.0862669,44.7645022 95.6439711,44.5509923 93.7214988,44.3908157 C91.7986732,44.2304625 89.1823377,44.1237958 89.1823377,44.1237958 L89.1823377,50.7987625 C89.1823377,50.7987625 89.5026909,51.0126257 89.9837505,51.1191157 C90.4649867,51.2256058 90.89183,51.5463122 91.05183,51.8135086 C91.2120065,52.0805285 91.4253399,52.614215 91.4253399,52.614215 C91.4253399,52.614215 91.8527129,52.4543916 92.7604392,52.4543916 C93.6681654,52.4543916 94.1488718,53.4158044 94.3088718,53.6822945 C94.4690484,53.9489611 94.3629115,54.644237 94.3629115,55.6581002 C94.3629115,56.6719633 94.5230881,58.8088286 94.6832647,59.876908 C94.8432647,60.9448108 94.7362449,61.7997336 94.3088718,62.0667534 C93.8816754,62.3339499 93.2950087,62.3872832 92.4932427,62.2799101 C91.6916533,62.1732435 91.4253399,60.9988506 91.4253399,60.9988506 C91.4253399,60.9988506 90.89183,60.8920073 89.1823377,60.6784974 C87.4730221,60.4653407 83.4689604,59.7707711 80.2110355,59.0228683 C76.9534639,58.2753186 69.5835744,56.2989831 67.8218085,55.8712569 C66.0600425,55.4440604 64.6172169,55.4440604 64.6172169,55.4440604 C64.6172169,55.4440604 64.6172169,55.6572172 64.4568637,55.8175703 C64.2970403,55.9777469 63.6031772,56.1386299 62.6952744,55.7645902 C61.7873715,55.3901973 61.5201751,54.4835306 61.3599985,53.3614115 C61.1998219,52.2394689 60.7726254,50.6378795 60.3452524,47.9136412 C59.9178793,45.1895794 61.3599985,45.5645022 62.3749212,45.7776589 C63.3898439,45.9908156 63.6031772,46.9527582 63.6031772,46.9527582 C63.6031772,46.9527582 64.0835304,46.0978355 64.6172169,46.0448554 C65.1509034,45.9916986 66.8602191,46.2052086 66.8602191,46.2052086 C66.8602191,46.2052086 67.1272389,44.3360695 67.1803957,41.8260475 C67.2335524,39.3158489 67.2344354,34.1900212 67.2344354,34.1900212 C67.2344354,34.1900212 62.4280779,38.0346127 60.8796453,39.4230454 C59.331036,40.8113014 55.3788949,44.1760695 54.8452083,44.8699327 C54.3115218,45.5636192 54.2037956,45.8846788 53.7232658,45.9380121 C53.2429126,45.9908156 52.6553629,45.7776589 52.0676367,45.6176589 C51.4802636,45.4571291 49.4514778,44.7095795 48.0630452,44.4964227 C46.6746125,44.2829128 46.1933763,43.5353632 46.0333763,42.4665773 C45.8731997,41.3981447 46.1403962,40.5977915 47.7958487,40.8113014 C49.4514778,41.0246347 49.4514778,40.4909482 49.5584977,40.2246348 C49.6653409,39.9577915 49.7184977,37.4470631 49.6114778,31.1459595 C49.5046345,24.8455623 49.2379679,22.3343041 49.2379679,22.3343041 C49.2379679,22.3343041 49.2379679,22.3343041 48.8637515,22.4415005 C48.4895352,22.5483438 48.2232218,22.6016771 47.6356721,23.9899332 C47.048299,25.3781892 45.6598664,32.2671957 45.6598664,32.2671957 C45.6598664,32.2671957 47.1553189,33.2282552 47.4225154,34.083178 C47.6897118,34.9375709 47.1014558,35.5782773 46.620926,35.5782773 C46.1403962,35.5782773 44.9123168,34.8838843 44.9123168,34.8838843 C44.9123168,34.8838843 42.5089614,44.0688731 42.1887848,44.9769525 C41.8684316,45.8846788 40.7466656,45.5645022 39.4120961,45.1367759 C38.0777032,44.7095795 35.5667982,36.5389836 33.3776592,30.9852531 C31.1885202,25.4313459 27.8235755,18.1156728 27.8235755,18.1156728 C27.8235755,18.1156728 25.1537301,18.0616331 25.2068868,16.2991784 C25.2905954,13.5224897 27.2897123,14.270216 28.5714783,14.4837259 C29.8527145,14.6968826 33.2174826,15.0709224 34.0715223,15.1781188 C34.9253854,15.2849798 35.4066216,16.7263395 35.246445,17.8482998 C35.0862684,18.970419 33.3776592,18.8091828 33.3776592,18.8091828 C33.3776592,18.8091828 34.2853855,21.8530679 34.4455621,22.1202643 C34.6059152,22.3874608 34.7129351,22.707814 36.4745245,24.4165998 C38.236467,26.1250325 40.6401756,28.0476814 40.6401756,28.0476814 L42.3489614,20.625165 C42.3489614,20.625165 41.3880784,20.1442821 40.479999,19.3967324 C39.5722727,18.6491828 40.1598224,16.9403969 40.8535089,16.7263395 C41.547372,16.5123528 45.1793366,17.5279466 48.6505948,18.436026 C52.1216764,19.3435757 54.5255616,20.1974388 55.593641,20.4114785 C56.6615438,20.6255182 57.3031332,21.7997346 57.3559368,23.0813239 C57.4092701,24.3625601 56.2350538,24.1494034 55.4873275,24.0430899 C54.7396013,23.9365998 54.1520516,23.8825601 54.1520516,23.8825601 C54.1520516,23.8825601 54.1520516,23.8825601 53.991875,24.2030899 C53.8316984,24.5232665 53.7246786,27.4067984 53.7778353,28.7952311 C53.8311686,30.1836637 53.7778353,36.8058269 53.7778353,36.8058269 C53.7778353,36.8058269 67.3428681,25.3243261 67.7695347,24.8971296 C68.1960248,24.4699332 69.15991,23.9890502 69.6937731,24.1494034 C70.227283,24.3094034 70.8148327,24.8971296 70.8148327,24.8971296 C70.8148327,24.8971296 71.5092256,24.5765998 72.5771284,24.950463 C73.6452079,25.3248559 78.1845455,26.4460921 81.388254,27.086975 C84.5921392,27.7273282 89.1853399,28.5280346 90.0399094,28.5820743 C90.8946556,28.6361141 90.6274591,28.4752311 91.4283421,29.4361141 C92.2290485,30.3968204 91.3751854,31.6792928 90.9478123,31.8933325 C90.5204392,32.1071957 89.2384967,32.159646 89.2384967,32.159646 L89.0783201,39.7962021 C89.0783201,39.7962021 90.200086,40.063222 92.7634414,40.2769085 C95.3267967,40.4900652 97.1447216,40.5441049 97.1447216,40.5441049 L97.0384082,32.8007056 C97.0384082,32.8007056 95.7033089,32.9071956 95.1157592,31.7328027 C94.2610131,30.0245467 95.4892691,29.2229573 95.8094457,29.0624275 C96.1297989,28.9024275 97.3585848,29.0092708 101.683706,29.2229573 C106.008651,29.4361141 111.830108,28.7420743 118.131564,27.5141715 C124.433374,26.2857389 128.545339,24.8971296 129.666045,24.5765998 C130.787105,24.2562466 131.268518,24.6306396 131.428871,25.7516991 C131.588871,26.8729353 130.787988,27.780485 130.147282,27.9945247 C129.506928,28.2085644 128.598142,28.8485644 128.598142,28.8485644 L128.705339,35.3101978 C128.705339,35.3101978 129.560085,34.9898446 130.040438,34.8300212 C130.520791,34.6694914 131.642911,31.6792928 132.390284,30.3977034 C133.13801,29.1164673 137.035935,22.7611473 137.035935,22.7611473 C137.035935,22.7611473 135.860659,23.4553637 135.006796,23.5085204 C134.153286,23.5618537 133.831873,22.7611473 133.885206,21.586048 C133.938363,20.4111253 134.792756,15.8188429 135.380306,15.0709224 C135.967855,14.3233374 136.662248,14.0570416 138.691387,12.9349401 C140.720173,11.8135273 145.580394,9.62417636 149.104809,9.19667968 C152.629047,8.7694479 158.289974,11.7602116 158.236817,17.4739245 C158.183661,23.1883438 152.948517,29.0110368 149.584632,32.2149219 Z" id="path108" fill="#BDBCBC"></path>
                        <path d="M15.0142866,39.6429129 C15.0142866,44.0114779 14.9691652,44.7314779 13.0705692,45.0186302 L12.2671785,45.1563786 C10.7082558,45.1556722 10.2824192,46.5289172 12.7562734,46.6241048 C15.9407502,46.7463123 17.40943,46.9871953 21.5219421,46.9871953 C25.8156285,46.9871953 28.4965997,46.3493145 30.5308602,45.1016324 C32.8807056,43.6132439 33.9286526,41.1463124 33.792317,37.981456 C33.5745687,32.9259153 28.7830456,30.0600434 24.9863128,28.7952311 C24.1711252,28.5239728 22.7390723,28.5841935 22.377218,28.6324055 C22.0609266,28.9206174 22.1509928,29.3220302 22.377218,29.6102421 C26.4900656,30.474348 29.0241052,33.8343479 29.0241052,37.7704185 C29.0241052,41.6591601 26.6740832,45.0671953 22.5615888,45.0671953 C20.3018096,45.0671953 19.006622,44.9227362 19.006622,43.0511248 L19.006622,22.0732886 C19.006622,16.9849002 19.4135094,16.8411298 21.5374829,16.6007943 L23.2097124,16.4093594 C23.4809707,16.0731298 23.435761,15.2086707 23.1191164,15.0172535 C20.4524498,15.1127943 18.419249,15.1609356 16.4303219,15.1609356 C14.4418539,15.1609356 13.259514,15.3024279 11.4519909,15.2067458 C11.0902955,15.3979687 11.0450505,16.2624102 11.3616774,16.5987104 L12.084503,16.694057 C14.2084765,17.0304985 15.0142866,16.9849002 15.0142866,22.0732886 L15.0142866,39.6429129" id="path110" fill="#FFFFFF"></path>
                        <path d="M39.1187628,39.5039284 L34.2809704,26.6211031 C34.2809704,26.6211031 35.8848556,28.0079463 38.3950542,29.6102421 C40.0999548,30.6988072 41.0758489,31.4043259 41.0758489,31.4043259 L39.1187628,39.5039284 Z M26.508432,16.5110989 C26.508432,16.5110989 28.0856505,16.4023131 28.6829132,17.3806618 C29.2799993,18.3588516 39.3365112,43.1445464 39.3365112,43.1445464 C39.3365112,43.1445464 39.5537297,43.6881225 39.8253412,43.9058709 C40.096776,44.1237958 40.8042374,44.0151865 40.8042374,44.0151865 L43.7388069,32.8720522 L45.8590717,34.0679903 C46.0851203,33.8294031 43.9019857,32.3288292 43.9019857,32.3288292 C43.9019857,32.3288292 45.9136412,23.4143924 46.3484315,22.5444586 C46.3484315,22.5444586 47.2173057,20.4789399 48.8480341,21.022516 C50.4789391,21.565739 50.5335087,23.6314343 50.5335087,23.6314343 L50.8051201,39.2860034 C50.8051201,39.2860034 50.9675925,41.3508157 50.0439723,41.8403522 C49.1205286,42.3295354 47.1634425,42.11267 47.1634425,42.11267 C47.1634425,42.11267 46.6746125,42.8183654 47.7614116,43.0359371 C48.8480341,43.2538621 51.6201312,44.0683433 52.1098442,44.1773057 C52.599204,44.2866214 52.925385,44.6124492 52.925385,44.6124492 C52.925385,44.6124492 54.0660472,42.9815442 55.1535527,42.0033544 C56.2408816,41.0253411 68.0358482,31.2951869 68.199027,31.1867542 C68.3623824,31.0783215 68.4699321,31.1876372 68.4162455,32.1654738 C68.3623824,33.1438402 68.3623824,44.2331115 68.3623824,44.2331115 C68.3623824,44.2331115 68.3083427,47.1143476 67.8189829,47.4398222 C67.3294464,47.7652968 65.1553185,47.3313895 64.9921397,47.4398222 C64.8289609,47.5482549 64.6119189,48.4185418 65.4267533,48.4727582 C66.2419409,48.5266213 68.1451639,48.7978796 69.2319629,49.124767 C70.3185854,49.450948 72.6013227,50.5382769 72.819071,50.4837073 C73.0368194,50.4289612 73.3093138,50.1026036 72.9283867,49.8311687 C72.547283,49.5593807 70.8088283,48.7436632 70.4279011,48.2004403 C70.046974,47.6568642 69.8837952,37.0610145 69.8837952,35.481147 C69.8837952,33.4159815 70.046974,26.2405291 69.9383647,26.0233106 C69.8297554,25.8062687 69.4488283,25.3723614 69.1773934,25.5344806 C68.9056053,25.696953 63.4705503,30.5354518 61.676643,32.1114341 C59.8825592,33.6877696 52.4360252,39.8837959 52.4360252,39.8837959 C52.4360252,39.8837959 52.0558044,30.8616328 52.1644137,29.1763348 C52.273023,27.4910368 52.2188066,22.5444586 53.0341709,22.381633 C53.8490053,22.2182776 55.7522282,22.9796021 55.8060913,22.5444586 C55.8599545,22.1098449 56.1315659,21.9470193 54.4469744,21.5118758 C52.7623828,21.0770856 46.7825154,19.5011033 45.0979238,19.0659598 C43.4131556,18.6311695 41.8901535,17.9245912 41.5645023,18.0330238 C41.2390277,18.1416331 40.8033544,18.6311695 42.2710806,19.1743925 C43.7388069,19.7179686 43.8479459,19.8278141 43.4131556,21.4581893 C42.9781888,23.0880347 41.2390277,30.4261361 41.2390277,30.4261361 C41.2390277,30.4261361 36.5637077,26.6211031 35.5853413,25.5885203 C34.6073281,24.555761 33.1397784,23.0341716 33.1397784,23.0341716 L31.6174827,18.3593814 C31.5636195,17.9245912 31.4004407,17.3815448 32.1068425,17.3264278 C32.8134208,17.2722115 33.9007497,17.5976861 33.9007497,17.1087148 C33.9007497,16.6200261 34.3902861,16.5656685 31.7267983,16.2938804 C29.0631339,16.0224279 26.5079022,15.4779864 26.3994695,15.6411475 C26.2910369,15.8045029 25.8018537,16.1854301 26.508432,16.5110989 Z" id="path112" fill="#FFFFFF"></path>
                        <path d="M61.3114333,47.3230893 C61.3114333,47.3230893 62.2011463,50.5511687 62.3680338,51.8864446 C62.5349212,53.2215439 62.5358042,54.2783209 62.7026916,54.3343033 C62.8697556,54.3902856 63.2588064,54.5008375 63.2588064,54.5008375 C63.2588064,54.5008375 63.9818086,53.8896234 64.8724046,53.9452525 C65.7630006,54.0003519 75.4444131,56.560705 77.7817199,57.1168198 C80.1192033,57.6729345 89.2999536,59.1196453 90.412713,59.3981442 C91.5256489,59.6766431 92.3046335,60.0100647 92.4162449,60.3441928 C92.5276798,60.6776144 92.5836621,61.0670183 92.8614546,61.0670183 C93.1390705,61.0670183 93.3068409,61.2898881 93.1952295,60.0656939 C93.0837946,58.8411464 92.8061787,55.9484313 92.8614546,55.2247227 C92.9169072,54.5008375 92.9730661,53.8341708 92.5276798,53.7781885 C92.0824701,53.7220296 92.0263112,53.7220296 91.8039712,55.1132878 C91.5818079,56.504546 91.2478564,57.1713893 90.4686953,57.2275482 C89.6897108,57.2835306 86.5172605,57.3393363 82.9008368,56.8384975 C79.284413,56.3380118 78.6168634,56.0040604 78.5054285,55.5584975 C78.393817,55.1132878 78.5607044,31.4652531 78.393817,31.4652531 C78.2269296,31.4652531 78.3376581,29.9067542 78.9501084,29.5729794 C79.5622055,29.2392046 80.564413,29.3506394 81.0650752,29.4059154 C81.5657375,29.4615445 81.677349,29.1286527 81.5657375,28.7383657 C81.4543026,28.3487852 81.677349,28.3491384 80.9532872,28.2378801 C80.2297552,28.1264452 78.0600422,27.7365114 76.668784,27.3471075 C75.2775257,26.9580567 71.828166,26.0676373 71.828166,26.0676373 C71.828166,26.0676373 71.2720512,26.8466218 72.1064883,27.1802201 C72.9409253,27.5141715 74.6654286,28.1817211 74.9437509,28.7939949 C75.2222498,29.4059154 75.4444131,54.3343033 75.4444131,54.3343033 C75.4444131,54.3343033 75.3345677,55.0580119 74.8330224,54.946577 C74.3316538,54.8347889 69.9924044,53.6667536 67.8218085,52.8319634 C65.6515657,51.9978795 64.4279013,51.4407051 64.0379675,50.9402195 C63.6480337,50.4393806 62.870462,49.0488288 62.7026916,48.3252968 C62.5349212,47.6015882 62.2573053,47.0445904 61.8120956,46.9891379 C61.3667093,46.9340386 61.3114333,47.3230893 61.3114333,47.3230893" id="path114" fill="#FFFFFF"></path>
                        <path d="M100.858099,51.7942592 C100.547989,51.0479457 100.796289,41.7236193 100.734126,37.0610145 C100.671962,32.3982332 100.920616,31.9634429 101.541543,31.6520963 C102.162823,31.3407498 104.21492,31.3416328 105.02322,31.8391162 C105.831521,32.3367762 105.645207,35.3824274 105.58322,37.247328 C105.52088,39.1122286 105.769534,50.1154954 105.396024,51.7319192 C105.022337,53.348343 102.857216,52.9705947 102.225693,52.9128464 C101.541543,52.8508596 101.168916,52.5402194 100.858099,51.7942592 Z M82.9008368,52.1644137 C82.9008368,52.1644137 84.5705939,52.4978353 86.6848543,52.775981 C88.7992914,53.0543033 89.4673708,53.2768199 89.6897108,53.2215439 C89.9118741,53.1659148 90.0236622,52.5539943 89.6897108,52.3869303 C89.3561126,52.2200428 88.0761126,52.1084314 87.7977903,51.2739943 C87.5192914,50.4393806 87.6309029,43.4837958 87.6309029,43.4837958 C87.6309029,43.4837958 87.6309029,42.5375707 87.7977903,42.4824713 C87.9646777,42.4270188 91.8039712,42.9824272 93.250682,43.0385861 C94.6973928,43.0947451 97.4246333,43.2605729 97.8138607,43.3723609 C98.2029115,43.4837958 98.2581874,43.4294029 98.2581874,44.6527141 C98.2581874,45.8763785 98.2581874,51.1625594 98.2581874,51.1625594 C98.2581874,51.1625594 98.2590704,52.3314777 97.6467967,52.5539943 C97.0346996,52.775981 96.0888276,52.8877691 96.0888276,52.999204 C96.0888276,53.1104622 95.8664877,53.7781885 96.2000859,53.7781885 C96.5340373,53.7781885 101.764412,54.0558044 103.211476,54.0003519 C104.658011,53.9452525 111.556554,53.3320958 113.727326,52.943045 C115.897745,52.5539943 118.513551,52.1084314 118.680262,52.1084314 C118.847326,52.1084314 119.181101,47.2676368 119.181101,47.2676368 C119.181101,47.2676368 118.79152,47.1570849 118.401763,47.3790717 C118.011829,47.6015882 117.900394,49.714789 116.732359,50.5502857 C115.563971,51.3854292 114.395406,51.8306389 111.891388,52.0529788 C109.387194,52.2754954 108.497304,52.6654291 108.664545,51.5524932 C108.831079,50.4393806 108.608209,44.0407936 108.608209,44.0407936 C108.608209,44.0407936 108.385869,43.0947451 109.22013,42.982957 C110.05492,42.8715221 113.226664,42.3148775 114.283971,42.3710365 C115.341454,42.4270188 115.619953,42.8160696 115.842293,44.0960695 C116.064809,45.3758929 115.730505,44.8188951 116.064809,44.93033 C116.398054,45.0417649 117.011211,44.929447 116.955229,44.4852969 C116.898893,44.0407936 116.621277,43.150904 116.67673,41.1471954 C116.732359,39.1434869 117.065781,37.9747452 116.898893,37.7524052 C116.732359,37.5300653 116.120792,37.4186304 116.009004,37.7524052 C115.897745,38.0861801 115.563971,40.0337297 115.062955,40.4787628 C114.56247,40.9241491 112.169004,41.4248113 110.833905,41.5362462 C109.498629,41.6476811 108.664545,41.870021 108.664545,41.369712 C108.664545,40.8686966 108.496421,36.9732441 108.608209,35.3598225 C108.719644,33.7460477 108.553463,32.3556725 109.610063,31.7990279 C110.667017,31.2418535 116.009004,30.2959816 116.955229,30.240529 C117.901277,30.1854297 118.902602,30.5183215 119.848827,32.1880787 C120.794346,33.8578358 120.90631,33.4680786 121.239909,33.2455621 C121.573683,33.0230455 121.461542,33.1894031 121.350461,32.6332884 C121.239909,32.0771736 120.404412,29.8505953 120.070637,28.8492708 C119.736862,27.8479463 119.403088,28.459337 118.957878,28.515496 C118.512668,28.5716549 113.44971,29.8514783 108.497304,30.1854297 C103.545251,30.5192045 99.7605273,30.5751869 98.7035737,30.463752 C97.6467967,30.3519639 96.3671499,30.2398226 96.2000859,30.2959816 C96.0333751,30.3519639 95.6439711,31.1304186 96.2000859,31.2418535 C96.7563773,31.3532884 97.9244126,31.575805 98.2029115,32.5218535 C98.4814103,33.4680786 98.2590704,39.1998224 98.3143463,40.2011469 C98.3699755,41.202648 98.5375693,41.8147451 97.4800859,41.8147451 C96.4226024,41.8147451 95.4218078,41.870021 92.3607924,41.5362462 C89.2999536,41.202648 87.6309029,41.2573941 87.6309029,40.6458268 C87.6309029,40.0344361 87.5754503,36.6396459 87.5754503,34.4135974 C87.5754503,32.1880787 87.6309029,31.1858712 88.2984525,30.9082553 C88.9661788,30.6304628 89.8558918,30.6866217 90.0789381,30.6304628 C90.3018079,30.5743039 90.2458256,30.073465 90.0789381,29.9067542 C89.9118741,29.7400434 89.0783201,29.7400434 87.7423378,29.5729794 C86.4065321,29.4059154 83.1786293,28.6822068 83.0677242,28.6822068 C82.9569957,28.6822068 82.8455608,29.3506394 83.1793357,29.5729794 C83.5132871,29.7954959 84.6258698,29.9620302 84.9596447,30.9082553 C85.2935961,31.8543038 85.2927131,48.7703299 85.1821612,49.6051202 C85.0714328,50.4393806 85.0158036,51.3301532 84.292095,51.3854292 C83.568563,51.4407051 82.9017198,51.1625594 82.8455608,51.3292702 C82.7894019,51.4965109 82.9008368,52.1644137 82.9008368,52.1644137 Z" id="path116" fill="#FFFFFF"></path>
                        <path d="M127.340747,48.4994248 C127.030637,48.3134646 127.092447,46.5105507 127.092447,45.2665772 C127.092447,44.0227804 126.905251,38.8637518 127.216774,38.3659152 C127.454655,37.9860476 129.019335,37.6828247 130.884765,37.3093147 C132.749666,36.9359814 134.241233,37.744988 134.863043,40.1070189 C135.616067,42.9652969 133.930769,45.3907273 132.189666,46.7590275 C130.449268,48.1267979 128.646178,48.3754513 128.646178,48.3754513 C128.646178,48.3754513 127.651564,48.6859149 127.340747,48.4994248 Z M122.305516,50.985959 C122.305516,50.985959 130.697568,49.1214116 132.376156,48.4374381 C134.054743,47.7534646 137.971564,45.7651203 138.033374,41.6614559 C138.095537,37.557615 136.044853,36.8736415 134.92556,36.5010145 C133.80556,36.128211 133.495626,36.3145245 133.930769,35.4442375 C134.36556,34.5739506 138.156818,26.989315 140.519908,23.8193372 C142.882469,20.6490061 144.311873,18.3487854 145.928297,17.5404852 C147.545074,16.7327501 148.042204,16.2355846 147.1094,16.2355846 C146.176773,16.2355846 142.424367,17.3492623 140.706751,19.5298891 C135.17386,26.5545247 132.002646,34.3251206 130.759555,35.4442375 C129.516641,36.5633545 127.714434,37.0610145 127.340747,36.8745245 C126.967237,36.688211 127.09333,36.7501978 127.030637,33.8285201 C126.967237,30.9064893 126.905251,28.7313017 127.527237,28.046975 C128.149224,27.3628249 129.515758,26.8030015 129.827282,26.6166881 C130.138451,26.430198 129.951255,25.7455181 129.702778,25.8083879 C129.454478,25.8716108 127.215891,26.6175711 125.910637,26.990198 C124.60556,27.3628249 122.985074,27.6882995 122.119026,27.7976152 C121.621542,27.860485 121.240262,27.9288293 121.124412,28.7304187 C121.061542,29.1659154 122.491829,28.5448116 123.300129,28.8552752 C124.10843,29.1659154 124.170416,29.3522288 124.170416,32.336423 C124.170416,35.3199108 124.233639,47.5042814 124.046443,48.3125816 C123.859246,49.1210584 123.548959,49.4942151 122.678143,49.8048553 C121.807856,50.1154954 121.215361,50.2982769 121.559555,50.985959 C121.683529,51.2342592 122.305516,50.985959 122.305516,50.985959 Z" id="path118" fill="#FFFFFF"></path>
                        <path d="M154.380393,41.1032219 C154.380393,41.1032219 153.363175,41.5916987 152.260835,42.11267 C150.4445,42.9702418 146.659599,44.6857384 144.085648,43.9290055 C141.512226,43.1726259 140.4528,41.7093146 140.301277,39.1855178 C140.149224,36.6622507 140.603617,34.74437 147.062954,27.9316549 C153.522645,21.1189399 154.229224,17.1321673 153.421806,15.3160261 C152.613859,13.499514 148.713462,11.0758849 145.130592,12.8423661 C141.548076,14.6085824 139.94684,16.3747281 138.635228,17.8387634 C137.323264,19.3026044 136.061983,21.7751871 136.061983,21.7751871 C136.061983,21.7751871 135.152844,22.532803 135.10269,21.7751871 C135.052359,21.018101 135.607767,17.5364234 135.75876,16.8298097 C135.910107,16.123408 135.859423,15.9210769 136.162646,15.6690857 C136.465339,15.416865 141.966442,12.2869754 144.943396,11.3790726 C147.920703,10.4710284 152.215979,8.91818079 155.743219,14.0037259 C157.913638,17.1332799 156.348429,21.5733328 154.733594,24.0459155 C153.782424,25.5030457 151.151078,28.7390721 146.760085,33.0286967 C143.107811,36.5960256 141.624367,40.2811469 144.943396,42.3648555 C147.113109,43.7271512 151.310195,40.7590277 151.655272,40.4464449 C152.715228,39.4880343 153.168738,38.6811469 153.471608,37.5203523 C153.774831,36.3599108 153.925294,35.7541713 154.531563,35.6533324 C155.137656,35.5519638 155.188694,35.7532883 155.137656,36.4097121 C155.086972,37.0659593 154.380393,41.1032219 154.380393,41.1032219" id="path120" fill="#FFFFFF"></path>
                    </g>
                </g>
            </g>
        </g>
    </g>
</svg>