<svg width="200" height="200" xmlns="http://www.w3.org/2000/svg"><g fill-rule="nonzero" fill="none"><path d="m192.225 119.996-.032.588-3.57 1.445c.129.401.233.817.31 1.237.037.06.323.548-.12 1.763-.015.033-1.53 3.246-3.927 4.64.372.286 3.572 2.84 3.464 5.572.005.025.335 2.809-1.177 3.74-.025.012-2.21 1.046-3.135 1.62-.055.153-.774 2.029-2.333 3.142-.023.014-2.383 1.531-7.103 3.137-.01.004-.095.015-.24.015-.372 0-1.094-.066-1.76-.482-.052-.04-4.858-3.984-10.417-3.984-.85 0-1.68.092-2.478.273-.04.004-3.96.42-23.845 6.272l-13.638 4.297c-.235.177-.49.351-.765.516-.047.027-1.261.705-3.064 1.724 3.3 1.124 27.727 9.409 36.697 11.486.044.013 4.304 1.303 8.795 1.303 3.7 0 6.496-.854 8.318-2.532.038-.066.494-.834 1.445-.834.288 0 .596.067.915.206.004 0 .811.222 2.022 1.085 1.116.798 2.814 2.315 4.578 5.027.217.006 2.654.07 4.574 1.324.016.008 1.436 1.052 2.577 3.036 1.058 1.834 2.09 4.868 1.004 8.92v.004c-.024.034-1.844 3.028-6.51 3.575.002.231.048 1.889-.218 3.684-.264 1.784-.908 4.068-2.441 4.833-.002.004-.829.656-2.621.656-.842 0-1.763-.139-2.74-.418-.142.086-1.431.85-2.254.85 0 0-.594.023-1.411.023-1.277 0-3.056-.056-4.253-.336-.032-.003-3.137-.34-4.756-3.344-.025-.058-2.873-5.97-3.18-6.66-.016-.03-1.97-3.49-5.492-5.019-.035-.016-3.911-1.915-11.904-5.218-7.29-3.01-19.586-7.83-36.893-13.774-1.287.763-2.258 1.367-2.702 1.686-.186.12-4.437 2.926-5.225 3.097-.086.06-1.328.88-2.584.88-.04 0-.075 0-.112-.002-1.355-.052-5.595-.104-6.405-.104-.017 0-2.353-.016-3.89-1.398-.008-.01-.381-.323-.894-.755-14.053 4.837-23.825 8.639-29.575 10.988-6.319 2.582-9.28 4.018-9.303 4.03-3.54 1.491-5.53 4.928-5.548 4.967-.315.682-3.22 6.56-3.252 6.621-1.647 2.98-4.756 3.295-4.79 3.295-1.093.24-2.688.292-3.826.292-1.039 0-1.833-.041-1.84-.041-.823-.011-2.102-.785-2.243-.872-.95.258-1.843.39-2.662.39-1.851 0-2.695-.686-2.702-.69-1.52-.778-2.136-3.067-2.383-4.852a22.462 22.462 0 0 1-.176-3.686c-4.664-.597-6.452-3.612-6.472-3.643l-.004-.004c-1.039-4.062.024-7.085 1.096-8.906 1.166-1.977 2.596-3.005 2.61-3.014 1.935-1.23 4.307-1.274 4.59-1.274 3.432-5.167 6.634-6.036 6.666-6.043.309-.133.612-.2.893-.2.972 0 1.422.784 1.457.85 1.844 1.744 4.72 2.623 8.547 2.623 4.393 0 8.508-1.202 8.545-1.212 4.608-1.016 12.27-3.363 19.165-5.508-1.064-1.095-2.485-2.843-3.672-5.324-.003-.012-.874-1.626-.205-3.065.01-.024 1.096-2.597 2.07-4.178.003-.004.451-.922.202-1.574-.004-.009-.095-.36-.233-.977-2.897-1.646-9.815-1.742-11.367-1.742h-.362c-5.83.01-9.414 1.274-11.394 2.33-2.143 1.147-2.918 2.307-2.928 2.319-2.62 2.966-1.145 9.755-1.13 9.825l.012.054-.053-.02c-2.464-1.092-3.85-3.02-3.865-3.036-1.703-2.514-2.402-5.34-2.087-8.396.096-.984.307-1.993.613-3.019-1.4.814-2.267 1.528-2.276 1.535-.67.42-1.391.482-1.764.482-.146 0-.23-.009-.235-.009-4.726-1.61-7.086-3.123-7.109-3.14-1.559-1.112-2.278-2.989-2.333-3.139-.927-.576-3.109-1.611-3.128-1.62-.633-.388-1.035-1.156-1.167-2.232-.102-.806-.02-1.508-.02-1.512-.105-2.733 3.096-5.283 3.468-5.57-2.4-1.395-3.913-4.607-3.927-4.64-.25-.793-.12-1.746-.117-1.754.154-3.609 3.23-6.264 3.262-6.292 2.182-1.791 4.585-2.7 7.148-2.7h.005c-1.486-2.581-3.985-8.26-2.74-15.814.037-.744.535-6.883 6.25-14.012l.047-.055c3.719-3.965 9.459-10.18 10.042-11.05l.046-.068.054-.06c1.555-1.638 4.542-6.767 4.697-14.426.018-.79.42-19.355 1.244-24.008.071-1.154 1.148-14.582 12.364-22.295.382-.29 5.412-3.964 12.292-5.714l.985-.25.165.997c.01.06 1.024 5.978 4.17 10.328l.048.073c.133.22 3.326 5.45 9.055 4.336l.082-.01c.214-.028 5.439-.71 7.33-8.406l.017-.062c.02-.05 1.56-4.971 1.239-10.41l-.058-.953.955-.027c.299-.01 7.4-.188 17.04 2.965 8.893 2.9 21.663 9.316 32.041 23.378l.017.022c.064.09 6.312 9.143 12.583 20.475.064.108 5.803 10.509 15.294 19.08.488.438 12.08 10.86 17.123 17.246.18.216 2.542 3.08 4.33 6.074l.13.23c2.696 4.494 7.123 14.253 6.347 28.903m-45.061 61.323c3.687 1.609 5.5 2.492 5.55 2.518l.072.035c2.791 1.21 4.477 3.904 4.707 4.284.454.993 3.047 6.379 3.16 6.619l.034.066c1.84 3.406 5.18 4.057 5.879 4.161 1.077.238 2.602.357 4.536.357.76 0 1.322-.019 1.453-.025.843-.01 1.791-.411 2.43-.737.884.206 1.726.311 2.518.311.955 0 1.71-.15 2.283-.337a4.794 4.794 0 0 0 1.18-.554c2.837-1.535 3.359-6.06 3.422-8.538 4.41-1.022 6.205-3.968 6.284-4.107l.111-.191.059-.214a14.87 14.87 0 0 0 .527-3.696c.072-6.408-4.486-9.798-4.714-9.964l-.064-.045c-1.613-1.052-3.475-1.405-4.556-1.52-3.224-4.666-6.233-5.856-6.956-6.086a3.945 3.945 0 0 0-1.45-.297c-1.27 0-2.187.695-2.68 1.39-1.52 1.313-3.904 1.977-7.085 1.977-4.231 0-8.284-1.224-8.323-1.233l-.111-.03c-7.38-1.708-25.368-7.671-33.153-10.294.238-.133.475-.283.699-.443l13.333-4.2c19.403-5.715 23.38-6.19 23.522-6.211l.105-.009.105-.025a9.808 9.808 0 0 1 2.12-.234c4.952 0 9.345 3.577 9.389 3.616l.088.066.09.06c1.008.632 2.07.727 2.614.727.207 0 .355-.015.408-.022l.18-.02.166-.057c4.907-1.675 7.356-3.247 7.46-3.312l.055-.04c1.454-1.032 2.29-2.506 2.674-3.327.807-.45 2.057-1.058 2.548-1.291l.155-.08c2.165-1.333 2.017-4.41 1.943-5.171.028-2.216-1.39-4.166-2.587-5.416 1.804-1.734 2.841-3.935 2.9-4.055l.052-.123c.427-1.176.386-2.014.227-2.569l3.181-1.35.074-.986c1.384-18.618-6.382-30.26-7.117-31.316-4.82-8.14-19.27-21.203-19.884-21.754l-.079-.066c-1.543-1.225-5.716-5.566-7.205-7.147-5.351-5.896-10.811-15.65-11.156-16.261-2.15-4.322-11.104-17.7-11.49-18.268l-.051-.075c-7.893-10.438-17.04-15.678-17.666-16.029C103.09.27 88.184 0 86.532 0h-.204L84.66.04l.074 1.655c.326 7.392-1.811 12.99-1.823 13.028-2.082 5.154-5.812 5.252-5.947 5.254l-.122-.002-.116.013a4.66 4.66 0 0 1-.649.041c-2.639 0-4.69-2.085-4.707-2.1l-.02-.027C67.172 13.665 65.942 5.8 65.927 5.721l-.257-1.733-1.713.392C48.204 7.959 42.125 18.667 41.615 19.619c-4.33 7.142-4.982 17.523-5.005 17.945-.507 7.184-.876 21.026-.895 21.892-.489 6.287-2.285 8.958-2.295 8.968l-.087.127-.066.139c-.951 2.038-3.674 5.025-4.644 6.006l-.116.132c-.27.323-3.047 3.349-4.727 5.166-2.864 3.056-4.366 5.1-4.431 5.185l-.05.08c-4.853 7.502-5.025 14.719-5.033 15.027-.072 5.775 1.173 9.665 2.235 11.92-1.68.36-3.295 1.077-4.773 2.121-1.231.873-2.29 2.005-3.145 3.357-.7 1.114-1.178 2.267-1.416 3.424a10.465 10.465 0 0 0-.184 1.498c-.064.78-.064 1.608.286 2.356a13.935 13.935 0 0 0 2.766 3.926c.042.038.074.08.119.118a11.5 11.5 0 0 0-1.474 1.887c-.762 1.212-1.134 2.423-1.102 3.59l-.007.138c-.018.444-.039.947.024 1.49.166 1.505.734 2.622 1.683 3.317.261.195.523.315.708.401.041.014.076.036.11.052.383.184.77.376 1.149.564.368.188.684.351.98.515.42.91.984 1.75 1.64 2.434.932.98 2.073 1.532 3.081 2.024l.095.043c.953.466 1.947.9 3.058 1.332a46.29 46.29 0 0 0 2.042.758c.36.124.726.186 1.119.186a5.38 5.38 0 0 0 1.701-.308 14.066 14.066 0 0 0-.029 1.71c.083 2.138.68 4.269 1.72 6.15l.1.185c.195.369.438.82.817 1.215.238.247.493.5.795.78l.196.181c.898.842 1.374 1.258 3.186 2.303l3.16 1.826-.755-3.569a18.765 18.765 0 0 1-.338-2.72c-.077-1.285-.101-3.172.558-4.718.387-.916 1.168-1.754 2.313-2.481 2.274-1.444 5.302-2.257 9.26-2.473 2.259-.127 4.697-.06 7.236.187 1.224.122 2.826.318 4.324.748.32.094.68.2 1.015.337a1.502 1.502 0 0 0-.049.223 1.417 1.417 0 0 1-.182.455c-.274.459-.54.964-.857 1.59a49.728 49.728 0 0 0-1.12 2.426c-.528 1.228-.564 2.507-.11 3.81.381 1.098 1.003 2.102 1.501 2.908.352.561.72 1.1 1.112 1.618-6.495 2.008-12.795 3.893-16.712 4.755l-.11.028c-.04.013-3.952 1.148-8.1 1.148-3.295 0-5.753-.697-7.301-2.052a3.249 3.249 0 0 0-2.7-1.418c-.464 0-.937.095-1.418.278-.719.223-3.747 1.383-7.017 6.01-1.084.105-2.953.44-4.574 1.476l-.063.042c-.24.167-5.11 3.711-4.805 10.506a14.855 14.855 0 0 0 .473 3.11l.056.216.11.192c.08.138 1.842 3.105 6.239 4.17.04 2.478.513 7.01 3.332 8.576.442.304 1.588.927 3.554.927.35 0 .711-.02 1.08-.061.435-.047.881-.123 1.339-.226.22.115.475.24.75.355.525.217 1.122.397 1.675.408.158.013.916.046 1.9.046 1.72 0 3.1-.105 4.09-.313.701-.095 4.05-.708 5.922-4.097l.037-.068c.115-.232 2.766-5.592 3.23-6.583.234-.378 1.961-3.06 4.752-4.236l.08-.039c.11-.052 11.507-5.548 37.843-14.65.019.016.031.03.044.042.818.685 1.603 1.142 2.472 1.437a8.492 8.492 0 0 0 2.524.467c.854.02 1.718.027 2.55.032.642.008 1.284.012 1.928.024.095 0 .251.004.441.01.465.014 1.095.035 1.56.035.295 0 .487-.008.64-.025.705-.078 1.44-.307 2.186-.68.159-.078.29-.162.393-.232a.27.27 0 0 0 .062-.04c.593-.18 1.1-.49 1.51-.739.083-.053.166-.103.248-.147a74.004 74.004 0 0 0 2.125-1.31c.408-.26.811-.52 1.22-.778a142.09 142.09 0 0 1 2.436-1.55c21.342 7.348 35.168 13.028 42.24 16.107" fill="#FBC308"/><path d="M184.138 91.799c-1.734-2.91-4.135-5.803-4.16-5.83l-.014-.02c-4.94-6.26-16.794-16.92-16.917-17.025-9.733-8.793-15.617-19.458-15.677-19.565-6.119-11.062-12.22-19.928-12.474-20.298-10.088-13.662-22.488-19.89-31.114-22.708-7.349-2.405-13.251-2.805-15.464-2.867.12 5.2-1.206 9.608-1.35 10.059-2.153 8.69-8.238 9.694-8.892 9.774-6.7 1.283-10.582-4.59-10.95-5.173-2.62-3.636-3.84-8.11-4.28-10.082-6.156 1.777-10.657 5.119-10.704 5.152l-.033.023c-10.721 7.364-11.57 20.798-11.577 20.934l-.014.116c-.804 4.414-1.22 23.58-1.225 23.773-.201 9.884-4.591 14.994-5.158 15.615-1.074 1.492-9.107 10.072-10.159 11.195-5.533 6.92-5.82 12.894-5.82 12.956l-.013.115c-1.467 8.78 2.613 14.908 3.27 15.826 2.153.468 3.615 1.405 3.757 1.502.448-.137 1.071-.206 1.845-.206h.024c-2.209-2.715-5.581-8.083-5.03-15.015-.041-1.356.273-7.082 7.423-15.422l.085-.09c.043-.048 4.385-4.593 6.427-6.835l.17-.162c.008-.008 1.95-1.822 3.795-5.363 2.472-4.738 3.6-10.17 3.359-16.143-.255-6.425.518-14.894.626-16.035.006-.84.096-5.304 1.609-10.364 2.258-7.547 6.6-12.808 12.564-15.21l2.215-.888.838 2.226c.028.075 3.165 8.11 10.421 11.17l.057.022c.293.132 7.515 3.188 14.555-2.917.34-.35 4.543-4.842 5.957-14.062l.336-2.162 2.182.2c.22.026 5.579.544 12.918 3.77 6.71 2.957 16.468 8.856 24.827 20.194l.079.11c.3.464 7.432 11.416 10.524 17.16.305.532 8.23 14.395 18.695 23.83 1.098.903 15.891 13.24 20.686 24.707.492.981 3.653 7.635 3.887 19.023h-.018l.124 1.018c.45.592 1.044 1.463 1.562 2.489l2.48-1.007c.603-13.832-3.559-23.009-6.122-27.28l-.132-.23" fill="#FBC308"/><path d="M139.613 109.758a10.771 10.771 0 0 0-3.611-3.076c-1.768-.931-3.856-1.399-6.205-1.399-.113 0-.234.002-.351.004a1.155 1.155 0 0 0-.174-.01c-.197 0-.568.04-.84.312-.005.007-.812.923-.508 1.824.004.01.111.623.616 1.23l.004.007v.01c0 .013.014.383.797.383l.155-.001c.827 0 5.063.157 7.202 3.313 0 0 .553.502 1.088 1.653.497 1.061 1.09 2.905 1.09 5.682 0 .005-.005.63-.135 1.332-.172.948-.478 1.58-.913 1.886-.081.114-1.889 2.502-6.107 3.305 0 0-.162.014-.427.014-1.046 0-3.694-.201-5.577-2.074-.095 0-.727.017-1.01.2 0 .003-.389.3-.294.692l.004.008-.004.01c-.006.007-.3.819.103 1.519.112.29 1.048 1.145 3.806 2.36.002.002.686.23 2.124.23h.002c1.638 0 3.553-.284 5.696-.85.126-.07 3.537-2.023 4.94-4.931.025-.038 2.047-3.768.62-9.157-.003-.026-.421-2.266-2.09-4.476M54.962 115.216a12.478 12.478 0 0 0-2.227-.187c-3.35 0-6.891 1.037-6.927 1.049-2.585.675-9.7 3.543-9.778 3.57-6.236 2.042-10.841 2.861-12.473 3.021 1.425 1.484 4.175 3.592 9.24 5.277 2.96.98 5.378 1.376 5.563 1.402 1.292-.817 4.127-2.6 4.601-2.898-6.858-.875-9.939-3.595-9.967-3.62l-.089-.08.116.032c6.147 1.63 11.292 1.975 14.523 1.975 2.334 0 3.704-.181 3.713-.181.861-.15 1.664-.23 2.384-.23.9 0 1.35.124 1.361.124l.106.028-.112.03a52.743 52.743 0 0 0-7.107 2.227c-4.36 1.711-7.59 3.684-9.766 5.264-.3.22-.58.435-.858.644-2.894 2.24-4.234 4.002-4.248 4.02-2.12 2.623-4.604 6.728-4.429 11.398.085 2.14.73 3.772 1.095 4.42.134-1.625.725-3.153 1.755-4.533.848-1.121 1.982-2.157 3.382-3.07 2.383-1.557 4.737-2.233 4.76-2.237 2.09-.747 5.185-1.125 9.207-1.125 4.048 0 8.1.386 10.329.645-.13-.82-.255-1.726-.36-2.691-.425-3.894-.639-9.636.747-14.856.01-.03.765-2.518.114-3.12-.038-.043-3.883-4.249-4.655-6.298M128.128 93.49c.12.134.22.252.307.353 0-.63-.087-5.039-2.549-10.167-1.551-3.24-3.738-6.13-6.482-8.59-3.435-3.079-7.772-5.492-12.89-7.173-.031-.004-2.69-.776-5.82-.776-.497 0-.985.019-1.455.057-.083.007-8.515.625-17.347 1.337-.001.003-.032 0-.096 0-.747 0-7.408.119-10.933 4.12-.006.013-1.258 1.735-2.558 3.575a19.26 19.26 0 0 1 2.973 1.749c.29-.151 4.453-2.23 12.726-3.002.027-.003 2.634-.306 7.02-.306 1.797 0 3.66.05 5.535.151.02 0 1.994.263 3.57.263.586 0 1.047-.039 1.377-.105a29.759 29.759 0 0 1 4.323-.327c2.942 0 5.056.492 6.282 1.46.117.052 3.024 1.378 5.744 4.541.012.025 2.127 2.257 3.151 5.32.426.802 1.498 1.766 2.732 2.884 1.483 1.337 3.163 2.856 4.39 4.635M81.84 52.017c.005-.063.005-.127.005-.193 0-.06.005-.124.005-.185 0-.067.005-.134.005-.196.007-.064.01-.13.011-.191 0-.064.006-.128.008-.194l.01-.19c0-.067.008-.131.011-.198.002-.064.007-.125.014-.188.002-.065.01-.134.012-.202l.015-.185.014-.205.015-.178c.007-.07.012-.14.015-.21.009-.058.01-.116.017-.172l.02-.235c.007-.046.009-.092.016-.14.008-.124.017-.249.027-.37.369-4.027.905-9.16 4.879-9.615.081-.01.16-.017.241-.019.024-.002.051-.002.076-.002.051-.005.1-.007.153-.007H87.45a3.523 3.523 0 0 1 .32.018c.101.012.19.027.284.051.018.002.034.008.046.009.093.022.172.049.253.077l.047.02c.084.03.165.064.245.109l.015.01c.08.04.153.088.232.137.002.006.019.01.026.019.077.052.15.106.224.167a.214.214 0 0 0 .044.033c.07.061.147.129.216.197.013.01.026.024.04.035.075.07.15.15.231.231l3.566 3.698.606-6.73a11.091 11.091 0 0 0-.501-.253l-.147-.067a7.9 7.9 0 0 0-.37-.163l-.132-.053a9.866 9.866 0 0 0-.544-.19 6.946 6.946 0 0 0-.41-.119 3.539 3.539 0 0 0-.14-.031 5.005 5.005 0 0 0-.367-.079c-.04-.008-.076-.016-.115-.022a7.101 7.101 0 0 0-.469-.069c-.032-.003-.072-.005-.105-.01-.13-.014-.26-.022-.39-.03-.049-.006-.098-.008-.15-.01a11.426 11.426 0 0 0-.407-.008l-.095-.001c-.16 0-.322 0-.488.009-.044 0-.087.004-.13.004-.129.007-.26.016-.39.026-.06.006-.122.008-.178.015a8.516 8.516 0 0 0-.386.03c-.055.006-.108.01-.17.015-.178.018-.366.039-.56.06-5.944.676-11.14 6.88-11.718 13.259a15.53 15.53 0 0 0-.036.573c-.004.066-.004.128-.005.19-.003.132-.006.257-.006.382 0 .074.003.15.006.221.001.116.001.228.011.34.003.08.01.158.013.236.007.105.017.212.026.316l.028.236c.01.102.025.207.042.305.01.082.021.16.036.24.014.1.033.198.052.293.017.075.034.157.053.236.018.095.04.192.063.285.02.078.043.152.06.232.028.092.052.182.082.275.02.076.042.152.07.226.03.09.058.182.092.27.023.072.053.146.08.219.033.09.069.177.103.262.028.07.063.141.09.21.036.087.077.176.12.259.029.07.062.134.095.2.042.086.087.172.13.253.034.065.066.131.104.192.046.083.097.166.144.25.04.057.074.118.11.18l.165.245c.035.055.071.107.107.162.067.087.129.173.196.257.03.046.067.091.1.133.08.104.165.203.25.303.022.023.04.048.062.072.105.12.217.238.325.357.026.02.046.039.068.062.094.09.183.182.278.27l.126.106a3.49 3.49 0 0 0 .382.316c.076.063.152.12.235.179.05.038.103.073.155.112.076.05.154.103.23.152.057.043.115.075.173.107.074.05.154.095.232.141.059.034.123.065.185.1.076.041.154.08.234.12.06.032.125.057.19.09.077.037.163.072.24.105.067.027.134.053.196.08.082.032.162.064.247.09.069.027.139.048.202.069.087.027.167.053.253.076.067.02.14.038.207.054.088.026.172.043.263.064.07.014.139.03.206.042.09.02.181.034.27.046.07.012.14.024.21.031l.278.031.212.02c.096.006.192.009.288.01.067 0 .139.006.21.006.11.003.223-.002.335-.007.052 0 .105 0 .163-.003.166-.009.335-.022.506-.045 2.672-.304 4.648-.76 7.16-2.514l.608-6.728-4.31 4.553c-.98 1.08-1.936 1.655-3.2 1.796a3.868 3.868 0 0 1-.4.026h-.082c-.04 0-.076 0-.116-.003-.048 0-.1-.002-.15-.005l-.167-.018c-.043-.008-.095-.013-.138-.019a1.866 1.866 0 0 1-.152-.036c-.044-.01-.092-.017-.128-.032a1.772 1.772 0 0 1-.145-.048c-.038-.017-.078-.028-.118-.045-.047-.02-.088-.041-.13-.061-.037-.022-.071-.037-.106-.056-.045-.024-.086-.053-.13-.08-.027-.022-.06-.04-.089-.061-.043-.033-.086-.07-.126-.1-.023-.028-.047-.043-.076-.065-.045-.045-.095-.094-.137-.144a2.517 2.517 0 0 1-.205-.25l-.054-.087a6.652 6.652 0 0 1-.092-.142c-.023-.033-.038-.071-.056-.11a4.575 4.575 0 0 1-.073-.132c-.018-.042-.035-.085-.058-.128-.018-.046-.037-.09-.055-.141-.016-.042-.034-.085-.048-.13-.016-.05-.038-.096-.053-.146a1.617 1.617 0 0 0-.044-.144l-.04-.153c-.014-.047-.024-.1-.037-.15a4.045 4.045 0 0 0-.038-.157 5.348 5.348 0 0 0-.028-.157c-.012-.056-.019-.109-.033-.165a14.696 14.696 0 0 1-.02-.165 1.926 1.926 0 0 1-.024-.168c-.01-.057-.015-.112-.025-.172-.002-.055-.009-.112-.014-.17-.005-.06-.013-.12-.014-.177l-.015-.179c-.001-.058-.002-.118-.006-.178-.007-.06-.007-.122-.012-.183 0-.059-.005-.12-.005-.18 0-.065 0-.126-.005-.19V52.017M103.125 37.714l3.092-3.297-11.481 1.307 2.554 2.65-1.257 13.927c-.016.136-.02.272-.025.4v.13c0 .085-.004.173 0 .26 0 .049.005.098.01.146 0 .076.005.153.015.228 0 .048.008.097.015.145.008.072.018.142.028.214.008.05.016.095.027.14.01.072.024.14.043.203.01.048.023.09.03.139.02.066.043.135.063.203.01.039.027.082.036.116.027.075.053.144.082.218.014.027.025.062.036.09.04.104.09.202.135.296l.008.003a2.951 2.951 0 0 0 .203.358 5.879 5.879 0 0 0 .198.276c.037.052.076.103.119.16.027.028.052.059.08.09.044.05.089.095.13.144.03.028.058.061.087.088.047.047.095.093.146.136a.904.904 0 0 0 .088.084c.053.042.106.085.158.13l.085.069c.065.05.13.095.195.139.02.018.046.036.07.05.091.062.18.122.276.18l.005.001c.091.055.186.108.282.158.03.014.058.027.086.044.074.035.144.07.216.107.033.015.074.027.11.048.066.026.135.057.202.084l.123.046c.065.026.133.05.2.075.044.014.089.027.128.046.069.022.137.042.21.063.045.013.083.024.126.039.076.023.148.04.225.06l.12.027c.09.024.174.04.262.061.035.004.062.011.095.019.12.022.24.048.361.064a35.123 35.123 0 0 0 .74.093c.049.003.095.008.145.01.08.003.159.01.239.012a3.282 3.282 0 0 0 .387.014c.051.003.1.005.152.005h.16c.215-.002.43-.006.644-.019a.926.926 0 0 0 .086-.01c.233-.009.463-.029.695-.056 3.674-.417 7.499-3.64 7.858-7.67l1.264-13.927 3.092-3.292-8.698.992 2.555 2.652-1.256 13.922c-.19 2.112-1.94 3.975-3.909 4.202a4.66 4.66 0 0 1-.406.02h-.019c-.076 0-.152-.004-.223-.006-.034-.006-.071-.006-.106-.008a2.247 2.247 0 0 1-.37-.058c-.099-.02-.194-.042-.289-.074-.033-.01-.067-.025-.099-.037-.07-.023-.14-.045-.204-.076l-.114-.054c-.058-.03-.115-.058-.168-.089-.038-.02-.077-.049-.114-.072-.05-.034-.099-.065-.151-.102-.035-.027-.074-.056-.105-.083-.046-.04-.093-.076-.136-.12-.029-.028-.066-.06-.1-.094l-.115-.129c-.032-.036-.06-.074-.09-.11a5.14 5.14 0 0 1-.178-.265c-.035-.048-.057-.102-.09-.153-.02-.046-.044-.084-.064-.128-.026-.058-.044-.117-.068-.172-.017-.048-.038-.094-.053-.136-.021-.062-.034-.128-.05-.187-.015-.048-.03-.093-.04-.146-.013-.063-.022-.135-.032-.203-.007-.047-.017-.094-.022-.14-.008-.082-.012-.162-.016-.239 0-.045-.004-.083-.004-.128 0-.125.004-.252.015-.38l1.26-13.923" fill="#FBC308"/><path d="m73.021 56.102-2.21 2.36-5.881.668.728-8.058 3.38-.385 2.519 2.651.792-8.796-3.05 3.25-3.377.385.579-6.415 5.05-.576 1.938 2.016c1.525-3.469 3.53-5.462 3.53-5.462L58.1 39.892l2.554 2.65-1.548 17.131-3.096 3.295 20.163-2.295s-2.155-1.903-3.153-4.57" fill="#FBC308"/><path d="M131.19 120.235a12.554 12.554 0 0 1-2.838 3.065c.137.144.946.887 2.526.887 1.284 0 2.741-.482 4.337-1.427.013-.011 1.329-.735 1.43-2.249.003-.02.202-2.177 0-3.705-.003-.002-.127-.7-.409-1.12-.016-.03-.042-.072-.072-.127-1.256-2.19-3.646-2.974-4.506-3.248.153.488 1.252 4.161.294 6.462 0 .005-.214.604-.763 1.462Zm-28.31-62.023h.065-.16.095ZM89.505 35.918h.1-.1Zm17.637-1.126-.248.263-2.87 3.058-1.233 13.607c-.062.71.116 1.314.511 1.748.373.406.923.634 1.55.634.1 0 .21-.008.316-.023 1.552-.174 2.942-1.684 3.092-3.359l1.218-13.502-2.263-2.347-.073-.079Zm10.12-.92-2.872 3.062-1.232 13.61c-.423 4.692-4.837 8.07-8.689 8.506-.53.063-1.066.093-1.59.093-2.735 0-4.992-.826-6.358-2.32-1.093-1.19-1.58-2.785-1.414-4.606l1.218-13.503-1.55-1.61-.006.008-.602 6.722-.187 2.032-1.412-1.468L89 40.699c-.61-.634-.976-.829-1.573-.829-.12 0-.244.01-.382.025-3.046.346-3.655 4.349-4.056 8.774-.215 2.39-.546 6 .593 7.239.184.201.514.467 1.22.467.117 0 .247-.006.376-.018.996-.114 1.753-.55 2.617-1.5l.005-.006.003-.008 4.312-4.555 1.845-1.95-.24 2.674-.607 6.724-.04.43-.357.25c-2.606 1.822-4.677 2.349-7.587 2.68-.358.042-.71.059-1.06.059-2.555 0-4.938-1.069-6.711-3.007-2.086-2.276-3.105-5.52-2.797-8.898.29-3.268 1.775-6.652 4.07-9.291 2.385-2.75 5.39-4.457 8.464-4.803a20.026 20.026 0 0 1 2.432-.167c1.486 0 2.736.267 4.036.858l-.802-.835 1.868-.213 11.283-1.282 1.87-.213 8.694-.989 2.517-.285-1.732 1.843ZM76.278 61.6l-20.157 2.294-2.522.284 1.736-1.843 2.876-3.061 1.482-16.397-2.267-2.344-1.303-1.35 1.872-.216 18.919-2.152 2.64-.297-1.875 1.878c-.016.019-1.908 1.93-3.334 5.177l-.557 1.273-.481-.5-.027.282-.795 8.797-.188 2.052-1.414-1.496-2.198-2.317-2.169.246-.556 6.17 4.405-.504 1.98-2.11 1.029-1.093.525 1.407c.893 2.408 2.87 4.183 2.89 4.2l1.566 1.382-2.077.238Zm101.91 38.264-.099-.209c-4.389-10.62-19.267-22.894-19.415-23.017l-.08-.071c-11.224-10.097-19.345-24.455-19.681-25.06l-.021-.034c-2.89-5.365-9.74-15.924-10.306-16.794-7.686-10.4-16.602-15.833-22.73-18.556-4.08-1.816-7.504-2.708-9.564-3.13-2.054 9.666-6.735 14.228-6.947 14.431l-.076.066c-9.183 8.025-18.798 4.047-19.56 3.715-6.457-2.732-10.19-8.324-11.866-11.491-9.348 5.57-9.298 20.216-9.294 20.372v.127l-.01.125c-.008.09-.877 9.078-.617 15.511.633 15.798-7.552 24.06-8.6 25.053-2.013 2.204-5.907 6.287-6.396 6.796-6.38 7.46-6.27 12.142-6.268 12.185l.018.209-.018.208c-.687 7.772 5.246 13.226 5.308 13.279l-.062.072c.965.997 3.108 3.116 4.58 3.769 2.944-1.034 5.001-1.93 5.036-1.948 5.523-2.307 10.066-2.65 12.28-2.65.326 0 .584.01.767.017-.04-.85-.017-1.954.14-3.358 0-.009.107-1.05.984-2.129.018-.024 2.066-2.677 3.14-3.903-.088-.276-1.236-4.046-.15-10.308 0-.003.042-.303-.304-.697-.035-.038-3.564-3.98-2.746-8.528.004-.013.165-1.109.973-2.633.744-1.407 2.202-3.486 4.927-5.378.007-.003.87-.848 2.832-.848.16 0 .325.005.49.019.007 0 .357-.01.805-.508.025-.02 2.34-2.027 3.77-3.605.027-.038 3.317-3.832 8.486-4.493.109-.012 10.786-.937 15.024-1.396 4.238-.457 4.733-.462 4.755-.462.004 0 .343-.02.933-.02 2.45 0 8.69.314 13.687 3.219.083.035 8.208 3.945 12.663 10.317 3.245 4.637 5.34 9.763 6.228 15.228.722 4.412.458 7.832.332 9.474-.013.181-.027.343-.036.477 1.923.134 3.684.636 5.25 1.487 1.494.82 2.81 1.954 3.926 3.38 1.89 2.427 2.525 4.886 2.535 4.913.306 1.227.41 2.057.41 2.061.312 1.84-.1 6.048-.1 6.095-.106 1.121-.518 2.058-.522 2.071-.172.685-.99 1.863-2.43 3.51a50.034 50.034 0 0 1-2.118 2.27c-.824.72-1.862 1.036-1.87 1.036-2.25.615-6.573.928-6.615.932h-.006c-1.467 0-1.731-.144-1.774-.216-2.47-.86-4.506-2.373-5.823-3.538-.124 1.749-.028 4.502.917 8.408.004.024.677 2.54 1.44 4.064 0 .005.014.014.021.042 3.436-1.097 23.282-7.592 34.287-14.633.023-.02 2.99-2.418 4.137-4.48.024-.044 2.36-4.313 4.674-4.661.016 0 1.363-.206 2.696-.206.775 0 1.396.067 1.841.206.195-.131 2.744-1.763 6.146-1.763 1.017 0 2.013.143 2.983.435-.558-9.6-3.28-14.803-3.317-14.856ZM71.676 43.903l.591-.632-1.065-1.114-3.843.442-.412 4.524 1.912-.216 2.817-3.004Zm12.68 16.314c-.11.004-.225.01-.334.01l.047.002c.097 0 .193-.008.288-.012Z" fill="#51288B"/><path d="M69.298 139.481c.04.045.097.059.177.045h.006c.046 0 4.566.347 5.998.616h.006c.042 0 .18-.02.233-.284.004-.021.239-2.446.068-3.324l-.002-.005.002-.003c0-.001.034-.321-.154-.381-.015 0-2.314-.232-4.111-.232-.668 0-1.195.03-1.552.097h-.007s-.027-.007-.055-.007c-.118 0-.311.041-.36.324-.005.02-.444 1.456-.275 2.846v.002l-.005.008s-.04.202.031.298Zm15.436-9.525c-.257-.042-2.592-.415-6.648-.415-.306 0-.622 0-.933.005.005.281.018 2.569.275 4.23 0 .005.036.458.32.523.037.003 4.147.208 5.709.277.005 0 .032.004.079.004.152 0 .42-.038.514-.327.007-.023.684-2.267.684-4.297Zm8.054 5.237c.006-.021.825-2.221.956-4.243-.29-.064-3.117-.643-7.75-.871-.016.278-.146 2.561.007 4.236 0 .007 0 .508.286.54.04.008 4.335.458 5.89.624.005 0 .054.012.124.012.167 0 .388-.052.487-.298Zm16.783 11.527c-2.25 2.38-5.415 4.587-5.443 4.61-.404.161-.868.242-1.385.242h-.004c-1.398 0-2.757-.579-2.768-.583-1.293-.543-9.081-3.268-9.157-3.299-.31-.132-.446-.242-.43-.342.027-.153.43-.192.506-.196 3.272.34 9.448 1.438 9.51 1.446a9.17 9.17 0 0 0 1.557.141c1.642 0 2.337-.542 2.341-.55 1.028-.479 4.588-1.981 4.621-1.995.334-.145.582-.22.736-.22.103 0 .167.031.197.093.092.192-.244.601-.28.653Zm-37.205-30.75c.252-.974 1.944-2.722 2.016-2.793 1.986-1.83 2.676-3.634 2.681-3.65.611-1.43 1.539-3.03 1.55-3.048.317-.475.605-.718.859-.718.207 0 .327.156.364.228h.009c.027 0 .102 0 .319.65.125.382.429.444.441.446l.016.004c.12.098.261.146.43.146.406 0 .817-.299.823-.299.717-.51 1.396-.774 1.402-.777a.263.263 0 0 1 .142-.05c.244 0 .355.411.358.43 1.533 6.614 5.02 10.568 5.058 10.607.23.262.322.527.278.792-.09.515-.676.837-.705.85-.349.252-1.58 1.375-1.591 1.39-.757.75-1.604.835-1.932.835a.716.716 0 0 1-.102-.005 3.14 3.14 0 0 1-.298.014c-2.399 0-4.61-2.883-4.63-2.912-.548-.597-1.005-.607-1.009-.607a.483.483 0 0 0-.082-.01c-.662 0-2.309 1.634-2.323 1.649a1.766 1.766 0 0 1-1.42.733c-.063 0-.102-.004-.102-.004-.597-.078-1.158-.525-1.53-.888-.397-.389-.656-.768-.662-.768-.773-1.084-.366-2.236-.36-2.245Zm12.7-22.162c0-.024.052-.73.418-1.145.01-.013 1.203-1.404 2.224-2.068l.03-.02 1.103 2.26v-.002s.03.047.237.13c.01 0 1.14.254 2.656.254 1.124 0 2.169-.136 3.102-.409.07-.052.986-.76 3.248-2.73.049-.034 4.724-3.774 6.615-4.741.01-.009 1.254-.88 2.341-.88.013 0 1.046.264 2.6 1.637 1.427 1.265 3.595 3.763 5.837 8.483.014.028.01.053 0 .07-.048.078-.283.092-.722.111-.557.027-1.32.06-1.75.311.005.303.013 4.5-2.018 8.5-.008.018-.911 1.667-3.02 1.818-.01 0-.82.01-1.959.01-1.767 0-4.245-.019-5.995-.11-.007 0-.24-.03-.567-.03-.433 0-1.047.05-1.48.285-.02.01-1.915 1.084-2.32 1.44l-.02.016-.022-.019a308.42 308.42 0 0 0-5.524-5.358c-.018-.022-1.87-1.82-3.096-2.89-.221-.167-2.163-1.649-2.228-1.92-.055-.226.105-2.086.31-3.003Zm35.782 56.127c.017-.023 1.3-2.095 1.96-4.89.003-.01.149-.73-.31-1.892-.01-.024-.943-2.545-1.96-4.481-.006-.014-.422-1.025-.828-4.392-.04-.331-.306-4.378-.066-8.602-.08 0-.15-.006-.227-.006-4.305 0-6.93 2.232-6.953 2.25-.397.33-.273.711-.273.728l.004.01c.066 6.792-.681 11.842-.689 11.892-.138 1.72-2.68 2.626-2.706 2.636-1.156.27-5.324 1.839-5.366 1.854-1.126.419-1.936.45-2.156.45h-.075a.97.97 0 0 1-.176.013c-.454 0-1.37-.167-1.378-.167-2.143-.153-9.84-1.483-9.916-1.496-12-2.038-21.141-2.095-22.146-2.095h-.102c-.635 0-.716-.979-.716-.99-.477-5.98.132-11.088.138-11.14-.003-.247.143-.358.148-.362.41-.274 1.28-.544 1.316-.557l.04-.01v.042c.07 3.521.817 5.195.823 5.21.064.226.261.271.416.271.08 0 .136-.011.136-.011.22-.013.5-.02.833-.02 1.56 0 3.902.116 3.926.119a.42.42 0 0 0 .418-.417v-.008c.415-1.186.778-3.96.82-4.293-.702 0-4.269-.069-4.306-.069-.232-.039-.318-.177-.35-.286-.04-.115-.02-.224-.02-.23.28-.769 1.394-.779 1.403-.779 2.307-.31 5.024-.467 8.067-.467 11.644 0 24.716 2.302 24.844 2.323.117.017.23.024.335.024.646 0 1.107-.296 1.363-.885.194-.442.2-.89.2-.898 0-1.894-1.634-4.63-1.648-4.656-.34-.898.311-1.409.703-1.557 4.893-1.763 7.123-4.635 7.143-4.666.415-.51.435-.705.48-1.135a9.05 9.05 0 0 1 .067-.498c.134-.814.14-4.36.14-4.393v-.095l.051.081c2.245 3.295 1.699 7.914 1.661 8.247 3.359 2.103 5.386 2.669 6.55 2.74 4.529-2.063 6.935-5.15 6.96-5.185.387-.775.31-3.084.3-3.269-1.837-1.837-3.486-4.506-3.501-4.531-1.403-2.094-.387-3.735-.319-3.842.188-1.09 1.919-1.926 2.38-2.132.047-.433.096-1.026.096-1.416 0-.014-.076-1.823-1.028-3.695-1.792-3.533-3.85-5.714-5.35-7.308-.227-.237-.438-.464-.634-.674-1.073-1.17-2.916-2.788-2.935-2.804-.135-.192-.209-.326-.22-.407-.004-.01-.218-1.049-.725-2.678-.005-.014-.262-1.08-.82-1.532-.022-.033-2.196-2.957-4.64-4.586-.012-.005-.837-.618-1.902-.872-.023-.006-2.795-.563-3.552-.516-.01 0-.1-.002-.258-.002-.53 0-1.842.032-2.522.307-.026.008-1.864.357-5.157 1.808-3.045 1.34-7.988 3.921-14.25 8.605-.026.022-2.529 2.293-3.143 5.136-.008.073-1.109 7.4-3.201 9.907-.03.07-.425 1.044-1.475 2.445-1.001 1.336-2.827 3.348-5.816 5.348-.01.014-.412.374-1.153.374-.335 0-.686-.07-1.042-.217-.024-.007-2.791-.755-7.54-3.664l-.01-.006c-.005-.002-.314-.384-.776-.384-.21 0-.425.081-.63.24-.02.008-1.86 1.655-2.574 2.975-.003.006-.254.361-.204.754 0 .028-.102 2.025.105 3.198v.01c0 .004-.097.616.408 1.419.02.028 2.872 2.855 6.188 4.994.02.009.504.272.574.568a.298.298 0 0 1-.05.248c-.017.024-1.806 2.43-2.114 3.854-.008.025-.725 2.712-.952 6.659-.212 3.64-.042 9.132 1.986 14.614 0 .004.206.51.513.866l.013.02-.018.02c-.024.025-2.536 2.69-3.25 4.165-.003.017-.758 1.5-.205 2.603.01.028 1.014 2.56 3.767 5.356.008.011.73.97 1.936.918.048 0 4.6-.312 5.308-.617.042-.008 3.2-.545 5.062-.545.726 0 1.158.078 1.32.241.077.037 1.024.49 1.96 1.132.05.037 4.712 3.512 5.831 4.07.01.007.374.263 1.234.513l.01.005c.01.006.805.52 6.337 1.132.006 0 .231.046.55.046.417 0 1.026-.08 1.546-.457.059-.033 5.464-3.379 9.185-10.4l.06-.117-.01.13c0 .02-.108 2.28-.959 5.507.334-.196 1.97-1.149 2.937-1.514.08-.04 8.29-4.092 10.995-5.873.027-.02 3.043-1.973 3.756-3.391Zm-98.67-21.593c.196-.62.483-1.15.483-1.155l.03-.057.012.062c.262 2.024 1.436 2.697 1.448 2.703 1.42 1.246 5.437 1.775 5.56 1.794a2.73 2.73 0 0 1 .264-.023c.053 0 .091.004.093.033.002.019.01.068-.538.232-1.416.345-2.578.523-3.455.523-.696 0-.95-.116-.985-.129-.596-.105-.848-.272-.86-.28a2.19 2.19 0 0 1-.51-.336c-.232-.194-.751-.7-.762-.706-.34-.306-.735-.892-.74-.895-.292-.334-.305-.93-.04-1.766Zm-10.826-4.917c.239 1.13 1.52 2.425 2.552 3.31 1.119.963 2.195 1.658 2.204 1.67l.024.014-.013.02c-1.04 2.076-3.708 3.712-3.732 3.728-1.364 1.36-.808 3.317-.804 3.336.323 1.534 1.496 1.764 2.17 1.764.236 0 .411-.032.458-.04.665-1.258 1.485-1.979 2.056-2.364.621-.422 1.095-.54 1.099-.54l.051-.012-.017.048c-.916 2.748-.932 4.842-.813 5.564 0 .787.564 1.136.57 1.136l.003.004.006.01c.332.66 1.293 1.304 2.791 1.872 1.133.43 2.184.663 2.193.669.126.035.256.052.386.052.613 0 1.1-.392 1.1-.397 1.165-.74 2.221-1.162 3.07-1.5.299-.119.557-.218.778-.324.117-.05.176-.057.211-.06.043-.01.043-.01.125-.16l.003-.008c1.886-3.333 3.86-5.784 5.181-7.252 1.26-1.391 2.185-2.184 2.407-2.37-1.624-.295-3.225-.907-4.742-1.68-2.511-1.264-4.734-2.934-6.406-4.36-2.826-2.427-4.684-4.691-4.782-4.81 0-.003-.002-.004-.002-.004l-.054-.067-.007-.005.088.025c.43.1.964.147 1.593.147 3.692 0 9.631-1.71 10.202-1.877-1.493-1.677-3.21-1.77-3.224-1.77a6.152 6.152 0 0 0-1.516-.182c-1.454 0-2.526.479-2.541.487l-.018.004-.016-.013c-.377-.38-1.957-1.338-1.973-1.35a6.51 6.51 0 0 0-2.77-.623c-3.934 0-7.051 3.599-7.086 3.637-.83 1.428-1.01 2.51-1.01 3.167 0 .712.203 1.093.203 1.097l.002.007Zm87.942 19.959c1.45 0 2.021-.129 2.133-.16-.135-1.359-.646-3.846-.65-3.873a.537.537 0 0 0-.389-.456c-1.008-.336-5-.874-5.16-.892-.38.066-.453.386-.453.386-.405 1.507-.906 3.878-1.057 4.618 2.234.248 4.11.377 5.576.377Zm-67.876 37.194c-.035.134-.911 3.266-2.389 3.404 0 0-.612.167-1.08.167-.034 0-.07 0-.096-.004-.014 0-.646-.004-2.024-.224-.005 0-.192-.025-1.129-.282-.025-.005-.56-.163-.717-.256-.105-.026-1.483-.45-4.158-4.624-.143-.249-.376-.674-.335-.746.01-.013.02-.02.04-.02.023 0 .066 0 .347.347a34.3 34.3 0 0 0 2.678 1.737c1.383.796 3.316 1.762 4.708 1.814.01 0 .234.057.608.057.66 0 1.992-.18 3.495-1.4l.072-.06-.02.09Zm38.297-17.74c-1.285.04-2.308.074-2.335.076-.014.004-.476.05-1.097.05-.81 0-1.847-.076-2.626-.413l-16.219 4.895c-7.614 2.068-12.32 2.577-12.367 2.584a19.31 19.31 0 0 1-1.556.061c-5.82 0-9.261-2.71-9.298-2.737-.23-.237-.479-.36-.731-.36a.891.891 0 0 0-.546.192c-4.002 2.17-5.16 6.01-5.17 6.048l-.01.02h-.025a5.484 5.484 0 0 0-.436-.016c-1.238 0-2.954.286-2.974.286-2.514.13-3.798 3.32-3.813 3.35-1.486 3.568-.005 6.069.01 6.094 1.042 2.141 6.414 2.376 6.47 2.376h.02l.007.023c.425 1.867.073 2.956.046 3.032-.14 2.026.125 3.238.37 3.901.27.717.573.959.576.961l.006.004c.307.428.806.645 1.489.645.625 0 1.21-.191 1.323-.23-.124-2.144.966-3.991.978-4.01l.047-.076.005.087c.22 2.441 1.53 4.007 2.19 4.495l.006.004c.402.565 1.099.653 1.477.653.204 0 .346-.025.35-.025 3.07-.12 6.26-1.16 6.288-1.174.604-.366 2.495-4.56 2.515-4.6 1.19-3.662 3.307-6.522 3.331-6.555 1.251-1.826 7.444-4.394 7.505-4.42 4.01-1.855 19.436-7.289 30.787-11.22-1.588-3.084-5.536-3.85-6.593-4.001Zm13.26-26.35c-.989-.238-4.848-.274-4.89-.274-.416 0-.45.436-.45.456-.258.903-.639 3.458-.683 3.753 2.349.393 5.133.84 7.07 1.152a39.682 39.682 0 0 0-.663-4.628c-.064-.45-.37-.46-.385-.46Zm-23.296-46.59c.155-.356 1.263-2.865 2.363-4.245.057-.08 1.354-1.913 2.487-2.226a.665.665 0 0 1 .352-.082c.475 0 1.532.336 3.322 2.577 1.324 1.65 4.492 5.327 5.855 6.167a.728.728 0 0 0 .425.125c.075 0 .15-.007.226-.024l.003-.002.017.002c.294 0 2.912-.064 3.932-2.204.013-.014.68-1.6.88-2.06.01-.017.898-1.667 2.333-2.539.1-.062 9.685-6.567 13.063-7.895-.682-.079-4.118-.454-5.871-.454-.022 0-2.455.058-5.107.31-.062.004-6.036.438-10.47 2.577l-1.05.547-.011-.01c-.039-.022-3.942-2.33-5.573-2.87-.016-.009-1.293-.578-2.588-.578-.73 0-1.328.18-1.773.533-.03.024-2.914 2.065-5.052 6.641-.008.014-.704 1.093.224 2.842.648 1.219 1.555 2.36 2.013 2.868Zm117.925 89.684c-2.716 4.143-4.076 4.62-4.175 4.648-.718.47-1.14.541-1.156.541a3.172 3.172 0 0 1-.852.146c-.117.005-.29.01-.521.01-.432 0-.927-.01-.935-.01h-.065c-.646 0-1.546-.209-1.557-.209-1.471-.158-2.313-3.295-2.347-3.429l-.024-.09.07.06c1.515 1.253 2.859 1.437 3.523 1.437.355 0 .56-.048.56-.048 1.407-.04 3.349-.983 4.736-1.77 1.468-.83 2.63-1.66 2.698-1.708.282-.342.324-.342.354-.342.014 0 .023.006.033.022.043.07-.196.496-.342.742Zm9.33-1.785c-.01-.032-1.264-3.236-3.768-3.386-.026-.005-1.814-.323-3.052-.323a5.86 5.86 0 0 0-.36.012h-.022l-.011-.02c-.01-.04-1.128-3.889-5.104-6.098a.864.864 0 0 0-.553-.202c-.256 0-.5.12-.73.349-.01.01-.862.67-2.406 1.322-1.42.605-3.745 1.321-6.72 1.321-.574 0-1.172-.029-1.755-.078-.048-.006-4.747-.566-12.338-2.712l-31.515-9.877c-1.174.383-4.712 1.907-4.52 6.409 11.35 4.03 33 11.796 37.838 14.096.06.028 6.227 2.66 7.46 4.504.018.023 2.11 2.91 3.256 6.589.02.038 1.87 4.251 2.474 4.632.024.005 3.205 1.077 6.266 1.232.007 0 .163.03.382.03.452 0 1.072-.111 1.456-.641l.01-.004c.664-.478 1.989-2.032 2.234-4.47l.006-.09.05.08c.01.017 1.08 1.876.933 4.021.115.042.711.243 1.352.243.665 0 1.16-.21 1.465-.631l.004-.004c.014-.01 1.226-.97 1-4.851-.024-.074-.369-1.168.077-3.03l.005-.022h.02c.055-.005 5.428-.18 6.494-2.306 0-.01.387-.633.588-1.69.181-.975.244-2.532-.516-4.405ZM91.588 137.38l-.006.006-.007-.006c-.8-.264-4.96-.47-5.152-.48-.319.132-.388.454-.388.454-.36 1.325-.832 3.828-.937 4.392.838.132 1.358.22 1.358.22 2.192.367 4.229.667 6.048.896-.203-3.399-.537-5.076-.537-5.09-.128-.445-.377-.392-.379-.392Zm78.829-4.813h.111c1.96 0 2.773-1.023 2.779-1.034 1.447-1.217 2.564-5.104 2.599-5.224.005-.327.03-.351.064-.351.017 0 .067 0 .147.57.328 3.504-.22 4.37-.263 4.435-.193.575-.392.803-.401.812-.168.247-.41.453-.41.455-.23.201-.806.638-.812.643-.356.293-.992.597-1 .601a.91.91 0 0 1-.516.135c-.954 0-2.292-.994-2.311-1.003l-.048-.041.06.002Zm-44.394 11.448a5.881 5.881 0 0 1-.008 1.502c-.006.018-.148.865-.393 1.906-.22.985-.48 2.028-.627 2.235l-.134.326c1.101-.329 2.693-.799 4.525-1.34 5.281-1.57 12.517-3.708 13.668-4.143.127-.043 12.927-4.537 18.244-4.537.131 0 .255.003.375.006.051-.014.454-.131 1.235-.131 3.84 0 8.543 2.631 11 4.203.013.004.49.398 1.106.398.129 0 .257-.021.386-.057.044-.007 4.184-.943 4.985-2.537l.001-.008.007-.004c.008-.006.571-.352.571-1.136.002-.027.33-2.13-.813-5.567l-.018-.049.049.012c.648.162 2.14.974 3.155 2.908.047.004.224.035.465.035.665 0 1.838-.233 2.162-1.76.008-.02.56-1.976-.805-3.343-.023-.01-2.692-1.646-3.725-3.719l-.016-.026.025-.014c.04-.03 4.3-2.806 4.754-4.975l.004-.007c.28-.52.465-2.078-.818-4.27-.002-.008-.725-.95-1.908-1.881-.488-.382-1.1-.796-1.803-1.137h-.076c0-.015-.003-.03-.003-.04-.858-.41-1.846-.705-2.916-.705-.99 0-1.968.253-2.907.754-.004 0-.423.182-.516.487a.475.475 0 0 0 .06.401c.006.01.592.841 1.054 3.145l.017.099-.068-.072c-.03-.033-3.04-3.184-5.785-3.184-.37 0-.722.058-1.05.17l-.01.003-.008-.003s-.06-.023-.181-.023c-.512 0-1.982.386-4.55 3.957-.032.149-.544 2.107-6.763 6.168-.105.061-10.848 6.153-32.435 13.64.068.167.398 1.034.488 2.313Zm-30.836-12.952c-.023.277-.2 2.411-.168 4.212-.007.026-.088.46.29.541.03.008 3.708.458 5.268.625 0 0 .052.008.122.008.167 0 .387-.05.483-.296.011-.019.832-1.633 1.164-3.423-.224-.104-2.344-1.023-7.159-1.667Z" fill="#FFF"/><path d="M73.39 118.983c.367.363.93.81 1.528.89a1.776 1.776 0 0 0 1.522-.732c.014-.014 1.661-1.647 2.325-1.647.026 0 .05.005.08.01.006 0 .46.009 1.01.606.02.03 2.228 2.912 4.63 2.912.1 0 .2-.005.297-.014 0 0 .036.005.102.005.328 0 1.176-.085 1.932-.836.013-.014 1.242-1.137 1.595-1.39.025-.012.61-.334.7-.85.048-.264-.048-.53-.277-.791-.038-.04-3.525-3.99-5.058-10.607 0-.019-.118-.43-.358-.43a.273.273 0 0 0-.142.048 6.928 6.928 0 0 0-1.402.78c-.006.002-.414.294-.825.294a.66.66 0 0 1-.428-.142l-.016-.006c-.012-.003-.316-.062-.445-.445-.213-.649-.29-.649-.319-.649h-.005c-.037-.068-.157-.228-.364-.228-.254 0-.54.243-.86.72-.007.016-.938 1.615-1.549 3.042-.005.02-.693 1.822-2.68 3.654-.074.073-1.765 1.82-2.017 2.793-.006.009-.409 1.161.362 2.245 0 0 .263.377.662.768M86.982 98.732c1.225 1.073 3.08 2.87 3.1 2.889 2.857 2.698 5.495 5.334 5.524 5.358l.02.02.02-.017c.405-.356 2.3-1.43 2.317-1.44.442-.234 1.05-.287 1.48-.287.33 0 .563.03.57.032 1.75.091 4.228.11 5.995.11 1.14 0 1.948-.006 1.958-.006 2.11-.155 3.01-1.806 3.022-1.822 2.03-4 2.022-8.197 2.016-8.498.43-.255 1.194-.286 1.75-.31.442-.022.675-.038.723-.114.01-.015.016-.042.004-.07-2.242-4.72-4.414-7.218-5.846-8.483-1.543-1.375-2.582-1.636-2.599-1.637-1.083 0-2.33.871-2.34.877-1.892.97-6.563 4.707-6.612 4.747-2.262 1.965-3.177 2.675-3.248 2.73-.934.27-1.978.408-3.106.408-1.513 0-2.646-.257-2.652-.258-.206-.081-.238-.126-.238-.126l-1.102-2.257-.03.017c-1.021.664-2.212 2.052-2.227 2.064-.361.416-.416 1.123-.416 1.147-.208.917-.368 2.783-.313 3.006.073.273 2.01 1.755 2.23 1.92M109.655 145.972c-.154 0-.402.075-.736.22-.033.016-3.593 1.518-4.62 1.996-.005.009-.7.548-2.342.548a9.391 9.391 0 0 1-1.557-.138c-.062-.012-6.238-1.108-9.51-1.446-.076.004-.479.043-.506.196-.016.103.12.207.43.342.076.03 7.864 2.756 9.157 3.3.01.007 1.37.58 2.768.58h.004c.517 0 .98-.082 1.385-.242.028-.02 3.193-2.228 5.443-4.608.037-.045.373-.46.28-.653-.029-.062-.093-.095-.196-.095" fill="#100F0D"/><path d="m190.391 119.309-2.483 1.004a16.22 16.22 0 0 0-1.556-2.486l-.126-1.017h.02c-.236-11.389-3.397-18.045-3.889-19.024-4.795-11.47-19.588-23.804-20.688-24.708-10.462-9.434-18.388-23.294-18.693-23.828-3.096-5.745-10.223-16.694-10.524-17.16l-.079-.111c-8.359-11.335-18.117-17.234-24.827-20.191-7.335-3.231-12.699-3.75-12.918-3.773l-2.182-.197-.336 2.157c-1.414 9.225-5.616 13.713-5.957 14.064-7.04 6.105-14.262 3.045-14.554 2.92l-.058-.026c-7.256-3.058-10.393-11.091-10.421-11.169l-.838-2.226-2.211.891c-5.968 2.397-10.31 7.657-12.568 15.207-1.51 5.063-1.603 9.52-1.605 10.366-.112 1.139-.889 9.604-.626 16.03.236 5.977-.89 11.408-3.36 16.146-1.846 3.54-3.795 5.352-3.804 5.363l-.164.164c-2.042 2.243-6.384 6.783-6.427 6.83l-.085.093c-7.15 8.342-7.464 14.066-7.42 15.424-.554 6.933 2.816 12.294 5.027 15.016h-.024c-.774 0-1.393.066-1.842.205-.145-.101-1.607-1.039-3.76-1.504-.657-.918-4.74-7.043-3.27-15.826l.008-.119c0-.057.292-6.032 5.825-12.952 1.052-1.123 9.085-9.703 10.155-11.195.573-.621 4.965-5.731 5.166-15.615 0-.192.42-19.36 1.222-23.77l.013-.119c.008-.136.856-13.57 11.58-20.934l.03-.02c.047-.036 4.548-3.376 10.705-5.155.438 1.973 1.66 6.448 4.28 10.08.367.583 4.25 6.458 10.949 5.175.656-.08 6.739-1.085 8.891-9.774.145-.448 1.473-4.859 1.351-10.061 2.213.064 8.115.465 15.465 2.865 8.628 2.822 21.03 9.05 31.109 22.71.257.369 6.36 9.238 12.478 20.302.06.105 5.94 10.77 15.677 19.563.118.106 11.978 10.762 16.917 17.024l.014.017c.025.03 2.425 2.928 4.16 5.834l.132.228c2.563 4.273 6.725 13.45 6.121 27.282Zm-65.978 5.753.004-.009-.004-.01c-.095-.387.297-.687.297-.692.276-.181.912-.196 1.007-.2 1.883 1.873 4.527 2.076 5.577 2.076.265 0 .427-.014.427-.014 4.218-.8 6.026-3.191 6.107-3.305.435-.305.741-.94.913-1.886.13-.703.13-1.326.13-1.33 0-2.777-.588-4.624-1.085-5.682-.54-1.153-1.085-1.655-1.085-1.655-2.139-3.154-6.375-3.313-7.203-3.313l-.157.001c-.783 0-.797-.37-.797-.384v-.009l-.004-.01c-.503-.602-.612-1.216-.616-1.227-.304-.902.505-1.815.51-1.824.27-.273.641-.316.838-.316.1 0 .168.014.178.014.113-.004.227-.004.347-.004 2.349 0 4.434.47 6.205 1.396a10.878 10.878 0 0 1 3.611 3.075c1.67 2.214 2.09 4.454 2.095 4.48 1.425 5.39-.599 9.113-.623 9.154-1.404 2.911-4.815 4.864-4.937 4.934-2.143.566-4.062.854-5.702.854-1.438 0-2.122-.232-2.122-.237-2.762-1.212-3.696-2.067-3.808-2.355-.402-.706-.108-1.517-.103-1.522Zm7.539-6.287c.958-2.3-.141-5.976-.29-6.464.856.272 3.246 1.059 4.498 3.248.034.055.057.096.076.128.282.417.406 1.114.41 1.12.201 1.527.002 3.686 0 3.707-.102 1.511-1.418 2.236-1.431 2.244-1.596.947-3.053 1.429-4.337 1.429-1.58 0-2.387-.743-2.526-.887a12.6 12.6 0 0 0 2.837-3.065c.545-.856.763-1.457.763-1.46Zm-58.463-38.85c4.434-2.14 10.408-2.573 10.47-2.578a80.614 80.614 0 0 1 5.11-.309c1.75 0 5.19.375 5.865.454-3.373 1.325-12.962 7.833-13.06 7.895-1.433.872-2.32 2.522-2.334 2.538-.2.462-.871 2.047-.875 2.061-1.024 2.14-3.639 2.204-3.935 2.204l-.018-.002-.007.002a.969.969 0 0 1-.222.024c-.26 0-.42-.12-.425-.125-1.367-.84-4.532-4.517-5.852-6.167-1.796-2.243-2.854-2.577-3.328-2.577-.208 0-.319.066-.349.082-1.13.313-2.434 2.146-2.492 2.226-1.092 1.38-2.203 3.889-2.358 4.245-.458-.508-1.365-1.65-2.01-2.868-.93-1.749-.232-2.828-.227-2.843 2.141-4.575 5.021-6.616 5.052-6.64.449-.353 1.042-.533 1.773-.533 1.292 0 2.572.57 2.589.577 1.632.54 5.533 2.849 5.572 2.872l.014.01 1.047-.548Zm54.64 13.564c-1.226-1.781-2.908-3.3-4.391-4.637-1.236-1.118-2.304-2.078-2.732-2.883-1.024-3.062-3.135-5.298-3.158-5.319-2.713-3.161-5.62-4.485-5.735-4.54-1.228-.968-3.342-1.461-6.282-1.461-2.314 0-4.302.32-4.325.324-.33.072-.791.105-1.378.105-1.575 0-3.55-.258-3.569-.262a105.771 105.771 0 0 0-5.54-.152c-4.378 0-6.988.305-7.015.306-8.273.775-12.436 2.85-12.73 3.002a19.964 19.964 0 0 0-2.969-1.748c1.302-1.84 2.548-3.562 2.555-3.573 3.528-4.001 10.19-4.117 10.937-4.117h.095c8.832-.712 17.264-1.331 17.35-1.34.467-.038.955-.057 1.453-.057 3.13 0 5.788.772 5.818.778 5.119 1.679 9.453 4.09 12.893 7.17 2.746 2.46 4.926 5.352 6.484 8.591 2.458 5.13 2.545 9.536 2.545 10.167a12.181 12.181 0 0 0-.307-.354ZM69.27 139.173c-.167-1.39.272-2.826.278-2.846.043-.283.243-.324.355-.324.033 0 .057.007.057.007H69.969c.36-.066.882-.097 1.55-.097 1.798 0 4.098.232 4.114.232.187.06.157.38.157.381l-.006.003.006.005c.167.878-.068 3.303-.069 3.324-.055.264-.193.284-.234.284h-.008c-1.429-.27-5.952-.616-5.994-.616h-.01c-.079.014-.138 0-.174-.045-.076-.096-.03-.298-.03-.298v-.01Zm8.818-2.96c.04 0 3.898.037 4.888.274.013 0 .322.01.382.46.008.018.452 2.063.664 4.628-1.937-.312-4.725-.76-7.07-1.152.042-.295.425-2.85.684-3.753 0-.022.037-.456.452-.456Zm5.962-1.96c-.095.282-.362.327-.512.327-.049 0-.076-.004-.081-.004-1.565-.07-5.671-.274-5.705-.277-.286-.065-.323-.518-.323-.524-.258-1.66-.275-3.948-.275-4.23.312-.004.626-.004.932-.004 4.056 0 6.391.373 6.65.41-.004 2.035-.675 4.28-.686 4.302Zm2.373 2.648c.192.01 4.352.216 5.152.48l.003.006.01-.006s.251-.053.379.39c.002.016.333 1.693.541 5.09a149.72 149.72 0 0 1-6.049-.894s-.522-.088-1.361-.22c.105-.564.58-3.067.937-4.39 0 0 .07-.324.388-.456Zm6.365-1.708c-.102.246-.32.298-.488.298-.07 0-.122-.012-.122-.012-1.56-.166-5.85-.616-5.892-.624-.285-.032-.285-.533-.285-.54-.152-1.675-.023-3.958-.003-4.236 4.632.228 7.456.807 7.75.87-.14 2.023-.954 4.223-.96 4.244Zm7.913 1.257c-.076 0-.12-.008-.124-.008a431.825 431.825 0 0 1-5.272-.625c-.374-.085-.289-.515-.286-.54-.034-1.802.141-3.936.168-4.213 4.815.644 6.935 1.563 7.159 1.667-.33 1.79-1.153 3.404-1.164 3.423-.095.247-.316.296-.48.296Zm-5.47 1.553c.156.018 4.15.556 5.159.892 0 0 .325.07.387.456.004.027.518 2.514.65 3.873-.115.031-.682.16-2.133.16-1.464 0-3.342-.129-5.576-.377.15-.74.655-3.111 1.06-4.618 0 0 .07-.32.452-.386Zm-75.272 4.942c-1.497-.568-2.462-1.212-2.793-1.872l-.002-.01-.007-.004c-.006 0-.57-.349-.57-1.136-.122-.722-.099-2.816.813-5.564l.019-.048-.053.011c-.004 0-.478.119-1.1.54-.57.386-1.39 1.107-2.054 2.364a2.482 2.482 0 0 1-.46.041c-.669 0-1.842-.23-2.17-1.764-.005-.019-.563-1.975.803-3.336.026-.016 2.695-1.654 3.734-3.728l.012-.02-.023-.014c-.009-.012-1.085-.707-2.204-1.67-1.033-.885-2.31-2.18-2.552-3.31l-.002-.007c0-.004-.202-.385-.202-1.097.004-.657.179-1.74 1.012-3.167.028-.038 3.145-3.637 7.087-3.637a6.52 6.52 0 0 1 2.766.622c.012.01 1.596.972 1.977 1.35l.013.014.017-.007c.013-.005 1.087-.484 2.541-.484.515 0 1.023.056 1.513.178.02 0 1.734.097 3.227 1.774-.568.167-6.51 1.877-10.198 1.877-.633 0-1.167-.047-1.596-.147l-.089-.025.007.005.053.067s.003 0 .003.003c.096.12 1.954 2.384 4.782 4.81 1.672 1.427 3.895 3.097 6.406 4.36 1.514.774 3.116 1.386 4.735 1.68-.215.187-1.137.98-2.4 2.37-1.325 1.469-3.295 3.92-5.18 7.253v.008c-.086.15-.086.15-.129.16a.651.651 0 0 0-.21.06c-.222.106-.48.205-.776.325-.852.337-1.908.76-3.071 1.499-.005.003-.49.397-1.102.397-.129 0-.26-.017-.386-.052-.014-.006-1.058-.24-2.191-.669Zm11.483 5.023c-1.034 1.38-1.625 2.906-1.759 4.53-.366-.644-1.013-2.277-1.093-4.415-.178-4.67 2.308-8.777 4.427-11.398.014-.02 1.354-1.781 4.25-4.023.27-.21.558-.425.86-.643 2.172-1.58 5.405-3.55 9.762-5.264a53.067 53.067 0 0 1 7.107-2.23l.112-.024-.112-.036c-.004 0-.459-.12-1.352-.12-.723 0-1.526.08-2.387.23-.009 0-1.38.182-3.713.182-3.231 0-8.38-.345-14.522-1.978l-.117-.029.086.078c.031.027 3.112 2.75 9.974 3.619-.48.3-3.313 2.087-4.61 2.902-.179-.027-2.598-.42-5.558-1.405-5.065-1.686-7.815-3.79-9.24-5.275 1.632-.156 6.231-.98 12.477-3.023.074-.027 7.191-2.89 9.774-3.57.036-.01 3.577-1.044 6.927-1.044.817 0 1.564.063 2.227.187.772 2.043 4.617 6.25 4.655 6.295.65.602-.105 3.091-.112 3.118-1.388 5.224-1.174 10.961-.748 14.855.104.965.229 1.874.359 2.694-2.229-.255-6.28-.645-10.325-.645-4.026 0-7.121.378-9.211 1.121-.023.007-2.377.686-4.76 2.24-1.4.913-2.538 1.95-3.378 3.071Zm-5.908 46.865c-.38 0-1.073-.088-1.48-.653l-.005-.004c-.66-.488-1.975-2.054-2.188-4.495l-.007-.087-.047.075c-.01.02-1.102 1.865-.98 4.01-.112.04-.693.231-1.32.231-.684 0-1.183-.217-1.49-.645l-.01-.004c-.002-.002-.307-.244-.573-.96-.247-.664-.512-1.876-.37-3.902.025-.076.38-1.165-.045-3.032l-.007-.023h-.023c-.053 0-5.422-.235-6.464-2.376-.018-.026-1.5-2.526-.01-6.094.012-.03 1.3-3.22 3.813-3.35.017 0 1.733-.286 2.97-.286.16 0 .307.005.437.016h.026l.006-.02c.013-.038 1.17-3.879 5.173-6.048.005-.003.224-.192.542-.192.256 0 .504.123.737.36.035.027 3.472 2.737 9.296 2.737.511 0 1.038-.019 1.56-.06.046-.008 4.75-.517 12.36-2.585l16.22-4.895c.777.337 1.822.413 2.63.413.622 0 1.08-.046 1.097-.05.026-.002 1.052-.035 2.336-.076 1.054.151 5.003.917 6.593 4.001-11.354 3.931-26.78 9.365-30.789 11.22-.064.026-6.253 2.594-7.506 4.42-.021.033-2.137 2.893-3.334 6.555-.013.04-1.906 4.234-2.508 4.6-.032.013-3.223 1.055-6.292 1.174 0 0-.142.025-.348.025Zm80.563-35.634c-.967.365-2.6 1.314-2.937 1.514.851-3.227.96-5.486.963-5.506l.006-.131-.06.116c-3.721 7.022-9.127 10.368-9.185 10.401-.52.377-1.129.457-1.545.457-.32 0-.545-.046-.551-.046-5.53-.612-6.326-1.126-6.335-1.132l-.01-.008c-.862-.247-1.226-.506-1.232-.51-1.123-.558-5.786-4.033-5.835-4.07-.936-.642-1.883-1.095-1.96-1.132-.16-.163-.594-.241-1.315-.241-1.866 0-5.024.537-5.064.545-.71.305-5.263.616-5.31.617-1.206.053-1.929-.907-1.937-.918-2.753-2.797-3.756-5.328-3.763-5.356-.557-1.103.198-2.586.205-2.603.713-1.476 3.222-4.14 3.248-4.166l.016-.018-.013-.021c-.303-.355-.51-.862-.513-.869-2.025-5.479-2.197-10.97-1.986-14.611.227-3.947.944-6.636.952-6.66.308-1.422 2.094-3.829 2.115-3.853a.302.302 0 0 0 .049-.248c-.07-.296-.555-.56-.574-.568-3.313-2.14-6.164-4.966-6.186-4.994-.507-.803-.41-1.415-.41-1.419v-.015c-.207-1.168-.105-3.165-.105-3.193-.05-.393.201-.748.204-.754.714-1.32 2.554-2.967 2.575-2.976.207-.158.419-.239.629-.239.462 0 .77.382.776.384l.005.006c4.754 2.91 7.525 3.657 7.543 3.664.358.148.71.217 1.04.217.745 0 1.147-.36 1.158-.374 2.992-2 4.814-4.012 5.815-5.348 1.053-1.4 1.445-2.374 1.471-2.445 2.099-2.508 3.197-9.834 3.205-9.907.614-2.843 3.12-5.114 3.14-5.139 6.265-4.681 11.211-7.262 14.249-8.602 3.297-1.451 5.137-1.8 5.16-1.808.68-.275 1.995-.307 2.526-.307.152 0 .244.002.25.002.764-.047 3.529.51 3.557.516 1.069.254 1.89.867 1.899.872 2.446 1.629 4.62 4.553 4.648 4.586.553.452.814 1.518.815 1.532.51 1.63.72 2.669.724 2.678.012.08.087.215.223.407.014.016 1.856 1.634 2.933 2.802.196.212.407.439.63.676 1.503 1.594 3.562 3.775 5.354 7.308.952 1.872 1.03 3.678 1.03 3.695 0 .39-.05.983-.095 1.416-.463.206-2.195 1.043-2.379 2.132-.072.107-1.088 1.748.31 3.842.016.025 1.669 2.694 3.506 4.531.007.185.083 2.491-.303 3.27-.025.033-2.428 3.121-6.961 5.183-1.16-.07-3.187-.636-6.546-2.739.038-.333.584-4.952-1.66-8.247l-.052-.08v.094c0 .034-.002 3.579-.138 4.393-.035.201-.053.359-.068.498-.046.43-.066.624-.481 1.135-.018.031-2.25 2.903-7.146 4.666-.389.148-1.039.66-.7 1.557.014.026 1.65 2.762 1.65 4.656 0 .008-.004.456-.202.898-.256.589-.717.885-1.36.885-.11 0-.22-.007-.334-.026-.132-.02-13.204-2.321-24.848-2.321-3.042 0-5.76.158-8.063.467-.015 0-1.125.01-1.408.779 0 .006-.019.113.021.23.03.109.118.247.35.286.037 0 3.604.069 4.307.069-.043.333-.406 3.107-.821 4.293v.008a.42.42 0 0 1-.418.417c-.024-.003-2.364-.118-3.922-.118-.334 0-.617.006-.837.019 0 0-.06.011-.137.011-.157 0-.352-.045-.417-.272-.004-.014-.75-1.688-.822-5.209v-.041l-.036.009c-.036.013-.904.283-1.319.557-.005.004-.148.115-.148.363-.005.05-.612 5.158-.138 11.14.002.01.08.989.716.989l.098-.003c1.009 0 10.15.06 22.15 2.098.078.013 7.772 1.343 9.916 1.496.008 0 .922.167 1.38.167a.95.95 0 0 0 .174-.012h.074c.222 0 1.03-.032 2.16-.451.04-.015 4.204-1.584 5.363-1.854.026-.01 2.568-.916 2.706-2.636.01-.05.759-5.1.689-11.892l-.004-.01c-.002-.017-.124-.398.269-.728.027-.018 2.651-2.25 6.957-2.25.072 0 .148.006.223.006-.234 4.224.03 8.27.074 8.602.405 3.367.82 4.378.825 4.392 1.02 1.936 1.95 4.457 1.96 4.48.454 1.163.31 1.883.307 1.894-.66 2.794-1.943 4.866-1.956 4.889-.711 1.418-3.728 3.37-3.762 3.391-2.701 1.78-10.91 5.832-10.99 5.873Zm81.353 23.003c-.201 1.057-.587 1.68-.588 1.69-1.066 2.127-6.44 2.3-6.492 2.306h-.02l-.007.022c-.45 1.862-.105 2.956-.076 3.03.229 3.876-.987 4.841-1.001 4.851l-.004.004c-.305.42-.8.63-1.466.63-.64 0-1.236-.2-1.35-.242.147-2.145-.924-4.004-.94-4.02l-.044-.08-.01.088c-.241 2.44-1.566 3.993-2.23 4.47l-.011.005c-.383.53-1 .64-1.451.64-.228 0-.381-.029-.386-.029-3.06-.155-6.242-1.227-6.266-1.232-.605-.38-2.454-4.594-2.474-4.632-1.15-3.68-3.238-6.566-3.256-6.59-1.23-1.845-7.4-4.475-7.46-4.503-4.838-2.3-26.488-10.066-37.838-14.096-.192-4.502 3.348-6.026 4.522-6.409l31.512 9.877c7.592 2.146 12.29 2.706 12.34 2.712.582.05 1.176.078 1.754.078 2.975 0 5.3-.716 6.72-1.321 1.544-.651 2.397-1.311 2.406-1.325.23-.226.477-.346.733-.346.32 0 .546.191.552.202 3.974 2.21 5.093 6.059 5.103 6.097l.01.021h.021c.106-.006.225-.012.357-.012 1.242 0 3.03.318 3.048.323 2.512.15 3.767 3.354 3.776 3.386.76 1.873.697 3.43.516 4.405Zm-1.253-58.001c-.454 2.169-4.713 4.944-4.754 4.975l-.025.014.01.024c1.04 2.075 3.708 3.708 3.728 3.721 1.371 1.367.816 3.324.808 3.344-.32 1.526-1.493 1.76-2.162 1.76-.241 0-.416-.032-.465-.036-1.015-1.934-2.507-2.746-3.151-2.908l-.052-.012.015.05c1.146 3.436.817 5.539.813 5.566 0 .784-.561 1.13-.567 1.136l-.005.004-.005.008c-.799 1.594-4.941 2.53-4.985 2.537-.129.036-.253.057-.386.057-.616 0-1.093-.394-1.104-.398-2.46-1.572-7.163-4.203-11.002-4.203-.781 0-1.184.117-1.233.131a12.05 12.05 0 0 0-.376-.006c-5.318 0-18.115 4.494-18.247 4.537-1.149.435-8.385 2.574-13.666 4.143-1.832.541-3.422 1.011-4.525 1.34l.134-.326c.15-.207.408-1.251.625-2.235.247-1.038.39-1.888.395-1.906a5.99 5.99 0 0 0 .01-1.502c-.096-1.279-.422-2.146-.487-2.313 21.584-7.487 32.327-13.579 32.432-13.64 6.213-4.061 6.73-6.02 6.762-6.168 2.566-3.57 4.04-3.957 4.55-3.957.123 0 .183.023.183.023l.01.003.008-.003c.33-.114.68-.17 1.052-.17 2.741 0 5.751 3.15 5.78 3.184l.07.072-.017-.1c-.464-2.303-1.048-3.134-1.05-3.146a.457.457 0 0 1-.064-.399c.096-.305.512-.487.513-.487.942-.501 1.923-.754 2.91-.754 1.067 0 2.06.296 2.92.701v.044h.075a9.912 9.912 0 0 1 1.8 1.137c1.186.932 1.91 1.873 1.91 1.881 1.286 2.192 1.098 3.75.82 4.27l-.005.007ZM26.66 99.882c-.003-.043-.112-4.727 6.267-12.185.485-.509 4.386-4.59 6.397-6.796 1.05-.993 9.232-9.255 8.599-25.055-.26-6.431.609-15.419.616-15.507l.017-.127-.006-.127c0-.156-.053-14.802 9.294-20.372 1.676 3.17 5.409 8.759 11.87 11.49.758.335 10.373 4.31 19.556-3.714l.076-.066c.212-.207 4.891-4.762 6.947-14.431 2.06.422 5.482 1.314 9.563 3.127 6.13 2.726 15.045 8.16 22.731 18.56.565.869 7.416 11.428 10.306 16.79l.02.036c.337.606 8.462 14.966 19.681 25.06l.081.069c.148.126 15.029 12.401 19.419 23.017l.098.21c.034.055 2.756 5.257 3.314 14.855a10.501 10.501 0 0 0-2.987-.432c-3.398 0-5.943 1.632-6.14 1.763-.449-.139-1.068-.206-1.843-.206-1.333 0-2.682.206-2.696.206-2.313.348-4.65 4.617-4.674 4.66-1.143 2.063-4.114 4.46-4.14 4.481-11.002 7.041-30.848 13.536-34.284 14.633-.011-.026-.021-.037-.021-.04-.763-1.527-1.434-4.042-1.44-4.068-.945-3.904-1.045-6.654-.914-8.406 1.314 1.165 3.346 2.678 5.82 3.542.043.07.307.212 1.774.212h.006c.042-.006 4.364-.318 6.615-.932.008-.003 1.046-.318 1.87-1.037.01-.01 1.047-1.046 2.118-2.269 1.44-1.647 2.258-2.829 2.43-3.513.004-.01.416-.947.518-2.071.004-.044.412-4.252.104-6.088-.001-.01-.104-.84-.414-2.065-.006-.03-.64-2.488-2.531-4.914-1.111-1.425-2.432-2.56-3.924-3.381-1.568-.851-3.33-1.347-5.252-1.485.01-.138.02-.296.036-.479.127-1.64.39-5.06-.326-9.472-.893-5.465-2.99-10.588-6.23-15.225-4.46-6.375-12.584-10.281-12.66-10.318-5-2.907-11.243-3.22-13.694-3.22-.59 0-.932.016-.937.016-.016 0-.513.004-4.75.465-4.239.46-14.916 1.384-15.028 1.396-5.17.661-8.456 4.452-8.485 4.493-1.427 1.578-3.743 3.584-3.77 3.607-.446.5-.796.506-.802.506a6.883 6.883 0 0 0-.49-.016c-1.963 0-2.826.84-2.833.845-2.725 1.892-4.186 3.971-4.927 5.378-.804 1.526-.969 2.62-.973 2.633-.818 4.546 2.71 8.487 2.746 8.528.343.394.304.693.304.694-1.089 6.267.062 10.03.15 10.307-1.074 1.232-3.122 3.883-3.14 3.907-.873 1.08-.985 2.12-.985 2.129-.156 1.404-.181 2.504-.139 3.358a13.75 13.75 0 0 0-.764-.02c-2.217 0-6.76.348-12.285 2.656-.036.014-2.093.91-5.033 1.942-1.47-.65-3.616-2.77-4.58-3.766l.06-.072c-.06-.056-5.994-5.506-5.306-13.279l.017-.207-.017-.21Zm159.22-8.79-.132-.229c-1.787-2.993-4.147-5.854-4.329-6.074-5.042-6.383-16.635-16.81-17.12-17.247-9.494-8.57-15.233-18.968-15.293-19.076-6.274-11.335-12.524-20.385-12.587-20.476l-.016-.021C126.02 13.906 113.247 7.49 104.36 4.584 94.72 1.433 87.619 1.61 87.322 1.623l-.96.027.06.955c.322 5.437-1.219 10.359-1.238 10.408l-.014.06c-1.894 7.698-7.119 8.383-7.333 8.403l-.082.013c-5.729 1.115-8.92-4.112-9.055-4.336l-.047-.069c-3.147-4.352-4.166-10.27-4.175-10.33l-.16-.994-.984.247c-6.882 1.75-11.912 5.424-12.294 5.71-11.216 7.719-12.293 21.145-12.36 22.297-.827 4.655-1.23 23.217-1.248 24.01-.155 7.659-3.142 12.788-4.697 14.426l-.054.06-.046.068c-.583.87-6.328 7.085-10.046 11.05l-.047.059c-5.711 7.125-6.205 13.264-6.247 14.008-1.246 7.555 1.255 13.235 2.746 15.813h-.01c-2.566 0-4.968.91-7.148 2.701-.03.025-3.104 2.681-3.262 6.29-.004.014-.133.963.117 1.756.014.035 1.53 3.246 3.93 4.64-.375.287-3.576 2.84-3.468 5.566 0 .008-.085.71.017 1.516.133 1.076.534 1.844 1.167 2.231.02.01 2.2 1.045 3.124 1.62.059.151.778 2.028 2.337 3.138.023.018 2.383 1.53 7.11 3.14.003 0 .088.01.234.01.373 0 1.095-.063 1.764-.478.009-.01.878-.726 2.276-1.538a16.265 16.265 0 0 0-.616 3.02c-.312 3.055.387 5.881 2.09 8.394.013.018 1.405 1.943 3.867 3.033l.05.027-.01-.059c-.016-.07-1.497-6.856 1.129-9.826.01-.009.784-1.169 2.926-2.315 1.982-1.057 5.562-2.321 11.396-2.331h.362c1.552 0 8.473.096 11.367 1.746.138.615.232.962.233.972.25.653-.2 1.569-.202 1.573-.974 1.583-2.056 4.154-2.07 4.18-.67 1.438.198 3.049.205 3.063 1.187 2.482 2.608 4.234 3.667 5.323-6.89 2.148-14.552 4.498-19.156 5.51-.04.015-4.156 1.213-8.553 1.213-3.823 0-6.7-.883-8.54-2.622-.038-.067-.493-.85-1.46-.85a2.37 2.37 0 0 0-.893.196c-.032.01-3.234.881-6.666 6.046-.283 0-2.655.043-4.59 1.274-.014.009-1.44 1.037-2.61 3.014-1.072 1.818-2.135 4.844-1.096 8.906l.004.004c.02.03 1.808 3.046 6.47 3.64-.01.23-.069 1.89.178 3.69.251 1.786.863 4.073 2.38 4.851.014.004.854.693 2.705.688.815 0 1.712-.13 2.662-.387.139.086 1.42.86 2.244.87.006 0 .8.042 1.839.042 1.138 0 2.728-.052 3.827-.292.033-.004 3.142-.314 4.791-3.295.024-.058 2.935-5.94 3.247-6.621.02-.037 2.014-3.476 5.551-4.967.026-.01 2.984-1.448 9.303-4.028 5.75-2.35 15.525-6.153 29.575-10.993.513.438.886.749.895.758 1.54 1.382 3.87 1.397 3.893 1.397.809 0 5.05.053 6.401.107h.112c1.256 0 2.498-.822 2.584-.884.792-.165 5.04-2.97 5.22-3.094.45-.32 1.42-.922 2.707-1.685 17.307 5.945 29.604 10.767 36.893 13.777 7.993 3.302 11.865 5.199 11.905 5.215 3.52 1.528 5.472 4.988 5.491 5.02.307.689 3.153 6.599 3.18 6.66 1.62 3 4.724 3.34 4.756 3.34 1.198.283 2.976.342 4.249.342.824 0 1.415-.024 1.415-.026.823 0 2.112-.764 2.254-.85.977.276 1.898.42 2.74.42 1.792 0 2.615-.654 2.621-.658 1.533-.765 2.177-3.053 2.44-4.833.267-1.793.225-3.453.215-3.682 4.67-.55 6.493-3.543 6.514-3.577v-.006c1.081-4.048.054-7.082-1.004-8.916-1.14-1.986-2.564-3.028-2.577-3.038-1.92-1.252-4.358-1.317-4.577-1.322-1.761-2.714-3.46-4.234-4.575-5.03-1.21-.865-2.018-1.082-2.022-1.084a2.28 2.28 0 0 0-.915-.206c-.954 0-1.412.768-1.444.832-1.823 1.68-4.62 2.534-8.32 2.534-4.489 0-8.75-1.288-8.794-1.306-8.97-2.076-33.398-10.359-36.697-11.485a575.417 575.417 0 0 1 3.064-1.72c.276-.167.528-.341.765-.515l13.637-4.302c19.886-5.853 23.808-6.266 23.849-6.27a11.146 11.146 0 0 1 2.473-.273c5.56 0 10.363 3.94 10.418 3.984.667.416 1.391.482 1.762.482.144 0 .229-.01.24-.015 4.72-1.608 7.079-3.123 7.102-3.137 1.559-1.113 2.278-2.99 2.333-3.142.926-.574 3.11-1.608 3.135-1.622 1.512-.927 1.182-3.713 1.177-3.736.108-2.731-3.096-5.287-3.467-5.574 2.4-1.396 3.915-4.607 3.93-4.64.447-1.218.157-1.7.116-1.763a9.16 9.16 0 0 0-.306-1.235l3.57-1.45.032-.585c.775-14.65-3.651-24.412-6.347-28.904Z" fill="#100F0D"/><path d="M177.913 178.818c-.027 0-.072 0-.354.342-.064.047-1.23.88-2.698 1.709-1.387.786-3.33 1.726-4.737 1.767 0 0-.204.053-.559.053-.664 0-2.008-.189-3.524-1.44l-.07-.06.025.09c.03.134.876 3.271 2.35 3.429.01 0 .908.209 1.554.209h.065c.008 0 .5.01.935.01.23 0 .406-.005.521-.008.006 0 .452-.01.852-.148.017 0 .435-.072 1.152-.54.103-.029 1.464-.506 4.18-4.651.145-.244.384-.67.341-.74-.01-.016-.019-.022-.033-.022M27.869 181.948c-.372 0-.596-.057-.603-.057-1.395-.052-3.332-1.018-4.71-1.82a33.144 33.144 0 0 1-2.683-1.737c-.277-.342-.32-.342-.343-.342-.018 0-.033.008-.036.02-.046.07.19.498.331.75 2.675 4.17 4.053 4.595 4.155 4.621.16.093.695.251.722.256.933.256 1.12.282 1.127.282 1.378.22 2.014.224 2.024.224a.63.63 0 0 0 .095.004c.469 0 1.081-.167 1.081-.167 1.48-.142 2.354-3.27 2.389-3.404l.02-.09-.066.06c-1.511 1.22-2.841 1.4-3.503 1.4M175.97 125.959c-.036 0-.056.027-.064.351-.037.12-1.156 4.008-2.6 5.224-.005.013-.813 1.034-2.776 1.034h-.174l.05.039c.014.009 1.354 1.003 2.307 1.003a.934.934 0 0 0 .518-.135c.01-.004.645-.306 1-.601.002-.005.584-.443.811-.643.006-.002.247-.208.41-.46.007-.004.212-.23.402-.807.044-.065.59-.931.263-4.438-.08-.567-.128-.567-.147-.567M22.958 131.003c.01.004.53.51.762.706.001.002.238.215.51.336.01.008.264.175.86.28.035.013.289.129.985.129.877 0 2.04-.178 3.455-.526.55-.16.54-.21.538-.23-.002-.028-.039-.032-.093-.032-.053 0-.143.004-.264.023-.123-.019-4.14-.548-5.56-1.794-.012-.008-1.186-.679-1.448-2.703l-.01-.062-.032.057c0 .005-.283.534-.483 1.155-.262.836-.248 1.432.04 1.765.005.006.4.59.74.896M72.27 43.271l-.6.632-2.814 3.004-1.906.216.412-4.524 3.84-.442 1.068 1.114ZM59.106 59.673l1.549-17.13-2.554-2.65 18.918-2.153s-2 1.99-3.526 5.462l-1.941-2.016-5.051.573-.58 6.416 3.382-.383 3.053-3.25-.8 8.8-2.516-2.655-3.382.385-.73 8.058 5.88-.672 2.217-2.356c.994 2.666 3.149 4.574 3.149 4.574L56.01 62.971l3.095-3.298ZM76.278 61.6l2.075-.238-1.564-1.382c-.02-.017-1.995-1.792-2.89-4.2l-.525-1.407-1.028 1.093-1.982 2.11-4.404.503.555-6.17 2.172-.245 2.192 2.317 1.42 1.496.186-2.052.799-8.797.023-.282.48.5.56-1.273c1.427-3.248 3.318-5.158 3.332-5.177l1.876-1.878-2.639.297-18.92 2.152-1.87.215 1.3 1.351 2.263 2.344-1.48 16.397-2.873 3.06-1.737 1.844 2.522-.284 20.157-2.294Zm10.925-25.522c.193-.025.377-.042.558-.06.063-.004.116-.009.171-.014.13-.015.262-.023.386-.031.056-.007.118-.009.177-.015.134-.012.262-.019.39-.026.044 0 .087-.004.13-.004.167-.008.33-.01.489-.01h.025l.07.002c.139 0 .272.005.41.008.052.002.102.004.147.01.13.007.26.016.39.03.033.005.073.007.105.01.157.02.314.04.469.067.04.006.076.016.115.024.124.02.247.05.367.075l.14.035c.14.035.274.074.41.119.02.005.046.01.065.019.163.053.317.109.479.17.045.018.084.036.131.054a7.9 7.9 0 0 1 .371.163c.045.02.094.043.144.064.168.081.332.164.504.257l-.606 6.729-3.566-3.698c-.08-.082-.156-.16-.232-.232a.478.478 0 0 0-.039-.034c-.07-.071-.146-.136-.216-.197a.214.214 0 0 1-.044-.033 2.742 2.742 0 0 0-.224-.167c-.007-.007-.024-.013-.026-.02-.079-.048-.152-.097-.232-.136-.004-.004-.013-.005-.015-.01a1.85 1.85 0 0 0-.25-.11.113.113 0 0 0-.042-.019 2.444 2.444 0 0 0-.253-.077c-.012-.001-.028-.007-.046-.011a2.251 2.251 0 0 0-.283-.049h-.021a3.523 3.523 0 0 0-.3-.018H87.41c-.053 0-.102.002-.153.007-.025 0-.052 0-.076.002-.081.002-.16.01-.241.019-3.974.455-4.514 5.588-4.88 9.613l-.026.372a11.904 11.904 0 0 0-.036.375c-.007.056-.008.114-.017.17-.003.073-.01.143-.015.212-.004.06-.01.122-.015.178l-.014.205-.015.185c-.003.068-.01.135-.012.202a2.698 2.698 0 0 0-.014.188c-.003.067-.01.131-.012.198l-.009.19c-.002.063-.008.13-.008.197 0 .059-.006.124-.01.188 0 .064-.006.13-.006.193 0 .064-.005.128-.005.188v.193c0 .062-.005.124-.005.188v.188c0 .061.005.125.005.187v.185c0 .06.005.122.005.181.005.061.005.122.01.183.006.063.006.12.008.178l.015.179c.001.058.01.117.014.176.005.059.012.114.014.171.01.06.016.115.025.172.005.055.014.113.025.168.004.057.012.112.019.165.014.054.02.11.033.165.007.053.02.106.034.157.009.055.019.104.032.157.013.05.023.103.036.15l.041.153c.015.048.032.098.045.144.014.05.036.097.052.143.014.048.032.09.048.133.018.05.037.095.055.141l.058.125c.024.048.047.09.073.135.018.039.033.075.056.11l.09.142c.02.028.04.059.056.087a3.205 3.205 0 0 0 .342.394c.029.022.053.037.076.065.04.03.083.067.126.097.03.025.062.042.09.064.043.025.084.056.128.08.036.02.07.034.107.052.042.024.083.046.13.065.04.017.08.028.118.042.049.022.096.037.145.051.036.015.084.023.128.032.05.012.1.026.152.036.043.009.095.011.138.019l.167.018c.05.003.102.005.15.005a1.4 1.4 0 0 0 .116.004h.082c.023 0 .051 0 .077-.004.106-.002.211-.011.323-.023 1.264-.145 2.22-.717 3.2-1.796l4.31-4.557-.608 6.732c-2.512 1.755-4.488 2.21-7.16 2.514-.171.022-.34.036-.506.045-.058.003-.11.003-.163.005-.095.003-.195.008-.288.008-.019 0-.034-.003-.047-.003-.071 0-.138-.005-.21-.005a5.61 5.61 0 0 1-.285-.012c-.075-.005-.146-.015-.215-.022-.093-.007-.184-.018-.278-.028a2.784 2.784 0 0 1-.21-.031 2.979 2.979 0 0 1-.266-.046c-.071-.011-.14-.028-.21-.042-.091-.02-.177-.038-.263-.064a5.502 5.502 0 0 1-.662-.199c-.085-.026-.165-.058-.245-.09-.064-.027-.131-.053-.198-.08a9.033 9.033 0 0 1-.24-.104c-.065-.034-.13-.059-.19-.091-.08-.042-.158-.079-.234-.12-.062-.035-.126-.066-.188-.1-.075-.046-.15-.091-.229-.141a1.836 1.836 0 0 1-.174-.105l-.229-.154c-.052-.04-.106-.074-.155-.112-.083-.06-.159-.119-.237-.179l-.147-.11a6.205 6.205 0 0 1-.233-.206c-.04-.038-.082-.07-.126-.106-.095-.088-.184-.18-.278-.27-.024-.023-.042-.041-.068-.063-.112-.118-.22-.235-.325-.356-.021-.023-.042-.05-.063-.072-.084-.1-.17-.199-.25-.303a2.211 2.211 0 0 1-.1-.133c-.066-.084-.128-.17-.195-.259-.036-.053-.072-.105-.107-.16-.054-.08-.112-.165-.164-.248-.037-.059-.071-.12-.111-.177l-.143-.25c-.039-.06-.07-.127-.104-.192-.044-.083-.089-.164-.135-.253l-.095-.2c-.04-.083-.08-.17-.116-.258a4.722 4.722 0 0 0-.09-.211c-.034-.087-.07-.173-.106-.262-.024-.073-.054-.147-.077-.219-.034-.088-.062-.18-.093-.27-.027-.074-.049-.154-.07-.222-.029-.097-.053-.187-.08-.279-.018-.08-.042-.156-.06-.232a3.362 3.362 0 0 1-.064-.285c-.02-.079-.035-.16-.053-.236-.02-.095-.034-.193-.052-.293a4.159 4.159 0 0 1-.036-.24 4.752 4.752 0 0 1-.042-.305l-.028-.236c-.01-.104-.02-.21-.026-.316-.004-.078-.01-.159-.013-.237-.01-.113-.01-.226-.011-.339-.003-.07-.006-.147-.006-.22 0-.126.003-.25.006-.384.001-.061.001-.123.005-.19.009-.185.02-.38.036-.572.578-6.38 5.774-12.583 11.719-13.26Zm19.014-1.662-3.092 3.299-1.263 13.92c-.008.13-.012.258-.012.385 0 .043.004.081.004.125.004.078.008.158.015.24.006.046.016.093.023.14.01.068.019.14.033.206.01.05.024.095.039.143l.05.184c.015.045.036.091.05.139.027.055.045.114.07.17.021.046.044.084.069.13.029.05.051.105.086.153a.69.69 0 0 0 .078.12c.032.05.061.098.1.145.03.039.058.074.09.11.04.044.075.086.116.129.033.03.07.066.099.095.043.041.09.08.136.119.031.025.07.056.107.083.05.036.1.068.15.102.036.023.075.053.113.072.053.031.11.06.168.089l.114.054c.065.028.134.053.204.076.032.012.07.027.1.037a2.385 2.385 0 0 0 .325.082c.105.025.22.038.333.05.035.002.072.002.106.008.071.004.145.006.223.006h.02c.135-.002.269-.006.405-.023 1.969-.224 3.72-2.087 3.91-4.199l1.253-13.922-2.553-2.652 8.698-.992-3.092 3.295-1.264 13.924c-.363 4.029-4.184 7.253-7.86 7.67a9.8 9.8 0 0 1-.686.057l-.093.01a13.38 13.38 0 0 1-.644.018h-.164c-.048 0-.098-.002-.15-.005a3.282 3.282 0 0 1-.386-.014c-.08-.002-.159-.01-.238-.013-.05-.001-.096-.006-.145-.009a4.409 4.409 0 0 0-.253-.028c-.038-.004-.08-.01-.122-.012-.11-.015-.222-.03-.328-.048l-.037-.001-.361-.068c-.033-.008-.06-.015-.092-.019-.091-.02-.176-.038-.264-.06-.04-.007-.082-.02-.12-.028-.078-.02-.153-.037-.226-.064a7.507 7.507 0 0 1-.34-.1c-.035-.017-.08-.03-.123-.044a7.169 7.169 0 0 1-.2-.075 3.294 3.294 0 0 1-.124-.046 5.46 5.46 0 0 0-.202-.084c-.036-.02-.077-.033-.11-.05a9.147 9.147 0 0 1-.216-.108l-.086-.04c-.096-.054-.19-.104-.282-.16l-.005-.004c-.095-.054-.185-.114-.277-.176a4.494 4.494 0 0 1-.264-.19c-.025-.02-.058-.045-.085-.068-.052-.043-.105-.088-.158-.13-.028-.027-.063-.058-.088-.084-.05-.043-.097-.09-.143-.134-.032-.031-.06-.062-.09-.09-.041-.05-.086-.094-.13-.147-.028-.028-.053-.059-.08-.088-.043-.056-.082-.11-.119-.16a2.477 2.477 0 0 1-.192-.275 2.926 2.926 0 0 1-.208-.354l-.009-.007c-.045-.094-.089-.192-.135-.295-.011-.029-.022-.064-.036-.091-.03-.074-.055-.145-.082-.218-.01-.037-.026-.077-.036-.116-.02-.068-.043-.137-.061-.203-.009-.049-.021-.091-.032-.139a1.395 1.395 0 0 1-.043-.203 3.954 3.954 0 0 1-.055-.354c-.007-.048-.015-.097-.015-.147a1.644 1.644 0 0 1-.016-.226c-.004-.048-.009-.097-.009-.147-.004-.086 0-.174 0-.259v-.13c.005-.128.01-.264.025-.4l1.257-13.927-2.554-2.65 11.48-1.31Zm.922.377.079.08 2.26 2.346-1.218 13.502c-.152 1.675-1.536 3.185-3.088 3.359a2.06 2.06 0 0 1-.32.023c-.627 0-1.177-.228-1.55-.634-.395-.434-.575-1.041-.51-1.748l1.23-13.607 2.876-3.058.241-.263ZM78.627 39.96c-2.292 2.639-3.775 6.023-4.07 9.29-.306 3.379.716 6.623 2.802 8.899 1.773 1.938 4.156 3.007 6.71 3.007.35 0 .703-.017 1.057-.06 2.914-.33 4.985-.857 7.592-2.68l.354-.245.038-.436.611-6.724.24-2.673-1.844 1.95-4.31 4.556-.006.008-.005.006c-.862.95-1.621 1.386-2.616 1.498-.13.014-.26.02-.378.02-.71 0-1.034-.266-1.22-.467-1.134-1.24-.807-4.85-.593-7.24.402-4.424 1.008-8.425 4.056-8.773.14-.015.264-.025.38-.025.596 0 .964.195 1.576.83l3.563 3.698 1.416 1.468.184-2.032.608-6.725.003-.005 1.55 1.612-1.22 13.501c-.163 1.821.32 3.417 1.416 4.605 1.366 1.495 3.623 2.321 6.361 2.321.52 0 1.055-.03 1.59-.095 3.849-.435 8.26-3.812 8.688-8.505l1.23-13.61 2.871-3.06 1.73-1.843-2.514.284-8.695.99-1.873.215L94.63 34.8l-1.868.213.802.835c-1.3-.591-2.55-.858-4.035-.858-.674 0-1.423.046-2.433.167-3.073.346-6.079 2.053-8.469 4.803Z" fill="#100F0D"/><path d="M161.435 149.641c.108 0 .208-.001.303-.008a.718.718 0 0 0 .252-.062c.079-.03.14-.084.18-.15a.474.474 0 0 0 .068-.28.44.44 0 0 0-.06-.243.391.391 0 0 0-.152-.141.953.953 0 0 0-.216-.07 2.39 2.39 0 0 0-.246-.015h-.625v.97h.496Zm.208-1.35c.364 0 .633.07.806.216.177.141.267.36.267.654 0 .274-.078.477-.234.602a1.02 1.02 0 0 1-.573.229l.872 1.343h-.509l-.832-1.305h-.501v1.305h-.474v-3.044h1.178Zm-2.152 2.4c.108.273.256.507.45.71a2.153 2.153 0 0 0 1.546.64c.299 0 .582-.058.843-.17a2.1 2.1 0 0 0 .677-.47c.197-.203.348-.437.46-.71.105-.27.161-.569.161-.889 0-.31-.056-.601-.161-.872a2.158 2.158 0 0 0-1.137-1.167 2.109 2.109 0 0 0-.842-.173 2.158 2.158 0 0 0-1.546.641 2.098 2.098 0 0 0-.451.7 2.28 2.28 0 0 0-.166.871c0 .32.055.619.166.889Zm-.429-1.914a2.606 2.606 0 0 1 1.407-1.37c.318-.13.657-.199 1.019-.199a2.616 2.616 0 0 1 1.84.747c.238.23.426.507.564.822.142.316.211.658.211 1.025 0 .374-.069.725-.21 1.04-.139.321-.327.597-.565.832a2.614 2.614 0 0 1-1.84.74 2.634 2.634 0 0 1-1.856-.74 2.6 2.6 0 0 1-.78-1.872c0-.367.07-.71.21-1.025Z" fill="#FBC308"/></g></svg>