<svg width="200" height="200" xmlns="http://www.w3.org/2000/svg"><g fill-rule="nonzero" fill="none"><path d="m132.233 155.91-45.163.005V121.26h29.602c7.956-12.82 21.094-19.223 28.546-21.931l5.568-17.067H87.07V48.184l46.267.013c18.602 0 23.834 15.71 29.931 28.574l31.956.007-24.646-73.087c-9.64 7.087-12.577 8.416-22.866 8.416l-135.206.022L2.02 40.275c10.915 1.68 24.72 6.543 24.72 12.28l-.07 33.794H15.182L0 121.257h26.687l.054 30.574c-.066 2.37-2.775 6.243-8.757 8.815-3.99 1.718-10.455 2.673-16.214 2.683l10.824 28.815 133.016.01c16.643 0 28.748 8.522 28.748 8.522l24.364-72.206H166.97c-7.068 17.632-20.23 27.44-34.737 27.44" fill="#0E1531"/><path d="M131.38 97.817a65.707 65.707 0 0 1 8.128-3.918l1.476-4.524-107.202.001.003 4.086h-13.94l-8.995 20.682 101.992.003c3.974-5.848 10.413-11.712 18.537-16.33Zm-97.526-45.32.004 29.878 46.1-.002V41.071l53.379.013c18.983 0 26.998 12.844 34.572 28.573h17.406l-18.481-54.814c-5.872 4.078-12.849 4.376-19.122 4.376l-130.265.022-5.914 15.878c5.58 1.358 22.183 5.607 22.32 17.379Zm137.607 83.087h17.357l-18.481 54.808s-10.421-5.35-24.725-5.35l-128.093-.012-5.78-15.387c9.934-.82 21.946-8.792 22.115-17.703l-.058-30.783h46.162v41.872l52.362-.006c22.44-.718 33.724-16.462 39.141-27.44Z" fill="#FCCA20"/></g></svg>