<svg width="200" height="200" xmlns="http://www.w3.org/2000/svg"><g fill-rule="nonzero" fill="none"><path d="m196.851 49.016-2.946-1.75c-1.075-.632-26.27-15.37-60.825-22.093-2.672-3.276-6.434-5.236-10.791-5.579a9.1 9.1 0 0 0-.622-.02c-1.264 0-5.512.205-8.708 2.75l-1.848-.1-1.974-.102-.506-.03-.529-.029-.029.002c-2.82-.142-5.594-.216-8.266-.216-5.302 0-9.224.098-14.235.585-3.187-3.818-6.154-5.604-8.477-6.749a15.766 15.766 0 0 0-6.825-1.569c-4.244 0-8.1 1.771-11.15 5.124-2.427 2.657-3.29 5.652-3.597 8.407l-.387.099-.307.081c-28.64 7.45-48.294 18.96-49.118 19.44l-2.948 1.75-2.57 1.515.306 2.974.353 3.402c.092.933 2.476 23.078 15.311 49.583 11.89 24.558 35.389 57.71 79.8 76.179l2.058.853 1.785.746 1.794-.746 2.053-.853c9.54-3.966 18.647-8.854 27.068-14.527l2.765-1.869-.048-.19c.374.084.747.19 1.115.308.16.049.334.092.5.135l.067.024c1.366.366 2.863.562 4.458.576.076 0 .153.006.229.006.272 0 .555-.01.841-.017 4.361-.163 9.178-1.557 14.332-4.143l1.649-.829.634-1.723 1.55-4.204c.275-.667.84-2.256.982-2.658.302-.884.689-1.934 1.136-3.123.182-.468.364-.932.54-1.393 5.878-1.78 10.2-8.223 11.924-13.98.698-2.343 1.028-4.87 1.19-6.642 2.545-2.32 3.824-5.119 4.406-6.768l.262-.767-.005-.811c-.009-1.637-.254-3.005-.746-4.172l.664-1.112-.009-.07a171.355 171.355 0 0 0 8.67-18.03c9.046-22.013 10.87-39.064 10.941-39.785l.355-3.398.301-2.978-2.572-1.515v.001Z" fill="#B2B2B2"/><path d="M194.128 56.438c-.072.689-1.832 17.107-10.604 38.48a167.879 167.879 0 0 1-9.263 18.998v.004c-.938 1.585-1.646 2.679-1.646 2.679s1.104.031 1.554 1.016c.316.697.415 1.642.415 2.495-.492 1.407-1.757 4.174-4.528 5.915 0 0-.095 4.245-1.127 7.705-1.461 4.881-5.06 9.937-9.149 10.943-.225-.877-.348-1.92-.282-3.126 0 0-1.533 3.596-2.924 7.227-.43 1.124-3.683 10.032-3.683 10.032-5.13 2.578-9.277 3.532-12.421 3.652-.224.01-.45.01-.665.01h-.09c.205 0 .415 0 .63-.01-1.605.05-2.947-.123-4.008-.411-.128-.037-.267-.071-.386-.104-3.664-1.155-7.18-1.07-7.18-1.07-.937-1.207-2.127-2.511-3.507-3.883 1.647 3.31 2.479 5.894 2.857 7.283a150.546 150.546 0 0 1-26.257 14.094l-2.06.852-2.053-.852c-43.057-17.908-65.855-50.078-77.396-73.91C7.884 78.703 5.576 57.336 5.486 56.442l-.352-3.41 2.948-1.744c.797-.47 20.184-11.733 47.922-18.948.099-.024.192-.054.293-.076 2.174 2.459 1.94 6.022 1.94 6.022 3.77-2.575-.476-10.645 4.325-15.903 4.724-5.183 10.35-3.553 12.47-2.512 2.088 1.03 5.074 2.743 8.436 7.478 6.231-.712 10.324-.835 16.333-.835 2.61 0 5.329.069 8.08.215l.459.024.014-.005.525.034 1.977.105c-.194.958-.692 2.295-1.89 3.669-.36.413-.776.823-1.261 1.227 0 0 1.49.375 3.376-.726 1.127-.66 1.682-.812 3.038-3.08.068-.11.947-1.325 1.54-1.845 2.16-1.885 5.798-1.926 6.256-1.885 4.173.328 6.854 2.55 8.461 5.164 34.613 6.38 59.891 21.136 61.154 21.877l2.948 1.744-.354 3.41.004-.005Z" fill="#039"/><path d="M90.067 35.516c-.494.01-.962.03-1.387.064.297.44.612.886.953 1.357 4.766 6.584 13.744 16.303 13.744 16.303-9.532-4.945-19.225-1.275-23.113.626-1.116.548-1.767.954-1.767.954 12.438-2.244 21.008 3.057 21.008 3.057-.247.052-3.191.511-5.974 2.007-.63.342-1.26.73-1.847 1.182-5.404 4.22-4.758 13.893-4.732 14.207.28 3.783 1.43 7.906 3.387 12.095 3.617 7.745 9.123 11.67 14.255 13.679a30.68 30.68 0 0 0 4.63 1.362c1.175.238 2.273.4 3.277.51 1.736.179 3.166.196 4.102.196.477-.026.962-.051 1.472-.068h.043l-.009.008c-.008.009-.017.017-.017.026l-.11.076h.025l.221-.06-.008.01c-.009.008-.026.016-.06.042-.008.008-.008.017-.025.025-.238.196-.894.775-1.626 1.711a5.75 5.75 0 0 0-.323.434 11.78 11.78 0 0 0-.885 1.404c-.996 1.813-1.787 4.273-1.507 7.337.111 1.208.383 2.51.877 3.906.145.391.306.808.485 1.225.085.213.187.426.29.639a24.171 24.171 0 0 0 1.897 3.319s-.093-.009-.263-.034c-.145-.034-.34-.077-.588-.145-.06-.017-.127-.034-.204-.06-.026-.008-.068-.016-.102-.025-.102-.042-.213-.076-.324-.11-.102-.043-.23-.086-.34-.128-.28-.11-.57-.238-.885-.392a8.022 8.022 0 0 1-.264-.136c-.255-.136-.528-.28-.8-.46-.085-.05-.17-.11-.255-.161-1.651-1.09-3.524-2.868-5.021-5.796 0 .009.417 8.638 9.608 13.83.213.128.443.238.672.349.426.23.877.45 1.345.664.196.093.4.187.621.28 0 0-1.149.12-2.85.086a31.199 31.199 0 0 1-2.605-.188c.374.434.774.868 1.226 1.303.46.434.953.876 1.514 1.327.562.451 1.175.928 1.864 1.421.69.486 1.447 1.005 2.281 1.55 4.647 2.672 12.766 5.319 16.672 5.353 8.503.085 11.983-1.609 15.762-2.92.902-.314 1.566-.536 2.06-.731.23-.094.425-.18.587-.256.204-.11.366-.213.494-.332.136-.127.263-.255.408-.391.255-.29.52-.604.775-.945.383-.502.757-1.072 1.106-1.71.128-.205.238-.418.357-.639 1.013-2 1.847-4.46 2.273-7.132-.34-.153-.698-.323-1.081-.519a17.74 17.74 0 0 1-.766-.417 9.612 9.612 0 0 1-.536-.315 26.699 26.699 0 0 1-2.34-1.566 38.433 38.433 0 0 1-3.294-2.766c0-.008-.928-17.464-12.851-24.521 0 0 2.161-.2 4.749.457-2.026-3.106-4.043-5.374-5.32-6.387-.008 0-.008-.003-.008-.003h-.009s-4.612.76-7.71 3.765c-.851.82-1.583 1.805-2.077 2.99 0 0-4.664-3.494-6.238-9.734-.434-1.705-.962-5.287-1.243-6.95-.332-2.056-1.217-3.53-1.82-4.522-1.167-1.92-3.507-2.874-3.507-2.874.068-.12.272-.6.298-1.197.06-1.813-.758-3.595-1.464-5.265-.315-.733-1.43-2.708-1.43-2.708.077.065.179.147.28.23.767.61 2.162 1.681 3.558 2.752.051.042 7.822 5.66 10.034 7.142 2.213 1.482 7.217 4.408 12.953 6.805 1.524.643 5.669 2.119 10.128 2.402 0 0-2.587 2.404-.076 10.43.51 1.715 1.217 3.357 1.693 4.712.017 0 .017.008.017.017.307.876.587 1.744.885 2.553 3.49 9.736 4.239 15.404 4.247 15.438a2.365 2.365 0 0 0-.264.06c-.153.042-.349.093-.587.153-.06.017-.136.043-.204.06-.12.034-.23.068-.366.102 0 0 .05.11.204.238.928.774 1.906 1.234 4.443 1.447h-.009c3.634.306 5.855-.639 6.12-.74-.01-.213-.018-.435-.026-.656-.077-1.421-.281-3.2-.732-5.31-.426-2.035-.86-3.95-1.31-5.77-2.205-9.023-4.503-15.483-6.12-19.477a81.726 81.726 0 0 0-1.226-2.857c-.357-.898-.62-1.482-.74-1.763a7.086 7.086 0 0 0-.085-.193s1.098-1.694 1.362-3.497c.068-.444.076-.891.017-1.324-.128-.872-.528-1.777-.902-2.408-.715-1.16-1.847-2.419-3.294-3.778-.579-.545-5.549-4.714-6.366-5.36-2.043-1.622-4.255-3.362-6.545-5.224-4.076-3.33-6.987-5.813-9.727-8.116-2.051-1.718-10.681-7.862-14.434-9.946-1.924-1.06-9.439-4.98-19.737-6.214-.663-.083-5.472-.55-8.944-.481Zm-30.971 8.311c-4.552-.044-9.805 1.55-10.924 1.905-.11.031-.182.06-.21.068-.124.043-.963.325-2.053.699a531.645 531.645 0 0 0-4.719 1.624l-.532.192c-.377.136-5.344 2.02-7.126 2.724-.133.049-.247.1-.34.14-.14.056-.292.115-.44.175-2.667 1.102-6.697 2.896-8.435 3.682-.48.216-.794.353-.85.38a176.87 176.87 0 0 0-6.834 3.383c.031.177.784 3.366 2.101 8.336 1.82 6.507 4.413 14.464 7.8 21.788 5.152 11.154 13.819 20.745 24.145 27.213a63.115 63.115 0 0 0 5.61 3.132 57.582 57.582 0 0 0 3.89 1.736c6.556 2.647 13.501 4.06 20.456 3.924a13.232 13.232 0 0 1-1.222-1.413c-2.479-3.37-4.037-8.536-3.302-14.145l.03-.196a22.06 22.06 0 0 1 1.534-5.54c.187-.443.382-.877.606-1.32.01-.016.016-.042.035-.067.129-.264.26-.52.403-.792-12.143 4.664-9.165 18.264-9.165 18.264-.408-.417-10.577-5.702-12.41-17.617-.039-.29-.087-.579-.122-.868v-.008C55.827 90.9 55.668 89.803 47.95 84c0 0 1.805-1.04 3.617-3.108 1.7-1.946 3.403-4.795 3.622-8.546v-.003c.253-4.438.626-8.2 1.118-11.4 0-.019 0-.05.006-.072.182-.722.396-1.457.645-2.202 1.263-3.704 3.49-7.5 7.418-9.838a15.105 15.105 0 0 1 2.554-1.214 17.208 17.208 0 0 1 3.005-.791s-4.572-2.635-9.94-2.967a16.412 16.412 0 0 0-.9-.032Zm69.822 35.525c.017.394.05.78.085 1.144.247 2.582.86 4.486 1.43 5.78.136.304.264.568.391.81.485.913.877 1.35.877 1.35.017 0 .119.03.272.053a4.687 4.687 0 0 0 3.03-.591c.477-.281.868-.627 1.183-1.001.204-.248.383-.499.536-.75.034-.064.128-.199.128-.199.119-.208.383-.784.408-.837a2.812 2.812 0 0 1-.953.874 2.567 2.567 0 0 1-.604.244 2.792 2.792 0 0 1-.681.088c-.315 0-.596-.067-.877-.165a2.735 2.735 0 0 1-.315-.134 2.544 2.544 0 0 1-.85-.685 2.627 2.627 0 0 1-.622-1.687v-.045c.009-.059.017-.11.017-.171.136.022.255.033.366.028.792-.03 1.226-.571 1.447-1.024 0 0-1.847-1.09-3.345-1.968l-1.88-1.1c-.01-.006-.018-.005-.018-.005l-.008-.004c-.009 0-.017-.005-.017-.005Zm-18.077 57.576c0 .008 12.23 8.408 17.617 14.102.502.527.953.996 1.379 1.438.051.06 2.068 2.375 4.247 3.158.102.042.204.093.315.127.153.06 1.915.732 4.63.885 1.676.094 3.225-.025 4.459-.29.92-.833 1.66-2.008 2.213-3.301a16.342 16.342 0 0 0 1.293-5.71 389.837 389.837 0 0 1 4.298-2.333h-.017c-.204 0-1.225.145-2.468.332-.238.043-5.855.885-6.664 1.021-1.387.239-2.706.494-3.94.681-.409.068-.809.128-1.2.17-.06.009-2.332.35-3.702-.034-.434-.127-.86-.238-1.302-.408-.732-.29-1.54-.69-2.613-1.234-7.175-4.017-18.545-8.604-18.545-8.604Z" fill="#FFF"/><path d="M166.255 51.12a100.31 100.31 0 0 0-1.557-.616c-8.391-3.321-18.842-6.817-30.553-9.39 1.176 2.443 2.422 4.727 3.565 6.11 2.858 3.467 6.85 7.327 16.094 14.057 12.698 9.25 13.621 13.927 12.407 18.915-1.013 4.154 4.165 17.772 4.252 17.712 0 0 8.512-16.722 12.517-39.108-3.302-1.731-9.097-4.595-16.725-7.682m-47.651 99.923c-4.685-3.877-10.184-7.941-15.587-11.706a358.869 358.869 0 0 0-7.056-4.796c-1.344.23-2.762.515-4.23.842-.547.127-1.11.256-1.674.398-3.956.974-8.232 2.34-12.451 4.246a30.204 30.204 0 0 0 .402 4.023c.066.418.148.852.239 1.3.278 1.357.668 2.87 1.223 4.52.223.672.471 1.378.768 2.115.22.564.454 1.136.716 1.725a53.649 53.649 0 0 0 2.983 5.79 143.715 143.715 0 0 0 6.395 3.567c1.774.932 3.557 1.837 5.375 2.697 1.357.64 2.718 1.259 4.098 1.859 1.023-.448 2.046-.904 3.054-1.375 2.03-.935 4.028-1.916 5.99-2.943a137.128 137.128 0 0 0 14.137-8.467 126.62 126.62 0 0 0-3.225-2.832c-.382-.312-.765-.637-1.157-.963" fill="#36C"/><path d="M68.65 22.906a7.803 7.803 0 0 0-.845.012s5.352.72 8.605 9.09c-1.71-.66-3.612-.48-3.612-.48 3.73 2.638 5.427 7.615 6.024 8.98.822 1.869 1.954 3.113 2.985 3.935 3.75 3.224 8.362 2.7 8.362 2.7S83.948 45.14 78.57 31.356c-1.858-4.75-5.718-8.281-9.92-8.45ZM24.31 55.027c-.476.212-.782.352-.839.376a165.445 165.445 0 0 0-6.835 3.384c.03.17.781 3.367 2.1 8.331 1.822 6.515 4.412 14.47 7.799 21.793 5.15 11.157 13.816 20.74 24.147 27.217a63.148 63.148 0 0 0 5.613 3.132c1.278.62 2.574 1.2 3.883 1.736 6.559 2.647 13.499 4.06 20.459 3.923-.458-.468-.87-.945-1.217-1.421-2.484-3.37-4.037-8.536-3.306-14.145.014-.06.024-.127.028-.196.258-1.812.75-3.676 1.534-5.54a31.853 31.853 0 0 1 .634-1.387c.135-.264.27-.52.417-.783-12.149 4.655-9.173 18.264-9.173 18.264-.401-.417-10.577-5.711-12.41-17.626a14.478 14.478 0 0 1-.12-.868c-1.202-10.33-1.356-11.426-9.07-17.229 0 0 1.8-1.044 3.614-3.11-2.875-1.39-5.066-3.525-6.726-5.793-.043-.057-.082-.117-.124-.17l-.274-.39c-.094-.14-.194-.28-.284-.424-.032-.05-.071-.105-.103-.16-3.02-4.688-3.922-9.554-3.922-9.554-5.273 16.813 7.869 34.839 7.869 34.839S39.999 96.12 33.09 83.792c-3.712-6.618-7.105-15.897-8.78-28.765Zm69.22 4.847c-.63.337-1.259.73-1.846 1.186-5.404 4.217-4.758 13.886-4.732 14.201.272 3.787 1.43 7.902 3.387 12.096 3.617 7.743 9.123 11.673 14.255 13.673a29.798 29.798 0 0 0 4.63 1.37c1.175.238 2.273.391 3.268.502 1.745.187 3.183.196 4.102.204.486-.034.98-.05 1.481-.06-4.076-1.14-7.557-2.629-10.527-4.374a35.915 35.915 0 0 1-3.209-2.129C90.05 85.801 90.433 67.711 93.531 59.874Zm26.12 7.19c.05.038 7.83 5.656 10.042 7.137 2.213 1.49 7.217 4.412 12.962 6.812 1.515.635 5.651 2.115 10.11 2.396 0 0-2.587 2.405-.067 10.43.51 1.716 1.217 3.362 1.702 4.706 0 .017.008.025.008.025.307.877.587 1.745.877 2.553 3.498 9.737 4.247 15.405 4.255 15.43-.008-.068-.008-.136-.017-.196-.783-9.242-4.136-20.104-4.63-23.131-.264-1.606-.723-3.257-.187-4.543.255-.618.987-1.157 1.515-1.326 2.579-.785 5.208 2.033 10.587 18.788-2.196-9.03-4.502-15.485-6.119-19.48a84.196 84.196 0 0 0-1.226-2.858c-.357-.895-.612-1.483-.731-1.762-.06-.12-.094-.192-.094-.192s1.064-1.679 1.336-3.481c.077-.444.094-.901.043-1.341-.154.25-.315.513-.494.8-1.566 2.48-5.472 3.603-12.655 2.715-.434-.057-2.366-.492-3.507-.926-10.519-3.999-19.498-9.735-23.71-12.556Zm9.268 12.278c.017.396.042.781.085 1.147.247 2.582.851 4.486 1.43 5.778.127.305.264.567.391.808.485.914.877 1.353.877 1.353.042.01.187.025.213.03v-.007c-1.77-3.614-1.507-6.435-1.073-7.993-.979-.575-1.821-1.064-1.89-1.106-.008 0-.016-.003-.025-.003l-.008-.007Zm12.102 11.232s-4.621.765-7.728 3.763c5.745 2.972 18.868 11.331 21.158 26.693 0-.009-.928-17.464-12.851-24.519 0 0 2.153-.205 4.749.45-2.026-3.108-4.043-5.37-5.328-6.383v-.004Zm-22.885 12.592c-.23.196-.894.766-1.634 1.71-.094.137-.213.281-.315.435a12.97 12.97 0 0 0-.894 1.404 12.751 12.751 0 0 0-1.498 7.345c.111 1.208.383 2.502.877 3.897.136.4.298.809.485 1.226.085.213.187.426.281.63a25.373 25.373 0 0 0 1.915 3.327s-.102-.008-.272-.042a7.205 7.205 0 0 1-.588-.136c-.068-.017-.136-.034-.204-.06-.034-.008-.06-.017-.102-.025-.102-.034-.213-.077-.324-.111a9.446 9.446 0 0 1-.34-.136c-.272-.102-.562-.23-.877-.383-.085-.043-.178-.094-.272-.136a13.48 13.48 0 0 1-.8-.46c-.085-.051-.17-.11-.264-.162-1.642-1.089-3.506-2.876-5.012-5.795 0 .008.417 8.63 9.608 13.83.213.119.443.23.672.348.426.23.877.443 1.337.664.212.094.417.187.638.281 0 0-1.158.12-2.86.077a27.73 27.73 0 0 1-2.604-.18c.374.435.774.86 1.226 1.303.45.434.953.877 1.523 1.328.553.45 1.174.919 1.864 1.421.68.485 1.43.996 2.272 1.549 4.647 2.672 12.766 5.31 16.672 5.353 8.511.085 11.983-1.608 15.762-2.92.902-.314 1.566-.544 2.068-.731-19.591 5.166-29.021-2.63-31.54-5.26a8.53 8.53 0 0 1-.707-.825c.103.06.196.11.298.162 8.528 4.46 15.788 1.727 15.788 1.727-2.596-.647-4.681-1.31-6.383-1.957-6.426-2.468-7.15-4.724-7.15-4.724.17.051.324.103.477.154 7.609 2.612 11.728.357 11.728.357-27.71-5.66-21.643-22.545-20.851-24.485Zm-7.294 33.753s12.239 8.4 17.617 14.094c.502.536.953 1.004 1.37 1.438.06.068 2.077 2.375 4.247 3.166.11.043.213.094.324.128-1.456-3.54-3.609-7.643-5.013-10.23-7.183-4.017-18.545-8.596-18.545-8.596Z" fill="#B2B2B2"/></g></svg>