<svg width="200" height="200" xmlns="http://www.w3.org/2000/svg"><g fill-rule="nonzero" fill="none"><path d="m16.21 199.204-6.21-.003 27.822-33.737V33.754L10.028 0l6.182.011h169.267V59.9l-.042 8.57-28.928-31.56H96.306v42.36h29.072l28.376-20.445.023 5.18v67.594l-.01 5.294-28.404-20.729H96.306v41.874c0 3.234 1.035 4.273 4.266 4.273h55.28l33.902-33.244.045 7.541v62.597H16.21" fill="#B09645"/><path d="m179.748 54.975-21.08-22.99H91.387v52.208h35.584l21.077-15.266h.811v57.746h-.81L126.97 111.24H91.386v46.797c0 5.945 3.238 9.196 9.186 9.196h57.288l26.213-25.701h.808v52.749H21.127v-.817l21.614-26.231V31.986L21.127 5.748v-.814h159.431v50.041h-.81" fill="#680A20"/></g></svg>