<svg width="200" height="200" xmlns="http://www.w3.org/2000/svg"><g fill="none" fill-rule="evenodd"><path d="M107.31 135.41c-1.547.647-2.253.943-6.804.943h-6.518c-.74 0-.942-.113-.98-.139-.002-.008-.01-.026-.01-.091 0-.071.01-.181.047-.343l3.317-14.654c.136-.6.33-.994 1.73-.994h8.264c2.125 0 3.096.288 4.143.664l1.205.433.406-7.497H92.964c-5.744 0-9.046 2.767-10.391 8.709l-2.531 11.181c-.714 3.154-.464 5.434.765 6.97 1.16 1.454 3.13 2.16 6.02 2.16h19.254l3.343-8.226-2.113.884" fill="#F47216"/><path d="M144.685 113.732h-30.654l2.175 1.706c.022.016 2.2 1.75 1.771 3.706l-3.897 17.79c-.388 1.774-2.807 3.518-3.706 4.04l-3.06 1.778h35.104l1.638-7.566-1.549.466c-.023.007-2.352.7-4.022.7h-11.16l1.175-5.36h9.288l1.401-6.4h-9.288l.978-4.46h8.124c2.325 0 4.196.63 4.215.637l1.007.344.233-1.038 1.417-6.343h-1.19m13.781 0c-4.29 0-7.187 2.554-8.155 7.19l-1.17 5.627c-.543 2.602-.37 4.275.562 5.421 1.166 1.434 3.295 1.618 5.02 1.618h8.69c.471 0 .678.1.72.153.022.027.049.106.049.249 0 .097-.012.222-.046.38l-.367 1.523c-.057.27-.095.339-.107.356-.09.048-.376.104-1.229.104h-10.515c-1.992 0-3.319-.925-3.332-.934l-1.178-.835-.31 1.408-1.462 6.76h21.488c5.144 0 7.916-2.287 8.985-7.417l1.365-6.292c.412-1.973.16-3.534-.743-4.646-1.081-1.33-3.049-1.977-6.016-1.977h-7.555c-.445 0-.71-.015-.879-.034l.337-1.857c.044-.205.085-.262.09-.268.056-.04.291-.13 1.277-.13h10.068c1.185 0 2.985.637 3.577.882l1.047.432 1.73-7.713h-21.941" fill="#F47216"/><path d="M65.946 100.75l-3.47 14.565-23.284 9.798c9.165-8.377 21.68-19.752 26.754-24.363zm8.236 36.09c.112-.845.784-4.773 3.746-18.501l52.142-26.255-7.87 12.748 19.502-11.777 15.196 12.01-2.19-19.767 45.216-27.221-46.612 15.085-1.705-16.052-1.464 2.383-11.247 18.292-23.53 7.572 12.23 2.702-47.383 19.798c.683-3.088 4.253-19.5 5.129-23.168.876-3.668 8.916-5.818 8.916-5.818H76.234s-40.461 36.442-58.058 51.97c-6.28 5.544-14.64 9.924-14.723 9.967L0 142.608h30.987l-1.46-1.599c-.099-.108-1.765-1.964-1.765-3.948 0-.803.272-1.626 1.03-2.365.925-.897 4.398-4.094 8.926-8.236H59.82l-2.013 8.449c-1.491 5.542-12.507 7.698-12.507 7.698h35.033s-6.752-1.205-6.15-5.767z" fill="#F47216"/><path d="M114.126 109.842h3.358c1.255 0 2.187-.22 2.418-1.32l.177-.846c.231-1.1-.608-1.32-1.865-1.32h-6.926c.194.212.257.415.149.931l-.745 3.553c-.109.516-.257.72-.46.93h3.754c-.114-.21-.177-.414-.07-.93l.21-.998zm.543-2.589h1.692c.465-.008.564.085.484.465l-.16.762c-.08.38-.218.473-.678.465h-1.693l.355-1.692zm14.746 3.621c.899 0 .977-.06 1.079-.542l.63-3.003c.127-.609.11-.72-.114-.972h2.036c-.331.253-.394.363-.522.972l-.58 2.766c-.26 1.236-.88 1.676-2.718 1.676h-4.282c-1.653 0-2.226-.542-1.988-1.676l.589-2.808c.108-.516.045-.72-.07-.93h3.755c-.204.21-.352.414-.46.93l-.646 3.079c-.074.355.131.508.7.508h2.59m11.158-1.455l1.04 2.352h3.609c-.235-.203-.335-.483-.527-.83l-.83-1.522c.694-.034 1.31-.076 1.478-.872l.209-.998c.19-.905-.463-1.192-1.944-1.192h-6.953c.194.21.257.414.149.93l-.745 3.553c-.109.516-.257.72-.46.93h3.754c-.115-.21-.178-.414-.07-.93l.299-1.421h.991zm-.537-2.166h1.824c.41 0 .52.042.465.305l-.139.66c-.054.262-.182.304-.592.304h-1.824l.266-1.269zm12.648 2.589h3.359c1.255 0 2.186-.22 2.418-1.32l.177-.846c.23-1.1-.609-1.32-1.866-1.32h-6.925c.194.212.257.415.149.931l-.746 3.553c-.108.516-.256.72-.46.93h3.754c-.114-.21-.177-.414-.069-.93l.21-.998zm.543-2.589h1.693c.464-.008.564.085.483.465l-.159.762c-.08.38-.217.473-.679.465h-1.691l.353-1.692zm14.508 3.621c.371 0 1.038-.034 1.426-.178l-.503 1.075h-7.297c.203-.212.352-.415.46-.931l.744-3.553c.109-.516.046-.72-.068-.93h3.754c-.203.21-.352.414-.46.93l-.752 3.587h2.696m10.429 0c.755 0 1.14-.076 1.485-.144l-.508 1.04h-7.456c.203-.21.35-.414.458-.93l.746-3.553c.108-.516.045-.72-.068-.93h7.322l.047 1.04c-.33-.068-.685-.144-1.438-.144h-2.63l-.267 1.27h2.3c.742 0 1.127-.077 1.485-.145l-.248 1.185c-.33-.068-.685-.144-1.425-.144h-2.299l-.306 1.455h2.802m-67.342 9.025c-1.18-.424-2.245-.72-4.465-.72h-8.264c-1.512 0-2.363.423-2.66 1.736l-3.317 14.654c-.297 1.313.362 1.737 1.873 1.737h6.518c4.628 0 5.45-.296 7.172-1.017l-2.239 5.51H86.828c-4.917 0-7.18-2.12-5.856-7.966l2.53-11.182c1.324-5.846 4.546-7.966 9.462-7.966h18.14l-.283 5.214m27.664 17.407c1.836 0 4.297-.741 4.297-.741l-1.133 5.234h-30.797s3.593-2.077 4.16-4.662l3.897-17.789c.566-2.586-2.117-4.663-2.117-4.663h27.893l-1.158 5.182s-1.994-.689-4.524-.689h-8.891l-1.395 6.367h9.287l-.983 4.493h-9.289l-1.592 7.268h12.345m39.51-17.174s-2.302-.954-3.942-.954h-10.068c-1.664 0-2.102.211-2.305 1.18l-.333 1.836c-.21 1.01.15 1.18 1.813 1.18h7.555c4.529 0 6.65 1.526 5.827 5.467l-1.365 6.298c-.895 4.286-2.959 6.66-8.053 6.66h-20.307l1.213-5.605s1.531 1.112 3.888 1.112h10.515c1.664 0 2.05-.17 2.262-1.19l.376-1.55c.202-.978.004-1.932-1.658-1.932h-8.69c-4.223 0-5.595-1.356-4.65-5.89l1.17-5.627c.884-4.228 3.478-6.432 7.223-6.432h20.75l-1.22 5.447" fill="#55318C" fill-rule="nonzero"/><path d="M192.425 61.514L152.487 74.43l-1.532-14.438-11.432 18.593-20.512 6.601 11.732 2.592-51.858 21.667c2.133-9.748 4.957-22.42 5.527-24.964.732-3.272 4.792-4.658 4.792-4.658H76.6s-39.989 36.022-57.792 51.733c-6.448 5.69-14.914 10.098-14.914 10.098h24.93s-4.043-4.387-.695-7.641c3.347-3.254 39.46-36.042 39.46-36.042l-4.298 18.036-22.579 9.5h20.315l-2.293 9.623c-.933 4.66-7.662 6.524-7.662 6.524h24.595s-2.752-1.1-2.435-4.893c.124-1.478 1.793-9.496 3.86-19.069l55.56-27.976-7.569 12.261 16.692-10.08 13.925 11.006-2.007-18.107 38.732-23.282" fill="#55318C"/><path fill="#55318C" fill-rule="nonzero" d="M177.785 141.875h-.492v-1.744h-.71v-.375h1.913v.375h-.71v1.744m3.424 0h-.459v-1.77h-.006l-.44 1.77h-.48l-.431-1.77h-.006v1.77h-.46v-2.119h.72l.424 1.67h.008l.418-1.67h.713v2.119"/></g></svg>