<svg width="200" height="200" xmlns="http://www.w3.org/2000/svg"><g fill="none" fill-rule="evenodd"><path fill="#FFF" d="m84.606 108.667 5.803-5.258V42.353l-8.452-7.512V21.226h47.234V34.84l-8.359 7.512V64.89h74.729v35.377h-13.683l-8.178-9.086h-52.868v17.56h41.6v26.2h-41.6V152.5H173.7l8.178-9.201h13.683v35.4H81.957v-13.71l8.452-7.324V134.94H37.26l-24.696-21.973V42.353L4.197 34.84V21.226H51.44V34.84l-8.357 7.512v61.056l5.822 5.258z"/><path d="M77.732 17v19.719l8.546 7.513v57.298l-3.287 2.888H50.5l-3.286-2.888V44.232l8.45-7.42V17H0v19.813l8.414 7.419v70.614l27.329 24.32h50.535v16.528l-8.546 7.418v19.833H199.71v-43.778h-19.72l-8.075 9.108h-46.857v-9.108h41.693v-34.65h-41.693v-9.109h46.857l8.076 9.108h19.719V60.664h-74.652V44.232l8.451-7.513V17H77.732Zm6.874 91.667 5.803-5.258V42.353l-8.452-7.512V21.226h47.234V34.84l-8.359 7.512V64.89h74.729v35.377h-13.683l-8.178-9.086h-52.868v17.56h41.6v26.2h-41.6V152.5H173.7l8.178-9.201h13.683v35.4H81.957v-13.71l8.452-7.324V134.94H37.26l-24.696-21.973V42.353L4.197 34.84V21.226H51.44V34.84l-8.357 7.512v61.056l5.822 5.258h35.702Z" fill="#ED8B00"/><path fill="#470A68" d="M8.414 25.414h38.8v7.643l-8.357 7.418v64.906l8.357 7.512h39.063l8.357-7.512V40.475l-8.357-7.418v-7.643h38.782v7.643l-8.358 7.418v70.615l-22.067 19.626H38.857L16.789 111.09V40.475l-8.375-7.418v-7.643"/><path fill="#470A68" d="M120.833 69.209h70.52v26.857h-7.605l-8.076-9.11h-54.839V69.21M158.3 112.968v17.748h-41.599v25.916h58.97l8.077-9.108h7.605v26.95H86.278v-7.513l8.357-7.512V136.35l26.199-23.382H158.3"/><path fill="#3C1053" d="M8.417 33.057h19.4v75.16l15.156 13.69h47.515l4.15 8.809H38.86L16.793 111.09V40.476l-8.376-7.419M105.681 108.217v-75.16h-19.4l8.376 7.419v64.91l-.02-.006-8.369 7.519 4.238 9.008 15.175-13.69M47.218 33.057h-19.4l11.041 7.419 8.359-7.419M125.081 33.057h-19.4l11.043 7.419 8.357-7.419M110.808 121.907l5.897 8.809h41.58l-5.765-8.809h-41.712M120.836 78.093v8.864h54.84l8.075 9.09h7.588l-5.484-17.954h-65.019M191.339 174.493l-5.484-8.846h-80.193v-39.139l-10.987 9.86v23.1l-8.357 7.513v7.512h105.02"/></g></svg>