<svg width="200" height="200" xmlns="http://www.w3.org/2000/svg"><g fill="none"><path fill="#BDBCBC" d="M0 27.37l2.759-14.55L197.41 27.452 182.907 90.56l-28.54-20.574H94.42l-4.67 20.34h61.628L143.21 125.8H81.33l-15.043 62.883H3.095l30.38-132.294L0 27.371"/><path fill="#231F20" d="M2.565 12.845l197.408.08-14.508 63.108-28.531-20.564H97.771l-4.676 20.323h61.625l-8.16 35.487H84.87l-15.043 62.877H5.647L36.04 41.847 2.565 12.845"/><path fill="#E11535" d="M18.537 163.904l28.886-125.77-17.346-15.023 157.025.073-8.17 35.495-18.693-13.47H89.602l-9.389 40.85h61.626l-3.438 14.97H76.776l-15.043 62.875H18.537"/></g></svg>