<?xml version="1.0" encoding="UTF-8"?>
<svg width="200px" height="200px" viewBox="0 0 200 200" version="1.1" xmlns="http://www.w3.org/2000/svg" xmlns:xlink="http://www.w3.org/1999/xlink">
    <!-- Generator: Sketch 51.3 (57544) - http://www.bohemiancoding.com/sketch -->
    <title>fairleigh-dickinson</title>
    <desc>Created with Sketch.</desc>
    <defs></defs>
    <g id="fairleigh-dickinson" stroke="none" stroke-width="1" fill="none" fill-rule="evenodd">
        <g id="fairleigh-dickinson_BGL" transform="translate(27.000000, 0.000000)">
            <g id="fairleigh-dickinson" transform="translate(0.046784, 0.000000)">
                <g id="g10" transform="translate(73.099413, 99.940346) scale(-1, 1) rotate(-180.000000) translate(-73.099413, -99.940346) translate(0.000000, 0.163847)" fill-rule="nonzero">
                    <g id="g12">
                        <path d="M117.511088,174.656764 C117.511088,174.656764 116.207902,179.692642 113.223849,183.136296 C110.239377,186.580371 108.173268,188.417099 103.81083,189.565684 C99.4471307,190.713009 95.7736751,191.860753 95.7736751,191.860753 C95.7736751,191.860753 91.6414577,196.911755 89.3447077,198.06034 C87.5084,196.682794 84.9839496,191.402412 83.8349445,187.957497 C82.6876198,190.254247 83.6051434,194.156663 84.2937063,195.534629 C81.9977966,195.76485 71.8205938,193.483644 67.1140838,190.958774 C63.0511848,188.777975 59.9558028,184.05424 60.416245,180.380785 C60.8750069,176.707329 62.9415357,173.033453 64.7778434,172.345311 C64.0897006,171.197146 62.2529728,166.835127 62.2529728,166.835127 L48.2468732,161.553485 L42.2775078,164.997979 L31.0273821,154.207414 L36.0779214,147.318844 C36.0779214,147.318844 34.4704905,144.563332 35.1598936,142.496804 C35.8491286,140.431115 38.3737471,139.053149 39.5223321,138.135205 C40.670245,137.216421 41.1569863,134.270179 42.4312687,133.214018 C44.767089,131.277304 48.4762541,131.017675 50.7721638,132.165 C53.0684937,133.313165 56.2831874,134.920091 56.2831874,134.920091 L67.9925371,134.691131 L68.4517191,132.165 C68.4517191,132.165 59.0382791,127.114418 54.2162385,122.062577 C49.3950381,117.011995 38.5281801,105.546731 33.2477138,83.7357981 C30.49237,82.1288714 29.8034711,79.3809216 29.8034711,76.1574055 C29.8034711,74.092137 30.7646443,72.3327098 31.640619,71.105984 C32.7885738,69.5011578 28.3477004,66.4087165 26.2055936,65.1219148 C23.7727274,63.6616069 21.843323,60.0091569 21.843323,55.7072144 C21.843323,53.1823439 22.9159519,49.2937912 25.6709596,47.700308 L120.26576,47.700308 C120.26576,47.700308 124.703818,51.3460362 124.474437,56.3974578 C124.326978,59.6163526 123.251072,62.1534064 120.800982,64.6631529 C118.352151,67.1707989 114.832037,69.2696763 115.7504,71.3366252 C117.127946,72.0264484 117.972371,75.6578928 117.97069,77.5504955 C117.97069,80.7488049 115.214338,83.505577 112.918428,84.19456 C115.444139,84.8831228 123.939635,91.6553214 126.235545,99.4630949 C124.903791,98.9782862 123.69471,98.5943042 121.184544,99.003913 C118.936947,99.3706704 116.477193,99.8075864 115.67478,100.609579 C120.151489,101.414513 123.136802,102.906749 126.235545,107.269188 C128.847379,110.598572 130.540848,114.84632 131.058006,118.748737 C129.162882,118.118149 128.302494,117.945903 126.007004,118.174864 C123.595144,118.519776 121.528195,118.634466 120.26576,120.241393 C124.742468,120.356504 126.59264,121.726067 128.531455,124.718522 C130.416495,127.629895 130.717295,132.797268 131.058006,135.853579 C126.007004,135.739729 122.333129,136.429132 120.036799,139.528715 C122.558729,139.559383 124.049705,141.775052 125.662093,144.923368 C127.021154,147.576793 127.638718,151.490552 126.981243,154.509474 C125.858285,154.076759 125.009659,153.803266 124.094236,153.784361 C123.185115,153.764616 119.577197,153.877626 118.544142,155.025371 C120.151489,155.025371 121.643726,155.255172 122.6772,155.370282 C123.595144,155.599663 124.341262,156.254617 124.818509,157.077196 C122.982201,158.454742 120.26576,161.454758 118.887794,166.735141 C117.511088,172.016783 115.789471,173.73756 114.410665,174.886145 L117.511088,174.656764" id="path14" fill="#FFFFFF"></path>
                        <path d="M84.9242938,187.59452 C85.987176,190.784007 88.0226166,194.941852 89.4955278,196.615996 C91.2730198,195.336757 93.9092199,192.326657 94.884719,191.13396 L95.1128396,190.855847 L103.517592,188.455329 C107.508652,187.40421 109.391172,185.805265 112.357159,182.384297 C114.145994,180.319868 115.2971,177.609729 115.89828,175.927182 C115.203835,175.978015 110.92794,176.2952 110.92794,176.2952 L113.67631,174.004751 C114.993359,172.907 116.50366,171.32696 117.777859,166.445684 C119.107932,161.345949 121.607176,158.394666 123.220824,156.928056 C122.975899,156.720521 122.707868,156.571802 122.421772,156.495761 C122.256668,156.476856 121.892852,156.433165 121.892852,156.433165 L116.222186,155.993308 L117.690896,154.258247 C119.201617,152.578641 123.61993,152.626114 124.118603,152.637037 C124.742468,152.65006 125.35121,152.781555 125.98894,152.966824 C126.021708,152.597966 126.097748,152.255155 126.097748,151.868653 C126.097748,149.67441 125.57597,147.275993 124.639961,145.446407 C123.101513,142.441769 121.853361,140.698306 120.021675,140.67646 L117.777859,140.649153 L119.113394,138.844774 C121.667672,135.396918 125.675116,134.720538 129.782127,134.697852 C129.480067,131.707498 129.060795,127.64922 127.568139,125.341968 C125.854084,122.695265 124.387474,121.496266 120.235932,121.388298 L117.950945,121.330322 L119.3621,119.532245 C120.783337,117.724925 122.890197,117.439249 125.118888,117.138449 L125.843581,117.038462 C127.463951,116.875879 128.472639,116.904447 129.557787,117.133408 C128.833095,113.835532 127.369846,110.575466 125.332305,107.977496 C122.267591,103.666731 119.506618,102.465632 115.471446,101.74094 L113.309132,101.352757 L114.863125,99.7983439 C115.889037,98.7732717 118.148817,98.3350953 120.999274,97.8708721 C122.428494,97.6368699 123.443484,97.6797213 124.356806,97.8158374 C121.412664,91.0835495 114.368653,85.7792208 112.616368,85.3007137 L108.747561,84.2458136 L112.589061,83.0942878 C114.31908,82.5758701 116.821685,80.3039067 116.823365,77.5504955 L116.823365,77.5496553 C116.823365,75.4684225 115.877274,72.6826627 115.237864,72.3633779 L114.869847,72.179369 L114.702222,71.8037893 C114.523675,71.403423 114.443853,71.0143996 114.443853,70.6337786 C114.443853,68.8272988 116.257055,67.2275139 118.021524,65.672681 L119.979243,63.8607398 C122.18903,61.5971787 123.190156,59.3487415 123.327953,56.3462041 C123.332574,56.2373952 123.335095,56.1294266 123.335095,56.0214579 C123.335095,52.448409 120.68167,49.6613888 119.820441,48.8493132 C118.941148,48.8493132 26.8782762,48.8493132 26.0774595,48.8493132 C23.8372146,50.3075204 22.9912779,53.7037024 22.9912779,55.7072144 C22.9912779,59.9297558 24.9636597,63.0377412 26.7962284,64.1380135 C28.4806237,65.1483818 32.4495018,67.7442512 32.9221273,70.0191553 C32.9575847,70.1880402 32.9749773,70.3565049 32.9749773,70.5220289 C32.9749773,70.9765896 32.8394493,71.403423 32.5750731,71.7748016 C31.497865,73.2813217 30.9513839,74.7567535 30.9513839,76.1574055 C30.9513839,79.597279 31.8109742,81.5676023 33.8265435,82.7443348 L34.2490917,82.9892599 L34.363152,83.4648262 C39.5976581,105.085448 50.4234712,116.42762 55.0472192,121.270666 C59.6848308,126.128837 68.9020787,131.103378 68.9945032,131.153791 L69.7309588,131.548276 L68.9541725,135.820391 L56.0227182,136.073718 L50.2592076,133.191752 C48.4586094,132.291033 45.2334129,132.381777 43.1635232,134.098353 C42.7253468,134.46133 42.3169983,135.408261 41.9568367,136.242603 C41.4774894,137.354218 41.0250292,138.403657 40.2394626,139.031723 L39.3280305,139.699701 C38.2094835,140.491611 36.6772106,141.576339 36.2485707,142.8602 C36.1686655,143.101344 36.1338803,143.366435 36.1338803,143.641608 C36.1338803,144.830523 36.7682907,146.218152 37.0708971,146.742031 L37.4457206,147.391103 L37.0044355,147.997745 C37.0044355,147.997745 33.474364,152.811803 32.5478079,154.074658 C33.7428573,155.221563 41.4154389,162.581077 42.4497536,163.572961 C43.5932973,162.913386 48.1435257,160.287268 48.1435257,160.287268 L63.1192429,165.934408 L63.3112339,166.388969 C63.8128471,167.582086 65.2324041,170.870719 65.7621648,171.755054 L66.4713131,172.936408 L65.1815706,173.419956 C64.0102995,173.858973 62.0151897,176.844706 61.5551675,180.523623 C61.5303809,180.719815 61.5186178,180.920208 61.5186178,181.124382 C61.5186178,184.179854 64.1905274,188.087731 67.6564479,189.946725 C71.5025693,192.011153 79.1044882,193.892413 82.6514902,194.315045 C82.3620333,193.268547 82.1364334,192.022076 82.1364334,190.7546 C82.1364334,189.582068 82.3225428,188.416679 82.809032,187.444541 L84.0483611,184.966302 L84.9242938,187.59452 Z M88.6561449,198.978704 C87.3567398,198.004045 85.9090353,195.602267 84.7062559,193.096302 C84.8776614,193.891573 85.1028412,194.586017 85.3217193,195.021253 L86.0653168,196.510548 L84.4083968,196.676072 C81.7524514,196.943263 71.3664531,194.543166 66.5708796,191.969982 C62.2920432,189.674073 59.2227081,185.061248 59.2227081,181.123542 C59.2227081,180.824422 59.2399326,180.528664 59.2764824,180.238787 C59.7054163,176.812777 61.387543,173.453985 63.2763646,171.943684 C62.6235112,170.61025 61.7744658,168.644128 61.3888033,167.735426 C60.5595031,167.422863 49.2618627,163.162932 48.3502206,162.819701 C47.5515885,163.279723 42.104842,166.422578 42.104842,166.422578 L29.5070823,154.338488 C29.5070823,154.338488 34.0397081,148.156547 34.7384797,147.204994 C34.3642863,146.411823 33.8393149,145.069147 33.8393149,143.642868 C33.8393149,143.137894 33.9067848,142.627458 34.0703762,142.134667 C34.7370093,140.136197 36.6243605,138.801502 38.0027046,137.825583 L38.8045295,137.238687 C39.1432235,136.967715 39.5338012,136.062375 39.8488849,135.333901 C40.3341557,134.208002 40.8366512,133.045554 41.6987201,132.330104 C44.2238848,130.236688 48.4350831,129.713649 51.2855402,131.138247 C51.2855402,131.138247 55.4690112,133.229562 56.5436566,133.766885 C57.0377078,133.757223 65.4836308,133.592119 67.0304816,133.561451 C67.0985397,133.194273 67.1128235,133.115292 67.1745799,132.770801 C64.8795104,131.48778 57.565788,127.23457 53.386098,122.855327 C48.667825,117.913135 37.6744714,106.358386 32.2552002,84.4310828 C29.0686119,82.2868333 28.6555582,78.715885 28.6555582,76.1574055 C28.6555582,74.2895895 29.3418525,72.3877444 30.6719257,70.5043842 C30.6514243,69.9179084 28.899391,68.0782399 25.6153368,66.1062362 C22.6725813,64.3400871 20.694906,60.1612373 20.694906,55.7072144 C20.694906,52.6004894 22.0725779,48.4565088 25.0960789,46.7071643 L25.3619255,46.5534034 L120.677469,46.5534034 L120.995073,46.8151329 C121.188745,46.9730949 125.631004,50.6856208 125.631004,56.0147361 C125.631004,56.157574 125.628064,56.3029327 125.621342,56.4487114 C125.459599,60.0183994 124.225311,62.7982777 121.62188,65.4643057 L119.538546,67.3947184 C118.226538,68.5525458 116.755307,69.8498504 116.755307,70.6476422 C116.755307,70.6615059 116.761189,70.6703283 116.762869,70.6820914 C118.53532,72.1726473 119.120115,76.1263172 119.120115,77.5496553 L119.120115,77.5504955 C119.117595,80.2946643 117.437148,82.7611393 115.416832,84.198341 C119.258752,86.6064205 125.3865,92.504787 127.336237,99.1387688 L127.978588,101.318308 L125.843581,100.542362 C124.687434,100.12141 123.689249,99.7584333 121.369813,100.135273 C120.924495,100.208793 120.262399,100.324744 119.577197,100.457079 C122.325147,101.464506 124.744569,103.188644 127.171133,106.604151 C129.787588,109.936056 131.628937,114.322861 132.195248,118.598337 L132.435972,120.41826 L130.694609,119.838506 C128.894431,119.238587 128.210069,119.108772 126.120855,119.317148 C126.118334,119.318828 125.42725,119.413353 125.42725,119.413353 C124.907992,119.484352 124.444609,119.549889 124.023237,119.623409 C126.568693,120.364486 128.051267,121.865965 129.495611,124.094236 C131.29999,126.883357 131.747829,131.305031 132.073836,134.532749 L132.333464,137.02359 L131.031119,137.001324 C126.719934,136.903858 124.072811,137.472269 122.254568,138.910311 C124.224051,139.898414 125.520935,142.129206 126.683384,144.399909 C127.788277,146.557182 128.393658,149.306392 128.393658,151.861931 C128.393658,152.871879 128.300393,153.851579 128.104201,154.753979 L127.819786,156.062206 L126.568693,155.580758 C125.681838,155.239208 125.04831,155.06024 124.438728,154.990502 C124.97311,155.382046 125.447836,155.876097 125.810812,156.499962 L126.324189,157.382617 L125.507912,157.9964 C124.328659,158.879054 121.43409,161.528278 119.998989,167.025018 C119.183972,170.151068 118.228639,172.126432 117.232134,173.526244 C117.25566,173.524144 119.022649,173.393909 119.022649,173.393909 L118.621023,174.943701 C118.566408,175.160478 117.21659,180.282058 114.09096,183.887456 C110.864503,187.613425 108.655136,189.47704 104.102387,190.675619 C104.102387,190.675619 97.8654106,192.456472 96.4315698,192.866501 C95.494721,193.991559 92.0829949,197.975897 89.8585042,199.087093 L89.2228754,199.403857 L88.6561449,198.978704 Z" id="path16" fill="#15569C"></path>
                        <path d="M83.3375324,181.299569 C84.894886,180.298023 86.4749256,178.314256 87.1643287,176.707329 C86.0157436,181.52937 86.9349477,191.630952 89.2300173,193.698321 C96.8067294,188.64648 97.2667516,174.182038 96.3475475,168.900816 L100.021423,175.100402 C100.021423,175.100402 100.711246,169.359998 100.940627,165.22778 C101.169168,161.094723 101.857731,156.732704 104.614083,151.222101 C107.369175,145.711917 107.828777,138.594387 106.909152,131.476437 C105.991629,124.358907 102.892466,117.25608 99.2198503,111.592556 C95.2506362,105.474051 90.8772747,101.414513 85.8262733,101.644734 C80.7752719,101.874535 76.3725026,107.368334 76.3725026,112.419756 C73.3876099,108.975261 70.8631595,103.235277 69.9443755,96.1185867 C69.0264317,89.0006363 74.765996,84.8684189 74.765996,84.8684189 L37.1111018,84.8684189 C37.8002108,88.3112333 41.0140643,95.1993826 43.9991251,101.858571 C46.9844379,108.516499 58.9235886,122.522179 62.3672432,124.818509 C65.8108977,127.114418 71.5517223,131.017675 71.5517223,131.017675 L70.6325182,136.98662 C70.6325182,136.98662 55.9386959,137.675183 54.790531,137.904984 C53.1836042,136.527018 50.8868543,134.46133 48.3615636,134.231529 C45.8354327,134.002568 42.6215792,136.298057 42.6215792,137.904984 C42.6215792,139.511911 40.5548824,140.431115 39.4075997,142.037202 C38.2596868,143.645389 39.4075997,145.482116 40.7849775,145.941718 C42.1623973,146.40006 46.9844379,146.629861 46.9844379,146.629861 L41.9328903,144.333531 L43.7697442,142.496804 L51.5762574,144.793133 L49.7395296,149.385373 L40.7849775,147.548645 L34.5861892,153.059249 L42.3917782,161.094723 L47.6721605,158.339631 L63.7452091,164.538797 L66.2704998,169.589799 L81.652885,172.804913 L80.9651623,174.870601 L73.9627427,173.493055 C73.9627427,173.493055 71.0917002,173.033453 67.6484657,173.952237 C64.2043911,174.870601 60.3771747,182.524194 68.3370286,187.422695 C72.6230069,190.177786 79.0519742,192.014094 80.8882819,191.708253 C78.1331902,188.340639 79.0519742,184.05424 83.3375324,181.299569" id="path18" fill="#15569C"></path>
                        <path d="M73.847212,72.0109043 L112.190795,72.0109043 C112.190795,72.0109043 114.256064,73.8467919 114.256064,76.6010433 C114.256064,79.3565551 112.190795,81.1941231 112.190795,81.1941231 L73.847212,81.1941231 L35.5043431,81.1941231 C35.5043431,81.1941231 33.4376042,79.3565551 33.4376042,76.6010433 C33.4376042,73.8467919 35.5043431,72.0109043 35.5043431,72.0109043 L73.847212,72.0109043" id="path20" fill="#15569C"></path>
                        <path d="M73.847212,51.3460362 L118.848303,51.3460362 C118.848303,51.3460362 120.915252,53.1823439 120.915252,55.9378557 C120.915252,58.6929474 118.848303,60.5296752 118.848303,60.5296752 L73.847212,60.5296752 L27.4689111,60.5296752 C27.4689111,60.5296752 25.4021302,58.6929474 25.4021302,55.9378557 C25.4021302,53.1823439 27.4689111,51.3460362 27.4689111,51.3460362 L73.847212,51.3460362" id="path22" fill="#15569C"></path>
                        <path d="M74.4320073,63.093196 L118.38576,63.093196 C112.710053,66.3083098 112.438661,69.2549724 112.438661,69.2549724 L74.4320073,69.2549724 L35.5043431,69.2549724 C35.5043431,69.2549724 35.0452031,65.5806766 29.0999522,63.093196 L74.4320073,63.093196" id="path24" fill="#15569C"></path>
                        <path d="M97.1134109,186.809752 C103.047067,187.284898 110.89013,183.747979 112.420596,177.319011 C109.052982,178.544057 107.828777,180.074943 104.153641,178.850738 C106.29831,178.238636 112.046277,177.714336 114.562745,168.442054 C117.050646,159.273119 120.955163,157.666192 120.955163,157.666192 C120.955163,157.666192 115.67478,156.059265 112.725597,157.727528 C110.313316,159.093311 107.867427,161.91394 107.867427,161.91394 C107.867427,161.91394 107.356991,160.281807 110.163337,157.20701 C114.985377,151.926208 122.256668,151.467446 124.397557,151.467446 C123.710254,148.711094 123.480453,143.660513 119.577197,142.742149 C115.702928,141.830927 113.950642,143.95165 112.725597,144.870014 C114.525775,139.298494 120.036799,132.869107 128.302494,133.328709 C127.688711,127.511844 124.169016,122.690644 120.495981,122.996485 C116.821685,123.303166 115.63697,124.848757 113.37845,127.359343 C113.34064,123.930393 116.133542,114.500989 127.153069,115.649154 C125.218875,111.00566 118.221497,96.4147654 104.767424,107.827096 C105.991629,103.235277 111.540882,96.3626715 120.955163,96.5924725 C118.200071,92.9185969 111.196391,85.4801014 103.236537,85.4801014 L77.8256686,85.4801014 C77.8256686,85.4801014 67.724926,91.2969662 75.6843599,106.602891 C78.1331902,97.7250933 84.6768481,98.2766998 89.2690876,98.8883823 C93.8617473,99.5004848 97.0756009,103.939804 100.136954,107.919941 C103.198727,111.899238 107.215414,118.848723 108.135038,124.971009 C109.052982,131.092875 111.196391,135.379693 109.970926,143.95165 C108.7463,152.522766 104.381341,158.309383 103.88729,162.258432 C103.352488,166.54399 103.646986,171.246299 102.050982,176.187231 C100.492368,181.009272 98.8358683,184.528546 97.1134109,186.809752" id="path26" fill="#15569C"></path>
                        <path d="M66.5007209,164.461917 L75.112588,166.911588 C75.112588,166.911588 76.9392331,167.401438 74.3295001,163.727982 C71.7193469,160.054106 67.8043271,161.767741 66.5007209,164.461917" id="path28" fill="#FFFFFF"></path>
                        <path d="M77.0623258,138.135205 C81.652885,139.511911 89.0010565,141.808661 89.2300173,145.941718 C90.8382044,141.808661 68.9495513,110.276767 68.9495513,110.276767 L85.0986401,139.28295 C85.0986401,139.28295 80.2770196,137.904984 77.0623258,138.135205" id="path30" fill="#FFFFFF"></path>
                        <path d="M128.83985,7.84772616 C128.79794,7.88154682 128.766751,7.93719984 128.728739,7.97141037 C128.656614,8.04148834 128.575718,8.09324272 128.504568,8.16332069 L128.83985,7.84772616" id="path32" fill="#15569C"></path>
                        <path d="M51.3918284,38.7393702 C51.2506709,38.7393702 51.1107737,38.7393702 50.976338,38.7393702 C50.976338,39.954753 50.976338,44.3965506 50.976338,47.1554233 C51.1137145,47.2247417 51.2557122,47.2944802 51.3918284,47.3616981 C51.3918284,46.9575508 51.3918284,39.3811747 51.3918284,38.7393702 Z M64.5152736,40.8857202 C64.0905408,40.741958 63.6645477,40.5819375 63.2406551,40.4457374 C63.2406551,40.6802437 63.2406551,41.4254796 63.2406551,42.5157111 C63.6132941,41.9157918 64.0371867,41.3691846 64.5152736,40.8857202 Z M80.1740922,39.3162254 C81.2096673,39.9790354 82.1519775,40.8214011 82.9157403,41.8880644 C82.9157403,40.8857202 82.9157403,40.1462398 82.9157403,39.8702265 C82.2326389,39.8702265 81.5470168,39.8702265 81.5470168,39.8702265 L81.5470168,38.3133351 C81.1416092,38.6620697 80.700492,39.0019399 80.1740922,39.3162254 Z M120.471194,33.3110666 C120.471194,33.3110666 119.016768,32.5720903 118.255106,32.1859658 C118.248804,32.2519233 118.231579,32.2796507 118.231579,32.3650173 C118.231579,32.3650173 118.231579,45.3149145 118.231579,45.6236965 C118.678578,45.5287513 119.651977,45.3212162 120.220808,45.2006442 C120.849715,42.5669647 121.798327,40.1706903 122.905321,37.9738009 C122.623006,37.2655348 121.457616,34.3441209 121.457616,34.3441209 L121.295033,33.9614413 C121.280749,33.926488 120.972807,33.1500798 120.714439,32.4989069 L120.471194,33.3110666 Z M138.4171,44.3066467 C138.431384,44.3612612 139.473261,48.2544352 139.473261,48.2544352 C139.481243,48.2859435 140.365157,51.7573255 140.365157,51.7573255 C140.367678,51.7678282 141.296545,55.483295 141.296545,55.483295 C141.281001,55.4265799 141.551553,56.3856946 141.551553,56.3856946 L142.524111,60.0969603 L142.10568,60.8422382 L141.583061,61.9719182 C141.583061,61.9719182 141.123459,62.8104609 141.0512,62.9402754 C140.989023,63.0772317 140.543285,64.038447 140.543285,64.038447 L137.17357,69.6322326 C137.17357,69.6322326 136.280413,67.1905441 135.759474,65.7638452 C134.335296,66.9888906 132.849782,67.6816546 131.342001,67.6816546 C126.085565,67.6816546 120.783337,63.4053389 119.651977,55.2039208 L118.462641,55.5160637 C118.462641,55.5160637 118.23326,55.5379095 118.231579,55.5379095 C118.23326,57.1103871 118.354672,59.4062968 118.559686,60.5586629 L118.975597,62.9083469 C118.975597,62.9083469 116.430561,63.5935489 116.268818,63.6376606 C116.109176,63.7015175 115.155102,64.0897006 115.155102,64.0897006 L111.926965,64.9639528 L111.248905,62.4441236 C110.25282,58.74042 108.049335,56.0991785 106.493662,55.686629 L104.593918,55.1808146 C103.304175,57.1019849 101.379224,58.2951017 98.9988716,58.4786905 C97.3453125,58.5685944 96.010618,58.183352 94.8149805,57.6338461 C94.8149805,58.2871196 94.8149805,59.5671996 94.8149805,59.7024755 C95.1876195,59.8616978 96.1337107,60.2624842 96.1337107,60.2624842 L96.1337107,68.9978641 L92.5186506,67.4787407 L85.5258935,64.53922 C85.5897505,64.5640066 83.2610721,63.6616069 83.2610721,63.6616069 L81.5978503,63.0163156 L81.5978503,62.5562934 L80.2417302,62.7071134 L80.098052,62.7071134 C77.3345581,62.7071134 75.6755375,61.5753329 74.8332138,59.3025293 C74.1942241,59.3945337 73.4560881,59.4667929 72.5452862,59.4667929 C68.9856809,59.4667929 65.2387058,57.7573589 63.2406551,54.1120508 C63.2406551,55.9344948 63.2406551,57.5678886 63.2406551,58.721515 C63.3994573,59.2647192 63.4939824,59.8478341 63.4939824,60.4788417 C63.4939824,63.0503446 61.971078,65.7974542 57.6960226,65.7974542 C54.6867634,65.7974542 51.1889145,62.9474173 51.1889145,59.2731215 C51.1889145,57.8544047 51.5724764,56.8305928 52.0383801,56.1004389 C50.9662554,55.6504994 50.0739384,55.27618 50.0739384,55.27618 L50.0739384,54.2263212 C49.6655899,55.1358627 49.1265868,55.9147496 48.4405446,56.5470175 C47.459164,57.4515177 45.7001568,58.4816313 42.8875099,58.2514101 C41.5621839,58.1329387 40.4508207,57.6073791 39.420077,56.9478039 C39.420077,58.2346057 39.420077,59.8835436 39.420077,59.8835436 L35.5883654,57.8388606 L33.6115724,56.7814397 C33.6356868,56.7961436 31.6083124,55.7399831 31.6083124,55.7399831 C31.5464299,55.7072144 29.7951108,54.7308752 29.5883319,54.6153445 C29.4993943,54.5691322 26.0687632,52.8659999 26.0687632,52.8659999 L26.2033249,51.3233502 L26.2033249,41.4590885 C26.2033249,41.4590885 26.9460402,42.1250073 27.4692051,42.5938519 C27.4692051,41.6809914 27.4692051,35.0386074 27.4692051,32.0760226 C27.4027435,32.0380865 27.3333411,32.0003605 27.2681817,31.964567 C26.8536577,33.0644191 26.4302692,34.1882175 26.4302692,34.1882175 C26.4496364,34.1340652 24.6265622,39.3329458 24.6265622,39.3329458 C24.6402158,39.292237 22.8164695,44.7906153 22.8158393,44.7927158 C22.8158393,44.793556 21.8689498,47.8536487 21.3659503,49.47738 C21.7381691,50.2310601 22.1694136,51.104052 22.1710521,51.1074129 C22.1736988,51.1074129 23.4409233,53.4260086 23.4409233,53.4260086 C23.4604585,53.4638187 24.7202891,55.8622356 24.7265067,55.8731585 C24.7265067,55.8731585 24.995,56.3310801 25.2787434,56.8192498 C25.3053365,56.8192498 27.9661551,56.8192498 27.9661551,56.8192498 L27.9661551,66.7019544 L25.3614634,66.7019544 L23.2827093,66.7019544 C23.1855795,66.6998538 21.1591713,66.6242337 21.1591713,66.6242337 L19.2286326,66.6263343 C19.1324691,66.6242337 16.7914814,66.538531 16.6643136,66.5343299 C16.6643136,66.538531 16.6643136,66.6204527 16.6643136,66.6204527 L8.21284513,66.3982137 L5.44275546,66.4003143 C5.37364711,66.3982137 0,66.2578964 0,66.2578964 L0,54.5577892 C0,54.5577892 0.904059096,54.5577892 1.67174998,54.5577892 C1.67174998,51.4960161 1.67174998,17.4144648 1.67174998,15.5369022 C1.56048343,15.4450238 1.17401439,15.1245207 1.17401439,15.1245207 L0,13.8766633 L0,0 C0,0 7.26364504,7.13811571 7.26742605,7.14025827 C7.27070292,7.14025827 9.70260277,9.3374838 9.9742049,9.5814846 C10.0810393,9.66714535 12.8086557,11.8740755 12.8086557,11.8740755 C12.7442946,11.8236621 15.630125,14.0085783 15.630125,14.0085783 L16.6643136,14.7895657 C16.6643136,14.7895657 16.6643136,15.0887272 16.6643136,15.3860822 C16.6831766,15.321427 16.7680392,15.042935 16.7680392,15.042935 C16.7680392,15.042935 21.9020966,18.3387103 21.9030629,18.3395085 C21.9037351,18.3408109 24.185319,19.7414628 24.1893941,19.7436054 C24.1915367,19.7436054 26.3418357,20.9786494 26.3513303,20.9854132 C26.3534728,20.9840688 27.6126732,21.6352418 28.2387235,21.9588537 C30.002856,22.8142009 32.2730969,23.914011 32.2736011,23.9164896 C32.2765418,23.9164896 34.5385906,24.9395453 34.5433378,24.9416459 C34.5433378,24.9403435 36.8024458,25.8898797 36.8091676,25.8926524 C36.8129486,25.8926524 39.5961878,26.9493171 40.0630577,27.1282006 C40.5208953,27.2778863 43.4029867,28.2306574 43.4084482,28.2339762 C43.4105488,28.2306574 47.9738006,29.5602685 47.9817828,29.562411 C47.986404,29.562411 50.6650354,30.2396729 51.7695087,30.5189631 L55.4152369,31.241513 C55.3333151,31.2260949 57.6141009,31.6037332 57.6141009,31.6037332 C57.6056986,31.6028929 59.6310565,31.9301178 59.8570765,31.9659113 C60.0053759,31.9804892 64.4068849,32.4175313 64.4068849,32.4175313 L64.4068849,33.3719408 C64.5610658,33.2127605 64.8425406,32.9227995 65.0530165,32.7061899 C64.9731953,32.3292238 64.9240422,31.9389822 64.9240422,31.5369354 C64.9240422,29.4838082 65.8100575,24.7109206 74.0165169,24.7109206 C78.5171722,24.7109206 83.7282361,26.6422995 84.1340639,32.0036374 C85.1805618,31.8663029 86.1463983,31.7419079 86.148919,31.7419079 C86.148919,31.7407315 88.4511304,31.3764108 88.457012,31.3756126 C88.4578522,31.3743102 92.7917232,30.5517738 93.0526124,30.5025787 C93.0526124,30.4971593 93.0526124,30.4346047 93.0526124,30.4346047 C93.0526124,30.4346047 97.1932321,29.4972517 97.3356499,29.4649031 C97.4793281,29.4250346 101.641794,28.214273 101.824962,28.1596165 C102.00351,28.0924827 107.638886,25.9528964 107.638886,25.9528964 L107.638886,27.7001405 C108.532464,25.8888714 110.017138,24.2412779 112.478571,23.1322253 C115.580255,21.6268816 118.400884,22.7490416 120.081751,23.7271033 L121.280749,20.9786494 C123.421218,15.8436257 125.636046,10.5456407 128.601193,7.90103832 C131.178578,5.33083774 134.681468,4.59186148 138.010432,5.94751951 C141.901926,7.53264248 146.06061,12.3941316 146.06061,21.2837344 C146.06061,33.1669683 142.301872,39.8648071 138.4171,44.3066467 Z" id="path34" fill="#15569C"></path>
                        <path d="M39.0752914,33.809781 C38.685722,33.726935 38.2434285,33.6324099 38.0670237,33.5959442 C38.0670237,34.596692 38.0670237,45.5379938 38.0670237,46.2349588 C38.7119789,47.1146725 39.3216028,47.8494476 39.9837827,47.9653984 C40.0116781,47.9708599 40.1477522,47.9834632 40.2283296,47.9128845 C40.3005048,47.8515482 40.3781414,47.6746812 40.3781414,47.3637986 C40.3781414,47.3637986 40.3781414,35.425068 40.3781414,34.40092 C40.3723859,34.3987775 40.184512,34.3584047 40.184512,34.3584047 C40.184512,34.3584047 39.1835962,33.8631352 39.0752914,33.809781 Z M49.6735721,49.3996593 C49.6735721,52.2127264 48.9614829,54.2960597 47.5583103,55.5891631 C46.4093052,56.6474241 44.8737974,57.1070262 42.9937981,56.9545257 C41.0335575,56.7772386 39.5037632,55.6437776 38.117269,54.2418653 C38.117269,54.5892976 38.117269,57.7111466 38.117269,57.7111466 L36.2019803,56.6894353 L34.2249773,55.634115 C34.2369505,55.6391564 32.2091139,54.5850964 32.2091139,54.5850964 C32.1772695,54.5674518 30.1503992,53.4369315 30.1503992,53.4369315 C30.175984,53.4533159 28.1607508,52.4538704 28.1607508,52.4538704 L27.4375707,52.0955153 L27.5055028,51.3233502 L27.5055028,44.3747048 C27.5055028,44.3747048 28.1560035,44.9569795 28.7722232,45.5085859 C28.7722232,44.4499048 28.7722232,31.2684421 28.7722232,30.0565043 C28.7471005,30.0439009 28.718743,30.0304153 28.6905115,30.017812 L28.6905115,31.264325 C28.6905115,31.264325 26.6664139,30.138426 26.5827277,30.0908274 C26.0441447,31.5210132 25.2111054,33.7303799 25.2111054,33.7303799 C25.2213142,33.7026106 23.3974418,38.9014913 23.3974418,38.9014913 C23.4038275,38.88183 21.579451,44.3822668 21.579451,44.3822668 C21.5858787,44.364202 20.3870483,48.2338497 19.9674409,49.5895497 C20.2758027,50.2134154 21.0037721,51.6850663 21.0037721,51.6850663 C21.0057466,51.6850663 22.2977577,54.0515547 22.2977577,54.0515547 C22.3070842,54.0691994 23.5728384,56.4776991 23.5738466,56.48106 C23.5744768,56.4802197 24.1317968,57.4368138 24.5140143,58.0934482 C24.5824505,58.1056314 24.6055566,58.1098325 24.6700858,58.1215956 C24.7882211,58.1215956 26.6633051,58.1215956 26.6633051,58.1215956 L26.6633051,65.4004487 L25.3614634,65.4004487 L23.2827093,65.4004487 C23.2348166,65.3975079 21.2074422,65.3231482 21.2074422,65.3231482 L19.2286326,65.3244085 C19.181034,65.3231482 15.8986183,65.201736 15.8986183,65.201736 L15.8986183,57.136434 C15.8986183,57.136434 16.2168108,57.2036519 16.5026547,57.2654083 C16.2983544,56.8902486 16.0059148,56.353346 16.0059148,56.353346 C15.9775152,56.2978913 14.304631,52.8294502 14.304631,52.8294502 C14.3003878,52.8197876 13.8635138,51.8736964 13.4352101,50.9494509 C13.4352101,51.1473235 13.4352101,56.1315271 13.4352101,57.1103871 C13.5369611,57.125091 13.5833834,57.1313927 13.6482066,57.1414753 C13.7753744,57.1414753 15.3614636,57.1414753 15.3614636,57.1414753 L15.3614636,65.2832376 L8.24632802,65.0983885 L5.44275546,65.0983885 C5.40944061,65.0983885 1.3016905,64.9891595 1.3016905,64.9891595 L1.3016905,55.8601351 C1.3016905,55.8601351 2.97097862,55.8601351 2.97524275,55.8601351 C2.97524275,53.6150588 2.97524275,16.0512028 2.97524275,14.9635339 C2.90041248,14.8972403 2.54249422,14.5644279 2.53445329,14.5560257 C2.53133606,14.5560257 2.13025974,14.2253559 2.13025974,14.2253559 L2.06658763,14.172842 L1.3016905,13.3603882 L1.3016905,3.10505302 L6.35633008,8.0704273 C6.31742775,8.03593614 9.15402108,10.5968102 9.15402108,10.5968102 C9.10314557,10.5531607 11.9896061,12.8860822 11.9896061,12.8860822 C11.9569215,12.862472 14.8448524,15.0462119 14.8448524,15.0462119 L15.3614636,15.4377979 L15.3614636,23.8774192 C15.3614636,23.8774192 13.5157875,22.7792476 13.4352101,22.7326152 C13.4352101,23.3482047 13.4352101,30.3496161 13.4352101,31.0656123 C13.5042764,30.8184606 13.5618737,30.6134882 13.5618737,30.6134882 L14.3623963,27.6206974 C14.3809652,27.5483121 15.6985611,23.1018513 15.6985611,23.1018513 C15.7001996,23.096936 17.5171821,17.0716118 17.5171821,17.0716118 L21.1984098,19.436882 C21.1770681,19.422136 23.5080151,20.8542544 23.5080151,20.8542544 C23.4770109,20.8353914 25.702804,22.1145891 25.7047365,22.1159334 C25.7070471,22.1159334 26.7935817,22.6780007 27.6551465,23.1228569 L31.7070806,25.0877187 C31.6773787,25.0744431 34.0071915,26.1284611 34.0071915,26.1284611 C33.9763553,26.1142193 36.3035633,27.0929112 36.3055378,27.0937514 C36.3066721,27.0929112 39.4862025,28.3020763 39.4862025,28.3020763 L39.4862025,28.3079579 C39.9824803,28.4725576 43.0000998,29.4691883 43.00094,29.4713308 C43.0043009,29.4713308 47.6183863,30.8130412 47.6196466,30.8143435 C47.6234276,30.8143435 50.9402084,31.6516259 50.9402084,31.6516259 L50.9402084,37.0622008 C50.9402084,37.0622008 50.0701574,36.8782339 49.6735721,36.7942116 C49.6735721,37.7701728 49.6735721,49.3996593 49.6735721,49.3996593 Z" id="path36" fill="#FFFFFF"></path>
                        <path d="M93.513895,37.1785717 C93.513895,38.1175631 93.513895,47.8381046 93.513895,48.49852 C93.8953563,49.0177779 94.3074857,49.3589085 94.6116465,49.3160571 C95.2426541,49.2332951 95.7736751,49.1635566 95.7736751,47.0621585 C95.7736751,47.0621585 95.7736751,37.386989 95.7736751,36.6887216 C95.6245355,36.7190537 95.3224753,36.7829106 94.9321916,36.8664288 C94.9321916,36.8707139 94.9321916,36.9168002 94.9321916,36.9168002 C94.9321916,36.9168002 93.5924558,37.164792 93.513895,37.1785717 Z M105.069484,34.2280861 C105.069484,35.3494479 105.069484,48.5707792 105.069484,48.5707792 C105.069484,52.5030235 103.447853,56.8289123 98.8997253,57.1792854 C96.6743943,57.3006976 95.0456217,56.5293728 93.513895,55.3534805 C93.513895,56.0017127 93.513895,59.9495011 93.513895,60.5754673 C93.5399419,60.5830293 93.5676692,60.5876506 93.5676692,60.5876506 L94.8301045,61.1253934 L94.8301045,67.0372034 L93.0240449,66.2780618 L86.0296073,63.338121 C86.062376,63.3503043 83.7324372,62.4462242 83.7324372,62.4462242 L82.9010364,62.1244187 L82.9010364,61.1031275 L80.1686308,61.4060279 L80.098052,61.4060279 C77.6168731,61.4060279 76.3704021,60.4885042 75.7952693,58.239647 C75.7990503,58.254771 75.6978034,57.8787712 75.6978034,57.8787712 L75.6910817,57.8544047 C75.6910817,57.8544047 75.6894012,57.8317187 75.6894012,57.8275175 C74.8949702,57.9884203 73.9446779,58.1636068 72.5452862,58.1636068 C67.988336,58.1636068 63.0843736,54.9493332 63.0843736,47.892299 C63.0843736,44.2839607 64.8916936,41.8296689 67.2262536,40.4688855 C65.9365111,39.9568956 64.6530702,39.4850682 63.3708897,39.1207475 L62.8167626,38.9624074 C62.5676364,38.9090533 62.2063404,38.8312906 61.9383093,38.7757939 C61.9383093,40.2219019 61.9383093,58.5841385 61.9383093,58.5841385 L61.7786669,58.5244826 C62.0387159,59.1046567 62.1916365,59.7558297 62.1916365,60.4788417 C62.1916365,61.6862423 61.7534602,64.4959485 57.6960226,64.4959485 C55.3387766,64.4959485 52.4912604,62.1664299 52.4912604,59.2731215 C52.4912604,57.6157813 53.1218478,56.6684297 53.6516085,56.1668165 C53.8671258,55.9618021 54.112891,55.8025798 54.3704194,55.6664636 C53.0105183,55.0959521 51.3767044,54.41033 51.3767044,54.41033 L51.3767044,48.8081422 C51.3767044,48.8081422 52.1413074,49.187503 52.6941743,49.4614157 C52.6941743,48.5258272 52.6941743,38.5667464 52.6941743,37.4348818 C52.674429,37.4348818 51.3258709,37.4348818 51.3258709,37.4348818 L51.3258709,31.7587963 L55.1610694,32.5187782 C55.1656906,32.5187782 57.4015244,32.8904509 57.4015244,32.8904509 L59.7281023,33.2639721 C59.6499615,33.256116 61.929907,33.4807497 61.929907,33.4807497 L63.1041189,33.5971206 L63.1041189,36.622386 L63.3284585,36.3795195 C63.3671087,36.3409532 63.9628269,35.7493521 63.9729096,35.7401517 C63.9729096,35.7367068 64.5320781,35.1133032 64.5320781,35.1133032 C64.5669474,35.0755352 65.7474609,33.8596903 65.7474609,33.8596903 L66.4734137,34.0408424 C66.6914516,34.0945327 66.9145308,34.0858363 67.1304682,34.1160004 C66.6141511,33.361438 66.2263881,32.517938 66.2263881,31.5369354 C66.2263881,29.0170642 67.5774669,26.0121322 74.0165169,26.0121322 C78.0991612,26.0121322 82.8707884,27.7554271 82.8707884,32.6674557 C82.8707884,34.9255554 81.7301855,37.6411566 77.1992822,39.23548 C80.421538,40.5327425 83.4278564,42.8160909 83.4278564,48.1926788 C83.4278564,50.8906353 82.5523438,52.6420804 81.6465833,53.8814096 C81.7902614,54.6082026 81.9377206,55.3501196 81.9377206,55.3501196 L82.1406345,56.4802197 C82.1376937,56.4646756 82.3389272,57.520416 82.3389272,57.520416 C82.3431283,57.5363802 82.5401606,58.6324513 82.5447818,58.6593385 C82.5464623,58.6702614 82.7623996,59.7965805 82.9010364,60.5128707 L82.9010364,56.4957639 C82.9010364,56.4957639 83.6656395,56.8747045 84.2189264,57.1490374 C84.2189264,55.5429508 84.2189264,40.1554403 84.2189264,38.5675446 C84.1966605,38.5675446 82.8502029,38.5675446 82.8502029,38.5675446 L82.8502029,33.482052 L86.3161234,33.0325746 C86.2833547,33.0366917 88.6628666,32.661196 88.6628666,32.661196 C88.6258968,32.6674557 91.0041484,32.2163399 91.0041484,32.2163399 C91.0041484,32.2163399 93.9016579,31.6662458 94.3549583,31.5813832 C94.3549583,31.561722 94.3549583,31.4760192 94.3549583,31.4760192 C94.3549583,31.4760192 97.6952654,30.7193563 97.7003068,30.7193563 C97.7003068,30.7172137 99.956726,30.059487 99.956726,30.059487 C99.956726,30.059487 102.279523,29.3855021 102.285404,29.3822252 C102.285404,29.37794 104.570811,28.5104937 104.570811,28.5104937 L106.33528,27.8412559 L106.33528,33.6245118 L105.162328,34.2084249 C105.162328,34.2084249 105.113596,34.2167851 105.069484,34.2280861 Z" id="path38" fill="#FFFFFF"></path>
                        <path d="M133.209397,47.6381315 C130.596723,50.0079809 128.707902,51.7199355 128.707902,54.176748 C128.707902,55.0257935 129.027186,55.5769799 129.248585,55.822325 C130.755105,55.1589688 132.820374,50.1714043 134.12356,46.7920268 C133.818979,47.0726613 133.503895,47.3709405 133.209397,47.6381315 Z M133.997947,18.4243711 C131.079431,21.071074 128.265104,28.9548877 126.318727,34.5727036 C127.245913,33.101851 128.196626,31.7209023 129.095244,30.4220013 C131.783959,26.5367675 134.105915,23.1812944 134.105915,19.8629171 C134.105915,19.1708673 134.055082,18.7353376 133.997947,18.4243711 Z M136.981579,43.9781195 C137.107612,44.4524255 138.214606,48.5917848 138.214606,48.5917848 C138.219648,48.6073289 139.102302,52.079551 139.102302,52.079551 C139.103983,52.0841723 140.032849,55.7983787 140.032849,55.7983787 C140.026127,55.7719116 140.29794,56.7427895 140.29794,56.7427895 L141.133121,59.9221938 L140.923486,60.295673 L140.437417,61.345952 C140.398766,61.4232525 139.876148,62.3748052 139.869006,62.3861482 C139.869006,62.3937102 139.420327,63.3645881 139.420327,63.3645881 L139.390499,63.428445 L137.463027,66.6284348 L136.528699,64.0699554 C136.528699,64.0699554 136.304779,63.4544919 136.278312,63.3834931 C134.936896,65.0072243 133.271153,66.3793087 131.342001,66.3793087 C126.226723,66.3793087 120.724101,61.8463048 120.724101,51.8968025 C120.724101,46.4664403 122.296159,41.9514172 124.332019,38.0507653 C123.940896,37.0651836 122.655354,33.8294843 122.655354,33.8294843 L122.493611,33.4513839 C122.481848,33.4231524 121.557183,31.0915331 121.552981,31.083677 C121.551301,31.0857776 120.971127,29.8577915 120.877862,29.6573983 C120.844673,29.6082032 120.64554,29.2922793 120.420781,28.9394696 C120.370787,29.1061699 120.319534,29.2721139 120.319534,29.2721139 L119.658278,31.4822789 L118.250484,30.721961 C117.948424,30.5588317 117.794243,30.6094131 117.674932,30.6684808 C117.585028,30.7085174 116.928813,31.083677 116.928813,32.3650173 C116.928813,32.3650173 116.928813,46.05095 116.928813,47.2381853 C117.115343,47.1949138 117.313636,47.1499619 117.313636,47.1499619 C117.333801,47.1449205 119.486033,46.6895196 119.486033,46.6895196 L119.710792,49.3652102 C119.709952,49.3517666 119.801536,50.3045796 119.809518,50.3793595 C119.811619,50.3818802 119.832204,50.4982511 119.832204,50.4982511 L119.969161,51.6602797 L119.947315,51.4149345 L120.377089,53.6671527 L118.23536,54.2292619 C118.23536,54.2292619 117.351025,54.3120239 117.32876,54.3141245 C117.32876,54.316225 117.125426,54.3548753 116.928813,54.3901647 C116.928813,54.4237736 116.928813,55.5055609 116.928813,55.5055609 C116.928813,57.1343335 117.059048,59.5545962 117.277086,60.7859432 L117.485461,61.9605752 C117.485461,61.9605752 115.966758,62.3697639 115.853748,62.400432 C115.743679,62.4453839 114.739192,62.852472 114.739192,62.852472 L112.846169,63.3662685 L112.507559,62.1050936 C111.470304,58.2556112 109.08281,55.0257935 106.827651,54.4258742 L105.859294,54.1696061 L105.859294,49.2219521 L107.328424,48.9476193 C107.344808,48.9450986 107.498149,48.9207321 107.634265,48.8963657 C107.634265,47.7750879 107.634265,34.4752378 107.634265,34.4752378 C107.634265,29.1288139 109.293286,25.9952437 113.012533,24.3182423 C116.04952,22.8465075 118.7605,24.3269386 120.53169,25.5718132 L120.659404,25.661255 L122.483529,21.4803466 C124.578205,16.4532916 126.74514,11.2552091 129.508214,8.82528377 C131.63776,6.63940126 134.659202,5.98906855 137.518061,7.15487816 C141.018431,8.58027471 144.758264,13.0401791 144.758264,21.2837344 C144.758264,33.2828351 140.947012,39.6639518 136.981579,43.9781195 Z" id="path40" fill="#FFFFFF"></path>
                        <path d="M14.0591178,16.085988 L14.0591178,21.5883153 L13.5513709,21.2853729 L13.0448004,20.9840688 L12.5893994,20.608111 L12.1330322,20.3056727 L12.1330322,24.0745356 L12.1330322,27.8423902 L12.1330322,31.5369354 L12.1330322,35.3057983 L12.3360301,35.831736 L12.5385239,36.3598163 L12.7914311,36.8874344 L13.0448004,37.4160188 L14.3634046,32.5922977 C14.767888,31.0844753 15.2751727,29.4258748 15.630125,27.9177162 L16.9475528,23.4715915 L18.2656529,19.0994903 L20.4953531,20.5321128 L22.8273084,21.9651134 L25.0567144,23.2459495 L27.3886697,24.4513337 L27.3886697,25.657474 L27.3886697,26.7880362 L27.3886697,27.9177162 L27.3886697,29.0494128 L26.9825059,28.8221324 L26.6283518,28.6721106 L26.222524,28.4461326 L25.8682019,28.2953545 L23.9921517,33.2703578 L22.1679433,38.4704148 L20.3432307,43.9734983 L18.5702338,49.7000391 L19.8369962,52.2644001 L21.15392,54.6762606 L22.4211445,57.087281 L23.7387824,59.3487415 L24.1449463,59.3487415 L24.5507741,59.4239415 L24.9552995,59.4239415 L25.3614634,59.4239415 L25.3614634,60.6296617 L25.3614634,61.760182 L25.3614634,62.9663223 L25.3614634,64.0964224 L23.2827093,64.0964224 L21.2560071,64.0216425 L19.2286326,64.0216425 L17.2014263,63.9460225 L17.2014263,62.7390419 L17.2014263,61.383762 L17.2014263,60.1020016 L17.2014263,58.7454613 L17.5559164,58.8198211 L18.0116114,58.8198211 L18.4686508,58.8962814 L18.8733443,58.8962814 L17.1507188,55.7303206 L15.4783387,52.2644001 L13.8054124,48.6451389 L12.1330322,44.8784186 L12.1330322,48.2691391 L12.1330322,51.5859199 L12.1330322,54.9770605 L12.1330322,58.2930012 L12.5893994,58.3686212 L13.0448004,58.3686212 L13.5513709,58.4438212 L14.0591178,58.4438212 L14.0591178,59.8751413 L14.0591178,61.2337822 L14.0591178,62.5899023 L14.0591178,63.9460225 L11.1703886,63.8725029 L8.28144935,63.7943622 L5.44275546,63.7943622 L2.6045279,63.7204226 L2.6045279,62.1374422 L2.6045279,60.4040618 L2.6045279,58.8198211 L2.6045279,57.162901 L2.95948857,57.162901 L3.41603221,57.2393613 L3.82120882,57.313301 L4.27757602,57.388501 L4.27757602,46.6861587 L4.27757602,35.9065579 L4.27757602,25.1297298 L4.27757602,14.3522296 L3.82120882,13.9749274 L3.41603221,13.5986335 L2.95948857,13.2213733 L2.6045279,12.8436089 L2.6045279,11.2614688 L2.6045279,9.5268701 L2.6045279,7.94519204 L2.6045279,6.2114336 L5.44275546,8.99925198 L8.28144935,11.5619326 L11.1703886,13.8994754 L14.0591178,16.085988" id="path42" fill="#A80C30"></path>
                        <path d="M38.1832265,29.1990565 L38.1832265,32.2906576 L37.8289044,32.2149955 L37.4227405,32.0645115 L37.0692587,31.9890175 L36.7646778,31.8372312 L36.7646778,35.6069343 L36.7646778,39.2992949 L36.7646778,42.9925377 L36.7646778,46.6861587 C37.6262426,47.892299 38.4873033,49.0232393 39.7546959,49.2488393 C40.7171715,49.3996593 41.6798151,48.795959 41.6798151,47.3637986 L41.6798151,43.8974581 L41.6798151,40.4303193 L41.6798151,36.9638947 L41.6798151,33.4211778 L41.3259972,33.3458518 L40.9705408,33.1938975 L40.6162607,33.1182354 L40.312646,32.9690958 L40.312646,32.2906576 L40.312646,31.5369354 L40.312646,30.7828352 L40.312646,29.9534509 L42.5934318,30.7076772 L44.9246309,31.3852751 L47.2562501,32.0645115 L49.6374425,32.6674557 L49.6374425,33.4211778 L49.6374425,34.0987758 L49.6374425,34.8520358 L49.6374425,35.455274 L49.2837085,35.3796119 L48.9787075,35.3796119 L48.6241334,35.3057983 L48.3712262,35.2301362 L48.3712262,38.7720129 L48.3712262,42.3144777 L48.3712262,45.9324785 L48.3712262,49.3996593 C48.3712262,51.96276 47.711651,56.0319607 43.1000863,55.6551206 C40.5660573,55.4291006 38.6904692,53.0920199 36.8155533,50.8309794 L36.8155533,51.8871399 L36.8155533,52.9424602 L36.8155533,53.9969402 L36.8155533,55.5408503 L34.8385923,54.4846898 L32.8105457,53.4293695 L30.7838434,52.2996895 C30.1252765,51.9984695 29.4662475,51.6997702 28.8073445,51.3233502 L28.8073445,49.8512793 L28.8073445,48.9476193 L28.8073445,48.1174788 L28.8073445,47.2894389 L29.0607138,47.5167193 L29.3648326,47.6658589 C29.4662475,47.6658589 29.6689093,47.892299 29.7196168,47.9679191 L30.0740649,48.1174788 L30.0740649,43.3689577 L30.0740649,38.6208987 L30.0740649,33.948796 L30.0740649,29.1250749 L29.7196168,29.0494128 L29.3648326,28.8985927 L29.0607138,28.7477727 L28.8073445,28.5969526 L28.8073445,27.7677364 L28.8073445,26.8644965 L28.8073445,26.0342721 L28.8073445,25.1297298 L31.1386276,26.2602501 L33.470751,27.3156123 L35.80153,28.2953545 L38.1832265,29.1990565" id="path44" fill="#A80C30"></path>
                        <polyline id="path46" fill="#A80C30" points="61.801773 34.7780122 61.801773 37.4160188 61.4467787 37.3395585 60.8892907 37.3395585 60.6359634 37.2655348 60.6359634 42.1640777 60.6359634 46.9877988 60.6359634 51.8110997 60.6359634 56.7104409 58.608505 55.9576009 56.6323001 55.2026604 54.6552551 54.3737803 52.6786301 53.5436399 52.6786301 52.9424602 52.6786301 52.2644001 52.6786301 51.6602797 52.6786301 50.9053392 52.9819507 51.0574196 53.3373651 51.2078195 53.6411057 51.2834396 53.9965201 51.3582195 53.9965201 47.591079 53.9965201 43.8209978 53.9965201 40.1286792 53.9965201 36.2846583 53.6411057 36.2846583 53.2873718 36.2090382 52.9819507 36.1333761 52.6277966 36.1333761 52.6277966 35.455274 52.6277966 34.7780122 52.6277966 34.0987758 52.6277966 33.3458518 54.9090025 33.7971357 57.1902083 34.1739337 59.5205672 34.5507318 61.801773 34.7780122"></polyline>
                        <path d="M53.7940263,59.2731215 C53.7940263,57.388501 54.8073355,56.4844209 56.2264723,56.5596208 C58.0505968,56.6348208 60.8892907,57.6914014 60.8892907,60.4788417 C60.8892907,62.7390419 59.2672399,63.1915021 57.6960226,63.1915021 C56.1256456,63.1915021 53.7940263,61.4581217 53.7940263,59.2731215" id="path48" fill="#A80C30"></path>
                        <path d="M81.2630214,58.8962814 L81.0613679,57.765341 L80.8580339,56.7104409 L80.6542798,55.5807609 C80.2505525,56.1071607 79.996385,56.4088008 79.33723,56.4844209 C78.9318223,56.4844209 78.678495,56.0319607 78.678495,55.5055609 C78.678495,54.6762606 82.1255105,53.2441003 82.1255105,48.1926788 C82.1255105,41.3343994 76.8026969,40.3546572 72.394046,39.0733169 L72.394046,38.9993352 C75.4352337,38.6208987 81.5676023,37.4903785 81.5676023,32.6674557 C81.5676023,27.9928742 76.246049,27.3156123 74.0165169,27.3156123 C70.8228288,27.3156123 67.5287339,28.0693765 67.5287339,31.5369354 C67.5287339,33.5719979 69.5053589,35.078476 71.0761561,35.2301362 L71.0761561,35.3057983 C68.9978641,35.5309361 67.6803942,35.6825544 66.1600104,35.3057983 L65.5016956,35.9838584 L64.8929539,36.6614564 L64.2850525,37.2655348 L63.7275644,37.8684789 C66.1095971,38.5447325 68.4407962,39.5252729 70.7211618,40.5063175 L70.7211618,40.5819375 C67.5287339,41.0330954 64.3858793,43.445418 64.3858793,47.892299 C64.3858793,54.1486005 68.5932967,56.8621012 72.5452862,56.8621012 C74.5219112,56.8621012 75.586894,56.4844209 76.6010433,56.3331807 L76.70145,56.7104409 L76.8026969,57.162901 C76.8026969,57.2393613 76.9547773,57.388501 76.9547773,57.5384808 L77.0564443,57.9161611 C77.4626922,59.5004018 78.1218472,60.1020016 80.098052,60.1020016 L81.4655152,59.9516016 L81.2630214,58.8962814" id="path50" fill="#A80C30"></path>
                        <path d="M72.2927992,54.1486005 C75.0289858,54.1486005 76.144382,47.7406387 76.144382,45.4791781 C76.144382,43.445418 75.586894,42.6161178 74.269004,42.6161178 C71.5319771,42.6161178 70.3674278,49.0232393 70.3674278,51.3582195 C70.3674278,53.39366 70.9249159,54.1486005 72.2927992,54.1486005" id="path52" fill="#FFFFFF"></path>
                        <path d="M72.7620638,52.4685743 C74.4378888,52.4685743 75.1197299,47.8179392 75.1197299,46.1769835 C75.1197299,44.6994511 74.7790194,44.0982714 73.9728253,44.0982714 C72.2957399,44.0982714 71.5823905,48.7476462 71.5823905,50.4427963 C71.5823905,51.9207489 71.9239412,52.4685743 72.7620638,52.4685743" id="path54" fill="#15569C"></path>
                        <path d="M73.3569418,34.4752378 C74.6239983,33.5719979 75.586894,32.8934337 75.586894,30.9336552 C75.586894,29.8795953 75.0798193,29.3510109 74.1685973,29.3510109 C73.154448,29.3510109 72.6982068,30.5558909 72.6982068,31.6120934 C72.6982068,32.5922977 72.8498671,33.6458535 73.3569418,34.4752378" id="path56" fill="#FFFFFF"></path>
                        <path d="M93.6302659,33.0442537 L93.6302659,35.831736 L93.2248582,35.9065579 L92.8690237,35.9838584 L92.5136093,36.0590164 L92.2107089,36.1333761 L92.2107089,39.2992949 L92.2107089,42.5396575 L92.2107089,45.7820786 L92.2107089,48.9476193 C92.8186103,49.9273194 93.7310926,50.7553594 94.7956554,50.6049594 C96.5185329,50.3785193 97.0756009,49.2488393 97.0756009,47.0621585 L97.0756009,44.1234781 L97.0756009,41.1084214 L97.0756009,38.0931126 L97.0756009,35.078476 L96.7218669,35.1557765 L96.3160391,35.2301362 L96.0122985,35.3057983 L95.6568841,35.3796119 L95.6568841,34.7017199 L95.6568841,33.948796 L95.6568841,33.2703578 L95.6568841,32.5157954 L97.9885033,31.9890175 L100.320543,31.3109574 L102.652162,30.6323512 L105.034194,29.7274729 L105.034194,30.5558909 L105.034194,31.3109574 L105.034194,32.0645115 L105.034194,32.8174355 L104.730034,32.9690958 L104.374199,33.0442537 L104.070879,33.1182354 L103.765878,33.1938975 L103.765878,37.1134124 L103.765878,40.9587356 L103.765878,44.725498 L103.765878,48.5707792 C103.765878,51.5859199 102.702995,55.5807609 98.7997387,55.8811406 C96.0122985,56.0319607 94.2890008,54.5246004 92.2107089,52.4891598 L92.2107089,54.7506204 L92.2107089,57.012081 L92.2107089,59.2731215 L92.2107089,61.4581217 L92.5136093,61.609782 L92.8186103,61.760182 L93.1740247,61.8349618 L93.5294391,61.9866221 L93.5294391,62.814662 L93.5294391,63.5696025 L93.5294391,64.3232827 L93.5294391,65.0769628 L91.1973998,64.0964224 L88.8657805,63.1175624 L86.5341613,62.1374422 L84.2025421,61.2337822 L84.2025421,60.6296617 L84.2025421,59.9516016 L84.2025421,59.2731215 L84.2025421,58.5954815 L84.507123,58.7454613 C84.6092101,58.6702614 84.7612905,58.8198211 84.8108636,58.8198211 L85.1658579,58.9719015 L85.5204321,59.0466813 L85.5204321,53.6209404 L85.5204321,48.1174788 L85.5204321,42.6917379 L85.5204321,37.1134124 L85.1658579,37.1878982 L84.8108636,37.1878982 L84.4567096,37.2655348 L84.1517086,37.2655348 L84.1517086,36.6614564 L84.1517086,35.9838584 L84.1517086,35.3057983 L84.1517086,34.626856 L86.4833278,34.3260561 L88.8657805,33.948796 L91.2482333,33.4955376 L93.6302659,33.0442537" id="path58" fill="#A80C30"></path>
                        <path d="M108.935771,34.4752378 C108.935771,29.8795953 110.203247,27.0140142 113.548596,25.5066959 C115.879795,24.3761337 117.958087,25.3550357 119.781371,26.6375523 L119.528464,27.3912744 L119.275557,28.2201546 L119.072643,28.8985927 L118.869729,29.577157 C118.312661,29.2755589 117.703919,29.1990565 117.096858,29.5014949 C116.53937,29.7274729 115.626467,30.6323512 115.626467,32.3650173 L115.626467,36.5119807 L115.626467,40.6562973 L115.626467,44.725498 L115.626467,48.795959 L116.285623,48.7211791 L116.943937,48.5707792 L117.602252,48.4199591 L118.312661,48.2691391 L118.414328,49.4744392 L118.515155,50.5297594 C118.566408,50.8309794 118.668075,51.2834396 118.668075,51.6602797 L118.869729,52.7155999 L118.00808,52.9424602 L117.196424,53.0168199 L116.386869,53.16764 L115.626467,53.2441003 L115.626467,53.8461202 L115.626467,54.3737803 L115.626467,54.9770605 L115.626467,55.5055609 C115.626467,57.012081 115.741158,59.5810632 115.994485,61.0128035 L115.435737,61.1636235 L114.879509,61.3896436 L114.322441,61.6160837 L113.764533,61.7669037 C112.649977,57.6212428 110.000753,53.9213202 107.16248,53.16764 L107.16248,52.4891598 L107.16248,51.8110997 L107.16248,51.0574196 L107.16248,50.3045796 L107.567887,50.2289596 L108.024129,50.1524993 L108.479529,50.1524993 L108.935771,50.0020993 L108.935771,46.1580784 L108.935771,42.3144777 L108.935771,38.3949207 L108.935771,34.4752378" id="path60" fill="#A80C30"></path>
                        <path d="M137.752064,63.6229567 L137.487393,62.8961636 L137.265994,62.008888 L137.045016,61.2014336 L136.823197,60.3922987 C135.232234,63.0574865 133.242166,65.0769628 131.342001,65.0769628 C126.699348,65.0769628 122.025607,60.6968796 122.025607,51.8968025 C122.025607,36.2341189 135.409101,28.5826688 135.409101,19.8629171 C135.409101,16.6321331 134.436963,16.228952 133.375761,17.1984855 C129.925805,19.9423182 126.875795,28.9855558 124.665168,35.3641938 C124.399237,34.5566554 124.001392,33.6681614 123.69219,32.9429648 L122.764163,30.6005487 L122.020566,29.0284072 L121.184544,27.7122817 C124.058947,21.737833 126.787151,12.9524178 130.367762,9.80418575 C135.099059,4.95945911 143.455498,9.49536173 143.455498,21.2837344 C143.455498,45.5064854 127.405976,45.9408807 127.405976,54.176748 C127.405976,55.9533998 128.466758,57.3263244 129.174225,57.2452429 C131.783538,56.8419358 134.215564,50.2197171 136.028346,45.4564921 L136.956792,48.9287142 L137.840287,52.4013565 L138.768313,56.1134623 C139.078776,57.2452429 139.476622,58.537086 139.741292,59.7482676 L139.256063,60.7985466 L138.724622,61.7669037 L138.239393,62.8159223 L137.752064,63.6229567" id="path62" fill="#A80C30"></path>
                    </g>
                </g>
            </g>
        </g>
    </g>
</svg>