<svg width="200" height="200" xmlns="http://www.w3.org/2000/svg"><g fill-rule="nonzero" fill="none"><path fill="#BDBCBC" d="m0 27.31 2.759-14.55L197.41 27.39 182.907 90.5l-28.54-20.573H94.42l-4.67 20.34h61.628l-8.167 35.474H81.33l-15.043 62.882H3.095L33.475 56.33 0 27.31"/><path fill="#231F20" d="m2.565 12.785 197.408.08-14.508 63.108-28.531-20.564H97.771l-4.676 20.323h61.625l-8.16 35.487H84.87l-15.043 62.877H5.647L36.04 41.787 2.565 12.785"/><path fill="#E11535" d="m18.537 163.844 28.886-125.77-17.346-15.023 157.025.072-8.17 35.496-18.693-13.47H89.602l-9.389 40.85h61.626l-3.438 14.97H76.776l-15.043 62.875H18.537"/></g></svg>