<svg width="200" height="200" xmlns="http://www.w3.org/2000/svg"><g fill="none"><path d="M144.511 25.06s-1.303-5.036-4.287-8.48c-2.985-3.444-5.05-5.28-9.413-6.429a205.07 205.07 0 0 1-8.037-2.295s-4.133-5.05-6.43-6.2c-1.836 1.378-4.36 6.658-5.51 10.103-1.146-2.296-.229-6.199.46-7.577-2.296-.23-12.473 2.051-17.18 4.576-4.063 2.18-7.158 6.905-6.698 10.578.459 3.674 2.526 7.347 4.362 8.036-.688 1.148-2.525 5.51-2.525 5.51l-14.006 5.281-5.97-3.444-11.25 10.79 5.05 6.889s-1.607 2.756-.917 4.822c.69 2.066 3.214 3.444 4.362 4.362 1.148.918 1.635 3.865 2.91 4.92 2.335 1.938 6.044 2.197 8.34 1.05l5.511-2.755 11.71.229.459 2.526s-9.414 5.05-14.236 10.102c-4.821 5.05-15.688 16.516-20.968 38.327-2.756 1.607-3.445 4.355-3.445 7.578 0 2.066.962 3.825 1.838 5.052 1.148 1.605-3.293 4.697-5.435 5.984-2.433 1.46-4.363 5.113-4.363 9.415 0 2.525 1.073 6.413 3.828 8.007h94.595s4.438-3.646 4.208-8.698c-.147-3.219-1.223-5.756-3.673-8.265-2.449-2.508-5.969-4.607-5.05-6.674 1.377-.69 2.221-4.321 2.22-6.214 0-3.198-2.757-5.955-5.053-6.644 2.526-.688 11.022-7.46 13.318-15.268-1.332.485-2.541.869-5.051.459-2.248-.367-4.708-.804-5.51-1.606 4.476-.805 7.462-2.297 10.56-6.66 2.612-3.329 4.306-7.576 4.823-11.479-1.895.63-2.756.803-5.051.574-2.412-.345-4.479-.46-5.741-2.067 4.476-.115 6.327-1.484 8.265-4.477 1.885-2.911 2.186-8.078 2.527-11.135-5.051.114-8.725-.575-11.021-3.675 2.522-.03 4.013-2.246 5.625-5.395 1.36-2.653 1.977-6.567 1.32-9.586-1.124.433-1.972.707-2.888.725-.909.02-4.517-.093-5.55-1.24 1.607 0 3.1-.23 4.133-.345.918-.23 1.664-.885 2.142-1.707-1.837-1.378-4.553-4.378-5.931-9.658-1.377-5.282-3.099-7.003-4.477-8.151l3.1.23" fill="#FFF"/><path d="M111.924 12.122c1.063-3.19 3.099-7.347 4.572-9.021 1.777 1.28 4.413 4.29 5.389 5.482l.228.278 8.405 2.4c3.99 1.052 5.873 2.65 8.84 6.072 1.788 2.064 2.94 4.774 3.54 6.457l-4.97-.368 2.748 2.29c1.317 1.098 2.828 2.678 4.102 7.56 1.33 5.099 3.83 8.05 5.443 9.517a2.059 2.059 0 0 1-.8.432l-.528.063-5.67.44 1.468 1.735c1.51 1.68 5.929 1.632 6.428 1.62.623-.012 1.232-.144 1.87-.329.033.369.109.712.109 1.098 0 2.194-.522 4.593-1.458 6.422-1.538 3.005-2.787 4.749-4.618 4.77l-2.244.028 1.335 1.804c2.555 3.448 6.562 4.124 10.67 4.147-.303 2.99-.722 7.049-2.215 9.356-1.714 2.647-3.18 3.846-7.332 3.954l-2.285.058 1.411 1.798c1.421 1.807 3.528 2.093 5.757 2.393l.725.1c1.62.163 2.629.134 3.714-.095-.725 3.298-2.188 6.558-4.226 9.156-3.064 4.311-5.825 5.512-9.86 6.237l-2.163.388 1.554 1.555c1.026 1.025 3.286 1.463 6.136 1.927 1.43.234 2.444.191 3.358.055-2.944 6.732-9.988 12.037-11.74 12.515l-3.87 1.055 3.842 1.152c1.73.518 4.233 2.79 4.234 5.543v.001c0 2.081-.946 4.867-1.585 5.186l-.368.184-.168.376c-.178.4-.258.79-.258 1.17 0 1.807 1.813 3.406 3.578 4.961l1.957 1.812c2.21 2.264 3.211 4.512 3.349 7.515.005.108.007.216.007.324 0 3.573-2.653 6.36-3.515 7.173H53.077c-2.24-1.459-3.086-4.855-3.086-6.858 0-4.223 1.973-7.33 3.805-8.431 1.685-1.01 5.654-3.606 6.126-5.881.036-.17.053-.338.053-.503 0-.455-.136-.882-.4-1.253-1.077-1.506-1.624-2.982-1.624-4.383 0-3.44.86-5.41 2.876-6.586l.422-.245.114-.476c5.235-21.62 16.06-32.963 20.684-37.806 4.638-4.858 13.855-9.833 13.948-9.883l.736-.394-.777-4.273-12.931-.253-5.764 2.882c-1.8.9-5.026.81-7.095-.907-.439-.362-.847-1.31-1.207-2.144-.48-1.111-.932-2.16-1.718-2.789l-.911-.668c-1.119-.792-2.65-1.876-3.08-3.16a2.49 2.49 0 0 1-.114-.782c0-1.189.634-2.576.937-3.1l.375-.65-.442-.606-4.456-6.077 9.902-9.498 5.694 3.286 14.975-5.648.192-.454c.502-1.193 1.921-4.482 2.451-5.366l.71-1.182-1.29-.483c-1.172-.44-3.167-3.425-3.627-7.104a4.791 4.791 0 0 1-.036-.6c0-3.056 2.672-6.964 6.137-8.823 3.847-2.064 11.448-3.946 14.995-4.368-.289 1.046-.515 2.293-.515 3.56 0 1.173.187 2.338.673 3.31l1.24 2.479.875-2.629zM115.656.738c-1.3.975-2.747 3.377-3.95 5.883.172-.796.397-1.49.616-1.925l.743-1.49-1.657-.165c-2.656-.267-13.042 2.133-17.837 4.706-4.279 2.296-7.348 6.909-7.348 10.846 0 .3.017.595.053.885.43 3.426 2.112 6.785 4 8.295-.652 1.334-1.502 3.3-1.887 4.208L75.35 36.897l-6.245-3.603-12.598 12.084 5.231 7.134c-.374.793-.899 2.136-.899 3.562 0 .505.068 1.015.231 1.508.667 1.999 2.554 3.333 3.933 4.31l.802.586c.338.271.729 1.176 1.044 1.905.485 1.126.988 2.288 1.85 3.004 2.525 2.093 6.736 2.616 9.587 1.192l5.258-2.629 10.486.205c.069.368.083.447.145.791-2.295 1.283-9.61 5.536-13.789 9.916-4.718 4.942-15.712 16.496-21.13 38.424-3.187 2.144-3.6 5.715-3.6 8.273 0 1.868.686 3.77 2.016 5.653-.02.587-1.773 2.427-5.057 4.399-2.942 1.766-4.92 5.945-4.92 10.399 0 3.106 1.378 7.25 4.401 9l.266.153h95.315l.318-.261c.194-.158 4.636-3.87 4.636-9.2a9.44 9.44 0 0 0-.01-.434c-.161-3.57-1.396-6.35-4-9.015l-2.082-1.93c-1.312-1.159-2.784-2.456-2.784-3.254 0-.014.006-.022.008-.034 1.772-1.49 2.357-5.444 2.357-6.868-.002-2.745-1.683-5.211-3.703-6.648 3.842-2.409 9.97-8.307 11.92-14.94l.642-2.18-2.135.775c-1.157.421-2.155.784-4.474.408a70.585 70.585 0 0 1-1.793-.322c2.748-1.008 5.168-2.732 7.594-6.147 2.617-3.332 4.458-7.719 5.024-11.994l.241-1.82-1.741.58c-1.8.6-2.485.73-4.574.52l-.694-.096a36.61 36.61 0 0 1-1.404-.21c2.546-.74 4.028-2.242 5.473-4.47 1.804-2.79 2.252-7.211 2.578-10.439l.26-2.49-1.303.022c-4.311.097-6.958-.471-8.776-1.91 1.97-.988 3.266-3.218 4.428-5.49 1.105-2.156 1.71-4.906 1.71-7.461 0-1.01-.093-1.99-.289-2.892l-.284-1.308-1.251.481c-.887.342-1.52.52-2.13.59a4.95 4.95 0 0 0 1.372-1.51l.513-.882-.816-.614c-1.18-.882-4.074-3.531-5.509-9.028-.815-3.126-1.77-5.102-2.767-6.501l1.79.132-.401-1.55c-.055-.217-1.404-5.338-4.53-8.944-3.226-3.726-5.436-5.59-9.989-6.788l-7.67-2.19c-.937-1.126-4.349-5.11-6.573-6.221l-.636-.317-.567.425z" fill="#15569C"/><path d="M110.338 18.417c1.557 1.002 3.137 2.986 3.826 4.593-1.148-4.823-.23-14.924 2.066-16.991 7.577 5.051 8.037 19.516 7.118 24.797l3.673-6.2s.69 5.74.92 9.873c.228 4.133.917 8.495 3.673 14.006 2.755 5.51 3.215 12.627 2.295 19.745-.917 7.118-4.017 14.22-7.69 19.884-3.968 6.119-8.342 10.178-13.393 9.948-5.05-.23-9.453-5.723-9.453-10.775-2.985 3.445-5.51 9.185-6.429 16.301-.918 7.118 4.822 11.25 4.822 11.25H64.111c.69-3.442 3.903-10.33 6.888-16.99 2.985-6.658 14.925-20.663 18.368-22.96 3.444-2.296 9.185-6.199 9.185-6.199l-.92-5.969s-14.693-.688-15.841-.918c-1.607 1.378-3.904 3.444-6.43 3.673-2.526.23-5.74-2.066-5.74-3.673 0-1.607-2.066-2.526-3.213-4.132-1.148-1.609 0-3.445 1.377-3.905 1.377-.458 6.2-.688 6.2-.688l-5.052 2.296 1.837 1.837 7.806-2.296-1.836-4.593-8.955 1.837-6.199-5.51 7.806-8.036 5.28 2.755 16.073-6.199 2.525-5.051 15.383-3.215-.688-2.066-7.002 1.378s-2.871.46-6.315-.46c-3.444-.918-7.27-8.571.689-13.47 4.286-2.755 10.715-4.591 12.551-4.285-2.755 3.367-1.836 7.654 2.45 10.408m-9.491 109.289h38.344s2.065-1.836 2.065-4.59c0-2.756-2.065-4.593-2.065-4.593H62.504s-2.066 1.837-2.066 4.593c0 2.754 2.066 4.59 2.066 4.59h38.343m0 20.664h45.001s2.067-1.835 2.067-4.591c0-2.755-2.067-4.592-2.067-4.592h-91.38s-2.066 1.837-2.066 4.592c0 2.756 2.067 4.592 2.067 4.592h46.378m.585-11.747h43.954c-5.676-3.215-5.947-6.162-5.947-6.162H62.504s-.459 3.674-6.404 6.162h45.332" fill="#15569C"/><path d="M124.113 12.907c5.934-.475 13.777 3.062 15.308 9.49-3.368-1.224-4.592-2.755-8.267-1.53 2.144.611 7.892 1.136 10.409 10.408 2.488 9.169 6.392 10.776 6.392 10.776s-5.28 1.607-8.23-.062c-2.412-1.365-4.858-4.186-4.858-4.186s-.51 1.632 2.296 4.707c4.822 5.28 12.094 5.74 14.235 5.74-.688 2.756-.918 7.806-4.82 8.725-3.875.91-5.627-1.21-6.852-2.128 1.8 5.571 7.31 12 15.576 11.541-.613 5.817-4.133 10.638-7.806 10.332-3.674-.306-4.859-1.852-7.118-4.362-.037 3.428 2.756 12.858 13.775 11.71-1.934 4.643-8.932 19.234-22.386 7.822 1.225 4.592 6.774 11.464 16.188 11.234-2.755 3.674-9.759 11.113-17.718 11.113h-25.411s-10.101-5.817-2.142-21.123c2.45 8.878 8.993 8.326 13.585 7.714 4.593-.612 7.807-5.051 10.868-9.031 3.062-3.98 7.078-10.929 7.998-17.051.918-6.122 3.061-10.409 1.836-18.98-1.225-8.572-5.59-14.359-6.084-18.308-.535-4.285-.24-8.987-1.836-13.928-1.559-4.822-3.215-8.342-4.938-10.623" fill="#15569C"/><path d="m93.5 35.255 8.613-2.45s1.826-.49-.783 3.184c-2.61 3.674-6.526 1.96-7.83-.734m10.562 26.327c4.59-1.377 11.94-3.674 12.168-7.807 1.608 4.133-20.28 35.665-20.28 35.665l16.149-29.006s-4.822 1.378-8.037 1.148" fill="#FFF"/><path d="M155.84 191.87c-.042-.035-.073-.09-.111-.125-.072-.07-.153-.121-.224-.191l.335.315" fill="#15569C"/><path d="M78.392 160.977h-.416v-8.416l.416-.206v8.622zm13.123-2.146c-.424.144-.85.304-1.274.44v-2.07c.372.6.796 1.147 1.274 1.63zm15.66 1.57a9.89 9.89 0 0 0 2.74-2.572v2.018h-1.368v1.557a9.722 9.722 0 0 0-1.373-1.003zm40.296 6.005-2.216 1.125c-.006-.066-.023-.094-.023-.18v-13.258l1.989.423c.629 2.634 1.577 5.03 2.684 7.227l-1.447 3.63-.163.382-.58 1.463-.244-.812zm17.946-10.996 1.056-3.948.892-3.502.932-3.726.255-.903.972-3.711-.418-.745-.523-1.13-.532-.968a456.86 456.86 0 0 0-.508-1.099l-3.37-5.593-1.414 3.868c-1.424-1.225-2.91-1.918-4.417-1.918-5.256 0-10.559 4.277-11.69 12.478l-1.19-.312-.23-.022c.001-1.573.123-3.868.328-5.02l.416-2.35-2.707-.73-1.114-.452-3.228-.874-.678 2.52c-.996 3.703-3.2 6.345-4.755 6.757l-1.9.506c-1.29-1.921-3.215-3.114-5.595-3.298-1.654-.09-2.988.295-4.184.845v-2.069l1.319-.56v-8.735l-3.615 1.52-6.993 2.939-2.265.877-1.663.646v.46l-1.356-.151h-.144c-2.763 0-4.422 1.132-5.265 3.404a15.67 15.67 0 0 0-2.288-.164c-3.56 0-7.306 1.71-9.304 5.355v-4.61a6.22 6.22 0 0 0 .253-1.757c0-2.571-1.523-5.319-5.798-5.319-3.01 0-6.507 2.85-6.507 6.525 0 1.418.383 2.442.85 3.172l-1.965.825v1.05c-.408-.91-.947-1.689-1.633-2.321-.982-.905-2.74-1.935-5.553-1.705-1.326.119-2.437.644-3.468 1.304v-2.936l-3.832 2.045-1.976 1.057c.024-.014-2.004 1.042-2.004 1.042a905.88 905.88 0 0 0-2.02 1.125c-.089.046-3.52 1.749-3.52 1.749l.135 1.542v9.865l1.266-1.135v10.518c-.066.038-.136.075-.2.111l-.839-2.223c.02.054-1.803-5.145-1.803-5.145l-1.811-5.46-1.45-4.685.805-1.63c.003 0 1.27-2.318 1.27-2.318l1.286-2.447.552-.946h2.687v-9.883h-4.683c-.097.002-2.124.078-2.124.078l-1.93-.002c-.097.002-2.438.087-2.565.092v-.087l-8.451.223-2.77-.002-5.443.142v11.7h1.672v39.02l-.498.413L27 185.84v13.877l7.267-7.14c.004 0 2.436-2.198 2.707-2.442.107-.085 2.835-2.292 2.835-2.292l2.821-2.135 1.034-.78v-.597l.104.343 5.135-3.297 2.286-1.404c.003 0 2.153-1.235 2.162-1.242.002.002 1.262-.65 1.888-.973 1.764-.855 4.034-1.955 4.035-1.958.003 0 2.265-1.023 2.27-1.025 0 .002 2.258-.948 2.265-.95.004 0 2.787-1.057 3.254-1.236.458-.15 3.34-1.103 3.345-1.106.003.003 4.566-1.326 4.574-1.329l3.788-.956 3.645-.723c-.082.016 2.2-.362 2.2-.362l2.242-.362 4.55-.452v-.954l.646.666a5.62 5.62 0 0 0-.129 1.169c0 2.053.886 6.826 9.093 6.826 4.5 0 9.711-1.931 10.117-7.293 1.047.138 2.012.262 2.015.262l2.308.366c0 .002 4.335.824 4.596.873v.068l4.283.97c.143.04 4.306 1.25 4.489 1.305l5.814 2.207v-1.747c.893 1.811 2.378 3.459 4.84 4.568 3.101 1.505 5.922.383 7.603-.595l1.199 2.748c2.14 5.135 4.355 10.433 7.32 13.078 2.578 2.57 6.08 3.309 9.41 1.953 3.89-1.585 8.05-6.446 8.05-15.336 0-11.883-3.76-18.581-7.644-23.023z" fill="#15569C"/><path d="m66.075 165.907-1.008.214v-12.64c.645-.879 1.255-1.614 1.917-1.73.028-.005.164-.018.244.053.073.061.15.238.15.549v12.963l-.193.042-1.11.55zm10.599-15.59c0-2.813-.713-4.896-2.116-6.19-1.149-1.058-2.684-1.517-4.564-1.365-1.96.178-3.49 1.311-4.877 2.713v-3.47l-1.915 1.022-1.977 1.056c.012-.005-2.016 1.049-2.016 1.049l-2.059 1.148c.026-.016-1.99.983-1.99.983l-.722.358.068.772v6.95l1.266-1.135v15.452a2.047 2.047 0 0 1-.081.039v-1.246s-2.025 1.125-2.108 1.173l-1.372-3.64-1.814-5.17-1.818-5.481c.007.018-1.192-3.852-1.612-5.208l1.037-2.095c.002 0 1.294-2.367 1.294-2.367l1.276-2.43c0 .002.558-.955.94-1.612l.156-.028h1.993v-7.279h-3.38c-.048.003-2.076.078-2.076.078l-1.978-.002-3.33.123v8.065l.604-.129-.497.912-1.701 3.524c-.005.01-.441.956-.87 1.88v-6.16l.213-.032h1.713v-8.141l-7.115.184h-2.803l-4.141.11v9.129h1.673v40.896c-.075.067-.433.4-.44.408-.004 0-.405.33-.405.33l-.063.053-.765.812v10.256l5.054-4.966 2.798-2.526c-.05.044 2.836-2.29 2.836-2.29l2.855-2.16.516-.391v-8.44s-1.845 1.099-1.926 1.145v-8.333l.127.452.8 2.993c.019.073 1.337 4.519 1.337 4.519l1.818 6.03 3.681-2.365c-.02.015 2.31-1.417 2.31-1.417l2.197-1.262 1.95-1.007 4.052-1.965 2.3-1.04c-.03.014 2.297-.965 2.299-.966l3.18-1.208v-.006c.496-.165 3.514-1.161 3.515-1.163l4.619-1.343 3.32-.838v-5.41l-1.266.268v-12.606zm43.84 12.221v-11.32c.381-.519.793-.86 1.098-.817.63.083 1.162.152 1.162 2.254v10.373c-.15-.03-.452-.094-.842-.178v-.05l-1.418-.262zm11.555 2.95v-14.342c0-3.932-1.621-8.258-6.17-8.608-2.225-.122-3.853.65-5.385 1.825v-5.222c.026-.007.054-.012.054-.012l1.262-.538v-5.911l-1.806.759-6.994 2.94-2.298.892-.831.321v1.022l-2.732-.303h-.07c-2.482 0-3.729.917-4.304 3.166l-.097.361-.007.024-.002.027c-.794-.16-1.744-.336-3.144-.336-4.557 0-9.46 3.215-9.46 10.272 0 3.608 1.807 6.062 4.141 7.423-1.29.512-2.573.984-3.855 1.348l-.554.158c-.25.054-.61.132-.879.187v-19.808l-.16.06c.26-.58.414-1.232.414-1.955 0-1.207-.439-4.017-4.496-4.017-2.357 0-5.205 2.33-5.205 5.223 0 1.657.63 2.604 1.16 3.106.216.205.462.364.72.5l-2.994 1.257v5.602l1.317-.654v12.027h-1.368v5.676l3.835-.76 2.24-.372 2.327-.373 2.202-.217 1.174-.116v-3.026l.224.243.645.64c0 .003.56.627.56.627.034.037 1.214 1.253 1.214 1.253l.726-.181c.218-.054.442-.045.657-.075-.516.754-.904 1.598-.904 2.579 0 2.52 1.351 5.525 7.79 5.525 4.083 0 8.855-1.744 8.855-6.656 0-2.258-1.14-4.973-5.672-6.568 3.223-1.297 6.229-3.58 6.229-8.957 0-2.698-.876-4.45-1.781-5.689l.29-1.468.204-1.13.198-1.04.206-1.14c.001-.01.217-1.137.356-1.853v4.017l1.318-.653v18.581h-1.369v5.086l3.466.45 2.347.37a3773.809 3773.809 0 0 0 5.692 1.08v.106s3.34.756 3.345.756c0 .003 2.257.66 2.257.66s2.323.674 2.328.678c0 .004 2.286.871 2.286.871l1.764.67v-5.784l-1.173-.584s-.048-.008-.093-.02zm28.141-13.409c-2.613-2.37-4.502-4.082-4.502-6.539 0-.849.32-1.4.54-1.645 1.507.663 3.572 5.65 4.876 9.03-.305-.28-.62-.58-.915-.846zm.788 29.213c-2.919-2.646-5.733-10.53-7.68-16.148.928 1.471 1.879 2.852 2.777 4.15 2.689 3.886 5.01 7.242 5.01 10.56 0 .692-.05 1.128-.107 1.438zm2.984-25.553 1.233-4.614c.005-.015.887-3.488.887-3.488l.93-3.719c-.006.027.266-.944.266-.944l.835-3.18-.21-.373-.486-1.05a88.027 88.027 0 0 0-.568-1.04c0-.008-.449-.979-.449-.979l-.03-.064-1.927-3.2-.934 2.559-.25.686c-1.342-1.623-3.008-2.995-4.937-2.995-5.115 0-10.618 4.533-10.618 14.482 0 5.43 1.572 9.945 3.608 13.846l-1.677 4.221-.161.378-.941 2.368a212.96 212.96 0 0 0-.675 1.426l-.457.718-.101-.332-.662-2.21-1.408.76c-.302.163-.456.112-.575.053-.09-.04-.746-.415-.746-1.696v-14.873l.385.088 2.172.46.225-2.675c-.001.013.09-.94.099-1.015.002-.002.022-.118.022-.118l.137-1.162-.022.245.43-2.252-2.142-.562-.906-.085c0-.002-.204-.041-.4-.076v-1.116c0-1.628.13-4.049.348-5.28l.208-1.175-1.631-.44-1.115-.452-1.893-.513-.338 1.26c-1.038 3.85-3.425 7.08-5.68 7.68l-.969.256v4.948l1.47.274c.016.003.17.027.305.051v14.422c0 5.346 1.66 8.48 5.379 10.157 3.037 1.471 5.748-.01 7.519-1.254l.127-.09 1.825 4.181c2.094 5.028 4.261 10.226 7.024 12.656 2.13 2.185 5.151 2.836 8.01 1.67 3.5-1.425 7.24-5.885 7.24-14.129 0-11.999-3.811-18.38-7.776-22.694z" fill="#FFF"/><path d="M41.06 183.63v-5.501l-.509.302-.506.302-.456.376-.456.302v-15l.203-.526.203-.528.252-.528.254-.528 1.318 4.824c.405 1.507.912 3.166 1.267 4.674l1.318 4.446 1.318 4.372 2.23-1.432 2.331-1.433 2.23-1.281 2.332-1.205v-4.599l-.406.228-.355.15-.405.226-.355.15-1.876-4.975-1.824-5.2-1.825-5.503-1.773-5.726 1.267-2.565 1.317-2.411 1.267-2.411 1.318-2.262h.406l.406-.075h.81v-4.672h-2.078l-2.027.074h-2.027l-2.028.076v5.2l.355-.074h.456l.457-.076h.404l-1.722 3.166-1.673 3.465-1.673 3.62-1.672 3.766v-13.414l.456-.076h.456l.506-.075h.508v-5.502l-2.889.073-2.889.078h-2.838l-2.838.074v6.558h.354l.457-.077.405-.073.457-.076v43.037l-.457.377-.405.376-.457.377-.354.378v6.632l2.838-2.787 2.838-2.563 2.89-2.338 2.888-2.186m24.124-13.113v-3.092l-.354.076-.406.15-.354.076-.304.152v-14.85c.861-1.206 1.722-2.337 2.99-2.563.962-.15 1.925.453 1.925 1.885v13.944l-.354.075-.355.152-.355.076-.303.149v3.016l2.28-.755 2.332-.677 2.331-.68 2.381-.603v-2.787l-.353.075h-.305l-.355.074-.253.076v-14.17c0-2.563-.66-6.632-5.27-6.255-2.535.226-4.41 2.563-6.285 4.824v-4.71l-1.977 1.056-2.028 1.055-2.027 1.13c-.659.301-1.318.6-1.977.976v4.034l.254-.227.304-.149c.101 0 .304-.226.355-.302l.354-.15v18.993l-.354.075-.355.151-.304.151-.254.15v3.468l2.332-1.13 2.332-1.056 2.33-.98 2.382-.903m23.619-5.579V162.3l-.355.076h-.558l-.253.074v-19.445l-2.027.753-1.977.755-1.977.83-1.976.83v2.638l.303-.153.355-.15.304-.076.356-.074v15.074h-.356l-.354.076-.305.075h-.354v2.788l2.281-.451 2.281-.377 2.33-.377 2.282-.227m-8.008-24.495c0 1.884 1.013 2.788 2.432 2.713 1.825-.075 4.663-1.132 4.663-3.919 0-2.26-1.622-2.713-3.193-2.713-1.57 0-3.902 1.734-3.902 3.919m27.469.376-.202 1.132-.203 1.054-.204 1.13c-.403-.526-.658-.828-1.317-.904-.405 0-.659.453-.659.98 0 .829 3.448 2.26 3.448 7.312 0 6.858-5.323 7.838-9.732 9.12v.074c3.041.378 9.174 1.508 9.174 6.331 0 4.675-5.322 5.352-7.551 5.352-3.194 0-6.488-.754-6.488-4.221 0-2.035 1.976-3.542 3.547-3.693v-.076c-2.078-.225-3.396-.377-4.916 0l-.658-.678-.609-.678-.608-.604-.557-.603c2.382-.676 4.713-1.656 6.993-2.637v-.076c-3.192-.451-6.335-2.864-6.335-7.31 0-6.257 4.207-8.97 8.16-8.97 1.976 0 3.04.377 4.055.529l.1-.378.102-.452c0-.077.152-.226.152-.376l.101-.377c.407-1.585 1.066-2.186 3.042-2.186l1.368.15-.203 1.056" fill="#A80C30"/><path d="M99.293 145.568c2.736 0 3.851 6.408 3.851 8.67 0 2.033-.557 2.863-1.875 2.863-2.737 0-3.902-6.407-3.902-8.742 0-2.036.558-2.79 1.926-2.79" fill="#FFF"/><path d="M99.762 147.248c1.676 0 2.358 4.65 2.358 6.292 0 1.477-.341 2.079-1.147 2.079-1.677 0-2.39-4.65-2.39-6.345 0-1.478.34-2.026 1.18-2.026" fill="#15569C"/><path d="M100.357 165.242c1.267.903 2.23 1.581 2.23 3.541 0 1.054-.507 1.583-1.418 1.583-1.015 0-1.47-1.205-1.47-2.261 0-.98.15-2.034.658-2.863" fill="#FFF"/><path d="M120.63 166.673v-2.788l-.405-.075-.356-.077-.355-.075-.303-.075V150.77c.608-.98 1.52-1.808 2.585-1.657 1.723.226 2.28 1.356 2.28 3.543v11.983l-.354-.077-.406-.074-.304-.076-.355-.074v2.864l2.332.527 2.332.678 2.331.678 2.382.905v-3.09l-.304-.151-.356-.075-.303-.074-.305-.076v-15.377c0-3.015-1.063-7.01-4.966-7.31-2.788-.151-4.511 1.356-6.59 3.392v-8.969l.304-.152.305-.15.355-.075.355-.152v-3.09l-2.332.98-2.331.98-2.332.98-2.331.903v2.638l.304-.15c.102.076.254-.074.304-.074l.355-.152.354-.075v21.933l-.354-.074h-.355l-.354-.078h-.305v2.638l2.331.3 2.383.378 2.382.453 2.382.452m15.306-1.431c0 4.595 1.267 7.46 4.613 8.968 2.33 1.13 4.41.152 6.232-1.13l-.253-.754-.252-.83-.203-.678-.203-.678c-.557.301-1.166.378-1.773.075-.558-.226-1.47-1.13-1.47-2.863V150.92l.659.075.658.15.658.15.71.152.102-1.206.101-1.055c.051-.301.153-.754.153-1.13l.202-1.056-.862-.227-.812-.074-.81-.15-.76-.077v-2.262c0-1.506.115-4.075.368-5.507l-.558-.15-.556-.227-.558-.226-.557-.151c-1.115 4.146-3.764 7.846-6.603 8.6v2.862l.406.076.456.076h.456l.456.15v15.528m28.816-29.147-.265.727-.221.887-.221.807-.222.81c-1.59-2.666-3.58-4.685-5.481-4.685-4.643 0-9.316 4.38-9.316 13.18 0 15.663 13.383 23.314 13.383 32.034 0 3.23-.972 3.634-2.033 2.664-3.45-2.743-6.5-11.787-8.71-18.165-.267.807-.665 1.696-.974 2.42l-.928 2.343-.743 1.572-.836 1.317c2.874 5.974 5.602 14.76 9.183 17.908 4.731 4.844 13.087.308 13.087-11.48 0-24.223-16.049-24.657-16.049-32.893 0-1.777 1.06-3.15 1.768-3.068 2.61.403 5.042 7.025 6.854 11.788l.929-3.472.883-3.473.928-3.712c.31-1.131.709-2.423.973-3.634l-.485-1.05-.531-.97-.486-1.048-.487-.807" fill="#A80C30"/></g></svg>