<svg width="200" height="200" xmlns="http://www.w3.org/2000/svg"><g fill="none"><path d="M144.558 25.06s-1.303-5.036-4.287-8.48c-2.985-3.444-5.05-5.28-9.413-6.429a205.07 205.07 0 0 1-8.038-2.295s-4.132-5.05-6.429-6.2c-1.836 1.378-4.36 6.658-5.51 10.103-1.147-2.296-.23-6.199.46-7.577-2.296-.23-12.474 2.051-17.18 4.576-4.063 2.18-7.158 6.905-6.698 10.578.459 3.674 2.525 7.347 4.362 8.036-.689 1.148-2.525 5.51-2.525 5.51l-14.006 5.281-5.97-3.444-11.25 10.79 5.05 6.889s-1.607 2.756-.917 4.822c.689 2.066 3.214 3.444 4.362 4.362 1.148.918 1.635 3.865 2.91 4.92 2.335 1.938 6.044 2.197 8.34 1.05l5.511-2.755 11.71.229.459 2.526s-9.414 5.05-14.236 10.102c-4.821 5.05-15.688 16.516-20.969 38.327-2.755 1.607-3.444 4.355-3.444 7.578 0 2.066.961 3.825 1.837 5.052 1.148 1.605-3.293 4.697-5.435 5.984-2.432 1.46-4.362 5.113-4.362 9.415 0 2.525 1.073 6.413 3.828 8.007h94.595s4.438-3.646 4.208-8.698c-.147-3.219-1.223-5.756-3.673-8.265-2.45-2.508-5.97-4.607-5.05-6.674 1.377-.69 2.221-4.321 2.22-6.214 0-3.198-2.757-5.955-5.053-6.644 2.526-.688 11.021-7.46 13.317-15.268-1.331.485-2.54.869-5.05.459-2.248-.367-4.708-.804-5.51-1.606 4.476-.805 7.462-2.297 10.56-6.66 2.612-3.329 4.306-7.576 4.823-11.479-1.895.63-2.756.803-5.051.574-2.412-.345-4.479-.46-5.741-2.067 4.476-.115 6.326-1.484 8.265-4.477 1.885-2.911 2.186-8.078 2.527-11.135-5.051.114-8.725-.575-11.021-3.675 2.522-.03 4.012-2.246 5.625-5.395 1.359-2.653 1.977-6.567 1.319-9.586-1.123.433-1.972.707-2.887.725-.91.02-4.517-.093-5.55-1.24 1.607 0 3.1-.23 4.133-.345.918-.23 1.664-.885 2.141-1.707-1.836-1.378-4.552-4.378-5.93-9.658-1.377-5.282-3.099-7.003-4.478-8.151l3.1.23" fill="#FFF"/><path d="M111.971 12.122c1.063-3.19 3.098-7.347 4.571-9.021 1.778 1.28 4.414 4.29 5.39 5.482l.228.278 8.404 2.4c3.991 1.052 5.874 2.65 8.84 6.072 1.789 2.064 2.94 4.774 3.541 6.457l-4.97-.368 2.748 2.29c1.317 1.098 2.827 2.678 4.102 7.56 1.33 5.099 3.829 8.05 5.443 9.517a2.059 2.059 0 0 1-.8.432l-.528.063-5.671.44 1.469 1.735c1.51 1.68 5.929 1.632 6.427 1.62.624-.012 1.233-.144 1.87-.329.033.369.11.712.11 1.098 0 2.194-.522 4.593-1.458 6.422-1.539 3.005-2.787 4.749-4.619 4.77l-2.243.028 1.335 1.804c2.554 3.448 6.562 4.124 10.669 4.147-.302 2.99-.721 7.049-2.214 9.356-1.714 2.647-3.18 3.846-7.332 3.954l-2.285.058 1.41 1.798c1.422 1.807 3.529 2.093 5.758 2.393l.724.1c1.62.163 2.63.134 3.715-.095-.725 3.298-2.188 6.558-4.226 9.156-3.065 4.311-5.826 5.512-9.86 6.237l-2.163.388 1.554 1.555c1.026 1.025 3.286 1.463 6.136 1.927 1.43.234 2.444.191 3.358.055-2.945 6.732-9.989 12.037-11.74 12.515l-3.87 1.055 3.842 1.152c1.73.518 4.232 2.79 4.234 5.543v.001c0 2.081-.946 4.867-1.585 5.186l-.368.184-.168.376c-.179.4-.258.79-.258 1.17 0 1.807 1.813 3.406 3.577 4.961l1.958 1.812c2.21 2.264 3.21 4.512 3.349 7.515.004.108.007.216.007.324 0 3.573-2.654 6.36-3.515 7.173H53.124c-2.24-1.459-3.086-4.855-3.086-6.858 0-4.223 1.972-7.33 3.805-8.431 1.684-1.01 5.653-3.606 6.126-5.881.035-.17.053-.338.053-.503 0-.455-.136-.882-.4-1.253-1.077-1.506-1.624-2.982-1.624-4.383 0-3.44.86-5.41 2.875-6.586l.423-.245.114-.476c5.234-21.62 16.06-32.963 20.684-37.806 4.638-4.858 13.855-9.833 13.947-9.883l.737-.394L96 63.896l-12.931-.253-5.764 2.882c-1.8.9-5.026.81-7.096-.907-.438-.362-.846-1.31-1.206-2.144-.48-1.111-.932-2.16-1.718-2.789l-.911-.668c-1.119-.792-2.651-1.876-3.08-3.16a2.49 2.49 0 0 1-.114-.782c0-1.189.634-2.576.937-3.1l.375-.65-.442-.606-4.456-6.077 9.902-9.498 5.693 3.286 14.976-5.648.192-.454c.502-1.193 1.921-4.482 2.45-5.366l.71-1.182-1.29-.483c-1.17-.44-3.166-3.425-3.626-7.104a4.791 4.791 0 0 1-.037-.6c0-3.056 2.672-6.964 6.138-8.823 3.846-2.064 11.448-3.946 14.995-4.368-.29 1.046-.515 2.293-.515 3.56 0 1.173.186 2.338.673 3.31l1.24 2.479.875-2.629zM115.703.738c-1.3.975-2.747 3.377-3.95 5.883.171-.796.397-1.49.616-1.925l.743-1.49-1.657-.165c-2.656-.267-13.042 2.133-17.837 4.706-4.28 2.296-7.349 6.909-7.349 10.846 0 .3.018.595.054.885.43 3.426 2.111 6.785 4 8.295-.653 1.334-1.502 3.3-1.887 4.208l-13.039 4.916-6.245-3.603-12.598 12.084 5.231 7.134c-.374.793-.899 2.136-.899 3.562 0 .505.068 1.015.231 1.508.667 1.999 2.554 3.333 3.932 4.31l.802.586c.339.271.73 1.176 1.045 1.905.485 1.126.987 2.288 1.85 3.004 2.525 2.093 6.736 2.616 9.586 1.192l5.258-2.629 10.487.205c.068.368.083.447.144.791-2.295 1.283-9.608 5.536-13.788 9.916-4.718 4.942-15.712 16.496-21.131 38.424-3.187 2.144-3.6 5.715-3.6 8.273 0 1.868.687 3.77 2.017 5.653-.02.587-1.773 2.427-5.057 4.399-2.943 1.766-4.92 5.945-4.92 10.399 0 3.106 1.377 7.25 4.4 9l.267.153h95.315l.318-.261c.194-.158 4.636-3.87 4.636-9.2a9.44 9.44 0 0 0-.01-.434c-.162-3.57-1.396-6.35-4-9.015l-2.083-1.93c-1.312-1.159-2.783-2.456-2.783-3.254 0-.014.006-.022.008-.034 1.772-1.49 2.357-5.444 2.357-6.868-.003-2.745-1.683-5.211-3.703-6.648 3.842-2.409 9.97-8.307 11.919-14.94l.642-2.18-2.135.775c-1.156.421-2.154.784-4.473.408a70.585 70.585 0 0 1-1.793-.322c2.748-1.008 5.167-2.732 7.594-6.147 2.616-3.332 4.458-7.719 5.024-11.994l.24-1.82-1.74.58c-1.8.6-2.485.73-4.574.52l-.694-.096c-.52-.07-.983-.136-1.404-.21 2.545-.74 4.028-2.242 5.472-4.47 1.805-2.79 2.253-7.211 2.579-10.439l.26-2.49-1.303.022c-4.311.097-6.958-.471-8.777-1.91 1.97-.988 3.267-3.218 4.43-5.49 1.104-2.156 1.71-4.906 1.71-7.461 0-1.01-.094-1.99-.29-2.892l-.284-1.308-1.252.481c-.886.342-1.52.52-2.13.59a4.95 4.95 0 0 0 1.373-1.51l.513-.882-.816-.614c-1.18-.882-4.074-3.531-5.51-9.028-.814-3.126-1.77-5.102-2.766-6.501l1.79.132-.401-1.55c-.055-.217-1.405-5.338-4.53-8.944-3.227-3.726-5.436-5.59-9.989-6.788l-7.67-2.19c-.937-1.126-4.35-5.11-6.574-6.221l-.635-.317-.567.425z" fill="#15569C"/><path d="M110.384 18.417c1.558 1.002 3.138 2.986 3.827 4.593-1.148-4.823-.23-14.924 2.066-16.991 7.577 5.051 8.037 19.516 7.117 24.797l3.674-6.2s.69 5.74.92 9.873c.228 4.133.917 8.495 3.673 14.006 2.755 5.51 3.215 12.627 2.295 19.745-.918 7.118-4.017 14.22-7.69 19.884-3.969 6.119-8.342 10.178-13.393 9.948-5.05-.23-9.454-5.723-9.454-10.775-2.985 3.445-5.51 9.185-6.428 16.301-.918 7.118 4.822 11.25 4.822 11.25H64.158c.689-3.442 3.903-10.33 6.888-16.99C74.03 91.2 85.97 77.195 89.414 74.898c3.444-2.296 9.185-6.199 9.185-6.199l-.92-5.969s-14.694-.688-15.842-.918c-1.607 1.378-3.903 3.444-6.429 3.673-2.526.23-5.74-2.066-5.74-3.673 0-1.607-2.066-2.526-3.214-4.132-1.148-1.609 0-3.445 1.378-3.905 1.377-.458 6.2-.688 6.2-.688l-5.052 2.296 1.837 1.837 7.806-2.296-1.837-4.593-8.954 1.837-6.199-5.51 7.806-8.036 5.28 2.755 16.073-6.199 2.525-5.051 15.383-3.215-.688-2.066-7.002 1.378s-2.872.46-6.315-.46c-3.444-.918-7.271-8.571.689-13.47 4.286-2.755 10.715-4.591 12.551-4.285-2.755 3.367-1.836 7.654 2.45 10.408m-9.491 109.289h38.344s2.065-1.836 2.065-4.59c0-2.756-2.065-4.593-2.065-4.593H62.55s-2.067 1.837-2.067 4.593c0 2.754 2.067 4.59 2.067 4.59h38.343m.001 20.664h45.001s2.067-1.835 2.067-4.591c0-2.755-2.067-4.592-2.067-4.592H54.516s-2.067 1.837-2.067 4.592c0 2.756 2.067 4.592 2.067 4.592h46.378m.585-11.747h43.954c-5.676-3.215-5.948-6.162-5.948-6.162H62.551s-.459 3.674-6.404 6.162h45.332" fill="#15569C"/><path d="M124.16 12.907c5.934-.475 13.777 3.062 15.307 9.49-3.367-1.224-4.591-2.755-8.267-1.53 2.145.611 7.893 1.136 10.41 10.408 2.487 9.169 6.392 10.776 6.392 10.776s-5.28 1.607-8.23-.062c-2.412-1.365-4.858-4.186-4.858-4.186s-.51 1.632 2.296 4.707c4.822 5.28 12.093 5.74 14.234 5.74-.687 2.756-.917 7.806-4.82 8.725-3.874.91-5.627-1.21-6.852-2.128 1.8 5.571 7.312 12 15.577 11.541-.614 5.817-4.133 10.638-7.806 10.332-3.675-.306-4.86-1.852-7.118-4.362-.038 3.428 2.755 12.858 13.775 11.71-1.934 4.643-8.932 19.234-22.386 7.822 1.224 4.592 6.774 11.464 16.188 11.234-2.755 3.674-9.759 11.113-17.719 11.113h-25.41s-10.101-5.817-2.142-21.123c2.449 8.878 8.993 8.326 13.585 7.714 4.593-.612 7.806-5.051 10.868-9.031 3.062-3.98 7.078-10.929 7.998-17.051.918-6.122 3.061-10.409 1.836-18.98-1.225-8.572-5.59-14.359-6.084-18.308-.535-4.285-.24-8.987-1.836-13.928-1.559-4.822-3.215-8.342-4.938-10.623" fill="#15569C"/><path d="M93.548 35.255l8.611-2.45s1.827-.49-.783 3.184c-2.61 3.674-6.525 1.96-7.828-.734m10.562 26.327c4.59-1.377 11.938-3.674 12.167-7.807 1.608 4.133-20.28 35.665-20.28 35.665l16.148-29.006s-4.821 1.378-8.036 1.148" fill="#FFF"/><path d="M155.887 191.87c-.042-.035-.073-.09-.111-.125-.073-.07-.153-.121-.225-.191l.336.315" fill="#15569C"/><path d="M78.439 160.977h-.416v-8.416c.137-.069.28-.139.416-.206v8.622zm13.123-2.146c-.425.144-.85.304-1.275.44v-2.07a9.25 9.25 0 0 0 1.275 1.63zm15.659 1.57a9.89 9.89 0 0 0 2.742-2.572v2.018h-1.37v1.557a9.722 9.722 0 0 0-1.372-1.003zm40.297 6.005l-2.216 1.125c-.006-.066-.024-.094-.024-.18v-13.258c.447.095 1.42.303 1.99.423.628 2.634 1.577 5.03 2.684 7.227l-1.448 3.63-.162.382-.58 1.463-.244-.812zm17.946-10.996l1.056-3.948.892-3.502.931-3.726.255-.903.973-3.711-.419-.745-.522-1.13-.532-.968a456.86 456.86 0 0 0-.508-1.099l-3.37-5.593-1.414 3.868c-1.424-1.225-2.91-1.918-4.417-1.918-5.257 0-10.559 4.277-11.69 12.478l-1.19-.312-.23-.022c.001-1.573.122-3.868.327-5.02l.416-2.35-2.706-.73-1.114-.452-3.228-.874-.678 2.52c-.996 3.703-3.2 6.345-4.756 6.757l-1.9.506c-1.289-1.921-3.214-3.114-5.594-3.298-1.654-.09-2.989.295-4.184.845v-2.069l1.318-.56v-8.735l-3.615 1.52-6.992 2.939-2.265.877-1.663.646v.46l-1.356-.151h-.144c-2.764 0-4.423 1.132-5.265 3.404a15.67 15.67 0 0 0-2.288-.164c-3.56 0-7.307 1.71-9.305 5.355v-4.61a6.22 6.22 0 0 0 .254-1.757c0-2.571-1.523-5.319-5.798-5.319-3.01 0-6.507 2.85-6.507 6.525 0 1.418.383 2.442.85 3.172l-1.965.825v1.05c-.409-.91-.948-1.689-1.634-2.321-.981-.905-2.74-1.935-5.553-1.705-1.325.119-2.436.644-3.467 1.304v-2.936l-3.832 2.045-1.977 1.057c.024-.014-2.003 1.042-2.003 1.042a905.88 905.88 0 0 0-2.02 1.125c-.089.046-3.52 1.749-3.52 1.749l.135 1.542v9.865l1.266-1.135v10.518c-.066.038-.136.075-.201.111l-.838-2.223c.02.054-1.804-5.145-1.804-5.145l-1.81-5.46-1.45-4.685.805-1.63c.002 0 1.27-2.318 1.27-2.318l1.285-2.447s.269-.458.553-.946h2.687v-9.883h-4.684c-.097.002-2.123.078-2.123.078l-1.93-.002c-.097.002-2.438.087-2.565.092v-.087l-8.451.223-2.77-.002-5.443.142v11.7h1.672v39.02l-.498.413-1.174 1.248v13.877s7.263-7.138 7.267-7.14c.003 0 2.435-2.198 2.707-2.442.107-.085 2.834-2.292 2.834-2.292-.064.05 2.822-2.135 2.822-2.135l1.034-.78v-.597l.104.343 5.135-3.297 2.286-1.404c.002 0 2.153-1.235 2.162-1.242.002.002 1.261-.65 1.888-.973 1.764-.855 4.034-1.955 4.034-1.958.003 0 2.265-1.023 2.27-1.025 0 .002 2.26-.948 2.266-.95.004 0 2.787-1.057 3.254-1.236.458-.15 3.34-1.103 3.345-1.106.002.003 4.566-1.326 4.574-1.329l3.787-.956 3.646-.723c-.082.016 2.199-.362 2.199-.362l2.243-.362 4.55-.452v-.954l.646.666a5.62 5.62 0 0 0-.13 1.169c0 2.053.887 6.826 9.093 6.826 4.501 0 9.712-1.931 10.118-7.293 1.046.138 2.012.262 2.015.262l2.308.366c0 .002 4.335.824 4.595.873v.068l4.283.97c.144.04 4.307 1.25 4.49 1.305l5.814 2.207v-1.747c.893 1.811 2.378 3.459 4.84 4.568 3.101 1.505 5.922.383 7.603-.595l1.199 2.748c2.14 5.135 4.355 10.433 7.32 13.078 2.577 2.57 6.08 3.309 9.41 1.953 3.89-1.585 8.05-6.446 8.05-15.336 0-11.883-3.76-18.581-7.644-23.023z" fill="#15569C"/><path d="M66.122 165.907l-1.008.214v-12.64c.645-.879 1.254-1.614 1.917-1.73.027-.005.164-.018.244.053.072.061.15.238.15.549v12.963l-.194.042-1.109.55zm10.598-15.59c0-2.813-.712-4.896-2.115-6.19-1.149-1.058-2.684-1.517-4.564-1.365-1.96.178-3.49 1.311-4.877 2.713v-3.47l-1.915 1.022-1.977 1.056c.012-.005-2.016 1.049-2.016 1.049l-2.059 1.148c.026-.016-1.99.983-1.99.983l-.723.358.068.772v6.95l1.267-1.135v15.452a2.047 2.047 0 0 1-.082.039v-1.246s-2.024 1.125-2.107 1.173l-1.372-3.64-1.814-5.17-1.818-5.481c.007.018-1.192-3.852-1.612-5.208l1.037-2.095c.002 0 1.294-2.367 1.294-2.367l1.276-2.43c0 .002.558-.955.94-1.612l.156-.028h1.993v-7.279h-3.38c-.047.003-2.075.078-2.075.078l-1.979-.002-3.33.123v8.065s.319-.067.604-.129l-.496.912c-.029.056-1.702 3.524-1.702 3.524-.004.01-.44.956-.869 1.88v-6.16l.213-.032h1.713v-8.141l-7.115.184H32.49l-4.142.11v9.129h1.674v40.896c-.075.067-.433.4-.44.408-.004 0-.405.33-.405.33l-.064.053-.765.812v10.256l5.055-4.966 2.798-2.526c-.051.044 2.835-2.29 2.835-2.29l2.856-2.16.516-.391v-8.44s-1.845 1.099-1.926 1.145v-8.333l.127.452.8 2.993c.019.073 1.336 4.519 1.336 4.519l1.819 6.03 3.681-2.365c-.021.015 2.31-1.417 2.31-1.417l2.197-1.262 1.95-1.007 4.052-1.965 2.3-1.04c-.03.014 2.296-.965 2.298-.966l3.181-1.208v-.006c.496-.165 3.514-1.161 3.515-1.163l4.618-1.343 3.321-.838v-5.41l-1.267.268v-12.606zm43.84 12.221v-11.32c.382-.519.794-.86 1.098-.817.631.083 1.162.152 1.162 2.254v10.373a86.33 86.33 0 0 1-.841-.178v-.05l-1.418-.262zm11.556 2.95v-14.342c0-3.932-1.621-8.258-6.17-8.608-2.225-.122-3.854.65-5.385 1.825v-5.222c.026-.007.053-.012.053-.012l1.263-.538v-5.911l-1.806.759-6.995 2.94-2.297.892-.831.321v1.022l-2.733-.303h-.07c-2.481 0-3.728.917-4.303 3.166l-.097.361-.007.024-.002.027c-.794-.16-1.745-.336-3.144-.336-4.557 0-9.46 3.215-9.46 10.272 0 3.608 1.806 6.062 4.141 7.423-1.29.512-2.573.984-3.855 1.348l-.554.158c-.25.054-.61.132-.879.187v-19.808l-.16.06c.26-.58.413-1.232.413-1.955 0-1.207-.438-4.017-4.495-4.017-2.357 0-5.205 2.33-5.205 5.223 0 1.657.63 2.604 1.16 3.106.216.205.462.364.72.5l-2.995 1.257v5.602l1.318-.654v12.027h-1.368v5.676l3.835-.76 2.24-.372 2.327-.373 2.202-.217 1.174-.116v-3.026l.224.243.645.64c0 .003.559.627.559.627l1.215 1.253.726-.181c.218-.054.441-.045.657-.075-.516.754-.904 1.598-.904 2.579 0 2.52 1.351 5.525 7.79 5.525 4.083 0 8.855-1.744 8.855-6.656 0-2.258-1.141-4.973-5.672-6.568 3.222-1.297 6.229-3.58 6.229-8.957 0-2.698-.876-4.45-1.782-5.689l.292-1.468.202-1.13.199-1.04c.004-.017.2-1.113.206-1.14.001-.01.217-1.137.356-1.853v4.017l1.318-.653v18.581h-1.369v5.086l3.466.45 2.347.37c-.037-.006 2.34.446 2.34.446s2.898.55 3.352.634v.106s3.34.756 3.345.756c0 .003 2.257.66 2.257.66s2.322.674 2.328.678c0 .004 2.286.871 2.286.871l1.764.67v-5.784l-1.173-.584s-.049-.008-.093-.02zm28.14-13.409c-2.612-2.37-4.501-4.082-4.501-6.539 0-.849.319-1.4.54-1.645 1.507.663 3.572 5.65 4.875 9.03-.304-.28-.62-.58-.914-.846zm.789 29.213c-2.919-2.646-5.733-10.53-7.68-16.148.928 1.471 1.878 2.852 2.777 4.15 2.689 3.886 5.01 7.242 5.01 10.56 0 .692-.05 1.128-.107 1.438zm2.983-25.553l1.233-4.614c.005-.015.888-3.488.888-3.488l.93-3.719c-.006.027.266-.944.266-.944l.835-3.18-.21-.373-.486-1.05c-.038-.077-.561-1.029-.568-1.04 0-.008-.449-.979-.449-.979l-.03-.064-1.927-3.2-.935 2.559s-.223.615-.25.686c-1.341-1.623-3.007-2.995-4.936-2.995-5.115 0-10.618 4.533-10.618 14.482 0 5.43 1.572 9.945 3.608 13.846l-1.677 4.221-.162.378-.94 2.368a212.96 212.96 0 0 0-.675 1.426c-.034.05-.233.366-.457.718l-.102-.332-.66-2.21-1.409.76c-.302.163-.456.112-.575.053-.09-.04-.746-.415-.746-1.696v-14.873l.384.088 2.173.46.225-2.675.098-1.015c.002-.002.023-.118.023-.118l.137-1.162-.022.245.43-2.252-2.142-.562-.906-.085c0-.002-.204-.041-.4-.076v-1.116c0-1.628.13-4.049.348-5.28l.208-1.175-1.631-.44-1.115-.452-1.893-.513-.339 1.26c-1.037 3.85-3.424 7.08-5.68 7.68l-.968.256v4.948l1.47.274c.016.003.169.027.305.051v14.422c0 5.346 1.66 8.48 5.378 10.157 3.037 1.471 5.748-.01 7.52-1.254l.127-.09 1.824 4.181c2.095 5.028 4.262 10.226 7.025 12.656 2.13 2.185 5.151 2.836 8.01 1.67 3.5-1.425 7.24-5.885 7.24-14.129 0-11.999-3.811-18.38-7.777-22.694z" fill="#FFF"/><path d="M41.106 183.63v-5.501l-.508.302-.506.302-.456.376-.456.302v-15l.203-.526.202-.528.253-.528.254-.528 1.318 4.824c.405 1.507.912 3.166 1.267 4.674l1.317 4.446 1.318 4.372 2.23-1.432 2.332-1.433 2.23-1.281 2.331-1.205v-4.599l-.406.228-.354.15-.406.226-.354.15-1.876-4.975-1.824-5.2-1.825-5.503-1.773-5.726 1.267-2.565 1.317-2.411 1.267-2.411 1.318-2.262h.406l.406-.075h.81v-4.672H50.33l-2.026.074h-2.028l-2.027.076v5.2l.355-.074h.455l.457-.076h.405l-1.722 3.166-1.673 3.465-1.673 3.62-1.672 3.766v-13.414l.456-.076h.456l.506-.075h.508v-5.502l-2.889.073-2.889.078H32.49l-2.839.074v6.558h.355l.457-.077.405-.073.456-.076v43.037l-.456.377-.405.376-.457.377-.355.378v6.632l2.839-2.787 2.838-2.563 2.89-2.338 2.888-2.186m24.124-13.113v-3.092l-.354.076-.406.15-.354.076-.305.152v-14.85c.862-1.206 1.723-2.337 2.99-2.563.963-.15 1.926.453 1.926 1.885v13.944l-.354.075-.356.152-.354.076-.304.149v3.016l2.281-.755 2.331-.677 2.332-.68 2.381-.603v-2.787l-.354.075h-.305l-.354.074-.253.076v-14.17c0-2.563-.66-6.632-5.271-6.255-2.534.226-4.41 2.563-6.285 4.824v-4.71l-1.977 1.056-2.028 1.055-2.026 1.13c-.659.301-1.318.6-1.977.976v4.034l.253-.227.305-.149c.101 0 .304-.226.354-.302l.355-.15v18.993l-.355.075-.354.151-.305.151-.253.15v3.468l2.331-1.13 2.333-1.056 2.33-.98 2.382-.903m23.619-5.579V162.3l-.355.076h-.558l-.253.074v-19.445l-2.028.753-1.976.755-1.977.83-1.977.83v2.638l.304-.153.355-.15.304-.076.355-.074v15.074h-.355l-.354.076-.305.075h-.354v2.788l2.28-.451 2.282-.377 2.33-.377 2.282-.227m-8.009-24.495c0 1.884 1.014 2.788 2.433 2.713 1.824-.075 4.663-1.132 4.663-3.919 0-2.26-1.622-2.713-3.193-2.713-1.57 0-3.902 1.734-3.902 3.919m27.469.376l-.202 1.132-.203 1.054-.204 1.13c-.404-.526-.658-.828-1.317-.904-.405 0-.659.453-.659.98 0 .829 3.447 2.26 3.447 7.312 0 6.858-5.323 7.838-9.731 9.12v.074c3.041.378 9.173 1.508 9.173 6.331 0 4.675-5.321 5.352-7.55 5.352-3.194 0-6.488-.754-6.488-4.221 0-2.035 1.976-3.542 3.547-3.693v-.076c-2.078-.225-3.396-.377-4.916 0l-.659-.678-.608-.678-.608-.604-.558-.603c2.382-.676 4.714-1.656 6.994-2.637v-.076c-3.192-.451-6.335-2.864-6.335-7.31 0-6.257 4.207-8.97 8.16-8.97 1.976 0 3.04.377 4.055.529l.1-.378.101-.452c0-.077.153-.226.153-.376l.101-.377c.406-1.585 1.066-2.186 3.042-2.186l1.367.15-.202 1.056" fill="#A80C30"/><path d="M99.34 145.568c2.736 0 3.851 6.408 3.851 8.67 0 2.033-.557 2.863-1.875 2.863-2.737 0-3.902-6.407-3.902-8.742 0-2.036.558-2.79 1.926-2.79" fill="#FFF"/><path d="M99.809 147.248c1.676 0 2.358 4.65 2.358 6.292 0 1.477-.341 2.079-1.147 2.079-1.677 0-2.39-4.65-2.39-6.345 0-1.478.34-2.026 1.179-2.026" fill="#15569C"/><path d="M100.404 165.242c1.267.903 2.23 1.581 2.23 3.541 0 1.054-.507 1.583-1.419 1.583-1.014 0-1.47-1.205-1.47-2.261 0-.98.152-2.034.659-2.863" fill="#FFF"/><path d="M120.677 166.673v-2.788l-.405-.075-.356-.077-.356-.075-.303-.075V150.77c.608-.98 1.52-1.808 2.585-1.657 1.723.226 2.28 1.356 2.28 3.543v11.983l-.353-.077-.406-.074-.304-.076-.355-.074v2.864l2.331.527 2.332.678 2.332.678 2.382.905v-3.09l-.304-.151-.356-.075-.303-.074-.305-.076v-15.377c0-3.015-1.063-7.01-4.966-7.31-2.788-.151-4.511 1.356-6.59 3.392v-8.969l.303-.152.305-.15.356-.075.355-.152v-3.09l-2.332.98-2.331.98-2.332.98-2.332.903v2.638l.305-.15c.102.076.254-.074.304-.074l.355-.152.354-.075v21.933l-.354-.074h-.355l-.355-.078h-.305v2.638l2.332.3 2.383.378 2.382.453 2.382.452m15.306-1.431c0 4.595 1.267 7.46 4.612 8.968 2.332 1.13 4.41.152 6.233-1.13l-.253-.754-.253-.83-.203-.678-.202-.678c-.558.301-1.166.378-1.773.075-.558-.226-1.47-1.13-1.47-2.863V150.92l.658.075.659.15.658.15.71.152.102-1.206.1-1.055c.052-.301.154-.754.154-1.13l.202-1.056-.862-.227-.812-.074-.81-.15-.76-.077v-2.262c0-1.506.115-4.075.368-5.507l-.558-.15-.557-.227-.557-.226-.558-.151c-1.114 4.146-3.763 7.846-6.602 8.6v2.862l.406.076.456.076h.455l.457.15v15.528m28.816-29.147l-.265.727-.221.887-.221.807-.222.81c-1.591-2.666-3.581-4.685-5.481-4.685-4.643 0-9.317 4.38-9.317 13.18 0 15.663 13.384 23.314 13.384 32.034 0 3.23-.972 3.634-2.033 2.664-3.45-2.743-6.5-11.787-8.711-18.165-.266.807-.664 1.696-.973 2.42l-.928 2.343-.744 1.572-.836 1.317c2.875 5.974 5.603 14.76 9.184 17.908 4.73 4.844 13.087.308 13.087-11.48 0-24.223-16.05-24.657-16.05-32.893 0-1.777 1.062-3.15 1.769-3.068 2.61.403 5.041 7.025 6.854 11.788l.929-3.472.883-3.473.928-3.712c.31-1.131.708-2.423.973-3.634l-.485-1.05-.532-.97-.485-1.048-.487-.807" fill="#A80C30"/></g></svg>