<svg width="200" height="200" xmlns="http://www.w3.org/2000/svg" xmlns:xlink="http://www.w3.org/1999/xlink"><defs><path d="M19.1 16.675c-.83.275-.32 4.405-3.597 5.223-5.476 1.367-8.304-.275-8.304-.275s-6.09-2.474-6.92-5.497c-.622-2.266 0-4.123.83-5.771.83-1.65 2.886-4.612 4.196-6.055C8.215 1.1 11.903 0 11.903 0s-.739 4.215-.51 6.498c.197 1.935.279 3.574 1.109 4.399.83.824 2.536 1.641 5.258 1.648 2.724.007 4.846 1.564 4.846 1.564L19.1 16.675" id="a"/><linearGradient x1=".442%" y1="108.468%" x2="99.897%" y2="108.468%" id="c"><stop stop-color="#FFF" offset="0%"/><stop stop-color="#FFF" offset="60.145%"/><stop stop-color="#FFF" offset="100%"/></linearGradient></defs><g fill="none" fill-rule="evenodd"><path d="M193.794 82.206l-16.021-.185-.135.003-3.188-.036-3.884 6.788c-.218-.296-5.11-6.898-5.11-6.898l-15.816-.183-.135.003-3.188-.035-.625 1.092-.86-1.167-3.696 1.152c-.596.186-14.627 4.561-18.726 6.152l-1.32.54c-.498.21-1.425.641-4.531 2.27-2.304 1.208-4.774 2.86-7.551 5.052l-.08.063-4.077-5.536-3.697 1.152c-.595.185-14.627 4.56-18.726 6.151l-1.323.542c-4.462 1.966-10.459 5.183-11.734 6.04-.207-.21-3.112-3.424-3.112-3.424l-40.711 7.189-22.005 5.308s21.372 6.29 21.445 6.296c-4.225 8.35-13.98 28.331-14.918 30.184C8.486 151.836 0 158.31 0 158.31l5.221 13.148 27.972-5.926s7.423-17.328 7.46-17.407c0-.061 8.367-1.415 8.391-1.42 1.306 3.766 4.116 6.57 5.274 7.53 4.818 3.982 12.502 4.09 22.224.314 2.048-.792 4.457-1.917 7.359-3.437 3.05-1.595 6.415-3.877 10-6.78l.082-.066c.11.097.227.2.319.277 4.817 3.981 12.5 4.089 22.222.314 2.05-.792 4.458-1.917 7.36-3.438 1.833-.959 2.929-1.94 4.974-3.386 1.305 1.297 2.33 2.13 4.01 3.24 0 0 2.795 1.46 5.687 2.13 2.797.649 5.118.806 7.459.834l6.154-.648c2.704-.556 4.794-1.19 8.093-2.245 2.8-.89 5.727-2.362 8.941-4.5a44.536 44.536 0 0 0 8.496-7.354 51.78 51.78 0 0 0 6.381-8.81l.035-.06 15.66-29.08-5.98-9.335" fill="#274D87" fill-rule="nonzero"/><path d="M190.798 87.27l-.16-.001-13.092-.151-16.496 28.827c-1.5 2.62-3.317 4.637-5.448 6.05-2.057 1.364-4.2 2.05-6.425 2.073-.429-1.456.075-3.443 1.516-5.961l14.802-27.167-2.962-3.997-13.12-.152-16.108 28.15c-1.327 2.318-2.438 4.986-3.33 8-.56 1.876-.652 3.702-.273 5.477.38 1.777.789 2.923 1.518 4.215.87 1.543 1.274 2.346 2.86 3.457 2.421 1.698 3.573 1.79 8.08 2.592 2.292.409 5.16.062 7.397-.308 3.586-.594 5.817-1.016 9.013-2.037 2.296-.73 4.697-2.39 7.459-4.228a39.008 39.008 0 0 0 7.466-6.463 46.146 46.146 0 0 0 5.72-7.892L193.35 91.5l-2.553-4.23" fill="#D0AB6B" fill-rule="nonzero"/><path d="M144.505 140.153c-.88 0-1.754-.058-2.573-.204l-1.026-.181c-3.72-.655-5.111-.9-7.574-2.627-1.75-1.227-2.296-2.197-3.123-3.666l-.12-.213c-.785-1.391-1.249-2.674-1.655-4.577-.422-1.978-.322-4.033.297-6.109.915-3.089 2.075-5.872 3.447-8.27l16.486-28.81 14.53.168 3.832 5.17-15.193 27.885c-1.054 1.841-1.43 3.111-1.496 3.978 1.559-.209 3.082-.802 4.546-1.772 1.953-1.295 3.648-3.184 5.04-5.615l16.874-29.488 14.739.168 3.304 5.476-14.483 26.895a47.711 47.711 0 0 1-5.894 8.14 40.441 40.441 0 0 1-7.713 6.678l-.568.378c-2.632 1.755-4.905 3.27-7.216 4.006-3.386 1.081-5.733 1.507-9.196 2.08-1.452.24-3.371.51-5.265.51zm5.657-52.066l-15.73 27.49c-1.274 2.226-2.356 4.826-3.214 7.727-.497 1.664-.58 3.293-.248 4.847.356 1.67.717 2.678 1.38 3.854l.121.215c.768 1.364 1.086 1.929 2.356 2.819 1.99 1.395 2.952 1.564 6.532 2.195l1.03.182c2.19.39 5.018.009 6.955-.311 3.347-.554 5.611-.965 8.83-1.993 1.963-.624 4.095-2.046 6.563-3.692l.57-.38a37.878 37.878 0 0 0 7.22-6.25 45.031 45.031 0 0 0 5.56-7.672l13.775-25.58-1.803-2.989-11.764-.136-16.119 28.168c-1.593 2.783-3.562 4.965-5.854 6.485-2.254 1.494-4.654 2.264-7.131 2.289l-.981.01-.276-.935c-.538-1.824-.004-4.1 1.632-6.959l14.398-26.426-2.092-2.822-11.71-.136z" fill="#D0AB6B" fill-rule="nonzero"/><path d="M143.832 135.093c3.635.042 7.052-.449 10.248-1.47 2.296-.73 4.825-2.014 7.588-3.85a39.004 39.004 0 0 0 7.466-6.463 46.147 46.147 0 0 0 5.719-7.893l14.81-25.883 1.298-2.266-13.283-.154-16.496 28.829c-1.499 2.62-3.316 4.636-5.447 6.05-2.057 1.363-4.2 2.05-6.425 2.071-.08.001-.159.008-.239.007-2.332-.027-3.741-.772-4.226-2.237-.484-1.465.012-3.486 1.487-6.063l15.199-26.562 1.297-2.267-13.282-.154-16.108 28.15c-1.327 2.318-2.439 4.986-3.332 8-.559 1.875-.65 3.701-.271 5.477.379 1.776 1.13 3.153 2.253 4.126.914.795 2.227 1.378 3.922 1.758a17.6 17.6 0 0 0 1.215.232c2.301.35 4.504.538 6.607.562" fill="#FFF" fill-rule="nonzero"/><path d="M144.845 121.834c.485 1.465 1.894 2.21 4.226 2.237.08.001.16-.006.24-.007-.43-1.456.073-3.442 1.514-5.96l14.803-27.167-2.866-4.168-16.43 29.002c-1.475 2.577-1.97 4.598-1.487 6.063" fill="#0D966A" fill-rule="nonzero"/><path d="M190.878 87.16l-15.995 28.287a46.147 46.147 0 0 1-5.719 7.893 39.006 39.006 0 0 1-7.466 6.463c-2.762 1.836-5.291 3.12-7.587 3.85-3.197 1.021-6.576 1.43-10.211 1.387-2.103-.024-6.056-.362-8.33-.864-1.118-.247-2.486-.74-4.475-2.469-.9-.956.217 2.14 3.108 4.321 3.108 2.346 6.842 2.478 8.578 2.593 1.865.123 4.564.146 7.211-.247 3.531-.524 6.181-1.316 8.205-1.976 2.29-.746 5.232-2.425 7.995-4.262a38.982 38.982 0 0 0 7.466-6.463 46.15 46.15 0 0 0 5.719-7.892l14.137-26.252-2.636-4.368" fill="#0D966A" fill-rule="nonzero"/><path d="M129.293 118.498l-11.438 1.975-1.01 2.652s-3.67 1.541-4.459 1.78l-.097-.174c.527-2.428.97-3.885 1.087-4.24l1.858-4.328c.823-1.786 2.008-3.467 4.058-4.59 3.382-1.848 4.415-1.943 4.588-2.012 1.162-.448 6.585-1.469 6.585-1.469l15.117-16.157-3.166-4.117s-14.315 4.43-18.287 5.973c-.274.106-.67.27-1.189.487-.52.218-1.886.908-4.11 2.072-2.216 1.164-4.735 2.89-7.55 5.177-2.813 2.288-5.839 5.378-9.07 9.273-3.227 3.895-5.567 8.025-7.02 12.39-.795 2.396-1.156 7.766-1.156 7.766s-.176 1.495.639 4.794c.518 2.107 2.437 3.876 3.06 4.39 3.912 3.235 11.063 1.664 16.79-.56 1.859-.72 4.086-1.761 6.806-3.186 2.736-1.432 5.798-3.513 9.105-6.192l.57-.459 2.143-6.06-3.854-5.185" fill="#D0AB6B" fill-rule="nonzero"/><path d="M103.836 143.273c-2.619 0-5.055-.59-6.933-2.142-.66-.546-2.863-2.525-3.49-5.075-.8-3.242-.702-4.892-.671-5.209.03-.441.398-5.595 1.217-8.061 1.498-4.5 3.937-8.807 7.25-12.804 3.265-3.936 6.377-7.116 9.25-9.451 2.868-2.33 5.48-4.12 7.764-5.32 3.05-1.595 3.864-1.973 4.212-2.12.545-.226.946-.393 1.224-.5 3.967-1.54 17.784-5.82 18.37-6.002l.867-.268 4.38 5.696-16.151 17.262-.419.079c-2.051.386-5.591 1.108-6.357 1.404a2.417 2.417 0 0 1-.28.083c-.919.228-2.316.852-4.152 1.856-1.516.83-2.63 2.101-3.504 3.998l-1.821 4.245c-.104.322-.3.99-.54 1.94.595-.242 1.227-.502 1.778-.732l1.074-2.822 12.957-2.238 4.737 6.374-2.492 7.048-.855.689c-3.37 2.728-6.505 4.86-9.318 6.33-2.758 1.445-5.028 2.507-6.939 3.246-3.369 1.309-7.446 2.494-11.158 2.494zm-8.513-12.168s-.12 1.382.61 4.338c.46 1.87 2.409 3.526 2.63 3.708 3.755 3.104 11.315.849 15.488-.77 1.82-.705 4.002-1.727 6.672-3.126 2.661-1.392 5.653-3.428 8.891-6.051l.288-.232 1.794-5.073-2.97-3.996-9.92 1.713-.943 2.48-.512.215c-.382.16-3.756 1.575-4.587 1.826l-1 .303-.846-1.505.103-.475c.49-2.257.937-3.81 1.124-4.373l.038-.1 1.857-4.329c1.132-2.455 2.596-4.102 4.625-5.213 3.064-1.674 4.352-1.994 4.776-2.099l.027-.006c1.179-.427 4.895-1.158 6.336-1.433l14.084-15.053-1.952-2.537c-3.154.982-14.011 4.383-17.335 5.674-.266.102-.645.26-1.142.467-.484.203-1.833.885-4.025 2.032-2.13 1.118-4.597 2.812-7.333 5.034-2.741 2.229-5.732 5.289-8.89 9.095-3.108 3.75-5.392 7.78-6.79 11.975-.734 2.212-1.089 7.395-1.093 7.447l-.005.064zm28.174-22.788c-.038.017-.072.035-.1.049l.1-.05z" fill="#D0AB6B" fill-rule="nonzero"/><path d="M126.697 126.431c-3.184 2.58-6.076 4.55-8.667 5.906-2.594 1.358-4.773 2.382-6.543 3.067-5.267 2.046-9.405 2.556-12.402 1.53-3.001-1.02-4.563-3-4.684-5.93-.125-2.93.213-5.593 1.009-7.99 1.453-4.365 3.791-8.495 7.02-12.389 3.232-3.895 6.254-6.985 9.07-9.272 2.815-2.287 5.332-4.014 7.552-5.178 2.219-1.164 3.588-1.853 4.108-2.071.517-.217.913-.38 1.188-.487 3.973-1.542 18.376-6.03 18.376-6.03l-14.997 15.725c-.172-.103-4.684.946-6.534 1.662-.59.231-2.096.889-4.626 2.274-2.534 1.386-4.975 3.906-6.03 6.196-1.05 2.289-1.629 3.587-1.729 3.894a83.43 83.43 0 0 1-.231.694c-.23.693-.633 2.395-1.208 5.103-.577 2.707 2.049 2.933 7.869.675l1.829-.86.913-2.354 11.437-1.852-2.72 7.687" fill="#FFF" fill-rule="nonzero"/><path d="M102.456 137.521c-1.261 0-2.395-.17-3.396-.514-3.02-1.026-4.615-3.045-4.737-6-.124-2.922.217-5.619 1.014-8.016 1.45-4.359 3.816-8.536 7.033-12.415 3.22-3.88 6.274-7.003 9.08-9.283 2.812-2.283 5.357-4.028 7.566-5.187 2.204-1.155 3.588-1.852 4.114-2.074.515-.215.914-.38 1.19-.486 3.93-1.526 18.237-5.987 18.38-6.032l.286-.089-15.246 15.985-.054-.032c-.242-.052-4.596.944-6.465 1.668-.389.153-1.872.767-4.616 2.27-2.527 1.382-4.937 3.857-5.997 6.16-1.081 2.355-1.63 3.59-1.726 3.886-.103.311-.179.54-.232.695-.23.69-.624 2.356-1.205 5.094-.17.801-.052 1.38.354 1.722.938.79 3.432.41 7.41-1.135l1.796-.845.918-2.366.044-.007 11.567-1.873-2.77 7.83-.018.014c-3.176 2.572-6.096 4.562-8.68 5.915-2.64 1.381-4.782 2.386-6.551 3.07-3.506 1.362-6.538 2.045-9.059 2.045zm40.006-49.77c-2.047.64-14.47 4.534-18.086 5.938-.274.106-.672.27-1.185.486-.523.219-1.903.914-4.103 2.068-2.2 1.153-4.736 2.893-7.54 5.17-2.798 2.273-5.845 5.39-9.058 9.262-3.205 3.864-5.562 8.024-7.006 12.364-.79 2.38-1.13 5.058-1.006 7.961.12 2.885 1.678 4.858 4.632 5.862 2.968 1.016 7.123.5 12.348-1.53 1.74-.672 3.938-1.703 6.536-3.063 2.57-1.345 5.476-3.325 8.637-5.884l2.67-7.544-11.265 1.824-.908 2.341-.029.014-1.828.86c-4.097 1.59-6.574 1.953-7.573 1.11-.452-.38-.588-1.01-.405-1.87.582-2.744.979-4.416 1.21-5.112.053-.156.13-.383.232-.694.097-.302.648-1.541 1.732-3.901 1.072-2.331 3.509-4.836 6.062-6.232 2.753-1.508 4.244-2.125 4.636-2.278 1.631-.632 5.844-1.67 6.52-1.67h.009l14.768-15.483z" fill="#FFF" fill-rule="nonzero"/><path d="M127.852 103.158c-1.46.271-4.134.82-5.654 1.407-.494.192-1.64.386-5.13 2.294-3.024 1.656-5.513 4.18-6.798 6.972l-1.693 4.201c-.392.71-1.037 3.663-1.216 6.039-.178 2.386 5.858.465 5.087.595.525-2.428 1.03-3.995 1.15-4.348l1.858-4.329c.82-1.788 2.214-3.198 4.263-4.322 3.381-1.848 4.208-2.212 4.378-2.28 1.164-.449 6.587-1.469 6.587-1.469l15.114-16.157-3.163-4.117s-13.753 14.244-14.783 15.514" fill="#0D966A" fill-rule="nonzero"/><path d="M129.422 118.602c-2.01 5.682-2.274 6.856-2.616 7.826-2.815 2.236-5.413 4.02-7.69 5.21-2.508 1.313-4.617 2.304-6.27 2.944-6.198 2.406-8.956 3.18-12.097 2.731-.167-.024-5.788-.502-6.495-6.532 0 0-.175 1.495.639 4.794.519 2.108 2.436 3.876 3.06 4.391 3.913 3.234 11.062 1.665 16.79-.562 1.857-.72 4.086-1.762 6.807-3.186 2.732-1.43 5.797-3.511 9.101-6.19l.572-.461 1.833-5.895-3.634-5.07" fill="#0D966A" fill-rule="nonzero"/><path d="M93.571 116.247L78.66 122.15l-5.329 8.628 4.878-2.012-1.345 4.052s-3.67 1.541-4.459 1.779l-.098-.174c.528-2.427.97-3.885 1.088-4.239l1.858-4.328c.822-1.786 2.007-3.469 4.057-4.592 3.383-1.848 4.415-1.942 4.588-2.01 1.162-.45 6.585-1.47 6.585-1.47l15.118-16.156-3.167-4.117s-14.314 4.43-18.286 5.972c-.274.106-.67.271-1.19.487-.519.218-1.885.91-4.11 2.072-2.216 1.165-4.734 2.892-7.549 5.178-2.814 2.286-5.839 5.377-9.07 9.273-3.228 3.894-5.567 8.024-7.02 12.388-.796 2.397-1.156 7.768-1.156 7.768s-.176 1.494.638 4.793c.519 2.108 2.437 3.876 3.06 4.392 3.912 3.233 11.063 1.662 16.791-.563 1.858-.718 4.085-1.76 6.805-3.185 2.737-1.432 5.798-3.513 9.105-6.191l.57-.459 6.184-18.118-3.634-5.07" fill="#D0AB6B" fill-rule="nonzero"/><path d="M63.853 152.965c-2.618 0-5.055-.59-6.933-2.142-.66-.547-2.863-2.529-3.49-5.075-.8-3.24-.701-4.89-.67-5.208.03-.44.397-5.595 1.216-8.062 1.498-4.5 3.938-8.807 7.251-12.804 3.263-3.935 6.375-7.115 9.25-9.45 2.867-2.33 5.479-4.12 7.763-5.32 2.363-1.236 3.662-1.89 4.214-2.12.55-.229.945-.393 1.22-.5 3.97-1.542 17.787-5.821 18.373-6.002l.866-.268 4.381 5.695-12.77 13.647 4.123 5.753-6.517 19.093-.862.693c-3.37 2.73-6.506 4.86-9.317 6.33-2.764 1.448-5.034 2.51-6.94 3.247-3.369 1.308-7.446 2.493-11.158 2.493zm-8.513-12.167s-.12 1.382.61 4.337c.46 1.869 2.41 3.527 2.63 3.71 3.755 3.103 11.317.847 15.489-.773 1.814-.701 3.996-1.723 6.672-3.125 2.66-1.391 5.651-3.427 8.891-6.05l.282-.227 5.85-17.142-2.659-3.71-1.404.556-.558.597-.42.079c-.424.08-.913.174-1.427.276l-9.757 3.862-3.011 4.876 3.798-1.567-2.415 7.279-.542.228c-.383.16-3.757 1.575-4.588 1.825l-1 .302-.846-1.504.104-.475c.088-.408.174-.787.256-1.14l-1.163.48 1.78-2.88c.15-.528.242-.807.25-.832l.039-.101 1.858-4.328c1.13-2.457 2.596-4.104 4.624-5.214 3.065-1.675 4.353-1.994 4.776-2.099l.026-.006c.913-.331 3.351-.844 5.073-1.187l1.64-.65 13.707-14.648-1.951-2.537c-3.154.982-14.011 4.382-17.335 5.673-.262.101-.638.258-1.13.463-.489.205-1.838.885-4.038 2.036-2.13 1.12-4.597 2.814-7.332 5.035-2.743 2.228-5.734 5.289-8.89 9.094-3.108 3.75-5.393 7.78-6.79 11.975-.61 1.838-.996 6-1.093 7.448l-.006.064zm18.938-9.016c-.063.232-.133.496-.208.794a200.16 200.16 0 0 0 1.746-.718l.273-.824-1.811.748zm9.237-13.773l-.1.049.1-.05z" fill="#D0AB6B" fill-rule="nonzero"/><path d="M55.428 132.708c1.453-4.366 3.791-8.497 7.02-12.391 3.231-3.895 6.254-6.985 9.069-9.271 2.815-2.287 5.333-4.015 7.553-5.18 2.219-1.163 3.587-1.852 4.108-2.07a51.2 51.2 0 0 1 1.187-.487c3.974-1.542 18.377-6.03 18.377-6.03l-14.998 15.725c-.171-.102-4.684.946-6.533 1.662-.59.231-2.097.89-4.627 2.274-2.533 1.385-4.975 3.906-6.029 6.196-1.051 2.289-1.63 3.587-1.73 3.894-.102.311-.178.539-.23.694-.231.694-.633 2.396-1.209 5.104-.576 2.707 2.05 2.932 7.87.674l1.828-.86 1.345-4.05-4.88 2.013 5.331-8.631 14.911-5.901-7.076 20.051c-3.185 2.58-6.076 4.55-8.667 5.905-2.594 1.359-4.773 2.383-6.544 3.067-5.266 2.047-9.405 2.557-12.401 1.532-3.002-1.022-4.563-3.002-4.684-5.932" fill="#FFF" fill-rule="nonzero"/><path d="M62.473 147.214c-1.26 0-2.394-.17-3.396-.514-3.02-1.027-4.614-3.046-4.736-6l.155-.007c.12 2.884 1.678 4.856 4.632 5.862 2.968 1.015 7.122.5 12.348-1.53 1.74-.673 3.938-1.703 6.535-3.064 2.57-1.344 5.476-3.323 8.638-5.883l7.012-19.87-14.728 5.828-5.193 8.406 4.816-1.986-1.408 4.241-.03.015-1.829.86c-4.098 1.59-6.574 1.953-7.573 1.11-.453-.38-.589-1.01-.405-1.87.582-2.744.978-4.415 1.21-5.112.053-.156.128-.383.23-.694.1-.303.65-1.543 1.733-3.902 1.074-2.331 3.51-4.835 6.063-6.231 2.747-1.504 4.243-2.125 4.635-2.279 1.631-.631 5.847-1.668 6.52-1.668h.01l14.768-15.484c-2.047.64-14.47 4.536-18.087 5.94-.299.114-.746.3-1.185.485-.518.217-1.898.912-4.102 2.068-2.198 1.153-4.735 2.892-7.54 5.17-2.797 2.272-5.845 5.388-9.059 9.26-3.204 3.866-5.561 8.026-7.005 12.367l-.148-.049c1.45-4.358 3.817-8.535 7.034-12.415 3.22-3.88 6.275-7.004 9.08-9.282 2.813-2.284 5.358-4.03 7.566-5.187 2.208-1.158 3.592-1.855 4.114-2.074.44-.185.888-.372 1.19-.487 3.93-1.526 18.237-5.987 18.38-6.032l.285-.089-15.245 15.985-.053-.032c-.237-.048-4.597.945-6.466 1.668-.39.153-1.879.77-4.617 2.27-2.526 1.381-4.936 3.856-5.996 6.16-1.081 2.354-1.63 3.588-1.726 3.885-.103.313-.18.54-.232.696-.23.69-.624 2.357-1.205 5.094-.171.802-.052 1.38.353 1.722.939.79 3.433.409 7.412-1.135l1.793-.844 1.281-3.859-4.945 2.04 5.47-8.855.025-.01 15.069-5.963-.057.16-7.083 20.07-.017.015c-3.176 2.573-6.097 4.562-8.68 5.914-2.64 1.382-4.782 2.386-6.552 3.07-3.506 1.363-6.537 2.046-9.059 2.046" fill="#FFF" fill-rule="nonzero"/><path d="M87.87 112.85c-1.46.271-4.134.82-5.654 1.407-.494.192-1.64.385-5.13 2.293-3.024 1.656-5.513 4.18-6.798 6.973l-1.693 4.201c-.392.71-1.037 3.663-1.216 6.04-.178 2.386 5.858.465 5.087.595.525-2.429 1.03-3.995 1.149-4.348l1.859-4.33c.819-1.787 2.214-3.198 4.263-4.323 3.38-1.847 4.208-2.212 4.378-2.28 1.164-.448 6.586-1.469 6.586-1.469l15.115-16.155-3.164-4.118S88.9 111.58 87.87 112.85" fill="#0D966A" fill-rule="nonzero"/><path d="M93.791 116.073c-2.01 5.682-6.625 19.077-6.968 20.047-2.814 2.237-5.412 4.02-7.689 5.21-2.508 1.313-4.618 2.304-6.27 2.944-6.198 2.406-8.957 3.18-12.098 2.731-.167-.024-5.788-.502-6.494-6.532 0 0-.176 1.496.639 4.795.519 2.107 2.435 3.876 3.059 4.39 3.913 3.235 11.062 1.665 16.791-.56 1.857-.721 4.085-1.763 6.807-3.188 2.731-1.43 5.796-3.511 9.1-6.19l.573-.46 6.184-18.117-3.634-5.07" fill="#0D966A" fill-rule="nonzero"/><path fill="#0D966A" fill-rule="nonzero" d="M78.43 128.592l-4.881 2.013 2.195 2.634 1.34-.597 1.345-4.05"/><path fill="#D0AB6B" fill-rule="nonzero" d="M13.52 114.514l12.135 2.39.051-4.522z"/><path d="M64.49 106.754l.146.013 3.208 4.3-9.324 13.569s-11.826 2.398-13.2 2.663l-.413.986 4.797-.946 2.406 2.532-5.908 11.79s-9.092 1.774-9.112 1.756c.02.018-7.688 17.3-7.688 17.3l-21.296 4.485-2.169-5.312 7.434-5.244L32.4 117.052l-11.867-2.461 43.957-7.837" fill="#D0AB6B" fill-rule="nonzero"/><path d="M7.313 166.686L4.35 159.43l8.007-5.648 18.126-35.811-10.217-2.12.036-2.528 44.13-7.867.9.08 4.104 5.5-10.14 14.757-.516.105c-.267.054-3.87.784-7.266 1.47l2.16 2.273-6.596 13.16-.627.123s-2.273.444-4.55.886l-3.134.605-.76.143-.053.123-.87 1.966a14434.26 14434.26 0 0 1-6.496 14.592l-.269.602-23.006 4.845zm.212-6.336l1.375 3.37 19.584-4.125c2.97-6.658 7.208-16.178 7.395-16.639l1.195.48.893-.967a1.31 1.31 0 0 0-1.055-.327c.346-.053 5.005-.958 8.413-1.622l5.22-10.417-1.293-1.361-6.475 1.277 1.612-3.852.684-.132a4519.44 4519.44 0 0 0 12.672-2.556l8.508-12.38-2.206-2.957-36.712 6.545 6.98 1.448-19.93 39.376-6.86 4.84z" fill="#D0AB6B" fill-rule="nonzero"/><path d="M55.532 119.678a5317.85 5317.85 0 0 0-13.707 2.792l-2.284 4.553 5.545 1.196s-.14-.023.368-1.027c1.375-.265 13.201-2.663 13.201-2.663l9.324-13.568-3.207-4.302s-8.555 12.047-9.24 13.02" fill="#0D966A" fill-rule="nonzero"/><path d="M42.952 136.754l-9.124 1.757-7.724 17.33-20.012 3.95 2.113 5.247 20.948-4.32s7.537-16.35 8.072-17.409l9.112-1.754 6.097-11.775-3.84-4.524s-5.011 10.27-5.642 11.498" fill="#0D966A" fill-rule="nonzero"/><path fill="#FFF" fill-rule="nonzero" d="M25.92 155.78l-19.848 4.002 7.433-5.244 19.029-37.593-12.002-2.354 44.092-7.944-8.99 13.122-13.763 2.653-2.33 4.601 9.119-1.758-5.737 11.334-9.12 1.757-7.882 17.423"/><path d="M6.088 159.858l-.06-.139 7.417-5.232L32.418 117l-11.902-2.335.002-.151 44.275-7.977-9.113 13.3-.031.007-13.726 2.645-2.242 4.427 9.119-1.758-.07.14-5.755 11.369-9.117 1.756-7.883 17.423-.039.008-19.848 4.003zm14.86-45.264l11.7 2.295-.045.09-19.037 37.61-.016.012-7.134 5.033 19.45-3.922 7.883-17.424 9.122-1.757 5.649-11.16-9.119 1.758 2.417-4.776 13.77-2.653 8.868-12.944-43.508 7.838z" fill="#FFF" fill-rule="nonzero"/><path d="M157.643 57.335s-3.48 4.682-4.368 4.9c.369-1.549 1.351-7.086 1.351-8.5 0-3.773-1.207-6.894-3.06-8.428l-2.44-2.02-1.064 2.975c-.014.035-1.044 2.832-2.787 5.275.059-.132.117-.244.175-.38.498-1.163.71-2.431.71-3.729 0-4.459-2.5-9.25-4.411-11.148l-3.02-3-.73 4.2c-.008.042-.78 4.22-5.656 9.06-.19.19-.605.53-1.119.935.114-.646.2-1.278.2-1.855 0-2.9-1.285-4.912-2.203-5.745l-2.862-2.594-.803 3.793c-.005.018-.414 1.873-2.4 4.647-1.823 2.546-3.48 4.456-4.913 5.932-.032-.606-.06-1.23-.132-1.747-.007-.06-1.176-4.727-4.298-6.2l-2.121-1.579s-.981 6.542-2.748 11.46c-1.726 4.8-3.9 7.862-6.777 11.09-.938.242-2.988.719-4.75.83-4.888.31-6.976 1.688-8.756 3.811-1.015 1.209-1.339 2.678-1.339 3.974 0 .98.185 1.864.395 2.462.362 1.031.826 1.874 1.393 2.555-.74.2-1.273.424-1.54.558-1.213.494-7.141 3.085-8.201 6.947a9.104 9.104 0 0 0-.333 2.42c0 1.973.666 3.616 1.32 4.913.917 1.827 3.08 4.947 4.532 6.544 3.284 3.614 7.43 4.88 7.605 4.931l3.43 1.022-.611-3.504c-.164-.933-.522-3.393-.522-5.103 0-.292.01-.563.034-.8l.053-.535c.003-.043.006-.09.013-.133 2.156.851 6.583 2.031 12.856.863 3.872-.721 5.818-1.765 6.374-3.422.47.104.935.17 1.39.161 9.471-.22 14.191-2.047 18.959-4.233 5.541-2.541 9.576-5.532 15.562-10.156 1.86-1.435 8.025-6.674 9.308-13.808.579-3.214-1.46-7.196-1.696-7.64" fill="#274D87" fill-rule="nonzero"/><path d="M97.856 107.81l-5.804-1.73c-.484-.145-4.805-1.521-8.302-5.369-1.558-1.714-3.785-4.932-4.766-6.885-.635-1.26-1.481-3.213-1.481-5.593 0-.934.13-1.883.386-2.819 1.182-4.301 6.898-7.036 8.916-7.88a11.417 11.417 0 0 1-.535-1.278 9.125 9.125 0 0 1-.48-2.964c0-1.918.585-3.629 1.694-4.949 1.983-2.364 4.415-4.01 9.836-4.355 1.441-.09 3.124-.458 4.01-.672 2.61-2.97 4.567-5.781 6.17-10.24 1.697-4.724 2.666-11.11 2.675-11.173l.379-2.525 4.064 3.026c2.564 1.292 3.955 4.178 4.586 5.914a53.457 53.457 0 0 0 2.702-3.479c1.69-2.36 2.122-3.971 2.154-4.1l1.352-6.378 4.842 4.39c1.049.951 2.156 2.702 2.55 5.04 3.1-3.672 3.682-6.56 3.69-6.592l1.227-7.072 5.112 5.077c1.549 1.538 3.583 4.91 4.445 8.703l1.14-3.187 4.13 3.419c2.26 1.871 3.61 5.459 3.61 9.595 0 .686-.18 2.08-.416 3.578.229-.297.454-.593.668-.881l1.45-1.952 1.139 2.146c.424.799 2.505 4.97 1.849 8.616-1.38 7.671-7.909 13.224-9.877 14.743-6.071 4.69-10.17 7.727-15.86 10.336-4.925 2.258-9.798 4.146-19.565 4.373a6.068 6.068 0 0 1-.575-.017c-1.39 1.96-4.238 2.748-6.943 3.252-5.104.95-9.09.417-11.692-.284.068 1.58.363 3.537.486 4.234l1.034 5.931zm14.92-62.973c-.454 2.402-1.26 6.122-2.39 9.261-1.825 5.08-4.147 8.306-7.072 11.587l-.31.347-.451.117c-.86.222-3.071.753-5.04.877-4.36.277-6.115 1.407-7.674 3.266-.814.969-.985 2.166-.985 3 0 .675.116 1.408.31 1.961.3.853.67 1.536 1.127 2.087l1.514 1.817-2.292.62c-.745.202-1.172.408-1.25.448l-.112.05c-2.946 1.2-6.627 3.475-7.304 5.939a7.65 7.65 0 0 0-.279 2.02c0 1.715.619 3.162 1.158 4.231.852 1.696 2.94 4.711 4.3 6.207 2.991 3.29 6.75 4.446 6.91 4.493l1.054.314-.189-1.08c-.187-1.07-.544-3.57-.544-5.362 0-.347.014-.665.041-.946l.051-.518a4.21 4.21 0 0 1 .023-.22l.276-1.912 1.808.714c1.94.766 6.078 1.886 12.007.781 3.155-.587 4.856-1.375 5.203-2.407l.436-1.302 1.35.298a4.5 4.5 0 0 0 1.026.125c9.175-.213 13.738-1.98 18.348-4.094 5.393-2.472 9.364-5.418 15.263-9.975 1.751-1.351 7.554-6.272 8.742-12.875.252-1.405-.127-3.057-.572-4.366-2.486 3.096-3.229 3.277-3.618 3.372l-2.434.595.577-2.423c.37-1.554 1.31-6.944 1.31-8.15 0-3.195-.962-5.976-2.51-7.257l-.75-.622-.35.972c-.186.495-1.242 3.185-2.96 5.59l-2.65-1.496a8.8 8.8 0 0 1 .092-.2c.025-.052.05-.102.073-.159.39-.91.588-1.964.588-3.134 0-4.004-2.301-8.422-3.962-10.072l-.93-.922-.225 1.305c-.097.508-1.049 4.88-6.083 9.878-.215.215-.578.52-1.25 1.05l-3.157 2.49.694-3.944c.123-.696.177-1.187.177-1.593 0-2.428-1.07-4.047-1.704-4.62l-.88-.799-.268 1.255c-.078.336-.613 2.324-2.634 5.147-1.64 2.29-3.294 4.287-5.058 6.106l-2.448 2.523-.197-3.704c-.025-.473-.05-.96-.1-1.345-.274-1.084-1.437-4.154-3.447-5.102l-.138-.065-.24-.179z" fill="#274D87" fill-rule="nonzero"/><path d="M98.89 77.687c-1.845.55-3.599.916-6.09.366-1.352-.298-2.397-1.008-3.135-3.114-.217-.615-.7-2.814.553-4.307 1.383-1.65 2.858-2.748 7.196-3.023 2.62-.166 5.827-1.06 5.856-1.093 3.001-3.305 5.587-6.64 7.614-12.283 1.846-5.131 2.584-8.43 2.584-8.43 1.015.093 2.079 2.664 2.305 4.307.279 2.015.463 4.948-1.384 7.422 0 0 4.523-2.383 10.426-10.629 2.357-3.293 2.768-5.405 2.768-5.497 0 .092 2.124 1.924 1.293 5.864-.605 2.869-4.522 7.788-4.522 7.788s8.041-5.695 9.41-7.056c5.536-5.497 6.275-10.26 6.275-10.26 2.215 2.199 4.93 8.498 3.23 12.46-2.122 4.947-3.97 6.688-7.66 9.161 0 0 5.906-.824 9.781-4.764 2.939-2.989 4.612-7.696 4.612-7.696 2.215 1.833 3.6 7.971.37 14.66-1.595 3.304-5.537 5.496-5.537 5.496 2.216 1.466 5.182.17 8.489-2.566 2.214-1.831 2.214-6.23 2.214-6.23s1.939 3.666 1.476 6.23c-.951 5.295-5.165 9.895-8.486 12.46-6.145 4.747-9.93 7.511-15.132 9.895-4.798 2.199-9.284 3.827-18.082 4.032-2.574.059-7.014-3.665-8.214-3.756-8.19-.628-8.21-9.437-8.21-9.437" fill="#FFF" fill-rule="nonzero"/><path d="M103.826 81.4s-.014-3.283 5.63-4.506c5.646-1.222 11.762-3.971 11.762-3.971s-3.137 6.23-6.09 9.711c-5.262 6.204-11.302-1.233-11.302-1.233" fill="#274D87" fill-rule="nonzero"/><path d="M116.006 79.52c0 2.732-2.232 4.946-4.983 4.946-2.751 0-4.983-2.214-4.983-4.947s2.232-4.947 4.983-4.947c2.751 0 4.983 2.214 4.983 4.947" fill="#274D87" fill-rule="nonzero"/><path d="M114.067 79.52c0 1.668-1.364 3.022-3.044 3.022-1.681 0-3.045-1.354-3.045-3.023 0-1.67 1.364-3.023 3.045-3.023 1.68 0 3.044 1.354 3.044 3.023" fill="#0D966A" fill-rule="nonzero"/><path d="M111.023 83.266c-2.08 0-3.774-1.68-3.774-3.747 0-2.066 1.693-3.747 3.774-3.747 2.08 0 3.773 1.68 3.773 3.747 0 2.066-1.693 3.747-3.773 3.747zm0-6.046a2.31 2.31 0 0 0-2.315 2.3 2.31 2.31 0 0 0 2.315 2.298 2.31 2.31 0 0 0 2.315-2.299 2.31 2.31 0 0 0-2.315-2.3z" fill="#0D966A" fill-rule="nonzero"/><path d="M111.61 79.77a1.39 1.39 0 0 1-1.395 1.386c-.771 0-1.393-.62-1.393-1.385 0-.764.622-1.385 1.393-1.385.77 0 1.395.62 1.395 1.385" fill="#FFF" fill-rule="nonzero"/><path d="M121.955 65.136s.552.785-3.876 4.083c-4.43 3.299-8.945 4.384-14.438 4.116-4.558-.222-5.536 6.597-.508 6.878 3.834.215 7.013-.97 10.195-2.205 7.19-2.794 10.38-5.085 11.21-8.658 1.128-4.85-2.583-4.214-2.583-4.214" fill="#274D87" fill-rule="nonzero"/><path d="M119.28 60.829s4.196 3.03-.232 6.329c-4.43 3.299-8.946 4.384-14.437 4.115-4.56-.222-5.535 6.597-.51 6.88 3.834.214 6.875-.557 10.197-2.207 6.905-3.428 10.517-5.496 10.839-9.337.415-4.961-5.858-5.78-5.858-5.78" fill="#FFF" fill-rule="nonzero"/><path d="M108.947 67.609c8.278-4.031 17.617-3.565 17.617-3.565s-6.915 1.549-11.805 3.198c-5.592 1.886-13.607 5.783-13.607 5.783s2.904-3.034 7.795-5.416m41.61 6.046c-9.963 9.988-21.174 13.285-21.174 13.285s10.932-6.265 16.33-10.994c4.705-4.122 9.717-11.237 9.717-11.237s.226 3.837-4.873 8.946" fill="#838CB7" fill-rule="nonzero"/><g transform="matrix(1 0 0 -1 81.082 102.425)"><mask id="b" fill="#fff"><use xlink:href="#a"/></mask><g mask="url(#b)" fill="url(#c)" fill-rule="nonzero"><path d="M19.1 16.675c-.83.275-.32 4.405-3.597 5.223-5.476 1.367-8.304-.275-8.304-.275s-6.09-2.474-6.92-5.497c-.622-2.266 0-4.123.83-5.771.83-1.65 2.886-4.612 4.196-6.055C8.215 1.1 11.903 0 11.903 0s-.739 4.215-.51 6.498c.197 1.935.279 3.574 1.109 4.399.83.824 2.536 1.641 5.258 1.648 2.724.007 4.846 1.564 4.846 1.564L19.1 16.675"/></g></g><path d="M106.456 89.047s-.74 1.65-2.676 2.2c-3.46.981-9.367 1.655-9.367 1.655 5.4 1.642 4.597 2.8 12.78 1.276 1.476-.276 7.43-1.473 3.323-3.665-1.952-1.041-4.06-1.466-4.06-1.466" fill="#D0AB6B" fill-rule="nonzero"/><path d="M96.653 80.527s-2.906-.55-3.668-.275c-1.947.703-4.98 1.657-6.435 2.473-2.025 1.135-4.424 3.905-3.736 6.872.771 3.321 4.845 8.314 4.845 8.314-6.507-12.162-1.454-13.056.967-14.704 1.21-.824 8.027-2.68 8.027-2.68" fill="#FFF" fill-rule="nonzero"/><path d="M98.936 86.574S95.2 88.36 96.86 88.36c1.66 0 4.427-.412 4.427-.412l-2.35-1.374" fill="#274D87" fill-rule="nonzero"/></g></svg>