<?xml version="1.0" encoding="UTF-8"?>
<svg width="200px" height="200px" viewBox="0 0 200 200" version="1.1" xmlns="http://www.w3.org/2000/svg" xmlns:xlink="http://www.w3.org/1999/xlink">
    <!-- Generator: Sketch 51.3 (57544) - http://www.bohemiancoding.com/sketch -->
    <title>fgcu</title>
    <desc>Created with Sketch.</desc>
    <defs>
        <path d="M19.0996732,16.6747397 C18.2698364,16.9499114 18.7800462,21.08045 15.5028434,21.8978174 C10.0266664,23.2647876 7.19850798,21.6230161 7.19850798,21.6230161 C7.19850798,21.6230161 1.10918412,19.1494334 0.278974352,16.126248 C-0.343123535,13.8596922 0.278974352,12.0034867 1.10918412,10.3546785 C1.93976685,8.70512962 3.99477845,5.74305233 5.30498821,4.29978961 C8.21445201,1.10105724 11.90303,0.001481409 11.90303,0.001481409 C11.90303,0.001481409 11.1641955,4.21571965 11.3931932,6.49931162 C11.5897433,8.43366142 11.6717946,10.0728405 12.5020043,10.8976149 C13.3318412,11.7216487 15.0377619,12.5393865 17.7603725,12.5464231 C20.4837291,12.5530895 22.6062465,14.1104207 22.6062465,14.1104207 L19.0996732,16.6747397" id="path-1"></path>
        <linearGradient x1="0.441948142%" y1="108.468353%" x2="99.8972624%" y2="108.468353%" id="linearGradient-3">
            <stop stop-color="#FFFFFF" offset="0%"></stop>
            <stop stop-color="#FFFFFF" offset="60.144949%"></stop>
            <stop stop-color="#FFFFFF" offset="100%"></stop>
        </linearGradient>
    </defs>
    <g id="fgcu" stroke="none" stroke-width="1" fill="none" fill-rule="evenodd">
        <g id="fgcu_BGL" transform="translate(0.000000, 29.850746)">
            <g id="fgcu">
                <g id="g10" transform="translate(99.953377, 70.870609) scale(-1, 1) rotate(-180.000000) translate(-99.953377, -70.870609) translate(0.000000, 0.133329)">
                    <g id="g12">
                        <path d="M193.793562,89.2526699 L177.772676,89.4378461 L177.638038,89.4348833 L174.450345,89.4704371 C174.450345,89.4704371 171.12242,83.6547957 170.566336,82.6829914 C170.347781,82.9781621 165.455287,89.5804317 165.455287,89.5804317 L149.639903,89.7633857 L149.504518,89.7604229 L146.317199,89.7959767 C146.317199,89.7959767 145.991232,89.2263749 145.692118,88.7034376 C145.288947,89.2508182 144.832444,89.8704175 144.832444,89.8704175 L141.136034,88.718622 C140.540416,88.5330755 126.509274,84.1573637 122.410067,82.5667008 C122.415288,82.5685526 121.089787,82.0263569 121.089787,82.0263569 C120.591512,81.8174782 119.665079,81.3852771 116.558692,79.7568383 C114.254916,78.5483789 111.784799,76.8958672 109.007736,74.7048632 C109.009974,74.706715 108.976408,74.6800496 108.928296,74.641533 C108.057806,75.8236974 104.851093,80.1779288 104.851093,80.1779288 L101.15431,79.0261333 C100.558692,78.8405868 86.5268044,74.464875 82.42797,72.8742121 C82.427597,72.8738417 81.1047066,72.3327571 81.1047066,72.3327571 C76.6433547,70.3669273 70.6461521,67.1496774 69.3706276,66.2930526 C69.1636346,66.5034127 66.2590193,69.7165888 66.2590193,69.7165888 L25.5477849,62.5280516 L3.54312345,57.2194225 C3.54312345,57.2194225 24.9150577,50.9297303 24.9883444,50.9234343 C20.762517,42.5745835 11.0077387,22.5924872 10.0699298,20.739726 C8.48615363,19.622151 0,13.1475048 0,13.1475048 L5.22144509,0 L33.1934724,5.92563599 C33.1934724,5.92563599 40.6161295,23.2540844 40.6526796,23.3321917 C40.6526796,23.3941146 49.0196724,24.7474928 49.0442878,24.7518259 C50.3496491,20.9863806 53.1599054,18.1819993 54.3183203,17.2232684 C59.1362223,13.2410929 66.8199517,13.1330241 76.5415365,16.9086171 C78.5898349,17.700245 80.9991588,18.8257455 83.9007904,20.3457823 C86.9508603,21.9409264 90.3160817,24.2221852 93.9006037,27.1251172 C93.9006037,27.1251172 93.9427482,27.1591156 93.982655,27.1912251 C94.0930513,27.0947483 94.2097879,26.9908645 94.3015361,26.9149053 C99.1186922,22.9336186 106.802422,22.8258461 116.524379,26.6009947 C118.573051,27.39303 120.982375,28.5181231 123.88326,30.038308 C125.716733,30.997187 126.812864,31.9793242 128.857806,33.4242905 C130.163167,32.1280576 131.188808,31.2947651 132.86713,30.1837083 C132.86713,30.1837083 135.66284,28.7244464 138.554775,28.0541829 C141.351978,27.4060664 143.67291,27.2483705 146.013982,27.2208903 C146.015474,27.2208903 152.167828,27.8690068 152.167828,27.8690068 C154.871791,28.4245351 156.962234,29.0589115 160.261441,30.1132673 C163.060882,31.0029645 165.988248,32.4760036 169.202047,34.613899 C172.331185,36.6945379 175.189553,39.1691946 177.698457,41.9679465 C180.155893,44.7096642 182.302653,47.6728526 184.079436,50.7767748 L184.113748,50.8371422 L199.773981,79.9183119 L193.793562,89.2526699" id="path14" fill="#274D87" fill-rule="nonzero"></path>
                        <path d="M190.797571,84.1884733 L190.63869,84.1899547 L177.545916,84.3410584 L161.049506,55.5132097 C159.550206,52.8937082 157.733143,50.8763995 155.60242,49.4631353 C153.545171,48.0994984 151.401768,47.4128653 149.177432,47.3906442 C148.748155,48.8468692 149.251651,50.833809 150.69277,53.351834 L165.495194,80.5190232 L162.53277,84.5154943 L149.413143,84.6673387 L133.305358,56.517605 C131.978365,54.1995703 130.86657,51.531923 129.974076,48.5168854 C129.414635,46.6417919 129.32326,44.815585 129.702188,43.0404866 C130.081116,41.2639069 130.490999,40.1172963 131.219764,38.8251373 C132.090253,37.2822499 132.494169,36.4796965 134.079251,35.3686398 C136.501255,33.6705007 137.652957,33.579394 142.160183,32.7761741 C144.452397,32.3679348 147.319344,32.7143993 149.557106,33.0847515 C153.143493,33.678167 155.373796,34.1003315 158.570439,35.1216889 C160.86601,35.8515421 163.266756,37.5118683 166.028527,39.3491858 C168.789926,41.1857626 171.280182,43.3419534 173.495194,45.8122029 C175.710578,48.2839338 177.616406,50.9126941 179.214168,53.7047797 L193.351231,79.9571988 L190.797571,84.1884733" id="path16" fill="#D0AB6B" fill-rule="nonzero"></path>
                        <path d="M144.504612,31.305172 C143.625544,31.305172 142.751325,31.3634654 141.931558,31.5096064 L140.90629,31.6907086 C137.186384,32.3454914 135.794868,32.5905535 133.331838,34.3171727 C131.581535,35.544409 131.035521,36.5146948 130.208668,37.983697 L130.089321,38.1962792 C129.304239,39.588063 128.840276,40.8709632 128.434123,42.7734627 C128.011932,44.751514 128.112258,46.806969 128.731372,48.882423 C129.645871,51.9715311 130.805778,54.7550986 132.178272,57.1534998 L148.663866,85.9632013 L163.194029,85.7950613 L167.026196,80.6245736 L151.83291,52.7392713 C150.779297,50.8982503 150.403726,49.6283125 150.337339,48.7616882 C151.895567,48.9705669 153.419483,49.5638712 154.88298,50.5334533 C156.8358,51.8285752 158.530905,53.7181123 159.92242,56.1487341 L176.796639,85.6369209 L191.536033,85.468781 L194.840461,79.993123 L180.356919,53.0977723 C178.707688,50.2149504 176.729879,47.4858247 174.463026,44.9566892 C172.183492,42.4138506 169.588434,40.1676642 166.749833,38.2799788 L166.182187,37.9018492 C163.550206,36.1466758 161.277012,34.630824 158.965777,33.895897 C155.580416,32.8145055 153.233003,32.3884523 149.770066,31.8152951 C148.318131,31.5747143 146.398877,31.305172 144.504612,31.305172 Z M150.16242,83.3718466 L134.432071,55.8820805 C133.157666,53.6555228 132.076454,51.0552797 131.217526,48.1543105 C130.721489,46.4910585 130.638691,44.8611383 130.96988,43.3075106 C131.326057,41.6379627 131.687456,40.6298639 132.350579,39.4539955 L132.471419,39.2388208 C133.239344,37.8748135 133.557106,37.3100263 134.826663,36.4201069 C136.817153,35.0247677 137.779018,34.8555168 141.358691,34.2250291 L142.389181,34.0427417 C144.578831,33.6525756 147.407362,34.0340755 149.344145,34.3540598 C152.690719,34.9078846 154.954961,35.3184571 158.173236,36.3465919 C160.136872,36.9708577 162.268714,38.3925659 164.736966,40.0384113 L165.307222,40.4183927 C167.964192,42.1853433 170.392909,44.2882034 172.526989,46.6680869 C174.673376,49.0624142 176.544145,51.643399 178.087082,54.3406745 L191.862,79.9209043 L190.058737,82.909647 L178.295194,83.0455662 L162.17622,54.8773149 C160.583306,52.0948584 158.614075,49.912743 156.322234,48.3928173 C154.068061,46.8988164 151.668434,46.128854 149.190859,46.1036701 L148.2096,46.0936706 L147.933982,47.02881 C147.395801,48.8527948 147.92988,51.1289798 149.565684,53.9873584 L163.963819,80.4134728 L161.871884,83.2359273 L150.16242,83.3718466 Z" id="path18" fill="#D0AB6B" fill-rule="nonzero"></path>
                        <path d="M143.832164,36.3654058 C147.467036,36.3234449 150.883726,36.8146061 154.080369,37.8359265 C156.376313,38.5658908 158.905357,39.8491613 161.667502,41.6864788 C164.4289,43.5230556 166.919157,45.6785057 169.134168,48.1487552 C171.349553,50.6204861 173.255007,53.2496167 174.85277,56.0417023 L189.663771,81.92451 L190.960555,84.1906954 L177.678317,84.3447619 L161.18228,55.5158022 C159.68298,52.8959303 157.865544,50.8793623 155.734821,49.4664685 C153.677572,48.1024612 151.534542,47.4165688 149.310206,47.3943477 C149.230393,47.393607 149.151325,47.3861999 149.071138,47.3876813 C146.739017,47.4143467 145.3296,48.1594954 144.845498,49.6249793 C144.361395,51.0897224 144.857059,53.1107346 146.331745,55.688016 L161.530998,82.2500496 L162.827781,84.516235 L149.545917,84.6703016 L133.437759,56.5205678 C132.111139,54.2025331 130.998971,51.5345155 130.106477,48.5198482 C129.547036,46.6454954 129.456034,44.8192885 129.834589,43.0434495 C130.21389,41.2676104 130.964286,39.8910111 132.087642,38.9173551 C133.001768,38.1225791 134.314589,37.5392743 136.010067,37.1596633 C136.396826,37.0722601 136.797013,36.993264 137.225171,36.9274524 C139.526337,36.5780621 141.728668,36.3899972 143.832164,36.3654058" id="path20" fill="#FFFFFF" fill-rule="nonzero"></path>
                        <path d="M144.845498,49.6249793 C145.3296,48.1594954 146.739017,47.4143467 149.071138,47.3876813 C149.151325,47.3861999 149.230393,47.393607 149.310206,47.3943477 C148.881302,48.8502024 149.384052,50.8367718 150.825171,53.3544264 L165.627595,80.521986 L162.76214,84.6891895 L146.331745,55.688016 C144.857059,53.1107346 144.361395,51.0897224 144.845498,49.6249793" id="path22" fill="#0D966A" fill-rule="nonzero"></path>
                        <path d="M190.877757,84.2980976 L174.882979,56.0117038 C173.285217,53.2196182 171.379763,50.5904876 169.164378,48.1187567 C166.949366,45.6485072 164.45911,43.4926867 161.697712,41.6561099 C158.935567,39.8191628 156.406523,38.5358922 154.110579,37.805928 C150.913936,36.7844964 147.535288,36.3762572 143.900043,36.4182181 C141.79692,36.4428095 137.84354,36.7806077 135.570719,37.2822499 C134.451838,37.5292748 133.084192,38.0229544 131.095195,39.7513883 C130.194496,40.7080082 131.312258,37.6118634 134.203074,35.4305627 C137.311325,33.0850478 141.045031,32.9529432 142.781162,32.838097 C144.645964,32.7146956 147.345078,32.691993 149.991978,33.0850478 C153.523166,33.6090222 156.173423,34.4007983 158.197106,35.0602104 C160.487455,35.806248 163.429367,37.4855733 166.191511,39.3228908 C168.95291,41.1594676 171.443166,43.3149177 173.658177,45.7859079 C175.873562,48.2568981 177.779017,50.886399 179.376779,53.6773736 L193.513841,79.9297928 L190.877757,84.2980976" id="path24" fill="#0D966A" fill-rule="nonzero"></path>
                        <path d="M129.29305,52.9611123 L117.855475,50.9856534 L116.845871,48.3339313 C116.845871,48.3339313 113.175941,46.7925253 112.386384,46.5536481 L112.288669,46.7273433 C112.816034,49.155743 113.258365,50.6123384 113.376221,50.9675062 L115.233937,55.2954426 C116.056687,57.0812811 117.241582,58.7630507 119.291745,59.886329 C122.674123,61.7336461 123.70685,61.8284562 123.879531,61.8973418 C125.041675,62.3458383 130.464892,63.3665291 130.464892,63.3665291 L145.582094,79.523146 L142.415661,83.640352 C142.415661,83.640352 128.101442,79.209828 124.128668,77.6676812 C123.854915,77.5621308 123.459204,77.3969537 122.940417,77.180668 C122.420137,76.9625306 121.053983,76.272194 118.829274,75.1085472 C116.613517,73.9445301 114.095289,72.2179479 111.280184,69.9313931 C108.466571,67.6440976 105.441489,64.5535081 102.210907,60.6581431 C98.9829346,56.7638892 96.6433542,52.6333506 95.1906736,48.26949 C94.3947762,45.8721999 94.0341235,40.502833 94.0341235,40.502833 C94.0341235,40.502833 93.8580862,39.007721 94.6726317,35.7086232 C95.1914195,33.601504 97.1095547,31.8329239 97.7323985,31.3179121 C101.644753,28.0838481 108.795522,29.6549564 114.523447,31.8792179 C116.381909,32.5982198 118.608855,33.6398355 121.328855,35.0648398 C124.065265,36.4963254 127.126897,38.5781124 130.434309,41.2564999 L131.004193,41.7153663 L133.14685,47.7761809 L129.29305,52.9611123" id="path26" fill="#D0AB6B" fill-rule="nonzero"></path>
                        <path d="M103.836268,28.1858431 C101.21734,28.1858431 98.7807901,28.7753698 96.9025617,30.3279605 C96.2424218,30.8737857 94.0404638,32.8525777 93.4127716,35.4026381 C92.6127716,38.6444054 92.7112331,40.2943247 92.7418159,40.6113462 C92.7720257,41.0528061 93.1397646,46.206628 93.9587855,48.6728036 C95.4569673,53.1718428 97.8961281,57.4794098 101.209508,61.4766216 C104.47403,65.4127253 107.586011,68.5925697 110.458552,70.928011 C113.327363,73.2582674 115.939578,75.0478094 118.223214,76.24701 C121.272538,77.8424875 122.087456,78.2209875 122.435055,78.3669063 C122.97995,78.5939322 123.380883,78.7605907 123.659111,78.8683632 C127.625918,80.4082879 141.443353,84.6884488 142.029274,84.8699214 L142.895661,85.1380565 L147.276453,79.4420389 L131.124659,62.1799205 L130.706197,62.1010355 C128.654542,61.7147581 125.114775,60.9922009 124.349461,60.6966598 C124.305824,60.6792532 124.212584,60.6488843 124.069368,60.6133305 C123.150393,60.3851935 121.753284,59.76115 119.916827,58.7578657 C118.401116,57.927536 117.287456,56.6564871 116.413237,54.7599132 L114.591699,50.5145654 C114.487643,50.1930996 114.292212,49.5246138 114.052771,48.5750307 C114.646524,48.8165003 115.279438,49.076858 115.829554,49.3064763 L116.904053,52.1285605 L129.860696,54.3662288 L134.598039,47.9924666 L132.10629,40.9442929 L131.250719,40.2558081 C127.881768,37.5274231 124.745918,35.3965644 121.933424,33.9251178 C119.175382,32.480633 116.905172,31.4184627 114.994496,30.6792026 C111.625172,29.3711184 107.547969,28.1858431 103.836268,28.1858431 Z M95.3227016,40.3532107 C95.3227016,40.3532107 95.2026083,38.9717968 95.9321188,36.0153119 C96.3927249,34.1447367 98.3418157,32.4900029 98.5622353,32.3074562 C102.317573,29.2040155 109.878226,31.458683 114.051279,33.0785296 C115.870953,33.7827915 118.052771,34.8047044 120.723167,36.2038212 C123.384239,37.5959382 126.375754,39.6313942 129.614169,42.2545992 L129.902095,42.4864397 L131.695661,47.5598951 L128.725778,51.5559959 L118.806897,49.8427464 L117.862934,47.3624974 L117.351232,47.1476931 C116.968948,46.9873306 113.594776,45.5729553 112.76382,45.3214861 L111.76354,45.0189084 L110.917666,46.5236495 L111.020976,46.9988115 C111.511046,49.2557381 111.958226,50.8089954 112.144706,51.3711901 L112.183121,51.4722963 L114.040463,55.8002327 C115.171652,58.2556681 116.636267,59.9026245 118.665172,61.0140516 C121.729414,62.6876735 123.017246,63.0072875 123.440556,63.1124675 L123.467782,63.1191338 C124.64671,63.5454093 128.362887,64.2764846 129.803633,64.5520267 L143.887735,79.6042531 L141.936034,82.1415364 C138.781908,81.1593622 127.925032,77.7587879 124.601209,76.4681103 C124.334915,76.3655227 123.955615,76.2073823 123.459204,76.0003554 C122.975102,75.7974024 121.625731,75.1155839 119.433843,73.9689733 C117.304612,72.8505095 114.836734,71.1565183 112.101442,68.9344048 C109.359811,66.7059954 106.369042,63.6457747 103.211932,59.8392943 C100.103308,56.0891074 97.8189253,52.0600453 96.4218158,47.8650654 C95.6870839,45.6525811 95.3320256,40.4695013 95.328296,40.4172817 L95.3227016,40.3532107 Z M123.497293,63.1418388 C123.458533,63.1248388 123.4252,63.1068388 123.397293,63.0928388 C123.429076,63.1088388 123.463184,63.1258388 123.497293,63.1418388 Z" id="path28" fill="#D0AB6B" fill-rule="nonzero"></path>
                        <path d="M126.697246,45.0274265 C123.512538,42.447923 120.621349,40.4776491 118.030393,39.1214191 C115.436454,37.7637078 113.257247,36.7393875 111.486804,36.054384 C106.22023,34.0087434 102.081862,33.4988054 99.0851257,34.5237922 C96.0835407,35.544409 94.5223286,37.5248306 94.4011165,40.4550576 C94.2761748,43.3841735 94.6137039,46.0473766 95.4099743,48.443926 C96.8630279,52.8092679 99.2014894,56.9394362 102.430207,60.8333197 C105.661909,64.7283144 108.68438,67.8185335 111.499484,70.105829 C114.314962,72.3923838 116.832072,74.1197067 119.052305,75.2840942 C121.271046,76.4473706 122.63981,77.1365961 123.16009,77.3551039 C123.677013,77.5713897 124.07347,77.7354557 124.347596,77.8413764 C128.321116,79.3835232 142.724099,83.8710814 142.724099,83.8710814 L127.726617,68.147036 C127.555428,68.2496235 123.042608,67.200786 121.193097,66.4841544 C120.60382,66.2534249 119.096687,65.5956793 116.566897,64.2105619 C114.033377,62.8247038 111.591606,60.3044567 110.53762,58.0141984 C109.486617,55.7257919 108.908156,54.4280776 108.808202,54.1206852 C108.705638,53.8095893 108.629927,53.5818227 108.576967,53.4262748 C108.346105,52.7333457 107.944053,51.0312068 107.368948,48.3231911 C106.791979,45.6162865 109.417993,45.390742 115.238039,47.6487797 L117.066664,48.5087376 L117.979671,50.8626965 L129.417246,52.7144577 L126.697246,45.0274265" id="path30" fill="#FFFFFF" fill-rule="nonzero"></path>
                        <path d="M102.456314,33.9374135 C101.194963,33.9374135 100.061163,34.1082941 99.0597644,34.4511662 C96.0391584,35.4778567 94.4454988,37.4970542 94.3231678,40.4520948 C94.198972,43.3734333 94.5398578,46.0703384 95.3365011,48.4679989 C96.786944,52.8263041 99.1533775,57.0031368 102.370161,60.8822062 C105.589182,64.7620164 108.6441,67.8855673 111.450254,70.1654557 C114.261629,72.4486773 116.807083,74.1937771 119.015755,75.352239 C121.21995,76.5073676 122.603633,77.2051113 123.130253,77.4262116 C123.644939,77.6417566 124.044379,77.8069337 124.319624,77.9128544 C128.249507,79.4387057 142.55664,83.8995985 142.700602,83.9447815 L142.985917,84.033666 L127.740043,68.0488926 L127.686337,68.0811133 C127.443913,68.1329626 123.089974,67.1363447 121.221442,66.412306 C120.832072,66.2597209 119.348808,65.6456769 116.604566,64.1431578 C114.077759,62.7610032 111.668062,60.2851984 110.608109,57.9823481 C109.526897,55.6276485 108.978272,54.3928941 108.882049,54.0969827 C108.779111,53.7851461 108.703401,53.5570091 108.65044,53.4014612 C108.420697,52.7122356 108.026477,51.0456505 107.444659,48.307266 C107.274216,47.5061941 107.393191,46.9273335 107.798599,46.5858687 C108.736967,45.795537 111.230953,46.1762591 115.209694,47.720628 L117.005498,48.5654015 L117.923354,50.9319524 L117.967363,50.9386187 L129.533983,52.81149 L126.76326,44.9815028 L126.746477,44.9677997 C123.570347,42.395333 120.650067,40.4058007 118.066198,39.052904 C115.426757,37.6714901 113.283727,36.6670577 111.514776,35.9823135 C108.008575,34.6207134 104.977154,33.9374135 102.456314,33.9374135 Z M142.462281,83.7084968 C140.415474,83.0685281 127.992165,79.1731631 124.376314,77.7695281 C124.102188,77.6639777 123.704239,77.499171 123.190673,77.2839963 C122.668155,77.0651181 121.288202,76.3692263 119.088482,75.2159493 C116.888762,74.0623021 114.351885,72.3227576 111.548715,70.0462023 C108.750394,67.7726098 105.702561,64.6560957 102.489881,60.7840629 C99.2854054,56.9198075 96.9282959,52.7596407 95.4838205,48.4194827 C94.6931445,46.0399695 94.3548694,43.361582 94.4783193,40.4583908 C94.5980396,37.5733467 96.156268,35.6011099 99.1101141,34.5968257 C102.07776,33.5809495 106.232538,34.0959984 111.458459,36.1259731 C113.197573,36.7991254 115.396174,37.8300008 117.994216,39.1899343 C120.564286,40.5346833 123.47002,42.5145864 126.631232,45.0733501 L129.300883,52.6174255 L118.035988,50.793811 L117.127829,48.4524441 L117.099484,48.4391114 L115.271233,47.5791535 C111.174263,45.9888609 108.697433,45.6259157 107.698272,46.4684671 C107.245871,46.8491892 107.109741,47.4784176 107.292864,48.3387459 C107.875429,51.0830561 108.271512,52.7548261 108.503494,53.4503477 C108.556081,53.606266 108.632165,53.8340326 108.734729,54.1443878 C108.832445,54.4462249 109.382934,55.6857938 110.466757,58.0460487 C111.539391,60.3766754 113.975941,62.8813677 116.529228,64.277966 C119.281675,65.7852997 120.773144,66.4023065 121.164752,66.5556324 C122.796081,67.1878236 127.009414,68.2248099 127.684472,68.2248099 C127.687829,68.2248099 127.690813,68.2248099 127.693796,68.2248099 L142.462281,83.7084968 Z" id="path32" fill="#FFFFFF" fill-rule="nonzero"></path>
                        <path d="M127.851932,68.3011025 C126.392165,68.029264 123.718412,67.4807723 122.198225,66.8933936 C121.70368,66.7011808 120.557946,66.5078569 117.06741,64.5998021 C114.044193,62.9439572 111.555055,60.420377 110.270207,57.6275507 L108.576967,53.4262748 C108.184613,52.7174206 107.540137,49.7638614 107.360743,47.3876813 C107.183214,45.0015018 113.219205,46.9225189 112.448296,46.7925253 C112.973051,49.2205546 113.477666,50.787515 113.597386,51.1404607 L115.455848,55.4695081 C116.275242,57.2579391 117.670114,58.6674998 119.718785,59.7915189 C123.100417,61.6399469 123.926897,62.0036329 124.09734,62.0717777 C125.261349,62.5206446 130.68382,63.5405947 130.68382,63.5405947 L145.797665,79.6979523 L142.634589,83.8147879 C142.634589,83.8147879 128.881675,69.57067 127.851932,68.3011025" id="path34" fill="#0D966A" fill-rule="nonzero"></path>
                        <path d="M129.422095,52.8570434 C127.411465,47.1743584 127.148155,46.0010825 126.805778,45.03113 C123.991046,42.7945727 121.392631,41.0113267 119.116827,39.8206442 C116.608295,38.5073751 114.498832,37.5163125 112.846244,36.8768253 C106.648389,34.47098 103.889601,33.6969809 100.748529,34.1454774 C100.582189,34.1700688 94.9605571,34.6474529 94.2537972,40.6772689 C94.2537972,40.6772689 94.0788788,39.1828976 94.8926783,35.8836516 C95.4118391,33.7758288 97.3288554,32.0072487 97.9520721,31.4922369 C101.865545,28.2588766 109.014822,29.8278368 114.743121,32.0542835 C116.600463,32.7747297 118.828528,33.8163454 121.55002,35.240609 C124.281582,36.6699465 127.34657,38.7518076 130.651372,41.4309358 L131.22312,41.891654 L133.055847,47.7861804 L129.422095,52.8570434" id="path36" fill="#0D966A" fill-rule="nonzero"></path>
                        <path d="M93.5712797,55.2113726 L78.6588325,49.3090688 L73.3299749,40.6802318 L78.2075505,42.6930962 L76.8634013,38.6410723 C76.8634013,38.6410723 73.1938443,37.0996662 72.4042872,36.8616408 L72.3061987,37.0352249 C72.8339376,39.4628839 73.2758956,40.92022 73.394124,41.2746471 L75.2518396,45.6025835 C76.0742172,47.388422 77.2594852,49.071673 79.3092754,50.1942107 C82.6920259,52.0422684 83.7243802,52.1363379 83.8974338,52.2052234 C85.0592053,52.6544607 90.482422,53.6744108 90.482422,53.6744108 L105.599624,69.8310276 L102.432818,73.9474929 C102.432818,73.9474929 88.1189722,69.5177096 84.1465713,67.9755629 C83.8728184,67.8692718 83.4771075,67.704465 82.9579466,67.4881793 C82.4380399,67.2704122 81.0715131,66.5793349 78.8468046,65.4164288 C76.631047,64.251671 74.1128187,62.5250888 71.2980868,60.238534 C68.4841009,57.9523496 65.4590193,54.8621304 62.2284367,50.9660248 C59.0004647,47.0717709 56.6612573,42.9412322 55.2082037,38.5773717 C54.4123063,36.1802297 54.0520266,30.8101221 54.0520266,30.8101221 C54.0520266,30.8101221 53.8759893,29.3157137 54.6901618,26.0165048 C55.2089497,23.908682 57.1270848,22.1408426 57.7499286,21.62509 C61.6622828,18.3917668 68.8130519,19.962838 74.5409772,22.1871366 C76.3994386,22.9054348 78.626012,23.9477542 81.346012,25.3727585 C84.0831681,26.804244 87.1444267,28.8860311 90.4514663,31.563863 L91.0217227,32.0224332 L97.2054055,50.1401393 L93.5712797,55.2113726" id="path38" fill="#D0AB6B" fill-rule="nonzero"></path>
                        <path d="M63.853052,18.4934655 C61.2348703,18.4934655 58.7983202,19.0829922 56.9200918,20.6352866 C56.2592061,21.1828524 54.0572481,23.1643851 53.4303017,25.7109642 C52.6303017,28.951139 52.7287633,30.6003546 52.759346,30.918339 C52.7895558,31.3581323 53.1572947,36.5136949 53.9763157,38.9806853 C55.4744974,43.4800948 57.9140312,47.7872914 61.2270381,51.7845032 C64.4904413,55.7198662 67.6024226,58.8997107 70.4764551,61.2351519 C73.3437744,63.5646676 75.9559888,65.3542097 78.240371,66.5548916 C80.6034479,67.7903868 81.9024688,68.4436881 82.4540772,68.6747879 C83.0030748,68.9032953 83.3987858,69.068102 83.6740305,69.1747635 C87.6438207,70.7161695 101.460883,74.9955898 102.047177,75.1770624 L102.913191,75.444827 L107.294356,69.7499205 L94.5245664,56.1024401 L98.6465243,50.350129 L92.1297879,31.2561373 L91.2678765,30.5631712 C87.8978067,27.8343047 84.7619559,25.7035942 81.9505807,24.2330365 C79.1869444,22.7853296 76.9171076,21.7234926 75.0116531,20.9871213 C71.6423292,19.6785927 67.5651265,18.4934655 63.853052,18.4934655 Z M55.3402317,30.6603887 C55.3402317,30.6603887 55.2201385,29.2790859 55.9500219,26.3232305 C56.4095091,24.4550997 58.3597188,22.7969216 58.5805114,22.6138935 C62.3354763,19.5110453 69.8965017,21.7661572 74.0688093,23.3864483 C75.8828885,24.0876362 78.0647067,25.1098825 80.7410702,26.5117398 C83.4010236,27.9030051 86.3921657,29.9384981 89.6320724,32.5620734 L89.9140304,32.7889142 L95.7642867,49.9301495 L93.1050793,53.6407087 L91.7012564,53.08481 L91.1425618,52.4874318 L90.7237273,52.4089171 C90.2989255,52.3289211 89.8103474,52.2348516 89.2956621,52.1330047 L79.539019,48.2709715 L76.527737,43.3945434 L80.3259654,44.9618741 L77.911047,37.6826007 L77.3687626,37.454834 C76.9864783,37.2944715 73.6119329,35.8797629 72.7809772,35.6294789 L71.7818164,35.3281233 L70.9351964,36.8312349 L71.0385064,37.3070635 C71.1272709,37.7148213 71.2130518,38.094062 71.2954761,38.4458966 L70.1322127,37.9659201 L71.9119796,40.8472606 C72.0619096,41.3746422 72.1540308,41.6531471 72.1626089,41.6790718 L72.2010238,41.7798076 L74.0587394,46.1073736 C75.1895552,48.5642904 76.6545435,50.2112469 78.683075,51.3219333 C81.7476903,52.9966662 83.0355224,53.3155394 83.4588324,53.4203491 L83.4853126,53.4270155 C84.3983196,53.75774 86.8363615,54.2710482 88.5583195,54.6136241 L90.1982262,55.2628516 L103.905265,69.9117644 L101.953564,72.4490477 C98.800184,71.4668735 87.9429349,68.0666695 84.6187391,66.7759919 C84.356921,66.6745154 83.9813499,66.5174861 83.4894152,66.3126813 C83.0004641,66.1078765 81.6510935,65.427169 79.4510003,64.276855 C77.3213967,63.1572801 74.8535179,61.4629186 72.1189726,59.2419161 C69.376222,57.0131363 66.3854529,53.9529157 63.2298352,50.147176 C60.1208377,46.3969891 57.8364554,42.3682973 56.4397189,38.172947 C55.8291828,36.3347407 55.4431688,32.1729073 55.3458261,30.7244967 L55.3402317,30.6603887 Z M74.2776671,39.6765772 C74.2150098,39.445107 74.1452662,39.1803051 74.0703012,38.8825419 C74.6532382,39.1188267 75.2730984,39.3743697 75.8161286,39.600655 L76.0891356,40.4246887 L74.2776671,39.6765772 Z M83.515196,53.4497205 C83.4763072,53.4317205 83.4437675,53.4147205 83.415196,53.4007205 C83.4469421,53.4167205 83.4802754,53.4327205 83.515196,53.4497205 Z" id="path40" fill="#D0AB6B" fill-rule="nonzero"></path>
                        <path d="M55.4278774,38.7510669 C56.880558,43.1164089 59.2190195,47.2473178 62.4477374,51.1419421 C65.6794389,55.036196 68.7019097,58.1264152 71.5170145,60.4129699 C74.3324923,62.6995247 76.8499748,64.4275883 79.0698349,65.5919758 C81.288949,66.7552522 82.6573406,67.4444778 83.1779933,67.6622449 C83.6945434,67.8792713 84.0910002,68.0437077 84.3654991,68.1492581 C88.3386458,69.6914048 102.742002,74.1789631 102.742002,74.1789631 L87.744147,58.4549176 C87.5729582,58.5567645 83.0601378,57.5086676 81.2110003,56.7927767 C80.62135,56.5613066 79.1142171,55.903561 76.584427,54.5184435 C74.0509072,53.1333261 71.6091357,50.6123384 70.5551498,48.3224504 C69.5037745,46.0336735 68.9256859,44.7359592 68.8257325,44.4285669 C68.7231684,44.117471 68.6474575,43.8897043 68.5948701,43.7341564 C68.3636347,43.0404866 67.9615834,41.3383477 67.3864785,38.6310728 C66.8095088,35.9234275 69.4355227,35.6984755 75.2559422,37.9566613 L77.0841939,38.8169896 L78.4290889,42.8667914 L73.5485296,40.853927 L78.880371,49.4846158 L93.7909534,55.3858085 L86.7151493,35.3346415 C83.5304408,32.7552121 80.6392521,30.78479 78.0479235,29.4292637 C75.4543571,28.0708117 73.2747767,27.0465655 71.5043339,26.3622657 C66.2377606,24.3159584 62.0993924,23.8059833 59.1026559,24.8309702 C56.1010709,25.8523277 54.5398588,27.8328233 54.4186467,30.7623837" id="path42" fill="#FFFFFF" fill-rule="nonzero"></path>
                        <path d="M62.4734716,24.2447767 C61.2121197,24.2447767 60.0786931,24.415472 59.0772946,24.7583441 C56.0566886,25.7857754 54.4634019,27.8049358 54.3410709,30.7591987 L54.4962224,30.7657169 C54.6155697,27.8813024 56.1737981,25.9091767 59.1276442,24.9040037 C62.0960357,23.88872 66.2504412,24.4034726 71.4759889,26.4338918 C73.215476,27.1061552 75.4140774,28.1369196 78.0113733,29.4972604 C80.5806973,30.8416761 83.4868044,32.8205793 86.6491354,35.3804911 L93.6611632,55.2513706 L78.9329584,49.4223966 L73.7398583,41.0161412 L78.5558955,43.0027107 L77.1475971,38.7614368 L77.1173873,38.746993 L75.2891356,37.8870351 C71.1906742,36.2967055 68.7153363,35.9335751 67.7158025,36.7759783 C67.2634016,37.1567005 67.127271,37.7862993 67.3107675,38.6469979 C67.8933316,41.390197 68.2894155,43.0619671 68.5210239,43.7582293 C68.5739843,43.9141476 68.6493223,44.1419142 68.7518864,44.4522694 C68.8503479,44.7555879 69.4012104,45.9951569 70.4842873,48.3543007 C71.5576672,50.6860385 73.9938443,53.18999 76.546758,54.5858477 C79.2936111,56.0898481 80.7895551,56.7101882 81.1822824,56.8642547 C82.813238,57.4957053 87.028809,58.5326916 87.7023754,58.5326916 C87.7053591,58.5326916 87.7087158,58.5326916 87.7116994,58.5326916 L102.479811,74.0163784 C100.433377,73.3767801 88.0100677,69.4810448 84.3934711,68.0774097 C84.0939839,67.9622302 83.6468044,67.775943 83.208203,67.5915076 C82.6901611,67.3744812 81.3098348,66.67933 79.106385,65.523831 C76.9077836,64.3709244 74.3709072,62.6313799 71.5662453,60.3533432 C68.7690426,58.0812322 65.7212105,54.9658291 62.507411,51.0926852 C59.3033085,47.2276892 56.9458261,43.067152 55.5017236,38.726994 L55.3540313,38.7751398 C56.8044741,43.1338154 59.1712806,47.3110184 62.3876907,51.1908286 C65.6082035,55.0713795 68.6631218,58.19456 71.4677838,60.4725967 C74.2806508,62.7569293 76.8261053,64.5020291 79.0336577,65.6601206 C81.2415831,66.8174714 82.625639,67.5148447 83.1477835,67.7333525 C83.5875037,67.9181583 84.0358021,68.1051862 84.3371541,68.2207361 C88.2674104,69.7465873 102.574543,74.2074802 102.718506,74.2526631 L103.003447,74.3411773 L87.7579465,58.3567743 L87.7046132,58.3886246 C87.4681563,58.4364 83.1075037,57.443856 81.2393453,56.720558 C80.8484828,56.5676025 79.360371,55.9502253 76.622096,54.4510394 C74.0960354,53.0696255 71.6863385,50.5941911 70.6256393,48.2898594 C69.5448001,45.9370116 68.9961754,44.7022572 68.8999517,44.4052347 C68.7966416,44.0930277 68.7209307,43.8648907 68.6683433,43.7093428 C68.4382267,43.0193766 68.0440076,41.3527914 67.4625624,38.6151476 C67.2917466,37.8137053 67.4107209,37.2348448 67.8161288,36.8934541 C68.7548701,36.1028261 71.248856,36.4847704 75.2275972,38.0285097 L77.0207906,38.8721721 L78.3022824,42.7312425 L73.357201,40.6913423 L78.8277836,49.546835 L78.851653,49.5564641 L93.9207436,55.519876 L93.8640536,55.3602542 L86.7811633,35.2887919 L86.7640072,35.2750518 C83.5875037,32.7021036 80.6668511,30.712201 78.0841006,29.3608226 C75.4446601,27.9786681 73.3016299,26.9742357 71.5323059,26.2903803 C68.0257326,24.9278914 64.9946837,24.2447767 62.4734716,24.2447767" id="path44" fill="#FFFFFF" fill-rule="nonzero"></path>
                        <path d="M87.8694617,58.6089841 C86.4096948,58.3371456 83.735942,57.7886539 82.2157555,57.2012752 C81.721583,57.0098031 80.5758488,56.8164793 77.0853128,54.9084245 C74.0620961,53.2525796 71.5725856,50.7289993 70.2877372,47.9354323 L68.5948701,43.7341564 C68.2025158,43.0245615 67.5576673,40.071743 67.3786463,37.695563 C67.2007442,35.3086057 73.2371077,37.2296599 72.4658257,37.0996662 C72.9909539,39.5284363 73.4951963,41.0946559 73.6149166,41.4476016 L75.473751,45.7773898 C76.292772,47.5650801 77.6876437,48.9761221 79.736688,50.1001412 C83.1175737,51.9478286 83.9447998,52.3122552 84.1152427,52.3804 C85.2792519,52.8288966 90.7013497,53.849217 90.7013497,53.849217 L105.815568,70.0050932 L102.652119,74.1226695 C102.652119,74.1226695 88.8992052,59.8785517 87.8694617,58.6089841" id="path46" fill="#0D966A" fill-rule="nonzero"></path>
                        <path d="M93.7909534,55.3858085 C91.780697,49.7038643 87.1656855,36.3082605 86.8233079,35.3382709 C84.0089489,33.1016766 81.4105341,31.3186528 79.134357,30.128748 C76.6258256,28.8151456 74.5163618,27.8241571 72.8641474,27.1847069 C66.666292,24.7788987 63.9071313,24.0041959 60.7660591,24.4533591 C60.5993458,24.4772468 54.9780872,24.9553715 54.2717003,30.9851876 C54.2717003,30.9851876 54.0964089,29.4900385 54.9105814,26.1908666 C55.4297422,24.0837475 57.3463855,22.3144637 57.9696023,21.8001556 C61.8830754,18.5660916 69.0323526,20.1357185 74.7610238,22.3614614 C76.6179934,23.0819076 78.8460586,24.1235234 81.5675504,25.5485277 C84.2994851,26.9778652 87.3644733,29.0596152 90.6689022,31.7388915 L91.2406504,32.198943 L97.4247062,50.3156862 L93.7909534,55.3858085" id="path48" fill="#0D966A" fill-rule="nonzero"></path>
                        <polyline id="path50" fill="#0D966A" fill-rule="nonzero" points="78.4290889 42.8667914 73.5485296 40.853927 75.7437743 38.2192411 77.0841939 38.8169896 78.4290889 42.8667914"></polyline>
                        <polygon id="path52" fill="#D0AB6B" fill-rule="nonzero" points="13.5199624 56.9446211 25.6547126 54.5554788 25.7061439 59.0763687"></polygon>
                        <path d="M64.4893224,64.7046118 L64.6362688,64.6916495 L67.8444738,60.3911192 L58.5204647,46.8228942 C58.5204647,46.8228942 46.6935186,44.4248633 45.3195327,44.1600615 L44.9066655,43.1734431 L49.7036817,44.1196931 L52.109649,41.5872244 L46.2015839,29.7981716 C46.2015839,29.7981716 37.1095562,28.023814 37.089752,28.0418872 C37.1095562,28.023814 29.4018081,10.7409559 29.4018081,10.7409559 L8.10647998,6.2562124 L5.93734251,11.568434 L13.3710766,16.8126959 L32.3993279,54.4062268 L20.5316172,56.8679582 L64.4893224,64.7046118" id="path54" fill="#D0AB6B" fill-rule="nonzero"></path>
                        <path d="M7.31278303,4.77261833 L4.35009779,12.0284855 L12.357072,17.677098 L30.4829456,53.4881236 L20.2664797,55.6069088 L20.3024331,58.1353036 L64.4315135,66.0026964 L65.3314669,65.9227004 L69.4358957,60.4222288 L59.2954764,45.6655434 L58.7800452,45.561104 C58.5126326,45.5066623 54.9094625,44.7763276 51.5144043,44.0904353 L53.6738448,41.8175835 L47.0784137,28.656746 L46.4514674,28.5344927 C46.4514674,28.5344927 44.177901,28.0906255 41.9017239,27.6491286 C40.7627029,27.4284728 39.623309,27.2081502 38.767365,27.0441212 C38.475337,26.9884202 38.2243347,26.9402374 38.0072718,26.9001653 C37.9897426,26.859945 37.9714676,26.8189841 37.9535655,26.7774676 C37.7443347,26.3022316 37.4444746,25.6244869 37.0837846,24.8117119 C36.3637846,23.1886802 35.4019572,21.0258971 34.4393838,18.864077 C32.5147218,14.5406589 30.5877102,10.2194259 30.5877102,10.2194259 L30.319216,9.61760349 L7.31278303,4.77261833 Z M7.52462452,11.1083824 L8.90006505,7.73976944 L28.484251,11.8643084 C31.4533885,18.5226863 35.6920084,28.0426279 35.8793837,28.5033831 L37.0737147,28.0245177 L37.9666191,28.9909148 C37.6272252,29.2997886 37.199738,29.3612671 36.9122974,29.3171581 C37.2578825,29.3711184 41.9166423,30.2752964 45.3247541,30.9395973 L50.5454533,41.3568653 L49.2523997,42.7179098 L42.7770619,41.4405649 L44.3889966,45.292969 L45.0726329,45.4244441 C46.2608846,45.6536921 55.4539846,47.5158232 57.7454531,47.9802449 L66.2534249,60.3603799 L64.0473644,63.3172723 L27.3353839,56.7724073 L34.3157101,55.3247004 L14.3850439,15.9482937 L7.52462452,11.1083824 Z" id="path56" fill="#D0AB6B" fill-rule="nonzero"></path>
                        <path d="M55.5315604,51.7804294 C54.3761292,51.5578477 41.8245211,48.9883438 41.8245211,48.9883438 L39.5412578,44.4356036 L45.0856865,43.2393658 C45.0856865,43.2393658 44.9454534,43.2623276 45.4541714,44.2670933 C46.8285303,44.5318951 58.6554764,46.929926 58.6554764,46.929926 L67.9794855,60.4977806 L64.7716534,64.799422 C64.7716534,64.799422 56.2170615,52.752604 55.5315604,51.7804294" id="path58" fill="#0D966A" fill-rule="nonzero"></path>
                        <path d="M42.9523532,34.7045982 C41.6660129,34.4572399 33.8282509,32.9476101 33.8282509,32.9476101 L26.1038688,15.6177173 L6.0917854,11.6668366 L8.205128,6.42038956 L29.1532673,10.7409559 C29.1532673,10.7409559 36.6899758,27.0906745 37.2252485,28.1496597 C38.5186004,28.3984994 46.3373415,29.903759 46.3373415,29.903759 L52.4344975,41.6790718 L48.5948706,46.2021838 C48.5948706,46.2021838 43.5830292,35.9335751 42.9523532,34.7045982" id="path60" fill="#0D966A" fill-rule="nonzero"></path>
                        <polyline id="path62" fill="#FFFFFF" fill-rule="nonzero" points="25.9207453 15.6791958 6.07239146 11.6762065 13.5052304 16.9204684 32.5336682 54.5132586 20.5316172 56.8679582 64.624334 64.8116436 55.6341245 51.6893227 41.8707682 49.0368599 39.5412578 44.4356036 48.6597657 46.1936657 42.9228894 34.8594055 33.8033372 33.1024174 25.9207453 15.6791958"></polyline>
                        <path d="M6.08783202,11.6005435 L6.02737514,11.7391663 L13.4446244,16.9721325 L32.4184234,54.4573354 L20.516475,56.7924064 L20.5177804,56.9438804 L64.7929121,64.9201568 L55.6803716,51.6200668 L55.6490429,51.6137709 L41.9229826,48.9687151 L39.6811179,44.5415243 L48.7999988,46.2992161 L48.7291363,46.1588526 L42.9751038,34.7909644 L33.8576775,33.0344207 L25.9752348,15.6114954 L25.9361858,15.6035328 L6.08783202,11.6005435 Z M20.9484377,56.864625 L32.6488756,54.5695522 L32.6031507,54.4788159 L13.5658365,16.8688042 L13.5502467,16.8575455 L6.41607443,11.8242363 L25.8662558,15.7469332 L33.7491087,33.170414 L42.8706749,34.9278466 L48.5195326,46.0877449 L39.4010247,44.3300532 L41.8181808,49.1053751 L55.5878774,51.7589489 L64.4561289,64.7031304 L20.9484377,56.864625 Z" id="path64" fill="#FFFFFF" fill-rule="nonzero"></path>
                        <path d="M157.642887,114.124046 C157.642887,114.124046 154.163912,109.441312 153.275148,109.224285 C153.643633,110.772358 154.626383,116.309494 154.626383,117.72424 C154.626383,121.496648 153.418737,124.617606 151.565497,126.151235 L149.125964,128.171136 L148.061535,125.196467 C148.047735,125.162024 147.018365,122.364383 145.274775,119.92191 C145.333703,120.054126 145.391884,120.165602 145.450066,120.301891 C145.948341,121.464798 146.15981,122.732884 146.15981,124.030228 C146.15981,128.489269 143.66023,133.279775 141.748808,135.178571 L138.728575,138.178424 L137.999064,133.977889 C137.990859,133.93641 137.218831,129.757725 132.34312,124.917962 C132.153283,124.727971 131.738179,124.389099 131.224239,123.983193 C131.337992,124.629457 131.424146,125.261278 131.424146,125.839028 C131.424146,128.737775 130.138924,130.75101 129.220696,131.583562 L126.359344,134.177879 L125.555615,130.385102 C125.551139,130.366955 125.141629,128.51149 123.155615,125.737551 C121.332957,123.19138 119.675521,121.281844 118.242981,119.805249 C118.210533,120.411516 118.18368,121.03593 118.111326,121.552941 C118.104239,121.611827 116.934636,126.280117 113.812958,127.751897 L111.691559,129.33145 C111.691559,129.33145 110.710673,122.789918 108.943587,117.87201 C107.217526,113.070764 105.04354,110.009802 102.166524,106.782553 C101.228902,106.539972 99.1791117,106.062588 97.417247,105.951853 C92.5292285,105.641127 90.4410234,104.263417 88.6612565,102.140558 C87.6456855,100.931728 87.3219559,99.4629111 87.3219559,98.1666782 C87.3219559,97.1859855 87.5069442,96.3030657 87.7165479,95.7049468 C88.0794384,94.6735158 88.5426551,93.8305941 89.1103008,93.1495163 C88.3696015,92.9491557 87.8370141,92.7258333 87.5703475,92.5917658 C86.3567344,92.0977159 80.4289024,89.5067316 79.3685761,85.6450687 C79.133984,84.789555 79.0355225,83.9832981 79.0355225,83.2251871 C79.0355225,81.2512096 79.7016297,79.6086974 80.3550563,78.3120942 C81.2732847,76.4844058 83.4360818,73.3649288 84.8876436,71.7672292 C88.1719325,68.1540727 92.3188788,66.888579 92.4926783,66.8363594 L95.9227948,65.8141871 L95.3118857,69.3188305 C95.1477832,70.2513774 94.7897412,72.7119978 94.7897412,74.4219141 C94.7897412,74.7141221 94.80093,74.9848495 94.8236806,75.221875 L94.876641,75.7566636 C94.8796247,75.7992541 94.8833543,75.8466592 94.8896946,75.8896201 C97.0457785,75.0381803 101.473191,73.8586084 107.745638,75.0266993 C111.618459,75.7477752 113.56382,76.7917982 114.119904,78.4483838 C114.589834,78.3446851 115.055288,78.2780217 115.5103,78.2876509 C124.981256,78.5072698 129.701442,80.3349581 134.468994,82.5204068 C140.010439,85.0617639 144.045125,88.0527287 150.030765,92.6762061 C151.890346,94.1116915 158.055754,99.3510647 159.339483,106.48479 C159.917572,109.699077 157.878224,113.680734 157.642887,114.124046" id="path66" fill="#274D87" fill-rule="nonzero"></path>
                        <path d="M97.8562213,63.6494783 L92.0522122,65.3786529 C91.5684826,65.523831 87.2469908,66.9000599 83.7501145,70.7476495 C82.192259,72.4616397 79.9649397,75.67926 78.983681,77.6328681 C78.3485295,78.8931768 77.5030284,80.8460442 77.5030284,83.2251871 C77.5030284,84.1599562 77.6328186,85.1087986 77.8894153,86.0446788 C79.0709537,90.3459498 84.7873172,93.0806308 86.8046598,93.9239229 C86.6077368,94.3216812 86.4302076,94.7472159 86.2698347,95.2031195 C86.0900678,95.715687 85.7894617,96.7804498 85.7894617,98.1666782 C85.7894617,100.084362 86.3753825,101.79539 87.4841936,103.115325 C89.4668509,105.480024 91.8989254,107.12624 97.3195314,107.470667 C98.7613961,107.561404 100.44382,107.928793 101.329974,108.142857 C103.939951,111.113452 105.896874,113.924055 107.499857,118.383467 C109.1972,123.106569 110.166151,129.491812 110.175475,129.555513 L110.55403,132.080204 L114.617806,129.054797 C117.181536,127.763008 118.573051,124.876482 119.203727,123.140271 C120.118971,124.219848 121.014449,125.372754 121.906197,126.61936 C123.596454,128.979615 124.027969,130.591018 124.060416,130.71916 L125.411652,137.098107 L130.253796,132.707581 C131.302934,131.756516 132.409507,130.005861 132.804845,127.667457 C135.904892,131.3395 136.486337,134.226766 136.49305,134.259727 L137.720836,141.331603 L142.83263,136.254444 C144.381535,134.716371 146.415661,131.343944 147.277945,127.551537 L148.417712,130.738788 L152.547129,127.320067 C154.808388,125.448306 156.158877,121.861074 156.158877,117.72424 C156.158877,117.039088 155.977991,115.645082 155.741908,114.146637 C155.970905,114.44366 156.1958,114.739941 156.409507,115.027705 L157.859949,116.979832 L158.998597,114.833641 C159.422653,114.034791 161.504145,109.864254 160.847735,106.217395 C159.467782,98.5466596 152.93911,92.9939684 150.971372,91.4747834 C144.899577,86.7846426 140.801861,83.7481245 135.111605,81.1389929 C130.185545,78.8805849 125.312817,76.9928994 115.545731,76.7658735 C115.361489,76.76217 115.168668,76.7673549 114.971372,76.782169 C113.580976,74.8230056 110.732678,74.0345257 108.027969,73.5308466 C102.924007,72.5801524 98.9378064,73.1134596 96.3364078,73.8145364 C96.4042866,72.2349841 96.6992983,70.2773021 96.8216293,69.5806695 L97.8562213,63.6494783 Z M112.776874,126.621212 C112.322235,124.219478 111.515149,120.49966 110.386944,117.360554 C108.561303,112.281173 106.239251,109.055034 103.314123,105.774084 L103.004566,105.426693 L102.552911,105.310032 C101.693611,105.087451 99.4819556,104.556366 97.5138437,104.433038 C93.1535641,104.155644 91.3976667,103.025329 89.8386924,101.166902 C89.0252658,100.19806 88.85445,99.0007115 88.85445,98.1666782 C88.85445,97.4911557 88.9704407,96.7582286 89.1640071,96.2056631 C89.4638672,95.3523715 89.833098,94.6698123 90.2914663,94.1190985 L91.8053124,92.3014097 L89.513098,91.6810696 C88.7675502,91.4792277 88.3412565,91.2733118 88.2633078,91.2340545 L88.1514197,91.1833162 C85.2050328,89.9837453 81.523914,87.7086714 80.846991,85.2447179 C80.6620026,84.5699361 80.5680166,83.8899694 80.5680166,83.2251871 C80.5680166,81.5100858 81.1867579,80.0627492 81.7256856,78.9931719 C82.5775271,77.297329 84.666851,74.2822913 86.0255456,72.7868089 C89.0170607,69.4958589 92.7768741,68.3411005 92.9357553,68.2936955 L93.9897412,67.9792664 L93.8013963,69.0592136 C93.6137972,70.1287909 93.2572471,72.6297796 93.2572471,74.4219141 C93.2572471,74.7689342 93.2710466,75.0870668 93.2982727,75.3674234 L93.3493683,75.8851759 C93.3545897,75.9566538 93.3624219,76.0340575 93.3724918,76.1047947 L93.6477366,78.0180345 L95.4558484,77.303625 C97.3956153,76.5381069 101.533983,75.4177913 107.462934,76.5225521 C110.617806,77.1099308 112.319251,77.8972996 112.665731,78.9294714 L113.102468,80.2320002 L114.452212,79.9338667 C114.859857,79.8442414 115.199997,79.803873 115.478226,79.8090579 C124.653423,80.0220105 129.216221,81.7889611 133.826384,83.902191 C139.218645,86.3746626 143.189926,89.3204444 149.089414,93.8776288 C150.840089,95.2286738 156.642607,100.149544 157.830859,106.752554 C158.083353,108.157301 157.704425,109.809812 157.258737,111.118267 C154.772584,108.022863 154.030019,107.84139 153.641022,107.74621 L151.20671,107.151794 L151.783679,109.574639 C152.153656,111.128637 153.093516,116.518743 153.093516,117.72424 C153.093516,120.920009 152.132024,123.700984 150.584239,124.982033 L149.833842,125.603484 L149.484752,124.631309 C149.298271,124.136148 148.241675,121.44665 146.524938,119.041583 L143.87319,120.537806 C143.904519,120.607802 143.935474,120.673355 143.96643,120.738166 C143.990672,120.789275 144.015288,120.840013 144.039157,120.896677 C144.429647,121.807003 144.626943,122.860655 144.626943,124.030228 C144.626943,128.034476 142.325777,132.452408 140.664612,134.102698 L139.735941,135.024875 L139.509554,133.719383 C139.412957,133.21163 138.461162,128.839252 133.42657,123.841718 C133.212118,123.626914 132.848854,123.321744 132.177899,122.79177 L129.020416,120.30078 L129.714496,124.245402 C129.836827,124.941664 129.891279,125.433122 129.891279,125.839028 C129.891279,128.266687 128.82051,129.885867 128.187223,130.459543 L127.307036,131.257652 L127.039251,130.002158 C126.960929,129.666989 126.426104,127.678938 124.405032,124.855743 C122.765498,122.565484 121.111046,120.568175 119.346943,118.749375 L116.899205,116.226535 L116.701536,119.930799 C116.67692,120.403368 116.651186,120.890752 116.602701,121.275918 C116.327829,122.359569 115.165312,125.429418 113.155428,126.37752 L113.01706,126.442702 L112.776874,126.621212 Z" id="path68" fill="#274D87" fill-rule="nonzero"></path>
                        <path d="M98.8896945,93.7720784 C97.0446596,93.2224757 95.2913729,92.855827 92.8007436,93.4058001 C91.4480164,93.7035633 90.4033544,94.4138989 89.6645199,96.5200921 C89.4478299,97.1348769 88.9644733,99.3332878 90.2176201,100.826178 C91.6009301,102.475727 93.0763613,103.574932 97.4135174,103.849733 C100.033937,104.015651 103.24065,104.908941 103.270487,104.942643 C106.270953,108.247666 108.856687,111.583059 110.883727,117.225746 C112.729508,122.356606 113.467969,125.654963 113.467969,125.654963 C114.482794,125.563116 115.54685,122.99213 115.773237,121.348137 C116.051839,119.33342 116.236081,116.400971 114.389181,113.927018 C114.389181,113.927018 118.912072,116.309494 124.814915,124.555387 C127.172398,127.848189 127.583027,129.960308 127.583027,130.052896 C127.583027,129.960308 129.707036,128.128175 128.875708,124.188738 C128.271139,121.31999 124.354309,116.400971 124.354309,116.400971 C124.354309,116.400971 132.394962,122.095507 133.763726,123.456922 C139.299577,128.95332 140.038784,133.71642 140.038784,133.71642 C142.254169,131.518009 144.968574,125.218688 143.269367,121.25703 C141.14685,116.309494 139.299577,114.568839 135.60988,112.095256 C135.60988,112.095256 141.514589,112.91966 145.390393,116.859838 C148.328947,119.84858 150.002048,124.555387 150.002048,124.555387 C152.217432,122.722884 153.602234,116.584666 150.371651,109.896104 C148.776873,106.591451 144.835428,104.399707 144.835428,104.399707 C147.051185,102.933482 150.017339,104.229345 153.324005,106.965137 C155.538271,108.796899 155.538271,113.195202 155.538271,113.195202 C155.538271,113.195202 157.476546,109.529456 157.014075,106.965137 C156.062653,101.670951 151.84932,97.0708059 148.527735,94.5050055 C142.38284,89.7582008 138.598038,86.9942619 133.395614,84.6106749 C128.598225,82.4118935 124.111885,80.7834547 115.314123,80.5790203 C112.739578,80.5197639 108.30023,84.2436558 107.100417,84.3351328 C98.9098344,84.9621391 98.8896945,93.7720784 98.8896945,93.7720784" id="path70" fill="#FFFFFF" fill-rule="nonzero"></path>
                        <path d="M103.825825,90.0578157 C103.825825,90.0578157 103.812398,93.3420995 109.456408,94.5642619 C115.101909,95.7867947 121.218459,98.5359194 121.218459,98.5359194 C121.218459,98.5359194 118.081116,92.3058539 115.128389,88.8245427 C109.866291,82.6204019 103.825825,90.0578157 103.825825,90.0578157" id="path72" fill="#274D87" fill-rule="nonzero"></path>
                        <path d="M116.005592,91.9395755 C116.005592,89.2071166 113.77417,86.9924102 111.022841,86.9924102 C108.271885,86.9924102 106.040091,89.2071166 106.040091,91.9395755 C106.040091,94.6724048 108.271885,96.8867409 111.022841,96.8867409 C113.77417,96.8867409 116.005592,94.6724048 116.005592,91.9395755" id="path74" fill="#274D87" fill-rule="nonzero"></path>
                        <path d="M114.066944,91.9395755 C114.066944,90.2703979 112.7034,88.9163901 111.022841,88.9163901 C109.341909,88.9163901 107.978366,90.2703979 107.978366,91.9395755 C107.978366,93.6087531 109.341909,94.9627609 111.022841,94.9627609 C112.7034,94.9627609 114.066944,93.6087531 114.066944,91.9395755" id="path76" fill="#0D966A" fill-rule="nonzero"></path>
                        <path d="M111.022841,88.1923515 C108.942095,88.1923515 107.248855,89.8733803 107.248855,91.9395755 C107.248855,94.0057707 108.942095,95.6867996 111.022841,95.6867996 C113.103214,95.6867996 114.796081,94.0057707 114.796081,91.9395755 C114.796081,89.8733803 113.103214,88.1923515 111.022841,88.1923515 Z M111.022841,94.2387223 C109.746198,94.2387223 108.707503,93.2072913 108.707503,91.9395755 C108.707503,90.6718598 109.746198,89.6404287 111.022841,89.6404287 C112.299111,89.6404287 113.337806,90.6718598 113.337806,91.9395755 C113.337806,93.2072913 112.299111,94.2387223 111.022841,94.2387223 Z" id="path78" fill="#0D966A" fill-rule="nonzero"></path>
                        <path d="M111.609508,91.687736 C111.609508,90.9229586 110.985172,90.3022482 110.215009,90.3022482 C109.443727,90.3022482 108.821629,90.9229586 108.821629,91.687736 C108.821629,92.4517727 109.443727,93.0728534 110.215009,93.0728534 C110.985172,93.0728534 111.609508,92.4517727 111.609508,91.687736" id="path80" fill="#FFFFFF" fill-rule="nonzero"></path>
                        <path d="M121.954682,106.322946 C121.954682,106.322946 122.50741,105.537429 118.078505,102.239442 C113.649601,98.9410848 109.13417,97.8555823 103.64121,98.1237174 C99.082888,98.345188 98.1053589,91.5270031 103.132865,91.245165 C106.966897,91.0307311 110.146384,92.2147472 113.328109,93.450983 C120.517293,96.2441797 123.707596,98.5359194 124.538925,102.108337 C125.666384,106.958841 121.954682,106.322946 121.954682,106.322946" id="path82" fill="#274D87" fill-rule="nonzero"></path>
                        <path d="M119.279438,110.629772 C119.279438,110.629772 123.475615,107.598809 119.048202,104.300823 C114.617806,101.002095 110.101629,99.916963 104.611279,100.185468 C100.051093,100.407309 99.0761747,93.5883837 104.101443,93.3061753 C107.934729,93.091371 110.976221,93.8624444 114.297806,95.5123637 C121.203167,98.9410848 124.814915,101.009132 125.13678,104.850055 C125.551885,109.810923 119.279438,110.629772 119.279438,110.629772" id="path84" fill="#FFFFFF" fill-rule="nonzero"></path>
                        <path d="M108.946571,103.849733 C117.224799,107.881018 126.564099,107.414374 126.564099,107.414374 C126.564099,107.414374 119.649041,105.865931 114.758785,104.216382 C109.16699,102.330178 101.151699,98.4333319 101.151699,98.4333319 C101.151699,98.4333319 104.056314,101.467998 108.946571,103.849733" id="path86" fill="#838CB7" fill-rule="nonzero"></path>
                        <path d="M150.55664,97.8033627 C140.594122,87.8160736 129.382934,84.5184571 129.382934,84.5184571 C129.382934,84.5184571 140.315148,90.7833358 145.713003,95.5123637 C150.418271,99.6347545 155.430486,106.749592 155.430486,106.749592 C155.430486,106.749592 155.6565,102.913113 150.55664,97.8033627" id="path88" fill="#838CB7" fill-rule="nonzero"></path>
                        <g id="g90" transform="translate(81.081583, 69.033659)">
                            <g id="g92-Clipped">
                                <mask id="mask-2" fill="white">
                                    <use xlink:href="#path-1"></use>
                                </mask>
                                <g id="path94"></g>
                                <g id="g92" mask="url(#mask-2)" fill="url(#linearGradient-3)" fill-rule="nonzero">
                                    <path d="M19.0996732,16.6747397 C18.2698364,16.9499114 18.7800462,21.08045 15.5028434,21.8978174 C10.0266664,23.2647876 7.19850798,21.6230161 7.19850798,21.6230161 C7.19850798,21.6230161 1.10918412,19.1494334 0.278974352,16.126248 C-0.343123535,13.8596922 0.278974352,12.0034867 1.10918412,10.3546785 C1.93976685,8.70512962 3.99477845,5.74305233 5.30498821,4.29978961 C8.21445201,1.10105724 11.90303,0.001481409 11.90303,0.001481409 C11.90303,0.001481409 11.1641955,4.21571965 11.3931932,6.49931162 C11.5897433,8.43366142 11.6717946,10.0728405 12.5020043,10.8976149 C13.3318412,11.7216487 15.0377619,12.5393865 17.7603725,12.5464231 C20.4837291,12.5530895 22.6062465,14.1104207 22.6062465,14.1104207 L19.0996732,16.6747397" id="path106"></path>
                                </g>
                            </g>
                        </g>
                        <path d="M106.455941,82.4118935 C106.455941,82.4118935 105.716361,80.7619743 103.779578,80.2116308 C100.32037,79.2301974 94.4134242,78.5565266 94.4134242,78.5565266 C99.8123984,76.9147551 99.0097877,75.7566636 107.192911,77.2810335 C108.668715,77.5562052 114.623027,78.753554 110.515615,80.945669 C108.563913,81.9867292 106.455941,82.4118935 106.455941,82.4118935" id="path108" fill="#D0AB6B" fill-rule="nonzero"></path>
                        <path d="M96.6534242,90.9314767 C96.6534242,90.9314767 93.746944,91.4814498 92.9846131,91.2066484 C91.0381329,90.5037198 88.0055922,89.5496924 86.5503009,88.7334361 C84.5254991,87.5983064 82.1258721,84.828442 82.8143569,81.8615501 C83.585266,78.5406015 87.659112,73.5475125 87.659112,73.5475125 C81.1524455,85.70951 86.2053125,86.60317 88.6261983,88.2512375 C89.8353357,89.0756416 96.6534242,90.9314767 96.6534242,90.9314767" id="path110" fill="#FFFFFF" fill-rule="nonzero"></path>
                        <path d="M98.9363145,84.8851059 C98.9363145,84.8851059 95.2003706,83.0985266 96.8600442,83.0985266 C98.5204637,83.0985266 101.287457,83.5107287 101.287457,83.5107287 L98.9363145,84.8851059" id="path112" fill="#274D87" fill-rule="nonzero"></path>
                    </g>
                </g>
            </g>
        </g>
    </g>
</svg>