<svg width="200" height="200" fill="none" xmlns="http://www.w3.org/2000/svg"><path d="m172.788 84.113 1.325-2.308h-.008l-1.483 2.584-2.507 4.368.004.005 2.669-4.65Z" fill="#104C99"/><path d="m198.46 91.109-.045.09s-14.249 27.872-17.052 31.702l-.165.22c-2.887 3.949-9.651 13.197-21.498 17.509a42.646 42.646 0 0 1-14.627 2.599c-3.949 0-6.647-.571-7.339-.736-.871-.186-3.812-.953-6.73-3.247a16.182 16.182 0 0 1-1.955-1.808c-7.052 4.744-16.358 8.737-24.026 8.737-4.71 0-7.88-1.464-9.98-3.178-7.035 6.259-19.474 12.755-29.256 12.755-6.585 0-10.167-2.861-12.01-5.262-1.085-1.41-1.875-3.049-2.373-4.908l-2.375.461-6.35 1.232-6.694 14.695-1.08 2.364-2.543.53-20.554 4.268-4.102.853-5.52-13.052 9.78-6.821 14.878-29.73-21.492-6.689 60.062-12.67 3.256-.6 1.89 2.722 1.072 1.551c3.216-2.37 6.776-4.499 10.616-6.343-1.084-1.505-2.146-3.175-2.727-4.34-.662-1.324-1.423-3.132-1.423-5.376 0-.89.123-1.791.366-2.68 1.138-4.178 6.958-6.872 8.763-7.617.12-.059.33-.157.633-.272a10.051 10.051 0 0 1-.9-1.94c-.284-.815-.446-1.826-.446-2.775 0-1.24.268-3.039 1.543-4.569 1.888-2.265 4.218-3.844 9.448-4.178 1.666-.106 3.615-.559 4.445-.767 2.717-3.09 4.879-6.157 6.574-10.908 1.748-4.898 2.744-11.507 2.754-11.575l.194-1.3 3.147 2.359c3.507 1.729 4.727 6.86 4.734 6.91a.422.422 0 0 1 .005.039 53.675 53.675 0 0 0 3.703-4.67c1.874-2.635 2.296-4.4 2.313-4.474l1.094-5.21 3.92 3.58c1.148 1.048 2.487 3.357 2.495 6.428 4.338-4.513 5.094-8.28 5.124-8.443l.996-5.777 4.138 4.138c1.844 1.845 4.545 6.716 4.702 11.52.218-.497.358-.862.417-1.016l.004-.01 1.455-4.094 3.341 2.787c2.124 1.771 3.392 5.219 3.392 9.224 0 1.058-.485 4.13-.91 6.454a59.713 59.713 0 0 0 2.558-3.238l.743-1.006.582 1.107c.252.476 2.436 4.766 1.802 8.317-1.354 7.575-7.802 13.096-9.747 14.607a526.34 526.34 0 0 1-2.345 1.815h.165l13.262-.019 2.516-.003 1.419 2.078 2.982 4.366.636.932.004.005 2.669-4.65 1.325-2.307.053-.092 2.765.01 13.255.048 2.683.01.054.09h.005l1.486 2.481L197 88.668l1.46 2.44Z" fill="#164884"/><path d="m139.003 30.797 4.138 4.139c1.844 1.845 4.545 6.716 4.702 11.52.218-.498.358-.862.417-1.016l.004-.01 1.455-4.094 3.341 2.787c2.124 1.771 3.392 5.219 3.392 9.224 0 1.058-.485 4.13-.91 6.454a59.713 59.713 0 0 0 2.558-3.238l.742-1.007.583 1.108c.252.476 2.436 4.766 1.801 8.317-1.354 7.575-7.801 13.096-9.746 14.607-.814.633-1.594 1.237-2.345 1.815h.165l13.262-.019 2.515-.003 1.42 2.078 2.982 4.366.636.932.004.005 2.669-4.65 1.325-2.307.053-.092 2.765.01 13.255.048 2.683.01.054.09h.005l1.485 2.481L197 88.668l1.46 2.44-.045.09s-14.25 27.873-17.052 31.703l-.166.22c-2.887 3.949-9.65 13.197-21.497 17.509a42.654 42.654 0 0 1-14.627 2.599c-3.949 0-6.647-.571-7.339-.737-.872-.185-3.813-.952-6.73-3.246a16.182 16.182 0 0 1-1.955-1.808c-7.052 4.744-16.358 8.737-24.026 8.737-4.711 0-7.88-1.464-9.98-3.178-7.035 6.259-19.475 12.755-29.257 12.755-6.584 0-10.166-2.861-12.01-5.262-1.084-1.41-1.874-3.049-2.372-4.908l-2.376.461-6.35 1.232-6.694 14.695-1.078 2.364-2.545.53-20.553 4.268-4.103.853-5.519-13.053 9.779-6.82 14.88-29.73-21.493-6.689 60.061-12.67 3.257-.6 1.89 2.722 1.071 1.551c3.217-2.37 6.777-4.499 10.617-6.343-1.084-1.506-2.146-3.175-2.727-4.34-.662-1.324-1.423-3.132-1.423-5.376 0-.89.123-1.791.366-2.68 1.138-4.178 6.957-6.872 8.762-7.617.12-.059.331-.157.633-.272a10.051 10.051 0 0 1-.9-1.94c-.283-.815-.445-1.826-.445-2.775 0-1.24.268-3.039 1.543-4.569 1.888-2.265 4.217-3.844 9.448-4.178 1.666-.106 3.614-.559 4.445-.767 2.716-3.09 4.879-6.157 6.574-10.908 1.748-4.898 2.744-11.507 2.754-11.575l.194-1.3 3.147 2.359c3.507 1.729 4.727 6.86 4.734 6.91l.005.039a53.673 53.673 0 0 0 3.703-4.67c1.874-2.636 2.296-4.4 2.313-4.474l1.094-5.21 3.92 3.579c1.148 1.049 2.487 3.358 2.495 6.43 4.337-4.514 5.094-8.282 5.124-8.444l.996-5.778ZM138.115 28l-.442 2.568-.993 5.762c-.025.12-.533 2.445-2.88 5.546-.552-1.941-1.55-3.415-2.501-4.285l-3.92-3.579-1.745-1.594-.487 2.315-1.09 5.193c-.026.098-.446 1.666-2.096 3.986a55.839 55.839 0 0 1-2.091 2.766 16.251 16.251 0 0 0-.358-.777c-1.094-2.213-2.499-3.772-4.175-4.638l-3.053-2.287-1.811-1.358-.335 2.239-.194 1.3c-.01.064-.998 6.58-2.689 11.32-1.577 4.422-3.561 7.29-6.038 10.15-.898.213-2.468.545-3.795.63-6.05.387-8.573 2.468-10.4 4.661-1.535 1.84-1.855 3.971-1.855 5.433 0 1.094.189 2.268.52 3.22.1.287.206.56.317.824-2.72 1.214-7.685 3.96-8.842 8.205a11.496 11.496 0 0 0-.413 3.035c0 2.524.837 4.522 1.565 5.98.434.872 1.124 2.02 1.93 3.22a67.463 67.463 0 0 0-8.283 4.959l-.29-.419-1.89-2.723-.496-.716-.858.157-3.257.6-.017.003-.017.003L5.073 112.37 0 113.442l4.95 1.541 19.974 6.217-14.014 28-9.497 6.625-.898.626.425 1.008 5.52 13.053.432 1.021 1.087-.226 4.103-.853 20.553-4.268 2.546-.53.669-.14.283-.621 1.079-2.364 6.405-14.062 5.666-1.099 1.185-.23a14.891 14.891 0 0 0 2.234 4.174c2.028 2.64 5.945 5.789 13.081 5.789 9.755 0 21.9-6.108 29.317-12.372 2.687 1.856 6.018 2.794 9.919 2.794 3.791 0 8.072-.901 12.727-2.677 3.76-1.435 7.58-3.387 11.114-5.67.417.399.854.777 1.308 1.131 3.141 2.47 6.333 3.301 7.263 3.5.782.186 3.566.77 7.638.77 5.128 0 10.204-.901 15.09-2.679 12.229-4.451 19.158-13.922 22.121-17.974l.158-.211.005-.008.005-.009c2.833-3.873 16.581-30.744 17.165-31.885l.048-.091.339-.665-.383-.642-1.461-2.441-2.586-4.317-1.486-2.482-.393-.657h-.009l-.052-.086-.758-.003-2.683-.01-13.255-.048-2.765-.01-.785-.003-.392.68-.052.091-1.325 2.308-1.598 2.782-2.407-3.525-1.42-2.078-.404-.59-.714.002-2.515.004-9.499.013c2.6-2.17 8.2-7.587 9.495-14.828.716-4.008-1.663-8.668-1.936-9.184l-.581-1.106-1.003-1.906-1.279 1.732-.071.094c.071-.607.116-1.138.116-1.502 0-4.4-1.45-8.236-3.878-10.26l-3.341-2.787-1.489-1.243-.65 1.827-.179.503c-1.06-3.267-2.818-6.053-4.17-7.407l-4.138-4.138-1.839-1.84Z" fill="#fff"/><path d="m149.46 86.618 12.97-.019 2.811 4.118a60251.183 60251.183 0 0 0-15.384 28.549s-1.393 2.607-.863 4.194c0 0 5.175.02 8.996-4.114 3.82-4.135 12.745-21.378 12.745-21.378l6.331-11.028 12.952.046 2.587 4.317s-12.671 24.702-15.377 28.399c-2.708 3.697-8.688 12.087-19.279 15.941-10.591 3.854-19.093 1.678-19.093 1.678s-9.524-1.837-8.919-12.671c.344-5.755 6.691-15.449 6.691-15.449l12.832-22.583Z" fill="#009366"/><path d="m162.429 86.6 2.811 4.117c-1.555 2.874-15.384 28.549-15.384 28.549s-1.393 2.607-.863 4.194h.002c.898.035 5.208-.019 8.994-4.114 3.82-4.135 12.745-21.378 12.745-21.378l6.331-11.028 12.952.046 2.587 4.317s-12.671 24.701-15.377 28.399c-2.708 3.697-8.688 12.086-19.279 15.941a37.753 37.753 0 0 1-12.877 2.291c-3.825 0-6.216-.611-6.216-.611s-9.524-1.837-8.919-12.671c.344-5.755 6.69-15.45 6.69-15.45l12.832-22.582 12.971-.02Zm.677-1.284-.677.002-12.97.018-.744.002-.368.647-12.813 22.549c-.488.749-6.522 10.133-6.875 16.039-.342 6.152 2.377 9.64 4.721 11.482 2.38 1.872 4.838 2.439 5.195 2.515.327.081 2.758.644 6.5.644 4.518 0 8.997-.797 13.314-2.369 10.747-3.912 16.8-12.188 19.709-16.164l.164-.223c2.735-3.736 14.965-27.558 15.483-28.571l.324-.633-.366-.61-2.587-4.317-.371-.62-.723-.002-12.952-.046-.745-.004-.371.647-6.331 11.028-.014.024-.013.025c-.088.17-8.889 17.136-12.55 21.097-2.313 2.504-5.225 3.316-6.837 3.578.135-.743.478-1.624.776-2.187.135-.251 13.845-25.702 15.381-28.54l.371-.688-.44-.644-2.811-4.118-.38-.56Z" fill="#C4AB2F"/><path d="m149.46 86.618 12.97-.019-16.123 28.659s-5.038 8.202 2.687 8.202c2.524 0 5.962-.873 8.996-4.114 3.846-4.111 12.745-21.378 12.745-21.378l6.331-11.028 12.953.046s-15.109 27.627-17.817 31.323c-2.708 3.696-7.702 10.736-18.291 14.59-6.976 2.894-25.31 4.763-23.972-8.249.344-5.755 6.69-15.449 6.69-15.449l12.831-22.583Z" fill="#fff"/><path d="m145.782 91.533-3.105-4.07s-20.966 2.684-35.115 17.357c-4.43 4.595-9.3 10.364-11.224 17.597-7.72 28.995 22.687 17.899 34.927 6.648l2.102-5.99-3.781-5.124-11.224 1.952-.991 2.62s-1.678 1.15-4.013 1.45c.096-.992.135-14.693 17.377-16.305l15.047-16.135Z" fill="#009366"/><path d="m142.679 87.464 3.105 4.069-15.046 16.138c-17.243 1.612-17.282 15.313-17.378 16.306 2.337-.301 4.013-1.451 4.013-1.451l.991-2.62 11.224-1.951 3.782 5.124-2.102 5.99c-6.45 5.927-17.942 11.813-26.245 11.813-7.454 0-12.335-4.744-8.683-18.462 1.925-7.233 6.794-13.003 11.224-17.597 14.148-14.676 35.115-17.36 35.115-17.36Zm.571-1.364-.733.094c-.22.029-5.46.718-12.521 3.24-6.525 2.332-15.873 6.74-23.354 14.497-4.58 4.751-9.534 10.623-11.54 18.158-1.976 7.427-1.656 12.914.954 16.311 1.918 2.495 4.935 3.761 8.967 3.761 5.165 0 10.66-2.068 14.361-3.805 4.763-2.234 9.409-5.276 12.75-8.345l.236-.216.107-.303 2.102-5.99.224-.64-.402-.545-3.782-5.124-.469-.636-.78.135-11.224 1.951-.721.125-.258.684-.834 2.207a9.247 9.247 0 0 1-1.524.67c.324-2.247 1.06-4.29 2.196-6.086 2.674-4.233 7.336-6.688 13.854-7.297l.485-.046.332-.356 15.047-16.139.737-.79-.655-.859-3.105-4.069-.45-.587Z" fill="#C4AB2F"/><path d="m128.173 102.794 14.506-15.33s-20.965 2.683-35.115 17.356c-4.43 4.595-9.3 10.364-11.224 17.597-6.586 22.032 18.568 14.622 30.808 3.373l2.442-7.837-11.224 1.952-.991 2.622s-2.172 1.691-7.932 1.953c-1.222-.041-1.357-.922-1.303-1.742 1.217-18.665 20.033-19.944 20.033-19.944Z" fill="#fff"/><path d="m106.549 101.109-3.105-4.07s-20.965 2.683-35.115 17.357c-4.43 4.595-9.299 10.364-11.224 17.597-7.718 28.995 22.688 17.899 34.928 6.648l6.068-17.904-3.35-5.183-14.926 5.571-4.938 8.789 2.154 2.604-3.216 1.106s.435-14.768 17.68-16.379l15.044-16.136Z" fill="#009366"/><path d="m103.444 97.042 3.104 4.068-14.36 15.403-2.636.984c-3.415.557-6.091 1.666-8.185 3.054l-1.544.578-.654 1.161c-5.154 4.846-5.402 11.454-5.402 11.454.543-.113 2.286-.637 3.317-1.167l-2.201-2.659 4.285-7.628c.65-.611 1.379-1.197 2.198-1.739l8.185-3.054a28.44 28.44 0 0 1 1.95-.248l.685-.736 2.561-.956 3.35 5.183-6.068 17.905c-6.45 5.927-17.942 11.813-26.245 11.813-7.454 0-12.334-4.744-8.683-18.462 1.925-7.232 6.794-13.003 11.224-17.597 14.153-14.675 35.119-17.357 35.119-17.357Zm.57-1.366-.732.094c-.22.029-5.46.718-12.52 3.24-6.526 2.332-15.874 6.74-23.355 14.498-4.58 4.751-9.534 10.622-11.54 18.157-1.977 7.427-1.656 12.914.954 16.311 1.918 2.495 4.935 3.762 8.967 3.762 5.164 0 10.66-2.069 14.36-3.806 4.763-2.233 9.41-5.276 12.75-8.345l.242-.221.105-.311 6.067-17.904.2-.586-.336-.52-3.35-5.183-.142-.22 11.803-12.659.738-.79-.655-.859-3.105-4.069-.451-.59Z" fill="#C4AB2F"/><path d="m88.939 112.371 14.506-15.33s-20.966 2.683-35.115 17.356c-4.43 4.596-9.3 10.365-11.224 17.597-6.586 22.033 18.568 14.623 30.808 3.374l6.837-19.811-14.926 5.572-4.938 8.789 4.79-1.989-1.537 4.175s-5.237 2.565-7.931 1.954a1.678 1.678 0 0 1-1.304-1.743c1.218-18.664 20.034-19.944 20.034-19.944Z" fill="#fff"/><path d="m66.345 106.062-43.756 8.08 11.918 2.383-18.541 37.043-7.427 5.181 2.225 5.195 20.557-4.27 7.788-17.097 8.941-1.736 6.116-11.74-2.781-3.299 8.885-1.889 9.151-13.409-3.076-4.442Z" fill="#009366"/><path d="m66.345 106.062 3.076 4.442-9.149 13.407-8.885 1.889 2.78 3.299-6.116 11.74-8.942 1.736-7.788 17.099-20.555 4.27-2.225-5.193 7.427-5.183 18.539-37.043-11.916-2.381 43.754-8.082Zm.58-1.41-.813.151-43.756 8.08-6.552 1.21 6.534 1.305 10.271 2.053-17.644 35.252-7.159 4.996-.854.596.41.959 2.226 5.193.412.962 1.024-.212 20.556-4.27.636-.132.268-.591L40 143.708l8.293-1.609.606-.118.285-.549 6.117-11.74.397-.762-.554-.657-1.404-1.664 6.795-1.445.501-.107.289-.424 9.149-13.406.496-.728-.501-.724-3.076-4.442-.466-.681Z" fill="#C4AB2F"/><path d="m66.345 106.062-43.756 8.08 11.918 2.383-18.541 37.043-7.427 5.181 19.79-3.895 7.58-17.124 8.952-1.737 5.6-11.353-8.946 1.738 2.286-4.549 13.505-2.62 9.039-13.147Z" fill="#fff"/><path d="M96.988 88.767c-1.687 0 2.109-1.828 2.109-1.828l2.389 1.406s-2.811.422-4.498.422Zm-15.745-2.11c-.632 2.32 0 4.219.842 5.904.845 1.688 2.931 4.717 4.263 6.194 2.955 3.272 6.703 4.396 6.703 4.396s-.752-4.31-.519-6.646c.2-1.98.282-3.654 1.127-4.5.842-.842 2.576-1.68 5.34-1.686 2.767-.007 4.923-1.6 4.923-1.6l-3.561-2.624c-.84-.28-.329-4.476-3.62-5.334-.508.14-6.939 1.923-8.119 2.732-2.46 1.686-7.592 2.6-.982 15.04 0 0-4.138-5.106-4.922-8.503-.699-3.034 1.74-5.869 3.796-7.03 1.457-.822 5.147-2.03 7.148-2.752a14.885 14.885 0 0 0-1.158-.052c-2.801 0-4.233.837-4.233.837s-6.184 2.532-7.028 5.624Z" fill="#C4AB2F"/><path d="M110.859 90.969c-1.984-1.064-4.125-1.5-4.125-1.5s-.751 1.689-2.719 2.253c-3.514 1.003-9.514 1.693-9.514 1.693 5.485 1.68 4.67 2.863 12.983 1.305 1.499-.284 7.548-1.507 3.375-3.751Z" fill="#C4AB2F"/><path d="M115.733 91.344c-2.615.06-7.124-3.748-8.343-3.841-8.32-.642-8.34-9.654-8.34-9.654-1.874.562-3.656.937-6.185.375-1.374-.304-2.436-1.032-3.186-3.186-.22-.628-.71-2.877.563-4.405 1.406-1.688 2.903-2.813 7.31-3.093 2.661-.17 5.919-1.084 5.95-1.118 3.047-3.381 5.676-6.791 7.734-12.566 1.874-5.247 2.625-8.622 2.625-8.622 1.03.095 2.112 2.724 2.342 4.407.283 2.061.471 5.06-1.407 7.59 0 0 4.594-2.438 10.591-10.872 2.394-3.369 2.811-5.53 2.811-5.624 0 .095 2.158 1.968 1.314 5.998-.613 2.937-4.593 7.968-4.593 7.968s8.168-5.825 9.558-7.218c5.624-5.624 6.373-10.496 6.373-10.496 2.251 2.249 5.008 8.693 3.282 12.745-2.156 5.062-4.031 6.843-7.779 9.372 0 0 5.998-.844 9.935-4.874 2.985-3.058 4.685-7.873 4.685-7.873 2.251 1.874 3.657 8.153.375 14.995-1.619 3.38-5.624 5.624-5.624 5.624 2.253 1.5 5.265.174 8.623-2.625 2.248-1.872 3.753-4.143 3.753-4.143s.466 1.521-.004 4.143c-.965 5.416-5.245 10.123-8.62 12.747-6.244 4.855-10.088 7.683-15.372 10.121-4.876 2.249-9.433 3.915-18.371 4.125Zm-8.249 3.375c-8.311 1.56-7.497.374-12.983-1.305 0 0 6-.69 9.514-1.694 1.968-.564 2.72-2.252 2.72-2.252s2.14.435 4.124 1.5c4.174 2.243-1.875 3.469-3.375 3.75Zm-26.24-8.062c.843-3.091 7.03-5.622 7.03-5.622s1.43-.838 4.232-.838c1.112 0 2.443.135 3.98.504.144.03.2.045.257.062 3.289.858 2.78 5.053 3.62 5.333l3.561 2.624s-2.156 1.594-4.923 1.6c-2.766.007-4.498.845-5.342 1.687-.843.844-.927 2.52-1.126 4.5-.233 2.336.518 6.646.518 6.646s-3.748-1.124-6.703-4.396c-1.332-1.476-3.418-4.506-4.263-6.195-.84-1.686-1.473-3.585-.84-5.905Zm79.982-21.676c.635-3.55-1.549-7.84-1.801-8.319l-.582-1.107-.743 1.006a60.471 60.471 0 0 1-2.558 3.237c.424-2.325.91-5.396.91-6.455 0-4.004-1.268-7.452-3.39-9.223l-3.343-2.787-1.455 4.094-.004.01c-.057.154-.199.518-.415 1.016-.159-4.803-2.86-9.675-4.704-11.52l-4.138-4.137-.996 5.777c-.03.162-.787 3.93-5.124 8.445-.007-3.07-1.347-5.382-2.493-6.429l-3.921-3.58-1.095 5.211c-.017.074-.439 1.837-2.313 4.474a53.675 53.675 0 0 1-3.703 4.67l-.005-.039c-.007-.049-1.227-5.181-4.734-6.91l-3.147-2.359-.194 1.3c-.01.066-1.006 6.677-2.755 11.575-1.695 4.751-3.858 7.815-6.575 10.907-.829.21-2.777.661-4.445.766-5.23.335-7.558 1.913-9.448 4.18-1.274 1.53-1.543 3.328-1.543 4.569 0 .949.162 1.962.446 2.777.253.726.55 1.368.9 1.938a7.622 7.622 0 0 0-.633.272c-1.805.745-7.625 3.438-8.763 7.614-.243.89-.364 1.792-.364 2.681 0 2.244.76 4.052 1.421 5.376.956 1.916 3.208 5.19 4.724 6.872 3.402 3.769 7.611 5.127 8.082 5.269l4.699 1.409-.838-4.835c-.143-.827-.518-3.353-.518-5.085 0-.147.003-.285.008-.419 2.47.812 6.765 1.648 12.512.57 3.816-.713 5.911-1.746 6.799-3.386.343.05.662.071.962.064 9.771-.228 14.643-2.129 19.57-4.401 5.704-2.634 9.834-5.717 15.959-10.481 1.947-1.511 8.394-7.032 9.748-14.607Z" fill="#164884"/><path d="M114.335 77.932c.319.521.505 1.134.505 1.79a3.47 3.47 0 0 1-3.466 3.467 3.469 3.469 0 0 1-3.449-3.128c.417-.088.827-.19 1.234-.301a32.164 32.164 0 0 0 2.406-.768c.721-.26 1.437-.535 2.151-.816.211-.082.417-.163.619-.244Zm6.445-3.147c2.498-1.616 3.827-3.313 4.323-5.464.085-.363.139-.694.174-1-1.036 2.486-3.841 4.292-8.409 6.65l-.144.074c-.292.148-.589.302-.895.455l-.17.087c-.312.158-.63.317-.957.48a35.36 35.36 0 0 1-.709.342l-.195.087a24.716 24.716 0 0 1-1.072.462l-.282.11c-.101.038-.202.079-.303.116-.058.022-.115.04-.173.06-.298.109-.597.208-.898.301-.002 0-.002 0-.003.002-.154.047-.307.09-.461.135l-.093.025c-.154.042-.307.081-.461.12l-.086.02c-.16.039-.321.076-.483.11l-.044.008c-.383.081-.77.149-1.163.205l.046-.007c-.308.044-.618.08-.932.111l-.048.005c-.317.03-.638.051-.964.063-.656.025-1.333.02-2.036-.02-2.595-.147-3.613-2.021-3.38-3.8-1.806 1.937-1.327 5.699 2.396 5.908.351.02.696.024 1.035.022-.329.69-.333 1.192-.333 1.192s6.136 7.608 11.481 1.261c1.997-2.362 4.07-5.966 5.239-8.12ZM96.988 88.767c1.687 0 4.498-.422 4.498-.422l-2.39-1.406s-3.793 1.828-2.108 1.828Z" fill="#164884"/><path d="M87.642 98.537s-4.138-5.107-4.921-8.504c-.7-3.034 1.737-5.868 3.795-7.03 1.457-.822 5.148-2.03 7.147-2.752.847.066 1.783.203 2.823.451.143.03.199.046.256.063-.508.14-6.939 1.922-8.119 2.731-2.458 1.685-7.59 2.6-.98 15.041Z" fill="#fff"/><path d="M89.68 75.036c.75 2.156 1.811 2.882 3.186 3.188 2.53.562 4.31.189 6.186-.375 0 0 .02 9.012 8.34 9.654 1.221.093 5.728 3.905 8.345 3.842 8.936-.21 13.493-1.876 18.366-4.124 5.286-2.44 9.13-5.266 15.372-10.122 3.373-2.623 7.653-7.33 8.62-12.746.468-2.622.003-4.142.003-4.142s-1.504 2.27-3.753 4.142c-3.359 2.799-6.373 4.126-8.622 2.625 0 0 4.003-2.242 5.624-5.622 3.28-6.843 1.876-13.122-.375-14.997 0 0-1.702 4.815-4.685 7.872-3.937 4.03-9.934 4.874-9.934 4.874 3.746-2.53 5.624-4.31 7.78-9.371 1.727-4.052-1.03-10.497-3.281-12.745 0 0-.751 4.87-6.375 10.494-1.374 1.376-9.356 7.074-9.554 7.214.122-.154 3.985-5.073 4.589-7.964.844-4.028-1.313-5.902-1.313-5.996 0 .094-.417 2.255-2.811 5.622-5.997 8.436-10.593 10.872-10.593 10.872 1.878-2.53 1.688-5.53 1.405-7.59-.228-1.684-1.31-4.312-2.342-4.407 0 0-.748 3.373-2.624 8.62-2.058 5.775-4.685 9.185-7.734 12.567-.03.035-3.287.947-5.95 1.117-4.406.282-5.903 1.407-7.308 3.095-1.275 1.525-.782 3.773-.562 4.403Zm40.345 12.28s11.104-6.41 16.588-11.247c4.78-4.217 9.871-11.495 9.871-11.495s.232 3.925-4.95 9.152c-10.121 10.214-21.509 13.59-21.509 13.59Zm-2.863-23.424s-7.025 1.583-11.994 3.272c-5.591 1.9-13.567 5.792-13.815 5.914.133-.14 3.061-3.157 7.911-5.538 8.41-4.124 17.898-3.648 17.898-3.648Zm-26.197 10.634c-.233 1.778.785 3.652 3.38 3.799.704.04 1.379.046 2.036.02.327-.013.648-.035.965-.062l.048-.005c.312-.029.624-.066.932-.11.184-.027.366-.057.548-.088a17.343 17.343 0 0 0 .568-.11l.043-.008c.162-.035.325-.07.483-.11l.086-.022c.156-.038.309-.077.463-.118.029-.008.061-.018.091-.025.154-.044.309-.088.461-.135h.003c.301-.091.598-.194.897-.3.059-.023.115-.041.172-.063.103-.037.203-.078.304-.115l.282-.11.28-.115.272-.116c.174-.073.346-.152.52-.231l.194-.088c.237-.11.473-.223.709-.343.326-.165.644-.324.958-.481.057-.029.113-.06.17-.086.306-.156.604-.307.895-.458.047-.023.094-.049.143-.072 4.571-2.357 7.373-4.165 8.411-6.649a8.962 8.962 0 0 1-.173 1c-.497 2.15-1.827 3.849-4.324 5.463-1.168 2.156-3.242 5.759-5.237 8.126-5.344 6.346-11.481-1.261-11.481-1.261s.002-.505.333-1.194c-.343.002-.684-.002-1.035-.022-3.724-.214-4.204-3.976-2.397-5.91Z" fill="#fff"/><path d="M107.926 80.06a3.472 3.472 0 0 0 3.449 3.129 3.472 3.472 0 0 0 3.466-3.468 3.43 3.43 0 0 0-.503-1.791c-.204.083-.41.165-.62.245-.672.263-1.345.523-2.024.77.155-.056.311-.11.466-.167.334.344.544.811.544 1.328a1.902 1.902 0 1 1-3.804 0c0-.096.015-.192.027-.285-.329.09-.664.167-1.001.24Z" fill="#fff"/><path d="M109.265 67.538c-4.969 2.437-7.918 5.541-7.918 5.541s8.141-3.986 13.822-5.915c4.967-1.689 11.992-3.273 11.992-3.273s-9.487-.476-17.896 3.647ZM146.612 76.067c-5.484 4.84-16.588 11.246-16.588 11.246s11.388-3.373 21.508-13.589c5.179-5.227 4.95-9.152 4.95-9.152s-5.09 7.278-9.87 11.495ZM108.898 80.108a1.903 1.903 0 1 0 3.804 0c0-.517-.209-.984-.543-1.329-.156.058-.311.112-.466.167-.91.32-1.831.611-2.764.868l-.002.008c-.013.093-.029.188-.029.286Z" fill="#009366"/></svg>