<svg width="200" height="200" xmlns="http://www.w3.org/2000/svg"><g fill="none"><path fill="#C18F07" d="M79.218 24.047V.475H23v19.188l4.891-.004v32.592L23 52.265v18.892h30.694V52.281H49.16v-6.245l15.694.032V27.7l-15.694-.03v-8.048h8.852v4.425h21.206m33.922-4.427V.475H82.415V19.62h4.818v32.74h-4.818v18.787h30.69V52.36h-4.671V19.62h4.706M147.742.477v19.147l3.292-.006-.004 32.674h-8.852V19.624h2.94V.474h-28.88v19.148h4.659v37.914l12.979 13.628h25.467l12.893-13.628V19.622h4.748V.475l-29.242.002"/><path fill="#0E2B58" d="M25.283 17.336H30.2v37.252h-4.913v14.277h26.158V54.588h-4.609V43.663H62.51V30.001H46.836v.024-12.689h13.687v4.408H76.85V2.75H25.283v14.585M110.86 2.751H84.696v14.585h4.813v36.551l-.006.63H84.8v14.348h26.061V54.517h-4.715V17.336h4.715V2.75m39.232 14.586h3.387l-.155-.09v35.916h.007l-1.35 1.426-10.776-.007-1.35-1.397-.01-35.845v-.003h2.764V2.75h-24.113v14.585h4.789-.074v39.247l11.717 12.282h23.29l11.734-12.282.005-39.244.018-.003h4.693V2.75h-24.576v14.585m-30.935 51.582h.938c3.178.01 7.01.185 10.592.761-3.583-.576-7.414-.75-10.592-.761h-.938m21.6 12.468"/><path d="M147.531 121.596c-.012.044-.024.093-.039.136-.102.3-.236.518-.358.678a1.575 1.575 0 0 1-.337.343l-.003.002-.012.01c-.006 0-.009 0-.011.003 0 .003-.007.003-.007.003l-.015.027a2.493 2.493 0 0 0-.103-.524 1.926 1.926 0 0 0-.794-1.086.858.858 0 0 0-.196-.093.918.918 0 0 0-.314-.064 1.498 1.498 0 0 0-.579.093 2.276 2.276 0 0 0-.66.382c-.339.279-.606.66-.71 1.078a.777.777 0 0 0-.026.14 1.5 1.5 0 0 0 .005.513 1.843 1.843 0 0 1-.43-.236c-.34-.243-.624-.606-.833-1.005-.254-.471-.408-.985-.4-1.389 0-.04.012-.072.02-.11.005-.079.01-.159.037-.23a.515.515 0 0 0 .023-.186.38.38 0 0 0-.068-.221.068.068 0 0 0-.024-.027 2.335 2.335 0 0 1-.597.32c-.026.004-.052.007-.075.014l-.012.001c-.02.003-.043.009-.068.014-.3.066-.58.122-.85.158-.095.008-.181.008-.27.011a6.964 6.964 0 0 1-1.346-.127c.14-.29.265-.595.37-.915.051-.15.084-.32.125-.48.12-.46.21-.94.23-1.46.059-1.542-.621-2.413-1.39-2.801a2.385 2.385 0 0 0-.933-.242 1.769 1.769 0 0 0-.424.03c-.096.02-.19.05-.278.079a2.13 2.13 0 0 0-.387.167c-.827.475-1.262 1.49-.891 2.643.013.066.032.143.052.228.04.125.08.275.125.438.045.167.094.356.137.563a7.43 7.43 0 0 1-.506-.229c-.015-.008-.028-.016-.048-.022-.15-.083-.31-.164-.462-.256 0-.005-.002-.005-.012-.005 0 0-.003-.006-.009-.007a6.657 6.657 0 0 1-1.315-1.03 4.67 4.67 0 0 1-.358-.414 3.441 3.441 0 0 1-.582-1.104c-.023-.102-.138-.314-.244-.376-.058-.04-.11-.027-.155.052-.003.01-.014.019-.016.034-.022.056-.052.12-.079.197-.16.19-.34.347-.516.48a3.21 3.21 0 0 1-.896.451 3.539 3.539 0 0 1-.791.176 4.119 4.119 0 0 1-.86.017c.424-.681.514-1.46.38-2.127a2.426 2.426 0 0 0-.23-.657 1.802 1.802 0 0 0-.485-.617c-.027-.02-.058-.044-.089-.061a2.814 2.814 0 0 0-.89-.362 1.943 1.943 0 0 0-.453-.038 1.836 1.836 0 0 0-.907.305c-.12.08-.247.183-.374.304 0-.008 0-.027.003-.04-.5.591-.489 1.8-1.19 1.537-.841-.327-1.223-1.162-1.223-1.162.452-1.482.902-4.38.902-4.38l1.428-.663c.272-.14.545-.273.826-.391.77-.33 1.652-.604 2.53-.646a4.117 4.117 0 0 1 1.242.12c.863.228 1.657.792 2.252 1.888.097.177.192.37.275.578.07.162.04.272.136.203.026-.02.075-.065.14-.132.055-.062.224-.172.461-.295a8.845 8.845 0 0 1 1.208-.513c.061-.015.126-.036.19-.053.061-.02.122-.04.188-.059.086-.022.18-.04.267-.064.094-.02.182-.044.272-.062l.111-.015c.07-.01.14-.026.21-.035h.02c.086-.01.173-.018.253-.026.032-.003.062-.006.09-.006a3.68 3.68 0 0 1 .256-.005c.255 0 .502.035.74.09a7.954 7.954 0 0 1 3.44 1.886c.13.119.257.243.375.37a17.734 17.734 0 0 1 .385.432c.143.173.28.345.406.529.891 1.256 1.37 2.635 1.4 3.737.01.333-.02.638-.095.91-.01.037-.014.064-.023.096-.012.057-.02.108-.024.15-.003.024-.007.052-.007.075a.278.278 0 0 0 .031.133c.009.01.014.018.023.024.004 0 .01.003.016.003.005 0 .007.006.015.006.042.011.096-.015.162-.06a.817.817 0 0 0 .166-.143c.165-.176.336-.441.469-.712.047-.09.086-.185.127-.272.066-.17.121-.329.142-.445 1.894 1.315 3.132 2.489 3.624 4.308.036.12.065.244.091.369.008.09.011.17.022.257.002.079.012.162.013.238a3.264 3.264 0 0 1-.132.651zm-2.391 4.258c0 .004-.008.01-.008.012-.006.004-.006.008-.008.012a2.137 2.137 0 0 1-.141.214c-.072.116-.142.203-.2.286-.11.134-.196.236-.238.275a.342.342 0 0 0-.05.04.572.572 0 0 0-.064.053.293.293 0 0 1-.066.022c-.005.001-.015.008-.022.008-.02 0-.033-.013-.045-.027a.095.095 0 0 1-.02-.062v-.004c0-.06.028-.139.082-.25.4-.794.544-1.455.562-2.016a3.965 3.965 0 0 0-.119-1.077 3.49 3.49 0 0 0-.076-.308c-.006-.03-.006-.053-.009-.078a.954.954 0 0 1-.033-.25c0-.042.006-.077.012-.116a.633.633 0 0 1 .04-.14.517.517 0 0 1 .491-.34c.224.009.455.173.544.498.049.196.077.387.091.579.014.128.022.254.015.38-.026.906-.39 1.72-.738 2.29zm-6.976-7.932a5.435 5.435 0 0 1-.264 1.506 6.451 6.451 0 0 1-.364.915c-.148.3-.296.526-.406.688a1.547 1.547 0 0 1-.145.194c-.015.02-.028.03-.044.043-.08.09-.133.13-.189.132-.036 0-.049-.026-.057-.054-.003-.01-.003-.026-.003-.035a.42.42 0 0 1 .013-.083.068.068 0 0 0 .002-.02c0-.006 0-.015.003-.02a10.147 10.147 0 0 0 .275-1.585v-.027c.012-.148.025-.291.025-.425a6.451 6.451 0 0 0-.196-1.845 6.608 6.608 0 0 0-.134-.445c-.048-.15-.089-.272-.103-.35h.006a.777.777 0 0 1-.015-.2.585.585 0 0 1 .07-.274.496.496 0 0 1 .21-.214.613.613 0 0 1 .17-.052h.005c.032-.002.067-.004.103-.003.304.007.645.212.817.586.02.052.042.109.057.168.086.315.132.616.15.91a4.058 4.058 0 0 1 .015.435v.055zm-10.987-3.378c-.158.289-.31.608-.453.929a25.386 25.386 0 0 0-1.127 3.175 5.444 5.444 0 0 0-.102.39c-.017.071-.033.12-.036.143a.307.307 0 0 1-.09.186.099.099 0 0 1-.024.034.124.124 0 0 1-.06.013l-.019-.002c-.008-.004-.015-.004-.022-.01a.104.104 0 0 1-.042-.042v-.002a.15.15 0 0 1-.032-.064.112.112 0 0 1-.009-.03c0-.01-.008-.026-.008-.036-.04-.19-.07-.37-.095-.547a9.752 9.752 0 0 1-.086-1.01 6.892 6.892 0 0 1 0-.464v-.031a.095.095 0 0 0 .003-.028l.002-.036c.047-1.14.327-2.01.618-2.606.002-.006.002-.012.01-.02.045-.099.094-.19.145-.276.046-.08.096-.16.141-.223a2.5 2.5 0 0 1 .263-.332c.016-.016.037-.04.052-.052a.859.859 0 0 1 .388-.183c.047-.008.1-.026.14-.026h.01c.054.002.11.014.165.034a.567.567 0 0 1 .159.089c.012.01.017.024.025.034a.599.599 0 0 1 .1.114c.012.015.02.024.025.04.022.036.04.079.052.12.017.065.03.135.034.206 0 .016.004.035.004.05a1.04 1.04 0 0 1-.13.463zm-5.532-17.085c-.148-.517-.274-.956-.386-1.355-.026-.09-.047-.175-.073-.26a58.634 58.634 0 0 0-.456-1.613 33.846 33.846 0 0 0-.145-.459l-.213-.633c-.062-.156-.119-.314-.18-.48.3-.224.683-.515 1.187-.904.5-.39.91-.758 1.264-1.11.464-.396.889-.804 1.25-1.23.446-.522.791-1.064 1-1.62.063-.161.12-.32.17-.48.047-.133.083-.256.118-.38 1.472-1.93 2.78-4.31 2.8-6.923 0-.744-.11-1.494-.362-2.235-.315-.91-.59-1.558-.925-2.08-.317-.498-.883-1.02-1.666-1.022l-.02.002c-.76.024-1.204.415-1.55.684-1.103.905-2.076 2.057-4.24 2.072-.342 0-.717-.032-1.134-.103-.318-.055-.614-.11-.897-.158-2.747-.554-5.611-1.746-7.643-2.723a25.812 25.812 0 0 0-2.851-1.492l-.017-.008a32.678 32.678 0 0 0-13.353-2.876c-2.27 0-4.713.24-7.277.836-.01.004-2.53.701-3.038.85-.67.214-1.307.415-1.91.611-1.097.41-2.014.84-2.784 1.264-4.348 1.976-7.757 3.227-8.671 3.456-.94.237-1.418.28-2.36.447a6.512 6.512 0 0 1-1.113.104c-.711-.01-1.245-.163-1.704-.393 1.152-1.533 2.315-2.966 3.34-4.017l-.053.035c4.424-4.42 5.208-5.1 10.492-8.318 2.215-1.344 3.587-2.28 3.587-2.28s3.514-3.003 8.712-4.261c5.204-1.258 8.892-.626 13.768 1.387 5.094 2.102 10.409 7.355 10.409 7.355l-3.029.851-2.514.707c-1.656.469-3.135.898-3.954 1.15 0 0-.946.385 2.365.02.676-.038 1.975-.172 4.472-.572.224-.038.438-.07.645-.102l.172-.029.104-.015c.005 0 .012 0 .016-.002l-.012.002c.797-.116 1.674-.248 2.635-.399l1.885-.283.879-.132.524-.06 2.09-.267.01-.001c.442-.056.935-.097 1.465-.116 2.256-.1 4.62.028 7.43.393a198.821 198.821 0 0 0 .604.078l1.442.165c1.011.156 1.985.363 2.882.551 1.452.305 2.665.641 3.527.985.061.027.114.048.172.073l.175.072c.214.101.417.195.613.292.364.179.69.348.981.505 2.053 1.131 2.484 1.955 2.952 3.198.679 1.817.289 3.837 0 5.722-.049.364-.103.756-.163 1.16a71.505 71.505 0 0 1-.52 3.801c-.032.201-.066.4-.099.598-.035.192-.068.38-.104.572a72.278 72.278 0 0 1-.572 2.853c-.073.314-.141.615-.21.905a91.735 91.735 0 0 1-.582 2.343l-.032.12a11.39 11.39 0 0 1-.155.55c-.07.244-.147.501-.231.765-.316 1.017-.66 2.164-1.1 3.348-.263.707-.595 1.422-.876 2.124l-.002.006c-1.072 2.69-2.197 5.184-2.844 6.19-.097.15-.183.274-.259.354l-.007.004c0 .004-.008.014-.015.022a3.3 3.3 0 0 1-.889.76 2.465 2.465 0 0 1-.414.202c-.234.087-.472.182-.674.264l-.606.246-.026-.032-.218-.236c-.004 0-.004-.005-.01-.006h.006v-.003l-.26-.216-.466-.31-.103-.069v-.003h-.002l-.007-.005v.002c-.008-.007-.021-.01-.031-.015l-.035-.018-.005-.003-.009-.003v.003a4.504 4.504 0 0 0-.607-.262 7.059 7.059 0 0 0-1.7-.365c-.037 0-.09-.005-.148 0h-.015c-.054 0-.116 0-.18.006h-.05c-.398.025-.947.08-1.367.128-.033.006-.072.009-.104.014a5.642 5.642 0 0 0-.499.08.367.367 0 0 0-.098.018 7.23 7.23 0 0 0-.943.26c-.276.094-.54.198-.796.308l-1.66 1.005c-.06-2.305-.471-4.982-1.49-8.017a19.793 19.793 0 0 0-.43-1.924zm3.29-19.642c.856 1.553.943 3.536-.365 5.712-1.305 2.18-2.872 2.009-2.966 1.912-.098-.1.094-.445.094-.445 2.343-2.34 3.237-7.179 3.237-7.179zm-5.722 35.473c-.739 1.097-1.348 1.938-1.893 2.611-.18.226-.354.434-.523.631-.094.105-.19.213-.284.314-.004.002-.008.002-.008.008-.206.225-.409.436-.608.626-.083.076-.158.15-.234.218-.21.2-.427.385-.644.569l-.008.009c0-.012 0-.029-.002-.04h-.002v-.007l-.887-3.449-.024-.06c-.191-.524-.647-1.538-.647-1.538s-.67-2.54-2.787-2.805c-2.112-.266-3.29-.637-4.517-.998h-.006a40.612 40.612 0 0 0-.608-.182c-.176-.052-.34-.101-.504-.148-.369-.106-.707-.201-1.002-.305-.006 0-.013 0-.02-.007-.954-.32-1.528-.67-1.539-1.375-.002-.284.084-.625.27-1.044.039-.081.08-.172.125-.259.017-.04.038-.07.058-.103.019-.03.04-.052.058-.077.023-.03.04-.054.063-.078a.772.772 0 0 1 .209-.143c.28-.144.61-.117.893-.045.095.024.184.037.277.056.09.015.188.039.278.052a5.453 5.453 0 0 0 2.04-.079c.6-.14 1.105-.357 1.489-.564.252-.14.455-.273.595-.379.149-.11.287-.222.413-.332.86-.756 1.23-1.524 1.463-2.438.12-.475.21-.987.307-1.564a9.079 9.079 0 0 1 .655-2.066c.066-.138.123-.243.171-.304.18-.234.528-.481.862-.75 0-.002.006-.005.006-.005.11-.09.22-.182.32-.276.03-.025.05-.05.078-.075.041-.04.076-.079.107-.117l.063-.066a1.51 1.51 0 0 0 .15-.22.99.99 0 0 0 .128-.412c.061-1.216.797-1.31 1.16-1.952.17-.29.257-.691.17-1.365a.142.142 0 0 0-.037-.08c-.005-.002-.014 0-.014-.004a.24.24 0 0 0-.068-.024c-.206-.01-.648.253-1.147.604a22.415 22.415 0 0 0-1.285.986c-.417.332-.756.621-.898.731-.06.05-.1.08-.148.12a5.741 5.741 0 0 0-.232.202c-.09.076-.17.155-.313.257-.178.137-.447.324-.96.658a36.492 36.492 0 0 1-2.905 1.702c-1.83.966-3.44 1.626-4.776 2.254-.52.244-1.006.484-1.442.731-.22.128-.436.257-.63.39-.01.006-.02.01-.023.017-.02.015-.037.025-.055.039-.584.405-1.066.859-1.427 1.413a3.732 3.732 0 0 0-.164.271 4.59 4.59 0 0 0-.333.772c-.023.08-.042.146-.057.207a.99.99 0 0 0-.04.283c.009.174.098.207.208.198.098-.007.276-.046.488-.212a1.62 1.62 0 0 0 .218-.208.738.738 0 0 1 .138-.128.252.252 0 0 1 .12-.057c.077-.014.143.027.196.119.053.092.093.233.119.433.029.251.048.476.048.685a9.98 9.98 0 0 1-.015.59c-.006.095-.009.19-.013.28-.011.187-.025.37-.025.564-.005.675.1 1.464.636 2.777.152.375.341.797.572 1.268a.61.61 0 0 1 .062.257c-.011.225-.218.399-.57.606-.312.177-1.825.956-5.673.956-2.081 0-7.064-.348-7.506-.931-.057-.075-.173-.214-.167-.311.195-1.17.92-2.723 1.18-4.866a13.06 13.06 0 0 0 .084-1.736v-.009a1.708 1.708 0 0 1-.004-.147c0-.183.014-.369.068-.49.038-.069.088-.109.162-.11.05 0 .113.013.194.065.108.063.24.15.366.22l.124.064c.009.002.023.013.028.014.09.03.17.03.236.002a.337.337 0 0 0 .12-.107.842.842 0 0 0 .092-.245.457.457 0 0 0 .028-.087c.018-.102.04-.203.056-.295a.889.889 0 0 0 .008-.318.028.028 0 0 0-.008-.018c-.004-.024-.007-.044-.015-.065a.662.662 0 0 0-.118-.195c-.011-.014-.033-.027-.043-.038a1.118 1.118 0 0 0-.184-.161 3.91 3.91 0 0 0-.582-.306 8.814 8.814 0 0 0-.515-.231c-.118-.053-.259-.106-.39-.162-.172-.067-.353-.14-.54-.212-.121-.048-.233-.091-.358-.145-1.43-.557-3.213-1.229-4.691-1.956-.006 0-.006-.002-.011-.005l-.025-.013c-.77-.404-1.545-.806-2.247-1.17-5.257-2.878-6.564-5.31-6.842-5.979a.061.061 0 0 0-.006-.026s-.606-1.92-.473-4.555c.096-1.45.424-3.095 1.152-4.874a.059.059 0 0 0 .006-.006v-.004c1.513-3.691 4.103-5.976 6.382-7.344h-.002l.055-.033a16.757 16.757 0 0 1 2.768-1.319c.068-.023.14-.045.208-.067.012-.006.027-.009.039-.012.026-.01.053-.018.083-.027.092-.029.177-.054.264-.083.182-.057.36-.113.541-.164.019-.007.03-.01.045-.017.027-.003.054-.014.077-.017.077-.018.16-.041.242-.06 3.49-1.094 8.862-2.043 15.255-.733.8.117 1.942.364 3.414.872a18.83 18.83 0 0 1 3.095 1.265 44.917 44.917 0 0 1 5.269 2.96c.099.065.196.126.29.19.076.047.149.098.219.147.006.004.01.013.017.016 1.139.851 1.253 1.93 1.78 2.455.353.355.743.52.99.598.224.11.367.033.367.033.258 0-.098-.742-.17-1.017a4.443 4.443 0 0 0-.067-.228c-.014-.052-.033-.102-.048-.156-.05-.249 0-.704.975-.704.973.17 1.761.317 1.996.382.636.175 3.397.59 5.771-1.365h.003s.204-.126.195.014a.669.669 0 0 1-.054.179c-1.346 1.964-3.223 4.886-4.456 5.547-1.897 1.02-1.542 1.882-1.738 3.274-.043.29-.027.669.018 1.086-.196-.3-.405-.624-.628-.957-.61-.934-1.37-1.29-1.37-1.29-.016-.01-.033-.015-.048-.025h-.006a.926.926 0 0 0-.151-.049c-.035-.01-.073-.016-.104-.021-.004-.005-.01-.005-.02-.005a.424.424 0 0 0-.085-.006l-.012.003c-.024 0-.046.008-.067.014-.023.005-.04.015-.058.024 0 .003-.002.003-.002.003-.017.014-.03.024-.039.037-.003.005-.004.007-.004.011a.139.139 0 0 0-.029.041v.01a.304.304 0 0 0-.021.108v.074a.175.175 0 0 1 .008.053.012.012 0 0 1 .004.009c.003.03.01.057.016.083.095.239.56.995.56 1 .587.792 1.307 2.11 1.346 2.178.243.515.514 1.134.814 1.883.005.013.014.03.016.045.156.378.314.785.477 1.229.007.01.01.022.017.03.204.558.42 1.16.654 1.824.014.053.035.105.05.157.043.12.085.236.127.358.09.258.187.516.28.795 1.5 4.29 1.746 7.647 1.815 10.298a80.273 80.273 0 0 1 .016 1.36c-.004 1.812-.248 3.05-1.774 5.337zm-7.465 3.848c-.035.293-.1.646-.228 1.054l-.06.175.001.007c-.002.015-.047.036-.395-.005a15.447 15.447 0 0 0-1.394-.083c-.615-.01-1.332.008-1.989.108-.543.086-.916.2-1.167.344-.33.184-.451.415-.451.687 0 .032 0 .067.005.104.017.222.235.3.523.31.059.004.115.01.178.004.379-.017.836-.124 1.176-.195a10.945 10.945 0 0 1 .799-.134c.488-.07.994-.125 1.27-.136.062-.006.107-.006.144-.006.206.006.455.03.555.04l.05.002h.001s.036-.004.08-.004a.18.18 0 0 1 .158.058c.013.013.03.02.034.041a.205.205 0 0 1 .002.035l-.002.014c0 .01-.004.018-.007.027-.053.217-.304 1.309-.718 2.39-.03.07-.06.146-.087.217-.21.52-.465 1.03-.75 1.415-.055.075-.115.15-.177.225-.897 1.063-2.1 1.341-3.388 1.694-.935.26-2.401.246-4.015.06-.486-.05-.98-.121-1.48-.202-.146-.025-.294-.048-.44-.072-.152-.03-.308-.058-.464-.088-2.491-.475-3.889-.773-3.832-1.838.033-.633.156-1.26.402-1.762.169-.343.393-.632.7-.818.758-.468 1.346-.746 2.23-1.697.276-.298.52-.534.775-.74.225-.187.46-.353.72-.517.133-.084.282-.17.433-.26.111-.062.221-.125.345-.193.064-.036.14-.082.214-.117l.298-.164c.168-.092.33-.191.479-.304.14-.1.268-.202.39-.32.868-.785 1.476-1.907 1.732-2.994.26-1.114.77-1.391 2.058-1.434.15-.006.307-.013.481-.013.236.001.492.007.775.013l.11.015c.064.009.16.028.279.045a24.663 24.663 0 0 1 .79.153c.71.145 1.54.361 1.886.616.566.418.688.815.782 1.315.012.074.027.145.038.222v.01c.003.005.008.012.01.022.017.069.047.226-.031.31a.018.018 0 0 1-.009.008.098.098 0 0 1-.028.017.242.242 0 0 1-.14.034c-.152-.003-.737-.048-1.443-.048h-.006c-.101 0-.204 0-.31.003l-.37.011-.211.016c-.07.005-.14.008-.21.015a2.978 2.978 0 0 0-.144.013c-.1.01-.189.025-.284.036-.112.02-.215.042-.319.066a3.417 3.417 0 0 0-.438.121 1.9 1.9 0 0 0-.436.226s-.329.307-.274.632c0 .02.008.033.014.048.083.286.421.443.984.354.02-.005.036 0 .06-.005a.278.278 0 0 0 .061-.013c.469-.081 1.274-.21 1.907-.278a7.15 7.15 0 0 1 .652-.055c.583-.009.952 0 .952 0s.021.003.048.012c.058.015.15.065.14.214 0 .026.004.058.004.1.006.168.02.45-.028.837zm-6.324 11.7c-.052.19-.092.378-.132.584-.121.614-.22 1.344-.516 2.48a71.628 71.628 0 0 0-.741 3.08 38.01 38.01 0 0 0-.528 3.014c-.013.059-.018.116-.027.178-.341 2.458-.504 4.272-1.146 5.573a3.845 3.845 0 0 1-.218.383 2.589 2.589 0 0 1-.163.244c-.706.97-1.091 1.511-3.361 2.255-.793.265-2.732.491-4.797.505-.695.005-1.402-.02-2.085-.067-1.212-.092-2.222-.213-3.12-.53-.075-.027-.155-.047-.23-.076a6.35 6.35 0 0 1-.4-.173l-.208-.11c-.14-.075-.273-.166-.41-.257-.042-.031-.087-.053-.13-.082a6.824 6.824 0 0 1-.517-.42 7.15 7.15 0 0 1-.613-.659 7.056 7.056 0 0 1-.31-.38h-.004c-.56-.938-.69-1.966-.702-2.867 0-.133 0-.262.003-.39l.02-.407c.005-.15.016-.288.026-.422.013.03.032.059.048.081.146.259.303.509.472.75.434.603.973 1.13 1.634 1.503.068.036.129.08.199.115.148.075.305.144.467.205.59.202 1.241.352 1.907.477 1.51.273 3.115.36 4.3.353h.013a16.035 16.035 0 0 0 1.352-.062c.525-.058 1.14-.128 1.753-.267a7.364 7.364 0 0 0 1.172-.365c.58-.248 1.1-.596 1.453-1.1.435-.608.678-1.29.851-2.015.058-.24.109-.49.152-.742.086-.496.161-1.014.249-1.54a8.25 8.25 0 0 1 .053-.34c.148-.826.179-1.726.317-2.562l.07-.35a5.97 5.97 0 0 1 .098-.389c.107-.34.244-.657.44-.94.046-.069.096-.142.144-.222.05-.07.096-.145.146-.221.713-1.137 1.496-2.734 1.563-4.046.007-.094.01-.18.013-.257.002-.067.002-.128.008-.183.003-.05.003-.095.01-.135.016-.285.04-.377.124-.381.006-.002.023.006.03.006.02 0 .04.003.063.011.077.027.177.075.317.126.074.024.179.06.3.105.024.01.045.015.067.026.002 0 .007.005.013.005l.108.049c.051.03.104.06.147.097a.634.634 0 0 1 .287.502.682.682 0 0 1-.031.25zm-16.273 3.793a.057.057 0 0 1 .007-.02.092.092 0 0 1 .046-.046l.009-.001c.003-.002.008-.002.011-.002h.002c.01-.004.011-.004.017-.004.01-.002.02 0 .02 0l.421-.002h.493c.098 0 .196-.004.302-.004l.136-.003h.131c.645-.008 1.27-.01 1.348-.008.114.004.159.036.18.06l.003.007c.008.004.008.009.008.009s0 .008.006.024c.007.003.017.024.02.038.014.023.022.042.043.082.005.02.02.045.03.069.029.054.059.119.1.196.154.31.558 1.535.966 1.543.245.004.486-.603.654-1.122.02-.076.041-.14.065-.204v-.007c.02-.067.036-.13.057-.188.03-.115.054-.207.073-.26.005-.027.01-.04.013-.053.037-.11.097-.143.132-.15l.016-.002c.011-.002 2.233.011 2.81.164.045.005.03.165.03.165s-.167 2.02-.415 2.972a1.47 1.47 0 0 1-.064.17c-.085.18-.22.329-.399.459-.534.384-1.439.555-2.406.556-.198 0-.4-.005-.602-.018-.476-.035-.86-.047-1.19-.08a4.557 4.557 0 0 1-.24-.021c-.007 0-.01 0-.01-.002-.088-.01-.171-.027-.25-.043-.021-.004-.034-.004-.048-.008a1.27 1.27 0 0 1-.305-.088c-.044-.015-.081-.032-.124-.048-.04-.016-.076-.034-.118-.054-.004-.003-.011-.003-.011-.003a7.64 7.64 0 0 1-.142-.081c-.005-.004-.005-.004-.011-.004l-.002-.004a5.928 5.928 0 0 1-.182-.125c-.02-.019-.039-.032-.062-.052a4.008 4.008 0 0 1-.231-.194c-.056-.055-.112-.108-.168-.17a3.283 3.283 0 0 1-.457-.646 2.618 2.618 0 0 0-.055-.117 4.928 4.928 0 0 1-.183-.454 9.77 9.77 0 0 1-.247-.782 11.109 11.109 0 0 1-.22-1.212 6.78 6.78 0 0 1-.017-.12.234.234 0 0 1 .01-.112zm1.293 6.801l.458-.425c.512.234 1.336.308 2.15.319h.045c.725-.002 1.43-.054 1.904-.101l.187-.02c.236-.024.38-.044.38-.044l.412.435s.07-.03.188-.101c.345-.21 1.131-.78 1.84-1.993.243-.414.42-.536.541-.543a.17.17 0 0 1 .1.034c.043.024.063.064.083.106.006.011.024.024.027.036.006.013.01.023.015.029v.006c0 .01 0 .02.003.026 0 .007.003.01.003.01.006.017.012.024.012.032.005.006.005.008.005.008.01.146.015.289.024.43l.003.243c.006.371-.02.708-.056 1.027-.07.629-.2 1.162-.364 1.556l-.05.115a3.729 3.729 0 0 1-.103.21c-.14.262-.286.442-.407.534-.154.11-.331.168-.518.197-.495.079-1.04-.08-1.244-.193a.67.67 0 0 1-.225-.228 2.171 2.171 0 0 1-.202-.366c-.005-.018-.017-.034-.017-.046l-.01-.013c-.023.041-.07.116-.138.202a.887.887 0 0 1-.132.14c-.014.014-.036.03-.049.04a1.1 1.1 0 0 1-.408.226c-.08.024-.166.04-.255.058-.082.019-.163.042-.25.055a1.694 1.694 0 0 0-.1.02c-.205.029-.414.04-.624.044-.067 0-.136 0-.205-.004-.024 0-.05-.003-.076-.003a7.465 7.465 0 0 1-.61-.045 10.087 10.087 0 0 1-1.393-.253l-.088-.027a.933.933 0 0 1-.076-.02l-.894-.337c0 .005-.252.45-.512.596-.168.099-.65.41-1.599-.329-.677-.529-.919-1.803-.956-2.772-.002-.104-.006-.204-.006-.3 0-.292.025-.54.062-.704a1.926 1.926 0 0 1 .086-.313c.063-.177.142-.346.222-.469a1.16 1.16 0 0 1 .122-.147.36.36 0 0 1 .061-.053c.054-.037.102-.037.135.002.12.148.068.36.414 1.028.002.004.009.007.012.015.032.065.07.134.113.213.492.853 1.96 1.855 1.96 1.857zm-5.855-6.435l.002-.001a5.184 5.184 0 0 1-.15-.218.086.086 0 0 0-.015-.03c-.27-.459-.522-1.089-.65-1.974a9.099 9.099 0 0 1-.082-1.797l.048-.327s3.54-.43 6.466-1.395c.049-.02.1-.04.153-.053.035-.015.07-.023.114-.04.185-.063.381-.13.578-.202.332-.118.676-.24 1.009-.363.126-.043.25-.09.369-.134a198.97 198.97 0 0 0 1.829-.673c.039-.013.06-.024.076-.027.013-.004.023-.012.023-.012s.048-.012.133-.017h.024c.06 0 .15.01.257.03.068.008.138.02.231.043l.014.007c.01 0 .022.004.045.01.015.007.037.011.063.02l.032.013c.016.007.026.009.042.013a.052.052 0 0 1 .017.008c.027.006.057.016.08.023a16.175 16.175 0 0 0 .405.128c.155.05.322.099.503.153.081.026.163.049.246.073.36.1.741.204 1.107.292.446.106 1.172.235 1.919.356l.319.048c.056.01.111.017.171.031.128.018.259.038.382.057.155.022.302.047.448.065.07.018.14.025.21.032.257.043.48.073.664.1.26.04.44.073.483.084a.437.437 0 0 1 .286.231.64.64 0 0 1 .076.309l-.001.12a1.894 1.894 0 0 1-.049.333 4.129 4.129 0 0 1-.132.506 6.725 6.725 0 0 1-.16.438 15.67 15.67 0 0 1-.43.96c-.097.195-.185.38-.276.545-.301.586-.547.978-.763 1.259a2.037 2.037 0 0 1-.356.386.898.898 0 0 1-.17.112.14.14 0 0 1-.088.01c-.061-.02-.095-.105-.118-.21a1.883 1.883 0 0 1-.03-.378c0-.1.004-.19.004-.25a7.51 7.51 0 0 0 .007-.627c-.031-1.389-.42-2.305-.527-2.635-.036-.114-.084-.211-.126-.306a1.48 1.48 0 0 0-.249-.47c-.006-.008-.011-.019-.02-.027v-.004c0-.005-.005-.005-.005-.009-.005-.003-.006-.003-.01-.012 0-.005-.005-.01-.009-.015v-.005a.058.058 0 0 1-.015-.017v-.004c-.003-.003-.003-.003-.006-.003-.004-.006-.004-.013-.004-.013l-.959 1.433-9.108.417-1.218-.806s-.009.01-.01.017c-.006.004-.006.004-.008.01-.015.027-.053.08-.095.153-.167.276-.502.874-.822 1.691a10.295 10.295 0 0 0-.646 2.491c-.046.467-.011 1.002-.074 1.062-.004.005-.007.005-.01.005a.128.128 0 0 1-.006.015s-.013.007-.033.011h-.005c-.068.028-.141.012-.141.012-.658.024-1.259-1.058-1.259-1.058zm-.01 25.67c1.997 3.934 3.6 8.056 3.6 8.056-.034 0-.068.003-.105.005-.264.031-.524.069-.78.115-.926.19-2.092.554-2.436.666-3.259 1.212-5.617 3.415-6.637 4.675-.085.108-.19.208-.381.16-1.759-.487-4.304-.99-8.248.341a9.83 9.83 0 0 0-.96.376c-.083.034-.144.028-.18-.057-1.079-2.71-1.845-6.332-1.449-7.698.216-.75-.254-.736-.562-.358-.447.552-.665 1.544-.733 2.071-.2 1.627-.112 3.97-.1 4.422.01.45-.129.616-.576 0-.418-.583-7.178-13.061-8.183-14.642-.832-1.306-4.03-8.394-5.339-11.875-.462-1.245-.865-3.325-1.198-6.162-.662-5.575-1.012-14.37-.496-19.287.816-7.78 2.564-21.365 6.781-30.13a27.286 27.286 0 0 1 1.603-2.897l.44-.688c.123.19.246.377.373.56.062.503.61 3.573 4.988 6.734l-.444 1.099-.003.01c-.104.31-.197.587-.276.812-.062.17-.115.317-.149.402l-.006.01-.01.028v.009l-.01.013-.003.01h-.002v.01c-.003.004-.007.024-.022.056-.005.003-.008.015-.016.04v.002l-.004.003v.01c-.015.041-.041.102-.065.178-.016.044-.031.094-.048.145-.087.251-.212.595-.355 1.023-.02.064-.047.137-.068.208a1.872 1.872 0 0 0-.047.133c-.055.166-.119.353-.178.537-.113.338-.231.69-.35 1.069l-.019.062c-.026.093-.06.187-.09.282a67.769 67.769 0 0 0-.906 3.166c-.02.08-.035.154-.056.227-.039.151-.074.308-.114.457a18.076 18.076 0 0 0-.303 1.67c-.025.161-.042.303-.063.451-.015.132-.036.277-.053.397 0 .014 0 .027-.003.04 0 .018-.006.035-.008.054-.045.373-.087.713-.11 1.04-.012.112-.025.239-.035.36l-.006.006v.042l-.001.086c-.006.1-.006.192-.015.284-.003.05-.003.098-.003.151 0 .154.012.305.014.452-.022.3-.043.66-.043 1.075-.004 2.957.988 8.65 7.504 13.65 1.267.973 2.182 1.634 2.834 2.064.056.038.107.072.16.11.19.155.377.32.571.48l1.773 1.522c.274.233.537.458.786.676.06.046.124.106.189.156.003.007.067.056.183.157.114.096.286.242.49.432.175.16.733.703.923.888.082.087.16.17.228.245.217.25.466.542.69.805.187.226.357.432.485.58.06.076.11.139.142.182l.034.039c.007.019.009.022.02.043.188.357 1.543 2.855 1.87 4.31.459 1.999 1.052 4.725 2.126 7.253.317.747.678 1.474 1.088 2.16a12.37 12.37 0 0 0 1.25 1.749l-1.548 4.652s-.027-.032-.063-.08c-.013.004-.025-.006-.034-.02-.015-.02-.49-.672-.96-1.31l-.432-.582c-.09-.12-.175-.23-.245-.327-.83-1.003-.136 1.619-.136 1.619s2.496 4.042 4.52 8.05zM100.1 174.88c.208.428.295.58.682.432 5.862-2.252 9.945 3.67 8.475 8.217-.14-1.69-.76-3.378-2.308-4.666-1.714-1.435-3.582-.73-4.512.255-.696.735-1.701 2.248-1.029 4.053.493 1.325.828 1.797 2.726 3.048.382.246.957.607 1.424 1.146-3.967 1.686-7.087.233-8.782-2.98-.337-.636-.563-.327-.906.055-1.052 1.178-8.924 4.104-13.54-2.641-.29-.418-.723-.205-.684.333.263 3.809-5.01 9.842-12.847 8.42-.22-.038-.678-.202-.942.511-1.512 4.084-4.999 4.478-7.208 3.827.307-.844.65-1.599 1.006-2.01 1.02-1.175 2.08-2.2 2.276-3.138.617-2.916-2.288-5.758-5.228-4.113a1.711 1.711 0 0 0-.338.246c-1.494 1.624-2.16 3.317-2.333 4.924-.673-1.764-.452-3.645.192-4.973 1.328-2.745 4.284-4.509 7.658-4.49.562.005.949-.424 1.016-.91.815-5.7 6.995-9.184 13.913-5.725.46.23.834.1 1.055-.25 4.193-6.77 15.427-9.347 20.234.43zm7.504 11.375c-.05.382-.175.313-.304-.025a16.896 16.896 0 0 0-.854-1.856c-.325-.603-.727-1.078-1.244-1.537-.885-.78-1.43-1.48-1.564-2.102-.152-.705.215-1.116.548-1.345.86-.589 1.735-.008 2.168.55 1.598 2.057 1.329 5.722 1.25 6.315zm-49.058 7.72c-.081.779-.225.885-.42.353-.737-2.03-.615-6.143 1.509-7.384 1.048-.614 1.832.87 1.082 1.585-1.648 1.574-1.994 3.814-2.171 5.445zM60.24 78.476s.944 5.1 3.416 7.572c0 0 .206.367.102.468-.102.1-1.752.281-3.136-2.013-1.378-2.299-1.28-4.39-.382-6.027zm28.048 39.29c.221.11.462.225.72.34 1.187.533 1.618.738 1.921.945.16.113.288.222.462.382.078.065.16.139.26.224.792.693 1.234 1.101 1.708 1.315.362.16.679.215.801.513a.91.91 0 0 1 .045.395c-.032.585-.093 1.51-.633 2.035a1.01 1.01 0 0 1-.264.19 6.817 6.817 0 0 1-.436.228c-.065.033-.14.068-.213.104-.544.25-1.325.588-2.233.928a31.178 31.178 0 0 1-2.014.69 3.334 3.334 0 0 1-.19.06c-.064.019-.127.04-.185.059-.187.053-.37.106-.558.153-.373.1-.746.19-1.116.275-.374.079-.743.146-1.102.2-.207.031-.409.055-.607.078-2.175.23-3.856-.085-5.108-.81a5.485 5.485 0 0 1-.852-.624c-.23-.152-.513-.417-.875-.842-1.268-1.491-1.855-4.221-1.94-4.634-.081-.415.276-.374.276-.374l.015.016c.023-.001.041-.017.078-.016.067 0 .31-.008.655-.012.459-.002 1.109.012 1.798.1a6.692 6.692 0 0 1 .633.107c.167.034.331.065.487.11.195.051.374.1.542.145.174.05.345.095.493.135.416.11.736.173.964.156a.579.579 0 0 0 .201-.05.382.382 0 0 0 .166-.141c0-.005 0-.005.004-.007a.705.705 0 0 0 .09-.318.426.426 0 0 0-.005-.063c-.024-.26-.25-.455-.51-.6-.39-.214-.861-.308-.861-.308s-1.354-.276-2.688-.33c-.192-.004-.381-.01-.565-.004a6.96 6.96 0 0 0-.618.034l-.45.05c-.095.006-.177.024-.254.027-.229.027-.367.04-.45.05-.052.01-.08.01-.095.013 0 0-.012.006-.029.006h-.045c-.006 0-.011 0-.011-.006h-.007l-.014-.004s-.005 0-.014-.003c-.006-.005-.01-.005-.012-.012a.127.127 0 0 1-.034-.017.232.232 0 0 1-.043-.048.47.47 0 0 1-.095-.153c-.127-.318-.307-.686-.36-1.177l-.02-.18c-.036-.426-.033-.821-.033-.821s-.009-.058.056-.112a.237.237 0 0 1 .09-.043.665.665 0 0 1 .182-.026l.355-.001h.16c.587.01 1.481.047 2.174.213l.745.183c.239.057.452.114.634.156.32.08.529.135.529.135s.863.227.972-.363a.573.573 0 0 0-.004-.21c-.105-.454-.825-.68-.825-.68s-.273-.09-.709-.184c-.436-.1-1.036-.207-1.682-.254a1.285 1.285 0 0 1-.139-.013.97.97 0 0 1-.121-.007 27.022 27.022 0 0 0-.8-.024c-.804-.015-1.12.013-1.12.013s-.133.018-.13-.073a.13.13 0 0 1 .015-.052c0-.006 0-.007.003-.013a.542.542 0 0 1 .037-.069c.067-.104.217-.332.5-.599.022-.022.047-.043.07-.067.184-.165.413-.334.706-.495.29-.164.635-.315 1.053-.432.493-.143.992-.21 1.5-.215a7.77 7.77 0 0 1 1.547.135c.152.026.3.054.45.087.174.035.346.077.525.12a27.64 27.64 0 0 1 1.014.282c.019.006.04.014.064.02.02.006.05.02.074.026a.778.778 0 0 1 .07.027c.06.016.12.043.193.066.027.011.062.021.095.033.056.024.122.05.187.075.043.017.083.029.125.05l.053.017c.058.025.114.047.175.074.364.154.73.326.924.485a3.652 3.652 0 0 1 .409.395c.077.095.15.19.22.298.095.143.194.305.329.525.188.316.478.666.985 1.064.375.295.869.608 1.53.945zm13.584-4.53a.478.478 0 0 1 .199.156c.11.121.153.272.172.417.025.159.027.314.022.468-.02.234-.07.447-.156.65-.15.384-.407.7-.76.933-.321.214-.722.44-1.17.48-.977.09-1.617-.013-2.175.149a2.332 2.332 0 0 0-.625.307c-.06.04-.119.07-.18.12-.083.065-.16.131-.227.195a1.558 1.558 0 0 0-.186.204c-.108.13-.209.27-.275.435a2.404 2.404 0 0 0-.127.44 3.756 3.756 0 0 0-.056.312c-.005.052-.021.088-.033.135-.017.063-.03.133-.05.19-.03.07-.068.127-.103.185-.018.018-.024.045-.039.065a.03.03 0 0 0-.012.008c-.335.423-.933.475-1.238.511a1.859 1.859 0 0 1-.499.002c-.025-.003-.05-.01-.079-.014a2.124 2.124 0 0 1-.535-.177 2.349 2.349 0 0 1-.744-.613c-.299-.368-.503-.803-.823-1.49a1.457 1.457 0 0 0-.651-.668c-.006 0-.007 0-.015-.01-.003 0-.01 0-.012-.004h-.006a2.386 2.386 0 0 0-.298-.133c-.029-.015-.066-.02-.097-.032a6.008 6.008 0 0 0-.428-.14c-.208-.067-.512-.143-.858-.234l-.261-.076a5.204 5.204 0 0 1-.25-.068c-.06-.017-.12-.039-.185-.058-.659-.194-1.358-.443-1.834-.754a.912.912 0 0 1-.351-.366c-.004-.016-.016-.03-.025-.042-.006-.009-.015-.023-.015-.03a.449.449 0 0 1 .044-.382c.107-.2.326-.37.572-.482.068-.034.143-.055.22-.078.013-.004.03-.012.05-.017.066-.017.157-.023.234-.034.506-.075 1.208-.038 2.022.082.213.035.423.064.643.106l.11.023c.547.107 1.126.24 1.705.4a4.18 4.18 0 0 1 1.429.681c.244.188.467.406.688.662a.66.66 0 0 0 .113.106.19.19 0 0 0 .122.04l.015-.002h.01a.032.032 0 0 0 .018-.012l.01-.001c.014-.011.023-.02.037-.03l.033-.043a.063.063 0 0 0 .021-.037c.012-.01.021-.023.027-.03 1.028-1.685 3.558-2.336 6.275-2.486.05-.007.092-.003.14-.003.084.003.166.005.23.018.028.006.057.008.077.014.055.02.102.033.14.052zm6.003-13.145a2.455 2.455 0 0 0-.047-.21c.184-.104.345-.202.512-.305.384-.228.744-.458 1.062-.676.036.236.063.466.078.691a5.602 5.602 0 0 1-.012 1.302c-.019.176-.06.35-.104.52a2.64 2.64 0 0 1-.094.332 3.588 3.588 0 0 1-.279.593c-.151.25-.352.487-.578.712a4.71 4.71 0 0 1-1.041.782c-.093.051-.193.091-.288.135-.245.11-.485.203-.73.263-1.254.317-2.519 0-3.418-.593-.54-.355-.95-.81-1.147-1.29v-.004c.222-.062.429-.128.648-.195.218-.069.441-.13.646-.203a2.587 2.587 0 0 0 2.217 1.258c.141 0 .265-.025.402-.044.132-.02.258-.051.381-.091.129-.037.255-.074.373-.132.013-.007.03-.013.045-.02.018-.008.031-.015.049-.021 0 0 0-.005.003-.005a2.633 2.633 0 0 0 1.372-2.302c0-.166-.018-.334-.05-.497zm-30.05 1.453a2.665 2.665 0 0 0 2.278 1.668c.065.002.127.02.196.02.064 0 .127-.012.185-.018.066-.002.128-.002.19-.014l.011-.001c.037-.006.077-.01.109-.019.034-.007.066-.008.099-.016a2.584 2.584 0 0 0 1.193-.63 1.98 1.98 0 0 0 .246-.253c.207.078.425.157.643.234l.347.124.348.121c-.615 1.382-2.781 2.49-5.028 1.538-.073-.03-.148-.075-.222-.11-.076-.038-.151-.068-.226-.108-1.974-1.08-2.713-3.086-2.342-5.218.117.097.238.193.371.293.408.309.885.63 1.45.966-.002.01-.002.018-.002.025l-.029.202-.003.101c-.006.033-.006.069-.006.106 0 .35.068.683.192.99zm-4.11-3.928l.015.067.053.259c.05.26.1.544.134.887.177 1.453.505 2.786 1.037 3.917.06.125.117.246.18.364.06.11.12.22.182.33.13.211.264.414.414.609.938 1.263 2.273 2.102 4.115 2.314.345.04.706.058 1.087.053.304-.004.622-.025.95-.058.02 0 .034-.002.05-.004.54-.054.981-.047 1.452.473.066.073.139.16.211.26a.386.386 0 0 1 .066.14.389.389 0 0 1-.07.289c-.131.217-.455.448-.898.651-.918.427-2.362.74-3.78.606a6.567 6.567 0 0 1-.398-.045 20.419 20.419 0 0 1-1.6-.276c-1.835-.386-3.754-.832-4.758-1.915v-.001a1.614 1.614 0 0 1-.36-.475c0-.002 0-.003-.003-.007-.196-.334-.302-.647-.414-.92-.23-.552-.363-1.013-.392-1.626v-.064c0-.044-.004-.085-.004-.127-.005-.52.06-1.156.184-2.04.03-.179.055-.366.085-.56l.106-.607c.07-.388.143-.74.206-1.068.019-.118.033-.222.05-.335l.044-.252c.012-.105.02-.207.027-.31a3.399 3.399 0 0 0-.102-1.283c-.145-.701-.158-1.57.054-1.778.008-.007.021-.013.029-.02a.158.158 0 0 1 .016-.014c.019-.008.042 0 .062 0 .024 0 .042-.008.065 0 .169.068.332.183.486.316.245.21.459.476.611.661.01.022.024.032.04.052a2.2 2.2 0 0 0 .08.095c.232.264.448.604.62 1.19.023.074.044.15.065.233v.01l.003.009zM62.218 79.03l.12.078h.002a6.857 6.857 0 0 0 3.83 1.133c.48 0 .982-.045 1.517-.136 4.1-.726 5.595-.99 6.14-1.088-2.1 2.056-3.945 5.097-5.287 7.687.391.142.774.202.986.159a.726.726 0 0 1 .308.007c.025.005.043.018.067.025.135.047.258.15.335.328.042.103.074.221.077.39.002.21-.043.481-.144.816-.002 0-.002 0-.002.006a.037.037 0 0 1-.006.014c-.002.011-.002.02-.01.029-.24.763-.63 2.22-1.074 3.99a5.338 5.338 0 0 1-.057.215l-.047.212A244.149 244.149 0 0 0 67.68 98.4a154.87 154.87 0 0 0-.965 4.63 39.243 39.243 0 0 0-.427 2.598c-.005.04-.012.073-.014.108-.005.041-.01.081-.01.12-.093.883-.03 1.868.279 2.65.09.22.186.42.316.604 1.082 1.52 1.811 2.162 3.98 4.49.028.03.05.075.072.128l.01.013c.061.178.092.481.082.854-.02 1.22-.416 3.193-1.13 4.263-.034.051-.075.09-.108.135-.046.063-.094.131-.145.184-.196.212-.412.358-.642.408a.913.913 0 0 1-.173.014c-2.193-1.672-3.584-3.671-4.262-4.81l.109.19a9.964 9.964 0 0 1-.392-.698c.076.143.171.31.283.508l-.472-.878c-1.975-4.105-1.212-8.108-1.212-8.108l.003.008a17.316 17.316 0 0 1 .195-1.37c.03-.158.063-.32.095-.483.209-1.047.492-2.135.83-3.277.089-.327.189-.659.292-.99.057-.178.108-.358.163-.535.025-.077.052-.155.074-.233.038-.117.072-.23.11-.345.044-.146.092-.292.14-.433.2-.626.4-1.215.59-1.754.063-.182.122-.356.182-.526.105-.277.198-.536.283-.776.043-.047.592-1.374.828-1.953 1.203-3.67.941-5.394.728-6.467-.216-1.066-1.91-2.724-1.935-2.749-1.019-.921-2.283-2.78-3.342-4.343 0-.002 0-.002-.003-.004-.668-.976-.132-.703.127-.543zM150 119.013l-.056-.213a1.932 1.932 0 0 1-.048-.154l-.138-.363c-.646-1.66-2.01-3.692-4.365-4.961-.76-1.8-1.926-3.306-3.106-4.48-1.362-1.336-2.692-2.268-3.881-2.705-.024-.009-.048-.014-.07-.024 1.389-2.533 4.997-9.622 6.447-18.051.68-4.007 1.17-6.823 1.388-9.07.06-.624.1-1.203.114-1.755.005-.167.005-.333.005-.497 0-.733-.052-1.424-.169-2.098a8.059 8.059 0 0 0-1.625-3.562c-1.116-1.399-2.795-2.562-5.142-3.514-2.353-.945-5.413-1.68-9.396-2.07a43.29 43.29 0 0 0-2.972-.174 68.725 68.725 0 0 0-1.91-.027c-1.565 0-3.084.054-4.221.174-.859.091-1.61.284-3.015.567-.88-.997-2.272-2.024-3.363-3.125-3.687-3.704-12.262-7.908-18.67-7.928-.25-.01-.51-.016-.771-.016-3.772.001-6.962 1.166-9.115 2.24-2.619 1.311-5.468 3.741-7.214 4.79-2.286 1.384-5.833 3.706-7.146 4.779-1.238 1.012-2.91 2.477-4.397 4.008-.17.21-.385.442-.656.693-1.316 1.221-2.62 2.653-3.843 4.104a4.446 4.446 0 0 1-.402-.279c-.347-.262-.916-.77-1.907-.81-1.001.021-1.851.608-2.28 1.271-.315.476-.834 1.179-1.183 2.182-.26.75-.265 1.476-.265 2.119v.279c.008.895.153 1.876.399 2.773-.427.63-.663 1-.663 1.003-7.29 10.584-9.714 32.329-9.724 46.974 0 1.588.028 3.092.084 4.488.153 3.908.44 7.505 3.016 12.755 6.603 13.463 11.56 21.2 15.238 26.883-1.42 1.532-2.117 3.144-2.348 3.983a.81.81 0 0 1-.09.219c-.02.005-.108.009-.25.009-.469.012-4.2.47-6.816 4.127-1.176 1.654-1.602 3.31-1.601 4.799.004 2.551 1.217 4.57 1.962 5.447.617 2.76 2.199 4.84 2.634 5.373.24.282.457.487.82.506a.65.65 0 0 0 .545-.335c.096-.171.137-.35.158-.546.02-.226.236-1.236.553-2.335 2.71 1.687 8.348 2.299 10.669 2.34.076.002.15.002.224.002 5.869.008 8.238-2.578 10.862-3.795 2.162-1.011 3.736-2.05 7.244-2.054 1.356 0 2.999.16 5.073.554.79.147 1.542.215 2.258.215 3.806 0 6.486-1.861 7.592-2.666a41.55 41.55 0 0 0 1.734-1.323c.054.23.104.488.154.826.038.23.106.443.218.627.112.18.306.38.616.388.458-.031.676-.367.893-.828.114-.267.944-1.982 1.356-4.13.156-.194.311-.39.455-.595.973-1.356 1.458-3.05 1.458-4.756 0-1.793-.538-3.61-1.634-5.072-1.496-1.996-4.087-3.368-7.006-3.498-.055-.002-.111-.006-.167-.006-.128 0-.242.006-.343.006-.374-.026-.546.01-1.076-.65-1.918-2.52-5.054-4.93-9.504-5.625-1.786-3.88-4.94-8.841-7.472-12.56.324-1.478.754-3.335 1.152-5.113.26.168.529.322.813.459.813.341 1.702.579 2.631.75l1.155.18c1.382.176 2.759.227 3.882.227.15 0 .296 0 .435-.003h.204a20.382 20.382 0 0 0 1.954-.09 14.395 14.395 0 0 0 2.177-.383c1.17-.303 2.444-.787 3.602-1.585a8.477 8.477 0 0 0 1.606-1.367c1.828-1.984 2.332-4.32 2.519-6.042.18-1.644.29-3.06.423-3.668.171-.804.635-2.548 1.042-4.3.195-.866.395-1.705.547-2.382.155-.636.291-1.185.303-1.251.037-.144.068-.271.095-.385.652-.263 1.149-.592 1.663-.934.084-.055.164-.108.24-.16 2.496-1.714 4.129-4.613 6.903-5.945 1.14-.547 2.38-.422 3.629-.13 1.26.293 2.632.992 3.986.97 1.916-.03 2.648-.55 4.385.172 1.715.712 3.595 1.005 5.29 1.763 2.23.998 4.276 2.492 6.815 2.538.12.002.251.005.382.005.073 0 .148-.003.224-.003-.068.14-.141.276-.224.412a1.447 1.447 0 0 0-.242.75 1.1 1.1 0 0 0 .248.712c.253.286.562.372.814.376.225 0 .415-.05.57-.108a6.925 6.925 0 0 0 2.762-2.1 4.576 4.576 0 0 0 1.492-.722 5.28 5.28 0 0 0 1.429-1.589 8.963 8.963 0 0 0 1.139-4.255c0-.543-.051-1.097-.194-1.652z" fill="#0E2B58"/><path d="M112.998 69.157c.196-.021 1.102-.134 2.48-.225-1.378.09-2.284.204-2.48.225" fill="#0E2B58"/><path d="M86.043 173.723c.35-1.331 1.957-2.942 3.865-2.937 3.324.002 4.434 3.153 4.15 5.59-.284 2.44-3.194 6.525-3.875 7.117-.202.175-.72.709-.859-.252-.081-.56-.49-2.382-.912-3.181-.277-.52-.397-.538-.639-.686-.83-.517-2.459-2.903-1.73-5.65zm-10.057 8.916c-2.12 1.362-3.198 4.262-2.747 6.91.1.56-.052.818-.682.453-2.453-1.41-6.753-6.726-2.097-12.295 2.126-1.743 5.42-.158 6.006 2.456.194.855-.146 2.259-.48 2.476zm3.88-8.188c-.221.351-.595.48-1.055.251-6.918-3.459-13.098.025-13.913 5.724-.067.487-.454.916-1.016.91-3.374-.018-6.33 1.746-7.658 4.49-.644 1.33-.865 3.21-.192 4.974.173-1.607.839-3.3 2.333-4.924.045-.05.206-.175.338-.246 2.94-1.645 5.845 1.197 5.228 4.113-.197.937-1.256 1.963-2.276 3.138-.355.411-.7 1.166-1.006 2.01 2.209.651 5.696.257 7.208-3.827.264-.713.722-.549.942-.512 7.837 1.423 13.11-4.61 12.847-8.419-.04-.538.395-.751.683-.333 4.617 6.745 12.489 3.819 13.54 2.641.344-.382.57-.691.907-.054 1.695 3.212 4.815 4.665 8.782 2.979-.467-.539-1.042-.9-1.424-1.146-1.898-1.25-2.233-1.723-2.726-3.048-.672-1.805.333-3.318 1.03-4.053.93-.984 2.797-1.69 4.51-.255 1.55 1.288 2.17 2.976 2.309 4.666 1.47-4.548-2.613-10.469-8.475-8.217-.387.148-.474-.004-.682-.432-4.807-9.776-16.04-7.198-20.234-.43z" fill="#E0C16C"/><path d="M59.635 186.945c-2.124 1.24-2.246 5.354-1.508 7.384.194.532.338.426.419-.354.177-1.631.523-3.871 2.17-5.445.75-.714-.033-2.199-1.081-1.585" fill="#FFF"/><path d="M73.3 180.352c-.936.884-2.105 3.6-1.997 6.158.016.344-.032.64-.414.104-1.341-1.88-1.083-5.917.478-7.644.55-.607 1.185-.332 1.507-.183.678.312.803 1.212.426 1.565zm-2.84-2.645c-4.656 5.57-.356 10.886 2.097 12.295.63.365.782.107.682-.453-.451-2.648.627-5.548 2.747-6.91.334-.217.674-1.621.48-2.476-.587-2.614-3.88-4.199-6.006-2.456zm17.14-3.244c.093-.757.484-1.287 1.075-1.589 1.01-.513 1.713.42 1.896.925.914 2.508.25 5.889-.175 7.532-.06.232-.242.403-.282-.006-.047-.48-.306-1.667-.722-2.811-.194-.542-.392-1.045-.835-1.52-.68-.724-1.025-1.941-.956-2.53zm.173 4.91c.242.15.362.167.64.687.421.8.83 2.621.911 3.181.14.961.657.427.859.252.68-.592 3.591-4.676 3.875-7.116.284-2.438-.826-5.59-4.15-5.591-1.908-.005-3.516 1.606-3.865 2.937-.729 2.748.9 5.134 1.73 5.65z" fill="#0E2B58"/><path d="M72.874 178.787c-.322-.149-.957-.424-1.507.183-1.561 1.727-1.82 5.764-.478 7.644.382.537.43.24.414-.104-.108-2.558 1.061-5.274 1.997-6.158.377-.353.252-1.253-.426-1.565m16.518-.273c.416 1.144.675 2.33.722 2.81.04.41.222.24.282.007.425-1.643 1.09-5.024.175-7.532-.183-.505-.886-1.438-1.896-.925-.59.302-.982.832-1.074 1.59-.069.589.276 1.806.956 2.53.443.475.641.978.835 1.52m14.794.876c-.333.23-.7.64-.548 1.346.134.622.679 1.322 1.564 2.102.517.46.92.934 1.244 1.537.503.945.798 1.707.854 1.856.13.338.254.407.304.025.079-.593.348-4.258-1.25-6.315-.433-.558-1.309-1.139-2.168-.55" fill="#FFF"/><path d="M81.832 151.216c.009.014.02.024.034.02-.13-.176-.485-.647-.994-1.33.47.638.945 1.29.96 1.31" fill="#AC9026"/><path d="M126.413 72.111c-.237-.056-.432-.05-.55-.08-.457-.116-.339-.268-.332-.274.002 0 .004 0 .004-.004.164-.124.532-.279 1.219-.29h.166a7.5 7.5 0 0 1 .87.046c.163.015.352.037.636.056 0 0 1.975.185 4.176.896.092.03.188.064.286.095a32.395 32.395 0 0 1 2.678 1.099c.235.107.397.184.467.217l.04.02a8.54 8.54 0 0 1 .879.484c.364.217.688.449.96.705.024.027.056.05.087.074.035.038.066.078.106.117.06.063.123.128.178.193 0 .007 0 .013.011.02 1.257 1.567.677 3.417.325 5.76-.336 2.265-.683 4.241-1.091 5.958-.361 1.514-.776 2.83-1.292 3.932-.343.739-.592 1.145-.772 1.321-.069.06-.128.105-.174.109-.06.002-.103-.05-.138-.127a.828.828 0 0 1-.065-.249 1.986 1.986 0 0 1-.014-.18 3.487 3.487 0 0 1-.013-.311c0-.125.005-.258.013-.4.028-.69.122-1.582.221-2.447.098-.88.199-1.734.24-2.33.006-.114.014-.256.027-.425.013-.197.031-.424.05-.675.097-1.422.223-3.576.077-4.807v-.018c-.004-.043-.014-.083-.017-.12a2.578 2.578 0 0 1-.021-.145c-.002-.015-.006-.025-.01-.035a1.987 1.987 0 0 0-.102-.38.91.91 0 0 0-.106-.184c-.293-.383-.902-.47-1.567-.458-.66.01-1.375.116-1.864.122-.068 0-.133-.002-.189-.004h-.003c-.061-.003-.11-.025-.167-.038-.843-.17-1.241-1.157-1.554-2.5-.043-.193-.088-.39-.13-.597-.168-.835-.348-1.407-.54-1.834a3.65 3.65 0 0 0-.815-1.169 3.041 3.041 0 0 0-.368-.317c-.605-.463-1.311-.711-1.822-.826zm-1.188 34.284c.256-.11.52-.214.796-.309.3-.103.62-.195.943-.259a.367.367 0 0 1 .098-.018 5.642 5.642 0 0 1 .498-.08c.033-.005.072-.008.105-.014.42-.048.97-.103 1.367-.128h.05c.064-.006.126-.007.18-.007h.015c.058-.004.111 0 .149 0a7.059 7.059 0 0 1 1.699.366c.208.073.416.16.607.262v-.003l-.142-.074c.29-.39.728-.727 1.017-1.145.298-.438.587-.887.866-1.353a.472.472 0 0 0 .05-.075c0-.005.006-.008.006-.016a38.257 38.257 0 0 0 1.496-2.769c.135-.282.27-.568.407-.858a54.362 54.362 0 0 0 1.87-4.709c.471-1.37.905-2.76 1.296-4.165.23-.823.446-1.65.654-2.47a107.974 107.974 0 0 0 1.84-9.201c.074-.463.145-.924.21-1.366.022-.133.035-.258.038-.382.02-.209.027-.405.03-.598v-.025c0-.103 0-.206-.003-.308v-.004a6.302 6.302 0 0 0-.272-1.707 4.885 4.885 0 0 0-.15-.407 4.899 4.899 0 0 0-.519-.975c-.024-.024-.04-.054-.058-.075a.584.584 0 0 0-.028-.041c-.028-.034-.053-.07-.08-.102-.39-.492-.734-.718-.734-.718-.757-.516-1.626-.967-2.588-1.359a21.923 21.923 0 0 1-.42-.162 21.32 21.32 0 0 0-1.162-.398 17.543 17.543 0 0 1-.48-.15 30.101 30.101 0 0 0-1.757-.448 37.303 37.303 0 0 0-2.431-.467c-3.583-.576-7.414-.75-10.592-.761h-.938l-.89.015h-.033a92.255 92.255 0 0 0-2.758.083c-1.377.057-2.283.129-2.48.142-.003.002-.01.002-.015.002l-.104.015-.172.029c-.207.033-.421.064-.645.102-2.497.4-3.796.534-4.472.573-3.311.364-2.365-.02-2.365-.02a201.88 201.88 0 0 1 3.954-1.15l2.514-.708c-.007-.008-7.887-6.62-13.374-7.907-5.502-1.285-10.223 1.29-12.456 2.404-2.233 1.118-7.21 3.692-9.444 5.068-2.119 1.303-8.01 5.263-8.612 5.666-1.025 1.051-2.188 2.484-3.34 4.017.459.23.993.383 1.704.393.334 0 .706-.033 1.112-.104.943-.166 1.422-.21 2.36-.447.915-.23 4.324-1.48 8.672-3.456.77-.424 1.687-.854 2.783-1.264.604-.196 1.241-.397 1.91-.611.51-.149 3.03-.846 3.04-.85a32.071 32.071 0 0 1 7.276-.836 32.69 32.69 0 0 1 13.353 2.876l.017.008a25.812 25.812 0 0 1 2.85 1.492c2.033.977 4.897 2.169 7.644 2.723.283.048.579.103.897.158.417.071.792.103 1.134.103 2.164-.015 3.137-1.167 4.24-2.072.346-.269.79-.66 1.55-.684l.02-.002c.783.002 1.349.524 1.666 1.023.335.52.61 1.168.925 2.08.253.74.362 1.49.362 2.234-.02 2.612-1.328 4.992-2.8 6.922a5.978 5.978 0 0 1-.119.38c-.05.16-.106.32-.168.481-.21.556-.555 1.098-1.002 1.62a10.8 10.8 0 0 1-1.25 1.23c-.353.352-.763.72-1.263 1.11-.504.389-.888.68-1.188.904.062.166.12.324.18.48.075.216.143.426.214.633.05.156.098.305.145.46.152.509.295 1.013.456 1.611.026.086.047.17.073.26.112.4.238.839.386 1.356.169.59.307 1.244.43 1.924 1.019 3.035 1.43 5.712 1.49 8.017l1.66-1.005z" fill="#C18F07"/><path d="M80.195 148.938c.11.114.244.245.385.386l-.232-.24c-.055-.054-.108-.1-.153-.146m7.879 17.722c-.21.015-.481.085-.78.183.256-.074.516-.132.78-.182" fill="#AC9026"/><path d="M69.187 132.133c-.834 1.698-2.332 3.887-1.572 5.15 1.147 1.914 3.048 2.928-1.354 3.052-2.642.073-6.708 2.142-7.658 4.92-1.835 5.369 5.562 16.753 5.118 18.47-.448 1.758-9.352-14.792-10.81-23.38-.611-3.568-1.218-15.885-.545-21.632.741-6.327 1.149-7.305 1.853-10.806.856-4.227 2.022-3.537 2.277 2.217.199 4.51.785 6.152 2.162 8.537 1.387 2.4 7.32 7.616 9.71 10.08.86.884 1.28 2.442.819 3.392zm13.199 26.868c-.816-2.532-2.582-5.837-3.27-7.296-.688-1.461-.733-3.742-.517-4.345.216-.602 1.874 1.019 1.874 1.019s.053-.469.282-.926c.215-.43.985-3.412.985-3.412.055.195.247.52.487.874a17.535 17.535 0 0 1-1.088-2.16c-1.074-2.528-1.667-5.254-2.127-7.252-.326-1.456-1.68-3.954-1.869-4.311-.011-.021-.013-.024-.02-.043l-.034-.04a9.289 9.289 0 0 0-.142-.18c-.128-.149-.298-.355-.485-.581-.224-.263-.473-.554-.69-.805a36.611 36.611 0 0 0-.228-.245c-.19-.185-.748-.728-.923-.888-.204-.19-.376-.336-.49-.432-.116-.1-.18-.15-.183-.157-.065-.05-.13-.11-.19-.156a84.467 84.467 0 0 0-.785-.676l-1.773-1.523c-.194-.158-.381-.324-.571-.48-.053-.037-.104-.07-.16-.11-.652-.43-1.567-1.09-2.834-2.062-6.516-5-7.508-10.694-7.504-13.65 0-.415.02-.776.043-1.076-.002-.147-.014-.298-.014-.452 0-.053 0-.1.003-.151.01-.092.01-.184.015-.284l.001-.086v-.042l.006-.006c.01-.121.023-.248.034-.36.024-.327.066-.667.11-1.04.003-.02.009-.036.009-.054.003-.013.003-.026.003-.04.017-.12.038-.265.053-.397.021-.148.038-.29.063-.452a18.076 18.076 0 0 1 .303-1.67c.04-.148.075-.305.114-.456.021-.073.037-.147.056-.227.266-1.045.59-2.14.906-3.166.03-.095.064-.19.09-.282l.019-.062c.119-.379.237-.731.35-1.069l.178-.537c.014-.045.03-.09.047-.133.02-.07.047-.144.068-.208.143-.428.268-.772.355-1.023.017-.05.032-.1.048-.145.024-.076.05-.137.065-.178v-.01l.004-.003v-.002c.008-.025.011-.037.016-.04.015-.032.019-.052.022-.055v-.01h.002l.004-.011.009-.013v-.009l.01-.028.006-.01c.034-.085.087-.232.15-.402.078-.225.171-.501.275-.812l.003-.01.444-1.099c-4.377-3.16-4.926-6.23-4.988-6.734a17.83 17.83 0 0 1-.372-.56l-.441.688a27.286 27.286 0 0 0-1.603 2.896c-4.217 8.766-5.965 22.35-6.78 30.13-.517 4.917-.167 13.713.495 19.288.333 2.837.736 4.917 1.198 6.162 1.308 3.481 4.507 10.569 5.339 11.875 1.005 1.581 7.765 14.06 8.183 14.642.447.616.586.45.575 0-.011-.452-.098-2.795.101-4.422.068-.527.286-1.52.733-2.071.308-.378.778-.392.562.358-.396 1.366.37 4.988 1.45 7.698.035.085.096.09.18.057a9.83 9.83 0 0 1 .96-.376c3.943-1.33 6.488-.828 8.247-.342.191.049.296-.05.381-.16 1.02-1.259 3.378-3.462 6.637-4.674a9.255 9.255 0 0 0-.106.034S83.2 161.535 82.386 159z" fill="#C18F07"/><path d="M131.83 106.244v-.003l-.05-.02c.016.008.037.012.05.023" fill="#AC9026"/><path d="M147.628 120.45a4.558 4.558 0 0 0-.09-.37c-.493-1.818-1.731-2.992-3.625-4.307a2.63 2.63 0 0 1-.142.445c-.04.087-.08.182-.127.272a3.022 3.022 0 0 1-.47.712.817.817 0 0 1-.165.143c-.066.045-.12.071-.162.06-.008 0-.01-.006-.015-.006-.006 0-.012-.003-.016-.003-.009-.006-.014-.014-.023-.024a.278.278 0 0 1-.031-.133c0-.023.004-.051.007-.075.004-.042.012-.093.024-.15.009-.032.013-.059.023-.095.075-.273.105-.578.096-.91-.03-1.103-.51-2.482-1.4-3.738a7.215 7.215 0 0 0-.602-.752 4.799 4.799 0 0 0-.19-.209 6.511 6.511 0 0 0-.376-.37 7.954 7.954 0 0 0-3.439-1.885 3.267 3.267 0 0 0-.74-.09c-.083-.002-.17 0-.256.004-.028 0-.058.003-.09.006l-.253.026h-.02c-.07.009-.14.024-.21.035l-.111.015c-.09.018-.178.041-.272.062-.087.024-.181.042-.267.064-.066.02-.127.04-.188.06-.064.016-.129.037-.19.052a9.507 9.507 0 0 0-.605.23c-.23.095-.433.191-.603.283-.237.123-.406.233-.461.295a1.318 1.318 0 0 1-.14.132c-.095.07-.065-.04-.136-.203a5.283 5.283 0 0 0-.275-.578c-.595-1.096-1.389-1.66-2.252-1.889a4.117 4.117 0 0 0-1.243-.12c-.877.043-1.76.317-2.53.647-.28.118-.553.25-.825.39l-1.428.664s-.45 2.898-.902 4.38c0 0 .382.835 1.222 1.162.702.263.69-.946 1.191-1.537-.003.013-.003.032-.003.04a2.89 2.89 0 0 1 .374-.304 1.83 1.83 0 0 1 .907-.305c.155-.005.31.008.452.038a2.814 2.814 0 0 1 .891.362c.03.017.062.041.089.061.196.153.357.366.484.617.104.199.184.417.231.657a2.943 2.943 0 0 1-.38 2.127c.208.02.514.025.86-.017a3.539 3.539 0 0 0 .791-.176 3.22 3.22 0 0 0 .896-.45c.177-.134.356-.292.516-.481.027-.076.057-.141.079-.197.002-.015.013-.024.016-.034.045-.079.097-.091.155-.052.106.062.221.274.244.376.118.39.32.764.582 1.104.109.142.228.28.358.413a6.657 6.657 0 0 0 1.324 1.038c.01 0 .012 0 .012.005.151.092.311.173.462.256.02.006.033.014.048.022a7.43 7.43 0 0 0 .506.23 10.38 10.38 0 0 0-.137-.564c-.045-.163-.085-.313-.125-.438-.02-.085-.04-.162-.052-.228-.37-1.154.064-2.168.891-2.643a2.13 2.13 0 0 1 .387-.167 2.94 2.94 0 0 1 .278-.08c.13-.026.27-.036.424-.03a2.4 2.4 0 0 1 .932.243c.77.388 1.45 1.26 1.392 2.801-.02.52-.111 1-.231 1.46-.041.16-.074.33-.125.48-.105.32-.23.625-.37.915.175.036.722.132 1.347.127.088-.003.174-.003.27-.01.27-.037.55-.093.849-.159.025-.005.047-.011.068-.014h.012c.023-.008.049-.01.074-.014a2.335 2.335 0 0 0 .598-.32s.012.005.024.026a.38.38 0 0 1 .068.22.515.515 0 0 1-.023.187c-.028.071-.032.151-.038.23-.007.038-.019.07-.019.11-.008.404.146.918.4 1.389.21.4.493.762.833 1.005.138.098.278.181.43.236a1.527 1.527 0 0 1-.005-.512.777.777 0 0 1 .027-.14c.103-.42.37-.8.71-1.079.202-.168.43-.298.659-.382.194-.067.392-.106.58-.093a.901.901 0 0 1 .313.064c.069.026.134.05.196.093.367.246.651.601.794 1.086.051.162.086.337.103.524l.015-.027s.007 0 .007-.003c.002-.003.005-.003.01-.003l.013-.01.003-.002c.059-.04.192-.15.337-.343.122-.16.256-.378.358-.678.015-.043.027-.092.04-.136.058-.194.107-.403.13-.65 0-.077-.01-.16-.012-.24-.01-.087-.014-.166-.022-.256" fill="#E0C16C"/><path d="M132.654 106.846v-.002h-.01c.01.002.01.008.017.01l-.007-.008" fill="#AC9026"/><path d="M118.235 68.932h.032l.891-.015h.938c3.178.01 7.01.185 10.592.761a36.67 36.67 0 0 1 4.188.914c.164.054.319.103.48.15.403.126.788.26 1.162.399.145.057.279.11.42.162.962.392 1.83.843 2.588 1.36 0 0 .344.225.733.717.028.033.053.068.081.102.01.012.017.025.028.041.017.02.034.05.058.075.182.264.365.585.52.975.056.128.102.266.15.407.148.485.256 1.05.271 1.707v.004c.004.102.004.205.004.308v.025c-.004.193-.011.39-.031.598a2.862 2.862 0 0 1-.038.382c-.065.442-.136.903-.21 1.366-.1.658-.212 1.329-.334 2.015-.4 2.285-.897 4.72-1.506 7.187-.208.82-.423 1.646-.654 2.469a72.693 72.693 0 0 1-1.297 4.165 54.362 54.362 0 0 1-1.87 4.709c-.137.29-.27.576-.405.858a38.257 38.257 0 0 1-1.497 2.769c0 .008-.006.011-.007.016a.472.472 0 0 1-.05.075c-.278.466-.567.915-.865 1.353-.29.418-.727.756-1.017 1.145l.142.074.01.003.004.003.035.018.031.013.007.005h.002v.003l.103.068.467.311.26.216v.004l.003.005.218.236.026.032.606-.246c.202-.082.44-.177.674-.264.151-.054.287-.127.414-.2a3.3 3.3 0 0 0 .89-.762c.006-.008.014-.018.014-.022l.007-.004c.076-.08.162-.204.259-.354.647-1.006 1.772-3.5 2.844-6.189l.002-.007c.28-.702.613-1.417.875-2.124.44-1.184.785-2.331 1.1-3.348.085-.264.163-.521.232-.765.058-.191.11-.374.155-.55l.032-.12c.177-.68.378-1.465.583-2.343.068-.29.136-.591.209-.905.194-.874.389-1.832.572-2.853.036-.192.069-.38.104-.572.033-.198.067-.397.099-.598.195-1.18.371-2.438.518-3.761 0-.013 0-.026.002-.04.06-.404.114-.796.163-1.16.289-1.885.679-3.905 0-5.722-.468-1.243-.9-2.067-2.952-3.198a28.352 28.352 0 0 0-.981-.505c-.196-.097-.399-.19-.613-.292l-.175-.072c-.058-.025-.111-.046-.172-.073-.862-.344-2.075-.68-3.527-.985-.897-.188-1.87-.395-2.882-.55-.07-.01-1.44-.166-1.44-.166l-.584-.075c-.013-.003-.022-.003-.022-.003-2.81-.365-5.174-.493-7.43-.393-.53.019-1.023.06-1.466.116H121l-2.091.268-.524.06-.879.132-1.885.283c-.961.15-1.838.283-2.635.399l.012-.002c.196-.013 1.102-.085 2.48-.142.78-.035 1.716-.068 2.757-.083" fill="#F3E5BE"/><path d="M138.15 117.433a4.396 4.396 0 0 0-.15-.91c-.015-.06-.037-.117-.057-.17-.172-.373-.513-.578-.817-.585-.036 0-.07.001-.103.003h-.005a.613.613 0 0 0-.17.052.496.496 0 0 0-.21.214.585.585 0 0 0-.07.274.777.777 0 0 0 .016.2h-.007c.014.078.055.2.103.35.04.12.089.272.134.445.112.442.222 1.04.196 1.845 0 .134-.013.277-.025.425v.027c-.023.278-.068.58-.124.9-.044.217-.09.444-.151.685-.003.005-.003.014-.003.02 0 .007 0 .013-.002.02a.42.42 0 0 0-.013.083c0 .01 0 .025.003.035.008.028.02.054.057.054.056-.002.109-.043.19-.132.015-.013.028-.024.043-.043.037-.037.086-.107.145-.194.11-.162.258-.389.406-.688.128-.26.255-.572.364-.915.143-.447.25-.954.264-1.506v-.055c.004-.127 0-.258-.01-.394 0-.014 0-.027-.005-.04m7.623 5.173c-.09-.325-.32-.49-.544-.498a.517.517 0 0 0-.491.34.633.633 0 0 0-.04.14c-.006.039-.012.074-.012.116a.954.954 0 0 0 .033.25c.003.025.003.047.01.078.026.094.055.2.075.308.078.32.131.675.119 1.077-.018.56-.162 1.222-.562 2.015a.645.645 0 0 0-.082.251v.004c0 .024.005.04.02.062.012.014.025.027.045.027.007 0 .017-.007.022-.008a.293.293 0 0 0 .066-.022.572.572 0 0 1 .065-.052.342.342 0 0 1 .049-.04c.042-.04.129-.142.238-.276.058-.083.128-.17.2-.286.049-.063.096-.139.14-.214.003-.004.003-.008.009-.012 0-.002.007-.008.008-.012.348-.57.712-1.383.738-2.29a2.403 2.403 0 0 0-.015-.38 3.57 3.57 0 0 0-.09-.578m-18.503-8.781a.555.555 0 0 0-.052-.12c-.005-.016-.013-.025-.025-.04a.599.599 0 0 0-.1-.114c-.008-.01-.013-.024-.026-.034a.567.567 0 0 0-.142-.083.514.514 0 0 0-.19-.04c-.04 0-.094.018-.141.026a.859.859 0 0 0-.388.183c-.015.012-.036.036-.052.052a2.5 2.5 0 0 0-.263.332 2.473 2.473 0 0 0-.14.223 2.878 2.878 0 0 0-.147.277c-.007.007-.007.013-.01.02-.29.595-.57 1.465-.617 2.605l-.002.036c0 .011 0 .017-.003.028v.031a6.892 6.892 0 0 0 0 .464c.011.318.036.656.086 1.01.025.177.055.358.095.547 0 .01.008.025.008.036.002.01.005.02.01.03a.15.15 0 0 0 .03.064v.002a.104.104 0 0 0 .043.041c.007.007.014.007.022.01.009 0 .013.003.018.003a.124.124 0 0 0 .06-.013.085.085 0 0 0 .024-.034.307.307 0 0 0 .091-.186c.003-.023.019-.072.036-.143.018-.093.057-.231.102-.39.2-.71.606-1.996 1.127-3.175.142-.32.295-.64.453-.93a1.04 1.04 0 0 0 .13-.461l-.003-.05a1.006 1.006 0 0 0-.034-.207" fill="#FFF"/><path d="M58.658 118.661c-1.377-2.385-1.963-4.027-2.162-8.537-.255-5.754-1.42-6.444-2.277-2.217-.704 3.501-1.112 4.479-1.853 10.806-.673 5.747-.066 18.064.545 21.632 1.458 8.588 10.362 25.138 10.81 23.38.444-1.717-6.953-13.101-5.118-18.47.95-2.778 5.016-4.847 7.658-4.92 4.402-.124 2.501-1.138 1.354-3.053-.76-1.262.738-3.45 1.572-5.149.461-.95.04-2.508-.818-3.391-2.39-2.465-8.324-7.681-9.71-10.08m69.944-45.408c.303.302.566.62.816 1.169.19.427.37.999.54 1.834.04.207.086.404.13.598.312 1.342.71 2.33 1.553 2.499.058.013.106.035.167.038h.003c.056.002.121.004.19.004.488-.006 1.202-.111 1.863-.122.665-.012 1.274.075 1.567.458.043.06.08.12.106.184.041.101.074.23.102.38.004.01.008.02.01.035.005.042.011.094.02.145.004.037.014.077.017.12l.001.018c.146 1.23.02 3.385-.076 4.807-.02.25-.038.478-.05.675-.014.169-.022.311-.028.426-.041.595-.142 1.45-.24 2.329-.1.865-.193 1.757-.22 2.447a6.734 6.734 0 0 0-.014.4c0 .113.005.215.013.31.003.067.007.127.014.181a.828.828 0 0 0 .065.249c.035.077.078.129.138.127.046-.004.105-.048.174-.109.18-.176.43-.582.772-1.32.516-1.104.93-2.42 1.292-3.933.408-1.717.755-3.693 1.091-5.958.352-2.343.932-4.193-.325-5.76-.01-.007-.011-.013-.011-.02-.055-.065-.119-.13-.178-.193-.04-.039-.07-.08-.106-.117-.031-.025-.063-.047-.087-.074a5.586 5.586 0 0 0-.96-.705c-.005 0-.005-.002-.005-.002a8.54 8.54 0 0 0-.874-.482l-.04-.02c-.07-.033-.232-.11-.467-.217a33.68 33.68 0 0 0-.857-.383 29.516 29.516 0 0 0-1.82-.716c-.099-.03-.195-.065-.287-.095a21.87 21.87 0 0 0-4.176-.896c-.284-.02-.473-.041-.636-.056a7.409 7.409 0 0 0-.87-.046h-.166c-.687.011-1.055.166-1.219.29 0 .004-.002.004-.004.004-.007.006-.125.158.331.274.119.03.314.024.55.08.512.115 1.218.363 1.823.826.128.093.252.2.368.317" fill="#0E2B58"/><path d="M85.862 62.497c2.233-1.114 6.954-3.689 12.456-2.404 5.487 1.288 13.367 7.899 13.374 7.907l3.029-.851s-5.315-5.253-10.409-7.355c-4.876-2.013-8.564-2.645-13.768-1.387-5.198 1.258-8.712 4.26-8.712 4.26s-1.372.937-3.587 2.281c-5.284 3.218-6.068 3.897-10.492 8.318l.053-.035c.602-.403 6.493-4.363 8.612-5.666 2.233-1.376 7.211-3.95 9.444-5.068m-5.667 86.5c.028.038.062.078.097.123.05.072.098.136.148.204l.432.583c.509.682.863 1.153.994 1.328a2.3 2.3 0 0 0 .063.081l1.548-4.652a12.37 12.37 0 0 1-1.25-1.749c-.24-.353-.432-.68-.487-.874 0 0-.77 2.981-.985 3.412-.229.457-.282.926-.282.926s-1.658-1.621-1.874-1.02c-.216.604-.171 2.885.517 4.346.688 1.46 2.454 4.764 3.27 7.296.814 2.534 2.366 8.542 2.366 8.542l.106-.034c.344-.112 1.51-.476 2.437-.666a5.18 5.18 0 0 1 .78-.115c.036-.002.07-.005.104-.005 0 0-1.603-4.122-3.6-8.056-2.024-4.009-4.52-8.051-4.52-8.051s-.693-2.622.136-1.619" fill="#F3E5BE"/><path d="M119.064 109.52c0-.014.008-.022.008-.033 0 .011-.008.019-.008.032m-.126-7.662a1.819 1.819 0 0 0-.06-.226c-.03-.132-.073-.259-.108-.387.035.127.077.255.108.387.024.07.043.15.06.226m-.977-4.653c-.01-.05-.015-.093-.028-.145v-.002.004c.013.05.019.094.028.143m.054.201c-.015-.068-.03-.126-.042-.193a.056.056 0 0 1-.005-.023l.002.023c.014.067.024.125.045.193m.712 3.441a1.716 1.716 0 0 0-.051-.226l-.043-.16c.013.052.027.104.038.16.026.073.045.147.056.226m-.98-4.632c0-.009-.006-.009-.006-.017.017.058.03.12.04.172-.01-.052-.019-.104-.034-.155m-.956-3.508v-.003c.006.025.016.052.02.075-.004-.021-.014-.046-.02-.072m-.387-1.102l-.026-.075c-.01-.02-.016-.042-.026-.062.01.02.016.043.022.062.012.026.021.05.03.075m.992 3.185c-.007-.01-.015-.02-.015-.032v-.016c0 .027.015.051.015.079v-.031m.644 2.791a.07.07 0 0 0-.012-.037c.007.015.012.03.012.051v-.014m-.539-2.35c0-.01-.011-.02-.011-.027 0 .013.011.021.011.03v-.004m.432 1.825c-.01-.047-.022-.1-.031-.152h-.003v.005c.009.048.02.1.034.147m-.082-.348c-.003-.047-.017-.097-.03-.146v-.008.008c.013.049.021.1.03.146m-.686-2.766c-.01-.031-.012-.062-.022-.089 0-.002-.006-.005-.006-.005s.006.003.006.005c.01.027.011.058.022.09m-.037-.221c-.03-.1-.063-.2-.09-.3v-.015.02c.027.095.06.196.09.296m-.618-1.836v.004-.004c-.008-.03-.014-.062-.026-.086-.012-.01-.012-.027-.015-.047l-.007-.002v.002c.015.045.034.093.048.133m.507 1.565c0-.004 0-.009-.006-.013v-.003.003c0 .004.006.01.006.014m.673 2.474v-.01c-.023-.112-.056-.223-.078-.338.022.115.052.226.079.34v.008m-.962-3.428v-.004a.815.815 0 0 1-.025-.076c-.007-.025-.022-.049-.022-.075 0 .026.01.05.019.075l.028.08m.531 1.782c-.005-.03-.016-.058-.022-.088 0-.009-.008-.013-.008-.018 0 .005.008.01.008.018.006.03.017.058.022.088m-.67-2.152a.088.088 0 0 1-.01-.042c-.002-.006-.002-.01-.01-.015.008.009.008.009.008.019.006.01.006.025.013.038" fill="#0E2B58"/><path d="M88.484 137.575a4.929 4.929 0 0 1-.113-.213c-.003-.008-.01-.011-.012-.015-.346-.668-.294-.88-.414-1.028-.033-.039-.081-.039-.135-.002a.382.382 0 0 0-.061.053c-.04.04-.08.088-.122.147-.08.123-.16.292-.222.469a.053.053 0 0 1-.006.024 1.864 1.864 0 0 0-.08.29 3.342 3.342 0 0 0-.062.702c0 .097.004.197.006.3.037.97.279 2.244.956 2.773.948.74 1.43.428 1.6.329.259-.147.511-.591.511-.596l.894.337s.031.01.076.02l.088.027a10.087 10.087 0 0 0 1.392.253c.198.024.403.037.611.045.027 0 .052.003.076.003.069.004.138.004.205.004.21-.004.42-.015.624-.044.033-.008.063-.013.1-.02.087-.013.168-.036.25-.055.089-.017.175-.034.255-.058.171-.051.302-.135.408-.225l.05-.04a.887.887 0 0 0 .131-.14c.068-.087.115-.162.138-.203l.01.013c0 .012.012.028.017.046.036.081.108.234.202.366a.67.67 0 0 0 .225.228c.204.112.75.272 1.244.193.187-.029.364-.087.518-.197.121-.092.267-.272.407-.535.036-.067.07-.132.104-.21l.049-.114c.164-.394.294-.927.364-1.556.035-.32.062-.656.056-1.027 0-.08-.003-.162-.003-.244-.009-.14-.014-.283-.024-.429 0 0 0-.002-.005-.008 0-.008-.006-.015-.012-.031 0 0-.003-.004-.003-.01-.003-.007-.003-.017-.003-.027v-.006a.086.086 0 0 1-.015-.029c-.003-.012-.02-.025-.027-.036-.02-.042-.04-.082-.082-.106a.17.17 0 0 0-.1-.034c-.123.007-.299.13-.542.543-.709 1.213-1.495 1.783-1.84 1.993-.118.07-.188.1-.188.1l-.412-.434s-.144.02-.38.044l-.187.02c-.473.047-1.18.099-1.904.1h-.045c-.814-.01-1.638-.084-2.15-.318l-.458.425c0-.002-1.468-1.004-1.96-1.857" fill="#FFF"/><path d="M116.269 91.308c-.004-.001-.004-.001-.004-.01 0 .009.004.01.004.01m3.077 15.679v-.062c0 .062 0 .12-.003.18 0-.042.003-.079.003-.118m-.022-1.219v-.017h-.003a.031.031 0 0 1 .003.017" fill="#0E2B58"/><path d="M96.252 75.709c-.01.02-.01.044-.021.067 0 .001 0 .007-.005.011-.006.014-.016.023-.025.034a1.475 1.475 0 0 1-.48.445 2.53 2.53 0 0 1-.297.157c-.115.052-.24.113-.361.171-.129.064-.254.13-.388.203-.118.065-.238.13-.354.198l-.03.02c-.074.047-.152.092-.226.141-.07.049-.144.098-.214.15l-.023.018c-.078.055-.14.115-.213.172-.07.058-.148.116-.207.175-.246.239-.42.535-.557.86-.038.08-.085.158-.117.25-.25.716-.324 1.595-.371 2.552-.004.012-.004.022-.004.034l-.002.035c-.002.022-.002.045-.002.066-.007.091-.011.19-.013.287-.004.246-.015.5-.015.77 0 .252.006.518.012.789.003.246.012.5.02.757.028.728.074 1.492.133 2.27.008.154.016.302.028.45.023.315.053.63.08.947.042.495.082.979.128 1.449.062.643.125 1.258.186 1.812.004.037.004.067.01.101.014.09.021.182.028.27.018.11.026.222.039.328.05.446.095.84.13 1.162.012.101.025.194.033.28.008.055.014.098.018.151.01.057.014.12.021.17.008.087.02.18.03.281.007.072.019.155.026.235.02.185.04.383.059.606.001.055.011.118.018.176.005.075.013.144.02.22l.019.21c.001.054.008.11.013.164.006.054.01.108.013.161.012.107.02.214.027.323.135 1.614.256 3.617.254 5.172v.328c-.002.106-.006.202-.006.298 0 .029 0 .052-.002.076-.004.025-.004.047-.009.07-.002.042-.002.084-.005.124 0 .04 0 .08-.005.117v.049c-.01.151-.02.293-.034.427-.006.05-.01.093-.02.142 0 .045-.007.09-.011.13-.002.02-.013.03-.027.033h-.004c-.003-.002-.005-.002-.01-.008-.008-.001-.013-.001-.015-.006h-.004c-.047-.092-.09-.19-.139-.286-.095-.194-.195-.39-.304-.595a7.996 7.996 0 0 0-.557-.897 6.96 6.96 0 0 0-.78-.892c-.13-.13-.27-.255-.423-.383-.05-.045-.113-.089-.171-.132a10.148 10.148 0 0 0-1.763-1.123 98.772 98.772 0 0 0-4.12-1.995c-.295-.132-.57-.261-.834-.377-.039-.016-.066-.03-.1-.044l-.448-.204c-.2-.089-.385-.17-.55-.248-.27-.12-.5-.226-.681-.315a3.558 3.558 0 0 1-.528-.325v-.003c-.011-.009-.024-.023-.036-.027a4.398 4.398 0 0 1-.505-.436.52.52 0 0 0-.04-.05.039.039 0 0 0-.023-.024 2.798 2.798 0 0 1-.235-.285c-.031-.038-.055-.081-.085-.119-.02-.03-.035-.052-.049-.077a2.648 2.648 0 0 1-.347-.794 1.739 1.739 0 0 1 .015-.92 1.78 1.78 0 0 1 .153-.36c.063-.114.143-.225.234-.334.053-.067.108-.134.177-.195 1.037-1 2.473-1.975 3.61-2.67.278-.172.533-.323.765-.454.203-.115.38-.216.535-.299.051-.026.085-.047.13-.068.103-.056.19-.1.255-.133.027-.014.063-.03.085-.04.029-.012.059-.03.088-.047.011-.006.021-.014.035-.018.012-.007.024-.022.04-.028.043-.026.081-.055.124-.085.029-.021.06-.052.093-.074.029-.031.06-.058.09-.086a.889.889 0 0 0 .194-.273.504.504 0 0 0 .037-.148.43.43 0 0 0-.018-.143.425.425 0 0 0-.08-.114c-.008-.009-.01-.02-.022-.035-.023-.025-.064-.044-.097-.068-.032-.025-.056-.05-.098-.069-.006-.002-.009-.002-.014-.008-.042-.02-.095-.035-.146-.055-.043-.017-.085-.04-.144-.055-.03-.009-.077-.014-.11-.023-.098-.025-.195-.05-.319-.068-.383-.057-.901-.047-1.53.032a13.69 13.69 0 0 0-.656.101c-2.026.366-4.857 1.321-7.63 2.923-.109.061-.234.137-.366.218-.276.17-.586.343-.829.364-.012 0-.026.008-.036.008a.373.373 0 0 1-.142-.018c-.015-.006-.023-.017-.036-.023a.28.28 0 0 1-.13-.128c-.006-.014-.014-.02-.02-.031a.954.954 0 0 1-.054-.362c0-.054.009-.12.014-.181.006-.056.016-.12.027-.186.013-.07.021-.144.04-.228.014-.056.026-.115.04-.168.015-.059.022-.117.04-.17.295-1.216.797-2.459 1.458-3.676.267-.486.55-.966.867-1.443 1.795-2.692 4.401-5.148 7.541-6.733.279-.14.567-.264.852-.39l.268-.125c.236-.096.478-.193.72-.285.153-.057.313-.113.475-.17.045-.015.082-.03.125-.043 0-.002.006-.002.01-.004.017-.003.035-.012.056-.014.427-.14.868-.26 1.312-.366a16.067 16.067 0 0 1 3.491-.437c.053 0 .105-.005.163-.005a16 16 0 0 1 3.249.323c.19.044.329.103.421.179h.003a.538.538 0 0 1 .076.085c.004.01.009.016.011.026.008.013.016.022.022.033a.36.36 0 0 1 .032.157c0 .05-.023.103-.046.158zm17.84 38.993l-.017-.045c.021-.012.506-.306 1.161-.772.385-.279.836-.61 1.286-.987.088-.077.179-.152.267-.228.618-.539 1.216-1.146 1.636-1.76a6.19 6.19 0 0 0 .183-.278c.061-.104.12-.204.166-.305 0-.006.005-.006.005-.011l.003-.003a.187.187 0 0 1 .032-.062c.006-.02.012-.031.02-.047v-.004c.01-.01.012-.02.012-.03.007-.006.01-.012.01-.014l.003-.01c.011-.022.017-.054.029-.08.02-.058.043-.111.062-.171.01-.015.012-.033.019-.048.002-.011.005-.028.011-.04l.035-.12.045-.157.004-.01c0-.012.005-.019.005-.028.024-.097.047-.195.067-.302.006-.03.015-.062.02-.091.007-.054.018-.106.026-.16.011-.054.02-.109.03-.164l.002-.018c0-.003.004-.008.004-.013.01-.054.013-.114.02-.17.008-.056.018-.112.025-.168 0-.013 0-.026.002-.037l.008-.071.03-.322v-.017c.002-.021.002-.045.008-.066a20.302 20.302 0 0 0 .02-.473c.004-.052.008-.101.008-.152 0-.053.004-.109.004-.162.002-.039.002-.075.002-.115l-.002-.284c0-.097.002-.188 0-.285v-.034c-.004-.204-.016-.408-.02-.614v-.006c0-.006 0-.006-.002-.01v-.007a117.363 117.363 0 0 1-.038-.641v-.01s0-.007-.005-.012c-.013-.19-.032-.389-.05-.585 0-.016 0-.036-.006-.053 0-.012-.004-.022-.004-.036-.005-.107-.02-.206-.03-.312-.012-.106-.025-.21-.033-.314v-.021a.14.14 0 0 1-.006-.04l-.053-.39a4.572 4.572 0 0 0-.025-.206.504.504 0 0 0-.015-.099c-.007-.08-.02-.157-.031-.237-.012-.104-.03-.208-.045-.309-.006-.032-.009-.06-.013-.089-.005-.021-.008-.044-.014-.066-.005-.066-.02-.132-.033-.2-.011-.092-.03-.185-.044-.274a3.246 3.246 0 0 0-.038-.226c-.02-.132-.046-.26-.068-.387 0-.018-.01-.039-.012-.06-.012-.085-.03-.168-.045-.253a1.146 1.146 0 0 1-.02-.085 1.233 1.233 0 0 0-.036-.188 3.102 3.102 0 0 0-.024-.134c-.002-.017-.01-.035-.01-.053l-.001-.002c-.038-.19-.079-.396-.121-.592a78.095 78.095 0 0 0-.147-.743v-.003c-.021-.11-.045-.218-.064-.332-.036-.146-.063-.297-.098-.443v-.022c-.001-.006-.006-.008-.006-.014a.549.549 0 0 0-.022-.102.254.254 0 0 0-.014-.08c-.014-.069-.025-.133-.042-.202a.223.223 0 0 0-.004-.036c-.01-.035-.02-.066-.027-.101a4.55 4.55 0 0 0-.03-.142c-.002-.021-.002-.039-.009-.057-.003 0-.003-.003-.003-.006a.073.073 0 0 0-.007-.033l-.002-.02a.4.4 0 0 1-.017-.077c0-.003-.004-.008-.004-.013l-.007-.046c-.013-.043-.02-.08-.029-.122l-.001-.014c-.004-.004-.004-.008-.004-.01-.006-.019-.009-.039-.013-.055-.006-.031-.01-.059-.018-.09v-.003c0-.005 0-.008-.004-.013-.006-.014-.006-.029-.009-.044a.917.917 0 0 1-.021-.093v-.005c0-.006-.006-.014-.006-.022-.011-.055-.027-.112-.04-.17v-.02c-.004-.005-.004-.008-.004-.016-.003-.007-.008-.015-.009-.022-.006-.03-.01-.061-.02-.093v-.004c0-.003-.004-.005-.004-.008-.012-.068-.027-.13-.042-.193v-.026l-.008-.008v-.005a1.028 1.028 0 0 0-.025-.11c-.008-.038-.014-.074-.023-.107a1.007 1.007 0 0 1-.026-.111l-.014-.039v-.004c0-.009 0-.02-.005-.033a.094.094 0 0 0-.011-.04v-.005c-.017-.072-.036-.142-.05-.215-.012-.042-.02-.082-.032-.128v-.008a10.652 10.652 0 0 1-.083-.337c0-.005-.007-.01-.007-.019l-.012-.053v-.01a.062.062 0 0 1-.008-.03c-.018-.074-.04-.146-.057-.22-.002-.001-.002-.004-.002-.005v-.009c-.004-.012-.01-.021-.01-.032-.003-.007-.003-.017-.005-.022 0-.006 0-.01-.006-.012 0-.018-.01-.033-.01-.05-.003-.004-.003-.004-.003-.007-.02-.064-.03-.133-.053-.2v-.009c0-.004-.004-.005-.005-.011-.002-.01-.005-.017-.005-.026a.253.253 0 0 1-.017-.048.085.085 0 0 0-.007-.034v-.011c-.011-.049-.028-.096-.041-.145-.003-.019-.01-.036-.014-.056 0-.005-.005-.008-.005-.011l-.029-.114s-.004-.004-.004-.006c-.015-.052-.026-.1-.042-.151-.007-.02-.008-.04-.014-.057l-.004-.003-.002-.012a.944.944 0 0 0-.03-.1v-.003c-.002-.018-.008-.032-.01-.045l-.058-.188v-.012c-.003-.005-.003-.009-.003-.01-.008-.018-.012-.039-.017-.056l-.002-.002c0-.005-.004-.008-.004-.01v-.003c-.039-.124-.074-.24-.113-.36a3.623 3.623 0 0 0-.087-.276v-.016l-.008-.01c-.002-.015-.008-.032-.013-.047l-.001-.003c-.002 0-.002-.004-.002-.007v-.003c-.01-.037-.026-.072-.038-.111-.013-.036-.023-.073-.037-.11-.007-.019-.011-.034-.018-.05-.006-.017-.012-.032-.012-.048v-.002c-.006 0-.006-.003-.006-.005-.015-.041-.03-.087-.048-.133l-.018-.065h-.003a.183.183 0 0 1-.019-.064c-.002 0-.002-.001-.005-.003-.005-.009-.005-.018-.008-.024 0-.007 0-.007-.006-.012v-.003l-.035-.093c-.012-.033-.025-.064-.033-.095v-.003c-.008-.005-.008-.005-.008-.008v-.003c-.009-.025-.021-.055-.03-.084v-.005a1.322 1.322 0 0 1-.052-.13l-.024-.061h-.002a.72.72 0 0 0-.019-.048c-.004-.013-.008-.028-.014-.04v-.002a2.896 2.896 0 0 0-.085-.205v-.002s-.002-.001-.002-.006h-.002c0-.004-.005-.008-.005-.01-.006-.018-.01-.035-.021-.049v-.002a8.233 8.233 0 0 0-.37-.79c-.533-.886-.491-1.06-.754-1.832-.261-.778-.311-1.854-.311-1.854.006.009.008.018.013.03a.526.526 0 0 1-.016-.082c0-.002 0-.006-.004-.009a.175.175 0 0 0-.008-.053v-.075a.31.31 0 0 1 .021-.108v-.01a.139.139 0 0 1 .029-.04c0-.005.001-.007.004-.012a.172.172 0 0 1 .039-.036l.002-.004c.017-.009.035-.019.058-.024.021-.006.043-.014.067-.014l.012-.003a.41.41 0 0 1 .105.011c.031.005.07.01.104.021a.926.926 0 0 1 .151.049h.006c.015.01.032.015.049.025 0 0 .76.356 1.37 1.29.222.333.43.657.627.957-.045-.417-.061-.796-.018-1.086.196-1.392-.16-2.254 1.738-3.274 1.233-.66 3.11-3.583 4.456-5.547a.669.669 0 0 0 .054-.179c.01-.14-.195-.014-.195-.014h-.003c-2.374 1.954-5.135 1.54-5.771 1.365-.235-.065-1.023-.211-1.996-.382-.975 0-1.025.455-.975.704.015.054.034.104.048.156.026.082.05.162.068.228.071.275.427 1.017.17 1.017 0 0-.144.078-.368-.033a2.41 2.41 0 0 1-.99-.598c-.527-.526-.641-1.604-1.78-2.455-.006-.003-.011-.012-.017-.016-.07-.05-.143-.1-.218-.147-.095-.064-.192-.125-.291-.19a44.917 44.917 0 0 0-5.27-2.96 18.807 18.807 0 0 0-3.094-1.265c-1.472-.508-2.615-.755-3.414-.872-6.393-1.31-11.764-.361-15.255.732-.082.02-.165.043-.242.061-.023.003-.05.014-.077.017-.015.007-.026.01-.045.017-.18.05-.36.107-.541.164-.087.03-.172.054-.264.083-.03.01-.057.017-.083.027-.012.003-.027.006-.039.012-.068.022-.14.044-.208.067a16.757 16.757 0 0 0-2.823 1.352h.002c-2.28 1.368-4.869 3.653-6.382 7.344v.002s-.003.006-.006.008c-.728 1.78-1.056 3.424-1.152 4.874-.133 2.635.473 4.555.473 4.555a.061.061 0 0 1 .006.026c.278.668 1.585 3.101 6.842 5.978.702.365 1.476.767 2.247 1.171.005.004.015.008.025.013.005.003.005.005.01.005 1.479.727 3.261 1.4 4.692 1.956.125.054.237.097.358.145.187.071.368.145.54.212.131.056.272.11.39.162.195.082.365.155.515.23.25.114.452.216.582.307.079.056.134.106.184.16.01.012.032.025.043.039a.662.662 0 0 1 .118.195c.008.021.011.041.015.065a.028.028 0 0 1 .008.018.889.889 0 0 1-.008.318c-.015.092-.038.193-.056.295a.457.457 0 0 1-.028.087.842.842 0 0 1-.092.245.337.337 0 0 1-.12.107.323.323 0 0 1-.236-.002c-.005-.001-.02-.012-.028-.014l-.124-.064c-.126-.07-.258-.157-.366-.22a.354.354 0 0 0-.194-.066c-.074.002-.124.042-.162.111-.054.121-.068.307-.068.49 0 .049 0 .1.004.146v.009c.013.633-.025 1.209-.085 1.736-.259 2.143-.984 3.697-1.179 4.866-.006.097.11.236.167.31.442.584 5.425.932 7.506.932 3.848 0 5.36-.78 5.674-.956.35-.207.558-.38.569-.606a.61.61 0 0 0-.062-.257 20.01 20.01 0 0 1-.572-1.268c-.535-1.313-.641-2.102-.636-2.777 0-.195.014-.377.025-.563.004-.092.007-.186.013-.281a9.98 9.98 0 0 0 .015-.59c0-.21-.02-.434-.048-.685-.026-.2-.066-.341-.119-.433-.053-.092-.119-.133-.195-.119a.252.252 0 0 0-.121.057.738.738 0 0 0-.138.128 1.62 1.62 0 0 1-.218.208c-.212.166-.39.205-.488.212-.11.009-.2-.024-.208-.198a.99.99 0 0 1 .04-.283c.015-.06.034-.127.057-.207a4.59 4.59 0 0 1 .333-.772c.05-.094.107-.184.164-.27.36-.555.843-1.009 1.427-1.414l.055-.04c.003-.006.014-.01.022-.016.195-.133.41-.262.63-.39.437-.247.923-.487 1.443-.731 1.336-.628 2.946-1.288 4.776-2.254a36.492 36.492 0 0 0 2.905-1.702c.513-.334.782-.521.96-.658.142-.102.224-.18.313-.257.061-.058.141-.126.232-.203.048-.039.089-.07.148-.119.142-.11.481-.399.898-.73.059-.05.119-.099.18-.146a22.415 22.415 0 0 1 1.106-.84c.498-.352.94-.615 1.146-.605a.24.24 0 0 1 .068.024c0 .004.01.002.014.004a.15.15 0 0 1 .038.08c.086.674 0 1.076-.172 1.365-.362.641-1.098.736-1.159 1.952a.99.99 0 0 1-.129.412 1.51 1.51 0 0 1-.15.22 1.2 1.2 0 0 1-.062.066c-.03.038-.066.078-.107.117-.028.025-.047.05-.078.075-.1.094-.21.186-.32.276 0 0-.006.003-.006.005-.334.269-.681.516-.862.75a1.751 1.751 0 0 0-.17.304 9.079 9.079 0 0 0-.655 2.066 19.926 19.926 0 0 1-.308 1.564c-.234.914-.603 1.682-1.463 2.438-.126.11-.264.221-.413.332-.14.106-.343.24-.595.379a6.084 6.084 0 0 1-1.489.564 5.453 5.453 0 0 1-2.04.079c-.09-.013-.188-.037-.278-.052-.093-.019-.182-.032-.277-.056-.283-.072-.612-.1-.893.045a.772.772 0 0 0-.21.143c-.021.024-.039.048-.062.078-.019.025-.04.047-.058.077-.02.034-.04.063-.058.103-.046.087-.086.178-.125.26-.186.418-.272.759-.27 1.043.011.705.585 1.054 1.538 1.375a.028.028 0 0 0 .021.007c.295.104.633.2 1.002.305.164.047.328.096.504.148.195.056.4.118.608.182h.006c1.226.36 2.405.732 4.517.998 2.117.265 2.787 2.805 2.787 2.805s.456 1.014.647 1.538v-.004l-.005-.014z" fill="#D0A734"/><path d="M115.019 118.233l-.01-.02a.311.311 0 0 1 .004.063l.012-.014-.006-.018v-.011M64.65 114.98l-.108-.191c-.112-.198-.207-.365-.283-.508a9.9 9.9 0 0 0 .392.699" fill="#C1A84E"/><path d="M62.094 79.577c1.06 1.562 2.323 3.422 3.342 4.343.025.025 1.72 1.683 1.935 2.749.213 1.073.475 2.796-.728 6.467-.236.58-.785 1.906-.828 1.953-.085.24-.178.5-.283.776-.06.17-.12.344-.182.526-.19.54-.39 1.128-.59 1.754-.048.141-.096.287-.14.433-.038.114-.072.228-.11.345-.022.078-.05.156-.074.233-.055.177-.106.357-.163.535-.103.331-.203.663-.292.99a37.534 37.534 0 0 0-.83 3.277c-.032.163-.065.325-.095.483-.037.213-.07.424-.104.633-.035.247-.067.492-.091.737l-.003-.008s-.763 4.003 1.212 8.108l.472.878c.678 1.139 2.069 3.138 4.262 4.81a.913.913 0 0 0 .173-.014c.23-.05.446-.196.642-.408.05-.053.099-.12.145-.184.033-.044.074-.084.109-.135.713-1.07 1.108-3.044 1.129-4.263.01-.373-.02-.676-.083-.854l-.009-.013a.426.426 0 0 0-.071-.128c-2.17-2.328-2.899-2.97-3.981-4.49a2.991 2.991 0 0 1-.316-.604c-.309-.782-.372-1.767-.279-2.65 0-.039.005-.079.01-.12.002-.035.009-.067.014-.108.074-.639.226-1.545.427-2.599.258-1.355.595-2.97.965-4.63a244.149 244.149 0 0 1 1.294-5.504c.015-.07.03-.14.047-.212.021-.072.04-.14.057-.216.444-1.77.835-3.226 1.074-3.989.008-.008.008-.018.01-.029.003-.003.004-.007.006-.014 0-.006 0-.006.002-.006.101-.335.146-.606.144-.816a1.04 1.04 0 0 0-.077-.39.568.568 0 0 0-.335-.328c-.024-.007-.042-.02-.066-.025a.726.726 0 0 0-.309-.007c-.212.043-.595-.017-.986-.159 1.342-2.59 3.188-5.631 5.286-7.687l-6.14 1.088a8.941 8.941 0 0 1-1.516.136 6.857 6.857 0 0 1-3.83-1.133h-.003l-.12-.078c-.258-.16-.794-.433-.126.543.003.002.003.002.003.004" fill="#D0A734"/><path d="M107.837 101.266a2.633 2.633 0 0 1-1.283 1.625c-.004 0-.004.005-.004.005-.018.006-.031.013-.049.021-.015.007-.032.013-.045.02a2.228 2.228 0 0 1-.373.132c-.123.04-.25.07-.381.091-.137.019-.26.044-.402.044-.237 0-.464-.031-.683-.093a2.587 2.587 0 0 1-1.534-1.165c-.205.073-.428.134-.646.203-.22.067-.426.133-.648.195v.004c.198.48.607.935 1.147 1.29.899.593 2.164.91 3.418.593.245-.06.485-.153.73-.263.095-.044.195-.084.288-.135a4.71 4.71 0 0 0 1.041-.782c.226-.225.427-.462.578-.712.114-.19.202-.388.279-.593.04-.106.068-.22.094-.333.044-.169.085-.343.104-.519a5.602 5.602 0 0 0 .012-1.302 8.56 8.56 0 0 0-.078-.691c-.318.218-.678.448-1.062.676a17.79 17.79 0 0 1-.512.306c.02.07.033.136.047.21a2.545 2.545 0 0 1-.038 1.173m-30.195-.916l.03-.203v-.025a15.569 15.569 0 0 1-1.449-.966 9.463 9.463 0 0 1-.37-.293c-.372 2.132.367 4.139 2.341 5.218.075.04.15.07.226.109.074.034.149.079.222.109 2.247.952 4.413-.156 5.028-1.538l-.348-.121-.347-.124a37.933 37.933 0 0 1-.643-.234 1.98 1.98 0 0 1-.246.254 2.584 2.584 0 0 1-1.194.629c-.032.008-.064.01-.098.016-.032.009-.072.013-.109.019l-.01.001c-.063.012-.125.012-.19.014-.06.006-.122.017-.186.017-.069 0-.131-.017-.196-.02a2.665 2.665 0 0 1-2.464-2.762l.003-.1" fill="#FFF"/><path d="M73.646 97.365c-.17-.586-.387-.926-.618-1.19a1.722 1.722 0 0 1-.08-.095c-.017-.02-.03-.03-.04-.052-.153-.185-.367-.45-.612-.66a1.806 1.806 0 0 0-.486-.317c-.023-.008-.04 0-.065 0-.02 0-.043-.008-.062 0a.158.158 0 0 0-.016.015c-.008.006-.021.012-.029.02-.212.208-.2 1.076-.054 1.777a3.399 3.399 0 0 1 .102 1.283c-.008.103-.015.205-.027.31-.013.082-.03.168-.045.252-.016.113-.03.217-.05.335-.062.328-.135.68-.205 1.068l-.106.607c-.03.194-.056.381-.085.56-.125.884-.19 1.52-.184 2.04 0 .042.003.083.004.127v.064c.029.613.161 1.074.392 1.626.112.273.218.586.414.92l.002.007c.08.167.202.326.361.475v.001c1.004 1.083 2.923 1.53 4.758 1.915.581.125 1.132.214 1.6.276.142.02.275.035.397.045 1.419.134 2.863-.179 3.781-.606.443-.203.767-.434.898-.651a.389.389 0 0 0 .07-.288.386.386 0 0 0-.066-.141 3.149 3.149 0 0 0-.21-.26c-.472-.52-.913-.527-1.452-.473-.017.002-.03.004-.051.004-.328.033-.646.054-.95.058a8.47 8.47 0 0 1-1.087-.053c-1.842-.212-3.177-1.051-4.115-2.314a7.15 7.15 0 0 1-.414-.61c-.061-.108-.121-.219-.182-.329-.063-.118-.12-.239-.18-.364-.532-1.13-.86-2.464-1.037-3.917a9.608 9.608 0 0 0-.134-.887l-.053-.259-.015-.067-.003-.009v-.01a3.723 3.723 0 0 0-.066-.233" fill="#D0A734"/><path d="M105.168 128.086c-.043-.036-.096-.067-.147-.097-.037-.018-.075-.033-.108-.05-.006 0-.011-.004-.013-.004-.022-.01-.043-.015-.067-.026a7.877 7.877 0 0 0-.3-.105c-.14-.05-.24-.099-.317-.126a.202.202 0 0 0-.063-.01c-.007 0-.024-.009-.03-.007-.084.004-.108.096-.125.381-.006.04-.006.085-.01.135-.005.055-.005.116-.007.183-.003.076-.006.163-.013.257-.067 1.312-.85 2.909-1.563 4.046-.05.076-.096.151-.146.221-.048.08-.098.153-.143.222-.197.283-.334.6-.44.94a5.645 5.645 0 0 0-.099.389l-.07.35c-.138.836-.169 1.736-.317 2.562a8.25 8.25 0 0 0-.053.34c-.088.526-.163 1.044-.249 1.54-.043.252-.094.502-.152.742-.173.725-.416 1.407-.851 2.016-.353.503-.873.85-1.453 1.1a7.364 7.364 0 0 1-1.172.365c-.612.138-1.228.208-1.753.266-.316.031-.787.057-1.352.062h-.013c-1.185.006-2.79-.08-4.3-.353a13.845 13.845 0 0 1-1.907-.477 4.722 4.722 0 0 1-.467-.205c-.07-.035-.13-.079-.2-.115-.66-.373-1.2-.9-1.633-1.503a9.037 9.037 0 0 1-.472-.75.418.418 0 0 1-.048-.08c-.01.133-.021.272-.025.421-.008.13-.014.265-.02.407-.004.128-.004.257-.004.39.012.9.142 1.929.702 2.868h.005c.101.136.205.258.309.38.203.242.404.463.613.658.17.152.343.292.518.42.042.029.087.05.13.082.136.091.269.182.41.257.067.037.138.073.208.11a6.3 6.3 0 0 0 .398.173c.076.03.156.05.232.076.897.317 1.907.438 3.119.53.683.047 1.39.072 2.085.067 2.065-.014 4.004-.24 4.797-.505 2.27-.744 2.655-1.286 3.361-2.255.06-.076.112-.16.163-.244a3.9 3.9 0 0 0 .218-.383c.642-1.3.805-3.115 1.146-5.573.01-.062.014-.12.027-.178a38.01 38.01 0 0 1 .528-3.015c.179-.835.407-1.799.741-3.08.296-1.135.395-1.865.516-2.479.04-.206.08-.393.132-.583a.682.682 0 0 0 .031-.25.634.634 0 0 0-.287-.503m6.604-11.886c.01-.148-.082-.198-.14-.213-.027-.01-.048-.012-.048-.012s-.369-.009-.952 0a7.15 7.15 0 0 0-.652.055c-.633.067-1.438.197-1.907.278-.018.007-.044.01-.061.013-.024.005-.04 0-.06.005-.563.089-.9-.068-.984-.354-.006-.015-.014-.028-.014-.048-.055-.325.274-.632.274-.632a1.9 1.9 0 0 1 .436-.226c.134-.048.283-.087.438-.12a6.37 6.37 0 0 1 .319-.067c.095-.011.185-.027.284-.036.045-.005.095-.01.144-.013.07-.007.14-.01.21-.015l.21-.016.37-.011c.107-.003.21-.003.311-.003h.006c.706 0 1.291.045 1.442.048a.242.242 0 0 0 .14-.034c.011-.003.02-.01.03-.017a.018.018 0 0 0 .008-.007c.078-.085.048-.242.03-.311 0-.01-.006-.017-.009-.022v-.01c-.011-.077-.026-.148-.038-.222-.094-.5-.216-.897-.782-1.315-.345-.255-1.176-.47-1.887-.616a24.663 24.663 0 0 0-.79-.153c-.118-.017-.214-.036-.278-.045l-.11-.015a45.575 45.575 0 0 0-.775-.013c-.174 0-.331.007-.481.013-1.288.043-1.798.32-2.058 1.434-.256 1.087-.864 2.209-1.732 2.994-.122.118-.25.22-.39.32-.149.113-.31.212-.479.304l-.298.164c-.073.035-.15.081-.214.117-.124.068-.234.131-.345.194-.15.088-.3.175-.433.26-.26.163-.495.329-.72.516a7.343 7.343 0 0 0-.775.74c-.884.95-1.472 1.23-2.23 1.697-.307.186-.531.475-.7.818-.246.501-.369 1.129-.402 1.762-.057 1.065 1.34 1.363 3.832 1.838.156.03.312.058.463.088.147.024.295.047.44.072.501.081.995.151 1.48.201 1.615.187 3.08.2 4.016-.059 1.288-.353 2.491-.631 3.388-1.694.062-.075.122-.15.177-.225.285-.385.54-.895.75-1.415.026-.07.056-.147.087-.216.414-1.082.665-2.174.718-2.391a.073.073 0 0 0 .007-.027l.002-.014c0-.009 0-.027-.002-.035-.004-.021-.021-.028-.034-.041a.18.18 0 0 0-.158-.058.987.987 0 0 0-.08.004h-.002l-.05-.002a8.67 8.67 0 0 0-.554-.04c-.037 0-.082 0-.144.006-.276.011-.782.065-1.27.136l-.207.03c-.214.032-.422.07-.592.104-.34.071-.797.178-1.176.195-.063.006-.12 0-.178-.004-.288-.01-.506-.088-.523-.31-.005-.037-.005-.072-.005-.104 0-.272.121-.503.451-.687.25-.144.624-.258 1.167-.344.657-.1 1.374-.118 1.99-.108a17.999 17.999 0 0 1 1.393.083c.348.041.393.02.395.005 0-.005-.002-.007-.002-.007l.06-.175a5.78 5.78 0 0 0 .229-1.054c.047-.387.034-.669.028-.837 0-.042-.004-.074-.004-.1m-25.999-.441a17.032 17.032 0 0 0-.329-.526 3.293 3.293 0 0 0-.22-.298 3.652 3.652 0 0 0-.409-.395c-.194-.159-.56-.331-.924-.485-.06-.027-.117-.049-.175-.074l-.053-.017c-.042-.021-.082-.033-.125-.05a4.903 4.903 0 0 1-.187-.075c-.033-.012-.068-.022-.095-.033-.073-.023-.133-.05-.192-.066a.778.778 0 0 0-.071-.027c-.024-.006-.054-.02-.074-.025a1.46 1.46 0 0 1-.1-.034 27.64 27.64 0 0 0-.978-.269c-.179-.043-.35-.085-.526-.12a8.495 8.495 0 0 0-.449-.087 7.765 7.765 0 0 0-1.546-.135 5.567 5.567 0 0 0-1.5.215 4.678 4.678 0 0 0-1.054.432c-.293.161-.522.33-.706.495-.023.024-.048.045-.07.067a3.084 3.084 0 0 0-.5.6c-.018.026-.028.049-.037.068-.003.006-.003.007-.003.013a.117.117 0 0 0-.015.052c-.003.091.13.073.13.073s.316-.028 1.12-.013a27.022 27.022 0 0 1 .921.031c.046.007.095.012.14.013.645.047 1.245.155 1.681.254.436.095.709.184.709.184s.72.226.825.68a.573.573 0 0 1 .004.21c-.109.59-.972.363-.972.363s-.209-.056-.529-.135c-.182-.042-.395-.1-.634-.156l-.745-.183c-.693-.166-1.587-.203-2.174-.212l-.16-.001h-.355a.665.665 0 0 0-.183.027.237.237 0 0 0-.089.043c-.065.054-.056.112-.056.112s-.003.395.034.821c.005.06.013.122.02.18.052.49.232.86.359 1.177a.47.47 0 0 0 .095.153.232.232 0 0 0 .043.048c.008.006.02.013.034.017.001.007.006.007.012.012l.013.003.015.004h.007c0 .006.005.006.01.006h.046c.017 0 .029-.006.029-.006.015-.004.043-.004.094-.012l.45-.05c.078-.004.16-.022.255-.028l.45-.05c.193-.018.4-.033.618-.034.184-.006.373 0 .565.004a19.41 19.41 0 0 1 2.688.33s.472.094.862.308c.259.145.485.34.509.6a.426.426 0 0 1 0 .134.705.705 0 0 1-.085.247c-.004.002-.004.002-.004.007a.382.382 0 0 1-.166.142.579.579 0 0 1-.201.05c-.228.016-.548-.048-.964-.157-.148-.04-.319-.084-.493-.135-.168-.045-.347-.094-.542-.144-.156-.046-.32-.077-.488-.111a6.93 6.93 0 0 0-.632-.107 13.92 13.92 0 0 0-1.798-.1c-.346.004-.588.013-.655.012-.037-.001-.055.015-.078.016l-.015-.016s-.357-.04-.276.374c.085.413.672 3.143 1.94 4.634.362.425.646.69.875.842.26.226.538.443.852.624 1.252.725 2.933 1.04 5.108.81a18.774 18.774 0 0 0 1.71-.278c.369-.086.742-.174 1.115-.275.187-.047.371-.1.558-.153l.185-.06c.064-.017.125-.037.19-.06a31.178 31.178 0 0 0 2.013-.69c.91-.34 1.69-.677 2.234-.927.074-.036.148-.071.213-.104.19-.093.34-.17.436-.227.1-.052.188-.115.264-.191.54-.524.601-1.45.633-2.035a.91.91 0 0 0-.045-.395c-.122-.298-.439-.352-.801-.513-.474-.214-.916-.622-1.708-1.315-.1-.085-.182-.16-.26-.224a4.236 4.236 0 0 0-.462-.382c-.303-.207-.734-.412-1.92-.945-.259-.115-.5-.23-.721-.34-.661-.336-1.155-.649-1.53-.944-.507-.398-.797-.748-.985-1.064" fill="#E0C16C"/><path d="M89.378 134.075c.068.253.15.515.247.783a4.928 4.928 0 0 0 .183.453c.018.035.037.077.055.116a3.283 3.283 0 0 0 .457.646c.056.063.112.116.168.171.08.073.157.136.231.194.023.02.042.033.062.052.06.043.121.084.182.125l.002.004c.006 0 .006 0 .01.003l.129.075a.149.149 0 0 0 .025.01c.042.02.079.038.118.054.043.016.08.033.124.048a1.27 1.27 0 0 0 .305.088c.014.004.027.004.048.008.079.016.162.034.25.043 0 .002.003.002.01.002.077.01.16.016.24.022.33.032.714.044 1.19.08.201.012.404.017.602.017.967 0 1.872-.172 2.406-.556.178-.13.314-.278.399-.459a1.47 1.47 0 0 0 .064-.17c.248-.953.414-2.972.414-2.972s.016-.16-.03-.165c-.576-.153-2.798-.166-2.809-.164a.045.045 0 0 0-.016.003c-.035.006-.095.039-.132.149-.002.012-.008.026-.013.052a3.776 3.776 0 0 0-.073.261c-.021.058-.037.121-.057.188v.007a2.036 2.036 0 0 0-.065.204c-.168.519-.409 1.126-.654 1.122-.408-.008-.812-1.232-.966-1.543-.041-.077-.071-.142-.1-.196-.01-.024-.025-.048-.03-.069-.021-.04-.03-.06-.043-.082-.003-.014-.013-.035-.02-.038-.006-.016-.006-.024-.006-.024s0-.005-.008-.01l-.003-.006c-.021-.024-.066-.056-.18-.06-.078-.003-.703 0-1.348.008h-.131l-.136.003c-.106 0-.204.004-.302.004h-.493l-.42.002s-.01-.002-.021 0c-.006 0-.007 0-.017.004h-.002c-.003 0-.008 0-.01.002h-.01a.092.092 0 0 0-.046.048.234.234 0 0 0-.018.131l.018.12c.027.214.091.68.22 1.212" fill="#D0A734"/><path d="M96.244 75.361c-.002-.01-.007-.017-.01-.026a.538.538 0 0 0-.077-.085h-.003c-.092-.076-.231-.135-.421-.179a16 16 0 0 0-3.25-.323c-.057 0-.109.005-.162.005-1.203.016-2.37.172-3.49.437a16.63 16.63 0 0 0-1.313.366c-.02.002-.04.011-.056.014-.004.002-.01.002-.01.004l-.125.043c-.162.057-.322.113-.476.17-.241.092-.483.189-.72.285-.088.04-.177.084-.267.125-.285.126-.573.25-.852.39-3.14 1.585-5.746 4.04-7.54 6.733-.318.477-.6.957-.868 1.443-.661 1.217-1.163 2.46-1.459 3.675-.017.054-.024.112-.038.17-.015.054-.027.113-.042.169-.018.084-.026.158-.039.228-.011.066-.021.13-.027.186-.005.06-.014.127-.014.18a.96.96 0 0 0 .054.363c.006.011.014.017.02.03a.28.28 0 0 0 .13.13c.013.005.02.016.036.022.044.015.091.02.142.018.01 0 .024-.008.036-.008.243-.02.553-.194.83-.364.13-.081.256-.157.364-.218 2.774-1.602 5.605-2.557 7.631-2.923.232-.042.451-.074.657-.1.628-.08 1.146-.09 1.53-.033.123.018.22.043.318.068.033.009.08.014.11.023.059.015.1.038.144.055.051.02.104.035.146.055.005.006.008.006.014.008.042.02.066.044.098.07.033.023.074.042.097.067.011.014.014.026.023.035a.425.425 0 0 1 .08.114.43.43 0 0 1 .017.143.504.504 0 0 1-.037.148.889.889 0 0 1-.195.273c-.028.028-.06.055-.09.086-.031.022-.063.053-.092.074-.043.03-.081.059-.124.085-.016.006-.028.02-.04.028-.014.004-.024.012-.035.018-.03.017-.06.035-.088.046l-.085.041a9.748 9.748 0 0 0-.256.133c-.044.02-.078.042-.129.068-.155.083-.332.184-.535.299-.232.131-.487.282-.765.453-1.137.696-2.573 1.67-3.61 2.67a1.552 1.552 0 0 0-.177.196c-.091.11-.171.22-.234.334a1.78 1.78 0 0 0-.154.36 1.739 1.739 0 0 0-.014.92c.066.275.187.543.347.794.014.025.03.048.05.077.029.038.053.081.084.12.072.102.154.196.235.284.012.005.02.014.023.024a.52.52 0 0 1 .04.05c.16.162.329.303.505.436.012.004.025.018.036.027v.003c.173.126.35.238.528.325.18.089.411.195.68.315.166.079.35.16.551.248l.448.204c.034.015.061.028.1.044.264.116.54.245.835.377.21.095.438.201.664.308a98.772 98.772 0 0 1 3.455 1.687c.721.368 1.293.746 1.763 1.123.058.043.12.087.171.132.153.128.293.253.423.383.312.303.568.6.78.892.222.305.398.605.557.897.11.205.21.401.304.595.048.096.092.194.14.286h.003c.002.005.007.005.015.006.005.006.007.006.01.008h.004c.014-.002.025-.014.027-.033.004-.04.012-.085.012-.13.008-.049.013-.092.019-.142.013-.134.024-.276.034-.427v-.049a.768.768 0 0 0 .005-.117c.003-.04.003-.082.005-.123.005-.024.005-.046.01-.07l.001-.077c0-.096.004-.192.006-.298v-.328c.002-1.555-.12-3.558-.254-5.172a8.634 8.634 0 0 0-.027-.323 2.99 2.99 0 0 0-.013-.161c-.005-.055-.012-.11-.013-.164l-.02-.21c-.006-.076-.014-.145-.019-.22-.007-.058-.017-.121-.018-.176a24.696 24.696 0 0 0-.059-.606c-.007-.08-.019-.163-.026-.235-.01-.101-.022-.194-.03-.281-.007-.05-.01-.113-.021-.17a2.17 2.17 0 0 0-.018-.152c-.008-.085-.02-.178-.033-.279l-.13-1.162c-.013-.106-.021-.219-.04-.328a3.907 3.907 0 0 0-.026-.27c-.007-.034-.007-.064-.01-.1-.062-.555-.125-1.17-.187-1.813-.046-.47-.086-.954-.128-1.449-.027-.317-.057-.632-.08-.947-.012-.148-.02-.296-.028-.45a60.892 60.892 0 0 1-.133-2.27c-.008-.258-.017-.511-.02-.757-.006-.27-.012-.537-.012-.79 0-.269.01-.523.015-.769a5.18 5.18 0 0 1 .013-.287c0-.02 0-.044.002-.066l.002-.035c0-.012 0-.022.004-.034.047-.957.12-1.836.371-2.553.032-.09.079-.169.117-.249.136-.325.31-.621.557-.86.059-.059.138-.117.207-.175.073-.057.135-.117.213-.172l.023-.018c.07-.052.144-.101.214-.15.074-.05.152-.094.225-.142.01-.006.02-.01.03-.02.117-.068.237-.132.355-.197.134-.073.26-.14.388-.203.121-.058.246-.12.361-.17a2.53 2.53 0 0 0 .297-.158c.213-.132.382-.287.48-.445.009-.01.02-.02.025-.034.005-.004.005-.01.005-.011.01-.023.01-.046.021-.067.023-.055.046-.108.046-.158a.357.357 0 0 0-.032-.157c-.006-.011-.014-.02-.022-.033" fill="#0E2B58"/><path d="M120.971 106.593c-.069-2.65-.315-6.007-1.816-10.298-.092-.28-.188-.537-.279-.795a32.542 32.542 0 0 0-.127-.358c-.015-.052-.036-.104-.05-.157-.235-.664-.45-1.266-.654-1.824-.007-.008-.01-.02-.017-.03a33.43 33.43 0 0 0-.477-1.23c-.002-.015-.01-.031-.016-.044a34.44 34.44 0 0 0-.814-1.883c-.039-.069-.759-1.386-1.345-2.179 0-.004-.466-.76-.561-1-.005-.012-.007-.021-.013-.03 0 0 .05 1.076.311 1.854.263.772.221.946.755 1.832.131.247.255.508.369.79v.002c.011.014.015.031.021.048 0 .003.005.007.005.01h.002c0 .006 0 .006.002.007v.002c.032.07.059.134.085.205v.002l.016.04.017.047.002.001c.008.023.017.04.024.06.016.046.033.09.051.13v.006l.004.001c.002.013.002.024.01.03.008.015.011.035.017.054v.003c0 .003 0 .003.008.008v.003c.008.031.021.062.033.095l.035.093v.003c.006.003.006.005.007.01 0 .008.002.017.007.026.003.002.003.003.005.003a.183.183 0 0 0 .019.064h.003l.018.065c.019.046.033.092.048.133 0 .002 0 .005.006.005v.002c0 .016.01.031.014.047l.016.049v.002c.014.037.024.074.037.11.012.039.028.074.038.11v.004c0 .003 0 .007.002.007v.003s.002 0 .002.002c.004.016.01.032.012.045l.008.01v.016c.033.089.06.183.087.277.039.119.074.235.113.36v.001c.004.003.004.006.004.009l.002.004c.005.017.009.038.017.056 0 .001 0 .005.003.01v.01c.018.063.04.127.057.19.003.013.009.027.011.043v.005c.012.034.021.064.03.1l.002.012.004.003c.006.017.007.036.014.057.016.051.027.1.042.151 0 .002.004.005.004.005l.029.115c0 .003.005.006.005.011.004.02.011.037.014.056.013.05.03.096.041.145v.011a.085.085 0 0 1 .007.034l.017.048c0 .009.003.016.005.026.001.006.004.007.004.01v.003l.001.007c.022.067.033.136.053.2 0 .003 0 .003.004.007v.01c0 .007.005.014.01.02v.02c.005.001.005.006.005.012.002.005.002.015.004.022.002.01.007.02.01.031v.01s0 .004.003.005c.018.074.039.146.057.22 0 .011.003.02.008.03v.01c.004.018.01.038.012.053 0 .006.007.012.007.017v.002a10.652 10.652 0 0 0 .083.337v.008c.012.046.02.086.032.128.014.073.035.143.05.213v.007a.094.094 0 0 1 .01.04.081.081 0 0 1 .006.033v.004l.014.039c.006.033.015.072.026.11.009.034.015.07.023.109 0 .005.003.005.003.011.01.032.016.065.022.098v.003s.003.006.008.01v.026c.015.063.03.125.042.193 0 .003.005.005.005.007v.005c.008.032.017.063.02.093 0 .007.005.015.008.022 0 .008 0 .01.005.015v.021c.012.058.028.115.039.17 0 .008.006.016.006.022v.002h.002l.02.096c.002.015.002.03.008.044.004.005.004.008.004.013v.001c.008.033.012.06.018.092.004.016.007.036.013.054 0 .003 0 .007.004.01 0 .004.001.012.003.015.007.042.017.08.027.122l.007.046c0 .005.004.01.004.013a.4.4 0 0 0 .017.078l.002.02a.044.044 0 0 1 .007.023v.009c0 .003 0 .005.003.006.007.018.007.036.01.057l.029.142c.008.035.018.066.027.1a.223.223 0 0 1 .004.037c.017.069.028.133.042.201a.26.26 0 0 1 .014.081c.01.033.018.068.022.102 0 .006.005.008.006.014v.022c.035.146.062.297.098.443.02.114.043.223.064.332v.003c.052.257.1.497.147.743.042.196.083.403.12.592l.002.001c0 .019.008.037.01.054l.027.134c.013.06.025.122.033.188.006.029.011.055.02.085.015.085.033.168.045.254.002.02.012.04.012.06.022.127.049.254.068.386.015.07.028.148.038.226.013.09.033.182.044.274.013.068.028.134.033.2.006.022.01.045.014.066.004.03.007.057.013.09.015.1.033.204.045.308.01.08.024.157.031.237a.504.504 0 0 1 .015.099c.01.069.019.138.025.206l.053.39a.14.14 0 0 0 .006.04v.021c.008.104.021.208.032.314.011.106.026.205.03.312 0 .014.005.024.005.036a.141.141 0 0 1 .007.053c.017.196.036.395.049.585a.02.02 0 0 1 .004.011v.01a109.94 109.94 0 0 0 .039.642v.006s.002 0 .002.005v.012c.004.206.016.41.02.614v.035c.002.096 0 .187 0 .284l.002.284v.04l-.002.075c0 .053-.004.109-.004.162 0 .051-.004.1-.007.152 0 .042 0 .087-.005.131-.004.112-.01.23-.016.342-.006.02-.006.045-.009.066v.017l-.029.322-.008.071c-.002.011-.002.024-.002.037l-.024.168c-.008.056-.01.116-.021.17 0 .005-.004.01-.004.013l-.001.018-.031.163c-.008.055-.019.107-.027.16-.004.03-.013.063-.019.092-.02.107-.043.205-.067.302 0 .01-.005.016-.005.027-.001 0-.001.006-.004.011l-.045.158-.035.118c-.006.013-.009.03-.011.041-.007.015-.01.033-.02.048-.018.06-.04.113-.061.172-.012.025-.018.057-.029.08l-.004.01c0 .001-.002.007-.009.014 0 .01-.002.02-.012.029v.004c-.008.016-.014.027-.02.047a.187.187 0 0 0-.032.062l-.003.003c0 .005-.005.005-.005.01-.046.102-.105.202-.166.306a6.19 6.19 0 0 1-.183.279c-.42.613-1.018 1.22-1.636 1.76-.088.075-.18.15-.267.227-.45.376-.901.708-1.286.987-.655.466-1.14.76-1.16.772l.015.045.005.014v.004l.024.06.887 3.449v.007h.002l.006.013v.007l.004.01c.217-.183.435-.368.644-.568.076-.068.15-.142.234-.218.2-.19.402-.4.608-.626 0-.006.004-.006.008-.008.094-.1.19-.21.284-.314.17-.197.344-.405.523-.63.545-.674 1.154-1.515 1.893-2.612 1.526-2.287 1.77-3.525 1.774-5.336v-.318a80.273 80.273 0 0 0-.016-1.043" fill="#F3E5BE"/><path d="M121.604 85.44c.094.098 1.66.269 2.966-1.911 1.308-2.176 1.221-4.16.365-5.712 0 0-.894 4.839-3.237 7.18 0 0-.192.344-.094.444" fill="#D0A734"/><path d="M101.655 113.171c-.064-.013-.146-.015-.23-.018-.048 0-.09-.004-.14.003-2.717.15-5.247.8-6.275 2.485a.218.218 0 0 1-.027.031.066.066 0 0 1-.02.037l-.034.043c-.014.01-.023.019-.037.03h-.01a.032.032 0 0 1-.018.013h-.01l-.015.002a.19.19 0 0 1-.122-.04.66.66 0 0 1-.113-.106 4.685 4.685 0 0 0-.688-.662 4.175 4.175 0 0 0-1.43-.681 22.848 22.848 0 0 0-1.705-.4l-.11-.023c-.219-.042-.429-.071-.642-.106-.814-.12-1.516-.157-2.022-.082-.077.011-.168.017-.234.034-.02.005-.037.013-.05.017-.077.023-.152.044-.22.078-.246.113-.465.282-.572.482a.449.449 0 0 0-.045.382c0 .007.01.021.016.03.01.011.02.026.025.042a.91.91 0 0 0 .35.366c.477.31 1.176.56 1.835.754l.186.058c.085.026.165.047.249.068l.26.076c.347.091.651.167.86.234.154.043.292.091.427.14.03.011.068.017.097.032.109.042.207.082.298.133h.006c.003.003.01.003.012.005.008.009.009.009.015.009a1.457 1.457 0 0 1 .651.667c.32.688.524 1.123.823 1.491.232.283.484.479.744.613.176.084.356.144.535.177.029.004.054.01.079.014.165.021.327.021.5-.002.304-.036.902-.088 1.237-.51a.03.03 0 0 1 .012-.01c.015-.019.021-.046.039-.064.035-.058.073-.115.102-.186.022-.056.034-.126.051-.189.012-.047.028-.083.033-.135a3.86 3.86 0 0 1 .056-.313c.032-.165.076-.312.127-.44.066-.163.167-.304.275-.434.057-.07.114-.14.186-.204a3.31 3.31 0 0 1 .227-.195c.061-.05.12-.08.18-.12.203-.136.411-.243.625-.307.558-.162 1.198-.058 2.174-.15.449-.04.85-.265 1.171-.479.353-.232.61-.55.76-.933a2.07 2.07 0 0 0 .156-.65c.005-.154.003-.31-.022-.468a.747.747 0 0 0-.172-.417.478.478 0 0 0-.2-.156c-.037-.019-.084-.032-.139-.052-.02-.006-.05-.008-.077-.014" fill="#F3E5BE"/><path d="M63.758 86.517c.104-.101-.102-.468-.102-.468-2.472-2.472-3.416-7.572-3.416-7.572-.899 1.637-.996 3.728.382 6.027 1.384 2.294 3.034 2.114 3.136 2.013" fill="#D0A734"/><path fill="#0E2B58" d="M144.545 105.199h.048v-2.512h1.058v-.439h-2.642v.439h1.056v2.512h.48m1.539-2.905v2.905h.502v-1.733c0-.065-.003-.173-.005-.32v-.123l.814 2.176h.493l.81-2.178v.156c-.006.133-.006.23-.006.289v1.733h.505v-2.95h-.69l-.864 2.32-.867-2.32h-.692v.045"/><path d="M85.99 134.043h.004c.02-.004.033-.01.033-.01l.006-.016c.003 0 .006 0 .01-.005.063-.06.028-.595.074-1.062a10.295 10.295 0 0 1 .646-2.491c.32-.817.655-1.415.822-1.691.042-.073.08-.126.095-.153.002-.006.002-.006.007-.01a.057.057 0 0 1 .011-.017l1.218.806 9.108-.417.959-1.433s0 .007.004.013c.003 0 .003 0 .006.003v.004c.003.006.006.01.015.017v.005c.004.004.01.01.01.015.003.009.004.009.01.012 0 .004.004.004.004.009v.004c.009.008.014.02.02.026v.002c.034.047.07.111.107.186a3.866 3.866 0 0 1 .142.283c.042.095.09.192.126.306.108.33.496 1.246.527 2.635a7.51 7.51 0 0 1-.007.626c0 .06-.004.151-.004.25 0 .128.006.263.03.379.023.105.057.19.118.21a.14.14 0 0 0 .087-.01.898.898 0 0 0 .171-.112c.11-.084.23-.218.356-.386.216-.281.462-.673.763-1.259.09-.166.18-.35.277-.545.181-.377.322-.692.43-.96.066-.167.117-.31.159-.438.067-.202.106-.374.132-.506a1.894 1.894 0 0 0 .05-.453.64.64 0 0 0-.076-.309.437.437 0 0 0-.286-.23 7.61 7.61 0 0 0-.483-.085c-.183-.027-.407-.057-.664-.1-.07-.007-.14-.014-.21-.032-.146-.018-.293-.043-.448-.065a28.79 28.79 0 0 0-.382-.057c-.06-.014-.115-.02-.171-.031-.106-.016-.213-.033-.32-.048a30.724 30.724 0 0 1-1.918-.356 30.315 30.315 0 0 1-1.107-.292c-.083-.024-.165-.047-.246-.073a29.677 29.677 0 0 1-.502-.153 16.175 16.175 0 0 1-.405-.128c-.024-.007-.054-.017-.081-.023a.052.052 0 0 0-.017-.008c-.016-.004-.026-.006-.042-.013l-.032-.014c-.026-.008-.048-.012-.063-.018-.023-.007-.034-.011-.045-.011a.08.08 0 0 1-.014-.007 1.93 1.93 0 0 0-.23-.044 1.702 1.702 0 0 0-.258-.03h-.024a.84.84 0 0 0-.133.018s-.01.008-.023.012c-.015.003-.037.014-.076.027-.255.095-.982.366-1.829.673-.12.044-.243.09-.369.134-.333.123-.677.245-1.009.363-.197.072-.393.14-.578.203-.043.016-.079.024-.114.039-.053.014-.104.034-.153.053-2.926.965-6.466 1.395-6.466 1.395l-.048.327a9.099 9.099 0 0 0 .082 1.797c.128.885.38 1.515.65 1.973a.086.086 0 0 1 .014.03c.052.08.102.152.15.219l-.001.001s.6 1.082 1.259 1.058c0 0 .073.016.141-.012" fill="#FFF"/></g></svg>