<svg width="200" height="200" xmlns="http://www.w3.org/2000/svg"><g fill="none"><path d="M186.034 46.948c-8.347 3.342-20.32 3.636-23.418 3.636h-21.13l2.176 6.682h2.945l7.378 20.985-11.649-2.603-5.441-18.382h2.912l-2.053-6.682H116.44l1.675 6.682h3.593l4.406 18.02c1.25 5.118 6.323 6.288 18.685 9.138l1.989.46c7.613-3.581 10.086-6.988 10.086-6.988 1.208 3.288.703 6.618-.446 9.21l7.476 1.723c9.093 2.097 9.368-1.44 7.738-5.132l-7.13-16.143c-.587-1.347.208-2.121 1.462-2.121 1.244 0 1.99.748 2.293 1.524.055.137.174.042.174.042 1.38-2.27-2.036-4.098-2.036-4.098 4.99.378 8.616-1.636 8.833-1.908.183-.235-.147-.237-.147-.237-4.696-.047-6.256-1.023-6.256-1.023 8.849-1.686 12.246-5.176 12.36-5.485.1-.281-.197-.19-.197-.19-4.598.804-9.912.504-9.912.504 9.732-1.61 15.116-7.177 15.156-7.438.04-.26-.208-.176-.208-.176M24.097 84.125l-4.495 9.247s7.748-3.848 23.138-7.426c-.807-2.388-1.028-5.235.003-8.05 0 0 2.153 2.955 8.598 6.253.324-.06.642-.122.972-.183l2.66-7.346-7.8 1.12 2-5.466 14.153-.62 5.629-7.758-16.92.62 1.996-7.25h10.637l-.785 3.047h13.184l1.54-9.73H38.314s-14.63-.17-24.084-3.951c0 0-.245-.084-.205.175.037.262 5.42 5.828 15.156 7.438 0 0-5.317.302-9.912-.503 0 0-.303-.092-.2.19.117.309 3.514 3.799 12.36 5.483 0 0-1.557.977-6.253 1.025 0 0-.333.001-.147.237.214.272 3.84 2.285 8.83 1.907l-.403 1.888H30.26l3.06 7.085-4.09 10.772-5.134 1.796" fill="#FFF"/><path d="M88.824 64.472l6.578-11.204 6.004 11.204H88.824zm35.694 10.654l-4.663-.34-15.712-27.741H86.538l-17.85 28.078-4.814.618-2.23 6.827c3.297-.552 10.408-1.576 19.258-1.874l4.226-7.52h19.161l4.152 7.833c8.03.418 16.07 1.062 18.609 1.271l-2.532-7.152zm-46.14 66.859l2.718-5.187c-18.488 3.95-42.61-7.296-40.97-20.795l4.586 2.057s-2.902-8.09 3.397-16.331a57.73 57.73 0 0 1-1.636-1.286c-6.437 4.825-10.177 10.579-10.177 16.759 0 15.368 23.12 28.11 53.381 30.467-1.776-2.522-3.38-5.272-4.42-8.043l-6.879 2.36m74.769-41.543c-.523.428-1.067.856-1.636 1.286 6.296 8.241 3.397 16.331 3.397 16.331l4.587-2.057c1.635 13.5-22.484 24.744-40.973 20.795l2.719 5.187-6.877-2.359c-1.04 2.77-2.648 5.521-4.421 8.043 30.259-2.357 53.38-15.1 53.38-30.467 0-6.178-3.74-11.933-10.176-16.76M79.94 119.188l-8.432-4.378c-.807.695-1.3 1.607-1.3 2.609 0 2.165 2.303 3.92 5.143 3.92 2.006 0 3.744-.874 4.59-2.15m44.326 2.151c2.84 0 5.143-1.756 5.143-3.921 0-1.002-.493-1.914-1.303-2.609l-8.43 4.378c.848 1.277 2.584 2.152 4.59 2.152" fill="#FFF"/><path d="M196.784 40.16c-.137.847-1.47 6.905-8.029 10.11 0 0 2.562.406 4.733-.024 0 0 .395-.103.172.303-.361.663-3.596 6.425-10.867 7.416 0 0 .936 1.299 3.547 1.551 0 0 .238.128.073.355-.394.532-3.807 5.653-10.117 6.217 0 0 1.39 3.304-.838 4.983 0 0-.615-.45-1.544-.45-1.29 0-2.513 1.055-1.663 3.417l2.06 5.724 4.972 2.29 7.745 14.642-5.32 10.521s-4-2.207-11.686-5c4.654 4.554 7.252 9.63 7.252 14.987 0 18.586-31.306 33.828-71.12 35.303-3.366 3.915-6.343 6.544-6.343 6.544s-2.979-2.629-6.345-6.544c-39.817-1.475-71.121-16.717-71.121-35.303 0-5.714 2.96-11.112 8.212-15.89-9.362 3.205-14.251 5.903-14.251 5.903l-4.724-9.34 8.888-15.877 4.969-2.287 1.954-5.673c.654-1.899.051-3.417-1.66-3.417-.832 0-1.545.45-1.545.45-2.229-1.679-.84-4.983-.84-4.983-6.308-.564-9.72-5.685-10.115-6.217-.168-.227.07-.355.07-.355 2.612-.252 3.547-1.551 3.547-1.551-7.268-.99-10.502-6.753-10.866-7.416-.22-.406.173-.303.173-.303 2.169.43 4.733.024 4.733.024C4.33 47.065 3 41.007 2.859 40.16c-.135-.848.688-.425.688-.425 7.821 2.758 15.492 5.854 36.284 5.854h41.63l2.796-3.062h23.252l2.792 3.062h53.951c12.497 0 23.932-2.58 31.847-5.854 0 0 .823-.423.685.425zm-1.816-3.054c-8.659 3.572-19.852 5.622-30.716 5.622h-52.686l-2.794-3.063H82.991l-2.795 3.063H39.83c-21.036 0-28.448-3.21-35.309-5.683-3.37-1.066-4.763 1.506-4.488 3.571.08.577.847 4.232 3.84 7.748-1.033.753-.905 2.724-.404 3.553.511.929 2.728 4.519 7.027 6.89-.346.32-.361 1.744.475 2.822 1.475 2.06 4.468 5.308 9.082 6.693-.128 1.99 1.407 5.7 4.366 5.562l-1.287 3.739-4.702 2.158L8.34 97.807l6.669 13.184a87.086 87.086 0 0 1 5.167-2.483c-1.297 2.787-1.981 5.696-1.981 8.694 0 20.489 31.925 36.812 73.398 38.73 3.572 4.252 8.217 7.941 8.217 7.941s4.643-3.689 8.215-7.94c41.474-1.919 73.397-18.242 73.397-38.731 0-2.66-.538-5.25-1.565-7.747a77.278 77.278 0 0 1 3.134 1.566l7.255-14.356-8.888-16.806-4.76-2.195-1.376-3.82c3.143.23 4.494-3.732 4.366-5.522 4.614-1.385 7.604-4.63 9.08-6.688.628-.823 1.019-2.431.432-2.796 4.341-2.371 6.506-6.024 7.072-6.917.853-1.348.165-3.274-.404-3.555 2.993-3.518 3.746-7.177 3.84-7.749.336-3.374-2.525-4.343-4.64-3.51z" fill="#C4C7CC"/><path d="M73.517 126.557c-7.68 0-13.906-4.75-13.906-10.608 0-2.273.936-4.38 2.535-6.106l-5.595-2.98c-1.56 2.162-2.45 4.648-2.45 7.293 0 8.362 8.892 15.142 19.856 15.142 6.127 0 11.608-2.115 15.25-5.444l-4.097-2.04c-2.493 2.858-6.753 4.743-11.593 4.743m63.955-16.714c1.597 1.726 2.535 3.833 2.535 6.106 0 5.858-6.226 10.608-13.908 10.608-4.837 0-9.1-1.885-11.591-4.744l-4.097 2.041c3.641 3.329 9.12 5.444 15.25 5.444 10.965 0 19.856-6.78 19.856-15.142 0-2.645-.888-5.131-2.45-7.294l-5.595 2.98M99.81 121.888v27.754c-3.531-5.165-5.885-10.558-5.885-15.224 0-3.36 1.088-6.322 2.666-8.838-2.636 2.668-5.07 6.45-5.07 11.284 0 5.87 4.085 12.048 8.29 16.734 4.387-4.702 8.692-10.864 8.692-16.734 0-7.99-8.692-14.976-8.692-14.976" fill="#C4C7CC"/><path d="M67.93 96.828C54.17 92.708 48.208 86.34 48.208 86.34s-2.394 9.381 20.782 17.266c15.763 5.363 25.376 11.622 29.082 16.383.36-13.115-23.297-21.114-30.14-23.162m83.482-10.486s-5.964 6.366-19.726 10.487c-6.843 2.048-30.5 10.047-30.138 23.162 3.706-4.761 13.316-11.02 29.08-16.383 23.177-7.885 20.784-17.266 20.784-17.266" fill="#B71A35"/><path d="M186.242 47.124c-.04.261-5.424 5.828-15.156 7.438 0 0 5.314.3 9.912-.503 0 0 .297-.092.196.19-.113.308-3.51 3.798-12.359 5.484 0 0 1.56.976 6.256 1.023 0 0 .33.002.147.237-.217.272-3.843 2.286-8.833 1.908 0 0 3.415 1.829 2.036 4.098 0 0-.12.095-.174-.042-.303-.776-1.049-1.524-2.293-1.524-1.254 0-2.05.774-1.462 2.121l7.13 16.143c1.63 3.692 1.355 7.229-7.738 5.132l-7.476-1.723c1.15-2.592 1.654-5.922.446-9.21 0 0-2.473 3.407-10.086 6.987l-1.99-.459c-12.361-2.85-17.433-4.02-18.684-9.137l-4.406-18.021h-3.593l-1.675-6.682h21.314l2.053 6.682h-2.912l5.441 18.382 11.649 2.603-7.378-20.985h-2.945l-2.176-6.682h21.13c3.098 0 15.07-.294 23.418-3.636 0 0 .247-.084.208.176zm-76.3 100.545c1.774-2.522 3.383-5.272 4.422-8.043l6.877 2.36-2.719-5.188c18.49 3.95 42.608-7.296 40.973-20.795l-4.587 2.057s2.899-8.09-3.397-16.331c.57-.43 1.113-.858 1.636-1.286 6.436 4.826 10.176 10.58 10.176 16.759 0 15.368-23.121 28.11-53.38 30.467zm-10.131 5.929c-4.205-4.686-8.29-10.864-8.29-16.734 0-4.834 2.434-8.616 5.07-11.284-1.578 2.516-2.666 5.478-2.666 8.838 0 4.666 2.354 10.06 5.886 15.224v-27.754s8.692 6.986 8.692 14.976c0 5.87-4.305 12.032-8.692 16.734zm-63.515-36.396c0-6.18 3.74-11.934 10.177-16.76.526.429 1.067.857 1.636 1.287-6.299 8.241-3.397 16.331-3.397 16.331l-4.586-2.057c-1.64 13.5 22.482 24.744 40.97 20.795l-2.718 5.187 6.879-2.359c1.04 2.77 2.644 5.521 4.42 8.043-30.262-2.357-53.38-15.1-53.38-30.467zm-16.694-23.83l4.495-9.247 5.133-1.796 4.091-10.772-3.06-7.085h3.195l.403-1.888c-4.99.378-8.616-1.635-8.83-1.907-.186-.236.147-.237.147-.237 4.696-.048 6.253-1.025 6.253-1.025-8.846-1.684-12.243-5.174-12.36-5.483-.103-.282.2-.19.2-.19 4.595.805 9.912.503 9.912.503-9.735-1.61-15.12-7.176-15.156-7.438-.04-.26.205-.175.205-.175 9.454 3.782 24.084 3.952 24.084 3.952h40.293l-1.54 9.729H63.883l.785-3.047H54.031l-1.996 7.25 16.92-.62-5.629 7.758-14.153.62-2 5.467 7.8-1.12-2.66 7.345c-.33.061-.648.122-.972.183-6.445-3.298-8.598-6.253-8.598-6.253-1.03 2.815-.81 5.662-.003 8.05-15.39 3.578-23.138 7.426-23.138 7.426zm49.387 10.235c-23.176-7.885-20.782-17.266-20.782-17.266s5.962 6.366 19.724 10.487c6.843 2.048 30.5 10.047 30.14 23.162-3.706-4.761-13.32-11.02-29.082-16.383zm1.22 13.812c0-1.002.492-1.914 1.299-2.609l8.433 4.378c-.846 1.277-2.584 2.152-4.59 2.152-2.84 0-5.143-1.756-5.143-3.921zm3.308 9.138c4.84 0 9.1-1.885 11.593-4.744l4.097 2.041c-3.642 3.329-9.123 5.444-15.25 5.444-10.964 0-19.855-6.78-19.855-15.142 0-2.645.89-5.131 2.449-7.294l5.595 2.98c-1.599 1.727-2.535 3.834-2.535 6.107 0 5.858 6.226 10.608 13.906 10.608zm57.113-22.95c-15.764 5.363-25.374 11.622-29.08 16.383-.361-13.115 23.295-21.114 30.138-23.162 13.762-4.12 19.726-10.487 19.726-10.487s2.393 9.381-20.784 17.266zm-10.952 15.581l8.43-4.378c.81.695 1.302 1.607 1.302 2.609 0 2.165-2.303 3.92-5.143 3.92-2.006 0-3.742-.874-4.59-2.15zm6.42 7.37c7.683 0 13.91-4.75 13.91-10.61 0-2.272-.94-4.379-2.536-6.105l5.595-2.98c1.562 2.162 2.45 4.648 2.45 7.293 0 8.362-8.891 15.142-19.856 15.142-6.13 0-11.609-2.115-15.25-5.444l4.097-2.04c2.491 2.858 6.754 4.743 11.59 4.743zm-39.56-79.513h17.605l15.712 27.74 4.663.341 2.532 7.152c-2.538-.21-10.58-.853-18.609-1.27l-4.152-7.834H85.128l-4.226 7.52c-8.85.298-15.961 1.322-19.258 1.874l2.23-6.827 4.815-.618 17.849-28.078zm110.246-6.885c.138-.848-.685-.425-.685-.425-7.915 3.273-19.35 5.854-31.847 5.854h-53.951l-2.792-3.062H84.257l-2.795 3.062H39.83c-20.792 0-28.463-3.096-36.284-5.854 0 0-.823-.423-.688.425.14.847 1.47 6.905 8.03 10.11 0 0-2.563.406-4.732-.024 0 0-.394-.103-.173.303.364.663 3.598 6.425 10.866 7.416 0 0-.935 1.299-3.546 1.551 0 0-.239.128-.07.355.393.532 3.806 5.653 10.113 6.217 0 0-1.388 3.304.841 4.983 0 0 .713-.45 1.544-.45 1.712 0 2.315 1.518 1.66 3.417l-1.953 5.673-4.969 2.287-8.888 15.877 4.724 9.34s4.889-2.698 14.251-5.902c-5.253 4.777-8.212 10.175-8.212 15.889 0 18.586 31.304 33.828 71.12 35.303 3.367 3.915 6.346 6.544 6.346 6.544s2.977-2.629 6.343-6.544c39.814-1.475 71.12-16.717 71.12-35.303 0-5.356-2.598-10.433-7.252-14.986 7.686 2.792 11.686 5 11.686 5l5.32-10.522-7.745-14.642-4.972-2.29-2.06-5.724c-.85-2.362.373-3.417 1.663-3.417.93 0 1.544.45 1.544.45 2.229-1.679.838-4.983.838-4.983 6.31-.564 9.723-5.685 10.117-6.217.165-.227-.073-.355-.073-.355-2.611-.252-3.547-1.551-3.547-1.551 7.271-.99 10.506-6.753 10.867-7.416.223-.406-.172-.303-.172-.303-2.17.43-4.733.024-4.733.024 6.559-3.205 7.892-9.263 8.03-10.11z" fill="#1B3866"/><path fill="#1B3866" d="M95.402 53.268l-6.578 11.204h12.582z"/><path d="M177.525 89.75c-.14-.054-.34-.081-.595-.081h-.25v1.137h.399c.24 0 .426-.048.56-.144.135-.096.202-.25.202-.466 0-.214-.105-.363-.316-.446zm-1.872 3.148v-3.92a248.275 248.275 0 0 1 1.9.009c.311.023.568.09.773.202.349.191.523.504.523.935 0 .33-.091.568-.275.714-.185.147-.41.234-.68.263.247.052.432.128.557.227.23.186.346.48.346.88v.35c0 .038.002.076.007.115a.568.568 0 0 0 .028.115l.037.11h-.98a2.849 2.849 0 0 1-.064-.542c-.012-.237-.033-.397-.065-.48a.475.475 0 0 0-.288-.288 1.134 1.134 0 0 0-.35-.062l-.226-.014h-.216v1.386h-1.027zm-.528-4.017c-.563.577-.844 1.26-.844 2.05 0 .819.286 1.515.859 2.087.57.573 1.257.86 2.063.86.803 0 1.49-.289 2.06-.864.569-.58.853-1.274.853-2.083 0-.787-.283-1.47-.85-2.05-.572-.588-1.26-.882-2.063-.882-.813 0-1.505.294-2.078.882zm4.555 4.588a3.436 3.436 0 0 1-2.477.999c-.995 0-1.833-.341-2.515-1.022-.68-.682-1.021-1.52-1.021-2.515 0-1.034.367-1.893 1.103-2.577a3.465 3.465 0 0 1 2.433-.96c.976 0 1.81.345 2.5 1.037a3.409 3.409 0 0 1 1.037 2.5c0 1.004-.353 1.85-1.06 2.538z" fill="#FFF"/></g></svg>