<svg width="200" height="200" fill="none" xmlns="http://www.w3.org/2000/svg"><path d="M157.224 95.63c0-3.232-1.077-6.274-3.01-8.936-.38.19-.792.412-1.173.602 0 0-2.154 1.173-5.671 3.042 1.964 2.123 3.105 4.69 3.105 7.478 0 7.193-7.636 12.991-17.047 12.991-5.925 0-11.153-2.313-14.195-5.798-1.711.855-3.39 1.679-5.006 2.503 4.467 4.087 11.185 6.685 18.694 6.685 13.403 0 24.303-8.333 24.303-18.567ZM101.394 105.579l-.475 33.555c-4.341-6.337-7.288-12.928-7.288-18.663 0-4.119 1.33-7.731 3.263-10.836-3.232 3.263-6.21 7.89-6.21 13.815 0 7.192 5.006 14.765 10.171 20.5 5.387-5.766 10.647-13.308 10.647-20.5 0-9.443-10.108-17.871-10.108-17.871ZM48.225 87.296c-.411-.19-.792-.412-1.172-.602-1.901 2.662-3.01 5.704-3.01 8.936 0 10.234 10.9 18.567 24.334 18.567 7.51 0 14.227-2.598 18.695-6.685-1.648-.824-3.327-1.648-5.006-2.503-3.042 3.517-8.27 5.798-14.195 5.798-9.411 0-17.047-5.83-17.047-12.991 0-2.788 1.14-5.355 3.105-7.478-3.549-1.87-5.704-3.042-5.704-3.042Z" fill="#CFD4D8"/><path d="M183.523 72.784v-2.756c0-.887-.697-1.585-1.584-1.585h-2.44c2.883-6.844-.761-12.579-.761-12.579s-1.711 2.725-4.087 3.613C176.837 50.763 171.387 43 171.387 43s-1.045 7.256-21.514 14.956c-14.987-4.056-32.161-6.274-49.842-6.274-17.395 0-34.347 2.154-49.176 6.084C30.862 50.16 29.816 43 29.816 43s-5.45 7.731-3.264 16.477c-2.344-.888-4.087-3.613-4.087-3.613s-4.056 6.147-.349 13.34C8.46 77.157 0 87.487 0 99.369c0 26.457 41.825 45.12 89.86 47.465a81.62 81.62 0 0 0 6.591 6.178l4.214 3.549 4.246-3.549a88.345 88.345 0 0 0 6.812-6.273c47.37-2.662 88.277-21.198 88.277-47.37.063-10.171-6.116-19.202-16.477-26.585Zm-74.208 69.772c-3.327 3.581-6.527 6.369-8.586 8.08-2.06-1.711-5.134-4.499-8.302-8.016-48.86-1.775-87.294-20.469-87.294-43.283 0-10.646 8.397-20.406 22.307-27.978-2.884-4.12-3.327-7.383-2.884-8.904 4.595 3.675 8.936 4.278 8.936 4.278-5.355-5.546-4.468-15.273-3.39-16.952.823 1.109 6.685 6.812 21.134 12.23l.126.064C65.59 58.177 82.224 55.959 100 55.959c18.061 0 34.917 2.313 49.303 6.306l.633-.222c14.481-5.418 20.311-11.153 21.135-12.23 1.077 1.679 1.964 11.406-3.391 16.951 0 0 4.341-.57 8.936-4.277.475 1.584 0 5.006-3.201 9.379 13.435 7.477 21.483 17.078 21.483 27.503.064 22.528-37.516 41.064-85.583 43.187Z" fill="#CFD4D8"/><path d="M173.479 71.866c3.2-4.341 3.675-7.763 3.2-9.38-4.595 3.676-8.936 4.278-8.936 4.278 5.355-5.545 4.468-15.272 3.391-16.952-.824 1.11-6.686 6.813-21.135 12.231l-.633.222c-14.385-3.992-31.242-6.306-49.303-6.306-17.776 0-34.41 2.25-48.637 6.116l-.127-.064c-14.48-5.418-20.31-11.153-21.134-12.23-1.078 1.68-1.965 11.407 3.39 16.952 0 0-4.341-.57-8.935-4.278-.444 1.553-.032 4.785 2.883 8.904-13.942 7.54-22.307 17.3-22.307 27.978 0 22.814 38.435 41.508 87.294 43.283 3.169 3.517 6.242 6.273 8.302 8.016 2.028-1.711 5.26-4.499 8.587-8.08 48.067-2.123 85.646-20.659 85.646-43.219-.064-10.425-8.112-19.994-21.546-27.471Zm-33.049.317c16.857-5.039 27.44-14.766 27.44-14.766s.159 14.322-28.232 23.986c-19.328 6.559-31.78 15.558-36.311 21.388-.444-16.096 28.738-28.074 37.103-30.608Zm-2.946 27.44c0 2.661-2.82 4.815-6.306 4.815-2.471 0-4.594-1.077-5.64-2.629 3.549-1.838 7.066-3.644 10.33-5.355 1.014.824 1.616 1.933 1.616 3.168ZM33.364 57.416s10.584 9.727 27.44 14.766c8.397 2.503 37.548 14.511 37.104 30.576-4.53-5.83-16.983-14.829-36.311-21.388-28.39-9.632-28.232-23.954-28.232-23.954Zm34.475 53.422c5.925 0 11.153-2.313 14.195-5.799 1.71.856 3.39 1.68 5.006 2.504-4.468 4.087-11.185 6.685-18.694 6.685-13.435 0-24.335-8.301-24.335-18.567 0-3.232 1.078-6.274 3.01-8.936.38.19.792.412 1.173.602 0 0 2.154 1.173 5.671 3.042-1.964 2.123-3.105 4.69-3.105 7.478.032 7.161 7.668 12.991 17.079 12.991Zm-4.056-11.217c0-1.236.602-2.344 1.584-3.2a967.832 967.832 0 0 0 10.33 5.355c-1.046 1.552-3.169 2.63-5.64 2.63-3.454.031-6.274-2.123-6.274-4.785Zm-41.572-.285c0-7.573 4.563-14.607 12.39-20.5.665.538 1.33 1.045 2.09 1.584-3.168 4.15-4.974 8.998-4.974 14.131 0 2.028.285 3.993.792 5.894l-5.608-2.535c-1.996 16.54 27.535 30.323 50.19 25.475l-3.295 6.338 8.428-2.884c1.362 3.517 3.295 6.844 5.45 9.854C50.57 133.811 22.21 118.19 22.21 99.337Zm78.644 44.613c-5.165-5.735-10.171-13.308-10.171-20.5 0-5.925 2.978-10.552 6.21-13.815-1.932 3.073-3.263 6.717-3.263 10.836 0 5.704 2.978 12.326 7.287 18.663l.476-33.555s10.107 8.428 10.107 17.871c0 7.192-5.291 14.734-10.646 20.5Zm18.346-38.941c3.042 3.517 8.27 5.798 14.195 5.798 9.411 0 17.047-5.83 17.047-12.99 0-2.79-1.141-5.356-3.105-7.479 3.517-1.87 5.672-3.041 5.672-3.041.412-.19.792-.412 1.172-.602 1.901 2.661 3.01 5.703 3.01 8.935 0 10.234-10.9 18.568-24.334 18.568-7.51 0-14.227-2.599-18.695-6.686 1.679-.792 3.359-1.648 5.038-2.503Zm-4.879 31.527c2.122-2.883 4.024-6.02 5.418-9.379l7.414 2.567-3.263-6.338c22.655 4.817 52.154-8.967 50.158-25.507l-5.608 2.535c.538-1.9.792-3.865.792-5.893 0-5.102-1.775-9.854-4.848-13.974.602-.443 1.172-.855 1.711-1.299 7.478 5.83 11.819 12.706 11.819 20.057-.032 18.568-27.44 33.967-63.593 37.231Z" fill="#00447C"/><path d="M61.597 81.371c19.328 6.56 31.78 15.558 36.311 21.388.444-16.064-28.707-28.073-37.104-30.576-16.856-5.039-27.44-14.766-27.44-14.766s-.158 14.322 28.233 23.954ZM139.638 81.371c28.39-9.664 28.232-23.986 28.232-23.986s-10.583 9.728-27.44 14.766c-8.397 2.503-37.547 14.512-37.104 30.576 4.563-5.798 17.015-14.765 36.312-21.356Z" fill="#D31245"/><path d="m73.796 129.723 3.327-6.368c-22.656 4.848-52.218-8.936-50.222-25.476l5.608 2.535c-.538-1.9-.792-3.865-.792-5.893 0-5.165 1.806-9.981 4.975-14.132-.729-.539-1.426-1.077-2.092-1.584-7.858 5.925-12.389 12.96-12.389 20.5 0 18.853 28.327 34.506 65.431 37.389-2.154-3.01-4.087-6.337-5.45-9.854l-8.396 2.883ZM166.064 79.248c-.539.412-1.109.856-1.711 1.3 3.105 4.118 4.848 8.903 4.848 13.973 0 2.028-.285 3.992-.792 5.893l5.608-2.535c1.996 16.54-27.503 30.292-50.158 25.507l3.263 6.337-7.414-2.566c-1.394 3.327-3.296 6.495-5.418 9.379 36.153-3.264 63.561-18.695 63.561-37.23.032-7.352-4.309-14.228-11.787-20.058ZM75.697 101.808c-3.55-1.837-7.066-3.643-10.33-5.354-.982.855-1.584 1.964-1.584 3.2 0 2.661 2.82 4.816 6.305 4.816 2.44-.032 4.563-1.109 5.609-2.662ZM125.538 101.808c1.046 1.553 3.169 2.63 5.64 2.63 3.486 0 6.306-2.154 6.306-4.816 0-1.236-.602-2.345-1.585-3.2-3.295 1.71-6.78 3.549-10.361 5.386Z" fill="#fff"/><path d="M181.337 73.45c-.444.412-.951.634-1.553.634-.634 0-1.141-.222-1.584-.634-.444-.444-.634-.95-.634-1.584 0-.634.222-1.204.697-1.616a2.157 2.157 0 0 1 1.521-.602c.602 0 1.141.222 1.584.665.444.444.666.95.666 1.584-.032.602-.254 1.141-.697 1.553Zm-2.884-2.883a1.797 1.797 0 0 0-.539 1.299c0 .507.191.95.539 1.299.349.348.792.538 1.299.538.507 0 .951-.19 1.299-.538.349-.349.539-.792.539-1.3 0-.506-.19-.918-.539-1.298-.348-.38-.792-.54-1.299-.54-.507 0-.919.191-1.299.54Zm.349 2.534V70.63h1.204c.19 0 .348.063.475.127.222.126.317.317.317.602 0 .222-.064.348-.159.443a.664.664 0 0 1-.411.159c.158.031.285.095.348.127.158.126.222.316.222.538V72.911c0 .032 0 .064.032.064l.031.063h-.602c-.031-.063-.031-.19-.031-.349 0-.158-.032-.253-.032-.316a.286.286 0 0 0-.19-.19c-.064-.032-.127-.032-.222-.032h-.254v.855h-.728v.095Zm1.172-1.964a1.182 1.182 0 0 0-.38-.063h-.159v.728h.254a.569.569 0 0 0 .348-.095c.095-.063.127-.158.127-.285 0-.127-.063-.253-.19-.285Z" fill="#00447C"/></svg>