<svg width="200" height="200" xmlns="http://www.w3.org/2000/svg"><g fill-rule="nonzero" fill="none"><path d="M108.67 9.568c.027.055.054.12.079.188.112.296.216.7.306 1.125.061.287.12.582.168.86v.002c-.51-.605-1.286-1.423-2.398-2.394a22.227 22.227 0 0 0-2.192-1.665h.001l-.001-.002c1.084.048 2.164.115 3.239.2l.798 1.686Zm43.268 86.524c-.537.634-1.565.794-2.39.634-.19.624-1.903 2.231-2.937 1.41-2.644 2.752-3.752.655-4.108.285.751-.775 1.346-2.135 2.659-1.975.79-.936 1.337-2.22 3.391-2.281.478-1.04 1.55-1.09 2.273-1.583.591-.213.717.334 1.004.637.07.162.145.35.215.555.241.713.398 1.617-.107 2.318Zm-7.78 15.091c1.14-.291 1.878-.021 2.18.872l.006.021.014.066c.119-.07.239-.158.355-.166 1.01-.056 2.082.304 2.947.907a.809.809 0 0 1 .149.14c.043.052.078.105.118.159.193-.1.449-.254.59-.219 1.095.27 2.34.338 3.22.702.173.073.238.384.376.506-.333.96-1.405.584-2.188.576-.633-.134-1.469-.105-1.892-.669-.52.33-1.232-.078-1.822-.157-.59-.22-1.18-.353-1.57-.666a.232.232 0 0 0 .003.004c-.878-.385-2.094-.812-2.78-1.55a2.183 2.183 0 0 1-.317-.432c.302-.02.388-.035.61-.094ZM100.571 3.947c-6.308 0-12.471.631-18.435 1.826-4.194.262-9.26.992-12.589 2.537-3.586 0-7.004.512-10.176 1.524-3.236.74-5.93 2.708-8.737 4.462-3.204 2.858-8.094 6.61-7.83 6.841-.314.163-1.419 1.803-2.962 2.577-4.896 2.448-11.337 9.795-14.042 13.789 0 0-3.845 5.633-5.2 7.85-1.498 2.717-8.375 15.584-11.118 23.221-.527 2.14-.76 5.91-1.09 7.337-.206 1.27-2.298 9.374-1.768 16.234.084 1.083.25 1.729.168 2.539-.083 3.536-.498 5.756.18 9.326v-.004l.023-.087v.005a94.04 94.04 0 0 0 1.305 10.671c.005.063.005.128.008.192 1.323 7.173 2.892 14.233 5.468 20.874 0 0 1.834 7.01 2.694 8.846.761.83 1.39.934 1.57 1.778 1.075 4.89 2.228 7.874 5.58 11.692.339.273.664.336.964.324.348-.013.66-.126.917-.122a.5.5 0 0 1 .293.086c2.389 3.638.851 1.66 4.47 4.918 1.469 1.238 2.941 2.48 4.543 3.456.155.082.938.29 1.67.291.245 0 .483-.02.69-.08 16.708 15.365 38.98 24.759 63.404 24.759h.002a93.62 93.62 0 0 0 21.925-2.597c-2.19-.76-4.334-1.55-6.441-2.371a90.771 90.771 0 0 1-15.484 1.33h-.002c-21.111 0-40.528-7.265-55.89-19.427a4.69 4.69 0 0 0 .091-.976c0-.766.058-1.56 0-2.322-.115-1.463-.705-2.378-1.178-3.675a3.596 3.596 0 0 1-.188-1.073h.002c15.079 13.766 35.14 22.163 57.165 22.163 1.914 0 3.808-.07 5.692-.194A169.854 169.854 0 0 1 99.218 179a81.658 81.658 0 0 1-5.142-.248 183.737 183.737 0 0 1-15.12-9.43c-11.647-8.03-18.27-16.375-18.343-16.448-1.242 3.077-2.093 6.472-2.093 6.472l-.002-.002v.002l-2.499-4.052c-.944-1.431-1.444-3.51-1.792-5.67l-3.015 4.824v-.001.001c0-.01-1.152-5.823-1.152-5.823s-.625-4.933-.684-6.944c-.053.083-3.636 3.105-3.636 3.105v-.001h-.001l-.265-4.752c.002-.058-.032-4.671-2.832-9.014-1.43.377-2.93.58-4.479.58-2.428 0-4.74-.493-6.846-1.385-6.312-2.671-10.742-8.927-10.744-16.215 0-9.716 7.878-17.595 17.59-17.595 3.34 0 6.461.931 9.12 2.548 5.077 3.086 8.468 8.672 8.468 15.048 0 3.033-.768 5.888-2.12 8.38 1.083.96 1.955 1.769 2.605 2.386 1.642-.64 3.308-.98 5.074-1.058.401-.015.805-.015 1.22-.007v.002l.802 3.696c.288-.008.576-.013.865-.013.807-.083 1.619-.156 2.436-.18a34.749 34.749 0 0 1 4.178.117c.073-.565.365-1.079.79-1.742.864-1.353 2.05-2.338 2.816-3.758.688-1.28 2.068-4.036 2.76-5.316.275-.506.6-1.02.748-1.584.183.051 2.035.108 2.67.598.092.07.157.148.19.236a5.56 5.56 0 0 0 1.104 1.812c2.03 2.262 5.615 3.031 6.583 2.754.786-.226 1.62-.02 2.302.457l.007.003a3.51 3.51 0 0 1 1.016 1.107c.25.431.98 1.44 1.599 2.528 2.588 4.528 15.325 18.934 19.93 23.316.157.147.302.284.438.407l.022.02c.426.39.754.655.959.775 1.954 1.145 4.178 1.708 6.294.614 1.274-.658 1.827-1.925 2.6-3.05.294-.429.572-.866.893-1.277.55-.711 1.187-1.465 1.97-1.927.54-.321 14.581-2.834 16.21-3.068 1.94-.276 3.378-.607 4.908-.96 1.676-.386 6.286-1.121 7.14-1.769-.036-.113-.17-.08-.252-.08l-.6.09c-.52.081-.334.04-.901.075-6.988.461-13.397-.977-19.859-2.018l-10.093-1.107c-1.768-.265-3.818-.147-5.468-.414l-.082.083c-4.198-.23-8.211-.926-11.694-2.859a25.065 25.065 0 0 1-4.92-3.852c-1.469-1.495-2.686-3.164-3.42-4.907-.86-1.47-2.574-5.533-2.919-7.217 0 0 1.372-1.717 1.493-3.48-2.426 1.55-4.678 2.834-7.554 2.324a8.935 8.935 0 0 1-1.67-.476c-.897-.714-1.863-1.578-2.906-2.298-.99-.685-2.049-1.235-3.183-1.398-4.261-.744-4.814-.054-6.818-1.861 3.98-10.929 6.056-4.84 10.782-14.289v.002c.37.456.384 1.093.738 1.547.123.155.285.289.517.385 1.27.275 2.441.777 3.446 1.687a6.795 6.795 0 0 1 .418.414c.448-3.043.743-6.167 1.685-9.01-.118-.298.175-.516.052-.762-.047-.26-.39-.79-.68-1.205-.226-.323-.42-.576-.42-.576s-.052-.144-.126-.306c.002-.003.004-.005.004-.009l-.022-.033a1.557 1.557 0 0 0-.188-.324l-.004-.003a.219.219 0 0 0-.06-.053c-.158-.09-1.2-1.57-1.26-1.653-.622-1.519-1.93-2.773-2.845-4.084a.328.328 0 0 0-.012.037l-.002-.001c-1.754-4.225-3.386-6.444-4.367-7.517a7.57 7.57 0 0 0-.363-.378c-.006-.004-.01-.01-.015-.013v-.001l-.029-.03a1.812 1.812 0 0 0-.268-.261s-2.372-1.957-2.803-2.153c1.682 5.964.005 13.4-.508 15.698v-.001h-.002c-.511-.695-.516-10.086-.814-10.957-.4 3.315-.543 12.55-5.094 16.462v-.002h-.002c.728-2.822 3.73-12.351 3.768-12.478-.528.902-2.699 5.702-3.97 5.958l.002-.002h-.001C73.953 76 75.245 69.65 75.18 69.078c-.727 1.171-1.593 3.146-1.877 4.515l-.001-.004v.004c-.411-2.097.548-4.181 1.174-6.146l-.275-1.06a.673.673 0 0 1 .163-.187 22.769 22.769 0 0 1-1.264-1.41c-.096-.118-.188-.24-.281-.36-.105-.132-.212-.262-.312-.395-.001-.001-.001-.003-.003-.003a24.04 24.04 0 0 1-.553-.77l-.042-.065a2.206 2.206 0 0 0-.105-.165c-.164-.248-.331-.497-.48-.747-.323-.54-.612-1.07-.876-1.594l.022-.045-.083-.086c-.002 0-.002-.005-.004-.006-.023-.041-.041-.082-.065-.12-.909-1.88-1.437-3.747-1.534-6.023 0-.274.044-.58 0-.742.152-.13.065-.344.084-.511a.192.192 0 0 0-.092-.074v-.001h-.002c.024-.805.092-1.66.213-2.587.025-.227.08-.436.13-.634.16-.54.327-1.081.395-1.609.035-.085.07-.172.107-.255.228-.527.43-.793.743-1.278.178-.273.414-.498.591-.777.531-.842 1.255-1.374 1.87-2.13h.001a81.075 81.075 0 0 1 1.549-1.246l.555-.385c.336-.237.563-.451.76-.648a110.43 110.43 0 0 0 1.688-1.336c.005-.024-.007-.041-.014-.06a313.17 313.17 0 0 1 4.458-2.646l.182-.071c-.01-.007-.02-.012-.03-.017 1.232-.728.822-.703 1.92-1.62l.254-.21.036-.003-.013-.015h-.002c.785-.657.973-.804 2.005-1.461 1.224-.782 1.437-.847 2.79-1.25.399-.117 1.815-.89 2.39-.992-.044.024.38-.157.832-.35.198-.054.399-.14.6-.255a5.07 5.07 0 0 1 .41-.167c1.575-.496 2.126-.485 3.924-.72l.182-.014.013-.01.213-.029c2.637-.362 4.347-.797 6.81-.815a.526.526 0 0 1-.043-.07c-.063-.138.169-.081.989-.116.045-.003.037-.08-.012-.212.045.056.086.112.133.167a.54.54 0 0 1 .129-.13c-2.444-4.545-3.923-8.718-8.397-11.742.003 0 .005.002.008.003-.003 0-.007-.003-.008-.004 5.122 2.447 8.9 6.82 11.511 11.928.133-.02.198.148.347.097.173-.2.084-.356-.022-.514l-.076-.116c-.055-.092-.098-.188-.084-.298-.396-1.047-.751-2.027-1.111-2.972-.856-2.24-1.736-4.277-3.246-6.52-1.075-1.074-1.836-2.463-2.691-3.454v.001s0-.002-.002-.002c2.08 1.47 4.08 3.486 5.812 5.471h.002a.853.853 0 0 0 .056.144c.161.327.504.599.603.946.13.149.223.325.307.503.02.037.037.074.055.112.124.255.248.497.483.642-.014-1.836-.314-2.958-.756-3.71-.737-1.254-1.864-1.489-2.723-2.314a3.905 3.905 0 0 1-.183-.448c-.44-1.232-.925-3.678-1.797-5.917-.593-1.533-1.37-2.967-2.437-3.845l.003.002c-.002 0-.002-.002-.003-.003 2.006 1.261 4.732 2.846 5.86 4.984.408.767 1.01 1.818 1.6 3.17 1.05 2.416 2.053 5.797 1.79 10.276.562-.792.61-1.784.925-2.692.611-2.925.313-6.33-.083-9.255v.002c1.801 3.783 2.543 7.252 2.08 11.88l.083.082c1.287-1.092 1.505-1.917 2.297-3.222l-.001.004v-.002c-.659 2.76-1.535 5.438-3.45 7.668l.33.33c7.45 3.206 14.19 8.231 20.27 14.563.273.377.523.772.725 1.187.442.91.655 1.916.383 3.028 0 1.06-1.165 2.902-.679 3.914.092.187.239.347.46.467 1.191.611 5.27 1.3 7.322 2.46.171.087.327.175.492.262.17.09.343.181.511.272a.171.171 0 0 1 .018.01c.188.103.365.204.547.307l.306.17c.002.003.005.003.007.004.009.005.017.011.027.015l.487.283.398.237c.25.152.496.302.737.454.118.075.237.148.351.223.159.101.316.203.47.304l.085.056c.194.126.382.253.568.38l.03.02h.002c.001.003.005.004.007.007.292.199.574.4.857.603l.053.038c.285.207.568.415.844.625.006.004.015.007.02.012.042.031.082.064.123.096.319.244.636.49.948.742.06.048.12.099.18.148.323.26.643.525.96.793v.002c2.38 2.01 4.704 4.25 7.755 6.946v.002l.087.098.006.009a.17.17 0 0 0 .018.023c.4.483 1.08 1.468 1.097 2.513.003.266-.034.535-.129.8-.959 2.746-3.216 2.435-4.719 4.93-.726.934-1.737 2.416-1.927 2.816.44 2.359 1.25 2.732 1.792 3.353.637.734 1.662 1.298 1.94 2.091.092.265.102.555-.014.886-.38.76-.612 1.57-.761 2.43-7.421 1.31-13.876 6.907-13.876 6.907l-.166.25c-.088 4.86-.362 11.046.822 15.708.129.504.27.996.435 1.461.224.813.47 1.61.737 2.392a40.466 40.466 0 0 0 4.167 8.674 48.712 48.712 0 0 0 3.34 4.619l2.179 2.59c-1.393-3.1-3.772-7.06-5.679-10.896a54.404 54.404 0 0 1-1.248-2.674c-.586-1.359-1.064-2.672-1.362-3.889 3.555 1.687 7.346 2.477 11.459 2.776 1.452.413 2.594.74 3.057 2.312-.081.594-.413 1.09-.76 1.587-1.073 1.703-.89 4.246.182 5.9.127.174.251.35.371.526l.061.087c.005.009.008.014.014.02.966 1.438 1.708 2.951 2.413 4.491.02.086.033.17.048.254.179 1.026-.2 1.962-.642 2.786-2.067 1.968-4.328 3.49-6.99 4.035-9.63 2.162-19.492 3.851-27.504 9.932-1.139.864-2.229 1.861-3.326 2.781-1.069.9-2.116 1.85-2.937 2.987-.165.226-.351.505-.533.805l.098.06.065.038v1.477c.65-.753 1.234-1.601 2.103-2.075.023.026.048.051.066.08-.253.396-.501.795-.716 1.208-.785 1.523-.958 3.135-.927 4.79l.633-.114c.134-.014.256-.035.37-.06.928-.2 1.32-.753 1.32-.753.64.421 1.245.834 1.832 1.236l-.003-.034c.63-3.206 1.349-7.165 3.104-8.932.004-.001.006-.003.007-.006 1.857-1.86 6.06-4.12 11.832-6.366 5.196-2.018 19.356-5.39 20.788-6.31.633-.408 3.344-1.467 4.528-4.461l.157-.391c.955-2.38 1.1-2.744-1.503-6.25-2.412-3.25-1.655-4.892-1.29-5.68.02-.05.046-.1.064-.142.045-.108.127-.247.242-.44.713-1.225 1.306-2.554.94-3.718-.024-.073-.055-.143-.085-.212-.014-.034-.024-.068-.04-.101-.198-.411-.534-.796-1.05-1.145-2.114-1.435-3.914-2.137-4.85-2.271-.039-.005-.078-.012-.115-.015l-.114-.011c-.278-.03-.437-.055-.547-.126-.176-.115-.307-.308-.42-.542l-.007-.016c-.02-.043-.04-.085-.058-.128a6.172 6.172 0 0 1-.146-.386c-.006-.013-.01-.025-.014-.04l-.097-.28c-.103-.303-.21-.6-.346-.844a1.797 1.797 0 0 0-.428-.295c-.776-.4-2.117-.65-2.875-.7a3.82 3.82 0 0 0-.256-.01c-.144 0-.303-.032-.466-.08l-.01-.003c-.039-.012-.08-.028-.12-.041-.016-.006-.033-.01-.047-.016-.018-.005-.032-.012-.047-.02-.665-.251-1.347-.727-1.49-.718l-4.144-1.036c-.964-.62-1.375-1-1.534-1.596-.01-.035-.015-.074-.023-.11-.009-.04-.02-.08-.026-.123-.093-.577-.022-1.361 0-2.661.045-2.87-.159-3.484.112-3.717 0 0 .821.235 1.805.011.947-.216 3.375-1.142 3.586-1.702 0 0 4.889-1.902 5.095-3.395a7.54 7.54 0 0 0-.185-2.918c-.01-.031-.015-.05-.017-.05l-.14-.272.28-.126c.275-.122 2.729-1.204 3.321-1.306.59-.098 1.143-.274 1.34-1.344.123-.67.336-1.52.506-2.208.123-.491.26-1.048.27-1.176-.051-.241-.676-1.653-1.434-2.588-.5-.62-1.626-2.008-1.647-3.295-.009-.428.107-.844.406-1.218 1.021-1.264 3.825-3.751 4.376-4.234 1.315-1.162 1.474-3.642.466-5.348-.326-.555-.885-1.262-1.583-2.05-2.493-2.811-6.785-6.655-8.847-8.38-2.238-1.864-8.77-5.689-10.533-6.548-.266-.127-.527-.246-.781-.361-.958-.435-1.88-.608-2.238-1.208-.164-.272-.212-.633-.093-1.147.066-.303.14-.572.214-.831.281-1.02.482-1.735-.112-2.907a6.293 6.293 0 0 0-.305-.533c-1.256-1.985-5.468-6.391-8.19-8.568-2.658-2.13-11.797-7.96-11.797-7.96h-.002l1.051-2.674c.055-.195.09-.57.068-.57.164-.822.426-2.022.507-2.721.028 0 .064-.293.054-.365-.002-.01-.003-.015-.006-.015 0 0 0-.002-.002-.002.07-.947.081-2.062.04-2.746a7.832 7.832 0 0 0-.14-.66c-.023-.09-.043-.181-.072-.272l-.327.027v-.01c-.002-.025-.006-.05-.009-.074-.02-.333-.07-.63-.137-.896 36.031 8.296 62.99 40.624 62.99 79.156 0 21.349-8.289 40.79-21.794 55.305a81.63 81.63 0 0 1-23.063 17.311c0 .002 0 .004-.003.006a69.414 69.414 0 0 0 3.612 2.273c26.71-14.295 44.882-42.469 44.882-74.894 0-42.892-31.799-78.347-73.095-84.068 0 0-.002 0-.002-.002-.133-.24-.275-.484-.42-.73-.9-1.52-1.983-3.078-2.67-3.794l-1.239-1.29-.002-.001c46.32 3.77 82.736 42.572 82.736 89.885 0 33.202-17.934 62.21-44.636 77.866 1.17.573 2.572 1.226 3.934 1.829l.262-.165c.528-.331 1.053-.665 1.574-1.006.218-.142.436-.282.655-.427a98.47 98.47 0 0 0 6.897-5.036 94.305 94.305 0 0 0 3.943-3.333 95.871 95.871 0 0 0 5.207-5.018 94.848 94.848 0 0 0 2.947-3.213 91.79 91.79 0 0 0 3.88-4.74c11.989-15.671 18.975-35.187 18.975-56.757 0-51.737-42.071-93.83-93.784-93.83Z" fill="#19191B"/><path d="M89.505 107.206c-.628.394-1.42.645-2.195.413-.925-.284-1.702-.892-2.594-1.256-1.224-.827-2.66-1.157-4.132-1.34l.514.33c1.814.315 3.122 1.92 4.707 2.86 1.19.63 3.239 1.009 4.378 0 .743-.395.973-1.172 1.091-1.934 0-1.47-.512-2.942-1.852-3.62-1.154.943-1.85 2.38-2.014 3.87.48-.564.726-1.275 1.42-1.689.594-.114.992.149 1.355.596.116.627-.148 1.306-.678 1.77M148.994 71.178c.443.197.87.56 1.36.64a.46.46 0 0 0 .529-.317c.224-.78-1.223-1.484-1.705-1.925-.344-.325-.787-.568-1.048-.974-.197-.312-.189-1.128-.623-1.209-.533-.097-1.043.218-1.447.529-.376.288-.788.526-1.16.821-.239.19-.657.425-.68.77.014-.198 2.227.562 2.395.629.798.328 1.59.684 2.379 1.036M111.031 66.628c-4.146 4.09-7.507 8.396-9.23 13.81 1.095-1.47 1.936-3.145 3.262-4.55 2.09-3.551 4.574-7.18 8.331-9.343 3.848-2.893 8.44-4.032 13.3-4.543.18.099.559.147.657 0-.38-.261-.866-.267-1.245-.518a.551.551 0 0 1-.19-.191c-.071-.126-.067-.254-.207-.425-.311-.374-.908-.22-1.252-.553-.282-.27-.449-.862-.344-1.24.182-.638.98-.247 1.484-.39.164-.082 1.508-.552 1.508-.552-1.198-1.456-3.8-.81-4.544-.413-2.262.71-4.64 1.157-6.64 2.512l-.083-.084c.88-1.239-2.243.489-4.634 2.74.017-.252-.313-.672-1.181-2.032.167-1.768 1.307-3.356 2.364-4.877 2.426-2.826 8.724-5.633 8.656-5.306 1.04 1.01 2.36 1.702 3.37 2.944.432.53.626 1.12.843 1.757.421-1.718 2.437-2.224 3.7-3.031-.265.169-1.398-.312-1.75-.359-.03-.693.313-.962.815-1.274.438-.27.607-1.325.598-1.78-.014-.567.01-1.295-.433-1.64-3.065-2.385-8.862-4.219-9.527-3.247-.153.225 1.412 1.3 1.82 1.827-.122-.158-2.878-.918-3.114-.932-.769-.041-1.545.035-2.303.16-1.59.264-11.708 6.412-12.504 6.799.033 2.462 6.517-.44 7.713-1.002-2.94 1.453-10.835 7.97-12.258 10.979 2.677-.155 7.311-3.848 8.969-4.34 2.338-.695.862 3.404.862 3.404s-2.634 1.781 1.227 1.392c.948-.096.439.212-.007.82-.754 1.025-1.161 2.268-.916 2.417.756-.323 1.297-.61 1.672-.867 1.934-.766 5.453-1.886 7.274-2.353l.083.083c-1.834 1.157-3.866 1.768-5.716 2.859v.164c.74.34.08.844-.43 1.175" fill="#19191B"/><path d="M141.468 81.191c1.113.168 1.25.46 5.231-2.342 1.422-1.322 3.85-.398 5.04-2.1.145-.264.13-.741-.166-.843-2.642-.626-4.63 1.042-6.642 2.86-1.885 1.007-3.97-.167-5.658-1.091-1.34-.926-1.503-1.387-1.633-2.906-1.574-2.365-3.216-4.256-3.216-4.256l-2.017-2.448c-2.288-2.576-4.214-3.536-4.214-3.536l-1.847-1.522c-.165-.215-.416.066-.497.1 2.61 3.024 6.13 5.85 7.979 9.255 0 0 2.633 3.61 3.205 7.404 1.138 5.108.857 10.708.477 15.913-.202 4.827-.065 7.454.531 11.569.802 5.107 1.656 7.29 2.939 9.974-.261-.76-.33-2.53-.33-2.53-1.206-5.87-2.458-13.278-1.52-18.512.727-4.909 1.357-10.495 0-15.321.401-.912 1.94.242 2.338.332" fill="#19191B"/><path d="M131.516 191.9a199.98 199.98 0 0 1-9.015-2.888 93.647 93.647 0 0 1-21.927 2.597h-.002c-24.424 0-46.696-9.394-63.403-24.758-.208.059-.446.08-.691.08-.732-.002-1.515-.21-1.67-.292-1.602-.976-3.074-2.218-4.543-3.456-3.619-3.259-2.081-1.28-4.47-4.918a.5.5 0 0 0-.293-.086c-.256-.004-.57.109-.917.122a1.37 1.37 0 0 1-.963-.324c-3.353-3.818-4.506-6.802-5.58-11.692-.182-.844-.81-.948-1.571-1.778-.86-1.836-2.694-8.846-2.694-8.846-2.576-6.641-4.145-13.7-5.468-20.874-.003-.064-.003-.129-.008-.192a94.04 94.04 0 0 1-1.305-10.671l-.021.087-.002-.005v.004c-.678-3.57-.263-5.79-.18-9.326.082-.81-.084-1.456-.168-2.539-.53-6.86 1.562-14.965 1.767-16.234.332-1.427.564-5.196 1.091-7.337 2.743-7.637 9.62-20.504 11.117-23.222 1.356-2.216 5.2-7.85 5.2-7.85 2.706-3.993 9.147-11.34 14.043-13.788 1.543-.774 2.648-2.414 2.961-2.577-.263-.231 4.627-3.983 7.83-6.841 2.809-1.754 5.502-3.721 8.738-4.462 3.172-1.012 6.59-1.524 10.176-1.524 3.328-1.545 8.395-2.275 12.59-2.537a93.777 93.777 0 0 1 18.434-1.826c51.713 0 93.784 42.094 93.784 93.83v.001c0 21.57-6.986 41.086-18.976 56.757a91.79 91.79 0 0 1-3.879 4.74 94.848 94.848 0 0 1-2.947 3.213 95.871 95.871 0 0 1-9.15 8.35 97.013 97.013 0 0 1-6.897 5.037c-.219.145-.437.285-.655.427-.521.341-1.046.675-1.574 1.006-.105.065-.208.135-.313.2-.43.267-.861.531-1.294.79l-2.674 1.993c-2.51 1.345-2.445 1.528-4.815 2.662 2.84.12 8.67-3.284 11.568-4.05 1.496 2.134 5.265 4.05 5.265 4.05-3.556.073-4.803 1.264-6.04 1.886 2.124.649 6.351.832 8.542.669 4.133 4.008 11.393 9.142 11.393 9.142s-19.417 3.412-40.394-2.75Zm42.44-.144c-.072-.05-16.751-13.376-17.661-14.197 25.82-18.136 41.602-48.109 41.602-79.78 0-53.692-43.658-97.372-97.323-97.372-6.3 0-12.638.62-18.843 1.843-3.198.21-8.766.81-12.934 2.527-3.625.066-7.106.616-10.362 1.638-3.263.78-5.877 2.45-8.402 4.068-.423.27-.846.542-1.273.807a3.69 3.69 0 0 0-.483.362c-1.24 1.107-2.782 2.385-4.14 3.512-2.34 1.938-3.589 2.975-4.235 3.851l-.226.249c-.354.39-.941 1.045-1.418 1.281-5.995 3-12.956 11.38-15.38 14.96-.161.233-3.912 5.735-5.296 7.998a3.693 3.693 0 0 0-.082.14c-.08.146-8.203 14.978-11.348 23.735a3.805 3.805 0 0 0-.107.347c-.35 1.426-.568 3.28-.76 4.913-.114.958-.24 2.043-.34 2.474a2.71 2.71 0 0 0-.046.229c-.026.164-.091.456-.177.854-.632 2.96-2.113 9.894-1.625 16.226.032.414.072.774.111 1.102.05.414.079.657.062.8a4.246 4.246 0 0 0-.016.28c-.018.871-.062 1.658-.1 2.406-.126 2.36-.242 4.59.341 7.664.008.046.02.092.03.14a97.767 97.767 0 0 0 1.241 9.98l.013.243c.01.132.025.262.049.394 1.196 6.49 2.793 14.09 5.576 21.325.417 1.578 1.956 7.32 2.86 9.255a3.548 3.548 0 0 0 1.196 1.412c1.416 5.3 3.555 9.535 6.505 12.895a3.536 3.536 0 0 0 2.662 1.202h.135a40.696 40.696 0 0 0 4.136 4.298c.028.027.076.066.106.094 1.543 1.3 3.138 2.641 4.965 3.755a3.527 3.527 0 0 0 2.528.448c17.794 16.013 41.014 25.038 65.077 25.038 7.264 0 14.568-.83 21.72-2.47a204.59 204.59 0 0 0 8.224 2.616c8.665 2.546 18.051 3.836 27.897 3.836 8.347 0 13.878-.956 14.108-.996a3.545 3.545 0 0 0 2.845-2.713 3.548 3.548 0 0 0-1.412-3.67Z" fill="#FEFFFF"/><path d="M138.041 107.248c-.596-4.115-.733-6.742-.53-11.57.38-5.204.66-10.804-.478-15.912-.572-3.793-3.205-7.404-3.205-7.404-1.85-3.405-5.369-6.231-7.979-9.256.081-.033.332-.314.497-.099l1.847 1.522s1.926.96 4.214 3.536l2.017 2.448s1.642 1.891 3.216 4.256c.13 1.519.293 1.98 1.633 2.906 1.688.924 3.773 2.098 5.658 1.091 2.012-1.818 4-3.486 6.642-2.86.297.102.31.579.166.843-1.19 1.702-3.618.778-5.04 2.1-3.98 2.803-4.118 2.51-5.23 2.342-.399-.09-1.938-1.244-2.34-.332 1.358 4.826.728 10.412 0 15.321-.937 5.234.315 12.643 1.521 18.512 0 0 .069 1.77.33 2.53-1.283-2.684-2.137-4.867-2.939-9.974Zm-26.867-4.728c.48-2.45.67-3.156 1.508-5.508-1.952 2.509-3.6 4.117-4.774 4.022a48.328 48.328 0 0 1 1.786-6.566c-2.271 2.675-4.548 4.362-6.987 4.165 2.366-12.046 9.209-23.087 18.793-30.715h2.263c.49.515.98 1.015 1.467 1.509.536.543 1.057 1.078 1.558 1.606.891.942 1.695 1.865 2.312 2.774.192.28.37.561.523.841.1.186.214.364.339.535.42.585 1.413 2.207 1.981 3.899-12.617 10.866-12.392 26.927-20.769 23.438Zm.287-37.067v-.164c1.85-1.091 3.882-1.702 5.716-2.86l-.083-.082c-1.82.467-5.34 1.587-7.274 2.353-.375.257-.916.544-1.672.867-.245-.149.162-1.392.916-2.417.446-.608.955-.916.007-.82-3.861.389-1.227-1.392-1.227-1.392s1.476-4.099-.862-3.404c-1.658.492-6.292 4.185-8.969 4.34 1.423-3.008 9.318-9.526 12.258-10.979-1.196.563-7.68 3.464-7.713 1.002.796-.387 10.915-6.535 12.504-6.799.758-.125 1.534-.201 2.303-.16.236.014 2.992.774 3.114.932-.408-.528-1.973-1.602-1.82-1.827.665-.972 6.462.862 9.527 3.247.442.345.42 1.073.433 1.64.01.455-.16 1.51-.598 1.78-.502.312-.844.581-.815 1.274.352.047 1.485.528 1.75.359-1.263.807-3.279 1.313-3.7 3.03-.217-.637-.411-1.225-.843-1.756-1.01-1.242-2.33-1.935-3.37-2.944.068-.327-6.23 2.48-8.656 5.306-1.057 1.521-2.197 3.109-2.364 4.877.868 1.36 1.198 1.78 1.181 2.031 2.39-2.25 5.513-3.978 4.634-2.739l.082.084c2-1.355 4.379-1.801 6.641-2.512.743-.397 3.346-1.043 4.544.413 0 0-1.344.47-1.508.553-.503.142-1.302-.249-1.484.39-.105.377.062.97.344 1.24.344.332.94.178 1.252.552.14.17.136.299.207.425.035.062.09.124.19.19.38.252.865.258 1.245.52-.098.146-.478.098-.657 0-4.86.51-9.452 1.65-13.3 4.542-3.757 2.163-6.242 5.792-8.331 9.344-1.326 1.404-2.167 3.08-3.261 4.55 1.722-5.415 5.083-9.722 9.23-13.811.51-.331 1.168-.835.429-1.175Zm33.44 3.29c.37-.295.783-.533 1.16-.821.403-.31.913-.626 1.446-.529.434.08.426.897.623 1.209.26.406.704.65 1.048.974.482.441 1.93 1.145 1.705 1.925a.46.46 0 0 1-.53.317c-.489-.08-.916-.443-1.36-.64-.788-.352-1.58-.708-2.378-1.036-.168-.067-2.381-.827-2.395-.63.023-.344.441-.579.68-.769Zm-54.718 39.47c-1.14 1.009-3.188.63-4.378 0-1.585-.94-2.893-2.545-4.707-2.86l-.514-.33c1.472.183 2.908.513 4.132 1.34.892.364 1.67.972 2.594 1.256.774.232 1.567-.019 2.195-.413.53-.464.794-1.143.678-1.77-.363-.447-.761-.71-1.354-.596-.695.414-.941 1.125-1.421 1.689.165-1.49.86-2.927 2.014-3.87 1.34.678 1.852 2.15 1.852 3.62-.118.762-.348 1.54-1.09 1.933Zm70.638 26.594c.442-.824.82-1.76.642-2.786-.015-.085-.027-.168-.048-.252-.705-1.542-1.447-3.055-2.413-4.493a.095.095 0 0 1-.014-.02c-.02-.028-.042-.057-.06-.087-.121-.175-.245-.352-.372-.525-1.072-1.655-1.255-4.198-.181-5.901.346-.496.678-.993.759-1.587-.463-1.571-1.605-1.897-3.057-2.312-4.113-.297-7.904-1.09-11.459-2.776.298 1.218.777 2.53 1.362 3.89.378.877.8 1.771 1.248 2.673 1.907 3.836 4.286 7.796 5.679 10.896l-2.18-2.59a48.712 48.712 0 0 1-3.339-4.62 40.466 40.466 0 0 1-4.167-8.673 41.557 41.557 0 0 1-.737-2.39 16.634 16.634 0 0 1-.435-1.463c-1.184-4.662-.91-10.848-.822-15.708l.166-.25s6.455-5.597 13.876-6.907c.15-.86.381-1.67.76-2.43.117-.33.107-.62.014-.886-.277-.793-1.302-1.356-1.939-2.091-.542-.62-1.352-.994-1.792-3.353.19-.4 1.2-1.882 1.927-2.817 1.503-2.494 3.76-2.183 4.72-4.928.094-.266.131-.535.128-.801-.017-1.045-.698-2.03-1.097-2.513a.17.17 0 0 1-.018-.023l-.006-.01-.087-.097v-.002c-3.05-2.697-5.375-4.936-7.754-6.945-5.555 2.807-7.625 7.094-7.993 8.413 0 0-2.67.14-3.442 1.27a4.626 4.626 0 0 0-.29.484 48.768 48.768 0 0 0-2.362-3.016l-.313-.38-1.753-2.127c-.186-.208-.366-.396-.545-.586a21.033 21.033 0 0 0-2.736-2.438c1.716-2.174 3.658-4.212 6.042-5.745.488-.103.926-.339 1.36-.58.367-.26.33-.245.89-.468.517-.206 1.423-.55 2.164-.862.152.078.295.156.44.234-.164-.088-.32-.174-.49-.262-2.052-1.159-6.13-1.848-7.323-2.46a1.047 1.047 0 0 1-.46-.468c-.486-1.012.68-2.854.68-3.914.27-1.112.058-2.117-.384-3.028a8.082 8.082 0 0 0-.725-1.187c-6.078-6.331-12.819-11.357-20.27-14.561l-.332-.332h.002c1.915-2.23 2.791-4.908 3.45-7.668v.002c-.791 1.305-1.011 2.129-2.296 3.218l-.083-.081v-.001c.463-4.628-.279-8.097-2.08-11.88.396 2.924.696 6.329.085 9.255-.317.91-.365 1.9-.926 2.693v-.003c.262-4.48-.74-7.86-1.79-10.275-.589-1.353-1.193-2.403-1.599-3.169-1.128-2.138-3.853-3.721-5.86-4.983l-.002-.002c1.067.878 1.844 2.312 2.437 3.845.872 2.239 1.357 4.684 1.797 5.917.061.174.122.327.183.448.859.825 1.986 1.06 2.723 2.314.442.752.742 1.874.756 3.711-.235-.144-.359-.388-.483-.643-.018-.038-.035-.075-.055-.112a2.083 2.083 0 0 0-.307-.501c-.1-.347-.442-.62-.603-.948a.853.853 0 0 1-.056-.143c-1.733-1.984-3.733-4-5.812-5.47.855.99 1.616 2.379 2.691 3.452 1.51 2.244 2.39 4.28 3.246 6.52.36.946.717 1.926 1.112 2.975-.015.108.028.205.083.296l.076.116c.106.158.197.313.022.515-.15.05-.214-.117-.347-.098-2.61-5.105-6.384-9.477-11.503-11.924-.003 0-.005-.003-.008-.003 4.474 3.024 5.953 7.197 8.397 11.742l.002.001a.524.524 0 0 0-.13.13c-.046-.054-.09-.11-.134-.167.049.132.059.209.012.213-.817.033-1.05-.023-.99.114.01.02.024.043.044.07v.001c-2.462.018-4.172.452-6.81.815-.073.01-.142.018-.211.03l-.014.01-.183.015c-1.796.234-2.349.222-3.924.72v-.003a9.154 9.154 0 0 0-.41.168c-.201.114-.402.2-.6.256-.45.192-.874.372-.831.349-.576.102-1.992.874-2.388.992-1.356.404-1.568.47-2.793 1.25-1.03.657-1.219.803-2.003 1.46l.013.015.001.001c-.013 0-.024.003-.037.005-.08.065-.159.13-.254.21-1.096.915-.688.89-1.919 1.617h-.001c.01.005.02.01.03.017h.001l-.181.072a356.507 356.507 0 0 0-4.46 2.646c.007.019.021.036.016.061-.557.45-1.121.894-1.688 1.335a5.602 5.602 0 0 1-.762.649l-.555.384c-.518.41-1.036.822-1.549 1.244 0 0 0 .002-.002.002-.614.756-1.338 1.288-1.869 2.13-.177.278-.413.505-.591.777-.312.485-.515.75-.743 1.278l-.107.256c-.068.527-.234 1.07-.395 1.608-.05.199-.105.407-.13.636-.12.926-.187 1.78-.21 2.584.029.012.06.032.09.075-.018.167.07.38-.083.513.045.16 0 .466 0 .742.097 2.275.627 4.142 1.536 6.02l.063.12c.002.002.002.006.004.007l.083.086-.022.045c.265.526.555 1.054.877 1.595.148.25.315.499.48.748.036.05.07.106.104.163l.042.065c.178.259.363.516.553.77.002 0 .002.002.003.003.1.133.207.263.312.396.093.119.185.24.281.358.406.493.832.967 1.264 1.41v.002a.69.69 0 0 0-.161.186l.273 1.061c-.625 1.964-1.584 4.047-1.174 6.141l.001.003c.284-1.368 1.15-3.343 1.876-4.514l.001-.003c.067.561-1.225 6.916-3.709 15.119l-.001.002c1.27-.256 3.44-5.056 3.969-5.958l.003-.005s-3.036 9.638-3.77 12.482v.003c4.552-3.912 4.695-13.147 5.095-16.462.298.86.303 10.257.816 10.957.513-2.298 2.19-9.733.508-15.697.431.196 2.803 2.153 2.803 2.153.097.074.185.164.268.261l.029.03.015.015a7.57 7.57 0 0 1 .363.378c.98 1.072 2.613 3.291 4.367 7.516h.002a.328.328 0 0 1 .012-.036c.918 1.311 2.223 2.566 2.846 4.085.058.084 1.103 1.563 1.26 1.653.02.011.04.03.06.052l.003.003c.065.075.131.201.19.326l.021.031c-.001.004-.001.007-.003.01.072.16.123.303.125.305 0 0 .193.253.42.576.29.415.632.946.68 1.206.124.245-.17.465-.05.762-.944 2.843-1.24 5.967-1.686 9.01-.012-.013-.025-.025-.039-.037a6.795 6.795 0 0 0-.381-.378c-1.003-.91-2.174-1.411-3.446-1.685a1.248 1.248 0 0 1-.517-.387c-.354-.454-.368-1.091-.738-1.548v.001c-4.724 9.446-6.803 3.36-10.782 14.287 2.004 1.807 2.557 1.117 6.818 1.86 1.134.164 2.194.714 3.183 1.399 1.043.72 2.01 1.584 2.908 2.298a8.911 8.911 0 0 0 1.668.476c2.876.51 5.128-.773 7.554-2.323-.119 1.762-1.491 3.479-1.491 3.479.345 1.686 2.057 5.747 2.916 7.218.735 1.744 1.952 3.411 3.42 4.906a25.065 25.065 0 0 0 4.92 3.852c3.484 1.933 7.497 2.628 11.695 2.86l.082-.084c1.65.267 3.7.149 5.468.414l10.093 1.107c6.462 1.041 12.87 2.48 19.859 2.018.567-.035.38.006.9-.075l.6-.09c.083 0 .217-.033.252.08-.851.648-5.463 1.385-7.14 1.77-1.53.352-2.968.685-4.907.961-1.629.232-15.67 2.747-16.21 3.068-.781.462-1.42 1.215-1.97 1.926-.319.41-.599.85-.891 1.278-.773 1.123-1.328 2.39-2.602 3.05-2.115 1.094-4.338.529-6.294-.616-.205-.118-.53-.386-.96-.775l-.02-.02c-.137-.123-.282-.26-.44-.407-4.604-4.382-17.34-18.788-19.93-23.316-.618-1.088-1.348-2.097-1.598-2.528a3.51 3.51 0 0 0-1.016-1.107l-.007-.003c-.683-.477-1.516-.683-2.302-.457-.966.277-4.554-.49-6.583-2.754a5.56 5.56 0 0 1-1.104-1.812.546.546 0 0 0-.19-.236c-.635-.49-2.485-.545-2.67-.596-.148.564-.471 1.076-.748 1.584-.692 1.278-2.07 4.034-2.76 5.314-.766 1.42-1.95 2.405-2.815 3.758-.425.663-.716 1.177-.791 1.744a34.37 34.37 0 0 0-4.178-.119c-.816.026-1.627.097-2.436.181-.289-.001-.577.004-.865.012l-.801-3.696h-.002a18.48 18.48 0 0 0-1.218.007 15.61 15.61 0 0 0-5.073 1.056h-.002c-.65-.617-1.522-1.426-2.605-2.386a17.35 17.35 0 0 1-1.163 1.85 108.508 108.508 0 0 1 3.35 2.82 15.533 15.533 0 0 1 5.03-1.25c.4-.033.805-.052 1.223-.057l.955 3.738a45.46 45.46 0 0 1 3.27-.398c5.684-.462 12.269 1.63 16.821 4.25 0 0 8.585 4.769 13.804 9.042.803.687 1.075.73 1.719 1.477 0 0-6.69 2.953-17.858 2.846 8.488 2.814 20.96.294 20.96.294 4.625 2.664 6.194 3.899 10.68 6.71l5.46 3.436c-1.952-.182-4.735 2.349-10.165 4.332 2.001.264 5.473.457 8.473.17l3.505-.623.525-.094c-.03-1.654.142-3.266.927-4.789.215-.413.463-.812.716-1.208-.018-.029-.043-.054-.066-.08-.867.474-1.453 1.322-2.103 2.075v-1.477l-.065-.037-.098-.061c.182-.3.368-.579.533-.805.821-1.137 1.868-2.087 2.937-2.987 1.097-.92 2.187-1.917 3.326-2.781 8.012-6.08 17.875-7.77 27.504-9.932 2.662-.545 4.923-2.067 6.99-4.035Z" fill="#FEFFFF"/><path d="m145.532 58.563-.085-.056a41.633 41.633 0 0 0-.47-.304c-.114-.075-.233-.148-.35-.223a51.686 51.686 0 0 0-.738-.454l-.398-.237-.487-.283c-.01-.004-.018-.01-.027-.015.284.161.543.323.813.486.603.359 1.186.72 1.742 1.086M147.887 60.232h.001a56.529 56.529 0 0 0-.839-.62l-.053-.04a43.885 43.885 0 0 0-.857-.602c.34.232.658.471.985.708.251.185.515.365.763.554M140.302 59.736c.285-.208.568-.415.855-.612l-.279.182c-.196.14-.383.29-.576.43M148.21 113.92c.59.08 1.304.489 1.823.158.423.564 1.259.535 1.892.669.783.008 1.855.384 2.188-.576-.138-.122-.203-.433-.375-.506-.88-.364-2.126-.432-3.22-.702-.142-.033-.398.12-.59.219-.041-.054-.076-.107-.119-.159a.8.8 0 0 0-.149-.138c-.865-.605-1.937-.964-2.945-.908-.116.009-.238.099-.357.165a1.715 1.715 0 0 0-.014-.066c-.002-.006-.003-.014-.007-.021-.3-.891-1.04-1.163-2.18-.87a2.568 2.568 0 0 1-.608.094c.083.154.193.296.316.43.685.738 1.9 1.165 2.779 1.55-.002 0 0-.002-.004-.004.392.313.982.446 1.57.666M146.61 98.136c1.035.821 2.748-.786 2.938-1.41.825.16 1.853 0 2.39-.634.505-.7.348-1.605.107-2.318a7.614 7.614 0 0 0-.215-.554c-.286-.303-.413-.85-1.004-.637-.723.492-1.794.543-2.273 1.582-2.054.061-2.6 1.346-3.391 2.281-1.313-.16-1.908 1.2-2.66 1.975.357.37 1.465 2.467 4.109-.285M62.404 151.742s-2.319-3.197-2.535-4.163c0 0-1.483 3.49-2.144 6.47-1.682-2.524-1.817-8.727-2.183-11.44 0 0-2.676 4.41-3.449 5.75-.43-3.656-.944-6.436-.514-11.163-1.924.794-2.762 1.8-4.033 2.877V139.99c0-.022 0-.05-.002-.083v-.007c-.026-.907-.29-5.254-2.874-9.549-.659.263-1.333.489-2.026.67 2.8 4.343 2.833 8.956 2.832 9.016l.264 4.75v.001s3.583-3.022 3.636-3.105v-.001c.06 2.01.684 6.947.684 6.947s1.148 5.78 1.152 5.82v.001l3.015-4.824c.35 2.16.85 4.239 1.794 5.67l2.497 4.05.002.002s.85-3.395 2.093-6.472c.056.052 6.684 8.41 18.345 16.449a183.93 183.93 0 0 0 15.118 9.43 81.65 81.65 0 0 0 5.144.247c-6.482-3.383-12.79-7.188-19.2-11.537-6.554-4.569-12.45-9.584-17.616-15.722" fill="#FEFFFF"/><path d="M151.975 184.84c1.237-.623 2.484-1.814 6.04-1.887 0 0-3.77-1.916-5.265-4.05-2.898.766-8.728 4.17-11.568 4.05 2.37-1.134 2.305-1.317 4.815-2.662l2.674-1.993 1.345-.825a113.617 113.617 0 0 1-3.934-1.83 82.473 82.473 0 0 1-5.554-2.97v-.001a69.414 69.414 0 0 1-3.612-2.273c-4.265-2.868-7.524-5.704-12.541-9.165a119.62 119.62 0 0 0-1.831-1.236s-.393.553-1.32.754a3.581 3.581 0 0 1-.371.059l-.633.113-.525.094-3.505.623c-3 .287-6.472.094-8.473-.17 5.43-1.983 8.213-4.514 10.166-4.332l-5.46-3.435c-4.487-2.812-6.056-4.047-10.68-6.711 0 0-12.473 2.52-20.961-.294 11.169.107 17.858-2.846 17.858-2.846-.644-.747-.916-.79-1.72-1.477-5.218-4.273-13.803-9.043-13.803-9.043-4.552-2.62-11.137-4.711-16.822-4.25a45.46 45.46 0 0 0-3.27.399l-.954-3.738c-.418.005-.823.024-1.222.057a15.533 15.533 0 0 0-5.031 1.25 112.04 112.04 0 0 0-3.353-2.815c-.007-.005-.012-.008-.018-.015-.38.532-.79 1.037-1.226 1.52 1.776 1.612 2.718 2.581 2.718 2.581.365.363.701.743 1.073 1.1 2.209-1.425 4.346-2.171 7.084-2.096-2.212 1.064-3.283 2.12-4.457 4.147l.215.477c7.278-1.237 13.963-2.473 20.943 1.961 5.744 3.186 8.987 5.39 13.83 9.438-13.61 2.941-21.243 1.342-21.243 1.342s8.415 3.898 14.49 4.998c7.195 1.325 14.772-.556 14.772-.556 3.582 2.335 8.296 5.092 11.81 7.513l-1.764 1.032c-5.012 2.387-12.774 4.77-17.712 3.46.418.39 5.605 1.666 6.187 1.734l1.334.159.72.08.629.072c.335.037.673.072 1.01.106l.352.037c.384.04.77.077 1.156.112.077.009.152.014.227.023.412.036.827.073 1.243.106.05.003.103.009.155.013.432.036.865.067 1.3.098l.105.008c.446.03.893.057 1.34.08l.072.007a87.892 87.892 0 0 0 2.803.106h.021c.468.01.935.016 1.4.016h.006c.468 0 .932-.004 1.396-.014h.002c2.644-.053 5.212-.276 7.56-.761 2.032 1.478 3.255 2.362 5.332 3.72.343.222.673.444.997.664.097.065.192.13.29.193.232.16.462.317.687.474.09.063.183.125.273.186.294.207.584.41.866.61.002 0 .005.004.008.005l.843.605.234.17a71.44 71.44 0 0 1 .806.59c.53.39 1.036.769 1.517 1.13l.052.04c.288.215.566.425.839.63l.213.16c.17.126.336.254.5.375a254.78 254.78 0 0 1 .687.509l.372.273c.075.053.15.11.225.163a40.43 40.43 0 0 0 .572.405l.002.003c.207.143.41.283.61.418.016.01.03.018.045.03.187.124.372.246.555.36.06.04.12.074.18.112.137.085.275.171.41.252.197.116.391.226.586.334l4.298 2.182c-5.077 1.544-20.983-1.279-44.385-12.046l-.456.114c30.156 18.324 55.696 25.511 55.696 25.511l-.183.292s-21.723-4.325-48.289-18.433c-17.405-9.205-33.527-20.34-47.09-34.014 0 0-.995.907-1.235 2.046 0 0-.691-2.133-.858-4.01 0 0-1.437.261-2.692 1.817 0 0-.376-2.646-.06-5.046 0 0-2.643-2.783-5.768-5.835a169.16 169.16 0 0 0-3.623-3.438c-.95.653-1.98 1.183-3.073 1.598a14.413 14.413 0 0 1-5.164.96c-3.66.002-7-1.358-9.56-3.591 2.671 3.066 6.594 5.016 10.981 5.013 1.629 0 3.19-.277 4.65-.772a17.984 17.984 0 0 1 1.782 2.471c2.583 4.295 2.848 8.642 2.874 9.55v.006c.002.033.002.061.002.083V140.074c1.271-1.078 2.109-2.084 4.033-2.878-.43 4.727.083 7.507.514 11.163.773-1.34 3.449-5.75 3.449-5.75.366 2.713.5 8.916 2.183 11.44.661-2.98 2.144-6.47 2.144-6.47.216.966 2.535 4.163 2.535 4.163 5.165 6.138 11.062 11.153 17.615 15.722 6.411 4.35 12.72 8.154 19.2 11.537a170.932 170.932 0 0 0 16.839 7.64c2.107.822 4.252 1.61 6.443 2.371a199.98 199.98 0 0 0 9.015 2.888c20.977 6.162 40.394 2.75 40.394 2.75s-7.26-5.134-11.393-9.142c-2.191.163-6.418-.02-8.542-.669" fill="#76253A"/><path d="M118.786 18.623c.069.266.117.562.138.895l.008.073v.01l.327-.027c.029.09.05.182.072.273.055.219.105.44.142.661.04.683.027 1.799-.04 2.746.003 0 .004.005.006.015.012.066-.026.366-.054.366-.079.699-.343 1.9-.507 2.722.023 0-.013.375-.068.57l-1.05 2.673s9.14 5.83 11.798 7.96c2.722 2.176 6.934 6.582 8.19 8.567.12.189.22.365.305.533.594 1.172.395 1.888.112 2.909-.071.26-.148.528-.214.831-.117.512-.07.873.093 1.145.359.6 1.28.773 2.238 1.208.254.115.515.234.781.361 1.763.86 8.295 4.684 10.533 6.548 2.062 1.725 6.354 5.569 8.847 8.38.7.788 1.257 1.495 1.583 2.05 1.008 1.707.85 4.188-.466 5.349-.55.483-3.355 2.97-4.376 4.234-.3.373-.415.789-.406 1.217.02 1.287 1.146 2.676 1.647 3.295.758.935 1.383 2.347 1.434 2.588-.008.128-.147.685-.27 1.177-.17.687-.383 1.537-.506 2.207-.197 1.07-.75 1.247-1.34 1.346-.592.1-3.046 1.183-3.322 1.305l-.279.125.14.272c.002 0 .007.019.017.05.075.255.386 1.484.185 2.918-.206 1.494-5.095 3.396-5.095 3.396-.209.559-2.639 1.485-3.585 1.702-.985.223-1.806-.01-1.806-.01-.271.233-.067.844-.112 3.717-.022 1.298-.093 2.082 0 2.659.006.043.017.082.026.123.008.036.013.075.023.11.16.597.57.977 1.534 1.596l4.144 1.036c.143-.01.825.467 1.49.719.015.007.03.014.047.019.014.006.031.01.048.016.039.013.08.03.12.04l.009.003c.163.05.322.08.466.08.074 0 .163.004.256.01.758.052 2.099.3 2.875.701.174.09.324.19.428.295.138.242.243.54.346.843l.097.282c.005.014.008.026.014.04.046.133.094.263.146.385.018.043.039.085.058.128 0 .003.005.01.006.016.114.234.245.427.42.542.111.071.27.095.548.126l.114.01c.037.004.076.011.114.016.937.134 2.737.836 4.851 2.271.516.349.852.734 1.05 1.145.016.033.026.067.04.1.03.07.06.14.085.213.366 1.164-.227 2.493-.94 3.718-.113.193-.197.332-.242.442l-.065.141c-.364.79-1.12 2.429 1.291 5.679 2.602 3.508 2.458 3.87 1.504 6.252l-.158.39c-1.184 2.994-3.895 4.054-4.528 4.46-1.432.92-15.592 4.293-20.788 6.31-5.772 2.246-9.973 4.507-11.832 6.368a.02.02 0 0 1-.007.004c-1.755 1.767-2.474 5.726-3.104 8.932l.003.034c5.017 3.461 8.276 6.297 12.541 9.165l.003-.006a81.63 81.63 0 0 0 23.063-17.31c13.505-14.517 21.793-33.957 21.793-55.305 0-38.533-26.958-70.86-62.989-79.155M121.223 160.752c.928-.2 1.32-.752 1.32-.752v-.002s-.392.553-1.32.754" fill="#76253A"/><path d="M142.97 56.988c-.099-.057-.204-.114-.306-.171-.182-.103-.36-.204-.547-.306a.148.148 0 0 0-.018-.01l-.511-.272c-.146-.078-.29-.156-.44-.234-.742.313-1.648.656-2.165.862-.56.223-.523.208-.89.469-.434.24-.872.476-1.36.579-2.384 1.533-4.326 3.57-6.042 5.745a21.033 21.033 0 0 1 2.736 2.438c.126-.144.247-.292.372-.438.182-.201.354-.403.537-.602.324-.351.658-.693.988-1.033.193-.194.386-.393.58-.584.33-.322.667-.63 1.009-.94.216-.199.438-.4.66-.597.32-.28.657-.55.987-.82.256-.206.508-.414.764-.613.322-.247.648-.49.978-.725.193-.14.38-.29.576-.43.09-.06.185-.12.28-.182a39.94 39.94 0 0 1 2.632-1.647c-.27-.163-.53-.325-.813-.486-.002-.001-.005-.001-.007-.003M135.725 68.8l.313.381c.028.03 1.103 1.278 2.362 3.016.089-.167.183-.33.29-.484.771-1.13 3.442-1.27 3.442-1.27.368-1.32 2.438-5.606 7.993-8.413v-.001a59.883 59.883 0 0 0-2.056-1.66l-.033-.025c-.041-.032-.081-.065-.124-.096-.004-.005-.013-.008-.019-.012l-.005-.004h-.001c-.248-.19-.512-.37-.763-.554a36.228 36.228 0 0 0-11.399 9.122M126.788 71.033a112.142 112.142 0 0 0-1.558-1.606c-.486-.494-.976-.994-1.467-1.509H121.5c-9.584 7.628-16.427 18.67-18.793 30.715 2.439.197 4.716-1.49 6.987-4.165 3.236-9.263 9.259-17.529 17.094-23.435M131.943 79.082c-.568-1.692-1.561-3.314-1.981-3.899a4.746 4.746 0 0 1-.34-.535c-.152-.28-.33-.56-.522-.841-7.448 6.041-13.197 14.167-16.418 23.205-.837 2.352-1.028 3.058-1.508 5.508 8.377 3.489 8.152-12.572 20.77-23.438M52.175 112.798l-7.063-7.07-2.428 2.426c-.002.002.828.027.828.027.188.004.696.1.946.354.345.35 4.609 4.608 5.643 5.638-.271.295-.75.817-1.2 1.28A30.017 30.017 0 0 1 47.4 116.9l-5.566-5.568c-.798-.795-2.1-.018-2.156.015-.001.002-3.642 2.294-4.016 2.527-.001-.001-.18.107-.18.107l-1.284-1.284 2.96-2.96s.401-.403.843-.441c0 0 .142-1.488.805-2.617l.356-.619h-.003l-.658.391c-1.123.647-2.473.823-2.486.825-.036.4-.511.798-.511.798-.003.002-5.759 5.76-6.708 6.712l-1.679-1.68c.398-.449.94-1.059 1.717-1.769 1.082-.993 1.477-1.221 1.69-1.341.834-.474 1.61-.557 1.61-.557l-2.14-2.132-.12.091c-.024.018-2.005 1.561-3.133 2.69-1.42 1.421-3.125 3.732-3.142 3.755l-.267.358.822-.157c.411-.054.808.277.808.277l2.155 2.154-.48.477c-.416.42-.91.705-.96.732l-.32.172 1.277.436.315.316.41 1.356.203-.386c.005-.005.291-.53.73-.97l.476-.479 1.938 1.938.283.285s.529.51.433 1.12c-.097.606-.177.981-.177.981l.032-.016 3.52-3.523s-.45.073-1.032.177c-.58.104-1.161-.497-1.161-.497l-.273-.274-1.874-1.878 2.044-2.046 1.782 1.787.005.004h.004c.006.007.964.873 2.183.121l4.213-2.64 1.31 1.31c-.32.446-1.283 1.468-1.687 1.835v.004l-.003.003c-1.962 1.964-3.435 1.89-3.435 1.89.005 0 2.23 2.224 2.23 2.224s1.796-1.324 2.88-2.403a34.516 34.516 0 0 0 1.705-1.85l3.487 3.476.307-.253c-.005 0 .009-.01.009-.01.3-.23 1.863-1.456 3.134-2.728 1.135-1.136 2.757-3.28 2.757-3.28-.003 0 .633-.81.633-.81l-.8.093c-.011-.002-.566.104-1.04-.372M39.658 100.916c3.66 0 7 1.359 9.559 3.59-2.67-3.065-6.595-5.014-10.98-5.013a14.499 14.499 0 0 0-9.63 3.655l1.422 1.42a14.489 14.489 0 0 1 9.629-3.652" fill="#76253A"/><path d="M100.574 182.661c-22.024 0-42.086-8.397-57.165-22.163.016.376.066.74.188 1.073.473 1.297 1.061 2.212 1.176 3.675.06.761 0 1.556 0 2.322a4.7 4.7 0 0 1-.09.976c15.362 12.162 34.778 19.426 55.89 19.427 5.28 0 10.455-.46 15.485-1.33a172.242 172.242 0 0 1-9.792-4.174 85.895 85.895 0 0 1-5.692.194M107.984 7.894l1.24 1.29c.686.716 1.769 2.274 2.67 3.793.144.247.286.491.419.731l.002.001c41.296 5.722 73.095 41.177 73.095 84.069 0 32.425-18.173 60.6-44.882 74.895a82.473 82.473 0 0 0 5.554 2.97c26.702-15.655 44.636-44.663 44.636-77.865 0-47.311-36.414-86.112-82.734-89.884" fill="#CDB476"/><path d="M109.223 11.743v-.002c-.05-.278-.107-.573-.168-.86a8.244 8.244 0 0 0-.306-1.125 1.622 1.622 0 0 0-.079-.186l-.798-1.686a95.554 95.554 0 0 0-3.238-.2h-.001c.733.494 1.5 1.058 2.192 1.665 1.112.97 1.889 1.79 2.398 2.394M135.725 68.8a36.228 36.228 0 0 1 11.399-9.122c-.327-.237-.645-.476-.985-.708-.002-.003-.006-.004-.007-.004 0 0 0-.002-.002-.002l-.008-.007a28.882 28.882 0 0 0-.59-.394 46.22 46.22 0 0 0-1.742-1.086 39.94 39.94 0 0 0-2.633 1.647c-.287.197-.57.404-.855.612-.33.235-.656.478-.978.725-.256.199-.508.407-.764.613-.33.27-.667.54-.986.82-.223.197-.445.398-.661.598-.342.308-.678.617-1.009.94-.194.19-.387.39-.58.583-.33.34-.664.682-.988 1.033-.183.199-.355.4-.537.602-.125.146-.246.294-.372.438.18.19.36.378.545.586l1.753 2.126M112.682 97.012c3.22-9.038 8.97-17.164 16.418-23.205-.617-.909-1.42-1.832-2.312-2.774-7.835 5.906-13.858 14.172-17.094 23.435a48.328 48.328 0 0 0-1.786 6.566c1.174.095 2.822-1.513 4.774-4.022M47.49 119.894s-.014.01-.009.01l-.307.254-3.487-3.476a34.516 34.516 0 0 1-1.706 1.85c-1.083 1.079-2.88 2.403-2.88 2.403s-2.224-2.225-2.229-2.225c0 0 1.473.075 3.435-1.89l.003-.002v-.004c.404-.367 1.366-1.389 1.688-1.834l-1.311-1.31-4.213 2.64a1.831 1.831 0 0 1-2.183-.122h-.004l-.005-.004-1.782-1.787-2.044 2.046 1.874 1.878.273.274s.582.601 1.161.497c.583-.104 1.031-.177 1.031-.177l-3.52 3.523-.03.016s.079-.375.176-.982c.096-.61-.433-1.12-.433-1.12l-.283-.284-1.938-1.938-.476.479c-.439.44-.725.965-.73.97l-.203.386-.41-1.356-.315-.316-1.277-.436.32-.172c.05-.027.544-.312.96-.732l.48-.477-2.155-2.154s-.397-.33-.808-.277l-.822.157.267-.358c.017-.023 1.723-2.334 3.142-3.755 1.128-1.129 3.11-2.672 3.133-2.69l.12-.09 2.14 2.131s-.776.083-1.61.557c-.213.12-.608.348-1.69 1.341-.777.71-1.319 1.32-1.717 1.768l1.68 1.68c.948-.951 6.704-6.709 6.707-6.71 0 0 .475-.4.511-.799.013-.002 1.363-.178 2.486-.825l.658-.39h.003l-.356.618c-.663 1.13-.805 2.617-.805 2.617-.442.038-.843.442-.843.442l-2.96 2.959 1.284 1.284s.179-.108.18-.107c.374-.233 4.015-2.525 4.016-2.527.055-.033 1.358-.81 2.156-.015l5.566 5.568c.363-.327.812-.74 1.503-1.448.448-.463.928-.985 1.199-1.28-1.034-1.03-5.298-5.288-5.643-5.638-.25-.255-.758-.35-.946-.354 0 0-.83-.025-.828-.027l2.428-2.425 7.063 7.069c.473.476 1.028.37 1.04.372l.8-.093s-.637.81-.634.81c0 0-1.622 2.144-2.757 3.28-1.271 1.272-2.835 2.497-3.134 2.727Zm-9.254-20.4c4.386-.002 8.31 1.947 10.981 5.012a14.496 14.496 0 0 0-9.56-3.59 14.489 14.489 0 0 0-9.628 3.652l-1.422-1.42a14.499 14.499 0 0 1 9.63-3.655Zm61.376 66.173c23.402 10.767 39.308 13.59 44.385 12.046l-4.298-2.182c-.195-.108-.39-.218-.586-.334-.135-.08-.273-.167-.41-.252-.06-.038-.12-.071-.18-.112a28.744 28.744 0 0 1-.555-.36c-.015-.012-.03-.02-.044-.03a64.899 64.899 0 0 1-.61-.418l-.003-.003a40.43 40.43 0 0 1-.572-.406c-.075-.052-.15-.11-.225-.162l-.372-.273a254.78 254.78 0 0 0-.687-.51c-.164-.12-.33-.248-.5-.374l-.213-.16c-.273-.205-.551-.415-.84-.63l-.051-.04a186.738 186.738 0 0 0-2.323-1.72l-.234-.17c-.275-.198-.555-.4-.843-.605-.003-.001-.006-.005-.008-.005-.282-.2-.572-.403-.866-.61l-.273-.186c-.225-.157-.455-.313-.688-.474-.097-.063-.192-.128-.289-.193-.324-.22-.654-.442-.997-.664-2.077-1.358-3.3-2.242-5.332-3.72-2.348.485-4.916.708-7.56.76h-.002c-.464.01-.928.015-1.396.015h-.007c-.464 0-.93-.006-1.399-.016h-.021a73.91 73.91 0 0 1-1.39-.042h-.041a87.892 87.892 0 0 1-1.372-.064l-.071-.006c-.448-.024-.895-.05-1.341-.081l-.104-.008c-.436-.03-.87-.062-1.301-.098-.052-.004-.105-.01-.155-.013-.416-.033-.83-.07-1.243-.106-.075-.01-.15-.014-.227-.023a89.122 89.122 0 0 1-1.156-.112l-.351-.037c-.338-.034-.676-.069-1.011-.106l-.628-.072-.721-.08-1.334-.159c-.582-.068-5.77-1.344-6.187-1.734 4.938 1.31 12.7-1.073 17.712-3.46l1.763-1.032c-3.513-2.421-8.227-5.178-11.81-7.513 0 0-7.576 1.881-14.771.556-6.075-1.1-14.49-4.998-14.49-4.998s7.632 1.6 21.243-1.342c-4.843-4.047-8.086-6.252-13.83-9.438-6.98-4.434-13.665-3.198-20.943-1.961l-.215-.477c1.174-2.026 2.245-3.083 4.457-4.147-2.738-.075-4.875.671-7.084 2.097-.372-.358-.708-.738-1.073-1.1 0 0-.942-.97-2.718-2.583.436-.482.846-.987 1.226-1.52.006.008.011.01.018.015l.003-.003a17.35 17.35 0 0 0 1.163-1.85 17.517 17.517 0 0 0 2.12-8.38c0-6.377-3.391-11.963-8.468-15.05a17.483 17.483 0 0 0-9.12-2.545c-9.712-.001-17.588 7.877-17.588 17.593.002 7.288 4.43 13.544 10.742 16.215a17.516 17.516 0 0 0 6.846 1.385c1.55 0 3.049-.203 4.48-.58h.001a17.132 17.132 0 0 0 2.026-.67 17.984 17.984 0 0 0-1.781-2.47c-1.46.494-3.022.771-4.65.771-4.388.003-8.31-1.947-10.981-5.013a14.481 14.481 0 0 0 9.56 3.592c1.82.001 3.557-.349 5.163-.961a14.454 14.454 0 0 0 3.073-1.598 169.16 169.16 0 0 1 3.623 3.438l.003-.002a246.184 246.184 0 0 1 5.765 5.837c-.316 2.4.06 5.046.06 5.046 1.255-1.556 2.692-1.818 2.692-1.818.167 1.878.858 4.01.858 4.01.24-1.138 1.236-2.045 1.236-2.045 13.562 13.675 29.684 24.81 47.09 34.014 26.565 14.108 48.288 18.433 48.288 18.433l.183-.292s-25.54-7.187-55.696-25.511l.456-.114Z" fill="#CDB476"/><path d="M175.457 172.775h-3.765v9.748h-1.749v-9.748h-3.765v-1.746h9.279v1.746Zm14.518 9.748h-1.746v-9.748h-.053l-3.93 9.748h-1.067l-3.817-9.748h-.058v9.748h-1.746V171.03h2.866l3.301 8.11 3.411-8.11h2.84v11.494Z" fill="#FEFFFF"/></g></svg>