<svg width="200" height="200" xmlns="http://www.w3.org/2000/svg"><g fill="none"><path d="M104.85 49.767h-.002l-.342-.267c-.062-.045-.12-.093-.18-.139-.29-.224-.576-.438-.862-.648-.01-.011-.02-.016-.031-.025-.278-.205-.554-.4-.826-.593l-.07-.045a29.26 29.26 0 0 0-.785-.532c-.034-.023-.07-.044-.101-.066a26.665 26.665 0 0 0-1.565-.961c-.07-.04-.139-.075-.208-.116a18.883 18.883 0 0 0-.604-.328c-.101-.053-.203-.101-.304-.154-.163-.08-.326-.166-.487-.239a15.216 15.216 0 0 0-.769-.338 19.832 19.832 0 0 0-5.47-1.35 20.836 20.836 0 0 0-4.403.016l-.478.062a22.027 22.027 0 0 0-1.653.275c-.366.075-.73.163-1.093.256-.154.043-.31.08-.464.126a20.622 20.622 0 0 0-2.943 1.085c-.15.07-.294.144-.444.215a17.722 17.722 0 0 0-1.431.773c-.3.176-.59.363-.876.555-.144.096-.292.19-.433.29-.365.266-.724.54-1.068.829-.04.032-.082.062-.123.096h-.002a34.504 34.504 0 0 0-.673 0c-6.447-3.645-15.234-4.508-21.999-1.944l-.016.008c-.461.173-.913.369-1.359.577-.03.013-.056.029-.086.043a21.44 21.44 0 0 0-4.54 2.881l-.002.003a21.713 21.713 0 0 0-2.801 2.769h-.004c-.235.281-.464.566-.687.858l-.063.082a25.672 25.672 0 0 0-.711.999c-.173.256-.342.516-.501.778-.059.093-.112.187-.169.28-.141.238-.278.475-.411.718-.072.136-.144.275-.214.412-.109.208-.216.417-.317.63-.094.195-.182.395-.27.595-.07.163-.145.324-.21.486-.127.305-.244.614-.357.928-.024.066-.05.13-.074.2-.136.394-.264.795-.38 1.201-22.15 10.17-36.437 26.178-36.437 44.187 0 .616.023 1.228.057 1.837.007.166.02.328.03.494a34.1 34.1 0 0 0 .142 1.547c.011.098.02.2.032.299a33.4 33.4 0 0 0 .27 1.784c.028.151.059.299.087.45.092.481.194.96.306 1.435.034.139.063.278.098.419.146.582.305 1.162.479 1.736.036.126.078.243.116.368.15.474.31.946.48 1.419a36.446 36.446 0 0 0 .85 2.16c.027.067.059.134.089.2a38.767 38.767 0 0 0 .933 1.98c.25.494.509.985.781 1.473.038.068.071.137.11.202.305.544.629 1.084.962 1.618.094.151.191.301.286.45.277.437.562.864.856 1.293l.247.361c.365.52.742 1.037 1.134 1.55.102.133.206.263.31.397.317.409.642.815.975 1.215.117.141.232.283.35.422.424.5.857 1 1.305 1.49.089.097.18.193.27.289.38.411.767.82 1.163 1.223l.427.433c.467.464.939.93 1.428 1.385.043.041.087.08.13.123a71.782 71.782 0 0 0 1.982 1.766c.442.38.891.753 1.347 1.127.115.09.225.184.34.278a69.04 69.04 0 0 0 1.692 1.314c.167.128.338.25.505.379.459.337.922.673 1.393 1.006.164.116.325.235.492.35.599.418 1.21.83 1.83 1.236l.472.304c.5.326 1.008.646 1.522.962.197.122.393.24.591.363.648.39 1.304.78 1.972 1.164l.326.176a82.915 82.915 0 0 0 2.43 1.325 88.662 88.662 0 0 0 2.17 1.111c.71.353 1.431.7 2.16 1.036.225.107.452.209.676.31.585.267 1.173.529 1.766.785.192.086.381.171.577.257.744.315 1.5.63 2.264.94.216.085.439.17.654.256a99.704 99.704 0 0 0 2.53.962c.785.293 1.575.571 2.376.849.181.064.366.123.548.181.657.225 1.319.444 1.985.652a104.138 104.138 0 0 0 3.482 1.058c.822.24 1.656.464 2.494.689.28.074.56.15.841.219a95.65 95.65 0 0 0 2.534.63c.094.021.185.048.279.07a143.465 143.465 0 0 0 7.595 1.559c.203.037.406.07.61.107 1.171.203 2.351.39 3.543.566.23.032.462.07.692.102 1.186.165 2.382.32 3.584.459.235.032.467.059.699.08a137.415 137.415 0 0 0 4.324.422c1.26.107 2.526.198 3.803.272l.54.032c1.322.07 2.649.129 3.984.166.112.005.228.005.336.01a155.1 155.1 0 0 0 16.45-.417c.042-.004.09-.004.133-.01 1.747-.138 3.474-.31 5.187-.507.277-.032.552-.059.828-.09.883-.108 1.762-.22 2.638-.343a5.11 5.11 0 0 1 .29-.037c.818-.118 1.63-.24 2.44-.369.162-.026.325-.048.488-.074.382-.065.758-.134 1.137-.198l.308-.048c.483-.086.969-.166 1.448-.251a129.17 129.17 0 0 0 2.058-.4 92.003 92.003 0 0 0 2.978-.62c.19-.038.382-.08.572-.123.675-.15 1.343-.315 2.01-.476.262-.058.522-.122.78-.187.527-.128 1.047-.267 1.569-.4.376-.102.755-.198 1.129-.3a68.876 68.876 0 0 0 1.621-.453c.364-.102.724-.203 1.085-.31.576-.166 1.145-.347 1.716-.523.313-.097.625-.187.93-.289.537-.17 1.063-.347 1.591-.523.33-.107.658-.214.981-.326.46-.155.91-.32 1.368-.48.368-.134.739-.263 1.105-.396.473-.176.935-.358 1.4-.534.376-.145.753-.283 1.124-.433.464-.187.927-.374 1.386-.566.35-.139.693-.283 1.035-.427.046-.016.089-.038.135-.054l1.068-.465c.38-.165.76-.33 1.135-.502.457-.208.908-.422 1.36-.63.314-.15.632-.294.942-.443.39-.187.774-.385 1.159-.577.368-.182.742-.363 1.105-.55.43-.225.853-.449 1.277-.673.3-.16.598-.315.892-.476.187-.101.369-.208.555-.315l.454-.256c.38-.208.762-.422 1.133-.641.107-.059.208-.123.313-.187.28-.166.552-.331.83-.497.297-.176.593-.352.887-.534.393-.246.777-.491 1.159-.737.283-.182.564-.358.838-.54.174-.117.342-.235.516-.347l.449-.304c.323-.22.646-.442.963-.664.362-.25.716-.51 1.069-.769.256-.187.518-.374.772-.56.344-.26.678-.522 1.017-.784.254-.2.513-.395.762-.595.344-.272.678-.55 1.011-.827.239-.198.479-.394.709-.591.33-.28.648-.563.969-.846.218-.196.438-.388.657-.583.334-.304.66-.617.986-.927.28-.264.56-.526.833-.792-3.739 1.543-8.678 2.66-14.518 1.06-.02-.008-.043-.008-.062-.014-15.262 10.946-38.71 17.964-65.011 17.964-45.998 0-83.29-21.446-83.29-47.9 0-14.103 10.602-26.78 27.467-35.546l.136-.072c.855-.44 1.722-.87 2.606-1.292.175-.08.346-.164.519-.244a86.967 86.967 0 0 1 2.681-1.21c-.002-.098-.007-.195-.007-.293 0-6.298 3.444-11.813 8.9-13.882 5.516-2.097 13.124-1.047 17.94 2.406 1.522-.104 4.003-.035 5.14.008 3.21-4.287 10.234-6.025 15.787-3.763 1.384.564 3.303 2.141 5.523 3.968.86.705 1.752 1.437 2.652 2.145 12.456.518 24.148 2.607 34.486 5.93 2.997-.385 5.696-1.139 7.82-2.442 1.038-.975 1.89-1.688 2.582-2.2-12.67-4.973-27.486-8.14-43.436-8.897m75.89 45.325c-.294-.027-.748 1.73-.874 2.063-.194.508-.205.673-.073 1.197a28.269 28.269 0 0 1 .828 6.172 28.263 28.263 0 0 1-.38 5.28c-.072.409-.147.815-.235 1.22-.094.444.168.482.446.802.368.422.651.919.86 1.439.564 1.408.703 3.042.544 4.549 1.1-.442 2.53-.807 3.69-.372 1.417.534 1.203 2.23 1.051 3.448 2.385-4.87 3.741-10.221 3.741-15.655 0-4.752-1.033-9.458-2.897-13.824-1.608 1.57-4.237 3.92-6.701 3.68" fill="#EF381F"/><path d="M145.103 114.662c2.049-1.469 3.525-3.146 4.863-5.248-4.815-1.765-9.265-4.286-14-6.244-4.222-1.747-8.722-3.68-13.276-4.345-.555-.08-.675-.032-1.153.318-.451.325-.919.633-1.407.897-.684.371-1.43.687-2.21.753-1.062.089-1.96-.43-2.432-1.378a4.168 4.168 0 0 1-.384-1.338c-.025-.213-.709-.168-.896-.187l-2.056-.2c-.16-.017-.894-.2-1.028-.102-.34 1.691-1.103 3.317-2.003 4.775-1.109 1.798-2.687 3.86-4.679 4.714-1.429.617-3.31.236-3.646-1.493-.181-.93.23-1.898.166-2.85-.059-.884-.294-1.882-.94-2.529-.355-.07-1.173.406-1.52.524-.39.136-.686 1.766-.884 2.206-.782 1.75-1.965 3.306-3.378 4.599-1.098.996-2.35 1.885-3.72 2.465-1.21.51-3.36.7-3.96-.822-.394-.992.354-1.975.648-2.88.318-.98.479-2.013.49-3.044.004-.256.114-1.242-.092-1.453-.494-.507-1.618 1.084-1.92 1.365a22.749 22.749 0 0 1-5.413 3.752c-1.515.748-3.58 1.741-5.304 1.282-.721-.192-1.337-.705-1.51-1.45-.205-.879.23-1.614.602-2.372.686-1.396 1.252-2.961 1.351-4.53.045-.739-3.413-1.436-4.046-1.583-.099-.021-1.122-.32-1.178-.233-.219.33-.414.677-.598 1.024-.886 1.658-1.616 3.543-1.6 5.445.008.863.059 1.629-.686 2.227-.644.516-1.528.623-2.327.527-3.522-.425-6.319-4.31-7.27-7.487-5.946 2.883-6.044 11.226-4.932 16.788l1.885-.387c.014-.841.279-1.746.391-2.08.662-1.988 1.78-4.046 3.29-5.518 1.41-1.38 4.313-2.214 5.05.288.628 2.13.623 4.4 2.398 6.007.16-.895.438-1.776.786-2.617.66-1.592 1.765-3.512 3.485-4.122 1.52-.54 3.18.3 3.205 2.014.016 1.16-.073 2.183.242 3.328.3 1.082.767 2.115 1.307 3.101.307.56.64 1.111.99 1.647.297.454.41.956.978.72.782-.324 1.415-.93 1.88-1.628a5.838 5.838 0 0 0 .93-2.459c.11-.842-.049-1.677.227-2.5.499-1.51 2-1.463 3.223-.868 3.723 1.805 4.251 6.28 4.858 9.911 2.844-1.04 4.45-3.865 5.277-6.623a20.48 20.48 0 0 0 .756-3.9c.106-1.119.053-2.726 1.335-3.204 1.309-.49 2.884.475 3.92 1.186 1.216.83 2.313 1.832 3.339 2.881.25.26.5.518.74.788.045.048 1.373-.62 1.533-.681 1.022-.412 2.25-.598 3.114-1.309 1.396-1.15 2.235-2.881 2.588-4.63.261-1.317-.286-3.142.88-4.094 1.482-1.218 3.537.087 4.784 1.036 1.685 1.279 3.114 2.908 4.332 4.636a24.067 24.067 0 0 1 1.816 2.999c.235.464.457.938.657 1.42.145.342.28 1.227.66 1.12 1.944-.545 3.603-2.035 4.748-3.651.532-.754 1.002-1.589 1.226-2.49.195-.78.547-1.614 1.252-2.069 1.259-.811 2.818.113 3.707 1.055 1.232 1.314 1.779 3.466 2.233 5.152.62 2.292 1.04 4.711.935 7.093 2.66-.555 5.178-1.872 7.37-3.445m16.808-1.672a95.361 95.361 0 0 1-6.488-1.75c.468 2.295.497 4.725.308 7.057 2.414-1.183 4.508-3.237 6.18-5.307" fill="#EF381F"/><path d="M196.206 73.563c-.245.598-.844 1.682-1.504 2.52-.258.332-.269.48-.304.904-.146 1.794-.884 7.392-5.502 12.86.176.379.347.76.51 1.15 3.91 9.246 3.865 19.563-.098 28.782-.92 2.137-2.03 4.134-3.28 6.052-3.963 4.236-8.477 6.79-12.83 7.964-1.407.352-6.17 1.346-10.25.23-1.394-.383-3.389-.447-7.825-.41-1.328 1.528-3.46 3.395-8.386 4.663-1.93.5-8.083 1.715-16.376 1.066-.636.994-1.186 1.907-5.088 2.827-.277.064-8.295 2.206-18.246 1.266-.256 1.325-.42 2.564-6.76 3.696-.06.01-6.79 1.389-12.653 1.357-.962-.005-12.41.454-18.32-3.322-9.612.908-19.35-3.173-19.524-3.243-7.298-2.787-17.942-9.514-20.73-20.499-2.362-1.524-8.723-6.778-9.352-11.56 0-.009 0-.014-.002-.022-.016-.217-.208-3.21 2.382-5.723.946-.914 3.977-3.611 6.487-4.874-1.72-4.492-1.855-6.586-1.859-6.629-.48-4.785 3.071-6.487 4.118-6.973 1.56-.654 4.022-1.273 6.456-1.581-1.117-2.094-1.844-4.553-1.48-6.823.243-1.271 1.017-3.178 2.66-4.316.656-.457 3.757-2.62 10.389-4.175-.601-3.952.707-7.355.745-7.464 1.047-2.951 2.957-4.791 2.99-4.826 1.735-1.733 3.94-2.839 6.328-3.405 4.713-1.03 10.503-.107 15.159 3.12 2.19-.166 6 0 6 0 .014-.022 3.518-5.62 11.648-4.656 2.179.26 3.49.443 8.323 4.53 3.232 2.729 7.366 5.723 8.766 6.083 2.772.377 10.926 1.932 18.651 2.457 2.629.105 6.45.543 11.856-.326 3.918-.63 5.908-1.764 6.548-2.143 1.694-.997 2.527-2.728 5.529-4.373 1.551-.85 5.48-2.475 8.585-2.902 1.956-.267 5.014-.791 8.05.75 1.469-1.033 2.845-1.765 3.934-2.233 3.38-1.44 7.368-1.674 10.325.812 2.87 2.414 3.851 7.256 7.902 8.193 2.54.588 4.866 2.089 5.99 4.503.984 2.105.91 4.565.038 6.693zm-14.52 58.226c-15.84 18.474-47.653 31.122-84.241 31.122-16.572 0-32.881-2.622-47.156-7.574-13.936-4.839-25.703-11.793-34.029-20.114-8.987-8.99-13.738-19.362-13.738-29.988 0-9.166 3.593-18.278 10.39-26.344 6.294-7.47 15.425-14.141 26.403-19.301 2.225-6.813 7.494-12.373 14.125-14.886 6.944-2.634 15.912-1.988 22.904 1.634 6.183-4.73 14.849-5.878 22.137-2.906 2.094.855 4.553 2.36 7.117 4.34 16.124.83 31.458 4.18 44.732 9.633-.335.137-.994.468-2.044 1.259-.691.512-1.544 1.225-2.582 2.2-2.124 1.303-4.823 2.057-7.82 2.441-7.756.994-17.445-.516-23.975-1.538-1.882-.292-3.511-.545-4.775-.687-1.757-.732-3.768-2.155-5.736-3.704-.9-.708-1.792-1.44-2.652-2.145-2.22-1.827-4.14-3.404-5.523-3.968-5.553-2.262-12.577-.524-15.787 3.763-1.137-.043-3.618-.112-5.14-.008-4.816-3.453-12.424-4.503-17.94-2.406-5.456 2.069-8.9 7.584-8.9 13.882 0 .098.005.195.007.294-4.049 1.743-7.806 3.696-11.238 5.83 3.432-2.134 7.19-4.087 11.241-5.83.006.368.024.734.054 1.105-4.784 1.178-8.678 3.223-10.082 4.313-1.925 1.499-3.02 3.961-3.02 6.54 0 .735.087 1.477.273 2.212.17.684.442 1.434.793 2.233-2.372.413-4.594 1.063-5.924 1.76-2.672 1.391-4.152 3.877-4.152 6.836 0 .545.049 1.1.151 1.672.25 1.405.844 3.47 1.509 5.307-2.454 1.496-5.394 3.853-6.563 5.312-1.561 1.955-2.046 3.806-2.046 5.346 0 1.638.545 2.927.928 3.625 1.16 2.128 4.81 6.866 8.6 9.15 4.53 16.683 26.973 25.372 40.94 24.16 6.407 4.032 23.94 4.46 35.948.8 1.79-.544 2.577-1.601 2.935-2.483 8.118.695 17.645-.785 21.408-2.665a4.708 4.708 0 0 0 1.69-1.454c6.108.39 19.075.403 24.65-5.772 2.71-.04 5.53-.021 6.797.302.02.006.043.006.062.013 5.84 1.6 10.779.484 14.518-1.06-.289.284-.588.561-.881.839.165-.155.336-.31.498-.47l.404-.382c1.645-.828 2.884-1.242 4.503-2.404.274-.2.568-.43.873-.68-.141.186-.593.819-.647.846zm16.77-65.984c-1.366-2.925-4.172-5.074-7.712-5.895-1.428-.333-2.302-1.594-3.605-3.623-.91-1.413-1.848-2.877-3.24-4.047-1.925-1.62-4.357-2.475-7.023-2.475-1.91 0-3.956.443-5.916 1.277a23.068 23.068 0 0 0-3.183 1.684 12.232 12.232 0 0 0-1.336-.38 15.1 15.1 0 0 0-3.158-.316c-1.126 0-2.338.103-3.707.322-2.525.401-6.282 1.902-8.245 2.738l-.043-.019c-13.382-5.496-28.852-8.874-44.782-9.777-2.526-1.888-4.962-3.336-7.077-4.196-2.961-1.209-6.123-1.818-9.4-1.818-5.006 0-9.893 1.46-13.931 4.14-4.08-1.841-8.776-2.845-13.387-2.845-3.595 0-7.113.614-10.168 1.77-6.984 2.65-12.622 8.368-15.257 15.421-10.89 5.253-19.966 11.98-26.304 19.501C3.797 85.792 0 95.465 0 105.237c0 11.307 5.006 22.292 14.476 31.77 8.593 8.593 20.69 15.75 34.985 20.713 14.537 5.047 31.127 7.713 47.984 7.713 36.134 0 69.082-12.21 86.044-31.868.176-.17 2.598-3.408 2.598-3.408 2.35-3.106 4.16-6.177 5.539-9.379 4.23-9.847 4.3-20.685.192-30.547.495-.657.97-1.355 1.419-2.078a26.078 26.078 0 0 0 2.416-5.064 23.542 23.542 0 0 0 1.24-5.712 12.542 12.542 0 0 0 1.648-2.86c1.18-2.888 1.15-6.063-.086-8.712z" fill="#FFF"/><path d="M93.797 118.297c2.406-1.902 5.349-2.917 8.11-4.158-.756-1.576-2.352-2.813-3.69-3.876-.898-.716-2.764-1.944-2.479.244.164 1.25-.139 2.606-.424 3.813-.324 1.36-.742 2.8-1.517 3.977m16.023-6.848c1.728-.46 3.678-.37 5.437-.205 2.07.192 4.351.598 6.096 1.802-.262-1.05-.903-2.032-1.485-2.93a34.137 34.137 0 0 0-2.519-3.378c-.87-1.033-1.802-2.11-2.9-2.913-.823-.602-2.214-1.053-1.875.514.513 2.36-.919 5.655-2.753 7.11m21.624-3.552c-.225.833-.641 1.624-1.095 2.35-1.119 1.795-2.794 3.61-4.93 4.108 1.61.598 3.21 1.22 4.783 1.904 1.69.74 3.494 1.506 4.943 2.67.449-2 .027-4.245-.368-6.216-.353-1.752-.71-3.851-1.704-5.379-.71-1.093-1.359-.452-1.629.563m-69.453 2.673c-.027-.542-.107-1.215-.708-1.425-1.271-.438-2.531 1.586-3.048 2.448-.87 1.462-1.527 3.155-1.616 4.864 2.38-.678 5.516-1.148 7.912-.292-1.075-.958-1.715-2.462-2.15-3.803-.19-.577-.358-1.186-.39-1.791m8.368-.821c-.97.474-1.553 1.8-1.966 2.722-.607 1.348-1.08 2.86-1.034 4.35.857.262 1.677.695 2.467 1.11a35.975 35.975 0 0 1 3.24 1.897c.686.46 1.496.96 1.987 1.64 0-1.22-.78-2.582-1.453-3.557-1.132-1.635-2.182-4.024-2.173-6.033.002-.705.422-2.85-1.069-2.129m7.181 11.199c-.246.256-.454.55-.595.876-.217.502-.02.606.381.919a5.47 5.47 0 0 0 1.79.913c1.244.37 2.585.331 3.85.075.586-.118 3.024-.604 3.061-1.312.073-1.4-.146-2.823-.504-4.177-.382-1.428-.94-2.868-1.821-4.067-.372-.505-.898-1.186-1.595-1.167-.66.019-.887.724-.74 1.274.332 1.245-.385 2.858-.978 3.915-.704 1.252-1.893 1.76-2.849 2.751m95.398-.929c.303-.057.597-1.547.658-1.81.171-.747.262-1.521.257-2.29-.009-.876-.436-3.587-1.862-3.047-.964.365-1.637 1.917-2.23 2.715.08 1.587-.165 3.22-.363 4.792 1.172.069 2.39-.15 3.54-.36m-11.012 1.45c1.095-.035 2.187-.105 3.269-.263.461-.064.92-.144 1.372-.256.585-.139.55-.315.641-.887.344-2.213.519-4.529.342-6.764-.059-.724-.112-1.98-.847-2.375-.83-.448-1.551 1.004-1.8 1.544-.823 1.757-2.38 3.28-3.76 4.597-1.699 1.62-3.627 3.223-5.825 4.113 2.18.3 4.412.357 6.608.29m17.38-2.822c1.039-.775.857-3.176.627-4.282-.122-.571-.405-1.5-1.054-1.666-.681-.171-.906.841-1.146 1.266-.515.913-1.229 1.733-1.95 2.492-.082 1.054-.424 2.115-.72 3.125 1.354.066 3.122-.097 4.243-.935m-29.227 2.609c.502.008 1.004.01 1.503.008.41 0 1.084.16 1.185-.272.606-2.575.55-5.272.468-7.895-.019-.625.125-2.195-.692-2.446-.734-.222-1.346.958-1.578 1.453-.945 2.02-2.81 3.586-4.607 4.828-1.928 1.332-4.086 2.454-6.351 3.084 2.038.74 4.3.935 6.447 1.088 1.207.085 2.414.13 3.625.152m-83.411-20.164c.379-1.4.953-2.75 1.653-4.017.2-.36.222-.384-.158-.56a3.476 3.476 0 0 0-.585-.209 6.902 6.902 0 0 0-1.454-.208c-2.084-.099-4.791.222-6.528 1.49.302 2.669 1.472 5.52 3.667 7.187.63.478 2.225 1.455 2.841.467.335-.536.134-1.34.177-1.936.053-.75.195-1.49.387-2.214m105.278-9.702c1.498-3.071 3.004-6.712 2.954-10.191a5.987 5.987 0 0 0-.105-1.066c-.087-.444-.194-.42-.641-.38-.883.078-1.752.337-2.585.634-1.658.587-3.047 1.455-4.516 2.398-.99.636-2.008 1.236-3.076 1.727a12.32 12.32 0 0 1-1.547.597c.096.445.173.897.235 1.348.28 2.088.283 4.214.165 6.316-.098 1.84-.288 3.691-.656 5.497-.142.685-.556 1.645-.086 2.28.411.561 1.271.32 1.795.088 1.92-.855 3.573-2.78 4.908-4.334 1.282-1.499 2.292-3.146 3.155-4.914m4.428 2.988c1.765-1.875 3.202-4.078 4.451-6.324 1.405-2.523 2.612-5.216 3.31-8.028-2.065-.686-4.684-.734-6.83-.435.484 2.62-.192 5.432-.963 7.929a39.722 39.722 0 0 1-3.168 7.46c-.505.904-.4 1.86.818 1.303.92-.422 1.695-1.175 2.382-1.905m9.935-13.989c-.249 2.687-1.661 5.35-2.949 7.673-.606 1.095-1.322 2.115-1.968 3.186-.828 1.378.558 1.389 1.504.897 2.534-1.31 4.446-3.976 5.93-6.331 1.355-2.142 2.995-4.902 2.995-7.53-.945.08-1.739.965-2.463 1.494-.838.614-2.045.755-3.049.61m-68.823 18.209c.961.738 2.844-.902 3.477-1.53 1.138-1.126 2.005-2.53 2.646-3.992.7-1.592 1.165-3.34 1.13-5.088-.008-.41.075-.683-.352-.806a4.125 4.125 0 0 0-.85-.139c-.644-.037-1.292.045-1.922.184-2.52.553-5.313 1.92-7.15 3.76 1.305 1.133 2.366 2.607 2.7 4.33.12.606.147 1.23.075 1.843-.053.445-.174 1.116.246 1.438m-42.408 7.337c-.029.818 1.06.713 1.575.595 3.104-.715 6.931-2.927 8.344-5.891-2.404-.2-5.15-.85-7.33-1.888.13 1.779-.757 3.715-1.564 5.25-.296.562-1.004 1.296-1.025 1.934m27.805-.473c.78.479 1.693-.392 2.213-.883 2.756-2.623 4.791-6.985 3.995-10.833-1.036.986-2.347 1.717-3.584 2.412-1.353.764-2.745 1.484-4.182 2.088.97 1.478 1.57 3.472 1.45 5.249-.04.603-.57 1.548.108 1.967m-14.508 2.503c-.24.75.524.919 1.09.764 1.824-.5 3.58-2.31 4.719-3.742 1.146-1.445 2.077-3.202 2.206-5.071-2.08.755-4.681 1.198-6.893 1.011.232 1.692.01 3.518-.395 5.166-.163.678-.518 1.233-.727 1.872m63.938-17.648c-1.768.59-3.68 1.13-5.557 1.18 1.06 2.057 1.111 4.781.927 7.04-.067.818-.513 1.819-.26 2.612.385 1.2 1.83.556 2.524.07 4.273-2.989 6.89-8.509 7.547-13.57-1.35 1.35-3.407 2.078-5.18 2.668m-20.992 6.898c-.19.727-.435 1.611.507 1.907 1.745.55 4.223-1.423 5.465-2.43 1.773-1.434 3.46-3.344 3.944-5.632-3.45-.577-6.765-1.76-10.085-2.831.708 2.014.671 4.35.525 6.452-.06.846-.14 1.715-.356 2.534M70.434 75.09c-1.611.257-1.878-.379-.824-1.353.677-.63 1.55-2.081 1.4-3.048-.528-.726-3.432-3.05-4.593-3.292-2.321 5.471-.388 9.387 3.533 10.02 3.322.531 6.047.139 7.932-2.762 0 0-3.093-1.207-3.821-1.933-.727 1.161-2.42 2.176-3.627 2.368" fill="#FFF"/><path d="M23.081 107.582c-1.012 1.896-.199 3.523.985 5.08 1.246 1.637 2.706 3.164 4.346 4.41a20.698 20.698 0 0 1-.023-1.003c0-4.921.618-9.87 2.113-14.571-1.476.708-2.834 1.712-4.121 2.713-1.228.954-2.554 1.974-3.3 3.37m21.017-24.668c.144-.126.833-.558.842-.75l.06-1.461c.057-1.274.153-2.348.52-3.584.528-1.771 1.18-3.571 2.098-5.179-2.582.714-5.477 1.777-7.617 3.445-3.303 2.559-.341 7.393 1.414 9.895.931-.74 1.789-1.58 2.683-2.366m-4.444 3.859c-2.465.09-5.052.532-7.366 1.405-2.005.758-3.05 2.393-2.67 4.55.372 2.055 1.063 4.111 1.872 6.029 1.827-4.522 4.57-8.675 8.164-11.984m54.015-26.167c.477.283.684.297 1.218.288.392-.005.785 0 1.175.016 2.676.085 5.348.399 7.995.783-1.067-.18-2.141-1.034-3.012-1.627a45.887 45.887 0 0 1-3.95-3.02c-1.818-1.544-4.073-2.62-6.487-2.663-2.476-.045-4.794 1.013-6.677 2.564 2.228.448 4.42 1.063 6.501 1.985a30.564 30.564 0 0 1 3.237 1.674m31.238 74.425a8.324 8.324 0 0 0-1.578-.64c-.571-.162-1.103-.083-1.69-.04-1.037.077-2.075.141-3.115.206-2.32.141-4.647.259-6.973.35-4.41.167-8.837.29-13.251.107-.556-.025-1.207-.267-1.506.283a1.51 1.51 0 0 0-.18.883c.089.853.796 1.533 1.45 2.009 1.637 1.183 3.884 1.922 5.846 2.385 4.175.983 8.605.956 12.857.606 3.14-.259 6.36-.686 9.368-1.658.762-.25 2.883-.807 1.937-1.846-.943-1.031-1.92-1.982-3.165-2.644m11.257-1.68a28.31 28.31 0 0 1-1.861-.293c-.478-.094-1.015.085-1.496.157-1.079.163-2.16.299-3.242.422-.745.085-1.87 0-2.4.655-.458.56.108 1.19.63 1.428 4.042 1.92 8.943 2.028 13.315 1.565 3.576-.38 8.041-1.124 10.844-3.6-5.244.117-10.571.33-15.79-.334m-33.297 8.884a96.022 96.022 0 0 0-2.835-1.005c-2.459-.828-5.001-1.581-7.595-1.843-1.348-.137-2.489-.115-3.728.438a63.48 63.48 0 0 1-5.04 1.973 74.655 74.655 0 0 1-10.466 2.755c4.79 1.907 10.517 1.918 15.594 1.699 2.778-.123 5.547-.4 8.29-.855a58.932 58.932 0 0 0 4.183-.849c.936-.23 2.507-.374 3.252-1.02.777-.636-1.21-1.133-1.655-1.293" fill="#206833"/><path d="M170.923 70.59c-3.047 0-5.662-1.306-7.112-2.465-1.453-1.159-1.888-.87-2.61-.146-.728.726-3.34 2.902-5.225 3.19-1.89.295-2.762-1.16-1.453-2.755.936-1.15 4.134-3.253 5.514-3.483 1.744-.288 3.78-.15 4.503.87 1.736 2.469 4.062 3.195 6.527 3.63 1.74.305 1.741 1.16-.144 1.16zm-86.02 3.777l-2.908.58c-4.548 5.805-10.93 8.709-18.045 7.694-1.779-.257-1.886-1.164.146-1.164 2.03 0 5.224-.289 6.82-2.03-7.546-.144-9.143-6.968-6.966-14.08-.871-.292-2.404.472-3.627 1.015-1.31.584-1.453-.193-.582-1.111 2.264-2.393 4.839-3.675 7.351-2.516 2.518 1.161 4.418 4.818 7.163 6.965 4.45 3.485 7.355 3.485 10.451 2.903 1.52-.283 2.128 1.164.198 1.744zm103.25-10.501c-1.944-.933-3.633-1.875-4.95-3.651-.74-1-1.1-2.222-1.95-3.143-2.796-3.029-7.59-1.24-10.429.748 1.186.846 2.057 2.216 2.976 3.322.99 1.191 2.031 2.436 3.425 3.173 1.598.844 3.054-.369 4.674-.062.956.181.566.769.406 1.426-.101.422.604.705.74 1.12.473 1.442-3.659.165-4.204-.02-1.845-.62-3.581-1.549-5.178-2.66-1.445-1.006-2.673-2.195-3.92-3.429-.825-.82-1.712-1.6-2.787-2.08-3.273-1.467-7.562-.612-10.743.673-3.17 1.279-6.551 3.138-8.947 5.625-1.255 1.3-2.417 2.633-3.851 3.751a15.998 15.998 0 0 1-2.842 1.798c-.764.369-1.992 1.02-2.863.884-.956-.15.057-.814.372-.996.552-.313 1.068-.694 1.576-1.077 1.188-.894 2.617-1.923 3.399-3.223-2.475.959-5.392 1.055-8.007 1.188-3.426.18-6.885.15-10.298-.187-3.207-.315-6.385-1.011-9.566-1.513-4.637-.735-9.3-1.33-13.984-1.656-2.483-.174-4.983-.102-7.464-.273-1.817-.123-3.41-1.45-5.093-2.077-3.453-1.288-7.395-2.162-11.102-2.062 1.133 2.19 3.394 3.862 5.342 5.282.86.63 1.74 1.229 2.646 1.792.432.27 2.04.967 1.691 1.613-.457.847-2.476-.275-2.984-.52-1.29-.628-2.5-1.416-3.655-2.265-2.37-1.741-4.508-3.758-6.752-5.651-2.94-2.484-6.204-3.963-10.117-3.972-3.581-.005-7.902 1.232-9.966 4.396-1.929 2.962-1.975 7.091-.978 10.384.243.8.563 1.586.996 2.31.23.38.897 1.241.643 1.736-.405.793-2.838-1.61-3.183-1.947-1.46 2.473-2.823 5.298-2.58 8.25.12 1.434.642 2.796 1.429 3.992.232.353 1.729 1.985 1.223 2.505-.478.49-1.928-.764-2.249-1.028-.342-.286-1.49-1.736-1.874-1.517a27.42 27.42 0 0 0-5.04 3.71c-5.768 5.355-9.055 12.883-10.129 20.599-.558 4.017-.744 8.215.447 12.138 1.06 3.496 3.063 6.637 5.575 9.272 5.512 5.785 13.243 9.294 20.988 10.886 3.817.784 7.564.939 11.43.43 4.144-.54 8.221-1.613 12.147-3.034 3.571-1.295 7.102-2.882 10.26-5.002.666-.446 1.299-1.076 2.025-1.405.908-.411 1.985-.427 2.962-.406 1.589.037 3.173.131 4.76.153 7.832.093 15.7-.217 23.501-.895a112.64 112.64 0 0 0 4.927-.52c2.108-.278 4.068-.212 6.167.069 3.787.499 7.64.518 11.454.518 3.182 0 6.378-.174 9.556-.046 2.104.085 4.207.294 6.308.436 1.798.12 3.657.267 5.448-.01 3.793-.594 7.561-2.511 10.464-4.993 1.328-1.135 2.572-2.49 3.272-4.113.294-.683 1.161-3.228-.302-3.183-.828.027-1.6.564-2.335.897a27.57 27.57 0 0 1-2.08.833c-1.626.577-3.296 1.026-4.977 1.398-3.825.835-7.73 1.276-11.634 1.511-7.369.444-14.972.296-22.24-1.095-3.567-.678-6.993-2.195-10.313-3.63-3.234-1.396-6.4-2.988-9.679-4.278-4.011-1.578-8.8-1.6-12.928-.478-3.069.834-5.865 2.596-8.6 4.161-3.156 1.803-6.279 3.675-9.491 5.374-1.216.637-2.45 1.292-3.75 1.741-2.3.796-4.78.801-7.103.093-3.403-1.038-5.724-3.549-8.68-5.344-3.622-2.198-7.863-2.515-11.984-1.885-1.848.285-3.686.803-5.325 1.714-1.642.91-2.757 2.308-4.153 3.526-1.351 1.177-3.838 2.783-5.006.467-.383-.764-.205-1.69-.415-2.505-.198-.764-.602-1.45-.949-2.153-1.8-3.654-2.71-7.782-1.054-11.67.798-1.878 1.893-3.64 3.082-5.291a24.948 24.948 0 0 1 1.9-2.372c.345-.373 1.096-1.276 1.713-.98.732.352-1.487 3.557-1.765 4.065-.815 1.5-1.622 3.015-2.33 4.572-1.895 4.164.874 8.861 2.652 12.568.784-.675 1.574-1.346 2.37-2.003.555-.46 1.113-.915 1.69-1.346.366-.275.153-.547.056-.97-.096-.43-.184-.859-.261-1.292-.564-3.16-.577-6.455.293-9.564a15.544 15.544 0 0 1 11.004-10.875c3.44-.918 6.823-.59 10.257.166a58.757 58.757 0 0 1 6.06 1.67c1.963.653 3.832 1.45 5.878 1.834 2.42.454 4.907.553 7.36.39 1.996-.13 4.117-.337 6.015-1 2.841-.993 5.488-2.64 8.05-4.198 2.876-1.748 5.688-3.605 8.497-5.455 2.73-1.8 5.34-3.52 8.653-4.054 4.23-.682 8.124.654 12.125 1.843 4.39 1.305 9.04 2.686 13.663 2.035 2.82-.4 5.28-1.51 7.793-2.783 3.034-1.536 6.018-3.162 9.036-4.73 2.421-1.258 4.889-2.655 7.499-3.49 1.832-.588 3.837-.641 5.744-.62 2.318.027 4.634.24 6.93.558 3.387.473 6.963-2.564 8.264-5.486 1.629-3.672-1.873-6.043-4.773-7.432z" fill="#206833"/><path d="M44.274 68.235c-.888.424-1.768.86-2.624 1.304-.038.018-.073.037-.107.055a79.436 79.436 0 0 0-.022.01c-16.865 8.766-27.467 21.444-27.467 35.547 0 26.454 37.292 47.9 83.29 47.9 26.3 0 49.749-7.018 65.011-17.964-1.268-.323-4.086-.341-6.796-.302-5.576 6.175-18.543 6.162-24.65 5.772a4.708 4.708 0 0 1-1.691 1.454c-3.763 1.88-13.29 3.36-21.408 2.665-.358.882-1.146 1.94-2.935 2.484-12.008 3.659-29.54 3.231-35.948-.801-13.967 1.212-36.41-7.477-40.94-24.16-3.79-2.284-7.44-7.022-8.6-9.15a7.643 7.643 0 0 1-.928-3.625c0-1.54.485-3.391 2.046-5.346 1.17-1.459 4.109-3.816 6.563-5.312-.665-1.837-1.259-3.902-1.509-5.307a9.436 9.436 0 0 1-.151-1.672c0-2.959 1.48-5.445 4.152-6.837 1.33-.696 3.552-1.346 5.924-1.76-.35-.798-.623-1.548-.793-2.232a9.006 9.006 0 0 1-.273-2.211c0-2.58 1.095-5.042 3.02-6.541 1.404-1.09 5.298-3.135 10.082-4.313-.03-.371-.048-.737-.054-1.105-.916.392-1.814.801-2.697 1.218-.166.076-.331.151-.495.23" fill="#293982"/><path d="M182.332 130.943c-.305.25-.599.48-.873.68-1.619 1.162-2.858 1.576-4.503 2.404l-.404.382c-.162.16-.333.315-.498.47-.3.285-.602.572-.909.852l-.03.03c-.215.194-.438.386-.656.582-.011.007-.022.021-.035.028-.304.27-.606.538-.916.805-.005.005-.01.007-.018.013-.23.197-.47.393-.709.59l-.058.05c-.31.252-.611.508-.924.757a.117.117 0 0 1-.03.021c-.248.2-.507.396-.76.595-.022.014-.04.032-.062.048-.31.239-.614.479-.93.714-.008.008-.018.013-.026.021-.254.19-.516.374-.772.561l-.118.088c-.312.224-.62.452-.937.673-.003.003-.008.005-.014.008-.46.326-.936.648-1.412.968-.165.112-.329.225-.494.331-.008.006-.013.011-.022.016-.274.182-.557.358-.838.54-.06.037-.115.075-.173.112-.321.203-.636.406-.96.609l-.026.016c-.291.182-.593.358-.887.534-.059.038-.114.07-.17.107-.22.128-.441.262-.66.39a71.46 71.46 0 0 1-1.9 1.084c-.178.102-.352.203-.534.3a.121.121 0 0 1-.02.015c-.295.16-.594.315-.893.476-.088.048-.173.09-.264.139-.334.176-.665.357-1.004.528-.003.006-.005.006-.009.006-.365.187-.737.368-1.105.55-.034.021-.072.037-.107.059-.342.165-.678.336-1.022.502l-.03.016c-.31.15-.628.294-.942.443-.097.043-.19.09-.283.134-.351.16-.698.325-1.05.486-.008.005-.019.005-.027.01-.374.171-.756.337-1.135.502-.043.016-.08.032-.12.049-.319.138-.631.277-.948.416l-1.17.48c-.09.038-.181.076-.272.118-.369.15-.735.3-1.11.444-.001.005-.004.005-.004.005-.371.144-.75.288-1.124.433-.068.026-.132.053-.198.074-.382.145-.762.294-1.143.438-.02.006-.04.011-.059.022-.366.133-.737.262-1.105.395l-.187.064c-.39.139-.78.283-1.173.417h-.008c-.323.112-.652.219-.98.326-.129.042-.254.085-.382.128-.404.133-.799.267-1.207.395h-.003c-.305.102-.617.192-.93.289a11.21 11.21 0 0 1-.451.138c-.414.129-.822.257-1.236.38-.011 0-.022.005-.03.005-.36.107-.723.208-1.084.31l-.286.08c-.424.123-.846.246-1.273.358l-.062.016c-.374.101-.753.197-1.13.299a3.172 3.172 0 0 0-.216.053c-.435.112-.868.23-1.306.337-.016.005-.03.01-.046.01-.258.065-.52.123-.78.187l-.6.145c-.446.106-.887.213-1.335.315l-.075.016c-.19.043-.382.08-.571.123-.265.058-.53.112-.794.17-.454.097-.905.198-1.362.294h-.022c-.263.054-.534.107-.8.155l-.642.128c-.46.086-.915.182-1.378.267-.01 0-.027.006-.04.006-.582.107-1.17.203-1.755.299-.36.064-.72.128-1.084.187-.016.005-.034.005-.053.01-.163.027-.326.049-.488.075-.324.048-.647.097-.97.15-.467.064-.935.144-1.41.208-.018 0-.038.006-.06.01-.095.012-.194.022-.29.038-.393.054-.785.102-1.178.155-.475.059-.945.128-1.423.182-.014 0-.025.005-.037.005-.276.032-.55.059-.828.091l-.721.08c-.465.053-.933.107-1.4.155-.553.053-1.109.101-1.664.15-.45.042-.903.085-1.357.122h-.045c-.042.006-.09.006-.133.011-.522.037-1.04.075-1.558.107-.441.032-.876.07-1.316.096-.62.037-1.244.059-1.867.09-.406.022-.809.044-1.215.06a96.68 96.68 0 0 1-2.163.064c-.315.01-.628.026-.946.026a152.893 152.893 0 0 1-7.385-.026c-.108-.006-.224-.006-.336-.011a162.859 162.859 0 0 1-3.985-.166c-.178-.01-.36-.02-.539-.032a146.419 146.419 0 0 1-3.803-.272c-.216-.016-.435-.032-.652-.053-1.23-.107-2.454-.23-3.672-.369a16.089 16.089 0 0 1-.7-.08 152.746 152.746 0 0 1-3.583-.46c-.23-.032-.463-.069-.692-.1a146.028 146.028 0 0 1-3.544-.567c-.203-.038-.406-.07-.609-.107a145.264 145.264 0 0 1-4.006-.77 143.465 143.465 0 0 1-3.589-.79.869.869 0 0 0-.101-.021 39.407 39.407 0 0 0-.178-.048 95.65 95.65 0 0 1-2.534-.63 111.827 111.827 0 0 1-3.335-.908 1.841 1.841 0 0 1-.163-.043c-.061-.016-.121-.037-.179-.054a105.311 105.311 0 0 1-3.14-.961 81.025 81.025 0 0 1-1.985-.652 18.471 18.471 0 0 1-.548-.181c-.8-.278-1.59-.556-2.376-.85a99.704 99.704 0 0 1-2.53-.961c-.215-.085-.438-.17-.654-.256-.764-.31-1.52-.625-2.264-.94-.196-.086-.385-.171-.577-.257a97.484 97.484 0 0 1-1.766-.785 84.263 84.263 0 0 1-3.18-1.517 89.32 89.32 0 0 1-1.827-.94c-.221-.112-.437-.23-.654-.347-.599-.32-1.19-.646-1.775-.978l-.326-.176c-.668-.384-1.324-.774-1.972-1.164-.198-.123-.394-.24-.59-.363a68.036 68.036 0 0 1-1.523-.962l-.471-.304a74.924 74.924 0 0 1-1.831-1.235c-.166-.116-.328-.235-.492-.35-.47-.334-.934-.67-1.393-1.007-.167-.128-.338-.251-.505-.38a69.04 69.04 0 0 1-1.692-1.313c-.115-.094-.225-.187-.34-.278a80.625 80.625 0 0 1-1.83-1.544 71.782 71.782 0 0 1-1.498-1.349l-.13-.123c-.49-.456-.962-.92-1.43-1.385l-.426-.433a56.889 56.889 0 0 1-1.163-1.223l-.27-.288a57.553 57.553 0 0 1-1.305-1.49c-.118-.14-.233-.282-.35-.423-.333-.4-.658-.806-.975-1.215-.104-.134-.208-.264-.31-.398a47.455 47.455 0 0 1-1.134-1.549c-.084-.12-.164-.24-.247-.36a45.2 45.2 0 0 1-.856-1.293c-.095-.15-.192-.3-.286-.451a40.491 40.491 0 0 1-.963-1.618c-.038-.068-.071-.134-.109-.202a40.741 40.741 0 0 1-1.714-3.452c-.03-.067-.062-.134-.09-.2a36.446 36.446 0 0 1-1.329-3.58c-.038-.125-.08-.242-.116-.368a35.977 35.977 0 0 1-.479-1.736c-.035-.141-.064-.28-.098-.419a34.178 34.178 0 0 1-.306-1.435c-.028-.151-.06-.299-.086-.45a33.4 33.4 0 0 1-.271-1.784c-.012-.1-.02-.201-.032-.3a34.1 34.1 0 0 1-.142-1.546c-.01-.166-.023-.328-.03-.494a33.805 33.805 0 0 1-.057-1.837c0-18.01 14.287-34.017 36.437-44.19.113-.403.244-.804.38-1.199.024-.07.05-.133.074-.2.113-.313.23-.622.356-.927.066-.162.141-.323.21-.486.09-.2.177-.4.271-.595.101-.213.208-.422.317-.63.07-.137.142-.276.214-.412.133-.243.272-.48.411-.719.057-.092.11-.186.169-.28a19.626 19.626 0 0 1 .62-.953c.192-.278.39-.553.592-.823l.063-.082c.223-.292.452-.577.687-.858h.004a21.713 21.713 0 0 1 2.8-2.769l.004-.003a21.374 21.374 0 0 1 4.539-2.881c.03-.014.056-.03.086-.043.446-.208.898-.404 1.359-.577l.014-.008c6.767-2.564 15.554-1.704 22 1.944.222-.002.45-.002.674 0 .04-.034.085-.064.125-.096.344-.289.703-.563 1.068-.828.141-.102.289-.195.433-.29.286-.193.577-.38.876-.556.16-.096.32-.187.484-.281.308-.173.627-.333.947-.492.15-.071.294-.146.444-.215a20.622 20.622 0 0 1 2.943-1.085c.155-.046.31-.083.464-.126a22.596 22.596 0 0 1 1.627-.36c.371-.067.745-.122 1.119-.17.16-.022.318-.043.478-.063 3.312-.349 6.735.054 9.873 1.334.251.101.508.215.77.338.16.073.323.158.486.239.101.053.203.101.304.154.2.104.4.214.604.328.07.041.139.075.208.116.222.128.449.261.676.4.05.032.101.06.152.091.243.15.49.307.737.47l.101.066c.26.171.524.348.785.532l.07.045c.272.193.548.388.826.593.01.009.021.014.03.025a45.864 45.864 0 0 1 1.043.787l.342.267c15.952.753 30.768 3.924 43.438 8.893v.004c1.05-.791 1.71-1.122 2.044-1.259-13.274-5.453-28.608-8.802-44.732-9.632-2.564-1.982-5.023-3.486-7.117-4.34-7.288-2.973-15.954-1.824-22.137 2.905-6.992-3.622-15.96-4.268-22.904-1.634-6.63 2.513-11.9 8.073-14.125 14.886-10.978 5.16-20.109 11.83-26.404 19.301C6.115 86.957 2.522 96.07 2.522 105.235c0 10.626 4.75 20.999 13.738 29.988 8.326 8.32 20.093 15.275 34.029 20.114 14.275 4.952 30.584 7.574 47.156 7.574 36.588 0 68.401-12.648 84.24-31.122.235-.289.436-.561.577-.753.027-.035.051-.07.07-.093" fill="#293982"/><path d="M109.134 61.08c1.264.142 2.893.395 4.775.687 6.53 1.022 16.219 2.532 23.975 1.538-10.338-3.322-22.03-5.41-34.486-5.929 1.968 1.55 3.979 2.972 5.736 3.704" fill="#293982"/><path d="M192.927 71.298c-1.301 2.922-4.877 5.959-8.263 5.486-2.297-.318-4.613-.531-6.931-.558-1.907-.021-3.912.032-5.744.62-2.61.835-5.078 2.232-7.5 3.49-3.017 1.568-6.001 3.194-9.035 4.73-2.514 1.273-4.973 2.382-7.793 2.783-4.622.651-9.272-.73-13.663-2.035-4-1.19-7.895-2.525-12.125-1.843-3.314.534-5.923 2.254-8.653 4.054-2.81 1.85-5.621 3.707-8.498 5.455-2.56 1.558-5.208 3.205-8.05 4.199-1.897.662-4.018.868-6.014.999-2.453.163-4.94.064-7.36-.39-2.046-.385-3.915-1.18-5.877-1.834a58.757 58.757 0 0 0-6.06-1.67c-3.435-.755-6.818-1.084-10.258-.166a15.544 15.544 0 0 0-11.004 10.875c-.87 3.109-.857 6.404-.293 9.564.077.433.165.862.261 1.293.097.422.31.694-.056.969-.577.43-1.135.887-1.69 1.346-.796.657-1.586 1.328-2.37 2.003-1.778-3.707-4.547-8.404-2.652-12.568.708-1.557 1.515-3.071 2.33-4.572.278-.508 2.497-3.713 1.765-4.065-.617-.296-1.368.607-1.713.98a24.948 24.948 0 0 0-1.9 2.372c-1.19 1.65-2.284 3.413-3.082 5.29-1.656 3.889-.746 8.017 1.054 11.671.347.703.751 1.389.949 2.153.21.815.032 1.74.415 2.505 1.168 2.316 3.655.71 5.006-.467 1.396-1.218 2.51-2.615 4.153-3.526 1.64-.91 3.477-1.429 5.325-1.714 4.121-.63 8.362-.313 11.984 1.885 2.956 1.795 5.277 4.306 8.68 5.344 2.323.708 4.803.703 7.103-.093 1.3-.449 2.534-1.104 3.75-1.741 3.212-1.699 6.335-3.571 9.492-5.374 2.734-1.565 5.53-3.327 8.599-4.16 4.129-1.122 8.917-1.1 12.928.477 3.28 1.29 6.445 2.882 9.679 4.278 3.32 1.435 6.746 2.952 10.314 3.63 7.267 1.391 14.87 1.539 22.24 1.095 3.902-.235 7.808-.676 11.633-1.511 1.68-.372 3.35-.82 4.978-1.398a27.864 27.864 0 0 0 2.08-.833c.735-.333 1.506-.87 2.334-.897 1.463-.045.596 2.5.302 3.183-.7 1.624-1.944 2.978-3.272 4.113-2.903 2.482-6.671 4.4-10.464 4.992-1.791.278-3.65.13-5.448.01-2.101-.141-4.204-.35-6.308-.435-3.178-.128-6.374.046-9.556.046-3.814 0-7.667-.02-11.454-.518-2.099-.281-4.06-.347-6.167-.07-1.64.214-3.282.38-4.927.52a238.77 238.77 0 0 1-23.501.896c-1.587-.022-3.171-.116-4.76-.153-.977-.021-2.054-.005-2.962.406-.726.329-1.359.96-2.024 1.405-3.16 2.12-6.69 3.707-10.26 5.002-3.927 1.421-8.004 2.495-12.147 3.034-3.867.509-7.614.354-11.43-.43-7.746-1.592-15.477-5.101-20.989-10.886-2.512-2.635-4.515-5.776-5.575-9.272-1.191-3.923-1.005-8.121-.447-12.138 1.074-7.716 4.36-15.244 10.13-20.6a27.42 27.42 0 0 1 5.039-3.709c.384-.219 1.532 1.231 1.874 1.517.32.264 1.77 1.517 2.25 1.028.505-.52-.992-2.152-1.224-2.505-.787-1.196-1.309-2.558-1.428-3.992-.244-2.952 1.118-5.777 2.58-8.25.344.336 2.777 2.74 3.182 1.947.254-.495-.414-1.357-.643-1.736a10.328 10.328 0 0 1-.996-2.31c-.997-3.293-.95-7.422.978-10.384 2.064-3.164 6.385-4.401 9.966-4.396 3.913.009 7.176 1.488 10.117 3.972 2.244 1.893 4.382 3.91 6.752 5.651 1.155.85 2.366 1.637 3.655 2.265.508.245 2.527 1.367 2.984.52.35-.646-1.259-1.343-1.691-1.613a42.115 42.115 0 0 1-2.646-1.792c-1.948-1.42-4.21-3.092-5.342-5.282 3.707-.1 7.65.774 11.102 2.062 1.682.627 3.276 1.954 5.093 2.077 2.48.171 4.98.099 7.464.273 4.685.326 9.347.92 13.984 1.656 3.181.502 6.36 1.198 9.566 1.513 3.413.337 6.872.367 10.298.187 2.615-.133 5.532-.23 8.007-1.188-.782 1.3-2.211 2.33-3.4 3.223-.507.383-1.023.764-1.575 1.077-.315.182-1.328.846-.372.996.87.136 2.1-.515 2.863-.884a15.998 15.998 0 0 0 2.842-1.798c1.434-1.118 2.596-2.451 3.85-3.751 2.397-2.487 5.778-4.346 8.948-5.625 3.181-1.285 7.47-2.14 10.743-.673 1.075.48 1.962 1.26 2.786 2.08 1.248 1.234 2.476 2.423 3.92 3.43 1.598 1.11 3.334 2.04 5.179 2.66.545.184 4.677 1.46 4.204.018-.136-.414-.841-.697-.74-1.12.16-.656.55-1.244-.406-1.425-1.62-.307-3.076.906-4.674.062-1.394-.737-2.435-1.982-3.425-3.173-.92-1.106-1.79-2.476-2.976-3.322 2.839-1.987 7.633-3.777 10.429-.748.85.92 1.21 2.144 1.95 3.143 1.317 1.776 3.006 2.718 4.95 3.651 2.901 1.389 6.403 3.76 4.774 7.432zm-4.1 14.516c-1.485 2.355-3.397 5.02-5.931 6.331-.946.492-2.332.48-1.504-.897.646-1.07 1.362-2.09 1.968-3.186 1.288-2.323 2.7-4.986 2.949-7.673 1.004.144 2.211.003 3.049-.611.724-.529 1.518-1.413 2.463-1.494 0 2.628-1.64 5.388-2.994 7.53zm-13.044 30.643c.721-.759 1.435-1.579 1.95-2.492.24-.425.465-1.437 1.146-1.266.649.165.932 1.095 1.054 1.666.23 1.106.412 3.507-.627 4.282-1.121.838-2.89 1-4.244.935.297-1.01.64-2.07.721-3.125zm-2.609-21.478a39.722 39.722 0 0 0 3.168-7.46c.771-2.496 1.447-5.309.964-7.928 2.145-.299 4.764-.251 6.83.435-.699 2.812-1.906 5.505-3.31 8.028-1.25 2.246-2.687 4.45-4.452 6.324-.687.73-1.461 1.483-2.382 1.905-1.218.557-1.323-.399-.818-1.304zm-3.413 20.61c.593-.799 1.266-2.35 2.23-2.716 1.426-.54 1.853 2.17 1.862 3.046a10.03 10.03 0 0 1-.257 2.292c-.061.262-.355 1.752-.658 1.808-1.15.211-2.368.43-3.54.36.198-1.572.444-3.204.363-4.79zm-5.878-14.951c-.524.233-1.384.473-1.795-.088-.47-.635-.056-1.595.086-2.28.368-1.806.558-3.657.656-5.497.118-2.102.115-4.228-.165-6.316a18.043 18.043 0 0 0-.235-1.348 12.32 12.32 0 0 0 1.547-.597c1.068-.49 2.085-1.091 3.076-1.727 1.47-.943 2.858-1.81 4.516-2.398.833-.297 1.702-.556 2.585-.634.447-.04.554-.064.641.38.07.352.1.71.105 1.066.05 3.48-1.456 7.12-2.954 10.191-.863 1.768-1.873 3.415-3.155 4.914-1.335 1.554-2.988 3.48-4.908 4.334zm-2.74 16.428c1.38-1.317 2.937-2.84 3.76-4.597.249-.54.97-1.992 1.8-1.544.735.396.788 1.65.847 2.375.177 2.235.002 4.551-.342 6.764-.09.572-.056.748-.64.887-.453.112-.912.192-1.373.256a28.785 28.785 0 0 1-3.27.262c-2.195.067-4.427.01-6.607-.29 2.198-.89 4.126-2.493 5.825-4.113zm-5.721-5.825a95.361 95.361 0 0 0 6.488 1.75c-1.672 2.069-3.766 4.123-6.18 5.306.189-2.332.16-4.762-.308-7.056zm-5.475-10.023c-.694.486-2.139 1.13-2.523-.07-.254-.793.192-1.794.259-2.611.184-2.26.133-4.984-.927-7.04 1.877-.051 3.79-.591 5.557-1.18 1.774-.591 3.83-1.32 5.181-2.67-.656 5.062-3.274 10.582-7.547 13.57zm-3.59 15.714c1.798-1.242 3.663-2.807 4.608-4.828.232-.495.844-1.675 1.578-1.453.817.251.673 1.821.692 2.446.083 2.623.138 5.32-.468 7.895-.101.432-.774.272-1.185.272a70.731 70.731 0 0 1-5.128-.16c-2.147-.153-4.409-.347-6.447-1.088 2.265-.63 4.423-1.752 6.35-3.084zm-15.204-28.704c3.32 1.07 6.635 2.254 10.085 2.83-.483 2.289-2.171 4.2-3.944 5.633-1.242 1.007-3.72 2.98-5.465 2.43-.942-.296-.696-1.18-.507-1.907.217-.82.297-1.688.356-2.534.146-2.102.183-4.438-.525-6.452zm-13.988 7.088c-.334-1.723-1.395-3.197-2.7-4.33 1.837-1.84 4.63-3.207 7.15-3.76.63-.139 1.278-.221 1.922-.184.286.018.572.061.85.139.427.123.344.395.351.806.036 1.747-.43 3.496-1.129 5.088-.641 1.461-1.508 2.866-2.646 3.993-.633.627-2.516 2.267-3.477 1.53-.42-.323-.3-.994-.246-1.44a5.965 5.965 0 0 0-.075-1.842zm-15.84 2.929c1.437-.604 2.829-1.324 4.182-2.088 1.237-.695 2.548-1.426 3.584-2.412.796 3.848-1.239 8.21-3.995 10.833-.52.491-1.433 1.362-2.213.883-.679-.419-.148-1.364-.107-1.967.12-1.777-.48-3.771-1.45-5.249zm-11.828 2.681c2.212.187 4.813-.256 6.893-1.011-.129 1.87-1.06 3.626-2.206 5.07-1.138 1.432-2.895 3.243-4.719 3.743-.566.155-1.33-.014-1.09-.764.209-.639.564-1.194.727-1.872.406-1.648.627-3.474.395-5.166zm-11.83-2.176c2.18 1.039 4.926 1.688 7.33 1.888-1.413 2.964-5.24 5.176-8.344 5.891-.514.118-1.604.223-1.575-.595.021-.638.73-1.372 1.025-1.933.807-1.536 1.694-3.472 1.563-5.25zm-11.563 6.492c-.616.988-2.21.01-2.841-.467-2.195-1.666-3.365-4.518-3.667-7.187 1.737-1.268 4.444-1.589 6.528-1.49.488.025.982.08 1.454.208.201.054.399.12.585.208.38.177.359.201.158.561a18.147 18.147 0 0 0-1.653 4.017 11.964 11.964 0 0 0-.387 2.214c-.043.596.158 1.4-.177 1.936zm-1.572 10.923c-2.396-.856-5.532-.386-7.912.292.089-1.71.746-3.402 1.616-4.864.517-.862 1.777-2.886 3.048-2.448.6.21.68.883.708 1.426.032.605.2 1.214.39 1.791.435 1.34 1.075 2.845 2.15 3.803zm9.07 1.747c.672.975 1.452 2.337 1.452 3.557-.491-.68-1.3-1.18-1.987-1.64a35.975 35.975 0 0 0-3.24-1.898c-.79-.414-1.61-.847-2.467-1.109-.045-1.49.427-3.002 1.034-4.35.413-.922.995-2.248 1.965-2.722 1.49-.72 1.07 1.424 1.069 2.13-.01 2.008 1.041 4.397 2.173 6.032zm7.766-3.629c-.148-.55.08-1.255.739-1.274.697-.019 1.223.662 1.595 1.167.881 1.199 1.439 2.639 1.821 4.067.358 1.354.577 2.778.504 4.177-.037.708-2.475 1.194-3.06 1.312-1.266.256-2.607.296-3.851-.075a5.47 5.47 0 0 1-1.79-.913c-.4-.313-.598-.417-.381-.92.141-.325.35-.619.595-.875.956-.991 2.145-1.499 2.85-2.75.592-1.058 1.309-2.671.978-3.916zm14.37-3.776c-.285-2.188 1.581-.96 2.479-.244 1.338 1.063 2.934 2.3 3.69 3.876-2.761 1.241-5.704 2.256-8.11 4.158.775-1.178 1.193-2.618 1.517-3.977.285-1.207.588-2.563.424-3.813zm16.836-6.168c-.339-1.567 1.052-1.116 1.875-.514 1.098.803 2.03 1.88 2.9 2.913a34.137 34.137 0 0 1 2.52 3.379c.581.897 1.222 1.88 1.484 2.929-1.745-1.204-4.025-1.61-6.096-1.802-1.759-.166-3.709-.254-5.436.205 1.834-1.455 3.266-4.75 2.753-7.11zm22.572 14.59c-1.45-1.164-3.253-1.93-4.943-2.67a94.542 94.542 0 0 0-4.783-1.904c2.136-.497 3.811-2.313 4.93-4.108.454-.726.87-1.517 1.095-2.35.27-1.015.919-1.656 1.63-.563.992 1.528 1.35 3.627 1.703 5.379.395 1.97.817 4.216.368 6.217zm1.65-7.915c-.453-1.686-1-3.838-2.232-5.152-.889-.942-2.448-1.866-3.707-1.055-.705.455-1.057 1.29-1.252 2.07-.224.9-.694 1.735-1.226 2.489-1.145 1.616-2.804 3.106-4.749 3.651-.379.107-.514-.778-.659-1.12-.2-.482-.422-.956-.657-1.42a24.067 24.067 0 0 0-1.816-2.999c-1.218-1.728-2.647-3.357-4.332-4.636-1.247-.949-3.302-2.254-4.783-1.036-1.167.952-.62 2.777-.881 4.093-.353 1.75-1.192 3.48-2.588 4.631-.863.71-2.092.897-3.114 1.309-.16.062-1.488.73-1.533.681-.24-.27-.49-.528-.74-.788-1.026-1.05-2.123-2.051-3.339-2.881-1.036-.71-2.611-1.675-3.92-1.186-1.282.478-1.229 2.085-1.335 3.205a20.48 20.48 0 0 1-.756 3.899c-.827 2.758-2.433 5.584-5.277 6.623-.607-3.632-1.135-8.106-4.858-9.911-1.223-.595-2.724-.641-3.223.869-.276.822-.118 1.657-.228 2.5a5.838 5.838 0 0 1-.93 2.458c-.464.698-1.097 1.304-1.88 1.627-.568.237-.68-.265-.977-.719a25.021 25.021 0 0 1-.99-1.647c-.54-.986-1.007-2.02-1.307-3.101-.315-1.145-.226-2.169-.242-3.328-.025-1.714-1.686-2.553-3.205-2.014-1.72.61-2.825 2.53-3.485 4.122-.348.84-.626 1.722-.786 2.617-1.775-1.608-1.77-3.878-2.398-6.007-.737-2.502-3.64-1.668-5.05-.288-1.51 1.472-2.628 3.53-3.29 5.517-.112.335-.377 1.24-.391 2.081l-1.885.387c-1.112-5.562-1.014-13.905 4.933-16.788.95 3.176 3.747 7.062 7.27 7.487.798.096 1.682-.01 2.326-.527.745-.598.694-1.364.686-2.227-.016-1.902.714-3.787 1.6-5.445.184-.347.38-.695.598-1.024.056-.087 1.08.212 1.178.233.633.147 4.091.844 4.046 1.584-.1 1.568-.665 3.133-1.351 4.529-.372.758-.807 1.493-.602 2.371.173.746.789 1.259 1.51 1.451 1.725.46 3.789-.534 5.304-1.282a22.749 22.749 0 0 0 5.413-3.752c.302-.28 1.426-1.872 1.92-1.365.206.21.096 1.197.091 1.453-.01 1.03-.17 2.064-.489 3.045-.294.904-1.042 1.887-.648 2.879.6 1.522 2.75 1.332 3.96.822 1.37-.58 2.622-1.469 3.72-2.465 1.413-1.293 2.596-2.85 3.378-4.6.198-.44.495-2.069.885-2.205.346-.118 1.164-.593 1.519-.524.646.647.881 1.645.94 2.53.064.95-.347 1.92-.166 2.849.337 1.729 2.217 2.11 3.646 1.493 1.992-.854 3.57-2.916 4.68-4.714.899-1.458 1.663-3.084 2.002-4.775.134-.098.868.085 1.028.102l2.056.2c.187.019.871-.026.896.187.055.46.178.919.384 1.338.472.948 1.37 1.467 2.432 1.378.78-.066 1.526-.382 2.21-.753.488-.264.956-.572 1.407-.897.478-.35.598-.398 1.153-.318 4.554.665 9.054 2.598 13.277 4.345 4.734 1.958 9.184 4.479 14 6.244-1.339 2.102-2.815 3.78-4.864 5.248-2.193 1.573-4.712 2.89-7.371 3.445.104-2.382-.316-4.801-.935-7.093zm53.542-5.78c0 5.435-1.356 10.787-3.74 15.656.151-1.218.365-2.914-1.053-3.448-1.16-.435-2.588-.07-3.689.372.159-1.507.02-3.141-.545-4.55a5.02 5.02 0 0 0-.86-1.438c-.277-.32-.539-.358-.445-.801.088-.406.163-.812.235-1.221.29-1.742.419-3.512.38-5.28a28.269 28.269 0 0 0-.828-6.172c-.132-.524-.121-.69.073-1.197.126-.333.58-2.09.874-2.063 2.464.24 5.093-2.11 6.701-3.68 1.864 4.365 2.897 9.071 2.897 13.823zm-49.228 32.05c-4.372.464-9.273.357-13.315-1.564-.522-.237-1.088-.868-.63-1.428.53-.655 1.655-.57 2.4-.655a87.27 87.27 0 0 0 3.242-.422c.48-.072 1.018-.251 1.496-.157.619.12 1.239.215 1.861.293 5.219.665 10.546.451 15.79.334-2.803 2.476-7.268 3.22-10.844 3.6zm-14.975 2.237c-3.009.972-6.227 1.4-9.368 1.658-4.252.35-8.682.377-12.857-.606-1.962-.463-4.209-1.202-5.845-2.385-.655-.476-1.362-1.156-1.451-2.009a1.51 1.51 0 0 1 .18-.883c.299-.55.95-.308 1.506-.283 4.414.183 8.842.06 13.251-.107 2.326-.091 4.653-.209 6.973-.35 1.04-.065 2.078-.129 3.114-.206.588-.043 1.12-.122 1.691.04a8.324 8.324 0 0 1 1.578.64c1.245.663 2.222 1.614 3.165 2.645.946 1.04-1.175 1.597-1.937 1.846zm-21.613 4.007c-.745.646-2.316.79-3.252 1.02a59.236 59.236 0 0 1-4.183.85 69.609 69.609 0 0 1-8.29.854c-5.077.219-10.805.208-15.594-1.699a74.655 74.655 0 0 0 10.467-2.755 63.48 63.48 0 0 0 5.039-1.973c1.239-.553 2.38-.575 3.728-.438 2.594.262 5.136 1.015 7.595 1.843.951.317 1.893.658 2.835 1.005.445.16 2.432.657 1.655 1.293zm-74.903-50.8c-.382-2.158.664-3.793 2.67-4.551 2.313-.873 4.9-1.314 7.365-1.405-3.595 3.31-6.337 7.462-8.164 11.984-.81-1.918-1.5-3.974-1.871-6.028zm-1.23 23.341c0 .337.007.668.023 1.002-1.64-1.245-3.1-2.772-4.346-4.41-1.184-1.556-1.997-3.183-.985-5.08.746-1.396 2.072-2.416 3.3-3.37 1.287-1 2.645-2.005 4.121-2.713-1.495 4.7-2.113 9.65-2.113 14.571zm11.612-40.685c2.14-1.668 5.035-2.731 7.617-3.445-.919 1.608-1.57 3.408-2.097 5.179-.368 1.236-.464 2.31-.52 3.584-.022.488-.04.974-.061 1.46-.009.193-.698.625-.842.751-.894.785-1.752 1.626-2.683 2.366-1.755-2.502-4.717-7.336-1.414-9.895zm50.607-21.002c2.414.043 4.669 1.12 6.487 2.663a45.887 45.887 0 0 0 3.95 3.02c.87.593 1.945 1.448 3.012 1.627-2.647-.384-5.32-.698-7.995-.783-.39-.016-.783-.021-1.175-.016-.534.009-.74-.005-1.218-.288a30.564 30.564 0 0 0-3.237-1.674c-2.081-.922-4.273-1.537-6.5-1.985 1.882-1.551 4.2-2.609 6.676-2.564zm99.57 7.985c-4.05-.937-5.031-5.779-7.902-8.193-2.957-2.486-6.945-2.251-10.325-.812-1.09.468-2.465 1.2-3.934 2.232-3.036-1.54-6.094-1.016-8.05-.75-3.105.428-7.034 2.054-8.585 2.903-3.002 1.645-3.835 3.376-5.53 4.373-.64.379-2.63 1.513-6.547 2.143-5.405.869-9.227.431-11.856.326-7.725-.525-15.88-2.08-18.651-2.457-1.4-.36-5.534-3.354-8.766-6.084-4.834-4.086-6.144-4.27-8.323-4.529-8.13-.964-11.634 4.634-11.648 4.655 0 0-3.81-.165-6 0-4.656-3.226-10.446-4.15-15.159-3.119-2.388.566-4.593 1.672-6.327 3.405-.034.035-1.944 1.875-2.991 4.826-.038.11-1.346 3.512-.745 7.464-6.632 1.554-9.733 3.718-10.389 4.175-1.643 1.138-2.417 3.045-2.66 4.316-.364 2.27.363 4.73 1.48 6.823-2.434.308-4.895.927-6.456 1.58-1.047.487-4.598 2.189-4.118 6.974.004.043.139 2.137 1.859 6.629-2.51 1.263-5.541 3.96-6.487 4.874-2.59 2.513-2.398 5.506-2.382 5.723l.002.022c.63 4.782 6.99 10.036 9.353 11.56 2.787 10.985 13.431 17.712 20.73 20.5.174.069 9.91 4.15 19.522 3.242 5.91 3.776 17.36 3.317 18.32 3.322 5.864.032 12.594-1.346 12.655-1.357 6.34-1.132 6.503-2.371 6.76-3.696 9.95.94 17.968-1.202 18.245-1.266 3.902-.92 4.452-1.833 5.088-2.827 8.293.649 14.446-.566 16.376-1.066 4.927-1.268 7.058-3.135 8.386-4.663 4.436-.037 6.43.027 7.825.41 4.08 1.116 8.843.122 10.25-.23 4.353-1.173 8.867-3.728 12.83-7.964 1.25-1.918 2.36-3.915 3.28-6.052 3.963-9.219 4.009-19.536.099-28.782-.164-.39-.335-.771-.51-1.15 4.617-5.468 5.355-11.066 5.5-12.86.036-.425.047-.572.305-.903.66-.839 1.259-1.923 1.504-2.521.871-2.128.946-4.588-.037-6.693-1.125-2.414-3.45-3.915-5.99-4.503z" fill="#293982"/><path d="M69.95 77.417c-3.92-.633-5.854-4.549-3.533-10.02 1.161.242 4.065 2.566 4.594 3.292.148.967-.724 2.417-1.4 3.048-1.055.974-.788 1.61.823 1.353 1.207-.192 2.9-1.207 3.627-2.368.728.726 3.82 1.933 3.82 1.933-1.884 2.9-4.609 3.293-7.931 2.762zm14.756-4.794c-3.096.582-6.001.582-10.45-2.903-2.746-2.147-4.646-5.804-7.164-6.965-2.512-1.159-5.087.123-7.351 2.516-.87.918-.728 1.695.582 1.111 1.223-.543 2.756-1.307 3.627-1.015-2.177 7.112-.58 13.936 6.967 14.08-1.597 1.741-4.791 2.03-6.821 2.03-2.032 0-1.925.907-.146 1.164 7.114 1.015 13.497-1.889 18.045-7.695l2.909-.579c1.93-.58 1.321-2.027-.198-1.744zm86.361-3.191c-2.465-.436-4.791-1.162-6.527-3.63-.723-1.02-2.759-1.16-4.503-.87-1.38.229-4.578 2.331-5.514 3.482-1.309 1.595-.436 3.05 1.453 2.756 1.885-.289 4.497-2.465 5.225-3.191.722-.724 1.157-1.013 2.61.146 1.45 1.16 4.065 2.466 7.112 2.466 1.885 0 1.883-.855.144-1.16m10.862 72.266c.424 0 .798.03.798.48 0 .478-.654.397-1.133.397h-.541v-.877h.876zm.369 1.387c.47-.016.94-.272.94-.963 0-.744-.575-.934-1.213-.934h-1.483v3.521h.511v-1.624h.654l.9 1.624h.582l-.891-1.624zm-.543 2.972a3.113 3.113 0 0 0 3.138-3.132 3.115 3.115 0 0 0-3.138-3.133 3.116 3.116 0 0 0-3.14 3.133 3.113 3.113 0 0 0 3.14 3.132zm0-5.754a2.617 2.617 0 0 1 2.63 2.622 2.62 2.62 0 0 1-2.63 2.623 2.62 2.62 0 0 1-2.63-2.623 2.616 2.616 0 0 1 2.63-2.622z" fill="#293982"/></g></svg>