<svg width="200" height="200" xmlns="http://www.w3.org/2000/svg"><g fill="none" fill-rule="evenodd"><path d="M81.25 30.962c2.68-1.164 7.515-.174 11.03-.502v.502H81.25" fill="#AAAAAB"/><path d="M79.245 31.462c.154-.679 1.255-.415 2.005-.5h7.52c-2.18 1.16-6.512.172-9.525.5M79.746 32.966c2.682-.835 8.849-.835 11.532 0H79.746M112.334 37.48c1.03-.834 5.491-.834 6.52 0h-6.52M77.74 37.48c4.418-.01-.859 1.603-3.008 1.003v-.502c.881-.29 2.946.605 3.009-.502M93.784 37.48c7.11-.516 2.607 1.616-2.005 1.003v-.502c.75-.085 1.851.18 2.005-.502M86.765 39.986c1.263.027 7.176-.223 4.513.502-1.58-.048-3.782 1.86-5.014.499 1.188.416 2.309-.705.5-.5v-.501M69.216 40.987h4.012c-.484 1.02-1.925 1.084-3.51 1.003.001-.501-.406-.596-.502-1.003M78.241 43.495h5.014c-.54.829-4.473.829-5.014 0M63.702 45c1.258.412 4.316-.976 4.01 1.001h-1.504c.085-1.086-1.778-.226-2.506-.499V45" fill="#E7881C"/><path d="M191.05 61.544c-.799 1.71-3.042 1.974-4.512 3.008 2.79.45 3.584-1.095 5.015-2.006.015-2.189.183-4.53-1.004-5.514-.346 2.015.48 2.862.502 4.512Zm1.503-9.525c-1.336 3.93 1.922 6.822 1.004 10.527-1.147 4.64-8.681 6.03-13.034 3.01-.664-1.47.319-2.59 0-5.015-1.91.598-.498 4.517-2.508 5.014-3.505-1.36-6.838.769-9.527 0-1.408-.93-.952-3.726-1.002-6.014 6.228-4.637 16.057-5.672 25.067-7.522Z" fill="#2E9E62"/><path d="M128.88 56.028h5.015c-.54.831-4.474.831-5.015 0M193.557 69.567c.834 2.018.834 7.507 0 9.525v-9.525M167.988 70.568c.829.543.829 4.475 0 5.015v-5.015" fill="#E7881C"/><path d="M92.28 93.632c-.277-.892-.258-2.083-1.002-2.506 1.354-3.443 4.075-4.616 9.526-4.012 9.554 1.061 23.086 8.384 27.074 13.537-.713-.043-1.42-.083-1.504.502 3.075 2.27 7.63 3.066 10.026 6.016-.794-2.483-4.275-4.603-6.517-7.521-3.095-4.023-9.862-6.912-11.531-9.525-6.065-9.497 4.684-14.601 12.533-16.044-4.296 4.628-13.873 8.265-8.522 15.544 4.868 6.62 16.05 14.04 21.057 19.05-3.468.709-8.9-.73-12.034-2.006-4.4 8.27 3.089 16.26 8.524 19.554-.144-2.78-4.52-5.445-5.515-9.024.704-1.135 2.03-1.648 2.507-3.01 4.334 1.523 4.685 5.908 7.522 10.03 1.654 2.403 4.69 3.258 5.013 7.018 2.141-.199 2.46-2.218 4.513-2.507.38 3.054-.343 5.007-1.506 6.517 2.24 1.548 4.99-.676 6.017-2.003.242-1.582-2.3-.376-2.507-1.506v-3.008c2.057 1.462 3.48.063 5.014.5-.364 2.955-.768 5.636-1.504 6.519-6.529 7.834-14.554-2.997-21.058-5.013.414-1.418-.706-1.298-.5-2.508-2.675-.335-3.902-2.114-7.02-2.005.417-3.384-5.019-4.01-8.022-5.517-.151-3.857-3.553-4.466-6.519-5.513v-2.005c-8.338-6.034-18.16-10.584-24.064-19.052v-.502" fill="#2E9E62"/><path d="M160.467 128.226c-4.219-1.463-4.657-6.707-9.527-7.522 1.678-3.985-2.968-4.268-5.013-6.015-.67 1.194 2.483 2.849 4.011 3.512-1.095 6.273 6.927 3.434 6.016 9.524-2.199-1.363-2.686.64-4.513 1.003-3.786-4.736-8.161-8.883-10.027-15.542 11.769-1.986 15.907 8.63 19.053 15.04" fill="#2E9E62"/><path d="M1.03 157.806c-.892.908-.502-5.325-.502-9.023 0-3.644-.391-9.454.503-8.522v17.545" fill="#AAAAAB"/><path d="M64.705 143.769c1.021-1.152 4.163-.18 6.016-.503-1.021 1.152-4.164.185-6.016.503M63.201 145.776h8.523c-1.688.833-6.837.833-8.523 0M27.101 156.304c-.041-.795.242-1.913-.5-2.004.534-.47.155-1.85 1.503-1.505-.609.896-.091 2.915-1.003 3.51" fill="#E7881C"/><path d="M52.671 46.502c2.275-3.406 5.015-6.348 8.524-8.52-2.999 2.683-5.652 5.71-8.524 8.52" fill="#AAAAAB"/><path d="M166.484 32.966c1.51.231 2.406 4.455.5 5.015 1.114-1.366.313-4.024-.5-5.015M157.96 35.974v.503c.787-.292 5.844.361 3.507 3.007v-2.005c-.928-1.5-3.59.636-4.008-.5-.081-.583.11-.893.5-1.005M154.951 37.981c-.898.063-1.057-.614-2.005-.502.049-1.79.234-3.445 1.504-4.013-.39 1.116-1.053 1.957-1.003 3.512.594.242 1.137.532 1.504 1.003M98.296 78.59c-.403 1.85-2.063.417-3.007 0-.363-2.535.552-3.794 1.504-5.012 1.983.493 3.639.694 5.012-.501-.564 1.623-2.923 1.75-4.51 1.002-1.312.528-1.64 2.036-1.505 4.01.456.87 1.757 1.297 2.506.5M117.85 75.583c-.426.743-1.261 1.077-2.507 1.002.172-1.834 1.718-2.295 3.009-3.007-.35 1.321-2.283 1.06-2.508 2.506.9.065 1.058-.613 2.005-.501M135.9 68.563c.278-1.225 1.94-1.068 1.504-3.008-1.575-.237-1.324 1.349-2.507 1.506.644-.86 1.036-1.973 2.507-2.007 1.314 1.46-.37 2.965-1.504 3.51M149.437 59.54c2.266-.029 7.138-6.399 6.016-2.007.043-.712.083-1.42-.502-1.505-1.236 1.775-2.723 3.295-5.514 3.513M194.56 43.997c1.36.206 2.07 2.383 1.003 3.51-2.13.29-2.325-1.35-3.01-2.507 1.415.09.627 2.383 2.509 2.005 1.457-.7-.143-2.475-.502-3.008M92.782 102.157c-1.617-1.727-4.126-2.56-4.512-5.515 1.555-1.191 3.287.793 4.01 2.005-1.258-.58-1.68-1.998-3.51-2.005.139 3.037 3.067 3.283 4.012 5.515M89.773 84.107c1.029-2.148 4.767-1.583 5.516-4.012.929 2.115-4.007 2.667-5.516 4.012M84.76 83.103c.26-2.08 4.511-.168 5.514-1.502-.26 2.078-4.51.165-5.514 1.502M68.715 81.6c.457-.871 1.757-1.297 2.507-.5.365-1.37-.996-1.01-1.002-2.008.878.459 1.741.932 1.504 2.509-1.468-.453-1.541-.453-3.01 0M70.22 75.083a2.543 2.543 0 0 1-1.505-1.505c-1.208-.157-2.428 2.186-3.51.501 2.08.574 1.955-1.056 3.51-1.002.148 1.021 1.358.982 1.505 2.006M70.72 75.083c3.208 1.35 3.812-3.471 5.015-1.004-1.021-1.047-2.885 3.232-5.014 1.004M87.266 69.567c-.612 1.566-4.574 2.192-5.515.499-1.573-.234-1.325 1.35-2.506 1.505.644-.86 1.036-1.97 2.506-2.004 1.001 1.79 4.194.763 5.515 0M127.376 35.974c.637-1.389 5.25-1.41 6.52-.501-2.315.027-4.905-.222-6.52.501M118.854 32.966c1.702 2.063-2.095 2.9-4.515 2.507.795-1.045 3.51-.171 4.515-1.004v-1.503M112.334 31.462c1.186-3.503 5.653-1.404 6.52 1.003-1.483-1.731-4.689-3.774-6.52-1.003M140.411 31.462c1.103-1.07 3.758-.59 4.513-2.006-.305-.028-.593-.075-.5-.5 2.602 1.044-2.08 2.732-4.013 2.506M105.316 34.971c-1.19-.277-2.08-1.937-1.003-3.008 1.283.52 3.455 1.807 5.014.502-.368 1.83-3.953.99-4.512 0-1.519.611.355 1.915.5 2.506M98.8 48.508a48.06 48.06 0 0 1 6.516-6.518 47.806 47.806 0 0 1-6.517 6.518M70.72 62.546c.698-1.14 1.735-1.94 2.508-3.005.226-1.399-2.733.39-2.507-1.005h3.51c-1.003 1.503-1.884 3.132-3.51 4.01M102.308 60.541c-.156.681-1.256.417-2.006.502-.508-2.345 2.01-1.664 1.503-4.011 1.801 1.353-1.355 1.945-1.001 3.51h1.504M64.705 74.08c-.631-.125-.506-.999 0-1.003.359-1.363-2.365.358-2.005-1.005 1.328.59 2.951-.96 3.007 0-.006.997-1.368.64-1.002 2.007M63.201 65.555c-1.312 1.438-3.514-.47-3.51-2.006 1.068-1.772 4.073-1.608 7.02-1.503.081-1.42-3.092.416-3.01-1.003 1.623.414 4.338-.625 4.513 0-.7 2.81-6.689.329-8.022 2.506.066 1.606 1.136 2.208 3.01 2.006M56.18 71.07c-.482 3.158 2.246 3.104 3.51 4.513-2.177-.663-4.118-1.562-4.01-4.513h.5M46.656 66.058c-1.25-.646.146-2.813 1.002-3.01-.54 2.546.926 3.086 2.006 4.013-1.45-.224-2.286-1.057-2.508-2.509-.487.014-.389.614-.5 1.003v.503" fill="#E7881C"/><path d="M47.156 77.085c1.369.367 1.01-.995 2.006-1-.446.89-1.4 1.273-1.003 3.007-.51-.327-.518-1.15-1.503-1.003-1.322-.15-1.647.694-1.505 2.006-1.73-1.442 1.2-2.443 2.005-3.01" fill="#211D1D"/><path d="M55.179 46.502a28.38 28.38 0 0 1 5.013-5.013 28.373 28.373 0 0 1-5.013 5.013M68.214 61.043c-.7 2.81-6.689.329-8.022 2.506.066 1.606 1.136 2.208 3.01 2.006h1.001c.733-.477 3.279-1.681 4.011-.501" fill="#E7881C"/><path d="M47.658 63.047c-.54 2.547.926 3.087 2.006 4.014h1.001c.86-1.483.744-3.938 3.01-4.014-.577 1.407-.577 2.608 0 4.014 1.396.439 3.05.625 4.01 1.502-.88.457-.916 1.76-1.504 2.507-.483 3.158 2.245 3.104 3.51 4.513 1.28-.059 2.58-.095 2.506-1.504-1.101-1.571-3.989-1.36-4.01-4.013.587-.748.623-2.05 1.503-2.504.107-1.778-2.351-.992-2.005-3.01.184-1.487.87-2.473 2.005-3.008.273-1.775-1.775-1.233-1.504-3.008.833-1.173 2.662-1.348 2.508-3.51-1.564-.723-6.837 1.338-7.02-2.003-.114-1.788.722-2.622 2.507-2.509-.213.957-1.432.908-1.002 2.51 1.084.418 1.71 1.295 3.509 1 .633-1.205.645-3.03 1.504-4.011-1.957-.047-3.65-.363-4.011-2.007-.152-1.322 1.047-1.29 2.005-1.504.047 1.37-.834 1.01 0 2.006 1.596.742 4.677.004 6.017 1.003-.71 1.63-3.336 1.344-3.008 4.01 1.121 1.221 4.372.308 5.013 2.005-1.496 1.425-7.441 3.607-2.506 5.517" fill="#E7881C"/><path d="M65.205 66.058c-1.081 1.423-3.474 1.54-5.013 2.505-.12 2.125 1.042 2.97 2.508 3.51 1.328.59 2.951-.961 3.007 0-.006.996-1.368.639-1.002 2.006h.5c2.08.574 1.955-1.056 3.51-1.002.148 1.021 1.358.982 1.505 2.006h.5c3.208 1.35 3.812-3.471 5.015-1.004 2.108.104 4.192.18 4.512-1.505-5.36 1.398-19.99-.147-11.532-6.015-.42 1.084-1.297 1.709-1.002 3.507 2.585 1.936 6.2.606 7.521-1.503-.155 2.493 1.248 3.432 4.011 3.008.644-.86 1.036-1.97 2.506-2.004 1.001 1.79 4.194.763 5.515 0 1.986-1.118.448-2.995 1.504-4.513 2.516 2.505 8.575.898 9.526-2.508-1.332-1.357-4.128 1.99-6.015 0 1.102-1.904 4.806-1.21 6.015-3.005.537-1.875-1.244-1.43-1.002-3.011.997-.892 4.345-1.863 4.511.502 1.801 1.353-1.355 1.945-1.001 3.51h1.504c5.212-3.078 1.379-8.187-2.507-8.021-5.99.252-20.896 21.176-31.086 11.028-.135-2.142 1.83-2.179 2.507-3.507-1.732-.441-3.473-.874-4.511-2.007-.132-1.635.594-2.414 2.004-2.509-.006 1-1.367.641-1.002 2.007 1.468-.13 1.54 1.134 3.008 1.003h3.51c-1.003 1.503-1.884 3.132-3.51 4.01v1.003c13.364.985 20.275-8.797 28.078-15.041a48.06 48.06 0 0 1 6.517-6.518c4.489-4.269 11.667-2.262 19.052-2.004 6.28-6.117 17.125 1.781 23.063 0-4.729-1.288-8.616-3.416-13.536-4.513-2.314.027-4.904-.222-6.519.501-2.26 1.082-4.864 1.821-8.522 1.505h-6.52c-3.547-.197-6.07 3.277-8.021 3.009 1.529-3.485 5.633-4.394 10.026-5.015.795-1.045 3.51-.171 4.515-1.004v-2.004c-1.483-1.731-4.689-3.774-6.52-1.003-1.13 2.38-3.411 3.607-7.018 3.51-1.19-.278-2.08-1.938-1.003-3.01 1.283.52 3.455 1.808 5.014.503 1.137-.535 1.82-1.52 2.004-3.009-4.92-1.648-9.615 2.523-10.027 5.515-3.428-.583-6.399-1.622-10.026-2.005H79.746c-8.607.754-14.224 4.495-19.554 8.523a28.373 28.373 0 0 1-5.013 5.013c-5.996 7.877-14.845 19.051-18.88 27.217.926-1.416 5.808-2.35 8.351-2.148-.16 1.178-.793 1.881-.502 3.512 1.054.616 1.956 1.386 3.008 2.002 1.369.367 1.01-.995 2.006-1v-.502c-3.998-.742-2.972-5.342-1.504-8.021-.045-.792-1.279-.394-1.002-1.504" fill="#E7881C"/><path d="M79.245 59.54h-1.004c-.22-3.458-6.283-1.07-5.515-5.516-6.635 2.351-8.673-4.939-3.51-6.018-.09-.426.197-.47.502-.5 1.47.368-4.783 5.745 2.507 4.513.728-.774 2.567-.443 4.01-.502.346 1.68-.84 1.832-2.005 2.005-.365 1.368.997 1.01 1.004 2.004 3.358.185 4.918-1.429 7.52-2.004-.25 2.09-2.266 2.412-4.011 3.008.19 2.544 3.036 1.962 5.014 1.505.055-.948 1.657-.35 1.503-1.505.962 1.655-3.686 4.645-6.015 3.01" fill="#E7881C"/><path d="M86.765 53.522c-1.977-2.034-7.46-.562-7.52-4.513-2.576.707-6.772 1.017-7.521-1.503.088-1.584.352-2.99 2.006-3.008.219-.618.641-1.03 1.504-1.003.012 1.694-2.635 2.23-1.004 4.011 3.644.468 5.48-.871 8.524-1.004.212 1.717-1.501 1.509-2.005 2.507 2.516 2.678 6.493-.95 9.525-1.003-.547 1.794-3.002 1.678-4.01 3.01.369 2.568 3.029.907 5.014 1.003.453-.884 1.844-.828 2.005-2.006.784 1.809-3.846 5.16-6.518 3.509" fill="#E7881C"/><path d="M96.29 46.001c-4.224-.52-10.766 2.542-12.533-2.506h-.502c-.54.829-4.473.829-5.014 0h-.5c-.735-.434-1.59-.75-1.506-2.006.998-.005.639-1.367 2.006-1.001-.643 2.815 2.5 1.845 4.513 2.003.9.063 1.057-.613 2.006-.5 1.797 3.721 6.404 1.984 10.027 1.002 1.452.282-.77.785-.503 1.505 1.723 1.69 3.628-.694 5.517-.501-1.005.833-1.856 1.818-3.51 2.004" fill="#211D1D"/><path d="M90.274 34.971c1.1.907 1.919 2.094 3.51 2.508 7.11-.515 2.607 1.617-2.005 1.004v-.502c-1.635.13-2.413-.595-2.507-2.007.447-.222.897-.44 1.002-1.003" fill="#E7881C"/><path d="M86.765 39.986c1.263.027 7.176-.223 4.513.502-1.58-.048-3.782 1.86-5.014.499-2.394.65-4.926-1.936-2.507-3.006 1.651.018.865 2.478 3.008 2.005" fill="#211D1D"/><path d="M81.75 34.469c.647.692 2.18.498 3.51.502.14 1.35-3.53 1.429-4.01.502-1.048.212-1.327-.345-2.005-.502.05-1.276 1.868-1.182 2.506-.502M76.737 37.48h1.004c4.417-.01-.86 1.603-3.01 1.003v-.502c-1.047.21-1.326-.345-2.005-.502-1.382-3.492 2.614-.77 4.011 0M68.715 38.483c-.152 1.168-1.07 2.158.501 2.504h4.012c-.484 1.02-1.925 1.084-3.51 1.003-1.784.112-3.004-.337-3.51-1.502-.072-1.578 1.287-1.723 2.507-2.005M63.702 42.491c.137 1.47-2.01 1.864 0 2.51 1.258.41 4.316-.977 4.01 1h-1.504c-2.372.034-4.934.258-5.514-1.503.018-1.653 1.425-1.917 3.008-2.007M51.168 56.028c1.614.112 2.12-.887 4.01-.502.245 2.083-2.89.789-3.007 2.51.377 2.127 2.778 2.234 4.512 3.007-3.595 1.926-8.185-1.96-5.515-5.015M140.411 31.462c1.103-1.07 3.758-.59 4.513-2.006-.305-.028-.593-.075-.5-.5-4.533-.018-6.91 2.114-12.035 1.504.462 3.064 5.839.9 8.022 1.002M158.963 42.491c1.916.081 1.63-2.046 2.504-3.007v-2.005c-.928-1.5-3.59.636-4.008-.5-.081-.583.11-.893.5-1.005.736-1.27 3.216-.797 3.508-2.508 0-.502.409-.595.504-1.001-1.836-2.034-6.379-.705-7.52 1-.39 1.117-1.054 1.958-1.004 3.513.594.242 1.137.532 1.504 1.003 2.679.164 3.232 2.45 4.012 4.51M133.895 56.028c-.54.831-4.474.831-5.015 0-6.886-1.135-9.68-6.363-12.032-12.031-1.839 17.449 29.985 18.193 28.076-1.004-1.922 6.1-4.23 11.815-11.029 13.035M102.308 51.015c2.912.432 4.17 2.514 4.512 5.515 2.496-.51 2.9-3.118 3.51-5.515-.952-3.14-7.022-3.249-8.022 0M157.96 58.035c1.793-.378 3.185-1.16 3.507-3.008-1.098-1.109-2.046.495-4.008 0-.113.387-.014.988-.501 1.001-.366 1.372.997 1.01 1.002 2.007M155.453 57.533c.043-.712.083-1.42-.502-1.505-1.236 1.775-2.723 3.295-5.514 3.513-.349.987-2.798-.126-3.009 1 2.866 2.854 7.901.224 9.025-3.008M144.424 62.046c-.814 1.862-3.822 1.528-4.013 4.012 2.012-.355 6.564-2.294 4.013-4.012M137.404 65.555c-1.575-.237-1.324 1.349-2.507 1.506-.593.936-3.895 1.748-2.508 3.005.668-1.004 2.227-1.115 3.51-1.503.28-1.225 1.94-1.068 1.505-3.008M128.88 68.062c-.89 1.953-3.713 1.968-4.011 4.512 2.377.068 6.898-2.607 4.011-4.512M53.173 74.08c.399-1.443 1.016-2.663 1.504-4.014-2.395-.11-2.687-2.324-6.016-1.503-.303 1.2-.721 2.287-.502 4.011 1.568.605 2.488 1.86 5.014 1.505M122.363 72.574c-1.267-1.119-2.24 1.094-4.011 1.004-.35 1.321-2.283 1.06-2.508 2.506.9.065 1.058-.613 2.005-.501 1.294-1.214 4.766-.249 4.514-3.009M55.68 80.095c-.393 2.28-3.876 1.471-3.009 5.012.535.361 2.31 1.959 3.01.502-1.191-1.061.884-3.094 2.505-3.007-.049-1.42-2.183-3.315 0-4.012.743-.625 2.549.923 3.58-2.172-1.419-.086-3.997.257-6.086-.334-1.368.365-1.01-.996-2.006-1-1.067 1.269-4.138.54-4.01 3.005.301 3.453 4.811 1.598 6.016 2.006M87.767 80.095c2.92 2.043 7.564-3.255 5.516-4.512-2.631.712-5.893.79-5.516 4.512M112.837 75.583c-2.178-.008-3.605.742-4.011 2.506 1.671-.497 4.455.112 4.01-2.506" fill="#E7881C"/><path d="M68.214 79.092c-1.7-1.476-3.125-3.225-6.518-3.008-1.348-.31-1.735.591-2.006 2.506-1.397 6.484 6.228 2.59 8.524.502" fill="#E7881C"/><path d="M87.266 76.084c-2.319 1.288-5.18 2.94-8.02 1.001-1.653 3.086-6.676 2.025-9.026 2.007.878.459 1.741.932 1.504 2.509-1.468-.453-1.541-.453-3.01 0-1.573-.238-2.047.622-2.506 1.502.436 1.262 4.115 1.871 3.008 3.009-4.236.638-9.246-6.109-10.528.5 2.416 1.765 6.206.612 9.526.502-2.079 3.913-9.324 2.298-13.035 1.004.01 1.18-.864 1.476-.502 3.008 1.586 1.525 3.703.781 5.515 0-.238 4.08 4.77 2.918 7.52 4.011-2.446 1.846-5.653.457-8.022-.502-.26.742-.741 1.264-1.002 2.007 1.414 1.924 4.744 2.315 6.017.5 1.525 2.093 5.298 4.288 7.52 1.505.272-1.777-1.775-1.234-1.504-3.008a4.507 4.507 0 0 0 2.005-2.007c-.503.003-.596-.406-1.002-.502-3.573-.425-3.657-5.094-.502-6.016 1.847-1.311 4.19-3.718 7.52-2.007 1.245.077 2.434.095 2.508-1-.729-.276-2.59.584-2.507-.502-2.501-.252-1.412-3.978.502-4.011v2.508c3.98 1.07 6.607-2.916 8.02-6.018M38.633 81.6h3.008v-2.006c.028-.64.643-.695.501-1.505-2.078.575-1.953-1.053-3.509-1.004-3.444.402-3.762 4.203 0 4.516M50.165 81.1c-1.276-.064-1.945-.732-2.006-2.008-.51-.327-.518-1.15-1.503-1.003-1.322-.15-1.647.694-1.505 2.006.688 1.653 2.828 1.85 4.513 2.507.64.029.694.642 1.504.5.364-1.367-.997-1.009-1.003-2.002M99.3 80.095h2.505c.16-2.35-2.319-1.34-2.506 0" fill="#E7881C"/><path d="M125.37 129.73c-1.614-1.727-4.144-2.539-5.515-4.51-4.206-2.48-8.384-4.986-12.032-8.023-2.163-1.348-3.36-3.66-5.014-5.515-4.917-5.319-24.918-12.033-17.549-24.568.81-1.375 2.488-1.98 4.513-3.007 1.029-2.148 4.767-1.583 5.516-4.012-2.559-1.594-2.932 1.197-5.015 1.506-.26 2.078-4.51.165-5.514 1.502h-.502c-.204 3.927-4.245 4.542-8.023 3.51-1.384 1.532 1.765 1.572 1.506 3.51 1.214.456 1.326 2.016 1.504 3.509-1.21-.962-1.991-2.354-3.01-3.51h-.5c-.813-.755-3.7-.755-4.513 0-.365 1.368.997 1.01 1.003 2.004 1.85 1.161 4.69 1.329 5.014 4.014-1.65-.023-2.496-.846-4.513-.5-.615 2.283 1.759 1.582 2.006 3.007-2.787-.614-2.048 2.295-3.008 3.51-1.11-1.05-3.339-.395-4.011.5 4.283 3.21 9.4 5.344 14.038 8.023 4.882 2.818 9.757 5.273 14.04 8.522 1.438 1.235 3.564 1.786 4.51 3.51 1.832.343 2.445 1.9 4.012 2.508.722.28 1.223.78 1.504 1.503 8.743 5.796 16.705 12.374 26.572 17.046 1.776 1.066 4.023 1.661 5.516 3.01 9.49 4.242 23.461 3.767 26.573-6.02-2.926.554-4.269 3.866-8.524 4.012-10.711.373-21.447-12.264-30.584-15.04" fill="#E7881C"/><path d="M78.743 103.66c-2.372.363-3.296-.715-4.513-1.503v-2.51c1.796-1.737 4.803-.596 7.02 0-.868 2.426-4.164-.605-5.015 1.506-.031 1.704 2.576.769 2.508 2.507M79.746 105.164c.986.995 2.864.32 4.01 0 1.086-2.34-.909-4.36-1.504-6.517 3.033 1.144 4.002 4.354 4.513 8.02-1.565 1.766-6.959 1.29-7.02-1.503M86.264 110.178c1.283 1.135 3.536.202 4.512-.502-.076-2.43-.967-4.048-2.006-5.513 2.474-.294 4.543 4.14 4.513 8.02-2.37.878-6.818.813-7.019-2.005M96.29 117.197c-1.278-.058-2.579-.094-2.506-1.504 1.914.242 3.2-.144 4.011-1.004.113-2.452-1.528-3.149-1.504-5.515 1.93 1.246 3.082 3.27 3.51 6.017 2.018 1.568-2.259 3.706-3.51 2.006M100.302 120.205c1.125 1.067 3.304.356 3.51-1.003-.163-1.844-1.238-2.776-1.504-4.513 2.573.936 3.507 3.512 3.509 7.02-1.556.935-5.654.85-5.515-1.504M107.321 125.723c.314-1.194 3.086.075 3.51-1.005.156-1.992-1.159-2.52-1.003-4.513 1.792 1.381 3.038 3.313 3.009 6.518-1.98 1.015-4.22.091-5.516-1M115.844 131.235c-1.895-1.137 1.728-.888 2.005-1.505.135-1.805-.925-2.414-1.001-4.007 1.609-.443 1.038 1.298 2.006 1.5v.502c.389 1.114 1.051 1.957 1.001 3.51-.73.737-3.281.737-4.01 0M125.872 136.248c-1.895-.109-4.52.51-4.512-1.503 1.235.066 2.415.076 3.008-.503.324-1.994-1.327-2.013-1.003-4.01 1.766 1.12 3.219 3.938 2.507 6.016M127.376 138.757c.729-.274 2.591.586 2.507-.503.133-1.805-.925-2.416-1.003-4.012.857-.021 1.298.374 1.503 1.003.622 1.386 1.466 2.548 1.506 4.515-1.045.792-4.673.959-4.513-1.003M135.9 143.769c-1.6.43-1.55-.788-2.508-1.004.737-1.102 3.87.196 3.008-2.504-.693-.309-.074-1.931-1.001-2.007 1.641-.953 3.055 2.612 3.007 5.012-.583.422-1.344.665-2.506.503M141.915 146.779c.896-1.11 1.661-2.351 3.009-3.01 1.134 1.5-.724 3.36-3.009 3.01M151.944 147.782c-1.177.157-1.882.79-3.51.499.791-1.045 2.693-.983 2.506-3.007 1.685-.516.78 1.56 1.004 2.508M41.14 86.112c2.41-.843-.89 3.134-1.504 4.01.226 1.781 1.692 2.318 2.005 4.012-1.57 1.437-2.712 3.305-2.506 6.517.845.826 2.253 1.088 3.007 2.007-.723 1.947-1.942 3.405-1.503 6.516 3.334 3.607 6.706-1.133 7.52-4.511-3.306-.395-3.65-4.925-2.005-7.522-6.028-1.502-2.095-9.305 2.005-10.528-.833 2.509-3.297 3.388-3.509 6.517.556 2.571 4.745 2.363 6.518 1.004.028-.305.075-.594.501-.502.15-.986-.678-.994-1.004-1.506-.685-.64-.685-2.365 0-3.004 1.62-1.873-1.67-2.043-1.503-4.015.579-.631 1.76-2.655 0-1.502-.99.813-3.65 1.615-5.014.502-1.776.271-1.233-1.775-3.007-1.505-1.362 2.818-7.417.939-7.02 5.516 2.788.919 5.333-.42 7.02-2.006M32.617 84.107c-1.368.365-1.01-.997-2.006-1.004-1.298 2.327-5.801 5.268-3.008 8.522 4.443-.82 3.07-4.743 5.014-7.518" fill="#E7881C"/><path d="M32.617 92.629c.468 2.208 3.884 1.465 5.515 2.508-4.278.903-5.184 5.178-9.527 6.016-.066 1.236-.075 2.415.502 3.01 3.069.56 2.841-2.175 4.513-3.01.311 1.526 2.696.98 3.008 2.507-4.935-1.03-6.777 5.036-4.512 8.022 2.421.56 3.423-2.896 5.013-1.504-.592 2.374-5.522 2.662-4.011 5.515 1.936.242 2.228-3.754 3.51-2.507-.994 2.946-2.73 8.45-.502 11.532 2.59-.25 2.163-3.52 4.513-4.014-.144 2.336-1.546 2.792 0 4.516 3.243.234 4.037-1.979 5.013-4.014h-3.51c-1.57-1.182-1.996-4.77-1.001-7.018-3.315-1.176-3.633-6.194-1.505-9.024v-1.001c-1.073-.933-2.992-1.023-3.008-3.01.186-2.823.914-5.102 3.008-6.016-1.64-1.675-1.4-4.46-2.507-5.514-.695 1.143-3.49.184-5.013.5-.16 1.162.08 1.923.5 2.506" fill="#E7881C"/><path d="M32.116 96.14c.367-.403-1.214-3.108-2.507-3.511-1.378.962-2.332 2.349-2.006 5.014 1.364.998 4.645.563 4.513-1.503M19.58 151.289c1.05.289 1.432 1.246 3.01 1.004 2.423-.753 2.57-3.78 4.01-5.514 1.202-.2-.278 2.282 1.504 1.502.419-3.092 3.734-3.285 5.014-5.516-.446-.146-2.195-1.355-1.002-1.502 2.45 1.3 4.554-.339 5.515-2.004.15-3.495.125-6.811-2.507-7.523-1.2.66-2.204 4.118-4.012 2.506 2.678-2.067 3.05-6.846 1.505-10.527-1.7.478-2.692 4.075-4.513 1.505 3.097-1.644 2.803-7.62 1.505-11.032-1.915.259-1.23 3.117-4.011 2.507-.734-.436-1.59-.752-1.504-2.006 3.568.494 3.278-6.509 2.507-10.526-1.863-.193-1.312 2.029-3.51 1.502-.734-.436-1.59-.749-1.505-2.005 4.766-.174 5.957-8.548 2.006-10.53-4.325 2.334-4.78 12.299-.5 15.041-1.442 5.052.815 9.124 3.509 11.533-.557.947-.64 2.367-1.003 3.509 2.86 3.324 2.55 9.82 5.013 13.536-4.026 3.662-5.402 9.973-12.033 11.033-1.576 1.597-1.37 4.977-4.512 5.013-2.145.695-2.575 3.105-4.512 4.011-2.345 1.082.232 3.928 0 6.016 3.833.041 5.494-3.227 5.515-5.517 5.347.116 5.342-3.449 4.512-6.016M50.165 96.14c-1.602.905-2.981 2.032-3.009 4.511.705.13.573 1.1 1.003 1.506 3.417.24 5.684-.67 6.518-3.011-1.296-1.093-2.586-2.965-1.504-5.012-1.76-.09-1.65 1.693-3.008 2.006M88.77 96.642c.139 3.037 3.067 3.283 4.012 5.515 2.99 1.352 5.772 2.917 8.022 5.012a47.913 47.913 0 0 1 6.517 6.518c7.437 4.802 13.55 10.536 24.065 17.047 6.336 3.922 27.437 19.444 31.086 5.514-3.646.727-5.975 4.116-11.03 3.512-4.393-.529-7.666-4.176-10.53-6.019-1.568-.6-3.343-1-5.012-1.501-.446-.893-1.4-1.278-1.003-3.011-2.348-.157-3.942-1.07-6.017-1.504-2.545-4.64-8.722-5.65-11.03-10.528-1.643-.029-1.917-1.426-4.01-1.003-.05-5.214-8.473-3.884-7.52-8.524-6.649-1.039-9.075-6.303-14.04-9.023-1.258-.58-1.68-1.998-3.51-2.005M54.677 104.163c-.436 1.94 1.225 1.783 1.504 3.006 1.444-.059 3.282.273 4.011-.502-1.222-2.12-2.424-4.26-3.008-7.02-3.45 1.067-4.1 4.928-8.022 5.517-.348 1.841-.866 3.811 0 5.516 2.264 1.215 4.122-.394 6.017-1.004-.348-1.535-4.057-4.693-.502-5.513M61.195 107.169c-1.951 1.726-4.755 2.599-6.016 5.014 2.97-.38 6.214-3.134 6.016-5.014M67.713 158.81c3.854-2.329 11.103-1.262 11.532-7.019-4.395-1.908-10.902 3.678-14.04 0 .806-1.7 3.5-1.513 6.017-1.505 1.146-1.362 5.366-1.756 3.51-4.51h-3.008c-1.688.833-6.837.833-8.523 0-1.28-.06-2.58-.095-2.507-1.506.729-.774 2.566-.44 4.01-.501 1.022-1.152 4.164-.18 6.017-.503h.501c3.064-.537 2.858-3.338 0-4.007-3.303-.207-7.673.652-9.526-1.005-2.303-1.692 2.662-2.962 3.51-1.505 3.032-.475 8.401 1.385 8.524-2.004-.741-4.106-9.275-.418-10.529-4.011 2.481-1.362 7.993.304 10.529-1.004.629-.206 1.025-.644 1.002-1.504-1.375-2.8-8.015-.341-9.025-3.508 2.665-1.872 8.73 2.577 10.028-1.003.526-3.041-6.511-2.842-7.52-6.015 2.124-.122 3.549.46 5.013 1.002 1.647.153 4.105 1.158 5.515 0 .238-1.576-1.35-1.325-1.504-2.508-2.12-.387-4.142-.871-5.014-2.507 2.777-.27 4.34.675 6.016 1.504 1.537 1.483 4.413-1.049 3.01-2.506-4.25-1.434-7.357-4.009-12.035-5.015-1.235-.065-2.415-.076-3.008.501-.44 1.611 1.301 1.04 1.505 2.007 1.575-.237 2.048.625 2.507 1.504-3.194.817-7.572.45-10.028 2.005-.397 2.57 2.902 1.442 4.011 2.507-.868 4.073-7.45-.661-8.523 3.008.592 2.417 5.256.76 5.515 3.51-1.636 2.208-8.116-.429-8.022 3.51 1.767 1.741 5.96 1.058 6.017 4.512-.67.718-2.841.718-3.51 0-2.213-.206-3.876.137-5.015 1.002-.066 1.238-.074 2.415.503 3.01 1.002 2.003 6.318-.303 6.517 2.505-1.753 1.59-5.173 1.514-8.523 1.506-1.984 3.027 1.962 3.9 4.011 4.51h.501c.59.08 1.424-.085 1.505.502.9-.062 1.173.496 1.002 1.505-1.55 1.627-5.467.881-7.52 2.007-2.06 1.57-.094 3.742 1.003 5.012 2.188 1.823 7.518.504 8.522 3.51-2.58 1.457-6.71-2.028-9.024.501.429 5.846 9.584 4.184 13.538 5.014-1.887 2.293-6.811 1.545-10.029 2.507-.221.446-.44.895-1.002 1.001-.147 2.488 1.997 2.683 3.008 4.013 6.155 2.558 15.536 1.333 22.06 0 2.446-1.397 4.774-2.916 6.017-5.515.946-2.57.198-4.792-1.003-6.518-5.507-.778-9.467 5.172-14.038 2.005M48.661 126.723h.5c.996-.676-.157-3.5 1.504-3.51.113-4.233 2.622-6.069 4.012-9.025-3.483-1.076-6.26-.315-8.523-3.006-.336 2.338-3.321 2.024-3.51 4.51.101 1.57 1.293 2.053 2.006 3.01 3.34.655 5.275-2.73 7.02-2.007-1.76 2.92-4.887 4.474-5.516 8.525.777.56 1.044 1.629 2.507 1.503M13.565 126.221c-1.46-1.381-1.66-4.023-3.01-5.517-1.313 3.7-1.936 8.092-3.007 12.037 2.78.496 4.77-3.844 6.017-6.52" fill="#E7881C"/><path d="M47.658 131.235c-.095-2.434 2.927-1.75 3.007-4.011-1.415-.414-1.298.706-2.506.5h-1.003c-1.579.244-1.134-1.536-3.008-1.001-.167 1.67-1.452 2.225-1.003 4.512.563.105.782.556 1.003 1.005 7.513 1.038-7.292 3.23-3.007-4.515-1.947-.06-2.534-1.478-3.51-2.505-3.294 5.171 3.017 7.744 2.506 12.031.522 1.152 3.58-.238 4.011 1.003-2.15 2.054-7.931 2.499-5.515 7.522 1.587 1.37 3.948-1.009 4.512 1.003-.67.498-.984 1.352-2.004 1.502-3.754.41-4.12-2.566-6.52-3.51-.76 1.58-1.67 3.009-2.004 5.013.865 1.308 1.804 2.545 4.01 2.51 1.813-.361 1.433-2.912 3.51-3.008-2.751 4.763-2.685 13.044 4.011 11.531-3.254 5.635-10.405-1.697-8.022-6.517-4.96.949-5.602-2.42-6.517-5.517-5.515 5.18-10.968 10.426-15.543 16.545 1.361 1.373 3.623 2.857 5.515 1.002 2.076-1.096-.136-6.484 3.008-6.515-.467 3.809.467 6.216 3.51 6.515.986-.85 2.139-1.536 2.506-3.006-2.768-1.11-3.982-6.096-2.004-9.024.534-.47.155-1.85 1.503-1.505-.609.896-.091 2.915-1.003 3.51.416 2.26 1.184 4.162 3.51 4.512 1.637-.37 1.676-2.336 3.51-2.508-2.078 3.017-2.246 9.339 2.507 9.527 2.267.408 2.97-3.35 4.513-2.007-.304 1.87-2.305 2.043-2.508 4.012 2.833 1.084 6.788.062 8.023-2.005.579-2.029-1.05-3.57.5-6.015-.34-1.166-1.666-1.344-2.005-2.509-1.574-2.195.753-4.055 1.003-6.016-.312-1.36-2.095-1.25-2.006-3.01-.823.086-.823-3.091 0-3.005-.527-2.2 1.696-1.648 1.504-3.512-.515-1.156-1.725-1.618-1.504-3.508.956-1.218 1.058-3.287 3.008-3.512 1.164-1.413-.578-3.133 0-5.514h.502" fill="#E7881C"/><path d="M30.611 166.33c-.106-.561-.557-.778-1.002-1.002-.212 1.628-2.084 1.594-2.508 3.01.91 1.094 1.687 2.325 4.011 2.004.056-.947 1.657-.346 1.505-1.503-.86-.645-1.972-1.039-2.006-2.51M194.56 43.997c-1.26-.914-.918-3.427-3.007-3.51-1.664 1.62-4.447 4.432-3.009 7.52-1.03.83-3.92 2.402-5.515 1.002 3.674-2.958 2.5-7.839 3.51-11.53 2.169-.166 1.234 2.778 3.51 2.507 1.625-3.81-1.894-6.878-4.012-6.52-3.33.568-3.467 11.31-9.025 7.52 2.552-1.623 5.081-3.274 5.014-7.52-3.234-3.04-6.55.184-7.521 3.512.071.649 2.314 5.272 0 7.019.457 5.01-8.894 6.602-8.523.501 2.16.18 1.902 2.778 5.014 2.004.97-.701 1.486-1.856 2.005-3.007v-4.513h-1.003c-.163.578-2.186 1.726-2.506.502 1.937-.737 2.88-2.469 4.513-3.51v-2.508c-6.084-4.22-3.032 8.412-9.527 7.022.35-1.324 2.282-1.06 2.507-2.507 1.113-1.366.312-4.024-.501-5.015-1.893-.222-2.354.988-3.51 1.503 2.344 10.218-9.319 14.16-15.543 19.053.965-2.043 2.341-3.675 3.01-6.016.954.213.905 1.431 2.505 1.002 3.406-1.454 6.03-8.105.501-9.024-1.263.741-1.627 2.385-4.01 2.005-1.654 10.212-8.13 15.603-15.542 20.055-5.563-.882-5.363 3.999-10.029 4.011-.693.818-3.253-.737-4.01 1.004-5.033 3.155-11.832 4.547-18.05 6.518-.565 1.623-2.924 1.75-4.512 1.002-1.311.528-1.64 2.036-1.504 4.01.456.87 1.757 1.297 2.506.5 1.996-.344 1.191-3.488 3.51-3.506-.398 1.734.557 2.114 1.003 3.006 5.863.015 6.376-5.322 10.028-7.521.134 2.078-.66 1.955 0 3.511 6.43 1.085 4.473-6.223 9.024-7.018.416 1.798-1.13 2.423 0 3.507 5.872.694 4.942-5.42 8.522-7.02-.065 1.238-.074 2.417.502 3.011 4.86-.155 4.715-5.313 8.023-7.018 2.873.814-1.501 3.175.502 4.51 3.764-1.917 5.514-5.85 7.52-9.526 1.314.668.958 2.224.501 3.51 6.382.128 6.47-6.139 8.523-9.026.73 1.11.338 3.342 1.505 4.014 5.622.273 5.218-5.48 6.517-9.528 2.177 3.81-.191 8.291-2.005 11.03 5.294.948 4.684-4.006 8.023-5.014.81.86 2.096 1.245 4.01 1.003 2.38-1.138 2.046-7.637 4.512-7.019-.28 1.826-1.214 2.995-.501 4.511 1.204 1.42 3.031-.69 4.01.502-.723 1.616-2.453 2.226-4.01 3.01-1.825-2.224-5.1 2.286-8.523 0 .09 1.76-1.694 1.648-2.006 3.007 8.375-1.82 18.276-2.113 24.569-6.017.636-2.44-2.92-2.345-1.506-4.01.663-.006.458-.877 1.004-1.003.63.207 1.024.645 1 1.505 1.415.09.627 2.383 2.509 2.005 1.457-.7-.143-2.475-.502-3.008" fill="#E7881C"/><path d="M171.998 38.982c-.163.578-2.186 1.726-2.506.502 1.937-.737 2.88-2.469 4.513-3.51-.157 1.215-3.087 2.218-2.007 3.008M172.499 38.982c1.088-1.695 1.606 4.02.502 4.513v-4.513h-.502" fill="#E7881C"/><path d="M174.505 36.978c.071.649 2.314 5.272 0 7.019.141-1.698.797-2.88.5-5.015-.88-.45-2.48-1.39-.5-2.004" fill="#E7881C"/><path d="M129.382 41.489c.386-1.72 1.387-2.82 3.007-2.005.07 2.575-.073 4.94-1.003 6.517-.876-2.295-.371 4.79-.5 6.52-2.867-1.723-.61-8.65-1.504-11.032" fill="#FFF"/><path d="M41.641 81.6a12.175 12.175 0 0 0 2.507 2.507c-1.776.271-1.233-1.775-3.007-1.505.224-1.396-2.734.392-2.508-1.001h3.008" fill="#E7881C"/><path d="M38.633 77.085c.906-1.352 1.84 1.465 4.011.502.212 1.048-.343 1.33-.502 2.007h-.5c.027-.64.642-.695.5-1.505-2.078.575-1.953-1.053-3.509-1.004" fill="#211D1D"/><path d="M9.554 156.806c1.644-1.199 1.685-3.998 4.512-4.011-2.145.695-2.575 3.105-4.512 4.011M14.066 165.328c1.361 1.373 3.623 2.857 5.515 1.002-1.18 2.648-4.82 1.013-5.515-1.002M54.677 168.84c-2.132-.417-5.144-3.765-2.006-5.015-.221.446-.44.895-1.002 1.001-.147 2.488 1.997 2.683 3.008 4.013" fill="#E7881C"/><path d="M178.015 72.574c-2.57 11.638-5.2 23.213-15.042 27.575 4.067-8.717 7.22-20.743 6.519-32.587 2.305-.694 5.527-1.655 7.52 0 4.224.682 2.518 1.908 1.003 5.012" fill="#FFF"/><path d="M78.743 83.605c1.236-.064 2.416-.075 3.008.502-.07.979-2.236 2.379-3.008 1 1.244.077 2.433.095 2.507-1-.729-.276-2.59.584-2.507-.502M71.724 93.13c-3.573-.425-3.657-5.094-.502-6.016-2.508 1.569-2.328 4.937.502 6.016" fill="#E7881C"/><path d="M50.165 81.1c.658.173.789.88 1.504 1.002.089 1.761-1.693 1.648-2.005 3.005-.172 1.815 3.651 2.778 1.001 4.015 1.62-1.873-1.67-2.043-1.503-4.015.579-.631 1.76-2.655 0-1.502.095-.405.503-.5.502-1.003.64.029.694.642 1.504.5.364-1.367-.997-1.009-1.003-2.002" fill="#211D1D"/><path d="M102.81 111.682c2.121 1.386 3.28 3.737 5.013 5.515-2.163-1.348-3.36-3.66-5.014-5.515M119.855 125.22c1.916 1.424 4.308 2.377 5.515 4.51-1.614-1.727-4.144-2.539-5.515-4.51" fill="#E7881C"/><path d="M137.905 146.779c-2.088-.752-4.259-1.424-5.516-3.01" fill="#211D1D"/><path d="M72.225 92.126c-.734-.434-1.59-.747-1.504-2.003.582-1.06 4.6-1.828 5.014 0-.813-.756-3.7-.756-4.513 0-.365 1.367.997 1.01 1.003 2.003" fill="#E7881C"/><path d="M76.235 90.123c.968.759 2.738 2.313 1.506 0 1.214.456 1.326 2.016 1.504 3.509-1.21-.962-1.991-2.354-3.01-3.51" fill="#211D1D"/><path d="M50.665 92.126c1.87-.532.795 1.883 2.508 1.506v.502c-1.76-.09-1.65 1.693-3.008 2.006-.144-.884 2.36-1.554 1.003-2.006.028-.305.075-.594.501-.502.15-.986-.678-.994-1.004-1.506M41.14 86.112c2.41-.843-.89 3.134-1.504 4.01-.446-1.977 2.918-2.725 1.505-4.01M32.617 92.629c-1.096-.072-1.077-1.263-1.003-2.506 1.076-.93 3.672-.339 5.515-.5-.695 1.143-3.49.184-5.013.5-.16 1.162.08 1.923.5 2.506M36.628 101.153c.763 1.243 1.893 2.118 3.51 2.507.043.71.082 1.42-.502 1.504v-1.001c-1.073-.933-2.992-1.023-3.008-3.01M67.713 110.178c-1.276-.062-1.944-.73-2.006-2.007.5-.55 2.734-1.88 3.51-.5-1.236-.066-2.416-.077-3.009.5-.44 1.611 1.301 1.04 1.505 2.007" fill="#E7881C"/><path d="M37.63 139.259c-.196 2.475-2.81 2.536-4.512 3.506-.446-.146-2.195-1.355-1.002-1.502 2.45 1.3 4.554-.339 5.515-2.004" fill="#211D1D"/><path d="M107.321 113.687a47.977 47.977 0 0 1-6.517-6.518 47.913 47.913 0 0 1 6.517 6.518M81.25 112.685c.406.096.5.504 1.002.501-.513 1.66-1.388 2.957-3.51 3.008-.094-.408-.502-.5-.5-1.003 1.536 1.483 4.412-1.049 3.008-2.506M77.24 116.194c.858.645 1.97 1.036 2.005 2.508-.991 1.48-4.946 1.294-6.017 0 1.647.153 4.105 1.158 5.515 0 .238-1.576-1.35-1.325-1.504-2.508M63.201 130.734c2.481-1.362 7.993.304 10.529-1.004-1.855 1.991-7.11.579-10.529 1.004" fill="#E7881C"/><path d="M61.696 138.254c-2.303-1.692 2.662-2.962 3.51-1.505h-3.51v1.505" fill="#211D1D"/><path d="M71.222 139.259c3.518-.348 3.981 4.582 0 4.007 3.064-.537 2.858-3.338 0-4.007M74.732 145.776c.406.094.5.501 1.003.501-.06 2.778-2.407 3.274-4.513 4.01 1.146-1.363 5.366-1.757 3.51-4.511M48.661 147.28c-2.06 1.571-.094 3.743 1.003 5.013-1.308-.864-2.542-1.804-2.508-4.012.447-.22.897-.44 1.003-1h.502M49.162 138.757c-1.984 3.027 1.962 3.9 4.011 4.51-3.208.705-6.63-2.598-4.011-4.51M51.168 134.745c-1.282-.055-.996-1.68-1.003-3.009.908-.952 3.876-2.445 5.515-1.002-2.213-.206-3.876.137-5.015 1.002-.066 1.238-.074 2.415.503 3.01M96.29 117.197c1.88.042 4.057.381 3.51-2.006 2.019 1.568-2.258 3.706-3.51 2.006M48.661 126.723h.5c.996-.676-.157-3.5 1.504-3.51-.42.583-.66 1.344-.5 2.51v.498c.096.405.503.5.5 1.003-1.415-.414-1.298.706-2.506.5.096-.403.503-.497.502-1.001M47.156 127.725c-1.579.243-1.134-1.537-3.008-1.002-.167 1.67-1.452 2.225-1.003 4.512.563.105.782.556 1.003 1.005-2.751-.843-.99-4.606 0-6.019 1.694-.19 2.14.87 3.008 1.504M47.658 131.235c-.732 2.373 1.668 4.76-.502 5.514 1.164-1.413-.578-3.133 0-5.514h.502M45.15 159.312a7.05 7.05 0 0 1 2.508 2.509c-1.951 2.346.862 4.645-1.002 6.015.579-2.029-1.05-3.57.5-6.015-.34-1.166-1.666-1.344-2.005-2.509" fill="#E7881C"/><path d="M144.924 143.769c1.134 1.5-.724 3.36-3.009 3.01.896-1.11 1.661-2.351 3.009-3.01M150.94 145.274c1.685-.516.78 1.56 1.004 2.508-1.177.157-1.882.79-3.51.499.791-1.045 2.693-.983 2.506-3.007" fill="#211D1D"/><path d="M135.399 138.254c.927.076.308 1.698 1.001 2.007 1.339.733-.208 2.75-1.503 2.504.124.546.997.341 1.003 1.004 1.162.162 1.923-.08 2.506-.503.048-2.4-1.366-5.965-3.007-5.012Zm-5.516 0c.084 1.09-1.778.23-2.507.503-.16 1.962 3.468 1.795 4.513 1.003-.04-1.967-.884-3.129-1.506-4.515-1.79.425 1.292 2.587-.5 3.009Zm-6.518-8.023c-.324 1.998 1.327 2.017 1.003 4.011-.593.579-1.773.57-3.008.503-.008 2.014 2.617 1.394 4.512 1.503.712-2.078-.74-4.895-2.507-6.017Zm-5.013-.5c-.594.743-1.894.78-2.508 1.504.73.737 3.281.737 4.011 0 .05-1.553-.612-2.396-1.001-3.51-1.82-1.094-.307.597-.502 2.005Zm-8.524-9.526c-.156 1.993 1.159 2.52 1.002 4.513-.423 1.08-3.195-.189-3.509 1.005 1.296 1.091 3.537 2.015 5.516 1 .029-3.205-1.217-5.137-3.01-6.518Zm-7.52-5.516c.266 1.737 1.34 2.67 1.504 4.513-.206 1.359-2.385 2.07-3.51 1.003-.14 2.354 3.959 2.439 5.515 1.503-.002-3.507-.936-6.083-3.509-7.02Zm-6.017-5.515c-.024 2.366 1.617 3.063 1.504 5.515-.81.86-2.097 1.246-4.01 1.004-.074 1.41 1.227 1.446 2.506 1.504 1.88.042 4.056.381 3.51-2.006-.428-2.746-1.58-4.771-3.51-6.017Zm-7.521-5.011c1.039 1.465 1.93 3.082 2.006 5.513-.976.704-3.229 1.637-4.512.502.2 2.818 4.649 2.883 7.02 2.005.03-3.88-2.04-8.314-4.514-8.02Zm-7.52-4.515c-2.217-.597-5.224-1.738-7.02 0v2.509c1.217.788 2.141 1.866 4.513 1.503.068-1.738-2.54-.803-2.508-2.507.85-2.11 4.147.92 5.015-1.505Zm1.002-1.001c.595 2.156 2.59 4.177 1.505 6.517-1.147.32-3.025.995-4.011 0 .06 2.793 5.454 3.269 7.019 1.503-.511-3.666-1.48-6.876-4.513-8.02Zm-25.57-37.604c-1.733-.773-4.134-.88-4.511-3.008.117-1.72 3.252-.426 3.008-2.509-1.89-.385-2.397.614-4.011.502-2.67 3.055 1.92 6.941 5.515 5.015Zm11.03-9.526c-.772-2.145 2.748-2.557 1.504-3.51-5.163 1.078-3.125 8.368 3.51 6.017-.768 4.446 5.295 2.058 5.515 5.517h1.004c2.124.118 3.97-.04 4.512-1.506-1.978.457-4.825 1.039-5.014-1.505 1.745-.596 3.762-.918 4.011-3.008-2.602.575-4.162 2.189-7.52 2.004-.007-.994-1.369-.636-1.004-2.004 1.165-.173 2.35-.325 2.005-2.005-1.443.059-3.282-.272-4.01.502-.941 1.23-4 .356-4.512-.502Zm11.533-2.508c.06 3.95 5.543 2.48 7.52 4.513 2.125.119 3.972-.038 4.513-1.503-1.985-.096-4.645 1.565-5.014-1.004 1.008-1.331 3.463-1.215 4.01-3.009-3.032.054-7.009 3.681-9.525 1.003.504-.998 2.217-.79 2.005-2.507-3.045.133-4.88 1.472-8.524 1.004-.405-.096-.5-.504-1.002-.5-.673-1.817 2.944-3.412.502-2.508-1.654.018-1.918 1.424-2.006 3.008.75 2.52 4.945 2.21 7.521 1.503ZM66.208 46c.085-1.086-1.778-.226-2.506-.499V45c-2.01-.645.137-1.039 0-2.509-1.583.09-2.99.354-3.008 2.007.58 1.761 3.142 1.537 5.514 1.503Zm11.533-2.506h6.016c1.767 5.048 8.31 1.985 12.534 2.506-.129-1.04-2.202-.136-2.507-1-.364-1.369.996-1.01 1.003-2.008-3.623.982-8.23 2.72-10.027-1.003-.949-.112-1.106.564-2.006.501-1.284 1.09-5.453.798-5.013-1.504-1.761.398-.58 1.755 0 2.508Zm-8.023-1.505c.001-.501-.406-.596-.502-1.003-1.57-.346-.653-1.336-.501-2.504-1.22.282-2.579.427-2.507 2.005.506 1.165 1.726 1.614 3.51 1.502Zm16.546-1.003c1.188.416 2.309-.705.5-.5v-.501c-2.142.473-1.356-1.987-3.007-2.005-2.42 1.07.113 3.657 2.507 3.006Zm5.515-3.006c.75-.085 1.851.18 2.005-.502-1.591-.414-2.41-1.601-3.51-2.508-.105.564-.555.781-1.002 1.003.094 1.412.872 2.137 2.507 2.007Zm-17.047 0c.881-.29 2.946.605 3.009-.502h-1.004c-2.182.51-2.305-1.04-3.509-1.505-.487.014-.39.614-.502 1.004v.501c.68.157.958.713 2.006.502Zm6.518-2.508c.937.027 1.06-.385.5-1.004-.637-.68-2.455-.774-2.505.502.678.157.957.714 2.005.502Zm79.217 92.753c-4.219-1.463-4.657-6.707-9.527-7.522 1.678-3.985-2.968-4.268-5.013-6.015-.67 1.194 2.483 2.849 4.011 3.512-1.095 6.273 6.927 3.434 6.016 9.524-2.199-1.363-2.686.64-4.513 1.003-3.786-4.736-8.161-8.883-10.027-15.542 11.769-1.986 15.907 8.63 19.053 15.04Zm-1.003 7.52c-6.529 7.835-14.554-2.996-21.058-5.012.414-1.418-.706-1.298-.5-2.508-2.675-.335-3.902-2.114-7.02-2.005.417-3.384-5.019-4.01-8.022-5.517-.151-3.857-3.553-4.466-6.519-5.513v-2.005c-8.338-6.034-18.16-10.584-24.064-19.052v-.502c-.278-.892-.26-2.083-1.003-2.506 1.354-3.443 4.075-4.616 9.526-4.012 9.554 1.061 23.086 8.384 27.074 13.537-.713-.043-1.42-.083-1.504.502 3.075 2.27 7.63 3.066 10.026 6.016-.794-2.483-4.275-4.603-6.517-7.521-3.095-4.023-9.862-6.912-11.531-9.525a12.882 12.882 0 0 1-1.036-1.987c.01-.005.022-.014.033-.018-.002.278-.112-.203-.188-.42h-.002c-2.934-7.94 6.576-12.306 13.726-13.619-4.296 4.628-13.873 8.265-8.522 15.544 4.868 6.62 16.05 14.04 21.057 19.05-3.468.709-8.9-.73-12.034-2.006-4.4 8.27 3.089 16.26 8.524 19.554-.144-2.78-4.52-5.445-5.515-9.024.704-1.135 2.03-1.648 2.507-3.01 4.334 1.523 4.685 5.908 7.522 10.03 1.654 2.403 4.69 3.258 5.013 7.018 2.141-.199 2.46-2.218 4.513-2.507.38 3.054-.343 5.007-1.506 6.517 2.24 1.548 4.99-.676 6.017-2.003.242-1.582-2.3-.376-2.507-1.506v-3.008c2.057 1.462 3.48.063 5.014.5-.364 2.955-.768 5.636-1.504 6.519Zm-28.078-5.012c-10.515-6.511-16.628-12.245-24.065-17.047a47.977 47.977 0 0 1-6.517-6.518c-2.25-2.095-5.031-3.66-8.022-5.012-1.617-1.727-4.126-2.56-4.512-5.515 1.555-1.191 3.287.793 4.01 2.005 4.965 2.72 7.391 7.984 14.04 9.023-.953 4.64 7.47 3.31 7.52 8.524 2.093-.423 2.367.974 4.01 1.003 2.308 4.878 8.485 5.887 11.03 10.528 2.075.434 3.669 1.347 6.017 1.504-.396 1.733.557 2.118 1.003 3.011 1.669.501 3.444.9 5.012 1.501 2.864 1.843 6.137 5.49 10.53 6.019 5.055.604 7.384-2.785 11.03-3.512-3.649 13.93-24.75-1.592-31.086-5.514Zm6.52 16.045c-2.089-.752-4.26-1.424-5.517-3.01-9.867-4.672-17.83-11.25-26.572-17.046a2.528 2.528 0 0 0-1.504-1.503c-1.567-.609-2.18-2.165-4.011-2.509-.947-1.723-3.073-2.274-4.512-3.51-4.282-3.248-9.157-5.703-14.04-8.521-4.638-2.679-9.754-4.813-14.037-8.022.672-.896 2.901-1.552 4.01-.501.96-1.215.222-4.124 3.009-3.51-.247-1.425-2.62-.724-2.006-3.008 2.017-.345 2.863.478 4.513.501-.324-2.685-3.164-2.853-5.014-4.014-.734-.434-1.59-.747-1.504-2.003.582-1.06 4.6-1.828 5.014 0h.5c.968.759 3.327 3.188 1.506 0 .259-1.938-2.89-1.978-1.506-3.51 3.778 1.032 7.819.417 8.023-3.51h.502c.26-2.08 4.511-.168 5.514-1.502 2.083-.31 2.456-3.1 5.015-1.506.929 2.115-4.007 2.667-5.516 4.012-2.025 1.027-3.704 1.632-4.513 3.007-7.369 12.535 12.632 19.25 17.55 24.568 2.121 1.386 3.28 3.737 5.013 5.515 3.648 3.037 7.826 5.544 12.032 8.023 1.916 1.424 4.308 2.377 5.515 4.51 9.137 2.777 19.873 15.414 30.584 15.041 4.255-.146 5.598-3.458 8.524-4.011-3.112 9.786-17.084 10.261-26.573 6.019Zm-59.163-30.585c-.095-.408-.503-.5-.502-1.003-1.676-.83-3.24-1.774-6.016-1.504.872 1.636 2.894 2.12 5.014 2.507.86.645 1.971 1.036 2.006 2.508-.991 1.48-4.946 1.294-6.017 0-1.464-.542-2.89-1.124-5.014-1.002 1.01 3.173 8.047 2.974 7.521 6.015-1.298 3.58-7.363-.869-10.028 1.003 1.01 3.167 7.65.707 9.025 3.508.023.86-.373 1.298-1.002 1.504-1.855 1.991-7.11.579-10.529 1.004 1.254 3.593 9.788-.095 10.529 4.011-.123 3.39-5.492 1.529-8.525 2.004h-3.509v1.505c1.853 1.657 6.223.798 9.526 1.005 3.518-.348 3.981 4.582 0 4.007h-.501c-1.021 1.152-4.164.185-6.016.503-1.445.06-3.282-.273-4.011.501-.073 1.411 1.227 1.446 2.507 1.506h11.53c.407.094.5.501 1.004.501-.06 2.778-2.407 3.274-4.513 4.01-2.517-.01-5.21-.197-6.017 1.504 3.138 3.678 9.645-1.908 14.04 0-.429 5.757-7.678 4.69-11.532 7.02 4.57 3.167 8.53-2.783 14.038-2.005 1.201 1.726 1.95 3.948 1.003 6.518-3.386 4.264-2.805 4.07-6.017 5.515-6.524 1.333-15.905 2.558-22.06 0-2.132-.416-5.144-3.764-2.006-5.014 3.218-.962 8.142-.214 10.029-2.507-3.954-.83-13.11.832-13.538-5.014 2.314-2.529 6.443.956 9.024-.502-1.004-3.005-6.334-1.686-8.522-3.509-1.308-.864-2.542-1.804-2.508-4.012.447-.22.897-.44 1.003-1h.502c2.053-1.126 5.97-.38 7.52-2.007.17-1.009-.103-1.567-1.002-1.505-.081-.587-.914-.422-1.505-.503h-.5c-3.209.706-6.632-2.597-4.012-4.509 3.35.008 6.77.084 8.523-1.506-.199-2.808-5.515-.502-6.517-2.506-1.282-.055-.996-1.68-1.003-3.009.908-.952 3.876-2.445 5.515-1.002.669.718 2.84.718 3.51 0-.057-3.454-4.25-2.77-6.017-4.513-.094-3.938 6.386-1.301 8.022-3.51-.259-2.748-4.923-1.092-5.515-3.51 1.072-3.668 7.655 1.066 8.523-3.007-1.109-1.065-4.408.063-4.01-2.507 2.455-1.555 6.833-1.188 10.027-2.005-.46-.879-.932-1.741-2.507-1.504-1.276-.062-1.944-.73-2.006-2.007.5-.55 2.734-1.88 3.51-.5 4.677 1.005 7.784 3.58 12.033 5.014.406.096.5.504 1.002.501-.513 1.66-1.388 2.957-3.51 3.008Zm-32.087 51.642c-1.235 2.067-5.19 3.089-8.023 2.005.203-1.969 2.204-2.142 2.508-4.012-1.544-1.343-2.246 2.415-4.513 2.007-4.753-.188-4.585-6.51-2.507-9.527-1.834.172-1.873 2.139-3.51 2.508-2.326-.35-3.094-2.253-3.51-4.513-.041-.795.242-1.913-.5-2.004-1.978 2.928-.764 7.914 2.004 9.024-.367 1.47-1.52 2.156-2.506 3.006-3.043-.3-3.977-2.706-3.51-6.515-3.144.031-.932 5.419-3.008 6.515-1.18 2.648-4.82 1.013-5.515-1.002 4.575-6.119 10.028-11.365 15.543-16.545.915 3.097 1.557 6.466 6.517 5.517-2.383 4.82 4.768 12.152 8.022 6.517-6.696 1.513-6.762-6.768-4.01-11.531-2.078.096-1.698 2.647-3.51 3.007-2.207.036-3.146-1.201-4.011-2.51.334-2.003 1.243-3.432 2.005-5.012 2.4.944 2.765 3.92 6.519 3.51 1.02-.15 1.334-1.004 2.004-1.502-.564-2.012-2.925.367-4.512-1.003-2.416-5.023 3.365-5.468 5.515-7.522-.43-1.24-3.49.149-4.01-1.003.51-4.287-5.8-6.86-2.507-12.031.976 1.027 1.563 2.445 3.51 2.505-4.285 7.745 10.52 5.553 3.007 4.515-2.751-.843-.99-4.606 0-6.019 1.694-.19 2.14.87 3.008 1.504h1.003c.096-.404.503-.498.502-1.002-1.463.126-1.73-.943-2.507-1.503.629-4.051 3.756-5.604 5.515-8.525-1.744-.723-3.679 2.662-7.019 2.007-.713-.957-1.905-1.44-2.006-3.01.189-2.486 3.174-2.172 3.51-4.51 2.263 2.691 5.04 1.93 8.523 3.006-1.39 2.956-3.899 4.792-4.012 9.025-.42.583-.66 1.344-.5 2.51v.498c.096.405.503.5.5 1.003-.08 2.26-3.102 1.577-3.007 4.011-.732 2.373 1.668 4.76-.502 5.514-1.95.225-2.052 2.294-3.008 3.512-.221 1.89.99 2.352 1.504 3.508.192 1.864-2.03 1.312-1.504 3.512-.823-.086-.823 3.091 0 3.005-.09 1.76 1.694 1.65 2.006 3.01-.25 1.961-2.577 3.82-1.003 6.016a7.05 7.05 0 0 1 2.507 2.509c-1.951 2.346.862 4.645-1.002 6.015Zm-15.042 2.506h-.502c-2.324.32-3.102-.91-4.01-2.004.423-1.416 2.295-1.382 2.507-3.01.445.224.896.44 1.002 1.002 1.001.504.791 2.218 2.507 2.008.086 1.254-.77 1.568-1.504 2.004Zm-22.06-7.52c.232-2.088-2.345-4.934 0-6.016 1.644-1.199 1.685-3.998 4.512-4.011 3.142-.036 2.936-3.416 4.512-5.013 6.63-1.06 8.007-7.371 12.033-11.033-2.464-3.716-2.153-10.212-5.013-13.536.362-1.142.446-2.562 1.003-3.51-2.694-2.408-4.951-6.48-3.51-11.532-4.28-2.742-3.824-12.707.5-15.04 3.952 1.981 2.761 10.355-2.005 10.53-.085 1.255.77 1.568 1.505 2.004 2.198.527 1.647-1.695 3.51-1.502.771 4.017 1.061 11.02-2.507 10.526-.086 1.254.77 1.57 1.504 2.006 2.781.61 2.096-2.248 4.01-2.507 1.299 3.412 1.593 9.388-1.504 11.032 1.82 2.57 2.813-1.027 4.513-1.505 1.546 3.68 1.173 8.46-1.505 10.527 1.808 1.612 2.812-1.846 4.012-2.506 2.632.712 2.657 4.028 2.507 7.523-.197 2.475-2.81 2.536-4.513 3.506-1.28 2.231-4.595 2.424-5.014 5.516-1.782.78-.302-1.702-1.503-1.502-1.441 1.734-1.588 4.761-4.012 5.514-1.577.242-1.96-.715-3.008-1.004.83 2.567.835 6.132-4.512 6.016-.021 2.29-1.682 5.558-5.515 5.517Zm1.002-42.118c1.35 1.494 1.55 4.136 3.009 5.517-1.248 2.676-3.236 7.016-6.017 6.52 1.071-3.945 1.694-8.337 3.008-12.037ZM30.61 83.103c.996.007.638 1.369 2.006 1.004-1.945 2.775-.57 6.698-5.014 7.518-2.793-3.254 1.71-6.195 3.008-8.522Zm-3.008 14.54c-.326-2.665.628-4.052 2.006-5.014 1.293.403 2.874 3.108 2.507 3.511.132 2.066-3.15 2.5-4.513 1.503Zm9.526-8.02c1.108 1.055.867 3.839 2.507 5.514-2.094.914-2.822 3.193-3.008 6.016.763 1.243 1.893 2.118 3.51 2.507.043.71.082 1.42-.502 1.504-2.128 2.83-1.81 7.848 1.505 9.024-.995 2.248-.568 5.836 1.001 7.018h3.51c-.976 2.035-1.77 4.248-5.013 4.014-1.546-1.724-.144-2.18 0-4.516-2.35.493-1.922 3.764-4.513 4.014-2.227-3.082-.492-8.586.502-11.532-1.282-1.247-1.574 2.75-3.51 2.507-1.51-2.853 3.419-3.14 4.011-5.515-1.59-1.392-2.592 2.065-5.013 1.504-2.265-2.986-.423-9.052 4.512-8.022-.312-1.526-2.697-.98-3.008-2.507-1.672.835-1.444 3.57-4.513 3.01-.577-.595-.568-1.774-.502-3.01 4.343-.838 5.249-5.113 9.527-6.016-1.631-1.043-5.047-.3-5.515-2.508-1.096-.072-1.077-1.263-1.003-2.506 1.076-.93 3.672-.339 5.515-.5Zm11.03-17.049c-.22-1.724.199-2.81.502-4.01 3.329-.822 3.62 1.392 6.016 1.502-.488 1.35-1.105 2.571-1.504 4.013-2.526.354-3.446-.9-5.014-1.505Zm1.505 5.515c-.128-2.466 2.943-1.736 4.01-3.006.997.005.638 1.366 2.006 1.001 2.018.64 2.476.591 6.016 0 3.393-.217 4.819 1.532 6.518 3.008-2.296 2.088-9.921 5.982-8.524-.502-.367-.89-.911-.07-1.504 0-2.183.697-.049 2.592 0 4.012-1.62-.087-3.696 1.946-2.506 3.007-.699 1.457-2.474-.14-3.009-.502-.867-3.541 2.616-2.731 3.01-5.012-1.206-.408-5.716 1.447-6.017-2.006Zm11.531 29.08c.198 1.88-3.047 4.633-6.016 5.014 1.261-2.415 4.065-3.288 6.016-5.014Zm-6.016 2.507c-1.895.61-3.753 2.219-6.017 1.004-.866-1.705-.348-3.675 0-5.516 3.923-.59 4.573-4.45 8.022-5.516.584 2.759 1.786 4.9 3.008 7.019-.729.775-2.567.443-4.011.502-.279-1.223-1.94-1.067-1.504-3.006-3.555.82.154 3.978.502 5.513Zm23.564-26.07c1.236-.065 2.416-.076 3.008.5-.07.98-2.236 2.38-3.008 1.001-3.33-1.711-5.674.696-7.52 2.007-2.509 1.569-2.329 4.937.5 6.016.407.096.5.505 1.003.502a4.507 4.507 0 0 1-2.005 2.007c-.271 1.774 1.776 1.231 1.504 3.008-2.222 2.783-5.995.588-7.52-1.506-1.273 1.816-4.603 1.425-6.017-.5.26-.742.741-1.264 1.002-2.006 2.369.959 5.576 2.348 8.023.502-2.752-1.093-7.759.07-7.52-4.011-1.813.781-3.93 1.525-5.516 0-.362-1.532.513-1.828.502-3.008 3.711 1.294 10.956 2.91 13.035-1.004-3.32.11-7.11 1.263-9.526-.501 1.282-6.61 6.292.137 10.528-.501 1.107-1.138-2.572-1.747-3.008-3.01.459-.879.933-1.74 2.507-1.501.457-.872 1.757-1.298 2.507-.501.365-1.37-.996-1.01-1.002-2.008 2.35.018 7.373 1.08 9.025-2.007 2.841 1.94 5.702.287 8.02-1-1.413 3.101-4.04 7.087-8.02 6.017v-2.508c-1.914.033-3.003 3.759-.502 4.011Zm9.024-3.51c-.377-3.722 2.885-3.801 5.516-4.513 2.048 1.257-2.596 6.555-5.516 4.512Zm-46.626 2.506c.224-1.396-2.734.392-2.508-1.001-3.762-.313-3.444-4.114 0-4.516.906-1.352 1.232 2.294 3.403 1.332.212 1.047.265.5.106 1.177h-.5V81.6a12.175 12.175 0 0 0 2.506 2.506c1.364 1.113 4.024.311 5.014-.502.095-.405.503-.5.502-1.003-1.685-.657-3.825-.854-4.513-2.507-1.73-1.442 1.2-2.443 2.005-3.01-1.052-.616-1.954-1.386-3.008-2.002-.291-1.63.342-2.334.502-3.512-2.543-.201-7.425 1.032-8.35 2.448 6.297-8.098 12.883-19.64 18.879-27.517a28.38 28.38 0 0 1 5.013-5.013c5.33-4.028 10.947-7.77 19.554-8.523 4.535-.332 8.849-.835 11.532 0 3.627.383 6.598 1.422 10.026 2.005.412-2.992 5.108-7.163 10.027-5.515-.183 1.488-.867 2.474-2.004 3.009-.368 1.83-3.953.99-4.512 0-1.519.611.355 1.915.5 2.506 3.608.098 5.89-1.13 7.019-3.51 1.186-3.502 5.653-1.403 6.52 1.004v.501c1.702 2.063-2.095 2.9-4.515 2.507-4.393.62-8.497 1.53-10.026 5.015 1.952.268 4.474-3.206 8.021-3.009 1.03-.833 5.491-.833 6.52 0 3.658.316 6.263-.423 8.522-1.505.637-1.389 5.25-1.41 6.52-.501 4.92 1.097 8.806 3.225 13.535 4.513-5.938 1.781-16.784-6.117-23.063 0-7.385-.258-14.563-2.265-19.052 2.004a47.806 47.806 0 0 1-6.517 6.518c-7.803 6.244-14.714 16.026-28.078 15.04v-1.002c.697-1.14 1.734-1.94 2.507-3.005.226-1.399-2.733.39-2.507-1.005-1.468.13-1.54-1.133-3.008-1.003-.365-1.366.996-1.007 1.002-2.007-1.41.095-2.136.874-2.004 2.51 1.038 1.132 2.779 1.565 4.511 2.006-.676 1.328-2.642 1.365-2.507 3.507C78.905 73.697 93.812 52.773 99.8 52.52c3.886-.166 7.719 4.943 2.507 8.02-.156.681-1.256.417-2.006.502-.508-2.345 2.01-1.664 1.503-4.011-.166-2.365-3.514-1.394-4.51-.502-.243 1.581 1.538 1.136 1.001 3.01-1.21 1.796-4.913 1.102-6.015 3.006 1.887 1.99 4.683-1.357 6.015 0-.951 3.406-7.01 5.013-9.526 2.508-1.056 1.518.482 3.395-1.504 4.513-.612 1.566-4.574 2.192-5.515.499-1.573-.234-1.325 1.35-2.506 1.505-2.763.424-4.166-.515-4.011-3.008-1.322 2.109-4.936 3.439-7.521 1.503-.295-1.798.582-2.423 1.002-3.507-8.458 5.868 6.172 7.413 11.532 6.015-.32 1.685-2.404 1.609-4.512 1.505-1.021-1.047-2.885 3.232-5.014 1.004h-.5a2.543 2.543 0 0 1-1.506-1.505c-1.208-.157-2.428 2.186-3.51.501h-.5c-.631-.124-.506-.998 0-1.002.359-1.363-2.365.358-2.005-1.005-1.466-.54-2.627-1.384-2.508-3.509 1.54-.964 3.932-1.082 5.013-2.505-.013-.49-.613-.39-1.002-.503h-1.002c-1.312 1.438-3.514-.47-3.51-2.006 1.068-1.772 4.073-1.608 7.02-1.503.081-1.42-3.092.416-3.01-1.003-4.934-1.91 1.011-4.092 2.507-5.517-.641-1.697-3.892-.784-5.013-2.004-.328-2.667 2.298-2.381 3.008-4.01-1.34-1-4.42-.262-6.017-1.004-.834-.995.047-.637 0-2.006-.958.213-2.157.182-2.005 1.504.362 1.644 2.054 1.96 4.011 2.007-.859.98-.87 2.806-1.504 4.01-1.799.296-2.425-.581-3.51-1-.429-1.601.79-1.552 1.003-2.509-1.785-.113-2.621.721-2.507 2.51.183 3.34 5.456 1.28 7.02 2.003.154 2.161-1.675 2.336-2.508 3.51-.27 1.774 1.777 1.232 1.504 3.007-1.135.535-1.82 1.52-2.005 3.008-.346 2.018 2.112 1.232 2.005 3.01-.88.455-.916 1.756-1.504 2.504.022 2.652 2.91 2.442 4.011 4.013.074 1.409-1.227 1.445-2.507 1.504-2.177-.663-4.118-1.562-4.01-4.513h.5c.589-.748.624-2.05 1.505-2.507-.96-.877-2.614-1.063-4.01-1.502-.577-1.406-.577-2.607 0-4.014-2.266.076-2.15 2.531-3.01 4.014h-1.001c-1.45-.224-2.286-1.057-2.508-2.509-.487.014-.389.614-.5 1.003v.503c-.277 1.11.957.712 1.002 1.504-1.468 2.68-2.494 7.279 1.504 8.021v.501c-.446.892-1.4 1.274-1.003 3.008.061 1.276.73 1.944 2.006 2.008.658.173.789.88 1.504 1.002.089 1.761-1.693 1.648-2.005 3.005-.172 1.815 3.651 2.778 1.001 4.015-.685.64-.685 2.365 0 3.004 1.87-.532.795 1.883 2.508 1.506v.502c-1.082 2.047.208 3.919 1.504 5.012-.834 2.342-3.1 3.252-6.518 3.01-.43-.405-.298-1.375-1.003-1.505.028-2.48 1.407-3.606 3.01-4.51-.145-.885 2.36-1.555 1.002-2.007-1.773 1.36-5.962 1.567-6.518-1.004.212-3.129 2.676-4.008 3.51-6.517-4.101 1.223-8.034 9.026-2.006 10.528-1.646 2.597-1.301 7.127 2.005 7.522-.814 3.378-4.186 8.118-7.52 4.511-.44-3.11.78-4.569 1.503-6.516-.754-.919-2.162-1.181-3.007-2.007-.206-3.212.936-5.08 2.506-6.517-.313-1.694-1.78-2.23-2.005-4.011-.446-1.978 2.918-2.726 1.505-4.011-1.687 1.585-4.232 2.925-7.02 2.006-.397-4.577 5.658-2.698 7.02-5.516Zm103.283-53.647c2.602 1.045-2.08 2.733-4.013 2.507-2.183-.102-7.56 2.062-8.022-1.002 5.125.61 7.502-1.522 12.035-1.505ZM128.88 56.028h5.015c6.8-1.22 9.107-6.934 11.029-13.035 1.91 19.197-29.915 18.453-28.076 1.004 2.353 5.668 5.146 10.896 12.032 12.031Zm2.005-3.005c-3.259-.827-2.028-8.57-1.503-11.534.386-1.72.73-2.726 3.007-2.005.07 2.575-.073 4.94-1.003 6.517-.322 2.184.655 5.67-.5 7.022Zm-28.577-2.008c1-3.249 7.07-3.14 8.022 0-.61 2.397-1.014 5.005-3.51 5.515-.342-3.001-1.6-5.083-4.512-5.515Zm-.503 29.08H99.3c.187-1.34 2.666-2.35 2.506 0Zm7.02-2.006c.407-1.764 1.834-2.514 4.012-2.506.444 2.618-2.34 2.009-4.011 2.506Zm6.518-1.504c.172-1.834 1.718-2.295 3.009-3.007 1.771.09 2.744-2.123 4.01-1.004.253 2.76-3.219 1.795-4.513 3.009-.425.743-1.26 1.077-2.506 1.002Zm9.526-4.011c.298-2.544 3.122-2.559 4.011-4.512 2.887 1.905-1.634 4.58-4.011 4.512Zm24.568-31.085c2.383.38 2.747-1.264 4.01-2.005 5.529.919 2.905 7.57-.501 9.024-1.6.429-1.55-.789-2.505-1.002-.669 2.34-2.045 3.973-3.01 6.016 6.224-4.893 17.887-8.835 15.542-19.053 1.157-.515 1.618-1.725 3.51-1.503 1.51.231 2.407 4.455.502 5.015-.225 1.447-2.158 1.183-2.507 2.507 6.495 1.39 3.443-11.242 9.527-7.022v2.508c-.157 1.215-3.087 2.218-2.007 3.008h.5c1.09-1.695 1.607 4.02.503 4.513-.519 1.151-1.035 2.306-2.005 3.007-3.112.774-2.853-1.824-5.014-2.004-.371 6.101 8.98 4.51 8.523-.501.141-1.698.797-2.88.5-5.015-.88-.45-2.48-1.39-.5-2.004.97-3.328 4.287-6.553 7.52-3.512.068 4.246-2.46 5.897-5.013 7.52 5.558 3.79 5.695-6.952 9.025-7.52 2.118-.358 5.637 2.71 4.011 6.52-2.275.27-1.34-2.673-3.51-2.507-1.01 3.691.165 8.572-3.51 11.53 1.596 1.4 4.487-.172 5.516-1.003-1.438-3.087 1.345-5.9 3.009-7.518 2.089.082 1.747 2.595 3.007 3.509 1.36.206 2.07 2.383 1.003 3.51-2.13.29-2.325-1.35-3.01-2.507.024-.86-.37-1.298-1-1.505-.546.126-.341.997-1.004 1.003-1.414 1.665 2.142 1.57 1.506 4.01-8.51 3.319-16.194 4.197-24.569 6.017.312-1.36 2.095-1.247 2.006-3.008 3.422 2.287 6.698-2.223 8.523 0 1.557-.783 3.287-1.393 4.01-3.01-.979-1.191-2.806.919-4.01-.5-.713-1.517.221-2.686.5-4.512-2.465-.618-2.13 5.881-4.51 7.02-1.915.241-3.201-.144-4.011-1.004-3.339 1.008-2.729 5.962-8.023 5.014 1.814-2.739 4.182-7.22 2.005-11.03-1.3 4.047-.895 9.801-6.517 9.528-1.167-.672-.775-2.904-1.505-4.014-2.053 2.887-2.141 9.154-8.523 9.026.457-1.286.813-2.842-.501-3.51-2.006 3.676-3.756 7.609-7.52 9.525-2.003-1.334 2.371-3.695-.502-4.51-3.308 1.706-3.162 6.864-8.023 7.02-.576-.595-.567-1.774-.502-3.011-3.58 1.6-2.65 7.713-8.522 7.019-1.13-1.084.416-1.709 0-3.507-4.551.795-2.593 8.103-9.024 7.018-.66-1.556.134-1.433 0-3.511-3.652 2.2-4.165 7.536-10.028 7.52-.446-.891-1.4-1.271-1.004-3.005-2.318.018-1.513 3.162-3.509 3.507-.403 1.85-2.063.417-3.007 0-.363-2.535.552-3.794 1.504-5.012 1.983.493 3.639.694 5.012-.501 6.219-1.971 13.018-3.363 18.05-6.518.758-1.74 3.318-.186 4.011-1.004 4.666-.012 4.466-4.893 10.03-4.01 7.411-4.453 13.887-9.844 15.541-20.056Zm5.013-8.023c1.142-1.706 5.685-3.035 7.52-1.001-.094.406-.503.499-.503 1-.292 1.712-2.772 1.24-3.507 2.51v.502c.787-.292 5.844.361 3.507 3.007-.875.96-.588 3.088-2.504 3.007-.78-2.06-1.333-4.346-4.012-4.51-.898.063-1.057-.614-2.005-.502.049-1.79.234-3.445 1.504-4.013Zm39.107 29.08c-1.147 4.64-8.681 6.03-13.034 3.01-.664-1.47.319-2.59 0-5.015-1.91.598-.498 4.517-2.508 5.014-3.505-1.36-6.838.769-9.527 0-1.408-.93-.952-3.726-1.002-6.014 6.228-4.637 16.057-5.672 25.067-7.522-1.336 3.93 1.922 6.822 1.004 10.527Zm-1.502 16.546c-.465 8.06-3.476 13.574-7.523 18.05.836-6.733 1.285-9.074 1.003-14.04V72.575c-.36-1.508-.167-2.862-.502-4.01 3.2.522 4.26-1.09 7.022-1.002.218 3.297.47 7.76 0 11.53Zm-14.04-6.518c-2.57 11.638-5.2 23.213-15.042 27.575 4.067-8.717 7.22-20.743 6.519-32.587 2.305-.694 7.182-1.042 9.175.613 2.886.493-1.229.643-.652 4.399ZM157.96 58.035c-.005-.997-1.368-.635-1.002-2.007.487-.013.388-.614.5-1.001 1.963.495 2.911-1.109 4.01 0-.323 1.848-1.715 2.63-3.508 3.008Zm-2.507-.502c-1.124 3.232-6.16 5.862-9.025 3.008.211-1.126 2.66-.013 3.01-1 .932-.015 2.309-1.103 3.527-2.07-.006.017-.016.044-.02.062.01-.031.03-.049.04-.078l-.002.001c.613-1.805 2.79-2.042 3.983-3.264-1.191 1.222-3.369 1.46-3.982 3.263 1.726-1.373 3.125-2.494 2.47.078Zm-15.042 8.525c.19-2.484 3.2-2.15 4.013-4.012 2.55 1.718-2.001 3.657-4.013 4.012Zm-4.511 2.505c-1.284.388-2.843.5-3.51 1.503-1.388-1.257 1.914-2.07 2.507-3.005.644-.86 1.036-1.973 2.507-2.007 1.314 1.46-.37 2.965-1.504 3.51Zm63.009-21.87c-2.94-6.504-3.687-15.804-10.866-17.237-6.35-1.267-13.538 0-13.538 0-5.191 1.441-6.868.409-12.033-.5-2.7-.38-3.088-.38-5.514-.502-3.849-.332-7.567-.717-12.034-.502-.69.022-2.932-.399-3.335-.666-4.364-1.317-6.925-1.85-12.709-2.342-2.698-.23-5.603-.623-9.525-.501-8.382.993-14.38 2.493-19.479 6.99-2.429-.336-4.498-.599-7.496-.899h-3.302c-3.925.111-4.981-.329-9.903.363-8.088 1.136-12.93 3.944-17.98 7.084-3.942 2.459-5.747 4.78-8.524 8.521C34.201 77.018 2.563 96.932 0 142.835l.012 8.856c.481 5.58 1.873 14.623 3.525 17.65 5.37 3.547 13.671 1.918 18.551 3.005 1.626.363 2.845 1.805 4.513 2.007 3.776.457 7.052-1.953 10.027-.5 2.54-.035 2.968 1.23 7.019.5 4.35-1.884 9.144-1.97 14.54-1.002 4.799.285 8.679-.346 13.035-.503 5.203-1.567 10.115-2.047 12.535-5.513 6.883-9.863-7.676-18.213-7.02-28.076-.833-1.69-.833-6.837 0-8.525.498-7.526 4.045-12 8.023-16.045 7.69 5.349 16 10.072 22.561 16.546 3.16 2.969 4.262 2.758 6.017 4.512 10.761 6.956 21.473 13.956 36.1 17.048 2.767.26 4.726-.287 7.018-.502 6.696-2.401 12.39-7.865 10.028-17.548-.834-1.005-1.82-1.856-2.006-3.51-.592-6.427-4.828-9.209-7.52-13.535-1.465-1.506-4.445-3.74-4.012-5.517 1.3-1.242 2.459.486 4.513 0 20.149-4.042 31.813 8.013 40.11 19.052-.949-3.565-2.336-5.622-4.513-9.025-1.883-2.4-2.272-2.787-4.512-5.013-3.865-3.655-11.105-4.543-15.748-8.412 0 0 14.313.968 18.757-.112 2.49-.605 6.565-1.119 8.02-3.509-6.06 3.173-13.624 2.074-22.059 1.002H172.5c-5.625.393-8.988 1.459-15.541 2.507-2.128.49-6.535 1.944-8.023 0-8.979-6.73-19.31-12.109-24.567-22.561 9.626-12.435 25.392-18.729 41.112-25.07-.419 3.26.83 4.854 2.006 6.52 1.107.06.099 3.328.39 4.208.161 2.993.161 2.998 0 4.64-.312 1.359-.497 2.78-.39 3.685-1.46 8.574-4.014 14.704-6.019 22.062 1.837.329 2.044-.53 3.98-1.496 2.245-1.597 3.496-3.23 5.549-5.022 4.004-5.84 6.53-13.497 8.023-21.057.405-2.065.312-5.508 2.505-7.02 3.201.807 2.328 5.691 2.507 9.523.37 5.007.276 8.307-.21 12.938.048 2.815-.193 3.481-.773 7.543l-.521 2.082c2.708-.8 3.809-2.662 5.516-5.013 2.668-4.35 4.87-8.482 6.29-16.317l-.29-7.898c0-2.699.882-5.494 1.019-8.374.138-2.91-2.564-7.305-1.004-9.023.361-2.482 3.32-2.366 4.513-4.014l.338-2.315Zm-7.858 14.851c-.8 1.71-3.043 1.974-4.513 3.008 2.79.45 3.584-1.095 5.015-2.006.015-2.189.183-4.53-1.004-5.514-.346 2.015.48 2.862.502 4.512Z" fill="#1F1C1C"/><path d="M30.611 166.33c1.001.504.791 2.218 2.507 2.008.086 1.254-.77 1.568-1.504 2.004h-.502c.056-.947 1.657-.346 1.505-1.503-.86-.645-1.972-1.039-2.006-2.51" fill="#211D1D"/><path d="M184.532 97.141s10.36-10.59 7.523-29.58c-2.282.683-5.809 1.426-6.55.869 0 0 .185 19.114-.372 23.382-.556 4.268-.6 5.33-.6 5.33" fill="#FFF"/><path d="m91.585 172.72-.08-1.658c-.017-.35-.008-.727-.026-1.183h-.017c-.097.395-.22.833-.325 1.183l-.508 1.597h-.658l-.447-1.623c-.088-.342-.176-.753-.28-1.157h-.019c-.007.412-.007.815-.025 1.167l-.088 1.674h-.772l.237-3.48h1.166l.386 1.359c.088.306.158.657.245.999h.018c.097-.35.184-.71.28-1.009l.422-1.35h1.096l.227 3.481h-.832Zm-3.446-3.48v.7h-.982v2.78h-.851v-2.78h-.964v-.7h2.797Z" fill="#211D1D" fill-rule="nonzero"/></g></svg>