<svg width="200" height="200" xmlns="http://www.w3.org/2000/svg"><g fill="none"><path d="M67.561 184.614v-38.603c-.3-.189-.59-.387-.867-.603-6.303-2.604-8.4-7.19-8.996-9.122l.214.576c-.5-1.145-.738-2.584-.8-4.273-1.097-3.276-1.441-5.9-1.515-7.555-.533-1.227-2.66-4.76-6.942-10.164-3.748 2.238-7.818 3.43-12.022 3.43-12.918 0-33.232-9.861-36.246-37.023A62.351 62.351 0 0 1 0 74.32c0-21.947 11.45-37.257 12.145-38.165 6.549-9.09 18.368-19.84 37.661-19.84 4.14 0 8.14.651 11.95 1.864 4.852-1.531 11.736-1.21 20.895.963 2.222-.226 4.162-.188 5.652.243l4.335 1.265s.34 3.557.344 3.615c.01.01.024.03.033.041.238-.216.453-.418.63-.6 4.998-6.404 11.781-4.423 14.414-3.642 1.357.408 5.217 1.816 8.104 4.855h82.993v76.474h-33.488v27.83h-11.45v55.39H67.561" fill="#FFF"/><path d="M113.494 30.32c-1.705-3.334-6.113-4.817-7-5.088-3.852-1.14-6.548-1.151-8.882 2.149a25.072 25.072 0 0 1-3.478 2.94h-2.74c-2.297-1.94-3.625-3.835-3.703-4.66l-.081-.85-.821-.24c-1.338-.39-3.484-.147-4.552.014-11.933-2.944-17.63-2.09-20.337-.676-3.753-1.439-7.81-2.193-12.094-2.193-17.102 0-27.594 9.643-33.381 17.733l.026-.038c-.545.713-13.328 17.637-10.698 41.27C8.378 104.32 25.658 112.9 36.633 112.9c4.81 0 9.392-2.004 13.362-5.787.544 1.148 1.164 2.244 1.951 3.214 4.952 6.11 8.548 11.585 9.021 13.713l-.002.113c0 1.25.203 3.958 1.495 7.473l-.002.25c0 .816.063 2.053.402 2.817.411 1.333 1.87 4.386 6.637 6.051.643.61 1.737 1.357 3.464 1.713v36.757h75.857v-49.925h-11.404v-5.465h22.852v-27.83h33.487V30.32h-80.26" fill="#231F20"/><path d="M65.843 98.7c4.139-6.633 4.746-9.577 5.659-11.095.346-.579.054 7.367-5.659 11.096m9.703-30.517c1.85-2.72 5.95 6.03 6.59 8.343-1.322-1.781-4.808-6.143-6.59-8.343m-.345 17.739c-1.05.192-1.976-.113-2.884-.658-.674.785-2.142 1.847-5.223 1.847-2.254 0-4.202-.836-5.495-2.368-1.055-1.247-1.572-2.83-1.513-4.526-.265.044-.543.086-.82.147 0 0 3.18-5.016 11.863 2.09 1.466 1.2 2.62 2.156 3.796 1.94 1.473-.264 5.144-3.773 7.027-5.657-.621 2.275-4.725 6.815-6.751 7.185m3.138 15.666c-1.898-8.748-3.831-12.445-4.627-15.358 1.568 1.563 5.99 11.071 4.627 15.358M45.922 61.62c-.017 1.206-.655 2.234-1.757 2.624-1.933.682-2.868-2.354-2.333-1.82a1.641 1.641 0 0 0 1.757.385c.282-.12.817-.436.788-1.21-.2-5.116-16.216-13.113-14.374-12.922C43.936 54.858 45.96 59.44 45.923 61.62m59.967 20.89c2.795-2.3 3.014-4.012 2.902-4.982-4.324-5.818-.981-12.062-1.64-17.122-.394 1.723-6.29 5.554-9.705 3.745-3.524-1.857-2.287-7.501-2.287-7.501.152-1.1.28-2.354.312-3.954 0-7.885-3.084-11.548-2.551-14.741-.82-3.177-3.597-4.03-3.597-4.03-3.549-2.56-5.172-5.955-5.172-5.955-.28.288-.087 1-.087 1-1.328.597-15.085-4.372-20.133-1.37 12.822 6.52 17.54 22.224 18.541 26.57 3.049-1.142 2.548 1.939 2.548 1.939-1.314-1.316-2.459-.151-2.459-.151s-4.16 7.836-9.018 4.605c-1.927-1.288-1.274-2.837-1.274-2.837 0-3.389-4.912-4.489-4.912-4.489-5.56-4.608-8.407-.517-8.407-.517-5.432-.15-6.067 4.04-6.067 4.04-3.686 1.542-4.656 5.962-4.656 5.962S48 62.653 48 62.403c0-1.274.324-4.913 3.56-6.685l.196-.483c-1.393-1.484-5.539-5.325-10.707-4.814 0 0 1.879-1.381 5.013-1.381 0 0-6.076-2.755-16.54-1.94-7.13.552-9.08-.74-9.601-1.62-.271.003-.544.061-.604.157-.067.106-.084.634.67 1.81.665 1.062 2.673 2.367 4.986 3.882 4.716 3.08 11.106 7.267 12.306 13.49 2.855.055 5.995.593 8.846 2.124 3.82 2.05 6.507 5.496 7.994 10.263-.026-.435-.1-.87-.04-1.278.711-5.133 6.553-7.306 6.553-7.306-1.939 1.861-5.006 5.493-5.006 7.306 0 2.933.74 5.273 1.123 5.65 0 0-1.654.298-1.873-.315-2.354 4.77-1.508 6.747-1.028 7.86.663 1.529 3.34 9.996 3.456 10.355 0 0-2.027-1.271-2.683-3.279-.466.973-1.042 2.001-2.015 3.625-1.331 7.33 11.42 15.8 12.503 24.082.086.668-.006 1.343.07 1.988 1.03 2.388 2.83 3.128 3.982 3.358-1.396-1.614-1.973-3.622-2.426-5.205-.219-.782-.423-1.463-.666-1.902-1.248-2.279-1.38-2.498-2.47-3.862 0 0 2.295.679 3.634 2.78l-.403-1.618c.898-6.494 7.438-8.474 10.726-9.063 2.012-2.766 2.11-9.663 2.11-9.663.825-7.299-2.716-12.603-2.716-12.603 3.183-1.295 4.595-4.595 4.595-4.595 1.126 1.12-.584 3.653-.584 3.653 5.185-2.488 12.618-7.33 13.044-4.568-.082.52-.038 1.076.034 1.837.201 2.155.572 6.17-1.389 15.68l-1.184 9.375c-.681 3.166-.361 5.784-.55 7.34.189-1.556.648-4.174 1.323-7.34l1.96-9.376c1.961-9.508 1.59-13.524 1.39-15.68-.07-.815-.126-1.4-.026-1.956.333-1.771 2.974-7.107 4.2-9.642.722-.452-2.453 8.744-2.677 9.93 0 0-.101 1.234.077 1.823 1.014 0 4.103-3.348 8.727-2.087" fill="#DEDDDE"/><path d="M95.326 102.315c.87-.788 1.955-1.891 2.622-3.923 1.653-5.075 3.87-9.073 3.87-9.073.417 0 .52-1.06-1.116-.696h.004a5.645 5.645 0 0 1-.956.178c-.058.014-1.17.23-2.456-.383-.058 2.604-.41 6.366-1.577 12.02l-.39 1.877M36.473 87.136c4.24 0 4.083-5.962 4.083-6.147 0-4.88-3.923-7.566-5.163-8.296-.53.466-1.777 2.094-1.777 7.22 0 6.86 2.829 7.223 2.857 7.223" fill="#DEDDDE"/><path d="M96.108 33.987c-.881.58-1.806 1.076-2.718 1.388.313.462.562.915.76 1.333.466-.771 1.104-1.669 1.958-2.721" fill="#DEDFDE"/><path d="M61.639 80.08a10.16 10.16 0 0 1 2.55.234c-.867 1.295-.342 3.765 2.964 4.17 1.835.22 2.79-.264 3.238-.634.218.178.44.36.657.531 0 0-1.484 1.494-4.829 1.127-3.342-.363-4.694-3.166-4.58-5.427m41.251 3.721a6.21 6.21 0 0 0-1.64.47c.21.938-.435 2.21-2.422 2.216-.708 0-1.206-.123-1.553-.284 0 .113.006.223.015.35 0 0 .834.746 1.893.746 1.06 0 2.976-.311 3.708-3.498m-24.926 30.64c3.134 4.273 7.34 4.866 7.34 7.292-3.873-2.574-8.83-3.266-7.34-7.292m-4.329 15.748c7.89 1.6 10.345-2.665 10.345-2.665s1 1.435.13 2.206c9.403 1.217 9.21-10.961 8.224-12.25-.298 1.402-3.209 2.06-5.909 4.184-.016.014-.031.02-.031.02 1.256-2.247 2.645-3.45 3.567-3.981.684-.4.888-.545.954-.867.189-1.555-.131-4.173.55-7.34l1.184-9.375c1.961-9.508 1.59-13.524 1.39-15.68-.073-.76-.117-1.315-.035-1.836-.159-3.47-9.346-1.717-12.46.915 0 0-1.412 3.3-4.595 4.595 0 0 3.541 5.304 2.716 12.603 0 0-.098 6.897-2.11 9.663-3.288.589-9.828 2.57-10.726 9.063l.403 1.617c1.212 1.323 1.004 8.029 6.403 9.128" fill="#FFF"/><path d="M88.914 130.605c-3.584 1.703-6.372.216-6.372.216-9.28 3.587-13.38-1.57-13.38-1.57-1.152-.23-2.952-.97-3.984-3.357-.009-.004-.009-.007-.009-.007s.413 4.94 4.229 9.796l-1.154-.158c2.514 2.265 8.737 2.262 8.737 2.262l-1.18.665s9.96-.127 13.113-7.847m4.886-21.018c.393-1.885 1.526-7.272 1.526-7.272.87-.788 1.955-1.891 2.622-3.923 1.653-5.075 2.943-8.09 2.943-8.09s.497-.994-.189-1.679c0 0 2.97-.689 3.732-4.595 1.355 5.27-8.107 18.226-10.635 25.559M51.756 55.235c-1.393-1.484-5.539-5.325-10.707-4.814 0 0 1.879-1.381 5.013-1.381 0 0-6.076-2.755-16.54-1.94-7.13.552-9.08-.74-9.601-1.62h.021c.084 0 5.035.548 11.306-.114 8.596-.668 17.476-1.35 26.268 5.901 0 0-4.09.164-5.76 3.968m22.6 27.327c2.323.63 5.38-4.695 5.38-4.695.252-.713-.92-2.864-3.049-5.16 1.692 5.506-1.512 6.174-1.512 6.174-12.305-6.339-16.072-.483-16.072-.483 9.103-3.3 12.932 3.53 15.253 4.164M86.9 37.324s6.054 2.46 2.73 23.61c0 0 1.682-1.42 2.13-3.547 0 0 1.027 5.835-1.045 12.209 2.463-3.454 4.26-9.996 1.502-15.852 0 0 2.027-16.313-5.742-19.15 0 0-5.523-6.155-16.91-6.483 4.02 1.545 13.197 3.24 17.164 12.774 0 0 .689-1.042.171-3.56M70.56 59.446c0-1.62-1.121-3.937-3.515-3.66 0 0-4.286-4.714-8.013-.983 0 0-2.676.494-4.225 2.954 0 0 3.585-2.039 4.994-1.193 0 0 3.303-3.245 6.548 1.08 1.025.04 2.45.692 3.58 3.488 0 0 .692 1.617 2.844 1.998-.56-.559-2.214-2.34-2.214-3.684m20.287 19.442c1.004.055 4.138-.116 4.597 1.367 0 0 3.293-5.92 4.564-13.092 0 0-3.358 8.127-5.017 10.968 0 0-2.128-1.264-4.144.757m15.104-12.681c-4.11 4.108 0 11.787-2.07 12.914-2.063 1.131-2.838 2.553-2.838 2.553 2.45-1.391 4.584-1.1 4.584-1.1 1.974-1.624.876-3.228.876-3.228-1.366-3.347-1.638-7.963-.551-11.14M59.537 85.32c0 3.8 5.065 6.22 5.065 6.22-4.312 8.199-1.355 12.06-1.355 12.06-.55-1.682.068-3.073.068-3.073 1.091-2.988 3.18-4.468 6.5-11.852-6.777.74-10.278-3.355-10.278-3.355m38.736-22.488c2.479 1.058 6.425-1.745 6.558-1.861 1.964-1.727 2.09-6.034 2.241-10.965.148-4.87.314-10.382 2.346-14.813 1.996-3.96-2.13-5.359-4.761-6.185-2.663-.843-3.211.148-3.211.148 6.092 1.75 5.793 4.348 5.793 4.348-1.159-1.833-4.724-2.426-6.979-2.618-1.432 2.707-6.389 7.521-5.642 9.296 2.024-1.12 8.184-2.398 10.976.398-5.96-1.402-8.552 1.463-9.655 4.18 2.99 9.851-1.708 15.985 2.334 18.072M41.355 26.805s.002 0 .002-.003l-.001.003" fill="#FFF"/><path d="M32.451 43.718c2.808-.222 5.747-.383 8.74-.219.317-.325.66-.713 1.25-1.182-.041.017.041-.017 0 0 0 0 2.995-4.903 8.658-3.745 5.312 1.09 6.31 6.49 6.326 8.343.223.809.398 1.707.51 2.707.008.007.016.01.018.017.127.1.252.196.371.295.235.192.468.384.708.586a5.89 5.89 0 0 1 2.742-1.014c1.992-.213 4.098.572 6.263 2.296.84.205 5.808 1.596 5.808 6.089v.198s-.074.117-.145.22c.01.253.495 1.052 1.48 1.35 1.828.548 3.989-1.032 5.962-4.338a2.17 2.17 0 0 0-.055-.237.959.959 0 0 0-.029-.164c-.003-.024-.012-.052-.017-.072a.748.748 0 0 1-.017-.103c-.34-1.518-1.235-4.969-3.03-8.978-3.585-2.6-13.305-8.905-18.82-5.187 0 0 3.045-6.45 15.84-.353-2.977-4.688-7.268-9.303-13.38-11.993-3.473.27-15.622 1.71-15.017 8.6 0 0-3.728-7.507 8.096-10.601 0 0-5.989-1.179-13.355.569 0 .003-.002.003-.002.003-3.39 1.874-12.72 7.809-8.266 14.155 0 0-6.058-3.95-1.656-10.105-8.1 4.982-12.546 12.315-12.546 12.315l.554.798c.65-.191 4.198.439 13.01-.25m11.98 24.089c-8.626-3.365-16.206.12-16.206.12-.132.061-.437.291-.487.442-.063.178-.046.49.153.541.207.062 2.58.452 3.348.641 0 0 5.969-1.98 9.939 2.895 8.727 10.715 1.293 20.052 1.217 20.148-3.878 4.65-8.196 6.97-12.849 6.905-11.401-.888-14.133-9.622-14.133-9.622.009.007 3.855 4.338 6.297 5.507 2.783 1.343 6.296 1.045 8.893.17h-.03c3.078-1.082 4.999-4.358 5.908-6.335-1.566.312-3.087-.16-4.408-.9-5.953 4.238-11.21 2.035-11.21 2.035 4.017-.535 6.933-2.163 8.893-3.729-7.971-5.294-3.691-17.108-3.691-17.108-.972-1.234.87-2.584.87-2.584 2.13-6.1 5.522-7.795 5.522-7.795-6.355-6.737-14.21-8.371-14.72-13.357 0 0-.213-.175-.32-.26-4.222 7.343-5.698 13.699-5.698 13.699 8.464 8.039 12.327 5.787 12.327 5.787-5.45 3.992-11.158-.318-13.186-2.165 0 0-2.01 9.032-1.075 16.55 2.193.487 9.785 1.497 12.415-1.134 0 0-1.804 7.048-11.965 4.43 1.06 8.536 9.974 26.864 27.963 25.967-8.693-2.653-7.055-7.44-7.055-7.44 5.702 4.575 10.7 5.356 12.642 5.473 4.216-2.491 7.16-7.223 7.16-7.223-6.39-4.602-8.728-4.304-8.728-4.304 3.148-3.896 8.728.181 10.388 1.542l1.302-2.7c-1.276-4.616-2.886-5.764-1.827-9.773-3.966-1.052-5.464-.085-5.464-.085.791-3.56 4.636-3.204 6.51-2.81.087-.189.173-.38.269-.569-1.25-6.994-4.654-9.923-4.654-9.923-.01-.01-3.443-2.186-6.677 1.2 0 0-.417-3.12 2.387-4.181" fill="#FFF"/><path d="M57.026 46.223c-1.422-2.285-5.757-7.802-14.585-3.906-.59.47-.933.857-1.25 1.182 4.697.257 9.544 1.347 14.353 4.42v.004c.536-.473 1.07-1.045 1.482-1.7" fill="#BDBCBC"/><path d="M57.425 46.915v.052s-.092-.202-.27-.531c-.093.575-.238 1.49-.401 2.306a27.434 27.434 0 0 1 1.18.88c-.111-1-.286-1.898-.509-2.707" fill="#FFF"/><path d="M29.757 86.625a16.209 16.209 0 0 0 2.701-2.724c-.386-1.634-.386-3.577-.386-3.577-2.028.09-4.55-.291-5.578-1.508 0 0 .293 4.839 3.263 7.81" fill="#DEDDDE"/><path d="M36.719 88.688c-.072.165-.154.35-.237.531-1.566.312-3.087-.16-4.408-.9a17.558 17.558 0 0 0 1.684-1.358s1.196 1.727 2.96 1.727" fill="#FFF"/><path d="M32.176 77.405c-1.114.561-3.518 1.363-5.757-.538.034-2.197.422-4.383 1.012-6.473 0 0 4.031.593 6.476 1.624 0 0-1.325 1.34-1.73 5.387" fill="#DEDDDE"/><path d="M39.784 74.482c-2.772-3.879-8.397-4.893-8.397-4.893 5.417-.206 8.541 3.776 8.586 3.824 7.824 8.652 1.503 17.855 1.23 18.188 0 0-8.02 11.26-19.492 3.783 3.164 1.384 6.296 1.045 8.893.17 0 0 6.62.8 9.952-8.02 3.129-8.272.477-11.305-.772-13.052" fill="#BDBCBC"/><path d="M66.543 84.01s-2.424-1.514-1.21-3.216c0 0-.197-.158-.654-.292 0 0-1.512 2.19 1.864 3.509m3.096-.559a3.584 3.584 0 0 0-.395-.353c-.888 1.06-2.048 1.015-2.048 1.015 1.462.377 2.443-.662 2.443-.662" fill="#231F20"/><path d="M65.275 80.674c-.267.202-.452.565-.452 1 0 .648.39 1.186.873 1.186.491 0 .628-.627.628-1.162 0-.531-.143-.726-.143-.726-.357-.168-.685-.203-.906-.298" fill="#FFF"/><path d="M67.595 83.117c.157 0 .29-.137.29-.3a.293.293 0 0 0-.29-.292.293.293 0 0 0-.294.293c0 .162.132.299.294.299m33.327 1.381c-.245 0-.355.147-.355.147.255.52-.214 1.2-.214 1.2.757-.378.57-1.347.57-1.347m-2.825 1.336l-.468.148c.62.569 2.03.12 2.03.12-1.1.162-1.562-.268-1.562-.268m1.042-.142a.133.133 0 0 0-.136.13c0 .073.06.135.136.135.066 0 .129-.062.129-.135 0-.07-.063-.13-.129-.13" fill="#231F20"/><path d="M109.238 75.39c2.55.377 3.173 1.936 3.173 1.936a11.08 11.08 0 0 0-2.218-.343c.483 1.515.257 4.102-4.185 7.374 0 0 .304 1.24-.32 3.8 2.131.014 4.211-.72 4.211-.72-.306 1.875-2.664 2.642-4.814 2.738-.716 2.036-1.93 4.609-3.946 7.748a40.11 40.11 0 0 0-.976 1.6c2.503.168 5.155-.624 5.155-.624-.454 2.104-3.711 2.765-6.267 2.646a72.518 72.518 0 0 0-2.359 4.992c2.491-.4 5.125-1.34 7.888-3.009 4.145-2.497 13.27-14.35 7.68-29.588-.785-2.158-1.8-3.892-2.97-5.239-.334-.144-.71-.288-1.106-.407 0 0-.493 4.09 1.054 7.096" fill="#FFF"/><path d="M35.701 64.833s-3.925.185-6.692 1.086c0 0 2.03-4.598 3.125-6.421.117-.124.224-.25.324-.36 0 0 2.453 2.463 3.243 5.695" fill="#DEDDDE"/><path d="M100.447 85.166a.294.294 0 0 1-.293.288.292.292 0 0 1-.286-.288c0-.157.13-.284.286-.284a.29.29 0 0 1 .293.284" fill="#231F20"/><path d="M100.257 84.648a.62.62 0 0 1 .228.497c0 .322-.194.59-.436.59-.239 0-.306-.316-.306-.576 0-.267.067-.363.067-.363.178-.083.34-.1.447-.148" fill="#FFF"/><path d="M111.758 36.804c-.59 1.689-.982 3.536-1.243 5.4a52.17 52.17 0 0 0-.417 4.32c-.108 1.861-.137 3.626-.16 5.134-.047 2.683-.088 4.224-.373 5.208.66 2.758.423 6.946.293 8.6 2.103 1.844 3.763 4.373 4.93 7.55 3.34 9.097 1.721 16.714-.223 21.504-2.275 5.613-5.957 9.725-8.595 11.308-2.129 1.288-4.301 2.22-6.484 2.82-.815.223-1.631.404-2.447.534-.767 1.933-2.055 5.812-1.83 8.241.211.771.922 3.862-.045 7.309a12.092 12.092 0 0 1-3.135 5.342c-.123.6-.416 1.69-1.089 2.96a13.048 13.048 0 0 1-2.648 3.458c-1.88 1.771-4.683 3.426-8.846 4.352v31.887h62.885v-36.959h-11.403v-18.431h22.851V89.51h33.49V36.804h-75.511" fill="#BDBCBC"/><path d="M110.515 42.204a52.17 52.17 0 0 0-.417 4.32c-.108 1.861-.137 3.626-.16 5.134-.047 2.683-.088 4.224-.373 5.208.66 2.758.423 6.946.293 8.6 2.103 1.844 3.763 4.373 4.93 7.55 3.34 9.097 1.721 16.714-.223 21.504-2.275 5.613-5.957 9.725-8.595 11.308-2.129 1.288-4.301 2.22-6.484 2.82-.815.223-1.631.404-2.447.534-.767 1.933-2.055 5.812-1.83 8.241.211.771.922 3.862-.045 7.309v16.44H84.846v26.159h52.087v-26.159h-11.405v-29.235h22.853v-25.61h-22.853v-18.24h26.113v16.02h30.23V42.204h-71.356" fill="#FFF"/><path d="M99.486 145.497H89.167v17.51h43.447v-17.51h-11.407v-37.88h22.854v-16.97h-22.854v-26.88h34.754v16.019h21.586V46.525h-67.449c-.108 1.86-.137 3.625-.16 5.133-.047 2.683-.088 4.224-.373 5.208.66 2.758.423 6.946.293 8.6 2.103 1.844 3.763 4.373 4.93 7.55 3.34 9.097 1.721 16.714-.223 21.504-2.275 5.613-5.957 9.725-8.595 11.308-2.129 1.288-4.301 2.22-6.484 2.82v36.849m60.072 33.446V176h1.085v-.638h-2.894V176h1.08v2.943h.729zm3.855-1.237h-.015l-.84-2.344h-1.271v3.581h.737v-2.854h.02l.995 2.854h.714l1.032-2.854h.024v2.854h.723v-3.58h-1.252l-.867 2.343z" fill="#820431"/></g></svg>