<svg width="200" height="200" xmlns="http://www.w3.org/2000/svg"><g fill="none"><path d="M110.874 143.967c-3.419.514-6.836 1.2-9.48 3.523h-.769c4.697-5.674 9.22-11.431 9.564-19-.17-1.373-1.026-2.92-2.393-3.438-1.194-.771-4.268.175-3.498-1.888 2.731-1.894 5.378-4.386 7.599-7.053 1.706 1.721 5.037 0 6.32 2.325-5.807 7.135-3.762 17.537-7.343 25.53zm87.44-3.097c-4.268-5.757-3.587-13.667-7.943-19.342-7.34-5.244-7.684-14.269-15.626-18.397-1.367-.773-3.243-.344-4.438.43-1.37-3.352-2.48-6.792-4.358-9.885-2.474-4.986-6.916-7.653-11.016-11.176-.424-4.384-8.963-6.964-4.354-11.95.855-3.955-1.026-7.307-3.842-9.883-2.476-1.292-5.808-2.84-8.452-1.034-2.991 2.836 2.814 5.33-.431 7.995-5.464-1.806-10.844-3.955-17.163-3.696-3.928-4.042-8.281-7.221-13.578-8.253-8.537-.258-15.113-5.59-24.337-4.558a96.022 96.022 0 0 0-28.692 11.005c-6.147 1.547-11.526 4.727-16.993 7.823-11.443 5.932-17.334 18.139-18.104 30.52.427 3.694-4.866 3.78-4.44 7.39-3.5 2.236-6.148 5.76-7.6 9.288-2.39.77-5.806 1.458-6.403 4.553-.342 2.323-.258 4.817 1.45 6.446 1.111 11.093 3.245 22.353 13.749 29.059l3.074 6.792c2.903 5.844 9.734 4.296 14.945 4.556 2.476 1.462 5.208 2.235 8.196 2.492 3.673.602 6.32-1.89 9.651-1.46.939-.517-.256-1.892 1.023-2.236 2.733.175 4.527-2.838 7.174-2.318-1.11-3.1 2.562-2.581 3.245-4.903.854-.514 1.963-.172 2.732-.859 0-1.376-.769-2.323-1.709-3.268 0-3.009-1.194-5.502-3.67-7.48-3.074-3.092-7.686-2.749-11.698-1.803-2.222-1.805-4.27-3.955-6.918-4.56-1.025-3.177-2.733-6.273-5.55-8.507 1.622-2.065 4.27-2.667 6.32-4.126 13.577 6.619 32.447 5.327 46.367.428 1.538.601 1.538 2.408 1.196 3.698-1.708 4.125-6.405 2.493-9.393 4.382-2.904 3.01-7.515 1.808-10.503 4.73-1.538 1.89-1.11 4.555-1.794 6.793-1.623 4.468 3.244.859 4.868 2.318 1.963 2.15 3.755-.773 6.147.172 1.709 1.462 4.014-.342 5.807.862-.17.858-.682 1.631-1.023 2.404.341 3.01-2.307 4.988-1.709 7.911 1.195.086 2.05-1.291 3.074-.257 1.707.6 1.28 1.978 1.025 3.351.598 1.892 2.22-.172 3.5.173 1.195 1.978 5.465.085 4.698 3.265.682.947 1.622 0 2.476.26 4.611 2.75 10.075.257 14.603-1.032 6.66 1.289 15.113-.945 17.164-8.855 8.455-10.058 15.714-20.631 19.895-32.41 1.111-2.065.429-5.413 2.65-6.448 4.096 2.922 9.476 5.847 14.601 3.095 2.305 1.288 3.671 3.781 4.44 6.02 2.306 4.125-3.16 3.178-4.27 5.326-1.792 3.528-5.978 2.15-8.027 5.418-2.221 2.493-.768 6.019-1.199 9.027 1.539 2.579 4.273.259 6.752 1.289.34.429.851.69 1.45.6 1.622-1.889 3.671-.085 5.294.433 1.964.43 4.098-1.033 5.38.43 1.024.515 1.282-.948 2.05-1.034 1.961.946 4.353 1.55 6.747 1.034 3.5-3.183 9.903.429 12.891-3.954 1.452-2.151 1.624-5.589.6-8.084z" fill="#155196"/><path d="M107.97 124.705c1.552.611 2.425 2.313 2.602 3.738l.005.033-.002.032c-.338 7.435-4.804 13.331-8.753 18.14 2.57-1.92 5.73-2.564 8.784-3.031 1.41-3.245 1.918-6.968 2.41-10.57.703-5.131 1.428-10.435 4.729-14.64-.616-.865-1.656-.924-2.847-.992-1.04-.06-2.11-.121-2.958-.756-2.228 2.627-4.75 4.953-7.318 6.75-.058.183-.093.391-.017.512.162.254.855.31 1.468.36.682.056 1.387.114 1.897.424zm-6.431 23.17h-1.734l.523-.631c5.162-6.236 9.138-11.577 9.475-18.738-.155-1.162-.886-2.616-2.143-3.093l-.073-.037c-.349-.225-.973-.276-1.577-.325-.868-.071-1.688-.138-2.056-.717-.214-.336-.22-.763-.018-1.305l.043-.113.1-.07c2.645-1.834 5.246-4.249 7.521-6.982l.271-.326.3.301c.679.686 1.695.744 2.77.805 1.32.076 2.817.161 3.613 1.605l.126.228-.164.202c-3.312 4.07-4.035 9.358-4.734 14.472-.51 3.728-1.038 7.583-2.556 10.973l-.087.193-.208.031c-3.282.494-6.703 1.167-9.284 3.432l-.108.096zm-4.579 21.707c.146 0 .296.018.446.064l.086.038c3.748 2.235 8.2.831 12.127-.408a81.629 81.629 0 0 1 2.172-.664l.088-.025.09.018c6.86 1.327 14.804-1.193 16.719-8.573l.021-.085.057-.067c9.877-11.75 16.177-22.012 19.827-32.291l.024-.054c.39-.727.55-1.672.705-2.586.274-1.623.558-3.3 2.121-4.03l.204-.094.184.13c3.98 2.84 9.19 5.757 14.194 3.07l.186-.1.184.103c2.52 1.408 3.894 4.141 4.605 6.198.572 1.035.73 1.866.479 2.541-.363.977-1.473 1.382-2.548 1.774-.918.335-1.868.682-2.212 1.347-.995 1.959-2.665 2.51-4.282 3.043-1.461.482-2.842.938-3.76 2.402l-.039.052c-1.36 1.527-1.233 3.49-1.097 5.567.068 1.033.137 2.1.011 3.118.771 1.178 1.85 1.032 3.209.848 1.018-.137 2.173-.293 3.29.17l.092.039.062.078c.151.19.47.49.96.472 1.41-1.51 3.084-.71 4.435-.065.414.197.805.384 1.164.498.682.149 1.453.023 2.2-.098 1.177-.19 2.394-.388 3.297.58.266.111.401 0 .754-.408.26-.3.557-.642 1.02-.693l.11-.013.1.048c1.55.748 3.91 1.529 6.4 1.025 1.708-1.49 4.004-1.52 6.224-1.548 2.585-.033 5.026-.063 6.527-2.267 1.315-1.948 1.56-5.239.579-7.676-2.136-2.9-3.055-6.352-3.945-9.69-.886-3.326-1.802-6.766-3.931-9.562-3.475-2.5-5.403-5.828-7.27-9.048-2.128-3.674-4.138-7.143-8.262-9.286-1.256-.711-2.977-.284-4.05.41l-.391.253-.176-.43a148.58 148.58 0 0 1-.979-2.482c-.96-2.48-1.952-5.043-3.352-7.349-1.895-3.815-4.924-6.23-8.131-8.788-.923-.737-1.878-1.498-2.806-2.295l-.117-.101-.016-.155c-.152-1.571-1.509-2.966-2.822-4.315-2.09-2.148-4.457-4.58-1.504-7.854.847-4.143-1.535-7.38-3.71-9.383-2.803-1.458-5.706-2.583-7.985-1.051-1.243 1.197-.685 2.287-.038 3.548.662 1.293 1.487 2.902-.391 4.444l-.164.135-.202-.067c-.656-.216-1.31-.438-1.965-.66-4.706-1.594-9.57-3.244-15.061-3.016l-.172.007-.12-.124c-4.52-4.65-8.762-7.237-13.345-8.138-3.813-.12-7.28-1.25-10.635-2.342-4.203-1.368-8.55-2.784-13.616-2.217a96.03 96.03 0 0 0-28.54 10.956l-.1.04c-5.722 1.44-10.894 4.376-15.896 7.216l-1.001.568c-10.37 5.377-17.058 16.652-17.907 30.175.22 2.052-1.167 3.117-2.392 4.058-1.201.923-2.239 1.72-2.052 3.298l.028.24-.204.13c-3.191 2.038-5.907 5.357-7.45 9.108l-.069.166-.17.055c-.259.083-.53.165-.807.25-2.272.691-4.847 1.475-5.336 4.01-.417 2.836.02 4.835 1.337 6.093l.104.099.014.141c1.041 10.394 3.035 22.046 13.572 28.772l.097.062 3.121 6.896c2.221 4.472 6.88 4.392 11.387 4.316 1.129-.019 2.194-.037 3.226.014l.095.005.082.048c2.334 1.38 4.961 2.177 8.033 2.44 1.854.305 3.454-.213 5.002-.712 1.425-.46 2.895-.932 4.517-.763.113-.108.124-.278.103-.662-.026-.48-.07-1.28.92-1.546l.06-.017.064.004c1.196.08 2.203-.523 3.27-1.159 1.035-.617 2.099-1.267 3.35-1.22-.352-1.672.747-2.32 1.728-2.898.738-.435 1.434-.846 1.676-1.668l.043-.144.128-.077c.456-.275.942-.338 1.412-.399.434-.057.817-.107 1.128-.314-.062-1.066-.658-1.874-1.59-2.811l-.113-.113V156c0-2.935-1.153-5.283-3.525-7.179-2.436-2.445-6.038-2.986-11.37-1.728l-.185.043-.147-.12c-.432-.35-.858-.715-1.282-1.078-1.766-1.511-3.435-2.939-5.479-3.405l-.213-.05-.068-.208c-1.157-3.587-2.981-6.387-5.422-8.323l-.301-.238.237-.302c1.077-1.371 2.572-2.124 4.018-2.851.81-.408 1.65-.83 2.382-1.35l.187-.134.206.1c9.136 4.454 26.684 7.234 46.07.41l.135-.047.134.053c1.69.661 1.846 2.58 1.427 4.156l-.016.049c-1.145 2.764-3.52 3.128-5.818 3.48-1.293.198-2.63.403-3.686 1.057-1.544 1.576-3.526 2.039-5.444 2.486-1.87.436-3.635.848-5.034 2.216-.883 1.09-1.052 2.518-1.23 4.03-.102.865-.208 1.76-.465 2.6-.447 1.233-.302 1.593-.218 1.691.22.262 1.067.105 1.814-.033 1.116-.206 2.38-.44 3.16.261.947 1.034 1.753.743 2.866.34.924-.333 1.97-.712 3.166-.24l.109.066c.76.65 1.658.545 2.7.423 1.028-.12 2.093-.246 3.07.412l.214.143-.05.251c-.128.649-.424 1.23-.71 1.792-.103.202-.205.402-.297.602.14 1.513-.41 2.76-.941 3.966-.506 1.146-.985 2.233-.837 3.48.266-.045.527-.166.8-.292.612-.284 1.37-.636 2.159.102 1.797.68 1.497 2.206 1.255 3.436l-.042.222c.063.171.16.357.295.42.228.106.66-.078 1.08-.255.562-.237 1.2-.507 1.828-.337l.15.04.08.133c.414.685 1.373.81 2.301.93.894.114 1.818.234 2.275.899.265.384.333.887.208 1.533.21.204.445.172.942.052.243-.06.508-.123.783-.123zm5.09 2.06c-1.679 0-3.336-.343-4.907-1.268-.228-.054-.499.012-.784.08-.544.132-1.288.313-1.854-.473l-.104-.144.042-.172c.123-.507.105-.88-.052-1.108-.261-.38-.979-.474-1.738-.572-1.002-.13-2.131-.276-2.763-1.145-.351-.03-.781.15-1.197.326-.573.242-1.167.493-1.703.244-.338-.156-.58-.476-.739-.976l-.028-.093.08-.42c.27-1.373.364-2.17-.836-2.591l-.084-.03-.062-.063c-.413-.416-.712-.303-1.352-.007-.425.197-.906.425-1.476.378l-.291-.02-.059-.287c-.333-1.627.26-2.97.834-4.27.526-1.193 1.023-2.32.87-3.676l-.012-.103.042-.096c.107-.243.231-.486.356-.732.22-.432.446-.876.577-1.329-.69-.344-1.487-.251-2.324-.153-1.047.123-2.232.263-3.238-.559-.9-.33-1.709-.04-2.564.27-1.126.407-2.403.87-3.67-.52-.471-.42-1.537-.222-2.478-.048-1.045.194-2.032.376-2.543-.227-.392-.462-.368-1.213.075-2.434.23-.756.332-1.615.43-2.447.184-1.555.374-3.162 1.428-4.458 1.583-1.551 3.538-2.007 5.428-2.449 1.906-.444 3.707-.864 5.097-2.304l.07-.059c1.2-.758 2.634-.978 4.02-1.19 2.176-.334 4.231-.648 5.213-2.99.161-.619.521-2.51-.843-3.16-12.209 4.263-31.568 6.685-46.319-.397-.73.494-1.523.894-2.293 1.28-1.317.664-2.567 1.294-3.514 2.35 2.362 1.979 4.144 4.746 5.302 8.234 2.133.557 3.891 2.062 5.594 3.519.372.317.745.636 1.121.946 3.527-.813 8.506-1.439 11.876 1.95 2.457 1.96 3.739 4.523 3.781 7.593.847.864 1.71 1.916 1.71 3.427v.172l-.13.116c-.508.455-1.128.535-1.676.607-.359.047-.7.09-.993.23-.364 1.008-1.216 1.51-1.973 1.957-1.064.628-1.768 1.043-1.228 2.55l.23.639-.667-.13c-1.228-.242-2.288.39-3.41 1.058-1.103.657-2.24 1.339-3.646 1.27-.298.094-.32.234-.293.743.024.433.06 1.085-.588 1.441l-.11.06-.125-.015c-1.509-.196-2.88.248-4.33.716-1.636.526-3.325 1.072-5.334.742-3.125-.266-5.833-1.083-8.248-2.492-.977-.044-2-.027-3.08-.008-4.525.077-9.653.163-12.097-4.757l-3.032-6.7C4.742 150.576 2.684 138.83 1.624 128.322c-1.432-1.444-1.91-3.632-1.461-6.68.58-3.007 3.514-3.9 5.872-4.617l.625-.193c1.582-3.749 4.294-7.072 7.483-9.17-.104-1.857 1.207-2.865 2.37-3.758 1.224-.94 2.28-1.752 2.091-3.393l-.004-.033.002-.035c.859-13.81 7.704-25.338 18.312-30.838l.988-.56c5.032-2.857 10.234-5.811 16.035-7.28a96.809 96.809 0 0 1 28.76-11.023c5.27-.59 9.696.85 13.977 2.244 3.311 1.079 6.736 2.194 10.45 2.306l.063.007c4.716.919 9.06 3.538 13.66 8.24 5.572-.187 10.446 1.463 15.169 3.063a276.9 276.9 0 0 0 1.751.59c1.139-1.036.75-1.964.036-3.36-.657-1.28-1.475-2.877.216-4.48l.048-.039c2.994-2.045 6.802-.057 8.848 1.01l.082.058c3.373 3.086 4.742 6.63 3.96 10.25l-.023.103-.072.077c-2.566 2.777-.72 4.675 1.418 6.872 1.365 1.403 2.776 2.852 3.02 4.62.88.755 1.79 1.479 2.67 2.18 3.275 2.613 6.37 5.08 8.325 9.02 1.42 2.336 2.424 4.932 3.396 7.443.265.686.532 1.373.806 2.056 1.266-.666 3.066-.983 4.438-.208 4.311 2.24 6.472 5.971 8.563 9.578 1.832 3.163 3.728 6.434 7.097 8.841l.081.08c2.248 2.926 3.19 6.46 4.1 9.877.875 3.283 1.78 6.678 3.848 9.469l.047.083c1.11 2.703.843 6.255-.636 8.446-1.73 2.538-4.488 2.572-7.156 2.606-2.209.028-4.295.054-5.795 1.418l-.077.07-.102.022c-2.67.575-5.187-.212-6.869-1.003-.138.062-.284.231-.437.408-.347.4-.869 1.002-1.745.563l-.067-.034-.05-.057c-.597-.682-1.397-.591-2.65-.388-.819.132-1.664.269-2.523.08-.443-.14-.857-.337-1.296-.546-1.556-.742-2.65-1.144-3.623-.01l-.094.108-.143.022c-.656.095-1.287-.143-1.739-.661-.9-.341-1.868-.211-2.805-.084-1.479.2-3.009.406-4.044-1.329l-.07-.117.02-.135c.14-.98.07-2.058.002-3.1-.14-2.134-.285-4.342 1.268-6.106 1.067-1.679 2.637-2.196 4.155-2.697 1.535-.507 2.986-.985 3.838-2.662.483-.935 1.576-1.335 2.634-1.72.951-.348 1.85-.676 2.088-1.319.167-.45.018-1.097-.445-1.925l-.028-.064c-.647-1.883-1.877-4.377-4.085-5.704-5.287 2.696-10.832-.406-14.62-3.084-1.03.614-1.257 1.949-1.494 3.357-.163.965-.332 1.963-.772 2.796-3.676 10.34-10 20.65-19.899 32.436-2.062 7.744-10.333 10.42-17.498 9.07-.667.19-1.346.405-2.063.632-2.483.784-5.168 1.63-7.801 1.63z" fill="#155196"/><path d="M108.394 58.6c8.71 2.839 16.651 11.175 20.238 19.602 2.565.428 4.49 2.104 5.345 4.683-8.539.944-15.564 7.216-20.261 14.524-2.05 3.955-4.465 8.388-4.724 13.203-2.135.515-3.84-3.268-6.145-2.065.168 3.182 4.436 1.291 5.292 4.3-12.554 18.911-42.014 22.951-63.105 14.613-.77-1.376 2.047-3.353-.428-4.125-2.818 1.116-2.648 6.448-6.49 5.156-7.642-5.084-15.543-11.854-20.58-19.853-.086-2.922 2.903-2.67 3.503-5.249.852-13.067 5.634-26.307 17.676-32.668 6.829-3.436 13.917-6.274 20.92-9.457 7.43-3.437 14.602-7.477 23.14-8.423 9.822-1.202 16.143 6.018 25.619 5.759" fill="#ED114C"/><path d="M148.103 64.189c1.282 2.406.853 5.5-.77 7.566-2.049-.688-4.097-1.632-5.973-2.84-1.03-1.803.852-2.836 1.448-4.124-.855-.172-2.306.257-3.075-.602-.595-1.032-1.448-2.063-.852-3.355.94-1.46 2.987-.688 4.355-.6 1.88.689 3.843 1.977 4.867 3.955m1.877 15.044c.941 7.392 10.077 6.361 12.727 12.81 3.242 4.468 3.33 10.315 5.72 15.216 1.366.6 1.706-1.205 2.648-1.462 2.645-.516 4.525.687 6.404 2.063 3.67 4.384 5.208 10.056 10.419 13.41 5.035 5.331 3.243 13.582 8.025 19 .512 2.838.939 5.931-.853 8.25-2.903 2.58-7.513.863-10.42 3.096-1.452.258-3.583.603-4.353-1.03.084-1.03-.77-1.978-1.624-2.493-1.194-.43-2.475 1.032-3.244-.345-1.71-5.415 4.952-10.23 9.563-8.251l.427-.43c-9.99-5.074-9.99 7.822-14.344 12.12-.856-.086-1.88-.688-2.051-1.631.085-.775-.767-1.463-1.452-1.808-.94-.86-2.133.773-2.818-.688-1.879-6.103 6.407-9.542 11.015-8.595l.683-.69c-4.608-1.029-11.698.173-13.149 6.192v3.78c-.854-1.631-2.647-1.288-3.929-.858-.767-1.976.514-3.524 1.282-5.159 3.672-2.403 7.17-5.157 11.273-6.36 2.901-.947 5.721.86 8.368 0 1.536-.432 2.644 1.632 3.928.603-.855-1.636-2.734-2.581-4.528-1.892-1.62.857-3.67.17-5.295-.174-1.194-3.954-2.814-7.735-6.145-10.743.767-3.095 2.73-6.276 1.365-9.716l-.342-.43c-1.453 2.234-1.28 5.5-2.904 7.909-1.279 1.464-2.646 2.578-4.524 2.664-4.098-.6-7.857-2.407-10.844-5.759.598-2.064 1.28-4.642.426-6.876-.772-1.118-1.88-2.063-3.075-2.409-2.22-8.94-4.612-17.796-11.527-24.757-.343-5.674-7.089-6.62-9.395-11.005-1.026-1.804-2.475-3.352-3.074-5.33 3.758-.86 7.516.689 11.273 1.033 5.463 1.805 11.184 5.329 14.345 10.745" fill="#FFF"/><path d="M146.31 110.784c1.281-.514 3.075-.086 3.5 1.202 1.026 3.009-1.023 5.16-2.477 7.222.258 12.55-6.661 22.006-13.748 31.377-2.304 4.128-7.94 6.276-7.77 11.347-3.159 4.043-8.284 5.417-13.15 4.558-4.271 1.034-8.71 4.125-13.32 1.89.426-1.202-.685-1.977-1.453-2.49l-1.366-.26c-.599-1.891 0-3.784 1.023-5.33 2.647-3.44 7.005-3.953 10.845-3.266-3.157-3.61-10.161-.775-12.723 3.437-1.793 1.636.342 6.191-3.246 5.846-1.023-1.032-.34-3.265-2.304-3.523-.855.172-2.049-.258-1.794-1.29.086-2.064 1.026-3.87 2.647-5.33 3.245-2.75 7.602-2.75 11.873-2.921.083-.605-.686-1.119-1.2-1.207-5.805-.172-11.697 1.12-14.345 6.793-.682.601-1.707 0-1.707-.776-.255-2.147 1.28-3.524 2.477-4.984 3.586-2.923 8.282-3.009 12.893-3.093 4.61-4.3 11.7-3.87 17.678-3.527-.94-2.064-4.87-.945-4.528-3.267 3.5-9.629 1.454-21.578 10.42-28.883 2.475-2.237 5.464-3.525 7.855-5.416-5.637 1.03-9.82 8.166-16.82 5.158-1.283-.518-2.819-.775-3.503-2.237-.17-11.775 8.88-21.836 20.069-26.821 11.353 3.095 12.893 16.077 14.174 25.791m-126.468 4.298c4.441 6.016 10.417 10.571 16.225 14.443-.94 1.116-2.049 2.147-3.502 2.32-3.587-.173-6.32-2.32-9.82-2.492l-.426.43c6.318 1.975 14.601 4.64 16.139 12.375l.683.777c-2.477 1.374-6.319 2.061-7.6 4.984l.426.433c2.904-3.184 7.516-4.73 11.443-3.097 2.818 1.463 4.953 4.901 8.795 3.266 2.818-1.117 5.637.087 7.772 1.635 1.024 1.548 2.306 2.923 2.476 4.813-.768.605-2.049 1.635-3.073 1.635-1.282-2.58-3.075-4.644-5.893-5.16-2.306-.515-4.355.172-6.576-.6-.34.257-1.024.772-.427 1.202 3.16 1.462 6.918-.516 9.393 2.493 1.794 1.549 3.075 3.614 2.477 5.932-1.45 0-3.756-.17-4.27 1.72-.597 1.29 1.28 2.49-.254 3.269-.94-.949-.599-2.752-1.027-4.13-.255-2.147-1.622-4.039-3.416-5.155-2.561-1.722-6.32-.69-8.88-2.494-.34.171-1.195.772-.598 1.288 3.245 1.977 8.797-.172 10.248 4.471.17 2.063 1.536 4.041.427 6.02-.854.084-2.135-.86-3.245-.175-.94.516-1.965 1.463-1.88 2.664-4.098 2.152-8.452.69-11.868-1.89-4.356.689-9.65 1.034-12.724-2.664-1.88-2.408-2.136-5.502-3.245-8.252C8.06 149.036 4.47 139.067 4.47 128.32c-1.023-1.72-2.134-3.698-1.62-5.761.68-1.032 1.279-2.578 2.646-2.663 1.707.516.085 2.921 1.451 3.267 1.708-4.47 3.332-9.373 7.771-12.208 2.39-.172 3.672 2.663 5.124 4.126" fill="#FFF"/><path d="M102.247 126.685c1.791.604 4.61-.6 5.55 1.806-.768 8.255-5.72 15.476-12.552 20.29-3.758.255-6.662 2.923-10.845 1.634-.085-.774-.854-1.379-1.452-1.634l-2.05.602c-1.024-3.438 1.281-7.74 5.123-7.823-1.194-1.033-2.56.17-3.842.344-1.964 1.204-2.818 3.092-2.903 5.156-.598 1.375 1.708 3.612-.855 3.525-.597-.515-.34-1.46-1.194-1.804h-1.622c-.6-1.72 0-3.438 1.024-4.814 1.024-2.237 3.758-1.46 4.696-3.097l-.855-.343c3.076-2.837 8.113-2.494 11.7-1.891.427-1.032-1.196-1.204-1.793-1.634 3.928-2.492-1.11-7.477 3.417-9.284 2.816-.344 5.635-3.783 8.453-1.033" fill="#FFF"/><path d="M77.054 141.73c-2.388 1.635-3.67 4.386-2.902 7.224.342.602.514 1.372-.427 1.631-1.11.173-.256-1.03-.768-1.46-1.282-.948-2.561-1.891-1.878-3.696.938-2.408 3.415-3.786 5.975-3.699m85.225 7.224c-.34 1.631-2.222-.433-3.077 1.202-.339-.86.343-2.237 1.454-2.408 1.024-.43 1.366.518 1.623 1.206m5.978.602c-1.026.43-2.308.859-3.503 1.288-.084-1.12.768-1.977 1.622-2.492 1.11-.347 1.624.43 1.88 1.204m11.015.256c.257.514-.255.86-.598 1.203-.852-.6-1.622.171-2.221.6-.683-1.116.256-2.232 1.027-2.834.854-.26 1.537.344 1.792 1.031m-107.169.174c-.511.772-1.623.256-2.22.6-.256-.43.343-1.03.77-1.461.682-.089 1.28.258 1.45.86m11.273-.173c0 1.032-1.367.514-1.879 1.203-.085-.689.427-1.374 1.025-1.632.427-.172.598.173.854.43m-5.978.173c.172 1.374-1.366.429-2.05 1.03.171-.69 1.282-2.235 2.05-1.03m-12.637 8.251v.43c-1.283-.947-4.783 1.804-3.93-1.462 1.196-1.204 3.502-.6 3.93 1.032m21.26 1.891c.77 2.064-1.705.602-2.219 1.635h-.426c0-.862.598-1.463 1.196-2.065.512.086 1.195-.258 1.45.43m-27.069 3.095v.6c-1.366-1.03-4.611 1.462-4.1-1.891 1.453-1.46 3.332-.086 4.1 1.291m31.767 1.031c-.342 1.547-2.306 1.03-3.247 2.063-.682-.773.343-1.462.6-2.063.426-.687 1.28-1.03 1.878-.687.341 0 .513.43.769.687m-39.965 3.439v.86c-1.367-.86-3.246.946-4.099-.86-.085-.689.343-1.118.853-1.634 1.453-.342 2.649.516 3.246 1.634m47.394 0c-.515.516-1.538.86-2.306 1.29-.684-.69.342-1.72 1.024-2.065.683-.17 1.197.175 1.282.775" fill="#FFF"/><path fill="#155196" d="M5.31 163.57v-.472h3.385v.471H7.284v3.758H6.72v-3.758H5.31m4.635-.471l1.333 3.554 1.34-3.554h.77v4.23h-.533v-3.519h-.012l-1.322 3.518h-.48l-1.322-3.518h-.012v3.518h-.533v-4.229h.771m66.743-61.124l-3.967 5.998-1.232-2.029 2.833-5.637m10.526 14.024c1.766 5.295.014 11.034-5.48 12.868-5.495 1.833-11.459-1.14-13.224-6.435-1.766-5.294.829-10.204 6.324-12.035 5.495-1.834 10.614.309 12.38 5.602"/><path d="M83.954 114.94c1.561 4.68-.942 9.73-5.59 11.28-4.648 1.55-9.68-.987-11.24-5.666-1.561-4.678.94-9.73 5.59-11.28 4.648-1.55 9.68.988 11.24 5.666" fill="#FFF"/><path d="M74.465 105.618c.405 1.21-.175 3.188-1.468 3.618-1.293.432-2.81-.848-3.214-2.058-.405-1.212.316-2.542 1.61-2.974 1.294-.43 2.669.203 3.072 1.414" fill="#155196"/><path fill="#0A8137" d="M72.905 113.78l-4.952 1.728.656 1.88.887-.311 6.917 7.908 2.694-.939.655-10.548.762-.266-.665-1.907-4.982 1.735.671 1.924 1.169-.407-.325 6.021-3.916-4.543 1.09-.381-.661-1.895"/><path d="M73.735 105.972c.3.898-.064 2.4-.963 2.7-.899.3-1.991-.716-2.29-1.615a1.715 1.715 0 1 1 3.253-1.085" fill="#FFF"/><path d="M73.089 106.304c.17.51.068 1.638-.43 1.805-.5.166-1.208-.691-1.377-1.2a.963.963 0 0 1 .597-1.226.961.961 0 0 1 1.21.62" fill="#155196"/><path d="M89.805 68.64c.031-.01.031-.01.05-.046.311-.184.318-.154.746-.497.013-.07.503-.299.5-.427.204-.22.302-.215.675-.642.363-.458 1.846-2.194 2.735-3.48.04-.34.4-.696-.026-1.069-2.151-1.147-4.452-1.635-6.866-2.057-.107-.037-.245-.065-.351-.1-1.693-2.706-3.049-5.73-5.303-8.35.225-2.443 1.48-5.165 1.386-7.586.002-.848-.179-1.648-.63-2.375a2.926 2.926 0 0 1-.033-.12c-1.406-.044-2.698.338-3.912.895-.572.286-1.137.602-1.701.916l-2.164 1.37c-.226.128-.48.26-.707.389-1.78-1.446-4.263-1.522-6.04-2.967l.029-.497c1.873.83 4.029.77 5.874-.091a7.296 7.296 0 0 0 2.134-1.49.685.685 0 0 0 .15-.17l.027-.009c.154-.4.428-.834.768-1.023.154-.269.033-.726.102-1.072l-.996-2.402c-.64-.222-1.126-.578-1.558-.982-1.159-1.19-1.732-2.86-2.717-4.128a1.727 1.727 0 0 0-1.042-.5c-.708-.102-1.516.15-2.247.086-1.191.03-2.332 1.348-3.336.74a7.453 7.453 0 0 0-1.462-.255 4.437 4.437 0 0 0-1.802.29c-.182.05-.348.16-.52.24-.34.188-.632.431-.908.734-.348.519-.56 1.064-.716 1.695a8.925 8.925 0 0 0-.196 1.457c-.007.458.001.976-.006 1.436.063.602.11 1.143.179 1.649-.023.036-.023.036-.053.046-.496.687-1.168.967-1.91 1.102-.16.012-.32.022-.508.041-.287.014-.607.032-.963.034-.707.027-1.452.033-2.146.22a3.356 3.356 0 0 0-.528.21 2.246 2.246 0 0 1-.306.308 5.525 5.525 0 0 1-1.98 1.093c-.234.096-.514.137-.785.212-.765.175-1.592.236-2.433.363-.47.065-.938.125-1.422.255-.545.148-1.081.327-1.586.626a5.715 5.715 0 0 0-1.019.798.223.223 0 0 1-.112.062c-.325.12-.636.175-.923.185-.42.016-.769-.086-1.054-.3-1.07-.853-.964-3.262-2.05-4.537-.109-.164-.27-.285-.44-.435-.038-.022-.084-.073-.161-.12-.919-.893-2.027-1.277-3.231-1.18a5.3 5.3 0 0 0-1.225.269c-.194.376-.37.686-.586.972-1.974 2.687-5.773 1.693-7.31 5.175-.045.08-.087.155-.133.233-.776 1.71.188 3.503.503 5.178-.419.737-.808 1.59-.744 2.682.108 1.016.79 1.875 1.678 2.286.265.025.54.085.816.27.184.082.39.121.558.143a5.42 5.42 0 0 0 2.698-.212c.947-.22 1.89-.574 2.958-.698.054.442-.26.722-.495.819-.308.18-.549.376-.65.597-1.128 1.122-2.569 1.318-4.017 1.35-.844.001-1.726-.02-2.53 0-.249.036-.5.066-.734.165-.483.13-.956.423-1.39.734-.153.046-.289.147-.409.178l-.27.203-.11.193c.036.382.103.755.131 1.105-.017.299.094.596.362.752.001.13-.026.267-.016.426.14.162.268.027.383.225 1.023 1.646 2.161 3.36 3.604 4.766.075.044.16.12.238.162-.02.17-.049.31-.078.446-.337 2.996-.195 6.447.12 9.461l-1.163 1.23-4.157 4.484c-.869 1.115.458 2.453 1.443 2.743 1.517.827 3.297 1.062 5.029 1.476l1.142.277c.394 2.569 2.796 4.168 2.71 6.768-.017.3-.028.628-.135.952.462 3.693 2.152 7.606 4.996 10.13.756.645 1.546 1.18 2.434 1.592.436.174.924.307 1.403.401 2.188.423 4.497.09 6.323-1.089.757.774 1.708 1.299 2.716 1.679.75.254 1.541.432 2.297.584.981.159 1.94.226 2.843.208.062.117.154.22.21.305.23.264.455.495.658.765.402.416.782.864 1.183 1.28.431.405.863.812 1.288 1.186.407.314.806.595 1.197.847.423.246.836.461 1.302.63a.976.976 0 0 0 .172-.213 6.379 6.379 0 0 0 1.187-2.113c.348-1.008.52-2.065.654-3.147.103-.71.167-1.447.26-2.19.53-.078 1.082-.193 1.597-.336.272-.072.545-.144.787-.21a24.727 24.727 0 0 0 2.09-.666c.297-.113.59-.223.883-.337a44.35 44.35 0 0 0 1.993-.798c.296-.114.589-.228.874-.367.174-.08.324-.12.469-.192.233-.098.467-.193.692-.32.582.366 1.166.729 1.72 1.1.153.09.277.184.4.285.153.089.314.209.477.328.228.131.467.296.705.457.843.494 1.687.985 2.61 1.287.214.075.42.114.634.186.237.035.443.077.67.082.312-.77.52-1.578.59-2.412.234-1.922-.11-3.949-.446-5.816-.064-.246-.09-.465-.157-.708 2.042-.127 3.886-1.117 5.382-2.565a12.193 12.193 0 0 0 1.904-2.344l-.009-.03c.533-.925.918-1.912 1.159-2.955.555-2.302.505-4.802.163-7.188a30.844 30.844 0 0 0-1.317-5.19l-.183-6.051c.28-.4.214-.286.463-.45" fill="#155196"/><path d="M89.801 68.617l.007.023-.007-.023zm-31.09 38.698c.201.207.396.423.591.64.19.21.381.42.576.622l.044.04c.409.385.818.77 1.221 1.123.373.287.766.565 1.15.812.364.212.668.367.965.49a5.956 5.956 0 0 0 1.11-1.98c.352-1.018.514-2.077.637-3.07.06-.423.107-.846.154-1.275.033-.303.067-.61.106-.917l.037-.296.296-.044c.526-.077 1.061-.19 1.548-.325l.79-.21c.7-.19 1.374-.405 2.058-.657l.876-.334a42.967 42.967 0 0 0 1.983-.794c.323-.125.592-.23.853-.358.101-.047.188-.08.27-.11.07-.026.135-.05.198-.081l.065-.028c.214-.09.417-.174.607-.281l.204-.115.405.253c.517.324 1.032.647 1.524.978.157.09.294.195.407.288.14.083.288.19.436.299l.047.034c.172.097.388.242.604.388l.089.06c.784.459 1.617.947 2.513 1.24.11.039.21.065.31.092.097.026.195.052.294.085l.135.02.181.028a7.73 7.73 0 0 0 .459-2.028c.236-1.941-.14-4.033-.442-5.713a5.613 5.613 0 0 1-.072-.333c-.023-.113-.044-.224-.076-.342l-.127-.466.482-.03c1.815-.113 3.59-.962 5.132-2.455a11.74 11.74 0 0 0 1.772-2.156l.056-.13c.51-.885.885-1.843 1.116-2.848.486-2.018.54-4.386.157-7.044a30.29 30.29 0 0 0-1.299-5.117l-.021-.117-.188-6.182.076-.107c.213-.305.271-.382.458-.487a1.32 1.32 0 0 0 .071-.041l.008-.013.098-.067c.08-.048.14-.082.194-.112.135-.075.201-.112.461-.319.066-.076.158-.136.262-.204a4.3 4.3 0 0 0 .134-.089v-.014l.107-.116a2.11 2.11 0 0 1 .259-.236 2.77 2.77 0 0 0 .407-.397c.072-.09.214-.263.394-.481.598-.725 1.589-1.926 2.266-2.895.023-.1.058-.193.09-.277.084-.22.087-.255.029-.312-2.145-1.133-4.489-1.607-6.707-1.994l-.063-.017c-.047-.016-.102-.03-.155-.044a3.012 3.012 0 0 1-.19-.054l-.134-.044-.075-.12a71.147 71.147 0 0 1-1.544-2.64c-1.083-1.916-2.203-3.896-3.723-5.663l-.109-.127.016-.166c.1-1.081.396-2.219.682-3.32.37-1.42.753-2.89.702-4.214.001-.824-.173-1.513-.534-2.12-1.106.006-2.22.283-3.484.863-.517.258-1.05.554-1.566.842l-.108.06-2.145 1.358c-.133.076-.257.144-.382.211-.116.063-.232.126-.341.188l-.234.132-.209-.17c-.837-.68-1.841-1.038-2.904-1.417-1.08-.385-2.195-.783-3.136-1.549l-.156-.126.074-1.266.52.23c1.745.775 3.767.742 5.548-.088a6.859 6.859 0 0 0 2.02-1.409.446.446 0 0 0 .091-.097l.07-.116c.127-.282.368-.71.742-.974.015-.09.012-.232.01-.342a3.136 3.136 0 0 1 .01-.419l-.89-2.143c-.705-.28-1.206-.702-1.53-1.004-.712-.731-1.201-1.602-1.675-2.445-.345-.614-.67-1.194-1.066-1.707a1.325 1.325 0 0 0-.801-.374c-.325-.046-.69-.005-1.077.038-.377.042-.766.085-1.151.051-.364.011-.81.226-1.242.433-.683.33-1.456.702-2.211.282a6.86 6.86 0 0 0-1.333-.23 4.032 4.032 0 0 0-1.64.266c-.116.034-.209.083-.306.134a4.156 4.156 0 0 1-.19.095 3.082 3.082 0 0 0-.76.62c-.29.437-.489.915-.646 1.547-.09.381-.152.85-.186 1.386-.002.203-.002.44-.001.676 0 .244 0 .489-.003.719l.049.484c.04.4.077.773.126 1.128l.02.143-.078.121a.502.502 0 0 1-.118.136c-.64.838-1.505 1.08-2.106 1.188l-.162.015c-.118.009-.24.018-.378.032l-.136.007c-.262.013-.55.027-.864.028l-.22.008c-.615.022-1.25.044-1.826.2-.128.035-.258.09-.384.147-.095.11-.193.198-.293.286a5.932 5.932 0 0 1-2.12 1.172c-.15.063-.341.107-.526.15-.09.02-.182.041-.273.066-.536.123-1.062.189-1.62.259-.283.035-.57.07-.859.114l-.109.016c-.435.06-.846.116-1.27.23-.457.124-.991.29-1.488.584a5.257 5.257 0 0 0-.937.735.662.662 0 0 1-.277.164c-.335.121-.68.19-1.026.202-.507.016-.945-.109-1.305-.38-.66-.526-.915-1.439-1.185-2.405-.226-.806-.458-1.64-.927-2.19a1.594 1.594 0 0 0-.297-.306l-.082-.072a.971.971 0 0 1-.07-.053c-.015-.013-.033-.029-.057-.043l-.07-.055c-.823-.8-1.81-1.16-2.925-1.07a4.985 4.985 0 0 0-.981.2 6.421 6.421 0 0 1-.548.886c-.957 1.302-2.293 1.794-3.585 2.27-1.493.548-2.902 1.067-3.68 2.827-.06.113-.105.192-.153.273-.492 1.091-.155 2.273.201 3.524.13.454.263.922.35 1.383l.026.142-.071.125c-.394.693-.751 1.472-.694 2.464.086.804.62 1.543 1.395 1.925.253.03.569.097.894.306.11.046.249.079.421.101.863.148 1.729.08 2.52-.193.352-.084.665-.172.982-.261.649-.182 1.32-.37 2.059-.456l.388-.046.048.388c.073.595-.299 1.036-.707 1.219-.322.191-.434.327-.471.41l-.03.064-.05.05c-1.236 1.229-2.79 1.43-4.286 1.466-.307-.004-.605-.003-.905-.006a52.746 52.746 0 0 0-1.6.003l-.041.006c-.21.03-.406.059-.574.13l-.051.017c-.455.122-.914.424-1.264.674l-.117.057c-.054.016-.104.044-.152.07-.056.028-.117.06-.184.084l-.16.127c.015.134.033.264.05.394.027.204.054.403.07.596l.001.027-.001.027c-.005.085.002.292.168.39l.193.113.002.224c0 .057-.003.115-.008.176a.604.604 0 0 1 .32.278c1.002 1.611 2.125 3.296 3.511 4.654l.096.069c.03.022.06.045.088.06l.23.13-.031.261a5.13 5.13 0 0 1-.084.481c-.362 3.235-.132 6.868.126 9.339l.019.18-1.288 1.36-4.153 4.482c-.178.23-.227.504-.128.811.192.597.873 1.133 1.393 1.287l.077.032c1.124.612 2.397.885 3.745 1.174.396.084.793.17 1.187.264l1.4.339.04.261c.168 1.094.724 1.996 1.312 2.951.714 1.159 1.453 2.358 1.402 3.89l-.003.062c-.015.277-.031.588-.124.911.506 3.89 2.318 7.549 4.857 9.802a10.212 10.212 0 0 0 2.338 1.529c.36.143.82.275 1.313.372 2.168.419 4.367.043 6.034-1.033l.27-.174.225.229c.642.657 1.484 1.175 2.573 1.586.752.255 1.553.43 2.235.565.93.151 1.86.218 2.758.202l.242-.005.113.214c.03.056.07.106.106.153.024.033.048.064.068.094l.186.208c.154.171.312.348.46.544zm4.756 4.647l-.219-.08a8.283 8.283 0 0 1-1.365-.659c-.418-.268-.83-.56-1.24-.875-.429-.376-.845-.767-1.26-1.157l-.058-.054c-.214-.222-.41-.439-.606-.655-.195-.215-.39-.43-.59-.638l-.032-.038a7.212 7.212 0 0 0-.432-.509c-.068-.076-.138-.153-.207-.233l-.032-.043c-.016-.024-.037-.05-.058-.078a3.95 3.95 0 0 1-.034-.046 16.967 16.967 0 0 1-2.696-.217c-.721-.144-1.552-.325-2.36-.6-1.089-.41-1.954-.92-2.644-1.555-1.798 1.058-4.09 1.415-6.343.98a8.348 8.348 0 0 1-1.475-.423c-.89-.412-1.716-.952-2.543-1.658-2.702-2.397-4.618-6.276-5.132-10.38l-.01-.089.027-.084c.084-.254.099-.529.113-.794l.002-.054c.043-1.288-.602-2.335-1.285-3.444-.561-.91-1.14-1.85-1.372-2.982l-.893-.217a51.66 51.66 0 0 0-1.17-.26c-1.33-.285-2.705-.58-3.92-1.233-.712-.226-1.6-.92-1.878-1.788a1.631 1.631 0 0 1 .278-1.562l5.22-5.61c-.254-2.505-.468-6.103-.1-9.368.015-.077.03-.148.042-.217l-.014-.009-.072-.056c-1.448-1.41-2.604-3.136-3.637-4.796a.65.65 0 0 1-.373-.217l-.086-.101-.01-.132a1.925 1.925 0 0 1 .005-.268 1.206 1.206 0 0 1-.352-.928c-.015-.172-.039-.35-.063-.53a14.97 14.97 0 0 1-.066-.545l-.012-.124.212-.373.399-.3.075-.019c.034-.009.069-.03.107-.05.069-.035.142-.071.218-.1.392-.278.9-.602 1.445-.753.252-.102.511-.14.74-.173l.111-.013a50.163 50.163 0 0 1 1.65-.003c.299.002.599.007.89.004 1.508-.035 2.721-.252 3.696-1.192.126-.23.345-.437.68-.646-.377.084-.745.187-1.105.288-.329.092-.653.183-.977.259a5.783 5.783 0 0 1-2.855.216 2.36 2.36 0 0 1-.65-.17l-.061-.034c-.177-.12-.36-.179-.633-.205l-.128-.034c-1.056-.49-1.786-1.487-1.905-2.602-.067-1.151.315-2.053.722-2.79-.08-.38-.19-.766-.305-1.173-.38-1.332-.773-2.71-.142-4.102l.145-.26c.897-2.034 2.533-2.636 4.114-3.218 1.237-.455 2.405-.885 3.225-2 .18-.238.339-.503.553-.92l.071-.138.148-.052a5.718 5.718 0 0 1 1.317-.29c1.331-.105 2.542.33 3.515 1.262.044.03.08.059.11.084l.067.051.096.083c.144.124.293.253.41.428.554.646.81 1.565 1.059 2.453.234.84.456 1.634.91 1.995.205.155.467.228.793.215.27-.01.539-.064.801-.16a5.985 5.985 0 0 1 1.056-.824c.589-.349 1.186-.536 1.695-.673.473-.128.928-.19 1.367-.251l.104-.015c.29-.044.584-.08.874-.116.537-.067 1.045-.13 1.525-.24.084-.024.188-.048.29-.072.16-.036.312-.07.432-.12a5.224 5.224 0 0 0 1.874-1.028c.098-.086.18-.16.253-.253l.058-.075.085-.04c.172-.08.373-.17.59-.23.665-.18 1.346-.204 2.005-.227l.23-.009c.317-.001.592-.015.843-.027l.117-.005c.124-.014.253-.023.378-.033l.12-.009c.71-.13 1.212-.405 1.578-.883-.039-.31-.071-.633-.105-.976l-.054-.527v-.025c.004-.233.004-.48.004-.728 0-.241-.001-.481.002-.707a9.245 9.245 0 0 1 .207-1.541c.184-.741.422-1.302.773-1.824l.036-.046a3.912 3.912 0 0 1 1.007-.813c.077-.037.127-.064.178-.09.124-.066.266-.14.428-.185a4.774 4.774 0 0 1 1.925-.304c.468.027.942.109 1.544.266l.104.045c.388.234.828.044 1.515-.287.507-.244 1.03-.495 1.608-.51.352.03.685-.008 1.038-.048.419-.046.852-.095 1.274-.034.507.07.91.263 1.262.609l.035.04c.438.564.799 1.205 1.147 1.825.45.799.913 1.625 1.54 2.269.465.433.902.71 1.406.885l.167.058 1.11 2.676-.024.117c-.02.1-.016.24-.014.374.006.264.013.563-.132.817l-.055.095-.095.053c-.214.12-.447.441-.593.82l-.071.187-.09.025a1.307 1.307 0 0 1-.124.122 7.531 7.531 0 0 1-2.226 1.55 7.56 7.56 0 0 1-4.904.529c.616.327 1.288.567 1.985.815 1 .357 2.03.725 2.925 1.385l.123-.067c.12-.065.24-.13.353-.195l2.275-1.431c.524-.291 1.065-.593 1.61-.864 1.484-.681 2.78-.98 4.099-.937l.294.01.091.345c.446.74.662 1.57.66 2.535.055 1.423-.343 2.95-.727 4.427-.276 1.06-.537 2.063-.644 3.03 1.514 1.79 2.625 3.756 3.7 5.659.488.863.95 1.68 1.448 2.482l.01.002c.062.017.126.034.184.053 2.286.4 4.706.893 6.954 2.092l.074.05c.511.449.322.946.22 1.213-.027.075-.056.151-.062.2l-.012.096-.055.08c-.697 1.008-1.735 2.266-2.355 3.017a41.69 41.69 0 0 0-.396.484 3.54 3.54 0 0 1-.519.507c-.04.033-.079.063-.12.103-.086.167-.267.284-.444.4a2.616 2.616 0 0 1-.04.025v.005l-.114.092c-.334.267-.435.327-.615.428a6.819 6.819 0 0 0-.106.06.424.424 0 0 1-.142.1 2.25 2.25 0 0 1-.122.072.93.93 0 0 0-.123.146l.177 5.859a31.111 31.111 0 0 1 1.314 5.2c.398 2.763.34 5.231-.169 7.342-.235 1.02-.61 2-1.114 2.908l.003.012-.089.184a12.58 12.58 0 0 1-1.966 2.419c-1.548 1.498-3.328 2.402-5.172 2.629.017.084.035.17.058.26.317 1.76.705 3.917.456 5.962a8.593 8.593 0 0 1-.617 2.512l-.101.25-.27-.005a3.948 3.948 0 0 1-.558-.06l-.231-.042a5.132 5.132 0 0 0-.279-.081 4.715 4.715 0 0 1-.36-.107c-.966-.316-1.836-.826-2.678-1.319l-.11-.074c-.201-.135-.4-.27-.593-.381l-.083-.059c-.134-.098-.267-.196-.393-.269l-.056-.038a2.47 2.47 0 0 0-.346-.247c-.506-.34-1.015-.658-1.525-.978l-.015-.01c-.162.08-.323.146-.48.212-.107.05-.195.084-.289.12-.066.024-.135.05-.21.084-.282.138-.578.254-.866.365-.597.25-1.315.553-2.03.813l-.877.334a24.9 24.9 0 0 1-2.128.679l-.79.21c-.422.118-.882.22-1.342.297l-.069.613c-.048.437-.096.87-.156 1.293-.128 1.028-.297 2.136-.672 3.219a6.738 6.738 0 0 1-1.239 2.216c-.062.1-.151.205-.232.277l-.175.153z" fill="#155196"/><path d="M48.265 69.443c-.333-.399-.59-.885-.564-1.512-.001-.13.027-.268.054-.403.12-.528.25-1.015.445-1.494.193-.377.414-.763.69-1.067.231-.226.494-.46.81-.61.113-.064.225-.127.338-.188.312-.052.646-.013.988.059.617.124 1.26.34 1.845.347.447-.022.84-.13 1.221-.526l-.23-1.112c.028-.01.058-.017.058-.017 1.302-.35 1.895 1.512 2.988 1.964.07.147.133.26.165.381a.772.772 0 0 1 .098.361c.11.662-.153 1.383-.647 1.843a8.01 8.01 0 0 1-1.114 1.05 7.556 7.556 0 0 1-1.26.863 5.947 5.947 0 0 1-1.568.687c-.415.144-.848.23-1.294.254-.32.02-.637.041-.973 0-.327-.01-.67-.078-1.013-.15l-.008-.029c-.397-.155-.72-.393-1.029-.7" fill="#FFF"/><path d="M65.483 81.4l-.01-.043c-.007.014-.013.025-.018.04h-.006l.003.006a9.04 9.04 0 0 0-.56 1.549c-.113.55-.14 1.177.014 1.758-.796-.307-1.256-1.555-2.172-1.338-.03.008-.09.024-.121.03-.191.38-.306.8-.39 1.219-.114.909-.043 1.901-.137 2.776-.839-.72-1.308-1.996-2.261-2.294a1.68 1.68 0 0 0-.451-.103c-.342.416-.548.865-.714 1.336-.312.897-.432 1.91-.935 2.698-.03.009-.06.016-.098-.009-.98-.385-1.514-1.544-1.797-2.48-.965-2.904.484-6.1-1.645-8.622a2.16 2.16 0 0 1 .145-1.28c.293-.604.818-1.071 1.365-1.448.28-.172.535-.306.783-.473.176.051.396.025.585.005.72-.096 1.4-.344 1.94.227.402.412.75.875 1.001 1.325.274.416.477.82.62 1.236.27-1.18-.563-2.49-1.22-3.616l.754-.206c.718-.227 1.474-.43 2.2-.268.265.027.517.122.77.217.172.278.343.56.476.815 1.487 2.663 1.436 6.006 4.125 8.312-.693-.553-1.265-1.36-2.246-1.37" fill="#ED114C"/><path d="M54.322 77.858c1.281 1.54 1.277 3.349 1.272 5.098-.003 1.178-.006 2.395.376 3.542.266.882.773 2 1.68 2.378.29-.49.446-1.079.597-1.649.083-.311.168-.633.275-.94.138-.393.346-.904.738-1.38l.05-.062.08.008c.192.021.338.055.488.114.615.191 1.043.77 1.457 1.33.2.269.404.545.63.783.022-.313.027-.638.033-.976.009-.498.018-1.011.08-1.502.105-.527.232-.926.403-1.266l.032-.063.07-.015c.029-.006.085-.02.113-.028.636-.15 1.061.289 1.472.712.17.175.344.355.529.486a4.253 4.253 0 0 1 .051-1.506c.124-.49.306-.999.542-1.518l-.068-.148.137-.004.148-.317.09.322c.29.02.545.103.777.225-.839-1.21-1.27-2.564-1.692-3.887-.33-1.038-.673-2.11-1.206-3.066a13.047 13.047 0 0 0-.446-.767c-.235-.088-.457-.167-.688-.19-.71-.16-1.445.042-2.139.262l-.576.157.024.04c.648 1.102 1.383 2.35 1.117 3.517l-.115.502-.168-.487a5.345 5.345 0 0 0-.604-1.204 6.33 6.33 0 0 0-.983-1.303c-.397-.42-.887-.337-1.452-.24-.12.02-.24.04-.363.057-.2.021-.398.042-.577.006a9.319 9.319 0 0 1-.414.252c-.103.06-.21.122-.32.19-.64.441-1.072.896-1.31 1.386a2.015 2.015 0 0 0-.14 1.15zm3.358 11.33a.235.235 0 0 1-.135-.04c-1.008-.394-1.568-1.611-1.855-2.56-.396-1.19-.393-2.432-.39-3.633.005-1.786.01-3.472-1.227-4.937l-.025-.03-.008-.037c-.09-.456-.036-.93.155-1.367.264-.543.726-1.035 1.417-1.51.118-.073.227-.136.332-.197.156-.091.306-.178.452-.277l.057-.038.067.019c.14.04.334.02.504.002.139-.018.257-.037.372-.057.596-.1 1.21-.205 1.714.326.41.422.764.891 1.023 1.355.15.228.28.456.391.684-.058-.894-.62-1.85-1.126-2.71l-.219-.374.941-.255c.726-.23 1.505-.442 2.27-.27.265.026.531.125.788.221l.047.018.028.043c.17.273.344.562.482.825.546.978.892 2.065 1.227 3.116.582 1.825 1.183 3.712 2.863 5.152l-.188.227c-.167-.134-.327-.282-.488-.43-.486-.449-.945-.874-1.602-.905a8.737 8.737 0 0 0-.512 1.439c-.086.415-.155 1.05.013 1.684l.074.279-.269-.104c-.348-.134-.627-.422-.896-.7-.386-.399-.719-.744-1.19-.632l-.052.014c-.145.303-.255.662-.347 1.12-.059.464-.067.97-.076 1.46-.007.435-.015.886-.06 1.303l-.029.278-.212-.182c-.343-.294-.622-.671-.893-1.037-.403-.545-.784-1.06-1.317-1.227a1.478 1.478 0 0 0-.344-.088c-.33.423-.514.877-.637 1.229-.103.295-.187.611-.269.917-.165.623-.335 1.268-.681 1.81l-.03.048-.054.015a.288.288 0 0 1-.086.014z" fill="#155196"/><path d="M63.78 61.232c.557.142 1.07.363 1.536.528.425.145.805.467 1.047.892.319.469.502 1.04.542 1.551.001.13-.004.226-.033.365-.081 1.036-.83 1.631-1.65 2.08a2.292 2.292 0 0 1-.452.252c-.263.104-.52.239-.755.335-.02.038-.052.046-.112.063-.657.21-1.377.305-2.12.314a5.764 5.764 0 0 1-1.005-.121c-.952-.167-1.861-.538-2.578-1.161-.132-.13-.264-.255-.372-.42-.013-.292.014-.56.04-.827.22-1.365.93-2.472 1.266-3.767.031-.01.022-.04.044-.081.568-.053.452 1.577 1.228 1.203.06-.016.113-.065.195-.115.404-.799.99-1.152 1.65-1.233.341-.058.669-.05.98.03.197.012.374.062.55.112m-10.265.169a4.244 4.244 0 0 1 2.14-1.46 7.677 7.677 0 0 1 3.082-.119c.136.03.273.057.403.053-.13.004-.25.036-.38.04-.705.027-1.43.222-2.147.45-.243.067-.508.172-.772.275-.8.282-1.562.587-2.317.788l-.009-.027M75.1 46.425a14.306 14.306 0 0 1 1.584-1.141c.233-.135.462-.277.708-.395a12.76 12.76 0 0 1 1.732-.794c.883-.336 1.776-.645 2.597-.965-.052 2.363-.264 4.738-1.025 6.868a10.157 10.157 0 0 1-1.273 2.528 5.998 5.998 0 0 1-.526.7c-.48-.023-1.066-.212-1.592-.447a6.111 6.111 0 0 1-.403-.22c-1.48-.938-2.656-2.674-3.356-4.216.403-.744.952-1.376 1.553-1.918M36.81 45.401c-.045.437-.07.833-.131 1.21-.035.238-.068.476-.147.66-1.142 2.167-3.513 4.835-6.194 4.872-.482.133-.859-.059-1.166-.366a2.96 2.96 0 0 1-.407-.675c.051-.046.126-.133.178-.177 1.394-1.585.419-4.16.31-6.153-.095-1.572.333-2.764 2.847-2.824-.081 1.032-.834 1.986-.187 2.953.852-1.668 1.264-3.897 2.984-4.983.249-.165.504-.3.798-.413a3.064 3.064 0 0 1 1.256.085c2.264.594 2.4 4.145 4.224 5.641.1.138.194.241.28.316.16.115.3.204.457.258l.008.033c.29.12.696.177.954.174.098.006.19-.02.31-.053.19-.018.4-.075.604-.162.295-.114.588-.224.875-.367.428-.214.82-.45 1.196-.617.206-.09.386-.137.59-.224l1.053-.188 1.422-.253 2.416-.427.733-.166.046-.077c.543-.638 1.229-.987 1.946-1.213.304-.084.613-.134.924-.185.72-.097 1.455-.132 2.162-.161.347-.029.666-.05.955-.062.181-.05.34-.06.499-.07.773-.145 1.46-.365 1.992-.801.106-.094.186-.15.26-.233.129-.133.225-.257.292-.374.171-.21.304-.439.4-.697.101-.221.173-.434.237-.682.499-1.536-.215-3.856.428-5.335.134-.232.245-.426.414-.633a3.01 3.01 0 0 1 1.25-.667c.168.02.344.073.482.1 1.546.331 2.645 1.534 4.045 2.165l.127-.132-1.499-1.974c1.149-.31 2.45-1.023 3.59-.155.342.916.94 1.831 1.623 2.69.844.982 1.854 1.849 2.821 2.434.388.613.31 1.776-.168 2.297a6.507 6.507 0 0 1-1.195.747c-1.773.775-4.067.68-5.701-.348-.64-.579-1.324-1.078-2.017-1.608-.584-.492-1.17-.989-1.675-1.669-.262.236-.37.56-.41.896-.015.428.044.903.135 1.237l.327.498c1.063 1.442 2.046 2.935 3.04 4.362 1.099 1.564 2.239 3.05 3.515 4.432.132.129.23.264.363.391.845 1.11 1.082 2.48 1.248 3.839-.877.237-1.81.263-2.63.713a.827.827 0 0 0-.257.134c-.345-1.542-1.38-2.989-2.664-4.042a3.944 3.944 0 0 0-.722-.522c-.201-.141-.431-.274-.63-.417.133-.118.3-.342.415-.516l.003.013a2.19 2.19 0 0 0 .343-.78c.036-.108.073-.216.1-.353-.068-.015-.136-.03-.205-.043a1.25 1.25 0 0 0-.625-.156c-.739-.093-1.447.163-2.125.541-.174.08-.338.19-.505.3a1.852 1.852 0 0 1-.329.222c-.008 0-.016 0-.03.007-.076.083-.159.14-.241.194-.733.656-1.215 1.406-1.603 2.262-.093.252-.187.507-.304.8-.197.608-.313 1.26-.463 1.918-.167.961-.317 1.979-.492 2.908-.19.377-.453.612-.746.723-.295.112-.613.132-.948.094-.395-.024-.792-.175-1.144-.277-1.49-.607-.15-3.485-1.977-2.926-.06.02-.151.045-.242.066.197.861.332 1.74.087 2.523a2.09 2.09 0 0 1-.448.873c-.447.51-1.02.795-1.61.895-.492.098-.995.037-1.445-.07-.03.007-.03.007-.068-.015-.979-.874-1.73-2.238-2.63-3.3-.487-.619-1.042-1.121-1.738-1.42a3.261 3.261 0 0 0-1.036-.243c-.1-.005-.238-.033-.366-.032-.182.05-.38.04-.6.065-.257.003-.546.016-.842-.001-.13.003-.29.014-.448.027-.698.057-1.363.236-1.892.803.26.613.718 1.242 1.422 1.084-.705.518-1.15 1.157-1.45 1.859-.312.9-.362 1.926-.186 2.953l.722 1.861c-.38.038-.817.22-1.277.444-1.092.526-2.32 1.15-2.799-.286-.642-2.532.357-5.12.686-7.657.247-1.632.205-3.25-.671-4.84.483-1.11.454-2.31.155-3.434-.187-.702-.501-1.4-.831-2.028-.352.387-.376 1.145-.433 1.91" fill="#FFF"/><path d="M42.304 101.135c-1.754-.993-3.245-2.581-4.394-4.455a1.729 1.729 0 0 1-.147-.188c-1.15-2.004-1.663-4.185-1.7-6.39-.042-2.47.525-4.97 1.368-7.288.705-1.853 1.565-3.618 2.541-5.188-.144-.42-.034-1.1-.636-1.298-1.21 1.177-1.096 3.07-2.26 4.3a3.332 3.332 0 0 1-.366-.521c-.9-1.552-1.325-3.395-1.417-5.328-.113-3.1.707-6.354 2.05-8.74.88-1.447 2.22-2.494 3.637-3.27a75.6 75.6 0 0 1 .797-.411c.466.168.843 0 1.23-.008a1.89 1.89 0 0 1 .592.039c-.116.292-.202.576-.356.844-.294.733-.623 1.442-.498 2.157.215-.418.465-.81.764-1.15a7.06 7.06 0 0 1 2.437-1.803c.145-.071.296-.113.408-.176a8.26 8.26 0 0 1 1.701-.426c.032-.008.032-.008.06-.019l.25.324c.178-.176.388-.367.597-.552.377-.296.75-.593 1.125-.891.489-.362.983-.692 1.496-.958.443-.285.872-.5 1.301-.714.754-.332 1.516-.638 2.302-.852l.787-.213c.28-.04.521-.11.771-.143.019.002.04 0 .058.002.452-.075.902-.132 1.36-.156a6.69 6.69 0 0 1 .964-.031c.745-.01 1.474.055 2.242.143l.344-.423c.159-.008.348-.027.506-.037.19-.018.35-.028.517-.008.745-.009 1.521.11 2.252.172a.933.933 0 0 1 .333.04c-.098-.007-.19.02-.317.021a8.18 8.18 0 0 0-2.032.647 2.41 2.41 0 0 1-.453.255c-.268.2-.546.373-.809.61-.105.093-.21.188-.285.272a4.434 4.434 0 0 0-2.184-1.268c-.321-.11-.656-.15-1.02-.181-.455-.066-.95-.058-1.418-.056-.275.044-.55.09-.829.141-.242.065-.514.14-.778.243-.78.246-1.51.67-2.212 1.19a6.895 6.895 0 0 0-1.198 1.105 8.171 8.171 0 0 0-1.192 1.856c-.03.01-.03.01-.06.015a4.273 4.273 0 0 0-1.434-.265 4.284 4.284 0 0 0-.954.064c-.303.08-.597.193-.875.368-.225.126-.474.29-.704.517.008.032-.023.038-.023.038-.128.13-.232.225-.337.32-.87.985-1.431 2.051-2.104 3.048-.43.704-.935 1.365-1.634 1.909-.074.088-.156.14-.239.197-1.55 1.723.012 4.432-1.285 6.252l.268.288c1.066-1.234 1.364-2.917 1.856-4.484.317-.999.712-1.955 1.413-2.731a5.02 5.02 0 0 1 1.055-.904c-.146-1.039.28-2 .937-2.572.022-.037.054-.046.104-.094.077-.085.19-.146.264-.234.24-.196.503-.298.737-.396.325-.119.635-.169.923-.183.181-.05.342-.06.501-.07-.166.11-.31.181-.444.284-.269.202-.54.405-.803.64-.223.257-.455.48-.64.762-.088.153-.207.316-.325.48-1.188 2.113-.937 4.885-.891 7.612.041 1.262.018 2.506-.191 3.672-.085 3.578 1.826 7.108 1.836 10.56.028 1.563-.32 3.059-1.38 4.553-1.218 3.589-.388 7.315 1.823 10.141-2.113.342-4.012-.089-5.683-1.006" fill="#FFF"/><path d="M55.468 88.959c-.051.047-.112.064-.165.111-.256.135-.567.187-.916.216-.249.034-.546.017-.84-.001-.17-.02-.307-.05-.444-.079a21.341 21.341 0 0 1-.376-2.997 9.307 9.307 0 0 1 .236-2.283c.123-.391.252-.753.444-1.131.188.832.52 1.59.86 2.379.598 1.273 1.158 2.524 1.201 3.785m22.724 4.746c-.6.555-1.204 1.075-1.85 1.576a2.362 2.362 0 0 1-.479.39c-.075.087-.188.15-.323.25-.082.057-.165.111-.27.204-.601.424-1.23.854-1.877 1.228-.136.1-.28.172-.452.25-.248.167-.535.31-.85.46-.626.332-1.297.61-1.969.891-.263.103-.565.186-.891.308-.505.168-1.058.284-1.61.402.081-.544 1.064-1.367 1.115-2.26.022-.167.004-.36-.044-.54l-.092.025-.365-.034c-.507.53-.993 1.019-1.509 1.518-.21.189-.44.413-.68.608a17.57 17.57 0 0 1-2.068 1.737c-.406.302-.818.58-1.261.86-.466.324-.97.62-1.512.9-.37.196-.776.372-1.213.557a8.392 8.392 0 0 1-.892.308 8.657 8.657 0 0 1-.898.273 6.535 6.535 0 0 1-.794.183c-.122.033-.281.043-.433.084-.658.081-1.355.14-2.048.097a4.663 4.663 0 0 1-.883-.151c-.831-.2-1.634-.537-2.392-.952-1.796-1.015-3.204-2.657-4.12-4.757-.408-1.294-.747-2.569-.46-4.052l1.956-1.05.842-.49c.348-.157.694-.318 1.047-.445.885-.338 1.8-.552 2.73-.705.16-.013.311-.055.44-.056.281-.043.569-.056.819-.09.32-.023.637-.04.956-.063.32-.021.637-.041.956-.065.456.009.903-.015 1.35-.037l1.73-.079c.19-.016.38-.035.57-.054a4.52 4.52 0 0 0 .798-.414c.737-.394 1.459-.85 2.164-1.367.249-.166.496-.332.706-.517.66-.44 1.275-.932 1.898-1.396.308-.182.578-.384.817-.577.63-.436 1.269-.837 1.886-1.2.309-.18.596-.321.852-.457.172-.08.315-.15.466-.192.694-.316 1.352-.526 2.041-.618a1.04 1.04 0 0 1 .31-.05c.152-.04.28-.045.38-.038a2.68 2.68 0 0 1 .584.004c.77.011 1.636.218 2.415.552l.001.001c.252.097.475.2.675.34.067.015.144.06.214.072.395.515.607 1.434.377 2.151-.05.178-.141.332-.236.455a1.22 1.22 0 0 1-.188.148c-.613.493-1.285.772-2.003.998a3.244 3.244 0 0 1-.552.118 1.92 1.92 0 0 1-.371.07c-.091.02-.182.048-.311.05-.681.119-1.418.155-2.145.221-.16.013-.318.02-.507.042-.32.02-.63.07-.947.092a7.973 7.973 0 0 0-2.066.526 2.593 2.593 0 0 0-.498.2c-.135.102-.24.195-.354.257-.613.493-1.219 1.016-1.858 1.548-.198.217-.44.412-.671.638-.651.601-1.323 1.24-2.035 1.855-.39.369-.777.734-1.206 1.079-.448.38-.927.77-1.453 1.108-.346.294-.736.527-1.157.771a7.136 7.136 0 0 1-.851.46 7.525 7.525 0 0 1-.875.367c-.233.096-.505.167-.778.243-.12.031-.272.076-.423.114a8.731 8.731 0 0 1-2.899.068c-.177-.05-.375-.061-.558-.146-.681-.367-1.327-.844-1.972-1.324-.455-.361-.948-.754-1.4-1.12-.052 1.295 1.278 3.184 2.088 3.88v.005c.011.01.025.017.036.025.03.025.064.06.093.085l-.005-.017c.672.554 1.584.986 2.39 1.137.974.129 1.969.087 2.874-.158.152-.04.303-.08.425-.118.09-.02.18-.046.263-.103.181-.043.355-.126.505-.168.318-.15.604-.295.86-.428.317-.152.594-.324.843-.489a13.55 13.55 0 0 0 1.14-.83c.502-.427.972-.852 1.406-1.297.41-.403.783-.832 1.148-1.288a48.217 48.217 0 0 0 1.905-2.342c.215-.285.438-.544.625-.821.395-.465.759-.923 1.153-1.39.205-.088.447-.152.688-.216.295-.114.604-.165.916-.216.71-.13 1.446-.163 2.16-.163.328.01.646-.01.974-.001.188-.018.357.002.515-.008.744-.008 1.488-.012 2.178-.102.12-.034.22-.024.31-.052.16-.009.28-.04.372-.065.22-.03.4-.076.552-.118.727-.199 1.42-.514 2.01-.97.105-.093.188-.146.263-.233.17.152.31.308.389.483.32.466.38 1.072.443 1.675.078.533.154 1.065.399 1.49-.151.17-.308.31-.464.452M67.728 76.8c.077.044.146.058.221.105 1.772.562 2.879 3.136 3.463 4.964-.107.943-.951 1.173-1.786 1.333-.15.04-.31.05-.491.1-.122.033-.25.035-.371.07l-.196-2.2c-.116-1.533-.317-3.013-.84-4.372m3.948 3.139c.213.073.467.299.731.556.44.432.898 1.058.93 1.54-.196.118-.342.19-.46.222-.864.17-.546-1.68-1.194-2.289l-.007-.029" fill="#FFF"/><path d="M89.433 82.833c.016.55.032 1.099.01 1.628a9.533 9.533 0 0 1-.78 2.785 9.669 9.669 0 0 1-1.793 2.77c-1.08 1.174-2.425 2.094-3.968 2.513-.937.252-1.949.1-2.695-.512a2.153 2.153 0 0 1-.474-.56c-1.007-3.541-1.743-7.158-4.073-10.312a3.287 3.287 0 0 1-.366-.52c-.531-.9-.95-1.864-1.337-2.836-1.17-3.175-1.62-6.576-3.085-9.64-1.076-1.728-1.995-4.088-3.333-5.947a9.071 9.071 0 0 0-.867-1.068 2.386 2.386 0 0 0-.517-.48c-.131-.128-.263-.259-.415-.344-.693-.532-1.497-.868-2.47-.996a8.755 8.755 0 0 1-.206-.044c.07.016.128-.001.19-.015.69-.09 1.407-.319 2.105-.378.12-.03.22-.027.31-.05.16-.01.288-.013.388-.006.227.005.424.014.592.037.48.096.915.272 1.323.584.226 1.214.869 1.561 1.562 1.733.207.042.405.05.61.093.745.087 1.663.351 2.19 1.068l.105.368c.676.96 1.56 2.58 2.831 2.236.314.207.544.341.837.59.628-.206.252-.885-.032-1.102-1.616-.835-2.696-3.186-4.324-4.18a2.678 2.678 0 0 0-1.98-.378l-.006-.03a5.064 5.064 0 0 0-.87-1.07c-.702-.691-1.645-1.186-2.62-1.314-.174-.05-.341-.07-.508-.091.15-.04.31-.05.462-.092.693-.188 1.475-.3 2.196-.267.228.003.427.014.6.064a3.458 3.458 0 0 1 1.507.538c.365-.816-.82-1.375-1.36-1.816l-.51-.09-.115-.068c.031-.009.051-.046.084-.054a6.128 6.128 0 0 1 1.63-.933c1.827-.689 3.953-.611 5.525.171a10.634 10.634 0 0 1 2.154 1.634c3.122 2.971 4.079 7.542 4.416 11.722-.706-.818-.66-2.234-1.895-2.489-.023.042-.013.07-.035.11-.087.773.169 1.488.574 2.161.818 1.245 2.279 2.352 3.125 3.46.122.096.276.185.4.283 1.104.747 1.987 1.616 2.64 2.612 1.68 2.415 2.24 5.495 2.268 8.522m-61.03-21.52c-.738-.942-1.43-1.96-1.942-3.03l1.06-.287.657-.213c.836.103 1.722.024 2.58-.04 1.585-.14 3.14-.267 4.588.549.58 2.42-.275 5.425-2.293 6.851-.138-.026-.253-.096-.367-.16-1.548-.823-3.037-2.148-4.283-3.67m2.593 11.696c-.049-.671-.038-1.36-.028-2.048.084-1.393.258-2.812.334-4.234.524.02 1.216.063 1.812-.132a1.982 1.982 0 0 0 1.075-.714c-.264 1.083-.367 2.154-.403 3.242-.015 2.252.244 4.565.013 6.747-.336-.659-1.13-.833-1.817-1.106-.688-.271-1.233-.611-.986-1.755m-.74 9.889c-1.62-.118-3.274-.485-4.792-.954.963-1.37 2.186-2.746 3.487-3.946a30.662 30.662 0 0 1 2.59-2.203c.347.2.67.44.902.702 1.46 1.467 1.583 3.878 1.79 5.879a.46.46 0 0 1-.203.086c-1.164.379-2.458.505-3.774.436m33.715 23.399c-.1.48-.195.967-.181 1.385-.196.608-.385 1.115-.795 1.518-.022.042-.044.08-.074.088-.656-.15-1.143-.639-1.585-1.202-.513-.71-.93-1.545-1.485-2.176.185-.276.446-.512.715-.715.392-.236.79-.443 1.198-.617.52-.238 1.079-.454 1.536-.806.165-.11.33-.222.48-.393.8.696.484 1.826.191 2.918m17.295-4.813l-.248.61c-.228-.039-.442-.135-.648-.205a16.9 16.9 0 0 1-2.594-1.22c-.24-.165-.477-.33-.715-.492-.162-.12-.331-.272-.5-.422-.132-.125-.264-.253-.433-.403-.184-.211-.372-.422-.535-.67a3.73 3.73 0 0 1 .235-.455c.107-.096.172-.21.247-.295.096-.125.192-.248.298-.343.156-.14.314-.28.472-.423.613-.491 1.292-.87 1.946-1.21a8.67 8.67 0 0 0 .52-.24c.141-.067.255-.134.369-.196 1.734 1.16 1.293 3.89 1.586 5.964m-.491-43.874c-.493-1.009-.93-2.034-1.213-3.098l.364-.098c.497-.2.97-.491 1.198-.976l.55.24.061-.014 3.618 6.164c-.668.052-1.269.476-1.808.88-.336.32-.68.608-.966.751-.456-1.344-1.146-2.592-1.804-3.848m8.569 9.294a19.778 19.778 0 0 1-3.317 2.037c-.107-.036-.23-.132-.343-.2-1.563-1.24-1.407-3.695-1.727-5.631.034-.24.031-.497.018-.789.052-.536.171-1.059.833-1.006 1.007.245 2.102.342 3.175.475 1.801.199 3.583.434 5.1 1.133-.864 1.507-2.225 2.852-3.74 3.98m-41.417-9.209c-.296-.02-.573.152-.89.304-.145.071-.317.153-.476.162a.963.963 0 0 0-.375.297c-.475.65.107 1.862-.194 2.435-.068.117-.172.206-.383.265-.152.04-.42.018-.732-.063-1.326 0-1.832-1.527-2.092-2.5-.134-1.238.262-2.55 1.244-3.37.135-.104.278-.175.39-.235.054-.049.085-.057.135-.103.243-.066.47-.064.676-.022.412.088.75.256 1.101.486.346.2.63.418.96.556l.311.57.929 1.41c-.2-.142-.414-.213-.604-.192m2.539 32.683a2.637 2.637 0 0 1-1.105.235c.184-.769.331-1.557.563-2.274.108-.321.255-.625.441-.902.814.496.678 1.58 1.057 2.39-.263.233-.602.42-.956.55m-1.38-17.859l-.158 1.12.002.126c-.665-.31-1.217-1.527-1.33-2.446.235.036.502.063.745.127.205.042.38.09.512.22.154.09.263.253.312.437l-.083.416m9.355-4.556l.221.103 1.396.371c-.239.685-.226 1.466-.58 2.085-.07-.016-.108-.04-.177-.051a4.177 4.177 0 0 1-1.166-1.219c-.14-.286-.244-.553-.211-.79.042-.208.192-.38.516-.499m-1.819 1.081l-.253 3.064c-.796.184-1.218-1.011-1.864-1.515.195-.605.678-.87 1.175-1.067.317-.15.64-.272.942-.482m-4.02 7.678c-.21-.305-.551-.733-.9-1.192-1.035-1.454-2.203-3.286-1.07-4.02.219-.157.521-.237.892-.304.158-.01.281-.045.47-.063l.963.324-.3 3.998-.054 1.257m9.177 12.193c-.208.319-.447.514-.772.634-.407.173-.915.213-1.423.255-.038-.023-.07-.015-.107-.037-.623-.517-.565-1.153-.387-1.818.248-.657.607-1.372.657-2.041.11.169.278.319.425.506.743.713 1.568 1.5 1.607 2.501m2-1.617c-.187.149-.396.336-.553.476l-.209-.17-.062-.116-.01-.161.235-2.28.068-.474 1.379 1.647c-.136.461-.472.781-.848 1.078m2.66-2.185c-.179.176-.358.355-.524.465-.066-.865-.28-1.915-.133-2.933.016-.07.037-.106.052-.175.853.16 1.265 1.223 1.469 1.984-.317.148-.572.414-.864.659m-5.086-16.439l.689-.09 1.013-.209a4.054 4.054 0 0 1-.599 2.254c-.45-.599-.84-1.209-1.103-1.955m5.327 3.454c-.096.252-.188.506-.315.77-.114.29-.24.553-.372.784l-.199-.01c.653-1.809-2.095-4.588-.772-5.825.135-.104.27-.207.443-.285.325-.12.688-.219 1.218-.297.815 1.475.577 3.27-.003 4.863" fill="#FFF"/><path d="M68.056 66.339c.083-.056.136-.103.216-.157l.305.048c.065.602.147 1.395-.01 2.025a1.536 1.536 0 0 1-.234.584c-.022.04-.045.077-.068.115-.016-.679-.691-1.507-.482-2.185.058-.146.147-.3.273-.43m-.464-12.469c-.089.646-.275 1.282-.67 1.745l-1.018.442-.498.198c.48-.88.075-1.911-.694-2.486a2.481 2.481 0 0 0-.322-.239c-.032.008-.062.018-.13.002-.099-.004-.198-.011-.327-.008-.734.035-1.504.439-1.919 1.073-.057.146-.138.33-.166.47l.138 1.006-.092.023-.233-.033c.026-.136.068-.347.088-.513.106-.454.153-.89.16-1.348.128-1.6.13-3.167 1.085-4.21.105-.091.179-.178.254-.263.104-.093.218-.157.331-.222.165-.108.33-.218.503-.298a1.21 1.21 0 0 0 .295-.112c.952.165 1.743.703 2.332 1.457.472.557.81 1.217.997 1.916-.03.498-.038.955-.114 1.4" fill="#FFF"/><path d="M65.068 42.189c-.217-.202-.426-.374-.706-.458a2.033 2.033 0 0 0-.953-.17 8.161 8.161 0 0 0-1.149.804c-.148.17-.306.31-.455.479-.105.093-.202.221-.297.341-.076.087-.14.204-.24.325-.629.921-1.03 1.978-1.366 3.146-.079.313-.15.659-.25 1.012-.14.691-.272 1.412-.413 2.102a32.284 32.284 0 0 1-.69 3.252c.234-.94.507-1.866.813-2.797.187-.507.376-1.014.573-1.494.126-.26.228-.484.322-.737.44-.902.927-1.752 1.53-2.533.097-.128.172-.21.246-.298l.29-.372c.148-.17.306-.309.456-.48.104-.094.179-.182.283-.273.525-.47 1.192-.52 1.809-.394.236.036.442.078.625.161.459.135.857.288 1.169.367-.442-.566-.928-1.415-1.597-1.983M54.524 52.514c.718-.226 1.438-.322 2.204-.238l.504.06.048-.308a2.076 2.076 0 0 0-.867-.94c-.537-.31-1.19-.328-1.852-.376a2.747 2.747 0 0 1-.467.188c-.225.128-.48.264-.73.427-.787.571-1.41 1.395-1.431 2.54.57-.416 1.187-.779 1.82-1.08.265-.103.529-.209.77-.273M65.93 65.413c-.022-.453-.442-.566-.806-.599a.777.777 0 0 0-.364.1c-.203.086-.315.28-.387.496-.034.237.009.519.186.699.112.109.365.14.585.129l.002.006c.004 0 .01-.005.015-.006.022-.001.046.004.067.001l-.01-.027c.302-.128.76-.39.712-.8m-1.912-3.286c-.031.007-.031.007-.069-.014a1.201 1.201 0 0 0-.564-.173c-.266-.03-.562.084-.571.414.051.43.529.556.9.527l-.006-.019c.132.004.297-.095.37-.261.099-.127.109-.325-.06-.474m-1.392 1.472c-.678.248-.194 1.456.512 1.07.04.022.07.013.07.013.317-.019.478-.391.48-.75-.283-.084-.49-.255-.763-.316-.07-.011-.2-.01-.3-.017m-1.313 2.249c-.733.166-.893 1.513.319 1.317l.03-.01c.364-.096.776-.372.587-.844-.104-.266-.332-.268-.518-.481a1.116 1.116 0 0 0-.418.018m-1.513-2.037c-.07-.014-.13.003-.167-.018-.249.164-.412.402-.362.714.2.144.491.26.78.248.227.002.43-.085.593-.326.038-.467-.419-.605-.844-.619m-5.096 2.293l.06-.017c.354-.258.521-.597.44-1.032-.13.003-.38.039-.429-.144a.532.532 0 0 0-.303.081c-.542.277-.887 1.414.232 1.112m-.667 2.854c.469-.188.671-.767.428-1.19l-.63-.06-.122.035c-.354.127-.508.528-.547.866l.72.392c.068.014.128-.002.15-.043m-2.117-1.382c.112-.063.203-.089.316-.15.268-.334.187-1.13-.429-1.127-.09.028-.142.071-.204.091-.346.157-.533.665-.422 1.09.18.312.483.23.739.096m-1.766-1.513c.248-.165.336-.449.414-.764-.195-.37-.432-.407-.68-.24-.226.126-.442.413-.521.597l.515.481c.1.007.221-.026.272-.074m-.648 3.894c.182-.05.454-.12.657-.21.317-.15.549-.376.603-.784-.106-.393-.528-.637-.982-.646-.04-.02-.099-.007-.169-.018-.28.042-.519.236-.683.475-.244.427-.227.976.308 1.156.098.007.175.054.266.027m-2.557-21.067a5.78 5.78 0 0 0-1.766-1.51 3.027 3.027 0 0 0-1.093-.454 4.224 4.224 0 0 0-1.028-.211 3.079 3.079 0 0 0-.811-.004s-.289.135-.424.239c-1.11.823-1.686 2.186-1.952 3.626-.149 1.02-.155 2.1-.042 3.012.105-.582.24-1.174.375-1.764.114-.421.198-.835.28-1.249.247-.785 1.017-1.547 1.865-1.647.161-.01.32-.023.457.007.09-.024.158-.009.227.003.215.075.459.139.671.21.391.122.75.252 1.095.453.405.185.796.436 1.166.728.638.45 1.24 1.004 1.79 1.605.94.985 1.773 2.164 2.438 3.319l.047-.305c-.857-1.887-1.802-4.34-3.295-6.058M45.16 70.447c.059-.146.096-.254.153-.399l-.256.004-.04-.022a11.866 11.866 0 0 0-1.27 3.147c-1.366 5.461.992 11.28 1.958 16.367.835-4.66-1.031-9.116-1.261-13.752-.074-1.741.093-3.547.717-5.345m26.019-5.282a4.668 4.668 0 0 0-.746-.614 11.016 11.016 0 0 0-.76-.542c.33.397.666.795.938 1.21.413.575.763 1.167 1.046 1.744 2.354 4.578 2.262 9.957 5.618 14.039l-.082-.306C75 75.745 75.559 69.07 71.18 65.166m-5.563 41.492l7.042 1.45-.558-2.306-5.986-1.995" fill="#155196"/><path d="M115.616 76.95a39.395 39.395 0 0 0-4.107 1.813 201.65 201.65 0 0 0 4.768 4.381c-.518.389-1.027.791-1.526 1.207 1.067.954 2.07 1.83 3.01 2.64-3.068 2.556-5.776 5.607-8.125 9.028a511.703 511.703 0 0 1-3.468-3.114 49.89 49.89 0 0 1 1.081-1.536 283.976 283.976 0 0 1-6.29-5.877 47.731 47.731 0 0 0-1.065 1.566 285.393 285.393 0 0 1-5.507-5.445c3.516-5.595 7.9-10.15 13.154-13.189.692.732 1.37 1.44 2.035 2.126.186.291 7.272 7.296 6.04 6.4" fill="#FFF"/><path d="M107.007 92.806c.884.8 1.723 1.552 2.517 2.26 2.18-3.08 4.618-5.793 7.258-8.079a222.35 222.35 0 0 1-2.455-2.16l-.55-.492.567-.472c.307-.257.62-.51.935-.756a204.205 204.205 0 0 1-4.208-3.883l-.652-.619.8-.41a40.2 40.2 0 0 1 3.396-1.54c-.844-.902-2.387-2.468-3.42-3.517-1.511-1.535-1.946-1.982-2.097-2.166a233.28 233.28 0 0 1-1.67-1.742c-4.68 2.808-8.791 6.942-12.231 12.297a289.293 289.293 0 0 0 4.589 4.543c.216-.32.434-.637.653-.947l.429-.604.533.514a282.74 282.74 0 0 0 6.276 5.865l.425.385-.34.462c-.255.35-.507.704-.755 1.061zm2.744 4.169l-.539-.48c-1.07-.955-2.228-1.99-3.472-3.118l-.408-.371.309-.457c.247-.365.5-.731.759-1.092a285.348 285.348 0 0 1-5.345-4.99c-.212.309-.422.623-.627.939l-.42.645-.555-.534a287.274 287.274 0 0 1-5.52-5.458l-.352-.359.268-.426c3.71-5.905 8.21-10.413 13.373-13.4l.435-.253.346.365c.69.73 1.367 1.437 2.03 2.12l.08.102c.096.113 1.059 1.09 1.99 2.037 4.595 4.666 4.595 4.666 4.137 5.197a.622.622 0 0 1-.65.199 39.017 39.017 0 0 0-2.98 1.286 200.66 200.66 0 0 0 4.09 3.742l.582.517-.623.467c-.31.233-.621.474-.927.72.79.7 1.595 1.404 2.444 2.136l.569.491-.577.48c-2.941 2.451-5.635 5.445-8.008 8.9l-.409.595z" fill="#155196"/><path d="M107.965 92.1c.313-.448.633-.888.96-1.32a196.932 196.932 0 0 1-8.45-7.915c-.32.444-.633.898-.938 1.361a216.336 216.336 0 0 1-2.694-2.71c2.898-4.512 6.482-8.156 10.752-10.55a165.524 165.524 0 0 0 5.06 5.143 26.869 26.869 0 0 0-2.921 1.856c-.74-.72-1.505-1.478-2.295-2.277a29.72 29.72 0 0 0-3.954 3.515c1.298 1.304 2.528 2.5 3.69 3.602.343-.354.693-.7 1.05-1.036a158.35 158.35 0 0 1-1.42-1.362 29.914 29.914 0 0 1 2.102-1.816c1.79 1.74 3.433 3.26 4.933 4.594a30.74 30.74 0 0 0-2.124 1.802 173.22 173.22 0 0 1-1.341-1.213c-.358.335-.71.68-1.055 1.032.947.87 1.842 1.67 2.684 2.409.482-.488.977-.96 1.484-1.413.648.566 1.264 1.094 1.85 1.59-2.056 1.837-3.908 3.959-5.555 6.304a385.24 385.24 0 0 1-1.818-1.595" fill="#155196"/></g></svg>