<svg width="200" height="200" xmlns="http://www.w3.org/2000/svg"><g fill-rule="nonzero" fill="none"><path d="M99.836 197.737s5.633-41.663 37.006-67.954c0 0 22.925-20.823 62.812-29.91l.075-.026c-39.905-9.03-62.859-29.82-62.859-29.82C105.452 43.778 99.884 2.145 99.884 2.145l-.043.014s-5.57 41.63-36.983 67.882c0 0-22.956 20.787-62.858 29.82l.078.026c39.88 9.084 62.81 29.903 62.81 29.903 31.378 26.294 36.922 67.947 36.922 67.947h.026" fill="#512884"/><path d="M172.163 99.835c-56.005-19.407-72.341-70.547-72.341-70.547l-.007.018S83.448 80.456 27.446 99.86l.016.018c56.002 19.405 72.366 70.615 72.366 70.615l.013.017s16.353-51.233 72.355-70.644l-.033-.032" fill="#FFF"/><path d="M156.566 99.86c-41.128 18.59-56.717 56.427-56.717 56.427h-.001s-15.586-37.8-56.719-56.388l-.032-.028c41.13-18.59 56.718-56.392 56.718-56.392h.013s15.582 37.772 56.71 56.362l.028.02" fill="#512884"/><path d="m80.905 123.058.073-5.616c1.818-.334 3.779-2.115 3.798-4.023V89.752c-.088-1.646-1.17-3.2-3.798-3.162v-7.661h38.83V94.2l-5.576-.01c-.067-4.8-4.188-7.702-6.549-7.601H95.704v12.366l4.327-.031c1.694-.07 3.387-1.694 3.52-4.666l5.39-.032v16.685l-5.325-.024c0-4.054-1.822-5.137-3.508-5.134h-4.404l-.065 7.502c-.062 2.903 2.775 4.194 4.464 4.194l.065 5.474-19.263.134" fill="#FFF"/><path d="M111.62 185.579h1.355c.357 0 .619-.092.789-.268a.904.904 0 0 0 .262-.658c0-.265-.089-.472-.274-.606a1.113 1.113 0 0 0-.695-.213h-1.437v1.745Zm3.296 2.834h-.853l-1.006-2.225h-1.437v2.225h-.77v-5.227h2.207c.599 0 1.046.154 1.337.462.3.308.445.645.445 1.021 0 .275-.08.543-.239.799-.168.255-.42.432-.764.543l1.08 2.402Zm1.738-2.615c0-1.06-.375-1.97-1.134-2.726a3.704 3.704 0 0 0-2.723-1.133c-1.057 0-1.967.38-2.723 1.136-.758.756-1.134 1.666-1.134 2.723 0 1.064.376 1.97 1.125 2.726a3.724 3.724 0 0 0 2.732 1.133c1.055 0 1.967-.38 2.723-1.136.759-.756 1.134-1.666 1.134-2.723Zm.636 0c0 1.237-.438 2.294-1.315 3.175-.886.884-1.944 1.319-3.178 1.319-1.236 0-2.291-.435-3.177-1.32-.877-.88-1.315-1.937-1.315-3.174 0-1.23.438-2.287 1.315-3.171.886-.88 1.941-1.323 3.177-1.323 1.234 0 2.292.442 3.178 1.323.877.884 1.315 1.94 1.315 3.171Z" fill="#512884"/></g></svg>