<svg width="200" height="200" xmlns="http://www.w3.org/2000/svg" xmlns:xlink="http://www.w3.org/1999/xlink"><defs><path id="a" d="M0 0h200v183.02H0z"/></defs><g fill="none" fill-rule="evenodd"><g transform="translate(0 8)"><mask id="b" fill="#fff"><use xlink:href="#a"/></mask><path d="M195.64 74.059c3.739-6.344 6.525-17.585 2.07-26.955.583-4.714-.647-9.874-6.108-12.095-1.091-2.754-3.188-4.71-5.243-6.073-.473-2.318-1.812-3.904-3.85-5.258-.409-1.576-1.69-4.237-2.755-5.702.214-3.515-.726-7.155-2.654-10.164-1.804-2.817-5.328-6.342-11.794-7.557-6.237-1.172-12.993 1.88-16.046 5.433l4.693 3.025c-2.033-.177-5.826-.11-7.205 0-3.89-5.082-10.11-8.668-16.964-8.668-10.962 0-18.892 8.304-19.627 18.412 2.533.835 7.87 1.821 10.399 1.877-1.056.861-2.321 2.21-3.316 3.328l-2.614.702c-1.388-1.279-3.077-2.553-4.64-3.434-1.615-.91-4.259-.503-4.95 2.1-.294 1.107-.302 3.476-.27 4.807-4.497 1.09-10.119 3.09-16.411 6.63-8.392-4.873-19.63-3.01-25.828 1.207-7.027-1.652-19.246-.546-28.405 5.944-14.232 10.086-19.303 23.33-19.409 37.22-2.317 2.343-2.838 3.809-3.769 8.214-3.037 14.378-7.487 18.423-9.342 22.267-1.5 3.11-1.862 6.638-1.436 9.758.194 1.415.637 3.044.985 4.098 1.148 3.478 3.782 5.504 7.192 5.538 4.12 2.566 8.095 1.798 11.432-.415 6.193-1.39 9.107-7.218 11.116-15.972 3.951.96 11.304.249 15.592-1.85-1.685 2.35-1.926 6.487-3.578 8.74-1.04 1.419-5.014 5.771-5.418 11.107-.491 6.482 2.967 9.533 4.822 10.831 2.9 2.03 6.089 3.089 7.598 3.177 1.137.066 2.148-.199 2.433-.407 2.56.77 7.437.508 9.515-2.39 6.664-.658 8.722-8.887 2.822-17.336a75.685 75.685 0 0 0 5.648 4.457c.559 5.83 1.946 11.225 4.126 15.642 2.283 4.626 6.212 6.591 9.148 6.885 1.307 3.75 2.747 7.222 4.296 10.358-1.04 6.942-.055 12.407 3.798 16.606 4.951 5.395 14.832 5.474 18.121 4.077 7.387 1.433 13.676 1.433 17.163-4.266 3.46-1.102 5.763-3.952 5.763-6.842 0-2.713-.548-6.289-4.084-9.905-2.34-2.392-8.371-5.652-9.035-6.131-1.398-2.369-2.524-5.643-3.22-10.128 11.237.667 24.872-2.683 30.24-7.698-2.717 7.62-1.69 14.082 1.675 17.638.794 4.782 2.33 8.79 4.472 11.645 1.788 2.384 4.21 3.746 6.855 3.868 3.443 4.001 9.11 5.354 15.03 1.45 6.95.723 10.556-6.319 11.01-7.316 1.713-3.747 2.029-7.586.943-11.411-.962-3.39-3.03-6.695-6.153-9.838 1.119-3.157 1.925-6.26 2.315-8.911 6.113-3.8 9.923-13.403 6.722-22.93-2.05-6.099-8.38-14.457-18.115-17.938a733.075 733.075 0 0 1 2.32-3.505c10.748-3.027 17.263-8.037 21.925-15.946" fill="#FFFFFE" mask="url(#b)"/></g><path d="M182.915 123.629c-4.203-6.585-18.4-2.518-29.225 10.888l.197-6.287c13.452-12.823 23.281-14.7 28.18-8.745l.848 4.144M80.064 138.403c5.434-8.573 17.866-10.294 32.205-4.75-.336-11.486-5.61-17.387-7.61-18.593 1.696 5.6 2.237 8.7 2.316 12.842-10.803-3.865-22.385-1.795-27.262 5.236 0 0-8.135-3.205-17.727-14.984-5.29-6.495-10.498-15.831-11.863-26.361-1.365-10.53-.507-22 3.393-30.775 3.9-8.774 14.014-14.066 18.575-15.906 6.26-2.527 12.99-.616 12.99-.616-9.691 5.78-13.704 13.409-13.373 16.98 10.344-13.034 19.933-18.998 31.977-22.229-15.623 12.2-16.716 33.074-10 48.096l3.315-.39s4.957 11.55 17.55 19.89c5.236 3.466 14.517 5.927 20.085 6.434 19.249 1.755 31.698-9.536 31.698-9.536 1.94 2.524 3.774 5.27 5.65 8.351-3.235.41-7.355 1.998-12.173 5.886-5.269 9.598-16.222 15.982-26.963 17.54 2.3-3.583 3.552-5.488 5.201-11.337-3.476 5.938-12.547 13.118-24.611 10.559l-.11 4.38c-10.422-6.952-27.988-4.524-32.28 4.127l-.983-4.844" fill="#A82931"/><path d="M91.18 90.363a.266.266 0 0 1-.16-.4c1.839-2.914 5.224-6.386 6.824-6.867 1.363-.41 3.246.456 4.123 2.65.933 2.337-.257 4.059-1.389 4.4-2.606.787-6.62.906-9.397.217M92.9 45.519a.261.261 0 0 1 .237-.352c3.36-.074 8.02.827 9.286 1.888 1.077.904 1.409 2.936.115 4.864-1.377 2.052-3.42 2.01-4.317 1.26-2.062-1.726-4.357-4.985-5.32-7.66M86.496 67.16a.263.263 0 0 1 .054-.42c2.97-1.597 7.532-2.913 9.133-2.541 1.364.317 2.563 1.981 2.264 4.291-.318 2.46-2.161 3.353-3.295 3.09-2.61-.602-6.107-2.468-8.156-4.42M103.964 107.34a.269.269 0 0 1-.265-.347c1.005-3.36 3.369-7.695 4.802-8.61 1.22-.78 3.296-.459 4.749 1.442 1.547 2.023.852 4.037-.161 4.687-2.333 1.494-6.224 2.728-9.125 2.827M124.412 118.547a.266.266 0 0 1-.386-.198c-.515-3.47-.214-8.413.693-9.862.773-1.234 2.784-1.843 4.902-.755 2.254 1.157 2.48 3.278 1.838 4.304-1.475 2.361-4.468 5.164-7.047 6.511" fill="#FFFFFE"/><path d="M127.468 23.767c-1.886-1.181-5.174-1.994-8.578-2.137.86-1.902 4.459-6.227 9.127-6.765 3.223-.371 8.771.443 13.323 7.336a11.05 11.05 0 0 0-1.599 3.45c9.153-2.747 20.781-1.726 29.61 2.49a82.727 82.727 0 0 0-2.003-3.835c3.317.813 7.626 3.208 11.29 6.488-.305-.937-.983-2.372-2.148-4.012.825-5.843-2.435-13.766-11.735-15.406-4.02-.71-8.76.55-10.273 1.978l3.315 2.291c2.872-1.152 6.525-1.18 10.238 1.19 2.073 1.322 3.106 3.068 3.64 4.904-3.183-2.485-7.191-4.007-10.831-3.15.629.58 1.58 2.106 2.075 3.023-4.805-1.368-9.68-2.462-17.653-1.572-4.65-6.76-11.386-9.708-18.326-8.597-8.006 1.28-12.453 8.122-13.183 12.613 8.036 1.912 11.888 1.85 13.71-.29" fill="#1C201E"/><path d="M149.53 58.657c-.03-13.477 5.885-23.368 16.105-27.898-3.552-1.574-9.632-2.644-12.53-2.597.913 1.332 2.263 2.54 4.251 3.567-4.742.788-11.66-.397-17.558-2.078-5.24 1.598-10.67 5-14.4 9.475 2.28.823 9.46-2.35 11.297-4.092-.105 2.372.926 5.421 2.338 7.459a38.998 38.998 0 0 1 3.299-1.787c-1.341-2.608-1.873-5.879-1.74-7.497 1.388.434 4.923 1.179 6.326 1.377-.763.548-1.504.893-2.152 1.302.013 1.274.491 2.42 1.037 3.292 2.264-.897 4.568-1.621 6.526-1.986-3.608 1.73-9.275 5.452-12.037 8.542-4.497 5.031-7.112 11.268-5.883 15.238 3.635-6.08 7.21-11.375 12.66-15.4-1.332 4.52-.627 11.656 2.461 13.083" fill="#1C201E"/><path d="M161.5 55.163c-.201-3.842 1.433-6.63 3.712-7.725-.05 1.412-.106 3.298-.049 4.477-1.5 1.114-2.534 2.15-3.663 3.248Zm8.475 16.552c3.164-7.47 8.6-3.232.528 8.876-7.91 11.865-23.466 12.216-25.997 10.354 14.712-1.164 22.305-11.76 25.47-19.23Zm24.577-15.852c1.134-3.81-.363-7.658-2.703-9.473-.377 1.53-.944 3.473-1.32 4.705-2.253-1.733-5.379-3.134-8.964-3.629-1.035-3.212-2.193-5.98-3-8.046-.973-2.488.67-3.322 1.828-2.042 0 1.066.152 1.98.61 2.956 3.137 1.278 6.31 3.42 8.703 5.934-.552-2.636-2.955-6.23-6.328-7.944-.035-1.635-.412-2.963-2.955-4.679-4.628-3.121-10.094-3.17-13.527-1.495-2.582 1.261-2.536 3.5-1.908 4.464-6.157 2.052-9.005 7.497-8.652 10.498 3.947-5.016 8.349-7.645 14.694-7.931-.6-1.63-1.293-2.809-2.106-3.466 1.731-1.426 4.264-.2 5.821 3.635.628 1.545 1.956 4.637 3.036 7.949-3.034.147-6.266.98-9.493 2.779.032-1.737.083-3.9.27-6.24-2.602-.316-5.685 1.294-7.57 3.6-3.123 3.817-3.071 7.367-2.358 10.862-7.701 9.409-10.237 20.862-22.886 25.799-15.616 6.096-22.442-9.149-18.994-20.805 3.02-10.21 10.222-14.087 16.575-17.602-5.614-1.3-20.483 6.834-23.476 20.742-3.086 14.342 8.23 28.603 21.57 34.853-14.873-2.453-27.174-18.326-26.907-34.968.109-6.732 2.314-14.42 7.368-20.717-2.038 4.508-3.649 11.047-4.141 14.999 4.846-8.707 10.571-13.538 18.989-17.012-2.79-1.341-7.285-.363-10.365 1.651 1.351-2.704 4.18-6.62 6.723-9.4 4.979-5.444 10.612-8.252 15.024-9.802-.65-2.345-2.918-5.985-6.288-7.285-1.579-.608-5.323-.897-7.393 1.054 4.14.479 6.714 2.693 7.58 4.43-5.016 2.518-9.462 6.014-13.181 10.434a40.895 40.895 0 0 0-4.697 1.783c-1.123-1.485-3.602-3.568-5.713-4.77a.229.229 0 0 0-.337.161c-.422 2.289-.202 5.47.465 7.726a35.104 35.104 0 0 0-7.458 6.795c.583.215 1.047.448 1.335.689.93.78 1.303 2.403.555 4.072-3.461-1-7.492-3.375-10.06-5.825-.046.074-.042.156-.007.256.707 2.018 2.318 4.783 4.235 6.714-1.592 3.205-3.549 8.688-4.131 12.116 1.131-.238 2.092-.323 2.668-.19 1.178.274 2.232 1.554 2.306 3.385-3.537.682-8.192.396-11.576-.623-.006.086.033.157.11.23 1.358 1.317 3.615 2.835 5.906 3.755a44.058 44.058 0 0 0 2.29 14.475c1.206-1.195 2.366-2.096 3.125-2.324 1.177-.354 2.742.244 3.711 1.827-2.791 2.392-7.05 4.494-10.546 5.304.036.08.107.123.21.15 1.52.391 3.644.596 5.729.466 2.134 4.35 4.997 8.363 8.533 11.793 1.019-2.003 2.18-3.717 3.02-4.254 1.054-.673 2.745-.524 4.123.753-2.078 3.115-5.669 6.354-8.864 8.119.057.068.137.09.246.088 1.585-.04 3.706-.429 5.7-1.13 2.428 1.784 9.84 5.855 14.112 6.806.108-2 .418-3.76.901-4.53.667-1.066 2.259-1.665 4.044-1.108-.558 3.715-2.432 8.198-4.572 11.179.08.037.163.022.26-.027 1.596-.817 3.621-2.328 5.236-4.079 12.185 2.274 24.02.108 32.35-6.475 3.22 1.276 8.52 1.85 8.172 1.285-.982-1.597-2.55-3.948-3.806-5.537a29.445 29.445 0 0 0 3.52-5.32 26.02 26.02 0 0 1-7.163-.385c13.346-6.3 17.75-17.057 18.634-26.053 1.248-12.699-9.929-15.773-18.833-2.233-5.288 8.041-9.23 12.814-14.63 12.617 3.183-3.145 6.224-7.726 9.863-13.805 2.857-4.771 5.322-9.539 11.363-13.36 5.46-3.456 14.976-4.664 20.256 1.203 4.039 4.486 3.762 11.866 1.301 16.973.213-2.498.213-5.878-.85-8.275-1.461-3.296-4.373-2.013-3.986 1.253 1.13 9.514-2.486 20.94-10.037 27.361 9.148-3.007 16.265-10.082 19.195-18.977 2.518-7.648 2.05-14.16-.484-18.862Z" fill="#1C201E"/><path d="m140.924 103.657-2.187 1.461-2.528 5.504.917 1.828c1.382.07 3.297.085 4.749.031l1.792-1.595 1.109-3.077-3.128-.063-.624 1.538 1.136.03-.6 1.411a34.786 34.786 0 0 1-3.098-.015l2.315-5.272c.876.028 1.784.06 2.7.043l-.424 1.125 2.001.023.46-1.29-.945-1.57a52.27 52.27 0 0 1-3.645-.112M155.868 102.216l-.367 1.907.517-.15-2.456 3.803.538-5.05c-.97.244-1.24.272-2.21.444l-.608 1.966.595-.133-3.335 3.82 1.724-5.424c-.869.098-1.79.19-2.658.257l-.608 1.84.705-.05-2.162 6.743c.82-.091 1.522-.155 2.2-.28l4.086-4.521-.359 3.676c.686-.18 1.378-.397 2.002-.608l4.744-7.179.507-2.153c-1.001.463-1.838.76-2.855 1.092" fill="#FFFFFE"/><path d="M175.94 170.216c-.403-2.012-1.678-3.684-2.873-4.528 0 0-.334 3.807-2.246 7.038-.836-.43-2.45-1.208-4.33-.877.023-.032.049-.063.073-.095 1.485-2.002 2.139-6.25-.797-9.449-.134 2.09-.421 3.78-1.19 5.098-.571-.633-3.287-1.041-4.82-.102 0 0-2.84-4.038-3.398-9.62-.468-4.683.188-9.834 2.92-14.225 4.537-7.292 11.53-12.19 16.097-12.095.647 7.243-1.198 13.69-2.717 17.319-1.184-.922-1.94-1.446-1.94-1.446-1.568 4.8 1.806 7.164 4.881 10.648 4.195 4.755 2.827 10.548.34 12.334Zm-62.854-2.378c2.1 1.63 8.743 4.023 10.783 7.062-1.1-.414-2.5-.729-4.073-.667 1.79 1.369 2.61 3.43 2.468 4.668-.83.215-1.6.708-2.118 1.607-.846-3.344-4.12-6.417-8.086-7.03 1.772 2.26 2.874 4.15 3.544 5.789-1.033.624-1.79 2.074-2.193 3.15-.7-.102-1.423-.25-2.162-.434a10.614 10.614 0 0 0-.371-2.23c-1.35-4.98-5.513-7.737-7.932-7.906 1.947 2.621 3.355 4.975 4.05 6.976-2.259.466-3.431 3.713-3.431 3.713-3.157-.491-5.523-2.172-6.22-4.695-.605-2.194-.689-4.806-.529-6.747.156-1.893.522-3.695.875-5.438.674-3.316.975-11.144-.075-14.074-2.048 2.619-3.23 6.638-4.085 9.804-1.476-3.361-2.85-7.124-3.994-10.94 3.743-5.077 10.814-6.355 17.483-4.402.624 5.964 2.274 15.077 6.066 21.794ZM45.612 89.322c-2.747-2.2-5.04-5.195-7.07-8.653-.289 6.17 1.698 13.525 5.731 19.854-2.532 5.673-9.072 11.643-14.766 10.638-6.537-1.154-9.382-4.73-9.382-4.73.206 3.096 1.908 5.602 4.25 7.453-1.076 8.284-2.705 12.947-5.638 16.287-.196-1.103-.594-2.018-1.03-2.859-.525 2.403-1.621 3.955-3.26 4.944 0 0-.708-.755-1.663-.645 1.89-1.61 2.337-3.8 1.83-6.391-1.47 2.308-3.032 3.864-4.747 4.164 0 0-.366-.808-1.574-1.174 7.024-7.146 8.897-19.52 10.55-32.227l.05.24c1.878 5.634 4.88 8.883 8.193 8.663-4.418-7.843-5.586-19.349-3.192-28.017 2.241-8.112 7.945-15.986 14.593-20.762 6.477-4.654 15.087-6.514 21.107-6.056a39.149 39.149 0 0 0-6.14 6.752c-5.496 7.656-8.918 19.576-7.842 32.52ZM7.341 124.99c-.1-.592-.64-1.247-1.415-1.658 1.658-1.601 3.798-3.401 5.266-5.409-1.035 3.17-2.33 5.63-3.851 7.067Zm172.405 16.233c5.377-2.924 8.3-11.15 7.153-17.416-1.23-6.727-5.797-11.768-8.196-14.305-2.4-2.538-6.559-5.195-8.275-5.267 3.553 4.57 8.6 12.085 10.034 15.906.806 2.144 1.31 4.057 1.293 5.73-4.01-2.75-13.84-.987-24.335 10.195a44.723 44.723 0 0 0-2.62-2.839c4.143-5.715 6.435-12.616 6.203-20.22-5.42 11.802-14.717 17.299-25.047 20.085 3.335-4.282 4.443-11.471 3.735-14.49-4.171 9.737-14.723 17.322-27.422 15.052.053 2.37-.039 5.561-.673 8.518-9.056-4.703-21.016-4.19-28.373 4.516-1.545-3.089-3.278-11.958-2.845-18.213.673-9.737 2.732-19.27 9.18-27.556-2.642-.661-11.818 5.897-14.906 19.42-15.306-11.419-28.23-36.578-16.615-59.806C64.345 47.915 75.83 43.91 85.082 44.496c-5.784-3.442-14.187-2.275-21.787 2.743-4.573-1.888-17.244-1.985-27.376 4.99-13.27 9.135-18.572 22.999-17.995 36.37-2.316.782-3.086 3.594-3.888 7.151-3.722 16.488-7.592 18.6-9.839 23.33-1.151 2.425-1.374 4.692-.996 7.084.27 1.708.584 3.222 1.057 4.336.884 2.084 2.547 3.42 4.856 3.208 2.412 2.29 6.796 2.292 9.746-.745 5.616-.814 8.674-8.802 9.49-16.762 2.522 1.06 5.212 1.55 7.424 1.42 5.33-.314 10.502-1.763 16.432-5.921.516.97 1.064 1.937 1.646 2.898-3.922 1.827-5.076 5.224-5.629 8.324-.681 3.82-1.296 4.53-4.849 9.01-3.648 4.602-3.519 11.124.384 14.244 1.864 1.49 6.094 3.183 7.843 2.725.471-.123.87-.386 1.2-.748 2.385.659 4.63-.003 5.653-1.506 3.99.833 6.32-1.754 6.424-4.094.168-3.769-2.012-7.577-4.553-10.368l1.867-3.272c-2.303.612-4.434 1.556-6.688 2.952 2.806 2.012 5.445 5.97 5.996 9.057-.833-.847-1.946-1.576-2.854-1.704 1.093 1.54 1.378 2.889 1.316 4.487l-.94-.011c-.258-1.89-1.563-3.459-3.447-4.237.543 1.305.814 2.574.904 3.97-.605.65-.986 1.326-1.185 2.023a5.7 5.7 0 0 1-1.33-.157c.576-1.548.3-4.326-1.257-5.66-.125 1.276-.343 2.109-.758 2.836-.867.284-1.623.862-2.226 1.838-.778-.323-1.5-.653-2.185-1.016-1.619-.86-1.654-3.039-.738-4.626 1.102-1.907 3.843-4.078 6.317-5.744-1.503-.363-3.554-.182-5.395.295 3.075-3.654 8.237-7.058 13.503-8.815 3.47 3.787 7.587 7.39 12.425 10.71.084 5.76 1.815 11.828 4.038 15.888 1.866 3.406 5.311 5.11 8.201 5.055 1.466 4.496 3.249 8.99 5.337 13.054-1.657 7.489-.167 11.871 2.539 14.467 2.815 2.701 8.32 4.223 11.37 4.223 1.55 0 3.179-.348 4.236-.945 4.444 1.146 8.636 1.49 11.334.486 3.002-1.118 3.718-3.188 3.97-4.212 3.014-.144 4.449-1.961 4.777-3.504.345-1.624.188-5.103-3.08-8.215-2.194-2.09-7.268-4.588-9.134-6.17-2.266-3.35-3.755-10.43-4.38-15.846 12.969 1.467 24.87-1.683 33.597-7.935l4.078 3.341c-1.767 4.965-2.296 9.109-1.896 11.847.336 2.294 1.493 3.824 2.633 4.58.654 4.816 2.054 8.743 4.054 11.41 1.702 2.269 3.902 2.902 5.795 2.491.82 1.125 2.144 3.115 5.123 3.794 2.945.671 6.097-1.06 7.624-2.468 4.626 1.438 7.77-2.678 8.936-5.23 2.755-6.036.6-12.306-6.032-19.081 1.362-3.452 2.573-7.523 2.976-10.92Z" fill="#1C201E"/></g></svg>