<svg width="200" height="200" xmlns="http://www.w3.org/2000/svg"><g fill="none"><path d="M15.626 112.137c.208.207.208.874 0 1.082-.208.208-.875.208-1.083 0-.208-.208-.208-.874 0-1.083.209-.208.873-.208 1.083 0" fill="#231F20"/><path d="M62.948 61.607c13.199-14.891 32.487-23.748 52.463-19.03 15.596 3.683 25.915 14.684 39.234 23.3 2.285 1.478 4.288 3.427 7.208 3.442.338 2.892-1.373 5.37-1.629 8.143 5.622 3.192 10.179 7.529 13.679 13.13 1.545 2.472 2.823 4.931 3.781 7.65.932 2.643-.29 5.695 1.675 8.126 4.013-2.282 8.139-4.938 13.007-3.588 2.189.608 2.179 2.997 3.77 4.298 1.017.832 2.198 1.177 3.58.918.263 2.735-2.44 4.424-4.566 5.534-2.264 1.181-5.259.959-6.834-1.463-2.884 2.97-6.549 4.806-10.26 6.31-.846.342-2.448.236-2.982.542-3.229 1.849-5.538 4.942-8.743 6.99 1.427.65 2.409-.616 3.668-.783 2.396-.317 4.77 1.345 6.81.52 2.58-1.045 4.592-3.382 7.47-4.072 2.911-.699 6.748-.228 7.066 3.136.24 2.534.976 4.525 1.786 6.923.524 1.546-.14 3.224-.962 4.285-1.906 2.46-2.332 5.505-4.756 7.384-5.105 3.957-11.456 4.239-17.23 6.016-9.559 2.942-19.401 5.094-29.094 3.462-9.67 8.108-25.065 9.8-35.42 1.628-4.624.175-9.301 1.841-13.813-.067-5.316-2.249-8.958-6.372-13.596-9.94-.973-.749-2.747.414-2.89 1.489-.203 1.534.73 3.924-.087 4.46-1.818 1.19-3.927-2.503-6.174-1.793-5.002 1.583-10.064 1.171-15.08 2.12-1.459.275-2.322 3.587-3.113 3.247-2.736-1.176-2.58-6.12-6.34-6.672-3.673-.538-7.407 1.285-10.896-.705-5.6-3.193-11.56-1.108-17.55-1.751-5.425-.583-8.351-5.319-9.517-11.042-.32-1.568-3.57-1.761-5.101-3.427-2.338-2.543-1.681-5.901.05-8.408 1.167-1.69 3.765-1.981 4.438-3.486 1.36-3.043-.655-7.104 2.367-10.03.599.777 1.05 1.652 1.628 2.443 1.067-4.22 4.983-5.977 7.921-8.782.745-.711 1.195-1.94 2.258-2.618-2.3-.688-3.529-2.645-2.762-4.854.578-1.666 1.672-3.2 3.233-3.973 1.3-.644 2.926-1.226 3.742-2.027 4.418-4.341 9.106-7.81 14.107-11.13-.84-7.868 7.503-10.156 12.486-14.408.738-.63.8-2.313 1.8-2.486 2.673-.467 3.573 3.547 3.09 5.874-.682 3.29-4.127 4.692-5.074 7.79-.064.208.42.59.678.331 4.16-4.168 7.552-8.533 11.474-12.956" fill="#231F20"/><path d="M23.431 97.419c5.786-.544 5.637-6.87 7.842-10.942.094-.175.936-.156.998-.01.359.857-1.08 2.678-.478 2.4a54.642 54.642 0 0 0 8.37-4.833c.706-.493 1.543-.6 2.402-.465-2.701 3.094-7.12 3.62-9.657 7.006-1.422 1.898-2.79 3.98-2.04 6.395.158.51.96.939 1.483.749.514-.185.557-1.13.941-1.4 5.193-3.649 9.117-7.853 14.602-10.644 2.874-1.462 6.283-1.968 9.285-.777 1.969.781 2.144 2.984 1.5 4.713-.577 1.544-1.976 2.47-3.493 3.321 2.243 2.936 4.066 6.109 6.612 8.867 3.452 3.74 7.29 6.813 10.487 10.675-6.331-1.873-9.173-8.447-15.07-10.975-.377-.162-.78.145-.72.367.15.558.438 1.268.816 1.516 3.75 2.466 8.146 4.799 8.789 9.51.035.258-.514.603-.646.35-1.643-3.155-3.823-5.586-6.604-7.689-.597 3.289 2.018 6.47.335 9.734-.058.112-.47.037-.742.037.29-6.62-1.704-14.033-7.548-17.086-5.732-2.995-10.839 3.922-16.124 6.373-.803.374-1.785.79-2.79.535 2.295-2.5 6.822-2.912 7.608-5.843.275-1.027-2.996-2.226-4.16-.538-.203.296.955.6 1.437 1.089-4.48 1.399-8.955-1.679-13.435 0 2.504 1.295 5.144.665 7.703 1.706.095.04.1.614-.002.66-.983.447-2.586-.556-3.042.558-1.369 3.343-5.666 3.667-8.47 5.843-1.246.966-1.328-.212-1.89-1.44-.897 1.12-1.641-.092-2.035-.813l-2.443 2.442c.7.528 2.163.6 1.135 1.534-.536.487-1.105-.236-1.542-.72-1.604 1.877-2.296 4.574.1 5.417 1.61.565 3.072-1.31 4.522-2.37.629-.46 1.097 1.156 1.915 1.317 2.592.506 5.658 2.32 7.421.272.998-1.16 1.709-2.967 2.394-4.608.24-.571.873-1.217 1.5-.757 1.443 1.057 1.028 4.078 2.011 3.905 4.007-.706 4.917-5.819 8.287-8.392 3.524-2.692 9.3-4.454 11.967.036 5.63 9.483.905 19.58-.853 29.64-.878 5.023-.68 11.642 5.533 12.49 9.613 1.311 16.345-6.92 19.464-14.99.498-1.287.37-2.694.785-4.074.665-2.205-1.24-4.349-.546-6.428.075-.225.954.766 1.374.28 2.517-2.921 3.813-7.113 2.523-10.923-.572.584-1.194 1.086-2.035 1.221.259-2.474 2.207-4.162 2.737-6.54.52-2.334.314-4.718-.485-6.822-1.985-5.23-4.89-10.353-9.791-13.138-.757-.43-.272 3.482-1.51 2.492-1.244-.996.832-4.135.076-5.473-.715-1.27-2.918-4.142-5.053-2.055-.442.431.058-.675-.224-1.034.639-.162.176-1.059.814-1.221-.72-.827-.926-1.785-.814-2.85 2.647.758 3.412 3.664 5.712 4.862 1.81.943 3.786 1.246 5.644.692 2.422-.721 4.95-1.802 6.13-4.342a.518.518 0 0 0-.392-.75 23.64 23.64 0 0 0-4.874.001c-.306.032-.354.525-.5.673-.514.523-1.427-.225-1.813-.507-2.97-2.168-5.887-5.33-9.449-3.77-2.91 1.274-3.996 4.453-6.618 6.323-.547.39-1.413.881-1.885.389-.493-.515.289-1.02.677-1.564.236-.33-.061-.69-.375-.733-10.693-1.495-20.502 3.393-27.98 10.64-.38.37.472 1.488-.165 1.805-2.793 1.389-5.85 1.834-8.007 4.26-.588.662-1.058 1.521-1.196 2.393-.342 2.171 2.084 2.167 3.565 2.028" fill="#FFF"/><path d="M51.94 89.631c1.198.272 2.398-1.453 3.024-.606.727.984-1.695.923-1.672 1.869.012.494.758 1.136 1.455.758 1.506-.816 4.37-2.964 2.307-4.121-2.702-1.516-6.57-.361-8.789 2.144 1.222.704 2.38-.338 3.674-.044m-1.509 4.587c.562-1.13 1.184-2.846-.162-3.192-2.56-.656-4.465 1.436-6.481 2.72.93.727.51 2.616 1.2 2.564 1.858-.14 4.318.17 5.443-2.092m-32.307 10.48c-.787.287-1.302.922-2.02 1.262 1.192.56 1.578.344 2.035 1.629.517-.904 1.382-1.724 1.137-2.832-.171-.776-.694-.226-1.152-.06m21.567 8.978c.5-.644 1.099-.3 1.654-.386-.03 1.675-1.452 2.48-2.541 3.076-1.853 1.013-3.1-2.528-4.614-1.578-1.367.858.46 4.547 2.26 4.45.647-.034 1.081-1.467 1.992-.967.99.543 1.561 1.758 2.552 2.23 2.075.988 4.001-2.184 5.347-1.132 2.64 2.064 5.176 1.616 7.12-.471.861-.926.925-2.776.295-3.338-.867-.771-2.395-1.214-3.855-1.487-2.01-.376-2.304 3.23-3.904 1.863-1.363-1.163-4.29-1.618-3.489-2.82.737-1.106 2.34.651 3.775 1.275.847.369 1.683-1.049 2.89-.487.408.19.067-1.098.393-1.305 1.55-.988 2.106 1.212 3.599 1.403.236.03.703-.433.714-.716.08-1.997-.08-4.937-1.626-5.202-2.244-.385-3.07 3.401-5.89.596-1.585-1.576-2.84 1.908-5.018 2.167.04-.878-.93-1.451-1.193-1.416-2.034.274-3.355 2.312-4.278 3.985-.576 1.046 1.499 1.058 2.214 1.91.543-.544 1.118-1.026 1.602-1.65m-11.487 3.571c.476 1.226 3.927 1.798 4.217.817.587-1.986-1.253-4.23-2.067-6.403-1.255 1.712-2.872 3.728-2.15 5.586m-7.71 1.042c1.936-.585 4.288.608 5.788-1.335-1.357-.924-2.909.172-3.968-.255-1.246-.502-2.81-1.43-4.258-.733-.232.112-1.145-.783-1.425-.515-.842.803-2.439 1.25-2.355 2.3.06.734 1.15 1.374 1.828 2.053 1.064-1.847 2.825-1.042 4.39-1.515" fill="#FFF"/><path d="M10.428 123.08c.425-.568 1.609-.741 1.421-1.16-.876-1.956-3.343-1.806-5.055-1.447-3.035.637-5.534 3.995-4.737 7.01.836 3.165 4.44 4.451 7.49 3.578 7.962-2.277 15.515-6.124 24.002-4.445 2.324.46 6.105.11 6.98 2.958-3.691-.92-8.452-2.996-11.806-.815 2.685 1.638 6.44 1.138 8.55 3.664-2.764.022-5.083-1.534-7.753-1.913-2.34-.333-4.664-1.549-6.831-.742-2.657.99-5.646 1.367-7.808 3.47 2.86 4.64 6.982 9.338 12.62 10.178.148-1.863-2.258-2.136-2.345-3.67-.031-.561.863-.528 1.026-.324 6.13 7.705 15.97 6.089 24.119 3.994-.983-5.594.558-11.353.612-16.698.009-.831-3.287-.054-5.057-.881-6.013-2.81-11.641-6.486-18.359-6.74-6.743-.254-13.502 2.138-18.387 7.15-.202.208-.743.07-1.15.07.003-1.695 1.621-2.106 2.468-3.238" fill="#FFF"/><path d="M43 130.772c-.32-.376-1.173-.793-.75-1.048.796-.48 1.98-.054 2.712.708.138.144.046.499.046.77-.703-.017-1.476.195-2.008-.43m31.738-13.418c-.669-1.025-1.638-1.782-1.915-2.877-.124-.492.718-.488 1.05-.302 1.23.689 1.64 2.121 2.484 3.185 1.858-4.005.061-8.135 0-12.214.271 0 .699-.061.735.031 1.554 3.997 2.006 8.417.758 12.55-.045.15-.909-.172-1.04.457-.14.677-.046 1.347-.046 2.026-1.454-.196-1.37-1.851-2.026-2.856m-54.203-5.648c.138.139.138.584 0 .722-.139.139-.584.139-.722 0-.139-.138-.139-.583 0-.721.139-.14.583-.14.722 0m3.722-1.68c-.148-.385.086-.668.405-.781.244-.086.65-.116.738.015.198.296.066.77.066 1.178-.443-.03-.982.182-1.21-.412m3.256-3.281c-.318-.113-.553-.396-.406-.781.227-.594.767-.382 1.21-.412 0 .408.132.882-.066 1.178-.088.132-.495.101-.738.015m6.496 2.038c-.252.078-.653.114-.74-.017-.198-.297-.205-.9.003-1.109.208-.208.744-.07 1.152-.07-.03.444.193 1.01-.415 1.196m2.451-2.009h-.815c.03-.443-.208-1.038.417-1.18.429-.097.999-.235 1.186.373.077.252.118.622-.02.76-.14.14-.497.047-.768.047m29.761 8.947c-.126-.53-.207-1.158.041-1.569.16-.265.613.043.69.367.126.53.207 1.158-.04 1.568-.16.265-.613-.043-.69-.366" fill="#231F20"/><path d="M80.487 88.995c1.844.395 1.038-2.69 2.384-3.798-1.446-.745-2.89.058-3.962.617-1.784.93.587 2.969 1.578 3.181m6.134 17.325c1.479 2.688 4.22-1.23 5.614-2.802-1.611-1.055-4.053-2.148-5.565-.675-.851.829-.656 2.372-.049 3.477m-.895 24.494c1.346-.41 3.322-.351 3.72-1.034.93-1.598-1.72-2.923-3.055-3.579-1.744-.857-2.54 2.223-2.177 3.751.121.513.646 1.126 1.512.862m-15.831 14.662c-.158.338-.18.854.012 1.156.927 1.46 2.678 1.461 4.036 2.443.327.237.747-.102.702-.351-.349-1.929.06-4.83-1.98-5.09-1-.127-2.237.706-2.77 1.842m-17.485 4.908c.83-1.307 1.524-2.316-.114-2.738-.982-.253-2.589-.79-3.03.322-.595 1.495.852 2.928 1.442 4.405.587-.644 1.199-1.197 1.702-1.99m-36.842-12.978c-1.619-2.123-3.714-5.225-6.794-3.353.238 5.82 7.102 10.697 12.62 8.957-1.837-1.964-4.078-3.311-5.826-5.604" fill="#FFF"/><path d="M74.378 54.757C70.955 56.8 57.28 71.388 55.675 74.46c-.452.866 2.473 1.008 3.475.66 1.594-.556 2.12-3.21 3.847-4.01 6.14-2.842 8.874-9.154 14.644-12.68.421-.257.915-.782 1.566-.512.994.414-.408.816 0 1.223-3.807 2.868-6.871 6.44-9.771 10.178 2.07 1.132 3.43 3.405 5.411 4.172 2.38.92 5.272-.057 7.987.488 1.445.29 1.1 2.348.662 3.405-.958 2.314-4.704 2.883-4.91 4.627-.308 2.595 3.443 1.646 5.913 1.15.178 1.496-1.064 3.141-.808 3.939 1.552 4.826 5.217 8.81 6.772 13.894.391 1.282 2.998.93 3.5 1.873.786 1.474-2.426 2.328-2.303 3.889.538 6.812-1.18 13.387-1.94 20.006-.137 1.195 2.888 1.918 2.273 3.534-.563 1.482-3.099.428-4.063 1.474-3.12 3.382-5.424 7.257-8.723 10.424 5.7.549 11.402 1.033 17.099 1.629-3.12-5.926-5.538-15.952 2.217-20.346.836-.474 1.398-2.496 2.738-3.116 1.697-.785 3.317.391 4.816 1.477 1.15-1.614 3.561-1.805 4.214-3.41 2.503-6.157 1.689-7.379 8.814-14.096-2.353-.619-4.609 1.167-6.892.328-1.419-.523-3.093-.577-4.1-1.957 2.275-.557 4.23 1.332 6.498.755 4.137-1.052 7.957-2.691 12.177-1.745.46.103 1.388-.189 1.68.583 1.994-4.193.55-9.277-.531-13.812-1.218-5.114-4.456-9.001-6.797-13.465 3.54 2.035 4.752 5.863 6.921 8.957 1.065-.888-.363-2.61.867-3.134.486-.206.494.837.567 1.144.404 1.696-.591 3.537-.402 5.222.182 1.618.68 3.234 1.142 4.871 1.1 3.906.093 7.66.676 11.439 1.603-.763 1.205-3.783 3.216-3.427.395.07-.284 1.207-.54 1.709-.678 1.324-1.96 2.6-2.372 3.853-.433 1.32-.466 3.193.103 4.786 1.611-1.916 3.824-3.48 4.685-5.776a94.492 94.492 0 0 1 22.186-34.122c-9.247-6.496-17.91-12.759-27.753-19.441-7.964-5.407-16.656-7.578-25.56-7.066-15.25.876-18.61 3.627-30.498 10.723" fill="#C4122E"/><path d="M124.713 110.75c1.452-1.384 3.174-2.208 4.49-3.642.21-.23.129-1.174-.265-1.004-5.952 2.567-9.076 7.98-12.605 13.343-.204.31.043 1.18.177 1.032 2.904-3.192 5.014-6.69 8.203-9.73" fill="#C4122E"/><path d="M127.314 121.811c.35-4.367 5.313-8.52 1.562-12.186-4.894 2.99-8.056 7.745-11.4 12.213 1.523 3.94 1.074 8.267 2.76 12.252.072.173-.433.584-.667.319-3.672-4.145-1.508-12.195-7.832-13.62-2.925-.658-4.927 2.025-6.398 4.355-.2.315-.255 1.063.335 1.096 2.614.147 4.955 1.629 6.392 3.818 4.813 7.337 9.12 15.67 6.145 24.323-.214.62-.47 1.556-1.549 1.249 3.063-8.18-1.101-16.453-5.468-23.505-1.419-2.292-3.538-4.539-6.329-4.394-.493.025-.698 1.08-.933 1.807-.071.22-.611-.067-.652-.379-.071-.544-.327-1.214.354-1.621-.827-.72-1.809-1.06-2.83-.748-.83.253-1.45.886-2.075 1.544-.907.957.537 2.689-1.202 3.275-.26-1.482.542-3.059-.407-4.478-1.71 1.52-3.704 4.966-1.775 6.05 1.46.82 2.824 2.217 3.81 3.72 1.217-1.727-1.443-4.282 1.222-5.699-.258 2.64.194 5.249 2.089 7.28.244.26.66-.05.71-.367.345-2.14-2.364-4.171-1.245-5.384 1.02-1.104 1.867 1.58 2.517 2.95.797-.705.017-1.892.523-2.3.809-.654 1.11-2.009 1.439-1.917 3.222.906 5.96 5.816 3.396 8.348-1.8 1.778-4.047-1.424-4.95-3.724-.913 1.079.2 2.817-.909 3.514-2.174 1.365-3.3-1.25-4.384-3.107-1.015 2.214 1.225 4.886-1.222 6.514 5.49 11.884 20.27 18.163 32.556 13.397 3.994-1.549 7.545-3.686 10.046-7.39 2.604-3.855 3.218-8.127 5.55-12.048.786-1.318 1.89-2.384 3.208-3.227 8.233-5.267 16.975-8.165 22.878-16.17 5.18-7.029 5.43-16.687.453-24.083-4.277-6.357-8.798-12.075-15.443-15.212-.55-.26.799 1.944.103 2.213-1.893.734-1.522-3.724-1.976-3.365-8.318 6.572-13.805 15.555-16.687 25.688-.089.31 1.283-.394 1.527-.976 1-2.39 2.208-4.383 4.232-6.01.304-.245.763.158.689.322-.807 1.778-2.316 3.14-3.166 4.927 3.257.23 6.049-2.19 9.364-1.629-3.421 2.97-8.232 2.803-11.778 5.736-3.334 2.756-5.805 5.986-7.668 9.782-2.524 5.145-1.657 10.624-2.747 16.197-.653 3.34-4.287 6.283-7.897 4.446-.112-.056-.038-.47-.038-.74 2.99.587 5.388-1.687 6.035-4.496.668-2.896-.505-5.609-.268-8.56" fill="#FFF"/><path d="M98.056 139.297c-.56-1.418-.76-3.063-2.18-3.988-.344-.223-.772.15-.702.339.765 2.067.49 4.906 2.48 5.882.465.23.794-1.242.402-2.233m2.644 10.69c-.84-1.236-1.818-2.693-2.858-2.98-5.458-1.508-10.804-4.417-16.6-2.777 4.972 5.99 13.704 10.532 21.578 8.143-.701-.796-1.472-1.433-2.12-2.386" fill="#FFF"/><path d="M106.961 149.892c.468.861 1.205 1.54 1.558 2.48-3.089-.037-4.283-4.581-3.393-6.812 1.2-3.009 5.018-.543 6.113 1.587 1.033 2.01 1.294 4.104.895 6.438-.055.32-.58.602-.657.38-1.039-3.04-.709-8.14-4.588-8.156-1.952-.009-.734 2.597.072 4.083m18.337-2.862c-.146-.256-.268-.507-.456-.79-.228-.34.09-.731.366-.718 1.856.09 1.466 2.342 1.847 3.65.442 1.522-.66 3.775-2.25 4.422.438-2.24 1.877-4.144.493-6.564" fill="#231F20"/><path d="M107.673 138.552c.37.542.998.51 1.151.308 1.53-2.017-.982-4.464-2.34-6.03-1.469 1.628.037 4.035 1.19 5.722m42.372 13.398c4.466.054 8.975-.986 13.028-2.834-6.105-.591-12.239-1.633-18.302-1.298-1.127.063-1.142 2.448-2.461 3.333 2.487 1.145 5.135.767 7.735.798m6.132-4.702c10.125 1.054 20.946.516 29.53-6.082.075-.059-.97.032-1.42-.259-.13-.083-.102-.635-.014-.667 2.629-.941 4.804-2.676 5.93-5.036.612-1.286 1.825-4.225.233-3.937-1.92.347-3.065 3.58-5.785 3.6 0-.407-.125-1.005.062-1.119 2.796-1.701 5.765-4.02 5.212-6.943-1.432-7.567-9.018-1.287-13.47.166-2.315.756-4.87-.683-7.246.236-1.125.435-2.174 1.015-3.25 1.616-3.089 1.724-3.71 5.709-6.957 7.266-.086-1.841 1.953-3.317 1.628-4.35-.544-1.726-2.591 1.362-4.074 1.898-.389.14-.67-.09-.783-.408-.232-.66.695-.77.716-1.215.013-.276-.377-.589-.722-.37-3.469 2.205-7.124 3.906-8.934 7.723-.916 1.932-1.923 4.82-1.199 5.69 2.207 2.644 6.84 1.805 10.543 2.19" fill="#FFF"/><path d="M163.486 128.764c.402-.43.979-.759 1.128-1.252.064-.21-.41-.59-.68-.334-.998.945-2.331 1.127-3.303 1.988.802.608 1.633.906 2.855-.402m21.937-16.356c1.844-1.2 3.572-3.063 5.685-2.547.377.092-.272.955-.756 1.392 2.297 2.285 6.165.732 7.054-1.727.105-.292-1.31-.571-2.119-.858-1.601-.567-.952-3.17-2.54-3.812-4.28-1.73-8.579.414-12.166 2.733.823.771 1.352 1.67 1.22 2.85-1.487-.492-2.096-1.984-3.256-2.85-.903 2.844-.502 6.123-2.443 8.55 3.403 1.289 6.512-1.904 9.321-3.73m-28.029-36.621c.389.164.941-.124 1.202.452.994-1.113 2.244-3.049 1.221-4.478-1.086 1.086-2.357 2.004-3.146 3.323-.05.083.392.564.723.703m-53.774 49.28c2.14-.068.457-2.659-1.245-3.075-1.413-.346-2.419 1.473-2.474 2.31-.13 1.94 2.66.798 3.72.765M49.073 73.389c.77-3.57 6.862-6.323 4.078-9.77-2.107 4.27-7.351 4.642-10.474 7.845-1.257 1.29-2.846 3.48-2.141 4.486 1.395 1.991 4.52-1.253 7.331-1.103.45.024 1.045-.707 1.206-1.458" fill="#FFF"/><path d="M81.587 57.014c-.23.157-.496.273-.777.462-.34.228-.771-.157-.699-.334 1.282-3.147 4.727-3.598 7.357-5.123 3.262-1.89 6.512-3.874 10.466-3.87-5.369 3.177-10.882 5.13-16.347 8.865" fill="#231F20"/><path d="M121.039 103.823h2.035c-.905.152-1.313 1.026-1.93 1.55-.843.716-4.159 4.94-4.68 6.033-1.056 2.208-2.573 4.186-2.957 6.666-.438-.115-.784.32-1.222.204 1.81-5.607 5.32-10.397 9.364-14.657" fill="#C4122E"/><path d="M124.906 104.434c-.2-.063-.3.1-.18.16.806.41 1.765.158 2.623.45-2.359 1.3-4.414 2.962-6.214 4.973-1.144 1.277-2.47 2.317-3.286 3.817-.913 1.68-1.943 3.196-2.63 5.008-.076.203-.66-.294-1.102-.159 1.66-5.045 4.515-9.442 8.646-12.914.543-.456 1.12-1.13 1.751-1.205.367-.043.8.212 1.207-.13M95.888 55.322l.074-.623 1.165-.454 2.761 3.747-1.214 1.088c-1.015-.888-1.921-1.465-2.718-1.731-.797-.266-1.572-.253-2.324.04-.96.375-1.54 1.069-1.739 2.082-.199 1.013-.001 2.281.593 3.804.584 1.5 1.28 2.545 2.087 3.134.807.59 1.688.7 2.642.327.764-.298 1.298-.724 1.6-1.28.303-.555.33-1.152.08-1.792-.173-.445-.416-.72-.727-.828-.312-.107-.747-.062-1.305.135l-.561-1.44 5.716-2.23.562 1.441c-.512.336-.813.657-.905.962-.093.306-.012.785.242 1.437l1.276 3.271-1.84.718-.884-.823a6.457 6.457 0 0 1-1.354 1.532c-.507.409-1.115.752-1.826 1.03-1.695.66-3.287.59-4.774-.213-1.488-.802-2.618-2.196-3.393-4.182-.723-1.855-.726-3.6-.008-5.236.718-1.634 1.986-2.807 3.806-3.516.456-.179.922-.3 1.398-.367.477-.066 1-.077 1.57-.033" fill="#FFF"/><path d="M95.888 55.322l.404.048.046-.38.646-.253 2.357 3.198-.939.842.272.303.268-.307c-1.04-.908-1.98-1.516-2.857-1.81a3.948 3.948 0 0 0-1.251-.211 3.68 3.68 0 0 0-1.35.259 3.195 3.195 0 0 0-1.32.919 3.21 3.21 0 0 0-.67 1.462 4.617 4.617 0 0 0-.083.89c0 .925.238 1.968.695 3.14.602 1.541 1.325 2.653 2.227 3.316.55.405 1.167.623 1.807.62a3.35 3.35 0 0 0 1.223-.243c.825-.32 1.452-.805 1.81-1.464a2.37 2.37 0 0 0 .298-1.146c0-.328-.068-.66-.196-.989a2.221 2.221 0 0 0-.386-.661 1.382 1.382 0 0 0-1.097-.483c-.325.001-.674.078-1.064.215l.135.384.38-.148-.414-1.06 4.957-1.934.415 1.061.379-.148-.224-.34c-.274.18-.502.362-.682.554-.18.192-.318.398-.389.63a1.37 1.37 0 0 0-.054.4c.001.378.111.798.307 1.303l1.127 2.892-1.222.477-1.053-.98-.263.408a6.051 6.051 0 0 1-1.268 1.437 6.44 6.44 0 0 1-1.718.966c-.725.283-1.418.42-2.085.42-.81 0-1.585-.2-2.348-.611-1.386-.75-2.455-2.05-3.206-3.972-.347-.89-.517-1.742-.517-2.56 0-.814.166-1.598.502-2.364.678-1.535 1.843-2.619 3.58-3.301a5.79 5.79 0 0 1 2.162-.398c.201 0 .41.008.627.025l.39.03.046-.388-.404-.048.031-.406a8.953 8.953 0 0 0-.69-.027 6.59 6.59 0 0 0-2.457.454c-1.902.736-3.274 1.997-4.031 3.732a6.633 6.633 0 0 0-.57 2.69c0 .932.194 1.887.572 2.857.797 2.048 1.99 3.536 3.579 4.392.869.47 1.788.71 2.734.71.78 0 1.575-.162 2.38-.476a7.25 7.25 0 0 0 1.935-1.092 6.87 6.87 0 0 0 1.44-1.627l-.342-.222-.278.298 1.071.997 2.458-.958-1.423-3.65c-.178-.451-.254-.801-.252-1.008 0-.074.009-.129.02-.163a.824.824 0 0 1 .202-.31c.12-.128.3-.275.536-.43l.276-.182-.83-2.126-6.475 2.525.853 2.186.372-.13c.332-.12.603-.17.793-.17a.565.565 0 0 1 .485.206c.082.093.165.23.239.42a1.9 1.9 0 0 1 .14.693c0 .262-.062.506-.198.756-.247.453-.687.82-1.39 1.096a2.547 2.547 0 0 1-.928.188c-.46-.002-.888-.146-1.326-.464-.712-.518-1.382-1.494-1.95-2.954-.432-1.109-.64-2.062-.638-2.846 0-.262.022-.506.067-.732.089-.45.255-.808.496-1.097.242-.289.564-.516.99-.683.351-.137.7-.203 1.055-.203.322 0 .651.055.993.169.717.238 1.59.784 2.58 1.651l.27.238 1.759-1.576-3.167-4.296-1.682.656-.103.866.404.048.031-.406-.031.406" fill="#231F20"/><path d="M104.604 53.999l.126-1.618 5.3.414-.124 1.57-.095-.007a.735.735 0 0 0-.492.114.475.475 0 0 0-.215.366c-.013.165-.01.352.009.56.018.21.051.418.099.626l1.268 6.072 1.857-4.66-.28-1.19c-.138-.604-.296-1.034-.474-1.29a1.388 1.388 0 0 0-.743-.537l.121-1.55 5.556.433-.122 1.57c-.408-.019-.706.017-.894.107a.53.53 0 0 0-.31.469c-.005.064-.003.143.005.24l.03.289 1.114 6.576 2.27-5.421a9.76 9.76 0 0 0 .276-.768c.073-.24.114-.414.122-.522.018-.222-.085-.399-.308-.531-.222-.132-.62-.25-1.192-.352l.122-1.57 5.337.418-.124 1.588c-.582.101-1.03.277-1.343.527-.313.25-.623.755-.932 1.516l-3.844 9.26-2.473-.192-1.258-5.956-2.386 5.671-2.53-.198-2.257-10.56c-.112-.532-.254-.9-.426-1.101-.173-.202-.436-.323-.79-.363" fill="#FFF"/><path d="M104.604 53.999l.406.031.095-1.211 4.486.35-.09 1.164.405.032.032-.406-.095-.008a1.535 1.535 0 0 0-.114-.004 1.109 1.109 0 0 0-.643.191.88.88 0 0 0-.388.668c-.006.08-.01.162-.01.246a5.066 5.066 0 0 0 .127 1.063l.397-.09-.398.082 1.543 7.395 2.406-6.035-.31-1.31v-.001c-.146-.63-.305-1.094-.535-1.432a1.802 1.802 0 0 0-.954-.693l-.124.388.406.032.09-1.145 4.743.37-.09 1.165.406.031.019-.407a4.604 4.604 0 0 0-.221-.005c-.339.002-.618.035-.868.152a.94.94 0 0 0-.384.328 1.005 1.005 0 0 0-.155.476 2.263 2.263 0 0 0 .005.308v-.001c.009.1.019.201.031.302l.001.01 1.35 7.97 2.814-6.718v-.002a9.66 9.66 0 0 0 .288-.802 3.12 3.12 0 0 0 .14-.61l.002-.079a.903.903 0 0 0-.142-.49 1.084 1.084 0 0 0-.367-.343 2.469 2.469 0 0 0-.558-.228 7.334 7.334 0 0 0-.77-.175l-.072.401.405.032.091-1.164 4.525.354-.092 1.183.406.031-.07-.4c-.624.109-1.137.3-1.527.608-.21.169-.389.393-.56.672-.172.28-.335.614-.495 1.01v-.002l-3.73 8.987-1.875-.146-1.463-6.932-2.778 6.6-1.934-.151-2.193-10.264c-.122-.561-.262-.974-.514-1.28a1.351 1.351 0 0 0-.467-.347 1.933 1.933 0 0 0-.586-.156l-.047.405.406.031-.406-.031-.046.404c.143.016.255.048.339.087a.54.54 0 0 1 .188.137c.091.098.235.418.337.919l2.32 10.86 3.126.244 1.996-4.743 1.051 4.98 3.072.241 3.957-9.535.001-.002c.148-.365.295-.663.434-.89.139-.226.271-.38.375-.461.236-.19.619-.35 1.159-.443l.311-.055.18-2.31-6.148-.48-.183 2.343.363.065c.276.049.505.101.684.154.179.052.307.107.372.147a.289.289 0 0 1 .098.082l.013.051v.016c-.002.045-.037.21-.107.436-.069.225-.157.47-.263.733l.377.153-.375-.158-1.729 4.127-.878-5.192-.402.068.405-.048a8.053 8.053 0 0 1-.029-.277v-.001a1.292 1.292 0 0 1-.006-.124l.001-.046a.198.198 0 0 1 .024-.092c.01-.013.017-.024.056-.043.062-.032.244-.074.516-.072.057 0 .118.002.182.005l.395.018.184-2.37-6.367-.497-.178 2.279.308.098c.243.08.403.198.532.38.124.175.28.572.411 1.15l.251 1.067-1.31 3.285-.991-4.752-.001-.004a4.175 4.175 0 0 1-.106-.88c0-.066.003-.126.007-.182l.007-.032.035-.033c.038-.025.081-.044.177-.045l.05.002.095.008.406.032.187-2.382-6.11-.477-.19 2.415.39.044.047-.404" fill="#231F20"/><path d="M127.437 57.197l.938-1.324 5.246 3.72-.91 1.284c-.51-.337-.934-.449-1.272-.334-.339.115-.807.592-1.402 1.433l-2.826 3.986c-.497.7-.702 1.35-.616 1.949.086.599.458 1.132 1.118 1.6.767.543 1.5.747 2.194.608.695-.139 1.334-.618 1.915-1.439l2.566-3.619c.615-.866.916-1.47.906-1.814-.01-.342-.25-.691-.715-1.045l.91-1.285 3.963 2.81-.938 1.323c-.49-.332-.9-.448-1.227-.35-.327.1-.793.575-1.396 1.426l-2.38 3.355c-1.092 1.541-2.217 2.42-3.376 2.636-1.16.215-2.478-.202-3.957-1.25-1.464-1.038-2.34-2.12-2.627-3.249-.288-1.128.006-2.31.881-3.545l2.838-4c.625-.883.93-1.494.912-1.833-.016-.34-.265-.687-.745-1.043" fill="#FFF"/><path d="M127.437 57.197l.331.235.703-.991 4.583 3.248-.675.953.332.235.225-.34c-.419-.274-.816-.442-1.223-.444-.138 0-.275.02-.405.064-.276.098-.506.285-.765.545a8.771 8.771 0 0 0-.838 1.039l-2.826 3.985c-.454.64-.709 1.28-.71 1.916 0 .11.007.219.023.327.052.365.194.711.413 1.024.22.314.513.594.872.85.659.467 1.33.725 2.002.725.17 0 .34-.016.508-.05a2.879 2.879 0 0 0 1.165-.537c.36-.272.692-.628 1.002-1.065l2.566-3.62a9.31 9.31 0 0 0 .711-1.14c.163-.33.266-.602.27-.892v-.029a1.38 1.38 0 0 0-.258-.736 2.764 2.764 0 0 0-.618-.621l-.246.324.332.236.675-.953 3.298 2.338-.703.991.333.236.228-.337c-.416-.28-.81-.45-1.217-.454-.12 0-.24.017-.356.052-.283.09-.509.277-.768.536a8.786 8.786 0 0 0-.842 1.044l-2.38 3.354c-.528.748-1.06 1.323-1.581 1.73-.524.407-1.034.647-1.538.741a2.92 2.92 0 0 1-.533.048c-.885.002-1.929-.388-3.114-1.23-.708-.502-1.265-1.009-1.673-1.514-.408-.505-.668-1.005-.795-1.502a3 3 0 0 1-.094-.747c0-.763.288-1.58.913-2.462l2.837-4.001c.313-.44.55-.82.717-1.148.164-.33.267-.603.272-.893v-.046a1.373 1.373 0 0 0-.276-.733 2.876 2.876 0 0 0-.635-.618l-.242.327.331.235-.331-.235-.243.327c.216.16.368.31.458.437.091.128.12.223.124.3v.006c.005.054-.044.255-.185.526a8.64 8.64 0 0 1-.654 1.044l-2.836 4c-.694.977-1.064 1.96-1.064 2.934 0 .32.04.636.12.948.16.63.483 1.236.95 1.814.468.578 1.08 1.13 1.835 1.666 1.268.898 2.458 1.378 3.585 1.38.231 0 .459-.021.682-.063.655-.121 1.287-.428 1.89-.899.603-.471 1.181-1.106 1.744-1.9l2.38-3.355c.293-.415.55-.732.76-.946.207-.215.377-.317.422-.326a.418.418 0 0 1 .12-.016c.156-.003.42.081.76.313l.33.223 1.405-1.98-4.627-3.28-1.374 1.938.313.238c.21.158.354.307.44.433a.569.569 0 0 1 .115.3v-.002.007c.004.056-.044.256-.183.525a8.51 8.51 0 0 1-.648 1.037l-2.566 3.62c-.272.383-.55.676-.827.884a2.06 2.06 0 0 1-.836.39c-.115.023-.23.034-.348.034-.458 0-.965-.175-1.53-.576a2.753 2.753 0 0 1-.676-.651 1.542 1.542 0 0 1-.29-.885c0-.41.168-.892.56-1.445l2.826-3.985c.29-.41.545-.725.756-.94.209-.217.382-.326.444-.344a.445.445 0 0 1 .144-.021c.162-.003.43.081.773.31l.329.218 1.374-1.939-5.91-4.19-1.405 1.98.32.238.243-.327" fill="#231F20"/><path d="M9.86 118.723c1.459-.04 2.182.7 2.985 1.487-.14-3.56-3.279-5.545-4.478-8.55-.397 2.47-2.02 7.156 1.494 7.063" fill="#FFF"/></g></svg>