<svg width="200" height="200" xmlns="http://www.w3.org/2000/svg"><g fill="none"><path d="M181.885 90.84l-2.682-27.433c2.725-1.431 20.702-10.85 20.702-10.85l-22.858-7.476c-.359-3.08-3.348-28.867-3.348-28.867l-4.276 5.77s-1.667 2.246-3.786 5.106l-5.857-.789a156.665 156.665 0 0 0-20.953-1.273c-32.656.226-63.768 10.459-89.974 29.593l-4.521 3.3 6.285 4.983C39.46 70.815 29.456 80.12 20.888 90.514c-5.776.518-11.436 1.018-16.955 1.462l-3.918.315L0 173.99l6.303-3.442a192.224 192.224 0 0 1 22.645-10.51c2.665 2.188 5.346 4.389 6.357 5.217l-6.544 18.05 8.538-3.07c20.78-7.468 40.58-10.947 62.314-10.947 20.721 0 42.15 3.734 61.972 10.798l8.513 3.036-6.516-17.994c1.01-.83 3.688-3.025 6.335-5.199a192.424 192.424 0 0 1 22.646 10.463l6.295 3.425.014-81.552-3.92-.311c-4.274-.343-8.637-.72-13.067-1.113" fill="#FAB80A"/><path d="M194.731 94.785c-29.016-2.324-61.915-6.21-95.142-6.21-14.427 0-28.787.73-42.794 1.747 16.119-5.978 33.324-9.17 50.926-9.293l9.33.138-2.268-2.442-2.19-2.33v.002l-.057-.064-4.416-4.7a150.04 150.04 0 0 1 26.85 2.308l-8.845 12.485 34.631-16.42c1.294 1.355 18.099 18.977 18.099 18.977s-2.489-25.448-2.658-27.205l16.436-8.613-18.193-5.95-2.73-23.54-2.138 2.883-2.646 3.571-7.518-1.012a153.818 153.818 0 0 0-20.556-1.248c-32.056.222-62.596 10.266-88.318 29.046l-1.507 1.1 6.306 5A150.143 150.143 0 0 0 22.311 93.24c-6.187.557-12.25 1.095-18.144 1.57l-1.307.103-.013 74.292 2.1-1.149a195.295 195.295 0 0 1 24.533-11.258l9.185 7.538-5.167 14.251 2.846-1.023c21.098-7.583 41.203-11.115 63.275-11.115 21.042 0 42.801 3.792 62.926 10.964l2.838 1.011-5.149-14.217 9.162-7.517a195.253 195.253 0 0 1 24.53 11.21l2.099 1.14.014-74.15-1.308-.104" fill="#FFF"/><path d="M107.725 70.215c9.632-.066 19.038.785 28.15 2.45l9.597-13.548c-8.186-1.325-16.598-2-25.193-1.942a151.211 151.211 0 0 0-35.528 4.476l1.684 1.767.113.028 4.273 4.236-.01.003 1.417 1.714a149.405 149.405 0 0 0-54.473 22.463c4.677-.408 9.41-.805 14.192-1.174 17.2-7.006 36.027-10.941 55.763-11.079 2.027-.013 4.04.026 6.037.089l-2.19-2.33.003.002-.07-.076-6.554-6.977.083-.05c.9-.026 1.8-.047 2.706-.052" fill="#00613C"/><path d="M159.218 30.524a151.615 151.615 0 0 0-20.356-1.235c-32.769.226-63.033 10.916-87.49 28.773l6.075 4.817.03-.016.254.205a148.378 148.378 0 0 0-33.47 29.996l5.476-.493a149.258 149.258 0 0 1 43.33-27.988l-2.788-2.664.003-.004-3.918-3.697c19.432-9.373 41.25-14.72 64.313-14.88 2.426-.018 4.836.026 7.232.123l-9.873-11.42 30.162 9.862c.65-.875 4.68-6.314 7.763-10.471l-6.743-.908" fill="#00613C"/><path d="M168.575 30.289L158.73 43.57l-26.275-8.591 17.508 20.255-19.539 27.583s28.924-13.716 30.652-14.537l15.966 16.742s-2.182-22.323-2.353-24.059c1.468-.767 14.306-7.495 14.306-7.495l-15.86-5.186-2.42-20.88-2.139 2.886" fill="#231F20"/><path d="M85.54 119.947v.002c-.008-.008 0-.002 0-.002" fill="#FCD43D"/><path d="M167.853 156.118a198.564 198.564 0 0 0-68.276-12.135c-23.446 0-46.718 4.19-68.558 12.24l9.323 7.651-4.478 12.353c21.189-7.616 41.475-11.199 63.755-11.199 21.207 0 43.18 3.838 63.403 11.047l-4.465-12.33 9.296-7.627" fill="#231F20"/><path d="M35.988 92.016c10.464-8.964 24.329-18.122 41.425-24.358-18.2 5.365-32.096 13.404-46.074 24.77 1.542-.138 3.093-.275 4.649-.412" fill="#FAB80A"/><path d="M194.617 96.2c-28.244-2.262-60.615-6.204-95.028-6.204-34.528 0-67 3.95-95.309 6.227l-.013 70.587c28.31-15.458 60.782-24.247 95.31-24.247 34.413 0 66.784 8.728 95.028 24.09l.012-70.454M99.59 89.996c-34.529 0-67 3.95-95.31 6.227m190.337-.023c-28.244-2.262-60.615-6.204-95.028-6.204" fill="#00613C"/><path d="M169.52 32.072c-.965 1.3-9.921 13.385-9.921 13.385l-.152.205s-19.24-6.291-21.417-7.004l24.685 14.837 6.805-21.423M135.85 78.31l26.864-24.814-10.48 1.594.035.04-16.421 23.181h.002m48.648-24.458l-12.942-4.231-8.84 3.873 21.782.358m-11.608 6.085l-10.175-6.442 12.111 26.582.001.002c-.18-1.854-1.966-20.127-1.966-20.127l.028-.015" fill="#FAB80A"/><path d="M44.718 156.565l2.604 10.602 3.038-.747-.842-3.426 5.726-1.406c1.39-.342 2.39-.923 3-1.743.609-.82.773-1.8.494-2.938-.26-1.058-.86-1.822-1.798-2.292-.94-.471-2.04-.55-3.305-.24l-8.917 2.19zm4.213 4.037l-.588-2.391 5.592-1.374c1.012-.249 1.61.002 1.795.753.094.382.034.721-.18 1.019-.213.297-.55.502-1.01.615l-5.609 1.378zm18.175-8.835l-3.5.59-4.151 11.772 3.177-.537.86-2.44 6.609-1.116 1.614 2.023 3.176-.537-7.785-9.755zm-2.652 6.725l1.336-3.857 2.529 3.204-3.865.653zm20.976-6.449l-5.16.53.865 8.41-3.112.32-.865-8.409-5.164.53-.252-2.45 13.437-1.38.251 2.45m13.447 4.118c1.516-.633 2.252-1.766 2.207-3.398-.029-1.089-.452-1.962-1.27-2.62-.817-.659-1.877-.97-3.18-.936l-9.178.25.296 10.91 3.127-.083-.096-3.527 4.777-.13 2.667 3.457 3.542-.095-2.892-3.828zm-8.16-1.866l-.067-2.461 5.756-.157c1.042-.028 1.573.345 1.594 1.118.01.392-.12.711-.391.957-.272.245-.645.374-1.119.387l-5.773.156zm16.485 5.968l-3.127-.096.337-10.911 3.128.096-.338 10.91m16.502-8.269c-1.389-1.314-3.214-2.074-5.475-2.28-2.273-.205-4.211.214-5.813 1.257-1.414.918-2.193 2.185-2.34 3.8-.148 1.638.384 3.03 1.6 4.175 1.4 1.315 3.237 2.075 5.51 2.28 2.261.206 4.2-.213 5.813-1.254 1.4-.908 2.175-2.18 2.323-3.82.147-1.615-.393-3-1.618-4.158zm-2.998 6.165c-.85.532-1.955.738-3.311.614-1.369-.124-2.426-.525-3.173-1.202-.748-.678-1.076-1.516-.986-2.514.088-.975.567-1.73 1.436-2.267.87-.538 1.977-.746 3.322-.624 1.332.121 2.375.524 3.128 1.208.752.684 1.085 1.513.997 2.488-.09.999-.562 1.764-1.413 2.297zm18.958-2.615l-5.116-.855-1.393 8.338-3.085-.515 1.392-8.338-5.12-.855.405-2.43 13.323 2.226-.406 2.43m12.232 3.774c-1.477-1.136-3.038-1.903-4.682-2.302-2.105-.51-3.24-.428-3.403.247-.092.378.21.712.907 1.002 1.023.346 2.053.693 3.088 1.041 1.947.655 3.31 1.327 4.093 2.017.825.712 1.123 1.54.895 2.482-.28 1.15-1.04 1.92-2.28 2.314-1.276.396-2.932.348-4.966-.146-2.76-.67-5.062-1.99-6.91-3.958l2.029-1.515c1.33 1.43 3.15 2.427 5.46 2.987 2.089.508 3.216.426 3.378-.245.08-.324-.278-.656-1.071-.996-.452-.195-1.619-.6-3.5-1.217-3.303-1.082-4.726-2.563-4.269-4.446.262-1.078 1.003-1.807 2.221-2.186 1.219-.378 2.772-.339 4.658.12 2.807.68 4.888 1.765 6.245 3.251l-1.893 1.55M44.854 96.776a1918 1918 0 0 0-11.244.978c-1.06 3.383-5.378 17.147-7.168 22.86-1.7-5.587-5.624-18.495-6.577-21.629l-11.47 1.008-.011 60.025a200.271 200.271 0 0 1 10.668-4.97c.001-2.283.006-12.553.006-20.353 2.053 6.704 4.445 14.543 4.893 16.102l.582 1.983a204.31 204.31 0 0 1 4.04-1.546c.59-1.823 3.436-10.608 5.605-17.31 0 5.5.007 13.567.008 15.316a203.553 203.553 0 0 1 10.665-3.292l.003-49.172" fill="#FFF"/><path d="M34.68 99.087l-8.26 26.338-7.578-24.924-9.028.792-.01 56.46a203.316 203.316 0 0 1 7.829-3.625l.005-28.932 7.678 25.209.147.5 1.968-.754c.378-1.167 8.156-25.11 8.156-25.11l.018 22.248c2.597-.852 5.213-1.66 7.826-2.403l.003-46.56-8.753.76" fill="#FAB80A"/><path d="M89.52 98.91V109c0 1.548 1.023 2.702 1.982 3.663.053.05 13.16 13.792 13.165 13.798v2.935h-4.22l.001-3.128H89.52v7.441c0 2.764 2.682 4.773 6.38 4.773 3.705 0 9.538.224 13.481.224 3.85 0 6.38-3.17 6.38-5.566v-9.047c0-1.8-1.328-3.156-2.55-4.402 0 0-11.712-12.31-12.596-13.118v-3.17h4.219v3.13l10.927.001V99.02c0-2.4-1.973-4.823-6.38-4.823L95.9 94.193c-3.578.004-6.38 2.077-6.38 4.717" fill="#FFF"/><path d="M90.94 98.91V109c0 .907.6 1.69 1.567 2.66.014.013.04.038 12.024 12.601l1.554 1.629.002.57.001 4.355h-7.061v-3.127H90.94v6.021c0 1.943 2.085 3.353 4.96 3.353l13.481.224c3.028 0 4.96-2.455 4.96-4.146v-9.047c0-1.221-1.04-2.283-2.143-3.408-4.71-4.95-11.92-12.496-12.541-13.064l-.462-.423v-5.215h7.058l.001 3.13 8.087.001V99.02c0-1.57-1.299-3.403-4.96-3.403l-13.482-.004c-2.733.003-4.96 1.483-4.96 3.297" fill="#FAB80A"/><path d="M180.151 121.816c-2.586-8.114-6.366-19.931-7.478-23.41-3.753-.342-7.59-.69-11.498-1.034v50.62a203.46 203.46 0 0 1 10.344 3.587l.002-22.166c2.783 8.73 7.014 22.123 8.051 25.405 3.689 1.576 7.33 3.26 10.92 5.055 0-10.417.008-53.834.01-59.903l-10.357-.907.006 22.753" fill="#FFF"/><path d="M162.595 146.968a205.24 205.24 0 0 1 7.505 2.587l-.003-29.396 10.635 33.621a204.61 204.61 0 0 1 8.34 3.834l.01-56.343-7.517-.658c0 2.692.013 30.31.013 30.31l-9.97-31.187-9.013-.811v48.043" fill="#FAB80A"/><path d="M65.308 121.75l.004-.016 2.741-11.187 2.506 11.204h-5.251zm9.734-27.021c-4.846.23-9.64.516-14.367.837l-.31 1.03-11.898 48.381c3.858-1 7.746-1.887 11.66-2.66.38-1.484 2.46-9.625 2.904-11.352h9.739c.362 1.623 1.683 7.574 2.002 9.01a203.45 203.45 0 0 1 11.498-1.085L75.042 94.73z" fill="#FFF"/><path d="M63.933 121.396l4.184-17.11 4.214 18.884h-8.833l.435-1.774zm-2.184-24.47l-.025.08c0 .007-8.975 36.5-11.32 46.038a206.08 206.08 0 0 1 8.566-1.932c.377-1.468 2.96-11.568 2.96-11.568h11.978l1.974 8.882a204.46 204.46 0 0 1 8.597-.816L73.954 96.214c-1.808.105-10.656.622-12.205.711z" fill="#FAB80A"/><path d="M133.902 104.486l8.88.721.001 28.52s-6.94-1.24-8.881-1.635v-27.606zm-4.576-9.527c-2.086-.066-3.898.611-5.24 1.95-.877.876-1.11 2.44-1.11 3.144v35.766c0 3.238 3.62 4.375 6.158 4.779 4.466.71 13.862 2.488 17.187 3.313 3.58.887 7.39-1.282 7.39-4.3v-38.866c0-3.085-3.1-4.255-6.38-4.521l-17.953-1.265h-.052z" fill="#FFF"/><path d="M132.482 133.252v-30.306l11.72.952.001 31.568-11.72-2.214zm-7.391-35.338c-.474.473-.695 1.556-.695 2.14v35.765c0 2.139 2.698 3.017 4.96 3.376 4.58.728 13.974 2.511 17.307 3.337 1.554.386 3.316.041 4.489-.875.425-.333 1.138-1.041 1.138-2.046v-38.866c0-2.226-2.759-2.918-5.073-3.106l-17.938-1.263c-1.68-.05-3.13.48-4.188 1.538z" fill="#FAB80A"/></g></svg>