<svg width="200" height="200" fill="none" xmlns="http://www.w3.org/2000/svg"><path d="M194.971 37.536h-12.282c-17.795-.097-25.242-3.675-34.72-8.22l-.387-.194C137.427 24.19 124.758 18 100.387 18h-.58c-24.469 0-37.041 6.19-47.196 11.122l-.387.193c-9.477 4.546-16.924 8.124-34.72 8.22H0l1.064 5.03c.193.774 4.449 19.536 20.6 27.563 1.353 2.514 3.481 5.802 6.866 8.897 0 2.515.193 7.157.29 10.058.29 9.768 2.224 18.472 5.706 25.822 3.965 9.381 10.058 17.118 17.988 23.114h.097c1.548 1.161 3.965 2.998 4.449 3.675.774 1.258 1.644 4.352 2.321 7.157 1.547 5.996 3.772 14.12 9.478 20.793 6.77 7.93 17.505 12.186 31.141 12.379 13.636-.193 24.371-4.449 31.141-12.379 5.706-6.673 7.834-14.894 9.478-20.793.677-2.708 1.547-5.899 2.321-7.157.484-.677 2.901-2.514 4.449-3.675h.096c7.931-5.996 14.024-13.829 17.989-23.114 3.578-7.35 5.416-16.054 5.706-25.822.193-2.901.29-7.543.29-10.058 3.288-3.095 5.513-6.286 6.867-8.897 16.247-7.93 20.406-26.693 20.599-27.563l1.064-5.03h-5.029Z" fill="#fff"/><path d="M71.954 167.323c-5.126-5.996-7.06-13.346-8.607-19.246-.87-3.385-1.741-6.479-2.805-8.317-.87-1.354-3.095-2.998-5.513-4.836-5.222-3.965-12.089-10.638-16.73-21.566v-.097c-2.999-6.19-5.127-14.023-5.32-24.275-.193-4.062-.29-11.895-.29-11.895-4.159-3.482-6.576-7.254-7.93-10.155C8.898 60.07 4.933 41.598 4.933 41.598h12.282c19.052-.097 27.37-4.159 37.04-8.898 10.542-5.222 22.438-10.832 45.842-10.735 23.404 0 35.203 5.61 45.841 10.735 9.672 4.642 17.989 8.8 37.041 8.898h12.282s-3.965 18.568-19.632 25.338c-1.354 2.901-3.772 6.673-7.93 10.155 0 0-.097 7.834-.291 11.895-.29 10.252-2.417 18.085-5.319 24.275v.097c-4.642 10.928-11.508 17.601-16.731 21.566-2.418 1.838-4.739 3.579-5.512 4.836-1.161 1.838-1.935 4.932-2.805 8.317-1.547 5.9-3.482 13.25-8.607 19.246-6.093 7.06-15.764 10.735-28.144 10.928-12.572-.193-22.243-3.868-28.336-10.928Z" fill="#0039A6"/><path d="m141.973 70.224 4.932 1.74c-1.064.388-8.897 3.676-14.313 10.736-2.031-1.16-4.256-1.934-5.9-2.515 1.161 0 2.515 0 3.869.097h.387l.193-.29c3.288-5.513 9.284-8.898 10.832-9.768Zm-18.375 1.837c0-1.257-.194-2.901-.968-4.255-.483.097-.967.29-1.16.387-1.547.87-2.805 2.708-3.869 4.739-.193.29-.193.58-.193.773 0 .774.58 1.451 1.741 1.451h1.837c1.838 0 4.062.097 6.093.387 2.418-3.675 5.803-5.996 7.64-7.157a33.959 33.959 0 0 0-6.479-.967c-.581 2.128-1.838 4.933-4.062 6.48 0 0-.097.097-.29.097-.097 0-.194 0-.29-.097-.097-.097-.097-.29-.097-.387v-.097c0-.29.097-.773.097-1.354Zm-46.809 1.451c0 .194 0 .387-.097.484-.096.096-.29.096-.29.096a.424.424 0 0 1-.29-.096c-2.224-1.548-3.481-4.45-4.062-6.48-1.934.097-4.062.387-6.48.967 1.838 1.16 5.223 3.482 7.64 7.157 2.032-.29 4.256-.387 6.094-.387h1.837c1.16 0 1.74-.677 1.74-1.45 0-.29-.096-.484-.192-.775-1.064-2.03-2.322-3.771-3.869-4.738-.29-.097-.677-.29-1.16-.387-.774 1.354-.968 2.998-.968 4.255 0 .484 0 .967.097 1.354Zm11.315 79.594c.29-.194.484-.387.774-.58a6.972 6.972 0 0 1 3.868-1.161c1.451 0 2.805.387 3.966.774 1.16.387 2.224.677 3.385.677 1.16 0 2.224-.29 3.385-.677 1.16-.387 2.514-.774 3.965-.774 1.45 0 2.708.387 3.868 1.161.29.193.484.386.774.58 5.029-6.77 1.064-17.215.87-14.797-.387 4.449-2.127 7.157-3.771 8.704-1.258-1.354-2.612-2.514-2.612-2.514s-1.934 2.127-3.288 3.868c-1.257-1.741-3.288-3.868-3.288-3.868s-1.934 1.644-3.192 3.288c-1.257-1.644-3.288-3.288-3.288-3.288s-1.354 1.16-2.611 2.611c-1.644-1.644-3.385-4.352-3.772-8.801-.097-2.515-4.062 8.027.967 14.797Zm-13.636-30.948c.484 3.578 2.224 11.025 7.64 15.764.58.484.87.484.967-.387 0-.87-.773-10.154 1.451-15.86-3.675 0-7.06.193-10.058.483Zm43.714 15.667c5.416-4.738 7.156-12.185 7.64-15.764-2.998-.193-6.48-.483-10.058-.58 2.224 5.803 1.451 15.087 1.451 15.861 0 .967.386.967.967.483Zm-25.339-13.249 3.482 4.352s1.934-2.418 3.772-4.836a282.573 282.573 0 0 0 3.771 4.836l3.482-4.352a432.955 432.955 0 0 1 2.611 4.352c2.031-2.418 2.902-5.513 3.192-7.544-4.159-.193-8.511-.29-13.056-.29-4.546 0-8.898.097-13.056.29.386 1.935 1.257 5.029 3.191 7.544.097 0 1.354-2.128 2.611-4.352Zm19.149-24.178c.194-.967.097-1.74-.387-2.128-.87-.58-2.708.484-4.062 2.515s-1.644 4.062-.773 4.739c.29.193.677.193 1.16.096.097 0 .387-.193.677-.58a58.686 58.686 0 0 0 2.998-3.868c.194-.29.29-.581.387-.774Zm3.965-70.6c-1.644 2.515-4.352 6.77-6.673 11.606.097 4.448.29 12.669.581 18.665 1.063.967 2.417 2.224 3.771 3.385 2.031-1.837 5.61-5.32 7.06-7.737 0 0 8.801 1.064 20.987 8.704-1.064-2.901-2.708-6.576-3.192-7.543-1.547-.774-3.868-2.128-6.093-3.772-3.965-2.805-2.708-8.414-2.708-8.414 6.093 3.965 14.991 7.35 20.31 8.994-1.838-3.191-2.708-6.19-2.708-6.19 12.282 5.223 28.53 7.447 35.01 1.838-36.267.097-38.298-15.377-66.345-19.536Zm-.386 56.77c-.677-2.32-1.741-4.545-2.515-4.932-1.257-.677-5.126-1.45-8.124-.967.967-1.644 3.579-2.902 5.61-3.579-1.354-.87-2.999-1.063-4.256-1.063-.677 0-1.354.096-1.934.193 1.064-2.611 4.642-4.546 6.673-4.932-2.128-1.354-6.77-2.708-10.832 3.578-3.965-6.286-8.704-4.932-10.831-3.578 2.03.29 5.996 2.03 6.673 4.932-.194 0-.387-.097-.58-.097-1.161-.096-3.676-.29-5.61 1.064 1.934.677 4.352 2.031 5.32 3.675-4.45-.773-8.801 1.257-10.252 2.611l-.87.87c-2.709-4.931-8.221-1.16-10.059-.096 2.322 1.257 3.772 3.192 4.643 5.126l.677 1.354-.484-.194c-2.03-.773-10.445-3.191-18.665 4.256 3.288.87 7.543 2.127 10.638 3.868-6.963-.677-14.99 1.838-14.99 1.838s11.121.773 17.698 3.771c-10.445.194-17.795 3.966-17.795 3.966s5.32-.387 8.8-.387c3.676 0 8.511.387 13.153 1.547-9.284 1.064-17.698 6.19-17.698 6.19s15.087-1.354 26.21-1.741c.096 0-2.225-2.418-3.483-6.383 4.45 2.418 9.188 3.965 13.347 4.062-1.548-1.161-3.095-2.708-4.642-4.449-.097-.193-.29-.29-.29-.677 0-.58.676-.774.87-.774.193 0 .387 0 .58.097.194.097.387.097.58.097.194 0 .387 0 .484-.097.29-.193.483-.58.483-1.257 0-.871-.386-2.225-1.257-3.482-1.16-1.74-2.708-2.708-3.578-2.708a.739.739 0 0 0-.484.194c-.29.193-.483.58-.483 1.16 0 .581-.097 1.258-.967 1.354-.484 0-.774-.29-1.064-.677-2.321-3.481-4.062-6.383-4.062-7.93 0-.194 0-.484.193-.677.484-.677 1.354-.774 2.225-.774 4.448 0 14.023 3.772 15.667 4.449 1.547-.58 11.219-4.352 15.667-4.449.387 0 .677 0 .967.097-.483-1.257-.87-2.901-1.353-4.449Zm-24.662 79.014c-8.994 0-12.186-5.706-12.186-5.706-2.804-4.449-4.158-9.865-5.415-14.7-1.064-4.159-2.032-8.028-3.772-10.929-1.644-2.708-4.352-4.836-7.544-7.35-6.576-5.222-15.377-12.669-18.278-28.433h2.804c3.385-17.408 12.38-29.497 13.927-31.432-1.258-2.417-1.548-5.415-1.548-5.415.87.193 2.128.58 3.289.773 3.771-2.127 7.156-3.481 9.864-4.545.484-3.192 1.16-5.803 1.838-7.447.967-2.515 2.32-3.869 2.998-4.352 2.708-2.224 4.932-3.288 4.932-3.288-1.16 4.062-1.837 9.284-2.128 13.25 1.451 2.417 4.933 5.802 6.964 7.64 1.354-1.161 2.804-2.418 3.772-3.385.29-6.093.483-14.314.58-18.666a120.727 120.727 0 0 0-6.673-11.605C56.286 34.15 54.352 49.624 17.892 49.624c.483.774 1.45 2.225 2.804 3.675 2.225 2.418 5.996 5.223 10.638 6.383 0 0 .29 1.741 1.451 3.869 1.064 2.03 2.805 4.642 5.9 7.06.87-1.451 1.74-2.805 2.708-4.159-2.418-2.127-3.869-4.352-4.836-6.093-1.064-2.127-1.45-3.868-1.45-3.868-1.355-.29-5.03-1.16-8.415-3.288 5.513.677 13.927-.097 26.21-5.32 0 0-.871 3.289-2.902 6.577 4.158-.774 10.155-2.031 14.99-5.03-4.739 7.06-9.38 8.995-11.025 10.93-2.03 2.32-11.702 14.506-13.443 21.566-4.158 37.137 21.277 44.778 26.693 53.578 5.415 9.188 3.578 30.658 22.92 35.687 0 0 9.091 2.611 11.993-10.058 0 0-4.546 4.449-11.219 4.449Zm52.901-66.538c-.677-1.16-1.934-2.514-3.385-4.062-6.479 1.064-11.702 2.901-13.733 3.772 2.805-.29 9.962-.58 17.118.29Zm.967 8.124c.484-2.031.484-3.965 0-5.706-10.444.193-19.148 2.127-20.889 2.514 2.224.097 11.315.581 20.889 3.192Zm-14.41-18.666c.871 0 1.741.097 2.708.194-2.127-1.548-4.352-3.095-6.673-4.546-2.418 1.258-3.772 3.192-4.642 5.223l-.677 1.354 1.354-.58a19.956 19.956 0 0 1 7.93-1.645Zm11.026 25.629s1.547-1.934 2.708-4.739c0-.097.096-.193.096-.29-11.605-1.547-21.76-.677-24.371-.387 6.189.871 14.313 2.805 21.276 5.803l.291-.387Z" fill="#fff"/><path d="M142.553 172.545c-1.741 0-3.191-1.451-3.191-3.191 0-1.741 1.45-3.192 3.191-3.192 1.741 0 3.192 1.354 3.192 3.192-.097 1.837-1.451 3.191-3.192 3.191Zm0-5.706a2.6 2.6 0 0 0-2.611 2.611 2.601 2.601 0 0 0 2.611 2.612 2.601 2.601 0 0 0 2.612-2.612 2.601 2.601 0 0 0-2.612-2.611Zm-1.354.967h1.451c.87 0 1.161.484 1.161.871 0 .58-.387.967-.968.967.291.096.484.387.774.87l.387.677h-.677l-.29-.483c-.387-.774-.58-.871-.967-.871h-.29v1.451h-.581v-3.482Zm1.258 1.451c.386 0 .677-.194.677-.484s-.291-.483-.581-.483h-.87v1.064h.774v-.097Z" fill="#0039A6"/></svg>