<svg width="200" height="200" xmlns="http://www.w3.org/2000/svg"><g fill="none"><path d="M103.033 79.638L87.61 116.126v12.782l9.473-6.36c.046-.029 4.53-2.999 9.966-2.999h24v10.5c-8.071 9.651-19.581 15.156-31.884 15.156-23.387 0-42.413-19.939-42.413-44.451C56.753 76.24 75.78 56.3 99.166 56.3c15.947 0 31.278 9.442 39.257 23.328l-35.39.01zM99.166 50.24c-26.771 0-48.473 22.614-48.473 50.513 0 27.896 21.702 50.511 48.473 50.511 15.367 0 29.064-7.452 37.945-19.077V113.49H107.05c-7.523 0-13.38 4.052-13.38 4.052v-.188l13.38-31.66 40.728-.01c-6.79-20.538-26.875-35.444-48.612-35.444z" fill="#CBBEA9"/><path d="M178.759 100.754v78.081s-13.007-5.884-20.999-5.884c-10.036 0-27.904 11.735-58.594 11.735-51.42 0-93.108-32.847-93.108-83.932 0-50.748 41.688-83.933 93.108-83.933 52.044 0 74.974 37.918 74.974 37.918l-26.362 30.946 36.253-.008s-5.272 5.372-5.272 15.077zM160.9 79.622l20.685-24.28-2.261-3.737c-.259-.427-6.466-10.56-19.445-20.614-11.913-9.228-32.116-20.23-60.713-20.23-26.892 0-51.685 8.674-69.811 24.422C10.425 51.63 0 74.918 0 100.753c0 25.966 10.427 49.297 29.363 65.704 18.08 15.661 42.868 24.288 69.803 24.288 20.5 0 35.354-4.92 46.196-8.513 5.218-1.73 9.722-3.222 12.398-3.222 6.978 0 19.411 5.758 27.053 9.206l.004-87.462c0-6.91 3.457-10.737 3.603-10.898.123-.13 9.813-10.197 9.813-10.197l-37.333-.037z" fill="#CBBEA9"/><path fill="#0F2752" d="M187.75 172.733h2.021v6.102h.73v-6.102h2.132v-.731h-4.882v.731m10.539-.731l-1.754 5.559-1.754-5.56h-1.175v6.834h.733v-5.804l1.831 5.804h.732l1.83-5.804v5.804h.734v-6.833h-1.178M107.05 85.696l-13.38 31.66v.187s5.857-4.052 13.38-4.052h30.061v18.697c-8.88 11.625-22.578 19.077-37.945 19.077-26.771 0-48.473-22.615-48.473-50.511 0-27.899 21.702-50.513 48.473-50.513 21.737 0 41.823 14.906 48.612 35.444l26.362-30.946s-22.93-37.918-74.974-37.918c-51.42 0-93.108 33.185-93.108 83.933 0 51.085 41.688 83.932 93.108 83.932 30.69 0 48.558-11.735 58.594-11.735 7.992 0 20.999 5.884 20.999 5.884v-78.081c0-9.705 5.272-15.077 5.272-15.077l-36.253.008-40.728.01"/></g></svg>