<svg width="200" height="200" fill="none" xmlns="http://www.w3.org/2000/svg"><path d="M102.452 98.302v78.961h10.391v-52.69l25.54 27.15h4.683l25.613-27.15v52.69h10.392V98.302l-38.273 40.907-38.346-40.907Z" fill="#1A5632"/><path d="m171.46 76.275-30.662 32.711-30.663-32.711H60.666v10.099h44.713l35.492 37.687 35.273-37.687h13.465v90.889H200V76.275h-28.54Z" fill="#1A5632"/><path d="M62.861 138.478c-28.906 0-52.396-23.638-52.396-52.69 0-29.052 23.49-52.69 52.396-52.69 12.734 0 24.808 4.611 35.053 13.393l1.683 1.463 6.148-7.976-1.537-1.318C92.426 28.415 78.083 23 62.788 23 28.174 23 0 51.174 0 85.788s28.174 62.788 62.788 62.788c6.367 0 12.66-.951 18.661-2.854v31.468h10.392v-47.494l-3.294 1.903c-7.83 4.537-16.758 6.879-25.686 6.879Z" fill="#1A5632"/><path d="M60.666 106.059h21.222v6.513c-5.488 4.171-11.709 6.147-19.027 6.147-17.636 0-31.467-14.49-31.467-33.004 0-18.441 13.831-32.93 31.467-32.93 8.49 0 15.515 2.707 23.345 9l1.683 1.318 6.147-7.904-1.464-1.317c-8.489-7.318-18.734-11.123-29.637-11.123-23.125 0-41.86 19.319-41.86 43.03 0 23.709 18.808 43.029 41.86 43.029 9.952 0 20.27-3.952 28.32-10.831l.805-.658V96.033H60.666v10.026Z" fill="#1A5632"/><path d="m176.143 86.374-35.345 37.76-35.419-37.76H60.666v9.66h31.32v21.295l-.804.658c-8.05 6.879-18.368 10.831-28.32 10.831-23.125 0-41.86-19.32-41.86-43.03s18.808-43.03 41.86-43.03c10.903 0 21.148 3.88 29.637 11.124l1.464 1.317 5.635-7.245-1.684-1.463C87.67 37.709 75.521 33.099 62.861 33.099c-28.906 0-52.396 23.637-52.396 52.69 0 29.052 23.49 52.689 52.396 52.689 8.928 0 17.856-2.415 25.76-6.879l3.293-1.903v47.494h10.538V98.302l38.419 40.834 38.2-40.907v78.887h10.538V86.374h-13.466Z" fill="#FFC629"/><path d="M54.372 167.969h3.952v9.22h1.317v-9.22h4.025v-1.317h-9.294v1.317ZM70.252 174.701l-3.366-8.049h-1.902v10.537H66.3v-8.781l3.659 8.781h.585l3.66-8.781v8.781h1.316v-10.537H73.62l-3.367 8.049Z" fill="#1A5632"/></svg>