<svg width="200" height="200" xmlns="http://www.w3.org/2000/svg"><g fill="none"><path d="M103.431 39.167l-13.257 5.877c-7.218-7.734-17.906-10.906-30.335-8.87C36.48 40 12.637 60.396 3.146 84.67c-5.101 13.05-3.97 26.066 3.185 36.652 8.056 11.922 23.312 17.159 39.815 13.668 11.871-2.512 22.037-9.084 28.848-18.035l-11.197 49.67 3.694-1.91c24.748-12.806 33.615-17.394 36.876-19.153l23.502 23.328 72.067-78.527-102.048-.001 9.447-6.694H93.487l27.97-52.492-18.026 7.99zM50.218 77.422c7.07-9.232 16.592-14.206 23.692-12.377 4.695 1.21 7.834 5.697 8.837 12.638l.866 5.986H45.865a86.13 86.13 0 0 1 4.353-6.247zm-11.471 25.295c0-3.97 1.529-9.228 4.997-15.49 1.449 2.007 6.823 9.557 8.691 13.508-.15 5.252-3.733 7.693-5.301 8.5-2.673 1.374-5.104 1.155-6.035.25-1.493-1.454-2.352-3.744-2.352-6.768z" fill="#FFF"/><path d="M121.724 92.286s-6.194 6.862-8.32 9.256l3.992-9.256H91.843l9.445-6.694H90.272l26.849-50.387-12.9 5.718-14.513 6.432c-20.574-24.387-69.7-.495-84.757 38.012-5.063 12.95-3.572 25.18 2.987 34.885 7.607 11.256 22.093 16.182 37.804 12.86 16.597-3.512 29.488-14.847 34.26-29.577-1.838 8.16-13.406 59.475-13.406 59.475s38.16-19.744 38.175-19.764c.361.36 23.033 22.862 23.033 22.862l67.748-73.822h-73.828zm-73.7 18.656c-3.155 1.623-6.56 1.588-8.28-.084-4.644-4.519-5.091-16.294 8.933-34.6 7.536-9.84 17.873-15.095 25.719-13.073 5.5 1.416 9.146 6.467 10.268 14.225l1.184 8.182H44.945s7.406 10.12 9.449 14.76c0 .02.005.044.005.063 0 6.677-4.77 9.7-6.375 10.527z" fill="#0E2B58"/><path fill="#E7D393" d="M184.52 97.125h-10.578l-25.15 22.536 21.72-22.536h-19.149l2.572 6.93-22.438 22.782 13.576-29.712h-21.15l-26.628 29.968 13.194-29.968h-8.577l-10.808 22.528 8.211-22.528-19.366-.002 5.691 3.552-12.056 53.484 26.864-13.258 25.476-33.44 4.572-2.27-21.44 35.468 18.583 18.445 56.88-61.979"/><path fill="#FAF6E7" d="M90.848 101.626l-2.507-2.241 10.976-2.262-19.366-.001 5.69 3.553-12.055 53.483 5.006-2.472 12.256-50.06m54.227-4.503h-21.15l-26.629 29.968-2.788 6.93 31.144-34.009 19.423-2.889"/><path fill="#FAF6E7" d="M130.356 110.102l.141-4.911-21.439 35.467 3.07 3.047 18.228-33.603m29.42-7.48l-2.569-2.49 8.969-3.009h-14.813l2.572 6.931-22.437 22.782-2.097 5.639 30.375-29.853"/><path d="M89.636 55.493c-16.184-28.602-59.093-.738-70.673 33.316 1.93-15.92 14.847-30.37 23.607-37.15-20.934 6.633-46.475 42.39-30.586 65.897 15.145 22.408 59.148 11.117 64.64-20.43l9.448-6.696H54.436l4.56 6.695c2.673 16.365-15.238 24.412-22.662 17.189-6.224-6.058-7.573-20.052 8.464-40.985 16.034-20.932 41.125-21.229 44.69 3.393l16.72-31.382-15.657 6.941-.915 3.212" fill="#E7D393"/><path d="M62.484 93.002l10.943-2.572h-18.99l4.56 6.695c1.336 8.183-2.474 14.286-7.545 17.44 10.86-3.7 11.032-21.563 11.032-21.563m9.944-49.269C52.78 41.803 24.583 63.175 15.69 98.416 28.618 74.04 53.464 45.113 72.428 43.733" fill="#FAF6E7"/><path d="M139.513 164.143c.56 0 1.104.143 1.638.429.532.284.947.69 1.245 1.222.296.53.444 1.084.444 1.659a3.32 3.32 0 0 1-.438 1.643 3.084 3.084 0 0 1-1.231 1.225 3.374 3.374 0 0 1-3.316 0c-.53-.29-.94-.699-1.234-1.225a3.321 3.321 0 0 1-.442-1.643c0-.575.15-1.128.45-1.66a3.047 3.047 0 0 1 1.246-1.221 3.418 3.418 0 0 1 1.638-.429zm0 .548c-.469 0-.924.12-1.366.358a2.57 2.57 0 0 0-1.04 1.022 2.77 2.77 0 0 0-.375 1.382c0 .476.122.933.367 1.37a2.64 2.64 0 0 0 1.031 1.022 2.83 2.83 0 0 0 1.383.364c.479 0 .94-.12 1.382-.364.44-.245.784-.586 1.028-1.022.244-.437.366-.894.366-1.37 0-.48-.124-.94-.373-1.382a2.566 2.566 0 0 0-1.038-1.022 2.864 2.864 0 0 0-1.365-.358zm-1.466 4.597v-3.57h1.237c.422 0 .727.033.916.1a.88.88 0 0 1 .452.345.902.902 0 0 1 .168.522.95.95 0 0 1-.282.68c-.188.192-.438.3-.747.325.125.053.229.116.305.189.145.14.321.377.532.708l.439.701h-.704l-.323-.563c-.253-.443-.455-.719-.607-.831-.106-.084-.262-.125-.467-.123h-.343v1.517h-.576zm.576-2.007h.714c.341 0 .574-.05.699-.15a.49.49 0 0 0 .185-.398.486.486 0 0 0-.09-.287.536.536 0 0 0-.248-.187c-.107-.041-.305-.063-.59-.063h-.67v1.085z" fill="#0E2B58"/></g></svg>