<svg width="200" height="200" xmlns="http://www.w3.org/2000/svg" xmlns:xlink="http://www.w3.org/1999/xlink"><defs><path id="a" d="M0 0h190.753v173.273H0z"/></defs><g fill="none" fill-rule="evenodd"><g transform="translate(0 13)"><mask id="b" fill="#fff"><use xlink:href="#a"/></mask><path d="m99.101 66.309-14.845 35.13v12.303l9.12-6.12c.043-.03 4.36-2.888 9.595-2.888h23.105v10.106c-7.77 9.294-18.853 14.593-30.696 14.593-22.515 0-40.833-19.197-40.833-42.796 0-23.598 18.318-42.797 40.833-42.797 15.353 0 30.11 9.091 37.792 22.46l-34.07.009Zm-3.72-28.302c-25.775 0-46.667 21.772-46.667 48.63 0 26.857 20.892 48.63 46.666 48.63 14.795 0 27.978-7.175 36.529-18.366V98.9H102.97c-7.245 0-12.882 3.901-12.882 3.901v-.182L102.97 72.14l39.208-.009c-6.537-19.773-25.872-34.124-46.799-34.124Z" fill="#9AA2A2" mask="url(#b)"/><path d="M172.004 86.637v75.172s-12.522-5.667-20.215-5.667c-9.661 0-26.865 11.299-56.409 11.299-49.505 0-89.639-31.621-89.639-80.804 0-48.855 40.134-80.804 89.64-80.804 50.101 0 72.177 36.506 72.177 36.506l-25.379 29.792 34.903-.009s-5.078 5.173-5.078 14.515Zm18.749-20.309-35.941-.034 19.913-23.374-2.177-3.6c-.246-.41-6.224-10.166-18.718-19.845C142.36 10.59 122.908 0 95.38 0 69.49 0 45.62 8.35 28.17 23.51 9.945 39.349-.09 61.766-.09 86.638c0 24.998 10.038 47.46 28.268 63.255 17.406 15.077 41.27 23.381 67.202 23.381 19.736 0 34.035-4.736 44.474-8.194 5.022-1.666 9.358-3.103 11.935-3.103 6.717 0 18.687 5.543 26.045 8.862l.003-84.201c0-6.65 3.327-10.337 3.468-10.49l9.448-9.819Z" fill="#9AA2A2" mask="url(#b)"/></g><path d="m142.179 85.131-39.208.01-12.882 30.478v.182s5.637-3.901 12.882-3.901h28.938v18c-8.55 11.192-21.734 18.366-36.529 18.366-25.774 0-46.666-21.772-46.666-48.63 0-26.857 20.892-48.629 46.666-48.629 20.927 0 40.262 14.351 46.799 34.124l25.379-29.792S145.482 18.833 95.38 18.833c-49.505 0-89.639 31.949-89.639 80.804 0 49.183 40.134 80.804 89.64 80.804 29.543 0 46.747-11.3 56.408-11.3 7.693 0 20.215 5.668 20.215 5.668V99.637c0-9.342 5.078-14.515 5.078-14.515l-34.903.01M188.2 166.892h-3.06v7.917h-1.42v-7.917h-3.058v-1.419h7.538v1.419Zm11.8 7.917h-1.418v-7.917h-.044l-3.193 7.917h-.868l-3.105-7.917h-.043v7.917h-1.42v-9.336h2.327l2.685 6.588 2.773-6.588H200v9.336Z" fill="#141F35"/></g></svg>