<?xml version="1.0" encoding="UTF-8"?>
<svg width="200px" height="200px" viewBox="0 0 200 200" version="1.1" xmlns="http://www.w3.org/2000/svg" xmlns:xlink="http://www.w3.org/1999/xlink">
    <!-- Generator: Sketch 51.3 (57544) - http://www.bohemiancoding.com/sketch -->
    <title>georgia-st</title>
    <desc>Created with Sketch.</desc>
    <defs></defs>
    <g id="georgia-st" stroke="none" stroke-width="1" fill="none" fill-rule="evenodd">
        <g id="georgia-st_BGL" transform="translate(-1.015228, 18.274112)">
            <g id="georgia-st">
                <g id="g10" transform="translate(100.952849, 82.226191) scale(-1, 1) rotate(-180.000000) translate(-100.952849, -82.226191) translate(0.000000, 0.359553)" fill-rule="nonzero">
                    <g id="g12">
                        <path d="M194.735605,143.959827 C194.735605,143.959827 189.964418,143.954517 186.333,143.954517 C184.2354,143.954517 182.950969,143.955402 182.491689,143.959827 C164.713116,144.008284 157.253477,147.598468 147.806509,152.143836 L147.409575,152.334784 C137.264812,157.287274 124.637053,163.447185 100.248176,163.447185 L99.9690581,163.447185 L99.6744089,163.447185 C75.2839787,163.447185 62.6577726,157.287274 52.5132315,152.334784 L52.1145232,152.143836 C42.6693303,147.598468 35.2094694,144.008284 17.4084646,143.959827 C16.9707952,143.955402 15.6854768,143.954517 13.5872107,143.954517 C9.95834404,143.954517 5.18717926,143.959827 5.18717926,143.959827 L0,143.964916 L1.09637235,138.909762 C1.27231209,138.096406 5.49658311,119.40581 21.6778161,111.48289 C23.0376621,108.939935 25.1949468,105.742047 28.5081971,102.647046 C28.5550126,100.101657 28.6555217,95.5036283 28.8063963,92.6013454 C29.0715362,82.8718274 30.9974059,74.2313569 34.5292025,66.9169047 C38.5289322,57.584993 44.5889875,49.8235932 52.5391908,43.8528602 L52.5997625,43.8079442 C54.1659739,42.6281796 56.5329299,40.8476908 57.0285973,40.1217329 C57.8173608,38.8815639 58.634746,35.775942 59.3573909,33.0276568 C60.9271523,27.0812625 63.077337,18.9377004 68.7783996,12.2869211 C75.5351405,4.39584018 86.3022611,0.147795611 99.9153645,0.000864301497 L99.9612925,0.000864301497 L100.006333,0.000864301497 C113.619658,0.147795611 124.38567,4.39584018 131.141745,12.2843103 C136.844582,18.9377004 138.99388,27.0812625 140.565194,33.036286 C141.286286,35.775942 142.103671,38.8815639 142.89665,40.1277069 C143.388102,40.8476908 145.756833,42.6281796 147.322822,43.8079442 L147.379179,43.8513114 C155.333819,49.8235932 161.393653,57.584993 165.393604,66.9169047 C168.925179,74.2313569 170.849274,82.8718274 171.116189,92.6013454 C171.265288,95.5036283 171.365132,100.101657 171.412613,102.647046 C174.72786,105.742047 176.884257,108.939935 178.244791,111.48289 C194.426091,119.40581 198.648582,138.096406 198.826304,138.909762 L199.922807,143.964916 L194.735605,143.959827" id="path14" fill="#FFFFFF"></path>
                        <path d="M71.8646724,14.7734986 C66.7659988,20.7225038 64.833251,28.0517141 63.2783552,33.9394742 C62.3995108,37.2798542 61.5683693,40.4328261 60.4303755,42.2237141 C59.599234,43.5444221 57.3199184,45.253001 54.909475,47.0664576 C49.6876611,50.9876483 42.8226455,57.6325642 38.1528551,68.5529099 L38.1277833,68.6064551 C38.1191302,68.6135354 38.1173552,68.6263686 38.1173552,68.6307938 C35.1471227,74.7603924 33.0359879,82.5830815 32.7646355,92.800923 C32.5505267,96.8683673 32.4360395,104.622908 32.4360395,104.622908 C28.2898727,108.092947 25.8725512,111.871646 24.5102424,114.762865 C8.87497575,121.513102 4.87083075,139.98133 4.87083075,139.98133 C4.87083075,139.98133 15.6464713,139.970267 17.1701271,139.98133 C36.2314229,140.034212 44.4918066,144.140377 54.1919332,148.80589 C64.7622512,153.965701 76.5606439,159.579539 99.9612925,159.533738 C123.361275,159.579539 135.158781,153.965701 145.730652,148.80589 C155.430778,144.140377 163.690496,140.034212 182.751726,139.98133 C184.27445,139.970267 195.051776,139.98133 195.051776,139.98133 C195.051776,139.98133 191.047831,121.513102 175.412564,114.762865 C174.050034,111.871646 171.632047,108.092947 167.486546,104.622908 C167.486546,104.622908 167.372058,96.8683673 167.157284,92.800923 C166.886819,82.5830815 164.773909,74.7603924 161.805452,68.6307938 C161.805452,68.6263686 161.801014,68.6135354 161.795024,68.6064551 L161.769064,68.5529099 C157.099274,57.6325642 150.234924,50.9876483 145.01311,47.0664576 C142.602001,45.253001 140.322463,43.5444221 139.492209,42.2237141 C138.352663,40.4328261 137.523074,37.2798542 136.643342,33.9394742 C135.089334,28.0517141 133.156808,20.7225038 128.056138,14.7734986 C122.006732,7.71044334 112.338556,4.04753083 99.9612925,3.91355718 C87.5840294,4.04753083 77.9151871,7.71044334 71.8646724,14.7734986" id="path16" fill="#264391"></path>
                        <path d="M141.172021,67.6687502 C141.182227,67.6818046 142.746663,69.5917311 143.862913,72.3663464 C143.895085,72.4484343 143.923707,72.5287521 143.954104,72.61084 C132.400882,74.1855558 122.257894,73.3082552 119.586748,73.0274748 C125.781038,72.1329158 133.876125,70.2081648 140.833884,67.2625147 L141.172021,67.6687502 Z M130.134435,93.2157877 C131.007289,93.2140176 131.898336,93.1518432 132.796928,93.0221841 C130.695334,94.5822967 128.433102,96.1216108 126.121837,97.5467541 C123.751331,96.2857866 122.351525,94.3307228 121.441618,92.3920323 L120.804617,91.0602612 L122.197322,91.6238135 C124.442026,92.5303205 127.187721,93.2157877 130.134435,93.2157877 Z M144.595321,74.6393625 C145.086772,76.6574858 145.102304,78.5590044 144.636145,80.3290938 C134.164783,80.1569526 125.503695,78.2479111 123.781727,77.8416756 C125.939678,77.7507373 134.968191,77.2305522 144.595321,74.6393625 Z M143.609089,82.7620818 C142.885335,83.9219329 141.704963,85.3030452 140.183792,86.8027535 C133.672444,85.7871647 128.526733,83.8960454 126.448436,83.0523765 C129.317272,83.2720888 136.428568,83.6497817 143.609089,82.7620818 Z M90.7492895,16.5064383 C81.7476235,16.5064383 78.5635041,22.2367489 78.5635041,22.2367489 C75.7388212,26.6905153 74.3902686,32.0768975 73.1803875,36.8607856 C72.1333623,41.0032374 71.1497931,44.8753081 69.3989823,47.7552437 C67.8034835,50.4086078 65.0932878,52.5521862 61.8865372,55.0654919 C55.2735709,60.2339319 46.4948886,67.6842385 43.6477964,83.3895785 L46.4644918,83.3895785 C49.8376482,100.635781 58.8235612,112.710889 60.3021321,114.608868 C59.0784948,117.063539 58.7853988,119.975336 58.7758582,120.010074 C59.602784,119.7689 60.8603681,119.471525 62.0389649,119.215747 C65.8083889,121.28653 69.1467111,122.716099 71.8673349,123.696286 C72.3874085,126.862976 73.0721128,129.439562 73.6969111,131.160311 C74.6243461,133.705699 76.0092861,134.997864 76.6766842,135.541503 C79.3504926,137.720483 81.6002989,138.810195 81.6002989,138.810195 C80.4345709,134.740316 79.7993445,129.595109 79.4605423,125.645154 C80.9209195,123.23031 84.4172162,119.880415 86.4227389,118.055011 C87.7963632,119.231235 89.1970563,120.497513 90.227441,121.443847 C90.5369558,127.480958 90.7388614,135.662533 90.8324924,140.05324 C88.4402427,144.889788 85.7994937,149.129152 84.1345482,151.657283 C56.1124779,147.539833 54.1537708,132.146472 17.7785511,132.146472 C18.2664973,131.330682 19.1825945,129.951118 20.57104,128.450746 C22.7829503,126.05139 26.5217557,123.271907 31.2297084,122.079088 C31.239249,122.079088 31.5494294,120.299484 32.6406077,118.195733 C33.6816423,116.183805 35.4703937,113.602129 38.5074104,111.194144 C38.5074104,111.194144 38.5091854,111.196799 38.513401,111.198348 C39.3480925,112.59871 40.2624369,114.00571 41.1836593,115.360934 C38.7829784,117.500088 37.2957543,119.70053 36.379635,121.467964 C35.2920067,123.572601 34.9669607,125.348886 34.9669607,125.348886 C33.6625611,125.610638 29.9062277,126.496567 26.5963055,128.647005 C32.074828,127.979681 40.4756582,128.759405 52.7333309,133.929615 L52.7315559,133.92873 L52.7333309,133.92873 C52.7333309,133.92873 51.8527114,130.69013 49.8653825,127.4075 C54.0559242,128.147397 59.9979423,129.425623 64.8201604,132.39539 C60.0689421,125.399776 55.4453016,123.468829 53.7672656,121.47062 C51.7730585,119.142288 42.0478601,106.984871 40.3325492,100.018684 C36.2886665,62.8010042 61.7139189,55.2272339 67.1369728,46.4544492 C72.5478237,37.310167 70.7146974,15.9359827 90.0124447,10.9558802 C90.0124447,10.9558802 99.1268229,8.36039806 102.00764,20.931662 C102.00764,20.931662 97.4687556,16.5064383 90.7492895,16.5064383 Z M115.391991,95.1812508 C114.707287,97.4724103 113.61278,99.7394524 112.839548,100.109401 C111.60637,100.818986 107.758181,101.519941 104.722939,101.087818 C105.712721,102.70745 108.278254,104.015989 110.278452,104.625342 C108.90039,105.493128 107.279819,105.697131 106.044645,105.693812 C105.381684,105.64956 104.729151,105.588271 104.116334,105.516582 C105.166688,108.152688 108.772147,110.074784 110.772566,110.422385 C108.633475,111.817215 103.962132,113.136153 99.9612925,106.88464 C95.9693284,113.12155 91.3108536,111.824296 89.165772,110.432563 C91.2303132,110.136294 95.1512775,108.450726 95.8046976,105.516582 L95.8055851,105.516582 C95.6027919,105.551099 95.4024393,105.581411 95.2040836,105.611503 C94.0774055,105.749791 91.580431,105.866617 89.6044177,104.599454 C91.5318405,103.94784 93.9673558,102.561418 94.9640155,100.935812 C90.4943559,101.689427 86.1296428,99.6626748 84.7238466,98.3220533 L83.8190429,97.4724103 C81.1427939,102.380868 75.5628748,98.6652294 73.8140608,97.54078 C76.1774669,96.2798125 77.5710599,94.3271826 78.4803012,92.3920323 L79.1190776,91.0593762 L78.644932,91.2503246 C76.5985845,92.0110205 68.2410198,94.430069 59.9884017,87.0153855 C63.2870083,86.1863199 67.5390092,84.8658331 70.584679,83.2081444 C63.5911981,83.9073297 55.6314542,81.3887136 55.6314542,81.3887136 C55.6314542,81.3887136 66.7790894,80.6202736 73.3330371,77.6558162 C62.9160343,77.4655316 55.5926262,73.7127207 55.5926262,73.7127207 C55.5926262,73.7127207 60.9462335,74.1275854 64.4008178,74.1275854 C68.1032358,74.1275854 72.9281164,73.7302003 77.5096007,72.5415852 C68.2845072,71.4828505 59.8601583,66.4111016 59.8601583,66.4111016 C59.8601583,66.4111016 74.8939235,67.749068 85.9954088,68.1528697 C86.0994679,68.1570736 83.8190429,70.5166029 82.5208558,74.5442202 C86.9166313,72.1484041 91.6749495,70.603116 95.8756974,70.4544285 C94.3753828,71.6056504 92.7843215,73.1830214 91.2067945,74.9314273 C91.0690105,75.1060023 90.9216859,75.2659742 90.9079297,75.5969809 C90.932114,76.2063342 91.5560248,76.3333381 91.7736836,76.3333381 C91.9782518,76.3333381 92.1655138,76.2970513 92.368307,76.236647 C92.5648877,76.1804467 92.7426091,76.1545591 92.9021368,76.1545591 C93.1135831,76.1545591 93.2764389,76.201909 93.4142229,76.285767 C93.6751472,76.454368 93.8779404,76.8389199 93.8779404,77.4940743 C93.8865935,78.4058916 93.4481697,79.7170854 92.599722,80.9512803 C91.4581782,82.6375118 89.8513639,83.6393824 88.9967037,83.6064145 C88.7715012,83.6004404 88.6155235,83.5572945 88.476852,83.4621522 C88.2183683,83.3021804 88.0235626,82.9306828 88.0155751,82.2969908 C87.9922783,81.7560072 87.9004223,81.0169949 87.0075998,80.9045942 C86.4919637,80.9340219 86.2190582,81.236486 85.9616839,81.5969204 C83.6007185,85.0335491 81.9262324,87.9314068 81.8698763,89.4707209 C81.8725388,89.686008 81.8942825,89.9409009 82.0762195,90.1648172 C82.58764,90.8321409 83.4134565,90.9478605 84.3435539,90.9677741 C88.793023,90.9383463 98.3762218,87.1795613 99.9648425,86.5562686 C101.552576,87.1795613 111.129562,90.9314872 115.575703,90.9615787 C115.91628,90.9564897 116.230011,90.9383463 116.527322,90.88812 C116.284814,91.9807077 115.890321,93.5925955 115.391991,95.1812508 Z M115.790699,151.658168 C114.123979,149.130038 111.48323,144.889788 109.091202,140.05324 C109.183945,135.662533 109.385851,127.480958 109.695144,121.443847 C110.726638,120.497513 112.126222,119.231235 113.500068,118.055011 C115.532437,119.903648 119.094631,123.318593 120.518621,125.739412 C120.518621,125.739412 129.319934,124.650364 141.501282,117.100711 C140.461135,119.950334 138.77733,123.656459 138.355103,124.575135 C136.831492,125.386721 134.513126,126.708314 132.240689,128.346975 C128.303306,131.185313 129.52783,136.735871 129.52783,136.735871 C135.57302,132.828399 144.482608,129.392876 149.849306,127.757535 C148.007527,130.917587 147.188588,133.92873 147.188588,133.92873 C159.446261,128.757635 175.644867,126.474884 182.145121,132.145587 C145.769702,132.145587 143.808332,147.538948 115.790699,151.658168 Z M111.78387,81.3592859 C112.003303,82.3350477 111.881938,83.1258352 111.380946,83.4594971 C110.469264,84.0670803 108.650781,82.9503751 107.318647,80.9661048 C105.98141,78.9807282 105.637283,76.8778619 106.549187,76.2711637 C106.852489,76.068046 107.255413,76.0567617 107.706262,76.2063342 C107.844933,76.2512502 108.135145,76.3853345 108.425579,76.7353697 C109.459513,77.9695646 110.466601,79.2659339 111.400914,80.5536739 C111.669604,80.9218525 111.753695,81.2167937 111.78387,81.3592859 Z M92.7166498,57.2929283 L96.1816622,53.0059928 C96.1816622,53.0059928 98.11441,55.4068979 99.9648425,57.8372308 C101.806622,55.4068979 103.749576,53.0059928 103.749576,53.0059928 L107.21481,57.2929283 C108.538291,55.061288 109.777459,53.0059928 109.777459,53.0059928 C111.78387,55.4562392 112.637642,58.5357523 113.001738,60.4804169 C108.887521,60.6445927 104.493299,60.7525681 99.9648425,60.7525681 C95.4328361,60.7525681 91.0403888,60.6445927 86.9252844,60.4804169 C87.2911552,58.5357523 88.1473685,55.4562392 90.1504506,53.0059928 C90.1504506,53.0059928 91.391394,55.061288 92.7166498,57.2929283 Z M117.96174,44.0931499 C123.393447,48.7967201 125.100771,56.2253431 125.616407,59.7456085 C122.574287,59.9677547 119.183824,60.190786 115.547969,60.3653611 C117.784019,54.6074813 117.025652,45.3636316 117.040518,44.5252729 C117.056049,43.5833641 117.420145,43.6196509 117.96174,44.0931499 Z M74.3046251,59.7456085 C74.8322424,56.2253431 76.5362378,48.7967201 81.9652823,44.0931499 C82.5146433,43.6196509 82.8700861,43.5833641 82.8865048,44.5252729 C82.9004829,45.3636316 82.1438912,54.6074813 84.3799413,60.3653611 C80.7423106,60.190786 77.355398,59.9677547 74.3046251,59.7456085 Z M87.9410253,28.9177303 C88.1864184,29.1104488 88.4378021,29.2980783 88.706492,29.4735384 C89.8695576,30.2444124 91.1790602,30.6291856 92.5988345,30.6291856 C94.0592118,30.6291856 95.3886831,30.2384383 96.5517487,29.8841992 C97.7010581,29.538368 98.7931238,29.2159904 99.9612925,29.2159904 C101.123692,29.2159904 102.213983,29.538368 103.366621,29.8841992 C104.534124,30.2384383 105.85827,30.6291856 107.323085,30.6291856 C108.740197,30.6291856 110.050587,30.2444124 111.210102,29.4735384 C111.48323,29.2980783 111.736388,29.1104488 111.98156,28.9177303 C116.956427,35.642079 113.039013,46.0940147 112.804936,43.6497424 C112.380268,39.2444323 110.648538,36.5322127 109.040836,34.9446637 C107.827405,36.2990034 106.44069,37.4873972 106.44069,37.4873972 C106.44069,37.4873972 104.501952,35.3785569 103.203765,33.6628977 C101.910459,35.3809908 99.9612925,37.4873972 99.9612925,37.4873972 C99.9612925,37.4873972 98.0252165,35.8235131 96.7276951,34.1726834 C95.4337236,35.8279384 93.4827821,37.4873972 93.4827821,37.4873972 C93.4827821,37.4873972 92.1005046,36.2990034 90.886186,34.9333794 C89.2749342,36.5262387 87.5381014,39.2315991 87.1160963,43.6497424 C86.8802439,46.0940147 82.9705952,35.642079 87.9410253,28.9177303 Z M76.647175,108.147377 C76.6644812,108.134544 76.6602655,108.061086 76.6602655,108.052456 C76.6602655,107.945145 76.6343062,107.807741 76.521594,107.70397 C76.4166475,107.595109 76.274426,107.565682 76.1921106,107.571877 C75.9651331,107.580506 75.8810427,107.659054 75.8559709,107.668568 C73.6545331,109.197483 72.4178053,112.075648 71.8369381,114.155282 C69.9190558,114.046422 67.7366993,113.748162 65.4121213,113.200983 C67.288513,112.071444 70.6159633,109.732492 73.0390536,106.111111 C75.0871761,106.431054 77.3181231,106.524205 79.1632306,106.524205 C79.7889164,106.524205 80.3609086,106.510487 80.8714415,106.492344 C80.9018383,106.500088 80.9382257,106.500088 80.9686225,106.492344 C82.1048413,106.510487 82.7158834,107.148383 82.7305271,107.927001 C82.7305271,108.169946 82.6628554,108.437893 82.5155308,108.719559 C81.4696149,110.703165 80.2058184,112.507772 78.68731,113.406756 C78.4448013,113.551018 78.0416555,113.703246 77.5182538,113.829365 C76.7807433,112.504453 76.5606439,110.864907 76.5606439,109.575176 C76.5606439,109.01273 76.5970313,108.522636 76.647175,108.147377 Z M123.361275,109.575176 C123.361275,110.864907 123.142064,112.504453 122.403666,113.829365 C121.880929,113.703246 121.476231,113.551018 121.235275,113.406756 C119.714326,112.507772 118.451417,110.703165 117.404392,108.719559 C117.257067,108.437893 117.192058,108.169946 117.192058,107.927001 C117.205149,107.148383 117.816191,106.510487 118.951522,106.492344 C118.984581,106.500088 119.019194,106.500088 119.04959,106.492344 C119.560789,106.510487 120.132781,106.524205 120.758689,106.524205 C122.602909,106.524205 124.834743,106.431054 126.881756,106.111111 C129.306844,109.732492 132.632297,112.071444 134.508689,113.200983 C132.186108,113.748162 130.001976,114.046422 128.084759,114.155282 C127.504114,112.075648 126.266499,109.197483 124.065061,107.668568 C124.041764,107.659054 123.956786,107.580506 123.729587,107.571877 C123.647272,107.565682 123.505938,107.595109 123.400325,107.70397 C123.287613,107.807741 123.261654,107.945145 123.261654,108.052456 C123.261654,108.061086 123.257216,108.134544 123.274523,108.147377 C123.324001,108.522636 123.361275,109.01273 123.361275,109.575176 Z M141.793269,111.468065 L146.742177,109.771434 C145.696039,109.368739 137.80907,106.107792 132.431279,99.0913784 C130.429306,100.220917 128.177503,101.048876 126.500576,101.578797 C127.674957,101.617739 129.022622,101.617739 130.3339,101.519941 L130.732608,101.494054 L130.936289,101.827715 C134.201171,107.176041 140.188229,110.615988 141.793269,111.468065 Z" id="path18" fill="#FFFFFF"></path>
                        <path d="M140.679681,9.98958841 L141.736913,9.98958841 L141.736913,14.3802511 L143.457327,14.3802511 L143.457327,15.2557816 L138.953277,15.2557816 L138.953277,14.3802511 L140.679681,14.3802511 L140.679681,9.98958841 Z M145.325065,14.2419628 L146.801196,9.98958841 L147.641878,9.98958841 L149.108246,14.2419628 L149.108246,9.98958841 L150.074731,9.98958841 L150.074731,15.2557816 L148.570866,15.2557816 L147.223201,11.4874381 L145.869323,15.2557816 L144.358802,15.2557816 L144.358802,9.98958841 L145.325065,9.98958841 L145.325065,14.2419628 Z" id="path20" fill="#264391"></path>
                    </g>
                </g>
            </g>
        </g>
    </g>
</svg>