<svg width="200" height="200" xmlns="http://www.w3.org/2000/svg"><g fill="none"><path d="M178.575 148.7c.895 0 1.683.069 1.683 1.011 0 1.014-1.381.847-2.392.847h-1.149V148.7h1.858zm.774 2.931c.993-.03 1.989-.57 1.989-2.036 0-1.568-1.215-1.972-2.56-1.972h-3.136v7.451h1.075v-3.443h1.385l1.905 3.443h1.23l-1.888-3.443zm-1.146 6.29c3.706 0 6.64-2.933 6.64-6.625 0-3.69-2.934-6.622-6.64-6.622-3.71 0-6.643 2.931-6.643 6.622 0 3.692 2.934 6.626 6.643 6.626zm0-12.173c3.034 0 5.564 2.417 5.564 5.548 0 3.123-2.53 5.546-5.564 5.546-3.035 0-5.562-2.423-5.562-5.546 0-3.131 2.527-5.548 5.562-5.548z" fill="#FFF"/><path d="M99.907 160.312c-16.679 0-33.148-2.74-47.628-7.912-13.903-4.968-25.728-12.07-34.189-20.531-9.259-9.255-14.15-19.807-14.15-30.51 0-10.696 4.891-21.249 14.15-30.506 8.46-8.46 20.286-15.563 34.189-20.529 14.48-5.174 30.949-7.911 47.628-7.911 16.58 0 32.924 2.71 47.248 7.828 13.742 4.914 25.443 11.952 33.834 20.345 9.311 9.315 14.232 19.954 14.232 30.773 0 32.508-42.76 58.953-95.314 58.953zm83.869-92.516c-18.368-18.36-49.719-29.32-83.87-29.32-26.426 0-51.39 6.512-70.295 18.345-9.22 5.77-16.477 12.482-21.57 19.954C2.702 84.588 0 92.867 0 101.359c0 11.77 5.291 23.286 15.307 33.298 8.869 8.869 21.196 16.29 35.653 21.452 14.892 5.321 31.828 8.133 48.947 8.133 34.15 0 65.5-10.956 83.869-29.316 10.062-10.068 15.387-21.674 15.387-33.567s-5.325-23.492-15.387-33.563z" fill="#EE2722"/><path d="M97.352 156.27c-54.33 0-87.98-29.609-87.98-56.146 0-26.543 37.64-53.763 91.959-53.763 39.292 0 72.795 17.462 82.87 36.435h-44.126s-16.445-17.322-39.803-17.322c-23.364 0-46.722 15.399-46.722 33.45 0 18.052 17.52 35.577 43.533 35.577 26.02 0 38.544-9.87 44.41-22.191H81.951V95.413h107.732c5.101 34.024-38.005 60.858-92.33 60.858zm83.637-85.684c-8.391-8.393-20.092-15.431-33.834-20.345-14.324-5.118-30.668-7.828-47.248-7.828-16.679 0-33.148 2.737-47.628 7.911C38.376 55.29 26.55 62.394 18.09 70.853 8.831 80.11 3.94 90.663 3.94 101.359c0 10.703 4.891 21.255 14.15 30.51 8.46 8.462 20.286 15.563 34.189 20.531 14.48 5.172 30.949 7.912 47.628 7.912 52.555 0 95.314-26.445 95.314-58.953 0-10.819-4.92-21.458-14.232-30.773z" fill="#FFF"/><path d="M189.683 95.413H81.95v16.897h59.542c-5.866 12.32-18.39 22.191-44.41 22.191-26.014 0-43.533-17.525-43.533-35.577 0-18.051 23.358-33.45 46.722-33.45 23.358 0 39.803 17.322 39.803 17.322H184.2c-10.074-18.973-43.577-36.435-82.869-36.435-54.32 0-91.96 27.22-91.96 53.763 0 26.537 33.65 56.147 87.981 56.147 54.326 0 97.432-26.834 92.33-60.858" fill="#231F20"/></g></svg>