<svg width="200" height="200" xmlns="http://www.w3.org/2000/svg"><g fill="none"><path d="M193.72 38.407s-4.77.005-8.402.005c-2.098 0-3.382 0-3.842-.005-17.778-.048-25.238-3.639-34.685-8.184l-.397-.19C136.25 25.08 123.622 18.92 99.233 18.92h-.574c-24.39 0-37.016 6.16-47.161 11.112l-.399.191c-9.445 4.545-16.905 8.136-34.706 8.184-.437.005-1.723.005-3.821.005-3.629 0-8.4-.005-8.4-.005l-5.187-.005L.08 43.457c.176.814 4.4 19.504 20.582 27.427 1.36 2.543 3.517 5.74 6.83 8.836.047 2.545.147 7.143.298 10.046.265 9.73 2.191 18.37 5.723 25.684 4 9.332 10.06 17.093 18.01 23.064l.06.045c1.567 1.18 3.934 2.96 4.43 3.686.788 1.24 1.606 4.346 2.328 7.094 1.57 5.947 3.72 14.09 9.421 20.741 6.757 7.891 17.524 12.14 31.137 12.286h.091c13.613-.147 24.38-4.395 31.136-12.283 5.702-6.654 7.852-14.797 9.423-20.752.721-2.74 1.538-5.846 2.331-7.092.492-.72 2.86-2.5 4.427-3.68l.056-.043c7.955-5.973 14.014-13.734 18.014-23.066 3.532-7.314 5.456-15.955 5.723-25.684.15-2.903.249-7.5.296-10.046 3.316-3.095 5.472-6.293 6.833-8.836 16.18-7.923 20.403-26.613 20.581-27.427l1.097-5.055-5.188.005" fill="#FFF"/><path d="M70.85 167.593c-5.1-5.949-7.032-13.278-8.587-19.166-.879-3.34-1.71-6.493-2.848-8.284-.831-1.32-3.11-3.03-5.52-4.843-5.223-3.92-12.088-10.566-16.757-21.486l-.025-.054c-.01-.007-.01-.02-.01-.024-2.971-6.13-5.082-13.952-5.354-24.17-.214-4.067-.328-11.822-.328-11.822-4.146-3.47-6.564-7.249-7.926-10.14-15.635-6.75-19.64-25.218-19.64-25.218s10.776.01 12.3 0c19.061-.053 27.322-4.16 37.022-8.825 10.57-5.16 22.368-10.774 45.77-10.728 23.399-.046 35.197 5.568 45.768 10.728 9.7 4.666 17.96 8.772 37.021 8.825 1.523.01 12.3 0 12.3 0s-4.003 18.468-19.639 25.218c-1.362 2.891-3.78 6.67-7.926 10.14 0 0-.114 7.755-.329 11.822-.27 10.218-2.383 18.04-5.352 24.17a.052.052 0 0 1-.01.024l-.026.054c-4.67 10.92-11.534 17.565-16.756 21.486-2.411 1.814-4.69 3.523-5.521 4.843-1.14 1.791-1.97 4.944-2.849 8.284-1.554 5.888-3.486 13.217-8.587 19.166-6.05 7.063-15.718 10.726-28.095 10.86-12.377-.134-22.046-3.797-28.097-10.86" fill="#264391"/><path d="M140.157 114.698c.01-.013 1.574-1.923 2.69-4.697.033-.082.061-.163.092-.245-11.553-1.575-21.696-.697-24.367-.417 6.194.895 14.289 2.82 21.247 5.765l.338-.406zm-11.038-25.547c.873.002 1.764.064 2.663.194a94.54 94.54 0 0 0-6.675-4.525c-2.37 1.261-3.77 3.216-4.68 5.155l-.638 1.332 1.393-.564c2.245-.906 4.99-1.592 7.937-1.592zm14.461 18.577c.492-2.019.507-3.92.04-5.69-10.47.172-19.132 2.081-20.854 2.487 2.158.091 11.187.611 20.814 3.203zm-.986-8.123c-.724-1.16-1.904-2.541-3.425-4.04-6.512 1.015-11.657 2.906-13.736 3.75 2.869-.22 9.98-.598 17.16.29zm-52.86 66.256c-9.002 0-12.186-5.73-12.186-5.73-2.824-4.455-4.173-9.841-5.383-14.625-1.047-4.142-2.03-8.014-3.781-10.894-1.596-2.654-4.306-4.797-7.513-7.31-6.613-5.169-15.391-12.62-18.238-28.325h2.816c3.373-17.246 12.36-29.32 13.838-31.219-1.224-2.455-1.517-5.366-1.526-5.401.827.241 2.084.538 3.263.794 3.77-2.07 7.107-3.5 9.828-4.48.52-3.167 1.205-5.744 1.83-7.464.927-2.546 2.312-3.838 2.98-4.382 2.673-2.179 4.923-3.268 4.923-3.268-1.166 4.07-1.8 9.215-2.14 13.165 1.46 2.415 4.957 5.765 6.963 7.59a152.269 152.269 0 0 0 3.804-3.389c.31-6.037.512-14.219.605-18.61-2.392-4.836-5.033-9.075-6.698-11.603-28.022 4.117-29.98 19.51-66.356 19.51a22.725 22.725 0 0 0 2.793 3.696c2.212 2.4 5.95 5.179 10.658 6.372.01 0 .32 1.78 1.411 3.883 1.041 2.012 2.83 4.594 5.867 7.002 0 0 .002-.003.006-.004a83.887 83.887 0 0 1 2.67-4.163c-2.4-2.14-3.887-4.34-4.804-6.107-1.087-2.105-1.412-3.88-1.412-3.88-1.305-.263-5.061-1.149-8.37-3.3 5.478.668 13.878-.111 26.136-5.282l-.002.001h.002s-.88 3.239-2.868 6.521c4.19-.74 10.133-2.018 14.955-4.987-4.751 6.995-9.375 8.926-11.053 10.924-1.994 2.329-11.72 14.486-13.435 21.452-4.044 37.218 21.382 44.792 26.805 53.564 5.41 9.145 3.577 30.519 22.875 35.5 0 0 9.115 2.595 11.995-9.977 0 0-4.538 4.426-11.258 4.426zm24.643-78.675c-.685-2.291-1.78-4.559-2.553-4.928-1.233-.71-5.081-1.411-8.116-.979.99-1.62 3.555-2.928 5.555-3.537-1.378-.868-2.998-1.072-4.234-1.069-.663.044-1.315.106-1.928.177 1.05-2.636 4.656-4.558 6.656-4.905-2.139-1.395-6.81-2.714-10.81 3.537-3.993-6.237-8.651-4.94-10.796-3.548 2.064.297 5.985 1.982 6.638 4.916h.001c-.202-.034-.403-.064-.601-.095-1.127-.138-3.624-.255-5.6 1.012 1.928.652 4.363 2.039 5.36 3.664-4.47-.753-8.835 1.273-10.24 2.614l-.905.85c-2.676-4.909-8.256-1.193-10.005-.069 2.363 1.261 3.757 3.214 4.666 5.149l.639 1.333-.474-.191c-2.047-.761-10.404-3.18-18.657 4.235 3.299.829 7.55 2.15 10.596 3.807-6.993-.7-14.953 1.82-14.953 1.82s11.148.768 17.702 3.732c-10.417.19-17.74 3.943-17.74 3.943s5.353-.415 8.808-.415c3.702 0 8.527.398 13.108 1.586-9.225 1.06-17.65 6.13-17.65 6.13s15.035-1.337 26.136-1.74c.104-.005-2.176-2.365-3.474-6.392 4.395 2.396 9.154 3.94 13.354 4.09-1.5-1.152-3.09-2.73-4.668-4.477-.138-.175-.286-.335-.3-.666.025-.61.649-.736.866-.736.205 0 .392.036.595.096.197.056.374.082.534.082a.95.95 0 0 0 .512-.13c.26-.17.464-.554.464-1.21.008-.911-.43-2.222-1.279-3.456-1.141-1.687-2.748-2.688-3.603-2.655-.225.006-.38.049-.52.144-.258.16-.453.531-.46 1.165-.024.54-.116 1.28-1.009 1.392-.515-.03-.788-.332-1.046-.692-2.36-3.437-4.035-6.334-4.091-7.874.002-.215.024-.47.206-.694.511-.667 1.337-.783 2.267-.803 4.45.03 14.033 3.788 15.622 4.412 1.587-.624 11.164-4.376 15.61-4.406.341.005.655.024.952.074a54.114 54.114 0 0 0-1.135-4.293zm.398-56.477c-1.666 2.528-4.307 6.768-6.699 11.605.093 4.39.295 12.572.604 18.61 1.031.945 2.431 2.212 3.805 3.388 2.032-1.849 5.594-5.264 7.018-7.684 0 0 8.802 1.089 20.983 8.638-1.04-2.85-2.724-6.556-3.146-7.474-1.524-.812-3.842-2.133-6.115-3.772-3.937-2.838-2.712-8.389-2.712-8.389 6.045 3.908 14.954 7.343 20.321 8.978-1.842-3.16-2.66-6.17-2.66-6.17 12.257 5.17 28.456 7.453 34.956 1.782-36.376 0-38.337-15.393-66.355-19.512zm-4.006 70.299c.22-.976.098-1.767-.403-2.1-.912-.608-2.73.509-4.063 2.493-1.337 1.985-1.68 4.088-.769 4.695.303.203.706.214 1.157.065.139-.045.429-.18.72-.53a70.076 70.076 0 0 0 2.975-3.818 2.14 2.14 0 0 0 .383-.805zM91.7 125.074l3.465 4.287s1.933-2.401 3.784-4.831a221.131 221.131 0 0 0 3.784 4.83l3.466-4.286a778.75 778.75 0 0 0 2.562 4.287c2.007-2.45 2.86-5.53 3.225-7.474a327.876 327.876 0 0 0-13.037-.273c-4.532 0-8.925.108-13.04.273.366 1.944 1.222 5.024 3.225 7.474 0 0 1.241-2.055 2.566-4.287zm25.246 13.2c5.431-4.704 7.139-12.132 7.654-15.653a403.236 403.236 0 0 0-10.068-.62c2.236 5.758 1.477 15.002 1.492 15.84.016.943.38.906.922.433zM73.289 122.62c.528 3.52 2.232 10.95 7.661 15.653.55.473.905.51.921-.432.014-.839-.742-10.083 1.494-15.84-3.638.174-7.025.397-10.076.62zm13.637 30.828c.245-.193.497-.38.765-.556 1.163-.77 2.473-1.155 3.893-1.155 1.46 0 2.79.39 3.953.745 1.149.346 2.24.668 3.41.668 1.161 0 2.252-.322 3.404-.668 1.168-.354 2.492-.745 3.957-.745 1.417 0 2.727.385 3.887 1.155.273.176.526.363.771.556 4.975-6.724 1.058-17.176.824-14.732-.425 4.406-2.157 7.118-3.764 8.705a31.652 31.652 0 0 0-2.6-2.542s-1.94 2.108-3.237 3.824c-1.294-1.718-3.243-3.824-3.243-3.824s-1.936 1.663-3.234 3.314c-1.294-1.655-3.244-3.314-3.244-3.314s-1.383 1.188-2.597 2.554c-1.611-1.593-3.348-4.299-3.77-8.717-.236-2.444-4.146 8.008.825 14.732zM75.632 74.22c.017.013.013.087.013.095a.46.46 0 0 1-.139.349.438.438 0 0 1-.33.132c-.226-.009-.31-.087-.335-.097-2.202-1.529-3.438-4.407-4.02-6.486-1.917.109-4.1.407-6.424.954 1.876 1.13 5.204 3.468 7.627 7.09 2.048-.32 4.279-.413 6.124-.413.626 0 1.198.013 1.708.032a.206.206 0 0 1 .097 0c1.137-.019 1.748-.656 1.762-1.435 0-.243-.067-.511-.215-.793-1.046-1.983-2.31-3.788-3.828-4.687-.242-.144-.646-.296-1.169-.422-.737 1.324-.958 2.964-.958 4.254 0 .562.037 1.052.087 1.428zm46.714-1.427c0-1.29-.22-2.93-.958-4.254-.522.126-.927.278-1.168.422-1.52.9-2.784 2.704-3.83 4.687a1.71 1.71 0 0 0-.213.793c.013.779.624 1.416 1.76 1.435a.21.21 0 0 1 .097 0 47.916 47.916 0 0 1 1.71-.032c1.844 0 4.076.093 6.123.413 2.425-3.622 5.75-5.96 7.626-7.09a37.554 37.554 0 0 0-6.423-.954c-.581 2.08-1.819 4.957-4.02 6.486-.023.01-.108.088-.336.097a.439.439 0 0 1-.329-.132.46.46 0 0 1-.139-.349c0-.008-.004-.082.013-.094.05-.376.087-.866.087-1.428zm18.432-1.893l4.949 1.697c-1.046.402-8.933 3.663-14.31 10.68-2.003-1.13-4.255-1.958-5.932-2.488a36.391 36.391 0 0 1 3.834.059l.398.026.204-.334c3.265-5.348 9.252-8.788 10.857-9.64z" fill="#FFF"/><path d="M139.664 172.377h1.058v-4.39h1.72v-.876h-4.504v.876h1.726v4.39zm4.646-4.252l1.476 4.252h.84l1.467-4.252v4.252h.967v-5.266h-1.504l-1.348 3.769-1.354-3.769h-1.51v5.266h.966v-4.252z" fill="#264391"/></g></svg>