<svg width="200" height="200" xmlns="http://www.w3.org/2000/svg"><g fill-rule="nonzero" fill="none"><path d="M103.431 38.38 90.174 44.3c-7.218-7.79-17.906-10.984-30.335-8.934C36.48 39.22 12.637 59.762 3.146 84.21c-5.101 13.143-3.97 26.252 3.185 36.914 8.056 12.007 23.312 17.281 39.815 13.765 11.871-2.53 22.037-9.149 28.848-18.164l-11.197 50.026 3.694-1.925c24.748-12.897 33.615-17.517 36.876-19.289l23.502 23.494 72.067-79.088H97.888l9.447-6.742H93.487l27.97-52.867-18.026 8.046ZM50.218 76.91c7.07-9.298 16.592-14.307 23.692-12.465 4.695 1.218 7.834 5.737 8.837 12.728l.866 6.029H45.865a86.761 86.761 0 0 1 4.353-6.292Zm-11.471 25.476c0-4 1.529-9.294 4.997-15.602 1.449 2.023 6.823 9.626 8.691 13.606-.15 5.29-3.733 7.747-5.301 8.56-2.673 1.384-5.104 1.164-6.035.252-1.493-1.464-2.352-3.77-2.352-6.816Z" fill="#FFF"/><path d="M121.724 91.88s-6.194 6.91-8.32 9.32c.077-.177 3.992-9.32 3.992-9.32l-25.553-.002 9.445-6.741H90.272c1.762-3.328 26.849-50.747 26.849-50.747l-12.9 5.759-14.513 6.479c-20.574-24.562-69.7-.5-84.757 38.283-5.063 13.042-3.572 25.36 2.987 35.134 7.607 11.337 22.093 16.298 37.804 12.95 16.597-3.536 29.488-14.951 34.26-29.787-1.838 8.218-13.406 59.9-13.406 59.9s38.16-19.885 38.175-19.905c.361.363 23.033 23.025 23.033 23.025l67.748-74.348h-73.828Zm-73.7 18.788c-3.155 1.635-6.56 1.6-8.28-.084-4.644-4.552-5.091-16.41 8.933-34.848 7.536-9.91 17.873-15.202 25.719-13.166 5.5 1.426 9.146 6.513 10.268 14.326l1.184 8.24H44.945s7.406 10.193 9.449 14.867c0 .02.005.044.005.063 0 6.725-4.77 9.77-6.375 10.602Z" fill="#0E2B58"/><path fill="#E7D393" d="M184.52 96.753h-10.578l-25.15 22.697 21.72-22.697h-19.149l2.572 6.98-22.438 22.944 13.576-29.924h-21.15l-26.628 30.182 13.194-30.182h-8.577L91.104 119.44l8.211-22.688-19.366-.002 5.691 3.577-12.056 53.866 26.864-13.353 25.476-33.678 4.572-2.286-21.44 35.72 18.583 18.577 56.88-62.421"/><path fill="#FAF6E7" d="m90.848 101.285-2.507-2.257 10.976-2.277-19.366-.002 5.69 3.579-12.055 53.865 5.006-2.49 12.256-50.418M145.075 96.75h-21.15l-26.629 30.183-2.788 6.979 31.144-34.252 19.423-2.91"/><path fill="#FAF6E7" d="m130.356 109.822.141-4.946-21.439 35.72 3.07 3.07 18.228-33.844M159.776 102.288l-2.569-2.507 8.969-3.03h-14.813l2.572 6.98-22.437 22.945-2.097 5.68 30.375-30.068"/><path d="M89.636 54.823c-16.184-28.806-59.093-.743-70.673 33.554C20.893 72.343 33.81 57.79 42.57 50.962c-20.934 6.68-46.475 42.692-30.586 66.367 15.145 22.569 59.148 11.197 64.64-20.576l9.448-6.743H54.436l4.56 6.743c2.673 16.482-15.238 24.586-22.662 17.311-6.224-6.1-7.573-20.195 8.464-41.277 16.034-21.082 41.125-21.38 44.69 3.417l16.72-31.606-15.657 6.99-.915 3.235" fill="#E7D393"/><path d="m62.484 92.6 10.943-2.59h-18.99l4.56 6.743c1.336 8.241-2.474 14.387-7.545 17.564C62.312 110.591 62.484 92.6 62.484 92.6M72.428 42.98C52.78 41.035 24.583 62.56 15.69 98.053 28.618 73.501 53.464 44.37 72.428 42.98" fill="#FAF6E7"/><path d="M139.513 164.25c.56 0 1.104.143 1.638.431.532.287.947.696 1.245 1.231.296.535.444 1.091.444 1.671 0 .574-.145 1.126-.438 1.654-.293.53-.704.942-1.231 1.235a3.355 3.355 0 0 1-3.316 0 3.092 3.092 0 0 1-1.234-1.235 3.363 3.363 0 0 1-.442-1.654c0-.58.15-1.136.45-1.671a3.057 3.057 0 0 1 1.246-1.23 3.399 3.399 0 0 1 1.638-.432Zm0 .552c-.469 0-.924.12-1.366.36-.444.24-.79.583-1.04 1.03-.25.444-.375.908-.375 1.391 0 .48.122.94.367 1.38.247.439.591.782 1.031 1.03.443.244.902.366 1.383.366.479 0 .94-.122 1.382-.367.44-.247.784-.59 1.028-1.03.244-.439.366-.9.366-1.379a2.81 2.81 0 0 0-.373-1.392 2.575 2.575 0 0 0-1.038-1.03c-.445-.24-.901-.36-1.365-.36Zm-1.466 4.63v-3.596h1.237c.422 0 .727.033.916.1.189.065.34.182.452.348a.913.913 0 0 1 .168.525.96.96 0 0 1-.282.686c-.188.193-.438.302-.747.326.125.055.229.118.305.19.145.143.321.381.532.714l.439.706h-.704l-.323-.567c-.253-.446-.455-.724-.607-.837-.106-.084-.262-.125-.467-.124h-.343v1.528h-.576Zm.576-2.022h.714c.341 0 .574-.05.699-.15a.495.495 0 0 0 .185-.402.492.492 0 0 0-.09-.289.537.537 0 0 0-.248-.189c-.107-.04-.305-.063-.59-.063h-.67v1.093Z" fill="#0E2B58"/></g></svg>