<svg width="200" height="200" xmlns="http://www.w3.org/2000/svg"><g fill-rule="nonzero" fill="none"><path d="M177.575 148.52c.895 0 1.683.068 1.683 1.01 0 1.014-1.381.847-2.392.847h-1.149v-1.858h1.858Zm.774 2.93c.993-.03 1.989-.57 1.989-2.036 0-1.568-1.215-1.972-2.56-1.972h-3.136v7.451h1.075v-3.442h1.385l1.905 3.442h1.23l-1.888-3.442Zm-1.146 6.291c3.706 0 6.64-2.934 6.64-6.625 0-3.692-2.934-6.623-6.64-6.623-3.71 0-6.643 2.931-6.643 6.623 0 3.69 2.934 6.625 6.643 6.625Zm0-12.174c3.034 0 5.564 2.417 5.564 5.549 0 3.122-2.53 5.545-5.564 5.545-3.035 0-5.562-2.423-5.562-5.545 0-3.132 2.527-5.549 5.562-5.549Z" fill="#FFF"/><path d="M98.907 160.13c-16.679 0-33.148-2.739-47.628-7.91-13.903-4.969-25.728-12.07-34.189-20.532-9.259-9.254-14.15-19.807-14.15-30.51 0-10.696 4.891-21.249 14.15-30.506 8.46-8.46 20.286-15.563 34.189-20.529 14.48-5.174 30.949-7.911 47.628-7.911 16.58 0 32.924 2.71 47.248 7.828 13.742 4.914 25.443 11.952 33.834 20.345 9.311 9.315 14.232 19.954 14.232 30.773 0 32.508-42.76 58.953-95.314 58.953Zm83.869-92.515c-18.368-18.36-49.719-29.32-83.87-29.32-26.426 0-51.39 6.512-70.295 18.345-9.22 5.77-16.477 12.482-21.57 19.954C1.702 84.407-1 92.686-1 101.178c0 11.77 5.291 23.286 15.307 33.298 8.869 8.869 21.196 16.29 35.653 21.452 14.892 5.322 31.828 8.133 48.947 8.133 34.15 0 65.5-10.956 83.869-29.316 10.062-10.068 15.387-21.674 15.387-33.567 0-11.892-5.325-23.492-15.387-33.563Z" fill="#EE2722"/><path d="M96.352 156.09c-54.33 0-87.98-29.61-87.98-56.147 0-26.543 37.64-53.763 91.959-53.763 39.292 0 72.795 17.463 82.87 36.435h-44.126S122.63 65.294 99.272 65.294c-23.364 0-46.722 15.398-46.722 33.45 0 18.051 17.52 35.576 43.533 35.576 26.02 0 38.544-9.87 44.41-22.191H80.951V95.232h107.732c5.101 34.024-38.005 60.858-92.33 60.858Zm83.637-85.685c-8.391-8.393-20.092-15.43-33.834-20.345-14.324-5.118-30.668-7.828-47.248-7.828-16.679 0-33.148 2.737-47.628 7.911C37.376 55.11 25.55 62.213 17.09 70.672c-9.259 9.257-14.15 19.81-14.15 30.506 0 10.703 4.891 21.256 14.15 30.51 8.46 8.462 20.286 15.563 34.189 20.531 14.48 5.172 30.949 7.912 47.628 7.912 52.555 0 95.314-26.445 95.314-58.953 0-10.819-4.92-21.458-14.232-30.773Z" fill="#FFF"/><path d="M188.683 95.232H80.95v16.897h59.542c-5.866 12.32-18.39 22.191-44.41 22.191-26.014 0-43.533-17.525-43.533-35.576 0-18.052 23.358-33.45 46.722-33.45 23.358 0 39.803 17.321 39.803 17.321H183.2c-10.074-18.972-43.577-36.435-82.869-36.435-54.32 0-91.96 27.22-91.96 53.763 0 26.537 33.65 56.147 87.981 56.147 54.326 0 97.432-26.834 92.33-60.858" fill="#231F20"/></g></svg>