<?xml version="1.0" encoding="UTF-8"?>
<svg width="200px" height="200px" viewBox="0 0 200 200" version="1.1" xmlns="http://www.w3.org/2000/svg" xmlns:xlink="http://www.w3.org/1999/xlink">
    <!-- Generator: Sketch 51.3 (57544) - http://www.bohemiancoding.com/sketch -->
    <title>george-washington</title>
    <desc>Created with Sketch.</desc>
    <defs></defs>
    <g id="george-washington" stroke="none" stroke-width="1" fill="none" fill-rule="evenodd">
        <g id="george-washington_BGL" transform="translate(0.000000, 30.845771)">
            <g id="george-washington">
                <g id="g10" transform="translate(99.999998, 69.966904) scale(-1, 1) rotate(-180.000000) translate(-99.999998, -69.966904) translate(0.000000, 0.022067)" fill-rule="nonzero">
                    <g id="g12">
                        <path d="M103.431109,131.59073 C103.431109,131.59073 92.2688866,126.642519 90.17422,125.713157 C82.9555535,133.447246 72.2675537,136.619256 59.8386652,134.583574 C36.4800435,130.757128 12.637333,110.361037 3.14635548,86.0864281 C-1.95503551,73.0365309 -0.824479979,60.0201719 6.33057762,49.4344511 C14.3869774,37.512453 29.6430659,32.2755484 46.1457766,35.766215 C58.0173319,38.2783158 68.1831094,44.8503062 74.9937759,53.8014801 C71.3199982,37.5046862 63.7973317,4.13108327 63.7973317,4.13108327 L67.4911094,6.04243957 C92.2391088,18.8475078 101.10622,23.4350506 104.367109,25.1941743 C106.143553,23.4316086 127.868886,1.86687403 127.868886,1.86687403 L199.935995,80.3937569 C199.935995,80.3937569 104.935108,80.3941981 97.8879976,80.3946394 C100.146664,81.9952068 107.335108,87.0881617 107.335108,87.0881617 C107.335108,87.0881617 96.7119976,87.0881617 93.4871088,87.0881617 C96.1675532,92.1175706 121.457775,139.580327 121.457775,139.580327 L103.431109,131.59073 Z M50.2177765,93.3355375 C57.288443,102.567373 66.8097761,107.541179 73.9102204,105.712023 C78.6053314,104.502882 81.7435535,100.01538 82.7466646,93.0747337 C82.7466646,93.0747337 83.2622201,89.5121806 83.6133312,87.0881617 C79.7142202,87.0881617 47.5239988,87.0881617 45.8648877,87.0881617 C47.138221,89.0911877 48.5506655,91.1595249 50.2177765,93.3355375 Z M38.7467101,68.0402189 C38.7467101,72.0109675 40.2758657,77.2685245 43.7440878,83.5313454 C45.1928878,81.523024 50.5666654,73.9733945 52.4351098,70.0220629 C52.285332,64.7702427 48.702221,62.329896 47.1337766,61.5232136 C44.4608878,60.1481466 42.0300434,60.3670276 41.0989768,61.2725595 C39.6060879,62.7261765 38.7467101,65.0164838 38.7467101,68.0402189 Z" id="path14" fill="#FFFFFF"></path>
                        <path d="M121.723997,78.4710461 C121.723997,78.4710461 115.530219,71.6093914 113.403997,69.2158218 C113.480886,69.39278 117.395553,78.4710461 117.395553,78.4710461 L91.8426644,78.47237 C96.6866642,81.9047418 101.288442,85.1658923 101.288442,85.1658923 C101.288442,85.1658923 94.6755532,85.1658923 90.2724422,85.1658923 C92.0337755,88.4702894 117.120886,135.552652 117.120886,135.552652 L104.221331,129.834827 C104.221331,129.834827 91.6746644,124.274102 89.7084422,123.402109 C69.1342205,147.789248 20.0079995,123.89768 4.95137765,85.3905101 C-0.111631997,72.4403449 1.37934219,60.2099276 7.93835536,50.5054676 C15.5451552,39.249159 30.0308881,34.3234097 45.7422211,37.6463852 C62.3391096,41.1579249 75.2302203,52.4921657 80.0026647,67.2225042 C78.1635536,59.0634501 66.5964428,7.74759319 66.5964428,7.74759319 C66.5964428,7.74759319 104.756886,27.4914981 104.770664,27.5113122 C105.131997,27.1515265 127.803552,4.64994157 127.803552,4.64994157 L195.551995,78.4710461 L121.723997,78.4710461 Z M48.0239988,59.8158535 C44.8688878,58.192339 41.4635545,58.2272011 39.7439101,59.8996991 C35.1003547,64.4185327 34.6526214,76.1935363 48.6768877,94.4996667 C56.2133319,104.339603 66.5497761,109.594071 74.3959981,107.572952 C79.8951091,106.156845 83.5422201,101.105813 84.6635534,93.3478936 C84.6635534,93.3478936 85.2639979,89.2050411 85.8479979,85.1658923 C85.4039979,85.1658923 44.9453322,85.1658923 44.9453322,85.1658923 C44.9453322,85.1658923 52.3506654,75.0457349 54.3937764,70.4055459 C54.3937764,70.3852465 54.3986653,70.361858 54.3986653,70.3428824 C54.3986653,63.6656879 49.6293321,60.6419528 48.0239988,59.8158535 Z" id="path16" fill="#0E2B58"></path>
                        <polyline id="path18" fill="#E7D393" points="184.519106 73.6322755 173.941773 73.6322755 148.791552 51.0963581 170.512885 73.6322755 151.363107 73.6322755 153.935107 66.7017793 131.496886 43.9201502 145.072885 73.6322755 123.923108 73.6322755 97.2946642 43.6646861 110.488886 73.6322755 101.912442 73.6322755 91.1039977 51.1047426 99.3151086 73.6322755 79.9493313 73.634482 85.6404423 70.0820786 73.5844426 16.5988144 100.447997 29.8565162 125.923997 63.2963262 130.495552 65.5658928 109.056442 30.0983885 127.639108 11.6537365 184.519106 73.6322755"></polyline>
                        <polyline id="path20" fill="#FAF6E7" points="90.8484422 69.1319762 88.3413311 71.3728587 99.3168864 73.634482 79.9511091 73.6358059 85.6413312 70.0829612 73.5857759 16.5998294 78.591998 19.0715961 90.8484422 69.1319762"></polyline>
                        <polyline id="path22" fill="#FAF6E7" points="145.074663 73.634482 123.924441 73.634482 97.296442 43.6664071 94.5084421 36.7370582 125.651552 70.745341 145.074663 73.634482"></polyline>
                        <polyline id="path24" fill="#FAF6E7" points="130.355997 60.6556328 130.49733 65.5667754 109.058219 30.099227 112.127997 27.0524122 130.355997 60.6556328"></polyline>
                        <polyline id="path26" fill="#FAF6E7" points="159.775996 68.1359794 157.207107 70.6253095 166.175996 73.634482 151.363107 73.634482 153.935107 66.7035444 131.498219 43.9218712 129.40133 38.282464 159.775996 68.1359794"></polyline>
                        <path d="M89.6364422,115.264678 C73.4515537,143.8666 30.5434215,116.002519 18.9631995,81.9488711 C20.8930661,97.869375 33.8103992,112.317728 42.5701323,119.098626 C21.6355995,112.465119 -3.90520879,76.7094071 11.9840441,53.2017638 C27.1289771,30.793424 71.1315538,42.0846388 76.624887,73.6322755 L86.0719978,80.3271217 L54.4364431,80.3271217 L58.9968874,73.6322755 C61.6693318,57.2673902 43.7579989,49.2208656 36.3342213,56.4434974 C30.1100881,62.5011174 28.7614659,76.4953803 44.7977767,97.4280827 C60.8319985,118.360785 85.923109,118.657334 89.4871089,94.0358684 L106.207108,125.41705 L90.5506644,118.476404 L89.6364422,115.264678" id="path28" fill="#E7D393"></path>
                        <path d="M62.4844429,77.7552699 L73.4271093,80.3271217 L54.4364431,80.3271217 L58.9968874,73.6322755 C60.3328874,65.4493916 56.5231097,59.3467597 51.4524432,56.1924021 C62.3128873,59.8926384 62.4844429,77.7552699 62.4844429,77.7552699" id="path30" fill="#FAF6E7"></path>
                        <path d="M72.4275537,127.024236 C52.781332,128.955332 24.5833327,107.582661 15.6909774,72.3410541 C28.6180437,96.7189259 53.4644431,125.644757 72.4275537,127.024236" id="path32" fill="#FAF6E7"></path>
                        <path d="M139.512885,6.61422206 C140.072441,6.61422206 140.616885,6.47199353 141.150663,6.18585958 C141.683108,5.90140253 142.097774,5.49497228 142.395552,4.9636563 C142.692441,4.43273748 142.840441,3.87992614 142.840441,3.30452064 C142.840441,2.73445919 142.695108,2.18663887 142.401774,1.66174369 C142.10933,1.13512306 141.697774,0.72657902 141.170663,0.43612084 C140.643108,0.143937207 140.089774,0 139.512885,0 C138.935997,0 138.382663,0.143937207 137.854663,0.43612084 C137.32533,0.72657902 136.914663,1.13512306 136.62133,1.66174369 C136.327552,2.18663887 136.178663,2.73445919 136.178663,3.30452064 C136.178663,3.87992614 136.32933,4.43273748 136.628441,4.9636563 C136.926219,5.49497228 137.342663,5.90140253 137.875108,6.18585958 C138.407108,6.47199353 138.95333,6.61422206 139.512885,6.61422206 Z M139.512885,6.06604871 C139.044441,6.06604871 138.58933,5.94676738 138.146663,5.70869016 C137.703108,5.46959797 137.356441,5.12949396 137.107552,4.68648058 C136.857774,4.24485285 136.731552,3.78425396 136.731552,3.30452064 C136.731552,2.82841033 136.854219,2.37108584 137.099108,1.93461682 C137.346219,1.49849642 137.690219,1.15753189 138.130219,0.912407227 C138.572885,0.669352229 139.032441,0.548168938 139.512885,0.548168938 C139.991552,0.548168938 140.452885,0.669352229 140.895108,0.912407227 C141.335108,1.15753189 141.678663,1.49849642 141.923108,1.93461682 C142.166663,2.37108584 142.288885,2.82841033 142.288885,3.30452064 C142.288885,3.78425396 142.164885,4.24485285 141.915996,4.68648058 C141.667552,5.12949396 141.320441,5.46959797 140.877774,5.70869016 C140.432885,5.94676738 139.976885,6.06604871 139.512885,6.06604871 Z M138.046663,1.46953881 L138.046663,5.03951445 L139.284441,5.03951445 C139.705774,5.03951445 140.011108,5.00624101 140.199996,4.94040019 C140.388885,4.87491241 140.539552,4.7594262 140.651552,4.59425048 C140.763552,4.43189902 140.819552,4.25778271 140.819552,4.07299155 C140.819552,3.81217894 140.72533,3.58584451 140.538219,3.39157438 C140.349774,3.20023002 140.100441,3.09163239 139.790663,3.06784232 C139.916441,3.01406202 140.019996,2.95148677 140.095552,2.87874414 C140.24133,2.7379101 140.41733,2.50123177 140.627552,2.17026251 L141.066663,1.46953881 L140.363108,1.46953881 L140.040441,2.03270286 C139.786663,2.47537646 139.584885,2.75152838 139.43333,2.86357251 C139.326663,2.94735186 139.170663,2.98820229 138.965774,2.98648125 L138.622663,2.98648125 L138.622663,1.46953881 L138.046663,1.46953881 Z M138.622663,3.47638195 L139.336885,3.47638195 C139.678219,3.47638195 139.911108,3.52602734 140.035552,3.62601094 C140.159108,3.72685066 140.22133,3.85993119 140.22133,4.02420668 C140.22133,4.13194379 140.191108,4.22589052 140.131552,4.3112188 C140.072441,4.39447743 139.987997,4.45775875 139.883108,4.4985783 C139.775997,4.53961848 139.578219,4.56115355 139.29333,4.56115355 L138.622663,4.56115355 L138.622663,3.47638195 Z" id="path34" fill="#0E2B58"></path>
                    </g>
                </g>
            </g>
        </g>
    </g>
</svg>