<svg width="200" height="200" xmlns="http://www.w3.org/2000/svg"><g fill="none"><path d="M53.046 96.442h20.666s-.726-7.106-12.86-7.106c0 0-8.45-.433-13.073 4.623-4.623 5.056-10.21 20.01-.736 22.067l6.003-19.584zm90.301 14.074L131.74 148.89c-1.266 5.397 10.06 4.797 10.06 4.797 9.995.133 12.114-7.762 12.114-7.762l12.093-40.048h33.8l-1.13 3.773c-.09.302-9.053 30.235-10.771 35.719-1.75 5.583-2.185 6.696-3.85 10.442-1.812 4.076-5.426 7.572-5.579 7.72l-.086.078c-6.181 5.48-15.676 8.93-28.221 10.25-5.197.547-10.34.824-15.288.824-10.366 0-19.77-1.208-27.947-3.59-16.609-4.838-16.698-16.317-16.637-17.817.025-2.46 1.186-7.223 1.42-8.162l.04-.145 2.345-7.68-19.308-.073-.558-3.936c-10.13 5.421-26.558 5.06-26.558 5.06-25.762.356-37.133-9.949-37.133-9.949C-7.4 115.6 2.994 95.166 2.994 95.166 18.45 65.851 60.737 67.627 60.737 67.627c1.63.048 3.366.14 4.875.228l.048-.038c.884-1.091 5.05-2.81 5.05-2.81-.047.395 1.8-11.756 7.261-18.19 0 0-3.979-5.048-3.065-6.329.915-1.28 6.13 1 6.13 1s.751.548 1.666 0c.915-.55 1.466-1.533 1.466-1.533-2.007-.82-2.78-1.47-3.465-2.065-.686-.595-2.699-2.739-3.065-4.065-.366-1.326 1-2.864 1-2.864s.66-.658 4.73-.2c4.07.457 5.805-.277 6.72-2.015s2.195-3.658 3.796-3.521c1.6.137 4.893.411 7.134 1.692 2.24 1.28 3.703 2.926 4.207 3.658.503.732 2.456 4.224 4.194 4.361 1.738.138 4.76-.352 6.041-.444 1.28-.091 6.814-.036 10.838 1.244 4.024 1.28 2.935 1.016 3.287.621.497-.558.762-3.095 1.51-3.73.915-.778 3.03-2.67 5.774-2.488 2.744.183 5.125.726 7.64 3.287 2.515 2.56 3.444 5.77 7.285 7.462 0 0 2.448 1.576 2.931 2.31.483.734 1.324 2.512.089 3.198-1.235.686-2.576 1.066-2.576 1.066s.211.474 2.132.977c1.92.503 5.178 1.649 7.373 3.02 2.196 1.373 4.617 4.232 4.709 6.93.091 2.698-1.492 4.399-5.241 4.353 0 0 2.331 1.976 3.108 2.754.778.777 1.27.84 1.27.84s4.256-1.224 6.726 1.292c2.469 2.515 2.17 3.45 2.398 7.018 0 0 1.397-.897.09-6.574 0 0 4.251.635 6.217 4.797 0 0 1.346 2.895 1.689 5.774 0 0 1.915.27 3.287 1.688 1.371 1.418 1.634 3.52 1.68 5.166.045 1.646-.081 2.912-.081 3.096 0 .183-.788 3.306-6.276 5.09 0 0-.16.595-.342 1.372-.183.778-.757 4.856-4.598 7.462-3.841 2.607-7.33 2.4-7.33 2.4s-2.787-.209-3.93.066c-1.143.274-4.847 1.748-7.728 1.199 0 0-2.788 2.813-10.927 3.864 0 0-1.38.069-3.054.223l-.063.247zm35.784 59.66v3.543h.46v-2.925l.907 2.892h.46l.918-2.92v2.953h.383v-3.558h-.617l-.947 2.836-.853-2.82h-.71zm-.42.394h-1.1v3.182h-.426v-3.182h-1.05v-.427h2.592l-.016.427z" fill="#1F2F5F"/><path d="M93.023 41.368c-2.927.525-6.06-.458-6.06-.458l-2.216 1.87s1.828.805 2.24 1.057c.41.251.864.864 1.072 1.426 0 0 2.521-3.5 5.01-3.667.342-.023-.046-.228-.046-.228zM80.919 59.263l4.517-7.79c-3.683.32-5.427-3.058-5.427-3.058-5.484 6.467-6.44 16.238-6.44 16.238 5.605-1.501 6.74-.116 6.74-.116-.792-2.378.61-5.274.61-5.274zm-2.759 30.67l4.825-3.636s1.372-.869 2.812-.228c0 0-2.954-5.04-3.557-8.123a249.918 249.918 0 0 0-1.22-5.91s-1.557.794-3.111.748c-1.555-.045-4.345-.915-4.345-.915s.275 7.546 1.944 11.867c1.669 4.322 2.652 6.197 2.652 6.197zm10.543 3.216c-.255 1.03-.596 1.334-2.471 1.837-1.875.503-5.168.389-5.168.389s1.326 3.475 5.546 7.504c4.219 4.028 10.763 7.015 10.763 7.015s.406-2.263.771-3.498c.366-1.235.824-1.44.824-1.44s-2.172.16-3.682-.847c-1.509-1.005-3.635-4.436-3.635-4.436s-1.578-2.858-1.99-4.344c-.411-1.487-.911-2.37-.958-2.18zm16.278 18.872c.869.457 4.39 1.943 8.872 2.355 4.481.412 9.855.164 9.855.164s-.435-.92-.504-2.108c-.068-1.189.965-1.595.965-1.595-7.93 1.331-11.277.726-14.18.2-2.904-.525-3.99-2.224-3.99-2.224s-.15.899-.378 1.333c-.229.434-.45.89-1.049 1.703l.41.172zm29.976-1.51c-1.387 1.31-3.36 2.166-3.36 2.166s-.184-.84-.252-1.09c-.07-.252-.322-.543-.322-.543.204-.177.596-.258.596-.258l3.613-.639s.137-.024-.275.365z" fill="#D51A35"/><path d="M174.976 82.133s2.464.346 3.654-.798c1.189-1.143 1.554-2.011 1.417-3.43-.137-1.417-.64-3.154-1.097-4.16-.458-1.006-1.52-2.187-1.79-2.008-.268.178-.023 1.058-.023 1.058s.257 2.093-.108 2.824c-.366.732-1.784 3.43-1.921 4.71-.137 1.28-.132 1.804-.132 1.804zm-5.859.117s1.464.275 2.15.503c.686.229.869.686 1.646-.137.777-.823.549-2.607.183-3.338-.366-.732-2.058-.732-2.058-.732s-1.784.137-2.927.457-.91 3.06-.91 3.06l1.916.187zm-6.4-.876c.598-.023 2.507.414 2.507.414.313-.28.372-1.687.372-2.236 0-.549-.12-.847-.12-.847s-.658.298-.977.39c-.32.091-.823-.092-1.235-.137-.412-.046-1.92.32-2.56.548-.641.229-.595.275-.961.915s-.87 1.28-.87 1.28 3.246-.305 3.844-.327zm-10.52-1.685s-1.326-.045-1.555.915c-.228.96.232 1.5.345 1.368.113-.133.265-.311.707-.225.442.087 3.75.137 3.75.137s2.554-.111 2.534-.879c-.019-.767-.528-1.035-.528-1.035s-.863.177-1.137.177c0 0-1.463.228-1.92.228-.458 0-1.235-.457-1.235-.457s-.55-.274-.96-.229zm-6.859-6.63s-.503-.687-.549-.092c-.046.594-.457 4.756-.594 5.259-.138.503-.778 2.24-.778 2.24s-.549 1.418.046 1.418c0 0 1.484-.06 2.606-.365 1.123-.306 2.004-.626 2.15-.96.146-.336.274-.595-.046-1.601-.32-1.007-2.286-5.122-2.835-5.9zm9.237-6.449s-.85.028-.852.227c-.001.2.974.383 1.462.383s2.378.122 2.866.732.792 1.097.792 1.402c0 .305.072 1.352.585 1.256.513-.098.9-1.02.92-1.564.02-.545-.895-1.582-1.749-1.948-.853-.366-1.28-.488-4.024-.488zm-53.778 40.06s-.305.061-.549.701c-.244.64-.914 3.811-.64 4.452 0 0 .091.06.244-.55.152-.609.67-1.798.67-1.798s.489-1.25.671-1.402c.183-.153.244-.305.183-.702-.06-.396-.213-.578-.58-.7zm3.323.183s.549.336.7.854c.153.518-1.37 2.957-2.316 4.116-.945 1.158-3.198 3.246-3.198 3.246s-.46-3.003-.521-4.223c-.061-1.219.366-3.657.884-4.724.518-1.068 1.372-1.037 1.372-1.037 1.524.122 3.079 1.768 3.079 1.768zm20.578-26.37c-.518-.854-.914-1.708-1.334-1.846-.42-.139-.739.474-1.318 1.266a7.646 7.646 0 0 1-1.128 1.25s-.396.457-.36-.791c.036-1.25 1.427-3.325 1.427-3.325s.854-1.28 1.311-1.432c.457-.153 1.25 1.432 1.25 1.432l1.89 3.262s.488.824.854.884c.366.061 2.56-3.2 2.56-3.2s1.159-1.647 2.5-1.769c1.342-.122 1.86 2.988 2.134 3.78.275.793.275.946.946 1.19.67.243 1.829-1.586 1.829-1.586l2.44-2.713s-4.177-1.951-4.97-2.713c0 0-.915-.732-1.037-.824-.122-.091-.397-.305-.701-.152-.305.152-.946 1.524-2.074 1.464-1.127-.061-1.78-1.82-1.78-1.82s-.75-1.9-1.42-1.84c-.671.062-1.708 1.098-2.196 1.952-.487.853-.549 1.31-1.128 1.28-.58-.03-1.005-.823-1.005-.823s-.784-1.28-1.703-1.097c-.92.183-1.803 4.298-1.803 4.298s-.702 6.342.213 8.811c.914 2.47 2.957 2.714 4.573 1.951 1.616-.762 2.082-1.808 2.26-1.56.179.25 1.215 3.306 3.013 2.83 0 0 .428.041 1.373-.63.945-.67 4.695-3.506 6.22-4.268 1.524-.762 4.01-1.322 4.275-2.002.267-.68 1.082-3.381 1.082-3.381s-1.395-.897-1.974-.379c-.58.519-3.17 3.567-3.17 3.567s-1.815 1.942-2.584 1.733c-.77-.208-.983-.97-.983-.97s-1.86-3.354-2.53-3.08c-.671.275-2.135 2.836-2.135 2.836s-.988 1.633-2.126 1.674c-.786.03-2.172-2.406-2.69-3.26zm5.957-18.337c.468.016 1.817-.535 1.787-1.693-.03-1.159-1.128-1.19-1.128-1.19s-1.67.15-1.86 1.738c-.091.763.732 1.128 1.2 1.145zm-3.152-2.578c.183-.548.701-1.371 1.006-1.494.305-.121.375-.299.375-.299s.326-.28-.985-1.225c-1.31-.945-6.158-3.84-6.158-3.84s-.396-.214-.762-.428c-.366-.213-.658-.165-.793.03-.134.196-1.433 1.556-1.28 3.72.152 2.165.304 1.585.03 2.713-.274 1.128 1.006 1.25 1.464 1.22.457-.03 2.286-.55 3.292-.244 1.006.305 2.451.713 3.42 1.987 0 0 .208-1.59.39-2.14zM80.607 44.226s0 .206.343.503c.343.297 2.325 1.915 2.325 1.915s.78.365.965.436c.185.073.437.255.597.324.16.069.343.252.343-.023s-.457-.869-.709-.983c-.251-.114-3.475-2.492-3.864-2.172zm5.03 1.029c1.6.823 1.19 2.195 1.19 2.195s-.23 2.286-1.735 2.413c-1.507.128-2.61-1.087-2.61-1.087s-3.155-3.887-3.946-4.938c-.79-1.052-.49-1.099-.49-1.099.366-.388 5.99 1.693 7.591 2.516zm-12.393 22.75s-.644-.034-.71.12c-.067.154.529.184.529.184s.936.176 1.393.268c.457.091 2.15.229 2.15.229s2.08.202 2.138-.06c.056-.26-.972-.512-.972-.512s-2.424-.297-4.528-.229zm-.137 1.51c-.32-.138-2.606-.915-3.11-1.007-.502-.091-.523-.36-.523-.36.095-.405 2.353-1.194 3.702-1.652 1.349-.457 3.75-1.029 5.007-1.029 1.258 0 1.532.229 1.967 1.052.434.823.16 2.995-.343 3.681-.503.686-1.853.64-1.853.64-1.577.115-4.526-1.188-4.847-1.326zm11.227 20.303s-.389 0-1.6.527c-1.213.525-2.973 1.509-2.973 1.509s-.115.114-.046.205c.069.092.251-.023.251-.023s1.052-.365 1.258-.388c.206-.023 1.304-.32 1.738-.503.434-.183 1.117-.687 1.278-.756.162-.068.623-.119.599-.367-.025-.25-.505-.204-.505-.204zm2.492-.48s.778 2.058.436 3.28c-.343 1.223-3.82.859-4.78.836-.96-.023-4.528.252-4.939.206-.412-.046-.389-.435-.389-.435s.069-.617 3.567-3.27c3.499-2.651 4.048-2.309 4.048-2.309 1.394.069 2.057 1.692 2.057 1.692zm39.694 23.78s-.32.137-.297.412c.022.274.457 1.006.457 1.006l1.468 2.028s.306.409.39.345c.086-.064-.252-.759-.252-.759l-.417-.951s-.229-.594-.366-.755c-.137-.16-.229-.48-.229-.48s.046-.183-.022-.411c-.069-.229-.366-.435-.732-.435zm2.355-1.829c.457.091.64.823.64.823l.732 2.972s.732 3.888-.092 3.933c-.823.046-3.155-2.88-3.155-2.88s-1.966-2.47-1.875-3.156c.092-.686.769-1.086.769-1.086 1.043-.492 2.524-.698 2.981-.606z" fill="#FFF"/><path d="M100.31 85.146s.121 2.244.548 2.19c.427-.055.853-.604.976-.848.121-.244 1.462-3.78 1.829-4.756.365-.975 3.902-8.354 6.28-10.732s2.537-2.322 2.58-2.838c.042-.515-.873-.759-1.544-.332-.67.427-3.11 1.341-7.683 9.39 0 0-2.621 4.268-2.987 7.926zm21.74-47.135s-2.333-.777-2.653-.183c-.32.595 1.509.96 1.509.96s2.927 1.418 3.567 1.967c.64.549 1.964 1.857 2.652 2.058.689.201 1.235.365 1.418-.138.183-.502-.32-1.417-.686-1.646-.365-.228-4.207-2.515-5.807-3.018zm47.982 33.401s-.823 0-1.211.778c-.39.777.045 1.188.296 1.257.252.069.938-.045 1.258-.549.32-.503.594-1.234-.343-1.486zm-3.087.732s1.303-.023 1.12-1.166c-.182-1.144-1.257-1.075-1.257-1.075s-.986-.05-1.052.96c-.068 1.052 1.19 1.281 1.19 1.281zm-14.793.274s-1.03.092-1.144 1.166c0 0 .16 1.098 1.19 1.052 1.028-.046 1.051-1.097 1.051-1.097s.068-.96-1.097-1.12zm-3.544-1.852s-.984.069-1.12.915c0 0 .068.754 1.005.709.938-.046 1.15-.71 1.144-.87-.007-.158.022-.708-1.03-.754zm-7.295 1.303s-.846.115-.937.938c-.091.823.846.846 1.075.777.228-.068.754-.503.617-1.074-.137-.572-.755-.64-.755-.64zm7.958-2.088c1.204.321 4.45.976 5.182 1.098.732.121 2.317 1.097 2.988 2.133.67 1.037 1.618 1.117 1.618 1.117 1.192.14 2.65-2.031 2.894-4.165.244-2.134-.976-3.536-.976-3.536s-1.524-1.83-5.548-1.586c0 0-1.403.345-3.659 1.159-2.255.813-4.333 1.255-4.755 2.439-.306.853 1.05 1.02 2.256 1.34zm-35.075 5.06c.686-2.926 1.783-6.493 2.835-8.46 1.051-1.966 3.567-4.069 5.122-4.39 1.554-.32 4.481 1.83 4.481 1.83s4.802 3.658 7.18 4.893c2.378 1.235 3.2 1.28 4.802 1.6 1.6.321 4.115.138 4.115.138s2.104-.092 1.884-.417c-.218-.326-1.564-.3-1.564-.3s-1.691-.198-3.247-.518c-1.554-.32-2.87-1.436-2.87-1.436 1.885-2.169 5.98-1.353 6.803-1.49.823-.138-.183-1.693-.32-2.012-.137-.32-1.6-.55-2.835-.915-1.235-.366-4.07-2.836-4.07-2.836l-12.256-9.146s-2.79-1.966-5.377-2.392c-2.589-.427-3.448 1.524-3.769 2.347-.32.823-.274 1.417 0 1.6.275.183.732-.137.732-.137s.686-.823 1.555-.915c.869-.09 1.32 1.153 1.32 1.153-1.24 1.06-1.595 1.957-1.686 4.152-.091 2.195.836 3.392.836 3.392s.673.587.666 1.035c-.006.447-.313.878-1.32 1.198-1.005.32-1.554.092-2.175-.095-.622-.185-2.443.415-2.626.46-.183.047-.823.184-.869-.273-.045-.458 2.378-2.47 2.378-2.47s2.241-2.195 2.058-2.881c-.183-.686-.64-1.006-.64-1.006s-2.15-1.555-3.339-3.247-1.143-3.658-1.143-3.658c.138-4.024 3.973-3.76 3.973-3.76 6.17-.24 13.77 6.366 16.743 8.653 2.973 2.286 9.055 6.585 9.055 6.585s2.378 1.417 3.795 1.6c1.418.184 2.607-1.828 2.723-2.67.115-.842-.437-1.72-.828-1.725-.393-.006-.368 1.15-.368 1.15s.028.73-.874 1.012c-.903.28-3.809-2.294-3.809-2.294s-4.024-3.978-9.145-8.78c-5.122-4.802-8.918-6.357-12.119-7.637-3.2-1.28-6.265-1.326-7.91-1.097-1.647.228-4.985 3.475-5.151 8.17-.166 4.694 4.968 7.744 4.968 7.744s1.371.823 1.463 1.097c.09.275-.046.595-.55 1.143-.502.55-2.515 2.79-2.88 3.568-.366.777-.137.777-.126 1.581.01.805-2.252 2.26-2.252 2.26S98.51 72.418 93.343 76.35c-5.168 3.933-5.717 7.957-5.717 7.957-2.149-3.384-3.658-8.689-4.07-10.747-.411-2.057.046-2.149.046-2.149.732-.412 1.604.301 3.064 1.555 1.46 1.253 1.899 2.91 1.899 2.91s.022 1.068.46.988c.437-.08.248-1.429.11-2.206-.137-.777-.64-1.555-1.326-2.607-.686-1.052-4.938-4.573-5.259-4.801-.32-.229-.685-.64-.724-.897-.04-.255.496-.43.496-.43s.365-.09.411-.594c.046-.503-1.006-1.875-.96-2.744.046-.868.32-1.966 1.143-3.338s4.985-8.643 6.132-11.478c1.146-2.834 2.944-3.749 2.944-3.749s1.534-.824 1.84-.069c.305.756.483 3.45.471 4-.011.55.035.532.035.532.354-.11.88-1.857 1.291-3.092.412-1.235.275-2.515.092-2.79-.183-.274-.51-1.709-.51-1.709 1.138-.382 2.75-1.446 3.345-2.315.595-.869.773-.697.773-.697.955-.15 2.703 1.52 2.977 1.84.274.32.823.32.732-.777-.092-1.097-1.372-1.875-1.372-1.875l-1.533-.775-.068-.871s.092-1.372-.412-1.372c-.502 0-.96.686-1.6 1.875-.64 1.188-1.6 1.783-1.6 1.783-1.83 1.098-4.208 1.692-8.964 1.235-4.756-.458-6.86-4.573-7.042-5.213-.183-.64.137-1.007.137-1.007s.305-.29.854-.137c.549.153 2.552.744 5.01.51 0 0 .173.314-.224.832-.396.518-.489.984-.489.984s.093.204 1.038-.497c.945-.7.762-1.188 1.463-1.554.702-.366 1.311-.58 2.317-1.768 1.006-1.19 1.89-2.714 1.89-2.714s.55-1.067 1.372-1.067c.824 0 2.866.458 3.415.671.549.213 2.927.762 4.298 2.256 1.372 1.494 3.964 4.878 3.964 4.878s2.439 3.079 3.079 3.628c.64.548 1.384 1.292 1.775.813 0 0 .115-.112-.068-.6s-.366-.793.03-.976c.397-.183 5.823-1.829 11.616-.64 0 0 5.091 1.494 7.591 2.287 2.5.792 10.03 3.292 10.03 3.292s3.567 1.159 5.061 2.013c1.494.853 4.573 3.17 4.573 3.17s.967.733.819.93c-.148.198-.605.107-.605.107s-.618.006-.569.353c.05.348 1.148.561 1.148.561s3.262.214 3.993.458c0 0 1.555.304 4.878 2.073 3.324 1.768 3.841 2.378 4.36 3.75.518 1.372.549 3.048.03 3.688-.518.64-1.95 1.037-3.688.976-1.738-.061-5-.488-7.409-2.805-2.408-2.316-3.11-4.939-3.11-4.939s-1.133-2.5-1.829-3.292c-.696-.792-2.073-2.47-2.713-2.226 0 0-.183.061.03.58.214.518 3.368 5.593 3.368 5.593s-1.02.169-3.55-2.423c-2.53-2.591-6.037-5.03-6.86-4.878-.823.153-1.28.244-1.25.64.03.397 1.006 1.007 1.006 1.007l8.963 7.134s2.41 1.737 2.683 4.176c.275 2.44-.518 4.055-1.951 5.091-1.433 1.037-2.713 1.86-2.835 2.196-.122.335.43.15.597.12.165-.029 5.835-1.767 7.147-2.132 1.31-.367 4.146-1.037 5.213-1.006 1.067.03 2.47.365 4.055 1.981 1.585 1.616 1.463 2.073 1.463 2.073s-.275.457.58.397c.853-.062 2.865-.61 5.243.457s3.78 3.079 4.055 4.603c.274 1.525.182 3.171-.305 3.415-.488.244-1.25.122-1.25.122s-2.113-.455-2.718-.41c-.605.044-2.862.105-2.953.105-.091 0-2.164.152-3.689-1.006 0 0-.46-.381-.672-.663-.212-.282-.486-.527-.639-.282-.152.244-.03.731-.03.731s.03.824-.61 1.311c-.64.488-2.64 1.763-3.85 1.735-1.21-.028-1.901-.525-4.025-.46-2.125.067-2.063.128-2.216-.39-.153-.519-2.287-6.22-5.701-6.677 0 0-.427-.091-.427.762 0 .854-.03 1.128 0 1.707.03.58.35 3.62-.42 3.563-.769-.057-1.836-.88-1.836-.88l-6.463-4.146-7.622-5.61s-2.652-1.768-4.146-1.646c-1.494.122-2.805 2.012-3.018 2.957-.214.945-.034 1.378.152 1.28.187-.097 1.28-1.25 1.464-1.188.183.06-.062.518-.062.518s-1.28 2.683-2.073 5.152c-.792 2.47-1.89 7.134-1.402 11.402.488 4.268 1.067 8.2 1.982 11.006.915 2.805 3.11 7.348 3.11 7.348s.609 1.31.243 2.56-1.31 4.36-5.305 4.39c-3.993.03-8.291.061-10.182-1.585-1.89-1.646-3.018-4.025-7.744-4.939 0 0-2.469-.091-3.262-.67-.793-.58-2.011-1.678-3.932-5.427-1.921-3.75-3.842-8.536-3.72-10.884.122-2.347 1.768-4.451 1.768-4.451s2.47-3.475 6.433-6.463c3.964-2.988 11.127-7.927 11.127-7.927s4.496-3.186 7.096-3.194c0 0-1.211 2.036-1.943 5.572-.732 3.537-1.945 6.503-1.945 6.503s-.551 1.02.116 1.028c.666.008 1.585-.092 1.89-.854.305-.762.534-1.921.534-1.921zm-10.518-20.395s-.778-1.874-1.052-2.744c-.275-.868-.32-1.463-.32-2.697 0-1.235-.731-1.373-.731-1.373s-.32.047-.412.504c-.092.457-.138 1.783-.046 2.332.092.548.64 2.24.96 2.835.32.595 1.19 1.875 1.006 2.652-.183.778-.072 1.14-1.34 3.132 0 0 2.209-1.028 2.209-3.315l-.274-1.326zm47.102 5.721s-.325 1.91-.368 2.53c-.044.621.23 1.174.23 1.174l3.08-.858s-.823-3.313-2.942-2.846zm27.818 33.82s-4.145.244-5.487 2.196c-1.341 1.95-3.841 3.719-3.841 3.719s-2.939 2.245-2.597 2.586c.34.34 1.748.138 1.748.138s4.202-.407 5.91-1.687c1.707-1.281 2.987-1.89 4.267-6.951zm-.149-2.47c6.313-.581 6.796-3.2 7.101-3.993.305-.792-.06-1.036-.122-2.865-.061-1.83-.976-2.683-1.646-2.988-.671-.305-.976-1.28-3.963.366-2.988 1.646-5.55 1.646-5.55 1.646s2.15.847 2.478 1.003c.327.155.815.643.327 1.07-.488.427-1.402.488-1.95.366-.55-.122-2.5-1.463-8.354-2.317-5.854-.854-12.15-.2-12.15-.2s-.533.14-2.118-.166c-1.585-.305-3.414-.61-4.939-.61-1.524 0-6.524.915-9.878 3.354-3.353 2.439-6.645 5.549-6.645 5.549s-2.074 1.89-5.061 1.768c-2.988-.122-4.755-1.891-4.755-1.891s1.28 5.427 2.316 7.622c1.036 2.195 2.012 4.39 1.768 6.28-.244 1.891-.915 2.745-.915 2.745s-.427.365.305.67c.732.305 2.622.975 4.574.732 1.95-.244 6.218-1.342 6.218-1.342s2.726-.695 4.086-.731c1.36-.037 5.06.06 6.828-.244 1.77-.305 7.866-1.586 9.39-3.78 1.525-2.196 1.525-2.988 2.44-3.476s1.036-.122.915.305c-.123.427-1.424 2.788-1.424 2.788s1.033.35 2.692.184c1.658-.168 2.938-.655 5.987-2.972s5.858-5.377 5.858-5.377-2.81.316-6.407-.416c-3.597-.731-9.268-3.293-9.268-3.293s-4.573-1.768-8.658-1.646c-4.085.122-8.23 1.159-8.23 1.159s-4.343 1.013-4.306.263c.037-.751.89-1.117.89-1.117s5.49-3.149 9.483-2.885c3.993.263 10.883 1.36 13.93 2.154 3.05.792 10.488 3.719 13.11 3.719s4.024-.366 4.878-.671c.854-.304.765-.764.765-.764zM141.908 34.05c1.28.686 2.607 3.384 3.43 4.71s2.881 2.973 3.338 3.247c.457.274 3.11 1.509 3.11 1.509s.686.366.81.803c.126.438-.947 1.026-2.09 1.255-1.144.228-2.287-.32-3.019-.87a28.084 28.084 0 0 0-3.201-2.057c-1.189-.64-2.286-2.881-2.286-2.881s-1.225-2.623-1.418-2.972c-.193-.35-.732-.732-1.05-.525-.317.208.09.753.501 1.393.412.64.64 1.464.823 2.15.183.685.549 1.463.366 1.417a92.222 92.222 0 0 1-3.018-.96c-.64-.229-5.442-1.692-5.99-1.92-.55-.229-.443-1.007-.443-1.007s.366-1.737 1.464-3.292c1.097-1.555 3.414-1.342 3.414-1.342 3.521.214 3.979.656 5.259 1.342z" fill="#C4C7CC"/><path d="M97.967 117.422L93.39 132.7H78.674l-1.046-7.304-2.024 1.711c-.08.068-8.225 6.774-26.661 6.775-.667 0-1.349-.009-2.027-.027l-.06-.002-.06.004c-.007 0-.667.037-1.804.037-3.592 0-12.928-.375-22.02-3.852-14.19-5.425-20.106-13.995-18.088-26.197 2.044-12.358 13.609-20.459 20.32-24.187 7.892-4.385 22.187-7.455 34.765-7.467h.13c3.788 0 7.464.179 10.854.5 0 0 .689 7.129 1.222 9.039.533 1.91 1.347 4.74 3.017 8.133-2.254-2.405-6.523-4.958-14.493-4.958h-.238c-13.891.09-17.923 8.377-20.089 12.83-.155.319-.302.62-.443.9-1.775 3.514-3.745 11.02-1.476 16.207 1.112 2.541 3.064 4.227 5.802 5.009 2.86.817 5.942 1.25 8.913 1.25 7.012 0 12.86-2.295 16.048-6.294l1.896-2.38H52.805l3.533-11.506h25.497s4.931 7.326 14.792 11.124c0 0 .5 4.698.833 5.03.179.18.277.238.362.28.072.035.145.067.145.067zm7.555-2.545s3.148.833 4.647 1.15c1.499.316 3.78.898 9.427.932 0 0 3.598-.05 4.414-.117 0 0 1.932 1.983 3.715 3.432 0 0 2.399 1.882 3.481 1.815 0 0 1.05.15 1.5-1.865.449-2.016.3-4.498.232-5.514 0 0 1.637-.65 2.736-1.399 1.075-.732 1.078-.731 1.828-1.382.952-.752.95-.752 1.07-.833l.017-.009c-1.463 4.783-9.168 29.776-10.974 35.877-.197.55-1.256 3.872.742 6.799 1.868 2.737 5.694 4.125 11.373 4.125.161 0 .325-.001.47-.003h3.51c6.108 0 9.714-2.908 11.664-5.348 1.966-2.462 2.662-4.934 2.763-5.32l11.135-36.942H193.9c-2.258 7.545-10.676 35.524-13.629 43.362-3.94 10.454-19.958 16.537-43.949 16.687l-1.07.003c-26.09 0-34.386-5.94-38.698-11.116-3.426-4.11-1.087-11.597-1.058-11.69l10.026-32.644z" fill="#FFF"/><path d="M97.967 117.422c.962.49 1.441.286 1.441.286l-4.88 16.295h-17.08l-.847-5.943s-8.889 7.631-29.676 7.098c0 0-12.348.711-24.43-3.909-15.918-6.086-20.965-15.99-19.011-27.806C5.438 91.628 15.744 83.1 24.538 78.214c8.795-4.886 23.63-7.64 35.475-7.651 3.26-.003 6.662.11 10.098.403l.798.304.044 1.42a116.43 116.43 0 0 0-10.854-.499h-.13c-12.578.012-26.873 3.082-34.765 7.467-6.711 3.728-18.276 11.829-20.32 24.187-2.018 12.202 3.898 20.772 18.089 26.197 9.091 3.477 18.427 3.852 22.02 3.852 1.136 0 1.796-.036 1.802-.037l.06-.004.061.002c.678.018 1.36.027 2.027.027 18.436 0 26.581-6.707 26.661-6.775l2.024-1.71 1.046 7.303H93.39l4.558-15.213.019-.065zM76.139 91.524l-.9.81c-1.54-2.378-5.432-6.022-14.768-5.962-13.947.088-17.147 8.792-19.234 12.924-2.087 4.132-5.285 16.658 3.42 19.146 8.707 2.487 18.882 1.137 23.413-4.549H50.82l4.434-14.438H80.77l1.065 1.466H56.338l-3.533 11.507h18.307l-1.896 2.379c-3.187 4-9.036 6.293-16.048 6.293-2.97 0-6.053-.432-8.913-1.249-2.738-.782-4.69-2.468-5.802-5.009-2.269-5.186-.299-12.693 1.476-16.207 0 0 .288-.581.443-.9 2.166-4.453 6.198-12.74 20.09-12.83h.237c7.97 0 12.239 2.553 14.493 4.958 0 0 .68.71.947 1.661zm29.383 23.353l-10.026 32.645c-.03.092-2.368 7.58 1.058 11.69 4.312 5.175 12.609 11.115 38.699 11.115.354 0 .709 0 1.07-.003 23.99-.15 40.008-6.233 43.948-16.687 2.953-7.838 11.37-35.817 13.63-43.362h-24.629l-11.135 36.942c-.1.386-.797 2.858-2.763 5.32-1.95 2.44-5.556 5.348-11.665 5.348h-3.508c-.146.002-.31.003-.471.003-5.679 0-9.505-1.388-11.373-4.125-1.998-2.927-.939-6.25-.742-6.8 1.806-6.1 9.511-31.093 10.974-35.876.467-.27 1.637-.428 1.637-.428-2.279 7.45-10.643 34.81-11.219 36.765 0 0-3.597 9.195 11.194 8.995h3.398c10.793.066 13.125-9.595 13.125-9.595l11.459-38.015h27.685s-10.76 36.15-14.226 45.344c-3.464 9.195-16.523 17.457-45.31 17.637-28.788.18-36.907-6.843-40.905-11.64-3.997-4.797-1.332-13.059-1.332-13.059l10.036-32.639 1.29.396.1.03z" fill="#D51A35"/></g></svg>