<svg width="200" height="200" fill="none" xmlns="http://www.w3.org/2000/svg"><path d="M106.536 180.4c.4 0 .8-.1 1.2-.2 3.7-1.2 3.5-6.9 3.5-8.8-.1-1.5-.2-3-.4-4.2 3.3-1.5 5.4-3.2 6.9-4.4.4-.3.8-.6 1.1-.8 1.2-.6 7.5-1.5 12.7-2.1 10.5-1.4 15.5-4.7 17.5-6.5.9.1 1.9.2 3.1.2 4.3 0 9.1-.8 10.7-1.2.3-.1 1-.2 2.3-.2 1 0 1.9.1 2.2.1.3 0 .8.1 1.6.1 2 0 6.2-.5 11-3.7 6.5-4.4 7.7-10.9 8.1-13 0-.2.1-.3.1-.4 0-.2.1-.3.2-.4 9.5-3.3 11.5-9.6 11.5-10.7v-.8c0-.7-.1-2.1-.2-3.8-.1-2.8-.5-6.4-3.4-9.4-1.7-1.8-4-2.6-5.6-2.9-.8-4.3-2.3-8.3-2.3-8.5l-.1-.2c-3.6-7.7-10.3-9-10.6-9l-3.5-.6.2 1c-.2-.3-.5-.5-.7-.8-2.1-2.1-4.9-3.2-8.3-3.2-2 0-3.6.4-4.2.6-.5-.5-1.4-1.3-2.5-2.1 1.3-.5 2.5-1.3 3.4-2.3 1.7-1.7 2.5-4 2.4-6.6-.2-5.6-4.6-9.6-8.3-11.9-3.6-2.3-9.2-4.2-12.9-5.1-.2-.1-.4-.1-.5-.2.3-.1.6-.3.9-.5 1.8-1 2.5-2.4 2.7-3.3.3-1.3 0-2.7-.8-4-1-1.5-3.8-3.1-5.4-4l-.2-.1c-3.6-1.6-5.4-4-7.5-6.8-1.1-1.4-2.2-2.9-3.6-4.4-4.4-4.5-7.6-5.4-12.8-5.8h-.9c-4.9 0-7.9 2.6-9.4 3.8-1.4 1.2-2.2 3.5-2.8 5.3 0 .1 0 .1-.1.2-.1 0-.2-.1-.4-.1-.8-.3-1.8-.6-3.1-1-4.8-1.5-10.8-1.8-15-1.8-1.7 0-3.1.1-3.9.1-.3 0-.7.1-1.1.1-1.7.1-4.3.3-6.4.3-.6 0-1.2 0-1.6-.1-.5-.1-1.8-1-4.6-5.7-.3-.4-.5-.8-.6-1-1.2-1.7-3.9-4.5-7.6-6.6-4-2.3-9.7-2.8-12.4-3h-.6c-3.8 0-6.4 4-7.9 7-.7 1.3-1.8 2.7-5.8 2.7-.8 0-1.6-.1-2.5-.2-1.5-.2-2.8-.2-3.8-.2-1.1 0-4.2 0-5.3 1.8-.6.8-2 2.9-1.2 5.7.8 2.7 3.7 6.4 4.9 7.5.8.7 2.3 1.8 4.3 2.9-.1 0-.1.1-.2.1-.6-.2-5.7-2.2-9.1-2.2-1.8 0-3.2.6-3.9 1.7-1.7 2.4.3 5.6 2.2 8.2.7 1 1.5 1.9 2.1 2.6-7.5 9.9-9.7 23-10.3 27.3-8.1 3.9-8.7 5.7-8.9 6.4-.9 3 2.9 4.9 4.9 5.9 1.6.8 3.2 1.4 3.9 1.7-.1 1.8 1 10.2 1.3 12.7v.2c1.7 7.5 4.2 13.2 5.7 16.1-1.9 1.5-4.2 3.7-4 6.1.2 3.2 4.5 3.8 6.1 4 1.4.2 2.8.3 3.8.3 2.8 5.5 7.8 11.2 8 11.4 6.5 7.2 16.2 11.8 19.9 13.3.1 1.9.4 5.1.6 6.3.3 2.4 1.8 3.6 3.2 3.7.2 0 .4.1.7.1 3 0 6.6-3.3 8.7-5.6 1.9.8 5.3 2.1 10.6 3.2 3.3.7 7.7 1.1 13 1.1 3.6 0 6.7-.2 8.3-.3.8.9 2 2.3 3.4 3.7 4.6 4.7 7 5.2 8.3 5.2Zm0 0c.4 0 .8-.1 1.2-.2 3.7-1.2 3.5-6.9 3.5-8.8-.1-1.5-.2-3-.4-4.2 3.3-1.5 5.4-3.2 6.9-4.4.4-.3.8-.6 1.1-.8 1.2-.6 7.5-1.5 12.7-2.1 10.5-1.4 15.5-4.7 17.5-6.5.9.1 1.9.2 3.1.2 4.3 0 9.1-.8 10.7-1.2.3-.1 1-.2 2.3-.2 1 0 1.9.1 2.2.1.3 0 .8.1 1.6.1 2 0 6.2-.5 11-3.7 6.5-4.4 7.7-10.9 8.1-13 0-.2.1-.3.1-.4 0-.2.1-.3.2-.4 9.5-3.3 11.5-9.6 11.5-10.7v-.8c0-.7-.1-2.1-.2-3.8-.1-2.8-.5-6.4-3.4-9.4-1.7-1.8-4-2.6-5.6-2.9-.8-4.3-2.3-8.3-2.3-8.5l-.1-.2c-3.6-7.7-10.3-9-10.6-9l-3.5-.6.2 1c-.2-.3-.5-.5-.7-.8-2.1-2.1-4.9-3.2-8.3-3.2-2 0-3.6.4-4.2.6-.5-.5-1.4-1.3-2.5-2.1 1.3-.5 2.5-1.3 3.4-2.3 1.7-1.7 2.5-4 2.4-6.6-.2-5.6-4.6-9.6-8.3-11.9-3.6-2.3-9.2-4.2-12.9-5.1-.2-.1-.4-.1-.5-.2.3-.1.6-.3.9-.5 1.8-1 2.5-2.4 2.7-3.3.3-1.3 0-2.7-.8-4-1-1.5-3.8-3.1-5.4-4l-.2-.1c-3.6-1.6-5.4-4-7.5-6.8-1.1-1.4-2.2-2.9-3.6-4.4-4.4-4.5-7.6-5.4-12.8-5.8h-.9c-4.9 0-7.9 2.6-9.4 3.8-1.4 1.2-2.2 3.5-2.8 5.3 0 .1 0 .1-.1.2-.1 0-.2-.1-.4-.1-.8-.3-1.8-.6-3.1-1-4.8-1.5-10.8-1.8-15-1.8-1.7 0-3.1.1-3.9.1-.3 0-.7.1-1.1.1-1.7.1-4.3.3-6.4.3-.6 0-1.2 0-1.6-.1-.5-.1-1.8-1-4.6-5.7-.3-.4-.5-.8-.6-1-1.2-1.7-3.9-4.5-7.6-6.6-4-2.3-9.7-2.8-12.4-3h-.6c-3.8 0-6.4 4-7.9 7-.7 1.3-1.8 2.7-5.8 2.7-.8 0-1.6-.1-2.5-.2-1.5-.2-2.8-.2-3.8-.2-1.1 0-4.2 0-5.3 1.8-.6.8-2 2.9-1.2 5.7.8 2.7 3.7 6.4 4.9 7.5.8.7 2.3 1.8 4.3 2.9-.1 0-.1.1-.2.1-.6-.2-5.7-2.2-9.1-2.2-1.8 0-3.2.6-3.9 1.7-1.7 2.4.3 5.6 2.2 8.2.7 1 1.5 1.9 2.1 2.6-7.5 9.9-9.7 23-10.3 27.3-8.1 3.9-8.7 5.7-8.9 6.4-.9 3 2.9 4.9 4.9 5.9 1.6.8 3.2 1.4 3.9 1.7-.1 1.8 1 10.2 1.3 12.7v.2c1.7 7.5 4.2 13.2 5.7 16.1-1.9 1.5-4.2 3.7-4 6.1.2 3.2 4.5 3.8 6.1 4 1.4.2 2.8.3 3.8.3 2.8 5.5 7.8 11.2 8 11.4 6.5 7.2 16.2 11.8 19.9 13.3.1 1.9.4 5.1.6 6.3.3 2.4 1.8 3.6 3.2 3.7.2 0 .4.1.7.1 3 0 6.6-3.3 8.7-5.6 1.9.8 5.3 2.1 10.6 3.2 3.3.7 7.7 1.1 13 1.1 3.6 0 6.7-.2 8.3-.3.8.9 2 2.3 3.4 3.7 4.6 4.7 7 5.2 8.3 5.2Z" fill="#fff"/><path d="M33.136 46.9c-3.2-1.3-6.3-3.3-7.4-4.3-1.1-1-3.6-4.2-4.2-6.3-.6-2.1.9-3.7.9-3.7s.4-1.3 6.9-.5 9.1-1 10.6-3.8 3.5-5.9 6.1-5.7c2.6.2 7.9.7 11.5 2.7 3.6 2 6 4.7 6.8 5.9.8 1.2 4.1 7.4 6.9 7.7 2.8.2 7.4-.2 9.5-.4 2.1-.2 11.5-.4 18 1.6 6.5 2.1 5.2 1.9 5.8 1.2.6-.6 1.4-4.8 2.9-6.1 1.5-1.3 4.2-3.5 8.6-3.2 4.4.3 7.2 1 11.3 5.1 4.1 4.1 5.7 8.9 11.9 11.7 0 0 3.8 2 4.5 3.2.8 1.2.9 2.8-1.1 3.9s-3.2 1.7-3.2 1.7.3 2.5 3.4 3.3c3.1.8 8.7 2.7 12.2 4.9s7.1 5.6 7.2 10c.1 4.4-3.2 7.4-9.2 7.4 0 0 5.2 3.9 6.5 5.2 1.3 1.3 2.1.7 2.1.7s6.3-2.1 10.3 2c4 4.1 4 8.5 4.4 14.2 0 0 3-4 .9-13.1 0 0 5.7 1 8.9 7.7 0 0 1.9 5.1 2.5 9.7 0 0 3.7.2 5.9 2.5s2.7 5.2 2.7 7.8c.1 2.7.2 4.3.2 4.6 0 .3-1.6 5.8-10.5 8.6 0 0-.9.7-1.2 1.9-.3 1.3-1 7.7-7.2 11.9s-11 3.2-11 3.2-3.5-.3-5.4.1c-1.8.4-9.4 1.7-14 .8 0 0-3.8 4.9-17 6.6 0 0-12.1 1.3-13.7 2.4-1.6 1.1-4.3 3.8-9.4 5.8 0 0 2.1 11.1-1.2 12.2-3.2 1-11.1-9-11.1-9s-13.6 1.1-21.9-.7c-8.3-1.8-11.7-3.8-11.7-3.8s-5.7 6.7-8.5 6.1c0 0-1 0-1.2-1.7-.2-1.7-.7-7.6-.7-7.6s-12.7-4.8-20.4-13.3c0 0-5.8-6.6-8.3-12.2 0 0-8.9.1-9.1-2.1-.1-2.2 4.8-5.2 4.8-5.2s-4.1-6.9-6.5-17.3c0 0-1.4-10.6-1.3-12.3.1-1.7-1.1-2.1-1.1-2.1s-8.3-3.2-7.8-4.9c.5-1.7 8.8-5.5 8.8-5.5s1.6-17.7 11.2-29c0 0-6.9-7.3-5.4-9.3 1.5-2 10.3 1.3 10.3 1.3s.9.7 2.4-.1c1.7-.8 3.8-2.4 3.8-2.4Z" fill="#1C3063"/><path d="M112.736 160.1c-2.2 2.1-5.4 3.5-5.4 3.5s-.3-1.4-.4-1.8c-.1-.4-.5-.9-.5-.9.3-.3 1-.4 1-.4l5.8-1s.2 0-.5.6Zm-48.3 2.4c1.4.7 7.1 3.1 14.3 3.8 7.2.7 15.9.3 15.9.3s-.7-1.5-.8-3.4c-.1-1.9 1.6-2.6 1.6-2.6-12.8 2.1-18.2 1.2-22.9.3-4.7-.9-6.4-3.6-6.4-3.6s-.2 1.4-.6 2.2c-.4.7-.7 1.4-1.7 2.7l.6.3Zm-26.3-30.4c-.4 1.7-1 2.2-4 3-3 .8-8.3.6-8.3.6s2.1 5.6 8.9 12.1c6.8 6.5 17.4 11.3 17.4 11.3s.7-3.7 1.2-5.6c.6-2 1.3-2.3 1.3-2.3s-3.5.3-5.9-1.4c-2.4-1.6-5.9-7.2-5.9-7.2s-2.5-4.6-3.2-7c-.6-2.4-1.4-3.8-1.5-3.5Zm-17-5.2 7.8-5.9s2.2-1.4 4.5-.4c0 0-4.8-8.1-5.7-13.1-1-5-1.7-8.2-2-9.5 0 0-2.5 1.3-5 1.2-2.5-.1-7-1.5-7-1.5s.4 12.2 3.1 19.1c2.7 7.1 4.3 10.1 4.3 10.1Zm4.5-49.5 7.3-12.6c-5.9.5-8.8-4.9-8.8-4.9-8.8 10.4-10.4 26.2-10.4 26.2 9-2.4 10.9-.2 10.9-.2-1.3-3.8 1-8.5 1-8.5Zm19.5-28.8c-4.7.8-9.8-.7-9.8-.7l-3.6 3s2.9 1.3 3.6 1.7c.7.4 1.4 1.4 1.7 2.3 0 0 4.1-5.6 8.1-5.9.6-.1 0-.4 0-.4Z" fill="#D21F36"/><path d="M102.936 161.3c.7.1 1 1.3 1 1.3l1.2 4.8s1.2 6.3-.1 6.3c-1.3.1-5.1-4.6-5.1-4.6s-3.2-4-3-5.1c.1-1.1 1.2-1.8 1.2-1.8 1.7-.7 4.1-1 4.8-.9Zm-3.8 3s-.5.2-.5.7c0 .5.7 1.6.7 1.6l2.4 3.3s.5.7.6.6c.1-.1-.4-1.2-.4-1.2l-.7-1.5s-.4-1-.6-1.2c-.2-.3-.4-.8-.4-.8s.1-.3 0-.7c-.1-.4-.5-.8-1.1-.8Zm-64-38.4s1.3 3.3.7 5.3c-.6 2-6.2 1.4-7.7 1.3-1.5-.1-7.3.4-8 .3-.7-.1-.6-.7-.6-.7s.1-1 5.8-5.3c5.6-4.3 6.5-3.7 6.5-3.7 2.2.2 3.3 2.8 3.3 2.8Zm-4 .8s-.6 0-2.6.8-4.8 2.4-4.8 2.4-.2.2-.1.3c.1.1.4 0 .4 0s1.7-.6 2-.6c.3 0 2.1-.5 2.8-.8.7-.3 1.8-1.1 2.1-1.2.3-.1 1-.2 1-.6-.1-.4-.8-.3-.8-.3ZM13.036 94c-.5-.2-4.2-1.5-5-1.6-.8-.1-.8-.6-.8-.6.2-.7 3.8-1.9 6-2.7 2.2-.8 6-1.7 8.1-1.7 2.1 0 2.5.4 3.2 1.7.7 1.3.3 4.8-.6 5.9-.9 1.1-3 1-3 1-2.7.3-7.4-1.8-7.9-2Zm.2-2.5s-1-.1-1.1.2c-.2.3.8.3.8.3s1.5.3 2.2.4c.7.1 3.5.4 3.5.4s3.4.3 3.4-.1c.1-.4-1.6-.8-1.6-.8s-3.8-.5-7.2-.4Zm20-36.7c2.6 1.3 1.9 3.5 1.9 3.5s-.4 3.7-2.8 3.9c-2.4.2-4.2-1.8-4.2-1.8s-5.1-6.3-6.4-8c-1.3-1.7-.8-1.8-.8-1.8.6-.5 9.7 2.9 12.3 4.2Zm-8.1-1.6s0 .3.6.8 3.7 3.1 3.7 3.1 1.3.6 1.6.7c.3.1.7.4 1 .5.3.1.6.4.6 0s-.7-1.4-1.1-1.6c-.6-.2-5.8-4-6.4-3.5Zm75.6 24.7c.3-.9 1.1-2.2 1.6-2.4.5-.2.6-.5.6-.5s.5-.5-1.6-2-9.9-6.2-9.9-6.2-.6-.3-1.2-.7c-.6-.4-1.1-.3-1.3 0-.2.3-2.3 2.5-2.1 6 .2 3.5.5 2.6 0 4.4-.4 1.8 1.6 2 2.4 2 .8 0 3.7-.9 5.3-.4 1.6.5 4 1.2 5.5 3.2.1.1.4-2.5.7-3.4Zm5.1 4.2c.8 0 2.9-.9 2.9-2.7 0-1.9-1.8-1.9-1.8-1.9s-2.7.2-3 2.8c-.2 1.2 1.1 1.8 1.9 1.8Zm-9.6 29.6c-.8-1.4-1.5-2.8-2.2-3-.7-.2-1.2.8-2.1 2-.9 1.3-1.8 2-1.8 2s-.6.7-.6-1.3c.1-2 2.3-5.4 2.3-5.4s1.4-2.1 2.1-2.3c.7-.2 2 2.3 2 2.3l3 5.3s.8 1.3 1.4 1.4c.6.1 4.1-5.2 4.1-5.2s1.9-2.7 4-2.9c2.2-.2 3 4.8 3.4 6.1.4 1.3.4 1.5 1.5 1.9 1.1.4 3-2.6 3-2.6l3.9-4.4s-6.7-3.1-8-4.4c0 0-1.5-1.2-1.7-1.3-.2-.1-.6-.5-1.1-.2-.5.3-1.5 2.5-3.3 2.4-1.8-.1-2.9-2.9-2.9-2.9s-1.2-3.1-2.3-3c-1.1.1-2.8 1.8-3.5 3.1-.8 1.4-.9 2.1-1.8 2.1s-1.6-1.3-1.6-1.3-1.3-2.1-2.7-1.8c-1.5.3-2.9 6.9-2.9 6.9s-1.1 10.2.3 14.2c1.4 4 4.8 4.4 7.4 3.1 2.6-1.2 3.4-2.9 3.6-2.5.3.4 2 5.3 4.9 4.6 0 0 .7.1 2.2-1 1.5-1.1 7.6-5.7 10-6.9 2.5-1.2 6.5-2.1 6.9-3.2.4-1.1 1.7-5.5 1.7-5.5s-2.2-1.4-3.2-.6c-.9.8-5.1 5.8-5.1 5.8s-2.9 3.1-4.2 2.8c-1.2-.3-1.6-1.6-1.6-1.6s-3-5.4-4.1-5c-1.1.4-3.4 4.6-3.4 4.6s-1.6 2.6-3.4 2.7c-1.2.3-3.4-3.7-4.2-5Zm-33.2 42.5s.9.5 1.1 1.4c.2.8-2.2 4.8-3.7 6.6-1.5 1.9-5.2 5.2-5.2 5.2s-.7-4.8-.8-6.8c-.1-2 .6-5.9 1.4-7.6.8-1.7 2.2-1.7 2.2-1.7 2.5.2 5 2.9 5 2.9Zm-5.4-.3s-.5.1-.9 1.1-1.5 6.1-1 7.2c0 0 .1.1.4-.9.2-1 1.1-2.9 1.1-2.9s.8-2 1.1-2.3c.3-.3.4-.5.3-1.1-.1-.6-.4-.9-1-1.1Zm86.8-64.6s-1.4 0-1.4.4c0 .3 1.6.6 2.4.6.8 0 3.8.2 4.6 1.2.8 1 1.3 1.8 1.3 2.3 0 .5.1 2.2.9 2 .8-.2 1.5-1.6 1.5-2.5 0-.9-1.4-2.6-2.8-3.1-1.4-.7-2.1-.9-6.5-.9Zm-14.9 10.4s-.8-1.1-.9-.1c-.1 1-.7 7.7-1 8.5-.2.8-1.3 3.6-1.3 3.6s-.9 2.3.1 2.3c0 0 2.4-.1 4.2-.6 1.8-.5 3.2-1 3.5-1.5.2-.5.4-1-.1-2.6s-3.7-8.4-4.5-9.6Zm11 10.7s-2.1-.1-2.5 1.5c-.4 1.5.4 2.4.6 2.2.2-.2.4-.5 1.1-.4.7.1 6 .2 6 .2s4.1-.2 4.1-1.4-.9-1.7-.9-1.7-1.4.3-1.8.3c0 0-2.4.4-3.1.4-.7 0-2-.7-2-.7s-.8-.5-1.5-.4Zm17 2.7c1 0 4 .7 4 .7.5-.5.6-2.7.6-3.6 0-.9-.2-1.4-.2-1.4s-1.1.5-1.6.6c-.5.1-1.3-.1-2-.2s-3.1.5-4.1.9c-1 .4-1 .4-1.5 1.5-.6 1-1.4 2.1-1.4 2.1s5.2-.6 6.2-.6Zm10.3 1.4s2.4.4 3.5.8 1.4 1.1 2.7-.2c1.3-1.3.9-4.2.3-5.4-.6-1.2-3.3-1.2-3.3-1.2s-2.9.2-4.7.7c-1.8.5-1.5 4.9-1.5 4.9l3 .4Zm9.5-.2s4 .6 5.9-1.3c1.9-1.8 2.5-3.2 2.3-5.5-.2-2.3-1-5.1-1.8-6.7-.8-1.6-2.5-3.5-2.9-3.2-.4.3 0 1.7 0 1.7s.4 3.4-.2 4.6c-.6 1.2-2.9 5.5-3.1 7.6-.2 2.1-.2 2.8-.2 2.8Z" fill="#fff"/><path d="M123.936 36.8c2.1 1.1 4.2 5.5 5.5 7.6 1.3 2.1 4.6 4.8 5.4 5.2.7.4 5 2.4 5 2.4s1.1.6 1.3 1.3c.2.7-1.5 1.7-3.4 2-1.8.4-3.7-.5-4.9-1.4-1.2-.9-3.2-2.3-5.2-3.3s-3.7-4.6-3.7-4.6-2-4.2-2.3-4.8c-.3-.6-1.2-1.2-1.7-.8-.5.3.1 1.2.8 2.2.7 1 1 2.4 1.3 3.5.3 1.1.9 2.4.6 2.3-.3-.1-3.8-1.2-4.9-1.5-1-.4-8.8-2.7-9.7-3.1-.9-.4-.7-1.6-.7-1.6s.6-2.8 2.4-5.3c1.8-2.5 5.5-2.2 5.5-2.2 5.9.2 6.7 1 8.7 2.1Zm59 92.7c10.2-.9 11-5.2 11.5-6.4.5-1.3-.1-1.7-.2-4.6-.1-3-1.6-4.3-2.7-4.8s-1.6-2.1-6.4.6c-4.8 2.7-8.9 2.7-8.9 2.7l4 1.6c.5.3 1.3 1 .5 1.7s-2.3.8-3.1.6c-.9-.2-4-2.4-13.5-3.7-9.4-1.4-19.6-.3-19.6-.3s-.9.2-3.4-.3-5.5-1-8-1-10.5 1.5-15.9 5.4c-5.4 3.9-10.7 8.9-10.7 8.9s-3.3 3-8.2 2.9c-4.8-.2-7.7-3.1-7.7-3.1s2.1 8.8 3.7 12.3c1.7 3.5 3.2 7.1 2.9 10.1-.4 3-1.5 4.4-1.5 4.4s-.7.6.5 1.1c1.2.5 4.2 1.6 7.4 1.2 3.1-.4 10-2.2 10-2.2s4.4-1.1 6.6-1.2c2.2-.1 8.2.1 11-.4 2.9-.5 12.7-2.6 15.1-6.1 2.5-3.5 2.5-4.8 3.9-5.6 1.5-.8 1.7-.2 1.5.5-.2.7-2.3 4.5-2.3 4.5s1.7.6 4.3.3c2.7-.3 4.7-1.1 9.7-4.8 5-3.7 9.4-8.7 9.4-8.7s-4.5.5-10.3-.7c-5.8-1.2-14.9-5.3-14.9-5.3s-7.4-2.9-14-2.7c-6.6.2-13.3 1.9-13.3 1.9s-7 1.6-6.9.4c.1-1.2 1.4-1.8 1.4-1.8s8.9-5.1 15.3-4.7c6.4.4 17.6 2.2 22.5 3.5 4.9 1.3 16.9 6 21.1 6 4.2 0 6.5-.6 7.9-1.1 1.4-.4 1.3-1.1 1.3-1.1Zm.2 3.9s-6.7.4-8.9 3.5-6.2 6-6.2 6-4.7 3.6-4.2 4.2c.6.6 2.8.2 2.8.2s6.8-.7 9.5-2.7c2.9-2 4.9-3 7-11.2Zm-44.9-54.5s-.5 3.1-.6 4.1c-.1 1 .4 1.9.4 1.9l5-1.4s-1.3-5.4-4.8-4.6Zm-75.9-9.2s-1.3-3-1.7-4.4c-.4-1.4-.5-2.4-.5-4.4 0-2-1.2-2.2-1.2-2.2s-.5.1-.7.8c-.1.7-.2 2.9-.1 3.8.1.9 1 3.6 1.5 4.6.5 1 1.9 3 1.6 4.3-.3 1.3-.1 1.8-2.2 5.1 0 0 3.6-1.7 3.6-5.3l-.3-2.3Zm16.9 32.9c1.1-4.7 2.9-10.5 4.6-13.6 1.7-3.2 5.8-6.6 8.3-7.1 2.5-.5 7.2 3 7.2 3s7.7 5.9 11.6 7.9c3.9 2 5.2 2.1 7.7 2.6 2.6.5 6.6.2 6.6.2s3.4-.1 3-.7c-.4-.5-2.5-.5-2.5-.5s-2.7-.3-5.2-.8-4.6-2.3-4.6-2.3c3-3.5 9.6-2.2 11-2.4 1.4-.2-.3-2.7-.5-3.2s-2.6-.9-4.6-1.5c-2-.6-6.6-4.6-6.6-4.6l-19.7-14.9s-4.5-3.2-8.7-3.9c-4.2-.7-5.6 2.5-6.1 3.8-.5 1.3-.4 2.3 0 2.6.4.3 1.2-.2 1.2-.2s1.1-1.3 2.5-1.5c1.4-.2 2.1 1.9 2.1 1.9-2 1.7-2.6 3.2-2.7 6.7-.1 3.5 1.3 5.5 1.3 5.5s1.1.9 1.1 1.7c0 .7-.5 1.4-2.1 1.9s-2.5.1-3.5-.2c-1-.3-3.9.7-4.2.7-.3 0-1.4.3-1.5-.4-.1-.7 3.8-4 3.8-4s3.6-3.5 3.3-4.6c-.3-1.1-1-1.6-1-1.6s-3.5-2.5-5.4-5.2c-1.9-2.7-1.8-5.9-1.8-5.9.2-6.5 6.4-6.1 6.4-6.1 9.9-.4 22.2 10.3 27 14 4.8 3.7 14.6 10.6 14.6 10.6s3.8 2.3 6.1 2.6c2.3.3 4.2-3 4.4-4.3.2-1.4-.7-2.8-1.3-2.8-.6 0-.6 1.9-.6 1.9s0 1.2-1.4 1.6c-1.4.4-6.1-3.7-6.1-3.7s-6.5-6.4-14.8-14.2c-8.3-7.8-14.3-10.3-19.5-12.4-5.2-2.1-10.1-2.1-12.8-1.8-2.7.4-8 5.6-8.3 13.2-.3 7.6 8 12.5 8 12.5s2.2 1.3 2.4 1.8c.1.4-.1 1-.9 1.8-.8.9-4.1 4.5-4.6 5.8-.6 1.3-.2 1.3-.2 2.6s-3.6 3.6-3.6 3.6-14.6 10-22.9 16.3c-8.3 6.3-9.2 12.8-9.2 12.8-3.5-5.5-5.9-14-6.6-17.3-.7-3.3.1-3.5.1-3.5 1.2-.7 2.6.5 4.9 2.5 2.3 2 3.1 4.7 3.1 4.7s0 1.7.7 1.6c.7-.1.4-2.3.2-3.6-.2-1.3-1-2.5-2.1-4.2-1.1-1.7-8-7.4-8.5-7.7-.5-.4-1.1-1-1.2-1.4-.1-.4.8-.7.8-.7s.6-.1.7-1c.1-.8-1.6-3-1.5-4.4.1-1.4.5-3.2 1.8-5.4s8-13.9 9.9-18.5c1.8-4.6 4.7-6 4.7-6s2.5-1.3 3-.1.8 5.6.8 6.5c0 .9.1.9.1.9.6-.2 1.4-3 2.1-5 .7-2 .4-4.1.1-4.5-.3-.4-.8-2.8-.8-2.8 1.8-.6 4.4-2.3 5.4-3.7 1-1.4 1.2-1.1 1.2-1.1 1.5-.2 4.4 2.5 4.8 3 .4.5 1.3.5 1.2-1.3-.1-1.8-2.2-3-2.2-3l-2.5-1.3-.1-1.4s.1-2.2-.7-2.2c-.8 0-1.5 1.1-2.6 3-1 1.9-2.6 2.9-2.6 2.9-3 1.8-6.8 2.7-14.5 2-7.7-.7-11.1-7.4-11.4-8.4-.3-1 .2-1.6.2-1.6s.5-.5 1.4-.2c.9.2 4.1 1.2 8.1.8 0 0 .3.5-.4 1.3-.6.8-.8 1.6-.8 1.6s.1.3 1.7-.8c1.5-1.1 1.2-1.9 2.4-2.5 1.1-.6 2.1-.9 3.7-2.9 1.6-1.9 3-4.4 3-4.4s.9-1.7 2.2-1.7c1.3 0 4.6.7 5.5 1.1.9.3 4.7 1.2 6.9 3.6 2.2 2.4 6.4 7.9 6.4 7.9s3.9 5 5 5.9c1 .9 2.2 2.1 2.9 1.3 0 0 .2-.2-.1-1-.3-.8-.6-1.3 0-1.6.6-.3 9.4-3 18.7-1 0 0 8.2 2.4 12.2 3.7 4 1.3 16.2 5.3 16.2 5.3s5.8 1.9 8.2 3.2c2.4 1.4 7.4 5.1 7.4 5.1s1.6 1.2 1.3 1.5c-.2.3-1 .2-1 .2s-1 0-.9.6c.1.6 1.9.9 1.9.9s5.3.3 6.4.7c0 0 2.5.5 7.9 3.3 5.4 2.9 6.2 3.8 7 6 .8 2.2.9 4.9 0 5.9-.8 1-3.1 1.7-6 1.6-2.9-.1-8.1-.8-11.9-4.5-3.9-3.7-5-8-5-8s-1.8-4-3-5.3c-1.2-1.3-3.3-4-4.4-3.6 0 0-.3.1 0 .9s5.4 9 5.4 9-1.6.3-5.7-3.9-9.7-8.1-11.1-7.9c-1.3.2-2.1.4-2 1 0 .6 1.6 1.6 1.6 1.6l14.5 11.5s3.9 2.8 4.3 6.7c.4 3.9-.8 6.5-3.1 8.2-2.3 1.7-4.4 3-4.6 3.5-.2.5.7.2 1 .2.3 0 9.4-2.9 11.5-3.4 2.1-.6 6.7-1.7 8.4-1.6 1.7 0 4 .6 6.5 3.2 2.6 2.6 2.4 3.3 2.4 3.3s-.4.7.9.6c1.4-.1 4.6-1 8.5.7 3.9 1.7 6.1 5 6.5 7.4.4 2.4.3 5.1-.5 5.5-.8.4-2 .2-2 .2s-3.4-.7-4.4-.7c-1 .1-4.6.2-4.8.2-.2 0-3.5.2-6-1.6 0 0-.7-.6-1.1-1.1-.3-.5-.8-.8-1-.5-.2.3 0 1.2 0 1.2s0 1.3-1 2.1-4.3 2.8-6.2 2.8c-2 0-3.1-.8-6.5-.7-3.4.1-3.3.2-3.6-.6-.2-.8-3.7-10-9.2-10.8 0 0-.7-.1-.7 1.2v2.8c0 .9.6 5.8-.7 5.7-1.2-.1-3-1.4-3-1.4l-10.4-6.7-12.3-9s-4.3-2.9-6.7-2.7c-2.4.2-4.5 3.2-4.9 4.8-.4 1.6-.1 2.2.2 2.1.3-.2 2.1-2 2.4-1.9.3.1.4 1.1.4 1.1s-2.1 4.3-3.3 8.3c-1.3 4-3 11.5-2.3 18.4.8 6.9 1.7 13.2 3.2 17.8 1.5 4.6 5 11.9 5 11.9s1 2.1.4 4.1c-.6 2-2.1 7-8.6 7.1-6.4 0-13.4.1-16.4-2.6-3-2.7-4.9-6.5-12.5-8 0 0-4-.1-5.3-1.1-1.3-1-3.2-2.7-6.3-8.8-3.1-6-6.2-13.8-6-17.6.2-3.8 2.9-7.2 2.9-7.2s4-5.6 10.4-10.4c6.4-4.8 17.9-12.8 17.9-12.8s7.3-5.1 11.4-5.2c0 0-2 3.3-3.1 9-1.2 5.7-3.1 10.5-3.1 10.5s-.9 1.6.2 1.7c1.1 0 2.6-.1 3-1.4.5-1.1.8-2.9.8-2.9Zm56.6-8.2c1.9.5 7.2 1.6 8.4 1.8 1.2.2 3.7 1.8 4.8 3.4 1.1 1.7 2.6 1.8 2.6 1.8 1.9.2 4.3-3.3 4.7-6.7.4-3.4-1.6-5.7-1.6-5.7s-2.5-3-8.9-2.6c0 0-2.3.6-5.9 1.9-3.6 1.3-7 2-7.7 3.9-.5 1.4 1.7 1.7 3.6 2.2Zm-12.8 3.4s-1.4.2-1.5 1.5c-.1 1.3 1.4 1.4 1.7 1.3.3-.1 1.2-.8 1-1.7-.2-1-1.2-1.1-1.2-1.1Zm11.7-2.1s-1.6.1-1.8 1.5c0 0 .1 1.2 1.6 1.1 1.5-.1 1.9-1.1 1.8-1.4.1-.3.1-1.2-1.6-1.2Zm5.7 2.9s-1.7.1-1.8 1.9c0 0 .3 1.8 1.9 1.7 1.7-.1 1.7-1.8 1.7-1.8s.1-1.5-1.8-1.8Zm23.9-.4s2.1 0 1.8-1.9c-.3-1.9-2-1.7-2-1.7s-1.6-.1-1.7 1.5c-.1 1.7 1.9 2.1 1.9 2.1Zm5-1.2s-1.3 0-2 1.3c-.6 1.3.1 1.9.5 2 .4.1 1.5-.1 2-.9.6-.8 1-2-.5-2.4Zm-77.4-53.9s-3.8-1.3-4.3-.3 2.4 1.5 2.4 1.5 4.7 2.3 5.8 3.2c1 .9 3.2 3 4.3 3.3 1.1.3 2 .6 2.3-.2.3-.8-.5-2.3-1.1-2.7-.6-.3-6.8-3.9-9.4-4.8Zm-35.1 76.1s.2 3.6.9 3.5c.7-.1 1.4-1 1.6-1.4.2-.4 2.4-6.1 3-7.7.6-1.6 6.3-13.5 10.1-17.3 3.8-3.8 4.1-3.7 4.2-4.6.1-.8-1.4-1.2-2.5-.5s-5 2.2-12.4 15.1c-.1.1-4.3 7-4.9 12.9Z" fill="#C3C7CD"/><path d="M115.236 174.4v-5.6h-1.8v-.7h4.4v.7h-1.8v5.6h-.8Zm9.5 0v-6.3h-1.2l-1.9 5-1.9-5h-1.2v6.3h.7v-5.5l2.1 5.5h.5l2-5.5v5.5h.9Z" fill="#1C3063"/></svg>