<svg width="200" height="200" xmlns="http://www.w3.org/2000/svg"><g fill="none" fill-rule="evenodd"><path d="M199.818 99.775c0 12.056-4.853 23.646-16.082 34.638-5.703 5.577-12.868 10.108-19.134 13.78-11.83 6.93-40.03 14.745-55.08 14.745-6.218.464-12.593.464-19.125 0-15.114 0-42.71-7.764-54.78-14.544-9.361-5.25-20.595-13.15-27.65-23.614C2.289 116.37 0 108.02 0 99.775 0 87.593 5.693 74.798 16.998 64.32c5.815-5.401 12.88-9.669 18.82-13.166 11.98-7.055 40.655-14.544 55.757-14.544 3.578-.464 9.168-.464 16.768 0 15.265 0 43.124 7.276 55.356 14.344 5.364 3.095 11.124 6.447 16.425 10.958 13.886 11.856 19.694 25.028 19.694 37.862" fill="#000" fill-rule="nonzero"/><path d="M195.807 99.775c0 10.928-5.18 22.908-16.283 33.034-5.602 5.114-12.417 9.281-18.533 12.677-11.48 6.367-37.922 13.442-52.372 13.442h-17.32c-13.21 0-41.307-7.175-50.87-12.64-5.05-2.882-10.305-5.855-15.606-9.665C14.258 129.03 4.11 113.41 4.11 102.92v-6.29c0-8.685 8.163-23.06 16.498-30.104 6.667-5.652 13.82-9.994 20.525-13.466 11.642-6.028 36.956-12.438 51.343-12.438h14.964c14.675 0 40.992 6.799 53.149 13.341 6.993 3.76 16.267 9.785 21.944 15.776 9.074 9.574 13.273 20.11 13.273 30.037z" fill="#DFA71C"/><path d="M191.396 100.226c0 7.281-2.29 14.402-7.19 21.884-10.401 15.879-26.92 22.554-40.568 26.952-6.405 2.056-26.046 5.655-35.019 5.655H94.307c-14.6 0-38.671-5.356-50.966-11.033-5.677-2.62-11.828-5.997-17.517-10.471-11.856-9.324-16.8-21.094-16.8-32.085 0-18.373 11.345-34.648 34.518-45.263 6.128-2.807 12.677-5.053 18.756-6.795 6.378-1.83 25.304-5.44 34.09-5.44h13.56c26.73 0 69.79 18.32 75.322 38.285h-43.978c-6.66-10.311-26.62-17.03-36.583-17.03h-9.8c-1.592 0-10.089 1.552-10.126 1.564-18.974 5.126-31.044 15.893-31.044 31.972 0 24.138 25.792 34.44 42.748 34.44h7.746c10.665 0 34.114-6.366 37.44-21.01v-.262H82.228V94.374h108.549c.255 1.508.619 4.223.619 5.852z" fill="#000"/></g></svg>