<svg width="200" height="200" fill="none" xmlns="http://www.w3.org/2000/svg"><path d="M87.468 100.445H69.694l-2.074 7.738h17.718l2.13-7.738ZM64.648 119.004h17.718l1.906-7.065H66.554l-1.906 7.065ZM88.31 97.362l2.298-8.41H72.89l-2.299 8.41H88.31Z" fill="#623493"/><path d="m115.783 118.724-13.232-4.766-1.738 6.336c-.505 1.738-2.411 3.14-4.317 3.14H63.415l-1.739 6.448c-.336 1.233-.056 2.579.673 3.588a4.226 4.226 0 0 0 3.308 1.626h48.893l3.364-12.279a3.451 3.451 0 0 0-2.131-4.093ZM93.524 78.41c.112-.337.28-.673.448-.953H76.03l-.505 1.906-1.962 7.177h17.718l2.243-8.13Z" fill="#623493"/><path d="m76.647 75.214-.112.392h36.557l-.504 2.019a3.381 3.381 0 0 0 2.074 4.037l13.233 4.822 4.709-17.27a4.12 4.12 0 0 0-.729-3.588A4.223 4.223 0 0 0 128.567 64H75.021c3.308 4.934 2.243 8.859 1.626 11.214ZM25.96 100.445H8.242l-2.13 7.738h17.717l2.13-7.738ZM29.1 88.951H11.382l-2.299 8.41h17.718l2.299-8.41ZM22.82 111.939H5.046l-1.906 7.065h17.718l1.962-7.065ZM32.015 78.41c.112-.337.225-.673.449-.953l-17.998.168-2.467 8.915h17.718l2.298-8.13Z" fill="#623493"/><path d="m15.139 75.214-.168.617 36.613-.169-.56 2.019a3.382 3.382 0 0 0 2.074 4.037L66.33 86.54l4.71-17.27a4.123 4.123 0 0 0-.729-3.588A3.837 3.837 0 0 0 67.115 64H13.513c3.308 4.934 2.299 8.859 1.626 11.214ZM61.06 100.894a3.344 3.344 0 0 0-2.692-1.346H35.324l6 7.009c.784 1.177 1.008 2.747.56 4.317l-2.523 9.307a4.39 4.39 0 0 1-4.262 3.252H1.906l-1.738 6.448c-.336 1.234-.056 2.58.673 3.589a4.226 4.226 0 0 0 3.308 1.626h48.893l8.578-31.287c.28-1.009.056-2.074-.56-2.915ZM126.1 119.004h17.774l1.907-7.065h-17.718l-1.963 7.065ZM149.818 97.362l2.298-8.41h-17.774l-2.299 8.41h17.775ZM148.976 100.445h-17.774l-2.13 7.738h17.774l2.13-7.738Z" fill="#623493"/><path d="m177.796 64-15.419 56.182c-.504 1.906-2.299 3.252-4.261 3.252h-33.249l-1.738 6.448c-.337 1.233-.057 2.579.672 3.588a4.227 4.227 0 0 0 3.308 1.626h48.893l16.485-60.33c.616-2.412 1.794-7.626 7.513-10.766h-22.204ZM155.256 77.4h-17.718l-2.523 9.14h17.774l2.467-9.14ZM138.155 75.214l-.112.392h17.774L158.957 64h-22.428c3.308 4.934 2.243 8.859 1.626 11.214ZM181.329 131.9h-.897v-.448h2.355v.448h-.898v2.635h-.56V131.9Zm3.196 2.579-.897-2.467v2.467h-.449v-3.027h.729l.841 2.523.841-2.523h.673v3.027h-.505v-2.467l-.841 2.467h-.392Z" fill="#623493"/></svg>