<svg width="200" height="200" xmlns="http://www.w3.org/2000/svg"><path d="M0 133.042V82.26c3.701-4.643 7.411-9.235 11.13-13.777a427.51 427.51 0 0 1 40.989-6.631c3.55 3.142 7.102 6.33 10.658 9.561v12.749a427.919 427.919 0 0 0-20.231 2.247V80.14a1475.8 1475.8 0 0 0-2.231-2.03 427.55 427.55 0 0 0-16.74 2.692 1338.144 1338.144 0 0 0-3.592 4.28v37.29c1.196.941 2.393 1.887 3.591 2.84a427.793 427.793 0 0 1 16.74-2.694c.744-.848 1.488-1.694 2.232-2.538v-10.306a427.95 427.95 0 0 0-14.848 2.274v-14.66a427.749 427.749 0 0 1 35.08-4.52v30.703c-3.557 3.85-7.11 7.746-10.659 11.686a427.914 427.914 0 0 0-40.99 6.631A972.901 972.901 0 0 0 0 133.042m69.106-10.712V71.547a1243.91 1243.91 0 0 1 11.326-11.926 427.466 427.466 0 0 1 38.611-.012c3.813 3.925 7.624 7.9 11.433 11.928V86.94a427.52 427.52 0 0 0-20.309-.972v-8.605c-1.105-1.125-2.21-2.245-3.316-3.361-4.6-.075-9.2-.076-13.8-.003a1187.132 1187.132 0 0 0-3.637 3.686v36.972c1.212 1.139 2.425 2.283 3.637 3.432 4.6-.073 9.2-.073 13.8.002a1185.99 1185.99 0 0 1 3.316-3.12v-9.242a427.52 427.52 0 0 1 20.309.972v15.617c-3.809 3.481-7.62 7.013-11.433 10.595a427.953 427.953 0 0 0-38.611.011 1147.135 1147.135 0 0 0-11.326-10.595m69.976.695V72.885c-1.23-.113-2.46-.221-3.69-.323V60.656a427.98 427.98 0 0 1 27.747 3.228V75.79a414.382 414.382 0 0 0-3.94-.57v42.17c1.203 1.373 2.407 2.751 3.609 4.134 3.234.48 6.464.999 9.688 1.555 1.2-.997 2.398-1.99 3.596-2.977v-42.17a381.42 381.42 0 0 0-3.82-.674V65.35a427.58 427.58 0 0 1 27.456 5.647v11.906c-1.208-.29-2.416-.575-3.626-.854v50.139a974.639 974.639 0 0 0-11.25 8.822 427.47 427.47 0 0 0-34.477-5.534c-3.76-4.201-7.525-8.352-11.293-12.453m55.151 16.537h-1.053v-.4h2.6v.4h-1.053v3.3h-.494v-3.3m3.555 3.3l-.998-3.119h-.015v3.12h-.46v-3.7h.742l.973 3.171h.015l.968-3.171h.715v3.7h-.463v-3.12h-.01l-.993 3.12h-.474" fill="#592B94"/></svg>