<svg width="200" height="200" xmlns="http://www.w3.org/2000/svg"><g fill="none" fill-rule="evenodd"><path d="M21.854 22 0 43.854v68.105l21.854 21.854h60.684v43.252h95.353l22.088-21.854V132.4l-11.969-11.97 11.97-11.968V85.648L177.89 63.794H49.083v26.5h33.455v17.02h-49.08V48.5h83.983V22H21.854Zm95.587 86.62h49.08V90.294h-49.08v18.326Zm0 41.945h49.08v-18.327h-49.08v18.327Z" fill="#0D5640"/><path d="M105.009 115.371h72.888V82.233h-72.888v33.138Zm83.594-24.837-18.68-18.679H57.143v10.378h37.158v33.14H21.75V40.44h87.63V30.061H28.875l-17.832 18.08v58.829l18.78 18.782h64.48v42.551h76.22l18.08-18.08V134.28l-10.705-10.414v34.761h-72.888v-32.874h63.868l19.726-19.172V90.534Z" fill="#143129"/></g></svg>