<svg width="200" height="200" fill="none" xmlns="http://www.w3.org/2000/svg"><path d="M196.054 41.934c-2.235-3.206-5.009-5.717-7.171-7.4a39.316 39.316 0 0 0-3.096-2.18l-.437-.276 4.173-8.914L180.524 19l-7.523 6.938-6.45-3.185-7.684 9.033 3.995 2.671-7.311 7.303-.411-.34a89.476 89.476 0 0 1-2.49-2.141l-4.826-4.572-1.997 1.616c-7.709 6.238-6.234 15.937-4.631 21.297l.098.33-6.828 6.955h-32.102v14.542h-13.9V64.905h-21.73l-7.773-7.811.09-.327c1.458-5.406 2.467-14.498-4.878-20.444l-2.082-1.688-4.677 4.814c-.776.69-1.548 1.352-2.282 1.967l-.407.335-7.54-7.323 3.948-2.642-7.684-9.033L27 25.938 19.476 19l-8.998 4.164 4.172 8.914-.437.276c-.733.462-1.84 1.2-3.095 2.18-2.163 1.687-4.94 4.194-7.171 7.4-4.66 6.691-6.76 16.314 2.705 26.767 12.981 14.338 29.999 10.135 37.551 6.123l.4-.212 5.368 5.81 4.1 5.394v40.452l-15.893 20.906h12.845l-31.225 32.107c28.167 8.964 50.545-11.942 64.404-26.161 4.376 6.094 11.517 10.063 19.592 10.063l12.085-.004h10.161c26.759 22.153 44.637 20.105 55.031 16.326l-19.473-19.473a6.521 6.521 0 0 0 3.982-6c0-3.469-2.722-6.294-6.149-6.501a24.078 24.078 0 0 0 1.527-8.452l.021-40.024 16.301-20.978c5.471-1.099 11.09-3.889 16.064-9.38 9.469-10.454 7.37-20.072 2.71-26.763Zm-36.11 109.816.84 2.269.886-2.269h1.069l.623 4.249h-1.073l-.301-2.447h-.012l-.993 2.447h-.428l-.946-2.447h-.012l-.344 2.447h-1.069l.7-4.249h1.06Zm31.229-85.021c-13.515 14.927-32.017 7.54-36.241 4.075l-10.767 12.167h24.625l-11.331 14.901-.021 41.211a20.508 20.508 0 0 1-6.297 14.809l23.934 24.053c-.924.123-2.192.479-2.192.479s-18.053 4.003-46.046-18.765h-10.962l-12.086.004c-8.15 0-15.194-4.741-18.527-11.611l-.789.568c-13.66 14.203-35.325 31.666-57.364 29.808 0 0-1.268-.356-2.192-.479l34.125-34.29H45.276l12.315-16.195V84.629l-1.221-1.603L45.069 70.8c-4.211 3.46-22.726 10.865-36.25-4.071-16.797-18.553 7.65-32.318 7.65-32.318l2.036-1.005-4.126-8.813 4.542-2.103 7.565 6.976L32.69 26.4l4.067 4.78-4.228 2.824 10.11 9.817s-5.433 4.843-11.67 6.458l-8.961-10.733s-8.134 4.822-2.464 11.242c3.96 4.487 14.652 4.415 29.901-9.22l2.88-2.96c6.772 5.48 4.923 14.55 3.307 19.304L66.098 68.43h18.846v14.542h20.944V68.429h28.014l10.466-10.517c-1.62-4.758-3.464-13.824 3.308-19.303l2.99 2.833c15.249 13.63 25.83 13.833 29.79 9.346 5.666-6.42-2.468-11.242-2.468-11.242l-8.562 10.44c-4.423-.521-11.742-6.2-11.742-6.2l9.783-9.782-4.228-2.825 4.067-4.779 6.204 3.066 7.566-6.976 4.541 2.103-4.126 8.813 2.031 1.005c0-.005 24.448 13.765 7.651 32.318Zm-35.982 85.954v-.933h2.849v.937h-.886v3.312h-1.073v-3.312h-.89v-.004ZM27.343 50.513l-1.34-.068c-2.138-.106-3.58-.832-4.258-1.6-1.493-1.691-1.344-3.298-.602-4.54l.424-.71 5.776 6.918Zm145.472-.039 5.631-6.861.429.725c.729 1.238.856 2.833-.624 4.508-.661.75-2.048 1.45-4.105 1.56l-1.331.068Z" fill="#fff"/><path d="M47.389 49.88c-8.143 6.035-19.08 10.907-27.934 6.531-10.05-4.97-5.678-14.172-5.678-14.172s-11.586 11.683.195 21.674C24.17 72.563 33.3 68.565 33.3 68.565 14.175 65.359 13.565 56.66 13.565 56.66s10.55 8.19 23.773 4.53c13.222-3.656 10.05-11.31 10.05-11.31ZM30.79 38.448l-6.331.547 2.985 3.71 3.346-4.257Z" fill="#fff"/><path d="m31.036 47.344 3.346-4.257-6.327.547 2.981 3.71ZM46.383 65.85l2.384 2.58h3.252l-3.83-4.055c-.593.522-1.2 1.013-1.806 1.476ZM52.397 59.545c-.344.538-.713 1.06-1.103 1.56l7.133 7.324h2.922l-8.952-8.884ZM172.552 42.705l2.986-3.71-6.328-.547 3.342 4.257ZM168.96 47.344l2.981-3.71-6.327-.547 3.346 4.257ZM89.01 97.419h13.757v-8.622H83.604l5.406 7.108v1.514Z" fill="#fff"/><path d="M112.682 136.857h19.16l-5.403-7.112V82.339l5.403-7.112h-19.16v26.275H78.146V75.227h-19.16l5.403 7.112v47.406l-5.402 7.112h19.16v-25.156h34.535v25.156Z" fill="#fff"/><path d="M137.88 139.003c-.012 2.608-2.052 4.652-4.584 4.652h-25.944c-2.532 0-4.576-2.044-4.585-4.652v-23.214H89.023l.013 23.29c0 8.15 6.607 14.757 14.758 14.757h33.069c8.15 0 14.757-6.607 14.757-14.757l.021-43.174 5.407-7.112h-19.159v50.21h-.009ZM148.834 61.08a28.175 28.175 0 0 1-.976-1.68l-9.198 9.03h2.71l7.464-7.35ZM151.747 64.842 134.64 82.97h2.875l15.504-16.84a30.547 30.547 0 0 1-1.272-1.29ZM186.219 42.243s4.368 9.207-5.678 14.172c-8.85 4.377-19.791-.496-27.933-6.53 0 0-3.172 7.65 10.05 11.31 13.223 3.66 23.774-4.53 23.774-4.53s-.611 8.698-19.737 11.904c0 0 9.131 4 19.329-4.652 11.777-9.99.195-21.674.195-21.674ZM66.569 143.65 39.072 172.3c24.88-9.741 30.559-19.562 30.559-19.562s.593 2.574-.475 5.258c6.149-4.342 11.072-9.316 14.727-13.659-.059-.229-.114-.458-.17-.691H66.57v.004ZM137.312 159.655c4.626 3.57 12.043 8.116 23.612 12.645l-14.427-15.033a20.414 20.414 0 0 1-9.185 2.388Z" fill="#fff"/><path d="m57.29 73.777 5.445 10.194v44.252l-7.523 9.957H79.77v-24.117h7.082v29.587l4.648 8.1 8.498 4.249h41.504l7.616-4.249 3.901-10.029V97.419l7.752-9.686H128.89V82.97l7.523-9.067h-26.992l.267 12.447-29.07.055.038-12.502-23.366-.127Z" fill="#fff" stroke="#000" stroke-miterlimit="10"/><path d="m183.522 34.406-2.031-1.005 4.126-8.812-4.542-2.103-7.565 6.976-6.204-3.066-4.067 4.779 4.228 2.824-9.783 9.783s7.319 5.679 11.742 6.2l8.562-10.44s8.134 4.822 2.468 11.242c-3.96 4.486-14.541 4.283-29.79-9.347l-2.99-2.832c-6.772 5.479-4.924 14.55-3.308 19.303l-10.466 10.517h-28.014v14.541H84.944v-14.54H66.098L55.632 57.907c1.62-4.758 3.465-13.824-3.308-19.303l-2.88 2.96c-15.249 13.63-25.944 13.701-29.9 9.219-5.666-6.42 2.464-11.242 2.464-11.242l8.96 10.733c6.238-1.616 11.67-6.459 11.67-6.459L32.529 34l4.229-2.824-4.067-4.78-6.204 3.067-7.566-6.976-4.541 2.103 4.126 8.812-2.036 1.005s-24.447 13.77-7.65 32.319c13.524 14.935 32.038 7.531 36.25 4.07l11.3 12.227 1.222 1.602v42.827l-12.315 16.195h13.765l-34.124 34.29c.924.123 2.192.48 2.192.48 22.035 1.857 43.705-15.602 57.364-29.808l.789-.568c3.333 6.874 10.377 11.611 18.527 11.611l12.086-.005h10.962c27.993 22.768 46.045 18.765 46.045 18.765s1.268-.356 2.193-.479l-23.934-24.053c3.88-3.745 6.297-8.995 6.297-14.808l.021-41.211 11.331-14.902h-24.625l10.767-12.167c4.223 3.465 22.725 10.848 36.241-4.075 16.797-18.54-7.651-32.31-7.651-32.31ZM168.96 47.345l-3.342-4.258 6.327.543-2.985 3.715Zm3.592-4.64-3.342-4.257 6.327.543-2.985 3.714Zm-138.17.382-3.342 4.258-2.985-3.71 6.327-.548Zm-3.592-4.64-3.341 4.258-2.986-3.71 6.327-.547Zm117.068 20.954c.297.547.619 1.111.976 1.68l-7.464 7.348h-2.71l9.198-9.028Zm-45.091 29.396v8.622H89.015v-1.51l-5.407-7.112h19.159Zm-65.43-27.602c-13.222 3.66-23.773-4.53-23.773-4.53s.611 8.698 19.737 11.904c0 0-9.13 4-19.33-4.652-11.776-9.99-.194-21.674-.194-21.674s-4.368 9.207 5.678 14.172c8.85 4.377 19.791-.496 27.933-6.53 0-.004 3.172 7.65-10.05 11.31Zm11.43 7.234-2.384-2.578a31.893 31.893 0 0 0 1.802-1.476l3.83 4.054h-3.249Zm2.527-7.323c.39-.5.759-1.022 1.102-1.56l8.953 8.883h-2.922l-7.133-7.323ZM69.16 158c1.068-2.684.475-5.259.475-5.259s-5.679 9.818-30.559 19.563l27.497-28.65h17.15c.05.233.11.462.169.691-3.664 4.334-8.583 9.308-14.732 13.655Zm8.986-46.3v25.156h-19.16l5.407-7.112V82.339l-5.407-7.112h19.16v26.275h34.536V75.227h19.159l-5.407 7.112v47.406l5.407 7.112h-19.159v-25.156H78.146Zm82.778 60.599c-11.569-4.529-18.986-9.079-23.612-12.645a20.448 20.448 0 0 0 9.185-2.388l14.427 15.033Zm-3.885-83.503-5.407 7.112-.021 43.174c0 8.151-6.607 14.758-14.757 14.758h-33.069c-8.15 0-14.758-6.607-14.758-14.758l-.012-23.29h13.744v23.214c.012 2.608 2.052 4.652 4.584 4.652h25.944c2.532 0 4.572-2.044 4.584-4.652v-50.21h19.168Zm-19.524-5.826h-2.875l17.107-18.13c.403.438.827.866 1.272 1.29l-15.504 16.84Zm48.509-19.058c-10.198 8.651-19.329 4.652-19.329 4.652 19.126-3.206 19.736-11.904 19.736-11.904s-10.55 8.19-23.773 4.53c-13.222-3.66-10.05-11.31-10.05-11.31 8.142 6.034 19.079 10.907 27.933 6.53 10.051-4.97 5.678-14.172 5.678-14.172s11.582 11.687-.195 21.674Z" fill="#2B5597"/><path d="M157.154 155.999v-3.316h.887v-.933h-2.85v.933h.886v3.316h1.077ZM158.185 155.999h1.068l.344-2.447h.012l.946 2.447h.428l.993-2.447h.012l.302 2.447h1.072l-.623-4.249h-1.069l-.89 2.269-.836-2.269h-1.06l-.699 4.249Z" fill="#2B5597"/></svg>