<svg width="200" height="200" xmlns="http://www.w3.org/2000/svg"><g fill="none" fill-rule="evenodd"><path d="M157.713 197.326c-13.662-4.703-25.11-8.119-37.673-9.942-6.023 4.164-12.703 8.15-20.113 11.882l-2.199 1.107-2.199-1.107c-7.39-3.721-14.059-7.697-20.077-11.85-12.479 1.832-23.876 5.235-37.457 9.91l-1.72.592 3.833-16.074-2.94-1.089-.132.07c-5.55 2.959-11.611 5.583-17.209 8.31l-1.438.7v-51.882L6.512 119.279h17.98c-5.302-17.949-4.441-30.905-4.433-31.022v-3.591h51.465V80.74c-3.084-.705-6.059-2.27-8.485-5.011l3.366-2.428s-3.21-1.018-5.402-3.524l-.558-.705-40.404-.054.441-3.935c.028-.25 1.422-12.46 10.578-25.925 9.237-13.584 26.357-28.386 57.476-33.417l7.075-.58c-.832.875-1.55 2.159-2.197 3.38-1.41 2.663-1.644 3.603-1.506 5.4.206 2.697 2.371 4.473 5.297 4.473 2.926 0 5.1-1.96 5.298-4.473.149-1.875-.243-3.285-1.339-5.4-.595-1.147-1.293-2.386-2.154-3.34l6.935.607c33.666 5.56 51.191 23.335 59.727 37.658l23.179-37.912 2.655-4.373s1.94 13.608-.156 25.684c-4.532 26.103-12.41 40.343-21.655 57.8h5.145l.07 3.592c.01.116.962 13.073-4.237 31.022h17.985L176.9 137.761v52.015l-1.437-.699c-5.821-2.83-11.583-5.77-17.585-8.193l-.123-.05-2.188.863 3.865 16.22-1.719-.591zM127.336 69.292c2.114 1.112 7.256 2.052 7.256 2.052s-3.293 2.584-7.173 3.772c-4.242 1.3-7.388.881-8 1.084v1.834h4.135v6.621l16.91.01 9.468-15.358-22.596-.015z" fill="#FFF" fill-rule="nonzero"/><path d="M142.924 88.29l13.55-22.583-37.316.006-2.18 1.872s3.517 3.698 10.334 3.993c0 0-5.168 2.428-12.526.94l-.04 6.5-9.744 5.706H88.748l-7.166-8.239s-7.27 3.707-12.995-.982c0 0 2.202-.949 3.434-3.848 0 0-5.381-.468-8.025-3.904l3.605-2.038-42.845-.008s5.21-46.803 64.587-56.404c-1.09 1.315-1.729 2.914-1.729 4.64 0 4.473 4.294 8.099 9.591 8.099 5.298 0 9.592-3.626 9.592-8.099 0-1.697-.619-3.273-1.677-4.575 37.771 6.237 53.473 27.575 59.883 42.125l23.842-39.738s-.157 9.005-.902 14.152c-3.25 22.45-12.4 39.686-21.623 57.104-.957 1.81-1.896 3.573-2.808 5.282h6.69s1.194 14.825-5.472 34.626h17.22l-8.732 13.726v47.202l-5.685-2.763a128.671 128.671 0 0 0-9.549-4.164l-.666.084-6.073 2.397 3.053 12.81-6.223-2.142c-8.915-3.069-18.883-5.423-29.86-6.74-6.091 4.279-12.893 8.376-20.487 12.199-7.577-3.816-14.37-7.903-20.461-12.172-10.887 1.323-20.779 3.666-29.632 6.713l-6.224 2.143 3.036-12.731-6.696-2.481-.407-.057a128.78 128.78 0 0 0-9.584 4.187l-5.688 2.771v-47.064l-8.854-13.918h17.246c-6.776-19.801-5.686-34.626-5.686-34.626h51.04v-6.786h6.64l4.196 9.444-10.138 7.965h12.232l-5.243 11.513 13.629-7.675 14.341 7.675-5.243-11.513h12.232l-10.138-7.965 4.197-9.444h6.64v6.786h23.761" fill="#1A5DAD" fill-rule="nonzero"/><path fill="#FFF" fill-rule="nonzero" d="M82.465 81.523h3.499l2.784 3.2h16.254l5.465-3.2h2.047l-4.188 9.426 10.138 7.965h-12.232l5.243 11.513-14.341-7.675-13.629 7.675 5.243-11.513H76.516l10.138-7.965-4.189-9.426"/><path fill="#1A5DAD" fill-rule="nonzero" d="M97.078 86.615L89.39 98.231l7.687-2.048 8.511 2.048-8.511-11.616"/><path d="M97.245 107.765c3.506 0 6.552 2.421 6.552 5.64 0 3.217-3.046 5.638-6.552 5.638s-6.552-2.421-6.552-5.639c0-3.218 3.046-5.64 6.552-5.64m29.597-5.882l8.455 3.994 50.691-84.61s.039 1.058-.588 4.816c-3.662 21.984-12.101 38.394-21.293 55.754-8.019 15.142-14.643 27.114-16.441 29.913l8.22 3.994-3.601 6.813-29.328-13.98 3.885-6.694M72.824 62.573l4.228-18.95 21.137-7.83 10.804 3.445 2.035 5.794-12.37-3.601-18.005 5.794-5.637 13.939-2.192 1.41m2.438 5.345c.12-1.703 1.163-3.075 2.338-3.702-.275.772-1.053 2.074-.43 3.76.665 1.8 2.252 2.378 3.875 1.918 1.734-.492 2.605-2.316 2.191-4.072-.232-.988-.805-1.62-1.499-2.127 2.222.489 3.434 1.87 3.691 3.967.34 2.766-2.15 5.022-4.932 5.168-2.975.157-5.432-2.119-5.234-4.912" fill="#FFF" fill-rule="nonzero"/><path d="M139.703 108.083l34.237-57.957c-3.414 10.098-9.058 20.557-13.916 29.732-7.932 14.981-14.543 26.832-16.322 29.602l-.263.41-3.736-1.787" fill="#1A5DAD" fill-rule="nonzero"/><path d="M83.471 18.575c0-.838.083-1.656.242-2.45 1.205 6.046 6.787 10.617 13.492 10.617 6.706 0 12.288-4.571 13.494-10.617.158.794.24 1.612.24 2.45 0 7.217-6.148 13.067-13.734 13.067-7.585 0-13.734-5.85-13.734-13.067m-32.439 47.13c-.138-2.956-.3-19.04 11.42-31.77 0 0-16.926 11.24-18.104 31.77h6.684m92.748 0c.139-2.956.3-19.04-11.419-31.77 0 0 16.926 11.24 18.103 31.77h-6.683m-80.753 57.242c-2.129-4.574-4.236-9.183-4.236-9.183l-4.102 4.182c-5.421-7.794-9.939-24.562-11.236-29.689h20.234c2.11 6.775 5.095 14.927 8.419 19.706l4.102-4.183s4.05 9.415 9.138 19.167H63.028" fill="#FFF" fill-rule="nonzero"/><path fill="#1A5DAD" fill-rule="nonzero" d="M52.865 88.257l1.563 17.124-8.417-17.124h6.854m8.509 0l1.473 16.133-7.93-16.133h6.457"/><path fill="#FFF" fill-rule="nonzero" d="M115.336 122.947l10.568-9.722 18.694 9.084v.638h-29.262M89.134 47.78l9.681-3.06 9.8 2.7-20.18 4.196 3.648-3.06-2.95-.776m21.895 2.03l.783 2.818-4.17.04 1.352 5.207c2.818.235 3.914-1.801 3.914-1.801l1.568 5.871-1.468 3.212s-2.448-1.88-4.719-2.427l.627-2.115-3.104-.677-3.144 1.241 2.333-9.02-2.283-.839c2.542-.442 6.504-1.177 8.311-1.51m-6.554 15.582s-3.836 4.699-11.452 4.229c0 0 1.929 2.171-.194 3.974-2.122 1.803 2.308 2.995 2.308 2.995s2.066-3.49 6.654-3.133c4.595.358 3.758 3.603 3.758 3.603h2.292l2.584-5.873s-4.727-1.663-5.95-5.795M89.421 54.038s-.235 5.632 5.089 5.56c5.793-.079 5.48-5.482 5.48-5.482l1.643.391-3.109 7.478s-4.58.588-7.594 4.034l-2.495-2.745 1.612-2.189-3.535.123-1.223-1.77 2.41-2.033-3.634-.476 1.748-2.067 3.608-.824m88.925 70.859l-7.106 11.17v44.615l-2.842-1.38a130.941 130.941 0 0 0-10.165-4.41l-1.41.177-7.9 3.119 2.615 10.978-2.819-.97c-14.322-4.93-31.285-8.032-50.703-8.032h-.323c-19.417 0-36.38 3.102-50.702 8.032l-2.82.97 2.608-10.934-8.543-3.165-1.128-.157a130.737 130.737 0 0 0-10.215 4.439l-2.842 1.384v-44.474l-7.228-11.362h161.523"/><path d="M26.028 177.57v-41.887l-5.603-8.81h154.319l-5.482 8.618v42.032c-19.547-9.502-44.298-15.248-71.568-15.248-27.316 0-52.105 5.765-71.666 15.295" fill="#1A5DAD" fill-rule="nonzero"/><path d="M155.296 173.54l-8.36 3.731 2.427 9.055c-14.536-5.004-31.718-8.14-51.347-8.14h-.322c-19.63 0-36.811 3.136-51.346 8.14l2.42-9.055-8.833-3.674c16.818-6.063 36.5-9.587 57.759-9.587 21.192 0 40.819 3.502 57.602 9.53" fill="#1A5DAD" fill-rule="nonzero"/><path d="M62.096 173.217c-.697-3.02-3.714-2.197-5.888-1.695-1.185.274-2.36.583-3.547.845-.097.022-.419.058-.385.203.053.23.494-.063.586.335l1.69 7.324c.09.387-.433.329-.38.559.042.18 1.23-.132 1.435-.179.834-.193 1.656-.433 2.505-.616.096-.023.422-.047.385-.204-.053-.23-.497.051-.586-.336l-.46-1.994c1.776-.41 3.86-.586 4.588-2.56.193-.542.183-1.138.057-1.682zm-3.207.715c.156.677-.705.914-1.2 1.029-.254.058-.526.095-.78.154l-.304-1.317.771-.19c.48-.124 1.348-.389 1.513.324z" fill="#FFF"/><path d="M66.316 169.722c.037.232.498-.029.562.375l1.176 7.424c.06.38-.455.297-.419.53.03.184 1.236-.045 1.444-.078.845-.134 1.695-.318 2.542-.44.085-.014.424-.017.398-.177-.036-.232-.499.017-.561-.375l-1.175-7.423c-.062-.392.453-.31.418-.531-.028-.171-1.234.057-1.442.09-.845.134-1.697.307-2.544.428-.085.014-.422.03-.399.177" fill="#FFF" fill-rule="nonzero"/><path d="M87.496 175.758c-.009-.1-.53-.228-.67-.403l-2.007-2.45c1.105-.595 1.834-1.518 1.719-2.828-.038-.432-.152-.883-.419-1.233-1.018-1.392-2.012-1.367-3.605-1.228l-5.694.498c-.074.006-.247.021-.237.133.02.234.498.006.534.414l.655 7.487c.033.383-.475.265-.454.5.016.186 1.235.042 1.446.024.852-.075 1.712-.2 2.565-.263.087-.007.425.013.411-.148-.021-.234-.5-.018-.534-.414l-.166-1.89.853-.075c.183.246 1.34 1.8 1.35 1.924.019.21-.424.137-.404.359.017.198 1.26.039 1.47.02.915-.08 1.836-.21 2.752-.277.086-.008.448-.002.435-.15zm-6.642-3.926l-.148-1.693.73-.064c.53-.046 1.559-.099 1.625.655.073.84-.81.992-1.452 1.048-.247.022-.508.032-.755.054zm17.096.186h-1.674l.831-2.753.843 2.753zm1.885-4.874c0-.075-.136-.087-.186-.087-.52-.037-1.042-.037-1.562-.037-1.042 0-2.096.037-3.137.025-.087 0-.372-.025-.372.099 0 .21.347.124.347.297 0 .41-2.641 6.574-3.038 7.566-.062.148-.1.322-.26.384-.1.038-.323.038-.323.187 0 .198 1.302.16 1.538.16.868 0 1.748-.05 2.629-.036.099 0 .285.037.285-.124 0-.187-.41-.124-.41-.41 0-.186.162-.583.224-.781h3.112c.05.161.21.62.21.756 0 .336-.409.248-.409.422 0 .236 1.203.174 1.426.174.893 0 1.786-.037 2.679-.037.086 0 .334.025.334-.124 0-.187-.372-.138-.459-.286-.235-.396-3-7.726-3-7.826 0-.21.372-.099.372-.322z" fill="#FFF"/><path d="M115.264 167.378c-.222-.016-.09.403-.486.376l-7.916-.554c-.408-.028-.194-.424-.429-.44-.161-.012-.116.24-.123.34-.05.716-.125 1.433-.175 2.138-.012.186-.13 1.159.043 1.172.223.015.091-.417.487-.39l2.263.159-.366 5.245c-.028.396-.486.19-.502.426-.013.185 1.214.233 1.412.248.853.06 1.723.07 2.575.142.086.006.417.08.428-.082.017-.235-.478-.095-.45-.49l.367-5.247c.495.035.978.056 1.473.09.247.018.52.025.766.067.344.061.155.434.378.45.161.01.129-.241.135-.34.05-.717.114-1.434.163-2.152.013-.173.13-1.146-.043-1.158m7.99 7.838l.145-1.032c.663.093 1.33.162 1.98.253.344.049.688.097 1.029.17.483.118.19.515.436.55.147.02.167-.39.18-.488l.234-1.57c.024-.173.196-.95-.013-.98-.209-.029-.067.48-.583.407l-2.971-.418.146-1.044c.774.11 1.551.193 2.324.302.393.056.8.1 1.188.192.509.122.203.517.461.554.147.02.157-.404.168-.49l.247-1.67c.025-.17.205-1.01-.004-1.039-.208-.03-.069.491-.584.419l-6.974-.98c-.086-.013-.413-.096-.433.051-.033.233.483.118.427.523l-1.046 7.443c-.053.38-.522.152-.554.386-.015.098.082.123.143.133.497.12 1.027.181 1.542.254 1.388.195 2.798.318 4.185.513.516.073 1.046.134 1.542.254.484.119.189.528.447.564.147.021.155-.391.169-.49l.245-1.656c.024-.172.203-.999-.006-1.028-.209-.029-.068.48-.583.407l-3.487-.49m17.081.354c.301-.18 2.207-1.877 2.272-2.04l-.072-.12c-.111-.015-.186.082-.27.06-.145-.036-1.264-.877-1.529-1.046-.731-.45-1.531-.829-2.373-1.04-1.817-.452-4.55-.354-5.105 1.873-.549 2.202 1.631 2.988 3.229 3.604.256.102.999.3.902.685-.09.362-.508.295-.784.226-.541-.135-2.972-1.098-2.816-1.724.018-.073.06-.139.09-.208l-.087-.111c-.199-.025-2.032 1.794-2.342 2.061-.048.04-.111.087-.128.16l.074.108c.127.006.241-.093.325-.072l.07.03c.743.607 1.314 1.184 2.223 1.59.749.327 1.531.624 2.324.822 1.998.498 4.256.205 4.838-2.13.477-1.913-1.764-2.868-3.175-3.462-.207-.091-1.077-.397-1.004-.685.086-.35.504-.284.757-.22.746.185 1.934.801 2.515 1.291l.018.081c-.036.094-.084.235.048.268" fill="#FFF" fill-rule="nonzero"/><path fill="#FFF" d="M142.993 179.787l.504.15v1.796l.563.167v-1.796l.504.149v-.432l-1.571-.466v.432"/><path fill="#FFF" fill-rule="nonzero" d="M144.676 182.083l.431.128v-1.703l.007.002.353 1.808.342.1.384-1.531.007.002v1.646l.563.167v-2.229l-.767-.227-.284 1.165-.007-.002-.241-1.32-.788-.234v2.228M46.296 166.6a950.54 950.54 0 0 0-6.652 2.158v-18.392H36.15v19.654c-2.223.823-5.233 2.058-6.651 2.646v-38.591l-2.41-3.73h9.061v14.5h3.494v-14.5h6.652V166.6"/><path d="M139.616 134.59c-.25-.646-.807-.948-1.479-.949-.588 0-1.088.249-1.424.733-.194.288-.281.734-.333 1.19-.055.48-.083 1.12-.083 1.921v18.705c0 1.708.064 2.903.236 3.427.241.68.814 1.021 1.514 1.064.758.045 1.364-.3 1.605-1.044.182-.566.25-1.784.25-3.523v-18.629c0-1.366-.071-2.383-.286-2.895zm6.72 24.4a6.088 6.088 0 0 1-1.223 3.07c-.67.897-1.585 1.573-2.765 2.018-1.182.445-2.582.63-4.213.532-1.546-.093-2.92-.425-4.132-.987-1.187-.568-2.133-1.357-2.85-2.37-.728-1.025-1.153-2.106-1.289-3.249-.147-1.233-.219-3.378-.219-6.438v-9.35c0-2.988.066-5.099.2-6.335a6.728 6.728 0 0 1 1.231-3.178c.688-.95 1.616-1.683 2.804-2.201 1.186-.52 2.588-.787 4.22-.787 1.543 0 2.909.256 4.102.754 1.192.483 2.14 1.206 2.852 2.166.723.975 1.146 2.025 1.282 3.156.146 1.225.218 3.366.218 6.425v10.434c0 2.986-.072 5.1-.219 6.34z" fill="#FFF"/><path d="M57.505 135.952s-2.018 10.419-2.216 13.086l-.047.62h3.944l-.075-.644c-.395-3.396-1.606-13.062-1.606-13.062zm8.986 25.881c-1.727.273-5.138.95-6.56 1.235l-.632-9.242h-3.884l-.655 10.442c-1.81.437-5.152 1.3-6.688 1.697l3.485-32.46-2.105-3.163h5.151l7.565.004 4.323 31.487zm24.971-2.379l-5.669.24v-20.06l-3.783 20.409-3.905.292-5.948-18.73 2.037 19.202-5.669.78v-28.01l-2.052-3.228 2.052-.003h9.038c.273 1.694.562 3.655.865 5.882l1.679 11.925 1.828-14.4-2.183-3.404 2.615-.003h9.095v29.108m9.834-14.658l.544.032c.236.013.439.02.609.02.783 0 1.501-.186 1.938-.74.423-.534.55-1.465.55-2.567v-4.167c0-1.019-.145-1.925-.659-2.42-.504-.485-1.395-.626-2.404-.626h-.578v10.468zm.634-14.45c2.107 0 3.675.167 4.734.477 1.087.316 1.84.757 2.313 1.282.506.55.854 1.228 1.032 2.039.19.81.3 3.823.301 5.727v2.616c0 1.901-.2 3.195-.542 3.956-.327.722-.936 1.307-1.897 1.73-.95.426-2.24.656-3.901.656h-2.674v6.531l2.953 4.075-6.557-.075-3.048-.002V133.52l-2.021-3.194h5.15l4.157.019zm10.199 8.11v-7.989l.004-.121h15.907v7.669l-4.636-1.947v21.834l2.43 3.496-11.454-1.144 2.372-2.927v-21.26l-4.623 2.39m35.167 27.648l2.217-3.266v-29.174l-1.979-3.32h7.474l5.411 22.379v-22.378h7.52l-2.147 3.158v39.174l-5.77-2.317-5.137-15.034v13.154l-7.589-2.376" fill="#FFF" fill-rule="nonzero"/></g></svg>