<svg width="200" height="200" xmlns="http://www.w3.org/2000/svg"><g fill="none"><path d="M147.84 16.205 133.223 77.87l-10.11-7.387-32.83.041.095-.04v-.002l12.866-54.277H58.76l-4.79 20.206-10.666 46.26c3.978-.05 8.041-.101 12.107-.159 2.13-.026 4.26-.067 6.378-.11v3.794a764.57 764.57 0 0 0-6.413-.242c-6.94-.242-20.382-.685-20.385-.685l-.616 2.624 7.218.341-1.647 7.516h.016c6.696-.126 14.243-.22 21.827-.345v3.357c-7.765-.316-15.488-.6-22.302-.897h-.004c-2.613-.115-7.394-.35-7.397-.35l-.469 2.024 7.156.4-1.575 6.88c6.865-.223 15.63-.342 24.59-.502v3.25c-9.113-.414-18.028-.78-24.943-1.202v.001l-7.235-.404v-.001h-.002l-.55 2.316.016.002 6.737.633-17.134 74.393h44.484l14.992-63.344-.339-.174h44.996v.174h-.039l-15.014 63.344h44.484l40.082-169.1H147.84" fill="#DD1731"/><path fill="#FFF" d="M140.185 107.963h-11.421v-8.424h11.42v8.424"/><path d="M92.996 106.653a180.523 180.523 0 0 0-13.151-.702c-4.813-.005-9.95.226-15.084.312-9.973.19-19.94.308-27.561.556l1.575-6.88-7.157-.4-1.785 7.49-6.151.172-.003.43 5.932.33v.001l7.235.405v-.001c7.658.466 17.772.865 27.89 1.337 5.133.228 10.263.6 15.076.729 4.812.058 9.306-.101 13.158-.339 7.705-.442 12.845-1.328 12.845-1.328l1.375-.43s-6.499-1.026-14.194-1.682m16.18-9.207s-5.785-1.02-14.47-1.671c-4.342-.34-9.409-.623-14.84-.697-5.431-.004-11.226.225-17.021.31-7.938.133-15.875.231-22.882.363h-.016l1.647-7.516-7.218-.342-1.9 8.025c-.508.015-1.01.028-1.5.044l-14.487.357-.004.427 14.478.71 1.135.06c2.296.12 4.773.235 7.386.349h.003c7.116.31 15.221.605 23.329.939 5.792.226 11.581.595 17.012.723 5.431.058 10.502-.1 14.85-.336 8.693-.44 17.558-1.318 17.558-1.318l-3.06-.427" fill="#231F20"/><path d="M198.597 11.266a5.86 5.86 0 0 0-4.61-2.219h-47.228a5.805 5.805 0 0 0-5.677 4.47l-14.161 59.749-3.808-2.783h-25.34l12.857-54.245a5.797 5.797 0 0 0-1.112-4.972 5.862 5.862 0 0 0-4.61-2.219H57.68a5.803 5.803 0 0 0-5.676 4.47L37.733 73.73l-2.153 9.034-.586.007h.584c-6.637.09-12.836.186-18.13.32L.19 83.45l-.005.43 17.247.716c5.144.235 11.141.454 17.566.673 6.5.222 13.44.444 20.38.684 6.898.228 13.796.6 20.266.729 6.47.057 12.51-.101 17.689-.339 10.356-.443 20.918-1.327 20.918-1.327l-3.646-.43s-6.891-1.027-17.237-1.684a325.805 325.805 0 0 0-17.679-.701c-6.47-.005-13.374.226-20.276.311-4.067.058-8.13.109-12.108.16L53.97 36.41l4.79-20.206h44.484L90.379 70.482v.001l-12.836 5.62 42.1-.188 28.701 19.784 1.227 6.249a8.857 8.857 0 0 0-2.885 1.809l-2.278-6.3-24.517-14.399c.61 12.65 6.566 15.76 6.566 15.76l-9.412-3.596c0 7.191 3.57 11.203 7.79 13.436l-11.658-.143 13.46 8.014-59.25-.067 10.767 5.498-14.992 63.346H18.68l17.133-74.393-6.737-.635-.157-.017L11.3 185.247a5.813 5.813 0 0 0 1.118 4.99 5.879 5.879 0 0 0 4.626 2.225h47.153a5.863 5.863 0 0 0 5.734-4.515l15.746-65.987h29.703l-15 63.287a5.812 5.812 0 0 0 1.116 4.99 5.88 5.88 0 0 0 4.627 2.225h47.154a5.863 5.863 0 0 0 5.734-4.515l40.7-171.709a5.794 5.794 0 0 0-1.113-4.972zm-63.935 89.69 5.523 4.386s-2.823.727-4.667.126c-1.405-.449-2.248-1.654-.856-4.512zm10.508 12.296.982.006 3.948 3.195-2.87-4.447.096-.582c.032-.2.744-4.242 3.793-5.4l4.438 8.643-7.06 12.248c-1.949-4.738-5.323-10.391-10.324-10.391-.091 0-.183.002-.275.005h-2.783l-5.83-3.472 15.885.195zm7.072 72.054h-44.484l15.014-63.346h15.188l.142-.003.065-.002c2.324 0 5.573 6.38 7.06 12.187l1.642 6.409 14.835-25.732-6.657-12.966-1.843-9.384-19.98-14.598 14.616-61.666h44.483l-40.08 169.101z" fill="#231F20"/></g></svg>