<?xml version="1.0" encoding="UTF-8"?>
<svg width="200px" height="200px" viewBox="0 0 200 200" version="1.1" xmlns="http://www.w3.org/2000/svg" xmlns:xlink="http://www.w3.org/1999/xlink">
    <!-- Generator: Sketch 51.3 (57544) - http://www.bohemiancoding.com/sketch -->
    <title>hartford</title>
    <desc>Created with Sketch.</desc>
    <defs></defs>
    <g id="hartford" stroke="none" stroke-width="1" fill="none" fill-rule="evenodd">
        <g id="hartford_BGL" transform="translate(0.000000, 8.955224)">
            <g id="hartford">
                <g id="g10" transform="translate(100.015451, 91.778751) scale(-1, 1) rotate(-180.000000) translate(-100.015451, -91.778751) translate(0.061814, 0.050418)" fill-rule="nonzero">
                    <g id="g12" transform="translate(0.111266, 0.000000)">
                        <path d="M147.666818,176.257343 L133.050221,114.592173 L122.939388,121.979131 L90.1098417,121.937817 L90.2052829,121.979131 L90.2052829,121.980115 L103.070558,176.257343 L58.5876666,176.257343 L53.7980515,156.051289 L43.1316324,109.791313 C47.10975,109.840866 51.1729241,109.89251 55.2393125,109.950301 C57.369555,109.976 59.498685,110.017314 61.616441,110.059613 L61.616441,106.266044 C59.4871875,106.353714 57.3466838,106.438434 55.2040784,106.508644 C48.2645638,106.750015 34.8214487,107.193778 34.819347,107.193778 L34.203059,104.569438 L41.420614,104.227855 L39.7738825,96.7119106 C39.7790749,96.7119106 39.7842673,96.7119106 39.7894597,96.7119106 C46.4861679,96.8378219 54.0325748,96.9327472 61.616441,97.0576748 L61.616441,93.7006145 C53.8520772,94.0163764 46.1292524,94.3011523 39.3153444,94.5973635 L39.311141,94.5973635 C36.6975111,94.7119624 31.9172917,94.9471854 31.914201,94.9471854 L31.4451545,92.9235059 L38.6013899,92.5241311 L37.0263629,85.6438913 C43.8910822,85.8666953 52.6567133,85.9854748 61.616441,86.1454461 L61.616441,82.8946235 C52.5031667,83.3094913 43.5880688,83.6759128 36.6725381,84.0969287 L36.6725381,84.095822 L29.4374278,84.5003612 L29.4374278,84.5014678 L29.4363151,84.5014678 C29.2537159,83.7325975 29.0700039,82.9606532 28.8864156,82.1856348 L28.9019928,82.1835445 L35.6391275,81.5499304 L18.5052074,7.15753965 L62.9892118,7.15753965 L77.981392,70.5014618 L77.6421554,70.6748357 L122.637487,70.6748357 L122.637487,70.5014618 L122.599162,70.5014618 L107.5851,7.15753965 L152.069228,7.15753965 L192.150822,176.257343 L147.666818,176.257343" id="path14" fill="#DD1731"></path>
                        <polyline id="path16" fill="#FFFFFF" points="140.011741 84.4997464 128.590941 84.4997464 128.590941 92.9228911 140.011741 92.9228911 140.011741 84.4997464"></polyline>
                        <path d="M92.8224981,85.8096417 C88.9740667,86.1533156 84.4843743,86.4361241 79.671888,86.5113758 C74.8585362,86.5165401 69.7223905,86.2853748 64.5883464,86.1997945 C54.6149886,86.009821 44.6488012,85.8911643 37.0267337,85.6435224 L38.6017607,92.5237622 L31.4454018,92.9242436 L29.6597118,85.4341212 C25.8216652,85.3266539 23.5088234,85.261608 23.5088234,85.261608 L23.5057327,84.8313701 C23.5057327,84.8313701 25.7324055,84.7074262 29.437675,84.5010989 L29.437675,84.5001153 L36.6727854,84.0955761 L36.6727854,84.0965598 C44.3313233,83.6301716 54.4448758,83.2316575 64.562508,82.7591213 C69.6954395,82.5310301 74.8263928,82.1584606 79.6387555,82.030582 C84.4511183,81.9726677 88.9448904,82.1316553 92.7965361,82.3689685 C100.501682,82.8116254 105.641907,83.6971849 105.641907,83.6971849 L107.016904,84.1265621 C107.016904,84.1265621 100.518248,85.15328 92.8224981,85.8096417" id="path18" fill="#231F20"></path>
                        <path d="M109.002501,95.0167809 C109.002501,95.0167809 103.217924,96.0363671 94.5332692,96.6875645 C90.1908183,97.0281643 85.124399,97.3098662 79.693523,97.3841342 C74.2616579,97.3883148 68.4666959,97.159117 62.6717339,97.0745203 C54.7341665,96.9413544 46.7964754,96.8433551 39.7895833,96.7112958 C39.7843909,96.7112958 39.7791985,96.7112958 39.7740061,96.7112958 L41.4207376,104.22724 L34.2031826,104.569807 L32.3033835,96.5440699 C31.7948995,96.5296835 31.2927206,96.5161579 30.8029045,96.5006649 C22.110956,96.2860993 16.315994,96.1437114 16.315994,96.1437114 L16.3119143,95.7164246 C16.3119143,95.7164246 22.1037856,95.4326324 30.7895526,95.0064522 C31.1609326,94.9867786 31.5438101,94.9661212 31.9245858,94.9465706 C34.2207378,94.8269303 36.6976347,94.7112247 39.3112647,94.5977324 C39.3122537,94.5977324 39.3133663,94.5977324 39.3143554,94.5977324 C46.4302878,94.2881185 54.5348773,93.9920303 62.6426812,93.6586851 C68.4345525,93.4326842 74.2243221,93.0631887 79.6550745,92.9351871 C85.0859506,92.8773958 90.1566969,93.0352767 94.5042165,93.2716063 C103.198267,93.7113121 112.063419,94.5894941 112.063419,94.5894941 L109.002501,95.0167809" id="path20" fill="#231F20"></path>
                        <path d="M198.423732,181.196656 C197.302421,182.60578 195.621074,183.414858 193.813625,183.414858 L146.586304,183.414858 C143.867714,183.414858 141.533608,181.576603 140.909284,178.945254 L126.74764,119.196541 L122.939635,121.978886 L97.599503,121.978886 L110.457361,176.224144 C110.872382,177.975098 110.465644,179.786302 109.345075,181.196656 C108.222405,182.60578 106.542541,183.414858 104.735092,183.414858 L57.506659,183.414858 C54.7881921,183.414858 52.4545807,181.576603 51.8309985,178.945254 L37.5599434,118.733227 L35.4069532,109.699216 C35.2107548,109.697126 35.0106003,109.694052 34.8205833,109.691961 L35.4048515,109.691961 C28.7683504,109.603184 22.5686287,109.506169 17.2748566,109.372019 C6.91967221,109.156347 0.0165160002,109.011868 0.0165160002,109.011868 L0.0123145569,108.581508 C0.0123145569,108.581508 6.91131493,108.295625 17.2592794,107.866371 C22.4027193,107.631025 28.3999375,107.412279 34.8247866,107.193533 C41.3252964,106.971589 48.264811,106.749769 55.204202,106.509259 C62.1032901,106.281168 69.0012655,105.908721 75.4706209,105.780719 C81.9399763,105.722928 87.9808354,105.881793 93.159633,106.119229 C103.515868,106.561886 114.077574,107.446339 114.077574,107.446339 L110.431523,107.8767 C110.431523,107.8767 103.540718,108.90354 93.1948671,109.559902 C88.0213855,109.903453 81.9857189,110.186262 75.5162398,110.261636 C69.0457717,110.266801 62.1416149,110.035635 55.2395597,109.949932 C51.1731713,109.892141 47.1099973,109.841604 43.1318796,109.791067 L53.7973097,156.051289 L58.5868012,176.257343 L103.070806,176.257343 L90.2055301,121.979869 L90.2055301,121.978886 L77.3694309,116.359603 L119.469878,116.547486 L148.171222,96.763185 L149.397616,90.514469 C148.280015,90.0871822 147.320658,89.4577488 146.513364,88.7054781 L144.234891,95.0046078 L119.718,109.403989 C120.326994,96.753963 126.284033,93.6445447 126.284033,93.6445447 L116.871702,97.2400248 C116.871702,90.0490646 120.442092,86.0377329 124.662027,83.8045292 L113.003613,83.9469172 L126.464531,75.9335989 L67.2144629,76.0006122 L77.9805266,70.5021996 L62.9893355,7.15628545 L18.5054546,7.15628545 L35.6393748,81.5496845 L28.9021164,82.1842823 L28.7444901,82.2008819 L11.1260328,7.21531866 C10.7099982,5.45943426 11.1167607,3.64087704 12.2435231,2.22558018 C13.3693089,0.810336204 15.0564669,0 16.8702206,0 L64.022746,0 C66.7682876,0 69.1267484,1.85669949 69.7565119,4.51513658 L85.5030731,70.5021996 L115.205437,70.5021996 L100.205963,7.21531866 C99.78884,5.45943426 100.196567,3.64087704 101.322328,2.22558018 C102.449202,0.810336204 104.135247,0 105.949001,0 L153.102762,0 C155.848551,0 158.206147,1.85669949 158.836652,4.51513658 L199.536388,176.224144 C199.95178,177.975098 199.545042,179.786302 198.423732,181.196656 Z M134.489256,91.5062663 L140.011741,87.1202748 C140.011741,87.1202748 137.189303,86.3937028 135.344766,86.9943635 C133.940346,87.4432913 133.0972,88.6486705 134.489256,91.5062663 Z M144.996442,79.2101202 L145.979289,79.2039722 L149.926746,76.0088506 L147.056093,80.456691 L147.152523,81.0387847 C147.184666,81.238964 147.896767,85.2802979 150.945445,86.4391981 L155.383708,77.7952168 L148.323285,65.54764 C146.3749,70.2854207 143.001078,75.9387632 138.000306,75.9387632 C137.908821,75.9387632 137.817335,75.93655 137.724614,75.9335989 L134.941737,75.9335989 L129.111417,79.4051351 L144.996442,79.2101202 Z M152.069228,7.15628545 L107.585224,7.15628545 L122.59941,70.5021996 L137.786428,70.5021996 L137.928601,70.5052736 C137.949618,70.5062573 137.971871,70.5073639 137.994124,70.5073639 C140.31834,70.5073639 143.567297,64.1275723 145.054547,58.3200376 L146.696334,51.9113504 L161.530517,77.6434839 L154.874359,90.6093943 L153.031058,99.9933503 L133.050221,114.591804 L147.666818,176.257343 L192.149586,176.257343 L152.069228,7.15628545 Z" id="path22" fill="#231F20"></path>
                    </g>
                </g>
            </g>
        </g>
    </g>
</svg>