<svg width="200" height="200" xmlns="http://www.w3.org/2000/svg" xmlns:xlink="http://www.w3.org/1999/xlink"><defs><path id="a" d="M.08.056h162.04V199.92H.08z"/></defs><g fill="none" fill-rule="evenodd"><g transform="translate(19)"><mask id="b" fill="#fff"><use xlink:href="#a"/></mask><path d="M154.709 72.613c0 73.374-46.47 102.963-73.562 118.71-27.094-15.747-73.563-45.336-73.563-118.71V7.553H154.71v65.06ZM0 .056V72.61c0 34.5 9.995 63.936 29.71 87.487 16.39 19.581 35.916 30.932 47.583 37.714L81.06 200l3.768-2.188c11.666-6.782 31.193-18.133 47.581-37.714 19.714-23.551 29.71-52.985 29.71-87.487V.056H0Z" fill="#FFFEFE" mask="url(#b)"/></g><path d="M118.428 46.237V70.91H81.693V46.237c0-3.503 2.251-8.456 7.266-11.817v-7.768H59.495v15.84h6.25v74.299h-6.25v15.808H88.96v-7.766c-5.016-3.364-7.266-8.315-7.266-11.817l.004-26.298h36.73v26.298c0 3.503-2.25 8.453-7.267 11.816v7.767h29.464V116.79h-6.25V42.493h6.25V26.652H111.16v7.768c5.015 3.357 7.268 8.311 7.268 11.817" fill="#FFFEFE"/><path d="M111.16 26.652h29.464v15.84h-6.25v74.299h6.25v15.808H111.16v-7.767c5.016-3.363 7.268-8.313 7.268-11.816V86.718H81.697l-.004 26.298c0 3.502 2.25 8.453 7.266 11.817v7.766H59.495V116.79h6.25V42.493h-6.25V26.652H88.96v7.768c-5.015 3.361-7.266 8.314-7.266 11.817V70.91h36.735V46.237c0-3.506-2.253-8.46-7.268-11.817v-7.768ZM26.584 7.554v65.06c0 73.373 46.469 102.962 73.563 118.71 27.093-15.748 73.562-45.337 73.562-118.71V7.553H26.584Z" fill="#912235"/></g></svg>