<svg width="200" height="200" xmlns="http://www.w3.org/2000/svg"><g fill="none"><path d="M183.455 70.096c0 86.603-81.13 127.692-81.95 128.097l-1.42.702-.73.36-.732-.36-1.419-.702c-.82-.405-81.95-41.495-81.95-128.097V.402h168.201v69.694" fill="#FFF"/><path d="M181.8 70.096c0 85.586-80.215 126.207-81.026 126.608l-1.42.701-1.418-.701c-.811-.4-81.026-41.022-81.026-126.608V2.062H181.8v68.034" fill="#231F20"/><path d="M20.121 5.283v64.813c0 84.571 79.233 123.719 79.233 123.719s79.234-39.148 79.234-123.719V5.283H20.12" fill="#C4122E"/><path fill="#231F20" d="M112.348 19.173v20.715h4.757v28.37H81.57v-28.37h4.723V19.173H56.131v20.715h4.766v77.454H56.11l.027 20.715h30.156v-20.715h-4.701v-28.37h35.492v28.37h-4.736v20.715h30.227v-20.715h-4.753V39.888h4.753V19.173h-30.227"/><path fill="#FFF" d="M115.239 22.072V36.99h4.757v34.168H78.679V36.989h4.724V22.072H59.022V36.99h4.766v83.253h-4.783l.019 14.916h24.379v-14.916H78.7V86.074h41.273v34.168h-4.735v14.916h24.445v-14.916h-4.753V36.989h4.753V22.072H115.24"/></g></svg>