<svg width="200" height="200" xmlns="http://www.w3.org/2000/svg"><g fill="none"><path d="M175.062 137.715l12.136-13.905-11.27-11.57 11.975-13.185-11.504-12.04 11.622-12.6-12.094-12.455 21.848-23.884-87.224-15.919v45.458c-1.812-.283-8.104-.384-10.446-.433-2.77-.06-7.993.362-10.618.619V22.039L2.212 38.092l21.87 23.885-12.11 12.454 12.562 12.601L12.442 99.07l12.441 13.187-12.593 11.57 12.636 13.903L0 171.763l89.399-14.09.11-40.867c2.177-.603 8.47-.966 10.596-.966 2.34 0 8.101.258 10.423.869l.112 41.084 89.348 13.954-24.926-34.032" fill="#C6C5C3"/><path d="M168.695 137.322l11.749-13.381-12.15-12.058 12.15-12.828-11.577-12 11.805-12.886-12.034-12.284 19.147-21.26-72.22-13.493v45.674c-3.616-.314-9.598-.919-15.46-.965-3.518-.029-11.295.6-15.682.981V27.15l-72.22 13.493 19.147 21.26-12.033 12.283L31.12 87.072 19.545 99.07l12.149 12.828-12.149 12.059 11.748 13.381-20.365 28.306 73.806-12.025.072-40.696c6.133-1.214 12.636-1.318 15.299-1.366 3.305-.06 11.192.364 15.077 1.35l.07 40.695 73.808 12.026-20.365-28.307" fill="#1D1B19"/><path d="M161.922 137.278l11.854-13.336-11.852-11.777c0-.442 11.852-13.11 11.852-13.11l-11.857-11.781c0-.442 11.857-13.105 11.857-13.105l-11.863-12.213 16.577-18.221-53.951-9.715-.001 45.16c-6.515-1.053-18.783-2.21-24.433-2.15-6.395.067-15.91.562-24.654 2.165V34.037L21.497 43.75l16.576 18.221-11.862 12.214S38.069 86.85 38.069 87.291L26.212 99.07s11.851 12.668 11.851 13.112l-11.851 11.775 11.855 13.336-16.934 21.888 54.299-8.867.03-41.713c5.991-1.553 19.262-2.57 24.643-2.445 4.584.105 17.965 1.05 24.42 2.43l.1 41.69 54.23 8.888-16.933-21.887" fill="#FFF"/><path d="M159.25 60.291L172.764 45.6l-45.562-8.41-.001 44.81c-7.25-1.366-21.927-2.405-27.096-2.442-6.714-.046-18.295.535-27.318 2.459l-.001-44.81-45.562 8.407 13.513 14.693-.014 78.48-12.973 16.606 44.955-7.348.098-41.598c7.051-2.046 21.174-2.97 27.302-2.933 6.502.04 19.918 1.22 27.08 2.916l.099 41.598 44.955 7.347-12.974-16.605-.015-78.48" fill="#1B4F31"/><path fill="#FFF" d="M153.078 87.959l-11.043-11.29 11.043-11.286z"/><path fill="#FFF" d="M153.078 110.32l-11.043-11.29 11.043-11.286z"/><path fill="#FFF" d="M153.078 132.87l-11.043-11.289 11.043-11.29zM46.91 87.977l11.043-11.29-11.044-11.289z"/><path fill="#FFF" d="M46.91 110.337L57.952 99.05 46.908 87.76z"/><path fill="#FFF" d="M46.91 132.885l11.043-11.289-11.044-11.288z"/><path fill="#1D1B19" d="M182.703 174.79v.563h-1.38v4.236h-.568v-4.236h-1.379v-.564h3.327m.5.001H184l1.182 4.058 1.185-4.059h.792v4.8h-.53v-2.832c0-.098.003-.26.007-.486.004-.227.006-.47.006-.73l-1.187 4.048h-.553l-1.18-4.048v.148c0 .117.003.296.006.536.005.241.006.42.006.532v2.832h-.53v-4.8"/></g></svg>