<svg width="200" height="200" xmlns="http://www.w3.org/2000/svg"><g fill-rule="nonzero" fill="none"><path d="m175.062 137.557 12.136-13.992-11.27-11.643 11.975-13.269-11.504-12.116 11.622-12.68-12.094-12.533 21.848-24.037-87.224-16.019v45.746c-1.812-.285-8.104-.387-10.446-.436-2.77-.06-7.993.364-10.618.623V21.149L2.212 37.304l21.87 24.036-12.11 12.533 12.562 12.68-12.092 12.115 12.441 13.27-12.593 11.644 12.636 13.99L0 171.822l89.399-14.18.11-41.125c2.177-.606 8.47-.972 10.596-.972 2.34 0 8.101.26 10.423.874l.112 41.344 89.348 14.042-24.926-34.247" fill="#C6C5C3"/><path d="m168.695 137.162 11.749-13.466-12.15-12.134 12.15-12.909-11.577-12.077 11.805-12.967-12.034-12.361 19.147-21.395-72.22-13.578v45.962c-3.616-.315-9.598-.924-15.46-.97-3.518-.03-11.295.604-15.682.987V26.293L12.203 39.87 31.35 61.265 19.317 73.627 31.12 86.594 19.545 98.669l12.149 12.909-12.149 12.135 11.748 13.466-20.365 28.485 73.806-12.1.072-40.954c6.133-1.222 12.636-1.327 15.299-1.375 3.305-.061 11.192.366 15.077 1.359l.07 40.952 73.808 12.102-20.365-28.486" fill="#1D1B19"/><path d="m161.922 137.118 11.854-13.421-11.852-11.851c0-.445 11.852-13.193 11.852-13.193l-11.857-11.856c0-.445 11.857-13.188 11.857-13.188l-11.863-12.29 16.577-18.337-53.951-9.776-.001 45.445c-6.515-1.059-18.783-2.222-24.433-2.163-6.395.068-15.91.565-24.654 2.18V33.222L21.497 43l16.576 18.336-11.862 12.292s11.857 12.742 11.857 13.187L26.212 98.669s11.851 12.749 11.851 13.195l-11.851 11.85 11.855 13.42-16.934 22.026 54.299-8.922.03-41.977c5.991-1.563 19.262-2.586 24.643-2.461 4.584.106 17.965 1.057 24.42 2.444l.1 41.956 54.23 8.943-16.933-22.025" fill="#FFF"/><path d="m159.25 59.644 13.514-14.785-45.562-8.463-.001 45.095c-7.25-1.375-21.927-2.42-27.096-2.457-6.714-.047-18.295.538-27.318 2.474l-.001-45.094-45.562 8.46L40.737 59.66l-.014 78.978-12.973 16.71 44.955-7.394.098-41.861c7.051-2.059 21.174-2.99 27.302-2.952 6.502.04 19.918 1.228 27.08 2.935l.099 41.86 44.955 7.394-12.974-16.71-.015-78.976" fill="#1B4F31"/><path fill="#FFF" d="m153.078 87.487-11.043-11.361 11.043-11.359z"/><path fill="#FFF" d="m153.078 109.99-11.043-11.362 11.043-11.358z"/><path fill="#FFF" d="m153.078 132.682-11.043-11.36 11.043-11.362zM46.91 87.505l11.043-11.362-11.044-11.36z"/><path fill="#FFF" d="m46.91 110.006 11.043-11.36-11.044-11.36z"/><path fill="#FFF" d="m46.91 132.697 11.043-11.36-11.044-11.36z"/><path fill="#1D1B19" d="M182.703 174.867v.567h-1.38v4.263h-.568v-4.263h-1.379v-.567h3.327M183.203 174.867H184l1.182 4.084 1.185-4.084h.792v4.83h-.53v-2.85c0-.1.003-.263.007-.49.004-.228.006-.473.006-.734l-1.187 4.074h-.553l-1.18-4.074v.148c0 .119.003.299.006.54.005.243.006.422.006.536v2.85h-.53v-4.83"/></g></svg>