<?xml version="1.0" encoding="UTF-8"?>
<svg width="200px" height="200px" viewBox="0 0 200 200" version="1.1" xmlns="http://www.w3.org/2000/svg" xmlns:xlink="http://www.w3.org/1999/xlink">
    <!-- Generator: Sketch 51.3 (57544) - http://www.bohemiancoding.com/sketch -->
    <title>hawaii</title>
    <desc>Created with Sketch.</desc>
    <defs></defs>
    <g id="hawaii" stroke="none" stroke-width="1" fill="none" fill-rule="evenodd">
        <g id="hawaii_BGL" transform="translate(0.000000, 21.890547)">
            <g id="hawaii">
                <g id="g10" transform="translate(99.999998, 78.856197) scale(-1, 1) rotate(-180.000000) translate(-99.999998, -78.856197) translate(0.000000, 0.013883)" fill-rule="nonzero">
                    <g id="g12">
                        <path d="M175.061872,41.8740948 L187.1976,55.7787053 L175.927341,67.348195 L187.90279,80.5338033 L176.398598,92.5733717 L188.020754,105.174456 L175.927341,117.628566 L197.775045,141.513523 L110.550895,157.431736 L110.550895,111.973738 C108.738919,112.256975 102.446904,112.358528 100.104588,112.407519 C97.3347281,112.467618 92.1115745,112.04534 89.4866245,111.788086 L89.4866245,157.550347 L2.21237519,141.49706 L24.0826341,117.612302 L11.9723151,105.157993 L24.5343307,92.556909 L12.441836,80.5187291 L24.8830333,67.3319307 L12.2901793,55.7616476 L24.9263467,41.8590205 L0,7.82611613 L89.3988002,21.9169731 L89.509379,62.7832746 C91.6860257,63.3856498 97.9792391,63.749217 100.104588,63.749217 C102.445506,63.749217 108.206185,63.4913679 110.528341,62.8802656 L110.639518,21.796379 L199.988019,7.84253913 L175.061872,41.8740948" id="path14" fill="#C6C5C3"></path>
                        <path d="M168.695205,42.2670171 L180.443508,55.648194 L168.293609,67.7056135 L180.443508,80.5338033 L168.867461,92.534496 L180.671652,105.420008 L168.638319,117.703739 L187.784626,138.963594 L115.565466,152.456836 L115.565466,106.783434 C111.949299,107.097217 105.967462,107.701575 100.104588,107.747988 C96.5872231,107.776748 88.8097782,107.147795 84.4227524,106.766972 C84.4227524,106.766972 84.4227524,110.595237 84.4227524,152.439183 L12.2037123,138.946536 L31.350099,117.686682 L19.3166063,105.402752 L31.1201589,92.5174383 L19.5452091,80.518134 L31.6940112,67.6905392 L19.5452091,55.6311363 L31.2930132,42.2499594 L10.9276844,13.9442995 L84.7343292,25.9687738 L84.8057863,66.6646966 C90.9391195,67.8793641 97.4419137,67.9832971 100.104588,68.0309 C103.409778,68.0915937 111.296604,67.6673328 115.182432,66.6809609 L115.252492,25.9864265 L189.060474,13.9599489 L168.695205,42.2670171" id="path16" fill="#1D1B19"></path>
                        <path d="M161.921553,42.3110498 L173.775644,55.6474007 L161.923948,67.423963 C161.923948,67.8658766 173.775644,80.5338033 173.775644,80.5338033 L161.918559,92.3155226 C161.918559,92.7574363 173.775644,105.420008 173.775644,105.420008 L161.91317,117.632732 L178.490015,135.854529 L124.538719,145.56929 L124.537522,100.409603 C118.023151,101.462024 105.754888,102.618378 100.104588,102.559073 C93.7103769,102.492231 84.1956067,101.997557 75.4508963,100.393934 L75.4502975,145.552233 L21.4982031,135.838066 L38.0736517,117.617062 L26.2119754,105.402752 C26.2119754,105.402752 38.0690609,92.7403786 38.0690609,92.2984649 L26.2119754,80.518134 C26.2119754,80.518134 38.0634721,67.8496123 38.0634721,67.4061119 L26.2119754,55.6311363 L38.0668653,42.2947855 L21.1329336,20.4073659 L75.4317346,29.2738039 L75.4624732,70.9866438 C81.4532914,72.5396886 94.7241493,73.556209 100.104588,73.4320448 C104.68882,73.3269217 118.069658,72.3816073 124.525745,71.0029081 C124.534727,67.1032384 124.624548,29.3112911 124.624548,29.3112911 L178.854087,20.4244236 L161.921553,42.3110498" id="path18" fill="#FFFFFF"></path>
                        <path d="M159.250295,119.297842 L172.763868,133.989487 L127.202192,142.39973 L127.200795,97.5877428 C119.951095,98.9539462 105.274249,99.9928797 100.104588,100.029772 C93.3906164,100.076185 81.8101776,99.4948343 72.7874233,97.5712802 L72.7860261,142.381879 L27.2239514,133.973818 L40.7373243,119.281379 L40.7227535,40.8004509 L27.7496999,24.1951688 L72.7049882,31.5430741 L72.802593,73.1406753 C79.854489,75.1866085 93.976844,76.1114933 100.104588,76.0740061 C106.607183,76.034337 120.023151,74.8537849 127.185626,73.1579314 L127.283829,31.5601318 L172.238519,24.2130199 L159.264866,40.8181037 L159.250295,119.297842" id="path20" fill="#1B4F31"></path>
                        <polygon id="path22" fill="#FFFFFF" points="153.078439 91.6300408 142.034927 102.919268 153.078439 114.206314"></polygon>
                        <polygon id="path24" fill="#FFFFFF" points="153.078439 69.2683772 142.034927 80.5589932 153.078439 91.8454439"></polygon>
                        <polygon id="path26" fill="#FFFFFF" points="153.078439 46.7192773 142.034927 58.0077114 153.078439 69.2983274"></polygon>
                        <polygon id="path28" fill="#FFFFFF" points="46.9091805 91.6121897 57.9526932 102.902211 46.9091805 114.190843"></polygon>
                        <polygon id="path30" fill="#FFFFFF" points="46.9091805 69.2519146 57.9526932 80.5405471 46.9091805 91.8297746"></polygon>
                        <polygon id="path32" fill="#FFFFFF" points="46.9091805 46.704203 57.9526932 57.9926372 46.9091805 69.2812697"></polygon>
                        <polyline id="path34" fill="#1D1B19" points="182.702989 4.79956302 182.702989 4.23606362 181.322351 4.23606362 181.322351 0 180.755285 0 180.755285 4.23606362 179.376443 4.23606362 179.376443 4.79956302 182.702989 4.79956302"></polyline>
                        <path d="M183.203189,4.79956302 L183.999397,4.79956302 L185.181033,0.741393446 L186.365664,4.79956302 L187.15788,4.79956302 L187.15788,0 L186.628738,0 L186.628738,2.83215474 C186.628738,2.93055391 186.630534,3.09280049 186.634925,3.31849776 C186.638917,3.54502809 186.640913,3.78839795 186.640913,4.04787346 L185.454087,0 L184.900794,0 L183.721552,4.04787346 L183.721552,3.90042346 C183.721552,3.78304263 183.723548,3.60375818 183.727141,3.36358168 C183.731732,3.12292916 183.733329,2.94481495 183.733329,2.83215474 L183.733329,0 L183.203189,0 L183.203189,4.79956302" id="path36" fill="#1D1B19"></path>
                    </g>
                </g>
            </g>
        </g>
    </g>
</svg>