<svg width="200" height="200" xmlns="http://www.w3.org/2000/svg"><g fill="none"><path d="M190.909 156.508l-.681-44.228h-57.832c10.487-2.371 17.925-6.324 18.087-6.361l-1.355 2.744c6.36-2.798 19.228-7.72 17.823-1.65 12.355-2.797 12.568-14.107 10.613-16.338 2.008-1.093 3.05-4.534 2.464-6.436 0 0-9.522-5.308-10.651-7.812-.66-1.465-3.484-3.742-4.792-4.693 8.464-11.303-8.67-24.999-18.66-25.975l1.759 3.472c-5.338-3.952-24.562-4.303-39.645.085l3.104 2.027c-19.3 2.81-33.33 8.718-42.292 12.964l3.764 1.054c-13.142 4.908-24.25 9.064-47.883 25.137 16.566-8.888 44.15-19.052 70.142-20.263 17.552-1.594 26.206 1.619 26.206 1.619s-3.998-3.41-3.123-6.864c.811.54 2.4.574 3.268.56 10.39-.175 13.63 4.701 13.63 4.701s5.388.948 8.138 3.21c5.516 4.542 14.222 8.995 17.78 12.835-.04 1.545-.46 4.11-2.717 4.847 1.434 1.421-.175 6.3-4.762 9.032-1.659.968-3.696 1.68-6.197 1.863.3-2.942-2.702-3.803-4.852-3.178-1.523.443-8.54 2.417-11.467 2.392a5.993 5.993 0 0 0-.483.02c-8.006-.153-14.44-6.785-6.578-12.43-6.227 1.812-10.63 10.022-2.6 16.051-.612.77-1.69 1.668-5.64 2.816-13.06 3.1-25.287-5.79-26.951-7.518l4.553-2.11s-16.817-8.258-27.952-8.65l3.608-1.743c-14.153-3.58-24.549.996-24.549.996 11.573-2.627 20.386-.13 20.386-.13l-3.53 1.795c12.032.426 28.082 7.962 28.082 7.962l-4.71 2.222c6.043 6.228 12.834 9.852 19.7 11.747H19.365l2.314 4.85-17.162 39.378H190.91zm-44.816-76.423c-4.777-1.575-3.611-3.518-14.399-3.814 0 0 10.614 2.64 6.289 2.91.745 1.85 3.744 3.27 5.158 3.005 1.408-.265 1.724-.912 1.724-.912s-1.14-1.289 1.228-1.189z" fill="#2B53A0"/><path d="M163.982 79.956c-1.067.202-3.298-.9-3.83-2.329 3.252-.2-4.658-2.244-4.658-2.244 8.074.238 7.17 1.731 10.739 2.958-1.781-.08-.941.914-.941.914s-.244.5-1.31.701zm-19.117 1.318s-.317.647-1.724.912c-1.414.265-4.413-1.156-5.158-3.005 4.325-.27-6.289-2.91-6.289-2.91 10.787.296 9.622 2.239 14.398 3.814-2.368-.1-1.227 1.189-1.227 1.189zm2.232 20.764c2.5-.184 4.538-.895 6.197-1.864 4.587-2.732 6.196-7.61 4.762-9.031 2.257-.738 2.676-3.302 2.716-4.847-3.557-3.841-12.263-8.293-17.78-12.836-2.75-2.261-8.137-3.209-8.137-3.209s-3.24-4.876-13.63-4.701c-.868.014-2.457-.02-3.268-.56-.876 3.454 3.123 6.864 3.123 6.864s-31.635-11.767-96.71 20.86c26.666-11.738 44.365-5.026 44.365-5.026l-3.608 1.742c11.135.393 27.952 8.651 27.952 8.651l-4.553 2.11c1.664 1.729 13.89 10.617 26.951 7.518 3.95-1.149 5.028-2.045 5.64-2.816-8.03-6.03-3.627-14.239 2.6-16.05-7.863 5.644-1.428 12.275 6.578 12.428a7.06 7.06 0 0 1 .483-.02c2.928.026 9.944-1.948 11.467-2.391 2.15-.625 5.152.236 4.852 3.178zm.983 19.866h1.776c1.083-.001 2.389-.001 2.294 1.535-.063 1.08-.726 2.987-1.878 3.943-.611.497-1.457.627-2.042.627l-2.112.003 1.962-6.108zm7.903 9.378c2.967-2.948 4.15-8.076 4.26-10.101.184-3.474-2.09-4.056-5.044-4.056h-15.222l.826 2.075-7.208 22.237 8.22-.011 2.77-8.52 3.985 8.51 8.385-.014-4.16-8.655c1.226-.185 2.283-.599 3.188-1.465zm-17.728-14.156h-19.901l-1.637 4.786 5.728-.003-6.77 19.552 8.649-.012 6.61-19.541 5.77-.003 1.551-4.78zm-22.523 0l-11.297.002c-.726 0-1.745.031-3.343 1.071-2.267 1.463-4.185 6.574-4.4 8.489-.257 2.285 1.902 3.31 3.192 3.91l2.345 1.094c.938.467 2.164 1.033 2.06 2.034-.25 2.38-2.326 2.52-4.058 2.522l-7.727.008-1.934 5.24 11.611-.015c2.447-.003 4.53-.074 6.36-1.703 2.237-2.097 3.995-6.493 4.229-8.894.237-2.457-1.411-3.216-3.12-4.006l-2.622-1.187c-1.19-.46-1.975-.987-1.893-1.774.132-1.25 1.228-2.002 2.61-2.003l6.34-.001 1.647-4.786zm-64.785.002H40.78l.64 2.086-2.76 6.678-4.97.002 3.776-8.766H27.303l.615 2.088-9.696 22.384 8.744-.014 4.546-10.599 4.987-.003-4.5 10.596 8.761-.013 10.187-24.439zm44.514 4.79l1.734-4.791H78.756l.711 2.081-8.564 22.317 8.506-.012 4.077-10.738 8.245-.006 1.765-4.872-8.048.004 1.486-3.993 8.527.01zm75.626 9.254l4.631-8.626-.129 8.621-4.502.005zm12.712-14.047h-13.09l.77 2.071-13.642 22.208 7.718-.012 3.07-5.72 6.898-.01-.086 5.718 8.814-.014-.452-24.241zm-126.233 19.36c.704 0 1.592-.236 2.269-.81 2.024-1.715 5.443-9.379 5.742-11.49.191-1.349-.208-2.4-1.998-2.399-.547 0-1.444.133-2.065.624-2.157 1.71-5.686 9.847-5.984 11.824-.233 1.548.515 2.254 2.036 2.252zm-10.898-.995c.716-4.529 4.523-13.078 8.107-15.927 2.12-1.698 5.094-2.836 10.59-2.836 5.964 0 9.645 1.008 8.952 6.171-.632 4.718-3.088 11.456-7.946 16.076-1.757 1.666-5.188 2.759-10.702 2.765-5.516.009-9.864-.803-9.001-6.249zm-2.492 13.423h.731c.503 0 .83-.132 1.057-.358.287-.3.621-.986.686-1.371.096-.565-.29-.612-.646-.612h-.828l-1 2.341zm-2.709 3.524c-.187 0-.337-.046-.303-.244a.819.819 0 0 1 .045-.15l2.475-5.81a2.16 2.16 0 0 0 .097-.281c.026-.15-.069-.235-.15-.273l.053-.14h3.473c.848 0 1.414.216 1.257 1.136-.129.762-.717 2.37-1.614 2.943-.377.245-.828.404-1.854.404h-1.234l-.72 1.693a1.374 1.374 0 0 0-.103.31c-.025.149.068.234.151.272l-.053.14h-1.52zm31.44-4.145h1.016c.573 0 1.178-.253 1.338-1.193.077-.46-.227-.527-.69-.527h-.928l-.736 1.72zm-2.983 4.145c-.187 0-.337-.046-.303-.244a.857.857 0 0 1 .044-.15l2.476-5.81a2.09 2.09 0 0 0 .097-.281c.026-.15-.069-.235-.151-.273l.054-.14h3.433c1.027 0 1.587.244 1.411 1.278-.213 1.259-1.16 2.48-2.425 2.49l.318 1.673c.048.245.14.282.367.282h.277l-.328.763c-.14.309-.237.412-.563.412h-.75c-.325 0-.472-.065-.52-.422l-.324-2.689h-.562l-1.027 2.389c-.038.112-.085.215-.102.31-.026.149.07.234.151.272l-.052.14h-1.52zm28.566 0c-.188 0-.338-.046-.305-.244a.916.916 0 0 1 .046-.15l2.475-5.81a2.02 2.02 0 0 0 .097-.281c.026-.15-.068-.235-.151-.273l.054-.14h1.52c.187 0 .337.046.304.244a.803.803 0 0 1-.043.132l-2.474 5.8a1.398 1.398 0 0 0-.102.31c-.025.149.07.234.152.272l-.053.14h-1.52m27.018-1.175h.82c.829 0 1.197-.197 1.437-.45.375-.406 1.365-2.398 1.55-3.497.114-.667-.337-.743-.732-.743h-1.095l-1.98 4.69zm-1.718 1.175c-.188 0-.34-.037-.304-.244a.637.637 0 0 1 .042-.132l2.46-5.837a1.57 1.57 0 0 0 .098-.29c.027-.16-.06-.227-.164-.255l.074-.14h3.591c1.107 0 1.634.432 1.415 1.729-.165.968-.976 3.422-2.359 4.596-.52.441-1.154.573-2.16.573h-2.693zm35.447-6.419c-.194.442-.282.554-.736.554h-2.24l-.63 1.504h2.565l-.35.79c-.11.234-.242.32-.519.32h-1.608c-.425 0-.586.083-.753.48l-.685 1.596h2.112c.533 0 .653-.066.873-.319h.138l-.41.968c-.16.357-.228.526-.781.526h-3.641c-.188 0-.34-.037-.304-.244a.634.634 0 0 1 .043-.132l2.46-5.837c.033-.075.084-.206.099-.29.027-.16-.061-.227-.165-.255l.074-.14h4.667l-.21.479" fill="#FFF"/><path d="M193.833 159.248l-1.352-48.847h-43.208c7.315-3.274 18.458-7.52 15.227-.95 17.064-2.4 16.62-16.031 14.865-18.155 2.19-1.635 2.807-5.147 2.185-7.726 0 0-9.133-5.23-10.682-7.613-.983-1.512-2.414-3.562-4.198-4.417 8.742-11.676-9.34-29.132-24.647-28.837l1.965 3.022c-9.295-3.138-28.666-1.62-40.987 2.666l3.332 1.781c-14.3 1.926-33.167 9.494-42.236 14.498l3.294.93c-16.421 6.124-28.94 13.877-42.66 24.9 23.634-16.074 34.742-20.23 47.884-25.137l-3.764-1.055c8.962-4.246 22.992-10.154 42.292-12.964l-3.104-2.027c15.083-4.387 34.307-4.037 39.645-.086l-1.76-3.471c9.991.976 27.125 14.673 18.66 25.975 1.309.95 4.132 3.229 4.793 4.692 1.129 2.506 10.651 7.813 10.651 7.813.585 1.902-.456 5.343-2.464 6.436 1.955 2.232 1.742 13.54-10.613 16.338 1.405-6.07-11.464-1.148-17.823 1.65l1.355-2.744c-.162.036-7.6 3.989-18.087 6.36h57.832l.68 44.228H4.519l17.161-39.379-2.314-4.85h84.748c-6.865-1.894-13.656-5.517-19.699-11.745l4.71-2.22s-16.05-7.539-28.081-7.963l3.53-1.795s-8.814-2.497-20.387.13c9.658-1.19 16.217.753 16.217.753l-3.594 1.743c4.174.398 15.746 1.168 27.871 7.525l-3.498 1.63s4.394 5.87 11.99 10.064H15.598l3.142 6.728L0 159.25h193.833m3.242-2.443h.243c.283 0 .513-.093.513-.32 0-.202-.148-.335-.472-.335-.136 0-.23.013-.284.026v.63zm-.014 1.233h-.513v-2.197c.203-.027.486-.066.85-.066.42 0 .609.066.757.173a.55.55 0 0 1 .23.47c0 .267-.203.441-.46.522v.026c.217.067.325.241.392.536.068.334.122.455.163.536h-.54c-.068-.08-.109-.269-.176-.536-.041-.228-.176-.335-.46-.335h-.243v.87zm-1.363-1.139c0 .978.742 1.755 1.728 1.755.959.013 1.688-.777 1.688-1.742 0-.977-.73-1.767-1.715-1.767-.959 0-1.701.79-1.701 1.754zm3.983 0c0 1.233-.999 2.21-2.268 2.21-1.27 0-2.283-.977-2.283-2.21 0-1.232 1.013-2.196 2.296-2.196 1.256 0 2.255.964 2.255 2.196z" fill="#F4C019"/></g></svg>