<?xml version="1.0" encoding="UTF-8"?>
<svg width="200px" height="200px" viewBox="0 0 200 200" version="1.1" xmlns="http://www.w3.org/2000/svg" xmlns:xlink="http://www.w3.org/1999/xlink">
    <!-- Generator: Sketch 51.3 (57544) - http://www.bohemiancoding.com/sketch -->
    <title>hofstra</title>
    <desc>Created with Sketch.</desc>
    <defs></defs>
    <g id="hofstra" stroke="none" stroke-width="1" fill="none" fill-rule="evenodd">
        <g id="hofstra_BGL" transform="translate(0.000000, 41.791045)">
            <g id="hofstra">
                <g id="g10" transform="translate(99.999998, 58.931774) scale(-1, 1) rotate(-180.000000) translate(-99.999998, -58.931774) translate(0.000000, 0.406347)" fill-rule="nonzero">
                    <g id="g12">
                        <path d="M190.908864,2.74006346 L190.227518,46.9683837 L132.395715,46.9683837 C142.883177,49.3396035 150.321097,53.2926474 150.483177,53.3295821 L149.127825,50.5847699 C155.487458,53.3831344 168.355959,58.3043647 166.951066,52.2350656 C179.305806,55.0327023 179.519262,66.3417556 177.56391,68.5736061 C179.572473,69.666485 180.613451,73.1076589 180.02813,75.0089771 C180.02813,75.0089771 170.505806,80.3168998 169.376754,82.8216668 C168.716204,84.2863187 165.892962,86.5636552 164.584705,87.5140111 C173.048925,98.8169996 155.914981,112.513162 145.924155,113.489597 L147.683788,110.017493 C142.346174,113.969324 123.122321,114.31987 108.038529,109.932585 L111.143116,107.905725 C91.8434228,105.095898 77.8128421,99.1875595 68.8513744,94.9409788 L72.6146771,93.8869146 C59.4729649,88.9792695 48.3653199,84.8230544 24.7316813,68.7500921 C41.2982864,77.6380727 68.8819555,87.8026961 94.8740037,89.0132324 C112.426297,90.6070648 121.079508,87.3945343 121.079508,87.3945343 C121.079508,87.3945343 117.081954,90.8041711 117.957184,94.2586875 C118.768193,93.7177064 120.356572,93.6843499 121.225073,93.698299 C131.614064,93.873572 134.855043,88.9968574 134.855043,88.9968574 C134.855043,88.9968574 140.243422,88.0495339 142.992657,85.7879659 C148.509476,81.2454224 157.215287,76.7926381 160.772473,72.9523997 C160.732106,71.4076923 160.312534,68.8422772 158.056265,68.1054027 C159.489904,66.6838109 157.88073,61.8058834 153.293574,59.0731401 C151.63547,58.1053782 149.59755,57.3937333 147.097244,57.2101515 C147.396938,60.152252 144.395103,61.0132126 142.244645,60.3882338 C140.721709,59.9449567 133.705807,57.9715279 130.777978,57.9963936 C130.657489,57.9978491 130.491128,57.9907533 130.29541,57.9762584 C122.289294,58.1293342 115.854431,64.7612658 123.716816,70.4057855 C117.489905,68.5942264 113.086847,60.384413 121.117428,54.3551417 C120.504584,53.5844861 119.426908,52.6873186 115.477673,51.5393105 C102.416511,48.4395856 90.1902118,57.3285972 88.5259917,59.0568258 L93.0788968,61.1672588 C93.0788968,61.1672588 76.2617718,69.425712 65.1272155,69.8181053 L68.7351665,71.5605255 C54.58165,75.1405835 44.1859928,70.5646836 44.1859928,70.5646836 C55.75902,73.1907468 64.5724754,70.693864 64.5724754,70.693864 L61.0426284,68.8992864 C73.0740043,68.4735367 89.1235452,60.9367959 89.1235452,60.9367959 L84.4140652,58.7156802 C90.4574901,52.4873618 97.247704,48.8636372 104.113759,46.9683837 L19.3651983,46.9683837 L21.679082,42.1189001 L4.51739438,2.74006346 L190.908864,2.74006346 Z M146.092963,79.1627662 C141.315593,80.7384042 142.481954,82.6809632 131.694186,82.9775324 C131.694186,82.9775324 142.308253,80.3381266 137.982871,80.0676361 C138.727825,78.2178687 141.727214,76.7974899 143.141281,77.0625222 C144.54862,77.3269479 144.864828,77.9746698 144.864828,77.9746698 C144.864828,77.9746698 143.724155,79.2628356 146.092963,79.1627662 Z" id="path14" fill="#2B53A0"></path>
                        <path d="M163.981647,79.2919467 C162.914981,79.090595 160.6844,80.1925712 160.152901,81.6208342 C163.403666,81.8221859 155.493574,83.8654208 155.493574,83.8654208 C163.56758,83.6270737 162.663604,82.1339172 166.233023,80.9076124 C164.451984,80.9870614 165.291739,79.9936454 165.291739,79.9936454 C165.291739,79.9936454 165.048314,79.4932985 163.981647,79.2919467 Z M144.864828,77.9746698 C144.864828,77.9746698 144.548009,77.3269479 143.140669,77.0625222 C141.726602,76.7974899 138.727825,78.2178687 137.982871,80.0676361 C142.308253,80.3381266 131.694186,82.9775324 131.694186,82.9775324 C142.481342,82.6809632 141.315593,80.7384042 146.092351,79.1627662 C143.723544,79.2628356 144.864828,77.9746698 144.864828,77.9746698 Z M147.097244,57.2101515 C149.59755,57.3942185 151.63547,58.1053782 153.293574,59.0738679 C157.88073,61.8064899 159.489904,66.6838109 158.056265,68.1054027 C160.312534,68.8428837 160.732106,71.4076923 160.772473,72.9523997 C157.215287,76.7932446 148.509476,81.2454224 142.992657,85.7879659 C140.24281,88.0495339 134.855043,88.9968574 134.855043,88.9968574 C134.855043,88.9968574 131.614064,93.873572 121.225073,93.698299 C120.356572,93.6843499 118.768193,93.7177064 117.956572,94.2586875 C117.081343,90.8041711 121.079508,87.3945343 121.079508,87.3945343 C121.079508,87.3945343 89.4446461,99.1614808 24.3704581,66.5334036 C51.0357174,78.272452 68.7345549,71.5605255 68.7345549,71.5605255 L65.1266039,69.8181053 C76.2617718,69.425712 93.0788968,61.1672588 93.0788968,61.1672588 L88.5259917,59.0568258 C90.1902118,57.3285972 102.416511,48.4403133 115.477061,51.5393105 C119.426297,52.6880464 120.504584,53.5844861 121.117428,54.3551417 C113.086236,60.3851407 117.489905,68.5942264 123.716816,70.4057855 C115.854431,64.7612658 122.289294,58.1298194 130.29541,57.9769862 C130.490517,57.9907533 130.657489,57.9978491 130.777978,57.9963936 C133.705807,57.9715279 140.721709,59.9449567 142.244645,60.3882338 C144.395103,61.0132126 147.396938,60.152252 147.097244,57.2101515 Z M148.080119,37.3440743 L149.855654,37.3440743 C150.938834,37.3452873 152.244645,37.3452873 152.150455,35.8096165 C152.086846,34.7283819 151.423849,32.822697 150.272167,31.8663369 C149.660547,31.3690224 148.814675,31.2387503 148.229966,31.2387503 L146.118039,31.2361424 L148.080119,37.3440743 Z M155.983482,27.9661176 C158.949843,30.9141616 160.133941,36.04202 160.242198,38.0676063 C160.426907,41.5408629 158.152901,42.1236913 155.199384,42.1236913 L139.977367,42.1224783 L140.803055,40.0483736 L133.595104,17.8111372 L141.814064,17.822721 L144.584706,26.3419005 L148.570027,17.8324247 L156.955348,17.8464344 L152.795103,26.5008592 C154.021403,26.6863818 155.077672,27.1000019 155.983482,27.9661176 Z M138.255042,42.1224783 L118.353514,42.121326 L116.717428,37.3367359 L122.444645,37.3393438 L115.674615,17.7874238 L124.323544,17.7990076 L130.93333,37.3404961 L136.704584,37.3428613 L138.255042,42.1224783 Z M115.732107,42.121326 L104.435471,42.120113 C103.708866,42.120113 102.689906,42.0890612 101.091741,41.0490674 C98.825074,39.5861743 96.9070312,34.4748728 96.6911291,32.5606972 C96.4354716,30.2754763 98.5938813,29.2511297 99.8844012,28.6507741 L102.228744,27.556015 C103.16697,27.0890852 104.39327,26.5231171 104.289294,25.5226658 C104.039753,23.1414997 101.962689,23.0026762 100.230579,23.0000683 L92.5039732,22.9922447 L90.5700283,17.7516414 L102.181037,17.7668035 C104.628132,17.7706243 106.710089,17.8414613 108.540058,19.4704089 C110.777979,21.5670141 112.535777,25.9628498 112.770028,28.3639085 C113.006725,30.8208241 111.359019,31.5801385 109.65015,32.3702014 L107.02752,33.5571456 C105.837918,34.0174041 105.053208,34.5445575 105.135166,35.3311029 C105.267276,36.5812424 106.3633,37.3331577 107.744951,37.3343706 L114.085624,37.3355229 L115.732107,42.121326 Z M50.947277,42.120113 L40.7790815,42.120113 L41.4182253,40.0339393 L38.6587146,33.356461 L33.6892958,33.3545809 L37.464892,42.120113 L27.3031186,42.120113 L27.9183479,40.0324838 L18.2215286,17.6486003 L26.9662379,17.6618822 L31.51162,28.2608067 L36.4989593,28.264385 L31.9990206,17.6687355 L40.759999,17.6808044 L50.947277,42.120113 Z M95.4605481,37.3307924 L97.1951046,42.121326 L78.7559613,42.121326 L79.4672763,40.0398222 L70.9027505,17.7231975 L79.4091723,17.7353271 L83.4856248,28.4730751 L91.7308846,28.4792612 L93.4960221,33.3510027 L85.4483159,33.3474851 L86.9339428,37.3404961 L95.4605481,37.3307924 Z M171.086846,28.07583 L175.718038,36.7018108 L175.588986,28.0808031 L171.086846,28.07583 Z M183.799384,42.1236913 L170.708864,42.1236913 L171.478283,40.0518912 L157.837305,17.8438266 L165.554736,17.8561381 L168.625684,23.5769531 L175.522931,23.5855045 L175.437304,17.8686923 L184.251372,17.8822168 L183.799384,42.1236913 Z M57.5664206,22.762449 C58.2700291,22.762449 59.1576132,22.998916 59.8349221,23.5727078 C61.858714,25.287897 65.2782858,32.9520594 65.5773684,35.063584 C65.7681941,36.4118522 65.3694173,37.4634904 63.5792033,37.4622775 C63.0324143,37.4622775 62.134555,37.3296401 61.5143716,36.8382691 C59.3570627,35.1273252 55.8275827,26.9907746 55.5303962,25.0142527 C55.296757,23.4660884 56.0452585,22.7600837 57.5664206,22.762449 Z M46.6678887,23.7581697 C47.3843413,28.2868854 51.1910079,36.8359038 54.7751668,39.6856372 C56.8950444,41.3833598 59.8690505,42.5216642 65.3645244,42.5216642 C71.3290502,42.5216642 75.0103957,41.5136319 74.3174293,36.3499911 C73.6850134,31.6322352 71.2287444,24.8941694 66.3706405,20.2747241 C64.6140657,18.6080534 61.1834847,17.5157203 55.6689894,17.509049 C50.1529039,17.5005582 45.8053811,18.3121513 46.6678887,23.7581697 Z" id="path16" fill="#FFFFFF"></path>
                        <path d="M44.1764515,10.3350446 L44.9070325,10.3350446 C45.4097236,10.3350446 45.737797,10.4667723 45.9635463,10.6928078 C46.2514362,10.9936831 46.5854423,11.6797345 46.6503964,12.0647287 C46.7459927,12.6287561 46.3596319,12.676183 46.0041579,12.676183 L45.1755952,12.676183 L44.1764515,10.3350446 Z M41.4671549,6.81132869 C41.279632,6.81132869 41.1302742,6.8574819 41.1637299,7.05531604 C41.1697237,7.0934637 41.1924149,7.16806088 41.208684,7.20554141 L43.683791,13.0144781 C43.7177359,13.098779 43.7714974,13.2400285 43.7810387,13.2963705 C43.8066044,13.4456255 43.7122313,13.5311394 43.6300907,13.569287 L43.683791,13.7100513 L47.1569407,13.7100513 C48.0050753,13.7100513 48.5708245,13.4934769 48.4140661,12.5728992 C48.2853199,11.8112196 47.6968795,10.2040447 46.8004881,9.63025289 C46.4229958,9.38529517 45.9719255,9.22633647 44.9457481,9.22633647 L43.7122313,9.22633647 L42.9914362,7.53364769 C42.9424454,7.42156998 42.9047084,7.31852884 42.8886839,7.22373585 C42.8636075,7.07448084 42.9574913,6.98896701 43.0404271,6.95081935 L42.9866656,6.81132869 L41.4671549,6.81132869 Z" id="path18" fill="#FFFFFF"></path>
                        <path d="M72.9070318,10.9559599 L73.9229339,10.9559599 C74.4960226,10.9559599 75.1009156,11.209469 75.2605486,12.1490296 C75.3382244,12.6093487 75.0342489,12.676183 74.5706403,12.676183 L73.6428116,12.676183 L72.9070318,10.9559599 Z M69.9241573,6.81132869 C69.7370013,6.81132869 69.5865426,6.8574819 69.6207934,7.05531604 C69.6269096,7.0934637 69.6495395,7.16806088 69.6654417,7.20554141 L72.1412826,13.0144781 C72.1749217,13.098779 72.2287444,13.2400285 72.2379187,13.2963705 C72.2636068,13.4456255 72.1694172,13.5311394 72.0868484,13.569287 L72.140671,13.7100513 L75.5736984,13.7100513 C76.6006097,13.7100513 77.1608543,13.4650936 76.9853192,12.4309827 C76.7718635,11.1725343 75.8250746,9.95053556 74.5602428,9.94083186 L74.8782856,8.26827826 C74.925992,8.02307795 75.0177351,7.98614325 75.2446464,7.98614325 L75.5217107,7.98614325 L75.1944935,7.22373585 C75.0538208,6.91461242 74.9571847,6.81132869 74.6305792,6.81132869 L73.8807321,6.81132869 C73.5559615,6.81132869 73.4091725,6.87622217 73.3608544,7.23301501 L73.037307,9.92215225 L72.4746159,9.92215225 L71.4483163,7.53364769 C71.4097841,7.42156998 71.3626893,7.31852884 71.3461756,7.22373585 C71.3204875,7.07448084 71.4152887,6.98896701 71.4972459,6.95081935 L71.4446465,6.81132869 L69.9241573,6.81132869 Z" id="path20" fill="#FFFFFF"></path>
                        <path d="M98.4892942,6.81132869 C98.3021382,6.81132869 98.1522911,6.8574819 98.1853186,7.05531604 C98.1920465,7.0934637 98.2146764,7.16806088 98.2305786,7.20554141 L100.705808,13.0144781 C100.740059,13.098779 100.793881,13.2400285 100.803056,13.2963705 C100.828744,13.4456255 100.734554,13.5311394 100.651985,13.569287 L100.705808,13.7100513 L102.225686,13.7100513 C102.412841,13.7100513 102.562689,13.6628671 102.529661,13.4650936 C102.522933,13.4280982 102.505196,13.3807321 102.486848,13.3336085 L100.013453,7.53364769 C99.9645235,7.42156998 99.9278262,7.31852884 99.9113125,7.22373585 C99.886236,7.07448084 99.9810373,6.98896701 100.062994,6.95081935 L100.009783,6.81132869 L98.4892942,6.81132869" id="path22" fill="#FFFFFF"></path>
                        <path d="M125.508254,7.98614325 L126.327826,7.98614325 C127.156572,7.98614325 127.525379,8.18324961 127.765134,8.43669806 C128.140058,8.84182745 129.12966,10.8342392 129.315593,11.9332436 C129.428743,12.6003728 128.977978,12.676183 128.583483,12.676183 L127.48807,12.676183 L125.508254,7.98614325 Z M123.789599,6.81132869 C123.602443,6.81132869 123.450761,6.84777821 123.485624,7.05531604 C123.492352,7.0934637 123.511312,7.14913867 123.528437,7.18680115 L125.987764,13.0241818 C126.02018,13.098779 126.072168,13.2302641 126.086235,13.3146256 C126.113147,13.4743121 126.026297,13.5409037 125.922321,13.569287 L125.995716,13.7100513 L129.587153,13.7100513 C130.693575,13.7100513 131.221403,13.2776909 131.001832,11.9803672 C130.837306,11.0118775 130.026296,8.55872206 128.643422,7.38463528 C128.123544,6.94299574 127.489293,6.81132869 126.483789,6.81132869 L123.789599,6.81132869 Z" id="path24" fill="#FFFFFF"></path>
                        <path d="M159.236693,13.2302641 C159.042809,12.7882 158.954736,12.676183 158.500913,12.676183 L156.260547,12.676183 L155.630577,11.1725343 L158.196326,11.1725343 L157.845868,10.3828959 C157.735776,10.1481271 157.603666,10.0628559 157.327213,10.0628559 L155.719262,10.0628559 C155.294186,10.0628559 155.132718,9.97897953 154.966357,9.58312931 L154.281342,7.98614325 L156.392657,7.98614325 C156.92599,7.98614325 157.045868,8.0517645 157.266051,8.30521296 L157.403666,8.30521296 L156.993268,7.33720846 C156.834247,6.98071887 156.766357,6.81132869 156.21284,6.81132869 L152.571862,6.81132869 C152.384094,6.81132869 152.232412,6.84777821 152.268498,7.05531604 C152.274614,7.0934637 152.294186,7.14913867 152.3107,7.18680115 L154.770638,13.0241818 C154.803666,13.098779 154.855042,13.2302641 154.869721,13.3146256 C154.896632,13.4743121 154.808559,13.5409037 154.705195,13.569287 L154.778589,13.7100513 L159.445868,13.7100513 L159.236693,13.2302641" id="path26" fill="#FFFFFF"></path>
                        <path d="M193.833023,0 L192.480729,48.8473228 L149.272779,48.8473228 C156.588375,52.1208652 167.730883,56.3679312 164.49969,49.7968296 C181.56391,52.1966754 181.119262,65.8286726 179.365133,67.9525694 C181.554736,69.587036 182.172473,73.0991681 181.549843,75.6779258 C181.549843,75.6779258 172.417121,80.9076124 170.867886,83.2910832 C169.885011,84.803647 168.453818,86.8529467 166.669721,87.7080851 C175.412228,99.3840594 157.32966,116.839799 142.023238,116.545655 L143.987764,113.522954 C134.692963,116.660887 115.32171,115.143471 103.000609,110.857469 L106.332719,109.076234 C92.0330252,107.15005 73.1657474,99.5817722 64.0972461,94.5783031 L67.3914356,93.6473546 C50.9699681,87.5243213 38.4501519,79.7716733 24.7316813,68.7482726 C48.3653199,84.8218415 59.4729649,88.9780565 72.6146771,93.8857017 L68.8513744,94.9397658 C77.8128421,99.1863466 91.8434228,105.094686 111.143116,107.904513 L108.038529,109.931372 C123.122321,114.318657 142.346174,113.968111 147.683788,110.016886 L145.924155,113.488384 C155.914981,112.512556 173.048925,98.8151801 164.584705,87.5127982 C165.892962,86.5630487 168.716204,84.2844992 169.376754,82.8210603 C170.505806,80.3156868 180.02813,75.0077642 180.02813,75.0077642 C180.613451,73.1064459 179.572473,69.6652721 177.56391,68.5717866 C179.519262,66.3405426 179.305806,55.03155 166.951066,52.2339133 C168.355959,58.303455 155.487458,53.3819214 149.127825,50.5836176 L150.483177,53.3284298 C150.321097,53.2926474 142.883177,49.3396035 132.395715,46.9683837 L190.227518,46.9683837 L190.908864,2.74006346 L4.51739438,2.74006346 L21.679082,42.1189001 L19.3651983,46.9683837 L104.113147,46.9683837 C97.247704,48.8636372 90.4574901,52.4862095 84.4140652,58.7142246 L89.1235452,60.9349765 C89.1235452,60.9349765 73.0740043,68.4729302 61.0426284,68.897467 L64.5724754,70.6920446 C64.5724754,70.6920446 55.75902,73.1895338 44.1859928,70.5628641 C53.8436684,71.7527801 60.4030566,69.8090081 60.4030566,69.8090081 L56.8090506,68.0659814 C60.9828731,67.6681298 72.5547382,66.8985053 84.6801202,60.5407638 L81.1816493,58.9108458 C81.1816493,58.9108458 85.575533,53.0417462 93.1724747,48.8473228 L15.5975531,48.8473228 L18.7399384,42.1189001 L0,0 L193.833023,0" id="path28" fill="#F4C019"></path>
                        <path d="M197.075224,2.44108647 L197.318038,2.44108647 C197.601218,2.44108647 197.831188,2.53442997 197.831188,2.76186039 C197.831188,2.96275726 197.682564,3.09660764 197.359016,3.09660764 C197.223237,3.09660764 197.129047,3.08333783 197.075224,3.07007409 L197.075224,2.44108647 Z M197.061157,1.20869866 L196.548007,1.20869866 L196.548007,3.40482134 C196.751065,3.43206447 197.034246,3.47139477 197.398772,3.47139477 C197.817732,3.47139477 198.006723,3.40482134 198.154735,3.29797756 C198.290515,3.20392447 198.384705,3.04330401 198.384705,2.82913734 C198.384705,2.56120005 198.182258,2.38707326 197.925377,2.3065265 L197.925377,2.27975036 C198.141891,2.21294647 198.250148,2.0390562 198.317426,1.74434277 C198.384705,1.41006858 198.438527,1.28877236 198.479506,1.20869866 L197.939445,1.20869866 C197.872166,1.28877236 197.831188,1.47687854 197.763909,1.74434277 C197.722931,1.97177319 197.588374,2.07909609 197.304582,2.07909609 L197.061157,2.07909609 L197.061157,1.20869866 Z M195.697854,2.34703337 C195.697854,1.36955564 196.440362,0.592503539 197.426295,0.592503539 C198.384705,0.579710427 199.114368,1.36955564 199.114368,2.33376963 C199.114368,3.31076825 198.384705,4.10109197 197.398772,4.10109197 C196.440362,4.10109197 195.697854,3.31076825 195.697854,2.34703337 Z M199.681341,2.34703337 C199.681341,1.11464557 198.681952,0.137642707 197.412839,0.137642707 C196.143114,0.137642707 195.13027,1.11464557 195.13027,2.34703337 C195.13027,3.57894813 196.143114,4.54316212 197.426295,4.54316212 C198.681952,4.54316212 199.681341,3.57894813 199.681341,2.34703337 Z" id="path30" fill="#F4C019"></path>
                    </g>
                </g>
            </g>
        </g>
    </g>
</svg>