<svg width="200" height="200" xmlns="http://www.w3.org/2000/svg"><g fill-rule="nonzero" fill="none"><path d="m190.909 156.69-.681-44.604h-57.832c10.487-2.391 17.925-6.378 18.087-6.415l-1.355 2.768c6.36-2.822 19.228-7.785 17.823-1.664 12.355-2.821 12.568-14.226 10.613-16.477 2.008-1.102 3.05-4.573 2.464-6.49 0 0-9.522-5.353-10.651-7.879-.66-1.477-3.484-3.774-4.792-4.732 8.464-11.399-8.67-25.211-18.66-26.196l1.759 3.502c-5.338-3.986-24.562-4.34-39.645.085l3.104 2.044c-19.3 2.834-33.33 8.792-42.292 13.075l3.764 1.063c-13.142 4.95-24.25 9.14-47.883 25.35 16.566-8.963 44.15-19.214 70.142-20.435 17.552-1.607 26.206 1.632 26.206 1.632s-3.998-3.438-3.123-6.922c.811.546 2.4.58 3.268.565 10.39-.177 13.63 4.742 13.63 4.742s5.388.955 8.138 3.236c5.516 4.58 14.222 9.071 17.78 12.944-.04 1.558-.46 4.145-2.717 4.888 1.434 1.434-.175 6.353-4.762 9.109-1.659.976-3.696 1.693-6.197 1.879.3-2.967-2.702-3.836-4.852-3.205-1.523.447-8.54 2.437-11.467 2.412a5.943 5.943 0 0 0-.483.02c-8.006-.154-14.44-6.842-6.578-12.535-6.227 1.827-10.63 10.106-2.6 16.187-.612.777-1.69 1.682-5.64 2.84-13.06 3.126-25.287-5.839-26.951-7.582l4.553-2.128s-16.817-8.328-27.952-8.724l3.608-1.757c-14.153-3.61-24.549 1.004-24.549 1.004 11.573-2.648 20.386-.13 20.386-.13l-3.53 1.81C73.075 90.398 89.125 98 89.125 98l-4.71 2.24c6.043 6.28 12.834 9.935 19.7 11.846H19.365l2.314 4.89L4.517 156.69H190.91Zm-44.816-77.071c-4.777-1.589-3.611-3.548-14.399-3.847 0 0 10.614 2.662 6.289 2.934.745 1.866 3.744 3.298 5.158 3.031 1.408-.267 1.724-.92 1.724-.92s-1.14-1.299 1.228-1.198Z" fill="#2B53A0"/><path d="M163.982 79.489c-1.067.203-3.298-.909-3.83-2.349 3.252-.203-4.658-2.264-4.658-2.264 8.074.24 7.17 1.747 10.739 2.983-1.781-.08-.941.922-.941.922s-.244.505-1.31.708Zm-19.117 1.328s-.317.653-1.724.92c-1.414.267-4.413-1.165-5.158-3.03 4.325-.273-6.289-2.935-6.289-2.935 10.787.299 9.622 2.258 14.398 3.847-2.368-.101-1.227 1.198-1.227 1.198Zm2.232 20.94c2.5-.185 4.538-.902 6.197-1.879 4.587-2.756 6.196-7.674 4.762-9.108 2.257-.744 2.676-3.33 2.716-4.888-3.557-3.873-12.263-8.363-17.78-12.944-2.75-2.281-8.137-3.236-8.137-3.236s-3.24-4.919-13.63-4.742c-.868.014-2.457-.02-3.268-.565-.876 3.484 3.123 6.922 3.123 6.922S89.445 59.451 24.37 92.355c26.666-11.838 44.365-5.07 44.365-5.07l-3.608 1.758c11.135.396 27.952 8.724 27.952 8.724l-4.553 2.128c1.664 1.743 13.89 10.707 26.951 7.582 3.95-1.159 5.028-2.063 5.64-2.84-8.03-6.081-3.627-14.36 2.6-16.187-7.863 5.693-1.428 12.38 6.578 12.534a6.23 6.23 0 0 1 .483-.02c2.928.026 9.944-1.964 11.467-2.411 2.15-.63 5.152.238 4.852 3.205Zm.983 20.035h1.776c1.083-.001 2.389-.001 2.294 1.548-.063 1.09-.726 3.012-1.878 3.976-.611.502-1.457.633-2.042.633l-2.112.003 1.962-6.16Zm7.903 9.457c2.967-2.973 4.15-8.144 4.26-10.187.184-3.502-2.09-4.09-5.044-4.09l-15.222.001.826 2.092-7.208 22.426 8.22-.012 2.77-8.592 3.985 8.582 8.385-.014-4.16-8.728c1.226-.187 2.283-.604 3.188-1.478Zm-17.728-14.276-19.901.001-1.637 4.825 5.728-.002-6.77 19.717 8.649-.011 6.61-19.707 5.77-.003 1.551-4.82Zm-22.523.001-11.297.002c-.726 0-1.745.03-3.343 1.08-2.267 1.475-4.185 6.63-4.4 8.56-.257 2.305 1.902 3.338 3.192 3.943l2.345 1.104c.938.47 2.164 1.042 2.06 2.05-.25 2.402-2.326 2.542-4.058 2.545l-7.727.008-1.934 5.285 11.611-.016c2.447-.004 4.53-.075 6.36-1.718 2.237-2.114 3.995-6.547 4.229-8.969.237-2.477-1.411-3.243-3.12-4.04l-2.622-1.197c-1.19-.464-1.975-.996-1.893-1.789.132-1.26 1.228-2.019 2.61-2.02l6.34-.001 1.647-4.827Zm-64.785.002H40.78l.64 2.103-2.76 6.734-4.97.002 3.776-8.84H27.303l.615 2.106-9.696 22.573 8.744-.013 4.546-10.689 4.987-.003-4.5 10.685 8.761-.012 10.187-24.646Zm44.514 4.83 1.734-4.832H78.756l.711 2.1-8.564 22.505 8.506-.012 4.077-10.829 8.245-.006 1.765-4.913-8.048.004 1.486-4.027 8.527.01Zm75.626 9.333 4.631-8.7-.129 8.695-4.502.005Zm12.712-14.167h-13.09l.77 2.09-13.642 22.396 7.718-.013 3.07-5.77 6.898-.008-.086 5.765 8.814-.013-.452-24.447ZM57.566 136.497c.704 0 1.592-.238 2.269-.817 2.024-1.73 5.443-9.459 5.742-11.588.191-1.36-.208-2.42-1.998-2.42-.547 0-1.444.135-2.065.63-2.157 1.726-5.686 9.931-5.984 11.924-.233 1.562.515 2.274 2.036 2.271Zm-10.898-1.004c.716-4.567 4.523-13.188 8.107-16.062 2.12-1.712 5.094-2.86 10.59-2.86 5.964 0 9.645 1.016 8.952 6.224-.632 4.757-3.088 11.552-7.946 16.211-1.757 1.68-5.188 2.782-10.702 2.79-5.516.008-9.864-.81-9.001-6.303ZM44.176 149.03h.731c.503 0 .83-.133 1.057-.36.287-.304.621-.996.686-1.384.096-.57-.29-.617-.646-.617h-.828l-1 2.361Zm-2.709 3.554c-.187 0-.337-.047-.303-.247a.83.83 0 0 1 .045-.151l2.475-5.858c.034-.085.087-.228.097-.284.026-.151-.069-.237-.15-.276l.053-.142h3.473c.848 0 1.414.219 1.257 1.147-.129.768-.717 2.39-1.614 2.968-.377.247-.828.407-1.854.407h-1.234l-.72 1.707a1.394 1.394 0 0 0-.103.313c-.025.15.068.236.151.275l-.053.14h-1.52ZM72.907 148.404h1.016c.573 0 1.178-.256 1.338-1.203.077-.465-.227-.532-.69-.532h-.928l-.736 1.735Zm-2.983 4.18c-.187 0-.337-.047-.303-.247a.87.87 0 0 1 .044-.151l2.476-5.858a2.12 2.12 0 0 0 .097-.284c.026-.151-.069-.237-.151-.276l.054-.142h3.433c1.027 0 1.587.247 1.411 1.29-.213 1.27-1.16 2.502-2.425 2.512l.318 1.686c.048.248.14.285.367.285h.277l-.328.769c-.14.311-.237.416-.563.416h-.75c-.325 0-.472-.066-.52-.426l-.324-2.712h-.562l-1.027 2.41c-.038.112-.085.216-.102.312-.026.15.07.236.151.275l-.052.14h-1.52ZM98.49 152.584c-.188 0-.338-.047-.305-.247a.93.93 0 0 1 .046-.151l2.475-5.858c.034-.085.088-.228.097-.284.026-.151-.068-.237-.151-.276l.054-.142h1.52c.187 0 .337.048.304.247a.815.815 0 0 1-.043.133l-2.474 5.85a1.419 1.419 0 0 0-.102.312c-.025.15.07.236.152.275l-.053.14h-1.52M125.508 151.399h.82c.829 0 1.197-.199 1.437-.455.375-.408 1.365-2.417 1.55-3.526.114-.673-.337-.749-.732-.749h-1.095l-1.98 4.73Zm-1.718 1.185c-.188 0-.34-.037-.304-.247a.646.646 0 0 1 .042-.132l2.46-5.887c.032-.075.084-.208.098-.293.027-.16-.06-.228-.164-.257l.074-.142h3.591c1.107 0 1.634.436 1.415 1.745-.165.976-.976 3.45-2.359 4.634-.52.446-1.154.579-2.16.579h-2.693ZM159.237 146.11c-.194.446-.282.559-.736.559h-2.24l-.63 1.516h2.565l-.35.797c-.11.236-.242.322-.519.322h-1.608c-.425 0-.586.085-.753.484l-.685 1.61h2.112c.533 0 .653-.065.873-.321h.138l-.41.976c-.16.36-.228.53-.781.53h-3.641c-.188 0-.34-.036-.304-.246a.644.644 0 0 1 .043-.132l2.46-5.887c.033-.075.084-.208.099-.293.027-.16-.061-.228-.165-.257l.074-.142h4.667l-.21.484" fill="#FFF"/><path d="m193.833 159.453-1.352-49.262h-43.208c7.315-3.301 18.458-7.584 15.227-.957 17.064-2.42 16.62-16.168 14.865-18.31 2.19-1.648 2.807-5.19 2.185-7.79 0 0-9.133-5.275-10.682-7.678-.983-1.526-2.414-3.592-4.198-4.455 8.742-11.775-9.34-29.378-24.647-29.082l1.965 3.049c-9.295-3.165-28.666-1.635-40.987 2.688l3.332 1.796c-14.3 1.943-33.167 9.575-42.236 14.62l3.294.94c-16.421 6.175-28.94 13.993-42.66 25.11 23.634-16.21 34.742-20.402 47.884-25.35l-3.764-1.064c8.962-4.282 22.992-10.24 42.292-13.074l-3.104-2.044c15.083-4.425 34.307-4.071 39.645-.087l-1.76-3.5c9.991.984 27.125 14.797 18.66 26.195 1.309.958 4.132 3.256 4.793 4.732 1.129 2.526 10.651 7.88 10.651 7.88.585 1.917-.456 5.387-2.464 6.49 1.955 2.25 1.742 13.655-10.613 16.476 1.405-6.121-11.464-1.158-17.823 1.664l1.355-2.768c-.162.036-7.6 4.023-18.087 6.414h57.832l.68 44.603H4.519l17.161-39.712-2.314-4.89h84.748c-6.865-1.912-13.656-5.565-19.699-11.846l4.71-2.24s-16.05-7.602-28.081-8.03l3.53-1.81s-8.814-2.518-20.387.13c9.658-1.2 16.217.761 16.217.761L56.81 90.81c4.174.401 15.746 1.177 27.871 7.589l-3.498 1.644s4.394 5.918 11.99 10.148H15.598l3.142 6.786L0 159.453h193.833M197.075 156.99h.243c.283 0 .513-.093.513-.323 0-.202-.148-.337-.472-.337-.136 0-.23.013-.284.027v.634Zm-.014 1.244h-.513v-2.215c.203-.028.486-.067.85-.067.42 0 .609.067.757.175.136.095.23.257.23.472 0 .27-.203.446-.46.528v.027c.217.067.325.242.392.54.068.337.122.459.163.54h-.54c-.068-.081-.109-.27-.176-.54-.041-.23-.176-.338-.46-.338h-.243v.878Zm-1.363-1.148c0 .985.742 1.77 1.728 1.77.959.012 1.688-.785 1.688-1.757 0-.985-.73-1.782-1.715-1.782-.959 0-1.701.797-1.701 1.769Zm3.983 0c0 1.243-.999 2.228-2.268 2.228-1.27 0-2.283-.985-2.283-2.228 0-1.243 1.013-2.215 2.296-2.215 1.256 0 2.255.972 2.255 2.215Z" fill="#F4C019"/></g></svg>