<svg width="200" height="200" xmlns="http://www.w3.org/2000/svg"><g fill="none"><path d="M100.155.052c4.976 2.65 10.159 4.78 15.497 6.597 22.028 7.48 45.766 10.234 68.933 10.182.726 21.974.156 44.208-2.643 65.974-1.658 12.831-4.094 25.974-8.293 38.286-2.176 6.39-5.027 12.415-8.085 18.39-6.479 12.519-14.357 24.26-24.36 34.285-11.506 11.689-25.655 20.468-41.1 25.974-3.836-1.454-7.62-2.96-11.3-4.727-13.475-6.442-25.447-15.74-35.191-27.065-10.107-11.636-17.674-24.883-23.945-38.857-2.229-5.091-3.991-10.442-5.494-15.792-3.887-14.078-5.96-28.831-7.308-43.377-1.503-17.662-1.97-35.48-1.192-53.195 22.13.156 44.884-2.493 65.978-9.195C88.08 5.61 94.247 3.17 100.155.052z" fill="#642C91"/><path d="M100.155 4.727c5.494 2.65 11.092 4.935 16.949 6.805 20.369 6.546 42.24 9.247 63.542 9.403.519 20.623-.207 41.455-2.798 61.974-1.659 12.416-3.991 25.091-8.034 36.987-2.125 6.286-4.924 12.104-7.93 17.974-5.908 11.429-13.06 22.13-21.975 31.48-11.04 11.637-24.723 20.572-39.754 26.079-16.274-6.026-30.527-15.74-42.137-28.676-10.47-11.688-18.192-24.987-24.567-39.272-1.97-4.468-3.524-9.143-4.872-13.87-3.524-12.364-5.545-25.3-6.893-38.079-1.866-18.13-2.436-36.415-2.021-54.649 15.341-.156 30.63-1.506 45.661-4.675 12.025-2.546 23.686-6.026 34.83-11.48z" fill="#FFF"/><path d="M100.155 9.61c3.94 1.974 8.034 3.689 12.18 5.195 20.266 7.117 42.449 9.974 63.854 10.13.518 17.766-.155 36.104-2.073 53.766-1.503 13.247-3.784 26.805-8.034 39.48-2.125 6.494-5.183 12.52-8.292 18.598-5.028 9.507-10.988 18.442-18.244 26.39-10.729 11.896-24.308 20.987-39.287 26.545-8.914-3.376-17.414-7.844-25.033-13.61-13.58-10.13-23.842-23.377-31.875-38.182-3.525-6.65-6.946-13.61-9.278-20.78-3.576-11.012-5.701-22.648-7.204-34.129-2.384-19.22-3.058-38.753-2.643-58.078 17.466-.104 35.192-2.026 52.088-6.493 8.085-2.234 16.326-4.987 23.841-8.832z" fill="#642C91"/><path d="M80.564 31.117c1.296 3.273 2.384 6.65 3.524 9.974a69.42 69.42 0 0 1 31.513-.104 211.475 211.475 0 0 1 3.472-10.13c7.464 2.026 14.46 4.935 21.043 9.091-1.244 3.325-2.28 6.753-3.317 10.13 7.619 5.247 13.268 11.532 17.674 19.74-6.427 3.792-12.906 7.429-19.333 11.221-1.036-1.922-2.125-3.844-3.42-5.61a119.128 119.128 0 0 0 0 27.844c1.399-1.922 2.54-3.948 3.628-6.078 6.375 3.844 12.801 7.688 19.176 11.532-1.45 2.494-2.798 4.987-4.56 7.273-3.629 4.935-8.138 9.039-13.165 12.571 1.036 3.429 2.073 6.806 3.317 10.13-6.53 4.156-13.58 7.065-21.043 9.091-1.244-3.376-2.332-6.753-3.42-10.13-10.263 2.39-20.94 2.338-31.202 0-1.036 3.377-2.125 6.754-3.317 10.078-7.463-2.078-14.46-5.039-20.99-9.195a227.56 227.56 0 0 0 3.213-10.077c-10.366-7.065-18.296-17.403-20.991-29.819-2.28-10.181-.674-21.039 4.25-30.181 3.939-7.325 9.692-13.403 16.482-18.13-1.089-3.325-2.177-6.65-3.37-9.922 6.376-4.156 13.373-7.377 20.836-9.3z" fill="#000"/><path d="M79.631 32.987a325.641 325.641 0 0 1 3.42 10.026c10.937-2.91 22.598-2.91 33.586-.104 1.037-3.377 2.125-6.753 3.37-10.13 6.374 1.87 12.438 4.364 18.14 7.844-1.193 3.325-2.23 6.754-3.214 10.13 7.256 4.728 13.165 10.857 17.363 18.442-5.546 3.22-11.092 6.39-16.586 9.61-1.45-2.65-3.11-4.935-5.183-7.22-1.658 11.947-1.658 23.48 0 35.376 2.177-2.338 3.888-4.727 5.39-7.584 5.495 3.324 10.988 6.545 16.482 9.87-4.146 7.584-10.158 13.818-17.414 18.545.985 3.429 2.073 6.805 3.213 10.182-5.701 3.429-11.713 5.974-18.14 7.844a210.318 210.318 0 0 1-3.317-10.13c-10.884 2.806-22.442 2.754-33.326 0-1.037 3.377-2.074 6.754-3.317 10.078-6.375-1.87-12.44-4.467-18.089-8a225.4 225.4 0 0 0 3.162-10.026c-9.848-6.493-17.674-15.792-20.784-27.324-2.85-10.234-1.607-21.403 3.317-30.806 3.991-7.688 10.055-13.87 17.208-18.649-1.089-3.325-2.125-6.65-3.317-9.922 5.7-3.533 11.557-6.13 18.036-8.052z" fill="#642C91"/><path d="M121.043 34.857c5.286 1.35 10.417 3.792 15.186 6.494-1.192 3.324-2.177 6.753-3.214 10.13 6.997 4.415 12.802 10.077 17.104 17.194-4.613 2.65-9.226 5.299-13.839 8-1.865-3.117-4.25-5.766-6.945-8.207-.57 4-1.088 8.051-1.399 12.051-.777 9.975-.156 19.897 1.4 29.767 2.798-2.546 5.234-5.299 7.1-8.572 4.561 2.754 9.174 5.455 13.735 8.26-4.354 7.169-10.107 12.883-17.156 17.299.985 3.376 1.97 6.805 3.162 10.13-4.872 2.805-9.848 4.987-15.238 6.597a227.56 227.56 0 0 1-3.213-10.078 66.434 66.434 0 0 1-35.503 0 224.776 224.776 0 0 1-3.162 10.026c-5.39-1.662-10.366-3.844-15.186-6.701 1.14-3.325 2.125-6.702 3.11-10.026-5.028-3.221-9.589-7.065-13.269-11.792-4.871-6.182-8.137-13.507-9.018-21.351-1.088-9.091 1.089-18.39 5.805-26.13 4.043-6.65 9.692-11.948 16.17-16.156-1.036-3.324-2.02-6.65-3.264-9.922 4.768-2.909 9.795-5.143 15.134-6.805 1.192 3.325 2.28 6.65 3.317 9.974 11.661-3.325 24.152-3.377 35.814-.104 1.192-3.429 2.021-6.857 3.369-10.078z" fill="#FFF"/><path d="M114.046 60.364c-1.244 6.545-2.177 13.142-2.592 19.74H88.857c-.57-6.65-1.503-13.195-2.955-19.74 9.226-2.65 19.022-2.65 28.144 0z" fill="#642C91"/><path d="M112.232 61.506a173.364 173.364 0 0 0-2.28 17.091H90.307c-.57-5.714-1.348-11.428-2.54-17.039 8.241-2.077 16.275-2.077 24.464-.052z" fill="#000"/><path d="M110.418 62.701c-.881 4.728-1.452 9.507-1.918 14.286-5.598-.052-11.143 0-16.74 0-.52-4.78-1.193-9.558-2.126-14.234 6.945-1.558 13.839-1.558 20.784-.052zM70.716 68.52c1.089 5.87 1.763 11.792 1.97 17.714.26 8.052-.518 16.104-1.866 24-3.887-3.48-7.049-7.533-8.863-12.468a24.277 24.277 0 0 1-.103-16.571c1.71-5.04 4.975-9.091 8.862-12.676z" fill="#642C91"/><path d="M69.628 71.688c1.97 11.793 1.918 23.585.052 35.377-3.94-4.26-6.842-9.247-7.515-15.117-.83-6.961 1.814-13.766 6.375-18.961.362-.468.725-.883 1.088-1.299z" fill="#000"/><path d="M68.54 75.377c1.347 9.246 1.295 18.753.051 28-3.42-4.728-5.493-10.182-4.871-16.156.414-4.312 2.28-8.26 4.82-11.844zm20.369 23.168h22.597c.415 6.65 1.4 13.247 2.592 19.793-9.122 2.597-18.866 2.649-27.988-.052 1.347-6.494 2.228-13.091 2.799-19.74z" fill="#642C91"/><path d="M90.36 100.156h19.591a173.363 173.363 0 0 0 2.28 17.09c-8.085 2.027-16.274 2.027-24.359 0 1.037-5.142 1.762-10.285 2.28-15.48a19.5 19.5 0 0 0 .208-1.61z" fill="#000"/><path d="M91.811 101.714H108.5c.518 4.78 1.088 9.559 1.97 14.286-6.946 1.506-13.735 1.506-20.68 0 .829-4.208 1.399-8.468 1.865-12.78.052-.467.104-.986.156-1.506z" fill="#642C91"/></g></svg>