<svg width="200" height="200" xmlns="http://www.w3.org/2000/svg"><g fill="none"><path fill="#E51636" d="M183.269 105.97V72.072h-49.506v-24.9h10.31V13.275H80.329v33.897h9.62v24.9H54.677v-24.9h9.621V13.275H.552v33.897h10.315v61.882L30.7 126.125h20.056v27.037H40.443v33.882h63.744v-33.882h-9.621v-6.246h34.576v6.246h-9.615v33.882h63.742v-33.882h-10.31V105.97h10.31"/><path d="M118.597 116.404l15.061-13.356v13.356h-15.061zm59.85-15.254V76.893H128.94V42.35h10.31V18.097H85.152V42.35h9.62v34.543H49.854V42.35h9.619V18.097H5.375V42.35h10.316v64.491l16.798 14.46h23.088v36.685H45.266v24.235h54.099v-24.235h-9.622v-15.891h44.221v15.891h-9.614v24.235h54.097v-24.235h-10.311V101.15h10.311z" fill="#FFF"/><path fill="#E51636" d="M99.354 101.141h-9.618v15.577h21.134l13.488-11.978V37.768h10.309V22.679H89.734v15.089h9.62v63.373m-43.767 0H45.273V37.768h9.619V22.679H9.958v15.089h10.315v66.972l13.915 11.978h21.4v-15.577"/><path fill="#E51636" d="M173.865 96.566V81.474h-44.932v15.092h9.615v24.729H85.16V96.566h9.621V81.474H49.848v15.092H60.16v66H49.848v15.073h44.934v-15.073h-9.621v-25.053h53.387v25.053h-9.615v15.073h44.932v-15.073h-10.311v-66h10.311m20.679 85.454c.471 0 .738-.216.738-.57v-.026c0-.392-.291-.582-.751-.582h-.878v1.178h.891zm-2.254-2.344h2.279c.777 0 1.313.202 1.656.545.28.279.42.646.42 1.115v.026c0 .746-.394 1.24-1.006 1.494l1.172 1.698h-1.567l-.993-1.482h-.598v1.482h-1.363v-4.878zm6.1 2.572v-.025c0-2.243-1.745-4.08-4.062-4.08-2.33 0-4.088 1.863-4.088 4.105v.025c0 2.243 1.744 4.08 4.062 4.08 2.332 0 4.088-1.862 4.088-4.105zm-9.288.028v-.028c0-2.823 2.305-5.213 5.227-5.213 2.923 0 5.2 2.363 5.2 5.185v.028c0 2.822-2.305 5.213-5.228 5.213a5.183 5.183 0 0 1-5.199-5.185z"/></g></svg>