<svg width="200" height="200" fill="none" xmlns="http://www.w3.org/2000/svg"><path d="M99.771 185.98c-11.632 0-17.426-2.742-23.706-13.932-9.244-1.504-15.48 8.58-8.713 27.952-11.057-2.3-19.505-9.863-24.458-19.283-3.273-2.256-6.28-4.954-8.89-7.829 0 2.565.133 5.175.486 7.829-12.914-11.19-19.372-21.761-21.096-32.951a78.12 78.12 0 0 0-3.052 4.954c-4.467-15.126-4.998-26.316-2.344-35.913A44.599 44.599 0 0 0 3 119.593c3.052-14.772 6.988-27.598 17.072-37.904-1.548-1.15-3.405-2.034-5.528-2.786 2.476-2.742 5.44-5.175 8.801-6.501-1.106-3.494-1.902-6.679-2.61-10.04 2.654-.443 5.794-.575 8.36-.044C34.446 33.48 47.317 11.898 65.805 0 76.33 7.961 84.777 20.035 89.067 37.284c4.158-.84 8.36-.973 10.792-.973 2.432 0 6.634.133 10.791.973C114.942 20.035 123.389 8.005 133.916 0c18.487 11.897 31.357 33.525 36.709 62.318 2.565-.531 5.705-.398 8.359.044a105.605 105.605 0 0 1-2.609 10.04c3.361 1.326 6.28 3.759 8.801 6.501-2.123.796-3.98 1.68-5.528 2.786 10.084 10.306 14.02 23.132 17.072 37.904-1.725-1.106-3.362-2.034-4.998-2.786 2.654 9.597 2.167 20.787-2.344 35.913a78.307 78.307 0 0 0-3.052-4.954c-1.725 11.19-8.182 21.717-21.097 32.951.31-2.654.487-5.308.487-7.829-2.654 2.875-5.662 5.573-8.89 7.829-4.954 9.42-13.401 16.983-24.458 19.283 6.722-19.372.53-29.456-8.713-27.952-6.502 11.19-12.252 13.932-23.884 13.932Z" fill="#FF4D00"/><path d="M99.771 40.115c-4.688 0-9.774.62-13.887 1.99C82.3 24.547 73.898 12.34 65.583 5.087c-16.188 11.146-28.66 32.552-33.127 62.185-1.68-.928-4.29-1.415-6.59-1.194.487 2.3 1.371 5.44 2.477 9.2-2.344.088-4.954 1.238-6.634 2.653 1.592.796 3.14 1.99 4.245 3.715-8.58 7.165-13.356 16.851-16.63 29.589 1.947-.884 4.335-1.636 6.281-2.079-4.777 8.271-6.192 19.638-3.361 33.039 1.415-2.167 3.184-4.379 4.732-6.015-.707 12.782 2.92 23.441 13.224 34.454-.088-2.566.177-5.838.797-8.448 3.803 5.971 9.199 11.322 15.081 15.038 3.008 6.811 8.758 13.047 14.994 15.656-3.716-19.15 6.59-28.173 18-24.679 6.148 11.765 10.748 13.313 20.7 13.313 9.951 0 14.551-1.548 20.698-13.313 11.411-3.538 21.761 5.529 18.001 24.679 6.236-2.565 11.986-8.845 14.993-15.656 5.927-3.716 11.279-9.067 15.082-15.038.619 2.654.885 5.882.796 8.448 10.306-11.013 13.932-21.672 13.225-34.454 1.548 1.636 3.317 3.848 4.732 6.015 2.831-13.401 1.415-24.768-3.361-33.039 1.902.443 4.29 1.195 6.28 2.079-3.273-12.782-8.049-22.424-16.63-29.588 1.106-1.725 2.654-2.875 4.246-3.716-1.725-1.415-4.29-2.565-6.634-2.653 1.106-3.76 1.99-6.944 2.477-9.2-2.3-.221-4.865.266-6.59 1.194-4.512-29.677-16.984-51.04-33.127-62.185-8.271 7.21-16.718 19.46-20.301 37.02-4.157-1.372-9.199-1.99-13.888-1.99Z" fill="#002F87"/><path d="M99.771 167.89c-3.494 0-8.403 1.681-12.517 2.3 2.566 4.865 5.794 5.617 12.517 5.617s9.951-.752 12.517-5.617c-4.158-.619-9.023-2.3-12.517-2.3Z" fill="#fff"/><path d="M99.771 56.214c-5.97 9.022-6.192 24.723-3.76 38.257-2.432-1.327-4.112-4.334-5.13-7.96-1.503-5.131-1.15-10.085-3.847-13.667-2.389-3.14-7.254-5.485-10.615-5.485-2.123 0-2.875.93-4.512 4.07-6.855 13.268-14.816 22.644-29.72 25.829-5.795 1.238-13.623 1.946-16.985 6.015 9.244-1.504 17.824-.664 22.38 3.361-15.48 1.062-25.785 9.244-26.626 21.893 6.325-7.828 15.79-10.615 22.778-8.58-13.534 5.44-19.062 20.964-14.418 32.507 1.548-6.811 6.059-12.605 11.41-14.02-5.705 9.111-2.742 21.185 4.202 26.979.973-8.89 6.856-15.037 13.092-15.17-4.865 6.015-6.811 17.116-3.185 24.281 2.964-11.189 11.854-15.17 20.257-13.047-3.096-6.325-6.104-12.517-8.89-15.524-2.875-3.052-6.28-3.538-9.951-1.99.663-3.096 3.228-4.777 6.501-4.91-3.361-2.698-10.88-2.078-15.037 2.875 0-5.882 4.555-9.199 9.066-9.509-2.123-2.432-5.705-2.742-9.332-1.769 1.371-2.388 4.025-4.246 7.519-4.246 5.086 0 9.51 3.981 12.782 8.89 4.998 7.563 9.155 20.301 12.826 25.829 1.637 2.433 3.538 4.069 6.679 4.069 2.432 0 6.369-.973 8.757-2.786 1.238-.973 1.68-1.858 1.68-4.688 0-2.964-.486-3.671-2.344-5.352-1.636-1.46-4.069-3.317-6.236-6.015 2.167-1.15 4.202-1.592 5.263-2.079 1.018-.486 1.327-1.194.84-2.211-.751-1.504-1.99-1.504-3.759-.973-1.592.442-3.361 1.15-4.688 1.769-.62-1.194-.929-2.123-.929-2.831 0-1.415 1.15-4.201 2.875-6.501.84-1.106 1.194-1.327 2.212-1.327 1.326 0 4.865.31 8.801.31s7.519-.31 8.801-.31c1.018 0 1.371.177 2.212 1.327 1.725 2.3 2.875 5.086 2.875 6.501 0 .708-.31 1.637-.929 2.831-1.327-.619-3.096-1.283-4.688-1.769-1.814-.531-3.008-.531-3.76.973-.486.973-.177 1.681.841 2.211 1.061.531 3.096.929 5.263 2.079-2.167 2.698-4.6 4.6-6.236 6.015-1.858 1.636-2.345 2.388-2.345 5.352 0 2.83.443 3.715 1.681 4.688 2.388 1.769 6.281 2.786 8.757 2.786 3.141 0 5.087-1.636 6.679-4.069 3.671-5.528 7.784-18.266 12.826-25.829 3.273-4.909 7.696-8.89 12.782-8.89 3.538 0 6.148 1.858 7.519 4.246-3.627-.973-7.209-.663-9.332 1.769 4.511.265 9.066 3.627 9.066 9.509-4.201-4.953-11.676-5.573-15.037-2.875 3.273.177 5.838 1.814 6.501 4.91-3.671-1.548-7.076-1.062-9.951 1.99-2.786 3.007-5.794 9.199-8.89 15.524 8.403-2.123 17.293 1.858 20.257 13.047 3.626-7.12 1.68-18.266-3.185-24.281 6.236.177 12.163 6.325 13.092 15.17 6.944-5.749 9.907-17.868 4.201-26.979 5.308 1.415 9.819 7.209 11.411 14.02 4.644-11.543-.884-27.067-14.418-32.507 7.032-2.035 16.453.752 22.777 8.58-.84-12.649-11.145-20.831-26.625-21.893 4.556-4.025 13.136-4.865 22.38-3.361-3.406-4.07-11.19-4.733-16.984-6.015-14.905-3.185-22.866-12.605-29.721-25.83-1.637-3.14-2.345-4.069-4.512-4.069-3.361 0-8.182 2.345-10.615 5.485-2.697 3.582-2.344 8.58-3.847 13.666-1.062 3.583-2.743 6.634-5.131 7.961 2.521-13.534 2.256-29.235-3.67-38.257Z" fill="#fff"/><path d="M69.254 29.412c.973-2.123 1.725-5.042 1.371-6.767-1.857.486-4.157 1.99-5.838 3.582.265-4.113.177-8.138-.53-11.013C52.667 22.335 43.336 43.52 41.08 56.79c1.061 3.228 5.13 6.325 9.2 7.032-2.433 1.725-6.768 2.477-10.748 1.858 1.503 2.565 5.263 4.334 9.11 4.511-1.282 1.813-3.051 3.229-4.732 4.113 5.13.752 12.782-2.211 15.082-6.546-2.388.443-5.352-.088-6.944-1.46 3.98-.84 7.52-3.316 7.52-7.031.087-5.573-6.193-7.298-10.04-4.644.53-4.202 3.45-7.033 8.358-6.9-.265-2.211-2.432-4.555-4.953-5.396 2.256-1.946 5.705-1.902 8.448.133 1.06-1.637 2.21-6.148 2.874-11.234 2.344 2.167 3.76 5.484 3.76 8.448 0 5.13-2.079 7.297-2.079 11.764 0 4.777 5.573 6.015 9.686 4.91 3.67-10.615.708-22.513-6.369-26.935ZM130.289 29.412c-.973-2.123-1.725-5.042-1.371-6.767 1.857.486 4.157 1.99 5.838 3.582-.266-4.113-.177-8.138.531-11.013 11.587 7.121 20.92 28.306 23.175 41.575-1.061 3.228-5.13 6.325-9.199 7.032 2.432 1.725 6.767 2.477 10.747 1.858-1.504 2.565-5.263 4.334-9.111 4.511 1.283 1.813 3.052 3.229 4.733 4.113-5.131.752-12.782-2.211-15.082-6.546 2.388.443 5.351-.088 6.944-1.46-3.981-.84-7.519-3.316-7.519-7.031-.089-5.573 6.192-7.298 10.04-4.644-.531-4.202-3.45-7.033-8.36-6.9.266-2.211 2.433-4.555 4.954-5.396-2.256-1.946-5.705-1.902-8.448.133-1.061-1.637-2.211-6.148-2.874-11.234-2.345 2.167-3.76 5.484-3.76 8.448 0 5.13 2.079 7.297 2.079 11.764 0 4.777-5.573 6.015-9.686 4.91-3.671-10.615-.708-22.513 6.369-26.935Z" fill="#FDFDFD"/><path d="M89.997 103.096c-1.946 0-3.67-.84-5.307-2.433-2.698-2.61-6.148-8.182-9.111-11.057-1.946-1.901-3.937-2.875-5.927-2.875-3.361 0-6.369 2.831-7.21 6.767 1.726-1.194 3.583-1.769 5.662-1.769-1.106 1.68-1.725 3.715-1.725 5.883 0 6.015 4.865 10.88 10.88 10.88 2.964 0 5.662-1.194 7.652-3.14 1.415 1.105 2.698 1.636 4.025 1.636 2.653 0 4.6-2.035 4.997-4.909-1.282.619-2.61 1.017-3.936 1.017Zm-19.637-5.44c0-1.902.707-3.627 1.857-4.91 1.195.664 2.389 1.637 3.848 3.052l.664.664c-.443.265-.93.486-1.504.53a3.416 3.416 0 0 0-.089.664c0 1.46 1.195 2.609 2.61 2.609.708 0 1.327-.265 1.769-.707 1.15 1.282 2.167 2.565 3.096 3.582a7.352 7.352 0 0 1-4.954 1.902c-3.98.044-7.297-3.273-7.297-7.386Z" fill="#002F87"/><path d="M74.871 97.037c-.84 0-1.592-.266-2.123-.752-.133.442-.177.884-.177 1.37a5.247 5.247 0 0 0 5.264 5.264 5.198 5.198 0 0 0 3.494-1.327c-.531-.619-1.106-1.327-1.725-1.99a2.63 2.63 0 0 1-1.77.707 2.614 2.614 0 0 1-2.609-2.609c0-.221.044-.442.088-.663-.177-.045-.31 0-.442 0Z" fill="#FF4D00"/><path d="M109.546 103.096c1.946 0 3.671-.84 5.307-2.433 2.698-2.61 6.148-8.182 9.111-11.057 1.946-1.901 3.936-2.875 5.927-2.875 3.361 0 6.369 2.831 7.209 6.767-1.725-1.194-3.583-1.769-5.661-1.769 1.105 1.68 1.725 3.715 1.725 5.883 0 6.015-4.866 10.88-10.881 10.88-2.963 0-5.661-1.194-7.651-3.14-1.415 1.105-2.698 1.636-4.025 1.636-2.654 0-4.6-2.035-4.998-4.909 1.283.619 2.566 1.017 3.937 1.017Zm19.637-5.44a7.333 7.333 0 0 0-1.858-4.91c-1.194.664-2.388 1.637-3.847 3.052l-.664.664c.442.265.929.486 1.504.53.044.221.088.443.088.664 0 1.46-1.194 2.609-2.609 2.609-.708 0-1.327-.265-1.769-.707-1.15 1.282-2.167 2.565-3.096 3.582a7.352 7.352 0 0 0 4.953 1.902c3.981.044 7.298-3.273 7.298-7.386Z" fill="#002F87"/><path d="M124.672 97.037c.84 0 1.592-.266 2.123-.752.132.442.177.884.177 1.37a5.248 5.248 0 0 1-5.264 5.264 5.2 5.2 0 0 1-3.494-1.327c.531-.619 1.106-1.327 1.725-1.99a2.631 2.631 0 0 0 1.769.707c1.46 0 2.61-1.194 2.61-2.609 0-.221-.044-.442-.089-.663.177-.045.31 0 .443 0Z" fill="#FF4D00"/></svg>