<svg width="200" height="200" xmlns="http://www.w3.org/2000/svg"><g fill="none" fill-rule="evenodd"><path d="M194.42 114.943c.004.001-1.096-6.488-1.096-6.488-2.607-15.377-8.955-23.973-12.701-27.867l1.504-2.101-2.279-2.275c-.757-.755-1.62-1.36-2.475-1.846.094-.094.164-.154.202-.185l5.253-5.508-6.34-1.406a11.15 11.15 0 0 0-2.005-.3c.293-2.077.411-3.564.418-3.67l.374-4.835-4.793.798a8.142 8.142 0 0 0-1.512.414 4.718 4.718 0 0 1-.135-.634l-.059-.497c-.395-3.434-1.447-12.552-9.19-28.937-8.276-17.517-21.64-27.412-22.205-27.823l-2.21-1.616-2.235 1.58c-10.338 7.31-16.777 20.303-20.164 29.062l-.363-.506-3.116 2.334c-.497.372-.991.894-1.465 1.487a15.83 15.83 0 0 0-2.636-1.59l-3.985-1.808-1.175 1.627-1.15-1.627-3.987 1.809c-.233.107-1.343.635-2.635 1.589-.474-.593-.968-1.115-1.466-1.487l-3.116-2.334-.362.506C83.928 22.05 77.49 9.058 67.153 1.747L64.917.167l-2.211 1.616c-.564.411-13.928 10.306-22.205 27.823-7.742 16.385-8.794 25.503-9.19 28.937l-.058.497a4.756 4.756 0 0 1-.136.634 8.145 8.145 0 0 0-1.511-.414l-4.793-.798.373 4.836c.008.105.127 1.592.42 3.669-.666.042-1.344.134-2.006.3l-5.834.73 4.747 6.184c.039.03.108.09.202.185-.856.486-1.718 1.09-2.475 1.846l-2.279 2.275 1.504 2.1c-3.746 3.895-10.094 12.49-12.7 27.868l-1.105 6.509 2.193-.821c-2.154 6.795-3.703 17.451.645 30.471l1.946 5.831 2.758-2.753c1.216 7.353 4.375 17.92 12.58 23.896l5.425 3.953.607-6.678c.02-.213.048-.47.08-.744 2.716 1.104 6.34 2.934 9.039 5.63 1.69 1.686 3.093 3.853 4.58 6.15 3.21 4.959 6.85 10.578 14.873 14.583l10.21 5.097-5.104-10.194c-.464-.982-4.307-10.167 8.235-19.27a32.799 32.799 0 0 1 3.546-1.693 89.355 89.355 0 0 0 2.563 4.594c1.385 2.305 3.366 4.978 6.286 5.991l-1.046 3.123 6.084.97a9.5 9.5 0 0 0 .49-.07l.192 4.166s2.705-.338 4.734-1.351c2.03-1.013 2.838-2.09 3.468-2.616.63.526 1.945 2.094 3.636 3.107 1.691 1.014 5.412 1.534 5.412 1.534l-.654-4.84c.213.037.385.059.49.07l6.253-.97-1.214-3.123c2.919-1.013 4.9-3.686 6.284-5.991a89.834 89.834 0 0 0 2.555-4.575 29.95 29.95 0 0 1 3.55 1.67c12.548 9.104 8.704 18.292 8.222 19.312l-5.107 10.193c.02-.037 10.231-5.134 10.231-5.134 8.022-4.005 11.663-9.624 14.873-14.583 1.487-2.297 2.891-4.464 4.58-6.15 2.7-2.696 6.322-4.526 9.038-5.63.032.274.06.53.08.747l.613 6.669c0 .002 5.42-3.947 5.42-3.947 8.206-5.977 11.365-16.544 12.58-23.897l2.758 2.75 1.947-5.827c4.35-13.028 2.796-23.69.639-30.484l2.19.813" fill="#FFF" fill-rule="nonzero"/><path d="M152.962 131.018c-10.795-9.507-22.649 8.361-26.423 16.526-3.82 8.264-7.322 13.666-11.46 16.209-4.14 2.542-7.64.953-10.824-1.59-3.183-2.542-2.548-5.719-2.548-9.216 0-3.496 4.14-5.72 6.05-8.263 1.91-2.543 1.91-2.861-.319-3.813-2.228-.954-2.865-.319-2.546-2.543.318-2.225 2.865-1.59 6.684 0 3.82 1.59 3.185 0 2.23-3.814-.957-3.813-5.732-3.842-8.278-3.523-2.337.29-5.167.338-5.62.344-.414-.006-3.011-.054-5.348-.344-2.547-.319-7.323-.29-8.277 3.523-.955 3.814-1.592 5.403 2.228 3.814 3.82-1.59 6.367-2.225 6.686 0 .318 2.224-.319 1.59-2.548 2.543-2.228.952-2.228 1.27-.318 3.813 1.911 2.543 6.05 4.767 6.05 8.263 0 3.497.636 6.674-2.548 9.217-3.184 2.542-6.685 4.131-10.824 1.589-4.138-2.543-7.64-7.945-11.46-16.21-5.172-11.185-17.003-25.848-26.423-16.525 0 0 6.367-1.27 8.914 2.542 0 0-6.343 1.303-5.094 7.628 0 0 3.502-8.58 13.052-1.907 0 0-4.775.953-6.685 4.768 0 0 5.73-3.178 9.55-1.272 3.821 1.907 5.73 4.767 7.959 10.806 2.229 6.038 5.412 12.712 8.278 17.48 2.864 4.766 5.093 5.084 7.64 4.13 0 0 1.273 2.542 0 4.131 0 0 2.865-.316 4.138-1.905 0 0 2.229 2.224 1.592 3.813 0 0 2.45-1.903 3.574-3.195 1.123 1.292 3.574 3.195 3.574 3.195-.637-1.59 1.592-3.813 1.592-3.813 1.273 1.589 4.138 1.905 4.138 1.905-1.274-1.589 0-4.13 0-4.13 2.546.953 4.776.635 7.64-4.132 2.866-4.767 6.049-11.441 8.278-17.479 2.228-6.04 4.138-8.9 7.958-10.806 3.82-1.906 9.55 1.272 9.55 1.272-1.91-3.815-6.685-4.768-6.685-4.768 9.55-6.674 13.053 1.907 13.053 1.907 1.9-6.325-5.093-7.628-5.093-7.628 2.546-3.812 8.913-2.542 8.913-2.542" fill="#1C4E9D" fill-rule="nonzero"/><path d="M94.846 176.85l.301.3c.08.08 1.638 1.654 1.802 3.211.805-.657 2.093-1.751 2.808-2.573l.287-.33.288.33c.714.822 2.002 1.916 2.806 2.573.164-1.557 1.723-3.13 1.803-3.211l.301-.3.266.331c.768.96 2.216 1.422 3.11 1.626-.645-1.679.341-3.686.39-3.784l.154-.305.32.12c1.98.741 4.165 1.046 7.18-3.971 2.907-4.836 6.067-11.51 8.247-17.415 2.35-6.37 4.406-9.148 8.145-11.015 1.673-.834 3.855-.87 6.485-.103.868.252 1.635.55 2.222.806-2.067-2.723-5.705-3.478-5.746-3.487l-.873-.174.729-.51c3.295-2.302 6.264-3.088 8.824-2.334 2.281.671 3.647 2.391 4.31 3.475.209-1.274.022-2.396-.558-3.347-1.36-2.227-4.437-2.823-4.468-2.83l-.567-.105.32-.478c1.936-2.899 5.847-3.037 7.931-2.879-2.228-1.583-4.62-2.118-7.129-1.59-7.841 1.65-14.974 13.034-17.65 18.822-4.182 9.047-7.652 13.944-11.605 16.373-4.63 2.843-8.45.63-11.262-1.616-2.87-2.292-2.795-5.076-2.716-8.024.013-.485.026-.987.026-1.489 0-2.548 1.969-4.383 3.873-6.157.856-.798 1.664-1.551 2.252-2.334.777-1.034 1.412-1.92 1.308-2.307-.076-.283-.62-.565-1.472-.929a12.062 12.062 0 0 0-1.394-.488c-1.255-.372-1.639-.644-1.379-2.458.1-.701.408-1.202.912-1.489 1.204-.683 3.388-.018 6.296 1.193 1.703.708 2.18.622 2.312.507.318-.274-.041-1.684-.421-3.178l-.178-.701c-.926-3.695-5.806-3.495-7.86-3.238-2.327.29-5.125.34-5.662.347-.503-.007-3.076-.058-5.4-.347-2.056-.256-6.937-.456-7.862 3.238l-.178.703c-.38 1.493-.739 2.902-.421 3.177.133.113.609.2 2.312-.508 2.908-1.21 5.091-1.876 6.296-1.193.505.287.812.788.912 1.49.26 1.813-.124 2.085-1.38 2.457-.37.11-.83.247-1.394.488-.852.364-1.395.646-1.47.929-.104.386.53 1.273 1.306 2.307.589.782 1.396 1.535 2.252 2.333 1.904 1.774 3.874 3.61 3.874 6.158 0 .502.013 1.005.026 1.49.08 2.948.154 5.731-2.716 8.023-2.812 2.246-6.633 4.46-11.261 1.616-3.953-2.43-7.424-7.326-11.607-16.373-2.025-4.379-4.85-8.8-7.75-12.127-3.488-4.001-7.03-6.422-10.246-7.002-2.489-.449-4.812.193-6.919 1.908 2.047-.175 6.09-.095 8.068 2.868l.314.469-.553.114c-.227.047-5.196 1.141-4.943 6.032.692-1.086 2.036-2.688 4.219-3.33 2.56-.754 5.528.032 8.823 2.335l.728.508-.87.175c-.042.009-3.681.77-5.747 3.487a18.849 18.849 0 0 1 2.222-.806c2.63-.767 4.812-.732 6.485.103 3.74 1.867 5.795 4.646 8.145 11.015 2.18 5.905 5.34 12.578 8.247 17.415 3.014 5.016 5.2 4.712 7.18 3.97l.32-.12.154.306c.048.098 1.035 2.105.39 3.784.894-.204 2.342-.666 3.11-1.626l.266-.331zm9.647 5.543l-1.109-.861c-.093-.073-2.133-1.661-3.34-2.931-1.207 1.27-3.247 2.858-3.34 2.931l-1.109.861.522-1.302c.384-.959-.595-2.375-1.236-3.11-1.442 1.412-3.985 1.708-4.1 1.721l-.913.101.574-.716c.869-1.083.357-2.74.09-3.418-3.536 1.15-5.669-.933-7.759-4.411-2.93-4.875-6.113-11.597-8.308-17.544-2.3-6.234-4.19-8.81-7.772-10.597-3.594-1.794-9.14 1.233-9.195 1.264l-1.074.595.549-1.097c1.498-2.992 4.617-4.284 6.117-4.75-2.812-1.802-5.323-2.397-7.475-1.767-3.017.883-4.304 3.939-4.317 3.97l-.48 1.168-.245-1.239c-1.079-5.46 3.248-7.397 4.831-7.915-2.56-3.038-8.145-1.967-8.204-1.955l-1.241.247.899-.89c2.524-2.498 5.38-3.48 8.485-2.921 3.387.61 7.082 3.117 10.684 7.25 2.946 3.38 5.813 7.866 7.867 12.308 4.115 8.9 7.5 13.7 11.315 16.044 4.198 2.58 7.607.658 10.386-1.562 2.575-2.056 2.508-4.537 2.432-7.41-.014-.49-.027-.998-.027-1.51 0-2.218-1.847-3.939-3.632-5.603-.881-.82-1.713-1.596-2.341-2.432-1.116-1.485-1.621-2.262-1.434-2.96.173-.646.9-1 1.906-1.43.605-.26 1.09-.402 1.478-.518.993-.294 1.031-.306.843-1.622-.067-.463-.242-.77-.535-.936-.993-.564-3.402.307-5.627 1.233-1.72.715-2.59.823-3.102.382-.674-.582-.353-1.846.18-3.94l.178-.7c1.072-4.283 6.437-4.09 8.694-3.807 2.285.284 4.82.334 5.306.341.52-.007 3.28-.057 5.567-.341 2.255-.283 7.62-.476 8.693 3.807.06.242.12.475.177.699.533 2.095.855 3.36.182 3.94-.512.442-1.382.335-3.103-.381-2.225-.926-4.634-1.797-5.626-1.233-.294.166-.469.473-.535.936-.189 1.316-.15 1.328.842 1.622.389.116.873.259 1.477.518 1.007.43 1.734.784 1.907 1.43.187.699-.318 1.475-1.434 2.96-.628.836-1.46 1.612-2.342 2.433-1.785 1.664-3.631 3.384-3.631 5.602 0 .512-.013 1.019-.027 1.51-.076 2.872-.143 5.354 2.432 7.41 2.779 2.22 6.187 4.142 10.387 1.562 3.815-2.345 7.199-7.143 11.313-16.044 2.732-5.908 10.047-17.535 18.184-19.247 3.155-.664 6.127.21 8.837 2.595l1.058.933-1.384-.275c-.06-.012-5.626-1.074-8.19 1.939 1.046.3 3.233 1.128 4.399 3.037.84 1.377.978 3.036.409 4.93l-.31 1.031-.407-.997c-.012-.03-1.3-3.086-4.317-3.97-2.15-.63-4.663-.034-7.474 1.768 1.5.466 4.62 1.758 6.117 4.75l.55 1.097-1.075-.595c-.056-.03-5.602-3.057-9.196-1.264-3.582 1.788-5.47 4.363-7.771 10.597-2.196 5.948-5.38 12.67-8.308 17.544-2.856 4.752-5.19 5.267-7.758 4.412-.267.68-.776 2.338.088 3.417l.575.716-.913-.101c-.115-.013-2.658-.31-4.1-1.722-.641.736-1.62 2.152-1.236 3.111l.522 1.302z" fill="#F3652C" fill-rule="nonzero"/><path d="M135.771 89.385s-3.9-5.958-7.72-4.37c-3.82 1.59-5.92 4.005-8.356 8.105-3.025 5.085-6.846 8.501-9.312 7.865-2.842-.733-1.035-5.88-1.035-5.88s-2.547 1.906-4.456 1.906c0 0 1.542 4.425 4.059 4.928 4.775.953 7.401-2.146 7.401-2.146 1.386 1.958 3.343 2.76 6.925 2.998 4.534.303 8.208-2.564 8.208-8.531a7.602 7.602 0 0 0-1.284-4.24s-.24-2.145 2.148-1.19c2.388.953 1.672.237 2.627 1.19.954.954 1.352.397.795-.635" fill="#1C4E9D" fill-rule="nonzero"/><path d="M116.38 99.175l.283.399c1.297 1.834 3.097 2.603 6.639 2.838 2.184.145 4.071-.46 5.454-1.751 1.536-1.435 2.348-3.648 2.348-6.401a7.223 7.223 0 0 0-1.22-4.029l-.051-.077-.01-.092c-.006-.043-.11-1.063.572-1.581.482-.366 1.186-.367 2.096-.004.995.397 1.422.494 1.678.55.453.103.512.162 1.076.725a2.1 2.1 0 0 0 .389.319 1.8 1.8 0 0 0-.19-.49c-.201-.302-3.846-5.63-7.246-4.215-3.854 1.603-5.847 4.03-8.176 7.947-3.254 5.472-7.166 8.701-9.734 8.04a2.254 2.254 0 0 1-1.482-1.158c-.653-1.22-.38-3.059-.107-4.196-.82.505-2.089 1.179-3.266 1.35.462 1.11 1.776 3.854 3.592 4.217 4.486.895 6.935-1.9 7.037-2.019l.318-.372zm7.527 4.017a9.69 9.69 0 0 1-.656-.022c-3.524-.234-5.521-1.027-6.936-2.795-.867.813-3.416 2.738-7.44 1.936-2.698-.539-4.277-4.986-4.343-5.175l-.175-.505h.535c1.759 0 4.204-1.81 4.229-1.83l.998-.746-.411 1.176c-.01.03-1.057 3.063-.23 4.607.218.407.545.662 1 .78 2.203.565 5.858-2.595 8.89-7.692 2.355-3.963 4.508-6.586 8.537-8.261 1.706-.71 3.675-.137 5.692 1.656a15.973 15.973 0 0 1 2.493 2.856l.017.028c.384.713.398 1.299.037 1.567-.25.186-.702.252-1.437-.483-.468-.467-.468-.467-.705-.52-.278-.062-.742-.167-1.794-.586-.633-.254-1.1-.288-1.35-.099-.246.185-.289.593-.284.812a7.978 7.978 0 0 1 1.291 4.364c0 2.969-.895 5.374-2.589 6.956-1.377 1.286-3.265 1.976-5.369 1.976z" fill="#F3652C" fill-rule="nonzero"/><path d="M65.037 89.995c.955-.953.24-.239 2.627-1.192 2.386-.953 2.147 1.192 2.147 1.192a7.597 7.597 0 0 0-1.284 4.24c0 5.966 3.674 8.833 8.209 8.53 3.582-.237 5.54-1.04 6.925-2.998 0 0 2.625 3.099 7.401 2.146 2.517-.502 4.059-4.927 4.059-4.927-1.91 0-4.456-1.907-4.456-1.907s1.806 5.148-1.036 5.88c-2.467.636-6.286-2.78-9.311-7.865-2.438-4.1-4.536-6.515-8.357-8.104-3.82-1.59-7.72 4.37-7.72 4.37-.557 1.032-.159 1.588.796.635" fill="#1C4E9D" fill-rule="nonzero"/><path d="M68.725 88.18c.352 0 .65.091.892.275.683.519.577 1.539.573 1.582l-.01.092-.052.077a7.217 7.217 0 0 0-1.22 4.028c0 2.753.811 4.966 2.347 6.4 1.383 1.292 3.27 1.897 5.456 1.753 3.542-.236 5.341-1.005 6.639-2.839l.283-.4.318.374c.101.119 2.55 2.914 7.036 2.018 1.817-.362 3.13-3.106 3.593-4.216-1.177-.172-2.446-.845-3.265-1.351.271 1.137.545 2.976-.109 4.197a2.25 2.25 0 0 1-1.481 1.157c-2.567.663-6.48-2.57-9.734-8.039-2.33-3.918-4.323-6.345-8.177-7.948-3.402-1.415-7.044 3.913-7.247 4.215a1.8 1.8 0 0 0-.189.49c.091-.053.222-.15.39-.318l.27.268-.27-.268.27.268-.269-.27c.564-.562.623-.621 1.076-.723.255-.058.683-.154 1.677-.552.453-.18.855-.27 1.203-.27zm7.381 14.987c-2.105 0-3.993-.691-5.37-1.978-1.694-1.581-2.59-3.986-2.59-6.955a7.98 7.98 0 0 1 1.292-4.364c.005-.218-.038-.627-.283-.812-.251-.189-.718-.154-1.35.098-1.05.42-1.515.524-1.793.587-.238.053-.238.053-.705.52v.001c-.738.735-1.19.668-1.44.483-.36-.268-.346-.854.038-1.568l.017-.027a15.994 15.994 0 0 1 2.493-2.857c2.018-1.793 3.986-2.366 5.692-1.656 4.029 1.675 6.182 4.298 8.538 8.261 3.032 5.096 6.685 8.257 8.89 7.691a1.5 1.5 0 0 0 1-.778c.827-1.545-.218-4.578-.23-4.608l-.41-1.177.998.747c.025.019 2.469 1.831 4.228 1.831h.535l-.176.505c-.066.189-1.644 4.636-4.343 5.174-4.025.804-6.572-1.122-7.439-1.935-1.415 1.767-3.412 2.56-6.937 2.795-.22.014-.439.022-.655.022z" fill="#F3652C" fill-rule="nonzero"/><path d="M185.434 108.136c1.592 0 4.138.953 4.138.953-3.501-20.657-14.007-27.967-14.007-27.967l1.592-2.225c-1.91-1.906-5.094-2.542-5.094-2.542 1.274-4.131 3.502-5.403 3.502-5.403-2.547-.636-5.73.318-5.73.318.955-4.131 1.273-8.263 1.273-8.263-1.91.318-3.82 2.224-3.82 2.224s-1.91-3.178-2.229-5.72c-.318-2.542-.955-11.44-8.913-28.285-7.96-16.844-21.012-26.378-21.012-26.378-15.28 10.806-21.648 35.912-21.648 35.912-.317-2.86-1.91-5.085-1.91-5.085-1.273.954-3.183 4.767-3.183 4.767-1.273-2.86-4.775-4.45-4.775-4.45l.637 3.815c-.82-1.09-3.529-1.48-4.283-1.568v-.022l-.097.012-.105-.012v.025c-.707.094-3.124.483-3.937 1.565l.637-3.814s-3.501 1.59-4.775 4.45c0 0-1.91-3.814-3.184-4.768 0 0-1.592 2.225-1.91 5.085 0 0-6.367-25.106-21.647-35.912 0 0-13.053 9.534-21.012 26.378-7.958 16.845-8.595 25.743-8.913 28.285-.319 2.542-2.229 5.72-2.229 5.72s-1.91-1.906-3.82-2.224c0 0 .318 4.132 1.273 8.263 0 0-3.183-.954-5.73-.318 0 0 2.228 1.272 3.502 5.403 0 0-3.183.636-5.094 2.542l1.592 2.225s-10.506 7.31-14.008 27.967c0 0 2.547-.953 4.14-.953 0 0-9.551 14.302-2.547 35.276 0 0 1.91-1.906 4.138-3.813 0 0 0 20.34 11.779 28.92 0 0 .318-3.495.954-5.403 0 0 8.914 2.226 14.645 7.946 5.73 5.721 7.64 14.62 18.464 20.022 0 0-6.367-12.712 9.55-24.153 0 0-9.868-1.272-18.145 10.488 0 0-4.776-17.48 3.82-29.557 0 0-8.914 2.86-13.052 18.751 0 0-7.64-3.814-7.323-14.937.275-9.583 4.558-12.32 5.74-12.896 1.467-.66-11.092-1.735-15.29 16.074 0 0-7.321-27.331 15.918-34.64 0 0-16.068-4.951-24.195 10.169 0 0-1.273-23.519 26.423-21.294 0 0-10.62-9.042-26.423-5.72 0 0 2.228-4.131 15.28-3.814 13.053.318 22.604-6.356 30.244-15.89 7.64-9.534 8.914-11.441 10.506-14.62 1.591-3.178 3.82-5.084 8.595-2.86 4.775 2.224 6.685 5.72 6.685 11.123s2.228 12.395 6.368 13.984c0 0-2.547-5.72-2.229-17.161.315-11.324 2.191-17.04 5.315-19.928 3.462 2.889 5.338 8.604 5.653 19.928.319 11.44-2.229 17.16-2.229 17.16 4.14-1.588 6.368-8.58 6.368-13.983 0-5.402 1.91-8.899 6.685-11.123 4.776-2.224 7.004-.318 8.595 2.86 1.592 3.179 2.866 5.086 10.506 14.62 7.64 9.534 17.191 16.208 30.243 15.89 13.052-.317 15.28 3.814 15.28 3.814-16.736-3.518-26.422 5.72-26.422 5.72 27.697-2.225 26.423 21.294 26.423 21.294-8.332-15.504-24.196-10.17-24.196-10.17 23.241 7.31 15.919 34.64 15.919 34.64-3.756-15.938-17.536-17.084-15.29-16.073 1.182.576 5.465 3.313 5.74 12.896.318 11.123-7.323 14.937-7.323 14.937-4.138-15.89-13.052-18.751-13.052-18.751 8.595 12.077 3.82 29.557 3.82 29.557-8.278-11.76-18.146-10.488-18.146-10.488 15.917 11.44 9.551 24.153 9.551 24.153 10.823-5.403 12.734-14.3 18.465-20.022 5.73-5.72 14.643-7.946 14.643-7.946.637 1.908.955 5.404.955 5.404 11.78-8.58 11.78-28.92 11.78-28.92a82.733 82.733 0 0 1 4.137 3.812c7.004-20.974-2.546-35.276-2.546-35.276" fill="#1C4E9D" fill-rule="nonzero"/><path d="M185.434 108.136c1.592 0 4.138.953 4.138.953-3.501-20.657-14.007-27.967-14.007-27.967l1.592-2.225c-1.91-1.906-5.094-2.542-5.094-2.542 1.274-4.131 3.502-5.403 3.502-5.403-2.547-.636-5.73.318-5.73.318.955-4.131 1.273-8.263 1.273-8.263-1.91.318-3.82 2.224-3.82 2.224s-1.91-3.178-2.229-5.72c-.318-2.542-.955-11.44-8.913-28.285-7.96-16.844-21.012-26.378-21.012-26.378-15.28 10.806-21.648 35.912-21.648 35.912-.317-2.86-1.91-5.085-1.91-5.085-1.273.954-3.183 4.767-3.183 4.767-1.273-2.86-4.775-4.45-4.775-4.45l.637 3.815c-.82-1.09-3.529-1.48-4.283-1.568v-.022l-.097.012-.105-.012v.025c-.707.094-3.124.483-3.937 1.565l.637-3.814s-3.501 1.59-4.775 4.45c0 0-1.91-3.814-3.184-4.768 0 0-1.592 2.225-1.91 5.085 0 0-6.367-25.106-21.647-35.912 0 0-13.053 9.534-21.012 26.378-7.958 16.845-8.595 25.743-8.913 28.285-.319 2.542-2.229 5.72-2.229 5.72s-1.91-1.906-3.82-2.224c0 0 .318 4.132 1.273 8.263 0 0-3.183-.954-5.73-.318 0 0 2.228 1.272 3.502 5.403 0 0-3.183.636-5.094 2.542l1.592 2.225s-10.506 7.31-14.008 27.967c0 0 2.547-.953 4.14-.953 0 0-9.551 14.302-2.547 35.276 0 0 1.91-1.906 4.138-3.813 0 0 0 20.34 11.779 28.92 0 0 .318-3.495.954-5.403 0 0 8.914 2.226 14.645 7.946 5.73 5.721 7.64 14.62 18.464 20.022 0 0-6.367-12.712 9.55-24.153 0 0-9.868-1.272-18.145 10.488 0 0-4.776-17.48 3.82-29.557 0 0-8.914 2.86-13.052 18.751 0 0-7.64-3.814-7.323-14.937.275-9.583 4.558-12.32 5.74-12.896 1.467-.66-11.092-1.735-15.29 16.074 0 0-7.321-27.331 15.918-34.64 0 0-16.068-4.951-24.195 10.169 0 0-1.273-23.519 26.423-21.294 0 0-10.62-9.042-26.423-5.72 0 0 2.228-4.131 15.28-3.814 13.053.318 22.604-6.356 30.244-15.89 7.64-9.534 8.914-11.441 10.506-14.62 1.591-3.178 3.82-5.084 8.595-2.86 4.775 2.224 6.685 5.72 6.685 11.123s2.228 12.395 6.368 13.984c0 0-2.547-5.72-2.229-17.161.315-11.324 2.191-17.04 5.315-19.928 3.462 2.889 5.338 8.604 5.653 19.928.319 11.44-2.229 17.16-2.229 17.16 4.14-1.588 6.368-8.58 6.368-13.983 0-5.402 1.91-8.899 6.685-11.123 4.776-2.224 7.004-.318 8.595 2.86 1.592 3.179 2.866 5.086 10.506 14.62 7.64 9.534 17.191 16.208 30.243 15.89 13.052-.317 15.28 3.814 15.28 3.814-16.736-3.518-26.422 5.72-26.422 5.72 27.697-2.225 26.423 21.294 26.423 21.294-8.332-15.504-24.196-10.17-24.196-10.17 23.241 7.31 15.919 34.64 15.919 34.64-3.756-15.938-17.536-17.084-15.29-16.073 1.182.576 5.465 3.313 5.74 12.896.318 11.123-7.323 14.937-7.323 14.937-4.138-15.89-13.052-18.751-13.052-18.751 8.595 12.077 3.82 29.557 3.82 29.557-8.278-11.76-18.146-10.488-18.146-10.488 15.917 11.44 9.551 24.153 9.551 24.153 10.823-5.403 12.734-14.3 18.465-20.022 5.73-5.72 14.643-7.946 14.643-7.946.637 1.908.955 5.404.955 5.404 11.78-8.58 11.78-28.92 11.78-28.92a82.733 82.733 0 0 1 4.137 3.812c7.004-20.974-2.546-35.276-2.546-35.276z" stroke="#F3652C" stroke-width="4.554"/><path d="M78.006 53.79S71 55.38 67.818 53.156c-3.183-2.225-2.864-5.72-1.592-10.806 1.274-5.084-2.546-7.944-2.546-7.944.955 5.084-1.91 7.309-1.91 7.309-2.865-5.721-7.64-3.814-7.64-3.814 3.183 1.271 3.819 5.72 3.819 5.72-4.456-1.27-6.684 1.908-6.684 1.908 4.775-.636 5.73 3.813 5.73 3.813-7.004 1.59-7.004 7.628-7.004 7.628 6.686-5.404 8.914 1.907 8.914 1.907-.956 2.86-3.184 5.72-3.184 5.72 2.228 0 3.821-.635 3.821-.635s-.966 4.255-10.506 6.991c-5.805 1.665-9.869-1.271-9.869-1.271 4.139-.635 6.048-2.86 6.048-2.86-4.138-.636-6.684-6.039-6.684-6.039 4.486 2.2 7.64.954 7.64.954-4.775-1.59-6.367-6.356-6.367-6.356s1.592-3.179 2.547-4.767c.955-1.59-.955-2.861-.637-4.767.318-1.908 6.685-14.938 11.46-23.519 4.775-8.58 10.824-9.534 10.824-9.534 1.512 4.941.637 11.76.637 11.76 2.396-2.429 6.049-3.815 6.049-3.815 0 2.543-1.593 6.039-1.593 6.039 11.78 6.673 8.915 27.014 8.915 27.014" fill="#FFF" fill-rule="nonzero"/><path d="M40.242 69.861c1.453.726 4.649 1.885 8.689.726 6.91-1.981 9.209-4.74 9.931-6.015a12.43 12.43 0 0 1-3.141.404h-.778l.478-.613c.021-.028 2.137-2.763 3.082-5.487-.19-.528-1.102-2.782-3.039-3.373-1.471-.448-3.233.144-5.234 1.761l-.62.501v-.796c0-.062.08-6.132 6.91-7.904-.33-.99-1.567-3.644-5.205-3.16l-.86.114.498-.71c.023-.032 2.231-3.098 6.503-2.202-.288-1.197-1.183-3.942-3.468-4.854l-.883-.352.883-.353c1.706-.682 5.473-.772 7.881 3.54a5.81 5.81 0 0 0 .893-1.33c.507-1.03 1.014-2.783.544-5.283l-.18-.96.782.586c.04.03 4.007 3.072 2.688 8.34-1.683 6.723-.792 8.843 1.44 10.403 2.672 1.867 8.344.884 9.625.63.275-2.391 1.943-20.305-8.758-26.366l-.302-.172.144-.316c.014-.032 1.328-2.942 1.532-5.3-1.092.481-3.602 1.707-5.37 3.5l-.792.801.143-1.117c.008-.066.807-6.485-.524-11.26-1.298.346-6.234 2.092-10.227 9.268-4.815 8.653-11.11 21.554-11.418 23.396-.126.757.15 1.4.444 2.083.376.877.765 1.784.144 2.817-.82 1.364-2.134 3.952-2.459 4.594.31.79 1.998 4.618 6.073 5.974l.991.33-.971.384c-.125.049-2.88 1.097-6.9-.502.93 1.54 3.022 4.421 5.862 4.858l.677.104-.446.518c-.074.088-1.732 1.978-5.262 2.793zm5.202 1.987c-3.87 0-6.367-1.763-6.5-1.86l-.75-.542.915-.14c2.784-.428 4.532-1.608 5.323-2.269-3.853-1.102-6.144-5.878-6.245-6.093l-.462-.98.974.478c2.229 1.093 4.105 1.29 5.283 1.264.348-.008.658-.035.925-.071-4.015-1.922-5.402-5.95-5.464-6.135l-.05-.15.07-.14c.066-.13 1.61-3.21 2.561-4.793.401-.666.189-1.242-.191-2.127-.308-.717-.657-1.53-.494-2.507.35-2.101 6.987-15.525 11.502-23.64 4.81-8.644 10.843-9.685 11.098-9.726l.326-.051.097.316c1.187 3.879.938 8.802.755 10.903 2.356-2.02 5.294-3.15 5.432-3.202l.516-.195v.55c0 2.174-1.095 4.95-1.49 5.881 4.755 2.846 7.784 8.41 8.768 16.12.754 5.9.047 11.053.04 11.105l-.037.259-.256.058c-.293.067-7.206 1.6-10.49-.694-3.58-2.503-2.907-6.557-1.743-11.21.84-3.352-.66-5.7-1.646-6.814.417 4.473-2.092 6.481-2.208 6.57l-.366.285-.208-.414c-1.13-2.256-2.681-3.55-4.612-3.847a5.563 5.563 0 0 0-1.626-.005c2.557 1.702 3.11 5.363 3.135 5.535l.083.58-.565-.161c-2.85-.813-4.734.309-5.64 1.1 4.22.02 5.153 4.13 5.163 4.175l.078.367-.366.083c-5.081 1.153-6.314 4.767-6.613 6.42 1.929-1.37 3.684-1.825 5.225-1.353 2.576.788 3.538 3.857 3.578 3.987l.035.116-.038.115c-.704 2.107-2.058 4.18-2.775 5.194 1.72-.115 2.896-.577 2.91-.582l.672-.268-.16.704c-.041.183-1.126 4.507-10.772 7.273a13.365 13.365 0 0 1-3.697.531z" fill="#F3652C" fill-rule="nonzero"/><path d="M160.92 69.68s-4.213 3.392-9.868 1.272c-9.1-3.411-10.506-6.991-10.506-6.991s1.592.635 3.82.635c0 0-2.228-2.86-3.182-5.72 0 0 2.228-7.31 8.913-1.907 0 0 0-6.039-7.004-7.628 0 0 .956-4.449 5.73-3.813 0 0-2.228-3.179-6.685-1.908 0 0 .637-4.449 3.821-5.72 0 0-4.775-1.907-7.642 3.814 0 0-2.864-2.225-1.91-7.31 0 0-3.819 2.86-2.546 7.945 1.273 5.085 1.592 8.581-1.592 10.806-3.183 2.225-10.187.636-10.187.636s-2.865-20.34 8.914-27.014c0 0-1.592-3.496-1.592-6.039 0 0 3.924 1.048 6.049 3.814 0 0-.604-6.818.636-11.76 0 0 6.05.954 10.825 9.535 4.775 8.581 11.142 21.611 11.461 23.519.318 1.906-1.594 3.177-.638 4.767.956 1.588 2.548 4.767 2.548 4.767s-1.592 4.767-6.368 6.356c0 0 2.58 1.247 7.64-.954 0 0-2.548 5.403-6.685 6.039 0 0 1.91 2.225 6.048 2.86" fill="#FFF" fill-rule="nonzero"/><path d="M141.42 64.622c.278.354.69.808 1.288 1.331 1.335 1.169 3.89 2.923 8.478 4.644 4.03 1.51 7.32.103 8.74-.717-3.585-.805-5.267-2.724-5.343-2.812l-.445-.518.676-.104c2.873-.442 4.981-3.385 5.896-4.912-4.508 1.68-6.855.595-6.959.544l-.843-.407.888-.295c4.076-1.357 5.764-5.184 6.074-5.974-.325-.642-1.638-3.23-2.46-4.594-.62-1.034-.231-1.94.146-2.818.293-.681.57-1.326.444-2.082-.31-1.846-6.606-14.747-11.419-23.396-2.414-4.339-5.156-6.648-7.03-7.822-1.455-.91-2.628-1.297-3.18-1.443-1.094 4.79-.545 11.206-.539 11.272l.115 1.3-.796-1.035c-1.582-2.06-4.243-3.142-5.345-3.52.188 2.367 1.521 5.324 1.536 5.356l.144.316-.303.172c-10.698 6.061-9.031 23.975-8.756 26.366 1.28.254 6.952 1.237 9.624-.63 2.893-2.022 2.739-5.216 1.441-10.403-1.319-5.268 2.647-8.31 2.687-8.34l.783-.586-.18.96c-.47 2.5.036 4.252.544 5.283.305.619.647 1.06.892 1.33 2.41-4.312 6.176-4.222 7.883-3.54l.883.353-.884.352c-2.285.912-3.18 3.657-3.468 4.854 4.272-.896 6.48 2.17 6.503 2.203l.496.709-.858-.114c-3.638-.485-4.874 2.17-5.206 3.16 6.83 1.772 6.91 7.842 6.91 7.904v.796l-.62-.501c-2.001-1.618-3.763-2.21-5.237-1.76-1.94.594-2.846 2.844-3.034 3.372.943 2.724 3.06 5.46 3.08 5.487l.478.613h-.778a12.48 12.48 0 0 1-2.946-.354zm13.414 7.414c-1.19 0-2.509-.2-3.916-.728-9.152-3.432-10.666-7.056-10.726-7.209l-.32-.815.815.324c.013.005 1.195.466 2.909.582-.717-1.014-2.07-3.087-2.773-5.194l-.038-.115.035-.116c.04-.13 1.001-3.199 3.577-3.987 1.544-.473 3.303-.015 5.236 1.36-.278-1.65-1.475-5.258-6.624-6.427l-.367-.083.08-.367c.009-.044.946-4.162 5.173-4.175-.895-.795-2.767-1.923-5.652-1.1l-.564.16.083-.58c.024-.171.578-3.84 3.143-5.54-1.447-.216-4.289-.052-6.248 3.858l-.207.414-.367-.284c-.115-.09-2.63-2.102-2.204-6.586-.991 1.1-2.5 3.432-1.648 6.83 1.164 4.652 1.836 8.707-1.744 11.209-3.283 2.294-10.196.76-10.49.694l-.255-.058-.037-.26c-.007-.05-.714-5.203.04-11.105.984-7.709 4.013-13.273 8.767-16.119-.395-.93-1.489-3.707-1.489-5.88v-.496l.479.128c.148.04 3.276.896 5.496 3.095-.116-2.152-.232-6.964.722-10.766l.085-.337.344.054c.254.04 6.287 1.082 11.097 9.726 4.514 8.11 11.152 21.534 11.504 23.64.163.976-.186 1.79-.495 2.507-.38.885-.593 1.46-.192 2.127.953 1.583 2.496 4.663 2.562 4.793l.07.14-.05.15c-.061.186-1.454 4.23-5.49 6.147 1.161.145 3.257.088 6.25-1.213l.927-.403-.431.913c-.101.215-2.393 4.99-6.245 6.093.79.66 2.538 1.841 5.322 2.268l.853.131-.671.54c-.136.11-2.616 2.06-6.326 2.06z" fill="#F3652C" fill-rule="nonzero"/><path d="M109.667 173.287c-1.593 1.589-4.775 0-4.775 0l1.272 2.542-3.82-2.225v3.815l-2.054-3.077v-.738l-.246.37-.246-.37v.738l-2.055 3.077v-3.815l-3.82 2.225 1.274-2.542s-3.184 1.589-4.776 0c-1.592-1.59-1.592-4.132-1.592-4.132s1.91-.635 4.14-2.224c2.228-1.59 3.501-.318 5.093-.318h3.964c1.592 0 2.866-1.271 5.094.318s4.138 2.224 4.138 2.224 0 2.543-1.59 4.132" fill="#FFF" fill-rule="nonzero"/><path d="M100.67 174.227l1.294 1.937v-3.221l3.29 1.916-1.211-2.419 1.019.507c.03.015 2.957 1.447 4.336.07 1.175-1.174 1.417-2.941 1.467-3.6-.615-.237-2.184-.906-3.966-2.177-1.408-1.004-2.366-.757-3.381-.495-.472.122-.96.248-1.492.248h-3.964c-.532 0-1.02-.126-1.492-.248-1.015-.262-1.973-.509-3.38.495-1.783 1.27-3.352 1.94-3.967 2.176.05.66.295 2.432 1.467 3.602 1.379 1.376 4.307-.057 4.337-.071l1.019-.507-1.211 2.419 3.288-1.916v3.22l1.294-1.936v-1.877l.626.938.627-.943v1.882zm-3.308 4.446v-4.407l-4.35 2.534 1.397-2.79c-1.147.378-3.057.742-4.257-.455-1.684-1.68-1.703-4.29-1.703-4.4v-.273l.26-.087c.018-.006 1.888-.64 4.039-2.174 1.696-1.21 2.927-.892 4.012-.612.446.115.867.224 1.302.224h3.964c.434 0 .856-.109 1.302-.224 1.085-.28 2.317-.597 4.013.612 2.15 1.534 4.019 2.168 4.037 2.174l.26.087v.273c0 .11-.019 2.72-1.702 4.4-1.2 1.197-3.11.833-4.257.455l1.396 2.79-4.35-2.534v4.407l-2.681-4.015-2.682 4.015z" fill="#F3652C" fill-rule="nonzero"/><path d="M71.053 94.444c0-1.947.962-3.746 2.564-4.854.304.036 1.074.167 1.728.591-.826.528-2.339 1.803-2.339 4.084 0 .092.002.184.008.28.137 2.596 2.124 3.724 3.492 3.696 1.094-.023 2.023-.625 2.457-1.212.285-.384.385-.793.284-1.15l-.13-.455-.416.223c-.29.156-.682.218-1.164.184-.85-.058-1.492-.687-1.492-1.463 0-.625.31-1.405.72-1.816.133-.165.241-.254.351-.297l.12-.005.133-.001c.21.062.938.755 1.495 1.57.8 1.08 1.642 2.48 2.384 3.716l.452.75c-.193.51-2.872 2.072-4.725 2.072-3.265 0-5.922-2.653-5.922-5.913m52.87-2.446c.01.008.02.01.03.019l-.1-.1c.027.022.045.057.07.08zm2.442-2.281a5.79 5.79 0 0 1 2.498 4.752c0 3.208-2.614 5.817-5.826 5.817-1.784 0-4.303-1.44-4.611-1.976l.42-.697c.741-1.234 1.582-2.634 2.371-3.699.534-.779 1.227-1.452 1.444-1.54l.016.001.181-.005c.097.038.19.115.28.232l.02.022.02.022c.395.394.692 1.145.692 1.748 0 .736-.59 1.31-1.401 1.367-.464.032-.838-.026-1.112-.174l-.523-.279-.161.57c-.122.428.052.912.502 1.398.593.64 1.647 1.235 2.434 1.077 1.043-.207 3.488-.696 3.488-3.804 0-2.395-1.403-3.73-2.26-4.33.583-.34 1.228-.463 1.528-.502z" fill="#FFF" fill-rule="nonzero"/></g></svg>