<svg width="200" height="200" xmlns="http://www.w3.org/2000/svg"><g fill="none"><path d="M99.438 0h.834l.12.017c.272.068.544.136.8.238 4.953 2.434 10.604 3.813 16 4.8 1.957.34 3.914.63 5.872.885 4.834.732 9.668 2.486 13.549 5.515 2.417 1.873 4.561 4.375 5.617 7.285a11.4 11.4 0 0 1 .493 6.18c3.132-2.077 6.57-3.626 10.298-4.273.409-.102.8 0 .953.425.086.511.086 1.039.137 1.55.187 1.974.63 3.931 1.838 5.565 1.106 1.464 2.825 2.587 4.136 3.881 1.583 1.48 2.877 3.2 3.949 5.09.136.238.255.527.477.697 2.45 1.958 4.578 4.375 6.315 6.979 2.944 4.443 4.783 9.583 5.004 14.928v2.042c-.204 4.681-1.702 9.226-4.153 13.209-3.166 5.26-7.813 9.65-12.732 13.242-1.43 1.056-2.911 1.992-4.358 2.979 3.422 1.464 6.792 3.132 9.907 5.175 1.412.953 2.876 2.025 4 3.319.204.22.085.51-.17.63-1.805 1.004-3.677 1.957-5.328 3.2-1.6 1.412-3.49 2.604-5.702 2.604-1.447.034-2.74-.51-3.915-1.31 1.004 1.718 2.042 3.352 2.723 5.242a15.259 15.259 0 0 1 .766 8c-.46 2.706-1.532 5.191-2.91 7.557-2.145 3.796-3.61 8.12-3.2 12.528a1.704 1.704 0 0 1-1.039 1.77c-2.893 1.225-5.855 3.03-7.523 5.753-.239.324-.34.885-.732 1.038-.426-.102-.443-.578-.579-.936-1.055-3.591-.391-7.727.749-11.234-.494.34-.92.8-1.328 1.243-1.446 1.566-2.723 3.472-3.2 5.583a7.027 7.027 0 0 0 .375 4.34c.715 1.668 1.957 3.013 3.37 4.102.272.222.392.375.358.75-.069 2.416-.086 5.055-.715 7.403-.545 2.077-1.651 3.966-3.15 5.515-2.008 2.094-4.493 3.558-7.063 4.851-3.336 1.788-6.69 3.932-9.396 6.588-.494.46-.885 1.004-1.362 1.446-.34.018-.493-.102-.493-.442.017-3.694 1.208-7.506 2.587-10.894-1.447 1.634-2.672 3.524-3.66 5.464-1.038 2.094-1.855 4.426-1.668 6.792.137 2.893-.715 5.787-2.502 8.068-2.876 3.812-7.574 6.093-10.706 9.549-1.055 1.174-1.924 2.502-2.417 4-.12.391-.221.493-.579.68h-.51c-.562-.272-.545-.765-.784-1.276-.646-1.583-1.736-2.996-2.944-4.187-2.69-2.639-6.23-4.664-8.868-7.473-1.89-1.974-3.2-4.425-3.507-7.149-.255-1.617.102-3.166-.255-4.766-.596-3.046-2.315-5.974-4.136-8.442a14.785 14.785 0 0 0-1.038-1.277c1.378 3.405 2.57 7.217 2.587 10.91 0 .324-.153.46-.494.426-.46-.408-.817-.936-1.276-1.344-3.047-3.03-6.911-5.396-10.724-7.32-2.127-1.14-4.255-2.519-5.906-4.289-1.26-1.327-2.247-2.91-2.826-4.647-.868-2.553-.885-5.497-.953-8.17-.017-.374.085-.527.358-.749 1.617-1.26 3.063-2.876 3.642-4.868.477-1.515.34-3.115-.187-4.596-.715-2.025-2.128-3.863-3.66-5.344-.17-.187-.374-.307-.561-.46.868 2.639 1.395 5.396 1.26 8.187-.086 1.26-.29 2.554-.75 3.745-.187.29-.476.29-.647-.034-1.004-2.094-2.842-3.71-4.783-4.919-1.004-.63-2.076-1.14-3.166-1.6a1.717 1.717 0 0 1-1.038-1.77c.409-4.443-1.072-8.834-3.268-12.647-1.736-2.962-3.03-6.349-3.064-9.821-.05-2.366.494-4.681 1.481-6.826.63-1.413 1.464-2.706 2.23-4.034-1.14.766-2.35 1.31-3.745 1.31-1.94.069-3.66-.816-5.14-1.974-1.634-1.464-3.71-2.485-5.617-3.557-.29-.204-.834-.29-.732-.75 1.106-1.344 2.587-2.416 4-3.386 3.115-2.077 6.536-3.745 9.974-5.243 0-.068-.05-.12-.119-.153-3.762-2.366-7.387-5.072-10.57-8.187-3.71-3.626-6.86-7.847-8.732-12.715a26.546 26.546 0 0 1-1.787-8.46v-2.366a29.081 29.081 0 0 1 2.519-10.06c2.008-4.408 5.021-8.425 8.8-11.472.306-.255.46-.698.664-1.021a21.5 21.5 0 0 1 4.919-5.804c1.225-1.056 2.536-2.043 3.37-3.439 1.055-1.685 1.379-3.83 1.498-5.787.034-.323 0-.732.255-.97.273-.272.596-.187.936-.136 3.677.664 7.064 2.179 10.145 4.255-.357-1.89-.272-3.847.324-5.685.953-3.047 3.114-5.668 5.583-7.642 3.88-3.081 8.731-4.886 13.583-5.652 6.791-.902 13.974-2.212 20.289-4.902C97.65.715 98.485.12 99.438 0z" fill="#00263D"/><path d="M41.532 39.268c.238.136.46.255.425.562-.153.408-.391.766-.595 1.174-1.226 2.383-2.128 5.005-2.366 7.677-.273 2.928.408 5.957 1.872 8.493 1.634 2.809 4.136 4.835 7.047 6.23 2.945 1.396 6.213 2.179 9.464 2.4-.085.051-.17.085-.239.136-2.706 1.124-5.02 3.217-6.672 5.6-.357.426-.12 1.09.443 1.14 1.26.035 2.604.324 3.557 1.21.46.442.63 1.038.426 1.65-.562 1.532-1.107 2.98-1.26 4.63-.153 1.702.238 3.37.987 4.868-1.77-.034-3.591-.68-5.208-1.378-3.439-1.515-6.639-3.677-9.447-6.162-2.655-2.383-5.004-5.09-6.775-8.204-1.26-2.213-2.212-4.664-2.638-7.183-.698-3.898-.068-7.915 1.583-11.49 1.89-4.102 5.021-7.71 8.392-10.655.306-.255.544-.579 1.004-.698zm116.596 0c.51.136.885.647 1.293.953 3.813 3.388 7.32 7.643 8.97 12.528a19.058 19.058 0 0 1 .018 12.272c-1.635 4.97-5.124 9.379-9.056 12.783-2.825 2.451-6.025 4.562-9.48 6.026-1.499.613-3.184 1.174-4.818 1.208.545-1.106.92-2.28 1.005-3.506.153-2.094-.511-3.966-1.226-5.89-.238-.663-.102-1.259.392-1.753.936-.885 2.297-1.191 3.557-1.208.562-.051.8-.715.443-1.14-1.481-2.111-3.439-3.967-5.737-5.158-.391-.221-.817-.34-1.191-.579a27.525 27.525 0 0 0 5.634-.97c3.336-.936 6.604-2.57 8.987-5.123 2.128-2.264 3.438-5.226 3.745-8.324.357-3.455-.647-6.996-2.179-10.06-.238-.51-.562-.987-.766-1.497-.034-.307.187-.426.409-.562z" fill="#FFF"/><path d="M68.766 62.298c1.94 1.89 3.387 4.442 3.779 7.149.187 1.362.136 2.74.374 4.085.375 2.366 1.004 4.953 2.298 6.979.528.783 1.362 1.719 2.4 1.6.374-.051.902-.358 1.243-.137.391.273.323.664.323 1.09-.238 4.545-1.957 8.987-4.12 12.936-.203.357-.374.664-.85.613-.562-.034-.63-.732-.817-1.14-.987-2.775-2.622-5.686-5.209-7.235-2.434-1.583-4.221-4.136-4.732-7.03-.272-1.736-.119-3.523.477-5.157.357-1.123 1.004-2.077 1.48-3.149 1.43-3.2 2.043-6.604 2.18-10.11.017-.596.731-.886 1.174-.494zm63.114.051c.205.187.171.545.205.8.12 3.285.783 6.638 2.11 9.651.443 1.021 1.056 1.923 1.43 2.979.715 1.821.903 3.812.528 5.736-.493 2.502-1.957 4.698-3.966 6.247-.68.527-1.43.902-2.076 1.498-1.975 1.787-3.234 4.357-4.068 6.842-.12.409-.46.596-.852.51-.374-.101-.527-.527-.714-.816-2.094-3.864-3.796-8.324-4-12.732 0-.409-.068-.817.323-1.09.34-.238.868.086 1.243.137.646.085 1.276-.29 1.719-.75.749-.748 1.26-1.787 1.668-2.757.783-1.94 1.225-4.034 1.464-6.11.119-1.277.085-2.673.408-3.915.528-2.35 1.838-4.51 3.524-6.213.238-.306.783-.34 1.055-.017z" fill="#6B818E"/><path d="M59.404 94.672a9.058 9.058 0 0 1 4.375 2.74c1.344 1.55 2.025 3.541 2.212 5.567.069.902.137 1.906-.034 2.808-.34.494-.97-.204-1.361-.323-1.209-.562-2.417-.987-3.575-1.685-1.327-.766-2.468-1.822-2.978-3.285-.58-1.685-.222-3.694.408-5.311.12-.409.545-.613.953-.51z" fill="#FFF"/><path d="M88 94.57c.357-.017.613.17.885.375 1.447 1.106 2.91 2.178 4.324 3.336.595.493 1.123 1.021 1.77 1.447 1.344.919 2.961 1.48 4.595 1.532 1.805.068 3.626-.511 5.107-1.532.715-.477 1.293-1.056 1.957-1.6 1.379-1.124 2.809-2.18 4.239-3.251.527-.392 1.242-.222 1.617.289.357.46.34.97.289 1.532-.426 3.745-.783 7.49-1.209 11.234-.034.323-.085.68-.034 1.004.103.324.443.613.8.562.443-.102.545-.477.75-.817 2.025-3.728 4-7.472 5.957-11.234.255-.545.834-.936 1.447-.732.51.153.817.579.936 1.072a46.968 46.968 0 0 0 1.566 5.277c.187.46.085.885.017 1.362-.936 5.702-2.179 11.353-3.66 16.936-.579 2.28-1.65 4.408-3.285 6.093-.817.817-1.77 1.685-2.877 2.06-2.553 1.021-5.089 2.076-7.625 3.098-.664.255-1.243.68-1.906.953a9.51 9.51 0 0 1-7.388.12c-.766-.273-1.412-.767-2.161-1.056-2.673-1.073-5.328-2.179-7.983-3.251-.562-.222-1.073-.647-1.55-1.022-2.11-1.77-3.506-4.187-4.204-6.842a185.124 185.124 0 0 1-3.574-16.34c-.068-.784-.391-1.515-.068-2.247.596-1.651 1.072-3.337 1.498-5.039.119-.476.442-.919.936-1.038.562-.17 1.123.153 1.379.68 2.008 3.83 4 7.643 6.076 11.44.17.289.34.527.715.527.51-.068.783-.579.698-1.072-.425-3.796-.8-7.609-1.208-11.405-.035-.391-.12-.8-.086-1.191.051-.647.58-1.26 1.26-1.26z" fill="#6B818E"/><path d="M140.255 94.672c.426-.102.834.085.97.494.58 1.48.903 3.2.562 4.749-.306 1.413-1.225 2.553-2.4 3.37-1.396 1.004-2.91 1.498-4.425 2.213-.29.136-.545.306-.834.46a.395.395 0 0 1-.477-.426c-.187-2.247.136-4.732 1.243-6.723 1.14-2.026 3.132-3.524 5.361-4.137z" fill="#FFF"/><path d="M54.349 107.353c1.634 1.294 3.523 2.213 5.6 2.553 1.855.273 3.88-.374 5.549-1.191.153-.068.323-.102.51-.085.103.46-.068.817-.204 1.242-.664 1.89-1.549 3.711-2.553 5.447-.936 1.55-1.991 3.115-3.302 4.375-.221.22-.46.068-.477-.205.205-.68.511-1.31.613-2.025.187-1.038.136-2.128-.579-2.979-1.497-1.77-3.66-2.672-5.038-4.68-.477-.733-.953-1.669-.97-2.554.187-.528.562-.068.85.102zm91.371-.273c.22-.203.527.035.493.324-.204 1.243-.885 2.434-1.753 3.336-1.107 1.175-2.554 2.009-3.694 3.115-.528.494-.97 1.022-1.14 1.736-.307 1.311.102 2.537.561 3.745.136.307-.187.613-.46.34-1.225-1.157-2.23-2.62-3.114-4.05-1.073-1.788-2.009-3.694-2.707-5.652-.153-.46-.34-.85-.255-1.361.392-.034.647.17.987.306 1.481.664 3.132 1.158 4.766 1.004.902-.068 1.702-.357 2.553-.646 1.43-.494 2.554-1.328 3.762-2.196zm-62.656 31.065c4.527.885 9.072 1.719 13.617 2.604 1.838.391 3.779.408 5.617.051 4.783-.868 9.583-1.787 14.366-2.655.817-.136 1.617-.051 2.298.46 1.174.918 2.144 2.127 2.86 3.438.459.817.68 1.719.646 2.672-.017.851-.29 1.668-.528 2.468-.68 2.179-1.531 4.306-2.757 6.23-.272.476-.851.766-1.277 1.123-.391.273-.766.732-1.293.545-.494-.17-.698-.664-.46-1.14.817-1.907 1.328-3.915 1.26-6.01.017-.254-.068-.56.136-.748.68-.68 1.396-1.328 2.077-1.992.17-.187.34-.357.153-.612-.17-.29-.46-.17-.715-.12a50.675 50.675 0 0 0-6.638 2.23c-1.073.477-2.18.851-3.235 1.362-1.991.936-3.846 2.06-5.446 3.575-.698.646-1.14 1.65-1.6 2.468-.647 1.293-1.345 2.757-1.447 4.22-.579-.016-1.175-.033-1.753-.016-.17-1.924-1.243-3.847-2.162-5.515-.443-.868-1.157-1.43-1.89-2.043-1.736-1.412-3.778-2.485-5.855-3.353-2.876-1.123-5.685-2.28-8.715-2.978-.357-.137-.714.306-.46.595.699.766 1.516 1.43 2.23 2.179.205.17.12.51.137.749-.051 2.145.51 4.17 1.327 6.128.239.612-.408 1.225-1.02.987-.392-.204-.733-.51-1.09-.766-.358-.272-.75-.494-.987-.885-1.464-2.298-2.469-4.953-3.15-7.592a5.242 5.242 0 0 1 .613-4 10.76 10.76 0 0 1 2.724-3.217c.749-.544 1.583-.596 2.417-.442zm16.187 24.664c.426-.069.834-.035 1.26.034 1.82.272 3.66.493 5.48.783.239.578.307 1.191.46 1.804.068.34.17.647.017.987-.221.51-.766.715-1.294.647-1.65-.204-3.285-.409-4.936-.613a3.559 3.559 0 0 0-.85 0c-1.635.221-3.286.409-4.937.613-.68.119-1.413-.358-1.362-1.09.085-.68.256-1.361.392-2.025.068-.29.187-.34.46-.375 1.77-.272 3.54-.51 5.31-.765z" fill="#6B818E"/></g></svg>