<svg width="200" height="200" xmlns="http://www.w3.org/2000/svg"><g fill-rule="nonzero" fill="none"><path d="M99.609 0h.834l.119.017c.272.068.544.136.8.238 4.953 2.434 10.604 3.813 16 4.8 1.957.34 3.915.63 5.872.885 4.834.732 9.668 2.486 13.549 5.515 2.417 1.873 4.562 4.375 5.617 7.285a11.4 11.4 0 0 1 .494 6.18c3.132-2.077 6.57-3.626 10.297-4.273.409-.102.8 0 .954.425.085.511.085 1.039.136 1.55.187 1.974.63 3.931 1.838 5.565 1.107 1.464 2.826 2.587 4.136 3.881 1.583 1.48 2.877 3.2 3.95 5.09.135.238.255.527.476.697 2.45 1.958 4.579 4.375 6.315 6.979 2.944 4.443 4.783 9.583 5.004 14.928v2.042c-.204 4.681-1.702 9.226-4.153 13.209-3.166 5.26-7.813 9.65-12.732 13.242-1.43 1.056-2.91 1.992-4.358 2.979 3.422 1.464 6.792 3.132 9.907 5.175 1.413.953 2.876 2.025 4 3.319.204.22.085.51-.17.63-1.805 1.004-3.677 1.957-5.328 3.2-1.6 1.412-3.49 2.604-5.702 2.604-1.447.034-2.74-.51-3.915-1.31 1.004 1.718 2.042 3.352 2.723 5.242a15.259 15.259 0 0 1 .766 8c-.46 2.706-1.532 5.191-2.91 7.557-2.145 3.796-3.609 8.12-3.2 12.528.085.766-.34 1.48-1.039 1.77-2.893 1.225-5.855 3.03-7.523 5.753-.238.324-.34.885-.732 1.038-.425-.102-.443-.578-.579-.936-1.055-3.591-.391-7.727.75-11.234-.494.34-.92.8-1.328 1.243-1.447 1.566-2.724 3.472-3.2 5.583a7.027 7.027 0 0 0 .374 4.34c.715 1.668 1.958 3.013 3.37 4.102.273.222.392.375.358.75-.068 2.416-.085 5.055-.715 7.403-.545 2.077-1.651 3.966-3.15 5.515-2.008 2.094-4.493 3.558-7.063 4.851-3.336 1.788-6.69 3.932-9.396 6.588-.493.46-.885 1.004-1.361 1.446-.34.018-.494-.102-.494-.442.017-3.694 1.209-7.506 2.587-10.894-1.447 1.634-2.672 3.524-3.66 5.464-1.038 2.094-1.855 4.426-1.667 6.792.136 2.893-.715 5.787-2.503 8.068-2.876 3.812-7.574 6.093-10.706 9.549-1.055 1.174-1.923 2.502-2.417 4-.12.391-.221.493-.579.68h-.51c-.562-.272-.545-.765-.783-1.276-.647-1.583-1.736-2.996-2.945-4.187-2.69-2.639-6.23-4.664-8.868-7.473-1.89-1.974-3.2-4.425-3.506-7.149-.256-1.617.102-3.166-.256-4.766-.596-3.046-2.315-5.974-4.136-8.442a14.785 14.785 0 0 0-1.038-1.277c1.378 3.405 2.57 7.217 2.587 10.91 0 .324-.153.46-.494.426-.46-.408-.817-.936-1.276-1.344-3.047-3.03-6.91-5.396-10.724-7.32-2.127-1.14-4.255-2.519-5.906-4.289-1.26-1.327-2.247-2.91-2.826-4.647-.868-2.553-.885-5.497-.953-8.17-.017-.374.085-.527.358-.749 1.617-1.26 3.064-2.876 3.642-4.868.477-1.515.34-3.115-.187-4.596-.715-2.025-2.128-3.863-3.66-5.344-.17-.187-.374-.307-.561-.46.868 2.639 1.396 5.396 1.26 8.187-.086 1.26-.29 2.554-.75 3.745-.187.29-.476.29-.646-.034-1.005-2.094-2.843-3.71-4.783-4.919-1.005-.63-2.077-1.14-3.166-1.6a1.717 1.717 0 0 1-1.039-1.77c.409-4.443-1.072-8.834-3.268-12.647-1.736-2.962-3.03-6.349-3.064-9.821-.05-2.366.494-4.681 1.481-6.826.63-1.413 1.464-2.706 2.23-4.034-1.14.766-2.349 1.31-3.745 1.31-1.94.069-3.66-.816-5.14-1.974-1.634-1.464-3.71-2.485-5.617-3.557-.29-.204-.834-.29-.732-.75 1.106-1.344 2.587-2.416 4-3.386 3.115-2.077 6.536-3.745 9.975-5.243 0-.068-.052-.12-.12-.153-3.761-2.366-7.387-5.072-10.57-8.187-3.71-3.626-6.86-7.847-8.732-12.715A26.546 26.546 0 0 1 24 61.753v-2.366a29.081 29.081 0 0 1 2.52-10.06c2.008-4.408 5.02-8.425 8.8-11.472.306-.255.459-.698.663-1.021a21.5 21.5 0 0 1 4.92-5.804c1.225-1.056 2.535-2.043 3.37-3.439 1.055-1.685 1.378-3.83 1.497-5.787.034-.323 0-.732.256-.97.272-.272.595-.187.936-.136 3.676.664 7.064 2.179 10.144 4.255-.357-1.89-.272-3.847.324-5.685.953-3.047 3.115-5.668 5.583-7.642 3.88-3.081 8.732-4.886 13.583-5.652 6.791-.902 13.974-2.212 20.29-4.902C97.82.715 98.655.12 99.608 0Z" fill="#00263D"/><path d="M41.702 39.268c.238.136.46.255.426.562-.154.408-.392.766-.596 1.174-1.226 2.383-2.128 5.005-2.366 7.677-.272 2.928.408 5.957 1.872 8.493 1.634 2.809 4.136 4.835 7.047 6.23 2.945 1.396 6.213 2.179 9.464 2.4-.085.051-.17.085-.238.136-2.707 1.124-5.022 3.217-6.673 5.6-.357.426-.119 1.09.443 1.14 1.26.035 2.604.324 3.557 1.21.46.442.63 1.038.426 1.65-.562 1.532-1.107 2.98-1.26 4.63-.153 1.702.239 3.37.987 4.868-1.77-.034-3.591-.68-5.208-1.378-3.438-1.515-6.638-3.677-9.447-6.162-2.655-2.383-5.004-5.09-6.774-8.204-1.26-2.213-2.213-4.664-2.639-7.183-.697-3.898-.068-7.915 1.583-11.49 1.89-4.102 5.022-7.71 8.392-10.655.306-.255.545-.579 1.004-.698ZM158.298 39.268c.51.136.885.647 1.293.953 3.813 3.388 7.32 7.643 8.97 12.528a19.058 19.058 0 0 1 .018 12.272c-1.634 4.97-5.124 9.379-9.056 12.783-2.825 2.451-6.025 4.562-9.48 6.026-1.498.613-3.183 1.174-4.817 1.208.544-1.106.919-2.28 1.004-3.506.153-2.094-.51-3.966-1.226-5.89-.238-.663-.102-1.259.392-1.753.936-.885 2.298-1.191 3.557-1.208.562-.051.8-.715.443-1.14-1.481-2.111-3.439-3.967-5.736-5.158-.392-.221-.817-.34-1.192-.579 1.906-.119 3.796-.46 5.634-.97 3.336-.936 6.604-2.57 8.987-5.123 2.128-2.264 3.439-5.226 3.745-8.324.357-3.455-.647-6.996-2.179-10.06-.238-.51-.561-.987-.766-1.497-.034-.307.188-.426.409-.562Z" fill="#FFF"/><path d="M68.936 62.298c1.94 1.89 3.387 4.442 3.779 7.149.187 1.362.136 2.74.374 4.085.375 2.366 1.005 4.953 2.298 6.979.528.783 1.362 1.719 2.4 1.6.375-.051.902-.358 1.243-.137.391.273.323.664.323 1.09-.238 4.545-1.957 8.987-4.119 12.936-.204.357-.374.664-.851.613-.562-.034-.63-.732-.817-1.14-.987-2.775-2.621-5.686-5.209-7.235-2.434-1.583-4.22-4.136-4.731-7.03-.273-1.736-.12-3.523.476-5.157.358-1.123 1.004-2.077 1.481-3.149 1.43-3.2 2.043-6.604 2.179-10.11.017-.596.732-.886 1.174-.494ZM132.051 62.349c.204.187.17.545.204.8.12 3.285.783 6.638 2.111 9.651.443 1.021 1.055 1.923 1.43 2.979.715 1.821.902 3.812.527 5.736-.493 2.502-1.957 4.698-3.966 6.247-.68.527-1.43.902-2.076 1.498-1.975 1.787-3.234 4.357-4.068 6.842-.12.409-.46.596-.851.51-.375-.101-.528-.527-.715-.816-2.094-3.864-3.796-8.324-4-12.732 0-.409-.068-.817.323-1.09.34-.238.868.086 1.243.137.647.085 1.276-.29 1.719-.75.749-.748 1.26-1.787 1.668-2.757.783-1.94 1.226-4.034 1.464-6.11.119-1.277.085-2.673.408-3.915.528-2.35 1.839-4.51 3.524-6.213.238-.306.783-.34 1.055-.017Z" fill="#6B818E"/><path d="M59.574 94.672a9.058 9.058 0 0 1 4.375 2.74c1.345 1.55 2.025 3.541 2.213 5.567.068.902.136 1.906-.034 2.808-.34.494-.97-.204-1.362-.323-1.209-.562-2.417-.987-3.575-1.685-1.327-.766-2.468-1.822-2.978-3.285-.579-1.685-.222-3.694.408-5.311.12-.409.545-.613.953-.51Z" fill="#FFF"/><path d="M88.17 94.57c.358-.017.613.17.885.375 1.447 1.106 2.911 2.178 4.324 3.336.595.493 1.123 1.021 1.77 1.447 1.345.919 2.962 1.48 4.596 1.532 1.804.068 3.625-.511 5.106-1.532.715-.477 1.294-1.056 1.958-1.6 1.378-1.124 2.808-2.18 4.238-3.251.527-.392 1.242-.222 1.617.289.357.46.34.97.29 1.532-.426 3.745-.784 7.49-1.21 11.234-.033.323-.084.68-.033 1.004.102.324.442.613.8.562.442-.102.544-.477.749-.817 2.025-3.728 4-7.472 5.957-11.234.255-.545.834-.936 1.447-.732.51.153.817.579.936 1.072a46.968 46.968 0 0 0 1.566 5.277c.187.46.085.885.017 1.362-.936 5.702-2.179 11.353-3.66 16.936-.578 2.28-1.65 4.408-3.285 6.093-.817.817-1.77 1.685-2.876 2.06-2.553 1.021-5.09 2.076-7.626 3.098-.664.255-1.242.68-1.906.953a9.51 9.51 0 0 1-7.387.12c-.766-.273-1.413-.767-2.162-1.056-2.672-1.073-5.328-2.179-7.983-3.251-.562-.222-1.072-.647-1.55-1.022-2.11-1.77-3.505-4.187-4.203-6.842a185.124 185.124 0 0 1-3.575-16.34c-.068-.784-.391-1.515-.068-2.247.596-1.651 1.072-3.337 1.498-5.039.12-.476.443-.919.936-1.038.562-.17 1.124.153 1.379.68 2.008 3.83 4 7.643 6.076 11.44.17.289.34.527.715.527.511-.068.783-.579.698-1.072-.425-3.796-.8-7.609-1.208-11.405-.034-.391-.12-.8-.085-1.191.05-.647.578-1.26 1.26-1.26Z" fill="#6B818E"/><path d="M140.426 94.672c.425-.102.834.085.97.494.578 1.48.902 3.2.561 4.749-.306 1.413-1.225 2.553-2.4 3.37-1.395 1.004-2.91 1.498-4.425 2.213-.29.136-.545.306-.834.46a.395.395 0 0 1-.477-.426c-.187-2.247.136-4.732 1.243-6.723 1.14-2.026 3.132-3.524 5.362-4.137Z" fill="#FFF"/><path d="M54.52 107.353c1.633 1.294 3.523 2.213 5.6 2.553 1.854.273 3.88-.374 5.548-1.191.153-.068.323-.102.51-.085.103.46-.067.817-.204 1.242-.663 1.89-1.548 3.711-2.553 5.447-.936 1.55-1.991 3.115-3.302 4.375-.221.22-.46.068-.476-.205.204-.68.51-1.31.612-2.025.188-1.038.136-2.128-.578-2.979-1.498-1.77-3.66-2.672-5.039-4.68-.476-.733-.953-1.669-.97-2.554.187-.528.562-.068.851.102ZM145.89 107.08c.22-.203.527.035.493.324-.204 1.243-.885 2.434-1.753 3.336-1.107 1.175-2.553 2.009-3.694 3.115-.527.494-.97 1.022-1.14 1.736-.307 1.311.102 2.537.561 3.745.137.307-.187.613-.46.34-1.225-1.157-2.229-2.62-3.114-4.05-1.072-1.788-2.009-3.694-2.706-5.652-.154-.46-.34-.85-.256-1.361.392-.034.647.17.988.306 1.48.664 3.131 1.158 4.765 1.004.903-.068 1.703-.357 2.554-.646 1.43-.494 2.553-1.328 3.761-2.196ZM83.234 138.145c4.528.885 9.072 1.719 13.617 2.604 1.838.391 3.779.408 5.617.051 4.783-.868 9.583-1.787 14.366-2.655.817-.136 1.617-.051 2.298.46 1.174.918 2.145 2.127 2.86 3.438.46.817.68 1.719.646 2.672-.017.851-.29 1.668-.527 2.468-.681 2.179-1.532 4.306-2.758 6.23-.272.476-.85.766-1.276 1.123-.392.273-.766.732-1.294.545-.494-.17-.698-.664-.46-1.14.817-1.907 1.328-3.915 1.26-6.01.017-.254-.068-.56.136-.748.681-.68 1.396-1.328 2.077-1.992.17-.187.34-.357.153-.612-.17-.29-.46-.17-.715-.12a50.675 50.675 0 0 0-6.638 2.23c-1.073.477-2.179.851-3.234 1.362-1.992.936-3.847 2.06-5.447 3.575-.698.646-1.14 1.65-1.6 2.468-.647 1.293-1.345 2.757-1.447 4.22-.579-.016-1.174-.033-1.753-.016-.17-1.924-1.243-3.847-2.162-5.515-.442-.868-1.157-1.43-1.89-2.043-1.735-1.412-3.778-2.485-5.854-3.353-2.877-1.123-5.686-2.28-8.715-2.978-.358-.137-.715.306-.46.595.698.766 1.515 1.43 2.23 2.179.204.17.119.51.136.749-.051 2.145.51 4.17 1.328 6.128.238.612-.409 1.225-1.022.987-.391-.204-.732-.51-1.089-.766-.357-.272-.749-.494-.987-.885-1.464-2.298-2.468-4.953-3.15-7.592a5.242 5.242 0 0 1 .614-4 10.76 10.76 0 0 1 2.723-3.217c.749-.544 1.583-.596 2.417-.442ZM99.421 162.809c.426-.069.834-.035 1.26.034 1.821.272 3.66.493 5.48.783.239.578.307 1.191.46 1.804.068.34.17.647.017.987-.221.51-.766.715-1.293.647-1.651-.204-3.285-.409-4.936-.613a3.559 3.559 0 0 0-.852 0c-1.634.221-3.285.409-4.936.613-.68.119-1.412-.358-1.361-1.09.085-.68.255-1.361.391-2.025.068-.29.187-.34.46-.375 1.77-.272 3.54-.51 5.31-.765Z" fill="#6B818E"/></g></svg>