<svg width="200" height="200" xmlns="http://www.w3.org/2000/svg"><g fill="none"><path fill="#FFF" d="M146.696 197.028H54.627v-35.271h20.604V38.096H54.627V2.817h92.069v35.279h-20.349v123.661h20.349v35.271"/><path d="M149.22.28H52.099v40.345h20.608V159.22H52.098v40.339h97.123V159.22h-20.345V40.625h20.345V.28zm-5.058 5.07v30.204h-20.345v128.738h20.345v30.196H57.157v-30.196h20.608V35.554H57.157V5.35h87.005z" fill="#FFF"/><path fill="#BA9458" d="M141.879 166.555v25.615H59.414v-25.615h20.548V33.215H59.414V7.598h82.508v25.615h-20.315v133.34h20.272"/><path d="M101.19 74.376c.09-.05.192-.064.286-.111.106-.043.165-.105.272-.146a5.21 5.21 0 0 0-.557.257zm85.62 49.488c-.255-3.675-2.452-5.973-3.392-6.954-.234-.245-.362-.402-.638-.6l-2.52-1.783c1.05-1.764 1.743-3.795 1.743-6.328 0-1.113-.102-2.293-.302-3.55-.004-.006-.348-1.965-.348-1.965-.35-1.864-.6-3.373-.6-4.578 0-1.102.212-1.953.748-2.593a5.304 5.304 0 0 0-2.266-8.398c-7.91-2.84-12.37 2.491-14.048 4.503 0 0-1.726 1.768-3.236 3.31 1.344-2.134 2.571-4.28 3.64-6.192l.425-.754c2.499-4.478 3.242-7.31 4.476-12l.119-.445c.51-1.947 1.032-4.908 1.032-7.585 0-.162-.004-.32-.009-.476-.093-3.669-2.086-6.703-5.474-8.33-4.766-2.3-9.836 1.129-15.502 10.502-1.66 2.733-2.747 5.312-3.742 8.048l-2.53-1.196a5.244 5.244 0 0 0-2.26-.514c-.02 0-.06.009-.081.009-.187-.158-.315-.328-.524-.477-3.059-2.18-5.596-1.822-6.681-1.666-2.343.172-5.909 1.555-7.596 2.686-.29.194-.566.527-.829.71 0-.989-.051-6.073-.051-6.073l2.647-7.294a4.87 4.87 0 0 0 .308-1.689c0-1.884-1.145-3.571-2.994-4.511 0 0-.136-.066-.228-.117-1.166-1.001-2.556-1.54-4.141-1.174l-3.927.91c-2.148.686-3.75 1.66-4.89 2.975a5.294 5.294 0 0 0-1.283 3.905c.06.748-.03 1.457-.289 2.387l-1.233 3.415-.229.588a191.812 191.812 0 0 1-.965 2.591c-.349-.063-.654-.254-1.012-.283-2.223-.169-4.561.344-6.652 1.387-3.635 1.473-6.024 3.577-7.737 5.817-.14-.207-.238-.44-.408-.627-2.513-2.804-6.746-4.36-11.397-1.39-.501-.664-1.283-.862-2.818-.8l-4.749.191-.373.124-4.582 1.994a4.444 4.444 0 0 0-2.117 1.888c-1.122-.23-2.236-.437-3.358-.066-.86-.496-1.697-1.046-2.73-1.223-4.263-.74-6.911.972-9.045 2.348l-.565.365c-.358.222-.634.54-.965.797.68-4.398 1.402-8.451 2.201-11.717.035-.156 1.403-5.764 1.403-5.764l2.343-10.479c.089-.402.132-.805.132-1.2 0-1.657-.782-3.189-2.206-4.182-1.765-1.23-4.03-1.138-5.829.035l-7.086 4.62-5.254 3.56a9.827 9.827 0 0 0-.361.259l-1.68 1.308c-4.9 3.797-6.702 5.951-6.702 9.949 0 1.621.298 3.545.803 6.009 0 0 .242 1.265.442 2.325-.09.03-.187.02-.276.057l-.667-2.364c-.609-2.158-2.483-3.62-4.715-3.767-2.232-.147-4.293 1.208-5.177 3.267L12.71 87.914a5.357 5.357 0 0 0-.43 2.097c0 .78.171 1.562.515 2.284 6.032 12.65 14.891 27.167 18.42 32.817a5.245 5.245 0 0 0 2.018 1.879l1.641.866c.336.18.714.167 1.075.271-.144.487-.293.98-.293 1.489 0 1.108.344 2.22 1.05 3.166a5.273 5.273 0 0 0 6.84 1.44c4.535-2.582 9.216-4.618 15.171-6.603 4.875-1.626 11.706-3.597 15.974-4.338 13.382-2.322 24.187-3.337 34.002-3.192 12.09.178 20.667.829 31.35 3.765 4.922 1.353 7.524 2.616 13.228 5.385l3.341 1.644c3.75 1.869 6.709 3.348 11.452 4.61 3.396.913 8.221.77 10.967-.32 1.887-.744 4.34-1.714 6.253-4.856 1.012-1.656 1.551-3.651 1.551-5.683 0-.256-.009-.515-.025-.771z" fill="#FFF"/><path d="M47.635 70.63c-3.43 13.971-5.033 34.5-5.87 48.631-1.136.763-2.831 3.21-4.498 3.841l-1.64-.867c-6.22-9.963-13.39-22.35-18.13-32.292l5.292-12.316c1.148 3.646 3.137 11.823 4.438 15.396 2.389 6.67 4.795 15.016 8.642 21.753l.417-.232C36.493 106 38.658 90.8 39.68 75.578c-1.019.824-3.927 6.839-4.888 6.165-2.448-14.718-4.327-11.985 4.379-18.826 5.457-3.593 7.99-5.613 12.11-8.04-.684 4.617-2.682 11.253-3.647 15.752m11.181 20.816c-1.73-.05-3.095 1.665-4.124 2.524-2.343 2.255-4.586 6.48-3.574 9.744 1.02 2.568 2.69 1.925 4.178 1.647 3.006-1.348 4.736-6.916 5.203-9.858-.038-1.385.974-3.714-1.683-4.057zm48.458-8.725c-3.536.4-6.163 4.178-7.753 7.282-1.007 2.722-1.934 5.806 1.31 6.459 1.874.302 4.408-1.92 5.75-4.243 1.131-2.642 4.635-8.571.693-9.498zm27.189 2.193c-2.56.235-9.862 7.342-8.956 10.589.883 2.88 4.96 1.54 6.052.598 1.539-1.408 3.46-4.745 4.612-8.335.336-2.111-.429-3.2-1.708-2.852zm26.963-14.64c-3.499 3.932-8.15 15.948-8.962 21.894 4.863-4.447 10.581-16.08 8.962-21.893zm4.008 3.846c-1.284 4.876-1.854 7.192-4.098 11.206-2.24 4.013-5.08 9.282-8.391 12.69-.051 1.111.052 1.9.374 3.048a5.915 5.915 0 0 0 1.704 2.735c1.45 1.281 3.121.748 4.094.343 1.947-.807 2.73-1.798 4.18-3.163 2.817-2.653 4.195-4.015 5.878-6.026 2.048-2.455 4.186-4.362 8.217-2.917-3.26 3.89-1.693 8.97-.979 13.392.715 4.414.58 8.173-6.095 9.424-.344 1.11.204 1.709.981 2.082.784.372 1.825.42 2.407.55 1.539.342 2.478.71 3.328 1.196.846.488 1.544 1.037 2.389 1.712.727.762 1.922 1.922 2.048 3.762.09 1.34-.262 2.523-.76 3.336-1.016 1.664-2.168 2.091-3.686 2.693-1.521.603-5.109.813-7.668.128-5.254-1.402-8.021-3.078-13.31-5.645-6.252-3.035-9.117-4.458-14.673-5.986-11.647-3.202-21.006-3.783-32.667-3.954-11.66-.17-23.596 1.294-34.984 3.27-4.438.77-11.345 2.734-16.74 4.53-5.39 1.8-10.644 3.914-16.11 7.022 6.198-5.986 13.921-10.018 22.083-12.97 8.157-2.951 16.753-4.82 24.675-6.471 12.528-2.939 24.825-2.585 36.978-.579 12.157 2.013 18.809 4.876 29.73 9.323 3.159 1.287 8.706 4.793 11.525 6.303 3.438 1.842 7.183 2.304 9.262.327.999-.95.926-1.976.586-2.988a4.626 4.626 0 0 0-1.933-2.47c-1.667-1.11-4.443-1.513-6.925-2.297-2.487-.78-3.15-1.945-3.665-4.57.82-1.312.383-.84 1.561-.337 1.172.507 2.418 1.053 3.532-.102.977-1.609 1.182-3.396 1.08-5.197-.103-1.798-.107-3.73-.778-5.271-.336-.76-2.202 1.123-3.07 1.98-.926.915-1.087 1.073-2.298 2.138-2.05 1.794-1.965 2.054-4.307 2.82-1.955.64-3.03.688-5.165-.596-1.441-.869-2.155-1.665-2.988-3.165-.85-1.541-1.054-2.97-1.713-4.454-1.666.937-1.126.92-2.895 1.886-1.87 1.027-3.84 1.284-5.798 1.112-1.204-.102-2.996-.92-3.791-1.623-.79-.706-1.072-1.34-1.948-1.954-1.495.88-2.843 1.35-4.412 1.866-1.568.516-3.082.882-4.778.343-1.62-.513-2.742-1.728-3.455-2.693 0 0-1.867-2.938-.898-3.978-1.789 1.926-4.23 3.627-6.095 4.875-1.594 1.07-3.316 2.401-5.884 2.18-.829-.284-1.19-.974-1.39-1.726-.2-.759-.726-1.654-.403-2.12-.927 1.357-2.61 2.678-5.033 3.364-2.385.675-4.846 1.11-6.534-.317l-1.053-1.321-.528-1.479c-1.755.517-3.078 1.157-5.496 2.356-1.62.808-4.098 3.081-4.608 1.886-.23-.546-.136-1.306-.085-2.395.05-1.091.32-3 .493-4.225.26-1.792.425-3.272.425-5.278 0-1.787.416-3.381-1.492-3.306l-1.535.39-1.092.573c-1.344.77-2.652 1.314-3.154 6.145-.264 2.535-.213 2.27-.79 4.7-.507 2.118-.8 2.114-1.845 4.385-.315.688-1.586 2.041-2.95 2.64-1.582.694-2.134.818-3.844.988-.62.062-3.409.512-5.287-.596-1.105-.658-2.36.605-3.074 1.198-.71.587-1.547 1.37-2.546 1.831-1.522.708-3.137 1.185-4.807.99-1.667-.199-3.55-.767-4.753-2.4-1.692-2.305-2.074-6.41-1.36-9.15.68-2.622 1.088-4.046 2.461-6.583 1.11-2.05 3.405-4.888 5.548-6.24 2.138-1.358 3.409-2.398 5.887-1.97 1.356.237 2.036 1.087 2.304 1.798.263.706.424 1.281 1.28 1.196.956-.096.577-1.588 1.704-1.966.718-.245 2.266.508 2.9 1.453-.987 2.362-1.842 4.372-2.594 6.82-1.543 5.033-.268 7.521.119 8.316.583 1.2 2.384.771 3.243.284 1.922-1.09 2.117-2.485 2.5-3.84.527-1.85.582-3.01.74-6.179.143-2.936.429-6.343-.51-9.077 1.045-.588 2.206-1.168 3.438-1.517 1.228-.35 1.118-.586 2.444-.264.307.7.527 1.348.464 2.216-.056.724-.094 2.04.82 1.998 1.641-.072 3.192-2.356 4.868-3.716 1.67-1.357 3.43-2.083 5.372.083.574 1.305.689 2.613.6 3.921-.086 1.312-.375 2.625-.604 3.948-.28 1.32-.323 2.855-.34 3.934-.013 1.078.17 1.626 1.45 1.626 4.16 0 3.302-4.914 5.088-9.112 1.55-3.645 3.579-6.521 8.055-8.252 1.216-.641 2.66-1.008 4.072-.901 1.411.109 2.784.684 3.856 1.935.904-.891 1.47-2.142 1.96-3.497.487-1.355.897-2.808 1.482-4.094.651-1.66 1.237-3.095 1.629-4.493.395-1.393.59-2.755.472-4.26.54-.624 1.48-1.075 2.529-1.412 1.05-.339 2.206-.563 3.184-.726l.319.394.786.4c-1.445 5.001-3.729 9.925-5.572 14.903-1.846 4.98-3.72 10.022-5.29 15.264-.037.66-.41 1.71-.441 2.527-.03.818.289 1.408 1.637 1.15 4.285-.96 6.831-5.758 9.837-9.58 2.656-3.375 3.735-4.167 6.065-5.729 1.024-.686 3.758-1.71 4.951-1.796.856-.06 1.705-.469 3.329.684 1.39.993.91 2.367 1.62 2.653 1.496.605.85-1.2 2.049-1.2l1.53.731 1.37.64-4.1 7.355-1.36 3.592c-.225 1.019-.986 3.756.38 4.956 1.134.993 3.408.763 4.123.537 1.623-.513 4.025-2.329 4.5-5.157.596-3.515.91-7.177 1.986-10.67 1.305-4.234 2.432-7.256 4.62-10.875 2.19-3.625 6.475-9.544 8.701-8.468 1.314.629 2.428 1.696 2.475 3.678.052 2.04-.358 4.7-.85 6.583z" fill="#231F20"/></g></svg>