<svg width="200" height="200" xmlns="http://www.w3.org/2000/svg" xmlns:xlink="http://www.w3.org/1999/xlink"><defs><path id="a" d="M0 0h180.09v200H0z"/></defs><g fill="none" fill-rule="evenodd"><path d="M131.286 153.375h2.14c.829 0 1.502.665 1.502 1.489a1.49 1.49 0 0 1-1 1.402l1.004 2.122h-1.055l-.959-2.037h-.68v2.037h-.952v-5.013Zm1.821 5.952c1.926 0 3.486-1.54 3.486-3.449 0-1.901-1.56-3.446-3.486-3.446-1.924 0-3.484 1.545-3.484 3.446 0 1.908 1.56 3.449 3.484 3.449Z" fill="#FFFFFE"/><g transform="translate(10)"><mask id="b" fill="#fff"><use xlink:href="#a"/></mask><path d="M123.979 154.864a.549.549 0 0 0-.552-.55h-1.19v1.094h1.19a.55.55 0 0 0 .552-.544" fill="#FFFFFE" mask="url(#b)"/><path d="M172.438 136.867c-5.166 2.899-11.338.93-16.3-1.374-5.187-2.406-10.226-5.12-15.489-7.365a103.936 103.936 0 0 0-18.12-5.835 106.506 106.506 0 0 0-6.176-1.183v41.074h20.754v35.396H44.433v-35.396h20.755v-39.502c-.82.173-1.638.352-2.454.538-12.393 2.855-24.344 7.401-35.684 13.131.06-3.045.784-5.742 1.799-8.052l-1.531.863-4.777-2.521-.617-.987C15.547 115.46 8.199 102.785 3.34 92.617l-.845-1.773 11.51-26.724 2.818 13.305c1.087 5.144 3.557 13.155 6.198 20.546a461.99 461.99 0 0 1 1.018-10.72l-2.628 2.398-3.268-18.096c-.362-3.925.967-6.175 4.141-8.581L48.033 45.73c-3.054 13.557-5.952 27.127-8.212 40.847 3.7-3.254 8.466-5.185 13.26-3.273l.27-.943s3.951.8 4.495.949l-.175-.61s3.345-1.74 7.517-2.962V37.939H44.433V2.54h92.674v35.4h-20.754v20.278c2.563-.4 4.42-.522 4.42-.522l-1.629 5.616c-.867 3.004-3.867 11.619-6.541 19.232 4.532-5.03 12.336-8.455 18.773-4.776l.591-.81s6.127 3.508 6.747 4.024a55.932 55.932 0 0 1 5.626-11.87c2.432-3.872 6.43-9.188 11.705-8.291 4.499.764 6.026 5.15 5.99 9.184-.046 5.146-1.751 10.413-3.782 15.1-2.466 5.696-5.785 10.95-9.968 15.543.018.381.055.794.13 1.201 4.134-2.426 7.142-6.319 10.42-9.704 3.132-3.238 7.198-4.37 11.508-2.823l5.355 1.922-3.66 4.356c-2.066 2.46-.847 6.835-.448 9.638.564 3.967.786 8.08-1.421 11.624 3.315 1.573 7.286 4.499 7.653 10.187.246 3.883-2.017 7.927-5.384 9.82Zm-49.331 14.626c2.45 0 4.433 1.963 4.433 4.385 0 2.423-1.983 4.39-4.433 4.39-2.448 0-4.433-1.967-4.433-4.39 0-2.422 1.985-4.385 4.433-4.385Zm56.685-26.718c-.854-3.757-3.304-6.826-6.604-8.869 1.204-3.057 1.2-6.404.824-9.622-.296-2.536-1.89-7.112-.12-9.373 1.796-2.301 3.753-4.483 5.647-6.705l-8.43-3.023c-4.186-1.503-8.576-1.003-12.118 1.76 3.681-7.47 10.642-25.13-.545-29.803-10.61-4.43-17.995 11.01-20.936 18.53-2.152-1.58-6.089-3.763-6.089-3.763l-.528 1.13c-4.42-1.72-9.442-1.152-13.61.998 1.824-5.253 6.588-20.881 6.588-20.881s-2.076.046-4.979.343v-15.02h20.755V0H41.894v40.476h20.754v37.775c-2.906 1.046-4.945 2.208-5.523 2.553-1.376-.373-3.343-.804-4.973-1l-.22.974a14.083 14.083 0 0 0-8.978.923c2.418-13.76 5.47-27.4 8.545-41.026l-30.52 20.44c-1.934 1.462-3.39 3.016-4.25 4.899l-1.982-9.353L0 90.893l.093.193c4.898 10.254 14.424 27.01 20.846 37.276l4.628 2.444c-.701 2.962-1.015 6.083-.806 9.126 12.029-6.075 24.772-10.903 37.887-14.046v33.759H41.894v40.474h97.753v-40.474H128.83a6.725 6.725 0 0 0 1.151-3.768c0-3.755-3.077-6.802-6.875-6.802a6.88 6.88 0 0 0-4.215 1.44v-26.56c11.233 2.317 21.68 6.5 32.194 11.653 6.25 3.062 13.49 6.661 20.558 4.104 5.928-2.146 9.541-8.783 8.148-14.937Z" fill="#FFFFFE" mask="url(#b)"/></g><path d="M133.107 152.432c1.926 0 3.486 1.545 3.486 3.446 0 1.908-1.56 3.449-3.486 3.449-1.924 0-3.484-1.54-3.484-3.449 0-1.901 1.56-3.446 3.484-3.446Zm0 7.836c2.45 0 4.433-1.967 4.433-4.39 0-2.422-1.983-4.385-4.433-4.385-2.448 0-4.433 1.963-4.433 4.385 0 2.423 1.985 4.39 4.433 4.39Z" fill="#1A1919"/><path d="M132.237 154.314h1.19c.303 0 .552.242.552.55a.55.55 0 0 1-.552.544h-1.19v-1.094Zm0 2.037h.681l.96 2.037h1.054l-1.003-2.122a1.49 1.49 0 0 0 .999-1.402c0-.824-.673-1.489-1.501-1.489h-2.14v5.013h.95v-2.037ZM58.823 92.271c-2.383-.343-9.2 6.045-7.018 13.187.71 2.328 2.8 2.4 4.405 1.393 5.118-3.212 7.094-13.939 2.613-14.58M134.92 86.085c-2.353-.508-9.315 5.33-7.922 12.666.532 2.802 2.629 2.591 4.298 1.698 5.329-2.847 8.049-13.411 3.624-14.364M163.04 71.862c-1.077 1.233-2.159 2.929-3.03 4.515-3.98 7.248-4.68 12.708-4.914 14.826 1.39-2.1 4.507-6.198 6.9-14.209.267-.895.907-3.84 1.044-5.132M107.493 83.927c-2.432-.48-9.496 5.658-7.93 13.186.598 2.875 2.754 2.621 4.455 1.672 5.438-3.03 8.049-13.955 3.475-14.858" fill="#1A1919"/><path d="M178.068 134.197c-5.761.78-9.531-2.128-22.267-8.102-20.056-9.406-37.538-10.346-49.309-10.522-20.278 0-40.111 2.102-65.29 15.247 7.448-11.807 37.59-20.895 65.177-20.895 34.683 0 55.922 13.555 59.424 15.408 6.504 3.436 10.072 4.46 11.819 2.434 3.065-3.55-3.864-6.306-8.938-8.327-2.474-.985-5.986-3.357-4.2-6.176.193-.302.56-.413.56-.413 1.793 3.147 3.94 2.557 5.256 1.076.984-1.62 1.469-3.304 1.56-5.118.101-1.976-.78-4.364-1.461-5.916 0 0-3.574 3.954-5.97 5.554-2.825 1.889-6.595 4.65-10.55 2.95-2.056-.883-3.367-3.366-3.853-5.622 0 0-2.972 3.52-8.017 2.603-3.976-.723-5.207-2.88-5.733-5.797 0 0-4.49 5.313-10.157 3.254-3.717-1.348-4.211-3.407-4.332-4.461-2.619 2.62-4.912 3.428-8.773 2.88-2.75-.389-5.087-3.579-4.765-4.053-.933 1.367-2.897 3.265-5.293 4.115-5.386 1.91-7.486-2.811-7.486-2.811-1.666 2.472-3.792 4.59-7.322 3.79-3.612-.82-3.73-4.79-3.552-6.022.256-1.806 2.1-11.004-1.04-10.333-2.58.552-4.203 2.81-4.203 2.81s-.975 7.166-1.56 9.616c-.51 2.132-2.061 7.411-8.383 8.52-1.45.255-4.44.91-7.341-1.716 0 0-3.643 6.174-9.554 4.987-1.663-.332-3.204-1.116-4.411-2.756-1.711-2.325-2.464-7.31-1.741-10.067.689-2.64 1.102-4.072 2.488-6.633 1.12-2.067 6.66-8.51 11.903-7.41 3.042.64 3.616 3.018 3.616 3.018l1.274-2.487s2.597.407 4.807 2.247c-.993 2.38-2.123 4.826-2.881 7.292-1.558 5.066-2.426 9.728 1.928 8.441 1.89-.557 2.477-2.974 2.823-4.35.615-2.455 1.215-12.783.266-15.538 1.32-.731 4.703-2.13 6.041-1.807l.487 3.923s1.3-1.902 4.96-3.591c1.976-.912 4.644-.68 6.147 1.336 1.501 2.015.671 4.872.209 7.53-.286 1.332-1.803 6.51-.205 7.097 1.626.598 2.974-1.215 3.814-3.14-1.193-13.344 12.172-21.857 19.105-15.444 1.322-3.4 3.812-11.134 4.957-16.315 3.296-1.904 7.236-2.291 7.236-2.291-1.457 5.036-8.951 25.97-10.734 31.179-.616 1.8-1.922 5.76.832 5.878 3.081.135 4.268-1.558 5.442-3.526.26-3.011 1.618-6.662 4.05-9.815 1.437-1.858 6.694-7.342 13.474-5.162 2.96.951 3.1 3.544 3.1 3.544l1.649-2.255s3.345 1.757 4.11 3.145c-1.355 2.195-2.85 4.435-3.985 6.752-2.331 4.76-4.388 10.097 0 11.262 3.923 1.044 6.889-5.634 6.889-5.634.07-3.746.597-9.909 1.687-13.427 1.32-4.26 2.57-7.234 4.662-10.95 2.221-3.946 6.148-9.776 9.615-8.248 3.138 1.386 1.67 8.944 1.103 10.88-1.421 4.858-2.046 6.736-4.23 11.135-2.059 4.148-5.33 8.666-8.67 12.1-.052 1.12-.24 6.15 2.57 7.154 2.135.76 6.769-3.214 8.23-4.59 2.845-2.668 3.883-3.621 5.579-5.65 2.068-2.468 4.232-4.392 8.296-2.935-4.306 5.127-.153 13.375-1.107 18.764-.505 2.847-2.379 6.42-7.807 5.265 1.396 2.11 13.252 2.102 13.774 10.224.15 2.343-1.518 6.315-5.799 6.895Zm-36.039 33.065v25.24H59.512v-25.24h20.754v-45.557c7.701-1.33 15.503-2.02 23.323-2.146 5.895-.095 11.817.157 17.686.842v46.861h20.754ZM37.249 124.24l-1.662-.876c-6.294-10.063-13.55-22.57-18.349-32.61l5.357-12.433c2.134 10.08 9.349 30.705 13.242 37.51l.423-.231c.49-11.781 1.46-24.07 3.432-39.351l-5.42 4.941-1.85-10.22c-.192-2.089.076-2.742 2.369-4.477l16.644-11.146s-9.313 41.35-9.63 65.011c0 0-1.553 2.186-4.557 3.882ZM59.511 32.86V7.616h82.517V32.86h-20.754v26.402c-2.39.63-4.803 1.495-6.663 2.683 0 0-2.456 9.549-3.64 13.124-6.52-2.04-13.327 1.839-17.287 7.741l-.516-.685c-1.922-2.134-4.606-3.416-7.505-3.164-1.066.093-2.319.399-3.284.899-.68.353-1.282.745-1.858 1.173l-.256-2V32.86H59.512Zm120.657 84c2.207-3.544 1.985-7.657 1.421-11.624-.399-2.803-1.618-7.179.449-9.638l3.659-4.356-5.355-1.922c-4.31-1.547-8.376-.415-11.508 2.823-3.278 3.385-6.286 7.278-10.42 9.704a8.946 8.946 0 0 1-.13-1.2c4.183-4.595 7.502-9.848 9.968-15.544 2.03-4.687 3.736-9.954 3.782-15.1.036-4.034-1.491-8.42-5.99-9.184-5.275-.897-9.273 4.42-11.705 8.29a55.932 55.932 0 0 0-5.626 11.87c-.62-.515-6.747-4.023-6.747-4.023l-.593.81c-6.435-3.68-14.239-.255-18.771 4.776 2.674-7.613 5.674-16.228 6.541-19.232l1.628-5.616s-1.856.121-4.419.522V37.94h20.754V2.54H54.433v35.4h20.755v41.799C71.016 80.96 67.67 82.7 67.67 82.7l.175.61c-.544-.15-4.495-.95-4.495-.95l-.27.944c-4.794-1.912-9.56.02-13.26 3.273 2.26-13.72 5.158-27.29 8.212-40.847L32.285 62.972c-3.174 2.406-4.503 4.656-4.141 8.58l3.268 18.097 2.628-2.399a461.99 461.99 0 0 0-1.018 10.721c-2.64-7.391-5.11-15.402-6.198-20.546L24.006 64.12l-11.51 26.724.845 1.773c4.858 10.168 12.206 22.843 18.583 33.037l.617.987 4.777 2.521 1.53-.863c-1.014 2.31-1.739 5.007-1.798 8.052 11.34-5.73 23.291-10.276 35.684-13.13.816-.187 1.634-.366 2.454-.539v39.502H54.433v35.396h92.674v-35.396h-20.754V121.11c2.07.335 4.131.726 6.176 1.183a103.936 103.936 0 0 1 18.12 5.835c5.263 2.245 10.302 4.96 15.49 7.365 4.96 2.303 11.133 4.273 16.299 1.374 3.367-1.892 5.63-5.936 5.384-9.82-.367-5.687-4.338-8.613-7.653-10.186Z" fill="#1A1919"/><path fill="#1A1919" d="M126.063 70.907v12.46h-5.956"/><path d="m80.266 79.033.256 2.001c.576-.428 1.177-.82 1.858-1.173.965-.5 2.218-.806 3.284-.9 2.899-.251 5.583 1.031 7.505 3.165l.516.685c3.96-5.902 10.766-9.781 17.288-7.74 1.183-3.576 3.639-13.125 3.639-13.125 1.86-1.188 4.272-2.053 6.663-2.683V32.861h20.754V7.616H59.512V32.86h20.754v46.172M103.59 119.56c-7.82.124-15.623.815-23.324 2.145v45.557H59.512v25.24h82.517v-25.24h-20.754v-46.861c-5.869-.685-11.791-.937-17.686-.842" fill="#DEA332"/><path d="M51.435 55.346 34.791 66.492c-2.293 1.735-2.561 2.388-2.369 4.477l1.85 10.22 5.42-4.941c-1.971 15.28-2.942 27.57-3.432 39.35l-.423.233c-3.893-6.806-11.108-27.431-13.242-37.51l-5.357 12.431c4.799 10.04 12.055 22.548 18.349 32.611l1.661.876c3.004-1.696 4.557-3.882 4.557-3.882.317-23.66 9.63-65.01 9.63-65.01M131.296 100.449c-1.67.893-3.766 1.104-4.298-1.698-1.393-7.335 5.569-13.174 7.922-12.666 4.425.953 1.705 11.517-3.624 14.364Zm-27.278-1.664c-1.701.949-3.857 1.203-4.455-1.672-1.566-7.528 5.498-13.667 7.93-13.186 4.574.903 1.963 11.828-3.475 14.858Zm-47.808 8.066c-1.604 1.007-3.695.935-4.405-1.393-2.182-7.142 4.635-13.53 7.018-13.187 4.48.641 2.505 11.368-2.613 14.58Zm103.8-30.474c.871-1.586 1.953-3.282 3.03-4.515-.137 1.293-.777 4.237-1.045 5.132-2.392 8.011-5.509 12.109-6.899 14.21.235-2.12.933-7.579 4.914-14.827Zm10.083 40.7c5.428 1.156 7.302-2.417 7.807-5.264.954-5.389-3.199-13.637 1.107-18.764-4.064-1.457-6.228.467-8.296 2.935-1.696 2.029-2.734 2.982-5.579 5.65-1.461 1.376-6.095 5.35-8.23 4.59-2.81-1.005-2.622-6.033-2.57-7.153 3.34-3.435 6.611-7.953 8.67-12.1 2.184-4.4 2.809-6.278 4.23-11.136.566-1.936 2.035-9.494-1.103-10.88-3.467-1.528-7.394 4.302-9.615 8.247-2.093 3.717-3.341 6.69-4.662 10.951-1.09 3.518-1.618 9.68-1.687 13.427 0 0-2.966 6.678-6.89 5.634-4.387-1.165-2.33-6.502 0-11.262 1.136-2.317 2.631-4.557 3.985-6.752-.764-1.388-4.11-3.145-4.11-3.145l-1.647 2.255s-.141-2.593-3.101-3.544c-6.78-2.18-12.037 3.304-13.474 5.162-2.432 3.153-3.79 6.804-4.05 9.815-1.174 1.968-2.361 3.661-5.442 3.526-2.754-.119-1.448-4.077-.832-5.878 1.783-5.21 9.277-26.143 10.734-31.18 0 0-3.94.388-7.236 2.292-1.145 5.181-3.635 12.914-4.957 16.315-6.933-6.413-20.298 2.1-19.105 15.444-.84 1.925-2.188 3.738-3.814 3.14-1.598-.587-.081-5.765.205-7.097.462-2.658 1.292-5.515-.209-7.53-1.503-2.015-4.17-2.248-6.146-1.336-3.661 1.69-4.961 3.591-4.961 3.591l-.487-3.923c-1.338-.324-4.72 1.076-6.041 1.807.949 2.755.35 13.083-.266 15.539-.346 1.375-.933 3.792-2.823 4.35-4.354 1.286-3.486-3.376-1.928-8.442.758-2.466 1.888-4.912 2.88-7.292-2.209-1.84-4.806-2.247-4.806-2.247l-1.274 2.487s-.574-2.378-3.616-3.018c-5.243-1.1-10.784 5.343-11.903 7.41-1.386 2.56-1.8 3.992-2.488 6.633-.723 2.757.03 7.742 1.741 10.067 1.207 1.64 2.748 2.424 4.411 2.756 5.91 1.187 9.554-4.987 9.554-4.987 2.9 2.626 5.89 1.971 7.341 1.717 6.322-1.11 7.872-6.389 8.382-8.521.586-2.45 1.56-9.617 1.56-9.617s1.625-2.257 4.204-2.81c3.14-.67 1.296 8.528 1.04 10.334-.179 1.231-.06 5.202 3.552 6.022 3.53.8 5.656-1.318 7.322-3.79 0 0 2.1 4.72 7.486 2.811 2.396-.85 4.36-2.748 5.293-4.115-.322.474 2.015 3.664 4.765 4.054 3.861.547 6.154-.26 8.773-2.881.12 1.054.615 3.113 4.332 4.46 5.668 2.06 10.157-3.253 10.157-3.253.526 2.916 1.757 5.074 5.733 5.797 5.045.917 8.017-2.603 8.017-2.603.486 2.256 1.797 4.74 3.853 5.623 3.955 1.7 7.725-1.062 10.55-2.95 2.396-1.6 5.97-5.555 5.97-5.555.681 1.552 1.562 3.94 1.461 5.916-.091 1.814-.576 3.498-1.56 5.118-1.316 1.481-3.463 2.07-5.255-1.076 0 0-.368.111-.56.413-1.787 2.819 1.725 5.191 4.199 6.176 5.074 2.021 12.003 4.777 8.938 8.327-1.747 2.027-5.315 1.002-11.819-2.434-3.502-1.853-24.74-15.408-59.424-15.408-27.586 0-57.729 9.088-65.178 20.895 25.18-13.145 45.013-15.247 65.291-15.247 11.77.176 29.253 1.116 49.31 10.522 12.735 5.974 16.505 8.882 22.266 8.102 4.28-.58 5.948-4.552 5.8-6.895-.523-8.122-12.379-8.114-13.775-10.224Z" fill="#FFFFFE"/></g></svg>