<svg width="200" height="200" xmlns="http://www.w3.org/2000/svg"><g fill="none" fill-rule="evenodd"><path d="M188.532 72.027c.608-.075 5.77-.764 9.32-3.098.031-.023.036-.064.008-.087-1.195-.926-20.866-16.29-26.377-29.105a.048.048 0 0 1 .003-.049c.495-.746 12.985-19.777 14.251-36.628.005-.038-.028-.07-.064-.056-1.274.392-19.456 5.874-47.215 6.259a9.01 9.01 0 0 1-3.116-.516c-3.18-1.113-10.577-3.649-13.825-4.297-4.123-.826-21.939 6.251-22.56 6.497h-.004c-.003 0-.01-.005-.013-.005-.003 0-.01.005-.013.005h-.005c-.618-.246-18.436-7.323-22.56-6.497-3.248.648-10.645 3.184-13.825 4.297a9.01 9.01 0 0 1-3.115.516c-27.76-.385-45.941-5.867-47.216-6.26-.035-.012-.066.019-.064.057C13.41 19.911 25.9 38.942 26.394 39.688c.01.016.01.034.005.049C20.886 52.552 1.214 67.917.019 68.842c-.028.023-.023.064.008.087 3.551 2.334 8.715 3.023 9.323 3.098.03.002.049.036.038.069-9.107 28.428 5.152 51.538 6.062 52.97.02.032.067.032.09 0 2.538-4.078 5.959-7.242 6.41-7.652.028-.023.064-.016.08.018.338.73 3.771 7.849 11.725 14.21 7.923 6.339 12.295 12.49 12.762 13.162.02.033.064.03.087 0 1.695-2.313 2.184-5.97 2.254-6.57.005-.04.048-.061.084-.04 14.587 8.987 6.098 24.26 5.613 25.104a.052.052 0 0 0 .016.067c4.435 3.413 9.23 4.577 9.584 4.66a.044.044 0 0 1 .03.025c12.657 21.497 34 27.456 34.727 27.654v.005h.01s.002 0 .002-.003a.008.008 0 0 0 .005.003h.01v-.005h.003v.005h.008s.005 0 .005-.003c0 .003.003.003.005.003h.008v-.005c.728-.198 22.07-6.157 34.726-27.654a.044.044 0 0 1 .03-.026c.354-.082 5.15-1.246 9.585-4.659.02-.015.03-.043.015-.067-.482-.843-8.974-16.117 5.616-25.105.033-.02.08 0 .082.041.072.6.561 4.257 2.254 6.57.023.03.066.033.087 0 .47-.672 4.84-6.823 12.761-13.162 7.954-6.361 11.388-13.48 11.729-14.21.015-.034.048-.041.076-.018.452.41 3.872 3.574 6.41 7.651.024.033.07.033.093 0 .908-1.43 15.167-24.54 6.059-52.97-.01-.032.008-.066.041-.068" fill="#231F20"/><path d="M80.999 62.915a230.076 230.076 0 0 0-15.734-9.144c-.115-.062-.236.077-.169.197 1.351 2.472 3.472 5.97 5.641 7.777 3.13 2.61 6.628 2.895 10.244 1.436.102-.043.115-.205.018-.266m39.418 48.202c-.431.37-1.716 1.392-2.482 1.18-.929-.262-14.867-6.66-18.993-6.66h-.002c-4.128 0-18.064 6.398-18.995 6.66-.764.212-2.051-.81-2.482-1.18a.106.106 0 0 0-.175.07c-.202 1.438-1.146 10.581 5.841 19.15.065.08.195.042.198-.06.023-1.957.174-12.924.649-14.585.523-1.829 9.823-5.747 14.964-5.747h.002c5.139 0 14.439 3.918 14.962 5.747.477 1.661.625 12.628.649 14.584.002.103.133.141.2.062 6.984-8.57 6.04-17.713 5.838-19.152a.106.106 0 0 0-.174-.069m-6.12 38.623c-.537.367-1.342.762-1.67.916-.07.033-.149-.02-.149-.098-.272-10.38-3.382-13.469-4.22-14.118-.075-.059-.18.005-.167.1.78 5.267-1.444 15.457-2.19 15.828-.759.383-3.797 1.647-6.959 1.647h-.002c-3.164 0-6.203-1.264-6.962-1.647-.746-.371-2.966-10.561-2.19-15.828a.104.104 0 0 0-.166-.1c-.839.649-3.949 3.739-4.22 14.118 0 .077-.08.131-.15.098-.328-.154-1.133-.55-1.669-.916-.08-.056-.187.005-.171.103.123.69.602 2.638 2.238 4.172 2.026 1.897 4.938 4.556 13.29 4.556h.002c8.349 0 11.262-2.659 13.287-4.556 1.636-1.534 2.116-3.482 2.239-4.172.018-.098-.09-.16-.172-.103m18.318-95.969a230.695 230.695 0 0 0-15.733 9.144c-.095.061-.085.223.018.266 3.615 1.46 7.113 1.175 10.243-1.436 2.17-1.807 4.29-5.305 5.641-7.777.067-.12-.054-.259-.169-.197" fill="#FEFEFE"/><path d="M94.239 27.28c-.454-1.774-.846-3.064-1.12-3.51-1.393-2.264-10.27-6.27-12.711-6.964-.782-.223-4.351.964-8.823 2.671.261-.007.52-.012.782-.012 7.22 0 14.574 2.628 21.872 7.815ZM63.59 44.757c4.19 4.892 24.685 16.197 27.403 17.672h.002-.002c-.003 0-.003-.003-.006-.003-8.094-5.474-19.212-13.736-25.65-21.256-3.44-4.018-4.173-6.236-4.3-6.72l-.003.002h.002c-.295.943-1.461 5.623 2.554 10.305Zm20.538 53.928c-6.335-1.238-13.215-4.53-14.043-4.936-.039-.018-.085.01-.082.052.223 5.266 8.959 10.997 9.936 10.625.992-.38 16.666-3.913 16.797-5.08.249-5.456-4.418-10.304-6.561-11.438-1.92-1.02-3.134 1.205-3.364 1.677-.018.039-.072.041-.095.008-.682-1.03-1.208-2.382-1.588-3.6l-.023-.005c-2.592-.739-5.074-1.244-7.371-1.508a49.994 49.994 0 0 1 3.743 3.523c.27.282.098.282-.102.167-5.298-3.062-11.339-3.375-10.364-2.285 1.835 2.985 11.479 11.198 13.194 12.646.167.141.036.175-.077.154Zm-19.43-27.718c4.607 1.167 10.028.898 14.828-.725l.04.05c.003.006.009.011.011.016.513.744.723 1.598.603 2.423 1.79-2.307 1.969-4.477 1.984-4.877.003-.036-.03-.059-.064-.048-10.466 2.964-20.018-.19-21.264-.995-.04-.026-.059-.07-.018-.095.667-.392 3.97-2.403 3.626-3.3-.07-.185-.51-.595-1.195-1.115l-.01.007c-1.941 1.349-6.949 2.144-7.498 2.228 1.2 2.95 4.46 5.293 8.957 6.431Zm117.051-5.69c-7.182-5.561-22.582-25.674-23.349-26.674-.015-.023-.007-.051.016-.07 11.507-8.091 17.259-24.556 17.836-26.279-.383.6-3.418 5.29-8.067 10.582-6.018 6.85-11.82 11.465-17.251 13.716.507.361 3.138 2.849 5.792 8.582 1.674 3.62 3.026 7.823 4.015 12.487 1.234 5.815 1.867 12.37 1.954 19.474.02.334.023.68.039 1.018.028.634.061 1.262.071 1.91.013 1.01.006 2.04-.03 3.09 0 .026-.018.044-.039.052-.008.002-.015-.006-.023-.008-.013 0-.026.002-.033-.008 0-.002-.003 0-.003-.002a31.872 31.872 0 0 0-3.174-3.85l-.005-.002c-1.275-1.307-2.813-2.61-4.403-3.333-.015-.008-.033-.005-.049.005a.054.054 0 0 0-.025.046c.013 1.505-.044 22.575-14.436 35.572-.03.026-.064.049-.085.044-.02-.003-.023-.031.01-.105.029-.054.057-.12.093-.198.002-.008.005-.015.01-.023.556-1.236 2.067-4.946 2.598-9.702l-.021-.098c-1.544-7.467-4.89-12.574-9.949-15.177.854 2.567 1.749 5.705 2.413 8.218.7 2.728-2.497 6.239-5.372 9.882-.007.01-.01.016-.01.028-.044.503-1.323 15.239-4.918 23.052-3.656 7.943-8.195 21.05-5.172 29.628.003.002.003.002.003.005.01.062.43 2.923-6.554 5.418-5.618 2.01-12.203 5.133-14.664 6.328v.003h-.005a.016.016 0 0 1-.016 0h-.005v-.003h-.002v.003h-.005c-.008.002-.013.002-.018 0h-.005v-.003c-2.462-1.195-9.047-4.318-14.665-6.328-6.982-2.495-6.564-5.356-6.553-5.418 0-.003.002-.003.002-.005 3.023-8.577-1.515-21.685-5.172-29.628-3.592-7.813-4.874-22.55-4.915-23.052a.057.057 0 0 0-.013-.028c-2.874-3.643-6.072-7.154-5.372-9.882.664-2.513 1.56-5.651 2.416-8.218-5.06 2.603-8.408 7.71-9.952 15.177l-.02.098c.53 4.756 2.04 8.466 2.597 9.702l.01.023.093.198c.033.074.03.102.013.105-.02.005-.057-.018-.087-.044-14.39-12.997-14.45-34.067-14.434-35.572 0-.02-.01-.036-.028-.046-.015-.01-.033-.013-.049-.005-1.59.723-3.128 2.026-4.402 3.333l-.003.003a31.723 31.723 0 0 0-3.177 3.849v.002c-.007.01-.023.008-.033.008-.01.002-.015.01-.026.008a.06.06 0 0 1-.038-.052 65.835 65.835 0 0 1-.028-3.09c.007-.648.04-1.276.071-1.91.013-.338.016-.684.036-1.018.09-7.105.723-13.659 1.954-19.474.99-4.664 2.341-8.867 4.016-12.487 2.653-5.733 5.287-8.22 5.792-8.582-5.428-2.251-11.233-6.867-17.249-13.716-4.651-5.292-7.684-9.982-8.07-10.582.578 1.723 6.33 18.188 17.837 26.28.023.018.033.046.015.07-.764 1-16.164 21.112-23.349 26.673-.04.034-.015.093.036.093h5.516c.036 0 .064.03.051.064-.372 1.2-5.803 19.125-3.518 35.582.015.115.177.143.228.038.885-1.736 4.982-9.559 9.108-13.461.049-.046.13-.016.133.051.131 2.198 2.149 25.313 29.71 37.913.039.015.08-.008.08-.046-.02-.541-.241-3.68-2.577-9.328-.026-.065.03-.131.095-.108 1.674.592 15.613 6.561 12.897 40.464-.002.023.006.044.026.054.218.095 1.536.615 3.57 0 .025-.008.056.002.063.03.267.87 4.585 13.888 27.37 24.317h.018c.002 0 .005-.004.005-.004.002 0 .002.004.005.004h.02c22.782-10.43 27.103-23.447 27.367-24.316.01-.029.038-.039.067-.031 2.03.615 3.351.095 3.566 0 .02-.01.031-.03.029-.054-2.718-33.903 11.22-39.872 12.894-40.464.067-.023.124.043.095.108-2.336 5.648-2.554 8.787-2.574 9.328-.003.038.038.061.077.046 27.561-12.6 29.58-35.715 29.71-37.913a.079.079 0 0 1 .133-.051c4.126 3.902 8.224 11.725 9.108 13.461.054.105.213.077.228-.038 2.288-16.457-3.146-34.382-3.518-35.582-.01-.033.018-.064.054-.064h5.516c.048 0 .074-.06.033-.093Zm-63.438 5.016.04-.051c4.803 1.623 10.221 1.892 14.831.725 4.495-1.138 7.754-3.482 8.954-6.43-.549-.085-5.554-.88-7.497-2.229l-.01-.007c-.685.52-1.126.93-1.195 1.115-.341.897 2.959 2.908 3.625 3.3.041.026.023.07-.018.095-1.246.805-10.797 3.959-21.264.995-.033-.01-.064.012-.064.048.018.4.195 2.57 1.985 4.877-.12-.825.09-1.68.602-2.423.005-.005.008-.01.01-.015Zm-11.426-7.864c2.718-1.475 23.213-12.78 27.402-17.672 4.016-4.682 2.85-9.362 2.557-10.305v-.003c-.13.485-.862 2.703-4.303 6.72-6.436 7.521-17.556 15.783-25.651 21.257 0 0-.003.003-.005.003Zm19.408-42.952c-4.472-1.707-8.041-2.894-8.824-2.671-2.44.695-11.317 4.7-12.707 6.964-.277.446-.67 1.736-1.12 3.51 7.294-5.187 14.648-7.815 21.871-7.815.26 0 .518.005.78.012Zm-8.354 84.95c.98.37 9.715-5.36 9.936-10.626.002-.042-.041-.07-.08-.052-.828.405-7.71 3.698-14.046 4.936-.113.02-.244-.013-.074-.154 1.712-1.448 11.359-9.661 13.192-12.646.974-1.09-5.064-.777-10.362 2.285-.2.115-.374.115-.102-.167a49.484 49.484 0 0 1 3.743-3.523c-2.3.264-4.78.77-7.374 1.508l-.023.005c-.38 1.218-.903 2.57-1.587 3.6a.056.056 0 0 1-.095-.008c-.228-.472-1.444-2.697-3.364-1.677-2.144 1.134-6.81 5.982-6.56 11.439.13 1.166 15.803 4.7 16.796 5.08Z" fill="#FEFEFE"/><path d="M98.94 58.882c-16.838-2.523-21.187-14.144-21.567-15.757a.048.048 0 0 1 .026-.059l-.003-.002.006.002a.049.049 0 0 1 .056.01c5.338 5.144 15.536 9.944 21.482 9.97 5.946-.026 16.144-4.826 21.482-9.97a.052.052 0 0 1 .059-.01s0-.002.003-.002l-.003.002c.02.01.033.031.026.06-.38 1.612-4.729 13.233-21.567 15.756Zm77.354-46.726c-.018-.049-.062-.07-.108-.054-11.497 4.031-32.674 6.629-33.572 6.736a.095.095 0 0 0-.071.057.082.082 0 0 0 .012.09c2.823 3.625 5.893 8.869 6.477 9.884.005.01.003.015 0 .018-.007.008-.013.005-.015.002-1.374-.605-13.7-6.005-22.598-9.41l-.012-.002a34.88 34.88 0 0 0-.895-.013c-7.234 0-14.603 2.636-21.913 7.843l-.01.006-.003.015c-.384 1.51-.843 3.485-1.359 5.867a.098.098 0 0 0 .023.082.09.09 0 0 0 .077.03c2.808-.297 5.62-1.159 7.718-2.364 3.074-1.764 3.654-3.656 3.6-4.93 0-.003 0-.013.005-.013.375-.02 3.777-.154 8.01.687 5.5 1.092 9.9 3.27 13.08 6.477.008.008.005.015.003.02-.003.003-.01.008-.016.008-1.205-.295-11.9-2.859-16.884-1.838-.034.005-.057.023-.067.053-.085.203-.895 2.039-3.423 4.108-3.29 2.692-7.895 4.564-13.69 5.564a.093.093 0 0 0-.074.072c-.849 4.236-1.51 7.77-1.636 8.436 0 .002 0 .008-.005.01h-.013c-.008-.002-.008-.008-.008-.01-.125-.667-.787-4.2-1.636-8.436a.093.093 0 0 0-.074-.072c-5.795-1-10.4-2.872-13.69-5.564-2.528-2.07-3.338-3.905-3.423-4.108-.01-.03-.033-.048-.067-.053-4.984-1.02-15.68 1.543-16.884 1.838-.005 0-.013-.005-.016-.008-.002-.005-.005-.012.003-.02 3.18-3.208 7.58-5.385 13.08-6.477 4.233-.841 7.635-.708 8.01-.687.005 0 .005.01.005.013-.054 1.274.526 3.166 3.6 4.93 2.097 1.205 4.91 2.067 7.718 2.364a.09.09 0 0 0 .077-.03.09.09 0 0 0 .023-.082 172.257 172.257 0 0 0-1.36-5.867l-.002-.015-.01-.006c-7.31-5.207-14.68-7.843-21.913-7.843-.297 0-.595.005-.895.013l-.012.002c-8.898 3.405-21.221 8.805-22.598 9.41-.002.003-.008.006-.015-.002-.003-.003-.005-.008 0-.018.584-1.015 3.654-6.259 6.477-9.885a.082.082 0 0 0 .012-.09.095.095 0 0 0-.071-.056c-.895-.107-22.075-2.705-33.572-6.736-.046-.015-.09.005-.108.054l-.008.018.01.018c.029.046 3.152 5.003 8.108 10.644 6.016 6.85 11.818 11.464 17.252 13.718-.508.361-3.141 2.846-5.793 8.58-1.677 3.62-3.028 7.822-4.018 12.489-1.23 5.813-1.864 12.366-1.953 19.474 1.712-28.249 25.75-42.654 25.782-42.672.03-.015.061 0 .071.026.003 0 .003.003.003.005.13.492.87 2.705 4.3 6.713 6.436 7.52 17.554 15.78 25.649 21.254 0 0 .002.002.005.002v.003h.002v.003c.023.012.029.038.016.064-3.116 6.856-9.79 10.15-10.823 10.377-.052.01-.077-.05-.046-.088.015-.018.025-.036.04-.053.119-.824-.092-1.68-.602-2.421-.005-.005-.008-.013-.013-.018l-.038-.051c-4.803 1.623-10.22 1.892-14.831.725-4.495-1.138-7.754-3.482-8.954-6.43.549-.085 5.554-.88 7.498-2.229l.01-.007c-2.987-2.272-10.651-6.728-12.782-4.595-2.349 2.349-4.295 8.01-4.672 9.154-.018.054.044.09.085.048 1.961-1.948 5.566-3.207 6.23-3.428.044-.013.08.031.062.072-3.246 7.549-1.762 17.697-1.59 18.772.005.04.057.056.087.028 8.975-8.008 17.588-7.12 18.834-6.938.05.005.054.074.007.097-13.864 7.19-15.743 18.133-14.848 26.113l.025-.12c1.541-7.465 4.887-12.57 9.944-15.175.108-.323.215-.641.32-.944 1.641-4.666 4.416-5.677 8.318-3.907 1.462.659 3.046 1.815 4.46 3.002 2.3.264 4.781.772 7.376 1.508l.02.008a26.938 26.938 0 0 1-.733-2.913c-.01-.041.031-.072.07-.057 1.115.429 12.338 4.736 14.461 4.754h.026c2.123-.018 13.346-4.325 14.461-4.754.039-.015.08.016.072.057a27.868 27.868 0 0 1-.736 2.913l.02-.008c2.596-.736 5.078-1.244 7.378-1.508 1.413-1.187 2.997-2.343 4.459-3.002 3.902-1.77 6.677-.76 8.318 3.907.105.303.212.62.32.944 5.057 2.605 8.403 7.71 9.944 15.174l.025.12c.895-7.979-.984-18.922-14.848-26.112-.047-.023-.044-.092.007-.097 1.246-.182 9.86-1.07 18.834 6.938.03.028.082.013.087-.028.172-1.075 1.656-11.223-1.59-18.772-.018-.041.018-.085.062-.072.664.22 4.269 1.48 6.23 3.428.041.041.103.006.085-.048-.377-1.144-2.323-6.805-4.672-9.154-2.13-2.133-9.795 2.323-12.782 4.595l.01.007c1.944 1.35 6.952 2.144 7.498 2.229-1.2 2.948-4.46 5.292-8.954 6.43-4.61 1.167-10.028.898-14.83-.725l-.04.051c-.004.005-.007.013-.012.018-.51.741-.72 1.597-.603 2.42.016.018.029.036.041.054.031.039.006.098-.046.088-1.033-.226-7.707-3.521-10.823-10.377-.013-.026-.007-.052.016-.064v-.003h.002v-.003c.003 0 .005-.002.005-.002 8.095-5.475 19.213-13.734 25.649-21.254 3.43-4.008 4.17-6.22 4.3-6.713 0-.002.003-.005.003-.005.01-.026.04-.041.071-.026.031.018 24.07 14.423 25.782 42.672-.09-7.108-.723-13.661-1.953-19.474-.99-4.667-2.341-8.87-4.016-12.49-2.654-5.733-5.287-8.218-5.795-8.58 5.434-2.253 11.236-6.866 17.252-13.717 4.956-5.641 8.08-10.598 8.107-10.644l.01-.018-.007-.018Z" fill="#F37820"/><path fill="#231F20" d="M146.092 151.688h-1.741v-.429h3.951v.429h-1.736v4.413h-.474zM149.565 151.26h.495l1.266 2.843c.11.249.236.592.236.592h.013s.13-.343.241-.592l1.27-2.844h.487l.384 4.842h-.474l-.27-3.388c-.017-.261-.012-.674-.012-.674h-.013s-.146.426-.256.674l-1.136 2.485h-.447l-1.138-2.485c-.11-.24-.262-.69-.262-.69h-.012s.007.429-.013.69l-.27 3.388h-.474l.385-4.842Z"/></g></svg>