<?xml version="1.0" encoding="UTF-8"?>
<svg width="200px" height="200px" viewBox="0 0 200 200" version="1.1" xmlns="http://www.w3.org/2000/svg" xmlns:xlink="http://www.w3.org/1999/xlink">
    <!-- Generator: Sketch 51.3 (57544) - http://www.bohemiancoding.com/sketch -->
    <title>ill-chicago</title>
    <desc>Created with Sketch.</desc>
    <defs></defs>
    <g id="ill-chicago" stroke="none" stroke-width="1" fill="none" fill-rule="evenodd">
        <g id="ill-chicago_BGL" transform="translate(43.000000, 0.000000)">
            <g id="ill-chicago" transform="translate(0.100189, 0.000000)">
                <g id="g10" transform="translate(56.602753, 100.381317) scale(-1, 1) rotate(-180.000000) translate(-56.602753, -100.381317) translate(0.000000, 0.138273)" fill-rule="nonzero">
                    <g id="g12">
                        <path d="M13.4519251,19.2303317 C13.4519251,19.2303317 16.1973747,19.1290516 19.4805072,20.4523462 C28.7179037,24.4912767 76.9993608,48.0025913 80.2501735,49.3099853 C91.5296764,54.2002903 96.2627035,56.9578382 98.8197653,60.1596528 C101.415714,63.4668091 101.924707,66.5898984 101.924707,70.8597336 L101.924707,89.0071811 C101.924707,95.5342131 97.8510373,100.847094 91.775099,102.298026 C92.1043455,103.024788 92.5433409,103.996109 92.6107457,104.164621 C100.720062,124.131134 90.7363736,139.723248 86.262855,145.312662 L86.262855,154.167752 C86.262855,161.548578 80.2589016,167.553655 72.8773841,167.553655 L69.3380269,167.553655 C61.9028448,181.009555 65.9346891,193.056868 65.9346891,193.056868 C55.6647029,190.634616 53.4940953,176.855518 53.4940953,176.855518 C50.821322,190.049577 62.3366552,199.972774 62.3366552,199.972774 C62.3366552,199.972774 33.609937,197.360406 30.4773419,167.553655 L13.3999889,167.553655 C6.0191022,167.553655 0.0145152791,161.548578 0.0145152791,154.167752 L0,32.8770394 C0,25.0961916 5.775719,19.2303317 13.4336913,19.2303317" id="path14" fill="#FFFFFF"></path>
                        <polyline id="path16" fill="#A91A2D" points="14.7964782 11.0147229 10.6940316 9.0848715 10.6940316 7.438898 14.558833 9.255976 14.558833 6.81575786 10.6940316 4.99763423 10.6940316 1.41135292 7.69443999 0 7.69443999 10.1445096 14.7964782 13.4853683 14.7964782 11.0147229"></polyline>
                        <polyline id="path18" fill="#A91A2D" points="29.8508229 10.4225976 22.2886951 6.86571519 22.2886951 17.0095162 25.3159486 18.4333995 25.3159486 10.857445 29.8508229 12.9901158 29.8508229 10.4225976"></polyline>
                        <path d="M42.1010413,20.1904181 L41.166275,23.573448 L40.2454216,19.3167481 L42.1010413,20.1904181 Z M46.3286189,18.1741502 L43.1052865,16.6578014 L42.6445142,18.1717306 L39.6736042,16.7735994 L39.2128319,14.8275017 L35.9894131,13.3108071 L38.9890133,24.865287 L43.3985838,26.939281 L46.3286189,18.1741502 Z" id="path20" fill="#A91A2D"></path>
                        <polyline id="path22" fill="#A91A2D" points="65.6525395 27.2643796 62.7224181 25.8850871 62.7224181 32.2481871 60.9363636 25.046243 57.9921563 23.6609014 56.1922751 29.2607716 56.1922751 22.8139341 53.2622401 21.4356786 53.2622401 31.5791512 57.4784107 33.5623216 59.4514703 27.7329294 61.4211597 35.4179413 65.6525395 37.4078522 65.6525395 27.2643796"></polyline>
                        <polyline id="path24" fill="#A91A2D" points="81.3900925 34.6668098 73.381019 30.8999182 73.381019 41.0433908 81.2776647 44.7586054 81.2776647 42.2880465 76.3806192 39.9840984 76.3806192 38.5468205 81.1389664 40.7858699 81.1389664 38.6092132 76.3806192 36.3708552 76.3806192 34.7799289 81.3900925 37.1364182 81.3900925 34.6668098"></polyline>
                        <path d="M97.2962439,44.8699962 C97.2962439,43.9771418 97.0162547,43.1478034 96.4588688,42.3838823 C95.9006187,41.6183192 95.1695358,41.023515 94.2682126,40.5992104 L92.0499032,39.5560779 C90.9524147,39.0396534 90.1288662,38.8147978 89.580122,38.8822891 C88.8732357,38.9687055 88.5206567,39.5183139 88.5206567,40.5326698 L88.5206567,41.3553541 L91.4078292,42.713993 L91.4078292,42.4770392 C91.4078292,42.1229047 91.5253555,41.945751 91.7586799,41.944714 C91.9168219,41.9352947 92.1976753,42.0250813 92.5995116,42.2144197 L93.2865221,42.5374443 C93.6140403,42.6914383 93.8378588,42.8210629 93.959706,42.9256268 C94.1653771,43.1090024 94.2682126,43.3388701 94.2682126,43.6153162 L94.2682126,44.059583 C94.2682126,44.3032773 94.1446371,44.4024834 93.9000787,44.3565962 C93.7773674,44.3343008 93.5742888,44.2685379 93.2908429,44.161468 L91.0863601,43.356067 C89.4219799,42.7400043 88.5897898,43.2608361 88.5897898,44.916661 L88.5897898,45.5309954 C88.5897898,46.5085379 88.9017531,47.3994047 89.5248155,48.2048057 C89.98023,48.7908818 90.8262467,49.3747976 92.0637298,49.9564665 L93.6961359,50.7247084 C95.8721013,51.7489158 96.9609482,51.4420511 96.9609482,49.8045464 L96.9609482,48.9963801 L94.0729115,47.6370498 L94.0729115,47.874695 C94.0729115,48.1433636 93.9942726,48.2885432 93.8361305,48.3078141 C93.7263817,48.3301095 93.5224389,48.2713463 93.2260306,48.1329072 L92.6021041,47.8385729 C92.2875483,47.6907144 92.0706431,47.5688673 91.9505243,47.4764017 C91.7284341,47.2964827 91.6178211,47.0875279 91.6178211,46.8447841 L91.6178211,46.4410466 C91.6178211,46.2260426 91.6999167,46.1257995 91.864972,46.1385892 C91.938426,46.1446383 92.1769353,46.2199934 92.5796358,46.3634447 L94.5888175,47.0847625 C96.3931923,47.7295154 97.2962439,47.3069391 97.2962439,45.8189349 L97.2962439,44.8699962" id="path26" fill="#A91A2D"></path>
                        <polyline id="path28" fill="#A91A2D" points="107.295487 68.1143704 106.309476 67.6495365 106.309476 64.7309949 105.157545 64.1891639 105.157545 67.1083969 104.164621 66.6408841 104.164621 67.580317 107.295487 69.0538033 107.295487 68.1143704"></polyline>
                        <polyline id="path30" fill="#A91A2D" points="112.61269 67.696115 111.497918 67.1715673 111.497918 69.591227 110.819549 66.8525179 109.699592 66.325637 109.01431 68.4556289 109.01431 66.0032174 107.900402 65.479361 107.900402 69.3380269 109.503427 70.0925286 110.253521 67.8740464 111.003616 70.7976866 112.61269 71.5545216 112.61269 67.696115"></polyline>
                        <polyline id="path32" fill="#A91A2D" points="41.2294454 33.9262211 60.7351862 43.2115787 60.7351862 88.3918963 41.2294454 79.1108595 41.2294454 33.9262211"></polyline>
                        <path d="M18.4323625,22.791293 C28.6078956,27.2400965 34.0673391,29.9787192 36.4083599,32.9179144 C38.5761157,35.6873013 38.5653136,38.1666747 38.5653136,42.0571418 L38.5653142,77.6823097 L2.5276802,60.6005494 L2.5276802,32.8770394 C2.5276802,26.52984 7.2242137,21.7587032 13.4519251,21.7829862 C13.4519251,21.7829862 15.8294136,21.7060756 18.4323625,22.791293" id="path34" fill="#A91A2D"></path>
                        <path d="M83.4407541,99.1490118 C73.2666036,94.7391821 68.2551428,92.0205216 65.9127394,89.0884126 C63.7469711,86.3289635 63.3496284,83.8482075 63.3496284,79.961197 L63.3496284,61.8153914 C63.3496284,55.468192 68.0451509,50.6805496 74.274219,50.6805496 C74.274219,50.6805496 76.7877269,50.590763 79.2532737,51.6719188 C89.4288933,56.0832176 94.4401813,58.8012732 96.7803378,61.7333822 C98.9476616,64.4933497 99.3443129,66.9737601 99.3443129,70.8597336 L99.3443129,89.0071811 C99.3443129,95.354467 94.6475807,100.140208 88.4204137,100.140208 C88.4204137,100.140208 86.2455717,100.251685 83.4407541,99.1490118" id="path36" fill="#A91A2D"></path>
                        <path d="M74.8240867,139.34388 C80.0813158,117.946311 64.7701415,104.875828 64.7701415,104.875828 C76.1294931,144.266159 45.8789943,157.881065 45.8789943,157.881065 C61.5699688,125.203562 32.5668045,104.456708 32.5668045,104.456708 C32.9141985,112.873667 30.0665183,120.322762 27.8926269,124.710124 C26.3911417,120.54226 24.2948522,116.108234 21.3928161,111.477178 C11.5075557,95.696676 18.9724651,82.2450965 23.5623002,74.4487802 L27.244763,76.1976757 C19.064585,89.7088824 19.3829431,99.9958927 22.9097699,105.962082 C26.6121949,112.226408 27.3706717,114.882849 27.3706717,114.882849 C27.3706717,114.882849 30.3298291,106.789951 28.2797724,96.3646749 C28.2797724,96.3646749 59.8261719,114.502617 53.6575088,147.054817 C53.6575088,147.054817 71.8079809,132.765862 58.2004198,96.6835515 C58.2004198,96.6835515 74.1571248,103.306506 78.7131711,118.964296 C78.7131711,118.964296 80.4442648,110.589681 74.6320694,98.7195222 L80.6336032,101.572128 C88.590654,123.798431 74.8240867,139.34388 74.8240867,139.34388" id="path38" fill="#FCD006"></path>
                        <polyline id="path40" fill="#FFFFFF" points="44.1364936 38.5295372 57.8284836 45.0479276 57.8284836 83.7901356 44.1364936 77.2734736 44.1364936 38.5295372"></polyline>
                        <path d="M17.2751602,25.453005 C28.3098454,30.2767694 32.0682682,32.636024 33.7151922,34.7050059 C35.3878684,36.8410469 35.658611,38.617682 35.658611,42.0466854 L35.658611,73.071821 L22.0405936,66.54332 L22.0405936,37.2542902 C22.0405936,36.4167423 21.6618304,35.8672203 20.9940908,35.6302665 C20.3183144,35.3885597 19.1293973,35.6518706 19.1293973,36.5385894 L19.1293973,65.3396257 L5.43343222,58.7743113 L5.43343222,32.8865452 C5.43343222,28.1197292 8.80738838,24.671887 13.4519251,24.6890839 C13.4519251,24.6890839 15.290348,24.6546902 17.2751602,25.453005" id="path42" fill="#FFFFFF"></path>
                        <path d="M84.5976106,96.4830654 C73.5633576,91.701645 69.8464147,89.3545751 68.1994042,87.2944078 C66.5254318,85.1633789 66.2564175,83.3857932 66.2564175,79.961197 L66.2564175,61.8153914 C66.2564175,57.0476248 69.6286453,53.586993 74.274219,53.586993 C74.274219,53.586993 76.2800305,53.5443897 78.0977998,54.3403713 C89.1324849,59.1216188 92.849255,61.4670468 94.4963519,63.5288561 C96.1676454,65.6599714 96.4381288,67.4358287 96.4381288,70.8597336 L96.4381288,80.8779888 L82.8213212,74.3994364 L82.8213212,66.1234226 C82.8213212,65.3074788 82.0766709,64.7363527 81.406598,64.5010408 C80.7318586,64.2644326 79.9803815,64.6067281 79.950395,65.26332 L79.950395,84.8194416 C79.9905786,85.4908107 80.5323231,86.2047832 81.2007541,86.4397494 C81.8758392,86.6782587 82.7906434,86.3360497 82.8213212,85.6785072 L82.8213212,77.7204193 L96.4381288,84.2000087 L96.4381288,89.0071811 C96.4381288,93.7730465 93.0670244,97.234024 88.4204137,97.234024 C88.4204137,97.234024 86.763811,97.312663 84.5976106,96.4830654" id="path44" fill="#FFFFFF"></path>
                        <polyline id="path46" fill="#15213B" points="56.0846003 46.1497369 56.0846003 81.0275756 45.8789943 76.1727013 45.8789943 41.2932207 56.0846003 46.1497369"></polyline>
                        <path d="M23.7854274,65.4482511 L23.7854274,37.566167 C23.7854274,35.7521136 22.6468047,34.2158025 20.9910662,33.7783626 C19.3505369,33.3462806 17.3835264,34.4004744 17.3835264,36.1153218 L17.3835264,62.5705844 L7.17863768,57.6795881 L7.17863768,32.8936314 C7.17863768,28.2909202 10.90869,25.5215333 15.5094136,26.7077714 C15.8722761,26.8018789 16.2307314,26.916035 16.582187,27.0510174 C26.4815332,31.3803071 30.742986,33.7672149 32.3430724,35.7763966 C33.6062211,37.38789 33.9147278,38.617682 33.9147278,42.0389079 L33.9147278,70.3031254 L23.7854274,65.4482511" id="path48" fill="#15213B"></path>
                        <path d="M94.6942455,85.301818 L94.6942455,89.0071811 C94.6942455,93.6097195 90.964513,96.3923281 86.3637894,95.2239782 C86.0011861,95.1315126 85.6416938,95.0165788 85.291016,94.8834975 C75.3939166,90.5920582 71.1716968,88.2199276 69.5716105,86.2159309 C68.3098444,84.6087583 68.0003008,83.3790527 68.0003008,79.961197 L68.0003008,61.8153914 C68.0003008,57.2147542 71.7300333,54.431195 76.3320532,55.5985079 C76.6945701,55.6909735 77.053371,55.8051296 77.4048266,55.939075 C87.3013211,60.2305143 91.5236272,62.6035955 93.1240592,64.6067281 C94.3857389,66.2148512 94.6942455,67.4419643 94.6942455,70.8597336 L94.6942455,78.1170707 L84.5652045,73.2976271 L84.5652045,66.4282133 C84.5652045,64.6013702 83.0596577,63.0813055 81.4046104,62.6508653 C79.7640812,62.2231905 78.2054747,63.0883916 78.2054747,64.8261393 L78.2054747,84.5125769 C78.2054747,86.1676241 79.5473488,87.8595711 81.2037787,88.2899249 C82.8446536,88.7176861 84.5423041,87.7455015 84.5652045,86.1156878 L84.5652045,80.4823744 L94.6942455,85.301818" id="path50" fill="#15213B"></path>
                        <path d="M78.5055989,149.950631 C57.543223,171.017225 62.2022777,187.845958 62.2022777,187.845958 C55.5563367,180.860055 55.3587888,171.46227 56.6078517,164.236129 C42.572875,180.173909 54.869067,195.493811 54.869067,195.493811 C49.7059453,193.957327 27.0219815,180.93783 35.4344469,154.258489 C38.7837743,143.634455 39.1372175,135.97796 38.3533342,130.599403 C33.0579954,146.336696 20.7939503,154.258489 20.7939503,154.258489 C20.7939503,154.258489 27.8406042,138.195406 14.0024841,116.106505 C0.33047539,94.2820392 11.0366727,77.9631631 15.364234,70.552264 L23.5623002,74.4487802 C18.9724651,82.2450965 11.5075557,95.696676 21.3928161,111.477178 C24.2948522,116.108234 26.3911417,120.54226 27.8926269,124.710124 C30.0665183,120.322762 32.9141985,112.873667 32.5668045,104.456708 C32.5668045,104.456708 61.5699688,125.203562 45.8789943,157.881065 C45.8789943,157.881065 76.1294931,144.266159 64.7701415,104.875828 C64.7701415,104.875828 80.0813158,117.946311 74.8240867,139.34388 C74.8240867,139.34388 88.590654,123.798431 80.6336032,101.572128 L89.9059119,105.979365 C91.9876834,110.631161 98.6097734,129.742152 78.5055989,149.950631" id="path52" fill="#A91A2D"></path>
                        <path d="M14.0024841,116.106505 C27.8406042,138.195406 20.7939503,154.258489 20.7939503,154.258489 C20.7939503,154.258489 33.0579954,146.336696 38.3533342,130.599403 C39.1372175,135.97796 38.7837743,143.634455 35.4344469,154.258489 C34.2850221,157.903534 33.7189081,161.291921 33.6075174,164.432294 L13.3729405,164.432294 C7.70490502,164.432294 3.10930589,159.837533 3.10930589,154.167752 L3.10930589,64.7285752 L15.364234,70.552264 C11.0366727,77.9641136 0.33047539,94.2820392 14.0024841,116.106505" id="path54" fill="#15213B"></path>
                        <path d="M83.1147049,144.769103 L83.1147049,154.167752 C83.1147049,159.837533 78.5197712,164.432294 72.8517184,164.432294 L67.2978217,164.432294 C69.8035521,159.98012 73.3898334,155.091544 78.5055989,149.950631 C80.2356556,148.212797 81.7603868,146.48274 83.1147049,144.769103" id="path56" fill="#15213B"></path>
                    </g>
                </g>
            </g>
        </g>
    </g>
</svg>