<svg width="200" height="200" xmlns="http://www.w3.org/2000/svg" xmlns:xlink="http://www.w3.org/1999/xlink"><defs><path id="a" d="M.035 0H199.85v84.67H.035z"/></defs><g fill="none" fill-rule="evenodd"><g transform="translate(0 58)"><mask id="b" fill="#fff"><use xlink:href="#a"/></mask><path d="M185.81 2.79c-.099-.052-.249-.128-.459-.229-1.135-.538-4.583-2.175-10.016-2.552L25.865 0 2.597 48.85C-.348 55.023-.805 61.797 1.311 67.921c2.124 6.15 6.664 11.143 12.754 14.046l.211.101c1.142.548 5.291 2.36 10.869 2.634l111.089.003c18.32 0 26.68-.129 32.928-3.17 6.938-3.439 10.127-8.024 13.578-15.266l14.519-30.294c2.948-6.19 3.396-12.989 1.261-19.147-2.131-6.14-6.642-11.124-12.71-14.04" fill="#FFF" mask="url(#b)"/></g><path d="M129.875 138.823c22.21 0 31.55.166 37.562-2.76 5.965-2.959 8.652-6.855 11.804-13.47l14.514-30.287c5.189-10.891.97-22.973-9.694-28.052 0 0-.11-.062-.32-.162-.915-.433-3.882-1.88-8.675-2.213H28.313L6.1 108.519c-5.172 10.85-1.04 22.861 9.666 27.961l.188.091c.986.473 4.558 2.02 9.19 2.25l104.731.002" fill="#DB0032"/><path fill="#FFF" d="m70.283 132.826 28.075.006 30.837-64.744-28.07-.01-30.842 64.748"/><path fill="#001E61" d="m96.315 129.544 27.766-58.228-20.917-.01-27.768 58.287 20.92-.049"/><path d="M59.474 68.088 36.85 115.53c-.472 1.126 1.158 2.425 2.473 2.569 1.305.14 3.72-.233 4.37-1.6l23.004-48.41h27.197L69.231 120.01c-2.725 5.726-4.591 8.477-9.08 10.71-3.334 1.616-8.79 2.561-20.947 2.575l-13.772-.279c-3.672-.114-6.99-1.78-6.99-1.78-7.764-3.7-10.644-12.167-6.845-20.135l20.455-43.012h27.422" fill="#FFF"/><path d="m68.734 71.316-21.883 46.061c-1.458 3.05-5.895 4.408-9.002 3.809-3.08-.59-5.641-3.411-4.259-6.314l20.76-43.556H34.134l-19.624 41.173c-3.66 7.692.352 15.31 8.975 17.02.677.135 1.37.23 2.062.286l13.369.28c10.897.016 16.634-.717 19.798-2.25 3.392-1.684 4.882-3.49 7.604-9.2L88.8 71.314H68.734" fill="#001E61"/><path d="M125.37 133.324c-7.101 0-12.855-5.759-12.855-12.86 0-1.99.456-3.785 1.258-5.466l16.181-33.946c2.727-5.725 4.593-8.477 9.08-10.708 3.373-1.637 8.913-2.583 21.356-2.575h13.529c4.276.337 6.987 1.787 6.987 1.787 7.76 3.7 10.639 12.165 6.847 20.129l-3.829 8.007h-27.196l5.766-12.163c.472-1.125-1.155-2.424-2.471-2.566-1.307-.14-3.719.23-4.368 1.597l-14.726 30.97c-.471 1.125 1.155 2.424 2.474 2.568 1.305.14 3.719-.233 4.366-1.6l6.315-13.25h27.198l-7.974 16.761c-2.728 5.726-4.593 8.477-9.083 10.71-3.377 1.64-8.935 2.585-21.45 2.574l-17.405.031" fill="#FFF"/><path d="M125.356 130.075c-5.306 0-9.608-4.302-9.608-9.61 0-1.487.373-2.88.977-4.137l16.144-33.89c2.723-5.71 4.215-7.517 7.605-9.2 3.132-1.52 8.785-2.247 19.455-2.25l13.875.006c.688.056 1.382.147 2.06.283 8.621 1.71 12.637 9.334 8.975 17.02l-2.945 6.173H161.84l3.917-8.285c1.382-2.904-1.179-5.72-4.26-6.313-3.107-.598-7.545.76-8.998 3.812l-14.833 31.188c-1.382 2.903 1.178 5.724 4.258 6.314 3.109.599 7.55-.759 9.005-3.809l5.192-10.905h20.063l-5.791 12.152c-2.721 5.71-4.21 7.517-7.602 9.2-3.266 1.584-9.253 2.311-20.8 2.25h-16.635" fill="#001E61"/><path fill="#DB0032" d="M185.957 134.139h-1.049l-1.215 2.507h-1.222l1.215-2.507h-1.054l.39-.807h3.325l-.39.807M190.387 136.646h-1.183l1.006-2.079-1.727 2.08h-1.19l.294-2.108-1.02 2.107h-1.185l1.607-3.314h1.703l-.273 2.208 1.865-2.208h1.709l-1.606 3.314"/></g></svg>