<svg width="200" height="200" xmlns="http://www.w3.org/2000/svg"><g fill="none"><path d="M56.552 181.394s2.746.101 6.029-1.222c9.237-4.039 57.519-27.55 60.77-28.858 11.279-4.89 16.012-7.647 18.569-10.85 2.596-3.306 3.105-6.43 3.105-10.7v-18.147c0-6.527-4.074-11.84-10.15-13.29.33-.727.769-1.699.836-1.867 8.11-19.967-1.874-35.559-6.348-41.148v-8.855c0-7.381-6.004-13.386-13.385-13.386h-3.54c-7.435-13.456-3.403-25.504-3.403-25.504-10.27 2.423-12.44 16.202-12.44 16.202C93.921 10.575 105.436.652 105.436.652S76.71 3.264 73.577 33.07H56.5c-7.38 0-13.385 6.005-13.385 13.386l-.015 121.29c0 7.781 5.776 13.647 13.434 13.647" fill="#FFF"/><path fill="#A91A2D" d="M57.897 189.61l-4.103 1.93v1.645l3.865-1.817v2.44l-3.865 1.819v3.586l-3 1.411V190.48l7.103-3.341v2.47m15.054.593l-7.562 3.557v-10.144l3.027-1.424v7.576l4.535-2.133v2.568m12.25-9.768l-.935-3.383-.92 4.257 1.855-.874zm4.228 2.016l-3.224 1.517-.46-1.514-2.971 1.398-.461 1.946-3.223 1.517 3-11.555 4.409-2.074 2.93 8.765zm19.324-9.09l-2.93 1.38v-6.364l-1.786 7.202-2.945 1.385-1.8-5.6v6.447l-2.93 1.379v-10.144l4.217-1.983 1.973 5.83 1.97-7.686 4.23-1.99v10.144m15.738-7.402l-8.009 3.766v-10.143l7.897-3.715v2.47l-4.897 2.304v1.438l4.758-2.24v2.177l-4.758 2.239v1.59l5.01-2.356v2.47m15.905-10.204c0 .893-.28 1.723-.837 2.486a5.62 5.62 0 0 1-2.19 1.785l-2.219 1.043c-1.097.517-1.92.742-2.47.674-.707-.086-1.06-.636-1.06-1.65v-.823l2.888-1.359v.237c0 .354.118.532.35.533.159.01.44-.08.842-.27l.687-.323c.327-.154.551-.284.673-.388a.885.885 0 0 0 .308-.69v-.444c0-.244-.123-.343-.368-.297a4.12 4.12 0 0 0-.609.195l-2.204.805c-1.665.616-2.497.096-2.497-1.56v-.615c0-.977.312-1.868.935-2.673.455-.587 1.301-1.17 2.539-1.752l1.632-.768c2.176-1.025 3.265-.718 3.265.92v.808l-2.888 1.36v-.238c0-.269-.079-.414-.237-.433-.11-.023-.313.036-.61.174l-.624.295c-.314.148-.531.27-.651.362-.222.18-.333.389-.333.632v.403c0 .215.082.316.247.303.074-.006.312-.082.715-.225l2.009-.721c1.804-.645 2.707-.223 2.707 1.265v.95m10-23.245l-.986.465v2.918l-1.152.542v-2.919l-.993.467v-.939l3.13-1.473v.939m5.318.418l-1.115.525v-2.42l-.678 2.739-1.12.527-.686-2.13v2.452l-1.113.524v-3.859l1.603-.754.75 2.218.75-2.923 1.609-.757v3.858m-71.383 33.77l19.505-9.285v-45.18l-19.505 9.28v45.185m-22.797 11.135c10.175-4.449 15.635-7.187 17.976-10.127 2.167-2.769 2.157-5.248 2.157-9.139v-35.625l-36.038 17.082v27.723c0 6.348 4.696 11.119 10.924 11.094 0 0 2.378.077 4.98-1.008m65.008-76.358c-10.173 4.41-15.185 7.129-17.527 10.06-2.166 2.76-2.563 5.241-2.563 9.128v18.146c0 6.347 4.695 11.135 10.924 11.135 0 0 2.514.09 4.98-.992 10.175-4.41 15.186-7.129 17.527-10.061 2.167-2.76 2.564-5.24 2.564-9.126v-18.148c0-6.347-4.697-11.133-10.924-11.133 0 0-2.175-.111-4.98.991"/><path d="M117.924 61.28c5.258 21.398-10.054 34.469-10.054 34.469 11.36-39.39-18.89-53.006-18.89-53.006 15.69 32.678-13.313 53.425-13.313 53.425.347-8.417-2.5-15.866-4.674-20.254-1.502 4.168-3.598 8.602-6.5 13.233-9.885 15.78-2.42 29.232 2.17 37.029l3.682-1.75c-8.18-13.51-7.862-23.798-4.335-29.764 3.702-6.264 4.46-8.92 4.46-8.92s2.96 8.092.91 18.518c0 0 31.546-18.138 25.378-50.69 0 0 18.15 14.288 4.543 50.37 0 0 15.956-6.622 20.512-22.28 0 0 1.731 8.375-4.08 20.245l6-2.853c7.958-22.226-5.809-37.772-5.809-37.772" fill="#FCD006"/><path fill="#FFF" d="M87.237 162.095l13.692-6.519v-38.742l-13.692 6.517v38.744m-26.862 13.076c11.035-4.823 14.793-7.183 16.44-9.252 1.673-2.136 1.944-3.912 1.944-7.341v-31.025L65.14 134.08v29.29c0 .837-.379 1.386-1.047 1.623-.675.242-1.864-.022-1.864-.908v-28.801l-13.696 6.565v25.888c0 4.767 3.374 8.214 8.018 8.197 0 0 1.839.035 3.823-.764m67.324-71.029c-11.034 4.782-14.751 7.129-16.398 9.189-1.674 2.131-1.943 3.909-1.943 7.333v18.146c0 4.768 3.372 8.228 8.017 8.228 0 0 2.006.043 3.824-.753 11.035-4.781 14.751-7.127 16.399-9.188 1.67-2.132 1.941-3.907 1.941-7.331v-10.019l-13.616 6.479v8.276c0 .816-.745 1.387-1.415 1.622-.675.237-1.426-.105-1.456-.762v-19.556c.04-.671.582-1.385 1.25-1.62.675-.239 1.59.103 1.62.76v7.959l13.617-6.48v-4.807c0-4.766-3.37-8.227-8.017-8.227 0 0-1.657-.078-3.823.751"/><path fill="#15213B" d="M99.185 154.475v-34.878l-10.206 4.855v34.88l10.206-4.857m-32.299-19.299v27.882c0 1.814-1.139 3.35-2.795 3.788-1.64.432-3.607-.622-3.607-2.337v-26.455l-10.205 4.89v24.787c0 4.602 3.73 7.372 8.33 6.186a9.98 9.98 0 0 0 1.073-.344c9.9-4.329 14.161-6.716 15.761-8.725 1.263-1.612 1.572-2.841 1.572-6.263v-28.264l-10.13 4.855m70.909-19.853v-3.706c0-4.602-3.73-7.385-8.33-6.217a9.986 9.986 0 0 0-1.073.34c-9.897 4.292-14.12 6.664-15.72 8.668-1.261 1.608-1.57 2.837-1.57 6.255v18.146c0 4.6 3.73 7.384 8.331 6.217a9.855 9.855 0 0 0 1.073-.34c9.897-4.292 14.119-6.665 15.72-8.668 1.26-1.608 1.57-2.836 1.57-6.253v-7.258l-10.13 4.82v6.87c0 1.826-1.505 3.346-3.16 3.776-1.64.428-3.2-.437-3.2-2.175v-19.686c0-1.655 1.343-3.347 2.999-3.778 1.64-.427 3.338.545 3.361 2.175v5.633l10.13-4.82"/><path d="M121.606 50.674c-20.963-21.067-16.304-37.896-16.304-37.896-6.645 6.986-6.843 16.384-5.594 23.61C85.673 20.45 97.969 5.131 97.969 5.131c-5.163 1.536-27.847 14.556-19.434 41.235 3.349 10.624 3.702 18.28 2.919 23.659-5.296-15.737-17.56-23.66-17.56-23.66s7.047 16.064-6.791 38.153c-13.672 21.824-2.966 38.143 1.361 45.554l8.198-3.896c-4.59-7.797-12.054-21.248-2.169-37.029 2.902-4.63 4.998-9.065 6.5-13.233 2.174 4.388 5.021 11.837 4.674 20.254 0 0 29.003-20.747 13.312-53.425 0 0 30.25 13.615 18.891 53.006 0 0 15.312-13.071 10.054-34.469 0 0 13.767 15.546 5.81 37.772l9.272-4.407c2.082-4.652 8.704-23.763-11.4-43.971" fill="#A91A2D"/><path d="M57.103 84.518c13.838-22.089 6.791-38.152 6.791-38.152s12.264 7.922 17.56 23.659c.783-5.379.43-13.035-2.92-23.66-1.149-3.644-1.715-7.033-1.826-10.173H56.473c-5.668 0-10.264 4.595-10.264 10.265v89.439l12.255-5.824c-4.327-7.412-15.033-23.73-1.361-45.554m69.112-28.663v-9.398c0-5.67-4.595-10.265-10.263-10.265h-5.554c2.506 4.452 6.092 9.34 11.208 14.482a60.57 60.57 0 0 1 4.609 5.181" fill="#15213B"/></g></svg>