<svg width="200" height="200" xmlns="http://www.w3.org/2000/svg"><g fill-rule="nonzero" fill="none"><path d="m29.949.316 4.035 4.045c-.192-2.119.384-2.697.384-2.697L41.67 8.02s12.874 6.935 16.91 8.475c1.663.638 12.435 5.057 24.955 9.505 8.611 3.058 18.243 5.688 26.115 8.33 8.443 2.836 14.887 5.599 16.759 6.242 6.15 2.12 14.796 6.742 19.984 10.016 5.188 3.275 19.215 12.906 21.136 21.573 1.923 8.668 1.346 14.254 1.346 14.254l2.114-1.156c.577 3.852-2.307 6.356-2.307 6.356s2.552 3.552 5.195 6.929c.618.783 6.06 8.583 7.787 12.291 10.707 22.952-2.605 38.18-2.605 38.18l-4.419-6.55s-7.194 1.819-14.052 3.263c-4.61.975-9.392 1.674-10.544 1.939-4.227.963-17.87-1.348-17.87-1.348-2.114 32.937-22.097 53.161-22.097 53.161-33.82-100.545-88.39-104.975-88.39-104.975L14 94.12c9.8-18.877 27.478-24.848 27.478-24.848C24.377 66.768 20.63 54.441 20.63 54.441c4.036 1.155 8.263.963 8.263.963-8.263-5.008-8.935-13.483-8.935-13.483l8.455 1.926c-5.38-4.43-6.918-15.216-6.918-15.216l8.647 3.851c-6.149-7.512-5.764-17.912-5.764-17.912L32.255 19C26.875 8.02 29.949.316 29.949.316" fill="#231F20"/><path d="M34.752 4.554c-.384 4.622.781 7.5 3.075 11.75 3.069 5.687 13.067 15.023 13.067 15.023L30.718 18.614c-.205 2.462.456 5.622 1.627 7.855 4.407 8.427 16.05 14.296 16.05 14.296l-20.848-8.86c.769 5.008 5.284 10.4 8.166 12.135 2.883 1.733 12.49 6.934 12.49 6.934l-21.136-5.586c3.074 7.512 5.572 7.705 7.301 9.053.637.494 3.17 1.667 5.519 2.588 4.059 1.59 9.085 2.998 9.085 2.998-6.917-.578-20.849-2.505-20.849-2.505.763 2.396 2.354 4.166 4.69 5.804 4.846 3.376 10.947 4.02 9.23 3.743l16.152 2.588s-13.613 2.98-19.503 7.127c-3.033 2.13-6.257 3.81-8.996 6.062-3.866 3.19-6.473 6.65-6.473 6.65 36.51 9.054 61.682 46.421 61.682 46.421l15.756-28.507-8.07-3.852 7.878-1.541-16.14-9.246 17.1 3.082-18.062-12.327 18.447 4.237-25.172-15.987 22.866 5.586-10.952-7.897 17.293-1.541-26.517-25.81 57.838 25.04s4.996-2.12 6.917-.964c1.922 1.156 4.228 2.119 12.874 11.943 4.348 4.935 5.765 7.512 6.917 7.897a19.69 19.69 0 0 0 2.114.578c-.96-7.705 2.883-16.373-14.411-27.93-3.555-2.372-5.957-6.548-25.748-15.216-5.567-2.438-31.129-10.209-34.011-11.172-1.724-.578-15.948-5.189-26.829-9.432-7.338-2.86-12.947-5.977-12.947-5.977L34.752 4.554" fill="#E22739"/><path fill="#231F20" d="m84.905 64.842 10.568-.386-15.372-8.86z"/><path d="M126.602 75.05c2.882-2.31 11.912-6.163 15.18-5.97 3.267.192 3.65.385 5.765 3.081 2.113 2.697 6.34 6.742 8.07 8.86 1.729 2.12 3.53 3.925 5.38 5.779 2.114 2.12 4.804 2.12 4.804 2.12-.193 1.54-4.949 3.388-7.687 1.154-3.074-2.503-9.223-9.438-10.952-11.171-3.47-3.478-4.745-6.56-9.282-5.757-4.537.802-11.278 1.904-11.278 1.904" fill="#FFF"/><path d="M139.284 77.169c1.74 1.126 3.656 2.059 4.947 3.088 3.124 2.498 4.469 4.617 4.469 4.617-1.922.578-3.267 3.275-3.267 3.275 2.114 1.54 4.694 3.191 4.694 3.191-3.843.385-6.232.661-6.232.661-.192 6.934 3.382 8.282 5.958 9.245 1.536.578 5.955-.192 5.955-.192-.96 2.504-4.995 5.393-6.917 4.622-1.92-.77-2.498-3.659-4.612-5.585-2.113-1.926-7.686-6.164-7.109-13.098.577-6.934 2.114-9.824 2.114-9.824" fill="#FFF"/><path d="M155.808 101.054s-4.419.77-5.955.192c-2.576-.963-6.15-2.311-5.958-9.245 0 0 2.389-.276 6.232-.661 0 0-2.58-1.65-4.694-3.191 0 0 1.345-2.697 3.267-3.275l4.126 3.966s-2.72.636-3.36 4.236c-.71 4.013 2.025 7.625 6.118 7.892" fill="#E22739"/><path d="M112.19 95.95c3.363-1.638 17.654-7.26 26.709 4.141 8.263 10.401 9.416 9.63 12.682 8.667 3.266-.963 6.25-3.52 7.88-7.512 1.728-4.237 2.88-8.667 2.88-8.667 4.228 2.119 12.526 10.859 15.373 16.372 11.338 21.959 1.922 34.671 1.922 34.671l-3.843-5.778-29.592-15.988c-15.757-16.18-20.945-17.72-20.945-17.72l9.992-.771s-7.085-4.177-16.716-2.119c-11.722 2.505-9.801 14.832-9.801 14.832-.192-4.623 1.921-5.971 1.921-5.971 2.691 3.274 2.5 2.697 3.652 3.082 1.152.384 14.988 5.2 21.52 7.511 6.534 2.312 22.483 10.402 24.788 11.75 2.306 1.348 11.337 6.55 11.337 6.55s-14.027 3.851-22.481 4.237c-4.606.21-19.984-1.35-27.287-3.852-7.3-2.505-12.375-5.196-17.678-16.95-2.107-4.673-2.755-8.036-1.542-12.858 1.225-4.894 4.9-10.058 5.387-10.642-1.382 1.661 3.842-2.986 3.842-2.986" fill="#FFF200"/><path d="M116.801 106.928c5.286-2.022 8.263 0 8.263 0l-7.398 2.697 1.057.578 7.206-2.6c2.594.674 3.747 2.6 3.747 2.6l-5.764 1.926.576.578 6.341-1.83c2.21 1.06 3.267 3.467 3.267 3.467l-2.499.77.577.578 3.074-.867 4.997 5.105s-20.369-6.838-22.579-7.801c-2.21-.964-4.995-1.733-3.554-3.274 1.441-1.541 2.69-1.927 2.69-1.927" fill="#FFF"/><path d="M63.545 72.258c-18.728 6.067-25.352 19.069-25.352 19.069l-8.07-3.756s9.512-8.668 17.864-12.135c8.353-3.467 15.558-3.178 15.558-3.178M88.603 113.573l6.918-3.177c-4.324 11.845-9.506 17.623-9.506 17.623 1.73-7.223 2.588-14.446 2.588-14.446" fill="#231F20"/><path d="m121.45 147.667 5.182-1.734s2.395 9.896-7.2 30.048c-4.846 10.185-7.783 12.135-7.783 12.135l-4.893-12.135c11.234-9.245 14.693-28.314 14.693-28.314" fill="#FFF"/><path d="M163.303 102.21c-3.843 1.733-4.366 4.219-3.46 5.585.77 1.156 2.499 1.252 3.844-.578 1.483-2.022 1.73-3.66 1.73-3.66-1.922 2.312-3.652 3.853-4.035 2.505-.385-1.349 1.92-3.852 1.92-3.852" fill="#231F20"/></g></svg>