<?xml version="1.0" encoding="UTF-8"?>
<svg width="200px" height="200px" viewBox="0 0 200 200" version="1.1" xmlns="http://www.w3.org/2000/svg" xmlns:xlink="http://www.w3.org/1999/xlink">
    <!-- Generator: Sketch 51.3 (57544) - http://www.bohemiancoding.com/sketch -->
    <title>illinois</title>
    <desc>Created with Sketch.</desc>
    <defs></defs>
    <g id="illinois" stroke="none" stroke-width="1" fill="none" fill-rule="evenodd">
        <g id="illinois_BGL" transform="translate(25.000000, 0.000000)">
            <g id="illinois" transform="translate(0.965596, 0.000000)">
                <g id="g10" transform="translate(74.187414, 100.094392) scale(-1, 1) rotate(-180.000000) translate(-74.187414, -100.094392) translate(0.000000, 0.032348)" fill-rule="nonzero">
                    <g id="g12">
                        <path d="M107.722416,46.1673466 L130.805551,46.1673466 L130.805551,7.69638157 L7.69263514,7.69638157 L7.69263514,46.1673466 L30.778276,46.1673466 C35.024141,46.1673466 38.470992,49.6132543 38.470992,53.8623536 L38.470992,146.194352 C38.470992,150.444799 35.024141,153.889359 30.778276,153.889359 L7.69263514,153.889359 L7.69263514,192.360351 L130.805551,192.360351 L130.805551,153.889359 L107.722416,153.889359 C103.471565,153.889359 100.027409,150.444799 100.027409,146.194352 L100.027409,53.8623536 C100.027409,49.6132543 103.471565,46.1673466 107.722416,46.1673466 Z M138.497997,146.194352 L138.497997,200.055358 L0,200.055358 L0,146.194352 L30.778276,146.194352 L30.778276,53.8623536 L0,53.8623536 L0,0 L138.497997,0 L138.497997,53.8623536 L107.722416,53.8623536 L107.722416,146.194352 L138.497997,146.194352 Z" id="path14" fill="#192847"></path>
                        <path d="M107.722416,153.889359 L130.805551,153.889359 L130.805551,192.360351 L7.69263514,192.360351 L7.69263514,153.889359 L30.778276,153.889359 C35.024141,153.889359 38.470992,150.444799 38.470992,146.194352 L38.470992,53.8623536 C38.470992,49.6132543 35.024141,46.1673466 30.778276,46.1673466 L7.69263514,46.1673466 L7.69263514,7.69638157 L130.805551,7.69638157 L130.805551,46.1673466 L107.722416,46.1673466 C103.471565,46.1673466 100.027409,49.6132543 100.027409,53.8623536 L100.027409,146.194352 C100.027409,150.444799 103.471565,153.889359 107.722416,153.889359" id="path16" fill="#E73832"></path>
                        <path d="M144.442424,2.97021879 L143.455953,2.97021879 L143.455953,0.417767455 L142.996409,0.417767455 L142.996409,2.97021879 L142.009939,2.97021879 L142.009939,3.42973604 L144.442424,3.42973604 L144.442424,2.97021879 Z M148.253541,0.417767455 L147.793997,0.417767455 L147.793997,2.97021879 L147.781868,2.97021879 L146.750926,0.417767455 L146.470617,0.417767455 L145.466628,2.97021879 L145.454499,2.97021879 L145.454499,0.417767455 L144.994955,0.417767455 L144.994955,3.42973604 L145.746936,3.42973604 L146.613467,1.30452335 L147.509645,3.42973604 L148.253541,3.42973604 L148.253541,0.417767455 Z" id="path18" fill="#192847"></path>
                    </g>
                </g>
            </g>
        </g>
    </g>
</svg>