<svg width="200" height="200" fill="none" xmlns="http://www.w3.org/2000/svg"><path d="M163.356 53.881V0H25v53.881h30.708v92.238H25V200h138.47v-53.881h-30.707V53.881h30.593Zm-30.708 99.886h23.06v38.47H32.648v-38.47h23.06a7.649 7.649 0 0 0 7.648-7.648V53.881a7.649 7.649 0 0 0-7.648-7.648h-23.06V7.648h123.06v38.47h-23.06a7.649 7.649 0 0 0-7.648 7.65v92.237c-.114 4.337 3.425 7.762 7.648 7.762Z" fill="#11294B"/><path d="M132.648 46.119h23.06V7.649H32.648v38.47h23.06a7.649 7.649 0 0 1 7.648 7.648v92.238a7.649 7.649 0 0 1-7.648 7.648h-23.06v38.47h123.06v-38.47h-23.06a7.65 7.65 0 0 1-7.648-7.648V53.881c-.114-4.338 3.425-7.762 7.648-7.762ZM175.685 200H175v-3.767L173.516 200h-.456l-1.484-3.767V200h-.685v-4.452h1.141l1.256 3.082 1.256-3.082h1.141V200Zm-5.479-3.767h-1.484V200h-.685v-3.767h-1.484v-.685h3.539v.685h.114Z" fill="#F15A22"/></svg>