<svg width="200" height="200" xmlns="http://www.w3.org/2000/svg"><g fill="none"><path d="M189.311 114.118s.803-1.196 1.608-1.594c.803-.4 6.028-4.118 6.965-5.314.937-1.196 3.35-4.384 1.205-8.237-2.142-3.852-6.296-1.727-7.5-1.594-1.207.133-1.207.399-2.278.532-1.072.133-1.474.398-.669-.93.803-1.328 1.205-6.509-2.545-10.096-2.461-2.35-6.199-1.993-7.539-2.125-1.34-.133-3.178-.081-4.115.051-.939.133-1.34.613-1.205-.184.133-.797 1.071-3.056 1.473-4.65.401-1.593.669-2.79-2.143-4.117-2.813-1.33-2.144-1.33-2.144-3.19 0-1.859 0-4.117-1.876-4.781-1.874-.665-2.544-.399-4.285 0-1.742.398-2.947 1.328-4.019 1.594-1.071.265-1.071.398-1.205-.93-.135-1.329-1.29-5.496-6.697-6.642-1.876-.398-8.841.797-10.449 1.594-1.607.797-1.339 1.594-2.41 1.063-1.072-.531-.804-.665-1.072-2.657-.269-1.993-.52-7.653-2.664-8.716-.435-.216-.1-2.758 0-5.1.134-3.163 0-7.107 0-7.107h-44.62s-1.466 3.263-4.822 3.388c-7.1.265-8.037-3.321-8.037-3.321l-4.956-.133v14.347s-.536-.266-2.814-.399c-2.276-.133-2.946 1.462-3.75 2.259-.804.797-4.42 5.712-5.09 7.439-.67 1.727.268 2.39-.67 2.39-.937 0-1.072.665-1.741-.398-.67-1.062-3.416-3.985-6.296-3.055-1.432.465-1.875.93-2.545 1.86-.67.93-.536.797-1.205 2.657-.452 1.253 0 1.992-.804 1.328-.804-.664-1.101-.768-3.244-.9-2.144-.133-5.083 1.638-5.217 6.155-.134 4.516.506 7.232.506 8.826 0 1.594.32 2.657-.484 2.657-.483 0-2.371-.336-4.15-.46-1.178-.082-3.97.615-4.374.773-.74.29-1.326.492-2.192.75-1.34.399-2.41 1.462-2.01.265.403-1.195 1.207-2.258.805-4.516s-.938-2.657-1.34-4.783c-.229-1.21-.067-2.463-.033-3.612.026-.869-1.203-3.817-1.783-4.665-.903-1.317-1.952-2.685-2.604-3.413-1.072-1.195-3.35-2.656-5.09-3.586-1.742-.93-2.411-.266-3.617-.266-1.205 0-6.296 3.985-7.769 6.11C4.328 70.812.123 78.967.257 85.344c.134 6.376-.618 8.582 6.08 15.225 6.697 6.642 8.84 6.907 10.448 8.103 1.607 1.196 4.42 2.524 7.903-.133 3.483-2.657 8.305-5.845 9.644-6.509 1.34-.664 2.277-.664 2.01.531-.269 1.196-1.072 3.321-1.34 4.384-.268 1.063-.268 1.462-.937 1.462-.67 0-.939-1.063-2.144-.93-1.206.132-3.884 2.922-4.554 6.509-.67 3.587-.536 6.642 1.741 10.096 2.278 3.454 5.626 6.243 8.975 6.642 2.172.259 5.661-.869 8.282-2.454 1.419-.858 4.824-4.758 5.699-6.589 1.397-2.923 2.618-7.197 3.03-10.22.67-4.915-.401-4.25 1.206-3.852 1.607.399 1.875.798 2.947.532 1.071-.266.937-.797 1.473 1.062.536 1.86 2.411 6.51 4.42 9.034 2.01 2.524 2.412 1.727 3.885 2.922 1.473 1.196 2.143 1.063 2.143 1.063s.67 2.79 1.474 4.516c.803 1.727.937 2.392.134 3.72-.804 1.329-1.206 1.063-1.875 2.126-.67 1.062-.403 1.86-.805 2.922-.401 1.062-.535 1.33-1.339 2.126-.803.797-1.473.93-2.947 1.859-1.473.93-1.205 1.86-1.607 3.188-.402 1.329.134 3.455-.268 4.517-.402 1.063-1.072 1.728-1.473 2.657-.402.93-.536 1.195-.536 1.195-1.875 1.462-3.483 2.525-2.947 3.588.536 1.062 0 .93.536 1.992.536 1.062 1.34.664 1.875 1.328.536.664.67.133 1.473 1.063.804.93.938 1.329 1.742.93.804-.398 1.607-1.063 2.545-1.727.937-.664 1.34-1.594 2.41-.532 1.072 1.063 1.742 1.728 2.948 1.33 1.205-.4 1.34-.798 2.277-1.596.938-.796.938-1.194 2.277-.929 1.34.266 1.34-.398 1.875.93.536 1.328.536 1.328 1.876 1.993 1.34.663 4.286.93 5.357-.399 1.072-1.329.403-1.993 1.474-2.391 1.072-.398 2.01-.531 2.545.398.536.93 1.206 1.594 2.277 1.594 1.072 0 .938.266 1.876.532.937.266 2.812.133 2.946-.665.135-.797.804-1.46 1.474-1.992.67-.531.803-.265.937-1.195.135-.93-.401-1.462.67-1.727 1.072-.267 1.205-1.196 2.277-.532 1.072.665 1.072.265 1.875 1.329.805 1.062.402 1.86 1.608 1.727s1.474-.266 2.411-.399c.938-.133 1.607-1.992 2.545-2.922.938-.93 1.072-.531 1.875-1.462.804-.93.939-.796.804-1.727-.134-.93 0-1.726 0-1.726s-.268-.133 1.473-.665c1.742-.531 1.608-.93 2.144-1.727.535-.796.267-.531 1.072-1.461.803-.93 1.34-1.461 1.607-2.259.267-.797-.268-1.328.267-1.594.536-.265 1.474-.664 2.144-1.46.67-.798.536-.398.803-1.728.268-1.328-.133-2.258.67-2.39.804-.133.536 0 1.876.132 1.339.133 3.214-1.727 4.018-1.86.804-.132-.134.133 1.34-.132 1.472-.266 2.276-.133 2.812-1.063.536-.93.134-.93 1.206-1.196 1.072-.265 1.206-1.328 1.607-2.524.403-1.196.67-1.062.536-1.993-.133-.93-.536-.664-1.071-1.594-.536-.93-1.072-.664-.67-1.593.401-.93.67-1.197.804-2.259.133-1.063.268-1.196 0-2.258-.268-1.063-1.243-2.281-1.243-2.281V97.911l5.127-1.86v.797s-.536.797-.67 1.993c-.134 1.195.536 4.384 1.607 5.58 1.072 1.195 2.144 1.195 3.081 1.593-.502-.216.778.058 2.01.133.895.058 1.071.266 1.071 1.328 0 1.063.536 3.72 3.081 4.783 2.545 1.062 1.474.93 3.08 1.196 1.323.215 1.34.398 1.474 1.328.135.93.67 2.258 1.206 3.985.536 1.727 3.214 3.986 5.76 4.915 2.545.93 8.305 1.727 10.85 1.727 2.544 0 5.76.133 5.76.133.669 0 1.472-1.196 1.472-1.196l9.377-9.166c.402-.797-.134-1.062-.134-1.062" fill="#1A67BB"/><path d="M34.6 98.973c1.876-.398 2.813-1.195 3.483-.265.67.93.937 4.383.268 6.642-.67 2.258-1.875 4.517-2.411 5.313-.536.798-.67 1.196-1.34.4-.67-.798-.803-1.33-2.143-1.196-1.34.132-2.545 3.055-2.679 4.25-.134 1.196-.578 4.484.67 8.104 1.875 2.524 4.822 6.377 8.84 6.243 8.314-.273 14.065-11.507 14.065-22.98 0-.798-.544-2.334-.134-1.994.804.665 2.01 1.594 3.215 1.86 1.206.266 2.143.531 2.946.266.804-.266.403-.133 1.207-1.063.803-.93 1.205-.797 1.205 0s2.411 7.97 2.813 8.9c.402.93 1.741 2.79 2.813 3.587 1.071.797 1.205 1.594 2.678 2.258 1.474.665 2.412.532 3.483-.133 1.072-.664 1.34-.132 1.072-1.726-.268-1.595-2.68-18.332-2.947-19.13-.268-.797-.134-1.063-.134-1.063s.938.665 1.607.93c.67.267 4.02-.664 5.09-2.125 1.072-1.461 2.01-1.992 2.278-2.923.268-.93.134-1.593.803-1.46.67.132 1.072.93 2.01 1.195.937.265 2.947-.399 4.018-1.993 1.072-1.594.804-1.195 1.34-2.391.535-1.196 1.07-.93 1.07-.133s-.266 2.391.537 3.19c.804.796.67 1.327 1.741 1.725 1.071.399 3.35 1.063 5.224-1.594.888-1.261 1.49-1.56 1.809-2.034.351-.531.385-1.195.737-1.685.669-.93.552-.116 1.339.398.803.532 1.34.797 2.545 0 1.205-.796 1.875-1.063 2.277-1.594.401-.531.67-.664.67-.664s.268 2.39 2.009 3.587c1.741 1.195 3.885.265 3.885.265s3.08-2.258 3.482-2.922c.402-.664 1.072-1.594 1.206-1.063.134.532-.134 2.391 0 3.454.134 1.063.535 2.258 1.741 2.923 1.206.664 3.483.265 4.688-.399 1.206-.664 1.875-.93 2.813-1.727.938-.797 1.741-1.86 1.741-1.86 0 2.391.135 4.915 1.742 6.244 1.608 1.328 2.411 1.86 6.43.797 4.018-1.063 5.224-3.188 5.224-3.188l3.75.133s-3.75 3.985-3.08 7.97c.669 3.986 1.967 3.221 3.75 3.853 1.875.664 4.42-.532 4.42-.532-1.741 1.329-.88 4.01.134 5.712 1.742 2.923 7.903 2.79 7.903 2.79-1.34 2.922-1.23 5.878 2.41 8.37 5.627 3.851 17.816 2.39 17.816 2.39l6.564-7.174-2.947.133c4.287-1.726 6.698-4.25 7.904-4.914 1.204-.665 4.42-3.189 5.758-4.916 1.34-1.726 2.679-5.58-.938-6.642-3.616-1.063-5.09.797-6.294 1.196-1.206.398-8.708.664-8.708.664 3.617-2.39 7.234-2.524 6.832-8.236-.267-3.77-3.215-5.713-6.161-6.111-2.947-.398-7.235.133-8.84.665-1.608.53-3.752.265-3.752.265s1.608-2.125 2.277-3.454c.671-1.328.134-1.594 1.071-2.656.939-1.063 1.876-1.86 1.206-2.79-.669-.93-3.616-2.259-4.554-2.657-.937-.398-1.741-.398-1.205-1.329.536-.93 1.071-2.258.804-3.453-.268-1.196-.268-1.329-1.474-1.329-1.205 0-1.875.266-3.349.797-1.473.532-4.019 1.196-4.822 1.595-.804.398-1.607.663-1.607.663l-.402-.796s2.143-3.189.402-5.712c-1.741-2.525-5.224-3.454-8.707-2.26-3.483 1.197-6.831 1.197-10.716 4.518-3.884 3.32-4.554 3.985-5.09 4.915-.536.93-.938 1.993-1.473 2.125-.536.133-.536-.266-.536-.266 2.01-2.789 4.286-6.509 5.09-7.306.803-.797 1.206-1.328 1.206-2.125 0-.797.134-4.118-.134-5.314.05.232-.545-5.77-2.814-4.65-1.339.665-3.08 1.993-3.884 2.923-.804.93-1.34 1.461-1.875 1.86-.536.399-.536.664-.67-.399-.134-1.063.93-2.951.127-4.413-.804-1.461-.372-1.542-2.27-1.963-1.314-.291-2.144.266-2.813.796-.67.532-3.08 1.994-4.019 2.923a21.573 21.573 0 0 1-1.607 1.461c-.402-.53-.536-.929-.536-.929s0-1.86-2.143-2.657c-2.143-.798-2.545-.798-3.617 0-1.071.797-4.821 5.048-6.161 6.908-1.34 1.86-3.215 4.782-3.751 5.845-.536 1.062-1.071 1.727-1.473 2.523-.402.798-.938 1.86-1.072 1.063-.133-.796 1.65-4.524 1.474-7.97-.134-2.657-1.607-3.055-1.607-3.055 1.339-3.587-1.876-5.314-1.876-5.314-1.071-1.727-2.143-2.259-4.42-1.727-2.278.531-1.34.266-2.143 1.063-.804.797-2.144 1.727-2.814 2.126-.67.398-4.018 3.719-5.09 5.18-1.07 1.462-2.143 2.923-2.544 3.985-.402 1.063-.268 2.525-.537 3.321-.267.797-.803 1.063-.937.133-.134-.93-.134-8.501-3.08-11.158-2.228-2.01-4.195-.798-4.823-.532-2.545 1.063-5.492 7.307-5.492 7.307-1.607 2.39-1.473 5.845-1.607 6.641-.134.798.268 1.993-.402 1.728-.67-.266-.67-.532-1.34-2.126-.67-1.594-3.884-6.243-7.099-5.712-1.95.324-1.875 3.055-1.875 4.118 0 1.063.268 2.524 0 3.055-.268.532-.134.532-.938 0-.803-.531-2.947-2.524-5.492-1.992-2.545.53-2.94 2.65-3.073 3.712-.134 1.063-.276 6.383.662 9.04.938 2.657 1.072 3.853 1.473 4.783.403.93 1.072 2.258 1.072 2.258s-.67-.266-2.545-1.461c-1.875-1.196-5.76-3.056-9.377-1.461-3.616 1.594-7.098 2.922-9.778 4.516-2.679 1.594-4.394 3.088-5.491-.531-.403-1.329.268-3.985.401-4.916.134-.93.134-2.523.938-1.86.804.665.536 1.728 2.277 2.392 1.742.664 4.019-.797 4.153-2.923.133-2.125.402-1.594-.134-3.055s-.67-2.79-1.072-5.58c-.221-1.537-1.057-4.602-2.533-6.956-1.202-1.916-3.08-3.3-3.359-3.508-.62-.465-4.154-1.358-5.494-.694-.92.457-3.867 2.05-6.488 6.07-1.205 1.851-2.871 5.636-3.29 8.144-1.34 7.97-1.741 12.753 2.545 17.668 4.286 4.915 5.626 5.579 7.635 7.174 2.01 1.594 3.349 2.39 4.42 2.79 1.072.398 3.483 1.062 5.492-.266 2.01-1.329 4.622-3.579 6.296-4.65 2.277-1.461 4.956-3.056 4.956-3.056" fill="#FFF"/><path d="M15.312 68.686c-2.412-.664-5.76 2.258-7.77 6.376-2.009 4.118-4.152 13.55 0 19.66 4.153 6.112 7.234 6.908 9.243 8.635 2.01 1.727 5.76.665 6.697-.53.394-.5 2.152-1.553 4.136-2.816 2.771-1.76 6.12-3.785 7.92-4.093 3.08-.531 4.822-.664 5.492 4.384.67 5.048-1.876 10.893-3.617 13.152-1.741 2.257-3.616 4.915-4.152 3.32-.536-1.594.702-1.302.133-1.992-.96-1.166-1.979-.325-2.113.472-.134.797-.134 3.454.67 5.048.804 1.594 3.06 3.23 4.122 4.044 1.742 1.329 5.492 2.657 9.243-3.985 3.75-6.642 6.832-14.745 2.411-21.254-4.42-6.51-12.206-9.955-18.619-6.111-5.76 3.454-10.724 7.14-12.993 4.25-1.875-2.39-2.009-3.985-1.741-7.571.268-3.587 2.143-8.502 2.813-9.83.67-1.33 1.205-1.993 1.74-.798.537 1.196.671 3.189 1.877 4.65 1.205 1.461 2.277 1.063 2.143.265-.226-1.336-1.34-4.915-1.206-6.641.134-1.728-.402-4.384-3.349-6.51-2.151-1.552-3.08-2.125-3.08-2.125m164.354 40.251c-.728.722-2.838 2.15-5.055 2.88-1.876.623-3.834.623-5.125.44-2.812-.398-1.607-.53-1.607-.53 3.216-2.525 2.132-5.569 2.132-5.569 3.617.665 13.406-.542 13.406-.542-.535 2.125-2.41 1.992-3.75 3.32zm-38.978-27.232c-.804 1.86-1.072 2.922-1.607 3.985-.537 1.062-2.546 1.593-3.617 1.328-1.072-.266-3.617-.664 0-5.845 3.617-5.18 8.439-6.11 10.447-6.775 0 0-.133.797-1.205 1.594-1.071.797-3.214 3.853-4.018 5.713zm-51.972-7.971c-1.206 3.188-3.483 8.369-4.957 9.432-1.473 1.062-1.607-.399-2.009-1.461-.402-1.063-.134-4.384.268-5.713.402-1.329 1.741-3.852 2.947-5.048 1.205-1.196 6.43-5.845 6.43-5.845s-1.474 5.447-2.68 8.635zm86.53 19.527s.805 0 2.277.399c1.474.399 1.608.399-.134 1.461-1.741 1.063-8.17 3.056-11.385 1.329 0 0 2.143-2.391 9.242-3.189zm15.807 9.432s-1.886-1.084-3.897.642c0 0-3.873.82-5.211.82-1.34 0-14.2.133-15.27 0-1.072-.133-1.207 0-2.01.664-.804.664 0 1.328-2.278 1.062-1.599-.19-2.41 0-3.348-2.125-.938-2.126 2.947-4.65 2.947-4.65s.937-.398 2.009 0c1.072.399 4.956 1.196 6.965.93 1.198-.157 8.706-.796 11.386-4.65 2.184-3.154-.938-5.18-4.823-5.844-3.883-.664-8.84 1.195-11.251 2.391-2.411 1.195-7.635 3.188-10.716 3.852-3.08.665-3.214.266-3.08-1.461.134-1.727 4.553-4.915 6.027-5.446 1.474-.532 4.286-1.196 5.76-2.391 1.473-1.196 2.143-2.392 2.68-3.454.535-1.063.669-1.86 1.07-2.79.402-.93-.803-1.196-1.875-1.46-1.071-.267-2.41-1.064-3.482-1.33-1.072-.265-1.206-.664-.135-1.328 1.072-.664.804-.798 1.34-1.328.536-.532.134-1.329-1.34-1.196-1.472.133-6.43 2.259-7.233 3.055-.804.797-3.215 2.524-3.75 4.782 0 0 .133.4.133.93 0 .532-.937.798-2.008 1.329-1.073.531-3.484 1.727-4.153 1.86-.67.133-.804-.266-.134-1.063.67-.797 2.01-2.657 3.617-4.65 1.607-1.992 3.214-5.047 2.277-7.305 0 0 .803-.532 1.875-1.993s.377-4.002-4.019-3.454c-7.5.93-9.376 2.922-11.92 4.384-2.546 1.461-4.982 5.354-6.028 6.243-5.309 4.5-5.049 2.981-5.09 2.923-.537-.797-.804-1.462.133-3.986.938-2.524 4.153-6.243 4.822-7.173.67-.93 1.474-2.391 1.742-3.454.268-1.063-.135-3.32-.135-4.25 0-.93 0-2.658-.669-2.127-.67.532-1.34 1.329-2.679 2.391-1.34 1.064-7.903 8.37-8.44 8.901-.535.532-2.811 3.454-3.08 2.79-.268-.664.536-1.328 1.072-2.258.536-.93 2.277-3.853 3.214-5.58.938-1.727 1.474-3.985 1.877-4.915.401-.93.67-3.055-1.207-3.321-1.875-.265-3.616 1.727-6.295 4.383-2.678 2.657-8.573 10.894-9.778 12.222-1.206 1.328-1.875.532-1.473-.93.401-1.461 3.348-5.446 5.223-7.173 1.875-1.727 2.68-4.915 2.947-6.111.268-1.195-.938-1.594-3.215-1.063-2.277.531-3.75 4.384-5.357 6.51-1.013 1.336-3.14 4.89-4.747 8.203-.946 1.967-1.373 4.11-2.219 4.948-2.277 2.258-4.018 1.063-4.152-.265-.134-1.33.268-5.845 1.34-9.167 1.07-3.321.669-5.446-1.206-6.642 0 0 .134-.265.67-1.196.535-.93.669-.797-.134-2.79-.804-1.992-2.144-1.992-4.287-1.328-2.143.665-7.501 7.041-8.974 10.096-1.474 3.056-1.742 2.524-2.947 11.425-1.206 8.9-4.822 8.9-6.698 8.501-2.026-.431-2.972-2.856-3.273-4.234-.218-1.02.603-6.168 1.398-8.917.268-.93.535-1.062 1.205.133.67 1.196.67.93 1.474 1.328.804.4.937 0 1.205-2.125s.134-5.845.134-7.173c0-1.329-1.205-4.384-3.75-4.65s-4.153 6.51-5.76 9.564c-1.607 3.056 1.072 24.576 1.34 26.037.267 1.462-.938 1.063-1.34-.132-.402-1.196-1.071-5.314-1.607-7.572-.536-2.259-4.287-14.879-5.225-16.34-.937-1.46-2.41-3.188-3.214-2.79-.804.399-.402 1.196 0 3.72s.67 6.51.938 8.768c.267 2.258.133 10.76-.536 12.089-.67 1.328-1.206-.266-2.01-1.86-.803-1.594-.535-1.993-.803-3.72s-1.608-10.494-2.143-12.088c-.536-1.595-1.876-2.658-3.885-2.923 0 0-1.608-.398-.938 4.782.528 4.085 1.206 7.44 2.277 11.425 1.072 3.985 4.689 7.572 6.698 9.564 2.01 1.993 4.956 1.461 4.956 1.461l.134-11.424s.402-.664 1.205 1.196c.804 1.86 2.814 9.432 3.885 13.682.485 1.935 1.692 5.58 2.813 7.498 1.348 2.291 2.629 2.748 3.215 3.396 1.072 1.195.937.53 1.205-1.063.268-1.595-2.545-13.019-2.679-14.613-.133-1.594-1.473-10.494-1.205-11.291.268-.797.67 0 1.072.93.401.93.937 1.594 1.607 2.523.67.93 2.01 2.259 4.152 2.392 2.143.133 3.349-3.056 4.287-4.384.937-1.329 1.205-4.782 1.741-5.712.536-.93.67.265 1.206 1.328.535 1.063.803 1.328 1.606 2.39.805 1.064.938.798 1.876-.132s1.205-1.992 1.741-3.454c.536-1.461 3.082-7.173 3.885-8.236.804-1.063.536-.398.67 1.329.134 1.727-.134 3.188-.134 4.384 0 1.195.536 4.516.938 5.977.401 1.462.937 1.86 3.482.133s4.152-8.236 4.822-9.83c.67-1.595.67-.4.938.664.268 1.063.134 2.258.134 3.72 0 1.461.401 2.125 1.607 1.992s1.473-1.46 2.277-2.656c.803-1.196 3.215-5.181 4.286-6.377 1.072-1.195 5.359-7.173 6.163-7.97.803-.798.803 0 .803 1.063 0 1.062-.803 1.593-1.741 3.055-.938 1.461-3.215 6.642-4.153 8.502-.937 1.86-1.205 4.383 0 5.845 1.205 1.46 3.081-1.063 4.153-2.392a2147.05 2147.05 0 0 1 9.912-12.088s0 1.063-.67 1.993c-.67.93-1.206 2.258-1.875 3.586-.67 1.329-2.009 4.517-2.143 5.978-.135 1.461-1.474 6.908 2.41 5.845 3.886-1.063 6.028-5.712 9.511-9.166 0 0 .134 0 .402.93s-1.072 3.188-1.473 5.048c-.402 1.86-.402 2.524.268 4.782s1.205 1.461 3.214 1.594c2.01.133 5.224-2.258 5.76-2.922.536-.664.268-.266 1.34-.266 1.071 0 2.812-.398 4.687-.93 1.876-.531 5.225-3.188 6.296-3.985 1.072-.797 1.072-.93 2.144-.93 1.071 0 1.205.133 2.411.664 1.205.532 2.009.266 1.473 1.196-.536.93-2.143.93-4.956 2.657-2.813 1.727-7.1 6.376-7.635 8.236-.536 1.86-1.34 3.055.804 4.384 2.142 1.328 7.501-1.86 8.707-2.258 1.204-.4 1.607-.798 1.339.265-.268 1.063-1.34 1.063-3.08 3.853-1.743 2.789 0 5.047 1.339 6.243 1.339 1.195 6.028.664 6.831.398.803-.265.67 0 .67 1.063s-2.353 1.934-1.072 5.978c1.474 4.65 11.53 4.539 16.487 4.273l1.73-2.28s-2.679 0-5.625-.266c-2.948-.266-6.296-.797-6.296-3.454 0 0 2.813.399 5.893.266 3.081-.133 7.77-1.727 9.912-2.923 2.144-1.196 8.171-6.243 9.108-7.04.939-.797.537-2.524-1.338-2.126z" fill="#1A67BB"/><path fill="#FFF" d="M90.457 99.77l-4.019 9.565-8.84.532 6.697 6.11-2.947 9.565 8.439-5.58 7.77 5.846-2.01-10.362 7.635-5.58-9.778-.53-2.947-9.565"/></g></svg>