<?xml version="1.0" encoding="UTF-8"?>
<svg width="200px" height="200px" viewBox="0 0 200 200" version="1.1" xmlns="http://www.w3.org/2000/svg" xmlns:xlink="http://www.w3.org/1999/xlink">
    <!-- Generator: Sketch 51.3 (57544) - http://www.bohemiancoding.com/sketch -->
    <title>indiana-st</title>
    <desc>Created with Sketch.</desc>
    <defs></defs>
    <g id="indiana-st" stroke="none" stroke-width="1" fill="none" fill-rule="evenodd">
        <g id="indiana-st_BGL" transform="translate(0.000000, 40.796020)">
            <g id="indiana-st">
                <g id="g10" transform="translate(100.042352, 59.742722) scale(-1, 1) rotate(-180.000000) translate(-100.042352, -59.742722) translate(0.084710, 0.011764)" fill-rule="nonzero">
                    <g id="g12" transform="translate(0.152478, 0.151218)">
                        <path d="M189.074116,46.000902 C189.074116,46.000902 189.877166,47.1963612 190.68191,47.5947356 C191.484959,47.9936141 196.709864,51.7128953 197.646755,52.9083545 C198.583646,54.1044858 200.996183,57.2921531 198.851329,61.1450099 C196.709864,64.9973626 192.555692,62.872083 191.351118,62.7390115 C190.144849,62.6062761 190.144849,62.3406371 189.074116,62.2073976 C188.001689,62.0748302 187.600165,61.8090232 188.404908,63.1372179 C189.207958,64.4659167 189.609483,69.6462961 185.860224,73.2335139 C183.398555,75.5829315 179.661156,75.226226 178.321046,75.3587934 C176.980936,75.4913609 175.142732,75.4399469 174.205841,75.3073794 C173.267255,75.1743079 172.865731,74.6947801 173.001266,75.4913609 C173.133414,76.2886137 174.071999,78.5471328 174.473524,80.1414705 C174.875049,81.7348001 175.142732,82.9309314 172.330364,84.2589581 C169.517997,85.5876568 170.187205,85.5876568 170.187205,87.4478015 C170.187205,89.3074421 170.187205,91.5652891 168.31122,92.2299745 C166.437099,92.8939878 165.767044,92.6283489 164.025748,92.2299745 C162.284282,91.8316001 161.078691,90.9012757 160.006942,90.6354688 C158.935701,90.3703339 158.935701,90.2372624 158.801521,91.5652891 C158.667171,92.8939878 157.512575,97.0618813 152.104528,98.2076067 C150.229221,98.6059811 143.263698,97.4103539 141.656074,96.6137731 C140.048451,95.8165202 140.316981,95.0194354 139.245062,95.5508813 C138.173313,96.0816551 138.441674,96.2153987 138.173313,98.2076067 C137.905291,100.200319 137.653872,105.86073 135.510204,106.92379 C135.075304,107.139191 135.409908,109.681831 135.510204,112.023016 C135.644046,115.186488 135.510204,119.130244 135.510204,119.130244 L90.8894513,119.130244 C90.8894513,119.130244 89.4241401,115.867304 86.0675963,115.742801 C78.9682318,115.477162 78.030663,119.063708 78.030663,119.063708 L73.0744581,119.196779 L73.0744581,104.849252 C73.0744581,104.849252 72.5385835,105.115059 70.2612435,105.248299 C67.9845811,105.381202 67.3143566,103.786865 66.5109683,102.98978 C65.7072411,102.192527 62.0908074,97.2777864 61.420583,95.5508813 C60.7510362,93.8238081 61.688605,93.1597948 60.7510362,93.1597948 C59.8134674,93.1597948 59.6792869,92.4957814 59.0095707,93.5580012 C58.340024,94.620893 55.5938995,97.5435934 52.7141029,96.6137731 C51.2821673,96.1483589 50.8386264,95.6839528 50.1689102,94.7541325 C49.4993634,93.8238081 49.6330356,93.9568796 48.9634888,92.096903 C48.5116464,90.843309 48.9634888,90.1040229 48.1595922,90.7687083 C47.3556956,91.4327216 47.0583639,91.5362217 44.9153737,91.6692932 C42.7722141,91.8013566 39.8324429,90.0304303 39.6987707,85.5135602 C39.5645903,80.9971941 40.204658,78.2813258 40.204658,76.6874922 C40.204658,75.0929865 40.5250308,74.0300947 39.7211341,74.0300947 C39.2376102,74.0300947 37.3494273,74.3668059 35.5715366,74.4901322 C34.3927141,74.5724618 31.6013546,73.8758527 31.1971191,73.7172422 C30.456416,73.4272404 29.8709014,73.2254489 29.0048277,72.9672029 C27.6657342,72.5688285 26.5939849,71.5059367 26.9955097,72.702068 C27.3977121,73.8975272 28.2016088,74.960419 27.7994063,77.2189381 C27.3977121,79.4769531 26.8618375,79.8751595 26.4601433,82.0011111 C26.2310879,83.211188 26.3930531,84.46411 26.4269371,85.6136999 C26.4525195,86.482361 25.2235487,89.4302644 24.6434555,90.2782592 C23.7409566,91.5957006 22.6914014,92.9632119 22.0398131,93.6912407 C20.9680639,94.8861959 18.6907238,96.3474621 16.9499191,97.2777864 C15.2079285,98.2076067 14.5383986,97.5435934 13.3329433,97.5435934 C12.1274033,97.5435934 7.03693333,93.5580012 5.56404899,91.4327216 C4.09062252,89.3074421 -0.11415976,81.1524442 0.020052418,74.7759335 C0.153735193,68.3994228 -0.597734843,66.1929898 6.09990667,59.5506722 C12.7970857,52.9083545 14.9405672,52.6432196 16.5476828,51.4470883 C18.1548492,50.2516291 20.9680639,48.9234344 24.4508253,51.5803278 C27.9335868,54.2370533 32.7556112,57.4253926 34.095213,58.089406 C35.434476,58.7534193 36.3720448,58.7534193 36.1041922,57.5584641 C35.8361702,56.3623328 35.0329513,54.2370533 34.7649292,53.1741615 C34.4970766,52.1117737 34.4970766,51.7128953 33.8273604,51.7128953 C33.1573054,51.7128953 32.8892834,52.7757871 31.683862,52.6432196 C30.4782712,52.5101481 27.7994063,49.7206872 27.1298596,46.1334694 C26.4601433,42.5469237 26.5939849,39.4918238 28.8711556,36.0378455 C31.1484956,32.5836992 34.4970766,29.7944063 37.8454883,29.3955278 C40.0179575,29.1369457 43.5068181,30.264189 46.1279107,31.8492856 C47.546801,32.7076976 50.9521377,36.6072638 51.8268517,38.4380051 C53.2238869,41.3617136 54.4452337,45.6356274 54.8572625,48.6576274 C55.5268093,53.5730399 54.4555683,52.9083545 56.0626839,52.5101481 C57.6697995,52.1117737 57.9378215,51.7128953 59.0095707,51.9785342 C60.0808117,52.2443412 59.9471395,52.7757871 60.4830142,50.9161465 C61.0188888,49.0560018 62.8940264,44.4070683 64.9033444,41.8829103 C66.9128319,39.3587523 67.3143566,40.1558372 68.7878001,38.9603779 C70.2612435,37.7647506 70.9307903,37.8973181 70.9307903,37.8973181 C70.9307903,37.8973181 71.6010147,35.1080252 72.4044031,33.3811201 C73.2081303,31.6540469 73.3423107,30.9893615 72.5385835,29.6613348 C71.7346869,28.332636 71.3324845,28.598443 70.6634459,27.5358872 C69.9933909,26.4734995 70.2612435,25.6757426 69.859041,24.6133548 C69.4575163,23.5511351 69.3236747,23.28432 68.519778,22.4875712 C67.7165591,21.6908224 67.046504,21.5577509 65.5730606,20.6284347 C64.0996172,19.6981103 64.3674698,18.76829 63.9657756,17.4402634 C63.5635732,16.1115646 64.0996172,13.9857978 63.697923,12.9233933 C63.2962288,11.8608711 62.6261738,11.1956816 62.2244796,10.2665166 C61.8227854,9.33669629 61.688605,9.07102375 61.688605,9.07102375 C59.8134674,7.60977435 58.2056741,6.54691615 58.7417181,5.48380593 C59.2775928,4.42146859 58.7417181,4.55398563 59.2775928,3.49159788 C59.8134674,2.42926055 60.6171946,2.82758454 61.1525609,2.16311755 C61.688605,1.49905044 61.8227854,2.03034848 62.6261738,1.10020055 C63.429901,0.170710572 63.5635732,-0.228138652 64.3674698,0.170710572 C65.1713664,0.568443809 65.9750936,1.23330229 66.9128319,1.89731059 C67.8502313,2.56130713 68.2519254,3.49159788 69.3236747,2.42926055 C70.3949156,1.36634018 71.0651401,0.701678288 72.2705615,1.10020055 C73.4761523,1.49905044 73.6103328,1.89731059 74.5479016,2.6950003 C75.4854704,3.49159788 75.4854704,3.88931701 76.8245639,3.62416532 C78.1643352,3.35855999 78.1643352,4.02255653 78.7002098,2.6950003 C79.2360844,1.36634018 79.2360844,1.36634018 80.5753474,0.701678288 C81.9151187,0.0381325455 84.8620055,-0.228138652 85.9332465,1.10020055 C87.0049957,2.42926055 86.3354489,3.0933915 87.4066899,3.49159788 C88.4784391,3.88931701 89.4160079,4.02255653 89.9518825,3.0933915 C90.4877572,2.16311755 91.1574734,1.49905044 92.2292226,1.49905044 C93.3004636,1.49905044 93.1667914,1.23330229 94.1043602,0.967950662 C95.0417596,0.701678288 96.9168972,0.834716184 97.051247,1.63215218 C97.1854275,2.42926055 97.854466,3.0933915 98.524521,3.62416532 C99.1942372,4.15566163 99.3279094,3.88931701 99.4622593,4.81967497 C99.5964397,5.74994893 99.0603957,6.28110919 100.132314,6.54691615 C101.203386,6.81319357 101.337227,7.74287945 102.409146,7.07834525 C103.480895,6.41362623 103.480895,6.81319357 104.284114,5.74994893 C105.088519,4.68709073 104.685808,3.88931701 105.891738,4.02255653 C107.097329,4.15566163 107.365351,4.28890115 108.30292,4.42146859 C109.240319,4.55398563 109.909866,6.41362623 110.847943,7.34396739 C111.785512,8.27430855 111.919862,7.87492603 112.72325,8.80521679 C113.526469,9.73555795 113.661327,9.60179757 113.526469,10.5321387 C113.393305,11.461959 113.526469,12.2587414 113.526469,12.2587414 C113.526469,12.2587414 113.259125,12.3919642 114.999912,12.9233933 C116.741717,13.4548224 116.607536,13.8530119 117.143411,14.6503152 C117.679285,15.4469128 117.411263,15.1817443 118.21533,16.1115646 C119.018548,17.0408808 119.555101,17.5728308 119.822445,18.3700837 C120.090298,19.1673365 119.555101,19.6981103 120.090298,19.9644214 C120.625664,20.2295562 121.563741,20.6284347 122.233966,21.4245114 C122.903512,22.2222683 122.76984,21.8228858 123.037185,23.1522567 C123.304698,24.4802833 122.903512,25.4101036 123.707409,25.5431751 C124.510797,25.6757426 124.243284,25.5431751 125.582547,25.4101036 C126.92164,25.2775362 128.797286,27.1370088 129.601183,27.2695762 C130.404402,27.4028157 129.467002,27.1370088 130.940446,27.4028157 C132.413211,27.6681186 133.216939,27.5358872 133.752813,28.4658756 C134.289027,29.3955278 133.886824,29.3955278 134.958574,29.6613348 C136.030323,29.9269737 136.164503,30.9893615 136.565689,32.1853248 C136.9684,33.3811201 137.236252,33.2478805 137.101564,34.1782049 C136.9684,35.1080252 136.565689,34.8422182 136.030323,35.7720385 C135.494956,36.7018588 134.958574,36.4360519 135.360776,37.3658722 C135.762301,38.2961965 136.030323,38.5620035 136.164503,39.6243913 C136.298175,40.6872831 136.432525,40.8200185 136.164503,41.8829103 C135.896651,42.9458021 134.921979,44.1634399 134.921979,44.1634399 L134.921979,62.2073976 L140.048451,64.0675423 L140.048451,63.2704574 C140.048451,63.2704574 139.512576,62.4732046 139.378734,61.2770732 C139.245062,60.0821181 139.915287,56.8937787 140.986019,55.6983195 C142.058277,54.5026922 143.130026,54.5026922 144.066917,54.1044858 C143.564588,54.320391 144.845231,54.046015 146.076405,53.9712463 C146.971957,53.9134476 147.148154,53.7056074 147.148154,52.6432196 C147.148154,51.5803278 147.684028,48.9234344 150.229221,47.8605426 C152.773397,46.7981548 151.702834,46.9307223 153.309441,46.6649153 C154.632271,46.4490101 154.649551,46.2667089 154.782715,45.3368886 C154.917573,44.4070683 155.45294,43.0783696 155.988476,41.3514644 C156.524858,39.6243913 159.203046,37.3658722 161.748408,36.4360519 C164.2936,35.5063996 170.053363,34.7091467 172.599742,34.7091467 C175.142732,34.7091467 178.358318,34.5765793 178.358318,34.5765793 C179.027526,34.5765793 179.830576,35.7720385 179.830576,35.7720385 L189.207958,44.9380102 C189.609483,45.735263 189.074116,46.000902 189.074116,46.000902" id="path14" fill="#1A67BB"></path>
                        <path d="M34.3627268,61.1450099 C36.2383727,61.5433843 37.1759415,62.3406371 37.8454883,61.4108168 C38.5157127,60.4804925 38.7830571,57.0270182 38.1135103,54.7684992 C37.4439635,52.5101481 36.2383727,50.2516291 35.702498,49.4550483 C35.1666234,48.6576274 35.0329513,48.259421 34.3627268,49.0560018 C33.69318,49.8532547 33.5595078,50.3847006 32.2197366,50.2516291 C30.8804736,50.1190616 29.6745439,47.1963612 29.5408718,46.000902 C29.4070302,44.8054427 28.9628116,41.5174677 30.2109268,37.8973181 C32.0860644,35.3731601 35.0329513,31.5208074 39.0515873,31.6540469 C47.3645054,31.9279188 53.1157971,43.1612032 53.1157971,54.6354277 C53.1157971,55.4325125 52.5717903,56.9685474 52.9821249,56.6281398 C53.7855133,55.9639584 54.9909347,55.0343061 56.1965255,54.7684992 C57.4024552,54.5026922 58.340024,54.2370533 59.1432429,54.5026922 C59.9471395,54.7684992 59.5454454,54.6354277 60.349342,55.565752 C61.1525609,56.4954043 61.5549328,56.3623328 61.5549328,55.565752 C61.5549328,54.7684992 63.9657756,47.5947356 64.3674698,46.6649153 C64.7696722,45.735263 66.1087658,43.8754544 67.1806845,43.0783696 C68.2519254,42.2811167 68.3861059,41.4845359 69.859041,40.8200185 C71.3324845,40.1558372 72.2705615,40.2884046 73.3423107,40.95309 C74.4135517,41.6171034 74.6815737,41.0856575 74.4135517,42.6794911 C74.1456991,44.2739968 71.7346869,61.0119384 71.4666649,61.8090232 C71.1988123,62.6062761 71.3324845,62.872083 71.3324845,62.872083 C71.3324845,62.872083 72.2705615,62.2073976 72.9402777,61.9415906 C73.6103328,61.6759517 76.9589138,62.6062761 78.030663,64.0675423 C79.101904,65.5288085 80.0394728,66.0597503 80.3074948,66.9900747 C80.5753474,67.919895 80.4416752,68.5834043 81.1107138,68.4513409 C81.7807688,68.3182694 82.182463,67.5210165 83.1200318,67.2558816 C84.0576006,66.9900747 86.0675963,67.654088 87.1386679,69.2480897 C88.2105865,70.8424274 87.9425645,70.4435489 88.4784391,71.6396802 C89.0138055,72.8351395 89.5496801,72.5688285 89.5496801,71.7722477 C89.5496801,70.9749948 89.2823358,69.3811612 90.0855547,68.5834043 C90.8894513,67.7866555 90.7557792,67.2558816 91.8270202,66.8570032 C92.8982611,66.4586288 95.1761094,65.7946154 97.051247,68.4513409 C97.9384982,69.7128318 98.5409548,70.0117386 98.8596333,70.4852178 C99.2111792,71.0166637 99.2443855,71.680677 99.5964397,72.1706221 C100.265478,73.1009464 100.148748,72.2868916 100.935533,71.7722477 C101.738922,71.2408018 102.275474,70.9749948 103.480895,71.7722477 C104.685808,72.5688285 105.355864,72.8351395 105.757558,73.3660813 C106.159082,73.8975272 106.427613,74.0300947 106.427613,74.0300947 C106.427613,74.0300947 106.695635,71.6396802 108.436592,70.4435489 C110.177888,69.2480897 112.321386,70.178414 112.321386,70.178414 C112.321386,70.178414 115.402115,72.436261 115.80364,73.1009464 C116.205334,73.7649598 116.876067,74.6947801 117.009739,74.1633342 C117.143411,73.6318883 116.876067,71.7722477 117.009739,70.7093559 C117.143411,69.6462961 117.545105,68.4513409 118.751204,67.7866555 C119.956626,67.1226421 122.233966,67.5210165 123.438879,68.1851979 C124.644978,68.8497153 125.314016,69.1155222 126.252093,69.9126071 C127.189493,70.7093559 127.992881,71.7722477 127.992881,71.7722477 C127.992881,69.3811612 128.127739,66.8570032 129.734347,65.5288085 C131.342479,64.2001097 132.145867,63.6686638 136.164503,64.7315556 C140.182631,65.7946154 141.38873,67.919895 141.38873,67.919895 L145.139005,67.7866555 C145.139005,67.7866555 141.38873,63.8012312 142.058277,59.8163111 C142.727824,55.8308869 144.025579,56.5952079 145.807874,55.9639584 C147.684028,55.2999451 150.229221,56.4954043 150.229221,56.4954043 C148.487417,55.1668736 149.349594,52.4851132 150.362554,50.783075 C152.104528,47.8605426 158.265646,47.9936141 158.265646,47.9936141 C156.926383,45.0712497 157.03549,42.1151134 160.676489,39.6243913 C166.302918,35.7720385 178.49216,37.2333047 178.49216,37.2333047 L185.05548,44.4070683 L182.109271,44.2739968 C186.39559,46.000902 188.806433,48.52506 190.012702,49.1887373 C191.217276,49.8532547 194.432863,52.3774127 195.771278,54.1044858 C197.111389,55.8308869 198.449804,59.6837437 194.832693,60.7461314 C191.217276,61.8090232 189.743324,59.9495506 188.53875,59.5506722 C187.332482,59.1522978 179.830576,58.8864908 179.830576,58.8864908 C183.447687,61.2770732 187.064798,61.4108168 186.663274,67.1226421 C186.39559,70.8921612 183.447687,72.8351395 180.501478,73.2335139 C177.555269,73.6318883 173.267255,73.1009464 171.661156,72.5688285 C170.053363,72.0378866 167.909526,72.3036936 167.909526,72.3036936 C167.909526,72.3036936 169.517997,74.4289731 170.187205,75.7576719 C170.858107,77.0858666 170.321046,77.3510015 171.257937,78.4138933 C172.196523,79.4769531 173.133414,80.2735339 172.464206,81.2038582 C171.794998,82.1336785 168.847603,83.4623773 167.909526,83.8605837 C166.972635,84.2589581 166.168568,84.2589581 166.705121,85.1892824 C167.240487,86.1185987 167.775853,87.4478015 167.508509,88.6427567 C167.240487,89.838888 167.240487,89.9714554 166.034388,89.9714554 C164.829475,89.9714554 164.15942,89.7058165 162.685976,89.1742026 C161.212872,88.6427567 158.667171,87.9787433 157.863952,87.5798649 C157.060055,87.1814905 156.256328,86.9163556 156.256328,86.9163556 L155.854634,87.7129364 C155.854634,87.7129364 157.998132,90.9012757 156.256328,93.4249297 C154.515371,95.9490877 151.03261,96.878908 147.549848,95.6839528 C144.066917,94.4878215 140.718675,94.4878215 136.83405,91.1669147 C132.949594,87.8461759 132.279539,87.1814905 131.744173,86.2516702 C131.20779,85.3218499 130.806096,84.2589581 130.270729,84.1263906 C129.734347,83.9938232 129.734347,84.3921976 129.734347,84.3921976 C131.744173,87.1814905 134.020496,90.9012757 134.824901,91.6983606 C135.62812,92.4957814 136.030323,93.0265553 136.030323,93.8238081 C136.030323,94.620893 136.164503,97.9419678 135.896651,99.1379311 C135.946799,98.905224 135.351966,104.907723 133.083266,103.786865 C131.744173,103.122851 130.002877,101.794152 129.19898,100.864332 C128.395084,99.9345119 127.859209,99.403066 127.323334,99.0048596 C126.78746,98.6059811 126.78746,98.3401742 126.654296,99.403066 C126.519438,100.466126 127.584071,102.354834 126.780852,103.8161 C125.976448,105.277534 126.408637,105.35852 124.510797,105.779745 C123.196609,106.070755 122.36696,105.513938 121.697413,104.982996 C121.027867,104.45155 118.617024,102.98978 117.679285,102.060463 C116.741717,101.130139 116.071662,100.599197 116.071662,100.599197 C115.669967,101.130139 115.535787,101.528514 115.535787,101.528514 C115.535787,101.528514 115.535787,103.388658 113.393305,104.185743 C111.249637,104.982996 110.847943,104.982996 109.776194,104.185743 C108.704445,103.388658 104.954339,99.1379311 103.614568,97.2777864 C102.275474,95.4183138 100.399659,92.4957814 99.863784,91.4327216 C99.3279094,90.3703339 98.7925431,89.7058165 98.3903406,88.9090677 C97.9886464,88.1113108 97.4527718,87.048923 97.3190996,87.8461759 C97.1854275,88.6427567 98.9682313,92.3706069 98.7925431,95.8165202 C98.6588709,98.4732457 97.1854275,98.8716201 97.1854275,98.8716201 C98.524521,102.458838 95.3097816,104.185743 95.3097816,104.185743 C94.2385406,105.912312 93.1667914,106.444262 90.8894513,105.912312 C88.6122807,105.381202 89.5496801,105.646505 88.7464611,104.849252 C87.9425645,104.052672 86.6027933,103.122851 85.9332465,102.723973 C85.2635303,102.325598 81.9151187,99.0048596 80.8433694,97.5435934 C79.771959,96.0816551 78.7002098,94.620893 78.298685,93.5580012 C77.8964826,92.4957814 78.030663,91.0338432 77.7621327,90.2372624 C77.4947884,89.4400095 76.9589138,89.1742026 76.8245639,90.1040229 C76.6908918,91.0338432 76.6908918,98.6059811 73.7440049,101.262707 C71.5169825,103.272221 69.5496806,102.060463 68.9214722,101.794152 C66.3767878,100.731261 63.429901,94.4878215 63.429901,94.4878215 C61.8227854,92.096903 61.9564576,88.6427567 61.8227854,87.8461759 C61.688605,87.048923 62.0908074,85.8534638 61.420583,86.1185987 C60.7510362,86.3847417 60.7510362,86.6500446 60.0808117,88.2445503 C59.4112649,89.838888 56.1965255,94.4878215 52.9821249,93.9568796 C51.0310872,93.6327699 51.106479,90.9012757 51.106479,89.838888 C51.106479,88.7758282 51.374501,87.31473 51.106479,86.7832841 C50.8386264,86.2516702 50.9728069,86.2516702 50.1689102,86.7832841 C49.3656913,87.31473 47.2220234,89.3074421 44.6768307,88.7758282 C42.1321463,88.2445503 41.7375678,86.1261595 41.6038956,85.0632677 C41.4697152,84.00088 41.3282497,78.6802043 42.2658185,76.0233108 C43.2033873,73.3660813 43.3377372,72.1706221 43.7392619,71.2408018 C44.1414644,70.3109815 44.8110112,68.9822827 44.8110112,68.9822827 C44.8110112,68.9822827 44.1414644,69.2480897 42.2658185,70.4435489 C40.3908503,71.6396802 36.5062253,73.4993208 32.8892834,71.9048151 C29.2728498,70.3109815 25.7905966,68.9822827 23.1110541,67.3884491 C20.4321892,65.7946154 18.7164756,64.3002494 17.6194828,67.919895 C17.2172804,69.2480897 17.8875048,71.9048151 18.021177,72.8351395 C18.1548492,73.7649598 18.1548492,75.3587934 18.9587458,74.6947801 C19.762473,74.0300947 19.4946204,72.9672029 21.2360859,72.3036936 C22.9773819,71.6396802 25.2547219,73.1009464 25.3883941,75.226226 C25.5220663,77.3510015 25.7905966,76.8200596 25.2547219,78.2813258 C24.7188473,79.742592 24.5844975,81.0712908 24.1829727,83.8605837 C23.9613717,85.3982988 23.1263018,88.4631437 21.6501477,90.817434 C20.4479453,92.7338652 18.5690804,94.1170023 18.2912321,94.3255146 C17.6713253,94.7909288 14.1367553,95.6839528 12.7970857,95.0194354 C11.8763911,94.5625902 8.92948728,92.9685885 6.30897062,88.9502325 C5.10343062,87.0981528 3.43737391,83.3130079 3.01885634,80.8054838 C1.6796374,72.8351395 1.27739768,68.0524624 5.56404899,63.1372179 C9.85016494,58.2224775 11.1898345,57.5584641 13.1991865,55.9639584 C15.2079285,54.3696207 16.5476828,53.5730399 17.6194828,53.1741615 C18.6907238,52.7757871 21.101736,52.1117737 23.1110541,53.4398004 C25.1203721,54.7684992 27.7323161,57.0182812 29.4070302,58.089406 C31.683862,59.5506722 34.3627268,61.1450099 34.3627268,61.1450099" id="path16" fill="#FFFFFF"></path>
                        <path d="M15.0743241,91.4327216 C12.663261,92.096903 9.31418867,89.1742026 7.30542972,85.0562109 C5.29609474,80.9380513 3.15298594,71.5059367 7.30542972,65.395737 C11.4578057,59.2848652 14.5383986,58.4882844 16.5476828,56.7612113 C18.5570516,55.0343061 22.3078351,56.0966939 23.2452345,57.2921531 C23.6387965,57.7906672 25.3965263,58.844822 27.3807702,60.106985 C30.1519688,61.86699 33.5005498,63.8928019 35.3008039,64.2001097 C38.3813629,64.7315556 40.1228283,64.864123 40.7923751,59.8163111 C41.4625996,54.7684992 38.9172375,48.9234344 37.1759415,46.6649153 C35.434476,44.4070683 33.5595078,41.7496708 33.0234638,43.3440085 C32.4875892,44.9380102 33.725878,44.6461602 33.1573054,45.3368886 C32.1973732,46.5026084 31.1779747,45.6615024 31.0443025,44.8644176 C30.9099526,44.0671647 30.9099526,41.4104393 31.7138493,39.8164376 C32.5175765,38.2220999 34.7730614,36.5855893 35.8361702,35.7720385 C37.5781439,34.4435078 41.3282497,33.1151451 45.0790332,39.7571267 C48.8293084,46.3992764 51.9103757,54.5026922 47.4900454,61.0119384 C43.0697151,67.5210165 35.2840313,70.9669299 28.8711556,67.1226421 C23.1110541,63.6686638 18.146717,59.9824825 15.878136,62.872083 C14.0024732,65.2626655 13.8687841,66.8570032 14.1367553,70.4435489 C14.4047095,74.0300947 16.2798471,78.9455072 16.9499191,80.2735339 C17.6194828,81.6027367 18.1548492,82.26675 18.6907238,81.0712908 C19.2265984,79.8751595 19.3609483,77.8829514 20.5663697,76.4218532 C21.7719605,74.960419 22.8437097,75.3587934 22.7093599,76.1560463 C22.4835234,77.49281 21.3702663,81.0712908 21.5039385,82.7976919 C21.6376106,84.5252691 21.101736,87.1814905 18.1548492,89.3074421 C16.0036082,90.8596069 15.0743241,91.4327216 15.0743241,91.4327216" id="path18" fill="#1A67BB"></path>
                        <path d="M179.429051,51.1819534 C178.700546,50.4594693 176.59127,49.0311349 174.373566,48.3009219 C172.49809,47.6780733 170.539598,47.6780733 169.249297,47.8605426 C166.437099,48.259421 167.642181,48.3919885 167.642181,48.3919885 C170.858107,50.9161465 169.77382,53.959989 169.77382,53.959989 C173.390932,53.2958076 183.180004,54.5026922 183.180004,54.5026922 C182.644638,52.3774127 180.769161,52.5101481 179.429051,51.1819534 Z M140.451161,78.4138933 C139.646756,76.5544207 139.378734,75.4913609 138.843368,74.4289731 C138.306985,73.3660813 136.298175,72.8351395 135.226426,73.1002744 C134.154677,73.3660813 131.609992,73.7649598 135.226426,78.9455072 C138.843368,84.1263906 143.665392,85.0562109 145.674202,85.7202243 C145.674202,85.7202243 145.54053,84.9236435 144.468611,84.1263906 C143.39754,83.3291378 141.25438,80.2735339 140.451161,78.4138933 Z M88.4784391,86.3847417 C87.2730177,83.1960663 84.9956777,78.0155189 83.5222343,76.9526271 C82.0487908,75.8902393 81.9151187,77.3510015 81.5129162,78.4138933 C81.1107138,79.4769531 81.379244,82.7976919 81.7807688,84.1263906 C82.182463,85.4550894 83.5222343,87.9787433 84.7276557,89.1742026 C85.9332465,90.3703339 91.1574734,95.0194354 91.1574734,95.0194354 C91.1574734,95.0194354 89.6840299,89.572577 88.4784391,86.3847417 Z M175.00889,66.8570032 C175.00889,66.8570032 175.813634,66.8570032 177.285891,66.4586288 C178.759843,66.0597503 178.893685,66.0597503 177.15205,64.9973626 C175.410415,63.9344708 168.981275,61.9415906 165.767044,63.6686638 C165.767044,63.6686638 167.909526,66.0597503 175.00889,66.8570032 Z M190.815751,57.4253926 C190.815751,57.4253926 188.93011,58.5099589 186.919097,56.7833898 C186.919097,56.7833898 183.046162,55.9639584 181.707746,55.9639584 C180.367636,55.9639584 167.508509,55.8308869 166.437099,55.9639584 C165.36535,56.0966939 165.231169,55.9639584 164.427272,55.2999451 C163.623545,54.6354277 164.427272,53.9712463 162.150102,54.2370533 C160.550949,54.4280915 159.739598,54.2370533 158.801521,56.3623328 C157.863952,58.4882844 161.748408,61.0119384 161.748408,61.0119384 C161.748408,61.0119384 162.685976,61.4108168 163.757726,61.0119384 C164.829475,60.613564 168.713931,59.8163111 170.722571,60.0821181 C171.920368,60.2395524 179.429051,60.8786988 182.109271,64.7315556 C184.293092,67.8862911 181.170686,69.9126071 177.285891,70.5766204 C173.402791,71.2408018 168.446078,69.3811612 166.034388,68.1851979 C163.623545,66.9900747 158.399827,64.9973626 155.319268,64.3333492 C152.238709,63.6686638 152.104528,64.0675423 152.238709,65.7946154 C152.372381,67.5210165 156.792203,70.7093559 158.265646,71.2408018 C159.739598,71.7722477 162.552304,72.436261 164.025748,73.6318883 C165.499022,74.8273475 166.168568,76.0233108 166.705121,77.0858666 C167.240487,78.1487584 167.374329,78.9455072 167.775853,79.8751595 C168.178056,80.8054838 166.972635,81.0712908 165.901224,81.3364257 C164.829475,81.6027367 163.490381,82.3994855 162.418632,82.6651244 C161.346883,82.9309314 161.212872,83.3291378 162.284282,83.9938232 C163.355523,84.6573325 163.087671,84.791076 163.623545,85.3218499 C164.15942,85.8534638 163.757726,86.6500446 162.284282,86.5174771 C160.811347,86.3847417 155.854634,84.2589581 155.051246,83.4623773 C154.246841,82.6651244 151.835998,80.9380513 151.300123,78.6802043 C151.300123,78.6802043 151.434304,78.2813258 151.434304,77.7498799 C151.434304,77.2189381 150.496904,76.9526271 149.425494,76.4218532 C148.353067,75.8902393 145.942224,74.6947801 145.272677,74.5615406 C144.602961,74.4289731 144.468611,74.8273475 145.139005,75.6244324 C145.807874,76.4218532 147.148154,78.2813258 148.755947,80.2735339 C150.362554,82.26675 151.970178,85.3218499 151.03261,87.5798649 C151.03261,87.5798649 151.835998,88.1113108 152.907747,89.572577 C153.979496,91.0338432 153.284367,93.5748031 148.888942,93.0265553 C141.38873,92.096903 139.512915,90.1040229 136.9684,88.6427567 C134.423207,87.1814905 131.987121,83.288141 130.940446,82.3994855 C125.632187,77.8992493 125.891907,79.4184823 125.850399,79.4769531 C125.314016,80.2735339 125.046672,80.9380513 125.984071,83.4623773 C126.92164,85.9865353 130.137057,89.7058165 130.806096,90.6354688 C131.476151,91.5652891 132.279539,93.0265553 132.54807,94.0894471 C132.815414,95.1525069 132.413211,97.4103539 132.413211,98.3401742 C132.413211,99.2699945 132.413211,100.997572 131.744173,100.466126 C131.074626,99.9345119 130.404402,99.1379311 129.0648,98.0750393 C127.725367,97.0119795 121.162047,89.7058165 120.625664,89.1742026 C120.090298,88.6427567 117.813466,85.7202243 117.545105,86.3847417 C117.277083,87.048923 118.081149,87.7129364 118.617024,88.6427567 C119.152898,89.572577 120.893686,92.4957814 121.831085,94.2226866 C122.769163,95.9490877 123.304698,98.2076067 123.707409,99.1379311 C124.109103,100.067751 124.376956,102.192527 122.50131,102.458838 C120.625664,102.723973 118.884876,100.731261 116.205334,98.0750393 C113.527655,95.4183138 107.632695,87.1814905 106.427613,85.8534638 C105.222191,84.5252691 104.552645,85.3218499 104.954339,86.7832841 C105.355864,88.2445503 108.30292,92.2299745 110.177888,93.9568796 C112.052856,95.6839528 112.85743,98.8716201 113.124944,100.067751 C113.393305,101.262707 112.187206,101.661585 109.909866,101.130139 C107.632695,100.599197 106.159082,96.7463405 104.552645,94.620893 C103.539345,93.2841293 101.413127,89.7306834 99.8053342,86.4178415 C98.8596333,84.4499963 98.4323567,82.3079148 97.5871217,81.4696652 C95.3097816,79.2111461 93.5684856,80.4066054 93.434644,81.7348001 C93.3004636,83.0640029 93.702666,87.5798649 94.773907,90.9012757 C95.845148,94.2226866 95.4434538,96.3474621 93.5684856,97.5435934 C93.5684856,97.5435934 93.702666,97.8087283 94.2385406,98.7390526 C94.773907,99.6688729 94.9075792,99.5363055 94.1043602,101.529018 C93.3004636,103.52173 91.9612006,103.52173 89.8182104,102.857044 C87.6745425,102.192527 82.3166434,95.8165202 80.8433694,92.7614204 C79.369926,89.7058165 79.101904,90.2372624 77.8964826,81.3364257 C76.6908918,72.436261 73.0744581,72.436261 71.1988123,72.8351395 C69.1730605,73.2664457 68.2268513,75.6911361 67.925623,77.0690646 C67.7077493,78.0902876 68.5285879,83.2377351 69.3236747,85.9865353 C69.5916967,86.9158515 69.859041,87.048923 70.5292655,85.8534638 C71.1988123,84.6573325 71.1988123,84.9236435 72.0025395,84.5252691 C72.8064361,84.1263906 72.9402777,84.5252691 73.2081303,86.6500446 C73.4761523,88.7758282 73.3418025,92.4957814 73.3418025,93.8238081 C73.3418025,95.1525069 72.1368893,98.2076067 69.5916967,98.4732457 C67.046504,98.7390526 65.439219,91.9636635 63.8315952,88.9090677 C62.2244796,85.8534638 64.9033444,64.3333492 65.1713664,62.872083 C65.439219,61.4108168 64.2337976,61.8090232 63.8315952,63.0046505 C63.429901,64.2001097 62.7603542,68.3182694 62.2244796,70.5766204 C61.688605,72.8351395 57.9378215,85.4550894 57.0002527,86.9158515 C56.0626839,88.3771177 54.5892405,90.1040229 53.7855133,89.7058165 C52.9821249,89.3074421 53.3838191,88.5101892 53.7855133,85.9865353 C54.1877157,83.4623773 54.4555683,79.4769531 54.7235903,77.2189381 C54.9909347,74.960419 54.8572625,66.4586288 54.1877157,65.12993 C53.5174912,63.8012312 52.9821249,65.395737 52.1782283,66.9900747 C51.374501,68.5839083 51.6423536,68.9822827 51.374501,70.7093559 C51.106479,72.436261 49.767216,81.2038582 49.2313414,82.7976919 C48.6954668,84.3921976 47.3556956,85.4550894 45.3470552,85.7202243 C45.3470552,85.7202243 43.7392619,86.1185987 44.4088087,80.9380513 C44.9365512,76.8529915 45.6149078,73.4993208 46.6861488,69.5137286 C47.757898,65.5288085 51.374501,61.9415906 53.3838191,59.9495506 C55.3931371,57.9568385 58.340024,58.4882844 58.340024,58.4882844 L58.4736961,69.9126071 C58.4736961,69.9126071 58.8758986,70.5766204 59.6792869,68.7166438 C60.4830142,66.8570032 62.4923322,59.2848652 63.5635732,55.0343061 C64.0492995,53.0993928 65.2553986,49.4550483 66.3767878,47.5369369 C67.7246912,45.245486 69.0055044,44.7886408 69.5916967,44.1409253 C70.6634459,42.9458021 70.5292655,43.6098155 70.7971181,45.2038171 C71.0651401,46.7981548 68.2519254,58.2224775 68.1182533,59.8163111 C67.9845811,61.4108168 66.6448099,70.3109815 66.9128319,71.1075623 C67.1806845,71.9048151 67.5823787,71.1075623 67.9845811,70.178414 C68.3861059,69.2480897 68.9214722,68.5839083 69.5916967,67.654088 C70.2612435,66.7237637 71.6010147,65.395737 73.7440049,65.2626655 C75.8869951,65.12993 77.092586,68.3182694 78.030663,69.6462961 C78.9682318,70.9749948 79.2360844,74.4289731 79.771959,75.3587934 C80.3080031,76.2886137 80.4416752,75.0929865 80.9775499,74.0300947 C81.5129162,72.9672029 81.7807688,72.702068 82.5841572,71.6396802 C83.3885621,70.5766204 83.5222343,70.8424274 84.4598031,71.7722477 C85.3978801,72.702068 85.6652245,73.7649598 86.2012685,75.226226 C86.7369737,76.6874922 89.2823358,82.3994855 90.0862324,83.4623773 C90.8894513,84.5252691 90.6214293,83.8605837 90.7557792,82.1336785 C90.8894513,80.4066054 90.6214293,78.9455072 90.6214293,77.7498799 C90.6214293,76.5544207 91.1574734,73.2335139 91.5596758,71.7722477 C91.9612006,70.3109815 92.4970752,69.9126071 95.0417596,71.6396802 C97.5871217,73.3660813 99.1942372,79.8751595 99.863784,81.4696652 C100.534008,83.0640029 100.534008,81.8685436 100.801861,80.8054838 C101.069714,79.742592 100.935533,78.5471328 100.935533,77.0858666 C100.935533,75.6244324 101.337227,74.960419 102.542818,75.0929865 C103.748748,75.226226 104.016092,76.5544207 104.819989,77.7498799 C105.623208,78.9455072 108.034898,82.9309314 109.106139,84.1263906 C110.177888,85.3218499 114.464546,91.2996501 115.268443,92.096903 C116.071662,92.8939878 116.071662,92.096903 116.071662,91.0338432 C116.071662,89.9714554 115.268443,89.4400095 114.330366,87.9787433 C113.393305,86.5174771 111.115965,81.3364257 110.177888,79.4769531 C109.240319,77.6173125 108.972975,75.0929865 110.177888,73.6318883 C111.383309,72.1706221 113.259125,74.6947801 114.330366,76.0233108 C115.402115,77.3510015 121.162047,84.3921976 124.242775,88.1113108 C124.242775,88.1113108 124.242775,87.048923 123.573229,86.1185987 C122.903512,85.1892824 122.36696,83.8605837 121.697413,82.532557 C121.027867,81.2038582 119.688773,78.0155189 119.555101,76.5544207 C119.420243,75.0929865 118.081149,69.6462961 121.965435,70.7093559 C125.850399,71.7722477 127.992881,76.4218532 131.476151,79.8751595 C131.476151,79.8751595 131.609992,79.8751595 131.877845,78.9455072 C132.145867,78.0155189 130.806096,75.7576719 130.404402,73.8975272 C130.002877,72.0378866 130.002877,71.3738733 130.672424,69.1155222 C131.342479,66.8570032 131.877845,67.654088 133.886824,67.5210165 C135.896651,67.3884491 139.110712,69.7795356 139.646756,70.4435489 C140.182631,71.1075623 139.915287,70.7093559 140.986528,70.7093559 C142.058277,70.7093559 143.799065,71.1075623 145.674202,71.6396802 C147.549848,72.1706221 150.898429,74.8273475 151.970178,75.6244324 C153.041928,76.4218532 153.041928,76.5544207 154.113677,76.5544207 C155.184918,76.5544207 155.319268,76.4218532 156.524858,75.8902393 C157.729772,75.3587934 158.533499,75.6244324 157.998132,74.6947801 C157.46175,73.7649598 155.854634,73.7649598 153.041928,72.0378866 C150.229221,70.3109815 145.942224,65.6613759 145.40635,63.8012312 C144.870814,61.9415906 144.066917,60.7461314 146.210754,59.4174326 C148.353067,58.089406 153.712152,61.2775773 154.917573,61.6759517 C156.122148,62.0748302 156.524858,62.4732046 156.256328,61.4108168 C155.988476,60.347925 154.917573,60.347925 153.176277,57.5579601 C151.434304,54.7684992 153.176277,52.5101481 154.515371,51.3145209 C155.854634,50.1190616 160.543325,50.6505075 161.346883,50.9161465 C162.150102,51.1819534 162.016938,50.9161465 162.016938,49.8532547 C162.016938,48.7908669 159.663698,47.9190134 160.945019,43.8754544 C162.418632,39.2261849 172.474371,39.3365737 177.431592,39.6022127 L179.161368,41.8829103 C179.161368,41.8829103 176.482842,41.8829103 173.536633,42.1485493 C170.588729,42.4143562 167.240487,42.9458021 167.240487,45.6020235 C167.240487,45.6020235 170.053363,45.2038171 173.133414,45.3368886 C176.215159,45.4694561 180.903003,47.0637938 183.046162,48.259421 C185.189322,49.4550483 191.217276,54.5026922 192.154167,55.2999451 C193.092752,56.0966939 192.691228,57.823599 190.815751,57.4253926 Z" id="path20" fill="#1A67BB"></path>
                        <polyline id="path22" fill="#FFFFFF" points="90.2199046 60.347925 86.2012685 50.783075 77.3604386 50.2516291 84.0576006 44.1409253 81.1107138 34.5765793 89.5496801 40.1558372 97.3190996 34.3107723 95.3097816 44.6722032 102.944343 50.2516291 93.1667914 50.783075 90.2199046 60.347925"></polyline>
                    </g>
                </g>
            </g>
        </g>
    </g>
</svg>