<svg width="200" height="200" xmlns="http://www.w3.org/2000/svg"><g fill-rule="nonzero" fill="none"><path d="M96.99 175.659c-.174-.092-17.48-9.448-34.431-27.271-9.99-10.504-17.959-21.882-23.682-33.818C31.693 99.587 28.05 83.697 28.05 67.344V24.28h141.188v43.064c0 16.353-3.642 32.243-10.827 47.226-5.723 11.935-13.69 23.313-23.682 33.818-16.935 17.805-34.257 27.178-34.43 27.27l-1.655.884-1.654-.883" fill="#FFF"/><path d="m136.53 64.979 2.323-6.513-.598-.537-1.726 1.723v5.327Zm-68.41 35.187c-1.337 0-2.672-.09-3.984-.266H.003l18.006-18.246V59.616l-2.403-2.432L0 41.37h64.16a29.889 29.889 0 0 1 3.96-.263c1.302 0 2.612.088 3.912.263h116.096l-15.315 15.757-.873.9 7.982 22.28L199.52 99.9H72.055a29.448 29.448 0 0 1-3.935.266Z" fill="#FFF"/><path d="M31.56 27.79v39.554c0 69.375 67.084 105.22 67.084 105.22s67.084-35.845 67.084-105.22V27.79H31.56" fill="#6B2439"/><path d="M98.647 166.915c-5.068-3.063-17.724-11.35-30.215-24.538-9.33-9.853-16.753-20.485-22.06-31.602-6.585-13.792-9.923-28.404-9.923-43.43V32.677h124.39v34.666c0 15.087-3.364 29.754-10 43.595-5.343 11.142-12.81 21.795-22.195 31.661-12.466 13.106-24.967 21.281-29.997 24.315" fill="#F3A00F"/><path d="M98.649 162.491c-5.693-3.612-16.666-11.274-27.487-22.7-9.06-9.567-16.26-19.875-21.397-30.637-6.341-13.281-9.556-27.348-9.556-41.81V36.44h116.87v30.905c0 14.52-3.24 28.64-9.632 41.969-5.172 10.787-12.415 21.114-21.528 30.695-10.792 11.347-21.638 18.913-27.27 22.483" fill="#6B2439"/><path d="M98.65 159.81c-5.797-3.78-15.894-11.059-25.849-21.57-8.898-9.396-15.964-19.509-21-30.058-6.195-12.975-9.336-26.715-9.336-40.838v-28.65h112.358v28.65c0 14.18-3.166 27.971-9.41 40.993-5.07 10.574-12.18 20.707-21.129 30.116-9.924 10.434-19.906 17.625-25.634 21.356" fill="#FFF"/><path d="M98.022 158.042c-5.014-3.357-14.853-10.495-24.402-20.578-8.817-9.31-15.815-19.325-20.801-29.767-6.122-12.823-9.226-26.4-9.226-40.353v-27.52h110.102v27.52c0 14.009-3.129 27.637-9.3 40.506-5.019 10.467-12.06 20.502-20.928 29.826-9.04 9.504-18.144 16.321-24.19 20.366l-.627.42-.628-.42" fill="#6B2439"/><path d="M92.073 58.71c-.071-.142-.143-.283-.216-.423l.216.215v.207Zm41.689-.206 3.243-3.238 1.147-1.148 3.932 3.528-8.322 23.326V58.504Zm-41.898 24.47c.071-.135.14-.27.209-.408v.2l-.209.209Zm100.973 14.158-15.31-15.308-8.774-24.485 2.076-2.14 10.75-11.062H77.715l2.767 2.77a26.594 26.594 0 0 0-12.362-3.032c-4.236 0-8.245.991-11.81 2.752l2.487-2.49H6.62L17.576 55.24l3.2 3.24v24.31L6.623 97.133h52.173l-2.481-2.484a26.598 26.598 0 0 0 11.805 2.75c4.462 0 8.672-1.099 12.375-3.038l-2.768 2.772h115.11Z" fill="#6B2439"/><path fill="#FFF" d="m41.22 57.164 4.179-4.18 5.61-5.618H14.343l5.53 5.604 4.132 4.184v26.96l-9.66 9.79h36.662l-9.788-9.8v-26.94"/><path d="M68.12 47.104c-12.974 0-23.53 10.558-23.53 23.535 0 12.975 10.556 23.53 23.53 23.53 12.977 0 23.534-10.555 23.534-23.53 0-12.977-10.557-23.535-23.534-23.535" fill="#FFF"/><path d="m152.143 88.638-3.98-3.979.406-1.184h7.147l.407 1.185-3.98 3.978Zm-16.007-4.71-5.603 8.59V57.165l4.188-4.18 3.309-3.314 7.823 7.018-9.717 27.238Zm38.594-.332-9.695-27.061 8.903-9.169H85.506l9.796 9.798v26.94l-4.185 4.185-5.604 5.615h31.728l-9.809-9.8V73.967l14.17 19.936h63.438l-10.31-10.308Z" fill="#FFF"/><path fill="#F3A00F" d="m44.093 51.68 2.466-2.468H18.756l2.43 2.462 4.665 4.722v28.476L21.186 89.6l-2.427 2.458h27.797l-2.463-2.465-4.719-4.725V56.4l4.72-4.72M135.881 49.212h-22.76l2.469 2.468 4.719 4.72v10.55l-12.28-17.135-.431-.603H89.957l2.468 2.468 4.722 4.72v28.468l-4.724 4.725-2.461 2.465H112.784l-2.467-2.465-4.73-4.725v-16.68l16.537 23.265.43.605h6.134V56.4l4.727-4.72 2.466-2.468"/><path d="M68.12 81.298c-5.88 0-10.662-4.783-10.662-10.66 0-5.881 4.782-10.666 10.662-10.666 5.882 0 10.667 4.785 10.667 10.667 0 5.876-4.785 10.66-10.667 10.66Zm0-32.349c-11.955 0-21.684 9.73-21.684 21.69 0 11.957 9.729 21.685 21.684 21.685 11.96 0 21.69-9.728 21.69-21.685 0-11.96-9.73-21.69-21.69-21.69ZM152.14 91.247l-1.652-1.654-4.443-4.442 1.205-3.522h9.783l1.209 3.522-4.444 4.442-1.657 1.654Zm2.21-17.517h-4.267l2.154-6.183 2.112 6.183Zm23.77 15.863-4.987-4.985-10.222-28.533 4.279-4.413 2.382-2.45H140.28l2.813 2.524 4.914 4.407-10.206 28.61-3.31 5.073-1.455 2.232H180.586l-2.466-2.465Z" fill="#F3A00F"/><path d="M68.123 79.81a9.004 9.004 0 0 1-2.314-.305l-.906-.241V76.74l-.105-.058a6.91 6.91 0 0 1-2.72-2.72l-.059-.105h-2.527l-.24-.906a9.01 9.01 0 0 1 0-4.628l.241-.905h2.524l.058-.105a6.91 6.91 0 0 1 2.723-2.724l.105-.058V62.01l.903-.242a8.939 8.939 0 0 1 2.317-.302c.79 0 1.568.102 2.312.303l.902.242v2.52l.106.058a6.897 6.897 0 0 1 2.725 2.725l.058.105h2.522l.242.905c.203.76.306 1.538.306 2.314a9.01 9.01 0 0 1-.305 2.314l-.242.906h-2.524l-.058.105a6.904 6.904 0 0 1-2.724 2.72l-.106.058v2.523l-.904.242a8.964 8.964 0 0 1-2.31.305" fill="#F3A00F"/><path d="M76.077 70.637a7.74 7.74 0 0 0-.265-2h-2.374a5.7 5.7 0 0 0-3.32-3.32v-2.373a7.667 7.667 0 0 0-1.995-.26c-.692 0-1.362.09-2 .26v2.374a5.715 5.715 0 0 0-3.32 3.32H60.43a7.74 7.74 0 0 0 0 4h2.375a5.714 5.714 0 0 0 3.318 3.316v2.372c.638.17 1.308.265 2 .265.69 0 1.36-.094 1.995-.265v-2.372a5.706 5.706 0 0 0 3.32-3.317h2.374c.17-.64.265-1.31.265-2M22.215 90.615l5.08-5.15V55.8l-5.08-5.141H43.07l-5.14 5.14v29.666l5.14 5.15H22.215M93.446 90.615h15.85l-5.152-5.15V63.66L123.3 90.615h3.943V55.8l5.15-5.142h-15.786l5.143 5.142v15.646l-14.895-20.788h-13.41L98.59 55.8v29.665l-5.143 5.15" fill="#6B2439"/><path d="M68.12 82.744c-6.685 0-12.107-5.419-12.107-12.105 0-6.682 5.422-12.115 12.107-12.115 6.688 0 12.11 5.433 12.11 12.115 0 6.686-5.422 12.105-12.11 12.105Zm0-32.351c-11.178 0-20.24 9.066-20.24 20.246 0 11.179 9.062 20.24 20.24 20.24 11.184 0 20.244-9.061 20.244-20.24 0-11.18-9.06-20.246-20.244-20.246ZM148.051 75.175l4.194-12.056 4.13 12.056h-8.324Zm29.045 15.44-5.212-5.217-10.639-29.684 4.91-5.056H144.055l5.638 5.056-10.59 29.684-3.398 5.217h13.762l-5.084-5.078 1.835-5.353h11.849l1.83 5.353-5.079 5.078h22.278Z" fill="#6B2439"/><path d="M71.816 69.142a1.627 1.627 0 0 1-2.198-2.2 3.995 3.995 0 0 1 2.198 2.2M66.625 66.942a1.626 1.626 0 0 1-1.432 2.388 1.58 1.58 0 0 1-.764-.192 4.008 4.008 0 0 1 2.196-2.196M64.429 72.133a1.626 1.626 0 0 1 2.196 2.197 3.999 3.999 0 0 1-2.196-2.197M69.618 74.33a1.627 1.627 0 0 1 1.436-2.388c.277 0 .534.07.762.193a3.993 3.993 0 0 1-2.198 2.195" fill="#F3A00F"/><path d="M60.963 105.023v-.03c0-3.076 2.413-5.488 5.685-5.488 1.855 0 3.166.573 4.282 1.538l-1.719 2.065c-.753-.633-1.507-.995-2.548-.995-1.523 0-2.699 1.282-2.699 2.895v.03c0 1.704 1.191 2.926 2.865 2.926.709 0 1.252-.152 1.689-.437v-1.282h-2.081v-2.141h4.855v4.75a7.137 7.137 0 0 1-4.584 1.628c-3.287 0-5.745-2.262-5.745-5.459M84.554 106.11l-1.176-3.002-1.191 3.001h2.367Zm-2.563-6.47h2.82l4.493 10.63h-3.136l-.77-1.884h-4.07l-.755 1.885h-3.076l4.494-10.63ZM95.756 99.716h8.49v2.488H98.65v1.598h5.066v2.307h-5.066v1.674h5.67v2.488h-8.565V99.716M112.45 99.716h2.926v7.991h5.112v2.564h-8.037V99.716M126.366 108.703l1.628-1.946c1.04.83 2.202 1.267 3.424 1.267.784 0 1.206-.271 1.206-.724v-.03c0-.437-.348-.679-1.78-1.01-2.247-.513-3.98-1.147-3.98-3.318v-.03c0-1.96 1.552-3.377 4.085-3.377 1.795 0 3.198.482 4.343 1.402l-1.463 2.066c-.964-.678-2.02-1.04-2.955-1.04-.708 0-1.055.301-1.055.678v.03c0 .482.362.694 1.825 1.025 2.427.528 3.934 1.312 3.934 3.288v.03c0 2.156-1.703 3.438-4.266 3.438-1.87 0-3.65-.588-4.946-1.749M103.662 130.752a2.73 2.73 0 0 1-2.728-2.729c0-.457.12-.893.319-1.279a6.723 6.723 0 0 1 3.688 3.69 2.665 2.665 0 0 1-1.279.318Zm-2.41 8.389a2.729 2.729 0 0 1 2.41-4.008c.463 0 .897.117 1.279.325a6.712 6.712 0 0 1-3.688 3.683Zm-7.421-8.389c-.466 0-.899-.11-1.281-.321.68-1.672 2.011-3.001 3.683-3.687.204.386.322.822.322 1.279 0 1.504-1.22 2.73-2.724 2.73Zm2.402 8.389a6.713 6.713 0 0 1-3.683-3.687 2.705 2.705 0 0 1 1.279-.322 2.728 2.728 0 0 1 2.404 4.009Zm15.408-9.55h-3.981a9.556 9.556 0 0 0-5.568-5.565v-3.984a12.91 12.91 0 0 0-3.345-.432c-1.161 0-2.285.146-3.357.432v3.984a9.58 9.58 0 0 0-5.564 5.565h-3.981a12.96 12.96 0 0 0-.438 3.355c0 1.154.152 2.28.438 3.35h3.985a9.57 9.57 0 0 0 5.56 5.563v3.984c1.072.281 2.196.439 3.357.439 1.155 0 2.279-.158 3.345-.44v-3.983a9.562 9.562 0 0 0 5.568-5.562h3.981c.286-1.072.443-2.197.443-3.351 0-1.161-.157-2.286-.443-3.355Z" fill="#FFF"/></g></svg>