<svg width="200" height="200" xmlns="http://www.w3.org/2000/svg"><g fill="none"><path fill="#FBC621" d="M120.869 135.535V64.342h13.866l5.311-33.128H58.93l5.314 33.128h13.931v71.193H64.451l-5.31 33.14h80.743l-5.312-33.14h-13.703"/><path fill="#B81938" d="M130.433 59.296l3.697-23.039H64.847l3.695 23.039h14.675v81.283H68.752l-3.695 23.053h68.91l-3.695-23.053h-14.448V59.296h14.61"/><path fill="#80142D" d="M122.192 151.881h-17.725l11.357-11.302V59.296h14.61l3.696-23.039-11.938 11.518H99.52V151.88H77.079l-12.022 11.751h68.91l-3.695-23.053-8.08 11.302M95.294 47.775H77.077l-8.535 11.52h14.675l12.077-11.52m-27.466 63.161V86.744c1.045-.129 2.092-.252 3.142-.37-.09 1.655-.177 3.31-.264 4.964a262.49 262.49 0 0 1 12.82-1.12l.92-17.146a260.857 260.857 0 0 0-46.39 6.966c.299 5.623.6 11.246.898 16.871a260.556 260.556 0 0 1 12.644-2.705c-.084-1.629-.173-3.256-.261-4.883 1.039-.198 2.08-.388 3.121-.571v24.19a228.37 228.37 0 0 0-3.89.719c-.653 4.177-1.307 8.356-1.958 12.537a261.182 261.182 0 0 1 24.544-3.708l-1.977-11.944c-1.116.123-2.233.252-3.349.392"/><path d="M115.499 90.18c4.281.256 8.558.62 12.823 1.088l-.262-4.962c1.049.113 2.097.235 3.145.361v24.19a273.993 273.993 0 0 0-3.354-.383c-.657 3.98-1.316 7.963-1.977 11.95a260.61 260.61 0 0 1 24.599 3.658c-.655-4.181-1.306-8.36-1.962-12.536a255.8 255.8 0 0 0-3.932-.716V88.64c1.057.184 2.111.374 3.165.571-.087 1.628-.174 3.256-.263 4.885 4.234.786 8.451 1.678 12.649 2.675.299-5.624.6-11.25.901-16.873a260.858 260.858 0 0 0-46.45-6.862c.305 5.714.611 11.429.918 17.143m71.082 28.697l.225 5.015c-2.177-.77-4.364-1.51-6.557-2.222v-6.08a259.46 259.46 0 0 1 8.18 2.802l2.84-11.11a263.707 263.707 0 0 0-11.02-3.845v-5.959a261.9 261.9 0 0 1 6.557 2.223l-.225 4.855a259.003 259.003 0 0 1 12.21 4.653c.292-5.579.582-11.156.869-16.733a260.779 260.779 0 0 0-37.127-12.21c.646 4.212 1.294 8.427 1.94 12.644.904.231 1.809.468 2.713.71v5.957a263.198 263.198 0 0 0-4.974-1.276c.804 4.248 1.609 8.501 2.412 12.757.854.221 1.71.445 2.562.671v6.08a278.176 278.176 0 0 0-3.863-1c-.647 3.89-1.294 7.783-1.94 11.678a260.87 260.87 0 0 1 38.25 12.481c-.279-5.812-.556-11.624-.838-17.438a261.725 261.725 0 0 0-12.214-4.653" fill="#80142D"/><path d="M102.028 98.703a254.993 254.993 0 0 0-4.787.004c.797-2.928 1.597-5.85 2.395-8.771.798 2.919 1.595 5.84 2.392 8.767zm20.442.975c-2.056-.18-4.115-.335-6.177-.466-2.351-8.838-4.706-17.647-7.06-26.425a261.34 261.34 0 0 0-19.35.02 14297.915 14297.915 0 0 0-9.395 36.876c-2.07.155-4.137.333-6.203.536.593 3.992 1.186 7.987 1.777 11.985a261.54 261.54 0 0 1 15.841-.963c.777-3.448 1.55-6.892 2.326-10.334 3.603-.077 7.209-.08 10.81-.008.777 3.44 1.55 6.883 2.326 10.331 5.284.152 10.564.465 15.837.937.59-3.999 1.183-7.994 1.776-11.988a285.92 285.92 0 0 0-3.889-.347l1.38-10.154z" fill="#80142D"/><path d="M117.784 87.8c2.67.185 5.331.41 7.99.675l-.263-4.96c2.756.273 5.508.589 8.255.95v29.243a272.433 272.433 0 0 0-3.728-.464c-.385 2.324-.772 4.647-1.156 6.973a260.06 260.06 0 0 1 18.61 2.767 4292.46 4292.46 0 0 0-1.148-7.312c-1.434-.262-2.874-.51-4.316-.747V85.684c2.755.45 5.5.946 8.242 1.486a4661.05 4661.05 0 0 0-.263 4.882 261.89 261.89 0 0 1 7.878 1.672c.214-3.964.425-7.927.638-11.892a260.863 260.863 0 0 0-41.384-6.112c.216 4.026.432 8.054.645 12.08m71.241 34.479l.228 5.017a260.137 260.137 0 0 0-11.49-3.893v-11.132c2.922.915 5.831 1.883 8.727 2.902l1.664-6.509a262.454 262.454 0 0 0-10.391-3.493V94.16a258.65 258.65 0 0 1 11.49 3.893c-.076 1.617-.15 3.234-.228 4.85a255.29 255.29 0 0 1 7.607 2.905l.614-11.792a261.207 261.207 0 0 0-31.763-10.477c.377 2.467.753 4.933 1.132 7.4 1.024.272 2.053.552 3.078.836v11.008a258.972 258.972 0 0 0-4.25-1.14c.38 2.463.756 4.929 1.132 7.397 1.041.275 2.08.557 3.118.845v11.134c-1.406-.392-2.814-.77-4.226-1.138-.376 2.27-.755 4.54-1.134 6.811a261.416 261.416 0 0 1 32.885 10.76c-.196-4.089-.393-8.18-.586-12.27a261.732 261.732 0 0 0-7.607-2.904M98.804 82.264a307.04 307.04 0 0 1 1.662-.002c1.566 6.324 3.13 12.661 4.693 19.013a259.281 259.281 0 0 0-11.046.008c1.564-6.354 3.128-12.694 4.691-19.02zm17.368 26.568c.762.05 1.525.1 2.288.155.349-2.343.693-4.684 1.037-7.025a257.19 257.19 0 0 0-5.182-.339 10988.85 10988.85 0 0 0-7.062-26.372 261.69 261.69 0 0 0-15.345.015 14591.99 14591.99 0 0 0-9.441 36.804c-1.739.115-3.474.248-5.21.398l1.04 7.014c3.859-.32 7.72-.551 11.586-.698 1.134-4.731 2.268-9.451 3.402-14.165.6 1.248 1.203 2.495 1.804 3.744 3.936-.071 7.87-.054 11.804.053.831 3.448 1.663 6.897 2.494 10.352 3.863.142 7.723.367 11.578.682l1.043-7.015c-1.732-.148-3.46-.278-5.192-.392-.213-1.068-.428-2.14-.644-3.211z" fill="#FAE54E"/><path d="M133.766 84.465a606.861 606.861 0 0 1 3.739-3.034 261.582 261.582 0 0 0-16.21-1.85c.029.036.054.07.08.106-.026-.024-.051-.048-.08-.072.08 1.452.157 2.905.238 4.357a889.608 889.608 0 0 0-3.749 3.829c2.67.184 5.331.41 7.99.674l-.263-4.96c2.756.273 5.508.589 8.255.95m20.665.043l-.293 4.481a555.438 555.438 0 0 0-4.131 3.063 261.89 261.89 0 0 1 7.878 1.672c.214-3.964.425-7.927.638-11.892-1.362.88-2.726 1.773-4.092 2.676" fill="#FBC621"/><path d="M142.7 118.59c-.129-.024-2.15-.36-3.902-.621a860.728 860.728 0 0 1 3.23-3.044V85.684c2.755.45 5.5.946 8.242 1.486a512.91 512.91 0 0 1 4.11-2.707 260.185 260.185 0 0 0-16.478-2.974v36.347a258.675 258.675 0 0 0-5.162-.71 586.48 586.48 0 0 0-3.858 3.091 260.06 260.06 0 0 1 18.61 2.767 4292.46 4292.46 0 0 0-1.148-7.312 506.873 506.873 0 0 0-3.644 2.918" fill="#FBC621"/><path d="M41.198 93.855a264.233 264.233 0 0 1 7.875-1.688c-.088-1.627-.173-3.255-.26-4.882a258.642 258.642 0 0 1 8.19-1.499v29.244c-1.424.236-2.846.484-4.27.745-.38 2.44-.761 4.877-1.143 7.318a261.83 261.83 0 0 1 18.556-2.806c-.384-2.323-.77-4.646-1.156-6.967-1.241.147-2.484.303-3.723.47V84.548c2.746-.367 5.496-.691 8.253-.97-.09 1.655-.18 3.307-.267 4.962 2.66-.274 5.322-.504 7.988-.695l.648-12.083a261.011 261.011 0 0 0-41.327 6.205c.214 3.962.425 7.925.636 11.888" fill="#FAE54E"/><path d="M57.004 85.786a782.32 782.32 0 0 1 3.731-4.144 260.59 260.59 0 0 0-16.082 2.955l.077.084a6.055 6.055 0 0 1-.077-.049c.077 1.428.152 2.859.23 4.288a1028.432 1028.432 0 0 0-3.685 4.935 264.233 264.233 0 0 1 7.875-1.688c-.088-1.627-.173-3.255-.26-4.882a258.642 258.642 0 0 1 8.19-1.499m20.729-6.118c-.099 1.524-.198 3.046-.299 4.57a676.273 676.273 0 0 0-4.18 4.302c2.66-.274 5.322-.504 7.988-.695l.648-12.083a679.804 679.804 0 0 0-4.157 3.906" fill="#FBC621"/><path d="M65.33 117.335c-.134.018-1.547.204-3.298.46a748.477 748.477 0 0 1 3.235-4.005V84.548c2.746-.367 5.496-.691 8.253-.97a591.534 591.534 0 0 1 4.16-3.94 259.526 259.526 0 0 0-16.548 1.944v36.346c-1.842.273-4.432.698-5.713.921a683.33 683.33 0 0 0-3.829 4.244 261.83 261.83 0 0 1 18.556-2.806c-.384-2.323-.77-4.646-1.156-6.967a703.682 703.682 0 0 0-3.66 4.015m131.302 7.848a433.548 433.548 0 0 0-3.628 2.166c.096 1.67.193 3.342.291 5.012-4.88-2.128-22.777-7.787-25.176-8.223a472.21 472.21 0 0 0-3.786 2.555 261.416 261.416 0 0 1 32.885 10.76c-.196-4.089-.393-8.18-.586-12.27m-7.607-22.278a453.99 453.99 0 0 1 3.99-2.418l.285-4.437a441.88 441.88 0 0 1 3.946-2.033l-.614 11.792a255.29 255.29 0 0 0-7.607-2.904m-19.332-11.129a520.46 520.46 0 0 1 3.655-2.507 259.44 259.44 0 0 0-3.149-.903 462.56 462.56 0 0 0-3.584 2.575c1.024.271 2.053.55 3.078.835m0 18.11c1.22-.843 2.439-1.68 3.655-2.506a259.47 259.47 0 0 0-3.149-.904 512.706 512.706 0 0 0-3.624 2.565c1.041.275 2.08.557 3.118.845" fill="#FBC621"/><path d="M189.253 98.054c1.352-.691 2.702-1.37 4.047-2.037a260.688 260.688 0 0 0-19.563-6.632c-.002 12.114-.002 24.229-.005 36.345 1.347-.602 2.69-1.192 4.03-1.772V112.27c2.923.915 5.832 1.883 8.728 2.902l1.664-6.509a396.983 396.983 0 0 0-3.75 2.233 260.512 260.512 0 0 0-6.641-2.178V94.161a258.65 258.65 0 0 1 11.49 3.893m-71.04 17.637a246.58 246.58 0 0 0-5.117-.31 653.57 653.57 0 0 0-3.71 3.387c3.864.142 7.724.367 11.58.682l1.042-7.015a597.63 597.63 0 0 0-3.795 3.256m-4.898-.501a646.183 646.183 0 0 1 3.501-3.147c-.213-1.068-.428-2.14-.644-3.211.762.05 1.525.1 2.288.155.349-2.343.693-4.684 1.037-7.025a616.686 616.686 0 0 0-3.72 3.297 260.187 260.187 0 0 0-18.488-.474 1213.42 1213.42 0 0 0-2.2 3.578 261.536 261.536 0 0 1 16.581.226l1.645 6.6m-12.849-32.927a971.932 971.932 0 0 1 3.42-3.535 266.67 266.67 0 0 0-8.078 0 15614.33 15614.33 0 0 0-9.208 36.65c-1.505.079-3.007.166-4.51.27a805.906 805.906 0 0 0-3.793 3.835c3.859-.32 7.72-.551 11.586-.698 2.975-12.225 5.948-24.398 8.921-36.52a307.04 307.04 0 0 1 1.662-.002" fill="#FBC621"/><path d="M110.657 104.806c1.22-1.07 2.442-2.13 3.658-3.183a10988.85 10988.85 0 0 0-7.062-26.372 807.768 807.768 0 0 0-3.367 3.491c2.257 8.66 4.514 17.348 6.771 26.064" fill="#FBC621"/><path d="M26.71 101.74a254.838 254.838 0 0 0-13.526 4.037c-.213.07-.385-.053-.385-.269v-5.4c0-.215.169-.449.378-.522a261.214 261.214 0 0 1 9.617-3.18c-.086 1.673-.172 3.345-.26 5.017A260.04 260.04 0 0 1 34.966 97.9l.9-17.303a260.38 260.38 0 0 0-25.848 7.985C4.458 90.616 0 96.142 0 102.86v7.883c0 5.718 4.456 9.284 10.012 7.383a257.31 257.31 0 0 1 13.487-4.217c.214-.06.388.068.388.285v5.696a.567.567 0 0 1-.38.503 261.867 261.867 0 0 0-10.517 3.462l.255-5.02a258.811 258.811 0 0 0-12.16 4.622l-.87 17.43a260.737 260.737 0 0 1 26.487-9.308c5.653-1.655 10.297-6.26 10.297-13.151v-8.865c0-5.71-4.642-9.345-10.29-7.823" fill="#80142D"/><path d="M26.715 104.265A257.008 257.008 0 0 0 13.19 108.3c-1.577.516-2.852-.359-2.852-1.974v-5.334c0-1.606 1.27-3.38 2.839-3.933a261.24 261.24 0 0 1 12.093-3.93l-.255 5.012a261.465 261.465 0 0 1 7.717-2.184c.212-4.063.423-8.125.632-12.188a260.553 260.553 0 0 0-23.346 7.34c-4.204 1.538-7.588 6.435-7.588 10.758v8.636c0 4.316 3.38 6.53 7.575 5.097a256.947 256.947 0 0 1 13.49-4.219c1.589-.449 2.887.517 2.887 2.13v5.63c0 1.61-1.293 3.294-2.875 3.778a259.224 259.224 0 0 0-12.953 4.337l.338-5.058c-2.561.928-5.11 1.9-7.647 2.91l-.613 12.269a261.024 261.024 0 0 1 24.07-8.325c4.278-1.252 7.78-5.66 7.78-9.989v-8.928c0-4.313-3.498-7.021-7.767-5.871" fill="#FAE54E"/><path d="M10.892 122.2l-.338 5.057a750.218 750.218 0 0 0-3.976 5.062l.264-5.264a721.135 721.135 0 0 1 4.05-4.856" fill="#FBC621"/><path d="M34.482 119.064v-8.928c0-2.324-1.02-4.173-2.624-5.213a599.724 599.724 0 0 0-3.108 3.402c.992.829 1.608 2.072 1.608 3.672v6.04c0 3.794-3.059 7.297-6.794 8.441a260.945 260.945 0 0 0-16.986 5.841 697.466 697.466 0 0 0-3.946 5.059 261.024 261.024 0 0 1 24.07-8.325c4.278-1.252 7.78-5.66 7.78-9.989M12.797 93.626c-3.695 1.308-6.3 5.016-6.3 8.804v5.254c0 1.86.53 3.068 1.698 3.797a901.29 901.29 0 0 1 2.867-3.47c-.444-.364-.724-.942-.724-1.684v-5.334c0-1.606 1.27-3.38 2.839-3.933a261.24 261.24 0 0 1 12.093-3.93 792.939 792.939 0 0 1 4.04-4.74 260.812 260.812 0 0 0-16.513 5.236" fill="#FBC621"/><path d="M23.89 108.119a252.344 252.344 0 0 0-11.32 3.462c-1.72.57-3.28.57-4.46-.01a718.143 718.143 0 0 0-3.09 3.853c1.332.717 3.072.83 4.985.177a256.947 256.947 0 0 1 13.49-4.219c.875-.245 1.649-.055 2.18.427a604.64 604.64 0 0 1 3.075-3.484c-1.134-.838-2.475-.93-4.86-.206m1.125-9.977c1.318-1.6 2.639-3.188 3.962-4.764l.333-4.935c1.35-1.57 2.701-3.127 4.054-4.673-.21 4.063-.42 8.125-.632 12.188-2.58.688-5.154 1.415-7.717 2.184m118.47 70.534h-.364v-1.06h-.039l-.333.742h-.255l-.338-.756h-.048v1.074h-.345v-1.357h.59l.274.663.284-.663h.574v1.357zm-1.937-1.062h-.388v1.062h-.366v-1.062h-.387v-.295h1.14v.295z" fill="#FBC621"/></g></svg>