<svg width="200" height="200" xmlns="http://www.w3.org/2000/svg"><path d="M120.369 150.011c-3.646 0-6.534 2.921-6.534 6.567a6.507 6.507 0 0 0 6.534 6.535c3.63 0 6.534-2.92 6.534-6.535 0-3.646-2.903-6.567-6.534-6.567zm0 11.55c-2.855 0-4.983-2.078-4.983-4.983 0-2.937 2.128-5.016 4.983-5.016 2.806 0 4.983 2.08 4.983 5.016 0 2.905-2.177 4.984-4.983 4.984z"/><path d="M123.702 155.177c0-1.8-1.071-2.08-2.64-2.08h-3.3v6.798h1.518v-2.871h1.056l1.52 2.871h1.649l-1.65-2.871c1.204-.082 1.847-.594 1.847-1.847zm-2.607.825h-1.815v-1.717h1.47c.66 0 1.534 0 1.534.693 0 .858-.429 1.024-1.19 1.024zM179.1 86.408c-9.204 3.15-32.698 23.623-40.606 38.442 14.714-9.028 50.029-1.653 46.203 25.605 24.28-15.987 16.69-55.858-5.597-64.047m-78.493-5.241c-.437 9.61 6.992 17.756 16.608 18.194 9.608.437 17.755-7 18.193-16.608a17.349 17.349 0 0 0-2.538-9.887c3.197.536 6.738 2.838 9.273 6.895 4.086 6.542 7.195 10.46 12.412 11.525 9.793 2 16.626-6.233 15.987-14.065-.53-6.332-4.068-10.961-7.252-14.041-16.865-16.315-36.863-23.923-65.302-25.537C24.557 33.475.373 76.15.726 97.87c3.526-3.997 8.83-8.176 12.118-9.51-6.432 9.313-9.137 17.5-9.164 27.218 3.593-4.528 6.395-6.438 10.044-7.942-5.442 10.36-5.533 17.145-5.22 26.508 3.477-4.278 6.248-6.831 9.22-8.09 0 0-4.97 12.265-2.35 25.115 23.138-44.324 59.719-74.45 88.306-78.862-1.354 2.343-2.94 5.968-3.073 8.86m52.546 58.033c-6.156-1.874-15.3-3.483-17.846-3.708.189 10.467 8.485 19.12 19.088 19.602 4.827.22 9.334-1.337 12.918-4.025-11.467 2.075-16.361-5.324-14.16-11.868"/><path d="M116.715 110.295c-13.682-.623-24.637-10.836-26.713-23.849 0 0-4.615 1.355-11.03 6.026-7.179 5.223-7.998 8.784-7.998 8.784 9.493-4.218 17.24-1.234 19.658 3.993 2.421 5.234-1.643 12.333-13.734 17.256-10.215 4.155-18.15 10.462-18.724 19.834-.514 8.41 4.234 17.874 18.042 20.301 26.109 4.585 53.934-24.943 54.548-54.936-3.803 1.627-9.64 2.793-14.05 2.59"/></svg>