<svg width="200" height="200" xmlns="http://www.w3.org/2000/svg"><g fill-rule="nonzero" fill="none"><path d="M25.635.495h13.39l.493.1.396.098c2.766.644 4.842 2.574 5.731 5.297.988 3.614.543 7.772-2.57 10.248-2.865 2.227-5.978 1.88-9.337 1.88v6.04h-8.005c-.098-7.92-.098-15.792-.098-23.663Zm8.053 6.634v4.158c1.137-.05 2.421 0 3.558-.297 1.087-.94.938-2.277.345-3.416-1.185-.495-2.668-.396-3.903-.445ZM51.179.495h8.004v13.366c.05 1.139.05 2.426 1.136 3.02 1.285.594 3.162.594 4.25-.346.74-.94.592-2.08.642-3.169-.05-4.307 0-8.564 0-12.871h8.103v13.366c0 2.278-.198 4.456-1.532 6.436-1.878 2.822-5.09 4.01-8.35 4.208-3.508.198-7.065-.396-9.684-2.92-1.976-1.932-2.57-4.506-2.57-7.18 0-4.653.05-9.306 0-13.91ZM79.737.495h13.587l.939.198c1.482.446 2.865 1.04 3.903 2.228 1.927 2.129 2.322 5.247 1.877 8.02-.395 2.03-1.58 3.415-3.013 4.752 1.284 2.822 2.47 5.644 3.755 8.465h-8.499c-.988-2.178-1.927-4.406-2.915-6.584h-1.63v6.535h-7.905c-.1-7.871-.1-15.743-.1-23.614Zm7.905 6.634v3.663c1.235-.05 2.816.149 3.953-.396.84-1.04.346-1.93.148-3.07a113.642 113.642 0 0 0-4.101-.197ZM106.022.495h12.5l.494.05.396.05c2.52.494 4.842 1.583 6.373 3.761 1.828 2.624 2.125 6.387 1.977 9.505-.198 2.624-.791 5.297-2.669 7.278-1.976 2.128-4.89 2.97-7.757 3.02h-11.265c-.05-7.921-.05-15.793-.05-23.664Zm8.053 6.634v10.346c1.582-.198 4.497.297 5.09-1.732.691-1.783.642-4.95.049-6.783-.692-2.128-3.41-1.633-5.139-1.831ZM133.493.495h8.004v13.366c.05 1.04.05 2.228.988 2.921 1.779.99 4.99.693 5.04-1.93.099-4.802 0-9.604.05-14.406h8.003v13.86c0 2.18-.345 4.258-1.58 6.04-1.73 2.525-4.596 3.713-7.56 4.01-3.459.297-7.313-.099-10.03-2.524-2.075-1.782-2.915-4.357-2.915-7.08-.05-4.653 0-9.455 0-14.257ZM162.001.495h18.282v6.683h-10.277v1.733h8.992v6.832h-9.042v1.732h10.228v6.683h-18.281c.098-7.92.05-15.792.098-23.663Z" fill="#231F20"/><path d="M27.117 1.881h.296c2.965-.099 5.93-.05 8.894-.05 2.026 0 4.002.1 5.682 1.337 3.755 2.921 3.656 9.852-.593 12.327-2.52 1.584-6.275.99-9.19 1.09v6.187h-5.09c0-6.98.05-13.91 0-20.89Zm6.571 5.248v4.158c1.137-.05 2.421 0 3.558-.297 1.087-.94.938-2.277.345-3.416-1.185-.495-2.668-.396-3.903-.445ZM52.66 1.881c1.68 0 3.36 0 5.04-.05.1 4.01 0 8.02.05 12.03.099 1.535.148 3.169 1.532 4.11 1.482.99 3.854.99 5.484.247 1.73-.842 1.927-2.624 1.976-4.357V1.831h5.04v12.476c0 1.98-.296 3.861-1.532 5.445-1.63 2.13-4.298 3.07-6.867 3.218-3.014.149-6.028-.198-8.35-2.277-1.68-1.535-2.372-3.663-2.372-5.891 0-4.257.05-8.614 0-12.92ZM81.12 1.881h9.98c2.076.05 4.15.297 5.732 1.832 1.927 1.98 2.421 5.396 1.433 7.92-.643 1.684-1.977 2.525-3.36 3.516 1.532 2.425 2.421 5.049 3.607 7.673h-5.287c-.84-1.832-1.532-3.763-2.47-5.545-.544-1.633-3.064-.99-4.398-1.188v6.733H81.17c-.05-7.03-.1-14.01-.05-20.94Zm6.522 5.248v3.663c1.235-.05 2.816.149 3.953-.396.84-1.04.346-1.93.148-3.07a113.642 113.642 0 0 0-4.101-.197ZM107.554 1.881c3.26 0 6.521-.099 9.782.05 2.52.148 4.99.742 6.77 2.722 1.827 2.03 2.223 5.149 2.272 7.773 0 2.772-.494 5.94-2.57 7.97-1.926 1.832-4.396 2.327-6.966 2.426-3.063.05-6.176 0-9.288 0-.05-7.03-.05-14.01 0-20.94Zm6.521 5.248v10.346c1.582-.198 4.497.297 5.09-1.732.691-1.783.642-4.95.049-6.783-.692-2.128-3.41-1.633-5.139-1.831ZM134.975 1.881h5.04c.05 4.01-.05 8.02 0 12.03.099 1.634.197 3.317 1.73 4.208 1.432.841 4.05.841 5.483.05 1.63-.892 1.73-2.624 1.829-4.258.049-4.01 0-8.02 0-11.98h5.04v11.98c0 2.08-.15 4.06-1.384 5.792-1.828 2.475-4.842 3.366-7.757 3.416-3.064.099-6.127-.545-8.252-2.921-1.432-1.634-1.778-3.663-1.778-5.743 0-4.257.05-8.415.05-12.574ZM163.533 1.832c5.09.05 10.178.05 15.218 0 0 1.336.05 2.673.05 3.96h-10.278v4.456h8.993v4.059h-8.993v4.455H178.8v3.96h-15.316c.05-6.93-.05-13.91.05-20.89Z" fill="#DAAC27"/><path d="M32.206 5.842c1.877.05 4.051-.297 5.83.346 2.026 1.09 1.927 5.347-.296 6.238-1.73.445-3.706.198-5.534.247-.05-2.326-.05-4.604 0-6.831Zm1.482 1.287v4.158c1.137-.05 2.421 0 3.558-.297 1.087-.94.938-2.277.345-3.416-1.185-.495-2.668-.396-3.903-.445ZM86.308 5.842c1.828.05 3.903-.198 5.682.247 2.322.94 2.026 5.94-.84 5.99-1.581.149-3.26.05-4.842.05-.05-2.129-.05-4.208 0-6.287Zm1.334 1.287v3.663c1.235-.05 2.816.149 3.953-.396.84-1.04.346-1.93.148-3.07a113.642 113.642 0 0 0-4.101-.197ZM112.593 5.792c1.977.05 4.398-.297 6.226.545 1.976.94 2.174 3.613 2.272 5.544.05 1.881-.098 4.802-1.729 6.09-1.779 1.286-4.743.791-6.818.84.05-4.356.05-8.662.05-13.019Zm1.482 1.337v10.346c1.582-.198 4.497.297 5.09-1.732.691-1.783.642-4.95.049-6.783-.692-2.128-3.41-1.633-5.139-1.831ZM48.758 28.713h9.98v4.455h-2.717v-1.732h-3.212v1.831h2.47v2.723h-2.47v1.584h1.235v2.822h-5.286c0-.94 0-1.881-.05-2.772l.988-.1v-5.84l-.988-.1c0-.94 0-1.881.05-2.871ZM82.8 28.713h10.771v4.455h-2.57v-1.88h-1.234v6.286c.395.05.74.05 1.136.1v2.821h-5.287v-2.822c.396 0 .741-.05 1.137-.05v-6.336h-1.236v1.832h-2.569c-.148-1.436-.148-2.921-.148-4.406ZM97.03 28.713h5.187v2.673l-1.037.1c.296 1.682.543 3.365.84 5 .543-2.575 1.087-5.199 1.63-7.773h2.817c.543 2.574 1.037 5.148 1.68 7.673.296-1.634.543-3.317.84-4.95h-1.088v-2.723h5.04v2.723l-1.038.495c-.938 2.772-1.284 5.742-1.976 8.564h-3.458c-.544-2.129-.989-4.307-1.483-6.436-.494 2.13-.988 4.258-1.482 6.436h-3.459c-.592-2.574-1.086-5.148-1.729-7.723-.148-.89-.494-.94-1.284-1.336v-2.723ZM122.08 28.713h5.187v2.723l-1.235.05c.593.791 1.235 1.583 1.828 2.375.544-.792 1.137-1.584 1.68-2.376l-1.186-.05v-2.722h4.842v2.574c-1.63 1.782-3.162 3.763-4.1 6.04.395.148.79.247 1.185.396v2.723h-5.089c.198-1.387-.543-2.624 1.087-3.268-.84-2.228-2.52-4.158-4.15-5.89 0-.842 0-1.684-.05-2.575ZM134.036 28.713h4.447l3.854 5.792c0-.94.05-1.832.05-2.772l-1.038-.1v-2.92h4.842v2.624a3.152 3.152 0 0 0-.79.841c-.198 2.772 0 5.545-.05 8.317h-2.866c-1.58-2.327-3.113-4.653-4.694-6.98v4.109c.396.05.742.05 1.137.099 0 .94 0 1.881-.05 2.822h-4.842c.198-1.189-.444-2.575.89-3.169V32.08c-1.334-.643-.692-2.178-.89-3.366ZM146.932 28.713h10.277v4.455h-2.866v-1.732h-3.31v1.732h2.47v2.723h-2.47v1.98h3.31v-1.98h2.866v4.555H146.98v-2.822h.989v-5.891h-.989c-.049-1.04-.049-2.03-.049-3.02ZM80.33 36.287c1.927-1.584 2.371-3.812 1.334-6.04-.692-1.188-2.174-1.386-3.41-1.485-2.223-.099-4.496 0-6.72 0v2.575c.347.247.594.544.791.841a28.164 28.164 0 0 1 0 5c-.148.297-.444.594-.79.842v2.475h4.743c-.099-1.584.247-2.525-1.235-3.564 1.087-.545 1.68-.347 2.767 0-.396 1.138-.494 2.326-.544 3.515h5.386v-2.624c-.988-.248-1.581-.743-2.322-1.535Zm-1.186-3.218c-.297 1.436-2.668.792-3.755.99 0-.89 0-1.732.099-2.574 1.334 0 3.952-.643 3.656 1.584ZM70.893 33.663c-.149-1.683-.692-3.366-2.224-4.307-1.58-.99-3.854-.94-5.632-.594-1.927.446-3.212 2.03-3.508 3.911-.297 1.832-.247 4.06.691 5.693.79 1.337 2.224 2.03 3.706 2.228 1.73.198 3.903.05 5.287-1.139 1.58-1.386 1.828-3.811 1.68-5.792Zm-3.261 2.377c-.494 2.277-4.546 2.277-5.04 0-.346-1.238-.296-3.515 1.038-4.11 1.136-.544 3.013-.445 3.705.743.544.94.494 2.327.297 3.367ZM118.176 40.495h5.435c0-.842 0-1.634-.05-2.475a6.354 6.354 0 0 1-1.234-1.98c-.89-2.426-1.78-4.901-2.668-7.327-1.236 0-2.52-.05-3.755.05-1.137 2.475-1.878 5.098-2.916 7.623-.247.644-.691 1.09-1.136 1.584 0 .842-.05 1.683-.05 2.476h5.09V37.87a17.36 17.36 0 0 1-1.68-.198c.79-1.287 1.779-.99 3.063-.99 1.038-.05 1.186.297 1.828 1.04-.642.05-1.284.099-1.976.148.05.891.05 1.733.05 2.624Zm-1.531-6.09c.197-.494.346-.99.543-1.484.148-.446.346-.94.494-1.386.346.94.643 1.88.988 2.87h-2.025ZM25.635 33.416H44.31v2.376H25.635v-2.376ZM161.656 33.416h18.676v2.376h-18.676v-2.376Z" fill="#231F20"/><path d="M180.283 46.683c.494 6.584.889 13.168 1.383 19.753.543 7.03.198 14.208-.494 21.188-1.186 10.94-3.508 21.732-7.016 32.178-2.47.743-4.002 1.98-5.336 4.109a150.35 150.35 0 0 0 8.498-34.159c1.63-3.613 1.581-7.326.939-11.188.05-2.425.247-4.851.099-7.277-.346-6.98-.94-13.91-1.334-20.891-49.31-.05-98.62 0-147.88 0-.444 6.98-1.136 13.96-1.482 20.891-.247 12.723 1.334 25.495 4.546 37.822-.593 3.416-1.087 6.832.198 10.198.592 1.584 1.729 2.574 2.915 3.614.247 4.406.988 8.564 3.557 12.228 1.235 1.732 2.767 3.069 4.793 3.811.593 1.139 1.185 2.228 1.778 3.367-2.618-1.485-5.04-3.268-7.016-5.545-7.51-15.792-12.203-32.723-13.834-50.148-.543-6.238-.84-12.575-.395-18.812.543-7.03 1.087-14.11 1.58-21.139 51.435 0 102.968-.05 154.5 0Z" fill="#DAAC27"/><path d="M28.994 50.396c49.31 0 98.57-.05 147.88 0 .395 6.98.988 13.91 1.333 20.891.149 2.426-.049 4.852-.098 7.277-1.384-3.762-2.668-7.326-5.534-10.198-2.57-2.673-6.127-4.257-9.832-4.01-4.694.198-8.45 2.872-11.957 5.743-5.534-5.792-13.044-9.505-21.147-9.604-3.36-.05-6.522.842-9.536 2.327-.89-.495-1.877-.94-2.618-1.683-1.038-1.288-1.532-3.02-2.965-3.96-2.57-1.634-5.632-1.832-8.646-1.832-2.323.099-4.15-1.189-6.423-.941-7.461.693-14.477 3.713-20.307 8.366-4.892-2.376-9.684-2.92-14.97-1.683-6.523 1.584-13.094 5.198-17.146 10.594a25.906 25.906 0 0 0-4.496 9.852c-.444 1.584-.346 3.069-1.729 4.158-4.348 3.713-6.769 9.06-7.51 14.703-.198 1.535.247 3.119.099 4.654-.247 1.336-.89 2.673-1.384 3.96-3.211-12.277-4.842-25.1-4.545-37.822.395-6.881 1.136-13.861 1.531-20.792Z" fill="#231F20"/><path d="M99.5 54.455c2.273-.247 4.1 1.04 6.423.941 2.965 0 6.028.198 8.647 1.832 1.432.94 1.926 2.673 2.964 3.96.741.693 1.73 1.188 2.619 1.683 3.014-1.435 6.176-2.326 9.535-2.326 8.103.05 15.613 3.762 21.147 9.604 3.508-2.872 7.263-5.545 11.957-5.743 3.755-.198 7.263 1.386 9.832 4.01 2.915 2.92 4.2 6.435 5.534 10.198.692 3.861.692 7.574-.939 11.188-1.58 2.277-3.112 4.406-5.632 5.743-1.878 1.089-3.953 1.188-5.88 2.03-1.087 1.138-1.68 2.92-2.322 4.356a35.43 35.43 0 0 1 4.051 14.505c.05.99.05 1.98-.247 2.92-.543 1.931-2.52 2.97-2.865 5-1.038 5.347-3.36 11.139-7.757 14.604a34.14 34.14 0 0 1-.198 2.13c5.632-4.209 9.733-10.595 12.352-17.03 1.383-2.179 2.866-3.416 5.336-4.11 2.026-.247 4.052-.049 5.78 1.189 1.73 1.138 2.669 2.92 3.163 4.95v2.574c-1.383 10.347-5.386 20.248-11.907 28.416-5.435 6.782-12.649 12.475-20.95 15.149-3.063 1.04-6.274 1.485-9.486 1.534-.89.693-1.73 1.436-2.57 2.179-4.1 3.069-8.547 5.247-13.537 6.485-6.868 1.138-13.785.841-20.603-.446-6.819-1.336-13.192-4.109-18.232-9.01-2.174-2.03-3.804-4.406-5.534-6.782-1.383 1.04-2.618 2.178-4.1 3.119-2.224 1.386-4.793 2.376-7.313 3.218a40.306 40.306 0 0 1-4.25.841c-4.199.495-8.398.644-12.549-.297-7.609-1.683-14.625-6.04-20.06-11.584-8.893-8.762-14.23-20.544-15.909-32.871v-2.574c.395-1.634 1.038-3.12 2.322-4.258 2.125-1.98 5.386-2.475 8.054-1.336 2.075.89 3.409 2.574 4.348 4.554 2.025 4.307 4.348 8.366 7.56 11.881 1.975 2.327 4.396 4.06 7.015 5.545 3.706 2.079 7.757 2.425 11.957 2.277a182.661 182.661 0 0 0-2.767-3.762c-1.828-.248-3.508-.594-5.138-1.486-1.829-1.089-3.755-.346-5.83-.396-1.977-.742-3.558-2.079-4.793-3.811-2.57-3.664-3.31-7.872-3.558-12.228-1.235-1.04-2.371-2.03-2.915-3.614-1.284-3.366-.79-6.782-.197-10.198.444-1.287 1.136-2.624 1.383-3.96.099-1.535-.296-3.07-.099-4.654.741-5.644 3.162-10.94 7.51-14.703 1.384-1.139 1.285-2.574 1.73-4.158.74-3.565 2.322-6.931 4.496-9.852 4.051-5.396 10.623-9.01 17.144-10.594 5.287-1.237 10.13-.693 14.971 1.683 5.83-4.802 12.846-7.871 20.307-8.515Z" fill="#1F3D7C"/><path d="M100.488 58.168c.988-.05 1.68.693 2.47 1.188 2.965-.297 6.424-.594 9.19.743 1.384.743 1.236 1.881 1.285 3.267 2.224 1.188 4.447 2.377 6.423 4.01 3.854-2.624 8.153-3.564 12.748-2.871 7.213 1.04 13.883 5.247 17.787 11.436 2.322-2.624 5.089-5.149 8.25-6.684 2.422-1.138 5.09-1.584 7.659-.594 2.767 1.09 4.743 3.268 6.077 5.842 1.384 2.673 2.273 5.693 2.322 8.713.05 3.762-1.877 7.475-5.286 9.208-2.026 1.089-5.287.792-6.72 2.673-1.531 2.03-2.47 4.604-3.557 6.93 2.816 4.704 4.545 10.347 4.545 15.842-.197 1.535-1.235 1.832-2.47 2.426-.642 5.248-2.026 10.297-5.435 14.406-.593.792-1.73.693-2.619.94-.296 4.01-.889 7.921-1.68 11.882 2.669-.891 5.188-2.03 7.412-3.713 5.336-3.812 9.289-9.753 12.154-15.545.741-1.435 1.384-3.217 2.866-4.06 1.58-.94 3.705-.445 4.694 1.14.988 1.435.395 3.366.197 5-2.223 13.118-9.387 25.643-20.356 33.316-5.682 4.06-12.45 6.436-19.467 6.188-4.249 3.96-9.09 7.08-14.773 8.515-4.94 1.337-9.882.99-14.921.545-6.917-.743-13.587-2.673-19.072-7.08-4.15-3.267-7.065-7.623-9.19-12.425-2.717 3.465-5.78 6.485-9.93 8.218-4.349 1.831-9.388 2.277-14.082 2.178-7.856-.446-15.12-4.455-20.85-9.653-9.092-8.317-14.823-20.1-16.305-32.278-.346-2.376 1.68-4.505 4.051-4.06 2.174.397 2.965 2.427 3.854 4.16 3.36 6.831 8.202 13.96 15.07 17.574 4.792 2.623 10.524 3.514 15.91 2.772 1.926-.248 3.31-1.337 4.792-2.525a11.532 11.532 0 0 1-.247-1.386c-1.63-1.04-3.162-2.08-4.348-3.614-.988-1.287-1.482-2.772-2.026-4.257-1.087.346-2.174.792-3.36.594-2.174-.347-3.705-1.584-5.336-2.97-.939.494-2.026 1.138-3.063 1.287-1.532-.149-2.816-1.684-3.607-2.921-2.322-3.812-2.619-8.466-2.42-12.822-1.533-.149-2.768 0-3.41-1.683-1.087-4.406.247-9.456 2.223-13.416-.543-.94-1.136-1.733-.938-2.92.395-4.407 2.272-8.961 5.434-12.08.94-.94 2.026-1.683 2.916-2.574.296-.842.345-1.782.494-2.624.84-5.594 3.705-10.842 8.3-14.257 4.348-3.218 9.783-5.496 15.218-5.644 3.706-.05 7.115 1.09 10.129 3.317 5.83-5.644 13.043-9.208 20.998-9.654Z" fill="#FFF"/><path d="M100.636 60.446c-.444.693-.889 1.336-1.334 2.03 2.421-.298 4.645-.941 7.115-.99 1.63-.05 3.212.247 4.793.593-.84.347-1.63.743-2.47 1.139 1.235 1.386 2.816 1.93 4.446 2.772 2.47 1.287 4.842 2.475 6.423 4.852 3.014-3.218 7.164-4.456 11.463-4.11 7.955.644 15.959 5.99 18.726 13.615 2.47-3.218 5.089-6.238 8.597-8.367 1.828-1.089 4.002-1.831 6.126-1.386 2.174.495 3.755 1.93 4.941 3.762 1.68 2.624 2.668 5.743 2.767 8.862 0 2.574-1.087 5.396-3.36 6.782-1.877 1.09-4.298 1.04-6.275 2.08-1.284.692-2.124 1.83-2.865 3.069-1.236 2.277-2.322 4.702-3.41 7.079 3.113 4.554 4.694 9.95 4.843 15.495l-2.52-1.634c.296 6.09-1.038 12.08-4.743 17.03-.989-.743-2.026-1.485-3.014-2.277-.346 6.584-.989 13.366-2.915 19.703 4.743-.743 9.239-2.575 12.994-5.595 5.583-4.405 9.387-10.396 12.5-16.683.494-.841.84-2.079 1.927-2.326 1.087.148 1.384.792 1.186 1.782a52.267 52.267 0 0 1-7.46 20.94c-4.645 7.327-11.167 13.565-19.32 16.832-3.804 1.584-7.756 1.93-11.857 1.782-3.805 3.862-8.202 6.93-13.44 8.466-4.792 1.485-10.276 1.188-15.217.742-7.46-.792-14.576-3.02-19.961-8.465-3.854-3.862-6.176-8.614-7.905-13.713-1.878 2.92-3.854 5.693-6.473 8.02-3.014 2.673-6.769 4.06-10.672 4.604-4.99.643-9.931.693-14.674-1.139-9.29-3.416-16.7-10.99-21.493-19.554-3.212-5.941-5.484-12.674-6.028-19.456.939-1.386 2.026-.643 2.619.545 3.508 7.128 7.56 13.812 14.13 18.515 5.93 4.208 13.39 5.742 20.505 4.653 2.866-.545 4.694-2.277 6.769-4.158-.346-1.188-.494-2.278-.494-3.565-1.976-.94-3.805-1.98-5.09-3.812-1.185-1.683-1.284-4.307-2.815-5.693-1.483.1-2.767 1.733-4.25 1.287-2.322-.495-4.1-2.623-5.336-4.554-.84 1.485-1.58 2.228-3.063 3.07-1.136-1.238-2.174-2.575-2.668-4.209-1.433-4.406-1.087-8.762-.593-13.267-1.334.545-2.668 1.09-4.002 1.584-.296-2.92-.099-5.841.89-8.614 1.235-3.663 3.507-6.584 6.225-9.257-2.174.643-3.953 1.683-5.732 3.02.544-4.703 2.174-9.11 5.88-12.178 3.212-2.921 6.967-3.317 9.486-6.931-2.52.693-4.595 2.129-6.72 3.663.396-5.742 2.768-11.237 7.363-14.802 4.792-3.614 10.968-6.138 17.046-5.099 2.865.446 5.237 1.98 7.263 3.96 3.656-3.91 8.152-6.98 13.241-8.762 2.619-.99 5.287-1.386 7.905-1.732Z" fill="#231F20"/><path d="M98.512 66.436c4.298-.05 8.498 0 12.45 1.782 3.805 1.732 6.325 4.604 8.845 7.822 1.087-1.387 2.124-2.97 3.508-4.11 1.927-1.534 4.348-2.079 6.818-1.98 3.508.1 6.67 1.337 9.684 3.169-4.002-.297-7.609-.94-11.561.346-2.174.644-3.953 1.931-5.534 3.515.89 2.723 1.482 5.396.939 8.268-.692 4.207-2.718 8.514-6.473 10.792-2.371 1.534-5.04 1.98-7.806 2.03.74.445 1.432.89 2.174 1.336-4.645.495-8.301-.446-11.957-3.317-1.73 1.238-3.459 2.376-5.534 2.92-2.124.644-4.249.595-6.472.397l2.223-1.337c-3.212-.099-6.225-.742-8.795-2.772-3.36-2.525-5.138-7.03-5.583-11.09-.346-2.524.346-4.752.939-7.128-1.927-2.624-4.891-3.762-7.955-4.208-3.063-.445-5.83.05-8.844.198 4.101-2.326 8.943-4.06 13.637-2.574 3.014.99 4.447 3.317 6.472 5.644 2.174-2.674 4.25-5.248 7.263-7.03 3.459-2.129 7.56-2.673 11.562-2.673Z" fill="#CAC8C9"/><path d="m59.48 73.07.049-.05c3.014-.149 5.78-.644 8.844-.198 3.113.445 6.028 1.633 7.955 4.208-1.384 2.128-2.52 4.356-3.261 6.732H71.93c-2.174.842-4.002 2.674-5.484 4.456-4.743 5.693-7.51 13.416-9.289 20.495.741-.446 1.532-.891 2.273-1.337-1.384 4.505-1.334 9.01-.198 13.515.643-.594 1.235-1.188 1.878-1.782 3.656 4.455 5.435 9.802 6.275 15.396a197.376 197.376 0 0 0-3.36 3.168c-2.322-5.495-5.287-10.742-8.498-15.742a48.306 48.306 0 0 0 1.087 7.97c-.94.446-1.878.94-2.866 1.386-4.002-4.109-4.348-9.158-4.694-14.554-1.334 3.465-2.42 7.03-3.854 10.495-1.334-5.792-.148-11.09.643-16.832-1.63.644-3.212 1.287-4.842 1.93.494-2.029 1.037-4.01 2.174-5.84 2.272-3.961 6.62-6.833 9.93-10.05-2.964-.149-5.928-.198-8.942-.347 1.037-1.436 2.025-2.871 3.458-3.91 2.866-2.278 6.127-3.02 8.499-5.842 1.68-2.08 2.915-4.604 4.347-6.882-2.618.198-5.187.446-7.757.793 1.73-3.218 3.706-5.347 6.77-7.179ZM139.817 73.07c2.125 1.435 4.052 3.217 5.484 5.346 1.186 1.733 1.73 3.663 2.372 5.643-3.36 5.941-5.435 12.13-7.51 18.565-2.52-6.98-6.225-15.1-12.945-18.911l.296.693c-.444-.347-.889-.594-1.383-.842-.89-2.326-1.976-4.505-3.36-6.584 1.581-1.584 3.36-2.871 5.534-3.515 3.903-1.336 7.51-.693 11.512-.396Z" fill="#8B8C8E"/><path d="M165.164 74.307c2.174 1.634 3.36 4.802 3.853 7.376.149 1.09.495 2.97-.691 3.565-1.087.346-2.47 0-3.558-.05-1.976-.248-3.557.693-5.435.693-1.087-.148-2.124-1.04-3.063-1.634.544 1.585.642 3.515 2.57 3.862 2.025.198 4.15-.446 6.175-.545-1.432.594-2.865 1.139-4.249 1.782-1.877.1-3.36-.495-4.891-1.485l-.544-.346c-1.927 2.326-3.112 4.9-4.496 7.574.544.545 1.038 1.09 1.532 1.634.395.396.79.841 1.186 1.237h-1.68l-2.224-.148c-.543 1.386-1.136 2.772-1.482 4.208-.247.89.692 1.584 1.137 2.178.444.445.889.842 1.334 1.238-.544 0-1.087.05-1.581.05-.692-.05-1.335-.05-2.026-.1-.741 2.475-1.384 4.95-2.026 7.475.445.198.84.396 1.235.594.84.396 1.63.842 2.421 1.287-.79.298-1.63.595-2.47.793-.642.099-1.235.198-1.878.297-1.284 5.841-2.025 11.732-3.063 17.623-1.63 8.268-4.891 16.585-10.376 23.07-5.83 7.079-14.427 11.93-23.666 12.475-2.668.247-5.287-.248-7.856-.94-1.878-.892-3.755-1.882-5.435-3.12-2.372-1.683-4.25-3.91-6.522-5.742-1.68-2.92-2.767-6.04-3.508-9.307-1.878-7.92-2.421-15.842-2.619-23.96 0-.446.05-.891.05-1.337.988-4.604 2.322-9.109 3.656-13.663-2.767-3.268-5.484-6.634-8.548-9.703-1.68-1.733-4.051-1.882-6.225-1.139-1.137.446-2.026 1.386-2.915 2.129 1.235-.1 2.42-.248 3.656-.297-.84 2.277-1.581 4.455-1.334 6.93.395 1.832 1.087 3.664 1.73 5.396.543 1.486 1.136 3.12 2.074 4.357.742.94 2.026 1.584 3.064 2.178-.89 2.475-1.878 4.901-2.619 7.426-.79.792-1.581 1.584-2.42 2.376-.84-4.653-2.471-9.109-4.645-13.267-.988-1.931-2.026-3.614-2.421-5.743-.544-3.366-.149-6.98.642-10.297 1.482-6.287 4.1-11.98 7.065-17.723h1.137c-.544 1.783-.79 3.614-.988 5.446a14.89 14.89 0 0 0 1.383-1.09c.099 3.02.544 5.892 2.026 8.615 1.037 1.831 2.47 3.069 3.903 4.505 1.878 1.88 3.557 3.861 5.287 5.841-.247-1.188-.445-2.376-.741-3.564 3.162 1.089 6.423 1.435 9.684.495 2.272-.594 4.051-1.881 5.929-3.317 2.075 1.634 4.2 3.02 6.818 3.515 2.964.643 5.88.198 8.696-.743-.247 1.188-.445 2.327-.692 3.515 2.026-2.277 3.953-4.554 6.176-6.683 1.285-1.238 2.47-2.525 3.261-4.158 1.285-2.575 1.63-5.248 1.779-8.07l1.334 1.04a46.336 46.336 0 0 0-.939-5.743c.494.248.939.545 1.383.842 3.212 6.733 6.177 13.119 7.313 20.594.494 3.564.494 7.08-1.235 10.346-2.668 4.951-4.842 10-5.781 15.545-.692-.693-1.383-1.337-2.075-2.03a252.42 252.42 0 0 0-2.965-7.821c1.433-.842 2.767-1.486 3.657-3.02 1.334-2.376 2.124-5.1 2.766-7.723.445-.446.89-.891 1.334-1.287.05-2.426-.494-4.604-1.383-6.881 1.235.099 2.421.198 3.656.346-1.284-1.138-2.371-2.228-4.15-2.475-1.73-.297-3.459-.05-4.743 1.188-3.162 3.02-5.93 6.535-8.795 9.901 1.482 4.555 2.125 9.109 2.322 13.812.198 1.386.544 2.723.89 4.06.79 4.504 1.432 9.01 2.174 13.465-3.805-2.377-8.103-3.614-12.6-2.822-6.423 1.089-12.302 5.594-16.255 10.643 4.15-2.87 8.35-5.396 13.29-6.584 4.991-1.237 10.228-1.089 15.07.743 2.125.792 3.805 2.129 6.176 2.129 2.372.05 4.398-1.238 5.83-3.07 2.273-2.92 3.113-6.386 3.904-9.9 2.47-11.14 4.397-22.822 7.757-33.813 1.581-5 3.261-9.703 6.374-13.91 2.816-4.208 5.583-8.07 9.881-10.941 1.63-.545 3.508-1.485 5.238-.198Z" fill="#CAC8C9"/><path d="M162.594 76.634c.742 1.88 1.137 3.762.297 5.693-.692 1.336-2.47 1.732-3.706.89-.74-2.474 1.235-5.544 3.41-6.583ZM164.867 76.782c1.384.545 2.075 1.782 2.767 3.02.544 1.188 1.038 2.376.247 3.614-1.532.594-3.36.099-3.706-1.683-.296-1.584-.494-3.763.692-4.95ZM76.377 77.03c-.593 2.376-1.285 4.604-.939 7.128.445 4.06 2.224 8.565 5.583 11.09 2.57 2.03 5.633 2.673 8.795 2.772l-2.223 1.336c2.174.149 4.298.248 6.472-.396 2.075-.544 3.805-1.683 5.534-2.92 3.656 2.87 7.312 3.811 11.957 3.316-.742-.445-1.433-.89-2.174-1.336 2.767-.1 5.435-.545 7.806-2.03 3.755-2.277 5.732-6.584 6.473-10.792.543-2.871-.05-5.545-.94-8.267 1.384 2.079 2.471 4.257 3.36 6.584.445 1.881.791 3.762.94 5.742l-1.335-1.04c-.197 2.823-.494 5.545-1.778 8.07-.79 1.634-1.977 2.92-3.261 4.159-2.224 2.079-4.15 4.405-6.176 6.683.197-1.188.444-2.327.691-3.515-2.816.99-5.78 1.386-8.695.742-2.62-.495-4.744-1.93-6.819-3.514-1.828 1.386-3.656 2.673-5.929 3.316-3.26.941-6.522.545-9.684-.495l.741 3.565c-1.729-1.98-3.409-4.01-5.286-5.842-1.433-1.485-2.866-2.673-3.904-4.505-1.482-2.673-1.927-5.544-2.025-8.614a14.89 14.89 0 0 0-1.384 1.09c.198-1.832.445-3.664.988-5.446.692-2.525 1.828-4.753 3.212-6.881ZM155.233 87.574l.543.347c.247.544.544 1.138.79 1.683-1.63 2.277-2.865 4.752-4.298 7.178a46.377 46.377 0 0 1-1.532-1.633c1.384-2.674 2.619-5.248 4.497-7.575Z" fill="#231F20"/><path d="M155.825 87.92c1.532.99 3.064 1.585 4.892 1.486-2.224 1.485-3.854 3.614-4.99 6.04-1.63 3.415-2.668 7.227-3.459 10.89-1.334 6.238-2.174 12.575-2.866 18.912-.494 4.306-.642 8.613-1.531 12.87-1.186 5.793-2.322 11.783-5.139 17.03-3.458 6.684-8.646 12.872-15.514 16.14-3.706 1.781-7.757 2.425-11.809 2.276-5.681-.099-11.61-.841-16.798-3.267-4.892-2.277-8.844-6.09-11.216-10.94 2.273 1.831 4.15 4.059 6.522 5.742 1.68 1.238 3.557 2.228 5.435 3.119 3.014 1.633 6.324 1.485 9.585 1.287 8.745-.792 16.947-5.545 22.629-12.129 6.275-7.178 9.783-16.386 11.512-25.643.89-5.396 1.878-10.743 3.113-16.04.84-.198 1.68-.495 2.47-.792-.79-.446-1.63-.891-2.42-1.287h.197c1.284-2.475 1.68-5.396 2.619-8.02.543 0 1.037 0 1.58-.05-.444-.395-.889-.841-1.333-1.237.988-2.03 1.778-4.109 2.569-6.238h1.68c-.396-.396-.79-.841-1.186-1.237 1.433-2.426 2.619-4.901 4.298-7.179-.345-.594-.593-1.188-.84-1.732Z" fill="#8B8C8E"/><path d="M177.22 89.752a145.33 145.33 0 0 1-8.499 34.159c-2.619 6.485-6.72 12.822-12.352 17.03.05-.693.099-1.436.198-2.13 4.397-3.464 6.72-9.257 7.757-14.603.346-1.98 2.322-3.02 2.865-5 .247-.94.297-1.93.247-2.92a35.43 35.43 0 0 0-4.051-14.506c.642-1.435 1.235-3.168 2.322-4.356 1.927-.792 4.002-.94 5.88-2.03 2.52-1.238 4.002-3.366 5.632-5.644ZM149.65 97.871l2.223.149c-.79 2.129-1.581 4.208-2.57 6.237-.444-.594-1.432-1.287-1.136-2.178.297-1.435.939-2.822 1.482-4.208ZM76.377 101.386c3.063 3.02 5.78 6.386 8.548 9.703-1.334 4.505-2.668 9.06-3.657 13.663-.74-2.277-1.037-4.257-1.037-6.633-2.421-.396-4.645-.891-6.176-2.97-1.483-2.13-2.421-4.406-4.496-6.09-.247-2.475.494-4.653 1.334-6.93-1.236.05-2.421.198-3.657.297.89-.792 1.828-1.733 2.915-2.129 2.125-.792 4.546-.644 6.226 1.09ZM128.65 99.95c1.78.248 2.867 1.337 4.151 2.476a91.235 91.235 0 0 0-3.656-.347c.84 2.277 1.433 4.456 1.383 6.881-.444.446-.889.842-1.334 1.288-1.877 1.98-2.569 4.851-4.792 6.188-1.68 1.138-3.459 1.237-5.435 1.485-.099 2.525-.494 4.554-1.532 6.831-.197-4.752-.89-9.306-2.322-13.811 2.866-3.317 5.633-6.832 8.795-9.901 1.284-1.139 3.014-1.387 4.743-1.09Z" fill="#231F20"/><path d="M73.462 104.95c1.284 1.585 2.371 3.367 3.607 4.951l-1.828-.396c.494 1.683.543 3.515 2.52 4.06 2.075.494 2.667-1.387 4.05-2.525.05 1.435.05 2.821-.049 4.208-2.322.297-4.545.148-6.423-1.436-2.618-2.228-3.112-5.743-1.877-8.862ZM125.588 104.851c1.087 3.02.84 6.09-1.384 8.515-1.828 1.98-4.298 2.228-6.868 1.931-.148-1.337-.345-2.673-.049-4.01 1.433.347 1.63 2.574 3.459 2.327 2.371-.1 2.717-2.376 3.063-4.208-.593.198-1.235.346-1.828.495 1.284-1.634 2.42-3.366 3.607-5.05Z" fill="#FFF"/><path d="M146.981 105.446c.692.05 1.334.05 2.026.099-.939 2.623-1.334 5.544-2.619 8.02h-.197c-.395-.199-.84-.397-1.235-.595.593-2.574 1.235-5.05 2.025-7.524ZM99.895 106.09c3.162 1.336 6.572 2.128 9.635 3.662 1.927.941 3.26 2.377 4.447 4.11-1.532-.595-2.965-1.189-4.595-1.486-1.977-.396-4.052-.396-6.028-.89-1.384-.347-2.421-1.14-3.508-2.03-1.038.841-1.976 1.584-3.261 1.98-1.976.544-4.052.544-6.077.89-1.73.298-3.212.941-4.793 1.585 1.235-1.782 2.668-3.317 4.694-4.258 3.014-1.435 6.324-2.277 9.486-3.564Z" fill="#231F20"/><path d="M155.084 106.386c.84 1.436 1.433 3.02 1.977 4.604-.84-.495-1.63-.99-2.47-1.485.444 3.861 1.333 7.426.79 11.287-.297 2.673-1.087 5.149-2.174 7.574l-2.026-2.03c.642-6.732 1.878-13.465 3.903-19.95ZM69.51 109.06c2.074 1.683 3.013 3.96 4.495 6.089 1.581 2.079 3.755 2.574 6.176 2.97 0 2.376.346 4.356 1.038 6.633 0 .446-.05.892-.05 1.337-1.086 3.317-1.976 6.634-2.52 10.1-.444 2.672-1.284 4.95-2.618 7.276-.593-.594-1.235-1.237-1.828-1.88-1.482.247-2.965.544-4.447.791 4.546-5.94 8.647-13.218 9.042-20.841-1.532 2.524-2.57 5.099-5.04 6.93.741-2.524 1.73-4.95 2.619-7.425-1.038-.594-2.322-1.238-3.063-2.179-.989-1.237-1.532-2.92-2.076-4.356-.642-1.832-1.334-3.614-1.729-5.446ZM129.194 110.297c-.642 2.624-1.482 5.347-2.766 7.723-.84 1.534-2.224 2.129-3.657 3.02a212.149 212.149 0 0 1 2.965 7.821c-1.137-1.089-2.322-2.03-3.162-3.415-.79-1.288-1.483-2.575-2.224-3.862.346 7.376 4.002 13.664 8.004 19.654-5.286-2.426-7.658-7.327-10.03-12.327a53.758 53.758 0 0 1-.889-4.06c.988-2.277 1.433-4.356 1.532-6.831 1.976-.248 3.755-.396 5.435-1.485 2.223-1.386 2.915-4.208 4.792-6.238Z" fill="#8B8C8E"/><path d="M144.264 115.94c.642-.098 1.285-.197 1.877-.296-1.284 5.297-2.223 10.693-3.112 16.04-1.68 9.306-5.238 18.465-11.512 25.643-5.682 6.584-13.934 11.336-22.63 12.128-3.31.198-6.62.347-9.585-1.287 2.57.693 5.188 1.139 7.856.94 9.24-.593 17.787-5.445 23.667-12.474 5.484-6.485 8.745-14.802 10.376-23.07 1.037-5.89 1.778-11.782 3.063-17.623ZM107.208 119.505c2.865 1.188 5.286 3.07 7.312 5.396-5.237-2.772-10.77-4.505-16.75-3.713-4.15.495-7.756 2.228-11.363 4.208 2.47-2.723 5.385-4.95 8.893-6.238 3.805-1.435 8.153-1.287 11.908.347ZM113.384 130.644c1.976 1.04 3.211 2.623 4.1 4.554-4.792-2.525-10.128-3.762-15.563-3.07-6.275.644-11.562 3.417-16.75 6.832 3.36-4.059 7.807-7.524 12.847-9.208 4.891-1.732 10.77-1.633 15.366.892ZM49.35 139.356c1.631.892 3.31 1.288 5.14 1.486.938 1.237 1.827 2.475 2.766 3.762-4.2.148-8.202-.198-11.957-2.277-.593-1.139-1.186-2.228-1.779-3.367 2.026.05 4.002-.693 5.83.396Z" fill="#231F20"/><path d="M32.107 142.426c1.828 1.584 3.36 3.465 5.237 5 4.694 3.96 10.475 6.435 16.651 6.584 3.953.099 8.498-.396 11.957-2.376 2.124-1.188 3.409-2.97 4.891-4.852.643 3.07 1.186 6.683-.84 9.357-1.729 2.227-4.545 2.475-7.115 2.821a27.496 27.496 0 0 1-18.528-4.208c-4.792-3.118-9.09-7.524-12.253-12.326ZM166.794 142.525c-5.287 7.772-12.846 14.406-22.283 16.287.84-1.634 1.63-3.267 2.372-4.901 5.04-.644 9.634-2.525 13.636-5.644 2.322-1.683 4.15-3.861 6.275-5.742Z" fill="#FFF"/><path d="M80.181 165.94c1.73 2.377 3.36 4.753 5.534 6.783 5.04 4.851 11.413 7.673 18.232 9.01 6.818 1.287 13.735 1.584 20.603.445-6.967 5.149-14.477 9.307-21.937 13.664-5.633-3.416-11.463-6.535-16.898-10.198-6.028-3.96-11.561-8.515-16.898-13.317 2.47-.842 5.04-1.832 7.313-3.218 1.383-.94 2.668-2.08 4.051-3.168Z" fill="#231F20"/><path d="M68.768 172.327c5.386 4.802 10.87 9.406 16.898 13.317 5.435 3.663 11.265 6.831 16.897 10.198 7.461-4.357 14.971-8.515 21.938-13.664 4.99-1.237 9.437-3.416 13.537-6.485-3.952 3.713-8.152 7.129-12.55 10.297-7.163 5.198-15.118 9.505-22.776 14.01h-.297c-5.88-3.515-11.858-6.832-17.59-10.545-7.262-4.752-14.18-10.198-20.306-16.336 1.383-.149 2.816-.446 4.249-.792Z" fill="#DAAC27"/><path d="M138.977 176.832c1.334.05 2.668.099 4.002.099l.593 1.93c.494-.841 1.038-1.633 1.581-2.425.148 1.237.247 2.475.346 3.762h-.84l.148-1.485-1.334 1.337c-.296-.496-.543-.941-.84-1.436.05.544.05 1.04.1 1.584h-.791c.05-.99.099-1.98.148-2.92-.445.098-.84.197-1.285.296-.098 1.09-.05 2.08-.642 3.02-.099-.94-.198-1.881-.346-2.822a14.385 14.385 0 0 0-.84-.94Z" fill="#8B8C8E"/></g></svg>