<svg width="200" height="200" fill="none" xmlns="http://www.w3.org/2000/svg"><path d="M80.585 194.641h-.495c-5.63-.158-12.489-1.787-17.933-4.248-7.112-3.213-11.129-7.387-11.617-12.078a4.01 4.01 0 0 1 0-.899c.039-.461.151-.888.314-1.287-3.073-2.196-7.18-6.196-9.202-12.769l-1.669-5.439 5.573 1.141c2.568.522 9.927 1.871 13.652 1.916a51.472 51.472 0 0 1 5.23-9.5c-7.27-.315-13.36-4.647-17.915-9.439l-.882 2.472-4.152-3.882-1.343 2.753-2.466-1.826-.202 2.461c1.938 3.315 3.646 5.337 3.674 5.371l6.64 7.781-9.966-2.298c-15.747-3.635-23.13-15.034-24.989-25.202C3.63 125.663-.696 115.006.618 99.349c.59-7.034 8.253-16.197 11.304-19.596-.49-4.837 1.252-9.292 5.185-13.275.303-2.366 1.062-4.73 1.697-6.697.185-.573.36-1.118.5-1.59l.112-2.354 1.084-.944c6.826-5.955 17.511-15.36 20.804-18.438-.23-3.938-.124-6.685.342-9.708.764-4.91 2.517-8.41 5.22-10.404l2.028-1.489 2.196 1.079c.208.09 2.377.971 6.084.971 4.09 0 8.483-1.028 13.057-3.061 12.651-6.079 27.595-9.427 42.095-9.427 19.983 0 37.433 6.303 48.034 17.326 4.045 1.398 25.814 7.713 31.713 7.713.231 0 .349-.011.394-.017.719-.09 1.224-.129 1.679-.129.517 0 2.096 0 3.416 1.264 1.315 1.27 1.972 2.933 1.899 4.82-.006.259-.034.54-.084.843-.719 4.663-12.562 18.843-17.444 24.185 17.843 36.837 13.208 58.219 12.994 59.13l-.899 3.887-6.472-2.696c-4.179 18.292-16.168 30.292-25.848 37.286-12.275 8.871-25.348 13.073-32.303 13.219-7.152.152-15.776 3.242-19.231 4.601l-.781 3.399 7.978 6.382-4.719 2.36c-12.646 6.32-28.91 6.64-32.045 6.64l-.022.012Zm-18.776-69.017c-1.168 7.443 4.388 17.174 6.804 20.5l.028.039c2.51-2.826 4.898-4.994 6.663-6.59.719-.652 1.584-1.438 1.994-1.871.028-.101.056-.213.09-.331.45-1.601 1.826-6.478-.242-9.669-1.146-1.769-3.337-2.921-6.528-3.444h-.073c-1.472.062-5.067.214-8.741 1.36l.005.006Z" fill="#B9BBBD"/><path d="M196.023 35.72c.022-.152.039-.299.045-.45.033-.91-.253-1.669-.866-2.253-.382-.37-.96-.393-2.337-.225-5.736.714-33.741-7.674-34.46-8.18-18.517-19.983-57.798-21.646-86.77-7.702h.017c-13.596 6.056-21.933 2.124-22.017 2.084l-.41-.202-.365.27c-1.966 1.455-3.264 4.202-3.888 8.208-.477 3.112-.545 5.899-.208 10.505-1.241 1.506-22.05 19.663-22.05 19.663l-.062 1.31c-.652 2.359-2.163 6.106-2.298 9.291-6.69 6.118-5.022 11.669-4.86 12.82 0 0-10.898 11.422-11.516 18.776-.618 7.343-.73 23.68 11.904 27.567.467 4.186 3.495 19.944 22.703 24.382 0 0-5.73-6.668-8.546-16.14l4.467 3.466.303-3.674 4.079 3.017 1.567-3.214 3.736 3.495 1.13-3.163c4.218 5.635 11.533 13.073 20.561 12.736 0 0-10.303-14.146-6.938-25.045 5.13-2.056 10.494-2.118 11.865-2.186 15.624 2.298 9.759 17.096 9.674 18.017-.18 2.006-12.893 9.09-18.865 25.174-2.6 1.186-16.736-1.702-16.736-1.702 2.955 9.618 11.079 12.837 11.079 12.837-1.225 1.09-2 1.843-2.062 2.556a1.229 1.229 0 0 0 0 .203c.781 7.494 16.197 13.017 26.258 13.303 0 0 17.73.337 30.967-6.281l-5.517-4.41 1.652-7.168s12.118-5.304 22.056-5.517c12.326-.264 50.174-16.006 55.685-51.849l6.618 2.759s4.972-21.495-13.775-58.995c2.112-1.786 17.55-20.033 18.18-24.084Z" fill="#0A1823"/><path d="M143.017 31.686c-2.82 1.584-11.596 5.842-26.444 10.971-.225.079-.449.158-.68.236-.517.18-1.039.354-1.567.534a121.408 121.408 0 0 1-5.787 3.612h-.005c-13.54 7.955-33.691 16.675-50.894 16.877-2.247.028-6.926-.624-6.264-4.028.444-1.703 1.495-3.81 2.894-6.073 5.236-8.512 15.309-19.337 15.916-20.135-1.534.09-29.366 30.309-33.838 25.63-.028-.035-.039-.046-.039-.046.006-.028.017-.05.023-.079L66.14 25.883s0-.006.01-.011a93.102 93.102 0 0 1 5.22-3.326 179.29 179.29 0 0 1 4.843-1.792c5.387-1.68 14.685-3.899 25.202-3.899 3.989 0 8.146.332 12.331 1.152 18.545 3.623 27.208 11.517 29.287 13.674l-.017.006Z" fill="url(#a)"/><path d="M105.174 76.444c-3.865 0-7.725.23-11.511.629 8.697 1.331 14.775 7.612 19.697 15.169 4.915 7.561 8.668 16.404 12.696 22.865-28.708-19.416-51.809-20.759-65.303-20.14-6.792.308-13.343 1.522-19.023 3.763h-.005c-.86.337-1.697.703-2.517 1.084-7.36 3.456-12.315 9.697-15.18 16.439l-2.04.314c-2.527-8.814-13.258-14.932-13.595-15.118h-.005l1.106-1.837v-.011c1.871-4.163 9.81-20.253 23.293-26.612h.028v-.017l3.483-13.708.04.045c4.471 4.68 32.297-25.54 33.836-25.63-.6.793-10.674 11.624-15.916 20.136-1.393 2.27-2.449 4.37-2.893 6.073-.657 3.404 4.023 4.056 6.264 4.028 17.208-.203 37.354-8.922 50.894-16.877h.005c2.096-1.23 4.039-2.45 5.787-3.612l4.073 2.955.045.028c3.629 2.388 7.309 5.101 10.893 7.905l.017.01c3.489 2.725 6.893 5.523 10.09 8.175.741.618 1.472 1.225 2.191 1.82-1.141-.208-16.787-3.118-24.725-3.118-5.528 0-11.039.646-16.511 2.292 14.477 1.444 28.91 8.264 36.983 21.04-9.466-6.04-20.843-8.09-32.219-8.09h.022Z" fill="url(#b)"/><path d="M41.798 73.112s-3.09 2.422-6.056 6.062a36.968 36.968 0 0 0-3.14 4.478 27.67 27.67 0 0 0-2.32 5.022c-1.203 3.607-1.54 7.613-.13 11.764-3.068.967-7.995 2.242-12.259 2.079-5.927-.214-8.398-2.916-8.398-2.916 1.932-4.314 10.382-21.427 24.775-27.264l7.528.77v.005Z" fill="url(#c)"/><path d="m41.787 73.118-10.034 2.568 3.989 3.494-8.736 1.101 5.595 3.376-11.421 1.264 9.101 3.759-12.27 1.741 11.22 4.236-14 1.787 14.92 3.994c-3.067.967-7.994 2.242-12.258 2.079-5.927-.214-8.398-2.916-8.398-2.916 1.932-4.314 10.382-21.427 24.775-27.264l7.528.77h-.011v.011Z" fill="url(#d)"/><path d="M92.247 161.523a40.796 40.796 0 0 0-.348 1.859c-9.72 1.888-15.264-3.163-15.264-3.163s-2.568-3.629 9.775-12.416a43.649 43.649 0 0 1 2.258 3.866c-1.19 2.573-2.196 5.792-2.573 9.719.579-2.298 2.04-4.854 3.736-7.27a42.198 42.198 0 0 1 2.422 7.399l-.006.006Z" fill="url(#e)"/><path d="M100.887 148.893c-5.488 2.551-7.73 8.197-8.64 12.635a41.327 41.327 0 0 0-2.421-7.404c3.41-4.843 7.764-9.04 7.764-9.04s-.332-2.421-.068-5.37c1.27 5.41 3.365 9.179 3.365 9.179Z" fill="url(#f)"/><path d="M96.607 133.27c-.933 2.129-1.77 5.416-2.096 10.477 0 0-3.342 2.506-5.842 7.927a40.94 40.94 0 0 0-2.259-3.865c2.635-1.927 4.635-2.91 4.635-2.91-1.506-13.287 6.101-18.635 6.101-18.635-.511 2.382-.646 4.747-.54 7.006Z" fill="url(#g)"/><path d="M69.483 158.865c.607.624 1.837 1.186 2.736 1.304 1.494-4.596 5.388-11.714 11.624-17.158 0 0-9.45 6.208-14.36 15.854Z" fill="url(#h)"/><path d="M98.472 117.247c9.191 6.893 14.702 16.084 16.539 20.674 1.837 4.596 4.595 8.731 0 11.489-3.331 2-6.18 4.725-7.494 6.067 1.814-1.466 3.724-2.955 8.41-4.23 2.528-.691 3.674-2.41 4.191-3.961.472-1.415.415-2.96-.045-4.382-6.287-19.522-21.613-25.651-21.613-25.651l.012-.006Z" fill="url(#i)"/><path d="M99.747 67.264S87.326 68.59 83.9 70.41c-.803.427 2.489 3.489 1.786 3.894-22.915 13.325-33.831 2.91-34.314-1.074-.365-3.005-.248-7.129 2.264-8.01 0 0-1.332 8.207 10.348 5.533 4.905-1.124 8.826-4.31 13.337-6.36 5.573-2.539 11.495-2.629 17.405-3.59-1.787 1.31-4.186 2.36-5.028 4.349 1.842-.113 3.786.472 5.55 1.056 1.775.584 3.377 1.174 4.506 1.05" fill="#0E0F0F"/><path d="m83.837 80.764-1.253 4.326c-18.354 2.303-24.18-5.062-24.483-5.46 9.601 6.291 23.579 1.876 25.736 1.134Z" fill="#0A1823"/><path d="m85.725 74.275-1.882 6.49h-.006c-2.151.74-16.135 5.156-25.736-1.136-.005-.005-.005-.01-.01-.01 0-.007-.007-.007-.007-.007s.006 0 .006-.005c4.646 1.814 11.753 2.135 21.478-2.163a60.586 60.586 0 0 0 6.118-3.14c.016-.012.028-.017.039-.029Z" fill="url(#j)"/><path d="M61.393 116.955c-11.494 3.466-17.685 7.64-20.545 9.27-1.708-1.545-3.213-3.326-4.314-5.41-1.096-2.079-1.551-4.439-1.427-6.787.28-5.506 2.646-11.191 6.618-15.287h.005a46.93 46.93 0 0 1 5.287-1.73 27.746 27.746 0 0 1 4.1-.326c3.321 0 6.44.691 9.113 2.315 5.124 2.859 4.326 11.64 1.158 17.961l.005-.006Z" fill="url(#k)"/><path d="M40.849 126.23c-10.304 1.231-15.68-3.595-16.82-9.966 2.87-6.742 7.825-12.983 15.18-16.438a37.649 37.649 0 0 1 2.516-1.079c-3.978 4.101-6.337 9.781-6.624 15.287-.118 2.348.332 4.702 1.433 6.786 1.101 2.09 2.601 3.865 4.315 5.41Z" fill="url(#l)"/><path d="M21.989 116.573c-.197 6.23-2.63 7.601-2.63 7.601-15.331-5.534-10.972-22.725-10.972-22.725h.006c.337.191 11.067 6.309 13.596 15.124Z" fill="url(#m)"/><path d="M23.719 130.832c-1.427 0-2.803 1.039-2.803 1.039s1.252 9.331 11.848 14.961c0 0-5.023-6.416-6.118-12.54-.483-2.719-1.725-3.46-2.927-3.46Z" fill="url(#n)"/><path d="m28.225 129.303 4.904 4.776 1.225-2.888 4.011 3.534.202-3.27 4.697 2.691-.303-3.562c-7.573 1.63-14.736-1.281-14.736-1.281Z" fill="url(#o)"/><path d="m181.152 101.163-7.169-2.202c-.949 26.977-20.269 51.061-36.157 61.342 0 0 8.455-18.73 6.449-24.219 0 0-5.46 21.118-18.443 22.804-9.36 1.213-17.489 3.151-21.174 5.556.23-.68 6.387-9.304 17.595-12.062 10.135-2.494-1.826-35.641-29.399-39.32-10.511-1.399-17.916.46-17.916.46 7.405 1.354 11.804 5.832 11.939 5.967-.354-.124-14.663-5.253-25.49-2.534 3.17-6.32 3.967-15.101-1.156-17.96-2.675-1.619-5.793-2.315-9.113-2.315-1.331 0-2.713.118-4.09.325 4.31-1.151 8.961-1.814 13.725-2.033 13.494-.618 36.59.719 65.303 20.14-4.028-6.46-7.78-15.303-12.696-22.865-4.922-7.562-11-13.837-19.697-15.168 3.787-.4 7.646-.63 11.511-.63 11.382 0 22.753 2.045 32.219 8.09-8.078-12.775-22.505-19.59-36.983-21.04 5.467-1.64 10.978-2.291 16.512-2.291 7.938 0 23.578 2.91 24.724 3.118h.028c1.731 1.432 4.45 3.719 6.568 5.708l16.921-3.618c13.236 15.988 15.995 34.741 15.995 34.741l-.006.006Z" fill="url(#p)"/><path d="M93.78 177.843c-11.174 6.073-31.59 1.393-34.505.68-.225-.057-.348-.09-.348-.09s.005.011.022.039c.31.534 4.107 6.691 15.444 8.466 12.697 1.478 24.798-3.696 24.798-3.696s-3.77-1.287-3.77-2.472a.57.57 0 0 1 .096-.32c3.556-5.489 4.36-11.349 9.14-16.017.039-.118.264-.483.669-1.023 1.095-1.46 3.522-4.185 7.174-6.657-11.337 6.584-15.534 15.421-18.72 21.09Z" fill="url(#q)"/><path d="M72.09 161.91s6.438 10.843 18.798 11.427c2.005-1.404 4.578-5.472 5.42-7.691-8.583 1.77-19.516-.354-24.218-3.736Z" fill="url(#r)"/><path d="M95.421 180.775c0-.112.028-.213.096-.32-.483.775-1.905-1.781-1.736-2.612-11.175 6.073-31.59 1.393-34.506.68-.225-.057-.348-.09-.348-.09s.005.011.022.039c.31.534 4.107 6.691 15.444 8.466 12.697 1.478 24.798-3.696 24.798-3.696s-3.77-1.287-3.77-2.472v.005Z" fill="url(#s)"/><path d="m185.567 108.331-6.067-2.202c-2.758 24.815-25.483 48.528-41.668 54.174 15.893-10.281 35.207-34.365 36.157-61.342l7.168 2.202s-2.758-18.753-15.994-34.742l-16.921 3.618 21.337-5.826c11.022 14.888 14.724 31.691 15.994 44.118h-.006Z" fill="url(#t)"/><path d="M122.253 152.376c4.393-1.483-.663-23.674-16.231-34.91 5.141 2.888 9.354 6.815 12.551 10.995 7.966 10.427 9.629 22.449 3.68 23.91v.005Z" fill="url(#u)"/><path d="M99.19 183.242s-12.1 5.174-24.797 3.696c-11.343-1.775-15.135-7.932-15.444-8.466 0-.006-.005-.006-.011-.011v-.023c.343.208 14.994 9.045 33.477 3.332-.59 1.376 6.787 1.472 6.787 1.472h-.011Z" fill="url(#v)"/><path d="M122.253 152.376c5.455-1.842 1.354-12.977.011-15.887-1.163-2.523-2.348-5.259-3.691-8.028 7.967 10.427 9.629 22.449 3.68 23.91v.005Z" fill="url(#w)"/><path d="M74.41 163.247s5.96 3.815 17.612 3.685c0 0-.258 2.888-2.926 3.821 0 0-8.905-2.686-14.686-7.506Z" fill="#fff"/><path d="M66.848 174.719s13.18 4.494 23.416 1.146l-9.326-1.977-2.382 1.191-2.983-2.978-4.152 3.084-3.82-3.539-.758 3.079.005-.006Z" fill="url(#x)"/><path d="M61.146 144.854c-5.983-8.135-7.062-17.837-7.062-17.837-3.534.258-6.882 3.112-6.882 3.112s3.259 8.506 13.944 14.731v-.006Z" fill="url(#y)"/><path d="M63.534 168.202c-6.703.208-13.444-2.18-13.444-2.18 5.23 6.922 11.64 7.175 11.64 7.175 3.472-3.012 1.804-5 1.804-5v.005Z" fill="url(#z)"/><path d="M54.084 127.011s1.079 9.708 7.062 17.843c0 0-5.781-4.882-7.674-10.725l.612-7.118ZM50.09 166.028c5.208 3.663 13.011 4.77 13.011 4.77.652-1.27.433-2.59.433-2.59-6.703.208-13.444-2.18-13.444-2.18Z" fill="#fff"/><path d="m45.596 103.371-.433.966s.854.635 2.113.489c.483-.056 1.157-.337 1.157-.337s.663-1.253-.843-1.45c-.876-.112-1.989.332-1.989.332M49.652 100.129l-.585 1.394s1.096.893 2.73.657c.63-.09 1.506-.511 1.506-.511s.888-1.815-1.061-2.062c-1.135-.146-2.585.522-2.585.522M44.849 108.219l-.433.966s.854.635 2.112.489c.49-.056 1.152-.337 1.152-.337s.669-1.253-.843-1.449c-.876-.113-1.988.331-1.988.331ZM48.899 104.972l-.584 1.393s1.1.893 2.73.658c.635-.09 1.5-.512 1.5-.512s.893-1.809-1.062-2.062c-1.13-.146-2.584.517-2.584.517M44.27 115.253l-.439.966s.86.635 2.113.489c.483-.056 1.152-.337 1.152-.337s.663-1.253-.843-1.455c-.877-.113-1.989.337-1.989.337M48.32 112.011l-.59 1.394s1.102.893 2.73.657c.636-.09 1.5-.511 1.5-.511s.894-1.815-1.061-2.062c-1.13-.146-2.584.522-2.584.522M56.236 98.517l-.792 1.949s1.466 1.236 3.668.894c.854-.13 2.029-.72 2.029-.72s1.213-2.528-1.41-2.86c-1.523-.19-3.49.742-3.49.742M56.786 103.652l-.797 1.949s1.472 1.236 3.668.888c.849-.129 2.023-.719 2.023-.719s1.213-2.528-1.41-2.86c-1.523-.191-3.49.742-3.49.742M56.259 109.511l-.798 1.944s1.466 1.236 3.669.893c.848-.129 2.028-.719 2.028-.719s1.207-2.528-1.41-2.859c-1.523-.197-3.484.741-3.484.741" fill="#0E0F0F"/><path d="M183.747 40.669c-2.831 9.1-31.843 22.915-39.466 25.842a1644.063 1644.063 0 0 1-4.837-4.011c-3.203-2.652-6.601-5.45-10.09-8.174l-.017-.011c-3.59-2.804-7.27-5.517-10.893-7.905l-.045-.028-4.073-2.955c14.41 2.545 28.399 3.607 43.264 2.68.005.005.011.005.017 0 .533-.034 1.067-.079 1.606-.124.152-.011.304-.022.461-.04.062 0 .129 0 .197-.016.522-.04 1.05-.09 1.567-.146h.017c.64-.068 1.281-.135 1.921-.214a75.898 75.898 0 0 0 1.938-.247c.652-.084 1.298-.18 1.944-.286a108.59 108.59 0 0 0 1.961-.332 89.802 89.802 0 0 0 3.848-.77.226.226 0 0 1 .085-.016c.612-.14 1.219-.287 1.825-.439l.062-.016c.32-.08.641-.163.955-.248.32-.084.635-.168.95-.258.314-.084.629-.174.943-.27.366-.106.731-.213 1.096-.331 1.191-.37 2.371-.77 3.517-1.208.005.006.005 0 .005 0 .405-.152.804-.309 1.203-.466.017-.006.022-.011.022-.006l.017-.005Z" fill="url(#A)"/><path d="M167.854 44.944c-3.377 6.084-26.146 19.393-26.146 19.393l-2.264-1.837 5.882-6.826-9.371 3.169 7.623-7.096-14.224 2.579-.017-.011c-3.59-2.804-7.27-5.517-10.893-7.905l-.045-.028-4.073-2.955c14.41 2.545 28.399 3.607 43.264 2.68.005.005.011.005.017 0a88.043 88.043 0 0 0 2.067-.163c.59-.045 1.18-.101 1.764-.163h.017c.64-.067 1.281-.135 1.921-.214a76.348 76.348 0 0 0 1.938-.247c.652-.084 1.298-.18 1.944-.286.197-.028.388-.056.585-.09h.011Z" fill="#0E0F0F"/><path d="M187.579 38.938a52.26 52.26 0 0 1-3.854 1.736c-.399.157-.798.315-1.202.466 0 0 0 .006-.006 0A58.836 58.836 0 0 1 179 42.348a40.7 40.7 0 0 1-1.095.332l-.944.27c-.315.09-.629.174-.95.258-.314.084-.635.168-.955.247-.022.006-.045.011-.062.017-.606.152-1.213.298-1.825.438a.23.23 0 0 0-.085.017c-1.275.286-2.561.54-3.848.77-.652.118-1.303.224-1.961.331-.646.101-1.292.197-1.943.287-.647.09-1.293.168-1.939.247-.64.078-1.281.146-1.921.213h-.017c-.522.056-1.045.101-1.567.146a1.225 1.225 0 0 1-.197.017c-.152.011-.309.028-.461.04-.539.044-1.073.084-1.606.123h-.017c-14.86.927-28.854-.135-43.264-2.68 14.005.776 28.798.725 42.578-1.331.006.005.012.005.012 0a91.01 91.01 0 0 0 2.129-.32c3-.461 5.674-.972 7.994-1.484.349-.067.708-.151 1.04-.23a97.737 97.737 0 0 0 7.162-1.876h-.022c2.045-.635 3.146-1.068 3.146-1.073l9.219 1.825-.022.006Z" fill="url(#B)"/><path d="M175.214 38.185c-.427.135-.86.264-1.298.388-1.91.556-3.871 1.045-5.826 1.489 0 0-.006.005-.011 0-.276.062-.556.123-.843.19-.062.012-.124.029-.185.04-.006.006-.012 0-.012 0a144.27 144.27 0 0 1-5.657 1.101c-.006 0-.011 0-.022.006-.63.106-1.281.213-1.95.32-.118.017-.23.04-.348.056-.006.006-.011 0-.011 0-.691.107-1.399.214-2.13.32 0 .006-.005.006-.011 0-2.399.354-4.82.652-7.275.894h-.006c-1.421.14-2.859.264-4.297.37a203.345 203.345 0 0 1-8.427.427c-3.557.107-7.124.124-10.669.068h-.185c-.118-.006-.236-.006-.354-.011-1.13-.017-2.27-.045-3.394-.073a333.75 333.75 0 0 1-7.971-.343c.764-.259 1.511-.511 2.252-.77 14.849-5.129 23.624-9.387 26.444-10.972 9.618 2.062 26.657 5.939 32.197 6.495l-.011.005Z" fill="url(#C)"/><path d="M75.837 72.28c-.6 2.057-3.899 2.214-7.236 2.338h-.258c-.45 0-.899-.045-1.337-.112a14.295 14.295 0 0 0 2.584 2.415c4.669-.382 7.489-2.629 7.736-4.983-.5.118-.994.23-1.494.337" fill="url(#D)"/><path d="M63.213 73.326s.669 2.236 2.292 3.483c1.49.197 2.849.22 4.09.112a14.289 14.289 0 0 1-2.584-2.415c-1.573-.253-2.983-.871-3.798-1.186v.006Z" fill="url(#E)"/><path d="M74.292 72.837h-.062c-.944-.023-1.702-.652-1.685-1.399.01-.73.752-1.303 1.668-1.303h.062c.944.028 1.697.651 1.685 1.399-.005.73-.747 1.303-1.662 1.303" fill="#BFBCBD"/><path d="m60.944 25.972-6.966 9.54a154.352 154.352 0 0 0-3.882 3.617c-.073-.275-2.405-9.225 1.545-13.489l9.297.332h.006Z" fill="url(#F)"/><path d="M91.994 53.04a.9.9 0 0 0 .13-.063l-.034.04-.096.022Z" fill="#0E0F0F"/><path d="M66.13 25.888 36.32 59.19c-.005.028-8.185 2.006-8.185 2.006 3.241-3.49 15.966-16.107 21.96-22.062 4.669-4.5 9.703-8.832 15.045-12.562.05-.045.708-.5.984-.685h.005Z" fill="url(#G)"/><path d="M30.607 66.186c-6.826-5.17 2.348-11.287 1.809-11.366 0 0-13.45 9.714-7.68 15.815 2.433 2.573 8.073 2.354 8.073 2.354l3.483-13.725-5.691 6.922h.006Z" fill="#0E0F0F"/><path d="m29.343 71.23 1.887.287L26.9 67.01s-.146 3.438 2.444 4.22Z" fill="url(#H)"/><path d="m66.511 52.815.944 2.073 2.247.044 2.697-1.915s-.888-.9-2.18-1.068c-1.77-.23-3.708.866-3.708.866ZM47.09 53.348l.944 2.073 2.247.04 2.697-1.91s-.894-.905-2.18-1.074c-1.77-.23-3.703.871-3.703.871h-.005ZM39.303 57.219l.944 2.079 2.247.045 2.697-1.916s-.893-.905-2.18-1.068c-1.77-.23-3.708.866-3.708.866v-.006ZM77.668 36.45c1.63-.372 4.416-1.546 4.416-1.546l-.399-1.842-2.747-.214s-6.118.826-6.101 2.326c.742-.062 1.652.938 1.095 1.062 0 .174.023.32.073.489.102.325 1.787.151 3.669-.276h-.006ZM56.983 47.601c1.214-.506 3.214-1.82 3.214-1.82l-.528-1.478-2.14.158s-4.613 1.427-4.422 2.668c.556-.14 1.388.579.966.753.023.146.056.264.118.393.118.259 1.399-.09 2.787-.674h.005ZM88.713 40.258c1.658-.23 4.534-1.163 4.534-1.163l-.236-1.865-2.719-.45s-6.163.304-6.28 1.798c.74 0 1.567 1.08.994 1.152-.017.174 0 .32.033.495.073.331 1.77.309 3.68.039l-.005-.006ZM59.803 38.331c1.624-.567 4.366-2.123 4.366-2.123l-.506-1.927-2.78.056s-6.125 1.534-6.023 3.135c.741-.14 1.719.837 1.157 1.028.011.19.045.343.101.511.124.343 1.815-.022 3.685-.68ZM67.135 29.28c1.623-.572 4.365-2.123 4.365-2.123l-.506-1.927-2.78.056s-6.118 1.528-6.023 3.135c.742-.14 1.72.832 1.157 1.028.012.191.04.343.107.512.124.337 1.81-.023 3.68-.68ZM62.068 52.5c1.556-.612 4.134-2.185 4.134-2.185l-.674-1.759-2.753.191s-5.921 1.725-5.68 3.208c.72-.169 1.776.685 1.236.888.029.174.073.314.152.472.152.309 1.792-.113 3.585-.82v.005ZM155.017 92.623c.522 2.725 2.342 7.439 2.342 7.439l3.22-.427.589-4.478s-.966-10.135-3.567-10.298c.051 1.22-1.758 2.596-1.932 1.658-.309-.023-.557 0-.854.067-.579.13-.399 2.91.196 6.045l.006-.006ZM154.371 122.427c-.787 2.652-1.349 7.674-1.349 7.674l3.062 1.096 2.59-3.714s3.826-9.444 1.584-10.775c-.522 1.101-2.758 1.5-2.477.584a3.073 3.073 0 0 0-.787-.331c-.567-.146-1.702 2.404-2.623 5.46v.006ZM118.893 93.742l3.832 6.955-2.276 4.219-4.696 2.331-5.051-5.854 1.528-6.365 6.663-1.287ZM93.101 71.708l6.382 5.595-2.056 2.46-4.635 1.141-5.523-3.927 1.152-3.831 4.68-1.438ZM124.05 77.607l5.321 6.494-1.944 3.112-4.146 1.64-4.657-4.5 1.224-4.74 4.202-2.006ZM147.028 77.163l5.315 6.494-1.939 3.113-4.146 1.64-4.657-4.506 1.225-4.736 4.202-2.005ZM116.236 60.573l5.314 6.5-1.943 3.112-4.146 1.635-4.658-4.5 1.225-4.736 4.208-2.011ZM134.567 58.764l5.321 6.5-1.944 3.112-4.146 1.635-4.652-4.5 1.225-4.736 4.196-2.011ZM102.354 51.528l5.59 5.708-1.899 2.623-4.185 1.304L97 57.185l1.124-4.039 4.23-1.618ZM73.562 45.253l4.196 3.399-1.314 1.455-3.012.64-3.629-2.393.72-2.276 3.039-.825ZM133.798 117.359l3.522 6.439-2.005 4.359-4.534 2.618-5.416-5.517 1.118-6.449 7.315-1.45ZM143.382 42.933c4.932-.08 9.91-.433 9.747-1.23l-.652-3.231-5.927-.966c-3.573-.585-10.949-.5-13.944 1.708 2.882.572 7.506-1.259 9.545 1.55-2.505 1.264-6.073-.23-8.191 1.865.691.236 5.04.377 9.422.304ZM88.337 45.815l5.55 4.988-1.803 2.214-4.05 1.033-4.815-3.494 1.022-3.432 4.096-1.31ZM111.309 42.393l5.32 6.494L114.685 52l-4.146 1.635-4.657-4.5 1.225-4.736 4.202-2.006ZM147.719 97.101l-.882 3.663-3.124 3.101-4.651-4.236.107-4.522-1.461.758-.186 8.899 6.433 6.219 4.298-4.5 1.421-6.286-1.955-3.096ZM96.348 33.309c2.343-.287 6.405-1.478 6.405-1.478l-.366-2.477-3.86-.635s-8.724.315-8.864 2.292c1.05.017 2.236 1.45 1.427 1.545-.017.23 0 .421.056.652.112.45 2.511.432 5.208.107l-.006-.006ZM101.286 22.314c2.343-.286 6.405-1.477 6.405-1.477l-.365-2.478-3.86-.634s-8.724.314-8.865 2.292c1.05.011 2.236 1.45 1.427 1.54-.017.23 0 .426.056.65.113.445 2.511.433 5.208.107h-.006ZM84.826 25.73c2.343-.28 6.404-1.477 6.404-1.477l-.365-2.478-3.86-.635s-8.73.315-8.87 2.293c1.05.01 2.236 1.449 1.427 1.544-.017.23 0 .422.056.652.107.444 2.506.427 5.208.101ZM121.685 31.938c3.933-.522 10.759-2.652 10.759-2.652l-.59-4.326-6.467-1.067s-14.634.646-14.893 4.107c1.759.011 3.73 2.511 2.377 2.68-.029.404-.006.741.084 1.14.18.775 4.202.725 8.73.124v-.006Z" fill="#0E0F0F"/><path d="m137.516 18.303-.101 1.085-.045.5s-.033.005-.106.005a13.036 13.036 0 0 1-.399.034l-.719.045-.264.017c-.455.028-1 .061-1.596.09-.196.01-.404.016-.612.028-.028 0-.056.005-.09.005l-.433.017c-2.247.09-4.927.135-6.859-.04-4.551-.415-8.483-1.252-8.483-2.05a3.365 3.365 0 0 1 .168-1.129c.568.056.663-.416.45-1.011-.017-.062-.045-.124-.073-.191-.034-.068-.062-.135-.102-.203a3.677 3.677 0 0 0-.393-.6 2.655 2.655 0 0 0-.163-.197c-.056-.062-.112-.124-.174-.186a4.278 4.278 0 0 0-.388-.325 2.697 2.697 0 0 0-.421-.259 2.657 2.657 0 0 0-.225-.095 1.637 1.637 0 0 0-.219-.068h-.005a1.17 1.17 0 0 1 .146-.309c.224-.354.629-.623 1.168-.826.837.096 1.669.214 2.5.354 6.91 1.186 12.658 3.124 17.343 5.27.034.017.067.028.101.045l-.006-.006ZM168.326 85.365c.522 2.725 2.342 7.438 2.342 7.438l3.225-.427.584-4.477s-.96-10.135-3.561-10.298c.05 1.22-1.759 2.596-1.933 1.657-.303-.022-.556 0-.848.068-.579.129-.405 2.91.196 6.045" fill="#0A1823"/><path d="M104.455 46.831c-12.41 5.922-23.989 12.9-37.438 16.23-3.185.523-6.332.827-9.382.86-2.247.029-6.927-.623-6.264-4.028.444-1.702 1.494-3.809 2.893-6.073.056-.09.112-.18.174-.275 14.332 2.416 37.669-3.517 50.023-6.714h-.006Z" fill="url(#I)"/><path d="m71.702 53.511-1.994 1.422-2.247-.045-.439-.96c1.534-.102 3.096-.242 4.68-.416Z" fill="url(#J)"/><path d="m93.888 50.81-1.764 2.168a.928.928 0 0 1-.13.061l-3.96 1.012-3.523-2.562c2.82-.55 5.573-1.152 8.191-1.753l1.186 1.068v.005Z" fill="url(#K)"/><path d="m59.775 58.169-2.702 1.91-2.242-.04-.95-2.072s1.585-.9 3.209-.9c.168 0 .337.012.505.034 1.287.169 2.175 1.068 2.175 1.068h.005Z" fill="url(#L)"/><path d="m149.483 31.067-4.432 1.056s-.04 0-.056-.01c-.697-.152-1.36-.293-1.978-.428-2.073-2.157-10.736-10.05-29.287-13.674-4.185-.82-8.342-1.151-12.331-1.151-10.511 0-19.809 2.219-25.202 3.898 6.758-2.19 19.545-5.606 32.393-5.606 3.315 0 6.624.23 9.843.78.382.062.764.135 1.146.208 5.303 1.034 9.798 2.455 13.556 3.995 9.213 3.786 14.017 8.342 15.579 10.022.095.107.196.214.286.32.051.057.096.107.129.152.028.034.051.062.073.096.163.196.276.342.276.342h.005Z" fill="url(#M)"/><path d="M118.438 15.933c-3.219-.55-6.528-.781-9.843-.781-12.848 0-25.64 3.415-32.393 5.607 7.14-2.534 14-4.4 21.55-5.635 6.327-1.04 14.989-1.68 17.315-1.68.585 0 1.034.005 1.343.022a1.13 1.13 0 0 0-.146.31c1.006.235 1.893 1.325 2.174 2.157Z" fill="url(#N)"/><path d="m154.045 30.169-4.562.898-.348-.438a2.355 2.355 0 0 0-.13-.151c-.09-.107-.191-.214-.286-.32-1.556-1.68-6.36-6.237-15.579-10.023 2.36-.096 4.225-.242 4.225-.242l.045-.5c.455.203.904.405 1.348.613a83.506 83.506 0 0 1 8.023 4.309c1.938 1.174 3.342 2.095 4.342 2.831 1.04.944 1.792 1.73 2.276 2.27.432.483.646.758.646.758v-.005Z" fill="url(#O)"/><path d="M118.067 16.91h-.089a3.34 3.34 0 0 0-.169 1.13c0 .797 3.933 1.634 8.483 2.056.955.084 2.101.117 3.281.117 1.18 0 2.438-.033 3.567-.078-3.758-1.545-8.247-2.955-13.556-3.995a37.975 37.975 0 0 0-1.151-.207c.185.55.106.983-.371.983" fill="url(#P)"/><path d="M36.32 59.185c-.005.028-.017.05-.022.079l-5.686 6.921c-2.162-1.635-2.724-3.376-2.488-4.977l.011-.011s8.18-1.978 8.185-2.006v-.006Z" fill="url(#Q)"/><path d="M32.787 72.994c-2.972 1.4-5.669 3.276-8.096 5.382-.607-1.118-3.837-.466-3.663-1.539.472-2.955 2.27-4.96 3.742-6.157 2.354 2.432 7.579 2.331 8.017 2.32v-.006Z" fill="url(#R)"/><path d="M146.022 93.37c-4.162-.151-56.516-1.853-84.887 7.265 0 0 1.213-2.528-1.41-2.865a4.447 4.447 0 0 0-1.248.044c.697-.196 19.012-5.218 59.489-5.218 8.416 0 17.753.224 28.056.775Z" fill="url(#S)"/><path d="M143.91 99.54s-52.556-.416-82.225 6.235c0 0 1.208-2.533-1.41-2.865a3.356 3.356 0 0 0-.674-.017h-.011.005s23.225-4.303 57.663-4.303h.012c8.359 0 17.303.275 26.64.944v.005Z" fill="url(#T)"/><path d="M142.292 105.36s-48.472-1.169-81.135 6.269c0 0 1.208-2.533-1.41-2.865a4.369 4.369 0 0 0-1.146.028c1.528-.286 23.82-4.382 57.045-4.382h.011c8.36 0 17.304.27 26.641.944l-.006.006Z" fill="url(#U)"/><path d="M151.129 27.14c-1-.73-2.404-1.651-4.342-2.83a72.524 72.524 0 0 0-8.023-4.31c-.444-.208-.893-.41-1.348-.612l-.045.5s-1.865.146-4.225.241a3.098 3.098 0 0 0-.123-.05c-3.731-1.517-8.186-2.922-13.433-3.944-.382-.073-.764-.146-1.146-.208-.247-.725-.955-1.652-1.804-2.034 0 0-.016-.005-.022-.01a2.503 2.503 0 0 0-.348-.113c0-.006.005-.011.005-.017a1.17 1.17 0 0 1 .141-.292h-.129a34.05 34.05 0 0 0-1.214-.017c-2.326 0-10.983.64-17.314 1.68-7.551 1.236-14.41 3.106-21.551 5.635a179.415 179.415 0 0 0-4.843 1.792c1.281-.624 21.433-10.22 40.54-10.22 1.842 0 3.685.09 5.494.287l.18.017c.837.095 1.668.213 2.5.354 6.91 1.185 12.657 3.123 17.342 5.27.034.016.068.028.102.044 6.533 3.017 10.988 6.439 13.612 8.837h-.006Z" fill="#C4BA9B"/><path d="M60.759 94.978c-6.792.309-13.343 1.522-19.023 3.764h-.005c-.86.337-1.697.702-2.517 1.084-7.36 3.455-12.315 9.697-15.18 16.438 0 0 0-.045-.017-.129 0-.023-.006-.045-.011-.073 0-.051-.006-.118-.011-.186-.163-1.893-.315-10.168 8.68-13.634l.443-2.798v-.028c5.472-30.04 28.5-26.506 28.5-26.506-7.13 4.607.174 6.753.174 6.753-17.275 1.584-24.708 16.96-24.708 16.96 11.197-4.82 23.669-1.64 23.669-1.64l.006-.005Z" fill="#0A1823"/><path d="M33.118 99.416v.028l-.45 2.798c-8.994 3.466-8.842 11.741-8.68 13.634 0 .068.012.135.012.186.006.028.011.05.011.073l.017.129-2.04.315c-2.527-8.815-13.258-14.933-13.595-15.118h-.005l1.106-1.837v-.012s2.478 2.703 8.405 2.916c4.264.157 9.19-1.112 12.258-2.079 1.804-.561 2.967-1.022 2.967-1.022l-.006-.011Z" fill="url(#V)"/><defs><linearGradient id="a" x1="45.056" y1="29.691" x2="167.191" y2="65.86" gradientUnits="userSpaceOnUse"><stop stop-color="#FFD489"/><stop offset="1" stop-color="#C87A29"/></linearGradient><linearGradient id="b" x1="29.882" y1="16.152" x2="88.91" y2="103.438" gradientUnits="userSpaceOnUse"><stop stop-color="#FFD489"/><stop offset=".06" stop-color="#FBCE82"/><stop offset=".7" stop-color="#D69142"/><stop offset="1" stop-color="#C87A29"/></linearGradient><linearGradient id="c" x1="29.332" y1="88.495" x2="172.652" y2="165.669" gradientUnits="userSpaceOnUse"><stop stop-color="#FFD489"/><stop offset="1" stop-color="#C87A29"/></linearGradient><linearGradient id="d" x1="28.203" y1="71.758" x2="19.399" y2="122.112" gradientUnits="userSpaceOnUse"><stop stop-color="#fff"/><stop offset=".01" stop-color="#fff"/><stop offset="1" stop-color="#FFD489"/></linearGradient><linearGradient id="e" x1="84.326" y1="143.86" x2="84.326" y2="183.354" gradientUnits="userSpaceOnUse"><stop stop-color="#F58C82"/><stop offset=".02" stop-color="#F58C82"/><stop offset=".52" stop-color="#EB2033"/><stop offset="1" stop-color="#9B2E3E"/></linearGradient><linearGradient id="f" x1="100.573" y1="137.809" x2="88.691" y2="169.006" gradientUnits="userSpaceOnUse"><stop stop-color="#9B2E3E"/><stop offset=".24" stop-color="#BC2839"/><stop offset=".53" stop-color="#EB2033"/><stop offset=".62" stop-color="#EC2F3E"/><stop offset=".8" stop-color="#F0565B"/><stop offset="1" stop-color="#F58C82"/></linearGradient><linearGradient id="g" x1="92.534" y1="140.332" x2="85.146" y2="159.725" gradientUnits="userSpaceOnUse"><stop stop-color="#9B2E3E"/><stop offset=".67" stop-color="#EB2033"/><stop offset=".98" stop-color="#F58C82"/><stop offset="1" stop-color="#F58C82"/></linearGradient><linearGradient id="h" x1="69.438" y1="151.169" x2="83.421" y2="151.86" gradientUnits="userSpaceOnUse"><stop stop-color="#067BC0"/><stop offset=".02" stop-color="#067BC0"/><stop offset="1" stop-color="#19375F"/></linearGradient><linearGradient id="j" x1="90.635" y1="70.624" x2="71.944" y2="79.714" gradientUnits="userSpaceOnUse"><stop stop-color="#fff"/><stop offset=".01" stop-color="#fff"/><stop offset="1" stop-color="#FFD489"/></linearGradient><linearGradient id="n" x1="20.337" y1="137.82" x2="33.578" y2="139.494" gradientUnits="userSpaceOnUse"><stop stop-color="#fff"/><stop offset="1" stop-color="#566364"/></linearGradient><linearGradient id="p" x1="41.169" y1="57.27" x2="134.674" y2="115.286" gradientUnits="userSpaceOnUse"><stop stop-color="#FFD489"/><stop offset="1" stop-color="#C87A29"/></linearGradient><linearGradient id="q" x1="88.809" y1="148.652" x2="104.157" y2="54.691" gradientUnits="userSpaceOnUse"><stop stop-color="#FFD489"/><stop offset="1" stop-color="#C87A29"/></linearGradient><linearGradient id="r" x1="86.455" y1="158.573" x2="75.899" y2="182.983" gradientUnits="userSpaceOnUse"><stop stop-color="#fff"/><stop offset="1" stop-color="#566364"/></linearGradient><linearGradient id="s" x1="72.196" y1="188.444" x2="97.719" y2="160.169" gradientUnits="userSpaceOnUse"><stop stop-color="#fff"/><stop offset=".01" stop-color="#fff"/><stop offset="1" stop-color="#FFD489"/></linearGradient><linearGradient id="t" x1="156.921" y1="163.522" x2="170.899" y2="59.427" gradientUnits="userSpaceOnUse"><stop stop-color="#FFD489"/><stop offset="1" stop-color="#C87A29"/></linearGradient><linearGradient id="u" x1="85.843" y1="124.539" x2="63.371" y2="116.287" gradientUnits="userSpaceOnUse"><stop stop-color="#FFD489"/><stop offset="1" stop-color="#C87A29"/></linearGradient><linearGradient id="v" x1="150.258" y1="196.298" x2="128.674" y2="192.444" gradientUnits="userSpaceOnUse"><stop stop-color="#fff"/><stop offset=".01" stop-color="#fff"/><stop offset="1" stop-color="#FFD489"/></linearGradient><linearGradient id="w" x1="116.32" y1="167.713" x2="145.023" y2="22.309" gradientUnits="userSpaceOnUse"><stop stop-color="#FFD489"/><stop offset="1" stop-color="#C87A29"/></linearGradient><linearGradient id="x" x1="66.848" y1="174.371" x2="90.264" y2="174.371" gradientUnits="userSpaceOnUse"><stop stop-color="#fff"/><stop offset="1" stop-color="#566364"/></linearGradient><linearGradient id="y" x1="51.511" y1="123.787" x2="58.18" y2="158.079" gradientUnits="userSpaceOnUse"><stop stop-color="#fff"/><stop offset="1" stop-color="#566364"/></linearGradient><linearGradient id="z" x1="51.101" y1="163.691" x2="75.461" y2="180.876" gradientUnits="userSpaceOnUse"><stop stop-color="#fff"/><stop offset="1" stop-color="#566364"/></linearGradient><linearGradient id="A" x1="136.938" y1="17.191" x2="152.387" y2="48.944" gradientUnits="userSpaceOnUse"><stop stop-color="#FFD489"/><stop offset="1" stop-color="#855121"/></linearGradient><linearGradient id="B" x1="114.326" y1="41.775" x2="187.579" y2="41.775" gradientUnits="userSpaceOnUse"><stop stop-color="#fff"/><stop offset=".01" stop-color="#fff"/><stop offset="1" stop-color="#FFD489"/></linearGradient><linearGradient id="C" x1="180.382" y1="37.567" x2="88.169" y2="38.039" gradientUnits="userSpaceOnUse"><stop stop-color="#FFD489"/><stop offset="1" stop-color="#C87A29"/></linearGradient><linearGradient id="D" x1="76.764" y1="72.511" x2="69.062" y2="75.781" gradientUnits="userSpaceOnUse"><stop stop-color="#65A744"/><stop offset=".02" stop-color="#65A744"/><stop offset="1" stop-color="#03793E"/></linearGradient><linearGradient id="E" x1="66.584" y1="75.714" x2="102.208" y2="85.995" gradientUnits="userSpaceOnUse"><stop stop-color="#65A744"/><stop offset=".02" stop-color="#65A744"/><stop offset="1" stop-color="#03793E"/></linearGradient><linearGradient id="F" x1="87.59" y1="61.506" x2="40.051" y2="18.584" gradientUnits="userSpaceOnUse"><stop stop-color="#FFD489"/><stop offset="1" stop-color="#C87A29"/></linearGradient><linearGradient id="G" x1="29.444" y1="62.989" x2="63.657" y2="28.208" gradientUnits="userSpaceOnUse"><stop stop-color="#fff"/><stop offset=".01" stop-color="#fff"/><stop offset="1" stop-color="#FFD489"/></linearGradient><linearGradient id="H" x1="26.686" y1="68.871" x2="31.186" y2="69.652" gradientUnits="userSpaceOnUse"><stop stop-color="#65A744"/><stop offset=".02" stop-color="#65A744"/><stop offset="1" stop-color="#03793E"/></linearGradient><linearGradient id="I" x1="49.899" y1="55.377" x2="84.91" y2="55.377" gradientUnits="userSpaceOnUse"><stop stop-color="#FEE4BB"/><stop offset="1" stop-color="#F8C97C"/></linearGradient><linearGradient id="J" x1="79.848" y1="52.231" x2="55.809" y2="56.837" gradientUnits="userSpaceOnUse"><stop stop-color="#ACA582"/><stop offset=".99" stop-color="#A8BCC6"/><stop offset="1" stop-color="#A8BCC6"/></linearGradient><linearGradient id="K" x1="80.157" y1="53.848" x2="56.118" y2="58.455" gradientUnits="userSpaceOnUse"><stop stop-color="#ACA582"/><stop offset=".99" stop-color="#A8BCC6"/><stop offset="1" stop-color="#A8BCC6"/></linearGradient><linearGradient id="L" x1="80.208" y1="54.101" x2="56.163" y2="58.708" gradientUnits="userSpaceOnUse"><stop stop-color="#ACA582"/><stop offset=".16" stop-color="#ACA88C"/><stop offset=".99" stop-color="#A8BCC6"/><stop offset="1" stop-color="#A8BCC6"/></linearGradient><linearGradient id="M" x1="61.107" y1="23.635" x2="141.5" y2="23.635" gradientUnits="userSpaceOnUse"><stop stop-color="#F5C578"/><stop offset="1" stop-color="#E5AE67"/></linearGradient><linearGradient id="N" x1="153.489" y1="17.096" x2="66.073" y2="17.096" gradientUnits="userSpaceOnUse"><stop stop-color="#F5C780"/><stop offset=".99" stop-color="#FBE9CE"/></linearGradient><linearGradient id="O" x1="153.488" y1="25.23" x2="66.073" y2="25.23" gradientUnits="userSpaceOnUse"><stop stop-color="#F5C780"/><stop offset=".99" stop-color="#FBE9CE"/></linearGradient><linearGradient id="P" x1="103.719" y1="18.073" x2="186.713" y2="18.073" gradientUnits="userSpaceOnUse"><stop stop-color="#5D6F6B"/><stop offset=".99" stop-color="#597785"/><stop offset="1" stop-color="#597785"/></linearGradient><linearGradient id="Q" x1="97.135" y1="82.376" x2="74.955" y2="75.517" gradientUnits="userSpaceOnUse"><stop stop-color="#FFD489"/><stop offset="1" stop-color="#C87A29"/></linearGradient><linearGradient id="R" x1="93.056" y1="95.579" x2="70.877" y2="88.719" gradientUnits="userSpaceOnUse"><stop stop-color="#FFD489"/><stop offset="1" stop-color="#C87A29"/></linearGradient><linearGradient id="V" x1="7.854" y1="105.225" x2="31.517" y2="108.551" gradientUnits="userSpaceOnUse"><stop stop-color="#F58C82"/><stop offset=".02" stop-color="#F58C82"/><stop offset=".52" stop-color="#EB2033"/><stop offset="1" stop-color="#9B2E3E"/></linearGradient><radialGradient id="i" cx="0" cy="0" r="1" gradientUnits="userSpaceOnUse" gradientTransform="matrix(25.2416 0 0 39.1244 122.466 146.285)"><stop stop-color="#7CA3D5"/><stop offset=".02" stop-color="#7CA3D5"/><stop offset=".19" stop-color="#0E6CA8"/><stop offset="1" stop-color="#19375F"/></radialGradient><radialGradient id="k" cx="0" cy="0" r="1" gradientUnits="userSpaceOnUse" gradientTransform="translate(30.567 108.438) scale(50.4719)"><stop stop-color="#fff"/><stop offset="1" stop-color="#566364"/></radialGradient><radialGradient id="l" cx="0" cy="0" r="1" gradientUnits="userSpaceOnUse" gradientTransform="translate(32.562 114.573) scale(218.865)"><stop stop-color="#fff"/><stop offset="1" stop-color="#566364"/></radialGradient><radialGradient id="m" cx="0" cy="0" r="1" gradientUnits="userSpaceOnUse" gradientTransform="translate(11.736 107.899) scale(72.4663)"><stop stop-color="#fff"/><stop offset="1" stop-color="#566364"/></radialGradient><radialGradient id="o" cx="0" cy="0" r="1" gradientUnits="userSpaceOnUse" gradientTransform="matrix(39.3259 0 0 39.3258 20.146 123)"><stop stop-color="#fff"/><stop offset="1" stop-color="#566364"/></radialGradient><radialGradient id="S" cx="0" cy="0" r="1" gradientUnits="userSpaceOnUse" gradientTransform="translate(65.168 125.045) scale(350.635)"><stop stop-color="#fff"/><stop offset="1" stop-color="#566364"/></radialGradient><radialGradient id="T" cx="0" cy="0" r="1" gradientUnits="userSpaceOnUse" gradientTransform="translate(65.168 125.045) scale(350.635)"><stop stop-color="#fff"/><stop offset="1" stop-color="#566364"/></radialGradient><radialGradient id="U" cx="0" cy="0" r="1" gradientUnits="userSpaceOnUse" gradientTransform="matrix(350.635 0 0 350.634 65.168 125.045)"><stop stop-color="#fff"/><stop offset="1" stop-color="#566364"/></radialGradient></defs></svg>