<svg width="200" height="200" xmlns="http://www.w3.org/2000/svg"><g fill="none"><path d="M199.808 78.509S179.603 37.364 99.516 37.364c-73.494 0-96.932 36.057-96.932 36.057l3.996 6.083C2.23 86.27 0 93.523 0 101.11v.064c.016 10.045 4.068 19.75 11.72 28.17l-.751 3.755c-.35 1.783-2.574 11.359 10.15 11.338.87-.002 1.78-.05 2.716-.178l8.146-.011c13.367 6.84 29.306 10.916 43.692 12.85 3.311 10.21 12.327 8.303 13.703 1.139a115.2 115.2 0 0 0 1.978.084c3.995 9.204 13.132 4.876 14.7 3.901 4.237 4.234 9.56 1.198 11.36-4.526 19.22-1.771 36.515-6.427 50.197-13.525 3.712-.065 9.538-.587 11.538-7.214 11.186-8.447 17.98-18.864 19.644-30.196.974-6.623.37-15.61-4.336-24.514l5.351-3.737" fill="#FFF"/><path d="M107.015 155.52c.007-.019.017-.036.025-.052l.06-.095a1.432 1.432 0 0 0-.085.147zm83.298-74.192l5.39-3.764S175.22 40.48 99.517 40.48c-63.676 0-87.845 27.039-93.03 33.173l3.844 5.85c-4.736 6.684-7.2 14.053-7.189 21.664.016 9.754 4.253 19.23 11.97 27.23l-1.061 5.308c-.342 1.725-2.189 7.628 7.064 7.612 1.842-.003 3.324-.164 4.818-.813l.37.634 6.406-.01c11.887 6.207 26.449 10.566 43.306 12.766h-.002c.747.371 1.513.46 2.068.42.151.448 1.109 3.626 1.438 4.136 2.232 3.466 4.066 2.817 5.048 2.041 1.554-1.05 2.304-3.462 1.527-5.577 0 0 5.087.364 7.293.313 1.316 3.285 2.876 5.055 4.133 5.667-.18-1.372-.391-3.3-.502-5.516.742.01 4.665.005 5.265-.003a63.04 63.04 0 0 1-.31 5.42c2.597-.464 3.973-3.12 5.037-5.247l.002-.01a5.811 5.811 0 0 0-.105 1.099c.005 2.783 2.138 4.426 3.434 4.424 1.322-.002 2.353-.996 3.42-2.665.329-.51.63-1.522.978-2.692.092-.31.185-.623.28-.923 20.4-1.639 38.158-6.486 51.816-13.719h-.038c4.987-.046 8.484-.639 9.592-5.935 24.746-18.067 22.071-40.847 13.925-53.8z" fill="#231F20"/><path d="M51.985 113.205s6.18-5.225 11.3-6.643c0 0-4.252 2.665-7.384 6.643h-3.916m9.519.025s2.342-2.754 5.812-4.176c0 0-2.775 2.112-3.901 4.175h-1.91m78.221-.024c-3.132-3.978-7.38-6.643-7.38-6.643 5.117 1.418 11.296 6.643 11.296 6.643h-3.916m-7.514.025c-1.127-2.064-3.9-4.176-3.9-4.176 3.468 1.422 5.811 4.175 5.811 4.175h-1.91m-64.942.001s3.142-3.378 7.241-5.205c0 0-3.111 2.806-4.114 5.204H67.27m57.974.001c-1.008-2.399-4.119-5.205-4.119-5.205 4.1 1.827 7.24 5.204 7.24 5.204h-3.12" fill="#918F90"/><path d="M60.462 102.298s-1.737.117-4.973 1.067c0 0 5.033-3.087 12.045-3.387 0 0-4.313 1.191-8.81 4.102l1.738-1.782m60.653-3.389s11.39-.478 19.3 4.398c0 0-3.473-1.187-5.994-1.424 0 0 2.278 1.665 3.836 3.212 0 0-5.871-4.167-17.142-6.186" fill="#BDBCBC"/><path d="M90.608 113.23s-.056-2.132 1.86-2.965c0 0 .66-.295.78-1.364l3.713 4.328h-6.353m8.307.001l3.713-4.329c.119 1.069.779 1.364.779 1.364 1.915.833 1.861 2.964 1.861 2.964h-6.353" fill="#656263"/><path d="M138.39 140.048c-1.656.87-3.76.999-6.726 1.017.335.584.506 1.21.508 1.871l.001.013c.003 2.177-1.389 4.09-3.872 4.982 0 0 2.004-3.799.457-4.425-.521.657-1.12.927-1.567 1.026-.781.175-1.518-.026-2.024-.245-.814.72-2.06.774-3.045.622-.557 1.02-1.744 1.452-2.84 1.413a1.007 1.007 0 0 0-.262.02c.49.945-.006 2.05-.006 2.09.002.118.018.296.044.462.417.736.512 1.81.214 2.564 15.486-1.695 29.357-5.365 40.79-10.55l-21.852.036.18-.896M74 147.336l-.968-1.016c-.791-.164-1.526-.594-1.931-1.331-.985.156-2.231.105-3.047-.61-1.097.475-2.601.474-3.594-.77-1.54.714.365 4.36.365 4.36-2.952-1.326-4.854-4.276-3.186-6.946l-22.485.035c9.484 4.24 21.645 7.724 34.642 9.629.005-1.527.48-1.412.417-2.273-.228-.428-.22-.935-.213-1.078m17.262-6.406a14.246 14.246 0 0 1-.455-.07c-1.357 3.27-4.325 10.24-4.429 11.194 1.992.144 3.998.254 6.014.332-.657-2.28-1.378-6.14-1.13-11.456m30.528-1.608c-.079.063-1.004.698-1.488.907-.1.16-.2.303-.293.426.71-.022 1.278-.506 1.569-.814.083-.16.158-.336.212-.52m-21.153 1.551a18.58 18.58 0 0 1-2.155.203c-1.382 4.063-1.562 8.69-1.549 11.43.937.012 4.466.008 5.314-.004-.068-2.058-.479-7.076-1.61-11.629M31.743 70.656l-2.424-4.145-.084.056 1.844 4.532.664-.443M73.885 50.75a.802.802 0 0 0-.09.006c-.315.037-.347.271-.359.658l-.146 7.324a1.72 1.72 0 0 0 .017.26c.032.257.131.354.362.326.331-.04.378-.262.386-.678l.147-7.324c.011-.155.001-.232 0-.246-.028-.227-.12-.326-.317-.326" fill="#E02D3A"/><path d="M183.831 76.577l-1.024-1.064-2.133 1.52 1.024 1.064-1.672 1.182-1.013-1.055-3.135 2.228 1.015 1.055-1.662 1.191-2.72-2.83 10.261-7.292 2.719 2.83-1.66 1.171zm-17.435-1.286l7.241-7.597-1.043-.736 1.431-1.5 4.089 2.883-1.432 1.5-1.043-.735-7.241 7.597-2.002-1.412zm-6.061-3.593l1.318-2.071-.91-.484-1.638 1.902-2.038-1.085 8.801-9.389 2.628 1.397-6.112 10.822-2.049-1.092zm-9.976-4.718l5.13-9.135-1.194-.456 1.016-1.805 4.68 1.793-1.016 1.806-1.194-.458-5.13 9.134-2.292-.88zm-.427-12.064c-.08.344-.24.714-.395 1.117l-.676 1.742-2.365-.545.644-1.67c.067-.157.084-.232.084-.232.059-.253-.016-.38-.258-.436-.282-.065-.433.135-.576.494l-.425 1.11a1.383 1.383 0 0 0-.097.29c-.05.21 0 .377.268.643l1.175 1.164c.51.494.687 1.083.533 1.739-.046.193-.116.365-.185.538l-.856 2.184c-.326.82-.533 1.445-1.034 1.8-.258.187-.558.263-.925.264-.454 0-1.01-.113-1.713-.275-1.741-.402-2.51-.69-2.222-1.923.045-.194.149-.577.37-1.138l.926-2.358 2.408.554-.894 2.287c-.027.057-.045.133-.07.236-.058.252.015.38.256.434.284.066.417-.123.565-.496l.676-1.742c.04-.1.074-.186.091-.261.052-.223.056-.364-.247-.668l-1.279-1.298c-.443-.464-.59-1.046-.43-1.73a4.4 4.4 0 0 1 .203-.612l.53-1.368c.833-2.16 1.345-2.308 3.698-1.765 1.712.394 2.515.658 2.22 1.921zm-17.022-3.245l-1.462-.252-.802 2.482 1.462.25-.634 1.938-1.446-.249-1.182 3.641 1.447.249-.62 1.94-3.882-.668 3.867-11.921 3.883.666-.63 1.924zm-11.147 6.661l-.54 1.963-3.906-.516 3.389-12.062 2.436.32-2.834 10.104 1.455.191zm-8.374-.786l-.418 1.99-3.93-.274 2.633-12.247 2.45.171-2.2 10.258 1.465.102zm-9.59 1.404l-2.455.004 1.739-12.405 2.456-.003-1.74 12.404zm-8.981.145l-2.734.004.197-12.402 2.328-.003-.627 8.248h.102l1.702-8.251 2.326-.003-3.294 12.407zm-8.018.42l-2.274.208-.884-6.023-.102.01-.288 6.13-2.114.195.596-12.509 2.288-.21.853 6.301.1-.01.322-6.41 2.1-.192-.597 12.51zm-10.154-8.563l-.158 7.48c-.018.926-.011 1.586-.402 2.11-.416.556-1.19.696-2.459.849a11.17 11.17 0 0 1-1.244.096c-.887.001-1.379-.237-1.474-1.017a9.094 9.094 0 0 1-.048-1.362l.142-7.479c.021-.91.028-1.574.379-2.06.424-.606 1.23-.719 2.5-.87 1.732-.208 2.579-.233 2.732 1.026.037.303.042.703.032 1.227zM66.034 62.276c-.342.619-1.113.832-2.392 1.106-.656.14-1.181.236-1.595.236-.69 0-1.073-.264-1.242-1.038a8.555 8.555 0 0 1-.152-1.187l-.175-2.524 2.417-.517.172 2.448c0 .063.016.138.038.242.056.254.177.337.419.285.284-.06.324-.287.296-.687l-.134-1.862c-.01-.107-.015-.2-.03-.274-.049-.225-.106-.352-.51-.502l-1.713-.634c-.601-.23-.985-.696-1.133-1.381a4.204 4.204 0 0 1-.079-.642l-.108-1.46c-.173-2.306.226-2.658 2.587-3.161 1.72-.366 2.56-.468 2.836.803.073.343.088.746.12 1.176l.135 1.86-2.374.507-.133-1.783a1.624 1.624 0 0 0-.023-.245c-.054-.254-.176-.337-.418-.286-.286.06-.336.305-.312.691l.092 1.184c-.002.062.009.17.037.305.044.208.162.34.517.467l1.564.557c.674.231 1.086.69 1.229 1.347.042.194.052.38.062.565l.164 2.338c.057.88.139 1.533-.162 2.066zm-12.437 3.69l-2.15-5.553-.096.032 1.074 5.905-2.237.732-2.245-12.325 2.237-.732.896 4.95.096-.032-.067-5.22 2.32-.76-.215 5.94 2.736 6.295-2.349.768zm-9.052 3.053c-.266.64-.984.963-2.178 1.416-.775.295-1.384.491-1.851.492-.481 0-.81-.206-1.012-.728a9.366 9.366 0 0 1-.381-1.31L37.43 61.6c-.208-.903-.345-1.539-.138-2.091.263-.69 1.005-.988 2.213-1.447 1.63-.618 2.445-.847 2.902.337.11.285.722 2.88.722 2.88l-2.294.873-.377-1.622c-.042-.147-.055-.224-.06-.239-.094-.243-.23-.306-.473-.213-.297.114-.27.349-.187.725l1.652 7.141c.026.105.058.19.08.248.093.242.213.311.43.229.313-.12.298-.36.21-.75l-.616-2.645 2.308-.877.616 2.726c.213.916.37 1.56.127 2.143zm-10.583 5.53l-1.23-2.123-.856.57.927 2.325-1.919 1.281-4.248-12.11 2.473-1.65 6.782 10.42-1.93 1.287zm-9.444 7.56c-.796.612-1.368.989-1.856.99-.323 0-.609-.164-.897-.534a9.04 9.04 0 0 1-.694-1.051l-1.326-2.306 1.838-1.415 1.289 2.236a.96.96 0 0 0 .138.224c.16.204.297.214.494.065.263-.205.166-.421-.023-.759l-4.986-8.629 1.94-1.494 5.022 8.698c1.145 1.98 1.047 2.443-.94 3.975zm161.657-1.882l.001.002 4.984-3.478c-1.542-2.113-23.64-33.125-91.646-33.125-62.822 0-88.149 29.228-89.012 30.23l3.519 5.367.025-.031C8.734 85.89 5.96 93.377 5.973 101.103c.013 8.495 3.394 16.687 9.81 23.854l1.02-5.091c.901-4.595 2.905-6.014 5.875-6.488-4.19-6.116-4.207-11.53-3.976-14.1a27.862 27.862 0 0 1-4.532-2.463l5.248-1.335c2.222-7.673 19.508-33.54 80.162-33.54 60.654 0 79.069 26.013 80.359 33.596 2.339.586 3.804 1.163 3.804 1.163-.017.012-1.259.885-3.218 1.828.298 2.523.8 7.844-4.139 14.852 3.319 1.003 3.62 3.813 3.053 6.57l-1.176 5.85-1.438.003c1.114 1.72.771 3.503.501 4.656 20.636-16.81 18.677-36.907 8.85-50.23z" fill="#E02D3A"/><path fill="#E02D3A" d="M162.06 67.556l.706.376 2.559-4.064-.09-.048-3.175 3.736m-78.228 75.915a3.325 3.325 0 0 1-.335 1.122 33.291 33.291 0 0 0-.531 5.185c.254.433.545.892.877 1.377-.006-2.707.43-5.356 1.063-7.776a4.82 4.82 0 0 1-1.074.092m3.855-3.983l-.29 1.493h-.22c-.163 1.107-.655 1.704-1.452 2.114-.638 2.708-.764 4.353-.764 4.353a31.509 31.509 0 0 1 3.624-7.313 4.44 4.44 0 0 1-.898-.647m18.673 2.474c-.397-.735-.399-1.546-.345-2.047a4.173 4.173 0 0 1-1.223-1.147c-.385.446-1.061.966-1.393 1.164 1.794 4.752 1.8 9.254 1.8 9.254.698-2.532 1.023-5.53 1.161-7.224"/><path d="M107.171 142.871c-.158-.11-.54-.458-.682-.696-.006 7.033-2.32 13.51-2.32 13.51.956-6.636-.027-12.015-1.13-15.551a6.859 6.859 0 0 1-.835.356c2.653 7.916 1.227 18.518 1.227 18.518 2.961-5.206 3.665-11.68 3.74-16.137m-14.517-1.809c-.063 4.842.445 12.393 3.633 17.956 0 0-1.484-10.403.778-17.903-.44.007-3.488.002-4.411-.053m-8.377 10.708c.045.061.423.502.661.828.843-3.43 2.306-8.034 4.708-12.015a6.233 6.233 0 0 1-.635-.238c-2.619 4.447-4.11 9.164-4.734 11.424M117.08 81.26a34.39 34.39 0 0 0-3.346-.43c.674.93 1.55 1.805 1.55 1.805 1.063-.025 3.16.072 4.593 1.096l1.218-.46c-.553-.761-1.714-1.524-4.015-2.01m4.28 2.472l-.91.501c.377.409.663.918.811 1.554 0 0 .575-.967.1-2.055m-14.323-2.254c-1.418.084-3.314 2.98-2.056 6.075.453-.95 2.836-4.576 2.836-4.576-.427-.654-.8-1.292-.78-1.5m1.968 3.211s-.316-.43-.695-.977c0 0-1.167 3.392-1.456 5.008.256-.4.545-.823.865-1.25-.195-1.05-.025-2.186 1.286-2.781m22.559-2.489c3.43-.006 5.855.318 7.551.726-.29.118-.58.243-.876.372a26.15 26.15 0 0 0-3.927.373c-3.123-.002-4.966 1.084-4.966 1.084.284-1.075 2.218-2.555 2.218-2.555m-15.047 8.197a5.688 5.688 0 0 1-.48 1.028c-.674.227-1.25.48-1.724.72.643-.742 1.445-1.316 2.204-1.748" fill="#E02D3A"/><path d="M110.01 76.61s-1.052 2.285 2.437 6.48l1.036-.763c-1.545-1.738-5.213-7.092 2.61-9.218 0 0-3.146.13-5.703 1.31-2.592 1.198-4.642 3.509-2.254 8.034 0 0 .01.01.026.03l1.146-1.651-.741 2.142c.382.47.96 1.2 1.484 1.943.277-.243 1.932-1.485 1.932-1.485-.704-.827-3.516-4.304-1.973-6.822m3.535 5.786l-.684 1.177c.105.119.214.239.325.36 0 0 .692.772 1.3 1.872.282-.13.57-.252.864-.364l.423-.159c-.437-.832-1.024-1.81-1.554-2.225-.14-.11-.384-.34-.674-.661m-2.021 5.234a15.583 15.583 0 0 1 2.519-1.61c-.322-.643-.794-1.303-1.47-1.95l-.62 1.066c-.212.364-.51.893-.843 1.515.05.11.09.213.12.308.063.19.172.414.294.67m4.912-.972l-.075-.17-.416.228c-.011.007-.328.186-.81.565.335 1.045.364 2.256-.23 3.265a20.005 20.005 0 0 1 1.756-.635c.233-.965.207-2.048-.225-3.253m-1.843 1.08c-.428.383-.918.881-1.416 1.504.42-.203.871-.397 1.354-.573 0 0-1.858 1.636-2.883 2.987-.147.299-.287.612-.42.94.415-.315 1.439-1.036 2.996-1.753a6.038 6.038 0 0 0 .369-3.105m8.508 5.138c-.376.319-.744.635-1.104.948l-.315.117c-1.065.024-1.671.061-1.671.061.88-.481 1.986-.849 3.09-1.126m1.901-1.808c.43-.452.732-1.015.687-1.668-.11-1.551 1.98-5.603 1.98-5.603-.639.397-2.79 3.346-2.619 5.365.062.72-.252 1.323-.687 1.806l-.565-.089a18.524 18.524 0 0 0-2.415-.222c1.078-1.08 1.086-1.838 1.086-1.838 1.37-4.201 4.669-6.38 7.598-7.521 2.89-1.129 5.485-1.272 5.485-1.272-7.917 1.458-8.248 8.643-8.605 9.747-.575.438-1.142.884-1.702 1.333l-.243-.038M101.355 70.55l.783.442s1.773-.734 4.454-.47c0 0-1.813-.703-5.237.029m.952 13.612a24.247 24.247 0 0 1-1.514 2.021c-.638.75-.842 1.927-.757 2.532.756.26 1.527.895 1.739 2.055.445.148.875.47 1.084 1.035.104.055.203.105.294.152.345-.928.77-2.021 1.239-3.103-.467-1.857-1.468-3.703-2.085-4.692m-7.152-2.336l.42-.671c.05-.758.506-1.112.78-1.284 1.702-3.509 2.003-6.4 1.086-7.852-4.073 2.53-3.325 7.13-2.286 9.807m-18.224 2.887c.564-2.448 3.194-3.078 6.105-3.133.523-.427 1.601-1.808 1.601-1.808-7.506.377-8.648 3.094-7.706 4.941m13.161 2.641c.474-1.219.768-2.98-.988-3.765 0 0 1.99-2.708 1.945-3.175 0 0 3.204.525 2.258 5.657 0 0-1.729 2.599-.195 4.184 0 0 .009.21.044.54-.438.192-.92.36-1.33.566a73.838 73.838 0 0 0-1.734-4.007m-31.943-4.623c1.37-.067 2.838.023 4.108.043-.808.101-1.684.278-2.62.556a38.65 38.65 0 0 0-1.488-.6" fill="#E02D3A"/><path d="M63.955 82.665c-2.11-.344-4.26-.47-6.376-.24 1.622-.6 4.414-1.214 9.1-1.22 0 0 1.926 1.453 2.213 2.515 0 0-1.835-1.068-4.937-1.055m18.755.934c-.624 1.088-1.093 2.085-1.253 2.975 0 0 1.113.613 1.33.753.066-.84.384-1.675.754-2.392L82.71 83.6m-1.313 4.481c.025.235.066.464.122.686.337.103.661.211.972.324-.256-.276-1.094-1.01-1.094-1.01m5.136-7.172l-.51-1.566c-.856 1.545-2.72 3.314-2.916 3.61l.969 1.072c.462-.711 2.037-2.515 2.457-3.116" fill="#E02D3A"/><path d="M87.691 73.452c-2.545-1.158-5.673-1.278-5.673-1.278 5.929 1.583 5.129 4.974 4.158 6.88l.662 1.402c2.03-3.152 1.24-4.842 1.24-4.842 1.135 1.826-.057 4.128-.952 5.452l1.156 2.451c2.774-3.059 4.6-7.702-.59-10.065m-4.063 14.084c.753.268 1.427.58 2.025.906-.271-.506-1.786-2.982-1.786-2.982a5.65 5.65 0 0 0-.356 2.373c.8.594 1.964 1.575 3.243 3.03l-.034-.09c-.948-1.374-3.092-3.237-3.092-3.237m.775-3.149s1.685 1.866 2.093 2.37c.161-.362.817-1.816 1.174-2.359l-.916-2.81c-.597.804-2.043 2.31-2.351 2.8m-9.117 6.506c-.838-.448-2.223-1.412-2.107-2.84.162-1.992-1.987-4.896-2.623-5.286 0 0 2.093 3.994 1.992 5.524-.08 1.224 1.082 2.12 1.982 2.567a35.316 35.316 0 0 0-1.627-.017c-.968-.793-1.65-1.765-1.769-2.955-.36-1.166-1.045-7.492-8.428-8.819 1.658.207 10.513 1.051 13.037 8.642 0 0 .027 1.853 4.184 3.862-1.107-.283-2.656-.563-4.641-.678m20.631-8.095c-.55.855-.978 1.583-1.515 2.834.34-.444 1.109-.83 1.691-.832.397-1.115-.145-1.92-.176-2.002m-1.214 6.177c-.65-.643-.804-1.538-.758-2.076.001-.025.004-.05.006-.074-.472 1.438-.722 3.024-.373 4.493l.141-.09c.177-.635.537-1.445 1.236-1.878a.677.677 0 0 1-.252-.375m-.337-19.714c7.636.924 4.723 8.599 3.431 10.457.436.185.782.584 1.02 1.144 1.787-3.66 2.079-4.892 2.16-7.3.063.203.545 3.883-1.83 7.803 1.278.885 1.051 2.728.5 4.454a8.116 8.116 0 0 1 1.523-2.118c.428-.436 1.116-1.526 1.665-2.923 1.748-4.452 1.628-10.547-8.47-11.517m-9.292 25.486a18.443 18.443 0 0 1-2.459-5.52c1.68 1.894 2.454 4.282 2.776 5.598a8.99 8.99 0 0 1-.317-.078m94.882 2.297l-17.03-2.63-1.701-1.012 3.633.136-1.234-1.144c-5.143-7.538-12.531-8.681-12.531-8.681-5.492-.62-10.961 1.116-15.617 3.546-4.53 2.363-8.233 5.354-10.58 7.49l.058.008c2.204.296 4.87.84 7.676 1.824 1.758-1.108 3.485-2.425 5.209-3.743 3.657-2.795 7.307-5.599 11.062-6.33 7.577-1.475 12.368 5.966 12.368 5.966l-3.234.312 1.958 2.945 5.519 1.768c6.818 3.933 14.535-.507 14.444-.455" fill="#E02D3A"/><path d="M158.49 98.232l-1.075-3.035-.048-.135 2.183 1.561.49 2.633s3.234 3.41 4.068 4.386c-5.76-.847-5.618-5.41-5.618-5.41m-7.471 4.104l.639-5.478-1.744 5.645s-.26 5.182 5.784 5.31l-4.68-5.477m-8.751-.411c.048.038.68.564.68.564l3.601-4.886-4.281 4.322m-.137 2.789c-.266 0-.677.016-1.045.033l.896 1.638.726.288.18.003-.757-1.962m12.222-16.504c-.742-.027-1.394.164-1.92.539.095.104.193.217.292.333a18.61 18.61 0 0 0 5.443 2.163c-.846-1.2-3.271-2.705-3.815-3.034m-6.112 3.836s-.488 2.795 4.595 3.893c-2.35-1.33-3.062-2.097-3.638-4.503a3.547 3.547 0 0 0-.378-.944c-.346-.063-.62-.002-.847.138.222.362.467.97.267 1.416M34.046 103.85c.832-.979 4.053-4.4 4.053-4.4l.481-2.634 2.179-1.567-.047.133-1.065 3.04s.156 4.563-5.601 5.428m14.192-1.183l-1.763-5.642.656 5.478-4.661 5.49c6.044-.148 5.768-5.326 5.768-5.326m7.035 4.148c.371-.26.761-.521 1.174-.787l.626-1.148a29.24 29.24 0 0 0-1.049-.028l-.75 1.963m-9.6-17.896c-.527-.374-1.18-.562-1.922-.532-.541.33-2.963 1.842-3.806 3.047 0 0 .255.017.16.012 2.464-.501 4.373-1.596 5.275-2.192-.067.08.133-.16.293-.335m1.507.471c-.095.275-1.972 3.909-5.426 5.213l.338.013c3.522-.499 4.998-3.23 4.998-3.23.302-.858.745-1.273 1-1.453l.006.007c-.242-.28-.556-.486-.916-.55m2.959 1.397c-.229-.14-.501-.2-.847-.135-1.023 1.796.022 3.169-3.999 5.459l.151-.02c5.08-1.113 4.431-3.887 4.431-3.887-.2-.446.063-1.056.263-1.417m4.783 2.191s-.941-.041-2.477-1.058c-.106.551 1.067 3.176-1.094 4.382 3.391-1.093 3.642-2.649 3.571-3.324M70.58 99.01c.24.078.48.15.722.212l2.613.245a51.08 51.08 0 0 1 1.693-.305 29.725 29.725 0 0 0-5.027-.152m-16.107 2.638c.162-.128.355-.276.58-.44l-3.468-3.454 2.888 3.894m23.072-6.666c-.71-.53-1.42-1.156-2.084-1.894a10.661 10.661 0 0 1 3.171 1.916 57.803 57.803 0 0 0-1.087-.022m-6.159 18.236c2.03-2.516 4.89-5.504 8.191-7.342.29-.064.556-.107.556-.107 3.891-1.105 6.637-2.864 8.167-4.046-.226.663-.168.69-.11 1.086-1.23.872-3.36 2.178-5.865 2.857-2.762.748-6.79 4.044-10.196 7.551l-.743.001" fill="#E02D3A"/><path d="M75.245 113.213c5.319-7.633 8.31-7.465 8.31-7.465-1.758 1.286-4.779 5.472-4.779 5.472-.836.45-1.703 1.168-2.533 1.99l-.998.003" fill="#E02D3A"/><path d="M78.043 113.209c1.486-2.67 3.586-5.546 6.492-7.888 0 0 2.13-1.06 3.747-2.143.094.263.26.564.55.852a5.063 5.063 0 0 0-.064.637c-1.339.853-3.476 2.3-4.475 3.427 0 0-2.275.924-5.185 5.113l-1.065.002" fill="#E02D3A"/><path d="M81.3 113.203c1.641-3.035 4.058-6.242 7.504-8.253.023.112.057.223.105.333.022.052-.342.492-.84 1.24-1.694 1.295-4.062 3.543-5.287 6.677l-1.482.003" fill="#E02D3A"/><path d="M83.336 113.2c.858-1.99 2.175-4.076 4.199-5.83-.776 1.308-1.647 3.15-1.938 5.306-.127.165-.256.339-.387.522l-1.874.002m-25.037.04c4.54-5.21 10.818-8.296 12.895-9.223a44.61 44.61 0 0 1 4.764-.427 53.118 53.118 0 0 0-5.47 3.444c-4.36 1.382-8.548 4.195-11.18 6.205h-1.01m65.4.081c-3.468-3.592-7.64-7.02-10.472-7.778-2.456-.656-4.553-1.918-5.796-2.784.058-.415.02-.977-.382-1.625 2.343 2.045 7.16 3.767 7.16 3.767 4.318 1.726 8.063 5.704 10.45 8.743a6.396 6.396 0 0 0-.96-.323" fill="#E02D3A"/><path d="M119.192 112.929c-.789-.764-1.606-1.423-2.397-1.844 0 0-3.035-4.178-4.796-5.456 0 0 2.957-.178 8.25 7.316-.34-.008-.69-.014-1.057-.016m-11.616-6.442c-.502-.74-.882-1.18-.86-1.232.052-.12.087-.24.11-.36 3.39 1.992 5.785 5.14 7.422 8.128-.489.04-.959.097-1.406.176-1.202-3.14-3.554-5.396-5.266-6.712" fill="#E02D3A"/><path d="M109.807 112.342c-.15-1.997-.939-3.735-1.682-4.99 2.046 1.794 3.363 3.929 4.21 5.948a7.65 7.65 0 0 0-1.478.49 20.49 20.49 0 0 0-1.05-1.448m.026.652c.002.472 0 .836-.14 1.506.008-.006.337-.25.5-.353-.108-.508-.168-.842-.36-1.153m26.329-.034c-2.749-2.074-7.117-4.955-11.603-6.24 0 0-4.422-3.108-5.65-3.45 0 0 3.682-.048 4.745.292 0 0 8.453 4.705 13.308 9.401-.259-.003-.526-.003-.8-.003m-56.372.246l.97-.002c1.13-2.142 2.091-3.363 2.091-3.363-1.127.899-2.182 2.147-3.062 3.365m32.558-3.896s1.551 1.191 3.348 3.639a32.02 32.02 0 0 0-.723.028 21.108 21.108 0 0 0-2.625-3.666" fill="#E02D3A"/><path d="M111.016 105.204s-2.064-1.018-3.672-2.077c-.091.27-.26.577-.555.874.037.157.07.528.068.612 1.344.854 3.426 2.26 4.409 3.365 0 0 2.228.895 5.106 4.96.352-.007.712-.009 1.082-.01-1.49-2.622-3.577-5.432-6.438-7.724M98.868 87.421c.084-.726.175-1.44.283-2.139-.638 1.421-.586 1.45-.283 2.14m-2.148-6.416c-.454.906.663 1.41.614 3.198 1.03-1.357.09-2.277.64-2.574-.308-1.305-1.179-.774-1.254-.624" fill="#E02D3A"/><path d="M99.027 84.07c.085-.576.114-1.629-.606-1.94-.621.24.802.95-1.137 3.206-.544.637.156.975.241 1.445.226 1.257.53.565 1.375 1.922-.285-1.474-.992-1.61-.55-2.516.28-.576.674-2.116.677-2.116" fill="#E02D3A"/><path d="M97.833 88.23c-.852-.64-.483-.791-1-1.686-.445-1.095-1.792-.562-1.792.533-.024.857 1.495 1.493 1.348 2.888.001 1.056-.608 2.082.248 2.934.8.795.966 1.912 1.437 2.171-.16-1.817 2.004-5.156-.241-6.84m.939 6.715c-.492-1.66 1.148-3.682.753-5.257 1.37.548 1.75 2.049.555 3.33-.361.492-.593 1.052-.537 1.546 0 .001-.018.424-.268.605a1.259 1.259 0 0 0-.503-.224m.979.705c.78-1.224.018-1.565.93-2.573.534-.624.648-1.099.682-1.344.852.282 1.041 1.579-.974 3.821a2.326 2.326 0 0 0-.415.435c-.093-.142-.177-.272-.223-.34" fill="#E02D3A"/><path d="M96.969 94.147c-.91-1.51-1.685-1.253-1.053-3.891-.618.083-1.1 1.045-1.136 1.98-.053 1.434 1.978 2.12 1.867 4.305.812-.743 1.104-1.095.322-2.394" fill="#E02D3A"/><path d="M94.315 92.664s-1.122 1.558 1.522 4.067l.272-.167c.213-2.252-1.728-2.431-1.794-3.9m5.783 4.742c-.23-.077-.426-.143-.427-.543 0-.307-.158-.525-.22-.56-.139-.078-.229-.349-.26-.454a.598.598 0 0 0-.594-.42c-.298 0-.6.169-.674.377-.178.503-1.573 1.464-1.573 1.464l-.122-.262-.519.197s-.077-.035-.107-.047c-.591.515-.461 1.017.028 1.444 1.216-1.882 2.26-2.254 2.315-2.261.468.12 1.596.611 2.395 2.482.825-.831-.212-1.396-.242-1.417m-9.222-1.678c-.191.12-.359.227-.5.318.096.072.194.135.296.186 0 0 .063-.194.204-.504m-.976 2.39c-.386-.242-.71-.582-.817-1.058 0 0-.058-.03-.157-.089-.43.506-.437 1.154-.437 1.154.11 0 .678-.21 1.411-.007" fill="#E02D3A"/><path d="M95.445 96.778s-2.887-2.215-1.266-4.61a19.405 19.405 0 0 0-2.417 2.222c-.012 1.01.079 2.188.5 2.786 0 0 .478-1.283 1.1-1.935 0 0-.173 3.893.767 5.52 0 0-1.372-.497-1.686-1.684l-.728-.386s-.5-.041-1.067-.231c.683.769 2.629 1.897 2.629 1.897l-1.963 2.346c-1.182.227-2.051-.655-2.051-.655-.349.884.664 1.624.664 1.624-.327 1.068.14 1.274.555 1.274.262-.002.503-.085.503-.085l3.948-4.712c.166-.447.356-.848.557-1.211 0 0-1.41-.863-.045-2.16m9.905-.791a13.25 13.25 0 0 0-.5-.458c.158.41.23.68.23.68.093-.06.184-.136.27-.222m-.968 6.777l-2.197-2.461c-.406.307-.787.447-.787.447.937-1.631.75-5.524.75-5.524.624.65 1.105 1.932 1.105 1.932.448-.638.517-1.931.487-2.979a15.473 15.473 0 0 0-1.502-1.39c-.02.206-.066.44-.15.71-.68 2.222-1.861 2.1-1.982 3.025 0 0-.187.309.063.431.248.123 1.803 1.046.252 2.28l-.242-.013a7.9 7.9 0 0 1 .347.877l4.129 4.74c1.284-.372.888-1.132.888-1.132 1.036-.555.764-1.808.764-1.808-.392.843-1.925.865-1.925.865" fill="#E02D3A"/><path d="M106.624 96.923c-.12.073-.192.108-.192.108-.317 1.442-2.627 1.641-2.627 1.641l-.727.389c-.12.46-.4.816-.696 1.08.758-.154 2.015-1.137 2.015-1.137 1.035-1.193 2.774-.827 2.774-.827a1.74 1.74 0 0 0-.547-1.254m-19.756-2.857s1.095.88 1.894 1.057c0 0 .084.975.28 1.522 0 0-1.86-1.237-2.174-2.58m2.332-.798s.391 2.484 1.246 3.313c0 0 .061 1.265.69 1.645 0 0-2.534-.7-1.937-4.958" fill="#E02D3A"/><path d="M91.54 93.696s-.444 2.572.602 3.817c0 0 .001.697.19 1.05 0 0-2.566-.73-.791-4.867m1.604 2.279s-.224 2.617.511 4.254c0 0-2.169-1.688-.511-4.254m13.602-.882c.798-.179 1.888-1.062 1.888-1.062-.309 1.344-2.164 2.585-2.164 2.585.195-.545.276-1.523.276-1.523m-1.68 1.464c.852-.831 1.236-3.318 1.236-3.318.612 4.257-1.921 4.964-1.921 4.964.628-.381.685-1.646.685-1.646" fill="#E02D3A"/><path d="M103.374 97.495c1.043-1.248.59-3.819.59-3.819 1.788 4.131-.776 4.87-.776 4.87.188-.354.186-1.05.186-1.05m-1.007-1.536c1.665 2.561-.497 4.256-.497 4.256.73-1.64.497-4.256.497-4.256m-10.464 11.086l2.87-6.183-4.207 5.038c-.358-.185-.616-.381-.616-.381-3.057 3.787-3.117 7.068-3.099 7.674l.98-.001c1.386-4.394 4.518-3.24 4.276-5.908-.117-.058-.204-.24-.204-.24m13.752-1.549s-.278.207-.64.395l-4.232-5.037 2.916 6.227a.44.44 0 0 1-.193.184c-.255 2.897 3.452 1.281 4.61 7.146.103.084.32.29.33.302l.329-1.454s.285-3.576-3.12-7.763m-8.371 1.164l-1.905.003 2.4-.909 2.24.901-1.658.085-.578 1.646-.5-1.727m-13.698 19.554l3.103-.004.192-.948-3.108.005-.187.947M79.3 138.631a2.77 2.77 0 0 0-.55-.456c.41-1.229.044-2.802-.918-3.679L81.21 117.7l7.198-.011.195-.948-8.03.012-3.46 17.203a5.84 5.84 0 0 0-1.109-.529l3.59-17.856 10.47-.017-.766 3.722-3.941.008-.959 4.8 3.942-.008-.768 3.75-3.901.006-1.418 7.044 3.902-.005-.14.721c-2.03-1.063-3.648.317-3.795.467h-.593l-.193.948h.146c-.242.534-.356 1.11-.402 1.62l-1.878.004m-30.807-20.88l-5.209.009-7.445 19.755h-.994l7.802-20.702 5.87-.008-.024.946zm-6.728 12.646l2.69-8.891h.272l-.836 8.888-2.126.003zm3.85 2.124l-4.815.007.287-.947 3.891-.006.968-10.309.727-.002-1.058 11.257zm-.588 4.98h-.733l.36-3.597.734-.002-.361 3.598zm-3.208-21.868l-8.694 23.069 6.144-.01 1.421-4.545 2.743-.004-.455 4.544 6.18-.01.582-23.059-7.92.015zm26.98 21.831h-.829l2.492-12.346.828-.001-2.491 12.347zm-2.858-8.07l-1.025.001 4.966-12.624 5.724-.01-.192.948-4.895.008-4.578 11.678zm-2.775-11.666l-5.156.008-3.972 19.75h-.828l4.163-20.697 5.808-.008-.015.947zm-1.028 19.745h-.66l.303-12.341.66-.002-.303 12.343zm11.356-4.294l3.568-17.604-7.997.013-4.578 11.679h-.27l.174-11.67-7.998.012-4.637 23.064 5.912-.01 2.682-13.293h.232l-.326 13.29 2.77-.005c.293-.375.82-.712 1.208-.819l4.693-12.48h.271l-2.593 12.85c.23.113.466.26.684.443 0 0 4.988-.039 4.987-.054-2.613-2.142-.075-5.283 1.218-5.416zm44.562-12.974l-2.72 13.492c-.154.766-.345 1.165-1.235 1.166-1.046.003-.895-.75-.812-1.162l2.72-13.493c.154-.71.308-1.136 1.158-1.138.696 0 .965.196.966.68 0 .028 0 .17-.077.455zm-.008-4.912c-3.398.004-5.562.036-6.874 1.061-1.08.824-1.311 2.047-1.655 3.723l-2.76 13.775c-.203.956-.286 1.735-.302 2.314a3.634 3.634 0 0 1 1.267-.896c.043-.337.107-.726.202-1.173l2.785-13.897c.328-1.601.516-2.394 1.19-2.909.986-.768 2.979-.81 6.15-.815 2.16-.004 4.85-.008 5.494.629.052.05.191.189.193.678v.017c-1.03-.383-3.225-.383-5.05-.379-3.17.004-5.166.047-6.15.816-.672.514-.862 1.308-1.191 2.907 0 0-2.799 13.97-2.807 14.004 1.189-.05 1.936.388 2.37.802.785.747 1.05 1.836 1.122 2.71a153.7 153.7 0 0 0 1.787.008c.183-.22.4-.402.631-.55a3.951 3.951 0 0 1-.222-1.164 1.872 1.872 0 0 1-1.022-.496 1.675 1.675 0 0 1-.444-.785c.514.373 1.123.372 1.341.372.083 0 .163-.002.24-.009.04-.14.089-.28.149-.418.452-1.034 1.39-1.66 2.074-1.996l2.658-13.17c.067-.264.102-.503.102-.704a2.012 2.012 0 0 0-.068-.524c.067.048.132.105.194.166.233.228.51.642.513 1.303 0 .202-.036.44-.104.703l-2.394 11.867c2.745-.983 4.007 1.19 4.166 1.514.064-.298 2.992-14.724 2.992-14.724.19-.967.305-1.704.305-2.271-.004-2.358-2.245-2.496-6.882-2.49zm53.012 2.101c-6.332.013-6.658.442-7.324 3.801l-.539 2.709c-.122.597-.195.921-.073 1.415-.774-.628-.772-1.374-.565-2.36l.539-2.708c.664-3.362.993-3.792 7.324-3.8 4.254-.01 5.708.147 5.725 1.331-1.03-.392-3.247-.39-5.088-.388zm1.25 3.945l-.181.919-.825.002.368-1.867c.088-.37.075-1.069.034-1.223.468.326.881 1.006.604 2.17zm-3.743 3.702l3.753 1.614c1.308.548 1.618 1.163 1.695 1.55a4.322 4.322 0 0 0-1.059-.604l-3.751-1.613c-.456-.198-1.43-.622-1.718-1.573.378.324.816.513 1.08.626zm1.73 6.337s-.707 3.526-.707 3.532c-.55 2.638-3.145 2.313-3.934 1.532a1.697 1.697 0 0 1-.445-.786c.374.272 3.137 1.272 3.74-1.69l.693-3.445c.119-.473.134-.973.011-1.387.759.625.806 1.423.643 2.244zm-5.291-.032l-3.306.006-.764 3.714c-.213 1.022-.244 1.676-.243 1.976v.017c-.488-.19-.904-.49-.395-2.938.002 0 .484-2.354.764-3.714l4.136-.008-.192.947zm5.414-16.08c-6.414.01-7.649.495-8.493 4.756l-.536 2.698c-.3 1.486-.324 3.079 2.016 4.141l4.099 1.812c1.206.53 1.095.945.969 1.618l-.691 3.435c-.154.74-.385 1.137-1.157 1.138-.972 0-1.035-.694-.89-1.134l.919-4.515-6.567.01-.959 4.657c-.23 1.108-.268 1.846-.266 2.217.004 2.356 2.167 2.55 6.919 2.543 7.086-.01 7.538-.67 8.414-4.783l.884-4.317c.286-1.308.213-2.926-2.287-3.973l-3.75-1.613c-.975-.42-1.258-.895-1.007-1.615l.42-2.187c.155-.71.423-1.138 1.198-1.14.925 0 1.044.354.85 1.135l-.65 3.297 6.451-.01.69-3.439c.153-.794.345-1.532.344-2.187-.004-2.413-2.245-2.552-6.92-2.544zm-18.719 9.468l3.675-8.057 3.741-.006-.504.947-2.6.004-3.22 7.11-1.092.002zm.072 12.638l-.709-9.9h.568l.71 9.9h-.569zm-4.4-19.736l-3.973 19.75-.828.002 4.164-20.697 3.822-.008-.193.949-2.992.004zm13.722-2.151l-6.49.011-4.196 9.262h-.272l1.878-9.257-6.259.01-4.636 23.062 6.258-.01 2.222-11.049h.272l.79 11.044 6.567-.01-1.643-12.692 5.509-10.371zM151.024 91.22s1.692 2.911 5.346 3.2c-2.296-.755-4.702-3.51-5.314-4.947a1.978 1.978 0 0 0-.13-.247c-.36.064-.673.271-.914.552.019.013.04.027.06.043.261.198.668.605.952 1.4m-4.134 4.993c-2.307-1.308-1.258-2.644-1.22-4.442-1.504.99-2.473 1.066-2.473 1.066-.069.674.3 2.293 3.694 3.376m-30.458 5.986c7.696-.613 17.038 1.579 25.75 7.372.78.518 1.553 1.084 2.32 1.668l.031.023.287.218c.13.1.2.153.203.157 0 0-8.935-10.912-29.272-12.288v-.257l-.87-.26c13.41-4.31 26.364 3.676 26.364 3.676s-8.605-8.01-26.113-6.83l-1.017.583c3.142-4.647 7.557-4.52 7.557-4.52s-2.7-.38-6.095 1.163c-3.393 1.541-3.514 2.31-6.336 2.699 0 0 .646-5.039 4.16-7.989 0 0-2.943 1.627-5.883 5.858 0 0-.372-2.22 2.69-7.176 0 0-2.573 2.864-4.328 6.408 0 0-.822-2.131.156-5.165 0 0-1.43 3.056-2.157 5.204.327.294.655.62.967.973.073-.339.108-.568.108-.568.102.286.164.608.2.933.176.22.344.447.5.684.372-1.234.591-2.72.591-2.72.224.261.346 1.058.41 1.705.124-.255.202-.425.202-.425.099.24.011.852-.083 1.334 1.615-.434 2.524-1.78 2.524-1.78-.157 1.505-1.123 2.798-1.835 3.422.444.531.677 1.252.695 2.146l.012.967-.946-.236c-.033-.008-.147.8-.219 1.338 1.257 1.06 4.175 3.186 8.59 4.424 0 0 6.42.786 14.92 8.28.264-.047.538-.085.818-.115-3.373-3.362-8.244-7.307-14.675-10.343h-.001l-.628-.528c.135-.013.27-.024.403-.035m-37.353.158c-7.697-.59-17.032 1.633-25.724 7.453-.779.521-1.55 1.09-2.316 1.675a18.405 18.405 0 0 0-.317.243l-.203.158v.002s8.901-10.942 29.232-12.383v-.257l.87-.263c-13.426-4.266-26.352 3.76-26.352 3.76s8.578-8.037 26.09-6.913l1.02.58c-3.159-4.637-7.573-4.496-7.573-4.496s2.7-.388 6.1 1.143c3.398 1.53 3.52 2.3 6.344 2.679 0 0-.663-5.037-4.186-7.976 0 0 2.95 1.618 5.902 5.839 0 0 .364-2.222-2.713-7.166 0 0 2.581 2.856 4.348 6.394 0 0 .815-2.135-.173-5.164 0 0 1.44 3.05 2.174 5.195-.326.296-.653.623-.964.978-.074-.34-.11-.569-.11-.569-.1.287-.161.61-.195.933a9.41 9.41 0 0 0-.5.687c-.375-1.232-.598-2.718-.598-2.718-.224.263-.343 1.058-.404 1.706-.127-.254-.205-.424-.205-.424-.098.24-.008.852.087 1.334-1.617-.43-2.53-1.772-2.53-1.772.206 1.913 1.429 3.05 1.847 3.415-.842 1.015-.603 2.162-.697 3.116l.945-.24c.034-.008.149.8.223 1.339-1.253 1.063-4.164 3.199-8.577 4.45 0 0-6.415.807-14.892 8.327a12.914 12.914 0 0 0-.818-.113c3.363-3.371 8.22-7.332 14.641-10.388h.002l.626-.53c-.136-.013-.27-.024-.404-.034" fill="#E02D3A"/><path d="M46.997 83.879s-6.272.992-11.263 7.061a22.68 22.68 0 0 0-1.24 1.66l-1.231 1.15 3.253-.076.38-.073-1.697 1.016-17.02 2.686c.717.408 4.03 2.157 8.055 2.15 2.029-.002 4.238-.451 6.387-1.742l5.515-1.785 1.948-2.95-3.236-.303c7.9-9.856 14.338-7.587 28.367 3.835 2.388-.66 5.159-1.179 8.316-1.405-.078-.072-13.111-12.874-26.534-11.224m-18.685 33.763c-6.475.009-6.706.508-7.364 3.86l-2.758 13.772c-.185.935-.223 2.01-.28 2.017-.685-.244-.811-.842-.358-2.964-.014.023 2.76-13.773 2.76-13.773.676-3.449.924-3.848 7.362-3.86 5.333-.005 5.686.426 5.687 1.336-1.05-.394-3.317-.391-5.05-.388zm1.034 4.693c.006-.01-.826 0-.826 0 .195-1.314.578-2.073.365-2.9 1.057.814.627 2.035.461 2.9zm-3.335 12.331c.036-.112.904-4.31.904-4.31l.833-.002s-1.16 5.496-1.16 5.475c-.405.517-2.165 1.382-2.184 1.383-.923 0-1.795-.433-2.019-1.324 1.015.733 3.323.442 3.626-1.222zm.49-6.611l4.952-.007-.191.946-4.124.008-.083.407h-.834l.28-1.354zm1.171-12.543c-6.5.012-7.672.44-8.531 4.812l-2.758 13.778c-.231 1.164-.307 1.986-.306 2.384.003 1.705 1.666 2.41 5.026 2.406 2.473-.004 3.826-.29 5.677-1.713l.89 1.534 2.86-.007 2.376-11.845-7.379.012-.767 3.72h.889l-.69 3.351c-.069.524-.287 1.138-1.196 1.138-1.125.003-.852-.573-.852-1.135l2.721-13.491c.155-.71.269-1.164 1.159-1.166 1.165-.001 1.017.69.89 1.163l-.614 3.068 6.53-.01.65-3.21c.698-3.734.892-4.8-6.575-4.79zm113.704 2.321c-1.027-.383-3.225-.38-5.048-.38-3.268.007-5.164.047-6.134.805-.665.527-.886 1.328-1.23 3.029l-2.763 13.79c-.193.911-.288 2.006-.27 1.982-1.084-.111-.56-1.904-.367-2.929.13-.69 2.763-13.79 2.763-13.79.345-1.7.564-2.502 1.229-3.028.97-.757 2.867-.797 6.134-.803 2.16-.004 4.848-.008 5.493.629.052.052.192.19.193.678v.017zm-4.015 4.286l-.827.001.395-2.033a1.41 1.41 0 0 0 .036-.304c0-.197-.028-.371-.069-.527.068.05.132.105.195.167.232.23.51.643.512 1.304 0 .128-.242 1.392-.242 1.392zm-3.219 11.85c.002-.007.52-2.605.808-4.057l4.123-.006-.197.946-3.287.006-.809 4.055c-.121.578-.438 2.108-2.4 2.11-.941.007-1.75-.422-1.98-1.317.66.478 3.188.946 3.742-1.736zm1.546-18.641c-3.439.005-5.563.036-6.876 1.06-1.042.826-1.31 2.018-1.655 3.722l-2.76 13.776c-.527 2.465-.62 3.978 1.724 4.507 1.17-.832 3.117-1.214 4.167.307 7.588.048 8.358-.708 9.176-4.838l1.074-5.14-6.567.009-.997 4.999c-.153.74-.344 1.165-1.234 1.166-.998.003-.922-.594-.814-1.162l2.722-13.493c.153-.71.307-1.135 1.158-1.137.695-.002.966.198.967.68 0 .028-.039.17-.078.454l-.613 3.067 6.529-.01.652-3.209c.192-.938.306-1.705.305-2.272-.004-2.357-2.244-2.495-6.88-2.486zm-29.608 2.56c-1.028-.382-3.223-.38-5.049-.376-6.393.009-6.67.414-7.361 3.83l-2.762 13.79c-.196.912-.26 1.589-.275 2.04-.591-.207-.938-.301-.363-2.986l2.762-13.79c.72-3.56 1.094-3.821 7.363-3.83 4.576-.006 5.684.214 5.688 1.305l-.002.017zm-4.013 4.287h-.827s.38-1.967.395-2.031c.016-.084.006-.676-.034-.832.932.832.733 1.284.466 2.863zm-3.22 11.85c0-.006.52-2.605.81-4.057l4.12-.006-.197.946-3.287.006c-.288 1.452-.807 4.05-.81 4.056-.385 2.627-3.9 2.657-4.377.794.678.49 3.192.907 3.74-1.739zm1.547-18.642c-6.056.01-7.58.08-8.532 4.783l-2.76 13.776c-.865 4.083-.28 4.826 6.576 4.817 6.661-.013 7.622-.458 8.492-4.84l1.073-5.142-6.566.01-.997 5c-.155.737-.347 1.164-1.235 1.166-.904.002-.901-.714-.813-1.163l2.72-13.493c.155-.71.31-1.135 1.158-1.136.953-.002.97.518.891 1.134l-.614 3.068 6.529-.012.653-3.21c.191-.936.307-1.704.305-2.272-.003-2.354-2.246-2.493-6.88-2.486z" fill="#E02D3A"/><path d="M99.183 101.294s-.684 1.213-1.406 2.9l-1.347-2.896-3.604 4.552 3.534-6.957c.635-.974 1.47-1.446 1.572-1.4.103-.046.907.499 1.546 1.473l3.34 6.888-3.635-4.56m-.175 8.611l-1.119-.986-1.241.99s-3.808-2.855-3.908-2.902l3.877 4.132s.61.55 1.281.549c.672-.002 1.13-.553 1.13-.553s4.032-4.363 4.07-4.484c-.273.164-4.09 3.254-4.09 3.254m10.012 48.259l-.436.333s-1.188-1.685.019-4.268c1.206-2.583 1.567-1.716 2.133-3.073 0 0 1.874-2.94 2.207-4.704 0 0 .644.1.826.688 0 0-2.137.975-.768 3.17 0 0-.126 1.662.26 2.07 0 0-1.235.36-2.036-1.684l-.181.052s.494 2.3 2.94 2.527l-.024.843s-1.983.36-3.427-.94c0 0 .647 1.583 3.196 1.631 0 0-.357 1.84-.589 2.097 0 0-2.214.106-3.145-1.172 0 0 .107 1.43 2.888 1.708 0 0-.718 2.173-2.468 2.433 0 0-1.547-.38-1.395-1.71" fill="#FCCC2D"/><path d="M129.618 140.11c-1.083-2.94-3.568.076-3.568.076s-.352.245-.85-.209c-.494-.456-2.12-.557-2.789.742 0 0-1.34 1.613-3.638.88l-.142-.595s-.458.737-2.187 1.721c0 0 1.445-2.458.946-4.277l-.494-.247s-.427-2.207 1.55-2.28c0 0 1.52-.248 1.805 1.645 0 0 1.519-1.44-.146-3.084 0 0-.567-.666-2.015-.278 0 0-3.708.777-2.43 3.72 0 0 .213 1.156.955 1.435 0 0-.884-.173-1.096-.525 0 0-1.484.283-1.058 1.757 0 0 .427 1.751-1.481 1.194l-.53-.105s.105-1.403-1.45-1.47c0 0 .278-2.595-.82-3.469 0 0-1.804-1.435-3.002.32 0 0-.777.91-.173 2.172 0 0-.004-1.928 1.729-1.37 0 0 1.307.315 1.063 1.963 0 0 0 .176-.565.386-.565.21-.634 1.685-.173 2.103l.318-.034s.599-1.228 1.73-1.02c0 0-.92.177-1.166.879 0 0 .425.105.462.664.036.562.178 1.753 1.38 1.717l.423-.913s-.316 2.21.887 2.593c1.202.384 1.096.91 1.168 1.084 0 0-1.824.281-1.205 2.295-.005-.018.673-1.835 2.62-1.49 0 0-2.225.144-2.152 2.002 0 0-.703 2.35.993 2.767 0 0 .443.142 1.026.14 1.056-.001 2.572-.47 2.75-3.09 0 0-.596 2.735-2.612 1.967 0 0-1.449-.418-.992-1.926 0 0 .245-1.051 1.588-.81 0 0 1.164-1.194.384-3.75 0 0 .849.593 1.345 2.275 0 0 .14-.7-.071-1.12-.215-.421-.074-1.265.88-1.3 0 0 2.79.101 2.504-2.633 0 0 .353.594.426 1.016 0 0 2.58.452 3.566-1.268 0 0 .037.42.002.667 0 0 1.944.943 2.753-.497 0 0-1.368-2.49 1.552-2.42M80.38 157.494c2.78-.286 2.881-1.718 2.881-1.718-.925 1.28-3.14 1.182-3.14 1.182-.233-.256-.598-2.094-.598-2.094 2.552-.057 3.193-1.643 3.193-1.643-1.44 1.306-3.424.952-3.424.952l-.028-.843c2.447-.234 2.933-2.536 2.933-2.536l-.18-.05c-.795 2.045-2.033 1.69-2.033 1.69.387-.409.254-2.07.254-2.07 1.362-2.202-.778-3.168-.778-3.168.18-.588.823-.693.823-.693.338 1.763 2.224 4.699 2.224 4.699.568 1.354.93.485 2.143 3.064 1.214 2.581.033 4.269.033 4.269l-.44-.332c.157 1.33-1.388 1.714-1.388 1.714-1.75-.252-2.476-2.423-2.476-2.423" fill="#FCCC2D"/><path d="M83.015 136.784c-1.095.877-.807 3.472-.807 3.472-1.555.071-1.446 1.474-1.446 1.474l-.531.106c-1.907.565-1.485-1.19-1.485-1.19.422-1.472-1.063-1.751-1.063-1.751-.212.35-1.095.528-1.095.528.743-.282.953-1.438.953-1.438 1.268-2.948-2.444-3.713-2.444-3.713-3.372-.562-2.941 2.842-2.15 3.37.28-1.895 1.798-1.652 1.798-1.652 1.979.068 1.558 2.276 1.558 2.276l-.492.247c-.494 1.823.96 4.275.96 4.275-1.733-.978-2.194-1.715-2.194-1.715l-.14.598c-2.294.739-3.64-.87-3.64-.87-.674-1.298-2.299-1.19-2.792-.735-.494.458-.847.213-.847.213s-2.42-3.007-3.57-.063c2.914-.164 1.559 2.415 1.559 2.415.814 1.437 2.757.488 2.757.488-.035-.246 0-.667 0-.667.991 1.715 3.57 1.257 3.57 1.257.07-.424.42-1.02.42-1.02-.276 2.737 2.513 2.627 2.513 2.627.954.033 1.097.875.887 1.296-.212.421-.07 1.12-.07 1.12.492-1.682 1.34-2.278 1.34-2.278-.774 2.559.394 3.75.394 3.75 2.37-.299 1.858 2.421.798 2.748-2.013.776-2.81-1.973-2.81-1.973.23 3.231 2.54 3.21 3.784 2.937 1.696-.424.986-2.77.986-2.77.068-1.86-2.159-1.996-2.159-1.996 2.127-.223 2.617 1.504 2.617 1.504.632-2.034-1.205-2.312-1.205-2.312.07-.175-.036-.701 1.164-1.089 1.201-.387.879-2.595.879-2.595l.425.91c1.202.034 1.342-1.16 1.375-1.719.034-.562.459-.668.459-.668-.248-.7-1.168-.874-1.168-.874 1.131-.21 1.735 1.015 1.735 1.015l.316.034c.46-.421.386-1.894-.18-2.104-.565-.209-.565-.384-.565-.384-.25-1.647 1.057-1.965 1.057-1.965 1.729-.563 1.732 1.364 1.732 1.364.856-2.558-1.536-3.768-3.183-2.483" fill="#FCCC2D"/><path d="M78.119 84.744l2.215 1.215c1.175-3.68 2.417-3.877 2.417-3.877-1.685.077-4.05.606-4.632 2.662m24.803-13.181c3.942 3.181 2.2 7.997.082 11.51.127.204.26.419.392.637.222-1.191.951-2.283 2.712-2.789-1.455-3.618.604-6.55 5.552-7.733-2.15-1.161-5.255-2.589-8.738-1.625m-16.496.675c5.366 1.264 6.786 4.473 5.546 7.623.496.14.911.327 1.256.55-1.286-3.978-.08-7.154 3.673-9.02-3.678-2.368-8.463-.398-10.475.847M80.13 87.025l-2.119-1.769c-.117.882.024 1.251.192 2.382.273.05 1.672.31 1.897.357-.011-.303.03-.946.03-.97m-3.093 1.019c.679 1.332 2.602 2.453 4.242 3.205-.508-.681-.862-1.411-1.037-2.19-1.054-.478-2.373-.794-3.205-1.015m-31.361 21.494c-2.65.245-5.066-.631-5.066-.631l4.97-7.175-.293-2.674-.682 1.047c-.727 2.814-3.243 4.594-7.278 5.147-3.035.416-6.121-.041-6.121-.041l5.478-7.687-2.994 1.877c-4.373 2.471-9.172 1.826-12.559.773-.189 3.713.781 8.181 4.457 12.988 12.193-.533 12.013 2.602 10.644 9.359.015.005.36.225.36.225l3.572-9.478 7.806-.013c1.732-2.054 1.54-2.12 3.59-3.968l-4.438.007a9.672 9.672 0 0 1-1.446.244" fill="#FFF"/><path d="M150.795 81.3c5.083.984 10.026 4.49 15.11 10.713l11.193 2.809c-.98-2.708-15.757-30.416-77.514-30.416-61.758 0-76.313 27.744-77.297 30.344l9.924-2.523c7.067-8.707 14.694-13.06 24.268-10.073 2.727-1.208 6.755-1.466 8.77-1.518-1.702-1.627-9.357-2.197-9.398-2.201 3.597.083 17.12-1.518 20.894 8.94l.669.12c-1.694-2.315-5.854-7.288 7.45-8.454 1.001-1.798 1.282-3.336-1.233-5.594-2.046-1.838-10.104-1.531-10.14-1.53 5.74-.437 7.016-.73 12.575.248 1.995-4.065 9.227-4.542 14.425-2.022.972-.231 9.593-1.952 11.53 2.968 4.25-.893 8.163-.595 12.651-.29-7.287-.133-11.983 1.016-12.112 4.94-.023.694.29 1.463.697 2.307 3.292.164 6.295.87 7.935 1.995.373.255.68.53.918.824l2.505-.946-2.282 1.256c.204.329.332.678.382 1.05.127.94-.245 2.022-1.122 3.242l-.805 1.12c.224-.043.4-.076.671-.125 4.051-9.35 13.01-9.28 20.988-9.123-.041.006-7.74.606-9.447 2.26 1.638.037 4.596.207 7.123.909 3.985-1.492 7.367-1.87 10.672-1.23" fill="#FFF"/><path d="M118.258 83.717c-.629-.291-1.409-.438-2.35-.454.27.35.655.897 1.029 1.58l1.967-.744a3.472 3.472 0 0 0-.646-.382m59.869 15.827c-8.405 3.096-12.378.458-16.678-2.219l5.505 7.67c-.104.01-11.627 1.781-13.417-5.063-.014-.023-.454-.694-.686-1.045l-.285 2.675c.052.074 4.845 7.213 4.845 7.213-2.251.77-4.988.912-7.3.069l-6.333.009a37.779 37.779 0 0 1 4.149 4.286l25.59-.024c3.794-5.2 4.958-9.035 4.61-13.57M117.946 90.2a5.438 5.438 0 0 1-.234.775 15.473 15.473 0 0 1 2.12-.287c.583-.467 1.062-.98 1.337-1.527-.362.1-2.173.556-3.223 1.04m.138-1.079c.228-.05.455-.098.68-.141 0 0 .954-.175 1.229-.227l.208-1.445c0-.01.048-.366-.01-.863-.06-.499-.226-1.136-.653-1.71l-2.096 1.155c.293.703.527 1.49.616 2.321.03.298.035.603.026.91m44.682-21.19l-.706-.376 3.175-3.736.09.048-2.56 4.064zm3.102-7.36l-8.801 9.388 2.038 1.085 1.637-1.902.91.484-1.317 2.071 2.049 1.092 6.112-10.822-2.628-1.397zm-18.156-7.577c-2.353-.543-2.865-.395-3.699 1.765l-.529 1.368a4.4 4.4 0 0 0-.202.612c-.161.684-.014 1.266.43 1.73l1.278 1.298c.303.304.3.445.247.668-.017.075-.052.16-.09.261l-.677 1.742c-.148.373-.28.562-.565.496-.24-.055-.314-.182-.255-.434.024-.103.042-.179.07-.236l.893-2.287-2.408-.554-.926 2.358c-.221.56-.325.944-.37 1.138-.288 1.234.48 1.521 2.222 1.923.703.162 1.26.276 1.713.275.367 0 .667-.077.925-.264.501-.355.708-.98 1.034-1.8l.856-2.184c.069-.173.139-.345.185-.538.154-.656-.024-1.245-.533-1.739l-1.175-1.164c-.267-.266-.318-.434-.268-.642.031-.134.07-.235.097-.29l.425-1.111c.143-.359.294-.56.576-.494.242.056.317.183.258.436 0 0-.017.075-.084.231l-.644 1.671 2.365.545.676-1.742c.154-.403.315-.773.395-1.117.295-1.263-.508-1.527-2.22-1.921m11.263 6.188l1.015-1.806-4.68-1.793-1.015 1.805 1.193.456-5.13 9.135 2.292.879 5.13-9.134 1.195.458m17.707 10.659l1.432-1.5-4.089-2.884-1.431 1.5 1.043.736-7.241 7.597 2.002 1.412 7.241-7.597 1.043.736M29.32 66.511l2.423 4.145-.664.443-1.844-4.532.084-.056zm-2.684-2.018l4.248 12.11 1.919-1.282-.927-2.325.856-.57 1.23 2.123 1.93-1.287-6.783-10.42-2.473 1.65zm17.166-.343l-2.308.877.616 2.644c.088.391.103.632-.21.75-.217.083-.337.014-.43-.228a2.144 2.144 0 0 1-.08-.248l-1.652-7.14c-.083-.377-.11-.612.187-.726.244-.093.38-.03.472.213.006.015.02.092.061.24l.377 1.621 2.294-.872s-.613-2.596-.722-2.881c-.457-1.184-1.272-.955-2.902-.337-1.208.46-1.95.758-2.213 1.447-.207.552-.07 1.188.138 2.09l1.693 7.288c.128.573.265 1.013.381 1.311.201.522.53.728 1.012.728.467 0 1.076-.197 1.851-.492 1.194-.453 1.912-.775 2.178-1.416.243-.584.086-1.227-.127-2.143l-.616-2.726m81.989-3.148l3.883.668.62-1.94-1.448-.249 1.182-3.64 1.446.248.634-1.937-1.462-.251.802-2.482 1.462.252.631-1.924-3.883-.666L125.791 61m-24.447-2.046l2.455-.004 1.74-12.404-2.456.003-1.74 12.405M20.436 69.436l-1.941 1.494 4.986 8.63c.19.337.286.553.023.758-.197.15-.334.139-.494-.065a.96.96 0 0 1-.138-.224l-1.29-2.236-1.837 1.415 1.326 2.306c.308.535.561.882.694 1.05.288.371.574.535.897.534.488 0 1.06-.377 1.856-.99 1.986-1.531 2.084-1.995.939-3.974l-5.021-8.698m32.989-16.473l-2.32.76.067 5.22-.096.032-.896-4.95-2.237.732 2.245 12.325 2.237-.732-1.074-5.905.096-.032 2.15 5.553 2.35-.768-2.737-6.294.215-5.94m58.249-5.949l-2.634 12.247 3.93.275.419-1.99-1.465-.103 2.2-10.258-2.45-.17m9.032.701l-3.39 12.062 3.907.516.54-1.963-1.455-.19 2.834-10.104-2.436-.321m-35.73 5.891l-.101.01-.853-6.303-2.288.211-.596 12.51 2.114-.195.288-6.132.102-.009.884 6.023 2.274-.208.597-12.51-2.1.192-.321 6.41m-10.774-2.285l-.147 7.324c-.008.416-.055.638-.386.678-.231.028-.33-.069-.362-.326a1.715 1.715 0 0 1-.017-.26l.146-7.324c.012-.387.044-.621.36-.658a.802.802 0 0 1 .09-.006c.197 0 .288.1.316.326.001.014.011.09 0 .246zm-.32-2.623c-1.27.151-2.076.264-2.5.87-.351.486-.358 1.15-.38 2.06l-.141 7.479a9.094 9.094 0 0 0 .048 1.362c.095.78.587 1.018 1.474 1.017.352 0 .767-.04 1.244-.096 1.27-.153 2.043-.293 2.459-.85.39-.523.384-1.183.402-2.11l.158-7.479c.01-.524.005-.924-.032-1.227-.153-1.259-1-1.234-2.732-1.026zm-7.85 9.173a3.486 3.486 0 0 0-.062-.565c-.143-.657-.555-1.116-1.23-1.347l-1.563-.557c-.355-.128-.473-.259-.517-.467a1.435 1.435 0 0 1-.037-.305l-.092-1.184c-.024-.386.026-.63.312-.69.242-.052.364.031.418.285 0 0 .016.074.023.245l.133 1.783 2.374-.507-.134-1.86c-.033-.43-.048-.833-.12-1.176-.277-1.27-1.116-1.17-2.837-.803-2.36.503-2.76.855-2.587 3.161l.108 1.46c.013.2.03.417.08.642.147.685.53 1.151 1.132 1.381l1.713.634c.404.15.461.277.51.502.015.074.02.167.03.274l.134 1.862c.028.4-.012.627-.296.687-.242.052-.363-.031-.419-.285-.022-.104-.038-.179-.038-.242l-.172-2.448-2.417.517.175 2.524c.04.6.11.992.152 1.187.169.774.552 1.038 1.242 1.038.414 0 .94-.096 1.595-.236 1.279-.274 2.05-.487 2.392-1.106.3-.533.219-1.186.162-2.066l-.164-2.338m28.052-2.93h-.102l.627-8.248-2.328.003-.197 12.402 2.734-.004 3.294-12.407-2.326.003-1.702 8.251m29.967 39.704c4.8-4.505 15.787-12.828 26.78-11.584 0 0 7.618 1.23 12.793 9.333-5.143-7.538-12.531-8.681-12.531-8.681-5.492-.62-10.961 1.116-15.617 3.546-4.53 2.363-8.233 5.354-10.58 7.49a41.271 41.271 0 0 0-.845-.104m38.874-.231l-1.7-1.012s18.822 3.59 18.73 3.642l-17.03-2.63" fill="#FFF"/><path d="M152.724 89.082c1.409 1.65 2.5 2.23 5.443 2.163a18.61 18.61 0 0 1-5.443-2.163m-4.484 2.965c.199-.447-.046-1.054-.268-1.416h-.001a1.26 1.26 0 0 0-.23.182c.04.367.004.626.004.626-1.656 3.427 4.093 4.366 5.09 4.501-5.083-1.098-4.596-3.893-4.596-3.893m9.8 6.778l-.672-3.763.048.135 1.075 3.035s-.142 4.563 5.618 5.41l-1.182.072c-5.817-.687-4.887-4.889-4.887-4.889m-8.125 3.678l1.744-5.645-2.663 5.694c-.812 7.435 6.703 5.26 6.703 5.26-6.044-.127-5.784-5.309-5.784-5.309m-8.202-1.024l4.836-3.876-4.281 4.322a22.792 22.792 0 0 0-.555-.446m-1.337 4.265l-.115-.958s.382-.02.825-.04l.896 1.639-1.606-.64M18.034 97.219L36.897 93.6l-1.698 1.016-17.02 2.687c-.093-.053-.145-.085-.145-.085m22.073-5.772c2.463-.501 4.372-1.596 5.274-2.192-.28.328-.59.702-1.004 1.102-1.17 1.128-3.565 1.132-4.27 1.09m1.986 3.17c3.522-.499 4.998-3.23 4.998-3.23.302-.858.745-1.273 1-1.453l.006.007c-.549.95-.854 1.926-.854 1.926-1.342 2.74-4.624 2.75-5.15 2.75m7.783-2.412c-.2-.446.064-1.057.264-1.417.083.05.16.11.233.181-.042.367-.003.626-.003.626 1.668 3.421-3.929 4.359-4.925 4.497 5.08-1.113 4.431-3.887 4.431-3.887m1.467 4.101c3.4-1.095 3.65-2.653 3.58-3.328l.552.088c.986 2.232-4.234 3.301-4.234 3.301l.102-.061m-17.297 7.545c5.757-.865 5.601-5.428 5.601-5.428l1.065-3.04.047-.133-.66 3.764s.944 4.199-4.87 4.904l-1.183-.067m14.976-1.35l-2.547-5.475 1.763 5.642s.276 5.178-5.768 5.325l1.525.398c7.112-.546 5.027-5.89 5.027-5.89m2.564-4.746l3.468 3.454c.141-.102.294-.212.46-.327l-3.928-3.127m5.487 7.126c.442.017.824.038.824.038l-.028.24c-.499.291-.973.582-1.422.87l.626-1.148m47.123-2.997l-.354-.493c2.05.08 2.007-2.06 2.007-2.06l-.65-.042c.46-.338 1.198-.617 1.198-.617.168 3.264-1.709 3.242-2.201 3.212m-15.332-3.184s.737.276 1.2.613l-.65.043s-.035 2.142 2.013 2.054l-.35.495c-.046.002-2.376.334-2.213-3.205m26.888.394l-.87-.26c13.41-4.31 26.364 3.676 26.364 3.676-14.209-7.105-25.494-3.416-25.494-3.416m5.921-7.351c-4.254.775-6.54 3.938-6.54 3.938l-1.017.582c3.142-4.647 7.557-4.52 7.557-4.52m-86.828 45.774l.994-.001 7.445-19.755 5.21-.009.024-.946-5.871.008-7.802 20.703" fill="#FFF"/><path fill="#FFF" d="M44.978 131.575l-3.891.006-.287.947 4.815-.007 1.058-11.257-.727.002-.968 10.309m-.684 5.925h.733l.361-3.598-.733.002-.36 3.596m39.477-12.234l-.187.947 3.103-.004.192-.948-3.108.005m-6.659 8.69l3.46-17.203 8.03-.012-.195.948-7.198.01-3.378 16.797a4.835 4.835 0 0 0-.719-.54m4.321 3.051l.193-.948h.593a3.28 3.28 0 0 0-.64.948h-.146m-28.224.48l.828-.002 3.972-19.749 5.156-.008.015-.947-5.808.008-4.163 20.698m22.204-19.778l.192-.948-5.724.01-4.966 12.624h1.025l4.578-11.678 4.895-.008m-13.936 19.765h.66l.303-12.344-.66.002-.303 12.342m6.492-.01h.829l2.491-12.347-.828.001-2.492 12.346m51.482-18.074a1.701 1.701 0 0 0-.194-.166c.042.154.067.326.068.524 0 .201-.035.44-.102.704-.086.425-2.26 11.206-2.658 13.17.411-.203.865-.347.901-.359l2.394-11.867c.068-.263.104-.5.104-.703-.002-.66-.28-1.075-.513-1.303m-5.349 16.655c-.218 0-.827.001-1.34-.372.078.306.225.568.443.785a1.87 1.87 0 0 0 1.022.496c-.007-.324.046-.67.115-.918a2.995 2.995 0 0 1-.24.009"/><path d="M112.539 118.237c.983-.77 2.978-.812 6.15-.816 1.824-.004 4.02-.004 5.049.379v-.017c-.002-.49-.14-.627-.193-.678-.645-.637-3.334-.633-5.494-.629-3.171.006-5.164.047-6.15.815-.674.515-.862 1.308-1.19 2.909l-2.785 13.897c-.095.447-.159.836-.202 1.173.002-.003.003-.003.005-.004 0 0 .347-.095.811-.118.008-.034 2.807-14.004 2.807-14.004.33-1.6.519-2.393 1.192-2.907m59.167.933c.04.154.054.853-.034 1.223l-.368 1.867.825-.002.18-.919c.278-1.163-.135-1.843-.603-2.17m-2.051 9.965c.123.414.108.914-.011 1.387l-.693 3.444c-.603 2.963-3.366 1.963-3.74 1.69.096.37.281.624.445.787.79.781 3.385 1.106 3.934-1.532 0-.006.708-3.532.708-3.532.163-.821.116-1.62-.643-2.244m-9.357 4.986c-.509 2.45-.093 2.75.396 2.94v-.018c-.002-.3.03-.954.242-1.976l.764-3.714 3.306-.006.192-.947-4.136.008c-.28 1.36-.762 3.713-.764 3.714" fill="#FFF"/><path d="M170.422 116.45c-6.331.01-6.66.439-7.324 3.8l-.539 2.71c-.207.985-.209 1.731.565 2.359-.122-.494-.05-.818.073-1.415l.539-2.709c.666-3.36.992-3.788 7.323-3.8 1.841-.003 4.059-.005 5.088.387-.017-1.184-1.47-1.342-5.725-1.332m-1.217 9.538l3.751 1.613c.472.197.81.403 1.06.605-.078-.388-.388-1.003-1.696-1.55l-3.753-1.615c-.264-.113-.702-.302-1.08-.626.288.95 1.262 1.375 1.718 1.573m-18.647-9.305l-3.822.008-4.164 20.697.828-.002 3.973-19.75 2.992-.004.193-.949m.506 10.789l.71 9.9h.569l-.711-9.9h-.568m7.549-9.854l.504-.947-3.741.006-3.675 8.057 1.092-.001 3.22-7.111 2.6-.004m-51.431 21.722c.316-1.613 1.27-1.266 1.27-1.266 1.131.28 1.026 1.578 1.026 1.578-1.801.423-.913 2.56-.913 2.56-2.12-.173-1.383-2.872-1.383-2.872m10.703-1.14l-.671-.279s-.286-1.927 1.657-1.757c0 0 1.096.175.992 1.648 0 0 .003 1.998-2.714 4.176 0 0 .987-1.615.736-3.788m10.465 4.05s-1.028-1.997 1.303-1.824c0 0 2.3 1.398.785 4.52 0 0 .597-2.524-2.088-2.696m-13.341 8.505s-.533-1.226 1.057-1.404c0 0-.21.84-.494.983 0 0 1.73-.739 1.762-3.333 0 0 1.206 2.873-.417 4.346 0 0-.414.345-.884.348-.365 0-.761-.206-1.024-.94m-31.283-11.062s-.107-1.297 1.022-1.58c0 0 .953-.352 1.275 1.26 0 0 .746 2.698-1.374 2.876 0 0 .88-2.138-.923-2.556m-10.389-1.808c-.109-1.471.985-1.648.985-1.648 1.944-.18 1.664 1.749 1.664 1.749l-.671.28c-.244 2.176.749 3.787.749 3.787-2.725-2.168-2.727-4.168-2.727-4.168m-9.782 2.647c2.33-.18 1.309 1.82 1.309 1.82-2.685.18-2.08 2.7-2.08 2.7-1.524-3.115.77-4.52.77-4.52m12.771 10.88c-1.627-1.468-.43-4.346-.43-4.346.04 2.594 1.771 3.328 1.771 3.328-.281-.14-.496-.982-.496-.982 1.59.174 1.063 1.402 1.063 1.402-.26.734-.658.942-1.022.942-.47.001-.886-.344-.886-.344M139.38 93.95l1.467-.732s1.048.972-.06.974c-.296 0-.745-.069-1.407-.242m-.483 1.265l1.638-.126s.444.96-.089.96c-.25.001-.717-.21-1.549-.834m3.059.717l1.638-.126s.445.96-.09.96c-.25.001-.716-.21-1.548-.834m-1.481.729l1.513.635s-.04.85-.39.85c-.223 0-.574-.347-1.123-1.485m-2.962.271l1.623-.256s.547.965-.05.966c-.26 0-.737-.183-1.573-.71m-2.598.005l1.29.12s.304.683-.036.684c-.183 0-.551-.197-1.254-.804m-77.798-3.742l1.47.726c-.663.177-1.112.246-1.408.247-1.107.003-.062-.973-.062-.973m.318 1.871l1.638.12c-.83.625-1.295.838-1.546.839-.532 0-.092-.96-.092-.96m-3.057.727l1.637.12c-.829.626-1.295.84-1.546.84-.533.001-.091-.96-.091-.96m1.612 1.485l1.509-.64c-.545 1.14-.894 1.487-1.117 1.488-.35 0-.393-.848-.393-.848m2.849-.629l1.624.251c-.834.53-1.311.715-1.571.715-.596 0-.053-.966-.053-.966m92.186-5.428c-.284-.794-.69-1.201-.953-1.399l-.022-.016-.037-.027c.552.947.859 1.923.859 1.923 1.518 3.07 5.012 2.732 5.5 2.72-3.655-.29-5.347-3.2-5.347-3.2m-7.827 1.617l-.552.088c-.98 2.236 4.163 3.278 4.246 3.288-3.395-1.083-3.763-2.702-3.694-3.376m1.827 18.8l-.521-.398a44.653 44.653 0 0 0-2.32-1.668c-8.712-5.793-18.054-7.985-25.75-7.372-.133.011-.268.022-.403.035l.628.528s13.954-1.534 28.366 8.875M79.752 99.25s-11.298-3.654-25.482 3.496c0 0 12.926-8.026 26.352-3.76l-.87.263m-5.945-7.332c4.257.761 6.554 3.916 6.554 3.916l1.018.58c-3.158-4.637-7.572-4.496-7.572-4.496m-23.287 19.97l.52-.4a46.397 46.397 0 0 1 2.316-1.676c8.692-5.82 18.027-8.042 25.724-7.453.134.01.268.021.404.034l-.626.53s-13.959-1.49-28.338 8.965" fill="#FFF"/><path d="M63.539 87.07c-4.802-2.596-10.531-4.512-16.283-3.843 0 0-7.614 1.254-12.762 9.373a22.61 22.61 0 0 1 1.24-1.66c4.99-6.069 11.263-7.061 11.263-7.061C60.42 82.229 73.453 95.03 73.53 95.103c0 0 .783-.052.882-.056-3.56-3.341-7.523-6.165-10.874-7.976m72.709 55.857h-.895v2.351h-.707v-2.35h-.894v-.565h2.496v.564zm3.749 2.351h-.64v-2.35h-.015l-.851 2.35h-.38l-.851-2.35h-.015v2.35h-.64v-2.915h1.035l.661 1.726.663-1.726h1.033v2.915zM27.138 129.002l4.124-.008.191-.946-4.952.007-.28 1.354h.834l.083-.407m.536-12.308c-6.438.012-6.686.411-7.362 3.86 0 0-2.774 13.796-2.76 13.773-.453 2.122-.327 2.72.359 2.964.056-.008.094-1.082.279-2.017l2.758-13.772c.658-3.352.889-3.851 7.364-3.86 1.732-.003 4-.006 5.049.388 0-.91-.354-1.341-5.687-1.336" fill="#FFF"/><path d="M28.885 119.435c.213.827-.17 1.586-.365 2.9 0 0 .832-.01.826 0 .166-.865.596-2.086-.461-2.9m-4.481 17.777c.02-.001 1.78-.866 2.185-1.383-.001.021 1.159-5.475 1.159-5.475l-.833.002s-.868 4.198-.904 4.31c-.303 1.664-2.611 1.955-3.626 1.222.224.891 1.096 1.324 2.019 1.324m112.492-17.956c.041.156.068.33.069.527 0 .125-.02.221-.036.304l-.395 2.033.827-.001s.242-1.264.242-1.392c-.002-.66-.28-1.074-.512-1.304a1.836 1.836 0 0 0-.195-.167m-4.516 17.768c1.962-.003 2.279-1.533 2.4-2.111l.809-4.055 3.287-.006.197-.946-4.123.006c-.287 1.452-.806 4.05-.808 4.058-.554 2.682-3.082 2.214-3.742 1.736.23.895 1.039 1.324 1.98 1.318" fill="#FFF"/><path d="M135.69 116.51c-3.267.005-5.164.045-6.134.802-.665.526-.884 1.329-1.23 3.028 0 0-2.632 13.1-2.762 13.79-.192 1.025-.717 2.818.367 2.93-.018.023.077-1.072.27-1.983l2.763-13.79c.344-1.701.565-2.502 1.23-3.03.97-.757 2.866-.797 6.134-.803 1.823-.002 4.02-.004 5.048.379v-.017c0-.488-.14-.626-.193-.678-.645-.637-3.333-.633-5.493-.629m-35.295.056c-6.269.01-6.644.27-7.363 3.832l-2.762 13.789c-.575 2.685-.228 2.779.363 2.987.015-.452.08-1.129.275-2.041l2.762-13.79c.691-3.416.968-3.821 7.361-3.83 1.826-.004 4.02-.006 5.05.376l.002-.017c-.004-1.09-1.112-1.31-5.688-1.306" fill="#FFF"/><path d="M101.601 119.312c.04.156.05.748.034.832-.014.064-.395 2.031-.395 2.031h.827c.267-1.58.466-2.031-.466-2.863m-2.117 15.658c.002-.006.521-2.604.809-4.056l3.287-.006.197-.946-4.12.006c-.29 1.452-.81 4.051-.81 4.057-.55 2.646-3.063 2.23-3.741 1.74.476 1.862 3.992 1.832 4.378-.795m73.028-55.102l2.719 2.83 1.662-1.191-1.015-1.055 3.135-2.228 1.013 1.055 1.672-1.182-1.024-1.065 2.133-1.52 1.024 1.065 1.66-1.171-2.719-2.83-10.26 7.292" fill="#FFF"/></g></svg>