<svg width="200" height="200" xmlns="http://www.w3.org/2000/svg"><g fill="none" fill-rule="evenodd"><path d="M77.98 143.323a121.72 121.72 0 0 1 4.823-2.767V39H41.52s6.929 6.817 6.929 24.53v64.419a3.067 3.067 0 0 1-3.071 3.061H35.016a3.066 3.066 0 0 1-3.07-3.061v-2.688c0-18.384 7.592-25.2 7.592-25.2H0v55.309c24.919 12.14 53.215 2.956 77.98-12.047M147.347 127.949a3.067 3.067 0 0 1-3.073 3.061h-10.361a3.067 3.067 0 0 1-3.071-3.061V39H96.487v96.33c18.56-7.094 27.576-2.343 27.642-2.308-1.979.923-3.77 1.92-5.347 3.024-1.216.85-6.215 6.7-6.215 10.341 0 9.325 15.257 16.222 35.31 15.407 15.413-.629 28.554-5.633 33.824-12.147V61.59c0-15.772 6.93-22.589 6.93-22.589h-41.284v88.949Z" fill="#0F433A"/><path d="M77.98 143.323a121.72 121.72 0 0 1 4.823-2.767l-.19.045a97.48 97.48 0 0 0-10.18 2.912c-28.146 9.68-54.314 7.942-72.433-2.216v14.073c24.919 12.14 53.215 2.956 77.98-12.047M147.34 152.295c-18.638 1.741-32.841-3.082-31.725-10.774.277-1.914 1.48-3.825 3.414-5.642-4.537 3.398-7.462 6.8-7.462 10.508 0 9.325 16.257 16.222 36.31 15.407 15.413-.629 28.554-5.633 33.824-12.147v-11.13c-4.41 6.467-18.408 12.287-34.361 13.778M199.773 148.287h-1.232v-3.582h-.133l-1.13 2.506h-.864l-1.143-2.55h-.165v3.626h-1.169v-4.582h2l.928 2.24.965-2.24h1.943v4.582Zm-6.566-3.59h-1.315v3.59h-1.239v-3.59h-1.313v-.992h3.867v.993Z" fill="#BFB07D"/></g></svg>