<svg width="200" height="200" xmlns="http://www.w3.org/2000/svg"><g fill-rule="nonzero" fill="none"><path d="M199.215 36.395v126.988H.005V36.775c-.01-.18-.02-.359.127-.38h199.083Zm-5.439 62.355c.296-18.592.043-37.733.127-56.537-27.026-.295-54.598-.042-81.834-.126-.158.052-.258.163-.253.38.084 18.155-.169 38.466.127 56.283h81.833Zm0 59.067c.296-18.17.043-36.89.127-55.272-27.026-.295-54.598-.042-81.834-.127-.158.054-.258.164-.253.38v54.893c27.067.296 54.683.042 81.96.126Zm-85.122.38c.21-38.366.21-77.617 0-115.984-34.277-.295-69.102-.042-103.59-.126-.147.063-.284.137-.379.252-.21 38.325-.21 77.534 0 115.858 34.362.211 69.608.211 103.969 0Z" fill="#FFF"/><path d="M193.903 42.213c-.084 18.804.169 37.945-.127 56.537h-81.833c-.296-17.817-.043-38.128-.127-56.284-.005-.216.095-.327.253-.379 27.236.084 54.808-.17 81.834.126Zm-22.767 47.305c1.892-2.662 2.825-6.656 2.277-11.004-.454-3.594-2.445-6.272-4.553-7.969-2.957-2.376-7.674-3.673-12.27-4.68-5.738-1.26-13.164-2.102-14.292-7.335-1.143-5.313 3.346-8.881 7.59-9.487 10.055-1.438 15.62 7.141 17.833 14.166.786.2 2.25.2 3.036 0-.073-5.744.142-12.142-.127-16.822-.574-.227-1.513-.09-2.276-.126-1.239 1.165-1.997 2.809-3.162 4.047-4.307-3.252-10.614-5.723-17.581-4.427-6.614 1.234-11.463 6.282-12.143 12.143-1.428 12.305 6.962 15.22 15.684 17.328 4.353 1.048 9.871 1.665 12.648 3.92 2.155 1.756 3.336 6.272 1.645 9.36-1.344 2.446-4.296 4.317-7.842 4.68-6.668.685-11.315-1.417-14.293-4.427-2.735-2.766-4.322-6.788-5.818-10.877-.901.068-2.087-.148-2.783.126-.21 5.692-.21 12.269 0 17.96 3.99.902 4.021-3.224 6.324-4.426 2.884 2.144 5.97 4.09 9.613 4.806 8.195 1.618 16.733-1.676 20.49-6.956ZM193.903 102.545c-.084 18.382.169 37.102-.127 55.272-27.277-.084-54.893.17-81.96-.126v-54.893c-.005-.216.095-.326.253-.38 27.236.085 54.808-.168 81.834.127Zm-13.787 6.703c.207-.779.207-2.376 0-3.162a270.38 270.38 0 0 0-18.466 0c-.205.744-.205 2.293 0 3.036 8.706-.069 7.083 9.439 7.083 18.466 0 4.427.221 9.102-.126 12.649-.359 3.689-2.156 6.455-3.92 7.968-4.818 4.121-14.378 3.105-17.582-1.518-2.762-3.983-2.15-10.118-2.15-17.834v-9.992c0-2.846-.57-7.894.884-9.107 1.292-1.075 4.254-.131 6.324-.632.249-.78.154-2.24 0-3.036-7.799-.21-16.483-.21-24.284 0-.479.512-.268 2.32-.126 3.036 2.102.432 4.869-.363 6.071.759 1.176 1.097.76 5.07.76 7.336v8.222c0 5.48-.386 11.372 0 16.442.663 8.749 7.056 12.795 15.05 13.913 11.837 1.655 22.798-3.61 23.4-14.545.231-4.249 0-9.77 0-15.052 0-8.095-1.397-17.723 7.082-16.949Z" fill="#152238"/><path d="M180.116 106.086c.207.786.207 2.383 0 3.162-8.48-.774-7.082 8.854-7.082 16.95 0 5.28.231 10.802 0 15.051-.602 10.935-11.563 16.2-23.4 14.545-7.994-1.118-14.387-5.164-15.05-13.913-.386-5.07 0-10.962 0-16.442v-8.222c0-2.266.416-6.24-.76-7.336-1.202-1.122-3.969-.327-6.07-.759-.143-.716-.354-2.524.125-3.036 7.8-.21 16.485-.21 24.284 0 .154.796.249 2.257 0 3.036-2.07.5-5.032-.443-6.324.632-1.454 1.213-.885 6.261-.885 9.107v9.992c0 7.716-.61 13.85 2.15 17.834 3.205 4.623 12.765 5.64 17.582 1.518 1.765-1.513 3.562-4.28 3.92-7.968.348-3.547.127-8.222.127-12.649 0-9.027 1.623-18.535-7.083-18.466-.205-.743-.205-2.292 0-3.036a270.38 270.38 0 0 1 18.466 0M173.413 78.514c.548 4.348-.385 8.342-2.277 11.004-3.757 5.28-12.295 8.574-20.49 6.956-3.642-.716-6.73-2.662-9.613-4.806-2.303 1.202-2.334 5.328-6.324 4.426-.21-5.691-.21-12.268 0-17.96.696-.274 1.882-.058 2.783-.126 1.496 4.09 3.083 8.11 5.818 10.877 2.978 3.01 7.625 5.112 14.293 4.427 3.546-.363 6.498-2.234 7.842-4.68 1.691-3.088.51-7.604-1.645-9.36-2.777-2.255-8.295-2.872-12.648-3.92-8.722-2.108-17.112-5.023-15.684-17.328.68-5.86 5.53-10.91 12.143-12.143 6.967-1.296 13.274 1.175 17.581 4.427 1.165-1.238 1.923-2.882 3.162-4.047.763.037 1.702-.1 2.276.126.269 4.68.054 11.078.127 16.822-.785.2-2.25.2-3.036 0-2.213-7.025-7.778-15.604-17.833-14.166-4.244.606-8.733 4.174-7.59 9.487 1.128 5.233 8.554 6.076 14.293 7.336 4.595 1.006 9.312 2.303 12.27 4.68 2.107 1.696 4.098 4.374 4.552 7.968" fill="#FFF"/><path d="M108.654 42.213c.21 38.367.21 77.618 0 115.984-34.361.211-69.607.211-103.969 0-.21-38.324-.21-77.533 0-115.858.095-.115.232-.189.38-.252 34.487.084 69.312-.17 103.589.126Zm-16.19 14.798c.206-1.791.206-4.405 0-6.197-15.726-.295-32-.042-47.937-.127-.158.053-.258.164-.252.38.073 2.034-.159 4.374.126 6.198 4.432.522 11.805-1.276 14.166 1.517 1.075 1.27 1.228 4.359 1.264 7.463.185 15.373 0 30.023 0 44.901 0 5.845.275 11.837-.252 17.707-.76 8.443-5.423 14.688-13.028 16.316-3.895.833-7.71.412-11.13-.632-4.185-1.275-8.49-3.683-9.36-7.968 5.054.97 8.67-.812 11.51-3.036 1.913-1.501 4.179-3.783 5.186-5.818 1.755-3.546 1.054-9.786-.633-12.521-1.876-3.047-5.386-5.835-9.74-6.198-10.665-.891-16.752 6.75-17.453 15.684-.69 8.832 3.473 14.692 7.715 18.593 3.473 3.192 9.012 6.528 14.925 7.842 6.861 1.522 14.07 1.285 20.49-.254 11.984-2.872 20.548-10.63 22.387-23.273.96-6.603.253-14.85.253-22.513v-34.15c0-3.49-.706-8.311.506-11.004 1.591-3.536 6.804-2.287 11.257-2.91Z" fill="#152238"/><path d="M92.844 50.6c.206 1.792.206 4.406 0 6.197-4.453.623-9.665-.626-11.256 2.91-1.213 2.693-.506 7.515-.506 11.003v34.15c0 3.821.24 15.009.18 16.733-.067 1.908-.183 4.058-.434 5.781-.375 2.58-1.03 4.957-1.938 7.13-3.539 8.476-10.911 13.857-20.448 16.143-6.42 1.539-13.63 1.776-20.491.253-5.913-1.313-11.452-4.649-14.925-7.841-4.242-3.901-8.406-9.761-7.715-18.594.701-8.932 6.788-16.574 17.454-15.683 4.354.363 7.863 3.151 9.74 6.197 1.686 2.736 2.387 8.976.632 12.522-1.007 2.034-3.273 4.316-5.186 5.818-2.84 2.224-6.456 4.006-11.51 3.036.87 4.285 5.175 6.693 9.36 7.968 3.42 1.043 7.236 1.465 11.13.632 7.605-1.628 12.269-7.872 13.028-16.316.527-5.87.253-11.863.253-17.707 0-14.878.185-29.529 0-44.901-.037-3.104-.19-6.193-1.264-7.463-2.362-2.793-9.734-.995-14.167-1.517-.284-1.824-.053-4.164-.126-6.198-.005-.216.094-.327.253-.38 15.936.085 32.21-.168 47.936.127" fill="#FFF"/></g></svg>