<svg width="200" height="200" fill="none" xmlns="http://www.w3.org/2000/svg"><path d="M109.91 50.569h-2.179l-7.576 25.1h7.372l2.383-25.1Z" fill="#000"/><path d="M186.052 31.04h-28.055l-1.59 3.524-.29-3.548-57.996.023-11.018 29.324L93.014 31h-26.89l-7.21 35.895H37.343l-3.415 16.75c-.668 3.278-.805 5.676-.805 7.105 0 11.243 12.15 11.243 21.912 11.243 8.566 0 14.36-.401 18.419-2.305l-.71 1.896h25.413l1.37-4.388-.444 4.388 45.077.004 1.75-3.945.275 3.941h27.117l-4.749-37.453 17.499-33.092Zm-53.916 37.107-5.162 11.062 1.134-42.658 4.028 31.596Zm-77.1 28.263c-12.056 0-16.335-.855-16.335-5.66 0-.962.09-3.023.695-5.994l2.505-12.28h14.598l-2.328 11.51c-.149.385-.235.93-.235 1.512 0 2.524 2.347 2.524 3.23 2.524 2.894 0 3.49-1.645 3.93-3.647l9.598-47.793H86.2l-9.637 47.86c-2.156 10.736-4.37 11.969-21.528 11.969Zm64.778-.408h-14.56l1.217-12.02h-8.668l-3.752 12.02H79.668l22.312-59.385h19.412l-1.578 59.385Zm31.576 0-1.228-17.692-1.523-.27-7.922 17.55h-12.931l11.73-26.462-4.177-32.923h15.019l1.441 18.925h1.04l8.758-18.509h14.626l-13.994 26.462 4.176 32.923H151.39v-.004Z" fill="#000"/><path d="M53.441 89.344Z" fill="#010101"/><path d="m70.042 35.777-9.727 48.437c-.412 1.884-.813 3.007-3.144 3.007-1.72 0-2.434-.452-2.434-1.727 0-.6.102-1.052.204-1.28l2.536-12.538H41.253l-2.634 12.919c-.609 2.999-.71 5.103-.71 6.155 0 5.786 5.475 6.457 17.13 6.457 17.543 0 20.079-1.503 22.309-12.612l9.83-48.814H70.041v-.004ZM101.431 35.82 78.518 96.8H94.64l3.752-12.02h7.2l-1.217 12.02h16.22l1.621-60.98h-20.785Zm6.893 15.545h.706l-2.229 23.506h-5.574l7.097-23.505ZM177.326 36.248h-17.028l-8.095 17.936-.039.059-1.28-18.41h-17.233l4.259 33.57-14.496 27.404h17.032l8.13-18.018 1.284 18.434h17.229l-4.256-33.57 14.493-27.405Z" fill="#CA2127"/><path d="M71.71 38.572 67.19 61.073C64.9 72.47 62.686 83.468 62.682 83.492c-.216 1-.612 2.838-2.076 4.078-.02.02-.047.036-.067.051-.13.106-.26.208-.404.303-.844.553-1.979.918-3.51.918-.914 0-2.143-.094-3.238-.726a4.919 4.919 0 0 1-.4-.255c.05.196.113.373.18.541.255.656.612 1.139.938 1.469 1.264 1.268 2.976 1.413 4.153 1.413 4.903 0 5.716-3.745 6.061-5.35 0-.008.208-1.033.558-2.78 1.37-6.819 4.946-24.605 7.14-35.541l1.327-6.595h8.38l.209-1.033.286-1.413H71.712ZM43.569 73.647a11474.842 11474.842 0 0 1-2.076 10.171c-.55 2.716-.633 4.557-.633 5.413 0 1.13.314 1.44.452 1.582.267.263.679.479 1.185.667.004-.27.016-.62.044-1.036.015-.208.03-.436.054-.68a33.15 33.15 0 0 1 .53-3.497l2.077-10.17h7.494l.49-2.45H43.57ZM146.417 38.996l-6.921.036h-2.214l3.494 29.657-12.35 23.243 2.277 1.005 12.652-24.162-3.545-27.325 6.866.035-.259-2.489ZM163.057 41.47h7.459l1.205-2.435h-9.657l-9.162 17.728 1.7.97 8.455-16.264ZM83.609 92.293h2.547l.004-.004 5.34-14.207 13.833-36.813h13.354l.028-1.02.039-1.43H103.7L83.609 92.294ZM108.779 82.997l-.938 9.292v.004h1.881l.938-9.3h-1.877l-.004.004Z" fill="#fff"/><path d="M114.008 50.34h-1.864l-2.528 26.635h-9.98l-.349 1.166-.388 1.288h12.346l2.763-29.088ZM152.14 92.403h1.877l-1.747-15.208h-1.767l1.637 15.208Z" fill="#fff"/><path d="M50.223 87.64Z" fill="#CB2128"/><path d="m179.638 158.685-.121.639.121-.639Z" fill="#010101"/><path d="m106.558 117.377-7.577 25.099h7.376l2.379-25.099h-2.178Z" fill="#000"/><path d="M196.004 117.251 200 97.847h-36.605l-.797.004H53.905l-.444 2.202a13.182 13.182 0 0 0-3.23-1.428c-3.694-1.1-8.778-1.186-15.035-1.186-17.233 0-24.028 1.413-26.992 16.389l-1.417 7.109c-.2.977-.502 2.457-.502 4.118 0 3.639 1.393 6.799 4.055 9.26H4.13L.809 150.437C.14 153.648 0 155.925 0 157.267c0 11.545 12.18 11.545 22.925 11.545 10.026 0 16.436-.263 20.915-3.894 3.918-3.101 4.738-7.074 5.617-11.313.079-.389.161-.789.26-1.237l.965-4.726.467-2.288.887-4.342c.216-.95.515-2.253.515-3.792 0-1.975-.53-5.48-3.726-8.585h5.7l2.245-11.152h2.112L48.645 168.4h48.334l1.37-4.389-.443 4.389h48.26l10.237-50.917h2.391L148.549 168.4h37.252l3.796-19.478h-10.182l1.209-5.869h10.245l3.989-19.47h-10.391l1.236-6.324h10.301v-.008Zm-91.927 45.559 1.217-12.016h-8.668l-3.753 12.016H78.49l22.313-59.385h19.415l-1.586 59.385h-14.555Zm-45.603-59.385H91.83l-1.704 8.468H81.2L70.96 162.81H55.456l10.237-50.917h-8.919l1.7-8.468Zm31.098 14.05-8.18 21.774 4.376-21.774h3.804Zm88.119 11.678h10.332l-1.703 8.314h-10.242l-3.505 17.025h10.257l-1.621 8.318h-25.846l11.949-59.385h25.846l-1.7 8.248h-10.351l-3.416 17.48Zm-52.888 11.749.624-23.427h4.087l-4.711 23.427Zm1.284 21.908 10.241-50.917h-8.926l1.704-8.468h33.351l-1.708 8.468h-8.919l-10.237 50.917h-15.506Zm-74.153-49.594c-.094.455-.188.922-.278 1.385l-1.7 8.444h-15.31l1.523-7.725c.216-.872.228-1.312.228-1.39 0-2.595-2.43-2.595-3.227-2.595-2.755 0-3.529 1.829-3.929 3.643l-1.1 5.731c-.148.448-.23 1.064-.23 1.708 0 1.711 1.271 2.61 3.32 3.509l9.841 4.283c3.914 1.657 5.896 4.012 5.896 7.003 0 .915-.196 1.77-.388 2.618l-2.328 11.408c-.094.432-.18.852-.263 1.264-.746 3.596-1.283 6.194-3.615 8.043-3.086 2.501-8.648 2.681-17.445 2.681-13.23 0-17.347-.824-17.347-5.966 0-.888.09-2.803.69-5.696l2.407-11.679h15.608l-2.23 10.945c-.121.408-.121.848-.121 1.401 0 2.599 2.43 2.599 3.226 2.599 2.83 0 3.455-1.881 3.82-3.647l1.83-9.092.05-.266c.087-.436.165-.848.165-1.233 0-1.543-.463-2.434-3.21-3.659l-10.741-4.804c-3.459-1.594-5.213-3.977-5.213-7.082 0-1.017.177-1.959.389-3.003l1.42-7.129c2.093-10.567 4.507-11.902 21.52-11.902 12.59 0 17.347.514 17.347 5.967.008 1.26-.29 2.705-.605 4.236Z" fill="#000"/><path d="m192.106 112.47 2.029-9.842h-27.474l-12.271 60.979h27.474l1.932-9.912h-10.242l3.176-15.431h10.237l2.03-9.908h-10.336l3.101-15.886h10.344ZM90.777 112.693l2.026-10.061h-34.98L55.8 112.693h8.919l-10.238 50.914h17.13l10.239-50.914h8.926ZM77.344 163.607h16.118l3.753-12.016h7.199l-1.217 12.016h16.22l1.629-60.979h-20.785l-22.917 60.979Zm28.287-21.928h-5.574l7.093-23.506h.707l-2.226 23.506ZM35.2 102.216c-16.833 0-20.071 1.276-22.3 12.542l-1.422 7.129c-.2.981-.404 2.033-.404 3.16 0 3.447 1.927 6.081 5.676 7.804l10.748 4.809c2.536 1.126 2.74 1.801 2.74 2.928 0 .377-.102.824-.204 1.35l-1.83 9.084c-.404 1.955-1.012 3.007-3.038 3.007-1.72 0-2.43-.53-2.43-1.802 0-.522 0-.903.098-1.205l2.434-11.937H8.035L5.5 151.399c-.609 2.928-.707 4.879-.707 5.853 0 6.233 5.676 6.763 18.144 6.763 9.13 0 14.7-.227 17.943-2.861 2.842-2.25 3.242-5.48 4.157-9.759l2.332-11.415c.204-.899.404-1.798.404-2.776 0-3.301-2.127-5.931-6.383-7.737l-9.833-4.279c-2.23-.977-2.842-1.727-2.842-2.779 0-.675.102-1.205.208-1.503l1.11-5.787c.413-1.872 1.12-2.995 3.145-2.995 1.72 0 2.43.522 2.43 1.798 0 0 0 .377-.204 1.197l-1.72 8.715h16.931l1.83-9.084c.404-2.1.906-4.051.906-5.782-.008-6.375-5.888-6.752-18.151-6.752Zm14.634 5.021c.09.133.192.338.267.659l-.267-.659ZM163.438 102.632h-34.98l-2.026 10.061h8.927l-10.246 50.914h17.139l10.238-50.914h8.918l2.03-10.061Z" fill="#CA2127"/><path d="M131.111 160.475h-2.174l8.679-43.153 1.056-5.253h2.174l-9.735 48.406ZM159.112 108.262h-26.418l-.263 1.303h-2.175l.769-3.804h28.59l-.503 2.501ZM110.177 150.967l-.02.216-.942 9.292H107.292l.843-8.334.122-1.178h1.924l-.004.004ZM113.384 119.877l-2.603 27.435H98.145l.754-2.504h10.21l2.591-27.259h1.904l-.22 2.328Z" fill="#fff"/><path d="M118.459 105.761v.004l-.066 2.497h-13.665l-19.62 52.213H82.499l20.562-54.714h15.399ZM60.476 160.475h-2.175l9.74-48.406h2.174l-9.739 48.406ZM62.058 108.262l-.263 1.303h-2.17l.765-3.804h28.593l-.506 2.501H62.058ZM20.77 144.239h-8.675c-.739 3.599-2.022 9.821-2.022 9.825-.561 2.697-.644 4.428-.644 5.221v.047a3.795 3.795 0 0 1-.824-.424c-.012-.008-.032-.016-.043-.027-.048-.032-.079-.071-.118-.102-.06-.051-.126-.099-.173-.153-.42-.448-.51-1.017-.51-1.845 0-.401.023-1.049.118-1.94.09-.863.25-1.955.526-3.281 0-.004 1.283-6.226 2.021-9.822H21.28l-.51 2.501ZM33.81 148.604a493.614 493.614 0 0 1-1.028 5.08c-.283 1.358-1.142 5.499-6.108 5.499-.636 0-2.505 0-3.937-1.209a4.362 4.362 0 0 1-.283-.259 4.424 4.424 0 0 1-.8-1.134 4.704 4.704 0 0 1-.366-.943c.263.197.538.342.817.471 1.193.554 2.41.57 2.9.57 1.818 0 3.082-.558 3.97-1.323 1.542-1.335 1.958-3.309 2.135-4.173.004-.024 2.15-9.986 2.092-11.07a11.932 11.932 0 0 0-.07-.891 5.146 5.146 0 0 0-.158-.813c.098.083.189.169.279.256.326.306.608.639.836 1.012.251.413.44.876.573 1.386.118.467.193.978.208 1.551.016.439-.522 3.289-1.06 5.99ZM29.904 127.473c.083.035.165.074.24.106.004 0 2.131.93 4.408 1.919l5.429 2.363c1.323.562 2.253 1.147 2.913 1.716.946.812 1.33 1.59 1.488 2.194.015.067.03.134.043.2-.648-.529-1.54-1.079-2.776-1.605 0 0-9.837-4.283-9.84-4.283-.158-.07-.342-.149-.539-.243-1.299-.605-3.309-1.739-3.956-3.926v-.004c.883.77 1.892 1.253 2.59 1.563ZM39.93 118.04c-.106.522-.243 1.217-.428 2.194h-2.167l.79-3.984.188-.95c.027-.11.047-.212.07-.318.26-1.221.244-1.99.06-2.767a84.343 84.343 0 0 0-.036-.153c.028.019.059.047.087.07.6.471 1.758 1.582 1.758 3.824 0 .585-.05.749-.322 2.084Z" fill="#fff"/><path d="M50.062 108.415c-.507-.197-1.119-.354-1.818-.483-3.026-.562-7.603-.565-11.529-.565-12.616 0-16.145.659-17.888 4.867-.55 1.331-.923 3.019-1.347 5.154 0 0-1.009 5.08-1.33 6.682l-.095.478c-.18.876-.31 1.598-.337 2.269-.008.232-.008.456.008.679.02.267.058.53.125.793a7.97 7.97 0 0 1-.373-.333c-1.244-1.201-1.437-2.45-1.437-3.392 0-.675.114-1.366.252-2.076.027-.15.059-.295.086-.444 0-.004.043-.204.106-.526.33-1.653 1.319-6.63 1.319-6.63.306-1.543.585-2.85.923-3.961 1.099-3.612 2.846-5.123 8.223-5.712 2.49-.274 5.747-.353 10.089-.353 3.878 0 8.4 0 11.427.542 1.417.251 2.508.624 3.05 1.166.122.121.404.424.503 1.299.027.161.043.338.043.546ZM179.898 156.482l-.362 1.865-.121.64H171.301l.506-2.505h8.091ZM185.063 131.143l-.514 2.505h-8.137l.498-2.501v-.004h8.153ZM170.791 107.92l-10.505 52.217h-2.171l4.377-21.755 6.63-32.959h21.076l-.518 2.497h-18.889Z" fill="#fff"/></svg>