<svg width="200" height="200" xmlns="http://www.w3.org/2000/svg"><g fill="none"><path d="M36.699 67.405l-5.84 23.559H6.59l-5.285 21.323c-1.209 4.872-.174 9.898 2.839 13.788 3.019 3.899 7.618 6.135 12.618 6.135h150.944c9.251 0 17.593-6.561 19.834-15.6l12.195-49.205H36.699" fill="#AEA057"/><path d="M38.92 70.245l-5.84 23.559H8.813l-4.75 19.167c-1 4.024-.15 8.167 2.327 11.366s6.258 5.033 10.373 5.033h150.944c7.965 0 15.146-5.654 17.077-13.444l11.322-45.681H38.921" fill="#302566"/><path d="M10.143 117.846c.01.038.026.075.036.113l-.026-.099-.01-.014" fill="#FFF"/><path d="M43.83 76.583l-8.785 35.435h-7.52l2.945-11.877H13.72l-3.507 14.151c-.532 2.146-.08 4.353 1.24 6.058 1.32 1.704 3.336 2.683 5.528 2.683H41.78c5.056 0 9.615-3.59 10.84-8.535l9.4-37.915H43.83m64.548.025l-12.91 23.196-2.301-23.196H69.573l-11.514 46.45h18.19l6.507-26.25 2.163 26.25h13.27l15.254-26.383-6.54 26.382h18.19l11.514-46.449h-28.23m61.489-.025l-8.786 35.435h-7.519l8.778-35.41H144.15l-9.34 37.684c-.532 2.146-.08 4.353 1.24 6.058 1.32 1.704 3.336 2.683 5.529 2.683h26.235c5.056 0 9.616-3.59 10.84-8.535l9.4-37.915h-18.188" fill="#AEA057"/><path d="M16.982 123.033H41.78c5.056 0 9.615-3.59 10.84-8.535l9.4-37.915h-3.34l-9.17 36.996c-.888 3.584-4.143 6.146-7.806 6.146h-30.68c.131.214.273.424.43.625 1.319 1.704 3.334 2.683 5.527 2.683m116.285-46.425l-10.696 43.145h-14.848l-.819 3.304h18.19l11.514-46.449h-3.341m8.313 46.425h26.235c5.056 0 9.616-3.59 10.841-8.535l9.4-37.915h-3.338l-9.17 36.996c-.888 3.584-4.143 6.146-7.807 6.146h-32.119c.132.214.274.424.43.625 1.32 1.704 3.335 2.683 5.528 2.683m-67.839-3.28H58.878l-.819 3.304h18.19l6.507-26.25-.83-10.077-8.186 33.023m22.75 0H84.646l.272 3.304H98.19l15.254-26.382 2.693-10.863-19.646 33.941" fill="#FFF"/><path fill="#FFF" d="M162.34 76.608h-3.342l-8.778 35.41h3.342l8.777-35.41m-138.155 35.41h3.341l2.945-11.877h-3.342l-2.944 11.877"/><path d="M193.085 129.617a.424.424 0 0 0-.046-.195.338.338 0 0 0-.152-.144.59.59 0 0 0-.228-.07 2.915 2.915 0 0 0-.291-.013h-.266v.958h.203c.14 0 .26-.01.36-.029.1-.02.18-.053.242-.1.06-.045.105-.1.134-.166a.592.592 0 0 0 .044-.241zm1.465 2.399h-1.074l-1.034-1.252h-.34v1.252h-.84v-3.411h1.296c.24 0 .433.009.578.027.145.019.29.067.432.143.156.087.27.193.342.317.073.124.11.279.11.463 0 .249-.07.454-.21.615-.14.16-.323.286-.547.376l1.287 1.47zm.745-1.625c0-.737-.26-1.37-.782-1.9a2.554 2.554 0 0 0-1.888-.794 2.55 2.55 0 0 0-1.887.795 2.61 2.61 0 0 0-.783 1.9c0 .736.26 1.37.783 1.9.521.529 1.15.793 1.887.793.737 0 1.366-.264 1.888-.794.521-.53.782-1.163.782-1.9zm.757 0c0 .946-.335 1.753-1.004 2.423a3.304 3.304 0 0 1-2.423 1.004 3.304 3.304 0 0 1-2.422-1.004 3.302 3.302 0 0 1-1.005-2.423c0-.945.335-1.753 1.005-2.422a3.302 3.302 0 0 1 2.422-1.005c.946 0 1.753.335 2.423 1.005a3.303 3.303 0 0 1 1.004 2.422z" fill="#302566"/></g></svg>