<svg width="200" height="200" xmlns="http://www.w3.org/2000/svg"><g fill="none"><path d="M136.417 182.538c0 2.183-1.78 3.953-3.975 3.953-2.196 0-3.976-1.77-3.976-3.953s1.78-3.954 3.976-3.954c2.195 0 3.975 1.77 3.975 3.954" fill="#FFF"/><path d="M136.382 182.538c0 2.183-1.78 3.953-3.975 3.953-2.196 0-3.976-1.77-3.976-3.953s1.78-3.954 3.976-3.954c2.195 0 3.975 1.77 3.975 3.954" fill="#FFF"/><path d="M136.382 182.503c0 2.183-1.78 3.953-3.975 3.953-2.196 0-3.976-1.77-3.976-3.953 0-2.184 1.78-3.953 3.976-3.953 2.195 0 3.975 1.77 3.975 3.953" fill="#FFF"/><path d="M136.382 182.538c0 2.183-1.78 3.953-3.975 3.953-2.196 0-3.976-1.77-3.976-3.953s1.78-3.954 3.976-3.954c2.195 0 3.975 1.77 3.975 3.954" fill="#FFF"/><path d="M118.68 126.881a122.143 122.143 0 0 1 6.102-4.084c-1.553 2.908-1.94 5.48-2.149 6.922l-.013.078c-.843.407-1.959 1.073-3.35 2.32-1.403 1.258-2.353 2.699-2.908 3.616-1.343.298-2.513.655-3.264 1.552-.456.543-.598 1.113-.857 2.148-.229.918-.543 2.175-1.04 3.276-.15.333-.286.629-.415.904a29.15 29.15 0 0 0-2.183-2.257c-1.182-1.082-2.677-2.169-3.928-3.032 3.08-2.735 9.28-8.053 14.005-11.443zm-.538-114.563c-5.382.258-8.964 3.68-10.606 5.667-6.293-2.006-12.954-1.968-18.885.178-9.346 3.381-12.366 8.929-13.534 11.202-1.213.207-3.182.73-4.987 2.362-.734.663-1.812 2.137-3.655 4.684-1.744 2.41-3.913 5.409-5.09 6.515-3.512 3.298-5.071 3.816-7.05 3.685a2.502 2.502 0 0 0-2.632 1.979c-.034.154-.05.317-.05.485 0 2.232 2.793 5.55 5.045 6.383 1.021.376 1.969.6 2.825.732-.187.58-.352 1.183-.46 1.766-.149.794-.627 2.48-1.048 3.97-.7 2.47-1.094 3.859-1.094 4.798 0 .76.258 1.225.821 1.73a2.45 2.45 0 0 0 1.71.655c-.155.62-.337 1.283-.564 1.984-.358 1.103-1.093 2.554-1.683 3.72-.616 1.215-1.182 2.333-1.182 3.314 0 .687.279 1.308 1.012 1.848.318.234.929.648 2.685.582l-.17.277c-.781 1.227-1.365 2.143-1.365 3.09 0 .326.069.656.223 1.003.253.569.7.972 1.254 1.255-.654.502-1.23 1.12-1.594 1.87a4.124 4.124 0 0 0-.066 3.486c.273.63.609 1.115.984 1.515-.36.152-.709.302-1.04.453-1.693-5.873-3.867-8.84-6.485-8.802a4.878 4.878 0 0 0-1.782.364l-.5-1.462-1.046-2.99c-3.557-9.48-6.782-9.254-7.842-9.18-3.314.234-4.186 3.475-4.364 6.6-.625-.63-1.376-1.003-2.354-.934a3.282 3.282 0 0 0-1.358.411c-.57-1.2-1.2-2.394-1.84-3.3l-.388-.554c-1.902-2.724-4.509-6.455-8.005-5.002-2.866 1.191-3.624 3.898-3.624 6.903 0 1.83.281 3.77.538 5.546.149 1.027.346 2.132.563 3.24-.23-.076-.459-.168-.69-.198a3.491 3.491 0 0 0-2.986 1.019c-1.174 1.178-1.564 2.48-1.564 3.737 0 1.581.618 3.09 1.067 4.187l.273.682c-.041.02-.08.036-.122.058-2.215-2.043-5.428-4.31-8.28-2.778-.993.533-1.683 1.416-1.994 2.553a5.51 5.51 0 0 0-.182 1.466c0 3.477 2.552 7.874 3.13 8.826.287.472.844 1.449 1.407 2.448-.685.242-1.39.727-1.794 1.73-.167.414-.24.83-.24 1.241 0 1.157.583 2.284 1.321 3.275-.899.178-1.641.667-2.126 1.566-1.475-.462-5.386-1.397-6.495 1.272a2.406 2.406 0 0 0-.184.933c0 2.331 3.122 4.835 4.501 5.828-.174.358-.295.737-.295 1.137 0 .178.018.358.054.537.357 1.745 2.175 3.038 6.114 5.277l.415.238c-.024.08-.062.142-.08.229a2.897 2.897 0 0 0-.065.612c0 2.508 3.307 4.187 4.45 4.767l.493.233c-.803 1.207-1.308 2.496-1.424 3.881-.014.167-.02.33-.02.493 0 3.211 2.646 5.62 5.29 5.907.006 0 .158.015.395.03.068.347.164.711.337 1.274.005.016.26.719.718 1.515-.794.105-1.754.281-2.98.58-2.593.63-6.312 1.966-8.31 2.684l-.987.353c-3.608 1.258-3.853 2.753-3.933 3.245a2.47 2.47 0 0 0 .933 2.364c.184.142.373.248.561.331-3.272 1.949-4.618 5.245-4.618 7.517 0 .264.017.513.052.746.165 1.097.376 1.932.56 2.519a8.674 8.674 0 0 0-.347 2.426c0 1.787.522 3.909 2.136 5.96 3.265 4.15 9.964 5.881 15.154 5.757 3.938-.095 6.154-.71 7.266-1.033 6.1 1.996 12.9 2.604 20.223 1.794 7.807-.865 15.02-3.635 18.171-4.98 1.046.886 2.528 1.683 4.412 1.763 4.576.195 7.32-4.272 9.4-8.668a139.171 139.171 0 0 0 1.898-4.172c.261.243.529.476.806.678l.518.382c1.364 1.016 2.91 2.166 5.058 1.782a3.633 3.633 0 0 0 1.991-1.056c.515.367 1.1.766 1.851 1.22l.316.19c1.096.662 2.17 1.31 3.205 1.794-.193.252-.386.498-.575.78-2.449 3.638-3.225 6.872-3.225 9.347 0 1.824.422 3.235.906 4.092.948 1.676 2.302 1.804 2.84 1.78.237-.01 2.325-.17 2.487-2.618.095-1.423 1.98-3.468 3.544-4.932 1.075-1.007 2.03-1.64 2.783-2.049.502.904 1.145 1.936 1.868 2.78 1.002 1.167 2.647 1.982 3.85 2.578l.59.304.179.225c.94 1.217 2.899 3.752 7.115 3.795 4.226.042 9.519-4.131 11.927-7.108 2.92-3.61 4.46-7.022 5.103-8.672 1.702-.915 5.252-3.24 10.289-8.686 8.28-8.952 11.917-19.442 12.562-21.454 1.32-4.12 1.976-7.446 1.976-10.12 0-1.852-.315-3.392-.941-4.666-1.306-2.657-3.158-3.805-4.68-4.2-1.4-2.133-4.957-6.613-10.804-7.797a24.994 24.994 0 0 0-4.38-.501c2.27-1.246 3.967-2.193 4.982-2.915.975-.694 8.677-6.378 8.677-12.718a7.52 7.52 0 0 0-.344-2.262c-1.237-3.948-4.643-5.63-7.436-6.353a5.3 5.3 0 0 0 .147-1.184c0-.34-.032-.691-.102-1.054-.202-1.045-.65-1.866-1.273-2.522 5.139-.257 11.136-.863 16.918-2.195 8.078-1.861 12.785-3.518 16.568-4.849 1.723-.606 3.21-1.13 4.78-1.595a212.636 212.636 0 0 1 8.112-2.222c1.537-.393 1.697-.434 2.09-.695a2.753 2.753 0 0 0 1.233-2.45 2.638 2.638 0 0 0-1.483-2.211l-.373-.166c-4.967-2.12-9.46-4.664-12.355-6.425-3.075-1.871-6.037-4.1-8.22-5.851 2.632-.612 5.795-1.268 7.729-1.398 7.373-.497 12.115.93 13.812 1.566 2.354.882 3.836 2.273 3.851 2.287l2.699 2.56 1.261-3.484c.193-.539 4.58-13.337-7.903-26.66-12.171-12.99-30.483-14.903-43.034-11.238-1.78-1.563-5.41-4.508-8.375-5.326-4.532-1.25-7.355-.583-9.008.278-2.449-1.513-7.544-4.21-12.444-3.975z" fill="#FFF"/><path d="M33.673 149.523c-.654.529-1.144 1.017-1.144 1.22 0 .203-.041.975-.164 1.341-.122.366.123 1.382.286 1.423.164.041.86-.285 1.636-.57.776-.284 1.716-.772 1.716-.772s-.327-.812-.45-1.34a36.692 36.692 0 0 1-.367-1.911c-.04-.284-.368-.529-.368-.529s-.49.61-1.145 1.138zm14.839-3.049c-.204 1.383.245 2.521.122 3.13-.122.61-.735 2.643-.735 2.643s.409-.122 1.063-.198c.68-.078.858-.168.898-.33.041-.163-.192-1.382-.192-1.952 0-.57.274-1.87.397-3.374s-.45-1.95-.45-1.95-.941.934-1.103 2.031zm143.436-90.85c-2.46-.922-7.541-2.206-14.829-1.715-4.043.272-12.731 2.598-12.731 2.598s5.778 5.245 12.123 9.104c7.25 4.41 12.653 6.564 12.907 6.69.253.127.146.407-.007.507-.152.101-3.916.944-9.552 2.614-5.21 1.544-9.649 3.744-21.203 6.406-15.778 3.635-33.555 1.892-33.58 1.866-.026-.025-.101.63-.229 1.185-.127.555-.355 1.16-.33 1.186.026.026 2.938-.075 7.99.114 6.747.253 8.32 1.339 8.674 3.165.43 2.22-1.667 3.643-1.667 3.643s7.46-.1 9.123 5.209c1.457 4.65-4.486 10.212-7.43 12.307-2.935 2.089-13.712 7.09-23.943 14.427-6.66 4.776-16.105 13.24-16.232 13.468-.126.227-.203.151-.051.328.152.177 3.784 2.39 5.984 4.4 2.16 1.977 4.187 4.78 4.187 4.78s.372-.034 2.257-4.212c.961-2.13 1.294-4.566 1.547-4.868.52-.62 2.815-.857 2.967-1.008.152-.152 1.166-2.299 2.967-3.913 1.8-1.614 2.965-2.047 3.675-2.324.71-.277.067-3.962 2.793-8.443 3.247-5.335 8.226-6.108 14.172-4.904 6.533 1.323 9.82 7.678 9.82 7.678s2.332-.319 3.973 3.018c1.17 2.378.888 6.59-1.167 12.999-1.333 4.16-5.125 13.082-12.038 20.555-6.637 7.177-10.448 8.578-10.448 8.578s-1.312 4.282-5.048 8.9c-2.162 2.673-6.894 6.242-10.017 6.21-3.992-.04-5.099-3.082-5.86-3.561-.76-.48-3.103-1.384-4.058-2.497-1.374-1.602-2.536-4.263-2.536-4.263s-2.476.405-5.614 3.343c-5.525 5.174-3.874 6.872-4.476 6.898-.928.04-2.864-4.852 1.594-11.478 2.224-3.305 4.844-4.11 4.844-4.212 0-.101-1.012-.276-1.8-.889-.845-.656-1.108-1.279-1.091-1.196l-.63-.286s1.237 2.54.808 2.75c-1.152.562-3.646-1.009-5.833-2.327-2.893-1.744-3.606-2.794-3.834-2.768-.228.025-.424 2.068-1.692 2.295-1.268.227-2.194-.627-3.716-1.737-1.522-1.11-2.976-3.469-2.976-3.469s-.507 1.877-3.348 7.88c-2.841 6.002-4.99 7.378-7.108 7.288-2.643-.112-3.906-2.27-3.906-2.27s-9.122 4.4-19.048 5.499c-12.196 1.35-19.453-1.867-19.884-1.892-.432-.025-2.394.997-7.396 1.117-4.65.112-10.543-1.47-13.19-4.834-2.786-3.542-1.127-6.917-1.127-6.917s-.443-.922-.733-2.86c-.181-1.21.572-4.559 4.033-6.205 3.374-1.604 6.848.957 6.848.957s.431-.58.964-1.008c.532-.429 1.116-.757 1.116-.757s-.035-.454-.06-.807c-.026-.353.009-.656.009-.656s-1.116-.126-2.486-.252-4.184-.908-5.275-1.135c-1.09-.227-1.826-.1-2.054-.277-.228-.176.871-.934 2.317-1.438 1.445-.504 6.09-2.245 9.07-2.97 3.819-.928 4.566-.561 4.566-.561s.178-.833.406-1.312c.228-.478.456-1.11.43-1.11-.024 0-1.02-.918-1.4-2.154-.392-1.272-.341-1.133-.4-3.092 0 0-.99.252-2.384.1-1.395-.15-3.3-1.646-3.12-3.808.252-3.02 2.891-4.716 2.942-4.842.05-.126-1.01-.44-3.323-1.614-2.553-1.296-3.219-2.26-3.117-2.74.101-.48 1.038-.438 1.85-.438.81 0 1.52.126 1.597 0 .076-.126-2.854-1.387-4.173-2.169-1.32-.782-5.485-2.967-5.72-4.112-.195-.96 4.515-.328 4.439-.479-.076-.152-.776.18-4.616-2.296-1.774-1.143-4.267-3.7-4.033-4.262.196-.472 2.025-.401 3.719.16 1.438.476 3.484.873 3.484.873s-1.266-1.114-.887-2.017c.593-1.417 6.074.863 6.392.453.143-.184-1.167-1.235-3.171-3.278-2.004-2.043-2.181-3.088-1.987-3.57.242-.603.947-.415 1.682-.465.736-.05 1.75-.101 1.7-.228-.05-.126-2.435-4.413-3.17-5.624-.736-1.21-4.487-8.081-1.877-9.482 2.597-1.395 7.462 4.55 7.666 4.574.203.026-.355-1.409.729-1.85 1.006-.41 2.506 1.404 2.967 1.034.116-.092-1.064-1.952-1.826-3.96-.732-1.927-2.1-4.343-.34-6.109 1.987-1.994 6.303 5.506 6.303 5.506s-1.815-6.778-2.514-11.603c-.655-4.522-1.156-8.73 1.624-9.886 1.83-.76 3.754 2.27 5.478 4.716 1.725 2.447 3.601 7.718 3.728 7.768.127.05.072-3.749 1.624-3.859.862-.06 1.672 2.346 2.486 4.994.964 3.137 2.003 4.993 2.105 4.993.101 0 .177-3.984.025-7.818-.152-3.834-.055-7.683 2.1-7.834 2.156-.151 4.48 5.158 5.404 7.62.936 2.493 2.784 8.503 3.276 8.563.256.031-.08-2.875 2.355-2.91 2.597-.038 4.849 9.87 4.849 9.87s4.282-2.328 7.226-2.93c3.23-.66 6.85-.525 6.85-.525s-.837-.429-4.363-.883c-3.525-.454-5.028-.196-5.833-2.055-.751-1.736 1.33-3.034 2.815-3.435 1.138-.308 4.185-.537 4.464-.738.28-.202.417-1.432.64-2 .237-.602.73-1.506.73-1.506s-1.835.995-4.084 1.312c-2.586.363-4.09-.09-4.169-.266-.132-.297 1.367-2.319 1.874-3.328.508-1.008 1.077-3.165 1.077-3.165s-1.414.362-2.301.513c-.888.151-2.46.315-2.796.067-.293-.216 1.91-3.723 2.716-6.21 1.143-3.524 1.36-6.318 1.36-6.318s-.793.297-1.198.423c-.406.126-1.737.958-1.99.73-.254-.226 1.698-6.229 2.079-8.272.38-2.043 1.67-4.584 1.67-4.584s-2.364.576-5.571-.608c-1.976-.73-3.972-4.23-3.367-4.19 3.068.203 5.324-1.003 8.873-4.338 2.387-2.243 7.38-9.963 8.711-11.166 2.131-1.927 4.59-1.799 4.84-1.942.766-.442 2.057-7.225 12.88-11.141 8.514-3.08 15.937-.693 18.295.152.493.177.8.055.8.055s3.436-5.61 9.686-5.91c5.848-.281 12.382 4.491 12.382 4.491s1.895-2.647 8.307-.879c3.383.933 8.39 5.692 8.39 5.692 12.623-4.251 30.526-1.94 41.894 10.193 11.625 12.407 7.395 24.212 7.395 24.212s-1.77-1.717-4.679-2.807z" fill="#1967B8"/><path d="M164.267 64.402c-.147-.098-2.45-.88-4.462-1.895-1.637-.827-4.802-2.663-4.802-2.663s-.534-.342-1.164-.127a620.447 620.447 0 0 0-8.799 3.08c-2.403.871-8.547 3.594-9.768 4.031-1.22.437-1.639.74-2.032.754-1.044.038-1.929.316-1.4.64.091.055 6.708.098 11.132.007 5.324-.108 12.572-.14 13.158-.188.728-.06 1.876-.549 4.344-1.796 2.533-1.28 3.071-1.36 3.513-1.497.673-.211.28-.346.28-.346m-19.203-39.475s-1.41-2.341-5.137-4.056c-2.568-1.182-4.535-1.43-5.629-1.305-.85.098-1.87.512-1.913 1.088-.026.338.515.669 1.308 1.067.958.48 1.606.597 1.73.846.126.249.356.822.148.847-1.052.125-2.226-.311-2.797-.627-1.472-.816-4.9-3.22-7.35-4.604-2.496-1.41-4.986-2.11-8.543-1.48-4.346.772-6.922 5.122-6.922 5.122s2.776 1.714 4.5 2.634c1.606.857 2.29 1.13 3.543 1.255 1.253.125 2.471.12 2.568.49.082.315-.574 1.092-1.516 1.1-2.429.02-1.803.244-9.915-3.929-7.201-3.704-13.196-2.613-13.315-2.594-.805.123-8.555.908-13.6 5.672-2.714 2.565-3.714 5.455-3.64 5.952.137.91.59 1.12.888 1.929.263.711.25 2.06-.156 1.993-.51-.085-1.331-2.712-3.434-2.751-1.135-.021-2.736-.074-5.87 4.87-2.048 3.233-4.796 6.444-5.892 7.565-1.096 1.121-4.147 3.618-5.115 3.98-1.85.69-2.219.252-2.344.47-.126.218.907 1.736 3.659 1.944 3.585.272 6.456-1.976 6.613-1.892.061.032-2.417 4.178-3.09 6-.748 2.019-1.01 3.347-1.41 4.546-.375 1.126-.591 2.306-.831 2.7-.122.2 3.03-.693 5.142-2.258 2.471-1.83 3.596-3.45 3.596-3.45s-.168 2.636-2.27 4.245c-1.981 1.518-3.386 2.008-3.892 2.739-.093.134-.13 2.895-.868 5.276-1.309 4.227-2.591 6.151-2.591 6.151s2.122-.024 5.097-1.946c2.894-1.87 4.124-3.187 4.124-3.187s.242 1.61-1.808 3.398c-1.715 1.495-2.498 1.756-2.67 1.986-.095.125-.492 2.121-.868 3.192-.553 1.575-1.526 2.83-1.383 3.029.157.22 2.922-.335 6.081-2.5 2.115-1.45 4.48-2.959 4.48-2.959s-1.557 2.098-2.675 4.507c-1.377 2.97-2.071 4.611-1.899 6.551.01.112 1.942-.968 3.687-1.564 1.35-.46 2.954-.888 4.77-2.921 1.314-1.47 2.82-3.24 2.82-3.24s-.8 1.993-1.113 3.861c-.313 1.869-.358 4.632-.126 4.883.12.13 4.571-2.569 5.941-4.13 2.157-2.457 4.007-5.876 4.007-5.876s.127.19.158.408c.031.218-.39 4.527-.253 6.106.165 1.902.263 2.404.4 4.861.036.654-.041 1.13.116 1.224.156.093.383-.243 1.009-.523.626-.28 4.75-1.805 7.045-3.837 4.026-3.565 4.898-5.793 4.898-5.793s-.86 4.507-.924 6.107c-.105 2.645.224 6.933.536 7.15.313.219 1.682-1.076 3.407-2.06.844-.48 2.477-1.335 5.194-4.986 1.707-2.293 2.956-3.913 3.157-3.968.207-.057-1.109 3.453-1.118 4.606-.01 1.286.614 3.335.946 4.234.263.711.327 1.098.536 2.09 0 0 3.019-2.916 4.867-4.857 4.176-4.384 3.913-6.862 3.913-6.862-6.203-.68-12.082-2.69-15.73-4.004-9.577-3.45-14.9-7.82-20.45-12.996-3.217-3-4.281-6.05-3.597-7.628.401-.924 1.336-1.3 1.336-1.3s-4.657-5.426-3.953-10.309c.413-2.866 4.532-3.98 12.187-2.52 9.795 1.872 19.734 7.393 19.734 7.393s-3.776-2.608-5.247-4.663c-1.473-2.056-2.225-3.676-2.225-3.676s-2.554.414-5.231-.28c-2.685-.697-5.216-1.214-7.127-4.553-.581-1.014.173-.64.99.407.06.078.658.608 1.506.655 1.065.059 4.296-.45 9.105-4.636 5.004-4.358 9.277-7.635 12.253-6.483 2.975 1.153 4.04 3.925 2.287 6.199-1.755 2.273-2.162 3.208-2.162 3.208s.658.405 1.629 1.401a52.953 52.953 0 0 0 2.036 1.963s3.415-4.268 11.935-9.718c8.519-5.451 12.717-6.98 12.717-6.98M127.072 144.13c-.179-.177-3.14-1.469-4.994-1.795-1.761-.31-4.837-.023-4.993.066-.156.09-.892 2.15-1.182 2.992-.29.843-1.165 2.881-1.092 2.994.2.31 1.828-.422 4.86.376 2.613.689 4.615 1.685 4.748 1.707.134.023.624-1.662 1.248-3.125.497-1.164 1.227-2.794 1.316-2.926.09-.134.09-.289.09-.289zm4.303-.731c-.157.222-1.626 2.98-2.542 4.788-1.56 3.081-1.783 5.763-2.296 5.92-.23.069-2.764-1.42-6.487-2.196-2.905-.605-6.822-.731-6.956-.753-.134-.022-.2-.177-.29-.333a14.19 14.19 0 0 0-.29-.487.958.958 0 0 1-.11-.356c-.023-.155.021-.553.066-.753.044-.199 1.84-3.946 2.22-5.077.378-1.13 1.382-3.88 1.694-4.057.311-.177 3.264-1.174 8.146-.2 3.509.701 6.644 2.55 7 3.171 0 0 0 .11-.155.333zm-88.433 12.375c-.688-.736-1.663-1.73-1.818-1.756-.156-.026-1.832.477-2.56.788-.727.31-2.74 1.252-2.805 1.356-.064.103 1.078 1.33 1.806 2.208.678.82 1.753 1.964 1.87 1.99.117.025 1.961-.788 2.715-1.034.753-.245 2.623-.968 2.675-.982.052-.013-1.207-1.847-1.883-2.57zm6.793 4.003c-.247.194-3.455.552-6.715 1.597-2.37.76-5.22 2.316-5.35 2.252-.13-.065-1.157-1.812-3.001-3.84-1.845-2.027-2-1.624-2.22-2.863-.053-.293.856-1.123 2.363-2.04 1.506-.918 2.272-1.227 2.272-1.227s.362.223 1.117.31c.442.051 1.894-.383 2.377-.853.637-.62.948-1.33 1.247-1.252.167.043.147.305.16.55.013.246 1.01 1.36 1.71 1.774.3.176.689.025 1.312.232.2.066 1.096.704 1.987 1.59 1.35 1.342 2.843 3.689 2.74 3.77z" fill="#E51635"/><path d="M118.111 31.747c-.465-1.234-1.937-1.465-2.557-1.542-.62-.077-3.062.308-7.867 4.355-4.806 4.046-6.279 5.202-7.596 5.742-1.318.54-2.713.81-2.558.964.155.154 2.442.762 3.526.886 2.365.27 3.717-.15 3.717-.15s-.112-3.588 1.71-5.13c3.152-2.668 8.758.347 8.758.347s2.057-2.305 2.557-3.391c.62-1.35.31-2.081.31-2.081m43.806 25.424s-1.275.37-2.23.634c-.955.264-2.867.686-2.814.791.053.106 4.034 2.798 5.415 3.326 1.38.528 3.822 1.531 4.671 1.742.85.212 2.018.37 2.018.581 0 .211-1.593.845-3.716 1.742-2.124.897-4.248 2.06-4.248 2.217 0 .159 6.85.792 10.141 1.162 3.291.37 7.485.897 8.547 1.056 1.061.158 2.176.475 2.123.316-.053-.158-.425-.316-1.54-.791-1.114-.476-5.361-3.063-7.697-4.699-2.336-1.636-6.264-4.751-7.804-5.86s-2.866-2.217-2.866-2.217" fill="#FCD006"/><path d="M141.643 31.955c-3.325 1.823-2.483 3.983-2.113 4.292.369.308 1.935 1.91 5.32-.206 3.384-2.117 2.417-3.58 2.068-4.115-.487-.75-2.067-1.729-5.275.03zm-19.67 27.267c-.272-.501-2.759-3.168-7.235-6.002 0 0 5.154 2.035 7.78-1.065 3.247-3.833-1.172-8.01-.804-8.654 2.13-3.739 13.087-13.195 26.912-17.744 14.825-4.878 27.498-.022 36.296 7.184 13.121 10.747 10.27 22.507 10.27 22.507s-7.249-5.472-22.615-2.583c-15.015 2.824-15.87 4.325-28.115 8.333-8.301 2.717-13.564 7.237-23.175 6.968-17.726-.498-22.01-6.745-22.01-6.745s.269-2.235-3.14-5.626c-.832-.83-2.87-3.006-4.536-2.08-1.73.96 3.217 6.944 7.596 10.404 2.829 2.235 7.163 3.968 11.045 4.663 12.479 2.235 19.648 1.002 32.13 1.272 8.836.19 14.918-.308 26.198.697 6.618.59 12.864 1.808 12.864 1.962 0 .154-3.064 1.033-6.664 2.235-5.31 1.773-15.647 5.754-25.832 6.705-19.397 1.812-30.138.54-43.618-4.855-12.517-5.01-21.199-15.145-20.15-16.75.34-.52 1.199-.207 1.199-.207s2.635 2.043 3.953 3.083 4.89 3.072 5.777 3.276c1.005.23 1.8-.065 1.783-.308-.042-.579-.14-.457-2.597-1.773-3.451-1.85-7.47-5.246-9.075-7.173-1.09-1.308-5.98-8.37-2.783-10.284 5.624-3.367 25.319 5.466 26.868 6.201 4.076 1.935 7.85 4.352 11.99 7.207 0 0-.12-.494-.313-.848z" fill="#FCD006"/><path d="M142.5 33.19c-1.02.75-2.098 1.557-1.493 2.219.606.661 2.158-.015 2.823-.338.665-.324 2-1.397 1.552-2.072-.4-.603-1.863-.559-2.882.19m9.024 103.325c-2.18 8.297-7.167 11.293-7.654 12.06-.38.599-2.976 7.301-5.59 10.547-2.585 3.208-4.96 5.223-9.203 7.726-.75.442-.086 1.026-.114 1.396-.029.37-.99 5.163-5.222 9.06-6.475 5.961-9.715 5.59-10.173 6.046-.2.2 1.347 1.311 2.896 1.167 1.5-.141 6.28-2.388 10.205-7.897 3.125-4.386 3.705-7.74 3.756-7.978.114-.541.286-.713.802-.374.206.134.446.858.688.769 2.15-.793 8.093-5.825 13.462-13.568 3.911-5.64 7.477-14.742 8.297-18.47 1.147-5.213.029-8.572-1.204-8.946-1.353-.411.627 2.473-.946 8.462m-48.5 35.456c-.529-.196-2.645-.41-5.365 2.708-2.725 3.122-3.704 7.119-3.505 7.384.199.264.498-2.016 4.55-5.072 4.054-3.055 4.885-2.395 5.366-3.254.234-.416-.249-1.468-1.046-1.766m-74.888-25.457c-.097.025-.515 1.05-1.03 1.366-.515.317-.565.073-1.055.586s-2.06 2.809-.123 4.466c1.055.902 3.067.634 3.853.366.782-.268 1.405-1.304 1.08-1.953-.295-.585-.933-.341-1.375-.951-.441-.61-.539-1.343-.834-1.977-.295-.634-.492-.808-.442-1.098.098-.561-.074-.805-.074-.805m-6.404 5.807c-.81.074-2.16.172-4.663.88-2.503.707-6.085 1.708-6.085 2 0 .24 5.172.695 6.92.659 2.331-.048 5.03-1.123 5.398-2.099.368-.976-.76-1.513-1.57-1.44m11.018 7.712s-.613-.684-.736-.684-.932 2.172-1.815 3.002c-.884.83-2.062 2.099-2.528 1.415-.467-.683 1.693-1.878 2.38-3.392.687-1.512 1.178-2.514 1.227-4.173.05-1.659.098-1.562-.074-1.586-.171-.023-1.498.609-3.313.584-2.457-.032-2.502-.73-2.723-.779-.221-.049-.468 1.194-2.749 2.073-1.787.687-3.165.587-3.46.928-.294.342-.294 2.122.319 3.903.425 1.234 1.791 3.368.982 3.638-.847.282-1.08-.367-1.939-2.44-.58-1.4-.613-1.781-.711-1.879-.099-.098-.442-.147-.614-.05-.171.099-1.08 1.173-1.202 1.368-.123.195.613 1.146.908 1.61.294.464.957 1.659.662 2.147-.294.488-.49.537-.662.318-.172-.22-1.111-3.007-3.902-4.588-3.19-1.807-6.864.286-7.215 3.317-.403 3.488 3.113 7.234 9.522 9.302 7.018 2.265 11.164-.541 11.164-.541s6.528 3.538 18.945 2.27c12.707-1.298 17.054-4.442 18.454-5.491 1.352-1.014 1.52-1.636 1.35-1.586-.173.049-2.038 1.098-3.486-.269-2.598-2.452-1.104-7.783-1.35-7.979-.244-.195-.911.195-1.668.05-1.276-.246-1.715-1.468-1.963-1.44-.442.047-.835 2.17-2.798 1.976-1.594-.158-2.33-1.66-2.247-4.27.071-2.21.309-3.052.309-3.052s-1.006 0-2.037.122c-1.03.122-2.307.366-2.307.366s1.57 1.587 2.552 2.929c.982 1.342 2.256 3.36 2.135 3.758-.073.244-1.398-.293-7.73 1.593-4.98 1.484-7.435 3.19-7.607 3.238-.171.05-.318-1.024-1.006-2.05-.687-1.024-1.374-2-1.472-2-.098 0-.221 2.408-1.02 3.977-.845 1.66-1.75 2.875-2.244 2.489-.687-.537.712-2.49 1.35-4.246.451-1.241.32-3.878.32-3.878" fill="#FCD006"/><path d="M64.903 171.656s-2.029 1.503-10.248 4.097c-4.316 1.363-9.485 2.224-17.746 1.77-7.374-.403-9.646-2.112-10.25-2.223-.559-.103-3.852 2.609-12.029.391-6.606-1.791-7.869-4.468-8.78-4.9-.22-.104-1.49 5.065 8.634 7.72 2.773.728 8.032.203 10.146-.431 1.719-.515 2.03-.882 2.174-.907.248-.041.58 0 .58.166 0 .164.02.452.02.452s5.177 2.307 12.714 2.183c7.536-.124 15.53-1.627 21.41-4.386 2.931-1.375 3.127-1.647 3.23-1.873.104-.227.249-.885.228-1.174a41.403 41.403 0 0 0-.083-.885m48.627-10.399c-.164.608 1.103.753 1.514 1.87.425 1.158.252 1.828.238 1.957-.044.41-.887 2.043.043 2.065 1.002.023 1.907-3.675.649-5.311-1.125-1.463-2.292-1.14-2.444-.581zm30.185-17.071c-.047-.8-.289-2.022-.64-1.996-.59.043-.192 2.76-.908 5.303-1.53 5.436-2.566 7.71-5.486 11.195-5.219 6.23-10.7 7.667-10.584 7.988.163.449 1.287.968 1.287.968s.072 1.976-2.248 5.305c-4.396 6.308-9.855 8.243-11.51 8.542-.788.142-3.07-.332-5.05-1.856-1.257-.967-2.312-3.026-2.3-4.266.003-.512 1.631-1.239 2.927-2.11 1.23-.827 1.758-2.271 1.203-2.71-.645-.51-1.358 1.081-2.255 1.645-.898.564-2.308 1.285-2.38 1.03-.115-.406-.08-.818-.794-1.522-.571-.562-1.09-.985-1.09-.985s1.3-.307 2.556-1.689c.987-1.085 1.094-3.459 0-5.381-.956-1.68-3.102-2.939-3.432-2.939-.331 0-.193.68.044 1.056.236.376.583.466 1.176.932.586.462 2.035 2.358 1.557 4.266-.312 1.247-1.424 2.173-3.689 2.076-1.796-.076-2.705-.54-4.326-1.557-.181-.114-.464.07-.18.739.197.466 1.043 1.255 1.043 1.255s-.794-.545-1.03-.686c-.236-.14-.41-.3-.41-.3s-.47-.958-.818-2.002c-.268-.8-.136-2.374-.136-2.374s1.96.785 4.07 1.759c2.478 1.144 3.896 1.318 4.574.89.678-.43-.979-2.26-1.672-3.835-.584-1.328-1.08-3.625-.796-3.705.374-.106.973.95 5.202 3.018 1.447.707 4.874 2.101 5.352 1.97.455-.126.107-3.434-1.484-7.6-.684-1.794-3.338-4.223-3.143-4.582.01-.016 1.584.009 1.584.14 0-.025-.01.46.212.66.156.142.958.498 1.495.318.865-.29 2.598-.509 7.6.175 4.688.642 8.591 3.717 8.652 3.175.213-1.909.867-4.986 2.37-7.969 2.283-4.53 3.646-5.563 3.522-5.832-.372-.81-3.61-3.028-7.149-3.933-4.13-1.056-6.487-.632-6.673-.962-.156-.278 2.325-3.943 5.771-4.518 2.743-.458 4.035.826 4.493.648.16-.062-.145-1.007-.892-1.572-1.221-.924-2.857-.819-2.857-.819s-.23-5.612 4.034-9.712c2.474-2.378 8.598-3.71 13.643-.74 6.823 4.02 6.682 9.193 5.486 15.453-.94 4.917-4.233 8.227-5.815 9.537-.371.309-.059-1.092-.106-1.891z" fill="#FCD006"/><path d="M116.357 40.11s-5.047-4.234-8.196-2.324c-3.291 1.996-1.152 7.266 2.073 10.441 3.161 3.11 7.435 4.84 9.674 3.828 2.604-1.177 2.044-3.468 2.044-3.468s-1.432 2.485-3.916 2.422c-3.851-.098-6.945-4.517-6.945-4.517s.598-.217 1.908-.425a14.25 14.25 0 0 0 1.943-.458s-1.457-.533-2.636-.85c-1.217-.327-2.466-.722-2.466-.722s-1.162-2.407.724-3.96c2.106-1.735 5.793.033 5.793.033m8.538 104.816c-.081-.202-1.586-.768-3.396-1.031-1.81-.263-3.113-.182-3.336-.06-.224.12-.55.687-.814 1.334-.264.647-.528 1.74-.528 1.86 0 .122.63-.221 3.09.466 2.462.688 3.336.728 3.499.688.163-.04.59-.95.875-1.679.285-.728.61-1.578.61-1.578m15.829-51.874s-.414-.04-.565-.053c-.181-.015-.605-.022-.605-.022s-1.407.812-1.996 1.068c-.59.255-1.61.865-1.603 1.022.015.346.907.316 3.266.647 2.31.323 3.827 1.359 3.736 2.166-.136 1.203-2.253 3.197-5.838 4.085-3.584.887-9.603 2.096-11.373 2.111-.682.005-.484.451-.242.586.242.136 1.88 1.369 1.94 1.956.06.586-.545 1.566-2.379 2.09-2.102.602-5.248.677-5.868.647-.62-.03-.62.24-.544.406.075.165 1.376 1.158 1.467 1.97.09.812-.295 2.108-6.005 2.702-8.862.922-11.705.993-11.72 1.329-.016.33.882.215 4.854.496 3.615.255 9.768-.383 12.16-1.474 3.69-1.684 1.654-4.198 1.648-4.347-.015-.42 3.963.016 5.052-.315 1.58-.48 3.08-2.088 2.646-3.43-.378-1.172-1.013-1.473-1.043-1.593-.03-.12 3.662.082 8.333-.978 2.783-.632 6.655-2.482 7.865-4.903.969-1.94-.469-3.594-2.526-4.12-2.057-.527-2.802-.439-2.858-.542-.091-.165.593-.354.922-.557.575-.353 1.276-.947 1.276-.947m-71.966.466s.326-.023.704-.023c.381 0 .923.023.923.023s-1.571 1.362-.799 2.531c.773 1.17 3.276 1.25 4.486 1.297 1.175.045 1.61-.199 1.72.01.126.242-.4.452-.682 1.01-.276.55-.09 1.823 2.342 2.27 4.118.757 7.729.793 8.421.827.692.034 1.026.194 1.026.275 0 .24-.144.072-2.653.286-2.145.184-5.995.22-7.808-.137-2.386-.47-2.804-1.354-2.849-1.96-.035-.484.15-1.389.093-1.458-.058-.069-3.985.842-5.226-.986-1.603-2.363.302-3.965.302-3.965m25.207 53.68c-2.52 4.856-3.108 8.201-3.144 8.381-.044.222-1.157-1.332-1.27-3.68-.179-3.68.78-7.206 0-7.472-.741-.252-3.836 5.765-4.683 7.428-.848 1.663-4.459 8.092-3.88 8.581.662.558 3.39-4.634 4.147-5.876.725-1.187 2.765-4.81 2.765-4.81s-.066 3.968.602 5.276c.67 1.308 1.584 2.993 2.498 2.815.914-.177.312-.775.803-2.239.49-1.463 3.01-7.073 3.879-8.537.87-1.463 4.147-6.252 4.058-6.984-.072-.595-3.48 2.694-5.775 7.117M48.484 124.63c-1.07-1.92-4.28-8.203-4.472-8.222-.191-.018-.329 3.06-.347 4.371-.02 1.312-.057 3.1-.153 3.156-.096.058-1.97-1.73-3.309-3.042-1.338-1.312-3.02-3.08-3.365-3.86-.345-.78-.765-2.032-1.11-1.936-.477.132-.573 1.594-.534 3.495.038 1.902.153 2.491-.02 2.606-.172.113-2.303-.892-4.035-1.693-2.18-1.008-5.029-2.834-5.2-2.795-.21.045 1.95 2.833 2.695 4.43.88 1.883 1.664 3.613 1.416 3.708-.25.096-1.415-.437-2.888-.95-1.472-.514-3.04-1.103-3.155-.97-.115.133 1.775 2.206 2.655 3.574.88 1.37 1.18 1.64 1.18 1.83 0 .19-.24.433-.431.452-.191.02-1.396.096-2.371.115-.975.018-2.084-.076-2.218.038-.134.114 1.811 2.36 3.308 3.821 2.122 2.073 3.863 2.89 3.92 2.986.057.096-1.032.675-2.371 1.293-2.926 1.35-3.48 1.122-3.538 1.35-.039.157 2.473.914 4.284 1.544 2.351.817 4.283.946 4.8 1.004.515.057-.48.532-.804.722-.325.19-.956.456-.956.59 0 .266 4.314 2.385 7.925 2.694 3.787.323 7.157-.173 8.998-1.135.364-.19.345-.475-.019-.608-.46-.168-1.072.68-6.502.551-4.838-.114-8.299-1.407-8.452-1.578-.131-.147 1.32-.647 1.95-.97.632-.324 1.416-.57 1.34-.913-.086-.382-1.41-.307-2.773-.456-1.74-.19-6.215-1.313-6.31-1.426-.097-.114 1.338-.8 2.045-1.199.708-.399 1.396-.836 1.607-.874.21-.038.57-.207.592-.38.058-.456-.382-.532-.592-.665-.21-.133-.943-.805-3.27-2.625-1.434-1.122-2.792-2.491-2.868-2.624-.077-.133 1.204-.171 2.198-.209.995-.038 1.512-.095 1.78-.228.267-.133.553-.247.534-.57-.019-.324-.497-1.008-1.338-2.111-.617-.81-1.798-2.036-1.76-2.15.039-.113.9.229 2.047.571 1.147.343 2.517.986 2.843.738.325-.246.184-1.33-.625-2.924-1.128-2.225-2.374-3.78-2.24-3.876.133-.096 2.125 1.176 3.445 1.898 1.32.723 3.554 1.918 3.802 1.88.249-.038.692-.967.634-1.822-.057-.856-.21-2.415-.114-2.473.095-.057 2.409 2.662 3.46 3.594 1.053.932 2.142 1.788 2.658 2.206.517.418 1.339 1.217 1.53 1.388.192.171.612.134.708-.209.095-.343.018-2.035 0-2.605-.02-.57.038-2.168.133-2.244.096-.076 1.09 1.902 2.066 3.309.672.97 2.142 3.309 2.562 4.012.42.704 1.1 1.62 1.32 1.484.612-.381-1.266-3.222-2.295-5.068m-6.971 31.725c-.312-.4-.766-.865-.87-.93-.104-.064-.909.35-1.273.466-.364.116-1.454.503-1.533.594-.075.088.598.762.832 1.072.234.31.987 1.15 1.13 1.162.058.005.961-.387 1.455-.542.493-.156.948-.362 1.09-.504.068-.067-.519-.917-.83-1.318" fill="#FFF"/><path d="M50.266 142.882c-.313-.156-1.182-1.88-.938-3.555.243-1.675 1.212-4.863 1.497-5.8.29-.954.616-2.143.81-2.167.196-.025.843.901.843 1.213 0 .412-1.066 3.348-1.31 4.513-.243 1.165-.902 5.796-.902 5.796" fill="#FFF"/><path d="M131.76 181.286v1.023h.66c.28 0 .485-.04.614-.124.128-.082.193-.212.193-.391 0-.188-.062-.319-.187-.394-.125-.076-.346-.114-.662-.114h-.618zm0 2.918h-.544v-3.369h1.16c.409 0 .698.033.867.099a.84.84 0 0 1 .406.326.866.866 0 0 1 .153.487.89.89 0 0 1-.268.654 1.062 1.062 0 0 1-.69.3c.126.052.243.138.354.259.11.12.251.317.424.59l.407.654h-.665l-.295-.526c-.214-.378-.382-.623-.503-.735a.694.694 0 0 0-.488-.168h-.318v1.43zm.706-4.301c-.716 0-1.327.255-1.835.766a2.523 2.523 0 0 0-.76 1.845c0 .722.252 1.338.758 1.846a2.498 2.498 0 0 0 1.837.762 2.49 2.49 0 0 0 1.832-.764c.506-.51.76-1.124.76-1.844s-.254-1.334-.762-1.845a2.486 2.486 0 0 0-1.83-.766zm0-.511c.559 0 1.08.14 1.566.42.484.28.867.661 1.148 1.143a3.04 3.04 0 0 1 .422 1.56c0 .56-.14 1.08-.42 1.56-.28.481-.661.86-1.146 1.14a3.096 3.096 0 0 1-1.57.418c-.565 0-1.09-.14-1.574-.416a3.063 3.063 0 0 1-1.147-1.14 3.06 3.06 0 0 1-.42-1.563c0-.56.14-1.081.422-1.563.28-.482.664-.863 1.149-1.141a3.099 3.099 0 0 1 1.57-.418z" fill="#1967B8"/><path d="M99.035 107.178l-.96.028-.091-.003a92.623 92.623 0 0 0-3.847-.097c-.85 0-1.282.292-1.282.867 0 .26.113.866 1.146.866.406 0 .906.04 1.093.086.813.171.984.41 1.044 1.426.067 1.071.067 2.003.067 7.173v4.25c0 3.527-.134 6.359-1.816 8.03-1.519 1.509-3.526 1.672-4.32 1.672-1.17 0-2.55-.15-3.912-1.265-1.478-1.2-2.462-3.008-2.462-7.928v-4.759c0-5.17 0-6.102.066-7.17.068-1.16.31-1.33.808-1.422.388-.064.562-.093.885-.093 1.034 0 1.114-.662 1.114-.866 0-.867-.992-.867-1.318-.867l-2.512.058-1.691.043-6.563.002-1.949-.057-1.58-.046c-.968 0-1.113.543-1.113.867 0 .694.644.836.887.89l.027.005a.455.455 0 0 1 .012.129c0 .344-.762 1.235-1.436 2.024l-.144.168c-.585.683-2.619 2.78-4.411 4.633-.734.757-1.407 1.451-1.928 1.996v-.268c0-5.183 0-6.117.067-7.192.067-1.162.31-1.333.807-1.424.38-.063.557-.093.856-.093.995 0 1.046-.722 1.046-.868 0-.575-.433-.867-1.283-.867l-2.426.058-1.722.045-1.514-.037c-.976-.03-2.19-.066-3.285-.066-1.316 0-1.316.653-1.316.867 0 .262.111.868 1.145.868.489 0 1.003.037 1.2.086.806.17.988.423 1.048 1.43.068 1.077.068 2.01.068 7.193v5.998c0 3.109 0 5.793-.168 7.19-.135.973-.278 1.338-.545 1.392-.39.087-.745.126-1.123.126-1.032 0-1.112.637-1.112.832 0 .271.12.902 1.249.902.788 0 1.817-.033 2.725-.063l1.594-.04 1.539.037c.996.03 2.237.066 3.396.066 1.155 0 1.214-.751 1.214-.902 0-.401-.316-.832-1.011-.832a13.77 13.77 0 0 1-1.598-.132c-.19-.03-.662-.106-.749-1.324-.102-1.445-.102-4.136-.102-7.252v-1.738l13.055 14.338.024.021c1.518 1.338 2.554 2.169 4.564 2.354.745.07 1.374.07 2.416.07h2.983c.38 0 1.387 0 1.387-.903 0-.415-.312-.833-1.01-.833-.245 0-.917-.164-2.068-.621-1.645-.637-3.207-2-4.52-3.25l-3.968-4.285-9.465-10.123c1.598-1.644 5.985-6.024 7.006-6.954 1.455-1.327 3.064-2.682 3.966-2.682.432 0 .83.107.905 1.409.068 1.072.068 2.004.068 7.173v4.961c0 4.457 1.026 7.453 3.23 9.425 2.768 2.49 6.409 2.49 7.964 2.49 2.074 0 4.799-.293 7.477-2.583 3.028-2.579 3.444-6.645 3.444-10.656v-3.637c0-5.17 0-6.102.068-7.17.066-1.16.307-1.33.805-1.422.389-.064.564-.093.888-.093 1.027 0 1.179-.543 1.179-.866 0-.575-.43-.867-1.28-.867-.87 0-2.06.041-2.932.072" fill="#FFF"/></g></svg>