<svg width="200" height="200" xmlns="http://www.w3.org/2000/svg"><g fill-rule="nonzero" fill="none"><path d="M136.417 182.556a3.975 3.975 0 1 1-7.95 0 3.975 3.975 0 0 1 7.95 0" fill="#FFF"/><path d="M136.382 182.556a3.975 3.975 0 1 1-7.95 0 3.975 3.975 0 0 1 7.95 0" fill="#FFF"/><path d="M136.382 182.52a3.975 3.975 0 1 1-7.95 0 3.975 3.975 0 0 1 7.95 0" fill="#FFF"/><path d="M136.382 182.556a3.975 3.975 0 1 1-7.95 0 3.975 3.975 0 0 1 7.95 0" fill="#FFF"/><path d="M118.68 126.587a122.096 122.096 0 0 1 6.102-4.107c-1.553 2.924-1.94 5.51-2.149 6.96l-.013.08c-.843.408-1.959 1.078-3.35 2.332-1.403 1.265-2.353 2.714-2.908 3.636-1.343.3-2.513.659-3.264 1.561-.456.546-.598 1.12-.857 2.16-.229.923-.543 2.188-1.04 3.294-.15.335-.286.632-.415.91a29.242 29.242 0 0 0-2.183-2.27c-1.182-1.088-2.677-2.181-3.928-3.049 3.08-2.75 9.28-8.099 14.005-11.507Zm-.538-115.207c-5.382.26-8.964 3.701-10.606 5.698-6.293-2.017-12.954-1.978-18.885.18-9.346 3.4-12.366 8.979-13.534 11.265-1.213.208-3.182.734-4.987 2.375-.734.667-1.812 2.149-3.655 4.71-1.744 2.424-3.913 5.44-5.09 6.551-3.512 3.317-5.071 3.838-7.05 3.706a2.504 2.504 0 0 0-2.632 1.99c-.034.156-.05.32-.05.488 0 2.245 2.793 5.582 5.045 6.419 1.021.378 1.969.603 2.825.736-.187.584-.352 1.19-.46 1.776-.149.799-.627 2.495-1.048 3.992-.7 2.484-1.094 3.88-1.094 4.825 0 .765.258 1.233.821 1.74a2.446 2.446 0 0 0 1.71.66c-.155.623-.337 1.29-.564 1.994-.358 1.11-1.093 2.568-1.683 3.74-.616 1.223-1.182 2.347-1.182 3.333 0 .692.279 1.316 1.012 1.859.318.235.929.652 2.685.585l-.17.28c-.781 1.232-1.365 2.154-1.365 3.106 0 .328.069.66.223 1.008.253.573.7.978 1.254 1.263-.654.504-1.23 1.126-1.594 1.88a4.17 4.17 0 0 0-.066 3.506 5.22 5.22 0 0 0 .984 1.524c-.36.152-.709.303-1.04.454-1.693-5.905-3.867-8.89-6.485-8.85a4.855 4.855 0 0 0-1.782.366l-.5-1.47-1.046-3.008c-3.557-9.533-6.782-9.305-7.842-9.23-3.314.234-4.186 3.494-4.364 6.636-.625-.633-1.376-1.009-2.354-.94a3.27 3.27 0 0 0-1.358.414c-.57-1.207-1.2-2.407-1.84-3.32l-.388-.555c-1.902-2.74-4.509-6.492-8.005-5.03-2.866 1.197-3.624 3.919-3.624 6.94 0 1.84.281 3.793.538 5.579a67.87 67.87 0 0 0 .563 3.257c-.23-.076-.459-.168-.69-.199a3.48 3.48 0 0 0-2.986 1.025c-1.174 1.185-1.564 2.495-1.564 3.758 0 1.59.618 3.107 1.067 4.21l.273.686c-.041.02-.08.036-.122.06-2.215-2.056-5.428-4.335-8.28-2.794-.993.535-1.683 1.423-1.994 2.567a5.6 5.6 0 0 0-.182 1.474c0 3.496 2.552 7.918 3.13 8.875.287.475.844 1.457 1.407 2.462-.685.243-1.39.731-1.794 1.74-.167.416-.24.834-.24 1.248 0 1.164.583 2.296 1.321 3.293-.899.18-1.641.67-2.126 1.575-1.475-.465-5.386-1.404-6.495 1.28-.127.305-.184.62-.184.938 0 2.343 3.122 4.862 4.501 5.86-.174.36-.295.74-.295 1.143 0 .18.018.36.054.54.357 1.756 2.175 3.055 6.114 5.307l.415.24c-.024.08-.062.143-.08.23-.045.21-.065.415-.065.615 0 2.522 3.307 4.21 4.45 4.794l.493.234c-.803 1.214-1.308 2.51-1.424 3.903a5.95 5.95 0 0 0-.02.496c0 3.23 2.646 5.65 5.29 5.94.006 0 .158.015.395.03.068.349.164.716.337 1.281.005.017.26.723.718 1.523-.794.106-1.754.284-2.98.583-2.593.634-6.312 1.978-8.31 2.7l-.987.355c-3.608 1.266-3.853 2.769-3.933 3.263a2.498 2.498 0 0 0 .933 2.377c.184.143.373.25.561.334-3.272 1.96-4.618 5.274-4.618 7.558 0 .266.017.517.052.75.165 1.104.376 1.944.56 2.534a8.768 8.768 0 0 0-.347 2.44c0 1.797.522 3.93 2.136 5.993 3.265 4.173 9.964 5.915 15.154 5.79 3.938-.096 6.154-.714 7.266-1.04 6.1 2.008 12.9 2.62 20.223 1.804 7.807-.87 15.02-3.654 18.171-5.008 1.046.892 2.528 1.693 4.412 1.774 4.576.196 7.32-4.296 9.4-8.717a140.337 140.337 0 0 0 1.898-4.195c.261.244.529.478.806.681l.518.385c1.364 1.021 2.91 2.178 5.058 1.792a3.627 3.627 0 0 0 1.991-1.063c.515.37 1.1.77 1.851 1.227l.316.191c1.096.666 2.17 1.318 3.205 1.805-.193.253-.386.5-.575.783-2.449 3.66-3.225 6.912-3.225 9.4 0 1.835.422 3.254.906 4.115.948 1.686 2.302 1.814 2.84 1.79.237-.01 2.325-.17 2.487-2.632.095-1.431 1.98-3.487 3.544-4.96 1.075-1.013 2.03-1.648 2.783-2.06.502.908 1.145 1.947 1.868 2.795 1.002 1.174 2.647 1.994 3.85 2.592l.59.307.179.225c.94 1.225 2.899 3.774 7.115 3.817 4.226.042 9.519-4.154 11.927-7.148 2.92-3.63 4.46-7.062 5.103-8.72 1.702-.92 5.252-3.258 10.289-8.735 8.28-9.003 11.917-19.551 12.562-21.574 1.32-4.144 1.976-7.489 1.976-10.178 0-1.863-.315-3.411-.941-4.692-1.306-2.672-3.158-3.826-4.68-4.224-1.4-2.144-4.957-6.65-10.804-7.84a24.86 24.86 0 0 0-4.38-.505c2.27-1.253 3.967-2.204 4.982-2.93.975-.698 8.677-6.414 8.677-12.79 0-.751-.107-1.512-.344-2.274-1.237-3.97-4.643-5.663-7.436-6.39.086-.38.147-.772.147-1.19 0-.342-.032-.695-.102-1.06-.202-1.05-.65-1.877-1.273-2.536 5.139-.259 11.136-.868 16.918-2.207 8.078-1.872 12.785-3.538 16.568-4.877 1.723-.61 3.21-1.136 4.78-1.603 3.666-1.093 6.558-1.836 8.112-2.235 1.537-.395 1.697-.436 2.09-.699a2.773 2.773 0 0 0 1.233-2.464 2.653 2.653 0 0 0-1.483-2.224l-.373-.166c-4.967-2.132-9.46-4.69-12.355-6.461-3.075-1.882-6.037-4.123-8.22-5.885 2.632-.614 5.795-1.274 7.729-1.405 7.373-.5 12.115.935 13.812 1.574 2.354.887 3.836 2.287 3.851 2.3l2.699 2.575 1.261-3.504c.193-.541 4.58-13.411-7.903-26.81-12.171-13.062-30.483-14.986-43.034-11.3-1.78-1.573-5.41-4.534-8.375-5.356-4.532-1.257-7.355-.586-9.008.28-2.449-1.522-7.544-4.235-12.444-3.998Z" fill="#FFF"/><path d="M33.673 149.356c-.654.531-1.144 1.022-1.144 1.226 0 .205-.041.981-.164 1.35-.122.368.123 1.39.286 1.43.164.041.86-.286 1.636-.572.776-.286 1.716-.777 1.716-.777s-.327-.818-.45-1.349a37.083 37.083 0 0 1-.367-1.92c-.04-.287-.368-.533-.368-.533s-.49.614-1.145 1.145Zm14.839-3.066c-.204 1.39.245 2.535.122 3.148-.122.613-.735 2.657-.735 2.657s.409-.123 1.063-.199c.68-.079.858-.17.898-.333.041-.163-.192-1.39-.192-1.962 0-.572.274-1.88.397-3.393.123-1.512-.45-1.961-.45-1.961s-.941.94-1.103 2.043Zm143.436-91.361c-2.46-.927-7.541-2.218-14.829-1.725-4.043.274-12.731 2.613-12.731 2.613s5.778 5.274 12.123 9.156c7.25 4.435 12.653 6.6 12.907 6.727.253.127.146.409-.007.51-.152.102-3.916.949-9.552 2.628-5.21 1.553-9.649 3.765-21.203 6.442-15.778 3.656-33.555 1.902-33.58 1.877-.026-.025-.101.634-.229 1.192-.127.558-.355 1.167-.33 1.192.026.026 2.938-.076 7.99.115 6.747.255 8.32 1.346 8.674 3.182.43 2.233-1.667 3.664-1.667 3.664s7.46-.1 9.123 5.238c1.457 4.676-4.486 10.27-7.43 12.377-2.935 2.1-13.712 7.129-23.943 14.508-6.66 4.803-16.105 13.315-16.232 13.543-.126.228-.203.152-.051.33.152.178 3.784 2.403 5.984 4.425 2.16 1.988 4.187 4.807 4.187 4.807s.372-.035 2.257-4.236c.961-2.142 1.294-4.592 1.547-4.895.52-.624 2.815-.863 2.967-1.015.152-.152 1.166-2.311 2.967-3.934 1.8-1.623 2.965-2.058 3.675-2.337.71-.279.067-3.985 2.793-8.49 3.247-5.365 8.226-6.143 14.172-4.932 6.533 1.33 9.82 7.721 9.82 7.721s2.332-.32 3.973 3.034c1.17 2.393.888 6.627-1.167 13.073-1.333 4.183-5.125 13.155-12.038 20.67-6.637 7.218-10.448 8.627-10.448 8.627s-1.312 4.306-5.048 8.95c-2.162 2.688-6.894 6.277-10.017 6.245-3.992-.04-5.099-3.1-5.86-3.582-.76-.482-3.103-1.392-4.058-2.51-1.374-1.611-2.536-4.287-2.536-4.287s-2.476.407-5.614 3.362c-5.525 5.202-3.874 6.91-4.476 6.936-.928.04-2.864-4.88 1.594-11.542 2.224-3.324 4.844-4.134 4.844-4.236 0-.102-1.012-.278-1.8-.894-.845-.66-1.108-1.286-1.091-1.203l-.63-.287s1.237 2.554.808 2.764c-1.152.566-3.646-1.014-5.833-2.34-2.893-1.752-3.606-2.809-3.834-2.783-.228.026-.424 2.08-1.692 2.308-1.268.228-2.194-.63-3.716-1.747-1.522-1.115-2.976-3.487-2.976-3.487s-.507 1.886-3.348 7.923c-2.841 6.036-4.99 7.42-7.108 7.33-2.643-.114-3.906-2.284-3.906-2.284s-9.122 4.425-19.048 5.53c-12.196 1.359-19.453-1.877-19.884-1.902-.432-.025-2.394 1.003-7.396 1.124-4.65.112-10.543-1.48-13.19-4.862-2.786-3.562-1.127-6.956-1.127-6.956s-.443-.927-.733-2.876c-.181-1.216.572-4.585 4.033-6.24 3.374-1.613 6.848.963 6.848.963s.431-.583.964-1.014c.532-.431 1.116-.761 1.116-.761s-.035-.457-.06-.812c-.026-.355.009-.66.009-.66s-1.116-.126-2.486-.253c-1.37-.126-4.184-.913-5.275-1.141-1.09-.229-1.826-.102-2.054-.279-.228-.177.871-.939 2.317-1.446 1.445-.507 6.09-2.258 9.07-2.987 3.819-.933 4.566-.564 4.566-.564s.178-.837.406-1.319c.228-.481.456-1.117.43-1.117-.024 0-1.02-.923-1.4-2.165-.392-1.28-.341-1.14-.4-3.11 0 0-.99.254-2.384.101-1.395-.152-3.3-1.656-3.12-3.83.252-3.036 2.891-4.742 2.942-4.87.05-.126-1.01-.44-3.323-1.622-2.553-1.303-3.219-2.273-3.117-2.755.101-.483 1.038-.441 1.85-.441.81 0 1.52.127 1.597 0 .076-.126-2.854-1.394-4.173-2.18-1.32-.787-5.485-2.985-5.72-4.136-.195-.965 4.515-.33 4.439-.482-.076-.152-.776.18-4.616-2.308-1.774-1.15-4.267-3.722-4.033-4.286.196-.475 2.025-.404 3.719.16 1.438.48 3.484.878 3.484.878s-1.266-1.12-.887-2.029c.593-1.424 6.074.869 6.392.456.143-.185-1.167-1.242-3.171-3.296-2.004-2.055-2.181-3.106-1.987-3.591.242-.605.947-.417 1.682-.467.736-.051 1.75-.102 1.7-.229-.05-.126-2.435-4.438-3.17-5.655-.736-1.218-4.487-8.128-1.877-9.536 2.597-1.403 7.462 4.575 7.666 4.6.203.025-.355-1.417.729-1.86 1.006-.412 2.506 1.411 2.967 1.04.116-.093-1.064-1.964-1.826-3.982-.732-1.938-2.1-4.368-.34-6.144 1.987-2.006 6.303 5.536 6.303 5.536S21.99 85.061 21.29 80.21c-.655-4.547-1.156-8.78 1.624-9.941 1.83-.765 3.754 2.283 5.478 4.743 1.725 2.46 3.601 7.76 3.728 7.81.127.052.072-3.769 1.624-3.88.862-.061 1.672 2.36 2.486 5.022.964 3.155 2.003 5.022 2.105 5.022.101 0 .177-4.008.025-7.863-.152-3.855-.055-7.725 2.1-7.877 2.156-.153 4.48 5.187 5.404 7.662.936 2.507 2.784 8.55 3.276 8.611.256.032-.08-2.89 2.355-2.926 2.597-.038 4.849 9.926 4.849 9.926s4.282-2.342 7.226-2.947c3.23-.664 6.85-.528 6.85-.528s-.837-.43-4.363-.888c-3.525-.456-5.028-.197-5.833-2.067-.751-1.745 1.33-3.05 2.815-3.454 1.138-.31 4.185-.54 4.464-.742.28-.203.417-1.44.64-2.01.237-.607.73-1.516.73-1.516s-1.835 1.001-4.084 1.32c-2.586.365-4.09-.091-4.169-.267-.132-.299 1.367-2.333 1.874-3.347.508-1.014 1.077-3.184 1.077-3.184s-1.414.365-2.301.517c-.888.152-2.46.316-2.796.067-.293-.217 1.91-3.743 2.716-6.244 1.143-3.545 1.36-6.354 1.36-6.354s-.793.299-1.198.425c-.406.127-1.737.963-1.99.735-.254-.228 1.698-6.264 2.079-8.319.38-2.054 1.67-4.61 1.67-4.61s-2.364.58-5.571-.612c-1.976-.734-3.972-4.254-3.367-4.213 3.068.204 5.324-1.008 8.873-4.362 2.387-2.256 7.38-10.02 8.711-11.23 2.131-1.937 4.59-1.808 4.84-1.952.766-.444 2.057-7.266 12.88-11.204 8.514-3.098 15.937-.696 18.295.153.493.178.8.055.8.055s3.436-5.641 9.686-5.943c5.848-.282 12.382 4.517 12.382 4.517s1.895-2.662 8.307-.884c3.383.938 8.39 5.723 8.39 5.723 12.623-4.274 30.526-1.95 41.894 10.251 11.625 12.476 7.395 24.348 7.395 24.348s-1.77-1.726-4.679-2.823Z" fill="#1967B8"/><path d="M164.267 63.756c-.147-.098-2.45-.885-4.462-1.905-1.637-.831-4.802-2.678-4.802-2.678s-.534-.344-1.164-.128a618.141 618.141 0 0 0-8.799 3.097c-2.403.876-8.547 3.614-9.768 4.054-1.22.44-1.639.744-2.032.759-1.044.038-1.929.317-1.4.643.091.055 6.708.098 11.132.007 5.324-.109 12.572-.14 13.158-.189.728-.06 1.876-.552 4.344-1.806 2.533-1.287 3.071-1.367 3.513-1.506.673-.212.28-.348.28-.348M145.064 24.06s-1.41-2.355-5.137-4.079c-2.568-1.189-4.535-1.438-5.629-1.312-.85.098-1.87.514-1.913 1.093-.026.341.515.673 1.308 1.073.958.484 1.606.6 1.73.852.126.25.356.826.148.85-1.052.127-2.226-.312-2.797-.63-1.472-.82-4.9-3.238-7.35-4.63-2.496-1.417-4.986-2.122-8.543-1.487-4.346.776-6.922 5.15-6.922 5.15s2.776 1.724 4.5 2.65c1.606.86 2.29 1.136 3.543 1.261 1.253.126 2.471.12 2.568.492.082.318-.574 1.099-1.516 1.106-2.429.021-1.803.246-9.915-3.95-7.201-3.725-13.196-2.627-13.315-2.609-.805.124-8.555.913-13.6 5.705-2.714 2.578-3.714 5.485-3.64 5.985.137.914.59 1.125.888 1.94.263.715.25 2.071-.156 2.004-.51-.086-1.331-2.728-3.434-2.767-1.135-.021-2.736-.074-5.87 4.897-2.048 3.251-4.796 6.48-5.892 7.608-1.096 1.128-4.147 3.639-5.115 4.002-1.85.694-2.219.254-2.344.473-.126.22.907 1.746 3.659 1.955 3.585.274 6.456-1.987 6.613-1.903.061.033-2.417 4.202-3.09 6.033-.748 2.031-1.01 3.367-1.41 4.573-.375 1.132-.591 2.318-.831 2.715-.122.2 3.03-.698 5.142-2.27 2.471-1.841 3.596-3.47 3.596-3.47s-.168 2.65-2.27 4.269c-1.981 1.526-3.386 2.02-3.892 2.754-.093.134-.13 2.911-.868 5.306-1.309 4.25-2.591 6.185-2.591 6.185s2.122-.024 5.097-1.957c2.894-1.88 4.124-3.205 4.124-3.205s.242 1.62-1.808 3.417c-1.715 1.504-2.498 1.767-2.67 1.998-.095.126-.492 2.133-.868 3.209-.553 1.585-1.526 2.847-1.383 3.046.157.22 2.922-.336 6.081-2.513a190.23 190.23 0 0 1 4.48-2.976s-1.557 2.11-2.675 4.532c-1.377 2.986-2.071 4.637-1.899 6.588.01.113 1.942-.973 3.687-1.572 1.35-.463 2.954-.894 4.77-2.938a206.911 206.911 0 0 0 2.82-3.258s-.8 2.004-1.113 3.882c-.313 1.88-.358 4.658-.126 4.91.12.131 4.571-2.582 5.941-4.153 2.157-2.47 4.007-5.908 4.007-5.908s.127.19.158.41c.031.22-.39 4.552-.253 6.14.165 1.913.263 2.418.4 4.889.036.657-.041 1.136.116 1.23.156.094.383-.244 1.009-.526.626-.282 4.75-1.815 7.045-3.858 4.026-3.586 4.898-5.826 4.898-5.826s-.86 4.532-.924 6.141c-.105 2.66.224 6.972.536 7.191.313.22 1.682-1.083 3.407-2.071.844-.483 2.477-1.344 5.194-5.015 1.707-2.306 2.956-3.935 3.157-3.99.207-.058-1.109 3.472-1.118 4.631-.01 1.294.614 3.355.946 4.259.263.715.327 1.103.536 2.102 0 0 3.019-2.933 4.867-4.885 4.176-4.409 3.913-6.9 3.913-6.9-6.203-.684-12.082-2.706-15.73-4.027-9.577-3.47-14.9-7.864-20.45-13.069-3.217-3.017-4.281-6.084-3.597-7.67.401-.93 1.336-1.308 1.336-1.308s-4.657-5.457-3.953-10.367c.413-2.882 4.532-4.003 12.187-2.533 9.795 1.88 19.734 7.433 19.734 7.433s-3.776-2.622-5.247-4.69c-1.473-2.067-2.225-3.695-2.225-3.695s-2.554.416-5.231-.283c-2.685-.7-5.216-1.22-7.127-4.577-.581-1.02.173-.644.99.408.06.078.658.612 1.506.66 1.065.058 4.296-.453 9.105-4.663 5.004-4.382 9.277-7.678 12.253-6.519 2.975 1.159 4.04 3.946 2.287 6.233-1.755 2.286-2.162 3.226-2.162 3.226s.658.408 1.629 1.41 2.036 1.973 2.036 1.973 3.415-4.291 11.935-9.773c8.519-5.481 12.717-7.018 12.717-7.018M127.072 143.933c-.179-.179-3.14-1.478-4.994-1.806-1.761-.312-4.837-.022-4.993.067-.156.09-.892 2.162-1.182 3.009-.29.847-1.165 2.897-1.092 3.01.2.312 1.828-.424 4.86.379 2.613.692 4.615 1.694 4.748 1.716.134.023.624-1.672 1.248-3.143.497-1.17 1.227-2.809 1.316-2.942.09-.135.09-.29.09-.29Zm4.303-.736c-.157.223-1.626 2.998-2.542 4.815-1.56 3.099-1.783 5.796-2.296 5.953-.23.07-2.764-1.427-6.487-2.207-2.905-.61-6.822-.736-6.956-.758-.134-.023-.2-.178-.29-.335-.089-.156-.245-.423-.29-.49a.967.967 0 0 1-.11-.357c-.023-.157.021-.557.066-.758.044-.2 1.84-3.968 2.22-5.105.378-1.138 1.382-3.901 1.694-4.08.311-.178 3.264-1.181 8.146-.2 3.509.704 6.644 2.563 7 3.188 0 0 0 .11-.155.334ZM42.942 155.642c-.688-.74-1.663-1.74-1.818-1.766-.156-.026-1.832.48-2.56.792-.727.312-2.74 1.26-2.805 1.364-.064.104 1.078 1.337 1.806 2.22.678.824 1.753 1.975 1.87 2.001.117.026 1.961-.792 2.715-1.04.753-.246 2.623-.973 2.675-.986.052-.013-1.207-1.858-1.883-2.585Zm6.793 4.025c-.247.195-3.455.555-6.715 1.607-2.37.764-5.22 2.329-5.35 2.264-.13-.065-1.157-1.822-3.001-3.861-1.845-2.04-2-1.633-2.22-2.88-.053-.295.856-1.13 2.363-2.052 1.506-.922 2.272-1.233 2.272-1.233s.362.224 1.117.312c.442.05 1.894-.386 2.377-.859.637-.623.948-1.337 1.247-1.258.167.043.147.306.16.553.013.247 1.01 1.368 1.71 1.784.3.177.689.025 1.312.233.2.067 1.096.708 1.987 1.599 1.35 1.35 2.843 3.71 2.74 3.791Z" fill="#E51635"/><path d="M118.111 30.918c-.465-1.24-1.937-1.473-2.557-1.55-.62-.078-3.062.31-7.867 4.379-4.806 4.069-6.279 5.231-7.596 5.774-1.318.543-2.713.814-2.558.97.155.154 2.442.765 3.526.89 2.365.271 3.717-.15 3.717-.15s-.112-3.609 1.71-5.159c3.152-2.684 8.758.348 8.758.348s2.057-2.317 2.557-3.41c.62-1.356.31-2.092.31-2.092M161.917 56.485s-1.275.372-2.23.637c-.955.265-2.867.69-2.814.796.053.106 4.034 2.814 5.415 3.345 1.38.53 3.822 1.54 4.671 1.752.85.212 2.018.371 2.018.584 0 .212-1.593.849-3.716 1.752-2.124.902-4.248 2.07-4.248 2.23 0 .159 6.85.795 10.141 1.167 3.291.372 7.485.903 8.547 1.062 1.061.16 2.176.478 2.123.318-.053-.159-.425-.318-1.54-.796-1.114-.478-5.361-3.08-7.697-4.725-2.336-1.645-6.264-4.777-7.804-5.893-1.54-1.115-2.866-2.23-2.866-2.23" fill="#FCD006"/><path d="M141.643 31.127c-3.325 1.833-2.483 4.006-2.113 4.316.369.31 1.935 1.92 5.32-.207 3.384-2.128 2.417-3.6 2.068-4.138-.487-.754-2.067-1.739-5.275.03Zm-19.67 27.42c-.272-.504-2.759-3.186-7.235-6.036 0 0 5.154 2.047 7.78-1.07 3.247-3.855-1.172-8.055-.804-8.703 2.13-3.76 13.087-13.27 26.912-17.843 14.825-4.906 27.498-.023 36.296 7.224 13.121 10.807 10.27 22.633 10.27 22.633s-7.249-5.503-22.615-2.597c-15.015 2.84-15.87 4.35-28.115 8.38-8.301 2.732-13.564 7.277-23.175 7.006-17.726-.5-22.01-6.782-22.01-6.782s.269-2.248-3.14-5.658c-.832-.834-2.87-3.023-4.536-2.093-1.73.966 3.217 6.985 7.596 10.464 2.829 2.247 7.163 3.99 11.045 4.689 12.479 2.248 19.648 1.008 32.13 1.279 8.836.192 14.918-.31 26.198.701 6.618.594 12.864 1.818 12.864 1.973 0 .155-3.064 1.04-6.664 2.248-5.31 1.783-15.647 5.786-25.832 6.743-19.397 1.821-30.138.542-43.618-4.883-12.517-5.038-21.199-15.23-20.15-16.844.34-.524 1.199-.209 1.199-.209s2.635 2.055 3.953 3.1c1.318 1.047 4.89 3.09 5.777 3.295 1.005.232 1.8-.065 1.783-.31-.042-.581-.14-.458-2.597-1.783-3.451-1.86-7.47-5.274-9.075-7.212-1.09-1.316-5.98-8.418-2.783-10.342 5.624-3.386 25.319 5.497 26.868 6.236 4.076 1.945 7.85 4.376 11.99 7.247 0 0-.12-.497-.313-.853Z" fill="#FCD006"/><path d="M142.5 32.369c-1.02.754-2.098 1.566-1.493 2.231.606.666 2.158-.014 2.823-.34.665-.325 2-1.404 1.552-2.083-.4-.606-1.863-.562-2.882.192M151.524 136.274c-2.18 8.343-7.167 11.356-7.654 12.128-.38.601-2.976 7.341-5.59 10.606-2.585 3.226-4.96 5.252-9.203 7.769-.75.445-.086 1.031-.114 1.404-.029.372-.99 5.192-5.222 9.111-6.475 5.995-9.715 5.622-10.173 6.08-.2.2 1.347 1.318 2.896 1.173 1.5-.142 6.28-2.4 10.205-7.941 3.125-4.41 3.705-7.783 3.756-8.023.114-.544.286-.717.802-.376.206.135.446.863.688.773 2.15-.797 8.093-5.857 13.462-13.643 3.911-5.673 7.477-14.826 8.297-18.574 1.147-5.243.029-8.621-1.204-8.997-1.353-.414.627 2.487-.946 8.51M103.024 171.93c-.529-.199-2.645-.414-5.365 2.722-2.725 3.14-3.704 7.159-3.505 7.425.199.266.498-2.027 4.55-5.1 4.054-3.073 4.885-2.408 5.366-3.272.234-.419-.249-1.477-1.046-1.776M28.136 146.329c-.097.024-.515 1.055-1.03 1.374-.515.319-.565.073-1.055.589-.49.515-2.06 2.824-.123 4.49 1.055.908 3.067.639 3.853.369.782-.27 1.405-1.312 1.08-1.964-.295-.588-.933-.343-1.375-.956-.441-.614-.539-1.35-.834-1.989-.295-.637-.492-.812-.442-1.104.098-.564-.074-.81-.074-.81M21.732 152.17c-.81.073-2.16.171-4.663.882-2.503.712-6.085 1.719-6.085 2.013 0 .241 5.172.698 6.92.662 2.331-.048 5.03-1.129 5.398-2.11.368-.982-.76-1.522-1.57-1.448M32.75 159.923s-.613-.687-.736-.687-.932 2.184-1.815 3.019c-.884.834-2.062 2.11-2.528 1.423-.467-.687 1.693-1.89 2.38-3.411.687-1.521 1.178-2.528 1.227-4.197.05-1.668.098-1.57-.074-1.595-.171-.023-1.498.613-3.313.588-2.457-.033-2.502-.734-2.723-.784-.221-.049-.468 1.201-2.749 2.084-1.787.692-3.165.59-3.46.934-.294.344-.294 2.134.319 3.925.425 1.241 1.791 3.387.982 3.658-.847.284-1.08-.369-1.939-2.453-.58-1.408-.613-1.792-.711-1.89-.099-.098-.442-.147-.614-.05-.171.099-1.08 1.18-1.202 1.375-.123.196.613 1.153.908 1.62.294.466.957 1.668.662 2.159-.294.49-.49.54-.662.319-.172-.22-1.111-3.024-3.902-4.613-3.19-1.817-6.864.287-7.215 3.335-.403 3.508 3.113 7.275 9.522 9.354 7.018 2.278 11.164-.544 11.164-.544s6.528 3.559 18.945 2.283c12.707-1.305 17.054-4.467 18.454-5.522 1.352-1.019 1.52-1.644 1.35-1.595-.173.05-2.038 1.104-3.486-.27-2.598-2.466-1.104-7.827-1.35-8.024-.244-.196-.911.196-1.668.05-1.276-.247-1.715-1.476-1.963-1.448-.442.048-.835 2.183-2.798 1.987-1.594-.159-2.33-1.669-2.247-4.294.071-2.221.309-3.068.309-3.068s-1.006 0-2.037.122c-1.03.123-2.307.368-2.307.368s1.57 1.595 2.552 2.945c.982 1.35 2.256 3.378 2.135 3.78-.073.245-1.398-.295-7.73 1.602-4.98 1.492-7.435 3.207-7.607 3.256-.171.05-.318-1.03-1.006-2.061-.687-1.03-1.374-2.013-1.472-2.013-.098 0-.221 2.422-1.02 4-.845 1.669-1.75 2.891-2.244 2.503-.687-.54.712-2.503 1.35-4.27.451-1.247.32-3.9.32-3.9" fill="#FCD006"/><path d="M64.903 171.613s-2.029 1.511-10.248 4.12c-4.316 1.37-9.485 2.236-17.746 1.78-7.374-.406-9.646-2.124-10.25-2.235-.559-.104-3.852 2.623-12.029.393-6.606-1.802-7.869-4.493-8.78-4.928-.22-.104-1.49 5.093 8.634 7.764 2.773.732 8.032.203 10.146-.434 1.719-.518 2.03-.887 2.174-.912.248-.041.58 0 .58.166s.02.456.02.456 5.177 2.319 12.714 2.195c7.536-.125 15.53-1.636 21.41-4.41 2.931-1.383 3.127-1.657 3.23-1.885.104-.228.249-.89.228-1.18-.021-.29-.083-.89-.083-.89M113.53 161.155c-.164.612 1.103.758 1.514 1.882.425 1.163.252 1.837.238 1.967-.044.411-.887 2.054.043 2.076 1.002.024 1.907-3.695.649-5.34-1.125-1.471-2.292-1.147-2.444-.585Zm30.185-17.167c-.047-.803-.289-2.033-.64-2.007-.59.044-.192 2.776-.908 5.334-1.53 5.466-2.566 7.752-5.486 11.257-5.219 6.264-10.7 7.71-10.584 8.033.163.451 1.287.974 1.287.974s.072 1.986-2.248 5.334c-4.396 6.344-9.855 8.29-11.51 8.59-.788.143-3.07-.333-5.05-1.866-1.257-.972-2.312-3.043-2.3-4.29.003-.515 1.631-1.246 2.927-2.122 1.23-.832 1.758-2.284 1.203-2.725-.645-.513-1.358 1.087-2.255 1.654-.898.567-2.308 1.292-2.38 1.035-.115-.407-.08-.822-.794-1.53-.571-.565-1.09-.99-1.09-.99s1.3-.309 2.556-1.698c.987-1.092 1.094-3.479 0-5.412-.956-1.69-3.102-2.955-3.432-2.955-.331 0-.193.684.044 1.062.236.378.583.468 1.176.937.586.464 2.035 2.371 1.557 4.29-.312 1.253-1.424 2.185-3.689 2.087-1.796-.077-2.705-.544-4.326-1.565-.181-.115-.464.07-.18.742.197.469 1.043 1.263 1.043 1.263s-.794-.548-1.03-.69a2.796 2.796 0 0 1-.41-.3s-.47-.965-.818-2.015c-.268-.805-.136-2.387-.136-2.387s1.96.789 4.07 1.768c2.478 1.15 3.896 1.325 4.574.895.678-.431-.979-2.272-1.672-3.857-.584-1.334-1.08-3.644-.796-3.725.374-.106.973.956 5.202 3.035 1.447.711 4.874 2.113 5.352 1.98.455-.126.107-3.452-1.484-7.642-.684-1.803-3.338-4.246-3.143-4.607.01-.016 1.584.009 1.584.141 0-.026-.01.463.212.664.156.142.958.5 1.495.319.865-.292 2.598-.512 7.6.176 4.688.646 8.591 3.738 8.652 3.193.213-1.92.867-5.014 2.37-8.014 2.283-4.556 3.646-5.594 3.522-5.865-.372-.814-3.61-3.045-7.149-3.955-4.13-1.061-6.487-.636-6.673-.968-.156-.279 2.325-3.965 5.771-4.543 2.743-.46 4.035.831 4.493.652.16-.062-.145-1.013-.892-1.581-1.221-.929-2.857-.823-2.857-.823s-.23-5.644 4.034-9.767c2.474-2.392 8.598-3.731 13.643-.743 6.823 4.04 6.682 9.243 5.486 15.539-.94 4.945-4.233 8.272-5.815 9.59-.371.31-.059-1.098-.106-1.902Z" fill="#FCD006"/><path d="M116.357 39.328s-5.047-4.258-8.196-2.337c-3.291 2.008-1.152 7.307 2.073 10.5 3.161 3.128 7.435 4.866 9.674 3.849 2.604-1.184 2.044-3.487 2.044-3.487s-1.432 2.499-3.916 2.436c-3.851-.1-6.945-4.543-6.945-4.543s.598-.219 1.908-.428a14.184 14.184 0 0 0 1.943-.46s-1.457-.536-2.636-.855c-1.217-.329-2.466-.726-2.466-.726s-1.162-2.42.724-3.982c2.106-1.744 5.793.033 5.793.033M124.895 144.733c-.081-.203-1.586-.773-3.396-1.037-1.81-.264-3.113-.183-3.336-.061-.224.122-.55.692-.814 1.342-.264.65-.528 1.75-.528 1.871 0 .123.63-.223 3.09.468 2.462.692 3.336.732 3.499.692.163-.041.59-.956.875-1.688.285-.733.61-1.587.61-1.587M140.724 92.567s-.414-.04-.565-.053c-.181-.015-.605-.022-.605-.022s-1.407.817-1.996 1.074c-.59.257-1.61.87-1.603 1.028.015.348.907.317 3.266.65 2.31.326 3.827 1.367 3.736 2.178-.136 1.21-2.253 3.216-5.838 4.108-3.584.893-9.603 2.108-11.373 2.123-.682.006-.484.454-.242.59.242.136 1.88 1.376 1.94 1.966.06.59-.545 1.575-2.379 2.103-2.102.605-5.248.68-5.868.65-.62-.03-.62.242-.544.408.075.166 1.376 1.164 1.467 1.981.09.817-.295 2.12-6.005 2.718-8.862.927-11.705.998-11.72 1.336-.016.332.882.216 4.854.499 3.615.257 9.768-.385 12.16-1.482 3.69-1.694 1.654-4.222 1.648-4.372-.015-.423 3.963.016 5.052-.317 1.58-.483 3.08-2.099 2.646-3.448-.378-1.18-1.013-1.482-1.043-1.603-.03-.121 3.662.083 8.333-.984 2.783-.635 6.655-2.495 7.865-4.93.969-1.95-.469-3.615-2.526-4.144-2.057-.529-2.802-.44-2.858-.545-.091-.166.593-.355.922-.559.575-.355 1.276-.953 1.276-.953M68.758 93.036s.326-.023.704-.023c.381 0 .923.023.923.023s-1.571 1.37-.799 2.545c.773 1.177 3.276 1.258 4.486 1.304 1.175.046 1.61-.2 1.72.011.126.243-.4.454-.682 1.015-.276.554-.09 1.834 2.342 2.283 4.118.762 7.729.797 8.421.831.692.035 1.026.196 1.026.277 0 .242-.144.072-2.653.288-2.145.185-5.995.22-7.808-.138-2.386-.473-2.804-1.361-2.849-1.972-.035-.485.15-1.396.093-1.465-.058-.07-3.985.847-5.226-.992-1.603-2.376.302-3.987.302-3.987M93.965 147.018c-2.52 4.883-3.108 8.247-3.144 8.428-.044.223-1.157-1.34-1.27-3.701-.179-3.702.78-7.247 0-7.514-.741-.254-3.836 5.798-4.683 7.47-.848 1.672-4.459 8.138-3.88 8.629.662.56 3.39-4.66 4.147-5.909.725-1.193 2.765-4.838 2.765-4.838s-.066 3.991.602 5.307c.67 1.315 1.584 3.01 2.498 2.83.914-.177.312-.78.803-2.251.49-1.472 3.01-7.113 3.879-8.585.87-1.471 4.147-6.287 4.058-7.024-.072-.598-3.48 2.71-5.775 7.158M48.484 124.323c-1.07-1.932-4.28-8.25-4.472-8.268-.191-.019-.329 3.076-.347 4.395-.02 1.32-.057 3.117-.153 3.174-.096.058-1.97-1.74-3.309-3.06-1.338-1.319-3.02-3.097-3.365-3.881-.345-.784-.765-2.044-1.11-1.947-.477.133-.573 1.603-.534 3.515.038 1.912.153 2.505-.02 2.62-.172.114-2.303-.897-4.035-1.702-2.18-1.014-5.029-2.85-5.2-2.811-.21.046 1.95 2.85 2.695 4.455.88 1.894 1.664 3.633 1.416 3.73-.25.095-1.415-.44-2.888-.957-1.472-.516-3.04-1.109-3.155-.975-.115.134 1.775 2.218 2.655 3.595.88 1.377 1.18 1.648 1.18 1.839 0 .192-.24.436-.431.455-.191.02-1.396.097-2.371.115-.975.02-2.084-.076-2.218.039-.134.114 1.811 2.374 3.308 3.843 2.122 2.084 3.863 2.906 3.92 3.002.057.096-1.032.68-2.371 1.3-2.926 1.358-3.48 1.129-3.538 1.358-.039.158 2.473.92 4.284 1.552 2.351.822 4.283.952 4.8 1.01.515.058-.48.535-.804.727-.325.191-.956.458-.956.593 0 .267 4.314 2.398 7.925 2.709 3.787.325 7.157-.174 8.998-1.142.364-.19.345-.477-.019-.61-.46-.17-1.072.682-6.502.553-4.838-.114-8.299-1.415-8.452-1.587-.131-.147 1.32-.65 1.95-.975.632-.326 1.416-.574 1.34-.918-.086-.385-1.41-.31-2.773-.459-1.74-.191-6.215-1.32-6.31-1.434-.097-.115 1.338-.804 2.045-1.205.708-.401 1.396-.841 1.607-.88.21-.038.57-.207.592-.382.058-.458-.382-.535-.592-.669-.21-.133-.943-.809-3.27-2.639-1.434-1.128-2.792-2.505-2.868-2.639-.077-.134 1.204-.172 2.198-.21.995-.038 1.512-.096 1.78-.23.267-.133.553-.248.534-.573-.019-.325-.497-1.013-1.338-2.123-.617-.814-1.798-2.046-1.76-2.16.039-.115.9.228 2.047.573 1.147.345 2.517.991 2.843.742.325-.248.184-1.337-.625-2.94-1.128-2.238-2.374-3.802-2.24-3.899.133-.095 2.125 1.183 3.445 1.91 1.32.726 3.554 1.928 3.802 1.89.249-.039.692-.972.634-1.833-.057-.86-.21-2.428-.114-2.486.095-.057 2.409 2.677 3.46 3.614 1.053.937 2.142 1.798 2.658 2.218.517.421 1.339 1.224 1.53 1.397.192.171.612.134.708-.21.095-.345.018-2.048 0-2.621-.02-.573.038-2.18.133-2.256.096-.077 1.09 1.912 2.066 3.327.672.975 2.142 3.328 2.562 4.035.42.708 1.1 1.63 1.32 1.492.612-.383-1.266-3.24-2.295-5.096M41.513 156.226c-.312-.402-.766-.87-.87-.935-.104-.065-.909.351-1.273.468-.364.117-1.454.507-1.533.598-.075.088.598.766.832 1.078.234.311.987 1.156 1.13 1.169.058.004.961-.39 1.455-.546.493-.156.948-.364 1.09-.507.068-.067-.519-.921-.83-1.325" fill="#FFF"/><path d="M50.266 142.677c-.313-.156-1.182-1.89-.938-3.574.243-1.685 1.212-4.89 1.497-5.833.29-.96.616-2.155.81-2.18.196-.024.843.907.843 1.22 0 .415-1.066 3.367-1.31 4.538-.243 1.172-.902 5.83-.902 5.83" fill="#FFF"/><path d="M131.76 181.297v1.029h.66c.28 0 .485-.041.614-.125.128-.082.193-.213.193-.393 0-.189-.062-.32-.187-.396-.125-.076-.346-.115-.662-.115h-.618Zm0 2.935h-.544v-3.388h1.16c.409 0 .698.032.867.099a.84.84 0 0 1 .406.328.875.875 0 0 1 .153.49c0 .259-.09.479-.268.657a1.06 1.06 0 0 1-.69.302c.126.052.243.14.354.26a4.5 4.5 0 0 1 .424.594l.407.658h-.665l-.295-.53c-.214-.38-.382-.626-.503-.738a.69.69 0 0 0-.488-.17h-.318v1.438Zm.706-4.326c-.716 0-1.327.256-1.835.77a2.545 2.545 0 0 0-.76 1.856c0 .726.252 1.345.758 1.856a2.49 2.49 0 0 0 1.837.766 2.48 2.48 0 0 0 1.832-.768c.506-.512.76-1.13.76-1.854 0-.723-.254-1.341-.762-1.855a2.48 2.48 0 0 0-1.83-.771Zm0-.514c.559 0 1.08.141 1.566.423.484.282.867.665 1.148 1.15a3.07 3.07 0 0 1 .422 1.567 3.08 3.08 0 0 1-.42 1.57c-.28.483-.661.865-1.146 1.146-.485.28-1.008.42-1.57.42-.565 0-1.09-.14-1.574-.418a3.071 3.071 0 0 1-1.147-1.146 3.09 3.09 0 0 1-.42-1.572c0-.563.14-1.087.422-1.572.28-.484.664-.867 1.149-1.147a3.085 3.085 0 0 1 1.57-.42Z" fill="#1967B8"/><path d="m99.035 106.773-.96.028-.091-.003a92.107 92.107 0 0 0-3.847-.098c-.85 0-1.282.294-1.282.873 0 .26.113.87 1.146.87.406 0 .906.04 1.093.086.813.173.984.413 1.044 1.434.067 1.078.067 2.015.067 7.214v4.273c0 3.547-.134 6.395-1.816 8.077-1.519 1.516-3.526 1.68-4.32 1.68-1.17 0-2.55-.15-3.912-1.272-1.478-1.206-2.462-3.025-2.462-7.973v-4.785c0-5.2 0-6.136.066-7.211.068-1.166.31-1.337.808-1.43.388-.063.562-.093.885-.093 1.034 0 1.114-.665 1.114-.87 0-.873-.992-.873-1.318-.873l-2.512.059-1.691.043-6.563.002-1.949-.057-1.58-.047c-.968 0-1.113.547-1.113.873 0 .697.644.84.887.893l.027.007a.46.46 0 0 1 .012.129c0 .345-.762 1.242-1.436 2.035l-.144.17c-.585.686-2.619 2.796-4.411 4.658-.734.762-1.407 1.46-1.928 2.007v-.27c0-5.21 0-6.15.067-7.23.067-1.17.31-1.342.807-1.433.38-.064.557-.094.856-.094.995 0 1.046-.726 1.046-.872 0-.58-.433-.873-1.283-.873l-2.426.059-1.722.045-1.514-.037c-.976-.03-2.19-.067-3.285-.067-1.316 0-1.316.657-1.316.873 0 .262.111.872 1.145.872.489 0 1.003.037 1.2.087.806.17.988.425 1.048 1.438.068 1.083.068 2.021.068 7.233v6.031c0 3.127 0 5.827-.168 7.231-.135.978-.278 1.346-.545 1.4-.39.087-.745.127-1.123.127-1.032 0-1.112.64-1.112.836 0 .273.12.907 1.249.907.788 0 1.817-.033 2.725-.063l1.594-.04 1.539.037c.996.03 2.237.066 3.396.066 1.155 0 1.214-.755 1.214-.907 0-.403-.316-.836-1.011-.836-.418 0-1.155-.068-1.598-.133-.19-.03-.662-.107-.749-1.331-.102-1.453-.102-4.16-.102-7.294v-1.747l13.055 14.419.024.02c1.518 1.346 2.554 2.182 4.564 2.367.745.07 1.374.07 2.416.07h2.983c.38 0 1.387 0 1.387-.906 0-.418-.312-.839-1.01-.839-.245 0-.917-.164-2.068-.624-1.645-.64-3.207-2.01-4.52-3.27l-3.968-4.307c-.001-.003-7.699-8.282-9.465-10.18 1.598-1.653 5.985-6.058 7.006-6.994 1.455-1.333 3.064-2.697 3.966-2.697.432 0 .83.109.905 1.417.068 1.079.068 2.016.068 7.214v4.99c0 4.48 1.026 7.493 3.23 9.477 2.768 2.504 6.409 2.504 7.964 2.504 2.074 0 4.799-.295 7.477-2.598 3.028-2.593 3.444-6.682 3.444-10.716v-3.657c0-5.2 0-6.136.068-7.211.066-1.166.307-1.337.805-1.43.389-.063.564-.093.888-.093 1.027 0 1.179-.546 1.179-.87 0-.58-.43-.873-1.28-.873-.87 0-2.06.042-2.932.073" fill="#FFF"/></g></svg>