<svg width="200" height="200" xmlns="http://www.w3.org/2000/svg"><g fill="none"><path d="M57.43 77.718l3.616.562v-5.288c-4.5.25-8.992.619-13.48 1.16v1.32c1.602.604 8.575 2.048 9.864 2.246" fill="#B1B1AE"/><path d="M186.585 188.271h-64.693l8.462-15.95-13.468-16.4c-5.196.092-10.39.12-15.571.112a1044.88 1044.88 0 0 1-5.862-.029v32.274H49.679l11.367-21.47V154.67a302.562 302.562 0 0 1-11.261-1.087c-10.694-1.253-34.86-3.124-34.763-18.185v-22.497H47.58v11.41c4.46.562 8.952.945 13.466 1.2v-16.993c-4.58-.74-9.16-1.495-13.735-2.271-10.946-2.284-32.452-6.495-32.344-21.187V63.237c-.043-2.807.974-5.773 2.595-8.007l-7.186-12.66h50.67v-7.647l-11.36-21.47h45.767V42.57h2.227c6.096 0 13.75.1 21.79.35l10.994-13.311s-6.682-12.795-8.44-16.158h64.93l-26.941 32.613c1.535.264 2.95.543 4.204.843 8.313 1.99 20.403 5.822 20.264 16.297v23.707h-32.433V74.45c-4.419-.646-9.275-1.071-14.365-1.355l-12.619 15.276c16.582 2.677 30.366 4.99 33.887 5.82 8.284 1.953 18.928 3.825 23.75 11.79 1.332 2.198 1.924 6.384 1.924 10.044v19.372c0 12.309-15.243 16.059-26.965 17.688l28.925 35.185zm-3.832-30.254c0-1.973-1.216-3.762-3.186-5.095 6.438-3.702 11.17-9.8 11.116-17.524v-19.375c-.019-10.67-4.78-18.657-14.657-23.088h14.514V69.012c0-3.541.312-7.35-.642-10.791-2.415-8.724-10.976-13.283-19.063-15.77L199.77 7.424h-87.717c3.729 7.144 7.461 14.286 11.192 21.43l-6.57 7.954a748.706 748.706 0 0 0-15.165-.253V7.425H39.654L54.99 36.41v.133H0l10.615 18.698c-1.115 2.495-1.741 5.257-1.707 7.993V85.06c-.249 10.882 8.842 18.071 18.082 21.817H8.963v28.52c-.544 21.705 30.809 23.338 46.027 24.795v5.126l-15.343 28.985h61.862v-32.247c4.179 0 8.36-.017 12.537-.07l9.076 11.05-11.275 21.26h87.514l-24.116-29.337c4.389-1.078 7.508-3.775 7.508-6.942z" fill="#B1B1AE"/><path d="M146.049 121.567a3131.83 3131.83 0 0 0-16.386-2.534l5.52 6.713c5.61-.25 11.24-.715 16.9-1.561v-1.192c-1.641-.624-3.924-1.008-6.034-1.426" fill="#B1B1AE"/><path d="M61.046 86.803l-8.894-1.377c-6.373-1.211-13.049-3.73-13.049-6.126V68.273c0-4.405 37.179-3.994 62.718-3.984l10.923-13.222a703.884 703.884 0 0 0-10.055-.074H24.882l3.47 6.094c-3.347 1.69-4.92 3.735-4.92 6.15V85.06c0 4.804 8.075 9.302 25.61 12.941l12.004 1.892v-13.09m83.28-21.748c9.18.571 16.19 1.55 16.19 3.224v10.21h15.504V63.206c0-4.405-7.928-7.587-22.241-9.595l-9.453 11.443m-29.589 35.82l7.063 8.594 25.686 4.048c6.185 1.21 13.067 3.763 13.067 6.13v9.504c0 2.21-7.956 3.497-19.09 4.234l9.846 11.977c16.022-1.98 24.853-5.278 24.853-9.963v-19.372c0-3.947-.469-5.272-.815-5.869-2.306-4.02-7.423-5.608-30.49-10.361l-25.91-4.016-4.21 5.094m-75.621 29.454v-9.005H23.488v14.075c0 8.262 33.683 12.215 79.287 12.215 2.477 0 4.888-.013 7.253-.036l-10.882-13.253c-14.559.038-60.03.043-60.03-3.996" fill="#F9B00F"/><path d="M169.01 21.888h-33.04l4.612 8.763-53.61 64.908V72.5c-5.81-.022-11.63 0-17.446.159v53.187c5.812.157 11.636.171 17.447.138V106.17l53.505 65.145-4.52 8.52h32.737l-64.923-78.972 65.239-78.976M69.526 42.57h17.447V21.888H63.729l5.797 10.954v9.728m0 126.325l-5.797 10.95h23.244v-23.96a489.857 489.857 0 0 1-17.447-.633v13.643" fill="#F9B00F"/><path d="M168.695 179.836h-32.737l4.52-8.52-53.505-65.145v19.812c-5.81.033-11.635.019-17.447-.138V72.658c5.816-.158 11.636-.18 17.447-.158v23.06l53.609-64.909-4.612-8.763h33.04l-65.238 78.976 64.923 78.972zm-65.92-32.223c-45.604 0-79.287-3.953-79.287-12.215v-14.075h15.628v9.005c0 4.039 45.471 4.034 60.03 3.996l10.882 13.253c-2.365.023-4.776.036-7.253.036zm-15.802 32.233H63.729l5.797-10.951v-13.643c5.81.322 11.628.518 17.447.633v23.96zM61.046 72.992v5.288l-3.616-.562c-1.29-.198-8.262-1.642-9.863-2.247v-1.319c4.487-.541 8.98-.91 13.48-1.16zM49.041 98c-17.534-3.639-25.608-8.137-25.608-12.941V63.237c0-2.415 1.572-4.46 4.919-6.15l-3.47-6.094h77.807c3.46 0 6.802.027 10.055.074L101.82 64.289c-25.539-.01-62.718-.42-62.718 3.984V79.3c0 2.395 6.676 4.915 13.049 6.126l8.894 1.377v13.09L49.041 98zm37.932-76.112V42.57H69.526v-9.728L63.73 21.888h23.244zm89.047 41.319v15.281h-15.504v-10.21c0-1.672-7.01-2.652-16.19-3.223l9.453-11.443c14.313 2.008 22.24 5.19 22.24 9.595zm-40.837 62.54l-5.52-6.714a3131.83 3131.83 0 0 1 16.386 2.534c2.11.418 4.393.802 6.034 1.426v1.192c-5.66.846-11.29 1.311-16.9 1.561zm9.673-25.951c23.068 4.753 28.185 6.342 30.491 10.361.346.597.815 1.922.815 5.87v19.371c0 4.685-8.83 7.984-24.853 9.963l-9.847-11.977c11.135-.737 19.09-2.025 19.09-4.234v-9.505c0-2.366-6.88-4.92-13.066-6.129l-25.686-4.048-7.063-8.594 4.21-5.094 25.91 4.016zm39.769 35.602v-19.372c0-3.66-.592-7.846-1.923-10.044-4.823-7.965-15.467-9.837-23.75-11.79-3.522-.83-17.306-3.143-33.888-5.82l12.619-15.276c5.09.284 9.946.709 14.365 1.355v12.46h32.433V63.204c.14-10.475-11.951-14.306-20.264-16.297a66.97 66.97 0 0 0-4.204-.843l26.941-32.613h-64.93c1.758 3.363 8.44 16.158 8.44 16.158l-10.994 13.31c-8.04-.25-15.694-.35-21.79-.35h-2.227V13.454H49.686l11.36 21.47v7.647h-50.67l7.186 12.66c-1.62 2.234-2.638 5.2-2.595 8.007V85.06c-.108 14.692 21.398 18.903 32.344 21.187 4.574.776 9.154 1.53 13.735 2.271v16.993c-4.514-.255-9.006-.638-13.466-1.2V112.9H15.022v22.497c-.098 15.06 24.069 16.932 34.763 18.185 3.744.439 7.5.79 11.261 1.087v12.137L49.68 188.278h45.774v-32.274c1.955.015 3.91.025 5.862.029a808.92 808.92 0 0 0 15.57-.112l13.469 16.4-8.462 15.95h64.693l-28.925-35.185c11.722-1.63 26.965-5.38 26.965-17.688z" fill="#231F20"/><path d="M172.927 157.981h.355c.415 0 .75-.136.75-.47 0-.294-.216-.491-.69-.491a1.85 1.85 0 0 0-.415.038v.923zm-.02 1.829h-.75v-3.222c.295-.06.71-.1 1.244-.1.611 0 .887.1 1.126.236.176.137.315.394.315.708 0 .354-.277.63-.67.746v.04c.315.119.493.353.592.785.099.49.157.688.237.807h-.81c-.098-.12-.158-.413-.258-.787-.058-.353-.256-.51-.67-.51h-.356v1.297zm-1.996-1.691c0 1.435 1.069 2.574 2.528 2.574 1.424 0 2.47-1.14 2.47-2.554 0-1.434-1.046-2.592-2.489-2.592-1.44 0-2.509 1.158-2.509 2.572zm5.826 0c0 1.828-1.44 3.262-3.317 3.262-1.856 0-3.337-1.434-3.337-3.262 0-1.787 1.481-3.222 3.337-3.222 1.877 0 3.317 1.435 3.317 3.222z" fill="#231F20"/></g></svg>