<?xml version="1.0" encoding="UTF-8"?>
<svg width="200px" height="200px" viewBox="0 0 200 200" version="1.1" xmlns="http://www.w3.org/2000/svg" xmlns:xlink="http://www.w3.org/1999/xlink">
    <!-- Generator: Sketch 51.3 (57544) - http://www.bohemiancoding.com/sketch -->
    <title>kentucky</title>
    <desc>Created with Sketch.</desc>
    <defs></defs>
    <g id="kentucky" stroke="none" stroke-width="1" fill="none" fill-rule="evenodd">
        <g id="kentucky_BGL" transform="translate(0.000000, 27.860697)">
            <g id="kentucky">
                <g id="g10" transform="translate(99.953637, 72.963400) scale(-1, 1) rotate(-180.000000) translate(-99.953637, -72.963400) translate(0.000000, 0.027635)" fill-rule="nonzero">
                    <g id="g12" transform="translate(0.000000, 0.165763)">
                        <path d="M192.764019,10.2239366 C193.761701,10.2239366 194.646263,10.1476672 194.646263,9.10516461 C194.646263,7.98626367 193.10338,8.17361281 191.975888,8.17361281 L190.698187,8.17361281 L190.698187,10.2239366 L192.764019,10.2239366 Z M193.630037,6.97846084 C194.735276,7.01457878 195.844223,7.61401499 195.844223,9.23560175 C195.844223,10.9707178 194.492346,11.4190149 192.990259,11.4190149 L189.496518,11.4190149 L189.496518,3.17360826 L190.698187,3.17360826 L190.698187,6.97846084 L192.239216,6.97846084 L194.360681,3.17360826 L195.732958,3.17360826 L193.630037,6.97846084 Z M192.350482,0.0182742309 C196.484001,0.0182742309 199.753356,3.26367288 199.753356,7.3504885 C199.753356,11.4370831 196.484001,14.6825589 192.350482,14.6825589 C188.218818,14.6825589 184.951502,11.4370831 184.951502,7.3504885 C184.951502,3.26367288 188.218818,0.0182742309 192.350482,0.0182742309 Z M192.350482,13.4914957 C195.732958,13.4914957 198.549833,10.8193577 198.549833,7.3504885 C198.549833,3.89946647 195.732958,1.21336565 192.350482,1.21336565 C188.971715,1.21336565 186.152986,3.89946647 186.152986,7.3504885 C186.152986,10.8193577 188.971715,13.4914957 192.350482,13.4914957 Z" id="path14" fill="#2350A9"></path>
                        <path d="M172.630501,6.48907291 L123.771161,6.48907291 L123.771161,19.4300141 L128.655722,19.4300141 L109.11525,38.8395841 L81.4308742,38.8395841 L81.4308742,19.4300141 L91.2018521,19.4300141 L91.2018521,6.48907291 L45.5994425,6.48907291 L45.5994425,19.4300141 L55.3717186,19.4300141 L55.3717186,77.6581716 L45.5994425,77.6581716 L45.5994425,90.5996653 L91.2018521,90.5996653 L91.2018521,77.6581716 L81.4308742,77.6581716 L81.4308742,58.2491541 L109.11525,58.2491541 L128.658689,77.6581716 L123.771161,77.6581716 L123.771161,90.5996653 L172.630501,90.5996653 L172.630501,77.6581716 L159.601665,77.6581716 L131.10097,49.3524642 L161.228554,19.4300141 L172.630501,19.4300141 L172.630501,6.48907291 Z M29.3155301,61.4828239 L16.2860079,74.4237651 L16.2860079,126.18532 L6.51302719,126.18532 L6.51302719,139.123867 L52.1151586,139.123867 L52.1151586,126.18532 L42.3436243,126.18532 L42.3436243,74.4237651 L52.1151586,74.4237651 L52.1151586,61.4828239 L29.3155301,61.4828239 Z M94.4582267,74.4237651 L94.4582267,126.18532 L84.6865069,126.18532 L84.6865069,139.123867 L130.284837,139.123867 L130.284837,126.18532 L120.515157,126.18532 L120.515157,74.4237651 L107.485579,61.4828239 L84.6865069,61.4828239 L84.6865069,74.4237651 L94.4582267,74.4237651 Z M135.986459,49.3524642 L161.228554,74.4237651 L175.886319,74.4237651 L175.886319,93.8348085 L123.771161,93.8348085 L123.771161,122.947782 L133.544735,122.947782 L133.544735,142.358457 L81.4273508,142.358457 L81.4273508,122.947782 L91.2018521,122.947782 L91.2018521,93.8348085 L45.5994425,93.8348085 L45.5994425,122.947782 L55.3717186,122.947782 L55.3717186,142.358457 L3.25646723,142.358457 L3.25646723,122.94944 L13.0266293,122.94944 L13.0295222,122.94944 L13.0295222,72.8086799 L27.6866011,58.2491541 L52.1151586,58.2491541 L52.1151586,22.6633155 L42.3408427,22.6633155 L42.3408427,3.25208788 L94.4582267,3.25208788 L94.4582267,22.6633155 L84.6865069,22.6633155 L84.6865069,35.6051776 L107.485579,35.6051776 L120.515157,22.6633155 L120.518124,22.6633155 L120.518124,3.25208788 L175.886319,3.25208788 L175.886319,22.6633155 L162.858967,22.6633155 L135.986459,49.3524642 Z" id="path16" fill="#FEFFFF"></path>
                        <polyline id="path18" fill="#2350A9" points="52.1151586 74.4237651 42.3436243 74.4237651 42.3436243 126.18532 52.1151586 126.18532 52.1151586 139.123867 6.51302719 139.123867 6.51302719 126.18532 16.2860079 126.18532 16.2860079 74.4237651 29.3155301 61.4828239 52.1151586 61.4828239 52.1151586 74.4237651"></polyline>
                        <polyline id="path20" fill="#2350A9" points="84.6865069 61.4828239 107.485579 61.4828239 120.515157 74.4237651 120.515157 126.18532 130.284837 126.18532 130.284837 139.123867 84.6865069 139.123867 84.6865069 126.18532 94.4582267 126.18532 94.4582267 74.4237651 84.6865069 74.4237651 84.6865069 61.4828239"></polyline>
                        <polyline id="path22" fill="#3157AF" points="131.10097 49.3524642 159.601665 77.6581716 172.630501 77.6581716 172.630501 90.5996653 123.771161 90.5996653 123.771161 77.6581716 128.658689 77.6581716 109.11525 58.2491541 81.4308742 58.2491541 81.4308742 77.6581716 91.2018521 77.6581716 91.2018521 90.5996653 45.5994425 90.5996653 45.5994425 77.6581716 55.3717186 77.6581716 55.3717186 19.4300141 45.5994425 19.4300141 45.5994425 6.48907291 91.2018521 6.48907291 91.2018521 19.4300141 81.4308742 19.4300141 81.4308742 38.8395841 109.11525 38.8395841 128.655722 19.4300141 123.771161 19.4300141 123.771161 6.48907291 172.630501 6.48907291 172.630501 19.4300141 161.228554 19.4300141 131.10097 49.3524642"></polyline>
                        <path d="M175.886319,3.25208788 L120.518124,3.25208788 L120.518124,22.6633155 L120.515157,22.6633155 L107.485579,35.6051776 L84.6865069,35.6051776 L84.6865069,22.6633155 L94.4582267,22.6633155 L94.4582267,3.25208788 L42.3408427,3.25208788 L42.3408427,22.6633155 L52.1151586,22.6633155 L52.1151586,58.2491541 L27.6866011,58.2491541 L13.0295222,72.8086799 L13.0295222,122.94944 L13.0266293,122.94944 L3.25646723,122.94944 L3.25646723,142.358457 L55.3717186,142.358457 L55.3717186,122.947782 L45.5994425,122.947782 L45.5994425,93.8348085 L91.2018521,93.8348085 L91.2018521,122.947782 L81.4273508,122.947782 L81.4273508,142.358457 L133.544735,142.358457 L133.544735,122.947782 L123.771161,122.947782 L123.771161,93.8348085 L175.886319,93.8348085 L175.886319,74.4237651 L161.228554,74.4237651 L135.986459,49.3524642 L162.858967,22.6633155 L175.886319,22.6633155 L175.886319,3.25208788 Z M164.486412,25.8988271 L140.873246,49.3524642 L162.857483,71.1873326 L179.143621,71.1873326 L179.142137,97.0703201 L127.029019,97.0684783 L127.029019,119.714297 L136.801109,119.714297 L136.801109,145.59489 L78.1722744,145.59489 L78.1707908,145.59489 L78.1707908,119.714297 L78.1722744,119.714297 L87.9430669,119.714297 L87.9430669,97.0684783 L48.8560025,97.0684783 L48.8560025,119.714297 L58.6269805,119.714297 L58.6310602,119.714297 L58.6310602,145.59489 L58.6269805,145.59489 L0,145.59489 L0,119.714297 L9.77298075,119.714297 L9.77298075,71.1908321 L9.77709758,71.1908321 L9.77298075,71.1873326 L26.0569303,55.0149318 L48.8587841,55.0149318 L48.8587841,25.8988271 L39.0844682,25.8988271 L39.0844682,0.0182742309 L97.7147866,0.0182742309 L97.7147866,25.8988271 L87.9430669,25.8988271 L87.9430669,32.3715079 L105.856094,32.3715079 L117.257855,21.045836 L117.257855,0.0182742309 L179.143621,0.0182742309 L179.143621,25.8988271 L179.142137,25.8988271 L164.486412,25.8988271 Z" id="path24" fill="#2350A9"></path>
                    </g>
                </g>
            </g>
        </g>
    </g>
</svg>