<?xml version="1.0" encoding="UTF-8"?>
<svg width="200px" height="200px" viewBox="0 0 200 200" version="1.1" xmlns="http://www.w3.org/2000/svg" xmlns:xlink="http://www.w3.org/1999/xlink">
    <!-- Generator: Sketch 51.3 (57544) - http://www.bohemiancoding.com/sketch -->
    <title>kent-st</title>
    <desc>Created with Sketch.</desc>
    <defs></defs>
    <g id="kent-st" stroke="none" stroke-width="1" fill="none" fill-rule="evenodd">
        <g id="kent-st_BGL" transform="translate(0.000000, 41.758242)">
            <g id="Group">
                <path d="M80.7286143,111.006183 C58.315308,111.155105 37.0408509,105.518001 22.3866703,92.0697934 C22.3095572,92.9686454 21.6552745,99.0774477 21.6552745,99.0774477 L15.5630038,91.5312801 L14.457155,90.1680435 C9.31869577,83.7933087 3.772379,75.9233682 1.59425417,65.8834184 C1.02705205,63.2659776 0.735807025,60.7273193 0.735807025,58.1776913 C0.735807025,53.4061971 1.76471113,48.5921537 3.90037326,43.1608144 C2.11367311,43.5115129 0,43.9283621 0,43.9283621 L2.85240976,38.529932 C11.5822175,22.0082095 26.9218627,10.1050368 47.5002816,3.33505971 C55.7500351,0.620952429 60.3987083,0.271517101 63.0326759,0 C47.1665739,5.69664019 36.4273136,16.9338847 29.6524742,27.507694 C31.0250198,27.2304593 32.3989124,26.9508978 32.3989124,26.9508978 L30.3869006,31.9670499 C28.70927,36.1478415 27.9054755,41.6413425 27.9054755,46.0701162 C27.9054755,48.3355288 28.101794,50.3260337 28.5264211,51.7118745 C30.6273318,58.5666176 47.8646325,66.1071341 58.1334693,64.8120428 C57.2044081,64.7040077 54.9647612,64.2728646 54.9647612,64.2728646 C54.9647612,64.2728646 63.8603788,63.8935783 71.3605527,62.0679516 C78.8614,60.2429897 87.9735404,57.6052715 95.952893,54.1331901 C99.5004318,52.5877898 110.058527,47.3515785 117.875235,42.1163645 L116.543434,44.3714722 C116.543434,44.3714722 117.159666,44.2444894 118.857164,43.1152735 C121.46958,41.3787341 124.140252,38.0765171 124.347346,37.4475867 C124.369908,37.0187705 124.03721,36.8931174 122.129251,36.4869055 C119.60809,35.950719 116.961664,35.5022903 116.961664,35.5022903 C116.961664,35.5022903 119.496967,32.9699479 123.39202,31.6874883 C127.285389,30.406026 129.854366,30.3003178 132.30279,30.5576076 C134.437712,27.409299 138.364755,23.931234 145.581732,22.0670471 C156.398778,19.2714315 165.53348,21.7223321 172.057113,24.3919621 C173.432352,21.5019405 174.167789,18.7761322 174.167789,16.5050685 C174.167789,15.7620863 174.090676,15.0663403 173.932746,14.4294319 C173.353556,12.0869321 168.940936,8.36789909 166.031853,7.26261706 C163.12378,6.15863146 162.333792,5.88701463 161.408435,5.56965741 C162.482967,4.67369752 165.211895,3.36038978 166.442337,2.91890856 C168.091345,2.32820595 170.097969,1.96125232 171.178562,1.77712729 C176.154545,0.930763813 181.200907,1.36120883 185.596353,2.76463446 C191.232006,4.56566243 195.392072,8.08498013 197.624984,12.9382486 C199.334942,16.6559852 200,20.2912827 200,23.6962162 C200,32.4769755 195.583339,39.7186504 193.260518,42.9184834 C194.528338,44.1643773 195.243907,45.7832415 195.306541,47.6321373 C195.308561,47.7179005 195.311928,47.8049934 195.311928,47.8924187 C195.311928,52.898266 190.565938,58.5007993 185.766742,61.9732131 C184.44134,67.5764113 181.037252,73.1347333 175.083044,79.3499087 C172.269595,82.288463 168.863486,85.1425838 165.258702,88.1639096 C161.966747,90.9222946 151.122088,98.339485 148.21974,102.305868 C148.21974,102.305868 150.220976,97.8973722 150.822728,96.5766848 C143.548168,101.460868 131.593283,107.28612 124.194804,110.169493 L114.1435,114.086679 C114.1435,114.086679 116.622231,110.940365 118.58811,108.44625 C110.27909,111.057375 100.911366,112.989707 97.3776331,113.456087 L97.487073,113.439466 C90.0650225,114.516825 78.5468864,115.096558 74.9538879,114.848908 C75.8435507,114.261862 78.1512188,112.720783 80.7286143,111.006183" id="path14" fill="#FFFFFF" transform="translate(100.000000, 57.452830) scale(-1, 1) rotate(-180.000000) translate(-100.000000, -57.452830) "></path>
                <path d="M131.884694,83.9113133 C131.884694,83.9113133 131.22589,82.017149 131.614279,78.9091508 C132.000017,75.8024491 132.425853,74.740628 132.425853,74.740628 L133.241404,72.7333454 L134.906638,72.0893166 L140.331492,68.9433962 L137.927589,70.8385329 C137.927589,70.8385329 135.215494,73.2639318 134.363822,75.8782934 C133.511818,78.4929792 132.969001,81.9030583 133.084657,83.6468304 C133.201969,85.3896301 132.465951,82.8887109 132.465951,82.8887109 L131.884694,83.9113133" id="path16" fill="#E9A411" transform="translate(135.911602, 76.603774) scale(-1, 1) rotate(-180.000000) translate(-135.911602, -76.603774) "></path>
                <path d="M46.2123021,78.2265789 C25.4847737,86.2019783 11.4459048,99.2026252 3.5931622,114.310004 L3.692581,114.289115 C3.67408058,114.322806 3.65887061,114.359192 3.64443289,114.395916 L1.10497238,114.90566 C8.98605325,99.8309622 22.994435,86.8667353 43.6121696,78.9267114 C47.984784,77.2414879 51.2957223,76.2176186 54.1436464,75.509434 C51.8906907,76.1664083 49.3167475,77.0322332 46.2123021,78.2265789" id="path18" fill="#FFFFFF" transform="translate(27.624309, 95.207547) scale(-1, 1) rotate(-180.000000) translate(-27.624309, -95.207547) "></path>
                <path d="M8.87166758,62.9538142 C4.23178654,72.581345 2.56230734,80.2419323 4.48955021,89.1329835 C6.66413832,99.1665607 12.4798533,106.927744 16.8211735,112.317935 L16.4870417,116 C12.3897624,110.762367 4.41142877,101.905292 1.84555911,89.6749339 C-0.0158351676,80.7982059 1.68513536,73.1542736 6.3452801,63.5487272 L2.95925329,64.2149232 C10.8925415,49.2741466 24.9950974,36.4238595 45.7503837,28.5544199 C50.1534391,26.8850327 53.4863285,25.8697168 56.3535912,25.1698113 C54.0847988,25.8191192 51.4946869,26.6781456 48.3688176,27.8623089 C27.5029407,35.7650584 13.3699387,48.6512533 5.46402841,63.6250067 L8.87166758,62.9538142" id="path20" fill="#E9A411" transform="translate(28.729282, 70.584906) scale(-1, 1) rotate(-180.000000) translate(-28.729282, -70.584906) "></path>
                <path d="M27.5031803,34.5626226 L28.1475764,34.4321502 C28.1307777,34.475641 28.1129712,34.5191318 28.0955006,34.5636186 L27.5031803,34.5626226 Z M28.0944927,34.5712544 C25.4060372,41.3860314 24.7912068,51.3417743 26.1965815,56.1025236 C27.0674234,59.0562466 28.438193,62.0627561 30.3690294,64.3777286 C31.6544619,65.9191623 33.5197837,67.3938658 35.1593316,68.2311469 L34.1057205,66.6007396 L30.734904,61.7885316 C36.1064393,66.7773588 50.6678423,72.5835475 66.2479153,71.5659954 C67.5840797,71.4783498 68.9246117,71.3485413 70.26212,71.1606345 L64.0704747,69.8031237 L62.5804348,69.4771087 C64.1285981,69.5873297 66.6067344,69.3539401 69.629147,68.8393542 C76.5743795,67.6554747 89.6890831,63.8551749 97.6664245,60.3802263 C102.141584,58.4301118 108.51835,55.5447789 116.105963,50.4573505 C115.287197,51.9602733 114.571239,53.4774717 113.763896,54.8389663 C117.707882,51.8776076 122.527414,48.033817 123.659307,46.8569093 C126.352466,44.0495943 128.702261,41.3179733 128.583326,39.6802622 C128.466744,38.0422191 124.969265,38.2092106 124.792543,38.0259516 C129.2546,36.661801 132.809866,36.6724247 134.212889,37.538257 C132.235016,39.7864993 131.453543,42.1197313 131.142096,45.2128904 C129.748816,47.1613449 121.38309,58.0264109 100.436521,64.4285232 C100.436521,64.4285232 102.107315,63.2363439 104.558909,61.4638445 C100.786605,63.2094526 96.2802002,65.0709256 91.9915057,66.5436372 C88.5830602,67.7142371 80.0456519,70.0727003 74.9237445,71.1400511 L80.5244133,72.5071896 C70.5312343,77.301138 49.38073,75.6176122 39.7413305,70.9401925 L43.9473757,76.4167143 C31.6017142,73.9254546 25.4974219,65.6213665 23.3529066,60.0771186 C21.0202465,54.0438481 20.6758742,45.1591079 23.285712,36.8948586 L19.5507009,37.646154 C19.9327021,36.6017107 20.3610676,35.5771868 20.8354614,34.5712544 L20.8388211,34.5626226 C23.5746487,28.7594218 27.8378093,23.541853 33.4989533,18.1301027 C26.613188,22.227169 20.1067361,28.4078435 15.2314328,34.5642826 L15.2270652,34.5712544 C13.4927729,36.7643862 11.9647343,38.9515422 10.7009049,41.0410929 L13.962463,40.3910547 C8.86145312,49.6413169 6.36540938,56.8528231 8.91275619,66.7252362 C8.92236501,66.7654071 9.02275373,67.1485246 9.03232896,67.1876995 C10.3565327,72.2462447 14.5248817,79.488958 17.9175364,83.8738937 L18.9872743,77.8333194 C40.7996452,104.343124 68.1498581,110.232975 100.802732,104.597429 C100.119027,105.352708 98.5617924,108.032207 96.6269243,109.784787 C110.169993,109.755572 130.638137,100.105924 134.405065,98.0502368 L131.44044,102.801358 C141.572376,98.331765 152.022814,92.68294 158.673398,86.8239648 C158.313907,87.7694748 157.719907,89.9240957 157.475655,90.5392748 C158.632746,89.6648108 167.157387,82.4606085 171.807924,78.1673023 C179.090138,71.4414988 182.332613,63.9899632 183.877752,59.3052398 C183.98224,59.371306 183.660042,61.740061 183.638875,62.2237717 C187.532802,58.2846998 191.781851,52.7607033 189.155551,48.2340075 C189.046696,48.0457687 188.928097,47.8588578 188.794716,47.6739389 L186.495989,48.9736832 L187.101076,48.1211306 C187.780414,47.1623409 191.526512,41.655608 193.197305,34.5705904 L193.199321,34.5626226 C194.348013,29.6959681 194.516671,24.085986 192.039543,18.6947196 C189.748207,13.7065564 184.642426,10.6722261 179.285674,9.6576951 C176.537751,9.13716658 173.14644,8.86755678 171.125227,9.19084951 C171.765928,9.08969188 177.223472,11.5304889 179.422415,15.7400006 C181.051548,18.8581255 180.684329,23.8911074 179.324647,27.4935406 C178.534438,29.590727 177.507369,31.7848548 176.296859,33.675211 C175.891339,34.3076536 175.706218,34.5712544 175.706218,34.5712544 C169.197415,44.0293429 158.650552,48.6875071 153.535364,49.9215172 C146.783652,51.5496006 141.660737,49.5081886 140.284592,45.1408484 C140.284592,45.1408484 140.119293,44.026023 140.148187,43.5240527 C140.175736,43.5582478 140.20799,43.5914469 140.244611,43.6266379 C140.763017,43.7587703 141.448738,43.8191926 142.204677,43.8311443 C143.652384,43.8553796 145.366854,43.7056518 146.702347,43.5532679 C148.822672,43.3115786 152.896344,42.5802026 154.799966,42.2180006 C153.11607,43.0941245 148.204482,44.4778626 146.292796,44.679381 C146.005539,44.7089282 145.724665,44.7378114 145.448496,44.7656987 C144.297452,44.8775796 143.262656,44.9419858 142.402229,44.8340888 C142.515788,44.8838874 142.583318,44.9111107 142.583318,44.9111107 L143.119531,45.5867121 C145.324858,47.8983647 149.416336,48.069672 152.986048,47.2011839 C157.079543,46.2058752 164.414504,43.075533 169.969816,37.0927252 C166.745148,35.7770453 158.855832,33.4773444 150.053677,36.3251622 C142.591382,38.740396 142.16268,43.2428565 142.179143,43.4463669 C142.153609,43.184758 140.355482,37.5897156 148.742374,34.5712544 C148.742374,34.5712544 148.934887,34.4929045 149.398529,34.3381968 C157.364784,31.6882455 163.631015,33.1875163 167.306895,34.5642826 L167.317982,34.5712544 C168.469025,35.0035065 169.366073,35.4281229 169.985607,35.7222668 L170.833267,36.1243078 C171.258609,35.6253255 171.669503,35.1077517 172.066287,34.5729143 C172.066287,34.5729143 172.309868,34.255863 172.834658,33.4740245 C167.122446,30.9283183 158.22857,28.3431052 147.447199,31.1311648 C144.155,31.9833854 141.586487,33.2227074 139.588456,34.5636186 L139.578712,34.5712544 C134.671492,37.864272 133.237223,41.7565332 133.211017,41.9600437 L133.254358,40.9039806 C133.275188,40.706446 133.519441,37.7135482 136.164555,34.5722503 L136.172283,34.5626226 C138.128989,32.2393503 141.39431,29.8330804 146.862606,28.4197951 C158.395213,25.437521 167.928445,28.937037 173.947064,31.6865855 C176.366405,27.512796 178.494458,21.9144336 177.343414,17.2562694 C176.618385,14.3158261 173.069167,11.0038186 169.074113,9.02289532 C169.598902,8.78183673 171.107757,8.42494652 172.097869,8.25868548 C180.119223,6.9167119 191.30141,8.56939576 195.481585,17.6623275 C198.248658,23.687929 197.925788,29.5990268 196.468338,34.5642826 L196.466994,34.5712544 C195.07405,39.3177281 192.643286,43.1967097 190.882788,45.481139 C190.868341,46.1972434 190.588811,47.7184257 190.725216,47.7974395 C196.081969,50.8660313 190.707746,59.1538519 183.686919,63.8133441 C182.729061,69.0900073 179.619967,74.532002 173.477038,80.9507139 C168.245939,86.4179399 160.9392,91.5385674 152.906087,99.2191767 C153.177217,98.441322 154.512373,94.1539917 154.411246,94.2572408 C150.302297,98.4014831 133.241927,107.351958 123.637133,111.098807 C124.439436,110.079927 126.265785,107.635146 127.602957,105.680051 C119.644766,109.734988 103.112546,113.471878 97.5075093,114.210889 C93.7483081,114.850968 89.9353513,114.936621 85.8206907,115.124528 C87.4851007,114.016343 89.7794598,112.221268 91.0924421,111.167197 C62.5088725,114.348998 35.8914166,104.41583 20.5199828,87.1689033 L20.2424692,90.4277259 L19.8393016,95.1476404 C19.0961295,94.2094341 18.22092,93.1483912 17.2704526,91.9701556 C12.9456409,86.597879 7.14957021,78.8628232 4.98267916,68.8625935 C3.0628962,60.0007607 4.72663419,52.3639742 9.35019295,42.7717614 L5.97222025,43.4377351 C7.58200098,40.3877348 9.45125361,37.4240521 11.5836066,34.5739103 L11.5908301,34.5626226 C19.8933933,23.4628391 32.1893308,14.0542505 48.7319663,7.78261055 C51.8477793,6.60234973 54.4287234,5.74916634 56.6888133,5.10048933 C59.2946194,4.35350983 61.4734039,3.8806884 63.5547563,3.50188679 C42.9764139,10.8976147 30.7943712,22.010047 24.8362271,34.5619586 L24.8321955,34.5712544 C24.7374511,34.7704489 24.6443866,34.9706394 24.5530019,35.1701659 L27.507212,34.5712544 L28.0944927,34.5712544 Z" id="path22" fill="#15356F" transform="translate(100.883978, 59.313208) scale(-1, 1) rotate(-180.000000) translate(-100.883978, -59.313208) "></path>
                <path d="M185.422385,100.419384 C183.879538,99.726504 182.473929,99.6799126 181.399842,99.8276737 C178.609094,99.5161774 176.204562,100.457322 176.063296,100.480951 C176.086113,100.476957 177.288044,100.445342 178.908738,100.7392 C176.924311,100.830053 174.974445,101.509954 173.168529,102.606181 C172.25282,102.586214 171.491463,102.552934 170.670714,102.670411 C173.365495,100.441348 175.318045,98.4721986 176.634062,96.6924095 C180.054968,92.6825593 182.680962,88.6783666 182.680962,88.6783666 C182.680962,88.6783666 179.049668,92.6908792 177.158187,94.5681773 C173.799358,97.9004563 169.053375,101.198125 164.497312,103.909075 C155.858309,108.289992 153.001458,109.523664 146.752558,109.649461 C140.402659,109.777587 134.752041,106.233317 133.116918,102.179205 C132.509577,99.7950598 132.832038,96.74366 134.035982,93.9681474 L133.994039,94.9728563 C134.030614,94.6853212 136.066715,87.1292046 147.420969,84.1829681 C158.190699,81.3878206 167.071632,83.9796301 172.778287,86.5321699 C172.155175,87.4646622 171.486765,88.3469025 170.781444,89.1792235 L169.934858,88.7762084 C167.337721,87.5385428 159.844947,83.9952715 149.372177,87.3981032 C145.51204,88.6514102 143.626599,90.4275385 142.735049,92.0811982 C141.438829,93.419368 140.638549,94.9894961 140.579157,96.771282 C140.457689,96.7496503 140.339241,96.7266874 140.229852,96.699731 C140.194284,96.6654531 140.160729,96.6305096 140.133214,96.5968972 C140.106371,97.1000837 140.269782,98.2186086 140.269782,98.2186086 C141.645191,102.59653 146.762289,104.642889 153.503437,103.010861 C158.771196,101.735589 169.800304,96.813547 176.234761,86.733511 C177.445416,84.8379091 178.470849,82.6384652 179.260056,80.5365303 C180.618017,76.925036 180.985106,71.8801592 179.357701,68.7542465 C177.159529,64.5343692 171.709568,62.0880577 171.071357,62.1898598 C173.089675,61.8653844 176.475348,62.1352481 179.221468,62.6570711 C184.571101,63.6761235 189.670415,66.7162415 191.957842,71.7164905 C192.387678,72.6545738 192.733627,73.5990801 193.014145,74.543553 C194.784493,85.5783786 186.435067,100.873982 185.420371,100.419384 L185.422385,100.419384" id="path24" fill="#E9A411" transform="translate(163.038674, 85.850943) scale(-1, 1) rotate(-180.000000) translate(-163.038674, -85.850943) "></path>
                <path d="M187.519773,43.4484614 C185.8831,46.639928 183.649376,47.1585664 183.649376,47.1585664 L183.554804,43.4196853 C183.554804,43.4196853 182.690864,46.6472893 182.213627,48.2279654 C180.569213,53.6750073 175.723812,60.9894821 170.09962,66.1601399 C170.478919,65.3741517 170.749174,64.5948556 170.723595,63.9437135 C167.687858,67.6481302 158.989224,74.6788596 158.989224,74.6788596 L160.061492,71.427164 C160.061492,71.427164 159.491029,72.176011 158.861669,72.9178312 C153.099489,79.7176829 137.17028,87.9543303 132.33363,90.4454677 L134.452925,87.0294808 C134.079684,87.2332555 133.54254,87.5136549 132.865389,87.8509372 L135.012282,84.221472 L123.77635,89.4771196 L129.829988,89.3017863 C128.123984,90.0884437 126.078395,90.9875285 123.814718,91.9130472 C118.251779,93.8547625 112.207565,95.4090047 104.935593,96.7671682 C103.642544,97.0084187 102.328965,97.2155395 101.005289,97.3962264 C102.186938,96.6336606 104.255076,93.8202981 105.221329,92.9299131 C81.5001695,96.2291227 61.97553,94.6250242 46.6787106,88.8631186 C36.5763007,84.2167875 27.2890301,76.991987 18.8340633,66.6533483 L18.5823192,68.0847903 C18.5722225,68.0704023 18.5597699,68.0560142 18.5486635,68.0406224 L17.7294856,72.696657 C14.3376714,68.2731732 10.1852063,61.0055431 8.86277572,55.9235558 C8.85304925,55.8837377 8.75262085,55.4976031 8.74286072,55.457785 C7.58440035,50.9392732 7.47040874,46.9738642 8.16586864,43.1192096 C9.12714068,38.9680946 11.0051584,34.8839006 13.5151278,30.3028176 L12.999187,30.4055415 C13.259345,29.9143407 13.5255611,29.4184555 13.8015372,28.9158781 L11.1973657,29.4361896 C15.5799006,22.6647794 22.4543992,15.1321418 30.0403777,9.8490566 C25.1209346,15.0779357 21.532235,20.2730197 19.3994778,26.149695 L19.6751174,26.0938159 C19.478232,26.5709632 19.2897605,27.051122 19.1137415,27.5369691 L22.7300388,26.805187 C22.4607937,27.7946153 22.2339548,28.7880588 22.043464,29.7831754 C20.3398161,37.211416 20.8069562,44.8109747 22.9228855,50.1439161 C24.6457171,54.4854216 31.5902194,64.2592464 43.2394419,67.2817373 L41.5092061,64.6627805 C42.2600632,64.8739166 43.0344792,65.062634 43.8385121,65.2249177 L41.0915397,61.62724 C50.6743067,65.5829455 64.2240626,66.9193596 80.6947904,62.1164332 L79.0497033,61.895259 C79.5457872,61.7041993 80.0273993,61.503436 80.4790578,61.2846041 L77.6654473,60.5936438 C82.6515286,59.3940834 88.885224,57.6266974 91.6806605,56.6613608 C94.6511062,55.6341221 98.2855775,53.9453685 101.857786,52.1110615 C100.957161,52.7625382 100.426749,53.1429846 100.426749,53.1429846 C105.675007,51.528848 109.184953,48.1396295 112.944286,46.1738226 L112.299444,47.3456109 C117.692422,44.4040945 122.560372,42.7267174 124.55817,40.6538368 C124.574998,40.6364373 124.591489,40.619707 124.609327,40.6019729 C128.532227,37.3348855 130.560315,34.6553651 131.183954,33.7763567 C131.357617,32.0501272 131.674316,30.5591254 132.259588,29.1875777 C130.618203,36.6650054 132.331611,38.8570056 132.933037,40.1934197 C133.103334,40.5708546 133.343299,40.9154982 133.605813,41.2189853 C136.092964,45.0110687 141.71379,47.1291211 146.535969,46.9685105 C151.535176,46.7998694 156.363412,45.4279871 161.211169,42.5570725 C160.307852,43.5679155 160.261407,44.9575319 160.568346,45.9740632 C160.611762,46.1202858 160.666284,46.2578086 160.724172,46.3906469 C160.775328,46.6871074 160.854082,46.9721912 160.969858,47.2315104 C161.246507,47.8461806 161.798123,48.2383382 162.365557,48.4909653 C162.021596,49.6323044 160.811003,52.0535093 157.922004,52.368373 C156.062867,52.5714785 155.175368,51.8918949 155.144742,51.8607766 C155.173686,51.8918949 155.744822,52.8776425 156.711075,53.2915494 C155.734725,53.8526827 153.233102,53.3066067 153.168483,53.2838535 C153.280893,53.3253446 155.591688,55.4919148 159.142021,54.3887207 C159.847779,54.1682157 160.471754,53.8172146 161.040871,53.5097122 C160.548489,54.2123836 160.232463,54.6396747 160.215972,54.6406785 C160.638686,54.6286327 163.312626,53.8607133 164.761501,50.8201537 C165.08796,50.1358856 165.907812,48.3644844 166.361489,47.4095205 C167.176629,45.69266 168.752049,43.2861777 170.386366,41.6251963 C173.039103,38.9276073 175.963777,37.9786663 179.276164,38.0004157 C182.665285,38.0218304 183.907178,40.2576639 183.926025,40.3456652 C183.908188,40.2630176 184.008145,38.7127906 182.999822,37.5366525 C183.752699,37.9388483 184.683277,38.9028465 184.932328,39.574065 C185.271577,40.4932262 185.040363,42.2867113 184.70246,42.6608002 C184.879152,42.4657252 187.030757,40.5772121 186.590205,38.6749802 C186.51145,38.3313404 186.39231,37.9191065 186.112968,37.4951615 C186.423273,37.282687 186.802572,37.0203563 187.221921,36.7335995 L186.63564,37.5671016 L188.548626,36.4786301 C189.261115,37.2930598 189.088798,40.384814 187.519773,43.4484614" id="path26" fill="#E9A411" transform="translate(98.342541, 53.622642) scale(-1, 1) rotate(-180.000000) translate(-98.342541, -53.622642) "></path>
                <path d="M162.622255,24.1527811 C162.380831,25.1645103 161.21008,27.9223695 158.114676,28.2597243 C156.255683,28.4629421 155.367097,27.7821962 155.338139,27.7510093 C155.367097,27.7821962 155.936479,28.7694454 156.903182,29.1849351 C155.928734,29.747305 153.425609,29.2003609 153.35995,29.1768869 C153.472412,29.2191401 155.783948,31.3901493 159.335935,30.2848595 C160.043706,30.0645393 160.666288,29.7127647 161.237354,29.4035786 C160.743395,30.1077985 160.426212,30.5370373 160.410386,30.5370373 C160.835318,30.5259709 163.50882,29.7560239 164.958034,26.7087639 C165.284309,26.0233232 166.105216,24.2480185 166.558768,23.2909501 C167.374287,21.5693002 168.950778,19.1581855 170.584847,17.4938792 C172.837458,15.1994638 175.287046,14.1699614 178.002638,13.9234845 C176.535242,14.308458 175.568538,15.1555339 175.754067,16.0391622 C177.825527,15.1739778 179.813481,14.8094601 180.843486,17.2494143 C181.869451,19.6900392 181.348556,27.9240462 171.706102,38.4283239 C171.81284,37.8508636 172.066722,36.8438292 172.077833,35.7774391 C169.57033,39.32939 164.461045,44.6683827 161.30638,47.1083368 C161.439718,46.4772217 161.964654,44.3913895 162.218536,43.5181569 C160.537327,45.2652928 155.816272,49.2558721 155.816272,49.2558721 L156.794087,46.2817169 C156.794087,46.2817169 156.274539,46.9674929 155.700443,47.6452207 C150.436606,53.8651588 135.888242,61.4006468 131.472249,63.6796364 L133.407676,60.5549123 C133.068269,60.7413629 132.575658,60.9985708 131.960146,61.3060801 L133.91948,57.9868571 L123.659494,62.7936608 L129.186977,62.6337023 C127.629678,63.3536832 125.761931,64.1766145 123.693165,65.0230197 C118.613511,66.8000012 113.092762,68.2208486 106.451769,69.4632936 C105.269232,69.6842845 104.071207,69.8727472 102.861733,70.0377358 C103.794092,69.4368016 105.327147,67.4374878 106.299238,66.3767985 C96.0416086,67.8067002 86.5675109,68.3167566 77.8816588,67.9716889 C94.2486111,68.023667 123.875327,59.5837595 135.918546,51.3852989 C145.921283,44.5771694 144.270715,42.9836205 133.551116,47.753201 C109.706438,58.3654592 90.4040205,58.9549918 90.4040205,58.9549918 L77.1981311,50.9848996 C77.1981311,50.9848996 99.3609267,48.0942447 114.697874,39.9236175 C127.889958,32.8944971 123.371604,32.5195839 110.283901,37.1882263 C90.6373627,44.1958847 69.4331894,45.4413478 59.6685083,44.17174 C68.3567174,43.8625539 83.5865895,41.8766539 89.533617,39.8860591 C88.0305295,39.4296575 84.1802148,37.7385238 82.3383939,37.3069376 C85.6361624,37.5222277 122.40288,26.2858966 132.463196,13.1320755 C132.502254,13.5445471 132.567913,13.990553 132.665897,14.4640571 C133.864932,19.8919155 140.881697,23.0441378 146.724344,22.8476269 C151.725881,22.6796202 156.556031,21.3050501 161.406384,18.4278089 C160.501972,19.4402088 160.457189,20.8325521 160.762925,21.8513235 C161.034652,22.7614439 161.626594,23.4294467 161.971052,23.4951739 C162.157254,23.7611007 162.374771,23.9814209 162.622255,24.1527811" id="path28" fill="#6F4705" transform="translate(120.441989, 41.584906) scale(-1, 1) rotate(-180.000000) translate(-120.441989, -41.584906) "></path>
                <path d="M157.455354,56.8944021 C154.43651,57.0461375 151.815011,55.647211 150.266669,53.7187246 C149.026107,52.1741187 148.87238,49.7799963 149.638083,48.1509434 C149.369061,49.8950595 150.166682,51.477347 151.130406,52.6797912 C152.379762,54.2365091 154.954687,55.2448262 157.498671,55.3205257 C160.413293,55.4066549 163.875079,54.437365 165.745856,51.9234693 C164.384136,54.804087 161.804651,56.6740325 157.455354,56.8933928 L157.455354,56.8944021" id="path30" fill="#FFFFFF" transform="translate(157.458564, 52.528302) scale(-1, 1) rotate(-180.000000) translate(-157.458564, -52.528302) "></path>
                <path d="M157.455516,56.8943048 C154.436358,57.0467391 151.813191,55.6475283 150.265082,53.71886 C149.027098,52.1740402 148.87235,49.7796183 149.637283,48.1509434 C149.369305,49.8946754 150.16632,51.4775225 151.130664,52.6800962 C152.379656,54.2375918 154.953442,55.2461287 157.497348,55.3205582 C160.413027,55.4076636 163.873469,54.4378041 165.745856,51.9231248 C164.38269,54.8050766 161.802613,56.6745913 157.455516,56.8943048" id="path32" fill="#E9A411" transform="translate(157.458564, 52.528302) scale(-1, 1) rotate(-180.000000) translate(-157.458564, -52.528302) "></path>
                <path d="M87.0270853,29.2275367 C57.8969661,31.2574169 34.6801493,23.5242237 19.8895028,8.72959617 L20.1676651,5.47169811 C34.4392768,21.4813995 57.7064854,30.2653777 87.2928177,28.9178771 C87.2027844,29.020765 87.1127512,29.1239849 87.0270853,29.2275367" id="path34" fill="#E9A411" transform="translate(53.591160, 17.509434) scale(-1, 1) rotate(-180.000000) translate(-53.591160, -17.509434) "></path>
                <path d="M7.73480663,109.433962 C7.93512218,107.839916 11.6340535,103.621451 18.0141798,99.3772508 C26.2118508,93.9216984 30.4498034,93.1435731 32.0441989,93.0188679 C26.1454314,95.7025603 22.2098356,97.8873998 18.1850197,100.597278 C12.5132015,104.41512 8.86657957,107.949561 7.73480663,109.433962" id="path36" fill="#E9A411" transform="translate(19.889503, 101.226415) scale(-1, 1) rotate(-180.000000) translate(-19.889503, -101.226415) "></path>
                <path d="M177.881566,52.5283019 C177.454469,52.9667125 177.055024,53.3991584 176.633591,53.8584458 C175.120098,55.4997519 173.40405,57.3607603 169.805713,60.0528602 C169.794053,60.0608132 168.675673,60.8809692 168.582059,60.9180833 C168.645024,60.9313384 168.702325,60.9323325 168.758294,60.9323325 L168.812264,60.9329953 C169.777062,60.9329953 170.324425,61.4081887 170.902105,61.9108863 L170.93542,61.939716 C170.428034,62.3675226 169.935974,62.8456984 169.477895,63.340443 C169.178728,63.2184966 168.864902,63.1614999 168.53242,63.1614999 C168.205934,63.1614999 167.857794,63.2201535 167.497994,63.3361351 C166.238692,63.7417396 165.65968,64.8366064 165.73897,65.7081256 L167.313096,65.5026724 C167.285778,65.5169216 166.923312,66.1786798 166.345633,66.8185671 C166.57917,67.0147418 166.849687,67.1098468 167.128199,67.1098468 C167.166511,67.1098468 167.206489,67.1081899 167.244801,67.1042134 C166.727421,67.9647973 166.23103,68.8154398 165.708653,69.5683265 C165.363511,69.796976 164.456015,70.3377819 163.547519,70.3377819 C163.181389,70.3377819 162.851905,70.2493045 162.568395,70.0756634 C162.356846,71.1327533 161.175835,73.9315563 158.070891,74.2702227 C157.84435,74.2950759 157.619808,74.308331 157.40526,74.308331 C156.003038,74.308331 155.338074,73.7754781 155.332743,73.7708388 L155.338074,73.8208766 C155.773832,74.4849545 156.302206,74.963793 156.866892,75.2070231 C156.580718,75.3508403 156.131634,75.4346785 155.531966,75.4346785 C154.5102,75.4346785 153.418472,75.1944308 153.370166,75.1768679 C153.372165,75.2020525 153.407478,75.2288939 153.451787,75.2623629 C154.61814,76.1527706 155.915753,76.6037736 157.30365,76.6037736 C157.954289,76.6037736 158.621252,76.4993901 159.283551,76.2936055 C159.931192,76.0924602 160.518533,75.7736763 161.035912,75.4933321 L161.166173,75.4220862 C160.658455,76.1053838 160.365618,76.5033666 160.338299,76.5215923 L160.348294,76.5215923 C160.806373,76.5215923 163.419923,75.7640664 164.854127,72.7535141 C165.001712,72.4410263 165.254905,71.8995577 165.528753,71.314016 C165.847243,70.6290615 166.19405,69.8857848 166.435916,69.3761283 C167.199826,67.7646461 168.728311,65.3691278 170.41804,63.6506111 C172.823039,61.2030668 175.581175,60.0637956 179.102222,60.0637956 L179.210162,60.0647898 C182.586622,60.0863292 183.797283,62.3539362 183.801947,62.3771326 C183.822936,62.3628834 183.822936,62.3350478 183.822936,62.2923003 C183.800615,61.1815274 183.493452,60.2705743 182.906111,59.5849571 C183.649698,60.0091186 184.558194,60.9681211 184.798728,61.614636 C185.134541,62.5272459 184.897006,64.299777 184.574185,64.6606456 C184.606168,64.6596515 184.636151,64.6298276 184.677795,64.5880743 C186.482793,62.8155432 186.643371,61.5056133 186.461805,60.7185949 C186.272576,59.8937997 185.874464,58.9510345 184.3673,58.207095 C183.181292,57.6218847 181.831707,57.3253031 180.356526,57.3253031 C179.065575,57.3253031 177.717323,57.5513016 176.345085,57.995677 C176.269127,58.0201989 176.222819,58.0357736 176.205162,58.0374304 C176.215157,58.057313 176.261131,58.0589699 176.340754,58.0589699 L176.372403,58.0589699 C176.660909,58.0589699 177.706329,58.0771956 179.031927,58.3187688 C177.133314,58.3827244 175.213712,59.0090253 173.326093,60.1559182 L173.050912,60.146971 C172.758075,60.1410063 172.47823,60.133716 172.207381,60.133716 C171.67401,60.133716 171.256908,60.1605575 170.852799,60.2182169 C174.38284,57.3180128 176.68423,54.8002168 177.900222,52.5425511 L177.881566,52.5283019" id="path38" fill="#15356F" transform="translate(169.944751, 64.566038) scale(-1, 1) rotate(-180.000000) translate(-169.944751, -64.566038) "></path>
                <path d="M179.005525,45.9622642 C176.699498,46.5002323 175.395188,47.9794814 173.837641,50.3068639 L172.712028,51.9606421 C168.842327,57.4730185 165.848066,59.3814001 163.535912,60.1886792 C165.054996,60.1033757 169.780395,58.4554804 173.874742,52.6388219 L175.018395,50.9657605 C176.525227,48.7207402 177.213461,46.3799576 179.005525,45.9622642" id="path40" fill="#E9A411" transform="translate(171.270718, 53.075472) scale(-1, 1) rotate(-180.000000) translate(-171.270718, -53.075472) "></path>
                <path d="M177.900552,47.0566038 C175.593062,47.5955401 174.290738,49.0741015 172.732782,51.4014305 L171.606098,53.0558244 C167.735546,58.5690546 164.743195,60.476412 162.430939,61.2830189 C163.950091,61.1986977 168.673655,59.549533 172.768863,53.7349691 L173.911546,52.060312 C175.420826,49.8150164 176.107048,47.4752681 177.900552,47.0566038" id="path42" fill="#15356F" transform="translate(170.165746, 54.169811) scale(-1, 1) rotate(-180.000000) translate(-170.165746, -54.169811) "></path>
                <path d="M135.03312,42.6792453 L137.016575,43.1368427 C129.326444,49.0317152 119.379928,54.4043844 109.163842,58.2984816 C105.965307,59.5169561 100.52316,61.4306975 97.2375691,62.3773585 C100.118133,61.4266806 103.381539,60.2590874 105.576751,59.4212188 C117.037159,55.0511132 126.813262,49.5371813 135.03312,42.6792453" id="path44" fill="#E9A411" transform="translate(117.127072, 52.528302) scale(-1, 1) rotate(-180.000000) translate(-117.127072, -52.528302) "></path>
                <path d="M162.344545,67.096793 C160.966017,68.4898952 160.489275,70.353219 161.832327,72.7735849 C161.488371,72.7238786 160.883237,72.0564886 160.605504,71.1455376 C160.297363,70.137825 160.344327,68.7619544 161.251521,67.7615321 C156.384774,70.604733 151.536948,71.9630407 146.519171,72.1293911 C140.655694,72.3232457 133.613372,69.2086484 132.412228,63.8456691 C131.887509,61.3726145 132.327084,59.6415094 132.327084,59.6415094 C132.327084,59.6415094 132.522375,61.0839865 132.722397,61.6814564 C133.582964,66.2110266 139.779585,70.5162557 146.828665,70.3754212 C153.193548,70.2485044 156.060076,68.9939172 165.001254,64.5064316 L166.40884,64.1965956 C165.048218,65.2854951 163.695368,66.2454897 162.344545,67.096793" id="path46" fill="#15356F" transform="translate(149.281768, 66.207547) scale(-1, 1) rotate(-180.000000) translate(-149.281768, -66.207547) "></path>
                <path d="M128.233329,18.604755 L129.281768,19.3830188 C120.582772,23.6763918 110.671307,26.9284811 99.8443184,28.8484603 C96.4551562,29.4494147 90.7174916,30.3169875 87.2928177,30.6415094 C90.3184085,30.2427269 93.7623601,29.7019661 96.0892173,29.2887894 C108.23318,27.1326159 118.832556,23.7261169 128.233329,18.6037736 L128.233329,18.604755" id="path48" fill="#6F4705" transform="translate(108.287293, 24.622642) scale(-1, 1) rotate(-180.000000) translate(-108.287293, -24.622642) "></path>
                <path d="M109.982842,22.9811321 C110.289698,23.2142675 111.142931,23.7841878 111.60221,23.9969581 C97.6040883,29.4256392 72.9742147,29.8539153 57.4585635,25.5006359 C60.9797012,26.3176736 64.0037055,26.8061334 66.5044468,27.1575082 C78.0386766,28.7794255 100.953038,26.4386487 109.982842,22.9811321" id="path52" fill="#15356F" transform="translate(84.530387, 25.716981) scale(-1, 1) rotate(-180.000000) translate(-84.530387, -25.716981) "></path>
                <polyline id="path54" fill="#E9A411" fill-rule="nonzero" transform="translate(95.027624, 69.490566) scale(-1, 1) rotate(-180.000000) translate(-95.027624, -69.490566) " points="60.937981 110.528302 56.0392468 90.0580707 60.8754885 90.0580707 50.9665471 49.6330579 46.1765836 49.6330579 40.8839779 28.4528302 133.703539 28.4528302 138.915074 49.6226955 127.49753 49.6226955 116.693426 75.5375709 133.809946 90.0440313 144.150592 90.0440313 149.171271 110.519945 60.937981 110.528302 60.937981 110.528302"></polyline>
                <polyline id="path56" fill="#FFFFFF" fill-rule="nonzero" transform="translate(95.027624, 68.943396) scale(-1, 1) rotate(-180.000000) translate(-95.027624, -68.943396) " points="114.208474 75.4109161 125.902676 47.0394495 136.058722 47.0394495 131.881671 29.5471698 43.6464088 29.5471698 47.9028984 47.0501756 52.6990327 47.0501756 63.4074608 91.3136589 58.5117772 91.3136589 62.660673 108.339623 146.40884 108.331243 142.136932 91.3056144 132.712255 91.3056144 114.208474 75.4109161 114.208474 75.4109161"></polyline>
                <polyline id="path58" fill="#15356F" fill-rule="nonzero" transform="translate(95.027624, 68.943396) scale(-1, 1) rotate(-180.000000) translate(-95.027624, -68.943396) " points="140.012293 94.391491 142.541436 105.056604 101.914817 105.056604 99.2610515 94.391491 103.915497 94.391491 85.5789544 79.0063577 89.3256839 94.391491 92.6362381 94.3918255 95.2893295 105.056604 65.1901978 105.056604 62.64354 94.391491 67.6792604 94.391491 55.3232037 43.9177388 50.3090395 43.9177388 47.5138122 32.8301887 79.2923032 32.8301887 82.0225252 43.9177388 76.9436925 43.9177388 78.1993387 48.9173553 92.1404465 60.7620551 99.2071611 43.9438255 91.471532 43.9438255 88.7365946 32.8301887 129.773792 32.8301887 132.511424 43.9438255 124.018635 43.9438255 110.626872 76.3154142 132.050324 94.391491 140.012293 94.391491 140.012293 94.391491"></polyline>
            </g>
        </g>
    </g>
</svg>