<svg width="200" height="200" xmlns="http://www.w3.org/2000/svg"><g fill-rule="nonzero" fill="none"><path d="M192.764 163.438c.998 0 1.882.076 1.882 1.126 0 1.127-1.543.938-2.67.938h-1.278v-2.064h2.066Zm.866 3.267c1.105-.036 2.214-.64 2.214-2.272 0-1.747-1.352-2.199-2.854-2.199h-3.493v8.302h1.201v-3.83h1.541l2.122 3.83h1.372l-2.103-3.83Zm-1.28 7.008c4.134 0 7.403-3.267 7.403-7.382s-3.269-7.383-7.403-7.383c-4.131 0-7.398 3.268-7.398 7.383s3.267 7.382 7.398 7.382Zm0-13.565c3.383 0 6.2 2.69 6.2 6.183 0 3.474-2.817 6.179-6.2 6.179-3.378 0-6.197-2.705-6.197-6.18 0-3.492 2.819-6.182 6.197-6.182Z" fill="#2350A9"/><path d="M172.63 167.198h-48.859v-13.03h4.885l-19.54-19.542H81.43v19.542h9.77v13.03H45.6v-13.03h9.773V95.542h-9.773v-13.03h45.603v13.03H81.43v19.541h27.684l19.544-19.541h-4.888v-13.03h48.86v13.03H159.6l-28.5 28.5 30.128 30.126h11.402v13.03Zm-143.314-55.37-13.03-13.03V46.682H6.513V33.655h45.602v13.027h-9.771v52.116h9.771v13.03h-22.8Zm65.142-13.03V46.682h-9.771V33.655h45.598v13.027h-9.77v52.116l-13.03 13.03H84.688v-13.03h9.771Zm41.528 25.243 25.243-25.243h14.657V79.254h-52.115V49.942h9.774V30.398H81.427v19.544h9.775v29.312H45.599V49.942h9.773V30.398H3.256V49.94h9.774v50.484l14.657 14.66h24.428v35.829h-9.774v19.544h52.117v-19.544h-9.771v-13.03h22.799l13.03 13.03h.002v19.544h55.368v-19.544H162.86l-26.873-26.872Z" fill="#FEFFFF"/><path fill="#2350A9" d="M52.115 98.798h-9.771V46.682h9.771V33.655H6.513v13.027h9.773v52.116l13.03 13.03h22.8v-13.03M84.687 111.828h22.799l13.03-13.03V46.682h9.769V33.655H84.687v13.027h9.771v52.116h-9.771v13.03"/><path fill="#3157AF" d="m131.101 124.041 28.5-28.5h13.03v-13.03h-48.86v13.03h4.888l-19.544 19.542H81.431V95.542h9.77v-13.03H45.6v13.03h9.773v58.626h-9.773v13.03h45.603v-13.03H81.43v-19.542h27.684l19.54 19.542h-4.884v13.03h48.86v-13.03h-11.402L131.1 124.041"/><path d="M175.886 170.457h-55.368v-19.544h-.003l-13.03-13.03H84.688v13.03h9.771v19.544H42.341v-19.544h9.774v-35.83H27.687L13.03 100.424V49.94H3.257V30.398h52.115v19.544h-9.773v29.312h45.603V49.942h-9.775V30.398h52.118v19.544h-9.774v29.312h52.115v19.544H161.23l-25.243 25.243 26.873 26.872h13.027v19.544Zm-11.4-22.802-23.613-23.614 21.984-21.984h16.287l-.002-26.06-52.113.001v-22.8h9.772V27.138H78.171v26.058h9.772v22.801H48.856v-22.8h9.775V27.138H0v26.058h9.773v48.856h.004l-.004.004 16.284 16.283h22.802v29.315h-9.775v26.058h58.63v-26.058h-9.77v-6.517h17.912l11.402 11.404v21.171h61.886v-26.058H164.486Z" fill="#2350A9"/></g></svg>