<svg width="200" height="200" xmlns="http://www.w3.org/2000/svg"><g fill="none"><path d="M192.764 163.37c.998 0 1.882.076 1.882 1.119 0 1.119-1.543.931-2.67.931h-1.278v-2.05h2.066zm.866 3.246c1.105-.036 2.214-.636 2.214-2.258 0-1.735-1.352-2.183-2.854-2.183h-3.493v8.245h1.201v-3.804h1.541l2.122 3.804h1.372l-2.103-3.804zm-1.28 6.96c4.134 0 7.403-3.246 7.403-7.332 0-4.087-3.269-7.332-7.403-7.332-4.131 0-7.398 3.245-7.398 7.332 0 4.086 3.267 7.332 7.398 7.332zm0-13.473c3.383 0 6.2 2.672 6.2 6.14 0 3.452-2.817 6.138-6.2 6.138-3.378 0-6.197-2.686-6.197-6.137 0-3.47 2.819-6.141 6.197-6.141z" fill="#2350A9"/><path d="M172.63 167.105h-48.859v-12.94h4.885l-19.54-19.41H81.43v19.41h9.77v12.94H45.6v-12.94h9.773v-58.23H45.6v-12.94h45.603v12.94H81.43v19.41h27.684l19.544-19.41h-4.888v-12.94h48.86v12.94H159.6l-28.5 28.307 30.128 29.922h11.402v12.941zM29.317 112.111l-13.03-12.94V47.408H6.513V34.47h45.602v12.94h-9.771v51.76h9.771v12.941h-22.8zm65.142-12.94V47.408h-9.771V34.47h45.598v12.94h-9.77v51.76l-13.03 12.941H84.688v-12.94h9.771zm41.528 25.07l25.243-25.07h14.657V79.758h-52.115V50.646h9.774v-19.41H81.427v19.41h9.775V79.76H45.599V50.646h9.773v-19.41H3.256v19.409h9.774v50.14l14.657 14.56h24.428v35.586h-9.774v19.411h52.117v-19.411h-9.771v-12.942h22.799l13.03 12.942h.002v19.411h55.368v-19.411H162.86l-26.873-26.69z" fill="#FEFFFF"/><path fill="#2350A9" d="M52.115 99.17h-9.771V47.41h9.771V34.47H6.513v12.94h9.773v51.76l13.03 12.941h22.8v-12.94m32.571 12.94h22.799l13.03-12.94V47.408h9.769V34.47H84.687v12.94h9.771v51.76h-9.771v12.941"/><path fill="#3157AF" d="M131.101 124.242l28.5-28.306h13.03V82.994h-48.86v12.942h4.888l-19.544 19.409H81.431v-19.41h9.77v-12.94H45.6v12.94h9.773v58.23H45.6v12.94h45.603v-12.94H81.43v-19.41h27.684l19.54 19.41h-4.884v12.94h48.86v-12.94h-11.402L131.1 124.241"/><path d="M175.886 170.342h-55.368v-19.411h-.003l-13.03-12.942H84.688v12.942h9.771v19.411H42.341v-19.411h9.774v-35.586H27.687l-14.657-14.56v-50.14H3.257v-19.41h52.115v19.411h-9.773V79.76h45.603V50.646h-9.775v-19.41h52.118v19.41h-9.774V79.76h52.115v19.41H161.23l-25.243 25.072 26.873 26.689h13.027v19.411zm-11.4-22.647l-23.613-23.453 21.984-21.835h16.287l-.002-25.883-52.113.002V53.88h9.772V28h-58.63v25.88h9.772v22.646H48.856V53.88h9.775V28H0v25.88h9.773v48.523h.004l-.004.004 16.284 16.172h22.802v29.116h-9.775v25.88h58.63v-25.88h-9.77v-6.472h17.912l11.402 11.325v21.028h61.886v-25.88h-14.658z" fill="#2350A9"/></g></svg>