<svg width="200" height="200" xmlns="http://www.w3.org/2000/svg"><g fill="none" fill-rule="evenodd"><path d="M82.06 50.563c-20.285-.136-39.538 5.015-52.8 17.304-.07-.821-.662-6.403-.662-6.403l-5.513 6.895-1.001 1.246c-4.65 5.825-9.67 13.017-11.641 22.191-.514 2.392-.777 4.712-.777 7.042 0 4.36.931 8.759 2.864 13.722-1.617-.32-3.53-.701-3.53-.701l2.581 4.933c7.9 15.097 21.783 25.974 40.407 32.16 7.466 2.48 11.673 2.8 14.057 3.048-14.36-5.206-24.078-15.474-30.21-25.136l2.486.508-1.82-4.583c-1.52-3.82-2.247-8.84-2.247-12.888 0-2.07.178-3.889.562-5.155 1.902-6.264 17.501-13.154 26.795-11.97-.841.098-2.868.492-2.868.492s8.05.346 14.838 2.015c6.789 1.667 15.035 4.078 22.256 7.25 3.21 1.413 12.766 6.197 19.84 10.981l-1.205-2.06s.557.116 2.094 1.148c2.364 1.586 4.78 4.604 4.968 5.179.02.392-.28.506-2.007.878-2.282.49-4.677.9-4.677.9s2.295 2.313 5.82 3.485c3.523 1.171 5.848 1.268 8.064 1.033 1.932 2.877 5.486 6.055 12.017 7.758 9.79 2.555 18.057.315 23.96-2.124 1.245 2.64 1.91 5.131 1.91 7.207 0 .679-.069 1.314-.212 1.896-.524 2.141-4.517 5.54-7.15 6.55-2.632 1.008-3.347 1.256-4.184 1.546.972.82 3.442 2.02 4.555 2.423 1.493.54 3.309.875 4.287 1.043 4.503.773 9.07.38 13.048-.902 5.1-1.646 8.865-4.862 10.886-9.297a23.491 23.491 0 0 0 2.149-9.83c0-8.024-3.997-14.642-6.1-17.566 1.148-1.138 1.796-2.617 1.852-4.307.002-.078.005-.158.005-.238 0-4.574-4.295-9.694-8.638-12.867-1.2-5.12-4.28-10.199-9.669-15.878-2.546-2.686-5.629-5.294-8.89-8.055-2.98-2.52-12.795-9.298-15.421-12.922 0 0 1.811 4.028 2.356 5.235-6.584-4.463-17.403-9.786-24.099-12.421l-9.096-3.58 4.022 5.155c-7.52-2.386-15.997-4.152-19.195-4.578l.099.015c-6.717-.985-17.141-1.514-20.393-1.288.805.536 2.894 1.945 5.226 3.511" fill="#FFF"/><path d="M128.356 110.322s-.597 1.731-.245 4.571c.349 2.84.734 3.81.734 3.81l.738 1.834 1.508.588L136 124l-2.176-1.732s-2.454-2.216-3.225-4.605c-.77-2.39-1.262-5.505-1.157-7.099.106-1.592-.56.693-.56.693l-.526-.935" fill="#E9A411"/><path d="M50.822 149.517c-18.758-7.288-31.463-19.168-38.57-32.973l.09.02a.85.85 0 0 1-.044-.098L10 116c7.132 13.775 19.81 25.622 38.469 32.877 3.957 1.54 6.954 2.476 9.531 3.123-2.039-.6-4.368-1.392-7.178-2.483" fill="#FFF"/><path d="M17.029 118.473c-4.2-8.797-5.71-15.798-3.966-23.922 1.968-9.169 7.231-16.26 11.16-21.186L23.921 70c-3.708 4.786-10.929 12.88-13.25 24.056-1.685 8.111-.146 15.096 4.071 23.874l-3.064-.61c7.18 13.654 19.943 25.396 38.726 32.587C54.39 151.433 57.405 152.36 60 153c-2.053-.593-4.397-1.378-7.226-2.46-18.884-7.222-31.674-18.997-38.83-32.68l3.085.613" fill="#E9A411"/><path d="m33.89 123.817.584.12-.048-.121h-.536zm.536-.008c-2.434-6.227-2.99-15.325-1.718-19.675.788-2.7 2.029-5.447 3.776-7.562 1.163-1.408 2.851-2.756 4.335-3.521l-.953 1.49-3.05 4.397c4.86-4.559 18.038-9.864 32.138-8.935 1.21.08 2.423.2 3.633.37l-5.603 1.241-1.349.298c1.401-.1 3.644.113 6.38.583 6.285 1.082 18.154 4.555 25.373 7.73 4.05 1.782 9.821 4.419 16.688 9.067-.741-1.373-1.389-2.76-2.12-4.003 3.57 2.706 7.931 6.218 8.956 7.293 2.437 2.566 4.564 5.062 4.456 6.558-.106 1.497-3.27 1.345-3.43 1.512 4.037 1.247 7.255 1.237 8.525.446-1.79-2.055-2.498-4.187-2.78-7.013-1.26-1.78-8.831-11.71-27.788-17.56 0 0 1.512 1.09 3.73 2.71-3.413-1.595-7.491-3.296-11.373-4.642-3.084-1.07-10.81-3.225-15.446-4.2l5.069-1.25c-9.044-4.38-28.185-2.842-36.91 1.432l3.807-5.004C37.6 87.847 32.075 95.436 30.134 100.5c-2.11 5.514-2.422 13.633-.06 21.185l-3.38-.687c.345.955.733 1.89 1.162 2.81l.003.008c2.476 5.303 6.334 10.07 11.458 15.016-6.232-3.744-12.12-9.392-16.533-15.018l-.004-.006c-1.569-2.004-2.952-4.003-4.096-5.912l2.952.594c-4.616-8.453-6.875-15.043-4.57-24.064.009-.037.1-.387.108-.423 1.199-4.622 4.971-11.24 8.041-15.247l.968 5.52c19.74-24.225 44.493-29.607 74.043-24.457-.618-.69-2.028-3.14-3.779-4.74 12.257.026 30.78 8.844 34.19 10.722l-2.683-4.341c9.169 4.084 18.627 9.246 24.645 14.6-.325-.864-.862-2.833-1.084-3.395 1.048.799 8.762 7.382 12.971 11.305 6.59 6.146 9.525 12.955 10.923 17.236.095-.06-.197-2.225-.216-2.667 3.524 3.6 7.37 8.648 4.993 12.784a6.042 6.042 0 0 1-.327.512l-2.08-1.188.547.78c.615.875 4.005 5.907 5.518 12.382l.001.007c1.04 4.447 1.193 9.573-1.05 14.5-2.073 4.558-6.694 7.33-11.541 8.258-2.487.476-5.556.722-7.386.426.58.093 5.52-2.137 7.51-5.984 1.474-2.85 1.141-7.449-.09-10.74-.714-1.917-1.644-3.922-2.74-5.65-.366-.577-.534-.818-.534-.818-5.89-8.643-15.435-12.9-20.064-14.027-6.11-1.488-10.747.378-11.992 4.369 0 0-.15 1.018-.124 1.477.025-.031.054-.062.087-.094.47-.12 1.09-.176 1.774-.187 1.31-.022 2.862.115 4.07.254 1.92.221 5.606.89 7.329 1.22-1.524-.8-5.969-2.065-7.699-2.249l-.764-.079c-1.042-.102-1.978-.16-2.757-.062.103-.046.164-.07.164-.07l.485-.618c1.996-2.112 5.699-2.269 8.93-1.475 3.704.91 10.342 3.77 15.37 9.237-2.919 1.202-10.058 3.304-18.024.701-6.754-2.207-7.142-6.321-7.127-6.507-.023.24-1.65 5.352 5.94 8.11 0 0 .174.072.594.213 7.21 2.421 12.88 1.051 16.207-.207l.01-.006a29.67 29.67 0 0 0 2.414-1.052l.767-.367c.385.456.757.929 1.116 1.418 0 0 .22.29.695 1.004-5.17 2.326-13.218 4.688-22.975 2.14-2.98-.778-5.304-1.91-7.112-3.136l-.01-.007c-4.44-3.01-5.738-6.566-5.762-6.752l.04.965c.018.18.24 2.916 2.633 5.786l.007.009c1.77 2.123 4.726 4.322 9.675 5.613 10.437 2.725 19.064-.472 24.511-2.985 2.19 3.814 4.115 8.93 3.074 13.186-.656 2.687-3.868 5.714-7.484 7.524.475.22 1.84.546 2.737.698 7.259 1.227 17.379-.284 21.162-8.593 2.504-5.506 2.212-10.907.893-15.445l-.001-.006c-1.261-4.337-3.46-7.882-5.054-9.97-.013-.654-.266-2.044-.143-2.116 4.848-2.804-.015-10.377-6.37-14.635-.866-4.822-3.68-9.795-9.24-15.66-4.733-4.996-11.346-9.675-18.616-16.694.245.711 1.454 4.629 1.362 4.534-3.718-3.787-19.158-11.965-27.85-15.39.726.932 2.379 3.166 3.589 4.952-7.202-3.705-22.164-7.12-27.237-7.795-3.402-.585-6.853-.663-10.576-.835 1.506 1.013 3.582 2.653 4.77 3.616-25.867-2.907-49.956 6.17-63.867 21.93l-.252-2.978-.364-4.313c-.673.857-1.465 1.827-2.325 2.903-3.914 4.91-9.16 11.978-11.12 21.116-1.738 8.098-.232 15.076 3.952 23.841l-3.057-.608a61.301 61.301 0 0 0 5.078 8.1l.007.01c7.514 10.143 18.641 18.74 33.612 24.471 2.82 1.079 5.156 1.858 7.201 2.451a61.839 61.839 0 0 0 6.214 1.461c-18.623-6.758-29.648-16.913-35.04-28.382l-.004-.009c-.086-.182-.17-.365-.253-.547l2.674.547h.532z" fill="#15356F"/><path d="M176.807 112.137a6.53 6.53 0 0 1-3.64.541c-2.526.285-4.702-.575-4.83-.597.02.004 1.109.033 2.575-.236-1.795-.083-3.56-.704-5.194-1.706-.83.018-1.518.049-2.261-.059 2.439 2.037 4.206 3.837 5.397 5.463 3.096 3.664 5.472 7.323 5.472 7.323s-3.286-3.666-4.998-5.382c-3.04-3.045-7.335-6.058-11.458-8.535-7.818-4.004-10.404-5.131-16.059-5.246-5.747-.117-10.86 3.122-12.34 6.826-.55 2.179-.258 4.967.832 7.504l-.038-.919c.033.263 1.875 7.168 12.151 9.86 9.747 2.554 17.784.186 22.948-2.147a26.587 26.587 0 0 0-1.807-2.418l-.766.368c-2.35 1.13-9.131 4.369-18.61 1.26-3.493-1.146-5.199-2.77-6.006-4.28-1.173-1.223-1.897-2.658-1.95-4.286-.11.02-.218.04-.317.065a1.116 1.116 0 0 0-.087.094c-.025-.46.123-1.481.123-1.481 1.245-4.001 5.876-5.87 11.977-4.38 4.767 1.166 14.748 5.663 20.571 14.875 1.096 1.732 2.024 3.742 2.738 5.662 1.23 3.3 1.562 7.91.089 10.767-1.99 3.856-6.922 6.091-7.5 5.998 1.827.297 4.891.05 7.376-.427 4.842-.93 9.457-3.709 11.527-8.278.389-.857.702-1.72.956-2.583 1.602-10.084-5.954-24.06-6.873-23.646h.002" fill="#E9A411"/><path d="M178.705 105.297c-1.48-2.916-3.502-3.39-3.502-3.39l-.086 3.416s-.782-2.949-1.214-4.393c-1.488-4.978-5.873-11.662-10.963-16.387.343.719.588 1.43.565 2.026-2.747-3.385-10.62-9.81-10.62-9.81l.97 2.971s-.516-.684-1.085-1.362c-5.215-6.213-19.63-13.74-24.008-16.016l1.918 3.121a44.663 44.663 0 0 0-1.437-.75l1.943 3.316-10.168-4.803 5.478.16a135.753 135.753 0 0 0-5.444-2.386c-5.034-1.774-10.504-3.194-17.085-4.435-1.17-.22-2.36-.41-3.557-.575 1.07.697 2.94 3.268 3.815 4.081-21.467-3.015-39.137-1.549-52.98 3.716-9.143 4.246-17.548 10.848-25.2 20.296l-.228-1.308-.03.04-.742-4.255c-3.07 4.042-6.827 10.684-8.024 15.327l-.109.426c-1.048 4.129-1.151 7.753-.522 11.275.87 3.793 2.57 7.525 4.841 11.711l-.467-.093c.236.448.477.902.726 1.36l-2.356-.475C23.1 124.29 29.32 131.172 36.187 136c-4.453-4.778-7.7-9.525-9.63-14.895l.249.05a32.51 32.51 0 0 1-.508-1.318l3.273.669a36.778 36.778 0 0 1-.622-2.722c-1.541-6.788-1.119-13.732.796-18.605 1.56-3.967 7.844-12.899 18.387-15.66l-1.566 2.393a28.66 28.66 0 0 1 2.108-.514l-2.486 3.287c8.672-3.614 20.935-4.835 35.84-.447l-1.488.203c.449.174.885.358 1.294.558l-2.547.63c4.513 1.097 10.154 2.712 12.684 3.594 2.688.939 5.977 2.482 9.21 4.158-.815-.595-1.295-.943-1.295-.943 4.75 1.475 7.926 4.572 11.329 6.369l-.584-1.071c4.88 2.688 9.286 4.22 11.094 6.115l.046.047c3.55 2.986 5.386 5.434 5.95 6.237.158 1.578.444 2.94.974 4.194-1.486-6.833.065-8.836.61-10.057.154-.345.37-.66.608-.938 2.251-3.465 7.338-5.4 11.702-5.254 4.524.155 8.894 1.408 13.281 4.032-.817-.924-.86-2.194-.582-3.123.04-.133.089-.26.141-.38a3.29 3.29 0 0 1 .223-.769c.25-.562.75-.92 1.263-1.15-.311-1.044-1.407-3.256-4.022-3.544-1.682-.185-2.485.436-2.513.464.026-.028.543-.93 1.418-1.307-.884-.513-3.148-.014-3.207.007.102-.038 2.193-2.018 5.407-1.01.638.201 1.203.522 1.718.803-.446-.642-.732-1.032-.747-1.033.383.01 2.803.712 4.114 3.49.296.626 1.038 2.245 1.448 3.118.738 1.568 2.164 3.767 3.643 5.285 2.4 2.465 5.047 3.332 8.045 3.312 3.067-.02 4.191-2.062 4.208-2.143-.016.076.074 1.493-.838 2.567.681-.367 1.523-1.248 1.749-1.862.307-.84.098-2.478-.208-2.82.16.178 2.107 1.904 1.708 3.642-.071.314-.179.69-.432 1.078.281.194.624.434 1.004.696l-.53-.762 1.73.995c.645-.744.49-3.57-.93-6.369" fill="#E9A411"/><path d="M156.173 100.93c-.218-.925-1.278-3.445-4.08-3.754-1.682-.185-2.486.437-2.512.465.026-.028.542-.93 1.416-1.31-.881-.514-3.147-.014-3.206.007.102-.038 2.193-2.022 5.408-1.012.64.201 1.204.523 1.72.805-.446-.643-.733-1.036-.748-1.036.385.01 2.804.714 4.116 3.499.295.626 1.038 2.248 1.449 3.123.738 1.573 2.164 3.776 3.643 5.297 2.039 2.097 4.256 3.038 6.713 3.263-1.328-.352-2.202-1.126-2.035-1.933 1.875.79 3.674 1.123 4.606-1.106.929-2.23.457-9.755-8.269-19.354.097.528.326 1.448.336 2.423-2.269-3.246-6.893-8.125-9.748-10.354a72.5 72.5 0 0 0 .826 3.28c-1.522-1.596-5.794-5.243-5.794-5.243l.885 2.718s-.47-.627-.99-1.246c-4.764-5.684-17.93-12.57-21.927-14.652l1.752 2.855c-.307-.17-.753-.405-1.31-.686l1.773 3.033-9.285-4.392 5.002.146c-1.41-.658-3.1-1.41-4.972-2.184-4.597-1.623-9.593-2.922-15.603-4.057a66.37 66.37 0 0 0-3.25-.525c.845.55 2.232 2.376 3.112 3.345-9.283-1.306-17.857-1.772-25.718-1.457 14.812-.048 41.624 7.665 52.523 15.156 9.053 6.222 7.559 7.678-2.142 3.32-21.58-9.698-39.048-10.237-39.048-10.237L78.864 76.41s20.058 2.642 33.938 10.108c11.938 6.423 7.85 6.766-3.995 2.5-17.78-6.404-36.97-7.542-45.807-6.382 7.863.283 21.646 2.097 27.028 3.916-1.36.417-4.845 1.963-6.512 2.357 2.985-.197 36.259 10.071 45.363 22.091.036-.377.095-.784.184-1.217 1.085-4.96 7.435-7.84 12.723-7.661 4.526.154 8.897 1.41 13.287 4.039-.819-.925-.86-2.198-.583-3.129.246-.831.782-1.442 1.094-1.502a2.34 2.34 0 0 1 .59-.6" fill="#6F4705"/><path d="M151.497 91.01a7.842 7.842 0 0 0-6.506 2.902c-1.122 1.412-1.261 3.6-.569 5.088-.243-1.594.479-3.04 1.351-4.138 1.13-1.423 3.461-2.344 5.763-2.414 2.638-.078 5.77.808 7.464 3.105-1.232-2.633-3.567-4.341-7.503-4.542" fill="#FFF"/><path d="M151.497 91.01c-2.732-.139-5.106 1.14-6.507 2.902-1.12 1.412-1.26 3.6-.568 5.088-.243-1.593.479-3.04 1.351-4.139 1.13-1.423 3.46-2.345 5.762-2.413 2.639-.08 5.77.807 7.465 3.105-1.234-2.634-3.569-4.342-7.503-4.543M87.76 52.292C61.397 50.437 40.386 57.504 27 71.023L27.252 74C40.168 59.37 61.224 51.344 88 52.575a13.502 13.502 0 0 1-.24-.283M16 132c.181 1.457 3.529 5.311 9.303 9.19 7.419 4.985 11.254 5.696 12.697 5.81-5.338-2.452-8.9-4.449-12.543-6.925-5.133-3.489-8.433-6.719-9.457-8.075" fill="#E9A411"/><path d="M169.983 117a54.82 54.82 0 0 1-1.13-1.215c-1.37-1.5-2.922-3.2-6.179-5.66-.01-.008-1.023-.758-1.107-.792a.74.74 0 0 1 .16-.013h.048c.873 0 1.369-.434 1.891-.894l.03-.026a15.145 15.145 0 0 1-1.319-1.28 2.22 2.22 0 0 1-.855.163c-.296 0-.61-.053-.936-.16-1.14-.37-1.664-1.37-1.592-2.167l1.424.188c-.024-.013-.352-.618-.875-1.202a1.081 1.081 0 0 1 .814-.261c-.469-.787-.918-1.564-1.39-2.252-.313-.209-1.134-.703-1.956-.703-.332 0-.63.08-.887.24-.191-.967-1.26-3.524-4.07-3.834a5.508 5.508 0 0 0-.602-.034c-1.27 0-1.871.486-1.876.49l.005-.045c.394-.607.872-1.044 1.384-1.267-.26-.131-.666-.208-1.209-.208a9.52 9.52 0 0 0-1.956.236c.002-.023.034-.048.074-.078 1.055-.814 2.23-1.226 3.486-1.226.589 0 1.192.095 1.792.283.586.184 1.117.476 1.586.732l.117.065c-.46-.625-.724-.988-.749-1.005h.01c.414 0 2.779.692 4.077 3.443.134.286.363.78.61 1.316.289.626.603 1.305.822 1.77.69 1.473 2.074 3.662 3.603 5.233 2.177 2.236 4.673 3.277 7.86 3.277h.097c3.056-.02 4.152-2.093 4.156-2.114.019.013.019.039.019.078-.02 1.015-.298 1.847-.83 2.474.673-.388 1.495-1.264 1.713-1.855.304-.834.089-2.454-.203-2.783.029 0 .056.028.093.066 1.634 1.62 1.78 2.817 1.615 3.536-.171.753-.532 1.615-1.896 2.295-1.073.535-2.294.806-3.63.806-1.168 0-2.388-.207-3.63-.613-.068-.022-.11-.037-.126-.038.009-.018.05-.02.122-.02h.029c.261 0 1.207-.017 2.407-.237-1.718-.059-3.456-.631-5.164-1.68l-.249.01c-.265.005-.518.011-.763.011-.483 0-.86-.024-1.226-.077 3.194 2.65 5.277 4.95 6.378 7.014l-.017.013" fill="#15356F"/><path d="M171 102c-2.087-.492-3.267-1.843-4.677-3.97l-1.019-1.511c-3.502-5.037-6.212-6.781-8.304-7.519 1.375.078 5.651 1.584 9.357 6.899l1.035 1.529c1.363 2.051 1.986 4.19 3.608 4.572" fill="#E9A411"/><path d="M170 103c-2.088-.492-3.267-1.844-4.677-3.97l-1.02-1.512c-3.502-5.038-6.21-6.78-8.303-7.518 1.375.077 5.65 1.584 9.356 6.897l1.034 1.53c1.366 2.052 1.987 4.19 3.61 4.573" fill="#15356F"/><path d="m131.205 104 1.795-.418c-6.96-5.387-15.961-10.296-25.207-13.855C104.9 88.614 99.973 86.865 97 86c2.607.869 5.56 1.936 7.547 2.701 10.372 3.994 19.219 9.032 26.658 15.299" fill="#E9A411"/><path d="M155.922 106.687c-1.248-1.273-1.68-2.975-.464-5.187-.311.045-.859.655-1.11 1.488-.279.92-.236 2.178.585 3.092-4.405-2.598-8.792-3.84-13.333-3.991-5.307-.177-11.68 2.669-12.767 7.57-.475 2.26-.077 3.841-.077 3.841s.177-1.318.358-1.864c.779-4.14 6.387-8.073 12.766-7.945 5.76.116 8.354 1.263 16.446 5.363l1.274.284a40.083 40.083 0 0 0-3.678-2.65" fill="#15356F"/><path d="m125.051 75 .949-.712c-7.873-3.923-16.842-6.895-26.64-8.65C96.291 65.09 91.1 64.297 88 64c2.738.364 5.855.859 7.96 1.236 10.991 1.97 20.583 5.083 29.091 9.764" fill="#6F4705"/><path d="M108.534 73c.278-.213 1.05-.734 1.466-.928-12.668-4.96-34.958-5.352-49-1.374a91.557 91.557 0 0 1 8.187-1.514c10.438-1.482 31.175.657 39.347 3.816" fill="#15356F"/><path fill="#E9A411" fill-rule="nonzero" d="m64.149 73-4.433 18.706h4.376l-8.967 36.94H50.79L46 148h84.002l4.716-19.345h-10.333l-9.777-23.68 15.49-13.257h9.358L144 73.008 64.149 73"/><path fill="#FFF" fill-rule="nonzero" d="m112.359 104.09 10.583 25.926h9.191L128.353 146H48.5l3.852-15.994h4.34l9.692-40.448h-4.43L65.707 74l75.792.008-3.866 15.558h-8.53L112.36 104.09"/><path fill="#15356F" fill-rule="nonzero" d="M135.711 86.746 138 77h-36.767l-2.402 9.746h4.213l-16.595 14.059 3.39-14.06h2.997l2.4-9.745H67.998l-2.305 9.746h4.558l-11.183 46.122H54.53L52 143h28.76l2.47-10.132h-4.596l1.136-4.568 12.617-10.824 6.395 15.368h-7L89.307 143h37.138l2.478-10.156h-7.686l-12.12-29.58 19.389-16.518h7.205"/></g></svg>