<svg width="200" height="200" xmlns="http://www.w3.org/2000/svg"><g fill="none" fill-rule="evenodd"><path d="M80.729 45.658c-22.414-.15-43.688 5.488-58.342 18.936-.077-.899-.732-7.008-.732-7.008l-6.092 7.547-1.106 1.363C9.32 72.87 3.772 80.74 1.594 90.78c-.567 2.618-.858 5.157-.858 7.706 0 4.772 1.029 9.586 3.164 15.017-1.786-.35-3.9-.767-3.9-.767l2.852 5.398c8.73 16.522 24.07 28.425 44.648 35.195 8.25 2.714 12.899 3.063 15.533 3.335-15.866-5.697-26.606-16.934-33.38-27.508 1.372.277 2.746.557 2.746.557l-2.012-5.016c-1.678-4.18-2.482-9.674-2.482-14.103 0-2.266.197-4.256.621-5.642 2.101-6.855 19.339-14.395 29.607-13.1-.929.108-3.168.539-3.168.539s8.895.38 16.396 2.205c7.5 1.825 16.613 4.463 24.592 7.935 3.547 1.545 14.106 6.781 21.922 12.017l-1.332-2.256s.617.127 2.314 1.257c2.613 1.736 5.283 5.038 5.49 5.667.023.43-.31.555-2.218.961-2.52.536-5.167.985-5.167.985s2.535 2.532 6.43 3.814c3.893 1.282 6.462 1.388 8.91 1.13 2.136 3.149 6.063 6.627 13.28 8.49 10.817 2.796 19.951.346 26.475-2.324 1.375 2.89 2.11 5.616 2.11 7.887 0 .743-.076 1.439-.234 2.075-.58 2.343-4.992 6.062-7.901 7.167-2.908 1.104-3.698 1.376-4.624 1.693 1.075.896 3.804 2.21 5.034 2.651 1.65.59 3.656.958 4.737 1.142 4.976.846 10.022.416 14.417-.988 5.636-1.8 9.796-5.32 12.029-10.173 1.71-3.718 2.375-7.353 2.375-10.758 0-8.781-4.417-16.023-6.74-19.223 1.268-1.245 1.984-2.864 2.047-4.713.002-.086.005-.173.005-.26 0-5.006-4.746-10.609-9.545-14.081-1.326-5.604-4.73-11.162-10.684-17.377-2.813-2.939-6.22-5.793-9.824-8.814-3.292-2.758-14.137-10.176-17.04-14.142 0 0 2.002 4.409 2.604 5.73-7.275-4.885-19.23-10.71-26.628-13.594l-10.051-3.917s2.478 3.147 4.444 5.64c-8.309-2.61-17.677-4.543-21.21-5.01l.11.017c-7.423-1.077-18.941-1.657-22.534-1.409.89.587 3.197 2.128 5.775 3.843" fill="#FFF"/><path d="M131.885 111.054s-.66 1.895-.27 5.003c.385 3.106.81 4.168.81 4.168l.816 2.007 1.666.644 5.424 3.146-2.403-1.895s-2.713-2.425-3.564-5.04c-.852-2.614-1.395-6.024-1.28-7.768.118-1.743-.618.758-.618.758l-.581-1.023" fill="#E9A411"/><path d="M46.212 153.947c-20.727-7.976-34.766-20.976-42.619-36.084l.1.021a.925.925 0 0 1-.049-.107l-2.539-.51c7.881 15.075 21.89 28.04 42.507 35.98 4.373 1.685 7.684 2.709 10.532 3.417-2.253-.657-4.827-1.523-7.932-2.717" fill="#FFF"/><path d="M8.872 119.974c-4.64-9.627-6.31-17.288-4.382-26.179C6.664 83.761 12.48 76 16.82 70.61l-.334-3.682C12.39 72.166 4.411 81.023 1.846 93.253c-1.862 8.877-.16 16.52 4.5 26.126l-3.387-.666c7.934 14.94 22.036 27.791 42.791 35.66 4.403 1.67 7.736 2.685 10.604 3.385-2.27-.65-4.86-1.508-7.985-2.692-20.866-7.903-35-20.79-42.905-35.763l3.408.671" fill="#E9A411"/><path d="M27.503 125.822l.645.13-.052-.131-.593.001zm.591-.009c-2.688-6.814-3.303-16.77-1.897-21.53.87-2.955 2.241-5.961 4.172-8.276 1.285-1.542 3.15-3.016 4.79-3.853l-1.053 1.63-3.371 4.812c5.371-4.989 19.933-10.795 35.513-9.777 1.336.087 2.677.217 4.014.405l-6.192 1.358-1.49.326c1.549-.11 4.027.123 7.05.637 6.944 1.184 20.06 4.984 28.036 8.46 4.476 1.95 10.852 4.835 18.44 9.922-.819-1.503-1.535-3.02-2.342-4.381 3.944 2.961 8.763 6.805 9.895 7.982 2.693 2.807 5.043 5.539 4.924 7.176-.116 1.638-3.614 1.471-3.79 1.655 4.462 1.364 8.017 1.353 9.42.487-1.978-2.248-2.76-4.581-3.07-7.674-1.394-1.949-9.76-12.814-30.706-19.216 0 0 1.67 1.192 4.122 2.965-3.772-1.746-8.279-3.607-12.567-5.08-3.409-1.17-11.946-3.529-17.068-4.596l5.6-1.368c-9.993-4.793-31.143-3.11-40.783 1.567l4.206-5.476c-12.345 2.491-18.45 10.795-20.594 16.34-2.333 6.033-2.677 14.918-.067 23.182l-3.735-.751c.382 1.044.81 2.068 1.284 3.074l.004.009c2.736 5.803 6.999 11.02 12.66 16.433-6.886-4.098-13.392-10.278-18.268-16.435l-.004-.007c-1.734-2.193-3.262-4.38-4.526-6.47l3.261.65c-5.1-9.25-7.597-16.461-5.05-26.334l.12-.462c1.325-5.059 5.493-12.301 8.886-16.686l1.07 6.04c21.812-26.51 49.162-32.4 81.815-26.764-.684-.755-2.241-3.435-4.176-5.187 13.543.03 34.011 9.679 37.778 11.734l-2.965-4.75c10.132 4.469 20.583 10.118 27.233 15.977-.36-.946-.953-3.1-1.197-3.716 1.157.875 9.681 8.079 14.332 12.372 7.282 6.726 10.525 14.178 12.07 18.862.104-.066-.218-2.434-.24-2.918 3.895 3.939 8.144 9.463 5.518 13.99a6.604 6.604 0 0 1-.361.56l-2.299-1.3.605.853c.68.958 4.426 6.465 6.096 13.55l.002.008c1.149 4.867 1.318 10.477-1.16 15.868-2.29 4.988-7.397 8.022-12.753 9.037-2.748.52-6.14.79-8.16.467.64.101 6.097-2.34 8.296-6.55 1.63-3.117 1.262-8.15-.097-11.753-.79-2.097-1.818-4.291-3.028-6.182-.406-.632-.59-.896-.59-.896-6.51-9.458-17.056-14.116-22.172-15.35-6.751-1.628-11.874.413-13.25 4.78 0 0-.166 1.116-.137 1.618.028-.035.06-.068.097-.103.518-.132 1.204-.193 1.96-.204 1.447-.025 3.162.125 4.497.277 2.12.242 6.194.973 8.098 1.336-1.684-.876-6.596-2.26-8.507-2.462l-.845-.086c-1.15-.112-2.185-.176-3.046-.068.114-.05.181-.077.181-.077l.537-.676c2.205-2.312 6.296-2.483 9.866-1.615 4.094.996 11.429 4.126 16.984 10.109-3.225 1.316-11.114 3.615-19.916.767-7.463-2.415-7.891-6.917-7.875-7.12-.025.26-1.824 5.856 6.563 8.874 0 0 .193.079.657.233 7.966 2.65 14.232 1.151 17.908-.226l.011-.007a32.95 32.95 0 0 0 2.668-1.15l.847-.403c.426.5.837 1.017 1.233 1.552 0 0 .244.317.769 1.099-5.713 2.545-14.606 5.13-25.388 2.342-3.292-.852-5.86-2.091-7.859-3.432l-.01-.008c-4.907-3.293-6.34-7.185-6.367-7.388l.043 1.056c.021.197.265 3.19 2.91 6.331l.008.01c1.957 2.323 5.222 4.73 10.69 6.143 11.533 2.982 21.066-.517 27.085-3.267 2.42 4.174 4.547 9.772 3.396 14.43-.725 2.94-4.274 6.253-8.269 8.234.525.24 2.034.598 3.024.764 8.021 1.342 19.203-.31 23.384-9.404 2.767-6.025 2.444-11.936.986-16.902l-.001-.007c-1.393-4.746-3.824-8.625-5.584-10.91-.015-.716-.294-2.237-.158-2.316 5.357-3.068-.017-11.356-7.038-16.016-.958-5.276-4.067-10.718-10.21-17.137-5.231-5.467-12.538-10.588-20.57-18.269.27.778 1.605 5.066 1.504 4.962-4.109-4.144-21.17-13.094-30.774-16.841a122.156 122.156 0 0 1 3.966 5.419c-7.958-4.055-24.49-7.792-30.095-8.531-3.76-.64-7.573-.726-11.687-.914 1.664 1.108 3.958 2.903 5.271 3.957-28.583-3.181-55.2 6.752-70.572 23.999l-.278-3.26-.403-4.719c-.743.938-1.618 2-2.569 3.178-4.324 5.372-10.12 13.107-12.287 23.107-1.92 8.862-.256 16.499 4.367 26.09l-3.378-.665a66.989 66.989 0 0 0 5.612 8.864l.007.011c8.302 11.1 20.598 20.508 37.141 26.78 3.116 1.18 5.697 2.033 7.957 2.682a68.89 68.89 0 0 0 6.866 1.599c-20.579-7.396-32.76-18.508-38.719-31.06l-.004-.01a35.954 35.954 0 0 1-.279-.599l2.954.6h.587z" fill="#15356F"/><path d="M185.422 113.04a7.28 7.28 0 0 1-4.022.592c-2.79.312-5.195-.63-5.337-.653.023.004 1.225.036 2.846-.258-1.985-.09-3.935-.77-5.74-1.867-.916.02-1.678.053-2.498-.064 2.694 2.229 4.647 4.198 5.963 5.978a90.097 90.097 0 0 1 6.047 8.014s-3.631-4.013-5.523-5.89c-3.359-3.332-8.105-6.63-12.66-9.34-8.64-4.382-11.497-5.616-17.745-5.741-6.35-.128-12.001 3.416-13.636 7.47-.607 2.384-.285 5.435.919 8.211l-.042-1.005c.037.288 2.073 7.844 13.427 10.79 10.77 2.795 19.65.203 25.357-2.349a29.118 29.118 0 0 0-1.997-2.647l-.846.403c-2.597 1.238-10.09 4.78-20.563 1.378-3.86-1.253-5.745-3.03-6.637-4.683-1.296-1.338-2.096-2.908-2.156-4.69a5.27 5.27 0 0 0-.35.071c-.035.035-.068.07-.096.103-.027-.503.137-1.621.137-1.621 1.375-4.378 6.492-6.425 13.233-4.793 5.268 1.276 16.297 6.198 22.732 16.278 1.21 1.895 2.236 4.095 3.025 6.197 1.358 3.611 1.725 8.656.098 11.782-2.198 4.22-7.648 6.666-8.287 6.564 2.019.325 5.404.055 8.15-.467 5.35-1.019 10.45-4.06 12.737-9.06.43-.937.776-1.882 1.056-2.826 1.77-11.035-6.579-26.33-7.594-25.876h.002" fill="#E9A411"/><path d="M187.52 105.555c-1.637-3.191-3.87-3.71-3.87-3.71l-.095 3.739s-.864-3.228-1.341-4.808c-1.645-5.447-6.49-12.762-12.114-17.933.379.786.65 1.566.624 2.217-3.036-3.705-11.735-10.735-11.735-10.735l1.072 3.251s-.57-.748-1.2-1.49c-5.762-6.8-21.69-15.037-26.527-17.528l2.119 3.416a47.64 47.64 0 0 0-1.588-.821l2.147 3.63-11.236-5.257 6.054.176a150.76 150.76 0 0 0-6.015-2.612c-5.563-1.941-11.607-3.495-18.88-4.854a81.706 81.706 0 0 0-3.93-.629c1.182.763 3.25 3.576 4.216 4.467-23.72-3.3-43.245-1.695-58.542 4.066-10.103 4.647-19.39 11.872-27.845 22.21l-.252-1.431-.033.044-.82-4.656c-3.391 4.423-7.544 11.691-8.866 16.773l-.12.466c-1.159 4.518-1.273 8.484-.577 12.338.961 4.151 2.84 8.236 5.35 12.817l-.517-.103c.26.491.527.987.803 1.49l-2.605-.52c4.383 6.77 11.257 14.303 18.843 19.586-4.92-5.228-8.508-10.423-10.64-16.3l.275.056a35.37 35.37 0 0 1-.561-1.443l3.616.731c-.27-.99-.496-1.983-.687-2.978-1.703-7.428-1.236-15.027.88-20.36 1.723-4.342 8.667-14.116 20.316-17.138l-1.73 2.619c.751-.211 1.525-.4 2.33-.562l-2.747 3.597c9.582-3.955 23.132-5.292 39.603-.489l-1.645.221c.496.191.977.392 1.43.61l-2.815.692c4.987 1.2 11.22 2.967 14.016 3.932 2.97 1.027 6.605 2.716 10.177 4.55-.9-.651-1.431-1.031-1.431-1.031 5.248 1.614 8.758 5.003 12.517 6.969l-.645-1.172c5.393 2.941 10.261 4.619 12.26 6.692l.05.052c3.923 3.267 5.951 5.946 6.575 6.825.174 1.726.49 3.217 1.076 4.589-1.642-7.477.072-9.67.673-11.006.17-.377.41-.722.673-1.025 2.487-3.793 8.108-5.91 12.93-5.75 5 .169 9.827 1.54 14.675 4.411-.903-1.01-.95-2.4-.643-3.417.044-.146.098-.283.156-.416.051-.297.13-.582.246-.841.277-.615.828-1.007 1.396-1.26-.344-1.14-1.555-3.562-4.444-3.877-1.86-.203-2.747.477-2.777.508.029-.031.6-1.017 1.566-1.431-.976-.561-3.478-.015-3.543.008.113-.042 2.424-2.208 5.974-1.105.706.22 1.33.571 1.899.879-.493-.703-.809-1.13-.825-1.131.423.012 3.097.78 4.546 3.82.326.685 1.146 2.456 1.6 3.411.815 1.717 2.39 4.123 4.024 5.784 2.653 2.698 5.578 3.647 8.89 3.625 3.39-.021 4.631-2.257 4.65-2.345-.018.083.082 1.633-.926 2.809.753-.402 1.683-1.366 1.932-2.038.34-.919.108-2.712-.23-3.086.177.195 2.329 2.083 1.888 3.986a3.467 3.467 0 0 1-.477 1.18l1.109.76-.586-.833 1.913 1.089c.712-.815.54-3.906-1.03-6.97" fill="#E9A411"/><path d="M162.622 100.775c-.241-1.011-1.412-3.77-4.507-4.107-1.86-.203-2.748.478-2.777.509.03-.031.598-1.018 1.565-1.434-.974-.562-3.477-.015-3.543.008.112-.042 2.424-2.213 5.976-1.108.708.22 1.33.572 1.901.881-.494-.704-.81-1.133-.827-1.133.425.011 3.099.781 4.548 3.828.326.686 1.147 2.461 1.6 3.418.816 1.722 2.393 4.133 4.027 5.797 2.252 2.295 4.702 3.324 7.418 3.57-1.468-.384-2.434-1.231-2.249-2.115 2.072.865 4.06 1.23 5.09-1.21 1.025-2.441.505-10.675-9.138-21.18.107.578.36 1.585.372 2.652-2.508-3.552-7.617-8.891-10.772-11.331.134.63.659 2.717.913 3.59-1.682-1.747-6.403-5.738-6.403-5.738l.978 2.974s-.52-.685-1.094-1.363c-5.263-6.22-19.812-13.756-24.228-16.035l1.936 3.125c-.34-.186-.832-.444-1.448-.751l1.96 3.32-10.26-4.808 5.527.16a135.313 135.313 0 0 0-5.494-2.389c-5.08-1.777-10.6-3.198-17.241-4.44a73.994 73.994 0 0 0-3.59-.575c.932.601 2.465 2.6 3.437 3.661-10.257-1.43-19.731-1.94-28.417-1.595 16.367-.052 45.993 8.388 58.037 16.587 10.002 6.808 8.352 8.401-2.368 3.632-23.845-10.612-43.147-11.202-43.147-11.202l-13.206 7.97s22.163 2.89 37.5 11.061c13.192 7.03 8.674 7.404-4.414 2.736-19.647-7.008-40.85-8.253-50.615-6.984 8.688.31 23.918 2.295 29.865 4.286-1.503.456-5.354 2.148-7.196 2.58 3.298-.216 40.065 11.02 50.125 24.174.04-.412.105-.858.203-1.332 1.199-5.428 8.216-8.58 14.058-8.384 5.002.168 9.832 1.543 14.682 4.42-.904-1.012-.949-2.404-.643-3.423.272-.91.864-1.578 1.208-1.644.186-.266.404-.486.651-.658" fill="#6F4705"/><path d="M157.455 89.92c-3.018-.151-5.64 1.248-7.188 3.176-1.24 1.545-1.395 3.939-.629 5.568-.269-1.744.529-3.327 1.492-4.529 1.25-1.557 3.825-2.565 6.369-2.64 2.914-.087 6.376.882 8.247 3.396-1.362-2.88-3.941-4.75-8.29-4.97" fill="#FFF"/><path d="M157.456 89.92c-3.02-.152-5.643 1.247-7.19 3.176-1.239 1.545-1.394 3.94-.629 5.568-.268-1.744.53-3.327 1.494-4.53 1.249-1.557 3.822-2.565 6.366-2.64 2.916-.087 6.376.883 8.249 3.398-1.363-2.882-3.943-4.752-8.29-4.971M87.027 47.55c-29.13-2.03-52.347 5.703-67.137 20.498l.278 3.257c14.271-16.01 37.538-24.793 67.125-23.446-.09-.103-.18-.206-.266-.31M7.735 134.777c.2 1.594 3.9 5.813 10.28 10.057 8.197 5.455 12.435 6.233 14.03 6.358-5.9-2.683-9.835-4.868-13.86-7.578-5.672-3.818-9.318-7.352-10.45-8.837" fill="#E9A411"/><path d="M177.882 118.362a60.22 60.22 0 0 1-1.248-1.33c-1.514-1.641-3.23-3.502-6.828-6.195-.012-.007-1.13-.828-1.224-.865a.825.825 0 0 1 .176-.014h.054c.965 0 1.512-.476 2.09-.979l.033-.028a16.571 16.571 0 0 1-1.457-1.401c-.3.122-.613.179-.946.179-.326 0-.674-.059-1.034-.175-1.26-.405-1.838-1.5-1.759-2.372l1.574.206c-.027-.015-.39-.676-.967-1.316a1.202 1.202 0 0 1 .899-.286c-.518-.86-1.014-1.711-1.536-2.464-.345-.229-1.253-.77-2.161-.77-.367 0-.696.089-.98.263-.211-1.057-1.392-3.856-4.497-4.195a6.144 6.144 0 0 0-.666-.038c-1.402 0-2.067.533-2.072.537l.005-.05c.436-.664.964-1.142 1.529-1.386-.286-.144-.735-.227-1.335-.227-1.022 0-2.114.24-2.162.257.002-.025.037-.052.082-.085 1.166-.89 2.464-1.341 3.852-1.341.65 0 1.317.104 1.98.31.647.2 1.235.52 1.752.8l.13.071c-.508-.683-.8-1.081-.828-1.1h.01c.458 0 3.072.758 4.506 3.769.148.312.4.854.675 1.44.318.684.665 1.428.907 1.937.764 1.612 2.292 4.007 3.982 5.726 2.405 2.447 5.163 3.587 8.684 3.587l.108-.001c3.377-.022 4.587-2.29 4.592-2.313.02.014.02.042.02.085-.021 1.11-.329 2.022-.916 2.707.744-.424 1.652-1.383 1.893-2.03.336-.912.098-2.684-.225-3.045.032 0 .062.03.104.072 1.805 1.773 1.965 3.083 1.784 3.87-.19.825-.588 1.767-2.095 2.511-1.186.585-2.535.882-4.01.882-1.291 0-2.64-.226-4.012-.67a1.194 1.194 0 0 0-.14-.042c.01-.02.056-.022.136-.022h.031c.289 0 1.334-.018 2.66-.26-1.899-.063-3.818-.69-5.706-1.837l-.275.01c-.293.005-.573.013-.844.013-.533 0-.95-.027-1.354-.085 3.53 2.9 5.831 5.418 7.047 7.676l-.018.014" fill="#15356F"/><path d="M179.006 101.947c-2.307-.538-3.61-2.017-5.168-4.345l-1.126-1.653c-3.87-5.513-6.864-7.421-9.176-8.228 1.519.085 6.244 1.733 10.339 7.55l1.143 1.672c1.507 2.245 2.195 4.586 3.988 5.004" fill="#E9A411"/><path d="M177.9 103.041c-2.307-.539-3.61-2.017-5.167-4.345l-1.127-1.654c-3.87-5.513-6.863-7.42-9.175-8.227 1.52.084 6.243 1.733 10.338 7.548l1.143 1.675c1.509 2.245 2.195 4.585 3.989 5.003" fill="#15356F"/><path d="M135.033 104.136l1.984-.458c-7.69-5.895-17.637-11.268-27.853-15.162-3.199-1.218-8.64-3.132-11.926-4.079 2.88.951 6.144 2.119 8.339 2.957 11.46 4.37 21.236 9.884 29.456 16.742" fill="#E9A411"/><path d="M162.345 107.077c-1.379-1.394-1.856-3.257-.513-5.677-.344.05-.949.717-1.226 1.628-.309 1.008-.262 2.383.646 3.384-4.867-2.843-9.715-4.202-14.733-4.368-5.863-.194-12.906 2.92-14.107 8.284-.524 2.473-.085 4.204-.085 4.204s.195-1.443.395-2.04c.861-4.53 7.058-8.835 14.107-8.694 6.365.127 9.231 1.381 18.172 5.869l1.408.31a44.283 44.283 0 0 0-4.064-2.9" fill="#15356F"/><path d="M128.233 72.399l1.049-.778c-8.7-4.294-18.61-7.546-29.438-9.466-3.389-.6-9.127-1.468-12.551-1.793 3.025.399 6.47.94 8.796 1.353 12.144 2.156 22.744 5.562 32.144 10.685v-.001" fill="#6F4705"/><path d="M109.983 70.211c.307-.233 1.16-.803 1.62-1.016-13.999-5.428-38.629-5.857-54.144-1.503a102.055 102.055 0 0 1 9.045-1.657c11.535-1.622 34.449.719 43.479 4.176" fill="#15356F"/><path fill="#E9A411" fill-rule="nonzero" d="M60.938 70.211l-4.899 20.47h4.836l-9.908 40.425h-4.79l-5.293 21.18h92.82l5.211-21.17h-11.417l-10.805-25.914 17.117-14.507h10.34l5.021-20.476-88.233-.008"/><path fill="#FFF" fill-rule="nonzero" d="M114.208 104.234l11.695 28.372h10.156l-4.177 17.492H43.646l4.257-17.503h4.796L63.407 88.33h-4.895l4.149-17.026 83.748.009-4.272 17.025h-9.425l-18.504 15.895"/><path fill="#15356F" fill-rule="nonzero" d="M140.012 85.254l2.53-10.666h-40.627L99.26 85.254h4.654L85.58 100.639l3.747-15.385h3.31l2.653-10.666h-30.1l-2.546 10.666h5.035l-12.356 50.473H50.31l-2.795 11.088h31.778l2.73-11.088h-5.078l1.255-5 13.941-11.844 7.067 16.818h-7.735l-2.735 11.114h41.037l2.737-11.114h-8.492l-13.392-32.371 21.423-18.076h7.962"/></g></svg>