<svg width="200" height="200" xmlns="http://www.w3.org/2000/svg"><g fill-rule="nonzero" fill="none"><path d="M177.067 133.254V131c0-3.787-1.143-6.428-1.143-6.428v-4.266c0-5.289 2.06-7.82 5.965-11.152l9.822-7.786h-21.007s0-8.927.003-16.962c6.709-1.616 13.761-9.33 13.761-16.9 0-8.577-5.984-12.606-7.255-12.981 0 0-2.195-3.314-6.622-3.314-5.766 0-6.766 5.255-6.926 6.528-1.356-.587-2.872-.93-4.517-.984H1.725c8.271 5 18.83 10.797 18.83 15.712v1.65c-.866 3.19-12.305 5.701-12.305 5.701 7.411 3.393 12.306 5.07 12.306 8.29v2.13c0 5.256-9.466 10.513-16.488 15.296-2.926 2.331-4.114 5.814-4.066 9.61L0 134.602c0 7.09 5.106 14.428 13.648 14.428h179.869c-9.952-6.687-16.45-11.123-16.45-15.776" fill="#D11C2E"/><path d="M175.37 64.212c.928.414 1.079 1.688 1.079 1.688.39 1.083.048 5.94-6.027 10.22.005-.006 6.3-5.55 4.948-11.908Zm-5.096 13.036c2.17-1.338 8.513-5.382 7.145-12.8-.269-.963-.701-1.847-1.43-2.428.493.917.593 1.927.593 1.927-1.445-2.444-2.926-1.583-2.926-1.583.895 1.403-.294 3.27-.294 3.27-.26-1.996-1.531-2.77-1.531-2.77-1.748.25-1.309 2.853-1.309 2.853-.473-.61-.764-1.138-.938-1.605-.226.973-.152 2.303.45 4.143.339.997 1.376 3.602-1.885 7.965-.874 1.188-.164 2.408 2.125 1.028Z" fill="#D11C2E"/><path d="m40.365 72.917-.025-.308-.191-.023h-2.58v3.941h2.798l-.002-3.61M70.403 79.667l-.849 5.111h1.7c-.17-1.018-.435-2.609-.85-5.111" fill="#181210"/><path d="M43.387 62.19c2.753-.009 5.156.916 6.76 2.606 1.22 1.281 1.899 2.947 1.899 4.54-.003.205.02 6.987.02 6.987-.087 2.59-1.381 4.231-2.732 5.294 1.641 1.193 2.645 2.864 2.73 4.923l1.843 12.44h-7.68c-2.439 0-4.247-1.776-4.6-4.48 0 0-.875-5.394-.888-5.503-.147-1.595-.889-1.875-1.1-1.926h-1.965V98.98H21.1l2.997-2.75c.017-.014 1.566-1.472 1.566-5.773V86.16c0-3.654-5.154-5.794-5.154-5.794s5.154-1.22 5.154-5.594v-2.986c0-5.965-7.019-9.596-7.019-9.596h24.743Zm26.366 0c5.806 0 9.37 3.056 10.587 9.082l5.654 27.708H73.618l-.68-4.08h-5.066l-.675 4.08H54.868l2.362-12.817c.365-2.072-1.066-3.106-1.23-3.217l-2.146-1.467 2.278-1.222c.085-.047 2.083-1.15 2.852-4.099l1.2-5.29c.01-.04.841-4.12-1.895-5.781l-4.771-2.897h16.235Zm34.48 0c6.596.06 9.804 2.821 9.804 8.444v4.395l-10.89.01.03-2.28c0-.173-.015-.292-.03-.412a1.99 1.99 0 0 0-.298-.02h-3.304v15.835c.005.397.1.568.126.593.017.01.104.042.314.038l2.373.001c.33.005.482-.054.51-.075.025-.03.094-.19.094-.534v-2.092h-2.239v-9.466h13.73V89.17c.04 5.825-3.156 9.769-7.963 9.81H94.707c-4.711 0-7.173-4.105-7.173-8.159v-6.064c.02-1.628-2.036-2.872-2.056-2.885l-2.902-1.71 3.182-1.122c.183-.065 1.796-.694 1.776-2.775v-3.642c0-4.086-.888-6.402-2.876-7.507l-5.275-2.926h24.85Zm19.952 0c7.127 0 7.127 3.65 7.127 7.177v29.561l2.67-2.621c2.197-2.162 2.535-4.597 2.542-5.85V85.02c.006-1.899-1.611-3.122-1.63-3.134l-1.712-1.29 1.733-1.249c.066-.046 1.602-1.174 1.61-3.123v-5.46c.008-2.764-.878-4.561-2.793-5.655l-5.103-2.918h13.345c3.803 0 6.75 1.896 8.523 5.492l2.659 5.51V62.294l5.808.002c6.341.218 6.318 6.273 6.306 10.277V98.98h-11.435l-5.303-11.195V98.98H112.93l3.781-2.546s2.692-1.75 2.692-5.977v-5.539c.003-2.112-1.522-3.206-1.588-3.25l-1.871-1.33 1.901-1.268c.06-.041 1.53-1.041 1.558-2.805l.003-5.545c.039-1.382-.488-4.332-2.776-5.604l-5.273-2.926h12.828Zm42.854 13.155c2.764-3.688 2.032-5.724 1.72-6.65-.011-.027-.022-.05-.028-.075h-.003c-.623-1.873-.734-3.263-.57-4.416-.223-.755-.235-1.436-.023-2.102.37-1.119 1.226-1.727 1.959-2.082-.158-.343-1.398-1.107-.85-2.55.296-.525.827-.798 1.648-.837.445-.018 1.379-.078 3.235 2.597 1.898.071 2.643 1.5 2.92 1.957 3.487 3.901 2.701 12.76-6.004 17.246-4.342 2.422-5.866-1.055-4.004-3.088ZM23.25 71.556v2.43c0 3.873-4.618 4.857-9.065 6.085 4.955 1.958 9.078 3.206 9.078 7.422v2.414c0 5.622-4.291 8.017-9.115 11.486h25.938v-3.816c1.198 2.357 3.433 3.816 6.142 3.816h23.02l.67-4.08h.977c.04.23.68 4.08.68 4.08h17.374l-.498-2.441a9.093 9.093 0 0 0 6.257 2.441h56.238v-2.882c.017.044 1.364 2.882 1.364 2.882h15.372V81.83s.357.084.632.084c6.205 0 13.227-7.412 13.227-15.032 0-7.622-5.866-10.057-5.866-10.057s-1.905-2.92-4.96-2.92c-5.06 0-4.188 5.396-4.188 5.396-1.165.978-1.286 3.243-1.286 3.243-1.278-1.498-3.219-2.558-6.191-2.66h-8.304v3.818c-2.209-2.556-5.229-3.924-8.771-3.924H11.308c7.163 4.714 11.94 7.403 11.94 11.778ZM46.791 129.391h1.701l-.85-5.115c-.415 2.504-.68 4.095-.85 5.115" fill="#181210"/><path d="M154.084 143.594c-2.43 0-4.342-.683-5.676-2.032-1.256-1.27-1.937-3.128-1.916-5.214v-6.321h11.544v3.277h1.172c.538-.003.694-.09.71-.099.033-.056.14-.31.14-1.256v-1.653c0-.378-.075-.559-.121-.606-.045-.045-.235-.128-.648-.123h-2.217c-3.23.008-6.151-1.132-8.232-3.212-1.984-1.982-3.029-4.623-3.022-7.63v-2.836c-.01-2.697.834-4.956 2.435-6.531 1.772-1.751 4.366-2.61 7.682-2.554h20.78c-3.02 2.895-5.895 5.329-5.895 9.507v3.489h-6.138c4.724 1.617 7.243 6.371 7.281 11.143v4.343a7.163 7.163 0 0 0 2.55 5.546l3.331 2.762h-23.76Zm-22.257 0-5.229-10.356v10.356H114.49v-17.727l-.665.488c-.57.42-2.201 1.923-2.204 3.281l-.006 6.075c0 1.965-.791 3.846-2.23 5.3-1.626 1.64-3.954 2.583-6.39 2.583h-8.957c-5.873 0-8.636-4.697-8.717-9.09v-8.62l-.64.47c-.57.42-2.198 1.924-2.202 3.282l-.01 6.584c0 3.48-3.44 7.374-8.047 7.374H68.22c-2.972 0-4.835-2.083-5.914-4.43l.907 4.43H50.856s-.48-2.872-.68-4.078h-5.073c-.203 1.206-.694 4.078-.694 4.078h-30.76c-5.141 0-8.213-4.574-8.213-8.992v-19.524c-.028-2.33.777-4.446 2.268-5.955 1.5-1.518 3.553-2.32 5.935-2.32H37.8l-3.088 2.729c-2.919 2.583-3.474 3.94-3.446 5.439v5.812H20.036v-3.947h-1.705c-.534.006-.68.073-.705.087-.04.054-.23.393-.23 1.851v12.885c-.03 1.331.146 1.58.168 1.606.003.003.19.137.93.139h1.542v-5.302H31.68l-.005 7.79c-.018 1.336-.01 2.384 1.153 3.788l4.885-23.823c1.384-6.26 4.648-9.054 10.58-9.054h19.425l-7.027 2.999c-3.503 1.484-2.849 5.566-2.819 5.736l.798 4.447c.728 2.76 2.99 3.403 3.09 3.43l3.18.861-2.663 1.922c-.021.016-2.24 1.63-1.858 3.778l.668 3.253h8.315c1.045 0 1.086 0 1.109-2.647v-13.376c.061-2.845.226-10.403 7.503-10.403h10.103l-3.77 2.814c-1.552 1.152-1.88 4.396-1.88 5.609v.069h.003l-.002.101h-.012c.016.242.022.485.022.7l.006 4.74c0 1.22 1.596 2.584 2.154 2.965l.682.47v-8.917c-.016-2.999.765-5.382 2.26-6.883 1.088-1.09 2.489-1.668 4.058-1.668h5.38v26.108c.008.24.025.378.042.493h2.548c.02-.12.042-.285.046-.554v-15.644c.06-2.845.229-10.403 7.501-10.403h10.448l-4.06 2.838c-1.589 1.116-1.93 4.423-1.93 5.622v.024h.002l-.001.108h-.015c.018.243.022.486.022.701l.004 4.74c0 1.22 1.597 2.584 2.155 2.965l.71.489v-7.093c-.028-3.805-.074-10.173 6.354-10.394H126l5.225 10.373v-2.65c0-2.53.718-4.59 2.076-5.966 1.137-1.15 2.686-1.757 4.48-1.757h11.782l-4.626 2.886c-1.611 1.004-1.723 2.94-1.707 5.363l.003 5.213c.006 2.109 1.767 3.823 1.784 3.841l1.162 1.122-1.148 1.127c-.02.02-1.804 1.796-1.798 3.851v4.859c.01 2.259.176 4.545 1.352 5.978l2.089 2.55h-14.847Zm42.55-10.505v-2.144c-.027-3.398-1.03-6.372-2.686-8.734h1.54v-5.821s-.118-2.13 1.57-4.087c1.691-1.96 4.737-5.14 8.394-7.91l-45.414-.002c-2.454 0-4.596.854-6.196 2.474-.68.688-1.197 1.522-1.632 2.424l-2.469-4.898h-20.329c-2.7 0-5.729.857-7.723 3.946v-3.946H13.639c-2.997 0-5.715 1.079-7.65 3.038-1.948 1.97-3 4.695-2.964 7.676v19.497c0 5.606 3.973 11.405 10.623 11.405h32.796l.696-4.079h.992l.682 4.079H74.42c4.23 0 8.06-2.64 9.663-6.193 1.765 3.813 5.387 6.193 9.953 6.193h8.958c3.074 0 6.027-1.203 8.105-3.3.359-.364.678-.754.976-1.159v4.459h16.935v-2.637l1.33 2.637h54.828c-9.35-5.996-10.793-7.877-10.793-12.918Z" fill="#181210"/><path d="M157.8 116.906c-.02.087-.04.22-.048.485v1.1c0 .163.06.676.8.68h1.505v-2.335h-1.41c-.546 0-.749.039-.847.07M176.449 65.9s-.15-1.274-1.079-1.688c1.352 6.357-4.943 11.902-4.948 11.908 6.075-4.28 6.416-9.137 6.027-10.22" fill="#181210"/><path d="M197.238 148.761a2.55 2.55 0 1 1 .003-5.1 2.55 2.55 0 0 1-.003 5.1m0-4.554a2.004 2.004 0 1 0 .001 4.005 2.004 2.004 0 0 0-.001-4.005" fill="#928B8A"/><path d="M198.286 147.667h-.604l-.551-1.183h-.393v1.183h-.546v-2.912h1.23a.865.865 0 0 1 .29 1.679l.574 1.233m-1.548-2.366v.636h.684a.318.318 0 0 0 0-.636h-.684" fill="#928B8A"/><path d="M170.274 77.248c-2.289 1.38-2.999.16-2.125-1.028 3.261-4.363 2.224-6.968 1.885-7.965-.602-1.84-.676-3.17-.45-4.143-.969-2.576 1.95-3.126 1.95-3.126.309-1.442-1.07-2.682-1.07-2.682s-.157-.268.583-.308c.744.022 2.38 2.594 2.38 2.594 1.339-.168 2.113.593 2.563 1.43.728.58 1.16 1.465 1.429 2.429 1.368 7.417-4.975 11.46-7.145 12.799Zm6.773-16.06c-.277-.458-1.022-1.887-2.92-1.958-1.856-2.675-2.79-2.615-3.235-2.597-.82.039-1.352.312-1.649.837-.547 1.443.693 2.207.851 2.55-.733.355-1.59.963-1.96 2.082-.211.666-.2 1.347.023 2.102-.163 1.153-.052 2.543.571 4.416h.003c.006.024.017.048.027.075.313.926 1.045 2.962-1.719 6.65-1.862 2.033-.338 5.51 4.004 3.088 8.705-4.485 9.491-13.345 6.004-17.246ZM36.008 71.024s2.417-.016 4.156 0c1.737.018 1.737 1.086 1.765 1.89v3.69s.007 1.5-1.482 1.485c-1.49-.019-4.44 0-4.44 0v-7.065Zm-8.784-.154v5.449c-.072 3.123-2.837 4.165-2.837 4.165s2.812 1.323 2.837 4.445v5.528c0 5.27-2.116 6.962-2.116 6.962h11.005v-11.91h3.695s2.2.223 2.485 3.346l.875 5.396c.26 1.986 1.4 3.168 3.059 3.168h5.872l-1.595-10.814c-.104-2.547-1.818-4.157-4.415-4.882 2.077-.937 4.311-2.34 4.415-5.453l-.028-6.619c.156-2.865-2.365-5.916-7.081-5.9h-19.99c3.756 2.335 3.82 7.12 3.82 7.12ZM67.712 86.34l2.691-16.2 2.693 16.2h-5.384Zm2.04-22.589H59.1c3.753 2.28 2.612 7.45 2.612 7.45l-1.207 5.303c-.981 3.78-3.65 5.135-3.65 5.135s2.48 1.578 1.91 4.794l-2.02 10.986h9.127l.676-4.08h7.713l.68 4.08h9.14l-5.27-25.832c-1.003-4.963-3.649-7.836-9.058-7.836ZM86.256 80.52s2.873 1.633 2.838 4.258v6.043c0 3.324 1.923 6.598 5.613 6.598h11.783c3.797-.033 6.434-3.134 6.401-8.24V78.19h-10.607v6.34h2.24v3.656c-.007 1.348-.634 2.2-2.196 2.169h-2.343c-1.491.03-1.984-1.036-2.002-2.17V70.768h4.866c2.081-.01 1.892 1.237 1.88 2.7h7.747v-2.833c0-2.887-.686-6.814-8.258-6.883H85.415c3.193 1.773 3.68 5.6 3.68 8.872v3.642c.034 3.331-2.84 4.255-2.84 4.255M120.967 70.767v5.498c-.045 2.695-2.27 4.113-2.27 4.113s2.27 1.515 2.27 4.54v5.54c-.045 3.544-1.66 6.158-3.265 6.961h12.048V69.367c0-3.596 0-5.616-5.565-5.616h-6.796c3.109 1.726 3.623 5.492 3.578 7.016M163.707 97.419V72.573c.017-4.439-.067-8.554-4.795-8.718h-4.195v16.162l-5.626-11.658c-1.778-3.603-4.493-4.608-7.117-4.608h-7.466c3.113 1.781 3.586 4.846 3.577 7.016v5.456c-.01 2.84-2.271 4.402-2.271 4.402s2.28 1.63 2.27 4.398v5.434c-.01 2.262-.84 4.833-3.009 6.962h11.895V80.842l7.854 16.577h8.883M29.703 119.22v-4.25c-.042-2.217.999-3.974 3.974-6.607H13.639c-4.155 0-6.686 2.916-6.64 6.694v19.545c0 3.584 2.39 7.431 6.65 7.431h19.307c-3.233-2.841-2.82-4.735-2.837-6.816v-5.553h-8.521v5.302h-3.103c-2.223-.009-2.72-.934-2.66-3.344v-12.775c-.013-2.93.651-3.546 2.471-3.573h3.292v3.947h8.105M44.95 130.952l2.692-16.2 2.692 16.2H44.95Zm16.422-6.025s-3.24-.788-4.22-4.566l-.818-4.546s-.99-5.443 3.747-7.452H48.292c-5.488 0-7.89 2.566-9.057 7.833l-5.294 25.837h9.15l.696-4.08H51.5l.678 4.08h9.12l-2.41-11.743c-.565-3.218 2.484-5.363 2.484-5.363ZM80.92 120.835s.003-6.698-.012-5.458c0 0-.121-5.056 2.505-7.014h-5.4c-4.554 0-5.826 3.579-5.941 8.876v13.343c-.021 2.552-.021 4.21-2.67 4.21h-6.72s.851 7.241 5.537 7.241h6.202c3.593 0 6.487-3.01 6.487-5.813l.01-6.585c.002-2.482 2.842-4.541 2.842-4.541s-2.84-1.916-2.84-4.259M110.065 120.835s0-6.698-.013-5.458c0 0-.099-5.127 2.594-7.014h-5.491c-4.554 0-5.826 3.579-5.943 8.876v15.611c-.019 1.892-.693 2.107-1.534 2.116h-2.777c-.96-.009-1.405-.409-1.443-2.019v-24.584h-3.82c-2.663 0-4.782 2.25-4.756 6.984v19.156c.07 3.79 2.323 7.53 7.155 7.53h8.958c3.97 0 7.09-2.889 7.057-6.38l.007-6.018c.006-2.482 2.844-4.541 2.844-4.541s-2.838-1.916-2.838-4.259M144.112 108.363h-6.331c-3.46 0-5.035 2.737-4.995 6.304v9.083l-7.749-15.387h-4.193c-4.728.165-4.822 4.623-4.794 8.822v24.848h8.987v-15.355l7.75 15.355h10.59c-1.562-1.905-1.696-4.697-1.705-6.96v-4.867c-.01-2.77 2.269-4.969 2.269-4.969s-2.26-2.128-2.269-4.965v-4.895c-.01-2.167-.165-5.387 2.44-7.014M170.403 135.286v-4.343c-.043-5.384-3.379-10.21-9.246-10.21h-2.605c-1.609-.014-2.367-1.214-2.36-2.255v-1.087c.044-1.634.542-2.119 2.459-2.117h2.969v2.962h7.637v-3.559c-.033-1.747 1.009-4.54 3.975-6.314h-17.297c-6.132-.098-8.567 3.194-8.557 7.52v2.842c-.01 5.7 4.341 9.294 9.69 9.279h2.221c1.325-.015 2.365.583 2.33 2.381v1.492c.013 1.985-.343 2.977-2.402 2.988h-2.742v-3.277h-8.422v4.76c-.024 2.459 1.088 5.685 6.031 5.685h19.431c-1.715-1.425-3.112-3.787-3.112-6.747" fill="#FFF"/><path d="M175.99 62.02c-.45-.837-1.224-1.598-2.563-1.43 0 0-1.636-2.572-2.38-2.594-.74.04-.583.308-.583.308s1.379 1.24 1.07 2.682c0 0-2.919.55-1.95 3.126.174.467.465.995.938 1.605 0 0-.439-2.602 1.309-2.852 0 0 1.271.773 1.53 2.769 0 0 1.19-1.867.295-3.27 0 0 1.481-.861 2.926 1.583 0 0-.1-1.01-.592-1.927" fill="#181210"/></g></svg>