<svg width="200" height="200" xmlns="http://www.w3.org/2000/svg"><g fill="none"><path d="M41.69 67.775c16.387-11.866 37.858-26.557 82.496-24.014 7.054.402 10.912-.228 12.985-1.167-7.03-3.984-29.597-4.827-46.605-1.376-28.66 5.815-68.986 24.011-72.256 59.228C22.659 90.92 30.884 75.6 41.69 67.775" fill="#FFF"/><path fill="#FFF" d="M111.243 56.848l-8.094.023 9.401 7.744 9.442-7.808-3.984.02-3.315 3.067-3.45-3.046"/><path d="M142.109 53.523s-.794 1.094-2.269 2.694c3.504.156 8.86.411 12.442.666 17.444 1.244 22.527 6.24 22.527 6.24s-11.445-2.88-34.7-1.6c-2.78.153-5.395.591-7.469 1.04l-.343.24c-6.18 4.277-21.963 12.305-21.963 12.305s11.483-4.843 34.885-5.12c25.775-.306 27.774 8.653 27.774 8.653s8.054-7.675 7.267-13.918c-1.454-11.52-38.151-11.2-38.151-11.2" fill="#AD7A32"/><path d="M187.187 74.838c-5.673 9.805-12.83 13.185-18.646 16.386l-3.39-6.78s-12.671 3.572-16.806 4.856c-41.468 12.88-61.374 30.26-65.085 53.095-2.98 18.347.857 26.834.857 26.834S5.616 160.665 5.33 110.995c-.147-25.692 8.285-46.433 42.866-65.969 28.244-15.956 72.317-17.934 89.268-12.849 12.935 3.881 13.932 13.17 13.932 13.17s11.164.728 22.894 3.52c16.341 3.89 19.094 15.26 12.897 25.97zM88.183 166.42l1.066 1.702.242-1.65.811.032 1.28 3.156-.815-.032-.692-1.815h-.008l-.29 1.775-.323-.013-1.183-1.834h-.008l.201 1.795-.81-.032-.274-3.116.803.032zm-1.185 3.058l-.815-.033-.628-2.446-.674-.027-.177-.69 2.161.086.178.69-.673-.026.628 2.446zm88.299-124.842c-7.465-1.777-14.72-2.781-19.172-3.275l-1.361-.15-.607-1.228c-.34-.69-.753-1.421-1.254-2.173-2.429-3.654-6.752-7.567-14.19-9.799-18.08-5.424-63.377-3.313-92.657 13.228C10.19 61.502.416 82.758.696 110.114c.271 26.683 13.161 39.554 34.068 49.77 26.386 12.89 54.246 15.483 61.094 13.747 0 0-9.574-13.967-8.033-27.903 2.404-21.734 20.788-39.532 61.81-52.274 2.312-.718 7.31-2.156 11.24-3.277l1.995-.568 3.804 7.607 3.965-2.182c1.483-.817 3.052-1.645 4.663-2.585 1.726-1.007 3.495-2.136 5.26-3.489 3.64-2.787 7.244-6.505 10.39-11.944 7.608-13.151 3.609-27.795-15.655-32.38z" fill="#AD7A32"/><path d="M83.447 83.426l22.94-14.521s-5.311.63-9.323-3.955c-5.933-6.78-15.27-5.418-25.144-4.238-6.298.752-15.538 4.802-15.538 4.802S62.88 55.626 91.13 51.39c28.058-4.21 27.93.489 37.292.565 8.141.066 12.279-3.802 10.771-7.414-.297-.714-.995-1.363-2.023-1.946-2.073.939-5.93 1.569-12.985 1.167-44.638-2.543-66.11 12.148-82.495 24.014-10.806 7.824-19.031 23.144-23.38 32.67-.391 4.214-.257 8.67.497 13.379.042.266.087.53.133.793a58.62 58.62 0 0 1 2.555-3.971C33.78 93.2 64.292 88.68 64.292 88.68s-24.297 9.04-37.23 29.746a33.863 33.863 0 0 0-3.909 8.876 41.139 41.139 0 0 0 5.114 7.67c1.042-3.58 2.935-8.288 6.36-13.238 17.8-25.709 45.768-29.946 45.768-29.946s-27.523 12.549-38.422 38.705c-2.106 5.053-3.034 9.637-3.37 13.398 5.718 3.58 10.403 4.784 10.403 4.784s-1.196-10.982 10.847-27.404c24.861-33.902 64.055-36.177 64.055-36.177s-9.214-2.542-15.826-2.912c-20.61-1.151-24.518 1.17-24.635 1.243" fill="#680323"/><path d="M172.993 78.641s-1.999-8.959-27.774-8.653c-23.402.277-34.885 5.12-34.885 5.12s15.784-8.028 21.963-12.305l.343-.24c2.074-.449 4.689-.887 7.47-1.04 23.254-1.28 34.7 1.6 34.7 1.6s-5.084-4.996-22.528-6.24c-3.581-.255-8.938-.51-12.442-.666 1.475-1.6 2.269-2.694 2.269-2.694s36.697-.32 38.15 11.2c.788 6.243-7.266 13.918-7.266 13.918zm-51.001-21.834l-9.442 7.808-9.4-7.744 8.093-.023 3.45 3.046 3.315-3.067 3.984-.02zm-62.14 64.465c-12.042 16.422-10.846 27.404-10.846 27.404s-4.685-1.204-10.404-4.784c.337-3.761 1.265-8.345 3.371-13.398 10.899-26.156 38.422-38.705 38.422-38.705s-27.969 4.237-45.767 29.946c-3.426 4.95-5.32 9.658-6.361 13.239a41.139 41.139 0 0 1-5.114-7.671 33.863 33.863 0 0 1 3.91-8.876C39.994 97.72 64.291 88.68 64.291 88.68S33.78 93.2 21.495 110.647a58.62 58.62 0 0 0-2.555 3.97 48.12 48.12 0 0 1-.133-.792c-.754-4.71-.888-9.165-.497-13.379 3.27-35.217 43.597-53.413 72.256-59.228 17.008-3.45 39.576-2.608 46.605 1.376 1.028.583 1.726 1.232 2.023 1.946 1.508 3.612-2.63 7.48-10.77 7.414-9.363-.076-9.235-4.774-37.293-.565-28.251 4.237-34.75 14.125-34.75 14.125s9.24-4.05 15.539-4.802c9.874-1.18 19.211-2.543 25.144 4.238 4.012 4.585 9.324 3.955 9.324 3.955L83.447 83.426c.117-.073 4.024-2.394 24.635-1.243 6.612.37 15.826 2.912 15.826 2.912s-39.194 2.275-64.055 36.177zM174.29 48.867c-11.73-2.792-22.894-3.52-22.894-3.52s-.997-9.289-13.932-13.17c-16.95-5.085-61.024-3.107-89.268 12.85C13.615 64.561 5.183 85.302 5.33 110.994c.286 49.67 78.787 58.234 78.787 58.234s-3.838-8.487-.857-26.834c3.711-22.836 23.617-40.215 65.085-53.095 4.135-1.284 16.805-4.857 16.805-4.857l3.39 6.78c5.816-3.2 12.974-6.58 18.647-16.385 6.197-10.71 3.444-22.082-12.897-25.97zM89.491 166.472l-.242 1.65-1.066-1.702-.803-.032.274 3.116.81.032-.201-1.795h.008l1.183 1.834.324.013.289-1.775h.008l.692 1.815.815.032-1.28-3.156-.81-.032" fill="#231F20"/><path fill="#231F20" d="M86.865 166.368l-2.16-.086.176.69.674.027.628 2.446.815.033-.628-2.446.673.026-.178-.69m81.558-17.797c-2.954 0-3.673-.543-3.593-2.662l2.18-16.656-12.528 19.318h-13.245l-1.485-17.748-7.257 13.755 1.197 3.993h-13.841c-2.234 0-3.112-.345-3.112-1.134 0-.345.24-.838.479-1.282l15.8-26.265-1.118-4.19h15.64c3.83 0 4.39.346 4.549 2.612l1.299 12.977 8.436-11.399-.878-4.19h16.518c3.352 0 4.15.444 4.23 2.169l-1.383 26.168 2.873 4.534h-14.761zm-60.595 0H83.649c-2.633 0-3.75-.493-3.75-1.528 0-.295.08-.74.24-1.134l9.654-26.07-1.675-4.139h15.48c2.714 0 3.91.493 3.91 1.578 0 .246-.079.69-.24 1.083l-7.84 21.435h7.692l12.12-9.323-5.747 15.486c-.798 2.217-1.676 2.612-5.665 2.612zm-38.568-1.922c-3.99 1.675-9.416 2.464-18.114 2.464-13.246 0-19.47-2.218-19.47-6.8 0-.888.479-2.712 1.037-4.19l6.783-18.283-1.676-4.14H53.3c2.714 0 3.91.493 3.91 1.529 0 .245-.079.788-.239 1.132l-6.59 17.68c-.478 1.38-.558 1.674-.558 2.119 0 1.33 1.356 1.97 3.99 1.97 3.67 0 5.187-.886 6.224-3.597l6.19-16.693-1.675-4.14h15.48c2.714 0 3.911.493 3.911 1.529 0 .344-.08.837-.32 1.428l-7.5 20.107c-1.756 4.681-3.192 6.357-6.863 7.885zm121.305-22.258c-.035-.753-.451-1.877-.817-2.75-.378-.9-.78-1.698-.78-1.698l-4.813-4.924c-1.97-2.016-4.173-2.581-6.69-2.581H156.96l.777 5.227-3.66-3.478c-.238-.274-1.686-1.665-6.534-1.75h-19.891l1.855 6.957-2.473 4.11-1.834-1.552-10.996 8.296 1.683-4.602c.294-.725.478-1.583.478-2.308a4.44 4.44 0 0 0-1.213-3.09l-5.192-5.536c-.567-.785-1.362-1.329-2.165-1.654-1.249-.506-2.756-.62-4.198-.62H59.741l1.244 3.48s-2.656-2.538-3.511-2.876c-1.236-.488-2.727-.604-4.173-.604H32.979l3.017 7.453-6.339 17.089c-.576 1.523-1.244 3.812-1.244 5.332 0 2.561 1.03 4.526 2.812 5.995.177.198 5.98 6.362 5.98 6.362 4.054 3.006 11.507 3.767 19.535 3.767 8.818 0 14.77-.784 19.373-2.717 1.89-.786 3.353-1.664 4.558-2.799l3.147 3.817.123-.155c.37.287.776.515 1.189.687 1.23.51 2.707.625 4.114.625h24.178c2.789 0 5.066-.182 6.734-1.622a4.677 4.677 0 0 0 1.761 1.148c1.082.4 2.362.474 3.528.474l69.264-.286-5.49-8.378 1.346-24.839z"/><path d="M125.445 157.894c-1.166 0-2.446-.073-3.528-.474a4.677 4.677 0 0 1-1.76-1.148c-1.67 1.44-3.946 1.622-6.735 1.622H89.244c-1.407 0-2.885-.115-4.114-.625a5.221 5.221 0 0 1-1.189-.687l-.123.155-3.147-3.817c-1.205 1.135-2.669 2.013-4.558 2.8-4.603 1.932-10.555 2.716-19.373 2.716-8.028 0-15.48-.76-19.536-3.767 0 0-5.802-6.164-5.98-6.362-1.781-1.47-2.811-3.434-2.811-5.995 0-1.52.668-3.81 1.244-5.332l6.339-17.089-3.017-7.453H53.3c1.446 0 2.937.116 4.173.604.855.338 3.511 2.876 3.511 2.876l-1.244-3.48h43.857c1.442 0 2.95.114 4.198.62.803.325 1.598.869 2.165 1.654l5.192 5.536a4.44 4.44 0 0 1 1.213 3.09c0 .725-.184 1.583-.478 2.308l-1.683 4.602 10.996-8.296 1.834 1.552 2.473-4.11-1.855-6.956h19.891c4.848.084 6.296 1.475 6.533 1.749l3.661 3.478-.777-5.227h20.503c2.518 0 4.722.565 6.691 2.581l4.812 4.924s.403.798.781 1.699c.366.872.782 1.996.817 2.75l-1.346 24.838 5.49 8.378-69.264.286zm70.063-3.92l-3.473-5.48 1.296-24.207c-.073-1.315-.694-2.927-1.026-3.717a44.582 44.582 0 0 0-1.056-2.26l-5.11-5.229c-2.644-2.706-5.66-3.417-8.675-3.417h-53.42l1.984 7.415-6.744 5.805-.396-1.468a7.262 7.262 0 0 0-1.71-3.06l-5.085-5.429c-.914-1.176-2.13-1.982-3.255-2.438-1.769-.718-3.724-.825-5.24-.825H28.865l4.157 10.27-5.962 16.072c-.593 1.57-1.42 4.25-1.42 6.306 0 3.35 1.315 5.503 3.673 8.01l6.043 6.429c3.323 3.535 13.488 4.458 21.384 4.458 8.92 0 15.318-.78 20.442-2.931a22.18 22.18 0 0 0 2.411-1.166l.64-.363 2.892 2.955c1.571.51 4.818.962 6.119.962l102.24.002h7.971l-3.947-6.695z" fill="#AD7A32"/><path d="M83.943 117.229c0-1.036-1.197-1.529-3.91-1.529h-15.48l1.675 4.14-6.191 16.693c-1.037 2.711-2.554 3.598-6.225 3.598-2.633 0-3.99-.641-3.99-1.971 0-.445.08-.74.56-2.119l6.589-17.68c.16-.344.24-.887.24-1.132 0-1.036-1.197-1.529-3.91-1.529H37.82l1.675 4.14-6.783 18.283c-.558 1.478-1.037 3.302-1.037 4.19 0 4.582 6.224 6.8 19.47 6.8 8.698 0 14.124-.79 18.114-2.464 3.67-1.528 5.107-3.204 6.862-7.885l7.501-20.107c.24-.59.32-1.084.32-1.428m23.178 22.568h-7.692l7.84-21.436c.161-.394.24-.837.24-1.083 0-1.085-1.196-1.578-3.91-1.578h-15.48l1.675 4.14-9.655 26.07a3.29 3.29 0 0 0-.24 1.133c0 1.035 1.118 1.528 3.751 1.528h24.179c3.989 0 4.867-.395 5.665-2.612l5.748-15.486-12.121 9.324m74.573-21.928c-.08-1.725-.877-2.169-4.229-2.169h-16.518l.878 4.19-8.436 11.399-1.3-12.977c-.159-2.266-.717-2.612-4.547-2.612H131.9l1.117 4.19-15.8 26.265c-.239.444-.478.937-.478 1.282 0 .789.878 1.134 3.112 1.134h13.841l-1.197-3.993 7.257-13.755 1.485 17.748h13.245l12.529-19.318-2.18 16.656c-.08 2.12.638 2.662 3.592 2.662h14.76l-2.872-4.534 1.382-26.168" fill="#FFF"/></g></svg>