<svg width="200" height="201" fill="none" xmlns="http://www.w3.org/2000/svg"><g clip-path="url(#a)"><mask id="b" style="mask-type:luminance" maskUnits="userSpaceOnUse" x="0" y="4" width="200" height="193"><path d="M200 4H0v192.818h200V4Z" fill="#fff"/></mask><g mask="url(#b)"><path d="M6.508 196.818v-60.109h17.436a2.462 2.462 0 0 0 2.465-2.507v-68.27a2.518 2.518 0 0 0-2.506-2.465H6.508V4H130.76v58.975h-17.642a2.466 2.466 0 0 0-2.465 2.465c-.049 14.85-.124 50.241.198 66.412a2.47 2.47 0 0 0 2.466 2.466c3.031 0 6.919-.165 9.038-.821 1.965-2.753 4.561-14.553 8.299-29.475l55.557 3.468-3.378 89.33H6.508v-.002Z" fill="#FFCF01"/><path d="M13.238 190.096V143.43H26.73a6.429 6.429 0 0 0 5.951-3.976c.323-.782.49-1.62.49-2.466v-73.84a6.442 6.442 0 0 0-6.451-6.443H13.236V10.73H124.08v45.514h-13.756a6.42 6.42 0 0 0-6.427 6.41c-.066 16.665-.172 61.022.313 74.21a4.1 4.1 0 0 0 1.126 2.702 4.1 4.1 0 0 0 2.638 1.266c5.802.477 15.448.32 18.406-1.947 3.665-2.819 5.752-13.198 9.385-27.84l43.428 2.712-2.844 76.329-163.112.009.002.001Z" fill="#003767"/><path d="M32.294 162.494c20.46 0 20.017-9.812 20.017-27.208v-71.49c0-17.315.19-26.13-20.017-26.13v-7.882h72.682v7.396c-20.89 0-20.157 9.039-20.14 26.378v61.579c0 21.431-.412 34.332 25.472 34.908 23.912.682 34.225-5.382 40.141-28.982l9.038.567-1.47 39.394H32.294v-8.53Z" fill="#FFCF01"/><path d="m199.68 105.574-1.645-.518c-.426-10.346-.214-5.374-.96-22.426-77.908-23.929-129.011-14.363-130.81-14.174-2.524-.205-11.892-.312-17.947 7.65l-2.325-5.374c-1.422.279-8.416 1.16-45.993 12.663v19.417l4.323-1.528v10.255L0 112.789v19.401c30.61-10.511 96.874-34.233 200 .073-.903-18.768-.839-12.942-.32-26.689Z" fill="#FFCF01"/><path d="M51.473 100.232a2.84 2.84 0 0 1-1.545-.435 9.985 9.985 0 0 1-1.767-3.058 5087.624 5087.624 0 0 0-7.124-16.434l-1.643.337c-2.279 5.972-4.552 11.97-6.82 17.996-.896 2.358-1.89 5.908-4.7 6.647v1.25c1.298-.362 2.605-.749 3.912-1.093l2.227-.453c-1.322 5.407-3.631 7.396-8.793 8.703-5.678 1.503-5.572-1.397-5.579-6.171V93.807c0-3.853-.049-6.08 4.413-7.14v-1.693a444.128 444.128 0 0 0-8.53 2.58c-2.466.682-4.84 1.331-7.28 2.071v1.702c4.412-1.561 4.33.706 4.33 4.56v15.925c0 3.87.082 6.032-4.33 7.305v1.702c2.62-.903 5.2-1.791 7.839-2.621 2.768-.781 11.2-3.082 19.721-4.881.106-2.909.345-9.983.345-9.983-1.274.181-2.852.443-2.852-1.257.126-1.067.403-2.11.821-3.097.14-.371.28-.731.41-1.102 2.54-.576 5.079-1.11 7.626-1.643.247.609.484 1.216.723 1.833.323.682.544 1.407.657 2.152 0 1.495-1.832 1.784-2.867 2.137v1.241c1.799-.402 3.631-.822 5.43-1.192 1.8-.369 3.617-.567 5.423-.822l-.049-1.347.002-.005Zm-16.337-4.2c1.096-2.892 2.174-5.782 3.239-8.669 1.008 2.439 2.022 4.884 3.04 7.338-2.096.378-4.19.83-6.279 1.332Z" fill="#FDCB26"/><path d="M134.854 106.576c4.552.698 4.453-1.496 4.453-5.366V85.285c0-3.854.099-6.08-4.453-6.5v-1.7c2.514.354 4.98.773 7.486 1.184 2.892.369 5.817.748 8.694 1.207v1.694c-4.528-.92-4.487 1.33-4.487 5.185v13.706c0 4.775-.09 7.634 5.661 8.645 5.325.969 7.626 0 8.941-5.078l2.014.435c-.105 2.974-.214 5.95-.329 8.924-8.48-1.923-17.084-3.378-19.927-3.83-2.696-.345-5.349-.607-8.053-.879v-1.702ZM164.099 111.572c4.494 1.159 4.395-1.052 4.395-4.93V90.725c0-3.854.099-6.073-4.395-6.952v-1.709c2.669.64 5.283 1.356 7.938 2.071 5.694 1.389 11.39 2.91 17.002 4.643l.369 8.406-1.981-.624c-.821-4.93-3.402-7.19-7.855-8.439-.55-.163-3.525-.969-3.804-.525a15.704 15.704 0 0 0-.139 2.654v8.71c3.764 1.002 6.171 1.002 6.351-3.288l1.849.543c-.042 2.153-.132 4.298-.181 6.451.049 1.947.139 3.952.181 5.891l-1.849-.535c-.878-4.585-2.079-5.751-6.351-6.852v5.514c0 4.437-.14 7.182 5.333 8.718 5.235 1.513 7.248.576 8.407-4.387l1.832.592c-.041 1.775-.132 3.484-.181 5.259.049 1.289.14 2.547.181 3.83-6.335-2.104-12.729-4.036-19.162-5.703-2.654-.625-5.268-1.15-7.939-1.702v-1.717l-.001-.002ZM54.389 109.493l-2.08.337v-9.795l1.89-.311c1.323 4.108 3.493 7.658 8.752 6.951 2.753-.37 5.407-2.465 5.407-5.373 0-4.387-4.553-5.038-7.864-5.974-4.265-1.241-7.708-3-7.708-8.217 0-5.794 4.43-9.672 9.926-10.403 2.564-.338 5.219-.082 7.117 1.454.206-.633.411-1.273.625-1.907l2.038-.205c.099 2.81.19 5.628.287 8.447l-2.046.214c-.822-3.541-3.559-6.418-7.683-5.875-2.327.304-4.692 1.972-4.692 4.52 0 3.525 3.599 3.993 6.303 4.88 5.07 1.52 9.86 3.288 9.86 9.615s-5.407 10.173-11.249 10.946c-3.031.394-6.113-.173-8.217-2.005l-.666 2.704v-.003ZM51.472 100.093a2.912 2.912 0 0 1-1.545-.444 9.854 9.854 0 0 1-1.766-3.049 5122.562 5122.562 0 0 0-7.124-16.434l-1.643.344A3789.062 3789.062 0 0 0 32.557 98.5c-.896 2.358-1.89 5.907-4.7 6.647v1.241c1.298-.362 2.605-.748 3.911-1.093a97.41 97.41 0 0 1 2.228-.444c-1.323 5.407-3.632 7.396-8.793 8.703-5.678 1.495-5.572-1.398-5.58-6.171V93.668c0-3.855-.048-6.09 4.414-7.14v-1.694a390.244 390.244 0 0 0-8.53 2.581c-2.466.673-4.84 1.323-7.281 2.07v1.694c4.413-1.561 4.33.715 4.33 4.568v15.9c0 3.87.083 6.023-4.33 7.305v1.734c2.62-.896 5.201-1.791 7.839-2.614 2.769-.821 11.2-3.082 19.721-4.881.107-2.91.345-9.984.345-9.984-1.274.181-2.852.435-2.852-1.256a11.29 11.29 0 0 1 .821-3.098c.14-.37.28-.74.411-1.101 2.536-.547 5.078-1.096 7.626-1.643.247.607.484 1.216.722 1.832.323.682.544 1.408.658 2.153 0 1.488-1.833 1.775-2.868 2.128v1.25c1.8-.403 3.632-.822 5.431-1.192 1.8-.369 3.616-.568 5.423-.822l-.033-1.364.002-.001Zm-16.335-4.241c1.096-2.892 2.175-5.783 3.239-8.67l3.04 7.339c-2.092.422-4.185.866-6.279 1.33Z" fill="#003767"/><path d="m195.159 116.814.288-8.217-2.967-.912-4.586-1.479c0-.279-.106-3.361-.114-3.533-.009-.172 0-.821.048-1.594l5.959 1.874-.247-5.892-.493-11.323-2.786-.822c-5.234-1.643-10.846-3.148-17.174-4.683l-.903-.247c-2.318-.624-4.709-1.265-7.116-1.848l-5.111-1.225v9.385a191.29 191.29 0 0 0-4.782-.945v-9.41l-3.484-.55c-2.867-.46-5.751-.82-8.594-1.198h-.157l-1.307-.214c-2.022-.33-4.108-.674-6.212-.97l-4.709-.649v9.655c-1.585-.14-3.237-.272-4.93-.395v-9.72l-3.903-.222c-2.868-.164-5.752-.254-8.595-.329h-.214l-1.29-.082c-2.046-.132-4.157-.271-6.278-.344l-4.298-.164v9.91h-3.55l-4.166-10.206-2.86.106-4.987.173-1.002 2.465-3.287 8.037c-1.52.099-3.032.205-4.51.32l-.346-10.05-4.387.453-4.757.492-.082.247a16.861 16.861 0 0 0-5.078-.057c-7.224.96-12.465 5.95-13.386 12.449l-1.02.18-4.272-9.86-3.287.683-3.911.822-.822 2.112-3.599 9.5c-1.373.32-2.62.624-3.73.903V79.374l-5.26 1.48a443.898 443.898 0 0 0-8.47 2.556h-.107l-1.084.304c-2.022.567-4.109 1.142-6.221 1.784l-2.91.929v10.617l4.323-1.537v16.64c.031.797-.01 1.594-.124 2.384a5.464 5.464 0 0 1-1.216.476l-2.983.822v10.617l6.204-2.137a288.133 288.133 0 0 1 6.96-2.318c1.217-.345 10.075-2.826 19.36-4.791l3.164-.682s.205-5.991.304-8.702l2.614-.592 4.108-.896 1.373-.214v8.57l9.564-1.578s.09-.345.124-.493c1.954.441 3.972.53 5.958.263a21.167 21.167 0 0 0 4.544-1.126v.329l6.435-.781 3.435-.402 4.15-.139 3.65-.091 2.046-.106 3.419-.172c2.055-.115 4.174-.222 6.204-.279 2.375 0 4.7.115 7.477.221h1.175c2.375 0 4.625 0 6.927.073 1.166.066 8.941.535 17.428 1.504l6.837.755c1.645.173 3.189.345 4.783.55 1.174.19 9.104 1.471 17.626 3.287l6.837 1.462c1.422.296 2.835.601 4.256.937 5.966 1.545 12.129 3.377 18.85 5.612l5.751 1.907s-.501-9.385-.509-9.597l-.008-.006Z" fill="#003767"/><path d="M131.864 98.934c-1.323 5.185-3.657 6.417-9.039 5.982-5.809-.428-5.711-3.287-5.711-8.069V83.141c0-3.854-.049-6.106 4.519-5.636v-1.693c-2.901-.173-5.859-.255-8.76-.338-2.53-.156-5.012-.329-7.535-.428v1.693c4.577 0 4.478 2.202 4.478 6.056V98.72c0 3.607.082 5.751-3.599 5.834a6.176 6.176 0 0 1-3.221-1.183c-.954-.953-1.907-3.287-2.466-4.585a5074.791 5074.791 0 0 0-9.86-24.077l-2.285.073c-3.1 7.592-6.22 15.238-9.358 22.934-1.241 3.016-2.621 7.617-6.517 8.02v1.693c1.808-.214 3.616-.452 5.424-.632 1.996-.106 3.993-.139 5.998-.198v-1.693c-1.766-.057-3.952-.049-3.952-2.358 0-1.274.715-2.826 1.142-4.035l.567-1.397c3.511-.214 7.022-.365 10.535-.453l1.011 2.663c.436.985.741 2.025.903 3.089 0 2.022-2.53 1.98-3.96 2.218v1.702c2.465-.132 5.004-.271 7.486-.337 2.481-.066 5.119.114 7.683.214h.903c2.407 0 4.791 0 7.198.073 2.859.172 11.504.755 20.123 1.816.115-2.982.223-5.974.337-8.956l-2.046-.214.002.003ZM82.601 94.71c1.49-3.698 2.983-7.384 4.478-11.06l4.199 10.682c-2.901.058-5.818.215-8.677.378Z" fill="#003767"/><path d="M134.853 106.576c4.552.698 4.453-1.495 4.453-5.365V85.287c0-3.855.099-6.08-4.453-6.5v-1.7c2.515.353 4.98.772 7.486 1.183 2.892.37 5.818.748 8.694 1.208v1.693c-4.528-.92-4.486 1.331-4.486 5.186v13.705c0 4.775-.091 7.634 5.661 8.645 5.325.97 7.625 0 8.941-5.077l2.013.435c-.103 2.974-.214 5.949-.329 8.923-8.48-1.923-17.083-3.377-19.927-3.83-2.695-.344-5.349-.609-8.053-.878v-1.704Zm29.245 4.996c4.495 1.159 4.396-1.052 4.396-4.93V90.725c0-3.854.099-6.073-4.396-6.952v-1.709c2.671.64 5.284 1.356 7.939 2.071 5.694 1.389 11.389 2.91 17.001 4.643l.369 8.406-1.98-.624c-.821-4.93-3.402-7.19-7.855-8.439-.55-.163-3.526-.969-3.804-.525a15.81 15.81 0 0 0-.14 2.654v8.71c3.764 1.002 6.171 1.002 6.352-3.288l1.848.543c-.041 2.153-.132 4.298-.181 6.451.049 1.947.14 3.952.181 5.892l-1.848-.534c-.879-4.585-2.079-5.752-6.352-6.853v5.514c0 4.438-.139 7.182 5.334 8.719 5.234 1.512 7.248.576 8.407-4.387l1.832.591c-.042 1.775-.132 3.484-.181 5.259.049 1.29.139 2.548.181 3.83-6.336-2.104-12.729-4.035-19.163-5.702-2.654-.625-5.267-1.151-7.938-1.702v-1.718l-.002-.003Zm-109.707-2.079-2.08.337v-9.795l1.89-.313c1.323 4.109 3.492 7.659 8.751 6.952 2.753-.371 5.407-2.466 5.407-5.374 0-4.387-4.552-5.037-7.864-5.974-4.265-1.24-7.707-3-7.707-8.217 0-5.793 4.429-9.672 9.927-10.403 2.564-.337 5.218-.082 7.116 1.455.206-.633.41-1.274.625-1.907l2.038-.205c.099 2.81.19 5.629.287 8.447l-2.047.214c-.821-3.542-3.558-6.418-7.682-5.875-2.325.304-4.692 1.971-4.692 4.519 0 3.525 3.599 3.993 6.303 4.881 5.069 1.52 9.86 3.287 9.86 9.614 0 6.328-5.407 10.173-11.25 10.946-3.032.395-6.114-.172-8.218-2.005l-.666 2.703h.002Zm-2.919-9.4a2.912 2.912 0 0 1-1.545-.444 9.854 9.854 0 0 1-1.766-3.049 5122.562 5122.562 0 0 0-7.124-16.434l-1.643.344A3789.062 3789.062 0 0 0 32.557 98.5c-.896 2.358-1.89 5.907-4.7 6.647v1.241c1.298-.362 2.605-.748 3.911-1.093a97.41 97.41 0 0 1 2.228-.444c-1.323 5.407-3.632 7.396-8.793 8.703-5.678 1.495-5.572-1.398-5.58-6.171V93.668c0-3.855-.048-6.09 4.414-7.14v-1.694a390.244 390.244 0 0 0-8.53 2.581c-2.466.673-4.84 1.323-7.281 2.07v1.694c4.413-1.561 4.33.715 4.33 4.568v15.9c0 3.87.083 6.023-4.33 7.305v1.734c2.62-.896 5.201-1.791 7.839-2.614 2.769-.821 11.2-3.082 19.721-4.881.107-2.91.345-9.984.345-9.984-1.274.181-2.852.435-2.852-1.256a11.29 11.29 0 0 1 .821-3.098c.14-.37.28-.74.411-1.101 2.536-.547 5.078-1.096 7.626-1.643.247.607.484 1.216.722 1.832.323.682.544 1.408.658 2.153 0 1.488-1.833 1.775-2.868 2.128v1.25c1.8-.403 3.632-.822 5.431-1.192 1.8-.369 3.616-.568 5.423-.822l-.033-1.364.002-.001Zm-16.335-4.241c1.096-2.892 2.175-5.783 3.239-8.67l3.04 7.339c-2.092.422-4.185.866-6.279 1.33Zm96.725 3.082c-1.323 5.185-3.657 6.417-9.039 5.982-5.81-.428-5.711-3.287-5.711-8.069V83.141c0-3.854-.049-6.106 4.519-5.636v-1.693c-2.901-.173-5.859-.255-8.76-.338-2.53-.156-5.012-.329-7.535-.428v1.693c4.577 0 4.478 2.202 4.478 6.056V98.72c0 3.607.082 5.751-3.599 5.834a6.185 6.185 0 0 1-3.221-1.183c-.954-.953-1.907-3.287-2.464-4.585a5117.27 5117.27 0 0 0-9.86-24.077l-2.285.073c-3.1 7.592-6.221 15.238-9.36 22.934-1.241 3.016-2.621 7.617-6.517 8.02v1.693c1.808-.214 3.616-.452 5.424-.632 1.996-.106 3.994-.139 5.998-.198v-1.693c-1.766-.057-3.952-.049-3.952-2.358 0-1.274.716-2.826 1.142-4.035l.567-1.397c3.511-.214 7.023-.365 10.535-.453l1.011 2.663c.437.985.741 2.025.903 3.089 0 2.022-2.53 1.98-3.96 2.218v1.702c2.465-.132 5.004-.271 7.486-.337 2.481-.066 5.119.114 7.683.214h.903c2.407 0 4.791 0 7.198.073 2.859.172 11.504.755 20.123 1.816.115-2.982.223-5.974.338-8.956l-2.047-.214.002.003ZM82.601 94.71c1.49-3.698 2.982-7.384 4.477-11.06l4.2 10.682c-2.902.058-5.818.215-8.679.378h.001Z" fill="#fff"/></g></g><defs><clipPath id="a"><path fill="#fff" transform="translate(0 4)" d="M0 0h200v192.818H0z"/></clipPath></defs></svg>