<svg width="200" height="200" xmlns="http://www.w3.org/2000/svg"><g fill="none"><path d="M199.286 150.072l.334-9.478-4.13-1.264c.01.002-2.32-.74-3.7-1.18-.03-.925-.063-1.984-.07-2.16l6.238 1.943-.334-8.091-.554-12.579-3.862-1.18c-5.397-1.65-11.196-3.221-17.73-4.802.03.007-3.712-.988-5.139-1.356 7.042-6.533 10.796-14 10.796-21.812 0-4.646-1.353-9.2-3.991-13.56 3.202-2.824 5.029-6.64 5.03-10.67l-.001.042.004-.138.01-.408c0-8.913-8.08-17.707-18.469-20.215-2.435-2.563-6.826-3.523-7.345-3.626l-.037-.008-.037-.005c-10.222-1.502-21.253 1.576-27.649 5.293-.695.406-1.266.84-1.819 1.262-.367.28-.733.546-1.12.806-8.07-1.413-16.496-2.142-25.069-2.142-28.647 0-55.182 8.213-69.535 21.456L13.9 64.544l-1.065 4.05-.533 1.931c-.718 2.537-1.46 5.161-1.46 7.866 0 2.662.727 5.244 1.43 7.741l.539 1.962 1.054 4.065 6.553-.631c.918 6.42 4.4 12.426 9.883 17.734l-2.597.713-7.28 2.03c-2.94.818-5.897 1.736-8.757 2.625l-.08.025c-.047.011-1.102.303-1.102.303a247.642 247.642 0 0 0-6.432 1.827L0 118.016v13.975l4.445-1.558v14.875c0 .669-.011 1.114-.025 1.424a5.29 5.29 0 0 1-.283.088L0 148.01v13.966l8.343-2.842c2.434-.829 4.732-1.61 7.106-2.348.98-.273 10.19-2.838 19.755-4.855l10.094-2.26 12.509-2.055.03-.117c1.69.245 3.432.278 5.209.049a23.847 23.847 0 0 0 3-.61v.002l8.268-1c-.009 0 3.152-.361 3.465-.398a5063.1 5063.1 0 0 1 4.197-.141l3.745-.1c.037.008.412-.013.415-.013.002.002 3.123-.152 3.123-.16l2.113-.11c1.98-.102 4.222-.22 6.31-.273 2.415.024 4.764.108 7.576.216.034.005.113.02.113.02l.482.003.616.023.114-.023c2.406.004 4.68.006 7.036.07.94.056 8.284.496 16.49 1.384 0 .007 4.724.55 4.724.55s5.191.556 5.191.549c1.438.162 3.277.371 3.298.372a362.05 362.05 0 0 1 16.836 3.127c0 .008 4.201.921 4.201.921s5.71 1.2 5.711 1.19l2.63.572c6.061 1.56 12.363 3.424 19.231 5.689l7.934 2.617s-.572-11.831-.579-11.952" fill="#FCCB06"/><path fill="#FCCB06" d="M55.883 107.481l-2.567 4.074 5.476 1.867v-3.734l-2.91-2.207"/><path d="M197.806 150.083l.296-8.417-3.048-.934s-3.414-1.09-4.71-1.502c-.01-.283-.108-3.427-.114-3.604.002-.095.022-.817.048-1.624.09.03 6.116 1.906 6.116 1.906l-.248-6.007-.508-11.541-2.866-.876c-5.372-1.641-11.145-3.205-17.646-4.777l-.934-.252a294.787 294.787 0 0 0-6.943-1.793c7.853-6.51 12.407-14.248 12.407-22.55 0-4.86-1.566-9.527-4.437-13.868 3.347-2.5 5.475-6.216 5.475-10.361.005-.167.013-.335.013-.504 0-8.304-7.803-16.684-17.752-18.9-2.058-2.546-6.873-3.502-6.873-3.502-9.871-1.45-20.512 1.52-26.685 5.107h.004c-1.284.747-2.022 1.318-3.526 2.31-7.924-1.415-16.41-2.183-25.233-2.183-29.637 0-55.457 8.654-68.979 21.456l-16.65-1.542-.745 2.84c-.81 3.085-1.946 6.256-1.946 9.426 0 3.138 1.128 6.28 1.922 9.338l.74 2.848 6.722-.648c.587 7.287 4.684 14.092 11.416 19.952-2.661.625-12.298 3.535-12.298 3.535-2.918.814-5.864 1.729-8.714 2.614l-.104.03c-.116.034-1.126.312-1.126.312-2.082.57-4.235 1.161-6.393 1.817l-3.01.912v10.815s2.94-1.03 4.446-1.56v16.955c0 .923-.012 2.02-.133 2.432-.14.087-.49.272-1.242.488l-3.07.88v10.808l6.384-2.173c2.449-.834 4.762-1.621 7.147-2.361 1.248-.35 10.348-2.88 19.887-4.89l3.25-.685 10.336-2.151 8.127-1.334.127-.5c1.91.44 3.986.543 6.119.267a21.922 21.922 0 0 0 4.67-1.132v.322l6.61-.8 3.534-.406 4.258-.142 3.754-.101v.01l.378-.02c.836-.022 1.72-.087 1.72-.09l3.515-.18c2.107-.11 4.283-.223 6.377-.276 2.442.023 4.826.108 7.684.217l.076.003.088.016.365.002.471.018.09-.018h.11c2.444.003 4.755.008 7.123.074 1.197.068 9.186.548 17.912 1.536l3.391.403 3.625.368c1.654.171 3.274.348 4.92.56 1.2.19 9.353 1.497 18.112 3.394l3.018.67 4.001.816c1.467.304 2.915.614 4.379.954 6.127 1.577 12.46 3.448 19.362 5.725l5.886 1.94-.478-9.872zm-26.509-65.63c0-2.588-.57-5.11-1.64-7.537a16.806 16.806 0 0 0 1.675-.542c1.668 3.244 2.564 6.656 2.564 10.18 0 8.404-5.07 16.18-13.677 22.522a289.057 289.057 0 0 0-7.915-1.593c11.774-5.798 18.993-13.78 18.993-23.03zm-70.432-36.552c6.284 0 12.383.42 18.201 1.21-1.635.222-3.3.592-4.965 1.05a138.92 138.92 0 0 0-12.624-.57c-28.348 0-52.748 8.435-63.686 20.553l-1.92-.121a3.578 3.578 0 0 1-.333-.762c11.991-12.665 36.738-21.36 65.327-21.36zM28.023 89.32l4.21-.405c1.325 5.061 4.89 9.654 10.187 13.604.892 1.695 2.14 3.257 3.643 4.611-2.032.402-3.9.794-5.582 1.162-7.056-5.48-11.521-11.967-12.458-18.972z" fill="#0B4171"/><path d="M48.58 132.588c-.713-.586-1.425-2.227-1.818-3.11-2.444-5.62-4.887-11.21-7.324-16.77-.568.117-1.136.23-1.703.348a4308.15 4308.15 0 0 0-7.008 18.344c-.918 2.405-1.944 6.025-4.832 6.775v1.27c1.338-.367 2.678-.763 4.02-1.111.763-.16 1.527-.31 2.293-.454-1.358 5.51-3.73 7.51-9.039 8.868-5.828 1.53-5.724-1.43-5.727-6.292v-13.974c.003-3.929-.052-6.2 4.53-7.275v-1.73c-2.913.812-5.865 1.732-8.764 2.631-2.515.693-4.977 1.355-7.477 2.114v1.729c4.534-1.59 4.447.725 4.444 4.655v16.23c.003 3.947.09 6.145-4.444 7.447v1.73c2.69-.916 5.34-1.828 8.05-2.668 2.845-.8 11.514-3.138 20.231-4.977.108-2.966.357-10.173.357-10.173-1.31.179-2.935.443-2.935-1.284 0-.955.53-2.206.847-3.161l.425-1.119a313.07 313.07 0 0 1 7.832-1.653c.25.622.498 1.245.747 1.868.212.487.673 1.634.673 2.199 0 1.517-1.882 1.81-2.946 2.17v1.274c1.846-.413 3.729-.845 5.58-1.22 1.855-.309 3.714-.574 5.574-.845l-.004-1.39c-.584-.03-1.148-.138-1.582-.446zm-15.201-3.873a5100.3 5100.3 0 0 1 3.327-8.842c1.041 2.489 2.08 4.982 3.122 7.482a306.7 306.7 0 0 0-6.45 1.36zm120.298 13.1c-5.912-1.033-5.821-3.947-5.819-8.812v-13.971c-.002-3.93-.045-6.226 4.609-5.284v-1.727c-2.956-.47-5.965-.853-8.933-1.234-2.577-.418-5.108-.848-7.693-1.202v1.728c4.68.426 4.579 2.701 4.58 6.63v16.23c-.001 3.947.1 6.186-4.58 5.472v1.73c2.778.28 5.507.545 8.277.902 2.918.46 11.76 1.94 20.473 3.903.114-3.034.226-6.066.338-9.1-.69-.15-1.38-.295-2.071-.442-1.35 5.15-3.711 6.165-9.18 5.176zm-89.961-20.83c-2.777-.909-6.473-1.38-6.473-4.978 0-2.593 2.432-4.297 4.818-4.606 4.237-.554 7.019 2.382 7.898 5.984a292.6 292.6 0 0 1 2.1-.212l-.295-8.615c-.699.068-1.398.14-2.098.215-.212.644-.423 1.293-.635 1.94-1.952-1.568-4.683-1.825-7.31-1.477-5.65.742-10.207 4.695-10.207 10.6 0 5.283 3.54 7.08 7.918 8.344 3.405.951 8.086 1.614 8.086 6.084 0 2.977-2.731 5.107-5.555 5.48-5.403.721-7.634-2.928-8.994-7.087-.646.105-1.293.21-1.94.32v9.989c.712-.12 1.423-.237 2.135-.351.226-.918.452-1.833.68-2.75 2.184 1.862 5.343 2.448 8.46 2.044 5.99-.79 11.561-4.644 11.56-11.127.001-6.434-4.934-8.251-10.148-9.798zm130.024 23.76c-.629-.205-1.26-.404-1.89-.604-1.183 5.064-3.256 6.012-8.632 4.477-5.62-1.567-5.486-4.366-5.482-8.893v-5.618c4.392 1.168 5.623 2.314 6.529 6.982.633.182 1.266.367 1.9.552-.047-1.982-.143-4.027-.19-6.01.047-2.196.143-4.376.19-6.571-.634-.188-1.267-.37-1.9-.553-.192 4.416-2.662 4.412-6.53 3.39v-8.882c0-.386 0-2.497.143-2.7.288-.458 3.342.366 3.912.531 4.572 1.274 7.268 3.608 8.074 8.606.678.207 1.356.42 2.033.634a13223 13223 0 0 0-.378-8.57c-5.767-1.764-11.624-3.316-17.467-4.73-2.73-.727-5.42-1.457-8.162-2.111v1.728c4.617.893 4.518 3.156 4.518 7.085v16.23c0 3.946.1 6.198-4.518 5.017v1.73c2.743.556 5.433 1.094 8.162 1.727 6.609 1.7 13.174 3.673 19.688 5.82-.048-1.312-.142-2.593-.19-3.904.048-1.808.142-3.557.19-5.364zm-70.252-6.792c-5.967-.44-5.872-3.364-5.872-8.228v-13.97c0-3.93-.048-6.22 4.649-5.745v-1.73c-2.984-.17-6.017-.254-9.004-.337-2.599-.164-5.146-.34-7.742-.436v1.73c4.703-.04 4.604 2.242 4.605 6.17v16.23c0 3.675.082 5.86-3.703 5.945l-.035-.006c-1.158-.17-2.403-.433-3.27-1.198-.98-.97-1.96-3.377-2.499-4.675a5500.555 5500.555 0 0 0-8.964-21.801 112.559 112.559 0 0 0-3.942-1.56c-3.08 7.38-6.16 14.801-9.236 22.273-1.27 3.07-2.69 7.767-6.698 8.172v1.73c1.858-.218 3.715-.467 5.573-.65 2.055-.102 4.11-.136 6.167-.196v-1.73c-1.812-.05-4.062-.047-4.062-2.399 0-1.296.733-2.88 1.173-4.109.197-.476.392-.954.587-1.429a310.56 310.56 0 0 1 10.825-.463l1.03 2.713c.293.715.931 2.382.931 3.152 0 2.06-2.598 2.021-4.068 2.263v1.73c2.548-.13 5.146-.278 7.695-.343 2.63.025 5.26.123 7.891.223v.016c.15 0 .3 0 .45.002l.417.015c.02.002.042.002.063.002v-.017c2.473.004 4.917.004 7.397.076 2.94.168 11.853.766 20.679 1.848.115-3.044.23-6.09.342-9.133-.7-.08-1.399-.158-2.097-.234-1.366 5.285-3.757 6.54-9.282 6.1zm-41.342-10.405a5944.09 5944.09 0 0 1 4.603-11.274c1.438 3.622 2.873 7.252 4.312 10.892-2.974.085-5.945.212-8.915.382z" fill="#FCCB06"/><path d="M145.844 77.356c3.18.58 8 1.605 10.427 2.862-2.046.427-39.445 15.752-45.925 24.807l-.199.155c1.307-1.808 2.818-3.622 4.49-5.417 2.78-2.714 6.927-6.232 12.027-8.952a3.784 3.784 0 0 0-1.543-.368c1.156-2.086 1.067-8.723.35-12.135 2.793-.934 12.368-2.021 20.373-.952zm30.927-13.54c0 5.574-5.386 10.094-12.034 10.094-6.463 0-11.734-4.276-12.017-9.64a6.701 6.701 0 0 1-.066-1.013c.092-2.924 1.652-5.197 3.87-7.002-3.226 1.311-5.707 5.238-5.736 5.283l-.166.266-.247-.195c-.035-.028-1.346-1.04-3.589-2.2-2.146-.933-5.087-1.887-8.547-2.159 6.059 2.943 11.08 6.696 11.327 10.101.128 1.774-1.625 4.297-4.288 7.046-11.67-.67-19.366 1.441-20.868 1.847-1.625.287-3.342 1.126-3.342 1.126s4.323 11.639 1.009 14.751c-4.148 2.422-13.335 8.66-19.599 19.417-5.265-2.801-12.468-5.224-16.847-6.883-3.405-1.287-8.788-2.528-13.443-3.53-.272-1.994-2.072-4.9-1.896-3.675.222 1.53-.936 4.523-.936 4.523-2.091 4.067-5.327 6.088-8.785 6.62-1.903-.587-2.85-3.145-2.85-3.145-.976.81-1.982 2.072-2.564 2.852-5.406-1.353-10.185-5.676-10.761-10.829-.39-3.466 1.684-7.194 4.575-10.603.044.139.086.272.138.417 1.132 3.247 5.51 4.596 7.06 4.977l1.465.484.095.095S60 88.305 68.058 89.52c0 0-1.503-1.656-5.993-.948-2.227.35-4.494 1.46-5.925 2.273l-.045-.032c-2.516-1.608-3.955-4.137-4.728-6.007-.24-.584-.21-.378-.333-.788-.172-.572 1.246-1.504 1.246-1.504l-.274-.308-3.384.23-.026.032-15.811.869c-.932-1.945-1.45-4.221-1.384-6.655.013-.574.065-1.139.14-1.693a14.762 14.762 0 0 0-1.284 5.686 14.872 14.872 0 0 0 .693 4.91l-13.348 1.286c-.713-2.736-1.813-5.571-1.813-8.48 0-2.939 1.109-5.802 1.834-8.56l14.244 1.371c-.212.672.497 2.046.497 2.046l18.1 1.138c.775-3.02 4.292-7.725 4.292-7.725 8.046 3.528 17.237 4.116 17.237 4.116s.655 1.247 1.209 3.512c.28 1.84.657 5.84-.767 7.876l-12.969 1.147c-.511.204-2.234 1.703-1.825 2.412.203-.404 1.02-.71 1.02-.71l10.971-.725c1.056 1.044.92 2.889-.09 4.126.502-.051 1.936-1.018 3.087-2.583 8.995-.648 17.563-1.392 17.563-1.392l-.049 3.26s.143.052.366.138c.999.647 2.914 1.96 4.16 3.283l.096.084c.002.01.007.018.009.026.258.284.483.566.66.843a.71.71 0 0 0 .582.022c.271-.12.418-.413.42-.753a.162.162 0 0 0-.012-.02l.013.018c.002-.002.286-.474.281-.478.461-.676 1.361-1.53 2.954-1.462.308.013.628.032.952.05a8.94 8.94 0 0 0 1.147-.052v-.007l.164-.023c1.16-.165 4.64-4.44 4.144-4.933-.876 1.304-2.94 2.364-4.266 2.876l-.042-.012c-1.154-.388-2.211-1.142-3.571-1.166-1.814-.032-3.804 1.443-4.22 2.332a45.992 45.992 0 0 0-1.627-1.245c-.079-.115-.127-.22-.122-.312.03-.587 2.612-4.137 3.482-9.791a14.12 14.12 0 0 0-.788-.425c.024-.34.07-.791.16-1.243-1.538-1.271-13.566-2.701-18.343-3.774-.861-.336-1.376-.695-1.4-1.11 0 0 1.741.472 3.298.237 7.416-.681 15.033-3.184 20.109-5.258 1.188-2.016 1.531-7.357 1.531-7.357 5.048-1.022 13.292-5.397 20.237-5.84-3.376 2.682-6.777 5.504-10.528 7.93-.068.088-.22.24.05.133 6.44-3.28 12.805-7.002 17.723-9.749a58.543 58.543 0 0 0 2.972-1.596c5.056-2.933 14.997-6.038 24.413-4.658-2.614.476-6.134 1.556-7.894 2.96-1.252.936-1.872 1.507-2.365 2.097 2.974-1.406 9.228-3.307 16.886-1.607 8.543 1.897 15.345 9.316 14.997 15.959zM18.42 79.82c.925 0 8.857-.443 9.268-.455L27.505 79c-.1.003-7.985-.273-8.9-.273-.434 0-1.455-.78-1.468-.82l-.027 1.282c0 .033.047.63 1.312.63zm11.276 4.714c-.466-1.078-.793-3.404-.35-5.71-.578 1.676-1.038 1.657-1.538 1.81-.495.15-8.554.627-9.343.43-.79-.195-1.003-.5-1.25-1.185-.135 2.242.9 5.697.9 5.697l11.581-1.042zm22.83-6.035s-.064.62-.363.816c-.498.297-17.773.147-18.494-.05-.722-.195-1.237-1.226-1.237-1.226s.368 2.871 1.113 4.092l18.519-.939s.926-.7.463-2.693zm3.055 4.64c-1.23-1.2-.866-6.603-.866-6.603l-1.974-3.694s-.825.724-1.406 1.873c3.089.957 1.738 7.947 4.246 8.424zm54.14 9.76c-.212 1.406-1.111 3.305-2.366 4.556-1.395.11-2.87.001-4.42-.409-.67 1.919-2.64 2.898-2.64 2.898s-1.192-.046-1.197-.384c-.423-.65.11-2.866.647-4.576-.041-.035-.092-.068-.143-.103l.352-.23-1.748.238-.266.035c.27.527.226 1.036-.063 1.757-.504 1.781-1.284 3.09-.504 3.996 2.705 2.03 3.152 5.196 3.427 5.377.276.184 5.385-2.391 7.878-7.892.606-1.23 1.188-4.05 1.043-5.263zm4.049-21.1c-1.583 0-4.209-1.409-5.08-.857-2.398.85-8.136 5.097-12.408 5.53.101.5.624.968 2.323 1.47.338.467.54.867 1.786.968 1.886.268 5.185-1.938 4.916-2.138-.27-.2-2.392.535-2.526-.034 3.358-1.555 5.618-3.673 6.628-4.275.64-.367 4.596-.397 4.596-.397s.067-.166-.235-.267zm-39.213 8.887c.346-1.548.244-3.325.04-4.781l9.096.548.596-1.456 1.376.389h.502c.268.691.523 1.693.523 3.008a8.383 8.383 0 0 1-.475 2.842v-.078h-.693l-1.233.39s-.596-1.567-.9-1.422l-8.832.56zm38.308-20.489c3.791-1.446 8.527-2.989 15.263-4.303 11.559-2.256 20.8 3.975 22.348 5.098.7-1.05 3.772-5.462 7.611-5.462l.014.301c-2.694 1.506-4.8 4.28-4.886 7.426-.125 4.515 3.775 7.924 8.78 7.924 5.222 0 9.47-3.544 9.47-7.915.28-5.357-5.184-11.149-11.933-12.647-6.785-1.507-14.632.665-16.609 1.783l-.802.453.413-.82c.642-1.273 2.347-3.437 3.914-4.574-4.585.018-15.382 3.38-22.172 6.999-3.754 2-7.859 4.03-11.41 5.737zM75.972 78.66s-.025.813-.215 1.119l7.716-.357s.525-.592.324-1.345c-.157.16-.342.469-.587.469-.245 0-7.238.114-7.238.114zm8.574 1.922l1.138-.21s.256-1.017.196-1.61c-.06-.593-.495.426-.974.07-.059-.355-.122 1.335-.36 1.75z" fill="#FFF"/></g></svg>