<svg width="200" height="200" xmlns="http://www.w3.org/2000/svg"><g fill-rule="nonzero" fill="none"><path d="M196.058 110.093s-11.842-14.124-37.35-18.288c.017-.206.016-.413.026-.619 23.14-2.63 41.18 4.668 41.18 4.668s-13.907-11.705-41.585-9.825c-.79-3.829-2.666-7.661-5.574-11.423 1.303-4.17 4.753-18.87-6.622-25.045 0 0-2.175-.294-5.818.33-3.836-2.734-8.315-3.867-9.986-4.212-10.568-15.645-24.472-21.25-28.615-19.05-3.653 2.22.614 5.356.553 12.15-11.293-.004-26.245 4.601-35.188 10.872-6.144-2.062-13.787-1.23-20.03-8.464-1.147-1.33-2.886-1.447-4.326-.293-2.577 2.067-4.15 7.54-3.27 13.988h-7.455L21.459 94.213h6.447l-10.92 40.758h-6.448L0 174.3h92.16c2.33-8.603 5.644-20.842 7.995-29.555 1.388.1 3.25.07 3.25.07s6.639.708 15.286-1.253c-.34.54-2.95 4.469-2.95 4.469 10-2.192 32.84-11.46 21.54-32.4-.025-.41-.06-.821-.108-1.233 3.239-.65 5.865-2.592 6.603-3.182 2.385-.939 4.89-2.527 7.077-4.478 13.135 11.864 22.4 31.685 22.4 31.685s.661-15.785-18.898-35.5c.134-.179.263-.359.391-.54 18.369 7.491 33.23 21.868 33.23 21.868s-6.41-15.34-30.725-26.428c.13-.316.244-.632.356-.951 14.883 1.015 38.45 13.22 38.45 13.22" fill="#FFF"/><path d="M186.334 104.078s-11.365-8.431-29.343-10.965c.172-1.078.252-2.195.224-3.347 5.185-.512 19.483-1.512 31 1.532 0 0-13.081-5.46-31.165-3.596-.533-3.951-2.353-8.262-6.027-12.806 0 0 6.312-17.098-5.365-23.817-2.559-.217-5.711.463-5.711.463-4.551-3.51-10.53-4.456-10.53-4.456-12.52-18.966-29.698-22.488-27.468-17.108.818 1.974 2.312 7.007 1.748 10.38-10.77-.415-26.952 4.084-36.368 11.008-8.518-3.102-14.515-1.124-21.456-9.165-2.282-2.645-6.617 4.567-4.611 14.277h-8.04L23.54 92.617h6.447l-11.776 43.95h-6.448l-9.682 36.138h88.886l9.272-34.425a24.711 24.711 0 0 1 1.967-2.081c4.8 3.295 8.294 3.278 11.135 3.481-1.716 1.9-4.493 3.605-4.493 3.605 3.912.016 9.308-1.124 12.988-2.034-1.039 1.98-2.436 4.08-2.436 4.08 19.556-5.779 22.75-18.74 16.351-29.25-.136-3.8-1.7-8.267-1.7-8.267 1.133 1.196 2.605 1.945 3.669 2.372a14.066 14.066 0 0 1-1.268 2.77c3.586-.56 6.516-3.085 6.516-3.085 2.498-.935 5.382-2.751 7.9-5.276 2.948 2.798 14.032 13.756 19.486 25.284 0 0-4.406-14.03-18.09-26.806a23.137 23.137 0 0 0 1.913-2.614c3.885 1.602 18.075 7.804 27.281 16.53 0 0-9.078-11.35-26.263-18.346a19.607 19.607 0 0 0 1.352-3.5c5.087.732 19.292 3.186 29.787 8.935" fill="#231F20"/><path d="M111.644 41.047c-.448-2.063-1.42-3.646-1.935-4.375 2.14 1.448 3.818 3.32 4.933 4.775 2.404.344 4.182.655 4.635.735.554.173 1.104.363 1.653.562-4.037-5.429-10.551-10.719-15.036-11.59.578 1.399 1.922 5.162 1.769 9.466 1.36.122 2.708.27 3.981.427" fill="#C3B597"/><path d="M113.526 120.334s.248 2.572 3.717 1.975c0 0 2.874-2.417 1.043-7.207 0 0-1.284 3.424-4.76 5.232M132.959 114.436s-.818 3.258-2.466 4.28c0 0 .966.978 1.407 2.09 1.015-.878 2.811-3.043 1.059-6.37" fill="#FFF"/><path d="M112.613 102.101c-2.655-.059-3.1-.49-3.1-.49-2.467 8.468 4.122 15.834 4.122 15.834 3.92-1.376 4.717-6.21 4.717-6.21 1.412 1.164 2.371 5.651 2.371 5.651 5.538.343 10.238-2.091 10.238-2.091.893-6.948-5.303-10.79-5.303-10.79-2.798 2.288-3 7.29-3 7.29-5.259-3.214-5.124-9.297-5.124-9.297l-2.834.097c-1.667 3.633 1.15 12.12 1.15 12.12-4.752-3.79-3.237-12.114-3.237-12.114" fill="#8E0A26"/><path d="M124.131 101.993c-3.06.489-4.434-.135-4.434-.135.24 3.785 2.438 5.838 2.438 5.838-.582-2.594 1.996-5.703 1.996-5.703M128.975 118.654c-.407-.726-.947-.546-1.002.175-.03.407-.286 1.059-.462 1.466a20.666 20.666 0 0 0-.435-1.36c-.286-.785-.849-.69-1.016.01-.083.347-.227.884-.336 1.282-.188-.479-.402-.97-.492-1.189-.33-.776-.913-.735-1.066-.075-.072.317-.23.876-.356 1.315-.157-.46-.31-.925-.417-1.138-.168-.337-.874-1.1-1.144.026a18.5 18.5 0 0 0-.249 1.424c-.167-.322-.418-.85-.49-1.253-.12-.711-.55-1.044-.92-.196-.18.42-.501 1.05-.495 1.628 0 0 1.994.326 3.899.26 3.525-.12 5.23-.958 5.23-.958-.068-.64-.073-1.108-.249-1.417M139.49 104.729s-1.363 3.875.13 5.079c0 0 1.914-1.62 2.747-5.03.045-.187-2.713-1.367-2.877-.05M143.11 99.961c-2.894-1.695-5.482-1.336-5.482-1.336-5.303 2.479-10.337 2.97-10.337 2.97.792 1.115 5.875 1.202 9.077.427 4.236-1.021 6.852.551 6.852.551s.364-1.545-.11-2.612" fill="#FFF"/><path d="M136.539 81.33c-1.88-.019-2.619 1.465-2.619 1.465s-.618-1.378 1.687-2.225c2.301-.845 7.1 2.017 7.1 2.017-.778-.297-4.288-1.24-6.168-1.258Zm12.412.984c1.644.682 1.28 1.295.614 2.022-.012-.412.4-2.233-5.186-1.505 0 0 2.924-1.2 4.572-.517Zm-11.929 5.778s.71 2.84 3.491 4.274c0 0 1.197-2.65 1.986-6.567 0 0 1.71.632-.17 6.903 0 0 3.034-1.003 4.359-3.404 0 0-2.262-1.23-1.335-2.751.926-1.52 4.057 1.026 5.654-2.505 1.595-3.531-4.822-3.334-7.261-2.117 0 0-6.537-3.886-9.117-2.071-2.575 1.817-2.43 3.66.133 4.705 2.52 1.023 5.414-.916 5.217 1.756-.164 2.212-2.957 1.777-2.957 1.777Z" fill="#4F4C4C"/><path d="M135.607 80.57c-2.305.847-1.687 2.225-1.687 2.225s.74-1.484 2.619-1.466c1.88.018 5.39.961 6.168 1.258 0 0-4.799-2.862-7.1-2.017M149.565 84.336c.667-.727 1.03-1.34-.614-2.022-1.648-.683-4.572.517-4.572.517 5.587-.728 5.174 1.093 5.186 1.505" fill="#989696"/><path d="M112.083 71.415a2.863 2.863 0 0 1-3.061-1.708l-1.918-1.076c-.098.974.026 2.233.59 3.844 0 0-1.362-1.11-2.138-2.732-.325-.684-.546-1.457-.518-2.277l-1.739-.986c-1.074 3.118.95 7.905 4.39 7.908 1.772-.935 3.827-1.671 5.804-2.192l-1.41-.781" fill="#DEDDDE"/><path d="M105.038 67.466c.016-.51.128-1.036.372-1.57.128-.283.295-.569.503-.855l-1.071-.579c-.704.438-1.245 1.14-1.545 2.016.371.212.973.553 1.74.988M107.261 67.776a5.197 5.197 0 0 0-.157.855c.596.335 1.24.697 1.918 1.076-.31-.732-.396-1.802.318-2.786-.42-.233-.842-.465-1.263-.697a3.908 3.908 0 0 0-.816 1.552M112.083 71.415l1.41.781.005.003c1.074-.282 2.908-.646 3.902-.764 0 0-1.261-.716-3.104-1.75-.539 1.285-1.641 1.643-2.213 1.73" fill="#B4B3B3"/><path d="M112.394 68.62c-.018.484-.597 1.026-1.247.69.727-.125.731-.743.712-.99l-.873-.486c-.392.25-.586.737-.467 1.18a1.077 1.077 0 0 0 2.116-.26l-.24-.134" fill="#8E0A26"/><path d="M105.41 65.896a4.069 4.069 0 0 0-.372 1.57c-.028.82.193 1.593.518 2.277.776 1.622 2.138 2.732 2.138 2.732-.564-1.61-.688-2.87-.59-3.844.032-.314.086-.6.157-.855a3.908 3.908 0 0 1 .816-1.552l-2.164-1.183a4.909 4.909 0 0 0-.503.855" fill="#FFF"/><path d="M148.603 67.063c-.328.1-.42.131-.42.131.155.335.18.642.132.92l.69-.231c-.036-.277-.171-.606-.402-.82M146.744 68.635l.763-.25c.043-.432-.063-.736-.172-.925l-.499.16a.97.97 0 0 1-.092 1.015M145.568 69.015a.978.978 0 0 1-.67-.76l-.76.253c.407.133.736.33 1.17.603.037-.011.223-.084.26-.096" fill="#B4B3B3"/><path d="M145.755 68.451a.389.389 0 0 0 .52-.176c.051-.102.063-.319-.08-.448l-.005.002-.334.107c-.045.108-.04.32.177.4-.033.009-.065.018-.099.015-.258-.01-.3-.213-.292-.346l-.096.031a.405.405 0 0 0 .21.415" fill="#8E0A26"/><path d="M147.507 68.384c-.036.35-.169.782-.48 1.309 0 0 1.12-.598 1.288-1.58a1.529 1.529 0 0 0-.132-.919l-.848.266s0 .001 0 0c.109.19.215.493.172.924" fill="#FFF"/><path d="m148.315 68.114.69-.231c.116 1.59-1.254 2.712-2.11 2.486 0 0-1.144-.943-1.587-1.258.037-.011.223-.084.26-.096 0 0 .744.267 1.176-.38l.763-.25s-.107.797-.48 1.308c0 0 1.08-.524 1.288-1.58" fill="#DEDDDE"/><path d="M104.117 50.552c-.945-.136-1.759-.503-1.758-1.237-3.696.745-6.466 2.766-6.466 2.766s4.379-1.497 8.224-1.529M106.758 50.366c-.28.122-.771.212-1.327.24.834.08 1.61.252 2.27.556 3.894 1.787 12.822 6.05 12.822 6.05s-2.432-2.316-6.15-4.633c-.25.025-.558.037-.94.032-2.397-.03-3.731-1.309-3.246-2.082.035-.056.073-.111.114-.166a31.849 31.849 0 0 0-1.147-.506c-.6-.251-1.204-.436-1.804-.567-.108.524-.314.952-.592 1.076M121.426 68.65c-.504-.33-1.066-.69-1.676-1.075a1.092 1.092 0 0 1-.645-.081c-.218-.096-.67-.507-1.12-1.013a120.501 120.501 0 0 0-3.375-1.983c-.351.179-.291-.145-1.362-.729a2.201 2.201 0 0 1-.269-.172 81.575 81.575 0 0 0-4.15-2.105c-.242.169-.63.149-1.334-.333a3.001 3.001 0 0 1-.584-.528 40.838 40.838 0 0 0-3.994-1.486c-.033.009-.061.018-.096.026-1.579.358-4.03.561-3.718-.532.031-.11.077-.212.133-.31a10.45 10.45 0 0 0-2.077-.047c.122.521-.173 1.25-.625 1.857 2.195-.344 5.044-.116 8.52 1.535 3.778 1.795 16.874 9.44 16.874 9.44s.425-.35 1.144-.814c-.917-.39-1.596-.893-1.646-1.65M83.659 121.245c.038-.013.076-.023.114-.033a59.56 59.56 0 0 0-2.105-1.077c-.328.382-1.307.792-1.425 1.034-.02.041-.044.105-.074.183.843.404 1.694.831 2.543 1.285.179-.634.44-1.221.947-1.392M68.27 115.024a61.073 61.073 0 0 0-1.766-.493c-.008.03-.014.062-.024.092-.214.64-.675 1.14-1.207 1.335l.03.052s.76.174 2.054.539c.248-.738.785-1.385.908-1.521l.005-.004M72.94 116.53a95.717 95.717 0 0 0-4.219-1.372c.258.227.546.656.696 1.188.045.156-.03.448-.176.76.823.254 1.75.555 2.753.904v-.033c.143-1.292-.295-1.48.946-1.446M80.408 119.538a82.566 82.566 0 0 0-6.12-2.523c.468.51.575 1.335.402 1.982 1.174.453 2.41.961 3.679 1.525.284-.108.525-.221.69-.334.443-.305.91-.542 1.35-.65M78.945 113.354a42.04 42.04 0 0 1 4.531 2.345c.036-.369.154-.693.324-.967-1.706-.773-3.376-1.3-4.855-1.378M94.796 121.986a74.627 74.627 0 0 0-2.462-1.946c-.723.442-1.552.58-2.429-.304-.555-.562-.494-1.114-.15-1.555a49.77 49.77 0 0 0-3.103-1.967c.084.593.165 1.183.194 1.65 3.876 2.684 6.511 5.165 6.511 5.165-2.255 1.203-5.63.555-5.63.555a43.098 43.098 0 0 0-2.668-1.658c.007.25-.061.557-.235.926-.115.248-.282.48-.474.69.914.525 1.822 1.08 2.711 1.665 0 0 .315.086.847.166.25-.888.948-1.301 1.696-1.341.952-.161 2.059.322 2.445 1.23a9.832 9.832 0 0 0 2.574-.918c-1.022-.838-.702-1.795.173-2.358" fill="#AC9C77"/><path d="M72.4 53.77c2.35-1.546 19.651-12.109 48.157-8.11a26.415 26.415 0 0 0-3.996-1.285c-1.477.562-3.509.618-3.76-.029-.073-.188-.057-.408.026-.645-1.529-.197-3.2-.326-5.045-.394-1.025.393-1.845.8-2.19 1.15-.478.491-1.792-.291-2.284-1.196-.917.011-1.873.034-2.869.067.153.244.139.518-.183.802-1.077.948-4.085 1.458-4.758.758-.385-.402-.16-.834.303-1.222-1.03.12-2.041.268-3.034.44-.14.392-.51.902-1.11 1.517-1.072 1.098-3.466 1.627-3.786.71-.149-.428-.18-.798-.123-1.12-.688.184-1.365.38-2.032.583-.319 1.083-1.071 2.582-2.81 2.762-1.558.16-1.841-.53-1.793-1.158-.922.36-1.82.733-2.694 1.116.094.658-.246 1.487-1.016 2.108-1.082.876-2.226 1.332-2.81.737-.267-.269-.311-.596-.21-.942a112.052 112.052 0 0 0-4.126 2.193c.698.344 1.412.727 2.143 1.158" fill="#DFD7C6"/><path d="M136.33 94.97c-2.563-.95-4.118-6.916-4.118-6.916-4.23-2.02-4.327-6.28-4.327-6.28-3.242-2.206-6.628-2.993-8.818-3.27a7.62 7.62 0 0 1-1.257 1.354c2.651 2.624 8.776 6.151 8.776 6.151-4.15 1.908-8.495.692-10.432-.048a10.69 10.69 0 0 1-.422.233c3.6 3.492 12.21 4.892 12.21 4.892-4.62 2.39-9.42 1.69-11.75 1.109.032.131.052.259.059.377 4.759 2.041 13.21 1.854 13.21 1.854-10.12 4.844-20.182 2.64-20.182 2.64 8.724 4.646 29.614-1.144 27.05-2.096" fill="#EAE4D8"/><path d="M133.13 53.196a16.918 16.918 0 0 1 3.342 1.843c.598-.755 1.184-1.197 1.184-1.197a6.415 6.415 0 0 0-.825-.701c-.13.223-.413.247-1.326.217-1.053-.036-1.338-.913-1.053-1.497a17.896 17.896 0 0 0-2.726-.868c.825.896 1.224 1.633 1.404 2.203M148.118 59.403c.107-.1.292-.126.52-.094-1.03-3.83-3.912-4.937-3.912-4.937-.535.022-1.041.069-1.526.135l.008.087c.01.195.011.375.009.547.398.251.808.553 1.22.917.068-.124.169-.242.318-.348.957-.68 3.338.907 2.564 2.335-.201.371-.43.6-.666.715.788 1.31 1.492 2.983 2.01 5.125.082.044.155.099.215.162.133-1.086.15-2.061.074-2.93-.661-.61-1.268-1.309-.834-1.714" fill="#DFD7C6"/><path d="M115.627 129.429c-1.376-.209-2.56-.608-3.59-1.15.042.298-.236.949-.622 1.417 1.527.303 3.037.142 4.212-.267" fill="#EAE4D8"/><path d="M114.977 61.529c2.081 1.144 3.486 1.985 3.486 1.985-2.162-2.026-4.089-3.622-5.804-4.873-.832-.241-1.617-.695-1.765-1.217-8.04-5.21-10.648-2.098-10.648-2.098 3.178.395 8.444 2.876 12.5 5.004 1.077.103 1.798.594 2.23 1.199M139.08 69.883a36.643 36.643 0 0 0-5.512-3.777c-.285.217-.602.332-.933.258-.513-.116-.734-.584-.662-1.1-.521-.255-.826-.386-.826-.386a1.77 1.77 0 0 1-.194.233c.181.468.268 1.013.265 1.478a9.74 9.74 0 0 1 2.203.634c1.206-.194 2.17.44 2.56 1.408a19.307 19.307 0 0 1 2.4 1.954 2.42 2.42 0 0 1 .7-.702" fill="#DFD7C6"/><path d="M83.85 79.387s-.32.22-.856.62c.028.039.054.078.079.118.259-.258.517-.506.776-.738M96.76 66.855c-.338 2.123-.403 5.03 1.198 6.907 1.628 1.909 3.906 2.123 5.507 1.975-1.76-1.154-5.344-4.158-5.968-9.78-.08.153-.18.313-.308.478a2.272 2.272 0 0 1-.428.42" fill="#AC9C77"/><path d="M120.823 66.368s2.418-.543 4.596-2.06a1.671 1.671 0 0 1-.56-.296c-1.413 1.325-3.137 2.103-4.036 2.356M127.007 58.478c.032.165.057.331.066.503a5.816 5.816 0 0 1-.258 2.044c.312.324.586.745.798 1.157a6.441 6.441 0 0 0 1.16-3c-.52-.18-1.046-.399-1.498-.585a6.307 6.307 0 0 1-.268-.119M128.123 56.208c-.724-1.137-1.952-2.155-3.4-3.043-.155.478-1.662.607-3.194.25-1.59-.367-2.749-2.042-1.845-2.597l.057-.03c-3.3-1.261-6.234-1.93-6.234-1.93 2.524 1.13 4.667 3.825 4.667 3.825 2.3.593 5.826 1.764 7.675 3.706.074-.068.157-.136.26-.201.493-.314 1.24-.25 2.014.02" fill="#DFD7C6"/><path d="M139.22 71.447c.822-.09 1.728.134 1.728.134a29.362 29.362 0 0 0-1.867-1.698 2.42 2.42 0 0 0-.7.702c.536.513.838.862.838.862M104.966 116.95l-.272-.989c-.118.244-.23.46-.342.61-.26.346.078.463.614.379M101.683 106.665a79.022 79.022 0 0 0-.71-1.786c-.158.657-.043 1.404.71 1.786M102.69 111.094c.244.247.485.415.721.519a96.464 96.464 0 0 0-.738-2.225c-.456.462-.604 1.078.016 1.706M112.037 128.28c-.534-.28-1.027-.6-1.482-.953-.32.453-.74 1.19-.707 1.883a7.774 7.774 0 0 0 1.567.486c.386-.468.664-1.119.622-1.416M108.232 124.848c-.722-1.038-1.298-2.185-1.783-3.372-.116.276-.183.59-.178.94.017 1.05 1.053 1.943 1.961 2.432M132.635 66.364c.33.074.648-.041.933-.258-.64-.358-1.185-.64-1.595-.841-.072.515.15.983.662 1.099M112.659 58.641a39.412 39.412 0 0 0-1.765-1.217c.148.522.933.976 1.765 1.217M112.745 60.33c.8.42 1.551.826 2.232 1.199-.433-.605-1.154-1.096-2.232-1.199M133.42 67.223c.934.387 1.799.887 2.56 1.408-.39-.967-1.353-1.602-2.56-1.408M130.953 65.111c-.602.628-1.961 1.45-1.961 1.45.755-.11 1.5-.086 2.226.028a4.195 4.195 0 0 0-.265-1.478M124.858 64.012c.166.135.355.232.561.296.81-.565 1.587-1.267 2.194-2.126-.212-.412-.486-.833-.798-1.157-.375 1.197-1.108 2.19-1.957 2.987M128.123 56.208c-.774-.27-1.52-.334-2.014-.02a1.826 1.826 0 0 0-.26.2c.587.617 1.002 1.312 1.158 2.09.087.041.176.081.268.119.452.186.979.406 1.498.585a6.61 6.61 0 0 0 .05-.698c.013-.805-.246-1.564-.7-2.276M121.53 53.415c1.531.357 3.038.228 3.193-.25-1.53-.94-3.302-1.735-4.982-2.377l-.057.03c-.904.555.256 2.23 1.845 2.597M114.748 91.76c.437.303.945.573 1.503.812a2.027 2.027 0 0 0-.06-.377c-.91-.227-1.443-.436-1.443-.436M119.067 78.503c-1.457-.184-2.385-.144-2.385-.144.16.431.568.946 1.128 1.5a7.62 7.62 0 0 0 1.257-1.356M115.116 85.513c.183.236.39.462.616.681.138-.072.28-.15.422-.233-.657-.251-1.038-.448-1.038-.448M105.329 120.154c-.098-1.479-1.137-1.584-2.12-1.202.342.954.711 1.925 1.104 2.885.664-.269 1.074-.77 1.016-1.683M148.663 63.885c.12.215.238.434.35.659.06-.17.103-.332.15-.497a2.703 2.703 0 0 0-.5-.162M148.118 59.403c-.434.405.173 1.104.834 1.714a10.429 10.429 0 0 0-.314-1.808c-.228-.032-.413-.006-.52.094M147.32 58.045c.773-1.428-1.608-3.015-2.565-2.335-.15.106-.25.224-.317.348.756.667 1.518 1.543 2.215 2.702.236-.116.465-.344.666-.715M135.505 53.358c.913.03 1.196.006 1.326-.217-.732-.53-1.584-.953-2.379-1.28-.285.584 0 1.461 1.053 1.497M74.592 51.36c.585.596 1.73.14 2.811-.736.77-.621 1.11-1.45 1.016-2.108a82.882 82.882 0 0 0-4.037 1.903c-.1.346-.056.673.21.942M82.905 48.558c1.74-.18 2.492-1.68 2.81-2.762a64.808 64.808 0 0 0-4.602 1.604c-.048.629.235 1.318 1.792 1.158M87.871 46.333c.32.917 2.714.388 3.786-.71.6-.615.97-1.125 1.11-1.517-1.73.3-3.405.674-5.019 1.107-.056.322-.026.692.123 1.12M112.801 44.346c.251.647 2.283.591 3.76.029-1.155-.276-2.39-.501-3.734-.674-.083.237-.099.457-.026.645M95.498 44.888c.673.7 3.68.19 4.758-.758.322-.284.336-.558.183-.802l-.365.012a53.717 53.717 0 0 0-4.273.326c-.463.388-.688.82-.303 1.222M105.592 44.457c.345-.35 1.165-.757 2.19-1.15a92.436 92.436 0 0 0-4.474-.046c.492.905 1.806 1.687 2.284 1.196" fill="#A08F66"/><path d="M135.35 59.16c.073-.367 2.935.835 2.585 2.184-.347 1.351-3.133.586-2.584-2.185Zm6.655-.37c1.39.208 1.626.747 1.626.747-.359 1.19.062 1.304-1.6 1.25-1.66-.055-1.418-2.204-.026-1.997ZM121.43 48.248a.695.695 0 0 1-.126.118c7.12 2.256 11.96 7.575 10.48 12.173-.466 1.45-1.24 2.544-2.164 3.371.194.053.389.127.58.223.333.17.584.54.753.978a1.77 1.77 0 0 0 .194-.233s.305.13.826.387c.049-.355.24-.732.57-1.03-.072-3.145 1.263-4.636 1.263-4.636-.127 1.576.454 3.325.454 3.325 2.726.298 6.072 3.4 6.072 3.4.275-.746.59-1.37.929-1.895-.78-.179-1.703-.751-2.074-1.652-.562-1.375.137-1.523 1.041-1.05.672.352 1.604.831 2.04 1.479 2.397-2.245 5.317-1.02 5.317-1.02-1.906.478-3.254 1.665-4.125 2.731.486-.196.96-.257 1.31-.038.374.236.487.591.448.968l1.42-.514c-.013-.48.53-1.504 1.121-1.582.34-.046.662.003.904.134-.518-2.142-1.222-3.814-2.01-5.125-.504.248-1.041-.02-1.422-.519-.473-.621-1.164-1.51-.793-2.183a9.55 9.55 0 0 0-1.221-.917c-.028 1.911-.778 2.484-.85 2.265-.058-.175-.979-1.64-1.459-2.401a12.74 12.74 0 0 0-2.26.937c.007.003.014.004.02.008.817.377 1.642 1.538 1.723 1.928 0 0 .333.498-1.248.414-1.236-.068-2.06-.688-2.22-1.226-1.155.914-1.68 1.706-1.68 1.706-.175-1.555.538-2.861 1.234-3.74l-.005.007a16.918 16.918 0 0 0-3.342-1.843v-.002c.132.417.144.74.12.974.943.244 1.12.646 1.12.646-.36 1.189.06 1.306-1.6 1.25-1.56-.053-1.44-1.95-.265-2.01a157.443 157.443 0 0 0-3.037-2.626c-.2.022-.485.018-.9.005-1.088-.038-1.353-.972-1.018-1.554-.325-.25-.639-.486-.945-.708-.196.075-.43.132-.717.162-2.076.214-1.89-1.08-1.67-1.732-.524-.31-1.063-.61-1.642-.917-.011.64-.896 1.232-1.146 1.564Z" fill="#C3B597"/><path d="M133.568 66.106c1.498.84 3.511 2.104 5.513 3.777.249-.156.426-.183.426-.183.898.025 1.353.83 1.466 1.72.044.356.045.757-.039 1.11 1.64.07 4.076.695 6.6 3.212-2.873-3.396-5.774-5.868-8.282-7.636-.159.001-.346-.003-.578-.01-.856-.03-1.203-.612-1.152-1.143a34.075 34.075 0 0 0-3.177-1.774c-.208.355-.475.699-.777.927M138.248 70.796a3.39 3.39 0 0 1 .133-.21 19.307 19.307 0 0 0-2.4-1.955c.09.224.153.464.177.718.041.425.003.746-.083.987a21.252 21.252 0 0 1 2.128 1.738c-.158-.44-.17-.906.045-1.278" fill="#C3B597"/><path d="M102.127 106.829a2.056 2.056 0 0 1-.444-.164c.321.84.653 1.748.99 2.723.403-.41 1.047-.697 1.612-.768a80.163 80.163 0 0 0-.76-2.206c-.39.325-.895.538-1.398.415M123.011 131.804c-.01 1.268-.284 2.124-.284 2.124 2.122-.327 4.61-1.656 4.61-1.656-2.259 2.293-6.613 3.35-6.613 3.35 1.048-1.087.922-2.266.922-2.266-2.877 1.159-7.107.64-7.107.64 3.64-.063 8.472-2.192 8.472-2.192Zm-13.484-6.583c-.168.093-.704-.054-1.295-.373.646.93 1.41 1.77 2.323 2.48.146-.207.27-.356.322-.413.208-.226.889.394 1.152 1.322a.303.303 0 0 1 .008.043c1.03.541 2.214.94 3.59 1.149-1.175.41-2.685.57-4.212.267-.41.5-.942.792-1.333.228a1.326 1.326 0 0 1-.234-.714c-1.504-.651-2.915-1.842-3.913-3.798a46.72 46.72 0 0 1-1.622-3.575c-.454.184-1.027.26-1.654.279-.12.004-.225.003-.324 0 .475.939.954 1.93 1.433 2.981-.358.917-.9 2.053-1.626 2.842 0 0 3.377 4.238 9.94 4.517a6.591 6.591 0 0 1-3.87 2.769s4.27 2.17 10.39.94c-.459 1.128-1.21 2.39-2.4 3.028 0 0 7.105-.644 11.666-4.059-.095 1.128-.336 2.473-.93 3.5 0 0 7.52-3.195 8.651-11.914-2.415.555-3.3-.218-3.3-.218.901 2.725-.85 4.005-.85 4.005.239-2.156-2.012-3.183-2.012-3.183.934 1.32.06 3.705.06 3.705-2.04-.674-2.475-3.175-2.475-3.175-.45 2.678-3.024 4.355-3.024 4.355 1.088-1.802.33-3.984.33-3.984-.942 2.345-4.538 3.247-4.538 3.247 1.171-1.708 1.149-3.097 1.149-3.097-1.136 1.409-4.092 2.314-4.092 2.314.906-.995.946-2.296.897-2.949-2.01.224-5.38-.253-8.056-3.834-.022-.03-.044-.064-.065-.095.079.734.093 1.309-.086 1.41ZM103.411 111.613c.341 1.07.683 2.202 1.021 3.405.087.308.174.624.262.943.321-.663.695-1.539 1.257-1.889-.256-.874-.519-1.774-.797-2.693-.53.334-1.119.508-1.743.234M106.45 121.476a2.387 2.387 0 0 1 1.404-1.3c-.425-1.167-.836-2.486-1.258-3.909a4.047 4.047 0 0 1-1.63.683c.415 1.485.877 3.037 1.483 4.526M116.359 83.425a10.972 10.972 0 0 1-3.118-3.103s-.842 2.147.493 4.645c.022-.055.044-.11.07-.168.466-1.002 1.48-1.578 2.555-1.374M116.154 85.96c1.937.74 6.283 1.957 10.432.05 0 0-6.125-3.528-8.776-6.152a4.43 4.43 0 0 1-.694.486c1.498 1.863 4.04 4.078 8.087 5.088 0 0-3.737.52-7.414-1.208.246.442-.692 1.189-1.635 1.737" fill="#D1C6AE"/><path d="M134.675 86.521c-4.748-1.744-4.372-5.192-2.341-7.236 2.16-2.175 6.298-2.8 11.572.532 0 0 3.771-1.308 6.468-.374-.934-1.55-1.893-2.756-2.84-3.7-2.524-2.518-4.96-3.143-6.6-3.212-.07.295-.2.555-.415.727 4.511 1.756 4.645 5.174 4.645 5.174-3.862-2.59-7.13-1.264-7.13-1.264.979-.973 1.916-1.478 2.64-1.741-1.67-.974-3.586-.882-3.586-.882-8.988-9.902-14.977-1.38-14.977-1.38l.885 2.04s2.235-3.857 5.76-3.534c3.523.324 4.851 2.17 4.851 2.17s-3.57 2.93-3.774 6.285c0 0-9.007-6.524-14.56-2.829 0 0 .106.289.347.76.113-.115.244-.225.402-.322 1.456-.893 2.503-.945 3.428-.391.211.124.012.606-.383 1.16 2.19.277 5.576 1.064 8.818 3.27 0 0 .097 4.26 4.327 6.28 0 0 1.555 5.966 4.117 6.916 2.564.952-18.326 6.742-27.05 2.095 0 0 10.062 2.205 20.181-2.639 0 0-8.45.187-13.21-1.854.01.202-.02.38-.099.513a.814.814 0 0 1-.507.396c2.216.998 5.454 1.692 10.181 1.682 0 0-10.982 2.042-16.986-.636 0 0-1.081 2.165.488 5.155 0 0 23.829 2.972 30.558-5.488 0 0-4.606-1.737-5.21-7.673" fill="#D1C6AE"/><path d="M114.51 90.102c.795.273 1.479 1.274 1.681 2.093 2.331.58 7.131 1.28 11.752-1.109 0 0-8.611-1.4-12.211-4.892a6.73 6.73 0 0 1-.84.375c1.551 1.669 4.293 3.326 9.063 4.475 0 0-7.404 1.67-12.989-4.491 0 0-.417 2.082 1.119 4.198.028-.404.194-.766.46-1 0 0 .823-.04 1.965.351M152.967 84.31c-.333.978-.804 2.288-2.773 3.224-1.449 1.964-.379 3.126-7.077 7.15.18 1.703-.606 2.837-.606 2.837 5.489 1.615 1.783 8.323 1.783 8.323 4.34-1.837 12.522-10.901 8.673-21.533" fill="#D1C6AE"/><path d="M96.801 78.656c.953.211 1.928.446 2.925.71.108-.202.218-.398.334-.587 0 0-1.455-.09-3.048-.993.01.33-.044.628-.21.87" fill="#C3B597"/><path d="M100.06 78.779c-.116.189-.226.385-.334.587.559.147 1.124.304 1.696.47.48-.81 1.037-1.58 1.685-2.287-1.864-.159-4.935-.722-6.773-2.664.115.849.649 1.992.678 2.9 1.593.904 3.048.994 3.048.994M122.11 73.165c-2.2-.305-7.726.28-12.451 2.416.04.616-.158 1.556-.611 2.104-.599.725-2.484.443-3.015.021a12.29 12.29 0 0 0-2.184 2.114c.58-.132 1.273-.099 2.068.204.546.208.491.751.126 1.315.441.16.885.325 1.332.497 2.394-3.559 5.695-5.102 5.695-5.102s3.634-4.396 9.926-1.529l-.885-2.04" fill="#AC9C77"/><path d="m155.892 89.267.037-.79c7.448-.887 17.598-.645 24.696.996-10.43-1.92-22.316-.478-24.733-.206M155.461 94.35c.106-.346.139-.46.226-.755 7.445.924 17.232 3.594 23.723 6.89-9.66-4.367-21.538-5.817-23.949-6.135M154.1 99.741c.19-.31.25-.413.41-.675 6.96 2.783 15.739 7.854 21.173 12.689-8.22-6.676-19.334-11.097-21.583-12.014M151.034 103.903l.629-.48c5.466 5.112 11.798 13.018 15.098 19.493-5.226-9.2-13.966-17.345-15.727-19.013M108.574 88.184l.009-.79c-7.386-1.294-17.534-1.602-24.715-.354 10.526-1.347 22.31.74 24.706 1.144M107.362 93.572c-.055-.359-.071-.477-.117-.78-7.501-.098-17.569 1.217-24.46 3.597 10.178-3.01 22.146-2.832 24.577-2.817M108.344 99.578l-.325-.72c-7.25 1.936-16.587 5.923-22.574 10.078 8.98-5.65 20.553-8.716 22.9-9.358M109.773 84.36c.089-.352.118-.47.194-.765-6.878-2.98-16.669-5.64-23.943-6.095 10.55 1.137 21.513 5.91 23.749 6.86" fill="#B4B3B3"/><path d="M105.396 86.255c.24-.943.56-1.808.938-2.6-.66-.255-1.394-.53-2.19-.821-.13.045-.26.08-.388.101-1.288.21-1.257.567-1.589.167a12.567 12.567 0 0 0-.452 2.772c1.2.093 2.428.219 3.681.381M96.941 92.732c.52-.067 1.049-.128 1.583-.185v-.431c-.517-.23-1.022-.865-1.218-2.387-.137-1.068.153-1.773.633-2.176l-.568-.042a52.001 52.001 0 0 0-.376 3.25c.621.573.347 1.479-.054 1.971M92.426 95.098c-3.77 1.33-6.45 2.871-8.342 4.446-.044.338-.17.62-.335.71-.331.189-.882.847-1.503 1.094-3.715 4.366-2.29 8.46-2.29 8.46s-2.67-10.35 18.697-14.664c0 0-.027-.228-.056-.638-1.895.133-3.981.322-6.17.592M105.088 92.147a16.658 16.658 0 0 1-.056-3.853c-.344-.046-.705-.092-1.084-.14.09 1.014-.159 2.18-.826 2.46-.237.1-.492.114-.754.077.17.531.363 1.04.572 1.524a70.994 70.994 0 0 1 2.148-.068M103.974 94.246c1.265 2.151 2.587 3.45 2.587 3.45-.482-1.22-.84-2.379-1.098-3.48-.448.005-.946.015-1.49.03" fill="#AC9C77"/><path d="M95.777 118.668s-.923-3.648-3.16-7.768c-.365.681-.802 1.144-1.32.932-.901-.367-1.326-2.763-.493-3.89-.221-.322-.454-.64-.692-.956-3.678 1.745-7.4 3.812-10.674 6.19 1.65-.493 7.39-1.42 16.339 5.492" fill="#C3B597"/><path d="M87.458 105.971c-.126-.098-.194-.2-.178-.297.089-.548 2.48-2.549 3.812-2.37.319.042.343.834.11 1.621.908-.5 1.863-1 2.864-1.496-.327-.086-.528-.293-.491-.636.052-.483 1.23-1.787 2.222-2.004-.478-.448-.97-.735-1.463-.784 1.258-.44 2.56-.815 3.82-1.048 0 0 .195.324.53.96.277-.731.963-1.319 1.342-1.222a32.402 32.402 0 0 0-1.03-1.669s-17.488 3.176-19.008 12.578a3.84 3.84 0 0 0-.032.204c.01-.016 2.824-4.374 7.502-3.837M99.216 111.454c-.902.84-2.092 1.769-3.388.457-1.417-1.433 1.173-2.804 2.279-2.428 1.106.38 2.012 1.131 1.11 1.971Zm-1.365-7.757c-2.37.903-4.94 1.969-7.537 3.193.238.14.56.343.964.634.097-.05.201-.092.315-.12 1.792-.45 2.005.986 2.005.986-.085.239-.181.527-.288.835 1.487 1.405 3.354 3.51 5.399 6.601.186-.824.43-1.768 1.096-1.992 1-.338 1.825.199 1.165 1.605-.306.655-.963 1.202-1.538 1.512a62.144 62.144 0 0 1 2.015 3.466c.165-.49.944-1.146 1.762-1.465-1.672-4.658-2.704-8.853-2.704-8.853s-1.103-3.518-2.654-6.402Z" fill="#D1C6AE"/><path d="M96.225 100.77c.748.128 1.2.61.931 1.216.538-.236 1.085-.47 1.644-.7-.3-.427-.284-.924-.115-1.369-.336-.636-.531-.96-.531-.96-1.26.233-2.562.608-3.82 1.048.493.049.985.336 1.463.784.148-.032.293-.041.428-.018M108.232 124.848c-.908-.489-1.944-1.382-1.961-2.432a2.314 2.314 0 0 1 .178-.94c-.606-1.49-1.068-3.04-1.483-4.526-.536.084-.873-.033-.614-.38.112-.148.224-.365.342-.609a102.574 102.574 0 0 0-1.282-4.349 2.37 2.37 0 0 1-.723-.518c-.62-.628-.472-1.244-.016-1.706a88.831 88.831 0 0 0-.99-2.723c-.753-.382-.868-1.13-.71-1.786a69.518 69.518 0 0 0-.864-2.016c-.727.26-1.482.539-2.258.834 1.551 2.884 2.654 6.402 2.654 6.402s1.032 4.195 2.704 8.853c.983-.382 2.022-.277 2.12 1.202.058.912-.352 1.414-1.016 1.683a46.72 46.72 0 0 0 1.622 3.575c.998 1.956 2.409 3.147 3.913 3.798-.032-.693.387-1.43.707-1.883a11.194 11.194 0 0 1-2.323-2.479" fill="#EAE4D8"/><path d="M100.109 102.863c.27.603.56 1.274.864 2.016.17-.705.653-1.303 1-1.228.132.029.335.103.565.206a49.615 49.615 0 0 0-.697-1.602c-.556.19-1.136.394-1.732.608" fill="#D1C6AE"/><path d="M97.156 101.986c.27-.606-.183-1.088-.93-1.215a1.127 1.127 0 0 0-.429.018c.374.351.739.804 1.091 1.316l.268-.119M99.28 101.092c-.229-.468-.43-.86-.595-1.175-.169.445-.184.942.115 1.37l.48-.195" fill="#A08F66"/><path d="M104.443 99.23c-1.896-1.313-3.509-2.729-3.509-2.729s.674 1.308 1.625 3.358a72.2 72.2 0 0 1 1.884-.629M132.171 121.703c-2.085.978-3.85.301-3.85.301-4.646 1.242-8.802.54-8.802.54-.63 1.151-1.95 1.65-1.95 1.65-1.01-.03-2.993.258-4.576-1.034-1.126-.919-1.457-2.855-1.556-3.898.32-.135.64-.298.91-.444-6.566-8.29-5.435-15.157-4.642-17.727a9.973 9.973 0 0 1-.906-.416c-.922.272-2.071.624-3.391 1.056 1.519 3.42 3.372 8.01 4.448 12.186 2.05 7.954 4.768 14.12 11.401 11.428 6.634-2.69 10.59-1.069 13.26-1.88 2.668-.812 1.742-2.74-.346-1.762" fill="#8E0A26"/><path d="M123.011 131.804c-.01 1.268-.284 2.124-.284 2.124 2.122-.327 4.61-1.656 4.61-1.656-2.259 2.293-6.613 3.35-6.613 3.35 1.048-1.087.922-2.266.922-2.266-2.877 1.159-7.107.64-7.107.64 3.64-.063 8.472-2.192 8.472-2.192" fill="#DFD7C6"/><path d="m87.391 56.478-.099.371a42.339 42.339 0 0 1 3.051-3.173 4.643 4.643 0 0 1-.601.17 28.239 28.239 0 0 0-3.805 2.632h1.454" fill="#AC9C77"/><path d="M84.849 88.636c-.112-.345.119-.83.6-1.301a66.595 66.595 0 0 0-6.493.624l-.729 2.722c.208-.044.413-.085.61-.118.79-.731 1.925-1.487 2.733-1.433.502.033.408 1.94-.337 2.838-.304.368-.923.49-1.546.467a19.696 19.696 0 0 0-3.97 6.417c1.05-.536 4.892-2.392 10.758-4.017.088-1.094 1.504-2.388 2.719-2.03.642.19.882.647.906 1.124a74.382 74.382 0 0 1 3.87-.758 1.056 1.056 0 0 1-.255-.308c-.688-1.224 1.505-3.044 2.935-2.34.14.07.25.151.345.239.08-.952.2-2.067.376-3.25a106.698 106.698 0 0 0-8.444-.277c-.273.69-.84 1.431-1.383 1.632-1.14.417-2.44.555-2.695-.231" fill="#C3B597"/><path d="m77.925 91.806-.217.81H71.66a11.51 11.51 0 0 0-.709 2.179s1.147-.7 3.068-1.188c.243-.339.53-.607.84-.712 1-.337 2.024-.01 1.167 1.608a4.135 4.135 0 0 1-1.278 1.42c-1.078 2.516-2.057 6.653-.413 11.837.105.128.188.274.253.43-.283-2.09-.75-9.383 5.1-15.755-.84-.031-1.682-.325-1.763-.629M80.892 82.58a2.571 2.571 0 0 1-.335-.594l-.417 1.556c.247-.325.498-.647.752-.962M78.837 90.563c-.197.033-.402.074-.61.118l-.228.851c.138-.249.446-.606.838-.969M83.615 71.947c-.18.464-.423.898-.684 1.178l-.103.386c1.321.587 2.583.87 3.744.953-.012-.595.44-1.246 1.098-1.528 1.176-.507 1.803.06 2.344.405.208.134.199.45.04.804 2.009-.514 3.257-1.418 3.257-1.418.018.074.04.142.06.213.323-1.131.712-2.216 1.153-2.866-1.302.862-6.168 3.72-10.909 1.873M94.054 63.95c-4.15 4.506-7.367 4.186-8.612 3.81-.085.186-.185.36-.304.504-.214.26-.596.387-1.02.429l-.088.33c1.015.566 2.37.683 3.838.424-.361-.5-.467-1.066-.016-1.36.747-.485 2.151.15 2.827.467.85-.386 1.688-.873 2.475-1.447-.764-1.52 2.473-3.553 3.464-3.804.148-.262.287-.529.409-.803 0 0-3.84-.79-5.873.25 0 0 .782-.874 2.308-1.638-.409-.116-.74-.324-.885-.626-.1-.211.163-.579.602-.976a12.166 12.166 0 0 0-2.856 1.969c.08.033.156.073.229.128.56.426.3 1.284-.277 2.124 2.938-.555 3.779.22 3.779.22" fill="#AC9C77"/><path d="M118.006 61.068c-.862-.778.061-3.363 1.014-3.786.953-.42 4.059 3.57 2.581 3.759-.97.123-2.735.806-3.595.027Zm-10.603-6.7c-.646.557-2.936.491-2.811-.832.264-2.785 5.22-1.415 5.356-.787.095.445-1.897 1.065-2.545 1.619Zm-6.264.164c-1.17.583-3.393-.43-2.768-1.507.621-1.074 2.925-1.49 3.459-1.291.357.134.48 2.22-.691 2.798Zm-5.64.942c-.58.404-1.788 1.874-2.502.945-.717-.936-.558-2.288 1.572-3.139 2.134-.853 1.509 1.793.93 2.194Zm-11.051-2.88c-.785.862-3.174 2.053-3.563.697-.36-1.25 2.167-3.245 3.606-2.94 1.438.303.74 1.383-.043 2.243Zm48.249 14.836c.248-.103.49-.17.724-.207a9.74 9.74 0 0 0-2.203-.634c-.003.505-.111.916-.325 1.025-1.251.635-3.004-1.214-3.281-2.383-3.168 1.513-6.789 1.137-6.789 1.137.899-.253 2.623-1.031 4.035-2.356-.02-.016-.042-.029-.061-.046-.614-.554-.89-2.944.583-3.465.512-.181 1.009.082 1.435.524a5.816 5.816 0 0 0 .258-2.044 3.488 3.488 0 0 0-.066-.503c-1.182-.556-1.92-1.385-1.158-2.09-1.849-1.94-5.375-3.112-7.675-3.705l-.01-.013c1.918 2.386 2.36 4.541 2.36 4.541s-8.929-4.262-12.822-6.05c-.66-.303-1.437-.474-2.27-.555a6.885 6.885 0 0 1-1.315-.054c-3.846.032-8.224 1.528-8.224 1.528a18.147 18.147 0 0 1 2.03-2.463c-1.484.605-3.62.682-3.879.02-.34-.883 1.232-2.454 2.843-3.205 1.571-.735 2.875.465 2.453 1.934 5.093-3.908 10.34-1.93 12.266-.963a23.57 23.57 0 0 1 6.543.199c.339-.818 1.529-1.63 2.587-1.854l-.18-.089C92.052 41.661 74.75 52.224 72.4 53.77c-.002 0-.003 0-.005-.002.709.418 1.433.883 2.175 1.398.172-.573.484-1.24 1.038-1.508 1.054-.508 3.086-1.237 3.793-.37.391.48.14 1.08-.319 1.627.773.02 1.455.073 1.944.121-1.45.422-2.753.922-3.909 1.442h5.152c1.466-1.045 3.425-1.988 6.048-2.669a.86.86 0 0 1-.378-.287c-.965-1.371 2.525-3.562 3.842-2.654 1.318.906-.283 1.881-.636 2.347-.113.149-.419.322-.802.461a42.339 42.339 0 0 0-3.05 3.173l-.295 1.098c.964-.753 2.613-1.288 3.173-.998.922.478.005 1.718-1.01 2.366-.982.625-1.856 1.065-2.608.29l-1.612 6.017c.181-.049.356-.075.516-.064.399.027.4 1.285-.015 2.202 1.245.376 4.462.696 8.612-3.81 0 0-.841-.774-3.779-.219-.946 1.379-2.746 2.71-3.195 2.005-.924-1.447 1.713-4.887 3.243-4.257a12.166 12.166 0 0 1 2.856-1.97c1.048-.95 3.105-2.08 3.657-1.708.176.12.277.286.323.481a10.45 10.45 0 0 1 2.077.047c.791-1.36 3.852-1.432 4.21-.998.375.454.924 1.435-.53 1.814 1.289.396 2.634.905 3.995 1.486-1-1.165-.846-2.795-.256-2.945.738-.183 3.107 2.312 2.755 2.778-.2.264-.266.808-.581 1.028 1.402.658 2.8 1.374 4.15 2.105-1.238-.92-2.033-3.25-.796-3.286.197-.005.384.002.562.02-4.055-2.13-9.32-4.61-12.5-5.005 0 0 2.609-3.111 10.649 2.098a.655.655 0 0 1 .099-.565c.98-1.467 1.401-2.01 2.323-1.535.923.48 1.818 1.93 1.499 3.066-.15.526-1.183.533-2.156.251 1.715 1.251 3.642 2.847 5.804 4.873 0 0-1.404-.841-3.486-1.985.711.995.64 2.297.087 2.676-.215.146-.352.24-.454.293 1.192.674 2.329 1.346 3.375 1.983-.81-.914-1.608-2.138-.99-2.396 1.837-.762 3.313.36 3.461 1.92.1 1.051-.268 1.481-.706 1.57.61.385 1.172.746 1.676 1.074a1.792 1.792 0 0 1 .164-.83c1.005-2.35 3.36.306 3.4 1.413 1.463-.692 3.312-1.297 5.25-1.232.843.028 1.68.222 2.486.516-.282-.512-.369-.945-.03-1.086ZM47.887 56.478c-1.446-2.662-1.73-4.844-1.73-4.844 1.2 2.057 3.152 3.656 5.095 4.844h4.223c-1.587-.624-2.649-1.337-3.228-1.794 1.255.01 2.216-.186 2.834-.37-4.762-1.731-9.662-7.995-10.545-9.164-.873 1.79-1.178 6.634.873 11.328h2.478M98.241 80.85c-2.273-.7-4.752-1.388-7.331-1.982.366 1.377.07 3.267-.751 3.361-1.251.137-2.924-1.896-2.924-1.896s.327-1.191.962-2.044a69.11 69.11 0 0 0-6.392-.96l-.672 2.508c.411-.378.757-.43.757-.43.488.014.851.249 1.104.6.537-.4.855-.62.855-.62-.259.232-.517.48-.776.738.188.309.304.69.354 1.087.116.937-.041 2.172-1.204 2.157-.498-.006-.985-.335-1.331-.79-.255.317-.505.64-.753.966l-1.094 4.083c1.975-.494 4.901-1.104 8.556-1.516.238-.073.485-.136.744-.182.225-.04.392-.017.51.052.8-.076 1.63-.142 2.49-.195-.238-.336-.291-.7-.016-1.054.75-.97 3.53-.28 4.367.915.652-.002 1.314.004 1.988.02l.004-.024c-.415-.32-.788-.972-.95-2.228-.208-1.62.57-2.403 1.503-2.566M63.409 55.627c.707.19 1.434.496 2.132.851h4.254c-2.606-2.054-6.204-4.09-8.684-3.638 2.563.434 4.633 1.97 5.645 2.857a17.313 17.313 0 0 0-3.347-.07M93.37 72.94c-.02-.071-.041-.14-.059-.213 0 0-1.248.904-3.257 1.418-.344.766-1.391 1.714-2.48 1.41-.7-.196-.993-.626-1.002-1.091a11.108 11.108 0 0 1-3.744-.953l-.921 3.435c2.642.007 6.561.203 11.281 1.005-.464-.524-.729-1.184-.57-1.914.178-.826.433-1.983.753-3.097M78.666 114.522c-.66 1.407-2.94 2.32-2.544 1.43.327-.742.378-2.698 1.377-3.036 1.002-.338 1.825.2 1.167 1.606Zm-2.74-11.052c1.245-1.293 1.733-1.679 2.392-.046.657 1.631.676 1.99-1.11 2.588-1.784.594-1.957-1.843-1.281-2.542Zm-6.543-1.973c.022-.663.378-2.693 1.375-3.035 1-.339 1.825.2 1.167 1.608-.658 1.407-2.576 2.402-2.542 1.427Zm23.043-6.399c-1.172.145-2.375.313-3.594.507-.532.251-1.218.554-1.764.298-3.836.688-7.763 1.653-11.37 3-1.566 4.197-1.298 7.895-1.11 9.287.276.663.202 1.51-.138 2.011-.401.592-2.619-.163-2.467-1.542.152-1.383-.362-1.503 1.237-1.436.499.02.865.23 1.115.537-1.644-5.184-.665-9.32.413-11.837-.664.453-1.316.562-1.47.02-.131-.463.196-1.578.74-2.336-1.92.488-3.067 1.188-3.067 1.188a11.51 11.51 0 0 1 .709-2.178h-.4l-3.22 12.022c.488 6.163 4.428 9.57 4.428 9.57-2.85-.696-4.668-2.596-5.801-4.446l-.773 2.883c.43.595.734 1.343.61 1.885.221.058.844.223 1.766.493.09-.09.262-.033.451.134 1.112.333 2.564.791 4.22 1.373.089.002.185.006.292.01a1.46 1.46 0 0 1 1.054.474c1.903.7 4.001 1.542 6.121 2.523.455-.113.882-.087 1.222.148.198.136.174.29.038.449.705.344 1.41.703 2.105 1.077.689-.19 1.266.049 1.286.714a43.098 43.098 0 0 1 2.669 1.658s3.374.648 5.63-.555c0 0-2.636-2.48-6.512-5.165.032.489.007.842-.13.92-.421.235-3.227-1.07-3.253-2.805a2.401 2.401 0 0 1 .013-.28 42.383 42.383 0 0 0-4.378-2.275l-.029.022.024-.024-.148-.068s.125-.06.369-.139c.45-.417 1.524-1.375 3.177-2.639-.527.024-.835-.126-.547-.44.546-.597 1.222-2.434 2.278-2.436.656.001 1.139.3 1.152.797a70.244 70.244 0 0 1 3.236-2.076c-.482-.095-.918-.265-1.152-.45-4.687-.538-7.502 3.838-7.502 3.838v-.001s-1.425-4.094 2.29-8.46c-.334.133-.69.149-1.042-.098-1.152-.801.025-3.395 1.62-3.384 1.08.007 1.353.969 1.26 1.678 1.893-1.575 4.573-3.115 8.342-4.446Z" fill="#C3B597"/><path d="M86.889 167.384H9.015l6.832-25.495h6.447l14.628-54.594h-6.447l6.83-25.495h43.151l-6.831 25.495h-6.447L52.55 141.89h14.655l2.413-8.85H96.14l-9.251 34.345ZM67.925 130.82l-2.414 8.85H55.44l13.44-50.159h6.447l8.02-29.93H35.605l-8.02 29.93h6.447l-13.44 50.16h-6.447L6.126 169.6h82.462l10.445-38.78H67.925Z" fill="#A08F66"/><path d="M85.19 165.166H11.905l5.643-21.06h6.447l15.816-59.028h-6.447l5.643-21.061h38.56l-5.643 21.061h-6.448L49.66 144.105h19.238l2.414-8.85h21.934l-8.056 29.911Zm-15.572-32.128-2.413 8.85H52.55l14.628-54.593h6.447L80.456 61.8h-43.15l-6.831 25.495h6.447L22.294 141.89h-6.447l-6.832 25.495H86.89l9.25-34.346H69.62Z" fill="#FFF"/><path d="M83.408 162.45H15.124l4.296-15.905h6.295L42.84 82.633h-6.297l4.336-16.198h33.464l-4.29 16.204h-6.364l-17.572 65.575h24.32l2.805-10.478h16.775l-6.609 24.715Zm-12.096-27.195-2.414 8.85H49.66l15.816-59.027h6.448l5.643-21.061h-38.56l-5.643 21.061h6.447l-15.816 59.027h-6.447l-5.643 21.061H85.19l8.056-29.91H71.312Z" fill="#8E0A26"/><path fill="#8E0A26" d="m75.114 140.136-2.805 10.478H43.042l18.866-70.41h6.272l3.09-11.37H42.75L39.721 80.2h6.193l-18.45 68.784-6.319-.023-2.95 11.047-.003.012H81.63l5.314-19.884h-11.83"/><path fill="#B9505A" d="M42.75 68.834h28.52l3.073-2.4H40.88l-4.336 16.199L39.72 80.2l3.03-11.366M63.689 82.64h6.363l-1.872-2.436h-6.272l1.78 2.435M73.242 137.736l-2.805 10.478h-24.32l-3.075 2.4h29.266l2.806-10.478h11.83l3.073-2.4H73.242M42.84 82.633l-17.125 63.912H19.42l-4.296 15.906 3.068-2.431.004-.012 2.95-11.047 6.318.023L45.914 80.2l-3.074 2.433"/><path d="m104.775 140.482.057 1.235.712-1.235h.889l-.574 2.143h-.573l.404-1.509-.858 1.51h-.49l-.052-1.525-.408 1.524h-.573l.575-2.143h.891Zm-3.11.517.14-.517h1.885l-.14.517h-.628l-.435 1.626h-.628l.435-1.626h-.628Z" fill="#231F20"/></g></svg>