<svg width="200" height="200" xmlns="http://www.w3.org/2000/svg"><g fill="none"><path d="M196.058 110.394s-11.842-14.029-37.35-18.165c.017-.205.016-.41.026-.614 23.14-2.613 41.18 4.636 41.18 4.636s-13.907-11.626-41.585-9.76c-.79-3.802-2.666-7.61-5.574-11.345 1.303-4.142 4.753-18.743-6.622-24.877 0 0-2.175-.293-5.818.328-3.836-2.716-8.315-3.841-9.986-4.185-10.568-15.54-24.472-21.106-28.615-18.922-3.653 2.205.614 5.32.553 12.07-11.293-.005-26.245 4.57-35.188 10.798-6.144-2.048-13.787-1.222-20.03-8.407-1.147-1.32-2.886-1.438-4.326-.291-2.577 2.053-4.15 7.49-3.27 13.894h-7.455L21.459 94.62h6.447l-10.92 40.484h-6.448L0 174.172h92.16c2.33-8.546 5.644-20.703 7.995-29.357 1.388.1 3.25.069 3.25.069s6.639.704 15.286-1.244c-.34.536-2.95 4.438-2.95 4.438 10-2.176 32.84-11.383 21.54-32.182a20.825 20.825 0 0 0-.108-1.225c3.239-.646 5.865-2.575 6.603-3.16 2.385-.933 4.89-2.51 7.077-4.448 13.135 11.784 22.4 31.472 22.4 31.472s.661-15.68-18.898-35.261c.134-.178.263-.357.391-.538 18.369 7.442 33.23 21.723 33.23 21.723s-6.41-15.238-30.725-26.251c.13-.314.244-.628.356-.945 14.883 1.008 38.45 13.131 38.45 13.131" fill="#FFF"/><path d="M186.334 104.42s-11.365-8.375-29.343-10.891c.172-1.072.252-2.181.224-3.325 5.185-.508 19.483-1.502 31 1.52 0 0-13.081-5.422-31.165-3.57-.533-3.925-2.353-8.207-6.027-12.72 0 0 6.312-16.984-5.365-23.658-2.559-.216-5.711.46-5.711.46-4.551-3.486-10.53-4.426-10.53-4.426-12.52-18.839-29.698-22.337-27.468-16.993.818 1.96 2.312 6.96 1.748 10.31-10.77-.412-26.952 4.057-36.368 10.934-8.518-3.08-14.515-1.116-21.456-9.103-2.282-2.628-6.617 4.536-4.611 14.182h-8.04L23.54 93.035h6.447L18.21 136.691h-6.448L2.08 172.586h88.886l9.272-34.194a24.615 24.615 0 0 1 1.967-2.067c4.8 3.273 8.294 3.256 11.135 3.458-1.716 1.886-4.493 3.581-4.493 3.581 3.912.016 9.308-1.117 12.988-2.02-1.039 1.966-2.436 4.052-2.436 4.052 19.556-5.74 22.75-18.614 16.351-29.053-.136-3.775-1.7-8.213-1.7-8.213 1.133 1.189 2.605 1.932 3.669 2.357-.52 1.567-1.268 2.752-1.268 2.752 3.586-.558 6.516-3.065 6.516-3.065 2.498-.93 5.382-2.733 7.9-5.24 2.948 2.778 14.032 13.663 19.486 25.114 0 0-4.406-13.936-18.09-26.626a22.99 22.99 0 0 0 1.913-2.597c3.885 1.59 18.075 7.751 27.281 16.42 0 0-9.078-11.274-26.263-18.224a19.396 19.396 0 0 0 1.352-3.477c5.087.728 19.292 3.166 29.787 8.876" fill="#231F20"/><path d="M111.644 41.812c-.448-2.05-1.42-3.622-1.935-4.346 2.14 1.438 3.818 3.297 4.933 4.743 2.404.342 4.182.65 4.635.73.554.172 1.104.36 1.653.559-4.037-5.393-10.551-10.648-15.036-11.512.578 1.389 1.922 5.126 1.769 9.401 1.36.122 2.708.269 3.981.425" fill="#C3B597"/><path d="M113.526 120.566s.248 2.555 3.717 1.963c0 0 2.874-2.402 1.043-7.16 0 0-1.284 3.402-4.76 5.197m19.433-5.858s-.818 3.236-2.466 4.25c0 0 .966.973 1.407 2.078 1.015-.873 2.811-3.023 1.059-6.328" fill="#FFF"/><path d="M112.613 102.456c-2.655-.058-3.1-.487-3.1-.487-2.467 8.411 4.122 15.728 4.122 15.728 3.92-1.366 4.717-6.168 4.717-6.168 1.412 1.155 2.371 5.613 2.371 5.613 5.538.34 10.238-2.078 10.238-2.078.893-6.9-5.303-10.716-5.303-10.716-2.798 2.272-3 7.24-3 7.24-5.259-3.192-5.124-9.234-5.124-9.234l-2.834.096c-1.667 3.609 1.15 12.038 1.15 12.038-4.752-3.764-3.237-12.032-3.237-12.032" fill="#8E0A26"/><path d="M124.131 102.349c-3.06.485-4.434-.134-4.434-.134.24 3.759 2.438 5.798 2.438 5.798-.582-2.576 1.996-5.664 1.996-5.664m4.844 16.549c-.407-.722-.947-.542-1.002.173-.03.405-.286 1.052-.462 1.457a20.429 20.429 0 0 0-.435-1.351c-.286-.78-.849-.686-1.016.01a47.64 47.64 0 0 1-.336 1.274c-.188-.476-.402-.965-.492-1.181-.33-.771-.913-.731-1.066-.075-.072.314-.23.87-.356 1.306-.157-.458-.31-.919-.417-1.13-.168-.335-.874-1.093-1.144.025a18.264 18.264 0 0 0-.249 1.415c-.167-.32-.418-.845-.49-1.245-.12-.706-.55-1.036-.92-.194-.18.417-.501 1.043-.495 1.617 0 0 1.994.323 3.899.259 3.525-.12 5.23-.952 5.23-.952-.068-.636-.073-1.102-.249-1.408m10.515-13.832s-1.363 3.85.13 5.045c0 0 1.914-1.609 2.747-4.996.045-.185-2.713-1.358-2.877-.05m3.62-4.735c-2.894-1.683-5.482-1.327-5.482-1.327-5.303 2.462-10.337 2.951-10.337 2.951.792 1.107 5.875 1.193 9.077.424 4.236-1.015 6.852.547 6.852.547s.364-1.535-.11-2.595" fill="#FFF"/><path d="M136.539 81.824c-1.88-.018-2.619 1.456-2.619 1.456s-.618-1.37 1.687-2.21c2.301-.84 7.1 2.003 7.1 2.003-.778-.295-4.288-1.232-6.168-1.25zm12.412.978c1.644.677 1.28 1.286.614 2.008-.012-.409.4-2.218-5.186-1.495 0 0 2.924-1.192 4.572-.513zm-11.929 5.739s.71 2.82 3.491 4.245c0 0 1.197-2.631 1.986-6.523 0 0 1.71.628-.17 6.857 0 0 3.034-.996 4.359-3.381 0 0-2.262-1.221-1.335-2.733.926-1.51 4.057 1.02 5.654-2.487 1.595-3.508-4.822-3.313-7.261-2.104 0 0-6.537-3.86-9.117-2.057-2.575 1.805-2.43 3.636.133 4.673 2.52 1.017 5.414-.91 5.217 1.745-.164 2.197-2.957 1.765-2.957 1.765z" fill="#4F4C4C"/><path d="M135.607 81.07c-2.305.84-1.687 2.21-1.687 2.21s.74-1.474 2.619-1.456c1.88.017 5.39.954 6.168 1.249 0 0-4.799-2.843-7.1-2.003m13.958 3.74c.667-.722 1.03-1.331-.614-2.008-1.648-.679-4.572.513-4.572.513 5.587-.723 5.174 1.086 5.186 1.495" fill="#989696"/><path d="M112.083 71.976a2.867 2.867 0 0 1-3.061-1.696l-1.918-1.07c-.098.968.026 2.219.59 3.819 0 0-1.362-1.102-2.138-2.714-.325-.679-.546-1.447-.518-2.262-.766-.43-1.367-.77-1.739-.98-1.074 3.098.95 7.853 4.39 7.855 1.772-.928 3.827-1.66 5.804-2.176l-1.41-.776" fill="#DEDDDE"/><path d="M105.038 68.053a4.019 4.019 0 0 1 .372-1.559 4.83 4.83 0 0 1 .503-.849c-.365-.197-.723-.39-1.071-.575-.704.435-1.245 1.132-1.545 2.002.371.21.973.55 1.74.981m2.224.307a5.131 5.131 0 0 0-.157.85c.596.333 1.24.693 1.918 1.07-.31-.728-.396-1.791.318-2.768-.42-.232-.842-.462-1.263-.692a3.869 3.869 0 0 0-.816 1.54m4.822 3.616l1.41.776c.002 0 .004.002.005.003 1.074-.28 2.908-.642 3.902-.76 0 0-1.261-.71-3.104-1.738-.539 1.277-1.641 1.632-2.213 1.719" fill="#B4B3B3"/><path d="M112.394 69.2c-.018.48-.597 1.019-1.247.685.727-.124.731-.738.712-.983l-.873-.484c-.392.25-.586.733-.467 1.174a1.077 1.077 0 0 0 2.116-.26l-.24-.133" fill="#8E0A26"/><path d="M105.41 66.494a4.019 4.019 0 0 0-.372 1.56c-.028.814.193 1.582.518 2.261.776 1.612 2.138 2.714 2.138 2.714-.564-1.6-.688-2.85-.59-3.819.032-.311.086-.595.157-.85.2-.711.523-1.209.816-1.54a1204 1204 0 0 0-2.164-1.175 4.868 4.868 0 0 0-.503.85" fill="#FFF"/><path d="M148.603 67.653c-.328.1-.42.13-.42.13.155.333.18.638.132.914l.69-.23a1.394 1.394 0 0 0-.402-.814m-1.859 1.561l.763-.249c.043-.428-.063-.73-.172-.917-.168.053-.334.106-.499.16a.958.958 0 0 1-.092 1.006m-1.176.378a.974.974 0 0 1-.67-.755l-.76.251c.407.132.736.328 1.17.6.037-.012.223-.084.26-.096" fill="#B4B3B3"/><path d="M145.755 69.032a.39.39 0 0 0 .52-.175c.051-.101.063-.317-.08-.445l-.005.002c-.115.037-.222.07-.334.107-.045.106-.04.316.177.396a.26.26 0 0 1-.099.015c-.258-.01-.3-.211-.292-.343l-.096.03c-.031.177.08.35.21.413" fill="#8E0A26"/><path d="M147.507 68.965c-.036.347-.169.777-.48 1.3 0 0 1.12-.594 1.288-1.568a1.51 1.51 0 0 0-.132-.914l-.848.264s0 .001 0 0c.109.188.215.49.172.918" fill="#FFF"/><path d="M148.315 68.697l.69-.23c.116 1.58-1.254 2.694-2.11 2.47 0 0-1.144-.937-1.587-1.25.037-.01.223-.083.26-.095 0 0 .744.265 1.176-.378l.763-.249s-.107.792-.48 1.3c0 0 1.08-.52 1.288-1.568" fill="#DEDDDE"/><path d="M104.117 51.253c-.945-.135-1.759-.5-1.758-1.23-3.696.742-6.466 2.749-6.466 2.749s4.379-1.488 8.224-1.519m2.641-.185c-.28.122-.771.211-1.327.239.834.08 1.61.25 2.27.551 3.894 1.776 12.822 6.01 12.822 6.01s-2.432-2.3-6.15-4.602c-.25.025-.558.037-.94.032-2.397-.03-3.731-1.3-3.246-2.068a2.42 2.42 0 0 1 .114-.164 31.96 31.96 0 0 0-1.147-.503c-.6-.25-1.204-.434-1.804-.563-.108.52-.314.945-.592 1.068m14.668 18.161a140.52 140.52 0 0 0-1.676-1.068 1.098 1.098 0 0 1-.645-.08c-.218-.095-.67-.503-1.12-1.006-1.046-.633-2.183-1.3-3.375-1.97-.351.178-.291-.144-1.362-.723a2.203 2.203 0 0 1-.269-.172 81.79 81.79 0 0 0-4.15-2.09c-.242.167-.63.147-1.334-.332a2.994 2.994 0 0 1-.584-.524 41.014 41.014 0 0 0-3.994-1.476c-.033.009-.061.018-.096.026-1.579.356-4.03.557-3.718-.528a1.34 1.34 0 0 1 .133-.308 10.52 10.52 0 0 0-2.077-.047c.122.518-.173 1.242-.625 1.845 2.195-.343 5.044-.116 8.52 1.524 3.778 1.784 16.874 9.376 16.874 9.376s.425-.347 1.144-.808c-.917-.388-1.596-.887-1.646-1.64m-37.767 52.243c.038-.013.076-.022.114-.032-.696-.372-1.4-.728-2.105-1.07-.328.38-1.307.787-1.425 1.027-.02.04-.044.104-.074.182.843.4 1.694.826 2.543 1.276.179-.63.44-1.213.947-1.383m-15.389-6.179a61.398 61.398 0 0 0-1.766-.49c-.008.031-.014.062-.024.092-.214.637-.675 1.131-1.207 1.326l.03.051s.76.174 2.054.535c.248-.732.785-1.375.908-1.51l.005-.004m4.67 1.497a96.18 96.18 0 0 0-4.219-1.364c.258.226.546.652.696 1.18.045.156-.03.445-.176.756.823.252 1.75.55 2.753.897v-.033c.143-1.282-.295-1.47.946-1.436m7.468 2.987a82.882 82.882 0 0 0-6.12-2.506c.468.507.575 1.326.402 1.968a79.11 79.11 0 0 1 3.679 1.516c.284-.108.525-.22.69-.333.443-.302.91-.538 1.35-.645m-1.464-6.143a42.144 42.144 0 0 1 4.531 2.33c.036-.366.154-.688.324-.961-1.706-.767-3.376-1.29-4.855-1.369m15.851 8.574a74.552 74.552 0 0 0-2.462-1.932c-.723.438-1.552.576-2.429-.302-.555-.559-.494-1.107-.15-1.545a49.819 49.819 0 0 0-3.103-1.954c.084.589.165 1.175.194 1.639 3.876 2.666 6.511 5.13 6.511 5.13-2.255 1.196-5.63.551-5.63.551a43.147 43.147 0 0 0-2.668-1.646c.007.248-.061.553-.235.92a2.745 2.745 0 0 1-.474.685 52.38 52.38 0 0 1 2.711 1.654s.315.085.847.164c.25-.88.948-1.292 1.696-1.332.952-.16 2.059.32 2.445 1.223a9.876 9.876 0 0 0 2.574-.913c-1.022-.832-.702-1.783.173-2.342" fill="#AC9C77"/><path d="M72.4 54.45c2.35-1.537 19.651-12.028 48.157-8.057a26.543 26.543 0 0 0-3.996-1.276c-1.477.559-3.509.614-3.76-.028-.073-.187-.057-.405.026-.641a55.76 55.76 0 0 0-5.045-.391c-1.025.39-1.845.794-2.19 1.142-.478.488-1.792-.29-2.284-1.189-.917.012-1.873.034-2.869.067.153.242.139.515-.183.797-1.077.941-4.085 1.448-4.758.753-.385-.4-.16-.828.303-1.213-1.03.118-2.041.265-3.034.437-.14.388-.51.895-1.11 1.506-1.072 1.09-3.466 1.616-3.786.706-.149-.425-.18-.793-.123-1.114-.688.184-1.365.377-2.032.58-.319 1.075-1.071 2.564-2.81 2.743-1.558.16-1.841-.525-1.793-1.15-.922.357-1.82.728-2.694 1.108.094.654-.246 1.477-1.016 2.094-1.082.87-2.226 1.324-2.81.732-.267-.267-.311-.591-.21-.935a112.31 112.31 0 0 0-4.126 2.178c.698.341 1.412.723 2.143 1.15" fill="#DFD7C6"/><path d="M136.33 95.372c-2.563-.943-4.118-6.87-4.118-6.87-4.23-2.005-4.327-6.237-4.327-6.237-3.242-2.19-6.628-2.973-8.818-3.248a7.588 7.588 0 0 1-1.257 1.345c2.651 2.607 8.776 6.11 8.776 6.11-4.15 1.896-8.495.687-10.432-.048-.142.082-.284.16-.422.232 3.6 3.468 12.21 4.859 12.21 4.859-4.62 2.373-9.42 1.678-11.75 1.101a2 2 0 0 1 .059.375c4.759 2.027 13.21 1.842 13.21 1.842-10.12 4.81-20.182 2.621-20.182 2.621 8.724 4.616 29.614-1.135 27.05-2.082" fill="#EAE4D8"/><path d="M133.13 53.879a16.951 16.951 0 0 1 3.342 1.83c.598-.75 1.184-1.188 1.184-1.188a6.404 6.404 0 0 0-.825-.697c-.13.222-.413.246-1.326.216-1.053-.035-1.338-.906-1.053-1.487a17.982 17.982 0 0 0-2.726-.862c.825.89 1.224 1.622 1.404 2.188m14.988 6.165c.107-.099.292-.125.52-.093-1.03-3.804-3.912-4.903-3.912-4.903a16.09 16.09 0 0 0-1.526.133l.008.087c.01.193.011.372.009.544.398.248.808.549 1.22.91.068-.123.169-.24.318-.346.957-.675 3.338.901 2.564 2.32-.201.368-.43.595-.666.71.788 1.302 1.492 2.963 2.01 5.09a.852.852 0 0 1 .215.161c.133-1.078.15-2.047.074-2.91-.661-.606-1.268-1.3-.834-1.703" fill="#DFD7C6"/><path d="M115.627 129.6c-1.376-.207-2.56-.603-3.59-1.14.042.294-.236.94-.622 1.406 1.527.3 3.037.14 4.212-.265" fill="#EAE4D8"/><path d="M114.977 62.156a120.992 120.992 0 0 1 3.486 1.972c-2.162-2.013-4.089-3.597-5.804-4.84-.832-.24-1.617-.69-1.765-1.21-8.04-5.174-10.648-2.084-10.648-2.084 3.178.393 8.444 2.857 12.5 4.972 1.077.102 1.798.59 2.23 1.19m24.104 8.298a36.656 36.656 0 0 0-5.512-3.751c-.285.215-.602.33-.933.256-.513-.116-.734-.58-.662-1.092-.521-.254-.826-.384-.826-.384a1.76 1.76 0 0 1-.194.231c.181.465.268 1.006.265 1.469a9.79 9.79 0 0 1 2.203.63c1.206-.194 2.17.437 2.56 1.398a19.281 19.281 0 0 1 2.4 1.94c.244-.355.496-.57.7-.697" fill="#DFD7C6"/><path d="M83.85 79.894s-.32.219-.856.617c.028.038.054.077.079.117.259-.257.517-.503.776-.734M96.76 67.447c-.338 2.108-.403 4.996 1.198 6.86 1.628 1.896 3.906 2.11 5.507 1.962-1.76-1.146-5.344-4.13-5.968-9.715-.08.153-.18.311-.308.475a2.265 2.265 0 0 1-.428.418" fill="#AC9C77"/><path d="M120.823 66.962s2.418-.538 4.596-2.045a1.675 1.675 0 0 1-.56-.294c-1.413 1.316-3.137 2.088-4.036 2.34m6.184-7.837c.032.163.057.329.066.5a5.74 5.74 0 0 1-.258 2.03c.312.321.586.74.798 1.15a6.373 6.373 0 0 0 1.16-2.981c-.52-.178-1.046-.396-1.498-.581a6.33 6.33 0 0 1-.268-.118m1.116-2.255c-.724-1.13-1.952-2.14-3.4-3.023-.155.475-1.662.604-3.194.249-1.59-.365-2.749-2.029-1.845-2.58l.057-.03c-3.3-1.253-6.234-1.917-6.234-1.917 2.524 1.122 4.667 3.8 4.667 3.8 2.3.588 5.826 1.752 7.675 3.68a1.94 1.94 0 0 1 .26-.2c.493-.311 1.24-.246 2.014.021" fill="#DFD7C6"/><path d="M139.22 72.008c.822-.089 1.728.132 1.728.132a29.293 29.293 0 0 0-1.867-1.686 2.412 2.412 0 0 0-.7.698c.536.509.838.856.838.856m-34.253 45.197l-.272-.982a3.92 3.92 0 0 1-.342.605c-.26.345.078.46.614.377m-3.283-10.215a76.216 76.216 0 0 0-.71-1.775c-.158.652-.043 1.395.71 1.774m1.007 4.399c.244.246.485.413.721.516a95.366 95.366 0 0 0-.738-2.21c-.456.459-.604 1.07.016 1.694m9.348 17.072a10.036 10.036 0 0 1-1.482-.947c-.32.45-.74 1.181-.707 1.87a7.83 7.83 0 0 0 1.567.483c.386-.465.664-1.112.622-1.407m-3.805-3.409c-.722-1.03-1.298-2.17-1.783-3.35a2.285 2.285 0 0 0-.178.934c.017 1.044 1.053 1.93 1.961 2.417m24.403-58.092c.33.073.648-.041.933-.256a34.357 34.357 0 0 0-1.595-.836c-.072.512.15.976.662 1.092m-19.976-7.671a39.422 39.422 0 0 0-1.765-1.21c.148.52.933.97 1.765 1.21m.086 1.678c.8.416 1.551.82 2.232 1.19-.433-.6-1.154-1.088-2.232-1.19m20.675 6.846c.934.384 1.799.88 2.56 1.399-.39-.961-1.353-1.592-2.56-1.399m-2.467-2.098c-.602.624-1.961 1.44-1.961 1.44a7.453 7.453 0 0 1 2.226.029 4.142 4.142 0 0 0-.265-1.469m-6.095-1.091c.166.133.355.23.561.294.81-.562 1.587-1.259 2.194-2.112a4.96 4.96 0 0 0-.798-1.15c-.375 1.19-1.108 2.177-1.957 2.968m3.265-7.752c-.774-.267-1.52-.332-2.014-.02a1.825 1.825 0 0 0-.26.2c.587.612 1.002 1.302 1.158 2.075.087.04.176.08.268.118.452.185.979.403 1.498.58.027-.225.047-.454.05-.693.013-.799-.246-1.552-.7-2.26m-6.593-2.774c1.531.355 3.038.226 3.193-.249-1.53-.933-3.302-1.723-4.982-2.36-.018.01-.038.018-.057.029-.904.551.256 2.215 1.845 2.58m-6.781 38.087c.437.302.945.57 1.503.807a2 2 0 0 0-.06-.375c-.91-.225-1.443-.432-1.443-.432m4.319-13.167c-1.457-.183-2.385-.144-2.385-.144.16.428.568.94 1.128 1.49a7.588 7.588 0 0 0 1.257-1.346m-3.951 6.963c.183.233.39.458.616.676.138-.072.28-.15.422-.232-.657-.25-1.038-.444-1.038-.444m-9.787 34.407c-.098-1.468-1.137-1.573-2.12-1.193a70.09 70.09 0 0 0 1.104 2.865c.664-.267 1.074-.765 1.016-1.672m43.334-55.891c.12.214.238.432.35.655.06-.169.103-.33.15-.494a2.716 2.716 0 0 0-.5-.16m-.545-4.453c-.434.403.173 1.097.834 1.703a10.296 10.296 0 0 0-.314-1.796c-.228-.032-.413-.006-.52.093m-.798-1.349c.773-1.418-1.608-2.994-2.565-2.32a1.03 1.03 0 0 0-.317.347c.756.662 1.518 1.532 2.215 2.684.236-.115.465-.342.666-.71m-11.814-4.656c.913.03 1.196.006 1.326-.216-.732-.526-1.584-.947-2.379-1.271-.285.58 0 1.452 1.053 1.487m-60.913-1.984c.585.592 1.73.138 2.811-.732.77-.617 1.11-1.44 1.016-2.094a83.138 83.138 0 0 0-4.037 1.891c-.1.344-.056.668.21.935m8.313-2.784c1.74-.179 2.492-1.668 2.81-2.743a65.103 65.103 0 0 0-4.602 1.593c-.048.625.235 1.31 1.792 1.15m4.966-2.209c.32.91 2.714.385 3.786-.706.6-.611.97-1.118 1.11-1.506a57.25 57.25 0 0 0-5.019 1.098c-.056.32-.026.689.123 1.114m24.93-1.974c.251.642 2.283.587 3.76.028a35.715 35.715 0 0 0-3.734-.669c-.083.236-.099.454-.026.641m-17.303.538c.673.695 3.68.188 4.758-.753.322-.282.336-.555.183-.797l-.365.012a54.073 54.073 0 0 0-4.273.325c-.463.385-.688.814-.303 1.213m10.094-.427c.345-.349 1.165-.754 2.19-1.143a93.06 93.06 0 0 0-4.474-.047c.492.9 1.806 1.677 2.284 1.19" fill="#A08F66"/><path d="M135.35 59.803c.073-.364 2.935.83 2.585 2.17-.347 1.342-3.133.581-2.584-2.17zm6.655-.367c1.39.206 1.626.742 1.626.742-.359 1.18.062 1.295-1.6 1.242-1.66-.056-1.418-2.19-.026-1.984zM121.43 48.965a.693.693 0 0 1-.126.116c7.12 2.241 11.96 7.525 10.48 12.092-.466 1.44-1.24 2.527-2.164 3.348.194.053.389.126.58.222.333.168.584.536.753.971.079-.08.145-.16.194-.231 0 0 .305.13.826.384a1.72 1.72 0 0 1 .57-1.023c-.072-3.124 1.263-4.605 1.263-4.605-.127 1.565.454 3.303.454 3.303 2.726.295 6.072 3.377 6.072 3.377a9.54 9.54 0 0 1 .929-1.883c-.78-.177-1.703-.745-2.074-1.64-.562-1.366.137-1.513 1.041-1.043.672.35 1.604.825 2.04 1.469 2.397-2.23 5.317-1.014 5.317-1.014-1.906.476-3.254 1.654-4.125 2.714.486-.195.96-.256 1.31-.038.374.234.487.587.448.961.488-.174.972-.349 1.42-.51-.013-.478.53-1.494 1.121-1.572.34-.045.662.003.904.133-.518-2.127-1.222-3.788-2.01-5.09-.504.246-1.041-.02-1.422-.516-.472-.617-1.164-1.5-.793-2.168a9.546 9.546 0 0 0-1.221-.91c-.028 1.898-.778 2.466-.85 2.25-.058-.175-.979-1.63-1.459-2.386-.858.263-1.609.585-2.26.93l.02.008c.817.375 1.642 1.528 1.723 1.916 0 0 .333.495-1.248.41-1.236-.066-2.06-.683-2.22-1.216-1.155.907-1.68 1.694-1.68 1.694-.175-1.545.538-2.842 1.234-3.715l-.005.007a16.951 16.951 0 0 0-3.342-1.831v-.002c.132.414.144.735.12.968.943.242 1.12.641 1.12.641-.36 1.181.06 1.297-1.6 1.242-1.56-.053-1.44-1.938-.265-1.997a157.15 157.15 0 0 0-3.037-2.608c-.2.022-.485.018-.9.005-1.088-.037-1.353-.966-1.018-1.544a39.023 39.023 0 0 0-.945-.703 2.82 2.82 0 0 1-.717.161c-2.076.213-1.89-1.072-1.67-1.72a38.197 38.197 0 0 0-1.642-.911c-.011.636-.896 1.223-1.146 1.554z" fill="#C3B597"/><path d="M133.568 66.703a36.744 36.744 0 0 1 5.513 3.751c.249-.154.426-.181.426-.181.898.024 1.353.823 1.466 1.708.044.354.045.752-.039 1.103 1.64.07 4.076.69 6.6 3.19-2.873-3.373-5.774-5.83-8.282-7.585-.159.001-.346-.002-.578-.01-.856-.029-1.203-.608-1.152-1.135a34.142 34.142 0 0 0-3.177-1.763c-.208.354-.475.695-.777.922m4.68 4.658c.044-.075.088-.144.133-.21a19.281 19.281 0 0 0-2.4-1.94c.09.222.153.46.177.712.041.423.003.742-.083.981a21.223 21.223 0 0 1 2.128 1.727c-.158-.437-.17-.9.045-1.27" fill="#C3B597"/><path d="M102.127 107.152a2.065 2.065 0 0 1-.444-.163c.321.835.653 1.737.99 2.705.403-.407 1.047-.693 1.612-.762a79.261 79.261 0 0 0-.76-2.192c-.39.323-.895.534-1.398.412m20.884 24.808c-.01 1.259-.284 2.11-.284 2.11 2.122-.325 4.61-1.645 4.61-1.645-2.259 2.277-6.613 3.328-6.613 3.328 1.048-1.081.922-2.251.922-2.251-2.877 1.15-7.107.635-7.107.635 3.64-.063 8.472-2.178 8.472-2.178zm-13.484-6.54c-.168.093-.704-.053-1.295-.37a11.15 11.15 0 0 0 2.323 2.463c.146-.205.27-.353.322-.41.208-.224.889.392 1.152 1.314a.3.3 0 0 1 .008.042c1.03.538 2.214.934 3.59 1.142-1.175.406-2.685.566-4.212.265-.41.496-.942.786-1.333.227a1.31 1.31 0 0 1-.234-.71c-1.504-.647-2.915-1.83-3.913-3.773a46.256 46.256 0 0 1-1.622-3.55c-.454.182-1.027.257-1.654.276a5.16 5.16 0 0 1-.324 0 79.26 79.26 0 0 1 1.433 2.962c-.358.91-.9 2.039-1.626 2.823 0 0 3.377 4.21 9.94 4.486a6.588 6.588 0 0 1-3.87 2.75s4.27 2.157 10.39.935c-.459 1.12-1.21 2.373-2.4 3.007 0 0 7.105-.64 11.666-4.032-.095 1.12-.336 2.457-.93 3.477 0 0 7.52-3.173 8.651-11.834-2.415.55-3.3-.216-3.3-.216.901 2.706-.85 3.977-.85 3.977.239-2.141-2.012-3.16-2.012-3.16.934 1.31.06 3.679.06 3.679-2.04-.67-2.475-3.154-2.475-3.154-.45 2.66-3.024 4.326-3.024 4.326 1.088-1.79.33-3.957.33-3.957-.942 2.329-4.538 3.225-4.538 3.225 1.171-1.697 1.149-3.077 1.149-3.077-1.136 1.4-4.092 2.3-4.092 2.3.906-.99.946-2.282.897-2.93-2.01.223-5.38-.251-8.056-3.808-.022-.03-.044-.064-.065-.095.079.729.093 1.3-.086 1.4zm-6.116-13.516a100.64 100.64 0 0 1 1.021 3.382c.087.306.174.62.262.937.321-.66.695-1.528 1.257-1.876-.256-.869-.519-1.763-.797-2.675-.53.331-1.119.504-1.743.232m3.039 9.796a2.381 2.381 0 0 1 1.404-1.29c-.425-1.16-.836-2.47-1.258-3.883a4.062 4.062 0 0 1-1.63.678c.415 1.476.877 3.017 1.483 4.496m9.91-37.796a10.937 10.937 0 0 1-3.118-3.082s-.842 2.133.493 4.614c.022-.055.044-.11.07-.167.466-.995 1.48-1.567 2.555-1.365m-.205 2.519c1.937.735 6.283 1.944 10.432.048 0 0-6.125-3.503-8.776-6.11a4.43 4.43 0 0 1-.694.482c1.498 1.851 4.04 4.051 8.087 5.055 0 0-3.737.516-7.414-1.2.246.44-.692 1.18-1.635 1.725" fill="#D1C6AE"/><path d="M134.675 86.98c-4.748-1.732-4.372-5.157-2.341-7.187 2.16-2.16 6.298-2.78 11.572.529 0 0 3.771-1.3 6.468-.372-.934-1.54-1.893-2.737-2.84-3.676-2.524-2.5-4.96-3.12-6.6-3.19-.07.293-.2.551-.415.722 4.511 1.745 4.645 5.14 4.645 5.14-3.862-2.573-7.13-1.256-7.13-1.256.979-.967 1.916-1.467 2.64-1.73-1.67-.967-3.586-.875-3.586-.875-8.988-9.835-14.977-1.371-14.977-1.371l.885 2.026s2.235-3.83 5.76-3.51c3.523.322 4.851 2.156 4.851 2.156s-3.57 2.91-3.774 6.242c0 0-9.007-6.48-14.56-2.81 0 0 .106.287.347.755.113-.114.244-.223.402-.32 1.456-.887 2.503-.938 3.428-.388.211.124.012.602-.383 1.152 2.19.275 5.576 1.057 8.818 3.248 0 0 .097 4.232 4.327 6.238 0 0 1.555 5.926 4.117 6.87 2.564.946-18.326 6.697-27.05 2.081 0 0 10.062 2.19 20.181-2.621 0 0-8.45.185-13.21-1.842.01.2-.02.378-.099.51a.814.814 0 0 1-.507.393c2.216.99 5.454 1.68 10.181 1.671 0 0-10.982 2.028-16.986-.632 0 0-1.081 2.15.488 5.12 0 0 23.829 2.952 30.558-5.45 0 0-4.606-1.727-5.21-7.622" fill="#D1C6AE"/><path d="M114.51 90.538c.795.27 1.479 1.265 1.681 2.078 2.331.577 7.131 1.272 11.752-1.101 0 0-8.611-1.391-12.211-4.86a6.753 6.753 0 0 1-.84.373c1.551 1.658 4.293 3.304 9.063 4.445 0 0-7.404 1.66-12.989-4.46 0 0-.417 2.067 1.119 4.17.028-.402.194-.762.46-.995 0 0 .823-.039 1.965.35m38.457-5.753c-.333.97-.804 2.272-2.773 3.202-1.449 1.95-.379 3.105-7.077 7.103.18 1.69-.606 2.817-.606 2.817 5.489 1.603 1.783 8.267 1.783 8.267 4.34-1.824 12.522-10.828 8.673-21.389" fill="#D1C6AE"/><path d="M96.801 79.169c.953.209 1.928.443 2.925.704.108-.2.218-.395.334-.583 0 0-1.455-.089-3.048-.986.01.327-.044.624-.21.865" fill="#C3B597"/><path d="M100.06 79.29c-.116.188-.226.383-.334.583a69.38 69.38 0 0 1 1.696.467c.48-.805 1.037-1.57 1.685-2.271-1.864-.158-4.935-.717-6.773-2.646.115.842.649 1.978.678 2.88 1.593.898 3.048.987 3.048.987m22.05-5.576c-2.2-.303-7.726.277-12.451 2.4.04.611-.158 1.546-.611 2.09-.599.72-2.484.44-3.015.02a12.252 12.252 0 0 0-2.184 2.1c.58-.13 1.273-.098 2.068.203.546.206.491.746.126 1.306.441.159.885.323 1.332.494 2.394-3.535 5.695-5.068 5.695-5.068s3.634-4.367 9.926-1.519l-.885-2.026" fill="#AC9C77"/><path d="M155.892 89.708l.037-.784c7.448-.882 17.598-.64 24.696.988-10.43-1.906-22.316-.474-24.733-.204m-.431 5.049c.106-.343.139-.457.226-.75 7.445.918 17.232 3.57 23.723 6.844-9.66-4.338-21.538-5.778-23.949-6.094m-1.361 5.355c.19-.307.25-.41.41-.671 6.96 2.764 15.739 7.802 21.173 12.604-8.22-6.631-19.334-11.023-21.583-11.933m-3.066 4.134l.629-.477c5.466 5.078 11.798 12.931 15.098 19.362-5.226-9.138-13.966-17.229-15.727-18.885m-42.46-15.614l.009-.785c-7.386-1.285-17.534-1.591-24.715-.351 10.526-1.338 22.31.736 24.706 1.136m-1.212 5.352c-.055-.356-.071-.473-.117-.775-7.501-.097-17.569 1.21-24.46 3.573 10.178-2.99 22.146-2.813 24.577-2.798m.982 5.966l-.325-.716c-7.25 1.923-16.587 5.884-22.574 10.01 8.98-5.61 20.553-8.656 22.9-9.294m1.428-15.117c.089-.349.118-.466.194-.759-6.878-2.959-16.669-5.603-23.943-6.054 10.55 1.13 21.513 5.87 23.749 6.813" fill="#B4B3B3"/><path d="M105.396 86.716c.24-.936.56-1.796.938-2.582-.66-.254-1.394-.527-2.19-.816-.13.045-.26.08-.388.1-1.288.21-1.257.564-1.589.166a12.406 12.406 0 0 0-.452 2.754c1.2.092 2.428.217 3.681.378m-8.455 6.434a73.82 73.82 0 0 1 1.583-.184v-.428c-.517-.228-1.022-.86-1.218-2.37-.137-1.062.153-1.762.633-2.162-.188-.014-.377-.029-.568-.042a51.32 51.32 0 0 0-.376 3.229c.621.568.347 1.468-.054 1.957m-4.515 2.35c-3.77 1.322-6.45 2.852-8.342 4.416-.044.336-.17.615-.335.706-.331.187-.882.84-1.503 1.086-3.715 4.337-2.29 8.403-2.29 8.403s-2.67-10.28 18.697-14.565c0 0-.027-.227-.056-.634-1.895.132-3.981.32-6.17.588m12.661-2.93a16.436 16.436 0 0 1-.056-3.828 115.01 115.01 0 0 0-1.084-.139c.09 1.007-.159 2.166-.826 2.443a1.417 1.417 0 0 1-.754.077c.17.527.363 1.033.572 1.513a71.472 71.472 0 0 1 2.148-.067m-1.114 2.084c1.265 2.137 2.587 3.428 2.587 3.428a24.677 24.677 0 0 1-1.098-3.458c-.448.006-.946.016-1.49.03" fill="#AC9C77"/><path d="M95.777 118.912s-.923-3.624-3.16-7.716c-.365.676-.802 1.136-1.32.926-.901-.365-1.326-2.745-.493-3.865a27.567 27.567 0 0 0-.692-.949c-3.678 1.733-7.4 3.786-10.674 6.149 1.65-.49 7.39-1.41 16.339 5.455" fill="#C3B597"/><path d="M87.458 106.3c-.126-.098-.194-.2-.178-.295.089-.544 2.48-2.532 3.812-2.355.319.042.343.83.11 1.611a75.476 75.476 0 0 1 2.864-1.486c-.327-.086-.528-.291-.491-.632.052-.479 1.23-1.775 2.222-1.99-.478-.445-.97-.73-1.463-.779 1.258-.437 2.56-.81 3.82-1.04 0 0 .195.32.53.953.277-.727.963-1.31 1.342-1.214a32.148 32.148 0 0 0-1.03-1.658s-17.488 3.155-19.008 12.494a3.79 3.79 0 0 0-.032.202c.01-.016 2.824-4.344 7.502-3.81m11.758 5.445c-.902.835-2.092 1.757-3.388.454-1.417-1.424 1.173-2.785 2.279-2.411 1.106.377 2.012 1.123 1.11 1.957zm-1.365-7.705a107.88 107.88 0 0 0-7.537 3.172c.238.139.56.34.964.63.097-.05.201-.092.315-.12 1.792-.446 2.005.98 2.005.98-.085.237-.181.523-.288.83 1.487 1.395 3.354 3.486 5.399 6.556.186-.818.43-1.756 1.096-1.979 1-.336 1.825.198 1.165 1.594-.306.651-.963 1.195-1.538 1.502a61.629 61.629 0 0 1 2.015 3.443c.165-.486.944-1.139 1.762-1.455-1.672-4.627-2.704-8.793-2.704-8.793s-1.103-3.495-2.654-6.36z" fill="#D1C6AE"/><path d="M96.225 101.134c.748.127 1.2.606.931 1.208a76.507 76.507 0 0 1 1.644-.695c-.3-.425-.284-.918-.115-1.36-.336-.632-.531-.954-.531-.954-1.26.231-2.562.604-3.82 1.041.493.048.985.334 1.463.779.148-.032.293-.041.428-.019m12.007 23.916c-.908-.485-1.944-1.372-1.961-2.416a2.294 2.294 0 0 1 .178-.933c-.606-1.48-1.068-3.02-1.483-4.496-.536.083-.873-.032-.614-.377a3.92 3.92 0 0 0 .342-.605 101.371 101.371 0 0 0-1.282-4.32 2.369 2.369 0 0 1-.723-.515c-.62-.623-.472-1.235-.016-1.694a87.852 87.852 0 0 0-.99-2.705c-.753-.379-.868-1.122-.71-1.774a68.805 68.805 0 0 0-.864-2.002c-.727.258-1.482.535-2.258.828 1.551 2.865 2.654 6.36 2.654 6.36s1.032 4.166 2.704 8.793c.983-.38 2.022-.275 2.12 1.193.058.907-.352 1.405-1.016 1.672a46.256 46.256 0 0 0 1.622 3.551c.998 1.943 2.409 3.126 3.913 3.773-.032-.689.387-1.42.707-1.87a11.15 11.15 0 0 1-2.323-2.462" fill="#EAE4D8"/><path d="M100.109 103.213c.27.599.56 1.266.864 2.002.17-.7.653-1.294 1-1.22.132.03.335.103.565.206a49.11 49.11 0 0 0-.697-1.592c-.556.19-1.136.391-1.732.604" fill="#D1C6AE"/><path d="M97.156 102.342c.27-.602-.183-1.081-.93-1.208a1.134 1.134 0 0 0-.429.019c.374.349.739.798 1.091 1.307l.268-.118m2.124-.888a43.24 43.24 0 0 0-.595-1.167c-.169.442-.184.935.115 1.36l.48-.193" fill="#A08F66"/><path d="M104.443 99.605c-1.896-1.305-3.509-2.711-3.509-2.711s.674 1.299 1.625 3.335a72.542 72.542 0 0 1 1.884-.624m27.728 22.322c-2.085.97-3.85.299-3.85.299-4.646 1.233-8.802.537-8.802.537-.63 1.142-1.95 1.638-1.95 1.638-1.01-.03-2.993.256-4.576-1.027-1.126-.913-1.457-2.837-1.556-3.872.32-.135.64-.297.91-.441-6.566-8.235-5.435-15.055-4.642-17.609a10.006 10.006 0 0 1-.906-.412c-.922.27-2.071.62-3.391 1.049 1.519 3.396 3.372 7.956 4.448 12.104 2.05 7.9 4.768 14.025 11.401 11.35 6.634-2.672 10.59-1.06 13.26-1.866 2.668-.807 1.742-2.722-.346-1.75" fill="#8E0A26"/><path d="M123.011 131.96c-.01 1.259-.284 2.11-.284 2.11 2.122-.325 4.61-1.645 4.61-1.645-2.259 2.277-6.613 3.328-6.613 3.328 1.048-1.081.922-2.251.922-2.251-2.877 1.15-7.107.635-7.107.635 3.64-.063 8.472-2.178 8.472-2.178" fill="#DFD7C6"/><path d="M87.391 57.14l-.099.368a42.184 42.184 0 0 1 3.051-3.152 4.667 4.667 0 0 1-.601.169 28.247 28.247 0 0 0-3.805 2.615h1.454" fill="#AC9C77"/><path d="M84.849 89.08c-.112-.341.119-.823.6-1.291a67.032 67.032 0 0 0-6.493.62l-.729 2.703c.208-.044.413-.084.61-.116.79-.727 1.925-1.478 2.733-1.424.502.032.408 1.927-.337 2.819-.304.366-.923.486-1.546.463-1.94 2.099-3.182 4.297-3.97 6.375 1.05-.533 4.892-2.376 10.758-3.99.088-1.087 1.504-2.372 2.719-2.016.642.188.882.642.906 1.116a74.83 74.83 0 0 1 3.87-.753 1.05 1.05 0 0 1-.255-.306c-.688-1.216 1.505-3.024 2.935-2.324.14.068.25.15.345.237.08-.945.2-2.053.376-3.229-2.605-.184-5.477-.3-8.444-.275-.273.686-.84 1.422-1.383 1.622-1.14.414-2.44.55-2.695-.23" fill="#C3B597"/><path d="M77.925 92.23l-.217.805H71.66a11.379 11.379 0 0 0-.709 2.164s1.147-.696 3.068-1.18c.243-.337.53-.603.84-.708 1-.334 2.024-.01 1.167 1.598a4.117 4.117 0 0 1-1.278 1.41c-1.078 2.5-2.057 6.608-.413 11.758.105.128.188.272.253.427-.283-2.077-.75-9.32 5.1-15.65-.84-.03-1.682-.322-1.763-.624m2.967-9.164a2.55 2.55 0 0 1-.335-.59l-.417 1.545c.247-.322.498-.642.752-.955m-2.055 7.93c-.197.032-.402.072-.61.116l-.228.846c.138-.247.446-.602.838-.962m4.778-18.492c-.18.462-.423.893-.684 1.17l-.103.384a11.17 11.17 0 0 0 3.744.946c-.012-.59.44-1.237 1.098-1.518 1.176-.503 1.803.06 2.344.403.208.133.199.447.04.798 2.009-.51 3.257-1.407 3.257-1.407.018.072.04.14.06.21.323-1.123.712-2.2 1.153-2.846-1.302.856-6.168 3.695-10.909 1.86m10.439-7.943c-4.15 4.475-7.367 4.158-8.612 3.785a2.253 2.253 0 0 1-.304.5c-.214.258-.596.385-1.02.426l-.088.329c1.015.561 2.37.678 3.838.42-.361-.497-.467-1.059-.016-1.35.747-.482 2.151.148 2.827.463.85-.383 1.688-.867 2.475-1.437-.764-1.51 2.473-3.53 3.464-3.778.148-.261.287-.526.409-.798 0 0-3.84-.784-5.873.248 0 0 .782-.869 2.308-1.627-.409-.116-.74-.322-.885-.622-.1-.21.163-.574.602-.97a12.168 12.168 0 0 0-2.856 1.956c.08.033.156.073.229.128.56.422.3 1.275-.277 2.11 2.938-.552 3.779.217 3.779.217" fill="#AC9C77"/><path d="M118.006 61.699c-.862-.774.061-3.342 1.014-3.761.953-.417 4.059 3.547 2.581 3.733-.97.123-2.735.8-3.595.028zm-10.603-6.656c-.646.553-2.936.488-2.811-.826.264-2.766 5.22-1.406 5.356-.782.095.442-1.897 1.058-2.545 1.608zm-6.264.163c-1.17.579-3.393-.426-2.768-1.497.621-1.066 2.925-1.48 3.459-1.282.357.134.48 2.205-.691 2.779zm-5.64.936c-.58.402-1.788 1.86-2.502.938-.717-.93-.558-2.272 1.572-3.117 2.134-.848 1.509 1.78.93 2.179zm-11.051-2.861c-.785.856-3.174 2.04-3.563.693-.36-1.242 2.167-3.224 3.606-2.921 1.438.3.74 1.374-.043 2.228zm48.249 14.737c.248-.103.49-.168.724-.206a9.79 9.79 0 0 0-2.203-.63c-.003.502-.111.91-.325 1.019-1.251.63-3.004-1.206-3.281-2.368-3.168 1.504-6.789 1.13-6.789 1.13.899-.252 2.623-1.024 4.035-2.34-.02-.016-.042-.029-.061-.046-.614-.55-.89-2.924.583-3.442.512-.18 1.009.081 1.435.52a5.74 5.74 0 0 0 .258-2.03 3.442 3.442 0 0 0-.066-.499c-1.182-.553-1.92-1.376-1.158-2.075-1.849-1.93-5.375-3.093-7.675-3.682l-.01-.012c1.918 2.37 2.36 4.51 2.36 4.51s-8.929-4.233-12.822-6.009c-.66-.3-1.437-.471-2.27-.551a6.931 6.931 0 0 1-1.315-.054c-3.846.031-8.224 1.518-8.224 1.518a18.052 18.052 0 0 1 2.03-2.446c-1.484.6-3.62.677-3.879.019-.34-.877 1.232-2.437 2.843-3.183 1.571-.73 2.875.461 2.453 1.92 5.093-3.88 10.34-1.916 12.266-.956a23.727 23.727 0 0 1 6.543.198c.339-.813 1.529-1.619 2.587-1.842l-.18-.088c-28.505-3.971-45.806 6.52-48.156 8.056l-.005-.001c.709.414 1.433.876 2.175 1.387.172-.569.484-1.231 1.038-1.497 1.054-.505 3.086-1.229 3.793-.367.391.476.14 1.073-.319 1.616.773.02 1.455.072 1.944.12-1.45.419-2.753.916-3.909 1.433h5.152c1.466-1.039 3.425-1.975 6.048-2.652a.859.859 0 0 1-.378-.285c-.965-1.362 2.525-3.538 3.842-2.637 1.318.901-.283 1.87-.636 2.332-.113.148-.419.32-.802.458a42.184 42.184 0 0 0-3.05 3.152l-.295 1.09c.964-.748 2.613-1.279 3.173-.991.922.475.005 1.706-1.01 2.35-.982.621-1.856 1.058-2.608.289l-1.612 5.976a1.59 1.59 0 0 1 .516-.064c.399.027.4 1.277-.015 2.188 1.245.373 4.462.69 8.612-3.785 0 0-.841-.769-3.779-.217-.946 1.369-2.746 2.69-3.195 1.991-.924-1.437 1.713-4.854 3.243-4.229a12.168 12.168 0 0 1 2.856-1.956c1.048-.944 3.105-2.066 3.657-1.696a.766.766 0 0 1 .323.477 10.52 10.52 0 0 1 2.077.047c.791-1.352 3.852-1.422 4.21-.992.375.452.924 1.425-.53 1.802 1.289.394 2.634.899 3.995 1.476-1-1.156-.846-2.776-.256-2.925.738-.182 3.107 2.297 2.755 2.76-.2.262-.266.802-.581 1.02a81.79 81.79 0 0 1 4.15 2.09c-1.238-.912-2.033-3.226-.796-3.262.197-.006.384.002.562.019-4.055-2.115-9.32-4.58-12.5-4.972 0 0 2.609-3.09 10.649 2.085a.647.647 0 0 1 .099-.562c.98-1.456 1.401-1.996 2.323-1.524.923.477 1.818 1.917 1.499 3.045-.15.523-1.183.53-2.156.25 1.715 1.243 3.642 2.827 5.804 4.84 0 0-1.404-.835-3.486-1.972.711.989.64 2.282.087 2.658-.215.146-.352.24-.454.292 1.192.669 2.329 1.336 3.375 1.969-.81-.908-1.608-2.124-.99-2.38 1.837-.757 3.313.357 3.461 1.908.1 1.044-.268 1.47-.706 1.558.61.383 1.172.741 1.676 1.068a1.77 1.77 0 0 1 .164-.825c1.005-2.335 3.36.304 3.4 1.404 1.463-.688 3.312-1.289 5.25-1.225.843.029 1.68.222 2.486.513-.282-.508-.369-.938-.03-1.078zM47.887 57.14c-1.446-2.645-1.73-4.812-1.73-4.812 1.2 2.043 3.152 3.632 5.095 4.812h4.223c-1.587-.62-2.649-1.328-3.228-1.783 1.255.01 2.216-.185 2.834-.367-4.762-1.72-9.662-7.942-10.545-9.103-.873 1.778-1.178 6.59.873 11.253h2.478m50.354 24.207a106.135 106.135 0 0 0-7.331-1.968c.366 1.367.07 3.245-.751 3.339-1.251.136-2.924-1.884-2.924-1.884s.327-1.183.962-2.03a69.545 69.545 0 0 0-6.392-.954l-.672 2.49c.411-.374.757-.426.757-.426.488.014.851.248 1.104.597.537-.398.855-.617.855-.617-.259.23-.517.477-.776.734.188.306.304.685.354 1.079.116.93-.041 2.157-1.204 2.143-.498-.006-.985-.333-1.331-.784a44.73 44.73 0 0 0-.753.958l-1.094 4.056c1.975-.49 4.901-1.096 8.556-1.506.238-.072.485-.135.744-.18.225-.04.392-.018.51.051.8-.075 1.63-.14 2.49-.194-.238-.333-.291-.695-.016-1.047.75-.964 3.53-.278 4.367.91.652-.002 1.314.003 1.988.02l.004-.025c-.415-.317-.788-.965-.95-2.213-.208-1.61.57-2.387 1.503-2.549M63.409 56.294c.707.188 1.434.493 2.132.846h4.254c-2.606-2.041-6.204-4.063-8.684-3.614 2.563.431 4.633 1.957 5.645 2.837a17.429 17.429 0 0 0-3.347-.07M93.37 73.49c-.02-.07-.041-.138-.059-.21 0 0-1.248.897-3.257 1.407-.344.761-1.391 1.703-2.48 1.401-.7-.194-.993-.622-1.002-1.084a11.17 11.17 0 0 1-3.744-.946l-.921 3.412c2.642.007 6.561.201 11.281.998-.464-.52-.729-1.176-.57-1.901.178-.82.433-1.97.753-3.076m-14.705 41.303c-.66 1.398-2.94 2.303-2.544 1.42.327-.737.378-2.68 1.377-3.016 1.002-.335 1.825.199 1.167 1.596zm-2.74-10.978c1.245-1.284 1.733-1.668 2.392-.046.657 1.62.676 1.977-1.11 2.57-1.784.59-1.957-1.83-1.281-2.524zm-6.543-1.96c.022-.659.378-2.675 1.375-3.015 1-.336 1.825.198 1.167 1.598-.658 1.397-2.576 2.385-2.542 1.417zM92.426 95.5c-1.172.144-2.375.31-3.594.504-.532.25-1.218.55-1.764.296-3.836.683-7.763 1.641-11.37 2.98-1.566 4.168-1.298 7.84-1.11 9.224.276.658.202 1.5-.138 1.998-.401.587-2.619-.162-2.467-1.532.152-1.374-.362-1.493 1.237-1.427.499.02.865.23 1.115.534-1.644-5.15-.665-9.258.413-11.758-.664.45-1.316.559-1.47.02-.131-.46.196-1.567.74-2.32-1.92.484-3.067 1.18-3.067 1.18a11.35 11.35 0 0 1 .709-2.164h-.4l-3.22 11.942c.488 6.122 4.428 9.506 4.428 9.506-2.85-.692-4.668-2.579-5.801-4.416l-.773 2.863c.43.591.734 1.334.61 1.873.221.057.844.221 1.766.49.09-.09.262-.033.451.132a96.18 96.18 0 0 1 4.22 1.364c.089.002.185.006.292.01.462.019.807.202 1.054.47a83.263 83.263 0 0 1 6.121 2.507c.455-.112.882-.087 1.222.147.198.135.174.288.038.446.705.342 1.41.698 2.105 1.07.689-.19 1.266.048 1.286.71.916.522 1.811 1.07 2.669 1.645 0 0 3.374.645 5.63-.55 0 0-2.636-2.465-6.512-5.131.032.485.007.837-.13.913-.421.235-3.227-1.062-3.253-2.786a2.369 2.369 0 0 1 .013-.277 42.487 42.487 0 0 0-4.378-2.26l-.029.021.024-.023-.148-.068s.125-.06.369-.138c.45-.414 1.524-1.366 3.177-2.621-.527.024-.835-.125-.547-.436.546-.594 1.222-2.418 2.278-2.42.656 0 1.139.298 1.152.791a70.305 70.305 0 0 1 3.236-2.062c-.482-.095-.918-.264-1.152-.447-4.687-.534-7.502 3.812-7.502 3.812v-.001s-1.425-4.066 2.29-8.403c-.334.132-.69.148-1.042-.097-1.152-.796.025-3.372 1.62-3.362 1.08.007 1.353.963 1.26 1.667 1.893-1.564 4.573-3.094 8.342-4.416z" fill="#C3B597"/><path d="M86.889 167.3H9.015l6.832-25.323h6.447L36.922 87.75h-6.447l6.83-25.325h43.151L73.625 87.75h-6.447L52.55 141.977h14.655l2.413-8.792H96.14l-9.251 34.116zm-18.964-36.317l-2.414 8.791H55.44l13.44-49.822h6.447l8.02-29.73H35.605l-8.02 29.73h6.447l-13.44 49.822h-6.447l-8.019 29.729h82.462l10.445-38.52H67.925z" fill="#A08F66"/><path d="M85.19 165.098H11.905l5.643-20.92h6.447l15.816-58.63h-6.447l5.643-20.92h38.56l-5.643 20.92h-6.448l-15.816 58.63h19.238l2.414-8.79h21.934l-8.056 29.71zm-15.572-31.913l-2.413 8.792H52.55L67.178 87.75h6.447l6.831-25.325h-43.15L30.475 87.75h6.447l-14.628 54.227h-6.447L9.015 167.3H86.89l9.25-34.116H69.62z" fill="#FFF"/><path d="M83.408 162.4H15.124l4.296-15.798h6.295L42.84 83.118h-6.297l4.336-16.089h33.464l-4.29 16.096h-6.364l-17.572 65.134h24.32l2.805-10.407h16.775L83.408 162.4zm-12.096-27.012l-2.414 8.79H49.66l15.816-58.63h6.448l5.643-20.92h-38.56l-5.643 20.92h6.447l-15.816 58.63h-6.447l-5.643 20.92H85.19l8.056-29.71H71.312z" fill="#8E0A26"/><path fill="#8E0A26" d="M75.114 140.236l-2.805 10.407H43.042l18.866-69.937h6.272l3.09-11.294H42.75l-3.029 11.29h6.193l-18.45 68.322-6.319-.023-2.95 10.973-.003.012H81.63l5.314-19.75h-11.83"/><path fill="#B9505A" d="M42.75 69.412h28.52l3.073-2.383H40.88l-4.336 16.09 3.178-2.417 3.03-11.29m20.937 13.713h6.363l-1.872-2.42h-6.272l1.78 2.42m9.554 54.727l-2.805 10.407h-24.32l-3.075 2.384h29.266l2.806-10.407h11.83l3.073-2.384H73.242M42.84 83.118l-17.125 63.484H19.42L15.124 162.4l3.068-2.414.004-.012 2.95-10.973 6.318.023 18.45-68.322-3.074 2.416"/><path d="M104.775 140.58l.057 1.226.712-1.227h.889l-.574 2.13h-.573l.404-1.5-.858 1.5h-.49l-.052-1.515-.408 1.514h-.573l.575-2.129h.891zm-3.11.513l.14-.514h1.885l-.14.514h-.628l-.435 1.615h-.628l.435-1.615h-.628z" fill="#231F20"/></g></svg>