<?xml version="1.0" encoding="UTF-8"?>
<svg width="200px" height="200px" viewBox="0 0 200 200" version="1.1" xmlns="http://www.w3.org/2000/svg" xmlns:xlink="http://www.w3.org/1999/xlink">
    <!-- Generator: Sketch 51.3 (57544) - http://www.bohemiancoding.com/sketch -->
    <title>lafayette</title>
    <desc>Created with Sketch.</desc>
    <defs></defs>
    <g id="lafayette" stroke="none" stroke-width="1" fill="none" fill-rule="evenodd">
        <g id="lafayette_BGL" transform="translate(0.000000, 26.865672)">
            <g id="lafayette">
                <g id="g10" transform="translate(99.999998, 73.654265) scale(-1, 1) rotate(-180.000000) translate(-99.999998, -73.654265) translate(0.000000, 0.002255)" fill-rule="nonzero">
                    <g id="g12">
                        <path d="M196.057591,63.7776849 C196.057591,63.7776849 184.216322,77.8069286 158.708386,81.9429281 C158.724939,82.1478925 158.724486,82.3528568 158.73401,82.5573706 C181.873918,85.1703277 199.9136,77.9206725 199.9136,77.9206725 C199.9136,77.9206725 186.006571,89.5471039 158.329248,87.6805773 C157.538545,91.4832283 155.663261,95.2901588 152.755098,99.0263653 C154.057593,103.167996 157.507706,117.769338 146.132649,123.903176 C146.132649,123.903176 143.958273,124.195532 140.315416,123.574783 C136.479135,126.291348 131.99977,127.416174 130.328795,127.759658 C119.760541,143.299106 105.85714,148.866252 101.714056,146.681468 C98.0605418,144.477088 102.327662,141.361405 102.267118,134.612223 C90.9736939,134.616953 76.0217668,130.042645 67.0793634,123.813758 C60.9346924,125.862049 53.2918354,125.036111 47.0489784,132.221348 C45.9015862,133.541679 44.1630374,133.658801 42.7233549,132.511902 C40.1464843,130.459331 38.5723346,125.022371 39.4537405,118.61825 C35.0877542,118.61825 32.2088427,118.61825 31.9977316,118.61825 C31.7551012,117.718209 21.8680947,81.0669873 21.4592285,79.5509271 C22.7217681,79.5509271 27.9063485,79.5509271 27.9063485,79.5509271 L16.9857139,39.0668727 C16.9857139,39.0668727 11.3752378,39.0668727 10.5383671,39.0668727 C10.2954873,38.1670568 0.408961441,1.51602863 0,0 C1.38260087,0 70.6650776,0 92.1596349,0 C94.4904738,8.54611067 97.8036257,20.7030167 100.155326,29.3569702 C101.542628,29.2574161 103.404079,29.2880481 103.404079,29.2880481 C103.404079,29.2880481 110.043535,28.5844124 118.6907,30.5317985 C118.350791,29.9959633 115.74104,26.0937582 115.74104,26.0937582 C125.74172,28.2702089 148.581856,37.4771605 137.280269,58.2758573 C137.256459,58.6826326 137.221539,59.0916602 137.173239,59.5006879 C140.411561,60.1466633 143.038092,62.0755802 143.775733,62.6611925 C146.161448,63.5936675 148.665529,65.1714422 150.853284,67.108918 C163.987751,55.3245965 173.252377,35.6372117 173.252377,35.6372117 C173.252377,35.6372117 173.914055,51.3163055 154.354871,70.89828 C154.489339,71.0762161 154.61791,71.2550531 154.746028,71.4354667 C173.114962,63.9941362 187.975959,49.7133044 187.975959,49.7133044 C187.975959,49.7133044 181.565528,64.9513871 157.25147,75.964277 C157.380268,76.2778048 157.494554,76.5922335 157.606572,76.9093651 C172.489792,75.901211 196.057591,63.7776849 196.057591,63.7776849" id="path14" fill="#FFFFFF"></path>
                        <path d="M186.334236,69.7520566 C186.334236,69.7520566 174.969157,78.1269883 156.990699,80.6433193 C157.163261,81.7147646 157.24308,82.8242747 157.214735,83.9680205 C162.399996,84.4763771 176.697501,85.4703413 188.215415,82.4470052 C188.215415,82.4470052 175.133782,87.8697752 157.049883,86.0181141 C156.517456,89.9432932 154.696822,94.2247949 151.022899,98.7385143 C151.022899,98.7385143 157.33469,115.721947 145.657593,122.395675 C143.099316,122.61145 139.946935,121.935969 139.946935,121.935969 C135.395915,125.422164 129.41655,126.361847 129.41655,126.361847 C116.897503,145.200995 99.7192719,148.698452 101.94875,143.355415 C102.767344,141.394515 104.260542,136.394737 103.696596,133.044359 C92.9278888,133.456765 76.7453496,128.988318 67.3287965,122.110752 C58.8113364,125.191523 52.8138309,123.226794 45.8734682,131.213645 C43.5907019,133.841467 39.2557813,126.677627 41.261677,117.032367 L33.2224481,117.032367 L23.5399087,81.136585 L29.9868473,81.136585 L18.2107478,37.48144 L11.7634918,37.48144 L2.08058725,1.58588768 L90.9666644,1.58588768 L100.239227,35.780011 C100.862809,36.5109002 101.517231,37.2080041 102.205893,37.8472224 C107.006347,34.5738749 110.499544,34.591218 113.34104,34.3887313 C111.624714,32.5028344 108.84807,30.8079373 108.84807,30.8079373 C112.759861,30.792396 118.156006,31.9253306 121.835825,32.8287502 C120.797049,30.862219 119.400224,28.7758626 119.400224,28.7758626 C138.955779,34.5159893 142.150337,47.3897749 135.751471,57.82899 C135.614963,61.6037118 134.051244,66.0417521 134.051244,66.0417521 C135.18367,64.8534096 136.655552,64.1094568 137.719724,63.6848878 C137.200223,62.1179245 136.451697,60.9334109 136.451697,60.9334109 C140.037638,61.4906436 142.96825,63.99774 142.96825,63.99774 C145.465756,64.9270616 148.350336,66.731198 150.868704,69.2387449 C153.815869,66.4600145 164.900449,55.5748331 170.354418,44.1240854 C170.354418,44.1240854 165.947842,58.0598564 152.264395,70.7503003 C152.951924,71.560022 153.595688,72.4262777 154.17732,73.3468152 C158.062354,71.7562021 172.252377,65.5957858 181.458045,56.9271471 C181.458045,56.9271471 172.380495,68.2010849 155.195461,75.1509516 C155.746935,76.2485242 156.205665,77.4098384 156.546708,78.6274615 C161.634463,77.8999509 175.838771,75.462227 186.334236,69.7520566" id="path16" fill="#231F20"></path>
                        <path d="M111.644215,132.360319 C111.196369,134.409286 110.224034,135.981655 109.709068,136.705562 C111.84943,135.267659 113.527435,133.40879 114.64172,131.963229 C117.046029,131.621096 118.82426,131.312748 119.277095,131.233015 C119.831063,131.061386 120.381403,130.872413 120.930382,130.674431 C116.893421,136.067245 110.378682,141.321538 105.894328,142.186443 C106.471879,140.797415 107.81587,137.059857 107.662809,132.784662 C109.022446,132.66326 110.370519,132.516182 111.644215,132.360319" id="path18" fill="#C3B597"></path>
                        <path d="M113.525621,53.6058243 C113.525621,53.6058243 113.774147,51.0505276 117.243081,51.6433474 C117.243081,51.6433474 120.117231,54.0448083 118.286392,58.8022326 C118.286392,58.8022326 117.001811,55.4011765 113.525621,53.6058243" id="path20" fill="#FFFFFF"></path>
                        <path d="M132.958727,59.4641998 C132.958727,59.4641998 132.141493,56.2280161 130.493194,55.2133301 C130.493194,55.2133301 131.458954,54.2409885 131.89977,53.1362083 C132.914963,54.0087707 134.711108,56.1593192 132.958727,59.4641998" id="path22" fill="#FFFFFF"></path>
                        <path d="M112.613376,71.7156597 C109.95782,71.7744462 109.512696,72.2028441 109.512696,72.2028441 C107.046256,63.7918747 113.634691,56.4750994 113.634691,56.4750994 C117.555553,57.841378 118.352151,62.6431736 118.352151,62.6431736 C119.763716,61.4874903 120.723126,57.0298545 120.723126,57.0298545 C126.260768,56.6899741 130.960541,59.107652 130.960541,59.107652 C131.853738,66.0084173 125.658047,69.8239067 125.658047,69.8239067 C122.859861,67.551731 122.658274,62.5834862 122.658274,62.5834862 C117.39909,65.7764247 117.533557,71.8181418 117.533557,71.8181418 L114.700224,71.721741 C113.032877,68.1130178 115.849884,59.6835791 115.849884,59.6835791 C111.09773,63.4483906 112.613376,71.7156597 112.613376,71.7156597" id="path24" fill="#8E0A26"></path>
                        <path d="M124.131063,71.823097 C121.071199,71.3377145 119.697276,71.9571121 119.697276,71.9571121 C119.937639,68.1979316 122.135144,66.1586494 122.135144,66.1586494 C121.552605,68.734893 124.131063,71.823097 124.131063,71.823097" id="path26" fill="#FFFFFF"></path>
                        <path d="M128.97528,55.2739185 C128.568251,55.995573 128.027888,55.8162856 127.972786,55.1004871 C127.942627,54.6961894 127.686618,54.0488626 127.510654,53.6438891 C127.360995,54.1680122 127.178908,54.7202896 127.075507,54.9953022 C126.789566,55.774617 126.227208,55.6804686 126.060314,54.9844909 C125.977094,54.640331 125.83265,54.1074238 125.72358,53.7112346 C125.535825,54.1873824 125.321766,54.6754677 125.231516,54.8923695 C124.902491,55.6633507 124.318591,55.6230335 124.165983,54.9669225 C124.093874,54.652719 123.936505,54.0968377 123.809521,53.6605566 C123.652831,54.1186856 123.50045,54.5799679 123.393194,54.7912388 C123.225394,55.1263892 122.519045,55.8838562 122.248977,54.7660124 C122.155779,54.3826616 122.056233,53.739389 122.00045,53.3513082 C121.832877,53.6713679 121.581856,54.1961666 121.510881,54.5955091 C121.389113,55.3020729 120.960314,55.6322682 120.589566,54.7898874 C120.409521,54.372526 120.088886,53.7468218 120.094555,53.1731469 C120.094555,53.1731469 122.089113,52.8497088 123.993874,52.9143514 C127.519498,53.0344019 129.223126,53.8661966 129.223126,53.8661966 C129.156006,54.5018112 129.15079,54.9675982 128.97528,55.2739185" id="path28" fill="#FFFFFF"></path>
                        <path d="M139.489792,69.1060812 C139.489792,69.1060812 138.126754,65.2568064 139.620405,64.0610311 C139.620405,64.0610311 141.53401,65.6696631 142.36689,69.0567546 C142.412015,69.2423486 139.653738,70.4144742 139.489792,69.1060812" id="path30" fill="#FFFFFF"></path>
                        <path d="M143.109747,73.8416576 C140.21587,75.525293 137.628341,75.1687452 137.628341,75.1687452 C132.325394,72.7064707 127.291153,72.2179349 127.291153,72.2179349 C128.08299,71.1106771 133.16553,71.0248624 136.36757,71.7940416 C140.604305,72.8089528 143.220405,71.2467194 143.220405,71.2467194 C143.220405,71.2467194 143.584123,72.7816993 143.109747,73.8416576" id="path32" fill="#FFFFFF"></path>
                        <path d="M136.538999,92.3483579 C134.659407,92.3663767 133.920178,90.8919851 133.920178,90.8919851 C133.920178,90.8919851 133.302264,92.261417 135.607026,93.1022211 C137.908387,93.9416738 142.706799,91.099427 142.706799,91.099427 C141.929248,91.3940351 138.419044,92.3307895 136.538999,92.3483579 Z M148.951243,91.3699349 C150.595461,90.6931022 150.231516,90.0840654 149.564622,89.3615099 C149.553284,89.7707628 149.965529,91.5800796 144.379361,90.8570736 C144.379361,90.8570736 147.303171,92.0485694 148.951243,91.3699349 Z M137.022446,85.6311595 C137.022446,85.6311595 137.731062,82.8103101 140.513375,81.3859207 C140.513375,81.3859207 141.710201,84.0173471 142.499316,87.9087409 C142.499316,87.9087409 144.20884,87.2807843 142.328795,81.0516713 C142.328795,81.0516713 145.362581,82.0478879 146.687751,84.4331319 C146.687751,84.4331319 144.425847,85.6541335 145.352831,87.165689 C146.279361,88.6752173 149.410427,86.1462731 151.007026,89.6534151 C152.602491,93.1612328 146.18503,92.9655032 143.745575,91.7568895 C143.745575,91.7568895 137.208613,95.6160746 134.629475,93.8137401 C132.053738,92.0091532 132.199543,90.1777633 134.762128,89.1407791 C137.281176,88.1238408 140.17596,90.0505053 139.979362,87.3958797 C139.814962,85.199383 137.022446,85.6311595 137.022446,85.6311595 Z" id="path34" fill="#4F4C4C"></path>
                        <path d="M135.607026,93.1022211 C133.302264,92.261417 133.920178,90.8919851 133.920178,90.8919851 C133.920178,90.8919851 134.659407,92.3663767 136.538999,92.3483579 C138.419044,92.3307895 141.929248,91.3940351 142.706799,91.099427 C142.706799,91.099427 137.908387,93.9416738 135.607026,93.1022211" id="path36" fill="#989696"></path>
                        <path d="M149.564622,89.3615099 C150.231516,90.0840654 150.595461,90.6931022 148.951243,91.3699349 C147.303171,92.0485694 144.379361,90.8570736 144.379361,90.8570736 C149.965529,91.5800796 149.553284,89.7707628 149.564622,89.3615099" id="path38" fill="#989696"></path>
                        <path d="M112.083217,102.19633 C110.790927,102.0006 109.526981,102.706939 109.021766,103.892128 C108.344895,104.268947 107.700451,104.628648 107.103852,104.961771 C107.005666,103.993709 107.130383,102.743202 107.694102,101.143354 C107.694102,101.143354 106.331743,102.245431 105.556006,103.856991 C105.230836,104.535851 105.010201,105.303679 105.037639,106.118806 C104.271653,106.549682 103.670519,106.888211 103.29909,107.098355 C102.225394,104.000466 104.248977,99.2455194 107.688433,99.2434923 C109.460995,100.171913 111.51587,100.903253 113.493421,101.419943 C113.017004,101.681216 112.546936,101.940462 112.083217,102.19633" id="path40" fill="#DEDDDE"></path>
                        <path d="M105.037639,106.118806 C105.054192,106.62446 105.166211,107.147231 105.409748,107.677886 C105.537866,107.95898 105.70544,108.242777 105.912923,108.526799 C105.54807,108.724105 105.189793,108.916231 104.841947,109.10205 C104.138319,108.666895 103.596596,107.970242 103.296596,107.099481 C103.668478,106.889337 104.270292,106.550582 105.037639,106.118806" id="path42" fill="#B4B3B3"></path>
                        <path d="M107.261449,105.811134 C107.190247,105.556618 107.136279,105.273047 107.103852,104.961771 C107.700451,104.628648 108.344895,104.268947 109.021766,103.892128 C108.712242,104.620089 108.626301,105.682975 109.339907,106.660047 C108.919725,106.891589 108.498183,107.12223 108.076641,107.352196 C107.784124,107.020874 107.460315,106.523104 107.261449,105.811134" id="path44" fill="#B4B3B3"></path>
                        <path d="M112.083217,102.19633 C112.546936,101.940462 113.017004,101.681216 113.493421,101.419943 C113.494782,101.419042 113.496596,101.418141 113.498183,101.41724 C114.572333,101.697658 116.406346,102.058936 117.399997,102.176509 C117.399997,102.176509 116.138773,102.887352 114.295916,103.915327 C113.757367,102.638017 112.654646,102.28282 112.083217,102.19633" id="path46" fill="#B4B3B3"></path>
                        <path d="M112.394328,104.972583 C112.375961,104.49148 111.796596,103.952941 111.146709,104.286966 C111.874147,104.411296 111.878228,105.024837 111.858501,105.270119 C111.571199,105.429585 111.285258,105.588151 110.985712,105.753474 C110.594328,105.504364 110.399544,105.021233 110.519498,104.580222 C110.672333,104.010602 111.263943,103.672073 111.838773,103.825008 C112.255099,103.936274 112.625394,104.323454 112.634691,104.839018 C112.556233,104.883164 112.47392,104.928887 112.394328,104.972583" id="path48" fill="#8E0A26"></path>
                        <path d="M105.409748,107.677886 C105.166211,107.147231 105.054192,106.62446 105.037639,106.118806 C105.010201,105.303679 105.230836,104.535851 105.556006,103.856991 C106.331743,102.245431 107.694102,101.143354 107.694102,101.143354 C107.130383,102.743202 107.005666,103.993709 107.103852,104.961771 C107.136279,105.273047 107.190247,105.556618 107.261449,105.811134 C107.460315,106.523104 107.784124,107.020874 108.076641,107.352196 C108.077322,107.352196 108.077322,107.352196 108.077322,107.352196 C108.023807,107.381251 105.929249,108.518465 105.912923,108.526799 C105.70544,108.242777 105.537866,107.95898 105.409748,107.677886" id="path50" fill="#FFFFFF"></path>
                        <path d="M148.602944,106.519275 C148.274826,106.419045 148.183216,106.388638 148.183216,106.388638 C148.337865,106.056416 148.362581,105.750996 148.315189,105.475083 C148.604985,105.571259 149.003398,105.704823 149.004758,105.704823 C148.969384,105.97961 148.833783,106.306202 148.602944,106.519275" id="path52" fill="#B4B3B3"></path>
                        <path d="M146.744214,104.957492 C147.022445,105.047811 147.272785,105.130473 147.506572,105.206602 C147.549883,105.635225 147.44376,105.936591 147.33537,106.124437 C147.167117,106.070831 147.000677,106.017901 146.836051,105.964745 C147.061901,105.475308 146.857139,105.116733 146.744214,104.957492" id="path54" fill="#B4B3B3"></path>
                        <path d="M145.568477,104.579547 C145.35147,104.652523 145.000903,104.840595 144.898409,105.335437 C144.433103,105.182052 144.137411,105.083624 144.137411,105.083624 C144.544668,104.951636 144.873693,104.755456 145.307706,104.484497 C145.345348,104.495759 145.531289,104.56806 145.568477,104.579547" id="path56" fill="#B4B3B3"></path>
                        <path d="M145.755098,105.140158 C145.947842,105.045784 146.179135,105.123941 146.275507,105.314941 C146.3263,105.416297 146.338318,105.631622 146.195915,105.760006 C146.194327,105.759781 146.192513,105.759105 146.190473,105.758429 C146.075053,105.721265 145.96757,105.687255 145.856459,105.651442 C145.810654,105.544681 145.815869,105.334761 146.033103,105.254577 C146.000223,105.245793 145.968477,105.236784 145.934237,105.239937 C145.67596,105.249397 145.633556,105.451433 145.6424,105.583421 C145.613148,105.574412 145.548069,105.552789 145.545801,105.552339 C145.514736,105.375529 145.626073,105.202098 145.755098,105.140158" id="path58" fill="#8E0A26"></path>
                        <path d="M147.506572,105.206602 C147.471198,104.859514 147.338318,104.42954 147.026754,103.906543 C147.026754,103.906543 148.147842,104.500489 148.315189,105.475083 C148.362581,105.750996 148.337865,106.056416 148.183216,106.388638 C147.992513,106.330302 147.423806,106.152366 147.33469,106.124887 C147.33469,106.124437 147.33469,106.123536 147.33537,106.124437 C147.44376,105.936591 147.549883,105.635225 147.506572,105.206602" id="path60" fill="#FFFFFF"></path>
                        <path d="M148.315189,105.475083 C148.604985,105.571259 149.003398,105.704823 149.004758,105.704823 C149.120858,104.125697 147.751017,103.010781 146.894101,103.235116 C146.894101,103.235116 145.75079,104.172096 145.307706,104.484497 C145.345348,104.495759 145.531289,104.56806 145.568477,104.579547 C145.568477,104.579547 146.311561,104.31512 146.744214,104.957492 C147.022445,105.047811 147.272785,105.130473 147.506572,105.206602 C147.506572,105.206602 147.400223,104.414449 147.026754,103.906543 C147.026754,103.906543 148.107479,104.426612 148.315189,105.475083" id="path62" fill="#DEDDDE"></path>
                        <path d="M104.117458,122.918897 C103.17188,123.054263 102.358274,123.418695 102.359408,124.148007 C98.6628093,123.407433 95.8931949,121.400359 95.8931949,121.400359 C95.8931949,121.400359 100.271653,122.887589 104.117458,122.918897" id="path64" fill="#AC9C77"></path>
                        <path d="M106.757594,123.10359 C106.478229,122.982413 105.986845,122.892995 105.43129,122.865066 C106.264623,122.785332 107.041494,122.614829 107.701811,122.313464 C111.595462,120.537932 120.523126,116.304406 120.523126,116.304406 C120.523126,116.304406 118.090927,118.603835 114.372106,120.905517 C114.122673,120.881191 113.814736,120.868578 113.433104,120.873984 C111.035825,120.904165 109.701585,122.173593 110.186845,122.941646 C110.222219,122.997054 110.260315,123.052236 110.300678,123.106293 C109.924714,123.279724 109.542401,123.447975 109.153966,123.609019 C108.553512,123.85903 107.950337,124.042822 107.350111,124.172332 C107.241947,123.652038 107.036279,123.226569 106.757594,123.10359" id="path66" fill="#AC9C77"></path>
                        <path d="M121.425847,104.943302 C120.921539,105.269668 120.359861,105.628243 119.75011,106.010693 C119.536051,105.967448 119.306346,106.003936 119.105439,106.091102 C118.887299,106.186151 118.434464,106.594278 117.985031,107.097004 C116.938546,107.729916 115.801811,108.397063 114.609521,109.066238 C114.258727,108.888977 114.318591,109.210839 113.248296,109.79037 C113.15646,109.839246 113.066891,109.897582 112.979362,109.961999 C111.629249,110.687933 110.231063,111.398551 108.828795,112.052185 C108.587072,111.88461 108.199771,111.904656 107.494555,112.383732 C107.265303,112.54027 107.074374,112.717756 106.910882,112.907629 C105.550111,113.485133 104.204759,113.990111 102.916777,114.383598 C102.883898,114.375264 102.856006,114.365579 102.821086,114.357695 C101.242174,114.002049 98.7909272,113.800463 99.1031721,114.886098 C99.1342379,114.995112 99.1802696,115.097369 99.2362787,115.19377 C98.4972764,115.277332 97.8015849,115.296252 97.1587277,115.240619 C97.2807232,114.723027 96.9861654,113.999346 96.5342379,113.396165 C98.7292492,113.738523 101.577548,113.511936 105.054192,111.871996 C108.831517,110.088357 121.928115,102.495893 121.928115,102.495893 C121.928115,102.495893 122.352831,102.842756 123.072106,103.303587 C122.155099,103.691668 121.476187,104.190565 121.425847,104.943302" id="path68" fill="#AC9C77"></path>
                        <path d="M83.6587281,52.7006029 C83.6970501,52.7136665 83.7346918,52.7233516 83.7725603,52.733262 C83.0770954,53.1051258 82.3730138,53.4612232 81.6677984,53.8031306 C81.3399073,53.4233836 80.360769,53.016383 80.2433087,52.7760568 C80.2238075,52.7352891 80.1993177,52.6715475 80.1689322,52.5938412 C81.0122429,52.1931473 81.8628097,51.7683531 82.7124696,51.3183326 C82.8907009,51.9476406 83.1528324,52.5307753 83.6587281,52.7006029" id="path70" fill="#AC9C77"></path>
                        <path d="M68.2698396,58.8797136 C67.3480709,59.1479691 66.7251684,59.3121658 66.5036265,59.3691504 C66.4963702,59.3387436 66.4895675,59.3081116 66.4798169,59.2777048 C66.2655312,58.6414145 65.804987,58.1465721 65.2727875,57.9519686 C65.2832183,57.9350759 65.2927421,57.917958 65.3029462,57.9008401 C65.3029462,57.9008401 66.0632637,57.7271836 67.3569144,57.3654554 C67.6054405,58.097696 68.1421752,58.7407433 68.2648509,58.8761099 C68.2664382,58.8779118 68.2682523,58.8779118 68.2698396,58.8797136" id="path72" fill="#AC9C77"></path>
                        <path d="M72.940361,57.383249 C71.2848055,57.9605276 69.8328781,58.416179 68.7210867,58.7468247 C68.9786831,58.5209135 69.2666649,58.0947679 69.4174586,57.5663654 C69.4616763,57.4114034 69.3877534,57.1219758 69.2412681,56.811376 C70.0641706,56.5591123 70.9904744,56.26045 71.993649,55.914263 C71.9943293,55.9250743 71.992742,55.9354351 71.9941025,55.9464717 C72.1365061,57.2294131 71.6993179,57.4165838 72.940361,57.383249" id="path74" fill="#AC9C77"></path>
                        <path d="M80.408388,54.396401 C78.2882067,55.3703193 76.189794,56.2072944 74.2872997,56.9021459 C74.7557804,56.3946903 74.8630367,55.5757341 74.6895673,54.9335876 C75.8643972,54.4837923 77.1006783,53.9788143 78.3689323,53.4184284 C78.6530593,53.5258657 78.8936488,53.6384835 79.0589549,53.7506508 C79.5018121,54.0531421 79.9687055,54.2889636 80.408388,54.396401" id="path76" fill="#AC9C77"></path>
                        <path d="M78.9453495,60.5387983 C80.5151907,59.8563348 82.040134,59.0538207 83.4764151,58.2089623 C83.5124696,58.5754205 83.6297031,58.897282 83.7995444,59.1702674 C82.0941023,59.9371943 80.4235808,60.4601912 78.9453495,60.5387983" id="path78" fill="#AC9C77"></path>
                        <path d="M94.7956892,51.9645332 C94.1428548,52.4996928 93.3027188,53.1688675 92.3335578,53.8970539 C91.6108821,53.4587456 90.7820839,53.3209014 89.9049864,54.1993199 C89.3503379,54.7576787 89.4106554,55.3054514 89.7541928,55.7437597 C88.767118,56.4145111 87.720406,57.0823343 86.652152,57.697903 C86.7355987,57.1091374 86.8165511,56.5228493 86.8464831,56.0590894 C90.7215397,53.3927516 93.3573673,50.9282247 93.3573673,50.9282247 C91.1022653,49.7333504 87.727889,50.3775239 87.727889,50.3775239 C86.8702926,50.9530006 85.9752813,51.5012238 85.058728,52.0237702 C85.0664378,51.7755607 84.9977303,51.4705918 84.8244877,51.1045841 C84.7090682,50.8579512 84.5424015,50.6277605 84.3498845,50.4189672 C85.2641702,49.8973218 86.1718799,49.3468462 87.0614491,48.7650629 C87.0614491,48.7650629 87.3757348,48.6794734 87.9083878,48.600641 C88.1571407,49.4817623 88.8555533,49.8925919 89.6043061,49.9326838 C90.5562336,50.092601 91.6630363,49.6123989 92.0494308,48.709655 C92.8838979,48.8833116 93.7591813,49.1704868 94.6229001,49.6225345 C93.6011314,50.4547797 93.9213128,51.4054987 94.7956892,51.9645332" id="path80" fill="#AC9C77"></path>
                        <path d="M72.3999982,119.72258 C74.7503383,121.258686 92.0510181,131.750381 120.556913,127.779029 C119.319045,128.288511 118.002718,128.712405 116.561222,129.054762 C115.083897,128.496404 113.052378,128.440545 112.801358,129.082917 C112.728115,129.269862 112.743535,129.488341 112.827208,129.723937 C111.297956,129.919667 109.626981,130.048051 107.782083,130.114946 C106.75714,129.725514 105.936959,129.320991 105.592061,128.972777 C105.11383,128.485367 103.800224,129.262204 103.308387,130.16157 C102.3907,130.150083 101.434918,130.127559 100.439,130.094675 C100.591607,129.852547 100.578002,129.579561 100.256007,129.297566 C99.1789091,128.356532 96.1707459,127.850203 95.4975033,128.545055 C95.112696,128.944172 95.3380929,129.37302 95.8013581,129.758398 C94.7707459,129.639474 93.7596348,129.492846 92.7671179,129.321441 C92.6263015,128.93246 92.256687,128.425905 91.6573673,127.815066 C90.584805,126.724026 88.1909275,126.198776 87.8711996,127.109403 C87.7219933,127.534423 87.6918345,127.902007 87.7482971,128.222517 C87.0600885,128.039401 86.3827643,127.845473 85.7156441,127.643212 C85.39705,126.567712 84.6446691,125.078905 82.9052133,124.900068 C81.347617,124.740827 81.0646238,125.425318 81.1126964,126.050346 C80.1907009,125.692672 79.2929685,125.321709 78.4188189,124.941512 C78.51315,124.287878 78.1734674,123.464643 77.4033994,122.847948 C76.3213133,121.977863 75.1773224,121.524013 74.5922884,122.115707 C74.3258485,122.382611 74.2816308,122.707176 74.3820843,123.050885 C72.9249415,122.322023 71.548751,121.587079 70.2571411,120.872632 C70.9551003,120.531626 71.6689324,120.150302 72.3999982,119.72258" id="path82" fill="#DFD7C6"></path>
                        <path d="M136.329475,78.7995415 C133.76689,79.7432782 132.211788,85.6692243 132.211788,85.6692243 C127.981629,87.6749464 127.884577,91.9071215 127.884577,91.9071215 C124.643081,94.0975368 121.256686,94.8800049 119.067344,95.1552427 C118.742401,94.7031951 118.284578,94.202947 117.809748,93.8094606 C120.460995,91.2030354 126.586391,87.6997224 126.586391,87.6997224 C122.436505,85.8043656 118.09138,87.0127541 116.154419,87.7479227 C116.012015,87.6657118 115.870292,87.5880055 115.731743,87.5161554 C119.331743,84.0479791 127.942627,82.6569247 127.942627,82.6569247 C123.322219,80.2836182 118.521993,80.978695 116.19138,81.5557483 C116.223807,81.425337 116.244442,81.2987546 116.250564,81.1809564 C121.009521,79.1536117 129.460087,79.3392057 129.460087,79.3392057 C119.340813,74.5284006 109.279362,76.717915 109.279362,76.717915 C118.002945,72.102389 138.892967,77.8533271 136.329475,78.7995415" id="path84" fill="#EAE4D8"></path>
                        <path d="M133.130382,120.293101 C134.578681,119.704336 135.693194,119.006331 136.472105,118.462387 C137.069838,119.212196 137.655779,119.65118 137.655779,119.65118 C137.40884,119.901417 137.129702,120.133635 136.831289,120.347834 C136.700904,120.125977 136.417684,120.102327 135.505212,120.131608 C134.452378,120.16742 134.16689,121.038406 134.452378,121.619063 C132.994554,122.212333 131.72562,122.481264 131.72562,122.481264 C132.550564,121.591359 132.949657,120.858893 133.130382,120.293101" id="path86" fill="#DFD7C6"></path>
                        <path d="M148.117683,114.127505 C148.22494,114.226608 148.409747,114.25251 148.637638,114.220527 C147.608613,118.02498 144.726073,119.124354 144.726073,119.124354 C144.191153,119.103182 143.68503,119.056333 143.20045,118.99079 C143.202491,118.961509 143.206119,118.934481 143.207706,118.903849 C143.218591,118.710597 143.219498,118.531535 143.216776,118.360356 C143.614509,118.11147 144.02494,117.811231 144.437638,117.450179 C144.505439,117.573383 144.605892,117.69028 144.755098,117.796141 C145.712241,118.470721 148.09342,116.894973 147.319271,115.476665 C147.117683,115.107504 146.888658,114.881143 146.652604,114.766047 C147.440586,113.464186 148.145121,111.8033 148.662808,109.675725 C148.745348,109.631579 148.817683,109.577297 148.877774,109.514456 C149.011107,110.593335 149.027434,111.562072 148.95215,112.424499 C148.290926,113.031058 147.683897,113.725009 148.117683,114.127505" id="path88" fill="#DFD7C6"></path>
                        <path d="M115.626528,44.5714031 C114.250564,44.7786198 113.067344,45.1752595 112.036732,45.7128966 C112.079362,45.4176129 111.801131,44.7714122 111.414963,44.3058504 C112.941947,44.0053863 114.451698,44.1650783 115.626528,44.5714031" id="path90" fill="#EAE4D8"></path>
                        <path d="M114.976641,112.015922 C117.0585,110.879384 118.463262,110.04421 118.463262,110.04421 C116.301358,112.056915 114.374374,113.641447 112.658954,114.884071 C111.826981,115.123947 111.042174,115.574192 110.893648,116.09336 C102.853966,121.267695 100.245802,118.177464 100.245802,118.177464 C103.424487,117.785104 108.689793,115.320577 112.745122,113.206292 C113.8229,113.10426 114.543988,112.6164 114.976641,112.015922" id="path92" fill="#DFD7C6"></path>
                        <path d="M139.080949,103.717796 C137.079135,105.379583 135.066437,106.635271 133.568251,107.469093 C133.28299,107.253993 132.965756,107.139799 132.635144,107.213225 C132.122219,107.328546 131.900677,107.793207 131.972559,108.304942 C131.451697,108.559233 131.146709,108.689419 131.146709,108.689419 C131.098409,108.617343 131.031516,108.538736 130.953285,108.457651 C131.13401,107.99254 131.220858,107.451975 131.217684,106.989341 C131.980722,106.869741 132.719951,106.647884 133.420632,106.359583 C134.626981,106.55306 135.590926,105.92195 135.980949,104.961321 C136.987752,104.27683 137.815416,103.557653 138.380949,103.020241 C138.62494,103.375888 138.876867,103.590538 139.080949,103.717796" id="path94" fill="#DFD7C6"></path>
                        <path d="M83.8492043,94.2775 C83.8492043,94.2775 83.5306102,94.0590215 82.994329,93.6608052 C83.0215399,93.6231908 83.0478437,93.5842251 83.0725603,93.5443584 C83.3315172,93.8009016 83.5902473,94.0473093 83.8492043,94.2775" id="path96" fill="#AC9C77"></path>
                        <path d="M96.7607686,106.72514 C96.4215395,104.616936 96.3569137,101.728741 97.9582742,99.8651423 C99.5863921,97.9688846 101.863716,97.7558118 103.464623,97.9026654 C101.705213,99.0491141 98.1213127,102.033259 97.4972765,107.617748 C97.4179114,107.465039 97.3174579,107.306923 97.1888865,107.142952 C97.0600883,106.97853 96.9156438,106.841136 96.7607686,106.72514" id="path98" fill="#AC9C77"></path>
                        <path d="M120.823353,107.209622 C120.823353,107.209622 123.241267,107.74816 125.419044,109.255436 C125.213376,109.319177 125.023806,109.415578 124.858274,109.549143 C123.446255,108.233317 121.721766,107.460759 120.823353,107.209622" id="path100" fill="#DFD7C6"></path>
                        <path d="M127.0068,115.04579 C127.039453,114.882719 127.063942,114.717171 127.072786,114.546668 C127.109747,113.814202 127.010428,113.13827 126.814509,112.516395 C127.126981,112.194759 127.400677,111.776722 127.612922,111.366793 C128.207253,112.202192 128.636505,113.189399 128.773466,114.347335 C128.253512,114.52482 127.726754,114.743299 127.2746,114.928442 C127.18299,114.965831 127.093874,115.005473 127.0068,115.04579" id="path102" fill="#DFD7C6"></path>
                        <path d="M128.123126,117.300848 C127.398636,118.430404 126.170518,119.441486 124.723126,120.323959 C124.568251,119.848712 123.060995,119.720328 121.529475,120.075073 C119.93968,120.44018 118.780496,122.10377 119.684351,122.655146 C119.702718,122.665732 119.7229,122.674066 119.741494,122.684427 C116.44172,123.937637 113.507027,124.601631 113.507027,124.601631 C116.031063,123.480184 118.174147,120.802584 118.174147,120.802584 C120.473693,120.213593 124.00045,119.050027 125.848976,117.121335 C125.923126,117.188906 126.005893,117.256251 126.109067,117.321344 C126.602491,117.63307 127.34943,117.568428 128.123126,117.300848" id="path104" fill="#DFD7C6"></path>
                        <path d="M139.219271,102.163896 C140.04172,102.252864 140.948296,102.031457 140.948296,102.031457 C140.338545,102.633512 139.710427,103.195024 139.080949,103.717796 C138.876867,103.590538 138.62494,103.375888 138.380949,103.020241 C138.916777,102.510984 139.219271,102.163896 139.219271,102.163896" id="path106" fill="#A08F66"></path>
                        <path d="M104.966437,56.9667885 C104.873694,57.2983352 104.783217,57.6251519 104.693648,57.9485901 C104.575508,57.7062367 104.463943,57.491362 104.352378,57.3436075 C104.092741,56.9992224 104.429703,56.8836766 104.966437,56.9667885" id="path108" fill="#A08F66"></path>
                        <path d="M101.682991,67.18257 C101.439453,67.8139051 101.202492,68.4033464 100.973467,68.9565248 C100.814963,68.304468 100.930383,67.5616413 101.682991,67.18257" id="path110" fill="#A08F66"></path>
                        <path d="M102.689113,62.7834954 C102.934011,62.5375382 103.175281,62.3713144 103.411335,62.2681565 C103.163489,63.0400386 102.917231,63.7765587 102.672787,64.4783925 C102.217458,64.0191373 102.069385,63.4071725 102.689113,62.7834954" id="path112" fill="#A08F66"></path>
                        <path d="M112.036732,45.7128966 C111.502718,45.9917382 111.009521,46.3088698 110.555099,46.6588857 C110.234918,46.2090904 109.815644,45.4777508 109.847616,44.7892058 C110.363263,44.5682498 110.89002,44.4092335 111.414963,44.3058504 C111.801131,44.7714122 112.079362,45.4176129 112.036732,45.7128966" id="path114" fill="#A08F66"></path>
                        <path d="M108.232424,49.1213855 C107.509975,50.1525136 106.933784,51.29198 106.449204,52.4710879 C106.332877,52.1969763 106.26553,51.8843494 106.270746,51.537712 C106.288433,50.4941959 107.324034,49.6072185 108.232424,49.1213855" id="path116" fill="#A08F66"></path>
                        <path d="M132.635144,107.213225 C132.965756,107.139799 133.28299,107.253993 133.568251,107.469093 C132.927661,107.825415 132.38299,108.104257 131.972559,108.304942 C131.900677,107.793207 132.122219,107.328546 132.635144,107.213225" id="path118" fill="#A08F66"></path>
                        <path d="M112.658954,114.884071 C112.042854,115.330037 111.455553,115.731407 110.893648,116.09336 C111.042174,115.574192 111.826981,115.123947 112.658954,114.884071" id="path120" fill="#A08F66"></path>
                        <path d="M112.745122,113.206292 C113.544215,112.789606 114.296369,112.38666 114.976641,112.015922 C114.543988,112.6164 113.8229,113.10426 112.745122,113.206292" id="path122" fill="#A08F66"></path>
                        <path d="M133.420632,106.359583 C134.354192,105.975781 135.218817,105.479362 135.980949,104.961321 C135.590926,105.92195 134.626981,106.55306 133.420632,106.359583" id="path124" fill="#A08F66"></path>
                        <path d="M130.953285,108.457651 C130.35079,107.8342 128.991607,107.017045 128.991607,107.017045 C129.746936,107.126059 130.492287,107.10286 131.217684,106.989341 C131.220858,107.451975 131.13401,107.99254 130.953285,108.457651" id="path126" fill="#A08F66"></path>
                        <path d="M124.858274,109.549143 C125.023806,109.415578 125.213376,109.319177 125.419044,109.255436 C126.229929,109.816948 127.006119,110.513601 127.612922,111.366793 C127.400677,111.776722 127.126981,112.194759 126.814509,112.516395 C126.44036,111.327602 125.706573,110.340395 124.858274,109.549143" id="path128" fill="#A08F66"></path>
                        <path d="M128.123126,117.300848 C127.34943,117.568428 126.602491,117.63307 126.109067,117.321344 C126.005893,117.256251 125.923126,117.188906 125.848976,117.121335 C126.436278,116.50892 126.851017,115.818573 127.0068,115.04579 C127.093874,115.005473 127.18299,114.965831 127.2746,114.928442 C127.726754,114.743299 128.253512,114.52482 128.773466,114.347335 C128.80045,114.57257 128.820178,114.802085 128.823353,115.04061 C128.835598,115.83952 128.577321,116.593383 128.123126,117.300848" id="path130" fill="#A08F66"></path>
                        <path d="M121.529475,120.075073 C123.060995,119.720328 124.568251,119.848712 124.723126,120.323959 C123.193421,121.256659 121.420632,122.046785 119.741494,122.684427 C119.7229,122.674066 119.702718,122.665732 119.684351,122.655146 C118.780496,122.10377 119.93968,120.44018 121.529475,120.075073" id="path132" fill="#A08F66"></path>
                        <path d="M114.747843,81.9882005 C115.184804,81.6861597 115.692741,81.4185799 116.250564,81.1809564 C116.244442,81.2987546 116.223807,81.425337 116.19138,81.5557483 C115.281857,81.7812091 114.747843,81.9882005 114.747843,81.9882005" id="path134" fill="#A08F66"></path>
                        <path d="M119.067344,95.1552427 C117.610201,95.3383592 116.681856,95.2984925 116.681856,95.2984925 C116.841494,94.870545 117.249884,94.35881 117.809748,93.8094606 C118.284578,94.202947 118.742401,94.7031951 119.067344,95.1552427" id="path136" fill="#A08F66"></path>
                        <path d="M115.115643,88.1923124 C115.298637,87.9585179 115.505893,87.7337329 115.731743,87.5161554 C115.870292,87.5880055 116.012015,87.6657118 116.154419,87.7479227 C115.497049,87.9974837 115.115643,88.1923124 115.115643,88.1923124" id="path138" fill="#A08F66"></path>
                        <path d="M105.328796,53.7846613 C105.23129,55.2529716 104.192288,55.3579313 103.209294,54.9777338 C103.551245,54.0308437 103.920406,53.0659348 104.312923,52.112513 C104.977322,52.3796423 105.386845,52.8778632 105.328796,53.7846613" id="path140" fill="#A08F66"></path>
                        <path d="M148.662808,109.675725 C148.783061,109.461977 148.901205,109.244399 149.013546,109.021416 C149.073146,109.189892 149.116395,109.351161 149.162808,109.514456 C149.02304,109.577297 148.854791,109.631579 148.662808,109.675725" id="path142" fill="#A08F66"></path>
                        <path d="M148.117683,114.127505 C147.683897,113.725009 148.290926,113.031058 148.95215,112.424499 C148.894554,113.082412 148.78435,113.677935 148.637638,114.220527 C148.409747,114.25251 148.22494,114.226608 148.117683,114.127505" id="path144" fill="#A08F66"></path>
                        <path d="M147.319271,115.476665 C148.09342,116.894973 145.712241,118.470721 144.755098,117.796141 C144.605892,117.69028 144.505439,117.573383 144.437638,117.450179 C145.193874,116.787761 145.955779,115.917451 146.652604,114.766047 C146.888658,114.881143 147.117683,115.107504 147.319271,115.476665" id="path146" fill="#A08F66"></path>
                        <path d="M135.505212,120.131608 C136.417684,120.102327 136.700904,120.125977 136.831289,120.347834 C136.098636,120.874434 135.247389,121.294498 134.452378,121.619063 C134.16689,121.038406 134.452378,120.16742 135.505212,120.131608" id="path148" fill="#A08F66"></path>
                        <path d="M74.5922884,122.115707 C75.1773224,121.524013 76.3213133,121.977863 77.4033994,122.847948 C78.1734674,123.464643 78.51315,124.287878 78.4188189,124.941512 C77.0097486,124.328421 75.6639437,123.692356 74.3820843,123.050885 C74.2816308,122.707176 74.3258485,122.382611 74.5922884,122.115707" id="path150" fill="#A08F66"></path>
                        <path d="M82.9052133,124.900068 C84.6446691,125.078905 85.39705,126.567712 85.7156441,127.643212 C84.1204061,127.15828 82.5857122,126.621543 81.1126964,126.050346 C81.0646238,125.425318 81.347617,124.740827 82.9052133,124.900068" id="path152" fill="#A08F66"></path>
                        <path d="M87.8711996,127.109403 C88.1909275,126.198776 90.584805,126.724026 91.6573673,127.815066 C92.256687,128.425905 92.6263015,128.93246 92.7671179,129.321441 C91.0360521,129.023905 89.362356,128.652267 87.7482971,128.222517 C87.6918345,127.902007 87.7219933,127.534423 87.8711996,127.109403" id="path154" fill="#A08F66"></path>
                        <path d="M112.801358,129.082917 C113.052378,128.440545 115.083897,128.496404 116.561222,129.054762 C115.405893,129.329099 114.170519,129.552308 112.827208,129.723937 C112.743535,129.488341 112.728115,129.269862 112.801358,129.082917" id="path156" fill="#A08F66"></path>
                        <path d="M95.4975033,128.545055 C96.1707459,127.850203 99.1789091,128.356532 100.256007,129.297566 C100.578002,129.579561 100.591607,129.852547 100.439,130.094675 C100.317004,130.090621 100.19705,130.087242 100.07392,130.082737 C98.6151903,130.030708 97.1916075,129.918766 95.8013581,129.758398 C95.3380929,129.37302 95.112696,128.944172 95.4975033,128.545055" id="path158" fill="#A08F66"></path>
                        <path d="M105.592061,128.972777 C105.936959,129.320991 106.75714,129.725514 107.782083,130.114946 C106.396142,130.165399 104.909748,130.18049 103.308387,130.16157 C103.800224,129.262204 105.11383,128.485367 105.592061,128.972777" id="path160" fill="#A08F66"></path>
                        <path d="M135.35079,114.369408 C135.422899,114.732938 138.285257,113.539865 137.935144,112.199264 C137.587525,110.857085 134.802491,111.61748 135.35079,114.369408 Z M142.005439,114.736091 C143.395915,114.529775 143.631289,113.99394 143.631289,113.99394 C143.272105,112.81303 143.69274,112.698836 142.031289,112.752442 C140.371652,112.807625 140.613148,114.941956 142.005439,114.736091 Z M121.429929,125.20729 C121.401131,125.169675 121.356006,125.13071 121.303625,125.090618 C128.424487,122.849524 133.264169,117.565725 131.784124,112.999075 C131.317684,111.558919 130.544441,110.472383 129.620178,109.650724 C129.813602,109.598019 130.008614,109.524817 130.199997,109.428867 C130.533103,109.261067 130.78367,108.893032 130.953285,108.457651 C131.031516,108.538736 131.098409,108.617343 131.146709,108.689419 C131.146709,108.689419 131.451697,108.559233 131.972559,108.304942 C132.021992,108.657886 132.212695,109.032002 132.542854,109.328412 C132.470972,112.452203 133.806346,113.932901 133.806346,113.932901 C133.678681,112.36774 134.259861,110.629597 134.259861,110.629597 C136.986164,110.334539 140.331743,107.252867 140.331743,107.252867 C140.607253,107.994117 140.921765,108.613514 141.260767,109.13561 C140.480269,109.312871 139.557593,109.881365 139.187298,110.776451 C138.62494,112.142054 139.323806,112.289358 140.228341,111.818616 C140.89977,111.469501 141.831742,110.993578 142.268704,110.35008 C144.665076,112.579686 147.585484,111.363865 147.585484,111.363865 C145.678681,110.888168 144.330609,109.709736 143.45986,108.650228 C143.945801,108.845282 144.419724,108.905645 144.770064,108.687842 C145.144441,108.454273 145.256686,108.100878 145.217683,107.726762 C145.705665,107.901095 146.190246,108.075652 146.638545,108.236921 C146.624713,108.71487 147.167117,109.731358 147.758953,109.809065 C148.098182,109.854112 148.421085,109.805686 148.662808,109.675725 C148.145121,111.8033 147.440586,113.464186 146.652604,114.766047 C146.148976,114.519865 145.611788,114.785418 145.231062,115.281612 C144.7585,115.898532 144.067117,116.782356 144.437638,117.450179 C144.02494,117.811231 143.614509,118.11147 143.216776,118.360356 C143.189339,116.462296 142.438999,115.893802 142.367343,116.110703 C142.30884,116.285036 141.388432,117.740733 140.90816,118.495947 C140.049883,118.233323 139.299316,117.910786 138.648523,117.565274 C138.655099,117.562571 138.661675,117.56077 138.668024,117.557616 C139.485031,117.182824 140.309974,116.030069 140.390699,115.641988 C140.390699,115.641988 140.72426,115.147146 139.142627,115.231159 C137.906799,115.298279 137.082536,115.914523 136.923806,116.448331 C135.767797,115.541083 135.242627,114.75411 135.242627,114.75411 C135.06757,116.298775 135.781176,117.596357 136.477094,118.468694 C136.475053,118.465991 136.473919,118.464189 136.472105,118.462387 C135.693194,119.006331 134.578681,119.704336 133.130382,120.293101 C133.130382,120.294228 133.129929,120.294678 133.129929,120.294678 C133.261901,119.88047 133.27392,119.56041 133.249657,119.327066 C134.192514,119.084488 134.369158,118.685821 134.369158,118.685821 C134.00952,117.504911 134.429929,117.388464 132.769838,117.443647 C131.210654,117.496577 131.329702,119.381573 132.504532,119.440585 C131.347389,120.455496 130.355326,121.310715 129.468251,122.049037 C129.268477,122.027415 128.983217,122.030793 128.568704,122.044307 C127.479815,122.081246 127.214963,123.009667 127.549883,123.587846 C127.225394,123.836506 126.911335,124.070301 126.604532,124.291032 C126.409067,124.216253 126.174147,124.159945 125.888432,124.129988 C123.811562,123.917366 123.998863,125.202334 124.218137,125.849887 C123.694328,126.158684 123.154872,126.456671 122.575734,126.760964 C122.564623,126.124899 121.680042,125.53771 121.429929,125.20729 Z" id="path162" fill="#C3B597"></path>
                        <path d="M133.568251,107.469093 C135.066437,106.635271 137.079135,105.379583 139.080949,103.717796 C139.329928,103.872307 139.507253,103.899335 139.507253,103.899335 C140.405212,103.87501 140.859634,103.075874 140.972559,102.190474 C141.017003,101.837304 141.018364,101.439088 140.93401,101.087946 C142.573693,101.018799 145.009747,100.39805 147.533783,97.8977102 C144.660541,101.270837 141.760087,103.72703 139.252151,105.482966 C139.093421,105.48184 138.905892,105.485444 138.674146,105.493102 C137.818364,105.521707 137.470972,106.101012 137.521992,106.628064 C136.301584,107.38936 135.221765,107.966188 134.345348,108.390531 C134.136731,108.037137 133.870065,107.696355 133.568251,107.469093" id="path164" fill="#C3B597"></path>
                        <path d="M138.248069,102.810772 C138.291607,102.885776 138.336051,102.954472 138.380949,103.020241 C137.815416,103.557653 136.987752,104.27683 135.980949,104.961321 C136.071198,104.738563 136.134237,104.500489 136.158273,104.248676 C136.199316,103.825683 136.160994,103.50675 136.074827,103.26755 C136.970291,102.634638 137.70816,101.999474 138.203171,101.541345 C138.045121,101.977851 138.03265,102.441386 138.248069,102.810772" id="path166" fill="#C3B597"></path>
                        <path d="M102.126755,67.0197247 C101.957594,67.061168 101.811789,67.1174769 101.682991,67.18257 C102.004306,66.3482977 102.336052,65.4462295 102.672787,64.4783925 C103.076415,64.8851678 103.720179,65.1705412 104.285258,65.2403642 C104.044215,65.9674244 103.791607,66.6992146 103.524487,67.4323561 C103.134465,67.108918 102.630383,66.8976471 102.126755,67.0197247" id="path168" fill="#D1C6AE"></path>
                        <path d="M123.011335,42.2125117 C123.001131,40.9529948 122.727208,40.1025055 122.727208,40.1025055 C124.848976,40.4270699 127.337412,41.7471751 127.337412,41.7471751 C125.078228,39.4700442 120.724033,38.4190954 120.724033,38.4190954 C121.771879,39.5000005 121.646482,40.6703242 121.646482,40.6703242 C118.769385,39.519596 114.538546,40.0351601 114.538546,40.0351601 C118.179135,40.0980008 123.011335,42.2125117 123.011335,42.2125117 Z M109.526528,48.7513236 C109.359181,48.658977 108.822673,48.8051548 108.232424,49.1213855 C108.878002,48.1985956 109.641721,47.3634224 110.555099,46.6588857 C110.700904,46.8643005 110.825848,47.0118298 110.877321,47.0683639 C111.084578,47.2926984 111.765984,46.6773551 112.029249,45.7552409 C112.032877,45.7417268 112.034918,45.7279874 112.036732,45.7128966 C113.067344,45.1752595 114.250564,44.7786198 115.626528,44.5714031 C114.451698,44.1650783 112.941947,44.0053863 111.414963,44.3058504 C111.004532,43.8103323 110.473013,43.5200038 110.08163,44.0792635 C109.926528,44.2997691 109.858727,44.5421225 109.847616,44.7892058 C108.343988,45.4360822 106.932877,46.6190191 105.934918,48.5619005 C105.359861,49.6797443 104.817231,50.8852047 104.312923,52.112513 C103.858954,51.9300722 103.286165,51.8548435 102.658728,51.8354733 C102.538546,51.8318695 102.433558,51.83232 102.334918,51.8354733 C102.810428,50.9027731 103.288886,49.9182687 103.767798,48.8740769 C103.410201,47.963675 102.867571,46.8352451 102.142174,46.0512004 C102.142174,46.0512004 105.519272,41.8417741 112.08231,41.5647344 C111.392741,40.5345072 110.204079,39.3430114 108.212015,38.8143837 C108.212015,38.8143837 112.481403,36.6584294 118.602491,37.880332 C118.143308,36.7597854 117.392741,35.5070255 116.202038,34.8727624 C116.202038,34.8727624 123.3068,35.5124312 127.868251,38.9047031 C127.773466,37.7846069 127.53197,36.4480595 126.938772,35.4284184 C126.938772,35.4284184 134.457366,38.6013109 135.589112,47.2618412 C133.173693,46.7113656 132.289339,47.4782925 132.289339,47.4782925 C133.190246,44.7723132 131.439906,43.5006335 131.439906,43.5006335 C131.677774,45.6419475 129.427434,46.6618138 129.427434,46.6618138 C130.361221,45.3511684 129.486845,42.9823666 129.486845,42.9823666 C127.446709,43.6519918 127.012015,46.1356637 127.012015,46.1356637 C126.562582,43.4756324 123.987979,41.8102411 123.987979,41.8102411 C125.076187,43.5999624 124.31723,45.7671784 124.31723,45.7671784 C123.375507,43.4382433 119.780042,42.5420312 119.780042,42.5420312 C120.951471,44.2389555 120.929022,45.618523 120.929022,45.618523 C119.792968,44.2191348 116.837185,43.3197694 116.837185,43.3197694 C117.743308,44.3081028 117.783217,45.6009546 117.733557,46.2487319 C115.723353,46.0261992 112.354646,46.5000947 109.678002,50.0570138 C109.65578,50.0871953 109.634464,50.1207554 109.612696,50.1516127 C109.691834,49.4229758 109.705893,48.8517786 109.526528,48.7513236 Z" id="path170" fill="#D1C6AE"></path>
                        <path d="M103.411335,62.2681565 C103.752152,61.2054954 104.094102,60.0806693 104.43197,58.885795 C104.518818,58.5796999 104.605666,58.2661721 104.693648,57.9485901 C105.01519,58.6080796 105.388659,59.4772634 105.951018,59.8252523 C105.695462,60.6937604 105.43197,61.5877201 105.154192,62.4999239 C104.623807,62.1688277 104.035372,61.996072 103.411335,62.2681565" id="path172" fill="#D1C6AE"></path>
                        <path d="M106.449204,52.4710879 C106.731063,53.1310279 107.301811,53.5738409 107.854192,53.7616873 C107.429476,54.9214249 107.018138,56.2313946 106.595689,57.6447474 C106.077775,57.2740097 105.443535,57.0415667 104.966437,56.9667885 C105.38095,55.4912707 105.842628,53.9502094 106.449204,52.4710879" id="path174" fill="#D1C6AE"></path>
                        <path d="M116.358954,90.2665061 C115.22426,91.0070805 114.144895,92.0059999 113.24104,93.3490792 C113.24104,93.3490792 112.398637,91.2158738 113.733784,88.73513 C113.75646,88.7896369 113.777548,88.8441439 113.804532,88.9020295 C114.270292,89.8968947 115.284351,90.4692181 116.358954,90.2665061" id="path176" fill="#D1C6AE"></path>
                        <path d="M116.154419,87.7479227 C118.09138,87.0127541 122.436505,85.8043656 126.586391,87.6997224 C126.586391,87.6997224 120.460995,91.2030354 117.809748,93.8094606 C117.577775,93.6168842 117.34172,93.45021 117.116097,93.3274566 C118.614283,91.4766965 121.156006,89.2768213 125.202945,88.2727215 C125.202945,88.2727215 121.465983,87.7564817 117.788886,89.4727762 C118.035144,89.033567 117.097276,88.292317 116.154419,87.7479227" id="path178" fill="#D1C6AE"></path>
                        <path d="M134.674827,87.1913658 C129.927208,88.9241025 130.302718,92.3488084 132.33401,94.3790812 C134.494554,96.5395401 138.631516,97.1596135 143.905665,93.850003 C143.905665,93.850003 147.677094,95.1493866 150.374373,94.222092 C149.439679,95.7611262 148.480949,96.9591539 147.533783,97.8977102 C145.009747,100.39805 142.573693,101.018799 140.93401,101.087946 C140.864169,100.794914 140.734464,100.536569 140.518591,100.365616 C145.030382,98.6209414 145.163715,95.2259667 145.163715,95.2259667 C141.302264,97.7988318 138.034917,96.4821051 138.034917,96.4821051 C139.012922,97.4485906 139.95011,97.9492891 140.673239,98.2110128 C139.003171,99.1788497 137.088205,99.0874041 137.088205,99.0874041 C128.100224,108.922312 122.110655,100.457962 122.110655,100.457962 L122.995915,98.4315183 C122.995915,98.4315183 125.231063,102.262324 128.755099,101.941814 C132.279362,101.619952 133.607026,99.7858594 133.607026,99.7858594 C133.607026,99.7858594 130.036958,96.875141 129.833103,93.5434575 C129.833103,93.5434575 120.826301,100.023258 115.27324,96.3534956 C115.27324,96.3534956 115.379135,96.0665456 115.620405,95.5991819 C115.733104,95.7131511 115.864169,95.8217146 116.022219,95.9185658 C117.478228,96.8057685 118.52494,96.8568969 119.449657,96.3073223 C119.660995,96.1832176 119.462355,95.7052678 119.067344,95.1552427 C121.256686,94.8800049 124.643081,94.0975368 127.884577,91.9071215 C127.884577,91.9071215 127.981629,87.6749464 132.211788,85.6692243 C132.211788,85.6692243 133.76689,79.7432782 136.329475,78.7995415 C138.892967,77.8533271 118.002945,72.102389 109.279362,76.717915 C109.279362,76.717915 119.340813,74.5284006 129.460087,79.3392057 C129.460087,79.3392057 121.009521,79.1536117 116.250564,81.1809564 C116.260541,80.9800464 116.230836,80.8032365 116.151018,80.6712485 C116.02358,80.4606533 115.85714,80.3327195 115.644215,80.2779873 C117.860315,79.2871763 121.098183,78.5970548 125.825167,78.6069651 C125.825167,78.6069651 114.843081,76.5789447 108.839453,79.2392012 C108.839453,79.2392012 107.758047,77.0884274 109.326528,74.118472 C109.326528,74.118472 133.155779,71.1672112 139.885257,79.5698469 C139.885257,79.5698469 135.279362,81.2956013 134.674827,87.1913658" id="path180" fill="#D1C6AE"></path>
                        <path d="M114.509521,83.6344468 C115.305213,83.3632632 115.988659,82.3688485 116.19138,81.5557483 C118.521993,80.978695 123.322219,80.2836182 127.942627,82.6569247 C127.942627,82.6569247 119.331743,84.0479791 115.731743,87.5161554 C115.413829,87.3526344 115.117911,87.2215474 114.891607,87.1438411 C116.443081,85.4863331 119.185031,83.840312 123.954872,82.6990437 C123.954872,82.6990437 116.550564,81.0397338 110.966437,87.1598329 C110.966437,87.1598329 110.549204,85.0919457 112.084804,82.9893723 C112.112922,83.3909672 112.279362,83.7508935 112.544668,83.9835618 C112.544668,83.9835618 113.367571,84.022978 114.509521,83.6344468" id="path182" fill="#D1C6AE"></path>
                        <path d="M152.96689,89.3867363 C152.633783,88.4164217 152.162581,87.1147858 150.193647,86.1847884 C148.745348,84.2344741 149.814962,83.0803674 143.117457,79.0824373 C143.296368,77.3918196 142.510881,76.2649664 142.510881,76.2649664 C147.999543,74.6615148 144.293874,67.9981477 144.293874,67.9981477 C148.634463,69.8223301 156.816323,78.8263445 152.96689,89.3867363" id="path184" fill="#D1C6AE"></path>
                        <path d="M96.8013581,95.003434 C97.7535123,94.793965 98.7292492,94.5601705 99.7258478,94.2986721 C99.8340111,94.4986812 99.9444419,94.6941856 100.060315,94.8815816 C100.060315,94.8815816 98.6049862,94.9707748 97.0120157,95.8681131 C97.0229001,95.5408459 96.9680248,95.2439855 96.8013581,95.003434" id="path186" fill="#C3B597"></path>
                        <path d="M100.060315,94.8815816 C99.9444419,94.6941856 99.8340111,94.4986812 99.7258478,94.2986721 C100.284805,94.1524943 100.850338,93.9966313 101.421766,93.8324346 C101.902265,94.6369758 102.458501,95.4018756 103.1068,96.1030337 C101.243308,96.2609238 98.1721064,96.8199583 96.3337844,98.7488752 C96.4485237,97.9064944 96.9825373,96.770857 97.0120157,95.8681131 C98.6049862,94.9707748 100.060315,94.8815816 100.060315,94.8815816" id="path188" fill="#AC9C77"></path>
                        <path d="M122.110655,100.457962 C119.909067,100.760453 114.384124,100.180472 109.658501,98.0580779 C109.69909,97.4465635 109.500678,96.5122866 109.047843,95.9676672 C108.448977,95.2484902 106.564396,95.5280075 106.032877,95.9471707 C105.210428,95.3228179 104.469612,94.6252636 103.849204,93.8475254 C104.429703,93.9786125 105.12222,93.9455028 105.916551,93.6450387 C106.463489,93.4384977 106.408387,92.8988335 106.042854,92.3391232 C106.484351,92.1803322 106.928342,92.015685 107.374827,91.845407 C109.768705,95.3798025 113.069612,96.9132058 113.069612,96.9132058 C113.069612,96.9132058 116.704079,101.279621 122.995915,98.4315183 L122.110655,100.457962" id="path190" fill="#AC9C77"></path>
                        <path d="M155.892286,84.4642144 C155.908613,84.823465 155.913828,84.9421641 155.929021,85.2480339 C163.376867,86.1298309 173.52698,85.8888289 180.624939,84.2597005 C170.19478,86.166319 158.308613,84.7342717 155.892286,84.4642144" id="path192" fill="#B4B3B3"></path>
                        <path d="M155.461221,79.4148849 C155.566663,79.758369 155.599996,79.8723382 155.687071,80.1653696 C163.132422,79.2470844 172.91927,76.5947111 179.4102,73.3206879 C169.750563,77.6584984 157.871651,79.0991047 155.461221,79.4148849" id="path194" fill="#B4B3B3"></path>
                        <path d="M154.10045,74.0596856 C154.289339,74.3673573 154.350336,74.4705151 154.51088,74.7311126 C161.470291,71.9667973 170.248749,66.92918 175.682762,62.1269339 C167.462127,68.7580923 156.349202,73.1497341 154.10045,74.0596856" id="path196" fill="#B4B3B3"></path>
                        <path d="M151.034463,69.9261636 C151.323125,70.1464439 151.41859,70.2185193 151.662581,70.4032124 C157.129248,65.3248275 163.46054,57.4719917 166.760767,51.0408424 C161.534917,60.178872 152.794554,68.2695565 151.034463,69.9261636" id="path198" fill="#B4B3B3"></path>
                        <path d="M108.57392,85.5394886 C108.578682,85.9016673 108.578909,86.019015 108.582764,86.3246596 C101.196823,87.6098534 91.0494308,87.9159484 83.8677984,86.676027 C94.3941019,88.0141511 106.177095,85.9404078 108.57392,85.5394886" id="path200" fill="#B4B3B3"></path>
                        <path d="M107.362129,80.1881183 C107.3068,80.5439904 107.2907,80.6611129 107.245122,80.9627032 C99.7435349,81.060005 89.6759615,79.7534138 82.7843517,77.3895672 C92.9625827,80.3797938 104.931063,80.2027587 107.362129,80.1881183" id="path202" fill="#B4B3B3"></path>
                        <path d="M108.344215,74.2220804 C108.194555,74.5520504 108.145122,74.6599382 108.019272,74.9376535 C100.768705,73.0145928 91.4319705,69.0538265 85.4448958,64.9270616 C94.424941,70.5388042 105.997957,73.5839882 108.344215,74.2220804" id="path204" fill="#B4B3B3"></path>
                        <path d="M109.772786,89.3387611 C109.861675,89.6878761 109.89138,89.8047734 109.966664,90.0978047 C103.089113,93.0569488 93.2981836,95.7005379 86.0244876,96.1521351 C96.573467,95.0221285 107.537412,90.2822726 109.772786,89.3387611" id="path206" fill="#B4B3B3"></path>
                        <path d="M105.396142,87.4555671 C105.635145,88.391871 105.95646,89.2518202 106.334238,90.0381173 C105.673467,90.2915073 104.940133,90.5653936 104.143535,90.8541456 C104.01383,90.8090985 103.884124,90.7744122 103.756006,90.7532401 C102.467798,90.5439963 102.49909,90.1899261 102.167118,90.5874667 C101.901358,89.6459823 101.760315,88.7263458 101.71519,87.8341879 C102.91451,87.7416162 104.143081,87.6166105 105.396142,87.4555671" id="path208" fill="#AC9C77"></path>
                        <path d="M96.9414942,81.0221654 C97.4619023,81.0883846 97.9897935,81.1494235 98.5242606,81.2057323 C98.5238071,81.3449279 98.5229,81.486601 98.5238071,81.6341303 C98.0065735,81.8618434 97.5015849,82.4936289 97.3063468,84.0045087 C97.1687051,85.0658184 97.4591812,85.7656251 97.9392266,86.166319 C97.751018,86.1802837 97.5619023,86.1944735 97.3705191,86.2079876 C97.1950089,85.0322583 97.075281,83.9240996 96.9954624,82.9790115 C97.6160973,82.410517 97.3421744,81.5111517 96.9414942,81.0221654" id="path210" fill="#AC9C77"></path>
                        <path d="M92.4263015,78.6716077 C88.6566871,77.350151 85.9768686,75.8201262 84.0841249,74.2558657 C84.0396804,73.9202648 83.9131498,73.6407475 83.7487507,73.5497524 C83.4179117,73.3630321 82.8673449,72.7093987 82.2464832,72.4641173 C78.5312906,68.1272077 79.9555536,64.0608059 79.9555536,64.0608059 C79.9555536,64.0608059 77.2854856,74.3405542 98.6530588,78.6261101 C98.6530588,78.6261101 98.6260746,78.8526971 98.5972764,79.2596976 C96.7015849,79.1279348 94.6158707,78.9400884 92.4263015,78.6716077" id="path212" fill="#AC9C77"></path>
                        <path d="M105.088206,81.6028225 C104.912923,82.9812638 104.906573,84.2560968 105.03197,85.4300242 C104.687979,85.475747 104.326982,85.5221455 103.948297,85.5689945 C104.037866,84.562417 103.78934,83.4031299 103.121539,83.1260902 C102.885031,83.0272119 102.630383,83.0125715 102.368478,83.0490597 C102.537412,82.5217834 102.730836,82.0163549 102.939907,81.5357024 C103.646709,81.5681363 104.361902,81.5913355 105.088206,81.6028225" id="path214" fill="#AC9C77"></path>
                        <path d="M103.97392,79.5184932 C105.239453,77.381684 106.560542,76.0910846 106.560542,76.0910846 C106.079362,77.3035273 105.720632,78.4544807 105.463489,79.5484495 C105.014737,79.5428186 104.516777,79.5333587 103.97392,79.5184932" id="path216" fill="#AC9C77"></path>
                        <path d="M95.7766416,55.2604043 C95.7766416,55.2604043 94.8535124,58.8842183 92.6176848,62.9756212 C92.2521519,62.2994643 91.8145102,61.8402091 91.2972766,62.0499033 C90.3956894,62.4150101 89.9709728,64.7946232 90.8043061,65.9147193 C90.5825374,66.233878 90.3498844,66.5496582 90.1117891,66.8636365 C86.4335579,65.1304493 82.7117893,63.0776529 79.4380933,60.715383 C81.0872996,61.205045 86.8276622,62.125132 95.7766416,55.2604043" id="path218" fill="#C3B597"></path>
                        <path d="M87.4580477,67.8717906 C87.3324241,67.969768 87.2641702,68.0713493 87.2795897,68.1670743 C87.3687053,68.7110181 89.7603152,70.6984962 91.092288,70.5219115 C91.4108821,70.4797925 91.4351451,69.6928196 91.2029456,68.910802 C92.1104285,69.4067705 93.0648503,69.9040905 94.065984,70.3969058 C93.7387732,70.4824953 93.5378661,70.6881353 93.5748276,71.0286914 C93.6265283,71.5079926 94.8058933,72.8035472 95.7972765,73.0190975 C95.3188185,73.4639377 94.826755,73.7497615 94.3344648,73.7975114 C95.5920611,74.2346935 96.8945554,74.6079088 98.1539658,74.8385499 C98.1539658,74.8385499 98.3489771,74.5171389 98.684578,73.8853533 C98.9609953,74.6115125 99.6469363,75.1955482 100.025621,75.0993726 C99.6979567,75.6622362 99.3555531,76.2163155 98.9952356,76.7568807 C98.9952356,76.7568807 81.5079345,73.602007 79.9882066,64.2632926 C79.975735,64.195722 79.9648506,64.1292775 79.9560071,64.0610311 C79.9662112,64.0767976 82.7798165,68.4053735 87.4580477,67.8717906" id="path220" fill="#D1C6AE"></path>
                        <path d="M99.2163241,62.4258214 C98.3142833,61.5913238 97.1240339,60.6689845 95.8283423,61.9721971 C94.4111088,63.3956855 97.0013581,64.7572341 98.107027,64.3833431 C99.2133762,64.0060737 100.119045,63.2600937 99.2163241,62.4258214 Z M97.8505644,70.1304522 C95.4807232,69.2335644 92.9111088,68.1754081 90.3136032,66.9586859 C90.5521519,66.820166 90.8748277,66.618355 91.278229,66.3289274 C91.3746009,66.3796054 91.4793628,66.4208235 91.5927415,66.4489779 C93.3850317,66.894719 93.5984104,65.468753 93.5984104,65.468753 C93.5131496,65.2320305 93.4170045,64.945531 93.3097482,64.6396611 C94.7970498,63.2438767 96.6637164,61.1532408 98.7086143,58.0828304 C98.8945554,58.9013362 99.1385463,59.8389916 99.8047594,60.0617496 C100.805213,60.3978009 101.630156,59.864218 100.969839,58.4677579 C100.663943,57.8168273 100.007027,57.2731088 99.4319703,56.9658876 C100.0907,55.9221463 100.764397,54.7779499 101.44739,53.5224872 C101.612016,54.0087707 102.3907,54.6615031 103.209294,54.9777338 C101.537186,59.604972 100.504533,63.7713783 100.504533,63.7713783 C100.504533,63.7713783 99.4024918,67.2661323 97.8505644,70.1304522 Z" id="path222" fill="#D1C6AE"></path>
                        <path d="M96.2251677,73.0375668 C96.9732402,72.911435 97.4258479,72.4319086 97.1564602,71.8298541 C97.6938751,72.0645495 98.2408139,72.2963168 98.7999975,72.5251561 C98.5009046,72.949725 98.5163241,73.4434412 98.684578,73.8853533 C98.3489771,74.5171389 98.1539658,74.8385499 98.1539658,74.8385499 C96.8945554,74.6079088 95.5920611,74.2346935 94.3344648,73.7975114 C94.826755,73.7497615 95.3188185,73.4639377 95.7972765,73.0190975 C95.9453491,73.0513062 96.0897935,73.0603156 96.2251677,73.0375668" id="path224" fill="#EAE4D8"></path>
                        <path d="M108.232424,49.1213855 C107.324034,49.6072185 106.288433,50.4941959 106.270746,51.537712 C106.26553,51.8843494 106.332877,52.1969763 106.449204,52.4710879 C105.842628,53.9502094 105.38095,55.4912707 104.966437,56.9667885 C104.429703,56.8836766 104.092741,56.9992224 104.352378,57.3436075 C104.463943,57.491362 104.575508,57.7062367 104.693648,57.9485901 C104.605666,58.2661721 104.518818,58.5796999 104.43197,58.885795 C104.094102,60.0806693 103.752152,61.2054954 103.411335,62.2681565 C103.175281,62.3713144 102.934011,62.5375382 102.689113,62.7834954 C102.069385,63.4071725 102.217458,64.0191373 102.672787,64.4783925 C102.336052,65.4462295 102.004306,66.3482977 101.682991,67.18257 C100.930383,67.5616413 100.814963,68.304468 100.973467,68.9565248 C100.668705,69.6932701 100.378909,70.3604177 100.108614,70.9593189 C99.3816302,70.7005233 98.6269817,70.4241593 97.8505644,70.1304522 C99.4024918,67.2661323 100.504533,63.7713783 100.504533,63.7713783 C100.504533,63.7713783 101.537186,59.604972 103.209294,54.9777338 C104.192288,55.3579313 105.23129,55.2529716 105.328796,53.7846613 C105.386845,52.8778632 104.977322,52.3796423 104.312923,52.112513 C104.817231,50.8852047 105.359861,49.6797443 105.934918,48.5619005 C106.932877,46.6190191 108.343988,45.4360822 109.847616,44.7892058 C109.815644,45.4777508 110.234918,46.2090904 110.555099,46.6588857 C109.641721,47.3634224 108.878002,48.1985956 108.232424,49.1213855" id="path226" fill="#EAE4D8"></path>
                        <path d="M100.108614,70.9593189 C100.378909,70.3604177 100.668705,69.6932701 100.973467,68.9565248 C101.143535,69.656782 101.625848,70.2511784 101.97256,70.1766255 C102.10544,70.1477954 102.308387,70.0743686 102.538093,69.971436 C102.316777,70.5052441 102.08231,71.0354485 101.841494,71.5627248 C101.285031,71.373527 100.70544,71.1719412 100.108614,70.9593189" id="path228" fill="#D1C6AE"></path>
                        <path d="M97.1564602,71.8298541 C97.4258479,72.4319086 96.9732402,72.911435 96.2251677,73.0375668 C96.0897935,73.0603156 95.9453491,73.0513062 95.7972765,73.0190975 C96.1711994,72.670433 96.5358253,72.2206377 96.8882062,71.7116054 C96.9773218,71.7512469 97.0666642,71.7906631 97.1564602,71.8298541" id="path230" fill="#A08F66"></path>
                        <path d="M99.2807231,72.7181829 C99.0512447,73.1832942 98.8505644,73.5734021 98.684578,73.8853533 C98.5163241,73.4434412 98.5009046,72.949725 98.7999975,72.5251561 C98.9587277,72.5895734 99.1199522,72.6539908 99.2807231,72.7181829" id="path232" fill="#A08F66"></path>
                        <path d="M104.442855,74.5673664 C102.54739,75.8719304 100.934465,77.2783009 100.934465,77.2783009 C100.934465,77.2783009 101.607707,75.9793677 102.558501,73.9430136 C103.175281,74.1569873 103.803852,74.3651049 104.442855,74.5673664" id="path234" fill="#8E0A26"></path>
                        <path d="M132.171425,52.2454019 C130.085711,51.2744117 128.321085,51.9462892 128.321085,51.9462892 C123.6746,50.7126743 119.519271,51.4093277 119.519271,51.4093277 C118.889113,50.2669333 117.568251,49.7707394 117.568251,49.7707394 C116.559634,49.8015967 114.576188,49.5153224 112.993194,50.7980386 C111.866891,51.7111433 111.535825,53.6346545 111.437185,54.6698369 C111.75646,54.8047529 112.077095,54.966472 112.346256,55.1112984 C105.781403,63.3454579 106.911562,70.1662647 107.704532,72.7195343 C107.412922,72.8332782 107.109521,72.9736 106.79909,73.1321658 C105.877322,72.8623336 104.727889,72.5123177 103.407934,72.083244 C104.926755,68.6864674 106.780496,64.1265747 107.856233,59.9790881 C109.905666,52.0791781 112.624487,45.9541239 119.257367,48.628345 C125.8907,51.3007642 129.847389,49.6894294 132.517003,50.4946464 C135.185031,51.3016652 134.258727,53.2172931 132.171425,52.2454019" id="path236" fill="#8E0A26"></path>
                        <path d="M123.011335,42.2125117 C123.001131,40.9529948 122.727208,40.1025055 122.727208,40.1025055 C124.848976,40.4270699 127.337412,41.7471751 127.337412,41.7471751 C125.078228,39.4700442 120.724033,38.4190954 120.724033,38.4190954 C121.771879,39.5000005 121.646482,40.6703242 121.646482,40.6703242 C118.769385,39.519596 114.538546,40.0351601 114.538546,40.0351601 C118.179135,40.0980008 123.011335,42.2125117 123.011335,42.2125117" id="path238" fill="#DFD7C6"></path>
                        <path d="M87.3911543,117.032367 L87.2920613,116.664332 C88.5319706,118.0921 89.7290227,119.246207 90.3433084,119.816053 C90.1569138,119.749158 89.9519252,119.691497 89.7417211,119.646901 C88.8083878,119.11084 87.3634899,118.208547 85.9365058,117.032367 L87.3911543,117.032367" id="path240" fill="#AC9C77"></path>
                        <path d="M84.8489775,85.0910448 C84.7371861,85.4329523 84.9677983,85.9151815 85.449431,86.3829956 C83.2768687,86.2760087 81.0907009,86.0791529 78.9562339,85.7631475 L78.2269822,83.0596458 C78.4349187,83.1035667 78.6396806,83.1436586 78.8367327,83.1763178 C79.6267554,83.9031527 80.7619027,84.6536374 81.5696125,84.6002566 C82.0723335,84.5675975 81.977549,82.6729164 81.2331045,81.7812091 C80.9290229,81.4154266 80.3095218,81.2947004 79.6870728,81.3174492 C77.7473903,79.21893 76.5052135,77.0208567 75.7176852,74.942834 C76.7675718,75.4757412 80.6090683,77.3188433 86.474601,78.9333314 C86.5628096,80.0200927 87.9786826,81.304836 89.1936486,80.9494143 C89.8360522,80.7611175 90.0761882,80.3065922 90.1002245,79.8331472 C91.3278889,80.1056822 92.6188185,80.359973 93.9705192,80.5861095 C93.8739206,80.664041 93.7872992,80.7640455 93.7149636,80.8922045 C93.0272086,82.1078005 95.2197255,83.9157659 96.6503377,83.2161844 C96.7904738,83.1477128 96.9004511,83.0661776 96.9954624,82.9790115 C97.075281,83.9240996 97.1950089,85.0322583 97.3705191,86.2079876 C94.7655305,86.3915546 91.8936485,86.508677 88.9269819,86.4825497 C88.653966,85.7971581 88.0872994,85.0608632 87.5442155,84.8613045 C86.4031724,84.4468712 85.1033992,84.3103785 84.8489775,85.0910448" id="path242" fill="#C3B597"></path>
                        <path d="M77.9253949,81.9415767 L77.7081613,81.136585 L71.6598622,81.136585 C71.3482975,80.4185343 71.1038531,79.6955283 70.9510186,78.973198 C70.9510186,78.973198 72.0975039,79.6685 74.0185923,80.1525311 C74.2621297,80.4894834 74.5492045,80.7561623 74.8582748,80.8606716 C75.8594085,81.1946958 76.8834448,80.8710324 76.0256217,79.2630761 C75.7192725,78.6880499 75.2303836,78.1801438 74.7476172,77.8528767 C73.6700662,75.3529878 72.6907011,71.2446922 74.3351455,66.0949077 C74.4396807,65.9674244 74.5226739,65.8230485 74.5877532,65.6683117 C74.3054403,67.7445325 73.8374131,74.9883315 79.6870728,81.3174492 C78.8485241,81.3483064 78.0063473,81.6395359 77.9253949,81.9415767" id="path244" fill="#AC9C77"></path>
                        <path d="M80.8918347,91.1061841 C80.7537395,91.286823 80.6410411,91.4875078 80.5566873,91.6958506 L80.1399073,90.1507351 C80.3870728,90.4730471 80.6376397,90.7926563 80.8918347,91.1061841" id="path246" fill="#AC9C77"></path>
                        <path d="M78.8367327,83.1763178 C78.6396806,83.1436586 78.4349187,83.1035667 78.2269822,83.0596458 L77.9988643,82.2138865 C78.137413,82.461195 78.4451228,82.815941 78.8367327,83.1763178" id="path248" fill="#AC9C77"></path>
                        <path d="M83.6154174,101.667702 C83.4351453,101.20642 83.1916079,100.775319 82.9310637,100.497153 L82.8276623,100.114253 C84.1492042,99.5308928 85.4106555,99.2491232 86.5716532,99.167588 C86.559635,99.7588312 87.012016,100.405032 87.6702926,100.685675 C88.8462563,101.188626 89.4732404,100.625988 90.0140567,100.283179 C90.2215397,100.15029 90.2126962,99.8363122 90.0537392,99.4847195 C92.0625827,99.9953284 93.3111088,100.892441 93.3111088,100.892441 C93.3290226,100.81969 93.3505646,100.75212 93.3705192,100.681171 C93.6936485,101.80487 94.0829908,102.882397 94.5244874,103.528373 C93.2222199,102.672252 88.3560069,99.8333841 83.6154174,101.667702" id="path250" fill="#AC9C77"></path>
                        <path d="M94.0537391,109.610632 C89.9040794,105.135653 86.6868459,105.453235 85.4417212,105.826225 C85.3573675,105.641307 85.2571407,105.469452 85.1380931,105.325527 C84.9235806,105.067857 84.5424015,104.94105 84.118592,104.900282 L84.0299299,104.571438 C85.0451226,104.009701 86.3995443,103.893254 87.868025,104.150923 C87.5068005,104.648018 87.4011316,105.20953 87.852152,105.500985 C88.5993175,105.983439 90.0033991,105.35278 90.6786825,105.03745 C91.5285691,105.421252 92.3668911,105.905283 93.1535124,106.475354 C92.3902471,107.985107 95.6269817,110.004569 96.6179114,110.253229 C96.7655305,110.514277 96.9049862,110.778929 97.0265282,111.051238 C97.0265282,111.051238 93.187526,111.835283 91.1541927,110.803254 C91.1541927,110.803254 91.9360521,111.671537 93.4621292,112.429454 C93.0530589,112.545451 92.7219931,112.751766 92.5773219,113.05178 C92.4770952,113.2617 92.7401337,113.626356 93.1786825,114.021644 C91.9920612,113.433104 91.0532857,112.739153 90.3233538,112.065699 C90.4024921,112.03304 90.4793628,111.992948 90.5519252,111.93799 C91.1117891,111.515449 90.8523787,110.663158 90.2752812,109.82821 C93.2126961,110.379586 94.0537391,109.610632 94.0537391,109.610632" id="path252" fill="#AC9C77"></path>
                        <path d="M118.005893,112.47315 C117.144442,113.246609 118.067117,115.814519 119.020178,116.234358 C119.972786,116.651269 123.078908,112.687349 121.601131,112.500629 C120.631516,112.378326 118.86553,111.700142 118.005893,112.47315 Z M107.402945,119.128634 C106.756687,118.575681 104.467344,118.640774 104.591834,119.955248 C104.85578,122.721365 109.812469,121.360943 109.94807,120.737041 C110.043308,120.294678 108.051244,119.679335 107.402945,119.128634 Z M101.138546,118.966014 C99.9689317,118.387159 97.7462561,119.392385 98.3705191,120.462704 C98.9922878,121.528969 101.295916,121.942501 101.829929,121.745195 C102.186619,121.611405 102.310882,119.540139 101.138546,118.966014 Z M95.4993173,118.029935 C94.9197255,117.62834 93.7106553,116.169039 92.9972766,117.091604 C92.280043,118.021601 92.4385464,119.36423 94.5691586,120.209314 C96.7027187,121.056875 96.0780021,118.428602 95.4993173,118.029935 Z M84.4478437,120.891102 C83.66349,120.034756 81.2739209,118.851594 80.8845785,120.198277 C80.524261,121.43955 83.0519254,123.421848 84.4907008,123.118906 C85.9285693,122.818217 85.2315171,121.744969 84.4478437,120.891102 Z M132.696595,106.153943 C132.945348,106.256875 133.186845,106.322419 133.420632,106.359583 C132.719951,106.647884 131.980722,106.869741 131.217684,106.989341 C131.214963,106.488417 131.107026,106.080066 130.892514,105.971277 C129.64172,105.341068 127.889339,107.177413 127.611788,108.338502 C124.443761,106.83528 120.823353,107.209622 120.823353,107.209622 C121.721766,107.460759 123.446255,108.233317 124.858274,109.549143 C124.838319,109.56536 124.816097,109.577973 124.797049,109.595316 C124.183217,110.145566 123.907026,112.519323 125.379589,113.036914 C125.89206,113.216652 126.388886,112.955604 126.814509,112.516395 C127.010428,113.13827 127.109747,113.814202 127.072786,114.546668 C127.063942,114.717171 127.039453,114.882719 127.0068,115.04579 C125.824713,115.598968 125.086618,116.421528 125.848976,117.121335 C124.00045,119.050027 120.473693,120.213593 118.174147,120.802584 C118.171199,120.806638 118.167117,120.810918 118.163716,120.815197 C120.082083,118.445495 120.523126,116.304406 120.523126,116.304406 C120.523126,116.304406 111.595462,120.537932 107.701811,122.313464 C107.041494,122.614829 106.264623,122.785107 105.43129,122.865066 C105.008841,122.842993 104.549204,122.857182 104.117458,122.918897 C100.270973,122.887589 95.8931949,121.40126 95.8931949,121.40126 C96.5548729,122.349727 97.2346914,123.158773 97.9231268,123.847318 C96.4385463,123.247065 94.3027187,123.17026 94.0439886,123.828398 C93.703399,124.704789 95.2764149,126.265221 96.8872992,127.010976 C98.4582742,127.741414 99.762129,126.549693 99.3401336,125.090618 C104.43265,128.971876 109.680043,127.006696 111.606346,126.046517 C113.859634,126.293375 116.066664,126.20238 118.149203,125.849436 C118.487525,126.661861 119.677548,127.467978 120.735825,127.690511 C120.676187,127.720017 120.617684,127.748622 120.556913,127.779029 C92.0510181,131.750381 74.7503383,121.258686 72.3999982,119.72258 C72.3981841,119.72258 72.3970503,119.722805 72.3952363,119.724157 C73.103853,119.309498 73.8283428,118.84754 74.5700662,118.336481 C74.7424018,118.905651 75.0535129,119.568068 75.6081614,119.834297 C76.6619028,120.338599 78.6936488,121.062731 79.4006783,120.200755 C79.7920615,119.724607 79.5405876,119.127958 79.0823109,118.585366 C79.8548733,118.56577 80.537413,118.513065 81.0258483,118.464865 C79.5752815,118.046377 78.2725604,117.549057 77.1172316,117.032367 L82.2691589,117.032367 C83.7349185,118.070477 85.6941022,119.007232 88.3170046,119.683839 C88.1634899,119.748707 88.0315171,119.839702 87.9394536,119.969213 C86.973694,121.330761 90.4637166,123.507437 91.7814036,122.605594 C93.0993174,121.704878 91.4975034,120.73659 91.1448957,120.273731 C91.0321973,120.125977 90.7263016,119.954122 90.3433084,119.816053 C89.7290227,119.246207 88.5319706,118.0921 87.2920613,116.664332 L86.997957,115.573967 C87.9619026,116.321524 89.6113356,116.852854 90.1709728,116.565229 C91.093195,116.090207 90.1759615,114.858844 89.160542,114.214446 C88.1793629,113.593922 87.30544,113.156965 86.5532858,113.926369 L84.9412677,107.949745 C85.1222201,107.998847 85.29705,108.024524 85.4566872,108.013938 C85.8555534,107.986684 85.8575942,106.737077 85.4417212,105.826225 C86.6868459,105.453235 89.9040794,105.135653 94.0537391,109.610632 C94.0537391,109.610632 93.2126961,110.379586 90.2752812,109.82821 C89.3294762,108.459003 87.5294763,107.137096 87.0795897,107.836902 C86.1562337,109.273905 88.7929683,112.691178 90.3233538,112.065699 C91.0532857,112.739153 91.9920612,113.433104 93.1786825,114.021644 C94.2269818,114.965831 96.2841246,116.088405 96.8355985,115.718343 C97.0120157,115.599869 97.1129227,115.434321 97.1587277,115.240619 C97.8015849,115.296252 98.4972764,115.277332 99.2362787,115.19377 C100.026982,116.545858 103.087753,116.616357 103.446483,116.185707 C103.821313,115.734335 104.369839,114.760642 102.916777,114.383598 C104.204759,113.990111 105.550111,113.485133 106.910882,112.907629 C105.911335,114.064439 106.065303,115.683882 106.654873,115.832763 C107.393195,116.014528 109.761675,113.536036 109.410201,113.073853 C109.210655,112.811229 109.143761,112.271114 108.828795,112.052185 C110.231063,111.398551 111.629249,110.687933 112.979362,109.961999 C111.74104,110.874879 110.946256,113.189399 112.183217,113.225211 C112.380496,113.230617 112.567117,113.223184 112.745122,113.206292 C108.689793,115.320577 103.424487,117.785104 100.245802,118.177464 C100.245802,118.177464 102.853966,121.267695 110.893648,116.09336 C110.841494,116.27445 110.864396,116.463647 110.992741,116.654647 C111.97392,118.111245 112.394101,118.650459 113.31587,118.178591 C114.238773,117.702443 115.133557,116.262062 114.81451,115.133857 C114.665757,114.611085 113.631743,114.603878 112.658954,114.884071 C114.374374,113.641447 116.301358,112.056915 118.463262,110.04421 C118.463262,110.04421 117.0585,110.879384 114.976641,112.015922 C115.688432,111.026913 115.617911,109.734286 115.063716,109.357693 C114.84943,109.212416 114.712242,109.118718 114.609521,109.066238 C115.801811,108.397063 116.938546,107.729916 117.985031,107.097004 C117.1746,108.004478 116.377095,109.220749 116.995462,109.476842 C118.831516,110.234084 120.307934,109.119619 120.456233,107.568872 C120.556913,106.525356 120.188432,106.098535 119.75011,106.010693 C120.359861,105.628243 120.921539,105.269668 121.425847,104.943302 C121.409748,105.19016 121.45714,105.462019 121.589793,105.768114 C122.595008,108.102455 124.949657,105.463596 124.990246,104.363996 C126.452605,105.052091 128.302491,105.652569 130.240133,105.588602 C131.082536,105.560222 131.920632,105.367195 132.72562,105.075515 C132.444441,105.584322 132.35714,106.014072 132.696595,106.153943 Z" id="path254" fill="#C3B597"></path>
                        <path d="M47.8873004,117.032367 C46.4412687,119.677082 46.1562347,121.843848 46.1562347,121.843848 C47.3569149,119.800737 49.3088423,118.212376 51.2521529,117.032367 L55.4750553,117.032367 C53.8882073,117.652891 52.8263025,118.360356 52.2467107,118.814656 C53.501586,118.805421 54.4632639,119.000024 55.080951,119.181564 C50.3194999,120.901688 45.4195,127.123819 44.5360533,128.284682 C43.6632642,126.507124 43.3580488,121.695192 45.4090692,117.032367 L47.8873004,117.032367" id="path256" fill="#C3B597"></path>
                        <path d="M98.2412674,92.824731 C95.9684783,93.5195825 93.4893401,94.2027218 90.9097483,94.7926136 C91.2755079,93.4256593 90.9807233,91.5480961 90.1587279,91.4543982 C88.9079343,91.3183559 87.2349185,93.3382679 87.2349185,93.3382679 C87.2349185,93.3382679 87.5616758,94.5209795 88.1970499,95.3683155 C86.0875262,95.7811722 83.9387734,96.1082141 81.8047599,96.3221879 L81.132651,93.8310832 C81.5442156,94.2058751 81.8897939,94.257454 81.8897939,94.257454 C82.3782292,94.2439399 82.7412678,94.0103707 82.994329,93.6608052 C83.5306102,94.0590215 83.8492043,94.2775 83.8492043,94.2775 C83.5902473,94.0473093 83.3315172,93.8009016 83.0725603,93.5443584 C83.2609957,93.2375876 83.3768687,92.8594172 83.426982,92.4650299 C83.5430818,91.534582 83.3857122,90.307499 82.223354,90.3221393 C81.7247145,90.3282207 81.2378664,90.6545869 80.8918347,91.1061841 C80.6367327,90.7919806 80.3868461,90.47102 80.139227,90.147807 L79.044896,86.0919913 C81.0204061,86.5825543 83.9462564,87.1884378 87.6013584,87.5976907 C87.8387733,87.6704417 88.0863924,87.732832 88.344669,87.77878 C88.5700658,87.8188719 88.7365057,87.7954474 88.8555533,87.7269758 C89.6550998,87.8024297 90.4850318,87.867748 91.3442154,87.9206784 C91.107254,88.2542522 91.0537392,88.6159804 91.3287959,88.967573 C92.078229,89.9315809 94.8594081,89.2459641 95.6963695,88.0582973 C96.3476166,88.0603244 97.0095214,88.0546935 97.6841245,88.0387018 C97.6854851,88.0468103 97.6866189,88.055144 97.6884329,88.0630272 C97.2727867,88.3797083 96.9002243,89.0281613 96.7385463,90.2757408 C96.5303831,91.8854989 97.3088411,92.6627866 98.2412674,92.824731" id="path258" fill="#C3B597"></path>
                        <path d="M63.408842,117.878352 C64.1158714,117.69028 64.8430823,117.385311 65.541495,117.032367 L69.7945561,117.032367 C67.1886605,119.073226 63.5909281,121.09539 61.1106561,120.646271 C63.6743748,120.214945 65.7439893,118.688749 66.7564609,117.808529 C65.4104292,117.969122 64.2208601,117.940742 63.408842,117.878352" id="path260" fill="#C3B597"></path>
                        <path d="M93.3705192,100.681171 C93.3505646,100.75212 93.3290226,100.81969 93.3111088,100.892441 C93.3111088,100.892441 92.0625827,99.9953284 90.0537392,99.4847195 C89.7095216,98.7236488 88.6630363,97.7819391 87.5732404,98.0837547 C86.8739207,98.278133 86.5814037,98.7058552 86.5716532,99.167588 C85.4106555,99.2491232 84.1492042,99.5308928 82.8276623,100.114253 L81.9070274,96.7021601 C84.5492042,96.6954031 88.4682518,96.5005744 93.1879795,95.7041416 C92.7242607,96.2239852 92.4594081,96.8796457 92.6179115,97.6051293 C92.7963696,98.4252117 93.0510181,99.5745885 93.3705192,100.681171" id="path262" fill="#C3B597"></path>
                        <path d="M78.6659844,59.3779346 C78.0058937,57.9803483 75.726302,57.0744511 76.12154,57.9587257 C76.4487509,58.6945701 76.5004516,60.6374515 77.4988643,60.9739533 C78.5006783,61.309329 79.3235808,60.7750704 78.6659844,59.3779346 Z M75.9265287,70.3561382 C77.1714266,71.640431 77.6591817,72.0235566 78.3176851,70.4020862 C78.9752815,68.7815168 78.9941023,68.4247438 77.2077078,67.8314734 C75.4235809,67.2413564 75.2510185,69.6617371 75.9265287,70.3561382 Z M69.3825379,72.3156871 C69.4054404,72.9745009 69.7605425,74.9912596 70.7575946,75.3309147 C71.7580481,75.6671913 72.5829914,75.1324823 71.925395,73.7330941 C71.2668916,72.3359583 69.3489779,71.3476249 69.3825379,72.3156871 Z M92.4263015,78.6716077 C91.2535125,78.5279075 90.0505646,78.3612332 88.8319706,78.1682064 C88.2999978,77.9186454 87.6140568,77.6181813 87.0677983,77.8722469 C83.2319707,77.1888824 79.3054402,76.2309558 75.698184,74.8917055 C74.1321977,70.7239478 74.3997714,67.0510324 74.5877532,65.6683117 C74.8641705,65.0097231 74.7895673,64.1682432 74.4503383,63.6700223 C74.0489777,63.0828333 71.831064,63.8319666 71.9829914,65.2022994 C72.1353723,66.5755603 71.6213134,66.6947099 73.2201796,66.6287159 C73.7190458,66.6082194 74.0852589,66.3996514 74.3351455,66.0949077 C72.6907011,71.2446922 73.6700662,75.3529878 74.7476172,77.8528767 C74.0841251,77.4030814 73.4321977,77.2942926 73.2777759,77.8330559 C73.1467102,78.2923111 73.4739211,79.4000193 74.0185923,80.1525311 C72.0975039,79.6685 70.9510186,78.973198 70.9510186,78.973198 C71.1038531,79.6955283 71.3482975,80.4185343 71.6598622,81.136585 L71.2607692,81.136585 L68.0396808,69.1950492 C68.5281162,63.0731482 72.4684789,59.6889848 72.4684789,59.6889848 C69.6172318,60.3804578 67.8002251,62.2674808 66.666665,64.1054025 L65.8943294,61.2419836 C66.3244881,60.6505152 66.6281162,59.9079137 66.5036265,59.3691504 C66.7251684,59.3121658 67.3480709,59.1479691 68.2698396,58.8797136 C68.3596355,58.9693574 68.5317443,58.9121475 68.7210867,58.7468247 C69.8328781,58.416179 71.2848055,57.9605276 72.940361,57.383249 C73.0297034,57.3809966 73.1258485,57.3773928 73.232878,57.3731134 C73.694556,57.3541936 74.0399074,57.1706266 74.2872997,56.9021459 C76.189794,56.2072944 78.2882067,55.3703193 80.408388,54.396401 C80.86349,54.5081178 81.2895671,54.4828914 81.6301567,54.2488717 C81.8283426,54.1144061 81.8038528,53.961246 81.6677984,53.8031306 C82.3730138,53.4612232 83.0770954,53.1051258 83.7725603,52.733262 C84.4619027,52.9222346 85.0390001,52.6846111 85.058728,52.0237702 C85.9752813,51.5012238 86.8702926,50.9530006 87.727889,50.3775239 C87.727889,50.3775239 91.1022653,49.7333504 93.3573673,50.9282247 C93.3573673,50.9282247 90.7215397,53.3927516 86.8464831,56.0590894 C86.8777756,55.5734817 86.8532858,55.2221143 86.7160976,55.1457595 C86.2950092,54.9112893 83.48866,56.2077449 83.46349,57.9314722 C83.4619027,58.0262963 83.4673449,58.1188681 83.4764151,58.2089623 C82.086846,59.0261167 80.6138302,59.8011521 79.0979572,60.4689753 C79.0884334,60.4615426 79.0789096,60.4547855 79.0693858,60.447578 C79.0693858,60.447578 79.0784561,60.4570379 79.0934221,60.4707772 C79.0437622,60.4926251 78.9947826,60.5169505 78.9453495,60.5387983 C78.9453495,60.5387983 79.0698393,60.5980353 79.3138302,60.6766425 C79.7648506,61.0908506 80.8380932,62.0424706 82.4911544,63.2979333 C81.9637168,63.2742835 81.6555535,63.4233894 81.9437621,63.7344397 C82.4897939,64.3274847 83.1657576,66.1521175 84.2215398,66.1543699 C84.8782292,66.153469 85.3605421,65.8557076 85.3739208,65.3626671 C86.3460296,66.02058 87.4263017,66.7149811 88.6097484,67.4249234 C88.1281157,67.5197475 87.6920613,67.6886741 87.4580477,67.8717906 C82.7714265,68.4060492 79.9557803,64.0601302 79.9557803,64.0601302 C79.9560071,64.0605807 79.9560071,64.0610311 79.9560071,64.0610311 L79.9555536,64.0608059 C79.9555536,64.0608059 78.5312906,68.1272077 82.2464832,72.4641173 C81.9117893,72.3316788 81.5566873,72.3161375 81.2038528,72.5609685 C80.0516987,73.357176 81.2287962,75.9331945 82.8238075,75.9230589 C83.9038528,75.9158513 84.1773222,74.9604023 84.0841249,74.2558657 C85.9768686,75.8201262 88.6566871,77.350151 92.4263015,78.6716077 Z" id="path264" fill="#C3B597"></path>
                        <path d="M86.8888867,6.87125947 L9.01537392,6.87125947 L15.846893,32.195388 L22.2940584,32.195388 L36.9217678,86.4221866 L30.4748292,86.4221866 L37.3058948,111.746766 L80.4562338,111.746766 L73.6249415,86.4221866 L67.1777761,86.4221866 L52.5498853,32.195388 L67.204987,32.195388 L69.6183656,40.9865549 L96.1399069,40.9865549 L86.8888867,6.87125947 Z M67.9247149,43.1889076 L65.5113362,34.3979659 L55.4394544,34.3979659 L68.8791366,84.2200591 L75.3260752,84.2200591 L83.3460297,113.949118 L35.604761,113.949118 L27.5850333,84.2200591 L34.0324255,84.2200591 L20.5925845,34.3979659 L14.1454191,34.3979659 L6.12598624,4.66915449 L88.5879796,4.66915449 L99.0333309,43.1889076 L67.9247149,43.1889076 Z" id="path266" fill="#A08F66"></path>
                        <path d="M85.1897938,9.07381493 L11.904943,9.07381493 L17.5480041,29.9934857 L23.9954643,29.9934857 L39.8113369,88.6247646 L33.3643983,88.6247646 L39.0072553,109.544413 L77.5668915,109.544413 L71.923581,88.6247646 L65.4764156,88.6247646 L49.6603162,29.9934857 L68.898411,29.9934857 L71.3117896,38.7844273 L93.2464829,38.7844273 L85.1897938,9.07381493 Z M69.6183656,40.9865549 L67.204987,32.195388 L52.5498853,32.195388 L67.1777761,86.4221866 L73.6249415,86.4221866 L80.4562338,111.746766 L37.3058948,111.746766 L30.4748292,86.4221866 L36.9217678,86.4221866 L22.2940584,32.195388 L15.846893,32.195388 L9.01537392,6.87125947 L86.8888867,6.87125947 L96.1399069,40.9865549 L69.6183656,40.9865549 Z" id="path268" fill="#FFFFFF"></path>
                        <path d="M83.4081612,11.7714605 L15.1239225,11.7714605 L19.4196367,27.5704021 L25.7154189,27.5704021 L42.840135,91.0537042 L36.5426295,91.0537042 L40.8789105,107.142952 L74.3433088,107.142952 L70.0521524,91.0471724 L63.6888873,91.0471724 L46.1165521,25.9126688 L70.4369597,25.9126688 L73.242175,36.3201257 L90.0172313,36.3201257 L83.4081612,11.7714605 Z M71.3117896,38.7844273 L68.898411,29.9934857 L49.6603162,29.9934857 L65.4764156,88.6247646 L71.923581,88.6247646 L77.5668915,109.544413 L39.0072553,109.544413 L33.3643983,88.6247646 L39.8113369,88.6247646 L23.9954643,29.9934857 L17.5480041,29.9934857 L11.904943,9.07381493 L85.1897938,9.07381493 L93.2464829,38.7844273 L71.3117896,38.7844273 Z" id="path270" fill="#8E0A26"></path>
                        <polyline id="path272" fill="#8E0A26" points="75.1138303 33.9362332 72.308615 23.5285511 43.0421758 23.5285511 61.9083885 93.4662017 68.1804972 93.4662017 71.269386 104.759735 71.2687057 104.759735 42.7503391 104.759735 39.7213142 93.4698055 45.9138311 93.4698055 27.4643984 25.1477691 21.1452149 25.1707431 18.1956912 14.1979226 18.1924032 14.1862329 81.6285694 14.1862329 86.9430817 33.9362332 75.1138303 33.9362332"></polyline>
                        <polyline id="path274" fill="#B9505A" points="42.7505658 104.759735 71.269386 104.759735 74.3433088 107.142952 74.3433088 107.142952 40.8789105 107.142952 36.5426295 91.0537042 39.7213142 93.4698055 42.7505658 104.759735"></polyline>
                        <polyline id="path276" fill="#B9505A" points="63.6886605 91.0471724 70.0523792 91.0471724 68.1804972 93.4662017 61.9083885 93.4662017 63.6886605 91.0471724"></polyline>
                        <polyline id="path278" fill="#B9505A" points="73.242175 36.3201257 70.4369597 25.9126688 46.1165521 25.9126688 43.0421758 23.5285511 72.3083882 23.5285511 75.1138303 33.9362332 86.9430817 33.9362332 90.0172313 36.3201257 73.242175 36.3201257"></polyline>
                        <polyline id="path280" fill="#B9505A" points="42.840135 91.0537042 25.7154189 27.5704021 19.4196367 27.5704021 15.1241039 11.7714605 18.1924032 14.1862329 18.1955097 14.1979226 21.1452149 25.1707431 27.4643984 25.1477691 45.9138311 93.4698055 42.840135 91.0537042"></polyline>
                        <path d="M104.775281,33.592749 L104.83197,32.365666 L105.543535,33.592749 L106.432877,33.592749 L105.858954,31.4635978 L105.285938,31.4635978 L105.69002,32.9625401 L104.831517,31.4635978 L104.341267,31.4635978 L104.289793,32.9780813 L103.881857,31.4635978 L103.309294,31.4635978 L103.883671,33.592749 L104.775281,33.592749 Z M101.665757,33.0789868 L101.804986,33.592749 L103.689567,33.592749 L103.550338,33.0789868 L102.92222,33.0789868 L102.486846,31.4635978 L101.858501,31.4635978 L102.293875,33.0789868 L101.665757,33.0789868 Z" id="path282" fill="#231F20"></path>
                    </g>
                </g>
            </g>
        </g>
    </g>
</svg>