<svg width="200" height="200" xmlns="http://www.w3.org/2000/svg"><g fill="none"><path d="M145.569 62.534c-.61-.274-1.2-.547-1.772-.812-.066 1.115-.305 3.263-1.2 3.868 0 0 2.704-.769 2.972-3.056m-18.854 2.93c2.26.784 4.015 2.103 5.426 3.752 3.093 3.617 5.097 4.47 7.085 4.85.888-.603 2.249-1.735 2.249-1.735-1.61.173-2.932-.113-3.735-.419a8.834 8.834 0 0 1-3.606-2.562c-1.153-1.228-2.015-2.763-2.386-4.497-.494-2.28.123-4.741 1.233-6.554-1.813-.3-3.462-.291-5.347-.022-4.192.602-7.159 5.411-8.21 7.981.936-.589 3.738-2.026 7.291-.794" fill="#FFF"/><path d="M51.25 130.684l.62-3.656h.935l.742 1.956.786-1.956h.944l.552 3.656h-.95l-.265-2.105h-.01l-.878 2.105h-.377l-.84-2.105h-.01l-.304 2.105h-.946zm105.122-18.112c-6.69 5.876-13.645 17.333-15.298 34.76-5.234-8.026-7.419-17.223-7.419-17.223s-7.364 14.186-18.547 16.094c5.067-4.383 7.075-9.349 7.075-9.349s-5.717 3.339-9.28 4.22c-4.379 13.683-14.162 17.71-23.882 17.028-5.275-.37-10.233-2.072-13.756-3.59-3.07-1.318-5.24-2.582-5.86-2.953-7.152-3.643-16.981-3.185-22.015 8.98-7.03-7.316-3.435-28.397 14.377-30.311-5.841-3.716-11.158-7.279-16.902-8.984-13.493-4.003-33.826 7.23-37.235 9.956 10.639-25.912 31.554-33.406 31.554-33.406s4.045-9.353 9.226-16.357c3.046-4.122 8.32-9.382 8.32-9.382s-11.046.223-22.336 3.54c6.274-7.83 12.664-12.882 17.822-15.795 5.196-2.934 12.52-5.113 12.52-5.113s-2.549-2.595-5.604-3.972c11.238-4.487 27.908-5.72 27.908-5.72s-4.259-3.405-7.601-4.34c2.053-.626 25.165-5.613 44.718-2.787 20.911 3.023 31.563 7.194 36.855 11.218 2.639 2.006 4.012 3.796 4.63 5.061.584 1.195.806 3.01.806 3.01s4.865.999 6.482 2.643c1.338 1.362 1.386 2.792 1.386 2.792 7.93 1.81 17.266 14.295 20.535 20.104-2.447 1.618-31.726 23.946-38.479 29.876zm-107.77 15.26v-.804h2.52v.803h-.785v2.853h-.95v-2.853h-.786zm140.777-58.353c-3.424-3.842-7.447-7.698-12.335-9.565a8.696 8.696 0 0 0-1.712-2.487c-1.656-1.578-3.85-2.403-6.013-3.03-2.095-7.196-10.615-11.198-17.1-13.577-10.068-3.693-21.134-6.059-31.804-6.799-25.736-1.783-45.445 4.141-53.025 6.767l8.035 2.249C61.59 45.639 50.47 50.518 50.47 50.518l6.952 3.136C38.857 60.61 25.01 81.857 25.01 81.857c6.936-2.514 15.295-4.648 23.282-5.697-4.857 5.673-8.557 12.264-11.67 19.028C31.581 97.412 9.578 108.38 0 141.598c9.458-9.334 27.17-16.121 31.593-17.057 6.954-1.474 12.28-.206 16.59 1.698-.807.687-1.29 1.565-1.29 2.516 0 1.267.847 2.392 2.168 3.128-3.818 3.128-6.458 7.499-7.594 12.274-3.559 14.982 7.075 22.48 7.075 22.48s1.977-8.954 7.914-12.35c3.52-2.01 7.81-1.514 11.314.247 6.8 4.033 14.874 6.913 22.83 7.03 8.899.133 17.042-3.916 21.865-11.468 11.441-.412 20.115-12.234 20.115-12.234 1.51 5.759 10.933 19.423 10.933 19.423s.115-20.536 7.582-32.562c3.09-4.98 6.622-8.979 11.122-12.631 7.189-5.839 31.86-24.836 37.12-28.312-2.339-4.142-6.796-10.753-9.958-14.301z" fill="#FFF"/><path d="M153.063 108.852c-1.33-1.624-1.703-3.011-1.888-4.102-.375-2.197-.062-5.242 2.174-8.968 4.442-7.408 7.898-15.53-.831-18.338 18.973-1.072 34.463 5.912 34.463 5.912l-33.918 25.496zm-5.673 3.805s-6.299 7.633-7.527 16.634c0 0-3.55-6.705-3.115-15.659 0 0-6.701 18.028-27.117 22.332-6.584 31.249-38.04 11.686-38.04 11.686-17.045-8.778-23.653 5.135-23.653 5.135-.132-11.867 10.129-23.23 25.779-16.623 11.646 4.917 20.133 3.617 25.742.705-18.73-.265-24.643-4.796-41.96-16.232-14.806-9.777-31.355-3.783-36.742-1.36 3.692-5.48 16.63-20.986 47.79-26.696 0 0-14.221-.433-21.492 2.569C49.939 90.822 58.28 80.14 73.54 74.233c15.724-6.087 31.293-3.997 36.673-2.976-5.56 1.068-30.721 6.934-33.836 26.07 0 0 7.004-17.505 36.461-19.973 0 0-2.672 8.154 2.468 10.888 4.2 2.237 9.557 1.76 17.805-2.793 11.924-6.585 16.117-5.08 18.919-2.612 1.405 1.238 1.384 6.357-2.809 12.57-7.621 11.3-1.83 17.25-1.83 17.25zM71.504 67.714s-11.821-3.967-24.64.707c0 0 16.407-11.736 34.781-10.976 0 0-1.677-4.17-5.879-5.758 0 0 15.697-3.929 32.633-.385 0 0-3.665-6.727-9.15-8.737 15.33-1.628 34.81.38 49.561 6.139 13.566 5.297 13.01 8.757 11.618 10.602-2.118 2.8-7.25 1.123-9.525.342-2.274-.783-14.503-7.95-31.415-6.648-12.073.93-19.093 7.422-22.524 11.838-6.323.535-14.11 2.075-22.554 5.708-12.088 5.203-19.652 11.882-24.073 16.972 4.237-6.358 11.34-14.943 21.167-19.804zm71.093-2.124c.895-.605 1.134-2.753 1.2-3.868.571.265 1.163.538 1.772.812-.268 2.287-2.972 3.056-2.972 3.056zm-3.352 4.427c-2.172-.738-4.045-2.517-4.535-4.845-.495-2.36.613-4.76 2.493-6.104.191.05 2.32.746 3.35 1.127-1.641.743-2.684 2.34-2.453 4.006.289 2.064 2.4 3.562 4.74 3.205 2.34-.358 4.016-2.428 3.742-4.483.68.302 1.376.6 2.072.878.148 2.405-1.153 4.48-3.01 5.665-1.806 1.152-4.167 1.306-6.399.551zm-26.431-4.49s-1.477-.357-4.096-.63c1.231-1.874 5.43-5.96 10.968-7.049-3.45 2.198-5.868 5.923-6.872 7.678zm14.82-7.25c1.885-.27 3.534-.277 5.347.022-1.11 1.813-1.727 4.273-1.233 6.554.371 1.734 1.233 3.269 2.386 4.497a8.834 8.834 0 0 0 3.606 2.562c.803.306 2.126.592 3.735.42 0 0-1.36 1.13-2.249 1.735-1.988-.381-3.992-1.234-7.085-4.85-1.41-1.65-3.167-2.97-5.426-3.753-3.553-1.232-6.355.205-7.29.794 1.05-2.57 4.017-7.38 8.21-7.981zm37.878 3.47c4.859.149 4.783 3.87 4.822 3.955 4.171 1.46 9.525 4.753 12.588 7.642 3.172 2.988 5.802 6.906 5.802 6.906-15.88-8.162-40.55-6.983-40.566-6.983 8.512-7.624 17.354-11.52 17.354-11.52zm8.804.845s-.048-1.43-1.386-2.792c-1.617-1.644-6.482-2.644-6.482-2.644s-.222-1.814-.806-3.009c-.618-1.265-1.991-3.055-4.63-5.06-5.292-4.025-15.944-8.196-36.855-11.219-19.553-2.826-42.665 2.16-44.718 2.787 3.342.935 7.601 4.34 7.601 4.34s-16.67 1.233-27.908 5.72c3.055 1.377 5.604 3.972 5.604 3.972s-7.324 2.179-12.52 5.113c-5.158 2.913-11.548 7.965-17.822 15.795 11.29-3.317 22.337-3.54 22.337-3.54s-5.275 5.26-8.321 9.382c-5.18 7.004-9.226 16.357-9.226 16.357S18.27 105.288 7.63 131.2c3.409-2.726 23.742-13.96 37.235-9.956 5.744 1.705 11.06 5.268 16.902 8.984-17.812 1.914-21.407 22.995-14.377 30.31 5.034-12.164 14.863-12.622 22.016-8.979.619.371 2.79 1.635 5.859 2.954 3.523 1.517 8.48 3.22 13.756 3.59 9.72.68 19.503-3.346 23.882-17.028 3.563-.882 9.28-4.22 9.28-4.22s-2.008 4.965-7.075 9.348c11.183-1.908 18.547-16.094 18.547-16.094s2.185 9.197 7.419 17.223c1.653-17.427 8.609-28.884 15.298-34.76 6.753-5.93 36.032-28.258 38.479-29.876-3.269-5.809-12.605-18.295-20.535-20.104z" fill="#231F20"/><path fill="#231F20" d="M49.387 130.684h.95v-2.853h.784v-.803h-2.52v.803h.786v2.853m3.123-2.104l.839 2.104h.377l.877-2.105h.011l.265 2.105h.95l-.552-3.656h-.944l-.786 1.956-.742-1.956h-.935l-.62 3.656h.945l.305-2.105h.01"/><path d="M145.644 69.466c1.857-1.185 3.158-3.26 3.01-5.665a63.086 63.086 0 0 1-2.072-.878c.274 2.055-1.403 4.125-3.742 4.483-2.34.357-4.451-1.141-4.74-3.205-.231-1.665.812-3.263 2.452-4.006a86.353 86.353 0 0 0-3.35-1.127c-1.88 1.344-2.987 3.744-2.492 6.104.49 2.328 2.363 4.107 4.535 4.845 2.232.755 4.593.6 6.4-.551" fill="#C2E577"/><path d="M188.724 80.25s-2.63-3.918-5.802-6.906c-3.063-2.89-8.417-6.183-12.588-7.642-.039-.086.037-3.806-4.822-3.956 0 0-8.842 3.897-17.354 11.521.017 0 24.687-1.179 40.566 6.983m-36.206-2.806c8.729 2.809 5.273 10.93.831 18.338-2.236 3.726-2.55 6.77-2.174 8.968.185 1.09.558 2.478 1.888 4.102l33.918-25.496s-15.49-6.984-34.463-5.912" fill="#F9A721"/><path d="M74.41 70.546c8.444-3.633 16.23-5.173 22.554-5.708 3.431-4.416 10.451-10.908 22.524-11.838 16.912-1.303 29.14 5.865 31.415 6.648 2.274.781 7.407 2.459 9.525-.342 1.392-1.845 1.948-5.305-11.618-10.602-14.752-5.759-34.23-7.767-49.56-6.14 5.484 2.011 9.149 8.738 9.149 8.738-16.936-3.544-32.633.385-32.633.385 4.202 1.587 5.88 5.758 5.88 5.758-18.375-.76-34.782 10.976-34.782 10.976 12.819-4.674 24.64-.707 24.64-.707-9.828 4.861-16.93 13.446-21.167 19.804 4.421-5.09 11.985-11.769 24.073-16.972" fill="#E51636"/><path d="M108.718 64.897c2.619.273 4.096.63 4.096.63 1.004-1.756 3.422-5.481 6.872-7.679-5.537 1.089-9.737 5.175-10.968 7.05m43.312 17.939c-2.802-2.468-6.995-3.973-18.919 2.612-8.248 4.554-13.605 5.03-17.805 2.793-5.14-2.734-2.468-10.888-2.468-10.888-29.457 2.468-36.461 19.973-36.461 19.973 3.115-19.136 28.277-25.002 33.836-26.07-5.38-1.021-20.949-3.11-36.673 2.976-15.26 5.907-23.6 16.59-26.485 20.915 7.27-3.002 21.492-2.57 21.492-2.57-31.16 5.711-44.098 21.216-47.79 26.697 5.387-2.423 21.936-8.417 36.741 1.36 17.318 11.436 23.23 15.967 41.961 16.232-5.61 2.912-14.096 4.212-25.742-.705-15.65-6.606-25.91 4.756-25.779 16.623 0 0 6.608-13.913 23.654-5.135 0 0 31.455 19.563 38.04-11.686 20.415-4.304 27.116-22.332 27.116-22.332-.435 8.954 3.115 15.66 3.115 15.66 1.228-9.002 7.527-16.635 7.527-16.635s-5.79-5.95 1.831-17.25c4.193-6.213 4.214-11.332 2.809-12.57" fill="#E51636"/></g></svg>