<?xml version="1.0" encoding="UTF-8"?>
<svg width="200px" height="200px" viewBox="0 0 200 200" version="1.1" xmlns="http://www.w3.org/2000/svg" xmlns:xlink="http://www.w3.org/1999/xlink">
    <!-- Generator: Sketch 51.3 (57544) - http://www.bohemiancoding.com/sketch -->
    <title>lehigh</title>
    <desc>Created with Sketch.</desc>
    <defs></defs>
    <g id="lehigh" stroke="none" stroke-width="1" fill="none" fill-rule="evenodd">
        <g id="lehigh_BGL" transform="translate(0.000000, 2.985075)">
            <g id="lehigh">
                <g id="g10" transform="translate(99.999998, 97.831297) scale(-1, 1) rotate(-180.000000) translate(-99.999998, -97.831297) translate(0.000000, 0.357599)" fill-rule="nonzero">
                    <g id="g12">
                        <path d="M130.318837,122.09936 C130.380287,121.623527 130.420866,121.141349 130.420866,120.645329 C130.420866,120.367904 130.398258,120.096823 130.380287,119.824589 C128.947823,120.225442 127.495069,120.586499 126.135649,120.897377 C122.572751,121.709465 119.683475,122.171456 119.683475,122.171456 C119.683475,122.171456 121.8342,121.646021 125.902026,118.823321 C126.964635,118.083905 128.161736,117.186455 129.485214,116.103862 C127.712461,112.000162 123.617968,109.123246 118.842316,109.123246 C112.449273,109.123246 107.264345,114.281854 107.264345,120.645329 C107.264345,124.978583 109.673041,128.744298 113.222026,130.715112 C111.441157,131.278614 109.679997,131.749833 107.959997,132.126462 C104.889273,129.244932 102.965215,125.172377 102.965215,120.645329 C102.965215,111.919415 110.0742,104.848246 118.842316,104.848246 C120.297388,104.848246 121.700287,105.059919 123.037678,105.420976 C123.708403,105.605541 124.368113,105.813178 125.002316,106.081951 C130.107823,108.221182 133.836518,112.9426 134.57275,118.602419 C133.208692,119.851697 131.787823,121.019651 130.318837,122.09936" id="path14" fill="#FFFFFF"></path>
                        <path d="M145.408112,49.6407586 L135.207533,49.6407586 C135.207533,49.6407586 126.649852,21.6749781 98.2220265,21.6749781 L73.8979692,21.6749781 L83.4591283,58.4951769 C77.4991285,80.1452963 67.1570998,95.5403728 55.7463754,106.485112 L37.0907817,34.6711634 C37.0907817,34.6711634 33.7151296,21.6749781 16.4143764,21.6749781 L13.1227243,9.00276296 L132.471881,9.00276296 L145.408112,49.6407586" id="path16" fill="#CBA569"></path>
                        <path d="M69.5866649,159.765157 L68.3715925,155.097955 C77.1797082,155.327509 87.4098529,155.111221 98.0243454,153.889051 L89.4828963,159.097838 C96.6759396,159.480811 103.377968,159.507919 109.638838,159.273175 L109.765794,159.765157 C113.142606,172.75223 124.451591,172.766072 124.451591,172.766072 L130.441156,172.766072 L133.734489,185.433039 L58.9518826,185.433039 L55.6626073,172.766072 L61.6533318,172.766072 C61.6533318,172.766072 72.9588388,172.75223 69.5866649,159.765157" id="path18" fill="#CBA569"></path>
                        <path d="M123.037678,105.420976 C112.406374,101.957487 101.333331,99.6238863 93.1565194,92.0549672 C108.653331,85.4890466 123.207533,81.4983927 139.442895,79.1301856 C153.743185,77.0399804 164.663764,71.3340201 171.378546,67.6132934 C156.981445,85.1014589 122.226084,83.6583868 101.15478,92.5532942 C126.711301,105.335614 151.929851,112.69459 172.779126,107.88781 C177.969271,105.930261 180.217967,100.122213 181.6313,95.5357587 C187.972169,100.581897 192.572749,110.606692 190.825502,116.938445 C188.203474,126.430883 168.403474,120.223135 158.427822,116.040995 C155.102605,116.320727 150.848692,115.788371 150.848692,115.788371 C155.356518,121.594112 163.224923,127.914329 171.136228,130.378856 C159.93217,134.038446 151.735069,124.913408 144.67304,117.687089 C139.130431,111.752152 132.215649,108.559744 125.002316,106.081951 C124.368113,105.813178 123.708403,105.605541 123.037678,105.420976" id="path20" fill="#CBA569"></path>
                        <path d="M123.465504,93.7685432 C128.704924,91.4505149 136.11362,88.799115 143.368112,88.00779 L128.679997,94.5350672 C127.164055,95.3875294 124.322316,95.2767901 123.465504,93.7685432" id="path22" fill="#963A0E"></path>
                        <path d="M109.673041,151.963801 L115.463186,145.835647 C102.289853,149.055163 79.1704328,147.336973 61.7362303,144.484858 C44.6114192,141.677731 25.5996515,133.104659 25.5996515,133.104659 C80.63594,122.351984 90.9768093,59.3920503 90.9768093,59.3920503 C90.9768093,59.3920503 99.4318816,71.9603896 118.964635,76.0144879 C109.927533,81.0808131 92.9234759,86.0052535 83.2568095,86.9050107 C85.8028964,97.0555409 95.8602875,102.365839 103.073621,106.318426 C103.073621,106.318426 97.0457947,110.886424 97.0457947,121.159229 C97.0457947,124.162457 97.0544903,129.747296 101.564635,133.127153 C96.2527512,133.614522 91.7791281,133.08678 89.0481137,131.702538 C89.0481137,131.702538 109.288113,152.915467 142.774489,126.662744 C142.774489,126.662744 149.060866,137.027831 160.37159,140.058744 C160.37159,140.058744 149.260286,151.260145 109.673041,151.963801" id="path24" fill="#963A0E"></path>
                        <path d="M118.842316,113.367101 C114.799417,113.367101 111.524635,116.622376 111.524635,120.645329 C111.524635,124.663091 114.799417,127.925865 118.842316,127.925865 C119.771591,127.925865 120.651591,127.738415 121.471881,127.422923 C118.729272,128.755256 115.953041,129.848807 113.222026,130.715112 C109.673041,128.744298 107.264345,124.978583 107.264345,120.645329 C107.264345,114.281854 112.449273,109.123246 118.842316,109.123246 C123.617968,109.123246 127.712461,112.000162 129.485214,116.103862 C128.161736,117.186455 126.964635,118.083905 125.902026,118.823321 C125.088693,115.689167 122.251011,113.367101 118.842316,113.367101" id="path26" fill="#006838"></path>
                        <path d="M130.318837,122.09936 C127.884634,123.896567 125.328693,125.452109 122.729272,126.791363 C124.716519,125.544392 126.046953,123.386705 126.135649,120.897377 C127.495069,120.586499 128.947823,120.225442 130.380287,119.824589 C130.398258,120.096823 130.420866,120.367904 130.420866,120.645329 C130.420866,121.141349 130.380287,121.623527 130.318837,122.09936" id="path28" fill="#006838"></path>
                        <path d="M61.7362303,144.484858 C79.1704328,147.336973 102.289853,149.055163 115.463186,145.835647 L109.673041,151.963801 C149.260286,151.260145 160.37159,140.058744 160.37159,140.058744 C149.060866,137.027831 142.774489,126.662744 142.774489,126.662744 C109.288113,152.915467 89.0481137,131.702538 89.0481137,131.702538 C91.7791281,133.08678 96.2527512,133.614522 101.564635,133.127153 C97.0544903,129.747296 97.0457947,124.162457 97.0457947,121.159229 C97.0457947,110.886424 103.073621,106.318426 103.073621,106.318426 C95.8602875,102.365839 85.8028964,97.0555409 83.2568095,86.9050107 C92.9234759,86.0052535 109.927533,81.0808131 118.964635,76.0144879 C99.4318816,71.9603896 90.9768093,59.3920503 90.9768093,59.3920503 C90.9768093,59.3920503 80.63594,122.351984 25.5996515,133.104659 C25.5996515,133.104659 44.6114192,141.677731 61.7362303,144.484858 Z M55.6626073,172.766072 L58.9518826,185.433039 L133.734489,185.433039 L130.441156,172.766072 L124.451591,172.766072 C124.451591,172.766072 113.142606,172.75223 109.765794,159.765157 L109.638838,159.273175 C103.377968,159.507919 96.6759396,159.480811 89.4828963,159.097838 L98.0243454,153.889051 C87.4098529,155.111221 77.1797082,155.327509 68.3715925,155.097955 L69.5866649,159.765157 C72.9588388,172.75223 61.6533318,172.766072 61.6533318,172.766072 L55.6626073,172.766072 Z M171.136228,130.378856 C163.224923,127.914329 155.356518,121.594112 150.848692,115.788371 C150.848692,115.788371 155.102605,116.320727 158.427822,116.040995 C168.403474,120.223135 188.203474,126.430883 190.825502,116.938445 C192.572749,110.606692 187.972169,100.581897 181.6313,95.5357587 C180.217967,100.122213 177.969271,105.930261 172.779126,107.88781 C151.929851,112.69459 126.711301,105.335614 101.15478,92.5532942 C122.226084,83.6583868 156.981445,85.1014589 171.378546,67.6132934 C164.663764,71.3340201 153.743185,77.0399804 139.442895,79.1301856 C123.207533,81.4983927 108.653331,85.4890466 93.1565194,92.0549672 C101.333331,99.6238863 112.406374,101.957487 123.037678,105.420976 C121.700287,105.059919 120.297388,104.848246 118.842316,104.848246 C110.0742,104.848246 102.965215,111.919415 102.965215,120.645329 C102.965215,125.172377 104.889273,129.244932 107.959997,132.126462 C109.679997,131.749833 111.441157,131.278614 113.222026,130.715112 C115.953041,129.848807 118.729272,128.755256 121.471881,127.422923 C120.651591,127.738415 119.771591,127.925865 118.842316,127.925865 C114.799417,127.925865 111.524635,124.663091 111.524635,120.645329 C111.524635,116.622376 114.799417,113.367101 118.842316,113.367101 C122.251011,113.367101 125.088693,115.689167 125.902026,118.823321 C121.8342,121.646021 119.683475,122.171456 119.683475,122.171456 C119.683475,122.171456 122.572751,121.709465 126.135649,120.897377 C126.046953,123.386705 124.716519,125.544392 122.729272,126.791363 C125.328693,125.452109 127.884634,123.896567 130.318837,122.09936 C131.787823,121.019651 133.208692,119.851697 134.57275,118.602419 C133.836518,112.9426 130.107823,108.221182 125.002316,106.081951 C132.215649,108.559744 139.130431,111.752152 144.67304,117.687089 C151.735069,124.913408 159.93217,134.038446 171.136228,130.378856 Z M143.368112,88.00779 C136.11362,88.799115 128.704924,91.4505149 123.465504,93.7685432 C124.322316,95.2767901 127.164055,95.3875294 128.679997,94.5350672 L143.368112,88.00779 Z M98.2220265,21.6749781 C126.649852,21.6749781 135.207533,49.6407586 135.207533,49.6407586 L145.408112,49.6407586 L132.471881,9.00276296 L13.1227243,9.00276296 L16.4143764,21.6749781 C33.7151296,21.6749781 37.0907817,34.6711634 37.0907817,34.6711634 L55.7463754,106.485112 C67.1570998,95.5403728 77.4991285,80.1452963 83.4591283,58.4951769 L73.8979692,21.6749781 L98.2220265,21.6749781 Z M48.3562307,112.879732 L29.1961152,39.1221931 C29.1961152,39.1221931 26.9889269,30.6799904 18.753159,30.6799904 L9.70313019,30.6799904 L1.73369851,0 L138.670141,0 L157.339706,58.6439829 L129.035939,58.6439829 C126.819707,50.1206291 121.772751,30.6799904 100.560577,30.6799904 L85.2875341,30.6799904 L89.5623166,47.1351655 C98.8086932,57.8907247 130.112461,86.9546127 178.660285,57.0722917 C178.660285,57.0722917 183.940865,83.6854949 138.844054,99.7075176 C138.844054,99.7075176 147.923475,104.315889 157.561155,104.315889 C179.723474,104.315889 176.604633,82.0982309 176.604633,82.0982309 C183.397097,87.2343449 202.816807,100.327543 199.582604,116.433197 C197.080575,133.47033 172.33101,123.909833 178.467822,139.801506 C178.467822,139.801506 160.118257,155.271562 118.552461,158.734474 L118.817388,159.765157 C119.646954,162.958142 120.705504,163.638728 122.355359,163.755811 L137.15362,163.755811 L145.124054,194.438686 L52.239361,194.438686 L44.2703757,163.755811 L61.5727521,163.755811 L59.2162304,154.687297 C48.0197089,153.970375 40.7450425,152.728018 40.7450425,152.728018 L48.5769843,147.805885 C32.7497963,145.487856 16.6582605,140.119305 0,133.104659 C0,133.104659 24.9220863,131.136729 48.3562307,112.879732 Z" id="path30" fill="#5B2D05"></path>
                        <path d="M156.21275,5.23303982 C156.21275,2.96449236 154.359416,1.12064183 152.075359,1.12064183 C149.790721,1.12064183 147.941446,2.96449236 147.941446,5.23303982 C147.941446,7.50610913 149.790721,9.3506114 152.075359,9.3506114 C154.359416,9.3506114 156.21275,7.50610913 156.21275,5.23303982 Z M146.81275,5.23303982 C146.81275,2.34446736 149.169851,0 152.075359,0 C154.982605,0 157.339706,2.34446736 157.339706,5.23303982 C157.339706,8.12838352 154.982605,10.4730585 152.075359,10.4730585 C149.169851,10.4730585 146.81275,8.12838352 146.81275,5.23303982 Z" id="path32" fill="#5B2D05"></path>
                        <path d="M151.041156,7.10687071 L152.451011,7.10687071 C152.813909,7.10687071 153.108402,6.81577619 153.108402,6.45529654 C153.108402,6.08962598 152.813909,5.79720489 152.451011,5.79720489 L151.041156,5.79720489 L151.041156,7.10687071 Z M149.91304,2.24353306 L151.041156,2.24353306 L151.041156,4.67362154 L151.850431,4.67362154 L152.99304,2.24353306 L154.237098,2.24353306 L153.049272,4.78018509 C153.743185,5.02598607 154.237098,5.68003458 154.237098,6.45529654 C154.237098,7.43176381 153.439416,8.23156722 152.451011,8.23156722 L149.91304,8.23156722 L149.91304,2.24353306 Z" id="path34" fill="#5B2D05"></path>
                    </g>
                </g>
            </g>
        </g>
    </g>
</svg>