<svg width="200" height="200" xmlns="http://www.w3.org/2000/svg"><g fill-rule="nonzero" fill="none"><path d="M130.319 75.58c.061.477.102.962.102 1.46 0 .28-.023.552-.04.826a91.758 91.758 0 0 0-4.245-1.079c-3.563-.816-6.453-1.28-6.453-1.28s2.151.528 6.219 3.365a58.09 58.09 0 0 1 3.583 2.733c-1.773 4.125-5.867 7.016-10.643 7.016-6.393 0-11.578-5.184-11.578-11.58 0-4.356 2.409-8.14 5.958-10.122a59.836 59.836 0 0 0-5.262-1.418c-3.07 2.896-4.995 6.99-4.995 11.54 0 8.77 7.11 15.877 15.877 15.877 1.455 0 2.858-.212 4.196-.575.67-.186 1.33-.395 1.964-.665a15.879 15.879 0 0 0 9.57-12.584 51.24 51.24 0 0 0-4.253-3.515" fill="#FFF"/><path d="M145.408 148.407h-10.2s-8.558 28.109-36.986 28.109H73.898l9.561-37.008c-5.96-21.76-16.302-37.234-27.713-48.235l-18.655 72.18s-3.376 13.063-20.677 13.063l-3.291 12.737h119.349l12.936-40.846M69.587 37.721l-1.215 4.691c8.808-.23 19.038-.013 29.652 1.215l-8.541-5.235a220.887 220.887 0 0 1 20.156-.176l.127-.495c3.377-13.053 14.686-13.067 14.686-13.067h5.99l3.292-12.732H58.952l-3.29 12.732h5.991s11.306.014 7.934 13.067M123.038 92.343c-10.632 3.48-21.705 5.826-29.881 13.434 15.496 6.6 30.05 10.61 46.286 12.99 14.3 2.101 25.22 7.836 31.936 11.576-14.398-17.577-49.153-16.127-70.224-25.067 25.556-12.848 50.775-20.244 71.624-15.413 5.19 1.968 7.439 7.805 8.852 12.415 6.341-5.072 10.942-15.148 9.195-21.512-2.623-9.54-22.423-3.301-32.398.902-3.325-.28-7.58.254-7.58.254 4.509-5.835 12.377-12.188 20.288-14.665-11.204-3.678-19.4 5.494-26.463 12.757-5.543 5.965-12.457 9.174-19.67 11.664-.635.27-1.295.48-1.965.665" fill="#CBA569"/><path d="M123.466 104.054c5.239 2.33 12.648 4.995 19.902 5.79l-14.688-6.56c-1.516-.857-4.358-.745-5.214.77" fill="#963A0E"/><path d="m109.673 45.562 5.79 6.16c-13.173-3.236-36.293-1.51-53.727 1.357C44.611 55.901 25.6 64.518 25.6 64.518c55.036 10.807 65.377 74.088 65.377 74.088s8.455-12.632 27.988-16.707c-9.037-5.092-26.042-10.042-35.708-10.946 2.546-10.202 12.603-15.54 19.817-19.512 0 0-6.028-4.592-6.028-14.917 0-3.018.008-8.632 4.519-12.029-5.312-.49-9.786.04-12.517 1.432 0 0 20.24-21.321 53.726 5.065 0 0 6.287-10.418 17.598-13.464 0 0-11.112-11.258-50.699-11.966" fill="#963A0E"/><path d="M118.842 84.356a7.313 7.313 0 0 1-7.317-7.315 7.319 7.319 0 0 1 7.317-7.318c.93 0 1.81.188 2.63.505a61.253 61.253 0 0 0-8.25-3.309c-3.549 1.981-5.958 5.766-5.958 10.122 0 6.396 5.185 11.58 11.578 11.58 4.776 0 8.87-2.891 10.643-7.016a58.09 58.09 0 0 0-3.583-2.733c-.813 3.15-3.651 5.484-7.06 5.484M130.319 75.58a55.744 55.744 0 0 0-7.59-4.717 7.286 7.286 0 0 1 3.407 5.924c1.36.313 2.812.676 4.244 1.079.018-.274.04-.547.04-.825 0-.499-.04-.984-.101-1.462" fill="#006838"/><path d="M61.736 53.08c17.434-2.867 40.554-4.594 53.727-1.358l-5.79-6.16c39.587.708 50.699 11.966 50.699 11.966-11.311 3.046-17.598 13.464-17.598 13.464-33.486-26.386-53.726-5.065-53.726-5.065 2.731-1.391 7.205-1.922 12.517-1.432-4.51 3.397-4.52 9.01-4.52 12.03 0 10.324 6.029 14.916 6.029 14.916-7.214 3.972-17.271 9.31-19.817 19.512 9.666.904 26.67 5.854 35.708 10.946-19.533 4.075-27.988 16.707-27.988 16.707S80.636 75.326 25.6 64.518c0 0 19.011-8.617 36.136-11.439Zm-6.073-28.426 3.289-12.732h74.782l-3.293 12.732h-5.99s-11.308.014-14.685 13.067l-.127.495a220.887 220.887 0 0 0-20.156.176l8.541 5.235C87.41 42.4 77.18 42.181 68.372 42.412l1.215-4.69c3.372-13.054-7.934-13.068-7.934-13.068h-5.99Zm115.473 42.603c-7.911 2.477-15.78 8.83-20.287 14.665 0 0 4.254-.535 7.579-.254 9.975-4.203 29.775-10.442 32.398-.902 1.747 6.364-2.854 16.44-9.195 21.512-1.413-4.61-3.662-10.447-8.852-12.415-20.85-4.831-46.068 2.565-71.624 15.413 21.071 8.94 55.826 7.49 70.224 25.067-6.715-3.74-17.636-9.475-31.936-11.575-16.235-2.38-30.79-6.392-46.286-12.991 8.176-7.608 19.25-9.953 29.88-13.434-1.337.363-2.74.575-4.195.575-8.768 0-15.877-7.107-15.877-15.877 0-4.55 1.924-8.644 4.995-11.54 1.72.378 3.481.852 5.262 1.418 2.731.871 5.507 1.97 8.25 3.31a7.26 7.26 0 0 0-2.63-.506 7.319 7.319 0 0 0-7.317 7.318 7.313 7.313 0 0 0 7.317 7.315c3.409 0 6.247-2.334 7.06-5.484-4.068-2.837-6.219-3.365-6.219-3.365s2.89.464 6.453 1.28a7.286 7.286 0 0 0-3.407-5.924 55.744 55.744 0 0 1 7.59 4.716 51.24 51.24 0 0 1 4.254 3.515 15.879 15.879 0 0 1-9.57 12.584c7.213-2.49 14.127-5.699 19.67-11.664 7.062-7.263 15.26-16.435 26.463-12.757Zm-27.768 42.588c-7.254-.796-14.663-3.46-19.902-5.79.856-1.516 3.698-1.628 5.214-.77l14.688 6.56Zm-45.146 66.67c28.428 0 36.986-28.108 36.986-28.108h10.2l-12.936 40.846H13.122l3.292-12.737c17.301 0 20.677-13.063 20.677-13.063l18.655-72.18c11.411 11 21.753 26.474 27.713 48.235l-9.561 37.008h24.324Zm-49.866-91.67-19.16 74.135s-2.207 8.485-10.443 8.485h-9.05L1.733 198.3H138.67l18.67-58.943h-28.304c-2.216 8.567-7.263 28.107-28.475 28.107H85.288l4.274-16.54c9.247-10.81 40.55-40.022 89.098-9.987 0 0 5.28-26.749-39.816-42.853 0 0 9.08-4.632 18.717-4.632 22.162 0 19.044 22.331 19.044 22.331 6.792-5.162 26.212-18.322 22.978-34.51-2.502-17.124-27.252-7.515-21.115-23.487 0 0-18.35-15.55-59.916-19.03l.265-1.036c.83-3.21 1.889-3.893 3.538-4.01h14.799l7.97-30.84H52.24L44.27 33.71h17.303l-2.357 9.114c-11.196.72-18.471 1.97-18.471 1.97l7.832 4.946C32.75 52.071 16.658 57.467 0 64.518c0 0 24.922 1.978 48.356 20.328ZM156.213 193.042a4.138 4.138 0 0 1-4.138 4.133 4.136 4.136 0 1 1 4.137-4.133Zm-9.4 0a5.263 5.263 0 1 0 10.528-.007 5.263 5.263 0 0 0-10.528.007Z" fill="#5B2D05"/><path d="M151.041 191.158h1.41a.658.658 0 0 1 0 1.316h-1.41v-1.316Zm-1.128 4.888h1.128v-2.442h.81l1.142 2.442h1.244l-1.188-2.55a1.787 1.787 0 0 0-.598-3.469h-2.538v6.02Z" fill="#5B2D05"/></g></svg>