<svg width="200" height="200" xmlns="http://www.w3.org/2000/svg"><g fill="none"><path d="M130.319 76.19c.061.477.102.959.102 1.455 0 .277-.023.548-.04.82a92.142 92.142 0 0 0-4.245-1.072c-3.563-.812-6.453-1.274-6.453-1.274s2.151.525 6.219 3.348a57.9 57.9 0 0 1 3.583 2.72 11.583 11.583 0 0 1-10.643 6.98c-6.393 0-11.578-5.159-11.578-11.522 0-4.334 2.409-8.1 5.958-10.07a60.08 60.08 0 0 0-5.262-1.411c-3.07 2.881-4.995 6.954-4.995 11.48 0 8.727 7.11 15.798 15.877 15.798 1.455 0 2.858-.212 4.196-.573.67-.184 1.33-.392 1.964-.66 5.106-2.14 8.835-6.862 9.57-12.521a51.185 51.185 0 0 0-4.253-3.497" fill="#FFF"/><path d="M145.408 148.65h-10.2s-8.558 27.965-36.986 27.965H73.898l9.561-36.82c-5.96-21.65-16.302-37.045-27.713-47.99l-18.655 71.814s-3.376 12.996-20.677 12.996l-3.291 12.672h119.349l12.936-40.638M69.587 38.525l-1.215 4.667c8.808-.23 19.038-.013 29.652 1.209l-8.541-5.209c7.193-.383 13.895-.41 20.156-.175l.127-.492c3.377-12.987 14.686-13.001 14.686-13.001h5.99l3.292-12.667H58.952l-3.29 12.667h5.991s11.306.014 7.934 13m53.451 54.346c-10.632 3.463-21.705 5.796-29.881 13.365 15.496 6.566 30.05 10.557 46.286 12.925 14.3 2.09 25.22 7.796 31.936 11.517-14.398-17.488-49.153-16.045-70.224-24.94 25.556-12.783 50.775-20.142 71.624-15.335 5.19 1.958 7.439 7.766 8.852 12.352 6.341-5.046 10.942-15.07 9.195-21.402-2.623-9.493-22.423-3.285-32.398.897-3.325-.28-7.58.253-7.58.253 4.509-5.806 12.377-12.126 20.288-14.59-11.204-3.66-19.4 5.465-26.463 12.691-5.543 5.935-12.457 9.127-19.67 11.605-.635.269-1.295.477-1.965.661" fill="#CBA569"/><path d="M123.466 104.522c5.239 2.318 12.648 4.969 19.902 5.76l-14.688-6.527c-1.516-.852-4.358-.742-5.214.767" fill="#963A0E"/><path d="M109.673 46.326l5.79 6.128c-13.173-3.22-36.293-1.5-53.727 1.351C44.611 56.612 25.6 65.185 25.6 65.185c55.036 10.753 65.377 73.713 65.377 73.713s8.455-12.568 27.988-16.622c-9.037-5.067-26.042-9.991-35.708-10.89 2.546-10.151 12.603-15.462 19.817-19.414 0 0-6.028-4.568-6.028-14.841 0-3.003.008-8.588 4.519-11.968-5.312-.487-9.786.04-12.517 1.425 0 0 20.24-21.213 53.726 5.04 0 0 6.287-10.366 17.598-13.397 0 0-11.112-11.201-50.699-11.905" fill="#963A0E"/><path d="M118.842 84.923c-4.043 0-7.317-3.255-7.317-7.278 0-4.018 3.274-7.28 7.317-7.28.93 0 1.81.187 2.63.502a61.436 61.436 0 0 0-8.25-3.292c-3.549 1.97-5.958 5.736-5.958 10.07 0 6.363 5.185 11.522 11.578 11.522 4.776 0 8.87-2.877 10.643-6.98a58.062 58.062 0 0 0-3.583-2.72 7.287 7.287 0 0 1-7.06 5.456m11.477-8.733a55.792 55.792 0 0 0-7.59-4.691 7.242 7.242 0 0 1 3.407 5.894c1.36.31 2.812.672 4.244 1.072.018-.272.04-.543.04-.82 0-.496-.04-.978-.101-1.454" fill="#006838"/><path d="M61.736 53.805c17.434-2.852 40.554-4.57 53.727-1.35l-5.79-6.129c39.587.704 50.699 11.905 50.699 11.905-11.311 3.031-17.598 13.396-17.598 13.396-33.486-26.252-53.726-5.04-53.726-5.04 2.731-1.384 7.205-1.911 12.517-1.424-4.51 3.38-4.52 8.965-4.52 11.968 0 10.273 6.029 14.84 6.029 14.84-7.214 3.953-17.271 9.264-19.817 19.414 9.666.9 26.67 5.824 35.708 10.89-19.533 4.055-27.988 16.623-27.988 16.623S80.636 75.938 25.6 65.185c0 0 19.011-8.573 36.136-11.38zm-6.073-28.281l3.289-12.667h74.782l-3.293 12.667h-5.99s-11.308.014-14.685 13l-.127.493a222.013 222.013 0 0 0-20.156.175l8.541 5.209c-10.614-1.222-20.844-1.438-29.652-1.209l1.215-4.667c3.372-12.987-7.934-13.001-7.934-13.001h-5.99zm115.473 42.387c-7.911 2.465-15.78 8.785-20.287 14.59 0 0 4.254-.532 7.579-.252 9.975-4.182 29.775-10.39 32.398-.897 1.747 6.331-2.854 16.356-9.195 21.402-1.413-4.586-3.662-10.394-8.852-12.352-20.85-4.807-46.068 2.552-71.624 15.335 21.071 8.895 55.826 7.452 70.224 24.94-6.715-3.721-17.636-9.427-31.936-11.517-16.235-2.368-30.79-6.359-46.286-12.925 8.176-7.569 19.25-9.902 29.88-13.366a16.06 16.06 0 0 1-4.195.573c-8.768 0-15.877-7.071-15.877-15.797 0-4.527 1.924-8.6 4.995-11.481a60.08 60.08 0 0 1 5.262 1.411 61.436 61.436 0 0 1 8.25 3.292 7.293 7.293 0 0 0-2.63-.503c-4.043 0-7.317 3.263-7.317 7.28 0 4.024 3.274 7.279 7.317 7.279a7.287 7.287 0 0 0 7.06-5.456c-4.068-2.823-6.219-3.348-6.219-3.348s2.89.462 6.453 1.274a7.242 7.242 0 0 0-3.407-5.894 55.792 55.792 0 0 1 7.59 4.692 51.185 51.185 0 0 1 4.254 3.497c-.736 5.66-4.465 10.38-9.57 12.52 7.213-2.478 14.127-5.67 19.67-11.605 7.062-7.226 15.26-16.351 26.463-12.692zm-27.768 42.371c-7.254-.791-14.663-3.442-19.902-5.76.856-1.509 3.698-1.62 5.214-.767l14.688 6.527zm-45.146 66.333c28.428 0 36.986-27.966 36.986-27.966h10.2l-12.936 40.638H13.122l3.292-12.672c17.301 0 20.677-12.996 20.677-12.996l18.655-71.814c11.411 10.945 21.753 26.34 27.713 47.99l-9.561 36.82h24.324zM48.356 85.41l-19.16 73.758s-2.207 8.442-10.443 8.442h-9.05l-7.97 30.68H138.67l18.67-58.644h-28.304c-2.216 8.523-7.263 27.964-28.475 27.964H85.288l4.274-16.455c9.247-10.756 40.55-39.82 89.098-9.937 0 0 5.28-26.613-39.816-42.635 0 0 9.08-4.609 18.717-4.609 22.162 0 19.044 22.218 19.044 22.218 6.792-5.136 26.212-18.23 22.978-34.335-2.502-17.037-27.252-7.477-21.115-23.368 0 0-18.35-15.47-59.916-18.933l.265-1.031c.83-3.193 1.889-3.874 3.538-3.99h14.799l7.97-30.684H52.24l-7.97 30.683h17.303l-2.357 9.069c-11.196.717-18.471 1.96-18.471 1.96l7.832 4.921C32.75 52.802 16.658 58.171 0 65.185c0 0 24.922 1.968 48.356 20.225zm107.857 107.647c0 2.269-1.854 4.112-4.138 4.112s-4.134-1.843-4.134-4.112a4.125 4.125 0 0 1 4.134-4.118c2.284 0 4.138 1.845 4.138 4.118zm-9.4 0c0 2.889 2.357 5.233 5.262 5.233 2.908 0 5.265-2.344 5.265-5.233 0-2.895-2.357-5.24-5.265-5.24-2.905 0-5.262 2.345-5.262 5.24z" fill="#5B2D05"/><path d="M151.041 191.183h1.41a.654.654 0 1 1 0 1.31h-1.41v-1.31zm-1.128 4.864h1.128v-2.43h.81l1.142 2.43h1.244l-1.188-2.537a1.775 1.775 0 0 0-.598-3.451h-2.538v5.988z" fill="#5B2D05"/></g></svg>