<svg width="200" height="200" xmlns="http://www.w3.org/2000/svg"><g fill="none"><path d="M105.08 145.566c.11 2.052.187 3.527 4.73 3.527 1.513 0 2.787-.426 3.494-1.174.992-1.04 2.168-2.677 3.594-8.974l6.22-29.111c.088-.46.284-1.757-.093-2.216-.66-.798-2.977-1.562-5.279-1.75l-4.545-.374-7.65 35.347c-.494 2.505-.51 4.041-.472 4.725m-51.585-36.711h13.511c.025-.486-.014-.99-.232-1.248-.678-.801-2.938-1.548-5.263-1.739l-1.86-.152c-1.843.075-3.68.125-5.522.15l-.634 2.99" fill="#1A2749"/><path d="M135.289 35.617c-.086-.068-.278.03-.463.16a1.78 1.78 0 0 0-.344.275c-.03.029-.054.05-.069.068-.025.027-.048.061-.075.091l-.055.072a3.025 3.025 0 0 0-.49.964.853.853 0 0 0-.028.095c-.012.038-.027.077-.036.116-.004.013-.004.027-.009.04a4.094 4.094 0 0 0-.08.447 4.145 4.145 0 0 0-.03.408l.002.011a4.24 4.24 0 0 0 .491 2.023l.017.08c.421.812 1.132 1.639 2.233 2.4.121.085.24.164.357.24.524.33 1.007.546 1.453.672 1.127.318 2.008.05 2.657-.499-2.72-.117-4.853-3.583-2.883-5.98-.944-.497-1.894-1.068-2.648-1.683" fill="#FFF"/><path d="M142.85 36.846a25.52 25.52 0 0 0 3.02 1.187c.531.12 1.033.19 1.489.202 2.87.083 3.42-1.91 3.526-2.771.585-4.854-7.451-7.879-7.745-7.989a271.43 271.43 0 0 1-2.524-.905 72.478 72.478 0 0 0-10.137-2.887c9.964 4.149 12.786 8.861 12.37 13.163" fill="#C6C6C7"/><path d="M115.496 51.1c6.194-.745 9.245-4.018 9.118-7.851.127 3.833-2.924 7.104-9.118 7.852m45.044 25.174c2.946-.22 6.588-1.068 8.3-3.812.418-.67.711-1.573.627-2.38a63.094 63.094 0 0 0-1.694-.504c-6.85-1.936-13.831-2.19-20.596-1.185a43.89 43.89 0 0 0-2.676.487 17.338 17.338 0 0 0-4.367 1.937c1.565.402 3.6 1.114 5.98 1.943 1.266.443 2.604.91 3.983 1.368 1.353.452 2.75.898 4.164 1.31.51.142 1.483.397 2.765.667 1.266.205 2.436.249 3.515.169" fill="#FFF"/><path d="M174.28 71.794l.004-.01a64.805 64.805 0 0 0-4.817-1.7c.084.806-.209 1.71-.628 2.38-1.711 2.743-5.353 3.591-8.298 3.81-1.08.08-2.249.037-3.515-.168 1.065.226 2.347.458 3.766.644 2.868.376 5.224.089 8.52-.387 2.037-.294 4.387-1.122 6.17-2.03a13.275 13.275 0 0 0 1.933-1.194c-.453-.213-.89-.408-1.305-.589a62.491 62.491 0 0 0-1.83-.756" fill="#C6C6C7"/><path d="M164.034 61.427c-.265-.087-.53-.178-.794-.24.265.073.529.153.794.24" fill="#FFF"/><path d="M164.472 48.59s-5.802 4.008-5.921 2.2c-.124-1.812.352-3.927 4.565-4.002 4.214-.073 1.356 1.803 1.356 1.803zM181.5 58.904c-6.017-14.75-26.236-14.93-28.253-14.864l-.177.006c-1.206 1.61-5.72 6.48-12.572 10.66-3.112 1.897-6.706 3.65-10.693 4.896a40.289 40.289 0 0 1-8.877 1.726c-.748.132-1.475.253-2.181.37-1.868.31-3.573.595-5.046.973-4.078 1.042-6.394 2.789-5.479 7.756.95 5.157 4.71 5.955 9.018 5.048 2.7-.568 5.614-1.801 8.19-3.06.43-.18.882-.405 1.344-.65 1.665-.891 3.445-2.108 4.728-2.894 7.363-4.515 18.674-9.392 31.404-7.62l.334.045c12.694 1.59 21.677 5.986 18.26-2.392z" fill="#FFF"/><path d="M90.187 65.94c-2.183-2.007-5.301-3.619-9.377-4.333-4.304-.755-9.686-.746-15.1-.365.099.018 17.387-.197 15.721 9.052-.663 3.673-3.894 5.239-8.171 5.014a85.279 85.279 0 0 1 5.496 1.909c14.899 5.788 15.15-7.232 11.43-11.277" fill="#C6C6C7"/><path d="M190.821 87.658s-1.656-6.388-6.166-10.161c-1.074-.898-2.455-1.822-4.058-2.727-.28.628-4.348 4.427-10.862 6.593-3.95 1.315-8.796 2.03-14.245 1.073-1.962-.284-3.885-.614-5.787-1.071a38.747 38.747 0 0 1-3.483-1.007c-3.462-1.183-6.004-2.133-10.26-4.298-1.878 1.541-4.321 3.36-7.296 5.305l-69.326.001 1.925-9.053c3.733.733 7.858 1.706 11.997 2.995 4.277.225 7.508-1.34 8.171-5.014 1.666-9.25-15.622-9.034-15.72-9.052-.71.05-1.42.107-2.128.169l3.711-17.453h-54.89c8.287-3.18 16.255-6.875 25.53-11.218 25.091-11.752 49.708-19.388 77.203-17.71 3.036.184 6.022.498 8.542.778a98.91 98.91 0 0 1 8.634 1.341c10.558 2.146 19.103 6.206 25.394 12.066 1.293 1.207 2.493 2.633 3.564 4.24.557.837 1.08 1.71 1.55 2.59.103.193.224.507.362.875.163.423.493 1.288.676 1.494 1.807.358 12.366 1.914 18.3 7.158 2.932 2.454 7.823 7.165 10.6 13.83 3.376 8.105 3.116 17.624-1.938 28.256zm-77.62 17.836l4.545.374c2.302.188 4.62.952 5.28 1.75.376.459.18 1.756.092 2.216l-6.22 29.111c-1.426 6.297-2.602 7.934-3.594 8.974-.707.748-1.98 1.174-3.493 1.174-4.544 0-4.621-1.475-4.732-3.527-.037-.684-.022-2.22.472-4.725l7.65-35.347zm-53.551.222l1.86.152c2.325.191 4.585.938 5.263 1.74.218.258.257.76.232 1.247H53.494l.634-2.99c1.842-.024 3.679-.074 5.522-.15zm107.693-19.312l-12.865 59.342c-2.584 11.891-6.837 20.82-12.997 27.296-7.96 8.358-18.935 12.25-34.538 12.25-5.55 0-11.96-.934-18.048-2.633-9.73-2.711-17.387-9.168-21.012-17.713a25.767 25.767 0 0 1-.882-2.441c-1.527-4.6-2.01-9.77-1.441-15.377.037-.335.074-.66.112-.987l.225-1.949H5.947l8.794-41.33.914-4.298 1.43-6.718 3.037-14.281.811-3.813c.114-.522.19-1.002.236-1.449.148-1.377.017-2.404-.198-3.156a5.202 5.202 0 0 0-.737-1.572c-1.504-2.23-4.544-3.207-6.825-3.637l-6.697-.676.262-1.17 1.716-7.648 1.271-5.67H61.35l-2.8 13.163-2.013 9.463-2.154 10.127-2.008 9.435-2.27 10.669-.902 4.24-1.66 7.8h23.472l.65-3.213c.38-2.29.091-4.093-.872-5.502a5.887 5.887 0 0 0-.341-.461c-1.734-2.046-4.894-2.886-6.96-3.227a19.628 19.628 0 0 0-1.589-.2l-4.592-.374 3.256-14.513h51.884l-.942 4.35-1.094 5.062-9.573 44.228c-.457 2.329-.654 4.41-.57 6.008.181 3.466 1.371 8.08 9.54 8.08 2.867 0 5.345-.947 6.981-2.666 1.832-1.924 3.273-4.47 4.807-11.232l6.243-29.23c.757-3.978-.65-5.68-1.114-6.237-2.283-2.756-7.151-3.355-8.59-3.476l-4.588-.378 1.597-7.124 1.174-5.239.481-2.146h50.588l-.048.223zm29.337-28.638c-2.942-7.06-8.006-12.275-11.754-15.418-5.512-4.841-13.804-6.856-18.07-7.696a6.553 6.553 0 0 0-.288-.606 35.003 35.003 0 0 0-1.761-2.946 28.222 28.222 0 0 0-4.204-4.994c-6.873-6.403-16.108-10.816-27.445-13.12-2.85-.58-5.881-1.052-9.008-1.4-2.586-.288-5.649-.607-8.754-.798a129.38 129.38 0 0 0-6.44-.23c-22.768-.245-45.228 5.41-72.825 18.334-8.13 3.807-16.206 7.76-24.599 10.968a141.642 141.642 0 0 1-5.009 1.806L.825 67.507l11.881 1.198c2.229.45 3.256 1.17 3.521 1.543l.014.016c.29.431.184 1.559-.017 2.488l-.182.854-.97 4.564-2.81 13.203-1.339 6.292-.916 4.31L0 149.009h60.586c-.293 5.37.32 10.391 1.827 14.959a30.15 30.15 0 0 0 1.039 2.859c4.198 9.903 13 17.367 24.15 20.47 6.49 1.813 13.361 2.812 19.34 2.812 17.01 0 29.095-4.367 38.026-13.748 6.786-7.133 11.439-16.814 14.217-29.596l13.421-61.922a35.264 35.264 0 0 0 4.133-1.902 34.732 34.732 0 0 0 4.367-2.824 15.888 15.888 0 0 1 .823.638c1.512 1.265 2.628 2.993 3.4 4.516 1.701 2.881 3.497 7.121 4.495 13.093 0 0 8.077-12.15 9.244-24.23l.01-.082c.034-.37.06-.74.084-1.107.324-5.306-.497-10.415-2.482-15.179z" fill="#FFF"/><path d="M129.26 56.023a49.39 49.39 0 0 0 5.855-2.345 37.192 37.192 0 0 0 3.257-1.765c.24-.148.478-.297.71-.448a22.902 22.902 0 0 0 2.687-2.012c.342-.301.66-.606.955-.912.44-.459.823-.92 1.141-1.38a25.1 25.1 0 0 1-1.598.142l-.243.018c-.254.018-.514.038-.799.03a22.495 22.495 0 0 1-4.07-.507c-1.82 1.298-3.46 2.513-5.26 3.552-.033.02-.065.04-.1.059a22.643 22.643 0 0 1-6.658 2.553c-22.691 4.9-32.132-8.36-32.132-8.36 5.015 3.973 10.63 5.942 15.517 6.323.133-.004 10.26-.765 10.9-7.631.3-3.21-1.573-6.426-5.14-8.657-4.112-2.57-10.477-3.833-18.38-2.263a39.06 39.06 0 0 0-3.918 1.14c-.17.06-.305.11-.403.147-.12.045-.182.07-.182.07 3.825-3.094 9.988-6.488 19.075-6.498.21 0 .42.007.63.014a21.41 21.41 0 0 1 1.827.015c15.003.842 20.555 4.156 25.453 7.082 1.46.871 2.87 1.714 4.466 2.456.415-4.302-2.407-9.014-12.371-13.163-7.12-1.471-11.8-1.638-11.866-1.634h-.03l-.026-.002a120.39 120.39 0 0 0-13.582-.62s-6.507-.175-15.773 1.216a117.113 117.113 0 0 0-4.385.745c-1.44.274-2.928.586-4.45.94a102.008 102.008 0 0 0-7.836 2.158 87.654 87.654 0 0 0-9.72 3.736c-.722.329-1.44.67-2.158 1.025a73.604 73.604 0 0 0-5.32 2.9l.013.013c1.263-.353 20.024-5.708 35.794-6.051-5.088 1.672-11.458 5.014-17.273 12.216 29.131-10.42 37.348 1.207 39.315 4.984 0 0-13.586-9.701-25.37-2.89-.54.313-2.226 1.593-2.606 2.252-3.848 5.99 1.064 12.753 8.144 14.624 7.08 1.87 25.395-.892 25.395-.892a56.183 56.183 0 0 0 10.515-2.38" fill="#FFF"/><path d="M189.095 74.534s-1.51-2.35-5.416-5.169a38.109 38.109 0 0 0-4.148-2.588c-2.152-1.165-4.724-2.317-7.774-3.333-1.873-.729-4.158-1.382-7.299-1.949-.108-.02-.218-.034-.326-.053l-.098-.021v.006c-.265-.048-.53-.091-.794-.132l-.334-.045c-12.73-1.772-24.041 3.105-31.404 7.62-1.283.786-3.063 2.003-4.728 2.894-.462.245-.915.47-1.344.65-2.576 1.259-5.49 2.492-8.19 3.06-4.309.907-8.068.11-9.018-5.048-.915-4.967 1.4-6.714 5.48-7.756 1.472-.378 3.177-.663 5.045-.973.706-.117 1.433-.238 2.18-.37 3.131-.242 6.1-.861 8.878-1.726 3.987-1.245 7.58-3 10.693-4.896 6.852-4.18 11.366-9.05 12.572-10.66l.177-.006 1.208-.051c4.42-.188 7.613-.324 12.038.851 3.627.962 10.785 1.941 17.209 10.95.294.413.57.819.834 1.22v-.003c.349.507.667 1.03.963 1.563.976 1.691 1.634 3.24 1.961 4.616 1.836 5.797 1.635 11.35 1.635 11.35zm-13.614-.2c-1.782.907-4.132 1.735-6.169 2.029-3.296.476-5.652.763-8.52.387a48.566 48.566 0 0 1-3.766-.644 45.121 45.121 0 0 1-2.765-.667 112.497 112.497 0 0 1-4.164-1.31 258.01 258.01 0 0 1-3.983-1.368c-2.38-.829-4.415-1.541-5.98-1.943a17.338 17.338 0 0 1 4.367-1.937 43.89 43.89 0 0 1 2.676-.487c6.765-1.005 13.746-.751 20.596 1.185.572.16 1.136.33 1.694.504a64.805 64.805 0 0 1 4.817 1.7l-.004.01c.532.21 1.151.464 1.83.757.415.18.852.376 1.305.589-.61.454-1.255.85-1.934 1.195zM140.82 43.28c-.649.548-1.53.817-2.657.5a5.614 5.614 0 0 1-1.453-.673 12.257 12.257 0 0 1-.357-.24c-1.101-.761-1.812-1.588-2.233-2.4l-.017-.08a4.228 4.228 0 0 1-.49-2.023l-.004-.01a4.145 4.145 0 0 1 .111-.855c.005-.014.005-.028.009-.041.009-.04.024-.078.036-.116a3.025 3.025 0 0 1 .518-1.059l.055-.072c.027-.03.05-.064.075-.09.015-.018.039-.04.069-.069a1.78 1.78 0 0 1 .344-.275c.185-.13.377-.228.463-.16.754.615 1.704 1.186 2.648 1.683-1.97 2.397.164 5.863 2.883 5.98zM93.35 59.295c-7.08-1.87-11.992-8.633-8.144-14.624.38-.659 2.066-1.939 2.607-2.251 11.783-6.812 25.369 2.889 25.369 2.889-1.967-3.777-10.184-15.404-39.315-4.984 5.815-7.202 12.185-10.544 17.273-12.216-15.77.343-34.531 5.698-35.794 6.05l-.012-.013a73.604 73.604 0 0 1 5.319-2.9 74.711 74.711 0 0 1 2.159-1.024 87.654 87.654 0 0 1 9.719-3.736 102.008 102.008 0 0 1 7.837-2.157 110.207 110.207 0 0 1 5.875-1.203 112.39 112.39 0 0 1 2.96-.483c9.265-1.39 15.772-1.216 15.772-1.216 4.424-.052 8.954.15 13.582.62l.027.003.03-.001c.065-.004 4.746.163 11.865 1.634a72.478 72.478 0 0 1 10.137 2.887c.902.33 1.74.628 2.524.905.294.11 8.33 3.135 7.745 7.989-.105.862-.656 2.854-3.526 2.771a7.905 7.905 0 0 1-1.489-.202 25.546 25.546 0 0 1-3.02-1.187c-1.596-.742-3.006-1.585-4.466-2.456-4.898-2.926-10.45-6.24-25.453-7.082a21.41 21.41 0 0 0-1.827-.015c-.21-.007-.42-.014-.63-.014-9.087.01-15.25 3.404-19.075 6.498l.182-.07c.098-.037.232-.087.403-.146.736-.26 2.122-.715 3.918-1.141.06-.025 13.152-5.213 23.167 2.17 1.254.924 2.296 1.908 3.125 2.919 1.191 1.453 1.942 2.959 2.257 4.42.014.069.023.138.035.209.022.111.044.224.061.335a7.3 7.3 0 0 1 .067.776c.127 3.833-2.924 7.106-9.118 7.852-2 .242-4.327.22-6.98-.131l.006.001c-4.886-.38-10.502-2.35-15.517-6.323 0 0 9.44 13.26 32.132 8.36a22.643 22.643 0 0 0 6.658-2.553c.035-.019.067-.039.1-.059 1.8-1.04 3.44-2.254 5.26-3.552a22.495 22.495 0 0 0 4.07.506c.285.009.545-.01.799-.029l.243-.018a25.1 25.1 0 0 0 1.598-.142c-.318.46-.701.921-1.14 1.38-.296.306-.614.61-.956.912a22.902 22.902 0 0 1-2.688 2.012 30.745 30.745 0 0 1-1.327.815c-.827.483-1.708.951-2.64 1.398a49.39 49.39 0 0 1-5.854 2.345 56.183 56.183 0 0 1-10.515 2.38s-18.315 2.761-25.395.892zm88.808-13.723c-5.933-5.244-16.492-6.8-18.3-7.158-.182-.206-.512-1.071-.675-1.494-.138-.368-.26-.682-.363-.874a30.937 30.937 0 0 0-1.55-2.59c-1.07-1.608-2.27-3.034-3.563-4.24-6.291-5.86-14.836-9.921-25.394-12.067a98.91 98.91 0 0 0-8.634-1.341c-2.52-.28-5.506-.594-8.542-.778-27.495-1.678-52.112 5.958-77.203 17.71-9.275 4.343-17.243 8.038-25.53 11.218h54.89l-3.711 17.453a129.36 129.36 0 0 1 2.127-.169c5.414-.38 10.796-.39 15.1.365 4.076.714 7.194 2.326 9.377 4.333 3.718 4.045 3.468 17.065-11.431 11.277a85.279 85.279 0 0 0-5.496-1.91c-4.139-1.288-8.264-2.26-11.997-2.994l-1.925 9.053 69.326-.001c2.975-1.945 5.418-3.764 7.295-5.305 4.257 2.165 6.8 3.115 10.261 4.298 1.156.396 2.316.725 3.483 1.007 1.902.457 3.825.787 5.787 1.07 5.45.958 10.296.243 14.245-1.072 6.514-2.166 10.583-5.965 10.862-6.593 1.603.905 2.984 1.829 4.058 2.727 4.51 3.773 6.166 10.161 6.166 10.161 5.054-10.632 5.314-20.15 1.937-28.257-2.776-6.664-7.667-11.375-10.6-13.829z" fill="#1A2749"/><path d="M163.116 46.788c-4.213.075-4.689 2.19-4.565 4.001.12 1.81 5.921-2.198 5.921-2.198s2.858-1.876-1.356-1.803" fill="#1A2749"/><path d="M114.282 34.683c3.567 2.231 5.44 5.447 5.14 8.657-.64 6.866-10.767 7.627-10.9 7.631a.033.033 0 0 1-.005-.001c2.652.35 4.979.373 6.979.13 6.194-.747 9.245-4.018 9.118-7.851a7.18 7.18 0 0 0-.067-.776c-.017-.11-.04-.224-.061-.335-.012-.071-.021-.14-.035-.21-.315-1.46-1.066-2.966-2.257-4.42-.829-1.01-1.871-1.994-3.125-2.919-10.015-7.382-23.108-2.194-23.167-2.17 7.903-1.57 14.268-.307 18.38 2.264M185.5 58.569a19.124 19.124 0 0 0-.964-1.563v.004c-.264-.402-.54-.808-.834-1.221-6.424-9.009-13.582-9.988-17.209-10.95-4.425-1.175-7.617-1.039-12.038-.851l-1.208.05c2.017-.066 22.236.115 28.253 14.865 3.417 8.378-5.566 3.982-18.26 2.392.265.035.529.084.794.132v-.006l.098.02c.108.02.218.034.326.054 3.14.567 5.426 1.22 7.299 1.95 3.05 1.015 5.622 2.167 7.774 3.332 1.61.871 2.986 1.75 4.148 2.588 3.906 2.82 5.416 5.17 5.416 5.17s.201-5.553-1.635-11.35c-.327-1.376-.985-2.925-1.96-4.616" fill="#C6C6C7"/><path d="M88.554 145.137c-.05-4.313.672-7.866.672-7.866h-.007c-.078.394-.718 3.795-.665 7.866" fill="#1A2749"/><path d="M155.251 93.103h3.552l-11.087 51.175c-2.311 10.614-5.99 18.46-11.25 23.99-6.562 6.892-15.944 10.101-29.523 10.101a50.88 50.88 0 0 1-2.183-.053c-4.412-.205-9.3-1.01-14.007-2.326-5.338-1.487-9.863-4.363-13.074-8.182a22.2 22.2 0 0 1-3.42-5.566c-.841-1.987-2-5.661-.274-7.928 1.235-1.63 4.469-2.841 7.218-3.195a12.941 12.941 0 0 1 1.508-.102c.276 0 .509.003.712.006l.615.012 3.38.131c1.198.041 1.848.181 1.848.181-.007-.021-.01-.043-.016-.061-.01-.043-.016-.082-.024-.123a17.901 17.901 0 0 1-.955-5.007c-.12-2.206.117-4.816.703-7.771l.245-1.114H14.5l.617-2.918 6.483-30.472.904-4.245 1.553-7.298 3.257-15.312.39-1.83c.313-1.442.462-2.821.454-4.133a14.195 14.195 0 0 0-.431-3.448 12.498 12.498 0 0 0-1.75-3.91c-.892-1.32-1.982-2.386-3.168-3.26-1.523-1.117-3.207-1.905-4.843-2.46a23.746 23.746 0 0 0-2.802-.757l.342-1.532h37.292l-1.549 7.27-1.593 7.494-1.687 7.926-.546 2.566-2.005 9.428-.36 1.693-2 9.388-.895 4.213-2.554 12.001-.618 2.919h37.695l1.77-8.806.013-.077c.476-2.748.324-5.298-.425-7.558a12.367 12.367 0 0 0-2.209-4.007c-.032-.04-.064-.083-.097-.123a13.68 13.68 0 0 0-2.375-2.186c-2.397-1.756-5.196-2.702-7.601-3.195l.345-1.539h37.763l-.103.483-1.052 4.856-8.652 39.983c-.586 2.953-.824 5.566-.704 7.77.18 3.429 1.152 6.343 2.817 8.641 2.357 3.265 6.111 5.283 10.935 5.83.87.098 1.762.165 2.7.165 4.782 0 9.041-1.71 12-4.822 3.12-3.272 4.888-7.192 6.545-14.488l6.27-29.366c.92-4.728.036-8.887-2.565-12.026a13.337 13.337 0 0 0-2.414-2.262c-2.405-1.775-5.227-2.725-7.646-3.225l.342-1.539h32.908zm-26.225-6.922h-12.224l-.481 2.146-1.174 5.24-1.597 7.123 4.588.378c1.439.121 6.307.72 8.59 3.476.465.557 1.87 2.259 1.114 6.238l-6.243 29.229c-1.534 6.763-2.975 9.308-4.807 11.232-1.636 1.72-4.114 2.665-6.981 2.665-8.169 0-9.359-4.613-9.54-8.08-.084-1.596.113-3.678.57-6.007l9.573-44.228 1.094-5.061.942-4.351H60.566l-3.256 14.513 4.592.374c.353.03.912.087 1.59.2 2.065.34 5.225 1.18 6.959 3.227.123.148.233.303.341.46.963 1.41 1.252 3.213.872 5.503l-.65 3.213H47.542l1.66-7.8.902-4.24 2.27-10.67 2.008-9.434L56.536 71.4l2.012-9.463 2.8-13.162H9.962l-1.27 5.669-1.717 7.649-.262 1.169 6.697.676c2.281.43 5.321 1.407 6.825 3.637.172.257.504.751.737 1.572.215.752.346 1.78.198 3.156-.047.447-.122.927-.236 1.45l-.811 3.812-3.037 14.281-1.43 6.718-.914 4.297-8.794 41.331h59.95l-.225 1.95c-.038.326-.075.651-.112.986-.57 5.607-.086 10.778 1.441 15.377.26.847.552 1.654.882 2.44 3.625 8.546 11.282 15.003 21.012 17.714 6.089 1.7 12.498 2.634 18.048 2.634 15.603 0 26.578-3.893 34.538-12.25 6.16-6.476 10.413-15.406 12.997-27.297l12.865-59.342.048-.223h-38.365z" fill="#1A2749"/><path d="M123.499 93.103h-1.156l-.342 1.539c2.419.5 5.24 1.45 7.646 3.225a13.337 13.337 0 0 1 2.414 2.262c2.601 3.14 3.485 7.298 2.566 12.026l-6.271 29.366c-1.657 7.296-3.426 11.216-6.545 14.488-2.959 3.112-7.218 4.822-12 4.822-.938 0-1.83-.067-2.7-.166-.779.099-1.575.166-2.388.166-6.144 0-10.85-2.144-13.633-5.995a14.049 14.049 0 0 1-1.84-3.55c.006.018.009.04.016.061 0 0-.65-.14-1.847-.18l-3.381-.132-.615-.012a49.056 49.056 0 0 0-.712-.006c-.473 0-.981.04-1.508.102-2.75.354-5.983 1.564-7.218 3.195-1.726 2.267-.567 5.941.274 7.928a22.2 22.2 0 0 0 3.42 5.566c3.21 3.819 7.736 6.695 13.074 8.182 4.708 1.316 9.595 2.121 14.007 2.326 12.025-.438 20.535-3.657 26.616-10.049 5.264-5.53 8.94-13.375 11.251-23.99l11.09-51.174H123.5" fill="#971A1F"/><path d="M97.255 100.149l1.026-4.741.498-2.305H66.107l-.345 1.539c2.405.493 5.204 1.439 7.601 3.195a13.68 13.68 0 0 1 2.375 2.186c.033.04.065.083.097.123a12.367 12.367 0 0 1 2.209 4.007c.749 2.26.901 4.81.425 7.558l-.012.077-1.77 8.806H33.903l.62-2.919 2.613-12.282.892-4.198 1.867-8.773.057-.267 3.071-14.44.059-.268 1.55-7.287 1.334-6.277 1.742-8.187H15.506l-.342 1.532c.89.184 1.838.431 2.802.757 1.636.555 3.32 1.343 4.843 2.46 1.186.874 2.276 1.94 3.167 3.26a12.488 12.488 0 0 1 1.75 3.91c.28 1.09.423 2.24.432 3.448a18.948 18.948 0 0 1-.454 4.133l-.39 1.83-3.257 15.312-1.553 7.298-.904 4.245-6.483 30.472-.618 2.918h74.72c.003-.025.007-.04.007-.04l-.007.04h.007l8.029-37.122" fill="#971A1F"/><path d="M104.723 160.831c.813 0 1.61-.067 2.388-.166-4.824-.546-8.578-2.564-10.935-5.829-1.665-2.298-2.638-5.212-2.817-8.641-.12-2.204.118-4.817.704-7.77l8.652-39.983 1.052-4.856.103-.483h-5.091l-.498 2.305-1.026 4.74-8.029 37.123s-.723 3.553-.672 7.866c-.053-4.071.587-7.472.665-7.866l-.245 1.114c-.586 2.955-.822 5.565-.703 7.77.093 1.82.426 3.49.955 5.008.008.04.014.08.024.123a14.049 14.049 0 0 0 1.84 3.55c2.782 3.851 7.489 5.995 13.633 5.995" fill="#FFF"/><path d="M89.219 137.27l.013-.07s-.008.025-.013.07M44.632 70.16l-1.55 7.287-.058.269-3.07 14.44-.058.266-1.867 8.773-.892 4.198-2.613 12.282-.62 2.919h5.087l.618-2.919 2.554-12 .895-4.214 2-9.388.36-1.693 2.005-9.428.546-2.566 1.687-7.926 1.593-7.493 1.549-7.27h-5.089l-1.742 8.186-1.335 6.277m86.744 98.107c-6.081 6.392-14.591 9.611-26.616 10.05.742.03 1.472.052 2.183.052 13.579 0 22.96-3.21 29.523-10.102 5.26-5.53 8.939-13.375 11.25-23.99l11.087-51.174h-5.086l-11.09 51.175c-2.31 10.614-5.987 18.46-11.25 23.99" fill="#FFF"/></g></svg>