<svg width="200" height="200" xmlns="http://www.w3.org/2000/svg"><g fill="none"><path d="M182.412 114.15h-50.27l-5.202 32.051H99.3v-94.43l22.411-6.554V1.064H17V46.77l9.711 1.09a72.808 72.808 0 0 1 11.45 2.222v98.744L17 155.38v44.268h165.412V114.15" fill="#22174B"/><path d="M136.23 157.146H88.378V43.56l22.412-6.556V12.01H27.926v24.966C48.8 39.32 62.86 49.04 63.35 49.353c-2.405-.16-4.809-.226-7.21-.226-2.352 0-4.705.067-7.052.168v107.6l-21.16 6.558V188.7H171.49v-63.61h-30.058l-5.201 32.056" fill="#FAB20B"/></g></svg>