<svg width="200" height="200" xmlns="http://www.w3.org/2000/svg"><g fill-rule="nonzero" fill="none"><path d="M181.412 114.15h-50.27l-5.202 32.051H98.3v-94.43l22.411-6.554V1.064H16V46.77l9.711 1.09a72.808 72.808 0 0 1 11.45 2.222v98.744L16 155.38v44.268h165.412V114.15" fill="#22174B"/><path d="M135.23 157.146H87.378V43.56l22.412-6.556V12.01H26.926v24.966C47.8 39.32 61.86 49.04 62.35 49.353c-2.405-.16-4.809-.226-7.21-.226-2.352 0-4.705.067-7.052.168v107.6l-21.16 6.558V188.7H170.49V125.09h-30.058l-5.201 32.056" fill="#FAB20B"/></g></svg>