<svg width="200" height="200" xmlns="http://www.w3.org/2000/svg"><g fill="none"><path d="M158.658 157.382a2.62 2.62 0 0 1-.064.772c-.146 1.328-.574 2.614-1.24 3.7l-.17.278c-.612 1.006-1.247 2.048-2.14 2.949-1.565 1.578-3.484 3.02-6.04 4.538-1.144.68-2.334 1.283-3.448 1.835-.31.153-.62.31-.93.465-.832.421-1.694.856-2.582 1.244-2.228.973-4.687 1.816-7.311 2.507-5.179 1.362-10.325 2.06-15.3 2.073h-.28c-4.905-.013-10.062-.65-15.765-1.947-1.955-.445-4.045-1.02-6.39-1.758-.91-.288-1.824-.56-2.738-.833-1.148-.343-2.335-.697-3.5-1.077l-1.488-.483.643-1.425c1.19-2.637 2.016-4.854 2.598-6.979a77.7 77.7 0 0 0 .875-3.604c.043-.193.088-.385.133-.577.088-.373.171-.727.236-1.077.01-.051.012-.106.017-.16.151-1.742 1.35-1.973 1.857-1.992 1.65-.06 3.265-.114 4.911-.118 4.087-.01 7.197.3 10.084 1.01 3.589.88 8.583 2.76 11.997 6.712.45.52.849 1.061 1.195 1.62-.03-2.294-.078-4.658-.606-6.948-.565-2.453-1.48-4.489-2.717-6.05a5.656 5.656 0 0 0-.4-.425c-.666-.664-1.905-1.9-1.238-3.574.222-.556.554-.995.847-1.382.09-.119.18-.236.262-.356.325-.47.634-.983.918-1.522 1.026-1.948 1.763-4.177 2.192-6.627.259-1.48.356-2.978.382-4.495-2.245 3.812-6 6.122-8.929 7.429-2.11.942-4.42 1.662-7.062 2.202-2.294.469-4.616.681-6.862.887l-1.008.093c-.62.059-1.225.117-1.814.193l-.124.016c-.199.026-.399.052-.596.086l-.054.011c-.14.028-.349.071-.594.072a1.78 1.78 0 0 1-1.013-.294c-.358-.24-.768-.71-.7-1.598a48.39 48.39 0 0 0-.067-.848 41.432 41.432 0 0 0-.21-1.931 39.436 39.436 0 0 0-.297-1.765c-.122-.664-.249-1.35-.337-2.051a71.414 71.414 0 0 0-.574-3.778 160.772 160.772 0 0 0-.752-3.823c-.022-.103-.05-.209-.076-.314-.124-.476-.292-1.127-.134-1.858.14-.643.598-1.502 1.994-1.93 2.373-.726 4.923-1.48 7.498-2.068a73.568 73.568 0 0 1 15.739-1.857l.4-.001c5.256-.014 10.409.564 15.314 1.715a62.21 62.21 0 0 1 7.509 2.278c1.982.74 4.576 1.767 7.057 3.146 4.22 2.348 7.298 5.753 8.665 9.59 1.095 3.071.939 5.668-.464 7.717-.666.971-1.596 1.852-2.844 2.693a11.81 11.81 0 0 1-.837.508 14.351 14.351 0 0 1 2.955 1.976c2.254 1.941 3.511 4.61 3.417 7.21zm-67.8-95.933l.073-.027c.341-.134.679-.277 1.016-.42.28-.117.559-.235.84-.348 1.36-.548 2.74-.947 3.792-1.234a53.365 53.365 0 0 1 7.808-1.5 58.887 58.887 0 0 1 15.912.305c5.56.874 10.118 2.443 13.938 4.795.903.557 2.055 1.338 2.943 2.455.815 1.026 1.404 2.299 1.704 3.682.538 2.484-.014 5.23-1.515 7.536a12.5 12.5 0 0 1-3.249 3.36c.807.355 1.573.762 2.289 1.218 2.288 1.458 3.907 3.328 4.681 5.41.9 2.417.585 5.245-.843 7.567-1.36 2.21-3.468 3.714-5.162 4.923a38.646 38.646 0 0 1-6.59 3.765c-4.345 1.952-9.316 3.255-14.777 3.874-2.535.287-5.16.43-8.025.437a87.648 87.648 0 0 1-1.918-.015c-2.982-.054-6.492-.189-9.914-.781l-1.434-.249.302-1.424c2.076-9.752 2.056-20.062-.055-29.816-.36-1.666-.834-3.425-1.491-5.537l-.352-1.143c-.393-1.291-.803-2.62-1.28-3.874-.016-.064-.343-1.392-.031-1.907a2.56 2.56 0 0 1 .595-.667 3.06 3.06 0 0 1 .743-.385zm86.41 86.792l-.02-.015-.1-.075-.086-.092c-.124-.132-.274-.269-.432-.414-.241-.22-.515-.47-.77-.772a9.895 9.895 0 0 1-1.17-1.737c-.608-1.144-.977-2.336-1.334-3.489l-.032-.106a60.981 60.981 0 0 0-2.624-6.971c-2.059-4.568-4.458-8.166-7.334-10.999-2.64-2.6-5.85-4.962-10.1-7.433-4.146-2.41-8.06-4.237-11.968-5.584l-2.489-.858 2.102-1.585c.547-.413 1.11-.794 1.655-1.163.48-.325.935-.632 1.378-.958a41.299 41.299 0 0 0 2.787-2.247c1.98-1.747 3.49-3.43 4.617-5.147.464-.706.868-1.455 1.298-2.247.17-.315.341-.63.516-.943.499-.894.953-1.897 1.43-3.156.368-.971.744-2.052 1.184-3.404.122-.377.23-.764.342-1.173.216-.778.438-1.582.79-2.38 1.069-2.433 2.473-4.397 4.173-5.837l.024-.02a21.572 21.572 0 0 1-2.47-2.872c-1.438-2.024-2.406-4.262-3.344-6.425l-.105-.244c-.72-1.661-1.735-3.817-3.201-5.76-2.285-3.026-5.428-5.789-9.89-8.694-4.194-2.73-8.511-4.834-12.833-6.252-5.408-1.776-11.352-2.668-17.664-2.652-3.935.01-8.058.374-12.257 1.082-2.479.418-5 .943-7.492 1.561-1.153.286-2.384.606-3.573 1.01-.52.178-1.06.384-1.605.612-.142.06-.284.127-.427.193-.492.229-1.05.488-1.707.593-.16.026-.32.04-.477.04-1.55.004-2.426-1.154-3.005-1.92a9.066 9.066 0 0 0-.324-.415 40.914 40.914 0 0 0-2.427-2.607c-1.879-1.874-3.585-3.429-5.216-4.753a54.714 54.714 0 0 0-5.646-4.021c-1.389-.86-2.875-1.643-4.312-2.402-.503-.265-1.007-.53-1.508-.8a84.356 84.356 0 0 1 3.817 5.147c5.882 8.6 9.892 17.629 11.918 26.837 2.145 9.748 1.929 19.925-.625 29.428a58.67 58.67 0 0 1-5.811 13.993c-.613 1.065-1.236 2.056-1.987 3.24l-.127.2c-.26.414-.554.884-.933 1.317a7.94 7.94 0 0 1-.285.303l-.127.134.034.037c.389.435.765.916 1.182 1.515a116.87 116.87 0 0 1 2.15 3.211c2.388 3.677 4.334 7.464 5.784 11.258 1.41 3.688 2.836 8.076 2.72 12.656l-.04 1.546-1.535-.192c-2.36-.295-5.124-.72-7.734-1.642a25.497 25.497 0 0 1-6.637-3.492c-3.744-2.759-6.68-6.563-8.267-10.713-1.881-4.918-1.922-10.296-1.957-15.041-.043-5.922.285-11.116 1.002-15.881.911-6.037 2.305-10.36 4.52-14.016.79-1.303 1.544-2.298 2.377-3.13a8.944 8.944 0 0 1 1.244-1.063c-.478-.36-.927-.758-1.37-1.214-.81-.835-1.57-1.802-2.325-2.958-2.904-4.44-4.172-9.655-4.954-13.702-.896-4.644-1.49-9.628-1.865-15.686-.703-11.316.589-20.801 3.95-28.997 1.916-4.674 4.45-8.646 7.53-11.806a26.016 26.016 0 0 1 3.337-2.88 44.36 44.36 0 0 0-2.31.086c-4.83.31-9.098 1.519-12.685 3.596a27.322 27.322 0 0 0-2.678 1.797c-.465.349-.8.63-1.088.915a4.821 4.821 0 0 0-.336.392c-.203.253-.433.54-.74.806-.425.37-.93.565-1.461.567-1.077.003-1.858-.778-2.374-1.295-.105-.105-.202-.205-.293-.28a23.846 23.846 0 0 0-2.725-1.971A23.48 23.48 0 0 0 33.68 5.01c-2.012-.547-4.226-.85-7.181-.984-1.01-.045-1.95-.07-2.858-.075.478.33.952.68 1.42 1.048 8.42 6.608 11.954 16.092 13.436 22.886.903 4.143 1.376 8.758 1.486 14.522.106 5.474-.095 10.782-.596 15.779a87.19 87.19 0 0 1-1.133 7.835c-.407 2.104-1 4.864-1.982 7.55-.906 2.48-2.175 4.506-3.771 6.02-.511.484-1 .89-1.495 1.24a4.702 4.702 0 0 1-.199.134c1.94 1.271 3.204 3.185 4.003 4.554 1.146 1.965 2.138 4.212 2.948 6.68 1.717 5.231 2.44 10.714 2.879 14.905.566 5.412.78 10.75.637 15.863-.16 5.687-.912 10.672-2.3 15.24-1.639 5.39-4.054 9.693-7.178 12.79a22.898 22.898 0 0 1-4.135 3.223c1.802-.12 3.757-.31 5.677-.665a24.335 24.335 0 0 0 6.569-2.21 28.076 28.076 0 0 0 5.722-3.88c.076-.066.152-.145.232-.226.312-.316.7-.71 1.253-.937.233-.096.48-.144.733-.145.814-.002 1.418.476 1.818.791.06.049.116.094.168.13.624.426 1.327.779 2.07 1.152.345.174.688.346 1.025.527 3.925 2.099 8.63 4.433 13.773 5.83 2.547.69 5.129 1.212 7.318 1.63.596.114 1.192.226 1.788.337l.257.047c.213.037.428.076.639.123l.1.01c.447.041 1.06.099 1.503.6.468.528.413 1.156.395 1.362l.02.884c.013.608.022 1.215.031 1.822l.003.16c.023 1.508-.08 2.79-.324 4.034a48.76 48.76 0 0 1-.943 3.877c-.742 2.624-1.536 5-2.427 7.264-1.752 4.449-4.014 8.875-6.915 13.529a112.982 112.982 0 0 1-3.625 5.419 60.418 60.418 0 0 0 10.874-7.464c.99-.853 1.949-1.725 2.757-2.465l2.035-1.873c.2-.216.671-.724 1.442-.726.227 0 .45.044.663.134 2.148.898 4.472 1.833 6.912 2.59a151.03 151.03 0 0 0 14.95 3.824c5.547 1.11 10.558 1.673 15.316 1.72 2.639.028 5.225-.11 7.607-.405 2.265-.281 4.7-.786 7.443-1.54 10.252-2.82 18.895-7.17 25.693-12.931 3.307-2.803 6.08-6.055 8.242-9.664a42.992 42.992 0 0 0 2.84-5.67c.4-.972.772-1.973 1.105-2.978.143-.429.269-.863.396-1.297.185-.632.375-1.287.615-1.937.81-2.2 2.013-3.98 3.575-5.292.338-.285.71-.566 1.105-.837-.256-.21-.529-.414-.822-.634z" fill="#231F20"/><path d="M155.849 157.521a5.984 5.984 0 0 0-.018.168v.007l-.002.012c-.092.99-.389 1.918-.858 2.682l-.172.283c-.555.909-1.077 1.767-1.74 2.435-1.392 1.405-3.133 2.709-5.48 4.101-1.063.632-2.195 1.206-3.26 1.733-.317.157-.633.316-.948.476-.837.421-1.626.82-2.442 1.177-2.096.914-4.419 1.711-6.903 2.365-4.948 1.302-9.858 1.969-14.593 1.981h-.266c-4.697-.013-9.652-.627-15.15-1.878-1.88-.428-3.899-.983-6.17-1.699-.924-.29-1.852-.568-2.78-.845-.644-.192-1.301-.388-1.958-.59.921-2.163 1.602-4.082 2.113-5.948.37-1.35.68-2.706.908-3.736.04-.18.083-.362.125-.543.084-.355.17-.72.242-1.097a126.62 126.62 0 0 1 4.058-.09c3.85-.01 6.752.277 9.41.93 3.192.783 7.613 2.428 10.544 5.822a9.408 9.408 0 0 1 1.445 2.218l.07.156c.317.71.976 2.19 2.473 2.31.059.005.116.007.172.007.331-.001 1.988-.13 2.04-2.604.009-.442-.017-.864-.042-1.27-.017-.274-.034-.547-.038-.818-.03-2.402-.066-5.124-.68-7.788-.66-2.86-1.753-5.27-3.25-7.162a7.667 7.667 0 0 0-.62-.668c-.18-.18-.468-.466-.573-.639.095-.187.262-.408.439-.642.115-.151.229-.303.334-.455.388-.562.755-1.172 1.09-1.809 1.162-2.205 1.995-4.711 2.473-7.45.465-2.653.459-5.254.41-7.907a16.063 16.063 0 0 1-.002-.369c0-.486.002-1.037-.125-1.609-.203-.92-.956-1.848-2.002-1.845-.52.001-1.01.237-1.38.664-.511.59-.568 1.308-.601 1.737-.006.077-.01.15-.02.22a5.97 5.97 0 0 1-.418 1.413c-1.312 3.086-4.263 5.782-8.311 7.589-1.921.858-4.041 1.517-6.481 2.016-2.142.438-4.286.633-6.556.842l-1.015.093c-.644.06-1.274.122-1.906.204l-.002-.02a44.313 44.313 0 0 0-.225-2.063 41.325 41.325 0 0 0-.318-1.896 34.936 34.936 0 0 1-.314-1.899 74.801 74.801 0 0 0-.595-3.924 169.71 169.71 0 0 0-.766-3.891c-.03-.148-.069-.297-.107-.447a5.93 5.93 0 0 1-.092-.387l.06-.02c2.322-.71 4.814-1.447 7.302-2.015a70.755 70.755 0 0 1 15.137-1.787h.384c5.039-.014 9.974.538 14.667 1.64a59.481 59.481 0 0 1 7.17 2.175c1.89.706 4.356 1.682 6.674 2.97 3.625 2.017 6.25 4.887 7.389 8.082.787 2.21.742 3.908-.137 5.192-.462.674-1.148 1.313-2.099 1.953-.43.29-.908.535-1.414.794-.336.172-.672.346-1.024.545-.287.163-.958.543-1.163 1.298-.114.417-.056.852.16 1.224.387.667 1.07.842 1.396.926l.173.045c.25.064.468.12.655.195 1.053.421 2.115 1.078 3.072 1.903 1.683 1.45 2.592 3.403 2.431 5.227zm-.602-7.35a14.362 14.362 0 0 0-2.954-1.975c.278-.155.558-.322.836-.508 1.249-.84 2.179-1.722 2.844-2.693 1.403-2.049 1.56-4.646.464-7.717-1.367-3.837-4.444-7.242-8.665-9.59-2.48-1.379-5.074-2.406-7.057-3.146a62.21 62.21 0 0 0-7.509-2.278c-4.905-1.151-10.057-1.73-15.315-1.715l-.4.001a73.565 73.565 0 0 0-15.737 1.857c-2.576.588-5.126 1.342-7.499 2.068-1.396.427-1.854 1.287-1.994 1.93-.158.73.01 1.382.134 1.858.027.105.055.21.076.314.233 1.125.505 2.459.753 3.823.205 1.13.393 2.366.573 3.778.089.701.215 1.387.337 2.05.112.61.218 1.185.297 1.766a48.617 48.617 0 0 1 .277 2.78c-.068.887.342 1.357.7 1.597a1.78 1.78 0 0 0 1.013.294c.246 0 .455-.044.594-.072l.054-.011c.197-.034.397-.06.596-.086l.124-.016a53.379 53.379 0 0 1 1.815-.193l1.008-.093c2.245-.206 4.567-.418 6.861-.887 2.642-.54 4.952-1.26 7.062-2.202 2.929-1.307 6.684-3.617 8.929-7.43-.026 1.518-.123 3.015-.382 4.496-.428 2.45-1.166 4.68-2.192 6.627a15.004 15.004 0 0 1-.918 1.522c-.082.12-.171.237-.261.356-.293.387-.626.826-.847 1.382-.668 1.675.571 2.91 1.236 3.574.16.16.312.311.402.424 1.237 1.562 2.151 3.598 2.717 6.051.527 2.29.575 4.654.605 6.949a12.81 12.81 0 0 0-1.194-1.621c-3.415-3.953-8.41-5.832-11.998-6.712-2.887-.71-5.997-1.02-10.084-1.01a145.9 145.9 0 0 0-4.91.118c-.509.019-1.706.25-1.858 1.992-.005.054-.008.109-.017.16-.065.35-.147.704-.236 1.077-.045.192-.09.384-.133.577-.222 1-.521 2.313-.875 3.604-.582 2.125-1.407 4.342-2.598 6.979l-.643 1.425 1.487.483c1.167.38 2.353.734 3.501 1.077.914.272 1.828.545 2.738.833 2.345.738 4.435 1.313 6.39 1.758 5.703 1.297 10.86 1.934 15.765 1.947h.28c4.975-.012 10.122-.71 15.3-2.073 2.624-.69 5.083-1.534 7.311-2.507.889-.388 1.75-.823 2.583-1.244.31-.155.619-.312.93-.465 1.113-.552 2.303-1.155 3.447-1.835 2.556-1.518 4.475-2.96 6.04-4.538.893-.901 1.528-1.943 2.141-2.95l.17-.277c.665-1.086 1.093-2.372 1.24-3.7.05-.226.085-.5.063-.772.094-2.6-1.162-5.269-3.417-7.21zM90.716 63.45c.042.07.046.08.04.07-.017-.021-.098-.15-.04-.07zm2.327.136c.265-.112.53-.224.798-.332 1.225-.494 2.504-.863 3.481-1.13a50.557 50.557 0 0 1 7.397-1.42c5.032-.59 10.19-.49 15.15.29 5.186.816 9.407 2.26 12.905 4.413.709.437 1.601 1.037 2.218 1.812.55.691.95 1.567 1.16 2.533.38 1.758-.03 3.73-1.125 5.413a9.725 9.725 0 0 1-1.998 2.206 8.92 8.92 0 0 1-1.165.806c-.124.071-.26.137-.397.204-.391.19-.834.407-1.231.758a1.511 1.511 0 0 0-.49 1.484c.23 1.017 1.284 1.316 2.054 1.534l.101.028c1.088.384 2.1.872 3.008 1.45 1.234.786 2.854 2.123 3.561 4.024.601 1.615.376 3.53-.603 5.121-.984 1.6-2.51 2.76-4.402 4.11a35.901 35.901 0 0 1-6.113 3.49c-4.08 1.834-8.77 3.06-13.943 3.646-2.432.276-4.956.412-7.716.42a82.47 82.47 0 0 1-1.861-.015c-2.576-.046-5.311-.146-8.062-.52a74.443 74.443 0 0 0-.351-29.541l-1.554-5.776a166.79 166.79 0 0 1-.347-1.13c-.36-1.182-.732-2.397-1.165-3.59.23-.094.46-.191.69-.288zM89.52 62.5c-.283.467-.04 1.604.02 1.86.485 1.268.899 2.614 1.298 3.92.117.383.233.765.351 1.144.657 2.111 1.13 3.87 1.491 5.537a71.568 71.568 0 0 1 .056 29.816l-.303 1.424 1.434.249c3.422.592 6.932.727 9.914.781.64.012 1.28.017 1.919.015 2.865-.007 5.49-.15 8.024-.437 5.461-.62 10.433-1.922 14.777-3.874a38.634 38.634 0 0 0 6.59-3.765c1.694-1.21 3.803-2.714 5.163-4.923 1.427-2.322 1.742-5.15.842-7.567-.774-2.082-2.393-3.952-4.68-5.41a16.982 16.982 0 0 0-2.29-1.218 12.51 12.51 0 0 0 3.249-3.36c1.502-2.305 2.054-5.052 1.515-7.536-.3-1.383-.889-2.656-1.704-3.682-.888-1.117-2.04-1.898-2.943-2.455-3.82-2.352-8.379-3.92-13.938-4.795a58.886 58.886 0 0 0-15.912-.306 53.317 53.317 0 0 0-7.808 1.501c-1.05.287-2.432.686-3.791 1.234-.282.113-.561.23-.841.349-.337.142-.674.285-1.016.419l-.073.027a2.88 2.88 0 0 0-.835.456c-.16.14-.354.34-.51.596zm87.472 87.211c-1.562 1.312-2.764 3.092-3.575 5.292-.24.65-.43 1.305-.615 1.937-.127.434-.253.868-.395 1.297a45.3 45.3 0 0 1-1.106 2.977 42.943 42.943 0 0 1-2.84 5.67c-2.161 3.61-4.935 6.862-8.242 9.665-6.797 5.76-15.441 10.11-25.693 12.93-2.744.755-5.178 1.26-7.442 1.54-2.382.297-4.97.434-7.608.406-4.758-.047-9.768-.61-15.316-1.72a150.994 150.994 0 0 1-14.95-3.825c-2.44-.756-4.764-1.691-6.912-2.59a1.693 1.693 0 0 0-.663-.133c-.77.002-1.241.51-1.442.726l-2.035 1.873c-.808.74-1.768 1.612-2.757 2.465a60.415 60.415 0 0 1-10.874 7.464 112.714 112.714 0 0 0 3.625-5.42c2.901-4.653 5.163-9.08 6.915-13.528a76.543 76.543 0 0 0 2.427-7.264c.401-1.42.71-2.689.943-3.877.244-1.244.346-2.526.324-4.034l-.003-.16a209.03 209.03 0 0 0-.052-2.706c.019-.206.074-.834-.394-1.362-.444-.501-1.055-.559-1.503-.6l-.1-.01a14.883 14.883 0 0 0-.64-.123l-.255-.047c-.596-.11-1.193-.223-1.789-.336-2.19-.42-4.771-.94-7.318-1.631-5.142-1.397-9.848-3.731-13.772-5.83-.337-.18-.681-.353-1.025-.527-.744-.373-1.447-.726-2.071-1.152a2.787 2.787 0 0 1-.168-.13c-.4-.315-1.004-.793-1.818-.791-.254 0-.5.05-.733.145-.553.226-.941.62-1.253.937-.08.08-.155.16-.232.227a28.079 28.079 0 0 1-5.722 3.879 24.343 24.343 0 0 1-6.57 2.21c-1.918.355-3.875.544-5.676.665a22.878 22.878 0 0 0 4.135-3.223c3.124-3.097 5.54-7.4 7.178-12.79 1.389-4.568 2.14-9.553 2.3-15.24.144-5.113-.071-10.45-.637-15.863-.439-4.191-1.162-9.674-2.879-14.904-.81-2.469-1.802-4.716-2.948-6.68-.8-1.37-2.062-3.284-4.003-4.555a4.73 4.73 0 0 0 .2-.133c.494-.351.983-.757 1.494-1.24 1.596-1.515 2.865-3.541 3.771-6.021.981-2.686 1.575-5.446 1.982-7.55.479-2.47.86-5.106 1.133-7.835.501-4.997.702-10.305.596-15.779-.11-5.764-.583-10.379-1.487-14.522C37.021 21.092 33.487 11.608 25.068 5a29.4 29.4 0 0 0-1.42-1.048c.907.004 1.847.03 2.857.075 2.955.134 5.17.437 7.18.984a23.472 23.472 0 0 1 6.239 2.72 23.75 23.75 0 0 1 2.725 1.971c.09.076.187.176.293.281.516.517 1.297 1.298 2.373 1.295a2.226 2.226 0 0 0 1.463-.567c.306-.266.536-.553.74-.806.12-.15.233-.291.335-.392.288-.285.624-.566 1.088-.915A27.247 27.247 0 0 1 51.62 6.8c3.587-2.077 7.855-3.287 12.686-3.596.74-.047 1.5-.076 2.309-.086A25.989 25.989 0 0 0 63.276 6c-3.08 3.16-5.613 7.132-7.53 11.806-3.36 8.196-4.652 17.68-3.95 28.997.377 6.058.97 11.042 1.866 15.686.782 4.047 2.05 9.262 4.954 13.702.755 1.156 1.516 2.123 2.325 2.958.442.456.892.855 1.37 1.214-.4.276-.802.62-1.244 1.062-.832.833-1.588 1.828-2.377 3.131-2.214 3.657-3.609 7.979-4.52 14.016-.717 4.765-1.045 9.959-1.002 15.88.036 4.746.075 10.124 1.957 15.042 1.587 4.15 4.523 7.954 8.266 10.713a25.5 25.5 0 0 0 6.638 3.492c2.61.922 5.374 1.347 7.734 1.642l1.535.192.04-1.546c.116-4.58-1.31-8.968-2.72-12.656-1.45-3.794-3.396-7.58-5.784-11.258-.62-.953-1.359-2.08-2.15-3.211a15.682 15.682 0 0 0-1.181-1.515l-.035-.038.128-.133a7.88 7.88 0 0 0 .284-.303c.379-.433.674-.903.934-1.317l.126-.2c.751-1.184 1.374-2.175 1.987-3.24a58.664 58.664 0 0 0 5.81-13.993c2.555-9.503 2.771-19.68.626-29.428-2.026-9.208-6.035-18.237-11.918-26.837a84.024 84.024 0 0 0-3.817-5.147c.501.27 1.004.535 1.507.8 1.438.759 2.924 1.542 4.313 2.402a54.676 54.676 0 0 1 5.646 4.021c1.63 1.324 3.337 2.879 5.217 4.753.979.977 1.75 1.806 2.427 2.607.109.13.215.271.323.414.58.767 1.455 1.925 3.005 1.92.157 0 .317-.013.477-.039.657-.105 1.215-.364 1.707-.593.143-.066.286-.133.428-.193a25.174 25.174 0 0 1 1.605-.611c1.188-.405 2.419-.725 3.572-1.01a100.788 100.788 0 0 1 7.492-1.562c4.199-.708 8.322-1.072 12.257-1.082 6.313-.016 12.256.876 17.664 2.652 4.322 1.418 8.64 3.521 12.833 6.252 4.462 2.905 7.605 5.668 9.89 8.694 1.467 1.943 2.481 4.099 3.201 5.76l.105.244c.938 2.163 1.906 4.4 3.345 6.425a21.635 21.635 0 0 0 2.47 2.872l-.024.02c-1.7 1.44-3.105 3.404-4.175 5.837-.35.798-.573 1.602-.789 2.38-.112.409-.22.796-.342 1.173a76.085 76.085 0 0 1-1.183 3.404c-.478 1.26-.932 2.262-1.431 3.156-.175.312-.345.628-.516.943-.43.792-.834 1.54-1.298 2.247-1.126 1.717-2.636 3.4-4.616 5.147a41.299 41.299 0 0 1-2.788 2.247c-.443.326-.897.633-1.377.958-.545.369-1.108.75-1.656 1.163l-2.102 1.585 2.49.858c3.906 1.347 7.822 3.174 11.968 5.584 4.25 2.471 7.46 4.833 10.1 7.433 2.875 2.833 5.274 6.43 7.333 10.999a60.981 60.981 0 0 1 2.624 6.971l.033.106c.356 1.153.725 2.345 1.333 3.49a9.895 9.895 0 0 0 1.17 1.736c.255.302.529.552.77.772.159.145.308.282.432.414l.086.091.1.076.021.015c.293.22.566.425.822.634-.395.27-.766.552-1.105.837zm3.357-2.603l-.079-.065c-.328-.29-.666-.555-1.01-.816a2.092 2.092 0 0 0-.396-.338 16.312 16.312 0 0 0-.34-.315c-.194-.178-.378-.346-.516-.509a7.132 7.132 0 0 1-.838-1.244c-.483-.91-.797-1.928-1.13-3.004l-.034-.106a63.657 63.657 0 0 0-2.745-7.293c-2.204-4.89-4.795-8.764-7.922-11.844-2.813-2.77-6.2-5.267-10.658-7.86-3.41-1.982-6.678-3.586-9.917-4.867.283-.195.568-.395.849-.602a43.972 43.972 0 0 0 2.978-2.401c2.17-1.915 3.84-3.783 5.107-5.712.528-.805.98-1.641 1.418-2.45.165-.304.33-.61.499-.911.567-1.017 1.077-2.138 1.604-3.53a77.587 77.587 0 0 0 1.227-3.529c.142-.437.263-.872.38-1.293.196-.713.383-1.386.652-1.999.898-2.04 2.048-3.664 3.421-4.827l.093-.079c.407-.339 1.02-.852 1.254-1.667.314-1.092-.601-1.908-1.148-2.394-.04-.036-.074-.065-.092-.083a18.794 18.794 0 0 1-2.08-2.43c-1.268-1.785-2.137-3.791-3.057-5.916l-.106-.244c-.781-1.804-1.89-4.155-3.535-6.335-2.488-3.293-5.855-6.266-10.598-9.354-4.397-2.862-8.935-5.072-13.488-6.566-5.693-1.869-11.933-2.808-18.546-2.791-4.087.01-8.365.387-12.715 1.12-2.548.43-5.139.97-7.7 1.605-1.214.301-2.513.64-3.802 1.078-.58.198-1.182.427-1.786.68-.175.074-.35.154-.524.236-.359.167-.697.324-1.01.372-.151 0-.565-.546-.763-.809a12.63 12.63 0 0 0-.416-.53 43.633 43.633 0 0 0-2.59-2.785c-1.948-1.942-3.724-3.56-5.43-4.944a57.368 57.368 0 0 0-5.937-4.228c-1.47-.911-3-1.718-4.48-2.498-.69-.364-1.38-.728-2.066-1.103-.413-.226-1.488-.753-2.519-.75-.315.001-.611.05-.88.145-.43.152-1.397.69-1.124 2.402.14.872.526 1.44.925 1.922a80.97 80.97 0 0 1 4.353 5.792c5.679 8.3 9.546 17 11.494 25.856 2.05 9.312 1.844 19.028-.594 28.099a55.87 55.87 0 0 1-5.535 13.324c-.583 1.016-1.19 1.98-1.923 3.134l-.134.212c-.225.358-.437.696-.668.961-.058.066-.121.13-.185.195-.33.339-.827.85-.989 1.624-.246 1.186.527 2.048.818 2.372.31.347.619.743.97 1.247.768 1.1 1.491 2.202 2.098 3.135 2.28 3.511 4.137 7.122 5.517 10.732 1.144 2.992 2.3 6.462 2.508 10.013-1.838-.271-3.728-.645-5.546-1.288a22.685 22.685 0 0 1-5.91-3.107c-3.316-2.443-5.913-5.802-7.31-9.457-1.701-4.445-1.737-9.333-1.772-14.06-.043-5.774.275-10.826.97-15.444.853-5.653 2.132-9.656 4.146-12.981.67-1.105 1.293-1.932 1.962-2.602.386-.387.706-.652 1.005-.835.037-.022.086-.046.14-.075.511-.264 2.066-1.069 1.58-2.581-.26-.816-.973-1.266-1.444-1.563-.074-.047-.145-.09-.202-.132a8.684 8.684 0 0 1-1.174-1.021c-.685-.706-1.336-1.537-1.992-2.541-2.636-4.032-3.816-8.905-4.548-12.7-.873-4.523-1.452-9.394-1.82-15.329-.676-10.884.55-19.965 3.745-27.76 1.78-4.34 4.116-8.011 6.944-10.913 1.493-1.532 3.244-2.88 5.354-4.12.681-.401 1.068-1.133.986-1.866-.078-.698-.569-1.271-1.28-1.498C69.856.317 69.38.298 69.02.3c-.161 0-.324.005-.484.01-.125.005-.247.01-.365.01h-.06a56.807 56.807 0 0 0-.977-.006 49.23 49.23 0 0 0-3.01.095c-5.265.337-9.946 1.672-13.91 3.968a30.096 30.096 0 0 0-2.954 1.98c-.563.422-1 .791-1.377 1.163-.218.215-.396.437-.554.633l-.11.138c-.108-.1-.219-.21-.297-.288a7.256 7.256 0 0 0-.475-.449 26.704 26.704 0 0 0-3.046-2.202 26.28 26.28 0 0 0-6.982-3.045c-2.218-.603-4.62-.935-7.788-1.079a73.383 73.383 0 0 0-3.495-.078l-.447.002c-.449.005-.897.013-1.346.02l-.573.01-.179-.001a8.706 8.706 0 0 0-.25-.003c-.359 0-.83.028-1.301.236-.59.259-.965.775-1.005 1.38-.044.683.343 1.324 1.063 1.76.301.183.606.327.875.454.215.1.418.196.59.297.93.546 1.863 1.185 2.774 1.9 7.764 6.094 11.043 14.935 12.426 21.279.865 3.96 1.317 8.402 1.424 13.979.103 5.363-.093 10.56-.583 15.445a84.252 84.252 0 0 1-1.096 7.582c-.388 2.002-.95 4.621-1.863 7.12-.757 2.071-1.789 3.736-3.068 4.95-.412.39-.8.714-1.186.987a5.752 5.752 0 0 1-.408.251c-.365.212-.82.476-1.2.88-.404.43-.58.974-.496 1.53.158 1.05 1.163 1.62 1.646 1.895l.041.023c1.227.701 2.314 1.911 3.42 3.807 1.048 1.795 1.958 3.861 2.707 6.143 1.633 4.978 2.33 10.269 2.754 14.322.553 5.29.763 10.502.623 15.493-.152 5.432-.865 10.176-2.18 14.503-1.502 4.94-3.68 8.849-6.47 11.615-1.48 1.468-3.294 2.749-5.39 3.807-.465.235-.964.471-1.45.687l-.087.031c-.655.236-1.645.593-1.9 1.53a1.528 1.528 0 0 0 .306 1.397c.515.622 1.26.646 1.54.655l.053.002c.332.022.665.036.996.043.675.013 1.342 0 2.122-.038 2.338-.116 5.097-.304 7.835-.81a27.153 27.153 0 0 0 7.325-2.466 30.923 30.923 0 0 0 6.295-4.265c.127-.11.256-.24.388-.374l.064-.064.007.005c.117.092.228.178.328.246.778.53 1.597.943 2.39 1.341.323.163.646.324.962.494 4.063 2.174 8.947 4.594 14.36 6.063 2.637.716 5.285 1.25 7.526 1.68.6.114 1.201.227 1.802.339l.28.05c.113.02.226.04.34.062l.004.218c.013.6.022 1.202.031 1.804l.003.16c.02 1.308-.067 2.405-.272 3.453a45.95 45.95 0 0 1-.89 3.654 73.49 73.49 0 0 1-2.338 7c-1.689 4.288-3.875 8.564-6.685 13.072-1.169 1.876-2.528 3.886-4.276 6.326-.12.167-.241.331-.362.496-.19.256-.378.513-.56.773-.544.782-.548 1.442-.456 1.857.116.52.446.961.929 1.24a2.19 2.19 0 0 0 1.12.296c.81-.003 1.487-.412 1.983-.712.105-.064.203-.125.291-.17a63.447 63.447 0 0 0 12.79-8.547 129.586 129.586 0 0 0 2.817-2.518l1.826-1.674c2.027.84 4.203 1.693 6.505 2.407a153.736 153.736 0 0 0 15.228 3.895c5.722 1.145 10.903 1.726 15.84 1.776 2.764.025 5.474-.116 7.98-.427 2.4-.299 4.965-.829 7.84-1.62 10.648-2.927 19.652-7.468 26.761-13.494 3.543-3.003 6.516-6.489 8.836-10.363a45.664 45.664 0 0 0 3.026-6.042 48.2 48.2 0 0 0 1.174-3.163c.153-.46.29-.927.426-1.394a26.84 26.84 0 0 1 .555-1.754c.64-1.736 1.564-3.12 2.747-4.114.284-.238.601-.477.943-.71l.141-.092c.471-.305 1.26-.816 1.497-1.693.315-1.163-.659-1.956-1.026-2.254z" fill="#FBC31A"/></g></svg>