<svg width="200" height="200" xmlns="http://www.w3.org/2000/svg"><g fill-rule="nonzero" fill="none"><path d="M158.625 157.382a2.62 2.62 0 0 1-.064.772c-.145 1.328-.574 2.614-1.24 3.7l-.169.278c-.613 1.006-1.248 2.048-2.141 2.949-1.564 1.578-3.484 3.02-6.04 4.538-1.144.68-2.334 1.283-3.448 1.835-.31.153-.62.31-.93.465-.832.421-1.693.856-2.582 1.244-2.228.973-4.687 1.816-7.31 2.507-5.18 1.362-10.326 2.06-15.3 2.073h-.28c-4.906-.013-10.063-.65-15.765-1.947-1.956-.445-4.046-1.02-6.39-1.758-.91-.288-1.825-.56-2.74-.833-1.147-.343-2.333-.697-3.5-1.077l-1.487-.483.644-1.425c1.19-2.637 2.015-4.854 2.597-6.979a77.7 77.7 0 0 0 .875-3.604c.044-.193.088-.385.134-.577.087-.373.17-.727.235-1.077.01-.051.012-.106.017-.16.152-1.742 1.35-1.973 1.857-1.992 1.65-.06 3.266-.114 4.911-.118 4.087-.01 7.197.3 10.084 1.01 3.59.88 8.583 2.76 11.998 6.712.449.52.848 1.061 1.195 1.62-.03-2.294-.079-4.658-.607-6.948-.565-2.453-1.48-4.489-2.717-6.05a5.656 5.656 0 0 0-.4-.425c-.666-.664-1.905-1.9-1.237-3.574.221-.556.553-.995.846-1.382.09-.119.18-.236.262-.356.325-.47.634-.983.918-1.522 1.026-1.948 1.764-4.177 2.192-6.627.259-1.48.356-2.978.382-4.495-2.245 3.812-6 6.122-8.929 7.429-2.11.942-4.42 1.662-7.062 2.202-2.293.469-4.616.681-6.861.887l-1.009.093c-.62.059-1.225.117-1.813.193l-.125.016c-.198.026-.399.052-.596.086l-.054.011c-.139.028-.348.071-.594.072a1.78 1.78 0 0 1-1.013-.294c-.358-.24-.768-.71-.7-1.598-.02-.282-.042-.566-.067-.848a41.432 41.432 0 0 0-.21-1.931c-.079-.581-.185-1.157-.297-1.765-.122-.664-.248-1.35-.337-2.051a71.414 71.414 0 0 0-.574-3.778c-.247-1.364-.519-2.698-.752-3.823-.021-.103-.049-.209-.076-.314-.124-.476-.292-1.127-.134-1.858.14-.643.598-1.502 1.994-1.93 2.373-.726 4.923-1.48 7.499-2.068a73.568 73.568 0 0 1 15.738-1.857l.4-.001c5.256-.014 10.409.564 15.314 1.715a62.21 62.21 0 0 1 7.51 2.278c1.982.74 4.575 1.767 7.056 3.146 4.22 2.348 7.298 5.753 8.666 9.59 1.095 3.071.938 5.668-.465 7.717-.665.971-1.595 1.852-2.844 2.693a11.81 11.81 0 0 1-.836.508 14.351 14.351 0 0 1 2.954 1.976c2.254 1.941 3.511 4.61 3.417 7.21Zm-67.8-95.933.073-.027c.342-.134.679-.277 1.016-.42.28-.117.56-.235.84-.348 1.36-.548 2.741-.947 3.792-1.234a53.365 53.365 0 0 1 7.808-1.5 58.887 58.887 0 0 1 15.912.305c5.56.874 10.118 2.443 13.938 4.795.904.557 2.055 1.338 2.943 2.455.815 1.026 1.404 2.299 1.704 3.682.539 2.484-.014 5.23-1.515 7.536a12.5 12.5 0 0 1-3.249 3.36c.807.355 1.573.762 2.289 1.218 2.288 1.458 3.907 3.328 4.681 5.41.9 2.417.585 5.245-.842 7.567-1.36 2.21-3.468 3.714-5.163 4.923a38.646 38.646 0 0 1-6.59 3.765c-4.345 1.952-9.316 3.255-14.777 3.874-2.535.287-5.16.43-8.024.437-.64.002-1.279-.003-1.919-.015-2.982-.054-6.492-.189-9.914-.781l-1.434-.249.302-1.424c2.076-9.752 2.057-20.062-.055-29.816-.36-1.666-.834-3.425-1.491-5.537l-.352-1.143c-.393-1.291-.803-2.62-1.28-3.874-.016-.064-.342-1.392-.031-1.907.185-.307.424-.53.595-.667a3.06 3.06 0 0 1 .743-.385Zm86.41 86.792-.02-.015-.1-.075-.086-.092c-.124-.132-.274-.269-.432-.414-.241-.22-.515-.47-.77-.772a9.895 9.895 0 0 1-1.17-1.737c-.608-1.144-.977-2.336-1.334-3.489l-.032-.106a60.981 60.981 0 0 0-2.624-6.971c-2.059-4.568-4.457-8.166-7.333-10.999-2.641-2.6-5.85-4.962-10.1-7.433-4.147-2.41-8.062-4.237-11.969-5.584l-2.489-.858 2.102-1.585c.548-.413 1.11-.794 1.655-1.163.481-.325.935-.632 1.378-.958a41.299 41.299 0 0 0 2.787-2.247c1.98-1.747 3.49-3.43 4.617-5.147.464-.706.869-1.455 1.298-2.247.17-.315.341-.63.516-.943.499-.894.953-1.897 1.43-3.156.368-.971.744-2.052 1.184-3.404.122-.377.23-.764.342-1.173.216-.778.438-1.582.79-2.38 1.069-2.433 2.474-4.397 4.173-5.837l.025-.02a21.572 21.572 0 0 1-2.47-2.872c-1.438-2.024-2.407-4.262-3.345-6.425l-.105-.244c-.72-1.661-1.734-3.817-3.201-5.76-2.285-3.026-5.428-5.789-9.89-8.694-4.194-2.73-8.511-4.834-12.833-6.252-5.408-1.776-11.352-2.668-17.664-2.652-3.935.01-8.058.374-12.257 1.082-2.479.418-4.999.943-7.492 1.561-1.153.286-2.384.606-3.572 1.01-.52.178-1.06.384-1.605.612-.142.06-.285.127-.428.193-.492.229-1.05.488-1.707.593-.16.026-.32.04-.477.04-1.55.004-2.426-1.154-3.005-1.92-.108-.144-.214-.285-.323-.415a40.914 40.914 0 0 0-2.428-2.607c-1.879-1.874-3.585-3.429-5.216-4.753a54.714 54.714 0 0 0-5.646-4.021c-1.389-.86-2.875-1.643-4.312-2.402-.503-.265-1.006-.53-1.508-.8a84.356 84.356 0 0 1 3.817 5.147c5.882 8.6 9.893 17.629 11.919 26.837 2.145 9.748 1.928 19.925-.626 29.428a58.67 58.67 0 0 1-5.811 13.993c-.612 1.065-1.236 2.056-1.987 3.24l-.127.2c-.26.414-.554.884-.932 1.317a7.94 7.94 0 0 1-.285.303l-.128.134.034.037c.39.435.765.916 1.183 1.515.79 1.132 1.53 2.258 2.149 3.211 2.388 3.677 4.334 7.464 5.785 11.258 1.41 3.688 2.836 8.076 2.719 12.656l-.04 1.546-1.535-.192c-2.36-.295-5.124-.72-7.733-1.642a25.497 25.497 0 0 1-6.638-3.492c-3.744-2.759-6.68-6.563-8.267-10.713-1.881-4.918-1.922-10.296-1.957-15.041-.043-5.922.285-11.116 1.003-15.881.91-6.037 2.305-10.36 4.52-14.016.788-1.303 1.543-2.298 2.376-3.13a8.944 8.944 0 0 1 1.244-1.063c-.478-.36-.927-.758-1.37-1.214-.81-.835-1.57-1.802-2.325-2.958-2.903-4.44-4.172-9.655-4.954-13.702-.896-4.644-1.49-9.628-1.865-15.686-.703-11.316.59-20.801 3.95-28.997 1.916-4.674 4.45-8.646 7.53-11.806a26.016 26.016 0 0 1 3.337-2.88 44.36 44.36 0 0 0-2.31.086c-4.83.31-9.097 1.519-12.685 3.596a27.322 27.322 0 0 0-2.677 1.797c-.465.349-.8.63-1.089.915a4.821 4.821 0 0 0-.336.392c-.203.253-.433.54-.74.806-.425.37-.93.565-1.461.567-1.077.003-1.858-.778-2.374-1.295-.105-.105-.202-.205-.293-.28a23.846 23.846 0 0 0-2.725-1.971 23.48 23.48 0 0 0-6.238-2.721c-2.011-.547-4.226-.85-7.181-.984-1.01-.045-1.95-.07-2.858-.075.478.33.952.68 1.42 1.048 8.42 6.608 11.954 16.092 13.436 22.886.904 4.143 1.376 8.758 1.487 14.522.105 5.474-.095 10.782-.596 15.779a87.19 87.19 0 0 1-1.134 7.835c-.407 2.104-1 4.864-1.982 7.55-.906 2.48-2.175 4.506-3.771 6.02-.51.484-1 .89-1.495 1.24a4.702 4.702 0 0 1-.199.134c1.94 1.271 3.204 3.185 4.003 4.554 1.146 1.965 2.138 4.212 2.948 6.68 1.717 5.231 2.44 10.714 2.88 14.905.565 5.412.78 10.75.636 15.863-.159 5.687-.911 10.672-2.3 15.24-1.639 5.39-4.053 9.693-7.178 12.79a22.898 22.898 0 0 1-4.134 3.223c1.8-.12 3.757-.31 5.676-.665a24.335 24.335 0 0 0 6.569-2.21 28.076 28.076 0 0 0 5.723-3.88c.076-.066.152-.145.231-.226.312-.316.7-.71 1.253-.937.233-.096.48-.144.733-.145.814-.002 1.418.476 1.818.791.06.049.116.094.168.13.625.426 1.327.779 2.07 1.152.345.174.688.346 1.026.527 3.925 2.099 8.63 4.433 13.772 5.83 2.547.69 5.129 1.212 7.319 1.63.595.114 1.191.226 1.788.337l.256.047c.214.037.428.076.64.123l.1.01c.446.041 1.058.099 1.502.6.468.528.413 1.156.395 1.362.007.293.015.589.02.884.013.608.023 1.215.031 1.822l.003.16c.023 1.508-.08 2.79-.324 4.034a48.76 48.76 0 0 1-.943 3.877c-.742 2.624-1.536 5-2.427 7.264-1.752 4.449-4.013 8.875-6.915 13.529a112.982 112.982 0 0 1-3.625 5.419 60.418 60.418 0 0 0 10.875-7.464c.988-.853 1.948-1.725 2.757-2.465l2.034-1.873c.201-.216.672-.724 1.442-.726.228 0 .45.044.663.134 2.148.898 4.472 1.833 6.913 2.59a151.03 151.03 0 0 0 14.949 3.824c5.547 1.11 10.558 1.673 15.316 1.72 2.639.028 5.226-.11 7.608-.405 2.264-.281 4.699-.786 7.442-1.54 10.252-2.82 18.896-7.17 25.693-12.931 3.308-2.803 6.08-6.055 8.243-9.664a42.992 42.992 0 0 0 2.84-5.67c.4-.972.77-1.973 1.104-2.978.143-.429.269-.863.396-1.297.185-.632.375-1.287.615-1.937.81-2.2 2.013-3.98 3.575-5.292.338-.285.71-.566 1.105-.837-.256-.21-.528-.414-.822-.634Z" fill="#231F20"/><path d="M155.816 157.521a5.984 5.984 0 0 0-.018.168v.007l-.002.012c-.092.99-.389 1.918-.857 2.682l-.173.283c-.554.909-1.077 1.767-1.74 2.435-1.392 1.405-3.133 2.709-5.48 4.101-1.063.632-2.194 1.206-3.26 1.733-.316.157-.633.316-.948.476-.836.421-1.626.82-2.442 1.177-2.096.914-4.418 1.711-6.903 2.365-4.948 1.302-9.858 1.969-14.593 1.981h-.266c-4.697-.013-9.652-.627-15.15-1.878-1.88-.428-3.899-.983-6.17-1.699-.924-.29-1.852-.568-2.78-.845-.644-.192-1.301-.388-1.958-.59.922-2.163 1.602-4.082 2.113-5.948.37-1.35.68-2.706.908-3.736.04-.18.083-.362.126-.543.083-.355.169-.72.241-1.097a126.62 126.62 0 0 1 4.058-.09c3.85-.01 6.752.277 9.41.93 3.192.783 7.613 2.428 10.544 5.822a9.408 9.408 0 0 1 1.446 2.218l.07.156c.316.71.975 2.19 2.472 2.31.059.005.116.007.172.007.331-.001 1.989-.13 2.04-2.604.009-.442-.017-.864-.042-1.27-.017-.274-.034-.547-.037-.818-.031-2.402-.066-5.124-.68-7.788-.66-2.86-1.754-5.27-3.251-7.162a7.667 7.667 0 0 0-.62-.668c-.18-.18-.467-.466-.573-.639.095-.187.262-.408.439-.642.115-.151.229-.303.334-.455.388-.562.755-1.172 1.09-1.809 1.163-2.205 1.995-4.711 2.474-7.45.464-2.653.458-5.254.41-7.907a16.063 16.063 0 0 1-.003-.369c0-.486.002-1.037-.125-1.609-.203-.92-.956-1.848-2.001-1.845-.52.001-1.011.237-1.38.664-.512.59-.569 1.308-.602 1.737-.006.077-.01.15-.02.22a5.97 5.97 0 0 1-.418 1.413c-1.311 3.086-4.263 5.782-8.311 7.589-1.921.858-4.041 1.517-6.481 2.016-2.142.438-4.286.633-6.555.842l-1.016.093c-.643.06-1.274.122-1.906.204 0-.007 0-.014-.002-.02a44.313 44.313 0 0 0-.225-2.063 41.325 41.325 0 0 0-.318-1.896 34.936 34.936 0 0 1-.313-1.899 74.801 74.801 0 0 0-.596-3.924c-.253-1.394-.53-2.748-.766-3.891-.03-.148-.068-.297-.107-.447a5.93 5.93 0 0 1-.091-.387l.06-.02c2.321-.71 4.813-1.447 7.3-2.015a70.755 70.755 0 0 1 15.138-1.787h.384c5.04-.014 9.974.538 14.667 1.64a59.481 59.481 0 0 1 7.17 2.175c1.89.706 4.356 1.682 6.674 2.97 3.626 2.017 6.25 4.887 7.389 8.082.787 2.21.742 3.908-.137 5.192-.462.674-1.148 1.313-2.098 1.953-.431.29-.909.535-1.415.794-.336.172-.671.346-1.023.545-.287.163-.96.543-1.164 1.298-.114.417-.056.852.16 1.224.387.667 1.07.842 1.396.926l.173.045c.251.064.468.12.655.195 1.053.421 2.115 1.078 3.072 1.903 1.683 1.45 2.592 3.403 2.431 5.227Zm-.601-7.35a14.362 14.362 0 0 0-2.955-1.975c.278-.155.558-.322.836-.508 1.249-.84 2.179-1.722 2.845-2.693 1.402-2.049 1.559-4.646.464-7.717-1.368-3.837-4.445-7.242-8.665-9.59-2.481-1.379-5.075-2.406-7.057-3.146a62.21 62.21 0 0 0-7.51-2.278c-4.905-1.151-10.057-1.73-15.314-1.715l-.4.001a73.565 73.565 0 0 0-15.738 1.857c-2.576.588-5.126 1.342-7.498 2.068-1.396.427-1.855 1.287-1.995 1.93-.158.73.01 1.382.134 1.858.027.105.055.21.077.314.233 1.125.504 2.459.752 3.823.206 1.13.393 2.366.573 3.778.089.701.216 1.387.337 2.05.112.61.218 1.185.297 1.766.08.59.149 1.222.21 1.93.025.283.048.567.068.85-.069.887.342 1.357.7 1.597a1.78 1.78 0 0 0 1.013.294c.245 0 .454-.044.593-.072l.054-.011c.197-.034.398-.06.596-.086l.125-.016a53.379 53.379 0 0 1 1.814-.193l1.008-.093c2.245-.206 4.568-.418 6.862-.887 2.641-.54 4.952-1.26 7.061-2.202 2.929-1.307 6.685-3.617 8.93-7.43-.026 1.518-.124 3.015-.383 4.496-.428 2.45-1.165 4.68-2.192 6.627-.284.539-.592 1.051-.918 1.522-.081.12-.171.237-.261.356-.293.387-.626.826-.847 1.382-.668 1.675.571 2.91 1.237 3.574.16.16.312.311.4.424 1.238 1.562 2.152 3.598 2.718 6.051.527 2.29.575 4.654.606 6.949a12.81 12.81 0 0 0-1.195-1.621c-3.414-3.953-8.409-5.832-11.998-6.712-2.887-.71-5.997-1.02-10.083-1.01a145.9 145.9 0 0 0-4.912.118c-.508.019-1.705.25-1.857 1.992-.005.054-.007.109-.017.16-.064.35-.147.704-.235 1.077-.046.192-.09.384-.134.577-.221 1-.521 2.313-.875 3.604-.582 2.125-1.407 4.342-2.597 6.979l-.644 1.425 1.487.483c1.167.38 2.354.734 3.501 1.077.914.272 1.828.545 2.739.833 2.344.738 4.434 1.313 6.39 1.758 5.702 1.297 10.86 1.934 15.764 1.947h.281c4.974-.012 10.12-.71 15.3-2.073 2.623-.69 5.082-1.534 7.31-2.507.889-.388 1.75-.823 2.583-1.244.31-.155.62-.312.93-.465 1.113-.552 2.303-1.155 3.447-1.835 2.556-1.518 4.476-2.96 6.04-4.538.894-.901 1.528-1.943 2.142-2.95l.169-.277c.665-1.086 1.094-2.372 1.24-3.7.05-.226.085-.5.063-.772.094-2.6-1.162-5.269-3.416-7.21ZM90.683 63.45c.042.07.046.08.04.07-.017-.021-.098-.15-.04-.07Zm2.327.136c.265-.112.53-.224.798-.332 1.225-.494 2.504-.863 3.481-1.13a50.557 50.557 0 0 1 7.397-1.42c5.032-.59 10.19-.49 15.15.29 5.187.816 9.408 2.26 12.905 4.413.709.437 1.602 1.037 2.218 1.812.55.691.95 1.567 1.16 2.533.381 1.758-.029 3.73-1.125 5.413a9.725 9.725 0 0 1-1.998 2.206 8.92 8.92 0 0 1-1.165.806c-.123.071-.26.137-.397.204-.39.19-.834.407-1.23.758a1.511 1.511 0 0 0-.492 1.484c.231 1.017 1.285 1.316 2.055 1.534l.101.028c1.088.384 2.1.872 3.009 1.45 1.233.786 2.853 2.123 3.56 4.024.601 1.615.376 3.53-.603 5.121-.984 1.6-2.51 2.76-4.402 4.11a35.901 35.901 0 0 1-6.113 3.49c-4.08 1.834-8.77 3.06-13.942 3.646-2.432.276-4.956.412-7.717.42-.62.002-1.24-.003-1.86-.015-2.577-.046-5.312-.146-8.063-.52a74.443 74.443 0 0 0-.35-29.541l-1.555-5.776c-.117-.375-.232-.752-.347-1.13-.36-1.182-.731-2.397-1.165-3.59.23-.094.46-.191.69-.288ZM89.487 62.5c-.283.467-.04 1.604.02 1.86.485 1.268.9 2.614 1.298 3.92.117.383.233.765.351 1.144.657 2.111 1.13 3.87 1.491 5.537a71.568 71.568 0 0 1 .056 29.816l-.303 1.424 1.434.249c3.423.592 6.932.727 9.915.781.64.012 1.278.017 1.918.015 2.865-.007 5.49-.15 8.025-.437 5.46-.62 10.432-1.922 14.776-3.874a38.634 38.634 0 0 0 6.59-3.765c1.695-1.21 3.803-2.714 5.163-4.923 1.428-2.322 1.743-5.15.843-7.567-.775-2.082-2.394-3.952-4.682-5.41a16.982 16.982 0 0 0-2.288-1.218 12.51 12.51 0 0 0 3.249-3.36c1.5-2.305 2.053-5.052 1.515-7.536-.3-1.383-.89-2.656-1.705-3.682-.888-1.117-2.039-1.898-2.943-2.455-3.82-2.352-8.378-3.92-13.938-4.795a58.886 58.886 0 0 0-15.912-.306 53.317 53.317 0 0 0-7.808 1.501c-1.05.287-2.432.686-3.791 1.234-.282.113-.561.23-.84.349-.338.142-.675.285-1.017.419l-.073.027c-.214.081-.529.207-.835.456-.16.14-.354.34-.509.596Zm87.472 87.211c-1.562 1.312-2.764 3.092-3.575 5.292-.24.65-.43 1.305-.615 1.937-.127.434-.253.868-.395 1.297a45.3 45.3 0 0 1-1.106 2.977 42.943 42.943 0 0 1-2.84 5.67c-2.16 3.61-4.934 6.862-8.242 9.665-6.797 5.76-15.441 10.11-25.692 12.93-2.744.755-5.179 1.26-7.443 1.54-2.382.297-4.969.434-7.608.406-4.758-.047-9.768-.61-15.316-1.72a150.994 150.994 0 0 1-14.949-3.825c-2.44-.756-4.765-1.691-6.913-2.59a1.693 1.693 0 0 0-.662-.133c-.771.002-1.242.51-1.443.726l-2.034 1.873c-.809.74-1.769 1.612-2.758 2.465a60.415 60.415 0 0 1-10.874 7.464 112.714 112.714 0 0 0 3.625-5.42c2.901-4.653 5.163-9.08 6.915-13.528a76.543 76.543 0 0 0 2.428-7.264c.4-1.42.709-2.689.942-3.877.244-1.244.347-2.526.324-4.034l-.003-.16a209.03 209.03 0 0 0-.052-2.706c.02-.206.074-.834-.394-1.362-.444-.501-1.055-.559-1.502-.6l-.1-.01a14.883 14.883 0 0 0-.64-.123l-.256-.047c-.596-.11-1.193-.223-1.788-.336-2.19-.42-4.772-.94-7.318-1.631-5.143-1.397-9.848-3.731-13.773-5.83-.337-.18-.68-.353-1.025-.527-.744-.373-1.446-.726-2.07-1.152-.052-.036-.108-.081-.169-.13-.4-.315-1.004-.793-1.818-.791-.253 0-.5.05-.733.145-.552.226-.94.62-1.252.937-.08.08-.156.16-.232.227a28.079 28.079 0 0 1-5.723 3.879 24.343 24.343 0 0 1-6.569 2.21c-1.92.355-3.875.544-5.676.665a22.878 22.878 0 0 0 4.134-3.223c3.124-3.097 5.54-7.4 7.178-12.79 1.389-4.568 2.141-9.553 2.3-15.24.144-5.113-.07-10.45-.637-15.863-.438-4.191-1.162-9.674-2.878-14.904-.81-2.469-1.803-4.716-2.949-6.68-.799-1.37-2.062-3.284-4.003-4.555a4.73 4.73 0 0 0 .2-.133c.495-.351.983-.757 1.494-1.24 1.596-1.515 2.865-3.541 3.771-6.021.981-2.686 1.575-5.446 1.983-7.55.478-2.47.86-5.106 1.133-7.835.5-4.997.701-10.305.596-15.779-.11-5.764-.584-10.379-1.487-14.522C36.988 21.092 33.455 11.608 25.035 5a29.4 29.4 0 0 0-1.42-1.048c.908.004 1.848.03 2.857.075 2.955.134 5.17.437 7.181.984a23.472 23.472 0 0 1 6.238 2.72c.952.591 1.87 1.254 2.725 1.971.091.076.188.176.293.281.517.517 1.297 1.298 2.374 1.295a2.226 2.226 0 0 0 1.462-.567c.307-.266.537-.553.74-.806.12-.15.233-.291.335-.392.288-.285.624-.566 1.088-.915A27.247 27.247 0 0 1 51.587 6.8c3.586-2.077 7.854-3.287 12.685-3.596.74-.047 1.5-.076 2.309-.086A25.989 25.989 0 0 0 63.243 6c-3.08 3.16-5.613 7.132-7.53 11.806-3.36 8.196-4.652 17.68-3.95 28.997.377 6.058.97 11.042 1.867 15.686.78 4.047 2.05 9.262 4.953 13.702.755 1.156 1.516 2.123 2.325 2.958.442.456.892.855 1.37 1.214-.4.276-.802.62-1.244 1.062-.832.833-1.588 1.828-2.377 3.131-2.214 3.657-3.608 7.979-4.52 14.016-.717 4.765-1.045 9.959-1.001 15.88.035 4.746.075 10.124 1.956 15.042 1.588 4.15 4.523 7.954 8.266 10.713a25.5 25.5 0 0 0 6.639 3.492c2.61.922 5.374 1.347 7.733 1.642l1.535.192.04-1.546c.117-4.58-1.31-8.968-2.719-12.656-1.451-3.794-3.397-7.58-5.785-11.258-.62-.953-1.359-2.08-2.15-3.211a15.682 15.682 0 0 0-1.181-1.515l-.035-.038.128-.133c.099-.101.196-.202.285-.303.378-.433.673-.903.933-1.317l.126-.2c.751-1.184 1.375-2.175 1.987-3.24a58.664 58.664 0 0 0 5.81-13.993c2.555-9.503 2.771-19.68.627-29.428-2.026-9.208-6.036-18.237-11.919-26.837a84.024 84.024 0 0 0-3.817-5.147c.502.27 1.004.535 1.508.8 1.437.759 2.923 1.542 4.312 2.402a54.676 54.676 0 0 1 5.646 4.021c1.631 1.324 3.338 2.879 5.217 4.753.979.977 1.75 1.806 2.427 2.607.109.13.215.271.323.414.58.767 1.455 1.925 3.005 1.92.157 0 .317-.013.477-.039.657-.105 1.215-.364 1.707-.593.143-.066.286-.133.428-.193a25.174 25.174 0 0 1 1.605-.611c1.189-.405 2.42-.725 3.572-1.01a100.788 100.788 0 0 1 7.493-1.562c4.198-.708 8.322-1.072 12.256-1.082 6.313-.016 12.256.876 17.665 2.652 4.321 1.418 8.638 3.521 12.832 6.252 4.462 2.905 7.605 5.668 9.89 8.694 1.467 1.943 2.481 4.099 3.201 5.76l.106.244c.937 2.163 1.906 4.4 3.344 6.425a21.635 21.635 0 0 0 2.47 2.872l-.024.02c-1.7 1.44-3.105 3.404-4.174 5.837-.351.798-.574 1.602-.79 2.38-.112.409-.22.796-.342 1.173a76.085 76.085 0 0 1-1.183 3.404c-.478 1.26-.932 2.262-1.431 3.156-.174.312-.345.628-.516.943-.429.792-.834 1.54-1.298 2.247-1.126 1.717-2.636 3.4-4.616 5.147a41.299 41.299 0 0 1-2.788 2.247c-.443.326-.896.633-1.377.958-.545.369-1.108.75-1.656 1.163l-2.101 1.585 2.488.858c3.907 1.347 7.823 3.174 11.97 5.584 4.249 2.471 7.458 4.833 10.099 7.433 2.876 2.833 5.274 6.43 7.334 10.999a60.981 60.981 0 0 1 2.623 6.971l.033.106c.356 1.153.726 2.345 1.333 3.49a9.895 9.895 0 0 0 1.17 1.736c.255.302.53.552.77.772.159.145.309.282.432.414l.086.091.1.076.021.015c.294.22.566.425.822.634-.395.27-.766.552-1.105.837Zm3.357-2.603-.079-.065c-.328-.29-.665-.555-1.01-.816a2.092 2.092 0 0 0-.396-.338 16.312 16.312 0 0 0-.339-.315c-.195-.178-.38-.346-.517-.509a7.132 7.132 0 0 1-.837-1.244c-.484-.91-.798-1.928-1.132-3.004l-.032-.106a63.657 63.657 0 0 0-2.746-7.293c-2.204-4.89-4.795-8.764-7.922-11.844-2.812-2.77-6.2-5.267-10.658-7.86-3.41-1.982-6.677-3.586-9.917-4.867.283-.195.568-.395.849-.602a43.972 43.972 0 0 0 2.979-2.401c2.17-1.915 3.84-3.783 5.106-5.712.528-.805.98-1.641 1.419-2.45.165-.304.33-.61.498-.911.568-1.017 1.077-2.138 1.604-3.53a77.587 77.587 0 0 0 1.228-3.529c.142-.437.262-.872.379-1.293.197-.713.383-1.386.653-1.999.897-2.04 2.047-3.664 3.42-4.827l.094-.079c.406-.339 1.02-.852 1.253-1.667.314-1.092-.601-1.908-1.148-2.394-.04-.036-.073-.065-.091-.083a18.794 18.794 0 0 1-2.08-2.43c-1.269-1.785-2.138-3.791-3.058-5.916l-.105-.244c-.782-1.804-1.89-4.155-3.536-6.335-2.487-3.293-5.855-6.266-10.598-9.354-4.397-2.862-8.935-5.072-13.487-6.566-5.694-1.869-11.934-2.808-18.546-2.791-4.087.01-8.365.387-12.716 1.12-2.548.43-5.139.97-7.7 1.605-1.213.301-2.513.64-3.802 1.078-.58.198-1.181.427-1.786.68-.174.074-.349.154-.524.236-.359.167-.697.324-1.01.372-.151 0-.564-.546-.762-.809a12.63 12.63 0 0 0-.417-.53 43.633 43.633 0 0 0-2.59-2.785c-1.948-1.942-3.724-3.56-5.43-4.944a57.368 57.368 0 0 0-5.937-4.228c-1.47-.911-3-1.718-4.48-2.498-.69-.364-1.38-.728-2.066-1.103-.413-.226-1.488-.753-2.519-.75-.315.001-.61.05-.88.145-.429.152-1.397.69-1.124 2.402.14.872.526 1.44.925 1.922a80.97 80.97 0 0 1 4.353 5.792c5.679 8.3 9.546 17 11.495 25.856 2.048 9.312 1.843 19.028-.595 28.099a55.87 55.87 0 0 1-5.534 13.324c-.584 1.016-1.191 1.98-1.924 3.134l-.134.212c-.225.358-.436.696-.668.961-.058.066-.12.13-.184.195-.33.339-.828.85-.99 1.624-.246 1.186.527 2.048.818 2.372.31.347.62.743.97 1.247.768 1.1 1.491 2.202 2.098 3.135 2.28 3.511 4.137 7.122 5.517 10.732 1.144 2.992 2.3 6.462 2.508 10.013-1.838-.271-3.728-.645-5.546-1.288a22.685 22.685 0 0 1-5.91-3.107c-3.316-2.443-5.912-5.802-7.31-9.457-1.7-4.445-1.737-9.333-1.772-14.06-.043-5.774.275-10.826.97-15.444.854-5.653 2.132-9.656 4.146-12.981.67-1.105 1.293-1.932 1.963-2.602.385-.387.705-.652 1.004-.835.037-.022.086-.046.14-.075.512-.264 2.066-1.069 1.58-2.581-.26-.816-.973-1.266-1.443-1.563-.075-.047-.145-.09-.203-.132a8.684 8.684 0 0 1-1.174-1.021c-.684-.706-1.336-1.537-1.992-2.541-2.636-4.032-3.815-8.905-4.548-12.7-.873-4.523-1.452-9.394-1.82-15.329-.676-10.884.55-19.965 3.745-27.76 1.78-4.34 4.116-8.011 6.944-10.913 1.493-1.532 3.245-2.88 5.354-4.12.681-.401 1.068-1.133.986-1.866-.078-.698-.569-1.271-1.28-1.498C69.823.317 69.348.298 68.99.3c-.162 0-.325.005-.485.01-.124.005-.247.01-.364.01h-.06a56.807 56.807 0 0 0-.978-.006c-1.067.003-2.051.034-3.009.095-5.266.337-9.946 1.672-13.911 3.968a30.096 30.096 0 0 0-2.954 1.98c-.563.422-1 .791-1.376 1.163-.219.215-.397.437-.554.633l-.111.138c-.108-.1-.218-.21-.297-.288a7.256 7.256 0 0 0-.475-.449 26.704 26.704 0 0 0-3.046-2.202 26.28 26.28 0 0 0-6.981-3.045c-2.219-.603-4.62-.935-7.79-1.079a73.383 73.383 0 0 0-3.493-.078l-.448.002c-.448.005-.897.013-1.346.02l-.572.01-.18-.001a8.706 8.706 0 0 0-.25-.003c-.359 0-.83.028-1.3.236-.59.259-.966.775-1.006 1.38-.044.683.344 1.324 1.064 1.76.3.183.605.327.874.454.215.1.418.196.59.297.93.546 1.863 1.185 2.774 1.9 7.764 6.094 11.043 14.935 12.427 21.279.864 3.96 1.316 8.402 1.423 13.979.103 5.363-.093 10.56-.583 15.445a84.252 84.252 0 0 1-1.096 7.582c-.387 2.002-.95 4.621-1.863 7.12-.756 2.071-1.789 3.736-3.068 4.95-.412.39-.8.714-1.186.987-.107.076-.253.161-.408.251-.365.212-.82.476-1.199.88-.405.43-.581.974-.497 1.53.158 1.05 1.163 1.62 1.646 1.895l.041.023c1.227.701 2.314 1.911 3.421 3.807 1.047 1.795 1.957 3.861 2.706 6.143 1.634 4.978 2.33 10.269 2.754 14.322.553 5.29.763 10.502.623 15.493-.152 5.432-.865 10.176-2.18 14.503-1.502 4.94-3.68 8.849-6.47 11.615-1.48 1.468-3.293 2.749-5.39 3.807-.465.235-.964.471-1.45.687l-.087.031c-.655.236-1.645.593-1.9 1.53-.135.492-.022 1.001.306 1.397.515.622 1.26.646 1.541.655l.052.002c.332.022.665.036.997.043.674.013 1.341 0 2.121-.038 2.338-.116 5.097-.304 7.836-.81a27.153 27.153 0 0 0 7.324-2.466 30.923 30.923 0 0 0 6.296-4.265c.126-.11.255-.24.388-.374l.064-.064.006.005c.117.092.228.178.328.246.778.53 1.598.943 2.39 1.341.323.163.646.324.962.494 4.064 2.174 8.947 4.594 14.36 6.063 2.637.716 5.285 1.25 7.527 1.68l1.8.339.281.05c.113.02.227.04.34.062l.005.218c.012.6.022 1.202.03 1.804l.003.16c.02 1.308-.067 2.405-.272 3.453a45.95 45.95 0 0 1-.89 3.654 73.49 73.49 0 0 1-2.338 7c-1.688 4.288-3.875 8.564-6.685 13.072-1.168 1.876-2.528 3.886-4.276 6.326-.12.167-.241.331-.362.496-.189.256-.378.513-.559.773-.545.782-.549 1.442-.456 1.857.115.52.445.961.928 1.24.342.198.718.297 1.12.296.81-.003 1.487-.412 1.983-.712.105-.064.203-.125.291-.17a63.447 63.447 0 0 0 12.79-8.547 129.586 129.586 0 0 0 2.817-2.518l1.826-1.674c2.027.84 4.203 1.693 6.505 2.407a153.736 153.736 0 0 0 15.229 3.895c5.721 1.145 10.903 1.726 15.839 1.776 2.765.025 5.474-.116 7.98-.427 2.4-.299 4.965-.829 7.84-1.62 10.648-2.927 19.652-7.468 26.762-13.494 3.543-3.003 6.515-6.489 8.835-10.363a45.664 45.664 0 0 0 3.026-6.042c.425-1.032.82-2.096 1.175-3.163.152-.46.289-.927.425-1.394.18-.614.349-1.194.555-1.754.64-1.736 1.564-3.12 2.747-4.114.285-.238.601-.477.943-.71l.142-.092c.47-.305 1.259-.816 1.496-1.693.315-1.163-.659-1.956-1.026-2.254Z" fill="#FBC31A"/></g></svg>