<svg width="200" height="200" xmlns="http://www.w3.org/2000/svg"><g fill="none"><path d="M129.524 117.91H62.621c-.62 0-1.173-.39-1.382-.973l-1.122-3.125c-2.612-.381-7.425-.922-8.026-.99l-.088-.008a1.469 1.469 0 0 1-.5-.147l-2.543-1.272c-2.531-.424-7.522-2.793-8.528-3.28l-.067-.033a1.459 1.459 0 0 1-.346-.236l-.05-.045c-1.13-1.036-7.768-2.31-13.258-2.85l-1.056-.104a1.469 1.469 0 0 1-.812-2.575l1.031-.884-13.102-.644a1.468 1.468 0 0 1-1.242-2.12l-.158.032c-.33.065-.672.016-.97-.14L5.199 95.79A1.468 1.468 0 0 1 5.4 93.1l10.214-3.516-8.458.623a1.465 1.465 0 0 1-1.119-.4L1.19 85.201a1.467 1.467 0 0 1 .938-2.53l4.501-.225 2.203-1.35-3.691-1.263a1.47 1.47 0 0 1-.442-.243l-2.893-2.315a1.468 1.468 0 0 1 .767-2.606l8.394-.861c.921-.444 2.48-.9 4.093-1.3l-.73-.645c-2.761-.472-5.962-4.327-7.267-6.045l-.77-1.016A1.468 1.468 0 0 1 7.81 62.49l9.062 2.21 3.918-.088-6.21-6.21a1.468 1.468 0 0 1 .97-2.505l5.507-.25c.317-.015.63.074.892.253l9.071 6.176 11.965 2.658 32.641 4.523c.096.013.19.036.281.068 6.726 2.354 17.568 8.895 21.185 11.132 2.273-1.314 5.975-1.979 11.03-1.979 1.895 0 3.521.099 4.358.16 10.47-5.813 29.923-10.296 30.121-10.341l.068-.016c.127-.028.258-.04.388-.033l.06.003c1.294.06 2.664.09 4.071.09 6.548 0 12.112-.643 12.346-.67l.086-.008.053-.003.085-.002h10.415a1.468 1.468 0 0 1 .71 2.752l-5.506 3.043c1.464.369 2.968.62 3.69.718.463.052.977.08 1.502.08 9.045 0 19.577-8.257 19.682-8.34l2.87-2.276a1.468 1.468 0 0 1 2.078 2.043l-2.227 2.904c-.53.69-1.03 1.33-1.502 1.919 1.392-.729 2.737-1.47 3.773-2.064l1.916-1.099a1.467 1.467 0 0 1 1.903 2.157l-1.33 1.764c-2.075 2.753-4.644 4.953-6.935 6.584 1.016-.313 1.64-.666 1.651-.673l2.807-1.657a1.468 1.468 0 0 1 1.808 2.277l-2.257 2.366a20.498 20.498 0 0 1-3.302 2.792l6.562.656a1.469 1.469 0 0 1 .379 2.831l-9.89 3.79 4.11 2.44a1.469 1.469 0 0 1-.63 2.725l-9.64.79a42.73 42.73 0 0 0 1.63 1.454l.948.8a1.468 1.468 0 0 1-.946 2.59h-9.444l1.883 1.801a1.468 1.468 0 0 1-1.014 2.53H154.26c-7.427 3.307-19.246 9.736-24.027 12.372-.217.12-.46.182-.709.182" fill="#C6C5C5"/><path d="M185.2 89.94l12.72-4.875-11.448-1.145c1.915-.723 4.757-2.143 7.273-4.778l2.257-2.365-2.815 1.663c-.023.013-2.32 1.349-5.486 1.349-.835 0-1.66-.093-2.464-.278 2.28-1.159 7.623-4.226 11.323-9.135l1.33-1.765-1.916 1.1c-2.149 1.233-7.52 4.153-10.102 4.957 1.103-1.109 3.09-3.268 5.936-6.98l2.227-2.903-2.868 2.274c-.108.086-11.029 8.66-20.597 8.66-.582 0-1.156-.032-1.697-.093-.052-.008-4.805-.653-7.057-1.881l8.358-4.62H159.76l-.054.004c-.057.007-5.795.68-12.499.68a89.59 89.59 0 0 1-4.156-.092l-.06-.003-.061.014c-.2.045-19.903 4.573-30.117 10.41-.524-.045-2.4-.192-4.689-.192-3.784 0-8.688.4-11 2.258-2.037-1.275-14.446-8.955-21.655-11.478l-.042-.015-32.7-4.53-12.298-2.734-9.304-6.334-5.506.25 8.638 8.638-7.543.172-9.25-2.257.77 1.016c.433.57 4.329 5.604 6.705 5.511l3.044 2.686v.216c-1.313.28-5.361 1.183-6.586 1.895l-8.672.89 2.893 2.315 6.644 2.273-5.183 3.176-4.876.245 4.847 4.605 13.399-.986.782.671-2.407 1.605L5.88 94.49l5.205 2.726 8.967-1.793-7.207 3.855 13.568.667 2.366.887-2.98 2.554 1.057.104c3.297.325 12.26 1.537 14.107 3.23l.049.044.06.03c.248.12 6.048 2.916 8.334 3.183l2.755 1.377.08.008c.068.008 6.583.734 8.964 1.133l1.417 3.946h66.903c5.33-2.938 17.057-9.304 24.425-12.555h21.504l-4.528-4.33h13.103l-.948-.8c-.862-.725-2.959-2.595-3.853-3.789l12.69-1.04-6.716-3.987" fill="#FFF"/><path d="M184.166 84.144s5.118-.984 9.251-5.314c0 0-4.33 2.558-9.448.787 0 0 7.532-3.28 12.23-9.513 0 0-10.065 5.773-11.64 5.183 0 0 2.363-1.969 6.89-7.874 0 0-12.4 9.842-22.636 8.66 0 0-5.905-.786-7.874-2.36l7.48-4.134h-8.66s-8.266.984-16.73.59c0 0-19.88 4.527-30.115 10.432 0 0-12.204-1.18-15.747 2.165 0 0-13.974-8.857-21.848-11.613l-32.674-4.526-12.4-2.757-9.25-6.298-4.331.197 8.66 8.66-8.66.198-8.07-1.97s4.33 5.709 6.495 5.315l3.346 2.953v.787s-5.708 1.18-6.889 1.968l-7.676.787 1.968 1.575 7.48 2.56-6.102 3.739-3.937.197 3.937 3.74 13.385-.985 1.377 1.181-2.952 1.969-12.007 4.133 4.133 2.165 11.81-2.362-8.464 4.527 12.007.59 3.15 1.182-2.756 2.362s12.007 1.18 14.368 3.346c0 0 6.102 2.952 8.267 3.15l2.756 1.376s7.086.788 9.25 1.182l1.562 4.347h65.484c4.934-2.73 17.493-9.587 25.269-13.008h20.47l-4.528-4.33h12.991s-3.74-3.149-4.33-4.527l12.007-.984-6.3-3.74 11.81-4.527-11.81-1.181" fill="#000"/><path d="M52.803 71.927s-7.164-.611-11.551-1.944L34.92 68.54l-10.996-6.442s2.332 4.166 4.942 5.776c0 0-2.166 1.833-10.607.389 0 0 4.22 3.776 11.162 2.72l5.998-1.332s1.333 1.388 15.662 3.276l21.88 3.11 6.331 2s7.498 5.22 10.497 5.942l2.388.277s-16.106-9.274-17.327-9.552l-22.048-2.776M20.6 76.861l3.248-1.968-4.133.098-11.712 1.674 6.693.59 5.905-.394m-4.528 3.937l-3.05 1.377-4.922 3.15H5.543l2.067 1.378 4.526-2.46 3.937-3.445m64.462 3.542l-7.48-.983-6.79-2.461-27.458-5.019h-8.464l-4.33 2.264 13.582.787 3.74 1.673 12.006.886-18.6 4.133-8.76 3.641 13.483-1.968 8.169-2.657 16.632-.197c2.756.099 4.035 1.28 4.035 1.28l6.79.492-9.644 5.019-10.728 1.772-8.955 3.345 7.775-.098c2.952.394 14.959-3.74 14.959-3.74l8.759-4.625 4.92.492 2.46 6.397-3.542 7.282-8.66 7.48-4.626 5.413 14.86-11.81 4.429-8.66-3.15-8.07-5.412-2.067M19.42 91.427l-4.626 1.968-3.543.984 1.771.492 4.527-1.378 6.102-4.133-4.232 2.067m11.515 6.593l-1.772-.688-3.05-.591.492-1.771-7.086 3.05 5.019-.196 5.118.689.59 2.46-.886 1.082 8.562 1.674-3.936-1.378c-1.968-.296-3.05-4.33-3.05-4.33m120.459-22.734c1.969-.788 14.663 2.46 14.663 2.46l-6.692-2.46-1.279-1.575 4.527-2.46-4.625 1.574c-11.318-.787-18.896.197-18.896.197-2.263.099-18.994 6.692-18.994 6.692l18.01-5.412c10.924-1.181 13.286.984 13.286.984" fill="#FFF"/><path d="M151.788 78.928c-11.22-2.657-25.096 1.87-25.096 1.87l15.845.689 2.066.59 8.562 3.15c4.33.196 10.727 2.066 10.727 2.066l-1.18-1.476-6.594-1.673c-6.299-2.657-8.956-2.657-8.956-2.657l-2.263-1.673 5.806.295 13.876 4.33 7.776.394-10.53-2.46-10.04-3.445m14.664 2.165l7.972-.59 7.085-3.445 4.036-1.18-2.067-.493.788-1.181-11.713 4.822-8.66.788 2.56 1.28m18.895.196l-5.02.098-1.377.296-5.413 1.476 9.054-1.083 2.756-.787m2.264 5.019l-8.366-.689-4.527.492 3.64.788 5.316.885c.394 0-2.952 3.15-2.952 3.15l3.64 1.082-1.475-1.771 4.724-3.937m-58.528.236c-.499-.148-1.165-.198-2.033.019l1.083 1.378 2.165-.59s-.239-.368-.794-.642a.51.51 0 0 1 .072.148c.067.232-.042.469-.243.526-.2.057-.417-.084-.484-.318-.065-.229.04-.458.234-.521m-1.506 5.177l1.575.492v.788l-1.28.098-.885.59h-1.378l-1.28.492-.59-.295.492-.787-4.822 1.673c-4.232 3.74-1.476-.492-1.476-.492-1.772.197-7.38 5.314-7.38 5.314l-1.871.984-.295.787.033-.032-.033.032c-3.15 3.052-3.15-.983-3.15-.983-.787-1.28 2.756-4.134 2.756-4.134-5.905 4.724-7.283 2.067-7.283 2.067-2.263-2.067 3.642-6.004 3.642-6.004-4.43 2.658-7.48 1.378-7.48 1.378 3.445 3.15.787 6.693.787 6.693 5.216-1.575 8.07 4.231 8.07 4.231l2.56-2.066c1.082.393 6.2-4.134 6.2-4.134l2.558 1.575 2.264-3.839 2.853-1.279.099 2.264 1.772-2.165 2.657-.492 1.476-.492 2.362.097.394-.786-1.378-1.477-1.969-.098" fill="#FFF"/><path d="M124.035 82.471c-4.823-.394-10.137-1.673-10.137-1.673-.788.689-12.006 1.377-12.006 1.377l-8.17 4.036 2.068 2.263-.394 4.626 2.362-2.756c-2.559-5.413 5.019-7.38 5.019-7.38l2.362.491 8.365-1.673 5.118.886c6.889.196 6.692.689 6.692.689 1.18-.099 2.854.787 2.854.787l1.378.689c2.165.59 3.444 2.756 3.444 2.756 1.378 1.377.295 2.755.295 2.755l2.363-.935c-3.051-6.643-11.613-6.938-11.613-6.938" fill="#FFF"/><path d="M133.456 91.61s.87-1.205 2.315-1.805c0 0 4.046 1.394 4.181 8.88 0 0-2.226-3.115-5.99-4.106l-1.77-.05-.811-.909-.12-2.71s1.713.293 2.195.7" fill="#FFF000"/><path d="M161.55 145.8H10.369a1.468 1.468 0 0 1-1.376-1.98l14.665-39.487a1.468 1.468 0 0 1 1.376-.957h151.18a1.468 1.468 0 0 1 1.377 1.98l-14.665 39.486a1.469 1.469 0 0 1-1.376.957" fill="#C6C5C5"/><path fill="#231F20" d="M10.369 144.331h151.18l14.666-39.487H25.034l-14.665 39.487"/><path d="M28.371 142.676H17.595c-.75 0-1.18-.378-1.37-.603a1.67 1.67 0 0 1-.356-1.388l.042-.242 4.95-12.42c-.303-.423-.647-.947-.532-1.609.14-.804.84-1.365 1.7-1.365h12.186c1.354 0 2.168.593 2.613 1.09.462.517.961 1.416.726 2.764a4.74 4.74 0 0 1-.21.786l-.018.048-1.073 2.674c-.248.657-.728 1.287-1.452 1.9.138.43.172.852.1 1.262a4.723 4.723 0 0 1-.21.785l-.018.048-1.072 2.674c-.377.996-1.08 1.864-2.081 2.555-1 .69-2.06 1.041-3.149 1.041" fill="#C6C5C5"/><path d="M43.05 142.676H32.628c-.75 0-1.18-.378-1.37-.603a1.67 1.67 0 0 1-.357-1.388l.04-.234 4.956-12.437c-.31-.421-.65-.94-.535-1.6.14-.804.84-1.365 1.699-1.365h6.22c.537 0 1.011.213 1.336.598.324.386.452.891.359 1.423l-.042.239-4.432 11.11h4.443c.68 0 1.081.308 1.299.566l.44.524-.108.722c-.116.66-.603 1-.787 1.129l-1.157.79a2.678 2.678 0 0 1-1.58.526" fill="#C6C5C5"/><path d="M60.16 142.676h-6.219c-1.026 0-1.808-.724-1.86-1.72l-.04-.954h-3.118l-1.366 1.75a2.232 2.232 0 0 1-1.824.924h-1.99c-.721 0-1.137-.366-1.32-.584a1.608 1.608 0 0 1-.346-1.317c.076-.422.076-.424 9.746-12.857 0-.043-.003-.13-.013-.268-.034-.439-.027-.755.02-1.026.158-.906.892-1.515 1.826-1.515l6.29-.06c1.07 0 1.861.748 1.897 1.777l.172 14.17-.034.194c-.155.889-.886 1.486-1.82 1.486" fill="#C6C5C5"/><path d="M71.508 142.676h-8.385c-1.343 0-2.156-.576-2.601-1.059-.47-.51-.981-1.405-.743-2.765.05-.289.141-.589.27-.892l3.685-9.31c.405-.993 1.102-1.84 2.078-2.534.998-.708 2.059-1.067 3.154-1.067h8.385c1.354 0 2.169.593 2.613 1.09.462.517.962 1.416.726 2.764a4.703 4.703 0 0 1-.21.786l-1.458 3.678a2.238 2.238 0 0 1-.75.955c.063.243.073.504.026.77-.036.208-.037.212-1.562 3.992-.403 1.005-1.105 1.862-2.086 2.547-.992.693-2.05 1.045-3.142 1.045" fill="#C6C5C5"/><path d="M89.021 142.676h-4.835c-.75 0-1.179-.378-1.368-.603a1.624 1.624 0 0 1-.327-.623l-.002.006c-.348.764-1.05 1.22-1.878 1.22h-4.81c-.749 0-1.179-.378-1.368-.603a1.67 1.67 0 0 1-.357-1.388l.043-.242 4.952-12.43c-.31-.42-.65-.939-.534-1.599.14-.804.839-1.365 1.698-1.365h6.22c.538 0 1.012.213 1.336.598.324.386.452.891.36 1.423l-.042.24-.236.587 1.975-2.094c.63-.624 1.296-.754 1.743-.754h4.633c.713 0 1.124.363 1.306.579.298.356.423.829.34 1.295a1.93 1.93 0 0 1-.413.873l-.066.077-4.768 5.169c.48.663.66 1.535.486 2.53a4.752 4.752 0 0 1-.21.786l-.018.047-.924 2.312c.708.521.628 1.288.594 1.48-.122.701-.509.966-1.948 1.952a2.684 2.684 0 0 1-1.582.527" fill="#C6C5C5"/><path d="M102.84 142.676H92.061c-.75 0-1.18-.378-1.368-.603a1.67 1.67 0 0 1-.358-1.388l.043-.242 4.949-12.42c-.302-.422-.647-.945-.531-1.609.142-.805.84-1.365 1.699-1.365h12.187c1.353 0 2.168.593 2.612 1.09.463.518.963 1.417.726 2.765a4.705 4.705 0 0 1-.21.785l-.018.048-1.073 2.674c-.247.657-.727 1.287-1.451 1.9.138.43.171.853.1 1.263a4.772 4.772 0 0 1-.21.784l-.018.048-1.073 2.674c-.376.996-1.08 1.864-2.08 2.555-1 .69-2.06 1.041-3.149 1.041" fill="#C6C5C5"/><path d="M111.879 142.676h-4.81c-.75 0-1.18-.378-1.369-.603a1.668 1.668 0 0 1-.357-1.388l.04-.234 4.951-12.428c-.301-.422-.646-.945-.53-1.609.142-.805.84-1.365 1.698-1.365h6.22c.539 0 1.013.213 1.338.6.324.386.45.892.357 1.425l-.042.237-5.62 14.145c-.347.764-1.049 1.22-1.876 1.22" fill="#C6C5C5"/><path d="M126.884 142.676h-4.806c-.817 0-1.472-.42-1.76-1.088a2.014 2.014 0 0 1-1.814 1.088h-4.813c-.751 0-1.18-.378-1.37-.603a1.672 1.672 0 0 1-.357-1.388l.04-.234 4.951-12.428c-.301-.422-.646-.945-.53-1.609.142-.805.84-1.365 1.698-1.365h12.187c1.353 0 2.168.593 2.613 1.09.463.518.962 1.417.726 2.765a4.755 4.755 0 0 1-.21.785l-2.135 5.39c-.344.862-.973 1.63-1.87 2.283a7.43 7.43 0 0 1-1.255.745l.137.696c.415 2.083.413 2.095.36 2.409-.155.88-.874 1.464-1.792 1.464" fill="#C6C5C5"/><path d="M139.397 142.676h-10.802c-.75 0-1.18-.378-1.369-.603a1.668 1.668 0 0 1-.357-1.388l.04-.234 4.952-12.428c-.302-.422-.647-.945-.531-1.609.142-.805.84-1.365 1.698-1.365h12.187c1.354 0 2.168.593 2.613 1.09.463.518.963 1.417.726 2.765a4.705 4.705 0 0 1-.21.785l-3.742 9.39c-.377.997-1.08 1.865-2.081 2.556-1 .69-2.051 1.041-3.124 1.041" fill="#C6C5C5"/><path d="M154.144 142.676h-10.802c-.697 0-1.097-.353-1.273-.563a1.527 1.527 0 0 1-.333-1.249c.107-.598.532-.947.672-1.062l.105-.078c1.612-1.098 2.218-1.306 2.772-1.306h5.59l.43-1.09h-3.427c-1.344 0-2.157-.576-2.601-1.06-.47-.51-.981-1.404-.743-2.764.05-.289.14-.577.263-.857l1.573-3.994c.406-.996 1.103-1.844 2.079-2.537.996-.708 2.058-1.067 3.154-1.067h10.801c.696 0 1.096.352 1.273.562.29.346.412.801.334 1.248-.057.328-.24.788-.785 1.147-1.604 1.118-2.212 1.331-2.77 1.331h-5.596c-.16.403-.298.755-.418 1.06h3.427c1.343 0 2.155.576 2.6 1.059.47.511.981 1.405.743 2.764a3.81 3.81 0 0 1-.268.889l-1.568 3.965c-.407 1.014-1.11 1.872-2.09 2.557-.992.693-2.05 1.045-3.142 1.045" fill="#C6C5C5"/><path d="M36.28 126.629c-.501-.561-1.196-.846-2.065-.846H22.028c-.622 0-.915.408-.976.758-.059.338.093.62.454 1.123.14.196.153.29.155.29l-5.012 12.622-.057.235a.948.948 0 0 0 .196.79c.13.155.377.341.807.341H28.37c.938 0 1.857-.307 2.732-.911.876-.605 1.489-1.357 1.817-2.224L34 136.11c.08-.22.139-.443.177-.663.076-.432-.012-.884-.268-1.368.864-.636 1.411-1.277 1.662-1.94l1.081-2.698c.08-.22.14-.443.178-.663.185-1.06-.197-1.753-.55-2.148zm-10.657 12.523h-1.208c.242-.61.695-1.753 1.542-3.88h1.188a1359.43 1359.43 0 0 1-1.522 3.88zm2.647-6.67h-1.21l1.542-3.879h1.214c-.246.622-.704 1.775-1.546 3.88z" fill="#231F20"/><path d="M43.05 141.942H32.628c-.43 0-.677-.186-.808-.342a.95.95 0 0 1-.196-.789l.057-.235 5.033-12.632a1.037 1.037 0 0 0-.155-.27c-.376-.505-.534-.79-.474-1.133.061-.35.353-.758.976-.758h6.22c.427 0 .668.21.774.336.106.126.272.4.198.825l-.057.236-4.777 11.972h5.526c.319 0 .567.103.736.306l.22.261-.048.385c-.056.317-.276.508-.484.654l-1.151.786a1.98 1.98 0 0 1-1.166.398" fill="#231F20"/><path d="M61.11 126.852c-.022-.64-.484-1.07-1.156-1.07l-6.298.061c-.574 0-1.007.357-1.103.908-.036.205-.04.473-.011.843.027.35.008.466.006.48a.603.603 0 0 1-.107.246c-9.597 12.34-9.597 12.34-9.64 12.581a.864.864 0 0 0 .184.719c.124.147.355.322.759.322h1.989c.499 0 .946-.234 1.246-.643l1.519-1.944c.07-.087.1-.087.12-.087h4.127l.068 1.648c.033.614.486 1.026 1.128 1.026h6.22c.573 0 1.004-.344 1.097-.878l.022-.127-.17-14.085zm-10.395 9.627l1.967-2.62.015 2.62h-1.982z" fill="#231F20"/><path d="M79.417 126.629c-.502-.561-1.197-.846-2.066-.846h-8.385c-.94 0-1.858.313-2.73.932-.86.61-1.47 1.35-1.82 2.206l-3.691 9.326a3.406 3.406 0 0 0-.223.731c-.186 1.066.201 1.753.56 2.142.502.545 1.196.822 2.06.822h8.386c.939 0 1.855-.307 2.722-.913.861-.601 1.475-1.348 1.825-2.22 1.497-3.707 1.501-3.734 1.52-3.843a.977.977 0 0 0-.199-.819.912.912 0 0 0-.231-.197c.53-.013.961-.315 1.195-.853l1.45-3.657a3.97 3.97 0 0 0 .177-.663c.185-1.06-.196-1.753-.55-2.148zm-7.116 3.549c-.784 1.718-.945 2.313-.997 2.612a.974.974 0 0 0 .199.818c.055.066.13.137.23.197a1.268 1.268 0 0 0-1.193.85l-1.803 4.497h-1.21l4.205-10.549h1.246c-.127.33-.336.827-.677 1.575z" fill="#231F20"/><path d="M89.021 141.942h-4.835c-.43 0-.676-.186-.806-.342a.95.95 0 0 1-.197-.789c.057-.324.248-1.007 1.252-3.198.54-1.18.83-1.901.985-2.34h-1.27l-2.315 5.845c-.243.536-.684.824-1.224.824h-4.81c-.429 0-.675-.186-.806-.342a.948.948 0 0 1-.196-.789l.057-.235 5.033-12.632a1.01 1.01 0 0 0-.156-.27c-.375-.506-.533-.79-.474-1.133.061-.35.354-.758.976-.758h6.22c.427 0 .669.21.774.336.106.126.272.4.198.825l-.057.237-1.618 4.04 4.592-4.877c.473-.467.938-.561 1.247-.561h4.633c.395 0 .622.172.743.316.16.19.225.444.18.696a1.19 1.19 0 0 1-.262.542l-.033.039-5.232 5.67c.674.523.949 1.355.766 2.4a3.96 3.96 0 0 1-.178.663l-1.185 2.968c.762.215.865.65.805.995-.06.346-.166.462-1.64 1.471-.36.261-.759.4-1.167.4" fill="#231F20"/><path d="M110.749 126.629c-.503-.562-1.197-.846-2.066-.846H96.496c-.622 0-.914.407-.976.758-.06.338.092.62.454 1.123.14.197.153.29.155.29l-5.013 12.622-.056.235a.95.95 0 0 0 .195.79c.131.155.378.341.807.341h10.777c.938 0 1.857-.307 2.732-.911.876-.605 1.489-1.357 1.816-2.224l1.082-2.698a4 4 0 0 0 .177-.663c.076-.431-.012-.884-.268-1.368.864-.637 1.41-1.278 1.662-1.94l1.081-2.698c.079-.22.139-.442.177-.663.186-1.058-.195-1.752-.55-2.148zm-10.658 12.523h-1.208c.241-.61.695-1.752 1.541-3.88h1.189c-.236.605-.682 1.743-1.522 3.88zm2.647-6.67h-1.21l1.542-3.879h1.214c-.252.637-.717 1.807-1.546 3.88z" fill="#231F20"/><path d="M111.879 141.942h-4.81c-.43 0-.676-.186-.807-.342a.947.947 0 0 1-.196-.789l.057-.235 5.013-12.622c-.003 0-.015-.093-.156-.29-.36-.503-.512-.785-.453-1.123.062-.35.354-.758.975-.758h6.22c.428 0 .67.211.775.337.106.126.272.401.197.825l-.056.234-5.536 13.94c-.243.535-.684.823-1.223.823" fill="#231F20"/><path d="M132.376 126.629c-.502-.562-1.197-.846-2.066-.846h-12.187c-.62 0-.913.407-.976.758-.059.338.093.62.454 1.123.14.197.153.29.155.29l-5.012 12.622-.057.235a.948.948 0 0 0 .196.79c.13.155.377.341.808.341h4.813c.54 0 .98-.287 1.226-.825l.913-2.34.262 2.194c.075.59.536.971 1.173.971h4.806c.558 0 .977-.333 1.068-.852.028-.168.032-.193-.356-2.143-.121-.607-.2-1.018-.251-1.293a6.382 6.382 0 0 0 1.657-.885c.783-.57 1.329-1.23 1.62-1.96l2.127-5.37c.078-.218.138-.441.177-.662.186-1.058-.196-1.752-.55-2.148zm-9.063 8.497h-1.208l2.587-6.523h1.208l-2.587 6.523z" fill="#231F20"/><path d="M147.282 126.629c-.503-.562-1.198-.846-2.067-.846h-12.187c-.62 0-.913.407-.975.758-.06.338.092.62.454 1.123.14.197.153.29.155.29l-5.013 12.622-.057.235a.947.947 0 0 0 .196.79c.131.155.378.341.807.341h10.802c.921 0 1.832-.307 2.706-.911.877-.605 1.49-1.357 1.818-2.225l3.733-9.366c.079-.22.139-.442.177-.663.186-1.058-.196-1.752-.55-2.148zm-10.658 12.523h-1.23l4.204-10.549h1.207l-4.181 10.55z" fill="#231F20"/><path d="M154.144 141.942h-10.802c-.379 0-.596-.164-.711-.301a.795.795 0 0 1-.172-.65c.052-.292.248-.485.414-.621l.053-.04c1.437-.977 1.982-1.178 2.36-1.178h6.087c.463-1.168.8-2.021 1.01-2.558h-4.505c-.865 0-1.559-.276-2.061-.822-.359-.389-.746-1.076-.56-2.141.042-.242.118-.483.225-.718l1.57-3.991c.35-.857.961-1.597 1.821-2.207.87-.619 1.79-.932 2.73-.932h10.801c.38 0 .596.163.71.3.152.18.215.417.174.65-.032.188-.144.457-.489.675-1.42.992-1.953 1.195-2.343 1.195h-6.094c-.478 1.207-.8 2.021-.999 2.528h4.506c.864 0 1.558.276 2.06.822.359.39.747 1.077.56 2.141a3.106 3.106 0 0 1-.23.75l-1.566 3.96c-.351.876-.966 1.624-1.827 2.224-.867.607-1.783.914-2.722.914M34.003 123.505H23.58c-.43 0-.676-.186-.807-.342a.948.948 0 0 1-.196-.789l.057-.235 5.033-12.632a1.053 1.053 0 0 0-.156-.27c-.376-.506-.534-.79-.473-1.134.06-.348.352-.757.975-.757h6.22c.428 0 .669.211.774.337.106.125.272.4.198.824l-.057.235-4.777 11.974h5.526c.318 0 .566.102.735.303l.22.261-.046.384c-.058.325-.291.523-.488.659l-1.148.784c-.361.26-.759.398-1.166.398" fill="#231F20"/><path d="M45.477 123.505h-8.384c-.866 0-1.56-.277-2.062-.823-.359-.388-.747-1.075-.56-2.141.041-.234.116-.48.223-.731l3.692-9.326c.348-.855.96-1.596 1.82-2.206.87-.618 1.789-.932 2.73-.932h8.384c.87 0 1.565.285 2.066.845.354.396.736 1.09.55 2.148-.038.22-.098.444-.177.663l-3.733 9.367c-.352.875-.967 1.622-1.827 2.223-.867.606-1.783.913-2.722.913zm-3.98-2.79h1.208l4.204-10.549h-1.208l-4.204 10.55z" fill="#231F20"/><path d="M62.924 123.505h-4.81c-.637 0-1.098-.381-1.173-.971l-1.172-7.046-2.8 7.189c-.245.54-.686.828-1.225.828H49.73c-.43 0-.677-.186-.808-.342a.948.948 0 0 1-.195-.789l.056-.235 5.012-12.618s-.011-.093-.154-.293c-.361-.505-.513-.788-.454-1.125.06-.348.352-.757.976-.757h6.194c.617 0 1.073.351 1.19.915l1.164 7.115 2.812-7.174c.195-.53.657-.856 1.23-.856h2.014c.423 0 .668.187.8.343.105.126.271.4.198.818a.925.925 0 0 1-.1.28l-5.518 13.894c-.197.514-.656.824-1.223.824" fill="#231F20"/><path d="M77.955 123.505H67.154c-.866 0-1.56-.277-2.062-.823-.359-.388-.747-1.075-.56-2.141.041-.234.116-.48.223-.731l3.692-9.326c.349-.855.96-1.596 1.82-2.206.87-.618 1.789-.932 2.73-.932h8.384c.87 0 1.565.285 2.067.845.353.396.735 1.09.55 2.148a4.03 4.03 0 0 1-.178.663l-1.45 3.658c-.233.538-.663.84-1.194.853.1.06.175.131.23.197a.977.977 0 0 1 .2.818.98.98 0 0 1-.1.279l-2.327 5.874c-.244.536-.685.824-1.224.824zm-6.403-2.79h1.209l1.28-3.212c-.621-.974-.677-1.107-.623-1.41.058-.333.347-.725.97-.725h1.374a.926.926 0 0 1-.23-.197.976.976 0 0 1-.198-.818c.049-.281.206-.822.989-2.522.363-.79.581-1.315.71-1.665h-1.277l-4.204 10.55zm19.949 2.79h-4.809c-.43 0-.676-.186-.807-.342a.95.95 0 0 1-.196-.789l.057-.235 5.012-12.618c-.001 0-.012-.093-.154-.293-.362-.505-.514-.788-.455-1.125.061-.348.353-.757.976-.757h6.22c.428 0 .67.211.775.337.105.125.272.4.197.824l-.056.234-5.536 13.94c-.244.536-.684.824-1.224.824" fill="#231F20"/><path d="M103.703 123.505H92.901c-.377 0-.594-.163-.71-.3a.795.795 0 0 1-.174-.648c.051-.294.25-.487.416-.624l.051-.039c1.436-.978 1.983-1.178 2.36-1.178h6.088c.515-1.301.825-2.087 1.01-2.558h-4.504c-.866 0-1.56-.278-2.062-.824-.359-.389-.746-1.076-.56-2.14.043-.242.119-.484.225-.719l1.571-3.99c.348-.856.96-1.597 1.82-2.207.87-.618 1.79-.932 2.73-.932h10.802c.379 0 .595.164.71.3.151.18.214.417.173.65-.032.186-.142.454-.484.673-1.418.99-1.967 1.197-2.348 1.197h-6.094a883.63 883.63 0 0 0-.998 2.528h4.505c.865 0 1.558.276 2.061.823.358.39.746 1.076.56 2.14a3.077 3.077 0 0 1-.23.749l-1.567 3.961c-.352.877-.966 1.624-1.827 2.224-.866.607-1.783.914-2.722.914" fill="#231F20"/><path d="M117.962 123.505h-10.424c-.43 0-.677-.186-.807-.341a.951.951 0 0 1-.196-.79l.057-.235 5.032-12.63a.985.985 0 0 0-.155-.272c-.376-.505-.534-.79-.474-1.134.06-.347.351-.757.976-.757h6.22c.428 0 .669.211.775.337.105.126.271.4.196.825l-.056.234-4.777 11.974h5.526c.319 0 .567.102.737.304l.22.262-.048.384c-.058.323-.291.52-.488.657l-1.148.784c-.361.26-.759.398-1.166.398" fill="#231F20"/><path d="M135.088 123.505h-6.219c-.642 0-1.096-.412-1.128-1.026l-.067-1.648h-4.129c-.019 0-.05 0-.12.087l-1.519 1.944c-.3.408-.746.643-1.245.643h-1.99c-.403 0-.634-.175-.757-.322a.866.866 0 0 1-.186-.718c.04-.24.04-.24 9.641-12.582a.612.612 0 0 0 .107-.248c.002-.011.02-.129-.006-.478-.029-.37-.025-.64.01-.845.097-.55.53-.906 1.104-.906l6.297-.06c.67 0 1.133.429 1.157 1.066l.17 14.088-.022.127c-.093.533-.524.878-1.098.878zm-9.446-5.463h1.983l-.016-2.62-1.967 2.62z" fill="#231F20"/><path d="M148.723 123.505h-4.81c-.637 0-1.098-.381-1.173-.971l-1.172-7.046-2.8 7.189c-.244.54-.685.828-1.224.828h-2.015c-.43 0-.676-.186-.807-.341a.95.95 0 0 1-.196-.79l.057-.235 5.011-12.618s-.01-.093-.153-.294c-.362-.503-.514-.786-.454-1.124.06-.347.35-.757.975-.757h6.194c.617 0 1.072.35 1.19.915l1.164 7.116 2.812-7.175a1.27 1.27 0 0 1 1.23-.856h2.014c.423 0 .668.186.799.342a.98.98 0 0 1 .2.818.964.964 0 0 1-.1.28l-5.519 13.895c-.196.513-.655.824-1.223.824" fill="#231F20"/><path d="M161.473 123.505h-10.801c-.43 0-.677-.186-.808-.341a.95.95 0 0 1-.196-.79l.057-.235 5.012-12.618s-.011-.093-.154-.294c-.362-.503-.513-.785-.454-1.124.06-.347.351-.757.975-.757h12.187c.87 0 1.565.285 2.067.845.353.396.734 1.09.55 2.148-.04.22-.099.444-.178.663l-3.733 9.367c-.33.868-.942 1.62-1.817 2.225-.876.604-1.786.911-2.707.911zm-4.003-2.79h1.23l4.181-10.549h-1.207l-4.204 10.55z" fill="#231F20"/><path d="M33.31 135.86l-1.071 2.674c-.281.742-.799 1.372-1.553 1.893-.754.521-1.526.781-2.315.781H17.595c-.219 0-.312-.09-.28-.27l.015-.09 5.028-12.619.026-.15c.042-.24-.051-.52-.28-.841-.23-.32-.34-.51-.329-.57.018-.1.102-.151.253-.151h12.187c.655 0 1.16.2 1.519.6.358.402.482.913.374 1.533-.032.18-.08.36-.145.54l-1.072 2.675c-.25.66-.913 1.332-1.989 2.013.439.56.623 1.041.553 1.442-.031.18-.08.36-.145.54zm-7.576 4.026c.25 0 .432-.13.545-.39a756.922 756.922 0 0 0 1.821-4.657c.035-.2-.048-.3-.248-.3h-2.005c-.267 0-.449.131-.545.394a793.19 793.19 0 0 0-1.847 4.657c-.035.198.057.296.274.296h2.005zm2.226-11.653a792.245 792.245 0 0 0-1.859 4.685c-.035.2.057.298.274.298h2.006c.25 0 .432-.13.545-.392 1.231-3.083 1.85-4.644 1.858-4.685.031-.18-.062-.27-.279-.27H28.5c-.268 0-.448.121-.54.364zm4.667 12.975c-.219 0-.312-.09-.28-.27l.015-.09 5.028-12.619c.023-.04.04-.09.051-.15.042-.24-.056-.52-.293-.841-.238-.32-.351-.51-.34-.57.017-.1.101-.151.252-.151h6.22c.2 0 .284.1.249.3-.004.02-.01.05-.016.09l-5.022 12.589-.016.09c-.035.2.056.3.275.3h6.194c.134 0 .196.03.186.09-.008.04-.069.1-.183.18l-1.144.782c-.25.18-.5.27-.752.27H32.627" fill="#FFF"/><path d="M47.925 138.895l-1.525 1.953c-.177.24-.399.36-.667.36h-1.99c-.167 0-.24-.06-.22-.18.007-.04 3.173-4.126 9.497-12.258.132-.18.216-.37.251-.57.025-.14.025-.361.002-.661-.022-.301-.022-.52.003-.661.035-.2.162-.301.38-.301l6.305-.06c.268 0 .407.12.415.36l.17 14-.01.06c-.033.181-.158.271-.376.271h-6.219c-.251 0-.384-.11-.395-.33l-.081-1.983c-.008-.24-.139-.36-.39-.36h-4.457c-.269 0-.5.12-.693.36zm5.48-6.85c0-.1-.025-.15-.076-.15-.067 0-.134.05-.202.15l-3.61 4.807a.614.614 0 0 0-.083.18c-.02.12.045.18.196.18h3.449c.201 0 .32-.1.355-.3l-.03-4.867zm18.896 1.171c-.218 0-.31-.1-.275-.3.07-.4.385-1.211.943-2.433.557-1.221.866-2.003.926-2.344.03-.18-.054-.27-.254-.27h-2.01c-.268 0-.448.121-.54.363l-4.492 11.265a.669.669 0 0 1-.02.09c-.035.2.057.3.275.3h1.99c.268 0 .45-.13.546-.391l1.831-4.567c.096-.26.278-.39.547-.39h4.81c.217 0 .31.1.274.3-.007.04-.5 1.272-1.477 3.695-.298.742-.82 1.372-1.565 1.893-.746.521-1.513.781-2.302.781h-8.385c-.655 0-1.162-.195-1.522-.586-.36-.39-.485-.896-.376-1.517.032-.18.09-.37.175-.57l3.7-9.344c.293-.721.814-1.347 1.562-1.878.747-.53 1.515-.796 2.304-.796h8.385c.655 0 1.161.2 1.52.6.357.402.482.913.373 1.533-.031.18-.08.36-.145.54l-1.442 3.636c-.112.26-.295.39-.546.39H72.3m19.218 2.644l-1.345 3.365-.02.12c-.035.2.118.331.46.391s.506.13.492.21c-.01.06-.454.391-1.332.992-.25.18-.5.27-.752.27h-4.835c-.218 0-.31-.09-.28-.27.077-.44.476-1.447 1.196-3.02.72-1.572 1.122-2.598 1.206-3.079.035-.2-.048-.3-.25-.3h-2.014c-.269 0-.451.13-.547.39l-2.345 5.919c-.109.24-.289.36-.54.36h-4.81c-.218 0-.312-.09-.28-.27l.016-.09 5.027-12.619a.449.449 0 0 0 .052-.15c.042-.24-.056-.52-.294-.841-.238-.32-.35-.51-.34-.57.017-.1.101-.151.252-.151h6.22c.2 0 .284.1.25.3-.004.02-.01.05-.016.09l-2.37 5.919c-.004.02-.01.05-.016.09-.035.2.048.3.25.3.234 0 .456-.12.667-.36l5.659-6.008c.223-.22.46-.331.712-.331h4.633c.151 0 .218.05.2.15a.5.5 0 0 1-.112.21l-5.903 6.4c1.028.26 1.446.941 1.254 2.043-.032.18-.08.36-.145.54" fill="#FFF"/><path d="M107.778 135.86l-1.072 2.674c-.28.742-.798 1.372-1.552 1.893-.755.521-1.526.781-2.315.781H92.062c-.218 0-.311-.09-.28-.27l.016-.09 5.028-12.619.026-.15c.042-.24-.052-.52-.281-.841-.23-.32-.339-.51-.328-.57.017-.1.101-.151.253-.151h12.187c.654 0 1.16.2 1.519.6.358.402.482.913.373 1.533-.031.18-.08.36-.144.54l-1.073 2.675c-.25.66-.912 1.332-1.988 2.013.439.56.623 1.041.553 1.442-.032.18-.08.36-.145.54zm-7.576 4.026c.25 0 .432-.13.544-.39a801.945 801.945 0 0 0 1.822-4.657c.035-.2-.048-.3-.248-.3h-2.005c-.268 0-.45.131-.545.394a772.883 772.883 0 0 0-1.847 4.657c-.035.198.056.296.273.296h2.006zm2.225-11.653a810.403 810.403 0 0 0-1.858 4.685c-.035.2.057.298.274.298h2.005c.25 0 .433-.13.546-.392 1.23-3.083 1.85-4.644 1.857-4.685.032-.18-.061-.27-.278-.27h-2.006c-.267 0-.447.121-.54.364zm4.642 12.975c-.218 0-.311-.09-.28-.27l.016-.09 5.028-12.619.026-.15c.042-.24-.052-.52-.281-.841-.23-.32-.339-.51-.329-.57.018-.1.102-.151.253-.151h6.22c.201 0 .285.1.25.3l-.017.09-5.535 13.941c-.11.24-.29.36-.541.36h-4.81" fill="#FFF"/><path d="M132.058 129.19l-2.119 5.349c-.24.6-.696 1.147-1.369 1.637-.674.49-1.359.806-2.055.946 0 .1.12.757.362 1.968.24 1.212.358 1.838.351 1.878-.028.16-.143.24-.344.24h-4.806c-.269 0-.417-.11-.445-.33l-.399-3.335c-.045-.22-.176-.33-.394-.33-.235 0-.407.12-.516.36l-1.278 3.277c-.11.24-.29.358-.542.358h-4.813c-.22 0-.313-.09-.281-.27l.016-.09 5.027-12.619.027-.15c.042-.24-.053-.52-.282-.841-.23-.32-.338-.51-.327-.57.017-.1.1-.151.252-.151h12.187c.655 0 1.16.2 1.52.6.357.402.482.913.373 1.533-.032.18-.08.36-.145.54zm-8.643 6.67c.268 0 .447-.12.54-.36l2.883-7.27c.02-.02.034-.05.041-.09.031-.181-.062-.27-.28-.27h-2.008c-.269 0-.449.12-.541.362l-2.884 7.27a.384.384 0 0 1-.036.092c-.031.178.062.266.28.266h2.005z" fill="#FFF"/><path d="M133.104 127.238c-.23-.32-.339-.51-.328-.57.017-.1.101-.151.252-.151h12.187c.655 0 1.161.2 1.52.6.357.402.482.913.373 1.533-.031.18-.08.36-.144.54l-3.725 9.344c-.28.742-.798 1.372-1.552 1.893-.755.521-1.518.781-2.29.781h-10.802c-.218 0-.311-.09-.28-.27l.016-.09 5.028-12.619.026-.15c.042-.24-.052-.52-.281-.841zm5.852.994l-4.49 11.266a.522.522 0 0 1-.022.09c-.036.199.056.298.275.298h2.013c.252 0 .434-.13.547-.39l4.464-11.267a.16.16 0 0 0 .041-.09c.032-.18-.061-.27-.28-.27h-2.007c-.269 0-.449.121-.541.363zm13.7 3.633h5.213c.654 0 1.161.195 1.52.585.36.391.486.897.378 1.518-.036.2-.094.39-.176.57l-1.58 3.996c-.298.742-.82 1.372-1.565 1.893-.746.521-1.513.781-2.302.781h-10.802c-.118 0-.171-.03-.16-.09.007-.04.059-.1.156-.18 1.03-.7 1.679-1.052 1.947-1.052h6.194c.269 0 .452-.13.547-.39.872-2.203 1.31-3.315 1.314-3.335.035-.2-.048-.3-.25-.3h-5.212c-.655 0-1.161-.196-1.522-.587-.36-.39-.485-.895-.376-1.517.031-.18.088-.36.17-.54l1.586-4.026c.293-.721.814-1.347 1.562-1.878.747-.53 1.515-.796 2.305-.796h10.801c.118 0 .172.03.16.09-.01.06-.062.12-.157.18-1.032.721-1.683 1.082-1.951 1.082h-6.194c-.27 0-.45.12-.542.36a426.65 426.65 0 0 0-1.314 3.335c-.035.2.049.3.25.3" fill="#FFF"/><path d="M164.452 144.786v-.223h1.139v.223h-.437v1.113h-.266v-1.113h-.436zm1.747-.223l.34.957.344-.957h.38v1.336h-.246v-1.078l-.368 1.078h-.216l-.37-1.078v1.078h-.247v-1.336h.383z" fill="#231F20"/><path d="M59.064 107.415h-4.277c-.679 0-1.272.297-1.65.795-.04-.06-.084-.12-.131-.175-.2-.231-.647-.62-1.412-.62h-5.502c-.268 0-.506.048-.716.132a1.939 1.939 0 0 0-.74-.144h-5.491c-.937 0-1.675.613-1.801 1.533-.072.652.25 1.131.57 1.519l-3.274 8.885a2.143 2.143 0 0 0-.373-.035h-3.412l3.443-9.615.034-.264a1.796 1.796 0 0 0-.43-1.424c-.343-.387-.835-.6-1.386-.6h-5.903c-.935 0-1.67.615-1.794 1.534-.07.642.243 1.118.56 1.505l-3.896 10.897-.042.288c-.062.52.088 1.015.424 1.394.201.226.652.605 1.418.605h9.266a2.7 2.7 0 0 0 1.57-.506l.161-.108.002.002c.2.228.654.612 1.431.612h4.113c.874 0 1.603-.473 1.948-1.264l.001-.004c.066.086.132.166.198.235.435.466 1.223 1.02 2.506 1.02h7.449c1.03 0 2.019-.331 2.94-.984.908-.642 1.553-1.44 1.922-2.382l3.96-10.377.057-.155.041-.251a1.759 1.759 0 0 0-.396-1.435c-.34-.395-.833-.613-1.388-.613zm.948 1.92l-.053.233-3.96 10.376c-.304.78-.848 1.448-1.62 1.993-.776.55-1.6.829-2.451.829h-7.449c-.787 0-1.422-.253-1.89-.751-.333-.358-.696-.987-.541-1.962.035-.219.099-.433.196-.655l3.473-9.155c-.002.012-.024-.068-.13-.214-.047-.064-.082-.117-.122-.175l-4.45 12.128c-.226.52-.653.796-1.189.796h-4.113c-.422 0-.666-.177-.796-.324a.917.917 0 0 1-.214-.733l.003-.013-.009.007-1.048.701a1.89 1.89 0 0 1-1.1.362h-9.266c-.414 0-.655-.174-.785-.32a.917.917 0 0 1-.217-.731l.047-.24 4.004-11.197a1.086 1.086 0 0 0-.143-.2c-.356-.417-.569-.696-.529-1.062.054-.396.367-.779.953-.779h5.903c.391 0 .625.171.753.315.178.2.257.47.223.763l-.048.239-3.79 10.585h4.613c.305 0 .545.095.712.284l.112.127 3.774-10.248a.922.922 0 0 0-.154-.227c-.354-.414-.567-.692-.526-1.059.054-.397.37-.779.96-.779h5.491c.378 0 .607.156.74.296.151-.164.382-.284.716-.284h5.502c.406 0 .642.177.77.324a.92.92 0 0 1 .2.753l-.053.23-4.05 10.57h.925l4.249-11.09c.18-.49.612-.787 1.152-.787h4.277c.39 0 .621.173.747.318a.93.93 0 0 1 .201.757zm35.723 10.816h.947l3.438-9.248h-.948l-3.437 9.248m35.745-3.258a3.597 3.597 0 0 1-.126.604l-.89 2.595c.23.065.407.157.535.271l3.722-10.104c-.007-.013-.02-.04-.04-.074l-3.999 4.564c.62.472.903 1.214.798 2.144zm.946-2.85l-.395 1.072a2.884 2.884 0 0 0-.211-.381l.606-.691zm-19.064-3.14h-.948l-3.438 9.248h.947l3.439-9.248m-27.142 0l-2.08 5.663h.93l2.08-5.663h-.93m-6.055-.66c-.004.005-.07-.078-.372-.245a.033.033 0 0 0-.006-.003c.088.16.138.328.15.5l.228-.252m-6.815.66h-.96a1579.43 1579.43 0 0 0-1.237 3.31h.959c.284-.756.891-2.374 1.239-3.31m3.993 4.811c.159.299.242.584.26.862l.618-1.683c-.231.276-.52.55-.878.821m-8.404 4.437h.957l1.218-3.31h-.94a1756.46 1756.46 0 0 0-1.236 3.31m20.147-.144c.093.41.164.722.217.967a2.567 2.567 0 0 1-.019-.898c.033-.218.094-.437.187-.672l.358-.968a5.39 5.39 0 0 1-.984.492c.053.245.13.59.241 1.079m54.526-3.863c-.018-.05-.034-.1-.049-.154l-1.425-5.386s-.062-.152-.337-.586c-.14-.219-.244-.381-.318-.515l-.016.069-3.9 10.58h4.215c.132 0 .25.021.356.058l1.468-4.048.006-.018zm-2.046 3.161h-2.785l2.785-7.556 1.156 4.37-1.156 3.186z" fill="#C6C5C5"/><path d="M170.01 108.01c-.343-.392-.84-.607-1.397-.607h-1.808c-.922 0-1.677.546-1.958 1.39l-1.176 3.293-.636-3.131-.015-.067c-.225-.902-.993-1.485-1.959-1.485h-5.454a2.01 2.01 0 0 0-.317-.027h-1.793c-.668 0-1.295.288-1.776.82l-1.755 1.966-.187-1.193c-.168-.954-.955-1.593-1.956-1.593h-5.54a1.89 1.89 0 0 0-.895.213 1.877 1.877 0 0 0-.817-.186h-5.499c-.118 0-.232.01-.343.03a1.921 1.921 0 0 0-.335-.03h-4.202c-.46 0-1.137.134-1.756.769l-1.099 1.226a1.8 1.8 0 0 0-.436-1.4 1.81 1.81 0 0 0-1.372-.595h-5.644c-.388 0-.74.116-1.032.31a3.6 3.6 0 0 0-1.505-.31h-7.499c-1.04 0-2.034.338-2.964 1.007-.059.042-.107.091-.165.136a1.772 1.772 0 0 0-.09-.106c-.438-.473-1.233-1.037-2.523-1.037h-7.5c-1.04 0-2.036.338-2.962 1.007-.01.006-.017.014-.026.02-.441-.472-1.23-1.027-2.507-1.027H80.288c-.467 0-.884.16-1.2.429-.44-.244-1.009-.43-1.745-.43H66.395c-.923 0-1.655.61-1.777 1.465-.099.638.19 1.123.478 1.521l-4.044 10.792-.062.14-.022.195a2.44 2.44 0 0 0-.015.106 1.752 1.752 0 0 0 .405 1.387c.198.23.646.617 1.412.617h9.681c.944 0 1.857-.28 2.718-.822.046.071.088.143.145.208.198.229.645.614 1.408.614h4.275a2.02 2.02 0 0 0 1.592-.736c.356.46.92.736 1.582.736h4.267c.545 0 1.02-.211 1.358-.551.46.302 1.096.55 1.957.55h7.498c1.035 0 2.027-.33 2.945-.983.065-.046.118-.099.18-.146.036.04.071.084.105.12.439.461 1.231 1.01 2.514 1.01h7.498c.93 0 1.824-.27 2.664-.798.044.067.087.137.142.198.2.224.646.6 1.403.6h4.364c.68 0 1.283-.31 1.666-.833.052.081.109.159.174.231.2.225.647.602 1.404.602h4.388a2.62 2.62 0 0 0 1.521-.496c.235.223.65.496 1.292.496h8.63c.449 0 .89-.129 1.284-.353.317.245.712.38 1.148.38h4.244c.86 0 1.6-.51 1.933-1.33l1.942-5.422a.327.327 0 0 1 .062-.088l1.915-2.153-2.376 6.536-.064.23a2.191 2.191 0 0 0-.026.163 1.753 1.753 0 0 0 .403 1.421c.2.23.647.616 1.411.616h1.81c.86 0 1.598-.496 1.927-1.294l1.2-3.381.64 3.107c.174.94.955 1.568 1.954 1.568h4.318c.92 0 1.67-.532 1.952-1.357l4.468-12.333a1.63 1.63 0 0 0 .147-.526 1.787 1.787 0 0 0-.423-1.4zm-.418 1.31a.874.874 0 0 1-.088.292l-4.481 12.367c-.168.495-.603.8-1.157.8h-4.318c-.593 0-1.035-.353-1.127-.9l-1.25-6.073-2.186 6.168c-.212.516-.64.804-1.158.804h-1.81c-.406 0-.644-.176-.771-.323a.921.921 0 0 1-.206-.746 1.75 1.75 0 0 1 .019-.119l.029-.106 3.886-10.693-4.853 5.46c-.114.125-.19.251-.233.385l-1.912 5.341c-.217.537-.635.829-1.16.829h-4.243c-.398 0-.634-.174-.762-.322a.905.905 0 0 1-.188-.363l-.409.286a1.794 1.794 0 0 1-1.073.371h-8.63c-.404 0-.64-.175-.766-.321a.898.898 0 0 1-.214-.587c-.19.143-.435.315-.748.536a1.818 1.818 0 0 1-1.085.372h-4.388c-.404 0-.643-.172-.77-.316a.92.92 0 0 1-.22-.734c.036-.314.177-.929.96-2.874.402-.999.622-1.623.74-2.013h-1.056l-1.74 5.125c-.212.529-.628.812-1.158.812h-4.364c-.405 0-.643-.172-.772-.316a.927.927 0 0 1-.22-.732l.728.028-.72-.082.037-.179.147-.431c-.263.324-.58.62-.952.884-.774.55-1.602.828-2.457.828h-7.498c-.789 0-1.429-.251-1.9-.747a2.129 2.129 0 0 1-.506-.886 4.82 4.82 0 0 1-.88.805c-.775.55-1.602.828-2.458.828h-7.498c-.789 0-1.429-.251-1.9-.747a2.134 2.134 0 0 1-.527-.959c.155.708.148.753.128.883-.068.487-.477.823-1.016.823h-4.267c-.593 0-1.033-.355-1.12-.905l-.25-1.696-.65 1.803c-.222.522-.637.798-1.154.798h-4.275c-.405 0-.642-.175-.769-.321a.922.922 0 0 1-.206-.747l.05-.23.212-.577a4.56 4.56 0 0 1-1.083 1.05c-.785.548-1.618.825-2.475.825H62.77c-.407 0-.644-.176-.771-.323a.917.917 0 0 1-.203-.749l.008-.06.04-.168 4.191-11.22c-.003.02-.03-.065-.136-.207-.314-.42-.5-.7-.445-1.054.053-.368.365-.748.941-.748h10.948c.794 0 1.436.257 1.91.765.036.04.067.081.1.122-.002-.044-.01-.088-.003-.133.056-.376.367-.754.938-.754h10.824c.788 0 1.427.258 1.898.767.19.209.333.443.43.697a5.27 5.27 0 0 1 .7-.618c.78-.562 1.61-.846 2.467-.846h7.5c.791 0 1.432.257 1.904.766.239.258.406.555.5.883.248-.288.534-.559.872-.803.778-.562 1.607-.846 2.466-.846h7.499c.663 0 1.214.191 1.655.55.118-.295.407-.55.882-.55h5.644a.96.96 0 0 1 .74.311c.178.2.257.47.224.764l-.044.234-1.173 3.408 3.746-4.182c.434-.446.873-.535 1.17-.535h4.202c.133 0 .238.024.335.055a1.1 1.1 0 0 1 .343-.055h5.499c.405 0 .637.198.74.318.032.037.07.096.106.162.124-.278.41-.507.867-.507h5.539c.587 0 1.027.35 1.122.893l.463 2.946 2.944-3.303c.402-.444.844-.536 1.145-.536h1.793c.093 0 .176.01.251.027h5.52c.572 0 1.008.324 1.138.844l1.248 6.137 2.197-6.152c.17-.514.607-.829 1.161-.829h1.808c.397 0 .634.173.76.319a.951.951 0 0 1 .219.751z" fill="#C6C5C5"/><path d="M23.283 122.053c-.207 0-.302-.08-.282-.24l.01-.08 4.017-11.235a.319.319 0 0 0 .04-.133c.026-.214-.083-.463-.329-.748-.245-.287-.364-.456-.358-.509.012-.09.088-.134.232-.134h5.903c.191 0 .276.09.255.267l-.01.08-4.014 11.21-.01.077c-.02.18.072.268.28.268h5.25c.127 0 .188.027.181.08-.004.037-.06.09-.163.161l-1.04.696c-.226.16-.458.24-.696.24h-9.266m108.227 0c-.192 0-.276-.08-.254-.24l.012-.08 4.138-11.235a.341.341 0 0 0 .042-.133c.031-.214-.062-.463-.28-.748-.217-.287-.323-.456-.314-.509.013-.09.086-.134.218-.134h5.499c.178 0 .254.09.23.267-.005.019-.008.045-.014.08l-4.133 11.21-.014.077c-.025.18.058.268.253.268h4.889c.118 0 .175.027.166.08-.005.037-.057.09-.157.161l-.992.696c-.217.16-.436.24-.658.24h-8.63m-95.798 0c-.214 0-.31-.08-.29-.24l.01-.08 4.14-11.235.016-.133c.026-.214-.083-.463-.326-.748-.245-.287-.363-.456-.357-.509.012-.09.09-.134.239-.134h5.491c.198 0 .285.09.264.267l-.011.08-4.555 12.411c-.094.215-.262.32-.508.32h-4.113m8.767-.012c-.582 0-1.035-.173-1.361-.521-.325-.348-.443-.8-.355-1.352.026-.16.075-.32.145-.481l3.503-9.201.022-.134c.034-.214-.053-.464-.26-.749-.21-.284-.309-.455-.3-.508.01-.07.084-.107.218-.107h5.502c.193 0 .278.08.253.24l-.014.082-4.292 11.206-.014.082c-.028.177.055.267.248.267h1.764c.237 0 .398-.117.48-.35l4.293-11.207c.079-.213.236-.32.475-.32h4.277c.179 0 .255.08.23.24l-.013.082-3.959 10.377c-.251.642-.706 1.196-1.361 1.66-.656.463-1.333.695-2.033.695h-7.449m32.28-4.75l-.897 2.38c-.235.662-.685 1.224-1.35 1.687-.665.463-1.352.695-2.06.695H62.77c-.197 0-.28-.08-.257-.24.003-.037.009-.062.01-.08l4.21-11.235c.005-.035.011-.08.02-.133.032-.214-.06-.463-.274-.748-.213-.287-.316-.456-.308-.509.013-.09.088-.134.224-.134h10.948c.588 0 1.048.179 1.379.535.331.357.456.81.374 1.363a2.977 2.977 0 0 1-.118.482l-.898 2.38c-.207.59-.787 1.187-1.737 1.792.408.5.586.93.532 1.284a2.722 2.722 0 0 1-.116.481zm-6.71 3.585c.227 0 .387-.116.481-.346a580.354 580.354 0 0 0 1.522-4.148c.026-.177-.051-.266-.23-.266h-1.801c-.24 0-.4.117-.48.35a654.47 654.47 0 0 0-1.544 4.146c-.028.176.056.264.251.264h1.802zm1.717-10.375a858.706 858.706 0 0 0-1.556 4.17c-.026.18.058.268.253.268h1.802c.224 0 .386-.117.48-.35 1.03-2.745 1.55-4.135 1.555-4.17.024-.161-.062-.242-.258-.242h-1.8c-.241 0-.4.11-.476.324zm33.714-.992c.33.357.454.81.372 1.363a2.824 2.824 0 0 1-.115.482l-3.094 8.318c-.248.66-.699 1.223-1.353 1.686-.653.463-1.332.695-2.039.695h-7.498c-.586 0-1.044-.173-1.375-.521-.332-.348-.457-.797-.376-1.35.024-.161.072-.33.143-.51l3.071-8.318c.244-.641.696-1.2 1.35-1.672.656-.472 1.335-.708 2.041-.708h7.5c.584 0 1.042.179 1.373.535zm-8.644 11.367c.24 0 .398-.116.478-.346l3.73-10.032a.892.892 0 0 0 .01-.08c.025-.16-.054-.24-.232-.24h-1.798c-.24 0-.398.108-.476.322l-3.728 10.03a.643.643 0 0 1-.016.08c-.027.177.056.265.253.265h1.779zm21.885-11.367c.33.357.454.81.373 1.363a2.822 2.822 0 0 1-.116.482l-3.093 8.318c-.249.66-.699 1.223-1.354 1.686-.653.463-1.331.695-2.038.695h-7.498c-.586 0-1.044-.173-1.375-.521-.331-.348-.458-.797-.376-1.35a2.28 2.28 0 0 1 .143-.51l3.07-8.318c.245-.641.696-1.2 1.35-1.672.656-.472 1.336-.708 2.042-.708h7.499c.585 0 1.043.179 1.373.535zm-8.643 11.367c.24 0 .398-.116.478-.346l3.73-10.032c.002-.017.007-.044.01-.08.025-.16-.054-.24-.233-.24h-1.797c-.24 0-.4.108-.475.322l-3.73 10.031a.772.772 0 0 1-.015.08c-.027.177.056.265.252.265h1.78zm45.212-11.929c.135 0 .195.045.182.133-.004.037-.033.09-.088.161l-5.805 6.527a1.81 1.81 0 0 0-.38.642l-1.906 5.323c-.093.232-.252.348-.476.348h-4.244c-.196 0-.279-.09-.255-.268a.109.109 0 0 1 .03-.054l1.94-5.35c.045-.124.077-.24.093-.347a.855.855 0 0 1-.12-.267l-1.421-5.376c-.052-.161-.195-.424-.427-.79-.234-.365-.35-.557-.344-.574.008-.072.08-.108.215-.108h5.539c.239 0 .373.098.408.294l.65 4.147c.019.088.057.134.118.134.06 0 .125-.046.195-.134l3.7-4.147c.177-.196.378-.294.603-.294h1.793m-62.558 2.407l-1.748 4.762c-.198.534-.59 1.021-1.175 1.458-.586.436-1.186.717-1.8.841 0 .09.125.674.37 1.753.244 1.078.365 1.636.36 1.672-.022.143-.121.213-.3.213H84.17c-.24 0-.373-.096-.404-.294l-.437-2.97c-.047-.195-.165-.293-.36-.293-.209 0-.358.108-.449.321l-1.052 2.917c-.092.213-.25.319-.472.319h-4.275c-.195 0-.28-.08-.257-.24l.012-.08 4.147-11.235.02-.133c.031-.214-.06-.463-.27-.748-.213-.287-.314-.456-.306-.509.013-.09.086-.134.22-.134h10.824c.581 0 1.036.179 1.366.535.326.357.448.81.367 1.363a2.81 2.81 0 0 1-.113.482zm-7.509 5.937c.239 0 .394-.106.47-.32l2.378-6.473a.141.141 0 0 0 .035-.08c.023-.16-.063-.24-.257-.24h-1.783c-.238 0-.395.108-.47.322l-2.379 6.474a.36.36 0 0 1-.03.082c-.024.157.061.235.255.235h1.781zm45.434 0l-1.027 2.997-.01.107c-.022.178.125.294.439.348.312.054.466.116.459.186-.007.054-.392.348-1.152.884-.218.16-.44.24-.668.24h-4.388c-.198 0-.288-.08-.27-.24.045-.393.35-1.29.914-2.689.563-1.4.869-2.314.918-2.742.02-.177-.06-.266-.243-.266H123.8c-.245 0-.403.116-.474.347l-1.79 5.27a.468.468 0 0 1-.47.32h-4.365c-.2 0-.29-.08-.27-.24l.01-.08 3.84-11.235a.35.35 0 0 0 .038-.133c.025-.214-.081-.463-.313-.748-.235-.287-.35-.456-.343-.509.011-.09.084-.134.22-.134h5.645c.182 0 .264.09.244.267a1.948 1.948 0 0 0-.01.08l-1.812 5.27c-.001.018-.006.044-.009.08-.017.18.061.268.244.268.213 0 .408-.108.585-.322l4.791-5.35c.19-.195.4-.293.63-.293h4.202c.138 0 .201.045.191.134a.414.414 0 0 1-.09.186l-4.99 5.698c.946.232 1.365.84 1.255 1.818-.02.162-.055.322-.103.481" fill="#FFF"/><path d="M155.59 109.617c-.217-.287-.32-.456-.312-.509.01-.09.084-.134.221-.134h5.562c.24 0 .385.098.434.294l1.697 8.346a.207.207 0 0 0 .072.133c.046 0 .082-.054.111-.161l2.952-8.264c.077-.231.236-.348.478-.348h1.808c.197 0 .28.09.257.267a.232.232 0 0 1-.032.08l-4.497 12.411c-.074.215-.233.32-.475.32h-4.318c-.242 0-.378-.095-.411-.293l-1.719-8.345c-.008-.053-.032-.089-.076-.107-.03 0-.068.054-.112.16l-2.929 8.265a.476.476 0 0 1-.474.32h-1.81c-.195 0-.283-.079-.259-.24l.012-.08 4.082-11.234c.007-.035.01-.08.02-.133.029-.214-.064-.463-.282-.748" fill="#FFF"/></g></svg>