<svg width="200" height="200" xmlns="http://www.w3.org/2000/svg"><g fill="none"><path d="M160.32 109.575l-22.21 3.689h-25.216c-.226-4.541 2.403-8.243 3.83-9.9 1.76.724 3.85 1.15 6.1 1.15 4.202 0 7.864-1.47 9.802-3.644 1.657.758 3.194 1.606 4.49 2.562 7.932 5.844 14.724 3.787 14.724 3.787l6.931-9.198-1.358-2.345.894-2.886-4.109-5.916h-1.287l-10.469-7.828-1.716-2.958c-6.361-3.607-12.183-5.05-12.183-5.05-8.796-7.551-19.45-8.035-23.044-7.96a12.78 12.78 0 0 1 2.246 2.739c-4.678-.81-8.046-.676-10.17-.38-.146 2.118.021 3.798.021 3.798-17.52.732-30.671 5.613-33.535 6.756 2.877.36 9.066 1.172 12.632 1.9 0 0-8.048 2.592-18.26 8.371 0 0-1.532-.582-3.798-1.35-2.188 1.255-5.093 3.081-8.528 5.62 0 0-9.715-3.418-21.835-5.901 1.573 3.691 3.798 8.989 4.094 10.118 0 0-11.007.75-23.563 3.188 7.593 2.777 23.926 8.97 36.701 15.327H7.175L.143 124.557h80.713a583.503 583.503 0 0 1 14.088 10.069c6.004 4.438 10.883.65 10.883.65l17.178-10.719h10.927l17.713 3.669 48.291-10.323-39.617-8.328" fill="#999D9E"/><path d="M160.271 111.95L138.3 115.6h-24.056a453.3 453.3 0 0 1 4.187 2.88c1.331.929 2.498 1.483 3.473 1.807h13.49l17.47 3.616 35.816-5.98-28.408-5.972" fill="#15213B"/><path d="M160.598 115.272l-15.997 2.65h28.615l-12.618-2.65" fill="#FFF"/><path d="M154.888 95.888l.886-2.7-2.823-4.035-.784-.028-11.43-8.513-1.681-2.809c-5.54-3.19-11.637-4.675-11.637-4.675-7.708-6.805-16.687-7.311-16.687-7.311 1.436 1.781 2.795 4.337 2.795 4.337-7.27-3.259-13.721-2.597-13.721-2.597-.012 1.52.577 3.018 1.097 4.043-13.116-.358-26.467 3.5-26.467 3.5 5.81.86 10.825 2.897 10.825 2.897s-10.922 1.626-26.627 10.818c-2.484-1-3.79-1.425-3.79-1.425-4.065 2.45-8.364 5.721-8.364 5.721-10.96-3.679-18.438-5.3-18.438-5.3a1887.35 1887.35 0 0 0 3.814 9.156c-8.954.256-18.516 1.66-18.516 1.66.249.091 15.952 5.745 31.684 13.805.776.441 1.58.503 2.147.08.778-.583.848-1.903.253-3.173 0 0-1.738-3.58-2.147-4.428-.693-1.368-.59-2.819.252-3.45.605-.454 1.228-.471 2.303.117 0 0 10.059 5.329 23.718 14.021H9.642l-2.905 4.688h72.019c5.68 3.779 11.733 8.01 17.791 12.583 0 0 3.934 3.03 7.354.858l17.503-10.921s-2.574.86-6.837-2.113C90.74 104.082 73.027 95.121 63.31 90.802c8.28 1.452 15.52 4.884 15.52 4.884 12.87-16.703 28.706-20.01 28.706-20.01-2.268-2.497-2.493-4.493-2.493-4.493l11.851 4.924c-.054-1.48-.69-2.635-.69-2.635 10.1 1.182 17.458 4.195 20.435 5.587a42.28 42.28 0 0 1 2.09 3.241c4.223 2.779 9.302 6.433 9.302 6.433 1.67 1.084 2.94 2.905 3.059 4.58.149 2.127-1.618 3.213-3.943 2.422-1.922-.653-3.619-2.383-4.237-4.165-2.594-.766-8.314-2.235-10.75-2.854-2.214 2.04-5.41 3.325-8.97 3.325-5.31 0-9.813-2.855-11.448-6.824-10.645 5.328-16.656 18.684-16.656 18.684 4.694 2.58 15.314 9.253 15.314 9.253-.065-6.075 3.56-10.422 5.908-12.596 1.83 1.016 4.06 1.619 6.47 1.619 3.93 0 7.385-1.59 9.392-3.993a29.067 29.067 0 0 1 6.78 3.686c6.079 4.45 11.564 3.24 11.564 3.24l5.503-7.29-1.13-1.932" fill="#15213B"/><path d="M107.537 75.675s-15.835 3.308-28.706 20.01c0 0 16.225-14.91 32.202-17.659 0 0-1.748-.513-3.496-2.35m40.496 13.057s-5.08-3.654-9.302-6.433c0 0-.982-1.71-2.09-3.241-2.977-1.392-10.335-4.405-20.436-5.587 0 0 .636 1.154.691 2.635 0 0 9.769.342 18.34 4.31l2.028 3.229s5.178 3.012 10.356 6.821c1.913 1.408 2.77 3.153 2.883 4.775.423-.462.645-1.12.588-1.928-.12-1.676-1.389-3.497-3.058-4.581" fill="#FFF"/><path d="M135.416 81.948c-5.29-2.795-8.828-3.692-8.828-3.692-3.42 0-4.983 1.62-4.983 1.62.116.011 1.382.022 2.85.598-.11.179-.195.366-.244.562-.381 1.53 1.295 2.94 3.748 3.147 1.887.159 3.878-.511 4.81-1.71 1.908.072 2.647-.525 2.647-.525" fill="#15213B"/><path d="M128.233 80.368c-.392.22-.66.509-.74.828a.889.889 0 0 0 .17.757c.32.431.973.728 1.746.793.93.078 1.814-.193 2.294-.648a15.66 15.66 0 0 1-2.045-1.045 7.908 7.908 0 0 0-1.425-.685" fill="#FFF"/></g></svg>