<svg width="200" height="200" xmlns="http://www.w3.org/2000/svg"><g fill="none" fill-rule="evenodd"><path d="M86.178 103.1c-1.82-10.354 6.914-16.694 6.914-16.694 9.557.55 15.417 4.031 16.86 4.981-7.844 2.689-16.425 6.479-23.774 11.713ZM195.03 21.567c-31.611-9.612-72.881-10.121-104.61.826-18.945-15.817-39.802-9.866-47.615-6.094 0 0 15.51 11.482 4.499 37.525-1.998 4.725-7.056 11.551-7.806 20.44C3.926 89.9 0 99.58 0 99.58c19.593-4.993 41.449-8.729 41.449-8.729 5.564 17.471 19.179 25.445 19.632 26.552 6.684 16.3 5.894 14.639 6.098 14.261 4.703-8.765 4.124-7.949 4.49-7.752 2.12 1.133 3.4 1.751 4.174 2.11.122 36.21 23.694 61.867 23.699 61.808 1.37-17.212 2.908-41.146 11.885-57.273 7.62-13.127 28.874-27.303 32.651-29.44 2.693-1.521 5.145-.446 5.233-.418 2.015.668 1.657.638 1.95.367 12.542-11.674 22.441-17.05 22.441-17.05-21.233-1.665-33.226.193-36.792.899-.119-3.375-.788-7.218-2.303-11.526 47.11-14.577 37.998-24.024 36.38-25.35 10.76-1.748 20.988-7.986 27.318-15.539 3.15-3.766 1.418-9.506-3.275-10.934Z" fill="#FFFFFE"/><path d="M178.484 32.322c-5.397-.776-5.707 2.819-8.305 3.47 7.127.942 3.302-2.856 8.305-3.47ZM48.645 66.532c22.156-29.203 65.889-37.379 107.958-35.834a3.092 3.092 0 0 1-.41-1.951 3.324 3.324 0 0 1 1.04-2.057c-46.138-3.455-93.768 9.121-108.588 39.841ZM158.037 28.19a.922.922 0 0 1-.61-.234 2.666 2.666 0 0 0-.238 1.027 2.544 2.544 0 0 0 2.558 2.633 2.728 2.728 0 0 0 2.674-2.286c.511.296.9.775 1.073 1.355 4.894-.471 10.637-.877 15.352-1.17a193.946 193.946 0 0 0-17.16-2.443c-.784-.763-1.962-.94-2.97-.444a.93.93 0 0 1-.679 1.562Zm-35.443 69.094c-.53-.6-1.14-1.247-1.741-1.848-13.501 4.32-24.555 10.367-30.274 15.204-1.09-.791-2.242-2.05-3.188-4.041 8.272-6.108 19.058-10.719 30.377-13.943-7.033-5.712-16.034-9.098-26.047-9.311-15.917 12.16-10.14 33.726 8.066 41.421 0 0-5.5-4.686-3.073-8.933l.006-.022c5.744-8.49 15.548-14.446 25.874-18.527Zm72.654-67.341c-3.75 4.483-13.122 12.72-26.355 14.358l-3.8 3.857c2.026 1.394 2.946 2.802 2.875 3.388-.523 4.312-2.99 8.38-39.481 18.514 6.608 9.979 6.922 22.294 2.261 32.977l.011.03s5.262-4.87 6.069-14.527c9.433-1.429 18.471-1.932 25.958-1.565-4.786 2.987-11.068 8.891-12.34 10.103a.55.55 0 0 1-.537.125c-2.629-.772-5.503-.36-7.881 1.134-26.334 16.544-33.78 30.856-33.78 30.856-9.745 16.408-11.628 48.902-11.628 48.902-11.205-15.469-17.646-34.547-17.207-54.301a94.695 94.695 0 0 1-9.33-4.82l-2.582 4.808-3.653-8.91c-13.119-9.616-18.023-20.252-19.95-28.314-12.942 2.307-26.983 6.276-36.87 9.077 8.097-8.29 46.134-25.453 81.38-27.814-.688-1.13-2.718-1.883-5.73-2.227a28.944 28.944 0 0 0-1.047-.102c1.734-8.315 7.137-17.226 12.093-23.166-2.874 5.548-6.176 14.73-6.323 22.072.84-.288 1.667-.565 2.486-.834 1.42-9.604 6.644-19.273 12.454-26.255-3.759 6.914-6.797 16.129-6.662 24.443 24.187-7.162 36.69-6.095 36.734-6.1 11.989 4.71 27.33.517 30.193-3.585-4.186-.52-13.944-3.506-15.985-5.16.527.129 1.682.355 3.112.677l-1.141-3.779-3.202 2.506-1.276-3.498-2.498 1.786c-1.034-.61-2.035-1.284-2.574-1.789-1.731.055-7.733 2.337-7.733 2.337 17.621-12.792 15.875-5.963 31.88-5.189 4.112.2 8.71-.07 13.21-1.738 4.642-1.722 8.33-4.189 10.604-6.862.863-1.013.394-2.572-.89-2.926-42.202-11.647-77.472-6.299-102.283 4.504.557-1.084 1.28-2.032 1.999-2.807-10.973-11.133-26.175-10.471-29.546-9.872.029.076 6.53 11.667 2.092 25.641 4.462-4.536 9.635-8.474 15.357-11.845-1.66-7.954-9.001-11.732-12.358-13.067 6.2 1.278 16.134 4.72 18.422 13.797-14.992 7.214-25.695 16.362-31.21 24.507 15.868-29.024 1.432-41.27 1.432-41.27.035.008 20.152-8.661 39.304 8.693 31.353-11.694 72.181-10.973 104.548-1.332 1.969.587 2.696 2.986 1.378 4.562ZM79.4 65.386c.707-5.928 3.253-13.002 5.708-18.044-3.71 4.433-8.583 11.47-11 18.199a58.925 58.925 0 0 1 5.292-.155Zm-12.53.985c2.504-4.863 6.442-10.229 9.621-14.013-1.435 3.199-3.546 8.565-4.714 13.384a94.729 94.729 0 0 0-4.908.63Z" fill="#68A8D0"/><path d="M56.283 20.257c.096-.017.204-.034.32-.051-.208.029-.32.051-.32.051" fill="#F6C03C"/><path d="M57.2 102.128c-3.95-5.28-5.627-11.94-6.341-16.652-.97.133-1.481.193-3.009.426 1.214 6.01 4.12 12.99 11.716 19.918a43.452 43.452 0 0 1-2.4-3.808l.034.116M136.101 92.96c6.03-1.536 11.694-2.51 16.238-3.06-5.395.129-10.743.721-15.924 1.651-.094.485-.2.954-.314 1.409" fill="#FFFFFE"/><path d="M54.476 85.002c-1.195.15-2.401.307-3.617.474.714 4.712 2.392 11.372 6.341 16.652l-.04-.132c-2.616-5.387-3.03-11.798-2.684-16.994Zm-5.831-18.47c8.9-6.645 17.094-9.2 24.72-10.24a95.611 95.611 0 0 1 3.125-3.934 89.022 89.022 0 0 0-1.568 3.74 79.575 79.575 0 0 1 4.093-.345 77.103 77.103 0 0 1 6.092-8.411 70.976 70.976 0 0 0-3.375 8.282c1.16-.043 2.308-.072 3.443-.097 2.412-4.959 5.561-9.62 8.55-13.201-1.772 3.42-3.706 8.22-4.965 13.12 1.084-.028 2.157-.065 3.218-.12 2.382-6.705 6.224-13.043 10.363-18.017-2.759 5.075-5.13 11.39-6.143 17.68 3.579-.415 7.031-1.203 10.378-2.785 3.285-9.461 11.638-13.75 11.638-13.75-3.02 3.223-2.412 8.484-2.412 8.484 10.934-9.882 27.38-14.547 40.801-16.24-42.07-1.545-85.802 6.631-107.958 35.833Zm9.73-20.634c4.462-4.536 9.635-8.474 15.357-11.845-1.661-7.956-9.003-11.733-12.358-13.067-2.974-.613-5.091-.729-5.091-.729.029.076 6.53 11.667 2.092 25.641Zm27.781 87.93c-.354 10.154 2.143 20.343 7.661 29.387-.134-5.237.533-10.198 1.94-13.99-4.938-3.847-8.19-9.198-9.6-15.398Zm33.06-32.868s-17.23 14.998-17.398 22.052c-2.763-2.497-2.678-5.227-2.678-5.227 1.821-5.953 20.076-16.825 20.076-16.825Z" fill="#F6C03C"/><path d="m153.97 45.015-3.16 2.8c1.309.282 2.808.572 4.324.795l-1.165-3.595Zm5.607 3.956-.743-2.424-2.429 2.233c2.175.273 4.3.37 5.851.06l-.381-2.642-2.298 2.773Zm3.652-5.155.29 2.038 1.935-1.926c-.561.02-1.152.018-2.225-.112Zm-3.7-.683.822 2.667 2.008-2.102a35.258 35.258 0 0 1-2.83-.565Zm-4.06-1.066.83 2.842 2.363-1.992c-1.01-.253-3.144-.837-3.194-.85Zm-4.029 1.844-.926-3.061c1.062.196 2.254.496 3.472.823l-2.546 2.238Z" fill="#FFFFFE"/></g></svg>