<svg width="200" height="200" xmlns="http://www.w3.org/2000/svg"><g fill="none"><path d="M165.968 130.232c1.93.324 3.816.836 5.609 1.55-1.117-1.659-3.077-4.107-5.97-6.139.219.998.445 2.596.361 4.59m-1.93 8.027c2.132-.89 4.399-2.016 6.825-3.443-.886-.42-2.608-1.093-5.242-1.534a22.493 22.493 0 0 1-1.583 4.976m-6.418-15.943c.473 1.671 1.075 4.403 1.079 7.407a42.775 42.775 0 0 1 4.794.181c-.104-1.97-.488-4.09-1.336-6.216a19.323 19.323 0 0 0-4.537-1.372m-9.655 18.077c.168-1.35.393-3.574.462-6.162a79.299 79.299 0 0 0-6.719 1.829c1.085 1.829 3.169 3.501 6.257 4.333m.962.224c1.708.344 3.699.427 5.958.174.333-1.452.991-4.614 1.207-7.776a55.395 55.395 0 0 0-5.14.707c-.278 2.882-1.328 5.455-2.025 6.895m.053-18.087c.623 1.718 1.562 4.702 1.92 7.878a63.71 63.71 0 0 1 5.213-.58c-.203-3.275-1.155-6.15-1.844-7.828-2.026-.069-3.775.13-5.288.53m-2.681 1.057c-3.632 1.974-5.216 5.513-5.458 9.16 1.184-.385 3.921-1.199 7.489-1.889-.352-3.045-1.436-5.887-2.031-7.271m12.165 9.282c-.517 3.62-1.62 6.368-2.26 7.731 1.838-.302 3.84-.827 6.011-1.624a24.925 24.925 0 0 0 1.234-5.978 38.294 38.294 0 0 0-4.985-.13M130.95 94.75c-1.331 3.1-4.404 5.272-7.982 5.272-4.805 0-8.695-3.9-8.695-8.71a8.702 8.702 0 0 1 5.39-8.05h.003c-2.493-2.278-4.037-3.512-4.047-3.53-4.622 2.159-7.83 6.848-7.83 12.295 0 7.494 6.062 13.576 13.54 13.576 5.428 0 10.085-3.205 12.244-7.817a169.697 169.697 0 0 0-2.618-3.04l-.005.003" fill="#FFF"/><path d="M127.408 94.272a3.39 3.39 0 0 0 2.307-.899 163.02 163.02 0 0 0-4.765-5.033 3.445 3.445 0 0 0-1.018 2.447 3.481 3.481 0 0 0 3.476 3.485" fill="#FFF"/><path d="M159.75 93.407c-18.651-2.124-22.483 17.627-22.483 17.627s-21.806 1.584-20.5 22.527c1.32 21.208 25.657 19.086 35.578 16.704 9.918-2.391 17.723-10.608 17.723-10.608-23.148 11.534-34.788 2.654-34.788-6.359 0-9.012 7.016-19.612 23.28-15.374 16.268 4.24 20.894 19.483 20.894 19.483 7.804-14.978-1.056-41.883-19.703-44" fill="#FAB20B"/><path d="M146.182 67.357c-15.09-7.232-36.877-13.282-56.296-24.984C70.46 30.669 53.399 14.754 53.399 14.754s-7.482 24.727 4.859 43.399c0 0-7.747-.394-11.812-5.915 0 0-.134 12.226 11.94 24.587 0 0-5.249 0-14.434-7.099 0 0-9.317 6.837-13.649 11.966 0 0 4.462 1.184 5.906 1.972 0 0-9.317 9.602-14.964 20.253 0 0 5.513-.133 7.877.129 0 0-7.218 20.647 5.904 34.982l70.802 40.259s-8.465-21.36 4.407-27.421c0 0-12.345 0-18.127-8.684 0 0 10.244 1.843 16.814-3.425 0 0-11.82-.264-17.865-8.952 0 0 9.456 1.842 16.813-3.16 0 0-8.666-3.42-14.186-9.475 0 0 8.21 1.105 15.45-1.775-9.05-3.164-15.45-10.958-15.45-20.077 0-9.908 7.552-18.248 17.843-20.79-2.132-3.466-6.397-8.04-14.954-12.12 0 0 13.137 1.317 20.49 6.054 7.36 4.743 10.512 12.902 17.346 13.957 8.117 1.253 8.666-3.425 7.614-7.374 0 0 7.983 6.028-1.299 16.446 1.79-1.83 7.806-6.929 18.713-6.066 0 0 1.84-11.833-13.255-19.068" fill="#EE2722"/><path d="M140.842 132.746c.242-3.646 1.826-7.185 5.458-9.16.595 1.385 1.679 4.227 2.03 7.272-3.567.69-6.304 1.504-7.488 1.888zm7.585 1.485a65.027 65.027 0 0 1-.462 6.162c-3.088-.832-5.172-2.504-6.257-4.333a79.299 79.299 0 0 1 6.719-1.83zm7.665-1.216c-.216 3.162-.874 6.324-1.207 7.776-2.26.253-4.25.17-5.958-.174.697-1.44 1.747-4.013 2.024-6.895a55.395 55.395 0 0 1 5.141-.707zm-5.193-2.607c-.357-3.176-1.296-6.16-1.918-7.878 1.513-.4 3.262-.599 5.288-.53.69 1.678 1.64 4.553 1.844 7.828a63.71 63.71 0 0 0-5.214.58zm12.55 2.59a24.925 24.925 0 0 1-1.233 5.978c-2.17.797-4.173 1.322-6.012 1.624.641-1.363 1.744-4.11 2.26-7.731a38.147 38.147 0 0 1 4.986.129zm-4.75-3.275c-.004-3.004-.606-5.736-1.079-7.407 1.658.287 3.169.767 4.537 1.372.848 2.126 1.232 4.247 1.336 6.216a42.775 42.775 0 0 0-4.794-.18zm20.755 7.684s-4.626-15.243-20.893-19.483c-16.265-4.238-23.28 6.362-23.28 15.374 0 9.013 11.64 17.893 34.787 6.359 0 0-7.805 8.217-17.723 10.608-9.92 2.382-34.257 4.504-35.578-16.704-1.306-20.943 20.5-22.527 20.5-22.527s3.832-19.751 22.484-17.627c18.647 2.117 27.507 29.022 19.703 44zm-8.591-2.59c-2.426 1.427-4.693 2.553-6.825 3.442a22.493 22.493 0 0 0 1.583-4.976c2.634.44 4.356 1.114 5.242 1.534zm-4.895-4.585c.084-1.993-.142-3.591-.361-4.589 2.893 2.032 4.853 4.48 5.97 6.139a27.429 27.429 0 0 0-5.609-1.55zm-58.18-38.205c0-5.447 3.21-10.136 7.831-12.294.01.017 1.554 1.25 4.047 3.529h-.003a8.702 8.702 0 0 0-5.39 8.05c0 4.81 3.89 8.71 8.695 8.71 3.578 0 6.651-2.171 7.982-5.273l.005-.004c.858.976 1.735 1.987 2.618 3.04-2.159 4.613-6.816 7.818-12.244 7.818-7.478 0-13.54-6.082-13.54-13.576zm21.927 1.346a3.39 3.39 0 0 1-2.307.899 3.481 3.481 0 0 1-3.476-3.485c0-.956.39-1.82 1.018-2.447a161.098 161.098 0 0 1 4.765 5.033zm-23.887 85.914l-70.802-40.259c-13.122-14.335-5.904-34.982-5.904-34.982-2.364-.262-7.877-.129-7.877-.129 5.647-10.651 14.964-20.253 14.964-20.253-1.444-.788-5.906-1.972-5.906-1.972 4.332-5.129 13.649-11.966 13.649-11.966 9.185 7.099 14.434 7.099 14.434 7.099-12.074-12.361-11.94-24.587-11.94-24.587 4.065 5.521 11.812 5.915 11.812 5.915-12.34-18.672-4.859-43.399-4.859-43.399s17.06 15.915 36.487 27.619c19.419 11.702 41.206 17.752 56.296 24.984 15.095 7.235 13.255 19.068 13.255 19.068-10.907-.863-16.924 4.237-18.713 6.066 9.282-10.418 1.299-16.446 1.299-16.446 1.052 3.949.503 8.627-7.614 7.374-6.834-1.055-9.987-9.214-17.345-13.957-7.354-4.737-20.49-6.054-20.49-6.054 8.556 4.08 12.82 8.654 14.953 12.12-10.291 2.542-17.843 10.882-17.843 20.79 0 9.12 6.4 16.913 15.45 20.077-7.24 2.88-15.45 1.775-15.45 1.775 5.52 6.055 14.186 9.475 14.186 9.475-7.357 5.002-16.813 3.16-16.813 3.16 6.045 8.688 17.865 8.952 17.865 8.952-6.57 5.268-16.814 3.425-16.814 3.425 5.782 8.684 18.127 8.684 18.127 8.684-12.872 6.061-4.407 27.42-4.407 27.42zm78.683-75.62c-4.198-7.923-10.463-13.57-17.704-16.198.22-1.577 1.869-17.604-17.414-26.844-5.768-2.762-12.338-5.31-19.292-8.008-11.53-4.474-24.6-9.544-36.378-16.641-18.495-11.14-35.085-26.528-35.25-26.684l-8.739-8.139s-6.109 12.385-5.884 34.995c-2.099-2.851-3.62-4.4-3.62-4.4s-3.597 17.223.712 30.938c-14.3 10.7-23.932 23.197-23.932 23.197s3.09.817 6.141 1.627c-7.695 10.5-13.286 23.915-13.286 23.915s7.193-.607 10.165-.015c0 0-8.175 25.277 17.685 39.437l87.468 48.405c-.838-3.23-12.592-38.024 6.824-40.722 9.317 1.642 18.578-.168 22.077-1.009 9.798-2.361 17.472-8.952 20.286-11.636 1.605 4.975 2.281 7.216 2.281 7.216 14.212-13.392 14.171-37.528 7.86-49.435z" fill="#231F20"/><path d="M140.206 191.735c-.31-.168-.805-.253-1.489-.253h-1.053v2.467h1.113c.522 0 .914-.05 1.174-.153.48-.185.721-.54.721-1.063 0-.495-.155-.827-.466-.998zm-1.328-1.114c.86 0 1.49.083 1.89.25.718.296 1.075.878 1.075 1.747 0 .618-.222 1.071-.67 1.362-.238.154-.57.265-.994.335.536.085.928.31 1.176.677.247.366.37.722.37 1.07v.507c0 .16.007.333.017.515.013.183.033.302.06.36l.041.085h-1.13a1.008 1.008 0 0 1-.035-.145l-.025-.223v-.546c0-.798-.219-1.327-.656-1.581-.26-.15-.714-.224-1.365-.224h-.968v2.719h-1.21v-6.908h2.424zm-3.719-.345c-1.05 1.056-1.576 2.33-1.576 3.827 0 1.506.522 2.789 1.567 3.85 1.05 1.061 2.327 1.593 3.829 1.593 1.5 0 2.778-.532 3.828-1.594 1.05-1.06 1.576-2.343 1.576-3.849 0-1.497-.525-2.771-1.576-3.827-1.057-1.06-2.333-1.591-3.828-1.591-1.49 0-2.764.53-3.82 1.591zm8.282 8.28c-1.227 1.234-2.71 1.851-4.451 1.851-1.741 0-3.223-.617-4.443-1.85-1.216-1.228-1.823-2.717-1.823-4.464 0-1.73.613-3.209 1.84-4.436 1.222-1.224 2.695-1.833 4.426-1.833 1.74 0 3.224.61 4.451 1.833 1.226 1.222 1.84 2.7 1.84 4.436 0 1.742-.614 3.23-1.84 4.464z" fill="#231F20"/></g></svg>