<svg width="200" height="200" xmlns="http://www.w3.org/2000/svg"><g fill-rule="nonzero" fill="none"><path d="M167.103 129.335c1.929.324 3.816.836 5.608 1.55-1.117-1.659-3.077-4.107-5.97-6.138.22.997.446 2.595.362 4.588M165.173 137.362c2.132-.89 4.398-2.015 6.824-3.442-.885-.42-2.608-1.093-5.242-1.534a22.493 22.493 0 0 1-1.582 4.976M158.755 121.42c.473 1.67 1.074 4.402 1.078 7.406a42.775 42.775 0 0 1 4.794.181c-.103-1.97-.487-4.09-1.336-6.216a19.323 19.323 0 0 0-4.536-1.372M149.1 139.496c.167-1.35.393-3.573.461-6.162a79.299 79.299 0 0 0-6.718 1.829c1.084 1.829 3.169 3.501 6.257 4.333M150.062 139.72c1.708.344 3.698.427 5.957.174.334-1.452.992-4.614 1.208-7.776a55.395 55.395 0 0 0-5.141.707c-.277 2.883-1.328 5.455-2.024 6.895M150.115 121.633c.622 1.718 1.562 4.702 1.919 7.878a63.71 63.71 0 0 1 5.214-.58c-.204-3.275-1.155-6.15-1.844-7.828-2.026-.069-3.775.13-5.289.53M147.434 122.69c-3.631 1.974-5.215 5.513-5.457 9.16 1.183-.385 3.92-1.199 7.488-1.889-.351-3.045-1.435-5.887-2.031-7.271M159.6 131.972c-.518 3.62-1.62 6.368-2.261 7.732 1.838-.303 3.841-.828 6.012-1.625a24.925 24.925 0 0 0 1.233-5.978 38.294 38.294 0 0 0-4.985-.13M132.084 93.852c-1.33 3.102-4.403 5.274-7.982 5.274-4.804 0-8.695-3.9-8.695-8.71a8.702 8.702 0 0 1 5.39-8.051h.004c-2.494-2.278-4.037-3.511-4.047-3.53-4.622 2.159-7.831 6.848-7.831 12.295 0 7.494 6.063 13.576 13.54 13.576 5.429 0 10.086-3.205 12.245-7.817a169.697 169.697 0 0 0-2.619-3.04l-.005.003" fill="#FFF"/><path d="M128.543 93.375a3.39 3.39 0 0 0 2.306-.899c-1.67-1.84-3.278-3.53-4.765-5.033a3.445 3.445 0 0 0-1.018 2.448 3.481 3.481 0 0 0 3.477 3.484" fill="#FFF"/><path d="M160.885 92.51c-18.652-2.124-22.484 17.627-22.484 17.627s-21.805 1.584-20.5 22.528c1.321 21.207 25.658 19.086 35.579 16.703 9.917-2.391 17.722-10.608 17.722-10.608-23.147 11.534-34.787 2.654-34.787-6.359 0-9.012 7.015-19.612 23.28-15.374 16.267 4.24 20.894 19.483 20.894 19.483 7.804-14.977-1.056-41.883-19.704-44" fill="#FAB20B"/><path d="M147.317 66.46c-15.09-7.232-36.878-13.282-56.297-24.984-19.426-11.704-36.486-27.619-36.486-27.619s-7.482 24.727 4.858 43.399c0 0-7.746-.393-11.811-5.915 0 0-.135 12.226 11.94 24.587 0 0-5.25 0-14.435-7.099 0 0-9.316 6.837-13.648 11.966 0 0 4.461 1.184 5.906 1.972 0 0-9.318 9.602-14.965 20.253 0 0 5.514-.133 7.877.13 0 0-7.218 20.646 5.904 34.982l70.802 40.258s-8.464-21.36 4.408-27.421c0 0-12.346 0-18.128-8.684 0 0 10.245 1.843 16.815-3.425 0 0-11.82-.263-17.866-8.952 0 0 9.456 1.842 16.813-3.16 0 0-8.665-3.42-14.186-9.475 0 0 8.21 1.105 15.45-1.775-9.049-3.164-15.45-10.958-15.45-20.076 0-9.91 7.553-18.249 17.843-20.79-2.132-3.466-6.397-8.041-14.953-12.12 0 0 13.136 1.316 20.49 6.053 7.359 4.743 10.512 12.902 17.346 13.957 8.117 1.253 8.666-3.425 7.613-7.373 0 0 7.984 6.027-1.298 16.445 1.789-1.83 7.806-6.929 18.713-6.066 0 0 1.84-11.833-13.255-19.068" fill="#EE2722"/><path d="M141.977 131.85c.242-3.647 1.826-7.186 5.457-9.16.596 1.384 1.68 4.226 2.031 7.271-3.567.69-6.305 1.504-7.488 1.888Zm7.584 1.484a65.027 65.027 0 0 1-.461 6.162c-3.088-.832-5.173-2.504-6.257-4.333a79.299 79.299 0 0 1 6.718-1.829Zm7.666-1.216c-.216 3.162-.874 6.324-1.208 7.776-2.259.253-4.25.17-5.957-.174.696-1.44 1.747-4.012 2.024-6.895a55.395 55.395 0 0 1 5.14-.707Zm-5.193-2.607c-.357-3.176-1.297-6.16-1.919-7.878 1.514-.4 3.263-.599 5.289-.53.689 1.679 1.64 4.553 1.844 7.828a63.71 63.71 0 0 0-5.214.58Zm12.55 2.59a24.925 24.925 0 0 1-1.233 5.978c-2.17.797-4.174 1.322-6.012 1.625.64-1.364 1.743-4.112 2.26-7.732 1.871-.067 3.533-.01 4.985.129Zm-4.75-3.275c-.005-3.004-.606-5.736-1.08-7.407 1.658.287 3.17.767 4.537 1.372.849 2.126 1.233 4.247 1.336 6.216a42.775 42.775 0 0 0-4.794-.18Zm20.755 7.684s-4.627-15.243-20.894-19.483c-16.265-4.238-23.28 6.362-23.28 15.374 0 9.013 11.64 17.893 34.787 6.359 0 0-7.805 8.217-17.722 10.608-9.921 2.383-34.258 4.504-35.579-16.703-1.305-20.944 20.5-22.528 20.5-22.528s3.832-19.751 22.484-17.627c18.648 2.117 27.508 29.023 19.704 44Zm-8.592-2.59c-2.426 1.427-4.692 2.553-6.824 3.442a22.493 22.493 0 0 0 1.582-4.976c2.634.441 4.357 1.114 5.242 1.534Zm-4.894-4.585c.084-1.993-.143-3.59-.361-4.588 2.892 2.031 4.852 4.48 5.97 6.138a27.429 27.429 0 0 0-5.61-1.55Zm-58.18-38.205c0-5.447 3.209-10.136 7.83-12.294.01.018 1.554 1.25 4.048 3.529h-.003a8.702 8.702 0 0 0-5.39 8.05c0 4.811 3.89 8.71 8.694 8.71 3.579 0 6.652-2.171 7.982-5.273l.005-.004c.858.976 1.736 1.988 2.619 3.04-2.159 4.613-6.816 7.818-12.245 7.818-7.477 0-13.54-6.082-13.54-13.576Zm21.926 1.346a3.39 3.39 0 0 1-2.306.899 3.481 3.481 0 0 1-3.477-3.484c0-.957.39-1.821 1.018-2.448a161.098 161.098 0 0 1 4.765 5.033Zm-23.887 85.914L36.16 138.132c-13.122-14.336-5.904-34.983-5.904-34.983-2.363-.262-7.877-.129-7.877-.129 5.647-10.651 14.965-20.253 14.965-20.253-1.445-.788-5.906-1.972-5.906-1.972C35.77 75.666 45.086 68.83 45.086 68.83c9.186 7.099 14.435 7.099 14.435 7.099C47.446 63.567 47.58 51.34 47.58 51.34c4.065 5.522 11.811 5.915 11.811 5.915-12.34-18.672-4.858-43.399-4.858-43.399s17.06 15.915 36.486 27.619c19.42 11.702 41.206 17.752 56.297 24.984 15.095 7.235 13.255 19.068 13.255 19.068-10.907-.863-16.924 4.237-18.713 6.066 9.282-10.418 1.298-16.445 1.298-16.445 1.053 3.948.504 8.626-7.613 7.373-6.834-1.055-9.987-9.214-17.346-13.957-7.354-4.737-20.49-6.054-20.49-6.054 8.556 4.08 12.821 8.655 14.953 12.12-10.29 2.542-17.843 10.882-17.843 20.79 0 9.12 6.401 16.913 15.45 20.077-7.24 2.88-15.45 1.775-15.45 1.775 5.52 6.055 14.186 9.476 14.186 9.476-7.357 5-16.813 3.159-16.813 3.159 6.045 8.689 17.866 8.952 17.866 8.952-6.57 5.268-16.815 3.425-16.815 3.425 5.782 8.684 18.128 8.684 18.128 8.684-12.872 6.061-4.408 27.421-4.408 27.421Zm78.684-75.62c-4.199-7.922-10.463-13.57-17.704-16.198.219-1.576 1.869-17.604-17.414-26.844-5.768-2.762-12.339-5.31-19.292-8.008-11.53-4.474-24.601-9.544-36.379-16.641-18.495-11.14-35.084-26.527-35.25-26.684L50.87.256s-6.109 12.386-5.884 34.995c-2.1-2.851-3.62-4.399-3.62-4.399s-3.597 17.222.712 30.937c-14.3 10.7-23.932 23.197-23.932 23.197l6.14 1.627C16.59 97.113 11 110.528 11 110.528s7.193-.607 10.164-.015c0 0-8.174 25.277 17.685 39.437l87.469 48.405c-.839-3.23-12.592-38.024 6.824-40.722 9.316 1.642 18.577-.167 22.076-1.009 9.798-2.361 17.473-8.951 20.286-11.635 1.606 4.974 2.281 7.215 2.281 7.215 14.212-13.391 14.172-37.528 7.86-49.434Z" fill="#231F20"/><path d="M141.34 190.838c-.309-.168-.805-.253-1.488-.253h-1.054v2.467h1.113c.522 0 .914-.05 1.174-.153.481-.184.722-.54.722-1.063 0-.495-.155-.827-.466-.998Zm-1.328-1.114c.86 0 1.491.083 1.891.25.718.296 1.075.878 1.075 1.747 0 .618-.223 1.072-.67 1.362-.238.154-.57.266-.995.335.536.085.929.31 1.176.677.248.366.371.722.371 1.07v.507c0 .16.006.333.017.515.013.183.032.302.06.36l.04.085h-1.13a1.008 1.008 0 0 1-.035-.145l-.025-.223v-.546c0-.798-.218-1.327-.656-1.581-.26-.15-.713-.224-1.365-.224h-.968v2.719h-1.21v-6.908h2.424Zm-3.718-.345c-1.051 1.056-1.577 2.33-1.577 3.827 0 1.506.523 2.789 1.567 3.85 1.05 1.061 2.328 1.594 3.83 1.594 1.5 0 2.778-.533 3.827-1.595 1.051-1.06 1.576-2.343 1.576-3.849 0-1.497-.525-2.771-1.576-3.827-1.056-1.06-2.332-1.591-3.828-1.591-1.49 0-2.763.531-3.82 1.591Zm8.282 8.281c-1.227 1.233-2.711 1.85-4.452 1.85-1.74 0-3.223-.617-4.442-1.85-1.216-1.228-1.823-2.717-1.823-4.464 0-1.73.612-3.208 1.84-4.436 1.221-1.224 2.695-1.833 4.425-1.833 1.74 0 3.225.61 4.452 1.833 1.226 1.222 1.84 2.7 1.84 4.436 0 1.742-.614 3.23-1.84 4.464Z" fill="#231F20"/></g></svg>