<svg width="200" height="200" xmlns="http://www.w3.org/2000/svg"><g fill="none" fill-rule="evenodd"><path d="M158.653 141.843v-1.837h.666l1.197 1.834h.665l-1.203-1.834c.71-.02 1.252-.314 1.25-1.1 0-.868-.69-1.066-1.404-1.066l-1.714.003.002 4h.54Zm1.057-3.431c.43 0 .97.07.97.483.002.638-.866.544-1.361.544h-.666l-.002-1.027h1.06Z" fill="#004F9E"/><path d="M159.453 143.49c2.023-.001 3.634-1.6 3.634-3.621-.003-2.034-1.621-3.625-3.644-3.624a3.59 3.59 0 0 0-3.617 3.628 3.588 3.588 0 0 0 3.627 3.617m-.008-6.69c1.662-.004 3.083 1.341 3.083 3.069.002 1.717-1.413 3.06-3.079 3.06-1.646 0-3.073-1.335-3.077-3.056-.001-1.722 1.425-3.072 3.073-3.072" fill="#004F9E"/><path d="M145.058 129.074c-.543 1.49-1.7 2.506-3.03 2.506-1.851 0-3.36-1.995-3.36-4.466 0-2.455 1.509-4.472 3.36-4.472h1.441s1.467-2.547.038-5.944c0 0 2.015-1.43.78-4.482v-11.39h-32.309v-2.85c2.064-5.276 5.064-11.823 5.064-21.928 0-6.943-2.17-12.007-2.17-12.007H97.365v40.183h7.457v18.94H68.693v-18.94h7.439V64.04H58.63v21.193s-3.28 3.379 2.718 11.953c5.942 8.51-1.33 22.826-1.33 22.826.806 3.039 3.179 5.34 3.179 5.34-.772 4.85-4.3 10.625-4.3 10.625 1.122 2.698 2.392 3.72 2.392 3.72s9.133-7.602 15.305-7.602c0 0 6.197 4.462 11.027 7.104 8.342 4.574 15.99 7.3 15.99 7.3 1.264-2.913 1.31-5.08 1.31-5.08-.627-1.504-2.375-3.108-2.375-3.108l1.021-1.82s4.045 1.879 7.885 6.803l2.444-.427c.746 1.424 1.153 3.41 1.108 4.474 0 0 6.814-1.274 14.17 6.109l3.385-.028v-3.441s2.761-2.247 7.481-3.167c7.2 2.983 12.148 8.596 12.148 8.596 7.646-.362 10.879-6.667 10.879-6.667-7.741-4.564-12.75-9.359-12.75-9.359s.335-.93 3.395-2.045c1.257-.459 1.997-1.018 1.997-1.018s1.972-8.64-.058-12.043h-3.18c-.847 1.046-1.071 2.455-1.071 2.455h-3.506c-1.426 0-2.416 1.13-2.836 2.34M21.077 91.253h-8.991v-16.01h2.332V68.74H3.07v6.505H5.42V91.25H3.07v6.501h24.132v-9.736h-6.126zM47.013 68.72H33.77v6.514h2.452L31.2 91.236h-2.358v6.508h9.251v-6.508l.54-1.696H46.4l.462 1.701v6.503h9.241v-6.516h-2.362l-6.73-22.508Zm-6.281 14.12 1.858-5.892h.045l1.751 5.891h-3.654Z" fill="#004F9E"/><path fill="#FFF" d="m42.59 76.945-1.86 5.895h3.655l-1.751-5.895zM159.449 142.932c1.666-.004 3.08-1.347 3.078-3.063 0-1.727-1.42-3.071-3.083-3.068-1.648 0-3.074 1.352-3.072 3.074.003 1.72 1.43 3.057 3.077 3.057Zm.375-5.092c.713 0 1.404.198 1.404 1.067.002.783-.54 1.078-1.25 1.1l1.202 1.833h-.664l-1.197-1.833h-.666v1.837h-.541l-.002-3.999 1.714-.005Z"/><path d="M159.319 139.44c.496 0 1.363.093 1.361-.544 0-.413-.54-.484-.968-.484h-1.06v1.028h.667Z" fill="#FFF"/><path d="M197.816 78.333V65.651h-15.143v11.242h-2.644V65.65l-32.669-.002-1.732 1.265V65.65h-11.382v-22.01H40.138v21.99h-9.44v12.693h1.33l-2.071 6.604H18.003v3.236h-2.846v-9.83h2.333V65.648H0V78.33h2.348v9.828H0v12.683l41.163-.009v-8.202h2.627v8.202h16.022c.544 1.411.797 3.014.797 4.741.008 3.093-.81 6.43-1.658 8.94a35.473 35.473 0 0 1-1.174 3.01c-.276.616-1.023 2.144-1.023 2.144s.44 2.727 3.117 6.57c-.433 1.61-1.173 3.443-1.885 4.913-.992 2.048-2.541 4.554-2.541 4.554l.62 1.455c1.974 3.923 5.253 6.51 5.253 6.51s2.03-1.687 2.275-1.87c.84-.668 3.13-2.416 5.747-3.942 2.176-1.28 4.671-2.33 6.368-2.602 1.918 1.345 6.505 4.5 10.44 6.656 8.59 4.715 19.134 8.448 19.134 8.448s1.832-3.872 2.434-6.722c.786.731 2.457 3.037 2.457 3.037l1.67-.299c.2 1.089-.038 4.736-.038 4.736s3.093-.804 4.453-.757c1.686.068 5.88.43 10.748 5.294l.906.914 7.71-.059v-4.838a16.996 16.996 0 0 1 4.109-1.625c2.848 1.306 5.333 3.06 7.129 4.564 1.686 1.416 3.985 3.94 3.985 3.94l1.474-.066c4.669-.215 8.152-2.236 10.237-4.26 2.688-2.58 4.577-6.663 4.577-6.663s-2.238-1.347-4.86-3.026a5.443 5.443 0 0 0 2.61-4.643c0-3.002-2.42-5.44-5.405-5.44-.112 0-.22.012-.33.019.264-1.67.5-3.663.5-5.45 0-3.847-2.25-7.83-2.25-7.83h-6.379s-1.394 1.568-1.78 2.466h-1.35c-.56-.005-1.09.08-1.6.232.314-.637.902-2.107.91-4.174.003-.734-.074-1.54-.263-2.386a6.652 6.652 0 0 0 .822-3.215c0-.783-.135-1.617-.41-2.447v-10.817h32.68V89.583h2.645v11.262h15.143V88.16h-2.334v-9.828h2.334Zm-55.258-9.593v9.737h-6.128v-3.235h-9.003v4.741h9.006v6.532h-9.006v4.736h9.003v-3.234h6.128v9.735h-24.13v-6.5h2.335v-16.01h-2.335V68.74h24.13ZM43.212 46.733h87.962v18.896h-12.73l-.002-4.659H94.311v46.322h7.447v12.802H71.755v-12.802h7.442V60.97H55.039v4.656H43.212V46.733Zm12.343 21.984v15.61c-.138.266-.27.574-.395.915l-4.938-16.525h5.333ZM27.202 97.752H3.072v-6.5h2.347v-16.01H3.072V68.74h11.346v6.502h-2.332v16.011h8.99v-3.236h6.126v9.735Zm28.903-.01h-9.243v-6.5L46.4 89.54h-7.768l-.54 1.696v6.506H28.84v-6.506h2.358l5.023-16.005h-2.45V68.72h13.242l6.73 22.509h2.362v6.514Zm103.338 38.504c2.021-.002 3.641 1.588 3.643 3.623 0 2.022-1.61 3.62-3.635 3.622a3.59 3.59 0 0 1-3.626-3.617 3.592 3.592 0 0 1 3.618-3.628Zm-11.55-9.512h3.506s.224-1.41 1.072-2.456h3.18c2.03 3.405.057 12.043.057 12.043s-.74.562-1.995 1.02c-3.062 1.115-3.396 2.044-3.396 2.044s5.008 4.795 12.75 9.36c0 0-3.234 6.304-10.88 6.664 0 0-4.945-5.612-12.146-8.593-4.72.919-7.483 3.166-7.483 3.166v3.441l-3.384.028c-7.357-7.383-14.17-6.11-14.17-6.11.044-1.063-.36-3.05-1.109-4.473l-2.444.428c-3.838-4.925-7.884-6.805-7.884-6.805l-1.021 1.821s1.748 1.603 2.374 3.109c0 0-.046 2.166-1.309 5.078 0 0-7.649-2.725-15.99-7.297-4.83-2.643-11.028-7.106-11.028-7.106-6.172 0-15.303 7.602-15.303 7.602s-1.271-1.022-2.391-3.72c0 0 3.527-5.775 4.297-10.627 0 0-2.371-2.3-3.179-5.336 0 0 7.273-14.318 1.33-22.828-5.996-8.576-2.718-11.953-2.718-11.953V64.04h17.504v40.184h-7.44v18.94h36.127v-18.94h-7.455V64.04h17.507s2.17 5.065 2.17 12.007c0 10.105-3 16.655-5.065 21.93v2.848h32.31v11.391c1.234 3.052-.779 4.482-.779 4.482 1.428 3.396-.04 5.944-.04 5.944h-1.442c-1.848 0-3.358 2.02-3.358 4.474 0 2.47 1.51 4.464 3.358 4.464 1.331 0 2.489-1.018 3.032-2.506.419-1.21 1.41-2.34 2.835-2.34Zm18.41-28.973h-17.945l-4.166-3.01V71.78l4.166-3.041h17.945v9.737h-6.117v-3.235h-7.882l-1.446 1.038V90.2l1.456 1.047h7.872v-3.23h6.117v9.744Zm.91-12.835h-10.099v3.231h-3.184v-9.824h3.184v3.234h10.098v3.359Zm27.534-9.684h-2.336v16.01h2.336v6.504h-9.001V86.492l-8.79.002v11.262h-9.005V91.25h2.333V75.244l-2.333-.002V68.74h9.006v11.243h8.789V68.74h9v6.502Z" fill="#FFF"/><path fill="#E31B23" d="M55.039 60.97h24.158v46.322h-7.442v12.802h30.003v-12.802H94.31V60.971h24.132l.001 4.659h12.73V46.733H43.212v18.893h11.829zM160.187 91.246h-7.874l-1.456-1.047V76.28l1.448-1.037h7.882v3.233h6.117v-9.734h-17.946l-4.165 3.04v22.97l4.165 3.011h17.946v-9.746h-6.117z"/><path fill="#E31B23" d="M118.429 75.243h2.335v16.01h-2.335v6.5h24.13v-9.736h-6.128v3.237h-9.003v-4.74h9.006v-6.529h-9.006v-4.742l9.003-.002v3.238h6.128v-9.74h-24.13zM185.747 79.983h-8.79V68.74h-9.007v6.501l2.336.002V91.25h-2.336v6.504h9.008v-11.26l8.789-.001v11.261h9v-6.504h-2.335V75.242h2.334v-6.501h-9z"/></g></svg>