<svg width="200" height="200" xmlns="http://www.w3.org/2000/svg"><g fill="none"><path d="M192.915 120.602l-.005-28.065c-.027-5.604 5.213-7.79 6.879-7.932-5.272-14.631-17.323-24.558-17.818-25.12l-.662.11c-.365.067-8.734 1.563-16.585 5.593-5.207-8.08-12.17-16.68-12.24-16.764l-2.967-3.635-4.2 2.093c-5.194 2.591-9.055 5.956-11.424 8.359-1.805-4.777-3.538-8.32-3.759-8.752l-1.325-2.7-2.985-.485c-5.303-.861-9.825-1.376-15.105-1.716l-4.145-.267-.331.784-1.292 3.042a876.659 876.659 0 0 1-8.098 18.526 1166.78 1166.78 0 0 1-7.979-17.737L87.1 41.928l-4.335.558a156.1 156.1 0 0 0-15.092 2.69l-2.74.62-1.231 2.516c-.142.3-3.595 7.412-5.92 15.167l-1.04 3.479 2.656 2.477c2.46 2.291 3.457 4.63 3.568 8.329v16.084a38.07 38.07 0 0 0-10.15-6.155l-3.898-1.597-2.75 3.19c-.259.29-5.257 6.108-9.433 12.268v-14.22c.108-4.184 1.344-8.678 3.21-11.7l2.407-3.879c-3.587-4.784-12.815-10.11-22.11-11.065-2.152 1.882-4.286 4.034-6.307 6.245-1.928 2.042-4.077 4.507-6.078 7.189-4.084 5.166-6.847 9.315-6.847 9.315 3.432.52 7.766 3.506 7.741 9.167v32.584c-.07 3.557-1.887 11.16-8.04 16.939l-.71.665s7.925 11.677 17.668 15.356c2.54-3.047 5.369-5.625 8.176-7.94 2.15-1.763 4.293-3.42 6.447-4.983.02-.015.042-.028.064-.049 8.589-6.2 17.418-10.926 27.807-14.99l3.93-1.546v-2.724c.013.01.027.025.046.038.004.005 2.47 1.908 2.47 1.908l2.995-.84c5.62-1.603 10.47-2.631 16.236-3.453 0-.003 2.262-.308 2.262-.308l1.517-1.741c.025-.03 3.27-4.21 4.8-7.82l2.632 3.575s1.418-2.024 2.6-3.706c1.129 2.17 2.925 5.334 4.797 7.265l.285.3 1.345 1.42s12.967 1.167 18.619 2.317l2.856.583 2.269-1.844c.787-.637 1.707-1.644 2.59-2.815 4.565 5.81 9.298 10.79 10.013 11.335.076.062 1.262.933 1.262.933l1.455.248a107.03 107.03 0 0 0 19.508 1.47v6.356l.312.208v.006c.02.01.051.027.071.042l2.364 1.58.192.12a130.032 130.032 0 0 1 7.992 5.87c4.182 3.272 7.733 7.07 7.733 7.07s9.91-10.357 15.873-20.484c-4.738-4.401-6.303-8.553-6.271-14.949zM133.74 69.958c1.027 3.251.928 4.234.928 4.234l.01 30.895s0 .703-.703 1.874c-.975 1.626-1.523 1.054-1.523 1.054s-.82-.352-1.639-1.874c-.93-1.728-.87-2.53-.87-2.53V75.323s-.184-3.61.87-5.483c.908-1.614 1.522-1.523 1.522-1.523s.703-.585 1.405 1.64zm27.168 36.478l.034-26.899s.048-1.092.485-2.426c.438-1.334.977-1.658.977-1.658s.791.507 1.935 4.165c1.144 3.658 1.213 5.743 1.213 5.743l.081 20.14s-.336.25-1.94.566c-1.606.315-2.785.369-2.785.369z" fill="#052D4F"/><path d="M109.238 46.965c-4.541 10.69-8.291 19.138-12.318 27.74-4.64-9.664-8.668-18.633-12.312-26.89l-.361-.82-.897.117c-5.157.67-9.535 1.447-14.649 2.609l-.377.085-.25.288c-.27.301-3.638 7.397-5.825 14.72l-.219.706.55.51c3.346 3.123 4.902 6.715 5.053 11.632v27.793c-.223 2.746-1.7 5.733-4.529 9.124l-.475.57.306.69c.322.734 2.05 4.467 4.257 6.182l.48.369.583-.16c5.85-1.669 10.901-2.737 16.886-3.593l.433-.057.29-.335c1.424-1.613 4.363-6.71 4.363-7.575v-.564l-.443-.365c-.14-.113-3.454-2.873-3.616-6.198V91.68c2.633 4.546 6.986 11.89 9.791 15.714l.988 1.347.965-1.368c2.408-3.438 4.673-7.479 6.864-11.394a313.029 313.029 0 0 1 2.909-5.105v11.953c-.165 3.34-3.61 6.376-3.646 6.402l-.696.613.401.828c.103.191 2.356 4.717 4.283 6.703l.318.332.465.03c5.95.385 10.995 1.058 16.88 2.259l.556.109.437-.355c2.132-1.739 4.342-6.014 4.342-6.673v-.466l-.32-.346c-2.766-3.015-4.275-5.878-4.481-8.501l-.001-27.572c.143-4.95 1.709-8.677 5.09-12.082l.496-.507-.205-.684c-2.136-7.136-5.283-13.626-5.631-14.34l-.276-.557-.62-.114a144.665 144.665 0 0 0-14.66-1.665l-.848-.058-.331.782" fill="#B4B3B3"/><path d="M98.01 78.018c4.358-9.224 8.295-18.05 13.091-29.326 4.478.314 8.46.768 12.978 1.488.831 1.735 3.234 6.98 5.028 12.783-3.48 3.727-5.129 7.816-5.28 13.165l.006 27.747.006.046c.229 3.03 1.737 6.092 4.563 9.345-.514 1.042-1.612 3.043-2.857 4.26-5.551-1.104-10.451-1.76-16.077-2.146-1.174-1.361-2.521-3.764-3.17-5.002 1.249-1.278 3.616-4.123 3.78-7.444V82.411l-2.202 3.498c-1.813 2.867-3.528 5.931-5.196 8.899-1.944 3.477-3.808 6.77-5.786 9.755-4.205-6.151-10.802-17.846-10.885-17.975l-2.241-3.977v21.012l.003.025c.159 3.374 2.543 6.093 3.784 7.3-.653 1.299-2.023 3.898-3.22 5.393a122.306 122.306 0 0 0-16.096 3.409c-1.107-1.082-2.167-2.92-2.81-4.24 2.844-3.56 4.361-6.81 4.592-9.9l.005-.045.004-27.944c-.165-5.285-1.854-9.356-5.278-12.797 1.836-5.946 4.28-11.275 5.039-12.887a146.35 146.35 0 0 1 12.987-2.325c3.852 8.706 8.093 18.148 13.067 28.416l1.095 2.253 1.07-2.263" fill="#8E0A26"/><path d="M147.4 51.055c-4.168 2.083-7.364 4.726-9.308 6.575-1.61 1.532-3.526 3.524-3.526 4.315v.37l.205.307c2.393 3.505 3.83 8.393 3.96 13.405l.008 29.488c-.126 3.906-1.39 6.279-4.106 7.654l-1.26.634.842 1.142c5.132 6.976 11.064 13.102 11.235 13.234l.235.172.288.048c11.306 1.908 20.302 1.449 23.657 1.162v8.918l.537.355a77.374 77.374 0 0 0 4.776 2.993c2.38 1.4 3.948 2.328 7.897 5.98l.919.848.81-.951c.215-.249 5.228-6.162 7.687-10.89l.319-.617-.38-.58c-3.652-5.664-3.986-6.797-3.945-13.48V92.592c-.016-4.611 1.702-7.852 4.17-9.4l.907-.575-.47-.964c-3.71-7.644-11.151-15.431-11.982-16.3l-.442-.453-.63.098c-8 1.344-13.594 6-13.832 6.195l-.792.67.546.883c2.393 3.854 3.782 8.73 3.905 13.732v23.483c-5.019 2.41-10.223 2.263-12.356 2.059V80.747c.184-4.497 1.757-8.23 4.204-9.931l.946-.657-.613-.97c-4.204-6.666-12.592-17.715-13.288-18.11l-.552-.31-.572.286" fill="#B4B3B3"/><path d="M147.617 53.647c1.826 2.305 7.48 9.56 11.598 15.94-2.567 2.32-4.14 6.283-4.34 11.111v33.388l1.001.173c.33.055 8.235 1.35 15.517-2.485l.634-.336V86.445c-.124-5.056-1.446-9.97-3.726-14.021 1.646-1.207 5.793-3.877 11.285-4.946 1.637 1.75 7.39 8.096 10.663 14.335-1.825 1.505-4.42 4.441-4.39 10.73v29.59c-.005.29-.005.57-.005.846 0 6.235.533 7.986 3.943 13.331-1.83 3.29-4.845 7.137-6.267 8.89-3.465-3.127-5.142-4.13-7.373-5.438a84.878 84.878 0 0 1-4.13-2.563v-10.316l-1.338.165c-1.08.13-10.868 1.202-23.936-.951-1.126-1.183-5.634-5.98-9.815-11.513 2.685-1.857 4.062-4.827 4.202-9.031l-.01-29.556c-.133-5.148-1.56-10.159-3.906-13.962 1.242-1.494 4.849-5.413 10.393-8.388" fill="#8E0A26"/><path d="M62.762 100.128c-.45-.521-4.6-5.217-11.705-8.125l-.805-.324-.58.683c-.765.886-7.58 8.903-11.496 15.605l-.614 1.061 1.068.593c1.745.97 2.464 3.537 2.694 5.087a145.02 145.02 0 0 0-9.248 4.46v-31.92c.12-5.044 1.588-10.311 3.913-14.066l.49-.793-.65-.67c-.182-.198-4.71-4.828-12.867-5.95l-.531-.069c-1.692 1.31-9.634 8.765-14.11 16.759 2.7 1.477 4.912 4.868 5.141 10.303-.005 0-.005 10.283-.005 10.283v23.468c-.117 5.215-2.42 9.804-6.36 15.96l-.46.722.526.665c2.319 2.946 6.314 6.489 9.01 7.342l.64.2.51-.456c13.048-11.658 25.316-19.255 41.028-25.4l.76-.298v-11.475c.112-4.629 1.395-8.838 3.728-12.168l.535-.756-.612-.72" fill="#B4B3B3"/><path d="M23.15 68.233c5.377.868 8.932 3.408 10.305 4.562-2.242 4.02-3.647 9.315-3.768 14.421v35.945l1.762-.952a145.82 145.82 0 0 1 11.645-5.663l.719-.313v-.786c0-.05-.198-4.735-3.014-7.192 3.365-5.486 8.395-11.614 10.139-13.686 4.904 2.167 8.135 5.156 9.415 6.481-2.262 3.578-3.527 7.932-3.64 12.67v9.912c-15.389 6.112-27.567 13.657-40.409 25.036-1.84-.86-4.676-3.237-6.722-5.651 3.782-6 6.145-10.932 6.276-16.474V92.709c-.205-4.878-1.81-8.853-4.348-10.988 3.923-6.545 9.945-12.015 11.64-13.488" fill="#8E0A26"/><path d="M190.662 154.612h.354c.37 0 .562-.216.562-.655 0-.339-.185-.538-.593-.538h-.323v1.193zm-.785-1.347h1.246c.44 0 .87.2.87.653 0 .4-.254.678-.608.785l.431.585c.208.277.454.547.6.624v.061h-.4c-.254 0-.446-.43-1.016-1.208h-.338v.677c0 .354-.015.339.37.377v.154h-1.155v-.154c.385-.038.37-.023.37-.377v-1.662c0-.37.015-.346-.37-.384v-.131zm1.177 3.678c1.155 0 2.14-1.07 2.14-2.247 0-1.2-.978-2.262-2.14-2.262-1.154 0-2.139 1.07-2.139 2.262 0 1.177.993 2.247 2.14 2.247zm-2.477-2.247c0-1.393 1.108-2.54 2.477-2.54 1.378 0 2.478 1.14 2.478 2.54 0 1.385-1.1 2.524-2.478 2.524-1.37 0-2.477-1.14-2.477-2.524z" fill="#052D4F"/></g></svg>