<svg width="200" height="200" xmlns="http://www.w3.org/2000/svg" xmlns:xlink="http://www.w3.org/1999/xlink"><defs><path id="a" d="M.004 139.479h55.69v-29.03h-8.885V29.08h16.983v24.687h35.55V.048H.005V29.08h8.888v81.368H.004z"/></defs><g fill="none" fill-rule="evenodd"><path d="M155.835 20.279H78.673v50.495h8.887v59.898h-8.887v50.499h120.803V105.985h-52.532v-35.21h8.891V20.277Zm-10.74 10.73v29.03h-8.884v81.367h16.983v-24.687h35.55v53.72H89.406v-29.033h8.888V60.038h-8.888v-29.03h55.69Z" fill="#511D20" fill-rule="nonzero"/><g transform="matrix(1 0 0 -1 89.402 170.487)"><mask id="b" fill="#fff"><use xlink:href="#a"/></mask><g mask="url(#b)" fill-rule="nonzero"><path fill="#FDDD4E" d="M.004 139.015h99.339v.545H.004z"/><path fill="#FDDD4E" d="M.004 138.47h99.339v.546H.004zM.004 137.926h99.339v.544H.004zM.004 137.381h99.339v.545H.004z"/><path fill="#FDDD4E" d="M.004 136.837h99.339v.545H.004zM.004 136.292h99.339v.545H.004zM.004 135.748h99.339v.544H.004zM.004 135.203h99.339v.544H.004zM.004 134.658h99.339v.545H.004z"/><path fill="#FDDD4E" d="M.004 134.114h99.339v.544H.004zM.004 133.568h99.339v.545H.004zM.004 133.024h99.339v.544H.004zM.004 132.48h99.339v.544H.004zM.004 131.935h99.339v.545H.004zM.004 131.39h99.339v.545H.004zM.004 130.845h99.339v.545H.004z"/><path fill="#FDDD4E" d="M.004 130.3h99.339v.546H.004z"/><path fill="#FDDD4E" d="M.004 129.756h99.339v.545H.004z"/><path fill="#FDDD4E" d="M.004 129.212h99.339v.545H.004zM.004 128.667h99.339v.545H.004zM.004 128.122h99.339v.545H.004zM.004 127.578h99.339v.544H.004zM.004 127.033h99.339v.545H.004zM.004 126.488h99.339v.545H.004zM.004 125.944h99.339v.544H.004zM.004 125.4h99.339v.544H.004zM.004 124.855h99.339v.544H.004zM.004 124.31h99.339v.545H.004zM.004 123.765h99.339v.545H.004zM.004 123.22h99.339v.545H.004zM.004 122.675h99.339v.545H.004zM.004 122.13h99.339v.545H.004z"/><path fill="#FDDD4E" d="M.004 121.586h99.339v.545H.004z"/><path fill="#FDDD4E" d="M.004 121.042h99.339v.545H.004zM.004 120.497h99.339v.545H.004z"/><path fill="#FDDD4E" d="M.004 119.953h99.339v.545H.004zM.004 119.408h99.339v.545H.004zM.004 118.863h99.339v.545H.004z"/><path fill="#FDDD4F" d="M.004 118.319h99.339v.544H.004z"/><path fill="#FDDC50" d="M.004 117.774h99.339v.544H.004z"/><path fill="#FDDB52" d="M.004 117.23h99.339v.544H.004z"/><path fill="#FDDA52" d="M.004 116.685h99.339v.544H.004z"/><path fill="#FDD953" d="M.004 116.14h99.339v.545H.004z"/><path fill="#FCD854" d="M.004 115.595h99.339v.544H.004z"/><path fill="#FCD755" d="M.004 115.05h99.339v.545H.004z"/><path fill="#FCD756" d="M.004 114.506h99.339v.545H.004z"/><path fill="#FCD656" d="M.004 113.962h99.339v.544H.004z"/><path fill="#FCD557" d="M.004 113.417h99.339v.545H.004z"/><path fill="#FCD458" d="M.004 112.872h99.339v.545H.004z"/><path fill="#FCD358" d="M.004 112.327h99.339v.545H.004z"/><path fill="#FCD258" d="M.004 111.783h99.339v.544H.004z"/><path fill="#FCD159" d="M.004 111.238h99.339v.544H.004z"/><path fill="#FBD059" d="M.004 110.693h99.339v.545H.004z"/><path fill="#FBCF59" d="M.004 110.149h99.339v.544H.004z"/><path fill="#FBCE59" d="M.004 109.604h99.339v.545H.004zM.004 109.06h99.339v.544H.004z"/><path fill="#FBCD59" d="M.004 108.515h99.339v.545H.004z"/><path fill="#FBCC59" d="M.004 107.97h99.339v.545H.004z"/><path fill="#FBCB59" d="M.004 107.426h99.339v.544H.004z"/><path fill="#FBCA59" d="M.004 106.881h99.339v.545H.004z"/><path fill="#FBC959" d="M.004 106.336h99.339v.545H.004z"/><path fill="#FBC858" d="M.004 105.791h99.339v.545H.004z"/><path fill="#FBC758" d="M.004 105.247h99.339v.545H.004z"/><path fill="#FAC758" d="M.004 104.703h99.339v.544H.004z"/><path fill="#FAC657" d="M.004 104.157h99.339v.545H.004z"/><path fill="#FAC557" d="M.004 103.613h99.339v.544H.004z"/><path fill="#FAC457" d="M.004 103.068h99.339v.545H.004z"/><path fill="#FAC356" d="M.004 102.524h99.339v.544H.004z"/><path fill="#FAC256" d="M.004 101.98h99.339v.544H.004z"/><path fill="#FAC255" d="M.004 101.434h99.339v.545H.004z"/><path fill="#FAC154" d="M.004 100.89h99.339v.544H.004z"/><path fill="#FAC054" d="M.004 100.345h99.339v.545H.004z"/><path fill="#FABF53" d="M.004 99.8h99.339v.545H.004zM.004 99.256h99.339v.544H.004z"/><path fill="#F9BE52" d="M.004 98.711h99.339v.545H.004z"/><path fill="#F9BD51" d="M.004 98.167h99.339v.545H.004z"/><path fill="#F9BC50" d="M.004 97.622h99.339v.545H.004z"/><path fill="#F9BB50" d="M.004 97.077h99.339v.544H.004z"/><path fill="#F9BB4F" d="M.004 96.532h99.339v.545H.004z"/><path fill="#F9BA4E" d="M.004 95.988h99.339v.545H.004z"/><path fill="#F9B94D" d="M.004 95.443h99.339v.545H.004z"/><path fill="#F9B84C" d="M.004 94.898h99.339v.545H.004zM.004 94.354h99.339v.544H.004z"/><path fill="#F9B74A" d="M.004 93.81h99.339v.544H.004z"/><path fill="#F9B64A" d="M.004 93.265h99.339v.544H.004z"/><path fill="#F9B549" d="M.004 92.72h99.339v.544H.004z"/><path fill="#F9B548" d="M.004 92.175h99.339v.545H.004z"/><path fill="#F8B447" d="M.004 91.63h99.339v.545H.004z"/><path fill="#F8B346" d="M.004 91.086h99.339v.545H.004z"/><path fill="#F8B345" d="M.004 90.541h99.339v.545H.004z"/><path fill="#F8B244" d="M.004 89.997h99.339v.544H.004z"/><path fill="#F8B143" d="M.004 89.452h99.339v.545H.004z"/><path fill="#F8B142" d="M.004 88.907h99.339v.545H.004z"/><path fill="#F8B041" d="M.004 88.362h99.339v.545H.004z"/><path fill="#F8AF40" d="M.004 87.818h99.339v.544H.004z"/><path fill="#F8AF3F" d="M.004 87.274h99.339v.544H.004z"/><path fill="#F8AE3E" d="M.004 86.73h99.339v.544H.004z"/><path fill="#F8AE3D" d="M.004 86.185h99.339v.544H.004z"/><path fill="#F8AD3C" d="M.004 85.64h99.339v.544H.004z"/><path fill="#F8AC3B" d="M.004 85.095h99.339v.544H.004z"/><path fill="#F8AC3A" d="M.004 84.55h99.339v.545H.004z"/><path fill="#F8AB39" d="M.004 84.005h99.339v.545H.004z"/><path fill="#F7AB38" d="M.004 83.46h99.339v.545H.004z"/><path fill="#F7AA37" d="M.004 82.916h99.339v.545H.004z"/><path fill="#F7AA36" d="M.004 82.372h99.339v.545H.004z"/><path fill="#F7A935" d="M.004 81.827h99.339v.545H.004z"/><path fill="#F7A835" d="M.004 81.282h99.339v.545H.004z"/><path fill="#F7A833" d="M.004 80.738h99.339v.544H.004z"/><path fill="#F7A732" d="M.004 80.193h99.339v.545H.004z"/><path fill="#F7A731" d="M.004 79.649h99.339v.544H.004z"/><path fill="#F7A630" d="M.004 79.103h99.339v.545H.004z"/><path fill="#F7A630" d="M.004 78.559h99.339v.545H.004z"/><path fill="#F7A52F" d="M.004 78.015h99.339v.544H.004z"/><path fill="#F7A52D" d="M.004 77.47h99.339v.544H.004z"/><path fill="#F7A42D" d="M.004 76.925h99.339v.544H.004z"/><path fill="#F7A42C" d="M.004 76.38h99.339v.545H.004z"/><path fill="#F7A32B" d="M.004 75.836h99.339v.545H.004z"/><path fill="#F7A32A" d="M.004 75.291h99.339v.545H.004z"/><path fill="#F7A329" d="M.004 74.747h99.339v.544H.004z"/><path fill="#F7A228" d="M.004 74.202h99.339v.545H.004z"/><path fill="#F6A228" d="M.004 73.657h99.339v.545H.004z"/><path fill="#F6A126" d="M.004 73.113h99.339v.544H.004zM.004 72.568h99.339v.545H.004z"/><path fill="#F6A125" d="M.004 72.023h99.339v.545H.004z"/><path fill="#F6A024" d="M.004 71.479h99.339v.544H.004z"/><path fill="#F6A023" d="M.004 70.934h99.339v.545H.004z"/><path fill="#F69F23" d="M.004 70.39h99.339v.544H.004z"/><path fill="#F69F22" d="M.004 69.845h99.339v.544H.004z"/><path fill="#F69F21" d="M.004 69.3h99.339v.545H.004z"/><path fill="#F69E20" d="M.004 68.755h99.339v.545H.004zM.004 68.21h99.339v.545H.004z"/><path fill="#F69E1F" d="M.004 67.666h99.339v.544H.004z"/><path fill="#F69D1E" d="M.004 67.121h99.339v.545H.004zM.004 66.576h99.339v.545H.004z"/><path fill="#F69D1D" d="M.004 66.032h99.339v.545H.004z"/><path fill="#F69D1C" d="M.004 65.487h99.339v.545H.004z"/><path fill="#F69C1C" d="M.004 64.943h99.339v.544H.004z"/><path fill="#F69C1B" d="M.004 64.398h99.339v.545H.004z"/><path fill="#F69C1A" d="M.004 63.854h99.339v.544H.004z"/><path fill="#F69B1A" d="M.004 63.309h99.339v.545H.004z"/><path fill="#F69B19" d="M.004 62.764h99.339v.545H.004z"/><path fill="#F69B18" d="M.004 62.22h99.339v.544H.004zM.004 61.675h99.339v.545H.004z"/><path fill="#F69B18" d="M.004 61.13h99.339v.545H.004z"/><path fill="#F69A17" d="M.004 60.586h99.339v.544H.004z"/><path fill="#F69A16" d="M.004 60.04h99.339v.546H.004z"/><path fill="#F69A16" d="M.004 59.496h99.339v.545H.004zM.004 58.952h99.339v.544H.004z"/><path fill="#F69915" d="M.004 58.407h99.339v.545H.004z"/><path fill="#F69914" d="M.004 57.862h99.339v.545H.004zM.004 57.318h99.339v.544H.004z"/><path fill="#F59914" d="M.004 56.773h99.339v.545H.004zM.004 56.228h99.339v.545H.004z"/><path fill="#F59913" d="M.004 55.684h99.339v.544H.004z"/><path fill="#F59913" d="M.004 55.139h99.339v.545H.004z"/><path fill="#F59812" d="M.004 54.594h99.339v.545H.004zM.004 54.05h99.339v.544H.004z"/><path fill="#F59812" d="M.004 53.505h99.339v.545H.004zM.004 52.96h99.339v.545H.004z"/><path fill="#F59811" d="M.004 52.416h99.339v.544H.004z"/><path fill="#F59811" d="M.004 51.871h99.339v.545H.004zM.004 51.326h99.339v.545H.004z"/><path fill="#F59710" d="M.004 50.782h99.339v.544H.004z"/><path fill="#F59710" d="M.004 50.237h99.339v.545H.004zM.004 49.692h99.339v.545H.004zM.004 49.148h99.339v.544H.004zM.004 48.603h99.339v.545H.004zM.004 48.059h99.339v.544H.004z"/><path fill="#F59710" d="M.004 47.514h99.339v.545H.004zM.004 46.97h99.339v.544H.004zM.004 46.425h99.339v.544H.004z"/><path fill="#F59710" d="M.004 45.88h99.339v.545H.004zM.004 45.335h99.339v.545H.004zM.004 44.79h99.339v.545H.004z"/><path fill="#F59710" d="M.004 44.246h99.339v.545H.004zM.004 43.701h99.339v.545H.004z"/><path fill="#F5970F" d="M.004 43.157h99.339v.544H.004z"/><path fill="#F5970F" d="M.004 42.612h99.339v.545H.004zM.004 42.067h99.339v.545H.004zM.004 41.523h99.339v.544H.004zM.004 40.978h99.339v.545H.004zM.004 40.433h99.339v.545H.004zM.004 39.889h99.339v.544H.004zM.004 39.344h99.339v.545H.004zM.004 38.8h99.339v.544H.004zM.004 38.255h99.339v.544H.004zM.004 37.71h99.339v.545H.004zM.004 37.165h99.339v.545H.004zM.004 36.62h99.339v.545H.004z"/><path fill="#F5970F" d="M.004 36.076h99.339v.545H.004zM.004 35.532h99.339v.544H.004z"/><path fill="#F5970F" d="M.004 34.987h99.339v.545H.004zM.004 34.442h99.339v.545H.004zM.004 33.898h99.339v.544H.004zM.004 33.353h99.339v.545H.004zM.004 32.808h99.339v.545H.004zM.004 32.264h99.339v.544H.004zM.004 31.72h99.339v.544H.004zM.004 31.174h99.339v.545H.004zM.004 30.63h99.339v.544H.004z"/><path fill="#F5970F" d="M.004 30.085h99.339v.545H.004zM.004 29.54h99.339v.545H.004zM.004 28.996h99.339v.544H.004z"/><path fill="#F5970F" d="M.004 28.451h99.339v.545H.004zM.004 27.906h99.339v.545H.004zM.004 27.362h99.339v.544H.004z"/><path fill="#F5970F" d="M.004 26.817h99.339v.545H.004zM.004 26.272h99.339v.545H.004z"/><path fill="#F5970F" d="M.004 25.728h99.339v.544H.004zM.004 25.183h99.339v.545H.004z"/><path fill="#F5970F" d="M.004 24.638h99.339v.545H.004zM.004 24.094h99.339v.544H.004zM.004 23.55h99.339v.544H.004zM.004 23.004h99.339v.545H.004zM.004 22.46h99.339v.544H.004zM.004 21.915h99.339v.545H.004z"/><path fill="#F5970F" d="M.004 21.37h99.339v.545H.004z"/><path fill="#F5970F" d="M.004 20.826h99.339v.545H.004zM.004 20.281h99.339v.545H.004zM.004 19.737h99.339v.544H.004z"/><path fill="#F5970F" d="M.004 19.192h99.339v.545H.004zM.004 18.648h99.339v.544H.004z"/><path fill="#F5970F" d="M.004 18.103h99.339v.545H.004zM.004 17.558h99.339v.545H.004zM.004 17.014h99.339v.544H.004z"/><path fill="#F5970F" d="M.004 16.469h99.339v.545H.004zM.004 15.924h99.339v.545H.004z"/><path fill="#F5970F" d="M.004 15.38h99.339v.544H.004zM.004 14.835h99.339v.545H.004zM.004 14.29h99.339v.545H.004zM.004 13.745h99.339v.545H.004zM.004 13.2h99.339v.545H.004z"/><path fill="#F5970F" d="M.004 12.656h99.339v.545H.004zM.004 12.111h99.339v.545H.004zM.004 11.567h99.339v.544H.004zM.004 11.022h99.339v.545H.004zM.004 10.477h99.339v.545H.004zM.004 9.933h99.339v.544H.004zM.004 9.388h99.339v.545H.004zM.004 8.844h99.339v.544H.004zM.004 8.299h99.339v.545H.004z"/><path fill="#F5970F" d="M.004 7.754h99.339V8.3H.004zM.004 7.21h99.339v.544H.004zM.004 6.665h99.339v.544H.004zM.004 6.12h99.339v.545H.004zM.004 5.576h99.339v.544H.004zM.004 5.031h99.339v.545H.004zM.004 4.486h99.339v.545H.004z"/><path fill="#F5970F" d="M.004 3.942h99.339v.544H.004zM.004 3.397h99.339v.545H.004z"/><path fill="#F5970F" d="M.004 2.853h99.339v.544H.004zM.004 2.308h99.339v.545H.004zM.004 1.763h99.339v.545H.004z"/><path fill="#F5970F" d="M.004 1.219h99.339v.544H.004zM.004.674h99.339v.545H.004zM.004.048h99.339v.626H.004z"/></g></g><path fill="#AB590C" fill-rule="nonzero" d="M137.414 52.66h-8.89l.143 90.315h7.686l-.142-82.625h8.885V31.317h-7.682V52.66"/><path fill="#AB590C" fill-rule="nonzero" d="M181.058 163.06H89.406v7.686h99.338v-53.719h-7.686v46.033"/><path d="M90.697 169.455h96.757v-51.136h-32.97v24.69H134.92v-83.95h8.884V32.607H90.697v26.45h8.888v83.95h-8.888v26.447Zm99.339 2.583H88.115v-31.612h8.888V61.641h-8.888V30.026h58.272V61.64h-8.885v78.785h14.4v-24.69h38.134v56.302Z" fill="#FFF" fill-rule="nonzero"/><path d="M98.324 120.753s5.945 1.051 13.114 5.833l-1.205-1.417c-8.936-10.605-20.746-14.94-21.651-15.222-.904-.282-5.964-1.8-10.156-2.385 2.365.893 11.842 3.525 14.745 8.788-4.453-1.577-12.361 0-12.361 0s8.397 2.7 12.36 10.852c-3.77-2.981-11.58-4.845-13.055-5.178.067.061.132.115.2.179 1.203.663 4.502 2.81 6.945 7.52-.583-.526-1.346-.697-2.197-.655.817 1.786 1.366 3.618 1.366 5.224-1.366-1.006-2.842-1.452-2.842-1.452s1.037 4.163.71 7.699c-1.167-.883-1.964-.883-1.964-.883s.678 4.755.08 5.184c-1.744-1.87-3.615-1.235-3.615-1.235s5.054 4.932 4.305 12.135l.034.135c7.746-7.067 7.42-15.189 7.42-15.189 4.037 1.764 6.147 5.415 6.147 5.415.149-.378.275-.754.408-1.13.208-.79.505-1.823.86-2.833.876-3.56.92-6.925-.234-9.824 3.827 1.794 7.182 5.153 9.259 7.557l2.035 1.56c-1.45-9.78-8.086-17.951-10.708-20.678" fill="#DAD9D9" fill-rule="nonzero"/><path d="M64.055 108.701c-2.218-1.369-4.18-2.323-5.044-.686-.124.237-.247 4.316-.247 4.316s-.44-.163-1.501-.111c1.175.674 1.494 1.606 1.494 1.606l.007 2.723s-.6-.428-1.939-.349c.816.672 1.974 1.246 1.974 1.774 0 .53-.013 2.664-.013 2.664-.348-.325-1.61-.541-2.485-.7 1.595.994 2.059 2.05 2.513 3.048.319.706.167 1.562.185 1.963-1.352.065-3.504.465-4.29 2.138 1.803-.418 3.35-.41 5.713-.265 3.773.223 5.993 1.447 6.877 2.275l.01-.008c4.66 4.133-.527 6.802 2.189 8.107 2.287 1.1 4.33-1.6 4.33-1.6 3.225-3.755 3.296-13.465 1.956-16.476-.433-.971-.707-1.628-1.002-2.165-.218 3.259-1.616 6.999-1.616 6.999s-.17-6.29-2.014-8.139c-1.769-1.765-4.932-4.166-5.886-12.054-.003-.029.023-.022.032-.036a13.59 13.59 0 0 1 .259-5.328c0 .019.002.03.006.047.088-.411.199-.85.37-1.093 0 0-.097 1.164.205 2.247 1.213-3.45 3.9-5.21 4.642-5.513 0 0-1.39 1.402-1.68 2.536 2.894-1.695 6.418-2.562 11.797-3.36l1.587-.165c.451-.063 3.772-.257 4.35-.327-4.256-1.503-14.667.56-14.667.56-.2.074 4.751-3.17 10.313-3.955 0 0-9.87-1.008-14.779 2.926 0 0 3.288-4.973 4.215-5.882 0 0-10.987 3.352-9.583 17.262.467 2.82 1.517 4.544 1.688 4.824l.034.042c-.094-.067-.172-.14-.251-.211-.561-.467-1.983-1.578-3.373-2.091 1.442.806 3.646 2.099 3.624 2.457" fill="#DAD9D9" fill-rule="nonzero"/><path d="M88.103 47.272s-2.673 4.955-1.97 12.617c.164 1.81.509 3.685.935 5.504.502-3.508 1.431-5.655 1.431-5.655.281 5.024 1.183 8.296 2.367 11.066.017.016.298.658.298.658.304-2.818 1.254-3.925 1.254-3.925.52 3 2.072 4.993 2.89 5.858 0 0 .273-1.307.506-3.062.227-1.756 2.442-13.203-1.048-26.31-1.017-3.795-2.704-5.727-4.43-4.623-.568.362-1.42 1.019-2.418 2.049-1.578 2.713-3.519 6.595-3.784 9.678 2.141-3.301 3.969-3.855 3.969-3.855" fill="#AEACAC" fill-rule="nonzero"/><path d="M81.735 65.756c.014-7.865 4.255-13.238 4.255-13.238-2.106 8.109-.148 12.645.813 15.446.053-.93.15-1.774.265-2.57-.426-1.82-.77-3.695-.936-5.505-.702-7.662 1.97-12.617 1.97-12.617s-1.827.554-3.968 3.855c.265-3.083 2.206-6.965 3.784-9.678-2.017 2.084-4.631 5.723-6.73 11.739-3.145 9.034-.686 9.932.547 12.568" fill="#DAD9D9" fill-rule="nonzero"/><path d="M22.424 70.35c.231 1.753.513 3.061.513 3.061.811-.865 2.36-2.856 2.882-5.857 0 0 .945 1.11 1.256 3.928 0 0 .28-.642.292-.662 1.188-2.767 2.094-6.038 2.372-11.06 0 0 1.412 3.195 1.695 8.22.961-2.804 3.225-7.202 1.54-15.312 0 0 3.507 5.241 3.534 13.105 1.227-2.635 3.522-3.535.373-12.565-2.242-6.427-4.14-9.335-5.736-11.202-1.811-2.108-5.407-5.652-7.455.676-.118.416-.241.868-.385 1.36-3.577 12.84-1.106 24.556-.88 26.308" fill="#696566" fill-rule="nonzero"/><path d="M12.538 127.156a1.723 1.723 0 0 1-.039.072c.049-.04.11-.099.156-.13-.04.017-.076.038-.117.058" fill="#AEACAC" fill-rule="nonzero"/><path d="M39.805 143.605s-1.863-.634-3.61 1.235c-.592-.429.083-5.184.083-5.184s-.792 0-1.961.883c-.33-3.536.71-7.699.71-7.699s-1.473.446-2.837 1.452c0-2.04.877-4.445 2.083-6.659-1.114.617-2.24 1.36-3.225 2.244 2.73-5.243 6.504-7.31 7.266-7.686l.056-.05c-.897.196-9.282 2.093-13.22 5.216 3.96-8.153 12.354-10.853 12.354-10.853s-7.903-1.577-12.353 0c2.899-5.263 9.52-6.106 13.565-6.59 5.323-.64 7.977.032 9.671-1.135.138-.094.304-.259.482-.465-.093.052-.185.104-.284.154l-.123.07s.001-.009.007-.013c-.021.013-.038.019-.06.029 0 0 .039-.03.099-.082.255-.352 1.487-2.195 1.132-3.7-4.51-.032-6.774 1.64-11.77 1.133.405-2.297-6.198-6.786-7.822-7.597 3.323 3.604 3.952 8.391 2.904 8.73.565.418 2.96.57 5.139.566.738-.068 1.315-.095 1.654-.04l.12-.002a.44.44 0 0 0-.088.012c.013 0 .027.002.035.004-4.187.59-9.249 2.106-10.158 2.389 0 0-12.605 4.597-21.544 15.202l-1.199 1.417c7.168-4.782 13.116-5.833 13.116-5.833-2.735 2.84-9.828 11.58-10.88 21.897 0 0 5.094-7.35 11.46-10.336-1.57 3.957-.93 8.78 1.043 13.787 0 0 2.103-3.65 6.14-5.415 0 0-.326 8.122 7.416 15.19 0 0 .082-.34.257-.911-.328-6.777 4.342-11.36 4.342-11.36" fill="#696566" fill-rule="nonzero"/><path d="M39.884 97.793c-.125.335-.202.699-.219 1.079-.091 2.031 1.513 3.749 3.58 3.838 1.764.073 3.296-1.069 3.76-2.675-.71-.463-1.189-.64-1.738-.791-.175.586-1.096.895-1.744.868-.77-.028-1.278-.502-1.555-1.217-.047-.125-.096-.577-.064-.694-.68-.246-1.092-.299-2.02-.408" fill="#FAB20B" fill-rule="nonzero"/><path d="M45.241 160.056c.138.106.244.185.348.262-.025-.11-.055-.228-.078-.336-.088.019-.18.052-.27.074" fill="#AEACAC" fill-rule="nonzero"/><path d="M82.195 136.302s-.99-1.575-2.284-2.635c0 0 .52 2.222.249 6.219 0 0-.98-1.318-1.326-2.082-.861 2.22-6.09 9.773-6.852 14.064 0 0-.304-.595-.52-1.597-.08-.344-.068-.802-.068-.802s-.081.113-.286.738c0 0-.363 1.277-.652 2.551-.29 1.308-.502 1.537-1.473 6.3l-.841-1.458c-1.6 4.908-3.76 7.236-5.667 8.33-1.337.768-2.55.932-3.353.932-1.953 0-6.303-.91-9.024-9.262l-.841 1.458c-.971-4.763-1.182-4.992-1.477-6.3-.287-1.274-.653-2.551-.653-2.551-.194-.625-.281-.738-.281-.738s.011.458-.062.802c-.229 1.002-.528 1.597-.528 1.597-.76-4.291-5.989-11.845-6.85-14.064-.351.764-1.33 2.082-1.33 2.082-.274-3.973.238-6.188.244-6.215-.008.008-.011.008-.02.015-1.275 1.06-2.256 2.616-2.256 2.616.238-10.374 4.638-15.393 4.638-15.393s-.275 1.048-.558 5.06c.256 2.512 1.284 10.675 4.017 13.363 1.332 1.311 3.484 1.266 5.597 1.047 3.022-.317 5.96-1.276 6.204-1.4a.72.72 0 0 0 .278-1.022c-.2-.315-1.479-.982-1.479-.982-1.06-.81-2.018-2.037-2.018-2.037-2.22-3.46-2.049-4.78-2.049-4.78.002-.003.006-.006.007-.01l.11-.555c.457-2.259 2.302-10.893 5.17-17.944 0 0-1.405 9.623-2.471 16.707 1.56-.484 3.56-.752 5.608-.752h.034c3.886 0 7.64.938 8.434 2.554 0 0 .02.219-.086.685-.16.71-.625 2.007-1.963 4.095 0 0-.956 1.228-2.02 2.037 0 0-1.28.667-1.477.982a.714.714 0 0 0 .28 1.022c.251.128 3.062 1.439 6.126 1.766 1.982.205 4.083.15 5.668-1.413 3.186-3.13 4.233-10.117 4.045-12.922-.288-4.404-.588-5.5-.588-5.501 0 0 4.406 5.02 4.644 15.393ZM80.81 116.35s7.908-1.577 12.36 0c-2.902-5.263-12.38-7.895-14.744-8.788 2.428.11 6.187.012 6.902-.524-1.039-.34-.418-5.127 2.908-8.73-1.621.804-8.228 5.3-7.814 7.597-5.005.508-7.265-1.165-11.77-1.134-.205.848.102 1.805.454 2.543.34.714.722 1.224.722 1.224-1.23-.577-1.572-1.204-2.135-1.826 0 .028.002.056.008.087.557 1.986 1.741 4.587 3.208 6.528 0 0-4.715-3.595-5.611-9.602-.01.014-.035.007-.032.036.954 7.888 4.117 10.289 5.886 12.054 1.844 1.849 2.014 8.139 2.014 8.139s1.398-3.74 1.616-7c.295.538.57 1.195 1.002 2.166 1.34 3.01 1.269 12.721-1.956 16.477 0 0-2.031 2.709-4.33 1.599-2.713-1.31 2.471-3.974-2.189-8.107l-.01.008c-.884-.828-3.104-2.052-6.877-2.275-2.362-.146-3.91-.153-5.713.265.786-1.673 2.938-2.073 4.29-2.138-.018-.401.134-1.257-.185-1.963-.454-.998-.918-2.054-2.513-3.048.874.159 2.137.375 2.485.7 0 0 .013-2.135.013-2.664 0-.528-1.158-1.102-1.974-1.774 1.338-.08 1.939.349 1.939.349l-.007-2.723s-.32-.932-1.494-1.606c1.06-.052 1.5.111 1.5.111s.124-4.079.248-4.316c.865-1.637 2.826-.683 5.044.686.022-.358-2.182-1.651-3.624-2.457-.446-.165-.889-.27-1.298-.27-1.712 0-4.039 1.831-4.735 2.413-.07.061-.14.117-.207.176l.03-.049c.19-.299 1.228-2.017 1.681-4.819 1.413-13.904-9.573-17.257-9.573-17.257.916.906 4.205 5.878 4.205 5.878-4.908-3.932-14.776-2.926-14.776-2.926 5.555.784 10.514 4.03 10.314 3.96 0 0-10.409-2.068-14.663-.561.575.066 3.894.262 4.344.327l1.588.167c5.38.793 8.903 1.659 11.805 3.354-.297-1.135-1.692-2.534-1.692-2.534.743.305 3.438 2.065 4.647 5.513.298-1.077.202-2.248.202-2.248.17.244.29.683.373 1.093l.002-.045c2.266 9.168-5.348 14.93-5.348 14.93 1.3-1.723 2.382-3.965 2.996-5.837l-1.403.775-.054.03c-.178.206-.344.37-.482.465-1.694 1.167-4.348.495-9.671 1.136-4.045.483-10.666 1.326-13.565 6.59 4.45-1.578 12.353 0 12.353 0s-8.394 2.7-12.353 10.852c3.937-3.123 12.322-5.02 13.22-5.217l-.057.05c-.762.376-4.536 2.444-7.266 7.687.985-.885 2.111-1.627 3.225-2.244-1.206 2.214-2.083 4.618-2.083 6.659a10.517 10.517 0 0 1 2.837-1.452s-1.04 4.163-.71 7.699c1.17-.883 1.96-.883 1.96-.883s-.674 4.755-.082 5.184c1.747-1.87 3.61-1.235 3.61-1.235s-4.67 4.583-4.342 11.36c.591-1.933 2.288-6.651 5.846-10.914 0 0 2.29 4.322 3.117 12.784l1.878-1.549c.025 2.155.525 4.911 1.581 6.674.914 1.524 2.322 3.096 2.322 3.096s3.111 3.371 9.345 3.371c1.732 0 3.147-.266 4.3-.643 2.999-.981 4.182-2.745 4.182-2.745s1.408-1.571 2.32-3.1c1.057-1.761 1.562-4.513 1.583-6.673l1.988 1.645c.824-8.46 3.116-12.86 3.116-12.86 4.23 5.072 5.829 10.79 6.062 11.69.75-7.204-4.305-12.136-4.305-12.136s1.87-.634 3.616 1.235c.597-.429-.08-5.184-.08-5.184s.796 0 1.962.883c.328-3.536-.71-7.699-.71-7.699s1.477.446 2.843 1.452c0-1.606-.549-3.438-1.366-5.224.85-.042 1.614.13 2.197.654-2.443-4.708-5.742-6.856-6.945-7.52-.068-.063-.133-.117-.2-.178 1.476.333 9.285 2.197 13.056 5.178-3.964-8.151-12.361-10.852-12.361-10.852Z" fill="#AEACAC" fill-rule="nonzero"/><path d="M74.717 100.095c-.648.027-1.57-.282-1.748-.872-.54.15-1.029.334-1.735.797.459 1.604 1.992 2.745 3.76 2.673 2.066-.088 3.67-1.81 3.578-3.838a3.745 3.745 0 0 0-.216-1.084c-.93.114-1.335.166-2.024.41.036.115-.017.57-.062.696-.277.713-.782 1.188-1.553 1.218" fill="#FAB20B" fill-rule="nonzero"/><path d="M38.3 133.686c.014-.011.018-.011.031-.023l.002-.007-.033.03" fill="#100F0D" fill-rule="nonzero"/><path d="M59.133 161.968c2.676 0 6.268-.56 6.268-1.232 0-2.36-1.725-3.031-1.871-2.607-.15.42.073 1.146-.27 1.232-1.245.303-1.136.95-4.127.95-2.979 0-2.875-.647-4.12-.95-.342-.086-.117-.812-.265-1.232-.148-.424-1.876.247-1.876 2.607 0 .673 3.591 1.232 6.26 1.232" fill="#FFF" fill-rule="nonzero"/><path d="M59.133 161.968c-2.67 0-6.261-.56-6.261-1.232 0-2.36 1.728-3.031 1.876-2.607.148.42-.077 1.146.264 1.232 1.246.303 1.142.95 4.12.95 2.992 0 2.883-.647 4.128-.95.343-.086.12-.812.27-1.232.146-.424 1.87.247 1.87 2.607 0 .673-3.59 1.232-6.267 1.232Zm23.062-25.666c-.238-10.374-4.644-15.393-4.644-15.393s.3 1.097.588 5.501c.188 2.805-.859 9.792-4.045 12.922-1.585 1.564-3.686 1.618-5.668 1.413-3.064-.327-5.875-1.638-6.126-1.766a.714.714 0 0 1-.28-1.022c.197-.315 1.477-.982 1.477-.982 1.064-.81 2.02-2.037 2.02-2.037 1.338-2.088 1.802-3.385 1.963-4.095.106-.466.086-.685.086-.685-.795-1.616-4.548-2.554-8.433-2.554h-.035c-2.048 0-4.047.268-5.608.752 1.066-7.084 2.47-16.707 2.47-16.707-2.867 7.051-4.712 15.685-5.169 17.944l-.11.556c-.001.003-.005.006-.007.009 0 0-.172 1.32 2.05 4.78 0 0 .957 1.228 2.017 2.037 0 0 1.28.667 1.479.982a.72.72 0 0 1-.278 1.022c-.245.124-3.182 1.083-6.204 1.4-1.828.19-3.683.245-5.014-.591-.175-.126-.352-.245-.517-.403-.021-.018-.046-.032-.066-.053-2.733-2.688-3.761-10.85-4.017-13.362.283-4.013.558-5.061.558-5.061s-4.4 5.02-4.638 15.393c0 0 .98-1.557 2.256-2.616.008-.006.015-.013.021-.02l-.001.005c-.006.027-.518 2.242-.244 6.215 0 0 .979-1.318 1.33-2.082.861 2.22 6.09 9.773 6.85 14.064 0 0 .3-.595.528-1.597.073-.344.062-.802.062-.802s.087.113.281.738c0 0 .366 1.277.653 2.551.295 1.308.506 1.537 1.477 6.3l.84-1.458c2.722 8.352 7.072 9.262 9.025 9.262.802 0 2.016-.164 3.353-.931 1.906-1.095 4.066-3.423 5.667-8.331l.841 1.458c.97-4.763 1.183-4.992 1.473-6.3.289-1.274.652-2.551.652-2.551.205-.625.286-.738.286-.738s-.011.458.068.802c.216 1.002.52 1.597.52 1.597.761-4.291 5.99-11.845 6.852-14.064.346.764 1.326 2.082 1.326 2.082.27-3.997-.249-6.22-.249-6.22 1.293 1.06 2.284 2.636 2.284 2.636Z" fill="#100F0D" fill-rule="nonzero"/><path d="M59.133 140.074c-.756 0-1.543.035-2.332.088-3.174.698-6.187 1.676-8.515 2.088.542 2.125 2.17 3.42 2.403 2.988.276-.528.087-2.988.733-3.093 2.329-.377 2.115-1.17 7.71-1.17 5.603 0 5.39.793 7.718 1.17.643.105.457 2.565.731 3.093.235.429 1.832-.838 2.39-2.925-2.23-.362-5.197-1.371-8.458-2.103-.799-.081-1.6-.136-2.38-.136" fill="#FFF" fill-rule="nonzero"/><path d="M106.997 139.87c-2.077-2.403-5.432-5.762-9.26-7.556 1.155 2.899 1.11 6.264.236 9.824-.23.933-.523 1.878-.861 2.834-.133.375-.259.751-.408 1.129 0 0-2.11-3.65-6.148-5.415 0 0 .327 8.122-7.419 15.19l-.034-.136c-.233-.898-1.831-6.617-6.062-11.69 0 0-2.292 4.4-3.116 12.861l-1.988-1.645c-.02 2.16-.526 4.912-1.582 6.672-.913 1.53-2.321 3.101-2.321 3.101s-1.183 1.764-4.182 2.745c-1.153.377-2.568.643-4.3.643-6.234 0-9.345-3.37-9.345-3.37s-1.408-1.573-2.322-3.097c-1.056-1.763-1.556-4.52-1.581-6.674l-1.878 1.549c-.827-8.462-3.117-12.784-3.117-12.784-3.558 4.263-5.255 8.98-5.846 10.914-.175.57-.257.91-.257.91-7.742-7.067-7.417-15.189-7.417-15.189-4.036 1.764-6.139 5.415-6.139 5.415-1.972-5.007-2.613-9.83-1.042-13.787-6.367 2.986-11.46 10.336-11.46 10.336 1.05-10.318 8.144-19.058 10.879-21.897 0 0-5.948 1.051-13.116 5.833l1.2-1.417c8.938-10.605 21.543-15.202 21.543-15.202.91-.283 5.971-1.8 10.158-2.39a.183.183 0 0 0-.035-.003.44.44 0 0 1 .088-.012l-.12.001c-.339-.054-.916-.027-1.654.04-2.178.006-4.574-.147-5.14-.565 1.049-.339.42-5.126-2.903-8.73 1.624.811 8.227 5.3 7.821 7.597 4.997.508 7.262-1.165 11.77-1.134.356 1.506-.876 3.349-1.131 3.7-.06.054-.099.083-.099.083.022-.01.039-.016.06-.03-.006.005-.007.014-.007.014l.123-.07c.099-.05.191-.102.284-.154l.054-.03 1.403-.775c-.614 1.872-1.696 4.114-2.996 5.837 0 0 7.614-5.762 5.348-14.93l-.002.045c-.084-.41-.204-.85-.373-1.093 0 0 .096 1.17-.202 2.248-1.209-3.448-3.904-5.208-4.647-5.513 0 0 1.395 1.399 1.692 2.534-2.902-1.695-6.426-2.56-11.805-3.354l-1.588-.167c-.45-.065-3.77-.261-4.344-.327 4.254-1.507 14.663.56 14.663.56.2.07-4.76-3.175-10.314-3.96 0 0 9.868-1.005 14.776 2.927 0 0-3.289-4.972-4.205-5.878 0 0 10.986 3.353 9.573 17.257-.453 2.802-1.491 4.52-1.682 4.82l-.03.048c.069-.059.138-.115.208-.176.696-.582 3.023-2.413 4.735-2.413.41 0 .852.105 1.298.27 1.39.513 2.812 1.624 3.373 2.091.079.07.157.144.251.211l-.034-.042c-.171-.28-1.22-2.005-1.688-4.824-1.404-13.91 9.583-17.262 9.583-17.262-.927.91-4.215 5.882-4.215 5.882 4.908-3.934 14.78-2.926 14.78-2.926-5.563.784-10.515 4.029-10.314 3.956 0 0 10.411-2.064 14.667-.56-.578.07-3.899.263-4.35.326l-1.587.166c-5.38.797-8.903 1.664-11.797 3.36.29-1.135 1.68-2.537 1.68-2.537-.741.303-3.429 2.062-4.642 5.513-.302-1.083-.206-2.247-.206-2.247-.17.243-.28.682-.369 1.093-.004-.017-.006-.028-.006-.047a13.59 13.59 0 0 0-.26 5.328c.897 6.007 5.612 9.602 5.612 9.602-1.467-1.941-2.651-4.542-3.208-6.528a.426.426 0 0 1-.008-.087c.563.622.906 1.249 2.135 1.826 0 0-.382-.51-.722-1.224-.352-.738-.66-1.695-.453-2.543 4.504-.031 6.764 1.642 11.769 1.134-.414-2.297 6.193-6.793 7.814-7.597-3.326 3.603-3.947 8.39-2.908 8.73-.715.536-4.474.634-6.902.524 4.192.586 9.252 2.103 10.156 2.385.905.283 12.715 4.617 21.651 15.222l1.205 1.417c-7.169-4.782-13.114-5.833-13.114-5.833 2.622 2.727 9.258 10.898 10.708 20.679.06.405.126.807.169 1.218 0 0-.822-1.18-2.204-2.78ZM23.69 42.683c2.048-6.328 5.644-2.784 7.455-.676 1.596 1.867 3.494 4.775 5.736 11.202 3.15 9.03.854 9.93-.373 12.565-.027-7.864-3.533-13.105-3.533-13.105 1.684 8.11-.58 12.508-1.54 15.312-.284-5.025-1.696-8.22-1.696-8.22-.278 5.022-1.184 8.293-2.372 11.06-.013.02-.292.662-.292.662-.31-2.819-1.256-3.928-1.256-3.928-.522 3-2.071 4.992-2.882 5.857 0 0-.282-1.308-.513-3.061-.225-1.752-2.696-13.467.881-26.307.144-.493.267-.945.385-1.36Zm18.278 56.213c.277.715.785 1.189 1.555 1.217.648.027 1.57-.282 1.744-.868.549.152 1.028.328 1.739.791-.465 1.606-1.997 2.748-3.762 2.675-2.066-.09-3.67-1.807-3.579-3.838.017-.38.094-.744.219-1.08.928.11 1.34.163 2.02.409-.032.117.017.57.064.694Zm45.95-57.446c.997-1.03 1.85-1.687 2.418-2.049 1.726-1.104 3.413.828 4.43 4.623 3.49 13.107 1.275 24.554 1.048 26.31-.233 1.755-.506 3.062-.506 3.062-.818-.865-2.37-2.857-2.89-5.858 0 0-.95 1.107-1.254 3.925 0 0-.281-.642-.298-.658-1.184-2.77-2.086-6.042-2.367-11.066 0 0-.929 2.147-1.43 5.655a29.66 29.66 0 0 0-.266 2.571c-.961-2.8-2.92-7.337-.813-15.446 0 0-4.24 5.373-4.255 13.238-1.233-2.636-3.692-3.534-.547-12.568 2.099-6.016 4.713-9.655 6.73-11.74ZM76.332 98.18c.689-.244 1.095-.296 2.024-.41.12.338.2.704.216 1.084.092 2.029-1.512 3.75-3.578 3.838-1.768.072-3.301-1.069-3.76-2.673.706-.463 1.195-.647 1.735-.797.178.59 1.1.9 1.748.872.77-.03 1.276-.505 1.553-1.218.045-.125.098-.58.062-.696Zm30.018 19.062c5.097 2.976 9.439 3.928 12.752 4.012 0 0-3.86-2.494-7.343-8.79-2.745-4.953-5.295-11.87-5.904-16.989 1.959 1.04 4.18 1.502 6.802 1.015-3.673-2.939-6.933-8.316-8.63-12.216-3.63-8.33-3.677-11.999-4.065-27.978-.125-5.205-1.37-10.88-1.954-12.572-1.17-3.345-2.817-6.862-7.175-6.015-7.03 1.364-13.502 13.131-14.716 15.258-1.234 2.164-2.65 3.735-4.755 9.162-7.17-1.352-14.443 3.795-14.484 3.853.094-2.123.85-4 2.535-5.958-6.046 2.405-7.54 8.742-7.54 8.742 0-4.89 1.62-8.65 3.098-9.965-2.235.166-4.699 1.523-7.654 4.08-2.091-5.429-3.263-7.75-4.491-9.914C41.606 50.84 35.13 39.074 28.1 37.71c-4.353-.847-6.003 2.67-7.17 6.015-.593 1.691-1.83 7.367-1.956 12.572-.387 15.98-.264 19.648-3.895 27.978-1.699 3.9-4.96 9.277-8.63 12.216 2.617.487 4.837.026 6.8-1.015-.61 5.118-3.16 12.036-5.905 16.99C3.86 118.76 0 121.255 0 121.255c3.322-.084 7.667-1.036 12.75-4.012-11.032 9.534-11.732 19.242-11.732 19.242s4.3-5.888 11.506-9.303c.026-.013.05-.026.075-.037-.029.02-.069.058-.1.083-1.64 1.304-6.989 8.04-6.155 21.94 1.666-1.668 7.274-7.724 10.414-10.54.894 4.93 2.1 8.614 4.147 12.796.06.116 4.798-5.16 5.504-5.547.086-.041 3.225 10.067 11.723 13.957.838-1.98 1.526-2.952 2.652-3.976 0 0 .767 2.363 1.55 5.696 0 0 1.555-1.056 2.907-1.404.057-.014.117-.035.173-.047.015.069.034.144.05.215.808 3.684 3.445 9.723 3.445 9.723.014-.008.028-.01.051-.015.002.007.002.015.002.015.39-.143.974-.475 1.496-.202 10.162 5.387 17.506.029 17.506.029 1.1-.28.35-.488 2.184.173 0 0 2.743-6.279 3.483-9.938 1.387.294 3.083 1.45 3.083 1.45.787-3.332 1.56-5.695 1.56-5.695 1.529.942 1.936 1.996 2.699 3.976 8.499-3.89 11.639-13.998 11.721-13.957.71.386 5.452 5.663 5.508 5.547 2.043-4.182 3.248-7.868 4.143-12.797 3.139 2.817 8.94 8.873 10.604 10.541.554-14.009-4.92-20.908-6.444-22.023 7.25 3.408 11.584 9.34 11.584 9.34s-.698-9.708-11.739-19.242Z" fill="#100F0D" fill-rule="nonzero"/></g></svg>