<svg width="200" height="200" xmlns="http://www.w3.org/2000/svg" xmlns:xlink="http://www.w3.org/1999/xlink"><defs><path id="a" d="M0 .217h199.852v92.787H0z"/></defs><g fill="none" fill-rule="evenodd"><path d="M196.56 56.567V80.53l-3.529-.288v51.613l-11.55 10.398-1.868-.757c-9.764-3.962-20.036-7.391-30.535-10.195l-1.02-.272-10.9-12.565V76.473l-2.703-.088V56.567h28.475V77.68l-3.13-.17v35.361l10.54 3.281V78.097l-3.344-.216V56.567h29.564ZM53.723 102.942v22.472l-2.782.437c-14.337 2.246-28.922 5.753-43.341 10.425l-4.308 1.393v-21.772l3.493-.99.033-35.49-3.526.285V56.567h29.836l.002 21.04-3.706.219v31.415c1.61-.334 3.498-.721 5.245-1.064l.017-2.587 2.735-.458c5.386-.9 7.202-1.128 12.598-1.811l3.704-.379ZM131.435 104.24l.025 22.977-3.88-.686a239.657 239.657 0 0 0-23.808-3.007l-3.045-.225v-14.118l-6.14 9.792-6.184-9.712v13.627l-3.256.035c-7.775.083-15.81.596-23.885 1.523l-3.701.425V102.4l4.444-.48V76.567l-3.187.11v-20.11h23.945l11.813 19.102 11.874-19.102h23.972v19.77l-3.242-.086-.022 27.567 4.277.422Z" fill="#FFF"/><g transform="translate(0 53.058)"><mask id="b" fill="#fff"><use xlink:href="#a"/></mask><path d="M53.723 72.357V49.885l-3.704.378c-5.396.684-7.212.911-12.598 1.811l-2.735.458-.017 2.587c-1.747.343-3.635.73-5.245 1.065V24.768l3.706-.22-.002-21.039H3.292v23.136l3.526-.286-.033 35.49-3.493.99v21.773L7.6 83.218c14.42-4.672 29.004-8.178 43.341-10.425l2.782-.436Zm77.737 1.802-.025-22.977-4.277-.422.022-27.567 3.243.086V3.509H106.45L94.576 22.612 82.763 3.509H58.818v20.11l3.188-.11v25.353l-4.445.48v22.471l3.701-.425c8.074-.927 16.11-1.44 23.885-1.522l3.256-.036V56.203l6.184 9.712 6.14-9.791V70.24l3.045.225a239.657 239.657 0 0 1 23.808 3.007l3.88.686Zm2.406-26.057V26.604l-.151-.006v.063l-3.238-.088c0 3.61-.008 6.939-.016 10.179-.011 3.498-.02 7.089-.017 11.034l1.295.118 2.127.198Zm33.182 10.515v-30.49l-3.956-.198V57.41c1.128.34 2.521.766 3.956 1.207Zm29.512-31.144V3.51h-29.564v21.314l3.344.217v38.055l-10.54-3.282v-35.36l3.13.17V3.509h-28.475v19.819l2.703.088v41.991l10.9 12.566 1.02.271c10.5 2.804 20.771 6.233 30.535 10.195l1.869.757 11.55-10.398V27.185l3.528.288ZM199.852.217v30.826l-3.528-.288V80.23L182.11 93.004l-1.866-.757-1.868-.757c-9.638-3.91-19.78-7.298-30.148-10.066l-1.02-.272-1.019-.271-11.454-13.24.028 10.447-3.877-.686-3.88-.689a236.272 236.272 0 0 0-23.478-2.963l-3.048-.227-3.045-.225v-5.729l-2.826 4.513-2.913-4.579v5.586l-3.257.033-3.257.036c-7.662.082-15.582.587-23.544 1.5l-3.701.426-3.704.524-2.782.436c-14.167 2.22-28.581 5.687-42.84 10.304l-4.304 1.397L0 89.139v-28.79l3.495-.99.028-29.428L0 30.214V.217h36.42l.003 27.437-3.707.217v21.652l1.427-.239 2.735-.455c5.451-.911 7.284-1.144 12.727-1.833l3.706-.47 5.402-.611V26.916l-3.188.11V.216H84.61l9.964 16.18L104.615.215h95.237Z" fill="#107FB8" mask="url(#b)"/></g><path d="M6.584 118.384v14.76c12.109-3.922 27.113-7.924 43.848-10.547v-16.011c-5.344.677-7.15.906-12.47 1.794-.009 1.524.008.999 0 2.523-4.246.769-11.831 2.398-11.831 2.398V74.72c1.416-.088 2.29-.131 3.707-.215l-.002-14.645H6.584v16.276c1.411-.115 2.12-.171 3.53-.281l-.04 41.563c-1.397.379-2.096.572-3.49.967M140.449 117.223l9.478 10.898c12.546 3.35 23.092 7.147 30.924 10.325 3.484-3.013 5.298-4.67 8.889-8.021V76.677a719.2 719.2 0 0 1 3.529.281V59.859h-22.98v14.935l3.343.215v43.444c-.727.675-1.014 1.01-1.742 1.677-3.405-1.182-13.365-4.162-13.365-4.162-.77-.932-1.25-1.394-2.018-2.31v-39.64c1.417.072 1.715.11 3.132.187V59.859h-21.89V73.2c1.42.045 1.28.122 2.7.173v43.85ZM60.887 105.33v15.846c7.81-.897 15.92-1.456 24.225-1.545v-15.324c-1.43.06-2.129.095-3.558.172.018-5.967.028-6.077.046-12.044 5.164 8.157 7.756 12.18 12.965 20.368 5.219-8.335 7.818-12.402 12.994-20.584.011 5.924.017 7.353.027 13.277-1.43-.041-2.137-.058-3.568-.083v14.83a241.624 241.624 0 0 1 24.137 3.045c-.015-5.046.028-11.08.003-16.045-1.425-.132-2.854-.375-4.282-.49-.058-12.816.057-21.07 0-33.887 1.42.033 1.835.051 3.255.09V59.859h-18.844c-5.459 8.836-8.199 13.181-13.704 22.026-5.491-8.776-8.224-13.12-13.667-22.026H62.11v13.41c1.42-.049 1.767-.072 3.187-.115v31.778s-2.986.23-4.41.397" fill="#AB0C2F"/></g></svg>