<?xml version="1.0" encoding="UTF-8"?>
<svg width="200px" height="200px" viewBox="0 0 200 200" version="1.1" xmlns="http://www.w3.org/2000/svg" xmlns:xlink="http://www.w3.org/1999/xlink">
    <!-- Generator: Sketch 51.3 (57544) - http://www.bohemiancoding.com/sketch -->
    <title>loyola-marymount</title>
    <desc>Created with Sketch.</desc>
    <defs></defs>
    <g id="loyola-marymount" stroke="none" stroke-width="1" fill="none" fill-rule="evenodd">
        <g id="loyola-marymount_BGL" transform="translate(0.000000, 41.000000)">
            <g id="loyola-marymount">
                <g id="g10" transform="translate(100.000000, 58.649574) scale(-1, 1) rotate(-180.000000) translate(-100.000000, -58.649574) translate(0.000000, 0.149574)" fill-rule="nonzero">
                    <g id="g12">
                        <path d="M192.914525,37.5470931 C192.914525,37.6358965 192.909824,65.5226479 192.909824,65.6123915 C192.882901,71.2162375 198.123072,73.4021349 199.788884,73.5444426 C194.516662,88.1760662 182.466235,98.1025616 181.970508,98.6641001 L181.308542,98.5551257 C180.943585,98.4876044 172.575209,96.9914506 164.723928,92.9611088 C159.51709,101.042305 152.553415,109.641023 152.483757,109.725211 C152.483757,109.726493 149.516663,113.360681 149.516663,113.360681 L145.316236,111.267946 C140.122646,108.676493 136.261962,105.311536 133.892732,102.908544 C132.088458,107.685467 130.354698,111.22863 130.134185,111.660254 L128.808971,114.359826 L125.823928,114.845724 C120.520937,115.706835 115.999142,116.221792 110.718801,116.561108 L106.573929,116.829057 L106.242732,116.044869 L104.950852,113.002989 C101.998715,106.055126 99.395724,100.09957 96.8534164,94.4764934 C94.4901686,99.6106813 91.9119635,105.318373 88.8743568,112.213672 L87.0991431,116.221792 L82.7641005,115.663245 C77.5111092,114.979484 72.8564084,114.155553 67.6717932,112.973929 L64.9329044,112.352989 L63.7008531,109.837177 C63.5585454,109.537604 60.1064088,102.425211 57.7807678,94.6709378 L56.7414516,91.1918781 L59.3970071,88.7145277 C61.8564087,86.4230748 62.8542719,84.0850406 62.9649557,80.3858954 L62.9649557,77.7649553 C62.9649557,77.7649553 62.9649557,68.058118 62.9649557,64.3012804 C60.695725,66.2196565 57.2910242,68.6324769 52.8149559,70.4568358 L48.9170928,72.0538444 L46.1662382,68.8641008 C45.9081185,68.5726479 40.9104691,62.755554 36.7341016,56.5957251 C36.7341016,61.5200839 36.7341016,70.8153828 36.7341016,70.8153828 C36.841794,74.9991434 38.0784179,79.4931604 39.9430759,82.5158099 L42.3514092,86.3944423 C38.7640161,91.1790575 29.5364095,96.5042711 20.240726,97.4593993 C18.0889312,95.5777754 15.9550423,93.426066 13.9343159,91.2141003 C12.0061963,89.17222 9.85743565,86.7076901 7.85589724,84.0256389 C3.77186743,78.8593997 1.00861536,74.7106819 1.00861536,74.7106819 C4.44128194,74.1901691 8.77521346,71.2046991 8.75017072,65.5431608 L8.75017072,32.9594009 C8.68004252,29.4025634 6.86346137,21.8003841 0.710636734,16.0209825 L0,15.3550851 C0,15.3550851 7.92517074,3.67821786 17.6677773,0 C20.2073499,3.04704266 23.0368798,5.6243161 25.8441874,7.94021348 C27.9947856,9.70303395 30.1365377,11.3593587 32.291153,12.922692 C32.3117086,12.9371792 32.3325633,12.9503843 32.3546146,12.9714099 C40.9438451,19.1710252 49.7730757,23.8979054 60.161537,27.9619224 C60.171366,27.9657258 64.0927334,29.5072215 64.0927334,29.5072215 L64.0927334,32.2320505 C64.1051266,32.2208966 64.1188018,32.2068795 64.1380326,32.1936744 C64.1423061,32.1888453 66.6072633,30.2859394 66.6072633,30.2859394 L69.6025624,31.1264522 C75.2222203,32.7287171 80.0739296,33.7568368 85.8388867,34.5781615 C85.8388867,34.581153 88.1012798,34.8863239 88.1012798,34.8863239 L89.6179465,36.6277769 C89.6431602,36.6581615 92.8876045,40.8376913 94.4183737,44.4482895 C95.6286301,42.8029904 97.0504249,40.8722212 97.0504249,40.8722212 C97.0504249,40.8722212 98.4679463,42.8970075 99.6495702,44.5790587 C100.77863,42.4082041 102.575211,39.2449563 104.447006,37.3140162 C104.4141,37.3487598 104.731621,37.0140589 104.731621,37.0140589 L106.077348,35.5927769 C106.077348,35.5927769 119.044014,34.4264094 124.695723,33.2765804 L127.552134,32.6939735 L129.820937,34.5372641 C130.607689,35.1747854 131.527774,36.1815376 132.411535,37.3520931 C136.975638,31.5431189 141.708971,26.5633327 142.423501,26.0171361 C142.500424,25.955213 143.686321,25.0849566 143.686321,25.0849566 L145.141022,24.8367515 C153.049569,23.5051276 159.898287,23.2815806 164.648714,23.3670507 C164.648714,21.5730336 164.648714,17.011068 164.648714,17.011068 L164.961107,16.8025637 C164.961107,16.801709 164.961107,16.8000423 164.961107,16.7970509 C164.980338,16.7858543 165.012389,16.7696577 165.032475,16.7546577 L167.395722,15.1752988 C167.393158,15.1769654 167.464526,15.1328629 167.588457,15.0550851 C171.576064,12.3529484 174.533756,10.0188459 175.580337,9.18551259 C179.762389,5.91277763 183.313243,2.11455123 183.313243,2.11455123 C183.313243,2.11455123 193.223499,12.4717946 199.185892,22.5983328 C194.447858,26.9995292 192.882901,31.151324 192.914525,37.5470931 Z M133.74145,88.1918781 C134.767945,84.9401688 134.6688,83.9576902 134.6688,83.9576902 L134.678202,53.0623918 C134.678202,53.0623918 134.678202,52.3598278 133.976065,51.1884603 C133.000851,49.5623919 132.453415,50.1350415 132.453415,50.1350415 C132.453415,50.1350415 131.633757,50.4863235 130.814099,52.0085457 C129.884185,53.7367508 129.943159,54.5393149 129.943159,54.5393149 L129.943159,82.8260663 C129.943159,82.8260663 129.760253,86.4354679 130.814099,88.3089722 C131.721792,89.9226473 132.336321,89.8311943 132.336321,89.8311943 C132.336321,89.8311943 133.038886,90.4166644 133.74145,88.1918781 Z M160.90897,51.7136739 L160.942731,78.6123912 C160.942731,78.6123912 160.991022,79.7046989 161.428201,81.0384595 C161.865808,82.3726475 162.404697,82.6965791 162.404697,82.6965791 C162.404697,82.6965791 163.19615,82.1897415 164.340167,78.5311946 C165.483757,74.8730751 165.553415,72.7888871 165.553415,72.7888871 L165.634184,52.6487166 C165.634184,52.6487166 165.298286,52.3987166 163.693158,52.0829047 C162.08803,51.7670927 160.90897,51.7136739 160.90897,51.7136739 Z" id="path14" fill="#052D4F"></path>
                        <path d="M109.237604,111.184185 C104.697006,100.495297 100.946579,92.0461515 96.9196557,83.4444424 C92.2794849,93.108972 88.2517072,102.077348 84.6076902,110.333758 L84.2465791,111.155125 L83.3504253,111.037604 C78.1927331,110.368373 73.8149554,109.591023 68.7012803,108.429057 L68.3243573,108.34316 L68.0730752,108.055126 C67.8038445,107.754271 64.4358958,100.658544 62.2487164,93.3363225 L62.0303403,92.6299122 L62.5794856,92.1192285 C65.9256394,88.9970063 67.4824769,85.4046987 67.6329043,80.4880322 C67.6329043,80.4880322 67.6329043,52.8205115 67.6329043,52.6948705 C67.4102547,49.9487167 65.933759,46.9619646 63.1042719,43.5705117 L62.6294856,43.0004263 L62.9346138,42.3106827 C63.2572634,41.5768366 64.9841864,37.8440589 67.192306,36.1281188 L67.6717932,35.7598709 L68.2551265,35.9201273 C74.1042717,37.5884606 79.1564083,38.6563666 85.1405962,39.5123922 L85.5739295,39.5693153 L85.8641004,39.904358 C87.2884594,41.517093 90.2269208,46.613674 90.2269208,47.479486 L90.2269208,48.0435885 L89.7837584,48.4085458 C89.6431602,48.5213663 86.3303397,51.28205 86.1675192,54.6064089 C86.1675192,54.6700841 86.1675192,61.7435882 86.1675192,66.4692291 C88.8008525,61.9230754 93.1538438,54.5790585 95.958972,50.7555543 L96.9465788,49.4085458 L97.911536,50.7769218 C100.320083,54.2145286 102.585468,58.2555541 104.776066,62.1700839 C105.722647,63.8649557 106.694014,65.5777761 107.684613,67.2756393 C107.684613,62.6183745 107.684613,55.3944431 107.684613,55.3226482 C107.519655,51.9829047 104.074356,48.9461526 104.038886,48.9200842 L103.342732,48.3072637 L103.744442,47.479486 C103.847006,47.2884604 106.099997,42.7628194 108.027348,40.7769221 L108.344869,40.444358 L108.809826,40.4153409 C114.760254,40.0298708 119.804698,39.356452 125.689313,38.1555546 L126.246151,38.0465375 L126.68333,38.4017939 C128.814527,40.1402127 131.024783,44.4153835 131.024783,45.0747852 L131.024783,45.5401698 L130.70427,45.8863236 C127.939313,48.9012808 126.429911,51.764956 126.223928,54.3876055 C126.223928,54.5128191 126.222646,81.9081176 126.222646,81.9593997 C126.366236,86.9089722 127.932048,90.6367499 131.312817,94.041878 L131.808544,94.5482882 L131.603843,95.2329036 C129.467518,102.368374 126.32051,108.858544 125.972646,109.571792 L125.696578,110.129484 L125.077347,110.244014 C119.930339,111.082049 115.54957,111.577348 110.417946,111.908544 L109.569228,111.966664 L109.237604,111.184185" id="path16" fill="#B4B3B3"></path>
                        <path d="M98.0098266,80.1320493 C102.368374,89.3559807 106.304698,98.1811941 111.101279,109.457262 C115.57863,109.143587 119.561535,108.689741 124.079484,107.969228 C124.910253,106.234613 127.312817,100.989741 129.107262,95.1863224 C125.627775,91.4593994 123.978202,87.370938 123.826493,82.0217928 L123.83333,54.274785 L123.838886,54.2282038 C124.067518,51.1987167 125.575638,48.1363236 128.402134,44.8833322 C127.888458,43.8418792 126.790168,41.8405972 125.544869,40.6226486 C119.993587,41.7277767 115.093587,42.3833323 109.468373,42.7696571 C108.293587,44.1307681 106.946579,46.5333322 106.297433,47.7713663 C107.547006,49.0499988 109.9141,51.8944431 110.078202,55.2153832 L110.078202,55.2478619 L110.078202,75.738887 L107.875638,72.2401691 C106.062818,69.3735025 104.347861,66.3094001 102.679912,63.3418788 C100.735895,59.8641011 98.8722198,56.5717935 96.894442,53.5867508 C92.6893139,59.7380327 86.0918782,71.4324768 86.0089722,71.5611093 L83.7675193,75.538887 L83.7675193,54.5264944 L83.7713654,54.5012807 C83.9299124,51.1273491 86.3141004,48.4085458 87.5546987,47.2012809 C86.9021346,45.902563 85.5324765,43.3038451 84.3346133,41.8090588 C78.673075,40.9864092 73.7722204,39.9504264 68.2388872,38.3999563 C67.1316223,39.4811529 66.0717932,41.3204263 65.4299129,42.6397425 C68.2730752,46.1999988 69.7901692,49.4499988 70.0205111,52.5393149 L70.0260666,52.5841867 L70.0303401,80.5282031 C69.8645282,85.8132457 68.176494,89.8846131 64.7521351,93.3252113 C66.5876052,99.271365 69.0320496,104.600425 69.7910239,106.212818 C74.2867503,107.218801 78.2713656,107.932476 82.7777757,108.537177 C86.6299124,99.8320488 90.8713652,90.3897413 95.8452967,80.1213655 L96.9401685,77.8688015 L98.0098266,80.1320493" id="path18" fill="#8E0A26"></path>
                        <path d="M147.399142,107.094442 C143.232475,105.011963 140.035894,102.368374 138.092304,100.519228 C136.481621,98.987177 134.566236,96.9957241 134.566236,96.2042711 L134.566236,95.834613 L134.771364,95.527348 C137.164099,92.0226473 138.601706,87.1350406 138.73162,82.1222202 L138.739313,52.6341867 C138.612817,48.7286313 137.348715,46.3555544 134.63333,44.9807681 L133.373501,44.3465801 L134.215381,43.2046998 C139.347005,36.2281188 145.279056,30.1024779 145.449996,29.9709394 L145.684612,29.7986745 L145.973073,29.7504266 C157.278629,27.8427343 166.274782,28.3017942 169.630338,28.5884181 C169.630338,26.623931 169.630338,19.6704696 169.630338,19.6704696 L170.166662,19.315726 C172.24615,17.9059825 173.679483,17.0619654 174.942731,16.3222645 C177.323072,14.9226919 178.891021,13.9948714 182.840166,10.3418801 L183.75897,9.49452968 L184.569654,10.4457262 C184.783756,10.6944442 189.796576,16.6077346 192.255978,21.3349567 L192.574782,21.9526063 L192.195294,22.5333755 C188.54273,28.1961104 188.209397,29.3294437 188.250423,36.0119649 L188.250423,55.6952978 L188.250423,65.558118 C188.234183,70.1696564 189.952132,73.4102546 192.419226,74.9581178 L193.326918,75.5333314 L192.857687,76.4978613 C189.147431,84.1418782 181.705551,91.9286302 180.874782,92.7982883 L180.433329,93.2508524 L179.80256,93.1529891 C171.802987,91.8085447 166.208543,87.1534166 165.971363,86.9572628 L165.179056,86.2876047 L165.72521,85.4046987 C168.118372,81.5508527 169.507261,76.6747844 169.630338,71.6726478 C169.630338,71.6726478 169.630338,49.6115372 169.630338,48.1897424 C164.611107,45.7786313 159.406834,45.9264946 157.2735,46.1307681 C157.2735,48.1046997 157.2735,77.4021348 157.2735,77.4021348 C157.458116,81.8991433 159.031193,85.6324765 161.478201,87.3337585 L162.424355,87.9905961 L161.811107,88.9598268 C157.606834,95.6264933 149.2188,106.676066 148.522646,107.070937 L147.970509,107.380339 L147.399142,107.094442" id="path20" fill="#B4B3B3"></path>
                        <path d="M147.61709,104.502134 C149.443159,102.197433 155.097005,94.94316 159.214953,88.5623909 C156.647859,86.2423055 155.075637,82.2794851 154.874355,77.4512801 L154.874355,44.0632468 L155.876492,43.8905972 C156.205979,43.835469 164.11068,42.5405545 171.393158,46.3752125 L172.027346,46.7119646 L172.027346,71.7042717 C171.903415,76.7602545 170.580765,81.6752116 168.30085,85.7260662 C169.947432,86.9324765 174.093585,89.6029892 179.58632,90.6713653 C181.2235,88.9213653 186.975209,82.5752116 190.249141,76.3363229 C188.424354,74.8320494 185.829483,71.8952973 185.859824,65.606836 C185.859824,65.5918787 185.859824,36.020982 185.859824,36.0162812 C185.853842,35.7270077 185.853842,35.4465376 185.853842,35.1704265 C185.853842,28.9359822 186.387175,27.1841446 189.796576,21.839273 C187.966235,18.5486747 184.951705,14.7030338 183.52991,12.9503843 C180.064525,16.0768799 178.38803,17.0803415 176.157261,18.3872645 C175.037602,19.0444867 173.761107,19.8043585 172.027346,20.9503414 C172.027346,22.0735037 172.027346,31.2670078 172.027346,31.2670078 L170.688885,31.1012813 C169.608115,30.9708967 159.820936,29.8991873 146.752988,32.052606 C145.626919,33.2358539 141.119227,38.0316657 136.938458,43.5658109 C139.623073,45.4226484 141.000424,48.3927338 141.140167,52.5965799 C141.140167,52.5995713 141.129911,82.1529894 141.129911,82.1529894 C140.996578,87.3008525 139.570509,92.3111088 137.223928,96.1149549 C138.466236,97.6085446 142.072646,101.527775 147.61709,104.502134" id="path22" fill="#8E0A26"></path>
                        <path d="M62.7619642,58.0213661 C62.3111096,58.5427336 58.1619644,63.23846 51.0568363,66.1461522 L50.2521355,66.4709385 L49.6717936,65.7876052 C48.9072637,64.9012804 42.0918366,56.884614 38.1764093,50.1829047 L37.5620931,49.1213663 L38.6304691,48.5282039 C40.3749135,47.5589732 41.0941015,44.9918792 41.3244434,43.4418793 C38.1017939,42.0217511 35.1896572,40.6179904 32.0758112,38.9811956 C32.0758112,42.5021784 32.0758112,70.9012803 32.0758112,70.9012803 C32.1960248,75.9457246 33.6641872,81.2128185 35.9887598,84.9679466 L36.478717,85.7606816 L35.8285034,86.4311944 C35.6465376,86.6286303 31.1181189,91.2581174 22.9620934,92.3811943 L22.4308969,92.449143 C20.7390166,91.139314 12.7971364,83.6846133 8.32115364,75.6905964 C11.0209826,74.2136734 13.2331621,70.8226478 13.4623928,65.3871779 C13.45688,65.3871779 13.45688,55.1046995 13.45688,55.1046995 L13.45688,31.6367941 C13.3396578,26.4214523 11.0371792,21.8320935 7.09670922,15.676068 L6.63730753,14.9542731 L7.16311948,14.2893586 C9.48183737,11.3439741 13.4773928,7.80081177 16.1728628,6.9477776 L16.8135893,6.74777761 L17.3238885,7.20337589 C30.3714095,18.8620081 42.6385459,26.4585036 58.3508532,32.6029906 L59.1111096,32.901324 C59.1111096,32.901324 59.1111096,44.326922 59.1111096,44.3764946 C59.2230754,49.0055543 60.505554,53.2145286 62.8393147,56.544443 L63.3735027,57.3008533 L62.7619642,58.0213661" id="path24" fill="#B4B3B3"></path>
                        <path d="M23.1500422,89.9162371 C28.527307,89.0482884 32.0824778,86.5085448 33.4547,85.3546987 C31.2132898,81.3354681 29.8080334,76.0397417 29.6866659,70.9333316 L29.6866659,34.9884607 L31.4489736,35.9406829 C35.4929478,38.1213238 38.9726913,39.8120503 43.094016,41.6038878 L43.8128194,41.9167511 L43.8128194,42.7024776 C43.8128194,42.7521357 43.6145288,47.4376057 40.7986315,49.8944432 C44.1636741,55.3807678 49.1944432,61.5089728 50.9376056,63.5803403 C55.8418789,61.4136737 59.0726481,58.4243575 60.3534173,57.0991439 C58.0914515,53.5213662 56.826067,49.1675201 56.7123917,44.4286314 C56.7123917,44.4286314 56.7123917,35.8854265 56.7123917,34.5179051 C41.3244434,28.4051275 29.1458112,20.860726 16.3044013,9.48200831 C14.463162,10.3418801 11.6281194,12.718333 9.58235019,15.1328629 C13.3642304,21.1333328 15.7271791,26.0650421 15.8583757,31.6069223 C15.8583757,31.6123924 15.8583757,65.441024 15.8583757,65.441024 C15.6525637,70.3188017 14.0474783,74.2940152 11.5104271,76.4290579 C15.4333757,82.9739295 21.4551704,88.4435875 23.1500422,89.9162371" id="path26" fill="#8E0A26"></path>
                        <path d="M190.661961,3.53799564 L191.016235,3.53799564 C191.385465,3.53799564 191.577773,3.75383751 191.577773,4.1927093 C191.577773,4.5312392 191.39273,4.73072638 190.985038,4.73072638 L190.661961,4.73072638 L190.661961,3.53799564 Z M189.876918,4.88499988 L191.123499,4.88499988 C191.562388,4.88499988 191.993158,4.68499988 191.993158,4.23126912 C191.993158,3.83079478 191.739311,3.55385461 191.385465,3.4461794 L191.816235,2.86107685 C192.023927,2.58413669 192.270081,2.3150384 192.416235,2.23758114 L192.416235,2.17648285 L192.016235,2.17648285 C191.762388,2.17648285 191.569653,2.60733754 191.000423,3.38458111 L190.661961,3.38458111 L190.661961,2.70733327 C190.661961,2.35343157 190.646576,2.36879054 191.031619,2.33039738 L191.031619,2.17648285 L189.876918,2.17648285 L189.876918,2.33039738 C190.261961,2.36879054 190.246576,2.35343157 190.246576,2.70733327 L190.246576,4.36965801 C190.246576,4.73893151 190.261961,4.7153845 189.876918,4.75376056 L189.876918,4.88499988 Z M191.054269,1.20676493 C192.20897,1.20676493 193.193585,2.2764743 193.193585,3.45385889 C193.193585,4.65427339 192.216235,5.71581182 191.054269,5.71581182 C189.899995,5.71581182 188.914953,4.64611099 188.914953,3.45385889 C188.914953,2.2764743 189.908115,1.20676493 191.054269,1.20676493 Z M188.576918,3.45385889 C188.576918,4.84658108 189.684611,5.99324771 191.054269,5.99324771 C192.431619,5.99324771 193.532046,4.85427338 193.532046,3.45385889 C193.532046,2.06881191 192.431619,0.929987156 191.054269,0.929987156 C189.684611,0.929987156 188.576918,2.06881191 188.576918,3.45385889 Z" id="path32" fill="#052D4F"></path>
                    </g>
                </g>
            </g>
        </g>
    </g>
</svg>