<svg width="200" height="200" xmlns="http://www.w3.org/2000/svg"><g fill-rule="nonzero" fill="#402A7A"><path d="M124.008 115.907V93.086H80.315V86.63c0-2.854 3.154-5.181 6.981-5.181h36.712V69.214H77.463c-9.91 0-18.017 6.004-18.017 13.36v22.748h43.691v6.533c0 2.85-3.152 5.179-7.056 5.179H59.446v12.236h46.47c9.982 0 18.092-6.005 18.092-13.363M54.482 117.11H21.15V69.213H.43v60.056h54.052v-12.16M193.351 115.907V69.214h-20.796v42.641c0 2.928-3.152 5.254-7.056 5.254h-15.914V69.362H128.94v59.908h46.394c9.91 0 18.017-6.005 18.017-13.363M195.904 129.71a2.965 2.965 0 1 1 0-5.93 2.965 2.965 0 1 1 0 5.93Zm0-6.74a3.778 3.778 0 0 0-3.777 3.775 3.777 3.777 0 1 0 3.777-3.776Z"/><path d="M196.174 126.34h-1.009v-.942h1.01c.26 0 .47.213.47.473a.469.469 0 0 1-.47.468Zm1.28-.47c0-.707-.572-1.278-1.28-1.278h-1.82v4.311h.811v-1.753h.578l.818 1.753h.892l-.849-1.827c.497-.176.85-.649.85-1.205Z"/></g></svg>