<svg width="200" height="200" xmlns="http://www.w3.org/2000/svg"><g fill="none"><path d="M38.408 78.249c3.997 0 8.524-.205 13.535-.61V51.664L61.61 76.68c1.2-.14 2.419-.287 3.66-.444 2.35-.297 14.243-2.224 28.175-4.516l-21.79-55.437H8.687v26.254h12.695v33.464c2.312 1.013 7.151 2.247 17.02 2.247h.006M141.154 63.99l5.822-15.606v14.949c5.534-.546 10.697-.822 15.444-.822 5.555 0 10.598.372 15.12 1.11V42.538h12.701V16.284h-62.73l-20.683 53.228c9.512-1.574 18.897-3.136 26.025-4.326 2.844-.457 5.61-.855 8.301-1.196m-51.427 85.462h19.549l8.766-23.498c-10.16 1.654-23.385 3.84-35.156 5.794l6.84 17.704m-68.344-13.589v20.738H8.701V183.4h55.907v-26.807H51.943V136.35c-5.25.498-10.163.751-14.695.751-5.863 0-11.154-.415-15.866-1.238m125.594-13.831v34.56h-12.731v26.807h55.986v-26.807H177.54V123.31c-2.553-.941-7.365-1.948-16.28-1.948-4.193 0-8.973.226-14.284.67" fill="#006838"/><path d="M199.277 85.902s1.05-25.832-65.49-15.128c0 0-61.845 10.33-67.805 11.084-69.82 8.84-49.514-13.682-49.514-13.682S0 72.016 0 84.809c0 1.448.392 28.9.392 28.9s-1.05 25.832 65.49 15.127c0 0 61.844-10.33 67.806-11.084 69.82-8.84 49.513 13.684 49.513 13.684s16.468-3.84 16.468-16.633c0-1.448-.392-28.9-.392-28.9" fill="#006838"/><path d="M47.966 98.722c-1.622 3.773-3.246 7.57-4.868 11.274-.024.04 9.427-.245 9.464-.228-1.532-3.668-3.065-7.31-4.596-11.046zm15.579 20.236c-.038.001-6.024.6-9.403.835.268-.013 1.618-.562 1.637-1.868.008-.568-1.672-4.475-2.1-5.518-.06-.046-11.673.266-11.74.284-.432 1.011-.863 1.948-1.296 2.953-.416.953-.722 2.182-.721 2.75.002 1.561 1.373 1.76 1.69 1.903-.068-.03-9.536.03-9.64.068.314.007 2.672-1.44 4.614-5.696 3.267-7.084 6.543-14.595 9.816-21.989 1.277-.005 2.558-.03 3.838-.08 3.093 7.292 6.183 14.706 9.28 21.747 1.764 4.102 3.668 4.622 4.025 4.611zm13.697-.948c-4.036 1.067-8.07.416-11.785-.199-.027-.004.016-4.833-.038-7.104 2.071 4.07 5.124 4.723 8.732 4.28 2.845-.348 5.455-2.48 5.4-4.887-.08-3.306-3.992-3.8-7.738-4.869-3.295-.94-6.3-2.824-6.602-6.25-.446-5.04 2.877-8.812 9.417-9.629 2.711-.338 5.91-.238 7.406.446.043 1.89-.017 3.782.03 5.67-.932-1.436-3.446-3.71-7.504-2.894-3.168.635-4.96 2.57-4.91 4.612.061 2.572 2.903 3.34 6.104 4.082 4.01.906 8.215 2.81 8.635 7.459.437 4.822-2.13 8.135-7.147 9.283m98.913-10.285c-3.599.177-8.978-1.304-11.054-2.766-.053-2.292.014-4.883-.038-7.174 2.06 4.579 5.095 6.246 8.692 6.396 2.8.12 5.432-1.188 5.377-3.62-.077-3.338-3.972-4.77-7.7-6.736-3.28-1.73-6.48-3.895-6.57-7.852-.119-5.072 3.827-7.619 9.378-7.425 2.666.099 5.882 1.158 7.37 2.203.045 1.91-.015 3.818.03 5.726-.925-1.664-3.428-4.56-7.468-4.709-3.155-.12-4.94 1.398-4.891 3.46.06 2.597 2.889 4.048 6.076 5.556 3.99 1.868 8.48 4.608 8.593 9.553.112 4.889-2.396 7.33-7.795 7.388M98.868 88.169c-1.218.303-2.201.605-3.419.907.083 3.454-.028 6.909.055 10.361.852.033 2.332-.138 3.801-.507 3.698-.92 5.736-3.779 5.663-6.853-.071-2.993-2.225-4.874-6.1-3.908zm.864 13.909c-1.56.387-3.239.577-4.137.555.054 2.268-.02 4.214.034 6.479.085 3.563 2.036 3.922 2.485 3.85-3.046.76-6.091 1.518-9.136 2.253.356-.125 1.948-1.305 1.861-4.948-.148-6.22.052-12.44-.097-18.66-.086-3.68-2.235-3.648-2.636-3.635 4.07-.98 7.559-1.862 11.628-2.874 6.192-1.538 10.015 1.582 10.116 5.747.107 4.612-3.39 9.554-10.118 11.233zm34.097 4.493c-6.429.87-13.523 2.184-19.937 3.607.316-.115 1.98-.88 1.886-4.803-.149-6.152.052-12.305-.097-18.457-.089-3.645-2.3-3.647-2.708-3.635 6.265-1.394 12.59-2.623 18.867-3.499.047 2.01-.018 4.021.032 6.032-.674-1.645-1.558-3.005-5.214-2.397a226.9 226.9 0 0 0-6.092 1.132c.07 2.995-.027 5.99.046 8.985 1.729-.34 3.541-.664 5.271-.962 2.978-.51 3.5-1.66 3.585-1.92.044 1.848-.013 3.695.029 5.542-.045-.108-.34-1.293-3.453-.763-1.763.302-3.433.63-5.19.975.074 3.13-.026 6.26.05 9.391a211.21 211.21 0 0 1 6.298-1.144c3.97-.651 5.21-1.739 6.593-4.604.098.02-.023 6.52.034 6.52m13.965-25.408c-1.114.04-1.962.088-3.078.162.084 3.384-.022 6.768.06 10.15a111.85 111.85 0 0 1 3.269-.165c4.288-.129 5.885-2.507 5.816-5.202-.063-2.547-2.135-5.077-6.067-4.945zm6.852 24.15a758.662 758.662 0 0 0-5.715-8.914c-1.16-1.752-2.028-2.406-3.365-2.331-.254.014-.437.028-.69.044.058 2.436-.017 4.875.044 7.311.09 3.57 1.861 3.955 2.309 3.98a125.42 125.42 0 0 0-9.053.755c.357-.087 1.955-.685 1.866-4.333-.155-6.223.04-12.455-.114-18.678-.091-3.702-2.28-3.962-2.685-3.991 3.804-.458 7.61-.76 11.42-.864 6.386-.152 9.272 3.693 9.425 7.552.12 2.993-1.574 6.624-6.687 7.429.81-.128 1.59 1.138 2.335 2.287a664.288 664.288 0 0 1 4.693 7.242c1.531 2.362 3.423 2.826 4.007 3.017a94.424 94.424 0 0 0-7.79-.506zM33.854 92.373c.01-.004-9.809-1.091-9.809-1.091s3.208 1.453 3.139 5.724c.12 5.076.186 7.745.226 12.826.052 6.414-3.905 6.991-6.826 6.046-2.042-.662-2.995-1.874-3.982-3.967l.036 6.111c.857.682 2.155 1.336 3.389 1.634 9.317 2.244 11.827-4.527 11.815-8.517-.119-4.978-.146-9.796-.265-14.774-.06-2.476 2.277-3.992 2.277-3.992" fill="#FFF"/></g></svg>