<svg width="200" height="200" xmlns="http://www.w3.org/2000/svg"><g fill-rule="nonzero" fill="none"><path d="m198.062 104.72.958-1.418-1.58-.66c-7.97-3.316-9.627-8.151-9.969-9.88 4.946-4.336 6.104-12.037 6.153-12.377l.207-1.442-1.449-.15c-15.668-1.62-21.131-5.85-22.957-9.115-1.673-2.99-.57-5.645-.419-5.977 5.969-9.94 7.28-21.96 3.787-34.772-2.185-8.017-5.558-13.935-6.733-15.855 1.661-3.868 1.063-5.433.528-6.03l-.7-.782-.946.452c-12.082 5.77-29.92 28.593-33.36 33.092-1.812-.25-4.707.166-9.618.916-5.927.908-14.044 2.15-22.952 2.15-8.912 0-17.03-1.242-22.957-2.15-4.908-.75-7.802-1.166-9.614-.916-3.44-4.5-21.279-27.323-33.362-33.092l-.945-.452-.7.78c-.535.598-1.137 2.164.528 6.031-1.177 1.92-4.55 7.839-6.735 15.856-3.492 12.813-2.181 24.836 3.79 34.776.14.309 1.258 2.972-.42 5.973-1.826 3.264-7.29 7.495-22.957 9.115l-1.45.15.207 1.442c.049.34 1.207 8.042 6.155 12.377-.34 1.717-1.992 6.559-9.971 9.88l-1.581.66.958 1.418c.201.3 4.878 7.123 12.406 9.673.156 2.394-.193 9.33-8.964 11.724l-2.347.64 1.731 1.709c.176.173 4.222 4.061 14.874 6.455-1.262 2.76-3.582 8.435-3.582 12.816v1.578l1.567-.186c.316-.037 31.946-3.648 46.132 7.386a31.821 31.821 0 0 1 6.092 6.253l.053.439c.001.007.392.36.392.36.006.005.127.115.328.29 3.957 5.887 4.642 11.265 4.649 11.319l.003.03.004.03c.033.204.853 5.052 4.432 9.93 3.31 4.517 9.692 9.899 21.284 9.899 11.59 0 17.97-5.382 21.282-9.899 3.579-4.878 4.398-9.726 4.43-9.93l.007-.03.003-.033c.005-.051.691-5.43 4.649-11.318.199-.173.32-.282.326-.288l.395-.355.048-.443a31.845 31.845 0 0 1 6.094-6.254c8.432-6.559 23.025-7.944 33.545-7.98l-.003.021-1.441 4.283h8.314l1.133-4.081c2.786.165 4.512.362 4.585.37l1.566.186v-1.577c0-4.381-2.32-10.055-3.582-12.816 10.653-2.394 14.697-6.283 14.875-6.455l1.73-1.708-2.347-.641c-8.769-2.392-9.119-9.326-8.965-11.724 7.53-2.551 12.203-9.373 12.406-9.673" fill="#FFF"/><path d="M184.366 113.331c7.661-2.168 12.536-9.394 12.536-9.394-10.706-4.459-10.923-11.76-10.923-11.76 5.1-3.905 6.258-11.991 6.258-11.991-31.403-3.247-24.475-17.135-24.475-17.135 14.198-23.522-3.287-49.865-3.287-49.865 1.967-4.205 1.068-5.208 1.068-5.208-12.975 6.196-33.401 33.407-33.401 33.407-3.034-1.3-16.589 2.888-33.13 2.888-16.546 0-30.1-4.189-33.132-2.888 0 0-20.426-27.211-33.404-33.407 0 0-.9 1.003 1.07 5.208 0 0-17.485 26.343-3.287 49.865 0 0 6.928 13.888-24.475 17.135 0 0 1.159 8.086 6.256 11.99 0 0-.213 7.302-10.922 11.76 0 0 4.876 7.227 12.537 9.395 0 0 1.982 10.9-9.887 14.137 0 0 4.224 4.169 15.923 6.452 0 0-4.215 8.2-4.215 13.817 0 0 32.342-3.851 47.158 7.673a33.037 33.037 0 0 1 6.582 6.822l.035.296s.166.15.45.395c4.31 6.334 4.978 12.09 4.978 12.09s3.029 18.651 24.333 18.651c21.3 0 24.33-18.652 24.33-18.652s.669-5.756 4.979-12.09c.282-.244.45-.394.45-.394s.007-.082.034-.295a33.048 33.048 0 0 1 6.58-6.823c14.815-11.524 47.16-7.673 47.16-7.673 0-5.616-4.214-13.817-4.214-13.817 11.699-2.283 15.921-6.452 15.921-6.452-11.868-3.237-9.886-14.137-9.886-14.137" fill="#0F0C0E"/><path d="M93.456 179.35c.2-2.188.536-2.898.536-2.898 6.21 1.068 13.265-3.03 13.265-3.03-13.111 1.928-16.738-2.3-16.738-2.3-1.275 7.218 2.866 14.793 2.866 14.793a63.492 63.492 0 0 1-.058-4.1c.942.41 4.864 1.19 5.227-.802.345-1.898-4.053-1.729-5.098-1.662" fill="#A3A1A1"/><path d="M107.324 175.298c-.113 1.516-.36 2.865-.71 4.066-.54-.043-5.638-.39-5.267 1.65.277 1.527 2.654 1.424 4.17 1.107-3.64 6.96-11.304 6.95-11.304 6.95 3.866 1.619 9.956-.125 9.956-.125 5.25-5.248 3.155-13.648 3.155-13.648" fill="#3B3838"/><path d="M129.363 46.89c-10.231 1.664-24.028 2.286-30.351 2.78-6.33-.494-20.125-1.116-30.357-2.78 0 0-8.42-.52-20.535 25.799-6.634 14.41-9.261 15.608-4.91 20.62 4.416 5.09 12.714 10.377 25.538 14.354 14.848 4.609 14.203 17.621 14.203 24.151 0 0 1.613 16.355 4.722 25.517 3.11 9.172 4.39 11.597 11.339 11.442 6.943.155 8.225-2.27 11.336-11.442 3.11-9.162 4.722-25.517 4.722-25.517 0-6.53-.648-19.542 14.202-24.151 12.822-3.977 21.123-9.264 25.54-14.354 4.347-5.012 1.723-6.21-4.91-20.62-12.116-26.319-20.539-25.799-20.539-25.799M51.04 55.343s4.595-8.225 9.66-10.959c0 0-17.702-22.547-24.118-26.427 0 0 8.646 11.725 7.444 27.55-.412 5.444 2.594 8.93 7.014 9.836M137.32 44.384c5.066 2.734 9.66 10.96 9.66 10.96 4.419-.907 7.425-4.393 7.013-9.836-1.203-15.826 7.445-27.551 7.445-27.551-6.416 3.88-24.119 26.427-24.119 26.427" fill="#E51636"/><path d="M95.973 117.987s-4.088 3.16-4.088.6 1.076-14.697-22.092-24.178c0 0-15.835-4.582-15.835-9.848 0 0 9.067 3.306 12.978 3.306 0 0-10.281-7.072-8.174-14.895 2.107-7.82 8.747-19.443 8.747-19.443s-7.115 3.973-20.694 35.18c0 0 5.917 8.216 24.378 13.769 18.459 5.553 17.44 24.113 17.443 29.05.003 4.938 3.648 26.967 7.012 30.527 0 0-5.09-26.671-2.834-37.956 0 0 1.505-1.093 3.159-6.112M147.738 49.695s2.198-.346 3.368-17.04c-5.49 7.333-7.812 11.226-7.812 11.226s3.636 2.76 4.444 5.814" fill="#EC5358"/><path d="m41.637 57.798.146.203a14.737 14.737 0 0 0-.146-.203M40.599 56.231c.017.027.03.054.047.08l-.047-.08M41.292 57.308l.112.17-.112-.17M40.944 56.784c.027.043.054.088.083.132-.029-.044-.056-.089-.083-.132M156.676 57.453l.05-.08-.05.08M157.035 56.9l.042-.065-.042.065M157.398 56.303c.007-.012.015-.025.02-.037l-.02.037M155.248 59.334l.154-.184c-.054.062-.102.122-.154.184M65.798 113.789c0 1.06.856 1.917 1.919 1.917a1.918 1.918 0 0 0 1.715-2.778 19.658 19.658 0 0 0-2.345-.959 1.927 1.927 0 0 0-1.29 1.82M127.304 114.213c0 1.06.86 1.917 1.922 1.917 1.06 0 1.92-.857 1.92-1.917 0-.973-.722-1.778-1.66-1.906-.658.23-1.26.489-1.808.769a1.91 1.91 0 0 0-.374 1.137" fill="#FFF"/><path d="M77.225 128.12s-20.42 4.387-34.013-15.043c0 0 6.196-4.42 12.219-4.42 0 0-18.461-8.028-20.028-19.436 0 0-.47-5.162 6.967-17.654 3.552-5.965 3.713-7.887 2.457-9.759l-.016-.025c-.414-.61-.973-1.216-1.617-1.956a45.844 45.844 0 0 1-.164-.192l-.14-.162a27.594 27.594 0 0 1-.575-.698l-.218-.28a45.569 45.569 0 0 1-.369-.493l-.09-.129c-.091-.129-.183-.26-.276-.396l-.07-.106a21.89 21.89 0 0 1-.296-.455l-.052-.083c-.105-.17-.211-.341-.315-.522l-.03-.05a22.596 22.596 0 0 1-.336-.601c-1.812-3.368-7.304-11.244-5.856-31.61l-.003.012v-.012s-9.67 25.098 1.904 37.035c1.867 1.926 1.214 5.985 1.214 5.985S35.841 81.965 14.014 85.02c0 0 1.215 3.133 4.428 4.297 0 0-.716 12.078-7.702 16.008 0 0 3.335 3.429 7.998 2.151 0 0 3.631 13.629-3.274 18.725 0 0 7.5 3.355 14.704 3.355 0 0-4.796 3.491-6.985 12.005 0 0 24.374-.785 36.237 5.229 3.507 1.776 6.053 3.179 8.437 5.13-1.398-10.282-22.847-19.637-22.847-19.637 28.977 4.095 31.037 26.495 32.38 32.655v.002c2.359 6.322 3.01 12.544 8.92 12.544 0 0-1.063-13.456-5.903-25.236 0 0-3.66-16.098-3.182-24.128M187.279 105.326c-6.985-3.93-7.7-16.008-7.7-16.008 3.212-1.164 4.427-4.297 4.427-4.297C162.178 81.965 160.5 67.07 160.5 67.07s-.656-4.06 1.213-5.985c11.571-11.937 1.902-37.035 1.902-37.035v.01l-.002-.01c1.448 20.366-4.042 28.242-5.854 31.61-.116.215-.232.42-.349.62l-.012.023c-.114.193-.226.378-.336.556l-.027.04c-.11.174-.218.341-.327.503-.011.017-.021.035-.032.05a20.15 20.15 0 0 1-.664.926l-.05.067a25.922 25.922 0 0 1-.617.773l-.097.116-.165.195c-.097.114-.193.224-.287.332-.544.627-1.027 1.157-1.412 1.677-1.453 1.968-1.456 3.777 2.264 10.029 7.437 12.492 6.97 17.654 6.97 17.654-1.57 11.408-20.029 19.436-20.029 19.436 6.023 0 12.218 4.42 12.218 4.42-13.592 19.43-34.012 15.044-34.012 15.044.478 8.03-3.182 24.128-3.182 24.128-4.84 11.78-5.9 25.236-5.9 25.236 5.904 0 6.556-6.218 8.913-12.539 0-.002 0-.005.002-.007 1.343-6.16 3.406-28.56 32.38-32.655 0 0-21.448 9.355-22.847 19.638 2.386-1.951 4.93-3.355 8.44-5.131 11.86-6.014 36.238-5.229 36.238-5.229-2.19-8.514-6.985-12.005-6.985-12.005 7.202 0 14.701-3.355 14.701-3.355-6.903-5.096-3.273-18.725-3.273-18.725 4.663 1.278 7.997-2.151 7.997-2.151" fill="#FFF"/><path d="M39.183 58.554c2.629 1.42 4.51 2.606 5.857 3.594-.537-.937-1.447-1.806-2.492-3.084a3.895 3.895 0 0 1-.077-.097 7.924 7.924 0 0 1-.156-.192l-.218-.28a45.569 45.569 0 0 1-.369-.493l-.09-.129c-.091-.129-.183-.26-.276-.396l-.07-.106a21.89 21.89 0 0 1-.296-.455l-.052-.083c-.105-.17-.211-.341-.315-.522l-.03-.05a22.596 22.596 0 0 1-.336-.601c-1.812-3.368-7.304-11.244-5.856-31.61l-.003.012c-.124.5-6.892 28.167 4.779 34.492M158.831 58.554c11.695-6.333 4.891-34.064 4.785-34.493 0-.004-.003-.01-.003-.01 1.448 20.365-4.042 28.241-5.854 31.609-.116.215-.232.42-.349.62l-.012.023c-.114.193-.226.378-.336.556l-.027.04c-.11.174-.218.341-.327.503-.011.017-.021.035-.032.05a20.15 20.15 0 0 1-.664.926l-.05.067a25.922 25.922 0 0 1-.617.773l-.097.116-.165.195c-.882 1.034-1.634 1.8-2.102 2.619 1.346-.988 3.229-2.174 5.85-3.594M43.505 127.332c-3.71 1.024-11.375 3.865-12.418 10.072 0 0 11.066-.37 21.342 4.034 0 0-8.602-7.264-13.48-8.544 0 0 1.787-3.366 4.556-5.562M159.07 132.894c-4.875 1.28-13.481 8.544-13.481 8.544 10.278-4.403 21.346-4.034 21.346-4.034-.877-5.088-7.197-9.985-7.197-9.985 9.478-.934 14.07-4.327 14.07-4.327-3.114-5.07-.611-21.152-.611-21.152 1.196 1.19 5.566.05 5.566.05-3.744-2.265-4.938-13.62-4.938-13.62.672-.672.864-1.133.864-1.133-2.671 0-8.541-3.869-8.541-3.869 0 1.202 5.074 5.071 5.074 5.071 0 2.237 1.065 10.145 1.065 10.145-1.735 0-3.87-1.467-3.87-1.467-2.27 7.474-1.202 23.497-1.202 23.497-2.804 2.804-16.34 4.956-16.34 4.956 4.745.823 8.196 7.324 8.196 7.324" fill="#BDBCBC"/><path d="M76.01 119.948a9.83 9.83 0 0 0-.633-1.558 6.587 6.587 0 0 1-6.477 5.406 6.587 6.587 0 0 1-6.587-6.588 6.57 6.57 0 0 1 3.226-5.658c-6.654-1.063-14.506.856-17.994 2.254 11.486 14.815 28.955 11.59 28.955 11.59.114-2.092-.068-3.896-.49-5.448v.002M133.629 111.397c-.395.044-.771.099-1.138.16a6.572 6.572 0 0 1 3.216 5.651 6.589 6.589 0 0 1-6.587 6.588c-3.294 0-6.011-2.419-6.5-5.573-.842 1.893-1.257 4.252-1.1 7.171 0 0 17.469 3.225 28.953-11.59-3.288-1.318-10.46-3.099-16.844-2.407" fill="#3B3838"/><path d="M61.235 112.645s-6.124-.1-11.445 1.84c0 0 4.796 6.172 11.077 7.717 0 0-7.64-4.676-8.115-7.114 0 0 .596-.733 8.483-2.443M145.268 115.088c-.475 2.438-8.115 7.114-8.115 7.114 6.28-1.545 11.079-7.718 11.079-7.718-5.324-1.94-11.446-1.839-11.446-1.839 7.885 1.71 8.482 2.443 8.482 2.443M72.624 114.977a4.68 4.68 0 0 1-4.46 6.094 4.676 4.676 0 0 1-4.494-3.391 5.195 5.195 0 0 0 10.36-.56c0-.282-.027-.558-.07-.829a12 12 0 0 0-1.336-1.314M133.082 116.391a4.677 4.677 0 0 1-9.174 1.289 5.195 5.195 0 0 0 10.361-.56 5.189 5.189 0 0 0-4.03-5.056c-.014.006-.032.01-.046.014a4.665 4.665 0 0 1 2.889 4.313" fill="#A3A1A1"/><path fill="#231F20" d="M173.103 148.926h-2.154l-.196.532h.757l-.837 2.27h.63l.838-2.27h.765l.197-.532M174.833 149.858c-.211.317-.443.68-.638 1.006h-.016c.06-.329.106-.678.132-.998l.073-.94h-.844l-1.213 2.803h.587l.446-1.066c.146-.348.32-.781.473-1.16h.008c-.064.37-.12.766-.15 1.1l-.101 1.08h.496l.743-1.093c.23-.33.493-.728.717-1.086h.009c-.151.412-.288.815-.4 1.152l-.35 1.073h.615l.885-2.803h-.832l-.64.932"/></g></svg>