<svg width="200" height="200" xmlns="http://www.w3.org/2000/svg"><g fill="none"><path d="M199.062 104.745l.958-1.418-1.58-.659c-7.97-3.317-9.627-8.152-9.969-9.88 4.946-4.337 6.104-12.038 6.153-12.378l.207-1.442-1.449-.15c-15.668-1.62-21.131-5.85-22.957-9.115-1.673-2.99-.57-5.645-.419-5.977 5.969-9.94 7.28-21.96 3.787-34.772-2.185-8.017-5.558-13.935-6.733-15.855 1.661-3.868 1.063-5.433.528-6.03l-.7-.781-.946.451c-12.082 5.77-29.92 28.593-33.36 33.092-1.812-.25-4.707.166-9.618.917-5.927.907-14.044 2.149-22.952 2.149-8.912 0-17.03-1.242-22.957-2.15-4.908-.75-7.802-1.166-9.614-.916-3.44-4.5-21.279-27.323-33.362-33.092l-.945-.451-.7.78c-.535.598-1.137 2.163.528 6.03-1.177 1.92-4.55 7.839-6.735 15.856-3.492 12.813-2.181 24.836 3.79 34.776.14.309 1.258 2.972-.42 5.973-1.826 3.264-7.29 7.495-22.957 9.115l-1.45.15.207 1.442c.049.34 1.207 8.042 6.155 12.377-.34 1.717-1.992 6.559-9.971 9.881l-1.581.66.958 1.417c.201.3 4.878 7.123 12.406 9.673.156 2.394-.193 9.33-8.964 11.724l-2.347.64 1.731 1.71c.176.172 4.222 4.06 14.874 6.454-1.262 2.761-3.582 8.435-3.582 12.816v1.578l1.567-.186c.316-.037 31.946-3.648 46.132 7.386a31.821 31.821 0 0 1 6.092 6.254l.053.438c.001.007.392.36.392.36.006.005.127.115.328.29 3.957 5.887 4.642 11.265 4.649 11.319l.003.03.004.03c.033.204.853 5.052 4.432 9.93 3.31 4.517 9.692 9.899 21.284 9.899 11.59 0 17.97-5.382 21.282-9.899 3.579-4.878 4.398-9.726 4.43-9.93l.007-.03.003-.033c.005-.051.691-5.43 4.649-11.317.199-.174.32-.283.326-.288l.395-.356.048-.443a31.845 31.845 0 0 1 6.094-6.254c8.432-6.558 23.025-7.944 33.545-7.98l-.003.021-1.441 4.283h8.314l1.133-4.081c2.786.165 4.512.362 4.585.37l1.566.186v-1.577c0-4.381-2.32-10.055-3.582-12.816 10.653-2.393 14.697-6.283 14.875-6.455l1.73-1.708-2.347-.64c-8.769-2.393-9.119-9.327-8.965-11.725 7.53-2.55 12.203-9.372 12.406-9.673" fill="#FFF"/><path d="M185.366 113.356c7.661-2.168 12.536-9.394 12.536-9.394-10.706-4.459-10.923-11.76-10.923-11.76 5.1-3.905 6.258-11.99 6.258-11.99-31.403-3.248-24.475-17.136-24.475-17.136 14.198-23.522-3.287-49.865-3.287-49.865 1.967-4.205 1.068-5.207 1.068-5.207-12.975 6.195-33.401 33.406-33.401 33.406-3.034-1.3-16.589 2.888-33.13 2.888-16.546 0-30.1-4.188-33.132-2.888 0 0-20.426-27.211-33.404-33.406 0 0-.9 1.002 1.07 5.207 0 0-17.485 26.343-3.287 49.865 0 0 6.928 13.888-24.475 17.135 0 0 1.159 8.086 6.256 11.99 0 0-.213 7.302-10.922 11.76 0 0 4.876 7.227 12.537 9.395 0 0 1.982 10.9-9.887 14.137 0 0 4.224 4.169 15.923 6.452 0 0-4.215 8.2-4.215 13.817 0 0 32.342-3.851 47.158 7.673a33.037 33.037 0 0 1 6.582 6.822l.035.296s.166.151.45.396c4.31 6.333 4.978 12.088 4.978 12.088s3.029 18.652 24.333 18.652c21.3 0 24.33-18.652 24.33-18.652s.669-5.756 4.979-12.09a39.4 39.4 0 0 0 .45-.394s.007-.081.034-.295a33.048 33.048 0 0 1 6.58-6.823c14.815-11.524 47.16-7.673 47.16-7.673 0-5.616-4.214-13.817-4.214-13.817 11.699-2.283 15.921-6.452 15.921-6.452-11.868-3.237-9.886-14.137-9.886-14.137" fill="#0F0C0E"/><path d="M94.456 179.376c.2-2.189.536-2.899.536-2.899 6.21 1.068 13.265-3.03 13.265-3.03-13.111 1.928-16.738-2.3-16.738-2.3-1.275 7.218 2.866 14.793 2.866 14.793a63.492 63.492 0 0 1-.058-4.1c.942.41 4.864 1.19 5.227-.802.345-1.898-4.053-1.728-5.098-1.662" fill="#A3A1A1"/><path d="M108.324 175.323c-.113 1.516-.36 2.865-.71 4.066-.54-.043-5.638-.39-5.267 1.65.277 1.527 2.654 1.424 4.17 1.107-3.64 6.96-11.304 6.95-11.304 6.95 3.866 1.619 9.956-.125 9.956-.125 5.25-5.248 3.155-13.648 3.155-13.648" fill="#3B3838"/><path d="M130.363 46.915c-10.231 1.664-24.028 2.286-30.351 2.78-6.33-.494-20.125-1.116-30.357-2.78 0 0-8.42-.52-20.535 25.799-6.634 14.41-9.261 15.608-4.91 20.62 4.416 5.09 12.714 10.377 25.538 14.354 14.848 4.609 14.203 17.622 14.203 24.151 0 0 1.613 16.355 4.722 25.518 3.11 9.17 4.39 11.596 11.339 11.441 6.943.155 8.225-2.27 11.336-11.441 3.11-9.163 4.722-25.518 4.722-25.518 0-6.53-.648-19.542 14.202-24.151 12.822-3.977 21.123-9.263 25.54-14.354 4.347-5.012 1.723-6.21-4.91-20.62-12.116-26.319-20.539-25.799-20.539-25.799M52.04 55.368s4.595-8.225 9.66-10.959c0 0-17.702-22.547-24.118-26.427 0 0 8.646 11.725 7.444 27.55-.412 5.444 2.594 8.93 7.014 9.836m86.28-10.958c5.066 2.733 9.66 10.958 9.66 10.958 4.419-.906 7.425-4.392 7.013-9.835-1.203-15.826 7.445-27.55 7.445-27.55-6.416 3.88-24.119 26.426-24.119 26.426" fill="#E51636"/><path d="M96.973 118.012s-4.088 3.16-4.088.6 1.076-14.697-22.092-24.178c0 0-15.835-4.581-15.835-9.848 0 0 9.067 3.306 12.978 3.306 0 0-10.281-7.072-8.174-14.895 2.107-7.82 8.747-19.442 8.747-19.442s-7.115 3.972-20.694 35.18c0 0 5.917 8.215 24.378 13.768 18.459 5.553 17.44 24.113 17.443 29.05.003 4.938 3.648 26.967 7.012 30.527 0 0-5.09-26.671-2.834-37.956 0 0 1.505-1.093 3.159-6.112m51.765-68.292s2.198-.346 3.368-17.04c-5.49 7.333-7.812 11.226-7.812 11.226s3.636 2.76 4.444 5.814" fill="#EC5358"/><path d="M42.637 57.823l.146.203a14.737 14.737 0 0 0-.146-.203m-1.038-1.567c.017.027.03.054.047.08l-.047-.08m.693 1.077c.036.057.075.113.112.17-.037-.057-.076-.113-.112-.17m-.348-.523c.027.042.054.087.083.13-.029-.043-.056-.088-.083-.13m115.732.668l.05-.08-.05.08m.359-.553l.042-.064-.042.064m.363-.597c.007-.012.015-.025.02-.037l-.02.037m-2.15 3.031l.154-.184c-.054.062-.102.122-.154.184m-89.45 54.455c0 1.06.856 1.917 1.919 1.917a1.918 1.918 0 0 0 1.715-2.778 19.658 19.658 0 0 0-2.345-.959 1.927 1.927 0 0 0-1.29 1.82m61.507.424c0 1.06.86 1.917 1.922 1.917 1.06 0 1.92-.857 1.92-1.917 0-.973-.722-1.778-1.66-1.906a14.6 14.6 0 0 0-1.808.769 1.91 1.91 0 0 0-.374 1.137" fill="#FFF"/><path d="M78.225 128.146s-20.42 4.386-34.013-15.043c0 0 6.196-4.42 12.219-4.42 0 0-18.461-8.03-20.028-19.437 0 0-.47-5.162 6.967-17.654 3.552-5.965 3.713-7.887 2.457-9.759l-.016-.025c-.414-.61-.973-1.216-1.617-1.956a45.844 45.844 0 0 1-.164-.191l-.14-.163a27.594 27.594 0 0 1-.575-.698c-.072-.09-.144-.185-.218-.28a45.569 45.569 0 0 1-.369-.493l-.09-.129a32.88 32.88 0 0 1-.276-.396l-.07-.106a21.89 21.89 0 0 1-.296-.455l-.052-.083c-.105-.17-.211-.341-.315-.521l-.03-.051a22.596 22.596 0 0 1-.336-.6c-1.812-3.369-7.304-11.245-5.856-31.61l-.003.011v-.011s-9.67 25.097 1.904 37.034c1.867 1.926 1.214 5.985 1.214 5.985S36.841 81.99 15.014 85.046c0 0 1.215 3.133 4.428 4.297 0 0-.716 12.078-7.702 16.008 0 0 3.335 3.429 7.998 2.151 0 0 3.631 13.63-3.274 18.725 0 0 7.5 3.355 14.704 3.355 0 0-4.796 3.491-6.985 12.005 0 0 24.374-.785 36.237 5.229 3.507 1.777 6.053 3.179 8.437 5.13-1.397-10.28-22.847-19.636-22.847-19.636 28.977 4.095 31.037 26.495 32.38 32.655v.002c2.359 6.323 3.01 12.544 8.92 12.544 0 0-1.063-13.456-5.903-25.236 0 0-3.66-16.097-3.182-24.128m110.054-22.797c-6.985-3.93-7.7-16.007-7.7-16.007 3.212-1.164 4.427-4.297 4.427-4.297C163.178 81.99 161.5 67.095 161.5 67.095s-.656-4.06 1.213-5.985c11.571-11.937 1.902-37.034 1.902-37.034v.01l-.002-.01c1.448 20.365-4.042 28.241-5.854 31.61-.116.214-.232.419-.349.619l-.012.023c-.114.193-.226.378-.336.556l-.027.04c-.11.174-.218.341-.327.503-.011.017-.021.035-.032.05a20.15 20.15 0 0 1-.664.926l-.05.067a25.922 25.922 0 0 1-.617.773l-.097.116-.165.195c-.097.114-.193.224-.287.332-.544.627-1.027 1.158-1.412 1.678-1.453 1.967-1.456 3.776 2.264 10.028 7.437 12.492 6.97 17.654 6.97 17.654-1.57 11.408-20.029 19.436-20.029 19.436 6.023 0 12.218 4.42 12.218 4.42-13.592 19.43-34.012 15.044-34.012 15.044.478 8.03-3.182 24.128-3.182 24.128-4.84 11.78-5.9 25.236-5.9 25.236 5.904 0 6.556-6.218 8.913-12.539 0-.002 0-.005.002-.007 1.343-6.16 3.406-28.56 32.38-32.655 0 0-21.448 9.356-22.847 19.639 2.386-1.952 4.93-3.355 8.44-5.132 11.86-6.014 36.238-5.229 36.238-5.229-2.19-8.514-6.985-12.005-6.985-12.005 7.202 0 14.701-3.355 14.701-3.355-6.903-5.096-3.273-18.725-3.273-18.725 4.663 1.278 7.997-2.151 7.997-2.151" fill="#FFF"/><path d="M40.183 58.58c2.629 1.42 4.51 2.605 5.857 3.593-.537-.936-1.447-1.806-2.492-3.084a3.895 3.895 0 0 1-.077-.097 7.924 7.924 0 0 1-.156-.192c-.072-.09-.144-.185-.218-.28a45.569 45.569 0 0 1-.369-.493l-.09-.129a32.88 32.88 0 0 1-.276-.396l-.07-.106a21.89 21.89 0 0 1-.296-.455l-.052-.083c-.105-.17-.211-.341-.315-.521l-.03-.051a22.596 22.596 0 0 1-.336-.6c-1.812-3.369-7.304-11.245-5.856-31.61l-.003.011c-.124.5-6.892 28.167 4.779 34.492m119.648.001c11.695-6.334 4.891-34.065 4.785-34.494 0-.004-.003-.01-.003-.01 1.448 20.365-4.042 28.241-5.854 31.61-.116.214-.232.419-.349.619l-.012.023c-.114.193-.226.378-.336.556l-.027.04c-.11.174-.218.341-.327.503-.011.017-.021.035-.032.05a20.15 20.15 0 0 1-.664.926l-.05.067a25.922 25.922 0 0 1-.617.773l-.097.116-.165.195c-.882 1.034-1.634 1.8-2.102 2.619 1.346-.988 3.229-2.174 5.85-3.594M44.505 127.358c-3.71 1.023-11.375 3.865-12.418 10.072 0 0 11.066-.37 21.342 4.033 0 0-8.602-7.264-13.48-8.544 0 0 1.787-3.366 4.556-5.561m115.565 5.561c-4.875 1.28-13.481 8.544-13.481 8.544 10.278-4.403 21.346-4.033 21.346-4.033-.877-5.09-7.197-9.985-7.197-9.985 9.478-.935 14.07-4.328 14.07-4.328-3.114-5.069-.611-21.152-.611-21.152 1.196 1.191 5.566.05 5.566.05-3.744-2.265-4.938-13.62-4.938-13.62.672-.672.864-1.133.864-1.133-2.671 0-8.541-3.869-8.541-3.869 0 1.202 5.074 5.072 5.074 5.072 0 2.236 1.065 10.144 1.065 10.144-1.735 0-3.87-1.467-3.87-1.467-2.27 7.474-1.202 23.498-1.202 23.498-2.804 2.803-16.34 4.955-16.34 4.955 4.745.823 8.196 7.324 8.196 7.324" fill="#BDBCBC"/><path d="M77.01 119.973a9.83 9.83 0 0 0-.633-1.558 6.587 6.587 0 0 1-6.477 5.406 6.587 6.587 0 0 1-6.587-6.588 6.57 6.57 0 0 1 3.226-5.658c-6.654-1.063-14.506.856-17.994 2.254C60.031 128.644 77.5 125.42 77.5 125.42c.114-2.092-.068-3.896-.49-5.448v.002m57.619-8.552a21.23 21.23 0 0 0-1.138.16 6.572 6.572 0 0 1 3.216 5.651 6.589 6.589 0 0 1-6.587 6.588c-3.294 0-6.011-2.419-6.5-5.573-.842 1.894-1.257 4.252-1.1 7.171 0 0 17.469 3.225 28.953-11.59-3.288-1.318-10.46-3.099-16.844-2.407" fill="#3B3838"/><path d="M62.235 112.67s-6.124-.1-11.445 1.84c0 0 4.796 6.172 11.077 7.717 0 0-7.64-4.675-8.115-7.114 0 0 .596-.733 8.483-2.443m84.033 2.443c-.475 2.439-8.115 7.114-8.115 7.114 6.28-1.545 11.079-7.718 11.079-7.718-5.324-1.94-11.446-1.839-11.446-1.839 7.885 1.71 8.482 2.443 8.482 2.443m-72.644-.111a4.68 4.68 0 0 1-4.46 6.094 4.676 4.676 0 0 1-4.494-3.391 5.195 5.195 0 0 0 10.36-.56c0-.282-.027-.558-.07-.829a12 12 0 0 0-1.336-1.314m60.458 1.414a4.677 4.677 0 1 1-9.174 1.289 5.195 5.195 0 0 0 10.361-.56 5.189 5.189 0 0 0-4.03-5.055c-.014.005-.032.009-.046.013a4.665 4.665 0 0 1 2.889 4.313" fill="#A3A1A1"/><path fill="#231F20" d="M174.103 148.95h-2.154l-.196.533h.757l-.837 2.27h.63l.838-2.27h.765l.197-.532m1.73.932c-.211.317-.443.68-.638 1.006h-.016c.06-.329.106-.678.132-.998l.073-.94h-.844l-1.213 2.803h.587l.446-1.066c.146-.348.32-.78.473-1.16h.008c-.064.37-.12.766-.15 1.1l-.101 1.08h.496l.743-1.093c.23-.33.493-.728.717-1.086h.009c-.151.412-.288.816-.4 1.152l-.35 1.073h.615l.885-2.803h-.832l-.64.932"/></g></svg>