<svg width="200" height="200" xmlns="http://www.w3.org/2000/svg"><g fill="none"><path d="M161.826 151.869l-19.943 18.324H81.71L61.767 151.87l5.23-8.224v-8.688h-38.83l8.005-13.303c-6.045 1.617-9.902 3.021-11.379 3.594l-8.862 7.055L3.335 100.77l4.781-2c.25-.105 11.376-4.734 31.052-8.753v-41.57L28.152 30.14l46.997.076 9.148 9.608 8.666-9.558 48.612-.15-11.03 18.328v21.842h33.739l-7.689 17.335v2.024c20.838 4.099 32.67 9.015 32.926 9.122l4.786 1.998-12.596 31.537-8.865-7.055c-1.841-.713-7.38-2.72-16.25-4.823v23.22l5.23 8.224zm-99.41-13.439h-.01l-.3 2.066h-.933l.613-3.588h.921l.732 1.918.774-1.918h.932l.546 3.588h-.938l-.262-2.066h-.01l-.865 2.066h-.373l-.826-2.066zm-1.367-.732h-.774v2.798h-.937v-2.798h-.775v-.79h2.486v.79zm110.107-9.514l12 9.552 15.49-38.783-7.825-3.268c-.392-.164-11.062-4.586-29.87-8.564l9.225-20.797h-35.79V49.502l13.977-23.226-57.112.176-7.023 7.744-7.425-7.798-55.434-.09 13.959 23.194v37.904c-17.966 3.902-28.13 8.12-28.514 8.28l-7.819 3.27 15.49 38.78 11.999-9.552c.427-.16.974-.36 1.638-.59l-6.731 11.184h35.812v3.642h5.939l-6.332 9.953 23.397 21.5h63.178l23.399-21.5-6.35-9.978V124.84c5.39 1.437 9.01 2.703 10.722 3.345z" fill="#FBC01D"/><path fill="#FBC01D" d="M84.704 70.993l.013 4.958L103 56.236v.046l3.027-8.28-21.323 22.991m34.221 48.557l2.118 3.52H104.14l-5.64 3.11-.029.049h27.84l-4.25-7.513-.001-3.56c-1.03-.083-2.076-.158-3.134-.23v4.624m-52.677-3.485c-.965.113-1.918.228-2.852.347l-.002 2.968 2.11 3.508H48.67l-5.654 3.316-.015.025h27.771l-4.527-7.995.004-2.17m18.204-60.721V51.46l-.003.004-12.966-13.618-1.34 2.65 14.309 14.846M48.676 40.463l-5.473-2.668h-.001l4.47 7.426 3.116-1.248-2.112-3.51m80.714 45.205c1.13.11 2.248.228 3.352.349l-1.59-5.467-4.536-2.222h-.05l2.824 7.269v.071m-35.238 58.991l3.89 2.903 1.497-2.502-2.84-2.35-1.671-3.288.016-25.11c-1.037.008-2.066.023-3.083.043l.004 25.902 2.187 4.402M63.41 86.179c.948-.11 1.91-.214 2.879-.316l.04-29.597-2.903-7.89-.016 37.803m55.515-42.206v40.842c1.05.068 2.088.142 3.118.219l-.018-39.783 4.393-7.295-5.385 2.514-2.108 3.503m25.958 40.71v2.923c1.054.16 2.09.324 3.11.49v-2.312l3.41-7.456h-.022l-4.805 2.653-1.693 3.702"/><path d="M147.992 118.592a201.999 201.999 0 0 0-3.109-.569v28.838l1.854 2.913-9.489 8.72H86.254l-9.489-8.72-3.969.609-.03.05 12.276 11.281h53.428l12.277-11.281-2.755-4.328v-27.513M72.124 78.328h-.014l3.078 6.732c1.08-.082 2.17-.16 3.273-.23l-1.537-3.361-4.8-3.14m26.029-.001l-4.034 2.176-1.751 3.732c1.087-.023 2.183-.04 3.29-.052l2.497-5.856h-.002" fill="#FBC01D"/><path d="M155.04 110.542l-2.464-.522 1.85-8.666-4.869-1.029.403-1.88 6.635 1.404 5.585 1.182-.4 1.88-4.89-1.034-.295 1.386-1.555 7.28zm11.643-8.26l10.66 3.04-.511 1.767-8.236-2.35-.665 2.31 4.804 1.37-.51 1.768-4.804-1.37-.742 2.57 8.339 2.38-.562 1.947-10.76-3.07 2.987-10.363zm-19.898-2.49l-1.902-.298-3.035-.478-1.392 8.749-2.488-.392 1.392-8.75-4.915-.775.301-1.898 10.137 1.596 2.204.349-.302 1.898zm-16.72-2.417l-.665-.07-7.35-.769-.505-.053-.251 2.39.756.08 4.214.44-.194 1.829-4.018-.421-.952-.099-.282 2.659 1.234.13 7.355.768.037.005-.037.358-.177 1.657-7.177-.751-3.128-.327-.824-.085.824-7.81.308-2.913 2.815.294 7.35.769.861.09-.193 1.829zm-18.472 5.113c-.07 2.025-.74 2.524-2.775 2.454l-5.852-.204-.99-.035c-2.035-.07-2.668-.614-2.596-2.64l.289-8.227 2.517.087-.307 8.749 1.089.038 6.088.212.307-8.749 2.519.087-.289 8.228zm-19.632 1.915c-.387.167-.899.25-1.563.285l-1.174.062 1.509 2.703-2.496.131-1.362-2.712-4.445.232c-2.034.107-2.712-.382-2.819-2.405l-.298-5.676c-.107-2.023.515-2.58 2.549-2.686l7.969-.415c1.014-.053 1.692.042 2.128.401.44.361.637.99.69 2.004l.299 5.675c.071 1.364-.19 2.059-.987 2.4zm-21.363 1.642l-4.332-3.148-.503-.365-2.361.288-.014.002.014.118.485 3.927-.486.058-1.973.242-1.32-10.702 3.298-.402 2.87-.35 3.044-.373c1.646-.202 2.489.285 2.673 1.778l.31 2.51c.184 1.493-.515 2.167-2.162 2.37l-1.417.173 5.459 3.437-3.585.437zm-16.484 2.06l-1.732-2.07-4.707.91-2.033.394-.784 2.558-2.473.477 3.95-11.747 1.342-.26 1.05-.202 8.169 9.403-2.782.537zm-18.285 3.798l-1.734-6.439c-.055-.201-.132-.57-.218-1.132-.098.525-.198.962-.315 1.253l-2.533 6.256-.487.13-5.342-4.178a4.803 4.803 0 0 1-.917-.902c.155.413.268.75.36 1.094l1.734 6.437-1.968.526-2.804-10.415 1.967-.524 6.625 4.983 3.132-7.584 1.946-.519 2.805 10.413-2.251.601zm139.714 8.751l3.89 3.096 8.04-20.129s-11.102-4.636-30.878-8.608a268.028 268.028 0 0 0-11.712-2.082 290.92 290.92 0 0 0-22.837-2.62 311.908 311.908 0 0 0-19.07-.85 302.8 302.8 0 0 0-4.18-.034 328.122 328.122 0 0 0-6.837.082c-5.738.13-11.222.41-16.44.805a297.922 297.922 0 0 0-12.112 1.164 282.454 282.454 0 0 0-15.728 2.284 264.655 264.655 0 0 0-8.51 1.629c-18.606 3.883-29.003 8.23-29.003 8.23l8.04 20.13 3.89-3.097s5.921-2.507 17.072-5.192a200.234 200.234 0 0 1 8.506-1.851c4.65-.908 9.901-1.774 15.725-2.504a239.22 239.22 0 0 1 2.856-.344c2.952-.335 6.041-.634 9.264-.885a279.031 279.031 0 0 1 19.527-.83c1.245-.01 2.5-.015 3.774-.01 1.4-.005 2.779 0 4.143.014a283.701 283.701 0 0 1 19.092.821c2.537.197 4.988.424 7.357.675a243.456 243.456 0 0 1 15.471 2.131c1.062.183 2.1.367 3.11.556 3.12.581 5.99 1.184 8.602 1.785 12.365 2.844 18.948 5.634 18.948 5.634z" fill="#FBC01D"/><path d="M69.811 99.321l-.159-1.285c-.087-.705-.46-.806-1.23-.713l-2.15.263-2.867.35-.611.075.368 2.986.241-.03 2.866-.35 2.521-.308c.771-.094 1.107-.281 1.021-.988m-22.134 1.682l-1.356 4.224 1.354-.26 3.304-.64-3.128-3.865-.174.54m34.118-4.736l.36 6.823 3.712-.193-1.13-2.285 1.786-.826 1.63 2.992 2.306-.12-.359-6.825-8.305.434" fill="#FBC01D"/><path fill="#1D2953" d="M58.563 137.698h.775v2.798h.937v-2.798h.774v-.79h-2.486v.79m5.053 2.798l.865-2.066h.01l.262 2.066h.938l-.546-3.588h-.932l-.774 1.918-.732-1.918h-.921l-.613 3.588h.932l.302-2.066h.01l.826 2.066h.373"/><path d="M147.992 113.235a212.84 212.84 0 0 0-3.109-.556 243.19 243.19 0 0 0-15.471-2.131 265.745 265.745 0 0 0-10.487-.898 283.701 283.701 0 0 0-15.962-.598 302.521 302.521 0 0 0-4.143-.013 307.081 307.081 0 0 0-6.86.051c-5.811.109-11.297.387-16.44.788-3.224.25-6.313.55-9.265.885-.968.11-1.918.226-2.856.344a233.688 233.688 0 0 0-15.725 2.504 200.234 200.234 0 0 0-8.506 1.851c-11.151 2.685-17.071 5.192-17.071 5.192l-3.89 3.096-8.04-20.129s10.396-4.347 29.001-8.23c2.67-.557 5.509-1.105 8.511-1.629a282.454 282.454 0 0 1 18.603-2.607c2.976-.318 6.058-.601 9.237-.841a310.071 310.071 0 0 1 19.54-.86c1.235-.015 2.478-.026 3.737-.027 1.409.001 2.8.014 4.18.034a311.908 311.908 0 0 1 19.07.85 290.92 290.92 0 0 1 25.946 3.121c3.027.506 5.895 1.037 8.603 1.581 19.776 3.972 30.878 8.608 30.878 8.608l-8.04 20.13-3.89-3.097s-6.583-2.79-18.948-5.634a209.293 209.293 0 0 0-8.603-1.785zm-25.932 5.48l4.25 7.514H98.47l.028-.048 4.46-7.407.002-4.459a278.035 278.035 0 0 1 19.099.84v3.56zm16.41 43H85.042l-12.277-11.282.031-.05 2.723-4.278V115.16a274.913 274.913 0 0 1 19.525-.848l-.016 25.11 1.672 3.289 2.839 2.349.07.058h25.343l2.91-2.407 1.575-2.896-.02-23.97c5.662.61 10.828 1.364 15.466 2.178 1.064.187 2.1.375 3.11.569v27.513l2.754 4.328-12.277 11.281zM43 126.228l.016-.025 4.163-7.126a224.517 224.517 0 0 1 16.218-2.666 305.84 305.84 0 0 1 2.852-.347l-.004 2.169 4.527 7.995H43.001zm49.368-41.993a315.84 315.84 0 0 0-17.18.824l-3.078-6.732h26.045l-2.498 5.856a319.85 319.85 0 0 0-3.29.052zM47.673 45.221l-4.471-7.426 28.276.045.006.007L84.45 51.465l.003-.004 12.31-13.575 29.672.04-.017.03-4.393 7.295.018 39.783a313.76 313.76 0 0 0-3.118-.219 318.314 318.314 0 0 0-15.945-.618l.02-27.915v-.046L84.717 75.951l-.007.007-18.382-19.727v.035l-.04 29.597A287.578 287.578 0 0 0 47.68 88.42l.011-43.17-.017-.029zm78.943 33.107h24.786l-3.41 7.456v2.313a292.113 292.113 0 0 0-18.602-2.429v-.071l-2.824-7.269h.05zm46.23 46.92l8.865 7.055 12.596-31.537-4.786-1.998c-.256-.107-12.088-5.023-32.926-9.122v-2.024l7.689-17.335h-33.738V48.445l11.029-18.327-48.612.15-8.666 9.557-9.148-9.608-46.997-.076 11.016 18.304v41.57c-19.676 4.02-30.803 8.65-31.052 8.754l-4.781 2 12.596 31.534 8.862-7.055c1.477-.573 5.334-1.977 11.38-3.594l-8.006 13.303h38.83v8.688l-5.23 8.224 19.943 18.324h60.173l19.943-18.324-5.23-8.224v-23.22c8.871 2.103 14.409 4.11 16.25 4.823z" fill="#1D2953"/><path d="M33.329 101.408l-3.132 7.584-6.625-4.983-1.967.524 2.804 10.415 1.968-.526-1.734-6.437a11.44 11.44 0 0 0-.36-1.094c.27.361.586.643.917.902l5.342 4.178.487-.13 2.533-6.256c.117-.291.217-.728.315-1.253.086.562.163.93.218 1.132l1.734 6.44 2.251-.602-2.805-10.413-1.946.519m14.346 3.559l-1.354.26 1.356-4.224.174-.54 3.128 3.864-3.304.64zm.002-6.6l-1.341.26-3.95 11.747 2.472-.477.784-2.558 2.033-.394 4.707-.91 1.732 2.07 2.782-.537-8.168-9.403-1.05.202zm15.726 2.6l-.24.03-.37-2.986.612-.075 2.868-.35 2.15-.263c.77-.093 1.142.008 1.23.713l.158 1.285c.086.707-.25.894-1.02.988l-2.522.308-2.866.35zm6.738 1.03c1.647-.202 2.346-.876 2.161-2.37l-.309-2.509c-.184-1.493-1.027-1.98-2.673-1.778l-3.044.372-2.87.35-3.298.403 1.32 10.702 1.973-.242.486-.058-.485-3.927-.014-.118.014-.002 2.361-.288.503.365 4.332 3.148 3.585-.437-5.459-3.437 1.417-.174zm18.012.78l-1.63-2.992-1.786.826 1.13 2.285-3.712.193-.36-6.823 8.305-.434.359 6.825-2.306.12zm4.496-6.45c-.053-1.013-.25-1.643-.69-2.004-.436-.36-1.114-.454-2.128-.401l-7.97.415c-2.033.106-2.655.663-2.548 2.686l.298 5.676c.107 2.023.785 2.512 2.819 2.405l4.445-.232 1.362 2.712 2.496-.131-1.51-2.703 1.175-.062c.664-.035 1.176-.118 1.563-.285.797-.342 1.058-1.037.987-2.4l-.299-5.676zm16.407 6.595l-6.088-.212-1.089-.038.307-8.749-2.517-.087-.289 8.226c-.072 2.027.56 2.571 2.597 2.641l.99.035 5.851.204c2.035.07 2.705-.43 2.775-2.454l.289-8.228-2.519-.087-.307 8.75m12.992-8.236l-2.815-.294-.308 2.914-.824 7.809.824.085 3.128.327 7.177.751.177-1.657.037-.358-.037-.005-7.355-.768-1.234-.13.282-2.659.952.099 4.018.42.194-1.828-4.214-.44-.756-.08.251-2.39.505.053 7.35.77.666.069.193-1.83-.86-.09-7.35-.768m12.697 1.263l-.301 1.898 4.915.775-1.392 8.75 2.488.392 1.392-8.749 3.035.478 1.902.299.302-1.898-2.204-.349-10.137-1.596m22.144 5.927l4.89 1.033.4-1.88-5.585-1.181-6.635-1.404-.403 1.88 4.869 1.03-1.85 8.665 2.464.522 1.555-7.28.296-1.385m18.127 11.889l-8.339-2.379.742-2.57 4.803 1.37.51-1.768-4.803-1.37.665-2.31 8.236 2.35.51-1.766-10.66-3.042-2.985 10.363 10.759 3.07.562-1.948" fill="#1D2953"/><path d="M121.043 123.07l-2.118-3.52v-4.624a278.035 278.035 0 0 0-15.965-.61l-.002 4.458-4.46 7.407 5.64-3.112h16.905M63.41 86.179l.016-37.803 2.902 7.89v-.035L84.71 75.958l.007-.007-.013-4.958 21.323-22.991-3.027 8.28-.02 27.915c5.54.077 10.861.292 15.945.618V43.973l2.108-3.503 5.385-2.514.017-.03-29.673-.04-12.31 13.575v3.882L70.144 40.497l1.341-2.65-.006-.007-28.275-.045 5.473 2.668 2.112 3.51-3.115 1.248.017.03-.01 43.169c4.85-.83 10.101-1.596 15.73-2.241m2.095 36.709l-2.11-3.508v-2.968a224.517 224.517 0 0 0-16.217 2.666l-4.163 7.126 5.654-3.316h16.836" fill="#FFF"/><path d="M86.254 158.495h50.994l9.49-8.721-1.855-2.913v-28.838a235.676 235.676 0 0 0-15.466-2.179l.02 23.97-1.576 2.897-2.909 2.407H99.61l-.07-.058-1.497 2.502-3.89-2.903-2.187-4.402-.004-25.902c-5.821.112-11.305.397-16.442.805v30.945l-2.723 4.278 3.969-.61 9.49 8.722m46.486-72.478c4.26.468 8.311 1.005 12.141 1.589v-2.923l1.693-3.702 4.805-2.653h-24.765l4.536 2.222 1.59 5.467m-34.589-7.689h-26.03l4.801 3.14 1.537 3.362a315.84 315.84 0 0 1 13.907-.594l1.751-3.732 4.034-2.176" fill="#FFF"/></g></svg>