<?xml version="1.0" encoding="UTF-8"?>
<svg width="200px" height="200px" viewBox="0 0 200 200" version="1.1" xmlns="http://www.w3.org/2000/svg" xmlns:xlink="http://www.w3.org/1999/xlink">
    <!-- Generator: Sketch 51.3 (57544) - http://www.bohemiancoding.com/sketch -->
    <title>marquette</title>
    <desc>Created with Sketch.</desc>
    <defs></defs>
    <g id="marquette" stroke="none" stroke-width="1" fill="none" fill-rule="evenodd">
        <g id="marquette_BGL" transform="translate(-1.005025, 25.000000)">
            <g id="marquette">
                <g id="g10" transform="translate(100.499997, 75.367523) scale(-1, 1) rotate(-180.000000) translate(-100.499997, -75.367523) translate(0.000000, 0.153850)" fill-rule="nonzero">
                    <g id="g12" transform="translate(0.000000, 1.538461)">
                        <path d="M162.831298,22.1741875 L142.88832,3.84948708 L82.7145902,3.84948708 L62.7716113,22.1741875 L68.0025932,30.3972642 L68.0025932,39.085811 L29.1716275,39.085811 L37.1774401,52.3892295 C31.1324941,50.7712808 27.2751839,49.3676911 25.7980917,48.7946996 L16.9358816,41.7401699 L4.3398304,73.2738443 L9.12124234,75.2738443 C9.37020746,75.3786306 20.4966738,80.0080322 40.173199,84.0271774 L40.173199,125.597604 L29.1568531,143.902219 L76.1540878,143.82615 L85.3021645,134.218116 L93.9683566,143.775381 L142.579604,143.924954 L131.550545,125.597604 L131.550545,103.755382 L165.288824,103.755382 L157.600317,86.4203397 L157.600317,84.3970919 C178.438175,80.2977758 190.269688,75.3818785 190.525662,75.2750409 L195.311867,73.2765794 L182.715867,41.7401699 L173.851252,48.7946996 C172.009611,49.507862 166.471975,51.5143577 157.600317,53.6177764 L157.600317,30.3972642 L162.831298,22.1741875 Z M63.4218548,35.6123068 L63.4117189,35.6123068 L63.1103907,33.5470077 L62.1784036,33.5470077 L62.7910241,37.1346999 L63.7123599,37.1346999 L64.4438625,35.2164094 L65.2183138,37.1346999 L66.1504727,37.1346999 L66.6959214,33.5470077 L65.7584368,33.5470077 L65.4961061,35.6123068 L65.486142,35.6123068 L64.620983,33.5470077 L64.2478445,33.5470077 L63.4218548,35.6123068 Z M62.0541959,36.3447854 L61.2797446,36.3447854 L61.2797446,33.5470077 L60.3429472,33.5470077 L60.3429472,36.3447854 L59.5684959,36.3447854 L59.5684959,37.1346999 L62.0541959,37.1346999 L62.0541959,36.3447854 Z M172.160791,45.8586313 L184.160662,36.3068367 L199.651405,75.0893998 L191.826149,78.3581177 C191.434457,78.5222203 180.764278,82.9441005 161.956863,86.9217072 L171.180873,107.718972 L135.391191,107.718972 L135.391191,124.541193 L149.367563,147.766492 L92.2559054,147.590766 L85.233103,139.846492 L77.8083006,147.644954 L22.37422,147.734355 L36.3325529,124.541193 L36.3325529,86.636579 C18.3665893,82.7350407 8.20387492,78.5176049 7.81934647,78.3567502 L0,75.086152 L15.4897296,36.3068367 L27.4885532,45.8586313 C27.9159788,46.0189732 28.4629736,46.2193151 29.1273044,46.4495715 L22.3956943,35.2651273 L58.207537,35.2651273 L58.207537,31.6225633 L64.1466574,31.6225633 L57.8149857,21.6700849 L81.2120723,0.170272432 L144.39015,0.170272432 L167.788611,21.6700849 L161.438901,31.6473496 L161.438901,49.2041013 C166.828965,47.7664945 170.44937,46.5010245 172.160791,45.8586313 Z" id="path14" fill="#FBC01D"></path>
                        <polyline id="path16" fill="#FBC01D" points="85.708803 103.04957 85.7216876 98.0916215 104.004956 117.806493 104.004956 117.761023 107.031638 126.041022 85.708803 103.04957"></polyline>
                        <path d="M119.929653,54.4924773 L122.048228,50.973503 L105.143785,50.973503 L99.5034155,47.8618791 L99.4752411,47.813845 L127.314771,47.813845 L123.06491,55.3271781 L123.063535,58.8875199 C122.033453,58.9697421 120.98791,59.044443 119.929653,59.1165797 L119.929653,54.4924773" id="path18" fill="#FBC01D"></path>
                        <path d="M67.2537393,57.9781182 C66.2885958,57.8646139 65.3358214,57.7497421 64.401601,57.6309387 L64.4002266,54.6627337 L66.5107265,51.1552124 L49.6748295,51.1552124 L44.0210604,47.8384603 L44.0055989,47.813845 L71.7774418,47.813845 L67.2503034,55.8092294 L67.2537393,57.9781182" id="path20" fill="#FBC01D"></path>
                        <polyline id="path22" fill="#FBC01D" points="85.4578107 118.699997 85.4578107 122.582048 85.4545466 122.578117 72.4893597 136.195894 71.1485008 133.545638 85.4578107 118.699997"></polyline>
                        <polyline id="path24" fill="#FBC01D" points="49.6810141 133.579655 44.2076297 136.248031 44.2069425 136.248031 48.6777321 128.821364 51.7934038 130.069398 49.6810141 133.579655"></polyline>
                        <path d="M130.395053,88.3746986 C131.525807,88.2639294 132.643161,88.1470063 133.746943,88.0261516 L132.156638,93.4923054 L127.621425,95.7145275 L127.571089,95.7145275 L130.395053,88.4461516 L130.395053,88.3746986" id="path26" fill="#FBC01D"></path>
                        <path d="M95.1575207,29.3837599 L99.0471283,26.481025 L100.543633,28.9830762 L97.704895,31.332136 L96.0326438,34.6206829 L96.0487925,59.7309387 C95.0120104,59.7229045 93.983131,59.7075199 92.966449,59.6875199 L92.9698849,33.7859821 L95.1575207,29.3837599" id="path28" fill="#FBC01D"></path>
                        <path d="M64.415001,87.8639294 C65.3626214,87.9735021 66.3248445,88.0776046 67.2939393,88.1798269 L67.3334522,117.776407 L64.4311497,125.666322 L64.415001,87.8639294" id="path30" fill="#FBC01D"></path>
                        <path d="M119.929653,130.069398 L119.929653,89.2273482 C120.979835,89.1599978 122.017992,89.0858097 123.048074,89.0090576 L123.030035,128.792134 L127.423517,136.087005 L122.038092,133.572304 L119.929653,130.069398" id="path32" fill="#FBC01D"></path>
                        <path d="M145.88803,89.3596559 L145.88803,86.4369209 C146.941648,86.27675 147.97843,86.1131602 148.997173,85.9461517 L148.997173,88.2591431 L152.407473,95.7145275 L152.385999,95.7145275 L147.58124,93.0622199 L145.88803,89.3596559" id="path34" fill="#FBC01D"></path>
                        <path d="M148.997173,55.4507678 C147.988566,55.6444431 146.951784,55.8326482 145.88803,56.0196567 L145.88803,27.1822215 L147.742212,24.2688883 L138.253294,15.5482047 L87.2590799,15.5482047 L77.7699904,24.2688883 L73.8013571,23.6598285 L73.7704341,23.609743 L86.0470671,12.3283929 L139.474584,12.3283929 L151.751904,23.609743 L148.997173,27.938119 L148.997173,55.4507678" id="path36" fill="#FBC01D"></path>
                        <path d="M73.128952,95.7145275 L73.1148648,95.7145275 L76.1930853,88.9823909 C77.2735032,89.0644422 78.3638852,89.1418781 79.4664647,89.2128183 L77.9290724,92.5741857 L73.128952,95.7145275" id="path38" fill="#FBC01D"></path>
                        <path d="M99.157936,95.7145275 L95.1240207,93.538972 L93.372572,89.8063225 C94.4603771,89.8297413 95.5562566,89.8470063 96.6621001,89.8591431 L99.1598257,95.7145275 L99.157936,95.7145275" id="path40" fill="#FBC01D"></path>
                        <path d="M156.044714,63.5003403 L153.58066,64.0223916 L155.430719,72.6883743 L150.562053,73.7172631 L150.96474,75.5976049 L157.600317,74.1940152 L163.185024,73.0121349 L162.784398,71.1324769 L157.895632,72.1654683 L157.600317,70.7799982 L156.044714,63.5003403 Z M167.687939,71.7615367 L178.347124,68.7199983 L177.836893,66.9538445 L169.600532,69.3029043 L168.936029,66.9938445 L173.739585,65.6235881 L173.229355,63.855554 L168.426142,65.2263232 L167.684504,62.655554 L176.022739,60.2764087 L175.46097,58.3287165 L164.701629,61.3982891 L167.687939,71.7615367 Z M147.790486,74.2500836 L145.88803,74.5492289 L142.853445,75.0266648 L141.461048,66.278118 L138.972599,66.6700838 L140.365168,75.4193144 L135.449602,76.194528 L135.751445,78.0929895 L145.88803,76.4964083 L148.092501,76.1478613 L147.790486,74.2500836 Z M131.070722,76.6680323 L130.405017,76.737434 L123.054774,77.5066647 L122.550212,77.5594852 L122.298533,75.1695708 L123.054774,75.0900836 L127.269074,74.6493998 L127.074602,72.8211948 L123.056835,73.2418785 L122.105264,73.3406819 L121.823348,70.6817076 L123.056835,70.5516222 L130.411717,69.783588 L130.448653,69.7782889 L130.411717,69.4210239 L130.235284,67.763759 L123.05821,68.515041 L119.929653,68.8422205 L119.105553,68.9270068 L119.929653,76.7360665 L120.238369,79.6500835 L123.053399,79.3555536 L130.403128,78.5870066 L131.263992,78.4969211 L131.070722,76.6680323 Z M112.598136,71.5545281 C112.5277,69.5299128 111.857872,69.0304256 109.823305,69.1005111 L103.971456,69.3042718 L102.981574,69.3396564 C100.945633,69.4097419 100.312741,69.9538444 100.385239,71.980511 L100.673854,80.2070065 L103.190992,80.1194852 L102.884338,71.3709384 L103.972831,71.3328187 L110.061413,71.120511 L110.368066,79.8697416 L112.886751,79.782904 L112.598136,71.5545281 Z M92.9659336,69.6401692 C92.5793951,69.4731607 92.0672746,69.3897419 91.4029439,69.3543572 L90.2285542,69.2928188 L91.7377721,66.5899129 L89.242108,66.4582889 L87.8797747,69.1705966 L83.4345825,68.9389726 C81.4005313,68.832135 80.7228005,69.320853 80.6161159,71.3441008 L80.3175365,77.0198271 C80.21068,79.0430749 80.8334364,79.5993142 82.8668005,79.7054681 L90.835849,80.1208527 C91.8504695,80.1736732 92.5276849,80.0788014 92.963872,79.7194852 C93.4033233,79.3582886 93.6007156,78.7292288 93.6543156,77.7157246 L93.9530669,72.040682 C94.02419,70.6770923 93.7630618,69.9820495 92.9659336,69.6401692 Z M71.6028982,67.9974342 L67.2710906,71.1458102 L66.7684188,71.5111093 L64.4069266,71.2225623 L64.3928394,71.220682 L64.4069266,71.1023914 L64.8920753,67.1760667 L64.4055522,67.1174342 L62.43266,66.8757248 L61.1125882,77.577434 L64.4110497,77.980169 L67.2805393,78.3305963 L70.3245726,78.7025621 C71.9713982,78.9042715 72.8135366,78.4174339 72.9980443,76.9244425 L73.3074469,74.4150409 C73.4919546,72.9220495 72.7927495,72.2475196 71.1459239,72.0452973 L69.7293034,71.8716221 L75.1877417,68.4348701 L71.6028982,67.9974342 Z M55.1186653,65.9374342 L53.3873166,68.0075197 L48.680309,67.0974342 L46.646945,66.7034171 L45.8632168,64.1459813 L43.3902297,63.6685454 L47.3408245,75.4160665 L48.6823706,75.6757246 L49.7325526,75.8781178 L57.9008832,66.4750411 L55.1186653,65.9374342 Z M36.8338504,62.1394856 L35.0999248,68.5784598 C35.0454658,68.7799983 34.9683299,69.149229 34.8817453,69.7102547 C34.7838222,69.1859812 34.6845248,68.7487162 34.5670171,68.4581179 L32.03373,62.2015369 L31.5472069,62.0712805 L26.2047301,66.2494001 C25.8738532,66.5083744 25.5584378,66.7902547 25.2880327,67.1514513 C25.4431635,66.7388018 25.5558609,66.4015368 25.6477712,66.0577761 L27.3818685,59.6206823 L25.4136147,59.0945284 L22.6097507,69.5099128 L24.5774891,70.0340153 L31.2015556,65.0507676 L34.3335479,72.63487 L36.2803273,73.1536734 L39.0853939,62.7403403 L36.8338504,62.1394856 Z M176.548431,53.3887166 L180.437867,50.2924774 L188.477867,70.4213658 C188.477867,70.4213658 177.376483,75.0581178 157.600317,79.0297416 C154.892486,79.5740151 152.023683,80.1047843 148.997173,80.6109382 C147.97843,80.7805108 146.941648,80.9475193 145.88803,81.1117928 C141.079835,81.8576048 135.912589,82.5333313 130.399692,83.0876902 C128.013976,83.3259808 125.561261,83.5417073 123.05151,83.7319637 C122.020053,83.8093996 120.98121,83.8835876 119.929653,83.9523056 C114.850882,84.2842714 109.529364,84.5039295 103.981592,84.5820492 C102.600533,84.6013654 101.210026,84.6146987 99.8007924,84.6160663 C98.542395,84.6146987 97.2989437,84.6034167 96.0635668,84.5880321 C95.0226617,84.5746987 93.9893156,84.5565791 92.963872,84.533844 C87.2260953,84.4044423 81.7415441,84.1246133 76.5244776,83.7292287 C73.34507,83.4888868 70.2634136,83.2058099 67.2872393,82.8873484 C66.3174573,82.7837586 65.3591855,82.6755535 64.412424,82.5647843 C58.7651831,81.9044424 53.5147884,81.1230749 48.6844321,80.2805108 C45.6819732,79.7562373 42.8434066,79.208716 40.173199,78.6517929 C21.5683302,74.768887 11.1713564,70.4213658 11.1713564,70.4213658 L19.2114764,50.2924774 L23.1017712,53.3887166 C23.1017712,53.3887166 29.0219941,55.896067 40.173199,58.5803404 C42.7353476,59.1981182 45.5720245,59.8244429 48.6789347,60.4319643 C53.3289064,61.3401694 58.5799883,62.2061523 64.4043497,62.9360668 C65.3425214,63.0541865 66.2920317,63.169742 67.2604393,63.2799984 C70.2117034,63.6150411 73.3014341,63.9141864 76.5244776,64.1646138 C81.6683595,64.5652975 87.1537696,64.8437591 92.9659336,64.9526479 C93.9838182,64.9726479 95.0139002,64.9859813 96.050854,64.9940155 C97.2956796,65.00393 98.5511565,65.0094001 99.8248437,65.00393 C101.224113,65.0094001 102.603797,65.00393 103.968192,64.9905967 C109.58829,64.9372633 114.911354,64.7235881 119.929653,64.3929898 C120.986535,64.3229044 122.031392,64.2494001 123.060099,64.1694001 C125.596823,63.9723061 128.047648,63.7452976 130.416528,63.4948702 C136.060161,62.8972634 141.224143,62.1627335 145.88803,61.3635882 C146.950409,61.1811951 147.987191,60.9962378 148.997173,60.8073489 C152.117655,60.2263233 154.987832,59.6241011 157.600317,59.0230754 C169.964909,56.1786311 176.548431,53.3887166 176.548431,53.3887166 Z" id="path42" fill="#FBC01D"></path>
                        <path d="M70.8164213,74.7215366 L70.6573393,76.0070066 C70.5700675,76.7121348 70.1976162,76.8128186 69.427288,76.7194853 L67.2777906,76.4569212 L64.4096753,76.1064938 L63.7989446,76.031622 L64.1674445,73.0454683 L64.408301,73.0755537 L67.2738393,73.4254682 L69.7951008,73.7333315 C70.5661162,73.8275195 70.9023187,74.0150409 70.8164213,74.7215366" id="path44" fill="#FBC01D"></path>
                        <polyline id="path46" fill="#FBC01D" points="48.6823706 73.0401691 47.3260501 68.8153829 48.680309 69.0758957 51.9840961 69.7155538 48.8555398 73.58034 48.6823706 73.0401691"></polyline>
                        <polyline id="path48" fill="#FBC01D" points="82.8004877 77.7770921 83.1600543 70.9535025 86.8718542 71.1471777 85.7424748 73.4321349 87.5281106 74.257434 89.157585 71.2659811 91.463931 71.3861521 91.1050516 78.2104254 82.8004877 77.7770921"></polyline>
                        <polyline id="path50" fill="#1D2953" points="59.5684959 36.3447854 60.3429472 36.3447854 60.3429472 33.5470077 61.2797446 33.5470077 61.2797446 36.3447854 62.0541959 36.3447854 62.0541959 37.1346999 59.5684959 37.1346999 59.5684959 36.3447854"></polyline>
                        <polyline id="path52" fill="#1D2953" points="64.620983 33.5470077 65.486142 35.6123068 65.4961061 35.6123068 65.7584368 33.5470077 66.6959214 33.5470077 66.1504727 37.1346999 65.2183138 37.1346999 64.4438625 35.2164094 63.7123599 37.1346999 62.7910241 37.1346999 62.1784036 33.5470077 63.1103907 33.5470077 63.4117189 35.6123068 63.4218548 35.6123068 64.2478445 33.5470077 64.620983 33.5470077"></polyline>
                        <path d="M148.997173,60.8073489 C147.987191,60.9962378 146.950409,61.1811951 145.88803,61.3635882 C141.224143,62.1627335 136.060161,62.8972634 130.416528,63.4948702 C128.047648,63.7452976 125.596823,63.9723061 123.060099,64.1694001 C122.031392,64.2494001 120.986535,64.3229044 119.929653,64.3929898 C114.911354,64.7235881 109.58829,64.9372633 103.968192,64.9905967 C102.603797,65.00393 101.224113,65.0094001 99.8248437,65.00393 C98.5511565,65.0094001 97.2956796,65.00393 96.050854,64.9940155 C95.0139002,64.9859813 93.9838182,64.9726479 92.9659336,64.9526479 C87.1537696,64.8437591 81.6683595,64.5652975 76.5244776,64.1646138 C73.3014341,63.9141864 70.2117034,63.6150411 67.2604393,63.2799984 C66.2920317,63.169742 65.3425214,63.0541865 64.4043497,62.9360668 C58.5799883,62.2061523 53.3289064,61.3401694 48.6789347,60.4319643 C45.5720245,59.8244429 42.7353476,59.1981182 40.173199,58.5803404 C29.0219941,55.896067 23.1017712,53.3887166 23.1017712,53.3887166 L19.2114764,50.2924774 L11.1713564,70.4213658 C11.1713564,70.4213658 21.5683302,74.768887 40.173199,78.6517929 C42.8434066,79.208716 45.6819732,79.7562373 48.6844321,80.2805108 C53.5147884,81.1230749 58.7651831,81.9044424 64.412424,82.5647843 C65.3591855,82.6755535 66.3174573,82.7837586 67.2872393,82.8873484 C70.2634136,83.2058099 73.34507,83.4888868 76.5244776,83.7292287 C81.7415441,84.1246133 87.2260953,84.4044423 92.963872,84.533844 C93.9893156,84.5565791 95.0226617,84.5746987 96.0635668,84.5880321 C97.2989437,84.6034167 98.542395,84.6146987 99.8007924,84.6160663 C101.210026,84.6146987 102.600533,84.6013654 103.981592,84.5820492 C109.529364,84.5039295 114.850882,84.2842714 119.929653,83.9523056 C120.98121,83.8835876 122.020053,83.8093996 123.05151,83.7319637 C125.561261,83.5417073 128.013976,83.3259808 130.399692,83.0876902 C135.912589,82.5333313 141.079835,81.8576048 145.88803,81.1117928 C146.941648,80.9475193 147.97843,80.7805108 148.997173,80.6109382 C152.023683,80.1047843 154.892486,79.5740151 157.600317,79.0297416 C177.376483,75.0581178 188.477867,70.4213658 188.477867,70.4213658 L180.437867,50.2924774 L176.548431,53.3887166 C176.548431,53.3887166 169.964909,56.1786311 157.600317,59.0230754 C154.987832,59.6241011 152.117655,60.2263233 148.997173,60.8073489 Z M123.06491,55.3271781 L127.314771,47.813845 L99.4752411,47.813845 L99.5034155,47.8618791 L103.962695,55.2683747 L103.964756,59.7275199 C109.591725,59.672819 114.916679,59.4538447 119.929653,59.1165797 C120.98791,59.044443 122.033453,58.9697421 123.063535,58.8875199 L123.06491,55.3271781 Z M139.474584,12.3283929 L86.0470671,12.3283929 L73.7704341,23.609743 L73.8013571,23.6598285 L76.5244776,27.938119 L76.5244776,58.8829045 C81.6609723,59.2902549 87.1450081,59.5753831 92.966449,59.6875199 C93.983131,59.7075199 95.0120104,59.7229045 96.0487925,59.7309387 L96.0326438,34.6206829 L97.704895,31.332136 L100.543633,28.9830762 L100.614069,28.9249565 L125.957248,28.9249565 L128.866251,31.332136 L130.441953,34.2280333 L130.421853,58.1984601 C136.083697,57.5875199 141.249568,56.8341866 145.88803,56.0196567 C146.951784,55.8326482 147.988566,55.6444431 148.997173,55.4507678 L148.997173,27.938119 L151.751904,23.609743 L139.474584,12.3283929 Z M44.0055989,47.813845 L44.0210604,47.8384603 L48.1845091,54.964614 C52.9208935,55.9282037 58.3384447,56.8543576 64.401601,57.6309387 C65.3358214,57.7497421 66.2885958,57.8646139 67.2537393,57.9781182 L67.2503034,55.8092294 L71.7774418,47.813845 L44.0055989,47.813845 Z M93.372572,89.8063225 C88.5630029,89.7061516 83.9238543,89.5025619 79.4664647,89.2128183 C78.3638852,89.1418781 77.2735032,89.0644422 76.1930853,88.9823909 L73.1148648,95.7145275 L73.128952,95.7145275 L99.157936,95.7145275 L99.1598257,95.7145275 L96.6621001,89.8591431 C95.5562566,89.8470063 94.4603771,89.8297413 93.372572,89.8063225 Z M48.6777321,128.821364 L44.2069425,136.248031 L72.4826597,136.202561 L72.4893597,136.195894 L85.4545466,122.578117 L85.4578107,122.582048 L97.7674283,136.156578 L127.440181,136.116407 L127.423517,136.087005 L123.030035,128.792134 L123.048074,89.0090576 C122.017992,89.0858097 120.979835,89.1599978 119.929653,89.2273482 C114.846243,89.5533311 109.524554,89.7688866 103.984856,89.8458097 L104.004956,117.761023 L104.004956,117.806493 L85.7216876,98.0916215 L85.7149876,98.0842711 L67.3334522,117.811792 L67.3334522,117.776407 L67.2939393,88.1798269 C66.3248445,88.0776046 65.3626214,87.9735021 64.415001,87.8639294 C58.7861421,87.2182884 53.5348884,86.4529893 48.6851193,85.6230748 L48.6950834,128.792134 L48.6777321,128.821364 Z M127.621425,95.7145275 L152.407473,95.7145275 L148.997173,88.2591431 L148.997173,85.9461517 C147.97843,86.1131602 146.941648,86.27675 145.88803,86.4369209 C142.058207,87.0211944 138.006253,87.5581175 133.746943,88.0261516 C132.643161,88.1470063 131.525807,88.2639294 130.395053,88.3746986 L130.395053,88.4461516 L127.571089,95.7145275 L127.621425,95.7145275 Z M173.851252,48.7946996 L182.715867,41.7401699 L195.311867,73.2765794 L190.525662,75.2750409 C190.269688,75.3818785 178.438175,80.2977758 157.600317,84.3970919 L157.600317,86.4203397 L165.288824,103.755382 L131.550545,103.755382 L131.550545,125.597604 L142.579604,143.924954 L93.9683566,143.775381 L85.3021645,134.218116 L76.1540878,143.82615 L29.1568531,143.902219 L40.173199,125.597604 L40.173199,84.0271774 C20.4966738,80.0080322 9.37020746,75.3786306 9.12124234,75.2738443 L4.3398304,73.2738443 L16.9358816,41.7401699 L25.7980917,48.7946996 C27.2751839,49.3676911 31.1324941,50.7712808 37.1774401,52.3892295 L29.1716275,39.085811 L68.0025932,39.085811 L68.0025932,30.3972642 L62.7716113,22.1741875 L82.7145902,3.84948708 L142.88832,3.84948708 L162.831298,22.1741875 L157.600317,30.3972642 L157.600317,53.6177764 C166.471975,51.5143577 172.009611,49.507862 173.851252,48.7946996 Z" id="path54" fill="#1D2953"></path>
                        <path d="M34.3335479,72.63487 L31.2015556,65.0507676 L24.5774891,70.0340153 L22.6097507,69.5099128 L25.4136147,59.0945284 L27.3818685,59.6206823 L25.6477712,66.0577761 C25.5558609,66.4015368 25.4431635,66.7388018 25.2880327,67.1514513 C25.5584378,66.7902547 25.8738532,66.5083744 26.2047301,66.2494001 L31.5472069,62.0712805 L32.03373,62.2015369 L34.5670171,68.4581179 C34.6845248,68.7487162 34.7838222,69.1859812 34.8817453,69.7102547 C34.9683299,69.149229 35.0454658,68.7799983 35.0999248,68.5784598 L36.8338504,62.1394856 L39.0853939,62.7403403 L36.2803273,73.1536734 L34.3335479,72.63487" id="path56" fill="#1D2953"></path>
                        <path d="M48.680309,69.0758957 L47.3260501,68.8153829 L48.6823706,73.0401691 L48.8555398,73.58034 L51.9840961,69.7155538 L48.680309,69.0758957 Z M48.6823706,75.6757246 L47.3408245,75.4160665 L43.3902297,63.6685454 L45.8632168,64.1459813 L46.646945,66.7034171 L48.680309,67.0974342 L53.3873166,68.0075197 L55.1186653,65.9374342 L57.9008832,66.4750411 L49.7325526,75.8781178 L48.6823706,75.6757246 Z" id="path58" fill="#1D2953"></path>
                        <path d="M64.408301,73.0755537 L64.1674445,73.0454683 L63.7989446,76.031622 L64.4096753,76.1064938 L67.2777906,76.4569212 L69.427288,76.7194853 C70.1976162,76.8128186 70.5700675,76.7121348 70.6573393,76.0070066 L70.8164213,74.7215366 C70.9023187,74.0150409 70.5661162,73.8275195 69.7951008,73.7333315 L67.2738393,73.4254682 L64.408301,73.0755537 Z M71.1459239,72.0452973 C72.7927495,72.2475196 73.4919546,72.9220495 73.3074469,74.4150409 L72.9980443,76.9244425 C72.8135366,78.4174339 71.9713982,78.9042715 70.3245726,78.7025621 L67.2805393,78.3305963 L64.4110497,77.980169 L61.1125882,77.577434 L62.43266,66.8757248 L64.4055522,67.1174342 L64.8920753,67.1760667 L64.4069266,71.1023914 L64.3928394,71.220682 L64.4069266,71.2225623 L66.7684188,71.5111093 L67.2710906,71.1458102 L71.6028982,67.9974342 L75.1877417,68.4348701 L69.7293034,71.8716221 L71.1459239,72.0452973 Z" id="path60" fill="#1D2953"></path>
                        <path d="M89.157585,71.2659811 L87.5281106,74.257434 L85.7424748,73.4321349 L86.8718542,71.1471777 L83.1600543,70.9535025 L82.8004877,77.7770921 L91.1050516,78.2104254 L91.463931,71.3861521 L89.157585,71.2659811 Z M93.6543156,77.7157246 C93.6007156,78.7292288 93.4033233,79.3582886 92.963872,79.7194852 C92.5276849,80.0788014 91.8504695,80.1736732 90.835849,80.1208527 L82.8668005,79.7054681 C80.8334364,79.5993142 80.21068,79.0430749 80.3175365,77.0198271 L80.6161159,71.3441008 C80.7228005,69.320853 81.4005313,68.832135 83.4345825,68.9389726 L87.8797747,69.1705966 L89.242108,66.4582889 L91.7377721,66.5899129 L90.2285542,69.2928188 L91.4029439,69.3543572 C92.0672746,69.3897419 92.5793951,69.4731607 92.9659336,69.6401692 C93.7630618,69.9820495 94.02419,70.6770923 93.9530669,72.040682 L93.6543156,77.7157246 Z" id="path62" fill="#1D2953"></path>
                        <path d="M110.061413,71.120511 L103.972831,71.3328187 L102.884338,71.3709384 L103.190992,80.1194852 L100.673854,80.2070065 L100.385239,71.980511 C100.312741,69.9538444 100.945633,69.4097419 102.981574,69.3396564 L103.971456,69.3042718 L109.823305,69.1005111 C111.857872,69.0304256 112.5277,69.5299128 112.598136,71.5545281 L112.886751,79.782904 L110.368066,79.8697416 L110.061413,71.120511" id="path64" fill="#1D2953"></path>
                        <polyline id="path66" fill="#1D2953" points="123.053399 79.3555536 120.238369 79.6500835 119.929653 76.7360665 119.105553 68.9270068 119.929653 68.8422205 123.05821 68.515041 130.235284 67.763759 130.411717 69.4210239 130.448653 69.7782889 130.411717 69.783588 123.056835 70.5516222 121.823348 70.6817076 122.105264 73.3406819 123.056835 73.2418785 127.074602 72.8211948 127.269074 74.6493998 123.054774 75.0900836 122.298533 75.1695708 122.550212 77.5594852 123.054774 77.5066647 130.405017 76.737434 131.070722 76.6680323 131.263992 78.4969211 130.403128 78.5870066 123.053399 79.3555536"></polyline>
                        <polyline id="path68" fill="#1D2953" points="135.751445 78.0929895 135.449602 76.194528 140.365168 75.4193144 138.972599 66.6700838 141.461048 66.278118 142.853445 75.0266648 145.88803 74.5492289 147.790486 74.2500836 148.092501 76.1478613 145.88803 76.4964083 135.751445 78.0929895"></polyline>
                        <polyline id="path70" fill="#1D2953" points="157.895632 72.1654683 162.784398 71.1324769 163.185024 73.0121349 157.600317 74.1940152 150.96474 75.5976049 150.562053 73.7172631 155.430719 72.6883743 153.58066 64.0223916 156.044714 63.5003403 157.600317 70.7799982 157.895632 72.1654683"></polyline>
                        <polyline id="path72" fill="#1D2953" points="176.022739 60.2764087 167.684504 62.655554 168.426142 65.2263232 173.229355 63.855554 173.739585 65.6235881 168.936029 66.9938445 169.600532 69.3029043 177.836893 66.9538445 178.347124 68.7199983 167.687939 71.7615367 164.701629 61.3982891 175.46097 58.3287165 176.022739 60.2764087"></polyline>
                        <path d="M122.048228,50.973503 L119.929653,54.4924773 L119.929653,59.1165797 C114.916679,59.4538447 109.591725,59.672819 103.964756,59.7275199 L103.962695,55.2683747 L99.5034155,47.8618791 L105.143785,50.973503 L122.048228,50.973503" id="path74" fill="#FFFFFF"></path>
                        <path d="M64.415001,87.8639294 L64.4311497,125.666322 L67.3334522,117.776407 L67.3334522,117.811792 L85.7149876,98.0842711 L85.7216876,98.0916215 L85.708803,103.04957 L107.031638,126.041022 L104.004956,117.761023 L103.984856,89.8458097 C109.524554,89.7688866 114.846243,89.5533311 119.929653,89.2273482 L119.929653,130.069398 L122.038092,133.572304 L127.423517,136.087005 L127.440181,136.116407 L97.7674283,136.156578 L85.4578107,122.582048 L85.4578107,118.699997 L71.1485008,133.545638 L72.4893597,136.195894 L72.4826597,136.202561 L44.2076297,136.248031 L49.6810141,133.579655 L51.7934038,130.069398 L48.6777321,128.821364 L48.6950834,128.792134 L48.6851193,85.6230748 C53.5348884,86.4529893 58.7861421,87.2182884 64.415001,87.8639294" id="path76" fill="#FFFFFF"></path>
                        <path d="M66.5107265,51.1552124 L64.4002266,54.6627337 L64.401601,57.6309387 C58.3384447,56.8543576 52.9208935,55.9282037 48.1845091,54.964614 L44.0210604,47.8384603 L49.6748295,51.1552124 L66.5107265,51.1552124" id="path78" fill="#FFFFFF"></path>
                        <path d="M87.2590799,15.5482047 L138.253294,15.5482047 L147.742212,24.2688883 L145.88803,27.1822215 L145.88803,56.0196567 C141.249568,56.8341866 136.083697,57.5875199 130.421853,58.1984601 L130.441953,34.2280333 L128.866251,31.332136 L125.957248,28.9249565 L100.614069,28.9249565 L100.543633,28.9830762 L99.0471283,26.481025 L95.1575207,29.3837599 L92.9698849,33.7859821 L92.966449,59.6875199 C87.1450081,59.5753831 81.6609723,59.2902549 76.5244776,58.8829045 L76.5244776,27.938119 L73.8013571,23.6598285 L77.7699904,24.2688883 L87.2590799,15.5482047" id="path80" fill="#FFFFFF"></path>
                        <path d="M133.746943,88.0261516 C138.006253,87.5581175 142.058207,87.0211944 145.88803,86.4369209 L145.88803,89.3596559 L147.58124,93.0622199 L152.385999,95.7145275 L127.621425,95.7145275 L132.156638,93.4923054 L133.746943,88.0261516" id="path82" fill="#FFFFFF"></path>
                        <path d="M99.157936,95.7145275 L73.128952,95.7145275 L77.9290724,92.5741857 L79.4664647,89.2128183 C83.9238543,89.5025619 88.5630029,89.7061516 93.372572,89.8063225 L95.1240207,93.538972 L99.157936,95.7145275" id="path84" fill="#FFFFFF"></path>
                    </g>
                </g>
            </g>
        </g>
    </g>
</svg>