<svg width="200" height="200" xmlns="http://www.w3.org/2000/svg"><g fill-rule="nonzero" fill="none"><path d="M126.452 41.847 99.685 86.409 72.913 41.847H23.618v17.357c7.688 0 11.972 5.43 11.972 12.358v15.014h3.398V68.772c0-6.476-5.78-12.75-11.75-12.75v-10.31H70.86l24.493 40.864h8.664l24.486-40.865h43.62v10.311c-5.966 0-11.75 6.274-11.75 12.75v17.804h3.4V71.562c0-6.927 4.285-12.358 11.974-12.358V41.847h-49.295M163.772 125.783v-10.942h-3.398v13.935c0 6.278 5.783 15.214 11.75 15.214v12.174h-51.815V143.99c5.782 0 11.75-8.936 11.75-15.214V114.84h-3.305v10.942c0 7.946-4.73 15.612-12.05 15.612v18.451h59.043v-18.451c-7.689 0-11.975-8.14-11.975-15.612M70.61 125.783v-10.942h-3.301v13.935c0 6.278 5.967 15.214 11.746 15.214v12.174H27.24V143.99c5.969 0 11.75-8.936 11.75-15.214V114.84h-3.4v10.942c0 7.473-4.283 15.612-11.971 15.612v18.451H82.66v-18.451c-7.32 0-12.051-7.666-12.051-15.612M123.126 114.841l-23.44 38.606-23.444-38.606h-4.37l27.813 46.105 27.808-46.105h-4.367M41.828 90.42h-8.045c-1.517 0-2.583-.031-5.523-.031v5.458h1.679c0-1.97.227-2.81 4.328-2.81h.937v13.796c0 1.87-.356 2.384-2.647 2.384v1.811h9.108v-1.811c-2.55-.126-2.617-.514-2.617-2.384V93.036h1.1c2.842 0 4.167.935 4.167 2.81h1.679v-3.68c1.826.01 2.197.176 2.197 3.196v9.465c0 3.975-.357 4.101-2.454 4.556v1.645h8.721v-1.645c-1.938-.324-2.455-.58-2.455-2.262v-5.815h8.593v5.815c0 1.681-.517 1.938-2.454 2.262v1.645h8.721v-1.645c-2.102-.455-2.455-.58-2.455-4.556v-9.465c0-3.166.388-3.197 2.455-3.197v-1.713h-8.721v1.713c1.97.03 2.454.225 2.454 4.166v2.39h-8.593v-2.39c0-3.941.485-4.135 2.455-4.166v-1.713h-8.464v-.063c-2.23 0-3.23.031-4.166.031M79.17 93.07c1.778 0 2.81.42 2.682 2.226h1.744c.031-1.807 0-3.066 0-4.876H69.125v1.677c1.128 0 1.485.099 1.679.293.678.712.709 1.032.709 11.761 0 4.777-.388 5.007-2.356 5.133v1.744c2.293 0 5.522-.031 9.69 0h4.75v-5.714h-1.648c-.647 2.903-1.195 3.069-3.682 3.069-2.488 0-2.716-.55-2.716-1.33v-5.294h4.104c2.1 0 2.132.066 2.197 1.486h1.744V97.69h-1.582c-.29 1.71-.324 1.482-3.716 1.482h-2.747V93.07h3.62M90.218 109.383v1.645h8.721v-1.645c-1.938-.324-2.454-.58-2.454-2.262v-5.815h8.592v5.815c0 1.681-.515 1.938-2.453 2.262v1.645h8.721v-1.645c-2.1-.455-2.456-.58-2.456-4.556v-9.465c0-3.166.387-3.197 2.456-3.197v-1.713h-8.721v1.713c1.97.03 2.453.225 2.453 4.166v2.39h-8.592v-2.39c0-3.941.485-4.135 2.454-4.166v-1.713h-8.721v1.713c2.067 0 2.455.03 2.455 3.197v9.465c0 3.975-.355 4.101-2.455 4.556M123.653 93.07c1.776 0 2.812.42 2.681 2.226h1.745c.031-1.807 0-3.066 0-4.876H113.607v1.677c1.132 0 1.483.099 1.678.293.679.712.712 1.032.712 11.761 0 4.777-.389 5.007-2.358 5.133v1.744c2.294 0 5.525-.031 9.689 0h4.751v-5.714h-1.65c-.644 2.903-1.194 3.069-3.68 3.069-2.49 0-2.715-.55-2.715-1.33v-5.294h4.101c2.1 0 2.137.066 2.2 1.486h1.744V97.69h-1.582c-.294 1.71-.325 1.482-3.718 1.482h-2.745V93.07h3.619M135.055 94.683c0-.159.064-1.356.1-2.13.612-.1 1.324-.132 1.482-.132 2.069 0 3.88 1.163 3.88 4.104 0 3.393-1.618 4.134-3.812 4.134h-1.65v-5.976Zm-6.363 14.7v1.645h8.657v-1.744c-2-.094-2.294-1.095-2.294-2.2v-4.096h1.97c.423 0 .743-.067 1.068-.067 1.519 2.75 3.713 5.945 4.682 6.913.843.874 1.844 1.582 3.556 1.582.775 0 1.55-.13 2.97-.45l.032-1.614c-1.32 0-2.002-.162-3.165-1.325-.97-.974-2.811-3.619-4.424-6.43 2-1.485 2.906-3.876 2.906-5.685 0-5.427-5.331-5.88-7.915-5.88-2.23 0-5.848.258-7.98.388v1.745c2.132 0 2.457.55 2.457 3.165v11.367c0 1.231-.096 2.425-2.52 2.686ZM155.796 93.102c1-.291 1.937-.453 3.163-.453 4.106 0 7.918 2.647 7.918 8.463 0 4.423-1.811 7.397-7.432 7.397-1.324 0-2.582-.193-3.132-.743-.356-.357-.517-1.095-.517-4.652V93.102Zm-3.813 12.568c0 2.808-.645 3.614-2.551 3.614v1.744h10.626c8.014 0 11.051-5.944 11.051-10.206 0-3.973-1.393-10.821-12.438-10.821-2.358 0-5.913.354-9.338.388v1.708c1.067.036 1.392.068 2.1.745.617.616.55 5.202.55 6.236v6.592Z" fill="#FFF"/><path d="M38.988 68.772v17.804h56.365L70.86 45.71H27.239v10.311c5.969 0 11.75 6.274 11.75 12.75M67.309 128.776V114.84h-28.32v13.935c0 6.278-5.781 15.214-11.75 15.214v12.174h51.816V143.99c-5.78 0-11.746-8.936-11.746-15.214M160.374 128.776V114.84h-28.316v13.935c0 6.278-5.967 15.214-11.749 15.214v12.174h51.815V143.99c-5.967 0-11.75-8.936-11.75-15.214M128.503 45.711l-24.486 40.865h56.357V68.772c0-6.476 5.783-12.75 11.75-12.75v-10.31h-43.621M76.242 114.841l23.443 38.606 23.44-38.606z" fill="#0DAA4C"/><path d="M160.058 111.028h-10.626v-1.744c1.906 0 2.551-.806 2.551-3.614v-6.592c0-1.034.067-5.62-.55-6.236-.708-.677-1.033-.71-2.1-.745v-1.708c3.425-.034 6.98-.388 9.338-.388 11.045 0 12.438 6.848 12.438 10.82 0 4.263-3.037 10.207-11.05 10.207Zm15.69 30.367v18.451h-59.044v-18.451c7.32 0 12.05-7.666 12.05-15.612v-10.942h35.018v10.942c0 7.473 4.286 15.612 11.975 15.612Zm-76.063 19.55-27.814-46.104h55.622l-27.808 46.105Zm-17.024-1.099H23.618v-18.451c7.688 0 11.972-8.14 11.972-15.612v-10.942h35.019v10.942c0 7.946 4.732 15.612 12.052 15.612v18.451Zm-52.722-64h-1.68V90.39c2.941 0 4.007.031 5.524.031h8.045c.937 0 1.937-.031 4.166-.031v.063h8.464v1.713c-1.97.03-2.455.225-2.455 4.166v2.39h8.593v-2.39c0-3.941-.485-4.135-2.454-4.166v-1.713h8.721v1.713c-2.067 0-2.455.03-2.455 3.197v9.465c0 3.975.353 4.101 2.455 4.556v1.645h-8.721v-1.645c1.937-.324 2.454-.58 2.454-2.262v-5.815h-8.593v5.815c0 1.681.517 1.938 2.455 2.262v1.645H45.736v-1.645c2.098-.455 2.455-.58 2.455-4.556v-9.465c0-3.02-.371-3.187-2.197-3.195v3.68h-1.68c0-1.876-1.324-2.81-4.166-2.81h-1.1v13.796c0 1.87.066 2.258 2.617 2.384v1.811h-9.108v-1.811c2.291 0 2.647-.514 2.647-2.384V93.036h-.937c-4.101 0-4.328.841-4.328 2.81Zm48.36 3.326c3.39 0 3.425.228 3.715-1.482h1.582v5.555h-1.744c-.065-1.42-.097-1.486-2.197-1.486H75.55v5.294c0 .78.228 1.33 2.716 1.33 2.487 0 3.035-.166 3.682-3.07h1.647v5.715h-4.748c-4.169-.031-7.398 0-9.691 0v-1.744c1.968-.126 2.356-.356 2.356-5.133 0-10.73-.031-11.049-.709-11.761-.194-.194-.551-.293-1.68-.293V90.42h14.472c0 1.81.031 3.07 0 4.876h-1.744c.128-1.807-.904-2.226-2.682-2.226h-3.619v6.102h2.747Zm33.046 10.211v1.645h-8.72v-1.645c1.937-.324 2.452-.58 2.452-2.262v-5.815h-8.592v5.815c0 1.681.516 1.938 2.454 2.262v1.645h-8.721v-1.645c2.1-.455 2.455-.58 2.455-4.556v-9.465c0-3.166-.388-3.197-2.455-3.197v-1.713h8.721v1.713c-1.97.03-2.454.225-2.454 4.166v2.39h8.592v-2.39c0-3.941-.483-4.135-2.453-4.166v-1.713h8.721v1.713c-2.069 0-2.456.03-2.456 3.197v9.465c0 3.975.357 4.101 2.456 4.556Zm11.434-10.21c3.393 0 3.424.227 3.718-1.483h1.582v5.555h-1.745c-.062-1.42-.1-1.486-2.199-1.486h-4.101v5.294c0 .78.225 1.33 2.714 1.33 2.487 0 3.037-.166 3.682-3.07h1.65v5.715h-4.752c-4.164-.031-7.395 0-9.689 0v-1.744c1.97-.126 2.358-.356 2.358-5.133 0-10.73-.033-11.049-.712-11.761-.195-.194-.546-.293-1.678-.293V90.42H128.08c0 1.81.031 3.07 0 4.876h-1.745c.13-1.807-.905-2.226-2.681-2.226h-3.62v6.102h2.746Zm14.57 10.111v1.744h-8.657v-1.645c2.424-.26 2.52-1.455 2.52-2.686V95.33c0-2.616-.325-3.165-2.458-3.165V90.42c2.133-.13 5.752-.387 7.981-.387 2.584 0 7.915.452 7.915 5.879 0 1.81-.906 4.2-2.906 5.685 1.613 2.811 3.455 5.456 4.424 6.43 1.163 1.163 1.845 1.325 3.165 1.325l-.032 1.613c-1.42.32-2.195.45-2.97.45-1.712 0-2.713-.707-3.556-1.581-.969-.968-3.163-4.164-4.682-6.913-.325 0-.645.067-1.068.067h-1.97v4.097c0 1.104.293 2.105 2.294 2.2ZM23.618 59.204V41.847h49.295l26.772 44.562 26.767-44.562h49.295v17.357c-7.689 0-11.975 5.43-11.975 12.358v15.014H35.59V71.562c0-6.927-4.284-12.358-11.972-12.358Zm145.41 27.372V76.67c0-7.632-.05-12.56 12.118-12.56V35.796h-58.07l-23.39 38.783-23.398-38.783H18.216V64.11c12.17 0 12.12 4.928 12.12 12.56v9.906H0v28.265h30.337v5.62c0 7.396.05 16.107-12.12 16.107v29.055h69.901v-13.1l7.872 13.1h7.383l7.873-13.1v13.1h69.9v-29.055c-12.168 0-12.118-8.711-12.118-16.107v-5.62h30.34V86.576h-30.34ZM183.983 158.724h2.283v6.9h.828v-6.9h2.408v-.83h-5.519v.83M193.915 164.18l-1.98-6.286h-1.329v7.73h.827v-6.568l2.07 6.567h.825l2.07-6.567v6.567h.827v-7.729h-1.328l-1.982 6.287" fill="#231F20"/><path d="M158.959 92.649c-1.226 0-2.163.162-3.163.453v10.012c0 3.557.16 4.295.517 4.652.55.55 1.808.743 3.132.743 5.62 0 7.432-2.974 7.432-7.397 0-5.816-3.812-8.463-7.918-8.463M136.705 100.66c2.194 0 3.812-.742 3.812-4.135 0-2.941-1.811-4.104-3.88-4.104-.158 0-.87.032-1.483.131-.035.775-.099 1.972-.099 2.131v5.976h1.65" fill="#231F20"/><path fill="#231F20" d="M180.813 113.388H16.547V88.05h164.266v25.338"/><path d="M73.931 91.327H41.883c-.046.043 1.938 1.287.895 1.761-.97.61-1.863.678-5.143 2.914.057.01 5.143-.204 5.888-.204l7.379-.339c-.895 2.576-1.417 4.473-2.311 6.64-.666 1.856-1.214 3.38-2.641 6.922-1.478 3.665 1.15 3.919 3.237.396 3.876-6.301 5.367-8.808 8.646-14.093 1.75-.18 3.354-.27 4.62-.406.926-.266 9.019-2.913 11.478-3.591" fill="#FFF"/><path d="M74.312 93.088c-1.022 2.159-.796 1.623-2.736 5.623h-4.203s1.416-3.048 2.012-4.2c-1.89.61-2.658.813-4.92 1.559-.667 1.42-.641 1.406-1.32 2.641h-4.58s1.897.89 3.248 2.826c-.601 1.556-1.703 3.64-2.83 5.983h4.173c.742-1.472 1.79-3.71 2.658-5.615h4.31c-1.24 2.553-1.67 3.508-2.617 5.615h4.06c2.348-4.727 4.233-8.448 7.087-14.432h-4.342M78.468 97.983c-1.25 2.776-1.245 2.594-2.755 5.743-.67 1.626-.447 3.794 3.13 3.794h5.884c1.419 0 3.276-3.523 3.282-3.523h-6.184c-.746 0-1.491-.475-1.12-1.448.232-.52.667-1.224.667-1.297 1.733 0 3.726-.339 5.067-.948 2.237-1.152 3.056-1.728 3.056-1.728H82.27c.442-.846 1.346-2.443 1.346-2.574 2.094.038 4.354 0 6.704 0a54.37 54.37 0 0 0 1.596-2.912H80.81c-.648 1.271-1.722 3.622-2.342 4.893M159.93 96.544c-1.372-2.834-3.502-3.456-6.709-3.622h-7.675c2.83.708 1.726 3.093 1.875 3.093 4.907 0 7.516-.488 8.633 1.816.82 1.558 0 3.252-1.043 4.743-1.342 1.219-3.057 1.423-6.484 1.423.596-1.085 1.821-4.015 2.453-5.477.028-.064-1.85-.045-1.857-.011l-2.386.002c-.692 1.403-2.49 5.123-3.593 7.382-1.436-1.065-2.772-2.28-3.56-3.523-.653-1.878 1.042-1.761 2.161-2.37 1.564-.61 2.46-2.237 2.385-3.998-.037-.851-.852-2.945-3.727-3.075h-7.3c-1.44 2.804-2.031 4.296-3.077 6.463-1.805 3.793-1.79 4.607-4.338 4.607h-5.04l-1.132-.273c-.298-.37.732-2.032 1.077-2.78 2.536-.27 2.27-.203 4.28-.88 1.864-.678 4.472-1.48 2.433-1.48-.467-.038-1.458-.027-1.957 0h-3.954c.492-.956 1.197-2.582 1.197-2.582h6.27c-.082.074 1.414-2.914 1.47-3.075h-10.644c-.695 1.755-1.772 3.925-2.592 5.657h-2.853a262.988 262.988 0 0 0 2.558-5.496c1.345-2.662-4.99-2.303-5.655.066-.745 2.102-.968 2.848-2.013 5.43h-4.37c.707-1.536 1.13-2.455 2.567-5.496h-7.178c2.534.415.676 3.862.154 5.496 0 0-6.358-.062-6.186 0 2.647.94 2.879 2.051 2.684 4.396.596-.07 1.677-.203 2.012-.203-.075.44-.69 1.644-1.565 4.471-1.63 3.376 1.64 3.828 3.204.44.746-1.422 1.266-2.709 2.385-5.114 2.46-.271 3.744-.343 5.176-.543-.597 1.966-1.888 4.985-2.609 7.115-.297.88-.48 1.965-.373 2.168.341.881 2.034 2.062 3.46-.881 2.786-5.77 1.862-4.03 4.274-8.813 1.271-.112 2.07-.18 3.04-.316-.522 1.356-.768 1.519-1.214 2.468-.822 1.899 1.191 3.661 2.321 3.647.884 0 1.255.058 1.407.082h5.11c.634-.045 3.444.007 4.45-.068 2.386 0 3.369-1.398 4.374-3.757 0 0 2.356-4.655 3.83-7.674.82 0 1.67-.005 2.752 0 1.193 0 1.185.59 1.268 1.084-.449 1.49-2.284 1.38-3.508 1.801-1.223.716-1.635 2.4-1.1 3.594 1.414 2.793 2.682 3.184 5.128 5.039.98.587 2.907 1.558 4.026 1.83 2.352.74 5.39 1 4.057-.203-.719-.297-1.868-.874-3.13-1.632l4.14-.01c6.409.015 12.223-3.576 10.211-10.961" fill="#FFF"/></g></svg>