<svg width="200" height="200" xmlns="http://www.w3.org/2000/svg"><g fill="none"><path fill="#231F20" d="M190.587 173.354h-56.195v-65.33l-22.538 50.677H89.839l-22.556-50.695v65.348H11.868l14.486-31.7.008-104.883L13.065 1.434h52.187l35.57 82.003 35.595-82.003h51.969L175.32 36.586v105.028l15.267 31.74"/><path fill="#FCD213" d="M184.198 169.344h-45.786V89.089l-29.173 65.6H92.452L63.261 89.078v80.267h-45.14l12.254-26.818.009-106.484L18.87 5.445h43.74l38.209 88.091 38.237-88.091h43.547l-11.308 30.42v106.661l12.902 26.818"/><path fill="#E51635" d="M179.55 166.424l-11.18-23.235V35.343l10.03-26.98h-37.42l-40.16 92.52-40.131-92.52H23.093l10.218 27.15-.01 107.646-10.633 23.265h37.667V75.31l34.02 76.463h12.979l34.004-76.454v91.106h38.211"/><path fill="#231F20" d="M151.213 186.247h-9.776l8.07 5.202v5.282h9.916l-8.21-5.49v-4.994m20.159 3.365l8.373 5.503v1.616h4.28l-2.57-1.717v-8.767h-11.764v.93l-1.427-.93h-8.68v10.484h11.788v-7.119m-40.39-3.365v10.484h10.15v-10.484h-10.15"/><path fill="#FCD213" d="M141.437 186.247h-.304v10.484h8.374v-5.282l-8.07-5.202m9.776 0v4.995l8.21 5.489h.16v-10.484h-8.37m18.477 0h-1.426l1.427.93zm1.682 3.365v7.119h8.373v-1.616l-8.373-5.503m12.653 7.118h3.007l-3.66-5.331 3.626-5.152h-5.543v8.767l2.57 1.717"/><path d="M71.971 191.447c.008-1.754 2.587-3.202 6.153-3.415.139-.65.34-1.25.59-1.785h-7.15l-.008 5.2h.415m24.753-3.96v-1.24H84.951c.178.384.34.793.464 1.24h11.31m33.765 3.96v.01c0 1.761-2.58 3.204-6.153 3.423a8.41 8.41 0 0 1-.625 1.85h7.27v-5.283h-.493m-24.882 3.981v1.303h11.933a7.952 7.952 0 0 1-.494-1.303h-11.44" fill="#FFF"/><path d="M85.415 195.428a8.212 8.212 0 0 1-.494 1.303h11.803v-1.303H85.415m-13.445-3.971l.001-.01h-.415l-.006 5.284h7.196a8.247 8.247 0 0 1-.622-1.85c-3.572-.22-6.154-1.663-6.154-3.424m58.52-.01h.492v-5.2h-7.236c.25.535.449 1.135.591 1.785 3.565.213 6.14 1.666 6.152 3.415m-13.443-3.96a7.66 7.66 0 0 1 .465-1.24h-11.904v1.24h11.44" fill="#E51635"/><path d="M71.971 191.447l-.001.01c0 1.761 2.582 3.204 6.154 3.423.146.68.358 1.301.622 1.85h6.175c.19-.4.363-.833.494-1.302h11.31v1.303h4.444v-5.284H71.97" fill="#FFF"/><path d="M130.49 191.457v-.01h-29.321v5.284h4.438v-1.303h11.44c.13.469.3.901.493 1.303h6.172a8.41 8.41 0 0 0 .625-1.85c3.573-.22 6.152-1.663 6.152-3.424" fill="#E51635"/><path d="M130.49 191.447c-.013-1.75-2.588-3.202-6.153-3.415a8.567 8.567 0 0 0-.591-1.785h-6.235a7.626 7.626 0 0 0-.465 1.24h-11.44v-1.24h-4.437v5.2h29.32" fill="#FFF"/><path d="M71.971 191.447h29.198v-5.2h-4.445v1.24H85.415a8.173 8.173 0 0 0-.464-1.24h-6.237a8.298 8.298 0 0 0-.59 1.785c-3.566.213-6.145 1.66-6.153 3.415" fill="#E51635"/><path fill="#231F20" d="M15.473 186.247l3.628 5.145-3.667 5.339h6.76v-10.484h-6.72m47.066 0H50.772v.93l-1.432-.93h-8.684v10.484h11.795v-7.119l8.374 5.503v1.616h4.286l-2.573-1.717v-8.767m-30.258 0H22.5l8.07 5.202v5.282h9.928l-8.216-5.49v-4.994"/><path fill="#FCD213" d="M22.499 186.247h-.304v10.484h8.373v-5.282l-8.07-5.202m9.782 0v4.995l8.217 5.489h.16v-10.484h-8.376m18.492 0H49.34l1.432.93zm1.679 3.365v7.119h8.374v-1.616l-8.374-5.503m19.111-3.365H62.54v8.767l2.573 1.717h6.438l.006-5.284.007-5.2"/><path d="M15.434 196.73h171.598l-3.66-5.331 3.626-5.152H15.473l3.628 5.145-3.667 5.339zm176.699 2.784H10.326l4.808-8.101-4.79-7.947h181.789l-4.798 7.941 4.798 8.107z" fill="#231F20"/></g></svg>