<svg width="200" height="200" xmlns="http://www.w3.org/2000/svg"><g fill="none"><path d="M199.486 76.497h-19l11.81-58.168H47.73l-9.273 44.038H15.67L9.591 91.673h3.872l-3.357 15.712-3.678.009L0 136.588h31.71l-.485 2.258-.006.033c-2.406 11.476.036 22.765 6.701 30.97 6.14 7.56 15.128 11.724 25.309 11.724h51.94c9.501 0 19.2-4.326 27.307-12.181 7.336-7.107 12.692-16.45 14.699-25.648l1.533-7.166h15.563c7.84 0 15.105-5.928 16.898-13.789l2.417-11.476c.47-2.307.463-4.63.003-6.804l5.897-28.012" fill="#FFF"/><path d="M189.952 102.551l4.652-22.093h-27.126c-.271 0-.546.01-.822.027l1.663-7.776h8.893l10.237-50.42H50.943L41.67 66.327H18.89l-4.435 21.386h3.903l-5.05 23.625-3.697.009-4.685 21.28h28.726l4.066-18.935c.673 1.529 1.338 3.032 1.99 4.5l-4.603 21.445-.011.054c-2.16 10.303-.01 20.386 5.899 27.662 5.373 6.615 13.268 10.26 22.234 10.26h51.94c18.282 0 34.477-17.942 38.133-34.698l2.203-10.297h18.766c5.942 0 11.668-4.705 13.037-10.71l2.398-11.384c.582-2.863.224-5.67-.98-7.973h1.228" fill="#231F20"/><path fill="#9A182F" d="M122.523 28.095l-11.046 52.363h5.934l9.821-46.557h46.01l-5.522 27.196h-8.792l-4.142 19.36h5.938l2.9-13.554h8.842l7.879-38.808h-57.822m-66.87 0l-8.17 38.808h9.172L52.881 84.49l8.22-10.629 2.74-12.764h-9.203l5.726-27.196h46.42l-9.821 46.557h5.933l11.046-52.363H55.653m49.494 110.503l1.261-5.98H85.96l-1.262 5.98h20.449"/><path d="M145.426 132.618l.126-.597c-.62.2-1.252.351-1.892.452l-1.704 7.967c-2.455 11.246-14.11 25.56-26.79 25.56h-51.94c-12.678 0-19.425-11.247-16.767-23.926l4.44-20.69-6.21 7.992-.974-2.186-2.94 13.693c-1.799 8.583-.077 16.897 4.725 22.81 4.249 5.231 10.544 8.113 17.727 8.113h51.94c15.255 0 29.351-15.879 32.466-30.152l1.933-9.036h-4.14" fill="#9A182F"/><path d="M120.67 80.458l-.208 13.191.571-2.728c1.45-6.803 8.318-10.463 14.044-10.463h19.71l4.14-19.36h8.793l5.522-27.197h-46.01l-9.82 46.557h3.257m21.199 52.16h-35.46l-1.261 5.98H84.698l1.262-5.98h-6.47l-.001.01h-28.38l3.372-15.854-3.581 4.61-4.441 20.69C43.8 154.753 50.549 166 63.227 166h51.94c12.68 0 24.334-14.314 26.789-25.56l1.704-7.967c-.592.094-1.19.145-1.792.145M61.1 73.86l5.827-7.533h26.435L88.93 87.695l-3.698.017-4.963 23.618h.83l12.06-30.872h3.804l9.82-46.557h-46.42l-5.725 27.196h9.202L61.1 73.861" fill="#FFF"/><path fill="#B9B7B8" d="M154.784 80.458l4.141-19.36h8.793L173.24 33.9l-30.26 13.447-7.105 33.11h18.909m-12.916 52.161h-17.187l-1.465 6.826c-1.227 5.623-7.055 12.78-13.394 12.78H73.834c-3.366 0-5.885-1.594-7.318-4.03l-18.122 9.45c2.833 5.047 7.958 8.356 14.83 8.356h51.94c12.68 0 24.335-14.314 26.789-25.56l1.704-7.967a11.47 11.47 0 0 1-1.789.145M93.362 66.327L88.93 87.695l-3.698.017-4.963 23.618h.83l12.06-30.872h3.802l9.82-46.556-21.34 13.445-4.084 18.98h12.005m-7.402 66.291l-18.866.01-1.641 7.633c-.625 2.973-.201 5.78 1.064 7.931l18.4-9.594h-.219l1.262-5.98"/><path d="M191.656 82.849h-24.178c-3.137 0-6.621 1.342-9.008 3.732l.786-3.732h-24.179c-4.855 0-10.56 3.2-11.703 8.561l-2.106 10.067c-.676 3.09-.077 6.087 1.642 8.224a7.536 7.536 0 0 0 4.16 2.622h-7.317l-.876 4.153h-1.164l.527-33.627H94.792l-13.187 33.758H80.54l.631-2.886h-3.848l5.966-28.392 3.693-.016 3.442-16.594H68.1l-16.906 21.86-8.1-21.86H20.838l-3.444 16.603h3.922l-6.07 28.404-3.711.008L7.9 130.237h23.82l5.218-24.303c2.282 5.271 8.312 18.824 8.312 18.824l13.738-17.682-4.925 23.16 40.04-.01 3.626-10.419h3.105l-1.054 10.419h42.088c2.565 0 5.126-1.144 7.13-2.956l-.623 2.956h25.894c4.79 0 9.593-3.97 10.714-8.889l2.378-11.29c.591-2.909.005-5.71-1.608-7.684a7.036 7.036 0 0 0-3.144-2.203h5.403l3.644-17.311" fill="#FFF"/><path d="M104.074 109.834h-5.605l6.066-17.21h.396l-.857 17.21zM115.81 85.24H96.425l-13.187 33.759h-3.23l-1.848 8.836h14.243l3.626-10.419h7.451l-1.054 10.419h13.912l1.912-8.967h-2.966l.527-33.628zm31.795 16.88H135.54l1.714-8.111h6.792l-.792 3.759h10.419l2.637-12.528h-21.232c-4.021 0-8.505 2.638-9.363 6.66l-2.11 10.088c-.923 4.22 1.187 8.176 5.473 8.176h11.54l-1.913 8.704h-6.528l.923-4.154h-11.407l-2.769 13.121h22.945c3.692 0 7.518-3.231 8.374-6.99l2.375-11.274c.79-3.89-1.122-7.45-5.012-7.45M85.034 82.93l2.452-11.82H69.275L50.45 95.45l-9.018-24.34H22.783l-2.451 11.82h3.94l-7.093 33.182-3.722.009-2.581 11.724h18.911l6.392-29.768c3.064 7.266 6.391 14.797 9.63 22.063l17.687-22.763-6.48 30.468h18.622l2.563-11.733h-3.825l6.97-33.165 3.688-.016" fill="#9A182F"/><path fill="#51232C" d="M72.067 77.074L48.218 107.85l2.233-12.398-9.02-24.34-5.917 5.968h-2.441l-9.649 44.954H17.71l-6.833 5.812h18.91l6.392-29.768-.637-20.83 12.467 30.988-2.2 11.905 17.687-22.763 11.527-20.13-9.365 44.467-8.641 6.13h18.587l2.564-11.731h-3.792l7.046-33.174 3.61-.008 2.453-11.82-6.877 5.962h-8.541m32.858 15.551h-.396l-6.066 17.21-7.065 3.791h18.004l.983-23.841-5.46 2.84zm10.88-7.385l-.527 33.63h2.967l-1.912 8.967H102.42l6.553-4.38.471-9.705-5.968 3.666h-7.452l-3.627 10.419H78.153l5.256-4.441h4.24l12.474-33.761h10.323l5.36-4.395zm37.867 12.521l2.637-12.528-6.43 4.301h-13.681c-2.011 0-4.253 1.319-4.682 3.33l-.78 3.73s-.785 3.805-1.122 5.367c-.336 1.562.119 2.471.376 2.886l-5.657 2.72c.94 1.565 2.56 2.591 4.743 2.591h11.54l5.546-2.68c.277.572.474 1.403.198 2.629l-1.957 9.094c-.515 2.353-1.78 4.112-4.726 4.112h-14.194l-6.562 4.517h22.947c3.692 0 7.518-3.231 8.375-6.99l2.374-11.275c.374-1.84.143-3.607-.616-4.959l-5.858 2.851c-.436-.969-1.325-1.364-2.57-1.364 0 0-9.333-.02-10.934-.02-1.601 0-2.036-.415-2.65-1.246l5.549-2.713 1.715-8.111h6.791l-.791 3.758h10.419"/><path d="M180.034 102.12h-12.066l1.714-8.111h6.792l-.791 3.759H186.1l2.638-12.528h-21.231c-4.022 0-8.506 2.638-9.364 6.66l-2.11 10.088c-.922 4.22 1.188 8.176 5.473 8.176h11.54l-1.913 8.704h-6.527l.923-4.154H154.12l-2.768 13.121h22.944c3.693 0 7.518-3.231 8.374-6.99l2.375-11.274c.79-3.89-1.122-7.45-5.012-7.45" fill="#9A182F"/><path d="M186.1 97.761l2.639-12.528-6.431 4.301h-13.68c-2.012 0-4.254 1.319-4.683 3.33l-.78 3.73s-.785 3.805-1.121 5.367c-.337 1.562.118 2.471.375 2.886l-5.656 2.72c.94 1.565 2.56 2.591 4.742 2.591h11.54l5.546-2.68c.278.572.475 1.403.198 2.629l-1.957 9.094c-.515 2.353-1.78 4.112-4.725 4.112h-14.195l-6.561 4.517h22.946c3.693 0 7.518-3.231 8.375-6.99l2.374-11.275c.374-1.84.143-3.607-.616-4.959l-5.858 2.851c-.436-.969-1.325-1.364-2.57-1.364 0 0-9.332-.02-10.934-.02-1.6 0-2.036-.415-2.649-1.246l5.548-2.713 1.715-8.111h6.791l-.79 3.758H186.1" fill="#51232C"/><path d="M174.084 74.906l.34 2.393 1.373-2.393h.95l-.716 3.344h-.613l.578-2.698-1.503 2.698h-.535l-.356-2.698-.577 2.698h-.614l.716-3.344h.957zm-4.493.558l.12-.558h2.85l-.12.558h-1.093l-.596 2.786h-.664l.596-2.786h-1.093z" fill="#231F20"/></g></svg>