<?xml version="1.0" encoding="UTF-8"?>
<svg width="200px" height="200px" viewBox="0 0 200 200" version="1.1" xmlns="http://www.w3.org/2000/svg" xmlns:xlink="http://www.w3.org/1999/xlink">
    <!-- Generator: Sketch 51.3 (57544) - http://www.bohemiancoding.com/sketch -->
    <title>mcneese-st</title>
    <desc>Created with Sketch.</desc>
    <defs></defs>
    <g id="mcneese-st" stroke="none" stroke-width="1" fill="none" fill-rule="evenodd">
        <g id="mcneese-st_BGL" transform="translate(6.511628, 0.000000)">
            <g id="mcneese-st">
                <g id="g10" transform="translate(92.735040, 100.852813) scale(-1, 1) rotate(-180.000000) translate(-92.735040, -100.852813) translate(0.000000, 0.604676)" fill-rule="nonzero">
                    <g id="g12">
                        <path d="M142.940202,118.175049 C145.996748,118.032898 147.837672,117.286076 149.347928,116.643215 C154.91415,114.27545 152.510458,112.751042 153.608441,108.199034 C152.875039,108.514099 143.825159,117.317901 142.940202,118.175049 Z M142.57774,93.1045285 C143.441501,91.0815317 143.551723,89.0224668 142.552304,87.6997218 C140.791928,85.3617656 134.297296,82.7295359 133.022321,81.3082401 C129.534424,80.9464982 127.955279,77.7966911 127.955279,77.7966911 C127.6988,77.8232118 127.316202,77.8564157 126.804305,77.8348809 L126.804305,82.4399302 C128.431142,83.9752649 129.480373,86.0608504 129.480373,86.0608504 C133.173877,87.2156665 131.549159,89.4711966 138.020475,95.5609791 C139.964202,95.0525248 141.974697,94.5179742 142.57774,93.1045285 Z M122.11986,89.5242379 L122.12092,101.413349 L123.179689,102.416254 C127.563142,101.296127 131.595792,99.2772677 132.47333,98.370579 C132.003826,95.981597 129.492031,94.3179022 128.768168,93.5077488 C128.768168,93.5077488 127.940441,91.8083042 126.33586,91.63104 C125.112817,91.495042 124.78851,89.8922387 122.11986,89.5242379 Z M123.655557,76.3571491 L111.280989,76.3571491 C110.671587,76.3571491 109.96786,76.4719306 108.739519,77.4901122 C107.512237,76.4719306 106.80851,76.3571491 106.199108,76.3571491 L93.8276182,76.3571491 L93.8276182,84.0622527 C94.7163908,84.3440083 98.5119565,84.8553268 98.5119565,88.4547123 L98.5119565,107.698323 L83.4280458,86.3927832 L68.3420154,107.698323 L68.3420154,88.4547123 C68.3420154,84.8553268 72.138323,84.3440083 73.0284734,84.0622527 L73.0284734,76.3571491 L60.6541216,76.3571491 C60.0455677,76.3571491 59.3425831,76.4719306 58.1142413,77.4901122 C56.8854755,76.4719306 56.181749,76.3571491 55.5723473,76.3571491 L43.1958752,76.3571491 L43.1958758,84.1161427 C44.5993014,84.5478992 47.8802142,84.8777103 47.8802142,88.4547123 L47.8782005,101.413349 C47.8782005,103.160849 46.7686655,103.968881 46.7686655,103.968881 L44.3890314,105.887492 L46.8038518,107.97626 C46.8038518,107.97626 47.8782005,108.753846 47.8782005,110.502089 L47.8802142,123.382648 C47.8802142,127.337411 43.1938622,127.72143 43.1958758,127.72143 L43.1958752,135.480359 L53.9804841,135.466527 C54.7629559,135.384843 55.4957217,135.018858 56.1518618,134.517087 C57.6277798,135.502595 58.5883028,135.480317 58.5883028,135.480317 L64.9451574,135.480317 C66.8992701,135.461223 67.6775026,134.599831 68.1846308,133.951666 L83.4280458,112.423246 L98.6692351,133.951666 C98.9391736,134.297496 99.2848898,134.701671 99.8450095,135.00825 C100.336452,135.2777 100.993864,135.47077 101.908815,135.480317 L108.265775,135.480317 C108.265775,135.480317 109.2281,135.502595 110.700202,134.517087 C111.488715,135.118576 111.927484,135.34241 113.128271,135.466527 L123.655557,135.480359 L123.655552,127.72143 C123.660852,127.72143 118.973228,127.337411 118.973228,123.382648 L118.973228,110.502089 C118.973228,108.750664 120.047894,107.97626 120.047894,107.97626 L122.463245,105.887492 L120.086048,103.968881 C120.086048,103.968881 118.973228,103.162122 118.973228,101.413349 L118.973228,88.4547123 C118.973228,84.8777103 122.253399,84.5478992 123.655552,84.1161427 L123.655557,76.3571491 Z M81.0165108,153.065644 C83.1754885,152.719814 83.6101244,151.557148 87.1581141,151.034161 C87.6300559,150.964146 88.2344764,149.956361 89.1585414,149.75056 C89.9277653,149.956361 91.6706541,148.9804 92.0813379,148.1084 C87.9985585,148.27495 83.8896013,146.134201 82.3495638,145.200674 C75.8216528,149.733587 79.8457177,149.35275 77.8266374,153.80504 C77.8266374,153.80504 79.6967057,153.276749 81.0165108,153.065644 Z M177.623107,98.903008 C177.894423,100.156587 177.04444,101.389374 176.224132,101.74072 C175.62003,104.97709 175.208816,106.666139 174.954457,107.870177 C175.915722,112.091207 174.31962,114.941649 175.890286,115.509191 C179.195893,116.7005 180.946731,120.3699 180.946731,120.3699 C180.946731,120.3699 176.986149,118.79139 174.520987,120.743311 C172.239175,122.554142 170.933466,122.284692 170.933466,122.284692 C171.074423,126.552399 167.767756,127.324681 169.17415,132.518489 C166.837227,131.328241 166.309432,126.932175 166.309432,126.932175 C166.07097,140.008987 161.204235,142.874281 161.204235,142.874281 C161.375928,138.204521 158.127552,137.444969 158.127552,137.444969 C157.180064,139.151839 158.336338,145.495584 166.07415,145.867934 C166.07415,145.867934 158.01309,151.612311 153.128338,146.425929 C153.836304,150.385995 153.4908,152.194705 152.025056,153.514374 C152.387518,151.361956 148.947313,150.50693 148.947313,150.50693 C148.65268,153.293722 149.435894,157.922109 157.14403,159.517593 C155.454663,160.743909 147.921398,161.435568 144.183381,158.134275 C143.605774,160.597515 145.503928,162.389251 145.503928,162.389251 C141.192543,160.978351 141.302766,158.536328 139.737398,159.887821 C138.170971,161.238254 137.118561,160.968804 137.118561,160.968804 C137.688749,159.756279 138.30345,156.388154 133.999484,155.278529 C131.575655,154.65158 133.325433,158.177769 134.498663,158.837603 C129.733672,158.177769 125.601399,153.308573 124.028612,149.311378 C122.074288,148.806424 118.831211,149.067388 117.789399,149.436555 C115.720612,150.168526 112.261331,151.028856 109.41145,150.777441 C106.089946,150.483591 105.944008,151.688691 106.182151,152.368681 C106.419553,153.048671 106.052852,154.055395 104.58732,154.030996 C103.664103,154.014023 103.289454,154.896631 101.44302,154.999531 C97.2397377,155.232913 95.1978711,153.80504 94.4403053,153.80504 C93.4143908,153.80504 91.9853174,154.478665 91.1572729,155.29338 C90.1955841,156.24282 84.9026919,158.83442 83.4155398,160.271841 C82.1073928,161.535286 80.9552527,159.964201 79.3655091,161.555441 C76.868234,164.054749 72.4881725,166.353561 70.4947401,167.252081 C69.4689316,167.713541 67.2105419,169.35464 67.0594103,170.27862 C66.3908701,174.377655 64.3001454,173.350775 64.0455745,175.222073 C63.9515676,175.919037 64.903718,175.992234 65.9574001,176.083465 C66.5555676,176.135445 68.0356188,176.390044 67.7851812,178.146773 C67.6941419,178.788573 68.2351846,179.880164 68.2351846,179.880164 C69.0196701,180.0796 68.9878752,180.1825 69.1679402,181.458674 C69.3914581,183.045671 71.6995538,181.997574 73.1505657,181.538236 C76.7420083,180.403152 76.8102613,180.878402 77.0284801,181.74828 C78.5437177,187.785446 68.9679504,190.494797 68.9049966,190.501162 C68.9049966,190.501162 69.255694,193.258251 69.1824598,194.41137 C69.1294684,195.238815 68.604853,196.007915 66.5418958,196.173404 C64.1834582,196.360109 62.257113,198.81168 57.0689319,196.162795 C56.1084089,195.672693 55.9759302,191.486671 55.2440123,190.614671 C48.408115,190.071528 46.213951,185.947033 46.821233,184.842712 C47.3254997,183.925097 51.2262004,184.14787 52.4061081,184.154235 C54.0819098,184.162722 53.4588363,183.008542 53.962679,182.18428 C54.4656739,181.360018 54.1481491,180.480592 53.7867474,179.966091 C50.2069628,180.09339 49.9398859,182.370986 47.2633937,181.688874 C46.0202142,181.371687 44.5484297,181.666596 42.9152331,182.306275 C41.390881,182.905642 35.1270795,182.796377 34.5847649,178.512758 C38.7786144,180.510295 40.1779067,177.891114 40.1779067,177.891114 C40.1779067,177.891114 38.4378794,177.406316 38.1616879,176.02618 C40.0772229,177.085946 41.7241972,176.515221 42.4424434,176.408078 C46.2159647,175.839475 46.8618245,178.113887 48.3219509,178.060846 C50.7169526,177.973858 52.0554107,177.551649 52.0554107,177.551649 C50.4064227,175.98693 48.073633,176.701927 47.1958826,175.80765 C46.8908638,175.495767 46.7769322,174.72985 46.213951,173.714638 C45.8102621,172.986911 44.2337664,173.146035 43.5353391,170.787817 C42.9482998,168.807254 38.1410213,167.190553 35.0877598,162.775392 C32.0333325,158.360231 31.7572471,161.574536 27.157695,152.238199 C25.9012677,149.687971 23.3323481,150.678784 22.701008,148.340721 C21.361808,143.369687 17.7545739,145.612275 16.9328885,138.659616 C16.880215,138.217251 16.5954389,136.980327 16.737456,136.299276 C16.8782013,135.619286 16.855415,133.586742 17.8435996,133.919841 C20.1487277,134.696366 19.9769294,138.111168 21.6109738,138.232102 C22.4803516,138.296813 22.3719311,136.456278 23.5186661,136.605855 C25.1498489,136.820142 23.7471652,138.259684 25.9269156,140.938272 C27.0873224,142.366145 25.6673635,144.706329 26.916372,145.312061 C31.2189599,147.400829 30.784324,149.933022 31.3535582,150.138823 C33.9616915,151.081898 34.9719205,151.964506 38.2361939,155.296563 C40.5442896,157.65372 45.7522895,159.318157 46.1477117,159.304367 C46.7603988,159.279968 47.0585287,159.069924 47.373086,158.690148 C47.6864774,158.312494 51.5089628,153.21416 51.8463064,151.407572 C52.1245115,149.913927 53.2353183,149.116186 53.86952,147.539797 C54.6843166,145.508314 55.6075337,144.992752 56.5431507,144.912129 C58.1431746,144.773161 59.975937,146.024936 61.9913079,144.010426 C62.560542,143.43864 62.6495677,142.525269 64.4616633,142.00122 C66.2728052,141.477172 66.6032599,140.562739 66.8578308,139.993075 C67.0884496,139.476452 67.7520086,138.968316 67.9122547,138.060248 C67.1256496,138.386983 66.1734992,138.627791 64.9886103,138.627791 L40.0495614,138.627791 L40.0495614,126.038959 L44.2565527,124.187816 C44.7007271,124.007475 44.7359134,123.748633 44.7359134,123.382648 L44.7317801,110.502089 L40.0089699,105.887492 L44.7317801,101.413349 L44.7359134,88.4547123 C44.7359134,87.8492984 44.4490177,87.6984488 44.3331784,87.6623807 L41.2708024,85.958905 C35.4280709,88.2384097 28.2444437,99.2564755 16.2737808,95.5457032 C9.58772215,93.4738023 5.76655097,86.9347596 5.69202379,83.2409605 C8.01122647,86.0711405 11.3293604,86.1813604 11.3293604,86.1813604 C11.3293604,86.1813604 0.573797798,78.1149392 2.74727822,68.4572777 C3.79592606,71.6290439 6.64007265,73.0305022 6.64007265,73.0305022 C6.64007265,73.0305022 -0.286071172,58.0939542 13.7173672,51.9370213 C9.72310471,57.9339815 11.8034219,61.7625056 11.8034219,61.7625056 C11.8034219,61.7625056 12.4202424,57.8789246 16.1702355,56.6005222 C13.8663791,65.3958375 16.0551381,72.6292975 27.9732335,74.2707149 C26.7146865,73.3018617 26.2787788,71.4603724 26.2787788,71.4603724 C26.2787788,71.4603724 30.8347719,75.0493618 38.663517,73.0487484 C42.1568195,72.156487 45.866963,73.1270374 45.866963,73.1270374 C46.2189322,70.3286823 47.9266347,65.416948 55.9138242,57.8498579 C59.7598378,54.204963 54.3861867,48.9380638 50.3269355,45.9147073 C44.6220878,41.6660958 47.8306142,39.3384296 49.2650928,37.0174465 C50.7004192,34.6973121 55.5287884,26.2662847 55.7656601,24.8009646 C57.0821798,16.6836237 60.7223746,18.6726741 59.746166,16.0367315 C59.3260498,14.9046171 58.5518447,14.708152 58.2860396,13.9117893 C58.0210823,13.1148961 57.4911678,10.4586706 56.9599815,9.52920595 C58.1535609,7.66986292 63.0622651,3.55501108 65.8497214,2.62430526 C66.6611265,4.47784557 68.3697829,10.591274 66.5121146,13.6453096 C64.6554001,16.700597 66.1643847,18.4521282 65.4511197,20.6848504 C64.8126787,22.6825995 62.5316087,26.6607002 60.3796258,30.3735941 C58.1535609,34.2116656 59.1678173,40.4229128 60.6747882,41.4000405 C62.6826343,42.7015689 69.5632564,49.2339284 73.2776392,52.9535056 C73.5425965,47.3754659 71.2884461,42.461716 70.4927264,39.6728022 C69.0900427,34.7644625 74.593311,35.7552748 77.494169,36.4774857 C81.0516971,37.3655038 97.1043976,43.0587493 101.801984,40.2040643 C104.46809,38.5854547 106.255279,40.1618434 105.075796,35.2894657 C105.475351,34.3599692 106.733262,31.2521709 106.733262,31.2521709 C110.540168,30.6144018 117.313536,30.3864301 118.256783,32.8027815 C116.242048,36.3524142 113.972954,39.2708549 110.7161,40.9661623 C109.418869,43.0558851 106.402596,48.5008971 101.365228,47.7529081 C93.6876148,46.6137922 85.5173927,43.7877495 84.4277825,47.0572178 C83.767509,49.0408579 86.5504081,51.4438429 88.0461448,54.1932939 C89.5012901,56.8685931 93.9393241,62.040124 93.7601071,73.208615 L120.190971,73.208615 C118.974288,71.0073993 118.103108,68.430757 118.642561,65.6630598 C122.895655,65.9473614 126.33586,68.6015501 127.679723,69.5562943 C128.418424,72.3790484 130.776544,71.5465115 132.72239,73.7233282 C136.271757,72.6177345 141.573022,79.9026446 144.580817,83.0266735 C148.707791,87.3143234 150.559312,86.0098247 151.38068,93.2690627 C151.906355,97.9251378 146.181159,101.328483 144.338116,103.883166 C145.755107,107.857447 144.733432,109.094371 142.066902,109.987588 C139.403552,110.880804 138.158253,110.96567 138.2388,112.116667 C138.398834,114.417601 138.3628,116.72596 140.411449,117.117405 C144.000031,113.982662 152.279415,105.445339 154.265535,103.883166 C157.047586,97.0499557 161.014526,100.048807 164.118765,93.3610364 C163.265603,91.1333001 162.78868,88.3975337 165.896098,87.9827504 C167.695688,87.7432157 167.410594,87.0980209 168.024235,86.705621 C170.35162,85.2130376 170.837021,87.692296 170.993876,88.3001498 C171.03309,88.4505751 171.83856,88.4505751 171.943483,88.3921235 C172.485056,87.4514884 173.895688,86.4817865 175.156885,86.3682781 C176.4255,86.2534966 178.051278,88.7668076 178.316235,89.4554963 C178.874765,90.8991756 180.314013,91.0156544 180.095688,93.5140077 C179.840269,96.4304328 177.502286,96.9608462 177.623107,98.903008 Z" id="path14" fill="#1C4F9C"></path>
                        <path d="M116.407382,123.382648 L116.407382,110.502089 L116.410561,110.502089 C116.410561,107.573146 118.886322,105.887492 118.886322,105.887492 C118.886322,105.887492 116.410561,104.34314 116.410561,101.41547 L116.407382,101.41547 L116.407382,88.4547123 C116.407382,83.3362228 121.092886,82.1291079 121.092886,82.1291079 L121.092886,78.924244 L111.280989,78.924244 C110.697023,78.924244 108.739519,81.0799502 108.739519,81.0799502 C108.739519,81.0799502 106.783074,78.924244 106.199108,78.924244 L96.3901788,78.924244 L96.3901788,82.1291079 C96.3901788,82.1291079 101.076637,83.3362228 101.076637,88.4547123 L101.076637,115.758486 L83.4280458,90.8332982 L65.778077,115.758486 L65.778077,88.4547123 C65.778077,83.3362228 70.4625213,82.1291079 70.4625213,82.1291079 L70.4625213,78.924244 L60.6541216,78.924244 C60.0712156,78.924244 58.1142413,81.0799502 58.1142413,81.0799502 C58.1142413,81.0799502 56.156843,78.924244 55.5723473,78.924244 L45.7605561,78.924244 L45.7605561,82.1291079 C45.7605561,82.1291079 50.4470141,83.3362228 50.4470141,88.4547123 L50.4470141,101.41547 L50.441609,101.413349 C50.441609,104.341867 47.9659544,105.887492 47.9659544,105.887492 C47.9659544,105.887492 50.441609,107.574207 50.441609,110.502089 L50.4470141,110.502089 L50.4470141,123.382648 C50.4470141,128.500077 45.7605561,129.709419 45.7605561,129.709419 L45.7605561,132.913117 L53.7196602,132.913117 C54.7161115,132.810216 56.1518618,130.763881 56.1518618,130.763881 C56.1518618,130.763881 57.589308,132.810216 58.5883028,132.913117 L64.9451574,132.913117 C65.4771915,132.906752 65.7677966,132.852649 66.0927402,132.467569 L83.4280458,107.984747 L100.760808,132.467569 C100.915225,132.650031 101.060103,132.758236 101.229782,132.822946 C101.4161,132.892961 101.630185,132.909934 101.908815,132.913117 L108.265775,132.913117 C109.264134,132.810216 110.700202,130.763881 110.700202,130.763881 C110.700202,130.763881 112.137331,132.810216 113.135689,132.913117 L121.092886,132.913117 L121.092886,129.709419 C121.092886,129.709419 116.407382,128.500077 116.407382,123.382648" id="path16" fill="#FCD006"></path>
                        <path d="M116.407382,123.382648 L116.407382,110.502089 L116.410561,110.502089 C116.410561,107.573146 118.886322,105.887492 118.886322,105.887492 C118.886322,105.887492 116.410561,104.34314 116.410561,101.41547 L116.407382,101.41547 L116.407382,88.4547123 C116.407382,83.3362228 121.092886,82.1291079 121.092886,82.1291079 L121.092886,78.924244 L111.280989,78.924244 C110.697023,78.924244 108.739519,81.0799502 108.739519,81.0799502 C108.739519,81.0799502 106.783074,78.924244 106.199108,78.924244 L96.3901788,78.924244 L96.3901788,82.1291079 C96.3901788,82.1291079 101.076637,83.3362228 101.076637,88.4547123 L101.076637,115.758486 L83.4280458,90.8332982 L65.778077,115.758486 L65.778077,88.4547123 C65.778077,83.3362228 70.4625213,82.1291079 70.4625213,82.1291079 L70.4625213,78.924244 L60.6541216,78.924244 C60.0712156,78.924244 58.1142413,81.0799502 58.1142413,81.0799502 C58.1142413,81.0799502 56.156843,78.924244 55.5723473,78.924244 L45.7605561,78.924244 L45.7605561,82.1291079 C45.7605561,82.1291079 50.4470141,83.3362228 50.4470141,88.4547123 L50.4470141,101.41547 L50.441609,101.413349 C50.441609,104.341867 47.9659544,105.887492 47.9659544,105.887492 C47.9659544,105.887492 50.441609,107.574207 50.441609,110.502089 L50.4470141,110.502089 L50.4470141,123.382648 C50.4470141,128.500077 45.7605561,129.709419 45.7605561,129.709419 L45.7605561,132.913117 L53.7196602,132.913117 C54.7161115,132.810216 56.1518618,130.763881 56.1518618,130.763881 C56.1518618,130.763881 57.589308,132.810216 58.5883028,132.913117 L64.9451574,132.913117 C65.4771915,132.906752 65.7677966,132.852649 66.0927402,132.467569 L83.4280458,107.984747 L100.760808,132.467569 C100.915225,132.650031 101.060103,132.758236 101.229782,132.822946 C101.4161,132.892961 101.630185,132.909934 101.908815,132.913117 L108.265775,132.913117 C109.264134,132.810216 110.700202,130.763881 110.700202,130.763881 C110.700202,130.763881 112.137331,132.810216 113.135689,132.913117 L121.092886,132.913117 L121.092886,129.709419 C121.092886,129.709419 116.407382,128.500077 116.407382,123.382648 Z M123.655552,127.72143 L123.655557,135.480359 L113.128271,135.466527 C111.927484,135.34241 111.488715,135.118576 110.700202,134.517087 C109.2281,135.502595 108.265775,135.480317 108.265775,135.480317 L101.908815,135.480317 C100.993864,135.47077 100.336452,135.2777 99.8450095,135.00825 C99.2848898,134.701671 98.9391736,134.297496 98.6692351,133.951666 L83.4280458,112.423246 L68.1846308,133.951666 C67.6775026,134.599831 66.8992701,135.461223 64.9451574,135.480317 L58.5883028,135.480317 C58.5883028,135.480317 57.6277798,135.502595 56.1518618,134.517087 C55.4957217,135.018858 54.7629559,135.384843 53.9804841,135.466527 L43.1958752,135.480359 L43.1958758,127.72143 C43.1938622,127.72143 47.8802142,127.337411 47.8802142,123.382648 L47.8782005,110.502089 C47.8782005,108.753846 46.8038518,107.97626 46.8038518,107.97626 L44.3890314,105.887492 L46.7686655,103.968881 C46.7686655,103.968881 47.8782005,103.160849 47.8782005,101.413349 L47.8802142,88.4547123 C47.8802142,84.8777103 44.5993014,84.5478992 43.1958758,84.1161427 L43.1958752,76.3571491 L55.5723473,76.3571491 C56.181749,76.3571491 56.8854755,76.4719306 58.1142413,77.4901122 C59.3425831,76.4719306 60.0455677,76.3571491 60.6541216,76.3571491 L73.0284734,76.3571491 L73.0284734,84.0622527 C72.138323,84.3440083 68.3420154,84.8553268 68.3420154,88.4547123 L68.3420154,107.698323 L83.4280458,86.3927832 L98.5119565,107.698323 L98.5119565,88.4547123 C98.5119565,84.8553268 94.7163908,84.3440083 93.8276182,84.0622527 L93.8276182,76.3571491 L106.199108,76.3571491 C106.80851,76.3571491 107.512237,76.4719306 108.739519,77.4901122 C109.96786,76.4719306 110.671587,76.3571491 111.280989,76.3571491 L123.655557,76.3571491 L123.655552,84.1161427 C122.253399,84.5478992 118.973228,84.8777103 118.973228,88.4547123 L118.973228,101.413349 C118.973228,103.162122 120.086048,103.968881 120.086048,103.968881 L122.463245,105.887492 L120.047894,107.97626 C120.047894,107.97626 118.973228,108.750664 118.973228,110.502089 L118.973228,123.382648 C118.973228,127.337411 123.660852,127.72143 123.655552,127.72143 Z M51.8058209,16.1967042 C51.8058209,17.3064352 50.968662,18.195302 49.9233526,18.195302 L49.9129663,18.195302 C48.8767714,18.195302 48.0313458,17.3064352 48.0313458,16.2074186 C48.0313458,15.0869732 48.8767714,14.2088208 49.9233526,14.2088208 C50.968662,14.1968334 51.8058209,15.0869732 51.8058209,16.1967042 Z M52.2334619,16.2074186 C52.2334619,14.8780964 51.2088192,13.8425173 49.9129663,13.8425173 C48.6274996,13.8425173 47.5809185,14.8780964 47.5809185,16.2074186 C47.5809185,17.5152059 48.6274996,18.5631967 49.9129663,18.5631967 L49.9233526,18.5631967 C51.2088192,18.5631967 52.2334619,17.5152059 52.2334619,16.2074186 Z M50.4159611,16.7408023 C50.4159611,16.9719565 50.2462825,17.202368 49.7772022,17.202368 C49.6405902,17.202368 49.5465834,17.190805 49.4749389,17.1799846 L49.4749389,16.2911178 L49.7772022,16.2911178 C50.1220705,16.2911178 50.4159611,16.4175684 50.4159611,16.7408023 Z M50.7803304,15.4847833 C50.84445,15.0774258 50.9052842,14.9203173 50.9488432,14.8366181 L50.5078483,14.8366181 C50.4450004,14.9203173 50.3828945,15.1615494 50.3310688,15.5063181 C50.2669492,15.841115 50.1012979,15.9675656 49.765968,15.9675656 L49.4749389,15.9675656 L49.4749389,14.8366181 L49.0539748,14.8366181 L49.0539748,17.4642862 C49.2742073,17.4953684 49.4844774,17.526875 49.7978688,17.526875 C50.1953047,17.526875 50.4574004,17.4410541 50.6126654,17.3288186 C50.769944,17.2131885 50.8548363,17.0336966 50.8548363,16.7821745 C50.8548363,16.4386788 50.6237936,16.2293777 50.3414552,16.1436629 L50.3414552,16.123295 C50.5733457,16.0823471 50.7285047,15.8730459 50.7803304,15.4847833 Z M128.768168,93.5077488 C129.492031,94.3179022 132.003826,95.981597 132.47333,98.370579 C131.595792,99.2772677 127.563142,101.296127 123.179689,102.416254 L122.12092,101.413349 L122.11986,89.5242379 C124.78851,89.8922387 125.112817,91.495042 126.33586,91.63104 C127.940441,91.8083042 128.768168,93.5077488 128.768168,93.5077488 Z M180.095688,93.5140077 C179.840269,96.4304328 177.502286,96.9608462 177.623107,98.903008 C177.894423,100.156587 177.04444,101.389374 176.224132,101.74072 C175.62003,104.97709 175.208816,106.666139 174.954457,107.870177 C175.915722,112.091207 174.31962,114.941649 175.890286,115.509191 C179.195893,116.7005 180.946731,120.3699 180.946731,120.3699 C180.946731,120.3699 176.986149,118.79139 174.520987,120.743311 C172.239175,122.554142 170.933466,122.284692 170.933466,122.284692 C171.074423,126.552399 167.767756,127.324681 169.17415,132.518489 C166.837227,131.328241 166.309432,126.932175 166.309432,126.932175 C166.07097,140.008987 161.204235,142.874281 161.204235,142.874281 C161.375928,138.204521 158.127552,137.444969 158.127552,137.444969 C157.180064,139.151839 158.336338,145.495584 166.07415,145.867934 C166.07415,145.867934 158.01309,151.612311 153.128338,146.425929 C153.836304,150.385995 153.4908,152.194705 152.025056,153.514374 C152.387518,151.361956 148.947313,150.50693 148.947313,150.50693 C148.65268,153.293722 149.435894,157.922109 157.14403,159.517593 C155.454663,160.743909 147.921398,161.435568 144.183381,158.134275 C143.605774,160.597515 145.503928,162.389251 145.503928,162.389251 C141.192543,160.978351 141.302766,158.536328 139.737398,159.887821 C138.170971,161.238254 137.118561,160.968804 137.118561,160.968804 C137.688749,159.756279 138.30345,156.388154 133.999484,155.278529 C131.575655,154.65158 133.325433,158.177769 134.498663,158.837603 C129.733672,158.177769 125.601399,153.308573 124.028612,149.311378 C122.074288,148.806424 118.831211,149.067388 117.789399,149.436555 C115.720612,150.168526 112.261331,151.028856 109.41145,150.777441 C106.089946,150.483591 105.944008,151.688691 106.182151,152.368681 C106.419553,153.048671 106.052852,154.055395 104.58732,154.030996 C103.664103,154.014023 103.289454,154.896631 101.44302,154.999531 C97.2397377,155.232913 95.1978711,153.80504 94.4403053,153.80504 C93.4143908,153.80504 91.9853174,154.478665 91.1572729,155.29338 C90.1955841,156.24282 84.9026919,158.83442 83.4155398,160.271841 C82.1073928,161.535286 80.9552527,159.964201 79.3655091,161.555441 C76.868234,164.054749 72.4881725,166.353561 70.4947401,167.252081 C69.4689316,167.713541 67.2105419,169.35464 67.0594103,170.27862 C66.3908701,174.377655 64.3001454,173.350775 64.0455745,175.222073 C63.9515676,175.919037 64.903718,175.992234 65.9574001,176.083465 C66.5555676,176.135445 68.0356188,176.390044 67.7851812,178.146773 C67.6941419,178.788573 68.2351846,179.880164 68.2351846,179.880164 C69.0196701,180.0796 68.9878752,180.1825 69.1679402,181.458674 C69.3914581,183.045671 71.6995538,181.997574 73.1505657,181.538236 C76.7420083,180.403152 76.8102613,180.878402 77.0284801,181.74828 C78.5437177,187.785446 68.9679504,190.494797 68.9049966,190.501162 C68.9049966,190.501162 69.255694,193.258251 69.1824598,194.41137 C69.1294684,195.238815 68.604853,196.007915 66.5418958,196.173404 C64.1834582,196.360109 62.257113,198.81168 57.0689319,196.162795 C56.1084089,195.672693 55.9759302,191.486671 55.2440123,190.614671 C48.408115,190.071528 46.213951,185.947033 46.821233,184.842712 C47.3254997,183.925097 51.2262004,184.14787 52.4061081,184.154235 C54.0819098,184.162722 53.4588363,183.008542 53.962679,182.18428 C54.4656739,181.360018 54.1481491,180.480592 53.7867474,179.966091 C50.2069628,180.09339 49.9398859,182.370986 47.2633937,181.688874 C46.0202142,181.371687 44.5484297,181.666596 42.9152331,182.306275 C41.390881,182.905642 35.1270795,182.796377 34.5847649,178.512758 C38.7786144,180.510295 40.1779067,177.891114 40.1779067,177.891114 C40.1779067,177.891114 38.4378794,177.406316 38.1616879,176.02618 C40.0772229,177.085946 41.7241972,176.515221 42.4424434,176.408078 C46.2159647,175.839475 46.8618245,178.113887 48.3219509,178.060846 C50.7169526,177.973858 52.0554107,177.551649 52.0554107,177.551649 C50.4064227,175.98693 48.073633,176.701927 47.1958826,175.80765 C46.8908638,175.495767 46.7769322,174.72985 46.213951,173.714638 C45.8102621,172.986911 44.2337664,173.146035 43.5353391,170.787817 C42.9482998,168.807254 38.1410213,167.190553 35.0877598,162.775392 C32.0333325,158.360231 31.7572471,161.574536 27.157695,152.238199 C25.9012677,149.687971 23.3323481,150.678784 22.701008,148.340721 C21.361808,143.369687 17.7545739,145.612275 16.9328885,138.659616 C16.880215,138.217251 16.5954389,136.980327 16.737456,136.299276 C16.8782013,135.619286 16.855415,133.586742 17.8435996,133.919841 C20.1487277,134.696366 19.9769294,138.111168 21.6109738,138.232102 C22.4803516,138.296813 22.3719311,136.456278 23.5186661,136.605855 C25.1498489,136.820142 23.7471652,138.259684 25.9269156,140.938272 C27.0873224,142.366145 25.6673635,144.706329 26.916372,145.312061 C31.2189599,147.400829 30.784324,149.933022 31.3535582,150.138823 C33.9616915,151.081898 34.9719205,151.964506 38.2361939,155.296563 C40.5442896,157.65372 45.7522895,159.318157 46.1477117,159.304367 C46.7603988,159.279968 47.0585287,159.069924 47.373086,158.690148 C47.6864774,158.312494 51.5089628,153.21416 51.8463064,151.407572 C52.1245115,149.913927 53.2353183,149.116186 53.86952,147.539797 C54.6843166,145.508314 55.6075337,144.992752 56.5431507,144.912129 C58.1431746,144.773161 59.975937,146.024936 61.9913079,144.010426 C62.560542,143.43864 62.6495677,142.525269 64.4616633,142.00122 C66.2728052,141.477172 66.6032599,140.562739 66.8578308,139.993075 C67.0884496,139.476452 67.7520086,138.968316 67.9122547,138.060248 C67.1256496,138.386983 66.1734992,138.627791 64.9886103,138.627791 L40.0495614,138.627791 L40.0495614,126.038959 L44.2565527,124.187816 C44.7007271,124.007475 44.7359134,123.748633 44.7359134,123.382648 L44.7317801,110.502089 L40.0089699,105.887492 L44.7317801,101.413349 L44.7359134,88.4547123 C44.7359134,87.8492984 44.4490177,87.6984488 44.3331784,87.6623807 L41.2708024,85.958905 C35.4280709,88.2384097 28.2444437,99.2564755 16.2737808,95.5457032 C9.58772215,93.4738023 5.76655097,86.9347596 5.69202379,83.2409605 C8.01122647,86.0711405 11.3293604,86.1813604 11.3293604,86.1813604 C11.3293604,86.1813604 0.573797798,78.1149392 2.74727822,68.4572777 C3.79592606,71.6290439 6.64007265,73.0305022 6.64007265,73.0305022 C6.64007265,73.0305022 -0.286071172,58.0939542 13.7173672,51.9370213 C9.72310471,57.9339815 11.8034219,61.7625056 11.8034219,61.7625056 C11.8034219,61.7625056 12.4202424,57.8789246 16.1702355,56.6005222 C13.8663791,65.3958375 16.0551381,72.6292975 27.9732335,74.2707149 C26.7146865,73.3018617 26.2787788,71.4603724 26.2787788,71.4603724 C26.2787788,71.4603724 30.8347719,75.0493618 38.663517,73.0487484 C42.1568195,72.156487 45.866963,73.1270374 45.866963,73.1270374 C46.2189322,70.3286823 47.9266347,65.416948 55.9138242,57.8498579 C59.7598378,54.204963 54.3861867,48.9380638 50.3269355,45.9147073 C44.6220878,41.6660958 47.8306142,39.3384296 49.2650928,37.0174465 C50.7004192,34.6973121 55.5287884,26.2662847 55.7656601,24.8009646 C57.0821798,16.6836237 60.7223746,18.6726741 59.746166,16.0367315 C59.3260498,14.9046171 58.5518447,14.708152 58.2860396,13.9117893 C58.0210823,13.1148961 57.4911678,10.4586706 56.9599815,9.52920595 C58.1535609,7.66986292 63.0622651,3.55501108 65.8497214,2.62430526 C66.6611265,4.47784557 68.3697829,10.591274 66.5121146,13.6453096 C64.6554001,16.700597 66.1643847,18.4521282 65.4511197,20.6848504 C64.8126787,22.6825995 62.5316087,26.6607002 60.3796258,30.3735941 C58.1535609,34.2116656 59.1678173,40.4229128 60.6747882,41.4000405 C62.6826343,42.7015689 69.5632564,49.2339284 73.2776392,52.9535056 C73.5425965,47.3754659 71.2884461,42.461716 70.4927264,39.6728022 C69.0900427,34.7644625 74.593311,35.7552748 77.494169,36.4774857 C81.0516971,37.3655038 97.1043976,43.0587493 101.801984,40.2040643 C104.46809,38.5854547 106.255279,40.1618434 105.075796,35.2894657 C105.475351,34.3599692 106.733262,31.2521709 106.733262,31.2521709 C110.540168,30.6144018 117.313536,30.3864301 118.256783,32.8027815 C116.242048,36.3524142 113.972954,39.2708549 110.7161,40.9661623 C109.418869,43.0558851 106.402596,48.5008971 101.365228,47.7529081 C93.6876148,46.6137922 85.5173927,43.7877495 84.4277825,47.0572178 C83.767509,49.0408579 86.5504081,51.4438429 88.0461448,54.1932939 C89.5012901,56.8685931 93.9393241,62.040124 93.7601071,73.208615 L120.190971,73.208615 C118.974288,71.0073993 118.103108,68.430757 118.642561,65.6630598 C122.895655,65.9473614 126.33586,68.6015501 127.679723,69.5562943 C128.418424,72.3790484 130.776544,71.5465115 132.72239,73.7233282 C136.271757,72.6177345 141.573022,79.9026446 144.580817,83.0266735 C148.707791,87.3143234 150.559312,86.0098247 151.38068,93.2690627 C151.906355,97.9251378 146.181159,101.328483 144.338116,103.883166 C145.755107,107.857447 144.733432,109.094371 142.066902,109.987588 C139.403552,110.880804 138.158253,110.96567 138.2388,112.116667 C138.398834,114.417601 138.3628,116.72596 140.411449,117.117405 C144.000031,113.982662 152.279415,105.445339 154.265535,103.883166 C157.047586,97.0499557 161.014526,100.048807 164.118765,93.3610364 C163.265603,91.1333001 162.78868,88.3975337 165.896098,87.9827504 C167.695688,87.7432157 167.410594,87.0980209 168.024235,86.705621 C170.35162,85.2130376 170.837021,87.692296 170.993876,88.3001498 C171.03309,88.4505751 171.83856,88.4505751 171.943483,88.3921235 C172.485056,87.4514884 173.895688,86.4817865 175.156885,86.3682781 C176.4255,86.2534966 178.051278,88.7668076 178.316235,89.4554963 C178.874765,90.8991756 180.314013,91.0156544 180.095688,93.5140077 Z M182.206867,93.6996524 C182.428372,91.1697925 181.351585,89.9602377 180.707209,89.2399363 C180.474047,88.9781243 180.348987,88.8334275 180.293876,88.6892611 C180.276919,88.6470402 178.279141,84.2424872 175.241671,84.2424872 L174.967175,84.2548988 C173.94232,84.3472969 172.872953,84.770885 171.95938,85.3965607 C171.0935,84.3187606 170.030491,84.112748 169.334184,84.112748 C168.540372,84.112748 167.714765,84.384638 166.87962,84.9191886 C166.400577,85.2266162 166.116543,85.5876156 165.94909,85.8208914 C164.939073,85.9365215 163.031381,86.3132212 161.996987,88.0560536 C161.213774,89.3759343 161.154423,91.0686957 161.823175,93.2127328 C160.709295,95.261826 159.558321,95.8876077 158.13921,96.6591471 C156.371415,97.6217414 154.190287,98.8077458 152.515757,102.580683 C151.365842,103.576481 149.343689,105.555984 147.011005,107.848961 C147.191176,106.86027 147.093672,105.727095 146.714253,104.360538 C147.10215,103.954453 147.576954,103.504769 148.065535,103.039808 C150.562492,100.667481 153.98256,97.4186991 153.48762,93.0303767 C152.834765,87.2699809 151.403996,85.9161537 148.930355,84.0174858 C148.118526,83.3946743 147.199654,82.6901792 146.108031,81.5552006 C145.539962,80.965487 144.888167,80.2217413 144.181261,79.4165737 C140.90533,75.6858579 137.24468,71.4541135 133.442014,71.4881661 C132.567655,70.7815493 131.697535,70.4111086 131.017125,70.1193812 C129.966834,69.6719244 129.882048,69.6010612 129.730492,69.018349 L129.534424,68.2724817 L128.647347,67.6392741 C127.071381,66.5064171 123.381057,63.8535014 118.783518,63.5468163 L116.919279,63.4217448 L116.562117,65.2565509 C116.192236,67.1544762 116.320476,69.0822108 116.957433,71.0869613 L95.8582506,71.0869613 C95.5381822,62.2738241 92.3980148,57.2241823 90.6522644,54.4171284 C90.3603875,53.9484551 90.1036969,53.5389759 89.9078405,53.1793556 C89.3489926,52.1512022 88.6492935,51.1911539 88.0316251,50.3436594 C87.4797722,49.5853804 86.5834748,48.3546091 86.4613825,47.8039338 C86.6302132,47.7434667 87.0091021,47.6522356 87.7501346,47.6522356 C89.5787636,47.6522356 92.2780421,48.1943181 95.136613,48.7682254 C97.0629583,49.1556394 99.054271,49.5555711 101.054698,49.8526026 C101.469939,49.9131758 101.88889,49.9458493 102.299997,49.9458493 C107.6161,49.9458493 110.816784,44.8580177 112.227416,42.5574025 C118.240886,39.3927439 120.597946,32.971453 120.597946,32.971453 C120.597946,32.971453 119.539176,28.7027918 111.89569,28.7027918 C110.122596,28.7027918 108.11316,28.8701903 106.383519,29.1590535 L105.214527,29.3550943 L104.769505,30.4552778 C104.768233,30.4572933 103.524206,33.5316756 103.128784,34.4503517 L102.849413,35.1018054 L103.01623,35.7892212 C103.197143,36.5392258 103.274934,37.0174465 103.306835,37.3145841 C103.283201,37.3220099 103.26052,37.3282688 103.237734,37.3348459 C102.591874,37.5234609 101.705963,37.7811358 100.702835,38.3903686 C100.403857,38.5718761 99.6388727,38.8760152 97.876483,38.8760152 C92.9693686,38.8760152 85.1116902,36.517691 80.8901792,35.251382 C79.6357655,34.8759554 78.6339091,34.5755292 78.0067023,34.4196938 C76.210822,33.9717066 74.7340563,33.7545553 73.4921486,33.7545553 C71.4200768,33.7545553 69.9048393,34.3707896 68.9886171,35.5874519 C68.0894581,36.7800335 67.910241,38.3510119 68.4545692,40.256257 C68.6306068,40.8737643 68.8739436,41.590671 69.1472735,42.3928683 C69.6344769,43.822969 70.2173829,45.5305819 70.6334717,47.4073968 C67.3981316,44.311904 63.6129523,40.8261331 61.9424497,39.6960343 C61.2987096,38.784784 60.5327711,34.3334485 62.2128121,31.4378156 C64.6851813,27.1741404 66.7861864,23.4707939 67.470518,21.3308939 C67.8783402,20.0517489 67.7871949,18.9079654 67.7135368,17.9884407 C67.6216496,16.8406261 67.5554103,16.0102108 68.3233624,14.7476147 C70.8081316,10.6613097 68.5353282,3.4742079 67.7914342,1.77357518 L67.0139436,0 L65.1790616,0.612047228 C61.7789181,1.74621645 56.5397593,6.25763719 55.1769251,8.38260065 L54.4814653,9.46581094 L55.1198003,10.5829889 C55.3413046,10.9782848 55.723373,12.4933577 55.9064054,13.2222518 C56.0512841,13.8002964 56.1796294,14.2967633 56.274802,14.5822318 C56.5514174,15.4106315 57.0469934,15.923223 57.3752225,16.2625816 C57.4581011,16.3475538 57.5201011,16.4121581 57.5698071,16.4693367 C56.4230721,17.4058346 54.5290516,19.1872812 53.6729217,24.4603331 C53.3458585,25.6922713 49.2008671,33.0915386 47.4629595,35.9007141 C47.279927,36.1965787 47.0626621,36.4903217 46.8431715,36.7915965 C45.4356125,38.7214527 42.506563,42.7356214 49.0622415,47.6161675 C52.6896124,50.3179874 55.0079884,53.0931104 55.1128055,54.8575837 C55.1354858,55.246695 55.0754995,55.7232184 54.4565593,56.3096435 C48.8344842,61.6353124 45.4633801,66.3629933 44.2163852,70.6884087 C43.5436057,70.6095893 42.754987,70.5503951 41.9042622,70.5503951 C40.5566896,70.5503951 39.2907238,70.6986987 38.1397495,70.9937147 C36.735476,71.3514255 35.3507034,71.5325086 34.0237974,71.5325086 C29.9405941,71.5325086 26.1814865,69.540488 22.8790593,66.2349515 C22.8790593,69.2297718 24.0403139,71.1964387 24.0403139,71.1964387 C21.6722319,70.3701606 19.9447106,69.154347 18.8840337,67.5631067 C17.2660987,65.1401782 17.0437466,61.6319178 18.2203688,57.1383614 L19.2213773,53.3181118 C19.2213773,53.3181118 15.9260509,53.899551 14.3681022,55.0610503 C15.9910184,50.9760183 19.5017021,47.0763127 19.5017021,47.0763127 C19.5017021,47.0763127 1.45146766,51.3664025 2.71746523,63.7420085 C2.71746523,63.7420085 -3.9023223,70.9523424 3.52269154,80.7915114 L3.57236572,83.2831814 C3.66220743,87.7336683 7.90897416,95.1748382 15.646574,97.5719886 C17.4702218,98.1376215 19.3029841,98.424469 21.0947311,98.424469 C27.8416027,98.424469 32.9068436,94.4848764 36.9764811,91.3189448 C38.4887512,90.1437608 39.9314964,89.0216182 41.1859101,88.3390822 L42.6162553,89.1347023 L42.612122,100.499658 L36.9507273,105.863942 L42.612122,111.396366 L42.6162553,122.592332 L37.9299033,124.65458 L37.9299033,140.749444 L62.1196531,140.749444 C61.3960019,141.234242 60.9707985,141.79648 60.6209489,142.319468 C60.5720908,142.391604 60.5299096,142.463741 60.4769181,142.526329 C59.99459,143.006884 59.6646652,143.048256 59.3425831,143.048256 C59.0485866,143.048256 58.7008567,142.994154 58.3316122,142.934748 C57.7519917,142.842456 57.0481593,142.736373 56.3596943,142.798962 C54.3572533,142.971877 52.8987166,144.263964 51.9022654,146.749481 C51.712662,147.220488 51.4406038,147.62042 51.1267885,148.084001 C50.6250654,148.820215 50.0007201,149.73783 49.7626825,151.018248 C49.5391646,152.02073 46.9847646,155.721954 45.9477219,157.074509 C44.5558485,156.641691 41.2199306,155.312475 39.7502657,153.811405 C36.778929,150.777441 35.4467239,149.505509 32.8655103,148.447865 C32.4485735,147.345666 31.4984368,145.38844 28.4928677,143.739915 C28.497001,143.673083 28.5011343,143.608373 28.5052677,143.551088 C28.571507,142.516782 28.6716608,140.953123 27.5716643,139.599508 C26.810813,138.66492 26.7031344,138.045397 26.5988472,137.444969 C26.4733634,136.725728 26.1401532,134.810936 23.7948575,134.502235 C22.8728063,134.386605 22.2029943,134.645447 21.7032849,135.013554 C21.1485704,133.885895 20.2853397,132.503637 18.5205124,131.908514 C18.2299072,131.811978 17.9326252,131.762119 17.6378867,131.762119 C15.1340406,131.762119 14.8111107,134.592405 14.7055518,135.522751 C14.6890184,135.658536 14.6786321,135.781592 14.6612509,135.873884 C14.4853193,136.71512 14.6165261,137.646526 14.7792099,138.606574 C14.7999825,138.730691 14.8193774,138.835713 14.8276441,138.911031 C15.3505637,143.326193 16.9133876,144.847418 18.7515551,146.250892 C19.6871722,146.964829 20.2510012,147.395525 20.6546901,148.892351 C21.2445909,151.077655 22.9068268,151.76507 23.8995686,152.176671 C24.7055686,152.509771 24.9987173,152.651922 25.2562558,153.177031 C28.1397326,159.029613 29.4656847,160.331247 31.1598214,161.647733 C31.8200949,162.160113 32.3906009,162.603538 33.344871,163.983674 C35.2119718,166.683478 37.6462931,168.441268 39.4232024,169.723808 C40.2304742,170.307263 41.3370417,171.106065 41.5283408,171.45826 C41.9277904,172.81824 42.5914553,173.655232 43.2331818,174.202619 C42.8759135,174.21641 42.5053972,174.252478 42.1277801,174.309762 C41.9974212,174.329918 41.8421562,174.359621 41.6662246,174.394628 C41.341175,174.461461 40.9735203,174.535718 40.5794759,174.535718 C40.0814622,174.535718 39.6384537,174.420088 39.1871785,174.169733 L35.1850521,171.954727 L36.0834692,176.444146 C36.1145222,176.597966 36.1538418,176.747542 36.1994145,176.890754 C35.9737769,176.811192 35.7386008,176.712535 35.495582,176.596905 L31.9940129,174.929285 L32.4816402,178.779026 C33.0343411,183.142207 37.3937358,184.691014 40.9602725,184.691014 C41.5904468,184.691014 42.7827545,184.636912 43.6893322,184.280474 C44.1406074,184.104377 44.5579681,183.966469 44.9388707,183.867812 C44.4068365,184.877719 44.5062485,186.163441 45.2212091,187.492657 C45.767657,188.507869 47.9237732,191.696714 53.7122414,192.574018 C53.7838858,192.898631 53.8550004,193.260373 53.912973,193.548918 C54.3125286,195.568732 54.6573969,197.313792 56.1063952,198.053189 C58.023202,199.031271 59.7669387,199.507582 61.438607,199.507582 C63.0789044,199.507582 64.3220839,199.053548 65.3206548,198.690746 C65.8683744,198.490249 66.3403163,198.318395 66.7088188,198.289753 C70.6549863,197.972566 71.2324871,195.566611 71.2978786,194.547156 C71.3414375,193.865044 71.2751982,192.836042 71.1944392,191.944948 C73.2300529,191.142963 76.2460084,189.595216 77.9445963,187.178653 C79.2135296,185.374186 79.6076801,183.317243 79.0839126,181.230597 C78.5685177,179.173653 77.1650921,178.749323 76.0774955,178.749323 C75.2681041,178.749323 74.2351947,178.971035 72.5129725,179.514179 C72.3027025,179.581011 72.0791845,179.65739 71.8464461,179.736952 C71.6279093,179.813332 71.3421794,179.910928 71.0660939,179.995794 C70.904682,179.369906 70.601147,178.751444 69.9027196,178.300593 C70.0588324,176.918336 69.5881624,175.98693 69.156282,175.443786 C68.8574102,175.067193 68.3841966,174.633315 67.6609692,174.329918 C68.2703709,173.585218 68.8035709,172.531817 69.106682,170.879048 C69.4846171,170.411224 70.7170922,169.478757 71.3649657,169.18703 C71.9934444,168.902728 77.5955946,166.32704 80.8641074,163.05545 C80.9813245,162.938759 81.0421587,162.909056 81.0475638,162.905874 C81.0516971,162.906935 81.2980014,162.905874 81.4821997,162.915421 C81.6685176,162.92603 81.8527159,162.935577 82.0370202,162.935577 C83.1630885,162.935577 84.0953141,162.563227 84.8873244,161.798371 C85.5166509,161.190517 87.5356252,160.020425 89.0106952,159.166459 C90.9316353,158.053652 92.0474233,157.394878 92.6455908,156.803998 C93.109266,156.346781 93.8945994,156.003074 94.3139737,155.938363 C94.4216523,155.97337 94.547878,156.022168 94.6948763,156.07521 C95.8541173,156.491054 98.112401,157.30683 101.559813,157.118003 C103.083317,157.033136 103.998162,156.538791 104.543867,156.243881 C104.603854,156.210996 104.659813,156.17811 104.714394,156.150528 C106.495861,156.102791 107.381878,155.213818 107.761296,154.67704 C108.144955,154.13814 108.350561,153.502705 108.367519,152.8556 C108.611279,152.847114 108.902732,152.863026 109.223861,152.891668 C109.631895,152.927737 110.046288,152.94471 110.46916,152.94471 C113.966595,152.94471 117.497946,151.79053 118.496305,151.437275 C118.767621,151.34074 119.904818,151.152973 121.306971,151.152973 C121.7521,151.152973 122.171792,151.172068 122.544852,151.209197 C124.694185,155.693312 129.157125,160.240016 134.20721,160.940162 L134.754082,161.01548 L134.108646,162.38819 C134.108646,162.38819 137.9908,164.186292 140.512133,161.975529 C143.904646,165.370175 152.228543,165.822087 152.228543,165.822087 L148.538219,162.338331 C157.417466,164.368754 161.829534,158.735763 161.829534,158.735763 C161.829534,158.735763 154.892953,157.118003 152.965124,155.521458 L153.443107,155.090762 C154.875996,153.799736 155.4748,152.218043 155.581842,150.343562 C156.429705,150.590735 157.3295,150.715913 158.269569,150.715913 C162.871346,150.715913 167.12444,147.72332 167.303551,147.59496 L172.290047,144.042251 L166.174833,143.747341 C165.307893,143.705969 164.516201,143.573365 163.809295,143.355896 C165.07897,141.915293 166.798013,139.144413 167.74444,134.137311 C169.573705,135.969359 172.470218,136.575091 172.470218,136.575091 C172.470218,136.575091 170.197944,131.888358 171.766491,127.391513 C172.091859,126.456924 172.700201,125.456565 172.930184,124.088098 C173.750491,123.800614 174.726594,123.287174 175.838355,122.406688 C176.270765,122.06298 176.897124,121.889004 177.696235,121.889004 C181.25832,121.889004 185.152132,124.275864 185.152132,124.275864 C185.152132,124.275864 182.983722,115.925036 177.279722,113.787469 C177.288201,113.523324 177.741808,110.31114 177.121808,107.878664 C177.121808,107.878664 177.763004,104.977939 178.145602,102.986767 C179.228748,102.022582 179.995004,100.430068 179.747004,98.7447327 C179.807414,98.5934587 180.078731,98.2607834 180.261021,98.036949 C180.960508,97.1812861 182.016098,95.8883503 182.206867,93.6996524 Z M149.347928,116.643215 C147.837672,117.286076 145.996748,118.032898 142.940202,118.175049 C143.825159,117.317901 152.875039,108.514099 153.608441,108.199034 C152.510458,112.751042 154.91415,114.27545 149.347928,116.643215 Z M129.480373,86.0608504 C129.480373,86.0608504 128.431142,83.9752649 126.804305,82.4399302 L126.804305,77.8348809 C127.316202,77.8564157 127.6988,77.8232118 127.955279,77.7966911 C127.955279,77.7966911 129.534424,80.9464982 133.022321,81.3082401 C134.297296,82.7295359 140.791928,85.3617656 142.552304,87.6997218 C143.551723,89.0224668 143.441501,91.0815317 142.57774,93.1045285 C141.974697,94.5179742 139.964202,95.0525248 138.020475,95.5609791 C131.549159,89.4711966 133.173877,87.2156665 129.480373,86.0608504 Z M82.3495638,145.200674 C83.8896013,146.134201 87.9985585,148.27495 92.0813379,148.1084 C91.6706541,148.9804 89.9277653,149.956361 89.1585414,149.75056 C88.2344764,149.956361 87.6300559,150.964146 87.1581141,151.034161 C83.6101244,151.557148 83.1754885,152.719814 81.0165108,153.065644 C79.6967057,153.276749 77.8266374,153.80504 77.8266374,153.80504 C79.8457177,149.35275 75.8216528,149.733587 82.3495638,145.200674 Z" id="path18" fill="#FFFFFF"></path>
                    </g>
                </g>
            </g>
        </g>
    </g>
</svg>