<svg width="200" height="200" xmlns="http://www.w3.org/2000/svg"><g fill="none"><path d="M149.452 82.926c3.056.142 4.897.889 6.408 1.532 5.566 2.367 3.162 3.892 4.26 8.444-.733-.315-9.783-9.119-10.668-9.976zm-.363 25.07c.864 2.023.974 4.082-.025 5.405-1.76 2.338-8.255 4.97-9.53 6.392-3.488.361-5.067 3.511-5.067 3.511a7.622 7.622 0 0 0-1.151-.038v-4.605c1.627-1.535 2.676-3.62 2.676-3.62 3.694-1.156 2.069-3.411 8.54-9.501 1.944.508 3.954 1.043 4.557 2.456zm-20.458 3.58l.002-11.888 1.058-1.003c4.384 1.12 8.416 3.139 9.294 4.045-.47 2.39-2.981 4.053-3.705 4.863 0 0-.828 1.7-2.433 1.877-1.223.136-1.547 1.739-4.216 2.107zm1.536 13.168h-12.374c-.61 0-1.314-.115-2.542-1.133-1.227 1.018-1.93 1.133-2.54 1.133h-12.372v-7.705c.889-.282 4.685-.793 4.685-4.393V93.403L89.94 114.708 74.854 93.403v19.243c0 3.6 3.796 4.11 4.686 4.393v7.705H67.166c-.609 0-1.312-.115-2.54-1.133-1.229 1.018-1.933 1.133-2.542 1.133H49.708v-7.76c1.403-.43 4.684-.76 4.684-4.338l-.002-12.958c0-1.748-1.11-2.556-1.11-2.556l-2.38-1.919 2.415-2.088s1.075-.778 1.075-2.526l.002-12.88c0-3.955-4.687-4.34-4.684-4.34v-7.758l10.784.013c.783.082 1.515.448 2.171.95 1.476-.986 2.437-.963 2.437-.963h6.357c1.954.019 2.732.88 3.24 1.528L89.94 88.678l15.24-21.529c.27-.346.617-.75 1.177-1.056.491-.27 1.148-.463 2.063-.472h6.357s.963-.023 2.435.963c.788-.602 1.227-.825 2.428-.95l10.527-.013v7.759c.005 0-4.682.384-4.682 4.338v12.88c0 1.752 1.075 2.527 1.075 2.527l2.415 2.088-2.377 1.92s-1.113.806-1.113 2.555v12.958c0 3.577 3.28 3.907 4.682 4.339v7.759zM87.528 48.035c2.16.346 2.594 1.509 6.142 2.032.472.07 1.076 1.078 2 1.283.77-.205 2.512.77 2.923 1.643-4.083-.167-8.192 1.974-9.732 2.907-6.528-4.533-2.504-4.152-4.523-8.604 0 0 1.87.528 3.19.74zm96.607 54.163c.271-1.254-.579-2.486-1.4-2.838-.603-3.236-1.015-4.925-1.269-6.13.961-4.22-.635-7.07.936-7.638 3.306-1.192 5.056-4.861 5.056-4.861s-3.96 1.579-6.425-.373c-2.282-1.811-3.588-1.542-3.588-1.542.141-4.267-3.166-5.04-1.76-10.234-2.336 1.19-2.864 5.587-2.864 5.587-.238-13.077-5.105-15.942-5.105-15.942.172 4.67-3.077 5.429-3.077 5.429-.947-1.707.209-8.05 7.947-8.423 0 0-8.061-5.744-12.946-.558.708-3.96.362-5.769-1.103-7.088.362 2.152-3.078 3.007-3.078 3.007-.295-2.787.489-7.415 8.197-9.01-1.69-1.227-9.223-1.919-12.961 1.383-.578-2.464 1.32-4.255 1.32-4.255-4.31 1.41-4.2 3.853-5.766 2.501-1.566-1.35-2.619-1.08-2.619-1.08.57 1.212 1.185 4.58-3.119 5.69-2.424.626-.674-2.9.5-3.56-4.766.66-8.898 5.53-10.47 9.527-1.955.505-5.198.244-6.24-.126-2.069-.732-5.528-1.592-8.378-1.34-3.321.293-3.467-.912-3.23-1.592.238-.68-.129-1.686-1.594-1.662-.923.017-1.298-.866-3.144-.969-4.204-.233-6.246 1.195-7.003 1.195-1.026 0-2.455-.674-3.283-1.488-.962-.95-6.255-3.541-7.742-4.979-1.308-1.263-2.46.308-4.05-1.283-2.497-2.5-6.877-4.799-8.87-5.697-1.026-.462-3.285-2.103-3.436-3.027-.669-4.099-2.76-3.072-3.014-4.943-.094-.697.858-.77 1.912-.862.598-.051 2.078-.306 1.828-2.063-.091-.642.45-1.733.45-1.733.784-.2.753-.303.933-1.579.223-1.587 2.531-.539 3.982-.08 3.592 1.136 3.66.66 3.878-.21 1.515-6.036-8.06-8.746-8.123-8.752 0 0 .35-2.757.277-3.91-.053-.828-.578-1.597-2.64-1.762-2.359-.187-4.285-2.639-9.473.01-.961.49-1.093 4.676-1.825 5.548-6.836.543-9.03 4.668-8.423 5.772.504.918 4.405.695 5.585.689 1.676-.009 1.052 1.145 1.556 1.97.503.824.186 1.703-.176 2.218-3.58-.127-3.846-2.405-6.523-1.723-1.243.317-2.715.022-4.348-.617-1.524-.6-7.788-.49-8.33 3.793 4.193-1.997 5.593.622 5.593.622s-1.74.485-2.017 1.865c1.916-1.06 3.563-.49 4.281-.382 3.774.568 4.42-1.706 5.88-1.653 2.395.087 3.733.51 3.733.51-1.649 1.564-3.982.849-4.86 1.743-.305.312-.418 1.078-.981 2.093-.404.728-1.98.569-2.679 2.927-.587 1.98-5.394 3.597-8.448 8.013-3.054 4.415-3.33 1.2-7.93 10.537-1.256 2.55-3.825 1.56-4.456 3.897-1.34 4.971-4.947 2.729-5.768 9.681-.053.443-.338 1.68-.196 2.36.14.68.118 2.713 1.106 2.38 2.305-.776 2.134-4.191 3.768-4.312.869-.065.76 1.776 1.907 1.626 1.631-.214.229-1.654 2.409-4.332 1.16-1.428-.26-3.768.989-4.374 4.303-2.089 3.868-4.621 4.437-4.827 2.608-.943 3.619-1.826 6.883-5.158 2.308-2.357 7.516-4.021 7.911-4.007.613.024.911.234 1.226.614.313.377 4.136 5.476 4.473 7.282.278 1.494 1.389 2.292 2.023 3.868.815 2.032 1.738 2.547 2.674 2.628 1.6.139 3.433-1.113 5.448.902.57.571.658 1.485 2.47 2.009 1.811.524 2.142 1.438 2.396 2.008.231.516.895 1.025 1.055 1.933a7.478 7.478 0 0 0-2.924-.568H46.561v12.589l4.207 1.851c.444.18.48.44.48.805l-.005 12.88-4.722 4.615 4.722 4.475.005 12.958c0 .606-.287.757-.403.793l-3.063 1.703c-5.842-2.28-13.026-13.298-24.997-9.587-6.686 2.072-10.507 8.611-10.581 12.305 2.319-2.83 5.637-2.94 5.637-2.94s-10.756 8.066-8.582 17.724c1.049-3.172 3.893-4.574 3.893-4.574s-6.926 14.937 7.077 21.094c-3.994-5.997-1.914-9.826-1.914-9.826s.617 3.884 4.367 5.162c-2.304-8.795-.115-16.028 11.803-17.67-1.259.97-1.695 2.81-1.695 2.81s4.556-3.588 12.385-1.588c3.493.892 7.204-.078 7.204-.078.352 2.798 2.06 7.71 10.046 15.277 3.846 3.645-1.527 8.912-5.586 11.935-5.705 4.249-2.497 6.577-1.062 8.898 1.435 2.32 6.263 10.75 6.5 12.216 1.317 8.117 4.957 6.128 3.98 8.764-.42 1.132-1.194 1.329-1.46 2.125-.264.797-.794 3.453-1.325 4.383 1.193 1.86 6.102 5.974 8.89 6.905.81-1.854 2.52-7.967.662-11.021-1.857-3.056-.348-4.807-1.061-7.04-.639-1.998-2.92-5.976-5.072-9.689-2.226-3.838-1.212-10.049.295-11.026 2.008-1.302 8.889-7.834 12.603-11.554.265 5.578-1.989 10.492-2.785 13.281-1.402 4.908 4.1 3.918 7.002 3.195 3.557-.888 19.61-6.58 24.308-3.726 2.666 1.618 4.453.042 3.273 4.914.4.93 1.658 4.038 1.658 4.038 3.807.638 10.58.866 11.523-1.55-2.014-3.55-4.283-6.469-7.54-8.164-1.298-2.09-4.314-7.535-9.351-6.787-7.678 1.14-15.848 3.965-16.938.696-.66-1.984 2.123-4.387 3.619-7.136 1.455-2.676 5.893-7.847 5.714-19.016h26.43c-1.216 2.202-2.087 4.778-1.548 7.546 4.253-.284 7.693-2.939 9.037-3.893.74-2.823 3.097-1.99 5.043-4.167 3.55 1.105 8.85-6.18 11.858-9.304 4.127-4.287 5.979-2.983 6.8-10.242.526-4.656-5.2-8.06-7.042-10.614 1.417-3.974.395-5.211-2.271-6.105-2.664-.893-3.91-.978-3.829-2.129.16-2.3.124-4.609 2.173-5 3.589 3.134 11.868 11.672 13.854 13.234 2.782 6.833 6.75 3.834 9.853 10.522-.853 2.228-1.33 4.963 1.778 5.378 1.8.24 1.514.885 2.128 1.277 2.327 1.493 2.813-.986 2.97-1.594.039-.15.844-.15.95-.092.54.94 1.951 1.91 3.213 2.024 1.268.114 2.894-2.399 3.159-3.088.558-1.443 1.998-1.56 1.78-4.058-.256-2.916-2.594-3.447-2.473-5.39z" fill="#1C4F9C"/><path d="M122.919 77.718v12.88h.003c0 2.93 2.476 4.615 2.476 4.615s-2.476 1.545-2.476 4.472h-.003v12.961c0 5.119 4.686 6.326 4.686 6.326v3.205h-9.812c-.584 0-2.542-2.156-2.542-2.156s-1.956 2.156-2.54 2.156h-9.81v-3.205s4.687-1.207 4.687-6.326V85.342L89.94 110.268 72.29 85.342v27.304c0 5.119 4.684 6.326 4.684 6.326v3.205h-9.808c-.583 0-2.54-2.156-2.54-2.156s-1.958 2.156-2.542 2.156h-9.812v-3.205s4.687-1.207 4.687-6.326v-12.96l-.006.002c0-2.929-2.475-4.475-2.475-4.475s2.475-1.686 2.475-4.614h.006v-12.88c0-5.118-4.687-6.327-4.687-6.327v-3.204h7.96c.996.103 2.431 2.15 2.431 2.15s1.438-2.047 2.437-2.15h6.357c.532.006.822.06 1.147.445L89.94 93.116l17.332-24.483c.155-.182.3-.29.47-.355.186-.07.4-.087.678-.09h6.357c.999.103 2.435 2.15 2.435 2.15s1.437-2.047 2.435-2.15h7.958v3.204s-4.686 1.209-4.686 6.326" fill="#FCD006"/><path d="M122.919 77.718v12.88h.003c0 2.93 2.476 4.615 2.476 4.615s-2.476 1.545-2.476 4.472h-.003v12.961c0 5.119 4.686 6.326 4.686 6.326v3.205h-9.812c-.584 0-2.542-2.156-2.542-2.156s-1.956 2.156-2.54 2.156h-9.81v-3.205s4.687-1.207 4.687-6.326V85.342L89.94 110.268 72.29 85.342v27.304c0 5.119 4.684 6.326 4.684 6.326v3.205h-9.808c-.583 0-2.54-2.156-2.54-2.156s-1.958 2.156-2.542 2.156h-9.812v-3.205s4.687-1.207 4.687-6.326v-12.96l-.006.002c0-2.929-2.475-4.475-2.475-4.475s2.475-1.686 2.475-4.614h.006v-12.88c0-5.118-4.687-6.327-4.687-6.327v-3.204h7.96c.996.103 2.431 2.15 2.431 2.15s1.438-2.047 2.437-2.15h6.357c.532.006.822.06 1.147.445L89.94 93.116l17.332-24.483c.155-.182.3-.29.47-.355.186-.07.4-.087.678-.09h6.357c.999.103 2.435 2.15 2.435 2.15s1.437-2.047 2.435-2.15h7.958v3.204s-4.686 1.209-4.686 6.326zm7.248-4.338v-7.76l-10.527.014c-1.2.125-1.64.348-2.428.95-1.472-.986-2.435-.963-2.435-.963h-6.357c-.915.01-1.572.202-2.063.472-.56.306-.906.71-1.176 1.056L89.94 88.678 74.696 67.149c-.507-.648-1.285-1.51-3.24-1.528H65.1s-.96-.023-2.437.963c-.656-.502-1.388-.868-2.17-.95l-10.785-.013v7.759c-.003 0 4.684.384 4.684 4.338l-.002 12.88c0 1.75-1.075 2.527-1.075 2.527l-2.414 2.088 2.38 1.92s1.109.807 1.109 2.555l.002 12.958c0 3.577-3.281 3.907-4.684 4.339v7.759h12.376c.61 0 1.313-.115 2.542-1.133 1.228 1.018 1.931 1.133 2.54 1.133H79.54v-7.705c-.89-.282-4.686-.793-4.686-4.393V93.403l15.086 21.305 15.084-21.305v19.243c0 3.6-3.796 4.11-4.685 4.393v7.705h12.372c.61 0 1.313-.115 2.54-1.133 1.228 1.018 1.932 1.133 2.542 1.133h12.374v-7.76c-1.402-.43-4.682-.76-4.682-4.338V99.688c0-1.75 1.113-2.556 1.113-2.556l2.377-1.919-2.415-2.088s-1.075-.775-1.075-2.526v-12.88c0-3.955 4.687-4.34 4.682-4.34zm-71.85 111.524c0-1.11-.837-1.998-1.882-1.998h-.01c-1.037 0-1.882.889-1.882 1.988 0 1.12.845 1.998 1.892 1.998 1.045.012 1.882-.878 1.882-1.988zm.428-.01c0 1.329-1.025 2.364-2.32 2.364-1.286 0-2.332-1.035-2.332-2.364a2.341 2.341 0 0 1 2.332-2.356h.01c1.285 0 2.31 1.048 2.31 2.356zm-1.817-.534c0-.231-.17-.461-.64-.461-.136 0-.23.011-.301.022v.889h.302c.345 0 .639-.127.639-.45zm.364 1.256c.064.408.125.565.168.648h-.44c-.063-.083-.125-.325-.177-.67-.064-.334-.23-.46-.565-.46h-.291v1.13h-.421v-2.627c.22-.031.43-.063.743-.063.398 0 .66.086.815.198.158.116.242.295.242.547 0 .343-.23.553-.513.638v.02c.232.042.387.25.439.64zm77.988-78.023c.724-.81 3.235-2.474 3.705-4.863-.878-.906-4.91-2.925-9.294-4.045l-1.058 1.003-.002 11.889c2.67-.368 2.993-1.971 4.216-2.107 1.605-.177 2.433-1.877 2.433-1.877zm51.327-.006c-.255-2.916-2.593-3.447-2.472-5.39.271-1.253-.579-2.485-1.4-2.837-.603-3.236-1.015-4.925-1.269-6.13.961-4.22-.635-7.07.936-7.638 3.306-1.192 5.056-4.861 5.056-4.861s-3.96 1.579-6.425-.373c-2.282-1.811-3.588-1.542-3.588-1.542.141-4.267-3.166-5.04-1.76-10.234-2.336 1.19-2.864 5.587-2.864 5.587-.238-13.077-5.105-15.942-5.105-15.942.172 4.67-3.077 5.429-3.077 5.429-.947-1.707.209-8.05 7.947-8.423 0 0-8.061-5.744-12.946-.558.708-3.96.362-5.769-1.103-7.088.362 2.152-3.078 3.007-3.078 3.007-.295-2.787.489-7.415 8.197-9.01-1.69-1.227-9.223-1.919-12.961 1.383-.578-2.464 1.32-4.255 1.32-4.255-4.31 1.41-4.2 3.853-5.766 2.501-1.566-1.35-2.619-1.08-2.619-1.08.57 1.212 1.185 4.58-3.119 5.69-2.424.626-.674-2.9.5-3.56-4.766.66-8.898 5.53-10.47 9.527-1.955.505-5.198.244-6.24-.126-2.069-.732-5.528-1.592-8.378-1.34-3.321.293-3.467-.912-3.23-1.592.238-.68-.129-1.686-1.594-1.662-.923.017-1.298-.866-3.144-.969-4.204-.233-6.246 1.195-7.003 1.195-1.026 0-2.455-.674-3.283-1.488-.962-.95-6.255-3.541-7.742-4.979-1.308-1.263-2.46.308-4.05-1.283-2.497-2.5-6.877-4.799-8.87-5.697-1.026-.462-3.285-2.103-3.436-3.027-.669-4.099-2.76-3.072-3.014-4.943-.094-.697.858-.77 1.912-.862.598-.051 2.078-.306 1.828-2.063-.091-.642.45-1.733.45-1.733.784-.2.753-.303.933-1.579.223-1.587 2.531-.539 3.982-.08 3.592 1.136 3.66.66 3.878-.21 1.515-6.036-8.06-8.746-8.123-8.752 0 0 .35-2.757.277-3.91-.053-.828-.578-1.597-2.64-1.762-2.359-.187-4.285-2.639-9.473.01-.961.49-1.093 4.676-1.825 5.548-6.836.543-9.03 4.668-8.423 5.772.504.918 4.405.695 5.585.689 1.676-.009 1.052 1.145 1.556 1.97.503.824.186 1.703-.176 2.218-3.58-.127-3.846-2.405-6.523-1.723-1.243.317-2.715.022-4.348-.617-1.524-.6-7.788-.49-8.33 3.793 4.193-1.997 5.593.622 5.593.622s-1.74.485-2.017 1.865c1.916-1.06 3.563-.49 4.281-.382 3.774.568 4.42-1.706 5.88-1.653 2.395.087 3.733.51 3.733.51-1.649 1.564-3.982.849-4.86 1.743-.305.312-.418 1.078-.981 2.093-.404.728-1.98.569-2.679 2.927-.587 1.98-5.394 3.597-8.448 8.013-3.054 4.415-3.33 1.2-7.93 10.537-1.256 2.55-3.825 1.56-4.456 3.897-1.34 4.971-4.947 2.729-5.768 9.681-.053.443-.338 1.68-.196 2.36.14.68.118 2.713 1.106 2.38 2.305-.776 2.134-4.191 3.768-4.312.869-.065.76 1.776 1.907 1.626 1.631-.214.229-1.654 2.409-4.332 1.16-1.428-.26-3.768.989-4.374 4.303-2.089 3.868-4.621 4.437-4.827 2.608-.943 3.619-1.826 6.883-5.158 2.308-2.357 7.516-4.021 7.911-4.007.613.024.911.234 1.226.614.313.377 4.136 5.476 4.473 7.282.278 1.494 1.389 2.292 2.023 3.868.815 2.032 1.738 2.547 2.674 2.628 1.6.139 3.433-1.113 5.448.902.57.571.658 1.485 2.47 2.009 1.811.524 2.142 1.438 2.396 2.008.231.516.895 1.025 1.055 1.933a7.478 7.478 0 0 0-2.924-.568H46.561v12.589l4.207 1.851c.444.18.48.44.48.805l-.005 12.88-4.722 4.615 4.722 4.475.005 12.958c0 .606-.287.757-.403.793l-3.063 1.703c-5.842-2.28-13.026-13.298-24.997-9.587-6.686 2.072-10.507 8.611-10.581 12.305 2.319-2.83 5.637-2.94 5.637-2.94s-10.756 8.066-8.582 17.724c1.049-3.172 3.893-4.574 3.893-4.574s-6.926 14.937 7.077 21.094c-3.994-5.997-1.914-9.826-1.914-9.826s.617 3.884 4.367 5.162c-2.304-8.795-.115-16.028 11.803-17.67-1.259.97-1.695 2.81-1.695 2.81s4.556-3.588 12.385-1.588c3.493.892 7.204-.078 7.204-.078.352 2.798 2.06 7.71 10.046 15.277 3.846 3.645-1.527 8.912-5.586 11.935-5.705 4.249-2.497 6.577-1.062 8.898 1.435 2.32 6.263 10.75 6.5 12.216 1.317 8.117 4.957 6.128 3.98 8.764-.42 1.132-1.194 1.329-1.46 2.125-.264.797-.794 3.453-1.325 4.383 1.193 1.86 6.102 5.974 8.89 6.905.81-1.854 2.52-7.967.662-11.021-1.857-3.056-.348-4.807-1.061-7.04-.639-1.998-2.92-5.976-5.072-9.689-2.226-3.838-1.212-10.049.295-11.026 2.008-1.302 8.889-7.834 12.603-11.554.265 5.578-1.989 10.492-2.785 13.281-1.402 4.908 4.1 3.918 7.002 3.195 3.557-.888 19.61-6.58 24.308-3.726 2.666 1.618 4.453.042 3.273 4.914.4.93 1.658 4.038 1.658 4.038 3.807.638 10.58.866 11.523-1.55-2.014-3.55-4.283-6.469-7.54-8.164-1.298-2.09-4.314-7.535-9.351-6.787-7.678 1.14-15.848 3.965-16.938.696-.66-1.984 2.123-4.387 3.619-7.136 1.455-2.676 5.893-7.847 5.714-19.016h26.43c-1.216 2.202-2.087 4.778-1.548 7.546 4.253-.284 7.693-2.939 9.037-3.893.74-2.823 3.097-1.99 5.043-4.167 3.55 1.105 8.85-6.18 11.858-9.304 4.127-4.287 5.979-2.983 6.8-10.242.526-4.656-5.2-8.06-7.042-10.614 1.417-3.974.395-5.211-2.271-6.105-2.664-.893-3.91-.978-3.829-2.129.16-2.3.124-4.609 2.173-5 3.589 3.134 11.868 11.672 13.854 13.234 2.782 6.833 6.75 3.834 9.853 10.522-.853 2.228-1.33 4.963 1.778 5.378 1.8.24 1.514.885 2.128 1.277 2.327 1.493 2.813-.986 2.97-1.594.039-.15.844-.15.95-.092.54.94 1.951 1.91 3.213 2.024 1.268.114 2.894-2.399 3.159-3.088.558-1.443 1.998-1.56 1.78-4.058zm2.111-.186c.222 2.53-.855 3.74-1.5 4.46-.232.262-.357.407-.412.55-.017.043-2.015 4.447-5.053 4.447l-.274-.012c-1.025-.092-2.094-.516-3.008-1.142-.866 1.078-1.929 1.284-2.625 1.284-.794 0-1.62-.272-2.455-.806a3.367 3.367 0 0 1-.93-.902c-1.01-.116-2.918-.492-3.952-2.235-.784-1.32-.843-3.013-.174-5.157-1.114-2.049-2.265-2.675-3.684-3.446-1.768-.963-3.95-2.149-5.624-5.922-1.15-.996-3.172-2.975-5.504-5.268.18.989.082 2.122-.297 3.488.388.406.863.856 1.351 1.321 2.497 2.372 5.917 5.621 5.422 10.01-.653 5.76-2.083 7.114-4.557 9.012-.812.623-1.73 1.328-2.822 2.463-.568.59-1.22 1.333-1.927 2.138-3.276 3.731-6.937 7.963-10.74 7.929-.874.706-1.744 1.077-2.424 1.369-1.05.447-1.135.518-1.287 1.1l-.196.746-.887.634c-1.576 1.133-5.266 3.785-9.864 4.092l-1.864.125-.357-1.835c-.37-1.898-.242-3.825.395-5.83h-21.1c-.32 8.813-3.46 13.863-5.205 16.67-.292.468-.549.878-.745 1.238-.558 1.028-1.258 1.988-1.876 2.835-.552.759-1.448 1.99-1.57 2.54.169.06.548.152 1.289.152 1.828 0 4.528-.542 7.386-1.116 1.927-.388 3.918-.788 5.918-1.085.416-.06.835-.093 1.246-.093 5.316 0 8.516 5.088 9.927 7.389 6.014 3.164 8.37 9.585 8.37 9.585s-1.058 4.27-8.702 4.27c-1.773 0-3.782-.168-5.512-.457l-1.169-.196-.445-1.1c-.001-.002-1.245-3.077-1.64-3.995l-.28-.652.167-.687c.18-.75.259-1.228.29-1.526l-.069-.02c-.645-.189-1.531-.446-2.535-1.055-.299-.182-1.063-.486-2.826-.486-4.907 0-12.765 2.358-16.986 3.625-1.255.375-2.256.675-2.884.831-1.796.448-3.272.665-4.514.665-2.072 0-3.588-.616-4.504-1.833-.899-1.192-1.078-2.763-.534-4.668.176-.618.42-1.335.693-2.137.487-1.43 1.07-3.138 1.486-5.014-3.235 3.095-7.02 6.58-8.69 7.71-.645.912-1.41 5.364.27 8.26 2.472 4.263 4.573 7.966 5.257 10.106.408 1.28.317 2.423.243 3.343-.092 1.147-.158 1.978.61 3.24 2.485 4.087.212 11.274-.532 12.974l-.777 1.774-1.835-.612c-3.4-1.134-8.64-5.646-10.002-7.77l-.696-1.084.638-1.117c.222-.395.604-1.91.787-2.64.145-.577.273-1.074.368-1.36.277-.828.773-1.34 1.1-1.68.084-.085.146-.15.195-.206-1.146-.937-3.04-2.718-3.896-7.991-.328-1.232-4.473-8.632-6.21-11.44-.183-.297-.4-.59-.62-.892-1.408-1.93-4.337-5.944 2.219-10.824 3.627-2.702 5.946-5.477 6.05-7.242.023-.389-.037-.865-.656-1.452-5.622-5.325-8.993-10.053-10.24-14.378-.673.078-1.461.138-2.312.138-1.348 0-2.614-.149-3.765-.444a16.722 16.722 0 0 0-4.116-.539c-4.083 0-7.842 1.992-11.144 5.298 0-2.995 1.16-4.961 1.16-4.961-2.367.826-4.095 2.042-5.155 3.633-1.618 2.423-1.84 5.931-.664 10.425l1.001 3.82s-3.295-.582-4.853-1.743c1.623 4.085 5.133 7.985 5.133 7.985s-18.05-4.29-16.784-16.666c0 0-6.62-7.21.805-17.05l.05-2.491c.09-4.45 4.337-11.892 12.074-14.289 1.824-.566 3.657-.853 5.448-.853 6.747 0 11.812 3.94 15.882 7.106 1.512 1.175 2.955 2.297 4.21 2.98l1.43-.796-.004-11.365-5.662-5.364 5.662-5.532.004-11.196-4.686-2.063V60.352h24.19c-.724-.485-1.15-1.048-1.5-1.57-.048-.073-.09-.145-.143-.207-.483-.48-.813-.522-1.135-.522-.294 0-.642.054-1.01.113-.58.092-1.284.199-1.973.136-2.002-.173-3.46-1.465-4.457-3.95-.19-.472-.462-.871-.776-1.335-.501-.736-1.126-1.654-1.364-2.934-.223-1.003-2.778-4.704-3.815-6.057-1.392.433-4.727 1.762-6.197 3.264-2.971 3.034-4.304 4.305-6.885 5.363-.417 1.102-1.367 3.06-4.373 4.708l.013.189c.066 1.034.166 2.598-.934 3.951-.76.935-.868 1.555-.973 2.155-.125.72-.458 2.634-2.804 2.943-.922.115-1.591-.143-2.091-.512-.555 1.128-1.418 2.51-3.183 3.105a2.8 2.8 0 0 1-.882.147c-2.504 0-2.827-2.83-2.933-3.76-.016-.137-.027-.26-.044-.352-.176-.841-.045-1.773.118-2.733.02-.124.04-.229.048-.304.523-4.415 2.086-5.936 3.924-7.34.936-.714 1.5-1.145 1.903-2.641.59-2.186 2.252-2.873 3.245-3.285.806-.333 1.1-.475 1.357-1 2.883-5.853 4.21-7.154 5.903-8.47.66-.513 1.231-.957 2.185-2.337 1.868-2.7 4.302-4.457 6.079-5.74.807-.583 1.914-1.382 2.105-1.734.4-1.36 1.063-2.197 1.705-2.745a9.953 9.953 0 0 1-1.106-.107c-.13-.02-.285-.05-.461-.085-.325-.067-.693-.14-1.087-.14-.498 0-.94.115-1.392.365l-4.002 2.215.898-4.49c.031-.153.07-.303.116-.446a7.38 7.38 0 0 0-.704.294l-3.501 1.668.487-3.85c.553-4.363 4.912-5.912 8.479-5.912.63 0 1.822.054 2.729.41.451.177.869.314 1.25.413-.533-1.01-.433-2.295.282-3.625.546-1.015 2.702-4.204 8.49-5.081.073-.325.144-.686.202-.975.4-2.02.744-3.765 2.193-4.504 1.917-.978 3.66-1.455 5.332-1.455 1.64 0 2.884.454 3.882.817.548.2 1.02.373 1.388.401 3.947.317 4.524 2.723 4.59 3.743.043.682-.023 1.71-.104 2.602 2.036.802 5.052 2.35 6.75 4.766 1.27 1.805 1.663 3.862 1.14 5.948-.516 2.057-1.92 2.482-3.007 2.482-.81 0-1.842-.222-3.564-.765-.21-.067-.434-.143-.667-.223a22.33 22.33 0 0 0-.78-.259c-.162.626-.465 1.245-1.164 1.695.156 1.383-.314 2.314-.746 2.857a3.72 3.72 0 0 1-1.495 1.114c.609.745 1.142 1.798 1.445 3.45.378.469 1.61 1.401 2.259 1.693.628.284 6.23 2.86 9.499 6.131.117.117.178.147.183.15.004-.001.25 0 .435-.01.186-.01.37-.02.555-.02 1.126 0 2.058.373 2.85 1.138.63.607 2.648 1.778 4.123 2.631 1.921 1.113 3.037 1.772 3.635 2.363.464.457 1.25.8 1.669.866.107-.035.234-.084.38-.137 1.16-.416 3.418-1.232 6.865-1.043 1.524.085 2.439.58 2.984.874.06.033.116.066.171.093 1.781.048 2.668.937 3.047 1.474.384.539.59 1.174.606 1.821.244.009.535-.007.856-.036.409-.036.823-.053 1.246-.053 3.497 0 7.029 1.154 8.027 1.508.271.096 1.408.284 2.81.284.446 0 .865-.02 1.238-.056 2.15-4.484 6.613-9.031 11.663-9.731l.547-.076-.646-1.372s3.882-1.798 6.404.412c3.392-3.394 11.716-3.846 11.716-3.846l-3.69 3.484c8.88-2.03 13.291 3.602 13.291 3.602s-6.936 1.618-8.864 3.214l.478.431c1.433 1.291 2.031 2.873 2.138 4.747a9.577 9.577 0 0 1 2.688-.372c4.602 0 8.855 2.993 9.034 3.121l4.987 3.553-6.116.295a9.61 9.61 0 0 0-2.365.391c1.27 1.44 2.989 4.212 3.935 9.219 1.83-1.832 4.726-2.438 4.726-2.438s-2.272 4.687-.704 9.183c.325.935.934 1.935 1.164 3.304.82.287 1.796.8 2.908 1.681.432.344 1.059.518 1.858.518 3.562 0 7.456-2.387 7.456-2.387s-2.169 8.35-7.873 10.488c.009.265.462 3.477-.158 5.91 0 0 .642 2.9 1.024 4.891 1.083.964 1.85 2.557 1.602 4.242.06.151.331.484.514.708.7.856 1.755 2.149 1.945 4.337zM155.86 84.458c-1.51-.643-3.352-1.39-6.408-1.532.885.857 9.935 9.66 10.668 9.976-1.098-4.552 1.306-6.077-4.26-8.444zm-19.868 30.582s-1.05 2.086-2.676 3.621v4.605c.512-.021.894.012 1.15.038 0 0 1.58-3.15 5.068-3.511 1.275-1.422 7.77-4.054 9.53-6.392 1-1.323.89-3.382.025-5.405-.603-1.413-2.613-1.948-4.557-2.456-6.471 6.09-4.846 8.345-8.54 9.5zM88.862 55.9c1.54-.933 5.648-3.074 9.731-2.907-.41-.872-2.154-1.848-2.923-1.643-.924-.205-1.528-1.213-2-1.283-3.548-.523-3.983-1.686-6.142-2.032-1.32-.21-3.19-.74-3.19-.74 2.02 4.453-2.005 4.072 4.523 8.605z" fill="#FFF"/></g></svg>