<svg width="200" height="200" xmlns="http://www.w3.org/2000/svg"><g fill="none"><path d="M199.226 110.231c-.92-2.518-2.99-5.015-4.384-7.31-3.176-5.23-6.336-10.348-8.814-15.926-1.954-4.393-.594-9.773-1.284-14.178.463-1.11-4.302-13.682-8.477-17.418-4.194-4.841-22.27-14.41-25.318-16.581-3.197-1.541-6.372-1.344-10.028-1.298-3.987-1.059-18.907-6.656-21.45-6.78-5.418-1.198-43.807-3.368-44.586-2.095-6.522.08-25.171 6.276-30.814 8.058C31.87 39.975 6.368 47.55 2.732 51.726c-6.274 7.204.178 7.764.494 10.538.742 1.129 10.72 6.835 11.984 6.19 1.213 3.429-1.23 6.735-1.257 10.24.596 2.395 3.322 1.639 4.834 3.328-.565 3.7-3.72 6.1-6.17 8.62-1.095 1.75.194 3.472 1.006 5.041 3.16 4.262-1.214 8.317-1.806 12.585.649 1.254 5.025 3.071 5.894 4.294 1.65 2.57-1.39 3.485-2.615 5.142-1.351 1.56 1.416 7.689.794 8.798-.48 2.786-5.084 13.888-5.43 15.62 1.271 3.082 7.935 2.066 8.96 2.812-1.263 6.517-1.028 13.933-.389 20.273.76 2.708 1.077 5.48 3.638 7.346 5.178.518 8.342-3.91 11.457-8.083 5.798-5.372 15.76-8.984 19.541-10.977 6.32-2.916 12.15-7.09 18.148-10.48 4.232-4.787 20.392-8.929 23.1-8.488 3.488-.518 16.705 1.375 16.705 1.375l16.903 4.846s7.35 3.066 10.867 4.601l.157-.159c1.923 1.399 17.713 5.784 17.713 5.784s-9.679-24.018-7.952-25.617c2.863-.035 14.94-.511 15.408-1.151.455-1.742-12.463-2.586-13.593-3.994-.49-.783 5.863-3.961 6.49-4.915.524-.794 4.48-.6 5.316-.554a14.39 14.39 0 0 1 5.502 1.452c4.283 2.087 7.402 7.542 5.831 12.156-1.626 4.781-7.258 8.016-11.279 10.648 0 0 9.715.063 13.567-1.067 5.293-1.55 10.69-3.107 14.92-6.822 3.173-2.792 5.554-4.271 6.916-8.336 1.214-3.62 2.195-8.822.84-12.54" fill="#231F20"/><path d="M40.501 119.484c-.798 4.246-4.316 3.861-7.344 2.213-1.628-3.156-2.633-6.317-2.478-9.206.009-.178.027-.364.04-.547.425-2.382 1.736-4.068 5.257-2.867 3.886 1.324 5.212 6.773 4.525 10.407zm107.574-34.83c-5.916-1.39-15.991 1.923-21.05 4.72-10.532 5.818-24.118 5.246-35.357.734-3.912-1.569-7.28-4.122-11.298-5.475-5.42-1.825-11.23-2.626-16.836-3.676-.373 3.735-4.021 5.513-7.36 3.427-2.767-1.728-1.144-3.173.684-4.63 1.419-1.13 2.621-3.364 4.37-3.922 2.687-.863 6.196 1.542 8.964 1.658 4.136.175 8.32-1.54 12.228-2.674-2.027-.67-6.33 1.454-7.645.182-1.833-1.774 1.64-5.538 3.098-6.37 2.296-1.31 4.232-.474 6.345.8 2.63 1.582-.603 9.436-2.236 12.207 3.02 1.266 23.554 9.17 26.788 8.62 3.97-.674 17.58-5.334 17.58-5.334s-18.095-7.811-20.056-8.578c-1.98-.77-1.134-7.054-4.498-8.056-5.76-1.711-9.231-3.945-11.372-5.059-11.538-6.007-22.103-10.96-37.704-11.909-15.085-.919-15.584-6.815-31.726-3.533 0 0-7.504 2.209-10.61 5.59C7.279 56.76 14.312 62 17.028 64.23c1.495 1.228 5.55 4.743 7.053 9.615.811 2.631.157 3.557-.1 5.356-.76 1.94-2.595 3.397-2.24 5.634.211 1.338 1.147 2.53 1.37 3.92.218 1.352.002 2.69-.04 4.032 3.456.105 5.564.79 5.07 4.586-.557 4.302-2.66 8.447-4.654 12.237 2.129 1.28 2.598 2.7 1.771 4.984-.775 2.136-1.096 2.427-.437 4.66 1.351 4.563.054 7.788-2.798 11.427 5.906.909 10.6 3.363 8.643 10.12-.972 3.36-2.87 6.23-3.344 9.77-.39 2.907-.06 5.825.508 8.684-.158-3.402 3.75-.7 7.074-2.512 3.113-1.693 5.553-5.635 8.718-7.081 3.649-1.667 4.88-4.008 7.49-6.883 0 0-6.692-5.621-12.42-12.776a5.837 5.837 0 0 1 1.63-1.32c2.687-1.49 8.709 3.842 11.302 4.137-.5-.55-2.557-7.136-2.744-7.855-.58-2.216 3.081-.833 3.274-3 .232-2.62-7.042-5.929-8.913-7.458-5.997-4.903-.394-12.604 6.34-8.883 1.59.878 2.804 2.252 3.86 3.693.597.814 1.253 2.572 2.175 3.075 1.9 1.031 4.021 5.32 5.742 4.53 7.579-3.47 13.231 3.633 21.219 3.03 4.483-.339 12.661-4.102 17.165-3.823 2.146.133 5.447-5.438 6.78-7.718 2.372-4.063-1.302-5.095 5.533-6.55 4.484-.957 9.091.61 13.63 1.292 8.807 1.32 27.733-8.358 29.466-4.644l4.105-4.636c-5.78-1.188-5.445-7.868-11.18-9.218z" fill="#960A2C"/><path d="M175.332 82.819c-.836-3.357.358-6.633-1.218-9.72-.809-1.581-3.334-6.1-4.33-7.576-.587-.866-5.249-5.88-5.646-6.771-.981-2.197-9.346-5.885-11.743-6.961-1.781-2.662-9.883-6.72-11.473-6.7-6.67-2.558-12.631.306-14.865 1.635-.914.54-5.312-1.323-6.215-1.943-1.734-1.19-2.027-2.845-1.459-4.816 1.374-4.777-2.672-5.118-6.715-5.35-5.5-.315-10.974.162-16.471.23-5.691.056-11.322.969-16.996 1.283-5.028.279-9.994.365-14.9 1.652-6.903 1.813-13.857 4.894-21.044 5.353 3.208.12 38.701 6.777 42.373 7.205 10.778.345 20.912.429 30.124 3.946 2.299.603 13.208 17.22 14.117 16.576-.256-1.233-4.243-23.266-1.9-19.27 1.07 1.826 2.552 8.614 5.029 12.898 2.936 5.084 6.89 7.643 7.956 8.398 1.988 1.412 4.42 2.247 6.567 3.379 3.708 1.95 7.067 4.574 9.033 8.33.8 1.53 4.87-1.15 6.447-.585 1.644.586 2.585 2.24 4.168 2.938 1.918.85 6.24.868 6.24.868l2.97-1.123s.427-1.95-.049-3.876m-57.292 25.709s2.246 5.71 4.897 9.786c3.243 4.988 6.673 8.413 7.011 8.238-.313.161 22.749 23.125 22.749 23.125s-10.363-9.282-15.594-14.031c-5.491-4.982-11.56-10.28-17.037-15.322-2.974-2.737-9.687-8.058-9.687-8.058l7.661-3.738" fill="#960A2C"/><path d="M118.04 108.528s2.246 5.71 4.897 9.786c3.243 4.988 6.673 8.413 7.011 8.238-.313.161 22.749 23.125 22.749 23.125s-10.363-9.282-15.594-14.031c-5.491-4.982-11.56-10.28-17.037-15.322-2.974-2.737-9.687-8.058-9.687-8.058l7.661-3.738" fill="#A09D9E"/><path d="M28.044 50.727c2.384-.03 5.239-.538 7.617-1.04l1.12.618c-.07.998-.078 2.427-.542 3.327-.773 1.503-1.768.71-3.165.728-1.673.02-4.332 1.356-5.896.461m20.888 7.482c.678.344 1.111.896 1.122 1.74.01.828-.683 1.444-1.34 1.845.013.111.125.1.136.211-2.295.188-4.644.184-6.947.038-1.029-.067-4.67.294-4.82-1.417-.091-1.024 2.85-1.958 3.79-2.186 1.428-.348 5.938-1.306 8.06-.23m16.678.287c.343 2.047-.914 3.17-2.648 4.294-2.089-1.709-5.575-1.035-7.818-2.428l-.01-.789c.473-.321 1.113-.015 1.746-.18-.017-1.264 1.41-1.596 2.522-1.768 2.077.922 4.447-.213 6.208.871m.725 7.254c.173 1.102 1.292 1.72 1.15 2.983-2.198 2.239-3.997-1.844-6.69-1.18-2.544-.126-4.27 1.63-6.329 2.288-.645-.782.136-1.897.281-3.004 1.41-1.596 3.148-2.564 5.207-3.063 2.539-.346 4.306 1.211 6.38 1.976M51.254 89.749c-.308.792.183 2.05-.6 2.847-2.721-1.386-9.205 1.062-8.945-3.52 2.53-.978 7.586-3.564 9.545.673m19.755 3.863c-2.025 3.338-5.09-.253-7.634-.381-1.867-.092-3.885-1.111-1.48-2.64.144-1.328 2.715-1.657 3.786-1.946 3.644-.984 4.642 1.964 5.328 4.967m-6.928 5.293c.172 1.102 1.299 2.195.674 3.15-1.88 2.234-4.133-.108-6.357.076-.958-.461-3.498-.112-3.201-1.856 1.556-2.7 6.914-6.554 8.884-1.37m24.806.96c.17.947.496 1.731-.129 2.53-3.82-.427-7-.705-10.652-.346l-.966-.935c.936-1.429 2.522-1.765 3.3-3.038 2.53-.979 6.814-1.662 8.447 1.79" fill="#231F20"/><path d="M134.592 81.604l-2.212-1.707.135-1.312 1.186-1.203 2.199-1.605s-2.147-1.451-3.567-1.434c-2.618.032-4.716 1.992-4.685 4.376.028 2.383 2.173 4.29 4.793 4.259 1.229-.016 3.169-1.175 3.169-1.175l-1.018-.199" fill="#FFF"/><path d="M132.878 78.84c-.565.592-.565 1.257.866 2.21.96.642 5.36 2.615 5.452.128.08-2.051-1.766-3.934-2.879-5.504-.183 1.46-2.534 2.217-3.439 3.167" fill="#231F20"/><path d="M69.925 121.722c.327.786 1.439.772 2.239 1.237-1.73 1.441-.878 6.008-4.236 4.47-.183-2.049.582-4.427 1.353-6.33l.956.148-.312.475m40.422 4.403c-2.223.185-3.973-.11-5.58-1.511-.659-1.887 1.572-1.44 2.518-2.086.787-.638 1.277.46 1.917.768-.309.794 3.194 1.384 1.145 2.829m-10.668-1.608c.168.472.327.785.65 1.097-1.578.965-3.18.04-4.761.532-3.497.043-7.449 1.827-10.173-.032 3.775-3.203 8.427.213 12.535-1.73.479.305 1.114.142 1.749.133m23.164 4.527c.503.914.78 1.874.652 2.526-.26 1.335-8.666-2.087-4.752-4.789 1.418-.977 3.161.558 4.1 2.263m.46-51.58c-.21.503-.513.933-.826 1.096-.635.336-2.002-4.212.405-3.513.87.256.815 1.47.42 2.417" fill="#960A2C"/><path d="M155.15 98.509c1.734 3.712-26.063 7.007-34.751 9.05l2.084 5.004c3.098-.795 6.102-1.962 9.178-2.846 3.363-.969 6.65-2.228 10.095-2.913 6.527-1.297 13.885-.72 20.402.293 5.217.81 11.136 2.163 13.98 7.054 2.068 3.556 1.584 7.579 2.606 11.4 4.275-1.313 8.21-3.969 11.137-7.32 4.542-5.2 3.998-10.865.069-16.263-3.464-4.758-14.496-11.8-14.496-11.8s-11.35 4.699-16.199 3.705l-4.105 4.636" fill="#A09D9E"/><path d="M169.747 101.593c-.497 2.599-4.18 4.976-6.693 5.076-2.799.113-1.498-5.776-1.68-8.91 4.76-.318 9.058.232 8.373 3.834M26.91 59.49c.567.14-1.205 3.17-1.537 3.426-.885.682-1.965.773-3.027.55-2.813-.59-5.428-3.122-5.824-5.995-.096-.698.757-.743 1.213-1.089 2.86.469 5.612 2.235 9.174 3.108M43.3 172.376h-.938v-4.846h1.557l.878 3.346.885-3.346h1.56v4.846h-.955v-3.857l-1.057 3.857h-.885l-1.046-3.857v3.857zm-2.986 0H39.31v-3.996h-1.513v-.85h3.98v.85h-1.464v3.996z" fill="#231F20"/></g></svg>