<?xml version="1.0" encoding="UTF-8"?>
<svg width="200px" height="200px" viewBox="0 0 200 200" version="1.1" xmlns="http://www.w3.org/2000/svg" xmlns:xlink="http://www.w3.org/1999/xlink">
    <!-- Generator: Sketch 51.3 (57544) - http://www.bohemiancoding.com/sketch -->
    <title>md-east-shore</title>
    <desc>Created with Sketch.</desc>
    <defs></defs>
    <g id="md-east-shore" stroke="none" stroke-width="1" fill="none" fill-rule="evenodd">
        <g id="md-east-shore_BGL" transform="translate(0.000000, 27.860697)">
            <g id="md-east-shore">
                <g id="g10" transform="translate(100.000000, 72.755643) scale(-1, 1) rotate(-180.000000) translate(-100.000000, -72.755643) translate(0.000000, 0.252242)" fill-rule="nonzero">
                    <g id="g12" transform="translate(0.000000, 0.472951)">
                        <path d="M199.225921,62.4153532 C198.305815,64.9340804 196.235445,67.431262 194.841794,69.7266512 C191.666133,74.9548626 188.506344,80.0737697 186.028038,85.6519649 C184.074069,90.0451549 185.433858,95.4247106 184.74444,99.8299871 C185.206874,100.939846 180.442324,113.511411 176.266662,117.247724 C172.073012,122.089167 153.997351,131.658543 150.949203,133.828863 C147.752377,135.370158 144.576716,135.17257 140.920631,135.126326 C136.933859,136.185736 122.014283,141.782324 119.470896,141.906868 C114.053436,143.104485 75.6640193,145.274805 74.8846542,144.001515 C68.3634904,143.921639 49.7135437,137.725455 44.0705809,135.94348 C31.8708458,132.672235 6.3682009,125.09661 2.73210046,120.920977 C-3.54166658,113.716356 2.90984649,113.156697 3.22627505,110.382577 C3.96825387,109.2538 13.9465605,103.547908 15.209788,104.192172 C16.4233858,100.763803 13.9798409,97.4578747 13.952751,93.9527817 C14.5494176,91.5575473 17.2753435,92.314269 18.7869837,90.6247827 C18.2221159,86.9252543 15.0677774,84.5252903 12.6165605,82.0049866 C11.5223807,80.2540166 12.8110579,78.5324747 13.6229097,76.9633282 C16.7834387,72.7015135 12.408624,68.6472718 11.8171426,64.3791511 C12.4658727,63.1247798 16.841534,61.3075966 17.7114281,60.0847554 C19.3605286,57.5140035 16.3202641,56.600157 15.0962959,54.9427262 C13.7448145,53.3830387 16.5118514,47.2540657 15.8895763,46.1447327 C15.409206,43.3592085 10.8060315,32.2563142 10.4608992,30.5252607 C11.7311637,27.4426707 18.3951318,28.4585696 19.4202641,27.7127783 C18.1568249,21.1955651 18.3920101,13.7796397 19.0312694,7.44015099 C19.7918514,4.73218028 20.1076715,1.96057138 22.6690471,0.0936048999 C27.8466131,-0.424095753 31.0110574,4.00427705 34.1263484,8.17690366 C39.9239673,13.5484717 49.8865067,17.160294 53.6671944,19.1534675 C59.9873001,22.069421 65.8174587,26.2434245 71.814813,29.6329072 C76.047088,34.4209587 92.2074051,38.5623285 94.9142833,38.1220111 C98.402643,38.6395246 111.619574,36.7467219 111.619574,36.7467219 L128.523277,31.9006024 C128.523277,31.9006024 135.873542,28.8348285 139.389944,27.299787 L139.547086,27.4584883 C141.469838,26.0601296 157.259784,21.6748747 157.259784,21.6748747 C157.259784,21.6748747 147.581478,45.6929593 149.308462,47.2914288 C152.170896,47.3267425 164.248144,47.8027415 164.716398,48.4428019 C165.171424,50.1847333 152.252906,51.0292663 151.122748,52.436611 C150.633859,53.2196078 156.986239,56.397839 157.613753,57.3521492 C158.136504,58.1461815 162.093647,57.951746 162.929096,57.9055019 C164.856081,57.7930447 166.698938,57.298548 168.430684,56.4535421 C172.713752,54.3667769 175.833329,48.9116541 174.26243,44.2977011 C172.635975,39.5166387 167.004229,36.2817584 162.983065,33.6499434 C162.983065,33.6499434 172.697879,33.5869358 176.55026,34.7167633 C181.842853,36.2659409 187.240207,37.8239993 191.470895,41.5388198 C194.642852,44.3303347 197.023805,45.8099359 198.386238,49.8747927 C199.599995,53.4939194 200.580947,58.6963812 199.225921,62.4153532" id="path14" fill="#231F20"></path>
                        <path d="M40.5012159,53.1628537 C39.7028032,48.9163836 36.1852901,49.3014709 33.1566129,50.9493901 C31.5286236,54.1061283 30.5235442,57.267018 30.6787294,60.155698 C30.6880416,60.3333174 30.706031,60.5198704 30.7182003,60.7027448 C31.1443908,63.0843162 32.4545495,64.7706495 35.9757134,63.5698793 C39.8619567,62.2461418 41.1879884,56.7972199 40.5012159,53.1628537 Z M148.074599,87.9920217 C142.159256,89.3824979 132.083595,86.0697383 127.024335,83.2735465 C116.49259,77.4551973 102.906876,78.0269426 91.6677226,82.5388958 C87.7555534,84.1075169 84.3872995,86.6604017 80.3698393,88.0135672 C74.9492045,89.8386329 69.1402099,90.6400222 63.5343899,91.6899736 C63.160845,87.9552366 59.5126969,86.1764151 56.1740727,88.2631803 C53.406877,89.9910282 55.0296283,91.435631 56.8581996,92.8923203 C58.2767181,94.0221479 59.4793636,96.2571045 61.2275117,96.8151867 C63.9153423,97.6780597 67.4243369,95.2723152 70.1915326,95.156705 C74.3275114,94.9822386 78.5111091,96.6964235 82.4195747,97.8309805 C80.3931197,98.5015201 76.0899452,96.3769187 74.7746013,97.6486316 C72.9423262,99.4227236 76.4142838,103.186889 77.8730139,104.018232 C80.1693102,105.328306 82.105289,104.492759 84.2179873,103.21947 C86.848146,101.63666 83.6153418,93.7830448 81.9820085,91.0115516 C85.0026434,89.7461447 105.535976,81.8415557 108.769839,82.392281 C112.740209,83.065448 126.349203,87.7255926 126.349203,87.7255926 C126.349203,87.7255926 108.255024,95.5371678 106.293648,96.3033486 C104.314283,97.0737333 105.160315,103.358202 101.795765,104.359807 C96.0365055,106.070839 92.564548,108.304745 90.4243364,109.418807 C78.8857123,115.425811 68.3206332,120.379711 52.7196812,121.327715 C37.6349726,122.246817 37.1356075,128.142415 20.9937032,124.86066 C20.9937032,124.86066 13.4902113,122.651978 10.3846558,119.269853 C7.27846543,115.886676 14.3105287,110.647429 17.0271424,108.417202 C18.5216397,107.18858 22.5777243,103.674028 24.0800523,98.8015812 C24.8910576,96.1703968 24.2373539,95.2444637 23.9806343,93.4456731 C23.220264,91.5049972 21.384973,90.0483079 21.7404756,87.8117748 C21.9514809,86.4738488 22.8865074,85.280961 23.1091,83.8920614 C23.3279359,82.5399468 23.1115867,81.2020208 23.0704227,79.8593652 C26.5259253,79.7547905 28.634285,79.0700625 28.1401051,75.2738418 C27.5826977,70.9720891 25.4790999,66.8269357 23.4862957,63.0370211 C25.6148671,61.7558492 26.0835972,60.3364704 25.2570893,58.0531678 C24.4820629,55.9170054 24.1606872,55.6258777 24.820211,53.3919722 C26.1710575,48.8301489 24.8737031,45.6050955 22.0219571,41.9659997 C27.9282533,41.0568301 32.6211103,38.6027921 30.664867,31.8449519 C29.6926448,28.4848447 27.7953432,25.6150827 27.3212162,22.0753592 C26.9301581,19.168707 27.2606871,16.2504938 27.8286236,13.391452 C27.6711104,16.7934416 31.5792585,14.0912094 34.9032796,15.9038206 C38.0156604,17.5965125 40.4559249,21.5391903 43.6214275,22.9849492 C47.2699459,24.651366 48.5001046,26.9928943 51.1102633,29.8679638 C51.1102633,29.8679638 44.4192052,35.4891975 38.6915334,42.6440014 C39.1151842,43.1405475 39.6444964,43.5876439 40.3203694,43.9635349 C43.0082,45.4542241 49.02984,40.1220161 51.6232791,39.8266318 C51.1220622,40.3769892 49.0656072,46.9629906 48.8793639,47.6814558 C48.2990464,49.8979673 51.9601574,48.5152686 52.1525913,50.6809115 C52.3852897,53.302637 45.1112158,56.610667 43.2395227,58.1393499 C37.2429091,63.0428016 42.8455545,70.7440216 49.5794167,67.0229476 C51.1694167,66.1443096 52.3838611,64.7706495 53.4396812,63.3297252 C54.0365066,62.5157239 54.6931203,60.7573969 55.6148134,60.2544922 C57.5153425,59.2234589 59.6359773,54.9353692 61.3571413,55.724672 C68.9359771,59.1940308 74.5883579,52.0913567 82.5756593,52.6941066 C87.0592571,53.0335804 95.2370347,56.7972199 99.7407382,56.5181788 C101.88677,56.385227 105.188357,61.9560651 106.521161,64.2362148 C108.893119,68.2988645 105.219045,69.3304233 112.053965,70.7855361 C116.537563,71.7424738 121.1455,70.1749038 125.683595,69.4938542 C134.491002,68.1743207 153.416927,77.8514252 155.150261,74.1382338 L159.255022,78.7742053 C153.475658,79.9613125 153.80952,86.6420091 148.074599,87.9920217 Z" id="path16" fill="#960A2C"></path>
                        <path d="M175.332271,89.8281229 C174.495763,93.1850245 175.690472,96.4604734 174.113752,99.5477929 C173.305287,101.129026 170.77989,105.647285 169.784123,107.123944 C169.196821,107.98997 164.535446,113.004302 164.138091,113.895026 C163.15661,116.091621 154.79206,119.780114 152.395234,120.855815 C150.613753,123.518004 142.511637,127.57645 140.922219,127.556481 C134.251319,130.11357 128.291002,127.250114 126.05714,125.921121 C125.143383,125.379855 120.744971,127.243808 119.841796,127.863374 C118.108463,129.053634 117.814812,130.708963 118.383066,132.680118 C119.756611,137.456923 115.710579,137.797448 111.667722,138.030245 C106.16878,138.34502 100.694177,137.86734 95.196823,137.800601 C89.5058179,137.743847 83.8746011,136.831052 78.2010562,136.516802 C73.173014,136.237761 68.2068766,136.151578 63.3010566,134.864626 C56.3984113,133.051647 49.4435966,129.970633 42.2565069,129.511345 C45.465237,129.392582 80.958199,122.735008 84.6301566,122.306724 C95.4079341,121.96147 105.542325,121.877915 114.754494,118.360736 C117.052907,117.757986 127.961902,101.140062 128.870896,101.784326 C128.614812,103.017677 124.628039,125.050366 126.970367,121.05498 C128.040738,119.228864 129.522748,112.440439 131.999997,108.156553 C134.935975,103.072855 138.890473,100.51419 139.955552,99.7590444 C141.944441,98.3470227 144.375129,97.5114758 146.523277,96.3800717 C150.230684,94.4288858 153.590472,91.8055839 155.555552,88.0503523 C156.35661,86.5200929 160.425393,89.1990979 162.002641,88.6347097 C163.647086,88.0487758 164.587827,86.3950236 166.170895,85.6966325 C168.088885,84.8474226 172.411107,84.82903 172.411107,84.82903 L175.380419,85.9515006 C175.380419,85.9515006 175.808461,87.90111 175.332271,89.8281229" id="path18" fill="#960A2C"></path>
                        <path d="M118.040209,64.1185025 C118.040209,64.1185025 120.285711,58.4094576 122.936505,54.3326193 C126.179891,49.344562 129.61005,45.9193452 129.948145,46.0948626 C129.634917,45.9335337 152.696822,22.9697622 152.696822,22.9697622 C152.696822,22.9697622 142.334388,32.2520051 137.102642,37.0010119 C131.611637,41.9828158 125.543383,47.2803408 120.065605,52.3226823 C117.092061,55.059913 110.379362,60.381138 110.379362,60.381138 L118.040209,64.1185025" id="path20" fill="#960A2C"></path>
                        <path d="M118.040209,64.1185025 C118.040209,64.1185025 120.285711,58.4094576 122.936505,54.3326193 C126.179891,49.344562 129.61005,45.9193452 129.948145,46.0948626 C129.634917,45.9335337 152.696822,22.9697622 152.696822,22.9697622 C152.696822,22.9697622 142.334388,32.2520051 137.102642,37.0010119 C131.611637,41.9828158 125.543383,47.2803408 120.065605,52.3226823 C117.092061,55.059913 110.379362,60.381138 110.379362,60.381138 L118.040209,64.1185025" id="path22" fill="#A09D9E"></path>
                        <path d="M28.0443908,121.919955 C30.4282532,121.950434 33.2829092,122.457543 35.6613748,122.959922 L36.7803165,122.341933 C36.7113218,121.34348 36.7028562,119.914643 36.2386234,119.014459 C35.4658721,117.511526 34.4711102,118.305032 33.0741791,118.28664 C31.4012691,118.266671 28.741957,116.930321 27.1775655,117.825775" id="path24" fill="#231F20"></path>
                        <path d="M48.0662951,110.343689 C48.7435967,110.000012 49.1774062,109.448235 49.1875649,108.603755 C49.1976707,107.775565 48.5046549,107.159678 47.8482528,106.75872 C47.8612686,106.64784 47.9730676,106.65835 47.9838612,106.547469 C45.6886761,106.359339 43.3397344,106.364069 41.0373006,106.510158 C40.0084646,106.576897 36.3661367,106.215878 36.2162954,107.926909 C36.1255547,108.950586 39.0678826,109.884401 40.007671,110.112469 C41.4353958,110.460876 45.9453428,111.418339 48.0662951,110.343689" id="path26" fill="#231F20"></path>
                        <path d="M64.7449719,110.055715 C65.0883582,108.008362 63.8312153,106.886417 62.0968238,105.761319 C60.0084641,107.470774 56.5222208,106.797082 54.2788346,108.190186 L54.2682526,108.978437 C54.7417976,109.300044 55.3820092,108.993677 56.0148134,109.158684 C55.9984113,110.422515 57.4259245,110.755157 58.5365065,110.92647 C60.6137551,110.004741 62.9835963,111.139298 64.7449719,110.055715" id="path28" fill="#231F20"></path>
                        <path d="M65.4698396,102.801696 C65.6428555,101.69972 66.7624322,101.081731 66.6201042,99.8189515 C64.4222206,97.579791 62.6232789,101.662935 59.9301572,100.998702 C57.386242,101.124822 55.6592579,99.3691225 53.6010569,98.7106695 C52.9555542,99.4926153 53.7365066,100.608254 53.8820092,101.71496 C55.2920621,103.310381 57.0296282,104.278355 59.0888874,104.777581 C61.6275117,105.123361 63.3947074,103.566301 65.4698396,102.801696" id="path30" fill="#231F20"></path>
                        <path d="M51.2539141,82.8978131 C50.9457659,82.1053573 51.4368241,80.847833 50.6533321,80.0506477 C47.932803,81.4363943 41.4486233,78.9886098 41.7092582,83.5715057 C44.2398402,84.5484124 49.2948136,87.1349293 51.2539141,82.8978131" id="path32" fill="#231F20"></path>
                        <path d="M71.0089929,79.0348539 C68.9835962,75.6963448 65.919046,79.2876199 63.3746016,79.4158422 C61.5084641,79.5078049 59.4904747,80.5267518 61.8947074,82.0559602 C62.0386228,83.3833762 64.6100513,83.7128655 65.6809507,84.0013656 C69.3253951,84.9861549 70.3227496,82.0375677 71.0089929,79.0348539" id="path34" fill="#231F20"></path>
                        <path d="M64.0814799,73.7420059 C64.2529084,72.6395044 65.3798925,71.5469874 64.7550248,70.5926772 C62.8751307,68.3577206 60.6222207,70.699354 58.3978821,70.515954 C57.4402102,70.9768186 54.8999986,70.6278858 55.196824,72.3714987 C56.7534377,75.0720494 62.1105805,78.9255496 64.0814799,73.7420059" id="path36" fill="#231F20"></path>
                        <path d="M88.8867703,72.7813897 C89.0571406,71.834962 89.3830665,71.0503888 88.7581988,70.2521524 C84.9380931,70.6788594 81.7571408,70.956324 78.1058182,70.5974067 L77.1396806,71.5327988 C78.0761885,72.9616366 79.6624319,73.2979574 80.4407387,74.5712467 C82.9703683,75.54973 87.2544952,76.2328815 88.8867703,72.7813897" id="path38" fill="#231F20"></path>
                        <path d="M134.591531,91.0425561 L132.379891,92.7499095 L132.514812,94.062086 L133.700526,95.2644327 L135.899997,96.8693133 C135.899997,96.8693133 133.753436,98.3207476 132.33333,98.3039316 C129.715341,98.2713505 127.616928,96.3122821 127.648145,93.9280832 C127.676187,91.5449353 129.820632,89.6368404 132.440737,89.668896 C133.669838,89.684661 135.61005,90.8433912 135.61005,90.8433912 L134.591531,91.0425561" id="path40" fill="#FFFFFF"></path>
                        <path d="M132.878304,93.8061669 C132.313224,93.2144526 132.313224,92.5496935 133.743912,91.5959089 C134.703171,90.9547974 139.104758,88.9815404 139.196293,91.4692631 C139.275129,93.5197687 137.430155,95.403165 136.317457,96.9723116 C136.134388,95.5124693 133.783065,94.7557476 132.878304,93.8061669" id="path42" fill="#231F20"></path>
                        <path d="M69.9253951,50.9247441 C70.2518501,50.1385417 71.3640194,50.1523099 72.1640194,49.6881872 C70.4343898,48.2467374 71.2857125,43.6802372 67.9280406,45.2177486 C67.7449719,47.2667828 68.5100512,49.6450961 69.2814797,51.5469375 L70.2365062,51.3993768 L69.9253951,50.9247441" id="path44" fill="#960A2C"></path>
                        <path d="M110.347087,46.5220425 C108.124336,46.3371187 106.374071,46.6318723 104.766135,48.0328585 C104.108463,49.9195128 106.338622,49.4722588 107.285183,50.1186252 C108.071955,50.7566362 108.562431,49.6592321 109.201585,49.3509206 C108.893119,48.5569408 112.395764,47.9667504 110.347087,46.5220425" id="path46" fill="#960A2C"></path>
                        <path d="M99.6788335,48.1295507 C99.8465584,47.6582287 100.006347,47.3449774 100.329098,47.0329873 C98.7507912,46.0675891 97.1492039,46.9923136 95.5677225,46.500497 C92.0714263,46.4574059 88.1190454,44.6739599 85.3947069,46.5325 C89.1703681,49.7360078 93.8216908,46.3202501 97.9296272,48.263606 C98.4089922,47.9573439 99.0439129,48.1207223 99.6788335,48.1295507" id="path48" fill="#960A2C"></path>
                        <path d="M122.843383,43.6028309 C123.346029,42.6885639 123.622219,41.7284732 123.495235,41.0769568 C123.234388,39.7420787 114.828569,43.1635644 118.742854,45.8657966 C120.161373,46.8427034 121.90423,45.3076618 122.843383,43.6028309" id="path50" fill="#960A2C"></path>
                        <path d="M123.302642,95.1824545 C123.093119,94.6800754 122.790473,94.2502154 122.476717,94.0867845 C121.842325,93.7504638 120.4746,98.2992021 122.882008,97.59976 C123.752907,97.3438409 123.696822,96.1304587 123.302642,95.1824545" id="path52" fill="#960A2C"></path>
                        <path d="M155.150261,74.1382338 C156.884123,70.4260933 129.086769,67.1306754 120.398939,65.0870012 C121.09259,63.4190604 121.788357,61.7511196 122.483066,60.0837044 C125.580949,60.8787877 128.585182,62.0459258 131.661372,62.9292933 C135.024335,63.8983175 138.311637,65.1579439 141.755552,65.8431974 C148.283065,67.1401344 155.640737,66.5636596 162.157668,65.5494423 C167.375128,64.7401704 173.294176,63.3870049 176.13862,58.4956398 C178.206345,54.9395732 177.722218,50.9169667 178.74444,47.0959949 C183.018514,48.4091173 186.954493,51.0645274 189.881477,54.4156485 C194.422746,59.6165338 193.87936,65.2809112 189.949731,70.6788594 C186.48571,75.4372727 175.454493,82.4784632 175.454493,82.4784632 C175.454493,82.4784632 164.1037,77.779957 159.255022,78.7742053 L155.150261,74.1382338" id="path54" fill="#A09D9E"></path>
                        <path d="M169.746557,71.0535418 C169.249731,68.4549384 165.567192,66.0780965 163.054493,65.9777257 C160.255022,65.8652685 161.555552,71.7535093 161.373541,74.8886495 C166.133329,75.2060522 170.432271,74.6558524 169.746557,71.0535418" id="path56" fill="#231F20"></path>
                        <path d="M26.9093115,113.156697 C27.476666,113.016388 25.7047613,109.986349 25.3728565,109.73043 C24.4882534,109.048854 23.4079359,108.957943 22.3464545,109.18023 C19.5329096,109.770893 16.9177774,112.302758 16.5220102,115.176198 C16.425661,115.874064 17.2792588,115.919257 17.7353964,116.264511 C20.5958725,115.795764 23.3474068,114.029555 26.9093115,113.156697" id="path58" fill="#231F20"></path>
                        <path d="M43.2994169,0.271167023 L42.3619566,0.271167023 L42.3619566,5.11727281 L43.9186762,5.11727281 L44.7970359,1.77089698 L45.6816391,5.11727281 L47.2412158,5.11727281 L47.2412158,0.271167023 L46.286983,0.271167023 L46.286983,4.12785391 L45.2300518,0.271167023 L44.345237,0.271167023 L43.2994169,4.12785391 L43.2994169,0.271167023 Z M40.313544,0.271167023 L39.3107398,0.271167023 L39.3107398,4.26661775 L37.7976181,4.26661775 L37.7976181,5.11727281 L41.7784646,5.11727281 L41.7784646,4.26661775 L40.313544,4.26661775 L40.313544,0.271167023 Z" id="path60" fill="#231F20"></path>
                    </g>
                </g>
            </g>
        </g>
    </g>
</svg>