<svg width="200" height="200" xmlns="http://www.w3.org/2000/svg"><g fill="none" fill-rule="evenodd"><path d="M84.085 186.739v-24.157l-10.137 17.982-10.136-17.982v24.157H5.699v-40.38h8.314v-53.75H5.699V51.654l4.352.008c-.39-.412-.784-.819-1.182-1.22-.243-.246-.49-.493-.735-.739C5.363 46.927 2.222 43.78.812 39.288c-1.527-4.868-.881-10.28 1.772-14.85 2.995-5.158 8.323-8.914 15.001-10.574a29.713 29.713 0 0 1 7.16-.864c3.464 0 6.998.557 10.804 1.703 8.235 2.48 12.833 6.585 13.668 12.203.365 2.456-.23 4.759-1.721 6.66-2.33 2.968-5.11 3.591-7.034 3.591-3.361 0-6.446-1.828-9.168-3.44-1.386-.822-2.958-1.753-3.863-1.95-.49-.106-1-.16-1.515-.16-1.612 0-3.038.517-3.914 1.417-.215.221-.285.37-.293.404 0 .03.031.195.188.468.274.477.707.947 1.325 1.435 1.636 1.296 3.327 2.496 5.116 3.766 2.661 1.89 5.413 3.843 7.975 6.137 2.24 2.005 4.114 4.212 5.515 6.48l4.89.007 1.168 2.074c8.2-6.98 17.568-14.49 27.817-20.45 13.248-7.705 25.657-11.45 37.935-11.45 2.666 0 5.359.183 8.002.543 6.6.899 12.208 2.764 17.144 5.701.076.043.234.126.437.234 1.003.53 2.705 1.433 4.138 2.442 5.304.737 10.425 2.61 15.192 4.544.776.315 1.51.468 2.244.468.352 0 .71-.036 1.067-.108.866-.174 1.885-.36 3.017-.36.092 0 .185.001.278.004 3.062.084 5.266 1.828 6.045 4.785.419 1.585.403 3.266-.045 4.996-.241.931-.573 1.895-1.045 3.032-.344.832-.243 1.302.05 1.833 1.148 2.092 1.28 4.219 1.26 6.023-.016 1.259-.06 2.617-.141 4.276-.008.153.006.175.043.234 1.515 2.434 2.166 5.234 1.934 8.325a6.15 6.15 0 0 1-.048.438c2.695 2.362 4.804 5.338 6.423 9.061a104.629 104.629 0 0 1 2.514 6.366c.831 2.307 2.251 3.868 4.47 4.912l.522.246c.836.394 1.625.766 2.425 1.12 2.433 1.076 4.227 2.681 5.336 4.774.021.018.052.043.096.075 2.783 2.036 4.13 4.914 3.89 8.322-.005.081.004.293.012.464.013.303.03.68.012 1.098-.027.636.09 1.227.368 1.861.82 1.88.944 3.887.359 5.804-.17.558-.405 1.1-.7 1.62a8.87 8.87 0 0 1-.804 5.213c-1.102 2.254-3.083 3.722-5.577 4.133a6.307 6.307 0 0 1-1.024.084c-.322 0-.642-.026-.958-.078-1.45 1.289-3.273 2.002-5.205 2.002a8.371 8.371 0 0 1-2.044-.258c-2.946-.742-5.338-2.283-7.107-4.578-1.226-1.59-1.897-3.352-1.995-5.24-.01-.178-.026-.357-.042-.536-.021-.236-.045-.499-.06-.78l-.131-.1a69.028 69.028 0 0 0-2.425-1.776c-2.497-1.717-4.323-3.644-5.581-5.89-.072-.13-.306-.29-.642-.44l-.276-.124a30.83 30.83 0 0 1-1.095-.504c-3.009-1.476-5.342-3.544-6.935-6.144l-.062-.102c-1.25.514-2.38.637-2.933.697l-.133.015c-1.451.159-2.951.323-4.54.323-.551 0-1.092-.02-1.607-.062a17.267 17.267 0 0 1-5.909-1.532c.27.237.53.489.784.756.387.406.948 1.05 1.346 1.94.198.443.33.896.396 1.347.095.09.185.183.272.281.494.56 1.288 1.78 1.052 3.663-.155 1.245-.583 2.29-.907 2.989.49.949.646 2.075.439 3.257-.212 1.207-.758 2.326-1.67 3.422-.21.253-.427.492-.645.717.063.803-.064 1.78-.609 2.883-.403.816-.967 1.54-1.725 2.217-.28.25-.557.485-.826.712-.498 1.403-1.387 2.616-2.707 3.696a11.547 11.547 0 0 1-3.169 1.862v17.266h8.314v40.38H84.085" fill="#FFFFFE"/><path d="M125.28 90.301c-.092-.923-.947-1.353-1.751-.88-.457.27-.74.687-.952 1.158-.595 1.32-.54 2.654-.21 4.04.357 1.51 1.175 2.565 2.616 3.136.044.017.093.022.166.038.13-.142.099-.267.1-.381.014-2.274.025-4.547.037-6.82 0-.097.004-.195-.005-.29Zm8.245-37.288c.026.338.11.682.31.956.4.55 1.155.7 1.833.678 1.812-.06 2.49-.564 3.975.808.688.635 1.987 1.427 2.683 2.054.698.628 1.587 1.014 2.484 1.259 1.039.284 2.13.045 3.11-.343 1.172-.465 3.305-1.196 3.522-2.654.27-1.807-2.347-3.09-3.65-3.764-.941-.487-1.916-.934-2.952-1.175-1.029-.24-2.177-.032-3.164-.411-1.902-.731-2.6-1.805-4.781-1.184-1.543.44-3.2 1.49-3.366 3.236a3.115 3.115 0 0 0-.004.54Zm50.58 46.407c-.917 1.667 1.623 4.016-.992 5.36-.874.45-1.943.45-2.78-.064-1.393-.854-2.01-2.562-2.23-4.18-.22-1.619-.146-3.288-.611-4.854-.59-1.985-2.188-3.309-4.14-3.866-1.495-.428-4.453-.844-5.677.39-.122.122-.228.26-.316.41l-.042.072 1.043.47c.74.33 1.368.785 1.869 1.351.273.309.627.719.844 1.16a.478.478 0 0 1-.602.66c-1.4-.557-2.753-.79-4.402-.364a2.965 2.965 0 0 0-1.652 1.111c-1.062.325-2.083.775-3.144 1.187-.115-.168-.23-.334-.338-.509-.182-.297-.37-.591-.558-.885-.325-.509-.661-1.034-.955-1.564l-.028-.05c-.102-.185-.208-.377-.342-.563-.199-.277-.518-.644-.99-.644-.346 0-.657.2-.925.594-.681 1-1.652 1.483-3.351 1.67l-.138.014c-1.334.146-2.715.297-4.067.297-.445 0-.86-.016-1.266-.048-2.556-.2-4.825-1.065-6.938-2.643-.699-.522-1.395-1.252-2.132-2.026-1.66-1.74-3.54-3.713-6.02-3.713-.169 0-.34.01-.51.027-2.783.3-6.072 1.358-6.073 3.702l-.003 7.339c0 .86 2.111 1.447 3.616 1.708.081.17.19.328.333.46.351.322.784.526 1.271.526h.395c-.017.051-.036.101-.042.157-.078.652.457 1.029.608 1.573.258.926.215 1.987.211 2.945-.012 2.885-.485 5.82-1.299 8.573-.107.361-.216.727-.41 1.05-.314.527-.827.899-1.28 1.314a7.659 7.659 0 0 0-2.421 5 56.383 56.383 0 0 0-2.623 1.793 28.151 28.151 0 0 1-2.891-1.384c-1.152-.627-2.371-1.384-3.836-2.384-2.425-1.655-4.79-3.286-7.047-5.042l-.202-.157c-2.05-1.594-4.168-3.242-6.108-5.016-5.42-4.958-11.24-9.612-16.87-14.112l-1.618-1.295a29.687 29.687 0 0 1-1.261-1.05c-.21-.186-.43-.28-.656-.28-.267 0-.512.128-.728.383-.421.498-.777 1.02-1.182 1.65-1.791 2.787-3.397 5.688-4.763 8.188-.977 1.79-2.115 3.913-3.14 6.09-.176.373-.343.75-.51 1.128-2.727-4.535-22.07-37.717-27.97-48.619C50.19 57.187 56.395 52.87 62.4 48.69c1.872-1.303 3.641-2.535 5.308-3.772C73.925 40.3 79.197 36.924 84.3 34.29c5.598-2.887 10.971-4.863 16.427-6.039 2.779-.599 5.7-1.02 8.681-1.25a62.256 62.256 0 0 1 4.801-.19c1.064 0 2.135.03 3.182.087 4.933.27 9.646 1.22 14.008 2.827 2.495.919 4.827 2.285 6.884 3.49 2.133 1.25 4.232 1.96 6.419 2.168 2.65.253 5.429 1.03 8.746 2.442 1.36.579 2.568 1.082 3.691 1.538 1.284.52 2.586.785 3.869.785a9.75 9.75 0 0 0 1.92-.193c.692-.14 1.429-.275 2.164-.275.053 0 .106 0 .16.002 1.154.031 1.691.456 1.985 1.567.23.873.214 1.792-.05 2.81l-.064.225c.12-.65.145-1.32.077-1.967a3.062 3.062 0 0 0-.055-.335c-.275-1.241-1.323-2.39-2.57-2.257-.595.063-1.122.397-1.694.571-.463.141-.95.176-1.434.21l-3.088.215c.852 0 2.92 2.996 4.069 4.265 1.159 1.28 1.808 2.821 2.213 4.513-2.196-.96-4.579-.953-6.93-1.248-1.226-.153-3.17.73-2.336 2.18.084.148.224.281.395.404.516.374 1.317.656 1.732.952 1.392.994 2.424 1.943 2.68 3.632.186 1.22.092 2.848 1.347 3.538 1.098.604 1.737-.947 2.358-1.48.77-.66 1.925-.746 2.452-1.714.617-1.133.24-3.22-.169-4.389-.555-1.585-1.035-3.058.202-5.075.066-.108.124-.221.183-.334-.07.18-.142.363-.223.556-.8 1.931-.714 3.804.254 5.568.665 1.21.743 2.586.727 3.891a93.86 93.86 0 0 1-.057 2.276c-.022-.336-.06-.566-.125-.593-.45-.19-.925.274-1.054.745-.13.47-.076.987-.275 1.432-.26.582-.882.9-1.319 1.365-1.937 2.063 2.06 7.388-1.866 8.04-1.674.277-3.375-.556-5.007-.775-1.64-.22-3.699-1.117-5.314-.683-.233.062-.456.154-.69.21-2.777.651-5.535-2.119-8.262-.918-2.72 1.198-4.925 2.518-8.007 2.858-1.634.18-3.293.14-4.919-.101-1.31-.195-3.478-.423-4.47-1.375-1.402-1.344-.563-4.392.214-5.86.766-1.449 2.204-2.589 3.835-2.754.906-.091 1.72-.13 2.054-1.138.812-2.448-.131-3.492-2.1-4.75-1.38-.882-2.534-2.148-3.168-3.667-.768-1.843-.334-3.637-.459-5.559-.27-4.16-3.99-7.811-8.156-8.003-5.293-.245-3.487 7.6-2.583 10.593.218.719.474 1.451.416 2.2-.195 2.517-2.123 4.496-3.445 6.501-1.68 2.55-2.458 5.582-2.75 8.594-.202 2.083-.431 4.352-.017 6.425.521 2.61 2.09 4.998 3.524 7.187 1.27 1.94 3.094 3.618 5.326 4.343 1.354.44 2.802.463 4.223.549 3.981.237 8.4 1.077 11.795 3.364 3.279 2.209 5.471 5.642 8.678 7.938 2.734 1.959 6.642 2.54 9.861 1.599 3.059-.895 5.575-3.565 6.944-6.37.806-1.65 2.061-4.81.768-6.475-.108-.139-1.658 1.96-1.684 2.336.068-1-.56-1.507-1.06-2.394l-.866 1.495c.203-.35-1.032-1.733-.8-2.434.177-.54.583-.966.939-1.41a9.094 9.094 0 0 0 1.637-3.176c.215.78.43 1.558.647 2.337.97-.293 1.518-1.29 1.966-2.199.07 1.402.26 2.798.566 4.168 1.251-1.27 2.476-2.736 2.687-4.505.139-1.162.231-1.883.55-2.716.135-.354.311-.728.549-1.166.914-1.68 2.084-3.384 2.352-5.358.312-2.306-.588-4.265-1.075-6.461a1.75 1.75 0 0 1-.024-.258c.112.487.302.948.576 1.389 1.035 1.66 1.458 3.53 1.294 5.717-.02.27-.102.547-.273.927-.318.705-.174 1.414.406 1.995.154.155.317.3.484.43 2.59 2.027 4.587 4.708 6.105 8.195.82 1.883 1.608 3.88 2.41 6.106 1.21 3.361 3.464 5.837 6.696 7.357l.488.23c.832.393 1.692.799 2.55 1.178 1.594.705 2.643 1.63 3.3 2.911.279.54.713 1.023 1.328 1.473 1.484 1.085 2.187 2.472 2.146 4.23-.29-.34-.725-.566-1.307-.566-.175 0-.336.022-.484.06-.343-.26-.764-.398-1.217-.286-1.131.28-2.082 4.174-3.432 2.92-.31-.29-.41-.752-.358-1.173.089-.719.457-1.673.786-2.317.707-1.383.91-3.025-.848-3.662-1.114-.404-3.19-.311-3.839.868ZM44.908 27.537c.392 2.936-1.846 4.87-4.179 5.122-1.04.112-2.02-.1-2.973-.496-.987-.41-1.911-.934-2.81-1.508-.978-.626-1.931-1.298-2.945-1.859-3.272-1.81-6.678-2.166-10.197-.776a8.332 8.332 0 0 0-2.945 1.95c-1.737 1.787-2.007 3.943-.763 6.109.612 1.065 1.448 1.93 2.405 2.689 3.46 2.74 7.176 5.153 10.448 8.128 1.753 1.593 3.374 3.332 4.774 5.246.778 1.064 2.265 2.61 2.977 4.248H19.82c-.105-.159-.219-.03-.345-.218-1.227-1.834-2.496-3.549-3.964-5.202-1.239-1.396-2.586-2.686-3.918-3.99-1.505-1.474-2.99-2.967-4.274-4.644-1.438-1.876-2.438-3.945-2.81-6.293-.452-2.864.018-5.588 1.274-8.185 1.829-3.78 4.743-6.443 8.546-8.132 4.139-1.839 8.48-2.654 13.01-2.305 1.522.117 3.018.414 4.488.833 2.28.648 4.554 1.312 6.703 2.334 1.835.872 3.488 1.992 4.78 3.586.803.99 1.428 2.071 1.6 3.363Z" fill="#949594"/><path d="M151.536 181.13c-2.423 0-4.314-1.878-4.314-4.427 0-2.507 1.89-4.398 4.314-4.398 2.395 0 4.286 1.891 4.286 4.398 0 2.55-1.89 4.426-4.286 4.426Zm0-9.708c-2.913 0-5.379 2.242-5.379 5.281 0 3.068 2.466 5.309 5.379 5.309 2.886 0 5.35-2.241 5.35-5.309 0-3.039-2.464-5.28-5.35-5.28Zm2.41-106.163c.192.447.005.83-.476.936a3.202 3.202 0 0 1-1.44-.03c-1.408-.348-2.594-1.043-3.312-2.372-.046-.084-.094-.168-.05-.298.394.02.626.322.902.54.342.27.678.543 1.106.674.472.143.939.2 1.426.054a2.418 2.418 0 0 1 1.147-.071c.345.063.564.259.697.567Zm-29.443-7.133c-1.88 2.623-3.74 5.146-4.036 8.42-.022.238-.042.486-.123.709-.083.23-.282.256-.462.088-.847-.794-1.083-2.431-1.214-3.519-.694.47-1.257 1.434-1.67 2.148-.447.77-.778 1.6-1.039 2.45-.488 1.593-.931 3.446-1.019 5.1-1.679-1.854-1.953-5.624-1.975-8.012-.025-2.82.496-5.698 1.7-8.258.155-.33.332-.645.579-.915.467-.513.765-.474 1.087.16.716 1.407.903 2.819 2.86 2.728 1.295-.06 2.553-.76 3.623-1.44.305-.195.61-.394.931-.557.286-.144.615-.243.869.045.265.301.075.595-.11.853Zm25.912 118.213v-1.891h1.261c.644 0 1.33.14 1.33.896 0 .939-.7.995-1.484.995h-1.107Zm3.558-.938c0-1.205-.715-1.737-2.156-1.737h-2.326v6.107h.924v-2.647h1.065l1.61 2.647h1.038l-1.738-2.69c.897-.111 1.583-.588 1.583-1.68Zm40.518-63.177c-.351 1.316-1.337 1.928-2.745 1.775-1.033-.111-1.855-.62-2.496-1.457.227-.236.458-.248.656-.324.875-.34 1.623-.84 2.176-1.612.24-.335.513-.643.867-.862.637-.395 1.098-.253 1.38.43.275.663.35 1.341.162 2.05Zm-1.559 6.599c-.751.7-1.658.766-2.51.192-.437-.294-.736-.63-1.077-1.24.164-.054.275-.102.39-.126 1.197-.245 2.114-.892 2.784-1.91.181-.276.378-.634.77-.554.423.086.492.512.537.861.137 1.057-.082 2.019-.894 2.777Zm-3.857-11.002c-.086-.29.15-.438.346-.573.792-.542 1.184-1.3 1.277-2.244.035-.357.119-.715.225-1.059.252-.824.767-1.07 1.556-.73.823.353 1.302 1.003 1.362 1.892.068 1.015-.315 1.839-1.22 2.372-.401.236-.853.33-1.3.424a7.915 7.915 0 0 1-1.505.18h-.072c-.256-.007-.566.084-.669-.262Zm-.26-2.371c-.162 0-.266-.107-.315-.255-.044-.137-.072-.279-.099-.384.06-.422.128-.802.357-1.129.29-.415.56-.846.877-1.242.47-.59.857-1.218 1.126-1.928.239-.63.509-.72 1.11-.423.771.382 1.296.991 1.62 1.781.058.14.099.279-.008.407-.118.142-.266.071-.4.03-.231-.07-.457-.157-.689-.221-1.033-.286-1.808.033-2.304.983-.302.577-.554 1.179-.829 1.77-.06.131-.123.262-.184.394-.053.114-.13.216-.262.217Zm-3.955-.321c-.136.045-.28.068-.423.085-.067.009-.139-.02-.255-.04.982-1.318.712-2.76.485-4.196-.045-.285-.124-.567-.15-.854-.055-.608.132-.897.727-1.076.9-.27 1.769-.16 2.579.319.42.25.665.63.684 1.126.01.263.03.545-.045.79-.57 1.866-1.703 3.22-3.602 3.846Zm3.105 15.03c-.492.775-1.216 1.202-2.13 1.13-1.65-.131-2.932-.896-3.727-2.39-.065-.122-.164-.245-.102-.427.353-.08.695.095 1.051.104.929.023 1.826-.152 2.718-.37.642-.158 1.247-.09 1.806.272.653.423.798 1.03.384 1.681Zm-6.507-2.99c-1.101-.138-.69.607-.553 1.951-2.127-.484-1.35-3.495-.91-4.84.683-2.084-.568-3.26-2.218-4.44-1.284-.917-3.026-1.566-3.64-3.12-.676-1.709-.122-3.576.569-5.168-2.674-.087-7.275.135-8.309-3.25-.935-3.062 3.872-1.727 5.192-1.078-.113-4.093-5.153-4.914-8.151-4.695.398-1.991 3.326-2.323 4.969-2.415a10.448 10.448 0 0 0-6.903-2.553c.263-.761 1.27-4.253-.628-5.03-.706-.288-1.158 1.477-1.564-.032-.294-1.092 1.453-1.699 1.617-2.69.171.41.197.956.563 1.945.15.401.61.611.998.431 1.208-.56 2.267-2.563 2.829-2.991.161-.123.383.034.315.226-.616 1.753-1.576 5.39-.528 6.887.707-3.608 4.514-7.68 8.908-5.717-3.066 1.105-4.708 3.335-5.34 4.615.376-.76 8.677-.202 3.367 3.442 1.549.445 3.469 1.205 4.854-.026.115 1.302-1.022 2.545-1.161 3.857-.312 2.931 2.286 5.616 4.54 7.084-.332-1.582-.48-4.214 1.2-5.103 1.67-.882 4.435.187 5.542 1.556-1.016.406-1.811.336-3.132 1.306-.91.668-1.112 1.664-.937 2.76.176 1.1.676 1.926.5 3.078-.135.896-.689 1.573-.313 2.435.327.753 1.182.61.667 1.682-.455.947-1.727 1.414-2.199 2.472-1.053 2.363.857 4.304 1.64 6.393.63 1.675.045 1.44-1.318 1.116a4.487 4.487 0 0 0-.466-.088Zm-20.71-30.918c-.045.17-.1.334-.161.484-.01.022-.02.047-.043.058-.027.014-.06.003-.088-.009l-.007-.003c-.314-.334-.734-.563-1.195-.723.391-.48 1.173-1.978 1.264-2.153.01-.02.022-.04.043-.045.022-.004.041.012.057.026.591.555.312 1.69.13 2.365Zm-1.218 3.323c-1.154.876-1.991 2.032-2.888 3.144-1.25 1.552-2.939 2.282-4.9 2.265-1.959-.017-3.917-.118-5.85-.5-1.928-.381-3.453-1.33-4.518-2.999-.416-.653-.862-1.287-1.306-1.922-2.76-3.945-8.995-4.082-11.42-7.916-.71-1.12-1.64-2.097-2.216-3.311-.05-.106-.143-.195-.227-.28-.165-.166-.363-.241-.594-.16-1.116.394.406 4.247.631 4.973-.953-.248-2.083-1.663-2.696-2.395-.789-.944-1.43-2.003-1.961-3.11-1.043-2.179-1.599-4.503-1.995-6.872-.012-.071-.01-.145-.024-.216-.052-.277-.02-.646-.394-.687-.36-.04-.461.317-.57.571-.484 1.117-.774 2.293-.921 3.496-.289 2.362-.25 4.732-.054 7.1.007.095 0 .192 0 .289-.033.01-.059.003-.088.003-.105-.058-.21-.115-.313-.177-.027-.03-.053-.059-.081-.083-2.965-2.599-4.752-5.927-6.007-9.604-.765-2.24-.702-4.522-.52-6.82.056-.71.147-1.415.267-2.114.194-.82.354-1.622.54-2.305.054-.184.101-.37.163-.552.719-2.133 1.966-3.925 3.487-5.548.381-.406.77-.805 1.178-1.184.098-.09.187-.15.272-.192.279-.137.494-.013.683.381.084.173.13.364.194.546.202.571.423 1.134.743 1.65.597.969 1.467 1.45 2.605 1.421 1.24-.03 2.376-.416 3.417-1.076.583-.369.672-.724.376-1.35a3.359 3.359 0 0 0-.366-.626c-1.06-1.365-1.276-2.94-1.18-4.6.052-.903.443-2.603 1.224-3.192.025-.018.057-.035.083-.053-.002.71.05 1.341.117 1.964.14 1.282.427 2.525.983 3.697a7.834 7.834 0 0 0 2.227 2.825 44.013 44.013 0 0 0 2.376 1.792c.68.47 1.173 1.075 1.296 1.929.082.572-.08.93-.63 1.314-.156-.182-.101-.412-.14-.618-.145-.731-.661-1.12-1.408-1.051-.343.032-.656.163-.958.317-.787.4-1.45.96-2.022 1.629-1.515 1.765-2.311 3.833-2.584 6.122-.312 2.614.162 5.105 1.171 7.512.216.515.474 1.008.835 1.438.151.18.294.433.578.358.283-.075.289-.35.321-.593.084-.623.182-1.244.264-1.868.033-.244.1-.477.23-.681.206-.32.466-.325.684-.003.106.157.19.345.225.53.259 1.354.875 2.554 1.57 3.722.273.457.545.915.827 1.366.114.184.237.37.386.524.403.42.638.364.78-.183.074-.28.105-.57.168-.853.445-1.976 1.526-3.537 3.141-4.73 1.055-.781 2.266-1.062 3.565-.972.82.056 1.099.61.663 1.296-.248.391-.586.707-.898 1.044-.923.997-1.585 2.12-1.791 3.494-.169 1.12.16 1.993 1.097 2.643.758.525 1.458 1.12 2.114 1.767a11.655 11.655 0 0 1 2.666 4.025c.269.674.528 1.352.885 1.986.326.575.727 1.085 1.268 1.475.675.486 1.408.63 2.196.334 1.49-.561 3.042-.78 4.62-.839 2.179-.081 4.355-.054 6.523.225.626.08 1.238.23 1.8.528.326.173.36.328.081.54Zm-34.38 8.219c-.074-.016-.123-.021-.167-.038-1.44-.57-2.259-1.625-2.617-3.136-.328-1.386-.384-2.72.211-4.04.212-.47.495-.889.952-1.158.804-.473 1.659-.043 1.752.88.01.096.005.194.005.29-.012 2.274-.023 4.547-.037 6.82-.001.115.03.24-.1.382Zm5.797 6.587c.168.157.322.333.459.532 1.235 1.8.46 4.342.103 6.297-.49 2.682-1.322 5.351-2.94 7.58-1.918 2.64-4.542 1.954-6.159-.559-2.627-4.083-.683-7.939 2.47-11.008-3.455-1.164-5.056 2.304-6.585 1.077-.832-.669-2.501-3.174-3.109-5.532-3.241 2.358-3.761 6.325-3.089 6.777-3.164-2.929-4.948-7.484-2.151-12.963-2.017-.562-6.31.425-6.213 4.133.025.94.273 1.549.394 2.448-.636-.68-8.599-6.933-8.34-7.146 3.043-2.506 5.622-2.506 8.459-2.662-2.198-1.347-4.41-2.959-6.27-4.748-2.912-2.804-3.526-7.826.786-9.488-.386.149-.185 2.964-.087 3.38.304 1.28 1.17 2.378 2.264 3.128 1.557 1.067 3.353 1.436 4.953 2.436a14.012 14.012 0 0 1 5.134 5.692c1.204-5.974-5.55-10.09-8.504-14.323-2.949-4.225-4.704-10.025-4.23-15.195.056-.613.914-4.826 1.237-4.891-2.742.552-4.438 4.049-4.9 6.514-.075.407-.52 2.961-.23 3.232-3.428-3.186-5.43-15.79 2.544-27.002-6.636 2.224-9.252 10.092-9.78 13.916-1.206-1.422-1.259-4.122-1.212-5.822-4.464 6.81-3.128 17.718-1.314 25.247.426 1.77 1.011 3.619 2.389 4.809a7.982 7.982 0 0 1 2.83-5.815c-.729 4.983-1.175 11.41 2.35 15.488-9.372-3.708-13.276-14.326-13.879-25.04-1.594 1.907-2.304 8.08-1.76 12.064.492 3.588 1.066 5.988 3.032 10.718-3.168-2.62-5.65-5.688-8.246-6.869.771 4.012 1.66 6.104 2.21 9.662.641 4.145.459 8.831-.774 12.884-.121-2.425-.818-4.941-1.449-7.283-1.234-4.58-2.163-8.866-3.682-13.359-1.918-5.675-3.36-9.696-5.547-12.215-.038 3.855-.357 7.722-.559 11.582-1.517-3.86-3.526-8.284-4.135-9.485-1.807-3.563-3.895-6.526-7.554-11.339 3.914.07 6.732 1.355 10.352 5.163-.13-3.81-1.327-6.235-2.285-7.522 5.496.02 9.737 12.105 10.959 17.896 4.154-6.567 3.795-18.56 1.924-27.445 3.767 1.067 5.715 5.904 6.444 9.653.577-.521.88-1.273 1.14-2.005 1.779-5.038 2.466-10.113 5.374-14.763 2.185-3.495 5.486-6.258 9.148-8.103 3.194-1.61 7.08-3.128 11.73-2.414-1.344.268-3.136 1.152-3.98 1.636-1.39.797-2.802 1.93-3.595 3.338.819-.516 4.759-1.218 5.727-1.293 2.753-.215 5.933-.412 8.355 1.163-3.007.922-6.749 4.113-8.803 6.476-2.674 3.076-3.962 7.212-4.542 11.184 2.516-1.666 5.096-3.3 7.92-4.398 2.559-.994 5.491-1.587 8.234-1.164-2.874 1.692-5.28 3.67-7.145 6.467-3.132 4.958-4.962 12.105-2.702 17.771 1.836 4.603 5.963 7.977 8.861 11.883 1.42 1.913 2.704 4.05 3.196 6.42.67 3.226.042 5.512-2.36 7.709 1.74 1.597 5.71.686 8.572.742-.264 1.19-.85 3.062-3.244 3.44 2.98 2.384 5.417.825 7.42.417 1.473-.3 3.252-.158 4.384.897Zm1.587 10.403c.412-1.471 1.24-2.013 2.74-1.794 1.026.15 2.046.345 3.094.252a8.74 8.74 0 0 0 1.425-.237c.14-.037.274-.106.428.013-.001.352-.193.629-.424.872-1.673 1.763-3.727 2.625-6.157 2.515-1.038-.047-1.39-.61-1.106-1.621Zm.917-12.356c.199-.226.452-.38.749-.395 1.703-.092 3.258.263 4.497 1.534.064.066.11.15.244.336-1.422.191-2.652.685-3.906 1.103-.76.254-1.302.095-1.621-.392-.398-.606-.381-1.71.037-2.186Zm2.895 5.32c1.216.154 2.415.137 3.558-.388.194-.09.422-.23.606-.068.187.165.069.412.002.613-.687 2.041-3.092 3.811-5.269 3.884-.803.027-1.267-.275-1.561-1.03-.322-.825-.312-1.656 0-2.48.24-.636.543-.824 1.23-.75.48.053.955.158 1.434.218Zm-4.997 12.875a2.206 2.206 0 0 1-.524-.24c-.657-.438-.74-1.165-.174-1.724.556-.55 1.243-.814 2.03-.814.684 0 1.34.176 2.003.305.9.174 1.808.29 2.817.39-1.53 2.099-3.836 2.856-6.152 2.083Zm1.976 2.538c-1.038.488-2.12.795-3.287.66-.79-.092-1.128-.347-1.138-.856-.012-.659.51-1.259 1.182-1.34.338-.041.668.016 1.001.098 1.003.248 1.993.564 3.112.635-.262.423-.548.652-.87.803Zm-17.752-10.3c.036-.703.553-3.352 1.27-1.562.84 2.104 1.73 3.967 2.826 5.851.3.516.614 1.034.948 1.558.203.32.413.708.266 1.057-.599.066-1.142-.324-1.618-.693-1.073-.834-2.473-1.686-3.183-2.885-.537-.908-.56-2.31-.509-3.326Zm19.016 41.118v25.141H91.704v-25.14h8.229l-.008-34.69-25.977 46.082-25.976-46.082-.008 34.69h8.228v25.14H13.307v-25.14h8.326v-68.99h-8.314V59.31h28.913l31.716 56.242 11.508-20.406a.51.51 0 0 1 .05.127l2.138 1.796-13.696 24.296-33.385-59.226H16.149V82.18h8.314v74.628h-8.314l.023 19.481h37.19v-19.48h-8.227v-48.316l28.813 51.115 28.35-50.295.463.383v47.112h-8.227v19.481h37.19l.023-19.48h-8.313V124.62c.907.345 1.85.642 2.83.89v28.467h8.325ZM17.538 50.69c-.56-.565-1.239-1.013-1.69-1.689-.232-.348-.433-.714-.398-1.14.063-.743.653-1.176 1.439-1.077.407.05.81.124 1.215.19.913.147 1.552-.26 1.8-1.162.108-.397.183-.803.16-1.218-.027-.489.073-.967.166-1.437.196-1 .95-1.503 1.802-1.328 1.015.746 2.027 1.468 3.02 2.173l1.129.804c.065.076.128.155.185.24-.203.233-.472.284-.714.38-2.563 1.007-4.568 2.68-6.009 5.028-.722 1.177-1.12 1.229-2.105.236Zm-4.444-7.068c-.925.626-2.072 1.245-2.644-.155-.3-.736-.028-1.93.362-2.589.934-1.574 2.3-2.66 4.021-3.278 1.708-.614 3.308.771 3.47 2.23.095.85.325 1.797.179 2.455-.137.617-.605.98-1.824.771-.824-.141-1.636-.096-2.45.06-.412.08-.771.274-1.114.506Zm-5.227-5.496c-.403.602-.698.794-.99.584a11.276 11.276 0 0 1-.874-2.902 11.788 11.788 0 0 1-.05-3.41c.031-.092.065-.183.104-.273.503-1.188 1.426-1.866 2.633-2.187.691-.183 1.443.095 1.37 1.073-.03.41-.046.823-.042 1.234.005.538.254.75.782.649a7.835 7.835 0 0 0 1.046-.292 15.869 15.869 0 0 1 1.822-.477c.24-.05.482-.074.72-.03.39.07.573.343.493.738-.149.73-.596 1.197-1.305 1.415-.951.292-1.869.656-2.724 1.173-1.173.708-2.211 1.55-2.985 2.705Zm2.061-13.587c1.38-1.41 3.054-2.559 5.014-3.43.5-.221 1.002-.425 1.506-.614.243-.053.488-.099.738-.132.48-.064.96-.107 1.435.03.672.193.954.624.829 1.305-.08.43-.262.828-.464 1.214-.324.62-.673 1.228-.974 1.86a8.216 8.216 0 0 0-.762 2.747c-.58-.554-1.075-1.048-1.591-1.519-1.635-1.487-3.503-2.076-5.738-1.395 0-.024.004-.044.007-.066Zm11.196 1.484c.21-.784.616-1.468 1.153-2.072.626-.705 1.264-1.398 1.887-2.106a4.603 4.603 0 0 0 1.04-1.967c.052-.21.14-.411.226-.61.073-.173.172-.305.295-.403.498.008 1 .027 1.498.065.258.02.52.05.781.082a.424.424 0 0 1 .17.381c-.25 1.687-.798 3.168-1.752 4.489-.312.432-.66.834-1.055 1.193-.35.319-.726.605-1.187.736a13.5 13.5 0 0 0-2.267.56c-.124.029-.248.06-.373.088-.356.08-.51-.082-.416-.436Zm9.21 24.561a8.713 8.713 0 0 1 3.126 1.542c.686.533 1.423.993 1.811 1.818.138.294.11.453-.012.53-.336.208-1.387-.219-1.674-.251-1.22-.136-2.93-.24-4.145-.1-1.934.22-4.19.843-6.083.127-1.772-.67 1.599-2.478 2.252-2.87 1.482-.885 3.024-1.243 4.725-.796Zm84.856-10.275c.038-.238.096-.474.165-.705.308-1.028.958-1.73 1.874-2.057.662-.177 1.41-.18 2.182-.046a4.9 4.9 0 0 1 .545.228 5.98 5.98 0 0 1 1.525 1.097c.832.809 1.655 1.628 2.477 2.446.536.534.764 1.163.553 1.915-.175.628-.583.926-1.235.86-.807-.08-1.472-.452-1.992-1.07-.295-.352-.557-.73-.85-1.085-.329-.4-.703-.789-1.273-.687-.62.11-.884.615-1.074 1.162-.155.448-.131.905-.076 1.363.17 1.388.642 2.67 1.358 3.867.31.519.61 1.043.904 1.57.116.207.28.43.095.669-.167.218-.433.215-.669.177a3.756 3.756 0 0 1-.986-.315c-.537-.374-1.065-.836-1.436-1.16-.109-.095-.2-.203-.303-.302-.132-.172-.271-.34-.383-.527l-.03-.053a7.24 7.24 0 0 1-.454-.907c-.859-2.066-1.28-4.199-.917-6.44Zm9.268-9.955c3.047-.028 6.097.978 8.285 2.888-.694.053-1.492.219-2.327.398-1.91.41-4.011.891-5.495.247-2.753-1.195-5.228-1.844-8.247-2.116-.108-.01-.201-.013-.313-.02 2.677-.782 5.246-1.371 8.097-1.397Zm20.14 27.785c.681-.59 1.055-1.436 1.254-2.338a.088.088 0 0 1 .132-.054c.542.366.902.828 1.258 1.29.238.308.14.592-.132.825-.307.264-.679.39-1.076.421-.44.035-.88.032-1.436-.144Zm-1.471-.59c-.962-.363-1.71-.908-2.393-1.552-.245-.23-.199-.464.043-.667.555-.466 1.188-.747 1.918-.797.286-.02.446.063.425.388-.056.85-.043 1.703.007 2.629Zm12.61 25.932c.085.135.188.295.292.468.308.513.633 1.152.632 1.673a32.72 32.72 0 0 0-1.464-.092c-.079-.015.502-1.943.54-2.049Zm-1.616-6.211a.762.762 0 0 1-.006-.08 40.38 40.38 0 0 1 2.037-.253c-.017.682-.337 1.513-.617 2.078-.067.136-.51 1.127-.72.745a4.912 4.912 0 0 1-.05-.096c-.407-.777-.54-1.525-.644-2.394Zm-.416 6.2c.059.058.138.21.227.408.233.521.532 1.36.685 1.631a32.722 32.722 0 0 0-1.79.007c.232-.38.69-1.837.878-2.046Zm-3.306-5.3a4.908 4.908 0 0 1-.03-.22c-.003-.03-.006-.062.008-.087.003-.005.009-.007.013-.011a93.141 93.141 0 0 1 2.943-.54c.116-.003.232-.005.349-.004-.468-.007-.757 3.848-1.054 4.28-1.195-.546-2.017-2.102-2.229-3.418Zm.974 5.14c.51.65.791 1.436.807 2.228-.595.03-1.189.08-1.782.142.397-.748.62-1.594.975-2.37Zm-1.608 2.441a32.66 32.66 0 0 0-.921.126c-.23.035-1.429.164-2.186.445.024-.146.056-.314.065-.35.204-.793.585-1.524.972-2.24.374-.69.718-1.409 1.229-2.013.167-.197.403.918.415.978.129.645.272 1.288.358 1.941.016.124.177.946.068 1.113Zm-3.594-1.835c-.604-.413-1.064-.93-1.585-1.436-.389-.377-4.074-3.944-1.561-3.876a.979.979 0 0 1 .55.174c1.101.7 1.963.928 3.261.626 1.625-.379 4.217.609 4.028 2.724-.017.181-.077.387-.245.458-.296.127-.437-.302-.59-.811-1.222-4.063-3.31 2.445-3.858 2.14Zm11.007-4.38c-.408-.694-.432-1.816-.392-2.653.155-.012.31-.026.465-.036.47-.03.942-.043 1.414-.047-.044.345-.117.639-.242 1.002-.028.082-.992 2.165-1.245 1.734Zm.795 4.145c.394.69.657 1.451.791 2.234a8.646 8.646 0 0 0-.992-.175c-.181-.023-.363-.039-.545-.058.346-.603.45-1.358.746-2Zm3.158-6.776a5.405 5.405 0 0 1-.358 1.364c-.146.376-.48.81-.8 1.088-.06.051-.157.101-.217.05-.022-.02-.03-.049-.037-.076-.03-.124-.434-2.051-.494-2.533.636.008 1.273.043 1.906.107Zm2.306 2.989c-.194.448-.783 1.229-1.21 1.423a12.017 12.017 0 0 1-.026-.144c-.234-1.354-.132-2.761-.434-4.104a10.64 10.64 0 0 1 2.29.387c.425.125-.202 1.475-.62 2.438Zm-1.253-21.784c-.385 0-.704-.197-.963-.467-.235-.247-.278-.618-.293-.953-.01-.214-.023-.445.028-.657.062-.26.352-.552.566-.315.14.156.154.362.216.554.059.183.145.357.25.52.166.257.38.486.607.685.056.05.116.099.152.165.15.276-.36.467-.563.468Zm2.872-2.363a2.469 2.469 0 0 1-.411.927c-.116.156-.257.301-.403.441-.035.034-.42.29-.426.154-.03-.704-.02-1.365-.278-2.034-.157-.407-.556-.625-.06-.806.922-.338 1.849.161 1.578 1.318Zm-29.448-19.079c3.959-.402 7.908.34 11.634 1.688.464.167.945.363 1.26.742.316.38.397.999.047 1.347-.29.288-.747.295-1.156.287-2.748-.051-5.593.093-8.063 1.3-.271.133-1.248.769-.863 1.13.196.183.848.077 1.1.073a21.99 21.99 0 0 0 1.632-.1c1.062-.1 2.12-.246 3.186-.313 1.997-.127 4.127.062 5.754 1.226.15.107.3.231.356.406.172.532-.584.85-1.143.876-3.168.144-6.653-.401-9.25 1.419-.203.143-.421.38-.319.607.092.204.367.227.59.22a53.17 53.17 0 0 1 9.657.597c.503.078 1.157.38 1.022.871-.132.476-.817.426-1.289.28-.472-.145-1.17-.155-1.26.33-.036.198.062.394.181.554.666.89 1.924 1.07 3.034 1.014 1.11-.055 2.261-.267 3.306.112.623.227 1.183.657 1.843.718.66.06 1.435-.549 1.175-1.158-.327-.766-1.82-.596-1.904-1.425-.073-.712.977-.866 1.684-.748.887.15 1.779.269 2.674.358.312.032.681.036.874-.212.283-.367-.084-.882-.463-1.149-1.822-1.28-4.247-1.213-6.337-1.98-.33-.122-.716-.374-.646-.72.058-.291.406-.413.701-.451 1.704-.223 3.36.526 5.003 1.028.16.048.336.094.486.022.363-.176.158-.73-.107-1.034a10.092 10.092 0 0 0-5.8-3.264c-.411-.073-.92-.199-1.008-.607-.094-.433.387-.773.82-.865 2.29-.481 4.282 2.154 6.609 1.918.914-.092 1.718-.622 2.578-.948.86-.327 1.956-.398 2.581.277.54.584.51 1.488.363 2.27-.308 1.647-.972 3.204-1.631 4.745-.598-.66-.353-1.709.022-2.517.375-.808.86-1.675.628-2.535-.072-.264-.232-.528-.49-.618-.592-.205-1.01.548-1.46.982a1.747 1.747 0 0 1-1.94.298 13.615 13.615 0 0 0 2.227 5.547c.88 1.278 2.028 2.49 2.206 4.093-.767-.3-1.628-.32-2.419-.104-.377.103-1.326.891-1.643.792-.202-.064-.288-.322-.235-.528.138-.532.72-.84 1.168-1.059.457-.224 1.078-.697.734-1.072a.646.646 0 0 0-.272-.155c-1.542-.532-3.414.757-3.467 2.387-.226-.28-.467-.573-.802-.704s-.79-.031-.924.302c-.113.279.03.589.17.854.935 1.786 1.872 3.572 2.808 5.357.22.42.576.908 1.038.808.216-.046.38-.215.532-.376l1.722-1.838c.167-.179.349-.366.587-.425.503-.124.958.41 1.013.926.055.515-.142 1.02-.214 1.534-.31 2.23 1.691 4.093 2.192 6.288.642 2.813-1.246 5.518-3.027 7.789-.321.41-.898.855-1.291.513-.266-.231-.204-.659-.07-.984.377-.907 1.123-1.604 1.644-2.437 1.176-1.877 1.065-4.475-.267-6.246-.09-.12-.19-.24-.326-.305-.558-.266-1.028.574-.918 1.182.11.608.448 1.251.17 1.803-.362.719-1.401.634-2.183.442l-1.738-.43c-.9-.22-1.818-.445-2.743-.373-.924.071-1.871.49-2.345 1.286-.474.796-.3 1.987.507 2.442.808.455 2.05-.243 1.914-1.16.754.001 1.748.254 1.763 1.008.01.52-.512.944-.487 1.464.04.833 1.384 1.157 1.371 1.991-.01.658-.832.935-1.484 1.03-3.932.568-7.87 1.105-11.81 1.609-.355.045-.729.088-1.062-.044-.333-.132-.6-.503-.488-.843a20.114 20.114 0 0 0 6.24-.67c.533-.144 1.171-.75.746-1.1-.186-.151-.458-.1-.692-.046-2.376.554-4.86.644-7.27.263-.447-.07-.93-.18-1.216-.53-.285-.352-.191-1.012.252-1.103.213-.044.426.053.625.14a10.138 10.138 0 0 0 7.817.113c.477-.193 1.014-.747.66-1.12-.212-.225-.581-.147-.879-.06-2.67.775-5.756.776-8.006-.858-.3-.219-.612-.54-.543-.905.066-.354.478-.55.836-.516.359.034.676.233.99.41a9.324 9.324 0 0 0 6.811.883c.4-.103.889-.419.732-.8-.126-.309-.553-.313-.885-.282a9.796 9.796 0 0 1-6.267-1.575c-.116-.077-.234-.16-.3-.283-.208-.38.259-.837.691-.812.433.024.79.328 1.141.581a6.21 6.21 0 0 0 4.761 1.043c.315-.062.85-.33.978-.653.277-.693-.748-.46-1.136-.502-1.277-.14-2.5-.8-3.285-1.822-.305-.396-.56-.853-.978-1.126-.913-.595-2.11-.076-3.088.404-2.342 1.148-4.884 2.052-7.493 1.983-2.608-.069-5.298-1.26-6.63-3.504-.473-.798-.663-2.015.128-2.5.84-.515 1.834.296 2.597.922a8.327 8.327 0 0 0 2.629 1.452c.582.194 1.229.322 1.799.096.57-.226.983-.925.708-1.474-.144-.287-.431-.468-.696-.648a9.378 9.378 0 0 1-1.906-1.727c-.38-.452-.68-1.216-.195-1.554.485-.337 1.084.198 1.472.644a8.629 8.629 0 0 0 3.816 2.525c.444.144 1.017.214 1.296-.16.246-.326.09-.819-.204-1.102-.295-.284-.693-.428-1.05-.627-.708-.392-1.837-2.278-.31-2.062 1.182.167 2.109 1.443 3.31 1.722.78.181 1.777-.122 2.322.66.347.498-.063.75.76.615 1.206-.198 2.281-1.591 3.593-.881.55.298 1.134.971 1.645.61.244-.174.295-.507.424-.778.246-.522.794-.823 1.318-1.065s1.086-.48 1.425-.947c.34-.466.323-1.245-.188-1.513-.395-.207-.94-.05-1.272-.346-.264-.236-.261-.639-.331-.986-.214-1.061-1.204-1.758-2.115-2.343-1.67-1.073-3.45-2.181-5.434-2.245-1.216-.038-2.461.347-3.667.077-.247-.055-.405-.14-.37.198.024.223.178.448.316.615.287.347.7.606 1.122.754.752.262 1.563.26 2.345.394a6.795 6.795 0 0 1 4.626 3.182c.076.13.151.28.108.424-.067.224-.36.276-.593.256-1.247-.107-2.233-1.045-3.278-1.736-2.596-1.717-6.091-1.979-8.915-.668-.65.301-1.509.646-1.993.119-.213-.233-.265-.569-.275-.884-.064-2.108 1.31-3.969 2.725-5.532.2-.22.417-.487.364-.78-.098-.554-.915-.507-1.431-.283a14.261 14.261 0 0 0-5.224 3.899c-.324.386-.87.825-1.257.503-.24-.2-.222-.57-.151-.874.364-1.573 1.531-2.836 2.787-3.851 1-.807 2.082-1.509 3.044-2.362.302-.267 1.036-.813.264-.968-.39-.08-.878.077-1.232.235a27.76 27.76 0 0 0-5.48 3.232c-.202.153-.594.371-.86.281-.67-.227.905-2.021 1.154-2.285.94-.998 2.102-1.763 3.286-2.439a36.962 36.962 0 0 1 5.731-2.65c-2.307-.818-4.834-.611-7.272-.395 1.008-.94 2.885-1.488 4.252-1.66.166-.022.333-.04.499-.058ZM30.618 21.815a6.48 6.48 0 0 1 .646-1.377c.203-.34.433-.52.732-.562 2.202.633 4.075 1.219 5.884 2.079.657.312 1.255.646 1.8 1.003.055.094.094.19.114.286.132.647-1.524 2.002-1.85 2.566-.675 1.161-1.053 2.489-1.043 3.835.001.096-1.885-.876-3.046-1.506-.298-.187-.603-.37-.913-.547-.026-.037-.05-.08-.083-.125.232-.301.58-.436.875-.638.619-.425 1.25-.835 1.752-1.402.68-.768 1.05-1.623.678-2.662-.227-.631-.606-.773-1.18-.407-.324.208-.608.478-.917.71-.613.461-1.274.778-2.074.726-1.204-.08-1.734-.835-1.374-1.979Zm165.198 87.301a7.873 7.873 0 0 1-.68-3.53c.023-.555-.056-1.116-.017-1.669.148-2.116-.65-3.764-2.354-5.01-.468-.343-.895-.758-1.165-1.283-.78-1.519-2.036-2.484-3.564-3.16-1.017-.45-2.02-.93-3.027-1.403-3.112-1.463-5.25-3.811-6.416-7.05a102.14 102.14 0 0 0-2.422-6.138c-1.43-3.286-3.416-6.173-6.27-8.406a4.735 4.735 0 0 1-.433-.385c-.396-.397-.537-.85-.296-1.388.16-.354.291-.717.32-1.11.162-2.156-.222-4.195-1.374-6.045-.47-.753-.652-1.54-.61-2.414.067-1.378.12-2.758.137-4.137.017-1.436-.084-2.867-.794-4.16-.918-1.67-.948-3.36-.228-5.098.343-.826.653-1.665.878-2.533.265-1.025.322-2.053.05-3.086-.358-1.354-1.1-1.934-2.497-1.973-.83-.022-1.641.122-2.446.284-1.888.38-3.708.155-5.477-.563-4.765-1.933-9.998-3.85-15.243-4.42-1.571-1.311-4.529-2.752-5.036-3.055-2.35-1.397-4.784-2.475-7.342-3.316-2.707-.89-5.508-1.497-8.38-1.888-28.931-3.94-53.785 15.786-74.275 33.476l-2.346-4.161-4.916-.008c-1.347-2.828-3.5-5.38-5.8-7.44-4.036-3.613-8.68-6.402-12.915-9.754-1-.792-1.739-1.615-2.256-2.516-1.109-1.93-.876-3.793.672-5.385 2.255-2.32 5.86-2.982 8.937-2.316 4.795 1.04 11.665 9.056 16.293 3.158.907-1.156 1.15-2.477.957-3.773-.784-5.278-6.501-7.78-11.02-9.141-5.238-1.577-10.6-2.124-15.965-.79-5.105 1.269-9.954 4.17-12.646 8.805-2.052 3.534-2.664 7.902-1.434 11.822 1.242 3.956 4.312 6.772 7.138 9.629a87.327 87.327 0 0 1 5.139 5.671c.572.69 1.181 1.334 1.759 1.995l-8.976-.014v33.394h8.314v61.304H9.476v32.826h50.559v-32.826h-8.227v-16.54l22.14 39.277 22.14-39.277v16.54h-8.227v32.826h50.559v-32.826h-8.314v-24.08c1.647-.062 3.172-.617 4.554-1.748.746-.61 1.343-1.323 1.614-2.27.138-.481.421-.864.802-1.182.334-.28.668-.56.993-.85.345-.308.647-.653.855-1.072.513-1.04.172-1.683-.968-1.824-.07-.009-.093-.03-.048-.13.116-.178.35-.267.542-.406.808-.583 1.571-1.214 2.21-1.983.407-.489.741-1.02.853-1.66.177-1.003-.351-1.468-1.327-1.196-.303.084-.592.304-.934.159.012-.219.208-.308.329-.445a11.265 11.265 0 0 0 1.76-2.653c.29-.615.53-1.25.614-1.927.084-.674-.223-.964-.883-.858-.551.088-1.079.269-1.607.446a5.204 5.204 0 0 1-2.435.213c-.374-.055-.741-.15-1.055-.457.535-.237 1.026-.423 1.488-.667a5.599 5.599 0 0 1 1.922-.613c.214-.028.43-.076.633-.15.613-.225.777-.61.516-1.193-.15-.335-.383-.616-.634-.88-1.804-1.895-4.006-2.633-6.584-2.235-1.023.157-2.626.45-3.205-.713l-.005-.011v-9.495c.24-.946.87-1.33 2.47-1.424h.512c3.317.161 5.41 3.79 7.75 5.537 2.145 1.601 4.536 2.538 7.22 2.75 1.873.147 3.72-.064 5.573-.266 1.487-.163 2.83-.566 3.742-1.904.35-.514.655-.451 1.023.06.126.177.23.37.336.56.47.848 1.02 1.645 1.525 2.47 1.308 2.135 3.159 3.637 5.378 4.726.412.202.834.385 1.253.573.997.447 1.855 1.082 2.391 2.04 1.08 1.93 2.628 3.388 4.427 4.625.976.671 1.92 1.391 2.867 2.105.845.637 1.269 1.497 1.313 2.556.02.483.084.964.109 1.447.06 1.178.501 2.205 1.213 3.129 1.295 1.678 3.012 2.71 5.04 3.222 1.803.454 3.436-.186 4.53-1.696.127-.176.245-.36.37-.538.179-.257.419-.318.697-.19.175.082.344.178.505.284.489.322 1.014.42 1.592.325 1.289-.212 2.225-.892 2.799-2.066.543-1.11.642-2.279.374-3.467-.134-.594-.037-1.093.301-1.577.265-.378.474-.79.609-1.232.332-1.087.243-2.155-.209-3.189Z" fill="#173B70"/></g></svg>