<svg width="200" height="200" xmlns="http://www.w3.org/2000/svg"><g fill="none" fill-rule="evenodd"><path d="M5.157 52.69v40.725h8.51v53.183h-8.51v40.42h58.046v-20.362l9.573 15.043 8.358-14.131v19.45h59.262v-39.204h-8.51v-18.842s4.254-1.216 6.078-4.559c0 0 4.862-3.95 4.255-7.294 0 0 2.431-2.735 1.52-6.078 0 0 2.43-.608.607-5.47 0 0 .608-5.47-4.255-7.294 0 0 5.471 3.647 15.5 1.52 0 0 5.166 7.597 11.548 10.028 0 0 6.383 5.775 7.902 6.078 0 0-1.824 7.902 7.293 10.334 0 0 3.648 1.823 7.902-2.735 0 0 9.117 2.431 7.901-9.118 0 0 2.432-3.95-.303-7.597 0 0 1.823-6.079-3.647-10.333 0 0-5.167-5.775-11.853-9.725 0 0-1.216-6.382-3.95-10.03 0 0-5.167-5.165-6.686-6.381 0 0 2.128-3.647-1.217-9.726 0 0 2.432-5.774-1.822-11.548 0 0 2.734-5.774 0-10.637 0 0-3.648-1.823-10.94-2.431 0 0-8.814-4.254-14.588-3.646 0 0-10.637-9.118-30.695-8.51 0 0-12.764-3.04-26.44 5.166 0 0-15.5 6.382-37.988 26.137l-3.04-3.04-4.862-.304s-4.255-7.901-15.195-14.891c0 0-7.598-3.95-1.824-5.47 0 0 6.686-.608 9.421 1.823 0 0 5.47 5.166 10.637 2.735 0 0 6.99-1.823 4.863-11.244 0 0-3.951-8.51-17.02-10.029 0 0-10.332-4.255-21.88 3.951 0 0-7.598 2.734-8.814 13.068 0 0-2.431 7.293 6.686 16.715l3.647 4.254h-5.47" fill="#FFF" fill-rule="nonzero"/><path d="m194.157 116.401-.003-.05.005-.049c.026-.27-.216-.645-.45-1.007-.34-.528-.726-1.127-.561-1.815.095-.395.362-.73.793-1.026.463-1.437.16-3.104-.791-4.207l-.239-.275.13-.34c.557-1.445.569-3.393.507-5.118-.025-1.189-.891-1.777-1.895-2.458-.948-.643-2.009-1.375-2.256-2.71-1.246-1.896-3.07-2.75-5.002-3.652-2.206-1.026-4.486-2.088-5.923-4.792l-1.174-2.553c-2.403-5.288-4.886-10.756-10.066-14.601l-.357-.266.145-.42c.618-1.788 1.715-6.269-1.425-9.27l-.243-.232.067-.33c.477-2.333.84-5.717-.062-8.704-2.657-2.032-1.655-4.291-.758-6.29.625-1.397 1.214-2.718.836-4.084-.205-.503-.736-1.583-1.548-1.763-5.186.618-9.597-.974-13.86-2.522-3.3-1.197-6.708-2.434-10.417-2.59l-.132-.005-.118-.061s-7.172-3.647-7.134-3.629c-15.938-6.752-36.695-4.926-50.478 4.44l-.032.023-.034.017c-8.616 4.372-16.675 10.739-24.469 16.896-3.512 2.776-7.144 5.644-10.763 8.278l-.527.384-.346-.553-2.556-4.091h-4.836l-.182-.252-3.159-4.373c-3.083-4.217-7.111-7.038-11.007-9.767-2.686-1.881-5.463-3.827-7.891-6.204l-.036-.033-.028-.04c-1.008-1.368-.529-3.294.05-4.67l.017-.039.022-.037c1.911-3.185 5.485-4.757 10.621-4.672l-.07.003c2.904-.29 5.074 1.091 7.174 2.427 1.63 1.037 3.17 2.014 5.022 2.25 1.066-.006 3.54-.273 4.486-2.509.534-2.1-.517-3.763-1.5-4.788-3.348-2.94-7.695-4.787-13.633-5.777-8.489-1.292-15.909 1.372-20.898 7.507-3.035 3.631-3.079 9.854-1.355 13.806 1.254 3.393 3.984 5.746 6.874 8.238 2.597 2.238 5.279 4.554 6.812 7.702l.186.298.581.93H9.275V89.16h8.253v62.515H9.275v31.164H58.31v-31.164h-8.57v-18.427l1.038 1.038.303.304.059.058.04.073 21.175 37.425 21.653-37.665 1.136-1.974v19.168H86.33v31.164h49.324v-31.164h-8.539v-25.633l.145-.17.365-.426.272-.315.392.136c.538.191 1.125.073 1.746-.052.34-.069.695-.14.997-.156 1.279-.2 1.771-1.109 2.34-2.161.576-1.062 1.233-2.248 2.767-2.679.365-.592.756-1.231.934-1.831l-.097.023a6.18 6.18 0 0 0-.491.147c-.775.255-1.947.641-2.737-.364l-.589-.75.928-.218a7.282 7.282 0 0 0 2.665-1.215c1.04-1.041 1.857-1.964 2.05-3.059-.901.145-1.852.222-2.66-.182l-1.015-.508.985-.563a4.65 4.65 0 0 0 .365-.241c.297-.207.633-.442 1.067-.551l-.133.05c1.23-.635 1.847-1.975 2.067-3.244-.118.053-.233.104-.354.164-.341.17-.696.343-1.101.439-.926.314-2.125.165-2.578-.741l-.32-.64.683-.213c1.12-.347 3.034-1.161 4.003-2.767-1.87-1.307-4.263-1.535-6.794-1.76l-.26-.024-.162-.203c-1.001-1.265-3.272-1.128-4.537-.933l-.71.11.01-.72c.018-1.367.002-2.575-.016-3.743-.038-2.484-.07-4.628.263-7.383l.061-.504.507-.03 3.1-.182-.072.01c2.701-.488 4.56 1.173 6.198 2.638.875.781 1.7 1.52 2.675 2 5.276 3.228 11.819 3.863 17.075 1.659l.477-.2.274.44c3.316 5.32 7.695 9.489 12.011 11.438l.12.053.087.1c1.178 1.34 2.607 2.4 3.988 3.426 1.61 1.194 3.273 2.43 4.495 4.09l.18.245-.09.292c-.805 2.646.831 4.811 2.374 6.179 1.203.57 3.377 1.329 5.231.575.867-2.034 2.487-1.61 3.583-1.304 1.032.288 1.694.437 2.282-.114l.073-.07.096-.042c1.261-.561 1.944-1.905 1.827-3.597" fill="#F8992E" fill-rule="nonzero"/><path d="M139.297 104.284c-.443 1.254-2.155 1.917-3.724 2.44l.105-.046c-.51.286-.985.35-1.413.192-.749-.278-1.062-1.13-1.314-1.815-.093-.252-.188-.512-.276-.655l-.148-.242.089-.269a.116.116 0 0 0-.005.022 1.498 1.498 0 0 0-.013-.205c-.032-.296-.115-1.082.706-1.356l.142-.046.154.025 1.07.173c1.43.224 2.91.457 4.283 1.016l.537.22-.193.546m.452 4.153c-.46 2.762-3.608 3.286-5.12 3.537l.134-.037c-.477.2-1.402.32-2.22-1.11l-.047-.083-.02-.092c-.201-.945.1-1.828.895-2.624l.262-.262.354.113c1.557.501 3.408.46 4.951-.113l.983-.363-.172 1.034m-1.595 5.411c-.278 1.002-1.126 1.897-2.593 2.735-.69.445-1.549.407-2.306.374-.367-.016-.713-.03-1.025.006l-.342.041-.211-.274c-.6-.78-.407-1.65-.251-2.352.057-.26.112-.507.127-.733l.016-.229.161-.16c.934-.935 2.022-.496 2.817-.175.55.222 1.068.431 1.542.317l.104-.024.106.01c.345.039.578-.063.933-.215l.097-.043 1.167-.503c-.002 0-.342 1.225-.342 1.225m-1.442 5.327c-.16 1.205-1.5 2.205-2.74 2.57l-.098.028-.102-.004c-.251-.012-.527-.012-.82-.012-1.175.003-2.638.005-3.673-.858l-.241-.2.023-.314c.08-1.045.66-1.936 1.55-2.381l.272-.136.272.136c1.533.767 3.155 1.442 4.648.566l1.074-.63-.165 1.235" fill="#FFF" fill-rule="nonzero"/><path d="M133.287 123.057c-1.308 2.153-4.236 2.21-5.866 2.052l-.061-.006-.06-.017a1.178 1.178 0 0 1-.728-.597c-.305-.607-.042-1.348.15-1.889l.06-.172.018-.056.029-.051c.41-.725.878-1.151 1.431-1.3.814-.22 1.545.206 2.252.619.702.408 1.366.796 2.035.536l1.67-.65-.93 1.53m30.408-69.859c-.76-1.063-8.318-6.023-9.471-4.457-.48.65 3.494 6.179 9.066 7.294 1.9.38.517 5.56-1.317 7.396-.405.404 1.722 1.114 1.621 4.355 0 0-7.411 2.062-9.75.557-.956-.614-2.902.136-3.876-.455-1.49-.905-6.604-1.989-7.065-1.976-1.08.032-1.331 4.977-2.278 4.964-19.908-.293-11.264-10.134-8.436-13.397 1.475-1.701.398 2.056 6.686.684 4.18-.912 5.218.962 9.523 2.43-1.037-3.767 2.282-7.587 1.266-7.445-4.71.658-12.713-8.459-16.461.354-2.484 5.842-.526-2.436-5.572-1.722-5.285.749-1.056-14.131-11.548-14.131-5.927 0-9.725 34.645 2.583 47.713 3.8-1.672 16.563 1.672 20.057 4.559 3.496 2.887 6.84 6.534 12.31 5.622 5.47-.911 7.9-1.976 8.812-2.432 1.975 3.951 4.635 9.27 8.889 10.79 1.274.454 2.68 4.906 5.927 6.761 2.127 1.216 3.883 2.775 4.407 3.875 1.412 2.977-.912 7.294 6.61 7.142l2.506-1.9 4.255.457 1.52-1.596.076-2.888-.988-1.974 1.216-2.205-1.352-3.6.744-3.769-.455-3.19-2.964-2.432-6.889-.102c-1.418 2.23.71 7.091-1.418 7.7-2.43-.406-4.609-1.824-5.977-7.902-1.47-6.535-5.305-6.722-11.75-3.748-2.683 1.238-4.638-3.624-4.357-5.875.107-.852-.303-5.42-.303-5.42l-3.344 1.114c-.709-1.874-.354-4.761 2.179-4.559l1.924.71 1.215 1.165c1.52-2.33 4.864-9.827 4.864-9.827l1.367-5.546-2.583-4.938.455-7.522-1.924-.634m-5.673-12.054c1.013 2.228 4.66 6.99 4.153 8.812 1.419-1.316 2.938-6.178 2.938-6.178.303-1.317-.608-3.95-3.04-3.444-2.43.506-4.397.048-4.05.81" fill="#FFF" fill-rule="nonzero"/><path fill="#1B458E" fill-rule="nonzero" d="M127.722 131.886v19.182h8.54v32.379h-50.54v-32.379h8.813v-16.284l-22.184 38.588-21.7-38.352-.303-.305v16.353h8.57v32.379H8.667v-32.379h8.253v-19.182h110.802"/><path d="M127.358 122.62c-.183.547-.669 1.641.12 1.885 1.885.182 4.256-.062 5.289-1.763-2.188.85-3.83-2.917-5.41-.122zm3.525-4.072c-.73.365-1.155 1.094-1.216 1.883 1.095.912 2.857.67 4.134.73 1.032-.304 2.188-1.154 2.31-2.067-1.763 1.034-3.648.244-5.228-.546zm49.597.425c.85 1.824 2.918 2.493 4.923 2.493.609-.547 1.763-.547 1.338-1.764-1.276-3.525-4.073.608-6.26-.729zm9.483-2.067c-.609.548-2.007.304-1.945 1.156.972 1.458 2.674 1.458 4.133 1.215.79-.425 1.762-1.276 1.58-2.37-.426-2.006-2.918-1.824-3.768 0zm-80.414-3.342c2.674 1.337 5.227 3.404 8.205 3.525l-2.674-2.674c-2.005.243-3.708-.487-5.53-.851zm26.683.425c-1.52.365-2.917-1.459-4.072-.304-.06.912-.609 1.884 0 2.674 1.032-.121 2.248.244 3.1-.303.85-.487 2.005-1.276 2.31-2.371-.427.183-.792.365-1.338.304zm56.344-4.072c-1.701-1.641-1.458 1.033-2.492 1.58-.607.486-1.58.79-1.884 1.337.973.608 2.25.973 3.464.608 1.034-.304 1.945-1.337 1.763-2.492l-.851-1.033zm-58.775-1.46c-.547.548-.912 1.217-.73 2.068.244.425.73 1.154 1.459.85 1.823-.304 4.255-.85 4.62-3.039-1.642.608-3.648.669-5.35.122zm54.52-5.105-1.276 1.885c.06.304.364.547.729.424.365-.546 1.033-1.579.547-2.31zm2.37-.304c-1.032.122-1.032 1.399-.911 2.067-.243 1.276-1.702 2.31-2.735 2.492.121.243.364.243.547.425 1.276.73 3.283.547 4.376-.425a2.797 2.797 0 0 0 .912-3.1c-.364-.85-1.216-1.52-2.188-1.46zm-57.194-.12c-.548.181-.182.789-.305 1.154.487.79.669 2.918 2.188 2.066 1.277-.425 2.979-1.033 3.343-2.066-1.64-.67-3.463-.851-5.226-1.155zm56.283-3.223c-.486 2.19 2.31 2.128 3.343 3.526l-.243-1.641c-.79-.973-1.885-2.188-3.1-1.885zm-5.227-.729c-.486.244-1.276.426-1.155 1.155.85 1.702.426 3.343.122 4.984a7.011 7.011 0 0 0 2.795-1.337c.67-1.034 1.581-1.945 1.459-3.344-.365-1.336-2.066-1.64-3.221-1.458zm-37.38-16.654c-.973 1.216-1.094 2.735-.973 4.376 4.072-.729 8.813-.425 12.642.73.304-1.155.79-2.736.183-3.77-.972.79-1.277 2.128-2.37 2.615-.426-.487-.305-1.216-.73-1.763-.304.487-.669.973-.972 1.46-.73-.062-.488-1.034-.73-1.581l-1.458 1.762c-.426-.668-.426-1.459-.912-2.067l-1.034 1.885c-.85-.486-.547-1.824-1.458-2.31-.365.73-.304 1.762-1.156 2.189-.303-1.156-.425-2.432-1.032-3.526zm13.924-1.997c.111.366.246.71.42 1.025.213-.33.395-.67.552-1.023l1.11-.002a10.223 10.223 0 0 1-1.967 2.605c-.85-.608-.789-1.58-1.154-2.31l-1.216.851c-.503-.23-.455-.768-.609-1.151l2.864.005zm-14.987 0-.64.296c-.37.077-.758-.082-1.145-.29l1.785-.006zm-81.147 0c1.78 5.958 2.409 12.382 2.707 18.955 1.884-4.62 2.857-9.603 2.796-15.013.061-.243.243-.608.608-.486 2.067 4.254 3.343 9.3 5.652 13.006-1.205-5.611-2.623-11.188-4.713-16.457l4.287-.005c.335.288.68.568 1.035.842a7.521 7.521 0 0 1-.022-.838l2.424-.004c2.588 5.606 6.231 11.042 11.577 15.308l.912-3.343c.426-2.066 1.945-3.95 2.006-5.835-1.338 1.337-2.249 3.16-2.918 4.923-2.05-3.63-4.029-7.29-5.762-11.052l17.356-.001a19.32 19.32 0 0 0 1.535 3.213c3.708 3.89 5.41 8.57 5.835 13.858-.668 1.155-.851 3.221-2.31 3.342-.303-3.16-1.094-6.138-2.795-8.752-1.156.548-.73 2.492-2.189 2.917-1.398-1.944-1.945-4.254-2.492-6.564-.304-2.37-.425-4.923-.972-6.99-2.006 4.802-2.857 10.15-2.675 15.864l.73.912c2.796-.364 5.227-1.398 7.476-3.1l.426.304c-.609 3.647-2.068 6.93-3.951 10.09 2.37.729 4.984.547 7.172-.487 1.397 1.156.425 3.526.121 4.863 2.796-.182 5.532-.669 7.902-1.945 1.458 1.034-1.095 2.372-1.155 2.796l3.465-1.337c1.276-.122 2.977-.425 4.072.304.182 1.033-1.033 1.276-1.58 1.885-1.399 1.458-1.824 3.646-1.155 5.59.973 1.825 2.856 3.405 4.923 3.466 3.768 1.094 1.58-4.012 4.984-4.377-.122-1.64.547-3.1 1.885-4.072-2.31-2.735 2.795-4.863-.304-6.99-.487-1.033.486-2.127-.244-3.1-3.83-.486-7.476 1.276-10.697 3.1-1.337-.607-.487-2.796-.729-3.951-2.553-.365-4.317 2.188-6.565 3.222-.669.486-2.127 1.641-2.614.122 2.25-4.134 2.068-9.786.183-13.98-2.484-3.007-4.539-6.493-5.928-10.202l10.245-.001a19.136 19.136 0 0 0 2.976 3.456h.426c.68-1.084 1.162-2.25 1.55-3.46l5.684.004c.06.097.122.196.181.296.043-.097.08-.195.113-.294l3.427-.002c.372.619.7 1.26 1.02 1.875 5.166 2.067 10.453 6.444 13.37 11.548 3.344 1.824 8.328 1.885 11.853.427 1.702-.973 2.735-2.736 2.918-4.56-4.924-1.762-10.758-1.58-15.743-.121-1.872-3.055-3.824-6.35-6.57-9.172l5.356.003c.08 1.872 2.284 1.843 3.402 2.727l1.58-2.189 1.338 1.216c0-.766-.565-1.23-1.012-1.748l2.74-.006c.249.46.57.89 1.007 1.268.071-.425.153-.85.257-1.268h6.4c-.633.9-1.356 1.708-1.247 2.909.912 1.944 1.884-1.399 3.221-1.155.912 1.459.73 3.95.121 5.53.973.305.669 1.095.73 2.007 2.25 1.094 4.863 1.276 6.747 3.221-.426 1.338-2.492.911-3.404 1.641 2.37.365 5.592.122 6.442 2.432-.12.972-1.033.911-1.58.486-1.276-.304-2.917-.304-3.525.972-.304.973-.12 2.128.73 2.796 1.52 1.763 4.132 1.338 6.26 1.155 1.155 1.337.304 3.222.73 4.984 1.459 3.768 7.415 4.802 6.564 9.603.79.73 1.884 1.095 2.917.73-1.276-2.249-2.612-4.437-2.492-7.294.183-1.398 1.52-2.066 2.492-3.039.365-1.033-.547-.912-1.033-1.459.06-.547.243-1.033.607-1.458.487-1.034.366-2.492-.425-3.343-.304-.852-.182-1.885.425-2.492 1.155-1.277 3.161-.973 4.68-1.034.184-.486-.303-.547-.607-.73-2.856-.424-5.531.974-7.294 3.344-2.491-1.094-1.823-3.89-1.763-6.26-.607-1.764-2.977-1.823-4.618-2.31-.73-.365-2.128-.304-1.946-1.459 1.459-1.458 3.83-1.034 5.41-2.37l-.305-.426c-2.49-.243-5.47-.73-7.84-.122-.243-.304-.668-.547-.728-.911 0-1.276 1.518-1.52 2.187-2.189l-.911-1.154c1.518-.912 3.342-.121 4.983-.121-1.032-2.006-3.525-1.581-5.227-1.642-1.397.122-2.31 1.945-3.647 1.155.235-.68.571-1.324.85-1.994l9.78-.003c1.465 2.708 2.658 5.555 3.958 8.319 2.553 4.8 8.144 4.072 10.94 8.448.304 2.492 4.133 2.553 4.195 5.41.06 1.701.06 3.768-.548 5.348 1.155 1.337 1.459 3.344.851 4.984-1.884 1.094.425 2.25.304 3.525.121 1.763-.548 3.466-2.188 4.195-1.945 1.823-4.68-1.885-5.835 1.458-1.945.912-4.255.304-6.018-.546-1.945-1.703-3.465-4.073-2.613-6.87-2.188-2.978-5.834-4.497-8.449-7.476-4.983-2.248-9.36-6.99-12.277-11.67-5.653 2.371-12.46 1.46-17.627-1.702-2.856-1.397-4.74-5.227-8.449-4.558l-3.1.182c-.486 4.012-.182 6.808-.243 11.062 1.581-.243 3.951-.303 5.106 1.156 2.735.243 5.47.486 7.536 2.188-.85 1.883-2.856 2.978-4.618 3.525.303.608 1.215.669 1.884.426.79-.183 1.458-.791 2.31-.852-.061 1.641-.73 3.709-2.493 4.62-.486.121-.85.486-1.276.73.85.425 2.005.182 3.04 0 .12 1.762-1.095 3.039-2.31 4.254a7.892 7.892 0 0 1-2.919 1.337c.67.851 1.825.183 2.614 0l.851-.608c.365 1.155-.486 2.432-1.153 3.526-2.98.607-2.312 4.436-5.41 4.923-.974.061-2.006.547-3.04.182l-.365.426v5.619H16.92V89.769H8.667v-9.444h56.296z" fill="#1B458E" fill-rule="nonzero"/><path d="M152.886 68.95c-.243 1.276.121 2.188.911 3.039.547.486 1.094-.06 1.581-.304-.365-1.216-1.52-2.127-2.492-2.735zm-6.443-4.68c1.367 1.318 4.266 2.856 6.747 2.735.303-.608.122-1.398-.183-2.006-2.248.426-4.557-.06-6.564-.729zm-31.606-8.449c-2.735 7.84-.851 17.02 2.31 24.07h.425c.121-3.221 1.094-6.625 4.255-8.024-.548-3.464-.365-7.415.425-10.697.121-1.276 1.58-2.249 1.033-3.647-1.519.486-2.37 2.128-4.376 1.642-1.702-.365-3.22-2.068-4.072-3.344zm40.845-3.829c.608 1.52 1.52 2.857 2.735 4.073.79 1.277.06 3.464 1.763 4.133.11-1.227 1.103-1.022 2.188-1.641.486-.426-.335-.578-.517-.942.303-.365.03-1.125.638-1.368.851.303.182 1.884.608 2.492l.304-.304c1.58-1.58.182-3.344-.304-4.984-1.277-.669-1.885 1.033-3.222.608-.546-1.763-2.795-1.398-4.193-2.067zm-85.945-3.769c-.85.609-.73 2.188-1.033 3.344-.912 8.449-.304 17.505 5.105 23.765 3.769-1.155 5.288 4.012 8.631 4.377-3.081-7.07-6.486-13.98-8.63-21.578-.548-1.641-.487-3.586-1.277-5.105-2.553.06-1.824-2.736-2.37-4.256l-.426-.547zm83.27-1.032c-.487 1.459 1.337 2.37 2.067 3.342 1.216.183 2.492 1.155 3.647.608 0-1.215-1.459-.486-1.763-1.338l.183-.12c2.126-.426 3.342 1.762 4.923 2.491.73-1.52-.912-2.674-1.58-3.95-2.25-1.033-5.046-1.763-7.477-1.033zm-12.095-1.763c-.79.425-2.127.486-2.31 1.458 2.674.73 7.051-.486 9.178 2.189.85.242 2.006.912 2.796 0-1.215-4.255-6.078-3.282-9.664-3.647zm22.915-3.343c-1.58.243-2.493 2.31-4.256 1.762.123 1.885 2.007 3.1 2.371 4.923 1.398-1.397 1.763-3.707 2.19-5.835l-.305-.85zm-13.98-.304-.305.912c.913 1.276 1.764 2.917 3.223 3.646 1.336-2.431 4.253-.425 6.077-.607-1.824-3.161-5.652-3.465-8.995-3.95zm-3.83 0c-3.039-.912-5.895.243-8.023 2.37 0 .304.061.548.304.73 2.736-1.277 6.869-1.399 9.604-.486.183-.365-.244-.548-.244-.852l-1.64-1.762zM94.11 35.825c-7.902 8.327-5.713 23.279-1.337 32.517.668-1.155.608-2.796.608-4.072-.991-5.55-1.562-10.557-.182-16.35.607-2.249 2.188-4.073 2.188-6.565-2.128-.972-.73-3.89-1.155-5.53h-.122zM20.26 50.533c-.668.912-.06 2.128.73 2.614 3.526 1.155 7.233-.79 11.124-.547v-.304c-2.371-3.83-8.45-3.83-11.853-1.763zm2.676-7.598c-4.438-2.49-3.283 4.56-7.051 4.376-.183 1.034.243 1.764.73 2.492.607.123.972-.181 1.458-.303 2.127-1.337 4.802-3.525 5.591-5.957l-.728-.608zm95.67-4.193c-1.338-.365-2.918-.669-4.073.304-1.155.972-.852 2.552-1.034 3.89.062 2.978 2.553 5.714 4.802 6.867l.092-.637c.486-2.553-1.551-4.893-.214-7.08.852-.792 1.703.242 2.492.607.791.608.973-.73 1.46-1.034-.972-1.215-2.188-2.37-3.526-2.917zm-103.998-1.46c-1.823.549-3.525 2.25-4.558 3.952-.73 1.155-.852 2.674.486 3.465 1.824-1.156 3.343-3.101 5.652-3.04 1.095-.122 1.459-1.276 1.459-2.188-.79-.973-1.702-2.249-3.039-2.188zm102.417-1.336c2.188-.061 4.68 1.398 6.686 2.917 3.768-1.397 8.145-2.553 12.278-3.221-5.41-2.918-13.737-3.282-18.964.304zM7.618 30.111 6.16 31.265c-.973 2.31-.851 5.654.425 7.598 2.006-1.276 1.945-4.68 4.498-4.924.243.852-.73 1.52-.304 2.19 1.58-1.095 2.857-2.857 2.918-4.864-2.128-.364-4.56 0-6.383.487-.182-.669.304-1.034.304-1.641zm11.184-9.786c-3.343.182-6.321 1.823-8.57 4.134 2.37.485 4.194 2.309 6.14 3.89.789-1.46.181-3.526 1.154-4.924l.547.546.729-3.646zm12.582-.243-.425.425c-.244 1.034-.912 2.553 0 3.343 1.032-1.276 2.431-1.702 3.89-1.884.607.182 1.094.73.911 1.459-.364.546-1.155 2.188-2.066 1.276-.608.608-1.763 1.216-1.763 2.188 2.249.912 4.072 2.797 6.564 3.1.547-.425.851-.972.73-1.64-1.58-1.46.547-3.1.486-4.499-2.613-1.702-5.288-3.16-8.327-3.768zm-5.835-1.033c-2.066 1.398-3.04 3.464-4.559 5.227-1.762-.426-.608 1.64-1.155 2.37.487.122.79-.243 1.155-.304 1.277-.547 3.04-.06 4.134-1.033.303-2.491 3.585-3.525 3.89-5.835-1.155-.122-2.31-.304-3.465-.425zM151.38 80.325c.256-1.015.652-1.986 1.385-2.805.85 0 .728 1.156 1.154 1.763l.73-1.763c.729.183.364 1.277.85 1.763l.913-1.763c.91.243.546 1.277.85 1.885l1.033-1.58c.73.242.365 1.458.851 2.066l1.337-2.37c.217.909.34 1.912.614 2.809l-2.864-.005a.6.6 0 0 0-.242-.313c-.069.106-.139.21-.21.312h-6.4zm-14.668 0a23.508 23.508 0 0 0-2.06-1.893c-.851-2.553 2.43-4.194 2.491-6.747-.486-.972-1.276.06-2.066-.304-1.945.365-2.917 2.31-3.95 3.83-1.034 1.033-1.946-.669-2.432-1.155-.973.608-1.095 1.823-1.642 2.735-2.674-2.796-3.89-6.93-3.464-11.062.487-2.067 2.006-4.012 3.89-5.288.912-.06 1.884-1.155 2.674-.122-.972 1.52-1.702 3.647-.73 5.41.487 1.093 1.4 2.187 2.615 2.492 3.647.546 6.99-1.337 10.03-3.1 3.281-1.338 5.65 1.398 8.326 2.37.365.183.73.73.182.972-.668.244-1.459-.121-2.066-.425-1.885-.243-3.769-1.336-5.714-.729l.304.425c1.945.608 4.255.426 5.835 1.946.122.425-.06.73-.425.972-2.067-.303-4.134-1.033-6.139-1.155v.425c2.127.67 4.619.973 6.746 1.945a1.42 1.42 0 0 1-.607.973c-2.067-.365-4.194-1.033-6.261-.851v.608c2.067.547 4.62 0 6.382 1.155.486.365.243.851-.121 1.155l-5.106-.304c-.122.243-.608.365-.426.73 2.067.607 4.559.06 6.686.425l.426.303-.973 1.155c.286 1.063.49 2.153 1 3.104l-2.741.005a2.703 2.703 0 0 1-.326-.434l-.94.434h-1.785c-.822-.437-1.639-1.1-2.258-.191a2.078 2.078 0 0 0 .001.188l-5.356.003zm-10.275 0c.309-.902.33-1.91 1.042-2.622 1.026.646 1.767 1.6 2.385 2.626l-3.427-.004zm-5.979 0c.547-1.716.906-3.517 1.37-5.296 1.732 1.27 3.136 3.366 4.315 5.294l-5.685.002zm-15.196 0c-2.657-7.087-2.887-14.987.944-21.89.242-.243.547-.669.85-.304.122 5.167-.06 11.245 3.526 15.195.425-.79.547-1.762 1.337-2.188l.425.243c.375 3.247 1.377 6.267 3.163 8.94l-10.245.004zm-19.71 0c-2.534-5.5-4.544-11.221-5.482-17.392l.304-.851c1.64.669 2.977 2.127 4.68 2.735.73-2.614.608-5.957 2.917-7.72.061 4.498.244 9.36 1.459 13.555 1.034 2.918 1.945 5.956 3.95 8.327l.426-.303c-.365-2.25-.486-4.56-.425-6.99.182-.365.122-1.034.729-1.155 1.216 1.276 1.763 2.917 2.614 4.254.729-1.58 1.641-3.1 2.917-4.376.426-.122.67.182 1.034.243.579 3.295 1.092 6.623 2.233 9.673H85.552zm-8.24 0c.023-.634.155-1.316.57-1.772.608-.121.972.183 1.337.609.168.386.34.772.518 1.158l-2.424.005zm-5.299 0a59.13 59.13 0 0 0-2.155-4.81c-.182-.486-.364-1.703.608-1.459 1.845 2.319 3.644 4.41 5.834 6.271l-4.287-.002zm-63.346 0V56.368h10.508l-.19-.303c-3.1-6.443-11.245-9.3-13.737-16.047-1.884-4.315-1.641-10.697 1.459-14.405 5.288-6.504 13.068-8.996 21.456-7.719 5.105.851 9.968 2.43 13.979 5.956 1.398 1.46 2.188 3.344 1.641 5.41-.85 2.066-2.978 2.917-5.105 2.917-4.498-.547-7.233-5.166-12.096-4.68-3.646-.06-7.901.73-10.089 4.377-.487 1.154-.973 2.917-.122 4.072 5.896 5.774 13.676 8.813 18.964 16.046l3.16 4.376h4.863l2.735 4.377c11.61-8.45 22.732-18.843 35.314-25.224 14.04-9.544 35.131-11.245 51.056-4.499l7.172 3.647c8.632.365 15.196 6.26 24.313 5.106 1.033.182 1.702 1.277 2.066 2.189 1.095 3.829-4.375 7.171-.12 10.21.91 2.857.728 6.2.12 9.179 2.735 2.613 2.735 6.563 1.58 9.907 3.404 2.527 5.648 5.688 7.47 9.06l-9.78.005c.368-.886.634-1.817.426-2.926-.06-.851-.972-1.034-1.579-.608-.032 1.264-.392 2.462-.953 3.534h-1.11c.337-.75.56-1.55.725-2.38-3.16-1.337-7.355-1.58-10.637-1.457l-.425-.244c-.122-.608.183-.973.547-1.337 2.248-.608 5.409-.304 6.443-2.493-.79.366-1.641.852-2.492.609.912-2.614-2.553-2.37-2.492-4.56 2.005-1.701 5.349-.182 7.597-1.276 2.128-.607.305-2.795.426-3.95 1.094.242 1.763 1.398 2.188 2.31 1.397 3.463-.912 6.078-2.614 8.63.122.912 1.217.73 1.885.73 2.31-2.067 3.707-4.802 3.95-7.902.67-3.039-4.072-4.376-2.188-7.416.669-3.403.426-7.475-2.613-9.48.972-2.554 2.431-4.925 2.492-7.902-1.337-2.371-4.62-.913-6.87-.73-3.159-3.526-8.812 1.216-11.365-3.464-5.835-.669-11.305-.305-15.925 1.884 2.007-.608 4.013-1.216 6.261-1.155.182.243.608.365.486.729-3.646 1.216-7.354 2.127-10.514 4.376-.67.79-1.764 1.946-1.156 2.735 2.005-1.701 4.316-2.795 6.686-3.768 1.52-.607 3.343-1.337 4.984-.85l-.304.546c-3.222 2.189-6.928 3.526-9.481 6.99-.244.365-.79.972-.183 1.337 2.492-.243 3.951-2.796 6.018-3.951 1.216-.486 2.553-1.458 3.768-1.033-.85 2.735-3.708 4.619-3.464 7.78.182.851 1.094.486 1.58.973 3.83-.912 8.692-1.459 12.277.485-.121-1.032-1.033-1.761-1.762-2.491-1.763-1.763-4.559-1.094-6.261-2.918-.304-.547-.79-1.337.122-1.762 2.736 0 5.107.972 7.416 1.883 1.944 1.825 4.558 2.067 6.564 3.527.122 1.337-1.52 1.337-2.189 1.883.912.608 2.067.79 2.676 1.763-1.581 1.337-3.162.486-4.985.73-.304.729 1.337 1.033 1.337 1.883-1.762 1.52-3.83 2.371-6.017 2.918-1.095-1.033 1.277-1.702.182-2.796-2.31.548-3.646-1.519-5.713-.972.426 1.52 2.553 2.127 2.917 3.647-1.763.425-3.951-.547-5.408-.912l3.098 3.1c-.242 1.337-1.945.972-2.917 1.459-1.58-.243-3.04-.608-4.133-1.946-1.823-1.398-1.155-3.828-1.277-5.956-2.249-1.824-5.53-1.641-7.597-4.072-2.006-2.128-1.58-5.532-1.034-7.901-1.398 1.883-1.518 4.679-1.033 6.99 0 1.58-1.033 2.917-2.31 3.828-.608.304-1.337 0-1.884-.304-.365-2.005-.85-4.133-2.37-5.53-3.647 5.044-4.498 11.973-3.16 18.355-.487.79-.913-.182-1.338-.304-4.012-6.139-2.917-15.863 1.033-21.699-2.128 1.276-3.768 3.83-4.68 6.14-.608 1.155-.669 2.552-1.458 3.646-.426.122-.609-.243-.852-.486-2.856 2.614-3.403 6.2-3.95 9.786-.365.79.181 2.248-.912 2.37-2.128-7.78-.486-16.532 5.41-22.185 1.52-2.735 5.834-2.613 5.287-6.261.79-2.553 3.465-4.254 5.957-4.558-1.094-1.884 1.276-3.283 1.884-4.498-9.542 2.067-17.505 11.548-21.273 20.119-.607.668.182 2.006-.912 2.309-1.823-6.99.425-13.797 3.83-19.389l-4.073 1.034-.73-.426c.366-1.52 1.763-2.553 2.432-3.951-5.47 1.58-12.46 5.41-13.13 11.974-1.701 5.045-1.701 11.001-2.005 16.471-.121.487-.303 1.338-1.033 1.156-3.16-4.984-4.62-10.698-4.984-16.898-1.885 1.642-2.735 4.011-4.377 5.532-.85-1.156-.607-2.797-1.276-4.073-.85-.365-1.155.547-1.762.852-4.68 9.36-2.979 22.427-.851 32.395l-.304.852c-.547.547-.79-.366-1.155-.548-1.58-4.437-3.647-8.63-6.747-12.4-.425-.182-1.094-.607-1.458 0-.73.913-.547 2.493-1.58 3.04-1.338-2.978-2.797-6.26-5.836-8.144-1.277-.426-2.553.06-3.526.729 5.35 4.62 8.632 10.393 10.82 16.471.303-1.823.547-4.558 1.884-6.442.608-.182 1.277.364 1.762.912 1.231 2.333 2.192 4.776 2.946 7.302H8.667z" fill="#1B458E" fill-rule="nonzero"/><path d="M20.026 26.55h.005c.188 0 .349-.08.517-.164.133-.067.27-.136.423-.162.52-.227 1.154-.277 1.767-.327.857-.068 1.666-.132 2.273-.648.176-1.29 1.12-2.194 2.033-3.068.845-.809 1.645-1.575 1.832-2.601a79.35 79.35 0 0 1-1.617-.2 67.521 67.521 0 0 0-1.679-.208c-1.353.926-2.251 2.174-3.12 3.381-.432.6-.878 1.22-1.379 1.802l-.048.054-.071-.016c-.346-.084-.586-.07-.717.04-.206.174-.176.615-.148 1.042.026.384.052.779-.071 1.076zm.006.24a.91.91 0 0 1-.226-.027l-.175-.044.108-.144c.176-.234.147-.666.119-1.084-.032-.486-.066-.989.233-1.241.183-.155.464-.19.855-.107.475-.557.904-1.153 1.32-1.73.888-1.234 1.807-2.511 3.216-3.463l.036-.025.044.005c.576.06 1.162.136 1.729.211.57.075 1.157.153 1.735.213l.123.014-.017.121c-.154 1.173-1.053 2.033-1.923 2.865-.893.855-1.816 1.74-1.967 2.97l-.005.044-.034.03c-.67.596-1.573.669-2.446.738-.594.047-1.208.097-1.72.317-.143.027-.259.086-.381.147-.181.091-.381.19-.624.19zm-9.563-2.401c1.922.464 3.509 1.799 5.045 3.09.272.229.544.458.818.682.3-.634.357-1.37.416-2.146.071-.93.145-1.89.68-2.658l.082-.118.49.49.654-3.275c-2.949.203-5.842 1.593-8.185 3.935zm5.939 4.143-.112-.091c-.315-.255-.625-.517-.936-.778-1.57-1.32-3.194-2.686-5.152-3.088l-.215-.043.153-.157c2.452-2.519 5.523-4 8.65-4.17l.154-.008-.804 4.018-.6-.6c-.427.695-.494 1.57-.559 2.418-.063.818-.127 1.664-.51 2.372l-.07.127zm15.646-1.722c.84.35 1.63.837 2.395 1.308 1.24.762 2.52 1.55 4.011 1.746.52-.418.74-.908.653-1.456-1.03-.981-.498-2.058-.028-3.01.26-.524.506-1.02.507-1.482-2.27-1.475-5.008-3.059-8.169-3.704l-.356.356c-.041.171-.093.355-.147.546-.26.914-.552 1.944.028 2.56 1.136-1.329 2.669-1.675 3.886-1.826l.025-.004.024.008c.625.186 1.202.768.993 1.602l-.017.037a9.834 9.834 0 0 0-.155.248c-.31.51-.78 1.277-1.368 1.347-.218.03-.437-.047-.64-.22-.14.13-.301.261-.468.398-.53.43-1.128.917-1.174 1.546zm6.476 3.304-.05-.005c-1.564-.191-2.882-1.003-4.157-1.787-.78-.48-1.586-.976-2.437-1.322l-.075-.03v-.08c0-.782.672-1.33 1.265-1.813a7.2 7.2 0 0 0 .533-.46l.085-.085.084.085c.178.177.352.253.53.232.473-.057.923-.794 1.192-1.234l.148-.24c.154-.66-.305-1.125-.81-1.287-1.198.153-2.705.502-3.786 1.838l-.078.097-.094-.082c-.811-.704-.467-1.917-.19-2.892.056-.2.11-.392.151-.57l.009-.032.494-.495.063.013c3.252.65 6.055 2.278 8.37 3.785l.05.033.003.063c.024.538-.258 1.108-.53 1.66-.48.97-.934 1.887.006 2.754l.029.027.008.04c.12.662-.147 1.27-.774 1.757l-.039.03zm78.885 5.717c1.757.087 3.878 1.06 6.315 2.897 3.692-1.364 7.895-2.476 11.886-3.146-4.925-2.512-12.78-3.234-18.201.249zm6.276 3.168-.053-.04c-2.536-1.921-4.715-2.894-6.478-2.894l-.132.001-.406.012.335-.23c5.62-3.858 14.03-3.04 19.088-.312l.311.169-.349.055c-4.1.664-8.454 1.806-12.255 3.216l-.061.023zM6.258 31.34c-.954 2.297-.793 5.49.362 7.356.769-.537 1.223-1.42 1.662-2.275.62-1.207 1.262-2.455 2.79-2.6l.099-.01.027.096c.13.451-.05.852-.208 1.205-.138.308-.26.58-.166.838 1.64-1.178 2.659-2.877 2.749-4.583-2.362-.378-4.91.149-6.228.5l-.115.03-.031-.114c-.116-.423.01-.733.134-1.033.05-.122.097-.239.129-.363l-1.204.953zm.292 7.688-.065-.1c-1.258-1.915-1.45-5.302-.436-7.71l.036-.047 1.653-1.307v.247c0 .282-.094.51-.184.73-.099.243-.193.474-.149.763 1.389-.36 3.947-.861 6.312-.456l.103.018-.004.103c-.056 1.857-1.166 3.71-2.969 4.958l-.102.07-.067-.104c-.255-.401-.079-.797.093-1.18.135-.301.274-.611.22-.941-1.323.178-1.893 1.286-2.496 2.458-.472.92-.961 1.872-1.845 2.435l-.1.063zm8.078-1.626c-1.908.58-3.563 2.39-4.476 3.894-.45.712-.618 1.484-.465 2.12.114.475.4.859.847 1.142.487-.314.96-.69 1.419-1.054 1.247-.988 2.535-2 4.239-1.965.966-.108 1.324-1.15 1.335-2.025l-.154-.192C16.649 38.42 15.83 37.4 14.7 37.4l-.072.002zm-4.09 7.437-.063-.037c-.542-.32-.886-.768-1.021-1.33-.169-.699.011-1.537.494-2.302.938-1.544 2.646-3.408 4.626-4.002l.029-.004c1.312-.058 2.179 1.039 2.957 2.008l.207.257v.042c0 .984-.41 2.18-1.565 2.307h-.1c-1.584 0-2.812.972-4 1.914-.483.383-.984.78-1.502 1.107l-.062.04zm127.577-.638c.005.255.066.415.202.54 2.62-1.194 6.667-1.404 9.508-.497.012-.097-.04-.181-.121-.3-.07-.1-.147-.212-.162-.35l-1.59-1.708c-2.735-.806-5.516.013-7.837 2.315zm.17.82-.058-.044c-.311-.233-.352-.548-.352-.825v-.05l.034-.035c2.367-2.369 5.335-3.243 8.143-2.4l.03.009 1.696 1.82v.047c0 .087.057.17.123.265.104.153.247.361.108.64l-.047.094-.098-.033c-2.82-.941-6.912-.735-9.515.48l-.064.031zm11.39-2.348c.172.243.342.497.515.756.711 1.066 1.446 2.167 2.528 2.75.96-1.61 2.65-1.206 4.14-.847.643.154 1.27.305 1.78.29-1.69-2.725-4.928-3.178-8.06-3.617l-.65-.091-.253.76zm3.14 3.825-.104-.051c-1.195-.597-1.971-1.76-2.72-2.884-.184-.275-.364-.545-.546-.8l-.036-.05.356-1.065.1.014.746.107c3.102.433 6.617.925 8.335 3.903l.093.16-.185.019c-.605.061-1.308-.107-2.052-.286-1.511-.363-3.07-.736-3.933.832l-.055.1zm6.892-2.49c.11.895.625 1.633 1.167 2.412.454.654.923 1.327 1.134 2.107 1.15-1.277 1.538-3.24 1.912-5.141l.086-.441-.258-.724c-.587.122-1.095.513-1.587.892-.716.553-1.454 1.12-2.454.895zm2.161 5.006-.043-.22c-.165-.825-.665-1.543-1.148-2.237-.57-.817-1.157-1.663-1.225-2.702l-.011-.174.166.052c.967.3 1.668-.24 2.408-.81.542-.418 1.104-.85 1.793-.957l.098-.015.35.975-.1.505c-.398 2.018-.808 4.104-2.129 5.424l-.159.159zm-14.018-.044c.144.043.297.097.455.152.725.257 1.546.545 2.137-.078-.965-3.236-4.14-3.312-7.212-3.384-.805-.019-1.566-.037-2.294-.11-.237.123-.517.216-.789.307-.633.21-1.233.411-1.4.943.859.213 1.886.238 2.97.264 2.194.053 4.68.113 6.133 1.906zm1.706.689c-.451 0-.918-.164-1.33-.31a8.955 8.955 0 0 0-.479-.159l-.037-.011-.024-.03c-1.38-1.734-3.716-1.79-5.976-1.846-1.146-.027-2.23-.053-3.14-.301l-.106-.029.02-.109c.142-.753.91-1.008 1.587-1.235.288-.095.559-.186.785-.307l.032-.017.036.004c.73.074 1.498.092 2.312.11 3.178.076 6.464.155 7.455 3.623l.018.062-.042.05a1.397 1.397 0 0 1-1.11.505zm-132.87.036c.363.058.634-.047.92-.16a3.38 3.38 0 0 1 .419-.146c1.367-.861 4.58-3.118 5.5-5.806l-.657-.549c-.837-.467-1.508-.611-2.054-.445-.812.249-1.272 1.169-1.76 2.142-.635 1.27-1.353 2.704-3.028 2.704h-.04c-.126.907.239 1.565.7 2.26zm.207.256c-.095 0-.195-.008-.302-.03l-.049-.01-.028-.04c-.5-.753-.936-1.516-.747-2.58l.018-.104.106.005.134.003c1.528 0 2.182-1.306 2.815-2.571.511-1.021.994-1.985 1.904-2.265.613-.19 1.35-.034 2.25.472l.018.012.792.66-.025.077c-.913 2.808-4.25 5.146-5.642 6.022l-.035.014c-.14.035-.27.087-.407.14-.244.097-.494.195-.802.195zm99.602-11.438c-.692 0-1.339.164-1.885.624-.826.695-.87 1.748-.915 2.765-.015.35-.03.71-.077 1.05.06 2.795 2.328 5.443 4.589 6.666l.067-.469c.207-1.092-.056-2.15-.311-3.174-.343-1.375-.667-2.675.114-3.953l.02-.025c.703-.651 1.404-.186 2.023.226.21.14.407.271.602.36.16.12.275.163.374.142.193-.038.35-.309.502-.57.11-.189.224-.384.364-.515-1.111-1.366-2.283-2.327-3.395-2.785-.698-.19-1.405-.342-2.072-.342zm1.9 11.474-.15-.077c-2.371-1.217-4.805-4.003-4.866-6.972.046-.348.062-.703.077-1.046.047-1.07.094-2.175 1-2.938 1.157-.975 2.694-.733 4.18-.327l.015.004c1.194.489 2.396 1.482 3.573 2.953l.084.106-.113.07c-.142.09-.268.305-.39.515-.178.308-.364.626-.663.685-.175.034-.35-.022-.544-.171a4.693 4.693 0 0 1-.61-.366c-.595-.396-1.155-.769-1.714-.261-.718 1.187-.407 2.435-.079 3.755.261 1.049.532 2.133.316 3.272l-.116.798zm39.288-.48c1.164 0 2.05.748 2.91 1.475.475.402.926.784 1.412 1.03.393-.968-.226-1.78-.88-2.636-.262-.344-.533-.697-.728-1.06-1.933-.884-4.747-1.765-7.295-1.029-.272.94.496 1.645 1.24 2.326.3.276.586.537.798.81.413.068.833.222 1.238.37.785.288 1.527.559 2.221.272-.03-.5-.37-.56-.794-.634-.375-.066-.8-.14-.96-.587l-.031-.088.303-.191a2.93 2.93 0 0 1 .566-.057zm4.437 2.826-.106-.05c-.557-.257-1.075-.694-1.577-1.118-.945-.799-1.919-1.624-3.25-1.37l-.078.053c.135.241.416.29.738.347.443.077.994.174.994.946v.076l-.069.032c-.805.382-1.655.07-2.476-.23-.411-.15-.836-.306-1.24-.367l-.049-.007-.03-.04c-.2-.268-.49-.534-.797-.815-.777-.713-1.659-1.52-1.287-2.637l.02-.06.06-.018c2.648-.792 5.574.128 7.561 1.04l.037.017.019.037c.187.356.46.714.725 1.061.693.908 1.409 1.846.857 2.997l-.052.106zm-141.776-1.71a1.378 1.378 0 0 0-.22 1.089 2.11 2.11 0 0 0 .93 1.333c1.99.649 4.052.284 6.234-.104 1.526-.27 3.105-.55 4.705-.468v-.142c-2.429-3.874-8.502-3.602-11.649-1.708zm3.131 3.015c-.848 0-1.686-.103-2.522-.376-.541-.33-.95-.915-1.064-1.504a1.612 1.612 0 0 1 .275-1.296l.035-.031c1.752-1.064 4.139-1.567 6.387-1.346 2.527.248 4.526 1.366 5.63 3.148l.017.029v.465l-.127-.007c-1.616-.101-3.224.183-4.776.457-1.321.235-2.599.461-3.855.461zm132.43-1.422c.591 1.376 1.444 2.61 2.597 3.763.334.534.416 1.181.495 1.807.12.934.232 1.82 1.084 2.238.132-.78.666-.962 1.278-1.172.29-.099.619-.21.95-.4.053-.05.093-.108.091-.148-.004-.075-.144-.174-.267-.26-.153-.108-.31-.219-.389-.376l-.035-.07.05-.06c.099-.12.125-.308.154-.507.045-.323.102-.724.531-.895l.043-.017.042.015c.578.206.557.893.536 1.5-.01.33-.02.67.063.904l.188-.188c1.163-1.162.647-2.4.1-3.711a12.567 12.567 0 0 1-.419-1.104c-.58-.281-.999-.027-1.482.265-.46.279-.982.594-1.676.373l-.06-.02-.017-.059c-.348-1.117-1.414-1.326-2.545-1.548-.445-.088-.904-.178-1.312-.33zm4.38 8.152-.149-.058c-1.115-.439-1.248-1.484-1.376-2.495-.076-.6-.155-1.22-.445-1.688-1.234-1.23-2.138-2.574-2.744-4.09l-.115-.286.278.133c.443.213.996.322 1.53.426 1.13.223 2.298.452 2.706 1.652.566.155.98-.1 1.421-.367.511-.309 1.038-.627 1.762-.25l.045.023.014.05c.11.368.27.755.426 1.129.552 1.326 1.123 2.697-.152 3.972l-.405.406-.082-.117c-.201-.287-.187-.742-.173-1.181.018-.555.034-1.081-.335-1.25-.263.128-.3.388-.34.687-.029.194-.056.393-.155.554.063.081.17.156.274.23.177.124.359.252.37.443.006.12-.057.236-.193.356-.37.214-.71.33-1.01.432-.643.22-1.068.365-1.137 1.13l-.016.159zm-13.333 4.19c1.339 1.089 3.753 2.334 5.958 2.334.067 0 .135-.001.203-.004.195-.46.132-1.104-.174-1.754-1.74.31-3.704.121-5.987-.575zm5.96 2.574c-2.531 0-5.327-1.594-6.552-2.776l.12-.2c2.521.84 4.65 1.077 6.505.726l.089-.017.04.081c.186.371.578 1.322.183 2.112l-.03.063-.071.003a5.505 5.505 0 0 1-.284.008zm-58.77-31.166c-3.51 3.737-5.303 9.188-5.185 15.773.097 5.383 1.488 11.321 3.822 16.335.49-1.023.487-2.392.483-3.507l-.001-.297c-.884-4.94-1.628-10.294-.178-16.379.235-.873.619-1.688.988-2.477.578-1.23 1.176-2.503 1.196-3.983-1.412-.697-1.268-2.26-1.142-3.642.062-.671.12-1.307.016-1.823zM92.761 68.6l-.097-.207c-2.41-5.087-3.849-11.156-3.947-16.649-.12-6.684 1.714-12.218 5.306-16.002l.034-.037h.266l.024.09c.149.574.084 1.274.016 2.015-.128 1.39-.259 2.827 1.073 3.437l.07.031v.077c0 1.566-.62 2.885-1.219 4.161-.366.78-.744 1.585-.973 2.435-1.438 6.035-.698 11.361.183 16.297l.003.318c.004 1.221.01 2.741-.624 3.836l-.115.198zm-17.887 6.446c1.61 0 2.811 1.156 3.98 2.284 1.02.983 2.072 1.998 3.39 2.23-.593-1.356-1.205-2.724-1.797-4.05-2.477-5.538-5.038-11.266-6.754-17.347-.23-.687-.355-1.44-.476-2.17-.163-.979-.33-1.99-.758-2.847h-.008c-1.864 0-2.015-1.52-2.148-2.864-.053-.535-.103-1.041-.248-1.453l-.34-.436c-.473.42-.586 1.252-.695 2.057a9.847 9.847 0 0 1-.2 1.147c-1.143 10.59.501 18.316 5.028 23.598.361-.103.702-.15 1.026-.15zm7.758 4.804-.206-.022c-1.497-.165-2.637-1.263-3.739-2.326-1.432-1.382-2.785-2.688-4.844-2.055l-.074.022-.051-.059c-4.611-5.336-6.29-13.14-5.134-23.856.094-.363.147-.755.199-1.136.122-.904.25-1.839.883-2.292l.094-.066.515.67c.159.443.211.97.267 1.528.136 1.383.265 2.703 1.987 2.647l.075-.002.034.066c.47.904.646 1.962.815 2.985.12.72.244 1.464.469 2.14 1.713 6.068 4.27 11.787 6.743 17.318.622 1.39 1.265 2.828 1.884 4.248l.083.19zm34.592-.08h.232c.178-4.028 1.64-6.782 4.238-7.974-.52-3.372-.356-7.346.44-10.654.05-.522.325-1.004.59-1.47.37-.648.722-1.263.488-1.997-.479.175-.9.47-1.31.757-.825.577-1.68 1.176-3.022.849-1.87-.4-3.414-2.349-4.008-3.195-3.178 9.443.55 19.642 2.352 23.685zm.462.24h-.618l-.032-.07c-1.815-4.051-5.677-14.515-2.314-24.158l.08-.227.134.2c.444.667 2.046 2.874 3.997 3.292 1.244.3 2.014-.24 2.832-.811.454-.32.925-.648 1.483-.827l.107-.034.041.104c.348.89-.064 1.613-.464 2.312-.265.464-.515.904-.561 1.39-.8 3.325-.958 7.307-.427 10.668l.015.09-.084.038c-3.266 1.444-4.078 5.103-4.185 7.918l-.004.116zm24.499.163c-.02 1.296.957 1.683 1.99 2.092.444.176.902.358 1.269.618l1.587-2.199 1.202 1.093c-.098-.435-.4-.765-.718-1.11a4.962 4.962 0 0 1-.512-.622l-1.509.692c-.523.11-1.048-.194-1.559-.487-.794-.457-1.312-.691-1.75-.077zm3.308 3.05-.097-.078c-.355-.28-.819-.463-1.31-.657-1.073-.425-2.183-.864-2.14-2.358l.001-.035.02-.029c.598-.878 1.39-.426 2.088-.024.468.268.953.547 1.377.463l1.666-.769.055.094c.14.24.333.45.538.674.4.437.816.89.816 1.575v.27l-1.439-1.307-1.575 2.18zm1.66-.68c-.88 1.21-.932 2.692-.844 4.014 2.012-.349 4.196-.45 6.37-.318l-.016-.023c-.205-.322-.314-.667-.42-1-.102-.324-.2-.632-.378-.907l-1 1.825-.107-.06c-.456-.262-.606-.736-.751-1.195-.132-.416-.257-.81-.595-1.047a5 5 0 0 0-.2.623c-.16.584-.328 1.186-.954 1.5l-.133.066-.037-.144c-.087-.33-.16-.676-.23-1.01-.168-.785-.34-1.596-.705-2.323zm5.685 3.707c2.046.136 4.072.481 5.92 1.028l.032-.121c.285-1.071.638-2.391.199-3.31-.35.317-.614.712-.87 1.097-.375.564-.765 1.148-1.417 1.438l-.081.037-.058-.067c-.234-.268-.316-.6-.393-.921-.061-.249-.12-.487-.243-.702-.125.194-.26.389-.392.582-.166.24-.332.48-.482.722l-.038.062-.074-.007c-.584-.048-.648-.58-.704-1.05a3.648 3.648 0 0 0-.062-.405l-1.337 1.617zm6.088 1.328-.12-.035c-3.882-1.171-8.588-1.443-12.586-.727l-.13.023-.01-.132c-.108-1.454-.073-3.12.998-4.46l.111-.14.087.156c.443.8.634 1.692.816 2.554.06.28.12.569.19.848.425-.282.558-.766.7-1.274.072-.266.148-.541.27-.786l.055-.11.11.058c.507.272.665.77.818 1.254.125.391.241.764.54.99l1.058-1.928.113.14c.275.346.403.747.526 1.134.084.269.172.544.31.8l1.472-1.78.077.177c.089.198.117.438.145.67.055.467.107.767.416.83.14-.222.292-.444.445-.665.167-.243.334-.485.486-.728l.09-.145.105.135c.226.29.306.62.385.938.066.275.13.536.285.749.54-.273.876-.78 1.232-1.313.292-.439.594-.892 1.028-1.245l.11-.088.07.12c.59 1.007.203 2.457-.107 3.62l-.095.36zm30.954 12.228c-.233 1.219.642 1.657 1.653 2.163.501.252 1.018.511 1.412.883l-.18-1.212c-.881-1.081-1.831-2.044-2.885-1.834zm3.145 3.497c-.37-.503-.995-.817-1.6-1.12-1.026-.514-2.086-1.046-1.763-2.503l.016-.073.072-.018c1.206-.305 2.264.746 3.221 1.925l.022.025.247 1.674-.215.09zm-9.513-3.21c.786 1.586.491 3.127.205 4.62l-.046.241a6.89 6.89 0 0 0 2.553-1.258c.127-.194.262-.385.396-.574.58-.818 1.128-1.591 1.033-2.677-.35-1.28-2.021-1.514-3.064-1.353a7.29 7.29 0 0 1-.257.115c-.538.233-.888.423-.82.887zm-.145 5.18.115-.607c.279-1.456.567-2.963-.192-4.481l-.011-.034c-.116-.699.504-.967.958-1.163.092-.04.18-.079.261-.119l.035-.011c1.131-.179 2.958.085 3.356 1.545.106 1.195-.494 2.04-1.073 2.858-.137.192-.274.385-.4.582l-.028.03a7.138 7.138 0 0 1-2.842 1.358l-.179.043zm3.805-.014a.467.467 0 0 0 .206.26c.068.04.178.076.319.04.305-.458.865-1.323.61-1.975l-1.135 1.675zm.41.555a.649.649 0 0 1-.324-.087.699.699 0 0 1-.332-.467l-.01-.048 1.405-2.075.1.149c.54.812-.195 1.913-.548 2.442l-.023.034-.04.013a.706.706 0 0 1-.228.039zm-54.262-1.75c.115.2.211.463.313.74.21.573.45 1.222.884 1.383.221.081.485.035.804-.144 1.372-.459 2.839-1.013 3.245-1.894-1.266-.497-2.662-.716-4.012-.93-.35-.054-.7-.109-1.047-.169-.226.089-.219.272-.187.58.016.146.03.297 0 .435zm1.42 2.402a.867.867 0 0 1-.306-.055c-.54-.199-.798-.903-1.026-1.524-.105-.287-.205-.558-.319-.742l-.029-.048.019-.052c.033-.103.018-.243.003-.39-.03-.293-.073-.692.376-.842l.028-.01.03.006c.357.062.715.118 1.076.174 1.403.221 2.854.45 4.176.988l.106.044-.038.107c-.37 1.046-1.959 1.653-3.419 2.14a1.387 1.387 0 0 1-.676.204zm52.923 1.47c1.245.704 3.177.513 4.225-.42.909-.737 1.244-1.874.877-2.97-.31-.725-1.062-1.432-2.063-1.378a.821.821 0 0 0-.596.334c-.295.397-.3 1.083-.209 1.591l.004.023-.004.022c-.229 1.201-1.529 2.26-2.636 2.544.041.03.09.056.143.083.082.043.174.09.259.17zm1.756.661c-.676 0-1.344-.15-1.888-.46l-.024-.02a.8.8 0 0 0-.214-.14c-.125-.064-.268-.138-.357-.317l-.072-.144.16-.027c.916-.162 2.376-1.098 2.633-2.375-.05-.296-.16-1.192.255-1.755.184-.247.44-.392.765-.43h.007c.959-.054 1.888.556 2.305 1.531a2.937 2.937 0 0 1-.947 3.24c-.659.586-1.65.896-2.623.897zm-56.236 1.884c.42.729.836.979 1.3.784 2.103-.354 4.074-.93 4.506-2.746-1.626.55-3.53.58-5.156.075-.575.598-.787 1.216-.65 1.887zm1 1.09c-.43 0-.841-.329-1.216-.986l-.014-.035c-.169-.784.081-1.497.762-2.177l.052-.051.07.022c1.658.533 3.628.488 5.27-.12l.193-.072-.034.204c-.402 2.419-3.317 2.905-4.717 3.138a.94.94 0 0 1-.365.077zm54.184 1.225c1.075.64 2.26.834 3.261.531.956-.28 1.839-1.224 1.684-2.327l-.825-1.002c-.377-.363-.677-.524-.885-.48-.274.055-.447.46-.63.887-.195.46-.418.978-.832 1.198-.224.181-.52.345-.804.504-.396.22-.771.429-.969.69zm2.288.91c-.83 0-1.709-.263-2.52-.77l-.097-.061.056-.099c.204-.367.651-.615 1.125-.878.277-.155.563-.314.79-.495.359-.192.554-.649.743-1.091.209-.488.405-.95.802-1.03.305-.06.654.114 1.105.548l.009.01.87 1.059.005.033c.198 1.245-.783 2.313-1.846 2.625-.332.1-.682.149-1.042.149zm-57.978 2.507c.203 0 .406.009.608.018.713.032 1.385.06 1.91-.276 1.16-.664 1.875-1.337 2.171-2.053-.334.141-.67.254-1.128.208-.697.16-1.341-.103-1.965-.355-.758-.306-1.414-.568-1.998-.015a6.253 6.253 0 0 1-.14.796c-.136.616-.265 1.198.08 1.697.151-.015.305-.02.462-.02zm1.202.275c-.2 0-.403-.01-.604-.017-.37-.017-.754-.034-1.102.007l-.068.008-.042-.053c-.46-.6-.309-1.285-.161-1.948.058-.268.12-.545.137-.807l.003-.045.032-.033c.705-.704 1.509-.38 2.289-.067.596.241 1.214.487 1.84.34l.02-.005.02.002c.474.047.802-.09 1.182-.253l.325-.14-.066.24c-.243.873-1.017 1.673-2.366 2.443-.42.27-.922.328-1.439.328zm-23.464-2.603c.446.245.889.502 1.323.754 1.809 1.049 3.676 2.131 5.706 2.31l-2.41-2.409c-1.457.163-2.767-.178-4.037-.507-.192-.049-.386-.1-.582-.148zm7.64 3.336-.307-.012c-2.21-.09-4.204-1.246-6.13-2.363-.694-.402-1.412-.819-2.124-1.175l.078-.224c.502.1 1.002.23 1.485.355 1.266.328 2.571.666 4.007.493l.058-.007.042.041 2.89 2.892zm61.642-.36c.78.696 1.74.954 2.611.706l-.117-.205c-1.196-2.1-2.434-4.275-2.317-7.025.14-1.085.941-1.754 1.715-2.4.267-.224.543-.454.792-.699.194-.574-.04-.699-.428-.9-.195-.103-.416-.218-.59-.414l-.036-.04.006-.053c.066-.597.27-1.092.625-1.511.485-1.046.31-2.418-.411-3.195l-.025-.042c-.341-.953-.16-2.004.452-2.617.972-1.074 2.52-1.065 3.872-1.06.28.002.548.002.805-.006.045-.193-.072-.268-.351-.395a2.374 2.374 0 0 1-.208-.102c-2.664-.387-5.333.845-7.157 3.3l-.057.076-.087-.039c-2.172-.953-2.031-3.12-1.895-5.218.024-.374.049-.763.058-1.133-.46-1.296-1.937-1.618-3.365-1.93a16.8 16.8 0 0 1-1.166-.283 3.904 3.904 0 0 0-.69-.234c-.664-.183-1.49-.41-1.34-1.358l.006-.04.027-.026c.781-.78 1.82-1.04 2.825-1.29.876-.219 1.781-.444 2.507-1.018l-.208-.29c-.373-.037-.756-.079-1.147-.122-2.166-.237-4.62-.505-6.597.002l-.074.02-.049-.061a2.801 2.801 0 0 0-.271-.277c-.215-.2-.435-.406-.483-.689-.002-.952.749-1.375 1.41-1.747.275-.155.535-.302.733-.474l-.927-1.175.117-.07c1.076-.646 2.293-.467 3.471-.295.454.066.921.136 1.367.153-.867-1.429-2.588-1.412-4.12-1.394-.32.002-.62.005-.904-.004-.53.047-1.01.376-1.472.693-.678.466-1.379.95-2.232.445l-.084-.05.032-.092c.15-.431.341-.854.527-1.263.493-1.09 1.004-2.215.745-3.6-.028-.395-.236-.57-.405-.65-.275-.132-.646-.095-.94.087-.073 2.182-1.147 4.424-2.952 6.16l-.072.068-.08-.057c-.607-.434-.773-1.028-.933-1.602a5.181 5.181 0 0 0-.202-.626l-1.154.81-.062-.03c-.419-.19-.504-.561-.58-.89-.046-.2-.088-.38-.195-.5-.124.184-.253.363-.38.537-.55.76-1.07 1.479-.989 2.475.154.32.314.495.476.52.28.037.62-.34.983-.742.479-.532 1.019-1.136 1.667-1.019l.053.009.028.045c.903 1.445.765 3.891.175 5.523.718.282.705.868.69 1.487a6.82 6.82 0 0 0 0 .513c.74.353 1.532.615 2.3.869 1.55.512 3.153 1.042 4.417 2.347l.05.052-.022.068c-.278.871-1.17 1.046-2.031 1.215-.422.083-.826.162-1.144.316.37.048.755.085 1.158.124 2.038.196 4.347.418 5.054 2.339l.01.027-.003.03c-.066.516-.33.73-.54.816-.352.144-.833.05-1.212-.234-.813-.19-2.71-.463-3.364.913-.318 1.02-.048 2.067.694 2.65 1.365 1.58 3.622 1.367 5.614 1.181.19-.018.379-.036.563-.051l.06-.005.04.045c.735.851.694 1.888.65 2.986-.027.676-.055 1.376.106 2.048.578 1.49 1.92 2.573 3.216 3.62 1.887 1.52 3.837 3.094 3.36 5.967zm1.946 1.039c-.752 0-1.516-.313-2.156-.906l-.049-.045.012-.064c.492-2.776-1.333-4.248-3.265-5.806-1.32-1.066-2.688-2.168-3.293-3.733-.174-.72-.146-1.436-.118-2.13.041-1.028.08-2-.552-2.772l-.5.046c-2.05.192-4.37.41-5.8-1.248-.804-.629-1.106-1.777-.752-2.91.743-1.564 2.813-1.257 3.667-1.052l.047.021c.316.246.714.334.992.219.215-.089.347-.29.39-.597-.666-1.754-2.788-1.958-4.841-2.155a27.49 27.49 0 0 1-1.496-.171l-.27-.042.213-.17c.386-.31.96-.422 1.515-.531.805-.158 1.566-.307 1.826-.986-1.215-1.225-2.767-1.737-4.269-2.233-.796-.264-1.62-.536-2.392-.912l-.062-.03-.005-.07a6.62 6.62 0 0 1-.005-.604c.015-.654.026-1.086-.642-1.295l-.121-.038.046-.12c.599-1.557.77-3.956-.083-5.377-.491-.054-.952.459-1.395.952-.406.45-.783.877-1.197.817-.252-.038-.47-.257-.665-.673l-.012-.04c-.099-1.097.477-1.89 1.033-2.66.15-.205.305-.419.445-.638l.064-.1.101.064c.263.164.329.45.392.726.064.28.125.546.386.695l1.27-.89.062.125c.125.25.202.526.276.795.142.506.288 1.03.763 1.41 1.732-1.698 2.754-3.874 2.807-5.984l.002-.06.05-.035c.374-.263.856-.316 1.228-.14.32.152.512.45.54.837.27 1.444-.256 2.606-.765 3.73-.17.372-.344.757-.484 1.146.684.348 1.242-.039 1.887-.483.488-.335.994-.682 1.602-.735.292.01.592.007.906.003 1.584-.015 3.542-.038 4.438 1.703l.09.175h-.197c-.526 0-1.077-.082-1.61-.159-1.089-.16-2.217-.326-3.193.196l.891 1.128-.075.075c-.228.228-.536.402-.863.585-.634.357-1.29.726-1.29 1.519.032.183.215.354.408.533.083.078.17.159.245.244 2.009-.494 4.451-.225 6.609.01.41.045.81.089 1.2.127l.053.005.4.56-.084.071c-.782.661-1.752.903-2.69 1.138-1.004.25-1.954.487-2.684 1.198-.085.656.389.837 1.172 1.052.25.068.507.14.714.242.336.098.72.182 1.13.272 1.43.311 3.052.666 3.549 2.106l.006.02v.022c-.01.381-.036.78-.06 1.165-.129 1.985-.261 4.037 1.666 4.944 1.88-2.48 4.628-3.72 7.35-3.313l.043.016c.062.038.134.07.205.102.267.121.635.288.454.772l-.03.075-.078.003c-.289.012-.587.01-.9.01-1.3-.011-2.793-.014-3.697.984-.538.54-.703 1.5-.409 2.349.774.852.958 2.332.429 3.457l-.017.026c-.318.372-.505.81-.573 1.34.14.141.315.233.486.322.4.21.814.426.534 1.218l-.028.045c-.261.26-.548.5-.827.733-.772.645-1.502 1.255-1.631 2.237-.112 2.67 1.054 4.718 2.288 6.885l.26.459-.135.047c-.286.1-.583.15-.882.15zm6.491.122c.985 1.442 2.735 1.345 3.976 1.14.426-.232 1.702-1.037 1.501-2.236-.161-.76-.655-1.246-1.354-1.325-.87-.105-1.769.458-2.187 1.355l-.028.04c-.268.24-.654.336-1.027.427-.548.135-.888.238-.88.6zm2.702 1.497c-1.059 0-2.184-.288-2.92-1.39l-.017-.027-.002-.031c-.044-.608.518-.747 1.06-.88.336-.083.683-.168.907-.359.467-.976 1.466-1.575 2.42-1.47.796.092 1.38.66 1.562 1.519.232 1.378-1.197 2.263-1.64 2.501l-.037.012a8.143 8.143 0 0 1-1.333.125zm-37.864-50.372c-.16 1.071.117 1.905.913 2.76.359.319.73.093 1.122-.147.077-.047.152-.093.226-.134-.294-.863-1.053-1.696-2.26-2.479zm7.59 8.189.037.156c.086.361.159.743.229 1.112.165.87.336 1.766.697 2.505.508-.84.87-1.829 1.13-3.09a15.25 15.25 0 0 0-2.093-.683zm-39.436 31.686c.743 0 1.472.11 2.042.491l.044.028.008.051c.138.78-.45 1.161-.97 1.496-.245.158-.475.307-.64.49-1.348 1.406-1.79 3.552-1.13 5.471.872 1.632 2.704 3.323 4.813 3.385l.03.004c.863.25 1.444.189 1.832-.195.354-.35.524-.936.705-1.556.325-1.12.693-2.388 2.288-2.615-.087-1.606.564-3.015 1.838-3.989-1.06-1.35-.415-2.573.157-3.657.618-1.168 1.15-2.177-.356-3.212l-.026-.019-.015-.029c-.242-.512-.149-1.029-.06-1.528.095-.534.186-1.041-.141-1.51-3.689-.449-7.264 1.219-10.572 3.092l-.052.03-.057-.025c-.974-.443-.88-1.636-.797-2.688.036-.469.071-.913.016-1.265-1.566-.187-2.83.76-4.158 1.76-.717.539-1.458 1.096-2.254 1.462l-.072.056c-.514.376-1.373 1.004-2.036.79-.308-.1-.534-.367-.671-.796l-.015-.05.024-.043c2.099-3.857 2.173-9.424.185-13.86-3.744-4.535-6.374-10.012-7.408-15.427-1.153-6.048-.316-11.853 2.422-16.787l.02-.027.094-.097c.172-.183.366-.393.6-.384.122.004.234.066.333.186l.027.032v.042c.01.402.019.81.026 1.222.09 4.763.19 10.154 3.354 13.764.088-.185.166-.38.24-.57.233-.586.474-1.193 1.068-1.512l.058-.031.535.305.007.06c.575 4.974 2.616 9.11 6.067 12.294h.313c1.276-2.06 1.83-4.377 2.417-6.83.146-.61.292-1.222.451-1.833l.044-.17.143.103c1.795 1.317 3.213 3.468 4.403 5.421.1-.278.172-.573.24-.859.16-.662.325-1.346.853-1.875l.068-.068.081.051c1.62 1.02 2.55 2.817 3.372 4.4l.054.104c5.413 2.178 10.531 6.6 13.373 11.555 3.19 1.725 8.11 1.896 11.72.403 1.56-.892 2.62-2.522 2.833-4.366-4.58-1.614-10.252-1.648-15.579-.088l-.089.026-.373-.612c-2.255-3.685-4.586-7.498-8.278-10.499l-.027-.021-.012-.034c-.488-1.467.346-2.659 1.152-3.812.637-.91 1.296-1.852 1.334-2.944-.236-.445-.517-.365-.938-.245-.31.087-.662.187-1.023.038-1.59.317-2.505 1.727-3.39 3.092-.149.23-.297.46-.446.68-.27.273-.546.391-.83.378-.598-.034-1.105-.677-1.475-1.145a6.567 6.567 0 0 0-.243-.3c-.559.389-.803 1-1.061 1.646-.135.337-.274.684-.46.996l-.082.134-.108-.113c-2.626-2.746-3.934-6.917-3.497-11.158.474-2.02 1.947-4.023 3.942-5.374l.027-.018.032-.003c.28-.019.581-.148.874-.274.616-.266 1.316-.568 1.904.2l.05.066-.045.07c-.588.92-1.836 3.275-.726 5.288.566 1.27 1.513 2.177 2.539 2.433 3.668.555 7.146-1.465 9.94-3.087 2.378-.968 4.278.13 6.115 1.192.752.435 1.53.885 2.313 1.17.274.135.547.437.54.738-.003.139-.067.33-.35.456-.695.255-1.472-.08-2.15-.419-.626-.082-1.26-.259-1.872-.43-1.18-.327-2.395-.666-3.612-.347l.183.255c.6.184 1.25.297 1.878.404 1.408.244 2.863.496 3.967 1.557l.023.023.009.03c.127.446-.028.807-.474 1.105l-.039.026-.046-.007c-.868-.127-1.746-.332-2.596-.53-1.125-.261-2.287-.533-3.406-.615v.21c.766.236 1.566.423 2.41.622 1.438.338 2.924.688 4.267 1.302l.083.037-.015.091a1.533 1.533 0 0 1-.658 1.053l-.04.027-.047-.009c-.535-.094-1.082-.211-1.611-.323-1.49-.317-3.027-.645-4.51-.536v.406c.773.19 1.629.236 2.458.28 1.361.072 2.77.146 3.87.867.263.197.322.413.326.56.007.263-.152.55-.436.787l-.037.03-5.083-.303c-.055.075-.13.135-.203.194-.164.133-.232.203-.198.313 1.125.318 2.404.297 3.635.277 1-.016 2.033-.033 2.984.13l.049.02.531.38-1.015 1.206c.052.2.103.4.153.602.33 1.313.643 2.557 1.64 3.509.242-1.379.625-2.792 1.632-3.916l.036-.04h.054c.642 0 .81.574.958 1.08.053.181.106.366.18.528l.673-1.63.101.025c.492.123.565.594.63 1.01.036.23.073.466.173.644l.869-1.679.093.025c.678.18.735.754.784 1.26.016.167.032.33.068.473l.952-1.455.087.029c.485.16.554.67.621 1.163.038.275.076.56.186.783l1.324-2.346c-3.03-.75-6.355-.777-8.303-.704l-.035.001-.502-.286-.01-.054c-.134-.667.197-1.064.579-1.446l.023-.023.03-.008c.618-.167 1.314-.268 1.987-.365 1.665-.24 3.382-.487 4.202-1.744-.72.342-1.463.677-2.24.456l-.12-.036.04-.119c.47-1.345-.255-1.859-1.095-2.453l-.262-.188c.356.422.6.857.735 1.309l.03.096-.091.046a3.876 3.876 0 0 0-.298.171c-.408.25-.915.558-1.416.114-.892-.958-1.183-1.928-.95-3.15l.033-.173.149.094c.358.224.678.45.963.679a1.773 1.773 0 0 1-.295-1.068l.001-.053.04-.035c1.142-.97 2.703-.927 4.217-.883 1.19.033 2.425.067 3.405-.41.444-.128.718-.315.858-.581.26-.496.023-1.205-.208-1.89-.17-.51-.332-.99-.29-1.384l.013-.133.131.029c1.164.257 1.853 1.48 2.271 2.375 1.263 3.129-.402 5.533-2.013 7.859-.197.285-.395.568-.583.85.105.589.7.617 1.461.59.087-.003.172-.006.252-.007 2.3-2.072 3.64-4.765 3.877-7.791.297-1.355-.519-2.37-1.307-3.353-.945-1.175-1.92-2.39-.875-4.098.4-2.054.938-7.024-2.566-9.337l-.08-.053.034-.09c.248-.65.532-1.299.805-1.927.8-1.827 1.625-3.716 1.678-5.9-.982-1.7-3.019-1.304-4.987-.921-.622.121-1.21.236-1.752.28l-.058.004-.04-.044c-1.44-1.605-3.455-1.446-5.402-1.292-2.24.18-4.552.36-5.95-2.14-5.41-.614-9.928-.274-13.732 1.039 1.318-.338 2.688-.582 4.146-.542l.058.001.035.046c.05.066.122.124.2.186.185.145.414.325.304.655l-.019.056-.057.018c-.644.215-1.288.42-1.932.625-3.067.974-5.963 1.894-8.551 3.736l-.135.164c-.6.698-1.407 1.642-1.063 2.294 2.045-1.704 4.386-2.785 6.613-3.7 1.51-.603 3.385-1.353 5.064-.855l.143.043-.413.718c-.933.634-1.92 1.205-2.876 1.758-2.348 1.356-4.775 2.76-6.577 5.204-.026.04-.06.087-.096.138-.17.24-.382.538-.333.77.018.09.078.166.18.235 1.497-.163 2.643-1.21 3.751-2.222.684-.625 1.391-1.27 2.179-1.71.304-.123.596-.265.906-.415.98-.475 1.994-.964 2.96-.627l.108.038-.035.11c-.34 1.097-1.003 2.066-1.645 3.003-1.006 1.471-1.957 2.861-1.812 4.733.09.412.384.475.757.554.246.052.52.11.737.296 5.117-1.208 9.18-1.075 12.081.398-.182-.731-.782-1.311-1.363-1.874-.11-.105-.217-.21-.322-.314-.846-.845-1.966-1.123-3.05-1.392-1.144-.284-2.327-.578-3.213-1.527l-.053-.087c-.216-.389-.486-.872-.345-1.308.075-.234.263-.422.557-.56l.05-.01c2.671 0 4.993.917 7.238 1.805l.259.111c1.07 1.004 2.371 1.532 3.628 2.042.998.404 2.03.822 2.926 1.474l.043.032.006.054c.091 1.008-.72 1.32-1.434 1.596-.243.094-.476.183-.658.294.262.158.544.29.818.418.65.302 1.322.615 1.742 1.286l.055.089-.08.067c-1.085.919-2.16.84-3.3.759-.538-.04-1.095-.079-1.67-.012-.055.243.185.435.566.713.374.276.8.588.8 1.061v.055l-.042.036c-1.59 1.37-3.518 2.306-6.066 2.943l-.064.016-.048-.045c-.62-.586-.237-1.107.072-1.526.35-.475.55-.795.154-1.225-1.182.258-2.108-.142-3.002-.528-.821-.354-1.6-.69-2.519-.49.232.656.817 1.15 1.385 1.628.64.54 1.302 1.098 1.496 1.905l.028.116-.116.029c-1.39.335-3.036-.178-4.359-.589-.234-.072-.46-.143-.674-.205l2.823 2.825-.01.062c-.178.974-1.083 1.124-1.882 1.258-.39.065-.792.131-1.1.286l-.034.017-.038-.006c-1.495-.23-3.05-.573-4.208-1.988-1.413-1.079-1.359-2.8-1.307-4.463.016-.5.031-1.017.007-1.51-.96-.763-2.09-1.158-3.283-1.575-1.528-.535-3.107-1.088-4.29-2.478-1.478-1.569-1.872-3.984-1.196-7.369-.92 1.621-1.17 3.94-.661 6.354.002 1.974-1.476 3.322-2.357 3.951-.698.352-1.483-.001-2.013-.296l-.05-.028-.01-.055c-.359-1.97-.828-4.005-2.235-5.371-3.321 4.675-4.465 11.447-3.06 18.15l.01.046-.025.04c-.136.22-.281.338-.447.36-.245.032-.462-.158-.666-.347-.123-.114-.251-.232-.36-.263l-.043-.013-.025-.037c-4.051-6.2-2.788-15.74.72-21.35-1.65 1.184-3.178 3.294-4.154 5.769-.262.497-.423 1.044-.58 1.573-.212.718-.432 1.46-.894 2.1l-.023.033-.04.012c-.413.118-.648-.151-.834-.369l-.057-.064c-2.75 2.58-3.296 6.166-3.825 9.635l-.01.032c-.12.26-.134.618-.148.963-.025.65-.054 1.387-.86 1.476l-.101.01-.028-.098c-2.281-8.343-.2-16.882 5.43-22.29.631-1.124 1.704-1.764 2.742-2.383 1.522-.908 2.837-1.693 2.522-3.787l-.004-.026.008-.026c.843-2.719 3.604-4.281 5.885-4.618-.66-1.341.33-2.46 1.13-3.366.266-.3.519-.587.7-.86-9.33 2.166-17.218 11.565-20.922 19.99l-.021.032c-.228.25-.233.618-.239 1.007-.007.535-.015 1.14-.73 1.338l-.117.032-.031-.118c-1.576-6.041-.334-12.51 3.691-19.23l-3.836.972-.848-.495.02-.086c.219-.91.8-1.654 1.362-2.373.338-.433.686-.877.95-1.356-3.136.944-12.007 4.271-12.774 11.792l-.006.026c-1.427 4.234-1.653 9.108-1.87 13.823-.04.88-.081 1.755-.129 2.617l-.017.075c-.094.38-.223.903-.587 1.122a.737.737 0 0 1-.578.068l-.046-.012-.026-.04c-2.934-4.628-4.567-10.095-4.988-16.706-.889.826-1.548 1.823-2.186 2.79-.627.95-1.22 1.847-2.004 2.573l-.099.092-.079-.108c-.482-.655-.625-1.462-.764-2.243-.11-.617-.222-1.254-.502-1.807-.467-.183-.728.079-1.054.406-.162.162-.33.328-.532.44-3.634 7.296-3.903 17.857-.824 32.282l.007.033-.344.928c-.147.149-.283.215-.439.207-.24-.015-.405-.228-.564-.433-.096-.123-.196-.251-.29-.298l-.043-.022-.016-.046c-1.79-5.025-3.922-8.948-6.708-12.34l-.15-.07c-.492-.23-.889-.374-1.132.032-.302.38-.445.876-.584 1.355-.197.683-.4 1.389-1.043 1.729l-.113.06-.08-.179c-1.3-2.896-2.774-6.178-5.761-8.03-1.234-.408-2.438.1-3.266.64 4.631 4.037 8.096 9.271 10.577 15.985l.054-.356c.272-1.799.611-4.037 1.778-5.682l.024-.034.04-.01c.68-.207 1.402.4 1.886.946 4.227 8.011 5.24 17.102 5.657 25.779 1.77-4.534 2.64-9.393 2.583-14.454l.003-.03c.03-.121.126-.416.358-.543a.496.496 0 0 1 .404-.028l.048.017.022.045c.86 1.768 1.59 3.693 2.296 5.555.933 2.457 1.82 4.792 2.977 6.814-1.402-6.427-3.311-13.806-6.703-20.53-.11-.29-.308-1.098.032-1.479.159-.178.397-.228.711-.15l.04.01.025.032c2.17 2.728 4.138 4.959 6.639 6.927-.054-1.138.14-1.937.594-2.435l.026-.03.039-.007c.708-.14 1.12.26 1.452.647l.018.031c3.016 6.94 6.916 12.278 11.919 16.311l.863-3.166c.191-.93.605-1.827 1.004-2.694.443-.962.865-1.877.973-2.787-1.026 1.11-1.898 2.633-2.66 4.643l-.092.24-.125-.224c-4.587-8.123-9.618-17.694-11.259-28.487l-.004-.03.356-.996.116.047c.793.323 1.523.833 2.23 1.327.735.512 1.494 1.041 2.323 1.361.174-.652.297-1.336.427-2.057.377-2.103.767-4.277 2.5-5.6l.188-.144.004.238c.059 4.317.225 9.278 1.454 13.523.112.314.224.636.336.958.883 2.538 1.795 5.16 3.52 7.24l.275-.196c-.342-2.144-.478-4.414-.415-6.939l.013-.05c.046-.093.076-.213.108-.34.087-.346.195-.777.705-.879l.065-.014.045.049c.802.842 1.315 1.836 1.81 2.797.233.451.455.88.702 1.289.824-1.74 1.756-3.119 2.848-4.21l.022-.022.03-.008c.31-.09.542.02.745.116.115.054.222.104.34.124l.084.014.178 1.02c.714 4.112 1.452 8.364 3.59 11.909 3.473 3.639 5.392 8.195 5.852 13.91l.003.036-.019.033c-.19.329-.339.73-.497 1.156-.393 1.059-.798 2.154-1.907 2.246l-.117.01-.012-.118c-.332-3.454-1.221-6.27-2.717-8.606-.42.25-.594.734-.777 1.247-.243.679-.493 1.381-1.337 1.627l-.081.024-.05-.069c-1.412-1.963-1.97-4.323-2.51-6.605a80.619 80.619 0 0 1-.243-2.166c-.157-1.528-.32-3.104-.642-4.47-1.854 4.585-2.704 9.776-2.528 15.438l.662.827c2.7-.363 5.105-1.367 7.353-3.067l.07-.054.558.4-.013.073c-.542 3.254-1.778 6.436-3.887 9.999 2.298.668 4.819.48 6.94-.524l.068-.033.06.05c1.234 1.02.72 2.901.344 4.277-.052.193-.103.377-.145.547 3.231-.226 5.679-.837 7.69-1.92l.066-.036.06.044c.315.223.483.482.499.77.034.617-.641 1.217-1.134 1.654-.069.061-.147.13-.22.197l3.085-1.185c.156-.014.319-.032.486-.05.508-.055 1.068-.117 1.621-.117zm5.103 11.806c-.28 0-.598-.052-.958-.155-1.934-.064-3.9-1.447-5.01-3.528-.696-2.02-.233-4.263 1.174-5.73.183-.204.438-.369.684-.528.489-.315.95-.613.873-1.202-.924-.584-2.33-.431-3.461-.307l-.474.049-3.639 1.404.028-.202c.023-.158.204-.325.548-.631.457-.406 1.082-.96 1.055-1.461-.012-.198-.122-.376-.34-.545-2.063 1.095-4.571 1.706-7.883 1.923l-.16.01.036-.156c.048-.215.114-.456.185-.715.352-1.288.831-3.045-.21-3.98-2.206 1.02-4.821 1.188-7.188.46l-.145-.045.078-.131c2.124-3.564 3.372-6.736 3.923-9.975l-.294-.21c-2.28 1.71-4.722 2.713-7.462 3.07l-.067.01-.796-.996-.001-.04c-.187-5.85.715-11.204 2.683-15.913l.137-.326.089.341c.387 1.46.565 3.188.737 4.858.074.709.148 1.442.24 2.147.526 2.22 1.072 4.527 2.42 6.439.662-.233.874-.827 1.098-1.454.203-.568.414-1.157.991-1.431l.096-.045.057.087c1.534 2.36 2.452 5.202 2.8 8.684.873-.15 1.235-1.128 1.586-2.076.15-.403.304-.819.495-1.159-.46-5.64-2.356-10.137-5.799-13.75-2.177-3.603-2.919-7.877-3.636-12.01l-.149-.857a1.781 1.781 0 0 1-.318-.125c-.182-.086-.34-.163-.55-.11-1.102 1.109-2.042 2.522-2.87 4.318l-.092.2-.118-.185a19.1 19.1 0 0 1-.828-1.496c-.478-.926-.972-1.883-1.724-2.69-.307.093-.38.382-.457.686-.033.13-.064.255-.114.364-.062 2.528.077 4.8.425 6.942l.012.074-.576.41-.072-.083c-1.799-2.127-2.732-4.808-3.634-7.4-.112-.323-.224-.645-.338-.965-1.217-4.198-1.4-9.072-1.463-13.346-1.5 1.28-1.865 3.321-2.22 5.298-.132.74-.27 1.505-.465 2.205l-.035.124-.12-.043c-.908-.325-1.718-.89-2.502-1.437-.66-.46-1.343-.936-2.068-1.252l-.251.703c1.625 10.643 6.563 20.104 11.1 28.154.81-2.071 1.745-3.619 2.854-4.728l.214-.214-.01.303c-.034 1.067-.513 2.106-1.018 3.206-.395.855-.802 1.74-.99 2.649l-.96 3.527-.144-.115c-5.098-4.067-9.064-9.466-12.123-16.5-.363-.42-.677-.647-1.172-.562-.421.489-.582 1.305-.49 2.494l.021.268-.214-.164c-2.61-2.017-4.632-4.297-6.862-7.099-.203-.044-.345-.015-.436.087-.217.242-.124.873.008 1.223 3.526 6.986 5.453 14.683 6.873 21.29l-.22.088c-1.357-2.18-2.38-4.876-3.37-7.482-.698-1.84-1.42-3.741-2.264-5.487a.248.248 0 0 0-.166.023c-.118.065-.2.235-.238.377.058 5.278-.886 10.339-2.805 15.043l-.23-.04c-.401-8.815-1.361-18.09-5.64-26.207-.411-.458-1.03-.994-1.583-.863-1.114 1.595-1.446 3.784-1.712 5.545-.043.285-.085.558-.127.813l-.075.452-.156-.431c-2.499-6.94-6.026-12.311-10.785-16.421l-.118-.101.128-.09c.874-.6 2.213-1.217 3.632-.744 3.053 1.89 4.544 5.175 5.851 8.087.468-.315.637-.9.815-1.517.145-.502.296-1.022.618-1.425.365-.61 1.006-.31 1.43-.113.06.029.116.054.17.078l.045.034c2.805 3.41 4.951 7.35 6.752 12.393.123.078.227.21.327.341.127.164.258.332.39.34.073.01.148-.034.236-.118l.283-.793c-3.087-14.486-2.803-25.099.869-32.441l.017-.036.036-.017c.185-.093.349-.257.507-.415.335-.335.716-.714 1.356-.44l.04.017.02.037c.31.594.43 1.266.545 1.915.132.74.256 1.443.643 2.03.715-.69 1.275-1.538 1.867-2.435.69-1.045 1.404-2.125 2.412-3.003l.184-.16.014.243c.392 6.663 2.008 12.157 4.94 16.798.135.027.25.01.35-.051.279-.168.4-.653.479-.974l.013-.053c.045-.84.085-1.712.125-2.592.218-4.726.444-9.612 1.879-13.876.814-7.888 10.319-11.227 13.213-12.063l.257-.075-.115.241c-.285.597-.703 1.13-1.105 1.646-.553.708-1.075 1.376-1.296 2.196l.61.355 4.308-1.093-.152.25c-4.083 6.707-5.377 13.157-3.848 19.172.405-.165.432-.524.439-1.07.005-.41.011-.834.287-1.15 3.767-8.556 11.826-18.107 21.35-20.17l.243-.053-.11.224c-.185.368-.517.744-.87 1.142-.82.929-1.75 1.982-1.018 3.242l.091.158-.18.021c-2.231.272-5.007 1.78-5.85 4.45.322 2.23-1.117 3.09-2.64 3.998-1.016.606-2.066 1.232-2.664 2.31l-.023.028c-5.552 5.324-7.619 13.732-5.405 21.964.478-.105.52-.545.546-1.23.015-.364.03-.74.163-1.04.54-3.54 1.102-7.2 3.986-9.84l.084-.077.082.081c.05.05.098.107.145.162.188.218.318.351.549.304.42-.6.63-1.308.832-1.993.16-.54.325-1.097.592-1.605 1.083-2.745 2.852-5.062 4.725-6.186l.16.17c-3.695 5.458-5.143 15.232-1.055 21.532.146.057.282.183.413.303.163.15.326.31.471.286.08-.01.164-.081.25-.208-1.415-6.806-.224-13.682 3.19-18.403l.078-.11.1.093c1.525 1.402 2.024 3.502 2.397 5.54.482.263 1.162.554 1.723.275.828-.593 2.244-1.88 2.244-3.722-.58-2.739-.186-5.388 1.056-7.061l.213.098c-.839 3.637-.51 6.186 1.004 7.792 1.145 1.347 2.692 1.888 4.19 2.412 1.177.412 2.395.838 3.396 1.65l.04.034.004.053c.03.517.012 1.06-.003 1.582-.053 1.677-.103 3.262 1.233 4.285 1.114 1.357 2.604 1.694 4.041 1.917.335-.158.74-.226 1.134-.292.77-.128 1.5-.25 1.672-1.004l-3.36-3.36.42.105c.341.085.72.203 1.121.328 1.257.39 2.81.874 4.11.61-.208-.668-.78-1.15-1.384-1.66-.629-.53-1.279-1.078-1.5-1.865l-.032-.117.117-.03c1.059-.28 1.942.102 2.797.471.877.378 1.78.77 2.92.5l.065-.016.048.047c.622.624.23 1.156-.087 1.585-.338.458-.529.766-.145 1.163 2.454-.62 4.32-1.525 5.858-2.837-.033-.326-.371-.574-.698-.815-.402-.295-.819-.6-.627-1.062l.027-.065.069-.008c.625-.084 1.218-.04 1.792 0 1.062.078 2.064.149 3.047-.635-.384-.552-.967-.823-1.581-1.11-.335-.156-.683-.317-1-.529l-.135-.09.126-.103c.224-.183.535-.303.865-.43.681-.262 1.326-.51 1.284-1.296-.862-.616-1.818-1.004-2.83-1.415-1.271-.515-2.585-1.048-3.685-2.072l-.2-.079c-2.216-.876-4.509-1.783-7.123-1.788-.22.107-.354.239-.406.404-.11.336.133.77.326 1.118l.036.062c.822.875 1.918 1.148 3.079 1.435 1.116.277 2.27.563 3.162 1.456.103.103.21.206.317.311.674.65 1.37 1.324 1.48 2.252l.027.23-.204-.111c-2.871-1.557-6.974-1.717-12.193-.475l-.065.016-.047-.048c-.173-.172-.413-.223-.668-.278-.384-.081-.82-.174-.944-.754-.153-1.971.867-3.462 1.852-4.902.608-.89 1.237-1.809 1.577-2.825-.844-.23-1.769.218-2.663.651-.3.146-.61.297-.908.416-.75.42-1.446 1.055-2.12 1.67-1.148 1.049-2.334 2.133-3.931 2.288l-.04.004-.033-.02c-.18-.108-.289-.247-.324-.412-.07-.333.176-.68.373-.958a4.45 4.45 0 0 0 .095-.137c1.834-2.49 4.284-3.905 6.653-5.274.944-.546 1.92-1.11 2.837-1.732l.217-.389c-1.567-.39-3.33.315-4.757.886-2.25.923-4.613 2.016-6.657 3.75l-.095.081-.078-.1c-.622-.807.317-1.903 1.003-2.702l.156-.183c2.64-1.884 5.69-2.853 8.639-3.79a149.75 149.75 0 0 0 1.867-.602c.017-.12-.064-.198-.238-.336a1.47 1.47 0 0 1-.205-.182c-2.208-.051-4.222.562-6.169 1.151l-.085-.223c4.262-2.019 9.493-2.638 15.988-1.895l.062.007.03.055c1.322 2.423 3.472 2.251 5.752 2.072 1.987-.157 4.043-.32 5.558 1.326.512-.047 1.073-.156 1.666-.272 1.967-.382 4.197-.817 5.258 1.067l.016.028-.001.033c-.045 2.246-.885 4.167-1.698 6.025-.26.597-.529 1.212-.767 1.828 3.55 2.422 2.993 7.478 2.585 9.55l-.016.04c-.975 1.574-.09 2.675.847 3.84.823 1.027 1.675 2.089 1.357 3.538-.242 3.088-1.62 5.848-3.988 7.966l-.035.031h-.045c-.09 0-.188.003-.29.006-.672.024-1.594.055-1.714-.84l-.006-.045.025-.037c.198-.297.405-.595.612-.894 1.575-2.273 3.202-4.623 1.99-7.626-.375-.807-.985-1.899-1.961-2.2.009.322.142.72.283 1.14.247.734.5 1.492.193 2.079-.172.326-.494.552-.984.693-1.014.495-2.274.46-3.498.426-1.446-.04-2.943-.083-4.013.792 0 .89.633 1.339 1.302 1.812.818.58 1.664 1.179 1.225 2.603.676.138 1.357-.189 2.019-.503.09-.044.18-.086.269-.127l.3-.138-.142.298c-.78 1.652-2.703 1.93-4.562 2.198-.684.099-1.332.192-1.927.35-.326.328-.583.646-.501 1.154l.347.198c2.486-.09 7.145-.015 10.654 1.47l.09.037-.02.096c-.285 1.428-.695 2.523-1.293 3.446l-.108.167-.097-.174c-.447-.804-.636-1.798-.82-2.759-.049-.264-.1-.535-.157-.799l-1.271 2.254-.111-.138c-.23-.289-.285-.681-.336-1.06-.057-.419-.107-.785-.376-.932l-1.091 1.67-.095-.186c-.114-.229-.14-.505-.168-.771-.044-.46-.084-.86-.516-1.022l-.94 1.819-.117-.116c-.238-.239-.291-.584-.345-.917-.062-.404-.121-.67-.353-.78l-.77 1.86-.125-.18c-.161-.228-.246-.52-.329-.803-.158-.54-.277-.88-.674-.906-.992 1.133-1.344 2.577-1.576 3.97l-.035.211-.162-.139c-1.18-1.02-1.533-2.422-1.874-3.778-.055-.22-.11-.44-.17-.659l-.016-.06.93-1.103-.298-.213c-.922-.154-1.932-.137-2.912-.121-1.272.02-2.588.042-3.76-.303l-.051-.014-.023-.047c-.162-.324.08-.522.243-.652a.722.722 0 0 0 .183-.185l.035-.07 5.136.305c.203-.18.32-.39.316-.566-.004-.137-.08-.262-.225-.37-1.04-.681-2.415-.754-3.745-.825-.873-.046-1.776-.093-2.596-.31l-.089-.023v-.81l.11-.01c1.553-.14 3.147.202 4.69.53.511.11 1.039.221 1.554.314.309-.224.443-.53.498-.777-1.298-.58-2.74-.918-4.136-1.247-.88-.206-1.71-.402-2.51-.653l-.084-.027v-.64l.127.008c1.177.07 2.395.354 3.572.63.83.192 1.687.391 2.531.519.318-.225.426-.47.347-.784-1.048-.991-2.455-1.235-3.817-1.47-.65-.112-1.321-.228-1.946-.424l-.039-.012-.424-.593.158-.05c1.335-.417 2.643-.052 3.907.3.611.17 1.243.346 1.857.426l.04.012c.636.318 1.366.64 1.971.419.13-.058.198-.137.2-.24.004-.186-.2-.415-.395-.513-.79-.287-1.577-.741-2.338-1.18-1.787-1.035-3.634-2.104-5.89-1.187-2.811 1.632-6.325 3.675-10.093 3.108-1.107-.277-2.114-1.233-2.704-2.562-1.14-2.064.064-4.447.691-5.45-.46-.538-.975-.315-1.567-.06-.3.129-.609.263-.92.29-1.932 1.32-3.357 3.26-3.813 5.2-.421 4.096.818 8.137 3.323 10.834.14-.26.254-.546.365-.823.273-.682.555-1.388 1.238-1.813l.081-.052.068.068c.096.097.204.233.328.391.343.434.81 1.026 1.302 1.055.216.008.422-.083.63-.29.135-.202.282-.43.431-.66.875-1.351 1.868-2.882 3.583-3.203l.038-.007.034.015c.293.135.597.048.893-.036.423-.12.904-.258 1.23.396l.014.027v.029c-.028 1.178-.715 2.159-1.378 3.107-.802 1.145-1.56 2.228-1.132 3.566 3.708 3.022 6.045 6.843 8.304 10.537l.278.455c5.385-1.555 11.112-1.503 15.729.15l.088.031-.009.094c-.196 1.959-1.31 3.697-2.977 4.65-3.693 1.53-8.72 1.348-11.97-.424l-.03-.016-.016-.03c-2.778-4.86-8.003-9.373-13.313-11.496l-.04-.017-.096-.183c-.793-1.53-1.689-3.26-3.205-4.256-.428.472-.572 1.065-.723 1.693-.09.373-.182.758-.34 1.12l-.093.211-.119-.197c-1.173-1.936-2.568-4.104-4.323-5.451-.142.551-.274 1.104-.406 1.656-.57 2.385-1.16 4.85-2.482 6.957l-.036.056h-.538l-.035-.032c-3.502-3.215-5.577-7.391-6.17-12.414l-.313-.178c-.475.286-.682.807-.9 1.357-.099.25-.2.507-.331.749l-.081.15-.114-.126c-3.337-3.676-3.44-9.188-3.531-14.051l-.025-1.178c-.066-.067-.112-.068-.13-.07h-.003c-.126 0-.286.171-.414.308a3.217 3.217 0 0 1-.087.091c-2.704 4.882-3.53 10.626-2.388 16.613 1.027 5.38 3.643 10.824 7.367 15.331l.017.027c2.015 4.485 1.949 10.12-.162 14.041.113.323.281.522.501.594.545.18 1.343-.408 1.82-.757l.092-.067c.794-.368 1.525-.917 2.232-1.448 1.332-1.003 2.711-2.038 4.421-1.796l.083.012.017.082c.084.397.045.892.003 1.417-.078.998-.159 2.03.604 2.424 3.344-1.889 6.96-3.556 10.718-3.083l.05.005.03.041c.423.564.317 1.16.215 1.737-.084.472-.165.92.028 1.355 1.648 1.15 1.017 2.347.405 3.504-.577 1.093-1.174 2.223-.105 3.489l.083.098-.104.076c-1.303.946-1.955 2.355-1.835 3.966l.008.116-.115.012c-1.532.164-1.87 1.33-2.198 2.458-.188.65-.366 1.265-.766 1.66-.282.277-.639.414-1.094.414zm6.904.202c.227 0 .445.002.652.01.9-.27 1.879-.957 2.146-1.713-1.719.85-3.497.128-5.048-.645-.612.329-1.016.956-1.092 1.697.834.655 2.057.655 3.16.65h.182zm.681.251h-.02c-.263-.012-.544-.01-.844-.011-1.154-.002-2.462.003-3.36-.746l-.048-.04.005-.062c.067-.873.547-1.614 1.282-1.981l.053-.027.054.027c1.58.79 3.407 1.55 5.113.55l.212-.124-.032.243c-.133.988-1.334 1.854-2.396 2.165l-.019.006zm46.942-2.04c1.105 1.865 3.527 2.098 4.601 2.105.182-.153.397-.262.606-.369.54-.273.93-.47.663-1.235-.246-.682-.56-1.1-.96-1.278-.607-.27-1.372.04-2.18.366-.866.352-1.835.746-2.73.41zm4.692 2.344h-.046c-2.438 0-4.272-.933-5.03-2.562l-.17-.36.34.208c.88.538 1.884.13 2.855-.263.855-.348 1.664-.678 2.366-.363.463.206.819.67 1.09 1.416.337.964-.257 1.266-.781 1.53-.21.106-.425.215-.59.363l-.034.03zm-57.98 1.084c-.02.053-.04.111-.061.173-.14.394-.35.99-.185 1.32.055.11.151.185.291.228 1.363.132 3.779.105 4.964-1.44-.857.178-1.638-.278-2.333-.682-.605-.354-1.178-.686-1.695-.544-.353.095-.675.405-.982.945zm1.047 2.006c-.384 0-.74-.022-1.049-.05-.227-.068-.373-.187-.459-.356-.21-.42.012-1.049.173-1.507a4.5 4.5 0 0 0 .063-.18l.01-.02c.342-.607.713-.956 1.134-1.07.617-.169 1.23.19 1.877.569.771.449 1.568.915 2.458.569l.33-.128-.184.302c-.93 1.533-2.846 1.871-4.353 1.871zm-42.674 58.653h50.3v-32.14h-8.54v-24.965l.447-.521.078.026c.667.236 1.347.099 2.005-.035.325-.066.661-.133.987-.154 1.506-.237 2.077-1.292 2.682-2.409.58-1.07 1.18-2.176 2.66-2.5l.092-.151c.6-.978 1.276-2.077 1.066-3.07l-.753.526a6.514 6.514 0 0 0-.532.16c-.725.24-1.624.533-2.203-.203l-.115-.148.182-.042a7.779 7.779 0 0 0 2.875-1.317c1.307-1.31 2.317-2.45 2.268-4.017l-.052.01c-.98.175-2.093.373-2.928-.044l-.2-.1.193-.111c.137-.08.272-.173.402-.264.275-.192.559-.391.905-.478 1.626-.845 2.303-2.786 2.395-4.37-.404.059-.767.238-1.148.428-.321.16-.653.324-1.008.406-.72.266-1.682.184-2.018-.489l-.063-.125.134-.042c1.278-.397 3.547-1.36 4.507-3.377-2.03-1.626-4.76-1.869-7.399-2.103l-.05-.005-.033-.04c-1.154-1.457-3.622-1.322-4.995-1.11l-.14.02.002-.141c.02-1.374.001-2.585-.016-3.757-.038-2.466-.07-4.595.26-7.318l.013-.1 3.2-.187c2.451-.446 4.14 1.065 5.773 2.523.86.77 1.75 1.565 2.735 2.047 5.417 3.314 12.13 3.962 17.527 1.699l.095-.04.054.087c3.366 5.401 7.822 9.637 12.224 11.624l.04.03c1.213 1.381 2.663 2.457 4.065 3.497 1.653 1.227 3.214 2.386 4.392 3.988l.035.048-.017.057c-.89 2.923.9 5.273 2.565 6.734 1.298.623 3.762 1.51 5.855.56.68-1.907 1.912-1.562 3.102-1.23.949.263 1.93.537 2.748-.23l.033-.021c1.455-.648 2.247-2.171 2.117-4.076.041-.459-.247-.905-.525-1.337-.302-.468-.614-.952-.497-1.437.075-.313.318-.588.74-.841.585-1.626.248-3.56-.844-4.824l-.048-.054.027-.067c.585-1.525.601-3.536.54-5.302-.032-1.443-1.041-2.128-2.111-2.853-.943-.64-1.918-1.301-2.08-2.52-1.323-2.054-3.317-2.983-5.246-3.88-2.133-.993-4.338-2.02-5.685-4.553-.4-.849-.786-1.7-1.174-2.554-2.43-5.343-4.94-10.87-10.219-14.79l-.07-.052.029-.084c1.945-5.632-.436-8.717-1.55-9.78l-.048-.047.013-.065c.495-2.423.877-5.961-.106-9.08-2.531-1.83-1.665-3.764-.748-5.812.638-1.423 1.298-2.895.857-4.44-.28-.694-.907-1.903-1.956-2.1-5.121.644-9.509-.948-13.751-2.488-3.333-1.209-6.779-2.46-10.563-2.62l-.049-.012-7.172-3.647c-16.075-6.809-37.023-4.965-50.935 4.49C72.8 40.02 64.723 46.403 56.91 52.575c-3.509 2.772-7.137 5.64-10.748 8.266l-.103.076-2.769-4.429h-4.857l-.036-.05-3.16-4.376c-3.13-4.28-7.193-7.126-11.121-9.877-2.67-1.87-5.43-3.803-7.83-6.153-.884-1.198-.435-2.947.095-4.205 1.823-3.04 5.249-4.527 10.202-4.45 2.73-.27 4.82 1.062 6.85 2.353 1.613 1.026 3.28 2.088 5.258 2.329 2.38-.002 4.248-1.064 4.98-2.845.479-1.81-.093-3.689-1.613-5.277-3.456-3.036-7.878-4.918-13.916-5.925-8.665-1.32-16.246 1.408-21.344 7.677-3.156 3.776-3.211 10.226-1.441 14.281 1.3 3.519 4.206 6.023 7.016 8.446 2.573 2.219 5.234 4.512 6.719 7.596l.298.476H8.787v33.16h8.253v61.54H8.787v32.14h50.01v-32.14h-8.57v-16.762l.529.535 21.595 38.17 22.304-38.797v16.853h-8.813v32.14zm50.54.239h-50.78v-32.619h8.813v-15.715L72.35 173.614l-.104-.182-21.69-38.339-.088-.089v15.944h8.57v32.619H8.547v-32.619H16.8v-61.06H8.547v-33.64h10.411l-.075-.12c-1.469-3.05-4.11-5.328-6.666-7.53-2.833-2.443-5.763-4.97-7.081-8.538-1.797-4.116-1.737-10.677 1.479-14.523 5.152-6.337 12.811-9.093 21.566-7.761 6.088 1.014 10.549 2.915 14.04 5.984l.007.007c1.583 1.652 2.177 3.614 1.671 5.524-.776 1.887-2.726 3.006-5.221 3.006-2.047-.248-3.738-1.324-5.373-2.364-2.087-1.329-4.058-2.577-6.711-2.316a20.168 20.168 0 0 0-.381-.003c-4.666 0-7.896 1.452-9.617 4.321-.407.968-.976 2.79-.129 3.94 2.373 2.321 5.126 4.25 7.788 6.114 3.944 2.762 8.023 5.618 11.177 9.932l3.125 4.327h4.867l.035.057 2.667 4.267c3.573-2.604 7.163-5.441 10.637-8.185 7.82-6.18 15.908-12.57 24.59-16.973 13.961-9.492 35.003-11.345 51.157-4.501l7.156 3.637c3.811.167 7.267 1.42 10.608 2.634 4.222 1.53 8.584 3.113 13.658 2.472l.019-.002.017.003c1.174.206 1.856 1.506 2.157 2.261.47 1.64-.208 3.154-.863 4.616-.918 2.05-1.712 3.82.701 5.543l.033.023.012.038c1.004 3.15.633 6.715.137 9.174 1.16 1.132 3.503 4.271 1.592 9.904 5.28 3.954 7.793 9.483 10.223 14.831.388.852.774 1.703 1.17 2.545 1.307 2.458 3.475 3.467 5.572 4.443 1.967.916 4.001 1.863 5.361 3.992l.018.05c.138 1.127 1.033 1.735 1.98 2.377 1.073.728 2.182 1.48 2.216 3.045.062 1.763.046 3.77-.531 5.328 1.12 1.339 1.452 3.358.827 5.049l-.015.04-.037.022c-.386.224-.604.457-.665.712-.092.385.179.806.466 1.251.3.466.611.948.561 1.469.138 1.983-.699 3.59-2.24 4.285-.911.84-1.997.538-2.96.27-1.193-.333-2.225-.622-2.829 1.127l-.017.048-.045.02c-2.2 1.031-4.78.1-6.12-.547l-.027-.017c-1.71-1.496-3.555-3.91-2.667-6.936-1.152-1.55-2.685-2.686-4.305-3.89-1.406-1.042-2.86-2.12-4.085-3.511-4.414-2-8.874-6.23-12.252-11.62-5.452 2.248-12.202 1.58-17.641-1.748-1.006-.492-1.908-1.298-2.78-2.077-1.663-1.487-3.236-2.89-5.585-2.465l-3.015.177c-.315 2.66-.283 4.76-.247 7.186.017 1.134.036 2.303.019 3.623 1.702-.242 3.9-.215 5.046 1.18 2.691.239 5.47.495 7.551 2.21l.07.058-.037.084c-.94 2.083-3.19 3.102-4.545 3.544.323.417 1.067.46 1.66.245.342-.08.646-.231.968-.392.427-.212.867-.43 1.373-.466l.133-.01-.005.134c-.06 1.675-.765 3.795-2.555 4.721-.33.086-.583.264-.853.452-.071.05-.145.102-.22.152.738.264 1.669.098 2.574-.066l.316-.056.01.134c.129 1.873-1.243 3.244-2.344 4.348a7.985 7.985 0 0 1-2.776 1.318c.479.418 1.181.186 1.806-.018.187-.062.364-.121.53-.16l.966-.69.05.158c.36 1.138-.388 2.355-1.048 3.429l-.146.24-.051.01c-1.41.286-1.963 1.309-2.548 2.39-.606 1.12-1.232 2.277-2.867 2.533-.32.021-.634.084-.965.151-.665.134-1.353.273-2.054.053l-.284.33v24.637h8.54v32.619z" fill="#1B458E" fill-rule="nonzero"/><path d="M142.249 55.943c-.304.607-.273 1.61.456 1.854l1.003-1.125c.06.061 0 1.52-1.033 1.155-.426.182-.73-.304-.852-.547l.122-1.337h.304M140.7 57.19c-.244-.062-.335-.153-.518-.396l.425-.426c.305.182.031.578.092.821m20.21.213.5-.73v.73h-.5m-.108.121c-.7.061-.4-.426-.5-.73l.5.73m-15.241.274-.248.212c-.424-.182.071-.607.212-.912.284 0-.035.518.036.7m-104.39 2.37 31.606 55.889.304.303c3.89-6.868 7.476-13.857 11.244-20.726l1.155 2.918c-3.83 7.962-8.509 15.56-12.825 23.34L39.407 63.388H15.4v19.627h8.026v74.069h-8.087l.021 19.623h37.473v-19.623H43.9v-45.587l28.45 48.016 21.335-36.772 7.567-13.433v47.776h-8.813v19.623h37.228v-19.623h-8.448v-36.228l2.795 3.04v30.663h8.389v25.047H89.749V154.56h8.312v-33.566l-25.71 44.66-25.59-43.642-.007 32.548h8.76v25.047H12.465V154.56h8.15V85.695h-8.15V60.167H41.17m82.844 30.178c-.667-.182-1.033.365-1.459.73-1.701 1.397-1.64 3.828-1.155 5.712.67.913 1.155 2.858 2.614 2.493v-8.935" fill="#FFF" fill-rule="nonzero"/><path d="M149.185 179.14v-1.896h1.263c.646 0 1.334.141 1.334.898 0 .942-.702.998-1.488.998h-1.109zm0 .785h1.067l1.614 2.654h1.039l-1.74-2.696c.897-.112 1.586-.59 1.586-1.683 0-1.208-.717-1.742-2.162-1.742h-2.331v6.12h.927v-2.653zm-3.2-.42c0-2.513 1.895-4.409 4.322-4.409 2.401 0 4.296 1.896 4.296 4.409 0 2.554-1.895 4.436-4.296 4.436-2.427 0-4.323-1.882-4.323-4.436zm4.322 5.32c2.893 0 5.363-2.246 5.363-5.32 0-3.047-2.47-5.293-5.363-5.293-2.92 0-5.39 2.246-5.39 5.293 0 3.074 2.47 5.32 5.39 5.32z" fill="#1B458E"/></g></svg>