<svg width="200" height="200" xmlns="http://www.w3.org/2000/svg"><g fill="none" fill-rule="evenodd"><path fill="#FFF" fill-rule="nonzero" d="M.822 24.767H68.81l11.967 19.757h38.4l12.099-19.757h67.857v36.22H188.22v74.153h10.915v41.093h-76.142V135.14h11.572v-30.82l-34.586 68.62-34.455-68.62v30.82h11.441v41.093H.822V135.14h10.915V60.987H.822v-36.22z"/><path d="M199.956 177.056h-77.764v-42.74h11.572v-26.54l-33.786 66.991-33.633-66.952v26.529h11.463v42.712H0v-42.74h10.915V61.81H0V23.944h69.271L81.238 43.7h37.48l12.098-19.756h69.14V61.81h-10.915v72.506h10.915v42.74Zm-76.164-1.646h74.52v-39.447h-10.915V60.164h10.915V25.59h-66.575l-12.099 19.757h-39.32L68.35 25.59H1.644v34.574h10.915v75.799H1.644v39.447h74.52v-39.447H64.701V104.32l1.557-.368 33.72 67.16 33.852-67.166 1.556.374v31.643h-11.55l-.044 39.447Z" fill="#231F20" fill-rule="nonzero"/><path fill="#F26222" fill-rule="nonzero" d="M6.345 30.299h60.23l8.811 14.225h49.841l8.811-14.225h59.704v25.288h-11.046v84.953h11.046v30.293h-65.227V140.54h11.441V82.456l-39.978 77.313L60 82.456v58.084h11.573v30.293H6.345V140.54H17.26V55.587H6.345V30.3z"/><path d="M194.564 171.656h-66.893v-31.918h11.441V85.836L99.956 161.57 60.822 85.836v53.902h11.573v31.94H5.545v-31.94h10.893V56.41H5.523V29.476H67.03L75.841 43.7h48.932l8.805-14.224h60.986V56.41h-11.046v83.328h11.046v31.918Zm-65.205-1.646h63.562v-28.625h-11.047V54.764h11.047V31.122h-58.428l-8.805 14.225H74.932L66.12 31.122H7.167v23.642h10.915v86.62H7.167v28.647H70.73v-28.646h-11.55v-58.93l1.55-.378 39.25 75.903 39.248-75.903 1.551.379v58.929h-11.463l.044 28.625Z" fill="#231F20" fill-rule="nonzero"/><path d="M99.978 42.943s-7.671-4.237-9.468-3.688c-1.332.417-2.154 1.235-3.288 1.317-1.058.192-2.74-.4-4.471-.131-1.173.258-1.792.872-2.893 1.053a6.276 6.276 0 0 1-3.288-.395c-.954-.609-2.597 1.037-3.836 1.317-1.238.28-6.318.818-11.835-2.634-3.732-2.338-7.787.11-8.548.395-2.099.862-11.677.72-10.784 9.878 1.036 9.368 7.299 10.296 7.255 12.908-.192 3.594-3.617 7.573-2.893 12.249.29 2.228 1.88 2.321 1.578 3.424-.302 1.103-.548 5.345-.263 6.586.285 1.24.701 1.646.657 2.634.044.927-.093 2.437.263 3.293.562.854.795 1.884.658 2.897-.329.911-.899 1.597-.79 3.03.324 2.272 3.338 4.878 3.946 6.717.488 1.728 1.803 7.194 2.499 8.43 1.824 3.04 5.797 2.902 6.838 4.082 1.15 1.29 3.836 5.751 6.027 6.849 3.732 1.987 5.239 2.673 8.285 3.688 2.072.614 5.951 1.646 9.732 10.141.51 1.191 2.29-.18 3.156 2.24.477 1.613-1.003 3.067 3.682 7.639 1.743 1.679 5.041 1.465 7.76 1.317 2.739.148 6.06.362 7.89-1.317 4.597-4.572 3.117-6.037 3.682-7.64.778-2.42 2.559-1.048 3.156-2.239 3.688-8.473 7.573-9.527 9.731-10.141a45.401 45.401 0 0 0 8.187-3.688c2.246-1.098 4.931-5.56 6.027-6.849 1.096-1.18 5.058-1.043 6.838-4.083.74-1.235 2.055-6.7 2.63-8.43.521-1.838 3.535-4.444 3.836-6.716.154-1.433-.416-2.119-.657-3.03-.307-1.01.104-2.107.548-2.897.443-.79.263-2.366.263-3.293 0-.928.41-1.405.657-2.634.247-1.23.028-5.488-.263-6.586-.29-1.097 1.332-1.196 1.71-3.424.635-4.676-2.79-8.655-2.893-12.25-.137-2.611 6.131-3.539 7.123-12.907.931-9.159-8.641-9.016-10.652-9.878-.85-.285-4.904-2.744-8.68-.395-5.479 3.452-10.542 2.903-11.835 2.634-1.173-.28-2.817-1.926-3.836-1.317-.92.489-2.153.489-3.287.395-1.058-.18-1.677-.8-2.894-1.053-1.682-.258-3.37.323-4.47.131-1.097-.082-1.919-.9-3.289-1.317-1.775-.549-9.446 3.705-9.468 3.688h-.033Z" fill="#231F20" fill-rule="nonzero"/><path d="M95.638 52.558c.8-.406-3.035-9.736-8.416-9.22-4.186.467-3.523.72-4.997-.131-.735-.357-5.787 1.81-5.787 1.843 0 .033-4.657-.032-6.575 1.318-1.918 1.35-3.836 2.743-3.836 2.743s4.932 3.705 5.392 4.479c.614.872.066 2.381-.263 3.16-.219.868.329 1.142.79 1.976.36.812-.187 3.842-.132 3.842a.653.653 0 0 0 .92.658c7.266-5.86 8.702-3.029 10.006-3.556 2.865-1.07 5.605 2.36 6.707 1.58.548-.455.131-7.315.131-7.375l-1.315-1.185v-1.307l-5.918-4.346c-.027.05-.164-.5.92-.922 1.086-.422.97-.263 2.236.132 1.266.395 5.72 3.995 6.97 5.268 1.25 1.273 2.313 1.47 3.156 1.054l.011-.011ZM80.515 68.495h-6.707c4.274 4.648 4.86 8.078 8.285 9.22 2.65.864 5.504.864 8.154 0l-1.052-4.479c0 .044-3.716 3.748-7.124 1.449-3.408-2.3-1.682-5.658-1.578-6.19h.022ZM54.082 47.29l-1.052-.922h-2.619a2.348 2.348 0 0 1-1.973.395c-.893-.236-.619.861-.657 1.58.01.539-.08 1.074-.263 1.58l2.104 3.842c0 .055.931-1.997 1.71-3.688a7.946 7.946 0 0 1 2.74-2.744l.01-.043Z" fill="#FFF" fill-rule="nonzero"/><path d="M83.145 70.997a1.426 1.426 0 0 1 1.315-1.449c.797.006 1.44.651 1.447 1.45a1.393 1.393 0 0 1-1.447 1.316 1.349 1.349 0 0 1-1.315-1.317ZM62.499 53.216c1.096-.488.24.857 1.446 1.45.713.641 2.63.504 2.74 3.16.142 2.558-3.836 4.341-5.26 6.037-1.31 1.85-3.228 3.084-4.34 5.532-1.112 2.447.29 5.784-.548 6.849-.838 1.064-1.512 4.286-1.315 6.585a24.263 24.263 0 0 0 2.63 9.746c.05.028.186 2.36.263 3.557-.762.038-1.857-2.431-1.841-2.371 0-.06-1.25-.746-2.236-3.688a41.347 41.347 0 0 1-1.578-6.037c-.312-1.426-.312-6.228-.263-6.19l-.263-1.844v-6.454c-.06.028-.882.028-.548-1.317.466-1.4 1.425-2.36 2.367-3.688 1.042-1.415 3.233-8.824 8.746-11.327ZM61.315 104.451c-3.096-1.262-2.62-4.83-5.786-4.873-1.354.044.608 1.8.657 1.844 1.485 1.493.937 3.106 1.315 4.346.51 1.537 3.184 3.32 4.472 4.874.591.746.98 1.942 1.578 2.634.597.691 2.28 1.344 3.287 1.58 3.025.68 5.48 3.562 5.524 2.634-.033-3.122-4.932-4.34-6.028-6.585-.422-.856-2.548-2.025-2.74-2.898-.367-1.558-.432-3.292-2.235-3.556h-.044ZM66.301 72.314c.126 5.082-1.096 5.323-1.052 7.134-.054 1.126.548 1.367.92 2.108-.498.318-.427 1.141-.394 1.975-.033 3.49 1.748 5.379 1.71 8.825a126.69 126.69 0 0 1 0 5.4c.038 2.777.038 4.083 1.71 5.532.931.95.794 2.195 1.972 2.744l.132-2.634c-.214-1.685-1.31-2.13-1.315-3.425 0-.488.964-1.619 1.315-2.634v-2.744c1.156-3.732-2.406-6.273-2.367-9.33-.039-1.097.646-1.684.657-2.743 0-.604-1.48-1.647-.92-2.24 1.32-1.448.652-3.78 3.156-3.84 3.233.038 5.835 6.76 7.233 6.716.794.319.383-1.19.394-1.58 0-1.015-.937-.917-1.052-1.712-.362-1.224 0-2.53-.548-3.842-.657-1.833-3.638-2.31-6.707-3.688.055 0-4.707.11-4.866 0l.022-.022ZM86.433 92.86c-.614.862-2.192 3.058-3.945 2.745-.548-.072 0 1.646-.132 2.239-.712 2.744-.85 3.128-.789 5.4v6.585c2.543 1.57 1.31 2.772 2.367 4.347 1.096 1.767 2.23 2.436 3.156 4.214.718 1.28.685 3.502 1.842 4.215a21.15 21.15 0 0 0 .263-4.215c-.839-4.522-1.25-5.07-3.42-6.585-1.096-.746-.296-4.248-1.578-7.903-.06-.378 1.096-2.195 1.447-2.743a13.738 13.738 0 0 0 1.183-6.037 5.43 5.43 0 0 0-.394-2.24v-.021ZM99.978 126.052c-3.288.598-7.786-1.049-7.759-1.054.247-2.053-.301-5.345-.789-7.244 1.512 1.004 2.817 3.408 3.682 5.005.674-.911.915-1.872 2.63-2.898.51.955.203 2.947.395 3.952a6.686 6.686 0 0 0 1.841.131c.66.035 1.323-.01 1.973-.131.137-1.005-.17-2.997.263-3.952 1.791 1.026 2.033 1.987 2.74 2.898.81-1.597 2.114-4 3.682-5.005-.548 1.899-1.096 5.191-.79 7.244-.027 0-4.58 1.646-7.89 1.054h.022Z" fill="#FFF" fill-rule="nonzero"/><path d="M99.978 98.26s6.712-.422 12.362 3.557a13.179 13.179 0 0 1-3.945 8.166l-.132-8.034c-.307.077-3.688 3.386-3.682 3.424-1.567-6.036-2.74-5.208-2.74-5.4L100 99.841l-1.71.132c-.131.192-1.282-.625-2.893 5.4.05-.038-3.331-3.347-3.682-3.424v8.034c-3.885-3.638-4.005-8.204-3.945-8.166 5.562-3.979 12.235-3.567 12.23-3.556h-.022Z" fill="#FFF" fill-rule="nonzero"/><path d="m99.978 140.671-6.575-.548a5.108 5.108 0 0 0-1.841-.79c0-.736-1.409-2.042-2.63-4.742 0-.132-.73-3.721-.79-3.688-1.293-.549-3.106-1.62-3.156-5.137a.5.5 0 0 0 0-.79h.395a49.322 49.322 0 0 0 4.471 5.268c.422 3.106 1.518 5.85 3.156 6.322.395.05 1.315-.894 1.447-.658 1.298 1.833 3.764 2.382 5.523 2.37 1.759-.01 4.269-.548 5.523-2.37.17-.236 1.096.708 1.447.658 1.682-.472 2.778-3.216 3.156-6.322a41.088 41.088 0 0 0 4.471-5.268h.395a.55.55 0 0 0 0 .79c0 3.518-1.82 4.566-3.156 5.137 0-.033-.756 3.556-.79 3.688-1.177 2.7-2.597 4.006-2.63 4.741a5.83 5.83 0 0 0-1.84.79l-6.576.55Z" fill="#FFF"/><path d="M94.718 77.177c-.154-1.916 4.055-5.78 4.34-9.747.12-2.118-1.409-3.671-1.447-4.61.038-.066 2.389-3.682 2.367-6.036 0 2.376 2.373 5.992 2.367 6.036 0 .939-1.523 2.492-1.446 4.61.328 3.968 4.531 7.831 4.47 9.747-2.224-.84-5.369.894-5.39.921-.023.028-3.124-1.761-5.261-.921ZM104.45 52.558c-.855-.406 2.98-9.736 8.284-9.22 4.269.467 3.6.72 5.129-.131.68-.357 5.732 1.81 5.786 1.843-.054-.032 4.603-.032 6.576 1.318 1.863 1.393 3.78 2.743 3.835 2.743.055 0-4.964 3.705-5.523 4.479-.548.872 0 2.381.263 3.16.296.868-.252 1.142-.658 1.976-.405.834.132 3.842.132 3.842s-.137.971-.92.658c-7.3-5.86-8.73-3.029-9.995-3.556-2.92-1.07-5.66 2.36-6.707 1.58-.597-.455-.186-7.315-.131-7.375l1.315-1.185v-1.307l5.917-4.346c-.027.05.11-.5-.92-.922-1.162-.4-1.025-.263-2.236.132-1.21.395-5.775 3.995-6.97 5.268-1.194 1.273-2.367 1.47-3.156 1.054l-.022-.011ZM119.452 68.495h6.707c-4.197 4.648-4.784 8.078-8.154 9.22-2.695.856-5.589.856-8.284 0l1.183-4.479c-.038.044 3.66 3.748 7.123 1.449 3.463-2.3 1.644-5.658 1.447-6.19h-.022ZM145.874 47.29l1.184-.922h2.63c.511.426 1.2.574 1.84.395.97-.236.697.861.658 1.58-.038.72.313 1.614.263 1.58l-1.972 3.842c-.033.055-.987-1.997-1.841-3.688a6.81 6.81 0 0 0-2.74-2.744l-.022-.043Z" fill="#FFF" fill-rule="nonzero"/><path d="M114.18 70.997a1.368 1.368 0 0 1 1.316-1.449 1.524 1.524 0 0 1 1.446 1.45 1.453 1.453 0 0 1-1.446 1.316 1.292 1.292 0 0 1-1.315-1.317ZM137.589 53.216c-1.173-.488-.296.857-1.578 1.45-.636.641-2.553.504-2.63 3.16-.197 2.558 3.775 4.341 5.129 6.037 1.386 1.85 3.287 3.084 4.34 5.532 1.155 2.491-.214 5.784.657 6.849.772 1.13 1.457 4.286 1.315 6.585a24.494 24.494 0 0 1-2.74 9.746c.028.028-.11 2.36-.263 3.557.839.038 1.934-2.431 1.973-2.371-.039-.06 1.194-.746 2.104-3.688a37.983 37.983 0 0 0 1.71-6.037c.257-1.426.257-6.228.262-6.19l.264-1.844v-6.454c0 .028.827.028.394-1.317-.433-1.344-1.348-2.36-2.367-3.688-.899-1.415-3.09-8.824-8.548-11.327h-.022ZM138.63 104.451c3.173-1.262 2.696-4.83 5.918-4.873 1.299.044-.663 1.8-.658 1.844-1.54 1.493-.991 3.106-1.446 4.346-.433 1.537-3.107 3.32-4.34 4.874-.646.746-1.036 1.942-1.578 2.634-.542.691-2.334 1.344-3.288 1.58-3.08.68-5.545 3.562-5.523 2.634 0-3.122 4.871-4.34 6.027-6.585.368-.856 2.494-2.025 2.74-2.898.313-1.558.384-3.292 2.104-3.556h.044ZM133.775 72.314c-.18 5.082 1.052 5.323 1.052 7.134 0 1.126-.613 1.367-.92 2.108.444.318.372 1.141.394 1.975 0 3.49-1.802 5.379-1.84 8.825a126.69 126.69 0 0 1 0 5.4c.038 2.777.038 4.083-1.579 5.532-.986.95-.85 2.195-2.104 2.744l-.131-2.634c.29-1.685 1.386-2.13 1.446-3.425-.06-.488-1.019-1.619-1.446-2.634v-2.744c-1.096-3.732 2.482-6.273 2.498-9.33 0-1.097-.701-1.684-.657-2.743-.044-.604 1.424-1.647.92-2.24-1.375-1.448-.701-3.78-3.156-3.84-3.288.038-5.89 6.76-7.233 6.716-.85.319-.438-1.19-.394-1.58-.044-1.015.882-.917 1.052-1.712.312-1.224-.066-2.53.394-3.842.74-1.833 3.715-2.31 6.707-3.688 0 0 4.784.11 4.997 0v-.022ZM113.655 92.86c.548.862 2.131 3.058 3.945 2.745.515-.072-.033 1.646.132 2.239.657 2.744.794 3.128.789 5.4v6.585c-2.598 1.57-1.365 2.772-2.368 4.347-1.167 1.767-2.285 2.436-3.287 4.214-.641 1.28-.603 3.502-1.71 4.215a15.483 15.483 0 0 1-.263-4.215c.784-4.522 1.195-5.07 3.42-6.585 1.057-.746.24-4.248 1.446-7.903.137-.378-1.03-2.195-1.315-2.743a14.018 14.018 0 0 1-1.315-6.037 5.78 5.78 0 0 1 .548-2.24l-.022-.021ZM99.978 80.612c-2.58-.335-3.474-1.02-5.392-1.054-3.594.033-5.44 4.824-5.523 6.037 0 2.272 1.211 7.348 5.786 8.298-.876-1.839-3.205-3.38-3.156-6.037-.05-1.68 1.25-1.817 1.973-1.844.033.027.444-3.814 3.024-3.951 2.855-.16 2.351 4.253 2.368 6.453h1.84c.06-2.195-.443-6.585 2.5-6.453 2.492.137 2.903 3.978 2.892 3.951.762.027 2.066.165 2.105 1.844-.039 2.678-2.368 4.22-3.157 6.037 4.488-.95 5.72-6.037 5.655-8.298-.038-1.235-1.885-6.037-5.523-6.037-1.88.033-2.767.72-5.392 1.054Z" fill="#FFF" fill-rule="nonzero"/></g></svg>