<svg width="200" height="200" xmlns="http://www.w3.org/2000/svg"><g fill-rule="nonzero" fill="none"><path fill="#1C294D" d="M20.678 24.903h58.109l21.127 38.214 20.751-38.214h56.275v53.92h-6.659v48.946h8.491v48.683H110.72v-38.967l-10.993 14.887-10.994-14.887v38.967H20.678V128.03h7.33V78.56h-7.33V24.903"/><path fill="#FFF" d="M29.017 32.913h44.497l26.198 47.114 25.89-47.114h42.925v37.168h-6.02v66.221h7.59v31.672h-51.824v-31.672h8.113V94.71l-26.66 40.53-26.735-39.746v40.547h7.328v31.933H29.017V136.04h7.33V69.819h-7.33V32.913"/><path d="M99.732 127.997c-9.72-12.66-29.714-43.932-29.714-43.932v54.97h7.653v26.129H32.007v-26.13h7.66V67.248h-7.66v-31.29H71.9C82.074 54.086 99.71 86.04 99.71 86.04s18.225-32.575 27.857-50.081h37.816v31.29h-5.597v71.787h7.658v26.129h-45.678v-26.13h7.662V84.037s-19.74 31.064-29.695 43.961" fill="#1A554B"/><path fill="#1C294D" d="M.905 126.036h198.772v-45.15H.905v45.15"/><path fill="#FFF" d="M19.354 110.995v-4.588h1.266v-9.414l-4.003 8.544-3.987-8.544v9.414h1.266v4.588H6.665v-4.588h1.377v-15.68h-1.33V86.14h5.918l3.987 8.544 4.003-8.544h5.917v4.588h-1.314v15.679h1.361v4.588h-7.23M29.499 110.995v-4.588h1.313v-15.68h-1.313V86.14h14.507v6.598H39.42v-2.01h-4.02v5.537h6.282v4.604H35.4v5.538h4.019v-2.01h4.587v6.598H29.5M52.838 96.265H57.6v-5.537h-4.762v5.537Zm10.189 14.73h-4.92l-3.908-10.126h-1.361v5.538h1.313v4.588h-7.23v-4.588h1.313v-15.68h-1.313V86.14h12.34l2.927 2.61v9.13l-3.132 2.926 2.183 5.6h1.788v4.589ZM80.054 108.4l-3.006 2.595h-8.18l-2.927-2.595V88.75l2.928-2.61h8.179l3.006 2.626v3.972h-4.588v-2.01H70.53v15.679h4.936v-2.01h4.588v4.003M93.252 101.834v4.573h1.281v4.588h-7.23v-4.588h1.298v-4.604l-3.892-11.075h-1.74V86.14h7.23v4.588h-.839l1.582 4.667 1.55-4.667h-.79V86.14h7.04v4.588h-1.487l-4.003 11.106M111.45 110.995v-4.588h1.314v-5.538h-5.206v5.538h1.329v4.588h-7.23v-4.588h1.313v-15.68h-1.313V86.14h7.23v4.588h-1.33v5.537h5.207v-5.537h-1.314V86.14h7.23v4.588h-1.329v15.679h1.329v4.588h-7.23M137.225 108.385l-3.005 2.61h-8.37l-2.942-2.595V90.728h-1.313V86.14h7.215v4.588h-1.314v15.679h5.142v-15.68h-1.33V86.14h7.231v4.588h-1.314v17.657M147.37 96.265h4.763v-5.537h-4.763v5.537Zm10.19 14.73h-4.922l-3.907-10.126h-1.36v5.538h1.313v4.588h-7.23v-4.588h1.313v-15.68h-1.313V86.14h12.34l2.928 2.61v9.13l-3.133 2.926 2.183 5.6h1.788v4.589ZM174.286 108.4l-2.927 2.595h-7.926l-2.958-2.595v-4.003h4.587v2.01h4.636v-5.538h-6.265l-2.958-2.61v-9.51l2.958-2.609h7.926l2.927 2.594v4.004h-4.588v-2.01h-4.636v5.537h6.297l2.927 2.611v9.524M188.956 90.728h-1.282v15.679h1.312v4.588h-7.23v-4.588h1.313v-15.68h-1.28v2.01H177.2V86.14h16.343v6.598h-4.587v-2.01M71.424 114.031v4.58c0 1.222.356 1.917 1.08 1.917.732 0 1.088-.635 1.088-1.917v-4.58h1.843v4.46c0 2.493-1.059 3.751-2.983 3.751-1.884 0-2.871-1.21-2.871-3.812v-4.399h1.843M77.301 122.11v-8.079h2.17l1.089 2.481c.376.803.773 1.883 1.079 2.83h.03a36.07 36.07 0 0 1-.142-3.405v-1.906h1.68v8.08h-1.935l-1.16-2.685a32.804 32.804 0 0 1-1.161-2.925h-.03c.04 1.09.06 2.313.06 3.62v1.99h-1.68M86.936 114.031v8.08h-1.842v-8.08h1.842M90.48 122.11l-2.178-8.079h2.016l.723 3.177c.224.899.408 1.786.57 2.829h.021c.173-.995.366-1.93.57-2.794l.743-3.212H94.9l-2.25 8.08h-2.17M100.564 118.85H98.1v1.486h2.76v1.774h-4.603v-8.079h4.46v1.763H98.1v1.306h2.464v1.75M104.314 117.532h.478c.692 0 1.09-.408 1.09-1.007 0-.612-.336-.947-.947-.96-.347 0-.53.025-.621.049v1.918Zm-1.824-3.393c.52-.095 1.304-.167 2.22-.167 1.05 0 1.803.167 2.322.623.438.396.682.97.682 1.762 0 1.007-.641 1.726-1.181 1.954v.047c.458.228.703.744.876 1.44.213.826.437 2 .57 2.312h-1.884c-.102-.24-.275-.863-.478-1.857-.184-.971-.438-1.175-1.008-1.175h-.295v3.032h-1.824v-7.97ZM109.509 119.953c.417.252 1.1.503 1.781.503.632 0 .937-.251.937-.659 0-.396-.305-.623-1.079-.935-1.16-.48-1.924-1.235-1.924-2.433 0-1.427 1.018-2.53 2.749-2.53.825 0 1.405.18 1.863.42l-.387 1.726a3.153 3.153 0 0 0-1.497-.383c-.56 0-.865.24-.865.599 0 .407.367.575 1.232.959 1.232.527 1.792 1.306 1.792 2.433 0 1.39-.927 2.589-2.932 2.589-.825 0-1.63-.264-2.016-.504l.346-1.785M117.555 114.031v8.08h-1.843v-8.08h1.843M120.763 115.841h-1.75v-1.81h5.375v1.81h-1.782v6.27h-1.843v-6.27M127.456 122.11v-3.26l-2.17-4.819h2.109l.58 1.823c.194.563.316.97.468 1.485h.02c.133-.49.275-.934.439-1.485l.57-1.823h2.067l-2.25 4.735v3.344h-1.833M64.268 118.479H6.665v-1.207h57.603v1.207M193.936 118.479h-57.604v-1.207h57.604v1.207"/></g></svg>