<?xml version="1.0" encoding="UTF-8"?>
<svg width="200px" height="200px" viewBox="0 0 200 200" version="1.1" xmlns="http://www.w3.org/2000/svg" xmlns:xlink="http://www.w3.org/1999/xlink">
    <!-- Generator: Sketch 51.3 (57544) - http://www.bohemiancoding.com/sketch -->
    <title>mercer</title>
    <desc>Created with Sketch.</desc>
    <defs></defs>
    <g id="mercer" stroke="none" stroke-width="1" fill="none" fill-rule="evenodd">
        <g id="mercer_BGL" transform="translate(0.000000, 22.885572)">
            <g id="mercer">
                <g transform="translate(0.000000, 0.937965)" id="Shape">
                    <polygon fill="#FFFFFF" fill-rule="nonzero" points="0.821917808 0.817871341 68.8109589 0.817871341 80.7780822 20.4467835 119.178082 20.4467835 131.276712 0.817871341 199.134247 0.817871341 199.134247 36.8042104 188.219178 36.8042104 188.219178 110.478061 199.134247 110.478061 199.134247 151.306198 122.991781 151.306198 122.991781 110.478061 134.564384 110.478061 134.564384 79.8569578 99.9780822 148.034713 65.5232877 79.8569578 65.5232877 110.478061 76.9643836 110.478061 76.9643836 151.306198 0.821917808 151.306198 0.821917808 110.478061 11.7369863 110.478061 11.7369863 36.8042104 0.821917808 36.8042104 0.821917808 0.817871341"></polygon>
                    <path d="M199.956164,152.124069 L122.191781,152.124069 L122.191781,109.660189 L133.764384,109.660189 L133.764384,83.2920174 L99.9780822,149.850387 L66.3452055,83.3301847 L66.3452055,109.687452 L77.8082192,109.687452 L77.8082192,152.124069 L0,152.124069 L0,109.660189 L10.9150685,109.660189 L10.9150685,37.6220817 L0,37.6220817 L0,0 L69.2712329,0 L81.2383562,19.6289122 L118.717808,19.6289122 L130.816438,0 L199.956164,0 L199.956164,37.6220817 L189.041096,37.6220817 L189.041096,109.660189 L199.956164,109.660189 L199.956164,152.124069 Z M123.791781,150.488327 L198.312329,150.488327 L198.312329,111.295932 L187.39726,111.295932 L187.39726,35.986339 L198.312329,35.986339 L198.312329,1.63574268 L131.736986,1.63574268 L119.638356,21.2646549 L80.3178082,21.2646549 L68.3506849,1.63574268 L1.64383562,1.63574268 L1.64383562,35.986339 L12.5589041,35.986339 L12.5589041,111.295932 L1.64383562,111.295932 L1.64383562,150.488327 L76.1643836,150.488327 L76.1643836,111.295932 L64.7013699,111.295932 L64.7013699,79.8569578 L66.2575342,79.4916419 L99.9780822,146.219038 L133.830137,79.4861894 L135.386301,79.8569578 L135.386301,111.295932 L123.835616,111.295932 L123.791781,150.488327 Z" fill="#231F20" fill-rule="nonzero"></path>
                    <polygon fill="#F26222" fill-rule="nonzero" points="6.34520548 6.31396675 66.5753425 6.31396675 75.3863014 20.4467835 125.227397 20.4467835 134.038356 6.31396675 193.742466 6.31396675 193.742466 31.4389744 182.69589 31.4389744 182.69589 115.843297 193.742466 115.843297 193.742466 145.940962 128.515068 145.940962 128.515068 115.843297 139.956164 115.843297 139.956164 58.1342949 99.9780822 134.948771 60 58.1342949 60 115.843297 71.5726027 115.843297 71.5726027 145.940962 6.34520548 145.940962 6.34520548 115.843297 17.260274 115.843297 17.260274 31.4389744 6.34520548 31.4389744 6.34520548 6.31396675"></polygon>
                    <path d="M194.564384,146.758833 L127.671233,146.758833 L127.671233,115.047235 L139.112329,115.047235 L139.112329,61.4930199 L99.9561644,136.737183 L60.8219178,61.4930199 L60.8219178,115.047235 L72.3945205,115.047235 L72.3945205,146.780643 L5.54520548,146.780643 L5.54520548,115.047235 L16.4383562,115.047235 L16.4383562,32.2568457 L5.52328767,32.2568457 L5.52328767,5.49609541 L67.030137,5.49609541 L75.8410959,19.6289122 L124.772603,19.6289122 L133.578082,5.49609541 L194.564384,5.49609541 L194.564384,32.2568457 L183.517808,32.2568457 L183.517808,115.047235 L194.564384,115.047235 L194.564384,146.758833 Z M129.358904,145.123091 L192.920548,145.123091 L192.920548,116.682978 L181.873973,116.682978 L181.873973,30.621103 L192.920548,30.621103 L192.920548,7.1318381 L134.493151,7.1318381 L125.687671,21.2646549 L74.9315068,21.2646549 L66.1205479,7.1318381 L7.16712329,7.1318381 L7.16712329,30.621103 L18.0821918,30.621103 L18.0821918,116.682978 L7.16712329,116.682978 L7.16712329,145.144901 L70.7287671,145.144901 L70.7287671,116.682978 L59.1780822,116.682978 L59.1780822,58.1342949 L60.7287671,57.7580741 L99.9780822,133.171264 L139.227397,57.7580741 L140.778082,58.1342949 L140.778082,116.682978 L129.315068,116.682978 L129.358904,145.123091 Z" fill="#231F20" fill-rule="nonzero"></path>
                    <path d="M99.9780822,18.8764706 C99.9780822,18.8764706 92.3068493,14.6671594 90.509589,15.2124069 C89.1780822,15.6267951 88.3561644,16.439214 87.2219178,16.5210011 C86.1643836,16.7118377 84.4821918,16.1229704 82.7506849,16.3901417 C81.5780822,16.646408 80.9589041,17.2570853 79.8575342,17.437017 C78.7460803,17.600942 77.6107861,17.4653774 76.569863,17.0444388 C75.6164384,16.439214 73.9726027,18.0749566 72.7342466,18.3530329 C71.4958904,18.6311092 66.4164384,19.1654518 60.8986301,15.7358446 C57.1671233,13.41309 53.1123288,15.8448941 52.3506849,16.1284229 C50.2520548,16.9844615 40.6739726,16.8426972 41.5671233,25.9428789 C42.6027397,35.2502548 48.8657534,36.1717232 48.8219178,38.7671016 C48.630137,42.3384731 45.2054795,46.2915179 45.9287671,50.9370271 C46.2191781,53.1507322 47.8082192,53.2434243 47.5068493,54.3393719 C47.2054795,55.4353195 46.9589041,59.6500832 47.2438356,60.8823426 C47.5287671,62.1146021 47.9452055,62.5180853 47.9013699,63.4995309 C47.9452055,64.4209993 47.8082192,65.9204301 48.1643836,66.7710163 C48.7256643,67.6201869 48.9592184,68.642766 48.8219178,69.6499234 C48.4931507,70.5550344 47.9232877,71.2365938 48.0328767,72.65969 C48.3561644,74.9170149 51.369863,77.5069408 51.9780822,79.3335201 C52.4657534,81.0510499 53.7808219,86.4817156 54.4767123,87.7085226 C56.3013699,90.7291941 60.2739726,90.5928822 61.3150685,91.7651645 C62.4657534,93.0464963 65.1506849,97.4793589 67.3424658,98.5698541 C71.0739726,100.54365 72.5808219,101.22521 75.6273973,102.233918 C77.6986301,102.844595 81.5780822,103.86966 85.3589041,112.310093 C85.8684932,113.49328 87.6493151,112.130161 88.5150685,114.534703 C88.9917808,116.13773 87.5123288,117.582636 92.1972603,122.124549 C93.939726,123.793006 97.2383562,123.58036 99.9561644,123.433143 C102.69589,123.58036 106.016438,123.793006 107.846575,122.124549 C112.443836,117.582636 110.964384,116.126826 111.528767,114.534703 C112.306849,112.130161 114.087671,113.49328 114.684932,112.310093 C118.372603,103.89147 122.257534,102.844595 124.416438,102.233918 C127.260056,101.284437 130.002202,100.057094 132.60274,98.5698541 C134.849315,97.4793589 137.534247,93.0464963 138.630137,91.7651645 C139.726027,90.5928822 143.687671,90.7291941 145.468493,87.7085226 C146.208219,86.4817156 147.523288,81.0510499 148.09863,79.3335201 C148.619178,77.5069408 151.632877,74.9170149 151.934247,72.65969 C152.087671,71.2365938 151.517808,70.5550344 151.276712,69.6499234 C150.969863,68.6466679 151.380822,67.5561728 151.824658,66.7710163 C152.268493,65.9858598 152.087671,64.4209993 152.087671,63.4995309 C152.087671,62.5780626 152.49863,62.1036972 152.745205,60.8823426 C152.991781,59.6609881 152.772603,55.429867 152.482192,54.3393719 C152.191781,53.2488768 153.813699,53.1507322 154.191781,50.9370271 C154.827397,46.2915179 151.40274,42.3384731 151.29863,38.7671016 C151.161644,36.1717232 157.430137,35.2502548 158.421918,25.9428789 C159.353425,16.8426972 149.780822,16.9844615 147.769863,16.1284229 C146.920548,15.8448941 142.865753,13.402185 139.090411,15.7358446 C133.610959,19.1654518 128.547945,18.6202042 127.254795,18.3530329 C126.082192,18.0749566 124.438356,16.439214 123.419178,17.0444388 C122.49863,17.5297091 121.265753,17.5297091 120.131507,17.437017 C119.073973,17.2570853 118.454795,16.6409556 117.238356,16.3901417 C115.556164,16.1338753 113.868493,16.7118377 112.767123,16.5210011 C111.671233,16.439214 110.849315,15.6267951 109.479452,15.2124069 C107.70411,14.6671594 100.032877,18.892828 100.010959,18.8764706 L99.9780822,18.8764706 Z" fill="#231F20" fill-rule="nonzero"></path>
                    <path d="M95.6383562,28.4292078 C96.4383562,28.0257246 92.6027397,18.7565161 87.2219178,19.2690488 C83.0356164,19.7325092 83.6986301,19.9833231 82.2246575,19.1381894 C81.490411,18.7837785 76.4383562,20.9375063 76.4383562,20.9702212 C76.4383562,21.002936 71.7808219,20.9375063 69.8630137,22.2788153 C67.9452055,23.6201243 66.0273973,25.0050531 66.0273973,25.0050531 C66.0273973,25.0050531 70.9589041,28.6854742 71.4191781,29.4542732 C72.0328767,30.3212169 71.4849315,31.8206477 71.1561644,32.5948992 C70.9369863,33.4563903 71.4849315,33.7290141 71.9452055,34.5577904 C72.3068493,35.3647568 71.7589041,38.3745233 71.8136986,38.3745233 C71.7904841,38.6058502 71.8934167,38.831858 72.0835273,38.9669827 C72.2736378,39.1021075 72.5218703,39.1256969 72.7342466,39.0288204 C80,33.2055765 81.4356164,36.0190539 82.739726,35.4956162 C85.6054795,34.4323835 88.3452055,37.8401807 89.4465753,37.0659292 C89.9945205,36.6133737 89.5780822,29.7977792 89.5780822,29.737802 L88.2630137,28.5600672 L88.2630137,27.262378 L82.3452055,22.9440174 C82.3178082,22.9930896 82.1808219,22.4478421 83.2657534,22.0280015 C84.3506849,21.6081608 84.2356164,21.7662826 85.5013699,22.1588609 C86.7671233,22.5514391 91.2219178,26.1282631 92.4712329,27.3932375 C93.7205479,28.6582118 94.7835616,28.8545009 95.6273973,28.4401128 L95.6383562,28.4292078 Z" fill="#FFFFFF" fill-rule="nonzero"></path>
                    <path d="M80.5150685,44.263197 L73.8082192,44.263197 C78.0821918,48.8814438 78.6684932,52.2892411 82.0931507,53.423356 C84.742324,54.2829007 87.597402,54.2829007 90.2465753,53.423356 L89.1945205,48.9741359 C89.1945205,49.0177557 85.4794521,52.6981768 82.0712329,50.4135895 C78.6630137,48.1290022 80.3890411,44.7920871 80.4931507,44.263197 L80.5150685,44.263197 Z" fill="#FFFFFF" fill-rule="nonzero"></path>
                    <path d="M54.0821918,23.1948312 L53.030137,22.2788153 L50.4109589,22.2788153 C49.8457518,22.6971737 49.1217889,22.8412534 48.4383562,22.6713936 C47.5452055,22.4369371 47.8191781,23.5274323 47.7808219,24.2417066 C47.7906967,24.776767 47.7015409,25.3090681 47.5178082,25.8120195 L49.6219178,29.6287525 C49.6219178,29.6832772 50.5534247,27.6440513 51.3315068,25.9646888 C52.0044875,24.8447521 52.9457552,23.9081185 54.0712329,23.238451 L54.0821918,23.1948312 Z" fill="#FFFFFF" fill-rule="nonzero"></path>
                    <path d="M83.1452055,46.7495259 C83.1313726,45.9989006 83.7080338,45.3676962 84.460274,45.3100723 C85.2567112,45.316009 85.9008832,45.9570097 85.9068493,46.7495259 C85.8655201,47.5060172 85.2209953,48.0890642 84.460274,48.05812 C83.7412834,48.0408728 83.162538,47.4649767 83.1452055,46.7495259 Z" fill="#FFFFFF" fill-rule="nonzero"></path>
                    <path d="M62.4986301,29.0835049 C63.5945205,28.5982346 62.739726,29.9340911 63.9452055,30.5229585 C64.6575342,31.1608981 66.5753425,31.0245862 66.6849315,33.6635844 C66.8273973,36.204438 62.8493151,37.9764926 61.4246575,39.6613076 C60.1150685,41.4987919 58.1972603,42.7255989 57.0849315,45.157403 C55.9726027,47.5892071 57.3753425,50.9043123 56.5369863,51.9620925 C55.6986301,53.0198728 55.0246575,56.220476 55.2219178,58.5050633 C55.4057181,61.8808709 56.3018747,65.1803261 57.8520548,68.18866 C57.9013699,68.2159223 58.0383562,70.5332245 58.1150685,71.7218642 C57.3534247,71.7600315 56.2575342,69.3064175 56.2739726,69.3663947 C56.2739726,69.3064175 55.0246575,68.624858 54.0383562,65.7023311 C53.3610678,63.7455553 52.8335347,61.7405918 52.460274,59.7046079 C52.1479452,58.2869643 52.1479452,53.5160481 52.1972603,53.5542154 L51.9342466,51.7221836 L51.9342466,45.3100723 C51.8739726,45.3373347 51.0520548,45.3373347 51.3863014,44.0014782 C51.8520548,42.6110969 52.8109589,41.6569136 53.7534247,40.3374146 C54.7945205,38.9306758 56.9863014,31.5698338 62.4986301,29.0835049 Z" fill="#FFFFFF" fill-rule="nonzero"></path>
                    <path d="M61.3150685,79.9878172 C58.2191781,78.7337478 58.6958904,75.1896386 55.5287671,75.1460188 C54.1753425,75.1896386 56.1369863,76.9344308 56.1863014,76.9780506 C57.6712329,78.461124 57.1232877,80.0641518 57.5013699,81.2964113 C58.0109589,82.8231045 60.6849315,84.5951591 61.9726027,86.1382097 C62.5643836,86.8797463 62.9534247,88.068386 63.5506849,88.755398 C64.1479452,89.4424099 65.830137,90.0912545 66.8383562,90.3257109 C69.8630137,91.0018179 72.3178082,93.8643676 72.3616438,92.9428992 C72.3287671,89.8404406 67.430137,88.629991 66.3342466,86.3999285 C65.9123288,85.5493423 63.7863014,84.387965 63.5945205,83.5210214 C63.2273973,81.9725183 63.1616438,80.249536 61.3589041,79.9878172 L61.3150685,79.9878172 Z" fill="#FFFFFF" fill-rule="nonzero"></path>
                    <path d="M66.3013699,48.05812 C66.4273973,53.1071124 65.2054795,53.3470214 65.2493151,55.1463383 C65.1945205,56.2640958 65.7972603,56.5040047 66.169863,57.2400889 C65.6712329,57.5563325 65.7424658,58.3742039 65.7753425,59.2029802 C65.7424658,62.6707546 67.5232877,64.5464063 67.4849315,67.9705609 C67.5232877,69.8244026 67.5232877,71.3620008 67.4849315,73.3357969 C67.5232877,76.0947496 67.5232877,77.3924388 69.1945205,78.8318923 C70.1260274,79.7751706 69.9890411,81.0128826 71.1671233,81.5581302 L71.2986301,78.9409419 C71.0849315,77.2670318 69.9890411,76.8253813 69.9835616,75.5385971 C69.9835616,75.0533268 70.9479452,73.9301168 71.2986301,72.9214088 L71.2986301,70.195171 C72.4547945,66.4874876 68.8931507,63.9629914 68.9315068,60.9259625 C68.8931507,59.8354673 69.5780822,59.2520524 69.5890411,58.1997246 C69.5890411,57.5999523 68.109589,56.563982 68.6684932,55.9751146 C69.9890411,54.535661 69.3205479,52.2183589 71.8246575,52.1583817 C75.0575342,52.196549 77.660274,58.8758316 79.0575342,58.8322118 C79.8520548,59.1484554 79.4410959,57.6490246 79.4520548,57.2618988 C79.4520548,56.2531909 78.5150685,56.3513354 78.4,55.5607265 C78.0383562,54.3448244 78.4,53.0471352 77.8520548,51.7439935 C77.1945205,49.9228667 74.2136986,49.4485013 71.1452055,48.0799299 C71.2,48.0799299 66.4383562,48.1889794 66.2794521,48.0799299 L66.3013699,48.05812 Z" fill="#FFFFFF" fill-rule="nonzero"></path>
                    <path d="M86.4328767,68.4721887 C85.8191781,69.3282274 84.2410959,71.5092176 82.4876712,71.1984265 C81.939726,71.1275443 82.4876712,72.8341692 82.3561644,73.4230365 C81.6438356,76.1492743 81.5068493,76.5309476 81.5671233,78.7882725 L81.5671233,85.3312433 C84.109589,86.8906513 82.8767123,88.0847435 83.9342466,89.649604 C85.030137,91.4053011 86.1643836,92.0705031 87.090411,93.8371052 C87.8082192,95.107532 87.7753425,97.3157847 88.9315068,98.0246065 C89.1595656,96.6410237 89.2476773,95.2381775 89.1945205,93.8371052 C88.3561644,89.3442653 87.9452055,88.7990178 85.7753425,87.2941345 C84.6794521,86.5525978 85.4794521,83.0739184 84.1972603,79.4425696 C84.1369863,79.0663488 85.2931507,77.2615794 85.6438356,76.7163318 C86.4895274,74.8320177 86.8942208,72.7812255 86.8273973,70.7186086 C86.8553702,69.9576604 86.7209074,69.199456 86.4328767,68.4939986 L86.4328767,68.4721887 Z" fill="#FFFFFF" fill-rule="nonzero"></path>
                    <path d="M99.9780822,101.448761 C96.690411,102.043081 92.1917808,100.407338 92.2191781,100.401886 C92.4657534,98.36266 91.9178082,95.0911746 91.430137,93.2046181 C92.9424658,94.2024211 94.2465753,96.5906054 95.1123288,98.1772758 C95.7863014,97.2721649 96.0273973,96.3179816 97.7424658,95.2983687 C98.2520548,96.2470994 97.9452055,98.2263481 98.1369863,99.2241511 C98.7416715,99.3521349 99.3612554,99.396173 99.9780822,99.3550105 C100.638505,99.3894236 101.300697,99.3454948 101.950685,99.2241511 C102.087671,98.2263481 101.780822,96.2470994 102.213699,95.2983687 C104.005479,96.3179816 104.246575,97.2721649 104.953425,98.1772758 C105.764384,96.5906054 107.068493,94.2024211 108.635616,93.2046181 C108.087671,95.0911746 107.539726,98.36266 107.846575,100.401886 C107.819178,100.401886 103.265753,102.037629 99.9561644,101.448761 L99.9780822,101.448761 Z" fill="#FFFFFF" fill-rule="nonzero"></path>
                    <path d="M99.9780822,73.8374247 C99.9780822,73.8374247 106.690411,73.4175841 112.339726,77.3706289 C112.031647,80.4546076 110.633597,83.3296873 108.394521,85.4839126 L108.263014,77.5014883 C107.956164,77.577823 104.575342,80.8656658 104.580822,80.9038331 C103.013699,74.9061099 101.841096,75.7294337 101.841096,75.5385971 L100,75.4077377 L98.290411,75.5385971 C98.1589041,75.7294337 97.0082192,74.9170149 95.3972603,80.9038331 C95.4465753,80.8656658 92.0657534,77.577823 91.7150685,77.5014883 L91.7150685,85.4839126 C87.830137,81.8689213 87.709589,77.3324616 87.769863,77.3706289 C93.3315068,73.4175841 100.005479,73.8265197 100,73.8374247 L99.9780822,73.8374247 Z" fill="#FFFFFF" fill-rule="nonzero"></path>
                    <path d="M99.9780822,115.974156 L93.4027397,115.428909 C92.8470746,115.048946 92.2213681,114.782106 91.5616438,114.643752 C91.5616438,113.91312 90.1534247,112.615431 88.9315068,109.932813 C88.9315068,109.801954 88.2027397,106.236035 88.1424658,106.26875 C86.8493151,105.723502 85.0356164,104.660269 84.9863014,101.165232 C85.1084665,101.071273 85.1799962,100.926297 85.1799962,100.772654 C85.1799962,100.619011 85.1084665,100.474036 84.9863014,100.380076 L85.3808219,100.380076 C86.746391,102.226764 88.2404694,103.975849 89.8520548,105.614453 C90.2739726,108.700554 91.369863,111.426792 93.0082192,111.895704 C93.4027397,111.944777 94.3232877,111.006951 94.4547945,111.241407 C95.7534247,113.062534 98.2191781,113.607782 99.9780822,113.596877 C101.736986,113.585972 104.246575,113.051629 105.50137,111.241407 C105.671233,111.006951 106.59726,111.944777 106.947945,111.895704 C108.630137,111.426792 109.726027,108.700554 110.10411,105.614453 C111.739615,103.997717 113.235316,102.246732 114.575342,100.380076 L114.969863,100.380076 C114.862711,100.482846 114.802178,100.624565 114.802178,100.772654 C114.802178,100.920743 114.862711,101.062462 114.969863,101.165232 C114.969863,104.660269 113.150685,105.701692 111.813699,106.26875 C111.813699,106.236035 111.057534,109.801954 111.024658,109.932813 C109.846575,112.615431 108.427397,113.91312 108.394521,114.643752 C107.739932,114.797925 107.11706,115.063556 106.553425,115.428909 L99.9780822,115.974156 Z" fill="#FFFFFF"></path>
                    <path d="M94.7178082,52.8890134 C94.5643836,50.9860994 98.7726027,47.1475566 99.0575342,43.2054167 C99.1780822,41.1007611 97.6493151,39.5577105 97.6109589,38.6253372 C97.6493151,38.5599075 100,34.9667261 99.9780822,32.627614 C99.9780822,34.988536 102.350685,38.5817174 102.345205,38.6253372 C102.345205,39.5577105 100.821918,41.1007611 100.89863,43.2054167 C101.227397,47.1475566 105.430137,50.9860994 105.369863,52.8890134 C103.145205,52.0547846 100,53.7777669 99.9780822,53.8050293 C99.9561644,53.8322917 96.8547945,52.0547846 94.7178082,52.8890134 Z" fill="#FFFFFF" fill-rule="nonzero"></path>
                    <path d="M104.449315,28.4292078 C103.594521,28.0257246 107.430137,18.7565161 112.734247,19.2690488 C117.00274,19.7325092 116.334247,19.9833231 117.863014,19.1381894 C118.542466,18.7837785 123.594521,20.9375063 123.649315,20.9702212 C123.594521,20.9375063 128.252055,20.9375063 130.224658,22.2788153 C132.087671,23.6637441 134.005479,25.0050531 134.060274,25.0050531 C134.115068,25.0050531 129.09589,28.6854742 128.536986,29.4542732 C127.989041,30.3212169 128.536986,31.8206477 128.8,32.5948992 C129.09589,33.4563903 128.547945,33.7290141 128.142466,34.5577904 C127.736986,35.3865667 128.273973,38.3745233 128.273973,38.3745233 C128.273973,38.3745233 128.136986,39.3396115 127.353425,39.0288204 C120.054795,33.2055765 118.624658,36.0190539 117.358904,35.4956162 C114.438356,34.4323835 111.69863,37.8401807 110.652055,37.0659292 C110.054795,36.6133737 110.465753,29.7977792 110.520548,29.737802 L111.835616,28.5600672 L111.835616,27.262378 L117.753425,22.9440174 C117.726027,22.9930896 117.863014,22.4478421 116.832877,22.0280015 C115.671233,21.6299707 115.808219,21.7662826 114.59726,22.1588609 C113.386301,22.5514391 108.821918,26.1282631 107.627397,27.3932375 C106.432877,28.6582118 105.260274,28.8545009 104.471233,28.4401128 L104.449315,28.4292078 Z" fill="#FFFFFF" fill-rule="nonzero"></path>
                    <path d="M119.452055,44.263197 L126.158904,44.263197 C121.961644,48.8814438 121.375342,52.2892411 118.005479,53.423356 C115.310034,54.2742854 112.415994,54.2742854 109.720548,53.423356 L110.90411,48.9741359 C110.865753,49.0177557 114.564384,52.6981768 118.027397,50.4135895 C121.490411,48.1290022 119.671233,44.7920871 119.473973,44.263197 L119.452055,44.263197 Z" fill="#FFFFFF" fill-rule="nonzero"></path>
                    <path d="M145.873973,23.1948312 L147.057534,22.2788153 L149.687671,22.2788153 C150.199382,22.7025113 150.887516,22.8492426 151.528767,22.6713936 C152.49863,22.4369371 152.224658,23.5274323 152.186301,24.2417066 C152.147945,24.9559809 152.49863,25.8447344 152.449315,25.8120195 L150.476712,29.6287525 C150.443836,29.6832772 149.490411,27.6440513 148.635616,25.9646888 C148.007124,24.8109866 147.055301,23.8638491 145.89589,23.238451 L145.873973,23.1948312 Z" fill="#FFFFFF" fill-rule="nonzero"></path>
                    <path d="M114.180822,46.7495259 C114.158428,46.3838751 114.285478,46.0247365 114.533117,45.7536749 C114.780756,45.4826133 115.127965,45.3226347 115.49589,45.3100723 C116.278309,45.348386 116.903963,45.9709596 116.942466,46.7495259 C116.871781,47.4917748 116.245153,48.0586317 115.49589,48.05812 C115.145309,48.0640847 114.807322,47.9281315 114.559388,47.6814177 C114.311454,47.4347038 114.174828,47.098381 114.180822,46.7495259 Z" fill="#FFFFFF" fill-rule="nonzero"></path>
                    <path d="M137.589041,29.0835049 C136.416438,28.5982346 137.293151,29.9340911 136.010959,30.5229585 C135.375342,31.1608981 133.457534,31.0245862 133.380822,33.6635844 C133.183562,36.204438 137.156164,37.9764926 138.509589,39.6613076 C139.89589,41.4987919 141.79726,42.7255989 142.849315,45.157403 C144.005479,47.6328269 142.635616,50.9043123 143.506849,51.9620925 C144.279452,53.0853025 144.964384,56.220476 144.821918,58.5050633 C144.597278,61.8877219 143.664052,65.1862207 142.082192,68.18866 C142.109589,68.2159223 141.972603,70.5332245 141.819178,71.7218642 C142.657534,71.7600315 143.753425,69.3064175 143.791781,69.3663947 C143.753425,69.3064175 144.986301,68.624858 145.89589,65.7023311 C146.631213,63.7534953 147.203032,61.7473943 147.605479,59.7046079 C147.863014,58.2869643 147.863014,53.5160481 147.868493,53.5542154 L148.131507,51.7221836 L148.131507,45.3100723 C148.131507,45.3373347 148.958904,45.3373347 148.526027,44.0014782 C148.093151,42.6656216 147.178082,41.6569136 146.158904,40.3374146 C145.260274,38.9306758 143.068493,31.5698338 137.610959,29.0835049 L137.589041,29.0835049 Z" fill="#FFFFFF" fill-rule="nonzero"></path>
                    <path d="M138.630137,79.9878172 C141.80274,78.7337478 141.326027,75.1896386 144.547945,75.1460188 C145.846575,75.1896386 143.884932,76.9344308 143.890411,76.9780506 C142.350685,78.461124 142.89863,80.0641518 142.443836,81.2964113 C142.010959,82.8231045 139.336986,84.5951591 138.10411,86.1382097 C137.457534,86.8797463 137.068493,88.068386 136.526027,88.755398 C135.983562,89.4424099 134.191781,90.0912545 133.238356,90.3257109 C130.158904,91.0018179 127.693151,93.8643676 127.715068,92.9428992 C127.715068,89.8404406 132.586301,88.629991 133.742466,86.3999285 C134.109589,85.5493423 136.235616,84.387965 136.482192,83.5210214 C136.794521,81.9725183 136.865753,80.249536 138.586301,79.9878172 L138.630137,79.9878172 Z" fill="#FFFFFF" fill-rule="nonzero"></path>
                    <path d="M133.775342,48.05812 C133.594521,53.1071124 134.827397,53.3470214 134.827397,55.1463383 C134.827397,56.2640958 134.213699,56.5040047 133.906849,57.2400889 C134.350685,57.5563325 134.279452,58.3742039 134.30137,59.2029802 C134.30137,62.6707546 132.49863,64.5464063 132.460274,67.9705609 C132.49863,69.8244026 132.49863,71.3620008 132.460274,73.3357969 C132.49863,76.0947496 132.49863,77.3924388 130.882192,78.8318923 C129.89589,79.7751706 130.032877,81.0128826 128.778082,81.5581302 L128.646575,78.9409419 C128.936986,77.2670318 130.032877,76.8253813 130.093151,75.5385971 C130.032877,75.0533268 129.073973,73.9301168 128.646575,72.9214088 L128.646575,70.195171 C127.550685,66.4874876 131.128767,63.9629914 131.145205,60.9259625 C131.145205,59.8354673 130.443836,59.2520524 130.487671,58.1997246 C130.443836,57.5999523 131.912329,56.563982 131.408219,55.9751146 C130.032877,54.535661 130.706849,52.2183589 128.252055,52.1583817 C124.964384,52.196549 122.361644,58.8758316 121.019178,58.8322118 C120.169863,59.1484554 120.580822,57.6490246 120.624658,57.2618988 C120.580822,56.2531909 121.506849,56.3513354 121.676712,55.5607265 C121.989041,54.3448244 121.610959,53.0471352 122.071233,51.7439935 C122.810959,49.9228667 125.786301,49.4485013 128.778082,48.0799299 C128.778082,48.0799299 133.561644,48.1889794 133.775342,48.0799299 L133.775342,48.05812 Z" fill="#FFFFFF" fill-rule="nonzero"></path>
                    <path d="M113.654795,68.4721887 C114.20274,69.3282274 115.786301,71.5092176 117.6,71.1984265 C118.115068,71.1275443 117.567123,72.8341692 117.731507,73.4230365 C118.389041,76.1492743 118.526027,76.5309476 118.520548,78.7882725 L118.520548,85.3312433 C115.923288,86.8906513 117.156164,88.0847435 116.153425,89.649604 C114.986301,91.4053011 113.868493,92.0705031 112.865753,93.8371052 C112.224658,95.107532 112.263014,97.3157847 111.156164,98.0246065 C110.876416,96.6473152 110.787919,95.2383393 110.893151,93.8371052 C111.676712,89.3442653 112.087671,88.7990178 114.312329,87.2941345 C115.369863,86.5525978 114.553425,83.0739184 115.758904,79.4425696 C115.89589,79.0663488 114.728767,77.2615794 114.443836,76.7163318 C113.562054,74.8395 113.112757,72.7903579 113.128767,70.7186086 C113.15926,69.9479566 113.345624,69.191338 113.676712,68.4939986 L113.654795,68.4721887 Z" fill="#FFFFFF" fill-rule="nonzero"></path>
                    <path d="M99.9780822,56.3022631 C97.3972603,55.9696621 96.5041096,55.2881027 94.5863014,55.2553878 C90.9917808,55.2881027 89.1452055,60.0481139 89.0630137,61.253111 C89.0630137,63.5104359 90.2739726,68.5539758 94.8493151,69.4972541 C93.9726027,67.6706748 91.6438356,66.1385291 91.6931507,63.4995309 C91.6438356,61.8310734 92.9424658,61.6947615 93.6657534,61.6674991 C93.6986301,61.6947615 94.109589,57.8780286 96.690411,57.7417167 C99.5452055,57.5835949 99.0410959,61.9673853 99.0575342,64.153828 L100.89863,64.153828 C100.958904,61.9728378 100.454795,57.6108573 103.39726,57.7417167 C105.890411,57.8780286 106.30137,61.6947615 106.290411,61.6674991 C107.052055,61.6947615 108.356164,61.8310734 108.394521,63.4995309 C108.356164,66.160339 106.027397,67.6924847 105.238356,69.4972541 C109.726027,68.5539758 110.958904,63.4995309 110.893151,61.253111 C110.854795,60.026304 109.008219,55.2553878 105.369863,55.2553878 C103.490411,55.2881027 102.60274,55.9696621 99.9780822,56.3022631 Z" fill="#FFFFFF" fill-rule="nonzero"></path>
                </g>
            </g>
        </g>
    </g>
</svg>