<svg width="200" height="200" xmlns="http://www.w3.org/2000/svg"><g fill="none" fill-rule="evenodd"><path fill="#FFF" fill-rule="nonzero" d="M.822 24.641H68.81l11.967 19.63h38.4l12.099-19.63h67.857v35.987H188.22v73.674h10.915v40.828h-76.142v-40.828h11.572V103.68l-34.586 68.178-34.455-68.178v30.622h11.441v40.828H.822v-40.828h10.915V60.628H.822V24.64z"/><path d="M199.956 175.948h-77.764v-42.464h11.572v-26.368l-33.786 66.558-33.633-66.52v26.357h11.463v42.437H0v-42.464h10.915V61.446H0V23.824h69.271l11.967 19.628h37.48l12.098-19.628h69.14v37.622h-10.915v72.038h10.915v42.464zm-76.164-1.636h74.52v-39.193h-10.915V59.81h10.915V25.46h-66.575l-12.099 19.63h-39.32L68.35 25.458H1.644v34.35h10.915v75.31H1.644v39.193h74.52v-39.193H64.701V103.68l1.557-.365 33.72 66.728 33.852-66.733 1.556.37v31.44h-11.55l-.044 39.192z" fill="#231F20" fill-rule="nonzero"/><path fill="#F26222" fill-rule="nonzero" d="M6.345 30.138h60.23l8.811 14.132h49.841l8.811-14.132h59.704v25.125h-11.046v84.404h11.046v30.097h-65.227v-30.097h11.441v-57.71l-39.978 76.815L60 81.958v57.709h11.573v30.097H6.345v-30.097H17.26V55.263H6.345V30.138z"/><path d="M194.564 170.582h-66.893v-31.711h11.441V85.317L99.956 160.56 60.822 85.317v53.554h11.573v31.733H5.545v-31.733h10.893V56.08H5.523V29.32H67.03l8.811 14.132h48.932l8.805-14.132h60.986v26.76h-11.046v82.79h11.046v31.712zm-65.205-1.635h63.562v-28.44h-11.047V54.445h11.047v-23.49h-58.428l-8.805 14.133H74.932L66.12 30.955H7.167v23.49h10.915v86.062H7.167v28.461H70.73v-28.461H59.18v-58.55l1.55-.375 39.25 75.413 39.248-75.413 1.551.376v58.549h-11.463l.044 28.44z" fill="#231F20" fill-rule="nonzero"/><path d="M99.978 42.7s-7.671-4.21-9.468-3.664c-1.332.414-2.154 1.227-3.288 1.309-1.058.19-2.74-.398-4.471-.131-1.173.256-1.792.867-2.893 1.047a6.314 6.314 0 0 1-3.288-.393c-.954-.605-2.597 1.03-3.836 1.309-1.238.278-6.318.812-11.835-2.618-3.732-2.322-7.787.11-8.548.393-2.099.856-11.677.714-10.784 9.814 1.036 9.308 7.299 10.23 7.255 12.825-.192 3.571-3.617 7.524-2.893 12.17.29 2.213 1.88 2.306 1.578 3.402-.302 1.096-.548 5.31-.263 6.543.285 1.232.701 1.636.657 2.617.044.922-.093 2.421.263 3.272.562.849.795 1.871.658 2.878-.329.906-.899 1.587-.79 3.01.324 2.258 3.338 4.847 3.946 6.674.488 1.718 1.803 7.148 2.499 8.375 1.824 3.02 5.797 2.884 6.838 4.057 1.15 1.281 3.836 5.714 6.027 6.804 3.732 1.974 5.239 2.656 8.285 3.664 2.072.611 5.951 1.636 9.732 10.077.51 1.183 2.29-.18 3.156 2.224.477 1.603-1.003 3.048 3.682 7.59 1.743 1.669 5.041 1.456 7.76 1.309 2.739.147 6.06.36 7.89-1.309 4.597-4.542 3.117-5.998 3.682-7.59.778-2.404 2.559-1.041 3.156-2.224 3.688-8.419 7.573-9.466 9.731-10.077a45.547 45.547 0 0 0 8.187-3.664c2.246-1.09 4.931-5.523 6.027-6.804 1.096-1.173 5.058-1.036 6.838-4.057.74-1.227 2.055-6.657 2.63-8.375.521-1.827 3.535-4.416 3.836-6.674.154-1.423-.416-2.104-.657-3.01-.307-1.003.104-2.093.548-2.878.443-.786.263-2.35.263-3.272 0-.921.41-1.396.657-2.617.247-1.221.028-5.453-.263-6.543-.29-1.09 1.332-1.189 1.71-3.402.635-4.646-2.79-8.599-2.893-12.17-.137-2.596 6.131-3.517 7.123-12.825.931-9.1-8.641-8.958-10.652-9.814-.85-.284-4.904-2.726-8.68-.393-5.479 3.43-10.542 2.885-11.835 2.618-1.173-.279-2.817-1.914-3.836-1.309-.92.485-2.153.485-3.287.393-1.058-.18-1.677-.797-2.894-1.047-1.682-.257-3.37.321-4.47.13-1.097-.081-1.919-.894-3.289-1.308-1.775-.545-9.446 3.68-9.468 3.664h-.033z" fill="#231F20" fill-rule="nonzero"/><path d="M95.638 52.253c.8-.404-3.035-9.673-8.416-9.16-4.186.463-3.523.714-4.997-.131-.735-.355-5.787 1.799-5.787 1.832 0 .032-4.657-.033-6.575 1.308a357.464 357.464 0 0 0-3.836 2.727s4.932 3.68 5.392 4.449c.614.867.066 2.366-.263 3.14-.219.862.329 1.135.79 1.963.36.807-.187 3.817-.132 3.817a.648.648 0 0 0 .27.593c.19.135.438.158.65.061C80 57.03 81.436 59.842 82.74 59.32c2.865-1.063 5.605 2.345 6.707 1.57.548-.452.131-7.268.131-7.328l-1.315-1.177v-1.298l-5.918-4.318c-.027.049-.164-.497.92-.916 1.086-.42.97-.262 2.236.13 1.266.393 5.72 3.97 6.97 5.235 1.25 1.265 2.313 1.461 3.156 1.047l.011-.011zM80.515 68.087h-6.707c4.274 4.618 4.86 8.026 8.285 9.16 2.65.86 5.504.86 8.154 0l-1.052-4.45c0 .044-3.716 3.725-7.124 1.44-3.408-2.284-1.682-5.621-1.578-6.15h.022zM54.082 47.018l-1.052-.916h-2.619a2.36 2.36 0 0 1-1.973.393c-.893-.235-.619.856-.657 1.57a4.35 4.35 0 0 1-.263 1.57l2.104 3.817c0 .055.931-1.984 1.71-3.664a7.92 7.92 0 0 1 2.74-2.726l.01-.044z" fill="#FFF" fill-rule="nonzero"/><path d="M83.145 70.573a1.42 1.42 0 0 1 1.315-1.44c.797.007 1.44.648 1.447 1.44a1.39 1.39 0 0 1-1.447 1.309 1.345 1.345 0 0 1-1.315-1.309zM62.499 52.907c1.096-.485.24.85 1.446 1.44.713.637 2.63.501 2.74 3.14.142 2.541-3.836 4.313-5.26 5.998-1.31 1.837-3.228 3.064-4.34 5.496-1.112 2.432.29 5.747-.548 6.805-.838 1.057-1.512 4.258-1.315 6.543a23.986 23.986 0 0 0 2.63 9.683c.05.027.186 2.345.263 3.533-.762.039-1.857-2.415-1.841-2.355 0-.06-1.25-.742-2.236-3.664a40.867 40.867 0 0 1-1.578-5.998c-.312-1.417-.312-6.188-.263-6.15l-.263-1.832v-6.412c-.06.027-.882.027-.548-1.309.466-1.39 1.425-2.345 2.367-3.664 1.042-1.407 3.233-8.768 8.746-11.254zm-1.184 50.904c-3.096-1.254-2.62-4.798-5.786-4.841-1.354.043.608 1.788.657 1.832 1.485 1.483.937 3.086 1.315 4.318.51 1.527 3.184 3.299 4.472 4.842.591.741.98 1.93 1.578 2.617.597.687 2.28 1.336 3.287 1.57 3.025.676 5.48 3.539 5.524 2.617-.033-3.102-4.932-4.312-6.028-6.543-.422-.85-2.548-2.011-2.74-2.878-.367-1.549-.432-3.272-2.235-3.534h-.044zm4.986-31.929c.126 5.049-1.096 5.289-1.052 7.088-.054 1.118.548 1.358.92 2.094-.498.316-.427 1.134-.394 1.963-.033 3.467 1.748 5.343 1.71 8.767a125.06 125.06 0 0 1 0 5.365c.038 2.76.038 4.057 1.71 5.496.931.944.794 2.181 1.972 2.727l.132-2.618c-.214-1.673-1.31-2.115-1.315-3.402 0-.485.964-1.608 1.315-2.617v-2.726c1.156-3.708-2.406-6.232-2.367-9.27-.039-1.09.646-1.673.657-2.726 0-.6-1.48-1.635-.92-2.224 1.32-1.44.652-3.757 3.156-3.817 3.233.038 5.835 6.717 7.233 6.674.794.316.383-1.183.394-1.57 0-1.01-.937-.911-1.052-1.702-.362-1.216 0-2.513-.548-3.816-.657-1.822-3.638-2.296-6.707-3.665.055 0-4.707.11-4.866 0l.022-.021zm20.132 20.414c-.614.856-2.192 3.037-3.945 2.726-.548-.07 0 1.636-.132 2.225-.712 2.726-.85 3.107-.789 5.365v6.543c2.543 1.56 1.31 2.753 2.367 4.318 1.096 1.756 2.23 2.421 3.156 4.188.718 1.27.685 3.478 1.842 4.187a20.88 20.88 0 0 0 .263-4.187c-.839-4.493-1.25-5.038-3.42-6.543-1.096-.742-.296-4.22-1.578-7.852-.06-.376 1.096-2.18 1.447-2.726a13.573 13.573 0 0 0 1.183-5.998 5.363 5.363 0 0 0-.394-2.224v-.022zm13.545 32.976c-3.288.595-7.786-1.041-7.759-1.047.247-2.039-.301-5.31-.789-7.197 1.512.998 2.817 3.386 3.682 4.973.674-.905.915-1.86 2.63-2.88.51.95.203 2.929.395 3.927a6.728 6.728 0 0 0 1.841.13 8.366 8.366 0 0 0 1.973-.13c.137-.998-.17-2.977.263-3.926 1.791 1.02 2.033 1.974 2.74 2.879.81-1.587 2.114-3.975 3.682-4.973-.548 1.887-1.096 5.158-.79 7.197-.027 0-4.58 1.636-7.89 1.047h.022z" fill="#FFF" fill-rule="nonzero"/><path d="M99.978 97.661s6.712-.42 12.362 3.533a13.06 13.06 0 0 1-3.945 8.113l-.132-7.982c-.307.076-3.688 3.364-3.682 3.402-1.567-5.997-2.74-5.174-2.74-5.365l-1.841-.13-1.71.13c-.131.191-1.282-.621-2.893 5.365.05-.038-3.331-3.326-3.682-3.402v7.982c-3.885-3.615-4.005-8.151-3.945-8.113 5.562-3.953 12.235-3.544 12.23-3.533h-.022z" fill="#FFF" fill-rule="nonzero"/><path d="M99.978 139.798l-6.575-.546a5.126 5.126 0 0 0-1.841-.785c0-.73-1.409-2.028-2.63-4.71 0-.132-.73-3.697-.79-3.665-1.293-.545-3.106-1.608-3.156-5.103a.495.495 0 0 0 0-.785h.395a49.087 49.087 0 0 0 4.471 5.234c.422 3.086 1.518 5.812 3.156 6.281.395.05 1.315-.889 1.447-.654 1.298 1.821 3.764 2.366 5.523 2.355 1.759-.01 4.269-.545 5.523-2.355.17-.235 1.096.703 1.447.654 1.682-.469 2.778-3.195 3.156-6.281a40.892 40.892 0 0 0 4.471-5.234h.395a.544.544 0 0 0 0 .785c0 3.495-1.82 4.536-3.156 5.103 0-.032-.756 3.533-.79 3.664-1.177 2.683-2.597 3.98-2.63 4.711a5.85 5.85 0 0 0-1.84.785l-6.576.546z" fill="#FFF"/><path d="M94.718 76.713c-.154-1.903 4.055-5.742 4.34-9.684.12-2.105-1.409-3.648-1.447-4.58.038-.066 2.389-3.659 2.367-5.998 0 2.361 2.373 5.954 2.367 5.998 0 .932-1.523 2.475-1.446 4.58.328 3.942 4.531 7.78 4.47 9.684-2.224-.835-5.369.888-5.39.916-.023.027-3.124-1.75-5.261-.916zm9.732-24.46c-.855-.404 2.98-9.673 8.284-9.16 4.269.463 3.6.714 5.129-.131.68-.355 5.732 1.799 5.786 1.832-.054-.033 4.603-.033 6.576 1.308 1.863 1.385 3.78 2.727 3.835 2.727.055 0-4.964 3.68-5.523 4.449-.548.867 0 2.366.263 3.14.296.862-.252 1.135-.658 1.963-.405.83.132 3.817.132 3.817s-.137.965-.92.654c-7.3-5.823-8.73-3.01-9.995-3.533-2.92-1.063-5.66 2.345-6.707 1.57-.597-.452-.186-7.268-.131-7.328l1.315-1.177v-1.298l5.917-4.318c-.027.049.11-.497-.92-.916-1.162-.398-1.025-.262-2.236.13-1.21.393-5.775 3.97-6.97 5.235-1.194 1.265-2.367 1.461-3.156 1.047l-.022-.011zm15.002 15.834h6.707c-4.197 4.618-4.784 8.026-8.154 9.16-2.695.85-5.589.85-8.284 0l1.183-4.45c-.038.044 3.66 3.725 7.123 1.44 3.463-2.284 1.644-5.621 1.447-6.15h-.022zm26.422-21.069l1.184-.916h2.63c.511.424 1.2.57 1.84.393.97-.235.697.856.658 1.57-.038.715.313 1.603.263 1.57l-1.972 3.817c-.033.055-.987-1.984-1.841-3.664a6.789 6.789 0 0 0-2.74-2.726l-.022-.044z" fill="#FFF" fill-rule="nonzero"/><path d="M114.18 70.573a1.354 1.354 0 0 1 .353-.996c.248-.27.595-.43.963-.443a1.52 1.52 0 0 1 1.446 1.44 1.45 1.45 0 0 1-1.446 1.308c-.35.006-.689-.13-.937-.377a1.283 1.283 0 0 1-.378-.932zm23.409-17.666c-1.173-.485-.296.85-1.578 1.44-.636.637-2.553.501-2.63 3.14-.197 2.541 3.775 4.313 5.129 5.998 1.386 1.837 3.287 3.064 4.34 5.496 1.155 2.475-.214 5.747.657 6.805.772 1.123 1.457 4.258 1.315 6.543a24.216 24.216 0 0 1-2.74 9.683c.028.027-.11 2.345-.263 3.533.839.039 1.934-2.415 1.973-2.355-.039-.06 1.194-.742 2.104-3.664a37.55 37.55 0 0 0 1.71-5.998c.257-1.417.257-6.188.262-6.15l.264-1.832v-6.412c0 .027.827.027.394-1.309-.433-1.336-1.348-2.345-2.367-3.664-.899-1.407-3.09-8.768-8.548-11.254h-.022zm1.041 50.904c3.173-1.254 2.696-4.798 5.918-4.841 1.299.043-.663 1.788-.658 1.832-1.54 1.483-.991 3.086-1.446 4.318-.433 1.527-3.107 3.299-4.34 4.842-.646.741-1.036 1.93-1.578 2.617s-2.334 1.336-3.288 1.57c-3.08.676-5.545 3.539-5.523 2.617 0-3.102 4.871-4.312 6.027-6.543.368-.85 2.494-2.011 2.74-2.878.313-1.549.384-3.272 2.104-3.534h.044zm-4.855-31.929c-.18 5.049 1.052 5.289 1.052 7.088 0 1.118-.613 1.358-.92 2.094.444.316.372 1.134.394 1.963 0 3.467-1.802 5.343-1.84 8.767a125.06 125.06 0 0 1 0 5.365c.038 2.76.038 4.057-1.579 5.496-.986.944-.85 2.181-2.104 2.727l-.131-2.618c.29-1.673 1.386-2.115 1.446-3.402-.06-.485-1.019-1.608-1.446-2.617v-2.726c-1.096-3.708 2.482-6.232 2.498-9.27 0-1.09-.701-1.673-.657-2.726-.044-.6 1.424-1.635.92-2.224-1.375-1.44-.701-3.757-3.156-3.817-3.288.038-5.89 6.717-7.233 6.674-.85.316-.438-1.183-.394-1.57-.044-1.01.882-.911 1.052-1.702.312-1.216-.066-2.513.394-3.816.74-1.822 3.715-2.296 6.707-3.665 0 0 4.784.11 4.997 0v-.021zm-20.12 20.414c.548.856 2.131 3.037 3.945 2.726.515-.07-.033 1.636.132 2.225.657 2.726.794 3.107.789 5.365v6.543c-2.598 1.56-1.365 2.753-2.368 4.318-1.167 1.756-2.285 2.421-3.287 4.188-.641 1.27-.603 3.478-1.71 4.187a15.286 15.286 0 0 1-.263-4.187c.784-4.493 1.195-5.038 3.42-6.543 1.057-.742.24-4.22 1.446-7.852.137-.376-1.03-2.18-1.315-2.726a13.852 13.852 0 0 1-1.315-5.998c.03-.77.217-1.527.548-2.224l-.022-.022zm-13.677-12.17c-2.58-.333-3.474-1.014-5.392-1.047-3.594.033-5.44 4.793-5.523 5.998 0 2.257 1.211 7.3 5.786 8.244-.876-1.827-3.205-3.359-3.156-5.998-.05-1.668 1.25-1.805 1.973-1.832.033.027.444-3.79 3.024-3.926 2.855-.158 2.351 4.226 2.368 6.412h1.84c.06-2.18-.443-6.543 2.5-6.412 2.492.137 2.903 3.953 2.892 3.926.762.027 2.066.164 2.105 1.832-.039 2.66-2.368 4.193-3.157 5.998 4.488-.943 5.72-5.998 5.655-8.244-.038-1.227-1.885-5.998-5.523-5.998-1.88.033-2.767.714-5.392 1.047z" fill="#FFF" fill-rule="nonzero"/></g></svg>