<svg width="200" height="200" xmlns="http://www.w3.org/2000/svg"><g fill-rule="nonzero" fill="none"><path d="m199.751 40.359-61.148 19.225 11.201-34.226L91.628 43.7l-2.455 3.987-.095-3.183-51.503 16.24L0 175.57l12.159-5.227c13.61-5.87 48.203-20.785 71.9-29.717.257 5.01 1.91 9.372 4.96 12.968 2.451 2.892 9.223 8.954 21.395 6.822.026.06 3.29-.654 3.29-.654 1.209-.384 42.112-11.553 42.112-11.553l15.792-48.36-27.326 7.443 1.878-5.77 27.713-8.738L186.26 54.85l10.71-3.262 2.781-11.228" fill="#FFF"/><path d="m171.024 89.908 13.385-40.99c-5.142 1.62-36.96 11.653-51.408 16.208l11.2-34.226-50.21 15.83-8.056 13.084-.313-10.446-45.2 14.252-34.52 105.495c6.801-2.888 54.706-23.834 82.012-33.757a26.601 26.601 0 0 0-.306 3.898c0 4.716 1.398 8.756 4.157 12.01 2.208 2.605 8.658 8.307 20.807 4.997l40.424-11.016 13.117-40.17-27.319 7.444 4.515-13.874s25.854-8.151 27.715-8.739" fill="#0B335E"/><path d="m165.903 84.736 8.444-25.859-46.524 14.668a30.249 30.249 0 0 0-5.084 2.125l11.391-34.808-35.892 11.316s-11.501 18.68-18.13 29.45l-.703-23.512L45.54 68.795l-29.054 88.792 26.234-11.145 6.846-20.86.526 17.743 20.171-8.085 6.608-10.715-3.023 9.235 23.82-8.997-2.192 6.737c-2.21 6.769-1.798 12.012 1.228 15.58 2.136 2.52 6.327 5.073 14.166 2.937l37.057-10.098 8.308-25.44-27.305 7.44 9.256-28.444 27.718-8.74" fill="#FAB20B"/><path d="m135.67 90.696 27.54-8.683 5.841-17.894-40.204 12.676c-5.242 1.652-9.679 4.785-13.043 9.114l13.026-39.804-28.357 8.94-23.431 38.06-.908-30.386-27.9 8.798-26.179 80.002 17.916-7.611s7.912-24.14 12.42-37.915c.357 11.977.961 32.354.961 32.354l14.607-5.854s12.56-20.402 21.126-34.331l-9.78 29.877s23.534-8.846 23.787-8.939l-4.377 13.455c-1.819 5.571-1.622 9.717.586 12.323 2.176 2.566 5.768 3.19 10.673 1.853l35.284-9.616 5.776-17.689-27.297 7.437 11.933-36.167" fill="#FFF"/><path d="M129.461 78.744c-7.958 2.51-13.924 8.737-16.795 17.536l-12.007 36.906c-1.584 4.853-1.516 8.343.202 10.37 1.617 1.906 4.502 2.312 8.576 1.202l34.22-9.325 4.257-13.038-27.292 7.436 12.784-39.285c.445-1.363.871-1.554 1.648-1.799l26.538-8.367 4.283-13.117-36.414 11.48M101.814 56.766 75.202 99.992l-1.03-34.51L49.85 73.15l-24.453 74.727 12.924-5.49s10.631-32.46 15.767-48.15l1.221 41.123 11.268-4.516s19.13-31.09 29.837-48.501L82.58 124.608l20.98-7.859 22.09-67.497-23.835 7.514" fill="#0B335E"/><path d="M130.077 80.694s23.353-5.22 29.44-7.139l-1.942 5.948 2.4-.757 2.722-8.337-32.62 10.285M103.156 58.487c-.102.164 11.849-1.594 16.133-2.943l-19.814 60.54 2.45-.911 20.544-62.775c-5.171 1.63-18.172 5.728-19.313 6.089M51.057 90.071l-16.879 51.857 2.494-1.06c.115-.346 14.347-43.823 14.347-43.823l.038-6.974M70.247 71.006l.97 35.427 1.975-3.118-.983-35.072-20.743 6.542c-.063.192 18.78-3.78 18.78-3.78M95.147 76.57l-33.032 53.862 3.08-1.235c.151-.243 27.267-44.33 27.267-44.33l2.685-8.296M119.919 132.142l21.695-3.633-1.921 5.886 2.363-.644c.405-1.24 1.642-5.034 2.738-8.387l-24.875 6.778M118.26 130.477l13.217-40.602c-.525.163-2.311.475-3.195 3.184l-12.387 38.062 2.366-.644" fill="#647AA5"/><path d="m192.563 48.044 1.108-2.069 1.06-.323-.765 3.086-.735.224.522-2.104-.014.003-1.2 2.312-.561.17-.157-1.897-.015.004-.52 2.104-.734.224.764-3.086 1.06-.322.187 1.674Zm-1.945-.55-.796.242-.606 2.449-.776.236.607-2.448-.79.24.158-.637 2.361-.72-.158.638Z" fill="#0B335E"/></g></svg>