<svg width="200" height="200" xmlns="http://www.w3.org/2000/svg"><g fill="none"><path fill="#FFF" d="M166.601 126.67l-.025-51.291 27.459-45.416h-70.776L97.01 74.742 70.568 29.85 0 29.957l27.579 45.627-.123 51.044L0 172.248l193.9.005-27.299-45.583"/><path fill="#231F20" d="M165.018 134.107h-3.516v-66h3.516l20.157-33.18h-58.844L97.014 84.56l-29.31-49.635H8.856l20.16 33.182h3.516v66h-3.516L8.854 167.29h86.647l-20.163-33.183h-3.514V113.01l25.213 42.548 25.02-42.422v20.972h-3.515L98.385 167.29h86.79l-20.157-33.183"/><path fill="#E51636" d="M168.731 44.147l-8.953 14.74h-7.566v84.442h7.566l8.95 14.736h-53.896l8.952-14.736h7.559V79.153l-34.329 58.183-34.47-58.188v64.18h7.558l8.95 14.737H25.307l8.95-14.736h7.566l.002-84.441h-7.566l-8.952-14.741h37.08l34.628 58.65 34.635-58.65h37.082"/><path d="M190.397 163.074c.006.296.156.87 1.152.87.532 0 1.136-.125 1.136-.701 0-.416-.413-.533-.987-.669l-.587-.135c-.872-.202-1.72-.398-1.72-1.587 0-.599.323-1.66 2.084-1.66 1.664 0 2.121 1.08 2.128 1.745h-1.098c-.028-.239-.118-.814-1.106-.814-.437 0-.955.16-.955.646 0 .425.351.51.583.57l1.323.319c.747.176 1.422.48 1.422 1.45 0 1.627-1.662 1.768-2.145 1.768-1.98 0-2.328-1.132-2.328-1.802h1.098zm9.603 1.66h-1.058v-4.514h-.016l-1.01 4.515h-1.12l-.986-4.515h-.017v4.515h-1.067v-5.398h1.665l.988 4.252h.014l.963-4.252H200v5.398z" fill="#231F20"/></g></svg>