<svg width="200" height="200" xmlns="http://www.w3.org/2000/svg"><g fill-rule="nonzero" fill="none"><path fill="#FFF" d="m166.601 126.493-.025-51.647 27.459-45.731h-70.776l-26.25 45.09L70.568 29 0 29.11l27.579 45.944-.123 51.398L0 172.39l193.9.004-27.299-45.9"/><path fill="#231F20" d="M165.018 133.982h-3.516V67.525h3.516l20.157-33.412h-58.844L97.014 84.092l-29.31-49.98H8.856l20.16 33.413h3.516v66.457h-3.516L8.854 167.395h86.647l-20.163-33.413h-3.514v-21.244l25.213 42.844 25.02-42.717v21.117h-3.515l-20.157 33.413h86.79l-20.157-33.413"/><path fill="#E51636" d="m168.731 43.397-8.953 14.844h-7.566v85.027h7.566l8.95 14.838h-53.896l8.952-14.838h7.559V78.647l-34.329 58.586-34.47-58.591v64.626h7.558l8.95 14.838H25.307l8.95-14.838h7.566l.002-85.027h-7.566l-8.952-14.844h37.08l34.628 59.058 34.635-59.058h37.082"/><path d="M190.397 163.15c.006.298.156.877 1.152.877.532 0 1.136-.126 1.136-.707 0-.418-.413-.537-.987-.673l-.587-.136c-.872-.204-1.72-.401-1.72-1.598 0-.603.323-1.673 2.084-1.673 1.664 0 2.121 1.09 2.128 1.759h-1.098c-.028-.241-.118-.82-1.106-.82-.437 0-.955.16-.955.65 0 .428.351.513.583.575l1.323.32c.747.178 1.422.484 1.422 1.46 0 1.638-1.662 1.78-2.145 1.78-1.98 0-2.328-1.139-2.328-1.813h1.098Zm9.603 1.672h-1.058v-4.545h-.016l-1.01 4.545h-1.12l-.986-4.545h-.017v4.545h-1.067v-5.434h1.665l.988 4.28h.014l.963-4.28H200v5.434Z" fill="#231F20"/></g></svg>