<svg width="200" height="200" xmlns="http://www.w3.org/2000/svg"><g fill-rule="nonzero" fill="none"><path d="M188.07 132.344c0 16.541-45.434 23.18-88.373 23.18V145.02c21.487-.033 42.9-4.577 42.9-24.568V45.075h45.473v87.269Zm-95.697 23.18c-42.936 0-88.378-6.639-88.378-23.18v-87.27h45.48v75.378c0 19.99 21.41 24.535 42.898 24.568v10.503ZM138.6 41.075v79.376c0 5.07 0 20.514-38.909 20.572H92.38c-38.908-.058-38.908-15.502-38.908-20.572V41.076H0v91.268c0 12.766 21.137 27.176 92.373 27.176h7.324c71.238 0 92.374-14.41 92.374-27.176V41.076h-53.47Z" fill="#FFF"/><path d="M49.476 120.452V45.075H3.995v87.269c0 16.541 45.442 23.18 88.378 23.18V145.02c-21.488-.033-42.897-4.577-42.897-24.568" fill="#F35E19"/><path d="M142.596 120.452c0 19.99-21.412 24.535-42.899 24.568v10.503c42.939 0 88.373-6.638 88.373-23.18V45.076h-45.474v75.377M196.035 158.67a3.117 3.117 0 0 1-3.114-3.118 3.113 3.113 0 0 1 3.114-3.113 3.113 3.113 0 0 1 3.116 3.113 3.117 3.117 0 0 1-3.116 3.118Zm0-7.084a3.966 3.966 0 0 0-3.964 3.966 3.966 3.966 0 0 0 3.964 3.968 3.967 3.967 0 0 0 0-7.934Z" fill="#004E32"/><path d="M196.318 155.13h-1.056v-.993h1.056a.496.496 0 1 1 0 .993Zm1.345-.497c0-.742-.6-1.344-1.345-1.344l-1.913-.002v4.533h.857v-1.84h.607l.857 1.84h.937l-.895-1.922c.522-.183.895-.679.895-1.265Z" fill="#004E32"/></g></svg>