<svg width="200" height="200" xmlns="http://www.w3.org/2000/svg"><path d="M93.625 143.904L55.41 91.75v37.93h15.285v37.458H0V129.68h14.33V71.362H0V33.904h55.53l38.284 52.629 38.35-52.629h55.53v37.458h-14.331v58.317h14.33v37.458H117v-37.458h15.284V91.75l-38.658 52.155M198.67 162.97c0 1.971-1.417 3.294-3.086 3.294v-.01c-1.71.01-3.078-1.313-3.078-3.284 0-1.968 1.368-3.296 3.078-3.296 1.67 0 3.086 1.328 3.086 3.296zm1.246 0c0-2.71-2.045-4.295-4.332-4.295s-4.323 1.585-4.323 4.295c0 2.706 2.036 4.277 4.323 4.277 2.287 0 4.332-1.571 4.332-4.277zm-5.052.362h.469l1.073 1.937h1.18l-1.191-2.017c.62-.044 1.123-.35 1.123-1.199 0-1.051-.711-1.39-1.913-1.39h-1.73v4.606h.99v-1.937zm0-.782v-1.106h.697c.376 0 .89.035.89.507 0 .508-.262.599-.708.599h-.879z" fill="#FCD213"/></svg>