<svg width="200" height="200" xmlns="http://www.w3.org/2000/svg"><g fill-rule="nonzero" fill="#FCD213"><path d="M93.625 143.895 55.41 91.351v38.213h15.285V167.3H0v-37.737h14.33V70.81H0V33.074h55.53l38.284 53.021 38.35-53.021h55.53V70.81h-14.331v58.753h14.33V167.3H117v-37.737h15.284V91.35l-38.658 52.544M198.67 163.103c0 1.986-1.417 3.319-3.086 3.319v-.011c-1.71.01-3.078-1.322-3.078-3.308 0-1.983 1.368-3.32 3.078-3.32 1.67 0 3.086 1.337 3.086 3.32Zm1.246 0c0-2.73-2.045-4.327-4.332-4.327s-4.323 1.597-4.323 4.327c0 2.726 2.036 4.308 4.323 4.308 2.287 0 4.332-1.582 4.332-4.308Zm-5.052.364h.469l1.073 1.952h1.18l-1.191-2.032c.62-.044 1.123-.354 1.123-1.208 0-1.06-.711-1.401-1.913-1.401h-1.73v4.64h.99v-1.95Zm0-.787v-1.114h.697c.376 0 .89.035.89.51 0 .513-.262.604-.708.604h-.879Z"/></g></svg>