<?xml version="1.0" encoding="UTF-8"?>
<svg width="200px" height="200px" viewBox="0 0 200 200" version="1.1" xmlns="http://www.w3.org/2000/svg" xmlns:xlink="http://www.w3.org/1999/xlink">
    <!-- Generator: Sketch 51.3 (57544) - http://www.bohemiancoding.com/sketch -->
    <title>michigan-st</title>
    <desc>Created with Sketch.</desc>
    <defs></defs>
    <g id="michigan-st" stroke="none" stroke-width="1" fill="none" fill-rule="evenodd">
        <g id="michigan-st_BGL" transform="translate(13.157895, 0.000000)" fill="#124430">
            <g id="michigan-st">
                <g id="g10" transform="translate(87.386616, 100.406565) scale(-1, 1) rotate(-180.000000) translate(-87.386616, -100.406565) translate(0.000000, 0.373754)" fill-rule="nonzero">
                    <g id="g12">
                        <path d="M162.011026,185.102693 C162.011026,185.102693 146.488287,151.870693 146.347583,151.941926 C117.334121,166.447123 83.2540038,165.735241 54.7653031,148.962047 C35.7687801,137.4198 22.6813622,117.940443 21.4845638,94.4342716 C20.5391291,75.8585084 26.4458449,61.4460887 25.5945444,46.636176 C25.131506,38.5823255 23.6251377,33.4467949 19.9290157,26.6364292 C15.1837675,18.7656058 9.49742083,11.949326 0,11.4228676 C2.11293759,14.0447826 16.7738721,21.2303483 11.0080146,54.2296557 C8.72224623,67.316146 -9.37384067,99.7639319 8.11558401,140.446946 C24.0892823,177.591658 93.1853268,221.600159 162.011026,185.102693" id="path14"></path>
                        <path d="M82.8400788,119.969021 C91.7895745,123.174028 101.814257,123.233168 111.317718,121.142153 C129.253876,117.994527 142.681549,107.236493 149.226917,91.2611429 C156.075594,74.544451 160.995571,61.0571699 172.75958,46.7691867 C173.094082,46.3587224 154.387152,49.5001924 154.455291,50.0155262 C159.032138,83.1411169 127.523842,84.5092579 118.834294,72.101232 C125.371034,64.9542724 136.595237,61.2847171 145.306245,62.6827581 C143.458515,29.7822962 152.690746,-0.0695625971 152.169523,0.000858798174 C144.66246,1.03141743 110.263326,21.144474 100.205901,29.8783717 C85.4291562,27.2616892 73.855186,21.8357996 56.7391345,19.4852704 C56.2137087,19.4139943 59.8812918,32.032265 59.3532111,38.3246586 C59.3532111,55.6276967 46.0102703,71.8462033 55.4522283,93.1015268 C61.1117838,105.847686 69.6482395,115.25077 82.8400788,119.969021" id="path16"></path>
                        <path d="M95.2195545,129.948118 C96.2228414,129.934487 97.743811,129.701664 97.771465,129.808292 C98.0566329,130.952184 98.9926653,139.154435 106.027177,145.136836 C113.852372,151.793525 124.137888,151.133968 124.032581,151.195747 C113.784896,154.309735 103.221956,154.528708 95.9308152,153.888938 L95.2195545,129.948118" id="path18"></path>
                        <path d="M30.0373242,100.09459 C28.4800726,90.2372906 29.4143351,82.5270693 30.97756,76.3162409 C30.9941524,76.249186 30.682879,84.5752136 35.4955587,89.3141307 C39.6912224,93.4449361 45.037956,94.2522339 46.9323651,94.1851789 C46.9323651,94.2111215 47.8854323,97.4108524 47.750702,97.4185472 L30.0373242,100.09459" id="path20"></path>
                        <path d="M49.8747499,101.926399 C50.3915477,103.241336 51.0198464,104.39732 51.7881849,105.894074 L33.5796901,112.910442 C32.4476462,110.656076 31.5954608,107.276726 31.1720229,105.444916 L49.8747499,101.926399" id="path22"></path>
                        <path d="M54.2693011,108.826025 C54.3192995,108.882747 57.1935449,112.523282 57.2455344,112.486347 L40.5615489,124.950875 C38.8244357,122.766862 37.4072239,120.37267 36.2725252,117.839091 L54.2693011,108.826025" id="path24"></path>
                        <path d="M60.4810516,115.613087 C60.5726416,115.706744 64.1884564,118.964076 64.1884564,118.964076 L49.7349313,135.298445 C46.4741937,132.485874 45.4839595,131.216666 43.4979604,128.820496 L60.4810516,115.613087" id="path26"></path>
                        <path d="M67.9865664,121.279561 C68.015769,121.078616 72.1397536,123.57328 72.2313436,123.757076 L61.4956212,143.184768 C57.3871229,141.214011 54.7626484,139.100351 53.5622438,138.256997 L67.9865664,121.279561" id="path28"></path>
                        <path d="M75.9500313,125.582071 C81.073763,127.312528 81.0511974,127.365733 81.0511974,127.271416 L74.957806,149.100334 C71.5581348,148.113417 66.967572,146.160689 65.8872965,145.438254 L75.9500313,125.582071" id="path30"></path>
                        <path d="M85.0196559,128.540624 C85.2046058,128.447846 89.6396425,129.524023 89.6958354,129.525562 L90.2617467,153.18563 C90.0759119,153.001834 84.7344879,152.197174 80.201003,150.930385 L85.0196559,128.540624" id="path32"></path>
                        <path d="M158.132388,5.29105417 L157.231974,5.29105417 L157.231974,3.77956939 L158.176413,3.77956939 C158.388353,3.77956939 158.575736,3.84398612 158.731262,3.98825322 C158.886788,4.12137381 158.964662,4.3103149 158.964662,4.52930981 C158.964662,5.03771833 158.666441,5.29105417 158.132388,5.29105417 Z M158.554277,3.40428146 L159.3881,1.72274969 L158.876612,1.72274969 L158.076195,3.35875004 L157.231974,3.35875004 L157.231974,1.72274969 L156.74106,1.72274969 L156.74106,5.70156245 L158.120441,5.70156245 C158.532596,5.70156245 158.843648,5.58992144 159.06665,5.3812376 C159.30005,5.17081693 159.409781,4.89428667 159.409781,4.52930981 C159.409781,3.96679564 159.165098,3.61210787 158.554277,3.40428146 Z M158.065797,6.97257275 C156.252801,6.97257275 154.786254,5.51262136 154.786254,3.71343781 C154.786254,1.91168419 156.252801,0.451728389 158.065797,0.451728389 C159.876359,0.451728389 161.34556,1.91168419 161.34556,3.71343781 C161.34556,5.51262136 159.876359,6.97257275 158.065797,6.97257275 Z M158.065797,0.000858798174 C155.984889,0.000858798174 154.330959,1.64803287 154.330959,3.71343781 C154.330959,5.77886253 155.984889,7.42516077 158.065797,7.42516077 C160.144271,7.42516077 161.800856,5.77886253 161.800856,3.71343781 C161.800856,1.64803287 160.144271,0.000858798174 158.065797,0.000858798174 Z" id="path34"></path>
                    </g>
                </g>
            </g>
        </g>
    </g>
</svg>