<svg width="200" height="200" xmlns="http://www.w3.org/2000/svg"><g fill-rule="nonzero" fill="#124430"><path d="M174.16 15.26s-15.346 33.067-15.485 32.996c-28.682-14.433-62.372-13.725-90.536 2.965-18.779 11.485-31.717 30.867-32.9 54.257-.935 18.483 4.905 32.824 4.063 47.56-.458 8.014-1.947 13.124-5.6 19.9C29.01 180.77 23.388 187.552 14 188.076c2.089-2.609 16.582-9.759 10.882-42.594-2.26-13.021-20.149-45.307-2.86-85.788 15.792-36.96 84.098-80.75 152.137-44.434"/><path d="M95.893 80.07c8.848-3.19 18.758-3.248 28.153-1.167 17.73 3.132 31.005 13.836 37.475 29.732 6.77 16.634 11.635 30.054 23.264 44.27.33.41-18.162-2.717-18.095-3.23 4.525-32.96-26.624-34.322-35.214-21.975 6.462 7.111 17.558 10.762 26.17 9.371-1.827 32.737 7.3 62.44 6.784 62.37-7.42-1.025-41.427-21.038-51.37-29.729-14.607 2.604-26.049 8.003-42.97 10.342-.519.07 3.107-12.485 2.585-18.746 0-17.217-13.19-33.355-3.857-54.504 5.595-12.683 14.034-22.04 27.075-26.734M108.131 70.14c.992.014 2.496.246 2.523.14.282-1.139 1.207-9.3 8.161-15.253 7.736-6.623 17.904-5.967 17.8-6.028-10.13-3.099-20.573-3.317-27.78-2.68l-.704 23.822M43.694 99.846c-1.54 9.808-.616 17.48.93 23.66.016.066-.292-8.218 4.466-12.934 4.148-4.11 9.433-4.913 11.306-4.846 0-.026.942-3.21.809-3.218l-17.511-2.662M63.305 98.023c.51-1.309 1.132-2.459 1.891-3.948l-18-6.982c-1.12 2.244-1.962 5.606-2.38 7.429l18.489 3.5M67.65 91.158c.049-.057 2.89-3.68 2.941-3.643L54.098 75.113c-1.717 2.173-3.118 4.555-4.24 7.076l17.791 8.969M73.79 84.404c.09-.093 3.665-3.334 3.665-3.334L63.167 64.817c-3.224 2.798-4.203 4.061-6.166 6.446L73.79 84.404M81.21 78.766c.028.2 4.105-2.282 4.196-2.465L74.793 56.97c-4.062 1.96-6.656 4.064-7.843 4.903l14.26 16.893M89.082 74.485c5.065-1.722 5.043-1.775 5.043-1.681L88.1 51.084c-3.36.982-7.899 2.925-8.967 3.643l9.948 19.758M98.048 71.541c.183.092 4.567-.978 4.623-.98l.56-23.542c-.185.183-5.465.983-9.947 2.244l4.764 22.278"/><path d="M170.325 194.177h-.89v1.504h.934c.21 0 .394-.064.548-.207a.686.686 0 0 0 .23-.539c0-.505-.294-.758-.822-.758Zm.417 1.878.825 1.673h-.506l-.791-1.628h-.835v1.628h-.485v-3.959h1.363c.408 0 .715.111.936.319.23.21.339.484.339.847 0 .56-.242.913-.846 1.12Zm-.483-3.55a3.242 3.242 0 0 0-3.242 3.242 3.242 3.242 0 1 0 6.485 0 3.244 3.244 0 0 0-3.243-3.243Zm0 6.936a3.672 3.672 0 0 1-3.692-3.694 3.672 3.672 0 0 1 3.692-3.693 3.673 3.673 0 0 1 3.693 3.693 3.674 3.674 0 0 1-3.693 3.694Z"/></g></svg>