<?xml version="1.0" encoding="UTF-8"?>
<svg width="200px" height="200px" viewBox="0 0 200 200" version="1.1" xmlns="http://www.w3.org/2000/svg" xmlns:xlink="http://www.w3.org/1999/xlink">
    <!-- Generator: Sketch 51.3 (57544) - http://www.bohemiancoding.com/sketch -->
    <title>michigan</title>
    <desc>Created with Sketch.</desc>
    <defs></defs>
    <g id="michigan" stroke="none" stroke-width="1" fill="none" fill-rule="evenodd">
        <g id="michigan_BGL" transform="translate(0.000000, 33.830846)" fill="#FCD213">
            <g id="michigan">
                <g id="g10" transform="translate(99.987611, 66.726620) scale(-1, 1) rotate(-180.000000) translate(-99.987611, -66.726620) translate(0.000000, 0.037383)" fill-rule="nonzero">
                    <g id="g12">
                        <g id="g14" transform="translate(0.000000, 0.102867)">
                            <polyline id="path16" points="93.6248695 23.23941 55.4105149 75.3944131 55.4105149 37.4644993 70.6957731 37.4644993 70.6957731 0.00729073255 0 0.00729073255 0 37.4644993 14.32998 37.4644993 14.32998 95.7819017 0 95.7819017 0 133.239772 55.5301549 133.239772 93.8139446 80.6112392 132.163715 133.239772 187.693294 133.239772 187.693294 95.7819017 173.362969 95.7819017 173.362969 37.4644993 187.693294 37.4644993 187.693294 0.00729073255 116.998557 0.00729073255 116.998557 37.4644993 132.28347 37.4644993 132.28347 75.3944131 93.6248695 23.23941"></polyline>
                        </g>
                        <g id="g18" transform="translate(191.257035, 0.000000)">
                            <path d="M7.41283517,4.27677581 C7.41283517,2.30562123 5.99625267,0.982619026 4.32701563,0.982619026 L4.32701563,0.993453826 C2.61730481,0.982619026 1.24855496,2.30562123 1.24855496,4.27677581 C1.24855496,6.24497213 2.61730481,7.57285607 4.32701563,7.57285607 C5.99625267,7.57285607 7.41283517,6.24497213 7.41283517,4.27677581 Z M8.65893718,4.27677581 C8.65893718,6.98664466 6.61439776,8.57122817 4.32701563,8.57122817 C2.0396335,8.57122817 0.00367943506,6.98664466 0.00367943506,4.27677581 C0.00367943506,1.57082696 2.0396335,0 4.32701563,0 C6.61439776,0 8.65893718,1.57082696 8.65893718,4.27677581 Z M3.60707284,3.91479608 L4.07558757,3.91479608 L5.14875613,1.97806938 L6.32862831,1.97806938 L5.13771783,3.99448664 C5.75708939,4.03875107 6.261172,4.34563158 6.261172,5.19349733 C6.261172,6.24497213 5.54981455,6.58435704 4.34786577,6.58435704 L2.61730481,6.58435704 L2.61730481,1.97806938 L3.60707284,1.97806938 L3.60707284,3.91479608 Z M3.60707284,4.69677651 L3.60707284,5.80235226 L4.30371254,5.80235226 C4.6802414,5.80235226 5.19413583,5.76792438 5.19413583,5.29578272 C5.19413583,4.78726535 4.93166946,4.69677651 4.48645782,4.69677651 L3.60707284,4.69677651 Z" id="path20"></path>
                        </g>
                    </g>
                </g>
            </g>
        </g>
    </g>
</svg>