<svg width="200" height="200" xmlns="http://www.w3.org/2000/svg"><g fill="#124430"><path d="M175.169 15.337s-15.523 33.232-15.664 33.16c-29.013-14.505-63.093-13.793-91.582 2.98C48.927 63.02 35.84 82.5 34.643 106.005c-.946 18.576 4.96 32.988 4.11 47.798-.464 8.054-1.97 13.19-5.666 20-4.745 7.87-10.432 14.687-19.93 15.214 2.114-2.622 16.775-9.808 11.009-42.807-2.286-13.087-20.382-45.535-2.893-86.218 15.974-37.144 85.07-81.153 153.896-44.655"/><path d="M95.998 80.47c8.95-3.205 18.974-3.264 28.478-1.173 17.936 3.148 31.363 13.906 37.909 29.881 6.848 16.717 11.768 30.204 23.532 44.492.335.41-18.372-2.73-18.304-3.246 4.577-33.126-26.931-34.494-35.62-22.086 6.536 7.147 17.76 10.817 26.471 9.419-1.848 32.9 7.385 62.752 6.863 62.682-7.507-1.031-41.906-21.144-51.963-29.878-14.777 2.617-26.35 8.043-43.467 10.393-.525.071 3.142-12.547 2.614-18.84 0-17.302-13.343-33.52-3.9-54.776 5.659-12.746 14.195-22.15 27.387-26.868m12.379-9.979c1.004.014 2.525.247 2.552.14.286-1.144 1.222-9.346 8.256-15.328 7.825-6.657 18.11-5.998 18.005-6.06-10.247-3.113-20.81-3.332-28.101-2.693l-.712 23.941m-65.182 29.854c-1.557 9.857-.623 17.567.94 23.778.017.067-.294-8.259 4.518-12.998 4.196-4.13 9.543-4.938 11.437-4.87 0-.027.953-3.226.819-3.234l-17.714-2.676m19.838-1.832c.516-1.315 1.145-2.47 1.913-3.968L46.738 87.53c-1.132 2.254-1.985 5.634-2.408 7.465l18.703 3.519m4.394-6.901c.05-.056 2.924-3.697 2.976-3.66L53.72 75.489c-1.737 2.184-3.154 4.578-4.289 7.111l17.997 9.013m6.211-6.787c.092-.093 3.707-3.35 3.707-3.35L62.893 65.14c-3.26 2.813-4.251 4.082-6.237 6.478l16.983 13.207m7.505-5.665c.03.2 4.154-2.294 4.245-2.478L74.654 57.255c-4.109 1.97-6.733 4.084-7.934 4.927L81.144 79.16m7.964-4.303c5.124-1.73 5.101-1.783 5.101-1.689l-6.093-21.829c-3.4.987-7.99 2.94-9.07 3.662l10.062 19.856m9.07-2.958c.185.093 4.62-.984 4.676-.985l.566-23.66c-.186.184-5.528.988-10.061 2.255l4.819 22.39"/><path d="M171.29 195.148h-.9v1.512h.944c.212 0 .4-.065.555-.209a.687.687 0 0 0 .234-.54c0-.51-.299-.763-.833-.763zm.422 1.887l.834 1.682h-.511l-.8-1.636h-.845v1.636h-.491v-3.98h1.38c.411 0 .723.112.946.321.233.21.343.487.343.852 0 .563-.245.917-.856 1.125zm-.488-3.568a3.269 3.269 0 0 0-3.28 3.259 3.27 3.27 0 0 0 3.28 3.262c1.81 0 3.28-1.46 3.28-3.262 0-1.8-1.47-3.26-3.28-3.26zm0 6.972c-2.081 0-3.735-1.648-3.735-3.713 0-2.065 1.654-3.712 3.735-3.712 2.078 0 3.735 1.647 3.735 3.712a3.705 3.705 0 0 1-3.735 3.713z"/></g></svg>