<svg width="200" height="200" xmlns="http://www.w3.org/2000/svg" xmlns:xlink="http://www.w3.org/1999/xlink"><defs><path id="a" d="M0 0h69.09v74.718H0z"/></defs><g fill="none" fill-rule="evenodd"><path d="M103.002 114.364a4709.104 4709.104 0 0 1-3.636 12.74h-5.523l4.29-15.014h5.517l-.648 2.274Zm60.123-39.383c-6.328-.005-12.636-.006-18.936-.006l-14.33-.003c-7.046-.004-14.079-.006-21.11-.008l.021-.077c.571-2.022 1.154-4.045 1.729-6.064l-45.377.184-3.994-11.657c-.52-1.463-1.04-2.924-1.557-4.39l-1.318-3.728h-34.77l-8.477 29.71h5.485c-.926 3.231-1.854 6.466-2.784 9.699-.908 3.16-1.81 6.32-2.712 9.482l-.939 3.284H8.563l-1.159 4.058c-1.787 6.259-3.569 12.49-5.36 18.743L0 131.347l43.926-.027 1.159-4.052c.837-2.928 1.677-5.855 2.518-8.782.918-3.2 1.837-6.401 2.753-9.607h4.768l-6.412 22.444 43.794-.012L85.162 157h45.533l1.155-4.063c1.776-6.235 3.56-12.48 5.345-18.716l2.041-7.131h-5.511l.145-.508c.875-3.057 1.749-6.111 2.615-9.157l1.518-5.334h21.932l1.226-4.297c1.209-4.232 2.421-8.48 3.636-12.709l5.73-20.098-7.402-.005Z" fill="#1A1919"/><path d="M94.991 149.585h30.106c1.43-5.025 2.868-10.057 4.307-15.083h-5.506l2.845-9.964c.874-3.052 1.747-6.101 2.613-9.146l2.108-7.405c.893-3.14 1.785-6.28 2.681-9.416l.378-1.321h7.409l-.663 2.322c-.301 1.051-.6 2.108-.897 3.163l-.548 1.942h14.517c1.107-3.877 2.218-7.765 3.327-11.63l3.04-10.655c-5.52-.004-11.026-.004-16.527-.004l-14.324-.003c-10.639-.004-21.24-.009-31.867-.01l-6.372 22.302h14.503c.295-1.038.592-2.077.889-3.116l1.23-4.311h7.357l-.663 2.322c-1.602 5.603-3.204 11.214-4.8 16.817a5594.968 5594.968 0 0 1-4.344 15.21l-.837 2.918h-5.654l-4.308 15.068Zm32.855 3.642H90.163l6.391-22.353h5.655l.08-.278c1.455-5.077 2.905-10.136 4.342-15.203l2.017-7.075h-21.86l8.455-29.584h1.375c11.086 0 22.142.005 33.24.01l14.323.002c6.302.001 12.612.001 18.94.006l2.41.002-4.362 15.295a9671.533 9671.533 0 0 0-3.632 12.703l-.448 1.566h-21.934l-.188.663-2.108 7.408c-.867 3.046-1.74 6.097-2.614 9.152l-1.52 5.32h5.509l-.665 2.32c-1.785 6.24-3.571 12.487-5.346 18.723l-.377 1.323Z" fill="#FFFFFE"/><g transform="translate(91.618 82.375)"><mask id="b" fill="#fff"><use xlink:href="#a"/></mask><path d="M69.09.017C63.57.013 58.062.013 52.562.012L38.239.01C27.599.006 16.999 0 6.372 0L0 22.302h14.502l.89-3.116 1.23-4.311h7.357l-.664 2.321c-1.602 5.603-3.203 11.215-4.8 16.818a5594.814 5594.814 0 0 1-4.344 15.21l-.837 2.918H7.681L3.373 67.21h30.106c1.43-5.025 2.868-10.057 4.306-15.083H32.28l2.845-9.964c.874-3.052 1.747-6.101 2.613-9.147l2.107-7.405c.893-3.14 1.785-6.278 2.682-9.415l.378-1.321h7.409l-.664 2.321c-.3 1.052-.599 2.109-.897 3.164-.182.648-.364 1.294-.548 1.942h14.518c1.107-3.878 2.218-7.765 3.327-11.63L69.09.017" fill="#006FAB" mask="url(#b)"/><path d="M42.436 69.869a2.55 2.55 0 0 0-.8.532c-.23.265-.428.527-.56.862-.133.297-.2.629-.2.961 0 .332.067.66.167.96.131.297.33.565.562.829.232.233.497.432.83.563.298.132.629.2.96.2.366 0 .696-.068.996-.2.297-.131.595-.298.829-.53.233-.232.431-.528.562-.83.133-.3.199-.628.199-.992a2.36 2.36 0 0 0-.2-.961 2.462 2.462 0 0 0-.529-.796c-.231-.267-.498-.432-.829-.569a2.54 2.54 0 0 0-1.029-.195c-.33 0-.661.067-.958.166Zm1.824.428c.227.137.461.27.661.502.2.165.331.392.43.626.102.268.164.531.164.799 0 .297-.062.564-.165.826a2.13 2.13 0 0 1-.463.668c-.2.197-.4.328-.662.429a2.32 2.32 0 0 1-.83.165c-.265 0-.527-.066-.795-.165-.265-.101-.464-.266-.664-.464a2.306 2.306 0 0 1-.466-.665 2.15 2.15 0 0 1-.13-.794c0-.268.033-.531.167-.799a1.93 1.93 0 0 1 .464-.693c.196-.197.399-.331.663-.435a1.99 1.99 0 0 1 .76-.13c.335 0 .598.033.866.13Zm-1.164 3.287v-1.127h.234l.53 1.127h.861l-.63-1.229a.844.844 0 0 0 .433-.299.714.714 0 0 0 .164-.463c0-.266-.1-.462-.297-.6-.233-.126-.53-.194-.894-.194h-1.162v2.785h.761Zm.665-2.222c.1.063.133.166.133.296 0 .102-.033.2-.133.267-.066.065-.2.097-.4.097h-.265v-.76h.234c.198 0 .365.034.43.1Z" fill="#1A1919" mask="url(#b)"/></g><path fill="#FFFFFE" d="m102.94 75.51 1.798-1.297.336-1.23.33-1.197.336-1.23.365-1.23.335-1.19.33-1.233.334-1.196.331-1.227.336-1.197.364-1.227.336-1.231.333-1.195.329-1.23.337-1.228.333-1.194.365-1.232-3.632-.887-.33 1.23-.336 1.196-.332 1.23-.333 1.192-.331 1.23-.37 1.23-.332 1.228-.334 1.197-.33 1.228-.335 1.196-.668 2.457-.364 1.193-.3 1.23-.366 1.227-.333 1.202 1.798-1.301v3.487h1.433l.365-1.298-1.798 1.298"/><path fill="#1A1919" d="m162.695 62.804.1.24.034.274.067.58-1.666-.513-1.7-.478.134-.135.133-.102.2-.072h1.032l1.666.206"/><path fill="#FFFFFE" d="m192.97 78.727-6.038-3.32 2.394-1.252-.52-.441-6.657-1.845 1.323-1.18-6.145-1.548-.037.368 1.657 2.656 4.452 2.246-1.62 1.184 10.893 3.65.297-.518"/><path fill="#1A1919" d="m182.28 69.361-.102-.512-11.49-2.664-.134.583 11.495 2.626-.135-.478.365.445.466-.376-.567-.136.101.512"/><path fill="#1A1919" d="m179.95 70.59.096.513 2.233-1.742-.365-.445-2.23 1.742.097.479-.097-.479-.434.343.531.136.169-.547"/><path fill="#1A1919" d="m190.14 73.8-.033-.545-10.157-2.665-.169.547 10.194 2.663-.07-.512.235.512"/><path fill="#1A1919" d="M186.412 75.063v.515l3.728-1.778-.234-.512-3.728 1.775v.515-.515l-.533.276.533.239.234-.515"/><path fill="#1A1919" d="m199.835 82.028.165-.509-13.588-6.456-.234.515 13.587 6.45.205-.546-.135.546"/><path fill="#1A1919" d="m179.352 75.68.031.51 20.452 5.838.135-.546-20.421-5.839.065.548-.262-.51"/><path fill="#1A1919" d="m182.383 74.45-.07-.512-2.961 1.742.262.51 3-1.777-.037-.512.037.512.466-.274-.503-.238-.194.548"/><path fill="#1A1919" d="m174.451 70.351-.03.513 7.962 3.585.194-.548-7.925-3.55v.513l-.2-.513-.6.24.569.273.03-.513"/><path fill="#1A1919" d="M176.883 69.838v-.512l-2.432 1.025.201.513 2.433-1.026.036-.512-.036.512.598-.203-.562-.309-.238.512"/><path fill="#1A1919" d="m170.689 66.185-.165.548 6.359 3.105.238-.512-6.366-3.106-.2.548.134-.583M143.877 72.844l3.666 1.403 2.496.92 1.133.444-.434 1.875 8.59 2.87 5.898 1.912 2.665.853.238.102.163.138.132.173.133.203.1.205.066.238.133.41.1.788.068.27.068.067.033.038.066.033h.097l.201-.07.234-.067.234-.101.397-.206.2-.103 1.836.99 4.128 2.186 4.132 2.186 1.863.99-1.366.376-3.197.921-3.796.99-1.7.447-1.367.338-.764.14-.399.033-.334.031h-.366l-.368-.031-.367-.034-.3-.105-.364-.103-.302-.135-.333-.173-.298-.202-.301-.272-.265-.31-.265-.342-.268-.409-.133-.272-.1-.206-.2-.135-.165-.07-.231-.034-.302-.067-.833-.069-2.637-.375v-.239l.038-.514v-.786l-1.599-.647-3.868-1.537-4.762-1.845-2.263-.85-1.965-.755-10.06-3.618 7.164-7.888"/><path fill="#FFFFFE" d="m149.437 75.986.533 2.322 5.163 1.64 5.729 1.844 4.633 1.5 1.894.615.203.139.136.17.062.169.1.205.036.241v.238l.065.479.033.205.035.202.07.206.13.135.165.173.166.1.266.073.335.031.399-.104.399-.135.499-.205 6.03 3.142 3.795 1.946-.896.307-2.296.683-1.5.41-1.568.41-1.663.375-.769.171-.798.17-.369.034-.363.07h-1.067l-.334-.07-.334-.065-.297-.139-.301-.138-.301-.203-.267-.206-.231-.271-.234-.304-.166-.38-.167-.41-.166-.477-4.129-.514.03-1.367-12.388-4.676-12.36-4.712.3-.307.304-.376 3.46 1.333 4 1.466 8.226 3.04 3.663 1.367 2.997 1.092 2.767 1.023-.035.75-.034.685 1.937.238 1.928.241.067.41.098.374.168.376.232.375.271.308.331.308.297.24.201.067.166.069.203.032.265.034h.567l.663-.066.733-.069.799-.137.834-.17 1.664-.411 1.536-.409 1.332-.375 1.233-.41-7.965-4.066-.63.208-.6.1-.333.07-.301.034-.399-.104-.3-.067-.234-.137-.198-.172-.135-.202-.068-.208-.066-.273-.032-.2-.031-.517-.07-.237-.03-.238-.103-.207-.133-.208-.2-.163-.265-.176-2.098-.68-2.134-.684-4.295-1.331-8.56-2.664-.733-2.457-5.96-2.395.43-.442 2.366.854 2.1.788 1.862.647"/><path fill="#FFFFFE" d="m147.273 77.556.631 1.912 8.529 2.733-3.73-.82-6.03-1.366-.232-.716-.167-.48-.064-.237-.87-.343-1.965-.683-2.828-1.059 1.03-1.127 5.696 2.186"/><path fill="#1A1919" d="m137.947 80.628-3.36 3.314-1.703 1.637-1.73 1.605-1.732 1.573-.868.75-.898.752-.865.718-.903.682-.932.648-.898.65-.333.239-.334.17-.369.136-.363.103-.368.068h-.366l-.398-.068-.4-.07.467-2.868.531-2.933.534-2.938.497-2.902.034-.275.132-.307.136-.272.13-.276.169-.203.231-.238.27-.172.264-.203.268-.103.333-.137.334-.07.366-.065h.765l.398.03.436.105.264-.65.27-.613.831.07.57.067h.23l.066-.137.133-.309.17-.443-5.101 1.808-7.028 2.495-.532-.377-.501-.41-1.131-.715-1.102-.717-1.163-.649-1.2-.652-1.227-.543-1.232-.549-1.237-.441-1.267-.446-1.231-.375-1.198-.307-.54.293-1.644.143-1.787-.43-.528-.654H58.906l4.232-2.426 2.562-1.536-.495-.068-.503-.034-1.2-.273-1.265-.341-1.368-.444-1.462-.479-1.434-.513-2.931-1.093-2.665-1.09-2.198-.957-1.466-.649-.565-.274.434-.649-1.065-.067H46.45l-3.597-1.399-3.633-1.435.102-.07.165-.204.136-.172.063-.102-2.196-.067-1.1-.444-2.499-.994-2.531-.987-1.166-.442.434-.582-1.035-.035h-.996l-3.467-1.399-3.463-1.365.167-.24.132-.205.034-.07h-.932l-.934-.034-3.096-1.228-2.166-.854-.999-.411.1-.237.101-.17v-.071l-1.47.07-4.89-2.082-2.2-1.026-1-.475-.93-.48-.836-.514-.729-.476-.668-.514-.268-.24-.233-.238-.234-.271-.166-.243-.166-.27-.1-.239-.1-.24-.033-.272V43l46.299.035 31.81.034h14.921l.467.034.464.066.437.069.463.106.436.1.798.307.763.308.768.41.635.48.664.476.6.545.533.58.466.581.468.617.367.61.365.616.3.65.232.617.467-.104 1.064-.276 1.469-.44-.298-.274-.604-.51-.867-.721 1.601-.372 1.464-.345 1.364-.236 1.166-.172 1.003-.137.73-.104.635-.067-1.365-1.364 2.563-.17 2.563-.104 2.6-.103 2.467-.034-.367-.513-.3-.34 1.73-.069 1.735-.035h1.728l1.768.068 1.766.071 1.764.099 1.765.171 1.767.207 1.764.2 1.734.31 1.729.308 1.7.375 1.733.445 1.663.413 1.664.51 1.633.547 2.367-.479 1.2-.205 1.231-.137.6-.07.603-.034h.629l.599.035.6.07.6.101.6.14.533.201-1.396 1.3-.97.886-.433.41 2.166 1.06 2.164 1.092 1.066.579 1.065.614 1.033.684 1.031.717-.632.104-.63.137 2.033 1.225.963.651 1 .65.734-.102.632-.07.567.48.468.444.43.408.369.41.298.374.267.377.23.341.2.275.236.513.133.373.066.238v.068l-.367.073-.267.065-.23.068-.167.17-.07.105-.031.137-.036.135.036.137.064.17.066.106.17.271.163.135.07.067v.24l-.035.24-.132.547-.167.479-.2.476-.234.41-.166.307-.166.308-1.598-.308-1.633-.307-.134.307-.165.308-.267.34-.299.343-.333.308-.432.307-.47.272-.265.1-.3.137-.265.07-.301.102-.368.07-.331.033-.333.035h-.402l-.4-.035-.432-.065-.464-.071-.437-.104-.495-.134-.503-.138-.532-.204-.53-.239-.567-.274-.601-.274.07-.17.065-.237v-.274l-.035-.272-.03-.137-.07-.138-.065-.139-.099-.067-.104-.064-.164-.037h-.168l-.233.037-.603.131-.565.207-1.163.375-.565.206-.568.172-.633.101-.6.067-.434.07-.431.034h-.9l-.966-.104-.466-.032-1.002-.208-.497-.135-.534-.171-.499-.168-.498-.207-.501-.24-.464-.272-.467-.307-.434.034-.9.101-1.097.138-.503.102-.433.138 2.267.2 1.365.106.567.718.997 1.263.568.785.566.786.466.75.164.343.17.342.031.168.034.136v.344l-.065.342-.102.307-.166.271-.167.31-.2.238-.197.238-7.196 7.887"/><path fill="#FFFFFE" d="m91.882 44.126.732.034.7.035.633.103.632.17.57.137.597.206.5.237.498.24.467.272.466.275.401.306.367.342.365.308.331.374.334.31.27.373.496.683.402.652.329.678.239.548.199.446.131.408.069.309.697-.239.733-.242 1.532-.409 2.998-.782-.834-.683-.798-.653.598-.134.671-.135 1.326-.21 1.335-.17 1.3-.167 1.134-.07.897-.102.798-.069-.599-.649-.599-.646 2.597-.104 1.398-.067 1.368-.036h2.635l1.23.036 1.163.067-.467-.548-.465-.512.667-.035h3.065l1.367.069 1.499.037 1.596.134 1.733.137 1.798.206 1.833.239 1.933.273 1.897.342 1.966.408 1.93.445.967.273.966.272.932.274.932.342.565-.106.569-.102 1.2-.237 1.198-.238.634-.07.632-.064.634-.071.697-.032h.665l.668.032-.799.65-.901.748-1.03.887 2.098.959 2.03.955 1.935.957.932.512.932.544-1.066.24-1.101.207.903.409 2.061 1.058 1.232.65 1.201.682 1.133.65.465.34.435.273 1.198-.204.301.17.264.207.236.237.23.206.436.444.332.478.269.375.163.343.135.272-.435.204-.261.204-.138.102-.065.105-.1.136-.036.17-.032.171.032.17.067.206.134.208.199.271.234.238-.034.242-.132.578-.13.307-.137.343-.201.304-.1.172-.133.106-.5-.106-1.163-.24-1.666-.442-.1.237-.1.205-.134.274-.201.342-.266.307-.3.342-.365.308-.234.17-.233.101-.268.173-.265.101-.3.069-.333.102-.334.036-.366.031h-.4l-.43-.031-.436-.069-.464-.102-.498-.137-.537-.173-.533-.17-.562-.237.03-.378v-.305l-.03-.31-.101-.204-.133-.24-.136-.17-.197-.17-.201-.102-.265-.101-.2-.07-.3-.068h-.536l-.262.068-.273.07-.296.101-.568.206-.864.304-.565.206-.603.17-.665.172-.7.105-.8.068-.798.032-.433-.032-.431-.035-.469-.07-.465-.068-.468-.139-.464-.099-.467-.172-.5-.206-.5-.205-.5-.272-.5-.307-.497-.307-.698.069-.8.1-1.7.275-1.8.374-1.731.411-1.599.41-1.298.375-.899.274-.238.103-.098.032 1.166-.032h4.663l1.768.065 1.697.037 1.467.102.397.548.435.65.864 1.398.667 1.127.267.477.102.17.032.17v.137l-.032.171-.073.173-.029.101-2.53 2.905-2.564 2.868-1.301 1.4-1.266 1.363-1.33 1.331-1.301 1.332-1.332 1.297-1.366 1.299-1.367 1.229-1.397 1.264-1.434 1.16-1.43 1.231-1.47 1.16-1.532 1.126-.195.069-.235.068h-.267l-.264-.034 1.627-8.673.27-1.606.133-.375.2-.376.1-.138.099-.168.166-.137.167-.173.202-.1.231-.069.302-.066.267-.035h.363l.432.035.468.1.5.135.268-.717.166-.474.1-.241.832.136.831.135.266-.408.636-.992.333-.612.367-.648.33-.613.234-.55h-.066l-.134.035-.567.14-1.633.58-2.295.884-2.6.957-4.795 1.88-1.6.647-.601.206-.73-.58-.834-.581-.932-.58-1.035-.617-1.097-.615-1.164-.58-1.197-.547-1.266-.512-1.299-.479-1.336-.44-1.398-.377-1.366-.342-.7-.137-.697-.133-.7-.105-.704-.07-.695-.067-.701-.032-.667-.039h-.699l-36.339-.03 3.23-1.98 3.132-1.915-.5.036H67.7l-.601-.07-.633-.065-.664-.105-.736-.136-1.464-.345-1.566-.442-1.6-.512-1.597-.513-1.566-.547-2.93-1.124-2.431-.991-2.232-.991h-.035l-.033-.035.867-.99-3.531-.066-6.095-2.46.101-.17.264-.308.4-.479-3.527-.067-6.33-2.491.43-.482.435-.51-3.732-.069-.898-.375-1.966-.75-2.934-1.196.737-.854-.067-.07h-3.132l-5.263-2.083.601-.85-3.032.033-1.132-.445-1.199-.512-1.502-.648-1.63-.719-1.7-.819-1.564-.817-.733-.445-.664-.377-.402-.307-.396-.308-.202-.17-.168-.206-.166-.134-.132-.24h3.896l10.259-.034h31.11l16.62.033h28.646"/><path stroke="#1A1919" stroke-width=".108" d="m91.882 44.126.732.034.7.035.633.103.632.17.57.137.597.206.5.237.498.24.467.272.466.275.401.306.367.342.365.308.331.374.334.31.27.373.496.683.402.652.329.678.239.548.199.446.131.408.069.309.697-.239.733-.242 1.532-.409 2.998-.782-.834-.683-.798-.653.598-.134.671-.135 1.326-.21 1.335-.17 1.3-.167 1.134-.07.897-.102.798-.069-.599-.649-.599-.646 2.597-.104 1.398-.067 1.368-.036h2.635l1.23.036 1.163.067-.467-.548-.465-.512.667-.035h3.065l1.367.069 1.499.037 1.596.134 1.733.137 1.798.206 1.833.239 1.933.273 1.897.342 1.966.408 1.93.445.967.273.966.272.932.274.932.342.565-.106.569-.102 1.2-.237 1.198-.238.634-.07.632-.064.634-.071.697-.032h.665l.668.032-.799.65-.901.748-1.03.887 2.098.959 2.03.955 1.935.957.932.512.932.544-1.066.24-1.101.207.903.409 2.061 1.058 1.232.65 1.201.682 1.133.65.465.34.435.273 1.198-.204.301.17.264.207.236.237.23.206.436.444.332.478.269.375.163.343.135.272-.435.204-.261.204-.138.102-.065.105-.1.136-.036.17-.032.171.032.17.067.206.134.208.199.271.234.238-.034.242-.132.578-.13.307-.137.343-.201.304-.1.172-.133.106-.5-.106-1.163-.24-1.666-.442-.1.237-.1.205-.134.274-.201.342-.266.307-.3.342-.365.308-.234.17-.233.101-.268.173-.265.101-.3.069-.333.102-.334.036-.366.031h-.4l-.43-.031-.436-.069-.464-.102-.498-.137-.537-.173-.533-.17-.562-.237.03-.378v-.305l-.03-.31-.101-.204-.133-.24-.136-.17-.197-.17-.201-.102-.265-.101-.2-.07-.3-.068h-.536l-.262.068-.273.07-.296.101-.568.206-.864.304-.565.206-.603.17-.665.172-.7.105-.8.068-.798.032-.433-.032-.431-.035-.469-.07-.465-.068-.468-.139-.464-.099-.467-.172-.5-.206-.5-.205-.5-.272-.5-.307-.497-.307-.698.069-.8.1-1.7.275-1.8.374-1.731.411-1.599.41-1.298.375-.899.274-.238.103-.098.032 1.166-.032h4.663l1.768.065 1.697.037 1.467.102.397.548.435.65.864 1.398.667 1.127.267.477.102.17.032.17v.137l-.032.171-.073.173-.029.101-2.53 2.905-2.564 2.868-1.301 1.4-1.266 1.363-1.33 1.331-1.301 1.332-1.332 1.297-1.366 1.299-1.367 1.229-1.397 1.264-1.434 1.16-1.43 1.231-1.47 1.16-1.532 1.126-.195.069-.235.068h-.267l-.264-.034 1.627-8.673.27-1.606.133-.375.2-.376.1-.138.099-.168.166-.137.167-.173.202-.1.231-.069.302-.066.267-.035h.363l.432.035.468.1.5.135.268-.717.166-.474.1-.241.832.136.831.135.266-.408.636-.992.333-.612.367-.648.33-.613.234-.55h-.066l-.134.035-.567.14-1.633.58-2.295.884-2.6.957-4.795 1.88-1.6.647-.601.206-.73-.58-.834-.581-.932-.58-1.035-.617-1.097-.615-1.164-.58-1.197-.547-1.266-.512-1.299-.479-1.336-.44-1.398-.377-1.366-.342-.7-.137-.697-.133-.7-.105-.704-.07-.695-.067-.701-.032-.667-.039h-.699l-36.339-.03 3.23-1.98 3.132-1.915-.5.036H67.7l-.601-.07-.633-.065-.664-.105-.736-.136-1.464-.345-1.566-.442-1.6-.512-1.597-.513-1.566-.547-2.93-1.124-2.431-.991-2.232-.991h-.035l-.033-.035.867-.99-3.531-.066-6.095-2.46.101-.17.264-.308.4-.479-3.527-.067-6.33-2.491.43-.482.435-.51-3.732-.069-.898-.375-1.966-.75-2.934-1.196.737-.854-.067-.07h-3.132l-5.263-2.083.601-.85-3.032.033-1.132-.445-1.199-.512-1.502-.648-1.63-.719-1.7-.819-1.564-.817-.733-.445-.664-.377-.402-.307-.396-.308-.202-.17-.168-.206-.166-.134-.132-.24h3.896l10.259-.034h31.11l16.62.033z"/><path fill="#1A1919" d="m91.514 45.425.635.067.734.14.798.203.833.306.865.409.432.241.436.274.397.238.432.306.4.378.401.308.369.374.367.41.328.41.336.477.266.443.267.513.233.513.198.547.135.546.132.581.067.613.034.649v.68l-.07.685-.13.683-.168.753 1.2-.512 1.197-.48 1.2-.444 1.171-.443 2.294-.821 1.136-.34 1.128-.344 1.1-.338 1.134-.34 1.066-.31 1.098-.239 2.098-.512 2.099-.444 1.999-.376 1.964-.307 1.863-.24 1.835-.237 1.764-.171 1.702-.105 1.631-.064 1.53-.072h2.865l1.335.034 1.233.07 2.198.137 1.863.237 1.498.171 1.067.173.897.168h.07l.131-.101.5-.308.466-.305.2-.14-.5-.136-.666-.172-1.832-.372-2.264-.377-1.263-.204-1.302-.17-1.332-.207-1.332-.173-1.331-.133-1.3-.103-1.233-.103-1.167-.032-1.031-.037-.931.037.632.682.399.478.132.17.07.036-1.37-.206-1.363-.173-1.368-.134-1.368-.137-1.364-.103-1.398-.07-1.364-.066-1.432-.034 1.498 1.431-2.063.039-2.101.066-2.097.203-1 .072-1 .134.866.582.831.545-1.664.138-1.699.135-1.696.207-1.669.204-1.697.273-1.63.273-1.632.306-1.6.377.999-.377 1.1-.34 1.331-.443 1.466-.48 1.532-.442 1.465-.411.67-.169.63-.139-.965-.753-.931-.749 1.529-.239 1.433-.204 1.364-.138 1.2-.101.998-.033.767-.039h.63l-.5-.51-.43-.444-.396-.441 1.297-.035 1.364-.033h2.731l2.664.033 2.5.137-.433-.515-.302-.376-.097-.133-.034-.071 2.997.104 2.998.171 1.498.136 1.5.136 1.532.172 1.464.206 1.5.202 1.467.274 1.497.276 1.436.303 1.462.345 1.4.341 1.433.409 1.399.41.996-.272 1.034-.31.501-.102.533-.102.499-.105.5-.033-.332.274-.766.581-.734.545-.369.238 4.131 1.813 2.465 1.056-.832-.271-1.968-.684-1.194-.41-1.234-.34-1.2-.344-.53-.134-.47-.102-2.162 1.775-1.4-.173-1.4-.203-1.398-.103-1.4-.137-1.4-.067-1.397-.07-1.429-.032h-1.4l-1.436.032-1.398.035-1.363.102-1.434.104-1.399.136-1.401.136-1.395.205-1.335.204-1.4.24-1.364.272-1.367.274-1.366.343-1.333.306-1.33.376-1.368.41-1.297.375-1.3.443-1.33.478-1.299.513-1.267.478-1.265.51-1.233.582-1.262.582-1.17.613 10.327 8.538-.902-.582-1.096-.68-1.367-.687-1.532-.817-1.635-.821-1.73-.851-1.768-.82-1.765-.855-3.327-1.57-2.797-1.297-2.7-1.196.202-.58.165-.547.2-.683.166-.82.134-.853.035-.478.03-.478-.03-.478v-.478l-.102-.477-.1-.48-.134-.445-.166-.476-.233-.412-.3-.443-.3-.41-.402-.342-.432-.338-.498-.307-.6-.274-.633-.24-.7-.168-.8-.14-.898-.103-.966-.033H56.108l.567.513.6.474.633.482.6.443.666.443.665.443 1.333.82 1.399.754 1.466.716 1.465.683 1.498.615 1.465.58 1.533.512 1.535.514 1.53.442 1.499.409 1.498.376 1.498.343 1.433.308 1.43.274 1.335.235 2.598.41 2.333.31 2.03.204 1.665.135 1.266.104h.8l.264.034-.798.137-.866.171-1.13.17-1.333.205-1.465.205-1.532.102-.802.034-.766.034 3.2 1.298 3.23 1.295 6.429 2.496 6.46 2.492 6.464 2.492.399-.752 4.729 3.04-5.764-.852.334-.717-.732-.207-.733-.239-.767-.172-.733-.168-.796-.14-.767-.1-.768-.136-.765-.102-1.599-.104-1.566-.068h-1.598l-1.601.068-1.628.07-1.635.102-1.564.17-1.6.172-3.132.373-3.03.342-1.665.239-1.867.306-3.795.652-3.1.51-1.264.208 3.596-1.676 3.632-1.673-.367-.137-.834-.34-1.198-.478h-1.432l-1.331.068-2.466.068-1.198.068h-1.2l-1.199-.068-1.3-.101-1.364-.169-1.5-.277-1.631-.341-1.798-.512-1.966-.58-2.23-.786-2.434-.889-2.73-1.092v-.033l.1-.137.3-.343.466-.547-3.865-.032-3.031-1.158-2.066-.789-.933-.41v-.102l.434-.477.333-.307.066-.104.034-.069h-3.097l-.565-.033-1-.41-2.199-.853-3.132-1.232.432-.475.401-.445-3.531-.1-5.863-2.257.135-.17.334-.375.299-.34.1-.105.033-.067-.598.035-1.266-.035-1.865-.033-.769-.273-1.665-.649-2.363-.958.031-.066.101-.14.301-.373.466-.548H16.44l-1.334-.065h-.563l-1.5-.583-3.232-1.297-4.697-1.878h86.4"/><path stroke="#1A1919" stroke-width=".108" d="m91.514 45.425.635.067.734.14.798.203.833.306.865.409.432.241.436.274.397.238.432.306.4.378.401.308.369.374.367.41.328.41.336.477.266.443.267.513.233.513.198.547.135.546.132.581.067.613.034.649v.68l-.07.685-.13.683-.168.753 1.2-.512 1.197-.48 1.2-.444 1.171-.443 2.294-.821 1.136-.34 1.128-.344 1.1-.338 1.134-.34 1.066-.31 1.098-.239 2.098-.512 2.099-.444 1.999-.376 1.964-.307 1.863-.24 1.835-.237 1.764-.171 1.702-.105 1.631-.064 1.53-.072h2.865l1.335.034 1.233.07 2.198.137 1.863.237 1.498.171 1.067.173.897.168h.07l.131-.101.5-.308.466-.305.2-.14-.5-.136-.666-.172-1.832-.372-2.264-.377-1.263-.204-1.302-.17-1.332-.207-1.332-.173-1.331-.133-1.3-.103-1.233-.103-1.167-.032-1.031-.037-.931.037.632.682.399.478.132.17.07.036-1.37-.206-1.363-.173-1.368-.134-1.368-.137-1.364-.103-1.398-.07-1.364-.066-1.432-.034 1.498 1.431-2.063.039-2.101.066-2.097.203-1 .072-1 .134.866.582.831.545-1.664.138-1.699.135-1.696.207-1.669.204-1.697.273-1.63.273-1.632.306-1.6.377.999-.377 1.1-.34 1.331-.443 1.466-.48 1.532-.442 1.465-.411.67-.169.63-.139-.965-.753-.931-.749 1.529-.239 1.433-.204 1.364-.138 1.2-.101.998-.033.767-.039h.63l-.5-.51-.43-.444-.396-.441 1.297-.035 1.364-.033h2.731l2.664.033 2.5.137-.433-.515-.302-.376-.097-.133-.034-.071 2.997.104 2.998.171 1.498.136 1.5.136 1.532.172 1.464.206 1.5.202 1.467.274 1.497.276 1.436.303 1.462.345 1.4.341 1.433.409 1.399.41.996-.272 1.034-.31.501-.102.533-.102.499-.105.5-.033-.332.274-.766.581-.734.545-.369.238 4.131 1.813 2.465 1.056-.832-.271-1.968-.684-1.194-.41-1.234-.34-1.2-.344-.53-.134-.47-.102-2.162 1.775-1.4-.173-1.4-.203-1.398-.103-1.4-.137-1.4-.067-1.397-.07-1.429-.032h-1.4l-1.436.032-1.398.035-1.363.102-1.434.104-1.399.136-1.401.136-1.395.205-1.335.204-1.4.24-1.364.272-1.367.274-1.366.343-1.333.306-1.33.376-1.368.41-1.297.375-1.3.443-1.33.478-1.299.513-1.267.478-1.265.51-1.233.582-1.262.582-1.17.613 10.327 8.538-.902-.582-1.096-.68-1.367-.687-1.532-.817-1.635-.821-1.73-.851-1.768-.82-1.765-.855-3.327-1.57-2.797-1.297-2.7-1.196.202-.58.165-.547.2-.683.166-.82.134-.853.035-.478.03-.478-.03-.478v-.478l-.102-.477-.1-.48-.134-.445-.166-.476-.233-.412-.3-.443-.3-.41-.402-.342-.432-.338-.498-.307-.6-.274-.633-.24-.7-.168-.8-.14-.898-.103-.966-.033H56.108l.567.513.6.474.633.482.6.443.666.443.665.443 1.333.82 1.399.754 1.466.716 1.465.683 1.498.615 1.465.58 1.533.512 1.535.514 1.53.442 1.499.409 1.498.376 1.498.343 1.433.308 1.43.274 1.335.235 2.598.41 2.333.31 2.03.204 1.665.135 1.266.104h.8l.264.034-.798.137-.866.171-1.13.17-1.333.205-1.465.205-1.532.102-.802.034-.766.034 3.2 1.298 3.23 1.295 6.429 2.496 6.46 2.492 6.464 2.492.399-.752 4.729 3.04-5.764-.852.334-.717-.732-.207-.733-.239-.767-.172-.733-.168-.796-.14-.767-.1-.768-.136-.765-.102-1.599-.104-1.566-.068h-1.598l-1.601.068-1.628.07-1.635.102-1.564.17-1.6.172-3.132.373-3.03.342-1.665.239-1.867.306-3.795.652-3.1.51-1.264.208 3.596-1.676 3.632-1.673-.367-.137-.834-.34-1.198-.478h-1.432l-1.331.068-2.466.068-1.198.068h-1.2l-1.199-.068-1.3-.101-1.364-.169-1.5-.277-1.631-.341-1.798-.512-1.966-.58-2.23-.786-2.434-.889-2.73-1.092v-.033l.1-.137.3-.343.466-.547-3.865-.032-3.031-1.158-2.066-.789-.933-.41v-.102l.434-.477.333-.307.066-.104.034-.069h-3.097l-.565-.033-1-.41-2.199-.853-3.132-1.232.432-.475.401-.445-3.531-.1-5.863-2.257.135-.17.334-.375.299-.34.1-.105.033-.067-.598.035-1.266-.035-1.865-.033-.769-.273-1.665-.649-2.363-.958.031-.066.101-.14.301-.373.466-.548H16.44l-1.334-.065h-.563l-1.5-.583-3.232-1.297-4.697-1.878z"/><path fill="#FFFFFE" d="m49.58 47.371.798.854-4.729.031h-4.862l-5.63.039H19.867l-1.332-.447-.966-.34-.433-.137v-.068l32.444.068"/><path fill="#1A1919" d="m156.802 53.86.432 1.228.999.41 1.029.407 1.001.448 1 .476.964.547.968.546.967.548.899.614.165.066h.169l.199-.033.233-.067.299-.103.133-.068.234.171.2.205.23.205.17.203.364.48.3.476-.2.105-.195.168-.202.24-.103.135-.065.173-.068.172-.032.168v.173l.032.203.068.174.1.202.168.24.197.202v.171l-.134.376-.23.548-1.667-.375-1.665-.376v-.443l-.032-.277-.068-.268-.034-.105-.099-.137-.1-.069-.1-.102-.133-.068h-.134l-.165-.069-.468-.068-.666-.068-.4-.032h-.4l-.433.032-.367.068-.433.068-.365.137-.333.17-.167.138-.1.137-.135.139-.096.17-.101.168-.098.171 2.263.922 1.53.614.702.274-.067.102-.234.239-.2.134-.23.175-.269.137-.299.168-.338.104-.397.102-.398.067-.467.033-.5-.065-.566-.103-.53-.138-.636-.27-.034-.312-.033-.305-.099-.307-.132-.272-.166-.274-.2-.205-.202-.204-.263-.171-.37-.137-.33-.103-.368-.07-.333-.032h-.367l-.334.032-.364.07-.333.068-.699.205-.735.24-.735.273-.763.238-.834.204-.434.103-.432.035-.433.068h-.962l-.501-.034-.534-.07-.498-.132-.57-.139-.564-.24-.599-.24-.634-.306-.601-.375-.666-.443-.964.134-1.035.17-2.264.411-2.331.478-2.265.478-3.698.923-1.499.375 1.202-.545 1.232-.548 2.33-.954 2.232-.888 2-.72 1.697-.576 1.3-.45 1.132-.405.032-.343.036-.342.065-.308.099-.341.1-.306.102-.308.296-.58.334-.545.4-.513.4-.478.368-.445.432-.376.4-.34.697-.546.502-.31.165-.101-.63.68-.568.651-.466.613-.368.618-.297.582-.236.578-.166.512-.066.512-.034.479.067.442.1.412.166.409.268.374.232.308.334.308.365.239.401.274.466.204.5.138.498.171.568.066.568.07.566.034h.632l.631-.07.633-.068.634-.135.666-.174.666-.203.665-.239.637-.307.664-.308 2.698.58.432-.614.233-.274.268-.274.263-.27.303-.172.199-.102.2-.034.167-.033.23-.036 2.4-.102 2.4-.135-.535-.377-.7-.443-.898-.513-1.132-.65-.667-.304-.666-.308-.735-.343-.798-.308-.83-.273-.868-.307-.2-.647-.2-.581-7.13-2.221.6-.477.604-.513 3.499 1.06 2.395.682.8.236.3.071"/><path fill="#FFFFFE" d="m64.669 56.453 1.299.48 1.266.443 1.297.374 1.299.343H44.383l-4.03-1.64H64.67"/><path fill="#1A1919" d="m155.035 56.044-.098.717 1.53 1.093-2.399-.374-2.432-.41 3.4-1.026"/><path fill="#FFFFFE" d="m77.59 60.005 2.036.785 2.03.822H53.545l-4.03-1.607h28.077"/><path fill="#1A1919" d="m128.823 68.063 1.629-.205 1.6-.169 1.633-.103 1.598-.138 1.63-.1 1.668-.07 1.667-.034 1.729-.035.933 1.47.933 1.5.133.276.065.203v.206l-.033.171-.065.135-.1.172-.234.272-2.264 2.563-2.333 2.596-2.4 2.559-1.228 1.229-1.234 1.265-2.53 2.456-1.3 1.162-1.297 1.198-1.337 1.158-1.331 1.092-1.368 1.092-1.361 1.06.564-3.21.967-5.362.1-.238.1-.238.1-.102.1-.138.096-.101.17-.07.202-.103.196-.033.267-.034h.336l.397.034.403.07.464.1.568.173.265-.789.267-.748 1.5.24 1.03-1.571.499-.788.5-.818.934-1.707.401-.856.33-.854-.764.172-.866.274-2.1.646-2.397.822-2.498.886-4.63 1.675-1.7.683-1.065.442-.8-.681-.799-.684-.8-.65-.833-.577-.832-.58-.865-.58-.868-.513-.9-.514-.895-.446-.902-.44-.93-.412-.933-.375-.968-.342-.966-.341-.964-.305-.97-.24.737.101.798.102.8.172.865.203.868.238.898.24.933.276.935.338.93.345.966.377 1.966.85.964.448.966.475.963.478.97.545 4.828-2.045 2.402-1.026 1.228-.479 1.202-.443 1.232-.443 1.23-.45 1.265-.406 1.235-.34 1.3-.342 1.298-.308 1.3-.272 1.331-.203-.534 3.343 1.701-1.534 1.13-1.06.5-.48-.065-.205-.267-.51-.4-.719-1.767.07-1.832.103-1.827.134-1.802.172-1.833.206-1.798.239-1.73.24-1.768.304-.397-.647-.47-.648-.464-.614-.499-.583-.534-.546-.535-.545-.562-.513-.569-.478-.6-.476-.599-.443-.633-.413-.632-.41-.634-.376-.665-.342-.635-.341-.663-.305.096-.103 1.535.408.766.205.768.241 1.497.547 1.467.647 1.431.685.733.408.668.376 1.363.854.668.443.667.477"/><path fill="#FFFFFE" d="m87.019 63.727 1.534.614 1.532.615 1.53.58 1.5.617-21.25.032h-1.301l-1.464-.032-.867-.035-.899-.102-1.032-.103-1.032-.172-1.066-.204-1.066-.242-1.07-.305-1.03-.375-.5-.202-.5-.206-.467-.275-.464-.238 27.912.033"/><path fill="#1A1919" d="m170.624 66.46 11.488 2.664-2.227 1.773 10.158 2.63-3.728 1.812 13.585 6.417-20.417-5.839 2.997-1.74-7.961-3.551 2.466-1.06-6.361-3.107"/><path fill="#FFFFFE" d="m181.083 69.499-2.102 1.192 9.46 2.8-2.763 1.606 9.592 4.781-14.157-4.339 2.202-1.4-7.63-3.584 2.13-.989-4.427-2.185 7.695 2.118"/><path d="m69.996 70.766-8.667 9.312-3.884-10.935c-1.48-4.164-2.96-8.328-4.435-12.497H29.078l-4.25 14.882h5.493l-.663 2.32a8797.286 8797.286 0 0 1-4.826 16.841c-.906 3.153-1.807 6.31-2.708 9.466l-2.476 8.665h-5.492c-1.44 5.043-2.878 10.07-4.32 15.105l28.499-.015 2.143-7.474c.729-2.537 1.457-5.076 2.184-7.616h-5.725l.673-2.326c1.259-4.351 2.502-8.703 3.744-13.052l1.016-3.553 3.446-.163.944 2.41c1.217 3.107 2.435 6.218 3.65 9.33h8.218c2.11-2.217 4.228-4.433 6.346-6.648 1.81-1.895 3.621-3.788 5.428-5.684l3.069 1.755-5.123 17.931H62.85l-4.313 15.088 28.51-.01 4.314-15.085h-5.24l1.21-4.242c1.415-4.96 2.83-9.915 4.257-14.878 1.594-5.597 3.2-11.22 4.8-16.827l.53-2.05-26.922-.05" fill="#006FAB"/><path d="M95.09 90.694c1.21-4.247 4.42-15.886 5.517-19.871l-3.75-.007c-1.04 3.757-3.97 14.317-5.27 18.877a7356.991 7356.991 0 0 0-4.255 14.878l-1.211 4.242h5.24l-4.314 15.086-28.51.01 4.313-15.089h5.498l5.123-17.93-3.069-1.756c-1.807 1.896-3.617 3.79-5.428 5.684a4126.952 4126.952 0 0 0-6.346 6.648H50.41c-1.216-3.112-2.434-6.223-3.65-9.33l-.945-2.41-3.446.163-1.016 3.553c-1.242 4.349-2.485 8.7-3.744 13.052l-.673 2.326h5.725c-.727 2.54-1.455 5.079-2.184 7.616-.715 2.492-1.43 4.983-2.143 7.474l-28.499.015c1.442-5.035 2.88-10.062 4.32-15.105h5.492l2.476-8.665c.901-3.156 1.802-6.313 2.708-9.466a8797.286 8797.286 0 0 0 4.826-16.84l.663-2.321h-5.493l4.25-14.882H53.01c1.475 4.17 2.955 8.333 4.435 12.497l3.884 10.935 8.667-9.312-1.739-.003-.023.014c-1.07.004-2.053.01-2.903.02-.042 0-2.496 2.834-2.507 2.81-.161-.322-1.139-2.847-1.143-2.859-1.34-3.574-3.195-9.319-4.802-14.093-.287-.813-.577-1.624-.864-2.437l-.43-1.214H26.33l-6.328 22.165h4.086c.45-.004.905-.01 1.345-.01l-.002.01h.062c-.715 2.502-1.435 5.006-2.154 7.51l-.668 2.402-.022.006c-.44 1.533-.877 3.064-1.317 4.595-.908 3.157-1.808 6.314-2.71 9.473l-1.72 6.023h-5.493l-.378 1.322c-1.788 6.26-3.57 12.493-5.36 18.746l-.666 2.324 36.076-.02.378-1.319c.838-2.931 1.678-5.86 2.52-8.79.95-3.31 1.902-6.623 2.849-9.94l.662-2.323h-5.71c.875-3.035 1.744-6.072 2.61-9.107 1.028 2.626 2.056 5.252 3.081 7.877l.452 1.16H60.19l.538-.566c2.286-2.405 4.582-4.806 6.878-7.208l.337-.353-2.342 8.197h-5.497l-6.394 22.373 36.084-.01 6.395-22.37h-5.242c1.377-4.825 2.753-9.644 4.143-14.477" fill="#FFFFFE"/><path d="M95.09 90.694c1.21-4.247 4.42-15.886 5.517-19.871l-3.75-.007c-1.04 3.757-3.97 14.317-5.27 18.877a7356.991 7356.991 0 0 0-4.255 14.878l-1.211 4.242h5.24l-4.314 15.086-28.51.01 4.313-15.089h5.498l5.123-17.93-3.069-1.756c-1.807 1.896-3.617 3.79-5.428 5.684a4126.952 4126.952 0 0 0-6.346 6.648H50.41c-1.216-3.112-2.434-6.223-3.65-9.33l-.945-2.41-3.446.163-1.016 3.553c-1.242 4.349-2.485 8.7-3.744 13.052l-.673 2.326h5.725c-.727 2.54-1.455 5.079-2.184 7.616-.715 2.492-1.43 4.983-2.143 7.474l-28.499.015c1.442-5.035 2.88-10.062 4.32-15.105h5.492l2.476-8.665c.901-3.156 1.802-6.313 2.708-9.466a8797.286 8797.286 0 0 0 4.826-16.84l.663-2.321h-5.493l4.25-14.882H53.01c1.475 4.17 2.955 8.333 4.435 12.497l3.884 10.935 8.667-9.312-1.739-.003-.023.014c-1.07.004-2.053.01-2.903.02-.042 0-2.496 2.834-2.507 2.81-.161-.322-1.139-2.847-1.143-2.859-1.34-3.574-3.195-9.319-4.802-14.093-.287-.813-.577-1.624-.864-2.437l-.43-1.214H26.33l-6.328 22.165h4.086c.45-.004.905-.01 1.345-.01l-.002.01h.062c-.715 2.502-1.435 5.006-2.154 7.51l-.668 2.402-.022.006c-.44 1.533-.877 3.064-1.317 4.595-.908 3.157-1.808 6.314-2.71 9.473l-1.72 6.023h-5.493l-.378 1.322c-1.788 6.26-3.57 12.493-5.36 18.746l-.666 2.324 36.076-.02.378-1.319c.838-2.931 1.678-5.86 2.52-8.79.95-3.31 1.902-6.623 2.849-9.94l.662-2.323h-5.71c.875-3.035 1.744-6.072 2.61-9.107 1.028 2.626 2.056 5.252 3.081 7.877l.452 1.16H60.19l.538-.566c2.286-2.405 4.582-4.806 6.878-7.208l.337-.353-2.342 8.197h-5.497l-6.394 22.373 36.084-.01 6.395-22.37h-5.242c1.377-4.825 2.753-9.644 4.143-14.477" fill="#FFFFFE"/><path d="m109.988 70.84-7.523-3.072H64.969c-2.789-7.865-3.868-10.746-6.653-18.627-9.59 0-8.182.047-17.776.047H23.392l-1.386 4.876 3.458 1.589.778-2.73 16.078.026h13.288c1.801 5.098 4.358 13.226 6.073 17.8.004.01.982 2.536 1.143 2.858.011.024 2.465-2.81 2.507-2.81.85-.01 1.834-.016 2.903-.02l.023-.014 32.61.06.897-.002-.002.004 8.226.016" fill="#1A1919"/></g></svg>