<?xml version="1.0" encoding="UTF-8"?>
<svg width="200px" height="200px" viewBox="0 0 200 200" version="1.1" xmlns="http://www.w3.org/2000/svg" xmlns:xlink="http://www.w3.org/1999/xlink">
    <!-- Generator: Sketch 51.3 (57544) - http://www.bohemiancoding.com/sketch -->
    <title>middle-tenn</title>
    <desc>Created with Sketch.</desc>
    <defs></defs>
    <g id="middle-tenn" stroke="none" stroke-width="1" fill="none" fill-rule="evenodd">
        <g id="middle-tenn_BGL" transform="translate(-1.005025, 37.000000)">
            <g id="middle-tenn">
                <g id="g10" transform="translate(100.255472, 63.464724) scale(-1, 1) rotate(-180.000000) translate(-100.255472, -63.464724) translate(0.000000, 0.691003)">
                    <g id="g12">
                        <polyline id="path14" fill="#231F20" fill-rule="nonzero" points="16.3052565 64.30394 9.82953552 64.30394 0 30.1079311 50.8185695 30.142189 58.4068818 56.4624803 64.9888247 56.4624803 57.4314205 30.1376148 108.248523 30.1490017 114.727472 52.6919695 122.188435 52.6919695 116.875384 34.1681743 110.203749 34.1681743 100.388494 0.0262317268 153.105266 0.0262317268 162.919543 34.1833568 156.41712 34.1833568 161.722346 52.6919695 187.572608 52.6919695 199.804754 95.2893407 126.970376 95.3212628 135.626581 125.50462 93.7919772 125.50462 74.9272229 105.331384 67.7369983 125.50462 27.4247132 125.50462 17.6772404 91.5773213 24.1530593 91.5773213 16.3052565 64.30394"></polyline>
                        <path d="M19.4245221,60.1889036 L12.9488011,60.1889036 L5.48654672,34.2225782 L47.696663,34.2518726 L55.1729826,60.1889036 L48.4366951,60.1889036 C49.5290396,63.9557162 50.6125812,67.7238913 51.6946556,71.492553 L55.9871548,60.5740131 L70.2824114,60.5740131 L79.8009104,70.4983924 L76.8395105,60.1889036 L70.3599749,60.1889036 L62.9122159,34.2472984 L105.129355,34.2586853 L111.608304,56.8084657 L127.615924,56.8084657 L119.994552,30.0578095 L113.319983,30.0578095 L105.871735,4.13815075 L149.988055,4.13815075 L157.436303,30.0737705 L150.935836,30.0737705 L158.730332,56.8084657 L184.453441,56.8084657 L194.32836,91.1816036 L115.307486,91.2101194 L116.5888,95.6713358 L122.77334,95.6713358 L130.142362,121.392698 L95.5922721,121.392698 L73.309931,97.5669075 L64.8126685,121.392698 L30.5424138,121.392698 L23.158525,95.6914818 L29.6372781,95.6914818 L19.4245221,60.1889036" id="path16" fill="#FFFFFF" fill-rule="nonzero"></path>
                        <path d="M123.00515,26.0846709 L116.331559,26.0846709 L111.166202,8.11092924 L146.972566,8.11092924 C148.692069,14.1099753 150.409617,20.1110457 152.136945,26.1013132 L145.646259,26.1013132 L158.087719,69.4906065 L166.5082,69.4906065 L164.01893,60.7763488 L181.444798,60.7763488 L189.035849,87.2513847 L114.793983,87.2513847 L107.192173,60.7763488 L124.606303,60.7763488 L127.105354,69.4906065 L135.457369,69.4906065 L123.00515,26.0846709" id="path18" fill="#2A69BB"></path>
                        <path d="M22.4367834,56.2161543 L15.9610624,56.2161543 L10.7797618,38.1979552 L44.6870427,38.1979552 L49.8782221,56.2161543 L43.1304909,56.2161543 L49.4819929,78.2398034 L53.2610863,78.4177109 L58.715962,64.547249 L68.5695589,64.547249 L82.4937235,79.0610199 L85.8582971,77.1449129 L79.8475659,56.2161543 L73.3744858,56.2161543 C71.6455924,50.2132348 69.9216873,44.215376 68.2019881,38.2188798 L102.119735,38.2276389 L107.289005,56.225692 L101.111311,56.225692 L113.57918,99.6399002 L119.753939,99.6399002 C121.443121,105.565934 123.138172,111.482236 124.845938,117.419948 L97.3291859,117.419948 L71.7506405,90.0665671 L61.992213,117.419948 L33.5553597,117.419948 L28.4525029,99.6652043 L34.9292999,99.6652043 L22.4367834,56.2161543" id="path20" fill="#2A69BB"></path>
                        <polyline id="path22" fill="#231F20" fill-rule="nonzero" points="160.479178 2.97710941 158.971923 1.22833087 159.009091 2.97710941 157.866668 2.97710941 156.593179 0 157.291544 0 158.32931 2.40875906 158.240303 0 158.649149 0 160.651324 2.40875906 159.620405 0 160.305076 0 161.588346 2.97710941 160.479178 2.97710941"></polyline>
                        <polyline id="path24" fill="#231F20" fill-rule="nonzero" points="157.481295 2.97710941 154.749456 2.97710941 154.512755 2.40875906 155.483033 2.40875906 154.456025 0 155.22677 0 156.255733 2.40875906 157.227967 2.40875906 157.481295 2.97710941"></polyline>
                    </g>
                </g>
            </g>
        </g>
    </g>
</svg>