<svg width="200" height="200" xmlns="http://www.w3.org/2000/svg" xmlns:xlink="http://www.w3.org/1999/xlink"><defs><path d="M6.007 9.6S7.963-1.005.04.113c0 0 5.227 5.843 5.967 9.489z" id="a"/><linearGradient x1="-3457.062%" y1="-145.082%" x2="18.261%" y2="47.709%" id="c"><stop stop-color="#A7A5A6" offset="0%"/><stop stop-color="#444141" offset="100%"/></linearGradient><path d="M30.788 10.968l-6.867-.044C23.817 6.06 20.989-3.14 0 1.094c0 0 19.845 3.78 21.924 16.25l8.863-6.376z" id="d"/><linearGradient x1="144.427%" y1="152.884%" x2="-40.583%" y2="-77.353%" id="f"><stop stop-color="#A7A5A6" offset="0%"/><stop stop-color="#444141" offset="100%"/></linearGradient><path d="M.025 7.263S8.796 14.844 38.426.029c0 0-26.34 9.838-38.401 7.234z" id="g"/><linearGradient x1="-2.719%" y1="232.537%" x2="105.917%" y2="-165.406%" id="i"><stop stop-color="#E7E6E6" offset="0%"/><stop stop-color="#B3B2B2" offset="100%"/></linearGradient><path d="M6.007 9.6S7.963-1.005.04.113c0 0 5.227 5.843 5.967 9.489z" id="j"/><linearGradient x1="116.104%" y1="87.335%" x2="-36.566%" y2="-64.347%" id="l"><stop stop-color="#A7A5A6" offset="0%"/><stop stop-color="#444141" offset="100%"/></linearGradient><path d="M8.63.495c-6.444 3.57-1.56 8.369-7.44 12.394L.046 14.52c2.485-.257 4.713-.702 6.39-2.534 0 0 2.008-1.322 2.093-6.035.085-4.711 5.74-3.77 5.74-3.77S11.645-1.175 8.63.496z" id="m"/><linearGradient x1="195.536%" y1="-66.378%" x2="30.187%" y2="59.856%" id="o"><stop stop-color="#C8C7C7" offset="0%"/><stop stop-color="#4F4C4D" offset="100%"/></linearGradient><path d="M.03 1.694s3.187.759 5.517 3.043l.98.672S5.635 1.561 3.06.04c0 0-1.925.566-3.029 1.655z" id="p"/><linearGradient x1="59.81%" y1="65.607%" x2="-454.94%" y2="-716.443%" id="r"><stop stop-color="#F7F7F7" offset="0%"/><stop stop-color="#3B3839" offset="100%"/></linearGradient><path d="M3.126.037C5.16-.035 7.67 5.3 7.67 5.3 4.96 3.093.006 1.496.006 1.496S.62.126 3.126.037z" id="s"/><linearGradient x1="91.9%" y1="132.43%" x2="-344.419%" y2="-665.625%" id="u"><stop stop-color="#F7F7F7" offset="0%"/><stop stop-color="#3B3839" offset="100%"/></linearGradient><path d="M12.668 22.16S-10.316 19.32 13.9.05c0 0-30.37 20.284-1.23 22.11z" id="v"/><linearGradient x1="182.903%" y1="2.628%" x2="-81.911%" y2="143.141%" id="x"><stop stop-color="#A7A5A6" offset="0%"/><stop stop-color="#444141" offset="100%"/></linearGradient><path id="y" d="M20.217.034L.013 8.45.24 9.597z"/><linearGradient x1="2.541%" y1="49.999%" x2="101.3%" y2="49.999%" id="A"><stop stop-color="#E7E6E6" offset="0%"/><stop stop-color="#B3B2B2" offset="100%"/></linearGradient><path d="M13.147 3.633l-.594.264L.585 9.208A10.929 10.929 0 0 0 .02 8.39L3.2 7.14v-.036L21.244.042l-8.096 3.591z" id="B"/><linearGradient x1="4.74%" y1="50%" x2="99.329%" y2="50%" id="D"><stop stop-color="#E7E6E6" offset="0%"/><stop stop-color="#B3B2B2" offset="100%"/></linearGradient><path d="M.041 2.141c-.97 23.267 18.697 42.863 18.697 42.863C-.166 25.381 9.38.026 9.38.026S5.304.748.041 2.141z" id="E"/><linearGradient x1="101.7%" y1="121.737%" x2="25.682%" y2="12.046%" id="G"><stop stop-color="#A7A5A6" offset="0%"/><stop stop-color="#444141" offset="100%"/></linearGradient><path d="M28.976.034S-2.141 4.609 2.06 37.248c0 0-7.254-17.706 5.495-35.225C16.257.551 23.747.03 28.975.033z" id="H"/><linearGradient x1="-52.226%" y1="138.057%" x2="144.241%" y2="-92.894%" id="J"><stop stop-color="#A7A5A6" offset="0%"/><stop stop-color="#444141" offset="100%"/></linearGradient><path d="M.037 4.384C17.889 40.688 57.72 47.18 57.72 47.18 15.065 34.254 9.933.003 9.933.003S4.638 1.87.037 4.383z" id="K"/><linearGradient x1="62.191%" y1="106.286%" x2="37.505%" y2="1.71%" id="M"><stop stop-color="#A7A5A6" offset="0%"/><stop stop-color="#444141" offset="100%"/></linearGradient><path d="M3.023 4.279c17.852 36.305 57.684 42.797 57.684 42.797S18.285 42.02.032 6.116C3.386 3.486 12.362.029 12.362.029l.012.068C10.91.64 6.741 2.25 3.024 4.28z" id="N"/><linearGradient x1="56.166%" y1="78.77%" x2="-6.307%" y2="-147.161%" id="P"><stop stop-color="#A7A5A6" offset="0%"/><stop stop-color="#444141" offset="100%"/></linearGradient><path d="M6.162 9.288s11.157-1.2 21.09-7.849L25.462.01S18.963 5.506.049 6.368c0 0 1.456 1.97 6.114 2.921z" id="Q"/><linearGradient x1="118.413%" y1="26.818%" x2="-39.361%" y2="87.341%" id="S"><stop stop-color="#E7E6E6" offset="0%"/><stop stop-color="#8F8D8D" offset="100%"/></linearGradient><path d="M.025 7.263S8.796 14.844 38.426.029c0 0-26.34 9.838-38.401 7.234z" id="T"/><linearGradient x1="-5.632%" y1="177.542%" x2="67.411%" y2="-3.796%" id="V"><stop stop-color="#E7E6E6" offset="0%"/><stop stop-color="#B3B2B2" offset="100%"/></linearGradient><path d="M.032.046c.701.262 1.625.522 2.794.711A13.24 13.24 0 0 1 .032.046z" id="W"/><linearGradient x1="-6107.756%" y1="-2027.673%" x2="1578.258%" y2="565.619%" id="Y"><stop stop-color="#EBEBEB" offset="0%"/><stop stop-color="#535051" offset="100%"/></linearGradient><path d="M12.82.025l4.483 2.639C13.596 3.89 7.093 5.016 7.093 5.016c13.606 2.035 14.519 2.708 24.295-.148l.323.086s-14.026 5.5-26.724 4.034C-8.974 7.376 10.717.718 12.82.025z" id="Z"/><linearGradient x1="-72.06%" y1="84.504%" x2="84.623%" y2="35.642%" id="ab"><stop stop-color="#A7A5A6" offset="0%"/><stop stop-color="#444141" offset="100%"/></linearGradient><path d="M5.615 2.282c6.857.792 14.098-.447 19.311-1.755.78-.156 1.583-.32 2.416-.497 0 0-15.887 6.05-25.2 4.132C-.654 3.586-.105 1.676.665.36c.144.835 1.544 1.529 4.95 1.922z" id="ac"/><linearGradient x1="4.279%" y1="76.664%" x2="115.421%" y2="-77.926%" id="ae"><stop stop-color="#C4C3C3" offset="0%"/><stop stop-color="#444141" offset="100%"/></linearGradient><path d="M8.173 29.28S-3.796 13.98 8.736.02c0 0-19.253 14.617-.563 29.26z" id="af"/><linearGradient x1="-1510.112%" y1="8.836%" x2="951.562%" y2="71.897%" id="ah"><stop stop-color="#A7A5A6" offset="0%"/><stop stop-color="#444141" offset="100%"/></linearGradient><path d="M12.676 3.508s4.412-.802 6.219-.601c0 0-9.779-5.044-18.856-1.805 0 0 7.02-.924 12.637 2.406z" id="ai"/><linearGradient x1="161.462%" y1="278.836%" x2="-39.495%" y2="-124.504%" id="ak"><stop stop-color="#A7A5A6" offset="0%"/><stop stop-color="#444141" offset="100%"/></linearGradient><path d="M.04 4.891S16.088-1.728 25.315.478l2.607 2.206-4.814-1.002S16.397 1.63.041 4.892z" id="al"/><linearGradient x1="101.663%" y1="22.8%" x2="-258.017%" y2="171.271%" id="an"><stop stop-color="#A7A5A6" offset="0%"/><stop stop-color="#444141" offset="100%"/></linearGradient><path d="M22.668 42.804S-.874 24.299.035 1.073C1.319.703 2.63.345 3.969.001c-.934 23.24 18.699 42.803 18.699 42.803z" id="ao"/><linearGradient x1="72.194%" y1="93.067%" x2="-95.095%" y2="-155.271%" id="aq"><stop stop-color="#A7A5A6" offset="0%"/><stop stop-color="#444141" offset="100%"/></linearGradient><path id="ar" d="M.047.019l48.239 10.485-4.134.447z"/><linearGradient x1="107.239%" y1="110.733%" x2="2.867%" y2="-3.74%" id="at"><stop stop-color="#FFF" offset="0%"/><stop stop-color="#B3B2B2" offset="100%"/></linearGradient><path id="au" d="M.049.04l56.59 12.449-4.134.447z"/><linearGradient x1="88.103%" y1="89.828%" x2="-.857%" y2="-7.207%" id="aw"><stop stop-color="#FFF" offset="0%"/><stop stop-color="#B3B2B2" offset="100%"/></linearGradient><path id="ax" d="M.04.01l60.544 13.74-4.134.446z"/><linearGradient x1="75.08%" y1="75.615%" x2="-8.077%" y2="-12.599%" id="az"><stop stop-color="#FFF" offset="0%"/><stop stop-color="#B3B2B2" offset="100%"/></linearGradient><path d="M.008.016s1.753 1.159 3.087 3.556a5.164 5.164 0 0 1-2.728.909A6.955 6.955 0 0 0 .008.016z" id="aA"/><linearGradient x1="49.839%" y1="80.143%" x2="517.936%" y2="841.035%" id="aC"><stop stop-color="#F7F7F7" offset="0%"/><stop stop-color="#3B3839" offset="100%"/></linearGradient><path d="M.035 1.607S.15 1.353.262.918A5.164 5.164 0 0 0 2.99.01c.242.436.472.906.674 1.424 0 0-1.21-.345-3.629.173z" id="aD"/><linearGradient x1="408.214%" y1="-444.267%" x2="-401.192%" y2="734.856%" id="aF"><stop stop-color="#F7F7F7" offset="0%"/><stop stop-color="#3B3839" offset="100%"/></linearGradient><path d="M3.683 2.791S2.042 2.36.141 2.445c0 0 .02-.538-.098-1.308C.474.99 1.24.659 1.837.028c.797.744 1.524 1.673 1.846 2.763z" id="aG"/><linearGradient x1="459.162%" y1="-362.428%" x2="-537.669%" y2="691.252%" id="aI"><stop stop-color="#F7F7F7" offset="0%"/><stop stop-color="#3B3839" offset="100%"/></linearGradient><path d="M1.248 3.18C1.111 2.287.785 1.08.01.027c0 0 1.625.733 3.032 2.045-.599.63-1.363.962-1.794 1.108z" id="aJ"/><linearGradient x1="11.007%" y1="-51.953%" x2="487.603%" y2="1025.996%" id="aL"><stop stop-color="#F7F7F7" offset="0%"/><stop stop-color="#3B3839" offset="100%"/></linearGradient><path d="M.091.041c.165.031.336.057.5.094C.543.197.491.26.444.322L.091.042z" id="aM"/><linearGradient x1="-112221.111%" y1="-17233.191%" x2="-3578.254%" y2="-506.354%" id="aO"><stop stop-color="#EBEBEB" offset="0%"/><stop stop-color="#535051" offset="100%"/></linearGradient><path d="M30.788 10.968l-6.867-.044C23.817 6.06 20.989-3.14 0 1.094c0 0 19.845 3.78 21.924 16.25l8.863-6.376z" id="aP"/><linearGradient x1="81.512%" y1="90.704%" x2="-13.837%" y2="-78.639%" id="aR"><stop stop-color="#A7A5A6" offset="0%"/><stop stop-color="#444141" offset="100%"/></linearGradient><path d="M61.375 1.837L63.61.229c2.002-.224 4.656-.364 6.99.038-.993.749-7.886 5.464-25.287 6.257h-5.17l6.127 5.666-1.016-.19s-1.03.31-2.884.788c-1.422-.135-2.797-.575-4.352-1l-2.593-2.194c-9.226-2.206-25.273 4.413-25.273 4.413l-7.42 2.006 9.025-5.215-3.188-2.296-.163-.157C3.356 7.767.433 6.692.433 6.692L.03 6.589c2.39-.554 5.478-1.424 8.322-2.686 2.055 1.166 5.07 2.095 9.296 1.718l-3.362 3.626s8.445-2.668 17.939-2.743c0 0 4.339.021 6.658.93l-4.49-3.722S48.31 4.226 61.12.66c.102.384.188.775.255 1.177z" id="aS"/><linearGradient x1="-215.23%" y1="-50.588%" x2="89.155%" y2="64.729%" id="aU"><stop stop-color="#EBEBEB" offset="0%"/><stop stop-color="#535051" offset="100%"/></linearGradient><path d="M55.954 1.042s10.086 1.922 16.63 7.543l-.261.141S45.982 18.564 33.92 15.96c0 0-1.882.517-4.502.747 1.346-1.06 2.4-2.282 2.949-3.684L.014 3.908l.237.05 37.09 9.194 4.072-.441.082.017 4.562-.48-34.592-9.936 3.402.753 33.76 8.3 2.516-.273.016.003 4.744-.482L22.839.03l35.287 8.874 4.135-.446-2.933-.666c.395-3.58-3.374-6.75-3.374-6.75z" id="aV"/><linearGradient x1="-184.904%" y1="-38.063%" x2="111.083%" y2="72.576%" id="aX"><stop stop-color="#EBEBEB" offset="0%"/><stop stop-color="#535051" offset="100%"/></linearGradient><path id="aY" d="M20.744.05L.184 9.246l-.138 1.597z"/><linearGradient x1="-1.331%" y1="50%" x2="96.891%" y2="50%" id="ba"><stop stop-color="#E7E6E6" offset="0%"/><stop stop-color="#B3B2B2" offset="100%"/></linearGradient><path d="M.04 5.857S24.866 7.07 45.655 1.62L41.291.807 36.976.004S20.224 5.05.04 5.857z" id="bb"/><linearGradient x1="117.997%" y1="-75.279%" x2="16.235%" y2="131.015%" id="bd"><stop stop-color="#E7E6E6" offset="0%"/><stop stop-color="#8F8D8D" offset="100%"/></linearGradient></defs><g fill="none" fill-rule="evenodd"><path d="M188.807 107.939l8.782 2.265-18.043-7.062v-.036l-3.18-1.25c.469-.613.86-1.26 1.175-1.927l21.065 6.145-7.897-3.258.004-.03-2.569-1.07-.004.04-9.8-4.044c.239-.908.381-1.811.457-2.668l20.65 6.822-20.559-9.196-.139-1.597c-.095-.869-.21-1.4-.21-1.4.332.184 2.241-6.12 2.241-6.12-8.806-7.176-18.277-9.228-18.277-9.228l-.364-2.513c-14.07-4.768-26.442-6.069-36.224-5.914-5.124-1.51-16.437-4.441-21.019-2.428-2.199.967-.607 3.557.67 5.15-2.049.57-3.143 1.001-3.143 1.001-31.182-4.989-23.374 6.393-23.374 6.393-39.522 6.709-57.07 23.505-63.689 32.133-1.796-2.539-2.665-5.22-2.456-8.004 2.011-26.878 60.603-31.044 61.254-31.483-39.835 2.243-69.453 14.466-70.462 33.507-.986 18.59 41.853 33.706 93.48 33.706 7.059 0 13.92-.307 20.52-.877-9.694-5.306-12.61-8.68-13.724-10.348 7.755-4.202 14.89-1.732 14.89-1.732 2.445 2.445 3.71 4.376 4.348 5.817.966 2.176.5 3.231.5 3.231 1.437 1.582 3.259 2.587 4.838 3.216 12.297 3.354 25.317-2.749 29.092-6.447-.153.15-1.762-1.842-2.487-2.27.972-1.89 2.193-5.238 2.986-8.702 0 0-.588.643-1.572 1.39-1.053.8-2.102 1.81-3.641 2.624l-2.638-.832c.521-1.16.904-2.434.997-3.755 0 0-1.704 1.548-4.404 2.68l-.561-.178-1.783-4.424-3.363-.906-.305-5.138-3.974-1.812c-.307-.605 2.904-1.432 2.904-1.432 2.678.95 6.566 1.296 6.566 1.296 1.134 2.558.284 7.225.284 7.225 4.487-1.267 8.193-7.06 8.193-7.06l4.223-.251c.232 2.661-1.15 6.645-1.15 6.645 7.025-2.585 9.542-7.674 9.542-7.674 2.773-.233 4.886-.989 6.495-2.054l12.068 3.115" fill="#231F20" fill-rule="nonzero"/><g transform="matrix(1 0 0 -1 168.225 102.545)"><mask id="b" fill="#fff"><use xlink:href="#a"/></mask><g mask="url(#b)" fill="url(#c)" fill-rule="nonzero"><path d="M6.007 9.6S7.963-1.005.04.113c0 0 5.227 5.843 5.967 9.489"/></g></g><g transform="matrix(1 0 0 -1 144.021 101.969)"><mask id="e" fill="#fff"><use xlink:href="#d"/></mask><g mask="url(#e)" fill="url(#f)" fill-rule="nonzero"><path d="M30.788 10.968l-6.867-.044C23.817 6.06 20.989-3.14 0 1.094c0 0 19.845 3.78 21.924 16.25l8.863-6.376"/></g></g><g transform="matrix(1 0 0 -1 121.965 93.22)"><mask id="h" fill="#fff"><use xlink:href="#g"/></mask><g mask="url(#h)" fill="url(#i)" fill-rule="nonzero"><path d="M.025 7.263S8.796 14.844 38.426.029c0 0-26.34 9.838-38.401 7.234"/></g></g><g transform="matrix(1 0 0 -1 168.225 102.545)"><mask id="k" fill="#fff"><use xlink:href="#j"/></mask><g mask="url(#k)" fill="url(#l)" fill-rule="nonzero"><path d="M6.007 9.6S7.963-1.005.04.113c0 0 5.227 5.843 5.967 9.489"/></g></g><g transform="matrix(1 0 0 -1 128.147 122.139)"><mask id="n" fill="#fff"><use xlink:href="#m"/></mask><g mask="url(#n)" fill="url(#o)" fill-rule="nonzero"><path d="M8.63.495c-6.444 3.57-1.56 8.369-7.44 12.394L.046 14.52c2.485-.257 4.713-.702 6.39-2.534 0 0 2.008-1.322 2.093-6.035.085-4.711 5.74-3.77 5.74-3.77S11.645-1.175 8.63.496"/></g></g><g transform="matrix(1 0 0 -1 149.26 126.906)"><mask id="q" fill="#fff"><use xlink:href="#p"/></mask><g mask="url(#q)" fill="url(#r)" fill-rule="nonzero"><path d="M.03 1.694s3.187.759 5.517 3.043l.98.672S5.635 1.561 3.06.04c0 0-1.925.566-3.029 1.655"/></g></g><g transform="matrix(1 0 0 -1 140.878 126.173)"><mask id="t" fill="#fff"><use xlink:href="#s"/></mask><g mask="url(#t)" fill="url(#u)" fill-rule="nonzero"><path d="M3.126.037C5.16-.035 7.67 5.3 7.67 5.3 4.96 3.093.006 1.496.006 1.496S.62.126 3.126.037"/></g></g><g transform="matrix(1 0 0 -1 120.34 124.863)"><mask id="w" fill="#fff"><use xlink:href="#v"/></mask><g mask="url(#w)" fill="url(#x)" fill-rule="nonzero"><path d="M12.668 22.16S-10.316 19.32 13.9.05c0 0-30.37 20.284-1.23 22.11"/></g></g><path d="M178.828 91.977l.153.693-.153-.695v.002" fill="#FBBC09" fill-rule="nonzero"/><g transform="matrix(1 0 0 -1 178.389 106.107)"><mask id="z" fill="#fff"><use xlink:href="#y"/></mask><g mask="url(#z)" fill="url(#A)" fill-rule="nonzero"><path d="M20.217.034L.013 8.45.24 9.597z"/></g></g><g transform="matrix(1 0 0 -1 176.346 110.246)"><mask id="C" fill="#fff"><use xlink:href="#B"/></mask><g mask="url(#C)" fill="url(#D)" fill-rule="nonzero"><path d="M13.147 3.633l-.594.264L.585 9.208A10.929 10.929 0 0 0 .02 8.39L3.2 7.14v-.036L21.244.042l-8.096 3.591"/></g></g><g transform="matrix(1 0 0 -1 42.279 131.726)"><mask id="F" fill="#fff"><use xlink:href="#E"/></mask><g mask="url(#F)" fill="url(#G)" fill-rule="nonzero"><path d="M.041 2.141c-.97 23.267 18.697 42.863 18.697 42.863C-.166 25.381 9.38.026 9.38.026S5.304.748.041 2.141"/></g></g><g transform="matrix(1 0 0 -1 56.372 135.603)"><mask id="I" fill="#fff"><use xlink:href="#H"/></mask><g mask="url(#I)" fill="url(#J)" fill-rule="nonzero"><path d="M28.976.034S-2.141 4.609 2.06 37.248c0 0-7.254-17.706 5.495-35.225C16.257.551 23.747.03 28.975.033"/></g></g><g transform="matrix(1 0 0 -1 18.808 125.177)"><mask id="L" fill="#fff"><use xlink:href="#K"/></mask><g mask="url(#L)" fill="url(#M)" fill-rule="nonzero"><path d="M.037 4.384C17.889 40.688 57.72 47.18 57.72 47.18 15.065 34.254 9.933.003 9.933.003S4.638 1.87.037 4.383"/></g></g><g transform="matrix(1 0 0 -1 15.822 125.073)"><mask id="O" fill="#fff"><use xlink:href="#N"/></mask><g mask="url(#O)" fill="url(#P)" fill-rule="nonzero"><path d="M3.023 4.279c17.852 36.305 57.684 42.797 57.684 42.797S18.285 42.02.032 6.116C3.386 3.486 12.362.029 12.362.029l.012.068C10.91.64 6.741 2.25 3.024 4.28"/></g></g><g transform="matrix(1 0 0 -1 149.836 86.304)"><mask id="R" fill="#fff"><use xlink:href="#Q"/></mask><g mask="url(#R)" fill="url(#S)" fill-rule="nonzero"><path d="M6.162 9.288s11.157-1.2 21.09-7.849L25.462.01S18.963 5.506.049 6.368c0 0 1.456 1.97 6.114 2.921"/></g></g><path d="M134.793 83.226c-.367-.223.59-1.345.59-1.345-5.918-.075-10.63-1.404-10.63-1.404s3.875 2.475 10.04 2.75" fill="#FBBC09" fill-rule="nonzero"/><g transform="matrix(1 0 0 -1 121.965 93.22)"><mask id="U" fill="#fff"><use xlink:href="#T"/></mask><g mask="url(#U)" fill="url(#V)" fill-rule="nonzero"><path d="M.025 7.263S8.796 14.844 38.426.029c0 0-26.34 9.838-38.401 7.234"/></g></g><g transform="matrix(1 0 0 -1 123.798 85.046)"><mask id="X" fill="#fff"><use xlink:href="#W"/></mask><g mask="url(#X)" fill="url(#Y)" fill-rule="nonzero"><path d="M.032.046c.701.262 1.625.522 2.794.711A13.24 13.24 0 0 1 .032.046"/></g></g><g transform="matrix(1 0 0 -1 82.096 82.375)"><mask id="aa" fill="#fff"><use xlink:href="#Z"/></mask><g mask="url(#aa)" fill="url(#ab)" fill-rule="nonzero"><path d="M12.82.025l4.483 2.639C13.596 3.89 7.093 5.016 7.093 5.016c13.606 2.035 14.519 2.708 24.295-.148l.323.086s-14.026 5.5-26.724 4.034C-8.974 7.376 10.717.718 12.82.025"/></g></g><g transform="matrix(1 0 0 -1 81.467 75.669)"><mask id="ad" fill="#fff"><use xlink:href="#ac"/></mask><g mask="url(#ad)" fill="url(#ae)" fill-rule="nonzero"><path d="M5.615 2.282c6.857.792 14.098-.447 19.311-1.755.78-.156 1.583-.32 2.416-.497 0 0-15.887 6.05-25.2 4.132C-.654 3.586-.105 1.676.665.36c.144.835 1.544 1.529 4.95 1.922"/></g></g><g transform="matrix(1 0 0 -1 90.53 114.909)"><mask id="ag" fill="#fff"><use xlink:href="#af"/></mask><g mask="url(#ag)" fill="url(#ah)" fill-rule="nonzero"><path d="M8.173 29.28S-3.796 13.98 8.736.02c0 0-19.253 14.617-.563 29.26"/></g></g><g transform="matrix(1 0 0 -1 131.5 133.246)"><mask id="aj" fill="#fff"><use xlink:href="#ai"/></mask><g mask="url(#aj)" fill="url(#ak)" fill-rule="nonzero"><path d="M12.676 3.508s4.412-.802 6.219-.601c0 0-9.779-5.044-18.856-1.805 0 0 7.02-.924 12.637 2.406"/></g></g><g transform="matrix(1 0 0 -1 114.682 77.345)"><mask id="am" fill="#fff"><use xlink:href="#al"/></mask><g mask="url(#am)" fill="url(#an)" fill-rule="nonzero"><path d="M.04 4.891S16.088-1.728 25.315.478l2.607 2.206-4.814-1.002S16.397 1.63.041 4.892"/></g></g><path d="M122.166 137.22a.44.44 0 0 0 .07.147c-1.66-.83-3.17-1.621-4.544-2.373-6.598.57-13.458.88-20.515.88-51.628 0-94.467-15.117-93.481-33.707.982-18.528 29.056-30.6 67.27-33.303 2.233-.214 5.592-.433 5.8-.612-16.467.453-74.719 4.23-75.962 33.299-1.398 32.713 77.017 39.41 121.813 35.877a29.445 29.445 0 0 1-.45-.208" fill="#FBBC09" fill-rule="nonzero"/><g transform="matrix(1 0 0 -1 38.35 129.526)"><mask id="ap" fill="#fff"><use xlink:href="#ao"/></mask><g mask="url(#ap)" fill="url(#aq)" fill-rule="nonzero"><path d="M22.668 42.804S-.874 24.299.035 1.073C1.319.703 2.63.345 3.969.001c-.934 23.24 18.699 42.803 18.699 42.803"/></g></g><g transform="matrix(1 0 0 -1 81.257 99.716)"><mask id="as" fill="#fff"><use xlink:href="#ar"/></mask><g mask="url(#as)" fill="url(#at)" fill-rule="nonzero"><path d="M.047.019l48.239 10.485-4.134.447z"/></g></g><g transform="matrix(1 0 0 -1 84.191 103.488)"><mask id="av" fill="#fff"><use xlink:href="#au"/></mask><g mask="url(#av)" fill="url(#aw)" fill-rule="nonzero"><path d="M.049.04l56.59 12.449-4.134.447z"/></g></g><g transform="matrix(1 0 0 -1 89.745 107.208)"><mask id="ay" fill="#fff"><use xlink:href="#ax"/></mask><g mask="url(#ay)" fill="url(#az)" fill-rule="nonzero"><path d="M.04.01l60.544 13.74-4.134.446z"/></g></g><g transform="matrix(1 0 0 -1 148.212 112.185)"><mask id="aB" fill="#fff"><use xlink:href="#aA"/></mask><g mask="url(#aB)" fill="url(#aC)" fill-rule="nonzero"><path d="M.008.016s1.753 1.159 3.087 3.556a5.164 5.164 0 0 1-2.728.909A6.955 6.955 0 0 0 .008.016"/></g></g><g transform="matrix(1 0 0 -1 148.317 108.622)"><mask id="aE" fill="#fff"><use xlink:href="#aD"/></mask><g mask="url(#aE)" fill="url(#aF)" fill-rule="nonzero"><path d="M.035 1.607S.15 1.353.262.918A5.164 5.164 0 0 0 2.99.01c.242.436.472.906.674 1.424 0 0-1.21-.345-3.629.173"/></g></g><g transform="matrix(1 0 0 -1 161.257 109.46)"><mask id="aH" fill="#fff"><use xlink:href="#aG"/></mask><g mask="url(#aH)" fill="url(#aI)" fill-rule="nonzero"><path d="M3.683 2.791S2.042 2.36.141 2.445c0 0 .02-.538-.098-1.308C.474.99 1.24.659 1.837.028c.797.744 1.524 1.673 1.846 2.763"/></g></g><g transform="matrix(1 0 0 -1 160.052 111.504)"><mask id="aK" fill="#fff"><use xlink:href="#aJ"/></mask><g mask="url(#aK)" fill="url(#aL)" fill-rule="nonzero"><path d="M1.248 3.18C1.111 2.287.785 1.08.01.027c0 0 1.625.733 3.032 2.045-.599.63-1.363.962-1.794 1.108"/></g></g><g transform="matrix(1 0 0 -1 175.455 86.147)"><mask id="aN" fill="#fff"><use xlink:href="#aM"/></mask><g mask="url(#aN)" fill="url(#aO)" fill-rule="nonzero"><path d="M.091.041c.165.031.336.057.5.094C.543.197.491.26.444.322L.091.042"/></g></g><g transform="matrix(1 0 0 -1 144.021 101.969)"><mask id="aQ" fill="#fff"><use xlink:href="#aP"/></mask><g mask="url(#aQ)" fill="url(#aR)" fill-rule="nonzero"><path d="M30.788 10.968l-6.867-.044C23.817 6.06 20.989-3.14 0 1.094c0 0 19.845 3.78 21.924 16.25l8.863-6.376"/></g></g><g transform="matrix(1 0 0 -1 104.571 86.461)"><mask id="aT" fill="#fff"><use xlink:href="#aS"/></mask><g mask="url(#aT)" fill="url(#aU)" fill-rule="nonzero"><path d="M61.375 1.837L63.61.229c2.002-.224 4.656-.364 6.99.038-.993.749-7.886 5.464-25.287 6.257h-5.17l6.127 5.666-1.016-.19s-1.03.31-2.884.788c-1.422-.135-2.797-.575-4.352-1l-2.593-2.194c-9.226-2.206-25.273 4.413-25.273 4.413l-7.42 2.006 9.025-5.215-3.188-2.296-.163-.157C3.356 7.767.433 6.692.433 6.692L.03 6.589c2.39-.554 5.478-1.424 8.322-2.686 2.055 1.166 5.07 2.095 9.296 1.718l-3.362 3.626s8.445-2.668 17.939-2.743c0 0 4.339.021 6.658.93l-4.49-3.722S48.31 4.226 61.12.66c.102.384.188.775.255 1.177"/></g></g><g transform="matrix(1 0 0 -1 88.068 101.916)"><mask id="aW" fill="#fff"><use xlink:href="#aV"/></mask><g mask="url(#aW)" fill="url(#aX)" fill-rule="nonzero"><path d="M55.954 1.042s10.086 1.922 16.63 7.543l-.261.141S45.982 18.564 33.92 15.96c0 0-1.882.517-4.502.747 1.346-1.06 2.4-2.282 2.949-3.684L.014 3.908l.237.05 37.09 9.194 4.072-.441.082.017 4.562-.48-34.592-9.936 3.402.753 33.76 8.3 2.516-.273.016.003 4.744-.482L22.839.03l35.287 8.874 4.135-.446-2.933-.666c.395-3.58-3.374-6.75-3.374-6.75"/></g></g><path d="M190.713 102.769l-.004.03 1.099.47.001-.028-1.096-.472" fill="#FBBC09" fill-rule="nonzero"/><g transform="matrix(1 0 0 -1 178.703 101.916)"><mask id="aZ" fill="#fff"><use xlink:href="#aY"/></mask><g mask="url(#aZ)" fill="url(#ba)" fill-rule="nonzero"><path d="M20.744.05L.184 9.246l-.138 1.597z"/></g></g><path d="M190.57 108.393l-1.759-.5c-.023.043-.053.09-.08.134" fill="#FBBC09" fill-rule="nonzero"/><path d="M162.814 127.836v.647h.747c.264 0 .41-.088.41-.301 0-.296-.196-.346-.542-.346h-.615zm0 2.174h-.61v-2.652h1.489c.553.02.886.22.886.817 0 .496-.257.691-.703.723l.621 1.112h-.69l-.566-1.05h-.427v1.05zm-1.32-1.339c0 1.1.73 1.854 1.835 1.854 1.1 0 1.86-.78 1.86-1.878 0-1.1-.76-1.83-1.86-1.83-1.106 0-1.835.755-1.835 1.854zm4.305 0c0 1.345-.975 2.451-2.458 2.451-1.721 0-2.456-1.288-2.456-2.45 0-1.138.722-2.45 2.456-2.45 1.61 0 2.458 1.174 2.458 2.45z" fill="#231F20" fill-rule="nonzero"/><g transform="matrix(1 0 0 -1 112.849 74.464)"><mask id="bc" fill="#fff"><use xlink:href="#bb"/></mask><g mask="url(#bc)" fill="url(#bd)" fill-rule="nonzero"><path d="M.04 5.857S24.866 7.07 45.655 1.62L41.291.807 36.976.004S20.224 5.05.04 5.857"/></g></g></g></svg>