<svg width="200" height="200" xmlns="http://www.w3.org/2000/svg"><g fill-rule="nonzero" fill="none"><path d="M194.856 147.621c.211.063.373.169.491.318.117.15.176.33.176.539a.94.94 0 0 1-.154.531c-.101.16-.255.28-.46.358a1.803 1.803 0 0 1-.649.117h-.907v-1.953h.907c.184 0 .382.03.596.09Zm-.723 2.833c.352 0 .617.048.802.143a.855.855 0 0 1 .39.39c.082.166.132.43.155.802.029.519.063.829.108.927h1.305c-.052-.17-.084-.44-.093-.809-.009-.368-.03-.632-.065-.788a1.763 1.763 0 0 0-.245-.612 1.23 1.23 0 0 0-.425-.386 2.382 2.382 0 0 0-.678-.23c.318-.039.545-.091.678-.158.248-.122.446-.304.596-.54.15-.24.225-.513.225-.823 0-.317-.071-.596-.21-.834a1.74 1.74 0 0 0-.543-.574c-.221-.146-.506-.25-.853-.316-.248-.045-.612-.065-1.094-.065h-2.203v6.135h1.37v-2.262h.78Zm5.243-3.096a5.404 5.404 0 0 0-1.076-1.57 5.727 5.727 0 0 0-1.725-1.198c-.683-.32-1.435-.48-2.26-.48-.845 0-1.65.185-2.41.55a5.746 5.746 0 0 0-1.535 1.092 5.49 5.49 0 0 0-1.148 1.713c-.3.68-.45 1.413-.45 2.197 0 .97.245 1.896.734 2.775a5.246 5.246 0 0 0 2.05 2.05c.874.49 1.795.734 2.76.734.858 0 1.664-.184 2.427-.555a5.702 5.702 0 0 0 1.6-1.171 5.233 5.233 0 0 0 1.128-1.76 5.666 5.666 0 0 0 .398-2.073c0-.789-.165-1.558-.493-2.304Zm-3.311-2.078c.573.23 1.065.55 1.485.962.418.411.747.863.984 1.359a4.65 4.65 0 0 1 .471 2.06c0 .83-.21 1.618-.625 2.363a4.448 4.448 0 0 1-1.735 1.746 4.671 4.671 0 0 1-2.33.624 4.662 4.662 0 0 1-2.32-.624 4.43 4.43 0 0 1-1.735-1.746 4.756 4.756 0 0 1-.625-2.362c0-.704.134-1.345.404-1.922a4.845 4.845 0 0 1 1.014-1.462c.406-.397.85-.704 1.33-.917a4.691 4.691 0 0 1 1.933-.423c.595 0 1.178.114 1.749.342ZM173.24 127.164 140.85 73.316h8.922V45.26H95.853v28.057h8.923l-12.38 20.572-12.372-20.572h8.92V45.26H35.028v28.057h8.92l-32.391 53.848H0v28.057h54.991v-28.057h-9.878l16.874-28.052 6.543 10.878h-6.275v28.057h60.285V109.99h-6.27l6.541-10.878 16.874 28.052h-9.879v28.057h54.987v-28.057H173.24" fill="#841C32"/><path d="M146.173 48.852v20.866h-11.687l36.724 61.043h9.991v20.861h-47.798v-20.86h12.643l-23.235-38.626-12.904 21.45h9.037v20.863H65.848v-20.862h9.044L61.987 92.136 38.75 130.76h12.644v20.861H3.6v-20.86h9.987l36.725-61.044H38.626V48.852h46.722v20.866H73.661l18.735 31.145 18.74-31.145H99.452V48.852h46.722" fill="#F9B428"/><path d="M142.577 52.448v13.674h-14.452l41.051 68.236h8.428v13.668H137v-13.668h15.407l-29.595-49.2-19.265 32.025h11.8v13.67H69.445v-13.67h11.808L61.987 85.16 32.39 134.358h15.408v13.668H7.195v-13.668h8.425l41.051-68.236H42.222V52.448h39.53v13.674h-14.45l25.093 41.717L117.5 66.122h-14.452V52.448h39.529" fill="#841C32"/></g></svg>