<svg width="200" height="200" xmlns="http://www.w3.org/2000/svg"><g fill="none"><path d="M194.856 147.468a.947.947 0 0 1 .491.315.84.84 0 0 1 .176.534c0 .194-.05.37-.154.526a.903.903 0 0 1-.46.355 1.818 1.818 0 0 1-.649.116h-.907v-1.936h.907c.184 0 .382.03.596.09zm-.723 2.807c.352 0 .617.047.802.142a.851.851 0 0 1 .39.386c.082.165.132.427.155.795.029.514.063.822.108.919h1.305c-.052-.169-.084-.436-.093-.802-.009-.365-.03-.626-.065-.781a1.739 1.739 0 0 0-.245-.606 1.226 1.226 0 0 0-.425-.383 2.397 2.397 0 0 0-.678-.227c.318-.04.545-.091.678-.157.248-.121.446-.301.596-.536.15-.237.225-.507.225-.815 0-.314-.071-.59-.21-.827a1.73 1.73 0 0 0-.543-.569c-.221-.144-.506-.248-.853-.313-.248-.044-.612-.064-1.094-.064h-2.203v6.08h1.37v-2.242h.78zm5.243-3.068a5.354 5.354 0 0 0-1.076-1.555 5.728 5.728 0 0 0-1.725-1.188c-.683-.317-1.435-.475-2.26-.475-.845 0-1.65.183-2.41.545a5.746 5.746 0 0 0-1.535 1.081 5.438 5.438 0 0 0-1.148 1.698c-.3.674-.45 1.4-.45 2.177 0 .962.245 1.879.734 2.75a5.223 5.223 0 0 0 2.05 2.031 5.602 5.602 0 0 0 2.76.728c.858 0 1.664-.182 2.427-.55a5.7 5.7 0 0 0 1.6-1.16 5.18 5.18 0 0 0 1.128-1.744 5.57 5.57 0 0 0 .398-2.055c0-.781-.165-1.543-.493-2.283zm-3.311-2.06a4.468 4.468 0 0 1 1.485.954c.418.408.747.856.984 1.347.314.638.471 1.322.471 2.042 0 .821-.21 1.603-.625 2.34a4.428 4.428 0 0 1-1.735 1.732 4.704 4.704 0 0 1-2.33.618 4.695 4.695 0 0 1-2.32-.618 4.41 4.41 0 0 1-1.735-1.731 4.68 4.68 0 0 1-.625-2.341c0-.697.134-1.333.404-1.905a4.8 4.8 0 0 1 1.014-1.449c.406-.393.85-.697 1.33-.908a4.727 4.727 0 0 1 1.933-.42c.595 0 1.178.114 1.749.34zm-22.825-17.952l-32.39-53.363h8.922V46.028H95.853v27.804h8.923l-12.38 20.386-12.372-20.386h8.92V46.028H35.028v27.804h8.92l-32.391 53.363H0v27.804h54.991v-27.804h-9.878l16.874-27.8 6.543 10.78h-6.275v27.805h60.285v-27.804h-6.27l6.541-10.78 16.874 27.799h-9.879v27.804h54.987v-27.804H173.24" fill="#841C32"/><path d="M146.173 49.588v20.679h-11.687l36.724 60.493h9.991v20.673h-47.798V130.76h12.643l-23.235-38.278-12.904 21.258h9.037v20.675H65.848V113.74h9.044L61.987 92.482 38.75 130.76h12.644v20.673H3.6V130.76h9.987l36.725-60.493H38.626V49.588h46.722v20.679H73.661l18.735 30.863 18.74-30.863H99.452V49.588h46.722" fill="#F9B428"/><path d="M142.577 53.152v13.55h-14.452l41.051 67.622h8.428v13.545H137v-13.545h15.407l-29.595-48.756-19.265 31.736h11.8v13.547H69.445v-13.547h11.808L61.987 85.57 32.39 134.324h15.408v13.545H7.195v-13.545h8.425l41.051-67.622H42.222v-13.55h39.53v13.55h-14.45l25.093 41.342L117.5 66.702h-14.452v-13.55h39.529" fill="#841C32"/></g></svg>