<?xml version="1.0" encoding="UTF-8"?>
<svg width="200px" height="200px" viewBox="0 0 200 200" version="1.1" xmlns="http://www.w3.org/2000/svg" xmlns:xlink="http://www.w3.org/1999/xlink">
    <!-- Generator: Sketch 51.3 (57544) - http://www.bohemiancoding.com/sketch -->
    <title>minnesota</title>
    <desc>Created with Sketch.</desc>
    <defs></defs>
    <g id="minnesota" stroke="none" stroke-width="1" fill="none" fill-rule="evenodd">
        <g id="minnesota_BGL" transform="translate(0.000000, 45.771144)">
            <g id="minnesota">
                <g id="g10" transform="translate(99.999998, 54.629449) scale(-1, 1) rotate(-180.000000) translate(-99.999998, -54.629449) translate(0.000000, 0.030810)" fill-rule="nonzero">
                    <g id="g12">
                        <path d="M194.856299,7.53125749 C195.067007,7.46960724 195.229356,7.3645177 195.347491,7.21660503 C195.464244,7.06766542 195.522966,6.88942397 195.522966,6.68229145 C195.522966,6.48785868 195.472879,6.31256111 195.368562,6.15612488 C195.268043,5.99766902 195.113639,5.87919511 194.908803,5.80149046 C194.705004,5.7240939 194.487042,5.68544696 194.260444,5.68544696 L193.353363,5.68544696 L193.353363,7.62084034 L194.260444,7.62084034 C194.444209,7.62084034 194.642137,7.59181235 194.856299,7.53125749 Z M194.132983,4.72430553 C194.484624,4.72430553 194.750254,4.67696389 194.93471,4.58255446 C195.116748,4.48776849 195.248009,4.35871716 195.325729,4.19639318 C195.406904,4.03139917 195.45699,3.76891493 195.480479,3.40118369 C195.508803,2.88704594 195.543346,2.57963677 195.587905,2.48242381 L196.892914,2.48242381 C196.8411,2.65090597 196.808976,2.9178026 196.79965,3.28418172 C196.791014,3.64934563 196.769252,3.91049485 196.735056,4.06535645 C196.682551,4.30589854 196.601377,4.50645868 196.490496,4.67148691 C196.376852,4.83312627 196.236265,4.96245145 196.064589,5.05456739 C195.89395,5.14911375 195.668389,5.22438799 195.386524,5.2814855 C195.705349,5.32054321 195.931947,5.37226643 196.064589,5.4383325 C196.312603,5.55947644 196.511221,5.7396006 196.66079,5.97466571 C196.811049,6.21120276 196.88566,6.48173131 196.88566,6.78912678 C196.88566,7.10364233 196.814848,7.37988748 196.675297,7.6157399 C196.53471,7.85231118 196.353363,8.03948695 196.132983,8.18496922 C195.911567,8.32911647 195.627284,8.43290523 195.279788,8.49828668 C195.032465,8.54268444 194.668043,8.56260695 194.186178,8.56260695 L191.983069,8.56260695 L191.983069,2.48242381 L193.353363,2.48242381 L193.353363,4.72430553 L194.132983,4.72430553 Z M199.376161,7.79264634 C199.124002,8.35372865 198.765798,8.87202206 198.300168,9.34749234 C197.833156,9.82539302 197.257335,10.2210706 196.574779,10.5350384 C195.891878,10.8526005 195.139891,11.0101321 194.315712,11.0101321 C193.469771,11.0101321 192.664935,10.8276118 191.905349,10.4651042 C191.352327,10.2028938 190.841446,9.84103665 190.369598,9.38415387 C189.903968,8.92617569 189.520203,8.36054064 189.221757,7.68663255 C188.921584,7.01231369 188.772361,6.28555275 188.772361,5.50919092 C188.772361,4.54726217 189.016921,3.63051851 189.505695,2.75867923 C189.997923,1.89060195 190.680133,1.21279836 191.555781,0.727811835 C192.430392,0.24202464 193.3506,0 194.315712,0 C195.173743,0 195.980306,0.182120178 196.742655,0.549703887 C197.327802,0.832110639 197.862171,1.2189497 198.343346,1.71048806 C198.82832,2.20001706 199.201377,2.78194613 199.470807,3.45426247 C199.73471,4.12485014 199.86908,4.81015719 199.86908,5.50919092 C199.86908,6.29065319 199.704313,7.05267219 199.376161,7.79264634 Z M196.064589,9.85134021 C196.637646,9.62377172 197.13022,9.30603845 197.549909,8.89807194 C197.967525,8.49065314 198.296714,8.04256776 198.534019,7.55169347 C198.848354,6.91294075 199.005176,6.22937948 199.005176,5.50919092 C199.005176,4.68791785 198.795159,3.90648981 198.380306,3.16838468 C197.963035,2.42666474 197.386178,1.85115401 196.6449,1.4377071 C195.906385,1.0249277 195.13022,0.819540971 194.315712,0.819540971 C193.508113,0.819540971 192.733329,1.0249277 191.994468,1.4377071 C191.253881,1.85115401 190.673916,2.42666474 190.259753,3.16838468 C189.841791,3.90648981 189.634538,4.68791785 189.634538,5.50919092 C189.634538,6.2064104 189.769253,6.84208233 190.039028,7.4141186 C190.306731,7.98615487 190.643864,8.47086755 191.0525,8.86277966 C191.458717,9.25602678 191.902931,9.56037568 192.383069,9.77165016 C193.014848,10.0519004 193.66079,10.1905706 194.315712,10.1905706 C194.910876,10.1905706 195.493605,10.0773341 196.064589,9.85134021 Z" id="path14" fill="#841C32"></path>
                        <polyline id="path16" fill="#841C32" points="173.240756 27.8042284 140.848701 81.1667813 149.771326 81.1667813 149.771326 108.971352 95.8528473 108.971352 95.8528473 81.1667813 104.775818 81.1667813 92.396198 60.7807793 80.0238322 81.1667813 88.9447301 81.1667813 88.9447301 108.971352 35.0272876 108.971352 35.0272876 81.1667813 43.9474946 81.1667813 11.5558892 27.8042284 0 27.8042284 0 0 54.9910176 0 54.9910176 27.8042284 45.1126068 27.8042284 61.9872178 55.6033221 68.529532 44.8235997 62.2552661 44.8235997 62.2552661 17.0196794 122.540239 17.0196794 122.540239 44.8235997 116.269427 44.8235997 122.811396 55.6033221 139.684625 27.8042284 129.806214 27.8042284 129.806214 0 184.792741 0 184.792741 27.8042284 173.240756 27.8042284"></polyline>
                        <path d="M146.173053,105.410973 C146.173053,100.787033 146.173053,89.3507579 146.173053,84.7322949 C143.609668,84.7322949 134.486352,84.7322949 134.486352,84.7322949 L171.209668,24.2393652 C171.209668,24.2393652 177.789287,24.2393652 181.201377,24.2393652 C181.201377,19.6209707 181.201377,8.18431883 181.201377,3.56619823 C175.354745,3.56619823 139.242484,3.56619823 133.40276,3.56619823 C133.40276,8.18431883 133.40276,19.6209707 133.40276,24.2393652 C136.308459,24.2393652 146.046283,24.2393652 146.046283,24.2393652 L122.811396,62.5169817 L109.907078,41.259113 C109.907078,41.259113 117.634194,41.259113 118.944038,41.259113 C118.944038,36.641677 118.944038,25.2053332 118.944038,20.5845426 C112.987907,20.5845426 71.8093246,20.5845426 65.8483576,20.5845426 C65.8483576,25.2053332 65.8483576,36.641677 65.8483576,41.259113 C67.1592384,41.259113 74.8915353,41.259113 74.8915353,41.259113 L61.9872178,62.5169817 L38.7502581,24.2393652 C38.7502581,24.2393652 48.484282,24.2393652 51.3944719,24.2393652 C51.3944719,19.6209707 51.3944719,8.18431883 51.3944719,3.56619823 C45.5537122,3.56619823 9.44449026,3.56619823 3.59861822,3.56619823 C3.59861822,8.18431883 3.59861822,19.6209707 3.59861822,24.2393652 C7.00994801,24.2393652 13.5864591,24.2393652 13.5864591,24.2393652 L50.3105341,84.7322949 C50.3105341,84.7322949 41.1889454,84.7322949 38.6255603,84.7322949 C38.6255603,89.3507579 38.6255603,100.787033 38.6255603,105.410973 C44.4397226,105.410973 79.5316042,105.410973 85.3481844,105.410973 C85.3481844,100.787033 85.3481844,89.3507579 85.3481844,84.7322949 C82.7875627,84.7322949 73.6614835,84.7322949 73.6614835,84.7322949 L92.396198,53.8688312 L111.136785,84.7322949 C111.136785,84.7322949 102.01036,84.7322949 99.4514656,84.7322949 C99.4514656,89.3507579 99.4514656,100.787033 99.4514656,105.410973 C105.265628,105.410973 140.352674,105.410973 146.173053,105.410973" id="path18" fill="#F9B428"></path>
                        <path d="M142.576508,101.846829 C142.576508,97.9811082 142.576508,92.1625022 142.576508,88.2967816 C139.129876,88.2967816 128.12504,88.2967816 128.12504,88.2967816 L169.176162,20.6751866 C169.176162,20.6751866 174.658027,20.6751866 177.604486,20.6751866 C177.604486,16.8092264 177.604486,10.995002 177.604486,7.13037683 C171.953364,7.13037683 142.649737,7.13037683 136.999651,7.13037683 C136.999651,10.995002 136.999651,16.8092264 136.999651,20.6751866 C140.682553,20.6751866 152.406559,20.6751866 152.406559,20.6751866 L122.812432,69.4309837 L103.547148,37.6949686 C103.547148,37.6949686 112.74093,37.6949686 115.347147,37.6949686 C115.347147,33.8299669 115.347147,28.0146813 115.347147,24.1487212 C109.550602,24.1487212 75.2424852,24.1487212 69.4449033,24.1487212 C69.4449033,28.0146813 69.4449033,33.8299669 69.4449033,37.6949686 C72.0542296,37.6949686 81.2528477,37.6949686 81.2528477,37.6949686 L61.9865269,69.4306413 L32.3897747,20.6751866 C32.3897747,20.6751866 44.1150248,20.6751866 47.7979263,20.6751866 C47.7979263,16.8092264 47.7979263,10.995002 47.7979263,7.13037683 C42.1464584,7.13037683 12.8454228,7.13037683 7.19519844,7.13037683 C7.19519844,10.995002 7.19519844,16.8092264 7.19519844,20.6751866 C10.1403452,20.6751866 15.6202759,20.6751866 15.6202759,20.6751866 L56.6711558,88.2967816 C56.6711558,88.2967816 45.6690835,88.2967816 42.2224514,88.2967816 C42.2224514,92.1625022 42.2224514,97.9811082 42.2224514,101.846829 C47.839377,101.846829 76.1343677,101.846829 81.7516387,101.846829 C81.7516387,97.9811082 81.7516387,92.1625022 81.7516387,88.2967816 C78.3043158,88.2967816 67.3012073,88.2967816 67.3012073,88.2967816 L92.3951618,46.9555139 L117.499824,88.2967816 C117.499824,88.2967816 106.49568,88.2967816 103.048357,88.2967816 C103.048357,92.1625022 103.048357,97.9811082 103.048357,101.846829 C108.664591,101.846829 136.959237,101.846829 142.576508,101.846829" id="path20" fill="#841C32"></path>
                    </g>
                </g>
            </g>
        </g>
    </g>
</svg>