<?xml version="1.0" encoding="UTF-8"?>
<svg width="200px" height="200px" viewBox="0 0 200 200" version="1.1" xmlns="http://www.w3.org/2000/svg" xmlns:xlink="http://www.w3.org/1999/xlink">
    <!-- Generator: Sketch 51.3 (57544) - http://www.bohemiancoding.com/sketch -->
    <title>missouri</title>
    <desc>Created with Sketch.</desc>
    <defs></defs>
    <g id="missouri" stroke="none" stroke-width="1" fill="none" fill-rule="evenodd">
        <g id="missouri_BGL" transform="translate(0.000000, 43.000000)">
            <g id="missouri" transform="translate(0.000000, 0.216080)">
                <g id="g10" transform="translate(100.134369, 57.282752) scale(-1, 1) rotate(-180.000000) translate(-100.134369, -57.282752) translate(0.000000, 0.589029)" fill-rule="nonzero">
                    <g id="g12">
                        <path d="M123.148339,101.212875 L123.09945,101.210077 L110.804128,103.784119 C105.937745,104.828168 105.76516,100.994347 105.76516,100.994347 C105.629979,100.994347 105.491999,100.997144 105.34813,100.994347 C105.457394,102.305812 105.76516,105.47536 107.588636,105.903876 C108.437128,106.070717 109.789973,105.895188 112.060961,105.107218 C113.942015,104.445595 121.034473,101.908956 122.886665,101.583961 L123.148339,101.212875 Z M150.275182,10.7192369 C151.964213,12.7670142 153.071581,14.8780529 153.807863,16.7187582 C176.734216,25.651922 191.639511,40.1129447 191.639511,56.4405898 C191.639511,79.8751246 160.918876,99.4728931 119.817841,104.376679 C117.718259,105.386122 115.661823,106.332392 114.068508,107.011097 C107.355677,109.890107 105.819792,108.590127 104.15285,107.011097 C103.625377,106.510719 103.211292,106.010195 102.874664,105.527047 C101.81913,105.544276 100.759031,105.558707 99.6971647,105.558707 C58.2980824,105.558707 23.2936103,90.9423284 11.768439,70.8441825 C17.5919888,65.9346533 32.8037248,53.6737889 44.8930355,47.7892749 L44.744601,48.1516729 C44.308722,48.5946202 33.7678126,59.1844188 30.9186953,73.2887864 L31.1360458,73.2887864 C32.0185535,72.1930514 36.9274937,63.3289509 57.6946255,50.1275596 C59.30458,49.1066308 75.4918898,39.3536906 82.3715627,37.5274164 L81.5398584,38.4390809 C80.8817695,39.16962 70.6433248,51.0047662 65.813314,60.2112378 C65.813314,60.2112378 60.616193,68.7618294 56.9646754,79.1358973 C56.9646754,79.1358973 63.9098775,73.5102601 64.5695863,73.2887864 L64.6455706,73.6598726 C64.4246859,74.1631951 58.6143892,87.4105303 57.562242,94.7157743 C59.2477391,95.1242636 66.6364774,96.4616465 70.0601893,96.6657439 C70.0601893,96.6657439 71.4700223,85.1181896 80.686802,79.6134499 C80.686802,78.2127468 81.1883573,63.8926485 85.1027276,58.5920062 C84.9992064,60.5879198 83.896992,67.6948094 90.0156437,75.204298 L90.3182557,74.9109632 C89.5089344,71.8019383 87.3080399,59.1844188 90.3182557,48.7757456 C91.1119678,45.9744867 96.627899,32.2554891 101.837537,28.746663 C101.239381,32.0512444 93.8213388,47.3751898 101.639182,63.5906255 C101.690869,63.0471021 101.810589,61.8045524 102.126896,60.0156813 C103.013968,54.9537417 105.457394,45.4683663 112.348553,34.7117263 C112.360039,34.69435 112.601687,34.3521261 112.716694,34.1852845 C112.22206,41.1167917 114.7157,45.2957818 116.121999,47.2083483 C120.821541,53.4437743 130.617627,53.705449 137.793433,52.1321613 C140.693795,51.5138316 142.945788,51.1601217 145.507166,50.3806934 C145.593458,50.4582976 145.651035,50.5331038 145.711411,50.6223412 C139.268942,54.0880212 123.763871,56.9755724 123.763871,56.9755724 C126.389748,57.4501799 129.004138,57.2257611 131.677137,57.2488803 C138.265095,56.9094543 145.156254,56.7540988 151.370769,54.8472753 C151.473849,54.9537417 151.626996,55.0831801 151.72124,55.1809584 C149.643452,56.11854 147.350669,56.6592656 145.1994,57.3840617 C136.712129,59.6043941 127.692673,61.0338122 118.624327,61.7384342 L118.586924,61.8074975 C123.014336,62.5121195 127.951402,62.6443558 132.680984,62.69619 C138.909342,62.8341693 145.225317,62.2388116 151.49152,61.675114 L151.601962,61.9138166 C149.25764,62.5782376 144.055954,63.5963685 144.055954,63.5963685 C133.464977,65.1868852 122.337251,66.2653912 111.44381,66.4235446 C111.480035,66.4926079 114.082939,67.2835222 116.825001,67.6890664 C124.295909,68.8825797 132.812042,69.0207062 140.252615,69.1012555 C141.680266,70.2430818 142.412425,70.5708746 144.046088,71.2697536 C138.10812,73.0874869 131.845746,73.0184236 125.734015,73.7202478 C120.649103,73.9302354 115.785518,74.9483663 111.203929,76.7429804 C109.544349,78.5290536 107.850311,80.2834666 106.50262,82.1472912 C106.77475,82.3456456 106.886812,82.2248953 106.886812,82.2248953 C106.886812,82.2248953 109.377655,81.4397241 110.674689,81.106041 C112.434845,80.3266128 114.036848,79.368857 115.935131,78.7016381 C116.752993,78.3479282 117.985824,78.0114472 118.834168,77.907926 C117.912195,80.6315808 118.126748,82.2565555 118.168127,82.4722861 C118.210095,82.6937598 118.30213,82.8519132 118.30213,82.8519132 C119.084504,82.6534115 119.553221,82.5239731 120.298191,82.2939586 C120.298191,82.2939586 120.223385,82.0004765 120.384484,81.0456659 L122.964269,80.7149279 C122.74574,80.3525299 121.426765,79.6449628 120.994125,79.3027388 C120.994125,79.3027388 121.181141,78.6786661 121.422641,78.2529478 C121.744838,77.6807093 122.035375,77.277963 122.698029,77.1284977 C125.182981,77.4966388 127.074196,79.6651369 127.074196,79.6651369 L129.619523,78.9518268 C129.619523,78.9518268 129.410861,78.3190659 128.687684,77.4418594 C130.397331,77.260734 133.467775,77.5224086 135.524211,77.5483258 C135.985565,77.5598118 136.119569,77.5598118 136.378446,77.7870284 C136.761018,78.2270306 137.25845,78.6210888 137.537501,79.1158704 C136.182889,79.357371 135.5731,79.5903306 135.656595,79.5558726 C135.295227,79.5817898 134.934596,79.5990188 134.577941,79.6421649 C130.436354,80.7551289 126.3494,82.3197285 122.547239,83.9332171 C118.532292,85.564082 113.499068,84.0137664 109.282674,85.2563161 C106.97605,85.95225 104.493895,86.2888781 102.218931,86.9646379 C102.207445,86.9703809 102.14707,86.9935001 102.066521,87.0222151 C102.069466,87.0164721 102.075209,87.013527 102.080952,87.007784 C102.073442,87.013527 102.063723,87.0251603 102.060778,87.0251603 L102.060778,87.0279581 C101.946948,87.0683064 101.791593,87.1286815 101.639182,87.1861115 C101.640802,87.0366463 101.64198,86.8812907 101.643747,86.7288803 C102.354112,85.8631598 103.521856,84.4539158 103.833598,84.1691219 C103.372243,84.2898722 102.612989,84.537263 101.666719,84.8220569 C99.9520655,85.3396632 97.6159896,85.9811122 95.2887491,86.2083289 C94.1837369,86.314648 92.9849223,86.4066833 91.5711134,86.6972202 C91.7516497,86.4240595 94.4315694,83.2689434 94.4315694,83.2689434 C85.8827449,84.9887512 80.9629078,86.9703809 77.5679109,89.5043694 C74.178657,92.0467516 72.6797339,94.971706 72.3978851,95.5326057 C71.8134243,96.726119 71.5689786,98.2275455 72.3029047,98.9091955 C73.2135384,99.7230818 75.1554089,99.2456765 75.5742061,99.1421552 C76.2443701,98.9695707 76.5048668,98.9005074 76.9650431,98.7912431 C77.3775083,98.6962627 77.9336958,98.6358876 80.8576194,98.0347869 C84.3266863,97.3129359 93.6050191,96.3781521 101.551712,96.1912837 C102.472065,96.1711096 103.372243,96.1596236 104.246652,96.1596236 C108.123619,96.1596236 112.400387,95.7655654 114.801845,95.0954014 C114.801845,95.0954014 110.519334,94.971706 109.069889,94.6553992 L109.722677,94.1578197 C111.597987,94.1578197 121.353725,93.2259811 126.429949,92.1560159 L124.074435,91.836764 L124.560528,91.3910188 C126.165329,91.2558374 132.584826,89.6221746 141.268979,87.0855354 L142.128956,87.3184951 C142.128956,87.3184951 134.063133,92.9987644 132.722952,93.6689284 C131.860029,93.1367437 131.668596,93.0332224 130.910962,92.6161922 C130.617627,92.4522958 130.148763,92.3545175 129.748961,92.5530192 C127.83934,93.510775 122.486864,96.1451924 121.08616,96.6946062 C121.08616,96.6946062 118.960808,95.7396482 118.145155,96.02724 L109.055458,99.2341905 C108.304744,99.0960639 105.097941,98.6790337 101.537281,98.3425528 C98.1440511,98.0175579 94.4321584,97.7673692 92.2159492,97.8968076 C94.0036422,98.4029279 98.3425528,99.4038299 101.525795,99.9589866 C101.675407,99.9847565 101.830763,100.010674 101.975663,100.036591 C103.442485,100.301211 105.983836,100.436392 110.79544,100.168827 C115.607191,99.9043545 130.137277,97.8564593 135.25105,96.8355306 C137.25683,96.4327842 140.284128,95.2909579 143.680892,92.829125 C145.143001,91.7591598 152.299958,87.2609178 152.734364,85.6503743 C152.959666,84.8220569 153.215893,83.867099 152.967029,81.7243707 L152.277869,81.9143315 C152.277869,81.9143315 151.626996,83.3494926 151.360462,83.6255984 C150.132343,84.9313212 147.4832,84.543006 147.4832,84.543006 C147.4832,84.543006 146.942327,82.5728623 151.113071,80.4675371 C151.647612,80.1943765 154.206928,79.4264342 155.159677,79.2107036 C156.362762,78.9375429 161.544716,77.1485246 161.379789,77.2520459 C161.397459,77.2405599 161.425438,77.2290739 161.454889,77.2088997 C164.242454,76.1275958 167.075667,74.9368803 169.268315,73.0558268 C169.932442,72.4115799 170.540611,70.9936478 170.868993,68.7618294 C171.075152,67.240376 171.322543,65.8339299 171.403534,64.4102548 C170.302055,63.5273053 166.488114,62.0921442 166.488114,62.0921442 L166.719307,61.634913 C166.719307,61.634913 169.875012,61.8074975 171.219463,62.1726934 C171.300454,60.7547613 170.939676,59.1125577 170.745297,57.7809178 C169.493618,57.3811166 166.439519,56.7742729 166.439519,56.7742729 L166.706054,56.1674292 L170.437531,56.1789152 C170.325617,54.766726 169.579026,52.983598 169.222666,52.4860185 C168.33471,52.0775292 167.776608,51.8992017 166.523456,51.7238193 C166.038982,51.6634441 165.7106,51.6058669 165.114212,51.5541799 C165.24527,51.3182751 165.273249,51.2406709 165.355712,51.0968014 C166.33644,50.9645651 168.078483,50.8955019 168.670454,50.8495579 C168.362688,49.9694062 168.015163,49.5379449 167.652912,49.0203386 C167.112481,48.2638823 166.367364,47.4153908 165.14219,46.5496703 C163.002555,47.3779877 162.067476,50.216797 162.021827,51.8445695 C161.795052,54.5567384 162.398803,60.9791801 163.057039,62.8284263 C164.15999,65.2415173 166.6177,66.7313106 167.411412,67.2318352 C168.006328,69.2249509 169.399374,70.8758427 169.393483,70.9390157 C169.346361,71.2928728 169.113696,71.5976936 169.113696,71.5976936 C169.113696,71.5976936 168.514362,71.404935 168.249301,71.3014137 C167.878215,71.1260313 166.95639,70.8901265 166.152369,70.0445801 C166.062543,69.9295729 165.893198,69.7714195 165.772448,69.6131188 C165.60163,69.8892246 164.782885,71.3014137 164.782885,71.3014137 L159.250461,71.1719753 C159.250461,71.1719753 158.743899,70.1797615 157.825019,69.6736412 C157.732247,69.7857033 157.486329,70.007177 157.287533,70.1653304 L156.82662,70.2717968 C155.845892,70.4443813 155.118446,70.4702985 154.016967,70.4960683 C153.148155,70.4960683 151.333955,70.5077016 151.333955,70.5077016 L151.314812,69.984205 C151.314812,69.984205 152.840389,69.7627313 154.134773,66.9211241 C155.359946,66.7140816 156.48204,66.3429954 157.614442,65.9259652 C159.773221,64.7496809 161.454889,62.3021318 161.23695,59.3455173 C161.394514,54.795441 158.651127,51.4591995 155.047762,49.1008878 C152.918435,47.7087256 147.567136,46.5727895 142.846831,46.9035275 C141.545085,47.104827 140.347448,47.3118695 138.568296,47.8899983 C136.270359,48.6205374 133.482206,49.5379449 130.260972,49.6933004 C125.394589,49.7766476 120.114121,48.4307238 117.62048,44.0647181 C114.937027,39.3594336 116.038652,33.8862067 116.038652,33.8862067 C118.178435,35.3559731 121.532053,36.2072625 124.27117,35.364514 C125.325526,34.9474838 126.104954,34.688607 126.959188,34.1939727 C126.872896,34.7778444 126.038836,35.7672603 125.102432,36.4574512 C127.428053,36.7537311 129.467113,35.6435649 131.261874,34.5161697 C131.937781,34.0473053 132.318586,33.6935953 133.047947,33.0147432 C132.955912,35.7154261 134.083307,38.749792 135.374746,40.1705219 C139.841328,45.0570791 146.062323,45.8824514 153.931559,46.9781865 C155.616172,47.2083483 157.526088,47.6512956 159.031049,48.3961186 C159.838014,47.855393 160.43882,47.5592603 161.370953,47.156514 C162.039497,46.7941159 162.746328,46.5007811 163.488501,46.2850505 C163.793322,43.305464 161.519682,40.3488495 159.907224,38.9079454 C159.137073,38.2118642 157.942824,37.2541084 155.795825,36.4229932 C156.01671,36.704842 156.950315,38.1457461 157.143221,38.4218519 C157.897174,39.7707207 158.442023,41.0879295 158.602533,42.6267591 C158.609895,43.2852898 158.511234,44.2517338 157.903065,44.7493132 C155.860618,45.4741093 153.258597,45.3963579 151.186699,44.8384034 C150.817085,43.7656403 150.761128,43.2076857 149.887897,41.6229121 C149.418149,40.8492268 149.303289,40.6134693 148.799672,40.0094234 C147.634874,38.5742623 146.069244,37.0872669 143.864962,35.8218925 C143.663663,35.7096831 144.002942,36.2417205 144.026061,36.5005973 C144.609785,38.7151867 145.225317,41.2347441 145.041247,43.5499096 C141.397239,43.3917562 138.745445,40.2769883 137.25845,37.5820485 C136.853053,36.8457664 136.483145,35.6435649 136.404363,34.5850857 C136.335299,33.2937941 136.730536,30.9784814 138.227839,30.0610739 C137.060096,28.5596473 135.32409,27.1820635 133.402835,26.5320736 C129.924491,25.4391364 128.572677,29.7590509 125.754042,30.5412771 C123.622947,31.3408794 120.476519,31.9391823 117.37309,30.6794036 L117.026301,30.4981309 C117.287975,28.79835 117.876412,27.0526251 118.552319,25.5456028 L118.989523,25.0106202 C121.741893,26.8628116 124.899955,24.9961891 127.230729,23.8199048 C132.603233,22.4710359 136.876025,26.5752198 140.245105,29.8884893 C140.621787,30.2077413 140.693795,30.3918118 141.224655,30.9238492 C142.185355,28.9422195 141.329354,26.7506022 140.197836,25.0882244 C139.569198,24.1621287 138.866196,23.2360331 138.063795,22.4451188 C138.339901,22.1316099 138.805821,22.0568036 139.191191,21.9590253 C140.663755,21.6340304 142.64833,22.0827207 143.422015,22.3127353 C146.226219,23.4143606 150.3547,26.4831845 152.248418,28.5942526 C152.771178,26.327829 151.889112,23.520827 150.148541,21.2745775 C152.012808,21.1221671 152.715221,21.0875618 153.747488,21.0012696 C153.452975,19.4655323 152.788849,18.0359669 152.040786,16.4109923 C150.691917,14.0411357 149.128054,11.7344964 147.037307,9.99445555 C146.517787,9.57453912 146.847494,9.86216037 145.939805,9.1143628 C146.062323,10.2360444 146.119753,10.621444 146.024919,11.5101659 C144.247387,9.90242028 137.265371,5.69755724 132.648146,4.44645193 C132.648146,4.44645193 133.554067,6.6179099 133.854323,7.92366207 C130.445042,6.0685698 126.188448,4.71681473 123.476279,4.02079251 C124.13481,5.19136328 125.01776,7.2448983 125.01776,7.2448983 C122.680653,6.36193405 119.843758,5.70331497 117.214936,5.17699105 C117.864926,6.51437391 118.532292,8.34069226 118.710472,9.54866617 C116.556406,9.15463743 113.14521,8.95905144 113.14521,8.95905144 C112.971006,9.72697898 112.83288,10.09512 112.571205,10.9665836 C111.954642,12.5254253 111.592244,13.2128183 110.720781,14.2712239 C109.002004,16.0717135 106.844844,17.3859771 104.525556,18.398365 C103.200837,18.9794388 101.826051,19.459642 100.447878,19.8738744 C98.2758456,20.3570227 95.8978016,20.6907058 93.7091294,20.7223659 C92.7951088,20.7136778 92.5904223,20.6849628 91.6562276,20.5784964 C92.3683596,20.3771968 92.6151614,20.3570227 93.2604391,20.1701543 C96.4236543,19.3303509 99.8438321,18.5422345 103.809448,16.273013 L101.689839,16.0889425 C93.8195717,15.240451 84.3175564,11.7488833 77.3705873,8.77210941 C84.5182669,7.82299758 91.9950646,7.31393212 99.6971647,7.31393212 C103.528777,7.31393212 107.302223,7.44046956 111.014115,7.68494468 C111.069926,7.42896884 111.117637,7.17012149 111.157838,6.9285326 C112.73407,6.9285326 114.824964,7.03206859 116.68982,7.16724999 C116.524745,6.45972705 115.703349,4.76570386 115.129785,3.45419396 C110.105249,3.00553309 104.948329,2.76968719 99.6971647,2.76968719 C46.3760549,2.76968719 3.14703178,26.7994913 3.14703178,56.4405898 C3.14703178,86.0702024 46.3760549,110.105838 99.6971647,110.105838 C153.017096,110.105838 196.239802,86.0702024 196.239802,56.4405898 C196.239802,37.107441 177.854838,20.1672092 150.275182,10.7192369 Z M99.6971647,112.875437 C44.6347477,112.875437 0,87.6060869 0,56.4405898 C0,25.2608089 44.6347477,0 99.6971647,0 C110.628745,0 121.153457,0.998006859 130.997254,2.84159251 L130.870761,2.44469226 C132.843702,2.63739202 135.052549,3.30176884 137.129159,4.11569927 C139.689948,4.70242777 142.195074,5.34954613 144.647188,6.05132608 L144.602422,5.83273864 C144.805342,5.95353309 145.001046,6.08008526 145.193657,6.2066227 C177.373309,15.5654459 199.386672,34.5419396 199.386672,56.4405898 C199.386672,87.6060869 154.750304,112.875437 99.6971647,112.875437 Z" id="path14" fill="#26221F"></path>
                        <path d="M7.74764646,56.4405898 C7.74764646,37.7344589 27.3051699,21.4786749 56.088647,13.1783014 C60.9560608,14.4092768 65.5855083,15.9048719 65.1627351,15.9969072 C61.2368788,16.9085717 54.9537417,18.5163174 52.6200219,19.6437126 C54.725347,19.744436 67.256427,21.0386727 70.8671545,22.2438193 C66.556959,23.1410527 50.4186856,28.6546277 43.8006873,32.3562125 C46.7084127,32.2554891 59.934543,31.3725396 64.6639776,32.3619555 L62.6473009,32.9573132 C55.0709578,34.8237884 23.0398875,48.7873789 7.98980966,60.0040481 C7.8310525,58.8249659 7.74764646,57.6370483 7.74764646,56.4405898" id="path16" fill="#26221F"></path>
                        <path d="M62.6473009,32.9573132 L64.6639776,32.3619555 C59.934543,31.3725396 46.7084127,32.2554891 43.8006873,32.3562125 C50.4186856,28.6546277 66.556959,23.1410527 70.8671545,22.2438193 C67.256427,21.0386727 54.725347,19.744436 52.6200219,19.6437126 C54.9537417,18.5163174 61.2368788,16.9085717 65.1627351,15.9969072 C65.5855083,15.9048719 60.9560608,14.4092768 56.088647,13.1783014 C27.3051699,21.4786749 7.74764646,37.7344589 7.74764646,56.4405898 C7.74764646,57.6370483 7.8310525,58.8249659 7.98980966,60.0040481 C23.0398875,48.7873789 55.0709578,34.8237884 62.6473009,32.9573132 Z M99.6971647,110.105838 C46.3760549,110.105838 3.14703178,86.0702024 3.14703178,56.4405898 C3.14703178,26.7994913 46.3760549,2.76968719 99.6971647,2.76968719 C104.948329,2.76968719 110.105249,3.00553309 115.129785,3.45419396 C115.703349,4.76570386 116.524745,6.45972705 116.68982,7.16724999 C114.824964,7.03206859 112.73407,6.9285326 111.157838,6.9285326 C111.117637,7.17012149 111.069926,7.42896884 111.014115,7.68494468 C107.302223,7.44046956 103.528777,7.31393212 99.6971647,7.31393212 C91.9950646,7.31393212 84.5182669,7.82299758 77.3705873,8.77210941 C77.3666114,8.77210941 77.3608684,8.76923791 77.3567452,8.76923791 C70.7452262,9.63494371 63.6135975,11.107508 60.0133252,12.0997659 C59.9321869,12.1227674 59.8442748,12.1428973 59.7665234,12.1659135 L62.8410903,13.1783014 C64.5426383,13.6356063 66.6317652,14.4552944 68.1981318,15.1167556 C68.4109174,15.2202768 68.5207706,15.2778541 68.5363798,15.2721111 L70.4875275,16.1320886 C66.6616583,17.1761367 65.2759753,18.2085515 65.2759753,18.2085515 C73.444142,19.7760961 77.4424484,22.5486401 77.4424484,22.5486401 C67.3583284,25.3298722 59.3656914,29.3218466 59.3656914,29.3218466 C65.6245313,30.184622 72.0596371,32.1116196 72.0596371,32.1116196 C57.8102218,36.4546533 43.3785032,43.5613956 43.3785032,43.5613956 C48.7636706,41.8184686 60.4067944,40.2568142 60.4067944,40.2568142 C57.7987358,42.6871342 56.7621979,44.5969028 56.7621979,44.5969028 C65.7965268,38.8618541 88.4908035,33.4232325 88.4908035,33.4232325 C83.0733868,38.3585316 74.6520864,52.8252973 73.2893755,55.1952422 C76.4064995,49.911829 84.7322305,44.2517338 84.7322305,44.2517338 C84.218011,48.2409103 84.9129141,49.8083077 84.9129141,49.8083077 C92.868737,29.7072167 104.913871,23.1410527 104.913871,23.1410527 C103.695618,26.4428362 101.249689,39.3881486 101.249689,39.3881486 C102.466322,36.7853912 104.551473,35.3991193 104.551473,35.3991193 C103.162403,38.5253732 103.162403,44.2517338 103.162403,44.2517338 C106.466984,37.6539096 112.716694,34.1852845 112.716694,34.1852845 C112.601687,34.3521261 112.360039,34.69435 112.348553,34.7117263 C105.457394,45.4683663 103.013968,54.9537417 102.126896,60.0156813 C101.810589,61.8045524 101.690869,63.0471021 101.639182,63.5906255 C93.8213388,47.3751898 101.239381,32.0512444 101.837537,28.746663 C96.627899,32.2554891 91.1119678,45.9744867 90.3182557,48.7757456 C87.3080399,59.1844188 89.5089344,71.8019383 90.3182557,74.9109632 L90.0156437,75.204298 C83.896992,67.6948094 84.9992064,60.5879198 85.1027276,58.5920062 C81.1883573,63.8926485 80.686802,78.2127468 80.686802,79.6134499 C71.4700223,85.1181896 70.0601893,96.6657439 70.0601893,96.6657439 C66.6364774,96.4616465 59.2477391,95.1242636 57.562242,94.7157743 C58.6143892,87.4105303 64.4246859,74.1631951 64.6455706,73.6598726 L64.5695863,73.2887864 C63.9098775,73.5102601 56.9646754,79.1358973 56.9646754,79.1358973 C60.616193,68.7618294 65.813314,60.2112378 65.813314,60.2112378 C70.6433248,51.0047662 80.8817695,39.16962 81.5398584,38.4390809 L82.3715627,37.5274164 C75.4918898,39.3536906 59.30458,49.1066308 57.6946255,50.1275596 C36.9274937,63.3289509 32.0185535,72.1930514 31.1360458,73.2887864 L30.9186953,73.2887864 C33.7678126,59.1844188 44.308722,48.5946202 44.744601,48.1516729 L44.8930355,47.7892749 C32.8037248,53.6737889 17.5919888,65.9346533 11.768439,70.8441825 C23.2936103,90.9423284 58.2980824,105.558707 99.6971647,105.558707 C100.759031,105.558707 101.81913,105.544276 102.874664,105.527047 C103.211292,106.010195 103.625377,106.510719 104.15285,107.011097 C105.819792,108.590127 107.355677,109.890107 114.068508,107.011097 C115.661823,106.332392 117.718259,105.386122 119.817841,104.376679 C160.918876,99.4728931 191.639511,79.8751246 191.639511,56.4405898 C191.639511,40.1129447 176.734216,25.651922 153.807863,16.7187582 C153.071581,14.8780529 151.964213,12.7670142 150.275182,10.7192369 C177.854838,20.1672092 196.239802,37.107441 196.239802,56.4405898 C196.239802,86.0702024 153.017096,110.105838 99.6971647,110.105838 Z" id="path18" fill="#C08E1B"></path>
                        <path d="M156.82662,70.2717968 L157.287533,70.1653304 C157.486329,70.007177 157.732247,69.7857033 157.825019,69.6736412 C158.743899,70.1797615 159.250461,71.1719753 159.250461,71.1719753 L164.782885,71.3014137 C164.782885,71.3014137 165.60163,69.8892246 165.772448,69.6131188 C165.893198,69.7714195 166.062543,69.9295729 166.152369,70.0445801 C166.95639,70.8901265 167.878215,71.1260313 168.249301,71.3014137 C167.822257,72.1326762 166.863618,73.2571263 164.457448,75.0576306 C163.962666,75.4200287 163.498809,75.7537117 163.12036,76.0268724 C162.565203,76.4151876 161.961452,76.8264748 161.285545,77.27222 C161.340029,77.249248 161.397459,77.2290739 161.454889,77.2088997 C161.425438,77.2290739 161.397459,77.2405599 161.379789,77.2520459 C161.544716,77.1485246 156.362762,78.9375429 155.159677,79.2107036 C154.206928,79.4264342 151.647612,80.1943765 151.113071,80.4675371 C146.942327,82.5728623 147.4832,84.543006 147.4832,84.543006 C147.4832,84.543006 150.132343,84.9313212 151.360462,83.6255984 C151.626996,83.3494926 152.277869,81.9143315 152.277869,81.9143315 L152.967029,81.7243707 C153.215893,83.867099 152.959666,84.8220569 152.734364,85.6503743 C152.299958,87.2609178 145.143001,91.7591598 143.680892,92.829125 C140.284128,95.2909579 137.25683,96.4327842 135.25105,96.8355306 C130.137277,97.8564593 115.607191,99.9043545 110.79544,100.168827 C105.983836,100.436392 103.442485,100.301211 101.975663,100.036591 C101.830763,100.010674 101.675407,99.9847565 101.525795,99.9589866 C98.3425528,99.4038299 94.0036422,98.4029279 92.2159492,97.8968076 C94.4321584,97.7673692 98.1440511,98.0175579 101.537281,98.3425528 C105.097941,98.6790337 108.304744,99.0960639 109.055458,99.2341905 L118.145155,96.02724 C118.960808,95.7396482 121.08616,96.6946062 121.08616,96.6946062 C122.486864,96.1451924 127.83934,93.510775 129.748961,92.5530192 C130.148763,92.3545175 130.617627,92.4522958 130.910962,92.6161922 C131.668596,93.0332224 131.860029,93.1367437 132.722952,93.6689284 C134.063133,92.9987644 142.128956,87.3184951 142.128956,87.3184951 L141.268979,87.0855354 C132.584826,89.6221746 126.165329,91.2558374 124.560528,91.3910188 L124.074435,91.836764 L126.429949,92.1560159 C121.353725,93.2259811 111.597987,94.1578197 109.722677,94.1578197 L109.069889,94.6553992 C110.519334,94.971706 114.801845,95.0954014 114.801845,95.0954014 C112.400387,95.7655654 108.123619,96.1596236 104.246652,96.1596236 C103.372243,96.1596236 102.472065,96.1711096 101.551712,96.1912837 C93.6050191,96.3781521 84.3266863,97.3129359 80.8576194,98.0347869 C77.9336958,98.6358876 77.3775083,98.6962627 76.9650431,98.7912431 C76.5048668,98.9005074 76.2443701,98.9695707 75.5742061,99.1421552 C73.6436744,99.1880992 73.4107148,98.1614274 73.4090949,98.07219 C73.134609,95.8201975 76.4306495,92.829125 79.4056711,91.2530395 C83.9660553,88.5005224 90.0749881,87.0251603 91.5711134,86.6972202 C92.9849223,86.4066833 94.1837369,86.314648 95.2887491,86.2083289 C97.6159896,85.9811122 99.9520655,85.3396632 101.666719,84.8220569 C102.612989,84.537263 103.372243,84.2898722 103.833598,84.1691219 C103.521856,84.4539158 102.354112,85.8631598 101.643747,86.7288803 C101.315807,87.1314794 101.082848,87.4162733 101.082848,87.4162733 C101.082848,87.4162733 101.094481,87.4105303 101.105967,87.4105303 C99.818504,89.052734 99.7927341,90.07381 99.7927341,90.07381 C106.564763,87.4709055 115.325342,87.2955231 115.325342,87.2955231 C121.75927,86.9474089 126.79809,83.9994825 126.79809,83.9994825 C129.32339,82.4117637 133.718111,80.412905 135.656595,79.5558726 C135.5731,79.5903306 136.182889,79.357371 137.537501,79.1158704 C137.537501,79.1244113 137.540446,79.1301543 137.540446,79.1301543 C138.285269,79.0755222 138.909342,78.9231118 139.461553,78.8540485 C139.579506,78.8425625 139.700403,78.8282786 139.833818,78.8138475 C143.115427,78.629777 144.233103,77.6375632 144.233103,77.6375632 L142.786456,76.538883 C147.162034,76.8581349 149.737696,75.3222504 149.737696,75.3222504 L148.176778,74.1056178 C151.989246,74.2148821 155.065433,71.9543487 156.82662,70.2717968" id="path20" fill="#C08E1B"></path>
                        <path d="M101.082848,87.4162733 C101.082848,87.4162733 101.315807,87.1314794 101.643747,86.7288803 C101.64198,86.8812907 101.640802,87.0366463 101.639182,87.1861115 C101.791593,87.1286815 101.946948,87.0683064 102.060778,87.0279581 L102.060778,87.0251603 C102.063723,87.0251603 102.073442,87.013527 102.080952,87.007784 C102.075209,87.013527 102.069466,87.0164721 102.066521,87.0222151 C102.14707,86.9935001 102.207445,86.9703809 102.218931,86.9646379 C104.493895,86.2888781 106.97605,85.95225 109.282674,85.2563161 C113.499068,84.0137664 118.532292,85.564082 122.547239,83.9332171 C126.3494,82.3197285 130.436354,80.7551289 134.577941,79.6421649 C134.934596,79.5990188 135.295227,79.5817898 135.656595,79.5558726 C133.718111,80.412905 129.32339,82.4117637 126.79809,83.9994825 C126.79809,83.9994825 121.75927,86.9474089 115.325342,87.2955231 C115.325342,87.2955231 106.564763,87.4709055 99.7927341,90.07381 C99.7927341,90.07381 99.818504,89.052734 101.105967,87.4105303 C101.094481,87.4105303 101.082848,87.4162733 101.082848,87.4162733" id="path22" fill="#FFFFFF"></path>
                        <path d="M110.804128,103.784119 L123.09945,101.210077 L123.148339,101.212875 L122.886665,101.583961 C121.034473,101.908956 113.942015,104.445595 112.060961,105.107218 C109.789973,105.895188 108.437128,106.070717 107.588636,105.903876 C105.76516,105.47536 105.457394,102.305812 105.34813,100.994347 C105.491999,100.997144 105.629979,100.994347 105.76516,100.994347 C105.76516,100.994347 105.937745,104.828168 110.804128,103.784119" id="path24" fill="#FFFFFF"></path>
                        <path d="M161.370953,47.156514 C160.43882,47.5592603 159.838014,47.855393 159.031049,48.3961186 C157.526088,47.6512956 155.616172,47.2083483 153.931559,46.9781865 C146.062323,45.8824514 139.841328,45.0570791 135.374746,40.1705219 C134.083307,38.749792 132.955912,35.7154261 133.047947,33.0147432 C132.318586,33.6935953 131.937781,34.0473053 131.261874,34.5161697 C129.467113,35.6435649 127.428053,36.7537311 125.102432,36.4574512 C126.038836,35.7672603 126.872896,34.7778444 126.959188,34.1939727 C126.104954,34.688607 125.325526,34.9474838 124.27117,35.364514 C121.532053,36.2072625 118.178435,35.3559731 116.038652,33.8862067 C116.038652,33.8862067 114.937027,39.3594336 117.62048,44.0647181 C120.114121,48.4307238 125.394589,49.7766476 130.260972,49.6933004 C133.482206,49.5379449 136.270359,48.6205374 138.568296,47.8899983 C140.347448,47.3118695 141.545085,47.104827 142.846831,46.9035275 C147.567136,46.5727895 152.918435,47.7087256 155.047762,49.1008878 C158.651127,51.4591995 161.394514,54.795441 161.23695,59.3455173 C161.454889,62.3021318 159.773221,64.7496809 157.614442,65.9259652 C156.48204,66.3429954 155.359946,66.7140816 154.134773,66.9211241 C152.840389,69.7627313 151.314812,69.984205 151.314812,69.984205 L151.333955,70.5077016 C151.333955,70.5077016 153.148155,70.4960683 154.016967,70.4960683 C155.118446,70.4702985 155.845892,70.4443813 156.82662,70.2717968 C155.065433,71.9543487 151.989246,74.2148821 148.176778,74.1056178 L149.737696,75.3222504 C149.737696,75.3222504 147.162034,76.8581349 142.786456,76.538883 L144.233103,77.6375632 C144.233103,77.6375632 143.115427,78.629777 139.833818,78.8138475 C139.700403,78.8282786 139.579506,78.8425625 139.461553,78.8540485 C138.909342,78.9231118 138.285269,79.0755222 137.540446,79.1301543 C137.540446,79.1301543 137.537501,79.1244113 137.537501,79.1158704 C137.25845,78.6210888 136.761018,78.2270306 136.378446,77.7870284 C136.119569,77.5598118 135.985565,77.5598118 135.524211,77.5483258 C133.467775,77.5224086 130.397331,77.260734 128.687684,77.4418594 C129.410861,78.3190659 129.619523,78.9518268 129.619523,78.9518268 L127.074196,79.6651369 C127.074196,79.6651369 125.182981,77.4966388 122.698029,77.1284977 C122.035375,77.277963 121.744838,77.6807093 121.422641,78.2529478 C121.181141,78.6786661 120.994125,79.3027388 120.994125,79.3027388 C121.426765,79.6449628 122.74574,80.3525299 122.964269,80.7149279 L120.384484,81.0456659 C120.223385,82.0004765 120.298191,82.2939586 120.298191,82.2939586 C119.553221,82.5239731 119.084504,82.6534115 118.30213,82.8519132 C118.30213,82.8519132 118.210095,82.6937598 118.168127,82.4722861 C118.126748,82.2565555 117.912195,80.6315808 118.834168,77.907926 C117.985824,78.0114472 116.752993,78.3479282 115.935131,78.7016381 C114.036848,79.368857 112.434845,80.3266128 110.674689,81.106041 C109.377655,81.4397241 106.886812,82.2248953 106.886812,82.2248953 C106.886812,82.2248953 106.77475,82.3456456 106.50262,82.1472912 C107.850311,80.2834666 109.544349,78.5290536 111.203929,76.7429804 C115.785518,74.9483663 120.649103,73.9302354 125.734015,73.7202478 C131.845746,73.0184236 138.10812,73.0874869 144.046088,71.2697536 C142.412425,70.5708746 141.680266,70.2430818 140.252615,69.1012555 C132.812042,69.0207062 124.295909,68.8825797 116.825001,67.6890664 C114.082939,67.2835222 111.480035,66.4926079 111.44381,66.4235446 C122.337251,66.2653912 133.464977,65.1868852 144.055954,63.5963685 C144.055954,63.5963685 149.25764,62.5782376 151.601962,61.9138166 L151.49152,61.675114 C145.225317,62.2388116 138.909342,62.8341693 132.680984,62.69619 C127.951402,62.6443558 123.014336,62.5121195 118.586924,61.8074975 L118.624327,61.7384342 C127.692673,61.0338122 136.712129,59.6043941 145.1994,57.3840617 C147.350669,56.6592656 149.643452,56.11854 151.72124,55.1809584 C151.626996,55.0831801 151.473849,54.9537417 151.370769,54.8472753 C145.156254,56.7540988 138.265095,56.9094543 131.677137,57.2488803 C129.004138,57.2257611 126.389748,57.4501799 123.763871,56.9755724 C123.763871,56.9755724 139.268942,54.0880212 145.711411,50.6223412 C145.651035,50.5331038 145.593458,50.4582976 145.507166,50.3806934 C142.945788,51.1601217 140.693795,51.5138316 137.793433,52.1321613 C130.617627,53.705449 120.821541,53.4437743 116.121999,47.2083483 C114.7157,45.2957818 112.22206,41.1167917 112.716694,34.1852845 C112.716694,34.1852845 106.466984,37.6539096 103.162403,44.2517338 C103.162403,44.2517338 103.162403,38.5253732 104.551473,35.3991193 C104.551473,35.3991193 102.466322,36.7853912 101.249689,39.3881486 C101.249689,39.3881486 103.695618,26.4428362 104.913871,23.1410527 C104.913871,23.1410527 92.868737,29.7072167 84.9129141,49.8083077 C84.9129141,49.8083077 84.218011,48.2409103 84.7322305,44.2517338 C84.7322305,44.2517338 76.4064995,49.911829 73.2893755,55.1952422 C74.6520864,52.8252973 83.0733868,38.3585316 88.4908035,33.4232325 C88.4908035,33.4232325 65.7965268,38.8618541 56.7621979,44.5969028 C56.7621979,44.5969028 57.7987358,42.6871342 60.4067944,40.2568142 C60.4067944,40.2568142 48.7636706,41.8184686 43.3785032,43.5613956 C43.3785032,43.5613956 57.8102218,36.4546533 72.0596371,32.1116196 C72.0596371,32.1116196 65.6245313,30.184622 59.3656914,29.3218466 C59.3656914,29.3218466 67.3583284,25.3298722 77.4424484,22.5486401 C77.4424484,22.5486401 73.444142,19.7760961 65.2759753,18.2085515 C65.2759753,18.2085515 66.6616583,17.1761367 70.4875275,16.1320886 L68.5363798,15.2721111 C68.5207706,15.2778541 68.4109174,15.2202768 68.1981318,15.1167556 C66.6317652,14.4552944 64.5426383,13.6356063 62.8410903,13.1783014 L59.7665234,12.1659135 C59.8442748,12.1428973 59.9321869,12.1227674 60.0133252,12.0997659 C63.6135975,11.107508 70.7452262,9.63494371 77.3567452,8.76923791 C77.3608684,8.76923791 77.3666114,8.77210941 77.3705873,8.77210941 C84.3175564,11.7488833 93.8195717,15.240451 101.689839,16.0889425 L103.809448,16.273013 C99.8438321,18.5422345 96.4236543,19.3303509 93.2604391,20.1701543 C92.6151614,20.3570227 92.3683596,20.3771968 91.6562276,20.5784964 C92.5904223,20.6849628 92.7951088,20.7136778 93.7091294,20.7223659 C95.8978016,20.6907058 98.2758456,20.3570227 100.447878,19.8738744 C101.826051,19.459642 103.200837,18.9794388 104.525556,18.398365 C106.844844,17.3859771 109.002004,16.0717135 110.720781,14.2712239 C111.592244,13.2128183 111.954642,12.5254253 112.571205,10.9665836 C112.83288,10.09512 112.971006,9.72697898 113.14521,8.95905144 C113.14521,8.95905144 116.556406,9.15463743 118.710472,9.54866617 C118.532292,8.34069226 117.864926,6.51437391 117.214936,5.17699105 C119.843758,5.70331497 122.680653,6.36193405 125.01776,7.2448983 C125.01776,7.2448983 124.13481,5.19136328 123.476279,4.02079251 C126.188448,4.71681473 130.445042,6.0685698 133.854323,7.92366207 C133.554067,6.6179099 132.648146,4.44645193 132.648146,4.44645193 C137.265371,5.69755724 144.247387,9.90242028 146.024919,11.5101659 C146.119753,10.621444 146.062323,10.2360444 145.939805,9.1143628 C146.847494,9.86216037 146.517787,9.57453912 147.037307,9.99445555 C149.128054,11.7344964 150.691917,14.0411357 152.040786,16.4109923 C152.788849,18.0359669 153.452975,19.4655323 153.747488,21.0012696 C152.715221,21.0875618 152.012808,21.1221671 150.148541,21.2745775 C151.889112,23.520827 152.771178,26.327829 152.248418,28.5942526 C150.3547,26.4831845 146.226219,23.4143606 143.422015,22.3127353 C142.64833,22.0827207 140.663755,21.6340304 139.191191,21.9590253 C138.805821,22.0568036 138.339901,22.1316099 138.063795,22.4451188 C138.866196,23.2360331 139.569198,24.1621287 140.197836,25.0882244 C141.329354,26.7506022 142.185355,28.9422195 141.224655,30.9238492 C140.693795,30.3918118 140.621787,30.2077413 140.245105,29.8884893 C136.876025,26.5752198 132.603233,22.4710359 127.230729,23.8199048 C124.899955,24.9961891 121.741893,26.8628116 118.989523,25.0106202 L118.552319,25.5456028 C117.876412,27.0526251 117.287975,28.79835 117.026301,30.4981309 L117.37309,30.6794036 C120.476519,31.9391823 123.622947,31.3408794 125.754042,30.5412771 C128.572677,29.7590509 129.924491,25.4391364 133.402835,26.5320736 C135.32409,27.1820635 137.060096,28.5596473 138.227839,30.0610739 C136.730536,30.9784814 136.335299,33.2937941 136.404363,34.5850857 C136.483145,35.6435649 136.853053,36.8457664 137.25845,37.5820485 C138.745445,40.2769883 141.397239,43.3917562 145.041247,43.5499096 C145.225317,41.2347441 144.609785,38.7151867 144.026061,36.5005973 C144.002942,36.2417205 143.663663,35.7096831 143.864962,35.8218925 C146.069244,37.0872669 147.634874,38.5742623 148.799672,40.0094234 C149.303289,40.6134693 149.418149,40.8492268 149.887897,41.6229121 C150.761128,43.2076857 150.817085,43.7656403 151.186699,44.8384034 C153.258597,45.3963579 155.860618,45.4741093 157.903065,44.7493132 C158.511234,44.2517338 158.609895,43.2852898 158.602533,42.6267591 C158.442023,41.0879295 157.897174,39.7707207 157.143221,38.4218519 C156.950315,38.1457461 156.01671,36.704842 155.795825,36.4229932 C157.942824,37.2541084 159.137073,38.2118642 159.907224,38.9079454 C161.519682,40.3488495 163.793322,43.305464 163.488501,46.2850505 C162.746328,46.5007811 162.039497,46.7941159 161.370953,47.156514" id="path26" fill="#FFFFFF"></path>
                        <path d="M166.719307,61.634913 L166.488114,62.0921442 C166.488114,62.0921442 170.302055,63.5273053 171.403534,64.4102548 C171.322543,65.8339299 171.075152,67.240376 170.868993,68.7618294 C170.540611,70.9936478 169.932442,72.4115799 169.268315,73.0558268 C167.075667,74.9368803 164.242454,76.1275958 161.454889,77.2088997 C161.397459,77.2290739 161.340029,77.249248 161.285545,77.27222 C161.961452,76.8264748 162.565203,76.4151876 163.12036,76.0268724 C163.498809,75.7537117 163.962666,75.4200287 164.457448,75.0576306 C166.863618,73.2571263 167.822257,72.1326762 168.249301,71.3014137 C168.514362,71.404935 169.113696,71.5976936 169.113696,71.5976936 C169.113696,71.5976936 169.346361,71.2928728 169.393483,70.9390157 C169.399374,70.8758427 168.006328,69.2249509 167.411412,67.2318352 C166.6177,66.7313106 164.15999,65.2415173 163.057039,62.8284263 C162.398803,60.9791801 161.795052,54.5567384 162.021827,51.8445695 C162.067476,50.216797 163.002555,47.3779877 165.14219,46.5496703 C166.367364,47.4153908 167.112481,48.2638823 167.652912,49.0203386 C168.015163,49.5379449 168.362688,49.9694062 168.670454,50.8495579 C168.078483,50.8955019 166.33644,50.9645651 165.355712,51.0968014 C165.273249,51.2406709 165.24527,51.3182751 165.114212,51.5541799 C165.7106,51.6058669 166.038982,51.6634441 166.523456,51.7238193 C167.776608,51.8992017 168.33471,52.0775292 169.222666,52.4860185 C169.579026,52.983598 170.325617,54.766726 170.437531,56.1789152 L166.706054,56.1674292 L166.439519,56.7742729 C166.439519,56.7742729 169.493618,57.3811166 170.745297,57.7809178 C170.939676,59.1125577 171.300454,60.7547613 171.219463,62.1726934 C169.875012,61.8074975 166.719307,61.634913 166.719307,61.634913" id="path28" fill="#FFFFFF"></path>
                        <path d="M77.5679109,89.5043694 C80.9629078,86.9703809 85.8827449,84.9887512 94.4315694,83.2689434 C94.4315694,83.2689434 91.7516497,86.4240595 91.5711134,86.6972202 C90.0749881,87.0251603 83.9660553,88.5005224 79.4056711,91.2530395 C76.4306495,92.829125 73.134609,95.8201975 73.4090949,98.07219 C73.4107148,98.1614274 73.6436744,99.1880992 75.5742061,99.1421552 C75.1554089,99.2456765 73.2135384,99.7230818 72.3029047,98.9091955 C71.5689786,98.2275455 71.8134243,96.726119 72.3978851,95.5326057 C72.6797339,94.971706 74.178657,92.0467516 77.5679109,89.5043694" id="path30" fill="#FFFFFF"></path>
                        <path d="M178.558723,13.6298485 L176.934485,13.6298485 L176.934485,9.4249855 L176.180532,9.4249855 L176.180532,13.6298485 L174.556294,13.6298485 L174.556294,14.3816662 L178.558723,14.3816662 L178.558723,13.6298485 Z M184.825957,9.4249855 L184.072004,9.4249855 L184.072004,13.6298485 L184.049915,13.6298485 L182.352049,9.4249855 L181.892609,9.4249855 L180.244809,13.6298485 L180.221248,13.6298485 L180.221248,9.4249855 L179.468768,9.4249855 L179.468768,14.3816662 L180.702777,14.3816662 L182.128219,10.8831775 L183.600783,14.3816662 L184.825957,14.3816662 L184.825957,9.4249855 Z" id="path32" fill="#C08E1B"></path>
                    </g>
                </g>
            </g>
        </g>
    </g>
</svg>