<svg width="200" height="200" xmlns="http://www.w3.org/2000/svg" xmlns:xlink="http://www.w3.org/1999/xlink"><defs><path id="a" d="M.088.512H199.12v112.635H.09z"/></defs><g fill="none" fill-rule="evenodd"><g transform="translate(0 43)"><mask id="b" fill="#fff"><use xlink:href="#a"/></mask><path d="m122.982 12.159-.048.003-12.278-2.572c-4.86-1.043-5.032 2.786-5.032 2.786-.136 0-.274-.002-.418 0 .11-1.31.418-4.475 2.238-4.902.847-.167 2.199.008 4.466.795 1.88.66 8.962 3.194 10.812 3.52l.26.37Zm27.092 90.372a22.59 22.59 0 0 0 3.527-5.991c22.896-8.922 37.781-23.364 37.781-39.67 0-23.402-30.68-42.974-71.725-47.871-2.097-1.008-4.151-1.953-5.742-2.631-6.703-2.875-8.237-1.577-9.902 0-.526.5-.94 1-1.276 1.482a189.624 189.624 0 0 0-3.174-.032c-41.344 0-76.301 14.597-87.81 34.669 5.815 4.903 21.006 17.147 33.08 23.023l-.148-.361c-.436-.443-10.963-11.018-13.807-25.105h.216c.881 1.096 5.784 9.947 26.524 23.131 1.607 1.02 17.773 10.759 24.642 12.584l-.83-.91c-.656-.731-10.881-12.55-15.705-21.745 0 0-5.19-8.538-8.837-18.898 0 0 6.936 5.618 7.596 5.838l.075-.369c-.22-.503-6.024-13.732-7.074-21.028 1.683-.409 9.062-1.744 12.481-1.948 0 0 1.408 11.532 10.613 17.03 0 1.399.5 15.699 4.41 20.993-.104-1.994-1.204-9.091 4.905-16.59l.303.293c-.809 3.104-3.006 15.706 0 26.1.793 2.797 6.302 16.499 11.504 20.003-.597-3.302-8.005-18.604-.198-34.799.051.545.17 1.784.487 3.571.886 5.056 3.326 14.528 10.207 25.27l.368.526c-.493-6.922 1.997-11.096 3.401-13.006 4.693-6.227 14.477-6.489 21.643-4.916 2.897.617 5.145.97 7.703 1.748.087-.078.144-.151.204-.241-6.434-3.46-21.919-6.344-21.919-6.344 2.624-.475 5.234-.25 7.903-.274 6.58.34 13.462.494 19.668 2.399.103-.106.256-.236.35-.334-2.075-.935-4.365-1.477-6.514-2.2-8.476-2.218-17.483-3.644-26.54-4.349l-.036-.069c4.422-.703 9.351-.835 14.075-.886 6.22-.139 12.528.455 18.785 1.019l.11-.239c-2.34-.663-7.535-1.679-7.535-1.679-10.578-1.59-21.69-2.666-32.569-2.824.037-.069 2.635-.858 5.375-1.264 7.46-1.191 15.965-1.33 23.396-1.41 1.425-1.14 2.156-1.468 3.788-2.165-5.93-1.816-12.184-1.747-18.288-2.447-5.078-.21-9.936-1.227-14.51-3.02-1.658-1.783-3.35-3.536-4.695-5.396.27-.199.383-.078.383-.078s2.488.783 3.783 1.117c1.758.778 3.358 1.736 5.253 2.402.818.353 2.049.688 2.896.792-.92-2.72-.707-4.342-.665-4.558.041-.221.133-.38.133-.38a35.7 35.7 0 0 1 1.994.557s-.075.293.087 1.248l2.575.329c-.218.363-1.534 1.07-1.968 1.412 0 0 .188.622.428 1.047.322.572.613.973 1.275 1.123 2.48-.367 4.369-2.534 4.369-2.534l2.543.714s-.21.63-.931 1.507c1.707.18 4.773-.08 6.828-.106.46-.012.594-.012.853-.238.382-.44.878-.834 1.157-1.328-1.353-.241-1.962-.474-1.878-.438-.362-.027-.722-.044-1.078-.087-4.135-1.112-8.218-2.674-12.015-4.285-4.008-1.628-9.035-.081-13.247-1.32-2.303-.696-4.782-1.033-7.054-1.708a2.578 2.578 0 0 0-.152-.058c.003.006.01.01.015.015-.007-.006-.018-.018-.02-.018v-.002c-.114-.04-.268-.1-.421-.158l.004.458c.71.863 1.875 2.27 2.187 2.555-.46-.12-1.219-.367-2.165-.653-1.711-.516-4.044-1.157-6.367-1.383-1.105-.106-2.302-.199-3.713-.489.18.274 2.855 3.424 2.855 3.424-8.536-1.718-13.45-3.697-16.84-6.227-3.385-2.54-4.882-5.46-5.163-6.02-.583-1.193-.827-2.691-.095-3.372.909-.813 2.848-.337 3.266-.233.67.173.93.242 1.39.35.412.096.967.156 3.887.756 3.464.72 12.73 1.655 20.666 1.842.919.019 1.819.03 2.692.03 3.87 0 8.143.395 10.54 1.064 0 0-4.276.123-5.723.44l.651.496c1.874 0 11.616.93 16.685 1.999l-2.353.32.486.445c1.603.133 8.014 1.766 16.686 4.298l.86-.232s-8.057-5.672-9.395-6.341c-.862.53-1.051.633-1.809 1.05-.292.164-.761.261-1.16.063-1.907-.956-7.253-3.587-8.651-4.135 0 0-2.123.953-2.937.666l-9.078-3.203c-.75.138-3.952.554-7.508.891-3.39.325-7.095.574-9.308.446 1.785-.506 6.117-1.506 9.297-2.06.148-.026.304-.052.45-.079 1.464-.263 4.001-.398 8.807-.13 4.804.263 19.315 2.308 24.422 3.327 2.005.403 5.027 1.543 8.42 4.002 1.46 1.068 8.607 5.56 9.04 7.169.225.826.481 1.78.233 3.92l-.688-.19s-.65-1.433-.917-1.708c-1.226-1.304-3.872-.916-3.872-.916s-.54 1.968 3.625 4.069c.534.274 3.09 1.041 4.041 1.256 1.202.273 6.377 2.059 6.212 1.956.018.012.046.023.075.042 2.784 1.081 5.613 2.27 7.803 4.149.663.643 1.27 2.059 1.599 4.288.206 1.52.453 2.924.534 4.346-1.1.88-4.91 2.314-4.91 2.314l.232.458s3.151-.174 4.494-.538c.08 1.416-.28 3.055-.474 4.386-1.25.399-4.3 1.005-4.3 1.005l.266.606 3.727-.01c-.112 1.41-.858 3.19-1.213 3.686-.887.409-1.445.587-2.696.762-.484.06-.812.118-1.407.169.13.235.158.313.24.457.98.133 2.72.202 3.311.247-.307.878-.654 1.31-1.016 1.827-.54.756-1.284 1.603-2.507 2.468-2.137-.828-3.071-3.664-3.117-5.289-.226-2.709.377-9.122 1.034-10.969 1.102-2.41 3.556-3.897 4.349-4.397.594-1.991 1.985-3.64 1.98-3.703-.048-.353-.28-.657-.28-.657s-.599.192-.863.295c-.371.175-1.292.41-2.095 1.256-.09.115-.258.272-.379.431-.17-.276-.988-1.687-.988-1.687l-5.525.13s-.506.991-1.424 1.497a4.484 4.484 0 0 0-.537-.491l-.46-.108c-.98-.172-1.706-.197-2.806-.223-.867 0-2.68-.012-2.68-.012l-.018.524s1.523.22 2.816 3.058c1.223.206 2.344.577 3.475.993 2.156 1.175 3.835 3.62 3.618 6.572.157 4.544-2.583 7.877-6.181 10.231-2.127 1.391-7.47 2.525-12.186 2.194-1.298-.2-2.495-.407-4.272-.984-2.294-.73-5.08-1.647-8.295-1.801-4.86-.084-10.134 1.26-12.625 5.62-2.68 4.7-1.58 10.165-1.58 10.165 2.137-1.468 5.487-2.318 8.222-1.476 1.053.417 1.831.675 2.684 1.169-.085-.583-.919-1.57-1.853-2.26 2.322-.296 4.358.813 6.15 1.938.675.469 1.056.822 1.784 1.5-.091-2.697 1.034-5.727 2.324-7.146 4.46-4.88 10.673-5.704 18.532-6.798 1.682-.231 3.59-.672 5.093-1.417.806.54 1.406.836 2.336 1.239.668.361 1.374.654 2.115.869.305 2.976-1.966 5.93-3.576 7.367-.77.696-1.962 1.652-4.106 2.483.22-.283 1.153-1.72 1.345-1.997.753-1.347 1.297-2.662 1.458-4.199.007-.659-.091-1.623-.699-2.12-2.04-.724-4.638-.646-6.707-.089-.37 1.07-.425 1.628-1.297 3.21-.47.774-.584 1.01-1.087 1.612a17.434 17.434 0 0 1-4.928 4.183c-.201.112.137-.42.16-.678.584-2.212 1.199-4.728 1.015-7.04-3.64.157-6.288 3.268-7.773 5.96-.405.736-.774 1.936-.853 2.993-.068 1.29.326 3.602 1.822 4.518-1.167 1.498-2.9 2.875-4.82 3.523-3.473 1.093-4.823-3.222-7.638-4.003-2.128-.798-5.27-1.395-8.37-.138l-.346.18c.262 1.698.849 3.442 1.524 4.947l.436.535c2.749-1.85 5.903.013 8.231 1.188 5.365 1.347 9.633-2.751 12.997-6.06.377-.32.449-.503.978-1.034.96 1.98.105 4.168-1.026 5.828-.627.925-1.33 1.85-2.131 2.64.276.313.741.388 1.126.485 1.471.325 3.453-.124 4.225-.353 2.8-1.1 6.924-4.165 8.815-6.274.522 2.264-.359 5.067-2.097 7.31 1.862.152 2.563.187 3.594.273-.294 1.534-.957 2.962-1.704 4.584-1.347 2.367-2.91 4.67-4.997 6.408-.52.42-.19.133-1.096.88.122-1.12.18-1.506.085-2.393-1.776 1.605-8.748 5.805-13.358 7.053 0 0 .904-2.168 1.204-3.472-3.404 1.853-7.656 3.203-10.365 3.899.658-1.17 1.54-3.221 1.54-3.221-2.334.882-5.168 1.54-7.793 2.065.649-1.336 1.317-3.16 1.494-4.365-2.151.393-5.558.588-5.558.588-.174-.767-.312-1.134-.572-2.004-.617-1.558-.978-2.244-1.849-3.3-1.716-1.799-3.87-3.112-6.187-4.122a35.518 35.518 0 0 0-4.072-1.474c-2.169-.482-4.544-.816-6.73-.847-.912.009-1.117.037-2.05.143.711.201.958.222 1.602.409 3.16.838 6.575 1.625 10.536 3.89l-2.118.185c-7.859.847-17.349 4.335-24.285 7.307a169.5 169.5 0 0 0 22.295 1.456c3.827 0 7.596-.127 11.302-.37.056.255.104.514.144.755 1.573 0 3.662-.103 5.525-.238-.166.706-.985 2.398-1.559 3.707a173.23 173.23 0 0 1-15.412.684c-53.25 0-96.42-23.997-96.42-53.598 0-29.59 43.17-53.595 96.42-53.595 53.249 0 96.413 24.005 96.413 53.595 0 19.307-18.36 36.225-45.902 45.66ZM99.564.51C44.574.512 0 25.748 0 56.872c0 31.138 44.575 56.364 99.563 56.364 10.918 0 21.428-.997 31.26-2.838l-.127.397c1.969-.193 4.175-.856 6.25-1.669a144.95 144.95 0 0 0 7.507-1.932l-.044.217c.201-.12.397-.247.59-.373 32.136-9.346 54.12-28.297 54.12-50.166 0-31.124-44.576-56.36-99.556-56.36Z" fill="#22211D" mask="url(#b)"/></g><path d="M7.737 99.87c0 18.681 19.53 34.915 48.276 43.205 4.862-1.23 9.484-2.724 9.062-2.815-3.92-.911-10.196-2.516-12.526-3.642 2.102-.1 14.617-1.393 18.223-2.596-4.304-.897-20.42-6.403-27.03-10.1 2.904.102 16.112.982 20.836-.006l-2.015-.594c-7.566-1.865-39.554-15.809-54.584-27.01a26.596 26.596 0 0 0-.242 3.559" fill="#22211D"/><path d="m62.563 123.322 2.015.594c-4.724.988-17.932.108-20.835.006 6.608 3.697 22.725 9.203 27.03 10.1-3.607 1.203-16.122 2.496-18.224 2.596 2.33 1.126 8.605 2.73 12.526 3.642.422.091-4.2 1.586-9.062 2.815-28.745-8.29-48.276-24.524-48.276-43.204 0-1.196.084-2.381.242-3.56 15.03 11.202 47.018 25.146 54.584 27.011Zm37-77.046c-53.25 0-96.42 24.005-96.42 53.595 0 29.601 43.17 53.598 96.42 53.598 5.244 0 10.394-.235 15.412-.684.574-1.309 1.393-3.001 1.559-3.707-1.863.135-3.952.238-5.525.238-.04-.241-.088-.5-.144-.756-3.706.244-7.475.37-11.302.37a169.5 169.5 0 0 1-22.295-1.455l-.015.003c-6.603-.865-13.725-2.335-17.32-3.327-.082-.022-.168-.042-.246-.066l3.07-1.01c1.699-.457 3.786-1.275 5.349-1.937.213-.103.323-.16.338-.154l1.949-.859c-3.82-1.043-5.205-2.074-5.205-2.074 8.158-1.566 12.15-4.333 12.15-4.333-10.07-2.778-18.053-6.765-18.053-6.765 6.252-.862 12.678-2.787 12.678-2.787-14.23-4.337-28.642-11.434-28.642-11.434 5.378 1.742 17.004 3.3 17.004 3.3-2.603-2.426-3.64-4.333-3.64-4.333 9.024 5.726 31.687 11.158 31.687 11.158-5.41-4.93-13.82-19.376-15.18-21.744 3.112 5.277 11.427 10.93 11.427 10.93-.515-3.984.18-5.549.18-5.549 7.945 20.074 19.975 26.631 19.975 26.631-1.217-3.297-3.66-16.225-3.66-16.225 1.215 2.6 3.298 3.984 3.298 3.984-1.388-3.122-1.388-8.841-1.388-8.841 3.3 6.59 9.54 10.053 9.54 10.053a75.962 75.962 0 0 0-.367-.525c-6.88-10.743-9.32-20.215-10.207-25.271a42.674 42.674 0 0 1-.487-3.57c-7.807 16.194-.399 31.496.198 34.798-5.202-3.504-10.711-17.206-11.504-20.003-3.006-10.394-.809-22.996 0-26.1l-.303-.293c-6.109 7.499-5.009 14.596-4.906 16.59-3.909-5.294-4.409-19.594-4.409-20.993-9.205-5.498-10.613-17.03-10.613-17.03-3.419.204-10.798 1.54-12.48 1.948 1.05 7.296 6.852 20.525 7.073 21.028l-.075.37c-.66-.221-7.596-5.84-7.596-5.84 3.647 10.361 8.837 18.9 8.837 18.9 4.824 9.194 15.049 21.013 15.706 21.744l.83.91c-6.87-1.825-23.036-11.565-24.643-12.584-20.74-13.184-25.643-22.035-26.524-23.13h-.216c2.844 14.086 13.37 24.66 13.807 25.104l.147.361c-12.073-5.876-27.264-18.12-33.08-23.023 11.51-20.072 46.467-34.67 87.811-34.67 1.06 0 2.12.015 3.174.033.335-.482.75-.982 1.276-1.482 1.665-1.577 3.199-2.875 9.902 0 1.59.678 3.645 1.623 5.742 2.63 41.046 4.898 71.725 24.47 71.725 47.873 0 16.305-14.885 30.747-37.78 39.669a22.59 22.59 0 0 1-3.528 5.99c27.542-9.434 45.902-26.352 45.902-45.66 0-29.59-43.164-53.594-96.413-53.594Z" fill="#F2B12E"/><path d="m156.616 86.057.46.108c.199.157.445.378.537.49.918-.505 1.424-1.496 1.424-1.496l5.525-.13s.817 1.41.988 1.687c.12-.159.29-.316.38-.43.802-.846 1.723-1.082 2.094-1.257-.427-.829-1.384-1.953-3.787-3.751-.494-.362-.958-.694-1.336-.968a80.436 80.436 0 0 0-1.832-1.244c.055.024.112.044.17.063-.03-.019-.058-.03-.076-.042.165.103-5.01-1.683-6.212-1.956-.951-.215-3.507-.982-4.04-1.256-4.165-2.101-3.626-4.07-3.626-4.07s2.646-.387 3.872.917c.267.275.917 1.709.917 1.709l.688.19c.248-2.14-.008-3.095-.233-3.921-.433-1.609-7.58-6.101-9.04-7.17-3.393-2.458-6.415-3.598-8.42-4-5.107-1.02-19.618-3.065-24.422-3.329-4.806-.267-7.343-.132-8.807.131-.146.027-.302.053-.45.078-3.18.555-7.512 1.555-9.297 2.06 2.213.129 5.919-.12 9.308-.445 3.556-.337 6.758-.753 7.508-.891l9.078 3.203c.814.287 2.937-.666 2.937-.666 1.398.548 6.744 3.179 8.651 4.135.399.198.868.101 1.16-.063.758-.417.947-.52 1.81-1.05 1.337.669 9.393 6.34 9.393 6.34l-.859.233c-8.672-2.532-15.083-4.165-16.686-4.298l-.486-.446 2.353-.32c-5.069-1.068-14.811-1.998-16.685-1.998l-.651-.497c1.447-.316 5.723-.44 5.723-.44-2.397-.668-6.67-1.063-10.54-1.063-.873 0-1.773-.011-2.692-.03-7.936-.187-17.202-1.121-20.666-1.842-2.92-.6-3.475-.66-3.887-.756-.46-.108-.72-.177-1.39-.35-1.926-.045-2.159.98-2.162 1.068-.273 2.25 3.018 5.237 5.989 6.81 4.555 2.749 10.655 4.222 12.15 4.55 1.411.29 2.608.383 3.713.489 2.323.226 4.656.867 6.367 1.383.946.286 1.705.533 2.165.653-.312-.285-1.478-1.692-2.187-2.555l-.56-.687s.012.006.024.006c-1.286-1.642-1.312-2.66-1.312-2.66 6.763 2.6 15.512 2.774 15.512 2.774 6.425.347 11.457 3.292 11.457 3.292 2.522 1.585 6.91 3.582 8.847 4.438-.084-.036.525.197 1.878.438 0-.007.003-.013.003-.013.744.054 1.366.206 1.918.275l.373.04c3.277.185 4.393 1.174 4.393 1.174l-1.446 1.098c4.37-.318 6.943 1.216 6.943 1.216l-1.56 1.214c3.808-.108 6.88 2.149 8.64 3.828" fill="#F2B12E"/><path d="m100.947 68.937.56.687-.004-.458c.153.058.307.118.42.158v.002c.003 0 .014.012.021.018-.006-.006-.012-.009-.015-.015.081.03.142.052.152.058 2.272.675 4.751 1.012 7.054 1.707 4.212 1.24 9.239-.307 13.247 1.32 3.797 1.612 7.88 3.174 12.015 4.286.356.043.716.06 1.078.087-1.937-.856-6.325-2.853-8.847-4.438 0 0-5.032-2.945-11.457-3.292 0 0-8.749-.175-15.512-2.775 0 0 .026 1.02 1.312 2.66-.012 0-.024-.005-.024-.005M110.656 52.59l12.278 2.572.048-.003-.26-.37c-1.85-.326-8.932-2.86-10.812-3.52-2.267-.787-3.619-.962-4.466-.795-1.82.427-2.128 3.592-2.238 4.902.144-.002.282 0 .418 0 0 0 .172-3.829 5.032-2.786" fill="#FFFFFE"/><path d="M161.154 109.143c-.93-.403-1.53-.699-2.336-1.239-1.503.745-3.41 1.186-5.093 1.417-7.859 1.094-14.072 1.917-18.532 6.798-1.29 1.42-2.415 4.449-2.324 7.146-.728-.678-1.109-1.031-1.784-1.5-1.792-1.125-3.828-2.234-6.15-1.939.934.69 1.768 1.678 1.853 2.26-.853-.493-1.63-.75-2.684-1.168-2.735-.842-6.085.008-8.222 1.476 0 0-1.1-5.465 1.58-10.165 2.49-4.36 7.764-5.704 12.625-5.62 3.216.154 6.001 1.07 8.295 1.801 1.777.577 2.974.784 4.272.984 4.715.331 10.06-.803 12.186-2.194 3.598-2.354 6.338-5.687 6.18-10.23.218-2.954-1.461-5.398-3.617-6.573-1.13-.416-2.252-.787-3.475-.993-1.293-2.838-2.816-3.058-2.816-3.058l.019-.524s1.812.012 2.68.012c1.1.026 1.826.051 2.805.223-1.759-1.68-4.83-3.936-8.638-3.828l1.559-1.214s-2.572-1.534-6.943-1.216l1.446-1.098s-1.116-.99-4.393-1.173c-.134-.015-.254-.03-.373-.041-.552-.07-1.174-.22-1.918-.275 0 0-.003.006-.003.013-.28.494-.775.888-1.157 1.328-.26.226-.393.226-.853.238-2.055.025-5.12.287-6.828.106.722-.876.93-1.507.93-1.507l-2.542-.714s-1.888 2.167-4.37 2.534c-.66-.15-.952-.551-1.274-1.123-.24-.425-.428-1.047-.428-1.047.434-.343 1.75-1.049 1.968-1.412l-2.575-.33c-.162-.954-.087-1.247-.087-1.247a35.7 35.7 0 0 0-1.994-.557s-.092.159-.133.38c-.042.216-.256 1.838.665 4.558-.847-.104-2.078-.44-2.896-.792-1.895-.666-3.495-1.624-5.253-2.402-1.295-.334-3.783-1.117-3.783-1.117s-.112-.121-.383.078c1.346 1.86 3.037 3.613 4.694 5.397 4.575 1.792 9.433 2.808 14.51 3.019 6.105.7 12.36.63 18.289 2.447-1.632.697-2.363 1.025-3.788 2.164-7.431.081-15.936.22-23.396 1.41-2.74.407-5.338 1.196-5.375 1.265 10.88.158 21.991 1.234 32.57 2.824 0 0 5.193 1.016 7.535 1.68l-.11.238c-6.258-.564-12.567-1.158-18.786-1.02-4.724.052-9.653.184-14.075.887l.037.07c9.056.704 18.063 2.13 26.54 4.348 2.148.723 4.438 1.265 6.513 2.2-.094.098-.247.228-.35.334-6.206-1.905-13.089-2.06-19.668-2.399-2.67.024-5.28-.201-7.903.274 0 0 15.485 2.884 21.92 6.344-.061.09-.118.163-.205.241-2.558-.778-4.806-1.13-7.703-1.748-7.166-1.573-16.95-1.31-21.643 4.916-1.404 1.91-3.894 6.084-3.401 13.006 0 0-6.241-3.464-9.541-10.053 0 0 0 5.719 1.388 8.84 0 0-2.083-1.383-3.299-3.983 0 0 2.444 12.928 3.66 16.225 0 0-12.029-6.557-19.974-26.63 0 0-.695 1.564-.18 5.548 0 0-8.315-5.653-11.428-10.93 1.36 2.368 9.77 16.815 15.181 21.744 0 0-22.663-5.432-31.687-11.158 0 0 1.037 1.907 3.64 4.333 0 0-11.626-1.558-17.004-3.3 0 0 14.411 7.097 28.642 11.434 0 0-6.426 1.925-12.678 2.787 0 0 7.983 3.987 18.053 6.765 0 0-3.992 2.767-12.15 4.333 0 0 1.384 1.031 5.205 2.074l-1.949.859c-.015-.006-.125.051-.338.154-1.563.662-3.65 1.48-5.349 1.937l-3.07 1.01c.078.024.164.044.245.066 3.596.992 10.718 2.462 17.32 3.327l.016-.003c6.936-2.972 16.426-6.46 24.285-7.307l2.118-.184c-3.96-2.266-7.377-3.053-10.536-3.891-.644-.187-.89-.208-1.601-.41.932-.105 1.137-.133 2.05-.142 2.185.031 4.56.365 6.73.847 1.376.413 2.75.893 4.071 1.474 2.316 1.01 4.47 2.323 6.187 4.122.87 1.056 1.232 1.742 1.849 3.3.26.87.398 1.237.572 2.004 0 0 3.407-.195 5.558-.588-.177 1.206-.845 3.03-1.494 4.365 2.625-.525 5.46-1.183 7.793-2.065 0 0-.882 2.051-1.54 3.22 2.71-.695 6.96-2.045 10.365-3.898-.3 1.304-1.204 3.472-1.204 3.472 4.61-1.248 11.582-5.448 13.358-7.053.095.887.037 1.272-.085 2.393.906-.747.577-.46 1.096-.88 2.088-1.738 3.65-4.04 4.997-6.408.747-1.622 1.41-3.05 1.704-4.584-1.03-.086-1.732-.12-3.594-.272 1.738-2.244 2.62-5.047 2.097-7.31-1.891 2.108-6.015 5.173-8.815 6.273-.772.23-2.754.678-4.225.353-.385-.097-.85-.172-1.126-.485.801-.79 1.504-1.715 2.13-2.64 1.132-1.66 1.986-3.849 1.027-5.828-.53.53-.601.715-.978 1.034-3.364 3.309-7.632 7.407-12.997 6.06-2.328-1.175-5.482-3.038-8.23-1.188l-.437-.535c-.675-1.505-1.262-3.249-1.524-4.946l.346-.18c3.1-1.258 6.242-.661 8.37.137 2.815.781 4.165 5.096 7.639 4.003 1.919-.648 3.652-2.025 4.819-3.523-1.496-.916-1.89-3.228-1.822-4.518.079-1.057.448-2.257.853-2.993 1.485-2.692 4.133-5.803 7.773-5.96.184 2.312-.43 4.828-1.015 7.04-.023.259-.361.79-.16.678a17.434 17.434 0 0 0 4.928-4.183c.503-.603.618-.838 1.087-1.611.872-1.583.928-2.14 1.297-3.21 2.069-.558 4.667-.636 6.707.088.608.497.706 1.461.699 2.12-.16 1.537-.705 2.852-1.458 4.199-.192.276-1.125 1.714-1.345 1.997 2.144-.831 3.337-1.787 4.106-2.483 1.61-1.438 3.88-4.39 3.576-7.367a10.657 10.657 0 0 1-2.115-.87" fill="#FFFFFE"/><path d="m166.496 94.684-.231-.458s3.809-1.433 4.909-2.314c-.081-1.422-.328-2.827-.534-4.346-.328-2.23-.936-3.645-1.599-4.288-2.19-1.88-5.019-3.068-7.803-4.149a2.106 2.106 0 0 1-.169-.063c.675.446 1.278.856 1.832 1.244.378.274.842.606 1.336.968 2.403 1.798 3.36 2.922 3.787 3.751.264-.103.863-.295.863-.295s.232.304.28.657c.005.063-1.386 1.712-1.98 3.703-.793.5-3.247 1.987-4.349 4.397-.657 1.847-1.26 8.26-1.034 10.97.046 1.624.98 4.46 3.117 5.288 1.223-.865 1.967-1.712 2.507-2.468.362-.518.709-.949 1.016-1.827-.591-.045-2.33-.114-3.31-.247-.083-.144-.11-.222-.241-.457.595-.051.923-.109 1.407-.17 1.251-.174 1.809-.352 2.696-.76.355-.496 1.101-2.277 1.213-3.688l-3.727.01-.266-.605s3.05-.606 4.3-1.005c.194-1.33.555-2.97.474-4.386-1.343.364-4.494.538-4.494.538M77.463 66.851c3.391 2.53 8.305 4.51 16.841 6.227 0 0-2.675-3.15-2.855-3.424-1.495-.328-7.595-1.801-12.15-4.55-2.971-1.573-6.262-4.56-5.989-6.81.003-.088.236-1.113 2.162-1.068-.418-.104-2.357-.58-3.266.233-.732.68-.488 2.18.095 3.372.281.56 1.778 3.48 5.162 6.02" fill="#FFFFFE"/><path d="M178.32 142.624h-1.623v4.2h-.753v-4.2h-1.622v-.752h3.997v.752Zm6.258 4.2h-.753v-4.2h-.022l-1.696 4.2h-.458l-1.646-4.2h-.024v4.2h-.751v-4.952h1.232l1.424 3.494 1.47-3.494h1.224v4.952Z" fill="#F2B12E"/></g></svg>