<?xml version="1.0" encoding="UTF-8"?>
<svg width="200px" height="200px" viewBox="0 0 200 200" version="1.1" xmlns="http://www.w3.org/2000/svg" xmlns:xlink="http://www.w3.org/1999/xlink">
    <!-- Generator: Sketch 51.3 (57544) - http://www.bohemiancoding.com/sketch -->
    <title>missouri-st</title>
    <desc>Created with Sketch.</desc>
    <defs></defs>
    <g id="missouri-st" stroke="none" stroke-width="1" fill="none" fill-rule="evenodd">
        <g id="missouri-st_BGL" transform="translate(-1.005025, 13.000000)">
            <g id="missouri-st">
                <g id="g10" transform="translate(99.997500, 87.877891) scale(-1, 1) rotate(-180.000000) translate(-99.997500, -87.877891) translate(0.000000, 0.877891)" fill-rule="nonzero">
                    <g id="g12">
                        <path d="M30.9134012,171.34653 L31.45232,171.470623 C37.2594288,172.829039 42.7452029,174.113527 49.1921948,170.229699 C51.0838502,169.100986 53.2294422,166.83696 54.9966501,164.827719 C57.4842738,167.44026 61.8635529,171.225078 66.9812914,172.0396 L66.9787706,172.068643 L67.7147092,172.14785 L71.7052556,172.617817 C79.3184455,173.524748 87.1802651,174.471283 95.1096154,173.453461 L96.5270966,173.277883 L96.6799362,173.262042 L96.809558,173.174913 C96.8354293,173.161712 98.7270847,172.014517 99.9086727,171.374253 C101.092914,172.014517 102.981916,173.161712 103.000092,173.174913 L103.127061,173.262042 L103.298077,173.277883 L104.70773,173.453461 C112.636948,174.471283 120.4989,173.524748 128.104395,172.617817 L132.102106,172.14785 C132.102106,172.14785 132.839106,172.068643 132.839106,172.058082 L132.839106,172.0396 C137.958967,171.225078 142.333204,167.44026 144.820828,164.827719 C146.593343,166.83696 148.733363,169.100986 150.61467,170.229699 C157.06657,174.113527 162.555263,172.829039 168.370332,171.470623 L168.898372,171.34653 C177.989144,169.229039 188.073639,158.884484 190.944688,155.765013 L192.427975,154.155772 L192.9255,152.03696 C197.387302,133.111548 196.970708,128.754188 196.142827,125.904947 C195.361381,123.179667 193.148391,119.98508 191.163599,117.811482 C192.417362,116.362373 193.819718,114.980459 194.967342,113.856235 C196.179975,112.680525 196.816807,112.043562 197.091441,111.607918 C197.257282,111.32937 197.512015,110.983892 197.765421,110.607522 C198.869262,109.081053 200.227837,107.16277 199.693163,105.662176 C199.185025,104.197621 197.164411,103.609766 195.383936,103.083694 C194.739144,102.898083 194.124866,102.717621 193.671124,102.526862 C193.572946,102.472605 193.442926,102.444354 192.790173,102.294783 C194.72853,89.6710209 196.199876,69.6215164 196.190589,67.6516155 C196.190589,67.3783482 196.21049,67.0559719 196.231718,66.7079851 C196.324589,64.9288433 196.495738,61.9482493 193.635302,61.2984803 C192.002094,60.9324077 189.826253,61.525411 186.866312,63.1394044 C180.683738,49.0563684 170.684154,27.7330686 168.778966,24.5977552 C166.804788,21.3593394 164.343699,19.7710886 161.864036,20.1114186 C160.228174,20.3357091 157.212511,23.6798674 156.232056,24.8298344 C155.276808,24.4998014 153.309263,23.7726727 150.910531,22.8908245 C144.073878,20.3692404 132.698472,16.1613197 127.05747,14.6710227 L120.713963,8.96761694 L120.514423,8.78455424 L120.219092,8.78455424 L109.444564,8.78455424 L99.9086727,0 L90.3676076,8.78455424 L79.308097,8.78455424 L72.7520477,14.6710227 C67.113434,16.1613197 55.732058,20.3692404 48.9072126,22.8908245 C46.4973355,23.7726727 44.5377514,24.4998014 43.5744108,24.8298344 C42.5948841,23.6798674 39.5863851,20.3357091 37.9461456,20.1114186 C35.4662169,19.7710886 33.0097715,21.3593394 31.0377161,24.5977552 C29.1253636,27.7330686 19.1283005,49.0563684 12.9506751,63.1394044 C9.98885064,61.525411 7.8147604,60.9324077 6.18226895,61.2984803 C3.32098427,61.9482493 3.48682585,64.9288433 3.58062585,66.7079851 C3.60134941,67.0559719 3.61172446,67.3783482 3.61172446,67.6516155 C3.61172446,69.6215164 5.08356185,89.6710209 7.02183864,102.294783 C6.37402162,102.444354 6.23926539,102.472605 6.13562103,102.526862 C5.68474421,102.717621 5.08356185,102.898083 4.42797019,103.083694 C2.64776033,103.609766 0.628643073,104.197621 0.118680348,105.662176 C-0.412531594,107.16277 0.953070333,109.081053 2.04140371,110.607522 C2.30571539,110.983892 2.55447776,111.32937 2.72809399,111.607918 C2.98721814,112.043562 3.63763555,112.680525 4.83998701,113.856235 C5.99569054,114.980459 7.40015645,116.362373 8.65434335,117.811482 C6.65905686,119.98508 4.45129415,123.179667 3.6687209,125.907588 C2.84728765,128.754188 2.42490905,133.111548 6.88657824,152.03696 L7.38202001,154.155772 L8.86423245,155.765013 C11.7431361,158.884484 21.8283341,169.229039 30.9134012,171.34653" id="path14" fill="#231F20"></path>
                        <path d="M99.9086727,7.47215823 L93.3112294,14.3873264 L81.4743861,14.3873264 L80.6865722,15.083564 L75.5092635,19.734917 C62.448642,23.045544 49.5498819,27.6196693 41.8278999,29.7597352 C41.5324366,29.4348507 41.2681514,29.1614514 41.1178326,29.0120125 C40.7005752,28.5838937 38.9203654,26.8616495 38.3684446,26.4491082 C38.0108901,26.1911545 37.1479832,26.1318805 36.7904288,26.5211875 C36.0493159,27.3075901 20.7037955,55.7033649 15.049659,69.6962359 C14.9926095,69.6730016 11.8623431,67.8191402 11.0123983,67.7392722 C10.3542195,67.6851468 9.54521778,67.7985462 9.38249402,68.5824405 C9.21353462,69.4151798 10.49415,93.4458062 12.1111054,106.577423 C11.8286573,106.698611 8.23455187,107.993001 7.88162772,108.14772 C7.49345229,108.312737 6.79379983,108.714981 7.15139408,109.382704 C7.53491268,110.076301 13.2616215,116.269568 16.0959204,119.208974 L15.8943897,119.456499 C12.2717595,120.534254 9.98107599,124.296103 9.07153443,127.444353 C8.47295246,129.532802 8.40298058,133.941911 12.3645246,150.757752 L12.5303662,151.449501 L13.0154595,151.977554 C14.1478789,153.215838 24.3211321,164.067323 32.1960863,165.887785 L32.7324843,166.022438 C37.9978882,167.251481 41.8013653,168.14125 46.2899672,165.433659 C49.1870206,163.701646 52.7656165,161.061382 55.2040184,158.550491 C56.240462,159.271283 57.3651332,160.774913 58.4793233,161.721448 C61.4853014,164.253461 64.5248459,166.269303 68.4428201,166.594055 L68.3729013,166.594055 L72.3634477,167.053461 C79.6397802,167.924748 87.1570473,168.822438 94.4048551,167.904946 L99.9086727,164.335309 L105.407316,167.904946 C112.657777,168.822438 120.177565,167.924748 127.443549,167.053461 L131.444444,166.594055 L131.366698,166.594055 C135.284274,166.269303 138.331779,164.253461 141.338155,161.721448 C142.43669,160.774913 143.576353,159.271283 144.608551,158.550491 C147.044432,161.061382 150.633244,163.701646 153.521541,165.433659 C158.009877,168.14125 161.81362,167.251481 167.079422,166.022438 L167.618075,165.887785 C175.4856,164.067323 185.664292,153.215838 186.789362,151.977554 L187.281579,151.449501 L187.442114,150.757752 C191.417005,133.941911 191.333421,129.532802 190.743025,127.444353 C189.83156,124.296103 187.537639,120.534254 183.920966,119.456499 L183.710015,119.208974 C186.55055,116.269568 192.287342,110.076301 192.656173,109.382704 C193.023678,108.714981 192.32449,108.312737 191.939738,108.14772 C191.57754,107.993001 187.994035,106.698611 187.698174,106.577423 C189.3075,93.4458062 190.598411,69.4151798 190.427263,68.5824405 C190.264074,67.7985462 189.457421,67.6851468 188.804669,67.7392722 C187.95556,67.8191402 184.819164,69.6730016 184.756807,69.6962359 C179.106253,55.7033649 163.765243,27.3075901 163.02758,26.5211875 C162.664055,26.1318805 161.799026,26.1911545 161.446115,26.4491082 C160.904808,26.8616495 159.113719,28.5838937 158.689164,29.0120125 C158.547204,29.1614514 158.289818,29.4348507 157.979362,29.7597352 C150.261759,27.6196693 137.357957,23.045544 124.302908,19.734917 L119.120425,15.083564 L118.342959,14.3873264 L117.280512,14.3873264 L106.495635,14.3873264 L99.9086727,7.47215823" id="path16" fill="#FFFFFF"></path>
                        <path d="M99.9086727,12.3556169 L93.2594868,17.3654121 L82.5315266,17.3654121 C79.3753624,24.2368311 72.6510833,41.119999 72.6510833,41.119999 L48.7517196,48.8913519 C48.7517196,48.8913519 33.2662289,80.7652785 32.6572586,84.6740573 C31.2399101,93.7242221 31.9861972,101.531615 35.2823318,108.451878 C41.0816128,120.565146 57.8678322,134.153132 61.9387786,134.617818 C70.2852537,134.73399 94.9282511,120.397621 94.9282511,120.397621 C94.9282511,120.397621 92.526069,115.542439 92.2489145,114.815443 L71.5497626,122.493858 C66.724834,121.947192 57.3496104,121.379931 57.3496104,121.379931 C57.3496104,121.379931 45.5800325,104.723562 44.2584741,102.176103 C44.0562801,101.76871 44.4580147,101.66046 44.4580147,101.66046 L53.4368105,112.448446 C58.7617847,117.218479 61.5552202,118.755113 64.8124815,119.554452 C66.8958498,120.064947 72.1457309,120.431152 75.9263882,118.265212 C71.7830022,117.914585 68.9325171,115.222835 68.9325171,115.222835 L68.9273428,114.454387 C68.9273428,114.454387 72.0110675,112.288578 75.4366912,112.350492 C70.9744913,109.957753 56.945355,98.6901625 55.6289709,96.1324068 C55.4164283,95.7379514 55.8149788,95.6219118 55.8149788,95.6219118 C55.8149788,95.6219118 57.2925609,95.4182154 57.6604639,95.3279184 C57.7123392,91.2592716 60.7390143,79.8576878 63.8484776,72.7928695 C66.5329884,71.7151137 69.7799012,70.9159058 72.7028259,69.9231666 C74.5763051,65.1712195 85.4986315,29.1048178 86.7813166,26.5522106 C92.1342848,25.9333327 96.3379045,25.5569631 96.3379045,25.5569631 L99.9086727,22.2978212 L103.469092,25.5569631 C103.469092,25.5569631 107.687704,25.9333327 113.030324,26.5522106 C114.305845,29.1048178 125.235734,65.1712195 127.111866,69.9231666 C130.039965,70.9159058 133.282234,71.7151137 135.958254,72.7928695 C139.073422,79.8576878 142.105006,91.2592716 142.159402,95.3279184 C142.518947,95.4182154 143.986313,95.6219118 143.986313,95.6219118 C143.986313,95.6219118 144.398927,95.7379514 144.187977,96.1324068 C142.877165,98.6901625 128.842854,109.957753 124.378134,112.350492 C127.806278,112.288578 130.884828,114.454387 130.884828,114.454387 L130.879521,115.222835 C130.879521,115.222835 128.029169,117.914585 123.888304,118.265212 C127.661266,120.431152 132.921363,120.064947 135.004333,119.554452 C138.260135,118.755113 141.0476,117.218479 146.381066,112.448446 L155.356412,101.66046 C155.356412,101.66046 155.755758,101.76871 155.548788,102.176103 C154.241957,104.723562 142.469858,121.379931 142.469858,121.379931 C142.469858,121.379931 133.097818,121.947192 128.267583,122.493858 L107.568431,114.815443 C107.296451,115.542439 104.873572,120.397621 104.873572,120.397621 C104.873572,120.397621 129.534745,134.73399 137.868749,134.617818 C141.947125,134.153132 158.740907,120.565146 164.524135,108.451878 C167.831679,101.531615 168.566689,93.7242221 167.157699,84.6740573 C166.546075,80.7652785 151.055145,48.8913519 151.055145,48.8913519 L127.158567,41.119999 C127.158567,41.119999 120.441983,24.2368311 117.280512,17.3654121 L106.552684,17.3654121 L99.9086727,12.3556169" id="path18" fill="#711F23"></path>
                        <path d="M99.9086727,12.2602109 L99.8619718,12.2952736 L93.2334828,17.2896365 L82.4823049,17.2896365 L82.4616078,17.3334649 C79.407602,23.9841578 72.9308912,40.2124082 72.5929724,41.0582168 L48.6973235,48.8294377 L48.6828621,48.8578206 C48.5278998,49.1775565 33.1849002,80.7874567 32.5811041,84.6627042 C31.1300566,93.9279184 31.9913715,101.720261 35.212811,108.484882 C41.1090762,120.799865 57.9616322,134.241581 61.9298895,134.693066 C61.9630579,134.693066 61.9972876,134.694386 62.0309866,134.694386 C70.4075784,134.694386 94.7208828,120.606466 94.9671244,120.463627 L95.027756,120.427984 L94.9967105,120.364089 C94.9722986,120.315641 92.593467,115.503759 92.3198947,114.788512 L92.292962,114.717357 L71.5399447,122.415971 C66.9149548,121.893066 58.0388481,121.345872 57.3904738,121.306664 C56.8260817,120.505872 45.603781,104.603958 44.3264029,102.141648 C44.2745276,102.036961 44.2641791,101.948776 44.2957553,101.878545 C44.3264029,101.811615 44.3906167,101.771351 44.4336028,101.751285 L53.3776383,112.496895 C58.9743272,117.511284 61.7066004,118.870624 64.7943053,119.628776 C67.2031211,120.219139 72.3696833,120.390888 75.9642001,118.331218 L76.176212,118.21003 L75.9326238,118.189436 C72.061218,117.862043 69.2912656,115.444486 69.0088042,115.189304 L69.004028,114.494123 C69.3383646,114.269304 72.175317,112.425212 75.2931387,112.425212 C75.3407684,112.425212 75.3880001,112.42574 75.4350991,112.426268 L75.472911,112.28343 C73.4055962,111.174651 68.9563983,107.944024 64.4014598,104.243958 C59.6195173,100.359997 56.2835808,97.2380174 55.6968996,96.0978194 C55.6425036,95.9957732 55.6295016,95.9106247 55.6580263,95.8426379 C55.7026045,95.7368953 55.8352778,95.6957072 55.8367372,95.6946511 C55.8864897,95.6889745 57.3112679,95.4924069 57.6786401,95.4022418 L57.7362203,95.3878524 L57.736751,95.3284465 C57.7906164,91.0999317 60.9592519,79.5585459 63.9060578,72.8521434 C65.5229469,72.2050147 67.3793112,71.6471269 69.1746458,71.108249 C70.3551725,70.7533976 71.5745725,70.387325 72.7272378,69.9953778 L72.7609368,69.9840247 L72.7739388,69.9515494 C73.6564813,67.7135297 76.4861367,58.7215827 79.4816337,49.2006588 C82.7424771,38.8345865 86.1137048,28.1188112 86.8315998,26.6233657 C92.10377,26.0149168 96.3026134,25.636831 96.3441402,25.6332667 L96.3700115,25.6306264 L96.3897798,25.6135967 L99.9086727,22.4010555 L103.436455,25.6306264 L103.462326,25.6332667 C103.503853,25.636831 107.71875,26.0149168 112.980041,26.6233657 C113.690108,28.1120785 117.037985,38.7469297 120.276142,49.0356423 C123.29751,58.6339259 126.151577,67.7005924 127.040355,69.9515494 L127.053357,69.9840247 L127.087056,69.9953778 C128.232292,70.3836286 129.443997,70.7482491 130.613777,71.1004603 C132.416276,71.6419784 134.279937,72.2014503 135.901205,72.8521434 C138.851858,79.5560376 142.025402,91.0974235 142.082452,95.3289745 L142.083779,95.3873243 L142.140828,95.4022418 C142.500373,95.4920108 143.909363,95.6884465 143.975699,95.6971593 C143.973046,95.6971593 144.111026,95.7404597 144.156135,95.8483144 C144.183996,95.9153771 144.173383,95.9988095 144.12164,96.0968953 C143.535224,97.2380174 140.199818,100.359997 135.416947,104.243958 C130.861478,107.944024 126.410688,111.174651 124.341781,112.28343 L124.379062,112.426268 C124.427355,112.42574 124.473393,112.425212 124.520625,112.425212 C127.64309,112.425212 130.473807,114.268776 130.808011,114.494123 L130.802836,115.189304 C130.520375,115.444486 127.750423,117.862043 123.881537,118.189436 L123.637949,118.21003 L123.849431,118.331218 C127.436783,120.391944 132.60905,120.218611 135.022908,119.628776 C138.102254,118.87168 140.83267,117.512868 146.432808,112.505212 L155.380293,101.751285 C155.422749,101.771879 155.486432,101.811615 155.514293,101.877621 C155.546135,101.947192 155.534194,102.036433 155.479798,102.142176 C154.218075,104.604486 142.993917,120.505872 142.428729,121.306664 C141.781284,121.345872 132.906769,121.893066 128.276339,122.415971 L107.522924,114.717357 L107.49692,114.78904 C107.229053,115.503759 104.829524,120.315113 104.804582,120.363561 L104.773536,120.427456 L104.834698,120.463627 C105.080807,120.606466 129.411359,134.694386 137.767917,134.694386 C137.803739,134.694386 137.835581,134.694386 137.868749,134.693066 C141.854254,134.240261 158.713046,120.799865 164.593125,108.484882 C167.815758,101.74046 168.679461,93.9479844 167.231996,84.6627042 C166.625679,80.7874567 151.279363,49.1775565 151.124135,48.8578206 L151.109541,48.8294377 L151.079026,48.8191407 L127.216545,41.0582168 C126.878096,40.2099 120.409346,23.9831017 117.350563,17.3334649 L117.329866,17.2896365 L106.578556,17.2896365 L99.9086727,12.2602109 Z M82.5808811,17.4411877 L93.2853581,17.4411877 L93.3060551,17.4262702 L99.9086727,12.4510096 L106.526813,17.4411877 L117.23129,17.4411877 C120.364237,24.2615175 127.019658,40.979801 127.087056,41.1483818 L127.099926,41.1819132 L127.135217,41.1922102 L151.000749,48.9531341 C151.546036,50.0789426 166.487699,80.8838264 167.082075,84.6854104 C168.522907,93.9403277 167.663184,101.70376 164.455144,108.418875 C158.59364,120.696103 141.813125,134.092406 137.859462,134.542571 C137.826294,134.542571 137.793125,134.542571 137.759957,134.542571 C129.660122,134.542571 106.350623,121.162901 104.974669,120.367126 C105.263233,119.786004 107.258506,115.778611 107.612478,114.912868 L128.258296,122.571614 L128.276339,122.569106 C133.050056,122.029172 142.380967,121.461911 142.475165,121.456235 L142.512313,121.453726 L142.532214,121.423759 C142.650293,121.256763 154.322887,104.733859 155.616452,102.211219 C155.692075,102.061648 155.705343,101.928578 155.654927,101.814651 C155.577976,101.642902 155.3856,101.588776 155.37764,101.587192 L155.329877,101.574387 L155.296709,101.612011 L146.321363,112.399997 C140.754393,117.378347 138.041224,118.729898 134.987086,119.480261 C132.641688,120.054122 127.67931,120.230492 124.138128,118.317357 C128.128674,117.886202 130.903933,115.304816 130.932458,115.278413 L130.955809,115.255839 L130.960983,114.415179 L130.928876,114.392472 C130.898759,114.37135 127.968007,112.337027 124.674526,112.274585 C129.415472,109.598809 142.958095,98.7004596 144.256967,96.1675223 C144.331264,96.0271923 144.344531,95.8994035 144.296769,95.7874564 C144.221145,95.6105587 144.015501,95.5512847 144.007541,95.5486445 C143.98366,95.5445521 142.663561,95.3609217 142.235026,95.2675884 C142.148789,90.9668624 138.975244,79.4451465 136.028571,72.7619784 L136.015304,72.7335955 L135.987442,72.7217144 C134.352908,72.0648167 132.474254,71.5000642 130.657824,70.9535296 C129.501046,70.6054108 128.303803,70.2454108 127.169977,69.8628365 C126.268197,67.5629026 123.42806,58.5396685 120.422215,48.9907579 C117.153544,38.6060716 113.773029,27.8686462 113.099314,26.5186792 L113.081138,26.4815835 L113.039744,26.476435 C107.971227,25.8895043 103.86552,25.5156429 103.501199,25.4836957 L99.9086727,22.1947189 L99.8567975,22.2411876 L96.3052669,25.4836957 C95.9424055,25.5156429 91.8498333,25.8895043 86.7718968,26.476435 L86.7305028,26.4815835 L86.7123265,26.5186792 C86.030784,27.8748508 82.6274494,38.6937284 79.3350297,49.1543222 C76.3550555,58.6273253 73.5388001,67.5758399 72.644317,69.8628365 C71.504123,70.2496352 70.298123,70.6116154 69.1305983,70.9622425 C67.321333,71.5052127 65.4503746,72.0673249 63.8199529,72.7217144 L63.7904994,72.7335955 L63.7785588,72.7619784 C60.8358658,79.4476548 57.6672302,90.9700307 57.5843095,95.2675884 C57.1484778,95.3609217 55.8186937,95.5445521 55.805161,95.5466643 C55.7855253,95.5512847 55.5900976,95.6095026 55.516464,95.783892 C55.4693649,95.8957072 55.484357,96.0257402 55.5615729,96.1685785 C56.8654857,98.7030998 70.4054557,109.600921 75.1401664,112.274585 C71.8477467,112.336499 68.9128814,114.37135 68.8832953,114.392076 L68.850127,114.415179 L68.8558319,115.255839 L68.8797131,115.278413 C68.9077072,115.304816 71.6834972,117.886202 75.675105,118.317357 C72.1318002,120.229436 67.1720755,120.055179 64.8305251,119.480261 C61.7677628,118.728842 59.0526045,117.376235 53.4874917,112.39168 L44.4849474,101.574387 L44.4377157,101.587192 C44.42949,101.588776 44.2340623,101.643958 44.1563157,101.815707 C44.1045732,101.929106 44.1165137,102.062176 44.189484,102.209634 C45.4987038,104.733859 57.1691748,121.256763 57.2863253,121.423759 L57.307553,121.453726 L57.3449669,121.456235 C57.4387669,121.461911 66.7729944,122.029172 71.5410061,122.569106 L71.5590497,122.571614 L71.5761645,122.565541 L92.204867,114.912868 C92.5608294,115.777159 94.5405798,119.786532 94.8282155,120.367126 C93.4547818,121.160789 70.1602755,134.542571 62.039743,134.542571 C62.006044,134.542571 61.9728757,134.542571 61.9397074,134.541251 C58.0015669,134.092406 41.2292782,120.696103 35.3511892,108.418875 C32.1427517,101.683694 31.2864784,93.9201297 32.733015,84.6854104 C33.3248705,80.8838264 48.2604305,50.0789426 48.8066463,48.9531341 L72.7085309,41.1819132 L72.7220635,41.1483818 C72.7889309,40.979801 79.4531089,24.2615175 82.5808811,17.4411877 Z" id="path20" fill="#FFFFFF"></path>
                        <path d="M99.9086727,28.7025735 L88.1442691,28.7025735 C82.391689,47.921847 80.4326356,62.1390083 79.4791129,71.0498992 C76.7110179,71.6790741 64.2060321,75.4718133 64.2060321,75.4718133 C64.2060321,75.4718133 61.7158876,90.2331331 62.0889648,96.9729349 C64.4936677,100.897291 67.240535,103.697423 71.0055368,106.48211 C74.7810199,109.266664 83.241594,113.510756 91.051671,112.195773 L80.3912416,93.1312188 C81.8112435,89.041846 83.4593108,86.7986777 85.8380097,83.0238923 C86.3744077,83.2069946 86.2215681,83.3024402 87.0662988,83.6273246 C85.3327899,87.1906249 84.4957543,90.382572 83.8894375,93.1827039 C83.7339444,93.8608557 83.6146712,94.2708887 83.6146712,94.4359052 C83.6146712,94.9515488 83.8298672,95.3768953 84.1795939,95.70442 C88.6210968,99.8865982 94.1923125,103.310624 99.9086727,103.310624 C105.627554,103.310624 111.191074,99.8865982 115.627403,95.70442 C115.990132,95.3768953 116.192193,94.9515488 116.192193,94.4359052 C116.192193,94.2708887 116.078227,93.8608557 115.927908,93.1827039 C115.311243,90.382572 114.476861,87.1906249 112.751047,83.6273246 C113.590603,83.3024402 113.440284,83.2069946 113.979336,83.0238923 C116.347156,86.7986777 118.005571,89.041846 119.426104,93.1312188 L108.750152,112.195773 C116.580926,113.510756 125.036326,109.266664 128.806502,106.48211 C132.579464,103.697423 135.326729,100.897291 137.725462,96.9729349 C138.098274,90.2331331 135.615957,75.4718133 135.615957,75.4718133 C135.615957,75.4718133 123.100623,71.6790741 120.330538,71.0498992 C119.376882,62.1390083 117.420482,47.921847 111.673076,28.7025735 L99.9086727,28.7025735" id="path22" fill="#711F23"></path>
                        <path d="M111.730126,28.626798 L88.0872196,28.626798 L88.0702374,28.6809234 C82.3139425,47.9140582 80.3689524,62.0307575 79.4090614,70.987985 C76.566404,71.6455428 64.3076598,75.3609222 64.1837429,75.398678 L64.1387667,75.4125394 L64.1298776,75.459008 C64.1055984,75.6075229 61.6433153,90.3057403 62.0122796,96.9771593 L62.0231588,97.0131989 C64.3180083,100.757489 66.9907112,103.607654 70.9600299,106.543364 C74.6966397,109.298215 83.1431504,113.603562 91.064673,112.27102 L91.1709443,112.252934 L91.119069,112.159073 L80.4741623,93.1239581 C81.6748554,89.6777535 83.0187029,87.5778196 84.8766593,84.6766976 C85.193881,84.1816481 85.5245028,83.6649484 85.8701167,83.1157735 C86.0671365,83.1878527 86.1552315,83.2456745 86.2640236,83.3168296 C86.3952374,83.4019781 86.5568335,83.5075887 86.9610889,83.6685128 C85.2238652,87.26178 84.3957187,90.4847502 83.8142118,93.1667303 C83.7635306,93.3869284 83.7168296,93.5797996 83.6763642,93.7448161 C83.5898613,94.1007237 83.537986,94.3161693 83.537986,94.4359052 C83.537986,94.9412518 83.7417722,95.3996016 84.1278514,95.7601296 C87.821475,99.2393375 93.5599917,103.386928 99.9086727,103.386928 C106.257354,103.386928 111.989237,99.2393375 115.680207,95.7601296 C116.070399,95.4073904 116.26848,94.9618458 116.26848,94.4359052 C116.26848,94.3147171 116.218197,94.0954432 116.132623,93.7324069 C116.094811,93.5710868 116.050763,93.3817798 116.003134,93.1667303 C115.407033,90.4641562 114.567476,87.2241562 112.855726,83.6685128 C113.254807,83.5086448 113.416934,83.4029022 113.547617,83.3178857 C113.658001,83.2472586 113.746096,83.1889088 113.946698,83.1157735 C114.311948,83.6968956 114.660746,84.2425061 114.99349,84.7643543 C116.827167,87.6356414 118.1539,89.712737 119.343183,93.1239581 L108.630878,112.252934 L108.73715,112.27102 C116.684544,113.603033 125.120175,109.299667 128.851611,106.543364 C132.827165,103.609766 135.499205,100.759601 137.790472,97.0121428 L137.802412,96.9771593 C138.171244,90.3057403 135.715462,75.6075229 135.691581,75.459008 L135.68362,75.4125394 L135.638511,75.398678 C135.513799,75.3609222 123.245635,71.6455428 120.400456,70.987985 C119.440167,62.025609 117.495708,47.9053453 111.74671,28.6809234 L111.730126,28.626798 Z M88.2013186,28.7788772 L111.616027,28.7788772 C117.360912,48.0032991 119.296615,62.1132658 120.253852,71.057688 L120.260486,71.1118134 L120.313423,71.1247507 C122.965827,71.7269949 134.717759,75.2794701 135.54962,75.5310872 C135.702195,76.4516153 138.002749,90.4744532 137.651165,96.9498326 C135.373165,100.670361 132.713066,103.504024 128.760995,106.420723 C125.065779,109.150228 116.734827,113.407126 108.869292,112.138479 L119.509025,93.1383475 L119.498146,93.1058723 C118.301565,89.6596677 116.968066,87.571615 115.122051,84.6818461 C114.780019,84.1454764 114.420872,83.5834963 114.04408,82.9841563 L114.011443,82.9326712 L113.954393,82.9516811 C113.69369,83.040922 113.58795,83.110625 113.463635,83.190493 C113.323664,83.2817141 113.164059,83.3849484 112.723583,83.5565656 L112.645837,83.5860045 L112.682057,83.660724 C114.411983,87.231813 115.255255,90.4863344 115.852815,93.1986775 C115.900445,93.4153112 115.944492,93.6046181 115.983365,93.7675224 C116.060051,94.0950472 116.115508,94.3321429 116.115508,94.4359052 C116.115508,94.9164333 115.934144,95.3248821 115.575528,95.6476544 C111.903663,99.1099645 106.20654,103.234849 99.9086727,103.234849 C93.6102749,103.234849 87.9069166,99.1099645 84.2325306,95.6492385 C83.8739147,95.3130009 83.6909583,94.9050801 83.6909583,94.4359052 C83.6909583,94.3342551 83.7478751,94.1021759 83.8256217,93.7804597 C83.866087,93.6154432 83.912788,93.4220439 83.9645306,93.1997336 C84.5476296,90.5069284 85.3793583,87.2694368 87.1347582,83.660724 L87.170978,83.5860045 L87.0932315,83.5565656 C86.6465206,83.3849484 86.4885067,83.28079 86.3485365,83.1889088 C86.2251503,83.1090408 86.118879,83.0393379 85.8624216,82.9516811 L85.8053721,82.9326712 L85.7732652,82.9841563 C85.4157107,83.5514171 85.0736791,84.0851464 84.7471702,84.5941893 C82.8788653,87.5144533 81.5287821,89.6240242 80.3186693,93.1058723 L80.3083208,93.1383475 L80.3238435,93.1677864 L90.9325304,112.138479 C83.0809266,113.411746 74.7505051,109.1497 71.0506457,106.420723 C67.1046775,103.501912 64.4455073,100.66838 62.1641905,96.9498326 C61.8118103,90.4733971 64.1205905,76.4505591 64.2739608,75.5310872 C65.1042301,75.2794701 76.8463446,71.7269949 79.495697,71.1247507 L79.5490317,71.1118134 L79.5552673,71.057688 C80.5114435,62.1173582 82.4486059,48.012012 88.2013186,28.7788772 Z" id="path24" fill="#FFFFFF"></path>
                        <path d="M99.6857817,64.8205924 L98.0014946,68.2935957 L97.6931619,68.3038927 L96.0580966,64.4802624 L95.7341085,64.3306915 L93.2594868,68.0435627 L93.0158987,68.0384141 C92.9511541,67.3989422 92.3628809,59.9215827 91.8855225,58.0290415 C91.8394848,57.8769622 91.486972,57.8563682 91.4611007,57.9981504 C89.7664651,61.8605925 88.8905562,64.846335 87.9629047,68.7139257 C93.264661,71.797622 97.0266114,72.0657408 99.9086727,72.0657408 C102.779855,72.0657408 106.542336,71.797622 111.85192,68.7139257 C110.924136,64.846335 110.045175,61.8605925 108.356245,57.9981504 C108.319892,57.8563682 107.962338,57.8769622 107.920944,58.0290415 C107.444116,59.9215827 106.863671,67.3989422 106.801447,68.0384141 L106.557859,68.0435627 L104.074879,64.3306915 L103.780079,64.4802624 L102.121663,68.3038927 L101.805502,68.2935957 L100.12639,64.8205924 L99.6857817,64.8205924" id="path26" fill="#FFFFFF"></path>
                        <path d="M99.9086727,36.5305601 C96.6488907,36.5305601 93.3190571,35.4347186 93.3190571,35.4347186 C93.3190571,35.4347186 92.2332591,39.8928043 91.6736433,43.1827052 L91.8238294,43.2137283 C93.9954254,41.5067976 96.2239382,38.2322103 96.2239382,38.2322103 L97.6698114,41.470758 L97.788952,41.4990089 L99.9086727,38.639603 L102.023087,41.4990089 L102.150188,41.470758 L103.577354,38.2322103 C103.577354,38.2322103 105.816215,41.5067976 107.988209,43.2137283 L108.146356,43.1827052 C107.573605,39.8928043 106.495635,35.4347186 106.495635,35.4347186 C106.495635,35.4347186 103.158106,36.5305601 99.9086727,36.5305601" id="path28" fill="#FFFFFF"></path>
                        <path d="M99.6028609,136.53069 C99.6028609,136.53069 98.506847,150.722108 97.6335916,162.370953 L93.9332016,165.749171 C85.6929979,166.801316 76.8929129,165.0429 68.6677013,164.129369 C66.4320241,163.94455 64.3718736,162.660062 62.3714262,161.077224 C59.9149807,159.153791 55.6134481,153.13531 55.6134481,153.13531 C54.7687174,154.244221 52.3121393,157.885145 50.8040423,159.13795 C48.9901334,160.653461 46.8704127,162.154451 44.8694345,163.355771 C41.2162762,165.552471 38.194908,164.74587 32.8284071,163.495705 C27.4462508,162.23762 19.5584272,155.306927 15.0288293,150.389435 C13.292667,143.023099 10.8025092,131.631548 11.7120375,128.455046 C12.2251116,126.686201 14.0130828,122.581515 17.3921382,122.171482 C17.3921382,122.171482 33.4320705,134.650822 38.2337812,137.654122 C38.262306,137.621119 37.9927139,139.753132 37.9927139,139.753132 C37.9927139,139.753132 34.8520724,138.097686 34.5567417,138.405277 C34.2457556,138.706267 33.8570229,144.307587 37.8268723,147.178874 C35.588011,147.498346 35.0387437,147.498346 31.5016745,145.796696 C29.9805755,145.065343 27.6561399,142.922769 26.8035815,140.996696 C25.6712152,138.418478 28.2023557,137.376894 28.2023557,137.376894 L24.5026291,134.988776 C23.6734212,136.990096 23.219944,138.175574 23.0824945,140.264023 C23.0824945,140.264023 30.1255874,149.066663 39.0396386,153.284485 C40.6436584,152.369633 41.8013653,141.073264 41.7061059,137.386135 C28.1147914,128.547852 14.6454036,114.464684 12.0644575,110.607522 C11.6602154,110.009238 12.2924831,109.751416 12.2924831,109.751416 C12.2924831,109.751416 14.7023204,108.977951 15.4227362,108.818083 C13.5389086,94.9205257 12.3494928,76.9956416 12.8833036,72.3906253 C12.9713987,71.6584801 13.6082967,71.8827705 13.6082967,71.8827705 C13.6082967,71.8827705 16.0317065,72.9992061 16.6950728,73.3395361 C21.5485262,60.1742559 34.5774387,35.249108 37.2075535,31.4407913 C37.6144624,30.8348507 38.0808089,31.327392 38.0808089,31.327392 C38.0808089,31.327392 39.7600545,33.2250817 40.1901812,33.838679 C46.4661573,31.3401972 62.5994915,26.0596693 76.8463446,22.4731348 L69.4637408,40.2072597 L48.9590879,45.4671936 C43.1441514,53.553002 31.1206368,76.8950476 29.2031102,81.0617802 C28.7729834,80.7910211 26.5185993,80.4429023 26.5185993,80.4429023 C26.5185993,80.4429023 26.1091696,80.3114171 26.0210746,80.7523412 C26.6844409,90.7436281 29.923526,100.061912 32.7610091,112.329766 C32.3801041,112.417555 29.4363498,112.690822 29.4363498,112.690822 C29.4363498,112.690822 28.9751775,112.866136 29.2575062,113.211614 C35.2304565,120.441449 54.0793472,134.704947 64.7704241,139.650162 C66.4241964,139.423099 99.9086727,122.97333 99.9086727,122.97333 C99.9086727,122.97333 133.39368,139.423099 135.041482,139.650162 C145.7376,134.704947 164.581184,120.441449 170.562095,113.211614 C170.842035,112.866136 170.371045,112.690822 170.371045,112.690822 C170.371045,112.690822 167.437639,112.417555 167.048907,112.329766 C169.888115,100.061912 173.127996,90.7436281 173.791362,80.7523412 C173.702471,80.3114171 173.291184,80.4429023 173.291184,80.4429023 C173.291184,80.4429023 171.034412,80.7910211 170.603223,81.0617802 C168.680788,76.8950476 156.672531,53.553002 150.864095,45.4671936 L130.353605,40.2072597 L122.960652,22.4731348 C137.208036,26.0596693 153.346412,31.3401972 159.632471,33.838679 C160.062333,33.2250817 161.731362,31.327392 161.731362,31.327392 C161.731362,31.327392 162.193065,30.8348507 162.607006,31.4407913 C165.235263,35.249108 178.269085,60.1742559 183.119619,73.3395361 C183.782986,72.9992061 186.202946,71.8827705 186.202946,71.8827705 C186.202946,71.8827705 186.851718,71.6584801 186.928669,72.3906253 C187.462015,76.9956416 186.273263,94.9205257 184.383995,108.818083 C185.120332,108.977951 187.509777,109.751416 187.509777,109.751416 C187.509777,109.751416 188.146609,110.009238 187.747263,110.607522 C185.177382,114.464684 171.695124,128.547852 158.106729,137.386135 C158.009877,141.073264 159.168115,152.369633 160.774788,153.284485 C169.691758,149.066663 176.730075,140.264023 176.730075,140.264023 C176.584134,138.175574 176.138352,136.990096 175.309144,134.988776 L171.608887,137.376894 C171.608887,137.376894 174.148253,138.418478 173.013897,140.996696 C172.152847,142.922769 169.839025,145.065343 168.313283,145.796696 C164.778867,147.498346 164.224293,147.498346 161.984768,147.178874 C165.953026,144.307587 165.566946,138.706267 165.263125,138.405277 C164.955323,138.097686 161.81362,139.753132 161.81362,139.753132 C161.81362,139.753132 161.546946,137.621119 161.581442,137.654122 C166.388194,134.650822 182.415124,122.171482 182.415124,122.171482 C185.799619,122.581515 187.592035,126.686201 188.094867,128.455046 C189.011639,131.631548 186.514728,143.023099 184.778035,150.389435 C180.259184,155.306927 172.361144,162.23762 166.98655,163.495705 C161.619917,164.74587 158.598947,165.552471 154.937164,163.355771 C152.939105,162.154451 150.824293,160.653461 149.013303,159.13795 C147.502155,157.885145 145.038412,154.244221 144.203897,153.13531 C144.203897,153.13531 139.899977,159.153791 137.448175,161.077224 C135.438175,162.660062 133.372452,163.94455 131.138765,164.129369 C122.903603,165.0429 114.113999,166.801316 105.884144,165.749171 L102.183754,162.370953 C101.318326,150.722108 100.214485,136.53069 100.214485,136.53069 L99.6028609,136.53069" id="path30" fill="#711F23"></path>
                        <path d="M122.873619,22.3984153 L122.913951,22.4928047 L130.31566,40.250164 L130.340603,40.2562366 L150.832254,45.5126061 C156.511996,53.4256092 168.463204,76.5444205 170.556788,81.0823742 L170.581996,81.1355755 L170.631085,81.1045524 C171.046352,80.8426382 173.27659,80.4971597 173.299144,80.4934633 C173.307105,80.4909551 173.467639,80.4419782 173.589699,80.5166977 C173.665322,80.559998 173.715738,80.6414501 173.739619,80.7564336 C173.27261,87.7671265 171.553164,94.3867963 169.561738,102.052935 C168.717936,105.304288 167.84362,108.667456 166.999818,112.318545 L166.987877,112.36805 L167.036966,112.379271 C167.419065,112.464948 170.160095,112.722241 170.359105,112.740327 C170.390946,112.754717 170.559441,112.829568 170.593936,112.955905 C170.612511,113.022835 170.588629,113.098743 170.522293,113.180195 C167.663184,116.635773 161.688907,121.89465 154.539145,127.247258 C147.150571,132.778875 140.041937,137.280525 135.033521,139.597356 C133.241106,139.285805 100.264768,123.09201 99.9304312,122.927522 L99.9086727,122.916697 L99.8863836,122.927522 C99.552047,123.09201 66.5761072,139.285805 64.7777212,139.597356 C59.7698361,137.279204 52.6630601,132.778875 45.275282,127.247258 C38.1239278,121.892538 32.1504467,116.63366 29.2969102,113.179139 C29.2296448,113.096631 29.2041715,113.020327 29.2228785,112.95168 C29.2560468,112.827984 29.4156527,112.754717 29.4482904,112.740327 C29.6488923,112.722241 32.3981477,112.464948 32.772419,112.379271 L32.8221715,112.36805 L32.8107616,112.318545 C31.9644388,108.662308 31.0906527,105.295443 30.2453913,102.039469 C28.2563537,94.3791396 26.538235,87.7625061 26.0718885,80.7564336 C26.0966984,80.640526 26.1464508,80.559998 26.2216766,80.5166977 C26.34493,80.4419782 26.5014845,80.4909551 26.5030766,80.4920112 C26.5330607,80.4971597 28.7590527,80.8426382 29.1756468,81.1045524 L29.2248686,81.1355755 L29.2498111,81.0823742 C31.3253517,76.5717473 43.244187,53.5091736 48.989072,45.5126061 L69.5011547,40.250164 L69.5109725,40.2269297 L76.9317862,22.3999994 L76.8333426,22.4241579 C62.4730539,26.0390753 46.36108,31.3314844 40.2083574,33.7767648 C39.7475832,33.1347847 38.1357357,31.3119464 38.1187535,31.2938606 C38.1098644,31.2835636 37.9206723,31.087524 37.6693892,31.087524 C37.6563872,31.087524 37.6433852,31.0891081 37.6299852,31.0891081 C37.4553872,31.1045537 37.2993634,31.2129365 37.1645674,31.4124085 C34.3711318,35.4579529 21.4251401,60.3898335 16.6670788,73.2689091 C15.9446729,72.9037606 13.6539363,71.848183 13.6300551,71.8363018 C13.6145323,71.8311533 13.3347244,71.7331995 13.1035545,71.877622 C12.9532623,71.9704272 12.861532,72.1405923 12.8325163,72.3845526 C12.274864,77.1957736 13.5290908,95.2098986 15.3656867,108.778875 C14.6002947,108.957753 12.3002577,109.695179 12.276947,109.702968 C12.2613977,109.7097 11.979467,109.826796 11.8991334,110.089766 C11.848346,110.256235 11.889289,110.439865 12.0219623,110.635773 C14.6013561,114.490558 28.1754231,128.641713 41.655292,137.413858 C41.7485613,141.269963 40.5675039,152.253462 39.0369852,153.227719 C30.4199893,149.14059 23.4722885,140.664023 23.1349004,140.248181 C23.2722172,138.192736 23.7308687,136.986135 24.5263776,135.065343 L28.0971458,137.368973 C27.8246349,137.499667 26.9917122,137.963033 26.6289835,138.859402 C26.3682805,139.503627 26.410736,140.229699 26.7570132,141.016498 C27.6028053,142.929369 29.9245874,145.094386 31.4793854,145.842901 C35.0423259,147.557752 35.5781932,147.552472 37.8336387,147.230359 L37.9580862,147.211878 L37.8564585,147.13795 C35.0749635,145.124749 34.548914,141.800657 34.4520625,140.464683 C34.3691417,139.324089 34.5012843,138.529369 34.5919001,138.440921 C34.7759179,138.249501 36.6779219,139.118148 37.9684347,139.799336 L38.0342406,139.83234 L38.0429971,139.759732 C38.3120584,137.633 38.302108,137.629039 38.2550089,137.607917 L38.2534169,137.607917 C33.5005299,134.63102 17.583851,122.256103 17.4237144,122.131746 L17.4065996,122.118413 L17.3853718,122.121449 C13.4673977,122.596433 11.8353839,127.843957 11.6628157,128.441053 C10.9766429,130.838017 12.0608355,138.021119 14.9785462,150.401316 L14.982261,150.414518 L14.9910174,150.423759 C18.8955916,154.662702 27.0435874,162.195375 32.8164665,163.54455 L33.3259318,163.663362 C38.322407,164.830359 41.3412544,165.53795 44.8963672,163.399336 C46.9315751,162.176894 49.0409473,160.677224 50.8366799,159.176234 C52.0245036,158.190095 53.7590739,155.780854 54.9074937,154.187455 C55.1884956,153.798016 55.4330125,153.458742 55.611856,153.221118 C56.0575055,153.83894 60.0325292,159.309567 62.3393192,161.116828 C65.5157825,163.630359 67.3882003,164.073923 68.6635884,164.180854 C70.4676794,164.380194 72.3400972,164.627059 74.1504239,164.864682 C80.7124435,165.728049 87.4974869,166.621778 93.9394373,165.799336 L93.95496,165.796696 L93.967962,165.786134 L97.6828134,162.394715 L97.6837421,162.374913 C98.5223698,151.190755 99.5796431,137.493066 99.6506233,136.582175 L100.167784,136.582175 C100.237702,137.491746 101.301211,151.190755 102.133073,162.374913 L102.134532,162.394715 L102.148595,162.407917 L105.861855,165.796696 L105.877378,165.799336 C112.297569,166.620458 119.079959,165.729369 125.635876,164.867323 C127.452306,164.627059 129.331092,164.381514 131.143939,164.179534 C133.552888,163.980194 135.698214,162.518808 137.480016,161.116828 C139.781897,159.310887 143.758115,153.84026 144.205224,153.222438 C144.367085,153.43894 144.58467,153.74257 144.834095,154.089765 C145.931303,155.615838 147.764848,158.168973 148.980135,159.177554 C150.776531,160.679864 152.883382,162.180854 154.91063,163.399336 C158.474234,165.53663 161.491224,164.830359 166.489026,163.663362 L166.997164,163.54455 C172.038748,162.364352 179.766966,155.916828 184.815183,150.423759 L184.824471,150.414518 L184.827124,150.401316 C187.747263,138.010558 188.833857,130.826663 188.143956,128.441053 C187.528352,126.276829 185.631124,122.509832 182.420431,122.121449 L182.40053,122.118413 L182.383283,122.131746 C182.222748,122.256103 166.32053,134.6297 161.561541,137.606597 L161.55756,137.609237 C161.513778,137.629039 161.497857,137.63828 161.763204,139.759732 L161.772491,139.83234 L161.837501,139.799336 C163.348649,139.001977 165.054828,138.262703 165.227303,138.440921 C165.318847,138.53333 165.450194,139.349171 165.357323,140.516168 C165.22863,142.163693 164.613026,145.214518 161.95558,147.13795 L161.853422,147.211878 L161.978135,147.230359 C164.234907,147.552472 164.77356,147.557752 168.334511,145.842901 C169.881481,145.100986 172.203263,142.93597 173.060332,141.016498 C173.40661,140.23102 173.450392,139.504947 173.189025,138.862043 C172.824174,137.963033 171.988332,137.499667 171.715025,137.368973 L175.28659,135.065343 C176.074669,136.971614 176.529738,138.170294 176.678332,140.248181 C176.338689,140.665343 169.39457,149.14059 160.777442,153.227719 C159.246392,152.254782 158.062947,141.269963 158.155818,137.413858 C171.679204,128.612802 185.230451,114.477621 187.789718,110.635773 C187.919738,110.441449 187.95954,110.257819 187.907797,110.092274 C187.826867,109.82772 187.540292,109.7097 187.528352,109.704552 C187.501817,109.695179 185.219837,108.957357 184.441045,108.778875 C186.246728,95.4698326 187.527025,77.1168298 186.979084,72.3845526 C186.953877,72.1431005 186.864985,71.9729355 186.716391,71.8801302 C186.488193,71.7305593 186.197639,71.8311533 186.185698,71.8352457 C186.157837,71.848183 183.869223,72.9037606 183.148807,73.2689091 C178.400431,60.4141239 165.450194,35.4707582 162.649461,31.4124085 C162.511481,31.2113524 162.3536,31.1029695 162.177144,31.0891081 C161.911798,31.0669299 161.700847,31.2835636 161.692887,31.2928045 C161.676966,31.3119464 160.074273,33.1363688 159.613897,33.7767648 C153.44459,31.3299002 137.319482,26.0355109 122.973654,22.4241579 L122.873619,22.3984153 Z M40.1709436,33.9005932 L40.2087554,33.8865998 C46.3168998,31.4537286 62.3988895,26.1680522 76.7607704,22.5479862 L69.425929,40.1650155 L48.9284404,45.4223091 L48.9175612,45.4377546 C43.1939039,53.3972264 31.3217695,76.3561697 29.1798923,80.9911531 C28.6491993,80.7230343 26.6154508,80.4068627 26.5264271,80.3930013 C26.5268251,80.3914171 26.3351122,80.3310871 26.170332,80.4274567 C26.0676429,80.4883148 26.0003776,80.5940574 25.9707914,80.7420442 L25.96973,80.7564336 C26.4362092,87.7749153 28.1552567,94.3972254 30.1464171,102.065344 C30.9875656,105.305344 31.8576368,108.655179 32.699316,112.29069 C32.1691537,112.385476 29.4597003,112.637225 29.4317062,112.639733 L29.4181735,112.643298 C29.4083557,112.646994 29.1745854,112.737687 29.1239042,112.924882 C29.0969715,113.027588 29.1285478,113.134255 29.2177042,113.24409 C32.0768131,116.704288 38.055999,121.968842 45.213589,127.328314 C52.6137056,132.868644 59.7340143,137.376894 64.7491964,139.696366 L64.7632598,139.702967 L64.7777212,139.700327 C66.4122558,139.477224 98.2461441,123.846994 99.9086727,123.030096 C101.570671,123.846994 133.404294,139.477224 135.034848,139.700327 L135.049442,139.702967 L135.062709,139.696366 C140.079086,137.378214 147.19966,132.869964 154.601501,127.328314 C161.755243,121.970954 167.737481,116.705872 170.601897,113.24409 C170.689461,113.135311 170.719976,113.02904 170.692115,112.92805 C170.640372,112.738215 170.398907,112.646994 170.388293,112.643298 L170.376352,112.639733 C170.347164,112.637225 167.64461,112.385476 167.111263,112.290162 C167.951085,108.659799 168.821422,105.314585 169.661243,102.078677 C171.653996,94.4054102 173.374768,87.7784797 173.841778,80.7564336 L173.843105,80.7487769 L173.841778,80.7420442 C173.811263,80.5940574 173.744926,80.4883148 173.641441,80.4290409 C173.480907,80.3335954 173.283223,80.3914171 173.275263,80.3939254 C173.193006,80.4068627 171.156471,80.7230343 170.627105,80.9911531 C168.467184,76.3304271 156.563739,53.313266 150.905224,45.4377546 L150.89461,45.4223091 L150.876036,45.4182167 L130.390886,40.1650155 L123.047155,22.5479862 C137.391125,26.1643558 153.489699,31.4526725 159.61257,33.8865998 L159.651046,33.9005932 L159.6736,33.868646 C160.096828,33.2637615 161.75259,31.3804613 161.769838,31.3609233 C161.769838,31.3598672 161.933026,31.1897022 162.141323,31.1897022 C162.15061,31.1897022 162.159897,31.1897022 162.170511,31.1907583 C162.312471,31.2010553 162.446471,31.2954448 162.56455,31.4691741 C165.36661,35.5316163 178.343382,60.5239589 183.071857,73.3576219 L183.091758,73.4117473 L183.1435,73.3849487 C183.79758,73.048183 186.200292,71.9394041 186.2255,71.9291071 C186.2255,71.9291071 186.472273,71.8465989 186.663322,71.9652787 C186.784055,72.0426385 186.855698,72.1869289 186.878253,72.3957738 C187.426193,77.1271268 186.141916,95.5048161 184.33358,108.810822 L184.326946,108.858347 L184.373382,108.867588 C185.097778,109.024816 187.468649,109.792208 187.493857,109.799865 C187.49253,109.799865 187.743282,109.904024 187.810946,110.123298 C187.852075,110.257819 187.817579,110.411482 187.704807,110.579139 C185.146867,114.418347 171.596946,128.550492 158.077541,137.343891 L158.054986,137.358412 L158.054986,137.386135 C157.964768,140.863363 159.06463,152.369633 160.74958,153.328049 L160.772135,153.34257 L160.797343,153.330689 C169.621441,149.156432 176.698233,140.384155 176.769877,140.295706 L176.781817,140.279864 L176.780491,140.261383 C176.631897,138.13465 176.16754,136.924089 175.35558,134.968974 L175.333025,134.912208 L175.282609,134.946531 L171.500095,137.386135 L171.588986,137.423099 C171.5996,137.428379 172.682214,137.882505 173.093501,138.900327 C173.344253,139.518148 173.301798,140.215178 172.967461,140.975574 C172.118352,142.875244 169.821778,145.016498 168.290728,145.751812 C164.822649,147.421778 164.245521,147.448181 162.116115,147.145871 C164.721818,145.194716 165.329461,142.167653 165.458154,140.524089 C165.545719,139.43366 165.44356,138.512208 165.298946,138.368313 C164.997778,138.067323 162.511481,139.33069 161.856075,139.673924 C161.761877,138.922769 161.635838,137.858742 161.629204,137.684485 C166.339105,134.73399 181.830035,122.690294 182.428391,122.224683 C185.574075,122.620723 187.439461,126.333066 188.045777,128.46838 C188.730372,130.83696 187.645104,137.999997 184.731599,150.365673 C179.693996,155.844221 171.990986,162.270623 166.97461,163.44554 L166.465144,163.564352 C161.491224,164.726068 158.490154,165.428379 154.962372,163.312207 C152.940432,162.096366 150.838887,160.599336 149.045145,159.099666 C147.840472,158.099006 146.010907,155.551151 144.91768,154.030359 C144.645699,153.651481 144.410868,153.326729 144.245026,153.104947 L144.202571,153.049501 L144.162769,153.106267 C144.118986,153.165673 139.834967,159.13927 137.41766,161.03762 C135.647799,162.430359 133.517066,163.881184 131.134519,164.077884 C129.319682,164.279864 127.441028,164.526729 125.622874,164.765672 C119.079959,165.626398 112.314154,166.517488 105.905902,165.700326 L102.233108,162.347191 C101.377896,150.83432 100.276576,136.669304 100.264768,136.526729 L100.260522,136.479205 L99.5547005,136.479205 L99.552047,136.526729 C99.5407698,136.669304 98.4471441,150.83432 97.5842372,162.347191 L93.9109125,165.700326 C87.4923127,166.517488 80.715097,165.626398 74.1643546,164.764352 C72.3530992,164.526729 70.480018,164.279864 68.6739369,164.079204 C66.2702954,163.879864 64.0599588,162.348511 62.4031351,161.03762 C59.9802559,159.13927 55.697961,153.165673 55.6548422,153.106267 L55.6145095,153.049501 L55.5724521,153.104947 C55.3894956,153.345211 55.127864,153.708247 54.8245729,154.128049 C53.6793373,155.718808 51.9483492,158.121448 50.770874,159.098346 C48.9797849,160.596696 46.8741275,162.092405 44.8430325,163.312207 C41.3236089,165.429699 38.322407,164.726068 33.3491497,163.564352 L32.8396843,163.44554 C30.439227,162.884484 27.2581201,161.095706 23.6402529,158.274584 C20.7565995,156.025079 17.6357263,153.14191 15.0755303,150.365673 C12.1639625,138.010558 11.0797698,130.847786 11.7612726,128.469436 C11.9323017,127.879997 13.5394393,122.70838 17.3771461,122.224683 C17.9766966,122.690294 33.4771794,134.73267 38.1845594,137.683165 C38.1751396,137.860063 38.0456505,138.922769 37.9513198,139.673924 C37.3671595,139.368973 35.3226645,138.322109 34.68371,138.322109 C34.6070249,138.322109 34.5515675,138.33795 34.5194605,138.369634 C34.3778982,138.508247 34.2726883,139.404617 34.3499041,140.471284 C34.4468882,141.805937 34.9672328,145.100986 37.6963218,147.145871 C35.5703654,147.446861 34.9952268,147.420458 31.5234329,145.751812 C29.9846884,145.011217 27.6877161,142.867323 26.8502825,140.975574 C26.5159459,140.215178 26.4729597,139.515508 26.7238449,138.896366 C27.1357954,137.879865 28.2112448,137.428379 28.222124,137.423099 L28.3122092,137.386135 L28.2303498,137.33333 L24.4782172,134.912208 L24.4548667,134.968974 C23.6381301,136.939931 23.1696608,138.157092 23.0312826,140.261383 L23.0296905,140.279864 L23.0421618,140.295706 C23.1126113,140.384155 30.1945775,149.156432 39.0173495,153.330689 L39.0412307,153.34257 L39.0644485,153.328049 C40.7488683,152.368313 41.8470049,140.863363 41.7567871,137.386135 L41.7562564,137.358412 L41.7335693,137.343891 C28.2578132,128.579799 14.6842769,114.431152 12.1069528,110.579139 C11.9924159,110.410426 11.9556256,110.256235 11.997086,110.120129 C12.0623878,109.903628 12.3090672,109.799865 12.3116676,109.798413 C12.3318738,109.792208 14.7236808,109.024816 15.4336155,108.867588 L15.4797858,108.857291 L15.4730194,108.810822 C13.6683977,95.4950471 12.3868137,77.1184139 12.9335735,72.3973579 C12.9594846,72.1860048 13.0341133,72.0399982 13.1569422,71.9642226 C13.3445422,71.8455428 13.5891917,71.9317474 13.5917125,71.9306913 C13.6114808,71.9394041 16.0167145,73.048183 16.6717224,73.3849487 L16.7225362,73.4117473 L16.7427026,73.3576219 C21.4827203,60.5007246 34.4531239,35.518811 37.2496109,31.4691741 C37.3662307,31.2963689 37.4962505,31.2025075 37.6382109,31.1907583 C37.6486921,31.1897022 37.6590406,31.1897022 37.6693892,31.1897022 C37.8771555,31.1897022 38.0419357,31.3609233 38.0435278,31.3623755 C38.0590505,31.3804613 39.7242327,33.2637615 40.1475931,33.868646 L40.1709436,33.9005932 Z" id="path32" fill="#FFFFFF"></path>
                        <path d="M93.2361363,90.1144532 C93.4408511,87.7733311 94.8298075,85.6384137 94.8298075,85.6384137 L91.7196809,85.091747 C91.7196809,85.091747 90.0410987,87.6702288 89.6653681,90.0267964 C90.8107363,91.9761033 93.9462036,92.5999977 94.4747739,92.3524729 C94.4514234,92.293199 93.2283086,90.1763674 93.2361363,90.1144532" id="path34" fill="#FFFFFF"></path>
                        <path d="M106.58373,90.1144532 C106.381669,87.7733311 104.982364,85.6384137 104.982364,85.6384137 L108.097134,85.091747 C108.097134,85.091747 109.765898,87.6702288 110.14415,90.0267964 C109.009263,91.9761033 105.868621,92.5999977 105.324395,92.3524729 C105.360748,92.293199 106.58373,90.1763674 106.58373,90.1144532" id="path36" fill="#FFFFFF"></path>
                        <polyline id="path38" fill="#231F20" points="136.776848 13.5004617 135.188749 13.5004617 135.188749 14.4749831 139.524511 14.4749831 139.524511 13.5004617 137.937739 13.5004617 137.937739 9.21514168 136.776848 9.21514168 136.776848 13.5004617"></polyline>
                        <polyline id="path40" fill="#231F20" points="140.130828 14.4749831 141.762709 14.4749831 142.991264 10.8601449 143.009838 10.8601449 144.177363 14.4749831 145.807917 14.4749831 145.807917 9.21514168 144.725303 9.21514168 144.725303 12.9408974 144.712036 12.9408974 143.410511 9.21514168 142.518947 9.21514168 141.229363 12.9073792 141.213442 12.9073792 141.213442 9.21514168 140.130828 9.21514168 140.130828 14.4749831"></polyline>
                    </g>
                </g>
            </g>
        </g>
    </g>
</svg>