<svg width="200" height="200" xmlns="http://www.w3.org/2000/svg"><g fill="none"><path d="M118.225 121.323v39.592h53.039v-19.172l-6.635-10.15v-1.223c3.144 1.484 11.19 5.811 11.19 5.811v-13.045c12.986 7.564 23.974 15.199 23.974 15.199l-11.196-35.786 7.688-16.813c-12.664-9.384-31.656-17.089-31.656-17.089l6.641-10.664v-18.71h-48.366L104.94 67.196c-5.306-.137-10.087 0-10.087 0L76.887 39.272H28.521v18.71l6.643 10.665S16.17 76.352 3.507 85.737l7.689 16.812L0 138.335s10.985-7.635 23.97-15.2v13.046s8.048-4.327 11.194-5.811v1.223l-6.636 10.15v19.172h53.04v-39.592l18.327 28.888 18.33-28.888" fill="#D3D5D7"/><path d="M187.548 145.14h-1.481v-4.326h-.162l-1.363 3.03H183.5l-1.381-3.084h-.198v4.38h-1.402v-5.535h2.408l1.115 2.71 1.166-2.71h2.341v5.536zm-7.901-4.341h-1.587v4.342h-1.494v-4.342h-1.586v-1.194h4.667v1.194z" fill="#D3D5D7"/><path d="M39.22 132.802l-6.635 10.15v13.906H77.51v-39.07a156.438 156.438 0 0 0-38.29 10.956v4.058m83.061 24.056h44.923V142.95l-6.632-10.15v-4.057a156.476 156.476 0 0 0-38.29-10.957v39.07M74.672 43.33H32.578v13.492l6.642 10.665v3.931C21.313 78.293 8.607 87.132 8.607 87.132l6.926 15.144-8.203 26.217c5.128-3.46 16.544-9.984 16.544-9.984V86.673c34.49-18.98 66.235-19.353 66.235-19.353L74.672 43.33m8.948 73.657l16.275 25.65 16.275-25.65a147.677 147.677 0 0 0-16.275-.922 147.7 147.7 0 0 0-16.275.922m108.841 11.506l-8.203-26.217 6.927-15.144s-12.709-8.839-30.613-15.714v-3.931l6.64-10.665V43.33H125.12l-15.44 23.99s31.747.374 66.236 19.353v31.836s11.418 6.524 16.544 9.984" fill="#711F23"/><path d="M28.028 89.208v40.213c20.495-10.92 45.639-18.045 71.867-18.045 26.23 0 51.371 7.125 71.867 18.045V89.208c-20.496-10.92-45.637-18.045-71.867-18.045-26.228 0-51.372 7.125-71.867 18.045" fill="#711F23"/><path d="M110.78 104.435c-3.158-.242-6.348-.39-9.509-.429v-4.432l1.288.022.807.012c.006 0-1.407-4.02-1.407-4.02l-.394-.008c-2.58-.037-5.178-.01-7.735.086l-.377.013-1.482 4.054.84-.033 1.29-.044v4.431c-3.003.103-6.028.301-9.019.588v-4.428l1.728-.16.36-.033c.003-.001.124-.337.124-.337l7.648-21.533c2.024-.059 4.078-.074 6.13-.051l7.315 21.355.126.355.372.024c.584.04 1.218.085 1.894.137v4.431zm-12.452-19.35l-.521-1.51a341.46 341.46 0 0 1-.539 1.502l-2.098 5.838-.277.772.821-.023c1.36-.034 2.733-.049 4.077-.042l.797.001-.26-.749-2-5.79zm46.944 4.738l-.735-.237v6.288l.39.126c2.298.741 4.614 1.552 6.891 2.413v3.958a154.035 154.035 0 0 0-6.546-2.287l-.735-.238v6.774l.39.124a150.74 150.74 0 0 1 6.596 2.296l.76.289v-1.966c1.764.672 3.53 1.38 5.271 2.12v6.313a152.154 152.154 0 0 0-20.64-6.994v-4.394l1.493.397.706.188c.003 0 .003-.732.003-.732V87.977l-.415-.11-1.787-.473v-4.422a150.625 150.625 0 0 1 20.64 7.042v5.95a156.646 156.646 0 0 0-5.272-2.109v-1.583c0 .002-.367-.133-.367-.133a145.13 145.13 0 0 0-6.643-2.316zm-12.281-.401c-1.421-.33-2.855-.643-4.285-.931V85.5l-.453-.086c-1.156-.23-2.336-.45-3.605-.668l-.654-.114v16.99c.003.002.464.086.464.086l1.723.31v4.418a149.191 149.191 0 0 0-9.96-1.483v-4.424l1.568.187.628.07c.008.005.008-.627.008-.627v-16.35l-.492-.063a158.04 158.04 0 0 0-3.579-.406l-.622-.063v2.992a140.503 140.503 0 0 0-4.357-.356v-7.446c7.921.537 15.86 1.724 23.616 3.53v7.425zm-73.422.483c-1.818.501-3.634 1.04-5.424 1.606V89.6l-.734.242a145.452 145.452 0 0 0-6.69 2.33l-.365.137v5.819l.76-.288c3.372-1.26 6.42-2.298 9.32-3.173l3.133 2.046v8.349l-4.444 5.612a149.839 149.839 0 0 0-10.094 3.519 256.317 256.317 0 0 0-3.946-2.43v-3.118a147.81 147.81 0 0 1 5.271-2.118v3.044l.76-.285a144.833 144.833 0 0 1 6.64-2.308l.39-.13v-7.482l-.735.237a155.09 155.09 0 0 0-9.49 3.399l-2.836-1.91V94.22l4.254-5.94a152.197 152.197 0 0 1 10.077-3.515c1.368.884 2.76 1.807 4.153 2.742v2.398zm27.074-3.796a160.66 160.66 0 0 0-4.357.439v-2.994l-.628.075c-1.156.136-2.375.299-3.623.477l-.483.068v16.987l.644-.09 1.553-.209v4.422c-3.317.438-6.65.995-9.933 1.656v-4.413l1.723-.34.45-.087c.006 0 .006-.465.006-.465v-16.53l-.668.125a146.1 146.1 0 0 0-3.543.719l-.446.096v2.992c-1.421.309-2.85.648-4.27 1.004v-7.418a148.827 148.827 0 0 1 23.575-3.954v7.44z" fill="#FFF"/></g></svg>