<svg width="200" height="200" fill="none" xmlns="http://www.w3.org/2000/svg"><path d="M2.33 135.193c4.308-3.537 7.824-6.949 11.049-10.736-5.014-3.704-7.261-9.488-6.658-17.269.645-8.385 4.473-13.608 7.594-16.52 3.766-3.538 8.614-5.702 13.316-5.93h.437c2.476-.063 4.765.312 6.804 1.123 1.29-3.162 2.476-6.2 3.537-9.071a124.45 124.45 0 0 1-1.623-2.56c-3.87-6.366-5.888-13.045-5.7-18.809.103-3.245.977-5.846 2.58-7.781 1.81-2.185 4.493-3.392 8.01-3.62h.145c3.017-.167 5.285.728 6.742 2.621 1.851 2.414 2.35 6.492 1.518 12.151-.686 4.64-2.122 9.405-3.079 12.567l-.187.604a139.548 139.548 0 0 1-1.145 3.62c2.705 4.078 5.743 8.926 8.01 14.148 2.664 6.138 3.788 11.714 3.476 17.04-.354 6.014-3.08 11.361-7.928 15.46-4.203 3.557-9.8 5.909-15.334 6.429a54.57 54.57 0 0 1-1.914.145c-3.184.167-7.907.063-12.422-1.331-4.64 4.744-10.111 7.657-16.749 8.863l-2.434.437 1.956-1.602v.021Zm22.097-13.774c1.997.312 4.328.416 6.929.271.665-.042 1.352-.084 2.06-.146 5.367-.499 9.862-2.518 12.941-5.847 2.31-2.496 3.807-5.721 4.016-8.634.333-4.578-.895-9.904-3.642-15.834-1.081-2.31-2.371-4.744-3.953-7.428a414.123 414.123 0 0 1-2.413 6.18c1.56 2.101 2.33 4.64 2.247 7.386-.104 3.766-1.769 7.053-3.142 9.176-1.498 2.288-3.412 3.433-3.495 3.474l-1 .583.459-1.04c1.29-2.934 2.226-7.636 1.498-11.527-2.726 6.075-5.535 11.735-7.824 15.646-.207.354-.416.728-.624 1.103-1.248 2.185-2.559 4.432-4.078 6.679m3.579-30.315c-.104 0-.229 0-.354.02-2.497.188-4.744.916-6.678 2.144-1.665 1.06-3.1 2.517-4.266 4.307-2.185 3.37-2.975 7.261-2.996 9.758 0 3.807.437 8.51 4.078 11.443 4.89-6.887 9.55-15.5 14.585-27.048-1.227-.5-2.704-.707-4.369-.624Zm13.191-40.78h-.125c-1.29.124-2.205.728-2.83 1.872-.852 1.581-1.019 4.078-.457 7.033.54 2.83 1.727 5.971 3.433 9.154 1.29-4.265 2.101-7.906 2.434-10.777.375-3.246.146-5.452-.686-6.554-.416-.562-.978-.79-1.769-.75" fill="#5D1725"/><path d="M43.672 155.874c-5.576-2.975-15.042-7.178-28.483-10.403-8.115-1.935-15.127-3.37-15.189-3.37l180.557-30.398c4.557-.729 7.719-1.956 9.405-3.662 1.415-1.415 1.581-2.955 1.581-4.162 0-1.269-.125-2.912-1.186-4.182-1.269-1.54-3.683-2.226-7.136-2.039-.375 0-.791.042-1.186.084-4.89.499-7.595 2.476-10.445 4.577-2.976 2.185-6.034 4.453-11.714 5.264-.583.083-1.145.146-1.685.166-3.85.208-6.971-.894-9.301-3.245a17.962 17.962 0 0 1-1.415 1.685c-1.415 1.498-3.766 3.412-6.949 4.182-.645.146-1.29.25-1.893.27-3.683.188-5.785-1.893-6.971-3.932-1.643 2.705-4.598 5.826-9.758 6.616-.624.105-1.248.167-1.831.188-3.079.166-5.534-.624-7.261-2.351a8.43 8.43 0 0 1-1.082-1.332c-1.311 1.602-2.767 2.955-4.369 4.036-2.143 1.457-4.515 2.393-7.075 2.83-.894.146-1.768.25-2.559.291-3.474.188-6.18-.624-8.052-2.413-1.144 1.415-3.1 3.225-5.992 3.849-.583.125-1.165.208-1.706.229-3.246.166-5.888-1.352-7.594-4.432a14.264 14.264 0 0 1-1.186-2.871c-.853 1.56-2.185 3.911-3.808 6.304-1.394 2.06-2.538 3.163-4.14 3.933-1.582.769-3.6 1.227-6.68 1.914l-3.14.707 1.872-1.664c6.45-5.784 14.585-16.396 16.561-34.123.437-3.786.854-7.677 1.27-11.547L61.379 79.89l.582-6.388 13.816-2.705c.624-6.158.998-10.05 1.02-10.195l.062-.749 5.68.895-.812 8.884 7.72-1.519-.5 5.743-7.76 1.706c-.77 8.489-1.748 19.412-2.165 23.927-.52 5.618.167 9.842 1.831 11.61.562.583 1.249.874 2.019.832.228 0 .478-.041.728-.124 1.519-.396 2.559-2.06 3.183-3.433-.666-4.37.291-9.467.853-12.526l.084-.395c.873-4.744 2.87-9.197 5.596-12.546 3.017-3.704 6.762-5.91 10.82-6.388l.707-.062c2.018-.104 4.245.333 6.325 1.227.063-.77.083-1.206.083-1.227l.042-.583 6.159-.624-.042.749s-.312 4.952-.853 14.398c-.042.707-.083 1.436-.125 2.101-.354 5.784-.728 11.777 1.415 13.941.645.645 1.477.936 2.58.873.603-.02 1.29-.166 2.039-.416 2.83-.894 4.869-3.703 6.242-8.53 1.228-4.328 1.706-9.53 2.122-14.107.104-1.27.229-2.434.333-3.558.395-3.787.812-7.657 1.228-11.547l-13.733 2.996.583-6.388 13.774-2.705c.645-6.283 1.061-10.174 1.061-10.215l.083-.729 5.68.895-.811 8.884 7.719-1.519-.499 5.743-7.761 1.706c-.77 8.489-1.748 19.412-2.164 23.927-.395 4.245-.458 9.738 1.477 11.756.5.52 1.061.728 1.769.707h.187c1.998-.229 3.724-1.415 5.098-3.516.312-.478.603-.999.853-1.54-1.332-3.932-1.582-9.03-.749-15.126.79-5.826 2.746-10.507 5.805-13.96 2.767-3.101 6.408-5.14 10.777-6.055a14.351 14.351 0 0 1 2.06-.271c3.267-.166 6.242.957 8.385 3.163 2.018 2.08 3.1 4.952 2.892 7.719-.229 2.954-.978 6.47-4.806 10.09-3.62 3.434-9.571 6.617-18.663 9.988.478 2.372 1.394 4.14 2.725 5.285 1.207 1.04 2.747 1.539 4.494 1.456.354 0 .708-.062 1.082-.125 2.039-.374 4.453-1.893 7.241-3.62 4.057-2.56 8.676-5.43 14.065-6.076a35.608 35.608 0 0 1 2.497-.208c4.494-.228 8.177.417 10.923 1.956 3.537 1.956 5.41 5.285 5.555 9.904.084 2.642-.374 4.89-1.414 6.825-.958 1.768-2.352 3.224-4.287 4.494-3.433 2.226-7.989 3.495-13.628 4.91h-.041c-.583.125-59.028 11.672-81.062 16.437-10.278 2.226-20.89 4.515-30.252 7.594-9.925 3.267-17.852 7.178-24.947 12.338l-.354.25-.353-.187.02-.063Zm60.693-73.425c-2.081.104-4.411 1.54-6.388 3.912-2.185 2.6-3.787 6.137-4.515 9.945-.229 1.207-.79 4.036-.832 6.783-.063 3.017.478 5.201 1.602 6.491.894 1.041 2.226 1.54 3.953 1.436a11.877 11.877 0 0 0 2.101-.333c2.456-.624 4.599-1.706 6.326-3.204 1.31-1.124 2.392-2.497 3.245-4.099-.104-1.123-.104-2.372-.041-3.662.208-4.494.603-10.84.915-15.438-1.81-1.29-3.911-1.914-6.242-1.831h-.083m58.903-12.63a8.1 8.1 0 0 0-2.518.562c-2.122.812-4.307 1.894-6.013 4.328-1.747 2.517-2.829 6.18-3.433 11.568a40.677 40.677 0 0 0-.187 2.123l.125-.063c4.203-1.727 8.551-3.537 11.818-5.784 1.706-1.186 2.975-2.393 3.849-3.683.957-1.415 1.415-2.913 1.415-4.536 0-1.414-.479-2.58-1.373-3.391-.916-.811-2.185-1.207-3.683-1.123ZM186.758 123.417h-1.248v-.666h3.287v.666h-1.248v3.682h-.791v-3.682ZM192.958 125.331c-.02-.562-.062-1.249-.041-1.831a25.895 25.895 0 0 1-.52 1.664l-.625 1.894h-.624l-.582-1.852a27.981 27.981 0 0 1-.437-1.685c0 .561-.042 1.269-.084 1.851l-.104 1.748h-.749l.292-4.349h1.04l.562 1.748c.166.52.291 1.02.395 1.519.125-.478.271-.999.437-1.519l.603-1.748h1.041l.249 4.349h-.769l-.084-1.769v-.02Z" fill="#5D1725"/></svg>