<svg width="200" height="200" xmlns="http://www.w3.org/2000/svg"><g fill="none"><path d="M175.832 122.89c-.724-10.547-4.36-17.708-6.134-20.622 5.1 2.598 5.767 2.886 5.767 2.886l.042-.51c1.26-19.712-14.113-29.396-15.256-30.086-6.242-12.299-16.778-19.72-19.433-21.453a585.295 585.295 0 0 1 8.031-4.266l.37-.192-.248-.335c-11.436-15.414-28.816-17.078-35.757-17.078-1.414 0-2.47.065-3.079.116 1.035-4.31 2.054-7.385 2.064-7.415l.134-.405-.421-.06c-3.883-.553-7.639-.832-11.159-.832-13.253 0-21.462 3.98-26.015 7.32-3.523 2.583-5.467 5.199-6.309 6.52-.659-3.797-.87-5.428-.878-5.499l-.058-.458-.427.173c-12.733 5.108-15.288 15.882-15.774 19.09-.633-1.928-1.073-3.39-1.094-3.458l-.169-.563-.42.411c-3.117 3.051-5.074 6.976-5.82 11.666-4.446 1.77-10.684 5.542-15.344 13.483-.282.443-1.026 1.68-1.854 3.592-2.153 4.846-5.209 14.87-1.483 27.533a41.366 41.366 0 0 0 4.958 10.756l5.164 7.328 5.838-16.642h19.935c.717 1.044.616 3.066-3.524 6.86l-4.983 4.53c-1.584 1.4-4.255 4.034-6.59 7.61H7.033L0 151.19h44.684c0 .764.016 1.532.065 2.306l.03.459.495-.163c1.118-.37 4.146-1.368 7.917-2.602h11.044a387.385 387.385 0 0 1-10.11 9.157l-.465.403.581.201c6.957 2.418 14.294 3.643 21.809 3.643 9.312 0 16.426-1.881 19.452-2.845-3.315 5.331-10.808 14.565-10.885 14.66l-.412.507.649.07a71.46 71.46 0 0 0 7.729.428c11.267 0 21.656-2.75 30.878-8.168 8.013-4.71 12.34-9.791 13.763-11.659a803.67 803.67 0 0 0 2.915 12.625l.115.476.418-.26c9.375-5.806 14.877-12.825 18.103-19.238h33.51l7.034-28.3h-23.487" fill="#15213B"/><path d="M63.81 99.444h20.424a2.742 2.742 0 0 0-.287-.273c-.86-.708-2.414-1.272-4.433-1.72-1.505-.335-3.269-.604-5.193-.82-5.318-.595-11.865-.784-17.618-.805a339.643 339.643 0 0 0-7.195.054c-1.57.072-4.052.106-4.871.265 0 0-2.156.122-2.765 3.3H59.49c.045-.003.09-.008.134-.01 1.17-.052 2.58-.037 4.188.01" fill="#4C4E56"/><path d="M53.56 67.45s.337 1.35 1.435 2.929a10.945 10.945 0 0 0 3.99 3.499s-.078.198-.242.436c-.31.447-.928 1.03-1.931.672-.066-.024-.125-.055-.19-.08a7.548 7.548 0 0 1-2.692-1.785 6.578 6.578 0 0 1-1.305-1.902s-1.67-3.063.934-3.768zm-.102 24.247c4.717-.108 10.449-.14 16.128.068 4.485.165 8.934.48 12.825 1.027 1.18.166 2.308.353 3.37.565a38.43 38.43 0 0 1 2.72.634 12.608 12.608 0 0 0-.118-1.166c-.25-1.672-.933-3.977-2.746-6.121-2.751-3.256-8.105-6.137-18.494-5.855 0 0 .881-4.316-.088-8.857-.14-.655-.32-1.316-.546-1.97a14.414 14.414 0 0 0-.524-1.309c-.6-1.307-1.422-2.545-2.534-3.612a11.318 11.318 0 0 0-3.338-2.202c-1.86-.812-4.174-1.286-7.046-1.268h-.157s-.438-.001-1.2.083c-.634.07-1.494.2-2.512.44a24.3 24.3 0 0 0-5.352 1.964c-3.606 1.823-7.645 4.978-10.84 10.461 0 0-9.926 14.923 1.01 34.767.235-1.878.996-6.997 2.713-11.172 1.314-3.198 3.188-5.84 5.815-6.053 0 0 4.526-.28 10.914-.424z" fill="#9FA7AA"/><path d="M64.273 59.956c1.43.826 2.795 1.87 3.922 3.19 7.19-17.681 23.839-15.627 23.839-15.627-.626 2.016-1.063 5.024-1.36 7.802 11.881-8.772 23.812-2.417 23.812-2.417a23.23 23.23 0 0 0-1.32 1.898c-.97 1.53-1.966 3.363-2.85 5.102l-.223.438a22.417 22.417 0 0 1 6.918 4.793c3.888 3.945 5.252 8.122 5.252 8.122-.388.053-.807.13-1.245.22-.835.175-1.743.408-2.683.678-1.09.313-2.22.675-3.313 1.048-.738.252-1.459.506-2.14.755 4.362 4.565 5.603 9.834 5.953 12.248a13 13 0 0 1 .136 1.335c-1.87-.276-4.489-.196-7.008.008-.667.08-1.295.182-1.89.303-1.875.386-3.402.962-4.641 1.656-1.666.934-2.815 2.073-3.607 3.23a9.944 9.944 0 0 0-1.569 3.813c3.337 1.894 6.356 4.222 9.02 6.671a64.672 64.672 0 0 1 3.66 3.655 70.603 70.603 0 0 1 2.169 2.456c4.848 5.746 7.53 10.706 7.53 10.706a64.823 64.823 0 0 0 .818-3.41c1.436-6.799 1.521-12.777 1.06-17.599a51.955 51.955 0 0 0-.775-5.282 44.607 44.607 0 0 0-1.28-4.948c18.473 3.4 28.678 14.567 28.678 14.567-4.448-15.025-16.193-24.359-25.899-29.726 3.653-1.153 14.949-4.402 24.732-3.885 0 0-5.998-12.245-22.449-19.24 5.226-2.965 10.045-5.724 10.045-5.724-14.492-13.4-37.189-8.203-37.189-8.203 1.094-6.017 1.914-8.75 1.914-8.75-24.245-1.642-35.456 18.867-35.456 18.867-1.917-2.049-3.282-7.839-3.282-7.839-6.627 3.788-7.65 11.4-7.708 15.327-.004.327-.003.63.003.9 1.927.31 5.327 1.075 8.426 2.862" fill="#20335C"/><path d="M149.693 91.002c10.963 13.923 12.006 27.566 12.006 27.566a94.047 94.047 0 0 1 5.73 4.322h3.158c-2.601-23.145-20.894-31.888-20.894-31.888m10.007-.058c4.944 2.072 8.88 4.593 8.88 4.593-4.44-18.133-21.661-18.085-21.661-18.085 10.09 7.033 12.781 13.492 12.781 13.492m-29.162 21.883a56.209 56.209 0 0 1-.296 3.018 53.76 53.76 0 0 1-1.368 7.045h5.933c-.989-3.154-2.39-6.505-4.27-10.063m-21.222 41.628a53.814 53.814 0 0 1-3.262 7.217 55.291 55.291 0 0 1-5.518 8.256l.056-.015c.187-.048.382-.101.584-.158.197-.052.4-.11.612-.17 4.72-1.342 12.868-4.177 20.107-9.267 3.52-2.477 6.817-5.496 9.406-9.128h-20.92a52.268 52.268 0 0 1-1.064 3.265m-39.756 2.732s3.458.045 8.538-.522c4.103-.458 9.265-1.317 14.52-2.92a57.615 57.615 0 0 0 6.844-2.555H76.491a127.441 127.441 0 0 1-6.93 5.997m44.263-36.506a56.16 56.16 0 0 0-7.003-8.315 54.5 54.5 0 0 0-6.347-5.325c-.04 3.676-.714 9.155-3.386 15.849h18.174c-.472-.758-.95-1.5-1.438-2.209m16.951-21.359c3.29 3.719 9.263 11.803 11.76 23.568h12.473c-4.628-12.35-17.637-20.242-24.233-23.568m12.861 53.236a136.45 136.45 0 0 1 .953 6.105c2.243-2.572 4.11-5.06 5.677-7.473h-6.887c.086.45.173.893.257 1.368m-52.761-35.7a58.11 58.11 0 0 0-2.39.271c-5.667.755-10.544 2.266-14.717 4.21a46.57 46.57 0 0 0-3.02 1.551h18.13c.294-.644.562-1.269.779-1.838.964-2.524 1.218-4.194 1.218-4.194m-30.915-.045s-.056.03-.15.084c-.585.332-2.855 1.677-5.205 3.788a26.202 26.202 0 0 0-2.175 2.205h3.982a69.73 69.73 0 0 1 3.387-5.827l.161-.25" fill="#20335C"/><path d="M101.576 68.84c.23-.722.427-1.488.58-2.308a21.168 21.168 0 0 0-2.41-.236c-3.943-.17-8.172.633-12.076 1.79a5.912 5.912 0 0 1 .328 4.767 5.95 5.95 0 0 1-5.597 3.945 5.947 5.947 0 0 1-5.734-4.38 74.039 74.039 0 0 0-2.68 1.37c.137.314.483 1.02 1.128 1.859.233.302.503.619.819.942 2.81.659 6.19 1.758 9.393 3.59a22.756 22.756 0 0 0 2.976-.194 26.99 26.99 0 0 0 1.53-.24s4.92-.854 8.64-5.218c.14-.164.278-.33.414-.504.992-1.27 1.876-2.815 2.528-4.683.057-.162.109-.332.161-.5m-87.535 65.972h-.3l-3.164 12.772H4.613l5.241-21.086h7.47c1.236 0 1.506.361 1.567 1.627l.482 9.127h.27l5.001-9.52c.512-.932.904-1.234 1.838-1.234h8.313l-5.241 21.086h-6.085l3.163-12.772h-.301l-6.597 11.566c-.512.904-.904 1.206-1.686 1.206H16.33c-1.144 0-1.385-.362-1.476-1.568l-.813-11.204" fill="#FFF"/><path d="M35.807 125.707h-9.325c-1.363 0-1.96.604-2.532 1.645l-3.914 7.452-.355-6.72c-.07-1.467-.488-2.377-2.357-2.377H9.236l-.15.6-5.24 21.086-.245.981h7.596l.149-.602 2.198-8.878.521 7.18c.107 1.422.523 2.3 2.265 2.3h1.718c1.22 0 1.812-.614 2.375-1.605l4.3-7.54-2.022 8.164-.242.981h7.713l.15-.6 5.241-21.085.244-.982zm-1.012.79l-5.241 21.087h-6.085l3.163-12.772h-.301l-6.597 11.566c-.512.904-.904 1.206-1.686 1.206H16.33c-1.144 0-1.385-.362-1.476-1.568l-.813-11.204h-.3l-3.164 12.772H4.613l5.241-21.086h7.47c1.236 0 1.506.361 1.567 1.627l.482 9.127h.27l5.001-9.52c.512-.932.904-1.234 1.838-1.234h8.313z" fill="#4C4E56"/><path d="M40.631 142.431c.181.181.452.272 1.567.272h2.018c.934 0 1.265-.06 1.506-.301.24-.24.783-.754 1.928-5.36 1.084-4.43.813-5.183.602-5.394-.18-.18-.452-.27-1.566-.27h-2.018c-.934 0-1.266.06-1.506.3-.241.242-.783.753-1.928 5.363-1.115 4.427-.813 5.18-.603 5.39zm-.903 5.153c-2.68 0-3.765-.513-4.368-1.115-1.385-1.387-1.957-4.278-.572-10.092 1.265-5.271 2.861-7.198 3.795-8.132 1.416-1.415 2.862-1.747 5.06-1.747h5.513c2.68 0 3.765.513 4.367 1.115 1.386 1.385 1.958 4.278.573 10.09-1.266 5.271-2.862 7.2-3.796 8.132-1.416 1.417-2.861 1.749-5.06 1.749h-5.512z" fill="#FFF"/><path d="M41.234 141.862c-.043-.3-.056-1.357.767-4.629.719-2.893 1.295-4.57 1.714-4.987.053-.034.242-.077.953-.077h2.018c.566 0 .834.026.959.048.041.319.034 1.377-.764 4.635-.717 2.889-1.293 4.566-1.712 4.984-.054.032-.243.076-.953.076h-2.018c-.574 0-.841-.026-.964-.05zm7.922-16.155h-5.513c-2.247 0-3.972.331-5.62 1.979-1.109 1.11-2.73 3.198-4.005 8.507-1.302 5.464-1.046 9.007.782 10.835.932.93 2.452 1.346 4.928 1.346h5.512c2.248 0 3.972-.33 5.62-1.978 1.109-1.11 2.73-3.198 4.005-8.507 1.302-5.464 1.046-9.007-.782-10.835-.931-.932-2.451-1.347-4.927-1.347zm-6.958 16.996h2.018c.934 0 1.265-.06 1.506-.301.24-.24.783-.754 1.928-5.36 1.084-4.43.813-5.183.602-5.394-.18-.18-.452-.27-1.566-.27h-2.018c-.934 0-1.266.06-1.506.3-.241.242-.783.753-1.928 5.363-1.115 4.427-.813 5.18-.603 5.39.181.181.452.272 1.567.272zm6.958-16.205c2.68 0 3.765.513 4.367 1.115 1.386 1.385 1.958 4.278.573 10.09-1.266 5.271-2.862 7.2-3.796 8.132-1.416 1.417-2.861 1.749-5.06 1.749h-5.512c-2.68 0-3.765-.513-4.368-1.115-1.385-1.387-1.957-4.278-.572-10.092 1.265-5.271 2.861-7.198 3.795-8.132 1.416-1.415 2.862-1.747 5.06-1.747h5.513z" fill="#4C4E56"/><path d="M73.936 147.584h-3.795c-1.687 0-2.38-.454-2.892-1.838l-3.825-10.633h-.151l-3.072 12.47h-6.115l5.241-21.085h4.85c1.626 0 2.349.481 2.8 1.808l3.224 9.397h.15l2.712-11.205h6.114l-5.24 21.086" fill="#FFF"/><path d="M80.19 125.707h-7.75l-.147.606-2.135 8.825-2.431-7.089c-.567-1.663-1.596-2.342-3.55-2.342h-5.468l-.15.6-5.241 21.086-.244.981h7.746l.148-.602 2.507-10.176 3.028 8.418c.637 1.722 1.622 2.36 3.637 2.36h4.414l.15-.6 5.24-21.085.244-.982zm-1.013.79l-5.24 21.087H70.14c-1.687 0-2.38-.454-2.892-1.838l-3.825-10.633h-.151l-3.072 12.47h-6.115l5.241-21.085h4.85c1.626 0 2.349.481 2.8 1.808l3.224 9.397h.15l2.712-11.205h6.114z" fill="#4C4E56"/><path d="M86.307 134.812h-.302l-3.163 12.772h-5.964l5.241-21.086h7.47c1.236 0 1.507.361 1.567 1.627l.482 9.127h.271l5-9.52c.512-.932.904-1.234 1.837-1.234h8.314l-5.24 21.086h-6.085l3.163-12.772h-.302L92 146.378c-.512.904-.903 1.206-1.686 1.206h-1.718c-1.144 0-1.386-.362-1.476-1.568l-.812-11.204" fill="#FFF"/><path d="M108.071 125.707h-9.325c-1.362 0-1.959.604-2.531 1.645l-3.914 7.452-.355-6.72c-.07-1.467-.489-2.377-2.356-2.377H81.5l-.148.6-5.242 21.086-.244.981h7.596l.149-.602 2.199-8.878.52 7.18c.107 1.422.523 2.3 2.265 2.3h1.718c1.22 0 1.813-.614 2.375-1.605l4.3-7.542-2.022 8.166-.242.981h7.713l.15-.6 5.24-21.085.244-.982zm-1.011.79l-5.24 21.087h-6.085l3.163-12.772h-.302L92 146.378c-.512.904-.903 1.206-1.686 1.206h-1.718c-1.144 0-1.386-.362-1.476-1.568l-.812-11.204h-.302l-3.163 12.772h-5.964l5.241-21.086h7.47c1.236 0 1.507.361 1.567 1.627l.482 9.127h.271l5-9.52c.512-.932.903-1.234 1.837-1.234h8.314z" fill="#4C4E56"/><path d="M112.897 142.431c.18.181.45.272 1.566.272h2.019c.933 0 1.265-.06 1.505-.301.24-.24.783-.754 1.928-5.36 1.085-4.43.815-5.183.602-5.394-.179-.18-.452-.27-1.566-.27h-2.017c-.934 0-1.265.06-1.506.3-.242.242-.784.753-1.93 5.363-1.113 4.427-.812 5.18-.601 5.39zm-.904 5.153c-2.68 0-3.765-.513-4.368-1.115-1.385-1.387-1.957-4.278-.572-10.092 1.265-5.271 2.861-7.198 3.795-8.132 1.417-1.415 2.863-1.747 5.061-1.747h5.512c2.68 0 3.765.513 4.368 1.115 1.386 1.385 1.958 4.278.574 10.09-1.267 5.271-2.864 7.2-3.797 8.132-1.415 1.417-2.862 1.749-5.06 1.749h-5.513z" fill="#FFF"/><path d="M113.5 141.862c-.043-.3-.055-1.357.767-4.629.718-2.893 1.294-4.57 1.713-4.987.053-.034.243-.077.954-.077h2.017c.566 0 .834.026.959.048.043.319.035 1.377-.764 4.635-.717 2.889-1.293 4.566-1.71 4.984-.056.032-.243.076-.954.076h-2.02c-.572 0-.84-.026-.961-.05zm7.92-16.155h-5.51c-2.249 0-3.972.331-5.62 1.979-1.11 1.108-2.732 3.196-4.006 8.507-1.302 5.462-1.046 9.007.782 10.835.93.93 2.45 1.346 4.927 1.346h5.514c2.247 0 3.97-.33 5.62-1.978 1.107-1.11 2.73-3.198 4.003-8.507 1.302-5.464 1.047-9.007-.781-10.835-.932-.932-2.452-1.347-4.928-1.347zm-6.957 16.996h2.019c.933 0 1.265-.06 1.505-.301.24-.24.783-.754 1.928-5.36 1.085-4.43.815-5.183.602-5.394-.179-.18-.452-.27-1.566-.27h-2.017c-.934 0-1.265.06-1.506.3-.242.242-.784.753-1.93 5.363-1.113 4.427-.812 5.18-.601 5.39.18.181.45.272 1.566.272zm6.958-16.205c2.68 0 3.765.513 4.368 1.115 1.386 1.385 1.958 4.278.574 10.09-1.267 5.271-2.864 7.2-3.797 8.132-1.415 1.417-2.862 1.749-5.06 1.749h-5.513c-2.68 0-3.765-.513-4.368-1.115-1.385-1.387-1.957-4.278-.572-10.092 1.265-5.271 2.861-7.198 3.795-8.132 1.417-1.415 2.863-1.747 5.061-1.747h5.512z" fill="#4C4E56"/><path d="M135.11 139.09c-.451 1.867-.48 2.558-.21 2.831.24.24.782.3 1.988.3h1.445c1.025 0 1.597 0 1.96-.362.299-.3.51-.783.993-2.74l3.133-12.621h6.475l-3.133 12.621c-1.174 4.67-1.987 5.814-2.95 6.777-1.417 1.415-2.983 1.688-5.693 1.688h-4.58c-2.95 0-4.608-.392-5.542-1.326-1.114-1.114-1.325-3.284-.301-7.379l3.071-12.381h6.478l-3.134 12.592" fill="#FFF"/><path d="M151.907 125.707h-8.108l-.148.6-3.134 12.621c-.429 1.747-.625 2.212-.785 2.372-.13.13-.717.13-1.4.13h-1.444c-.696 0-1.156-.023-1.371-.071-.009-.216.04-.752.363-2.084l3.131-12.586.244-.982h-8.108l-.15.6-3.07 12.38c-1.054 4.216-.898 6.724.509 8.13 1.106 1.107 2.874 1.557 6.102 1.557h4.58c2.81 0 4.64-.306 6.251-1.919 1.032-1.03 1.92-2.21 3.16-7.144l3.134-12.622.244-.982zm-1.013.79l-3.133 12.622c-1.174 4.67-1.987 5.814-2.95 6.777-1.417 1.415-2.983 1.688-5.693 1.688h-4.58c-2.95 0-4.608-.392-5.542-1.326-1.114-1.114-1.325-3.284-.301-7.379l3.071-12.381h6.478l-3.134 12.592c-.451 1.867-.48 2.558-.21 2.831.24.24.782.3 1.988.3h1.445c1.025 0 1.597 0 1.96-.362.299-.3.51-.783.993-2.74l3.133-12.621h6.475z" fill="#4C4E56"/><path fill="#FFF" d="M164.867 131.408l-4.005 16.176h-6.477l4.005-16.176h-6.084l1.235-4.91h18.795l-1.234 4.91h-6.235"/><path d="M173.352 125.707h-20.427l-.151.599-1.234 4.91-.25.983h6.09l-3.764 15.194-.242.981h8.106l.15-.602 3.856-15.573h6.234l.15-.6 1.235-4.909.247-.983zm-1.016.79l-1.234 4.911h-6.235l-4.005 16.176h-6.477l4.005-16.176h-6.084l1.235-4.91h18.795z" fill="#4C4E56"/><path fill="#FFF" d="M189.464 147.584h-6.477l2.019-8.165h-6.868l-2.018 8.165h-6.476l5.242-21.086h6.475l-1.989 7.952h6.87l1.986-7.952h6.476l-5.24 21.086"/><path d="M195.718 125.707h-8.106l-.15.599-1.84 7.353h-5.236l1.744-6.969.245-.983h-8.107l-.15.6-5.242 21.086-.243.981h8.107l.148-.602 1.87-7.56h5.238l-1.777 7.18-.242.982h8.107l.149-.6 5.239-21.085.246-.982zm-1.012.79l-5.242 21.087h-6.477l2.019-8.165h-6.868l-2.018 8.165h-6.476l5.242-21.086h6.475l-1.989 7.952h6.87l1.986-7.952h6.478z" fill="#4C4E56"/></g></svg>