<svg width="200" height="200" xmlns="http://www.w3.org/2000/svg"><g fill="none"><path d="M149.876 135.953c.026.016.066.023.08.031-.01 0-.014-.008-.014-.008-.016-.007-.04-.023-.066-.023" fill="#1D2953"/><path d="M5.664 132.69s27.948-52.083 94.72-66.056c5.035-8.188 17.417-15.414 25.678-19.464 16.122-7.9 14.544-14.659 14.544-14.659s12.06 8.378 4.722 24.2c-1.055 2.277-1.843 4.39-2.402 6.344 12.014 2.647 23.077 8.332 31.8 15.802 4.164 3.565 5.54 6.856 6.043 9.026.328 1.401.355 1.512 1.564 2.32 3.162 2.098 11.557 8.982 14.466 16.665 0 0 .815 3.295-3.477 6.233-2.889 7.387-8.802 9.417-15.492 10.172-4.333 5.708-13.466 7.446-13.466 7.446s1.029-4.498 1.29-9.705c-10.524-4.492-16.79.669-16.79.669-.187 1.197-.445 2.4-.7 3.576-1.468 6.852-1.477 8.746 1.712 10.719-.06-.043-.108-.07.014.004.144.09.075.048.003.002 4.625 2.44 10.154-.44 12.494-1.42 0 0 1.78 5.451-3.292 10.873.078 1.527-.385 4.522-3.478 6.298-2.152 1.24-5.567 2.755-9.605 2.938-13.595.633-12.086-11.946-26.252-16.234-10.72-3.241-25.5 6.323-20.682 29.072-7.244-6.3-18.033-19.266-18.082-35.868-20.863-.794-40.223 1.824-44.174 2.902a80.315 80.315 0 0 1 3.6-6.513c-21.18 1.745-34.758 4.659-34.758 4.659" fill="#1D2953"/><path d="M196.799 106.868c-2.909-7.683-11.304-14.567-14.466-16.664-1.209-.81-1.236-.92-1.564-2.321-.503-2.17-1.88-5.46-6.043-9.026-8.723-7.47-19.786-13.155-31.8-15.802.56-1.955 1.347-4.067 2.402-6.344 7.339-15.822-4.722-24.2-4.722-24.2s1.578 6.758-14.544 14.659c-8.261 4.05-20.643 11.276-25.678 19.464-66.772 13.973-94.72 66.057-94.72 66.057s13.577-2.914 34.759-4.659a80.315 80.315 0 0 0-3.6 6.513c3.95-1.078 23.31-3.696 44.173-2.902.05 16.602 10.838 29.568 18.082 35.868-4.817-22.75 9.962-32.313 20.682-29.072 14.166 4.288 12.657 16.867 26.252 16.234 4.038-.183 7.453-1.698 9.605-2.938 3.093-1.776 3.556-4.771 3.478-6.298 5.073-5.422 3.292-10.872 3.292-10.872-2.34.978-7.869 3.86-12.494 1.42.072.045.141.088-.003-.003-.122-.074-.075-.047-.014-.004-3.189-1.973-3.18-3.867-1.711-10.719.254-1.177.512-2.38.7-3.576 0 0 6.265-5.16 16.788-.669-.26 5.207-1.289 9.705-1.289 9.705s9.133-1.738 13.466-7.446c6.69-.755 12.603-2.785 15.492-10.172 4.292-2.938 3.477-6.233 3.477-6.233zm-1.036 8.126c-3.388 7.735-9.576 10.087-16.386 11.076-2.486 2.726-7.543 6.078-14.176 7.505l.023.072c.089.277 2.069 6.594-3.173 12.936-.234 2.677-1.611 5.808-4.937 7.719-2.44 1.402-6.88 3.136-11.52 3.348-14.95 0-14.067-12.548-26.706-16.374-1.068-.321-2.188-.513-3.34-.487-14.924.354-16.79 18.283-12.159 34.42-8.35-7.269-23.763-19.693-25.271-40.689-15.648-.375-31.782.263-46.892 4.624 1.25-2.558 2.484-5.128 3.801-7.648C23.24 132.646 11.56 134.39 0 136.94c18.212-34.858 54.635-63.391 98.552-72.949 6.026-8.713 18.917-15.816 26.192-19.48 18.01-9.08 11.682-17.589 11.43-18.436 0 0 8.54 4.108 11.749 10.345 2.42 4.716 4.408 12.276.116 21.533a47.718 47.718 0 0 0-1.261 2.985c11.021 2.933 21.3 8.31 29.896 15.67 3.76 3.223 6.253 7.089 7.141 10.904.017.01.014.01.007.006 4.044 2.688 12.729 10.307 15.824 18.474.459 1.851.142 5.857-3.883 9.001zm-10.087-.297c-3.938 3.27-9.971 3.493-10.21 3.525-1.453 2.886-4.634 5.712-6.583 6.766.804-2.574.923-5.62.858-7.827-7.598-5.25-19.9-4.17-27.962 2.351 5.238 2.055-3.488 15.173 4.732 20.598 4.834 2.6 9.787.098 12.514-1.048.043.245-1.334 3.448-5.659 5.648l.079.062s1.272 1.335-.412 2.337c-1.684 1.002-3.902 1.776-7.252 2.252-4.03.57-8.482-2.549-11.028-6.372-3.111-4.677-9.253-9.646-17.136-11.122 2-1.099 4.301-1.93 4.301-1.93-5.718-.733-10.426-.201-14.263.96 9.662-11.117 23.734-14.744 23.734-14.744-1.272-.581-3.12-1.069-5.084-1.465 12.32-6.258 25.868-8.269 37.23-4.858 3.053-6.424 16.327-7.347 20.852-3.862 0 0-.003 0-.003.004 2.257 1.515 4.59 5.994 1.292 8.725z" fill="#FFF"/><path d="M115.79 78.72c-8.324-7.339 9.937-18.995 12.063-19.378-4.75 5.188-5.808 9.28-5.35 12.336-2.067-.613-2.624-2.338-2.624-2.338-1.354 5.22 2.307 8.452 4.913 10.038-2.72.666-6.85 1.237-9.002-.659zm54.86 11.454c1.309 4.92 5.586 8.41 5.586 8.41-1.543-.087-2.657-.313-3.473-.59-1.717-.81-1.794-2.272-3.238-3.158.23.845-.003 1.364-.852 1.33a6.876 6.876 0 0 1-1.114-.248c-.066-.022-.119-.038-.187-.064-3.494-1.248-3.544-5.075-8.386-5.276 0 0 3.83-.902 6.569-.31-5.89-4.846-18.942-7.7-18.942-7.7s13.817-.05 24.038 7.606zm-39.261 25.98c-1.272-.582-3.12-1.07-5.084-1.466 12.32-6.258 25.868-8.269 37.23-4.858 3.053-6.424 16.327-7.347 20.852-3.862 0 0-.003 0-.003.004 1.935-.595 4.628.339 6.51 1.198-2.28-4.397-8.853-10.804-11.436-12.52-5.83-3.871-2.345-6.783-8.12-11.73a66.337 66.337 0 0 0-29.362-14.47c-.117 2.331.234 4.324 1.03 5.96-2.967-1.86-4.35-4.175-4.82-6.648l-.031-.004.024-.003c-1.562-8.23 6.988-18.14.88-18.338-7.598-.248-25.634 9.506-32.228 21.289h.007c-2.671 4.768-3.471 9.868-.943 14.773-5.968-4.143-8.082-8.454-7.723-12.66-33.01 9.234-58.261 30.257-71.324 49.18 6.896-.776 12.823-1.328 18.888-1.55 8.483-10.671 18.465-17.35 26.862-21.47-9.76 7.623-14.826 16.28-17.178 21.402 7.389.16 15.689.814 26.528 2.121 2.405-11.506 9.35-22.384 20.09-29.814 5.868-4.06 11.632-6.723 17.803-7.922-12.26 4.707-21.78 14.26-26.107 25.964 3.93-4.154 8.675-7.67 14.016-10.351-7.757 7.584-12.943 17.47-14.153 28.656-.405 3.727-.151 7.641.592 11.307 1.575-2.246 5.747-7.116 13.468-9.447 9.664-11.115 23.732-14.742 23.732-14.742z" fill="#B88F4B"/></g></svg>