<?xml version="1.0" encoding="UTF-8"?>
<svg width="200px" height="200px" viewBox="0 0 200 200" version="1.1" xmlns="http://www.w3.org/2000/svg" xmlns:xlink="http://www.w3.org/1999/xlink">
    <!-- Generator: Sketch 51.3 (57544) - http://www.bohemiancoding.com/sketch -->
    <title>montana-st</title>
    <desc>Created with Sketch.</desc>
    <defs></defs>
    <g id="montana-st" stroke="none" stroke-width="1" fill="none" fill-rule="evenodd">
        <g id="montana-st_BGL" transform="translate(0.000000, 25.870647)">
            <g id="montana-st">
                <g id="g10" transform="translate(99.999998, 74.698732) scale(-1, 1) rotate(-180.000000) translate(-99.999998, -74.698732) translate(0.000000, 0.059716)" fill-rule="nonzero">
                    <g id="g12">
                        <path d="M149.876226,39.2549627 C149.901559,39.2389627 149.941559,39.2322961 149.956226,39.2242961 C149.946892,39.2242961 149.941559,39.2322961 149.941559,39.2322961 C149.925559,39.2389627 149.901559,39.2549627 149.876226,39.2549627" id="path14" fill="#1D2953"></path>
                        <path d="M5.66352445,42.5176409 C5.66352445,42.5176409 33.6122942,94.6012896 100.383604,108.574256 C105.418577,116.762835 117.800544,123.988435 126.062019,128.038483 C142.183876,135.939091 140.606281,142.697315 140.606281,142.697315 C140.606281,142.697315 152.666663,134.31956 145.327865,118.496903 C144.273494,116.220549 143.485242,114.108129 142.925953,112.153129 C154.940433,109.506837 166.002728,103.821515 174.725679,96.3516424 C178.889613,92.7860687 180.266389,89.4957094 180.768575,87.3254782 C181.097263,85.924436 181.124039,85.8136989 182.332782,85.0048833 C185.494531,82.9076627 193.890432,76.0232312 196.798629,68.3408408 C196.798629,68.3408408 197.613656,65.0450532 193.322126,62.1072615 C190.433329,54.7201702 184.520214,52.6899889 177.829777,51.9357277 C173.497263,46.2278786 164.364477,44.4897394 164.364477,44.4897394 C164.364477,44.4897394 165.392892,48.9876223 165.653275,54.1944401 C155.130324,58.6860804 148.864477,53.5254031 148.864477,53.5254031 C148.677045,52.3284647 148.418849,51.126098 148.16475,49.9492442 C146.695625,43.0976539 146.687155,41.2037228 149.876226,39.2305386 C149.815297,39.2734221 149.767756,39.3005636 149.889614,39.2259245 C150.034149,39.1358149 149.96475,39.1786984 149.892619,39.2242961 C154.518302,36.7840073 160.046717,39.6653448 162.386881,40.6437944 C162.386881,40.6437944 164.167755,35.1932463 159.095351,29.7709253 C159.172674,28.244761 158.709559,25.2494023 155.616663,23.4735365 C153.465023,22.2331989 150.050269,20.7181625 146.012018,20.5357991 C132.417483,19.9028602 133.92568,32.4812716 119.75956,36.7693509 C109.039888,40.0108556 94.2606534,30.4467477 99.0784128,7.69704682 C91.8341507,13.9973669 81.0450799,26.9629241 80.9964461,43.5658441 C60.1327854,44.3594604 40.7729498,41.7411237 36.8224035,40.6638791 C37.953551,42.9551612 39.1595619,45.1210498 40.4226766,47.1759298 C19.2414749,45.4312767 5.66352445,42.5176409 5.66352445,42.5176409" id="path16" fill="#1D2953"></path>
                        <path d="M196.798629,68.3408408 C193.890432,76.0232312 185.494531,82.9076627 182.332782,85.0048833 C181.124039,85.8136989 181.097263,85.924436 180.768575,87.3254782 C180.266389,89.4957094 178.889613,92.7860687 174.725679,96.3516424 C166.002728,103.821515 154.940433,109.506837 142.925953,112.153129 C143.485242,114.108129 144.273494,116.220549 145.327865,118.496903 C152.666663,134.31956 140.606281,142.697315 140.606281,142.697315 C140.606281,142.697315 142.183876,135.939091 126.062019,128.038483 C117.800544,123.988435 105.418577,116.762835 100.383604,108.574256 C33.6122942,94.6012896 5.66352445,42.5176409 5.66352445,42.5176409 C5.66352445,42.5176409 19.2414749,45.4312767 40.4226766,47.1759298 C39.1595619,45.1210498 37.953551,42.9551612 36.8224035,40.6638791 C40.7729498,41.7411237 60.1327854,44.3594604 80.9964461,43.5658441 C81.0450799,26.9629241 91.8341507,13.9973669 99.0784128,7.69704682 C94.2606534,30.4467477 109.039888,40.0108556 119.75956,36.7693509 C133.92568,32.4812716 132.417483,19.9028602 146.012018,20.5357991 C150.050269,20.7181625 153.465023,22.2331989 155.616663,23.4735365 C158.709559,25.2494023 159.172674,28.244761 159.095351,29.7709253 C164.167755,35.1932463 162.386881,40.6437944 162.386881,40.6437944 C160.046717,39.6653448 154.518302,36.7840073 149.892619,39.2242961 C149.96475,39.1786984 150.034149,39.1358149 149.889614,39.2259245 C149.767756,39.3005636 149.815297,39.2734221 149.876226,39.2305386 C146.687155,41.2037228 146.695625,43.0976539 148.16475,49.9492442 C148.418849,51.126098 148.677045,52.3284647 148.864477,53.5254031 C148.864477,53.5254031 155.130324,58.6860804 165.653275,54.1944401 C165.392892,48.9876223 164.364477,44.4897394 164.364477,44.4897394 C164.364477,44.4897394 173.497263,46.2278786 177.829777,51.9357277 C184.520214,52.6899889 190.433329,54.7201702 193.322126,62.1072615 C197.613656,65.0450532 196.798629,68.3408408 196.798629,68.3408408 Z M195.763383,60.214416 C192.375405,52.4790998 186.186607,50.1270208 179.377318,49.1382574 C176.891252,46.4118977 171.833875,43.0601987 165.200816,41.6331007 L165.224313,41.5614472 C165.312837,41.2843329 167.292619,34.9674294 162.051089,28.6252843 C161.817482,25.9482949 160.439613,22.8172831 157.11393,20.9067686 C154.67404,19.5040979 150.234149,17.7708713 145.594259,17.5586251 C130.643166,17.5586251 131.527046,30.1063938 118.888248,33.9327969 C117.820489,34.2538804 116.699724,34.4457705 115.548631,34.4194433 C100.624314,34.0652472 98.7587407,16.135924 103.389068,0 C95.0398883,7.2681846 79.6256811,19.6919711 78.1180308,40.6883064 C62.4696706,41.0636728 46.3360644,40.4253057 31.2259555,36.0642158 C32.4756822,38.622027 33.709562,41.1925948 35.0270483,43.7126794 C23.2400541,42.5624243 11.5597265,40.8188569 0,38.267831 C18.2115569,73.1256089 54.6346981,101.658612 98.5516369,111.215935 C104.577593,119.929701 117.46885,127.032078 124.744259,130.697261 C142.753822,139.776079 136.426226,148.285199 136.17486,149.132827 C136.17486,149.132827 144.713658,145.024424 147.922947,138.787316 C150.343166,134.070944 152.330871,126.510962 148.038794,117.254367 C147.569395,116.238191 147.14863,115.241013 146.777865,114.269892 C157.799176,111.336714 168.078138,105.959448 176.674039,98.5992267 C180.434148,95.3767211 182.926771,91.5106914 183.815296,87.6951449 C183.831689,87.6859168 183.828684,87.6859168 183.82158,87.6891738 C187.865569,85.0016264 196.550542,77.3819327 199.64617,69.21561 C200.10464,67.364291 199.7877,63.35794 195.763383,60.214416 Z M185.676498,60.5110722 C181.738247,57.2416119 175.704914,57.0182376 175.466936,56.9859393 C174.012837,54.0999878 170.83169,51.2745617 168.882783,50.220116 C169.686608,52.7939407 169.806007,55.839484 169.740979,58.0477132 C162.142892,63.2974146 149.840433,62.2179987 141.779231,55.6961771 C147.017483,53.6415685 138.291253,40.5230149 146.511472,35.0985226 C151.345351,32.4991849 156.297537,35.0002705 159.024859,36.1459116 C159.067756,35.9016384 157.690706,32.6986747 153.366116,30.4985879 L153.444532,30.4367054 C153.444532,30.4367054 154.716936,29.1013455 153.032783,28.0992828 C151.34863,27.0969215 149.130597,26.3233899 145.780597,25.8476815 C141.751636,25.2770865 137.298904,28.3962103 134.753275,32.2193565 C131.6418,36.8966444 125.499997,41.8651602 117.61721,43.3411128 C119.616117,44.440342 121.918303,45.2716849 121.918303,45.2716849 C116.20027,46.0042329 111.491527,45.4725317 107.655189,44.3116914 C117.31721,55.4285623 131.388795,59.0549328 131.388795,59.0549328 C130.11721,59.6365743 128.268576,60.1243064 126.305188,60.5208431 C138.62486,66.7785783 152.173493,68.7892177 163.534695,65.3780789 C166.587701,71.8024626 179.862017,72.7252723 184.386607,69.2400374 C184.386607,69.2400374 184.383602,69.2400374 184.383602,69.2367804 C186.641252,67.721744 188.974312,63.2428602 185.676498,60.5110722 Z" id="path18" fill="#FFFFFF"></path>
                        <path d="M115.789888,96.4889782 C107.465571,103.827215 125.726773,115.483658 127.852729,115.866624 C123.103002,110.678805 122.044806,106.585873 122.503002,103.53083 C120.435789,104.143141 119.878686,105.868796 119.878686,105.868796 C118.525407,100.648678 122.186063,97.4161304 124.7918,95.8299835 C122.072948,95.1642035 117.941527,94.5934185 115.789888,96.4889782 Z M170.650815,85.0344675 C171.958739,80.114535 176.235788,76.6252288 176.235788,76.6252288 C174.693165,76.71181 173.578957,76.9370842 172.762564,77.2147413 C171.045624,78.0238283 170.969395,79.4864816 169.525406,80.3721074 C169.754367,79.5271938 169.522127,79.0087919 168.67322,79.0427187 C168.266936,79.0999872 167.893985,79.1846685 167.559012,79.2907916 C167.493165,79.311962 167.440433,79.3287897 167.371581,79.3543027 C163.878411,80.6028098 163.827592,84.4294844 158.985515,84.6306026 C158.985515,84.6306026 162.816936,85.5322419 165.554641,84.9411009 C159.665843,89.7863945 146.613111,92.6397848 146.613111,92.6397848 C146.613111,92.6397848 160.429504,92.6902593 170.650815,85.0344675 Z M131.388795,59.0549328 C130.11721,59.6365743 128.268576,60.1243064 126.305188,60.5208431 C138.62486,66.7785783 152.173493,68.7892177 163.534695,65.3780789 C166.587701,71.8024626 179.862017,72.7252723 184.386607,69.2400374 C184.386607,69.2400374 184.383602,69.2400374 184.383602,69.2367804 C186.319121,69.830907 189.011744,68.8975121 190.893438,68.0387563 C188.61311,72.4354015 182.040979,78.8421433 179.457919,80.5582978 C173.628411,84.4294844 177.11311,87.3414917 171.337701,92.2874801 C163.129231,99.3165755 153.004914,104.434641 141.976226,106.757678 C141.859286,104.427313 142.209833,102.434044 143.006554,100.798771 C140.039068,102.657961 138.655734,104.973399 138.186335,107.4468 C138.175133,107.447886 138.161199,107.4506 138.154641,107.4506 L138.179232,107.453585 C136.617483,115.684233 145.167483,125.592766 139.05874,125.79117 C131.460652,126.039243 113.425407,116.285688 106.831145,104.502494 L106.837975,104.502494 C104.166664,99.7342826 103.366664,94.6341307 105.895079,89.729126 C99.9267735,93.8728128 97.8125659,98.183691 98.1724019,102.390075 C65.1612006,93.1557354 39.910928,72.1322314 26.8480048,53.2100193 C33.743715,53.9854508 39.6713105,54.5375081 45.7357912,54.7595253 C54.2193976,65.4304619 64.2013645,72.1088897 72.5980856,76.2289635 C62.8387962,68.6065557 57.7718565,59.9497868 55.4196707,54.8273789 C62.8090148,54.6677871 71.1087414,54.0131351 81.9475389,52.7060024 C84.3530034,64.2123532 91.2972655,75.0901078 102.037976,82.5206254 C107.906008,86.5807165 113.670216,89.2435652 119.841254,90.442675 C107.581418,85.7358029 98.0611997,76.1817373 93.7338774,64.4786109 C97.6642052,68.6328829 102.408741,72.1479734 107.749997,74.8298212 C99.9926205,67.24514 94.8071015,57.3591344 93.596719,46.173867 C93.1918009,42.4462588 93.4458993,38.5319174 94.1890687,34.8661917 C95.763932,37.1121476 99.9360631,41.9824113 107.656555,44.3133199 C117.321035,55.4285623 131.388795,59.0549328 131.388795,59.0549328 Z" id="path20" fill="#B88F4B"></path>
                    </g>
                </g>
            </g>
        </g>
    </g>
</svg>