<svg width="200" height="200" xmlns="http://www.w3.org/2000/svg"><g fill="none"><path d="M186.023 81.446c4.2-3.276 8.352-4.98 13.457-8.26-5.181-3.46-27.08-17.465-31.205-20.334.006-.011 8.462-18.609 10.874-21.872-4.379-.147-9.297.902-9.297.902s.656-4.263 1.83-7.353c-13.396 3.773-22.708-2.425-36.189-6.57-13.13-4.043-34.495-3.625-36.214-15.53l-.122-.101c-1.653 12.233-22.365 11.637-35.564 15.7-13.482 4.146-22.99 9.754-36.386 5.982 1.006 2.298 2.667 7.566 2.667 7.566s-4.874-.153-9.15.458c2.309 4.307 10.671 20.877 10.677 20.888C27.276 55.792 5.181 69.797 0 73.256c5.105 3.281 9.06 4.984 13.26 8.261-5.845 5.202-6.051 15.074-6.892 20.327-.841 5.253.506 23.032.506 23.032s7.407-3.192 10.104-4.738c7.628 5.514 16.522 3.659 22.908 4.869 4.4.833 20.242 4.185 29.604 13.922 8.928 9.284 27.832 54.694 29.613 58.892l.131.166c1.763-4.196 21.434-49.844 30.361-59.129 9.362-9.736 25.163-14.147 29.605-14.708 8.357-1.056 15.898.846 22.908-4.279 2.697 1.546 10.104 4.738 10.104 4.738s1.348-17.583.506-22.836c-.84-5.253-.85-15.124-6.695-20.327" fill="#244BA6"/><path d="M99.142 9.308c-1.533 11.27-20.765 8.336-33.128 12.143-12.628 3.883-19.508 10.424-32.054 6.89 1.66.972 7.222 11.628 8.442 12.338-4.537-1.046-10.311-2.69-13.593-2.98 2.892 3.06 8.705 16.423 8.71 16.434C33.657 56.82 12.962 69.938 8.11 73.18c4.78 3.073 8.302 4.668 12.235 7.737-5.475 4.872-7.14 14.117-7.929 19.038-.787 4.92-.077 16.417-.077 16.417s7.49-2.99 10.015-4.438c2.517 7.17 15.475 6.557 21.457 7.69 4.12.782 18.959 5.946 27.727 15.065 8.77 9.12 27.646 54.9 27.646 54.9l.06-.065s19.821-45.78 28.59-54.9c8.77-9.12 23.608-14.285 27.728-15.065 5.98-1.134 18.94-.52 21.457-7.69 2.526 1.447 10.015 4.437 10.015 4.437s.71-11.497-.078-16.417c-.788-4.92-2.454-14.166-7.929-19.038 3.934-3.07 7.455-4.664 12.237-7.737-4.853-3.24-25.548-16.358-29.412-19.046.006-.01 5.819-13.373 8.712-16.434-3.283.291-9.057 1.934-13.594 2.98 1.22-.71 6.783-11.366 8.443-12.337-12.547 3.533-19.428-3.007-32.055-6.89-12.3-3.788-32.484-1.045-34.103-11.99" fill="#101011"/><path d="M130.153 68.493c2.073 1.824 7.106 1.836 8.666-.439.885-1.288-.039-2.726.332-3.968.347-1.134 1.844-1.916 3.035-2.74.255 2.953.31 7.358-3.132 9.03-3.642 1.767-8.853 1.115-10.666-1.845.755-.118 1.686-.055 2.217.135" fill="#FFF"/><path d="M148.168 91.355c-3.746-1.905-19.388-.707-22.086-2.033-5.682-2.943-2.962-16.475-7.75-23.356-4.406-6.344-15.15-6.805-19.122-13.056-3.97 6.25-14.713 6.712-19.117 13.056-4.785 6.88-2.07 20.413-7.747 23.356-2.705 1.326-18.348.128-22.094 2.033-4.19 2.134-6.643 4.812-3.93 7.703 3.668 3.913 26.469 2.874 34.815 17.691 5.664 10.05 18.06 56.274 18.06 56.274s11.369-44.348 18.089-56.274c8.346-14.817 31.142-13.778 34.818-17.691 2.713-2.891.26-5.569-3.936-7.703" fill="#FCD213"/><path d="M99.061 73.077l-2.347 66.195-.629 8.92 3.112 13.728 3.195-13.872s-.246-5.51-.39-8.776l-2.94-66.195" fill="#FFF"/><path d="M78.192 98.211s-12.28-1.644-14.904-2.239c-2.356-.537-13.808-1.436-15.581-.112-2.152 1.603 8.185 2.403 9.595 2.576 5.202.639 7.858.983 12.615 2.628 5.037 1.74 7.91 7.1 10.199 9.559m15.592-31.29c0-2.368.862-4.43.598-6.71-.162-1.363.24-5-.97-6.004-1.742-1.45-8.47 4.192-6.953 5.844 2.268 2.483 3.884-6.653 6.33-1.984m7.463 8.632c0-2.367-.865-4.428-.592-6.711.159-1.356-.244-4.995.964-6.003 1.742-1.45 8.467 4.192 6.955 5.85-2.267 2.477-3.884-6.66-6.33-1.987m16.584 28.26s12.279-1.643 14.904-2.238c2.355-.534 13.81-1.433 15.582-.112 2.154 1.602-8.185 2.403-9.594 2.578-5.201.639-7.856.981-12.614 2.628-5.039 1.74-7.913 7.095-10.202 9.556" fill="#231F20"/><path d="M178.852 72.696c-1.173.45-26.291-15.513-26.743-14.618.008-.007 6.091-11.453 8.577-14.255-2.82.266-9.303 4.47-12.773 1.954 1.048-.646 5.83-10.386 7.26-11.28-10.792 3.234-15.163-4.771-27.565-6.535-24.313-3.458-28.503-10.815-28.503-10.815s-4.17 7.521-28.903 10.88c-11.322 1.537-16.776 9.53-27.565 6.3 1.427.889 6.21 10.63 7.26 11.28-3.47 2.514-9.953-1.69-12.775-1.957 2.487 2.801 8.571 14.247 8.576 14.257-.449-.899-25.568 15.066-26.74 14.616 4.067 1.563 8.305 2.22 12.165 4.138-4.522 7.734-9.044 15.437-8.15 25.022 3.216-1.203 7.185-3.277 10.917-2.962-5.33 12.392.867 13.507 10.743 15.346 9.927 1.85 22.976 6.942 34.902 19.92-4.56-31.218-48.054-20.695-41.39-42.09 2.179-6.994 22.052-12.419 26.543-10.152-.041-.023-6.925-3.51-10.851-7.002-8.29-7.369-1.4-15.311-7.962-23.08 6.893 7.46 19.25 8.855 28.437 16.777 5.478-13.914 20.18-13.566 24.826-27.476 4.641 13.98 19.352 13.492 24.83 27.412 9.187-7.922 21.074-9.081 27.963-16.54-6.56 7.767.33 15.71-7.961 23.08-3.927 3.488-10.81 6.977-10.852 6.998 4.492-2.263 25.522 2.492 27.126 9.618 5.562 24.687-36.621 10.186-41.735 42.645 6.753-10.492 24.737-18.088 34.666-19.935 9.876-1.844 16.074-2.955 10.742-15.351 3.735-.31 7.703 1.759 10.918 2.962.896-9.586-3.626-17.283-8.147-25.016 3.857-1.918 8.096-2.582 12.164-4.14" fill="#FFF"/><path d="M67.934 68.493c-2.07 1.824-7.103 1.836-8.659-.439-.886-1.288.038-2.726-.336-3.968-.34-1.134-1.84-1.916-3.038-2.74-.245 2.953-.308 7.358 3.139 9.03 3.637 1.767 8.852 1.115 10.661-1.845-.751-.118-1.686-.055-2.214.135" fill="#FFF"/></g></svg>