<svg width="200" height="200" xmlns="http://www.w3.org/2000/svg"><g fill="none" fill-rule="evenodd"><path d="M105.747 34.433c.18.058.439.152.698.25.265-.097.53-.192.71-.25 2.19-.712 4.862-1.203 8.003-1.214 2.626-.003 5.555.327 8.79 1.13a43.78 43.78 0 0 1 3.774 1.113c2.247-1.125 5.289-2.079 8.422-2.111 3.438-.023 7.173.991 10.474 3.857 7 6.08 5.496 14.873 3.09 19.486 3.544 7.628 4.684 14.224 4.913 19.008.182 3.797-.212 6.444-.425 7.553l-.423 2.19-1.633-.101c.153.783.351 1.547.56 2.028a13.647 13.647 0 0 0 3.177 4.553c.342.329.622.576.803.753l.97.943-.243 1.332c-.013.069-.018 5.582 1.992 9.473 2.428 4.701 5.277 7.928 8.156 10.481 1.861 1.652 3.729 3.024 5.497 4.307h26.806l-4.665 26.562c-.561 3.306-2.499 5.977-6.81 5.977l-6.867.002-.017.526c-.01.323-.123.955-.747 1.469-.535.441-1.578.487-1.578.487h-4.585l3.338 2.67-6.451 3.796 5.335 7.116H37.996l5.335-7.116-6.45-3.795 4.644-3.716-1.632-1.402-15.46.004c-2.449 0-6.327-1.466-6.327-6.056 0-.772.197-1.75.363-2.41l5.054-18.08L0 113.11l45.615.072c2.321-1.931 4.751-4.55 7.216-8.563 1.13-1.84 1.788-4.258 2.16-6.25.186-.99.299-1.865.364-2.495.033-.313.054-.565.067-.74l.011-.179-.232-1.334.97-.943c.18-.177.46-.424.803-.753a13.647 13.647 0 0 0 3.178-4.553c.207-.48.405-1.24.557-2.022l-1.63.093-.422-2.177c-.213-1.103-.61-3.755-.428-7.564.23-4.784 1.37-11.38 4.914-19.008-2.406-4.613-3.91-13.407 3.09-19.486 6.504-5.649 14.413-4.055 18.918-1.754a43.92 43.92 0 0 1 3.75-1.105c7.177-1.78 12.81-1.228 16.846.084" fill="#FAB837" fill-rule="nonzero"/><path d="M107.939 36.846c1.938-.63 4.346-1.08 7.225-1.09 2.41-.002 5.13.3 8.174 1.055 1.529.38 2.977.824 4.35 1.334l.234.087.267-.127c1.985-1.163 4.864-2.185 7.977-2.217 2.908-.019 6.016.829 8.788 3.236 6.103 5.3 4.46 13.277 2.115 17.084l-.23.367.128.263c3.74 7.698 4.896 14.309 5.12 18.985.17 3.567-.202 6.01-.383 6.951l-2.088-.13-.294.004.006.564c.013 1.165.434 3.76 1.042 5.167 1.564 3.62 3.827 5.423 4.541 6.117-.103.563-.06 6.654 2.233 11.094 4.34 8.4 9.978 12.447 14.799 15.95h25.145l-4.186 23.834c-.421 2.5-1.623 4.053-4.518 4.053l-14.294.004-4.451 3.825 4.198 3.359-5.782 3.402 4.105 5.476H42.647l4.105-5.476-5.782-3.402 4.198-3.359-4.413-3.792-16.321.004c-1.804 0-4.002-.981-4.002-3.73 0-.478.131-1.2.285-1.814l5.56-19.892-17.054-8.58 37.553.058c2.647-2.122 5.428-5.022 8.217-9.563 2.616-4.258 3.05-10.888 2.946-11.45.714-.695 2.978-2.498 4.542-6.118.607-1.406 1.029-4.002 1.041-5.167l.007-.564-2.38.136c-.181-.935-.556-3.383-.385-6.961.224-4.676 1.379-11.287 5.12-18.985l.128-.263-.23-.367c-2.345-3.807-3.989-11.784 2.115-17.084 5.756-5 12.965-3.273 16.815-1.018l.216.126.235-.087a40.52 40.52 0 0 1 4.35-1.334c6.74-1.672 11.889-1.123 15.45.035.452.147 1.47.548 1.47.548s1.052-.4 1.506-.548" fill="#231F20" fill-rule="nonzero"/><path d="M122.838 62.773a33.934 33.934 0 0 0-.71-.266c.673-1.028.984-3.223-.555-4.488-2.442-2.006-3.794.393-5.582-.436-1.24-.574-1.701-2.224-1.701-2.224l-.83 3.794s1.522.207 4.013 2.006c1.388 1.003 2.3 2.789 2.492 3.19l.125.387.437 1.439.211.91c.145 1.61.228 4.456-.517 7.376-.808 3.17-1.503 3.795-1.503 3.795s-1.689-.988-6.435-1.657c-3.401-.48-8.526-.407-11.644 0-4.013.523-6.455 1.657-6.455 1.657s-.664-.453-1.483-3.62c-1.003-3.882-.48-7.632-.48-7.632s-2.498 2.707-2.922 7.545c-.436 4.972 2.443 9.595 2.443 9.595l1.657-.698s1.57 3.184 2.268 6.15c.98 4.163 1.57 5.32.96 10.03-.448 3.448-1.058 7.121 2.311 10.555.923.94 1.805 1.354 3.053 2.05 1.875 1.047 2.972 2.37 2.705 4.029-6.808.16-10.9-3.788-13.463-6.74l-.173 4.125s-.904-.36-3.468-1.824c-2.22-1.269-4.405-3.818-4.405-3.818s-.844 4.767 4.13 13.577c-1.763.132-2.96.633-4.064 2a4.765 4.765 0 0 0-.207-.253c-1.193-1.401-2.405-1.787-4.57-1.787H60.413c-4.736 0-6.425.661-8.3 2.928l-.047-4.373a7.555 7.555 0 0 0-.097-1.078 48.67 48.67 0 0 0 7.869-9.546c4.028-6.408 4.009-13.348 4.009-13.348s4.38-3.725 5.236-10.362c.472-3.663-.139-7.93-.318-9.104l-2.146.204s-.175-9.421 4.361-18.057c2.717-5.173 6.277-9.363 10.38-12.299-.875-.203-2.05-.654-3.663-.305-3.247.702-4.231 2.399-4.231 2.399s-.177-.473.218-1.657c.168-.506.44-.997.752-1.45-3.1.86-4.585 3.372-5.152 4.634-.392-2.327.069-4.98 2.22-6.848 3.314-2.879 7.915-2.19 10.641-.524a21.07 21.07 0 0 1 2.475 1.765 29.721 29.721 0 0 1 6.597-2.462c12.037-2.966 15.233 1.919 15.233 1.919s3.333-4.789 15.384-1.876c2.435.588 4.665 1.44 6.707 2.541a16.231 16.231 0 0 1 2.3-1.712c2.727-1.667 7.24-2.53 10.555.349a6.658 6.658 0 0 1 1.438 1.746c-1.29-.656-3.171-1.016-5.91-.7-3.034.35-4.58 2.748-4.58 2.748s1.24.812 2.836 2.268c.396.362.591.708 1.006 1.182-.134.737-.405 1.523-1.006 2.394-1.265 1.832-3.053 2.835-3.053 2.835l2.442.698s-.742 1.09-2.835 2.224c-2.338 1.267-4.143 1.614-4.143 1.614l2.573 1.352s-3.053 2.791-7.327 1.134" fill="#E2B97A" fill-rule="nonzero"/><path d="M92.963 64.78s.959-2.138 2.529-3.272c2.491-1.799 4.013-2.006 4.013-2.006l-.83-3.794s-.461 1.65-1.7 2.224c-1.788.829-3.14-1.57-5.583.436-1.564 1.285-1.217 3.53-.523 4.536.872 1.265 2.094 1.875 2.094 1.875" fill="#231F20"/><path d="M97.542 82.181s3.227-1.439 8.91-1.439c5.657 0 8.908 1.44 8.908 1.44s-.11 1.57-.503 2.921c-.64 2.204-2.026 4.754-2.026 4.754s-.088-2.878-.568-5.234c-.232-1.138-1.046-2.66-1.046-2.66l-1.221 2.137s-.995-1.067-3.557-1.09c-2.432-.022-3.532 1.09-3.532 1.09l-1.222-2.137s-.815 1.522-1.046 2.66c-.48 2.356-.567 5.234-.567 5.234s-1.337-2.732-1.963-4.797c-.436-1.44-.567-2.879-.567-2.879M106.483 106.474c2.05-.043 2.582-1.178 2.582-1.178l.832 1.614s.817-1.177 1.355-3.096c.645-2.3.966-3.226.966-3.226s.523.959.724 3.313c.096 1.13-.201 2.834-.201 2.834s-1.97 2.735-6.29 2.66c-4.32.076-6.29-2.66-6.29-2.66s-.297-1.704-.2-2.834c.2-2.354.724-3.313.724-3.313s.356.916.966 3.226c.402 1.526 1.355 3.096 1.355 3.096l.832-1.614s.942 1.214 2.645 1.178" fill="#FFF" fill-rule="nonzero"/><path d="M106.527 72.804c-1.745-.043-4.06.393-4.06.393l-2.74-3.797s-1.668-2.186-1.53-4.359c.1-1.603.752-2.094 2.005-2.835 1.918-1.133 3.896-1.353 6.368-1.352 2.704 0 4.1.175 6.019 1.308 1.254.741 1.861 1.32 1.962 2.923.137 2.172-1.464 4.315-1.464 4.315l-2.897 3.797s-1.745-.345-3.663-.393" fill="#231F20" fill-rule="nonzero"/><path d="M35.576 118.26c1.54 0 1.766.3 1.83 2.262l.546 11.52 3.371-10.155c.257-.725.354-1.194.354-1.536 0-.555-.29-.896-.867-1.024l.16-1.066h6.647c1.348 0 1.67.384 1.702 1.877l.224 22.656c.033 2.218.257 2.688 1.349 2.858l-.193 1.067h-5.94c-1.188 0-1.477-.47-1.445-2.304l.097-14.421-5.042 16.725h-5.33l-.642-16.725-3.18 13.269c-.16.597-.224 1.067-.224 1.323 0 .597.29.981.9 1.066l-.193 1.067h-5.266c-.9 0-1.253-.299-1.253-.981 0-.3.097-.726.193-1.11l6.173-22.08-9.033-4.32 15.062.033M135.133 140.49c1.573 0 1.958-.128 2.44-.555.482-.427.77-1.237.77-2.09 0-1.067-.353-1.622-1.573-2.305l-2.119-1.28c-2.215-1.408-3.05-2.73-3.05-4.778 0-1.195.385-3.755.867-5.76.177-.71.34-1.484.45-2.071l-7.22-3.424 20.416.034-.513 3.157c-.354 1.92-.61 2.261-1.927 2.261h-2.73c-1.155 0-1.573.085-1.958.342-.578.383-.9 1.194-.9 2.218 0 .896.258 1.28 1.317 1.92l2.087 1.28c1.317.81 1.959 1.323 2.376 1.877.578.768.868 1.835.868 3.115 0 2.73-1.06 7.51-2.088 9.344-1.22 2.261-2.472 2.944-5.202 2.944h-6.357c-.931 0-1.317-.043-1.67-.213-.546-.256-.899-.811-.899-1.58 0-.255.16-1.279.225-1.706l.77-4.437h.9c0 1.408.481 1.707 2.312 1.707h2.408" fill="#F3652C" fill-rule="nonzero"/><path d="M66.71 129.85c0-4.208-1.683-5.777-6.08-5.777-3.945 0-6.081 1.202-7.363 4.207-1.332 3.172-2.513 9.35-2.513 13.29 0 1.97.553 3.472 1.608 4.34.93.768 2.287 1.102 4.448 1.102 5.403 0 7.288-1.903 8.82-9.082.679-3.205 1.08-6.077 1.08-8.08Zm-6.834-1.069c.904 0 1.382.735 1.382 2.137 0 1.169-.503 4.641-1.232 7.58-.728 2.871-1.331 3.806-2.462 3.806-.93 0-1.407-.701-1.407-2.003 0-1.503.452-4.308 1.256-7.68.679-2.905 1.282-3.84 2.463-3.84ZM65.709 144.875c-.05.3-.101.568-.101.735 0 .734.402 1.068 1.256 1.068h4.875l.151-.835c-.553-.133-.804-.434-.804-1.035 0-.167.025-.367.076-.634l1.256-7.28h.477l1.91 8.181c.352 1.47.453 1.603 1.407 1.603h2.337c1.106 0 1.332-.267 1.583-1.703l.528-2.971h-.377c-.93 0-1.005-.1-1.457-1.637l-1.03-3.472c1.205-.367 1.884-.935 2.537-2.104.88-1.636 1.508-4.307 1.508-6.577 0-1.303-.302-2.438-.83-3.039-.502-.534-1.205-.768-2.537-.768H68.221l-.15.835c.552.133.804.467.804 1.035 0 .2-.025.367-.126.935l-3.04 17.663Zm8.845-11.686h-1.508l.779-4.541h1.307c1.18 0 1.507.3 1.507 1.335 0 .902-.2 1.77-.552 2.37-.352.569-.804.836-1.533.836ZM90.404 136.56h.578l-.628 3.64c-.227 1.27-.704 1.804-1.71 1.804-1.205 0-1.733-.635-1.733-2.037 0-.635.125-1.603.427-3.506.352-2.17.804-4.408 1.106-5.51.427-1.636.904-2.103 2.11-2.103H94.6c1.08 0 1.382-.334 1.583-1.77l.453-2.671h-8.117c-3.87 0-5.05 2.137-6.584 11.62-.427 2.638-.603 4.34-.603 5.743 0 2.638.805 4.307 2.363 4.808.854.267 2.286.434 4.07.434 4.02 0 4.448-.2 4.875-.334 1.006-.3 1.357-1.035 1.634-2.604l1.658-9.55c.075-.534.1-.7.1-.901 0-.768-.351-1.069-1.23-1.069h-5.177l-.377 2.204c-.05.234-.076.534-.076.735 0 .734.377 1.068 1.232 1.068M94.624 144.909c-.15.367-.2.634-.2.901 0 .601.3.868.98.868H99.8l.126-.835c-.503-.133-.73-.4-.73-.901 0-.234.076-.534.202-.902l.88-2.604h4.321l.076 3.573c.025 1.435.2 1.67 1.357 1.67h6.143l-1.344-.836c-.653-.166-.93-.567-.98-1.469l-.653-17.897c-.025-1.068-.05-1.302-.15-1.569-.177-.367-.453-.501-1.081-.501h-6.735l-.15.835c.477.067.728.334.728.768 0 .267-.126.668-.402 1.436l-6.785 17.463Zm6.96-7.346 2.765-8.114.176 8.114h-2.94Z" fill="#F3652C"/><path d="M110.747 144.875c-.05.234-.15.878-.15 1.078 0 .701.451.725 1.306.725h4.02l.126-.835c-.528-.133-.779-.434-.779-1.035 0-.2.025-.367.126-.935l1.457-8.447 2.764 9.883c.352 1.269.453 1.37 1.508 1.37h3.217l3.518-20.469a4.55 4.55 0 0 0 .075-.768c0-.701-.377-1.035-1.231-1.035h-4.02l-.152.835c.553.133.804.467.804 1.035 0 .2-.025.367-.125.935l-1.207 7.012-2.487-8.949c-.201-.768-.352-.868-1.307-.868h-4.95l-.151.835c.553.133.804.467.804 1.035 0 .2-.025.367-.126.935l-3.04 17.663M145.39 144.875c-.051.3-.076.568-.076.735 0 .734.377 1.068 1.231 1.068h4.875l.15-.835c-.527-.133-.778-.434-.778-1.035 0-.2 0-.367.1-.935l2.588-15.025h2.413c1.08 0 1.231-.167 1.533-1.97l.628-3.54h-.754c-.251.835-.578 1.069-1.457 1.069h-9.122c-1.282 0-1.432.167-1.759 2.07l-.603 3.506h.704c.276-.935.527-1.135 1.507-1.102l1.583-.033-2.764 16.027M152.944 144.909c-.15.367-.2.634-.2.901 0 .601.3.868.98.868h4.397l.126-.835c-.503-.133-.73-.4-.73-.901 0-.234.076-.534.202-.902l.88-2.604h4.321l.076 3.573c.025 1.435.201 1.67 1.357 1.67H169l.151-.836c-.653-.166-.93-.567-.98-1.469l-.653-17.897c-.025-1.068-.05-1.302-.15-1.569-.177-.367-.453-.501-1.081-.501h-6.735l-.15.835c.477.067.728.334.728.768 0 .267-.125.668-.402 1.436l-6.785 17.463Zm6.961-7.346 2.764-8.114.176 8.114h-2.94ZM169.871 144.875c-.05.3-.075.568-.075.735 0 .734.377 1.068 1.231 1.068h4.875l.15-.835c-.527-.133-.778-.434-.778-1.035 0-.2 0-.367.1-.935l2.589-15.025h2.118c1.08 0 1.232-.167 1.533-1.97l.629-3.54h-.754c-.252.835-.578 1.069-1.458 1.069h-8.828c-1.281 0-1.432.167-1.759 2.07l-.603 3.506h.704c.276-.935.527-1.135 1.507-1.102l1.584-.033-2.765 16.027M179.646 144.875c-.05.267-.076.568-.076.768 0 .701.377 1.035 1.232 1.035h7.582c1.256 0 1.557-.267 1.809-1.77l.729-4.24h-.704c-.277 1.102-.603 1.336-2.036 1.336h-2.706l.88-5.142h3.492c1.257 0 1.533-.234 1.784-1.737l.478-2.704h-4.976l.628-3.773h3.82c1.256 0 1.533-.267 1.81-1.77l.426-2.471h-10.644l-3.528 20.468" fill="#F3652C"/><path fill="#154280" d="m48.143 162.744 2.653-3.538-4.993-2.937 3.671-2.937-4.699-4.038h125.257l-4.699 4.038 3.671 2.937-4.993 2.937 2.653 3.538H48.143"/><path d="M58.152 160.167h5.95c2.107 0 4.405-.595 4.405-2.334 0-1.01-.83-1.684-2.138-2.01v-.067c1.053-.236 1.58-.965 1.58-1.706 0-1.953-2.378-2.346-4.708-2.346h-5.09v8.463Zm4.052-5.208v-1.212h.303c.639 0 1.452-.045 1.452.584 0 .583-.718.628-1.356.628h-.399Zm0 1.785h.43c.703 0 1.82-.011 1.82.696 0 .696-1.037.707-1.755.707h-.495v-1.403ZM80.754 160.167h8.217v-2.312h-3.813v-.83h3.366v-2.2h-3.366v-.809h3.685v-2.312h-8.09v8.463M105.852 159.112h3.303l.4 1.055h4.626l-4.292-8.463h-4.834l-4.18 8.463h4.626l.351-1.055Zm.782-2.01.798-2.58h.16c.08.359.159.729.287 1.088l.51 1.493h-1.755ZM125.985 160.167h4.276v-2.716h.08l1.915 2.716h5.042l-2.617-2.75c-.239-.247-.51-.381-.734-.505v-.067c1.628-.382 2.33-.92 2.33-2.2 0-2.133-2.298-2.94-5.01-2.94h-5.282v8.462Zm4.276-6.15h.335c.75 0 1.405.078 1.405.729 0 .628-.718.707-1.436.707h-.304v-1.437ZM148.041 159.527c1.356.483 3.112.775 4.627.775 2.601 0 5.218-.999 5.218-3.02 0-1.436-1.34-2.132-3.191-2.424l-.99-.157c-.335-.056-.877-.1-.877-.415 0-.348.558-.45.941-.45.942 0 1.787.281 2.537.64l1.18-2.166c-1.18-.505-2.44-.74-3.813-.74-2.616 0-5.217 1.122-5.217 3.131 0 1.324 1.436 2.032 3.143 2.245l.878.112c.399.056.973.09.973.471 0 .382-.686.506-1.117.506-1.005 0-1.946-.348-2.728-.775l-.224-.123-1.34 2.39" fill="#FFF"/><path fill="#231F20" d="M175.52 150.989h.579v-.593h-1.856v.593h.578v2.099h.7v-2.1M176.19 153.088h.697l.224-1.55h.008l.617 1.55h.278l.646-1.55h.008l.196 1.55h.7l-.407-2.692h-.696l-.578 1.439-.547-1.439h-.689l-.456 2.692"/></g></svg>