<?xml version="1.0" encoding="UTF-8"?>
<svg width="200px" height="200px" viewBox="0 0 200 200" version="1.1" xmlns="http://www.w3.org/2000/svg" xmlns:xlink="http://www.w3.org/1999/xlink">
    <!-- Generator: Sketch 51.3 (57544) - http://www.bohemiancoding.com/sketch -->
    <title>morgan-st</title>
    <desc>Created with Sketch.</desc>
    <defs></defs>
    <g id="morgan-st" stroke="none" stroke-width="1" fill="none" fill-rule="evenodd">
        <g id="morgan-st_BGL" transform="translate(0.000000, 33.830846)">
            <g id="morgan-st">
                <g id="g10" transform="translate(99.999998, 66.919108) scale(-1, 1) rotate(-180.000000) translate(-99.999998, -66.919108) translate(0.000000, 0.017494)">
                    <g id="g12">
                        <path d="M105.747134,132.398148 C105.926282,132.340429 106.1859,132.247145 106.445225,132.150947 C106.710129,132.246854 106.975034,132.340429 107.154182,132.398148 C109.344197,133.10506 112.016737,133.592757 115.158,133.603251 C117.784138,133.605875 120.713066,133.279092 123.948896,132.482103 C125.261671,132.158818 126.518352,131.790349 127.72217,131.376987 C129.969453,132.493471 133.010863,133.440588 136.14449,133.472363 C139.581788,133.495101 143.317471,132.488516 146.617617,129.643958 C153.617911,123.609695 152.113946,114.881294 149.707485,110.301958 C153.251685,102.731144 154.39236,96.1838231 154.621435,91.4354119 C154.802933,87.6661837 154.409394,85.0388014 154.195591,83.9380585 L153.773271,81.7639747 L152.140378,81.8645457 C152.292507,81.0873793 152.491332,80.3288695 152.699262,79.8510841 C153.362992,78.3261937 154.170334,77.1928017 154.88399,76.368119 C155.247573,75.9480527 155.588542,75.6061111 155.876648,75.3317999 C156.219379,75.0055999 156.498968,74.7604397 156.680172,74.5852421 L157.65051,73.6486195 L157.407045,72.3269118 C157.394416,72.2584069 157.38913,66.786467 159.399115,62.9239556 C161.827309,58.2574587 164.675767,55.0549266 167.555062,52.519953 C169.416442,50.8810821 171.28399,49.5188545 173.051684,48.2449545 L199.857851,48.2449545 L195.192947,21.8802383 C194.631713,18.5985903 192.693975,15.9473333 188.383549,15.9473333 L181.516295,15.9456134 L181.499261,15.4228188 C181.489276,15.1023907 181.376207,14.4754103 180.752125,13.9652673 C180.216736,13.527448 179.173564,13.4814476 179.173564,13.4814476 L174.588542,13.4814476 L177.926868,10.8306279 L171.475767,7.06411077 L176.810568,0 L37.9961811,0 L43.3309828,7.06411077 L36.8801753,10.8306279 L41.5248154,14.5189328 L39.8933911,15.9106613 L24.4338614,15.9069008 C21.9843166,15.9069008 18.1064019,17.3617121 18.1064019,21.9182804 C18.1064019,22.6845152 18.3034944,23.6555943 18.4690451,24.310239 L23.5228482,42.2564584 L0,54.3037045 L45.6149768,54.2322845 C47.936269,56.1495477 50.3662249,58.7492366 52.8308357,62.7318503 C53.9612321,64.5590368 54.6190882,66.9587496 54.9914817,68.935481 C55.1767974,69.9187452 55.2895728,70.7868629 55.3553584,71.4121525 C55.3879575,71.7231939 55.4091029,71.9733098 55.4217314,72.1476329 L55.4331851,72.3242882 L55.2008797,73.6492025 L56.1703363,74.5852421 C56.3518341,74.7604397 56.631423,75.0055999 56.9738605,75.3317999 C57.2619663,75.6061111 57.6032291,75.9480527 57.9668121,76.368119 C58.6804684,77.1930932 59.4878106,78.3259022 60.1515403,79.8510841 C60.3588825,80.3274119 60.5571204,81.0830066 60.7092496,81.8581325 L59.0784126,81.7660153 L58.6569736,83.9272726 C58.4437577,85.0216023 58.047282,87.6542318 58.2293671,91.4354119 C58.4581483,96.1838231 59.5988238,102.731436 63.1430234,110.301958 C60.736856,114.881294 59.2328913,123.609695 66.2328911,129.643958 C72.7374431,135.250576 80.645813,133.669132 85.1506587,131.384858 C86.3477218,131.795013 87.597061,132.160567 88.9019067,132.482103 C96.0778243,134.249238 101.711304,133.700907 105.747134,132.398148" id="path14" fill="#FAB837" fill-rule="nonzero"></path>
                        <path d="M107.938911,130.003099 C109.876649,130.628389 112.284579,131.074982 115.16358,131.084602 C117.573565,131.087226 120.293095,130.787262 123.337736,130.037497 C124.866957,129.660866 126.314828,129.219811 127.688103,128.713749 L127.922464,128.627462 L128.188837,128.753394 C130.174446,129.907775 133.053447,130.922231 136.165929,130.953714 C139.073712,130.972954 142.182082,130.131363 144.953888,127.742145 C151.057265,122.480967 149.413799,114.562964 147.069306,110.784699 L146.838763,110.42002 L146.966516,110.158827 C150.707779,102.518633 151.863139,95.9564451 152.086633,91.3150181 C152.257265,87.7746255 151.885459,85.3489683 151.704255,84.4149693 L149.616443,84.5435254 L149.32217,84.5406103 L149.328337,83.980619 C149.340672,82.8239061 149.762404,80.2478296 150.369747,78.8523698 C151.933917,75.2583393 154.197353,73.4690491 154.911009,72.7799188 C154.808219,72.221385 154.851097,66.175753 157.144489,61.7681172 C161.483696,53.4297566 167.121582,49.4136193 171.942727,45.9361929 L197.087807,45.9361929 L192.901904,22.2790244 C192.480759,19.7967268 191.278703,18.2560657 188.383549,18.2560657 L174.090157,18.2525384 L169.638762,14.4552669 L173.837,11.1214677 L168.054621,7.74507883 L172.160054,2.30873825 L42.6469887,2.30873825 L46.7521281,7.74507883 L40.9697493,11.1214677 L45.1682808,14.4552669 L40.7550651,18.2196269 L24.4336264,18.2156332 C22.6299847,18.2156332 20.432393,19.1894525 20.432393,21.9182804 C20.432393,22.3919846 20.5631713,23.1094789 20.7171214,23.7185897 L26.2778848,43.463311 L9.22252547,51.9797844 L46.7756229,51.9217739 C49.4234936,54.0282273 52.204404,56.907183 54.9929502,61.4139322 C57.6085154,65.6408316 58.042583,72.221385 57.9394993,72.7799188 C58.6534493,73.4690491 60.9165917,75.2583393 62.4810557,78.8523698 C63.0883978,80.2478296 63.5098369,82.8239061 63.5224654,83.980619 L63.5286328,84.5406103 L61.1483098,84.4059325 C60.967693,85.3332268 60.59295,87.7629651 60.7638751,91.3150181 C60.9876637,95.9564451 62.1427297,102.518633 65.8839925,110.158827 L66.0117458,110.42002 L65.7814962,110.784699 C63.4370028,114.562964 61.7932437,122.480967 67.8969146,127.742145 C73.6531553,132.704233 80.8622594,130.991319 84.7124795,128.752811 L84.9283386,128.627462 L85.1626998,128.713749 C86.5356807,129.219811 87.9838451,129.660866 89.5127731,130.037497 C96.2531547,131.697648 101.40176,131.152233 104.962406,130.003099 C105.414682,129.857052 106.43289,129.459432 106.43289,129.459432 C106.43289,129.459432 107.484579,129.856469 107.938911,130.003099" id="path16" fill="#231F20" fill-rule="nonzero"></path>
                        <path d="M122.837882,104.268278 C122.600291,104.359812 122.362699,104.44814 122.128631,104.532387 C122.800584,105.552673 123.112479,107.731712 121.572978,108.986955 C119.130687,110.978262 117.778558,108.597206 115.990599,109.419848 C114.751833,109.989751 114.289571,111.627747 114.289571,111.627747 L113.46079,107.861434 C113.46079,107.861434 114.982376,107.655919 117.473419,105.870127 C118.861377,104.874911 119.772391,103.101946 119.964755,102.704034 L120.090159,102.320115 L120.526576,100.891714 L120.738323,99.9880325 C120.882816,98.3899731 120.965636,95.5655298 120.221142,92.6664599 C119.413213,89.5201892 118.718352,88.9001468 118.718352,88.9001468 C118.718352,88.9001468 117.029366,89.8807874 112.283404,90.5451394 C108.881642,91.0211757 103.757119,90.9485897 100.638764,90.5448479 C96.6261356,90.0253765 94.1838449,88.8998553 94.1838449,88.8998553 C94.1838449,88.8998553 93.5195278,89.3493642 92.7007319,92.4930112 C91.6977951,96.3459029 92.2211431,100.068781 92.2211431,100.068781 C92.2211431,100.068781 89.7233458,97.3819305 89.2989699,92.5795898 C88.8628465,87.6443204 91.7415542,83.0556568 91.7415542,83.0556568 L93.3988229,83.7482853 C93.3988229,83.7482853 94.9688669,80.5880221 95.6666643,77.6443511 C96.6461062,73.5121926 97.2367083,72.3627675 96.6264293,67.6875254 C96.1794396,64.265486 95.5685732,60.6195667 98.9380298,57.2109367 C99.8607905,56.2775208 100.743316,55.8673658 101.990893,55.1764864 C103.86637,54.1375437 104.963287,52.8248728 104.695739,51.1778396 C97.8878096,51.0183835 93.7964734,54.9377394 91.2331842,57.8671264 L91.0602033,53.7731558 C91.0602033,53.7731558 90.1556512,54.1296729 87.5920683,55.5837262 C85.3715103,56.8430507 83.1867821,59.3733601 83.1867821,59.3733601 C83.1867821,59.3733601 82.3427292,54.641565 87.3165911,45.896839 C85.5538892,45.7653679 84.3562387,45.2686343 83.2534487,43.9113624 C83.1870757,43.9976494 83.1180596,44.0816044 83.0458129,44.1632273 C81.8528614,45.5534399 80.6414077,45.9361929 78.4754753,45.9361929 L60.4138017,45.9361929 C55.678119,45.9361929 53.989426,45.2802947 52.1133614,43.0307098 L52.0672527,47.3712981 C52.0590295,47.7426822 52.0276052,48.1003654 51.9703364,48.4405579 C54.2881044,50.5965681 57.2023481,53.7524585 59.838765,57.9158086 C63.8669588,64.2768549 63.8478692,71.1655347 63.8478692,71.1655347 C63.8478692,71.1655347 68.2281921,74.8627599 69.0839924,81.4508926 C69.5562391,85.0863176 68.945079,89.3213792 68.7659307,90.4868374 L66.619969,90.2848207 C66.619969,90.2848207 66.4452259,99.6358881 70.9812023,108.207457 C73.6983829,113.342411 77.2578542,117.50168 81.3609378,120.415617 C80.4857542,120.617633 79.3113049,121.06481 77.6975017,120.718496 C74.4510995,120.021786 73.4669585,118.33744 73.4669585,118.33744 C73.4669585,118.33744 73.2901597,118.80648 73.685167,119.982432 C73.853449,120.484413 74.1242272,120.971527 74.4372962,121.421036 C71.3362684,120.568077 69.8516869,118.074206 69.2854608,116.821878 C68.892803,119.131514 69.3538896,121.765309 71.5042567,123.619023 C74.8190877,126.476116 79.4199686,125.792233 82.1459598,124.138495 C83.241995,123.47356 84.0854605,122.829905 84.6211433,122.386809 C86.6672519,123.439745 88.8649023,124.255682 91.2176189,124.831123 C103.25521,127.775086 106.450805,122.926395 106.450805,122.926395 C106.450805,122.926395 109.783551,127.679179 121.834652,124.788271 C124.2696,124.204085 126.499556,123.359579 128.541553,122.265833 C129.097794,122.75761 129.883991,123.384066 130.842581,123.965629 C133.568572,125.619659 138.082522,126.476407 141.39706,123.619315 C142.004989,123.095471 142.478117,122.508952 142.834651,121.885412 C141.54449,122.536937 139.66402,122.894037 136.925107,122.580372 C133.891333,122.232892 132.345665,119.853002 132.345665,119.853002 C132.345665,119.853002 133.585019,119.046684 135.180613,117.601959 C135.577089,117.242819 135.77239,116.898545 136.186781,116.428339 C136.05286,115.697231 135.782375,114.917149 135.180613,114.052238 C133.915709,112.233797 132.12775,111.238289 132.12775,111.238289 L134.570041,110.54537 C134.570041,110.54537 133.828484,109.463283 131.735092,108.337762 C129.397354,107.08077 127.591774,106.735913 127.591774,106.735913 L130.165048,105.3938 C130.165048,105.3938 127.112185,102.623286 122.837882,104.268278" id="path18" fill="#E2B97A" fill-rule="nonzero"></path>
                        <path d="M92.9626996,102.27668 C92.9626996,102.27668 93.9218772,104.398 95.4919213,105.523522 C97.9829638,107.309314 99.5045496,107.514828 99.5045496,107.514828 L98.6757685,111.281142 C98.6757685,111.281142 98.2138008,109.643145 96.9750343,109.073243 C95.1867818,108.250892 93.8346526,110.631948 91.3923619,108.64035 C89.8284853,107.365284 90.1753281,105.136687 90.8690139,104.138265 C91.7412606,102.88273 92.9626996,102.27668 92.9626996,102.27668" id="path20" fill="#231F20"></path>
                        <path d="M97.5421415,85.0038201 C97.5421415,85.0038201 100.769454,86.4322206 106.451099,86.4322206 C112.108955,86.4322206 115.360056,85.0038201 115.360056,85.0038201 C115.360056,85.0038201 115.249336,83.4454061 114.856678,82.1032927 C114.216737,79.9155079 112.83054,77.3846155 112.83054,77.3846155 C112.83054,77.3846155 112.743316,80.2419994 112.263433,82.5796205 C112.031422,83.7098059 111.216737,85.2204123 111.216737,85.2204123 L109.995592,83.0990918 C109.995592,83.0990918 109.000878,84.1581488 106.439351,84.1811781 C104.007046,84.2033329 102.906605,83.0990918 102.906605,83.0990918 L101.68546,85.2201208 C101.68546,85.2201208 100.870482,83.7095144 100.638764,82.5796205 C100.158881,80.2417079 100.071657,77.3846155 100.071657,77.3846155 C100.071657,77.3846155 98.7347993,80.0965358 98.108955,82.1464362 C97.6728316,83.5751282 97.5421415,85.0038201 97.5421415,85.0038201" id="path22" fill="#FFFFFF" fill-rule="nonzero"></path>
                        <path d="M106.48311,60.8909627 C108.533037,60.9341063 109.064608,62.059919 109.064608,62.059919 L109.89662,60.458653 C109.89662,60.458653 110.713654,61.6267347 111.251686,63.5311715 C111.89662,65.8142802 112.217618,66.7334122 112.217618,66.7334122 C112.217618,66.7334122 112.740673,65.781631 112.942141,63.444593 C113.03847,62.3234444 112.740673,60.6318101 112.740673,60.6318101 C112.740673,60.6318101 110.77151,57.9166832 106.451099,57.9918928 C102.130688,57.9163917 100.161525,60.6315186 100.161525,60.6315186 C100.161525,60.6315186 99.8637273,62.3234444 99.9603499,63.444593 C100.161525,65.7813395 100.684579,66.7334122 100.684579,66.7334122 C100.684579,66.7334122 101.041407,65.8241915 101.650805,63.5311715 C102.053155,62.016484 103.005871,60.4583615 103.005871,60.4583615 L103.837883,62.059919 C103.837883,62.059919 104.78032,60.8548155 106.48311,60.8909627" id="path24" fill="#FFFFFF" fill-rule="nonzero"></path>
                        <path d="M106.526576,94.3114525 C104.781789,94.354596 102.467545,93.9217032 102.467545,93.9217032 L99.7271634,97.6900568 C99.7271634,97.6900568 98.0590284,99.860351 98.1961796,102.016944 C98.2972075,103.608299 98.9486025,104.095413 100.202347,104.830893 C102.120409,105.956123 104.098088,106.17359 106.570041,106.173298 C109.274006,106.173007 110.670776,105.999558 112.588543,104.874328 C113.842582,104.138848 114.450217,103.565155 114.551245,101.973801 C114.688397,99.8172075 113.086928,97.6903483 113.086928,97.6903483 L110.190012,93.9217032 C110.190012,93.9217032 108.445225,94.2636448 106.526576,94.3114525" id="path26" fill="#231F20" fill-rule="nonzero"></path>
                        <path d="M35.5756232,49.1917799 C37.116886,49.1917799 37.3415556,48.8953139 37.4058728,46.9471506 L37.9518346,35.5126591 L41.323347,45.5919192 C41.5800283,46.3119497 41.6766509,46.7777831 41.6766509,47.1165181 C41.6766509,47.6671811 41.3876642,48.005916 40.8096906,48.1330145 L40.970043,49.1917799 L47.6167389,49.1917799 C48.9653439,49.1917799 49.2866361,48.8104844 49.3186478,47.3281546 L49.5433174,24.8404379 C49.5756228,22.6381651 49.8002924,22.1723316 50.8919224,22.0028767 L50.6992645,20.9441113 L44.7591766,20.9441113 C43.570924,20.9441113 43.2819372,21.4099448 43.313949,23.231097 L43.4105716,37.5453605 L38.369162,20.9441113 L33.0390594,20.9441113 L32.3967686,37.5453605 L29.2179435,24.3745753 C29.0573267,23.7816725 28.9932151,23.3158099 28.9932151,23.0616421 C28.9932151,22.4687393 29.2822019,22.0875896 29.8922166,22.0028767 L29.6995587,20.9441113 L24.4336264,20.9441113 C23.5344488,20.9441113 23.181321,21.2406356 23.181321,21.9182804 C23.181321,22.2146881 23.2775912,22.6381651 23.3739495,23.0192857 L29.5468421,44.9357296 L20.5141845,49.2247206 L35.5756232,49.1917799" id="path28" fill="#F3652C" fill-rule="nonzero"></path>
                        <path d="M135.132743,27.1273071 C136.706017,27.1273071 137.091333,27.2544056 137.572977,27.6778826 C138.054622,28.1013596 138.343609,28.9059863 138.343609,29.7529987 C138.343609,30.8117641 137.990305,31.362427 136.770334,32.039897 L134.651098,33.3102988 C132.435533,34.7080907 131.600584,36.0207616 131.600584,38.0534629 C131.600584,39.2393268 131.9859,41.7804221 132.467544,43.7708544 C132.645224,44.4748518 132.807339,45.2438559 132.917471,45.8268765 L125.698088,49.2247206 L146.11424,49.1917799 L145.600584,46.0577527 C145.24728,44.1521499 144.990305,43.8134149 143.673712,43.8134149 L140.94449,43.8134149 C139.788543,43.8134149 139.371215,43.7285854 138.985606,43.4743884 C138.407926,43.0933845 138.086634,42.288816 138.086634,41.2723196 C138.086634,40.3829217 138.343609,40.0016262 139.403227,39.3664253 L141.490452,38.0960234 C142.806751,37.291455 143.449042,36.783061 143.866369,36.2326896 C144.444343,35.4703902 144.733623,34.4116247 144.733623,33.1412229 C144.733623,30.4304686 143.673712,25.6874211 142.646399,23.8663854 C141.426134,21.6217561 140.173858,20.9441113 137.444343,20.9441113 L131.086634,20.9441113 C130.15565,20.9441113 129.770334,20.9864677 129.417031,21.1558935 C128.871362,21.4099448 128.518058,21.9605203 128.518058,22.722878 C128.518058,22.9769292 128.678411,23.9933382 128.742728,24.4168443 L129.513359,28.8212734 L130.412625,28.8212734 C130.412625,27.4237148 130.89427,27.1273071 132.724519,27.1273071 L135.132743,27.1273071" id="path30" fill="#F3652C" fill-rule="nonzero"></path>
                        <path d="M66.7107179,37.688492 C66.7107179,41.8646686 65.0273111,43.4222081 60.6296607,43.4222081 C56.6845801,43.4222081 54.5486036,42.2290564 53.266959,39.2460315 C51.9350941,36.0977203 50.7541838,29.9660927 50.7541838,26.0554529 C50.7541838,24.1000309 51.3069003,22.6085476 52.3624069,21.7469015 C53.2919223,20.9846312 54.6490442,20.6531549 56.8099839,20.6531549 C62.2126269,20.6531549 64.0975021,22.5422874 65.630248,29.6678777 C66.3086621,32.8497126 66.7107179,35.6998088 66.7107179,37.688492 Z M59.8757694,38.7490065 C60.7803215,38.7490065 61.2578546,38.0199392 61.2578546,36.6279775 C61.2578546,35.4680581 60.7553582,32.0212403 60.0264302,29.1045631 C59.2977959,26.2542629 58.6945653,25.3263273 57.5638752,25.3263273 C56.6340661,25.3263273 56.1568268,26.0223082 56.1568268,27.3148648 C56.1568268,28.8062315 56.6091028,31.5903881 57.4132144,34.9375093 C58.0916285,37.8211292 58.6945653,38.7490065 59.8757694,38.7490065 Z" id="path32" fill="#F3652C"></path>
                        <path d="M65.7086621,22.7743587 C65.6581481,22.4760271 65.6079279,22.2109276 65.6079279,22.0451165 C65.6079279,21.3160201 66.0099837,20.9846312 66.8643155,20.9846312 L71.7394989,20.9846312 L71.8901597,21.8131618 C71.3374432,21.9457115 71.0860481,22.2440723 71.0860481,22.840619 C71.0860481,23.0063135 71.1113051,23.2051235 71.1615254,23.4703395 L72.417913,30.6954515 L72.895446,30.6954515 L74.8049908,22.5754321 C75.1568263,21.117181 75.2575605,20.9846312 76.2123329,20.9846312 L78.5491904,20.9846312 C79.6549172,20.9846312 79.8810553,21.2497307 80.1321566,22.6748371 L80.6599099,25.6245424 L80.2831111,25.6245424 C79.353302,25.6245424 79.2778247,25.7239765 78.8255487,27.2485754 L77.7952991,30.6954515 C79.0014665,31.0598393 79.6801742,31.6233287 80.3333313,32.7835397 C81.2129201,34.4072521 81.841114,37.0588298 81.841114,39.3124959 C81.841114,40.6050526 81.5394987,41.7317399 81.0117454,42.3284614 C80.5092491,42.8587187 79.805578,43.0907609 78.4740068,43.0907609 L68.2214374,43.0907609 L68.0704829,42.2622886 C68.6234931,42.1296514 68.8745945,41.7982042 68.8745945,41.2347148 C68.8745945,41.0359048 68.8496312,40.8703269 68.7491906,40.3068375 L65.7086621,22.7743587 Z M74.5535958,34.3743114 L73.0461068,34.3743114 L73.8249614,38.8816437 L75.1315693,38.8816437 C76.3127734,38.8816437 76.639352,38.5834286 76.639352,37.5558548 C76.639352,36.6612097 76.4384709,35.7992138 76.0866354,35.2027837 C75.7347999,34.6392943 75.2825238,34.3743114 74.5535958,34.3743114 Z" id="path34" fill="#F3652C"></path>
                        <path d="M90.4038157,31.0268987 L90.9817892,31.0268987 L90.3535954,27.4142698 C90.1274574,26.1548579 89.6499243,25.6245424 88.6449317,25.6245424 C87.4387643,25.6245424 86.911011,26.2542629 86.911011,27.6462246 C86.911011,28.275916 87.0364149,29.2370254 87.3380301,31.1263037 C87.6898656,33.2805648 88.1421417,35.5009987 88.443757,36.5947454 C88.870776,38.2187492 89.3483091,38.6828336 90.5544764,38.6828336 L94.6002913,38.6828336 C95.6807612,38.6828336 95.9823765,39.0142809 96.1832575,40.4391832 L96.6358272,43.0907609 L88.5189405,43.0907609 C84.6493371,43.0907609 83.468133,40.9697319 81.9353871,31.5571559 C81.508368,28.9388978 81.3321566,27.2485754 81.3321566,25.8564971 C81.3321566,23.2382682 82.1365618,21.5810904 83.6945647,21.0840654 C84.5488966,20.8188493 85.981202,20.6531549 87.7653429,20.6531549 C91.7859008,20.6531549 92.2129199,20.851994 92.6402326,20.9846312 C93.645519,21.2828754 93.9970608,22.012001 94.2737128,23.5697446 L95.9318625,33.0485226 C96.0073397,33.5787798 96.0325967,33.7443577 96.0325967,33.9434592 C96.0325967,34.7057586 95.6807612,35.0039737 94.8011724,35.0039737 L89.6246674,35.0039737 L89.2478685,32.8164804 C89.1976483,32.5844382 89.1723913,32.2862232 89.1723913,32.0874131 C89.1723913,31.3580544 89.5494838,31.0268987 90.4038157,31.0268987" id="path36" fill="#F3652C"></path>
                        <path d="M94.6243736,22.7410974 C94.4734191,22.3765929 94.4231988,22.111406 94.4231988,21.8463065 C94.4231988,21.2497307 94.7248141,20.9846312 95.4032282,20.9846312 L99.8005849,20.9846312 L99.9265761,21.8131618 C99.4237861,21.9457115 99.197648,22.2109276 99.197648,22.7079818 C99.197648,22.9400532 99.2731253,23.2382682 99.3988228,23.6028893 L100.278118,26.1879735 L104.600291,26.1879735 L104.675768,22.6416924 C104.700732,21.216586 104.876649,20.9846312 106.032596,20.9846312 L112.175915,20.9846312 L110.832303,21.8131618 C110.178852,21.9788563 109.902494,22.3765929 109.852273,23.2714129 L109.198823,41.0359048 C109.173859,42.0964192 109.148602,42.3284614 109.048162,42.5934443 C108.872244,42.9581237 108.595886,43.0907609 107.967692,43.0907609 L101.233184,43.0907609 L101.082229,42.2622886 C101.559763,42.1958243 101.811158,41.9305499 101.811158,41.4999892 C101.811158,41.2347148 101.68546,40.8370948 101.409102,40.0747953 L94.6243736,22.7410974 Z M101.584726,30.032557 L104.34919,38.0861121 L104.524814,30.032557 L101.584726,30.032557 Z" id="path38" fill="#F3652C"></path>
                        <path d="M110.74684,22.7743587 C110.69662,22.5422874 110.597354,21.9032385 110.597354,21.7043119 C110.597354,21.008331 111.048455,20.9846312 111.902787,20.9846312 L115.923345,20.9846312 L116.049043,21.8131618 C115.521289,21.9457115 115.270188,22.2440723 115.270188,22.840619 C115.270188,23.0394582 115.295151,23.2051235 115.395592,23.7685546 L116.853154,32.153586 L119.617324,22.3434773 C119.96916,21.0840654 120.069601,20.9846312 121.125107,20.9846312 L124.341553,20.9846312 L127.859615,41.3011791 C127.909835,41.566162 127.934799,41.8646686 127.934799,42.0634786 C127.934799,42.7593137 127.558,43.0907609 126.703668,43.0907609 L122.68311,43.0907609 L122.532156,42.2622886 C123.085166,42.1296514 123.336267,41.7982042 123.336267,41.2347148 C123.336267,41.0359048 123.311304,40.8703269 123.21057,40.3068375 L122.004402,33.3467376 L119.516884,42.2290564 C119.315709,42.9913559 119.165048,43.0907609 118.209982,43.0907609 L113.259909,43.0907609 L113.108955,42.2622886 C113.661671,42.1296514 113.913066,41.7982042 113.913066,41.2347148 C113.913066,41.0359048 113.888103,40.8703269 113.787369,40.3068375 L110.74684,22.7743587" id="path40" fill="#F3652C"></path>
                        <path d="M145.38913,22.7743587 C145.33891,22.4760271 145.313653,22.2109276 145.313653,22.0451165 C145.313653,21.3160201 145.690745,20.9846312 146.545077,20.9846312 L151.419967,20.9846312 L151.570628,21.8131618 C151.043168,21.9457115 150.791773,22.2440723 150.791773,22.840619 C150.791773,23.0394582 150.791773,23.2051235 150.892214,23.7685546 L153.480466,38.6828336 L155.892801,38.6828336 C156.973564,38.6828336 157.124225,38.8484115 157.42584,40.6379932 L158.054034,44.1512753 L157.300143,44.1512753 C157.048748,43.3228031 156.722169,43.0907609 155.842581,43.0907609 L146.720995,43.0907609 C145.43935,43.0907609 145.288689,42.9248915 144.962111,41.0359048 L144.35888,37.5558548 L145.062551,37.5558548 C145.33891,38.4840236 145.590011,38.6828336 146.57004,38.6496015 L148.1533,38.6828336 L145.38913,22.7743587" id="path42" fill="#F3652C"></path>
                        <path d="M152.94449,22.7410974 C152.793829,22.3765929 152.743315,22.111406 152.743315,21.8463065 C152.743315,21.2497307 153.04493,20.9846312 153.723344,20.9846312 L158.120995,20.9846312 L158.246692,21.8131618 C157.743902,21.9457115 157.517764,22.2109276 157.517764,22.7079818 C157.517764,22.9400532 157.593241,23.2382682 157.718939,23.6028893 L158.598234,26.1879735 L162.920407,26.1879735 L162.995884,22.6416924 C163.020848,21.216586 163.197059,20.9846312 164.352712,20.9846312 L169.001464,20.9846312 L169.152419,21.8131618 C168.498968,21.9788563 168.22261,22.3765929 168.172389,23.2714129 L167.518939,41.0359048 C167.493975,42.0964192 167.468718,42.3284614 167.368278,42.5934443 C167.19236,42.9581237 166.916002,43.0907609 166.287808,43.0907609 L159.5533,43.0907609 L159.402639,42.2622886 C159.879879,42.1958243 160.131274,41.9305499 160.131274,41.4999892 C160.131274,41.2347148 160.005576,40.8370948 159.729218,40.0747953 L152.94449,22.7410974 Z M159.905136,30.032557 L162.669306,38.0861121 L162.845224,30.032557 L159.905136,30.032557 Z" id="path44" fill="#F3652C"></path>
                        <path d="M169.871361,22.7743587 C169.821141,22.4760271 169.795884,22.2109276 169.795884,22.0451165 C169.795884,21.3160201 170.172977,20.9846312 171.027308,20.9846312 L175.902198,20.9846312 L176.052859,21.8131618 C175.525399,21.9457115 175.274004,22.2440723 175.274004,22.840619 C175.274004,23.0394582 175.274004,23.2051235 175.374445,23.7685546 L177.962697,38.6828336 L180.081346,38.6828336 C181.161816,38.6828336 181.312771,38.8484115 181.614092,40.6379932 L182.24258,44.1512753 L181.488689,44.1512753 C181.237294,43.3228031 180.910715,43.0907609 180.031126,43.0907609 L171.203226,43.0907609 C169.921582,43.0907609 169.770921,42.9248915 169.444049,41.0359048 L168.841112,37.5558548 L169.544783,37.5558548 C169.821141,38.4840236 170.072242,38.6828336 171.052272,38.6496015 L172.635532,38.6828336 L169.871361,22.7743587" id="path46" fill="#F3652C"></path>
                        <path d="M179.64581,22.7743587 C179.59559,22.5091426 179.570333,22.2109276 179.570333,22.012001 C179.570333,21.3160201 179.947426,20.9846312 180.801758,20.9846312 L188.383549,20.9846312 C189.639937,20.9846312 189.941258,21.2497307 190.192653,22.7410974 L190.921581,26.9502437 L190.21791,26.9502437 C189.941258,25.8564971 189.61468,25.6245424 188.182374,25.6245424 L185.475766,25.6245424 L186.355061,30.7283921 L189.847866,30.7283921 C191.104547,30.7283921 191.380906,30.9604343 191.632007,32.451801 L192.10954,35.1363193 L187.133916,35.1363193 L187.76211,38.8816437 L191.581787,38.8816437 C192.838174,38.8816437 193.114533,39.1466265 193.391185,40.6379932 L193.818204,43.0907609 L183.174445,43.0907609 L179.64581,22.7743587" id="path48" fill="#F3652C"></path>
                        <polyline id="path50" fill="#154280" points="48.1427301 5.03732712 50.7955934 8.54990961 45.8029357 11.4650126 49.4740076 14.3801156 44.7750356 18.3883822 170.032007 18.3883822 165.333036 14.3801156 169.004107 11.4650126 164.01145 8.54990961 166.664019 5.03732712 48.1427301 5.03732712"></polyline>
                        <path d="M58.1515404,7.5955632 L64.1027884,7.5955632 C66.2091026,7.5955632 68.5066062,8.18598816 68.5066062,9.91283687 C68.5066062,10.9154574 67.676944,11.5840071 66.368574,11.9070588 L66.368574,11.9739021 C67.4217311,12.2078974 67.9483096,12.932009 67.9483096,13.6674021 C67.9483096,15.6059455 65.5709235,15.9958406 63.2414081,15.9958406 L58.1515404,15.9958406 L58.1515404,7.5955632 Z M62.20411,12.7649736 L62.20411,13.9681241 L62.5074874,13.9681241 C63.1456666,13.9681241 63.9594698,14.0127543 63.9594698,13.388864 C63.9594698,12.8094873 63.2414081,12.7649736 62.603229,12.7649736 L62.20411,12.7649736 Z M62.20411,10.9934762 L62.634947,10.9934655 C63.3371497,10.9934655 64.4540366,11.0046304 64.4540366,10.3027319 C64.4540366,9.61196909 63.4167385,9.60083339 62.6986768,9.60083339 L62.20411,9.60083339 L62.20411,10.9934762 Z" id="path52" fill="#FFFFFF"></path>
                        <polyline id="path54" fill="#FFFFFF" points="80.7538893 7.5955632 88.9709229 7.5955632 88.9709229 9.89050718 85.1577071 9.89050718 85.1577071 10.7149275 88.5242269 10.7149275 88.5242269 12.8986603 85.1577071 12.8986603 85.1577071 13.7007508 88.8434633 13.7007508 88.8434633 15.9958406 80.7538893 15.9958406 80.7538893 7.5955632"></polyline>
                        <path d="M105.852273,8.64281395 L109.155063,8.64281395 L109.554182,7.5955632 L114.181201,7.5955632 L109.888984,15.9958406 L105.054623,15.9958406 L100.8743,7.5955632 L105.501319,7.5955632 L105.852273,8.64281395 Z M106.634065,10.6370651 L107.432009,13.1994989 L107.59148,13.1994989 C107.671363,12.8429526 107.750952,12.4752707 107.878705,12.1187536 L108.389425,10.6370651 L106.634065,10.6370651 Z" id="path56" fill="#FFFFFF"></path>
                        <path d="M125.985313,7.5955632 L130.261377,7.5955632 L130.261377,10.2916836 L130.34126,10.2916836 L132.255797,7.5955632 L137.298088,7.5955632 L134.681054,10.3250324 C134.441994,10.5702217 134.170628,10.7039084 133.947133,10.8264301 L133.947133,10.8932735 C135.57474,11.2720036 136.276649,11.8068376 136.276649,13.0768605 C136.276649,15.1936042 133.979145,15.9958406 131.266663,15.9958406 L125.985313,15.9958406 L125.985313,7.5955632 Z M130.261377,13.7007508 L130.596473,13.7007508 C131.346546,13.7007508 132.000584,13.6227427 132.000584,12.9765227 C132.000584,12.3527489 131.282816,12.2747408 130.564754,12.2747408 L130.261377,12.2747408 L130.261377,13.7007508 Z" id="path58" fill="#FFFFFF"></path>
                        <path d="M148.041112,8.23050178 C149.397353,7.75143375 151.152713,7.46175997 152.668425,7.46175997 C155.269012,7.46175997 157.885752,8.45333225 157.885752,10.4587191 C157.885752,11.8847291 156.545664,12.5756085 154.694857,12.8651657 L153.705429,13.021182 C153.370334,13.0768605 152.827896,13.1213741 152.827896,13.4333776 C152.827896,13.778759 153.386193,13.8790677 153.769159,13.8790677 C154.710716,13.8790677 155.556237,13.6005588 156.30631,13.2440125 L157.486927,15.3942508 C156.30631,15.8955027 155.045811,16.1295272 153.673418,16.1295272 C151.056678,16.1295272 148.45609,15.015404 148.45609,13.021182 C148.45609,11.7065289 149.89192,11.0046304 151.599115,10.7929356 L152.476942,10.6815787 C152.875767,10.6259002 153.450216,10.5924057 153.450216,10.2136755 C153.450216,9.83482871 152.764167,9.71230693 152.33333,9.71230693 C151.328043,9.71230693 150.38678,10.0576883 149.604989,10.4810487 L149.381494,10.6035705 L148.041112,8.23050178" id="path60" fill="#FFFFFF"></path>
                        <polyline id="path62" fill="#231F20" points="175.5207 16.7058139 176.098968 16.7058139 176.098968 17.2939651 174.242874 17.2939651 174.242874 16.7058139 174.821141 16.7058139 174.821141 14.6226522 175.5207 14.6226522 175.5207 16.7058139"></polyline>
                        <polyline id="path64" fill="#231F20" points="176.190598 14.6226522 176.886633 14.6226522 177.111302 16.1602524 177.118645 16.1602524 177.735972 14.6226522 178.014386 14.6226522 178.660495 16.1602524 178.667543 16.1602524 178.864019 14.6226522 179.563578 14.6226522 179.156824 17.2939651 178.460788 17.2939651 177.882521 15.8662351 177.336266 17.2939651 176.647279 17.2939651 176.190598 14.6226522"></polyline>
                    </g>
                </g>
            </g>
        </g>
    </g>
</svg>