<svg width="200" height="200" xmlns="http://www.w3.org/2000/svg"><g fill-rule="nonzero" fill="none"><path d="M3.978 148.52v-14.397l-.034-5.56 1.658-.733v-5.885L0 117.197V91.384l4.917-2.308a246.448 246.448 0 0 1 18.1-7.646l6.647-2.542 2.231 2.067 70.007-34.063 66.048 34.226 1.88-2.116 6.992 2.429a247.503 247.503 0 0 1 18.096 7.645l4.918 2.308v15.764l-.045 9.75-4.775 5.637-.783-.376v5.28l1.655.737v19.88l-5.082 5.507-9.525-4.442a219.576 219.576 0 0 0-8.826-3.874l-5.256-2.17.047-4.285c-4.838-2.043-17.352-6.833-34.748-9.888a186.603 186.603 0 0 0-32.203-2.79c-19.74 0-39.13 3.115-57.628 9.258-2.988 1-6.014 2.096-8.988 3.255l-.66.256-.05 4.523-5.262 2.138a219.247 219.247 0 0 0-8.914 3.86l-9.497 4.36-5.318-5.245" fill="#FFF"/><path fill="#9F8C50" d="M173.565 86.958 101.88 49.885 28.26 85.882l1.52 3.568 137.656-.851 1.826-1.558 1.361.668 2.942-.75"/><path fill="#192C4E" d="m101.88 49.885 73.727 38.204-5.003.649-64.778-31.798-3.189 2.177 25.46 12.527-36.711-9.67-63.047 33.442-.649-9.433 74.19-36.098"/><path fill="#192C4E" d="m48.202 76.575 30.975-14.437 20.863 10.459-29.645-3.376-17.658 9.2-4.535-1.846"/><path fill="#FFF" d="m30.024 87.477 71.685-35.69 32.336 16.261-32.215-14.552-7.954 4.062 21.754 9.368-25.856-7.577-10.489 5.613 10.773 4.843-14.875-3.144L30.5 89.434l-.475-1.957"/><path d="M73.737 79.747c-20.562 2.91-34.813 8.204-39.291 10.02-1.733.677-5.694 4.642-5.694 4.642l-1.535-7.642a235.286 235.286 0 0 0-17.41 7.54L6.701 95.8l-3.674 19.631 3.421 2.9 5.458-2.578-.187 16.565-1.603.728-.02 3.607-3.091 10.236 2.944 2.903 7.61-3.494c3.014-1.383 6.054-2.7 9.037-3.913l3.41-1.385.05-4.553 2.552-.995a201.545 201.545 0 0 1 9.131-3.307c36.814-12.224 69.97-10.323 91.299-6.576 20.527 3.605 34.311 9.55 37.258 10.894l-.048 4.239 3.375 1.393a221.572 221.572 0 0 1 8.95 3.93l7.533 3.512 2.795-3.03-2.606-13.723-1.596-.739c.015-1.202.152-13.439.182-16.168l5.362 2.57 2.567-3.031-2.43-5.63.154-13.854-3.072-1.5a230.984 230.984 0 0 0-17.24-7.564l-2.647 3.685s-4.63-2.301-4.65-.611c-36.69-14.098-70.864-13.357-93.188-10.196" fill="#9F8C50"/><path d="M138.106 78.52c-26.087-5.046-49.34-4.012-66.093-1.7-21.182 2.926-36.542 8.566-38.7 9.158l-4.301-3.985-4.919 1.881a243.251 243.251 0 0 0-17.878 7.552l-3.188 1.497v22.51l5.602-2.583v16.565l-1.646.729.022 3.607v13.139l7.812-3.502a232.995 232.995 0 0 1 9.28-3.917l3.501-1.39v-4.55l2.622-.996c3.1-1.177 6.257-2.292 9.383-3.313 37.846-12.25 72.08-10.371 94.133-6.64 21.224 3.591 35.516 9.526 38.572 10.867v4.24l3.497 1.39c3.122 1.24 6.247 2.56 9.281 3.923l7.815 3.506v-16.751l-1.654-.738v-16.168l5.563 2.566.04-8.64V92.922l-3.189-1.497a244.634 244.634 0 0 0-17.876-7.552l-5.022-1.744-3.78 4.255c-10.749-4.004-19.145-5.983-28.877-7.865" fill="#192C4E"/><path d="M193.189 92.43a243.32 243.32 0 0 0-17.793-7.518l-4.244-1.492-3.77 4.243c-11.198-4.272-19.39-6.164-29.573-8.165-25.968-5.28-50.018-4.13-68.535-1.304-19.809 3.25-36.51 9.218-36.51 9.218l-4.326-4.027-3.956 1.527A242.59 242.59 0 0 0 6.687 92.43l-2.552 1.198V113.7l5.603-2.582v19.02l-1.643.727.02 2.88v11.433l6.248-2.8a232.072 232.072 0 0 1 9.325-3.937l2.802-1.11v-4.565l3.336-1.268a213.33 213.33 0 0 1 9.433-3.329s-.004-.007-.006-.008c73.751-23.852 134.164 4.57 134.164 4.57v4.207l2.798 1.111a234.292 234.292 0 0 1 9.326 3.942l6.251 2.804v-14.317l-1.654-.738v-18.62l5.57 2.569.032-6.917V93.627l-2.551-1.198" fill="#192C4E"/><path d="M25.93 88.17c-.116.046-11.757 4.697-17.485 7.385l-.171.081v11.905l3.765-8.358 1.837-.82v34.59l-1.827 5.287 10.44-4.409s-1.716-2.804-1.8-2.939V95.481l1.975-.79c.25.342 3.676 4.99 3.676 4.99V88.007l-.41.163M49.227 86.376l-10.135 2.95 1.882 2.167v11.638l-4.503 1.451V93.106l2.066-3.607-11.424 3.983 2.483 1.908v27.68l-1.918 4.195.68-.258a217.154 217.154 0 0 1 9.616-3.396l.386-.126-1.89-2.662v-11.127l4.504-1.45v10.963l-1.913 4.053.652-.207c3.18-1.01 9.612-2.802 9.677-2.82l.401-.112-1.901-2.781V90.213l1.988-4.026-.651.19M69.967 82.016a213.358 213.358 0 0 0-18.177 3.677l-.466.116 2.374 2.798v26.518l-1.868 4.479.576-.144a201.33 201.33 0 0 1 17.653-3.569l.252-.04-.002-12.698s-3.707 7.67-3.834 7.925l-5.831 1.115v-9.016l1.584-.318 2.99 4.9.017-16.391-3.066 6.404-1.525.308v-8.952l5.887-1.118 3.78 6.115V81.962l-.344.054M98.27 79.687h-.239L94.212 96.85c-.457-2.419-3.221-17.008-3.221-17.008l-.258.01c-3.186.132-9.917.695-9.985.7l-.52.044 2.244 3.163v27.676l-1.96 2.983 7.3-.553-2.003-2.65v-19.76l4.975 22.271 2.976-.102.05-.228L98.615 91.1v19.668l-1.942 2.79 10.348.17-2.024-2.866V83.177l1.954-3.322-.504-.015c-.054-.001-5.477-.159-8.176-.153M111.096 81.698c-1.048.962-1.579 2.439-1.579 4.39v21.658c0 4 2.212 6.218 6.572 6.592l4.042.395c2.373.26 4.075-.102 5.2-1.112 1.003-.899 1.512-2.325 1.512-4.24V87.85c.001-4.123-2.266-6.553-6.555-7.029l-4.056-.395c-2.275-.195-4.002.233-5.136 1.272Zm7.12 28.028c-1.533-.149-1.71-.79-1.711-1.26v-22.11c0-.289.075-.499.232-.642.252-.229.742-.315 1.421-.25 1.704.17 1.706 1.004 1.707 1.279v22.112c0 .285-.075.492-.228.631-.25.227-.729.308-1.42.24ZM129.743 82.455s1.654 3.726 1.703 3.839v23.76c0 4.036 2.132 6.418 6.516 7.278l4.021.842c2.382.526 4.087.344 5.213-.56.99-.794 1.492-2.158 1.492-4.057V89.812l2.393-3.324-.42-.11a226.567 226.567 0 0 0-7.826-1.912l-.566-.127 1.896 4.483v22.786c0 .694-.17 1.167-.517 1.446-.443.358-1.216.42-2.297.185-1.98-.431-2.944-1.414-2.944-3.007v-22.76c.082-.134 2.114-3.51 2.114-3.51l-.41-.086a201.215 201.215 0 0 0-10.05-1.837l-.54-.084.222.5M152.346 87.098l1.634 4.035v25.956l-1.793 3.364 7.023 2.077-.238-.578-1.688-4.049v-13.849l8.018 20.506 6.486 2.368-.246-.62-1.678-4.162V96.194c.074-.132 1.836-3.218 1.836-3.218l-7.302-2.654.294.645 1.887 4.191v12.45l-7.72-19.092-.133-.038-6.616-1.955.236.575M173.539 88.447v13.64s3.484-7.046 3.735-7.387c.322.128 1.629.667 1.913.78v33.834l-1.727 4.154.282.112a239.391 239.391 0 0 1 9.492 4.011l.604.272-1.838-5.91v-33.59l1.84.82 3.762 8.36V95.635l-.171-.08a239.889 239.889 0 0 0-17.49-7.389l-.402-.151v.43" fill="#9F8C50"/><path d="M25.93 88.17c-.116.046-11.757 4.697-17.485 7.385l-.171.081v11.905l3.765-8.358 1.837-.82v34.59l-1.827 5.287 10.44-4.409s-1.716-2.804-1.8-2.939V95.481l1.975-.79c.25.342 3.676 4.99 3.676 4.99V88.007l-.41.163M49.227 86.376l-10.135 2.95 1.882 2.167v11.638l-4.503 1.451V93.106l2.066-3.607-11.424 3.983 2.483 1.908v27.68l-1.918 4.195.68-.258a217.154 217.154 0 0 1 9.616-3.396l.386-.126-1.89-2.662v-11.127l4.504-1.45v10.963l-1.913 4.053.652-.207c3.18-1.01 9.612-2.802 9.677-2.82l.401-.112-1.901-2.781V90.213l1.988-4.026-.651.19M69.967 82.016a213.358 213.358 0 0 0-18.177 3.677l-.466.116 2.374 2.798v26.518l-1.868 4.479.576-.144a201.33 201.33 0 0 1 17.653-3.569l.252-.04-.002-12.698s-3.707 7.67-3.834 7.925l-5.831 1.115v-9.016l1.584-.318 2.99 4.9.017-16.391-3.066 6.404-1.525.308v-8.952l5.887-1.118 3.78 6.115V81.962l-.344.054M98.27 79.687h-.239L94.212 96.85c-.457-2.419-3.221-17.008-3.221-17.008l-.258.01c-3.186.132-9.917.695-9.985.7l-.52.044 2.244 3.163v27.676l-1.96 2.983 7.3-.553-2.003-2.65v-19.76l4.975 22.271 2.976-.102.05-.228L98.615 91.1v19.668l-1.942 2.79 10.348.17-2.024-2.866V83.177l1.954-3.322-.504-.015c-.054-.001-5.477-.159-8.176-.153M111.096 81.698c-1.048.962-1.579 2.439-1.579 4.39v21.658c0 4 2.212 6.218 6.572 6.592l4.042.395c2.373.26 4.075-.102 5.2-1.112 1.003-.899 1.512-2.325 1.512-4.24V87.85c.001-4.123-2.266-6.553-6.555-7.029l-4.056-.395c-2.275-.195-4.002.233-5.136 1.272Zm7.12 28.028c-1.533-.149-1.71-.79-1.711-1.26v-22.11c0-.289.075-.499.232-.642.252-.229.742-.315 1.421-.25 1.704.17 1.706 1.004 1.707 1.279v22.112c0 .285-.075.492-.228.631-.25.227-.729.308-1.42.24ZM129.743 82.455s1.654 3.726 1.703 3.839v23.76c0 4.036 2.132 6.418 6.516 7.278l4.021.842c2.382.526 4.087.344 5.213-.56.99-.794 1.492-2.158 1.492-4.057V89.812l2.393-3.324-.42-.11a226.567 226.567 0 0 0-7.826-1.912l-.566-.127 1.896 4.483v22.786c0 .694-.17 1.167-.517 1.446-.443.358-1.216.42-2.297.185-1.98-.431-2.944-1.414-2.944-3.007v-22.76c.082-.134 2.114-3.51 2.114-3.51l-.41-.086a201.215 201.215 0 0 0-10.05-1.837l-.54-.084.222.5M152.346 87.098l1.634 4.035v25.956l-1.793 3.364 7.023 2.077-.238-.578-1.688-4.049v-13.849l8.018 20.506 6.486 2.368-.246-.62-1.678-4.162V96.194c.074-.132 1.836-3.218 1.836-3.218l-7.302-2.654.294.645 1.887 4.191v12.45l-7.72-19.092-.133-.038-6.616-1.955.236.575M173.539 88.447v13.64s3.484-7.046 3.735-7.387c.322.128 1.629.667 1.913.78v33.834l-1.727 4.154.282.112a239.391 239.391 0 0 1 9.492 4.011l.604.272-1.838-5.91v-33.59l1.84.82 3.762 8.36V95.635l-.171-.08a239.889 239.889 0 0 0-17.49-7.389l-.402-.151v.43" fill="#9F8C50"/><path d="M25.743 88.887v8.979l-2.872-3.9-2.78 1.112.002.201v35.78l1.525 2.493c-.557.235-7.528 3.18-8.568 3.617l1.422-4.116V97.444l-2.885 1.287-2.717 6.033v-8.748c5.168-2.412 14.831-6.31 16.873-7.129M48.742 87.14l-1.449 2.934v27.452l1.536 2.246c-1.34.376-5.817 1.635-8.646 2.51l1.388-2.94v-11.915l-5.7 1.835.003.217v11.534l1.533 2.16c-2.86.94-5.74 1.958-8.587 3.029l1.373-3.002V95.096l-1.841-1.414 8.874-3.094-1.352 2.36V105.4l5.693-1.834.004-.219V91.27s-1.011-1.164-1.418-1.63l8.59-2.5M69.715 82.663v9.362c-.77-1.243-2.892-4.677-2.892-4.677l-6.78 1.288.004.245v9.928l2.53-.511.066-.135 1.979-4.155v11.628l-2.102-3.445-2.475.498.002.244v9.981l6.827-1.306.07-.133 2.77-5.609v9.481a201.585 201.585 0 0 0-16.883 3.406l1.464-3.509V88.388l-1.89-2.227a213.095 213.095 0 0 1 17.31-3.498M94.48 98.394l4.03-18.11c2.269.002 6.088.102 7.414.139l-1.524 2.592v28.037l1.455 2.06-8.053-.132 1.409-2.024V85.499l-5.935 27.545c-.342.011-1.656.056-2.018.07l-6.046-27.067v25.369l1.465 1.936-5 .38 1.392-2.118V83.569l-1.75-2.465c1.582-.13 6.458-.52 9.182-.643l3.665 19.347.315-1.414M142.11 117.591l-4.033-.843c-4.06-.798-6.034-2.988-6.034-6.694V86.167l-1.53-3.446a200.12 200.12 0 0 1 9.06 1.658l-1.762 2.929v22.924c0 1.889 1.148 3.097 3.413 3.59 1.285.278 2.2.18 2.798-.303.49-.395.739-1.037.74-1.911V88.702l-1.49-3.524c2.127.484 4.545 1.075 6.817 1.668l-1.998 2.774v23.937c0 1.732-.415 2.908-1.269 3.593-.96.772-2.547.92-4.711.441M154.541 117.304l.036-.066v-26.22l-1.446-3.57 5.283 1.56 8.76 21.665.002-15.643-1.65-3.664 5.305 1.928-1.564 2.741v26.226l1.471 3.648-4.978-1.816-9.073-23.203v17.132l1.493 3.582-5.122-1.516 1.483-2.784M174.135 88.886a239.861 239.861 0 0 1 16.87 7.133v8.744l-2.713-6.032-2.89-1.287.002.46v34.14l1.477 4.75a240.043 240.043 0 0 0-8.64-3.65l1.543-3.711V95.077l-2.78-1.112-.135.187-2.734 5.517V88.886M116.336 85.273c-.285.26-.43.624-.428 1.084v22.11c0 .745.392 1.671 2.25 1.853.88.086 1.495-.042 1.879-.39.282-.256.424-.619.424-1.075V86.74c-.002-.751-.393-1.686-2.244-1.87-.876-.084-1.491.047-1.881.402Zm3.86 28.867-4.055-.396c-4.056-.347-6.027-2.31-6.027-5.998V86.088c0-1.777.466-3.105 1.386-3.95 1.004-.922 2.579-1.298 4.68-1.118l4.043.394c3.998.443 6.025 2.608 6.024 6.436v21.532c0 1.761-.43 3.002-1.315 3.795-.977.877-2.57 1.2-4.736.963Z" fill="#FFF"/></g></svg>