<svg width="200" height="200" xmlns="http://www.w3.org/2000/svg"><g fill="none"><path d="M194.301 181.024h-.146l-2.124-3.364v5.186h-1.645v-7.684h1.847l2.02 3.243 2.02-3.243h1.796v7.684h-1.646v-5.186l-2.122 3.364zm-7.831 1.822h-1.748v-6.137h-2.294v-1.547h6.335v1.547h-2.293v6.137zM177.849 44.39h-57.626c-5.48-19.509-15.594-28.256-16.04-28.628l-.554-.465-.951-.283c-1.088-7.36-6.75-12.993-13.548-12.993-6.806 0-12.468 5.632-13.55 12.993l-.94.271-.568.477c-.446.372-10.56 9.12-16.039 28.627H0s12.639 14.948 11.241 33.343l-8.07 106.254h67.936s-9.999-14.992-9.575-29.776l.139-4.432 10.868 27.394h2.74l-2.8 15.236 1.088 1.252c.403.47 4.051 4.6 7.42 6.225l1.859.895 1.67-1.214c.481-.35 4.769-3.503 6.782-6.005l1.056-1.313-.39-1.639c-1.068-4.486-1.697-9.056-2.067-13.437h15.55l10.726-27.335.144 4.373c.42 14.784-9.578 29.776-9.578 29.776h67.937l-8.067-106.254c-1.4-18.395 11.24-33.343 11.24-33.343" fill="#FBC01C"/><path d="M170.176 48.101l-50.43-.004-7.965 13.694a54.857 54.857 0 0 0-2.652-8.305c5.457-2.208 8.4-5.9 8.4-5.9-5.075-20.358-15.562-29.188-15.562-29.188l-2.553-.752c0-.018.005-.044.005-.064 0-6.685-4.616-12.117-10.29-12.117-5.671 0-10.29 5.432-10.29 12.117 0 .031.006.058.006.09l-2.552.726s-10.49 8.83-15.565 29.189c0 0 2.962 3.717 8.451 5.92a54.3 54.3 0 0 0-2.781 8.855L58.1 48.097l-50.425.004s9.223 12.602 7.768 29.877L7.675 180.274H64.08s-7.483-12.179-6.731-30.127l.847-19.368 16.725 42.53h4.6c-.052.219-.091.432-.149.655l-3.205 17.439s3.492 4.015 6.32 5.38c0 0 4.344-3.164 6.126-5.38-1.455-6.125-2.162-12.378-2.445-18.095h16.755l16.75-42.506.825 19.345c.75 17.948-6.732 30.127-6.732 30.127h56.41l-7.773-102.296c-1.452-17.275 7.773-29.877 7.773-29.877" fill="#16243A"/><path d="M113.952 64.5l.04.04c-.047-.18-.052-.176-.04-.04" fill="#16243A"/><path d="M93.798 149.946s-3.095 3.751 1.103 6.732l.443-3.976s-1.104-1.104-1.546-2.756m-12.861 33.058l-1.122 5.514s.358 1.022 2.589 3.585l-.11-6.069-1.357-3.03" fill="#FFF"/><path d="M74.769 145.86s.383-.798.562-2.323c.107-1.723-.177-4.534-1.807-8.847-3.093-8.192-3.888-14.92-4.002-16.535a8.3 8.3 0 0 1-.68-2.223c-4.055-7.154-4.953-16.023-4.989-22.217-2.914-1.63-3.264-3.395-3.264-3.395 0-3.63 1.507-5.855 3.133-7.216-.328-3.437-.302-6.903-.147-9.908L52.506 55.518l-32.658.003c2.103 2.738 4.918 9.832 4.006 22.94l-6.956 93.633h35.03c-1.163-2.733-3.277-10.466-2.999-22.92l2.352-54.651 26.237 65.642c-.133-8.38-2.749-14.304-2.749-14.304m86.181 26.233L154 78.462c-.918-13.11 1.894-20.203 3.998-22.941l-32.652-.003-10.595 16.918c.216 3.602.266 7.971-.271 12.184 1.466 1.277 2.742 3.264 2.742 6.35 0 0-.38 1.632-3.672 3.09-.334 5.95-1.574 14.151-5.562 20.133l-.043.091c.775 4.087-1.277 10.222-1.277 10.222s-.254.292-.66.816c-.2 1.55-.398 2.532-.417 2.63l-.06.311-.177.264c-.052.085-3.264 3.425-5.283 8.012-.718 2.629-.922 5.386-.07 7.965 1.22 3.681.676 6.034-.372 7.545-.025 1.925-.412 3.584-1.1 4.997-1.19 2.438-4.723 3.877-4.723 3.877-5.635-3.166-4.102-8.552-3.1-11.332.088-.246.177-.483.263-.726.746-2.145-.155-3.669-.167-3.68l-.457-.699.276-.787c3.744-10.58 1.164-14.989 1.14-15.078l-.315-1.106 3.104-2.39c-.493-5.157-2.878-6.169-3.991-6.357-6.87 6.439-4.937 24.912-3.64 31.635l.06.328s-.903 6.276-.965 15.163H98.04l28.595-71.371 2.287 54.65c.276 12.455-1.84 20.188-3 22.921h35.03" fill="#FBC01C"/><path d="M77.656 68.01a10.7 10.7 0 0 1-.152-1.412c-3.063-6.583-4.944-14.931-4.944-14.931-.097 11.523 2.559 16.652 4.942 18.944-.007-.853.05-1.725.154-2.601m28.034-16.343s-1.879 8.357-4.948 14.941c-.021.477-.076.941-.154 1.403.104.878.165 1.751.158 2.603 2.383-2.287 5.038-7.416 4.944-18.947M89.121 71.361c4.277 0 4.43-1.009 4.43-1.511h-8.86c0 .502.148 1.511 4.43 1.511m.003-20.823c-7.834 0-8.916 8.025-7.304 10.35 0 0 1.398-6.836 7.304-6.836 5.914 0 7.312 6.836 7.312 6.836 1.605-2.325.526-10.35-7.312-10.35m.161-15.246c-7.42 0-9.134 4.13-8.834 5.395 0 0 2.621-3.072 8.834-3.072 6.214 0 8.835 3.072 8.835 3.072.296-1.266-1.412-5.395-8.835-5.395m-14.785 9.1c-2.86 1.385-3.327 5.17-3.327 5.17s1.132.845 2.287-.18c1.155-1.018 2-.56 2-.56-1.365 1.402-1.28 2.724-1.28 2.724 2.344-1.12 3.546-3.158 3.546-3.158l.744-1.722c.23-3.08-3.664-2.297-3.97-2.274m9.144-22.942s.006.017.028.045c.165.276 1.28 1.71 2.836 1.875 0 0 .366-1.457 2.568-1.457v3.236s-.87-.213-1.488-.62c0 0 .303 1.174 1.542 1.807v.236s-.35.043-.964-.184c-.614-.235-1.109-.12-1.109.376 0 0 .83.675 2.03.675v.693h-1.52s.433 1.327 1.56 1.997c0 0-3.594.378-4.556-4.207" fill="#FFF"/><path d="M94.14 113.354s3.706 4.037 4.045 13.048l-1.604 1.596 3.955-1.095s.085-5.89-1.68-12.793c0 0 1.765-3.369 1.345-7.996 0 0-1.686 4.88-6.06 7.24m-2.1-50.512c.81-1.981 2.316-1.61 2.316-1.61s-1.612-4.599-5.236-4.599c-3.625 0-5.237 4.598-5.237 4.598s1.511-.37 2.319 1.611c-2.453-.97-2.887 1.143-2.887 1.143s2.918-1.174 1.744 4.058h8.12c-1.177-5.232 1.747-4.058 1.747-4.058s-.436-2.114-2.887-1.143M89.121 76.43c-4 0-4.48-1.183-4.48-1.183-.379 1.363.249 3.25 4.48 3.25 4.227 0 4.854-1.887 4.482-3.25 0 0-.481 1.184-4.482 1.184M94.9 45.604c1.985-2.7 4.02-1.56 4.02-1.56-.518-.988-2.992-3.48-7.845-4.093-.595 2.683-1.954 3.083-1.954 3.083s-1.36-.4-1.956-3.083c-4.852.614-7.016 3.092-7.532 4.076 0 0 1.72-1.123 3.707 1.577 1.981 2.694 3.162 1.943 3.162 1.943s-.199.999-1.521 1.966c.095.488.219 1.121.347 1.824 1.035-.495 2.292-.799 3.796-.799 1.505 0 2.754.3 3.79.8.131-.704.252-1.336.348-1.824-1.327-.966-1.525-1.967-1.525-1.967s1.178.751 3.164-1.943M78.87 24.225l-2.242-.494s-7.626 7.443-11.236 22.102c0 0 .235 1.799 3.598 3.068 0 0 1.066-4.578 4.637-6.24H69.99s2.116-11.398 8.88-18.436m21.33 4.713a21.383 21.383 0 0 1-2.594 5.758 13.034 13.034 0 0 1 2.912 5.338c1.894-5.92-.317-11.096-.317-11.096m-21.836 0s-2.084 4.874-.476 10.566a13.057 13.057 0 0 1 2.938-5.023 21.48 21.48 0 0 1-2.462-5.543M72.09 78.761c-3.107 10.425-1.817 21.76-.293 29.165.748 4.769 2.139 8.124 2.139 8.124l2.193-1.184s-3.381 8.167 3.741 25.193c-1.62-12.876 2.124-23.34 2.124-23.34-.338-.292-.657-.6-.972-.905-2.802-3.28-1.842-9.687-1.17-12.75.259-1.072.432-1.709.432-1.709 3.802 7.571 8.802 0 8.802 0V84.24c-12.701 30.65-16.996-5.479-16.996-5.479M89.13 17.83V9.18c-3.628 0-6.575 3.769-6.575 8.402 0 .166.012.33.022.496 1.161 1.26 3.654 2.132 6.55 2.132 2.898 0 5.392-.875 6.555-2.135.003-.165.02-.327.02-.493 0-.114-.01-.22-.017-.323-1.205.353-3.35.75-6.555.571" fill="#FBC01C"/><path d="M63.722 83.104c-.328-3.437-.302-6.903-.147-9.908L52.506 55.518l-32.658.003c2.103 2.738 4.918 9.832 4.006 22.94l-6.956 93.633h7.101l7.01-94.575c.588-8.877-1.288-15.395-1.288-15.395h19.56L62.93 83.868a8.77 8.77 0 0 1 .792-.764m90.27-4.642c-.914-13.11 1.9-20.203 4.004-22.941l-32.658-.003-10.59 16.908c.219 3.583.267 7.928-.26 12.122l14.075-22.424h19.56s-1.876 6.518-1.289 15.395l7.01 94.575h7.104l-6.956-93.632" fill="#FFF"/></g></svg>