<svg width="200" height="200" xmlns="http://www.w3.org/2000/svg"><g fill="none"><path fill="#B1A46D" d="M3.472 61.994H58.64l46.477 77.872V86.944H92.65v-24.95h54.79v24.95h-11.337v111.514H97.938L46.927 112.27v60.104H58.64v26.083H3.472v-26.083h12.092v-85.43H3.472v-24.95"/><path d="M98.8 196.946h35.79V85.432h11.337V63.507H94.16v21.925h12.47v59.916L57.783 63.507h-52.8v21.925h12.093v88.455H4.984v23.059h52.145v-23.059H45.415V106.75L98.8 196.946zm38.814 3.024H97.077l-48.639-82.177v53.07h11.714v29.107H1.96v-29.107h12.091V88.456H1.961V60.482h57.537l44.108 73.902V88.456H91.137V60.482h57.813v27.974h-11.336V199.97z" fill="#10234F"/><path fill="#B1A46D" d="M193.16 20.413h-15.996L172 5.355l-5.164 15.058h-16.438l13.479 9.955-4.913 15.939 13.29-9.576 13.35 9.45-5.038-15.813 12.595-9.955"/><path d="M154.989 21.925l10.647 7.864-3.901 12.657 10.51-7.573 10.548 7.466-3.986-12.509 10.002-7.905h-12.724l-4.086-11.91-4.085 11.91h-12.925zm1.203 28.243l5.923-19.22-16.31-12.047h19.95L172 .696l6.244 18.205h19.268l-15.188 12.005 6.09 19.116L172.26 38.59l-16.068 11.579z" fill="#10234F"/></g></svg>