<?xml version="1.0" encoding="UTF-8"?>
<svg width="200px" height="200px" viewBox="0 0 200 200" version="1.1" xmlns="http://www.w3.org/2000/svg" xmlns:xlink="http://www.w3.org/1999/xlink">
    <!-- Generator: Sketch 51.3 (57544) - http://www.bohemiancoding.com/sketch -->
    <title>navy</title>
    <desc>Created with Sketch.</desc>
    <defs></defs>
    <g id="navy" stroke="none" stroke-width="1" fill="none" fill-rule="evenodd">
        <g id="navy_BGL" transform="translate(1.960784, 0.000000)">
            <g id="navy">
                <g id="g10" transform="translate(97.941975, 100.131185) scale(-1, 1) rotate(-180.000000) translate(-97.941975, -100.131185) translate(0.000000, 0.292554)" fill-rule="nonzero">
                    <g id="g12">
                        <polyline id="path14" fill="#B1A46D" points="1.51148605 137.975594 56.6796244 137.975594 103.156573 60.1037842 103.156573 113.026153 90.6877704 113.026153 90.6877704 137.975594 145.477718 137.975594 145.477718 113.026153 134.141515 113.026153 134.141515 1.51190978 95.9775654 1.51190978 44.9658106 87.6987173 44.9658106 27.5943758 56.6796244 27.5943758 56.6796244 1.51190978 1.51148605 1.51190978 1.51148605 27.5943758 13.6033976 27.5943758 13.6033976 113.026153 1.51148605 113.026153 1.51148605 137.975594"></polyline>
                        <path d="M96.8395476,3.02400067 L132.630145,3.02400067 L132.630145,114.538127 L143.966348,114.538127 L143.966348,136.463155 L92.1986762,136.463155 L92.1986762,114.538127 L104.667943,114.538127 L104.667943,54.6214825 L55.8218198,136.463155 L3.02315313,136.463155 L3.02315313,114.538127 L15.1148605,114.538127 L15.1148605,26.0824939 L3.02315313,26.0824939 L3.02315313,3.02400067 L55.1682544,3.02400067 L55.1682544,26.0824939 L43.4543013,26.0824939 L43.4543013,93.2200258 L96.8395476,3.02400067 Z M135.652885,0 L95.1160474,0 L46.4774127,82.1769445 L46.4774127,29.1064899 L58.1909944,29.1064899 L58.1909944,0 L0,0 L0,29.1064899 L12.0917027,29.1064899 L12.0917027,111.513713 L0,111.513713 L0,139.487569 L57.537429,139.487569 L101.645203,65.5856216 L101.645203,111.513713 L89.1764004,111.513713 L89.1764004,139.487569 L146.989088,139.487569 L146.989088,111.513713 L135.652885,111.513713 L135.652885,0 Z" id="path16" fill="#10234F"></path>
                        <polyline id="path18" fill="#B1A46D" points="191.198982 179.556758 175.20334 179.556758 170.038409 194.614746 164.873943 179.556758 148.436401 179.556758 161.914795 169.601686 157.002379 153.662797 170.291387 163.238947 183.641667 153.789104 178.604386 169.601686 191.198982 179.556758"></polyline>
                        <path d="M153.02807,178.044319 L163.674966,170.18075 L159.773997,157.523534 L170.283496,165.096874 L180.831986,157.630802 L176.846537,170.139422 L186.847759,178.044319 L174.124121,178.044319 L170.038409,189.9553 L165.953161,178.044319 L153.02807,178.044319 Z M154.23076,149.80206 L160.154625,169.022622 L143.844269,181.068733 L163.794724,181.068733 L170.038409,199.273727 L176.282558,181.068733 L195.550205,181.068733 L180.362236,169.063951 L186.451813,149.947407 L170.298814,161.38102 L154.23076,149.80206 Z" id="path20" fill="#10234F"></path>
                    </g>
                </g>
            </g>
        </g>
    </g>
</svg>