<svg width="200" height="200" xmlns="http://www.w3.org/2000/svg"><g fill="none"><path d="M181.698 131.552l-10.146-1.15c-.326-.64-5.6-16.065-11.963-34.839l3.751-.75-11.24-55.7h-11.516a1973.13 1973.13 0 0 1-2.827-8.53V.453H67.18V29.02l-3.725 10.092H32.459l-11.99 55.79 20.918 3.985-12.918 31.584-10.436 2.319v27.948h45.265s-.02 7.27-.05 7.903l-11.776.18v30.4h81.206v-30.4l-11.776-.18c-.03-.633-.05-7.922-.05-7.922h60.846v-29.168" fill="#154280"/><path d="M121.627 144.76c6.284-3.478 5.766-10.18 5.766-10.18s-3.007-4.042-3.07-4.12l-.184-.59c2.042 2.136 6.144 7.599 6.144 7.599s.29 3.86-2.3 7.291h-6.356zm3.205-9.436s.018 7.56-8.214 8.224v3.74h51.649v-3.74c-7.935-.9-10.18-10.629-12.427-16.918-2.532-7.484-11.507-34.061-12.483-36.952l-1.67.334c-2.914-7.773-7.345-23.085-29.789-22.063v7.447l14.451 44.595c-16.275-13.29-37.752-20.606-57.073-17.198l1.199-3.433c19.69-2.62 35.542 3.169 49.577 12.464l-8.154-25.19v8.21l3.678 11.361a.07.07 0 0 1-.01-.005c-14.164-8.454-30.167-11.358-45.333-9.357-.034.005-.07.008-.104.012l2.123-6.084V72.142l-21.83 59.039c-1.89 4.592-4.094 9.908-7.93 13.596h-6.947c6.512-3.214 9.515-10.475 11.987-16.486L69.845 67.95c-1.267 0-2.462.029-2.709.039l-21.6 58.511c-2.844 6.886-5.988 15.27-14.072 17.066v3.742h32.935v-3.742c-8.823-.981-7.963-6.953-4.042-18.712l3.887-11.134a6.23 6.23 0 0 1 .084-.024c20.652-5.838 45.7.482 60.504 21.63zM83.812 30.145c3.263-7.814 3.633-11.24.39-13.734h36.33c-.923.69-1.585 1.689-1.913 2.889H87.091c3.826 2.943 2.159 7.63-.39 13.734l-5.56 15.032h6.016l4.98-14.272 4.62 14.272h2.658l-5.311-16.409 1.873-5.423 7.071 21.832h26.367c-1.057-3.185-8.532-26.116-8.532-26.699 0-2.543 1.197-3.442 3.443-3.741v-3.743H80.613v3.743c5.39.77 3.079 6.231.748 11.826L74.49 48.066h2.694l6.628-17.92" fill="#FAB217"/><path d="M107.422 166.33v-41.9c-3.688-2.439-12.51-7.617-25.275-8.288v53.079c0 6.072-.725 10.884-3.31 14.043h-6.75c5.802-2.52 7.17-8.528 7.17-16.933v-50.26c-.844.002-1.687.028-2.527.072v50.188c0 8.228-.54 15.547-11.827 15.72v3.74h54.343v-3.74c-8.061-.124-11.824-2.892-11.824-15.72m24.366-108.339c-.623-.017-75.99-.008-76.608.015-2.026.077-4.568.164-6.888-.284l-2.46 11.45c-1.984 1.868-3.057 3.094-4.776 5.888l4.436-20.64c2.687.918 5.996.792 8.507.697.617-.024 74.277-.032 74.9-.015 2.937.08 6.869.18 9.972-.875l.692 3.432c-2.624.462-5.499.394-7.775.332zm8.837-7.844c-2.244 3.144-10.029 2.396-13.322 2.396H55.65c-3.145 0-10.032.899-11.826-2.396l-7.337 34.134 3.143.598c3.594-13.623 14.072-21.108 28.144-21.407h8.955v28.343a73.86 73.86 0 0 1 2.527-.057V63.47h2.89v28.34c10.926.4 19.13 2.904 25.275 5.375V63.473h8.953c14.67.898 23.052 8.084 28.144 21.407l2.993-.598-6.887-34.134z" fill="#FAB217"/><path d="M84.202 16.41c3.243 2.496 2.873 5.92-.39 13.735l-6.628 17.921h3.956l5.561-15.032c2.549-6.103 4.216-10.79.39-13.734h31.528c.328-1.2.99-2.199 1.913-2.89h-36.33" fill="#FFF"/><path fill="#FFF" d="M95.977 26.234l-1.873 5.423 5.311 16.41h3.633l-7.07-21.833M79.257 63.471v28.288l2.89.053V63.47h-2.89m32.641 11.926v11.238l8.154 25.19c-14.035-9.295-29.886-15.084-49.577-12.464l-1.199 3.433c19.321-3.408 40.798 3.907 57.073 17.198L111.9 75.396M69.845 67.95l-22.313 60.342c-2.472 6.011-5.475 13.272-11.987 16.486h6.947c3.836-3.688 6.04-9.004 7.93-13.596l21.83-59.04V67.95h-2.407m9.412 48.12v50.26c0 8.405-1.368 14.414-7.17 16.933h6.75c2.585-3.159 3.31-7.97 3.31-14.043v-53.08l-2.89-.07m42.37 28.69c6.284-3.478 5.766-10.18 5.766-10.18s-3.007-4.042-3.07-4.12l-.184-.59c2.042 2.136 6.144 7.599 6.144 7.599s.29 3.86-2.3 7.291h-6.356"/><path d="M131.788 57.992c-.623-.017-75.99-.008-76.608.015-2.026.077-4.568.164-6.888-.284l-2.46 11.45c-1.984 1.868-3.057 3.094-4.776 5.888l4.436-20.64c2.687.918 5.996.792 8.507.697.617-.024 74.277-.032 74.9-.015 2.937.08 6.869.18 9.972-.875l.692 3.432c-2.624.462-5.499.394-7.775.332" fill="#FFF"/><path d="M144.983 2.554h.25c.291 0 .528-.097.528-.333 0-.208-.154-.347-.487-.347a1.25 1.25 0 0 0-.29.028v.652zm-.014 1.276h-.527V1.555c.208-.027.5-.07.875-.07.43 0 .623.07.776.182a.573.573 0 0 1 .236.485c0 .277-.208.458-.472.54v.028c.223.07.333.25.403.555.07.347.124.472.166.555h-.555c-.069-.083-.11-.277-.18-.555-.042-.235-.18-.346-.472-.346h-.25v.901zm-1.4-1.179c0 1.013.762 1.817 1.775 1.817.985.014 1.734-.804 1.734-1.803 0-1.012-.749-1.831-1.761-1.831-.986 0-1.749.819-1.749 1.817zm4.092 0c0 1.276-1.027 2.289-2.33 2.289-1.305 0-2.345-1.013-2.345-2.289 0-1.276 1.04-2.275 2.358-2.275 1.29 0 2.317.999 2.317 2.275z" fill="#154280"/></g></svg>