<svg width="200" height="200" xmlns="http://www.w3.org/2000/svg"><g fill-rule="nonzero" fill="none"><path d="m181.665 131.552-10.146-1.15c-.326-.64-5.6-16.065-11.962-34.839l3.75-.75-11.239-55.7h-11.517a1973.13 1973.13 0 0 1-2.827-8.53V.453H67.148V29.02l-3.725 10.092H32.426l-11.99 55.79 20.918 3.985-12.918 31.584L18 132.791v27.948h45.265s-.02 7.27-.05 7.903l-11.775.18v30.4h81.206v-30.4l-11.777-.18c-.03-.633-.05-7.922-.05-7.922h60.846v-29.168" fill="#154280"/><path d="M121.594 144.76c6.285-3.478 5.767-10.18 5.767-10.18s-3.007-4.042-3.07-4.12l-.185-.59c2.042 2.136 6.144 7.599 6.144 7.599s.29 3.86-2.3 7.291h-6.356Zm3.205-9.436s.018 7.56-8.214 8.224v3.74h51.649v-3.74c-7.935-.9-10.18-10.629-12.427-16.918-2.531-7.484-11.507-34.061-12.482-36.952l-1.67.334c-2.915-7.773-7.345-23.085-29.79-22.063v7.447l14.452 44.595c-16.276-13.29-37.753-20.606-57.074-17.198l1.199-3.433c19.691-2.62 35.542 3.169 49.577 12.464l-8.153-25.19V94.844l3.677 11.361a.07.07 0 0 1-.01-.005c-14.164-8.454-30.167-11.358-45.332-9.357l-.105.012 2.124-6.084V72.142l-21.831 59.039c-1.89 4.592-4.093 9.908-7.93 13.596h-6.947c6.513-3.214 9.515-10.475 11.988-16.486L69.812 67.95c-1.266 0-2.462.029-2.709.039l-21.599 58.511c-2.845 6.886-5.989 15.27-14.073 17.066v3.742h32.935v-3.742c-8.823-.981-7.963-6.953-4.041-18.712l3.886-11.134a6.23 6.23 0 0 1 .084-.024c20.652-5.838 45.701.482 60.504 21.63ZM83.78 30.145c3.262-7.814 3.632-11.24.389-13.734h36.33c-.923.69-1.584 1.689-1.913 2.889H87.058c3.826 2.943 2.159 7.63-.39 13.734l-5.56 15.032h6.016l4.981-14.272 4.62 14.272h2.657l-5.31-16.409 1.873-5.423 7.07 21.832h26.367c-1.057-3.185-8.532-26.116-8.532-26.699 0-2.543 1.197-3.442 3.444-3.741v-3.743H80.58v3.743c5.39.77 3.079 6.231.748 11.826l-6.871 18.614h2.695l6.627-17.92" fill="#FAB217"/><path d="M107.389 166.33V124.43c-3.688-2.439-12.51-7.617-25.275-8.288v53.079c0 6.072-.725 10.884-3.31 14.043h-6.749c5.8-2.52 7.17-8.528 7.17-16.933v-50.26c-.845.002-1.687.028-2.528.072v50.188c0 8.228-.539 15.547-11.827 15.72v3.74h54.343v-3.74c-8.061-.124-11.824-2.892-11.824-15.72M131.755 57.992c-.623-.017-75.99-.008-76.608.015-2.026.077-4.568.164-6.888-.284l-2.46 11.45c-1.984 1.868-3.057 3.094-4.776 5.888l4.436-20.64c2.687.918 5.996.792 8.507.697.617-.024 74.277-.032 74.9-.015 2.937.08 6.869.18 9.972-.875l.692 3.432c-2.624.462-5.499.394-7.775.332Zm8.838-7.844c-2.245 3.144-10.03 2.396-13.323 2.396H55.618c-3.145 0-10.032.899-11.826-2.396l-7.337 34.134 3.144.598c3.593-13.623 14.072-21.108 28.144-21.407h8.954v28.343a73.86 73.86 0 0 1 2.528-.057V63.47h2.889v28.34c10.926.4 19.13 2.904 25.275 5.375V63.473h8.953c14.67.898 23.052 8.084 28.144 21.407l2.993-.598-6.886-34.134Z" fill="#FAB217"/><path d="M84.169 16.41c3.243 2.496 2.873 5.92-.39 13.735l-6.627 17.921h3.956l5.56-15.032c2.549-6.103 4.216-10.79.39-13.734h31.528c.329-1.2.99-2.199 1.913-2.89H84.17" fill="#FFF"/><path fill="#FFF" d="m95.945 26.234-1.874 5.423 5.311 16.41h3.634l-7.071-21.833M79.225 63.471v28.288l2.889.053V63.47h-2.89M111.866 75.396v11.238l8.153 25.19c-14.035-9.295-29.886-15.084-49.577-12.464l-1.199 3.433c19.321-3.408 40.798 3.907 57.074 17.198l-14.451-44.595M69.812 67.95 47.5 128.291c-2.473 6.011-5.475 13.272-11.988 16.486h6.947c3.837-3.688 6.04-9.004 7.93-13.596l21.83-59.04V67.95h-2.407M79.225 116.07v50.26c0 8.405-1.37 14.414-7.17 16.933h6.75c2.584-3.159 3.309-7.97 3.309-14.043v-53.08l-2.89-.07M121.594 144.76c6.285-3.478 5.767-10.18 5.767-10.18s-3.007-4.042-3.07-4.12l-.185-.59c2.042 2.136 6.144 7.599 6.144 7.599s.29 3.86-2.3 7.291h-6.356"/><path d="M131.755 57.992c-.623-.017-75.99-.008-76.608.015-2.026.077-4.568.164-6.888-.284l-2.46 11.45c-1.984 1.868-3.057 3.094-4.776 5.888l4.436-20.64c2.687.918 5.996.792 8.507.697.617-.024 74.277-.032 74.9-.015 2.937.08 6.869.18 9.972-.875l.692 3.432c-2.624.462-5.499.394-7.775.332" fill="#FFF"/><path d="M144.95 2.554h.25c.291 0 .528-.097.528-.333 0-.208-.154-.347-.486-.347a1.25 1.25 0 0 0-.291.028v.652Zm-.013 1.276h-.527V1.555c.207-.027.5-.07.874-.07.43 0 .624.07.776.182a.573.573 0 0 1 .237.485c0 .277-.209.458-.473.54v.028c.223.07.333.25.403.555.07.347.125.472.166.555h-.555c-.069-.083-.11-.277-.18-.555-.042-.235-.18-.346-.472-.346h-.25v.901Zm-1.401-1.179c0 1.013.762 1.817 1.775 1.817.986.014 1.734-.804 1.734-1.803 0-1.012-.748-1.831-1.761-1.831-.986 0-1.748.819-1.748 1.817Zm4.092 0c0 1.276-1.027 2.289-2.33 2.289-1.304 0-2.345-1.013-2.345-2.289 0-1.276 1.04-2.275 2.358-2.275 1.29 0 2.317.999 2.317 2.275Z" fill="#154280"/></g></svg>