<svg width="200" height="200" xmlns="http://www.w3.org/2000/svg"><g fill-rule="nonzero" fill="none"><path d="M199.621 107.03c-1.94-18.104-33.818-29.488-37.448-30.727-5.065-1.51-7.775-3.786-7.801-3.809-13.667-11.266-35.525-15.742-50.78-18.133-21.875-3.428-40.978-2.51-41.78-2.47l-31.324 1.592s2.161.28 2.543.331c-2.946.14-5.673.314-8.064.512-6.844.565-12.115 1.326-15.33 1.864-6.427 1.076-6.516 1.212-7.208 2.276L0 62.208l4.424.604c.214.03 15.286 2.185 31.61 9.41-5.945-1.04-10.21-1.275-10.577-1.293l-13.375-.649 11.968 6.007c.59.295 58.571 29.95 42.2 70.151l-1.423 3.498h5.6l.404-.388c19.201-18.409 44.625-18.355 44.878-18.352 5.622-.084 11.619 1.691 17.968 3.568 5.24 1.551 10.986 3.15 16.876 3.865 8.886 1.082 21.38-2.738 23.176-6.046-3.805-.581-8.532-1.65-12.2-3.547l-.229-.696c-.15-.458-3.21-9.335-14.387-14.983 9.726-2.097 23.02-3.462 28.682 1.76 1.89 1.742 3.782 3.93 4.444 7.416.313 1.641.532 3.72.404 6.383 12.414-5.055 19.272-12.832 19.272-20.168 0-.57-.03-1.144-.094-1.719" fill="#FFF"/><path d="m180.443 128.916 1-.614c10.962-6.734 16.134-13.79 15.366-20.972-1.78-16.587-34.16-27.874-35.55-28.35-5.66-1.683-8.704-4.312-8.743-4.348-12.755-10.514-33.399-14.974-49.363-17.475-21.895-3.432-41.199-2.44-41.199-2.44s12.54 1.629 18.005 3.78c-45.816-5.614-75.154 1.51-75.154 1.51s31.536 4.275 53.723 22.42c-14.609-7.77-33.208-8.67-33.208-8.67s61.118 30.608 43.551 73.747c20.327-19.486 46.872-19.139 46.872-19.139 16.462-.247 34.736 14.136 56.626 4.866l1.36-.648c-28.468.302-31.821-10.601-31.821-10.601s11.673 2.151 16.705 7.242c0 0-4.013-12.194-21.153-16.301 0 0 50.84-16.703 42.983 15.993" fill="#231F20"/><path d="M157.776 82.924c-.167 7.354-3.213 15.777-22.16 23.433-21.253 8.588-29.723 18.21-29.723 18.21 7.986-2.713 23.026-.249 34.532 4.887 11.51 5.13 19.22 3.596 19.22 3.596-11.026-.165-18.457-7.743-18.457-7.743-9.724-9.327-20.689-7.281-20.689-7.281 22.948-16.704 47.092-12.284 47.092-12.284l-8.222-3.122c31.289 1.476 24.687 21.184 24.687 21.184 29.545-25.314-26.28-40.88-26.28-40.88Zm2.32 7.136c.966-1.42.279-3.137.279-3.137 19.069 4.669 25.546 14.939 25.546 14.939-9.952-9.972-25.824-11.802-25.824-11.802ZM125.563 78.65a84.154 84.154 0 0 1 5.786 3.73c-.67-.074-1.212.048-1.502.41-.649.829.032 2.48 2.054 3.842.109.074.215.133.33.203a8.236 8.236 0 0 1-4.008-1.576c-4.747-3.51-2.66-6.61-2.66-6.61" fill="#960A2C"/><path d="M128.31 116.26s5.278-1.362 7.423-1.212c7.519.452 16.898 8.478 16.898 8.478s-10.298-7.343-24.321-7.267" fill="#960A2C"/><path d="M148.275 78.028s-4.121-6.062-14.27-9.308c0 0-15.521-6.49-39.806-8.315 0 0 11.343 2.435 19.903 7.506 0 0-43.63-10.342-83.133-6.27 0 0 35.32 9.706 51.602 43.476 0 0-10.42-14.012-32.261-21.096 0 0 27.943 15.664 27.033 49.918 0 0 5.702-5.16 21.471-9.434 8.954-9.865 16.031-13.75 32.85-21.116 9.554-3.732 25.821-11.335 16.61-25.361ZM137.199 89.7c-13.37 7.108-27.018.76-27.018.76 14.73 2.934 20.08-2.073 20.08-2.073-10.023-3.615-7.453-10.002-7.453-10.002-11.697-7.379-45.884-8.277-45.884-8.277 30.533-.85 44.963 3.702 50.84 6.224-3.414-4.358-10.68-6.295-10.68-6.295 5.388.832 10.86 2.123 18.416 10.125 5.565 5.881 10.969 6.77 10.969 6.77-5.04.478-9.27 2.768-9.27 2.768Z" fill="#FFF"/><path d="M135.886 85.727s-.789 1.071-3.48.143c0 0 2.069-.078 1.143-1.984 0 0 2.07 1.598 2.337 1.841" fill="#FFF"/><path d="M87.367 115.377c-1.468-28.566-36.295-48.099-36.295-48.099 14.017 2.333 27.42 13.101 38.814 26.312-5.316-12.88-17.511-21.245-17.511-21.245S83.9 74.83 94.1 88.395c14.999 19.943 26.825 16.722 26.825 16.722-19.064 8.361-23.396 16.917-23.396 16.917-11.128 1.48-17.181 6.169-17.181 6.169 1.453-15.293-10.645-29.6-10.645-29.6 8.226 2.961 17.663 16.774 17.663 16.774M147.227 85.251s-5.373-.408-11.001-6.966c-5.625-6.553-12.841-8.346-12.841-8.346s9.53.736 15.306 7.686c4.033 4.859 8.536 7.626 8.536 7.626" fill="#9E9C9D"/><path d="M85.634 144.882h-1.186v3.085h-1.036v-3.085h-1.188v-.893h3.41v.893Zm.797-.893h1.528l.684 2.653h.012l.685-2.653h1.527v3.978h-.974v-3.018h-.014l-.836 3.018h-.789l-.836-3.018h-.011v3.018h-.976v-3.978Z" fill="#FFF"/></g></svg>