<svg width="200" height="200" xmlns="http://www.w3.org/2000/svg"><g fill="none"><path d="M199.621 107.77c-1.94-18.103-33.818-29.487-37.448-30.725-5.065-1.51-7.775-3.787-7.801-3.81-13.667-11.266-35.525-15.742-50.78-18.133-21.875-3.428-40.978-2.51-41.78-2.47l-31.324 1.592s2.161.281 2.543.332c-2.946.14-5.673.314-8.064.511-6.844.566-12.115 1.326-15.33 1.864-6.427 1.077-6.516 1.212-7.208 2.277L0 62.95l4.424.604c.214.029 15.286 2.185 31.61 9.41-5.945-1.041-10.21-1.276-10.577-1.294l-13.375-.649 11.968 6.007c.59.295 58.571 29.95 42.2 70.151l-1.423 3.499h5.6l.404-.389c19.201-18.409 44.625-18.355 44.878-18.351 5.622-.085 11.619 1.69 17.968 3.568 5.24 1.55 10.986 3.15 16.876 3.864 8.886 1.083 21.38-2.737 23.176-6.045-3.805-.582-8.532-1.65-12.2-3.547-.025-.08-.229-.697-.229-.697-.15-.457-3.21-9.335-14.387-14.983 9.726-2.096 23.02-3.462 28.682 1.76 1.89 1.743 3.782 3.93 4.444 7.416.313 1.641.532 3.72.404 6.383 12.414-5.055 19.272-12.832 19.272-20.168 0-.57-.03-1.144-.094-1.719" fill="#FFF"/><path d="M180.443 129.657l1-.613c10.962-6.735 16.134-13.79 15.366-20.973-1.78-16.587-34.16-27.874-35.55-28.349-5.66-1.684-8.704-4.313-8.743-4.349-12.755-10.514-33.399-14.974-49.363-17.475-21.895-3.432-41.199-2.439-41.199-2.439s12.54 1.628 18.005 3.78c-45.816-5.614-75.154 1.51-75.154 1.51s31.536 4.274 53.723 22.42c-14.609-7.77-33.208-8.672-33.208-8.672s61.118 30.61 43.551 73.748c20.327-19.485 46.872-19.138 46.872-19.138 16.462-.247 34.736 14.135 56.626 4.866l1.36-.648c-28.468.301-31.821-10.602-31.821-10.602s11.673 2.151 16.705 7.242c0 0-4.013-12.194-21.153-16.3 0 0 50.84-16.704 42.983 15.992" fill="#231F20"/><path d="M157.776 83.666c-.167 7.353-3.213 15.776-22.16 23.432-21.253 8.589-29.723 18.21-29.723 18.21 7.986-2.712 23.026-.248 34.532 4.887 11.51 5.13 19.22 3.596 19.22 3.596-11.026-.165-18.457-7.742-18.457-7.742-9.724-9.328-20.689-7.282-20.689-7.282 22.948-16.704 47.092-12.284 47.092-12.284l-8.222-3.122c31.289 1.476 24.687 21.185 24.687 21.185 29.545-25.314-26.28-40.88-26.28-40.88zm2.32 7.135c.966-1.42.279-3.137.279-3.137 19.069 4.669 25.546 14.94 25.546 14.94-9.952-9.973-25.824-11.803-25.824-11.803zM125.563 79.39a84.154 84.154 0 0 1 5.786 3.731c-.67-.073-1.212.048-1.502.41-.649.83.032 2.48 2.054 3.843.109.073.215.133.33.202A8.236 8.236 0 0 1 128.223 86c-4.747-3.509-2.66-6.61-2.66-6.61" fill="#960A2C"/><path d="M128.31 117s5.278-1.36 7.423-1.211c7.519.453 16.898 8.478 16.898 8.478s-10.298-7.342-24.321-7.266" fill="#960A2C"/><path d="M148.275 78.77s-4.121-6.063-14.27-9.308c0 0-15.521-6.492-39.806-8.315 0 0 11.343 2.434 19.903 7.505 0 0-43.63-10.342-83.133-6.27 0 0 35.32 9.706 51.602 43.477 0 0-10.42-14.013-32.261-21.097 0 0 27.943 15.664 27.033 49.918 0 0 5.702-5.16 21.471-9.434 8.954-9.864 16.031-13.75 32.85-21.115 9.554-3.733 25.821-11.335 16.61-25.362zm-11.076 11.672c-13.37 7.109-27.018.76-27.018.76 14.73 2.935 20.08-2.073 20.08-2.073-10.023-3.614-7.453-10.002-7.453-10.002-11.697-7.378-45.884-8.277-45.884-8.277 30.533-.85 44.963 3.702 50.84 6.224-3.414-4.358-10.68-6.295-10.68-6.295 5.388.832 10.86 2.124 18.416 10.125 5.565 5.882 10.969 6.77 10.969 6.77-5.04.479-9.27 2.768-9.27 2.768z" fill="#FFF"/><path d="M135.886 86.468s-.789 1.071-3.48.144c0 0 2.069-.078 1.143-1.985 0 0 2.07 1.598 2.337 1.841" fill="#FFF"/><path d="M87.367 116.119c-1.468-28.567-36.295-48.1-36.295-48.1 14.017 2.333 27.42 13.101 38.814 26.313-5.316-12.88-17.511-21.246-17.511-21.246S83.9 75.572 94.1 89.137c14.999 19.942 26.825 16.722 26.825 16.722-19.064 8.36-23.396 16.916-23.396 16.916-11.128 1.481-17.181 6.17-17.181 6.17 1.453-15.294-10.645-29.602-10.645-29.602 8.226 2.963 17.663 16.776 17.663 16.776m59.861-30.127s-5.373-.408-11.001-6.965c-5.625-6.554-12.841-8.347-12.841-8.347s9.53.736 15.306 7.686c4.033 4.86 8.536 7.626 8.536 7.626" fill="#9E9C9D"/><path d="M85.634 145.624h-1.186v3.084h-1.036v-3.084h-1.188v-.894h3.41v.894zm.797-.894h1.528l.684 2.653h.012l.685-2.653h1.527v3.978h-.974v-3.018h-.014l-.836 3.018h-.789l-.836-3.018h-.011v3.018h-.976v-3.978z" fill="#FFF"/></g></svg>