<svg width="200" height="200" xmlns="http://www.w3.org/2000/svg" xmlns:xlink="http://www.w3.org/1999/xlink"><defs><path id="a" d="M0 .313h199.99v194.812H0z"/></defs><g fill="none" fill-rule="evenodd"><path d="M132.438 66.608c3.267-15.072-10.532-17.057-23.522-16.69-17.347.503-23.335 8.412-25.054 14.701l-16.31 71.333c-3.262 15.083 10.53 17.086 23.524 16.696 17.326-.504 23.316-8.41 25.032-14.714l16.33-71.326zm65.474-4l-16.734 72.495c-8.757 36.651-62.205 62.691-112.659 62.691-48.097 0-73.62-27.17-66.444-57.84l16.797-72.49C27.638 30.8 81.03 4.766 131.48 4.766c48.111 0 73.625 27.176 66.432 57.842z" fill="#FEFEFE"/><g transform="translate(0 3.562)"><mask id="b" fill="#fff"><use xlink:href="#a"/></mask><path d="M111.56 47.209c-.875 0-1.748.016-2.62.04-17.87.516-22.843 9.02-24.217 14.042l-16.3 71.298c-.949 4.395-.42 7.881 1.58 10.351 2.883 3.564 8.876 5.296 18.321 5.296h.002c.909 0 1.816-.014 2.723-.04 17.866-.521 22.828-9.03 24.194-14.056l16.324-71.293c.95-4.387.423-7.868-1.571-10.333-2.888-3.569-8.918-5.305-18.437-5.305M88.326 150.021h-.002c-10.02 0-16.468-1.95-19.713-5.96-2.356-2.911-3.005-6.901-1.933-11.858L82.99 60.859c1.512-5.535 6.877-14.844 25.9-15.394.888-.024 1.779-.04 2.67-.04 10.233 0 16.534 1.898 19.827 5.97 2.35 2.905 2.997 6.889 1.925 11.84l-16.333 71.337c-1.506 5.537-6.856 14.853-25.877 15.405-.924.027-1.85.044-2.776.044M131.48 2.097c-24.649 0-50.715 6.376-71.513 17.493-21.871 11.69-36.156 27.5-40.225 44.518L2.945 136.592c-2.922 12.486-.254 24.736 7.508 34.493 11.418 14.352 32.039 22.257 58.067 22.257 24.652 0 50.729-6.378 71.544-17.497 21.888-11.692 36.181-27.5 40.244-44.51l16.732-72.489c2.928-12.484.27-24.731-7.489-34.49-11.412-14.353-32.035-22.26-58.07-22.26M68.52 195.127c-26.585 0-47.705-8.145-59.467-22.931C.943 162-1.844 149.214 1.203 136.187L18 63.7c4.192-17.526 18.794-33.749 41.121-45.682C80.173 6.767 106.546.313 131.481.313c26.593 0 47.713 8.146 59.47 22.936 8.103 10.193 10.884 22.98 7.83 36l-16.732 72.494c-4.186 17.519-18.795 33.737-41.142 45.675-21.066 11.252-47.45 17.707-72.387 17.707" fill="#8E8E8D" mask="url(#b)"/></g><path d="M142.828 148.583c-6.58 32.875-42.03 39.38-68.111 40.532-44.777 1.998-70.703-20.35-64.24-47.946l16.768-72.485c2.508-10.816 11.151-23.188 23.965-30.77.314-.176 1.183-.304.914.58l-24.25 104.81c-4.278 18.409 14.648 31.78 50.68 29.479 33.435-2.154 43.927-13.032 46.339-23.922l19.467-85.144c4.202-19.002-18.245-23.954-41.493-22.351-1 .082-1.312-.804-.17-1.143 16.957-4.975 66.184-5.757 60.588 18.955l-20.457 89.405z" fill="#231F20"/><path d="M36.726 143.41c-5.613 24.697 43.62 23.916 60.576 18.935 1.143-.33.846-1.183-.189-1.144-23.236 1.62-45.66-3.338-41.473-22.353L75.1 53.716c2.42-10.88 12.903-21.773 46.362-23.92 36.027-2.29 54.954 11.093 50.672 29.47l-24.155 104.832c-.29.902.617.786.913.596 12.814-7.608 21.45-19.981 23.955-30.787l16.693-72.5c6.453-27.578-19.461-49.947-64.23-47.942-26.132 1.153-61.564 7.66-68.138 40.52L36.726 143.41z" fill="#E21837"/></g></svg>