<svg width="200" height="200" xmlns="http://www.w3.org/2000/svg"><g fill-rule="nonzero" fill="none"><path d="M194.503 191.954c-2.15 0-3.924-1.764-3.924-3.896 0-2.196 1.741-3.933 3.962-3.933 2.127 0 3.869 1.795 3.869 3.919a3.913 3.913 0 0 1-3.907 3.91" fill="#FFF"/><path d="M194.503 191.954c-2.15 0-3.924-1.764-3.924-3.896 0-2.196 1.741-3.933 3.962-3.933 2.127 0 3.869 1.795 3.869 3.919a3.913 3.913 0 0 1-3.907 3.91Zm.056-8.809c-2.766 0-4.958 2.162-4.958 4.902 0 2.682 2.21 4.886 4.9 4.886a4.888 4.888 0 0 0 4.885-4.886c0-2.681-2.177-4.902-4.827-4.902Z" fill="#DC1B32"/><path d="M194.043 187.675s.325 0 .452-.027c.46-.099.728-.428.728-.925 0-.387-.167-.642-.493-.738-.132-.044-.176-.044-.731-.044h-.483v1.734h.527Zm-1.506-2.571h1.727c.713 0 1.003.044 1.302.185.484.237.775.757.775 1.382 0 .44-.149.854-.423 1.162-.175.193-.325.3-.679.467l-.127.059 1.343 2.618h-.979l-1.284-2.5h-.676v2.5h-.979v-5.873ZM183.486 13.116V59.6h-12.232v80.737h12.233V190.486H121.53l-1.081-1.705-56.84-89.627v41.182H75.84V190.486H2.446V140.336H14.68V59.599H2.446V9.446h61.956l1.08 1.704 56.842 89.639v-41.19h-12.233V9.446h73.396v3.67ZM179.816 7h-72.17v55.046h12.232v30.317L67.548 9.84 65.747 7H0v55.046h12.232v75.843H0v55.044h78.287v-55.044H66.055v-30.31l52.328 82.514 1.802 2.84h65.748v-55.044H173.7V62.046h12.233V7h-6.116Z" fill="#DC1B32"/><path d="M72.171 144.006v42.81H6.116v-42.81H18.35V55.93H6.116V13.116h56.267l63.61 100.313v-57.5h-12.232V13.117h66.056V55.93h-12.233v88.076h12.233v42.81h-56.27L59.94 86.517v57.49H72.17ZM179.817 9.446h-69.725V59.6h12.232v41.19L65.482 11.15l-1.08-1.704H2.446V59.6H14.68v80.736H2.446V190.486H75.841V140.336H63.609V99.154l56.84 89.627 1.081 1.705H183.487V140.336h-12.233V59.599h12.233V9.446h-3.67Z" fill="#FFF"/><path d="M125.994 113.43 62.384 13.115H6.115V55.93H18.35v88.076H6.116v42.81h66.055v-42.81H59.94v-57.49l63.608 100.3h56.27v-42.81h-12.233V55.93h12.233V13.116H113.76V55.93h12.233v57.5" fill="#DC1B32"/></g></svg>