<svg width="200" height="200" xmlns="http://www.w3.org/2000/svg"><g fill-rule="nonzero" fill="#182545"><path d="M77.678 152.324h-1.114v-.4h2.708v.4h-1.12v3.255h-.474v-3.255M82.745 153.973c-.025-.51-.058-1.128-.058-1.579h-.012c-.128.425-.276.885-.46 1.39l-.645 1.774h-.36l-.595-1.742c-.172-.52-.314-.988-.417-1.422h-.01a52.337 52.337 0 0 1-.07 1.617l-.099 1.568h-.45l.253-3.656h.605l.622 1.77c.154.45.272.85.367 1.23h.013c.098-.368.227-.77.39-1.23l.65-1.77h.602l.23 3.656h-.468l-.088-1.606M160.187 124.526c.182.73.368 1.209.832 2.1 0 0 .35.79.56.835.207.042.937-.354 1.756-1.302.297-.34.55-.8.754-1.253.366-.793-4.119-1.223-3.902-.38M153.742 133.773s3.082-1.295 4.378-3.285c0 0 .258-.357.429-.258.176.098.521.982.683 2.482.164 1.49.12 2.757.12 2.757s.034.224-.34.06c-.369-.17-5.27-1.756-5.27-1.756M168.47 125.827a12.821 12.821 0 0 1-.748 2.989s-.24.535.112.437c.357-.09 1.9-.863 3.384-2.544 0 0 .163-.119-.08-.274-.251-.143-2.58-1.317-2.667-.608M165.631 124.49a12.738 12.738 0 0 1-.745 2.986s-.24.536.112.441c.358-.097 1.899-.864 3.385-2.546 0 0 .163-.12-.082-.27-.246-.148-2.58-1.323-2.67-.612M170.312 133.62c.14.006 2.305-2.001 3.98-4.56.626-.941-2.042-3.135-2.517-1.028-.412 1.829-.987 3.944-1.695 5.445 0 0-.063.138.029.19.093.056.203-.047.203-.047M176.181 128.8s-.196 1.766-.77 3.239c0 0-.051.156.018.172.117.026 1.308-.81 3.028-3.062l-2.276-.349M159.543 134.071s2.113-.905 3.609-2.465c0 0 .206-.273.332-.256.105.011.124.153.142.356.112 1.451.095 1.839-.243 3.342l-3.84-.977M163.383 137.242s1.887-1.26 3.196-2.874c0 0 .218-.227.29-.15.047.045.014.08 0 .284-.09 1.783-.094 3.168-.756 4.56l-2.73-1.82M167.479 140.02s1.808-1.641 3.292-4.057c0 0 .135-.207.215.044.079.247-.092 2.59-.563 4.525l-2.944-.511"/><path d="M169.607 141.205s1.81-1.646 3.29-4.06c0 0 .135-.208.213.041.081.248.041 1.434-.433 3.364l-3.07.655M158.997 113.526s-1.525-1.278-3.054-1.757c0 0 .886 1.186.695 2.145 0 0 1.71.677 2.36-.388"/><path d="M177.065 124.259s-1.021-.74-.441-1.959c.579-1.217 2.885-1.244 3.81-.9.927.348 3.621 1.326 2.497 3.718-1.122 2.397-2.235 2.665-2.235 2.665s-.542.107-.751-.145c-.214-.257-.297-.477-.1-.597.197-.115 1.712-.8 1.788-1.705.079-.907-.463-1.167-.665-1.17-.206-.007-.738.13-.474.799.268.665-.36 1.117-.36 1.117s-.447.371-.743.058c-.298-.313-2.005-1.677-2.326-1.881m-12.855-.344c-.148.17-1.727-.257-1.799-.272a10.016 10.016 0 0 0-2.729-.106c-.923.096-1.827.306-2.707.607-.63.21-1.48.823-2.151.673-.006-.473.612-1.047.993-1.348.665-.535 1.416-.97 2.234-1.227 1.335-.419 2.745-.31 4.049.179.62.226 1.895.738 2.118 1.446.003.02.003.033-.008.048m-9.613-7.889s-.112.08-.177 0c-.066-.081.011.003-.015-.214-.444-3.734-2.684-7.666-2.684-7.666s-.218-.27-.02-.484c.196-.217.447.017.447.017l16.18 10.726c-11.51-6.287-13.73-2.379-13.73-2.379m-35.558-9.596s-1.066.721-2.036-.517c-.974-1.242-5.435-5.83-6.72-12.808 0 0-.408-1.893.4-2.386.893-.541 2.88.372 2.88.372s7.427 3.255 13.202 7.006c0 0 .688.467.382.854-.141.18-.525.278-.525.278-2.438.82-7.721.523-7.721.523s1.625 2.578 3.884 3.79c0 0-2.422.53-3.363.473 0 0 2.254 1.115-.383 2.415m-79.85 1.985c31.042-6.617 61.636-5.88 61.636-5.88s-25.37 3.194-43.93 8.184c0 0 4.193.588 5.705 2.142 0 0-25.197 5.726-49.776 16.445 0 0 14.066.706 26.18 2.707l1.359.249c29.796-11.56 57.314-13.612 57.314-13.612-25.53 4.901-46.099 15.821-46.099 15.821 4.718 1.148 6.004 1.478 10.551 2.933 0 0 26.851-12.999 52.852-15.126 0 0-3.452 2.048-4.307 5.607 0 0 10.162-3.228 20.72-2.598 0 0-10.558 1.733-19.067 6.304-4.57 2.455-11.344 8.193-11.344 8.193s0-5.514 2.206-9.142c0 0-14.495 2.746-26.118 13.103 0 0 14.61 7.562 17.597 18.75 0 0 .268 1.246.292 1.518l.023.271c20.798-33.092 73.08-21.783 73.08-21.783s1.774.258 4.868-1.678c0 0 .87-.577.848-1.296-.027-.95-4.659-1.095-4.659-1.095-4.553-1.398-2.754-2.37-7.01-4.35-3.405-1.588-6.37-1.58-9.198-1.44 0 0-.957-.013-1.25-.559-.855-1.606.912-3.333.912-3.333 2.108-1.75 8.305-6.042 17.41-.742 6.457 3.765 10.734 1.195 11.616.645.653-.413.754-.537.754-.537.409-.358.708-.753 1.08-1.312 2.71-4.053-.641-5.548-.641-5.548-1.885-.854-3.77-1.467-3.77-1.467-3.175-1.453-11.842-4.754-15.722-9.571-5.417-6.737-8.192-8.35-8.192-8.35-5.2-2.994-14.337-8.059-18.793-9.757-.42-.189-1-.46-1.423-.634-15.281-6.497-21.365-12.181-22.18-12.061-.821.118-2.943.086-2.54 2.903.178 1.28.413 3.846.754 5.335 0 0-21.998.053-32.96-1.774l3.161 3.008s-24.137 3.124-34.3 2.416l3.812 3.256s-12.84 3.45-34.926 6.22c0 0 14.968 1.729 23.475 7.635M-1 99.316l.025-5.175c.717-.586 1.213-1.161 1.484-1.737.27-.576.406-1.467.406-2.676v-14.81c0-.9-.14-1.436-.419-1.608-.278-.17-.77-.08-1.471.278L-1 68.648a174.288 174.288 0 0 1 9.905-6.472 1010.95 1010.95 0 0 1 9.83 11.72v-9.188c0-1.088-.16-1.766-.481-2.035-.322-.268-.871-.253-1.646.057v-4.955c4.164-2.242 8.399-4.302 12.691-6.178v4.957c-.834.554-1.406 1.099-1.716 1.628-.31.529-.465 1.452-.465 2.769v22.285a173.15 173.15 0 0 0-8.384 4.08c-3.321-4.075-6.599-8.035-9.83-11.881v9.147c0 1.143.144 1.835.431 2.078.288.244.812.184 1.575-.17l.025 5.142A174.207 174.207 0 0 0-.999 99.316M34.447 80.112v-5.159c.81-.456 1.363-.923 1.66-1.408.298-.484.446-1.35.446-2.6V56.76c0-1.25-.148-2.002-.445-2.256-.298-.254-.852-.291-1.66-.102v-4.958A173.373 173.373 0 0 1 64.005 40.6v9.37a173.8 173.8 0 0 0-9.225 2.15v-.323c0-1.181-.37-1.912-1.11-2.183-.742-.27-2.056-.15-3.934.403-1.198.353-2.392.719-3.583 1.098v6.407a173.865 173.865 0 0 1 11.525-3.233v5.158a173.436 173.436 0 0 0-11.525 3.234v7.375c1.411-.45 2.826-.88 4.246-1.292 1.641-.476 2.784-1.016 3.423-1.65.639-.635.958-1.587.958-2.864v-1.108a173.518 173.518 0 0 1 9.225-2.15v10.276c-10.036 2.052-19.931 5-29.559 8.845M76.71 69.157c-2.22-7.378-4.438-14.714-6.65-22.007-.263-.869-.582-1.449-.958-1.74-.377-.29-.942-.463-1.692-.514V39.94c4.94-.907 9.91-1.599 14.896-2.074v4.956c-.797.197-1.365.446-1.705.736-.342.291-.512.673-.512 1.143 0 .174.015.338.043.49.029.15.07.31.127.479 1.572 5.58 3.146 11.183 4.722 16.806a9545.568 9545.568 0 0 1 4.331-17.338c.038-.149.066-.312.085-.488a6.54 6.54 0 0 0 .029-.666c0-.511-.172-.884-.514-1.12-.341-.236-.93-.383-1.767-.435v-4.956c4.436-.299 8.88-.427 13.323-.385v4.957c-.647.182-1.16.483-1.541.898-.382.417-.686 1.009-.914 1.776a8926.266 8926.266 0 0 0-6.363 23.176c-4.992.206-9.976.627-14.94 1.263M112.092 55.096c1.963.15 3.927.334 5.886.551-.984-4.018-1.97-8.027-2.956-12.028-.976 3.817-1.953 7.643-2.93 11.477m-12.55 12.653V62.59c.686-.146 1.214-.418 1.585-.824.37-.404.718-1.194 1.042-2.37 2.046-7.39 4.09-14.742 6.133-22.059 4.97.271 9.93.756 14.867 1.454 2.237 7.913 4.47 15.868 6.696 23.87.283.978.602 1.684.957 2.12.357.436.864.791 1.52 1.068v5.158a174.35 174.35 0 0 0-14.648-2.235v-5.158c.663.033 1.189-.054 1.576-.264.388-.21.582-.52.582-.937 0-.107-.01-.24-.028-.396a6.356 6.356 0 0 0-.085-.505l-.37-1.333c-2.78-.331-5.569-.595-8.36-.79-.124.38-.249.76-.372 1.143-.037.211-.065.388-.084.527-.02.14-.029.27-.029.391 0 .51.186.899.555 1.167.372.268.965.445 1.78.538v5.158a173.4 173.4 0 0 0-13.316-.565M147.767 68.634c.948.279 1.896.565 2.839.861 2.294.718 3.815.964 4.58.675.766-.288 1.148-1.308 1.148-3.068v-9.248c0-2.042-.37-3.509-1.105-4.394-.74-.884-2.11-1.67-4.126-2.308l-.55-.171c-.929-.276-1.856-.545-2.786-.804v18.457Zm2.096 6.776a173.548 173.548 0 0 0-14.068-3.687v-5.158c.841.05 1.415-.072 1.722-.372.308-.298.462-1.073.462-2.322V49.686c0-1.25-.154-2.094-.462-2.534-.307-.44-.88-.822-1.722-1.14v-4.957c4.728 1.03 9.42 2.259 14.068 3.687 6.208 1.917 10.38 4.375 12.63 6.913 2.247 2.549 3.36 6.053 3.36 10.444v7.334c0 4.623-1.06 7.283-3.198 8.046-2.142.776-6.364-.084-12.792-2.07ZM180.618 75.062c1.787.956 3.562 1.944 5.322 2.966-.886-4.423-1.772-8.836-2.663-13.242-.883 3.416-1.769 6.842-2.659 10.276M169.06 82.58v-5.158c.637.135 1.13.079 1.476-.174.342-.254.666-.902.967-1.945 1.898-6.553 3.784-13.07 5.656-19.551a173.789 173.789 0 0 1 13.418 7.556 4349.853 4349.853 0 0 1 5.902 26.635c.247 1.094.526 1.933.837 2.517.313.585.753 1.148 1.326 1.698v5.158a174.72 174.72 0 0 0-12.956-8.278V85.88c.595.304 1.066.433 1.413.383.347-.05.52-.28.52-.698 0-.108-.008-.244-.024-.408a8.719 8.719 0 0 0-.076-.54l-.331-1.484a173.26 173.26 0 0 0-7.554-4.222l-.337.992a8.613 8.613 0 0 0-.079.493 2.703 2.703 0 0 0-.027.38c0 .51.169.974.509 1.394.335.42.877.84 1.618 1.266v5.159a173.054 173.054 0 0 0-12.258-6.015"/></g></svg>