<svg width="200" height="200" xmlns="http://www.w3.org/2000/svg"><g fill-rule="nonzero" fill="none"><path d="M99.688 0h.721l.098.117c.935 0 1.871-.039 2.807.039 1.072.078 2.125-.02 3.197.156 3.664.273 7.27.975 10.76 2.125 4.97 1.735 9.513 4.25 13.84 7.212 6.51 4.464 12.573 9.825 18.304 15.224 6.335 5.965 13.801 10.955 21.891 14.172 6.745 2.748 14.016 4.288 21.287 4.58 1.384 0 2.748.06 4.093-.155.37-.04.955-.117 1.053.37.175 3.606-.43 7.096-1.404 10.565-1.754 6.063-4.756 11.716-8.83 16.511-1.462 1.755-3.119 3.372-4.776 4.951-2.105 1.91-4.366 3.587-6.706 5.186-.195.117-.234.253-.175.39.312.233.877.214 1.267.33 4.464.917 8.81 2.847 12.3 5.79 1.014.858 1.93 1.833 2.866 2.807 3.119 3.568 5.165 8.012 6.082 12.67.37 1.638.506 3.295.682 4.952 0 2.008.117 4.055-.156 6.043-.74 7.66-3.782 14.97-7.836 21.443-1.326 2.222-2.924 4.347-4.484 6.432-.175.215-.312.488-.604.585-.02-1.111.039-2.222-.02-3.333-.292-2.612-1.364-5.205-3.274-7.037-2.749-2.827-6.843-4.133-10.722-4.152-.78-.195-1.403-.078-2.183.039-1.13-.059-2.203.136-3.333.292-3.08.526-6.063 1.56-8.85 3.002-2.495 1.228-4.679 2.905-6.647 4.854-1.735 1.91-3.236 3.918-4.191 6.355-.663 1.715-1.209 3.606-1.19 5.458-.019.35-.136.74-.077 1.091.117.819.058 1.599.292 2.398.39 1.735 1.228 3.294 2.398 4.62 2.066 2.105 4.853 3.255 7.758 3.626 0 .428-.604.74-.897.994-5.185 4.152-11.462 6.55-18.011 7.446-.546-.02-1.034.117-1.56.195-1.89.02-3.762.098-5.653 0-.39.02-.975-.097-1.306.117-.936 2.086-1.774 4.269-2.904 6.277-5.38 10.214-13.782 18.752-23.997 24.152-.662.37-1.384.604-1.93 1.092h-.253c-.195-.234-.448-.351-.702-.488-10.72-5.4-19.668-14.25-25.224-24.873-1.052-1.95-1.91-3.977-2.748-6.024-.117-.409-.838-.233-1.17-.272-1.95.117-3.898.02-5.848 0-.526-.059-1.033-.195-1.579-.195a38.556 38.556 0 0 1-10.195-2.768c-2.982-1.228-5.75-2.983-8.245-5.01-.234-.176-.43-.41-.605-.643 2.281-.215 4.679-1.092 6.511-2.476 2.3-1.637 3.723-4.347 3.977-7.135.02-.916.02-1.832 0-2.729a17.73 17.73 0 0 0-1.891-6.296c-1.832-3.528-4.834-6.472-8.168-8.596-4.035-2.437-8.635-4.094-13.353-4.464-1.013.078-1.93-.234-2.924-.02-4.054.02-8.09 1.384-10.955 4.308-1.754 1.891-2.807 4.328-3.06 6.862-.04 1.11.039 2.222-.02 3.314-.35-.176-.526-.468-.76-.78a106.263 106.263 0 0 1-3.49-4.893c-2.787-4.308-5.126-8.85-6.744-13.723a45.18 45.18 0 0 1-2.047-10.604c.04-2.086-.136-4.191.176-6.238.429-3.977 1.54-8.012 3.528-11.501.955-1.696 2.066-3.372 3.43-4.756.469-.507.878-1.053 1.424-1.482 1.286-1.19 2.69-2.3 4.21-3.197 3.178-1.871 6.706-3.197 10.351-3.723.215-.02.624-.175.585-.429a2.853 2.853 0 0 0-.546-.41 58.58 58.58 0 0 1-7.758-6.257c-2.943-2.924-5.653-6.218-7.7-9.844a43.141 43.141 0 0 1-5.711-17.816c0-1.034-.04-2.047.02-3.08a9.337 9.337 0 0 1 2.553.02c1.15.116 2.28.038 3.411-.098 1.306.078 2.554-.156 3.84-.254 3.782-.448 7.486-1.247 11.13-2.32C31.52 38.5 39.339 34.23 46.18 28.695c2.632-2.066 5.05-4.464 7.505-6.745 1.404-1.189 2.71-2.495 4.152-3.664 3.606-3.139 7.33-6.102 11.287-8.792C73.8 6.335 78.79 3.626 84.21 1.988 89.006.585 93.86.058 98.83.117c.292.02.584 0 .857-.117Z" fill="#A2AAAD"/><path d="M99.22 4.62c3.275-.059 6.511.214 9.747.78.936.039 1.774.39 2.71.526 4.873 1.189 9.629 3.08 13.8 5.848 1.813 1.228 3.646 2.456 5.42 3.762 6.257 4.717 11.793 9.903 17.505 15.224 1.637 1.443 3.274 2.827 5.029 4.113 9.26 6.92 20.292 11.345 31.754 12.827 2.554.35 5.166.37 7.758.331.137.682-.136 1.462-.272 2.125-1.482 6.14-4.796 11.89-8.792 16.745-1.247 1.52-2.612 2.982-3.996 4.386-6.745 6.608-14.893 11.656-23.47 15.516-.312.137-.624.215-.838.468 1.111.02 2.183-.292 3.294-.312 6.433-.604 12.846-.156 18.928 2.086 4.191 1.618 8.031 4.132 10.78 7.72 2.515 3.216 3.918 7.153 4.327 11.188.156 2.164.137 4.386-.233 6.53-.858 5.536-3.041 10.566-5.946 15.303-.214.331-.39.74-.721.974-.39-1.247-.858-2.417-1.599-3.489-1.267-1.91-3.196-3.333-5.282-4.27-2.456-1.09-5.107-1.539-7.778-1.461-2.982-.098-5.945.37-8.81 1.228-6.765 2.008-13.003 5.887-17.7 11.15-2.847 3.236-5.05 6.9-6.005 11.13-.72 3.003-.662 6.22.605 9.065 1.013 2.417 3.002 4.425 5.36 5.575.293.156.566.254.8.487-5.166 2.476-11.112 3.49-16.784 2.652-.838-.156-1.657-.332-2.495-.488-.858-.136-1.618-.565-2.476-.682-.37.975-.585 2.008-.916 3.002-1.676 5.107-4.172 9.941-7.388 14.23-4.21 5.614-9.571 10.253-15.614 13.801-.331.214-.565.039-.877-.136-4.445-2.651-8.577-5.926-12.105-9.727a49.102 49.102 0 0 1-7.096-9.864c-1.832-3.49-3.45-7.251-4.347-11.092-.136-.409-.702-.039-.975-.02-4.97 1.54-10.409 1.697-15.419.293-1.89-.429-3.742-1.13-5.497-1.969.215-.253.507-.33.8-.487 1.968-.975 3.645-2.495 4.756-4.405 1.247-2.164 1.793-4.64 1.637-7.135-.234-3.84-1.676-7.641-3.82-10.8-2.885-4.346-6.94-7.952-11.384-10.623-3.49-2.086-7.31-3.645-11.287-4.522-2.183-.585-4.58-.663-6.842-.644-3.49-.078-7.154.897-10 2.963-2.125 1.54-3.606 3.743-4.27 6.277-.389-.273-.603-.799-.876-1.189-3.12-5.068-5.302-10.565-6.024-16.51-.097-1.638-.156-3.256-.039-4.893.351-4.289 1.93-8.519 4.679-11.833 2.846-3.528 6.92-6.043 11.17-7.544 6.276-2.163 13.216-2.436 19.785-1.657 1.052.02 2.027.37 3.08.332a4.928 4.928 0 0 0-.721-.351c-4.386-1.91-8.655-4.074-12.73-6.57-4.502-2.787-8.888-6.023-12.631-9.785-2.944-2.885-5.575-6.14-7.641-9.707-2.047-3.47-3.51-7.232-4.172-11.209-.078-.546-.195-1.092-.058-1.637 6.452.117 12.943-1.228 19.083-3.178A68.508 68.508 0 0 0 50.253 31.19c2.047-1.832 4.035-3.762 6.082-5.614 4.6-4.171 9.435-8.421 14.581-11.93 3.684-2.514 7.642-4.698 11.91-6.043a51.787 51.787 0 0 1 8.051-2.222c2.788-.41 5.517-.78 8.343-.76Z" fill="#0A3255"/><path d="M100.175 14.444c2.593 3.1 3.919 7.154 4.503 11.092.37 2.378.234 4.659.195 7.037.488-.195.839-.565 1.306-.858 1.657-.994 3.568-1.598 5.517-1.345 1.637.254 3.1 1.034 4.327 2.125 1.618 1.501 2.71 3.49 3.158 5.653-.156.273-.37 0-.565-.078-3.021-1.676-6.94-.819-9.22 1.696-.312.39-.527.39-1.014.39-2.924-.02-5.848.02-8.772-.02-.02-.584-.039-1.17-.039-1.754 0-7.934-.02-16.043.02-23.957l-.04-.175-.175-.117c.351-.312.566.097.8.311Z" fill="#A2AAAD"/><path d="m99.396 14.133.175.117.04.175c-.02 7.934 0 16.023-.02 23.957 0 .585 0 1.17.039 1.754-2.866.04-5.731 0-8.577.02-.332-.039-.76.078-.975-.214-1.404-1.618-3.509-2.613-5.634-2.73-1.5-.058-2.963.351-4.25 1.112-.019-.82.293-1.501.586-2.223.604-1.481 1.598-2.787 2.787-3.84 1.053-.857 2.3-1.462 3.606-1.813 2.125-.429 4.094.215 5.926 1.248.507.273.878.76 1.404 1.014 0-.449-.04-.878-.098-1.326-.136-1.969.02-3.899.215-5.867.663-4.172 1.91-8.149 4.776-11.384Z" fill="#FFF"/><path d="M83.762 14.873c.02.41-.585.546-.819.839-1.091 1.11-2.241 2.183-3.274 3.333-3.763 4.503-6.92 9.785-9.98 14.795-1.56 2.554-3.14 5.127-4.972 7.505-.545.74-1.091 1.52-1.774 2.125-.428.37-.643.896-1.072 1.267-.506.429-.76 1.033-1.267 1.481-1.17 1.111-2.26 2.281-3.43 3.392a54.06 54.06 0 0 1-9.767 6.998c-2.3 1.482-4.756 2.476-7.27 3.45-.527.234 0 .702.194.956 1.131 1.189 2.106 2.436 3.412 3.411 2.378 2.534 5.224 4.737 7.992 6.823.643.506 1.442.818 1.988 1.423-1.345.02-2.71-.722-4.015-1.014-2.71-.994-5.478-1.832-8.168-2.885-1.014-.448-2.027-.819-3.06-1.209-.722-.39-1.501-.584-2.262-.877-2.982-1.247-5.926-2.553-8.772-4.093-.409-.254-.76-.546-1.189-.741-.76-.332-1.403-.858-2.183-1.17-.877-.526-1.735-1.13-2.612-1.657-.838-.526-1.54-1.208-2.378-1.754-.449-.292-.8-.682-1.15-1.092.234-.136.448-.156.721-.156 1.19 0 2.34.059 3.509-.175 2.163 0 4.21-.546 6.335-.936.877-.331 1.832-.253 2.71-.604 2.358-.565 4.522-1.52 6.783-2.34.897-.292 1.735-.76 2.612-1.13 3.022-1.5 5.907-3.197 8.577-5.263 1.56-1.111 2.905-2.437 4.386-3.606.877-.877 1.774-1.755 2.632-2.632.448-.721 1.052-1.286 1.598-1.93 1.852-2.046 3.684-4.074 5.556-6.023.565-.682 1.247-1.209 1.871-1.832 1.52-1.54 3.06-3.041 4.562-4.6 3.645-3.412 7.485-6.57 11.851-9.007.683-.487 1.326-.838 2.125-1.072ZM143.743 39.63c.292.02.429.214.623.409 1.112 1.267 2.437 2.398 3.743 3.47 3.217 2.612 6.745 4.854 10.449 6.705 1.11.605 2.28 1.053 3.391 1.638 1.072.507 2.164.858 3.295 1.208 5.048 1.833 10.312 2.944 15.653 3.51.058.409-.566.662-.839.876-1.695 1.209-3.489 2.242-5.282 3.295a125.642 125.642 0 0 1-12.34 6.18c-.955.389-1.851.915-2.826 1.247-3.236 1.17-6.452 2.495-9.746 3.489-1.268.312-2.281 1.092-3.626.955.448-.487 1.013-.76 1.579-1.053 3.879-2.65 7.758-5.477 11.325-8.538.722-.448 1.267-1.033 1.872-1.637.136-.175.35-.273.273-.526-.234-.332-.702-.488-1.034-.722-1.579-1.072-3.04-2.26-4.483-3.508-1.13-1.014-2.164-2.125-3.255-3.178-3.1-3.236-5.556-6.959-7.564-10.974-.39-.975-.994-1.794-1.208-2.846Z" fill="#005CA9"/><path d="M88.304 42.904c3.782.02 7.544-.019 11.306.02a78.637 78.637 0 0 0 0 4.288c-3.898.04-7.797 0-11.696.02-1.013.058-2.086-.429-2.553-1.365-.312-.818-.078-1.851.662-2.339.644-.526 1.482-.624 2.281-.624Z" fill="#FFF"/><path d="M99.61 42.904c3.84-.019 7.661 0 11.501-.019.838-.02 1.696.195 2.32.8.663.642.819 1.773.234 2.514-.546.74-1.443 1.033-2.34 1.013-3.898-.019-7.797.04-11.695-.019a62.918 62.918 0 0 1-.02-4.289Z" fill="#A2AAAD"/><path d="M91.111 50c2.807-.078 5.673 0 8.48-.039-.02 3.743-.02 7.505 0 11.248a.512.512 0 0 1-.176.467c-2.047-2.183-3.567-4.775-4.405-7.64-1.014.35-1.891.935-3.022 1.032-.623.02-1.286.04-1.91-.02-1.13-.311-2.222-.526-3.236-1.169-.097-.136-.058-.234.098-.273 1.345-.546 2.573-1.442 3.43-2.612.273-.312.488-.682.741-.994Z" fill="#FFF"/><path d="M99.61 49.961c2.827 0 5.692-.039 8.519.02.253.253.429.604.662.896.702.975 1.657 1.774 2.71 2.359.35.195.74.292 1.014.585-.722.506-1.58.818-2.418 1.091-.896.293-1.754.215-2.69.215-1.17-.059-2.066-.566-3.08-1.053-.311.74-.565 1.482-.896 2.222-.858 1.97-1.989 3.762-3.49 5.283-.194.175-.253.214-.506.136a.632.632 0 0 0 .175-.467c-.02-3.782-.039-7.544 0-11.287Z" fill="#A2AAAD"/><path d="M73.88 68.304c.857.176 1.656.41 2.533.41 1.345.253 2.73.35 4.094.565.624-.04 1.15.253 1.754.253.468 0 .897.195 1.365.195 1.091 0 2.202.078 3.294.176 2.008.214 4.055.214 6.062.409 3.51 0 7.018.156 10.527.02 1.637-.06 3.255.077 4.873-.157 2.222-.058 4.425-.272 6.628-.409 3.548-.331 6.978-.819 10.487-1.247-.117.565-.721.78-1.13 1.091-1.326 1.014-2.613 2.066-3.938 3.08-.37.292-.8.585-.994 1.014.175.507 1.345.156 1.793.312.897.272 1.774.078 2.67.214.76.273 1.521.02 2.281.214.8.234 1.599.02 2.398.156.936.293 1.89-.02 2.827.312.877.04 1.676-.02 2.534.215.935-.098 1.774.234 2.69.214-.312.312-.722.215-1.13.312-3.666.8-7.389 1.462-11.112 1.95-.897 0-1.735.253-2.632.311-.682.215-1.384.059-2.066.273-.526.137-1.13 0-1.637.117-.878.234-1.735.059-2.632.331-1.15-.077-2.183.293-3.314.215-.799-.078-1.54.195-2.339.195-1.17.039-2.34-.078-3.509.156-3.762.097-7.544.039-11.306.039-.701-.04-1.423 0-2.124-.098-1.268-.195-2.593.04-3.86-.214-.916-.176-1.813.039-2.73-.195-.72-.175-1.422.02-2.143-.195-.644-.175-1.306.02-1.95-.195-.604-.175-1.189 0-1.793-.156-.663-.195-1.287-.097-1.969-.195-4.64-.585-9.26-1.325-13.84-2.32-.429-.097-.994-.019-1.326-.311.722-.176 1.365-.234 2.106-.254.896-.292 1.793-.039 2.67-.273.721-.175 1.423.04 2.144-.175.82-.215 1.696.039 2.535-.195.72-.214 1.442.039 2.144-.176.819-.233 1.696.04 2.534-.214.643-.195 1.384.04 1.988-.175.254-.293-.487-.839-.682-1.034-1.91-1.403-3.684-3.02-5.673-4.327.254-.312.546-.234.897-.234Z" fill="#005CA9"/><path d="M78.265 82.32c.273-.078.487 0 .74.078a81.47 81.47 0 0 0 7.194 1.949c.39.117.936.058 1.247.312.02.331-.331.682-.526.916-1.969 2.105-5.633 2.125-7.622.059-.857-.936-1.208-2.067-1.033-3.314ZM120.838 82.28c.43 1.56-.429 3.217-1.774 4.036-2.241 1.442-5.516 1.013-7.115-1.19-.156-.214-.35-.487.04-.604 2.222-.37 4.424-1.013 6.607-1.618.741-.194 1.462-.526 2.242-.623Z" fill="#A2AAAD"/><path d="M71.832 84.873c1.404 3.022 4.25 5.536 7.525 6.316 1.052.137 2.047.37 3.119.312.857.058 1.676-.175 2.534-.234 1.15-.117 2.163-.546 3.275-.858.72-.214 1.403-.662 2.163-.74.273 1.481.741 2.943 1.404 4.288.117.156.214.526.468.312 1.306-3.49 3.82-6.374 6.959-8.343a.873.873 0 0 1 .37.468c1.111 2.592 1.852 5.36 2.125 8.167-.02 1.209.312 2.3.058 3.529-.097 3.255-.974 6.49-2.378 9.415-.331 0-.682 0-1.013-.02-.722-.234-1.443-.37-2.164-.584-1.95-.741-3.782-1.365-5.302-2.866-.156-.156-.37-.37-.215-.604.449-.78 1.209-1.443 1.969-1.91.448-.293.975-.351 1.423-.644-.624-.195-1.267-.234-1.91-.234-1.95-.058-4.055.39-5.712 1.482-.234.117-.565.604-.838.526-.819-.877-1.618-1.813-2.261-2.826-.468.175-.682.78-.994 1.15-.78 1.013-.936 2.144-1.365 3.294-.37.253-.897.312-1.325.448-.741.176-1.423.507-2.184.683-1.033.234-2.027.584-3.04.916-.196.058-.488.175-.605-.059-2.514-3.43-4.893-6.88-6.18-10.974-.506-1.696-.876-3.646-.487-5.4.312-1.774 1.443-3.333 2.983-4.269.448-.292 1.014-.78 1.598-.74Z" fill="#FFF"/><path d="M126.803 85.244c.312-.059.448.156.682.312.897.78 1.716 1.695 2.379 2.69.292.409.039.896-.117 1.306-1.58 3.957-4.347 7.407-7.29 10.467-1.482 1.482-3.003 2.924-4.66 4.211-.253-1.715-.877-3.314-2.202-4.483-.546.584-.917 1.306-1.482 1.87-.292.274-.624.898-1.033.956-.702-.429-1.326-.955-2.125-1.247a11.492 11.492 0 0 0-6.062-.546.484.484 0 0 0 .312.234c1.072.409 2.124 1.13 2.768 2.085.117.234.331.43.136.683-.41.487-.955.877-1.481 1.228-1.755 1.11-3.84 1.832-5.848 2.32-.741.194-1.599.311-2.359.077.331.02.682.02 1.014.02 1.384-2.924 2.28-6.18 2.378-9.415.253-1.209-.078-2.32-.059-3.529-.273-2.807-1.013-5.575-2.124-8.167a.873.873 0 0 0-.37-.468c.233-.156.526.156.74.253 2.729 1.735 5.01 4.367 6.316 7.35.136.214.214.935.487.935.8-1.52 1.365-3.216 1.677-4.912l.116.097c0 .429.41.819.624 1.15 2.32 3.002 6.238 4.796 9.883 5.497 3.957-1.949 7.115-5.926 7.817-10.331.059-.214-.02-.37-.214-.468l.097-.175Z" fill="#A2AAAD"/><path d="M126.706 85.497c.195.117.273.273.214.468-.702 4.405-3.86 8.382-7.817 10.331-3.645-.701-7.563-2.514-9.883-5.497-.234-.35-.624-.721-.624-1.15 1.735.663 3.412 1.345 5.264 1.599 2.397.487 4.97.292 7.251-.585 2.34-1.033 4.406-2.866 5.595-5.166ZM161.404 93.06c2.397-.02 4.853.04 7.212.527 3.977.643 7.817 2.047 10.936 4.659 2.436 2.027 4.19 4.834 4.58 8.011a27.745 27.745 0 0 1 0 3.12c-.155 1.227-.487 2.416-.916 3.566-.428-.175-.662-.682-.974-1.013-2.593-3.217-6.024-5.692-9.942-7.018a26.784 26.784 0 0 0-8.947-1.325c-1.657-.04-3.334.195-4.99.41-.507.058-1.053.233-1.56.194a1.683 1.683 0 0 1-.253-.273c-2.145-3.177-4.971-5.79-8.207-7.817-.195-.136-.526-.273-.585-.545 2.145-.878 4.386-1.248 6.628-1.755 2.32-.448 4.659-.643 7.018-.74ZM40.74 93.216c2.379.234 4.68.702 6.999 1.19 1.247.311 2.495.662 3.703 1.13-.077.292-.487.429-.701.604-3.178 2.028-5.985 4.6-8.09 7.759-.195.175-.331.35-.624.273-1.579-.293-3.177-.468-4.795-.605-1.111-.039-2.222-.02-3.333-.02-4.27.293-8.382 1.346-11.95 3.763-1.89 1.248-3.567 2.807-4.99 4.561-.312.37-.526.78-.955 1.014-.936-2.32-1.19-4.815-.819-7.271.507-3.04 2.417-5.77 4.796-7.66 2.027-1.58 4.385-2.827 6.861-3.49 4.581-1.443 9.162-1.56 13.899-1.248Z" fill="#FFF"/><path d="M33.918 103.567c1.111 0 2.222-.02 3.333.02 1.599.136 3.197.312 4.796.604.292.078.429-.097.624-.273-.059.76.545.819 1.072 1.092a48.719 48.719 0 0 1 11.091 7.017c4.718 3.996 8.792 9.006 11.404 14.62-.39-.039-.604-.331-.897-.546-6.842-5.477-14.347-10.253-22.65-13.216-1.463-.507-2.905-.994-4.426-1.287-3.158-.76-6.355-1.228-9.59-1.267-4.27.156-8.87.897-12.613 3.08 0-.156-.02-.312-.02-.487.43-.234.644-.643.956-1.014 1.423-1.754 3.1-3.314 4.99-4.561 3.529-2.437 7.661-3.49 11.93-3.782ZM163.353 103.567c3.021-.097 6.082.37 8.947 1.326 3.918 1.325 7.35 3.801 9.942 7.017.312.332.546.839.974 1.014 0 .156-.02.331-.02.487a19.585 19.585 0 0 0-5.75-2.183c-2.202-.585-4.58-.78-6.861-.877-3.82.039-7.525.702-11.228 1.676-9.201 2.69-17.661 7.934-25.127 13.84-.37.254-.76.76-1.228.82.234-.703.682-1.326.994-2.009 4.815-8.81 12.768-15.73 21.89-19.824.43-.195.78-.37.664-.916.078.097.156.195.253.273.507.039 1.053-.137 1.56-.195 1.656-.254 3.333-.488 4.99-.449Z" fill="#A2AAAD"/><path d="M85.263 109.825c.429-.137.76.117 1.13.292.878.507 1.794.955 2.73 1.364 3.08 1.384 6.53 2.593 9.922 2.71 1.267.078 2.475-.136 3.704-.35 1.442-.254 2.768-.8 4.19-1.131.82-.332 1.677-.624 2.476-1.014.955-.565 1.989-.936 2.944-1.52.35-.195.838-.527 1.247-.37 1.014.291 1.989.642 3.022.857.857.175 1.637.487 2.514.507 1.17.175 2.34.448 3.51.584.74-.058 1.403.254 2.143.215.8-.078 1.54.195 2.34.175 1.423 0 2.865.059 4.288-.039.936-.234 1.852-.039 2.768-.292.721.02 1.345-.293 2.066-.234-.02.721-.545 1.111-.935 1.676-1.93 2.573-4.854 4.23-7.954 4.932-.994.273-1.91.429-2.943.429-1.306.273-2.593.175-3.899.175-.526 0-1.033-.175-1.56-.195-1.208.02-2.3-.39-3.527-.487-1.384-.312-2.73-.74-4.152-.877-1.657-.292-3.314-.292-4.99-.273-1.54-.02-3.14.292-4.68.429-.72.078-1.422.312-2.143.41-1.735-.43-3.51-.566-5.283-.78-2.34-.156-4.678-.117-6.998.272-1.306.137-2.515.585-3.801.76-1.248.235-2.515.566-3.801.527-1.228.273-2.456.175-3.704.175-.526 0-1.033-.175-1.56-.175-.916-.02-1.812-.35-2.729-.448-2.202-.43-4.093-1.443-5.945-2.69-.721-.624-1.423-1.306-1.95-2.106-.409-.604-.974-.994-1.032-1.774 1.15 0 2.3.43 3.47.39.74-.039 1.403.215 2.144.195 1.364 0 2.729.04 4.093-.02.74-.155 1.384-.194 2.144-.175 2.827-.312 5.614-.799 8.402-1.423.74-.195 1.52-.487 2.34-.701Z" fill="#005CA9"/><path d="M94.347 122.827c3.314-.117 6.628-.098 9.941-.02 2.028.175 4.27.214 6.238.76.76.234 1.638.507 2.047 1.267.234.722.059 1.618-.273 2.3-.39.624-1.072 1.19-1.774 1.385-.623-.293-1.15-.741-1.793-.995-3.255-1.481-7.154-1.793-10.682-1.657-2.827.176-5.965.683-8.44 2.125-.313.195-.625.43-.956.604-.487.059-.994-.428-1.384-.682-.858-.604-1.15-1.579-1.053-2.592-.097-.8.858-1.326 1.482-1.56 2.047-.74 4.483-.74 6.647-.935Z" fill="#A2AAAD"/><path d="M80.35 124.951c.06 1.794.313 3.568.937 5.244.35 1.189.974 2.222 1.5 3.353.312.702.78 1.325 1.112 2.027.584 1.014 1.306 1.95 1.988 2.905.175.194.253.506.565.409.819-1.482 1.17-3.236 1.833-4.776.214-.468.818-.663 1.247-.897 1.54-.799 3.256-1.306 4.99-1.56.605 0 1.15-.252 1.755-.214 1.5.04 2.982-.077 4.483 0 .78.059 1.618-.097 2.359.137 1.15.136 2.34.273 3.43.643 1.326.43 2.886.819 4.094 1.56.663.701 1.404 1.364 1.97 2.124 1.364 2.203 2.202 4.62 2.787 7.154.273.897.35 1.813.487 2.749-.02.604.253 1.15.214 1.754-.02 1.872.04 3.763-.039 5.614-.214.858-.136 1.716-.312 2.573-.038 1.385-.467 2.593-.682 3.938-.234 1.423-.663 2.807-.935 4.23-.059.254-.098.487-.39.585-.137-1.384-.527-2.69-.722-4.035-.643-2.378-1.559-4.756-2.846-6.881-.156-.234-.233-.624-.545-.702-.02 1.813.039 3.606 0 5.42-.059.584-.215 1.15-.215 1.753-.234.78-.136 1.56-.37 2.34-.312 1.813-.78 3.664-1.54 5.34-.234.566-.351 1.17-.663 1.716-.448.838-.78 1.716-1.403 2.476-1.54 2.573-3.51 4.932-5.497 7.173-.37.507-.644-.039-.936-.292-.975-1.17-2.027-2.28-2.924-3.509-1.033-1.286-1.852-2.71-2.768-4.035-.975-1.637-1.58-3.411-2.242-5.185-.624-2.066-1.267-4.23-1.384-6.413-.234-1.209-.097-2.476-.136-3.704-.059-.916.078-1.852-.059-2.749-.35.215-.565.663-.799.995-.682 1.13-1.17 2.456-1.754 3.664-.332.916-.683 1.813-.8 2.768-.312 1.228-.565 2.437-.72 3.704-.079.468 0 1.033-.235 1.442-.448-.506-.663-1.228-.955-1.851a43.295 43.295 0 0 1-3.275-18.694c-.039-1.891.41-3.763.604-5.653 0-.351.449-1.131-.078-1.248-.409.234-.72.643-1.052.955-2.554 2.417-4.679 5.36-6.374 8.44a1.35 1.35 0 0 1-.527.469c-.195-.273-.292-.468-.273-.82 0-2.104-.039-4.132.195-6.237.137-1.15.293-2.3.527-3.43.409-2.145 1.11-4.153 1.793-6.219 1.053-2.3 2.398-4.503 4.035-6.433.137-.214.468-.526.546-.117Z" fill="#005CA9"/><path d="M134.698 176.433c1.345-.02 2.71-.04 4.074 0 .448.039.507.663.136.877-.545.078-1.091.02-1.637.097-.02 1.365 0 2.71 0 4.055-.02.292.02.604-.331.702-.312.039-.644.078-.741-.312-.059-1.482 0-2.963-.04-4.445-.623-.097-1.227-.058-1.87-.078 0-.35-.117-.877.409-.896ZM140.546 176.413c.507 0 1.072-.156 1.306.43.312.857.624 1.715.916 2.592.136.331.097.74.507.857.41-1.208.8-2.417 1.247-3.625.137-.351.585-.254.897-.293.331.04.721-.058.897.273.058.565 0 1.13.097 1.696.176.955.059 1.91.254 2.866.02.292.175.78-.156.955-.195.058-.41.058-.624.039-.37-.156-.253-.76-.331-1.092-.215-1.247-.078-2.456-.176-3.704-.312.117-.331.39-.429.663-.35 1.19-.76 2.378-1.13 3.548-.098.721-1.326.702-1.443 0-.37-1.13-.76-2.28-1.072-3.43-.117-.254-.097-.586-.448-.586-.059 1.56.039 3.06-.312 4.6-.312 0-.624-.019-.916-.019.156-1.11.02-2.202.253-3.294.078-.682-.039-1.423.098-2.086.038-.292.292-.39.565-.39Z" fill="#A2AAAD"/></g></svg>