<svg width="200" height="200" xmlns="http://www.w3.org/2000/svg"><g fill="none"><path d="M113.94 27.19c.484-.155.883.19 1.229.484 1.004.934 1.853 2.128 2.65 3.234a74.285 74.285 0 0 1 4.068 6.503 7.02 7.02 0 0 1 .71 1.712c.658 2.352 1.334 4.704 2.01 7.056 2.995-1.072 5.783-3.147 8.605-4.635 1.004-.553 2.269-.985 3.429-.847.64.07 1.16.536 1.281 1.159.139 1.003.052 2.04-.38 2.974-1.04 2.404-2.789 4.6-4.59 6.503-2.355 2.456-5.056 4.514-7.982 6.243-.018 1.85-.173 3.7-.295 5.551-.207 2.664-.433 5.327-.762 7.973.849.934 1.576 2.283 2.684 2.923.987.553 1.957.415 3.03.276a12.449 12.449 0 0 1-2.51 1.626c2.268.553 4.502 1.228 6.736 1.902.571.19 1.16.346 1.731.571.468.173.555.761 1.005.917 2.441.934 4.935 2.092 6.943 3.77 1.974 1.677 3.55 3.926 4.295 6.399.329 1.037.45 2.161.606 3.234.312 2.282.329 4.634-.017 6.917-.052.415-.122.796-.052 1.21 1.125 5.276 1.42 10.775.675 16.119 3.775.9 7.584 1.885 11.36 2.767 1.038-.363 2.008-1.09 3.099-1.366a4.835 4.835 0 0 1 3.394 1.09c.64-.225 1.247-.416 1.956-.295 3.221.502 6.425 1.055 9.646 1.557.917.155 1.523.45 2.199 1.072 2.891.536 5.783 1.02 8.675 1.591 1.645-1.4 4.433-.865 5.835.623.416.501.987.536 1.524.864.831.554 1.368 1.436 1.541 2.422.104.709.433 1.366.485 2.075.087 1.522-.796 3.234-2.355 3.649-.952.242-1.94.605-2.909.605-1.039.035-2.06.173-3.1.173a18.32 18.32 0 0 0-.432-1.677c-2.494-.415-4.97-.9-7.446-1.35-.676-.224-1.437.33-2.06.589-.416.57-.728 1.228-1.178 1.764-.433.501-.797 1.055-1.195 1.59-.797.952-1.922 1.229-3.117 1.384-.19.38-.38.779-.589 1.159h25.507c-.849 4.618-1.714 9.218-2.563 13.835-1.645.018-3.29 0-4.918 0a645.247 645.247 0 0 0-1.454 7.99h5.385c-.866 4.739-1.749 9.477-2.597 14.216-31.377.017-62.754 0-94.13 0 .502-2.317.97-4.635 1.506-6.935-.848 2.058-1.714 3.96-3.567 5.327-1.922 1.383-4.242 1.556-6.545 1.59h-39.48c.172-1.625.588-3.199.813-4.824-1.316 1.798-2.597 3.614-3.93 5.413-.797-2.266-1.698-4.514-2.494-6.78-.416 2.058-.745 4.134-1.108 6.192-8.693 0-17.386.017-26.078 0-.554-1.764-1.074-3.546-1.663-5.275-.225 1.764-.588 3.51-.83 5.292H.085c.78-4.324 1.542-8.647 2.356-12.953h1.904c.59-3.39 1.264-6.745 1.801-10.135h-1.87c.78-4.323 1.558-8.647 2.355-12.97H21.42c.554 1.816 1.074 3.666 1.714 5.465.225-1.834.589-3.65.866-5.465h26.268c-1.125-1.418-1.333-3.01-1.887-4.687-.433-1.297-.606-2.542-1.403-3.684-.26-.518-.727-.709-1.125-1.072a343.075 343.075 0 0 0-5.974-6.312c-.052-.415 0-.761-.295-1.107-2.995-3.787-6.337-7.35-9.142-11.259-1.974-2.732-3.048-6.035-2.961-9.408.086-2.853.744-5.69 2.406-8.041 1.178-1.678 2.72-2.958 4.399-4.099 2.026-1.366 3.93-3.01 5.887-4.48 3.342-2.541 7.048-4.651 10.979-6.156 2.735-1.038 5.61-1.695 8.432-2.438.728-.19 1.42-.588 2.113-.882 3.584-1.557 7.36-2.145 11.238-2.3.07-.156.139-.294.208-.45 2.026-.104 4.052-.017 6.078 0 1.039 0 2.078.138 3.117.138 1.177 0 2.337.156 3.497.173.381-.519.797-.986 1.247-1.435.018-1.401-.138-2.785-.069-4.185-.07-.346-.26-.675-.381-1.003-.26-.658-.294-1.367-.589-2.024-.26-.57-.571-1.124-.848-1.695-3.498-1.037-6.77-2.628-9.576-4.998-2.06-1.764-3.827-3.96-4.693-6.537-.346-1.107-.588-2.438-.225-3.545.347-1.09 1.282-1.989 2.286-2.508 1.403-.692 2.996-.934 4.502-.536 3.186.761 6.303 2.508 9.16 4.081a307.272 307.272 0 0 1 2.338-6.277c.277-.71.468-1.401.935-2.006.554-.744 1.195-1.453 1.8-2.162 2.252-2.508 4.659-4.964 7.291-7.073.9-.692 1.905-1.488 2.996-1.8 1.35-.155 2.77.122 4.034.589.97.363 1.922.951 2.927 1.21 1.264.277 2.649-.12 3.584-.985.346-.363.814-.934 1.385-1.09z" fill="#231F20"/><path d="M102.805 31.34c1.022.399 2.251 1.16 2.65 2.232.415.986-.174 2.075-.832 2.801-1.281 1.401-3.151 2.37-4.917 3.044-2.2.778-4.433 1.245-6.77.882 1.263-.26 2.527-.398 3.774-.743 1.749-.485 3.532-1.176 5.039-2.214.814-.554 1.593-1.228 2.06-2.093.33-.657.537-1.331.278-2.04-.208-.813-.762-1.263-1.282-1.868zm12.295.105c.034.864.138 1.712.502 2.525.97 2.179 2.788 3.787 4.433 5.43-1.784-.554-3.36-1.816-4.45-3.32-.71-.986-1.3-2.128-1.143-3.373.034-.519.38-.865.658-1.262zm20.242 11.967c-1.887 2.802-4.745 5.033-7.74 6.572-3.931 1.989-8.381 2.992-12.762 3.303-.883.087-1.766.104-2.65.017 4.78-.83 9.403-1.85 13.836-3.856a34.7 34.7 0 0 0 8.19-5.137 19.7 19.7 0 0 1 1.126-.899zM77.853 45.4c2.563.831 4.796 2.145 7.169 3.39 1.835 1.004 3.723 1.886 5.575 2.802a10.7 10.7 0 0 1-1.471-.346c-2.632-.812-5.213-1.85-7.706-3.043-1.818-.865-3.914-1.99-5.94-2.145-1.073-.07-1.852.45-2.649 1.072.156-.57.26-1.09.762-1.452 1.178-.848 2.961-.761 4.26-.277z" fill="#9A989B"/><path d="M122.286 47.234c.19.744.363 1.505.52 2.266-3.308.76-6.875.95-10.252 1.09-2.009 0-4.052.068-6.06-.105-3.187-.069-6.373-.345-9.524-.726-2.684-.38-5.455-.847-8.018-1.764 1.23.035 2.442.242 3.671.329 1.559.103 3.117.26 4.676.26 2.891.19 5.766.12 8.658.12 1.506.017 2.995-.156 4.502-.138a102.33 102.33 0 0 0 8.623-.761c1.091-.156 2.13-.415 3.204-.57zM89.35 52.595c1.767-.19 3.637.087 5.317.623-.33.104-.762.138-1.04.363-.346.329-.605.778-.882 1.176a22.51 22.51 0 0 1-.45-1.54c-.52.675-.901 1.436-1.317 2.18-.398-.744-.554-1.54-.71-2.352-.45.432-.796.9-1.108 1.453a15.663 15.663 0 0 1-.623-1.332c-1.005.415-1.922.986-2.875 1.487.832-1.28 2.217-1.902 3.689-2.058z" fill="#9A989B"/><path d="M95.48 53.322c6.304 1.694 12.953 2.87 19.481 2.455 2.563-.19 5.108-.64 7.55-1.487-.017.121-.017.26-.035.38-.554.035-1.09.087-1.593.33-1.974.881-3.706 2.403-5.004 4.115 1.333.467 2.65.969 3.982 1.453.295-.605.59-1.228.9-1.833.4 0 .797.017 1.213.017-.45-.64-.918-1.21-1.506-1.73.658-.172 1.333-.276 2.008-.38-.138 4.099-.45 8.163-.866 12.244-.987-.657-1.887-1.314-3.013-1.694.537-1.176.122-2.63-.623-3.615-.225-.346-.554-.432-.918-.553a41.579 41.579 0 0 0-2.043-3.753c.814-1.315 1.974-2.248 3.117-3.269-1.576.848-3.082 1.764-4.33 3.096.988 1.695 1.888 3.51 2.425 5.378.121-.12.225-.224.33-.346.588.571.934 1.384.726 2.197-.104.346-.571.277-.865.328-.139.398-.174.779-.52 1.038-.52.398-1.35.38-1.991.38-1.074-.034-1.957-.501-2.84-1.072-.468-.45-1.559.277-1.888-.328-.311-.796.191-1.903.988-2.231.744-.225 1.212.155 1.835.519-.225-.692-.433-.986-.987-1.419.017-.743.087-1.47.19-2.213-.484.692-.848 1.418-1.229 2.162-1.628.45-2.528 2.144-2.234 3.77-.692.138-1.35.276-1.991.553-2.546 1.107-4.087 3.338-6.736 4.358-1.697.675-3.446.57-5.212.208 1.991 1.798 4.623 2.715 7.29 2.767.744.017 1.49-.017 2.234-.035.848 1.003 2.181 1.488 3.48 1.124 1.178-.363 2.2-1.141 3.377-1.556 1.714-.605 3.619-.986 5.454-.9 1.732.416 3.446 1.004 5.178 1.436-.052 1.055-.243 2.093-.398 3.148-.208 1.227-.416 2.507-.866 3.683-.156.38-.295.727-.676.917-.744.38-1.697.45-2.528.519-3.047.19-6.181.276-9.212.034-.814-.069-1.61-.173-2.39-.432a32.956 32.956 0 0 1-6.476-2.906c-2.147-1.227-4.26-2.628-6.078-4.289-.606-.518-.727-1.262-.952-1.971-.537-2.04-.883-4.081-1.23-6.174-.155 1.28-.138 2.629-.086 3.926.087 1.314.19 2.646.502 3.925.173.692.64 1.142 1.126 1.626 1.108 1.09 2.337 2.075 3.584 2.992 2.303 1.66 4.693 3.13 7.29 4.289.883.38 1.766.76 2.719.951 3.376.692 6.701.657 10.112.554-.207.397-.415.795-.623 1.21-.745.277-1.455.519-2.251.554-6.2.345-12.675-1.419-17.524-5.396-2.615-2.145-4.796-5.067-5.61-8.37-.416-2.283-.381-4.687-.347-7.005.433.19.9.485 1.403.38.52-.138.745-.605.814-1.106.086-.657-.173-1.21-.381-1.816-.035.605-.104 1.176-.294 1.747-.52 0-.987.034-1.42-.312-1.109-.778-1.438-1.936-1.715-3.199-.554-1.799-1.645-3.251-1.627-5.275.052-.657.225-1.608.865-1.971.399-.26.832-.208 1.213.034.606.415 1.039 1.176 1.35 1.834.71 1.487 1.212 3.113 1.732 4.669a137.42 137.42 0 0 0 3.117 1.712c-.087-1.245-.243-2.456-.104-3.7.138-2.3.554-4.584 1.628-6.676z" fill="#FFF"/><path d="M98.978 54.705c2.494-.069 5.057.934 7.152 2.248 1.09.71 2.199 1.54 3.013 2.56-1.818.467-3.637.934-5.455 1.435-.433-.57-.779-1.28-1.298-1.798-.537-.07-1.109-.018-1.663 0 .658-.675 1.316-1.315 2.182-1.747-1.49-.225-2.96-.329-4.45-.017.086-.744.156-1.505.38-2.214a2.99 2.99 0 0 1 .14-.467zm-11.394 1.903c.555.345.884 1.106 1.23 1.642-.468-.415-.831-.795-1.49-.83-.19 2.093.953 4.428 1.628 6.365-.865-1.211-1.385-2.525-1.87-3.909-.329-1.038-.588-2.092-.363-3.182.294-.156.536-.294.865-.086z" fill="#231F20"/><path d="M89.784 60.724c.155.501-.035.899-.139 1.383.035.38.19.744.294 1.107-.329-.138-.779-.242-1.004-.519-.104-.363-.035-.744.087-1.072.19-.398.26-.813.762-.9z" fill="#231F20"/><path d="M109.61 67.762c.849-.086 1.368.398 2.078.744.624.328 1.264.398 1.957.536-.952.329-1.887.19-2.822-.086-.174.45-.347.899-.52 1.331a10.556 10.556 0 0 1-.935-1.522c-.398.536-.693 1.124-.952 1.747a9.917 9.917 0 0 1-.832-1.66 7.145 7.145 0 0 0-1.16 2.023 6.18 6.18 0 0 1-.606-1.574 8.972 8.972 0 0 0-1.108 1.99l-.71-.762c-.537.502-1.039 1.02-1.662 1.418-.849.537-1.784.83-2.77 1.02.796-.449 1.61-.864 2.354-1.435 1.49-1.072 3.013-2.594 4.762-3.2a18.62 18.62 0 0 1 2.926-.57zm7.793.035c.9-.087 1.939.484 2.684.934l-1.507-.104-.208.882-.83-.726a8.694 8.694 0 0 1-.451 1.625c-.225-.311-.45-.64-.693-.968-.208 1.02-.52 1.746-1.281 2.473.07-.657.294-1.384.19-2.04-.069-.416-.45-.623-.727-.883.381-.017.797-.017 1.178-.104.64-.155 1.073-.882 1.645-1.09z" fill="#9A989B"/><path d="M110.13 73.193c1.489-.243 2.909-.018 4.364.242-1.351-.035-2.684.034-4.018.294-1.195.225-2.32.605-3.48.934-.45.138-.866.034-1.316-.07 1.437-.64 2.857-1.227 4.45-1.4z" fill="#FFF"/><path d="M77.108 73.815c1.178-.138 2.251.052 3.411.087 1.316.017 2.633.242 3.949.207-.104.796-.226 1.54-.243 2.352-.017 1.678.243 3.234.52 4.877.26 1.608.588 3.2.865 4.808.572 2.784.953 5.62 1.23 8.457-.953.38-1.922.536-2.91.795-.484.104-1.02.242-1.523.19-.554-.155-1.039-.57-1.524-.864-1.731-1.038-3.446-2.093-5.16-3.13.329-2.577.762-5.137 1.039-7.714.364-2.87.848-5.551.693-8.474-.035-.553-.226-1.037-.347-1.59z" fill="#891619"/><path d="M74.182 74.317c.658 2.04.242 3.89.017 5.949-.64 5.62-1.402 11.276-2.51 16.81-.85 4.047-1.802 8.284-3.533 12.071a35.003 35.003 0 0 1-3.273-5.62c-2.407-5.102-3.67-10.463-4.45-16.015-.814 3.563-1.056 7.35-.381 10.947-1.784 1.453-4.035 2.439-6.182 3.234-1.368-1.107-2.822-2.075-4.415-2.87-.364-.173-.45-.571-.624-.9-.571-1.28-1.35-2.352-2.407-3.251.208 1.003.416 1.989.399 3.026-.9-.103-1.75-.346-2.65-.415-1.454-.103-2.892.121-4.26.588 4.399.398 8.399 2.352 11.775 5.154.277.277.45.709.624 1.072 1.194 2.508 2.268 5.05 4.052 7.23.554.725 1.23 1.33 1.87 1.97-.883.053-1.766.174-2.632.018-1.282-.225-2.476-.553-3.792-.519a5.793 5.793 0 0 0-3.29 1.159c-1.282.951-2.217 2.456-2.875 3.908-.64 1.384-.883 2.854-1.022 4.376-.571-.761-1.212-1.453-1.887-2.145-.087-2.37.45-4.721 2.13-6.485 1.316-1.384 3.013-2.04 4.831-2.456.883-.069 1.732-.207 2.615-.19.865-.017 1.697.156 2.562.138-1.87-.691-3.844-1.003-5.835-.726-2.459.26-4.866 1.505-6.216 3.614-.814 1.211-1.143 2.577-1.351 4.013a85.759 85.759 0 0 0-2.251-2.733c-.243-.294-.468-.57-.589-.934a35.853 35.853 0 0 1-1.628-8.526c-.12-1.47-.086-2.957-.156-4.427-.38 1.262-.779 2.508-.987 3.822-.329 1.85-.363 3.718-.432 5.586-.312-.9-.59-1.781-.745-2.715-.173-1.003-.121-1.954-.173-2.975-.537.986-.831 2.04-1.074 3.13-1.09-1.521-2.026-3.095-2.528-4.911-.675-2.283-.606-4.704.017-7.004.572-2.024 1.819-3.805 3.446-5.12.883-.76 1.888-1.314 2.823-2.005 1.333-.986 2.597-2.041 3.896-3.044 1.8-1.4 3.67-2.698 5.662-3.84 3.36-1.92 7.013-3.303 10.788-4.167-.675.882-.935 1.885-1.195 2.94.953-1.055 1.94-2.076 3.117-2.871 3.29-2.3 7.238-3.355 11.186-3.753 1.178-.017 2.338-.156 3.533-.138zm12.692.813a17.986 17.986 0 0 0 2.148 4.6c2.424 3.718 6.078 6.45 10.112 8.214 4.121 1.782 8.762 2.698 13.247 2.3 1.143-.017 2.2-.259 3.255-.657-.865 2.3-2.788 4.186-4.623 5.76-2.944 2.524-6.251 4.236-9.766 5.793-1.074.467-2.13.986-3.238 1.349 1.904-.277 3.792-.813 5.627-1.384 2.91-.934 5.68-2.248 8.277-3.856-3.376 4.98-8.311 8.854-13.922 11.033-3.757 1.436-7.74 2.266-11.723 2.733 1.472-2.94 2.598-6.174 2.944-9.477.606-5.033-.121-10.083-.952-15.029-.485-3.113-1.35-6.226-1.541-9.356-.052-.692.017-1.349.155-2.023z" fill="#FFF"/><path d="M123.082 78.087c.502-.035.987.12 1.472.242 2.182.588 4.398 1.141 6.563 1.833-.623.675-1.264 1.245-1.766 2.006-1.42 2.127-2.303 4.48-2.944 6.935-.52 2.058-.866 4.133-1.247 6.209-.07.294-.121.64-.294.882-.468.346-1.091.519-1.61.76-1.542.658-3.083 1.28-4.607 1.972-.502.208-.952.398-1.489.242-.918-.276-1.8-.709-2.701-1.055.38-.933.97-1.729 1.402-2.646a36.146 36.146 0 0 0 3.17-8.802c.103-.415.224-.83.363-1.245.78-.33 1.472-.692 1.957-1.401.588-.9.865-2.041 1.108-3.061.277-.934.329-1.937.623-2.871z" fill="#891619"/><path d="M88.658 81.58a9.914 9.914 0 0 0 2.286 2.802c1.298 1.124 2.736 1.868 4.19 2.75.935.57 1.888 1.228 2.494 2.144 1.731 2.784 1.627 6.382.017 9.2-.035-1.331.052-2.576-.139-3.908-.138-1.02-.38-2.04-.761-2.992-.33-.813-.658-1.556-1.3-2.179-1.229-1.245-2.908-2.04-4.224-3.234-1.368-1.176-2.355-2.767-2.563-4.583z" fill="#231F20"/><path d="M133.68 81.65c1.697.5 3.376 1.21 4.97 1.97 1.298.658 2.7 1.436 3.688 2.526.83.916 1.61 1.937 2.112 3.06.433.952.64 1.972.814 2.993.277 1.712.346 3.459.277 5.188a19.613 19.613 0 0 1-2.338 8.647c.953-.588 1.87-1.228 2.598-2.11.364 1.833.485 3.684.554 5.552.052 2.265 0 4.548-.312 6.796-.987-.76-1.904-1.47-3.1-1.902-1.038-.398-2.13-.432-3.22-.294.78.328 1.524.64 2.147 1.21.468.398.762.917 1.022 1.47-2.009.225-3.896.606-5.628 1.678-1.749 1.072-2.961 2.75-3.602 4.67 1.992-1.695 3.983-3.165 6.598-3.719 1.818-.346 3.775-.415 5.61-.104 1.766.45 3.55.865 5.333 1.297.987.225 1.888.52 2.892.64-.935.294-1.818.554-2.58 1.21-1.506 1.212-2.39 3.2-2.805 5.05-.52 3.2 1.004 6.348 2.407 9.132l-.572 1.142c-1.021-.035-2.008 0-3.013-.208-.675-2.093-1.28-4.099-1.489-6.312-.26-2.11-.138-4.48.762-6.434.624-1.4 1.697-2.577 3.152-3.147-.554.103-1.091.155-1.61.38-.918.398-1.646 1.107-2.165 1.972-.745 1.228-1.056 2.646-1.247 4.047-.312 3.095.277 6.018 1.212 8.958-.692-.035-1.368-.121-2.06-.121-2.373-.017-4.745-.173-7.1-.346-2.078-.208-4.433-.363-6.39-1.159-1.281-.501-1.956-1.712-2.476-2.905-1.004-2.49-1.264-5.396-1.402-8.042a16.786 16.786 0 0 0 1.558-2.404c1.333-2.577 2.234-5.447 2.788-8.284.208-.95.138-1.798.658-2.663 1.662-3.061 2.996-6.658 2.355-10.204-.433.882-.814 1.782-1.299 2.63-1.61 2.974-3.775 5.62-6.285 7.885-.174-4.756.606-9.736 1.402-14.423.606-3.217 1.056-6.433 2.147-9.53.502-1.383 1.126-2.818 2.044-3.977.502-.588 1.004-1.262 1.593-1.816z" fill="#FFF"/><path d="M93.16 91.75c.45.449.883.898 1.247 1.417.866 1.21 1.35 2.733 1.42 4.22.121 1.712-.606 3.476-1.368 4.98-1.559 2.906-3.792 5.518-6.528 7.368 2.164-3.01 4.45-5.776 5.506-9.408.883-2.663.52-5.378-.173-8.042a2.93 2.93 0 0 0-.104-.536z" fill="#231F20"/><path d="M75.307 94.274c1.524.761 2.944 1.695 4.433 2.525.797.415 1.524.986 2.338 1.349.26 0 .537-.173.762-.311 1.281-.779 2.597-1.522 3.879-2.318.138.917.277 1.799.19 2.733-.086.9-.07 1.781-.138 2.68-.416 3.753-1.732 7.402-3.706 10.636-.468.796-1.004 1.54-1.472 2.335 1.143.035 2.251-.156 3.394-.225 1.94-.138 3.844-.605 5.8-.692-1.73 6.883-3.41 13.766-4.969 20.684-.312 1.193-.485 2.421-.831 3.597-1.922-.052-3.844.346-5.558 1.245v-.138c.017-.847.12-1.695.103-2.542.624-.363 1.23-.675 1.697-1.263.572-.674.71-1.729.936-2.576.346-1.35.051-2.767-.641-3.943-.502-.813-1.334-1.35-2.009-2.007-.589-.553-.918-1.245-1.506-1.78-.693-.623-1.593-.883-2.303-1.523a145.12 145.12 0 0 0-1.68-1.452c-.623-.52-.814-1.194-1.299-1.8-.398-.5-.952-.916-1.472-1.313-1.039-.744-2.043-1.54-3.065-2.3-.207-.19-.571-.381-.606-.692.485-.606 1.091-1.09 1.542-1.747 1.402-1.972 2.355-4.289 3.134-6.554 1.42-4.1 2.234-8.302 3.047-12.608zm38.598 4.704c1.23.951 2.424 1.937 3.653 2.888 2.303-.882 4.572-1.885 6.892-2.75-.329 3.01-.918 5.915-.918 8.993-.086 1.142-.19 2.266-.034 3.425.086 2.282.346 4.462 1.195 6.589.225.588.606 1.124.796 1.73-.156.5-.537.95-.814 1.4-2.736 4.202-5.23 8.595-7.255 13.178-.433.951-.78 1.92-1.23 2.854-9.731 0-19.48.017-29.212-.018.243-1.09.59-2.144.883-3.216 1.888-6.762 3.568-13.594 5.386-20.373.121-.432.208-.916.415-1.332.399-.31 1.04-.363 1.507-.501 2.892-.813 5.766-1.92 8.363-3.424a34.297 34.297 0 0 0 8.71-7.385c.572-.709.987-1.435 1.663-2.058z" fill="#891619"/><path d="M60.797 101.728c.398.968.779 1.937 1.246 2.888.364.657.208 1.54.33 2.283.069 1.712.138 3.424.224 5.136-.398-.017-.796-.017-1.177-.017-1.42-1.142-2.701-2.404-3.688-3.96-.762-1.194-1.368-2.508-1.974-3.788 1.766-.726 3.41-1.522 5.039-2.542z" fill="#FFF"/><path d="M54.857 111.119c-.866.017-1.697-.139-2.563-.139-.883-.017-1.749.121-2.614.19 1.246-.484 2.39-.259 3.688-.363-1.42-.363-2.892-.484-4.346-.415 1.991-.276 3.948.052 5.835.727z" fill="#231F20"/><path d="M65.558 110.202l.087.121.052.052c-.035.76-.035 1.522.052 2.283l.364-.225-.416.467c-.173-.9-.139-1.781-.139-2.698z" fill="#9A989B"/><path d="M65.697 110.375c.329.45.693.865 1.056 1.28-.208.26-.415.536-.658.778l-.363.225a12.57 12.57 0 0 1-.035-2.283z" fill="#FFF"/><path d="M62.701 114.49c.364.624.45 1.384.745 2.059.485-.104.987-.277 1.49-.277.363.018.744.312 1.038.502 1.385 1.037 2.753 2.11 4.139 3.13.45.346.935.692 1.229 1.193.242.38.38.882.693 1.21.433.433.935.796 1.402 1.194.606.484 1.16 1.038 1.766 1.522.641.38 1.316.519 1.784 1.159.433.45.329.916.346 1.487-.658-.294-1.177-.744-1.749-1.159.59.9 1.316 1.643 2.407 1.834.018-.277.052-.554.07-.83.588.553 1.333 1.037 1.783 1.712.45.882.693 1.954.087 2.836 0 .536.069.986-.364 1.383-.571.571-1.212.485-1.94.363-.034.225-.051.45-.086.692a42.84 42.84 0 0 1-1.09-.847c0-.554.034-1.124-.053-1.66-.208-.294-.52-.554-.796-.796-2.269-1.954-4.468-4.012-6.77-5.932.467 1.02 1.229 1.764 1.99 2.56-.26.276-.536.657-.9.83-.52.26-1.195.26-1.766.294-.052 1.366-.052 2.715-.19 4.081-.087.692-.07 1.488-.347 2.145-.502.311-1.022.26-1.576.173-.138-1.436-.294-2.888-.935-4.203-.433-.9-1.143-1.435-1.714-2.265a19.358 19.358 0 0 1-1.576-2.802c.953.847 1.784 1.85 2.684 2.732.675.692 1.801.83 2.598.277.398-.242.519-.795.692-1.193-.45.432-.779.9-1.437 1.003-.987.207-1.957-.64-2.095-1.591 0-.38.086-.761.069-1.142-.225-.415-.693-.812-.762-1.297-.035-.622.26-1.28.727-1.677.399-.346.883-.502 1.351-.692a8.102 8.102 0 0 1-.918-1.228l.104.986c-.952.502-1.818 1.09-1.87 2.283-.07.605.19 1.003.52 1.47.242.311.155.64.173 1.003a38.845 38.845 0 0 1-2.06-2.075c-.572-.537-.607-1.574-.71-2.3-.191-1.54.432-2.75 1.142-4.03.537.398 1.056.813 1.558 1.245-.83.26-1.558.588-1.939 1.418-.398.744-.329 1.453-.121 2.231.104-.605.121-1.21.45-1.764.329-.605.9-1.037 1.541-1.245.33-.086.658-.225.953.017.83.588 1.575 1.297 2.441 1.868-.086-.363-.104-.709-.364-.986-.484-.536-1.142-.95-1.697-1.418-.761-.622-1.558-1.21-2.32-1.833-.415-.277-.38-.9-.554-1.349-.208-.744-.848-1.141-1.177-1.764-.07-.311-.226-.553.138-.744.52-.259 1.368-.397 1.766.208z" fill="#9A989B"/><path d="M127.879 114.093c-.121.83-.26 1.626-.606 2.387a24.81 24.81 0 0 1-.416-1.626c.346-.242.675-.501 1.022-.76zm-72.969 1.28c1.696.38 3.15-.017 4.83-.087.277.433.606.83.953 1.211.484.536.658 1.366.277 2.006-.502.969-.935 1.92-1.074 3.027-.104.882.104 1.816.277 2.68.173.727.243 1.401.606 2.076.64 1.21 1.299 2.507 2.13 3.58.433.57.952.985 1.281 1.625.485.917.641 2.093.814 3.096-.485-.087-.97-.19-1.437-.398-2.32-.986-4.502-2.473-6.528-3.943.97 1.937 2.961 3.13 4.814 4.116 1.073.588 2.095.951 3.307 1.159 0 .173-.017.328-.017.501-2.788-.277-5.524-.865-8.243-1.608a6.604 6.604 0 0 0 1.594 1.072c1.627.744 3.48 1.09 5.246 1.332.97.138 1.957.138 2.927.173-.26.432-.572.795-.935 1.158-1.334.052-2.667.087-4 .018-2.078-.156-3.81-.969-5.732-1.643 1.09 1.037 2.355 1.885 3.81 2.282.848.243 1.783.208 2.684.312 1.038.086 2.06-.087 3.1-.104-1.04 1.505-2.945 2.058-4.642 2.456-.64.104-1.42.38-2.026.104-.848-.33-1.645-.865-2.39-1.367a29.54 29.54 0 0 1-3.497-2.922c-.727-.727-1.403-1.367-1.818-2.335-.727-1.712-1.108-3.65-1.663-5.413-.225-.727-.658-1.28-1.039-1.937-.883-1.436-1.645-3.113-1.87-4.79-.19-1.401.312-2.768.832-4.03.588-1.35 1.575-2.854 2.926-3.51 1.437-.693 3.048-.174 4.502.103z" fill="#FFF"/><path d="M64 117.102c.277-.034.537-.086.814-.12 1.23.95 2.459 2.023 3.307 3.337A125.051 125.051 0 0 1 64 117.102z" fill="#231F20"/><path d="M164.346 120.492c1.057.138 1.438 1.055 2.338 1.66.45-.346.935-.795 1.49-.934.45-.017.917.087 1.35.156 2.909.502 5.94.951 8.831 1.453.52.086.727.397 1.004.813.745.207 1.524.328 2.286.45 2.926.518 5.853 1.089 8.797 1.573.242-.45.363-.865.917-.986 1.178-.155 2.338.502 2.84 1.574.658.19 1.35.156 1.75.813.328.45.224.882.172 1.383.295.415.572.744.485 1.315-.035.536-.416 1.435-1.108 1.262-.606-.07-1.23-.19-1.836-.277.07.26.139.52.208.796-.64.017-1.281.07-1.905.173-.138-.45-.26-.9-.38-1.35-3.498-.604-6.996-1.279-10.494-1.884-.243.26-.502.622-.849.744-.363.103-.779.051-1.142.051-.537 1.073-1.057 2.11-1.853 3.01-.537.588-.728 1.349-1.541 1.59-1.455.52-3.325-.086-4.832-.224.693.501 1.455.813 2.269 1.055-.243.795-.433 1.539-1.04 2.144-.848.848-1.956 1.194-3.133 1.09.727-.38 1.489-.692 1.922-1.436.467-.864.225-1.954-.364-2.698-.796-1.037-1.922-1.556-3.047-2.144-.45-.19-.416-.588-.572-1.003-.294-1.176-.796-2.283-.831-3.459-.052-.795 0-1.643-.139-2.421-.069-.536-.554-.951-.917-1.332-.087-.484-.122-.934-.433-1.349-.399-.57-1.143-.847-1.732-1.193.502-.277.918-.536 1.49-.415z" fill="#9A989B"/><path d="M69.264 121.063c.762-.07 1.333.276 1.974.657-.727-.138-1.403-.38-2.147-.138-.849.242-1.385 1.054-1.437 1.92-.07.622.156 1.123.38 1.694-.034.484-.12.9.105 1.349.26.57.848.865 1.316 1.228-.59-.121-1.126-.156-1.559-.623-.554-.605-.606-1.331-.52-2.11-.138-.38-.328-.778-.38-1.158-.087-1.35.865-2.75 2.268-2.82zm102.338 2.092c1.749.277 3.498.588 5.246.882-.554.156-1.125.277-1.696.38.017.727.069 1.436.173 2.163.71.172 1.42.294 2.147.432-.26-.726-.485-1.366-.139-2.11.208-.623.676-.9 1.247-1.176-.294.415-.675.813-.727 1.332-.087.657 0 1.47.45 1.988.918.537 2.06.122 2.719 1.107-.849-.138-1.68-.328-2.528-.397-.156.466-.104.778.034 1.227-.242-.173-.52-.345-.71-.57-.086-.277-.104-.571-.156-.865l-2.078-.415c.226.865.416 1.677.174 2.56-.156.657-.503 1.521-1.178 1.798-.589.087-1.247-.07-1.818-.138-1.61-.277-3.204-.502-4.814-.727v-.674c1.472.207 2.926.415 4.381.674.71.139 1.403.208 2.113.26.294-.484.571-.934.658-1.505.207-1.003-.07-1.937-.433-2.853-.156.726-.277 1.106-.9 1.556-.053.225-.087.45-.14.692.312-.173.555-.38.918-.38.416.708-.017 1.47-.727 1.746-.138-.207-.277-.415-.398-.622-.866-.07-1.922-.139-2.684-.588-.398-.208-.52-.71-.675-1.09 1.125-.346 2.372.104 3.532.26-.156-.796-.138-1.246.156-2.007-.762-.086-1.628-.207-2.286-.64-.346-.224-.554-.691-.311-1.055.329-.207.761-.155 1.142-.12.762.103 1.507.276 2.251.397v-.398c-1.8-.276-3.584-.605-5.385-.916-1.125 1.504-1.645 3.234-1.991 5.05-.64-1.782 0-3.719 1.177-5.137-.433-.12-.865-.242-1.281-.432 1.49-.45 2.944.086 4.537.311z" fill="#231F20"/><path d="M155.325 123.397c1.8.139 3.584-.155 5.368.035 1.472.19 2.891.623 4.225 1.262.26.813.138 1.592.19 2.439.018.951.347 1.902.606 2.819-.727-.138-1.402-.208-2.078.104-.45.207-.675.57-.952.95.658-.259 1.247-.535 1.991-.518.485.017.883.208 1.334.38.19.727.363 1.764-.225 2.37-.641.519-1.767.795-2.477.26-.744-.52-1.212-1.47-1.558-2.284-.398-.882-.64-1.937-1.212-2.715-.433-.605-1.212-1.02-1.957-.83-1.368.363-2.632 1.47-3.913 1.954-.624.26-1.23.19-1.888.173.347.294.624.588 1.074.71.658.19 1.281.086 1.957-.018v.57c-.658.174-1.23.416-1.61.986-.382.571-.313 1.176-.295 1.834a50.823 50.823 0 0 1-.953 1.643c-.9-1.678-1.627-3.407-2.026-5.275-.19-.934-.277-1.92.035-2.836.329-1.038.797-2.145 1.541-2.94.71-.796 1.75-1.16 2.823-1.073z" fill="#FFF"/><path d="M65.385 123.432c.243.605.416.778.987 1.09-.277.345-.45.674-.917.743-.59.104-1.143-.501-.884-1.072.122-.415.45-.553.814-.761zm27.481 1.314c-.277.536-.64 1.055-.797 1.626-.086.432-.034.9-.034 1.332a5.639 5.639 0 0 1-.381-.294c-.658-.45-.624-1.54-.122-2.093.33-.38.866-.432 1.334-.57z" fill="#231F20"/><path d="M185.974 126.095c2.632.467 5.247.951 7.879 1.401.07.64.19 1.263.346 1.902a5.606 5.606 0 0 1-.848-1.418c-3.342-.743-6.684-1.435-10.026-2.179-1.126-.294-2.286-.45-3.429-.709 2.06.225 4.035.675 6.078 1.003z" fill="#FFF"/><path d="M65.87 126.2c.312-.053.624-.053.953-.07.138.328.415.692.242 1.038-.242.622-1.074 1.037-1.61.484-.33-.467-.156-1.263.415-1.453zm129.108.933c.59.588.59 1.159.208 1.868l-.363-.104c-.312-.57-.191-1.245.155-1.764z" fill="#231F20"/><path d="M123.948 128.17c.33 2.422.883 4.93 2.13 7.057.433.76 1.004 1.418 1.645 2.023h-8.745c1.663-3.01 3.29-6.053 4.97-9.08z" fill="#FFF"/><path d="M71.342 128.69c.398.293.762.64 1.108 1.002-.346.122-.727.26-1.108.277-.485-.017-.97-.155-1.437-.26.502-.31.97-.656 1.437-1.02z" fill="#9A989B"/><path d="M195.619 129.19l.433.087c.052.277.173 1.263-.346 1.073-.156-.346-.087-.796-.087-1.16z" fill="#231F20"/><path d="M160.017 130.402c.572 1.124.97 2.248 1.75 3.285.432.571 1.038.882 1.523 1.419.883.95 1.836 1.798 2.996 2.386-.71.623-1.299 1.263-1.316 2.266-.104 1.055.588 2.248.156 3.2-.295.846-1.143 1.452-2.061 1.313-1.316-.224-2.39-.882-3.498-1.573.364-.26.693-.554.987-.9-.52.139-1.195.415-1.714.242-.45-.38-.866-.968-.918-1.573.035-.64.78-1.332 1.42-1.124.935.242 1.8.899 2.684 1.331.45.225 1.022.502 1.541.329.52-.208.71-.64.987-1.072-.52.207-.935.553-1.524.345-1.402-.501-2.493-1.556-4.017-1.92-.52-.138-.987-.016-1.49.105a12.637 12.637 0 0 1-2.164-3.13c.502-.07.987-.156 1.472-.277a20.65 20.65 0 0 1-1.697-.467c-.138-.571-.329-1.28-.173-1.868.416-.917 1.8-.83 2.338-.121.433.813.536 1.695 1.177 2.456.918 1.037 1.974 1.971 3.082 2.801.364.26.797.588 1.247.64.9.07 1.68-.207 2.46-.605-.78.017-1.646.173-2.373-.173-.624-.311-1.195-.778-1.732-1.21-.762-.658-1.576-1.332-2.199-2.128-.329-.415-.467-.9-.623-1.4l.779-.364c-.33-.086-.675-.19-1.004-.277-.33-.484-.745-.778-1.213-1.09-.138-.604-.086-1.262.433-1.677.883-.691 2.182-.086 2.684.83z" fill="#FFF"/><path d="M77.974 130.125c.468-.242 1.022-.139 1.247.38.26.779-.658 1.591-1.403 1.228-.623-.311-.45-1.349.156-1.608z" fill="#231F20"/><path d="M69.039 131.162c.138.19.38.398.416.64 0 .536-.295 1.055-.537 1.522-.018-.726 0-1.435.121-2.162z" fill="#9A989B"/><path d="M71.48 131.284c.936.501 1.68 1.366 2.511 2.04.52.433.312 1.21.814 1.574.935.796 1.94 1.47 2.823 2.352-2.961.07-5.94.035-8.9.017.432-1.47 1.644-2.213 2.268-3.58.433-.778.415-1.556.485-2.403z" fill="#891619"/><path d="M79.134 132.356c-.086.207-.19.398-.277.588H78.2c-.034-.121-.07-.225-.086-.346.346-.087.675-.156 1.021-.242z" fill="#231F20"/><path d="M167.169 132.529l.121.052c.831.38 1.697.882 2.32 1.556.381.415.624.9.555 1.47-.035.432-.381.744-.71.969-.745.466-1.715.691-2.58.466-1.04-.415-1.957-1.314-2.736-2.11.813-.207 1.645-.45 2.268-1.037.433-.38.589-.847.762-1.366z" fill="#FFF"/><path d="M154.216 135.261l.07.156c.277.484.502 1.003.796 1.487.554.934 1.35 1.781 2.026 2.629-.069.536-.225 1.21-.017 1.73.242.64.762 1.21 1.16 1.763-1.264-.173-2.545-.519-3.792-.847-.849-.242-1.905-.588-2.528-1.263-.33-.31-.087-.847.052-1.193.727-1.522 1.35-3.044 2.233-4.462z" fill="#891619"/><path d="M79.446 138.374v.139l-.26.156c-.346-.035.052-.416.26-.295z" fill="#9A989B"/><path d="M9.645 141.037c2.961-.051 5.957-.017 8.918-.017l4.987 16.291c.156.536.329 1.055.52 1.557.727-4.255 1.402-8.526 2.13-12.78.242-1.696.623-3.356.796-5.05 2.805-.052 5.61 0 8.415-.035-.294 1.816-.692 3.614-.952 5.43-.658.017-1.316.017-1.974.104-1.022 5.845-2.113 11.69-3.152 17.536h1.905c-.329 1.85-.658 3.684-1.004 5.534h-8.866c-1.714-5.482-3.394-10.964-5.09-16.43a34.714 34.714 0 0 1-.4-1.435c-.38 1.816-.588 3.667-.917 5.5-.658 4.116-1.316 8.25-2.009 12.365-2.84 0-5.68.018-8.502-.017.364-1.833.676-3.684 1.022-5.517h1.887c.641-3.355 1.212-6.727 1.836-10.1.433-2.507.935-4.998 1.333-7.523H8.675c.156-1.21.433-2.403.624-3.597.104-.605.173-1.228.346-1.816zm28.381 0c2.961-.051 5.94-.017 8.883-.017 1.541 4.514 3.117 9.01 4.675 13.524 2.442-3.407 4.849-6.831 7.273-10.255 2.84.034 5.368-1.159 7.567-2.871.225-.138.468-.415.745-.415.9-.035 1.818 0 2.718-.017a276.688 276.688 0 0 0-.987 5.464h-1.852c-.33 1.142-.468 2.352-.693 3.511-.866 4.704-1.68 9.408-2.563 14.112h1.922c-.363 1.833-.658 3.684-1.021 5.517h-8.866c1.004-5.517 1.991-11.05 2.996-16.568-3.187 4.324-6.269 8.734-9.472 13.04-1.61-4.358-3.238-8.716-4.866-13.074a5555.203 5555.203 0 0 0-2.927 16.602c-2.926.017-5.835 0-8.761 0 .346-1.85.64-3.684 1.021-5.534h1.922c1.074-5.863 2.165-11.743 3.17-17.623h-1.888c.207-1.556.554-3.078.796-4.617.07-.242.121-.52.208-.779zm46.822-.034c5.23.017 10.46-.017 15.671.017-.45 2.127-.813 4.254-1.246 6.382H91.29c.104-.571.225-1.142.294-1.73-1.627-.12-3.255-.034-4.883-.052-.277 1.418-.52 2.854-.762 4.272 3.013 1.781 6.01 3.597 9.022 5.378.727.433 1.385.865 1.87 1.574.45.657.606 1.418.45 2.214-.38 2.11-.796 4.202-1.194 6.312-.19 1.228-1.126 2.076-2.078 2.767-1.299.865-2.927 1.54-4.503 1.488h-15.03c.364-2.266.797-4.514 1.178-6.78h7.965c-.07.588-.173 1.194-.277 1.782 1.628.017 3.273 0 4.9 0 .312-1.764.693-3.546.918-5.327-.363-.329-.848-.553-1.264-.813L80 153.766c-1.09-.623-2.303-1.747-2.165-3.113.226-1.574.555-3.148.814-4.704.139-.778.19-1.557.606-2.266.728-1.297 2.078-2.179 3.516-2.525.658-.172 1.385-.155 2.077-.155zm18.182.017c8.19-.017 16.399-.017 24.589 0-.38 2.127-.78 4.254-1.177 6.382h-5.074l.156-.952h-3.498c-1.074 5.88-2.182 11.76-3.203 17.623.623 0 1.246 0 1.87.017-.33 1.85-.658 3.684-1.005 5.535h-11.22c.311-1.85.71-3.684.987-5.535.64-.017 1.298-.017 1.939-.017 1.074-5.863 2.147-11.76 3.238-17.623h-3.498c-.052.33-.121.64-.173.952h-5.09c.38-2.128.796-4.255 1.16-6.382zm28.745 0c4.086-.034 8.173 0 12.26-.017-.018 7.696-.052 15.374-.087 23.053h1.922c-.364 1.85-.658 3.7-1.022 5.534h-8.467c.087-2.387.208-4.756.225-7.125h-5.385c-.78 2.37-1.541 4.756-2.303 7.125h-8.52c.347-1.85.676-3.684 1.005-5.534h2.13c2.735-7.679 5.506-15.357 8.242-23.036zm17.575.07c.555.933 1.23 1.729 2.165 2.3 1.264.864 2.684 1.089 4.121 1.47a17.81 17.81 0 0 0 3.152.484c.52 0 .883.276 1.35.484a8.676 8.676 0 0 0 2.771.813 1923.502 1923.502 0 0 1-3.186 17.398h1.94c-.382 1.833-.659 3.7-1.04 5.534h-11.186c.26-1.85.676-3.684.97-5.534h1.887c1.143-5.863 2.13-11.76 3.273-17.623-1.16-.017-2.338 0-3.498 0-.069.311-.138.64-.208.968-1.696-.017-3.393.052-5.09-.052.45-2.023.744-4.08 1.16-6.104.502-.018.952-.07 1.42-.139zm18.511-.087c1.576.017 3.152 0 4.728.017-.433 2.127-.762 4.272-1.212 6.382h-5.074c.07-.312.139-.64.19-.952-.588 0-1.177-.017-1.766-.017.485-.225.935-.432 1.334-.778.796-.657 1.281-1.712 1.627-2.646.277-.675.225-1.314.173-2.006zm7.359.017c6.702-.017 13.386 0 20.087 0-.346 2.145-.796 4.254-1.16 6.382h-6.112c.052-.312.104-.64.155-.952h-4.761c-.399 2.007-.78 4.047-1.109 6.07 1.957.018 3.931 0 5.888 0-.156 1.626-.572 3.217-.814 4.843-1.974.035-3.965-.035-5.94.035-.519 2.196-.813 4.462-1.298 6.675h4.796c.07-.415.156-.83.225-1.228h6.58c-.432 2.249-.813 4.514-1.246 6.78-6.857 0-13.714.017-20.572-.018.381-1.833.676-3.683 1.04-5.534h1.904c1.091-5.88 2.13-11.76 3.256-17.623h-1.923c.347-1.815.676-3.631 1.005-5.43z" fill="#FFF"/><path d="M136.9 144.894c.035.76.052 1.54.035 2.3-.017 3.597-.017 7.194-.035 10.792h-4.294c1.35-4.393 2.944-8.7 4.294-13.092z" fill="#231F20"/></g></svg>