<svg width="200" height="200" xmlns="http://www.w3.org/2000/svg"><g fill="none"><path d="M107.941 12.018c.662.496 1.213 1.066 1.838 1.599a493.11 493.11 0 0 1 6.526 5.989c.699.68 1.379 1.323 2.206 1.837 2.427 1.58 5.147 2.81 7.794 3.987 1.066.477 2.114.459 3.254.624 4.062.57 8.088 1.36 12.059 2.444 3.842.973 7.555 2.48 11.03 4.409 4.41 2.425 8.4 5.475 12.168 8.763 1.011.845 1.875 1.8 3.052 2.462.845.478 1.654 1.194 2.683.937 1.14-.147 1.93-1.01 2.978-1.286.68.147 1.324.533 1.967.808 1.673.717 3.199 1.782 4.504 3.032 2.114 2.094 3.474 4.74 4.43 7.514.129.33.24.734.478.992.35.275.79.459 1.177.661 4.21 2.241 7.628 5.916 9.21 10.453.238.699.33 1.36.79 1.948 1.856 2.296 3.143 5.107 3.566 8.028.055.313.202.588.33.864v3.858c-.422.661-.385 1.34-.57 2.076-.57 2.333-1.635 4.556-3.143 6.43a24.974 24.974 0 0 1-2.206 2.204c-.753.662-1.562.956-2.132 1.727-1.434 2.021-3.033 3.95-4.798 5.677-3.456 3.564-7.5 6.559-11.875 8.874-.46.257-.992.496-1.36.863-.018.661.11 1.304.129 1.966 0 1.01-.11 2.002-.276 2.994a3.607 3.607 0 0 0-.018 1.176c.845-.018 1.69 0 2.536.055-.147 1.433-.496 2.83-.698 4.263-.68 3.968-1.379 7.973-2.04 11.941-.13.698-.221 1.433-.442 2.113-.551.312-1.305.33-1.93.496-2.573.606-5.147.808-7.757 1.029-2.298.238-4.67.147-6.986.165-2.095-.018-4.246.055-6.305-.22-7.298-.368-14.522-2.003-21.82-2.536-1.58-.165-3.18-.147-4.779-.294a40.916 40.916 0 0 0-4.963.11c-2.482.037-4.908.386-7.353.754-7.096 1.194-13.97 3.637-20.276 7.11-10.239 5.732-18.566 14.844-23.64 25.408-.864 1.671-1.397 3.453-2.169 5.162l-4.687 10.968c-.809 1.819-1.508 3.674-2.353 5.475-.405-1.415-.147-3.013-.276-4.483-.129-1.268-.018-2.535-.147-3.803-.147-1.69-.037-3.362-.129-5.052-.092-2.205-.257-4.428-.183-6.614.937-9.167 2.904-18.243 5.68-27.043.349-1.14.827-2.278 1.103-3.436l-.294-.018c-.607.423-1.085 1.029-1.618 1.543-1.857 2.003-3.787 3.932-5.607 5.971-2.426 2.535-4.78 5.162-7.15 7.735-.589.643-1.122 1.304-1.802 1.855.129-1.69.478-3.344.625-5.034.735-5.438 1.397-10.894 2.206-16.314a373.53 373.53 0 0 1 1.838-11.041c.074-.312-.092-.496-.22-.753-5.901-8.91-11.82-17.582-18.658-25.812-2.942-3.38-6.36-6.449-9.853-9.241-3.769-3.032-7.684-5.843-11.728-8.488-3.769-2.572-7.758-4.85-11.692-7.165 5.644-3.123 11.434-6.228 17.096-9.333 9.393-5.162 18.64-10.472 28.125-15.469-.147-.845-.46-1.635-.607-2.461-.827-4.391-.992-8.966-1.47-13.393-.46-2.94-1.691-5.622-3.29-8.12-.46-.717-1.03-1.342-1.434-2.095.698.129 1.341.367 1.985.625 4.706 1.653 9.412 3.343 14.117 5.015 1.728.625 3.512 1.231 5.166 1.984 3.732 1.635 7.316 3.785 10.698 6.008.368.257.57.183.956.018 1.49-.68 2.978-1.506 4.54-2.057 10.7-3.215 21.876-5.475 33.052-6.137.184-.055.625-.036.644-.294-.11-.808-.386-1.598-.552-2.406-.845-3.472-1.231-7.037-1.25-10.6z" fill="#C3C3C7"/><path d="M113.713 23.446c.258-.019.386 0 .588.183.534.46 1.067.9 1.655 1.286 3.033 1.984 6.195 3.417 9.504 4.832 1.084.44 2.077.33 3.216.496 1.048.11 2.06.367 3.107.478 1.636.202 3.272.588 4.871.973 1.655.368 3.31.735 4.927 1.195.937.257 1.838.643 2.757.918 2.537.864 4.927 2.058 7.243 3.399 4.393 2.553 8.456 5.897 12.206 9.296.698.606 1.507 1.084 2.298 1.561.79.46 1.617.956 2.5 1.195.79.183 1.636.183 2.444.073.956-.128 1.765-.57 2.666-.79.368.037.717.257 1.048.423 1.176.68 2.242 1.561 3.07 2.627 1.341 1.672 2.15 3.73 2.886 5.732.22.588.275 1.212.44 1.819a1 1 0 0 0 .332.202c2.26.9 4.485 2.167 6.25 3.858 1.893 1.874 3.474 4.262 3.952 6.907.073.552.367.882.717 1.286 1.121 1.305 2.022 2.793 2.536 4.446.607 1.562.717 3.197.662 4.869-.147 3.876-2.334 7.808-5.79 9.682-.772.44-1.122 1.286-1.655 1.984-2.886 3.858-6.397 7.312-10.386 10.03-1.158.772-2.334 1.672-3.64 2.205 1.49-2.553 2.684-5.254 3.714-8.01.57-1.763 1.176-3.527 1.673-5.31.165-.734.496-1.634.349-2.387-.294-.22-.662-.368-.993-.533-2.077 1.966-4.669 3.472-7.463 4.17-2.132.643-4.265.57-6.452.551-1.434 2.609-3.585 4.905-5.827 6.853-2.647 2.333-5.515 4.317-8.511 6.191-.478.33-.993.606-1.544.827.422-.827.955-1.598 1.397-2.425.772-1.36 1.415-2.793 2.058-4.226.68-1.47 1.067-3.104 1.544-4.666.552-2.076.46-4.373.24-6.485-.092-1.543-.46-3.068-1.177-4.428-.423-.79-1.085-1.34-1.746-1.929-1.379-1.25-3.217-1.966-5.074-1.892-2.059-.074-4.1.496-5.717 1.8-1.25.9-2.114 2.113-2.812 3.454-.258.404.184.717.367 1.047 1.048 1.341 1.544 3.013 1.508 4.703.018 2.04-.699 4.079-1.6 5.898-1.36 2.719-3.4 4.721-5.33 6.981-1.25 1.415-1.6 3.509-.901 5.254.625 1.782 1.893 3.27 3.51 4.226 1.747 1.047 3.696 1.782 5.644 2.296.57.166 1.214.35 1.82.276.478-.092.938-.368 1.379-.588 3.106-1.488 6.03-3.436 8.64-5.677 1.12-1.084 2.316-2.168 3.143-3.472.276-.404.441-.809.9-1.047.019 1.36.019 2.719.019 4.078.055 2.076-.33 4.207-.662 6.246-.128.772-.404 1.489-.588 2.242.404-.11.79-.239 1.158-.386a58.422 58.422 0 0 0 4.577-2.223c1.82-.992 3.401-2.315 4.853-3.785.864-.863 1.728-1.69 2.482-2.663.184-.24.386-.386.643-.533.22 1.25.478 2.407.35 3.693-.148 1.34-.368 2.682-.717 3.986-.295 1.12-.864 2.113-1.103 3.234 1.14.055 2.26.036 3.382.22-.478 2.48-.882 4.942-1.287 7.44a26.76 26.76 0 0 1-.588 3.216c-1.912.459-3.824.496-5.772.716-2.39.294-4.816.22-7.206.239-2.316.037-4.596-.147-6.893-.257-1.195-.166-2.39-.11-3.585-.313-1.783-.183-3.548-.55-5.33-.716-1.14-.092-2.243-.33-3.365-.478-2.923-.514-5.827-.753-8.768-1.01-.956-.074-1.82.018-2.757-.129-.883-.147-1.857-.092-2.758-.11-2.316.018-4.687-.074-6.985.202-1.452.037-2.886.294-4.32.514-.827.11-1.654.203-2.463.386-1.508.35-2.997.551-4.486 1.01-.772.24-1.562.423-2.334.644-5.423 1.727-10.625 3.913-15.496 6.889a61.204 61.204 0 0 0-15 12.934c-3.806 4.593-7.078 9.737-9.394 15.248-.257.551-.349 1.14-.79 1.562-.074-.717.092-1.397.165-2.113.092-.992.22-1.966.386-2.958.368-2.02.625-4.06 1.066-6.08.295-1.287.442-2.591.79-3.859.405-1.451.663-2.921 1.085-4.372.644-2.61 1.471-5.181 2.261-7.735.828-2.37 1.618-4.813 2.592-7.128a108.639 108.639 0 0 1 4.375-9.94c.423-.936 1.03-1.8 1.342-2.773-.717.257-1.195.753-1.801 1.176-2.408 1.763-4.633 3.876-6.857 5.842-.956.955-1.912 1.874-2.867 2.829-1.967 1.837-3.806 3.785-5.699 5.695-1.562 1.635-3.162 3.234-4.614 4.942-.11.019-.239.037-.35.055.24-.992.313-2.002.405-3.013.331-2.223.736-4.446 1.011-6.669.202-1.726.662-3.398.846-5.125.257-1.91.698-3.803.992-5.695-.183-.68-.735-1.286-1.102-1.874-1.434-2.278-2.997-4.483-4.467-6.761-3.658-5.291-7.372-10.582-11.36-15.653-2.28-2.92-4.615-5.75-7.335-8.285-2.868-2.774-6.011-5.31-9.155-7.753-.992-.79-2.058-1.47-3.033-2.278-3.787-2.646-7.592-5.291-11.562-7.624.588-.386 1.231-.699 1.838-1.048 12.518-6.797 24.963-13.631 37.592-20.3 1.379-.79 2.868-1.415 4.191-2.278-1.397-2.407-2.537-4.997-3.254-7.68-.533-1.653-.643-3.325-.974-5.015-.404-2.554-1.195-4.887-2.04-7.312.57.055 1.121.165 1.672.35.864.293 1.747.532 2.61.844 6.6 2.37 12.52 5.99 18.457 9.645.312.184.625.404.974.496.717-.092 1.379-.57 2.04-.845 2.133-.9 4.228-1.819 6.434-2.553 2.813-.827 5.662-1.507 8.493-2.223 1.544-.441 3.106-.717 4.687-1.03 1.839-.312 3.622-.752 5.46-.973 1.305-.202 2.573-.478 3.897-.625 2.537-.349 5.073-.496 7.61-.771 2.133-.055 4.265-.22 6.397-.202-.257-1.01-.717-1.948-.974-2.976-.257-1.03-.202-2.095-.184-3.068z" fill="#01275E"/><path d="M110.129 33.072a213 213 0 0 1 9.08.019c1.508.147 2.997.128 4.504.275.993.037 1.967.037 2.941.202 3.034.257 6.011.533 8.953 1.323 2.573.496 5.11 1.396 7.536 2.37 3.824 1.543 7.335 3.638 10.662 6.044 1.618 1.158 3.18 2.48 4.743 3.711 1.323 1.103 2.702 2.113 4.228 2.921.312.166.588.35.845.588-.496.019-.992.019-1.507.019-1.765.036-3.603-.478-5.33-.79-.938-.166-1.82-.441-2.74-.643-1.47-.331-2.886-.882-4.357-1.305-1.066-.312-2.077-.753-3.143-1.029.496.368 1.048.643 1.6.9 4.54 2.224 9.448 4.208 14.411 5.181.882.258 1.783.24 2.684.331 2.022.202 4.118.019 6.048-.588.625-.147 1.25-.845 1.875-.349 1.213.753 2.518 1.892 2.96 3.289a29.178 29.178 0 0 1-8.677 1.763c-1.765.019-3.585.092-5.331-.147-3.585-.294-6.912-1.23-10.313-2.333-1.69-.643-3.382-1.304-5.018-2.094-.9-.441-1.618-1.047-2.463-1.58-2.28-1.47-4.78-2.572-7.427-3.178-1.397-.331-2.922-.294-4.356-.22-2.206.22-4.081 1.193-5.864 2.46 2.077-.017 4.43-.164 6.452.387-.882-.037-1.82-.35-2.684-.202l-.129.092c1.692.312 3.493.973 4.67 2.26.882.991.956 2.204 1.36 3.435.588 1.819 1.36 3.637 2.573 5.144 1.214 1.543 2.905 2.7 4.743 3.325 1.36.46 2.61.276 4.007.386-.9.22-1.746.128-2.665.128 3.051.57 6.14 1.103 9.246 1.47 1.416.074 2.831.055 4.247.202a6.108 6.108 0 0 0-.81.11c.552.809 1.232 1.489 1.766 2.315 1.452 1.966 2.37 4.336 2.665 6.761a2.599 2.599 0 0 1-.625-.349 49.517 49.517 0 0 0-12.886-7.514c-3.29-1.25-6.691-2.131-10.184-2.425-3.456-.257-6.967-.184-10.423.055-4.375.478-8.805 1.323-12.96 2.756-8.62 2.829-16.378 7.955-22.518 14.624-9.981 10.857-18.272 23.442-25.46 36.284-.275.514-.624.973-.918 1.47a.464.464 0 0 0-.019.44c-.092.037-.183.092-.275.129.661-2.976 1.617-5.916 2.702-8.763 2.463-6.78 5.809-13.283 9.78-19.309a104.954 104.954 0 0 1 9.576-12.474c2.078-2.407 4.32-4.612 6.581-6.835.993-.973 2.04-1.873 3.052-2.829 4.871-4.28 10-8.249 15.533-11.666.606-.349 1.25-.68 1.82-1.084-.772.092-1.47.386-2.188.698-4.76 1.966-9.301 4.85-13.474 7.863-2.5 1.82-4.945 3.73-7.298 5.75-.882.699-1.673 1.526-2.555 2.224-2.298 2.002-4.467 4.115-6.6 6.264-2.738 2.683-5.33 5.604-7.83 8.525-2.39 2.847-4.67 5.787-6.765 8.855-.735 1.102-1.526 2.186-2.169 3.362-2.5 3.987-4.614 8.157-5.92 12.695-.587-.515-.9-1.12-1.378-1.727-5.147-6.981-10.386-13.944-16.066-20.521-4.816-5.622-10.22-10.527-15.809-15.359a1059.854 1059.854 0 0 0 23.548-13.32c2.665-1.58 5.368-3.14 7.978-4.813 1.71.698 3.42 1.36 5.257 1.635-.937 1.048-2.445 1.635-3.695 2.242-.716.386-1.525.496-2.224.882 1.232.312 2.463.275 3.695.44.79.092 1.6.074 2.39.074 1.562 0 3.106.055 4.65-.165 2.61-.074 5.11-.552 7.703-.882 2.04-.386 4.062-.827 6.103-1.268 3.29-.863 6.654-1.708 9.89-2.792.459-.147.918-.166 1.286-.478-.974.037-1.82.312-2.794.496-3.18.68-6.47.937-9.724.882-1.728.018-3.438 0-5.147-.184-2.427-.147-4.927-.735-7.317-1.304-2.077-.625-4.08-1.084-6.029-2.058-.588-.294-1.36-.46-1.783-.955a19.81 19.81 0 0 0 3.897-.46c.257-.055.496-.165.735-.275-2.922-1.433-5.33-3.674-7.132-6.357a26.01 26.01 0 0 1-3.18-6.926c.79.515 1.58.515 2.481.809 2.261.716 4.43 1.8 6.563 2.829 1.673.771 3.162 1.672 4.945 2.204 3.584 1.084 7.481 1.397 11.213 1.36 4.118.037 8.272-.367 12.353-.937.625-.092 1.195-.055 1.728-.478.772.11 1.526.129 2.316.11a1.464 1.464 0 0 0-.312-.275 70.491 70.491 0 0 1-6.122-1.451c-1.69-.405-3.4-.827-5.055-1.341 3.732-1.397 7.629-2.407 11.507-3.362 2.243-.515 4.504-.993 6.784-1.36 2.205-.349 4.375-.716 6.599-.827 2.665-.294 5.404-.147 8.088-.147 7.335.276 14.559 1.415 21.654 3.234 4.081 1.065 8.162 2.278 12.06 3.913.385.147.79.275 1.194.404-.717-.533-1.507-.919-2.334-1.286-7.666-3.693-15.901-6.173-24.302-7.496-1.948-.238-3.768-.643-5.698-.698-4.375-.404-8.677-.349-13.052-.165-9.154.57-18.162 2.168-26.856 5.07-.607.203-1.214.423-1.82.607.073.128.147.257.22.367-1.305-.386-2.592-.882-3.878-1.323a5.01 5.01 0 0 1-.993-.496c1.323-.68 2.684-1.267 4.118-1.708 1.801-.57 3.566-1.213 5.386-1.745.956-.313 1.967-.478 2.922-.809 1.195-.386 2.445-.55 3.659-.918 1.727-.368 3.437-.698 5.165-1.066 1.36-.312 2.739-.404 4.118-.625 1.58-.257 3.161-.367 4.742-.57 1.894-.11 3.842-.183 5.79-.33z" fill="#C3C3C7"/><path d="M53.952 36.03c1.655.551 3.236 1.341 4.798 2.113 3.732 1.892 6.967 4.409 10.754 6.173 1.746.881 3.584 1.286 5.514 1.616 1.692.331 3.364.46 5.074.662 2.004.165 3.989.367 5.993.44 1.562.24 3.143.11 4.724.276 1.14.092 2.28.019 3.4.129-.533.422-1.084.367-1.727.477-4.063.552-8.236.956-12.353.937-3.732.037-7.629-.294-11.214-1.36-1.783-.532-3.272-1.432-4.944-2.204-2.133-1.028-4.302-2.094-6.563-2.829-.9-.294-1.691-.312-2.482-.808-.312-1.194-.643-2.37-.827-3.601-.128-.698-.202-1.341-.147-2.02zm53.585.643c4.375-.184 8.676-.22 13.051.165 1.93.037 3.75.441 5.699.699 8.4 1.322 16.636 3.802 24.301 7.495.827.368 1.618.735 2.335 1.286-.405-.128-.79-.257-1.195-.404-3.897-1.617-7.978-2.83-12.059-3.913-7.095-1.819-14.32-2.958-21.654-3.234-2.684 0-5.423-.147-8.089.147-2.242.11-4.411.46-6.599.827-2.28.35-4.522.845-6.783 1.36-3.879.937-7.776 1.947-11.507 3.362-2.004-.515-3.99-1.14-5.975-1.746a1.502 1.502 0 0 1-.22-.367c.625-.184 1.213-.404 1.82-.606 8.713-2.903 17.72-4.501 26.875-5.07zm22.904 13.705c.864-.165 1.802.166 2.684.202 1.434.331 2.886 1.048 3.897 2.131.827.882 1.158 2.076 1.563 3.197.57 1.727 1.544 3.417 2.904 4.648 1.654 1.58 4.044 2.388 6.323 2.278 1.067-.018 2.04-.46 2.85-1.139.386-.33.625-.79 1.01-1.12.368.073.754.165 1.067.367-.037.46-.386.919-.643 1.286-1.048 1.433-2.63 2.554-4.412 2.792-1.416-.091-2.647.092-4.008-.385-1.838-.643-3.547-1.8-4.742-3.326-1.213-1.506-1.985-3.325-2.574-5.144-.404-1.23-.46-2.443-1.36-3.435-1.176-1.305-2.978-1.966-4.67-2.26l.111-.092z" fill="#FFF"/><path d="M48.621 56.018a6.59 6.59 0 0 1 4.761.552c-.57.477-1.194.863-1.838 1.23-6.287 3.767-12.702 7.33-19.191 10.766-2.978 1.562-5.974 3.142-8.989 4.611-.257.13-.46.313-.643.515a250.912 250.912 0 0 1-2.298-1.819c-.147-.147-.294-.184-.276-.422 1.213-.607 2.39-1.286 3.566-1.966 4.688-2.554 9.338-5.255 13.99-7.9 2.775-1.635 5.606-3.197 8.382-4.85.698-.441 1.69-.478 2.536-.717z" fill="#C3C3C7"/><path d="M53.382 56.588c1.728.588 3.29 1.672 4.964 2.407-2.63 1.653-5.313 3.215-7.978 4.813a1138.966 1138.966 0 0 1-23.548 13.32c-1.342-1.158-2.74-2.279-4.118-3.418.202-.202.386-.386.644-.514 3.033-1.47 6.01-3.05 8.989-4.611a409.34 409.34 0 0 0 19.19-10.766c.663-.368 1.288-.753 1.857-1.231zm94.743 2.186c.515.147.993.404 1.489.57-.35.734-1.066 1.102-1.783 1.414-.699.294-1.544.202-2.28.184.405-.496 1.03-.533 1.563-.937.496-.294.735-.735 1.011-1.23z" fill="#FFF"/><path d="M153.695 61.254c.827.055 1.562.35 2.371.478 1.71.294 3.42.514 5.147.533 1.47.165 2.941.128 4.412.11.607-.037 1.213-.129 1.82-.129 2.095-.018 4.21-.349 6.287-.661.698-.165 1.305.018 2.003.11 2.372.313 4.725 1.194 6.636 2.646a10.364 10.364 0 0 1 3.677 4.978c.165.46.35.956.35 1.433-.166.22-.534.276-.773.35-1.36.293-2.794.349-4.191.312-2.114-.074-4.21-.294-6.269-.79-1.948-.441-4.007-.735-5.716-1.819-1.784-1.139-3.695-1.929-5.589-2.866-2.353-.992-4.78-1.764-7.114-2.81-1.066-.497-2.187-1.048-3.051-1.875z" fill="#C3C3C7"/><path d="M174.835 62.908c.992.036 1.82.404 2.757.698 1.121.367 2.316.827 3.29 1.488 1.232.919 2.114 2.223 2.942 3.49.22.35.386.717.533 1.084-.497-.349-.901-.79-1.324-1.212a33.227 33.227 0 0 0-6.673-4.722c-.533-.257-1.048-.477-1.525-.826zm-46.839 2.866c3.456-.24 6.949-.313 10.423-.055 3.511.294 6.912 1.175 10.184 2.425a48.714 48.714 0 0 1 12.886 7.514c.202.147.404.238.625.349-.294-2.425-1.213-4.795-2.665-6.761-.534-.827-1.214-1.507-1.765-2.315l.809-.11c2.353.128 4.724.496 6.985 1.157 1.47.368 2.941.809 4.338 1.378a22.5 22.5 0 0 1 4.522 3.38c1.857 1.838 3.475 4.244 3.842 6.872.147 1.561.147 3.27-.717 4.63-.68.293-1.323.679-1.967 1.01-2.095.992-4.393 1.524-6.728 1.267-1.764-.202-3.492-.826-5-1.745a102.097 102.097 0 0 1-10.33-7.128c-1.214-.937-2.28-2.04-3.548-2.885-2.519-1.745-5.497-2.884-8.53-3.178-1.525-.11-3.161-.055-4.632.368-1.416.22-2.83.532-4.173 1.047-.257.092-.46.257-.643.422.46.037.919.019 1.378-.036a13.687 13.687 0 0 1 3.677.018c1.342.092 2.684.44 3.897 1.029.79.404 1.618.9 2.04 1.708-1.856-.275-3.694-.68-5.57-.826-1.47-.056-2.94-.074-4.411 0-3.934.33-7.666 1.708-11.048 3.747-1.71 1.048-3.382 2.223-4.853 3.601-2.463 2.278-4.301 5.254-5.33 8.451-.57 2.095-1.049 4.152-.938 6.338a16.4 16.4 0 0 0 1.342 7.257c.9 2.003 2.187 3.693 3.676 5.31a29.442 29.442 0 0 0 7.647 5.235c3.107 1.617 6.526 2.738 9.89 3.693 2.923.753 5.827 1.488 8.823 1.91 2.261.423 4.54.717 6.82.938 4.008.55 8.088.661 12.114.863 1.949.037 3.897 0 5.846.019a20.495 20.495 0 0 1-.313 1.8 5.512 5.512 0 0 1-.239.588c-.845.11-1.673.294-2.536.349-1.784.073-3.548-.037-5.331-.147-2.151-.018-4.302-.184-6.453-.33-12.04-1.066-23.731-4.263-35.643-5.328-1.232-.11-2.463-.13-3.695-.11-3.695-.074-7.445.532-11.01 1.469-5.681 1.525-11.159 3.987-15.993 7.349-1.508 1.047-2.831 2.296-4.136 3.582-2.28 2.315-4.394 4.832-6.398 7.385-.661.827-1.286 1.672-1.801 2.61-.46.514-.827 1.065-1.397 1.469.386-1.01.772-2.02 1.103-3.05.606-1.818 1.379-3.527 2.059-5.327.827-2.058 1.82-4.042 2.739-6.063.661-1.286 1.36-2.554 2.022-3.84 3.603-6.448 7.978-12.786 13.309-17.93.46-.441.937-.827 1.341-1.342-3.419.405-6.838 2.076-9.89 3.638-.974.478-1.93 1.01-2.867 1.562-5.441 3.104-10.607 6.632-15.662 10.343-.055-.166-.055-.313.019-.441.294-.496.643-.955.919-1.47 7.187-12.842 15.496-25.426 25.46-36.284 6.12-6.687 13.896-11.794 22.518-14.624 4.154-1.433 8.584-2.278 12.96-2.755z" fill="#FFF"/><path d="M141.36 71.58c3.052.293 6.03 1.432 8.53 3.177 1.268.846 2.334 1.948 3.548 2.885 3.29 2.59 6.746 4.96 10.33 7.128 1.508.919 3.236 1.543 5 1.745 2.335.24 4.614-.275 6.728-1.267.662-.331 1.287-.717 1.967-1.01-.44 1.212-1.25 2.13-2.132 3.049-1.177 1.139-2.61 2.113-4.191 2.609-1.048.349-2.243.294-3.327.294-1.637-.019-3.199-.643-4.651-1.342-1.967-.992-3.769-2.314-5.405-3.784-2.058-1.782-3.878-3.877-5.551-6.026-1.783-2.205-3.97-4.17-6.526-5.438-2.794-1.433-5.882-1.837-8.989-1.653 1.508-.423 3.144-.478 4.67-.368z" fill="#C3C3C7"/><path d="M187.886 72.755c.294.147.46.404.662.661.882 1.305 1.728 2.7 2.28 4.17.55 1.636 1.029 3.29.606 5.016-.699 1.231-2.335 1.93-3.658 2.223-2.335.496-4.577-.294-6.71-1.139-.35-.165-.404-.22-.404-.625.22-1.028.11-1.965.57-2.94.845-1.763 1.875-3.435 3.217-4.868.863-1.083 2.077-2.057 3.437-2.498z" fill="#FFF"/><path d="M191.415 82.602c-.44 2.168-2.297 4.189-4.522 4.52-1.433.293-3.033-.11-4.411-.497-.864-.312-1.802-.624-2.537-1.157.22-.808.588-1.543.68-2.407 0 .405.055.46.404.625 2.133.845 4.394 1.635 6.71 1.14 1.342-.295 2.978-.993 3.676-2.224zm-69.687 1.838c1.287-.166 2.555.55 3.346 1.506.882 1.102 1.158 2.388 1.268 3.766a19.84 19.84 0 0 1-.643 6.154c-.24 1.433-.81 2.738-1.195 4.134.422-.294.753-.68 1.066-1.084 1.636-1.947 3.254-4.207 4.026-6.65.275-.846.496-1.672.46-2.572-.02-.772-.46-1.507-.607-2.297.827-.349 1.617-.698 2.536-.735 2.133-.055 4.394 1.323 4.816 3.51.258 1.506.019 3.14-.477 4.592-.68 2.186-2.151 4.207-3.695 5.86-1.066 1.176-2.335 2.095-3.29 3.326-1.49 1.874-2.096 4.39-1.38 6.706.515 1.322 1.6 2.461 2.703 3.343a17.609 17.609 0 0 0 4.283 2.517c.772.294 1.562.46 2.316.808-.055.056-.092.129-.147.184-.809-.239-1.618-.33-2.427-.588-3.088-.955-6.047-2.425-8.878-3.968-1.802-1.047-3.824-2.058-5.35-3.472-2.297-2.095-3.841-4.96-4.374-8.029-.405-2.406-.35-4.868.036-7.256.405-1.654.846-3.4 1.655-4.906.772-1.47 1.673-2.94 2.904-4.078.331-.257.662-.606 1.048-.772z" fill="#C3C3C7"/><path d="M157.5 88.94c.276-.018.478.331.68.496.993 1.103 2.188 1.856 3.346 2.738.128.661-.258 1.322-.533 1.91-1.067 1.93-2.519 3.417-4.1 4.887-.68.588-1.323 1.213-2.095 1.709.625-1.194 1.195-2.389 1.58-3.675.442-1.69.828-3.362.975-5.107.129-.974.037-1.966.147-2.958zm25.46 1.194c1.14.22 2.297.496 3.455.717-.11.46-.312.863-.57 1.25-1.305 2.002-2.94 3.618-4.705 5.217a7.984 7.984 0 0 1-1.324 1.029c.478-.974 1.03-1.911 1.416-2.94.753-1.727 1.158-3.49 1.728-5.273zm-28.677 22.286c-.037 1.873-.515 3.784-1.268 5.492-.22.478-.405 1.121-.81 1.488-1.047.056-2.095-.036-3.143-.165-1.102-.11-2.224-.22-3.327-.404.625-.515 1.324-.79 2.004-1.213a29.3 29.3 0 0 0 4.632-3.472c.699-.57 1.195-1.268 1.912-1.727zm13.272 1.138c-.423 2.113-1.066 4.134-2.187 6.008-.129.165-.276.44-.497.44-1.103.166-2.371 0-3.474-.054-.717-.037-1.36.091-2.004-.147 2.445-1.305 4.945-2.811 6.875-4.832.46-.46.81-.974 1.287-1.415z" fill="#FFF"/><path d="M112.684 119.492c1.231 0 2.463 0 3.695.11 11.893 1.066 23.584 4.263 35.643 5.328 2.15.147 4.302.294 6.452.331 1.783.11 3.548.239 5.331.147.864-.055 1.691-.239 2.537-.35.073-.201.165-.403.239-.587-.129.735-.11 1.562-.35 2.26-.073.257-.404.294-.624.349-2.04.367-4.081.367-6.085.44-1.158.166-2.28-.073-3.437-.054-1.857 0-3.732-.092-5.57-.331-3.07-.184-6.158-.662-9.191-1.029-2.831-.44-5.662-.827-8.493-1.36-2.427-.238-4.835-.716-7.261-1.028-2.96-.33-5.882-.662-8.86-.68a6.245 6.245 0 0 1 1.158-.147h-7.482c.294.055.588.074.864.165a25.14 25.14 0 0 0-4.982.46c-1.084.11-2.114.44-3.161.716-10 2.903-19.026 8.23-26.839 15.065-1.01.827-1.856 1.819-2.922 2.609.496-.937 1.14-1.782 1.801-2.61 2.004-2.553 4.118-5.07 6.397-7.385 1.305-1.286 2.61-2.535 4.136-3.582 4.835-3.362 10.313-5.805 15.993-7.349 3.566-.955 7.316-1.561 11.01-1.488z" fill="#C3C3C7"/><path d="M80.772 165.127c.46-.018 1.011-.092 1.434.074.33.643.478 1.378.698 2.076.442 1.488.975 2.958 1.397 4.464.24.018.203-.275.295-.422a658.005 658.005 0 0 0 1.746-5.622c.073-.184.147-.368.239-.515.46-.091.974-.036 1.434.019-.037 2.81-.019 5.64-.019 8.45a3.71 3.71 0 0 0-.772.093c-.128-2.278-.037-4.593-.037-6.871-.514.661-.661 1.635-.955 2.425-.405 1.47-.956 2.902-1.36 4.372-.35.019-.662.129-.975-.055-.368-.79-.515-1.69-.809-2.517-.423-1.194-.717-2.425-1.158-3.62-.312.387-.22.79-.239 1.269.019 1.635-.018 3.288.019 4.923-.331.019-.662.019-.993.019.037-2.866-.018-5.732.055-8.562zm-7.334.019c2.022-.037 4.062-.037 6.084 0 0 .33-.018.624-.092.937-.845-.055-1.71-.074-2.537.036.019 2.536.037 5.071-.018 7.606l-.92-.055c-.017-2.517.038-5.052-.036-7.569-.809-.073-1.6-.073-2.408-.018a8.005 8.005 0 0 1-.073-.937z" fill="#01275E"/></g></svg>