<svg width="200" height="200" xmlns="http://www.w3.org/2000/svg"><g fill-rule="nonzero" fill="none"><path d="M98.696 178.264c-43.867-58.448-65.797-73.808-65.797-73.808 2.318-6.953 7.498-11.14 7.498-11.14l-11.372-2.519C34.012 79.58 47.798 56.96 47.798 56.96L31.91 43.884l14.93-28.07S68.056 6.47 98.696 6.47c30.638 0 50.835 9.476 50.835 9.476l13.7 29.547-13.64 11.467s13.785 22.62 18.771 33.837l-10.706 3.532s4.518 3.174 6.831 10.127c0 0-21.928 15.36-65.791 73.808Zm67.345-81.64c1.757-.582 8.868-2.928 8.868-2.928l-2.16-4.849c-2.865-6.452-8.423-16.336-12.804-23.864a682.802 682.802 0 0 0-4.316-7.313c1.783-1.809 11.686-11.975 11.686-11.975l-14.095-31.37S131.588 3.589 98.775 3.589c-32.817 0-55.543 10.588-55.543 10.588l-14.894 29.63S38.708 54.57 41.76 57.67a719.978 719.978 0 0 0-4.242 7.185c-4.394 7.544-10 17.504-12.881 23.992l-2.386 5.37s7.775 1.724 9.328 2.064c-1.218 1.877-2.389 4.113-3.236 6.66l-1.123 3.377 2.913 2.065c.218.155 22.078 15.95 64.72 72.765l3.843 5.12 3.84-5.12c42.642-56.816 64.504-72.61 64.719-72.765l2.904-2.06-1.113-3.382a28.207 28.207 0 0 0-3.005-6.317Z" fill="#FFF"/><path d="m93.365 109.992 1.376 2.876-7.8-17.688-.561 3.192s-8.218-6.255-22.554 5.684c2.754-2.184 19.1-13.925 29.54 5.936M111.245 98.31l-.565-3.193-7.722 17.751 1.318-2.802c10.272-19.929 26.54-8.425 29.523-6.07-14.338-11.94-22.554-5.686-22.554-5.686M113.444 91.263l-1.486 2.221s1.025-1.13 4.62-1.439c5.387-.462 5.444-8.835 5.444-8.835-3.77-.324-4.623 2.158-4.623 2.158l-.39.581c.311.5.49 1.093.483 1.733-.017 1.447-1.4 3.702-4.048 3.58M80.299 85.368s-.852-2.482-4.624-2.158c0 0 .058 8.373 5.447 8.835 3.593.309 4.621 1.44 4.621 1.44l-1.49-2.222c-2.645.121-4.03-2.134-4.045-3.581a3.224 3.224 0 0 1 .483-1.733l-.392-.581M130.397 68.531l4.48-9.67c-3.876 2.885-8.487 6.801-13.798 12.115l9.318-2.445M76.622 70.976C64.747 62.418 57.1 60.777 57.1 60.777c2.495 3.622 3.87 6.54 3.87 6.54 8.742 1.422 15.652 3.659 15.652 3.659M113.469 61.358s-2.875 5.638-3.325 11.252c0 0 7.823-19.875 37.84-25.737 0 0-19.68 1.945-31.192 11.42 0 0-8.977-6.828-26.522-2.388 0 0 18.526.145 23.199 5.453M109.25 81.744c-2.254 2.17-3.29 3.933-3.29 3.933l-.23.308c-.445-4.72 1.78-12.377 1.78-12.377-5.989 7.551-6.507 17.182-6.507 17.182s6.45 2.39 11.194-7.288c3.7-5.876 12.274-9.2 12.274-9.2-7.35 1.13-12.299 4.62-15.222 7.442M96.698 90.79s-.52-9.63-6.506-17.182c0 0 2.223 7.657 1.777 12.377l-.227-.308s-1.038-1.765-3.292-3.935c-2.926-2.819-7.89-6.31-15.219-7.438.108.043 8.597 3.36 12.274 9.198 4.742 9.678 11.193 7.288 11.193 7.288M88.389 70.254s-2.099-8.709-7.447-15.81c-.81.178-1.689.363-2.679.545l4.477 5.596s-11.588-9.72-32.578-12.239c0 0 25.307 5.011 38.227 21.908M60.466 83c-5.838-.01-14.94 2.367-18.306 5.855 0 0 14.165-5.073 20.414-3.08C61.943 84.443 60.466 83 60.466 83M155.54 88.855c-3.366-3.488-12.466-5.864-18.304-5.855 0 0-1.48 1.442-2.108 2.776 6.248-1.994 20.413 3.08 20.413 3.08M41.599 100.892s10.772-4.718 19.285-4.718l-4.106-2.83c-3.485.46-8.466 2.562-15.18 7.548M136.814 96.174c8.514 0 19.286 4.718 19.286 4.718-6.713-4.986-11.694-7.087-15.18-7.549l-4.106 2.831M89.668 137.375a10.244 10.244 0 0 1-2.883-1.935c.11 7.607 2.786 13.084 2.786 13.084-.34-5.156.028-8.944.36-11.03-.092-.04.037.015-.263-.119M92.348 155.488c.68.442 1.38.775 2.079 1.014-.83-2.34-2.549-8.473-2.549-8.473.009 3.117.247 5.723.47 7.459M96.706 157.19l1.659.062-1.964-4.955zM100.801 157.19l.306-4.893-1.964 4.955zM105.158 155.488c.222-1.733.466-4.34.476-7.46 0 0-1.722 6.134-2.555 8.474.7-.24 1.398-.568 2.08-1.014M93.166 138.364l2.161 6.537.186-6.095c.047.01-.205-.025-.398-.05a15.261 15.261 0 0 1-1.95-.392M107.075 137.741c-.665.227-1.273.422-1.641.509.918 2.483 2.713 10.269 2.713 10.269 1.007-6.207.525-11.46.525-11.46s-.712.382-1.597.682M102.08 138.691c-.168.018-.304.035-.237.033l.007 6.091 2.352-6.488c-.64.164-1.348.285-2.122.364M115.295 43.467l.24-1.526-5.96-5.265-2.036-23.38c-.183-2.066 1.467-3.127 4.408-2.858 2.326.257 4.67.557 7.036.9 1.675.27 3.021.795 4.05 1.529l.719-.359c-1.272-.98-2.934-1.657-4.949-1.99-2.344-.359-4.67-.666-6.978-.916-3.444-.317-5.459 1.062-5.257 3.633 1.06 13.766 1.861 24.09 1.861 24.09l6.866 6.142" fill="#FFF"/><path fill="#FFF" d="m116.915 35.979 6.18.18-4.303-21.428-.834.772 3.678 19.298-3.737-.13-.984 1.308M84.13 41.924l3.812-31.834 9.738-.362c1.592.007 3.01.428 4.127 1.165l.98-.379c-1.336-1.044-3.115-1.622-5.1-1.633-3.356.025-10.579.44-10.579.44l-4.435 34.146 1.456-1.543"/><path fill="#FFF" d="m97.82 13.366-.991.937-.135 5.715-2.506.037-1.098 1.087 4.624-.068.106-7.708M93.5 34.494l-1.26 1.39 5.28-.02.137-10.347L96.54 26.7l-.182 7.78-2.858.013M61.482 43.467l.861-1.405-3.908-4.544 6.963-20.6c.821-2.43 3.067-4.022 6.645-4.737 2.432-.44 4.833-.83 7.202-1.173 1.44-.19 2.54-.045 3.277.379l.783-.71c-.883-.549-2.205-.72-3.891-.497-2.351.338-4.732.735-7.15 1.192-4.106.85-6.94 2.892-7.941 5.757-3.927 11.29-7.316 21.024-7.316 21.024l4.475 5.314"/><path fill="#FFF" d="m76.029 15.746-4.484 19.158-3.76.17-1.555 1.33 6.215-.238 4.802-21.453-1.218 1.033M56.686 15.85l1.44-1.068-9.54 3.005-12.916 25.68 1.802-1.081 11.978-24.31 7.236-2.226M57.021 35.794l-7.966.574-1.714 1.193 8.026-.502 1.654-1.265M139.316 23.89l-.82.707s4.265.79 6.43 1.22c2.15.448 3.782 1.02 4.998 1.71l1.524.174c-.103-.077-.207-.154-.318-.229-1.593-1.083-3.689-1.9-6.577-2.53l-5.237-1.053"/><path d="M130.516 23.916c.347 1.18 1.142 2.313 2.307 3.25.561.453 1.193.846 1.88 1.188l-.11-1.038a8.144 8.144 0 0 1-1.184-.77c-.892-.712-1.478-1.536-1.754-2.435l-2.42-7.986c-.428-1.429.406-2.748 4.211-1.833 0 0 2.78.724 5.769 1.586 3.038.876 6.874 2.087 6.874 2.087l.884-.29s-11.706-3.597-13.802-4.151c-4.257-1.043-5.564.435-4.993 2.389l2.338 8.003M145.26 29.568l-.818.793 2.39 6.019-12.507-.858 2.35 7.945.853-1.361-1.618-5.288 12.609.753-3.259-8.003" fill="#FFF"/><path d="M161.5 122.758s-18.94 12.734-62.804 71.178c-43.867-58.444-62.808-71.178-62.808-71.178l-8.668-16.44-4.969-12.1 2.386-5.37c2.882-6.489 8.487-16.449 12.881-23.993l-9.18-21.047 14.894-29.631S65.958 3.589 98.775 3.589c32.813 0 54.445 10.736 54.445 10.736l14.095 31.37-7.37 19.288c4.381 7.528 9.94 17.412 12.805 23.864l2.16 4.85-4.75 12.627-8.66 16.434Zm2.326-58.882 7.105-19.004-15.27-33.553-1.138-.65c-.877-.5-24.505-10.104-55.827-10.104-31.313 0-55.273 10.043-56.172 10.54l-1.068.593-17.078 30.449 9.12 22.664L18 93.446l14.483 31.18c.19.13 20.696 14.46 63.43 71.398l2.783 3.706 2.782-3.706c42.732-56.938 62.736-70.91 62.736-70.91l14.938-31.804-15.326-29.434Z" fill="#CCCBCC"/><path d="M121.004 111.427c2.215 1.845 2.955 6.095 2.955 6.095-11.446 11.446-9.73 20.143-12.925 31.756-2.306 8.397-8.059 9.782-12.182 9.782-4.125 0-9.58-1.385-12.187-9.782-3.574-11.505-1.48-20.31-12.925-31.756 0 0 .738-4.25 2.954-6.095 0 0-4.58-1.454-7.942-.368 0 0 3.352-15.496 10.525-9.972 4.071 3.134 2.483 9.99 4.064 18.833 1.843 10.34 1.291 16.989 15.511 16.989 14.217 0 13.66-6.65 15.507-16.99 1.58-8.842-.008-15.698 4.062-18.832 7.176-5.524 10.523 9.972 10.523 9.972-3.358-1.086-7.94.368-7.94.368Zm-26.734 9.329c.009-.066.36-.285 4.582-.285 3.914 0 4.42.188 4.456.267 3.695-11.79 11.054-18.783 11.054-18.783s-6.73 15.13-6.835 25.904c-.068 7.027-8.675 6.649-8.675 6.649s-8.236.364-8.68-6.65c-.761-12.076-5.928-25.903-5.928-25.903s6.331 7 10.026 18.8Zm46.65-27.413c8.056-5.6 14.62-4.488 14.62-4.488s-14.164-5.073-20.412-3.08c.628-1.333 2.108-2.775 2.108-2.775 4.203-4.454 11.029-7.579 11.029-7.579-15.115-4.477-23.306 6.334-23.306 6.334.948 4.495-1.885 9.9-1.885 9.9 8.191 5.923 12.036 13.435 12.036 13.435a43.404 43.404 0 0 0-1.311-1.095c-2.982-2.354-19.251-13.858-29.523 6.07l-1.318 2.803 2.479-16.455-3.357-2.797c8.957 1.399 11.755-6.439 14.554-10.917 2.802-4.479 7.837-8.398 7.837-8.398s-8.575 3.325-12.274 9.2c-4.745 9.68-11.194 7.289-11.194 7.289s.518-9.63 6.508-17.182c0 0-2.226 7.657-1.78 12.377l.23-.308s1.035-1.762 3.288-3.933c5.95-20.591 38.735-34.871 38.735-34.871-30.017 5.862-37.84 25.737-37.84 25.737.45-5.614 3.325-11.252 3.325-11.252-4.673-5.308-23.199-5.453-23.199-5.453 17.545-4.44 26.522 2.388 26.522 2.388l2.644-3.304c-7.56-1.398-8.829-2.796-20.584-2.796-10.222 0-12.525 1.056-17.91 2.251 5.348 7.101 7.447 15.81 7.447 15.81-12.92-16.897-38.227-21.908-38.227-21.908S82.52 61.231 88.45 81.742c2.254 2.17 3.292 3.935 3.292 3.935l.227.308c.446-4.72-1.777-12.377-1.777-12.377 5.986 7.551 6.506 17.182 6.506 17.182s-6.451 2.39-11.193-7.288c-3.677-5.838-12.166-9.155-12.274-9.198h-.003c.046.037 5.05 3.938 7.835 8.395 2.798 4.478 5.6 12.316 14.557 10.917l-3.361 2.797 2.482 16.455-1.376-2.876c-10.438-19.861-26.785-8.12-29.54-5.936-.135.11-.953.793-1.236 1.034 0 0 3.842-7.512 12.038-13.435 0 0-2.832-5.405-1.888-9.9 0 0-8.186-10.81-23.302-6.334 0 0 6.825 3.125 11.029 7.579 0 0 1.477 1.442 2.108 2.776-6.25-1.994-20.414 3.08-20.414 3.08s6.59-1.057 14.618 4.487l4.106 2.831c-8.513 0-19.285 4.718-19.285 4.718s7.276.28 28.546 14.554l-2.797 3.918s9.578 3.055 12.19 14.992c1.843 8.43 5.56 18.698 8.435 23.32 2.09 3.359 5.627 5.736 10.799 5.736l.08-.002.076.002c5.17 0 8.71-2.377 10.8-5.737 2.873-4.62 6.586-14.889 8.436-23.319 2.611-11.937 12.184-14.992 12.184-14.992l-2.793-3.918c21.27-14.273 28.545-14.554 28.545-14.554s-10.772-4.718-19.286-4.718l4.105-2.83Z" fill="#CCCBCC"/><path d="m134.877 58.862-4.48 9.67c1.933-.425 4.07-.848 6.333-1.216 0 0 4.966-10.57 13.214-16.467 0 0-3.087.379-9.08 3.973a71.69 71.69 0 0 0-5.987 4.04M57.1 60.777s7.647 1.641 19.522 10.199C57.718 52.07 47.756 50.849 47.756 50.849c3.918 2.8 7.09 6.652 9.344 9.928M89.932 137.495c-.333 2.085-.701 5.873-.36 11.029 0 0 1.792-7.789 2.71-10.27a14.854 14.854 0 0 1-2.35-.76M90.322 153.699a9.751 9.751 0 0 0 2.026 1.789 60.782 60.782 0 0 1-.47-7.46s-.95 2.472-1.556 5.67M95.277 156.817c.131.02 1.3.358 1.43.373l-.306-4.893-1.124 4.52M100.801 157.19c.132-.015 1.299-.353 1.431-.373l-1.125-4.52-.306 4.893M105.158 155.488a9.641 9.641 0 0 0 2.026-1.79c-.604-3.198-1.55-5.67-1.55-5.67a60.957 60.957 0 0 1-.476 7.46M95.327 144.901l2.886-5.946s-2.212-.09-2.7-.15l-.186 6.096M108.147 148.519s2.674-5.472 2.783-13.079a10.04 10.04 0 0 1-2.258 1.619s.482 5.253-.525 11.46M101.843 138.724c-.49.044-2.705.085-2.705.085l2.712 6.006-.007-6.091M125.195 15.933c1.17 4.473 5.588 21.296 5.588 21.296l-4.197 4.778-11.05-.066-.241 1.526h12.074l4.804-5.576s-5.099-18.707-5.933-21.773c-.372-1.36-1.138-2.512-2.273-3.447-.068-.057-.144-.108-.215-.163l-.719.359c.122.09.26.166.372.26a5.342 5.342 0 0 1 1.79 2.806" fill="#CCCBCC"/><path fill="#CCCBCC" d="m117.9 34.671-3.11-19.52 3.168.352.834-.772-5.137-.593 3.26 21.841.984-1.308M93.87 26.723l2.67-.022 1.117-1.184-4.821.04-.596 10.327 1.26-1.39.37-7.77"/><path d="m104.556 25.803.613 12.315S98.711 41.9 98.58 41.9l-14.45.024-1.456 1.543h16.19l7.58-4.409-.795-13.23c-.107-1.654-2.58-2.755-4.225-3.297 1.513-.914 3.74-2.488 3.653-3.951 0-.142-.088-3.774-.116-4.266-.075-1.257-.708-2.486-1.762-3.46-.13-.12-.269-.23-.41-.34l-.98.379c.26.174.52.348.746.556.857.8 1.368 1.79 1.425 2.793a.17.17 0 0 0 .004.028c.021.476.071 4.214.071 4.253.048.988-2.508 2.753-4.286 3.677l-1.32.695c.484.113.975.227 1.458.343 1.905.46 4.595 1.62 4.65 2.565M94.46 14.336l2.369-.033.99-.937-4.285.062-.444 7.714 1.098-1.087.271-5.72M72.797 16.207l3.232-.46 1.218-1.034L72 15.48l-5.77 20.924 1.554-1.331 5.013-18.867" fill="#CCCBCC"/><path d="m80.86 37.422 3.608-23.838c.166-1.1-.1-2-.76-2.607a2.68 2.68 0 0 0-.403-.3l-.783.71c.143.082.295.16.407.262.503.466.694 1.134.562 1.988-1.96 12.123-3.738 23.142-3.738 23.142L73.4 41.975l-11.058.087-.861 1.405h12.072l7.305-6.045M57.021 35.794l-1.654 1.265-1.864 5.098-16.031.229-1.802 1.08h18.622l2.73-7.672M58.127 14.782l-1.44 1.068-9.346 21.711 1.714-1.193 9.072-21.586M139.227 29.66l5.215.701.818-.793s-4.29-.641-6.405-.933c-1.602-.213-3.067-.672-4.262-1.319l.11 1.038c1.321.654 2.85 1.1 4.524 1.305M138.497 24.597l.82-.708-1.831-4.898 11.538 3.032-2.051-4.348-.884.29 1.365 2.958-11.39-3.015 2.433 6.689M151.448 27.7l-1.524-.174c.206.117.428.229.608.353.928.636 1.604 1.402 2.063 2.366.005.015 3.938 8.419 3.938 8.419l-3.705 3.637-15.3-.195-.853 1.36h17.114l4.233-4.24-4.151-8.693c-.525-1.1-1.319-2.02-2.423-2.832" fill="#CCCBCC"/><path d="M92.448 123.982c-2.57 2.097 2.032 6.831 2.032 6.831s-2.184-7.085 3.547-5.702c4.945 1.191 6.42-2.237 6.42-2.237s-9.427-.99-11.999 1.108M97.714 21.074l-4.624.068.444-7.714 4.286-.062-.106 7.708Zm-.194 14.79-5.28.02.596-10.326 4.82-.041-.136 10.347Zm2.386-12.626c-.483-.116-.974-.23-1.457-.343l1.32-.695c1.777-.924 4.333-2.69 4.285-3.677 0-.039-.05-3.777-.071-4.253 0 0-.004-.017-.004-.028-.057-1.004-.568-1.993-1.425-2.793a5.884 5.884 0 0 0-.747-.556c-1.117-.737-2.535-1.158-4.127-1.165l-9.738.362-3.813 31.834 14.45-.024c.132 0 6.59-3.782 6.59-3.782l-.613-12.315c-.055-.946-2.745-2.105-4.65-2.565ZM116.915 35.979l-3.26-21.84 5.137.592 4.302 21.428-6.18-.18Zm6.49-22.852c-.113-.094-.25-.17-.372-.26-1.029-.734-2.375-1.259-4.05-1.53a214.19 214.19 0 0 0-7.036-.9c-2.94-.268-4.591.793-4.408 2.86l2.037 23.379 5.96 5.265 11.05.066 4.197-4.778s-4.418-16.823-5.588-21.296a5.342 5.342 0 0 0-1.79-2.806ZM72.445 36.166l-6.215.239L72 15.48l5.247-.768-4.802 21.453Zm10.077-24.779c-.737-.424-1.838-.569-3.277-.379-2.37.342-4.77.734-7.202 1.173-3.578.715-5.824 2.307-6.645 4.736l-6.963 20.601 3.908 4.544 11.058-.087 6.352-5.196s1.778-11.02 3.738-23.142c.132-.854-.059-1.522-.562-1.988-.112-.103-.264-.18-.407-.262ZM49.45 18.077 37.472 42.386l16.031-.229 1.864-5.098-8.026.502 9.345-21.71-7.236 2.226M152.595 30.245c-.46-.964-1.135-1.73-2.063-2.366-.18-.124-.402-.236-.608-.353-1.216-.69-2.849-1.261-4.998-1.709-2.165-.43-6.43-1.22-6.43-1.22l-2.432-6.69 11.39 3.016-1.365-2.958s-3.836-1.21-6.874-2.087c-2.99-.862-5.769-1.586-5.769-1.586-3.805-.915-4.639.404-4.21 1.833l2.419 7.986c.276.9.862 1.723 1.754 2.436.352.28.754.536 1.184.77 1.195.646 2.66 1.105 4.262 1.318 2.116.292 6.405.933 6.405.933l3.259 8.003-12.609-.753 1.618 5.288 15.3.195 3.705-3.637s-3.933-8.404-3.938-8.42" fill="#D41042"/><path d="M41.76 57.67c-3.052-3.1-13.422-13.862-13.422-13.862l9.18 21.047a719.978 719.978 0 0 1 4.242-7.185M159.945 64.983l7.37-19.288s-9.903 10.166-11.686 11.975a682.802 682.802 0 0 1 4.316 7.313M166.041 96.624a28.207 28.207 0 0 1 3.005 6.317l1.113 3.383 4.75-12.628s-7.111 2.346-8.868 2.928M31.579 96.28c-1.553-.34-9.328-2.063-9.328-2.063l4.97 12.1 1.122-3.376c.847-2.547 2.018-4.783 3.236-6.66" fill="#231F20"/><path d="m102.536 181.148-3.84 5.12-3.844-5.12c-42.641-56.816-64.5-72.61-64.719-72.765l-2.913-2.065 8.668 16.44s18.941 12.734 62.808 71.178c43.863-58.444 62.804-71.178 62.804-71.178l8.66-16.434-2.905 2.059c-.215.155-22.077 15.95-64.72 72.765M96.54 26.701l-2.67.022-.37 7.771 2.859-.013.182-7.78M76.029 15.746l-3.232.461-5.013 18.867 3.761-.17 4.484-19.158M96.829 14.303l-2.37.033-.271 5.719 2.506-.037.135-5.715M121.636 34.801l-3.678-19.298-3.167-.351 3.108 19.52 3.737.13" fill="#231F20"/><path d="M47.756 50.85s9.962 1.22 28.866 20.126c0 0-6.91-2.237-15.653-3.66 0 0-1.374-2.917-3.87-6.539-2.252-3.276-5.425-7.127-9.343-9.928Zm.83-33.063 9.54-3.005-9.07 21.586 7.965-.574-2.729 7.673H35.67l12.916-25.68Zm23.677-6.415c2.419-.457 4.8-.854 7.15-1.192 1.687-.224 3.01-.052 3.892.497.146.092.283.189.403.3.66.608.926 1.508.76 2.607L80.86 37.422l-7.305 6.045H61.482l-4.475-5.314s3.389-9.734 7.316-21.024c1-2.865 3.835-4.906 7.94-5.757Zm25.425-2.491c1.984.01 3.763.589 5.1 1.633.141.11.28.22.41.34 1.054.974 1.687 2.203 1.762 3.46.028.492.116 4.124.116 4.266.086 1.463-2.14 3.037-3.653 3.95 1.645.543 4.118 1.644 4.225 3.298l.795 13.23-7.58 4.409h-16.19l4.435-34.145s7.223-.416 10.58-.441Zm14.137.72c2.309.251 4.634.558 6.978.917 2.015.333 3.677 1.01 4.949 1.99.071.055.147.106.215.163 1.135.935 1.901 2.087 2.273 3.447.834 3.066 5.933 21.773 5.933 21.773l-4.804 5.576h-12.074l-6.866-6.142s-.8-10.324-1.861-24.09c-.202-2.57 1.813-3.95 5.257-3.633Zm21.346 3.923c2.096.554 13.802 4.151 13.802 4.151l2.05 4.348-11.537-3.032 1.83 4.898 5.237 1.053c2.888.63 4.984 1.447 6.577 2.53.111.075.215.152.318.229 1.104.811 1.898 1.731 2.423 2.832l4.151 8.693-4.233 4.24h-17.114l-2.35-7.944 12.507.858-2.39-6.019-5.215-.702c-1.673-.205-3.203-.651-4.525-1.305a10.324 10.324 0 0 1-1.879-1.187c-1.165-.938-1.96-2.07-2.307-3.25l-2.338-8.004c-.571-1.954.736-3.432 4.993-2.39Zm3.559 53.792c-2.263.368-4.4.79-6.333 1.215l-9.318 2.445c5.31-5.314 9.922-9.23 13.798-12.114l.272-.205a71.69 71.69 0 0 1 5.714-3.835c5.994-3.594 9.081-3.973 9.081-3.973-8.248 5.896-13.214 16.467-13.214 16.467ZM117.01 85.95l.389-.581s.854-2.482 4.623-2.158c0 0-.057 8.373-5.445 8.835-3.594.309-4.62 1.44-4.62 1.44l1.487-2.222c2.649.121 4.031-2.134 4.048-3.581a3.2 3.2 0 0 0-.482-1.733Zm-32.758 5.314 1.491 2.221s-1.028-1.13-4.621-1.439c-5.389-.462-5.447-8.835-5.447-8.835 3.772-.324 4.624 2.158 4.624 2.158l.392.581c-.309.5-.489 1.093-.483 1.733.015 1.447 1.4 3.702 4.044 3.58Zm71.289-2.408s-6.565-1.111-14.622 4.488c3.487.462 8.468 2.563 15.181 7.549 0 0-7.274.28-28.545 14.554l2.793 3.918s-9.573 3.055-12.184 14.992c-1.85 8.43-5.563 18.698-8.436 23.32-2.09 3.359-5.63 5.736-10.8 5.736l-.076-.002-.08.002c-5.172 0-8.709-2.377-10.799-5.737-2.875-4.62-6.592-14.889-8.434-23.319-2.613-11.937-12.19-14.992-12.19-14.992l2.796-3.918C48.875 101.173 41.6 100.892 41.6 100.892c6.713-4.986 11.694-7.087 15.18-7.549-8.029-5.544-14.62-4.488-14.62-4.488 3.366-3.488 12.469-5.864 18.307-5.855-4.204-4.454-11.029-7.579-11.029-7.579 15.116-4.477 23.302 6.334 23.302 6.334-.944 4.495 1.888 9.9 1.888 9.9-8.196 5.923-12.038 13.435-12.038 13.435.283-.24 1.1-.924 1.237-1.034 14.336-11.939 22.554-5.684 22.554-5.684l.562-3.192 7.8 17.688-2.483-16.455 3.361-2.797c-8.957 1.399-11.759-6.439-14.557-10.917-2.785-4.457-7.789-8.358-7.835-8.395h.003c7.33 1.129 12.293 4.62 15.219 7.438-5.93-20.511-38.288-33.396-38.288-33.396 20.99 2.518 32.578 12.24 32.578 12.24l-4.477-5.597c.99-.182 1.869-.367 2.679-.545 5.385-1.195 7.688-2.25 17.91-2.25 11.755 0 13.025 1.397 20.584 2.795l-2.644 3.304c11.511-9.475 31.192-11.42 31.192-11.42s-32.786 14.28-38.735 34.87c2.923-2.822 7.873-6.31 15.222-7.442 0 0-5.035 3.92-7.837 8.398-2.8 4.478-5.597 12.316-14.554 10.917l3.357 2.797-2.48 16.455 7.723-17.751.565 3.193s8.216-6.254 22.554 5.685c.432.347.869.711 1.31 1.095 0 0-3.844-7.512-12.035-13.435 0 0 2.833-5.405 1.885-9.9 0 0 8.19-10.81 23.306-6.334 0 0-6.826 3.125-11.03 7.579 5.839-.01 14.939 2.367 18.306 5.855ZM29.025 90.797l11.372 2.52s-5.18 4.186-7.498 11.14c0 0 21.93 15.36 65.797 73.807 43.863-58.448 65.791-73.808 65.791-73.808-2.313-6.953-6.831-10.127-6.831-10.127l10.706-3.532c-4.986-11.217-18.77-33.837-18.77-33.837l13.64-11.467-13.7-29.547S129.333 6.47 98.695 6.47c-30.64 0-51.857 9.344-51.857 9.344l-14.93 28.07L47.8 56.96S34.011 79.58 29.024 90.797Z" fill="#231F20"/><path d="M108.147 148.519s-1.795-7.786-2.713-10.27c.368-.086.976-.281 1.641-.508.885-.3 1.597-.682 1.597-.682a10.04 10.04 0 0 0 2.258-1.619c-.109 7.607-2.783 13.079-2.783 13.079Zm-2.989 6.969a9.196 9.196 0 0 1-2.079 1.014c.833-2.34 2.555-8.473 2.555-8.473s.946 2.47 1.55 5.67a9.641 9.641 0 0 1-2.026 1.789Zm-4.357 1.702-1.658.062 1.964-4.955 1.125 4.52c-.132.02-1.299.358-1.431.373Zm1.042-18.466c-.067.002.07-.015.237-.033.774-.08 1.481-.2 2.122-.364l-2.352 6.488-2.712-6.006s2.215-.041 2.705-.085Zm-5.137 18.466c-.13-.015-1.298-.353-1.429-.373l1.124-4.52 1.964 4.955-1.659-.062Zm-4.358-1.702a9.751 9.751 0 0 1-2.026-1.79c.606-3.198 1.556-5.67 1.556-5.67s1.72 6.134 2.549 8.474a9.396 9.396 0 0 1-2.08-1.014Zm-5.563-20.048c.81.778 1.755 1.42 2.883 1.935.3.134.171.078.264.12.704.298 1.483.552 2.35.759-.918 2.481-2.71 10.27-2.71 10.27s-2.677-5.477-2.787-13.084Zm8.33 3.316c.193.025.445.06.398.05.488.058 2.7.149 2.7.149l-2.886 5.946-2.161-6.537c.593.163 1.242.294 1.95.392Zm23.306-37.669c-4.07 3.134-2.482 9.99-4.062 18.833-1.846 10.34-1.29 16.989-15.507 16.989-14.22 0-13.668-6.65-15.511-16.99-1.581-8.842.007-15.698-4.064-18.832-7.173-5.524-10.525 9.972-10.525 9.972 3.362-1.086 7.942.368 7.942.368-2.216 1.845-2.954 6.095-2.954 6.095 11.444 11.446 9.351 20.251 12.925 31.756 2.606 8.397 8.062 9.782 12.187 9.782 4.123 0 9.876-1.385 12.182-9.782 3.196-11.613 1.479-20.31 12.925-31.756 0 0-.74-4.25-2.955-6.095 0 0 4.582-1.454 7.94-.368 0 0-3.347-15.496-10.523-9.972Z" fill="#231F20"/><path d="M92.448 123.982c2.572-2.097 12-1.108 12-1.108s-1.476 3.428-6.42 2.237c-5.732-1.383-3.548 5.702-3.548 5.702s-4.601-4.734-2.032-6.831Zm6.404 10.526s8.607.378 8.675-6.65c.105-10.773 6.835-25.903 6.835-25.903s-7.359 6.994-11.054 18.783c-.036-.079-.542-.267-4.456-.267-4.221 0-4.573.219-4.582.285-3.695-11.801-10.026-18.8-10.026-18.8s5.167 13.826 5.928 25.903c.444 7.013 8.68 6.649 8.68 6.649ZM115.64 193.039a3.29 3.29 0 1 1 0-6.584 3.292 3.292 0 0 1 0 6.584Zm0-7.482a4.19 4.19 0 0 0 0 8.38 4.189 4.189 0 1 0 0-8.38Z" fill="#231F20"/><path d="M115.938 189.297h-1.122v-1.044h1.122a.522.522 0 1 1 0 1.044Zm1.422-.52a1.42 1.42 0 0 0-1.422-1.422l-2.019-.002v4.79h.897v-1.947h.647l.905 1.946h.992l-.946-2.029a1.42 1.42 0 0 0 .946-1.336Z" fill="#231F20"/></g></svg>