<svg width="200" height="200" xmlns="http://www.w3.org/2000/svg"><g fill="none"><path d="M98.655 179.08c-43.867-58.448-65.797-73.807-65.797-73.807 2.318-6.954 7.498-11.14 7.498-11.14l-11.372-2.52c4.987-11.217 18.774-33.836 18.774-33.836L31.868 44.7l14.93-28.07s21.217-9.345 51.857-9.345c30.638 0 50.835 9.476 50.835 9.476l13.7 29.548-13.639 11.467s13.784 22.62 18.77 33.837l-10.706 3.531s4.518 3.174 6.831 10.128c0 0-21.928 15.36-65.791 73.808zM166 97.44c1.757-.582 8.868-2.927 8.868-2.927l-2.16-4.85c-2.865-6.451-8.422-16.335-12.804-23.863a682.802 682.802 0 0 0-4.316-7.314 7199.946 7199.946 0 0 0 11.687-11.975l-14.095-31.37S131.548 4.405 98.734 4.405c-32.816 0-55.543 10.588-55.543 10.588L28.298 44.624s10.37 10.762 13.42 13.862a719.978 719.978 0 0 0-4.24 7.186c-4.395 7.543-10 17.503-12.882 23.992l-2.386 5.37s7.775 1.723 9.328 2.063c-1.218 1.877-2.389 4.113-3.236 6.66l-1.123 3.377 2.914 2.065c.218.155 22.077 15.95 64.718 72.765l3.844 5.12 3.84-5.12c42.642-56.816 64.504-72.61 64.719-72.765l2.905-2.06-1.114-3.381A28.207 28.207 0 0 0 166 97.44z" fill="#FFF"/><path d="M93.324 110.808l1.377 2.877-7.8-17.689-.562 3.192s-8.218-6.254-22.554 5.684c2.754-2.184 19.1-13.925 29.54 5.936m17.879-11.681l-.565-3.194-7.722 17.752 1.318-2.803c10.272-19.929 26.54-8.425 29.523-6.07-14.338-11.94-22.554-5.685-22.554-5.685m2.199-7.048l-1.486 2.221s1.025-1.13 4.62-1.439c5.387-.461 5.445-8.835 5.445-8.835-3.77-.324-4.624 2.158-4.624 2.158l-.39.581c.312.5.49 1.094.483 1.733-.016 1.447-1.4 3.702-4.048 3.58m-33.145-5.894s-.852-2.482-4.624-2.158c0 0 .058 8.374 5.447 8.835 3.593.31 4.622 1.44 4.622 1.44l-1.492-2.222c-2.644.121-4.028-2.134-4.044-3.581a3.224 3.224 0 0 1 .484-1.733l-.393-.58m50.098-16.837l4.48-9.67c-3.876 2.885-8.487 6.8-13.798 12.114l9.318-2.444m-53.775 2.444C64.706 63.234 57.06 61.594 57.06 61.594c2.495 3.621 3.87 6.539 3.87 6.539 8.742 1.422 15.652 3.66 15.652 3.66m36.846-9.619s-2.875 5.638-3.325 11.252c0 0 7.823-19.875 37.84-25.737 0 0-19.68 1.945-31.192 11.42 0 0-8.977-6.828-26.522-2.388 0 0 18.526.145 23.2 5.453m-4.221 20.386c-2.252 2.17-3.289 3.934-3.289 3.934l-.23.307c-.445-4.72 1.78-12.377 1.78-12.377-5.989 7.551-6.507 17.182-6.507 17.182s6.45 2.39 11.194-7.288c3.7-5.875 12.274-9.2 12.274-9.2-7.35 1.131-12.299 4.62-15.222 7.442m-12.551 9.046s-.52-9.63-6.506-17.182c0 0 2.223 7.657 1.777 12.377l-.226-.307s-1.039-1.765-3.293-3.935c-2.926-2.82-7.89-6.31-15.218-7.439.108.044 8.596 3.36 12.273 9.198 4.742 9.679 11.193 7.288 11.193 7.288M88.348 71.07s-2.099-8.709-7.447-15.81a75.83 75.83 0 0 1-2.678.545l4.476 5.596s-11.588-9.72-32.578-12.239c0 0 25.308 5.012 38.227 21.908M60.425 83.816c-5.838-.009-14.94 2.368-18.306 5.856 0 0 14.165-5.074 20.414-3.08-.631-1.334-2.108-2.776-2.108-2.776m95.075 5.856c-3.367-3.488-12.467-5.865-18.305-5.856 0 0-1.48 1.442-2.108 2.776 6.249-1.994 20.413 3.08 20.413 3.08M41.558 101.708s10.772-4.717 19.286-4.717l-4.107-2.831c-3.485.461-8.466 2.563-15.18 7.548m95.216-4.718c8.514 0 19.286 4.718 19.286 4.718-6.713-4.985-11.694-7.087-15.18-7.548l-4.106 2.83m-47.146 41.202a10.244 10.244 0 0 1-2.883-1.935c.11 7.606 2.787 13.083 2.787 13.083-.341-5.155.027-8.944.36-11.03-.092-.04.036.015-.264-.118m2.68 18.112c.68.443 1.381.775 2.08 1.014-.83-2.34-2.55-8.473-2.55-8.473.009 3.118.247 5.724.47 7.459m4.359 1.702l1.658.063-1.963-4.956zm4.094 0l.306-4.893-1.964 4.956zm4.358-1.702a61.01 61.01 0 0 0 .475-7.459s-1.722 6.133-2.555 8.473a9.213 9.213 0 0 0 2.08-1.014M93.125 139.18l2.162 6.537.185-6.095c.047.01-.205-.025-.398-.05a15.261 15.261 0 0 1-1.95-.391m13.91-.624c-.664.227-1.273.422-1.641.51.918 2.482 2.713 10.268 2.713 10.268 1.008-6.206.525-11.46.525-11.46s-.712.382-1.597.682m-4.994.951c-.169.018-.304.034-.238.032l.007 6.092 2.352-6.489c-.64.165-1.348.285-2.122.365m13.215-95.225l.24-1.525-5.959-5.266-2.036-23.379c-.184-2.067 1.467-3.128 4.407-2.86 2.326.259 4.67.559 7.036.9 1.675.272 3.022.797 4.05 1.53l.719-.358c-1.272-.98-2.933-1.658-4.949-1.99-2.344-.36-4.67-.667-6.977-.917-3.445-.317-5.46 1.063-5.258 3.633a61871.45 61871.45 0 0 0 1.861 24.09l6.866 6.142" fill="#FFF"/><path fill="#FFF" d="M116.874 36.795l6.18.18-4.302-21.428-.835.772 3.679 19.299-3.738-.13-.984 1.307M84.088 42.74l3.813-31.834 9.739-.362c1.592.007 3.01.428 4.126 1.165l.98-.378c-1.336-1.045-3.115-1.623-5.1-1.634-3.356.026-10.578.441-10.578.441l-4.436 34.145 1.456-1.542"/><path fill="#FFF" d="M97.779 14.183l-.991.936-.134 5.715-2.507.037-1.098 1.088 4.624-.068.106-7.708M93.46 35.31L92.2 36.7l5.279-.02.137-10.347-1.116 1.184-.182 7.78-2.858.013m-32.02 8.973l.863-1.405-3.91-4.543 6.964-20.602c.822-2.43 3.067-4.02 6.645-4.736a207.28 207.28 0 0 1 7.202-1.172c1.44-.19 2.54-.046 3.277.378l.783-.71c-.883-.548-2.205-.72-3.89-.497a163.27 163.27 0 0 0-7.152 1.193c-4.105.85-6.94 2.892-7.94 5.756-3.927 11.29-7.316 21.024-7.316 21.024l4.475 5.314"/><path fill="#FFF" d="M75.988 16.563L71.504 35.72l-3.76.17-1.555 1.331 6.216-.239 4.801-21.453-1.218 1.034m-19.343.104l1.44-1.069-9.54 3.006-12.916 25.68 1.802-1.082L49.41 18.893l7.235-2.226m.335 19.943l-7.965.574-1.715 1.193 8.026-.502 1.655-1.265m82.295-11.905l-.82.708s4.264.79 6.429 1.22c2.15.448 3.782 1.02 4.998 1.71l1.525.174c-.104-.076-.208-.154-.318-.229-1.594-1.083-3.69-1.9-6.578-2.53l-5.236-1.053"/><path d="M130.476 24.733c.346 1.18 1.141 2.313 2.306 3.25.561.452 1.194.846 1.88 1.187l-.11-1.038a8.144 8.144 0 0 1-1.184-.77c-.892-.711-1.477-1.535-1.754-2.435l-2.419-7.986c-.429-1.429.405-2.747 4.21-1.833 0 0 2.78.725 5.77 1.586 3.037.876 6.873 2.088 6.873 2.088l.884-.29s-11.706-3.598-13.802-4.152c-4.257-1.043-5.564.435-4.992 2.389l2.338 8.004m14.744 5.651l-.819.793 2.39 6.02-12.507-.858 2.35 7.944.854-1.361-1.619-5.288 12.609.753-3.259-8.003" fill="#FFF"/><path d="M161.46 123.574s-18.942 12.735-62.805 71.179c-43.867-58.444-62.808-71.179-62.808-71.179l-8.668-16.44-4.969-12.1 2.386-5.37c2.882-6.489 8.487-16.449 12.882-23.992l-9.18-21.048L43.19 14.993S65.918 4.405 98.734 4.405c32.814 0 54.446 10.736 54.446 10.736l14.095 31.37-7.371 19.289c4.382 7.528 9.94 17.412 12.805 23.864l2.16 4.849-4.75 12.627-8.66 16.434zm2.325-58.882l7.105-19.004-15.27-33.552-1.138-.65c-.877-.501-24.505-10.105-55.827-10.105-31.313 0-55.273 10.043-56.172 10.54l-1.068.593-17.078 30.449 9.12 22.665-15.498 28.635 14.483 31.18c.19.129 20.696 14.46 63.43 71.397l2.783 3.706 2.783-3.706c42.731-56.938 62.735-70.91 62.735-70.91l14.938-31.804-15.326-29.434z" fill="#CCCBCC"/><path d="M120.963 112.243c2.216 1.845 2.955 6.096 2.955 6.096-11.446 11.446-9.729 20.142-12.925 31.755-2.306 8.398-8.058 9.783-12.182 9.783-4.125 0-9.58-1.385-12.187-9.783-3.574-11.504-1.48-20.31-12.925-31.755 0 0 .738-4.25 2.954-6.096 0 0-4.58-1.454-7.941-.368 0 0 3.351-15.495 10.525-9.971 4.07 3.133 2.482 9.99 4.063 18.832 1.843 10.34 1.292 16.989 15.511 16.989 14.217 0 13.661-6.65 15.507-16.989 1.58-8.843-.007-15.7 4.062-18.832 7.176-5.524 10.523 9.971 10.523 9.971-3.358-1.086-7.94.368-7.94.368zm-26.734 9.329c.01-.066.36-.284 4.582-.284 3.914 0 4.42.188 4.456.266 3.696-11.789 11.054-18.782 11.054-18.782s-6.73 15.13-6.835 25.903c-.067 7.028-8.675 6.649-8.675 6.649s-8.236.364-8.68-6.65c-.761-12.075-5.927-25.902-5.927-25.902s6.33 6.999 10.025 18.8zm46.65-27.412c8.056-5.6 14.62-4.488 14.62-4.488s-14.163-5.074-20.412-3.08c.629-1.334 2.108-2.776 2.108-2.776 4.203-4.454 11.03-7.579 11.03-7.579-15.116-4.476-23.307 6.334-23.307 6.334.949 4.495-1.885 9.9-1.885 9.9 8.192 5.923 12.036 13.436 12.036 13.436a43.404 43.404 0 0 0-1.311-1.095c-2.982-2.355-19.25-13.859-29.523 6.07l-1.318 2.803 2.48-16.456-3.358-2.796c8.957 1.398 11.755-6.44 14.555-10.918 2.8-4.478 7.836-8.397 7.836-8.397s-8.575 3.325-12.274 9.2c-4.745 9.679-11.194 7.288-11.194 7.288s.518-9.63 6.508-17.182c0 0-2.226 7.657-1.78 12.377l.23-.307s1.036-1.763 3.288-3.934c5.95-20.591 38.735-34.871 38.735-34.871-30.017 5.862-37.84 25.737-37.84 25.737.45-5.614 3.325-11.252 3.325-11.252-4.673-5.308-23.199-5.453-23.199-5.453 17.545-4.44 26.522 2.388 26.522 2.388l2.644-3.304c-7.559-1.398-8.829-2.795-20.584-2.795-10.222 0-12.524 1.056-17.91 2.25 5.348 7.101 7.447 15.81 7.447 15.81-12.92-16.896-38.227-21.908-38.227-21.908S82.48 62.047 88.409 82.56c2.254 2.17 3.293 3.935 3.293 3.935l.226.307c.446-4.72-1.777-12.377-1.777-12.377 5.987 7.551 6.506 17.182 6.506 17.182s-6.451 2.39-11.193-7.288C81.787 78.48 73.3 75.164 73.191 75.12h-.004c.046.037 5.05 3.939 7.835 8.395 2.798 4.479 5.6 12.316 14.557 10.918l-3.36 2.796 2.482 16.456-1.377-2.877c-10.438-19.861-26.785-8.12-29.54-5.936-.135.11-.953.794-1.236 1.035 0 0 3.842-7.513 12.038-13.436 0 0-2.832-5.405-1.888-9.9 0 0-8.186-10.81-23.301-6.334 0 0 6.825 3.125 11.028 7.58 0 0 1.477 1.441 2.108 2.775-6.25-1.994-20.414 3.08-20.414 3.08s6.59-1.057 14.618 4.488l4.107 2.83c-8.514 0-19.286 4.718-19.286 4.718s7.276.281 28.546 14.555l-2.796 3.918s9.577 3.054 12.19 14.992c1.842 8.43 5.56 18.698 8.434 23.319 2.09 3.36 5.627 5.736 10.799 5.736l.08-.002.076.002c5.17 0 8.71-2.377 10.8-5.736 2.873-4.621 6.586-14.89 8.436-23.32 2.612-11.937 12.185-14.991 12.185-14.991l-2.794-3.918c21.271-14.274 28.545-14.555 28.545-14.555s-10.772-4.717-19.286-4.717l4.105-2.831z" fill="#CCCBCC"/><path d="M134.837 59.678l-4.48 9.67c1.932-.425 4.069-.848 6.332-1.215 0 0 4.966-10.572 13.214-16.467 0 0-3.087.378-9.08 3.973a71.69 71.69 0 0 0-5.986 4.04M57.06 61.594s7.646 1.64 19.521 10.198C57.677 52.886 47.715 51.666 47.715 51.666c3.918 2.8 7.091 6.651 9.344 9.928M89.89 138.31c-.332 2.086-.7 5.875-.36 11.03 0 0 1.794-7.789 2.711-10.27a14.854 14.854 0 0 1-2.35-.76m.39 16.205a9.751 9.751 0 0 0 2.026 1.789 60.782 60.782 0 0 1-.47-7.459s-.95 2.471-1.556 5.67m4.955 3.118c.131.02 1.3.359 1.43.373l-.305-4.893-1.125 4.52m5.524.373c.132-.014 1.3-.353 1.431-.373l-1.125-4.52-.306 4.893m4.358-1.702a9.641 9.641 0 0 0 2.025-1.789c-.603-3.199-1.55-5.67-1.55-5.67a60.957 60.957 0 0 1-.475 7.459m-9.831-10.587l2.885-5.946s-2.212-.09-2.7-.149l-.185 6.095m12.819 3.618s2.675-5.472 2.783-13.078a10.04 10.04 0 0 1-2.258 1.618s.483 5.254-.525 11.46m-6.304-9.795c-.49.044-2.705.086-2.705.086l2.712 6.006-.007-6.092m23.352-122.79c1.17 4.472 5.588 21.295 5.588 21.295l-4.196 4.778-11.051-.065-.241 1.525h12.074l4.804-5.575-5.933-21.774c-.372-1.36-1.138-2.512-2.272-3.447-.068-.056-.145-.107-.216-.162l-.718.358c.121.09.258.167.371.26a5.342 5.342 0 0 1 1.79 2.806" fill="#CCCBCC"/><path fill="#CCCBCC" d="M117.858 35.488l-3.108-19.52 3.167.351.835-.772-5.138-.592 3.26 21.84.984-1.307M93.83 27.54l2.67-.023 1.116-1.184-4.821.041L92.2 36.7l1.26-1.39.37-7.77"/><path d="M104.515 26.62l.613 12.315s-6.458 3.781-6.59 3.781l-14.45.025-1.456 1.542h16.191l7.579-4.409-.795-13.23c-.107-1.654-2.58-2.755-4.225-3.297 1.513-.914 3.74-2.488 3.653-3.95 0-.143-.088-3.775-.116-4.267-.075-1.257-.707-2.486-1.761-3.459-.13-.12-.27-.23-.411-.34l-.98.378c.26.174.52.348.746.556.857.8 1.368 1.79 1.426 2.794 0 .01.003.027.003.027.022.476.072 4.214.072 4.253.048.988-2.509 2.753-4.286 3.677l-1.32.695c.484.113.974.228 1.457.343 1.905.46 4.595 1.62 4.65 2.565M94.418 15.152l2.37-.033.991-.936-4.285.062-.445 7.714 1.098-1.088.271-5.719m-21.662 1.871l3.232-.46 1.218-1.034-5.247.768-5.77 20.924 1.554-1.331 5.013-18.867" fill="#CCCBCC"/><path d="M80.819 38.239L84.427 14.4c.166-1.1-.1-2-.76-2.606a2.68 2.68 0 0 0-.403-.3l-.783.71c.143.082.296.158.408.26.502.467.694 1.135.56 1.99-1.959 12.122-3.737 23.14-3.737 23.14l-6.351 5.197-11.058.087-.862 1.405h12.072l7.306-6.044M56.98 36.61l-1.654 1.265-1.863 5.098-16.032.23-1.802 1.08h18.623l2.729-7.673m1.105-21.012l-1.44 1.069-9.346 21.71 1.715-1.193 9.07-21.586m81.101 14.878l5.215.701.818-.793s-4.29-.64-6.404-.933c-1.602-.213-3.067-.672-4.263-1.319l.11 1.038c1.322.654 2.85 1.1 4.524 1.306m-.73-5.063l.82-.708-1.831-4.898 11.538 3.033-2.05-4.348-.885.29 1.365 2.957-11.39-3.015 2.433 6.689m12.952 3.104l-1.525-.174c.206.116.428.228.608.353.929.635 1.604 1.402 2.063 2.365.005.015 3.938 8.419 3.938 8.419l-3.705 3.637-15.3-.195-.853 1.361h17.114l4.234-4.24-4.152-8.694c-.525-1.1-1.318-2.02-2.422-2.832" fill="#CCCBCC"/><path d="M92.408 124.798c-2.57 2.098 2.031 6.832 2.031 6.832s-2.184-7.085 3.547-5.703c4.945 1.192 6.42-2.236 6.42-2.236s-9.427-.99-11.998 1.107M97.673 21.89l-4.624.069.445-7.714 4.285-.062-.106 7.708zm-.194 14.79l-5.28.02.596-10.326 4.821-.04-.137 10.346zm2.386-12.626c-.483-.115-.973-.23-1.457-.343l1.32-.695c1.777-.924 4.334-2.689 4.286-3.677 0-.039-.05-3.777-.072-4.253 0 0-.003-.016-.003-.027-.058-1.004-.569-1.994-1.426-2.794a5.884 5.884 0 0 0-.747-.556c-1.117-.737-2.534-1.158-4.126-1.165l-9.739.362-3.813 31.835 14.45-.025c.132 0 6.59-3.781 6.59-3.781l-.613-12.316c-.055-.945-2.745-2.104-4.65-2.565zm17.009 12.741l-3.26-21.84 5.138.592 4.301 21.428-6.18-.18zm6.49-22.852c-.113-.093-.25-.17-.371-.26-1.03-.733-2.376-1.258-4.05-1.53a214.19 214.19 0 0 0-7.037-.9c-2.94-.268-4.591.793-4.407 2.86l2.036 23.379 5.96 5.266 11.05.065 4.197-4.778s-4.418-16.823-5.588-21.296a5.342 5.342 0 0 0-1.79-2.806zM72.405 36.982l-6.216.24 5.77-20.925 5.247-.768-4.801 21.453zM82.48 12.203c-.737-.424-1.837-.569-3.277-.378-2.37.342-4.77.733-7.202 1.172-3.578.715-5.823 2.307-6.645 4.736l-6.963 20.602 3.909 4.543 11.058-.087 6.35-5.196 3.739-23.142c.133-.854-.059-1.522-.561-1.988-.112-.103-.265-.18-.408-.262zm-33.07 6.69l-11.98 24.31 16.032-.23 1.863-5.098-8.026.502 9.345-21.71-7.235 2.226M152.554 31.06c-.459-.962-1.134-1.73-2.063-2.364-.18-.125-.402-.237-.608-.353-1.216-.69-2.849-1.262-4.998-1.71-2.165-.43-6.43-1.22-6.43-1.22l-2.432-6.69 11.39 3.016-1.365-2.957s-3.836-1.212-6.874-2.088c-2.989-.861-5.769-1.586-5.769-1.586-3.805-.914-4.639.404-4.21 1.833l2.419 7.986c.277.9.862 1.724 1.754 2.436.352.28.754.536 1.184.77 1.196.646 2.66 1.105 4.263 1.318 2.115.292 6.404.933 6.404.933l3.259 8.003-12.609-.753 1.619 5.288 15.299.195 3.705-3.637s-3.933-8.404-3.938-8.42" fill="#D41042"/><path d="M41.719 58.486c-3.052-3.1-13.421-13.862-13.421-13.862l9.18 21.048a719.978 719.978 0 0 1 4.24-7.186M159.904 65.8l7.37-19.289s-9.903 10.166-11.686 11.975a682.802 682.802 0 0 1 4.316 7.314M166 97.44a28.207 28.207 0 0 1 3.005 6.318l1.114 3.382 4.75-12.627s-7.112 2.345-8.869 2.927m-134.462-.343c-1.553-.34-9.328-2.063-9.328-2.063l4.97 12.1 1.122-3.376c.847-2.548 2.018-4.784 3.236-6.66" fill="#231F20"/><path d="M102.495 181.964l-3.84 5.12-3.844-5.12c-42.64-56.816-64.5-72.61-64.718-72.765l-2.914-2.065 8.668 16.44s18.941 12.735 62.808 71.179c43.863-58.444 62.804-71.179 62.804-71.179l8.66-16.434-2.905 2.06c-.215.154-22.077 15.948-64.719 72.764M96.5 27.517l-2.67.022-.37 7.771 2.858-.012.182-7.78M75.988 16.563l-3.232.46-5.013 18.867 3.761-.17 4.484-19.157m20.8-1.443l-2.37.032-.271 5.72 2.507-.038.134-5.715m24.808 20.499l-3.679-19.299-3.167-.351 3.108 19.52 3.738.13" fill="#231F20"/><path d="M47.715 51.666s9.962 1.22 28.866 20.126c0 0-6.91-2.237-15.652-3.66 0 0-1.375-2.917-3.87-6.538-2.253-3.277-5.426-7.128-9.344-9.928zm.83-33.062l9.54-3.006-9.07 21.586 7.966-.574-2.73 7.673H35.63l12.916-25.68zm23.677-6.415c2.42-.458 4.8-.855 7.151-1.193 1.686-.223 3.008-.051 3.89.498.147.091.284.188.405.3.66.607.925 1.507.76 2.606-.501 3.3-3.61 23.839-3.61 23.839l-7.305 6.044H61.441l-4.475-5.314s3.389-9.734 7.316-21.024c1-2.864 3.835-4.906 7.94-5.756zm25.425-2.492c1.984.011 3.763.59 5.1 1.634.141.11.28.22.41.34 1.055.973 1.687 2.202 1.762 3.46.028.491.116 4.123.116 4.265.086 1.463-2.14 3.037-3.653 3.951 1.645.542 4.118 1.643 4.225 3.298l.795 13.23-7.579 4.408h-16.19l4.435-34.145s7.222-.415 10.579-.44zm14.138.72c2.308.251 4.633.559 6.977.917 2.016.333 3.677 1.01 4.949 1.99.071.056.148.107.216.163 1.134.935 1.9 2.088 2.272 3.447l5.933 21.774-4.804 5.575h-12.074l-6.866-6.141s-.8-10.325-1.861-24.091c-.202-2.57 1.813-3.95 5.258-3.633zm21.345 3.923c2.096.554 13.802 4.152 13.802 4.152l2.051 4.348-11.538-3.033 1.83 4.898 5.237 1.054c2.888.629 4.984 1.446 6.578 2.53.11.074.214.152.318.228 1.104.812 1.897 1.731 2.422 2.832l4.152 8.693-4.234 4.241h-17.114l-2.35-7.944 12.508.857-2.39-6.019-5.216-.701c-1.673-.206-3.202-.652-4.524-1.306a10.324 10.324 0 0 1-1.88-1.187c-1.165-.937-1.96-2.07-2.306-3.25l-2.338-8.004c-.572-1.954.735-3.432 4.992-2.39zm3.559 53.793c-2.263.367-4.4.79-6.333 1.215l-9.318 2.444c5.311-5.313 9.922-9.23 13.799-12.114l.271-.204a71.69 71.69 0 0 1 5.715-3.835c5.993-3.595 9.08-3.973 9.08-3.973-8.248 5.895-13.214 16.467-13.214 16.467zm-19.72 18.632l.39-.58s.853-2.483 4.623-2.159c0 0-.058 8.374-5.446 8.835-3.594.31-4.62 1.44-4.62 1.44l1.487-2.222c2.649.121 4.032-2.134 4.048-3.581a3.2 3.2 0 0 0-.482-1.733zM84.21 92.08l1.492 2.221s-1.03-1.13-4.622-1.439c-5.389-.461-5.447-8.835-5.447-8.835 3.772-.324 4.624 2.158 4.624 2.158l.393.581a3.22 3.22 0 0 0-.484 1.733c.016 1.447 1.4 3.702 4.044 3.58zm71.289-2.407s-6.565-1.112-14.622 4.488c3.487.461 8.468 2.563 15.181 7.548 0 0-7.274.281-28.545 14.555l2.794 3.918s-9.573 3.054-12.185 14.992c-1.85 8.43-5.563 18.698-8.436 23.319-2.09 3.36-5.63 5.736-10.8 5.736l-.076-.002-.08.002c-5.172 0-8.709-2.377-10.799-5.736-2.875-4.621-6.592-14.89-8.434-23.32-2.613-11.937-12.19-14.991-12.19-14.991l2.796-3.918c-21.27-14.274-28.546-14.555-28.546-14.555 6.713-4.985 11.694-7.087 15.18-7.548-8.029-5.545-14.62-4.488-14.62-4.488 3.367-3.488 12.469-5.865 18.307-5.856-4.203-4.454-11.028-7.579-11.028-7.579 15.115-4.476 23.301 6.334 23.301 6.334-.944 4.495 1.888 9.9 1.888 9.9-8.196 5.923-12.038 13.436-12.038 13.436a140.06 140.06 0 0 1 1.237-1.035c14.336-11.938 22.554-5.684 22.554-5.684l.562-3.192 7.8 17.689-2.483-16.456 3.361-2.796c-8.957 1.398-11.759-6.44-14.557-10.918-2.785-4.456-7.789-8.358-7.835-8.395h.004c7.329 1.129 12.292 4.62 15.218 7.439C82.48 62.047 50.12 49.162 50.12 49.162c20.99 2.519 32.578 12.24 32.578 12.24l-4.476-5.597c.99-.181 1.868-.367 2.678-.544 5.386-1.195 7.688-2.251 17.91-2.251 11.755 0 13.025 1.397 20.584 2.795l-2.644 3.304c11.512-9.475 31.192-11.42 31.192-11.42s-32.786 14.28-38.735 34.871c2.923-2.823 7.873-6.311 15.222-7.442 0 0-5.035 3.919-7.836 8.397-2.8 4.479-5.598 12.316-14.555 10.918l3.357 2.796-2.48 16.456 7.723-17.752.565 3.194s8.216-6.254 22.554 5.685c.432.346.87.71 1.311 1.095 0 0-3.844-7.513-12.036-13.436 0 0 2.834-5.405 1.885-9.9 0 0 8.19-10.81 23.306-6.334 0 0-6.826 3.125-11.03 7.58 5.839-.01 14.939 2.367 18.306 5.855zM28.984 91.614l11.372 2.518s-5.18 4.187-7.498 11.14c0 0 21.93 15.36 65.797 73.809 43.863-58.449 65.791-73.808 65.791-73.808-2.313-6.954-6.83-10.128-6.83-10.128l10.705-3.531c-4.986-11.218-18.77-33.837-18.77-33.837l13.64-11.467-13.7-29.548s-20.198-9.476-50.836-9.476c-30.64 0-51.857 9.344-51.857 9.344L31.868 44.7l15.89 13.077S33.97 80.397 28.984 91.614z" fill="#231F20"/><path d="M108.106 149.335s-1.795-7.786-2.713-10.269c.368-.087.977-.282 1.641-.509.885-.3 1.597-.682 1.597-.682a10.04 10.04 0 0 0 2.258-1.618c-.108 7.606-2.783 13.078-2.783 13.078zm-2.988 6.969a9.196 9.196 0 0 1-2.08 1.014c.833-2.34 2.555-8.473 2.555-8.473s.947 2.471 1.55 5.67a9.641 9.641 0 0 1-2.025 1.789zm-4.358 1.702l-1.658.063 1.964-4.956 1.125 4.52c-.132.02-1.299.359-1.43.373zm1.042-18.466c-.066.002.07-.014.237-.032.774-.08 1.482-.2 2.122-.365l-2.352 6.489-2.712-6.006s2.215-.042 2.705-.086zm-5.136 18.466c-.13-.014-1.299-.353-1.43-.373l1.125-4.52 1.963 4.956-1.658-.063zm-4.36-1.702a9.751 9.751 0 0 1-2.025-1.789c.606-3.199 1.556-5.67 1.556-5.67s1.72 6.133 2.55 8.473a9.396 9.396 0 0 1-2.08-1.014zm-5.562-20.047c.81.777 1.755 1.42 2.883 1.935.3.133.172.078.264.119.704.298 1.483.552 2.35.759-.917 2.481-2.71 10.27-2.71 10.27s-2.677-5.477-2.787-13.083zm8.33 3.315c.193.025.445.06.398.05.488.059 2.7.149 2.7.149l-2.885 5.946-2.162-6.536c.593.163 1.242.293 1.95.391zm23.306-37.668c-4.07 3.133-2.482 9.99-4.062 18.832-1.846 10.34-1.29 16.989-15.507 16.989-14.22 0-13.668-6.65-15.511-16.989-1.581-8.843.007-15.7-4.063-18.832-7.174-5.524-10.525 9.971-10.525 9.971 3.362-1.086 7.94.368 7.94.368-2.215 1.845-2.953 6.096-2.953 6.096 11.444 11.446 9.351 20.25 12.925 31.755 2.606 8.398 8.062 9.783 12.187 9.783 4.124 0 9.876-1.385 12.182-9.783 3.196-11.613 1.479-20.31 12.925-31.755 0 0-.74-4.25-2.955-6.096 0 0 4.582-1.454 7.94-.368 0 0-3.347-15.495-10.523-9.971z" fill="#231F20"/><path d="M92.408 124.798c2.571-2.097 11.999-1.107 11.999-1.107s-1.476 3.428-6.42 2.236c-5.732-1.382-3.548 5.703-3.548 5.703s-4.601-4.734-2.031-6.832zm6.403 10.526s8.608.379 8.675-6.65c.105-10.773 6.835-25.902 6.835-25.902s-7.358 6.993-11.054 18.782c-.036-.078-.542-.266-4.456-.266-4.221 0-4.573.218-4.582.284-3.694-11.801-10.025-18.8-10.025-18.8s5.166 13.827 5.928 25.903c.443 7.013 8.68 6.649 8.68 6.649zm16.787 58.531a3.29 3.29 0 1 1 0-6.584 3.292 3.292 0 0 1 0 6.584zm0-7.482a4.19 4.19 0 0 0 0 8.38 4.189 4.189 0 1 0 0-8.38z" fill="#231F20"/><path d="M115.897 190.114h-1.122v-1.044h1.122a.522.522 0 1 1 0 1.044zm1.422-.521a1.42 1.42 0 0 0-1.422-1.421l-2.019-.003v4.79h.897v-1.947h.647l.905 1.946h.992l-.946-2.028a1.42 1.42 0 0 0 .946-1.337z" fill="#231F20"/></g></svg>