<svg width="200" height="200" xmlns="http://www.w3.org/2000/svg"><g fill-rule="nonzero" fill="none"><path d="M144.301 103.808c17.5-.315 37.53-2.048 48.822-11.202-11.62 2.441-35.04 2.343-48.822 2.343h-.926c.007-6.953.01-13.12.003-15.212 2.857-.052 7.397-.148 7.397-.148V54.146h-42.452v25.572h7.42l.015 15.231h-2.41L81.162 54.154H45.24v25.553h7.01V94.95h-13.67c-1.617-5.327-5.722-9.152-7.791-9.152v9.152H8.892c-.627-.677-1.403-1.077-2.243-1.077-2.09 0-3.783 2.48-3.783 5.538 0 3.06 1.694 5.54 3.783 5.54.613 0 1.192-.214 1.704-.592 2.195 5.714 6.698 9.631 11.898 9.631 4.288 0 8.102-2.664 10.539-6.803v5.838c2.07 0 6.174-3.825 7.79-9.154l13.671-.007v16.52h-7.036v25.257h41.733v-25.258h-6.564l.06-16.536 1.668-.001 32.86 41.795h35.803v-25.258h-7.44c.006-2.126.018-9.012.028-16.573h.938Zm-124.05 5.585c-3.827 0-7.277-2.123-9.707-5.521h19.413c-2.43 3.398-5.88 5.52-9.706 5.52Zm10.539-10.83-1.44.739-1.44-.74-1.441.74-1.44-.74-1.44.74-1.44-.74-1.44.74-1.441-.74-1.44.74-1.44-.74-1.441.74-1.44-.74-1.44.74-1.441-.74-1.44.74-1.44-.74v.893a1.404 1.404 0 0 1-.954.376c-.796 0-1.441-.673-1.441-1.502 0-.83.645-1.502 1.441-1.502.366 0 .7.142.954.375H30.79v1.36Zm2.162-4.8V89.59c1.49 1.506 3.272 4.048 3.905 7.333-.875-1.572-2.268-2.73-3.905-3.16Zm19.3 5.692H39.256v-.045c0-.751-.058-1.489-.166-2.208h13.16v2.253Zm92.05-2.253c6.908 0 16.232.025 25.285-.257 4.207-.13 8.355-.329 12.184-.625-3.16 1.177-14.86 3.135-30.984 3.135h-7.418l.003-2.253h.93ZM79.635 94.95l-2.697-3.43.023 32.415h6.434v18.154h-34.63v-18.154h7.037V76.156h-7.01v-18.45H79.44l29.384 37.243H79.636Zm.817 4.506v-2.253h35.29v2.253h-35.29Zm59.322 24.479h7.447v18.154h-30.525L86.63 103.845l2.71-.003 12.055-.01 14.428-.014 3.5 4.437-.03-32.09h-7.417V57.699h35.347v18.413l-7.416.118c.043 4.562-.02 43.538-.031 47.705Z" fill="#000"/><path fill="#000" d="m82.583 119.337.006-2.288h.63l.002-.646h-2.023l-.002.646h.63l-.005 2.288h.762M85.162 117.971l-.592-1.568h-.75l-.506 2.934h.759l.25-1.689h.007l.669 1.689h.304l.708-1.689h.008l.21 1.689h.762l-.436-2.934h-.759l-.634 1.568"/><path d="M32.952 93.764c1.637.429 3.03 1.587 3.905 3.159-.633-3.285-2.415-5.827-3.905-7.333v4.174M6.792 96.827c-.796 0-1.441.672-1.441 1.502s.645 1.502 1.441 1.502c.366 0 .7-.142.954-.376v-.892l1.44.739 1.44-.74 1.44.74 1.44-.74 1.44.74 1.441-.74 1.44.74 1.44-.74 1.441.74 1.44-.74 1.44.74 1.44-.74 1.441.74 1.44-.74 1.44.74 1.44-.74v-1.36H7.747a1.403 1.403 0 0 0-.954-.375M74.83 85.39l.094 40.675h6.342v13.892H50.897v-13.892h7.037v-52.04h-7.01V59.836h27.483l27.703 35.113h2.714L79.44 57.705H48.792v18.45h7.011v47.779h-7.036v18.154h34.63v-18.154h-6.435l-.023-32.415 2.697 3.43h2.71l-7.515-9.56" fill="#FFF"/><path d="M147.222 57.698h-35.347v18.468h7.417l.03 32.09-3.5-4.438-14.428.013 11.715-.01 8.35 10.582-.038-40.368h-7.415V59.83h31.086v14.196s-7.199.152-7.45.021c.144.894-.004 52.019-.004 52.019h7.454v13.892h-27.359l-28.395-36.115-2.709.003 30.068 38.243h30.525v-18.154h-7.447c.012-4.167.074-43.143.03-47.705l7.417-.118V57.698" fill="#FFF"/><path fill="#FFF" d="M115.743 97.202h-35.29v2.253h35.29v-2.253M143.369 99.455h7.418c16.124 0 27.824-1.958 30.984-3.135-3.829.296-7.977.495-12.184.625-9.053.282-18.377.257-25.286.257h-.93l-.002 2.253M39.257 99.41v.045H52.25v-2.253h-13.16c.108.719.166 1.457.166 2.208"/><path d="M20.25 109.393c3.828 0 7.277-2.123 9.707-5.521H10.544c2.43 3.398 5.88 5.52 9.707 5.52" fill="#B3B5B7"/><path d="M199.745 88.907c-8.599 1.863-24.565 2.743-30.31 2.921-8.177.254-16.575.257-23.192.256.003-3.778.005-7.155.004-9.536 3.272-.066 7.393-.153 7.393-.153V51.281h-48.182v29.04L82.55 51.288H42.375v31.285h7.01v9.51l-8.821.002c-4.919-10.87-12.64-9.895-12.64-9.895v9.893H9.951c-.913-.646-2.03-1.077-3.302-1.077C2.07 91.006 0 95.862 0 99.41c0 3.55 2.204 8.404 6.783 8.404 2.774 5.216 7.58 9.041 13.468 9.041 2.84 0 5.437-.899 7.673-2.411v2.21s7.732.976 12.65-9.919l8.811-.005v10.786H42.35v30.99h47.465v-30.228l23.765 30.228h40.061v-30.99h-7.433l.018-10.882c47.071-.531 51.368-14.574 53.52-17.727Zm-48.97 31.475v25.258h-35.803l-32.86-41.795-1.667.001-.061 16.536h6.564v25.258H45.215v-25.258h7.037v-16.52l-13.671.008c-1.617 5.329-5.722 9.154-7.791 9.154v-5.838c-2.437 4.139-6.251 6.803-10.54 6.803-5.199 0-9.702-3.917-11.897-9.631-.512.378-1.091.591-1.704.591-2.09 0-3.783-2.48-3.783-5.539 0-3.059 1.694-5.538 3.783-5.538.84 0 1.616.4 2.243 1.077H30.79v-9.152c2.07 0 6.174 3.825 7.79 9.152h13.671V79.707h-7.01V54.154h35.92l32.187 40.795h2.41l-.015-15.231h-7.42V54.146h42.452V79.59s-4.54.096-7.397.148c.007 2.091.004 8.259-.003 15.212h.926c13.782 0 37.202.098 48.822-2.343-11.292 9.154-31.323 10.887-48.822 11.202l-.938.001c-.01 7.56-.022 14.447-.027 16.573h7.439Zm-63.784-1.045h-.763l-.21-1.689h-.007l-.708 1.689h-.304l-.669-1.689h-.008l-.249 1.689h-.759l.505-2.934h.751l.592 1.568.634-1.568h.76l.435 2.934Zm-5.795-2.288.002-.646h2.023l-.002.646h-.63l-.006 2.288h-.762l.006-2.288h-.631Z" fill="#B3B5B7"/><path fill="#C4122E" d="M50.923 59.836v14.19h7.011v52.039h-7.037v13.892h30.369v-13.892h-6.342l-.093-40.675 7.515 9.56h23.765L78.406 59.835H50.923"/><path d="M145.092 139.957v-13.892h-7.454s.148-51.125.005-52.019c.25.131 7.449-.02 7.449-.02V59.828h-31.086v14.206h7.415l.038 40.368-8.35-10.582-11.715.01-12.056.01 28.395 36.116h27.359" fill="#C4122E"/></g></svg>