<svg width="200" height="200" xmlns="http://www.w3.org/2000/svg"><g fill="none"><path d="M193.297 131.754l6.519-5.015-7.578-3.194-8.615-3.63a62.064 62.064 0 0 0 4.117-10.572c4.355-15.151 2.69-31.15-4.566-43.897-6.248-10.974-16.147-18.71-27.874-21.777a44.076 44.076 0 0 0-16.997-1.067 34.246 34.246 0 0 0-1.685-6.53c-2.147-5.895-6.58-12.73-12.601-14.236-.23-.058-.466-.087-.699-.131-.861-2.338-2.578-4.362-5.059-5.904-5.425-3.374-14.091-4.14-22.614-1.996-6.346 1.595-15.23 6.404-22.631 12.246l-1.426 1.2c-4.646 3.996-21.792 20.242-42.122 12.43 3.503 11.534 9.486 14.332 14.372 16.084-3.006 1.71-7.976 4-18.192 1.659 2.023 7.343 7.088 10.224 8.622 10.97-7.648 5.052-17.462 15.526-14.118 33.054-5.77 8.819-10.705 18.44-10.951 24.827l-.08 2.074 1.51 1.423 2.323 2.186c-.4 1.654-.912 3.998-1.41 6.86l-.077.035-1.599.768-.712 1.625-2.761 6.3C2.65 149.064 0 152.732 0 157.01c0 5.634 4.584 10.216 10.217 10.216.199 0 .394-.017.592-.03 1.707 1.195 3.617 2.347 5.637 3.234l2.129.935 2.05-1.095 1.132-.604c.435.29.85.56 1.166.753l2.272 1.381 2.374-1.198.042-.02c.781 2.969 2.44 5.633 4.757 7.512 2.37 1.911 5.227 2.902 8.152 2.859l6.621 2.176c5.214 1.714 10.758 2.893 16.48 3.507 12.71 1.367 26.825.028 41.955-3.973 32.535-8.605 44.998-6.288 53.245-4.13l17.252 5.208s-.117-13.23-.122-13.365v-25.284l17.346-13.34" fill="#FFF"/><path d="M161.559 145.328l7.301-.823 21.518-16.548-13.525-5.701a57.213 57.213 0 0 0 6.285-14.237c7.695-26.773-5.31-53.508-29.048-59.717-6.89-1.802-13.767-1.665-20.253.074.439-10.378-5.734-20.582-10.982-21.895-1.262-.316-2.56-.313-3.857-.033.187-.8.211-1.6.044-2.38-1.179-5.489-11.22-8.388-22.23-5.617-5.189 1.303-13.371 5.469-20.831 11.358-3.034 2.395-20.912 19.793-38.628 15.964 1.305 2.017 8.092 7.835 18.27 6.587a98.578 98.578 0 0 1-1.511 1.553C51.08 56.945 41.82 64.608 33.84 62.532c1.373 1.177 7.2 4.519 15.264 3.449-1.876 1.135-3.988 2.224-6.366 3.255-9.577 4.15-19.857 14.473-17.944 27.668 0 0 3.983-11.047 14.527-12.622-7.845 7.835-25.169 31.883-25.564 42.17l4.294 4.041s-1.38 4.627-2.458 11.841c-.729.255-1.42.53-2.053.835l-3.697 8.435a5.423 5.423 0 1 0 2.15 10.532c1.831 1.415 4.037 2.882 6.379 3.91l3.685-1.966s2.364 1.645 3.355 2.248l4.038-2.034 2.604.715a9.99 9.99 0 0 0-.103 2.862c.276 2.588 1.527 4.956 3.434 6.505 1.67 1.346 3.716 1.97 5.76 1.753a7.513 7.513 0 0 0 4.05-1.73v2.628l3.567 1.174c4.866 1.6 10.05 2.703 15.415 3.279 12.075 1.295 25.558.007 40.072-3.833 33.853-8.952 47.11-6.193 55.886-3.897l10.567 2.87.06-6.173v-22.102l-3.404-1.246a57.412 57.412 0 0 0-5.8-1.77" fill="#142C61"/><path d="M86.022 142.14a28.64 28.64 0 0 0 1.186-3.122l-42.939 7.868-1.057 2.31 42.81-7.056m65.838-10.846l6.322 1.26 22.226-3.603-11.596-4.886-58.199 10.665a30.96 30.96 0 0 1-1.449 3.598l42.697-7.034m11.463-52.964l-8.539-.512v34.188c-.01.165-.238 4.758 2.506 8.338l-16.808 3.12c2.031-3.385 1.847-7.212 1.834-7.418V80.153l-9.068 3.539 3.229-9.523 29.886-6.043-3.04 10.205zm-48.366-.286l16.81-3.118c-2.031 3.387-1.845 7.211-1.836 7.418v34.114c-.009.224-.236 4.827 2.502 8.41l-16.81 3.12c2.034-3.386 1.85-7.216 1.836-7.424.003.073.003-34.182.003-34.182.01-.165.235-4.76-2.505-8.338zm-8.171 45.228c0 17.526-12.32 24.02-18.576 26.186 5.898-8.138 6.104-18.514 6.11-19.004v-40.44c.01-.165.235-4.757-2.508-8.339l16.812-3.12c-2.033 3.388-1.846 7.217-1.836 7.42-.002-.068-.002 37.297-.002 37.297zM83.714 90.726c-.002-.062-.002 36.617-.002 43.066l-12.994 2.43-12.808-24.977v18.482c-.013.167-.236 4.757 2.506 8.341l-16.812 3.117c2.035-3.389 1.849-7.214 1.836-7.419V90.655l12.996-2.432 12.806 24.974V94.764c.014-.162.239-4.756-2.503-8.337l16.809-3.121c-2.032 3.388-1.847 7.216-1.834 7.42zm71.215-35.732c5.059 1.412 9.533 4.016 13.309 7.486l.148-.027c-4.173-4.643-9.413-8.087-15.488-9.807-13.923-3.939-28.554 2.215-38.37 14.538l1.348 1.718-2.63-.036a50.513 50.513 0 0 0-2.66 4.045l3.675-.665c9.785-14.093 25.637-21.453 40.668-17.252" fill="#FFF"/><path d="M132.691 148.622c-13.75 1.065-26.647 4.175-35.15 6.426-18.794 4.968-31.366 3.838-39.06 1.91l-8.098.912v15.402c3.81 1.252 8.561 2.427 14.346 3.047 11.446 1.23 24.296-.011 38.193-3.69 40.686-10.76 53.025-4.175 62.65-2.182v-18.476c-8.831-3.23-19.835-4.359-32.88-3.349M28.423 134.094c0-4.577 3.105-8.472 7.314-8.921a7.465 7.465 0 0 1 3.01.299v-2.5c-9.915 1.242-13.312 4.01-15.312 6.212-.922 1.942-2.889 7.147-2.889 8.97l8.212-1.491a10.089 10.089 0 0 1-.278-1.488 10.118 10.118 0 0 1-.057-1.081m10.324-37.986c-5.54 5.313-16.521 19.009-19.054 27.437l1.635 1.724a24.605 24.605 0 0 1 2.937-1.946l7.787-13.907-3.65 12a30.722 30.722 0 0 1 4.937-1.333l2.058-7.322.465 6.959a33.86 33.86 0 0 1 2.885-.183v-23.43m46.219-22.822c.605-.39 1.226-.782 1.886-1.183-3.457-2.296-5.952-4.77-7.459-7.414a75.21 75.21 0 0 0-1.75.981c1.506 2.615 3.902 5.146 7.323 7.616m-5.022-10.553c.011.028.026.056.038.084a87.15 87.15 0 0 1 2.755-1.368c-1.669-3.816.295-6.55 1.608-7.812a102.26 102.26 0 0 0-4.842 2.324c-.522 1.702-.726 4.053.441 6.772m-1.172.724c-.027-.062-.059-.121-.086-.183-1.065-2.48-1.095-4.714-.774-6.476a90.87 90.87 0 0 0-2.272 1.263 14.239 14.239 0 0 0 1.363 6.383c.574-.329 1.16-.657 1.769-.987m9.422 7.85a87.469 87.469 0 0 1 2.871-1.594c-4.05-2.594-6.415-4.96-7.69-7.05a85.09 85.09 0 0 0-2.769 1.378c1.27 2.185 3.56 4.688 7.588 7.266m-20.769-4.599c.224.965.654 2.028 1.372 3.173a69.823 69.823 0 0 1 5.28-3.676c-1.136-2.154-1.666-4.267-1.542-6.255a67.3 67.3 0 0 0-5.152 3.636c-.194.883-.236 1.927.042 3.122m28.899 8.783l4.234-.764c-3.423-1.539-6.248-3.022-8.57-4.44l-2.657 1.72c1.948 1.158 4.26 2.327 6.993 3.484m-2.448.444c-2.167-.987-4.118-2.015-5.853-3.082l-1.91 1.233c1.25.844 2.621 1.68 4.119 2.509l3.644-.66m-10.588-.018l-4.15 2.686 6.415-1.162a52.815 52.815 0 0 1-2.265-1.524m-8.912 3.547l2.595-.47c-4.066-2.55-6.735-4.954-8.423-7.131a56.29 56.29 0 0 0-1.529 1.281c1.67 2 4.095 4.16 7.357 6.32m.394-12.054a68.433 68.433 0 0 0-5.171 3.623c1.657 2.162 4.363 4.582 8.627 7.177a64.378 64.378 0 0 1 4.001-3.072c-3.324-2.518-5.827-5.14-7.457-7.728M63.578 74.41c-1.508-1.864-2.389-3.667-2.302-5.171-.957 1.082-1.553 1.9-1.856 2.351 0 0-.958 2.36 1.593 5.572a40.972 40.972 0 0 1 2.565-2.752m.919 1.06a40.964 40.964 0 0 0-2.552 2.736c.898.909 2.085 1.866 3.648 2.845l4.493-.814c-2.146-1.495-4.081-3.137-5.589-4.768m1.665-3.438a58.046 58.046 0 0 1 1.57-1.313c-.867-1.338-1.38-2.581-1.64-3.703a8.66 8.66 0 0 1-.224-2.203c-.619.52-1.182 1.02-1.704 1.5-.247 1.469.378 3.464 1.998 5.72m101.434 14.461l-7.28-.837v24.545c0 4.801 2.226 8.219 4.42 8.53 2.648-3.981 4.742-8.67 6.026-13.9a47.521 47.521 0 0 0 1.135-6.649l-5.902-2.145 6.107-1.063c.168-5.634-.712-11.04-2.464-15.831l-2.042 7.35m-14.793-24.864a21.443 21.443 0 0 0-3.96-.809l-2.713 3.387-.046-3.507c-6.774.149-13.385 3.507-18.665 9.166l30.993-5.608a22.336 22.336 0 0 0-5.61-2.63M73.947 37.824c-4.659 4.595-11.493 7.206-14.365 8.164 0 0 7.409-.094 14.266-4.057-5.886 6.44-16.13 16.71-23.419 19.463 0 0 10.24-2.373 22.053-12.75 7.235-6.355 22.025-28.145 38.814-24.706-7.53-5.302-24.554 1.26-37.35 13.886" fill="#EE2922"/><path d="M87.846 37.01c10 .424 20.536-5.534 22.984-8.09-5.533 2.396-13.197 5.11-22.984 8.09m33.693-6.722c8.298 10.429 3.832 21.497 3.832 21.497 1.275-1.065 3.83-2.343 3.83-2.343 1.7-9.364-4.683-17.663-7.662-19.154M33.653 82.587c5.307-5.31 16.307-7.405 16.307-7.405 2.743-4.696 6.972-7.135 6.972-7.135-7.798 1.735-20.037 9.053-23.279 14.54" fill="#EE2922"/><path fill="#FFF" d="M60.197 160.911v5.603l-2.923-.714v-5.6l-3.252-.791 1.09 1.241v4.626l-1.09-.267 1.09 1.243v4.531l2.162.527v-3.672l2.923-.255v4.638l2.161.525v-11.11l-2.161-.525m4.931.892l.766.75v10.424l2.483.21v-11.111l-3.249-.273m23.136-1.099v5.7l-2.925.459v-5.703l-3.25.514 1.092.82v4.71l-1.092.17 1.092.823v4.61l2.158-.338v-3.736l2.925-1.442v4.719l2.161-.337v-11.307l-2.16.338m29.669-6.525v6.042l-2.95-5.514-3.506.714 1.07.764v10.387l2.157-.44v-7.102l3.264 6.438 2.126-.432v-11.242l-2.161.385m11.093 7.675l-3.25.43v-7.437l3.25-.43v7.437zm1.628-8.95c-.352-.313-.789-.434-1.306-.365l-6.8.9 1.07.816v10.153l5.73-.761c1.224-.162 1.836-.852 1.836-2.073v-7.45c0-.5-.178-.906-.53-1.22zm-23.719 9.326l-3.226.829v-3.86l3.226-.828v3.86zm1.573-5.543c-.39-.301-.807-.396-1.248-.281l-3.878.994a2.32 2.32 0 0 0-1.336.887 2.41 2.41 0 0 0-.498 1.457v3.867l-1.092.278 1.092.724v4.644l2.16-.554v-3.763l3.227-1.817v4.754l2.158-.554v-9.513c0-.45-.195-.823-.585-1.123zM98.166 168.12l-2.288.548v-9.495l-3.248.781 1.07.723v10.39l5.728-1.374v-3.292l-1.262 1.718m-23.134-.375l2.366 1.725v1.837l-3.247.151v-7.438l3.835-.18 1.264 1.325v-3.22l-5.424.254c-.528.024-.964.23-1.312.615-.348.388-.521.822-.521 1.3v7.45c0 .22.02.422.06.61.2.801.791 1.181 1.773 1.137l5.734-.272v-5.508l-4.528.214m85.704-7.411a2.331 2.331 0 0 0-1.314-.84l-2.927-.689v-3.764l2.873.674 1.262 1.68v-3.218l-4.46-1.047c-.54-.129-.984-.047-1.333.241-.346.289-.523.673-.523 1.152v3.776c0 .179.019.35.06.517.097.43.303.8.623 1.115a2.42 2.42 0 0 0 1.172.635l2.928.687v1.837l-4.623-1.087v1.837l4.948 1.16c.569.134 1.02.059 1.36-.229.316-.257.476-.647.476-1.168v-1.847c0-.51-.176-.985-.522-1.422m-21.626-6.577l1.262 1.315v-3.189l-6.8.292 1.07.905v4.604l-1.09.046 1.09.921v4.492l5.73-.248v-1.82l-3.55.154v-2.137l3.55-1.655-3.55.152v-3.733l2.288-.1m9.774 3.904l-2.925-.138v-3.69l2.925.136v3.692zm.014 1.8l.311.014c1.222.055 1.831-.513 1.831-1.707v-3.704c0-.487-.176-.92-.528-1.287a1.858 1.858 0 0 0-1.303-.59l-6.48-.306 1.069.993v4.546l-1.091-.05 1.091 1.009v4.44l2.161.1v-3.598l.61.03 2.69 3.724 2.53.234-2.891-3.847z"/><path d="M153.058 58.267c3.691 1.042 7.025 2.817 9.942 5.16l5.235-.947c-3.776-3.47-8.247-6.074-13.306-7.486-15.03-4.201-30.883 3.159-40.668 17.252l5.016-.907c8.55-10.997 21.482-16.54 33.78-13.072m24.364 48.926c3.778-14.222 1.639-28.42-4.753-38.938l-1.446 5.197c4.823 8.937 6.297 20.54 3.199 32.159-1.279 4.796-3.232 9.176-5.68 13.036l3.42 1.472a54.61 54.61 0 0 0 5.26-12.926" fill="#CCCBCC"/><path d="M90.232 76.594a55.047 55.047 0 0 1-4.118-2.509l-2.826 1.83a51.85 51.85 0 0 0 2.265 1.525l4.679-.846M77.642 65.67a75.41 75.41 0 0 0-2.872 1.739c1.63 2.588 4.133 5.21 7.457 7.728a76.275 76.275 0 0 1 2.739-1.852c-3.421-2.47-5.817-5.001-7.324-7.616m-3.565.535a77.2 77.2 0 0 1 2.926-1.761 14.238 14.238 0 0 1-1.363-6.383c-.026.016-.052.032-.08.047-.472.273-.93.545-1.376.816-.111.066-.22.136-.33.202-.415.254-.823.508-1.218.76l-.101.064c-.124 1.988.406 4.1 1.542 6.255m-7.915 5.827c-1.62-2.255-2.245-4.25-1.998-5.72a40.626 40.626 0 0 0-2.868 2.903l-.02.025c-.087 1.504.794 3.307 2.302 5.17a54.327 54.327 0 0 1 2.584-2.378m.857 1.112a53.258 53.258 0 0 0-2.522 2.326c1.508 1.63 3.443 3.273 5.59 4.768l4.29-.774c-3.263-2.16-5.689-4.32-7.358-6.32" fill="#FFF"/><path d="M96.63 57.595l-2.399-5.96s.388 5.224 1.024 6.42c.601 1.13 1.463 1.795 3.542 3.021l-.734-1.47-1.432-2.011zm23.59-14.345l-1.606-1.314-2.213 1.172-3.22-.408-1.18-2.773 7.184-2.725c-1.029-3.817-3.949-4.494-3.949-4.494-.428.45-11.745 3.622-14.662 4.337l6.67 2.045 2.137.637v8.22l2.05.251 1.108-1.679 1.414 3.655h-5.647v2.424h4.953l1.509 3.889h-.796L111.97 55.3h-4.964v2.888h4.501l-1.83 2.985-3.383-.141-1.736 2.86 3.78 2.206s1.474-2.302 4.03-4.447c2.554-2.149 3.513-2.755 3.513-2.755l2.519-7.367h-1.817l3.106-4.345.53-3.935zm-18.782-.453l-3.927-.925-3.098 3.319 5.33 3.018-.827 3.116 3.74-1.637 3.64-7.636-4.858.745zM37.432 167.29c-.105-.988.089-1.94.505-2.7 1.215-.314 2.762 1.356 2.762 1.356a34.331 34.331 0 0 1-5.249-14.978 34.35 34.35 0 0 1 1.988-15.749s-1.162 1.96-2.414 1.91c-.57-.66-.958-1.55-1.06-2.537-.234-2.186.953-4.11 2.641-4.29 1.606-.17 3.14 1.468 3.496 3.73v.001c.137.872.045 1.716-.266 2.446l-.014.036-.013.037c-1.432 3.806-2.212 8.248-1.588 14.122.625 5.873 2.318 10.052 4.515 13.474l.022.032.023.033c.454.644.722 1.456.773 2.337.127 2.285-1.029 4.211-2.636 4.382-1.689.177-3.254-1.454-3.485-3.643m-7.152-18.767c0-1.383.114-2.758.318-4.126l-13.57 2.481-2.813 8.537 3.452.65 3.448-1.29 3.803.324 3.444-1.6 2.376.039a27.541 27.541 0 0 1-.3-2.037 27.843 27.843 0 0 1-.158-2.978m53.754-2.811l-40.424 5.762 1.464 2.233 36.149-4.095 2.482-3.422c.114-.158.22-.32.329-.478m96.374-16.76l-22.226 3.603.146.03-5.747 3.355-45.838 6.534a30.256 30.256 0 0 1-4.09 4.712l64.493-7.306 13.262-10.928M74.48 119.445V92.453s-.602-3.541-5.632-5.87c2.62 3.557 2.407 8.02 2.394 8.181v18.433l-.164-.326.018.205 3.384 6.369m71.198-43.349l-8.068 3.05 1.825-5.574-2.957.597-3.229 9.523 9.068-3.539v35.893c.013.206.197 4.033-1.834 7.418l16.808-3.12a11.32 11.32 0 0 1-1.574-2.861l-10.04 1.843v-43.23m-48.033 53.498V87.961s.184-4.416-5.826-6.286h-.005c2.743 3.582 2.518 8.174 2.507 8.34v40.439c-.005.49-.21 10.866-6.109 19.004 9.449-7.851 9.433-19.864 9.433-19.864M49.155 93.375l-3.232-2.811-.482.09c0 6.451 0 43.173-.001 43.112.013.205.199 4.03-1.836 7.42l16.812-3.118a11.34 11.34 0 0 1-1.567-2.836l-9.694 1.77V93.375m8.765 12.159v5.732l12.798 24.955 12.994-2.43v-2.977l-11.501 2.031-14.29-27.311m62.589 18.376V83.774s-.47-3.452-5.29-5.779l-.262.05c2.74 3.579 2.516 8.173 2.505 8.338 0 0 0 34.255-.003 34.182.014.208.198 4.038-1.837 7.424l16.81-3.12a11.401 11.401 0 0 1-1.561-2.842l-10.363 1.885m34.276-49.303v3.21l8.54.512.918-3.087-9.458-.635" fill="#CCCBCC"/></g></svg>