<svg width="200" height="201" fill="none" xmlns="http://www.w3.org/2000/svg"><g clip-path="url(#a)"><path d="m180.361 123.699-.008.214.013-.463V93.324l7.251.557L200 52.605l-18.468 3.512-.841-.846c-5.475-5.573-12.303-9.552-19.754-11.502a42.866 42.866 0 0 0-10.844-1.402c-1.397 0-2.808.072-4.201.21l-.989.097-.195-.974a33.591 33.591 0 0 0-1.389-4.955c-2.088-5.728-6.419-12.387-12.317-13.883l-.507-.129-.218-.476c-.93-2.02-2.56-3.797-4.714-5.137-3.24-2.016-7.781-3.125-12.788-3.125-3.031 0-6.125.392-9.187 1.162-6.13 1.54-14.712 6.187-21.842 11.814l-1.362 1.144-.717.623c-4.13 3.61-15.103 13.197-28.697 13.202-3.565 0-7.108-.668-10.536-1.98l-.774-.299.24.797c2.845 9.356 7.34 12.601 10.941 14.382l2.324 1.148-2.444.863c-1.958.695-4.068 1.033-6.445 1.033-2.27 0-4.812-.316-7.554-.944l-.663-.15.178.653c1.416 5.133 4.335 8.061 6.539 9.615L44 67.92l-1.193.904c-3.534 2.675-8.27 7.3-10.763 14.124l-.365 1.055-11.355 2.118V150.7c0 4.393-4.384 9.828-5.92 11.386L0 176.708l20.182-3.637s38.106-7.059 54.282-9.983c-3.566 6.017-7.647 10.602-7.71 10.669l-11.831 13.055 18.397-2.23c30.339-3.886 40.75-20.987 44.057-29.226 6.753-1.251 80.727-14.934 80.727-14.934l-12.468-8.902c-5.203-3.712-5.27-7.661-5.27-7.825l-.005.004Z" fill="#CBCCCE"/><path d="M175.39 123.748c0-.133.004-.218.009-.245V87.177c1.428.111 8.087 1.402 8.087 1.402l8.382-28.665-11.747 2.19c-5.092-6.339-11.951-11.053-20.164-13.198-6.632-1.736-13.251-1.602-19.496.071.423-9.988-5.519-19.812-10.571-21.076-1.215-.303-2.462-.303-3.713-.031.179-.77.205-1.54.041-2.293-1.135-5.283-10.803-8.074-21.397-5.408-4.994 1.255-12.873 5.266-20.053 10.932-2.92 2.306-20.128 19.056-37.185 15.366 1.255 1.94 7.79 7.545 17.587 6.343a92.418 92.418 0 0 1-1.456 1.495c-2.92 2.92-11.831 10.296-19.514 8.297 1.322 1.13 6.93 4.35 14.694 3.32a51.246 51.246 0 0 1-6.13 3.135c-7.714 3.342-15.071 10.228-16.198 19.83l-10.553 1.967v59.85c0 7.719-7.5 15.321-7.576 15.397l-1.834 1.838s64.35-11.898 66.941-12.37c-3.414 11.2-13.01 21.905-13.113 22.02l-1.487 1.634 2.19-.28c32.578-4.171 40.737-25.052 41.686-28.572 1.005-.183 72.732-13.1 72.732-13.1l-1.558-1.113c-7.242-5.168-8.618-11.119-8.618-12.405l.014-.005ZM52.488 80.443c2.32.182 1.852 2.31-.146 5.546l-5.4 1.006-.053-.04-6.045 1.126c2.689-3.365 6.619-6.89 11.644-7.643v.005Z" fill="#021D49"/><path d="M160.767 55.707c4.87 1.362 9.179 3.868 12.811 7.207l.142-.027c-4.019-4.469-9.062-7.785-14.911-9.44-13.403-3.793-27.486 2.131-36.936 13.994l1.3 1.651-2.533-.035a49.207 49.207 0 0 0-2.559 3.894l3.538-.64c9.419-13.568 24.678-20.65 39.148-16.608v.004Z" fill="#fff"/><path d="M93.417 73.316c.583-.374 1.18-.752 1.816-1.14-3.33-2.211-5.729-4.593-7.18-7.134a82.03 82.03 0 0 0-1.687.943c1.451 2.52 3.757 4.954 7.05 7.331ZM88.623 63.239a77.6 77.6 0 0 1 2.653-1.318c-1.607-3.672.285-6.307 1.549-7.518a96.031 96.031 0 0 0-4.66 2.24c-.504 1.637-.7 3.903.422 6.52.01.027.027.054.036.08v-.004ZM87.457 63.858c-.027-.058-.058-.116-.08-.178-1.024-2.386-1.056-4.536-.748-6.232-.757.405-1.487.814-2.186 1.215-.04 2.11.383 4.153 1.313 6.143a82.935 82.935 0 0 1 1.7-.948ZM96.528 71.411a88.551 88.551 0 0 1 2.764-1.535c-3.899-2.498-6.174-4.776-7.402-6.789-.921.437-1.807.882-2.666 1.327 1.22 2.1 3.427 4.513 7.304 6.993v.004ZM77.856 70.04a66.501 66.501 0 0 1 5.083-3.538c-1.095-2.075-1.603-4.109-1.487-6.023a66.294 66.294 0 0 0-4.959 3.499c-.186.85-.227 1.856.04 3.004.214.93.628 1.954 1.323 3.054v.004ZM108.43 74.705c-3.293-1.482-6.013-2.906-8.248-4.273l-2.559 1.656c1.874 1.117 4.1 2.239 6.73 3.356l4.073-.734.004-.005ZM101.998 75.867c-2.087-.948-3.966-1.94-5.635-2.97l-1.838 1.19a54.116 54.116 0 0 0 3.966 2.416l3.507-.636ZM91.805 75.849l-3.997 2.586 6.178-1.117a54.563 54.563 0 0 1-2.18-1.469ZM83.224 79.263l2.497-.454c-3.913-2.453-6.481-4.767-8.11-6.864-.526.423-1.006.833-1.474 1.233 1.607 1.928 3.944 4.006 7.082 6.085h.005ZM86.931 78.057a61.427 61.427 0 0 1 3.85-2.956c-3.2-2.426-5.608-4.95-7.18-7.438a65.349 65.349 0 0 0-4.975 3.49c1.593 2.083 4.201 4.411 8.305 6.908v-.004ZM72.83 74.398c-1.451-1.794-2.301-3.53-2.217-4.977-.921 1.042-1.495 1.83-1.785 2.266 0 0-.921 2.27 1.536 5.364a39.279 39.279 0 0 1 2.47-2.649l-.004-.004ZM79.097 80.01c-2.065-1.437-3.93-3.022-5.381-4.588a39.217 39.217 0 0 0-2.457 2.635c.863.877 2.007 1.798 3.512 2.737l4.326-.783ZM76.831 70.846c-.836-1.287-1.326-2.484-1.58-3.566a8.254 8.254 0 0 1-.213-2.118c-.597.503-1.14.983-1.638 1.442-.24 1.415.365 3.334 1.922 5.506.477-.414.975-.832 1.514-1.264h-.005ZM158.72 62.095a20.543 20.543 0 0 0-3.811-.78l-2.612 3.26-.045-3.375c-6.521.143-12.886 3.374-17.969 8.822l29.836-5.399a21.696 21.696 0 0 0-5.399-2.533v.005ZM60.175 61.507s9.855-2.283 21.228-12.271c6.966-6.12 21.201-27.095 37.363-23.783-7.246-5.101-23.636 1.215-35.952 13.367-4.482 4.424-11.061 6.935-13.83 7.86 0 0 7.131-.093 13.732-3.908-5.666 6.2-15.526 16.087-22.545 18.735h.004Z" fill="#D7282F"/><path d="M96.19 38.032c9.628.41 19.768-5.328 22.127-7.785-5.328 2.306-12.704 4.918-22.127 7.785ZM132.316 52.258c1.228-1.024 3.685-2.257 3.685-2.257 1.638-9.014-4.509-17.003-7.376-18.437 7.99 10.038 3.691 20.694 3.691 20.694ZM66.434 67.913c-7.505 1.669-19.287 8.715-22.408 13.994 5.11-5.11 15.695-7.126 15.695-7.126 2.64-4.523 6.713-6.868 6.713-6.868Z" fill="#D7282F"/><path d="M158.965 58.863c3.552 1.002 6.761 2.711 9.57 4.968l5.038-.913c-3.632-3.338-7.936-5.849-12.81-7.206-14.471-4.042-29.73 3.04-39.148 16.607l4.829-.872c8.23-10.585 20.68-15.922 32.516-12.584h.005Z" fill="#CBCCCE"/><path d="M98.486 76.503a52.113 52.113 0 0 1-3.966-2.417L91.8 75.85c.695.494 1.42.984 2.182 1.469l4.504-.815ZM90.782 75.101c.81-.574 1.687-1.17 2.635-1.785-3.294-2.377-5.6-4.811-7.05-7.33a68.621 68.621 0 0 0-2.765 1.673c1.571 2.492 3.98 5.016 7.18 7.438v.004ZM85.757 64.806a13.708 13.708 0 0 1-1.314-6.143c-.026.013-.049.031-.075.045a70.52 70.52 0 0 0-1.327.787c-.107.063-.209.13-.316.196-.4.245-.792.49-1.17.735-.032.022-.067.04-.098.062-.12 1.914.391 3.948 1.486 6.022.89-.565 1.83-1.13 2.818-1.696l-.004-.008ZM75.318 72.11c-1.558-2.172-2.163-4.09-1.923-5.506-.004.004-.013.009-.018.018a38.118 38.118 0 0 0-2.742 2.777c-.004.01-.013.014-.017.022-.085 1.447.765 3.183 2.216 4.977a50.635 50.635 0 0 1 2.489-2.288h-.005ZM79.097 80.01l4.13-.747c-3.137-2.079-5.474-4.157-7.08-6.085a48.003 48.003 0 0 0-2.427 2.24c1.451 1.57 3.312 3.15 5.382 4.588l-.005.005Z" fill="#fff"/><path d="M116.923 41.014v7.914l1.972.24 1.068-1.615 1.362 3.516h-5.434v2.333h4.767l1.451 3.743h-.766l-1.927-1.14h-4.781v2.778h4.331l-1.762 2.871-3.259-.133-1.669 2.755 3.641 2.123s1.42-2.216 3.877-4.282c2.457-2.07 3.383-2.653 3.383-2.653l2.426-7.09h-1.749l2.991-4.18.512-3.788-1.545-1.264-2.132 1.126-3.098-.392-1.135-2.67 6.917-2.622c-.992-3.677-3.801-4.327-3.801-4.327-.414.432-11.306 3.486-14.115 4.175l6.423 1.968 2.057.614h-.005ZM106.735 61.565l-.708-1.415-1.38-1.937-2.31-5.737s.374 5.03.984 6.178c.578 1.086 1.406 1.727 3.409 2.907l.005.004Z" fill="#CBCCCE"/><path d="m106.851 52.178 3.596-1.576 3.508-7.349-4.679.717-3.779-.89-2.982 3.195 5.128 2.903-.792 3Z" fill="#CBCCCE"/><path d="M61.676 90.818c3.4 4.443 3.124 10.145 3.106 10.345v22.87l-15.89-30.985-16.122 3.014v53.49c.013.253.244 4.998-2.28 9.205l20.859-3.869c-3.4-4.446-3.125-10.144-3.107-10.349v-22.932l15.89 30.985 16.123-3.014V96.146c-.013-.253-.245-5.003 2.279-9.21L61.676 90.81v.01ZM90.305 84.92c3.406 4.447 3.125 10.14 3.112 10.35v50.173c-.01.605-.263 13.483-7.58 23.578 7.762-2.689 23.048-10.745 23.048-32.489V90.257c-.014-.253-.245-4.998 2.279-9.205L90.305 84.92ZM137.599 128.075V85.748c-.013-.258-.245-5.003 2.275-9.205l-20.858 3.868c3.4 4.438 3.124 10.14 3.111 10.345v42.411c.018.258.245 5.007-2.279 9.209l20.854-3.868c-3.401-4.447-3.116-10.157-3.103-10.433ZM141.712 87.422l11.252-4.389v44.534c.014.254.245 5.003-2.279 9.205l20.859-3.872c-3.405-4.443-3.125-10.14-3.112-10.345V80.14l10.599.636 3.77-12.659-37.079 7.496-4.01 11.814v-.005Z" fill="#fff"/><path d="M68.797 131.782v-33.49s-.747-4.394-6.988-7.282c3.254 4.41 2.987 9.948 2.974 10.148v22.87l-.205-.4.026.254 4.198 7.9h-.005ZM157.135 131.636V77.999l-10.01 3.783 2.261-6.917-3.668.74-4.01 11.813 11.252-4.39v44.535c.013.253.245 5.003-2.279 9.205l20.858-3.873c-.872-1.135-1.5-2.359-1.954-3.547l-12.454 2.283.004.005ZM90.305 84.92c3.406 4.447 3.125 10.14 3.112 10.35v50.173c-.01.605-.263 13.483-7.58 23.578 11.724-9.739 11.702-24.642 11.702-24.642V92.723s.227-5.479-7.23-7.798l-.004-.004ZM37.377 99.436l-4.006-3.49-.601.111v53.49c.013.254.244 4.999-2.28 9.205l20.859-3.868a14.021 14.021 0 0 1-1.945-3.521l-12.027 2.199v-54.13.004ZM48.25 114.521v7.108l15.878 30.963 16.122-3.014v-3.694l-14.27 2.519-17.73-33.887v.005ZM125.906 137.324v-49.8s-.583-4.282-6.565-7.17l-.325.062c3.4 4.438 3.124 10.14 3.111 10.344v42.411c.018.258.245 5.008-2.279 9.21l20.854-3.868a14.021 14.021 0 0 1-1.937-3.526l-12.855 2.337h-.004ZM168.432 80.135l10.598.637 1.14-3.828-11.738-.792v3.983Z" fill="#CBCCCE"/></g><defs><clipPath id="a"><path fill="#fff" transform="translate(0 14)" d="M0 0h200v172.812H0z"/></clipPath></defs></svg>