<svg width="200" height="200" xmlns="http://www.w3.org/2000/svg"><g fill="none"><path d="M26.103 2.878l-10.175 21.89-.046.111c-.642 1.659-.966 3.298-.966 4.875 0 3.131 1.281 6.029 3.788 8.636-.802 1.65-5.493 11.344-5.493 11.344l-.031.072c-.598 1.433-.9 2.872-.9 4.282 0 5.599 4.647 9.429 7.517 11.46L14.682 76.52c-.52 1.084-.787 2.202-.787 3.306 0 5.23 5.697 8.59 8.758 10.393l.765.454c1.513.918 39.466 23.622 74.968 44.803-8.399.003-37.876.006-37.876.006-5.608 0-7.668-1.468-7.687-1.484l-.576-.5-8.196-.002 34.853 33.199c3.164 3.058 6.36 5.187 16.059 2.44 2.917-.827 15.324-4.745 18.946-5.89.9.391 8.387 3.664 9.024 3.942 8.413 11.43 18.155 18.698 22.184 21.429-.246.764-.413 1.545-.413 2.36 0 2.499 1.138 4.441 1.267 4.657l2.629 4.324 2.238-4.543c1.668-3.383 5.351-5.414 7.867-4.97 1.115.193.95 2.574.818 3.631l-.363 2.96s2.69-1.62 4.208-3.029c5.413-5.027 3.761-9.945 2.204-11.88-1.96-2.425-5.416-3.102-9.575-2.02l-3.719-6.81c1.643-.906 5.018-2.768 5.697-3.141l5.707 1.114 1.074 1.795.797.048c7.649.828 9.167 1.335 9.228 2.032.064.698-.505 1.39-1.801 2.279-1.295.887-2.66 1.783-2.66 1.783s1.452.596 3.047.787c1.595.193 8.79.66 12.941-4.977 0 0 .904-1.5.904-2.778 0-1.862-1.09-4.788-5.346-8.137a13.05 13.05 0 0 0 .305-2.806c0-2.774-.882-6.582-4.75-9.936-5.42-4.7-17.33-15.995-20.14-18.665.258-1.33.671-4.051.671-7.827 0-9.46-2.608-25.457-16.845-42.302-2.233-2.641-17.783-20.166-32.822-37.115-12.511-14.097-24.327-27.417-25.236-28.518-1.817-2.208-2.124-4.129-2.124-5.173 0-.499.07-.797.078-.833l.124-.498-.195-.493-2.616-6.404-8.275 18.182-.025.075c-.094.284-.589 1.862-.589 3.644 0 1.332.275 2.781 1.2 3.891 1.16 1.397 2.623 3.28 3.4 4.287l-4.969 11.22.031-.07c-.043.089-.549 1.126-.549 2.658 0 .579.081 1.234.279 1.932-10.343-9.493-22.407-20.561-36.494-33.49-2.19-2.138-2.655-4.632-2.655-6.343 0-1.336.28-2.26.283-2.27l.14-.456-.141-.453L27.39.358l-1.287 2.52z" fill="#231F20"/><path d="M174.824 165.433s2.54-1.067 3.955-.557l-.01-.01s.003-.005.003-.009c-.49-.476-8.615-8.05-8.615-8.05s4.076 5.01 4.667 8.626" fill="#231F20"/><path d="M178.779 164.876c-1.416-.51-3.955.557-3.955.557-.59-3.616-4.667-8.626-4.667-8.626s8.126 7.574 8.615 8.05c.086-.183 2.607-5.654-2.501-10.423-7.625-7.116-22.237-20.506-22.215-20.432 1.031 3.273 6.885 13.857 3.79 33.468l7.523 1.425.906 1.524s8.606 1.15 9.944 2.413c0 0 2.97 2.068-.21 4.913 0 0 4.86-.949 7.597-3.63 0 0 2.499-2.153-.443-5.146l-4.384-4.093" fill="#188746"/><path d="M138.216 118.748L30.44 17.906C25.254 12.844 27.3 6.413 27.3 6.413l-8.826 19.476c-2.365 6.11 1.275 9.99 3.822 12.042 2.547 2.05 86.03 69.782 86.03 69.782l.075 2.824L25.389 46.64c-4.118-3.124-3.64-8.164-3.64-8.164L15.745 50.88c-2.912 6.982 4.277 11.45 7.28 13.503 3.002 2.055 85.742 59.835 85.742 59.835l.727 3.467s-80.202-53.505-83.15-55.32c-3.547-2.19-3.274-7.254-3.274-7.254L17.2 77.699c-2.456 5.134 4.55 8.713 7.644 10.584 1.817 1.097 46.688 27.938 83.653 49.98l-47.986.005c-7.067 0-9.434-2.1-9.434-2.1l6.432 6.022c1.093 1.005 3.988 4.653 8.22 4.653 3.001 0 17.696.018 17.696.018l3.481 1.508-15.446 1.21c-3.07.136-3.925.463-8.02-1.818-.039-.023 6.85 6.717 6.85 6.717 1.912 1.64 3.444 3.264 6.72 2.991 3.277-.276 22.657-3.513 22.657-3.513l3.07 1.39-20.335 4.446c-4.64 1.03-7.968-1.367-7.968-1.367s3.847 3.79 6.394 6.254c2.639 2.552 5.009 4.144 13.378 1.775 3.325-.944 19.86-6.18 19.86-6.18l10.645 4.651c10.716 14.844 24.022 22.712 24.022 22.712-2.55 3.012-.387 6.545-.387 6.545 2.215-4.497 7.168-6.965 10.916-6.414 3.257.478 2.385 4.45 2.498 4.305 2.002-2.552 3.661-5.617 1.639-8.205-2.458-3.15-8.747-.424-8.747-.424l-6.135-11.23 8.318-4.764c4.55-29.007-18.618-48.702-18.618-48.702" fill="#188746"/><path d="M132.504 76.882c-1.397-1.614-51.442-57.986-51.442-57.986-4.334-4.81-2.807-8.581-2.68-8.869l-5.84 13.124c-1.3 3.608 1.128 5.947 2.917 8.015 1.79 2.063 54.371 57.131 54.371 57.131l-.35 3.03-49.786-49.83c-4.004-4.11-2.912-7.218-2.723-7.666l-5.345 12.07c-1.217 3.74 2.608 6.21 5.253 8.763 2.812 2.714 58.214 54.645 62.746 58.787 9.694 8.853 14.43 20.55 14.43 20.55 5.579-28.706-16.137-50.864-21.55-57.12" fill="#188746"/></g></svg>