<svg width="200" height="200" xmlns="http://www.w3.org/2000/svg"><g fill="none"><path d="M60.815 57.618c-.63-1.369.629-3.04.629-3.04s2.358 1.976 2.358 3.8c0 1.826.473 4.102 0 5.472-.472 1.368-.314 1.519-1.258 1.671-.945.15-.944-.911-1.887-2.584-.946-1.671.787-3.951.158-5.319zm9.593 2.28c.631 0 .98-.052.98-.052s-.821-2.683-.349-2.075c.471.606.35-2.64.35-2.64s2.796 2.032 2.324 5.526c-.473 3.495-1.259 5.169-1.887 5.471-.63.304-1.101-1.064-.945-1.67.075-.29-.2-.44-.449-.484.145-.838-.554-4.075-.024-4.075zm10.225 5.167h.473l.471-4.861s2.832 2.58 2.675 4.709c-.156 2.128.157 3.04-.472 3.799-.629.76.316 2.13-.629 2.13-.944 0-1.73-1.068-1.258-1.825.471-.76-.787-1.671-.787-1.671s-.944-2.28-.473-2.28zm3.619-14.286s.63 3.8.944 4.559c.313.76-.472 1.977.63 2.433 1.1.455-.787 2.583 0 3.343.785.758-.158 2.28-.63 2.28s-2.989-3.19-2.989-5.927c0-2.737 2.045-6.688 2.045-6.688zm7.708 3.496c.158-1.216.63-5.167 1.574-5.472 0 0 1.258 1.37 1.416 2.586.156 1.215.156 4.86-.158 5.468-.315.61 0 2.585-.945 2.737-.944.152-2.2-1.063-1.729-1.823.47-.76-.315-2.28-.158-3.496zm4.405 3.343c.471-.151.157-4.102 1.73-4.102 0 0 1.1 2.733.946 4.406-.16 1.672-.316 4.863-1.262 5.168-.943.303-2.043-.305-1.414-1.367.631-1.066-.473-3.952 0-4.105zm-56.86 12.78l3.145 6.232-1.72 3.695.13.27 2.218 1.64 1.61 3.734 1.241 1.51-.257 2.267.63.643.857 1.43c2.529-1.864 3.495-4.104 3.495-4.104l-.065-.741h-1.796v-18.29h3.68c.262-.144.673-.466 1.153-1.184.823-1.236 2.531-3.252 1.391-7.652.975-1.41 6.453 3.298 5.694 7.697 1.384 1.343 2.28.371 2.28.371s3.793-4.034 3.035-5.867c1.104-1.232 1.897-.185 1.897-.185s2.277 4.216 1.138 6.602l-.108.218h1.042l1.476 2.116c.94-.465 3.505-7.51 5.182-7.837.764-.07.76 3.444 2.046 5.202 1.287 1.76 2.893 7.877 4.215 10.932l1.315.489 2.784-1.257v-9.645h1.764c.471-.5.892-1.876.59-3.337-.38-1.83-1.707-3.665-1.517-6.784.07-1.153.114-1.852.19-2.29a.344.344 0 0 1-.056-.024c-.786-.454-.315-1.67-.472-3.19-.158-1.52.157-3.495.787-3.495.629 0-.787-1.977 0-1.824.787.153.474-1.674.474-1.674s2.045 1.218 1.885 3.65c-.156 2.43-.215 4.905-.943 5.32a1.59 1.59 0 0 0-.45.409c.814.118 1.412 1.468 1.243 3.118-.192 1.835 3.737 2.474 4.713 4.356.979 1.88 2.686 3.895 2.307 4.997 1.202-.166 1.708-2.935 1.517-6.234-.19-3.3 2.466-5.5 3.227-5.683.758-.185 1.14 2.383-.38 3.3.157 1.31 2.927 3.572 3.076 8.02 0 0 .51-.292.51-2.05 0-1.76-.856-.518-.856-4.762.106-3.003.106-3.622 1.176-3.725 1.074-.102 1.22 4.24 3.611 5.124 1.21.568 2.388 3.88 2.924 4.811a.735.735 0 0 0 .18.17l8.987-4.038 1.366-5.013 1.403-2.055 3.67-1.84.048-1.833-1.67-1.525-2.422-4.278-.234-6.888-3.72-7.028.186-2.16H34.066v34.538l.878 1.803 4.561 3.828zm153.957 92.98l-10.55-4.45-6.594-4.119-1.977-3.281.388-4.498 5.344-3.26 4.638-5.997 2.766-1.52.194-.901-1.076-1.536 1.086-2.532-.498-.721-.437-.01-2.21 1.177-5.73 2.06-2.442 4.265-2.544 1.752-2.91-.92-2.608-1.593-1.275-3.665 3.25-2.296-3.603-.248-1.67 1.074-4.07 2.268-6.874.26-3.547-.82-2.84-3.664.393-3.667 6.153-5.245 2.77-1.518 2.744.87 7.147 3.47 6.18 1.289-.657-4.337-6.233-5.917.004-8.866 1.605-4.955-.465-.605H115.22c.128 1.576.97 4.401.524 10.492-.354 4.899-1.668 6.872-2.35 7.637h1.048v18.288H93.241s-.053-.073-.148-.21c-.387-.539-1.481-1.962-2.55-2.404-1.328-.55-2.305 1.038-3.442 1.038-1.14 0-2.204.174-5.126-.18-2.322-.448-3.66-.392-5.753-1.178v2.934H48.993v-17.183l-.812-1.87-4.18 1.877-.168.575.153 2.457-.674 1.612-.049 1.868 2.088 3.407-3.175 8.713-2.52 2.505-.85 2.102-.617.683.543 1.355.322.39 21.745-2.563 9.48 3.843 16.216 3.457 7.92-.45-2.34-2.533 7.522-6.444 3.9-.249 1.055 3.026.123.164 2.212.457 1.517-.586 3.93 1.241-.692 2.152.1.069 1.32.545 1.582 2.628 3.63 1.781 5.006.963 7.28 9.394 5.095 1.075 1.423 1.26 3.86-.206 4.336-4.364 2.704-.31 1.374 1.394 2.599-1.097 2.704.718 2.275 3.672.764.094 3.633-2.218-1.195-.965 2.198-7.916 3.915-2.086 2.837 2.242 1.258 2.583 14.12 6.145.714 5.823 7.072-2.664 1.434-.381.451-.971-.67-.975M31.236 111.613c.057.31.156.492.316.412.319-.15.555.043.713.39l1.515.118c-.099-.332-.2-.675-.302-1.028l-2.28-.177c.01.101.02.2.038.285m-9.696-7.855c1.615-.766 12.747-6.045 14.272-6.77l2.68 5.083-5.761 2.587-1.366-1.69-2.7 3.655c.087.38.151.664.214.541.044-.085.255.003.533.169l1.99-2.694 1.02 1.262.808-.363.015-.016c.163-.139.374-.236.622-.294.03-.006.062-.01.092-.018l5.943-2.67-3.63-6.883-16.163 7.664 1.07 1.882-9-1.497L37.632 92.27l4.813 9.128 11.28-5.068v-1.103l-10.81 4.856c-.745-1.41-4.814-9.127-4.814-9.127L8.737 104.15l14.385 2.392-1.582-2.783m3.775 7.601l-.5.475.486.027c.006-.152.01-.318.014-.503m20.465-5.323l7.945-3.569v-1.104l-9.288 4.172 4.123 9.439-25.453 11.435 4.615-7.613.799 2.001 16.482-7-3.11-7.119-2.783 1.251c.248.258.487.52.716.782a329.33 329.33 0 0 1 1.53-.686c.534 1.219 1.786 4.082 2.296 5.252-1.556.662-12.907 5.483-14.555 6.182l-.444-1.112-2.552 1.142-5.563 9.178 29.364-13.194-4.123-9.437m67.887-31.602v1.103l25.718-11.555v-7.24l-28.252 12.693h2.458l24.76-11.124v5.032l-24.684 11.09" fill="#FFF"/><path d="M109.61 123.52v8.95h-13.8L67.626 92.096V123.8h3.764v8.671H53.826V123.8h3.956V82.306h-3.956v-8.952h13.8l28.185 40.374V82.026h-3.765v-8.672h17.563v8.672h-3.956v41.494h3.956zm2.415-39.159V71.02H89.63v13.342h3.764v21.73L68.91 71.02h-17.5v13.62h3.955v36.824h-3.956v13.342h22.397v-13.342H70.04V99.732l24.485 35.073h17.5v-13.62h-3.956V84.362h3.955z" fill="#FFF"/><path d="M49.064 95.482a12990.43 12990.43 0 0 0 4.661-2.095v-7.163H49.77V69.435h20.012l21.972 31.475V85.945H87.99v-16.51h19.05c1.928-.868 3.825-1.718 5.673-2.548a.735.735 0 0 1-.18-.17c-.536-.93-1.714-4.243-2.924-4.811-2.39-.883-2.537-5.226-3.61-5.124-1.07.103-1.07.722-1.177 3.725 0 4.244.856 3.001.856 4.762 0 1.758-.51 2.05-.51 2.05-.149-4.448-2.919-6.71-3.077-8.02 1.52-.917 1.139-3.485.38-3.3-.76.183-3.415 2.383-3.226 5.683.19 3.299-.315 6.068-1.517 6.234.379-1.102-1.328-3.117-2.307-4.997-.976-1.882-4.905-2.521-4.713-4.356.169-1.65-.429-3-1.244-3.118a1.59 1.59 0 0 1 .451-.41c.728-.414.787-2.889.943-5.318.16-2.433-1.885-3.65-1.885-3.65s.313 1.826-.474 1.673c-.787-.153.629 1.824 0 1.824-.63 0-.945 1.975-.787 3.495.157 1.52-.314 2.736.472 3.19.02.01.037.018.057.024-.077.438-.12 1.137-.191 2.29-.19 3.12 1.137 4.953 1.516 6.784.303 1.461-.118 2.837-.589 3.337h-1.764v9.645l-2.784 1.257-1.315-.49c-1.322-3.054-2.928-9.17-4.215-10.931-1.286-1.758-1.282-5.272-2.046-5.202-1.677.327-4.243 7.372-5.182 7.837l-1.476-2.116h-1.042l.108-.218c1.14-2.386-1.138-6.602-1.138-6.602s-.793-1.047-1.897.185c.758 1.833-3.035 5.867-3.035 5.867s-.896.972-2.28-.371c.759-4.4-4.719-9.106-5.694-7.697 1.14 4.4-.568 6.416-1.391 7.652-.48.718-.891 1.04-1.153 1.184h-3.68v18.29h1.796l.065.741s-.966 2.24-3.495 4.105l1.493 2.491.212 1.17m-22.23-8.529c.786-.308.943-2.586 1.415-3.954.474-1.368-2.516-3.8-2.516-3.8-.63.457-2.045 3.8-1.574 5.929.472 2.128 1.887 2.128 2.675 1.825m-13.216 1.82c-1.256.152-2.358 6.082-2.358 6.995 0 .91 1.414 2.733 2.675 2.582 1.258-.152.47-3.343 1.415-5.017.944-1.67-1.732-4.56-1.732-4.56" fill="#F4731C"/><path d="M36.27 89.078s-.942-2.434-1.729-3.04c-.786-.608-3.616-3.648-4.09-4.408-.472-.758-2.517 7.901-3.46 7.901-.945 0 .314 4.412-.472 4.563-.786.153-.786-.61-1.259-.912-.471-.305 0-4.104 0-4.557 0-.46-1.258-3.65-2.201-3.65-.945 0-1.889 5.928-2.674 6.078-.789.155.157 1.824-.316 2.279-.473.459-.944-.909-2.518-.455-1.572.455-2.988 4.561-2.515 6.387.006.025.018.104.031.201l21.355-9.593-.151-.794m-22.808 10.944c-.63.149-2.52-5.168-4.407-4.713-1.888.458-.157 2.129-1.256 2.737-1.104.608-.79 2.28-1.26 2.431-.472.151.786 2.127 0 2.584-.107.061-.173.207-.205.327l7.513-3.374a2.055 2.055 0 0 0-.385.008m47.194-37.085c.943 1.673.942 2.734 1.887 2.584.944-.152.786-.303 1.258-1.67.473-1.371 0-3.647 0-5.474 0-1.823-2.358-3.798-2.358-3.798s-1.26 1.67-.63 3.04c.63 1.367-1.103 3.647-.157 5.318m9.775 1.037c.25.044.524.194.45.483-.157.607.314 1.975.944 1.671.628-.302 1.414-1.976 1.887-5.471.472-3.494-2.324-5.525-2.324-5.525s.121 3.245-.35 2.639c-.472-.608.35 2.075.35 2.075s-.35.053-.981.053c-.53 0 .17 3.237.024 4.075m11.461 5.043c-.471.757.314 1.825 1.258 1.825.945 0 0-1.37.629-2.13.63-.759.316-1.671.472-3.799.157-2.128-2.675-4.71-2.675-4.71l-.471 4.862h-.473c-.471 0 .473 2.281.473 2.281s1.258.91.787 1.67m3.303-5.623c.472 0 1.415-1.521.63-2.279-.787-.76 1.1-2.888 0-3.343-1.102-.456-.317-1.673-.63-2.433-.313-.76-.944-4.559-.944-4.559s-2.045 3.951-2.045 6.688c0 2.737 2.517 5.926 2.989 5.926m6.922-5.623c-.472.76.785 1.976 1.729 1.824.945-.152.63-2.127.945-2.737.314-.608.314-4.253.158-5.468-.158-1.215-1.416-2.586-1.416-2.586-.945.305-1.416 4.256-1.574 5.472-.157 1.215.628 2.735.158 3.496m5.662 5.319c.945-.305 1.102-3.496 1.261-5.168.155-1.673-.946-4.406-.946-4.406-1.573 0-1.259 3.95-1.73 4.102-.473.153.631 3.039 0 4.105-.63 1.062.471 1.67 1.414 1.367m27.524 9.057l-11.637 5.23v8.568h-3.956v33.656h3.956v16.79H93.653l-21.972-31.476v14.963h3.765v16.512H49.77v-16.512h3.955v-15.572l-.777.348c-1.288.58-2.366 1.064-3.192 1.433l-.76 3.02 3.144 7.2-3.959 1.779.812 1.87v17.183h27.229v-2.934c2.094.786 3.431.73 5.753 1.178 2.922.354 3.987.18 5.126.18 1.137 0 2.114-1.588 3.441-1.038 1.07.442 2.164 1.865 2.551 2.404.095.137.148.21.148.21h21.201V118.85h-1.048c.682-.765 1.996-2.738 2.35-7.637.446-6.09-.396-8.916-.524-10.492a3.598 3.598 0 0 1-.009-.579l.68-1.657c.073-.258.114-.479.138-.682.212-1.743-1.196-1.641-.711-2.424.644-1.033 2.249 0 3-2.896.642-4.347-.322-3.208-.536-4.76-.215-1.553 2.57-2.896 3.212-4.966.642-2.071.324-4.039.108-5.485 1.285-1.657 2.036-2.485 3.642-3.313 1.254-.649.814-1.479.56-1.813m-85.478 36.565c-.23-.263-.468-.524-.716-.782a14.586 14.586 0 0 0-1.668-1.5c-.033-.026-.065-.047-.095-.073-1.076-.792-2.21-1.294-3.277-1.169-.04.005-.074.015-.11.023-.03.007-.063.012-.093.018a1.461 1.461 0 0 0-.622.294l-.015.016c-.635.551-.683 1.671-.479 2.976.017.096.034.195.052.289.157.872.415 1.809.675 2.702.102.353.203.696.302 1.028.183.618.35 1.193.46 1.674l.005.017c.173.753.214 1.29-.019 1.45-.307.211-.551.335-.744.396-.472.152-.65-.048-.985.06-.413.133-.105-1.129-.02-2.056.012-.133.02-.26.02-.374 0-.455-.077-.944-.232-1.285-.158-.347-.394-.54-.713-.39-.16.08-.26-.101-.316-.412a3.133 3.133 0 0 1-.039-.285c-.101-.989.041-2.644.041-2.644s-1.127-.931-1.826-1.351c-.278-.166-.489-.254-.533-.169-.063.123-.127-.162-.215-.54-.124-.546-.294-1.283-.573-1.283-.083 0-.165-.05-.248-.126a1.445 1.445 0 0 1-.143-.158c-.351-.439-.725-1.237-1.18-1.237h-1.417l.001.103.04 2.707c.018 1.468.023 2.038.024 2.265.006.913.007 1.788-.002 2.464-.002.185-.006.35-.01.503-.01.399-.027.678-.053.772-.045.176-.222.493-.451.852-.562.886-1.437 2.035-1.437 2.035s-.472 5.017-.472 5.473l.6-.268 2.758-1.237 2.552-1.142 13.755-6.166s-.354-.578-.942-1.395c-.439-.611-1-1.343-1.64-2.075" fill="#F4731C"/><path d="M34.24 114.207a30.686 30.686 0 0 0-.46-1.674l-1.515-.118c.155.341.232.83.232 1.285 0 .114-.008.241-.02.374l1.764.133" fill="#432C91"/><path d="M29.097 119.46c1.648-.7 13-5.521 14.555-6.183-.51-1.17-1.762-4.033-2.295-5.252-.372.164-.919.41-1.53.686.639.732 1.2 1.464 1.639 2.075.588.817.942 1.395.942 1.395l-13.755 6.166.444 1.112m3.325-13.559l-1.02-1.261-1.99 2.694c.699.42 1.826 1.35 1.826 1.35s-.142 1.656-.04 2.645l2.28.177c-.26-.893-.518-1.83-.675-2.702a11.806 11.806 0 0 1-.052-.289c-.204-1.305-.156-2.425.48-2.976l-.81.363m63.389 7.827L67.626 73.354h-13.8v8.952h3.957v41.493h-3.956v8.671H71.39v-8.67h-3.764V92.096l28.186 40.374h13.798v-8.95h-3.956V82.026h3.956v-8.672H92.046v8.672h3.765v31.702" fill="#432C91"/><path d="M170.038 128.428l-4.177-.326s-2.306 1.483-2.45 1.577c-.135.073-2.45 1.364-3.34 1.861l-5.712.216c-.422-.097-1.21-.28-2.082-.48-.523-.677-.925-1.194-1.479-1.909l.15-1.396 5.033-4.29c.238-.132.687-.377 1.337-.732l1.26.399 7.29 3.54s3.278.682 5.843 1.218l-1.673.322zm25.446 32.62l-11.138-4.698c-.351-.218-4.815-3.009-5.78-3.61-.342-.566-.719-1.196-1.136-1.887l.183-2.132a7233.51 7233.51 0 0 1 4.546-2.773l4.592-5.94c.707-.387 3.406-1.87 3.406-1.87l.733-3.402-.882-1.255c.228-.528 1.079-2.518 1.079-2.518l-2.266-3.29-2.827-.052-2.721 1.449-6.57 2.363-2.65 4.629-.744.514-1.102-.35-1.383-.845-.228-.659 2.05-1.477 1.3-2.37-.78-2.467 3.484.704-1.406-9.44s-4.731-4.494-6.053-5.747l.002-7.197 1.928-5.947-2.289-2.977h-52.803a4.155 4.155 0 0 1-.138.682l-.68 1.657c-.014.172-.009.365.01.58h52.093l.465.604-1.605 4.955-.004 8.866 6.233 5.917.656 4.337-6.179-1.289-7.147-3.47-2.743-.87-2.771 1.518-6.153 5.245-.394 3.667 2.841 3.665 3.547.82 6.873-.261 4.071-2.268 1.67-1.074 3.603.248-3.25 2.296 1.275 3.665 2.607 1.592 2.911.921 2.544-1.752 2.443-4.265 5.728-2.06 2.21-1.177.438.01.498.72-1.086 2.533 1.076 1.536-.194.9-2.766 1.521-4.638 5.997-5.344 3.26-.388 4.498 1.977 3.281 6.595 4.12 10.549 4.45.67.974-.452.97-1.434.382-7.072 2.664-.715-5.823-14.119-6.145-1.258-2.583-2.837-2.242-3.915 2.086-2.198 7.916 1.195.965-3.633 2.218-.764-.094-2.275-3.672-2.704-.718-2.6 1.097-1.373-1.394-2.704.31-4.336 4.364-3.86.206-1.423-1.26-5.095-1.075-7.28-9.394-5.006-.963-3.63-1.78-1.582-2.63-1.32-.544-.1-.069.692-2.152-3.93-1.241-1.517.586-2.212-.457-.123-.164-1.054-3.026-3.901.25-7.523 6.443 2.342 2.533-7.921.45-16.216-3.457-9.48-3.843-21.745 2.563-.322-.39-.543-1.355.617-.683.85-2.102 2.52-2.505 3.175-8.713-2.088-3.407.049-1.868.674-1.612-.153-2.457.168-.575-3.142 1.413.07 1.136c-.196.474-.623 1.495-.623 1.495l-.084 3.233 1.812 2.957c-.625 1.714-2.165 5.944-2.487 6.823l-2.48 2.468-.883 2.178-1.472 1.63 1.372 3.416 1.662 2.011 22.624-2.664 8.992 3.644 16.891 3.602 10.287-.584 2.988-1.65-3.183-3.447 4.482-3.838.55-.034.458 1.319 1.076 1.43 4.244.877s1.132-.438 1.353-.522c.022.005.033.01.057.017-.047.149-.101.313-.154.476l.82 1.735 1.045.7.679.277c.466.779 1.527 2.539 1.527 2.539l4.796 2.352 4.278.823 7.26 9.37s4.263.9 5.398 1.138l1.76 1.56 6.318-.34 4.412-4.438.13-.015 1.789 1.817 3.558-1.503.505.135 2.407 3.883 3.297.406 6.229-3.804-.413-2.918c-.295-.24-.539-.434-.657-.53.48-1.727 1.013-3.654 1.365-4.918.41-.22.504-.268 1-.534.358.284.507.4.726.575l1.444 2.96 13.578 5.91.971 7.927s10.285-3.871 10.564-3.978l2.656-.705 1.716-3.695-2.085-3.03z" fill="#432C91"/><path d="M139.384 63.982l-25.718 11.555v-1.103l24.683-11.09V58.31l-24.76 11.124h-2.457l28.252-12.693v7.24zm-27.359 20.38h-3.955v36.824h3.955v13.62h-17.5s-18.2-26.07-24.484-35.074v21.731h3.765v13.342H51.409v-13.342h3.956V84.64h-3.956V71.02h17.5l24.485 35.072v-21.73H89.63V71.018h22.395V84.36zM35.046 99.21l1.096 2.078c-1.312.588-1.764.792-2.894 1.3-.367-.454-.992-1.227-1.475-1.827a1224.3 1224.3 0 0 0 3.273-1.551zm90.212-37.96l-3.558 1.6-8.987 4.037c-1.848.83-3.745 1.68-5.673 2.548H87.99v16.51h3.764v14.965L69.782 69.435H49.77v16.789h3.955v7.163l-.777.349-3.884 1.746a2633.5 2633.5 0 0 1-5.368 2.41l-4.813-9.126-2.461 1.106-21.355 9.593-1.219.549-7.513 3.374-3.335 1.5s20.596 3.424 22.111 3.674c-.15.207-3.47 4.699-3.47 4.699l3.01.225c.23-.359.407-.676.452-.852.026-.094.042-.373.053-.772l-.34-.027.35-.476c.01-.676.008-1.55.002-2.464-.001-.227-.006-.797-.025-2.265-.48-.84-.958-1.682-1.221-2.144l1.182-.563-.001-.103h.218a4526.74 4526.74 0 0 0 5.068-2.402l-2.689 3.639c.048.06.095.114.143.158.083.075.165.126.248.126.28 0 .45.737.573 1.282l2.7-3.656 1.367 1.691 5.76-2.587c-.622-1.182-2.082-3.95-2.68-5.082l-14.271 6.77 1.582 2.782-14.385-2.392L38.1 90.956l4.813 9.127 10.811-4.856v1.103l-11.28 5.068-4.813-9.128-25.453 11.436 9 1.497-1.07-1.882 16.163-7.664 3.63 6.884-5.943 2.67c.037-.009.072-.019.111-.024 1.068-.125 2.2.377 3.277 1.17.03.025.062.046.095.071a14.56 14.56 0 0 1 1.668 1.501l2.784-1.25 3.11 7.118-16.483 7-.8-2.001-4.614 7.613 25.453-11.435-4.123-9.439 9.288-4.172v1.104l-7.946 3.569 4.123 9.437-29.364 13.194 5.563-9.178-2.758 1.237-7.087 11.703 24.603-11.053L44 119.963l4.18-1.877 3.96-1.78s-1.802-4.121-3.145-7.199l.76-3.02 3.192-1.433c.251-.112.51-.23.777-.348v15.572H49.77v16.512h25.676v-16.512H71.68v-14.963l21.972 31.475h20.013v-16.789h-3.956V85.945h3.956v-8.569l11.637-5.23 15.809-7.1V54.127l-15.854 7.124z" fill="#432C91"/><path d="M39.314 76.68l-1.706 3.669 1.03 2.13 2.162 1.598 1.461 3.389.73.887c-.06.537-.275 2.42-.275 2.42l1.35 1.374c.266.446 1.518 2.537 1.904 3.179l.26 1.43c.79-.357 1.741-.783 2.834-1.274l-.212-1.17-1.493-2.492-.857-1.431-.63-.643.257-2.267-1.24-1.51-1.611-3.734-2.217-1.64-.13-.27 1.719-3.695-3.145-6.232-4.56-3.828-.879-1.803V30.229h86.261l-.186 2.16 3.72 7.028.234 6.888 2.422 4.278 1.67 1.525-.048 1.832-3.67 1.841-1.403 2.055-1.366 5.013 3.558-1.598c.255-.937.472-1.736.602-2.208l.697-1.02 4.558-2.286.125-4.856-2.304-2.102-1.846-3.264c-.04-1.123-.232-6.845-.232-6.845l-3.636-6.87c.053-.628.387-4.489.387-4.489H31.045v38.107l1.436 2.95 4.58 3.843 2.253 4.469" fill="#432C91"/></g></svg>