<svg width="200" height="200" xmlns="http://www.w3.org/2000/svg"><g fill="none"><path d="M160.051 71.132s2.474 18.964-9.547 30.54c-3.223-1.886-7.147-1.599-7.147-1.599s7.897 5.807 9.214 24.385c0 0 7.51-10.555 5.665-21.294 1.493.683 2.777 1.79 3.843 2.992 7.855-23.84-2.028-35.024-2.028-35.024zm-40.263 12.295c.224-2.85 1.92-2.53 3.453-2.292 3.37.524 7.464-1.275 6.884-5.789 3.308.383 4.49 2.761 4.49 2.761-.233-7.365-8.29-9.348-10.723-8.448 0 0-6.246 10.105-10.56 2.715-1.738 3.943 3.36 6.324 6.456 11.053zM85.656 72.374c-4.314 7.39-10.56-2.715-10.56-2.715-2.434-.9-10.49 1.083-10.722 8.448 0 0 1.18-2.378 4.489-2.76-.58 4.513 3.514 6.312 6.884 5.788 1.533-.238 3.23-.558 3.453 2.292 3.096-4.729 8.195-7.11 6.456-11.053zm-30.096 27.7s-3.925-.288-7.148 1.598c-12.02-11.576-9.547-30.54-9.547-30.54s-9.883 11.185-2.028 35.024c1.066-1.203 2.35-2.309 3.844-2.992-1.846 10.739 5.664 21.294 5.664 21.294 1.317-18.578 9.215-24.385 9.215-24.385zM172.315 70.43c.257.4 13.05 25.111-1.927 54.171l-.003-.011a49.744 49.744 0 0 1-3.793 6.159s-1.555-6.363-4.745-9.741c-1.27 17.314-27.893 29.294-27.893 29.294 20.48-19.966 8.439-39.973 8.439-39.973s1.347 7.974-4.003 14.272c-4.91-21.59-16.419-28.683-16.419-28.683 4.541 5.952 5.506 23.85 4.849 31.593-.438 5.15-4.497 8.981-8.745 8.93-5.94-.073-11.21-2.772-12.727-4.308 0 0 6.474-2.349 8.109-5.364-1.32.246-2.963-5.08 5.716-5.264.614-.205.702-.643.493-1.195l.01.002c-2.786-14.18-8.032-15.69-20.182-15.69-12.15 0-17.396 1.51-20.182 15.69l.01-.002c-.209.552-.121.99.493 1.195 8.68.184 7.036 5.51 5.716 5.264 1.635 3.015 8.109 5.364 8.109 5.364-1.516 1.536-6.788 4.235-12.726 4.307-4.25.052-8.308-3.778-8.746-8.93-.657-7.742.308-25.64 4.849-31.592 0 0-11.51 7.093-16.418 28.683-5.351-6.298-4.004-14.272-4.004-14.272s-12.042 20.007 8.44 39.973c0 0-26.624-11.98-27.894-29.294-3.19 3.378-4.745 9.74-4.745 9.74a49.723 49.723 0 0 1-3.793-6.158l-.003.011c-14.976-29.06-2.184-53.771-1.927-54.17-3.62.999-4.801 1.83-4.801 1.83s4.674-11.44 10.983-16.784c-2.133-.07-6.182 1.37-6.182 1.37 1.132-3.345 7.046-13.622 13.889-19.294 2.745-3.038-6.178-6.982-9.717-2.58 1.937-8.724 15.128-5.553 15.128-5.553-12.19-10.44-24.447-1.006-23.457 10.437-6.814-18.37 15.75-33.515 35.856-16.3 0 0 13.523-3.712 24.965-1.549-.916-1.094-3.395-2.944-3.395-2.944 1.044.132 10.614.462 15.33 7.787 0 0-17.537-2.777-26.554 5.484 0 0 11.792-3.902 21.864 1.834 0 0-5.086.55-6.98 2.118 0 0 4.946.444 6.858 2.084-7.758 0-10.69 2.97-10.69 2.97 10.787-.062 18.75 6.328 19.724 7.39.973-1.062 8.937-7.452 19.724-7.39 0 0-2.932-2.97-10.69-2.97 1.912-1.64 6.858-2.084 6.858-2.084-1.894-1.569-6.98-2.118-6.98-2.118 10.072-5.736 21.864-1.834 21.864-1.834-9.017-8.261-26.555-5.484-26.555-5.484 4.717-7.325 14.287-7.655 15.331-7.787 0 0-2.479 1.85-3.395 2.944 11.442-2.163 24.965 1.548 24.965 1.548 20.105-17.214 42.67-2.068 35.856 16.301.99-11.443-11.266-20.877-23.457-10.437 0 0 13.191-3.17 15.128 5.552-3.539-4.4-12.462-.457-9.717 2.58 6.843 5.673 12.756 15.95 13.89 19.296 0 0-4.05-1.44-6.183-1.371 6.31 5.344 10.983 16.784 10.983 16.784s-1.182-.831-4.801-1.83zm-51.406 75.285c.75-.257 1.449.51 1.116 1.25-2.614 5.813-2.578 13.226-7.24 17.77-5.264 5.133-9.325 4.976-9.325 4.976.393-1.493.293-3.34-.715-4.216-.854 2.919-3.54 5.62-6.85 6.984 1.366-3.7-3.179-5.629-3.838-6.072l-.05.007c.22.41 1.5 2.98-.034 4.668-2.228-3.347-4.442-1.397-7.354-3.47-7.37-2.99-6.97-14.115-10.033-20.572-.352-.743.355-1.544 1.11-1.27 2.876 1.038 4.423 3.044 5.058 5.914 1.308 5.908 9.966 7.838 16.474 7.838 6.508 0 15.166-1.93 16.473-7.838.646-2.92 2.235-4.946 5.208-5.969z" fill="#FAB621"/><path d="M121.003 76.426a2.04 2.04 0 0 0 3.961-.794 2.04 2.04 0 0 0-1.064-1.687 5.912 5.912 0 0 1-2.897 2.481zm-45.915-2.481a2.04 2.04 0 0 0-1.064 1.687 2.04 2.04 0 1 0 3.961.795 5.914 5.914 0 0 1-2.897-2.482zm16.596 75.106c2.03.69 4.615 1.168 7.612 1.168 3 0 5.56-.481 7.558-1.172.137-.465.495-.88 1.122-1.133 1.575-.635 4.51-3.184 4.916-5.156.067-.324.736-.343.868-.025 1.996 4.8-.968 8.695-3.545 8.9-1.94.153-3.26-.673-3.411-1.902a4.454 4.454 0 0 0-1.457 2.687 28.623 28.623 0 0 1-5.984.619c-2.13 0-4.162-.22-6.012-.612a4.721 4.721 0 0 0-1.586-2.694c-.093 1.23-1.356 2.05-3.32 1.901-2.611-.197-5.63-4.1-3.894-8.9.114-.317.785-.298.87.026.511 1.972 3.481 4.52 5.087 5.156.64.254 1.017.67 1.176 1.137zm23.186-34.459c-3.43-5.767-11.156-4.01-15.768-2.28-4.612-1.73-12.337-3.487-15.768 2.28 4.514-4.598 13.707 1.308 15.768 1.308 2.06 0 11.255-5.907 15.768-1.308zm46.92-113.47c-7.12 0-14.325 2.097-20.988 6.09-5.669-1.675-12.765-2.648-19.548-2.648a69.15 69.15 0 0 0-7.46.395 5.254 5.254 0 0 0-3.34-1.332c-.056-.002-.112-.004-.169-.004-.065 0-.13.002-.195.004a5.546 5.546 0 0 0-.554.05c-3.9.503-7.472 1.944-10.08 3.141-2.629-1.206-6.237-2.662-10.174-3.153A5.276 5.276 0 0 0 85.12 4.96a69.169 69.169 0 0 0-7.461-.395c-6.783 0-13.88.973-19.548 2.647-6.662-3.992-13.869-6.09-20.988-6.09-11.391 0-21.476 5.46-26.976 14.607-3.23 5.37-4.781 11.879-4.483 18.82.28 6.527 2.136 13.403 5.522 20.477-1.957 3.462-3.445 6.965-3.523 7.15a5.277 5.277 0 0 0 .195 4.52c-2.465 5.25-5.742 13.854-6.842 24.24a5.275 5.275 0 0 0 1.199 3.941c-.985 8.77-.603 17.422 1.144 25.792 2.742 13.142 8.815 25.202 18.051 35.846a5.275 5.275 0 0 0 5.45 1.61c5.636 5.333 17.068 13.35 39.635 21.48a5.27 5.27 0 0 0 1.489.304c3.373 5.214 7.52 7.454 11.291 9.49 3.384 1.829 6.307 3.406 9.245 7.254a5.275 5.275 0 0 0 4.18 2.073h.011c.712 0 1.407-.144 2.047-.413a5.269 5.269 0 0 0 6.78.962c1.17-.742 2.497-1.643 3.8-2.726a5.316 5.316 0 0 0 1.654.266 5.22 5.22 0 0 0 1.831-.33c13.72-5.083 17.547-10.677 21.056-16.596a5.273 5.273 0 0 0 2.337-.283c22.627-8.153 34.121-16.177 39.79-21.496a5.278 5.278 0 0 0 1.513.222 5.274 5.274 0 0 0 3.985-1.817c9.235-10.644 15.309-22.704 18.052-35.846 1.746-8.37 2.128-17.022 1.144-25.792a5.283 5.283 0 0 0 1.199-3.94c-1.1-10.39-4.38-18.995-6.845-24.246.731-1.383.82-3.04.196-4.515-.078-.185-1.564-3.688-3.523-7.15 3.387-7.074 5.244-13.951 5.524-20.478.299-6.941-1.251-13.45-4.482-18.82-5.5-9.145-15.586-14.605-26.977-14.605zm0 5.276c20.132 0 35.32 19.802 19.908 48.869 2.463 3.684 4.695 8.962 4.695 8.962s-1.366-.294-2.281-.294c-.175 0-.332.01-.462.036 0 0 7.307 11.514 9.002 27.52l-1.965-1.323c2.965 16.66 1.968 40.836-17.168 62.888-.527-2.568-1.129-3.476-1.129-3.476s-5.998 12.104-41.962 25.06c0 0-.218-.79-1.792-2.821-5.518 8.215-5.968 13.91-21.646 19.719.46-1.6.373-3.554-.891-4.569-1.07 3.384-4.429 5.973-7.388 7.851.343-3.657-4.745-7.3-4.745-7.3s.894 3.14-1.256 5.928c-8.437-11.047-17.661-7.416-22.84-21.642-1.573 2.03-1.588 2.835-1.588 2.835-35.965-12.957-41.76-25.06-41.76-25.06s-.602.907-1.13 3.475C6.258 131.004 5.26 106.829 8.225 90.168L6.26 91.492c1.696-16.007 9.002-27.521 9.002-27.521a2.48 2.48 0 0 0-.461-.036c-.916 0-2.28.294-2.28.294s2.23-5.278 4.693-8.962C1.804 26.202 16.992 6.398 37.122 6.398c6.525 0 13.569 2.08 20.259 6.6 4.86-1.766 12.325-3.16 20.277-3.16 3.963 0 8.048.346 11.99 1.165a22.658 22.658 0 0 1-1.02-2.103c4.36.546 8.444 2.62 10.828 3.753 2.384-1.133 6.469-3.207 10.829-3.753 0 0-.436 1.055-1.022 2.103 3.943-.817 8.028-1.164 11.991-1.164 7.953 0 15.416 1.393 20.278 3.16 6.688-4.52 13.734-6.601 20.259-6.601z" fill="#FFF"/><path d="M48.412 101.672c-12.02-11.576-9.547-30.54-9.547-30.54s-9.883 11.185-2.028 35.024c1.066-1.203 2.35-2.308 3.844-2.992-1.846 10.739 5.664 21.294 5.664 21.294 1.317-18.578 9.215-24.385 9.215-24.385s-3.925-.287-7.148 1.6zm29.573-25.246a5.913 5.913 0 0 1-2.897-2.481 2.04 2.04 0 0 0-1.064 1.687 2.04 2.04 0 1 0 3.961.795zm7.67-4.052c1.74 3.943-3.359 6.324-6.455 11.053-.224-2.85-1.92-2.53-3.453-2.292-3.37.524-7.464-1.275-6.884-5.789-3.309.383-4.49 2.761-4.49 2.761.233-7.365 8.29-9.348 10.723-8.448 0 0 6.246 10.105 10.56 2.715zm90.817-32.516c6.814-18.37-15.75-33.515-35.856-16.3 0 0-13.523-3.712-24.965-1.549.916-1.094 3.395-2.945 3.395-2.945-1.044.133-10.614.463-15.331 7.788 0 0 17.538-2.777 26.555 5.484 0 0-11.792-3.902-21.864 1.834 0 0 5.086.55 6.98 2.118 0 0-4.946.444-6.858 2.084 7.758 0 10.69 2.97 10.69 2.97-10.787-.062-18.75 6.328-19.724 7.39-.973-1.062-8.937-7.452-19.724-7.39 0 0 2.932-2.97 10.69-2.97-1.912-1.64-6.858-2.084-6.858-2.084 1.894-1.569 6.98-2.118 6.98-2.118-10.072-5.736-21.864-1.834-21.864-1.834 9.017-8.261 26.555-5.484 26.555-5.484-4.717-7.325-14.287-7.655-15.331-7.788 0 0 2.479 1.85 3.395 2.945-11.442-2.163-24.965 1.548-24.965 1.548-20.105-17.214-42.67-2.068-35.856 16.301-.99-11.443 11.266-20.877 23.457-10.437 0 0-13.19-3.17-15.128 5.552 3.54-4.4 12.462-.457 9.717 2.58-6.843 5.673-12.757 15.95-13.89 19.296 0 0 4.05-1.44 6.183-1.371-6.31 5.344-10.983 16.783-10.983 16.783s1.181-.83 4.801-1.83c-.257.4-13.05 25.111 1.927 54.171l.003-.011a49.689 49.689 0 0 0 3.793 6.159s1.555-6.363 4.745-9.741c1.27 17.314 27.893 29.294 27.893 29.294-20.48-19.966-8.439-39.973-8.439-39.973s-1.347 7.974 4.004 14.272c4.908-21.59 16.418-28.683 16.418-28.683-4.541 5.952-5.506 23.85-4.849 31.593.438 5.15 4.497 8.981 8.746 8.93 5.938-.073 11.21-2.772 12.726-4.308 0 0-6.474-2.349-8.109-5.364 1.32.246 2.964-5.08-5.716-5.264-.614-.205-.702-.643-.493-1.195l-.01.002c2.786-14.18 8.032-15.69 20.182-15.69 12.15 0 17.396 1.51 20.182 15.69l-.01-.002c.209.552.121.99-.493 1.195-8.68.184-7.036 5.51-5.716 5.264-1.635 3.015-8.11 5.364-8.11 5.364 1.517 1.536 6.789 4.235 12.728 4.307 4.248.052 8.307-3.778 8.745-8.93.657-7.742-.308-25.64-4.849-31.592 0 0 11.51 7.093 16.419 28.683 5.35-6.298 4.003-14.272 4.003-14.272s12.042 20.007-8.44 39.973c0 0 26.624-11.98 27.894-29.294 3.19 3.378 4.745 9.74 4.745 9.74a49.73 49.73 0 0 0 3.793-6.158l.003.011c14.977-29.06 2.184-53.771 1.927-54.17 3.62.999 4.801 1.83 4.801 1.83s-4.674-11.44-10.983-16.784c2.133-.07 6.182 1.37 6.182 1.37-1.133-3.345-7.046-13.622-13.89-19.294-2.744-3.038 6.179-6.982 9.718-2.58-1.937-8.724-15.128-5.553-15.128-5.553 12.19-10.44 24.447-1.006 23.457 10.437zm-61.602 74.734c-3.43-5.767-11.156-4.01-15.768-2.28-4.612-1.73-12.337-3.487-15.768 2.28 4.514-4.598 13.707 1.308 15.768 1.308 2.06 0 11.255-5.907 15.768-1.308zm-23.186 34.459c-.159-.467-.536-.883-1.176-1.137-1.606-.635-4.576-3.184-5.087-5.156-.085-.324-.756-.343-.87-.025-1.737 4.8 1.283 8.702 3.893 8.9 1.965.148 3.228-.672 3.321-1.902a4.72 4.72 0 0 1 1.586 2.694 29.12 29.12 0 0 0 6.012.612c2.132 0 4.15-.225 5.984-.619a4.454 4.454 0 0 1 1.457-2.687c.15 1.229 1.472 2.055 3.41 1.901 2.578-.204 5.542-4.1 3.546-8.9-.132-.317-.801-.298-.868.026-.406 1.972-3.34 4.52-4.916 5.156-.627.253-.985.668-1.122 1.133-1.998.69-4.559 1.172-7.558 1.172-2.997 0-5.582-.478-7.612-1.168zm29.225-3.335c-2.973 1.023-4.562 3.049-5.208 5.969-1.307 5.908-9.965 7.838-16.473 7.838-6.508 0-15.166-1.93-16.474-7.838-.635-2.87-2.182-4.876-5.057-5.915-.756-.273-1.463.528-1.11 1.271 3.062 6.457 2.663 17.583 10.032 20.572 2.912 2.073 5.126.123 7.354 3.47 1.534-1.688.255-4.258.034-4.668l.05-.007c.66.443 5.204 2.372 3.837 6.072 3.31-1.363 5.997-4.065 6.851-6.984 1.008.876 1.108 2.723.715 4.216 0 0 4.06.157 9.326-4.975 4.661-4.545 4.625-11.958 7.239-17.771.333-.74-.367-1.507-1.116-1.25zm69.778-55.548c2.965 16.66 1.968 40.836-17.168 62.888-.527-2.568-1.129-3.476-1.129-3.476s-5.998 12.104-41.962 25.06c0 0-.218-.79-1.792-2.821-5.518 8.215-5.968 13.91-21.646 19.719.46-1.6.373-3.554-.891-4.569-1.07 3.384-4.429 5.973-7.388 7.851.343-3.657-4.745-7.3-4.745-7.3s.894 3.14-1.256 5.928c-8.437-11.047-17.661-7.416-22.84-21.642-1.573 2.03-1.588 2.835-1.588 2.835-35.965-12.957-41.76-25.06-41.76-25.06s-.602.907-1.13 3.475C6.258 131.004 5.26 106.829 8.225 90.168L6.26 91.492c1.696-16.007 9.002-27.521 9.002-27.521-.81-.158-2.742.258-2.742.258s2.231-5.278 4.694-8.962C-3.192 16.78 30.054-5.468 57.381 12.999c7.283-2.647 20.413-4.456 32.268-1.996A22.658 22.658 0 0 1 88.627 8.9c4.36.546 8.445 2.62 10.83 3.753 2.383-1.133 6.468-3.207 10.828-3.753 0 0-.436 1.055-1.022 2.103 11.855-2.46 24.985-.651 32.269 1.996 27.327-18.467 60.571 3.78 40.166 42.268 2.463 3.684 4.695 8.962 4.695 8.962s-1.934-.416-2.742-.258c0 0 7.306 11.514 9 27.52l-1.964-1.323zm-65.723-14.536a2.04 2.04 0 0 0-1.064-1.687 5.912 5.912 0 0 1-2.897 2.481 2.04 2.04 0 0 0 3.961-.794zm9.65 2.475s-1.18-2.378-4.489-2.76c.58 4.513-3.514 6.312-6.884 5.788-1.533-.238-3.229-.558-3.453 2.292-3.096-4.73-8.194-7.11-6.456-11.053 4.314 7.39 10.56-2.715 10.56-2.715 2.434-.9 10.49 1.083 10.722 8.448zm15.89 23.565c12.02-11.576 9.547-30.54 9.547-30.54s9.883 11.185 2.028 35.024c-1.066-1.203-2.35-2.308-3.843-2.992 1.845 10.739-5.665 21.294-5.665 21.294-1.317-18.578-9.214-24.385-9.214-24.385s3.924-.287 7.147 1.6z" fill="#0F2B53"/></g></svg>