<svg width="200" height="200" xmlns="http://www.w3.org/2000/svg"><g fill-rule="nonzero" fill="none"><path d="M198.233 116.073s.688-3.155-1.513-6.154c-2.377-3.24-6.494-2.974-6.494-2.974-1.062-1.25-3.734-2.657-6.984-1.275-3.249 1.38-3.313 4.997-3.313 4.997l-5.006-.535c-.067-1.39-.254-2.903-.335-4.549-.135-2.743.266-4.547.608-5.556 4.247-.395 6.372-2.307 6.372-2.307-1.299-1.22-2.182-2.287-2.768-3.087 3.351-.159 6.37-1.65 6.37-1.65-5.262-2.995-6.153-5.921-6.153-5.921 3.227-1.17 5.161-2.65 6.166-3.605-3.797-.3-8.06-3.364-11.886-12.535-6.347-15.214-20.34-15.337-25.406-14.839 2.482 1.871 3.137 3.39 3.137 3.39-10.784-.678-18.926 4.591-18.926 4.591-12.391-12.33-29.96-12.894-36.509-12.624 1.474 1.655 2.369 3.105 2.369 3.105-26.792-3.348-44.47 11.527-48.578 15.415 3.608-.048 6.495.25 6.495.25-11.006 7.943-29.133 7.786-29.133 7.786.953 2.328 3.383 5.892 3.383 5.892l-3.28 12.04-3.086-11.579H10.797L7.654 95.488h2.594L5.663 112.04H3.045L0 123.175l15.476.014 3.42-12.197 3.167 12.223h27.272c9.264 0 12.788-2.933 12.788-2.933 41.058 9.582 23.92 29.233 23.92 29.233 26.975-4.247 34.12-14.188 34.12-14.188-.28 4.51-2.324 7.712-2.324 7.712 22.134-5.76 23.197-22.904 23.197-22.904 5.041 2.067 1.81 7.404 1.81 7.404 1.38.487 2.907.594 2.907.594-.802 1.26-2.408 2.685-2.408 2.685 11.896 2.347 15.338-5.767 15.338-5.767 4.29-1.006 5.818-4.517 5.818-4.517 4.039-.375 6.385-2.141 6.385-2.141l3.98 2.595s-1.334 1.908-.648 4.676c.688 2.766 3.418 3.85 3.418 3.85.414 1.362 2.643 5.075 7.365 5.075 4.724 0 6.618-3.87 6.618-3.87s4.107-.72 6.488-5.07c2.688-4.91.126-9.576.126-9.576" fill="#FBBF16"/><path d="M175.886 85.099c1.867.41 3.548.171 4.926-.708l.521-.334-.582-.208c-.052-.02-5.29-2.007-9.548-12.997-4.162-10.745-12.586-11.579-15.07-11.579-.237 0-.468.008-.689.02l-.816.043.648.499a13.403 13.403 0 0 1 2.696 2.848c-6.195-2.18-12.706-2.07-18.686.395l-.996.41 1.064.171c.029.004 2.578.425 4.962 1.812-3.123.37-6.702 1.562-9.608 4.578-11.447-14.167-26.975-16.312-34.384-16.45 2.542 2.828 3.46 5.286 3.46 5.286-20.32-7.917-40.285 2.91-49.428 9.194 5.79-1.05 8.515-.15 8.515-.15-13.217 11.671-32.376 11.81-32.376 11.81s1.015 1.587 3.487 3.935l23.246.024c3.236.003 5.786.258 7.792.781 2.318.602 4.236 1.84 5.699 3.678 1.058 1.344 1.828 2.944 2.3 4.765 0 .002.002.002.002.002.206-.572.444-1.127.72-1.66a13.594 13.594 0 0 1 3.81-4.532c1.546-1.186 3.37-2.11 5.418-2.74 1.996-.616 4.234-.927 6.649-.927 5.607.005 9.033 1.79 10.9 3.246l.68-2.57 37.073.04-3.534 12.533-2.548-.002-4.704 16.965c-1.996 6.822-9.098 11.382-17.683 11.382-.21 0-.424-.004-.637-.01-6.29-.17-9.472-2.69-11.033-4.772-1.033-1.382-1.685-3.016-1.94-4.771-.128.29-.261.577-.406.857a14.818 14.818 0 0 1-3.85 4.695c-1.563 1.262-3.405 2.25-5.474 2.941a19.89 19.89 0 0 1-5.092.969c6.785 4.085 10.894 9.415 10.894 15.248 0 2.336-.66 4.591-1.886 6.72 21.675-4.238 29.207-12.575 31.826-17.914 2.18 6.312-.487 10.996-.487 10.996 13.512-5.724 16.906-14.695 17.407-21.143 2.292-.137 4.208.49 5.593 1.868 2.269 2.264 1.162 5.077.77 5.886l-.149.306.32.113c.59.207 1.3.318 2.054.318.443 0 .93-.052 1.43-.138-.15.694-.51 1.453-1.235 2.22 0 0 7.634-.002 9.465-5.717 1.82.039 4.406-.715 5.944-4.713 1.072.126 5.397.376 8.015-3.472 1.977-2.91 1.824-4.633 1.61-7.019-.202-2.28-.454-5.108.835-10.288.318.067.863.155 1.524.155 1.022 0 1.958-.206 2.781-.614l.377-.187-.295-.299c-1.01-1.021-2.273-2.68-2.812-4.959 1.565.907 3.256 1.147 4.968.7l.695-.18-.615-.372c-.03-.019-3.032-1.88-4.513-6.984" fill="#024D36"/><path d="M146.997 140.849h-1.168v-3.408h-.127l-1.07 2.384h-.818l-1.084-2.426h-.157v3.45h-1.107v-4.358h1.895l.88 2.13.914-2.13h1.842v4.358Zm-6.223-3.413h-1.246v3.413h-1.175v-3.413h-1.245v-.945h3.666v.945Z" fill="#FBBF16"/><path d="m194.21 117.016-.036-.057.018-.063c.118-.443.176-.89.176-1.332 0-2.638-1.977-4.787-4.408-4.787-.476 0-.947.085-1.406.253l-.134.05-.063-.128c-.554-1.148-1.633-1.858-2.82-1.858-1.623 0-2.964 1.326-3.158 3.032l7.015.97s.772.799.167 2.594l-1.936.923-12.527-3.423c-.11.517-.25 1.025-.43 1.524l17.138 6.503.042 1.736-2.345.524L174.096 116c-.2.37-.422.732-.679 1.08l12.618 6.898c-.602 1.666-2.29 1.664-2.29 1.664l-5.675-4.106a3.02 3.02 0 0 0 3 3.362c.049 0 .095-.013.147-.015a4.8 4.8 0 0 0 7.902 2.391l.01-.03.105-.003c3.338-.102 5.952-3.014 5.952-6.634a7.06 7.06 0 0 0-.975-3.591" fill="#FFF"/><path d="M196.658 116.337a7.07 7.07 0 0 0 .119-1.282c0-3.583-2.698-6.498-6.012-6.498-.312 0-.629.029-.964.09-.955-1.327-2.386-2.086-3.937-2.086-2.742 0-4.975 2.4-4.997 5.356l-5.49-.758c-.028.403-.068.805-.13 1.206l14.314 3.325c.605-1.795-.167-2.595-.167-2.595l-7.015-.969c.194-1.706 1.535-3.032 3.158-3.032 1.187 0 2.266.71 2.82 1.858l.063.129.134-.051c.459-.168.93-.253 1.406-.253 2.43 0 4.408 2.149 4.408 4.787 0 .441-.058.89-.176 1.332l-.018.063.037.057a7.06 7.06 0 0 1 .975 3.591c0 3.62-2.614 6.532-5.952 6.634l-.105.002-.038.097c-.696 1.76-2.285 2.899-4.05 2.899-2.116 0-3.935-1.64-4.329-3.895l-.021-.126-.13-.006c-1.732-.052-3.09-1.571-3.09-3.456 0-.506.108-.993.299-1.44l5.975 4.326s1.688.002 2.29-1.664l-12.618-6.898c-.171.233-.36.459-.561.679l4.008 2.903a4.604 4.604 0 0 0-1.324 3.249c0 2.056 1.277 3.81 3.118 4.297.902 2.892 3.39 4.828 6.218 4.828 2.5 0 4.74-1.499 5.862-3.919 3.973-.397 7.075-4.06 7.075-8.384 0-1.548-.401-3.067-1.155-4.396" fill="#024D36"/><path d="m192.5 120.48-17.69-6.192c-.114.36-.246.716-.4 1.063l17.438 7.602c.993-1.23.653-2.473.653-2.473M41.018 93.662l2.096-7.421-11.698-.013-3.89 14.282c-.14.545-.267 1.065-.384 1.56-.118.496-.229.998-.33 1.512a15.836 15.836 0 0 0-.253-1.46 31.38 31.38 0 0 0-.398-1.564l-3.824-14.34-10.135-.01-2.093 7.423 2.58.002L7.075 113.9l-2.613-.004-2.029 7.423 11.636.013 4.262-15.2a17.92 17.92 0 0 0 .36-1.612c.108-.598.192-1.084.251-1.461.1.48.194.982.275 1.513.08.528.19 1.031.324 1.51l3.96 15.259 7.233.007 7.682-27.689 2.602.003M97.348 97.047l2.286-8.127c-1.285-1.245-4.274-3.293-9.99-3.298-2.182-.002-4.155.27-5.922.815-1.765.542-3.305 1.318-4.614 2.322a10.979 10.979 0 0 0-3.098 3.684c-.753 1.45-1.19 3.08-1.315 4.888-.068 1.024.003 1.93.217 2.714.215.788.528 1.493.938 2.127a7.78 7.78 0 0 0 1.448 1.665c.552.479 1.137.921 1.748 1.333l3.37 2.252c.961.65 1.702 1.204 2.226 1.667.52.46.755 1.085.702 1.87-.061.889-.457 1.639-1.186 2.25-.73.615-1.85.92-3.36.92-.773-.001-1.448-.08-2.024-.234a12.18 12.18 0 0 1-1.696-.589l1.282-4.68-7.246-.007-2.816 10.147c1.916 1.315 5.768 3.292 11.604 3.298 2.116.002 3.965-.295 5.75-.89 1.788-.596 3.347-1.43 4.678-2.505a12.213 12.213 0 0 0 3.188-3.888c.79-1.517 1.251-3.197 1.376-5.042.07-1.022-.026-1.962-.287-2.816a8.25 8.25 0 0 0-1.101-2.303 8.774 8.774 0 0 0-1.689-1.818 24.065 24.065 0 0 0-1.99-1.462l-2.36-1.538c-.901-.581-1.703-1.129-2.406-1.641-.703-.513-1.03-1.126-.983-1.844.058-.818.442-1.536 1.154-2.149.714-.613 1.742-.92 3.084-.92a7.673 7.673 0 0 1 2.784.516l-.962 3.277 7.21.006M60.657 101.977a33.026 33.026 0 0 1-1.01 3.735 24.243 24.243 0 0 1-1.356 3.273c-.504.99-1.014 1.808-1.526 2.456-.552.683-1.275 1.202-2.171 1.56-.9.358-2.238.553-4.019.586l5.42-19.603 1.255.002c1.578.001 2.657.302 3.238.899.579.599.815 1.7.706 3.303a27.423 27.423 0 0 1-.537 3.79Zm9.889-8.414c-.386-1.484-.995-2.755-1.829-3.814-1.113-1.401-2.56-2.334-4.34-2.796-1.78-.463-4.164-.695-7.15-.698l-11.264-.013-2.095 7.423 2.58.003-5.614 20.267-2.959-.004-2.094 7.42 12.5.014a71.49 71.49 0 0 0 3.809-.099 23.332 23.332 0 0 0 3.809-.508 19.014 19.014 0 0 0 3.606-1.173 13.222 13.222 0 0 0 3.288-2.094c1.106-.956 2.129-2.167 3.068-3.633a31.453 31.453 0 0 0 2.493-4.786 34.979 34.979 0 0 0 1.752-5.396c.447-1.875.731-3.688.85-5.427.112-1.638-.026-3.2-.41-4.686ZM116.241 110.06c-.979 3.35-3.197 4.202-5.187 4.202-2.484-.003-2.748-1.214-2.328-3.37l6.815-24.578-12.376-.014-1.967 7.422 2.618.004-4.838 17.007c-1.356 5.147.952 11.107 10.256 11.36 7.309.2 14.017-3.45 15.787-9.499l5.227-18.841 2.553.002 2.094-7.42-12.146-.014-6.508 23.738" fill="#024D36"/><path d="M152.767 76.093c.287-4.051 4.95-7.055 10.614-7.006-1.885-1.357-4.216-2.244-6.787-2.427-6.762-.477-12.593 4.08-13.025 10.18-.156 2.247.447 4.387 1.605 6.221.302-4.625 3.119-6.59 3.119-6.59s-1.586 4.159 2.182 7.788a2.68 2.68 0 0 0 3.897-3.671c-1.125-1.328-1.72-2.874-1.605-4.495" fill="#FFF"/><path d="M170.148 88.608c-.038-.44-.09-.864-.156-1.266.97.265 1.96.463 2.939.603-1.048-1.482-1.903-3.034-2.643-4.552-1.229-2.521-2.847-3.683-4.349-4.17a.716.716 0 0 0 .02-.06c.282-.57.441-1.202.441-1.87 0-.83-.245-1.605-.668-2.276a3.358 3.358 0 0 0-1.023-1.142 5.142 5.142 0 0 0-3.231-1.12c-2.717 0-4.92 2.033-4.92 4.539 0 1.588.886 2.983 2.224 3.793.066 4.66-3.661 7.732-7.994 7.732-3.542 0-6.569-1.191-8.033-3.05 0 0 .673 1.369.854 3.48-1.148-.129-2.491.057-4.026.78 0 0 2.471 1.193 2.976 4.223.278 1.67.328 2.893.794 3.72-1.454.873-2.877 2.285-3.353 4.55 0 0 5.556-4.456 11.91-.807 0 0-5.78-.483-7.643 5.412 0 0 3.754-2.984 8.18-1.5 0 0-5.58 1.926-5.58 7.756 0 4.498 4.972 5.997 3.804 8.925 1.514-.834 3.178-2.477 3.75-5.716 0 0 .496 2.469 2.965 2.469 1.31 0 2.043-.861 2.399-1.89l-4.55-4.564-2.994.042c-.04-.88.173-1.537.49-2.032.342-.7 1.085-1.596 2.697-1.827 2.748-.395 4.23 3.225 4.477 3.835.243.608 1.038 3.326 4.789 2.635 3.755-.692 2.768-6.372-.442-3.902 0 0-6.62-4.988.098-8.1 0 0 .366 2.245 4.51 3.73-.322-2.099.323-5.44 1.02-10.198a40.01 40.01 0 0 0 .314-2.865c1.932 1.341 3.827.897 3.827.897-2.186-2.139-3.301-4.428-3.873-6.214" fill="#FBBF16"/><path d="M163.33 95.502a2.54 2.54 0 0 1-2.207-2.83c.087-.698.456-1.29.974-1.687a2.846 2.846 0 0 0-2.606 2.49 2.852 2.852 0 0 0 2.476 3.177 2.83 2.83 0 0 0 2.337-.806c-.08-.122-.161-.236-.24-.372-.238.041-.48.06-.734.028" fill="#FFF"/><path d="M167.355 97.882s-1.802-3.829-1.015-8.499c0 0-.682.135-1.415.617-1.149-5.236-3.755-5.473-4.288-5.464.417.655.814 1.504 1.158 2.583-2.184.09-3.938 1.76-4.054 4.015-.093 1.754.83 3.39 2.252 4.32a2.814 2.814 0 0 1-.502-1.98 2.846 2.846 0 0 1 2.606-2.49 2.52 2.52 0 0 0-.346.321l-.029.034a2.548 2.548 0 0 0-.275.378 2.456 2.456 0 0 0-.218.504c-.05.144-.086.293-.106.451a2.54 2.54 0 0 0 2.207 2.83c.253.032.496.013.734-.028.079.136.16.25.24.372-.029.028-.06.053-.089.08.037-.016.071-.034.108-.052.974 1.452 2.112 1.926 3.032 2.008M164.976 101.06s-5.621.3-6.232 4.523c0 0-3.193-7.7 6.232-4.522" fill="#024D36"/><path d="M57.037 78.892c5.172-2.885 17.948-9.105 31.922-9.105 3.864 0 7.593.476 11.085 1.413 2.017-2.246 4.27-3.945 6.707-5.06-1.683-.527-6.405-1.792-12.888-1.792-9.237 0-22.94 2.582-36.826 14.544" fill="#FFF"/></g></svg>