<svg width="200" height="200" xmlns="http://www.w3.org/2000/svg"><g fill="none" fill-rule="evenodd"><path d="M139.491 190.059a5.42 5.42 0 0 1-8.31 3.508c-.488.925-.842 1.577-.842 1.577l-3.924-1.784c-.025-.015-3.964-1.789-4.161-1.835-.075.236-.555 2.601-.555 2.609l-.513 3.447s-4.83-.437-7.784-1.3c-1.545-.448-3.336-1.13-3.891-1.395-.757 1.39-.79 1.06-1.23 1.785-.656 1.093-1.426 2.949-1.426 2.949s-5.849-1.502-7.31-2.039c-1.32-.466-4.14-2-4.448-2.193l-5.405 4.733s-4.142-3.07-5.382-4.36c-1.211-1.266-3.107-3.506-3.967-4.573l-3.121 1.906s-2.882-4.35-4.09-7.067c-1.899-4.264-2.207-10.665-2.207-10.665l-4.663-2.236 3.197-10.368-2.706-1.82 2.882-8.383-3.362-1.827s5.02-12.694 3.398-18.077l-1.524 2.95s-4.87-2.817-7.565-5.157c-2.637-2.279-4.465-4.006-6.042-6.569l-1.842 2.269s-3.756-4.853-5.11-8.472c-1.384-3.713-1.692-9.415-1.695-10.02l-1.832.71s-2.659-5.613-2.436-14.837c.082-3.376.38-6.852.792-8.83-.53-.563-5.96-6.734-7.282-8.989-3.774-6.462-5.505-15-5.505-15l1.319-.104c-.996-2.18-3.552-7.215-3.552-17.88 0-4.884.506-8.439.506-8.439l1.422.811c.083-1.425.008-4.418.315-6.149 1.341-7.617 1.821-7.86 4.362-12.24 1.24-2.145 3.655-5.186 3.655-5.186s1.18 2.977 2.136 4.777c1.61 3.018 2.434 4.27 4.974 7.212.008.01 4.218 3.56 5.727 4.668 3.237 2.36 7.107 5.752 10.41 11.03.825 1.313 1.96 3.416 3.015 5.43a87.1 87.1 0 0 1 1.66.047 38.02 38.02 0 0 0-.011-2.597c-.202-5.365-.993-7.676-1.793-12.99-.157-1.106-1.046-5.912-.785-8.222.918-8.12 11.35-9.932 15.89-10.545 4.624-.614 9.168-.614 11.124-.575 1.112-.444 3.029-1.152 4.803-1.572l.573-1.943c1.258-1.296 6.598-4.69 18.703-2.737 12.637 2.041 16.149 6.596 16.149 9.338l-.09 1.173c.412.266.842.543 1.233.805 1.135.758 3.032 2.52 3.032 2.52a62.86 62.86 0 0 1 4.407 1.332c1.778.608 3.853 1.398 5.891 2.378a97.155 97.155 0 0 0 1.986-4.65c2.448-6.2 4.684-15.247 4.684-15.247s5.15 5.2 7.555 9.157c1.605 2.657 3.461 7.178 3.461 7.178l2.591-2.51s2.606 9.11 3.061 16.463a71.31 71.31 0 0 1 .097 6.693l2.032-1.005s.419 2.782.508 4.57c.302 6.204-.118 11.69-2.24 20.225-1.053 4.268-1.906 6.384-2.612 8.131.971 1.864 2.408 4.808 3.33 8.299 1.824 6.945 2.07 18.57 2.07 18.57l-2.698-.709a35.828 35.828 0 0 1-.11 5.776c-.32 3.262-1.72 7.734-2.62 10.132-.896 2.426-5.032 10.504-5.032 10.504l-1.76-2.853c-.19.287-1.76 2.333-2.136 2.795-.043.68-.11 1.523-.189 2.444-.219 2.376-.735 5.666-1.971 8.745-1.387 3.44-5.734 14.757-5.734 14.757l-5.064-.896-.613 1.211-2.91 4.777 4.275 8.426-2.422 4.472c.458 1.663 2.014 5.677 1.591 14.923-.118 2.587-1.405 9.454-1.405 9.454l-2.939-.821" fill="#FFF" fill-rule="nonzero"/><path d="M71.537 148.495l3.563 1.932-3.007 8.719 2.613 1.76-3.029 9.854 3.742 1.792-.054 4.867c.53 5.286 3.33 9.676 3.33 9.676l3.253-1.864s.427 1.212 1.881 3.097c1.463 1.878 5.606 6.02 5.606 6.02l5.347-4.58s2.01 1.484 3.343 2.219c1.33.72 6.386 2.419 6.386 2.419s.832-.99 1.634-2.799c.613-1.373 1.918-2.577 1.918-2.577s2.093 1.011 3.107 1.68c1.025.664 6.285 2.083 6.285 2.083s.262-2.39 1.043-4.035c.774-1.652 1.574-2.48 1.574-2.48s1.362.566 2.93.834c1.575.285 5.452 2.262 5.452 2.262s.918-1.892 1.365-3.168c.398-1.121.846-2.935.846-2.935s2.674.502 4.38.94c1.688.426 3.855 1.164 3.855 1.164s1.162-7.404.348-12.113c-.495-2.828-1.803-7.3-1.803-7.3l2.168-4-4.332-8.554 4.107-6.744 2.01-4.028 4.735.831s3.042-7.927 4.436-11.389c2.01-5 1.806-11.206 1.806-11.206s-.054.311 2.477-2.97c2.526-3.291 3.235-8.193 3.235-8.193l2.233 3.63s3.129-6.414 3.652-11.783c.688-7.028-1.133-11.464-1.133-11.464l3.724.982s-.204-6.211-1.706-11.504c-1.502-5.29-4.042-9.314-4.042-9.314s1.57-2.622 3.411-10.12c2.297-9.33 2.022-17.002 2.022-17.002l-3.165 1.39s.857-7.645.631-11.906c-.219-4.256-1.143-9.126-1.143-9.126l-2.734 2.6s-.42-3.155-1.767-7.454c-1.352-4.297-4.81-8.64-4.81-8.64s-1.408 5.555-2.68 8.782c-1.33 3.358-3.939 8.556-3.939 8.556-5.34-3.862-14.542-5.974-14.542-5.974s-1.559-1.712-3.229-2.838c-1.53-1.033-3.655-2.271-3.655-2.271l.408-2.361s-.408-4.06-12.253-5.976c-11.049-1.784-14.22 1.471-14.22 1.471l-.441 2.512s-1.64.346-2.878.636c-2.358.557-5.002 1.715-5.002 1.715s-22.474-1.002-23.391 7.124c-.426 3.761.405 4.679.752 7.064.828 5.513 1.624 7.909 1.853 13.476.144 3.754-.372 8.535-.372 8.535s-1.409-.816-2.405-1.074c-.907-.24-2.394-.257-2.394-.257l1.236 3.135-3.39-.109s-3.687-7.497-5.608-10.569C51.286 32.278 43.48 29.6 41.485 27.134c-2.003-2.46-4.035-7.527-4.035-7.527s-2.183 3.188-3.401 10.112c-1.23 6.93-.025 11.197-.025 11.197l-2.258-1.048s-.276 7.097.627 12.121c.896 5.027 5.071 11.771 5.071 11.771l-2.161.271s1.57 5.8 3.698 9.416c2.118 3.616 8.314 9.907 8.314 9.907s-1.25 4.348-1.411 9.816c-.194 6.622 1.171 9.945 1.171 9.945l3.187-1.459s-.717 4.068-.323 8.293c.333 3.788 3.243 9.18 3.243 9.18l3.028-3.364s.979 3.534 2.104 5.562c2.261 4.092 8.594 8.335 8.594 8.335l1.988-4.841s4.792 1.742 5.09 9.824c.171 4.575-2.449 13.85-2.449 13.85" fill="#231F20" fill-rule="nonzero"/><path d="M104.457 13.433c.169-.96 3.899-1.097 8.322-.315 4.422.782 7.877 2.192 7.712 3.139-.168.957-3.9 1.098-8.317.317-4.43-.78-7.882-2.188-7.717-3.141m2.717 25.407c-20.13-3.557-34.676-10.001-34.214-15.997.15-1.896 3.165-2.768 7.02-2.57L75.896 22.3c-1.612 3.61 14.479 10.987 31.404 13.968 16.923 2.982 35.07 2.36 35.826-1.942l-4.963-4.929c3.76.746 8.494 4.252 8.279 5.919-.763 5.963-19.138 7.065-39.267 3.522" fill="#D01D2C" fill-rule="nonzero"/><path d="M118.115 88.895l.735-3.276 3.376-.286 1.48-4.355 2.74.556 2.373-4.195 2.37 1.054 2.727-4.56 1.956.299 1.25-6.408 1.717-.477.803-5.393 1.623-2.252 2.79 4.377 2.314-.238 1.476 4.47 2.882.848-.42 4.467 2.545 1.24-.616 5.066 2.146 1.852-1.716 4.186 1.917 3.182-2.767 3.523.677 5.122-3.013.788-.488 4.608-2.595.029-1.368 3.16-2.14-4.429s6.583-5.153 6.974-15.625c.487-13.485-7.794-20.163-7.794-20.163s.304 4.857-3.796 10.509c-4.404 6.064-7.927 6.379-11.073 8.583-3.143 2.196-4.741 4.827-4.741 4.827l-4.344-1.089" fill="#FFF"/><path d="M140.22 98.628c4.113-4.043 6.378-6.812 6.496-13.92.126-7.111-3.056-12.042-3.056-12.042s-.86 3.03-1.954 4.673c-.95 1.421-3 3.198-3 3.198s-.056.316-.333 2.86c-.3 2.541-2.343 5.903-2.343 5.903s4.067-2.842 5.741-4.978c1.67-2.14 1.871-4.207 1.871-4.207s1.035 5.203-.56 9.618c-1.59 4.426-5.067 6.723-5.067 6.723l2.204 2.172m-47.104-7.655l-1.265-2.92-3.802-1.137-2.079-5.955-3.472-.22-3.838-6.093-2.466.213-3.953-4.804-2.551 1.183-5.183-4.042-2.469 1.909-3.777-2.3-.462 3.827 2.075 5.12-1.803 1.744 1.538 5.025-1.96 4.694 1.974 3.269-1.14 6.469 2.66 2.243 1.221 5.536 2.943.724 1.587 4.71 4.082.717 3.01 3.64.99-5.203s-7.784-2.982-11.21-12.88c-2.283-6.587-.122-12.013.465-16.234.542-3.951-1.171-7.175-1.171-7.175s4.97.244 11.005 4.691c6.028 4.455 6.716 6.776 11.048 11.063 1.764 1.742 4.377 3.487 4.377 3.487l3.626-1.3" fill="#FFF"/><path d="M76.326 105.348c-5.118-2.67-7.824-4.516-10.014-11.279-1.143-3.548-.616-6.199.603-9.898.831-2.537.523-6.228.523-6.228s2.792 1.447 4.358 2.68c1.283 1.022 3.024 2.91 3.024 2.91s-.799 1.875-.616 4.43c.315 4.587 3.68 7.375 3.68 7.375s-3.845-2.43-5.468-4.616c-2.613-3.537-2.43-6.425-2.43-6.425s-2.896 7.379 1.05 13.098c2.673 3.863 6.425 5.462 6.425 5.462l-1.135 2.491m30.425-15.378s-1.269 3.504-9.604 4.79c-5.569.861-9.626 2.323-12.669 6.247l3.398.376-6.315 3.781c-3.003 5.72-1.483 11.053-1.483 11.053s1.343-1.426 2.332-2.18c1.233-.938 3.423-1.991 3.423-1.991s-1.602 2.644-2.81 5.826c-1.2 3.19-1.662 8.085-.767 11.698.9 3.565 1.237 7.633 5.032 10.12 4.874 3.204 9.519 2.05 14.256-3.644 3.738-4.502 12.543-8.555 21.682-8.433l-1.298 2.143c3.454.612 8.44 2.49 10.508 3.799 4.955 3.132 9.945 3.369 9.945 3.369s5.224-9.93 3.604-16.37c-.656-2.596-2.018-6.09-4.616-9.103-2.326-2.696-7.306-5.484-7.306-5.484l5.385-.179s-.265-2.512-5.009-6.557c-5.487-4.696-9.608-4.287-15.894-5.391-8.336-1.476-11.794-3.87-11.794-3.87" fill="#FFF"/><path d="M108.56 94.342c4.215 1.881 5.82 1.028 12.555 2.373 4.873.982 6.917 3.977 6.917 3.977s-8.448-2.548-17.855-1.684c-10.87.989-19.205 6.01-19.205 6.01s.262-3.362 2.853-5.172c2.59-1.817 9.805-2.322 14.736-5.504" fill="#231F20"/><path d="M129.482 105.322s-2.676-3.225-6.163-3.676c-3.477-.459-7.992-.602-12.955-.019-4.972.585-13.12 2.71-14.493 4.09-1.723 1.72-2.806 4.852-2.806 4.852s6.938-4.444 18.997-5.727c11.859-1.254 17.42.48 17.42.48" fill="#231F20"/><path d="M130.142 108.031s4.852 2.767 3.193 8.5c-.971 3.377-6.436 3.409-6.436 3.409s-.527 1.573-2.796 2.713c-3.974 1.985-8.232-.451-15.377 2.022-7.16 2.483-12.157-7.33-5.584-11.519-.283-2.967 2.463-5.62 12.93-6.185 11.533-.63 14.07 1.06 14.07 1.06" fill="#231F20"/><path d="M127.296 110.153c2.512.445 3.233 2.972 2.408 3.964-.816.982-2.766-.81-9.773-.591-6.353.203-8.07 1.645-10.216.952-1.548-.505-2.634-2.476-.681-3.429 1.95-.95 4.88-1.183 8.063-1.418 3.971-.295 5.795-.256 10.2.522m2.813 28.34s1.362.57 2.433.917c1.075.352 3.461.61 3.461.61s-.125 2.458-2.107 5.773c-2.168 3.624-4.547 4.089-4.547 4.089s.71-4.616.85-6.63c.128-1.96-.09-4.759-.09-4.759M97.992 167.18s-2.357-2.684-3.11-4.436c-.452-1.057-1.767-4.684-1.767-4.684s-1.326 2.229-1.44 5.415c-.072 2.476.598 3.996.598 3.996s1.093.877 2.72.845c1.623-.035 3-1.136 3-1.136" fill="#FFF"/><path d="M130.515 159.146l-4.838 4.11.179 2.588c.455.71.877 1.623.938 1.942.252 1.343 2.502 7.508-15.054 8.787-18.686 1.355-23.355.05-25.82-3.419-3.15-4.457.74-8.722.74-8.722s-.38-2.505-.347-4.114c.036-1.577.48-4.029.48-4.029l-3.437 1.09c-1.386 1.835-2.064 2.978-2.999 5.071-1.01 2.26-1.433 3.63-1.87 6.075 1.204.393 2.766 1.702 2.766 1.702-1.021 5.812.251 9.6.251 9.6l3.559-1.802s.695 2.168 1.333 3.476c1.157 2.376 3.885 5.544 3.885 5.544l4.325-4.888s2.02 1.964 3.612 3.053c1.595 1.09 4.029 2.007 4.029 2.007s1.014-2.086 1.307-2.853c.287-.756 1.853-2.645 1.853-2.645s1.706 1.144 3.326 2.086c1.616.929 4.874 2.337 4.874 2.337s.44-1.544 1.086-3.38c.648-1.824 2.028-3.207 2.028-3.207s1.73.395 3.741.917c2.018.517 4.207 1.786 4.207 1.786l1.656-5.226s2.322.093 7.619 1.348c.344-6.58-2.505-11.806-2.505-11.806l1.09-3.188-2.014-4.24" fill="#FFF"/><path d="M91.345 117.815l.416 2.387-2.717 2.354c-.097-1.15.054-1.881.606-2.9.465-.851.874-1.303 1.695-1.841m1.967 3.835l1.48 2.397-2.554 3.462c-.417-1.351-.43-2.261-.055-3.62.258-.95.527-1.469 1.129-2.24m2.996 3.874l2.082 1.897-1.501 4.035c-.778-1.187-1.036-2.057-1.043-3.47-.015-.974.093-1.555.462-2.462m42.385-8.815l-.302 2.404 2.85 2.23c.046-1.162-.148-1.889-.75-2.882-.516-.831-.946-1.265-1.798-1.752m-1.155 4.117l-1.046 2.628 3.136 2.985c.179-1.416.025-2.312-.585-3.599-.422-.881-.77-1.358-1.505-2.014m-2.673 3.957l-1.656 2.3 2.326 3.648c.506-1.325.581-2.235.305-3.622-.197-.968-.434-1.509-.975-2.326" fill="#231F20"/><path d="M122.641 168.937c-1.279.354-2.286.34-3.419.046-1.899-.501-3.053-1.197-3.053-1.197s-1.638 1.254-6.891 1.623c-5.25.376-9.673.14-9.673.14s-1.566 1.043-3.874 1.283c-1.562.165-3.472-.246-5.196-1.455-.315-.423-.448-.695-.61-1.19-.164-.487-.225-1.305-.225-1.305-1.756 1.535-1.466 3.463-.545 4.305 2.602 2.362 7.214 2.974 10.927 1.287 0 0 4.43.473 8.78-.044 2.423-.279 7.225-1.562 7.225-1.562 1.419.889 3.62 1.021 5.407.129.932-.462 1.426-1.244 1.147-2.06m-12.647-3.674c-.376-.537-.652-.817-1.089-1.297-1.136-1.244-2.154-1.628-2.154-1.628s-.925.79-1.312 1.578c-.25.508-.637 1.046-.91 1.759a7.18 7.18 0 0 0-1.114-1.544c-.61-.648-1.803-1.487-1.803-1.487s-1.455 1.257-1.82 2.264c-.363 1.015-.516 1.94-.516 1.94s1.12.26 2.516.265c2.003.007 2.856-.703 2.856-.703a5.23 5.23 0 0 0 2.565.703c1.083-.008 1.907-.295 2.602-.857 0 0 2.046.577 3.276.363.788-.138 1.867-.707 1.867-.707s-.276-1.122-.617-1.803c-.397-.795-1.354-1.91-1.354-1.91s-.681.2-1.922 1.58c-.515.589-.723.868-1.071 1.484" fill="#FFF" fill-rule="nonzero"/><path d="M127.4 136.4s-5.601-.655-8.88-.426c-3.885.275-11.25 1.573-11.25 1.573l4.645-2.43s2.273-1.212 5.415-1.311c3.906-.119 10.07 2.594 10.07 2.594" fill="#FFF"/><path d="M37.83 47.028s.634 5.496 1.67 8.886c1.404 4.57 6.041 10.785 6.041 10.785l-3.78.305s1.247 2.419 2.221 3.958c1.581 2.496 5.122 4.954 5.122 4.954s.319-3.392.04-6.64c-.32-3.602-2.502-7.892-2.502-7.892l3.716.98s-3.573-8.244-6.243-11.467l3.874 1s-.638-4.647-4.34-9.352c-4.55-5.766-4.21-7.94-4.69-9.251-.725 2.935-.91 5.777-.302 9.393.348 2.12 1.011 3.253 1.52 5.291-1.735-.8-2.348-.95-2.348-.95m119.197 18.755s1.251-3.39 2.044-6.934c.791-3.584 1.032-7.754 1.032-7.754l-3.416 1.015s1.086-6.001 1.563-9.773c.34-2.79.143-7.264.143-7.264l-2.942 2.887c.222-2.26.205-3.217.222-5.795.004-3.727-1.308-10.118-1.308-10.118s-.208 7.66-2.666 17.104c-2.021 7.746.286 18.45.286 18.45l3.695-1.623s-.602 2.886-.286 5.304c.34 2.654 1.633 4.501 1.633 4.501" fill="#FFF" fill-rule="nonzero"/><path d="M116.223 152.004c-1.577-2.405-2.236-4.416-2.225-5.505-.434.27-.62.595-1.075.882-.427.273-1.162.577-1.162.577s-1.753-.835-2.703-1.617a9.116 9.116 0 0 1-1.41-1.419c.085 2.079.454 4.064.508 4.344.362 2.128 1.355 5.984 1.355 5.984s-3.623.251-8.773-3.168c-2.62-1.745-4.516-3.87-5.662-6.479-1.237.588-2.817.795-2.817.795s3.25.897 2.806 7.06c-.29 4.057 1.899 6.45 11.317 6.612 8.156.147 12.346-4.239 9.841-8.066" fill="#D01D2C"/><path d="M104.572 139.984s-.495 2.781-.214 5.798c.293 3.146 1.128 5.548 1.128 5.548s-2.48-.943-4.763-3.62c-1.849-2.16-2.136-3.57-2.136-3.57s1.707-.974 2.749-1.683c1.312-.89 3.236-2.473 3.236-2.473m12.109 25.064s1.792-4.01 2.169-5.24c.383-1.228.773-4.128.773-4.128s2.058 2.638 2.334 6.085c.24 2.781-.065 4.043-.065 4.043s-1.734.652-2.83.47c-1.026-.173-2.38-1.23-2.38-1.23" fill="#FFF"/><path d="M114.885 141.002c.084.415.492.946.93 1.49 1.114 1.427 2.082 1.863 2.082 1.863s1.39-.913 1.82-1.852c.261-.59.623-1.448.667-1.974.268.545 1.085 1.411 1.555 1.87.756.77 1.953 1.377 1.953 1.377s1.01-.882 1.62-2.13c.555-1.128.767-2.135.767-2.135s-1.627-.781-2.717-.724c-1.72.082-3.312.903-3.312.903-.745-.47-1.758-.58-2.715-.552-1.09.043-1.864.355-2.595 1.032 0 0-2-.613-3.261-.394-1.233.208-2.878 1.387-2.878 1.387s.574 1.215 1.136 1.824c.788.856 2.523 1.577 2.523 1.577s.674-.38 1.544-1.75c.484-.745.617-1.397.881-1.812" fill="#FFF" fill-rule="nonzero"/><path d="M142.946 42.722s-3.738 6.47-5.103 9.63c-1.369 3.162-3.508 10.72-3.508 10.72s-1.064 2.181-2.552 3.446c-1.487 1.256-3.853 2.559-3.853 2.559l-1.382-1.38s-2.921 1.846-4.878 2.872c-1.813.954-4.767 2.237-4.767 2.237l-1.483-1.722s-2.308 1.2-3.874 1.748c-2.45.854-6.543 1.277-6.543 1.277s-4.029-1.416-6.294-2.895c-1.236-.804-3-2.31-3-2.31l-1.974 1.111s-2.673-1.76-4.146-3.162c-1.212-1.163-2.828-3.253-2.828-3.253l-1.849 1.294s-1.207-.932-3.143-3.312c-1.996-2.459-1.652-2.561-1.652-2.561l-1.953.959-2.312-2.516-1.526-2.374c.832-4.426 1.143-7.276 1.14-11.956-.011-4.653-1.155-11.869-1.155-11.869s8.648 7.03 33.952 11.495c24.047 4.244 34.683-.038 34.683-.038M103.2 15.452c.258 1.23 3.957 2.806 8.579 3.623 4.645.82 8.608.597 9.278-.473l-.33 1.887c-.666 1.068-4.64 1.29-9.27.476-4.641-.822-8.325-2.397-8.594-3.626l.337-1.887" fill="#D01D2C"/><path fill="#FFF" d="M85.905 56.562l-2.018-.8-.864-7.797-1.24 6.973-2.293-.913 2.476-13.989 2.032.8.871 7.708 1.215-6.888 2.293.907-2.472 14m9.235-6.041l-2.43-.77.498-2.796-1.512-.48-1.627 9.242 1.51.477.597-3.411 2.43.77-.678 3.824-2.092 1.42-2.749-.879-1.58-2.603 1.774-10.039 2.078-1.417 2.917.926 1.423 2.558-.56 3.178m9.351-3.002l1.551 2.45-.397 2.306-2.527-.609.333-1.915-1.48-.357-.558 3.21 2.1.73 1.512 2.446-.75 4.231-2.117 1.548-3-.724-1.4-2.414.4-2.291 2.527.608-.337 1.897 1.47.36.583-3.304-2.074-.69-1.538-2.45.731-4.177 2.115-1.546 2.856.69m7.97 3.838l-1.62-.245-2.043 11.622-2.576-.391 2.053-11.616-1.623-.244.419-2.385 5.812.878-.422 2.38m5.616 12.311l-2.541-.199.215-2.655-1.983-.16-.712 2.612-2.512-.198 4.218-13.858 3.935.317-.62 14.141zm-1.886-11.914l-1.817 6.533 1.613.133.204-6.666zm9.96.266l-1.67-.011-2.046 11.615-2.63-.023 2.052-11.625-1.666-.01.42-2.377 5.952.05-.412 2.38m6.236-.384l-2.517.152-.534 3.017 2.122-.127-.415 2.374-2.122.131-.677 3.852 2.58-.159-.413 2.381-5.25.31 2.462-13.995 5.186-.307-.422 2.37"/><path d="M134.105 186.386a2.728 2.728 0 0 0-2.738 2.734 2.738 2.738 0 1 0 5.476 0 2.732 2.732 0 0 0-2.738-2.734zm0 4.887a2.154 2.154 0 0 1-2.157-2.153 2.15 2.15 0 0 1 4.3 0 2.15 2.15 0 0 1-2.143 2.153z" fill="#231F20" fill-rule="nonzero"/><path d="M135.37 188.507a.938.938 0 0 0-.93-.935h-1.324v3.128h.592v-1.268h.412l.598 1.268h.653l-.628-1.318a.928.928 0 0 0 .628-.875zm-.93.34h-.732v-.684h.731c.186 0 .333.15.333.344 0 .183-.147.34-.333.34z" fill="#231F20" fill-rule="nonzero"/></g></svg>