<svg width="200" height="200" xmlns="http://www.w3.org/2000/svg"><g fill="none"><path d="M28.533 101.512c0 8.845 5.345 17.007 14.376 23.584 1.32-7.494 2.03-15.406 2.03-23.584 0-8.187-.71-16.1-2.03-23.589-9.03 6.574-14.376 14.739-14.376 23.589m12.004 17.395c-4.596-4.302-8.724-10.177-8.724-17.395 0-7.226 4.128-13.099 8.724-17.396a134.539 134.539 0 0 1 1.121 17.396c0 5.872-.377 11.701-1.121 17.395m30.657-17.397c0 12.19-1.383 23.92-3.937 34.899 10.007 2.858 21.391 4.483 33.475 4.483 5.67 0 11.186-.367 16.486-1.04L70.562 87.303c.416 4.65.632 9.395.632 14.207m39.314 35.725c-3.243.245-6.51.374-9.776.374-10.23 0-20.388-1.227-29.593-3.55 2.215-10.537 3.336-21.474 3.336-32.549 0-1.648-.024-3.295-.075-4.942l36.108 40.667m-9.776-75.106c-5.679 0-11.197.361-16.496 1.033l46.661 52.554a159.218 159.218 0 0 1-.631-14.204c0-12.193 1.384-23.923 3.932-34.9-10.004-2.863-21.388-4.483-33.466-4.483m26.323 44.322L90.948 65.778c3.23-.243 6.503-.366 9.784-.366 10.22 0 20.38 1.222 29.585 3.554-2.211 10.533-3.337 21.472-3.337 32.546 0 1.64.03 3.29.075 4.939" fill="#1A2847"/><path d="M171.46 111.809a3.288 3.288 0 0 0-2.32-.962 2.66 2.66 0 0 0-.378.027 3.256 3.256 0 0 0-2.412 1.53c-1.39 2.248-3.211 4.418-5.43 6.494a134.288 134.288 0 0 1-1.117-17.386c0-5.877.373-11.698 1.118-17.392 2.218 2.08 4.038 4.248 5.429 6.498a3.27 3.27 0 0 0 2.412 1.527c.126.022.251.026.377.026.864 0 1.701-.345 2.32-.957l18.382-18.385a3.278 3.278 0 0 0 .235-4.38c-5.197-6.459-11.858-12.269-19.82-17.302a82.333 82.333 0 0 1 4.58-8.477 3.282 3.282 0 0 0-1.126-4.558c-7.417-4.36-15.58-8.039-24.271-10.939a3.283 3.283 0 0 0-3.87 1.45 121.172 121.172 0 0 0-4.978 9.448c-12.616-3.635-26.008-5.476-39.861-5.476-12.203 0-24.117 1.438-35.445 4.28L57.048 27.6a3.274 3.274 0 0 0-2.451-1.104c-.336 0-.675.055-1.002.16-9.275 2.974-17.975 6.831-25.855 11.46a3.29 3.29 0 0 0-.98 4.779 82.466 82.466 0 0 1 4.44 8.249c-20.51 12.98-32.204 31.21-32.204 50.368 0 19.157 11.694 37.382 32.205 50.369a83.298 83.298 0 0 1-4.579 8.468 3.307 3.307 0 0 0-.395 2.516 3.279 3.279 0 0 0 1.524 2.044c7.413 4.355 15.582 8.034 24.267 10.936a3.295 3.295 0 0 0 3.874-1.45 123.614 123.614 0 0 0 4.975-9.439c12.61 3.627 26.002 5.47 39.864 5.47 12.21 0 24.127-1.442 35.442-4.282l8.235 9.273a3.272 3.272 0 0 0 3.46.948c9.276-2.973 17.97-6.833 25.85-11.462a3.292 3.292 0 0 0 1.583-2.315 3.308 3.308 0 0 0-.6-2.462 83.237 83.237 0 0 1-4.444-8.249c7.962-5.04 14.623-10.846 19.82-17.306a3.28 3.28 0 0 0-.235-4.381l-18.382-18.381zm-5.385 38.78c1.775 4.093 3.763 7.919 5.94 11.435l.04.048c-7.607 4.472-16.069 8.238-25.194 11.167l-9.563-10.772c-11.306 3.016-23.646 4.68-36.568 4.68-14.888 0-29.003-2.213-41.654-6.154a119.445 119.445 0 0 1-6.019 11.739c-8.528-2.847-16.468-6.438-23.644-10.653 2.19-3.534 4.187-7.375 5.967-11.487-20.303-12.023-33.102-29.552-33.102-49.08 0-19.532 12.799-37.065 33.102-49.086-1.772-4.087-3.76-7.917-5.934-11.433l-.044-.048c7.61-4.468 16.075-8.24 25.195-11.167l9.572 10.777c11.3-3.015 23.638-4.677 36.56-4.677 14.889 0 29 2.208 41.654 6.154a119.289 119.289 0 0 1 6.018-11.746c8.53 2.849 16.473 6.436 23.646 10.654-2.19 3.53-4.19 7.38-5.972 11.49 8.643 5.121 15.932 11.23 21.449 18.078l-18.385 18.38c-2.465-3.977-6.068-7.663-10.588-10.958-1.324 7.494-2.03 15.399-2.03 23.582 0 8.174.706 16.087 2.03 23.58 4.52-3.297 8.123-6.986 10.588-10.964l18.385 18.382c-5.517 6.847-12.806 12.956-21.449 18.078z" fill="#1A2847"/><path d="M158.551 125.092c-1.324-7.493-2.03-15.406-2.03-23.58 0-8.183.706-16.088 2.03-23.582 4.519 3.295 8.123 6.981 10.588 10.958l18.385-18.38c-5.517-6.847-12.806-12.957-21.449-18.079 1.78-4.109 3.782-7.957 5.972-11.488-7.173-4.217-15.116-7.806-23.646-10.655a119.263 119.263 0 0 0-6.018 11.744c-12.654-3.944-26.765-6.153-41.653-6.153-12.923 0-25.26 1.663-36.564 4.678L54.595 29.78c-9.12 2.926-17.583 6.698-25.193 11.167l.044.047c2.175 3.516 4.162 7.346 5.934 11.433C15.077 64.447 2.278 81.98 2.278 101.512c0 19.528 12.799 37.057 33.102 49.08-1.78 4.112-3.778 7.953-5.967 11.487 7.174 4.215 15.116 7.806 23.644 10.653 2.18-3.718 4.19-7.637 6.017-11.739 12.653 3.942 26.768 6.153 41.656 6.153 12.922 0 25.262-1.663 36.568-4.679l9.563 10.772c9.125-2.929 17.587-6.695 25.193-11.167l-.039-.048c-2.18-3.516-4.165-7.34-5.94-11.436 8.643-5.122 15.932-11.231 21.449-18.078l-18.385-18.382c-2.465 3.978-6.07 7.667-10.588 10.964m-115.643.004c-9.03-6.577-14.374-14.739-14.374-23.584 0-8.85 5.343-17.015 14.374-23.589 1.322 7.49 2.032 15.402 2.032 23.589 0 8.178-.71 16.09-2.032 23.584m57.822 15.796c-12.083 0-23.466-1.624-33.472-4.483 2.552-10.978 3.935-22.708 3.935-34.897 0-4.816-.214-9.558-.631-14.209l46.655 52.548a130.901 130.901 0 0 1-16.487 1.04m30.167-25.175L84.236 63.163c5.3-.673 10.818-1.034 16.494-1.034 12.078 0 23.462 1.62 33.47 4.483-2.551 10.977-3.936 22.706-3.936 34.9 0 4.81.217 9.552.633 14.204m57.26 31.892c4.592 0 8.425 3.657 8.425 8.402 0 4.718-3.833 8.398-8.425 8.398-4.595 0-8.422-3.68-8.422-8.398 0-4.745 3.827-8.402 8.422-8.402zm0 18.43c5.615 0 10.056-4.44 10.056-10.028 0-5.593-4.441-10.035-10.056-10.035-5.616 0-10.054 4.442-10.054 10.035 0 5.588 4.438 10.027 10.054 10.027zm1.739-9.521c1.502-.051 3.006-.869 3.006-3.089 0-2.371-1.836-2.986-3.878-2.986h-4.745v11.281h1.63v-5.206h2.09l2.889 5.206h1.861l-2.853-5.206zm-1.176-4.44c1.353 0 2.552.106 2.552 1.53 0 1.535-2.094 1.276-3.624 1.276h-1.74v-2.806h2.812z" fill="#82AFD8"/></g></svg>