<svg width="200" height="200" xmlns="http://www.w3.org/2000/svg"><g fill="none"><path d="M159.973 66.065c.324 2.595.328 6.222-.588 10.079a3.26 3.26 0 0 0 2.833-1.837c.375.393.72.81.984 1.307.844 1.566.927 3.376.39 5.107.59.312 1.159.616 1.685.914 1.656-5.924-1.254-11.936-5.304-15.57M131.28 88.922c-1.24 2.861-4.571 4.91-8.501 4.91-4.983 0-9.019-3.297-9.019-7.365 0-.83.175-1.623.484-2.368a4.648 4.648 0 0 0 6.173-2.63c-4.143-3.38-9.11-7.06-16.283-9.438a19.385 19.385 0 0 0-1.236 6.818c0 10.773 8.73 19.503 19.508 19.503 7.056 0 13.242-3.752 16.664-9.372-2.983.87-5.482.737-7.79-.058" fill="#FFF"/><path d="M199.469 112.231c-.726-11.795-7.765-23.827-25.374-28.845a7.841 7.841 0 0 0-1.11-1.026c1.453-12.887-5.75-25.05-14.86-33.564-10.119-9.458-25.674-16.536-40.811-17.15 5.832 3.136 16.07 10.155 19.194 15.085-16.282-12.607-38.131-17.597-58.381-15.342C62.012 33.183 44.28 41.525 37.85 58.424c16.519-11.69 38.287-16.5 57.303-12.099 16.43 3.804 31.118 14.197 39.577 28.868 0 0-1.28-.38-2.033-.953-11.432-8.711-21.466-15.662-35.005-15.466-10.39.15-22.047 6.657-25.51 17.37 4.448-1.745 10.76-2.772 15.519-2.692-.074 1.43-.126 2.874-.05 4.306-11.982.094-41.397 1.163-59.308 18.397 4.658-.926 11.804-1.367 16.269-1.238-15.839 6.486-36.85 19.535-42.892 39.788 4.288-3.254 16.35-8.693 22.962-11.053-7.71 7.559-20.868 24.797-24.682 46.36 8.97-12.237 19.926-21.838 31.363-29.282 1.038 2.42 4.077 4.173 7.668 4.173 4.447 0 8.052-2.687 8.052-6.004 0-2.154-1.526-4.038-3.811-5.097 13.157-6.827 26.267-11.086 37.13-13.449-2.34-3.1-6.37-6.488-10.527-9.017 7.435-2.11 16.381-2.57 24.06-1.925-.498-2.83-2.563-7.492-5.476-10.206 10.096-.76 19.097 4.35 28.716 6.377 8.805 1.858 18.03.753 25.234-4.96 3.675-.546 7.594-.75 11.252.01 2.89 6.674 13.426 3.386 12.34-3.702-1.101-7.221-10.583-7.465-15.905-5.573a35.51 35.51 0 0 0 2.138-4.772c10.845.623 22.704 2.149 29.394 11.726 7.857 11.245 6.145 27.31-2.253 37.74-12.61-16.558-37.234-17.99-55.949-13.828 1.903-3.633 7.709-9.771 11.277-12.195-10.392-.327-20.496 2.366-28.627 9.091-9.792 8.11-13.927 21.215-6.136 34.207.875-4.382 4.065-12.937 7.616-17.869 0 0 .28 3.112.816 5.744 12.903-5.454 29.072-9.208 42.713-5.6 10.06 2.659 21.114 9.529 22.417 21.481 18.355-6.24 27.116-27.045 25.967-44.85zm-161.78 24.92h-1.712v4.37h-1.042v-4.37h-1.712v-.874h4.466v.874zm2.39-.874l1.34 3.751 1.347-3.751h1.49v5.244h-.962v-4.232l-1.45 4.232h-.838l-1.465-4.232v4.232h-.962v-5.244h1.5zm120.317-41.174c2.003 1.146 2.209 2.67 1.577 4.056-.581 1.269-1.956 1.853-3.47 1.27-1.963-.752-1.532-2.673-1.532-2.673-3.84-1.64-8.43-1.325-8.43-1.325 4.226-3.4 10.104-2.337 11.855-1.328zm-10.86-12.406c-1.529 5.452-5.133 13.719-14.48 18.079-12.154 5.666-24.03-1.645-34.301-4.143-14.2-3.452-21.807 1.237-21.807 1.237 7.374 2.598 9.342 7.371 9.342 7.371s-12.852-1.05-27.694 5.449c8.8 4.03 12.47 7.536 12.47 7.536-43.344 9.978-64.96 37.14-64.96 37.14C19.75 126.171 41.271 115.9 41.271 115.9s-18.22 2.193-32.204 10.414C25.79 100.679 62.73 93.025 62.73 93.025c-11.589-2.601-22.472-1.404-22.472-1.404 15.63-9.925 42.93-10.265 51.93-10.086a19.542 19.542 0 0 1-.888-5.813c0-2.072.33-4.063.929-5.942-8.106-.443-13.852 1.32-13.852 1.32 13.626-12.29 27.931-12.774 51.98 6.073 2.595 2.04 7.933 3.088 10.088.858-18.09-38.285-65.032-45.315-93.46-28.968C58.39 37.334 84.04 28.5 117.563 40.066c13.281 4.582 29.077 19.09 33.876 29.23-.378-13.557-8.698-24.651-21.858-32.99 25.653 9.445 42.966 29.741 39.345 47.693 1.734 1.276 2.607 2.168 2.607 2.168-8.486-2.568-16.661-3.301-21.997-3.47zm26.585 69.124c-3.081-11.735-25.093-31.11-64.638-15.867-.379-3.948.165-7.28 1.274-10.087-9.565 5.008-12.967 16.66-12.967 16.66-3.015-13.064 12.901-27.171 26.384-28.94 0 0-6.57 4.689-8.897 14.248 19.445-6.679 50.912-5.548 61.502 14.221 6.423-5.406 12.86-17.18 11.462-31.667-.676-6.962-4.938-15.596-12.202-21.489 10.965 4.113 16.993 13.016 17.68 23.575 1 15.434-6.405 33.18-19.598 39.346z" fill="#BBBABA"/><path d="M161.38 79.648c.634-.637 1.07-1.434 1.21-2.327-.79.732-1.81 1.278-2.958 1.58.605.244 1.19.497 1.748.747m-44.51 6.951c.083 2.613 2.695 4.717 5.912 4.717 3.236 0 5.86-2.13 5.917-4.768-1.292 1.553-3.47 2.58-5.938 2.58-2.445 0-4.599-1-5.892-2.53" fill="#BBBABA"/><path d="M178.04 88.9c7.263 5.893 11.525 14.527 12.201 21.489 1.399 14.487-5.039 26.261-11.462 31.667-10.59-19.77-42.057-20.9-61.502-14.221 2.327-9.56 8.897-14.247 8.897-14.247-13.483 1.768-29.4 15.875-26.384 28.94 0 0 3.402-11.653 12.967-16.66-1.109 2.806-1.653 6.138-1.274 10.086 39.545-15.244 61.557 4.132 64.638 15.867 13.193-6.165 20.598-23.912 19.598-39.346-.687-10.559-6.715-19.462-17.68-23.575" fill="#0C1E3D"/><path d="M156.971 97.756s-.431 1.92 1.532 2.673c1.514.583 2.889-.001 3.47-1.27.632-1.386.426-2.91-1.577-4.056-1.75-1.009-7.63-2.072-11.855 1.328 0 0 4.59-.316 8.43 1.325" fill="#0C1E3D"/><path d="M129.582 36.305c13.16 8.34 21.48 19.434 21.858 32.991-4.799-10.14-20.595-24.648-33.876-29.23-33.524-11.565-59.173-2.732-70.58 8.997 28.428-16.347 75.37-9.317 93.46 28.968-2.155 2.23-7.493 1.181-10.088-.858-24.049-18.847-38.354-18.363-51.98-6.072 0 0 5.746-1.764 13.852-1.321a19.51 19.51 0 0 0-.929 5.942c0 2.024.316 3.977.887 5.813-9-.18-36.3.161-51.93 10.086 0 0 10.884-1.197 22.473 1.404 0 0-36.94 7.654-53.662 33.288 13.983-8.22 32.204-10.414 32.204-10.414S19.75 126.171 8.106 155.366c0 0 21.616-27.162 64.96-37.14 0 0-3.67-3.505-12.47-7.536 14.842-6.499 27.694-5.449 27.694-5.449s-1.968-4.773-9.342-7.371c0 0 7.606-4.689 21.807-1.237 10.27 2.498 22.147 9.809 34.3 4.143 9.348-4.36 12.952-12.627 14.482-18.08 5.336.17 13.51.903 21.997 3.47 0 0-.873-.891-2.607-2.167 3.62-17.952-13.692-38.248-39.345-47.694zm-.883 50.243c-.058 2.638-2.681 4.768-5.917 4.768-3.217 0-5.829-2.104-5.913-4.717 1.293 1.529 3.447 2.528 5.892 2.528 2.468 0 4.646-1.026 5.938-2.579zm-6.293 11.804c-10.779 0-19.508-8.73-19.508-19.503 0-2.396.44-4.695 1.236-6.818 7.174 2.378 12.14 6.058 16.282 9.438a4.648 4.648 0 0 1-6.172 2.63 6.165 6.165 0 0 0-.484 2.368c0 4.068 4.036 7.366 9.019 7.366 3.93 0 7.26-2.05 8.5-4.911 2.309.795 4.808.927 7.791.058-3.422 5.62-9.608 9.372-16.664 9.372zm38.974-18.704a51.49 51.49 0 0 0-1.748-.748c1.148-.3 2.168-.847 2.958-1.58-.14.894-.576 1.69-1.21 2.328zm3.897 1.987a69.775 69.775 0 0 0-1.685-.914c.537-1.731.454-3.54-.39-5.107-.263-.497-.609-.914-.984-1.307a3.26 3.26 0 0 1-2.833 1.837c.916-3.857.912-7.484.588-10.079 4.05 3.634 6.96 9.646 5.304 15.57z" fill="#0C1E3D"/><path fill="#0C1E3D" d="M38.58 141.521h.961v-4.232l1.465 4.232h.839l1.45-4.232v4.232h.96v-5.244h-1.49l-1.346 3.751-1.34-3.751h-1.5v5.244m-5.356-5.244v.874h1.712v4.37h1.042v-4.37h1.712v-.874h-4.466"/></g></svg>