<?xml version="1.0" encoding="UTF-8"?>
<svg width="200px" height="200px" viewBox="0 0 200 200" version="1.1" xmlns="http://www.w3.org/2000/svg" xmlns:xlink="http://www.w3.org/1999/xlink">
    <!-- Generator: Sketch 51.3 (57544) - http://www.bohemiancoding.com/sketch -->
    <title>north-texas</title>
    <desc>Created with Sketch.</desc>
    <defs></defs>
    <g id="north-texas" stroke="none" stroke-width="1" fill="none" fill-rule="evenodd">
        <g id="north-texas_BGL" transform="translate(12.280702, 0.000000)">
            <g id="north-texas" transform="translate(0.000000, -0.877193)">
                <g id="g10" transform="translate(87.500000, 100.834403) scale(-1, 1) rotate(-180.000000) translate(-87.500000, -100.834403) translate(0.000000, 0.834403)" fill-rule="nonzero">
                    <g id="g12">
                        <path d="M13.8221067,197.079347 L3.64768758,175.18946 L3.60155682,175.078206 C2.9594586,173.419384 2.63507785,171.780531 2.63507785,170.20301 C2.63507785,167.072216 3.91649042,164.174389 6.42302152,161.567057 C5.62138875,159.916318 0.930170031,150.222979 0.930170031,150.222979 L0.899229652,150.151187 C0.301411171,148.718676 0,147.279034 0,145.869345 C0,140.270524 4.6465866,136.440352 7.51674778,134.408783 C6.62733046,132.503206 2.40109953,123.437452 2.40109953,123.437452 C1.8820135,122.353442 1.61432042,121.235199 1.61432042,120.130744 C1.61432042,114.900392 7.31130063,111.54186 10.3722829,109.738028 C10.3667342,109.740881 11.1373981,109.28398 11.1373981,109.28398 C12.6501758,108.366374 50.6029798,85.6620527 86.1052146,64.481052 C77.7066376,64.4781993 48.2288606,64.4753467 48.2288606,64.4753467 C42.6212252,64.4753467 40.5608255,65.9435157 40.5420925,65.9596808 L39.9661575,66.4584208 L31.770609,66.4612735 L66.6233046,33.2624439 C69.7870579,30.2043923 72.9830605,28.0754997 82.682044,30.8215653 C85.5996591,31.6493122 98.0061629,35.5674408 101.628046,36.7127838 C102.528182,36.321066 110.015241,33.0481616 110.652165,32.7699321 C119.065444,21.3407022 128.807111,14.0721719 132.835905,11.3411779 C132.590241,10.5767601 132.423777,9.79598701 132.423777,8.98160012 C132.423777,6.48219448 133.56104,4.54011304 133.690512,4.3246754 L136.318831,0 L138.557788,4.54289914 C140.225742,7.92616345 143.90833,9.95720985 146.424725,9.51404911 C147.539698,9.32016332 147.373709,6.93904799 147.24234,5.88213745 L146.879061,2.92304942 C146.879061,2.92304942 149.569034,4.54289914 151.087598,5.95121936 C156.500741,10.9778916 154.848438,15.8965431 153.290985,17.8305991 C151.330416,20.256311 147.874996,20.9328669 143.716731,19.8503299 C143.528452,20.1938853 140.976013,24.8671605 139.997625,26.6619591 C141.639969,27.5671557 145.015715,29.4293722 145.694373,29.8023099 C146.516256,29.642038 150.411311,28.881709 151.40108,28.688156 C151.701283,28.1867534 152.475741,26.8933574 152.475741,26.8933574 L153.272015,26.8449097 C160.92127,26.0167825 162.439359,25.5099599 162.500538,24.81296 C162.564088,24.1150091 161.994982,23.4222882 160.699318,22.5345404 C159.404603,21.6469828 158.039224,20.7512475 158.039224,20.7512475 C158.039224,20.7512475 159.490917,20.1550891 161.08631,19.9637707 C162.681703,19.7714063 169.876622,19.3048538 174.027299,24.9409018 C174.027299,24.9409018 174.931229,26.4407829 174.931229,27.7189172 C174.931229,29.5811337 173.840443,32.5074874 169.584955,35.8566054 C169.737191,36.5448572 169.889901,37.5096743 169.889901,38.6621014 C169.889901,41.4363609 169.008736,45.2445669 165.14024,48.5979163 C159.720931,53.2981492 147.810023,64.5932566 145.001013,67.2633464 C145.258059,68.592686 145.671609,71.3145991 145.671609,75.0900946 C145.671609,84.5495153 143.063682,100.547233 128.826081,117.392666 C126.592815,120.033278 111.042951,137.558595 96.0038594,154.507199 C83.4930196,168.604094 71.676963,181.924115 70.7687652,183.024766 C68.951421,185.233676 68.6445782,187.153991 68.6445782,188.198065 C68.6445782,188.696805 68.7152422,188.994908 68.7218818,189.031042 L68.8461365,189.528831 L68.6512178,190.021866 L66.035703,196.426087 L57.7599579,178.244183 L57.7357709,178.169539 C57.6413942,177.885224 57.1467465,176.307703 57.1467465,174.525265 C57.1467465,173.193073 57.4208658,171.743922 58.3470853,170.634237 C59.5071123,169.236909 60.9697139,167.354154 61.7455947,166.347165 C61.1100933,164.913227 56.7773021,155.127653 56.7773021,155.127653 L56.8086029,155.196592 C56.7654457,155.108635 56.2594159,154.070742 56.2594159,152.539339 C56.2594159,151.960249 56.3405135,151.305564 56.5382777,150.607613 C46.1957306,160.100315 34.1311645,171.16816 20.0439494,184.097842 C17.8551215,186.235435 17.3888343,188.729135 17.3888343,190.43978 C17.3888343,191.775776 17.6698776,192.700038 17.6726757,192.710973 L17.8132448,193.166448 L17.6713478,193.61907 L15.1092815,199.600147 L13.8221067,197.079347 Z" id="path16" fill="#231F20"></path>
                        <path d="M162.543695,34.524223 C162.543695,34.524223 165.082381,35.5908326 166.498031,35.0810147 L166.488546,35.0905235 C166.488546,35.0905235 166.491392,35.095896 166.491392,35.100175 C166.001961,35.5759987 157.876554,43.1498111 157.876554,43.1498111 C157.876554,43.1498111 161.952774,38.1400171 162.543695,34.524223" id="path18" fill="#231F20"></path>
                        <path d="M166.498031,35.0810147 C165.082381,35.5908326 162.543695,34.524223 162.543695,34.524223 C161.952774,38.1400171 157.876554,43.1498111 157.876554,43.1498111 C157.876554,43.1498111 166.001961,35.5759987 166.491392,35.100175 C166.577706,35.2830781 169.097896,40.7545751 163.990172,45.5227488 C156.365579,52.6391847 141.753316,66.0290955 141.775108,65.9557047 C142.806636,62.6824498 148.660362,52.0986056 145.56585,32.4870909 L153.088004,31.0626151 L153.994305,29.5378683 C153.994305,29.5378683 162.600606,28.3888169 163.938478,27.1249934 C163.938478,27.1249934 166.907787,25.0573378 163.727909,22.2122849 C163.727909,22.2122849 168.588072,23.1611272 171.32547,25.8418194 C171.32547,25.8418194 173.824318,27.995435 170.882516,30.9879705 L166.498031,35.0810147" id="path22" fill="#188746"></path>
                        <path d="M125.935498,81.2095259 L18.1591188,182.051534 C12.9732856,187.113579 15.020169,193.544425 15.020169,193.544425 L6.19329253,174.068364 C3.82868215,167.957491 7.46823152,164.078349 10.0151217,162.026336 C12.5622016,159.975748 96.0446453,92.2445658 96.0446453,92.2445658 L96.1200518,89.4204323 L13.1084956,153.317164 C8.99044693,156.441303 9.46915965,161.481477 9.46915965,161.481477 L3.46372891,149.077636 C0.551506084,142.0948 7.73997948,137.627534 10.7426285,135.57457 C13.74523,133.519704 96.4852279,75.7395502 96.4852279,75.7395502 L97.2122604,72.2726174 C97.2122604,72.2726174 17.0101893,125.777109 14.0629333,127.591401 C10.5153182,129.781768 10.7885363,134.846666 10.7885363,134.846666 L4.91835354,122.258353 C2.46205075,117.124516 9.46915965,113.544903 12.5622016,111.674509 C14.379356,110.57671 59.2500663,83.7360318 96.2149027,61.6940031 L48.2288606,61.6892487 C41.1623702,61.6892487 38.7953175,63.788331 38.7953175,63.788331 L45.2277766,57.7668411 C46.3202224,56.7622294 49.2157847,53.1146281 53.4475596,53.1146281 C56.4486436,53.1146281 71.1429522,53.0960858 71.1429522,53.0960858 L74.6244561,51.5879795 L59.1784538,50.3789271 C56.1081287,50.2419994 55.2535217,49.9153698 51.1573835,52.1960715 C51.1194432,52.2193683 58.0089416,45.4789605 58.0089416,45.4789605 C59.9206625,43.839204 61.4525052,42.21566 64.7281827,42.4878989 C68.0052829,42.7646545 87.3852282,46.0009973 87.3852282,46.0009973 L90.4555533,44.6103255 L70.1199847,40.1649303 C65.4798764,39.1360234 62.1525052,41.5324004 62.1525052,41.5324004 C62.1525052,41.5324004 65.9991853,37.742594 68.5459332,35.2778958 C71.1851608,32.7257159 73.5550117,31.1345021 81.9246592,33.5035412 C85.2491849,34.4468208 101.783602,39.6833537 101.783602,39.6833537 L112.429672,35.0321866 C123.145458,20.188703 136.451148,12.3197353 136.451148,12.3197353 C133.901081,9.30827724 136.064631,5.77478234 136.064631,5.77478234 C138.278926,10.2720009 143.232517,12.7400273 146.980078,12.1893688 C150.237259,11.7115007 149.365105,7.73879123 149.478452,7.88380145 C151.480755,10.4359813 153.139698,13.5016399 151.117002,16.0889075 C148.658939,19.2387196 142.369847,16.5130981 142.369847,16.5130981 L136.234888,27.7430697 L144.553316,32.5074874 C149.102842,61.5142855 125.935498,81.2095259 125.935498,81.2095259" id="path24" fill="#188746"></path>
                        <path d="M120.223574,123.07564 C118.825946,124.688819 68.7811636,181.06071 68.7811636,181.06071 C64.4469496,185.87077 65.9745241,189.642462 66.1016244,189.930105 L60.2611774,176.806443 C58.9621936,173.198303 61.3889551,170.859122 63.1787925,168.790943 C64.9686298,166.727995 117.549726,111.65977 117.549726,111.65977 L117.199726,108.63072 L67.4129387,158.45956 C63.408806,162.569767 64.5010146,165.67774 64.6902423,166.126083 L59.3449172,154.056003 C58.1279796,150.316166 61.9537925,147.846713 64.5982369,145.293583 C67.4105674,142.578801 122.812531,90.648027 127.344509,86.5064401 C137.038276,77.6532097 141.775132,65.9554018 141.775132,65.9554018 C147.353316,94.6626706 125.637192,116.819757 120.223574,123.07564" id="path26" fill="#188746"></path>
                    </g>
                </g>
            </g>
        </g>
    </g>
</svg>