<svg width="200" height="200" xmlns="http://www.w3.org/2000/svg"><g fill-rule="nonzero" fill="none"><path d="M28.538 100.386c0 8.846 5.345 17.007 14.376 23.584 1.32-7.493 2.03-15.406 2.03-23.584 0-8.186-.71-16.1-2.03-23.588-9.03 6.574-14.376 14.738-14.376 23.588m12.004 17.395c-4.596-4.301-8.724-10.177-8.724-17.395 0-7.226 4.128-13.098 8.724-17.395a134.539 134.539 0 0 1 1.121 17.395c0 5.872-.377 11.701-1.121 17.395M71.2 100.385c0 12.19-1.384 23.918-3.938 34.898 10.007 2.858 21.391 4.483 33.475 4.483 5.67 0 11.186-.367 16.486-1.04L70.567 86.178c.416 4.65.632 9.394.632 14.207m39.314 35.724c-3.243.246-6.51.374-9.776.374-10.23 0-20.388-1.226-29.593-3.55 2.215-10.537 3.336-21.474 3.336-32.548 0-1.648-.024-3.296-.075-4.943l36.108 40.667M100.737 61.003c-5.678 0-11.197.362-16.496 1.033l46.662 52.555a159.218 159.218 0 0 1-.632-14.205c0-12.192 1.384-23.923 3.932-34.9-10.004-2.862-21.388-4.483-33.466-4.483m26.323 44.322L90.953 64.653c3.23-.244 6.503-.366 9.784-.366 10.22 0 20.38 1.221 29.585 3.553-2.211 10.533-3.337 21.472-3.337 32.546 0 1.64.03 3.29.075 4.94" fill="#1A2847"/><path d="M171.464 110.683a3.288 3.288 0 0 0-2.32-.962c-.126 0-.25.01-.377.027a3.256 3.256 0 0 0-2.412 1.531c-1.39 2.247-3.21 4.418-5.43 6.494a134.288 134.288 0 0 1-1.117-17.387c0-5.877.373-11.698 1.118-17.392 2.218 2.08 4.039 4.248 5.429 6.498a3.27 3.27 0 0 0 2.412 1.528c.126.022.251.025.377.025.864 0 1.701-.344 2.32-.957l18.382-18.385a3.278 3.278 0 0 0 .235-4.379c-5.197-6.46-11.858-12.27-19.82-17.302a82.333 82.333 0 0 1 4.58-8.477 3.282 3.282 0 0 0-1.126-4.558c-7.417-4.36-15.58-8.04-24.271-10.94a3.283 3.283 0 0 0-3.87 1.45 121.172 121.172 0 0 0-4.977 9.448c-12.617-3.634-26.01-5.475-39.862-5.475-12.203 0-24.117 1.437-35.445 4.28l-8.237-9.276a3.274 3.274 0 0 0-2.451-1.105c-.336 0-.675.056-1.002.16-9.276 2.976-17.976 6.832-25.856 11.461a3.29 3.29 0 0 0-.98 4.779 82.466 82.466 0 0 1 4.44 8.25C10.695 62.997-1 81.227-1 100.385c0 19.158 11.694 37.382 32.205 50.37a83.298 83.298 0 0 1-4.579 8.467 3.307 3.307 0 0 0-.395 2.516 3.279 3.279 0 0 0 1.524 2.044c7.413 4.355 15.582 8.035 24.267 10.937a3.295 3.295 0 0 0 3.874-1.45 123.614 123.614 0 0 0 4.975-9.44c12.61 3.628 26.002 5.47 39.864 5.47 12.21 0 24.127-1.442 35.442-4.281l8.235 9.272a3.272 3.272 0 0 0 3.46.949c9.276-2.974 17.97-6.834 25.85-11.463a3.292 3.292 0 0 0 1.583-2.314 3.308 3.308 0 0 0-.6-2.462 83.237 83.237 0 0 1-4.444-8.25c7.962-5.04 14.623-10.846 19.82-17.305a3.28 3.28 0 0 0-.235-4.382l-18.382-18.381Zm-5.384 38.78c1.775 4.093 3.763 7.919 5.94 11.436l.04.047c-7.607 4.473-16.069 8.239-25.194 11.167l-9.563-10.771c-11.306 3.016-23.646 4.679-36.568 4.679-14.888 0-29.003-2.213-41.654-6.154a119.445 119.445 0 0 1-6.019 11.74c-8.528-2.848-16.468-6.439-23.644-10.654 2.19-3.533 4.187-7.374 5.967-11.487-20.303-12.023-33.102-29.552-33.102-49.08 0-19.532 12.799-37.064 33.102-49.086-1.772-4.087-3.76-7.916-5.934-11.432l-.044-.049c7.61-4.468 16.075-8.24 25.195-11.167l9.572 10.778c11.3-3.016 23.638-4.677 36.56-4.677 14.889 0 29 2.207 41.655 6.153a119.289 119.289 0 0 1 6.017-11.746c8.53 2.85 16.473 6.437 23.646 10.654-2.19 3.531-4.19 7.38-5.972 11.49 8.643 5.122 15.932 11.23 21.449 18.078l-18.385 18.38c-2.465-3.976-6.068-7.663-10.588-10.957-1.324 7.493-2.03 15.398-2.03 23.581 0 8.175.706 16.087 2.03 23.58 4.52-3.297 8.123-6.986 10.588-10.964l18.385 18.382c-5.517 6.847-12.806 12.956-21.449 18.079Z" fill="#1A2847"/><path d="M158.556 123.966c-1.324-7.493-2.03-15.405-2.03-23.58 0-8.183.706-16.088 2.03-23.581 4.519 3.294 8.123 6.98 10.588 10.957l18.385-18.38c-5.517-6.846-12.806-12.956-21.449-18.078 1.78-4.11 3.782-7.957 5.972-11.49-7.173-4.216-15.116-7.805-23.646-10.654a119.263 119.263 0 0 0-6.017 11.744c-12.655-3.944-26.766-6.153-41.654-6.153-12.923 0-25.26 1.663-36.564 4.679L54.6 28.653c-9.12 2.926-17.583 6.698-25.193 11.167l.044.048c2.175 3.516 4.162 7.345 5.934 11.432C15.082 63.322 2.283 80.854 2.283 100.386c0 19.528 12.799 37.057 33.102 49.08-1.78 4.113-3.778 7.954-5.967 11.487 7.174 4.215 15.116 7.806 23.644 10.653 2.18-3.717 4.19-7.636 6.017-11.739 12.653 3.942 26.768 6.154 41.656 6.154 12.922 0 25.262-1.663 36.568-4.68l9.563 10.772c9.125-2.928 17.587-6.694 25.193-11.167l-.039-.047c-2.18-3.517-4.165-7.341-5.94-11.436 8.643-5.123 15.932-11.232 21.449-18.08l-18.385-18.38c-2.465 3.977-6.069 7.666-10.588 10.963m-115.643.004c-9.03-6.577-14.374-14.738-14.374-23.584 0-8.85 5.343-17.014 14.374-23.588 1.322 7.489 2.032 15.402 2.032 23.588 0 8.178-.71 16.09-2.032 23.584m57.822 15.796c-12.083 0-23.466-1.624-33.472-4.483 2.552-10.978 3.935-22.708 3.935-34.897 0-4.815-.214-9.557-.631-14.208l46.655 52.547a130.901 130.901 0 0 1-16.487 1.041m30.168-25.175L84.24 62.038c5.3-.673 10.818-1.035 16.494-1.035 12.078 0 23.462 1.62 33.47 4.483-2.551 10.977-3.936 22.706-3.936 34.9 0 4.811.217 9.553.634 14.205M188.162 146.482c4.592 0 8.425 3.657 8.425 8.402 0 4.718-3.833 8.398-8.425 8.398-4.595 0-8.422-3.68-8.422-8.398 0-4.745 3.827-8.402 8.422-8.402Zm0 18.43c5.615 0 10.056-4.44 10.056-10.028 0-5.593-4.44-10.034-10.056-10.034-5.616 0-10.054 4.441-10.054 10.034 0 5.589 4.438 10.028 10.054 10.028Zm1.739-9.52c1.502-.052 3.006-.87 3.006-3.09 0-2.37-1.836-2.986-3.877-2.986h-4.746v11.281h1.63v-5.206h2.09l2.889 5.206h1.861l-2.853-5.206Zm-1.176-4.441c1.353 0 2.552.107 2.552 1.531 0 1.535-2.094 1.275-3.624 1.275h-1.74v-2.806h2.812Z" fill="#82AFD8"/></g></svg>