<?xml version="1.0" encoding="UTF-8"?>
<svg width="200px" height="200px" viewBox="0 0 200 200" version="1.1" xmlns="http://www.w3.org/2000/svg" xmlns:xlink="http://www.w3.org/1999/xlink">
    <!-- Generator: Sketch 51.3 (57544) - http://www.bohemiancoding.com/sketch -->
    <title>northern-ariz</title>
    <desc>Created with Sketch.</desc>
    <defs></defs>
    <g id="northern-ariz" stroke="none" stroke-width="1" fill="none" fill-rule="evenodd">
        <g id="northern-ariz_BGL" transform="translate(0.000000, 40.796020)">
            <g id="northern-ariz">
                <g id="g10" transform="translate(99.999998, 59.649045) scale(-1, 1) rotate(-180.000000) translate(-99.999998, -59.649045) translate(0.000000, 0.099629)" fill-rule="nonzero">
                    <g id="g12">
                        <polyline id="path14" fill="#FCD006" points="99.9191756 67.7264786 94.8027374 58.7311205 91.5310479 58.7311205 88.0041074 52.5225844 108.558445 52.5225844 99.9191756 67.7264786"></polyline>
                        <polyline id="path16" fill="#173A79" points="72.4159799 81.0628305 54.8433776 81.0628305 58.5493136 77.0016963 58.5493136 60.686515 39.4488575 81.0628305 19.6093602 81.0632834 23.3119172 77.0016963 23.3119172 43.9894928 37.180547 43.9894928 37.180547 66.4245427 57.7004552 43.9894928 65.2091308 43.9894928 72.4159799 56.7453852 72.4159799 81.0628305"></polyline>
                        <polyline id="path18" fill="#173A79" points="156.400453 81.0628305 160.106845 77.0016963 160.106845 52.5225844 140.304563 52.5225844 140.304563 81.0628305 122.741549 81.0628305 126.441549 77.0016963 126.441549 58.7003268 134.809586 43.9894928 174.031959 43.9894928 174.031959 81.0628305 156.400453 81.0628305"></polyline>
                        <polyline id="path20" fill="#173A79" points="84.0561623 81.0628305 87.7625549 77.0016963 69.0269389 43.9894928 79.8817332 43.9894928 89.7890389 61.4205804 93.0561621 61.4223918 99.9146094 73.5011869 113.129221 50.1849869 98.701824 50.1827226 102.211413 43.9894928 130.870316 43.9894928 109.764381 81.0628305 84.0561623 81.0628305"></polyline>
                        <path d="M10.4195431,43.6376758 C7.19803635,74.7995 11.8898171,92.1344933 11.8898171,92.1344933 L2.75078532,101.824972 C2.75078532,101.824972 -7.0768948,70.7537625 10.4195431,43.6376758" id="path22" fill="#FCD006"></path>
                        <path d="M93.7287648,32.8422045 C93.7287648,32.8422045 129.074426,31.5167659 177.346571,0 L174.16027,16.4650737 C174.16027,16.4650737 145.00091,36.1566843 93.7287648,32.8422045" id="path24" fill="#F2AC20"></path>
                        <path d="M2.75078532,101.824972 L11.8898171,92.1344933 C134.016435,85.1755894 173.875338,105.227213 173.875338,105.227213 L177.442918,118.860633 C177.442918,118.860633 130.957988,91.6417955 2.75078532,101.824972" id="path26" fill="#F2AC20"></path>
                        <path d="M174.16027,16.4650737 L177.346571,0 C199.073054,22.6957993 214.296798,83.1463808 177.442918,118.860633 L173.875338,105.227213 C196.626022,77.2186101 186.488123,33.9721943 174.16027,16.4650737" id="path28" fill="#FCD006"></path>
                    </g>
                </g>
            </g>
        </g>
    </g>
</svg>