<svg width="200" height="200" xmlns="http://www.w3.org/2000/svg"><g fill="none"><path fill="#FFF" d="M111.32 1.249v29.617l24.513 42.808v32.108L73.796 1.25H33.694v199.5h53.123v-29.085L65.084 136.25l.072-42.927 62.257 107.426h38.177V1.25h-54.27"/><path fill="#432C91" d="M116.001 5.93v23.69l24.516 42.81v50.407L71.131 5.93H38.372v190.14h43.763v-23.084L60.402 137.57l.102-61.606L130.11 196.07h30.798V5.93H116"/><path d="M93.29 193.765v-2.17h.336l.351.021c.246.015.43.049.551.1.22.084.371.235.448.448.05.13.086.382.105.75.016.372.05.656.102.85h1.53l-.06-.172a.905.905 0 0 1-.04-.182.916.916 0 0 1-.016-.18v-.547c0-.626-.177-1.083-.537-1.376-.196-.157-.486-.274-.872-.355.42-.042.774-.184 1.061-.408.288-.231.434-.605.434-1.12 0-.677-.272-1.163-.819-1.463-.32-.175-.724-.282-1.21-.317a92.906 92.906 0 0 0-1.262-.01l-1.71-.004v6.135h1.607zm1.815-4.228c0 .334-.106.579-.316.729-.209.153-.502.222-.877.222h-.623v-1.776h.389c.4 0 .71.042.93.129.334.126.497.361.497.696zm4.536 1.146c0-1.522-.543-2.826-1.622-3.91-1.083-1.078-2.384-1.623-3.912-1.623-1.455 0-2.726.502-3.808 1.504-1.15 1.072-1.726 2.415-1.726 4.03 0 1.56.532 2.87 1.599 3.936 1.063 1.066 2.378 1.601 3.935 1.601 1.506 0 2.797-.522 3.873-1.565 1.109-1.073 1.661-2.397 1.661-3.973zm-5.534-4.585c1.256 0 2.335.462 3.229 1.383.887.904 1.327 1.975 1.327 3.202 0 1.27-.443 2.356-1.334 3.262-.891.901-1.966 1.352-3.222 1.352-1.262 0-2.339-.448-3.23-1.344-.894-.899-1.341-1.984-1.341-3.27 0-1.232.438-2.304 1.32-3.202.896-.92 1.978-1.383 3.251-1.383z" fill="#FFF"/></g></svg>