<svg width="200" height="200" xmlns="http://www.w3.org/2000/svg" xmlns:xlink="http://www.w3.org/1999/xlink"><defs><path d="M52.902 1.893l15.873.397 6.544 12.816-12.276-4.762 7.789 12.858-11.892-1.28 7.082 8.88 45.386 1.537c1.763 1.032 11.373 5.696 13.18 14.917 0 0 1.619-2.574 1.742-5.914 2.158 3.86 3.212 6.898 3.212 6.898l-3.223 6.642s-1.766-5.049-1.978-4.428c-.585 1.713-2.35 4.647-4.204 4.428-4.71-.556-4.019-7.111-4.019-7.111-9.374 5.16-.194 12.779-.194 12.779L82.96 67.61l2.511 3.54s-5.61 8.636-11.544 15.287l-.48-6.16c-2.415 1.334-5.88 3.422-10.51 2.819-13.514-1.76-9.678-10.422-9.004-11.965-1.608 1.107-3.707 1.778-6.004 1.778-5.058 0-9.158-3.25-9.158-7.26 0-.678.117-1.334.336-1.956C12.653 71.866 3.733 52.051 3.733 52.051c9.352 2.702 18.705-.578 18.705-.578C6.29 46.213.008 29.003.008 29.003c5.627 3.128 19.327 4.44 19.327 4.44C3.385 22.788 3.152 7.268 3.152 7.268 18.17 21.01 37.456 23.559 37.456 23.559 23.316 10.22 20.188.002 20.188.002c14.029 10.211 36.676 8.496 36.676 8.496-3.076-5.35-3.962-6.605-3.962-6.605z" id="a"/></defs><g fill="none" fill-rule="evenodd"><path d="M142.997 124.698c-.27 2.283-.579 4.72-.843 6.412l-.464 2.98-74.845-.347s.105-.556.236-1.227c-3.384 1.934-7.871 6.472-10.99 9.135l-4.983 4.254-.804-6.483c-.584-4.708-.443-12.412-.177-17.448-3.504 1.754-7.875 4.593-10.556 8.697l-4.661 7.133s-.867-4.153-1.331-7.27c-.462-3.093-.883-6.887-.661-9.48a43.04 43.04 0 0 1 2.25-10.466c-4.16 2.268-9.538 6.142-14.755 12.657l-7.132 8.907.868-11.355c1.879-24.56 13.175-43.107 23.904-55.45 8.158-9.384 16.056-15.266 19.444-17.588-.203-12.844 2.152-21.875 5.073-28.2 1.53-3.316 3.195-5.84 4.67-7.746 1.408-1.817 2.615-3.03 3.316-3.809 2.303-2.555 8.352-7.182 11.955.499A71.443 71.443 0 0 0 90.9 22.115c3.638-11.986 9.675-15.147 14.216-14.735.611.055 1.576.315 2.549 1.235.36.341.701.741.999 1.114.56.704 1.265 1.699 2.054 2.89 1.47 2.217 3.268 5.156 5.012 8.092a574.71 574.71 0 0 1 5.684 9.816c2.306.056 4.398.207 6.3.434l4.349-11.556 24.2 30.216-.288.481 33.725 6.546.741 1.676c2.276 5.146 8.34 13.846 8.4 13.933l.791 1.13-.195 1.365c-3.32 23.11-21.645 28.696-29.86 29.53l-16.418 2.831c-.36.587-.842 1.477-1.28 2.606-1.01 2.603-1.988 6.819-1.446 12.888l.57 6.373s-5.69-2.951-8.006-4.282" fill="#AAAFB6" fill-rule="nonzero"/><path fill="#AAAFB6" d="M187.051 117.546l-6.231 16.207v34.234l7.094 16.4-18.592-.236 7.183 12.898H12.647l5.672-12.661H.181l7.19-15.61v-35.007L0 117.546h187.051"/><path d="M65.687 126.863c-2.9 1.605-6.383 3.692-9.597 6.051-.544-5.808-.659-11.84.377-15.961l.834-3.318s-3.43.776-5.125 1.298c-1.704.523-3.924 1.302-5.997 2.32-2.512 1.235-5.347 2.974-7.724 5.348.019-.345.044-.702.075-1.072.366-4.27 1.646-10.114 5.327-16.339l2.393-4.047-4.628.921c-.116.023-4.183.842-9.389 3.457-3.168 1.591-6.789 3.863-10.2 7.05 5.869-19.99 15.056-34.68 23.171-44.654 4.642-5.705 8.932-9.867 12.05-12.593 3.069-2.686 5.964-4.622 5.964-4.622l-.042-1.167c-.462-13.124 1.892-21.806 4.587-27.524a34.53 34.53 0 0 1 4.067-6.635c1.323-1.692 2.46-2.83 3.11-3.593.603-.71 1.058-1.18 1.408-1.472.37-.309.531-.339.55-.34.002 0-.001.01.055.08.124.153.26.41.454.821C83.32 23.48 91.2 30.962 91.297 31.053l2.838 2.69.697-3.838c2.632-14.5 7.475-16.641 9.18-16.915 1.092 1.401 4.015 6.095 6.994 11.052a940.417 940.417 0 0 1 6.502 11.01l.609 1.053h1.222c4.064 0 7.45.295 10.302.804l1.734.309 2.478-6.585 15.58 19.453-2.385 3.992 38.707 7.514c1.296 2.679 3.251 5.92 4.964 8.601a178.269 178.269 0 0 0 3.018 4.567c-3.1 18.864-18.089 23.31-24.918 23.969l-18.735 3.227-.485.521c-.285.306-4.921 5.48-4.953 16.635-1.135-.758-2.222-1.593-2.793-2.31l-2.11-2.642-1.453 3.05c-.14.294-3.687 2.025-2.43 11.505-1.35-.567-2.185.315-3.062 1.532l-1.164-.722s-1.587-1.451-4.224-.209c-2.716 1.281-5.771-1.593-10.949-.314-10.043 2.482-22.955.696-42.985-.848.62-3.052.314.58 1.72-1.788l3.42-5.758s-9.058 4.115-12.929 6.255" fill="#FFF" fill-rule="nonzero"/><path d="M71.082 130.478s.364-1.928 2.296-5.181c0 0-12.053 7.269-19.58 13.696-.842-6.79-.752-17.088.62-22.55 0 0-12.632 5.553-18.404 14.388 0 0-1.716-13.618 6.022-26.706 0 0-13.47 4.387-25.177 19.007 3.61-47.192 44.206-73.524 44.206-73.524-.944-26.835 9.45-36.31 12.113-39.266 2.523-2.8 4.589-3.671 6.143-.358 5.758 12.275 13.432 19.548 13.432 19.548 3.108-17.118 9.602-18.886 12.044-18.664 1.684.152 14.542 23.136 14.542 23.136 4.211 0 7.719.31 10.675.836l3.167-8.418 18.813 23.49-1.598 2.675 36.824 7.148c2.441 5.521 8.732 14.521 8.732 14.521-3.006 20.927-19.468 25.841-26.85 26.554l-17.953 3.095s-5.402 5.803-4.223 19.012c0 0-4.938-2.565-6.727-4.807 0 0-.891 8.397-1.523 12.457l-67.594-.089" fill="#231F20" fill-rule="nonzero"/><path fill="#231F20" d="M181.16 121.579l-4.394 11.429v35.81l4.99 11.537h-16.488v3.389l5.185 9.273H18.747l3.626-9.454v-3.208H6.498l4.927-10.696v-36.757L6.28 121.579h174.88"/><path fill="#E01049" d="M71.792 171.55v-3.38l-40.909-23.313v26.725l1.868 3.78H14.786l1.867-3.78v-41.156l-2.224-3.752 16.307.112 41.09 23.136v-19.544l-.307-.473-1.595-3.231h17.504l-1.867 3.781v41.127l1.867 3.78H70.285l1.507-3.811m20.984-.001l.035-41.172-.307-.473-1.596-3.231h17.505l-1.868 3.781v41.127l1.868 3.78H91.269l1.507-3.811"/><path fill="#E01049" fill-rule="nonzero" d="M150.198 164.35l4.272-1.345 2.136-2.69-.007-29.86-1.868-3.781h17.56l-1.803 3.704.03 36.326-11.079 8.744h-34.514l-11.079-8.744v-18.48l.03-17.846-1.803-3.704h17.56l-1.867 3.781v21.735l-.008 8.124 2.136 2.69 4.272 1.346h16.032"/><path d="M113.117 122.569l15.873-.398 6.544-12.815-12.276 4.761 7.789-12.857-11.892 1.28 7.082-8.88 45.386-1.538c1.763-1.031 11.373-5.696 13.18-14.917 0 0 1.619 2.574 1.742 5.915 2.158-3.86 3.212-6.899 3.212-6.899l-3.223-6.642s-1.766 5.05-1.978 4.428c-.585-1.712-2.35-4.647-4.204-4.428-4.71.557-4.018 7.112-4.018 7.112-9.375-5.16-.195-12.779-.195-12.779l-32.965-7.061 2.511-3.538s-5.61-8.637-11.544-15.289l-.48 6.16c-2.415-1.333-5.88-3.421-10.51-2.818-13.514 1.759-9.678 10.421-9.004 11.965-1.608-1.108-3.707-1.778-6.004-1.778-5.058 0-9.158 3.25-9.158 7.26 0 .678.117 1.333.336 1.956C72.868 52.596 63.948 72.41 63.948 72.41c9.352-2.702 18.705.578 18.705.578-16.147 5.26-22.43 22.47-22.43 22.47 5.627-3.128 19.327-4.44 19.327-4.44-15.95 10.655-16.183 26.175-16.183 26.175 15.018-13.743 34.304-16.292 34.304-16.292-14.14 13.34-17.267 23.558-17.267 23.558 14.028-10.212 36.675-8.496 36.675-8.496-3.076 5.35-3.962 6.605-3.962 6.605" fill="#FFF" fill-rule="nonzero"/><g transform="matrix(1 0 0 -1 60.215 124.462)"><mask id="b" fill="#fff"><use xlink:href="#a"/></mask><g mask="url(#b)" fill="#AAAFB6"><path d="M73.526 30.642S52.41 33.428 41.632 19.205C32.622 7.317 31.638-3.17 31.638-3.17s15.957 9.383 21.267 8.688c0 0-14.324-7.379 3.2-12.366L70.89.682l5.81 11.733 4.61 6.086-7.784 12.14"/></g></g><path d="M67.914 46.202s7.041-4.903 16.722-7.53c0 0-7.217-5.078-10.77-16.296 0 0-6.146 9.271-5.952 23.826" fill="#FFF" fill-rule="nonzero"/><path d="M139.524 58.106l2.258 8.791s-4.117-5.49-9.656-7.24c-1.111 2.447-4.72 3.764-8.265 2.959-3.683-.836-5.9-3.646-4.952-6.277.32-.886.956-1.639 1.803-2.215l-2.138-7.2 20.95 11.182" fill="#231F20" fill-rule="nonzero"/><path fill="#FFF" d="M40.192 189.604l-.563-.996v-6.721l.563-.996h-5.404l.563.996v1.867l-.226.124h-2.702l-.225-.124v-1.867l.563-.996h-5.405l.563.996v6.72l-.563.997h5.405l-.563-.996v-2.49l.225-.124h2.702l.226.125v2.489l-.563.996h5.404m22.766-8.714h-5.18l.563.997v4.916l-.45.498-.901.249h-.9l-.902-.249-.45-.498v-4.916l.563-.996h-5.518l.563.996v5.476l-.225.623 2.928 1.618h6.643l2.928-1.618-.225-.623v-5.476l.563-.996m20.012 2.365l-1.42-2.365h-6.305l-2.928 1.618v2.054l2.027 1.12 3.49.436.564.31v.499l-.338.373-.676.187h-3.22l-2.365-.436 1.532 2.552h6.643l2.928-1.618v-2.428l-2.14-1.182-3.49-.436-.45-.249v-.248l.337-.374.676-.187h3.197l1.937.374m23.779 6.348l-1.261-1.183-3.198-4.854 4.392-2.427-.45-.25h-4.843l-.45.748-3.266 1.805-.337.248v-1.804l.563-.996h-5.405l.563.996v6.72l-.563.997h5.405l-.563-.996v-2.303l.225-.249 1.126-.622h.338l1.87 3.05.224 1.12h5.63m13.8 0l-.562-.996v-6.721l.562-.996h-5.517l.563.996v6.72l-.563.997h5.517m21.26-2.552l-2.365.436h-3.783l-.338-.187v-1.182l.225-.125h1.464l1.689.311v-2.614l-1.689.311h-1.464l-.225-.124v-.871l.18-.125h3.874l1.982.374-1.42-2.365h-9.458l.563.996v6.72l-.563.997h9.796l1.532-2.552m18.932-3.796l-1.418-2.365h-6.306l-2.928 1.618v2.054l2.027 1.12 3.49.436.564.31v.499l-.338.373-.676.187h-3.22l-2.365-.436 1.532 2.552h6.643l2.928-1.618v-2.428l-2.14-1.182-3.49-.436-.45-.249v-.248l.337-.374.676-.187h3.198l1.936.374m7.205-10.986h.921v-.44h-2.325v.44h.92v3.42h.484v-3.42m3.121 3.502l1.163-2.63h.01l.453 2.548h.5l-.793-4.023-1.333 3.04-1.332-3.04-.792 4.023h.499l.452-2.549h.01l1.163 2.63m-153.382-2.205L18.46 172v-42.063l-.856-1.444 2.78.02-.05 43.138h8.384l1.135 1.916H17.684m55.948-43.717l-.809-1.38h2.735v23.251l-1.926-1.085V129.85m-.035 37.517L30.83 142.711v-2.515l44.693 25.515-.013 5.94h7.884l1.135 1.915H72.935l.662-1.675v-4.524m21.019-37.517l-.81-1.38h2.88l.001 43.18h7.691l1.136 1.916H93.919l.662-1.675.035-42.042m66.871 30.133l-2.763 3.034-2.012.633 2.081-2.683.007-31.117-.81-1.379h3.506l-.009 31.512m-43.245 4.694l9.685 6.847 30.99-.196-3.112 2.018h-29.198l-10.724-7.779.04-35.717-.809-1.379h3.165l-.037 36.206"/></g></svg>