<svg width="200" height="200" xmlns="http://www.w3.org/2000/svg" xmlns:xlink="http://www.w3.org/1999/xlink"><defs><path id="a" d="M.531.447h153.252v198.558H.53z"/></defs><g fill="none" fill-rule="evenodd"><path d="M82.906 186.175a546.91 546.91 0 0 1 3.838 3.337c1.856 1.628 2.288 2.007 4.426 3.636a858.447 858.447 0 0 1 6.212-2.119l2.948-.994c3-1.012 5.999-2.022 8.993-3.054l7.237-4.992.065.424c2.98-2.374 6.388-4.965 9.993-7.4 1.425-2.648 2.586-5.343 3.455-8.023.192-.596.477-1.3.872-2.273 3.484-8.61 4.705-14.525 3.63-17.58-1.102-3.138.377-5.786 1.298-7.303-.603-1.243-1.155-2.003-1.155-2.003l-4.552-6.065 6.988-2.969c.087-.038 9.497-4.125 16.78-11.65 1.604-1.66 3.718-2.717 6.066-3.06 1.516-2.204 3.625-5.477 4.96-8.4.704-2.676.428-4.302.426-4.318l-.595-2.688 1.74-2.257c1.633-2.02 3.384-5.044 4.047-7.308-2.33-1.416-5.512-2.102-7.361-2.503a37.281 37.281 0 0 1-1.552-.356c-3.518-.928-8.869-3.398-14.127-5.928l-4.852-2.334 1.852-5.062a32.694 32.694 0 0 0 1.283-4.358 29.035 29.035 0 0 0-2.343-4.163l-.079-.116-.401-.738-.055-.128c-1.04-2.436-1.875-5.898-2.36-8.188-1.14-1.068-3.1-2.419-4.525-3.214l-3.186-1.779.147-3.652c.061-1.471.166-2.862.259-4.09.356-4.702.669-8.842-1.25-17.178-1.776 1.62-3.547 4.021-4.675 5.549-1.508 2.044-2.504 3.395-3.983 4.33-2.372 1.5-4.615 3.469-4.71 3.552l-2.422 2.15-3.124-.888-2.69-.772c-4.116-1.191-5.994-1.735-7.968-1.735-.975 0-2.11.126-3.795.423l-5.035.883-1.615-4.856c-5.123-15.39-10.94-23.788-15.082-26.056-4.357 7.57-6.536 13.695-9.253 23.068l-.194.669-.345.608c-.522.921-1.004 1.752-1.452 2.526-3.418 5.9-4.682 8.083-8.89 24.736l-.417 1.651-1.228 1.18c-.09.088-9.84 9.568-14.543 18.992-1.534 3.07-3.323 6.826-5.322 11.172.089 6.977-1.25 13.655-2.547 20.122-.497 2.475-1.008 5.018-1.412 7.474-.825 5.01-1.398 10.507-1.798 17.25 8.517 20.837 16.748 30.733 43.733 51.764.16-.437.333-.833.513-1.181l3.453-6.66 5.68 4.895z" fill="#C3AA84"/><path d="M78.132 185.977l2.839 2.448c1.815 1.564 3.001 2.604 3.884 3.376 2.16 1.895 2.416 2.119 5.791 4.676 2.52-.887 5.077-1.753 7.684-2.635l2.575-.868c3.257-1.098 6.515-2.196 9.765-3.316l3.686-2.543.133.86c4.229-3.496 9.141-7.408 14.38-10.9 1.674-3.01 3.026-6.092 4.024-9.168.158-.49.427-1.156.8-2.075 1.55-3.835 5.672-14.019 3.677-19.684-.686-1.953.381-3.699 1.16-4.976.2-.327.51-.832.656-1.156-.932-2.4-2.077-3.94-2.087-3.955l-2.285-3.044 3.498-1.486c.096-.041 9.97-4.28 17.752-12.318 1.639-1.693 3.779-2.265 5.566-2.278 1.521-2.145 4.44-6.458 6.128-10.242 1.012-3.643.54-5.873.537-5.897l-.31-1.4.894-1.159c1.93-2.388 4.77-7.09 4.932-10.414-2.875-2.581-7.433-3.564-9.974-4.113a33.862 33.862 0 0 1-1.42-.326c-3.27-.862-8.466-3.263-13.595-5.731l-2.426-1.167.927-2.532c.995-2.718 1.417-4.748 1.58-5.713-.393-.974-1.325-3.052-2.967-5.489l-.267-.491c-1.117-2.614-2.019-6.783-2.357-8.466-1.377-1.578-4.205-3.464-5.81-4.361l-1.595-.89.075-1.827c.057-1.392.155-2.695.253-3.985.407-5.39.793-10.5-2.288-21.94-3.474.862-6.842 5.426-8.979 8.322-1.356 1.837-2.175 2.946-3.181 3.584-2.634 1.665-5.062 3.813-5.086 3.834l-1.215 1.078-1.562-.444c-.975-.277-1.863-.534-2.68-.77-6.556-1.898-7.922-2.292-13.095-1.384l-2.517.442-.808-2.427C89.119 15.89 81.874 5.173 75.583 4.355c-5.318 8.784-7.762 15.472-10.755 25.794l-.097.335-.172.303c-.533.94-1.023 1.786-1.478 2.572-3.53 6.093-4.85 8.373-9.16 25.43l-.208.825-.614.59c-.101.097-10.155 9.811-15.145 19.806-1.628 3.262-3.526 7.257-5.645 11.879.183 6.898-1.17 13.639-2.48 20.165-.499 2.487-1.015 5.06-1.429 7.57-.867 5.272-1.463 11.08-1.87 18.23 9.094 22.467 17.788 32.763 48.538 56.42.332-2.148.8-3.93 1.338-4.967l1.726-3.33z" fill="#C3AA84"/><g transform="translate(23 .889)"><mask id="b" fill="#fff"><use xlink:href="#a"/></mask><path d="M153.724 85.658c-4.01-4.49-11.3-5.44-13.552-6.033-3.147-.829-8.7-3.438-13.065-5.537 1.583-4.33 1.84-7.07 1.84-7.07s-.985-3-3.552-6.815c-1.283-3-2.31-8.569-2.31-8.569-2.01-2.829-7.141-5.683-7.141-5.683.323-7.78 1.95-12.693-2.763-29.073-7.907-1.249-13.918 11.12-15.977 12.42-2.867 1.814-5.47 4.123-5.47 4.123-8.995-2.558-10.54-3.374-17.098-2.22C68.63 13.156 60.096-.456 50.93.493c-6.322 10.13-8.957 17.622-11.948 27.937-4.748 8.371-5.97 9.094-10.934 28.74 0 0-10.455 10.026-15.745 20.622-1.877 3.762-3.941 8.146-5.98 12.61.395 9.382-2.32 18.581-3.846 27.849C1.428 124.617.883 131.033.53 137.463c9.657 24.06 18.671 34.694 54.004 61.542.136-4.339.865-7.99 1.502-9.219 6.85 5.906 4.714 4.308 11.094 9.134a544.17 544.17 0 0 1 9.147-3.153c4.249-1.433 8.5-2.858 12.74-4.323.047-.032.09-.06.135-.092l.007.045c.102-.037.207-.071.31-.107.96-.332 1.914-.69 2.868-1.052 5.078-4.227 10.249-8.346 15.763-11.968 1.818-3.181 3.41-6.629 4.612-10.335.813-2.51 7.255-15.705 4.454-23.663-.476-1.353 2.629-3.913 1.947-5.778-1.138-3.132-2.652-5.115-2.652-5.115s10.403-4.382 18.731-12.989c1.584-1.635 3.973-1.478 4.816-1.193 0 0 5.056-6.693 7.546-12.382 1.354-4.71.625-7.592.625-7.592s6.274-7.727 5.544-13.565" fill="#010101" mask="url(#b)"/></g><path d="M137.737 148.308c2.256 9.473-4.085 19.958-11.556 27.921.17-2.518.088-4.671-.272-6.425-6.072 7.091-19.198 15.875-27.747 18.752-11.995-7.526-16.746-9.91-29.39-21.55-.608 2.663-.9 5.437-.925 8.307-25.242-23.955-25.069-28.352-29.888-41.793 7.985 10.93 14.453 17.181 25.163 23.888.102-1.78.399-3.491.96-5.11 8.718 6.664 15.842 9.867 23.94 13.695-9.488-10.602-16.538-19.522-25.605-31.813-.605 1.597-.923 3.3-1.024 5.691-3.068-2.705-5.559-6.488-7.492-10.978a16.594 16.594 0 0 0-2.683 3.88c-4.675-10.11-4.814-13.046 1.64-22.68 1.05 5.074 2.706 8.458 4.918 10.294.29-.95.68-1.804 1.192-2.536 3.88 4.827 10.207 11.005 14.827 13.04 2.514 1.106 10.848.876 13.482-.953-11.23-6.318-15.334-8.571-23.829-27.683 4.325 1.824 8.024 2.96 11.036 3.347-4.508-3.79-8.28-8.103-11.038-13.14 0 0 9.288-1.639 11.663-4.23.587-.638-.733-2.349-1.05-2.929 5.25-2.122 10.173-4.717 12.696-7.019.926-.847 4.13-1.295 6.076-1.006 3.15 2.184 4.325 6.06 7.076 7.93 1.668 1.134 5.367.831 7.487.177 3.34-1.033 6.475-3.238 6.475-3.238-4.205-.034-7.571-1.285-10-3.252-3.378-2.734-6.28-6.69-8.907-8.388 1.027-1.492 2.848-2.61 2.848-2.61s-2.854-.924-4.338-2.43c5.53-3.548 6.456-7.398 8.296-8.45 1.804-1.033 4.486-.503 4.486-.503 0-1.791-1.06-3.21-1.06-3.21 4.701-12.64 8.675-6.107 11.54-8.91 7.708 4.245 11.605 8.67 15.411 18.685-1.022-9.337-2.577-12.799-5.197-17.608 5.827 4.378 7.672 7.299 9.982 18.031.58-8.745 2.347-11.27 2.347-11.27 1.901.8 3.763 2.44 3.903 3.354.38 2.506.918 6.396.918 6.396 2.578 4.174 3.366 6.04 3.442 6.453-.327.978-.716 2.529-1.296 2.508-1.16-.043-1.904-1.955-1.904-1.955-1.019 1.185-1.25 2.657-2.01 2.7-1.915.108-3.346-1.924-3.346-1.924.686 2.29 1.285 4.44 3.59 5.746 2.306 1.303 9.94 5.585 15.926 7.7-.84.235-1.78.602-2.978 1.28-.42 2.245-.764 4.573-.626 6.631.05.782 4.483 3.707 6.256 9.502.236.776 1.875 2.089 2.814 2.508 1.253-.366 2.57-1.351 2.57-1.351a20.3 20.3 0 0 1-.482 4.324s-1.473 3.865-4.115 5.877c-.928-1.25-1.226-1.9-1.885-2.44-1.8-.037-14.905 7.312-28.48 3.735-8.288-2.184-17.107-7.598-23.06-3.605 8.63.824 17.713 7.513 23.366 8.48 9.183 1.576 11.778-.323 17.344-.835 2.902-.268 4.438.607 4.266 1.338-.457 1.944-12.647 10.62-23.202 8.304-4.318-4.057-13.55-6.622-19.943-6.498-4.635.333-9.799 3.83-9.799 3.83 7.54.663 10.518 2.192 16.673 9.059-2.705.004-4.666.435-6.783 2.024 9.521 6.281 7.888 19.478 4.102 31.589 4.887-1.663 11.827-6.725 14.45-9.947.274 1.39.392 3.31.277 4.882 1.448-1.345 5.816-6.385 8.472-13.589" fill="#FFF"/><path d="M133.272 69.066c-.051 1.207-.536 2.72-1.777 4.558 0 0 .756 4.594-2.104 9.296-3.402-5.784-7.457-8.034-7.457-8.034-2.881 1.167-6.28 1.526-8.405 1.045-2.126-.48-7.909-7.199-10.8-7.85 3.566-3.226 8.127-4.28 10.594-4.37 0-.987-.822-3.295-.822-3.295 5.894.754 9.602 7.803 12.786 8.937 2.986 1.065 7.985-.287 7.985-.287" fill="#010101"/><path d="M119.749 71.224l-5.48.485s-1.562-.842-2.576-2.7c1.579-1.391 4.058-1.18 4.264-1.177 1.58 1.255 3.792 3.392 3.792 3.392M93.632 41.162C91.513 19.05 80.82 7.824 76.984 7.714 67.451 21.6 65.071 39.191 66.45 51.608c-2.423-1.371-5.269-4.22-5.269-4.22.949 4.854.74 11.607.74 11.607-9.168 5.908-13.805 15.616-15.7 20.68 5.268-6.436 13.591-12.45 21.178-14.139 1.473-1.898 1.263-5.064 1.263-5.064 2.844.105 4.004-1.477 4.004-1.477-6.216-17.833 1.58-37.353 4.74-40.73 5.27.844 8.535 6.647 8.114 11.291-1.792-2.217-5.057-1.476-5.057-1.476 1.58 5.484-.737 11.184-2.107 15.509.21 2.111 2.107 4.537 2.107 4.537-2.74 0-3.793 2.849-3.793 2.849 2.53.106 3.688 1.161 4.214 2.428 6.111-4.221 9.061-10.024 9.376-12.346 1.884.84 3.373.105 3.373.105m29.558-2.529c1.659-7.393 6.403-16.445 10.62-16.068 2.262 6.79 2.75 11.187 1.428 19.958-1.321-10.178-3.518-10.199-2.69-14.554-4.208 2.177-4.46 3.72-4.46 9.155 1.053-1.734 2.938-2.112 2.938-2.112-.905 4.3.904 8.675.904 8.675-3.768-2.866-8.74-5.054-8.74-5.054M169.792 93.4s3.527-3.973 2.862-7.082c-3.457-3.194-9.29-.803-12.32 1.235 1.72.794 4.118 1.04 4.118 1.04 4.605-.786 5.781.834 5.781.834.195 1.765-.44 3.973-.44 3.973" fill="#FFF"/></g></svg>