<svg width="200" height="200" xmlns="http://www.w3.org/2000/svg"><g fill-rule="nonzero" fill="none"><path d="M26.822 3.739 16.648 25.533l-.046.11c-.643 1.652-.967 3.284-.967 4.855 0 3.117 1.281 6.002 3.788 8.598-.802 1.643-5.493 11.294-5.493 11.294l-.03.072c-.599 1.426-.9 2.86-.9 4.263 0 5.574 4.647 9.388 7.517 11.41-.89 1.898-5.116 10.924-5.116 10.924-.519 1.08-.787 2.193-.787 3.292 0 5.208 5.697 8.552 8.758 10.348l.765.452c1.513.913 39.466 23.518 74.968 44.607-8.398.003-37.876.006-37.876.006-5.608 0-7.668-1.462-7.687-1.478l-.576-.497-8.195-.003 34.852 33.054c3.164 3.045 6.36 5.164 16.059 2.43 2.918-.824 15.324-4.725 18.946-5.865.9.39 8.387 3.649 9.024 3.926 8.413 11.379 18.155 18.616 22.184 21.335-.246.76-.412 1.538-.412 2.349 0 2.489 1.137 4.422 1.267 4.637l2.628 4.305 2.239-4.523c1.668-3.368 5.35-5.39 7.867-4.95 1.115.194.949 2.565.817 3.617l-.363 2.946s2.69-1.613 4.209-3.015c5.413-5.005 3.76-9.902 2.203-11.827-1.96-2.415-5.416-3.09-9.574-2.011-.189-.342-2.741-4.995-3.72-6.782l5.697-3.127 5.707 1.11 1.075 1.786.796.049c7.65.824 9.167 1.329 9.229 2.023.063.695-.506 1.384-1.802 2.268-1.294.884-2.66 1.776-2.66 1.776s1.452.593 3.047.784c1.596.191 8.79.656 12.941-4.956 0 0 .904-1.493.904-2.765 0-1.855-1.09-4.768-5.346-8.103.152-.685.305-1.645.305-2.793 0-2.762-.881-6.554-4.75-9.892-5.42-4.68-17.33-15.926-20.139-18.584.257-1.324.67-4.034.67-7.793 0-9.418-2.607-25.346-16.845-42.118-2.233-2.629-17.783-20.078-32.822-36.952C96.493 32.09 84.677 18.828 83.769 17.732c-1.818-2.2-2.124-4.111-2.124-5.15 0-.497.07-.794.077-.83l.124-.496-.195-.49-2.615-6.377-8.276 18.103-.024.074c-.095.283-.59 1.854-.59 3.628 0 1.327.275 2.77 1.201 3.874 1.16 1.392 2.623 3.266 3.399 4.269-.636 1.427-4.969 11.17-4.969 11.17l.032-.068c-.044.087-.55 1.12-.55 2.645 0 .577.082 1.229.28 1.923-10.343-9.45-22.408-20.47-36.495-33.344-2.189-2.128-2.655-4.61-2.655-6.314 0-1.33.28-2.25.284-2.261l.14-.454-.142-.45-2.562-5.955-1.287 2.51Z" fill="#231F20"/><path d="M175.544 165.584s2.538-1.062 3.954-.554l-.01-.01s.003-.005.003-.01c-.489-.473-8.614-8.014-8.614-8.014s4.076 4.988 4.667 8.588" fill="#231F20"/><path d="M179.498 165.03c-1.416-.508-3.954.554-3.954.554-.591-3.6-4.667-8.588-4.667-8.588s8.125 7.54 8.614 8.014c.087-.182 2.607-5.63-2.5-10.377-7.625-7.085-22.238-20.416-22.216-20.343 1.032 3.259 6.885 13.796 3.79 33.322l7.523 1.418.906 1.519s8.607 1.144 9.944 2.402c0 0 2.97 2.058-.21 4.891 0 0 4.86-.945 7.597-3.614 0 0 2.5-2.144-.442-5.123l-4.385-4.075" fill="#188746"/><path d="M138.935 119.102 31.16 18.701C25.973 13.66 28.02 7.258 28.02 7.258L19.193 26.65c-2.364 6.084 1.275 9.947 3.822 11.99 2.547 2.041 86.03 69.477 86.03 69.477l.075 2.811L26.108 47.31C21.99 44.2 22.47 39.18 22.47 39.18l-6.005 12.35c-2.912 6.952 4.276 11.4 7.279 13.444 3.002 2.046 85.742 59.574 85.742 59.574l.727 3.451S30.01 74.73 27.062 72.923c-3.547-2.18-3.273-7.223-3.273-7.223l-5.87 12.533c-2.457 5.111 4.55 8.675 7.643 10.538a59713.7 59713.7 0 0 0 83.653 49.762l-47.986.005c-7.067 0-9.434-2.09-9.434-2.09l6.433 5.995c1.092 1 3.988 4.632 8.22 4.632 3 0 17.695.018 17.695.018l3.481 1.502-15.446 1.203c-3.07.137-3.924.462-8.02-1.809-.039-.023 6.85 6.688 6.85 6.688 1.913 1.633 3.445 3.25 6.72 2.978 3.277-.276 22.657-3.498 22.657-3.498l3.07 1.385-20.335 4.426c-4.64 1.024-7.967-1.362-7.967-1.362s3.846 3.774 6.393 6.228c2.64 2.54 5.009 4.125 13.379 1.766 3.324-.939 19.859-6.153 19.859-6.153l10.646 4.631c10.715 14.779 24.021 22.613 24.021 22.613-2.55 2.999-.386 6.517-.386 6.517 2.214-4.478 7.168-6.935 10.915-6.387 3.257.476 2.385 4.431 2.498 4.287 2.003-2.541 3.662-5.593 1.639-8.17-2.458-3.135-8.747-.422-8.747-.422l-6.135-11.18 8.318-4.744c4.55-28.88-18.618-48.49-18.618-48.49" fill="#188746"/><path d="M133.224 77.42c-1.398-1.607-51.443-57.733-51.443-57.733-4.334-4.789-2.806-8.544-2.68-8.83l-5.84 13.066c-1.299 3.592 1.128 5.921 2.918 7.98 1.79 2.054 54.37 56.882 54.37 56.882l-.35 3.016L80.414 42.19c-4.004-4.092-2.912-7.187-2.723-7.633l-5.345 12.017c-1.217 3.724 2.609 6.182 5.253 8.724 2.813 2.703 58.215 54.407 62.747 58.53 9.693 8.815 14.43 20.462 14.43 20.462 5.578-28.582-16.138-50.642-21.551-56.87" fill="#188746"/></g></svg>