<svg width="200" height="200" xmlns="http://www.w3.org/2000/svg"><g fill-rule="nonzero" fill="none"><path d="m168.243 103.876.03-.005.02-.003c5.823-.885 10.039-.731 11.888.344 2.459 1.431.966 3.432.966 3.432s3.212-1.996 3.212-6.573-2.788-9.368-7.976-12.913c-5.444-3.72-6.963-4.565-10.393-6.973-5.054-3.547-13.007-6.249-21.138-8.501-6.611-1.83-14.509-3.712-22.96-5.559-2.72-.594-5.5-1.185-8.311-1.77-14.396-2.991-29.657-5.812-42.516-8.078-17.736-3.125-30.899-5.193-30.899-5.193S54.802 69.182 80.719 76.62l-25.437-3.476s17.572 15.17 40.557 21.104l-24.204-2.224s17.068 15.453 37.618 19.776c.665.14 1.333.268 2.004.383 0 0-.843.16-2.21.346-2.123.29-5.521.647-9.07.578l-4.754 16.714H109.16s26.61-20.35 59.083-25.945" fill="#FFF"/><path d="M198.164 66.872a13.752 13.752 0 0 0-1.083-1.515c-1.738-2.12-4.213-3.925-7.265-5.289-3.937-1.758-8.831-2.78-14.338-2.79h-50.801l-2.785 9.847c8.452 1.847 16.35 3.728 22.96 5.56 8.131 2.251 16.084 4.953 21.137 8.5 3.43 2.408 4.95 3.254 10.394 6.973 5.188 3.545 7.976 8.336 7.976 12.913s-3.212 6.573-3.212 6.573 1.493-2-.967-3.432c-1.848-1.075-6.064-1.229-11.886-.344-.451.087-19.175 3.914-40.67 25.953h30.297c.405.001.808-.004 1.213-.014 4.242-.109 8.446-.839 12.429-2.235a37.567 37.567 0 0 0 3.903-1.62c.361-.177.723-.359 1.08-.547 6.506-3.42 11.32-8.239 12.803-13.566l10.114-35.59c.943-3.394.41-6.6-1.299-9.377M71.065 57.277c12.859 2.266 28.12 5.087 42.516 8.079l2.275-8.079H71.065" fill="#2FA35D"/><path d="M150.646 84.881s-2.634 1.58-.898 3.633c1.143 1.352 3.255 1.755 5.117 1.748.622-.002 1.215-.05 1.737-.124.42-.06.79-.137 1.132-.222.324-.08.62-.166.904-.251.693-.208 1.31-.403 2.05-.467.169-.014.343-.024.527-.023.76.004 1.674.15 2.911.544 0 0-1.308-1.391-4.49-3.16a37.252 37.252 0 0 0-1.902-.986c-2.066-.995-4.692-2.046-7.975-3a69.471 69.471 0 0 0-4.102-1.054 83.938 83.938 0 0 0-6.43-1.178l6.224 4.144s3.217.062 5.195.396" fill="#100F0D"/><path d="M109.254 111.8c-20.551-4.323-37.619-19.777-37.619-19.777l24.204 2.225c-22.985-5.933-40.557-21.104-40.557-21.104L80.72 76.62c-25.917-7.438-40.553-24.536-40.553-24.536.279 3 1.66 5.193 1.66 5.193H0l26.71 17.735-15.585 54.81h25.738l9.19-32.235 43.8 51.116 10.124-35.596c3.549.068 6.947-.288 9.07-.578 1.367-.187 2.21-.346 2.21-.346a55.228 55.228 0 0 1-2.003-.384" fill="#2FA35D"/><path d="M109.16 129.821s26.61-20.35 59.084-25.946l.03-.004.02-.003c-.451.087-19.174 3.914-40.669 25.953h-18.464" fill="#231F20"/></g></svg>