<?xml version="1.0" encoding="UTF-8"?>
<svg width="200px" height="200px" viewBox="0 0 200 200" version="1.1" xmlns="http://www.w3.org/2000/svg" xmlns:xlink="http://www.w3.org/1999/xlink">
    <!-- Generator: Sketch 51.3 (57544) - http://www.bohemiancoding.com/sketch -->
    <title>north-ala</title>
    <desc>Created with Sketch.</desc>
    <defs></defs>
    <g id="north-ala" stroke="none" stroke-width="1" fill="none" fill-rule="evenodd">
        <g id="north-ala_BGL" transform="translate(0.000000, 42.211055)">
            <g id="north-ala">
                <g id="g10" transform="translate(100.057768, 58.925715) scale(-1, 1) rotate(-180.000000) translate(-100.057768, -58.925715) translate(0.231080, 0.195769)" fill-rule="nonzero">
                    <g id="g12" transform="translate(0.415945, 0.000000)">
                        <path d="M198.865391,30.4854563 L187.853953,82.3384516 C185.940146,91.356761 178.269666,96.9636064 175.347887,98.2332919 C155.344652,106.919264 131.997686,109.515035 131.997686,109.515035 L131.59422,115.320909 C111.44448,117.682226 99.5614071,117.279506 99.5614071,117.279506 L99.7254741,111.942073 L94.737837,117.245946 C80.0868842,116.925728 64.7144987,114.558352 64.7144987,114.558352 L64.2264571,108.375394 C28.8765331,102.861305 10.4143267,89.8596135 10.4143267,89.8596135 L0.267005886,39.0395195 C-0.369367524,35.8662846 0.276574459,32.5186777 3.42937484,30.0721559 L12.3111724,23.1875614 C15.9718078,20.3466634 19.5113109,21.8013948 21.8612588,22.9140942 C21.8612588,22.9140942 30.5777,27.7488739 46.1882369,32.1718447 C50.7609462,13.8736912 72.7667226,0 99.227265,0 C126.158749,0 148.476946,14.372616 152.49497,33.1544993 C173.161405,27.8468503 183.016518,21.0443379 183.016518,21.0443379 L198.865391,30.4854563" id="path14" fill="#EDAD09"></path>
                        <path d="M194.868626,32.2530412 L184.390059,81.5884795 C182.577927,90.6263656 173.769609,95.0325098 173.769609,95.0325098 C159.921429,100.857029 145.713226,104.165949 128.662735,106.379974 L128.265277,112.124788 C128.265277,112.124788 115.777698,113.635919 103.215711,113.690454 L103.551702,102.679522 L93.2533772,113.632657 C82.331136,113.349727 68.0189469,111.403249 68.0189469,111.403249 L67.5396864,105.305123 C42.5532514,101.640561 25.2939104,94.8609811 13.5801268,87.6264772 L3.73898546,38.3339677 C3.40608657,36.7085932 3.45934596,34.5546491 5.58636612,32.907414 L14.4699708,26.0178786 C16.8439511,24.1883942 19.1376078,25.6091462 20.9212704,26.4120684 C22.2133328,26.9439473 31.5879368,32.1858747 48.9931819,36.6260916 C50.8811079,18.1475532 72.6488717,3.5713913 99.2277272,3.5713913 C126.292776,3.5713913 148.368338,18.6868433 149.544075,37.6458952 C171.470822,32.4221928 183.055339,25.2109478 183.055339,25.2109478 L194.868626,32.2530412" id="path16" fill="#47237F"></path>
                        <path d="M47.5304436,63.3770691 C47.3931819,62.1838258 46.8076245,61.4347859 45.7824136,61.1145679 C39.1059956,59.0324515 32.5716918,57.1801276 26.1034309,54.3060892 C25.1081218,53.8628179 24.7151005,54.2408337 24.9154933,55.4606453 C26.8323968,67.0295124 29.1300282,80.5122299 31.0476249,92.0801648 C26.5234886,90.3103425 22.0530093,88.3783138 17.8823797,86.0976342 C15.4509528,73.7102768 12.3413053,57.9123875 9.91260518,45.5249835 C9.40136314,42.9218952 9.6631309,41.1220554 10.7426918,40.1180996 C11.8159674,39.108131 13.4091736,39.1640176 15.5047483,40.2333688 C27.6846671,46.4539421 39.6647477,50.5184738 53.295897,53.896844 C55.6667808,57.61128 58.9056022,60.9868536 62.8348916,63.8916553 C62.9726154,64.4309454 63.0668962,64.9814221 63.1108014,65.5449499 C64.0503739,77.3687795 64.9885599,89.1949397 65.9281324,101.019702 C61.2316565,100.302823 54.8094729,99.1338177 51.5082598,98.2486735 C50.2003454,86.909599 48.8388203,74.717542 47.5304436,63.3770691" id="path18" fill="#FFFFFF"></path>
                        <path d="M109.238126,109.565375 C109.50433,100.797367 109.757132,92.1393608 110.025185,83.3708867 C101.884226,92.5504705 94.2955493,101.032753 87.1750411,109.223716 C82.201731,108.939854 77.5057173,108.470947 72.5929502,107.838901 C71.7305586,94.7626317 70.8404373,81.4122897 69.9729619,68.2698329 C74.7743482,70.700134 80.2038108,72.5468645 86.0547639,73.6645979 C86.222066,79.6993329 86.3893681,85.7340679 86.5548216,91.7669384 C91.5161156,86.340944 96.7121871,80.7089286 102.13102,74.8410613 C111.138068,74.4779611 119.509645,72.4396591 126.638472,69.1591721 C125.738645,82.2731961 124.82634,95.6286654 123.932059,108.668112 C118.927322,109.102527 114.288616,109.419482 109.238126,109.565375" id="path20" fill="#FFFFFF"></path>
                        <path d="M146.775271,80.9536368 C146.488731,83.334064 146.238702,86.4309033 145.955398,88.809 C145.81675,89.9975823 146.230383,90.4636929 147.197686,90.1905521 C153.447483,88.8514161 160.101671,87.1011705 165.214554,85.2679572 C166.148118,84.8801531 166.931481,83.8463196 167.134369,82.6372285 C167.548927,80.2139191 168.061925,77.122207 168.473248,74.6974992 C161.740955,77.2042424 154.722122,79.3031388 146.775271,80.9536368 M180.343381,78.8780459 C179.822526,81.4626296 178.729054,84.0057295 177.084224,86.4644633 C175.438933,88.918536 173.689655,90.61145 171.797107,91.5189675 C160.557362,96.4895718 149.3056,99.0289428 137.574578,100.999659 C135.569263,101.450854 133.920736,100.861224 132.672903,99.4204758 C131.418137,97.9750666 130.88203,96.0038845 131.085381,93.525574 C131.822527,84.6219278 132.604965,74.8093658 133.364757,65.4577872 C138.024722,62.4150167 141.874982,58.7583784 144.649332,54.6663927 C146.470245,54.3116825 148.26389,53.9341329 150.029806,53.5258199 C149.324549,59.4743244 148.722815,64.7204001 148.016172,70.6698368 C154.683763,69.2547248 163.209701,66.7964571 170.290002,64.0370818 C171.319695,57.9748463 172.290233,52.1750312 173.321775,46.1168974 C178.432809,44.3456769 183.098782,41.7127108 187.900169,38.989599 C185.426685,51.310862 182.815478,66.5578084 180.343381,78.8780459" id="path22" fill="#FFFFFF"></path>
                        <path d="M131.00173,38.4242534 C123.578044,42.7725533 117.247831,38.2112408 117.247831,38.2112408 C124.360944,44.2493784 131.00173,38.4242534 131.00173,38.4242534 Z M132.274982,40.1647107 C121.550084,46.2787777 112.700633,39.8604802 112.700633,39.8604802 C122.815017,48.4545357 132.274982,40.1647107 132.274982,40.1647107 Z M115.876138,50.9552195 L122.608431,48.9159853 L120.092429,49.0464963 C118.998495,47.5717221 116.806929,48.6442428 116.91831,49.9777854 L115.876138,50.9552195 Z M137.628188,40.9902393 C136.525011,36.0121306 134.701788,35.2911506 134.701788,35.2911506 C133.654532,32.3508312 129.960482,31.5287518 129.960482,31.5287518 C131.261002,32.6304976 131.750892,34.0541395 131.750892,34.0541395 C130.708258,34.0541395 128.658576,35.3783599 125.676716,35.3783599 C121.566721,35.3783599 121.278795,31.3468754 121.278795,30.6100011 C121.278795,29.8720546 124.667357,28.1199446 126.018714,26.758948 C127.343729,27.5265857 128.502828,29.3402223 128.502828,29.3402223 C128.502828,27.2842081 127.363602,25.059089 127.363602,25.059089 C128.658576,23.4701177 125.702597,18.8984109 121.30329,18.8984109 C114.501672,18.8984109 116.903983,28.4375058 109.392025,26.5136806 L105.986364,30.4328324 C119.765682,30.4328324 117.290812,21.375929 121.906409,21.375929 C123.733792,21.375929 125.4766,22.618953 125.4766,23.9506312 C125.4766,26.9080568 119.620563,27.661851 119.620563,30.1098177 C119.620563,32.705122 122.097282,36.8158453 126.158749,36.8158453 C128.370187,36.8158453 131.706525,35.3530501 132.729748,35.3530501 C133.753896,35.3530501 135.637663,36.9947852 135.637663,40.8485883 C135.637663,40.8485883 133.554243,43.1735017 132.99318,45.358582 L135.942689,45.358582 C135.942689,45.358582 129.048177,50.0104132 112.414093,57.1810599 C112.414093,57.1810599 111.886768,61.2674522 109.080991,64.0981423 L109.331944,64.3754782 C113.564873,62.3460323 115.149159,58.2820133 115.149159,58.2820133 C130.339916,51.3094636 138.324664,46.1995855 138.324664,46.1995855 C140.589713,43.913266 137.628188,40.9902393 137.628188,40.9902393 Z M61.2741752,30.6067383 C50.0737134,46.0484724 77.1276699,74.7865263 102.321892,60.3562058 C74.72767,69.6798177 57.2801834,45.3077759 61.2741752,30.6067383 Z M81.3088368,22.4306442 L80.8781031,22.3061461 C80.8781031,22.3061461 70.1800098,40.8220199 89.1378372,49.7382045 L89.2778718,49.5624808 C76.0549952,37.8290767 81.3088368,22.4306442 81.3088368,22.4306442 Z M100.310569,68.9750584 C108.219061,65.9141096 109.166953,59.6896675 109.166953,59.6896675 L108.908143,59.5600888 C108.908143,59.5600888 104.96314,67.0458263 91.002193,67.0458263 C70.9296343,67.0458263 55.6265728,54.1457471 55.6265728,39.2354258 C55.6265728,32.4780794 58.9310211,26.2489297 64.4949724,21.2513842 C64.4949724,21.2513842 57.753898,44.3424141 84.8739436,56.1285819 L84.9733081,55.9514599 C61.5394554,40.1246718 72.065625,16.9150633 77.9165781,13.2785144 C83.764296,11.0389925 90.446676,9.69146648 97.566722,9.51140792 C108.482955,21.7575338 91.5424587,24.6638271 99.051644,44.51632 C99.051644,44.51632 93.3374904,49.8813005 93.3374904,54.2389693 C93.3374904,58.5952397 96.5476579,59.2976685 97.4826088,59.2976685 C100.315653,59.2976685 104.183475,54.03994 104.183475,54.03994 C104.183475,54.03994 99.2332731,57.000675 97.3615227,57.000675 C96.3045614,57.000675 94.5973402,56.2968479 94.5973402,53.4400555 C94.5973402,50.5837293 100.402077,46.4684847 100.402077,46.4684847 C96.5864794,28.5245287 109.444249,28.0132519 109.444249,17.1794413 C109.444249,11.1340324 106.255803,9.87171148 106.255803,9.87171148 C126.992949,12.1654887 142.827033,24.4386024 142.827033,39.2354258 C142.827033,55.4168309 123.892313,68.5821271 100.310569,68.9750584 Z" id="path24" fill="#EDAD09"></path>
                        <path d="M20.0043438,83.9041174 C20.0043438,83.9041174 14.0839742,52.1097757 13.3660078,48.0504178 C12.6478564,43.9928311 17.0912994,45.5175257 17.0912994,45.5175257 L20.488873,47.3773539 C20.488873,47.3773539 16.592813,46.8380639 16.5126743,49.2907383 C16.4332289,51.7415482 23.026227,85.4241043 23.026227,85.4241043 L20.0043438,83.9041174" id="path26" fill="#EDAD09"></path>
                        <path d="M50.6722113,62.5893421 C50.6722113,62.5893421 53.7035226,63.8511037 53.8421708,65.2088841 C53.9798947,66.5661984 56.9733088,95.9819773 56.9733088,95.9819773 L54.1740021,95.2515819 L50.6722113,62.5893421" id="path28" fill="#EDAD09"></path>
                        <polyline id="path30" fill="#EDAD09" points="112.053146 106.681082 112.800922 80.3700662 115.746733 77.6922603 114.757709 106.537986 112.053146 106.681082"></polyline>
                        <path d="M172.501902,80.9452468 C172.111376,82.525362 169.436391,83.2823257 169.436391,83.2823257 L171.089077,73.9158316 L174.145807,72.8652181 C174.145807,72.8652181 172.819406,79.6480607 172.501902,80.9452468" id="path32" fill="#EDAD09"></path>
                        <polyline id="path34" fill="#EDAD09" points="175.985206 61.8253867 173.057881 63.0321472 175.401498 49.4893014 178.454068 48.2601676 175.985206 61.8253867"></polyline>
                        <polyline id="path36" fill="#EDAD09" points="74.8367399 105.745598 72.8813384 73.9326116 75.818369 75.0470822 77.3832447 103.613141 84.7144982 104.209763 82.9190043 106.447094 74.8367399 105.745598"></polyline>
                        <path d="M140.913688,97.1076346 L137.989136,97.501032 C137.989136,97.501032 133.753896,97.7476045 134.021025,93.6467628 C134.286305,89.5468532 136.272209,66.4473402 136.272209,66.4473402 L139.1108,64.677984 C139.1108,64.677984 137.052336,89.6913476 137.014901,92.1440219 C136.957593,95.858458 140.913688,97.1076346 140.913688,97.1076346" id="path38" fill="#EDAD09"></path>
                        <polyline id="path40" fill="#47237F" points="152.997801 30.0626939 153.706755 30.0626939 153.706755 27.9089363 153.960944 27.9089363 153.960944 30.0626939 154.705022 30.0626939 154.705022 30.3228769 152.997801 30.3228769 152.997801 30.0626939"></polyline>
                        <polyline id="path42" fill="#47237F" points="156.68538 30.3210591 156.070245 28.3595721 155.45973 30.3210591 155.046097 30.3210591 155.046097 27.9089363 155.303058 27.9089363 155.303058 29.9587046 155.944075 27.9089363 156.199649 27.9089363 156.840666 29.9587046 156.840666 27.9089363 157.096241 27.9089363 157.096241 30.3210591 156.68538 30.3210591"></polyline>
                    </g>
                </g>
            </g>
        </g>
    </g>
</svg>