<svg width="200" height="200" fill="none" xmlns="http://www.w3.org/2000/svg"><path d="M100 28C44.8 28 0 60.308 0 100.185s44.739 72.184 100 72.184c55.262 0 100-32.307 100-72.184C200 60.308 155.2 28 100 28Z" fill="#592C82"/><path d="M100 33.723c51.939 0 94.215 29.785 94.215 66.462 0 36.677-42.276 66.461-94.215 66.461-51.938 0-94.215-29.784-94.215-66.461S48 33.723 100 33.723Z" fill="#fff"/><path d="M131.385 74.647c2.338 1.538 4.369 3.384 5.969 5.476 1.231 1.6 2.154 3.262 2.769 4.923h12.185c-4.739-5.846-12.616-9.538-20.923-10.4ZM87.877 45.477c18.646.43 33.784 6.523 43.2 16 .615-1.046 1.108-2.154 1.354-3.262C134.892 47.877 120.369 40 99.938 40.677c-9.415.307-18.461 2.4-25.723 5.538a84.75 84.75 0 0 1 13.662-.738ZM99.2 68.123l12.862 5.415c.061 0-8.923 6.216-12.862-5.415Z" fill="#592C82"/><path d="M146.523 49.108a13.482 13.482 0 0 1 .738 6.523c-.492 3.815-2.4 7.385-5.23 10.277 5.477 1.97 13.292 5.6 19.877 11.815l-3.877 3.139c7.938 4.923 17.661 13.661 17.661 13.661l-6.277.185-1.538.061-.862 1.97s3.693 1.6 6.154 5.723a11.6 11.6 0 0 1-.8 2.154c-1.846 3.815-5.785 6.953-9.846 8.246.985-2.031 1.538-4.246 1.538-6.4v-.677c-2.461-3.016-7.323-4.185-13.23-2.646-8.739 2.277-16.554 9.6-17.908 16.615 1.169 3.385 3.261 7.077 7.138 10.215 2.216.431 4.8.308 7.631-.43.554-.123 1.108-.308 1.662-.493-3.2 5.416-8.123 8.985-13.108 11.385a39.925 39.925 0 0 1-11.569-2.523c.123-.8.184-1.6.246-2.4.308-8-3.754-15.262-10.092-19.508l10.707-8.738a35.468 35.468 0 0 1-5.784.677c-13.046.369-22.646-7.323-21.477-17.108.123-.8.246-1.538.492-2.277-5.477 6.092-11.754 18.215.8 34.954 15.815 20.985 9.6 33.108 5.415 37.169 45.477-1.969 81.662-28.369 81.662-60.554.062-21.354-16-40.246-40.123-51.015Z" fill="#592C82"/><path d="M77.108 52.062c-35.262 0-63.877 21.538-63.877 48.123 0 16.553 9.292 31.507 24.308 42.523a53.744 53.744 0 0 1-1.785-10.523c-.492-8.493 1.17-16.616 4.492-24.062 0 .369 0 .739.062 1.108 1.6 26.892 24.43 48.123 53.415 51.938-12.984-13.661-21.107-31.384-20.8-48.984.308-15.385 6.954-27.816 17.6-35.631 2.585 1.415 5.6 2.03 8.554 1.538l.923-.184c-3.692-2.339-6.461-5.6-7.323-8.923-.43-1.724-.308-3.323.246-4.616 0 0 8.923-4.923 23.262 3.385 2.646-.185 5.415-.123 8.184.061-11.692-9.661-28.492-15.753-47.261-15.753ZM182.277 150.954h-1.6v4.308H179.2v-4.308h-1.6v-1.169h4.677v1.169Zm7.877 4.369h-1.477v-4.308h-.185l-1.353 3.016h-.985l-1.354-3.077h-.185v4.369H183.2v-5.538h2.4l1.108 2.707 1.169-2.707h2.338v5.538h-.061Z" fill="#592C82"/></svg>