<?xml version="1.0" encoding="UTF-8"?>
<svg width="200px" height="200px" viewBox="0 0 200 200" version="1.1" xmlns="http://www.w3.org/2000/svg" xmlns:xlink="http://www.w3.org/1999/xlink">
    <!-- Generator: Sketch 51.3 (57544) - http://www.bohemiancoding.com/sketch -->
    <title>northern-colo</title>
    <desc>Created with Sketch.</desc>
    <defs></defs>
    <g id="northern-colo" stroke="none" stroke-width="1" fill="none" fill-rule="evenodd">
        <g id="northern-colo_BGL" transform="translate(0.985222, 0.985222)">
            <g id="northern-colo">
                <g id="g10" transform="translate(98.499998, 99.586532) scale(-1, 1) rotate(-180.000000) translate(-98.499998, -99.586532) translate(0.000000, 0.063680)" fill-rule="nonzero">
                    <g id="g12">
                        <path d="M159.066127,128.962148 C159.066127,128.962148 161.53945,109.998587 149.518631,98.4224602 C146.295507,100.309028 142.371514,100.021194 142.371514,100.021194 C142.371514,100.021194 150.268795,94.2146632 151.58613,75.6362757 C151.58613,75.6362757 159.095777,86.192066 157.25038,96.9308911 C158.743615,96.247149 160.027844,95.1414811 161.093608,93.9388375 C168.948869,117.777745 159.066127,128.962148 159.066127,128.962148 Z M118.803003,116.667892 C119.026924,119.51712 120.722434,119.19781 122.255687,118.959829 C125.625423,118.435833 129.720222,120.234522 129.139954,124.748529 C132.448208,124.366085 133.629117,121.987179 133.629117,121.987179 C133.39701,129.35278 125.340383,131.335413 122.906532,130.435159 C122.906532,130.435159 116.660923,120.330406 112.347114,127.720387 C110.608312,123.777681 115.706847,121.396592 118.803003,116.667892 Z M84.6703432,127.720387 C80.3565345,120.330406 74.1111071,130.435159 74.1111071,130.435159 C71.6772567,131.335413 63.6208119,129.35278 63.3887048,121.987179 C63.3887048,121.987179 64.5692495,124.366085 67.8776853,124.748529 C67.2975994,120.234522 71.3920342,118.435833 74.7621348,118.959829 C76.2950239,119.19781 77.9908974,119.51712 78.214637,116.667892 C81.310793,121.396592 86.4095094,123.777681 84.6703432,127.720387 Z M54.5744557,100.021194 C54.5744557,100.021194 50.6500994,100.309028 47.4269757,98.4224602 C35.406338,109.998587 37.8794792,128.962148 37.8794792,128.962148 C37.8794792,128.962148 27.9967371,117.777745 35.8519982,93.9388375 C36.9179446,95.1414811 38.2021736,96.247149 39.6954081,96.9308911 C37.8498292,86.192066 45.3594762,75.6362757 45.3594762,75.6362757 C46.6769933,94.2146632 54.5744557,100.021194 54.5744557,100.021194 Z M171.329422,129.663539 C171.587178,129.26381 184.379626,104.552486 169.403079,75.4921768 L169.399987,75.5036392 C168.264372,73.3259628 166.990329,71.2558147 165.6066,69.3446848 C165.6066,69.3446848 164.052064,75.7077794 160.861683,79.0857341 C159.592188,61.771669 132.968448,49.7912646 132.968448,49.7912646 C153.449717,69.7571498 141.407433,89.7648818 141.407433,89.7648818 C141.407433,89.7648818 142.755146,81.7901357 137.404313,75.4921768 C132.495685,97.0829954 120.98601,104.175318 120.98601,104.175318 C125.527014,98.2234145 126.491823,80.3254941 125.834793,72.5829074 C125.396591,67.4317356 121.337809,63.6016523 117.089303,63.6533241 C111.150562,63.7255555 105.878857,66.4243168 104.362703,67.9602801 C104.362703,67.9602801 110.836417,70.3093469 112.471717,73.3241434 C111.152199,73.0788841 109.50835,78.4045393 118.187628,78.5884838 C118.801729,78.7938975 118.889406,79.2314705 118.680582,79.7840316 L118.690769,79.7820302 C115.904392,93.9608526 110.658517,95.4713439 98.5087288,95.4713439 C86.3591225,95.4713439 81.1132473,93.9608526 78.3266887,79.7820302 L78.3366933,79.7840316 C78.1282335,79.2314705 78.2157284,78.7938975 78.82983,78.5884838 C87.5092896,78.4045393 85.8654401,73.0788841 84.5459222,73.3241434 C86.1812222,70.3093469 92.6547548,67.9602801 92.6547548,67.9602801 C91.1387826,66.4243168 85.8672592,63.7255555 79.9283369,63.6533241 C75.6796491,63.6016523 71.6208671,67.4317356 71.1828468,72.5829074 C70.5256344,80.3254941 71.4906252,98.2234145 76.0314478,104.175318 C76.0314478,104.175318 64.5221369,97.0829954 59.6133263,75.4921768 C54.2623117,81.7901357 55.6102064,89.7648818 55.6102064,89.7648818 C55.6102064,89.7648818 43.5679223,69.7571498 64.0490095,49.7912646 C64.0490095,49.7912646 37.4254515,61.771669 36.1557747,79.0857341 C32.9653935,75.7077794 31.4110398,69.3446848 31.4110398,69.3446848 C30.0271285,71.2558147 28.7530861,73.3259628 27.6174711,75.5036392 L27.6145607,75.4921768 C12.6385047,104.552486 25.4302801,129.26381 25.6880354,129.663539 C22.0681832,128.663761 20.8867289,127.833009 20.8867289,127.833009 C20.8867289,127.833009 25.560522,139.272133 31.8699789,144.617074 C29.7366308,144.685667 25.6874897,143.24577 25.6874897,143.24577 C26.8201942,146.591884 32.7341959,156.868574 39.5768079,162.540831 C42.3217109,165.578734 33.3988662,169.52235 29.8595967,165.121329 C31.797218,173.844225 44.9880321,170.673685 44.9880321,170.673685 C32.7969521,181.113578 20.5403873,171.679649 21.5304805,160.236522 C14.7163726,178.606039 37.2815669,193.751161 57.3868444,176.537346 C57.3868444,176.537346 70.9101755,180.248257 82.3518188,178.085136 C81.4355778,179.179705 78.9566158,181.030066 78.9566158,181.030066 C80.0010977,180.897975 89.5704225,180.567567 94.2875083,173.242903 C94.2875083,173.242903 76.7495973,176.0199 67.7328912,167.758958 C67.7328912,167.758958 79.5252418,171.66109 89.5971621,165.924426 C89.5971621,165.924426 84.5106332,165.375504 82.6164864,163.806973 C82.6164864,163.806973 87.5625869,163.362122 89.474742,161.722633 C81.7164347,161.722633 78.7847183,158.752958 78.7847183,158.752958 C89.5720596,158.814819 97.5355525,152.424251 98.5087288,151.362613 C99.4819052,152.424251 107.44558,158.814819 118.232921,158.752958 C118.232921,158.752958 115.301205,161.722633 107.542716,161.722633 C109.455235,163.362122 114.400971,163.806973 114.400971,163.806973 C112.507006,165.375504 107.420296,165.924426 107.420296,165.924426 C117.492398,171.66109 129.284566,167.758958 129.284566,167.758958 C120.268042,176.0199 102.729768,173.242903 102.729768,173.242903 C107.447217,180.567567 117.016724,180.897975 118.061024,181.030066 C118.061024,181.030066 115.582062,179.179705 114.666003,178.085136 C126.107282,180.248257 139.630795,176.537346 139.630795,176.537346 C159.736073,193.751161 182.300485,178.606039 175.486795,160.236522 C176.477252,171.679649 164.220506,181.113578 152.029607,170.673685 C152.029607,170.673685 165.220785,173.844407 167.157861,165.121329 C163.618773,169.522532 154.695929,165.578734 157.440468,162.540831 C164.283626,156.868574 170.197264,146.591884 171.329968,143.24577 C171.329968,143.24577 167.280827,144.685667 165.147661,144.617074 C171.457118,139.272133 176.130911,127.833009 176.130911,127.833009 C176.130911,127.833009 174.949274,128.663761 171.329422,129.663539 Z M119.923338,54.378231 C120.673138,54.6358623 121.372552,53.8693362 121.039671,53.1290099 C118.425919,47.3152015 118.461936,39.9022956 113.800694,35.3579039 C108.535719,30.2251083 104.475118,30.3828529 104.475118,30.3828529 C104.867481,31.8755138 104.767799,33.7225997 103.759879,34.5990194 C102.906213,31.6795611 100.219336,28.9778886 96.9092635,27.6145893 C98.2757122,31.3147653 93.7312516,33.2435436 93.0718564,33.6862111 L93.0214695,33.680025 C93.2422987,33.2693795 94.522162,30.6992519 92.9879995,29.011912 C90.7600624,32.3587545 88.5461317,30.4085069 85.6335149,32.4815661 C78.2642963,35.4708905 78.6633895,46.5965265 75.6010674,53.0533216 C75.248723,53.7963771 75.9554127,54.5974724 76.7113979,54.3243758 C79.5867247,53.2856629 81.1339841,51.2795588 81.7691863,48.409771 C83.0766988,42.5015341 91.7350577,40.5713002 98.2429698,40.5713002 C104.751064,40.5713002 113.408513,42.5015341 114.716208,48.409771 C115.362142,51.3297751 116.951057,53.355711 119.923338,54.378231 Z" id="path14" fill="#FAB621"></path>
                        <path d="M120.018109,123.668515 C120.315701,122.843221 121.116616,122.268099 122.038314,122.314677 C123.16738,122.371807 124.036327,123.33374 123.979027,124.46306 C123.941919,125.199384 123.516814,125.819446 122.914718,126.150036 C122.256778,125.036181 121.241037,124.156668 120.018109,123.668515 Z M74.1027396,126.150036 C73.5006436,125.819446 73.0759021,125.199384 73.0384303,124.46306 C72.981313,123.33374 73.8502595,122.371807 74.979144,122.314677 C75.9008421,122.268099 76.701939,122.843221 76.9995309,123.668515 C75.7766029,124.156668 74.7610434,125.036181 74.1027396,126.150036 Z M90.6989433,51.0437606 C92.7291528,50.3536506 95.3141638,49.8758681 98.3108193,49.8758681 C101.310203,49.8758681 103.870294,50.3567436 105.868489,51.0473994 C106.006188,51.5129917 106.363808,51.9270941 106.990643,52.1807227 C108.566097,52.8160679 111.500724,55.3647262 111.906729,57.3364431 C111.973488,57.6606657 112.643069,57.6794058 112.774584,57.3617332 C114.770414,52.5622573 111.806683,48.6663107 109.229312,48.4623525 C107.290417,48.3084287 105.969626,49.1346321 105.818647,50.3636574 C104.950974,49.6091396 104.498584,48.5931696 104.36143,47.6761765 C102.528038,47.2826337 100.509834,47.0577521 98.3773955,47.0577521 C96.2473217,47.0577521 94.2160207,47.2768115 92.3657124,47.6694447 C92.1865388,48.5875293 91.6855803,49.6073201 90.7802535,50.3636574 C90.6871196,49.1339043 89.4236275,48.313705 87.4592665,48.4623525 C84.8487892,48.6593968 81.8290321,52.5622573 83.5652878,57.3617332 C83.68025,57.6794058 84.3503774,57.6606657 84.4353257,57.3364431 C84.9471982,55.3647262 87.9171141,52.8160679 89.5227642,52.1807227 C90.1632415,51.9263663 90.5399608,51.5102626 90.6989433,51.0437606 Z M113.884369,85.5023199 C110.454969,91.2695509 102.72904,89.5132546 98.1169117,87.7826122 C93.5046015,89.5132546 85.7795823,91.2695509 82.3490903,85.5030477 C86.8626276,90.1009307 96.0559607,84.1943313 98.1169117,84.1943313 C100.177681,84.1943313 109.371741,90.1014765 113.884369,85.5023199 Z M160.805475,198.972926 C153.685644,198.972926 146.47941,196.875123 139.816699,192.883292 C134.148083,194.557168 127.052082,195.530564 120.268952,195.530564 C117.713591,195.530564 115.220077,195.397745 112.808236,195.135747 C111.915461,195.930839 110.750014,196.427543 109.469241,196.467571 C109.412851,196.46939 109.356462,196.471209 109.300072,196.471209 C109.234951,196.471209 109.16983,196.46939 109.104527,196.467571 C108.917532,196.460293 108.732901,196.443918 108.550999,196.418446 C104.651018,195.914464 101.079188,194.473475 98.4708932,193.276289 C95.8418619,194.482572 92.2334695,195.938116 88.2971077,196.429363 C88.0780975,196.456654 87.8590874,196.471209 87.6417143,196.471209 C86.345116,196.471209 85.0967218,195.992699 84.1344596,195.135747 C81.7226194,195.397745 79.2281956,195.530564 76.6726527,195.530564 C69.8897046,195.530564 62.7935211,194.557168 57.1249053,192.883292 C50.4623764,196.875123 43.256142,198.972926 36.1363112,198.972926 C24.7456005,198.972926 14.6611653,193.512815 9.16048158,184.366538 C5.92993632,178.996125 4.37978466,172.488022 4.67757661,165.546894 C4.95739664,159.019869 6.81338035,152.143331 10.2000886,145.069567 C8.24265806,141.607736 6.75509891,138.104787 6.67680824,137.919751 C6.05272025,136.443283 6.14026974,134.783962 6.87198921,133.399739 C4.40706997,128.148863 1.12978315,119.545321 0.0294879706,109.15892 C-0.123707629,107.712837 0.32685628,106.296774 1.2284796,105.218397 C0.244076264,96.44856 0.626212597,87.7966219 2.37254934,79.4265135 C5.11457827,66.2844026 11.1881263,54.2241252 20.4241518,43.5808203 C21.4397114,42.4103806 22.9009311,41.7630272 24.4076264,41.7630272 C24.852377,41.7630272 25.3007658,41.8196115 25.7433336,41.9353273 C25.7873539,41.9469716 25.8306466,41.9587979 25.8741212,41.971352 C31.5099946,36.6371455 42.9418152,28.6209164 65.5091378,20.490427 C65.993725,20.3159436 66.4952292,20.2153291 66.997279,20.186946 C70.3706538,14.9721305 74.518204,12.7323933 78.289035,10.6963959 C81.673142,8.86794096 84.5957634,7.29044007 87.5336645,3.44234443 C88.5290329,2.13968673 90.0739276,1.37367008 91.7135933,1.37004577 L91.725235,1.37004577 C92.4371999,1.37004577 93.1317022,1.51375167 93.7714519,1.78304195 C94.1136098,1.39548869 94.5161592,1.05342119 94.9710964,0.775106531 C95.8167594,0.258344585 96.7713817,0 97.7256402,0 C98.7079117,0 99.6896374,0.272914585 100.55149,0.820592295 C101.72112,1.5629327 103.049188,2.46347259 104.351243,3.54610656 C104.884216,3.37142303 105.44302,3.2804515 106.005825,3.2804515 C106.621018,3.2804515 107.240758,3.38776152 107.837215,3.60978663 C121.555909,8.69325743 125.383857,14.2880064 128.892386,20.2069597 C129.075015,20.1880376 129.258736,20.1782127 129.442639,20.1782127 C130.045645,20.1782127 130.650288,20.2817383 131.229828,20.490427 C153.857178,28.6425676 165.350845,36.6668022 171.020553,41.9851797 C171.079489,41.9675312 171.138607,41.9507925 171.198089,41.9353273 C171.640475,41.8196115 172.089409,41.7630272 172.533978,41.7630272 C174.040855,41.7630272 175.501711,42.4101987 176.517453,43.5808203 C185.752987,54.2241252 191.826699,66.2844026 194.569783,79.4265135 C196.316043,87.7966219 196.698038,96.44856 195.713947,105.218215 C196.614363,106.296774 197.06548,107.712837 196.912682,109.15892 C195.812174,119.548596 192.532479,128.153957 190.067705,133.40447 C190.798952,134.787783 190.888084,136.444738 190.26416,137.919751 C190.185942,138.104787 188.699801,141.607554 186.740716,145.069567 C190.127733,152.143877 191.984954,159.020597 192.265083,165.54744 C192.563402,172.488931 191.013596,178.996852 187.783015,184.368357 C182.282295,193.512815 172.197277,198.972926 160.805475,198.972926 Z M160.805475,193.696578 C180.936947,193.696578 196.125046,173.894987 180.712661,144.827765 C183.175434,141.143782 185.407373,135.865613 185.407373,135.865613 C185.407373,135.865613 184.041288,136.159451 183.12632,136.159451 C182.951694,136.159451 182.795259,136.148899 182.664289,136.123609 C182.664289,136.123609 189.971297,124.61007 191.666625,108.603084 L189.702082,109.926538 C192.667087,93.2660121 191.670263,69.0901465 172.53416,47.039012 C172.006644,49.6065924 171.404912,50.5141243 171.404912,50.5141243 C171.404912,50.5141243 165.406871,38.4110903 129.442458,25.4540155 C129.442458,25.4540155 129.224903,26.2452859 127.651267,28.2755884 C122.132903,20.0606775 121.683241,14.3662601 106.005097,8.55680014 C106.463854,10.1560432 106.377451,12.1101662 105.113413,13.1253357 C104.04401,9.74119485 100.685006,7.15221793 97.7256402,5.27456559 C98.0688895,8.93162103 92.9803596,12.574121 92.9803596,12.574121 C92.9803596,12.574121 93.8744085,9.43374747 91.725235,6.64639804 C83.2875233,17.6938167 74.0634487,14.0624152 68.8850592,28.2885064 C67.3116059,26.2582038 67.2966899,25.4540155 67.2966899,25.4540155 C31.3319124,38.4110903 25.5366928,50.5141243 25.5366928,50.5141243 C25.5366928,50.5141243 24.9349606,49.6065924 24.4074444,47.039012 C5.27217826,69.0901465 4.27499084,93.2660121 7.23877664,109.926538 L5.27459756,108.603084 C6.9706893,124.61007 14.2764059,136.123609 14.2764059,136.123609 C14.1471463,136.148899 13.9892734,136.159451 13.8153204,136.159451 C12.8993523,136.159451 11.5350864,135.865613 11.5350864,135.865613 C11.5350864,135.865613 13.7660068,141.143782 16.2290888,144.827765 C0.818559536,173.892622 16.0069681,193.696578 36.1364931,193.696578 C42.6616859,193.696578 49.7052998,191.616969 56.3954778,187.095684 C61.2562662,188.862351 68.7209835,190.256035 76.6726527,190.256035 C80.636118,190.256035 84.7203663,189.910343 88.6636404,189.091599 C88.0784613,190.139591 87.64226,191.194861 87.64226,191.194861 C92.0019081,190.649032 96.0870659,188.574881 98.4708932,187.441376 C100.854357,188.574881 104.939514,190.649032 109.299344,191.194861 C109.299344,191.194861 108.863325,190.139591 108.277782,189.091599 C112.220692,189.908523 116.306214,190.256035 120.26877,190.256035 C128.221349,190.256035 135.684974,188.862351 140.546309,187.095684 C147.234486,191.615149 154.281192,193.696578 160.805475,193.696578 Z" id="path16" fill="#FFFFFF"></path>
                        <path d="M47.4269757,98.4224602 C35.406338,109.998587 37.8794792,128.962148 37.8794792,128.962148 C37.8794792,128.962148 27.9967371,117.777745 35.8521801,93.9386555 C36.9179446,95.1414811 38.2021736,96.2469671 39.6954081,96.9308911 C37.8498292,86.192066 45.3594762,75.6362757 45.3594762,75.6362757 C46.6769933,94.2146632 54.5744557,100.021376 54.5744557,100.021376 C54.5744557,100.021376 50.6500994,100.309028 47.4269757,98.4224602 Z M76.9995309,123.668515 C75.7766029,124.156668 74.7610434,125.036181 74.1029215,126.150036 C73.5006436,125.819446 73.0759021,125.199384 73.0384303,124.46306 C72.981313,123.33374 73.8502595,122.371807 74.979144,122.314677 C75.9008421,122.267917 76.701939,122.843221 76.9995309,123.668515 Z M84.6703432,127.720387 C86.4095094,123.777681 81.310793,121.396774 78.214637,116.667892 C77.9908974,119.51712 76.2950239,119.19781 74.7621348,118.959829 C71.3920342,118.435833 67.2975994,120.234522 67.8776853,124.748529 C64.5692495,124.366085 63.3887048,121.987179 63.3887048,121.987179 C63.6208119,129.35278 71.6772567,131.335413 74.1111071,130.435159 C74.1111071,130.435159 80.3565345,120.330406 84.6703432,127.720387 Z M175.486795,160.236522 C182.300485,178.606039 159.736073,193.751161 139.630795,176.537346 C139.630795,176.537346 126.107282,180.248257 114.666003,178.085136 C115.582062,179.179705 118.061024,181.030248 118.061024,181.030248 C117.016724,180.897975 107.447217,180.567567 102.729768,173.242903 C102.729768,173.242903 120.268042,176.0199 129.284566,167.758958 C129.284566,167.758958 117.492398,171.66109 107.420296,165.924426 C107.420296,165.924426 112.507006,165.375504 114.400971,163.806973 C114.400971,163.806973 109.455235,163.362304 107.542716,161.722633 C115.301205,161.722633 118.232921,158.752958 118.232921,158.752958 C107.44558,158.814819 99.4819052,152.424251 98.5087288,151.362613 C97.5355525,152.424251 89.5720596,158.814819 78.7847183,158.752958 C78.7847183,158.752958 81.7164347,161.722633 89.474742,161.722633 C87.5625869,163.362304 82.6163045,163.806973 82.6163045,163.806973 C84.5106332,165.375504 89.5971621,165.924426 89.5971621,165.924426 C79.5252418,171.66109 67.7328912,167.758958 67.7328912,167.758958 C76.7494154,176.0199 94.2876902,173.242903 94.2876902,173.242903 C89.5704225,180.567567 80.0010977,180.897975 78.9566158,181.030248 C78.9566158,181.030248 81.4355778,179.179705 82.3518188,178.085136 C70.9101755,180.248257 57.3868444,176.537346 57.3868444,176.537346 C37.2815669,193.751161 14.7163726,178.606039 21.5304805,160.236522 C20.5403873,171.679649 32.7969521,181.113578 44.9878502,170.673685 C44.9878502,170.673685 31.797218,173.844225 29.8595967,165.121329 C33.3988662,169.52235 42.3218928,165.578734 39.5768079,162.540831 C32.7341959,156.868574 26.8201942,146.591884 25.6874897,143.24577 C25.6874897,143.24577 29.7366308,144.685667 31.8699789,144.617074 C25.560522,139.272315 20.8867289,127.833191 20.8867289,127.833191 C20.8867289,127.833191 22.0681832,128.663761 25.6880354,129.663539 C25.4302801,129.26381 12.6385047,104.552486 27.6145607,75.4921768 L27.6174711,75.5036392 C28.7530861,73.3257809 30.0271285,71.2558147 31.4112217,69.3446848 C31.4112217,69.3446848 32.9653935,75.7077794 36.1557747,79.0857341 C37.4254515,61.771669 64.0490095,49.7912646 64.0490095,49.7912646 C43.5679223,69.7571498 55.6102064,89.7648818 55.6102064,89.7648818 C55.6102064,89.7648818 54.2623117,81.7901357 59.6133263,75.4921768 C64.5221369,97.0829954 76.0314478,104.175318 76.0314478,104.175318 C71.4906252,98.2232326 70.5256344,80.3254941 71.1828468,72.5829074 C71.6208671,67.4317356 75.6796491,63.6016523 79.9283369,63.6533241 C85.8672592,63.7255555 91.1387826,66.4243168 92.6547548,67.9602801 C92.6547548,67.9602801 86.1812222,70.3093469 84.5459222,73.3241434 C85.8652582,73.0788841 87.5092896,78.4045393 78.82983,78.5884838 C78.2157284,78.7938975 78.1282335,79.2314705 78.3368752,79.7840316 L78.3266887,79.7820302 C81.1132473,93.9608526 86.3591225,95.4713439 98.5087288,95.4713439 C110.658517,95.4713439 115.904392,93.9608526 118.690769,79.7820302 L118.680582,79.7840316 C118.889406,79.2314705 118.801729,78.7938975 118.187628,78.5884838 C109.50835,78.4045393 111.152199,73.0788841 112.471717,73.3241434 C110.836417,70.3093469 104.362703,67.9602801 104.362703,67.9602801 C105.878857,66.4243168 111.150562,63.7255555 117.089303,63.6533241 C121.337991,63.6016523 125.396591,67.4317356 125.834793,72.5829074 C126.491823,80.3254941 125.526833,98.2232326 120.98601,104.175318 C120.98601,104.175318 132.495503,97.0829954 137.404313,75.4921768 C142.755146,81.7901357 141.407433,89.7648818 141.407433,89.7648818 C141.407433,89.7648818 153.449717,69.7571498 132.968448,49.7912646 C132.968448,49.7912646 159.592188,61.771669 160.861683,79.0857341 C164.052064,75.7077794 165.6066,69.3446848 165.6066,69.3446848 C166.990329,71.2558147 168.264372,73.3257809 169.399987,75.5036392 L169.402897,75.4921768 C184.379626,104.552486 171.587178,129.26381 171.329422,129.663539 C174.949274,128.663761 176.130911,127.833191 176.130911,127.833191 C176.130911,127.833191 171.457118,139.272315 165.147479,144.617074 C167.280827,144.685667 171.329968,143.24577 171.329968,143.24577 C170.197264,146.591884 164.283626,156.868574 157.440468,162.540831 C154.695929,165.578734 163.618773,169.522532 167.157861,165.121329 C165.220785,173.844407 152.029607,170.673685 152.029607,170.673685 C164.220506,181.113578 176.477252,171.679649 175.486795,160.236522 Z M113.884369,85.5023199 C110.454969,91.269369 102.72904,89.5132546 98.1169117,87.7826122 C93.5046015,89.5132546 85.7795823,91.269369 82.3490903,85.5030477 C86.8626276,90.1009307 96.0559607,84.1943313 98.1169117,84.1943313 C100.177681,84.1943313 109.371741,90.1014765 113.884369,85.5023199 Z M90.6989433,51.0437606 C90.5399608,51.5102626 90.1632415,51.9263663 89.5225822,52.1807227 C87.9171141,52.8160679 84.9471982,55.3647262 84.4353257,57.3364431 C84.3503774,57.6606657 83.68025,57.6794058 83.5651059,57.3617332 C81.8290321,52.5622573 84.8487892,48.6593968 87.4592665,48.4623525 C89.4236275,48.313705 90.6871196,49.1339043 90.7802535,50.3636574 C91.6855803,49.6073201 92.1867207,48.5875293 92.3657124,47.6694447 C94.2160207,47.2769935 96.2473217,47.0577521 98.3773955,47.0577521 C100.509834,47.0577521 102.528038,47.2826337 104.36143,47.6761765 C104.498584,48.5931696 104.950974,49.6091396 105.818647,50.3636574 C105.969626,49.1346321 107.290417,48.3084287 109.229312,48.4623525 C111.806683,48.6663107 114.770414,52.5622573 112.774584,57.3617332 C112.643069,57.6794058 111.973488,57.6606657 111.906729,57.3364431 C111.500724,55.3647262 108.566097,52.8160679 106.990643,52.1807227 C106.363808,51.9272761 106.006007,51.5129917 105.868489,51.0473994 C103.870294,50.3567436 101.310203,49.8758681 98.3108193,49.8758681 C95.3141638,49.8758681 92.7291528,50.3536506 90.6989433,51.0437606 Z M119.92352,54.378231 C116.951057,53.355711 115.362142,51.3297751 114.716208,48.409771 C113.408513,42.5013521 104.751064,40.5713002 98.2429698,40.5713002 C91.7350577,40.5713002 83.0766988,42.5013521 81.7691863,48.409771 C81.1339841,51.2793768 79.5867247,53.2856629 76.7113979,54.3243758 C75.9554127,54.5974724 75.248723,53.7963771 75.6010674,53.0533216 C78.6633895,46.5965265 78.2642963,35.4707086 85.6335149,32.4815661 C88.5461317,30.4085069 90.7600624,32.3589365 92.9879995,29.011912 C94.522162,30.6992519 93.2422987,33.2693795 93.0214695,33.680025 L93.0718564,33.6862111 C93.7312516,33.2433617 98.2757122,31.3147653 96.9092635,27.6147713 C100.219336,28.9778886 102.906213,31.6795611 103.759879,34.5990194 C104.767799,33.7225997 104.867481,31.8755138 104.475118,30.3828529 C104.475118,30.3828529 108.535537,30.2252902 113.800694,35.3579039 C118.461936,39.9022956 118.425919,47.3152015 121.039671,53.1290099 C121.372552,53.8693362 120.673138,54.6358623 119.92352,54.378231 Z M189.702082,109.926538 C192.667087,93.2660121 191.670263,69.0901465 172.53416,47.039012 C172.006644,49.6065924 171.404912,50.5141243 171.404912,50.5141243 C171.404912,50.5141243 165.406871,38.4110903 129.442458,25.4540155 C129.442458,25.4540155 129.225084,26.2452859 127.651267,28.2755884 C122.132903,20.0606775 121.683241,14.3662601 106.005097,8.55680014 C106.463854,10.1560432 106.377451,12.1101662 105.113413,13.1253357 C104.04401,9.74119485 100.685006,7.15221793 97.7256402,5.27456559 C98.0688895,8.93162103 92.9803596,12.574121 92.9803596,12.574121 C92.9803596,12.574121 93.8744085,9.43374747 91.725235,6.64639804 C83.2875233,17.6938167 74.0634487,14.0624152 68.8850592,28.2885064 C67.3116059,26.2582038 67.2966899,25.4540155 67.2966899,25.4540155 C31.3319124,38.4110903 25.5366928,50.5141243 25.5366928,50.5141243 C25.5366928,50.5141243 24.9349606,49.6065924 24.4074444,47.039012 C5.27217826,69.0901465 4.27499084,93.2660121 7.23877664,109.926538 L5.27459756,108.603084 C6.9706893,124.61007 14.2765514,136.123609 14.2765514,136.123609 C13.4675054,136.281899 11.5350864,135.865613 11.5350864,135.865613 C11.5350864,135.865613 13.7660068,141.143963 16.2290888,144.827765 C-4.17714569,183.314907 29.0681405,205.562904 56.3954778,187.095684 C63.6790206,189.742955 76.8090793,191.551469 88.6636404,189.091599 C88.0784613,190.139591 87.64226,191.194861 87.64226,191.194861 C92.0019081,190.649032 96.0870659,188.574881 98.4708932,187.441376 C100.854357,188.574881 104.939514,190.649032 109.299344,191.194861 C109.299344,191.194861 108.863325,190.139591 108.277782,189.091599 C120.132707,191.551469 133.262766,189.742955 140.546309,187.095684 C167.873464,205.562904 201.118259,183.314907 180.712661,144.827765 C183.175434,141.143963 185.407373,135.865613 185.407373,135.865613 C185.407373,135.865613 183.473753,136.281899 182.666108,136.123609 C182.666108,136.123609 189.971297,124.61007 191.666625,108.603084 L189.702082,109.926538 Z M123.979027,124.46306 C123.941737,125.199384 123.516814,125.819446 122.914718,126.150036 C122.256778,125.036181 121.241037,124.156668 120.018109,123.668515 C120.315701,122.843221 121.116616,122.267917 122.038314,122.314677 C123.16738,122.371807 124.036327,123.33374 123.979027,124.46306 Z M133.629117,121.987179 C133.629117,121.987179 132.448208,124.366085 129.139772,124.748529 C129.720222,120.234522 125.625605,118.435833 122.255687,118.959829 C120.722434,119.19781 119.026924,119.51712 118.803003,116.667892 C115.706847,121.396774 110.608312,123.777681 112.347114,127.720387 C116.660923,120.330406 122.906532,130.435159 122.906532,130.435159 C125.340383,131.335413 133.39701,129.35278 133.629117,121.987179 Z M149.518631,98.4224602 C161.53945,109.998587 159.066127,128.962148 159.066127,128.962148 C159.066127,128.962148 168.948869,117.777745 161.093608,93.9386555 C160.027844,95.1414811 158.743615,96.2469671 157.25038,96.9308911 C159.095777,86.192066 151.58613,75.6362757 151.58613,75.6362757 C150.268795,94.2146632 142.371333,100.021376 142.371333,100.021376 C142.371333,100.021376 146.295507,100.309028 149.518631,98.4224602 Z" id="path18" fill="#0F2B53"></path>
                    </g>
                </g>
            </g>
        </g>
    </g>
</svg>