<svg width="200" height="200" xmlns="http://www.w3.org/2000/svg"><g fill="none" fill-rule="evenodd"><path d="M139.094 189.338a5.42 5.42 0 0 1-8.31 3.508c-.488.925-.843 1.577-.843 1.577l-3.923-1.784c-.026-.015-3.964-1.789-4.161-1.835-.076.236-.555 2.601-.555 2.609l-.513 3.447s-4.831-.437-7.784-1.3c-1.545-.448-3.336-1.13-3.892-1.395-.756 1.39-.789 1.06-1.229 1.785-.656 1.093-1.426 2.949-1.426 2.949s-5.849-1.502-7.31-2.039c-1.32-.466-4.14-2-4.448-2.193l-5.405 4.733s-4.143-3.07-5.382-4.36c-1.212-1.266-3.107-3.506-3.968-4.573l-3.12 1.906s-2.882-4.35-4.09-7.067c-1.9-4.264-2.207-10.665-2.207-10.665l-4.663-2.236 3.197-10.368-2.706-1.82 2.881-8.383-3.361-1.827s5.02-12.694 3.397-18.077l-1.523 2.95s-4.87-2.817-7.565-5.157c-2.638-2.279-4.465-4.006-6.042-6.569l-1.842 2.269s-3.756-4.853-5.11-8.472c-1.384-3.713-1.692-9.415-1.696-10.02l-1.831.71s-2.659-5.613-2.437-14.837c.083-3.376.38-6.852.792-8.83-.53-.563-5.96-6.734-7.282-8.989-3.773-6.462-5.504-15-5.504-15l1.319-.104C29.555 57.7 27 52.666 27 42c0-4.884.505-8.439.505-8.439l1.423.811c.083-1.425.007-4.418.315-6.149 1.34-7.617 1.821-7.86 4.362-12.24 1.24-2.145 3.655-5.186 3.655-5.186s1.179 2.977 2.136 4.777c1.61 3.018 2.433 4.27 4.974 7.212.008.01 4.218 3.56 5.727 4.669 3.236 2.359 7.106 5.75 10.41 11.03.825 1.312 1.96 3.415 3.015 5.43a87.1 87.1 0 0 1 1.659.046c.021-.867.028-1.764-.01-2.597-.202-5.365-.994-7.676-1.793-12.99-.158-1.106-1.046-5.912-.785-8.222.918-8.12 11.35-9.932 15.89-10.545 4.623-.614 9.168-.614 11.124-.575 1.111-.444 3.029-1.152 4.803-1.572l.573-1.943c1.258-1.296 6.598-4.69 18.703-2.737 12.636 2.041 16.149 6.596 16.149 9.338l-.09 1.173c.412.266.841.543 1.232.805 1.136.758 3.032 2.52 3.032 2.52 1.029.27 2.61.714 4.408 1.332 1.777.608 3.853 1.398 5.891 2.378a97.155 97.155 0 0 0 1.986-4.65c2.448-6.2 4.684-15.247 4.684-15.247s5.15 5.2 7.555 9.157c1.605 2.657 3.461 7.178 3.461 7.178l2.591-2.51s2.606 9.11 3.06 16.463a71.31 71.31 0 0 1 .097 6.693l2.033-1.005s.418 2.782.508 4.57c.302 6.204-.118 11.69-2.24 20.225-1.053 4.268-1.906 6.384-2.612 8.131.971 1.864 2.408 4.808 3.33 8.299 1.824 6.945 2.07 18.57 2.07 18.57l-2.698-.709a35.828 35.828 0 0 1-.11 5.776c-.32 3.262-1.72 7.734-2.62 10.132-.896 2.426-5.032 10.504-5.032 10.504l-1.76-2.853c-.19.287-1.76 2.333-2.136 2.795-.043.68-.11 1.523-.19 2.444-.218 2.376-.734 5.666-1.97 8.745-1.388 3.44-5.734 14.757-5.734 14.757l-5.064-.896-.613 1.211-2.91 4.777 4.275 8.426-2.422 4.472c.458 1.663 2.014 5.677 1.591 14.923-.118 2.587-1.405 9.454-1.405 9.454l-2.939-.821" fill="#FFF" fill-rule="nonzero"/><path d="m71.14 147.774 3.562 1.932-3.006 8.719 2.613 1.76-3.029 9.854 3.741 1.792-.053 4.867c.53 5.286 3.329 9.676 3.329 9.676l3.254-1.864s.427 1.212 1.881 3.097c1.463 1.878 5.605 6.02 5.605 6.02l5.347-4.58s2.01 1.484 3.344 2.219c1.33.72 6.386 2.419 6.386 2.419s.832-.99 1.634-2.799c.613-1.372 1.918-2.577 1.918-2.577s2.093 1.011 3.107 1.68c1.025.664 6.285 2.083 6.285 2.083s.262-2.39 1.043-4.035c.774-1.652 1.574-2.48 1.574-2.48s1.362.566 2.93.834c1.574.285 5.452 2.262 5.452 2.262s.917-1.892 1.365-3.168c.398-1.121.846-2.935.846-2.935s2.674.502 4.379.94c1.688.426 3.856 1.164 3.856 1.164s1.162-7.404.348-12.113c-.495-2.828-1.803-7.3-1.803-7.3l2.168-4-4.332-8.554 4.107-6.744 2.01-4.028 4.735.831s3.042-7.927 4.436-11.389c2.01-5 1.806-11.206 1.806-11.206s-.054.311 2.476-2.97c2.527-3.291 3.236-8.193 3.236-8.193l2.233 3.63s3.129-6.414 3.652-11.783c.688-7.028-1.133-11.464-1.133-11.464l3.724.982s-.205-6.211-1.706-11.504c-1.502-5.29-4.042-9.314-4.042-9.314s1.57-2.622 3.41-10.12c2.298-9.33 2.023-17.002 2.023-17.002l-3.165 1.39s.856-7.645.63-11.906c-.218-4.256-1.142-9.126-1.142-9.126l-2.735 2.6s-.42-3.155-1.767-7.454c-1.351-4.297-4.808-8.64-4.808-8.64s-1.409 5.555-2.681 8.782c-1.33 3.358-3.939 8.556-3.939 8.556-5.34-3.862-14.542-5.974-14.542-5.974s-1.56-1.712-3.23-2.838c-1.53-1.033-3.655-2.271-3.655-2.271l.409-2.361s-.409-4.06-12.253-5.976c-11.049-1.784-14.22 1.471-14.22 1.471l-.441 2.512s-1.641.346-2.878.636c-2.358.557-5.003 1.715-5.003 1.715s-22.473-1.002-23.39 7.124c-.427 3.761.405 4.679.752 7.064.828 5.513 1.624 7.909 1.853 13.476.143 3.754-.373 8.535-.373 8.535s-1.408-.816-2.404-1.074c-.907-.24-2.394-.257-2.394-.257l1.236 3.135-3.39-.109s-3.688-7.497-5.609-10.569C50.89 31.557 43.084 28.88 41.088 26.413c-2.003-2.46-4.036-7.527-4.036-7.527s-2.182 3.188-3.4 10.112c-1.23 6.93-.026 11.197-.026 11.197l-2.258-1.048s-.275 7.097.628 12.121c.896 5.027 5.07 11.771 5.07 11.771l-2.16.271s1.57 5.8 3.698 9.416c2.118 3.616 8.314 9.907 8.314 9.907s-1.25 4.348-1.412 9.816c-.193 6.622 1.172 9.945 1.172 9.945l3.186-1.459s-.717 4.068-.322 8.293c.333 3.788 3.243 9.181 3.243 9.181l3.028-3.365s.979 3.534 2.104 5.562c2.26 4.092 8.593 8.335 8.593 8.335l1.99-4.841s4.79 1.742 5.088 9.824c.172 4.575-2.448 13.85-2.448 13.85" fill="#231F20" fill-rule="nonzero"/><path d="M104.06 12.712c.168-.96 3.899-1.097 8.322-.315 4.422.782 7.876 2.192 7.712 3.139-.169.957-3.9 1.098-8.318.317-4.43-.78-7.881-2.188-7.716-3.141M106.777 38.118c-20.13-3.556-34.676-10-34.214-15.996.15-1.896 3.164-2.768 7.02-2.57l-4.085 2.028c-1.612 3.61 14.478 10.987 31.404 13.968 16.923 2.982 35.07 2.36 35.826-1.942l-4.963-4.929c3.76.746 8.493 4.253 8.279 5.919-.764 5.963-19.138 7.065-39.267 3.522" fill="#D01D2C" fill-rule="nonzero"/><path d="m117.718 88.174.735-3.276 3.376-.286 1.48-4.355 2.74.556 2.373-4.195 2.37 1.054 2.727-4.56 1.956.299 1.25-6.408 1.717-.477.803-5.393 1.623-2.252 2.789 4.377 2.314-.238 1.477 4.47 2.882.848-.42 4.467 2.544 1.24-.615 5.066 2.146 1.852-1.717 4.186 1.917 3.182-2.767 3.524.678 5.12-3.013.789-.488 4.608-2.595.029-1.369 3.16-2.14-4.429s6.584-5.153 6.975-15.625c.487-13.485-7.794-20.163-7.794-20.163s.304 4.857-3.796 10.509c-4.404 6.064-7.927 6.379-11.073 8.583-3.143 2.196-4.741 4.827-4.741 4.827l-4.344-1.089" fill="#FFF"/><path d="M139.822 97.907c4.114-4.043 6.378-6.812 6.497-13.92.125-7.111-3.056-12.042-3.056-12.042s-.86 3.03-1.954 4.673c-.95 1.421-3 3.198-3 3.198s-.057.316-.333 2.86c-.3 2.541-2.344 5.903-2.344 5.903s4.068-2.842 5.742-4.978c1.67-2.14 1.87-4.207 1.87-4.207s1.036 5.203-.559 9.618c-1.59 4.426-5.067 6.723-5.067 6.723l2.204 2.172M92.718 90.252l-1.265-2.92-3.802-1.137-2.079-5.955-3.473-.219-3.838-6.094-2.465.213-3.953-4.804-2.552 1.183-5.182-4.042-2.469 1.909-3.777-2.3-.463 3.827 2.075 5.12-1.802 1.744 1.538 5.025-1.96 4.694 1.974 3.269-1.14 6.469 2.66 2.243 1.221 5.536 2.942.724 1.588 4.71 4.082.717 3.01 3.64.99-5.203s-7.784-2.982-11.21-12.88c-2.283-6.587-.122-12.013.465-16.234.542-3.951-1.172-7.175-1.172-7.175s4.971.244 11.006 4.691c6.028 4.455 6.716 6.777 11.048 11.063 1.764 1.742 4.376 3.487 4.376 3.487l3.627-1.3" fill="#FFF"/><path d="M75.928 104.627c-5.117-2.67-7.823-4.516-10.013-11.279-1.143-3.548-.616-6.199.602-9.898.832-2.537.523-6.228.523-6.228s2.792 1.447 4.358 2.68c1.284 1.022 3.025 2.91 3.025 2.91s-.8 1.875-.616 4.43c.315 4.587 3.68 7.375 3.68 7.375s-3.845-2.43-5.469-4.616c-2.612-3.537-2.43-6.425-2.43-6.425s-2.895 7.379 1.05 13.098c2.674 3.863 6.426 5.462 6.426 5.462l-1.136 2.491M106.354 89.249s-1.269 3.504-9.604 4.791c-5.57.86-9.626 2.322-12.669 6.246l3.398.376-6.315 3.781c-3.003 5.72-1.483 11.053-1.483 11.053s1.343-1.426 2.332-2.18c1.233-.938 3.422-1.991 3.422-1.991s-1.601 2.644-2.809 5.827c-1.2 3.19-1.663 8.084-.767 11.697.9 3.565 1.236 7.633 5.032 10.12 4.874 3.204 9.518 2.05 14.256-3.644 3.737-4.502 12.543-8.555 21.681-8.433l-1.297 2.143c3.454.612 8.44 2.49 10.507 3.799 4.956 3.132 9.945 3.369 9.945 3.369s5.225-9.93 3.605-16.37c-.656-2.596-2.018-6.09-4.616-9.103-2.326-2.696-7.306-5.484-7.306-5.484l5.385-.179s-.265-2.512-5.009-6.557c-5.487-4.696-9.608-4.287-15.895-5.391-8.335-1.476-11.793-3.87-11.793-3.87" fill="#FFF"/><path d="M108.164 93.621c4.214 1.881 5.82 1.028 12.553 2.373 4.874.982 6.917 3.977 6.917 3.977s-8.447-2.548-17.854-1.684c-10.87.989-19.206 6.01-19.206 6.01s.263-3.362 2.854-5.172c2.59-1.817 9.805-2.322 14.736-5.504" fill="#231F20"/><path d="M129.085 104.601s-2.677-3.225-6.164-3.676c-3.476-.459-7.992-.602-12.955-.019-4.971.585-13.12 2.71-14.492 4.09-1.724 1.72-2.807 4.852-2.807 4.852s6.939-4.444 18.998-5.727c11.858-1.254 17.42.48 17.42.48" fill="#231F20"/><path d="M129.745 107.31s4.852 2.767 3.193 8.5c-.971 3.377-6.437 3.409-6.437 3.409s-.527 1.573-2.795 2.713c-3.975 1.985-8.232-.451-15.378 2.022-7.16 2.483-12.156-7.33-5.583-11.519-.283-2.967 2.462-5.62 12.93-6.185 11.533-.63 14.07 1.06 14.07 1.06" fill="#231F20"/><path d="M126.9 109.432c2.511.445 3.231 2.972 2.407 3.964-.816.982-2.767-.81-9.773-.591-6.353.203-8.07 1.645-10.216.952-1.549-.505-2.635-2.476-.681-3.429 1.95-.95 4.88-1.183 8.063-1.418 3.97-.295 5.795-.256 10.2.522M129.712 137.772s1.362.57 2.434.917c1.075.352 3.461.61 3.461.61s-.125 2.458-2.107 5.773c-2.168 3.624-4.547 4.089-4.547 4.089s.71-4.616.849-6.63c.13-1.96-.09-4.759-.09-4.759M97.595 166.46s-2.358-2.685-3.11-4.437c-.452-1.057-1.767-4.684-1.767-4.684s-1.326 2.229-1.44 5.415c-.072 2.476.598 3.996.598 3.996s1.093.877 2.72.845c1.623-.035 2.999-1.136 2.999-1.136" fill="#FFF"/><path d="m130.118 158.425-4.839 4.11.18 2.588c.455.71.877 1.623.938 1.942.251 1.343 2.502 7.508-15.054 8.787-18.686 1.355-23.355.05-25.82-3.419-3.151-4.457.74-8.722.74-8.722s-.38-2.505-.347-4.114c.036-1.577.48-4.029.48-4.029l-3.437 1.09c-1.386 1.835-2.064 2.978-2.999 5.071-1.01 2.26-1.434 3.63-1.87 6.075 1.203.393 2.766 1.702 2.766 1.702-1.021 5.812.251 9.6.251 9.6l3.558-1.802s.696 2.168 1.333 3.476c1.158 2.376 3.885 5.544 3.885 5.544l4.326-4.888s2.02 1.964 3.612 3.053c1.595 1.09 4.028 2.007 4.028 2.007s1.015-2.086 1.308-2.853c.287-.756 1.853-2.644 1.853-2.644s1.706 1.143 3.326 2.085c1.616.929 4.873 2.337 4.873 2.337s.441-1.544 1.086-3.38c.649-1.824 2.029-3.207 2.029-3.207s1.73.395 3.74.917c2.019.517 4.208 1.786 4.208 1.786l1.656-5.226s2.322.093 7.619 1.348c.343-6.58-2.505-11.806-2.505-11.806l1.09-3.188-2.014-4.24" fill="#FFF"/><path d="m90.947 117.094.416 2.387-2.717 2.354c-.096-1.15.054-1.881.607-2.9.465-.851.874-1.303 1.694-1.841M92.915 120.928l1.48 2.398-2.555 3.462c-.416-1.351-.43-2.261-.054-3.62.258-.95.527-1.469 1.129-2.24M95.91 124.802l2.083 1.897-1.502 4.035c-.777-1.186-1.036-2.057-1.042-3.47-.015-.974.093-1.555.462-2.462M138.295 115.987l-.301 2.404 2.85 2.23c.046-1.162-.148-1.889-.75-2.882-.516-.831-.946-1.265-1.799-1.752M137.141 120.104l-1.046 2.628 3.136 2.985c.178-1.416.025-2.312-.585-3.599-.422-.881-.77-1.358-1.505-2.014M134.468 124.06l-1.656 2.302 2.326 3.648c.506-1.326.581-2.236.304-3.623-.196-.968-.434-1.509-.974-2.326" fill="#231F20"/><path d="M122.244 168.216c-1.28.354-2.286.34-3.419.046-1.899-.501-3.053-1.197-3.053-1.197s-1.638 1.254-6.892 1.623c-5.25.376-9.672.14-9.672.14s-1.567 1.043-3.874 1.283c-1.562.165-3.472-.246-5.196-1.455-.316-.423-.449-.695-.61-1.19-.164-.487-.226-1.305-.226-1.305-1.756 1.535-1.465 3.463-.544 4.305 2.602 2.362 7.214 2.975 10.927 1.287 0 0 4.43.473 8.78-.044 2.422-.279 7.224-1.562 7.224-1.562 1.42.889 3.62 1.021 5.408.129.932-.462 1.426-1.244 1.147-2.06M109.597 164.542c-.376-.537-.652-.817-1.089-1.297-1.136-1.244-2.154-1.628-2.154-1.628s-.925.79-1.312 1.578c-.25.508-.638 1.046-.91 1.759a7.18 7.18 0 0 0-1.115-1.544c-.609-.648-1.802-1.487-1.802-1.487s-1.455 1.257-1.82 2.264c-.363 1.015-.517 1.94-.517 1.94s1.122.26 2.516.265c2.003.007 2.857-.703 2.857-.703.72.416 1.63.703 2.565.703 1.082-.008 1.907-.295 2.602-.857 0 0 2.046.577 3.276.363.788-.138 1.866-.707 1.866-.707s-.276-1.122-.616-1.802c-.398-.796-1.354-1.91-1.354-1.91s-.682.2-1.922 1.58c-.515.588-.724.867-1.071 1.483" fill="#FFF" fill-rule="nonzero"/><path d="M127.003 135.68s-5.601-.656-8.88-.427c-3.885.275-11.25 1.573-11.25 1.573l4.645-2.43s2.272-1.212 5.414-1.311c3.907-.119 10.07 2.594 10.07 2.594" fill="#FFF"/><path d="M37.432 46.307s.634 5.496 1.67 8.886c1.405 4.57 6.042 10.785 6.042 10.785l-3.78.305s1.247 2.419 2.221 3.958c1.58 2.496 5.121 4.954 5.121 4.954s.32-3.392.04-6.64c-.319-3.602-2.501-7.892-2.501-7.892l3.716.98s-3.573-8.244-6.243-11.467l3.874 1s-.638-4.647-4.34-9.352c-4.551-5.766-4.21-7.94-4.691-9.251-.724 2.935-.91 5.777-.301 9.393.348 2.12 1.01 3.253 1.52 5.291-1.735-.8-2.348-.95-2.348-.95M156.629 65.062s1.251-3.39 2.044-6.934c.791-3.584 1.032-7.754 1.032-7.754l-3.416 1.015s1.086-6 1.562-9.773c.34-2.79.144-7.264.144-7.264l-2.943 2.887c.223-2.26.205-3.217.223-5.795.004-3.727-1.308-10.118-1.308-10.118s-.208 7.66-2.666 17.104c-2.022 7.746.286 18.45.286 18.45l3.695-1.623s-.602 2.886-.286 5.304c.34 2.654 1.633 4.501 1.633 4.501" fill="#FFF" fill-rule="nonzero"/><path d="M115.826 151.283c-1.578-2.405-2.237-4.416-2.226-5.505-.434.27-.62.595-1.075.882-.427.273-1.161.577-1.161.577s-1.753-.835-2.703-1.617a9.116 9.116 0 0 1-1.411-1.419c.086 2.079.455 4.064.508 4.344.363 2.128 1.355 5.984 1.355 5.984s-3.623.251-8.772-3.168c-2.62-1.745-4.516-3.87-5.663-6.479-1.236.588-2.816.795-2.816.795s3.25.897 2.805 7.06c-.29 4.057 1.9 6.45 11.317 6.612 8.157.147 12.347-4.239 9.842-8.066" fill="#D01D2C"/><path d="M104.175 139.263s-.495 2.781-.215 5.798c.294 3.146 1.13 5.548 1.13 5.548s-2.481-.943-4.764-3.62c-1.849-2.16-2.136-3.57-2.136-3.57s1.706-.974 2.749-1.683c1.312-.89 3.236-2.473 3.236-2.473M116.284 164.327s1.792-4.01 2.169-5.24c.383-1.228.773-4.128.773-4.128s2.057 2.638 2.333 6.085c.24 2.781-.064 4.043-.064 4.043s-1.734.652-2.831.47c-1.025-.173-2.38-1.23-2.38-1.23" fill="#FFF"/><path d="M114.488 140.28c.083.416.492.947.93 1.491 1.114 1.427 2.081 1.863 2.081 1.863s1.39-.913 1.82-1.852c.262-.59.624-1.448.667-1.974.269.545 1.086 1.411 1.556 1.87.756.77 1.953 1.377 1.953 1.377s1.01-.882 1.62-2.13c.555-1.128.767-2.135.767-2.135s-1.628-.781-2.717-.724c-1.72.082-3.312.903-3.312.903-.745-.47-1.758-.58-2.716-.552-1.09.043-1.863.355-2.594 1.032 0 0-2-.613-3.261-.394-1.234.208-2.878 1.387-2.878 1.387s.573 1.215 1.135 1.824c.789.856 2.524 1.577 2.524 1.577s.674-.38 1.544-1.75c.484-.745.617-1.397.881-1.812" fill="#FFF" fill-rule="nonzero"/><path d="M142.55 42.001s-3.739 6.47-5.104 9.63c-1.369 3.162-3.508 10.72-3.508 10.72s-1.064 2.181-2.552 3.446c-1.488 1.256-3.853 2.559-3.853 2.559l-1.382-1.38s-2.922 1.846-4.878 2.872c-1.814.954-4.767 2.237-4.767 2.237l-1.484-1.722s-2.307 1.2-3.873 1.748c-2.451.854-6.544 1.277-6.544 1.277s-4.028-1.416-6.293-2.895c-1.236-.804-3-2.309-3-2.309l-1.974 1.11s-2.674-1.76-4.146-3.162c-1.212-1.163-2.828-3.253-2.828-3.253l-1.85 1.294s-1.207-.932-3.142-3.312C79.376 58.402 79.72 58.3 79.72 58.3l-1.953.959-2.312-2.516-1.527-2.374c.832-4.426 1.144-7.276 1.14-11.956-.01-4.653-1.154-11.869-1.154-11.869s8.648 7.03 33.952 11.495c24.047 4.244 34.683-.038 34.683-.038M102.803 14.731c.257 1.23 3.956 2.806 8.579 3.623 4.644.82 8.608.597 9.278-.473l-.33 1.887c-.666 1.068-4.64 1.29-9.27.476-4.642-.822-8.326-2.397-8.594-3.626l.337-1.887" fill="#D01D2C"/><path fill="#FFF" d="m85.508 55.841-2.018-.8-.864-7.797-1.24 6.973-2.293-.913 2.476-13.989 2.032.8.87 7.708 1.216-6.888 2.293.907-2.472 14M94.743 49.8l-2.43-.769.498-2.796-1.512-.48-1.627 9.242 1.509.477.598-3.411 2.43.77-.678 3.824-2.092 1.42-2.749-.879-1.58-2.603 1.774-10.039 2.078-1.417 2.917.926 1.423 2.558-.56 3.178M104.092 46.798l1.552 2.451-.398 2.306-2.526-.609.333-1.915-1.48-.357-.559 3.21 2.1.73 1.513 2.446-.75 4.231-2.118 1.548-2.999-.724-1.4-2.414.4-2.291 2.527.608-.337 1.897 1.469.36.584-3.304-2.074-.69-1.538-2.45.731-4.177 2.114-1.546 2.856.69M112.063 50.636l-1.62-.245-2.043 11.622-2.576-.391 2.053-11.616-1.623-.244.419-2.385 5.812.878-.422 2.38M117.679 62.946l-2.542-.199.215-2.655-1.982-.16-.713 2.612-2.512-.198 4.219-13.858 3.934.317-.62 14.141Zm-1.886-11.913-1.817 6.532 1.612.133.205-6.665ZM125.752 51.298l-1.67-.011-2.046 11.615-2.63-.023 2.053-11.625-1.666-.01.419-2.377 5.952.05-.412 2.38M131.989 50.913l-2.517.152-.534 3.017 2.122-.127-.416 2.374-2.121.131-.678 3.852 2.58-.159-.412 2.381-5.25.31 2.462-13.995 5.186-.307-.422 2.37"/><path d="M133.708 185.665a2.728 2.728 0 0 0-2.738 2.734 2.738 2.738 0 0 0 5.476 0 2.732 2.732 0 0 0-2.738-2.734Zm0 4.887a2.154 2.154 0 0 1-2.157-2.153 2.15 2.15 0 0 1 4.3 0 2.15 2.15 0 0 1-2.143 2.153Z" fill="#231F20" fill-rule="nonzero"/><path d="M134.973 187.786a.938.938 0 0 0-.931-.935h-1.323v3.128h.591v-1.268h.412l.599 1.268h.652l-.627-1.318a.928.928 0 0 0 .627-.875Zm-.931.34h-.732v-.684h.732c.185 0 .333.15.333.344 0 .183-.148.34-.333.34Z" fill="#231F20" fill-rule="nonzero"/></g></svg>