<svg width="200" height="200" xmlns="http://www.w3.org/2000/svg" xmlns:xlink="http://www.w3.org/1999/xlink"><defs><path d="m52.902 1.903 15.873.4 6.544 12.88-12.276-4.785 7.789 12.924-11.892-1.287 7.082 8.925 45.386 1.546c1.763 1.037 11.373 5.725 13.18 14.994 0 0 1.619-2.587 1.742-5.945 2.158 3.88 3.212 6.934 3.212 6.934l-3.223 6.676s-1.766-5.075-1.978-4.45c-.585 1.72-2.35 4.67-4.204 4.45-4.71-.559-4.019-7.148-4.019-7.148-9.374 5.187-.194 12.845-.194 12.845L82.96 67.959l2.511 3.557s-5.61 8.681-11.544 15.367l-.48-6.191c-2.415 1.34-5.88 3.438-10.51 2.832-13.514-1.768-9.678-10.475-9.004-12.026-1.608 1.113-3.707 1.786-6.004 1.786-5.058 0-9.158-3.267-9.158-7.297 0-.681.117-1.34.336-1.965C12.653 72.236 3.733 52.319 3.733 52.319c9.352 2.716 18.705-.581 18.705-.581C6.29 46.451.008 29.153.008 29.153c5.627 3.144 19.327 4.462 19.327 4.462C3.385 22.905 3.152 7.305 3.152 7.305 18.17 21.12 37.456 23.681 37.456 23.681 23.316 10.273 20.188.002 20.188.002c14.029 10.264 36.676 8.54 36.676 8.54-3.076-5.378-3.962-6.64-3.962-6.64Z" id="a"/></defs><g fill="none" fill-rule="evenodd"><path d="M142.997 124.34c-.27 2.295-.579 4.744-.843 6.445l-.464 2.996-74.845-.35s.105-.558.236-1.232c-3.384 1.944-7.871 6.505-10.99 9.181l-4.983 4.277-.804-6.517c-.584-4.732-.443-12.475-.177-17.537-3.504 1.762-7.875 4.615-10.556 8.74l-4.661 7.17s-.867-4.174-1.331-7.307c-.462-3.108-.883-6.923-.661-9.528.253-2.976.885-6.58 2.25-10.52-4.16 2.279-9.538 6.173-14.755 12.721l-7.132 8.954.868-11.414c1.879-24.687 13.175-43.33 23.904-55.735 8.158-9.433 16.056-15.345 19.444-17.68-.203-12.91 2.152-21.987 5.073-28.346 1.53-3.332 3.195-5.87 4.67-7.785 1.408-1.826 2.615-3.045 3.316-3.828 2.303-2.569 8.352-7.22 11.955.5A71.871 71.871 0 0 0 90.9 21.229c3.638-12.047 9.675-15.224 14.216-14.81.611.055 1.576.316 2.549 1.241.36.343.701.745.999 1.12.56.707 1.265 1.707 2.054 2.905 1.47 2.227 3.268 5.182 5.012 8.133 2.278 3.854 4.464 7.7 5.684 9.866a66.67 66.67 0 0 1 6.3.437l4.349-11.616 24.2 30.372-.288.484 33.725 6.58.741 1.684c2.276 5.172 8.34 13.917 8.4 14.005l.791 1.136-.195 1.371c-3.32 23.23-21.645 28.845-29.86 29.683l-16.418 2.846c-.36.59-.842 1.485-1.28 2.618-1.01 2.617-1.988 6.855-1.446 12.955l.57 6.407s-5.69-2.967-8.006-4.305" fill="#AAAFB6" fill-rule="nonzero"/><path fill="#AAAFB6" d="m187.051 117.15-6.231 16.292v34.41l7.094 16.486-18.592-.239 7.183 12.966H12.647l5.672-12.727H.181l7.19-15.69V133.46L0 117.15h187.051"/><path d="M65.687 126.517c-2.9 1.612-6.383 3.71-9.597 6.082-.544-5.839-.659-11.9.377-16.044l.834-3.335s-3.43.78-5.125 1.305c-1.704.525-3.924 1.309-5.997 2.332-2.512 1.241-5.347 2.99-7.724 5.375.019-.346.044-.706.075-1.077.366-4.292 1.646-10.166 5.327-16.423l2.393-4.068-4.628.926c-.116.023-4.183.846-9.389 3.474-3.168 1.6-6.789 3.883-10.2 7.088 5.869-20.095 15.056-34.86 23.171-44.885 4.642-5.735 8.932-9.919 12.05-12.659 3.069-2.7 5.964-4.646 5.964-4.646l-.042-1.172c-.462-13.192 1.892-21.919 4.587-27.666a34.738 34.738 0 0 1 4.067-6.67c1.323-1.7 2.46-2.844 3.11-3.611.603-.713 1.058-1.186 1.408-1.48.37-.31.531-.34.55-.341.002 0-.001.01.055.08.124.154.26.412.454.826C83.32 22.6 91.2 30.12 91.297 30.213l2.838 2.704.697-3.858c2.632-14.576 7.475-16.728 9.18-17.002 1.092 1.408 4.015 6.126 6.994 11.108a946.39 946.39 0 0 1 6.502 11.067l.609 1.059h1.222c4.064 0 7.45.296 10.302.807l1.734.31 2.478-6.618 15.58 19.554-2.385 4.013 38.707 7.552c1.296 2.692 3.251 5.95 4.964 8.645a179.268 179.268 0 0 0 3.018 4.59c-3.1 18.962-18.089 23.43-24.918 24.093l-18.735 3.244-.485.524c-.285.308-4.921 5.509-4.953 16.72-1.135-.761-2.222-1.601-2.793-2.32l-2.11-2.657-1.453 3.065c-.14.296-3.687 2.036-2.43 11.565-1.35-.57-2.185.316-3.062 1.54l-1.164-.726s-1.587-1.458-4.224-.21c-2.716 1.288-5.771-1.601-10.949-.316-10.043 2.495-22.955.7-42.985-.852.62-3.068.314.583 1.72-1.797l3.42-5.788s-9.058 4.136-12.929 6.288" fill="#FFF" fill-rule="nonzero"/><path d="M71.082 130.15s.364-1.937 2.296-5.208c0 0-12.053 7.306-19.58 13.767-.842-6.825-.752-17.176.62-22.666 0 0-12.632 5.581-18.404 14.462 0 0-1.716-13.688 6.022-26.844 0 0-13.47 4.41-25.177 19.105 3.61-47.435 44.206-73.903 44.206-73.903-.944-26.973 9.45-36.498 12.113-39.468 2.523-2.815 4.589-3.69 6.143-.36 5.758 12.338 13.432 19.648 13.432 19.648 3.108-17.206 9.602-18.982 12.044-18.76 1.684.153 14.542 23.256 14.542 23.256 4.211 0 7.719.31 10.675.84l3.167-8.461 18.813 23.61-1.598 2.69 36.824 7.184c2.441 5.55 8.732 14.596 8.732 14.596-3.006 21.036-19.468 25.974-26.85 26.691l-17.953 3.111s-5.402 5.833-4.223 19.11c0 0-4.938-2.579-6.727-4.832 0 0-.891 8.44-1.523 12.521l-67.594-.089" fill="#231F20" fill-rule="nonzero"/><path fill="#231F20" d="m181.16 121.205-4.394 11.488v35.995l4.99 11.596h-16.488v3.406l5.185 9.32H18.747l3.626-9.502v-3.224H6.498l4.927-10.751v-36.947L6.28 121.205h174.88"/><path fill="#E01049" d="M71.792 171.434v-3.397l-40.909-23.434v26.863l1.868 3.8H14.786l1.867-3.8v-41.368l-2.224-3.772 16.307.113 41.09 23.255V130.05l-.307-.476-1.595-3.248h17.504l-1.867 3.8v41.34l1.867 3.8H70.285l1.507-3.832M92.776 171.434l.035-41.384-.307-.476-1.596-3.248h17.505l-1.868 3.8v41.34l1.868 3.8H91.269l1.507-3.832"/><path fill="#E01049" fill-rule="nonzero" d="m150.198 164.196 4.272-1.352 2.136-2.704-.007-30.013-1.868-3.8h17.56l-1.803 3.723.03 36.512-11.079 8.79h-34.514l-11.079-8.79v-18.575l.03-17.937-1.803-3.724h17.56l-1.867 3.8v21.848l-.008 8.166 2.136 2.704 4.272 1.352h16.032"/><path d="m113.117 122.2 15.873-.4 6.544-12.88-12.276 4.785 7.789-12.924-11.892 1.287 7.082-8.926 45.386-1.545c1.763-1.037 11.373-5.726 13.18-14.994 0 0 1.619 2.587 1.742 5.945 2.158-3.88 3.212-6.935 3.212-6.935l-3.223-6.676s-1.766 5.076-1.978 4.451c-.585-1.72-2.35-4.67-4.204-4.45-4.71.559-4.018 7.148-4.018 7.148-9.375-5.187-.195-12.845-.195-12.845l-32.965-7.098 2.511-3.556s-5.61-8.682-11.544-15.367l-.48 6.191c-2.415-1.34-5.88-3.439-10.51-2.833-13.514 1.769-9.678 10.476-9.004 12.027-1.608-1.113-3.707-1.787-6.004-1.787-5.058 0-9.158 3.267-9.158 7.298 0 .681.117 1.34.336 1.965-26.453-8.215-35.373 11.702-35.373 11.702 9.352-2.716 18.705.582 18.705.582-16.147 5.286-22.43 22.585-22.43 22.585 5.627-3.144 19.327-4.463 19.327-4.463-15.95 10.71-16.183 26.31-16.183 26.31 15.018-13.814 34.304-16.375 34.304-16.375C83.53 113.83 80.404 124.1 80.404 124.1c14.028-10.264 36.675-8.54 36.675-8.54-3.076 5.378-3.962 6.639-3.962 6.639" fill="#FFF" fill-rule="nonzero"/><g transform="matrix(1 0 0 -1 60.215 124.103)"><mask id="b" fill="#fff"><use xlink:href="#a"/></mask><g mask="url(#b)" fill="#AAAFB6"><path d="M73.526 30.8S52.41 33.6 41.632 19.304c-9.01-11.95-9.994-22.49-9.994-22.49s15.957 9.43 21.267 8.733c0 0-14.324-7.418 3.2-12.43L70.89.687l5.81 11.792 4.61 6.118L73.526 30.8"/></g></g><path d="M67.914 45.44s7.041-4.929 16.722-7.57c0 0-7.217-5.104-10.77-16.38 0 0-6.146 9.32-5.952 23.95" fill="#FFF" fill-rule="nonzero"/><path d="m139.524 57.405 2.258 8.836s-4.117-5.519-9.656-7.276c-1.111 2.458-4.72 3.782-8.265 2.973-3.683-.84-5.9-3.665-4.952-6.309.32-.891.956-1.647 1.803-2.227l-2.138-7.238 20.95 11.24" fill="#231F20" fill-rule="nonzero"/><path fill="#FFF" d="m40.192 189.58-.563-1v-6.756l.563-1.001h-5.404l.563 1v1.877l-.226.125h-2.702l-.225-.125v-1.876l.563-1.001h-5.405l.563 1v6.757l-.563 1h5.405l-.563-1v-2.503l.225-.125h2.702l.226.125v2.503l-.563 1h5.404M62.958 180.823h-5.18l.563 1v4.942l-.45.5-.901.251h-.9l-.902-.25-.45-.5v-4.942l.563-1.001h-5.518l.563 1v5.505l-.225.626 2.928 1.627h6.643l2.928-1.627-.225-.626v-5.504l.563-1.001M82.97 183.2l-1.42-2.377h-6.305l-2.928 1.626v2.064l2.027 1.126 3.49.438.564.313v.5l-.338.376-.676.188h-3.22l-2.365-.438 1.532 2.565h6.643l2.928-1.627v-2.44l-2.14-1.188-3.49-.438-.45-.25v-.25l.337-.376.676-.187h3.197l1.937.375M106.748 189.58l-1.261-1.188-3.198-4.88 4.392-2.44-.45-.25h-4.843l-.45.751-3.266 1.815-.337.25v-1.814l.563-1.001h-5.405l.563 1v6.757l-.563 1h5.405l-.563-1v-2.315l.225-.25 1.126-.626h.338l1.87 3.066.224 1.126h5.63M120.548 189.58l-.562-1v-6.756l.562-1.001h-5.517l.563 1v6.757l-.563 1h5.517M141.808 187.016l-2.365.438h-3.783l-.338-.188v-1.189l.225-.125h1.464l1.689.313v-2.627l-1.689.312h-1.464l-.225-.125v-.876l.18-.124h3.874l1.982.375-1.42-2.377h-9.458l.563 1v6.757l-.563 1h9.796l1.532-2.564M160.74 183.2l-1.418-2.377h-6.306l-2.928 1.626v2.064l2.027 1.126 3.49.438.564.313v.5l-.338.376-.676.188h-3.22l-2.365-.438 1.532 2.565h6.643l2.928-1.627v-2.44l-2.14-1.188-3.49-.438-.45-.25v-.25l.337-.376.676-.187h3.198l1.936.375M167.945 172.158h.921v-.442h-2.325v.442h.92v3.437h.484v-3.437M171.066 175.677l1.163-2.644h.01l.453 2.562h.5l-.793-4.044-1.333 3.056-1.332-3.056-.792 4.044h.499l.452-2.562h.01l1.163 2.644M17.684 173.46l.775-1.575v-42.28l-.856-1.451 2.78.019-.05 43.362h8.384l1.135 1.926H17.684M73.632 129.518l-.809-1.386h2.735v23.37l-1.926-1.09v-20.894M73.597 167.23 30.83 142.445v-2.528l44.693 25.647-.013 5.97h7.884l1.135 1.926H72.935l.662-1.684v-4.548M94.616 129.518l-.81-1.386h2.88l.001 43.403h7.691l1.136 1.926H93.919l.662-1.684.035-42.259M161.487 159.806l-2.763 3.05-2.012.636 2.081-2.697.007-31.277-.81-1.386h3.506l-.009 31.674M118.242 164.524l9.685 6.882 30.99-.197-3.112 2.029h-29.198l-10.724-7.82.04-35.9-.809-1.386h3.165l-.037 36.392"/></g></svg>