<?xml version="1.0" encoding="UTF-8"?>
<svg width="200px" height="200px" viewBox="0 0 200 200" version="1.1" xmlns="http://www.w3.org/2000/svg" xmlns:xlink="http://www.w3.org/1999/xlink">
    <!-- Generator: Sketch 51.3 (57544) - http://www.bohemiancoding.com/sketch -->
    <title>northwestern</title>
    <desc>Created with Sketch.</desc>
    <defs></defs>
    <g id="northwestern" stroke="none" stroke-width="1" fill="none" fill-rule="evenodd">
        <g id="northwestern_BGL" transform="translate(33.000000, 0.000000)">
            <g id="northwestern" transform="translate(0.693019, 0.660647)">
                <g id="g10" transform="translate(66.064742, 100.206060) scale(-1, 1) rotate(-180.000000) translate(-66.064742, -100.206060) translate(0.000000, 0.322462)" fill-rule="nonzero">
                    <g id="g12">
                        <polyline id="path14" fill="#FFFFFF" points="77.6278805 199.501363 77.6278805 169.884697 102.140023 127.076317 102.140023 94.9680663 40.1027139 199.501363 0.00122888285 199.501363 0.00122888285 0 53.1239959 0 53.1239959 29.0857891 31.3912126 64.4988501 31.4634119 107.425989 93.7199146 0 131.896684 0 131.896684 199.501363 77.6278805 199.501363"></polyline>
                        <polyline id="path16" fill="#432C91" points="82.3080169 194.820991 82.3080169 171.129703 106.824328 128.31975 106.824328 77.9129813 37.43826 194.820991 4.67927915 194.820991 4.67927915 4.68050606 48.4422865 4.68050606 48.4422865 27.7653594 26.7085594 63.1814877 26.8105665 124.786859 96.4183447 4.68050606 127.216312 4.68050606 127.216312 194.820991 82.3080169 194.820991"></polyline>
                        <path d="M59.5962171,6.98558355 L59.5962171,9.15452835 L59.9325967,9.15452835 L60.2843915,9.13431569 C60.5298535,9.11921517 60.7142055,9.08547497 60.8352456,9.03443209 C61.0558546,8.95027819 61.2060733,8.79911577 61.2825196,8.58621428 C61.3323041,8.45715208 61.3688757,8.20461174 61.3879086,7.83566375 C61.4035597,7.46454507 61.4380077,7.18067116 61.4902303,6.98558355 L63.019865,6.98558355 L62.9608787,7.15793388 C62.9421603,7.21600007 62.9265093,7.2780616 62.9200601,7.340422 C62.9086561,7.397568 62.9043304,7.45747457 62.9043304,7.5195361 L62.9043304,8.06697686 C62.9043304,8.69309759 62.7268207,9.14996674 62.3670038,9.44332565 C62.1713263,9.60062266 61.8807201,9.71773028 61.494556,9.79818769 C61.9154041,9.84057924 62.2693224,9.98222519 62.5559962,10.2062161 C62.8444789,10.4375214 62.9897427,10.8111018 62.9897427,11.3253843 C62.9897427,12.003413 62.7178548,12.4894608 62.1713263,12.7889543 C61.8509123,12.9644191 61.446895,13.0713024 60.9602967,13.1066156 C60.8782663,13.1091323 60.455216,13.1130648 59.6985388,13.1155815 C58.9387943,13.117705 58.368278,13.1201431 57.988799,13.1201431 L57.988799,6.98558355 L59.5962171,6.98558355 Z M61.412211,11.2129169 C61.412211,10.8796046 61.3058782,10.6347718 61.0957294,10.4845532 C60.8874682,10.3311886 60.5940306,10.2626857 60.2192705,10.2626857 L59.5962171,10.2626857 L59.5962171,12.0387262 L59.9848193,12.0387262 C60.3841964,12.0387262 60.6942288,11.9963347 60.9150738,11.9097427 C61.249094,11.7831186 61.412211,11.5481169 61.412211,11.2129169 Z M65.948342,10.0670083 C65.948342,11.5895646 65.4044876,12.892849 64.3255875,13.976704 C63.2429122,15.0556828 61.94183,15.6000877 60.4143188,15.6000877 C58.9586923,15.6000877 57.6877325,15.0980743 56.6063156,14.0968002 C55.4552162,13.0243493 54.8800597,11.6808755 54.8800597,10.0670083 C54.8800597,8.50567821 55.4118808,7.19572449 56.4788264,6.13058782 C57.5424688,5.06422424 58.8567639,4.52935151 60.4143188,4.52935151 C61.9197298,4.52935151 63.2106663,5.05163262 64.2868924,6.09464546 C65.3956003,7.16715149 65.948342,8.49097094 65.948342,10.0670083 Z M60.4143188,14.6522946 C61.6699421,14.6522946 62.7492355,14.1899201 63.6426039,13.2688674 C64.5298376,12.3650389 64.9704265,11.2946327 64.9704265,10.0670083 C64.9704265,8.79699226 64.5273995,7.71154855 63.6361547,6.80555713 C62.7445953,5.90416665 61.6699421,5.45285795 60.4143188,5.45285795 C59.1519317,5.45285795 58.0751551,5.90171282 57.1835956,6.79695299 C56.2902273,7.69588177 55.8428746,8.78094797 55.8428746,10.0670083 C55.8428746,11.2995876 56.2812614,12.371488 57.1627538,13.2688674 C58.0585602,14.1899201 59.1409209,14.6522946 60.4143188,14.6522946 Z" id="path18" fill="#FFFFFF"></path>
                    </g>
                </g>
            </g>
        </g>
    </g>
</svg>