<svg width="200" height="200" xmlns="http://www.w3.org/2000/svg"><g fill-rule="nonzero" fill="none"><path d="m176.133 122.225-4.126 4.127h-6.208V71.887h5.598l4.736 4.736v45.602Zm-40.375 2.165L104.77 71.887h30.99v52.503Zm-61.754 1.962V75.947l28.617 50.405H74.004Zm-30.04 0H34.93L35 71.887h8.965v54.465ZM179.06 45.907h-13.261V38.6H179.6V13.43h-56.833V38.6h12.99v7.307H89.434L70.265 13.43H30.212v25.118h13.752v7.358H.172v26.521h9.743v54.668H.172v26.792h43.792v7.307H28.588v25.17h56.833v-25.22H74.004v-7.257h45.139l19.322 32.205h27.334v-32.205h12.99l20.838-20.838V66.475L179.06 45.907Z" fill="#1E2E56"/><path d="m105.07 72.06 30.516 51.7v-51.7H105.07Zm30.86 52.96-31.462-53.305h31.462v53.305Zm-100.826 1.16h8.687V72.06h-8.62l-.067 54.12Zm9.032.344h-9.377l.068-54.809h9.309v54.809Zm30.04-.344h28.15l-28.15-49.582v49.582Zm28.74.344H73.833V75.295l29.085 51.229Zm63.055-.344h5.964l4.026-4.027V76.694l-4.635-4.635h-5.355v54.12Zm6.107.344h-6.451V71.715h5.841l4.837 4.837v45.744l-4.227 4.228ZM28.76 186.192H85.25v-24.875H73.832v-7.6h45.408l.05.083 19.272 32.121h27.065v-32.205h13.09l20.738-20.737V66.546l-20.467-20.467h-13.361v-7.651h13.802V13.603H122.94v24.825h12.99v7.65H89.336l-.05-.084-19.119-32.391H30.384v24.774h13.752v7.702H.344v26.177h9.743v55.012H.344v26.448h43.792v7.652H28.76v24.824Zm56.833.344H28.416v-25.513h15.375v-6.963H0v-27.136h9.743V72.6H0V45.735h43.791V38.72H30.04V13.259h40.324l.05.084 19.119 32.392h46.053v-6.963h-12.99V13.259h57.177v25.513H165.97v6.963h13.16l20.668 20.669v66.717l-20.939 20.94h-12.89v32.205h-27.603l-.05-.084-19.272-32.122h-44.87v6.913h11.418v25.563Z" fill="#1E2E57"/></g></svg>