<svg width="200" height="200" xmlns="http://www.w3.org/2000/svg"><g fill="none"><path fill="#231F20" d="M147.67 157.775h-1.179v-4.634h-1.7v-.996h4.582v.996h-1.703v4.634m7.813-.003h-1.102v-4.709h-.017l-1.051 4.71h-1.153l-1.027-4.71h-.018v4.71h-1.1v-5.628h1.72l1.02 4.435h.017l1.006-4.435h1.705v5.627"/><path d="M194.71 35.877c-12.958-16.133-31.03-12.934-45.324-8.343l-.517.165-.519-.153c-14.925-4.366-28.189-3.478-43.009 2.878l-.722.311-.716-.33c-18.372-8.49-36.885-3.183-43.993-.504l-.85.32-.754-.507c-4.441-2.967-14.077-7.488-28.738-4.41C9.365 29.543 2.806 44.629 2.538 45.267L.91 49.19h5.705l-.455 2.128c-2.276 10.63 2.67 17.805 5.82 21.136l.663.7-.232.935c-.4 1.605-.764 6.042-1.03 9.28l-.268 3.268-1.943-.78-3.615-1.41c-.168-.087-.31-.183-.47-.27 1.271 12.84 7.35 46.63 36.318 57.264 2.9 1.062 5.31 2.264 7.364 3.671 10.414 7.152 12.325 11.951 15.337 21.274 3.377 10.474 12.91 10.548 18.034 10.589.143 0 2.14.047 2.14.047l8.213.067c4.573-.05 9.576-.107 14.828.23 5.333.345 12.732-1.063 17.695-9.742l.191-.332c1.021-1.788 3.14-5.502 11.094-13.546 2.467-2.486 7.6-5.248 13.032-8.17 11.99-6.45 28.417-15.284 33.287-30.305 4.043-12.465 4.412-32.085 4.427-37.8v-.609l.381-.478c4.634-5.852 18.85-26.055 7.283-40.46" fill="#FFF"/><path d="M16.707 72.311s-12.74-9.304-4.819-26.71c-3.79.602-5.853.602-5.853.602s5.853-14.107 24.445-18.006c18.594-3.9 27.89 5.702 27.89 5.702s23.76-11.702 46.14.297c14.119-6.597 27.546-8.7 44.416-3.298 13.774-4.503 30.644-8.405 42.697 6.6 12.051 15.006-8.266 38.413-8.266 38.413s.305 24.36-4.302 38.565c-6.715 20.704-37.013 28.657-45.623 37.359-8.605 8.705-10.674 12.606-11.706 14.406-1.035 1.8-4.821 8.703-14.118 8.103-9.295-.602-17.905 0-23.068-.3-5.164-.302-13.773 1.199-16.871-8.404-3.1-9.601-5.167-15.003-16.528-22.804-11.365-7.804-31.679-5.102-42.354-54.02 2.275 2.485 6.187 3.9 6.194 3.9-1.372-12.002 1.726-20.405 1.726-20.405" fill="#231F20"/><path d="M184.313 40.24c4.03 5.22 4.806 11.358 3.668 17.931-1.55 3.24-3.616 6.662-6.922 8.911-1.755-6.391-6.091-11.793-10.636-17.105 2.478-1.621 5.577-3.242 8.881-1.98-.102-2.52-2.274-5.04-5.166-6.033-4.958-1.62-10.122.09-14.15 2.16 8.058 7.744 15.185 17.827 12.084 29.44-2.477 5.673-3.406 12.155-9.604 16.387-.31-4.413-.208-9.003-1.964-12.964-3.925 9.812-15.08 16.115-27.064 16.655-.929-.18-1.653-.63-2.687-.451-.308 1.802-1.184 5.942-6.711 6.663 2.168.991 6.213 3.408 5.527 7.308l-.57 5.479 5.27-4.146c1.883 9.66-4.238 28.9-4.238 28.9s7.671-4.612 12.293-8.1c-3.1 7.02-11.896 15.08-20.16 18.38 0 0-1.867 4.776-2.564 7.455-5.578 4.682-26.013 3.048-36.98 3.064.826 1.98 2.892 2.79 4.751 4.052 3.307.988 6.922 0 10.329 0l13.945.45c-.928 1.079-2.789 2.067-4.441 2.609l-27.27.181c-2.79-.271-4.856-1.621-5.267-4.051-1.552-7.833-11.209-17.243-17.922-21.563-10.435-6.304-35.464-13.507-38.065-43.257 0 0 4.337 5.22 7.953 5.669-7.075-12.603 0-33.76 0-33.76-4.44-1.171-8.68-6.122-9.193-10.535-.929-10.352 6.818-18.725 16.837-22.956 6.457-2.145 13.945-.722 18.8 3.24.826.813.618 1.621.517 2.611 2.786.631 5.061-.81 7.23-2.16 9.916-2.88 22.416-4.501 33.158-1.888 7.232.54 2.994 7.109 5.27 10.8 1.03-.54 1.859-2.071 2.685-2.88 11.464-9.635 30.266-12.426 45.14-7.563 3.82.99 6.25 2.147 10.432 4.77-.912-2.324-3.202-4.77-3.202-4.77 8.676-4.05 23.19-5.237 30.006 3.047" fill="#927F3B"/><path d="M127.656 90.582l4.752-3.826-18.077-14.18-16.528-6.755-1.809 2.703s-27.112 9.904-30.47 15.755c-3.358 5.852 1.91 4.591 1.91 4.591s-2.942 1.08-4.235 5.222l-2.322 6.17-4.65 9.675 9.812 29.935s4.337 10.934 5.714 14.865c1.43 2.26 2.485 4.538 2.914 6.698.411 2.43 2.478 3.78 5.266 4.051l27.27-.181c1.653-.542 3.514-1.53 4.442-2.61l-13.945-.449c-3.407 0-7.022.988-10.329 0-1.86-1.262-3.925-2.073-4.751-4.052 10.967-.016 31.402 1.618 36.98-3.064.697-2.679 2.565-7.455 2.565-7.455 6.542-4.802 7.866-10.28 7.866-10.28s6.121-19.24 4.237-28.9l-5.27 4.146.571-5.479c.686-3.9-3.36-6.317-5.527-7.308 5.527-.721 6.403-4.861 6.711-6.663 0 0-.088-2.103-3.097-2.61" fill="#FFF"/><path d="M47.914 44.395c-4.858 5.945-14.36 12.514-9.194 20.528l1.756 2.16c4.56-8.54 9.245-13.1 14.201-13.641 7.92 2.402 17.904 13.056 28.804 14.63 2.687.18 4.957-.088 7.125-1.53 2.894-2.61 5.1-5.67 6.562-9.016 2.584 2.071 2.584 5.312 4.955 7.561 3.824 1.62 7.233 3.962 11.88 3.962 7.75-3.15 12.605-9.724 20.558-12.603 5.472 0 15.718 3.436 15.718 3.436-.931-6.391-5.166-11.615-10.847-15.758 9.073 1.069 17.767 8.736 21.072 13.595 2.81 3.98 1.688 7.578-.12 10.728-2.377 3.692-4.838 8.27-9.073 10.52 1.035-2.61 1.55-6.212.206-8.911-3.012 5.146-10.43 11.614-18.592 11.703 0 0 2.322 2.296 6.919 1.888-5.369 5.809-12.188 6.935-12.188 6.935 1.138-2.478-.308-5.763-3.097-8.193-6.716-7.113-16.114-9.272-25.308-11.432-1.343-.541-1.551-1.715-2.275-2.612-.62 2.342-2.7 3.93-5.68 4.501-8.04 1.304-22.19 8.656-24.05 12.034-.827 1.622-1.156 3.09.188 3.99-5.06.628-7.641-2.25-10.845-4.774 2.79.813 5.888-.266 7.953-2.337 0 0-11.584-.481-16.837-10.174-1.858 3.33-.517 7.652 1.24 10.804-7.333-4.77-13.325-9.905-19.111-16.027-.515-6.213 2.171-11.882 5.68-17.015-1.446-1.44-3.82-1.531-8.467-.9 2.325-5.057 13.687-10.307 20.867-4.052" fill="#231F20"/><path d="M120.323 85.808c.495 1.995 1.918 5.832-3.84 7.4-6.198 1.5-10.622.704-14.546 5.206.412 1.71.929 3.6 3.201 4.05 5.992 1.353 13.223-1.26 16.942 3.874 3.097 4.725-.31 16.025-.31 16.025 2.58-.721 5.473-4.145 5.473-4.145-1.137 6.572-2.376 16.748-4.75 22.87-1.449-1.26-.931-3.692-2.893-4.953-2.377 5.854.723 16.117-9.71 17.467-9.607-1.26-20.246 1.8-28.716-1.71-3.512-3.693-1.964-8.464-3.718-12.786-2.79 1.082-4.03 6.752-4.03 6.752-2.686-8.373-4.648-20.886-5.889-29.527 1.732 3.398 5.89 6.482 5.89 6.482-1.24-5.314-6.768-13.822-.155-18.054 5.371-1.346 10.794-2.023 16.578-2.475 1.445-.45 3.408-.991 3.72-2.612-1.137-5.58-8.987-3.87-13.327-5.942-2.89-1.528-5.476-3.24-6.093-6.12 2.477-7.563 12.784-10.578 21.589-10.984 8.805-.403 19.417 1.442 24.584 9.182" fill="#231F20"/><path d="M116.656 87.767c-6.095-5.76-26.472-10.352-37.548.021 2.298-3.958 14.824-12.287 29.903-6.322 8.3 3.283 7.645 6.301 7.645 6.301" fill="#FFF"/><path d="M63.199 94.092c-.515 1.74-1.203 3.165 0 3.87 2.48.99 5.27 1.444 7.953 2.162-6.918 1.486-13.375 4.86-11.05 12.963 1.96 7.746 3.097 18.231 5.937 26.785-12.136-10.803-30.73-15.082-34.448-32.187 1.757.541 4.546 1.53 6.61.81-3.665-6.323-7.848-13.773-6.404-21.786 2.065 4.412 6.507 9.093 11.879 11.253-1.91-3.33-3.82-9.632-3.2-12.964 6.612 6.032 13.636 8.375 22.723 9.094" fill="#231F20"/><path d="M94.188 92.608c-2.995-.54-7.333-1.126-9.297-3.285.104-1.352 1.964-1.802 3.203-2.162 3.616-.452 3.927 4.006 6.094 5.447m16.425-4.189c.62 1.08-.827 1.532-1.446 1.984l-8.264 1.754 4.546-4.996c1.755.179 3.718.27 5.164 1.258m42.453 37.635s2.324-5.989 1.654-9.995c-1.913 2.207-6.302 5.313-9.4 6.122 1.756-4.23 3.717-8.552 4.236-12.783-1.756.72-3.512 2.25-5.991 1.979 3.614-3.061 7.435-6.48 10.224-10.442 1.345 4.05.052 6.976-.723 9.725 0 0 12.811-9.003 16.114-14.227-1.91 11.702-6.197 21.518-16.114 29.62" fill="#927F3B"/><path d="M97.934 110.838c1.548-1.124 4.13-2.703 6.584-3.264 1.937.9 2.454 1.43 4.599 2.826 1.754-1.35 4.492-2.715 6.765-2.53 5.811 2.855 1.548 13.659-2.998 15.75-.103-3.24-1.084-7.727-4.491-9.706-1.552 1.283-2.195 2.662-4.184 3.678-2.789-1.241-4.6-3.49-6.198-5.136 0 0-1.884 3.22-5.63 4.905-1.963-.716-3.77-2.278-5.682-3.447-2.686 2.341-2.71 7.502-2.196 10.316-4.44-.9-7.358-5.56-8.596-9.252-.57-2.114-.623-4.592 1.962-5.58 3.407-.81 6.455 1.002 8.624 2.086 0 0 2.892-3.392 5.372-4.022 4.135 1.202 6.07 3.376 6.07 3.376" fill="#FFF"/><path d="M105.654 124.52c-.516 2.342.414 8.106-2.48 9.364-3.408.54-8.055 1.082-11.153-.358-.415-2.07-1.243-7.203-.208-9.183 1.137-.722 2.58-1.264 3.72-1.35 1.858 1.078.929 3.78 3.2 3.869 1.447-1.439 1.653-6.66 5.682-4.049l1.239 1.708" fill="#927F3B"/><path d="M113.093 148.02c-1.137 1.619-3.307 1.35-4.648.451l-2.067-1.982-3.539 2.61c-2.581 0-3.382-4.32-5.345-1.53-.724.63-1.887 1.869-3.178 1.982-1.691.14-3.095-2.217-4.589-2.727 0 0-1.476 1.037-2.872 2.007-1.964 0-3.615-1.35-4.027-2.973-1.343-4.05 1.238-7.111 3.304-10.174 1.032 3.063 1.651 6.305 4.132 8.824 1.342-1.26 2.504-2.947 4.699-3.85 1.937 1.015 3.874 3.378 3.874 3.378.645-1.688 3.408-3.579 3.408-3.579 2.17.542 2.919 2.568 3.953 3.128 1.444-2.612 5.035-5.108 4.932-8.35 3.306 3.33 4.235 8.824 1.963 12.784M72.059 71.585c-1.463 1.485-3.629 2.427-6.05 2.427-4.407 0-7.978-3.113-7.978-6.953 0-1.142.32-2.217.878-3.168-1.959-1.08-.575-.387-2.567-1.496-2.059 2.055-2.356 8.938 3.2 11.945 5.553 3.003 13.78 1.483 16.329-1.253-1.212-.358-2.492-.877-3.812-1.502" fill="#FFF"/><path d="M60.192 67.06c0 2.799 2.605 5.067 5.817 5.067 1.618 0 3.08-.576 4.135-1.505a69.52 69.52 0 0 1-2.104-1.165 3.725 3.725 0 0 1-2.03.594c-1.896 0-3.433-1.34-3.433-2.992 0-.286.057-.559.144-.816l-.044-.03a620.03 620.03 0 0 0-1.974-1.225 4.5 4.5 0 0 0-.511 2.071" fill="#927F3B"/><path d="M142.589 65.033a11.918 11.918 0 0 0-3.332-.798c.543.908.85 1.936.85 3.024 0 3.642-3.385 6.59-7.56 6.59-3.062 0-5.696-1.59-6.883-3.873-1.095.867-2.153 1.743-3.17 2.551 0 0 6.368 6.084 15.4 2.23 5.22-2.23 6.831-5.106 7.204-8.508l-2.51-1.216" fill="#FFF"/><path d="M135.8 67.259c0 1.568-1.456 2.84-3.253 2.84-1.77 0-3.213-1.238-3.252-2.774-.676.44-1.344.909-1.996 1.392.71 1.943 2.789 3.347 5.248 3.347 3.042 0 5.511-2.15 5.511-4.805 0-1.131-.452-2.172-1.206-2.992a13.19 13.19 0 0 0-2.62.59c.934.496 1.568 1.38 1.568 2.402" fill="#927F3B"/><path d="M150.279 59.882s.206-9.814-10.847-15.758c-5.472-.357-11.316.308-15.544 3.467 0 0 7.229-.225 14.201.225 6.714 2.252 12.19 12.066 12.19 12.066" fill="#FFF"/><path d="M125.953 34.837s26.288.134 35.636 10.356c9.349 10.216 19.972 27.906.879 44.758 0 0 16.166-19.703-3.46-40.41-13.564-14.307-33.055-14.704-33.055-14.704m55.106 32.245s-.877-2.834-2.083-5.236c4.822-2.249 12.397-21.158-11.706-27.908 0 0 15.127-1.449 20.657 12.303 4.65 11.555-4.783 19.026-6.868 20.841M91.52 65.148s6.55-3.152 7.731-17.511c.879-10.7-5.32-11.899-8.075-11.899-2.753 0-14.805-.901-24.446 1.2 0 0 21.693.3 24.79 2.1 3.098 1.801 6.886 11.704 0 26.11" fill="#FFF"/></g></svg>