<svg width="200" height="200" xmlns="http://www.w3.org/2000/svg" xmlns:xlink="http://www.w3.org/1999/xlink"><defs><path id="a" d="M0 0h200v167.365H0z"/></defs><g fill="none" fill-rule="evenodd"><g transform="translate(0 16)"><mask id="b" fill="#fff"><use xlink:href="#a"/></mask><path d="M187.645 54.751c3.37-3.838 8.656-12.092 6.226-24.309H200l-2.623-6.812c-.28-.72-7.053-17.722-28.127-22.485-15.126-3.416-25.135 1.568-29.904 5-6.81-2.76-22.766-7.57-39.31-2.017h-.072c-16.544-5.552-32.5-.743-39.31 2.016C55.885 2.713 45.876-2.27 30.75 1.145 9.674 5.908 2.902 22.91 2.623 23.63L0 30.442h6.129c-2.43 12.217 2.855 20.471 6.226 24.31-.47 2.035-.857 7.487-1.145 11.207 0 0-1.288-.304-3.168-1.346-1.878-1.04-3.311-2.447-3.311-2.447.511 10.36 4.61 53.884 37.542 66.894 2.795 1.105 5.07 2.338 6.93 3.715 9.904 7.323 11.623 11.976 14.566 21.795 3.746 12.503 14.445 12.595 19.584 12.641a38.82 38.82 0 0 1 2.041.047c2.353.145 5.164.114 8.424.074 1.806-.022 4.173-.04 6.16-.031h.044c1.987-.01 4.354.009 6.16.031 3.26.04 6.07.071 8.424-.074a38.82 38.82 0 0 1 2.04-.047c5.14-.046 15.839-.138 19.583-12.64 2.945-9.82 4.664-14.473 14.568-21.796 1.86-1.377 4.135-2.61 6.93-3.715 32.932-13.01 37.03-56.535 37.542-66.894 0 0-1.433 1.406-3.311 2.447-1.88 1.042-3.168 1.346-3.168 1.346-.288-3.72-.674-9.172-1.145-11.208Zm-40.233 74.012c-11.295 8.348-13.35 14.13-16.43 24.407-3.083 10.28-11.638 8.674-16.773 8.996-3.287.205-25.133.205-28.42 0-5.135-.322-13.693 1.283-16.771-8.996-3.08-10.276-5.135-16.059-16.43-24.407-11.295-8.354-31.49-5.463-42.1-57.819 2.263 2.66 6.15 4.175 6.154 4.175-1.36-12.846 1.72-21.84 1.72-21.84s-12.667-9.957-4.794-28.586c-3.764.643-5.819.643-5.819.643s5.819-15.095 24.3-19.272c18.487-4.175 27.726 6.104 27.726 6.104S79.716 1.9 99.998 9.705h.004c20.282-7.805 40.223 2.463 40.223 2.463s9.237-10.28 27.725-6.104c18.48 4.177 24.298 19.272 24.298 19.272s-2.054 0-5.818-.643c7.872 18.63-4.791 28.587-4.791 28.587s3.079 8.993 1.717 21.84c.004 0 3.891-1.517 6.153-4.176-10.607 52.356-30.802 49.465-42.097 57.82" fill="#BC955C" mask="url(#b)"/></g><path d="M192.657 42.189c-.072 0-1.492-.005-4.095-.362 5.747 15.787-2.887 25.392-5.284 27.667.66 2.264 2.493 9.652 1.737 19.741 1.23-.66 2.882-1.71 4.04-3.074l1.945.944c-8.589 42.382-23.221 49.134-34.985 54.564-2.827 1.304-5.501 2.538-7.732 4.186-10.976 8.113-12.965 13.496-16.095 23.94-2.894 9.657-10.507 9.724-15.546 9.77-.817.007-1.59.012-2.302.059-3.35.21-25.331.21-28.682 0-.708-.047-1.483-.052-2.302-.058-5.04-.047-12.653-.114-15.546-9.77-3.128-10.445-5.122-15.825-16.098-23.941-2.23-1.648-4.9-2.882-7.729-4.186C32.219 136.239 17.584 129.487 9 87.105l1.942-.944c1.159 1.364 2.813 2.413 4.041 3.074-.759-10.09 1.076-17.477 1.74-19.74-2.403-2.276-11.03-11.88-5.29-27.668-2.6.357-4.02.362-4.094.362H5.713l.588-1.518c.247-.641 6.275-15.767 25.2-20.045 16.554-3.74 25.93 3.626 28.32 5.867 3.852-1.8 21.673-9.232 40.175-2.315 18.506-6.917 36.33.516 40.18 2.315 2.394-2.241 11.764-9.607 28.32-5.867 18.928 4.278 24.958 19.404 25.203 20.045l.588 1.518h-1.63" fill="#231F20"/><path d="M164.456 29.063c-6.443-2.306-13.92-.775-18.767 3.485-.826.869-.619 1.742-.518 2.807-2.784.676-7.823-2.963-13.115-4.242-5.293-1.277-13.474-2.586-24.41-1.29-3.223.497-6.206 2.123-7.644 2.502-.002.002-.002-.033-.002-.094l-.002.094c-1.438-.38-4.42-2.005-7.645-2.503-10.935-1.295-19.118.014-24.41 1.29-5.293 1.28-10.332 4.92-13.116 4.243.103-1.065.308-1.938-.516-2.807-4.847-4.26-12.324-5.791-18.772-3.485-10.004 4.553-17.738 13.55-16.81 24.68.514 4.744 4.745 10.067 9.181 11.324 0 0-7.066 22.746 0 36.296-3.61-.482-7.943-6.098-7.943-6.098 2.594 31.99 27.588 39.733 38.006 46.506 4.856 3.365 11.234 9.596 14.983 15.975a33.561 33.561 0 0 1 1.007 1.849 26.9 26.9 0 0 1 .739 1.61c.036.082.076.167.11.25.194.475.357.948.508 1.42.04.124.092.247.128.37.174.574.317 1.145.42 1.708.412 2.614 2.473 4.063 5.26 4.354h37.742c2.789-.29 4.85-1.74 5.263-4.354.102-.563.245-1.134.415-1.708.04-.123.09-.246.13-.37.151-.472.316-.945.51-1.42.034-.083.074-.168.106-.25a28.434 28.434 0 0 1 .77-1.666c.301-.596.625-1.19.978-1.786 0-.003 0-.007.002-.007 3.746-6.379 10.127-12.61 14.983-15.975 10.416-6.773 35.41-14.516 38.006-46.506 0 0-4.333 5.616-7.945 6.098 7.066-13.55 0-36.296 0-36.296 4.438-1.257 8.667-6.58 9.18-11.324.931-11.13-6.805-20.127-16.812-24.68Z" fill="#BC955C"/><path d="m132.744 141.771.002-.006c2.833-9.194 3.97-20.467 5.926-28.786 2.324-8.714-4.124-12.342-11.034-13.938 2.681-.773 5.465-1.26 7.941-2.324 1.204-.76.516-2.291 0-4.16v-.002c9.076-.775 16.089-3.29 22.688-9.774.621 3.58-1.286 10.355-3.194 13.936 5.362-2.322 9.796-7.357 11.86-12.099 1.444 8.616-2.733 16.624-6.393 23.423 2.061.777 4.847-.29 6.6-.871-3.713 18.388-22.277 22.987-34.396 34.601M100.031 161.74c5.736-.022 11.867-.279 16.158-.272-.824 2.127-1.976 3.273-3.287 3.76-1.308.486-2.614.522-2.614.522-1.954.275-5.751.074-9.156.074H98.93c-3.405 0-7.203.2-9.156-.074 0 0-1.309-.036-2.615-.522-1.308-.487-2.465-1.633-3.286-3.76 4.289-.007 10.424.25 16.157.272Z" fill="#231F20"/><path d="M74.695 123.43c-1.239-5.71-6.758-14.856-.158-19.406 5.365-1.453 10.781-2.177 16.555-2.661 1.444-.482 3.405-1.063 3.713-2.809-1.137-5.999-8.973-4.16-13.305-6.385-2.886-1.643-5.467-3.485-6.084-6.584 2.474-8.127 12.762-8.806 21.554-9.239.871-.042 2.153-.047 3.061-.038.907-.009 2.19-.004 3.061.038 8.79.433 19.08 1.112 21.554 9.239-.616 3.099-3.197 4.94-6.084 6.584-4.331 2.226-12.17.386-13.304 6.385.31 1.746 2.268 2.327 3.71 2.809 5.776.484 11.193 1.208 16.558 2.661 6.6 4.55 1.08 13.695-.159 19.406 0 0 4.155-3.315 5.881-6.968-1.24 9.292-3.2 22.746-5.88 31.748 0 0-1.238-6.101-4.022-7.258-1.755 4.644-.205 9.772-3.713 13.742-5.155 2.297-11.56 1.976-17.602 1.679-6.044.297-12.449.618-17.602-1.68-3.507-3.969-1.958-9.097-3.713-13.741-2.786 1.157-4.02 7.258-4.02 7.258-2.684-9.002-4.642-22.456-5.882-31.748 1.726 3.653 5.881 6.968 5.881 6.968Z" fill="#231F20"/><path d="M33.13 84.618c2.063 4.742 6.495 9.774 11.862 12.099-1.911-3.581-3.818-10.358-3.197-13.934 6.6 6.481 13.612 8.997 22.69 9.772-.518 1.871-1.205 3.403 0 4.162 2.476 1.067 5.258 1.551 7.937 2.324-6.907 1.596-13.357 5.224-11.033 13.936 1.958 8.319 3.094 19.594 5.927 28.785l.003.012c-12.121-11.615-30.681-16.216-34.399-34.602 1.757.58 4.541 1.643 6.602.869-3.661-6.799-7.836-14.81-6.392-23.423ZM163.46 44.455c3.508 5.517 6.187 11.612 5.674 18.288-5.776 6.584-11.76 12.098-19.083 17.231 1.755-3.387 3.095-8.033 1.237-11.616-5.242 10.42-16.807 10.94-16.807 10.94 2.06 2.223 5.155 3.387 7.941 2.514-2.842 2.409-5.204 5.106-9.236 5.206 1.21-.196 2.349-1.192.315-5.014-3.354-6.288-28.105-15.944-30.237-17.049-1.56-.84-3.054-2.072-3.242-2.226-.19.154-1.683 1.387-3.241 2.226-2.135 1.105-26.884 10.761-30.24 17.049-2.033 3.822-.892 4.818.315 5.014-4.032-.1-6.392-2.797-9.234-5.206 2.784.873 5.881-.29 7.942-2.514 0 0-11.568-.52-16.81-10.94-1.857 3.583-.516 8.23 1.237 11.616-7.323-5.133-13.306-10.647-19.082-17.231-.514-6.676 2.168-12.771 5.673-18.288-1.445-1.55-3.816-1.645-8.457-.971 2.322-5.437 13.666-11.08 20.835-4.354-4.847 6.388-14.338 13.454-9.179 22.068l1.755 2.322c4.552-9.179 9.228-14.084 14.177-14.662 7.908 2.578 17.88 14.034 28.759 15.727 2.684.192 4.952-.096 7.118-1.644a24.747 24.747 0 0 0 2.444-2.74c2.222-2.92 4.153-7.039 4.104-6.958.768-1.286 1.74-1.043 1.884-.998.145-.045 1.114-.288 1.882.998-.049-.08 1.883 4.039 4.104 6.959a24.997 24.997 0 0 0 2.447 2.74c2.166 1.547 4.434 1.835 7.115 1.643 10.882-1.693 20.851-13.149 28.76-15.727 4.949.578 9.624 5.483 14.179 14.662l1.754-2.322c5.158-8.614-4.33-15.68-9.18-22.068 7.169-6.727 18.513-1.083 20.835 4.354-4.642-.674-7.013-.578-8.457.971Z" fill="#231F20"/><path d="M142.666 58.48c-1.99 1.193-.608.45-2.563 1.61.56 1.02.88 2.175.88 3.403 0 4.128-3.566 7.477-7.969 7.477-2.416 0-4.58-1.016-6.041-2.61-1.318.672-2.595 1.23-3.805 1.614 2.548 2.943 10.76 4.575 16.305 1.344 5.542-3.228 5.251-10.632 3.193-12.838" fill="#FFFFFE"/><path d="m136.28 64.47 2.541-.98c0-.792-.183-1.542-.507-2.223-.652.435-1.308.873-1.973 1.32a.415.415 0 0 0-.043.024c.085.281.145.574.145.88 0 .343-.058.674-.163.98M128.888 67.324l2.548-.982a3.808 3.808 0 0 1-.451-.268c-.704.435-1.405.855-2.097 1.25M76.877 69.974c-1.213-.384-2.488-.942-3.81-1.616-1.46 1.594-3.623 2.612-6.036 2.612-4.403 0-7.969-3.347-7.969-7.48 0-1.225.32-2.38.88-3.402-1.956-1.161-.574-.418-2.563-1.608-2.059 2.206-2.353 9.61 3.193 12.84 5.545 3.227 13.757 1.597 16.305-1.346" fill="#FFFFFE"/><path d="m68.607 66.342 2.55.982a68.92 68.92 0 0 1-2.1-1.248 3.92 3.92 0 0 1-.45.266M63.762 64.47a3.079 3.079 0 0 1-.16-.98c0-.305.06-.598.144-.88l-.042-.024c-.665-.446-1.322-.884-1.974-1.32a5.156 5.156 0 0 0-.507 2.225l2.539.98M77.169 115.01c1.237 3.97 4.153 8.976 8.587 9.947-.516-3.03-.491-8.573 2.192-11.091 1.907 1.257 3.71 2.933 5.671 3.71 3.434-1.665 5.986-4.561 6.383-5.023v-.07c-.091.099-.002 0 .03-.037-.014-.016-.012-.012 0 0 .01-.012.015-.016 0 0 .033.038.12.136.03.038v.069c.396.462 2.95 3.358 6.381 5.023 1.96-.777 3.765-2.453 5.674-3.71 2.679 2.518 2.708 8.062 2.192 11.091 4.432-.97 7.35-5.976 8.582-9.946.57-2.275.62-4.936-1.96-6.004-3.398-.868-6.443 1.083-8.61 2.246 0 0-2.888-3.65-5.36-4.326-3.683 1.154-6.233 3.567-6.856 3.992v.066c-.011.007-.038 0-.074-.022-.035.022-.062.03-.073.022l.002-.066c-.625-.425-3.173-2.838-6.857-3.992-2.473.676-5.36 4.326-5.36 4.326-2.166-1.163-5.211-3.114-8.614-2.246-2.578 1.068-2.525 3.729-1.96 6.004" fill="#FFFFFE"/><path d="m100.031 112.448-.029.033.03.036.028-.036-.029-.033" fill="#8E9291"/><path d="M87.379 137.27c-2.06 3.291-4.642 6.582-3.298 10.94.411 1.742 2.059 3.19 4.017 3.19 1.395-1.04 2.869-2.158 2.869-2.158 1.491.551 2.893 3.083 4.588 2.933 1.286-.122 2.762-1.442 3.485-2.116.46-.507.683-.723.902-.853h.179c.218.13.442.346.902.853.723.674 2.199 1.994 3.487 2.116 1.692.15 3.094-2.382 4.586-2.933 0 0 1.473 1.118 2.869 2.159 1.958 0 3.608-1.45 4.018-3.19 1.34-4.359-1.236-7.65-3.297-10.94-1.036 3.29-1.65 6.773-4.128 9.484-1.342-1.356-2.5-3.17-4.696-4.135-1.294.732-2.969 2.11-3.741 2.938l-.09.12-.089-.12c-.77-.828-2.445-2.206-3.742-2.938-2.197.964-3.351 2.78-4.695 4.135-2.478-2.71-3.095-6.194-4.126-9.485M104.64 90.959c1.754-.342 3.967-.701 5.891-1.407 1.362-.498 2.58-1.168 3.392-2.128-.02-.27-.1-.509-.23-.718-.199-.329-.51-.588-.875-.8-.643-.375-1.452-.603-2.092-.804a3.354 3.354 0 0 0-.934-.004c-2.563.364-3.119 3.914-4.769 5.535-.12.118-.247.23-.384.326M89.529 89.552c1.927.706 4.14 1.065 5.894 1.407a3.092 3.092 0 0 1-.384-.326c-1.648-1.621-2.206-5.171-4.769-5.535a3.425 3.425 0 0 0-.93.004c-.644.201-1.452.431-2.095.806-.364.21-.677.47-.878.798-.127.21-.207.448-.227.72.81.96 2.03 1.628 3.389 2.126" fill="#FFFFFE"/></g></svg>