<svg width="200" height="200" fill="none" xmlns="http://www.w3.org/2000/svg"><g clip-path="url(#a)"><path d="M199.203 165.359c-11.719-11.718-26.078-19.593-39.312-24.5 19.437 5.094 33.875 15.25 33.875 15.266 2.593 1.828 5.218-1.719 2.718-3.672a140.949 140.949 0 0 0-7.547-5.453c5.75-3.141 9.344-10.609 9.344-16.297V55.187c0-10.437-7.922-20.937-17.672-24.656-6.015-2.734-13.687-5.375-23.046-8.312-4.969-1.797-9.938-1.563-13.938.375-.719-2.25-2.594-4.297-5.547-4.938-9.359-2-25.156-3.656-38.828-3.656-13.734 0-27.125.969-39.734 3.828-2.063.469-4.11 2.563-4.844 4.719-3.984-1.953-8.984-2.188-13.969-.39-9.344 2.937-17.031 5.78-23.031 8.53C7.906 34.422 0 45 0 55.407v78.718c0 12.5 9.422 17.516 20.266 13.828.203-.047.422-.125.672-.25.828-.406 26.359-12.547 52.64-12.484-20.484 1.953-41.156 8-58.062 20.281-2.72 2.125-.36 5.922 2.718 3.672.344-.266 20.297-13.313 51.813-16.094-30.39 7.609-42.844 22.969-43.078 23.281-1.969 2.438.843 5.188 3.25 3.172 6.5-5.453 13.656-9.593 20.875-12.734-.094 7.922 1.765 16.375 10.797 26.078 1.968 2.125 3.328 3.844 4.734.141.86-2.266 6.281-15.125 16.703-18.922.828 9.672 6.156 16.109 11.375 18.781 10.563 5.406 23.438.469 25.25-12.359 2.61-2.985 2.703-8.922 2.703-8.922 5.375 3 9.438 8.406 12.281 13.672.969 1.781 2.735 1.875 3.891.203 4.422-6.422 6.406-15.735 7.172-23.5 11.813 4.39 21.719 10.328 28.813 15.328 7.593 5.328 11.921 9.547 11.921 9.547 2.282 2.218 5.422-.891 3.25-3.188-12.89-13.672-26.468-22.172-38.046-27.453 8.984 2.422 17.14 5.938 23.937 9.5 12.422 6.5 20.219 13.031 20.219 13.031 2.453 2.032 5.344-1.125 3.109-3.375Zm-57.391-128.39c0-7.563 6.126-11.422 13.688-8.625 9.219 2.89 16.766 5.468 22.641 8.156 7.562 2.797 13.687 11.125 13.687 18.688v75.531c0 7.047-6.859 13.531-12.39 10.531-9.797-5.297-18.797-8.313-26.547-9.906.922-16.219-7-27.047-13.797-33.031 3.906-3.032 6-6.422 7.093-8.641 4.329-.969 6.188-5.531 6.36-7.906.359-5.063-2.656-3.47-3.625-2.282-.688.844-2.141 1.438-3.188 1.438-1.421 0-2.64-.25-3.906-.64V36.968h-.016Zm-26.031-15.813a201.27 201.27 0 0 1 21.625 2.875v54.75c-5.984-1.86-10.906-1.875-17.25 1.281l-.25-.218a17.642 17.642 0 0 0-4.125-2.5V21.156Zm-54.906 2.907A201.25 201.25 0 0 1 82.5 21.172v23.312c2.406-.187 4.828-.343 7.266-.453V20.72c3.14-.14 6.296-.203 9.484-.203 4.094 0 8.141.125 12.141.343v55.22c-4.188-.673-8.625 0-12.766 1.593-3-1.031-6.016-1.406-8.86-1.39V66c-2.437.11-4.859.266-7.265.453v10.672a40.93 40.93 0 0 0-7.594 2.5c-3.844-1.5-8.234-2.39-13.25-2.39-.265 0-.515 0-.781.015V24.062ZM6.469 134.125V55.406c0-7.562 6.125-15.953 13.687-18.75 5.875-2.687 13.422-5.484 22.64-8.375 7.548-2.797 13.688 1.063 13.688 8.625v41.125c-3.734 1.078-6.859 2.906-10.672 2.906-1.656 0-2.546-.156-2.906-.312-3.625-2.36-5.047-1.828-4.25 1.61 1.328 4.609 4.563 7.234 9.703 6.984 1.563 2.703 4.25 4.719 6.844 6.344-8.734 7.968-15.453 18.656-18.172 30.265-.89 2.735-.812 3.469-1.515 6.5 4.515-3.672 8.968-7.562 14.125-10.297-1.922 2.688-4.11 6.172-5.985 10.297-.187.078-.39.156-.578.234-4.11 1.282-11.734 4.688-22.922 10.188-7.562 2.797-13.687-1.063-13.687-8.625Zm121.484 6.578c11.188 2.203 36.938 9.625 60.391 34.5 0 0-17.766-17.297-44.391-26.406 0 0-.609 16.062-7.015 25.359C129.125 159.719 120 158.031 120 158.031s1.688 6.75-2.203 11.5c-1.094 6.078-5.406 13-14.594 12.766-17.469-.469-17.86-20.985-17.86-20.985-3.78.454-13.609 3.36-20.984 20.829-10.28-10.141-11.687-21-10.78-28.86-8.532 3.36-17.126 8.032-24.845 14.5 0 0 19.422-24.234 70.032-26.437-47.72-5.922-80.422 14.953-81.891 15.984-.016.016-.031.016-.031.031.015 0 .015-.015.031-.031C51.5 132.203 97.969 137.25 97.969 137.25c-33.422-13.25-78.063 8.422-78.063 8.422 9.203-5.063 17.64-8.719 25.297-11.281 4.5-10.532 11.172-17 11.172-17s-5.656-.407-17.156 8.921c4.625-19.781 19.937-31.171 19.937-31.171s-8.015-3.782-9.437-8.391c-7.188 1.188-8.532-3.89-8.907-5.172.282.594 1.297 1.625 4.97 1.625 5.984 0 8.421-3.703 15.843-3.703 5.14 0 9.547.984 13.297 2.594 3.734-1.766 13.953-5.735 23.719-2 14.093-5.828 21.125 2.765 21.125 2.765s5.515-3.515 11.656-3.046c6.14.468 9.016 3.359 14.266 3.359 3.343 0 4.812-2.344 4.812-2.344s-.969 6.781-5.891 6.656c-.843 2.125-3.156 6.391-9.218 10.735 14.687 11.328 15.015 26.484 15.015 26.484s-4-5.344-9.031-6.703c5.516 5.516 6.266 12.031 6.359 14.687 12.36 1.735 29.063 7.375 47.329 21.563 0 0-32.141-22.703-65.719-17.828 14.984.469 46.359 8.672 68.219 30.531.031.031-31.766-26.719-69.61-26.25Z" fill="#fff"/><path d="M166.828 115.187c1.859.485 3.375-1.172 3.375-3.687V58.453c0-2.516-1.5-5.078-3.375-5.719-1.859-.64-3.359.875-3.359 3.39v53.626c0 2.531 1.5 4.953 3.359 5.437ZM31.453 116.422c1.86-.641 3.375-3.203 3.375-5.719v-54.36c0-2.515-1.516-4.046-3.375-3.406-1.86.64-3.36 3.203-3.36 5.719V113c0 2.547 1.5 4.062 3.36 3.422Z" fill="#fff"/><path fill-rule="evenodd" clip-rule="evenodd" d="m121.891 112.203 2.468-.953s.157 3.891-2.468 4.781c.312-1.609 0-3.828 0-3.828Zm-30.97 4.719-3.03-.422s.734 3.672 4.875 4.719c-1.204-1.985-1.844-4.297-1.844-4.297Zm32.063 31.328-8.609-3.828c-10.844 1.672-15.172 4.25-15.172 4.25s-1.547 3.594 3.375 6.609c0 0-.078-5.859 2-7.812l2.188 1.422 1.828-2.547 2.187 1.359 1.719-2.078 2.25 1.594 1.953-.953s3.844 2.015 2.484 7.265c3.797-1.984 3.797-5.281 3.797-5.281Zm-11.328 16.672c4.781-2.313 4.469-9.235 4.469-9.235 4.141 8.86-1.422 12.657-1.422 12.657s-4.141-1.266-7.812-1.11c-3.672.157-6.938 2.297-6.938 2.297s-6.406-1.437-2.516-14.094c0 0 .094 8.36 4.657 10.266l1.265-2.312 1.36 1.843 1.515-2.468 1.672 2 2-2.313 1.75 2.469Z" fill="#fff"/><path d="M100.734 171.703c-1.671.625-3.828.156-6.14-2.156-2.485-2.484-3.438-8.234-4-12.281-.25-1.797-.422-3.266-.61-3.969-.53-1.922-2.812-6.328-3.562-7.766a168.02 168.02 0 0 0-14.484 2.11c-.72.156-1.438.312-2.172.484-.938 3.984-.266 7.063.656 9.141.922 2.109 2.094 3.203 2.094 3.203s.046-1.375.546-3.203c.704-2.625 2.297-6.172 5.907-7.969-.14 4.047 1.297 6.5 2.969 7.969 1.25 1.109 2.624 1.656 3.578 1.922 0 0-.079-.75.125-1.922.14-.828.406-1.844.937-2.985.063 1.031.125 2.032.234 2.985 1.813 17.359 10.657 21.593 17.782 21.062 7.484-.578 10.125-7.25 10.125-7.25s-1.672-1.672-7.656-1.672c-3.532-.015-4.641 1.657-6.329 2.297ZM92.453 148.813c7.656-4.141 20.891-6.141 20.891-6.141l.422-3.203a27.778 27.778 0 0 1-4.11-3.86 38.233 38.233 0 0 1-2.969-3.828c-.359-2.359-2.796-8.531-9.234-4.25-4.61 3.063-5.047 3.985-5.047 3.985 6.266 1.593 9.469 3.609 9.469 3.609-.031.172-.062.328-.094.5-.547 3.25-.203 6.391.891 8.984-4.39.047-8.703.25-12.953.594.39 2.844 2.734 3.61 2.734 3.61ZM60.094 150.797c.968 3.422 2.61 5.687 2.61 5.687s-.142-3.453 1.421-6.906a115.31 115.31 0 0 0-4.031 1.219ZM128.344 151.125c1.656 1.516 2.531 3.906 3 6.125.609 2.906.5 5.516.5 5.516s2.328-1.735 3.265-5.516c.516-2.078.61-4.766-.328-8.125 2.625.891 4.313 5.984 4.313 5.984s.781-3.312 1.156-7.656c-2.313-.5-4.578-1.437-6.969-1.844-.625 1.844-1.781 3.688-4.937 5.516ZM126.063 134.188l.109-.907s1.562-.437 4.406-.781c-.844-2.703-2.937-6.703-8.172-8.547 1.375 2.531 1.407 5.594 1.407 5.594-.922 2.609-2.016 4.719-3.375 6.078-1.063 1.063-4.641 3.859-4.641 3.859v3.672l11.641 4.297c.624-.437 1.937-2.062 2.296-2.531-2.234-.313-4.296-.672-6.578-.891.547-.703 1.407-2.765 1.969-4.843.625-2.36.922-4.75.938-5Z" fill="#CDA177"/><path d="M131.594 109.735c3.343.406 7.625 2.718 10.187 4.265a48.088 48.088 0 0 1 2.203 1.406s-.187-.515-.593-1.406c-1.672-3.687-6.907-13.734-16.563-18.687 4.688-5.157 10.297-7.485 14.063-8.516-3.532-1.125-6.953-3.531-10.547-3.766-6.297-.406-11.969 3-11.969 3-6.766-6.03-12.563-4.03-14.313-3.265 13.235 8.906 13.11 26.031 13.11 26.031s-4.531-20.594-18.797-24.844c-8.953-2.656-14.64.235-16.922 1.844 11.828 9.125 14.516 24.734 14.516 24.734S85.906 80.156 59.188 83.828c-1.735.235-3.61 1.063-5.657 1.782 3.688.406 9.25 1.812 13.782 6.359-12.891 7.64-15.922 18.609-16.563 22.047-.14.703-.172 1.094-.172 1.094s.828-.485 2.36-1.094c3.109-1.235 9.109-3 17.109-2.578a53.596 53.596 0 0 0-4.25 2.578c-8.86 6.047-13.078 13.422-15.078 19.156 16.156-4.344 28.61-4.062 37.172-2.578 2.859-2.875 5.687-4.672 8.218-5.813-.03 0-1.015-2.906-1.015-2.906s-2.86 1.844-7.813.891c-5.219-1-9.453-5.375-12.031-8.735-1.75-2.281-2.719-4.109-2.719-4.109s2.14 2.766 9.89 4.109c3.5.594 8.141.907 14.235.532l2.578 9.234s6.5-2.125 9.344 5.438c2.922-.829 8.641-1.844 12.656-.829.36-6.156-4.5-7.687-4.5-7.687 1.594-.078 2.828.328 3.766 1.016-.375-1.235-1.531-5.079-2.328-7.704-.453-1.5-.781-2.609-.781-2.609 11.39-2.781 14.078-5.797 14.078-5.797s-.907 5.141-2.922 8.406c-.375.594-.766 1.141-1.219 1.563-2.422 2.344-5.672 2.156-5.672 2.156l.922 4.016c4.531.562 9.406 3.062 12.094 10.437 1.422-.062 3-.093 4.734-.047a41.737 41.737 0 0 0-1.64-5.796c2.625.468 4.406 2.89 4.406 2.89s-1.25-8.078-6.625-15.203a26.999 26.999 0 0 0-3.953-4.312Zm-30.828 9.281c4.328-6.172 13.25-4.438 16.031-1.922-5.422-.141-10.641.141-16.031 1.922Z" fill="#CDA177"/><path d="M127.953 140.703c37.844-.469 69.641 26.266 69.641 26.266-21.86-21.86-53.235-30.047-68.219-30.531 33.594-4.891 65.719 17.828 65.719 17.828-18.266-14.188-34.969-19.813-47.328-21.563-.094-2.672-.828-9.172-6.36-14.687 5.032 1.359 9.031 6.703 9.031 6.703s-.328-15.156-15.015-26.485c6.062-4.343 8.375-8.625 9.219-10.734 4.922.125 5.89-6.656 5.89-6.656s-1.469 2.344-4.812 2.344c-5.25 0-8.141-2.876-14.266-3.36-6.141-.469-11.656 3.047-11.656 3.047s-7.031-8.594-21.125-2.766c-9.781-3.734-19.984.235-23.719 2-3.75-1.609-8.156-2.593-13.297-2.593-7.406 0-9.86 3.703-15.843 3.703-3.672 0-4.688-1.031-4.97-1.625.376 1.281 1.72 6.36 8.907 5.172 1.422 4.609 9.438 8.39 9.438 8.39s-15.329 11.391-19.938 31.172c11.484-9.344 17.156-8.922 17.156-8.922s-6.672 6.469-11.172 17c-7.672 2.563-16.093 6.219-25.297 11.282 0 0 44.641-21.672 78.063-8.422 0 0-46.516-5.047-81.125 20.109.766-.578 33.672-22 81.922-16.016-50.625 2.188-70.047 26.422-70.047 26.422 7.719-6.468 16.328-11.125 24.844-14.5-.907 7.86.5 18.719 10.781 28.86 7.375-17.453 17.188-20.36 20.984-20.828 0 0 .391 20.515 17.86 20.984 9.187.25 13.5-6.688 14.593-12.766 3.891-4.734 2.204-11.5 2.204-11.5s9.125 1.688 16.937 16.125c6.406-9.297 7.016-25.359 7.016-25.359 26.625 9.109 44.39 26.406 44.39 26.406-23.468-24.875-49.218-32.281-60.406-34.5Zm-65.25 15.781s-1.625-2.25-2.61-5.687a115.31 115.31 0 0 1 4.032-1.219c-1.563 3.453-1.422 6.906-1.422 6.906ZM50.72 133.156c2-5.718 6.218-13.109 15.078-19.156a49.223 49.223 0 0 1 4.25-2.578c-8-.422-14 1.359-17.094 2.578-1.531.609-2.36 1.094-2.36 1.094s.032-.391.173-1.094c.656-3.437 3.687-14.406 16.562-22.047-4.547-4.547-10.11-5.953-13.781-6.36 2.047-.718 3.922-1.546 5.656-1.78 26.703-3.672 36.781 26.703 36.781 26.703s-2.687-15.61-14.515-24.735c2.265-1.594 7.953-4.5 16.922-1.844 14.281 4.25 18.797 24.844 18.797 24.844s.124-17.125-13.11-26.031c1.75-.75 7.531-2.766 14.313 3.266 0 0 5.671-3.407 11.968-3 3.594.234 7.016 2.625 10.547 3.765-3.765 1.031-9.375 3.375-14.062 8.516 9.656 4.953 14.906 15 16.562 18.687.406.875.594 1.407.594 1.407s-.859-.594-2.203-1.407c-2.547-1.531-6.844-3.843-10.188-4.265a27.032 27.032 0 0 1 3.922 4.265c5.36 7.125 6.625 15.204 6.625 15.204s-1.781-2.422-4.406-2.891a40.356 40.356 0 0 1 1.641 5.797 65.944 65.944 0 0 0-4.735.047c-2.687-7.375-7.578-9.891-12.093-10.438l-.922-4.015s3.234.203 5.671-2.157c.454-.437.844-.968 1.219-1.562 2.031-3.266 2.922-8.406 2.922-8.406s-2.687 3.015-14.078 5.796c0 0 .328 1.11.781 2.61.797 2.625 1.953 6.484 2.328 7.703-.953-.688-2.187-1.094-3.765-1.016 0 0 4.843 1.532 4.5 7.688-4.016-1.016-9.719 0-12.657.828-2.843-7.563-9.343-5.438-9.343-5.438L96.64 114.5c-6.094.375-10.735.063-14.235-.531-7.765-1.328-9.89-4.11-9.89-4.11s.968 1.829 2.718 4.11c2.563 3.375 6.797 7.75 12.032 8.734 4.953.953 7.812-.89 7.812-.89s.984 2.906 1.016 2.906c-2.531 1.14-5.36 2.937-8.219 5.812-8.563-1.437-21.016-1.734-37.156 2.625Zm71.172-20.953 2.468-.953s.157 3.891-2.468 4.781c.312-1.609 0-3.828 0-3.828Zm-29.125 9.016c-4.141-1.047-4.875-4.719-4.875-4.719l3.03.422s.641 2.312 1.845 4.297Zm9.89 23.406c-1.094-2.594-1.437-5.734-.89-8.984l.093-.5s-3.187-2-9.468-3.61c0 0 .437-.906 5.046-3.984 6.422-4.281 8.876 1.891 9.235 4.25a38.347 38.347 0 0 0 2.969 3.828c1.312 1.469 2.687 2.781 4.109 3.859l-.422 3.204s-13.234 2-20.89 6.14c0 0-2.344-.781-2.735-3.594 4.25-.359 8.563-.562 12.953-.609Zm1.922 33.688c-7.11.546-15.969-3.704-17.781-21.063a80.017 80.017 0 0 1-.234-2.984 11.81 11.81 0 0 0-.938 2.984c-.203 1.188-.125 1.922-.125 1.922-.938-.281-2.328-.828-3.578-1.922-1.672-1.469-3.094-3.906-2.969-7.969-3.61 1.782-5.203 5.344-5.906 7.969-.5 1.828-.547 3.203-.547 3.203s-1.172-1.094-2.094-3.203c-.906-2.078-1.594-5.156-.656-9.141.734-.171 1.453-.328 2.172-.484a168.02 168.02 0 0 1 14.484-2.109c.75 1.437 3.031 5.843 3.563 7.765.187.703.36 2.172.61 3.969.562 4.063 1.515 9.797 4 12.281 2.312 2.313 4.468 2.782 6.14 2.157 1.687-.641 2.781-2.313 6.297-2.313 5.984 0 7.656 1.672 7.656 1.672s-2.61 6.687-10.094 7.266Zm10.125-9.969s-4.141-1.266-7.812-1.11c-3.672.157-6.938 2.297-6.938 2.297s-6.406-1.437-2.516-14.093c0 0 .094 8.359 4.657 10.265l1.265-2.312 1.36 1.843 1.515-2.468 1.672 2 2-2.313 1.735 2.469c4.781-2.313 4.468-9.234 4.468-9.234 4.157 8.875-1.406 12.656-1.406 12.656Zm4.5-14.781c1.36-5.266-2.484-7.266-2.484-7.266l-1.953.953-2.25-1.594-1.719 2.078-2.188-1.359-1.828 2.547-2.187-1.422c-2.078 1.938-2 7.813-2 7.813-4.906-3.016-3.375-6.61-3.375-6.61s4.312-2.562 15.172-4.25l8.609 3.828c-.016-.031-.016 3.266-3.797 5.282Zm8.25-6.11-11.64-4.297v-3.672s3.578-2.781 4.64-3.859c1.344-1.359 2.438-3.469 3.375-6.078 0 0-.031-3.078-1.406-5.594 5.234 1.844 7.328 5.844 8.172 8.547-2.844.344-4.407.781-4.407.781l-.109.907c-.015.25-.297 2.64-.937 5-.547 2.093-1.422 4.14-1.969 4.843 2.297.219 4.359.578 6.578.891-.359.469-1.672 2.094-2.297 2.531Zm11.641 7.656s-1.672-5.093-4.313-5.984c.938 3.359.844 6.047.328 8.125-.937 3.781-3.265 5.516-3.265 5.516s.093-2.61-.5-5.516c-.469-2.219-1.344-4.609-3-6.125 3.156-1.828 4.312-3.672 4.953-5.516 2.375.407 4.656 1.344 6.969 1.844-.391 4.344-1.172 7.656-1.172 7.656Z" fill="#000"/><path d="M116.781 117.078c-2.765-2.516-11.687-4.25-16.031 1.922 5.406-1.766 10.625-2.047 16.031-1.922Z" fill="#000"/><path fill-rule="evenodd" clip-rule="evenodd" d="M37.016 125.797c2.703-11.594 9.422-22.282 18.172-30.266-2.61-1.61-5.282-3.64-6.844-6.344-5.125.25-8.375-2.375-9.703-6.984-.797-3.422.625-3.953 4.25-1.61.359.157 1.265.313 2.906.313 3.812 0 6.937-1.828 10.672-2.906V36.89c0-7.562-6.125-11.421-13.688-8.625-9.218 2.891-16.765 5.688-22.64 8.376-7.563 2.796-13.688 11.187-13.688 18.75v78.718c0 7.563 6.125 11.422 13.688 8.625 11.187-5.5 18.828-8.906 22.922-10.219.203-.078.39-.14.578-.234 1.875-4.141 4.062-7.609 5.984-10.297-5.172 2.735-9.625 6.625-14.125 10.297.703-3.016.64-3.734 1.516-6.484Zm-5.563-72.86c-1.86.641-3.36 3.204-3.36 5.72V113c0 2.515 1.5 4.047 3.36 3.406 1.86-.641 3.375-3.203 3.375-5.719V56.344c0-2.516-1.516-4.047-3.375-3.407Zm79.938-32.078v55.219c-4.188-.672-8.625 0-12.766 1.594-3-1.031-6.016-1.406-8.86-1.39V66c-2.437.11-4.859.266-7.265.453v10.672a40.933 40.933 0 0 0-7.594 2.5c-3.844-1.5-8.234-2.39-13.25-2.39-.265 0-.515 0-.781.015V24.062a201.25 201.25 0 0 1 21.625-2.89v23.312c2.406-.187 4.828-.343 7.266-.453V20.72c3.14-.141 6.296-.204 9.484-.204 4.094-.015 8.141.11 12.141.344Zm26.015 3.172v54.75c-5.984-1.86-10.906-1.875-17.25 1.281l-.25-.218a17.639 17.639 0 0 0-4.125-2.5V21.156a201.245 201.245 0 0 1 21.625 2.875Zm15.485 107.313c.922-16.219-7-27.047-13.797-33.032 3.906-3.03 6-6.421 7.093-8.64 4.329-.969 6.188-5.531 6.36-7.906.359-5.063-2.656-3.47-3.625-2.282-.688.844-2.141 1.438-3.188 1.438-1.421 0-2.64-.25-3.906-.64V36.968c0-7.563 6.125-11.422 13.688-8.625 9.218 2.89 16.765 5.468 22.64 8.156 7.563 2.797 13.688 11.125 13.688 18.687v75.532c0 7.046-6.86 13.531-12.391 10.531-9.812-5.297-18.812-8.313-26.562-9.906Zm13.937-78.61c-1.859-.64-3.359.875-3.359 3.39v53.626c0 2.515 1.5 4.953 3.359 5.422 1.859.484 3.375-1.172 3.375-3.688V58.453c-.016-2.516-1.516-5.078-3.375-5.719Z" fill="#154734"/></g><defs><clipPath id="a"><path fill="#fff" transform="translate(0 14)" d="M0 0h200v171.188H0z"/></clipPath></defs></svg>