<svg width="200" height="200" xmlns="http://www.w3.org/2000/svg"><g fill="none"><path d="M165.975 162.789h-.903v1.055h1.116c.467 0 .731-.102.731-.629 0-.426-.538-.426-.944-.426" fill="#FFF"/><path d="M165.742 161.115c-1.755 0-3.064 1.278-3.064 3.084 0 1.785 1.309 3.063 3.064 3.063 1.725 0 3.063-1.278 3.063-3.063 0-1.806-1.338-3.084-3.063-3.084zm1.927 5.123h-1.014l-.933-1.765h-.65v1.765h-.933v-4.18h2.029c.964 0 1.623.173 1.623 1.279 0 .77-.395 1.085-1.136 1.136l1.014 1.765zM140.85 97.426l4.314 1.086.01-16.877-4.328-1.07.004 16.861" fill="#FFF"/><path d="M167.399 64.938l-.033-25.266-37.447-37.354H71.212L33.292 39.55l.051 25.343C14.886 71.243 0 78.842 0 78.842v96.918l11.125 7.234 14.693-8.866 6.772-13.134 38.695 37.579h58.426l30.036-30.029a7.369 7.369 0 0 0 5.995 3.053c2.77 0 5.171-1.51 6.44-3.748 7.939 5.986 27.276 21.56 27.276 21.56l.023-110.823s-19.057-9.475-32.082-13.648zM25.41 163.156l-3.49 7.33c-.583.322-9.726 5.86-10.7 6.468l-5.823-3.902V98.03l3.68-7.022c3.61-2.021 7.22-3.668 10.985-5.43l5.348 3.907v73.671zm16.523-61.423V77.764c2.416-.893 4.836-1.421 7.265-2.125l-.01 59.316c-2.461 1.042-4.902 1.799-7.255 2.939v-28.3c-2.087.713-4.33 1.895-4.33 1.895v28.897c-3.084 1.869-5.061 2.82-7.625 4.59l.013-63.241c2.413-.982 5.17-1.635 7.613-2.515v24.325l4.33-1.812zm31.147 30.689v11.899l14.482 14.288h25.946l14.183-14.323.021-11.943c8.869 1.743 16.544 4.066 24.089 7.262l-.003 14.687-28.366 28.312h-45.83l-28.61-28.18V139.63c7.17-3.09 15.544-5.517 24.088-7.207zm-20.188 1.136v-58.95c2.337-.627 4.822-1.08 7.161-1.617v58.243c-2.62.784-4.802 1.531-7.16 2.324zm39.032 14.49h17.18l8.145-8.153v-9.096c1.993.247 3.502.476 5.453.808v10.547l-11.495 11.4H89.655l-11.502-11.27v-10.802c1.95-.343 3.5-.39 5.494-.646v9.201l8.278 8.011zm12.453-12.245v-32.14h-9.926l-5.734-5.448v-35.26L94 57.762l12.85.001 5.269 5.168V84.35l-7.742.013v-18.59h-7.8l.025 28.937 9.727-.006 5.79 5.408v37.698l-5.23 5.29-12.877-.08-5.295-5.21v-23.624h7.692v21.617h7.968zm14.66-9.06l.006-49.74s-3.206-.361-5.305-.565l-.013-7.36c6.378.565 12.043 1.16 18.388 2.282v7.427c-2.663-.454-5.586-.866-5.586-.866v49.958c-2.378-.423-4.873-.758-7.49-1.136zm3.665-61.353c-1.983-.248-3.65-.493-5.611-.677v-3.92l-8.155-8.145H91.989l-8.353 8.144v4.012c-1.962.19-3.501.263-5.483.518v-6.765l11.653-11.412h21.451l11.446 11.412v6.833zm-39.774 9.384v47.71l-3.622 4.557c-4.13.634-7.335 1.155-11.614 2.185l-3.847-3.403V76.965l4.177-5.49c3.362-.629 6.714-1.03 10.046-1.474l4.86 4.773zm62.404 58.018v-26.488l-4.549-1.3v26.23c-2.275-.733-4.59-1.212-6.943-1.823l-.009-52.626 4.657-4.26c3.39.725 6.364 1.27 9.752 2.184l3.99 7.177v53.52c-2.248-.994-4.548-1.746-6.898-2.614zm6.45-61.876c-8.19-2.262-16.01-3.756-24.107-4.948v-9.542l-14.302-14.32H87.68l-14.584 14.32v9.604c-8.102 1.22-15.965 2.624-24.153 4.914V46.795l28.77-28.752h45.61l28.46 28.461v24.412zm13.959 97.3a4.001 4.001 0 0 1-4.018-4.017c0-2.242 1.776-4.038 4.018-4.038a4.011 4.011 0 0 1 4.017 4.038 4.007 4.007 0 0 1-4.017 4.017zm7.175-10.047c-3.224-2.74-6.7-5.11-10.62-7.462l.003 8.135-34.689 34.661H73.286L38.36 158.69v-8.297c-2.802 1.64-5.883 4.242-8.372 6.222v-6.532c4.134-3.026 8.168-5.506 13.932-8.307v14.807l31.611 31.469h49.966l31.378-31.647v-14.63c6.023 2.853 11.319 6.371 16.04 9.981v6.413zm1.178-67.242c-.457-.203-6.74-2.63-6.74-2.63l-.019 54.505c-2.277-1.476-4.477-2.667-7.017-3.939l-.014-53.032s-5.185-1.6-5.723-1.754v-7.672c6.441 1.969 13.253 3.946 19.513 6.607v7.915zm20.291 9.91c-3.527-1.998-10.334-5.379-10.334-5.379l-.014 26.675s7.324 3.888 10.348 5.777v9.144c-3.1-1.883-10.043-5.653-10.043-5.653v29.321s6.76 5.445 10.043 8.104v9.635c-4.813-4.081-12.691-10.17-17.93-14.154V83.951c6.003 2.693 12.269 5.08 17.93 8.426v8.46zm0-13.545c-10.465-5.837-26.644-12.006-37.51-15.058V43.99l-31.412-31.04H75.681L43.905 44.575v27.759C34.488 75.1 17.134 80.892 5.517 87.595v-5.67c10.565-5.691 21.94-9.856 32.844-13.345v-26.8L73.286 7.39h54.536l34.475 34.39.035 26.845c11.123 3.557 21.525 7.345 32.054 12.995v5.672z" fill="#FFF"/><path fill="#FFF" d="M70.883 121.105l4.905-.918V78.083l-4.905.659v42.363m-58.006 46.674l5.346-3.637.01-69.615-5.32 2.806-.036 70.446"/><path d="M78.153 131.482v10.802l11.502 11.27h21.553l11.495-11.4v-10.547a111.75 111.75 0 0 0-5.453-.808v9.096l-8.144 8.153h-17.18l-8.28-8.01v-9.202c-1.992.257-3.543.303-5.493.646m11.653-84.337L78.153 58.557v6.765c1.982-.255 3.521-.327 5.483-.518v-4.012l8.353-8.144h16.948l8.155 8.144v3.92c1.96.185 3.628.43 5.61.678v-6.833l-11.445-11.412h-21.45" fill="#A9AFB3"/><path d="M162.297 41.78L127.822 7.39H73.286L38.36 41.78v26.8c-10.904 3.489-22.28 7.654-32.844 13.345v5.67c11.617-6.703 28.971-12.494 38.388-15.261v-27.76L75.68 12.952h49.782l31.413 31.039v28.244c10.866 3.052 27.045 9.22 37.51 15.058V81.62c-10.529-5.65-20.93-9.438-32.054-12.995l-.035-26.846m-5.42 114.626l-31.378 31.647H75.532l-31.61-31.47v-14.806c-5.765 2.8-9.8 5.28-13.933 8.307v6.532c2.49-1.98 5.57-4.581 8.372-6.222v8.297l34.925 34.813h54.325l34.689-34.66-.003-8.136c3.92 2.352 7.396 4.722 10.62 7.462v-6.413c-4.722-3.61-10.018-7.128-16.04-9.98v14.63" fill="#A9AFB3"/><path d="M77.714 18.043l-28.77 28.752v24.15c8.187-2.29 16.05-3.695 24.152-4.915v-9.604l14.584-14.32h25.694l14.302 14.32v9.542c8.097 1.192 15.916 2.686 24.108 4.948V46.504l-28.461-28.46h-45.61m-28.72 136.381l28.61 28.179h45.83l28.366-28.312.003-14.687c-7.545-3.196-15.22-5.52-24.089-7.262l-.021 11.943-14.183 14.323H87.563L73.08 144.321v-11.899c-8.544 1.69-16.917 4.117-24.088 7.207v14.796" fill="#CE0F3E"/><path d="M165.742 160.161c-2.242 0-4.018 1.796-4.018 4.038a4.001 4.001 0 0 0 4.018 4.017 4.007 4.007 0 0 0 4.017-4.017 4.011 4.011 0 0 0-4.017-4.038zm0 7.101c-1.755 0-3.064-1.278-3.064-3.063 0-1.806 1.309-3.084 3.064-3.084 1.725 0 3.063 1.278 3.063 3.084 0 1.785-1.338 3.063-3.063 3.063z" fill="#231F20"/><path d="M167.79 163.337c0-1.106-.658-1.278-1.622-1.278h-2.03v4.18h.934v-1.766h.65l.933 1.765h1.014l-1.014-1.765c.74-.05 1.136-.365 1.136-1.136zm-1.602.507h-1.116v-1.055h.903c.406 0 .944 0 .944.426 0 .527-.264.629-.73.629zm10.269.463c5.238 3.984 13.116 10.073 17.93 14.154v-9.635a7353.663 7353.663 0 0 0-10.044-8.104v-29.321s6.942 3.77 10.043 5.653v-9.144c-3.024-1.889-10.348-5.777-10.348-5.777l.014-26.675s6.807 3.381 10.334 5.379v-8.46c-5.661-3.347-11.927-5.733-17.93-8.426v80.356M29.992 81.735l-.013 63.241c2.564-1.77 4.541-2.721 7.626-4.59V111.49s2.242-1.182 4.33-1.895v28.3c2.352-1.14 4.793-1.897 7.255-2.94l.009-59.315c-2.43.704-4.849 1.232-7.265 2.125v23.97l-4.33 1.811V79.22c-2.442.88-5.2 1.533-7.612 2.515m122.239.151l-3.99-7.177c-3.388-.914-6.361-1.459-9.752-2.184l-4.657 4.26.009 52.626c2.352.611 4.668 1.09 6.943 1.822v-26.23l4.55 1.301v26.488c2.349.868 4.65 1.62 6.897 2.614v-53.52zm-7.067 16.626l-4.314-1.086-.004-16.862 4.328 1.071-.01 16.877zM68.023 71.474l-4.177 5.491v48.858l3.847 3.403c4.28-1.03 7.483-1.551 11.614-2.185l3.622-4.556V74.774L78.07 70c-3.332.443-6.684.845-10.046 1.473zm7.765 48.713l-4.905.918V78.742l4.905-.66v42.105zm50.74-42.266s2.923.412 5.586.866V71.36c-6.345-1.122-12.01-1.717-18.388-2.283l.013 7.361c2.1.204 5.305.566 5.305.566l-.006 49.739c2.617.378 5.112.713 7.49 1.136V77.92m28.054 6.157c.538.154 5.723 1.754 5.723 1.754l.014 53.032c2.54 1.272 4.74 2.463 7.017 3.94l.02-54.506s6.282 2.427 6.739 2.63v-7.915c-6.26-2.66-13.072-4.638-19.513-6.607v7.672m-101.689-9.47v58.95c2.36-.792 4.541-1.539 7.161-2.323V72.991c-2.34.537-4.824.99-7.16 1.616m35.824 39.579v23.624l5.295 5.21 12.877.08 5.23-5.29v-37.698l-5.79-5.408-9.727.006-.024-28.937h7.799v18.59l7.742-.013V62.93l-5.268-5.167H94l-5.283 5.192v35.26l5.734 5.449h9.926v32.139H96.41v-21.617h-7.692M9.077 91.008L5.398 98.03v75.022l5.824 3.902c.973-.608 10.116-6.146 10.7-6.468l3.489-7.33V89.485l-5.348-3.907c-3.766 1.762-7.375 3.409-10.986 5.43zm9.146 73.134l-5.346 3.637.035-70.446 5.321-2.806-.01 69.615z" fill="#231F20"/></g></svg>