<svg width="200" height="200" xmlns="http://www.w3.org/2000/svg"><g fill="none" fill-rule="evenodd"><path d="M122.518 161.918s-.1 5.932-2.705 8.915c-1.81 12.815-14.679 17.749-25.227 12.348-5.209-2.668-10.541-9.086-11.363-18.751-10.396 3.795-15.817 16.636-16.68 18.906-1.404 3.69-2.757 1.977-4.727-.14-9.03-9.705-10.89-18.143-10.786-26.059-7.22 3.147-14.368 7.284-20.856 12.72-2.394 2.007-5.195-.733-3.24-3.171.243-.304 12.682-15.648 43.038-23.248-31.471 2.77-51.405 15.812-51.754 16.069-3.069 2.254-5.432-1.543-2.712-3.662 16.88-12.263 37.53-18.305 57.992-20.247-26.254-.057-51.746 12.07-52.578 12.47a3.06 3.06 0 0 1-.672.24C9.413 151.987 0 146.977 0 134.497V55.86c0-10.397 7.895-20.962 17.645-24.694 6.003-2.735 13.675-5.581 23.023-8.52 4.97-1.794 9.96-1.557 13.947.398.728-2.159 2.773-4.255 4.838-4.722 12.593-2.847 25.969-3.818 39.686-3.818 13.647 0 29.439 1.658 38.795 3.669 2.953.634 4.83 2.679 5.544 4.923 3.982-1.941 8.959-2.171 13.916-.382 9.348 2.936 17.02 5.571 23.022 8.301 9.73 3.724 17.646 14.215 17.646 24.634v75.44c0 5.685-3.598 13.146-9.336 16.28a133.973 133.973 0 0 1 7.537 5.45c2.5 1.941-.128 5.487-2.713 3.66-.016-.011-14.431-10.164-33.847-15.245 13.22 4.902 27.564 12.764 39.269 24.465 2.234 2.234-.658 5.387-3.078 3.355 0 0-7.784-6.536-20.193-13.021-6.801-3.555-14.942-7.069-23.916-9.494 11.564 5.278 25.13 13.768 38.005 27.426 2.17 2.303-.977 5.4-3.248 3.196 0 0-4.336-4.213-11.916-9.54-7.09-4.986-16.98-10.919-28.786-15.313-.767 7.755-2.755 17.058-7.17 23.474-1.153 1.674-2.914 1.58-3.882-.207-2.851-5.27-6.902-10.665-12.27-13.657" fill="#FFF" fill-rule="nonzero"/><path d="M98.67 141.7c-48.191-5.984-81.06 15.411-81.825 15.989 34.58-25.122 81.037-20.083 81.037-20.083-33.387-13.228-77.977 8.421-77.977 8.421 9.192-5.063 17.616-8.708 25.27-11.272 4.49-10.51 11.16-16.974 11.16-16.974s-5.659-.412-17.135 8.914c4.615-19.757 19.917-31.136 19.917-31.136s-8.01-3.775-9.436-8.378c-7.173 1.187-8.522-3.879-8.89-5.159.278.593 1.292 1.619 4.966 1.619 5.975 0 8.414-3.697 15.825-3.697 5.136 0 9.528.981 13.278 2.595 3.74-1.764 13.935-5.727 23.7-1.999 14.077-5.826 21.096 2.755 21.096 2.755s5.502-3.51 11.635-3.035c6.133.473 9.009 3.35 14.258 3.35 3.347 0 4.813-2.336 4.813-2.336s-.967 6.772-5.883 6.655c-.838 2.118-3.156 6.383-9.205 10.727 14.67 11.318 14.986 26.46 14.986 26.46s-3.983-5.343-9.01-6.703c5.51 5.51 6.258 12.014 6.345 14.672 12.342 1.74 29.02 7.363 47.27 21.533 0 0-32.098-22.682-65.643-17.8 14.96.473 46.3 8.662 68.139 30.493 0 0-31.759-26.713-69.556-26.24 11.182 2.204 36.906 9.61 60.327 34.457 0 0-17.741-17.27-44.337-26.37 0 0-.609 16.041-7.002 25.331-7.804-14.416-16.918-16.104-16.918-16.104s1.688 6.752-2.194 11.477c-1.097 6.076-5.4 12.996-14.59 12.752-17.451-.464-17.832-20.953-17.832-20.953-3.784.451-13.584 3.355-20.957 20.795-10.275-10.138-11.673-20.969-10.766-28.823-8.52 3.356-17.113 8.016-24.825 14.478 0 0 19.406-24.206 69.959-26.41" fill="#231F20" fill-rule="nonzero"/><path d="M131.195 157.598c.61 2.901.509 5.514.509 5.514s2.323-1.73 3.258-5.514h-3.767zm-40.703 0c.56 4.056 1.514 9.79 4.001 12.278 2.308 2.307 4.457 2.781 6.133 2.15 1.676-.632 2.778-2.308 6.291-2.308 5.975 0 7.651 1.676 7.651 1.676s-2.64 6.667-10.116 7.237c-7.102.54-15.945-3.692-17.754-21.031l3.794-.002zm-4.963 0c-.2 1.18-.127 1.926-.127 1.926-.939-.269-2.32-.82-3.57-1.926h3.697zm-12.558 0c-.49 1.83-.544 3.207-.544 3.207s-1.17-1.096-2.093-3.205l2.637-.002z" fill="#E3B97A"/><path d="M64.05 149.93c-1.554 3.448-1.423 6.893-1.423 6.893s-1.627-2.248-2.599-5.671c1.35-.437 2.692-.843 4.023-1.221zm70.912 7.668c.513-2.07.608-4.757-.32-8.11 2.624.886 4.3 5.974 4.3 5.974s.777-3.315 1.148-7.65c-2.301-.504-4.575-1.438-6.952-1.842-.633 1.841-1.79 3.682-4.944 5.51 1.656 1.518 2.536 3.902 3.001 6.117l3.767.001zm-64.628 0c-.912-2.08-1.583-5.15-.647-9.128.727-.17 1.448-.333 2.162-.487a167.269 167.269 0 0 1 14.465-2.107c.753 1.426 3.039 5.833 3.564 7.753.194.708.366 2.174.614 3.97h-3.794c-.1-.955-.178-1.949-.233-2.985a11.879 11.879 0 0 0-.936 2.989l-3.697-.005c-1.66-1.466-3.091-3.905-2.957-7.952-3.607 1.786-5.203 5.333-5.904 7.951l-2.637.001zm55.435-21.603a21.68 21.68 0 0 1-1.112 4.635c-.71 1.951-.468 2.274-1.633 3.767 2.283.226 4.347.569 6.573.886-.364.462-1.664 2.083-2.29 2.529l-11.634-4.298v-3.668s2.292-.984 4.634-3.846l5.462-.005zm-24.113 0c-.548 3.247-.205 6.39.888 8.984a178.38 178.38 0 0 0-12.938.593c.4 2.817 2.738 3.6 2.738 3.6 7.65-4.14 20.864-6.132 20.864-6.132l.423-3.19c-1.422-1.08-2.806-2.384-4.114-3.856h-7.861z" fill="#E3B97A"/><path d="M100.649 119.391c5.384-1.778 10.6-2.045 16.01-1.922-2.772-2.507-11.684-4.239-16.01 1.922zm19.658 16.604c1.212-1.476 2.436-3.458 3.364-6.066 0 0-.04-3.067-1.41-5.594 5.227 1.84 7.326 5.844 8.165 8.534-2.848.342-4.408.777-4.408.777l-.105.907c-.034.477-.081.958-.144 1.44l-5.462.002zm-10.79 0a38.289 38.289 0 0 1-2.973-3.822c-.354-2.362-2.794-8.53-9.213-4.252-4.606 3.07-5.038 3.98-5.038 3.98 6.264 1.598 9.453 3.602 9.453 3.602-.032.166-.062.33-.09.495l7.861-.003zm33.703-21.603c.399.88.592 1.398.592 1.398s-.86-.594-2.195-1.4l1.603.002zm-7.85 0c5.353 7.114 6.608 15.18 6.608 15.18s-1.773-2.403-4.396-2.877a40.067 40.067 0 0 1 1.64 5.795 64.856 64.856 0 0 0-4.737.047c-2.686-7.364-7.564-9.876-12.081-10.428l-.913-4.012s3.23.197 5.659-2.149c.443-.428.849-.961 1.217-1.556h7.002zm-17.348 0c.79 2.625 1.949 6.466 2.332 7.7-.956-.688-2.186-1.103-3.77-1.02 0 0 4.842 1.534 4.489 7.676-4.008-1.01-9.716.004-12.639.826-2.835-7.559-9.326-5.436-9.326-5.436l-2.585-9.223c-6.09.374-10.72.07-14.211-.527l35.71.004zm-42.879 0c2.567 3.368 6.797 7.735 12.015 8.733 4.95.947 7.81-.886 7.81-.886s.986 2.891 1.016 2.891c-2.524 1.143-5.348 2.934-8.204 5.814-8.556-1.473-20.986-1.765-37.126 2.577 2-5.717 6.208-13.086 15.058-19.125l9.431-.004zm-22.257 0c-1.541.609-2.368 1.082-2.368 1.082s.036-.39.167-1.082h2.2z" fill="#E3B97A"/><path d="M50.685 114.392c.654-3.449 3.683-14.392 16.556-22.026-4.536-4.535-10.092-5.943-13.77-6.346 2.05-.716 3.923-1.54 5.646-1.777 26.68-3.667 36.736 26.679 36.736 26.679S93.177 95.327 81.358 86.21c2.268-1.597 7.954-4.492 16.894-1.835 14.257 4.238 18.78 24.81 18.78 24.81s.131-17.102-13.088-25.995c1.743-.755 7.524-2.76 14.292 3.268 0 0 5.659-3.409 11.95-3.005 3.583.229 7.008 2.626 10.534 3.752-3.753 1.038-9.37 3.365-14.044 8.512 9.644 4.949 14.882 14.982 16.544 18.67l-1.603.004c-2.548-1.538-6.829-3.846-10.168-4.26a28.42 28.42 0 0 1 3.92 4.256l-7.002.004c2.02-3.266 2.924-8.4 2.924-8.4s-2.677 3.016-14.052 5.792l.783 2.604-35.71.004c-7.751-1.331-9.885-4.102-9.885-4.102s.976 1.822 2.716 4.105l-9.431-.003a49.878 49.878 0 0 1 4.25-2.584c-7.983-.422-13.977 1.356-17.077 2.583l-2.2.001" fill="#E3B97A"/><path d="M111.532 165.262c4.772-2.307 4.461-9.23 4.461-9.23 4.134 8.858-1.425 12.642-1.425 12.642s-4.142-1.263-7.809-1.105c-3.668.158-6.922 2.307-6.922 2.307s-6.404-1.443-2.506-14.081c0 0 .098 8.346 4.655 10.256l1.263-2.307 1.36 1.833 1.518-2.465 1.67 1.992 1.998-2.307 1.737 2.465zm11.319-16.66l-8.599-3.825c-10.835 1.677-15.144 4.237-15.144 4.237s-1.54 3.592 3.36 6.604c0 0-.064-5.854 2.01-7.795l2.184 1.417 1.83-2.54 2.186 1.359 1.713-2.067 2.244 1.594 1.949-.945s3.839 2.008 2.48 7.265c3.78-2.008 3.787-5.305 3.787-5.305zm-32.025-31.293l-3.036-.413s.728 3.668 4.87 4.711c-1.203-1.992-1.834-4.298-1.834-4.298zm30.92-4.712l2.465-.948s.158 3.893-2.466 4.773c.316-1.61 0-3.825 0-3.825z" fill="#FFF"/><path d="M166.639 53.194c-1.857-.642-3.363.878-3.363 3.394v53.568c0 2.516 1.506 4.944 3.363 5.424 1.858.48 3.363-1.173 3.363-3.689V58.913c0-2.517-1.505-5.078-3.363-5.72zm-13.931 78.515c.922-16.193-6.989-27.01-13.788-32.999 3.909-3.025 5.995-6.414 7.095-8.636 4.324-.971 6.18-5.528 6.35-7.891.361-5.065-2.662-3.463-3.63-2.279-.682.837-2.137 1.428-3.186 1.428-1.422 0-2.637-.246-3.902-.634V37.443c0-7.55 6.12-11.407 13.67-8.613 9.212 2.892 16.751 5.464 22.617 8.15 7.55 2.794 13.671 11.118 13.671 18.669v75.44c0 7.032-6.85 13.507-12.371 10.52-9.787-5.295-18.778-8.306-26.526-9.9zM137.259 24.52v54.685c-5.976-1.849-10.892-1.864-17.225 1.286l-.257-.213a17.528 17.528 0 0 0-4.121-2.502V21.65c7.367.581 14.58 1.547 21.603 2.87zm-25.991-3.17v55.16c-4.178-.669-8.61.007-12.748 1.594-3.001-1.02-6.008-1.403-8.856-1.387v-10.27c-2.435.109-4.855.26-7.257.453v10.666a41.477 41.477 0 0 0-7.592 2.492c-3.827-1.505-8.217-2.392-13.233-2.392-.263 0-.523.007-.779.02V24.558a202.837 202.837 0 0 1 21.604-2.892v23.29c2.402-.192 4.822-.342 7.257-.452v-23.29a211.704 211.704 0 0 1 21.604.136zM31.423 53.406c-1.857.642-3.363 3.202-3.363 5.72v54.286c0 2.516 1.506 4.036 3.363 3.394 1.858-.641 3.363-3.201 3.363-5.719V56.8c0-2.517-1.505-4.037-3.363-3.395zm5.558 72.771c2.706-11.583 9.416-22.257 18.15-30.225-2.603-1.612-5.283-3.638-6.842-6.33-5.125.251-8.364-2.371-9.688-6.968-.793-3.417.624-3.95 4.251-1.6.358.158 1.254.309 2.905.309 3.805 0 6.923-1.826 10.658-2.911V37.376c0-7.55-6.12-11.407-13.67-8.613-9.211 2.891-16.75 5.68-22.617 8.367-7.55 2.794-13.67 11.18-13.67 18.73v78.638c0 7.551 6.12 11.407 13.67 8.613 11.173-5.5 18.804-8.903 22.893-10.21.195-.072.389-.15.582-.228 1.876-4.13 4.054-7.61 5.976-10.294-5.164 2.734-9.609 6.625-14.114 10.286.706-3.021.632-3.755 1.516-6.489z" fill="#00674E"/><path d="M166.639 53.194c-1.857-.642-3.363.878-3.363 3.394v53.568c0 2.516 1.506 4.944 3.363 5.424 1.858.48 3.363-1.173 3.363-3.689V58.913c0-2.517-1.505-5.078-3.363-5.72zm-135.216.211c-1.857.642-3.363 3.202-3.363 5.72v54.286c0 2.516 1.506 4.036 3.363 3.394 1.858-.641 3.363-3.201 3.363-5.719V56.8c0-2.517-1.505-4.037-3.363-3.395z" fill="#FFF"/></g></svg>