<svg width="200" height="200" xmlns="http://www.w3.org/2000/svg"><g fill="#A80C30"><path d="M143.924 68.094h27.76v100.984l-27.76 31.253h-49.8l-28-31.132-.03-15.175-.031-8.49h-11.08l-28-32.337-.06-30.23V32.086l27.76-30.832 50.28.12 27.581 30.711v80.992l-27.761 32.458H95.87v18.125l5.721 6.383h36.552l5.78-6.383-.06-62.867.06-32.698zm-77.8.18H95.81V114.1h3.251l5.72-6.624V38.467l-5.72-6.383h-36.55l-5.781 6.383.06 44.5-.06 24.51 5.78 6.623h3.553v-.24l.06-45.585z"/><path d="M54.576 154.717h.834c.4 0 .671-.06.817-.177a.57.57 0 0 0 .217-.466.566.566 0 0 0-.105-.333.625.625 0 0 0-.291-.22c-.124-.049-.355-.073-.69-.073h-.782v1.269zm-.68 2.365v-4.195h1.45c.496 0 .855.038 1.077.115.221.078.397.213.53.404.131.193.197.397.197.614 0 .305-.11.571-.33.798-.221.226-.514.354-.878.382.148.062.268.137.358.222.17.166.378.445.623.834l.515.826h-.83l-.378-.664c-.297-.516-.532-.842-.706-.976-.125-.1-.307-.15-.547-.15h-.401v1.79h-.68zm1.722-5.411a3.34 3.34 0 0 0-1.604.421 3.03 3.03 0 0 0-1.22 1.205 3.283 3.283 0 0 0-.44 1.631c0 .561.144 1.1.433 1.614.288.516.691.918 1.21 1.206a3.292 3.292 0 0 0 1.62.431 3.3 3.3 0 0 0 1.621-.431 3.05 3.05 0 0 0 1.207-1.206c.287-.514.43-1.053.43-1.614 0-.565-.146-1.11-.438-1.631a3.004 3.004 0 0 0-1.22-1.205 3.344 3.344 0 0 0-1.6-.421zm0-.64c.654 0 1.293.168 1.917.503a3.57 3.57 0 0 1 1.458 1.44 3.96 3.96 0 0 1 .522 1.954c0 .67-.171 1.316-.514 1.935a3.63 3.63 0 0 1-1.443 1.443 3.958 3.958 0 0 1-1.94.514 3.958 3.958 0 0 1-1.942-.514 3.646 3.646 0 0 1-1.445-1.443 3.926 3.926 0 0 1-.517-1.935c0-.678.175-1.33.524-1.954a3.587 3.587 0 0 1 1.46-1.44 4.006 4.006 0 0 1 1.92-.503z"/></g></svg>