<svg width="200" height="200" xmlns="http://www.w3.org/2000/svg" xmlns:xlink="http://www.w3.org/1999/xlink"><defs><path id="a" d="M.073.137h199.873v103.448H.073z"/></defs><g fill="none" fill-rule="evenodd"><g transform="translate(0 48)"><mask id="b" fill="#fff"><use xlink:href="#a"/></mask><path d="M78.126 17.023h-36.28a23.323 23.323 0 0 0-21.9 15.299L0 86.772h52.524l-1.42 3.868L69.07 103.66h26.963a28.493 28.493 0 0 0 26.745-18.672l.372-1.011 4.1 2.796h30.867c9.94 0 18.816-6.226 22.204-15.573l19.625-54.176h-52.218l1.384-3.77L131.015.136h-27.222c-10.806 0-21.944 6.742-25.667 16.886" fill="#DF4F2A" mask="url(#b)"/></g><path d="m24.634 82.215-9.083 24.733 5.516 3.887h-6.943l-6.917 18.832h52.488l-2.593 7.057 13.564 9.83H96.21c9.912 0 18.76-6.216 22.12-15.54l2.448-6.794 7.988 5.447h29.262a18.544 18.544 0 0 0 17.436-12.226l17.267-47.65h-52.334l2.431-6.746-13.528-9.804H104.16A23.486 23.486 0 0 0 82.115 68.63l-.427 1.162H42.433a18.96 18.96 0 0 0-17.799 12.424" fill="#1A1919"/><path d="m132.743 75.383 3.817-10.39-8.962-6.495h-23.546c-7.58 0-14.356 4.729-16.97 11.845l-8.93 24.32 24.81 19.74-5.03 14.126H81.628l4.48-12.349H17.858l-3.032 8.232h52.397l-3.806 10.36 8.952 6.526h23.703c7.482 0 14.17-4.668 16.75-11.69l9.04-24.607-24.6-19.572 5.153-14.2h15.922l-4.504 12.645h68.232l3.054-8.491h-52.377" fill="#DF4F2A"/><path d="M45.513 80.328h17.858l-9.032 25.311H36.378l9.135-25.311Zm12.782 30.507c4.996 0 9.462-3.117 11.184-7.807l8.199-22.32-7.8-5.718H42.821a14.23 14.23 0 0 0-13.358 9.322l-7.618 20.734 7.899 5.79h28.551ZM156.495 114.682a6.926 6.926 0 0 1-6.518 4.588h-13.201l11.048-30.216h-14.37l-10.837 30.07 8.057 5.483h26.78a14.015 14.015 0 0 0 13.168-9.22l9.583-26.333h-14.527l-9.183 25.628M177.272 130.893h-.665v.903h.68c.345 0 .528-.183.528-.447 0-.304-.208-.456-.543-.456Zm.568 1.377.751 1.103h-.792l-.656-.991h-.536v.991h-.68v-3.08h1.368c.737 0 1.209.375 1.209 1.016 0 .504-.272.817-.664.96Zm-.712-2.93c-1.466 0-2.57 1.161-2.57 2.586 0 1.424 1.097 2.568 2.553 2.568 1.465 0 2.57-1.16 2.57-2.585s-1.097-2.569-2.553-2.569Zm-.017 5.475a2.878 2.878 0 0 1-2.889-2.89 2.905 2.905 0 0 1 2.906-2.905 2.878 2.878 0 0 1 2.89 2.889 2.905 2.905 0 0 1-2.907 2.906Z" fill="#DF4F2A"/></g></svg>