<?xml version="1.0" encoding="UTF-8" standalone="no"?>
<svg
   xmlns:dc="http://purl.org/dc/elements/1.1/"
   xmlns:cc="http://creativecommons.org/ns#"
   xmlns:rdf="http://www.w3.org/1999/02/22-rdf-syntax-ns#"
   xmlns:svg="http://www.w3.org/2000/svg"
   xmlns="http://www.w3.org/2000/svg"
   viewBox="0 0 1056 816"
   height="816"
   width="1056"
   xml:space="preserve"
   id="svg3713"
   version="1.1"><metadata
     id="metadata3719"><rdf:RDF><cc:Work
         rdf:about=""><dc:format>image/svg+xml</dc:format><dc:type
           rdf:resource="http://purl.org/dc/dcmitype/StillImage" /><dc:title></dc:title></cc:Work></rdf:RDF></metadata><defs
     id="defs3717"><clipPath
       id="clipPath3733"
       clipPathUnits="userSpaceOnUse"><path
         id="path3731"
         d="M 0,612 H 792 V 0 H 0 Z" /></clipPath></defs><g
     transform="matrix(1.3333333,0,0,-1.3333333,0,816)"
     id="g3721"><g
       transform="translate(373.7212,311.4521)"
       id="g3723"><path
         id="path3725"
         style="fill:#1f4b7f;fill-opacity:1;fill-rule:nonzero;stroke:none"
         d="m 0,0 9.586,-61.78 h 32.632 l -0.036,95.432 -74.657,11.219 64.056,33.226 -11.817,71.92 51.46,-51.399 64.591,35.115 L 102.726,67.429 153.832,15.749 84.837,24.914 270.454,-45.762 150.916,75.134 227.618,228.774 78.313,147.635 -39.332,265.133 -12.244,100.057 -159.893,23.471 Z" /></g><g
       id="g3727"><g
         clip-path="url(#clipPath3733)"
         id="g3729"><g
           transform="translate(224.7192,208.6836)"
           id="g3735"><path
             id="path3737"
             style="fill:#1f4b7f;fill-opacity:1;fill-rule:nonzero;stroke:none"
             d="m 0,0 4.768,33.948 h -55.046 c -13.344,0 -23.14,-8.731 -25.159,-23.069 l -2.962,-21.102 c -2.018,-14.338 5.326,-23.067 18.676,-23.067 h 27.688 l -3.239,-23.072 h -17.803 l 1.598,11.37 h -30.154 l -4.981,-35.428 h 57.18 c 13.349,0 23.169,8.894 25.167,23.071 l 3.311,23.561 c 1.989,14.176 -5.328,23.074 -18.682,23.074 h -27.021 l 2.374,17.7 -14.023,3.096 14.912,-0.031 h 17.452 L -27.359,0 Z" /></g><g
           transform="translate(242.667,242.6318)"
           id="g3739"><path
             id="path3741"
             style="fill:#1f4b7f;fill-opacity:1;fill-rule:nonzero;stroke:none"
             d="m 0,0 -6.022,-42.849 h 23.396 l 2.128,15.897 -13.991,3.086 14.917,-0.031 h 10.493 l -9.334,-66.414 h -8.899 l -3.383,-24.057 h 50.262 l 3.384,24.057 h -8.9 l 8.794,63.363 -13.962,3.082 14.913,-0.031 H 74.264 L 71.6,-42.849 H 95.001 L 101.024,0 Z" /></g><g
           transform="translate(372.8262,177.043)"
           id="g3743"><path
             id="path3745"
             style="fill:#1f4b7f;fill-opacity:1;fill-rule:nonzero;stroke:none"
             d="M 0,0 14.063,46.145 14.999,0 Z M 47.778,-24.722 43.326,65.589 H -8.586 L -38.58,-24.722 h -8.735 l -3.378,-24.057 h 38.069 l 6.527,24.733 -13.918,3.068 14.745,-0.033 0.014,0.076 h 19.285 l -0.284,-27.844 h 38.728 l 3.38,24.057 z" /></g><g
           transform="translate(500.3057,196.4883)"
           id="g3747"><path
             id="path3749"
             style="fill:#1f4b7f;fill-opacity:1;fill-rule:nonzero;stroke:none"
             d="m 0,0 h -17.145 l 2.58,19.139 -14.193,3.138 14.917,-0.031 H 3.124 Z m 32.57,5.434 2.479,17.64 c 2.01,14.338 -5.493,23.07 -18.842,23.07 h -68.395 l -3.359,-23.898 h 9.234 l -9.339,-66.413 h -9.235 l -3.376,-24.058 h 41.526 l 6.584,46.798 H -1.698 L -6.837,-58.01 c -0.976,-6.925 2.683,-10.215 11.089,-10.215 h 27.026 l 3.378,24.058 H 25.598 L 28,-27.031 c 1.395,9.895 -3.112,14.175 -14.305,16.651 11.415,1.476 17.549,6.423 18.875,15.814" /></g><g
           transform="translate(626.5937,208.6836)"
           id="g3751"><path
             id="path3753"
             style="fill:#1f4b7f;fill-opacity:1;fill-rule:nonzero;stroke:none"
             d="m 0,0 4.77,33.948 h -55.043 c -13.348,0 -23.145,-8.731 -25.163,-23.069 l -2.962,-21.102 c -2.018,-14.338 5.329,-23.067 18.675,-23.067 h 27.689 l -3.242,-23.072 h -17.8 l 1.597,11.37 h -30.159 l -4.974,-35.428 h 57.177 c 13.354,0 23.17,8.894 25.164,23.071 l 3.317,23.561 c 1.986,14.176 -5.328,23.074 -18.678,23.074 h -27.031 l 2.376,17.681 -14.097,3.115 14.918,-0.031 h 17.523 L -27.356,0 Z" /></g><g
           transform="translate(153.4985,103.6094)"
           id="g3755"><path
             id="path3757"
             style="fill:#1f4b7f;fill-opacity:1;fill-rule:nonzero;stroke:none"
             d="m 0,0 c -1.219,1.323 -2.927,2.089 -4.809,2.089 -2.297,0 -4.704,-1.325 -6.235,-3.695 -1.116,-1.707 -1.777,-4.006 -1.672,-6.689 0.139,-2.227 0.871,-3.832 1.951,-4.946 1.22,-1.287 2.926,-1.878 4.634,-1.878 2.577,0 4.912,1.357 6.374,3.761 1.045,1.74 1.604,4.004 1.5,6.69 C 1.636,-2.721 1.01,-1.151 0,0 m 3.1,-13.867 c -2.09,-2.962 -5.329,-4.808 -9.267,-4.808 -2.682,0 -5.365,0.906 -7.281,2.786 -1.776,1.708 -2.96,4.113 -3.101,7.318 -0.174,3.797 0.871,7.105 2.717,9.579 2.126,2.926 5.364,4.704 8.989,4.704 3.031,0 5.541,-1.047 7.42,-2.893 C 4.422,0.975 5.469,-1.466 5.608,-4.496 5.781,-8.082 4.842,-11.358 3.1,-13.867" /></g><g
           transform="translate(167.3203,98.5566)"
           id="g3759"><path
             id="path3761"
             style="fill:#1f4b7f;fill-opacity:1;fill-rule:nonzero;stroke:none"
             d="m 0,0 10.31,9.962 c 0.281,0.312 0.559,0.453 0.908,0.453 h 3.551 c 0.384,0 0.455,-0.346 0.141,-0.659 L 4.632,0.069 12.333,-12.578 c 0.207,-0.347 0.207,-0.73 -0.28,-0.73 H 8.848 c -0.383,0 -0.557,0.104 -0.729,0.418 l -6.377,10.139 -2.473,-2.3 -1.081,-7.839 c -0.07,-0.279 -0.244,-0.418 -0.453,-0.418 H -5.4 c -0.211,0 -0.348,0.139 -0.315,0.418 l 3.206,22.888 c 0.035,0.245 0.208,0.417 0.419,0.417 h 3.135 c 0.244,0 0.384,-0.172 0.346,-0.417 z" /></g><g
           transform="translate(196.5054,88.6982)"
           id="g3763"><path
             id="path3765"
             style="fill:#1f4b7f;fill-opacity:1;fill-rule:nonzero;stroke:none"
             d="M 0,0 C 0.174,0 0.349,-0.177 0.313,-0.384 L -0.07,-3.031 c -0.036,-0.28 -0.21,-0.418 -0.417,-0.418 h -13.587 c -0.211,0 -0.384,0.173 -0.314,0.418 l 3.203,22.887 c 0.038,0.246 0.211,0.417 0.421,0.417 h 3.135 c 0.243,0 0.383,-0.171 0.347,-0.417 L -10.07,0 Z" /></g><g
           transform="translate(204.9639,96.4668)"
           id="g3767"><path
             id="path3769"
             style="fill:#1f4b7f;fill-opacity:1;fill-rule:nonzero;stroke:none"
             d="m 0,0 h 11.671 l 0.277,2.09 c 0.106,0.728 0.211,1.429 0.211,2.124 0,1.601 -0.418,2.823 -1.186,3.692 C 10.103,8.849 8.814,9.304 7.142,9.304 5.016,9.304 3.415,8.604 2.299,7.349 1.292,6.199 0.663,4.599 0.384,2.683 Z m 10.139,-10.767 1.045,7.319 H -0.488 L -1.533,-10.8 c -0.033,-0.245 -0.207,-0.418 -0.454,-0.418 h -3.097 c -0.248,0 -0.384,0.173 -0.351,0.418 l 1.953,13.933 c 0.381,2.616 1.359,4.81 2.89,6.481 1.884,2.019 4.599,3.24 8.152,3.24 2.823,0 5.017,-0.802 6.481,-2.3 C 15.4,9.196 16.13,7.279 16.13,4.877 16.13,4.214 16.027,3.345 15.921,2.542 l -1.88,-13.309 c -0.036,-0.278 -0.243,-0.451 -0.454,-0.451 h -3.1 c -0.21,0 -0.384,0.173 -0.348,0.451" /></g><g
           transform="translate(243.7988,85.667)"
           id="g3771"><path
             id="path3773"
             style="fill:#1f4b7f;fill-opacity:1;fill-rule:nonzero;stroke:none"
             d="m 0,0 c -0.071,-0.279 -0.244,-0.418 -0.452,-0.418 h -3.137 c -0.206,0 -0.383,0.139 -0.313,0.418 l 1.359,9.753 h -11.95 L -15.85,0 c -0.072,-0.279 -0.245,-0.418 -0.455,-0.418 h -3.135 c -0.208,0 -0.347,0.139 -0.313,0.418 l 3.204,22.888 c 0.037,0.245 0.211,0.417 0.421,0.417 h 3.134 c 0.243,0 0.384,-0.172 0.348,-0.417 l -1.359,-9.686 h 11.948 l 1.36,9.686 c 0.036,0.245 0.209,0.417 0.453,0.417 h 3.137 c 0.209,0 0.348,-0.172 0.312,-0.417 z" /></g><g
           transform="translate(265.9819,103.6094)"
           id="g3775"><path
             id="path3777"
             style="fill:#1f4b7f;fill-opacity:1;fill-rule:nonzero;stroke:none"
             d="m 0,0 c -1.222,1.323 -2.926,2.089 -4.81,2.089 -2.296,0 -4.703,-1.325 -6.234,-3.695 -1.116,-1.707 -1.777,-4.006 -1.673,-6.689 0.139,-2.227 0.871,-3.832 1.952,-4.946 1.218,-1.287 2.924,-1.878 4.633,-1.878 2.577,0 4.91,1.357 6.376,3.761 1.045,1.74 1.602,4.004 1.497,6.69 C 1.635,-2.721 1.008,-1.151 0,0 m 3.102,-13.867 c -2.094,-2.962 -5.332,-4.808 -9.269,-4.808 -2.681,0 -5.365,0.906 -7.281,2.786 -1.776,1.708 -2.961,4.113 -3.101,7.318 -0.173,3.797 0.872,7.105 2.717,9.579 2.126,2.926 5.367,4.704 8.989,4.704 3.031,0 5.539,-1.047 7.42,-2.893 1.845,-1.844 2.89,-4.285 3.031,-7.315 0.174,-3.586 -0.765,-6.862 -2.506,-9.371" /></g><g
           transform="translate(296.665,108.5547)"
           id="g3779"><path
             id="path3781"
             style="fill:#1f4b7f;fill-opacity:1;fill-rule:nonzero;stroke:none"
             d="M 0,0 C 0.104,0.209 0.245,0.417 0.522,0.417 H 3.379 C 3.589,0.417 3.727,0.245 3.727,0 v -22.888 c 0,-0.279 -0.245,-0.418 -0.452,-0.418 H 0.382 c -0.208,0 -0.347,0.139 -0.347,0.418 v 16.336 l -7.7,-14.767 c -0.139,-0.281 -0.278,-0.349 -0.523,-0.349 h -3.099 c -0.174,0 -0.315,0.105 -0.348,0.349 l -3.066,14.804 -5.087,-16.408 c -0.071,-0.21 -0.244,-0.383 -0.455,-0.383 h -2.89 c -0.244,0 -0.418,0.173 -0.314,0.418 L -15.99,0 c 0.069,0.245 0.244,0.417 0.45,0.417 h 2.754 c 0.211,0 0.28,-0.208 0.348,-0.417 l 3.483,-17.036 z" /></g><g
           transform="translate(309.855,96.4668)"
           id="g3783"><path
             id="path3785"
             style="fill:#1f4b7f;fill-opacity:1;fill-rule:nonzero;stroke:none"
             d="m 0,0 h 11.672 l 0.278,2.09 c 0.106,0.728 0.21,1.429 0.21,2.124 0,1.601 -0.418,2.823 -1.185,3.692 C 10.103,8.849 8.816,9.304 7.144,9.304 5.018,9.304 3.415,8.604 2.301,7.349 1.291,6.199 0.665,4.599 0.384,2.683 Z m 10.14,-10.767 1.045,7.319 H -0.487 L -1.532,-10.8 c -0.034,-0.245 -0.21,-0.418 -0.453,-0.418 h -3.101 c -0.244,0 -0.382,0.173 -0.348,0.418 l 1.953,13.933 c 0.382,2.616 1.358,4.81 2.89,6.481 1.882,2.019 4.6,3.24 8.151,3.24 2.824,0 5.017,-0.802 6.482,-2.3 1.359,-1.358 2.089,-3.275 2.089,-5.677 0,-0.663 -0.104,-1.532 -0.209,-2.335 l -1.88,-13.309 c -0.037,-0.278 -0.243,-0.451 -0.453,-0.451 h -3.102 c -0.208,0 -0.384,0.173 -0.347,0.451" /></g><g
           transform="translate(338.9316,96.2217)"
           id="g3787"><path
             id="path3789"
             style="fill:#1f4b7f;fill-opacity:1;fill-rule:nonzero;stroke:none"
             d="m 0,0 c -0.033,7.388 5.958,13.064 13.692,13.064 2.648,0 4.74,-0.455 6.272,-1.254 0.314,-0.174 0.314,-0.381 0.173,-0.626 L 18.746,8.711 C 18.57,8.432 18.395,8.432 18.117,8.536 16.793,9.163 15.191,9.549 13.378,9.549 8.084,9.549 4.042,5.33 4.076,0.206 c 0,-5.26 3.414,-7.977 7.735,-7.977 2.124,0 3.624,0.354 4.949,1.046 0.31,0.108 0.45,0.108 0.557,-0.135 l 0.975,-2.545 c 0.07,-0.245 0,-0.452 -0.244,-0.56 -1.951,-0.973 -4.041,-1.355 -6.551,-1.355 C 5.472,-11.32 0,-7.979 0,0" /></g><g
           transform="translate(363.9023,85.667)"
           id="g3791"><path
             id="path3793"
             style="fill:#1f4b7f;fill-opacity:1;fill-rule:nonzero;stroke:none"
             d="m 0,0 c -0.069,-0.279 -0.244,-0.418 -0.453,-0.418 h -3.135 c -0.209,0 -0.348,0.139 -0.313,0.418 l 3.204,22.888 c 0.037,0.245 0.21,0.417 0.419,0.417 h 3.135 c 0.244,0 0.384,-0.172 0.348,-0.417 z" /></g><g
           transform="translate(388.8437,108.9717)"
           id="g3795"><path
             id="path3797"
             style="fill:#1f4b7f;fill-opacity:1;fill-rule:nonzero;stroke:none"
             d="M 0,0 C 0.244,0 0.418,-0.208 0.384,-0.453 L 0,-3.03 c -0.034,-0.243 -0.244,-0.417 -0.488,-0.417 h -7.349 l -2.79,-19.858 c -0.034,-0.279 -0.245,-0.418 -0.488,-0.418 h -3.065 c -0.209,0 -0.383,0.139 -0.347,0.418 l 2.785,19.858 h -7.385 c -0.242,0 -0.383,0.174 -0.383,0.417 l 0.383,2.577 C -19.056,-0.172 -18.85,0 -18.604,0 Z" /></g><g
           transform="translate(407.0195,108.5186)"
           id="g3799"><path
             id="path3801"
             style="fill:#1f4b7f;fill-opacity:1;fill-rule:nonzero;stroke:none"
             d="m 0,0 c 0.213,0.281 0.421,0.453 0.77,0.453 h 3.516 c 0.454,0 0.489,-0.346 0.175,-0.697 l -10.033,-12.888 -1.36,-9.72 C -7,-23.097 -7.174,-23.27 -7.42,-23.27 h -3.062 c -0.247,0 -0.42,0.173 -0.352,0.418 l 1.36,9.72 -6.691,12.888 c -0.173,0.351 -0.101,0.697 0.384,0.697 h 3.275 c 0.383,0 0.524,-0.141 0.664,-0.453 l 4.737,-9.439 z" /></g><g
           transform="translate(437.877,108.5186)"
           id="g3803"><path
             id="path3805"
             style="fill:#1f4b7f;fill-opacity:1;fill-rule:nonzero;stroke:none"
             d="M 0,0 C 0.068,0.281 0.246,0.453 0.452,0.453 H 3.589 C 3.833,0.453 3.971,0.281 3.937,0 L 1.985,-13.936 c -0.382,-2.577 -1.358,-4.804 -2.89,-6.446 -1.88,-2.051 -4.599,-3.235 -8.153,-3.235 -2.823,0 -5.017,0.799 -6.479,2.262 -1.36,1.358 -2.09,3.312 -2.09,5.678 0,0.7 0.069,1.535 0.21,2.37 L -15.537,0 c 0.033,0.281 0.242,0.453 0.452,0.453 h 3.103 c 0.208,0 0.382,-0.172 0.343,-0.453 l -1.844,-12.89 c -0.102,-0.695 -0.173,-1.392 -0.173,-2.087 0,-1.605 0.418,-2.858 1.184,-3.694 0.872,-0.977 2.16,-1.429 3.831,-1.429 2.128,0 3.73,0.731 4.81,1.986 1.046,1.149 1.671,2.716 1.951,4.634 z" /></g><g
           transform="translate(462.5684,108.5186)"
           id="g3807"><path
             id="path3809"
             style="fill:#1f4b7f;fill-opacity:1;fill-rule:nonzero;stroke:none"
             d="M 0,0 C 0,0.281 0.245,0.453 0.45,0.453 H 3.309 C 3.552,0.453 3.692,0.281 3.659,0 L 0.417,-22.852 C 0.383,-23.097 0.208,-23.27 -0.07,-23.27 h -2.579 c -0.348,0 -0.557,0.069 -0.765,0.452 l -9.512,16.827 -2.335,-16.861 c -0.068,-0.314 -0.242,-0.418 -0.486,-0.418 h -2.858 c -0.207,0 -0.384,0.139 -0.312,0.418 L -15.747,0 c 0.069,0.312 0.278,0.453 0.486,0.453 h 2.65 c 0.382,0 0.556,-0.141 0.733,-0.453 l 9.471,-16.86 z" /></g><g
           transform="translate(471.9316,85.667)"
           id="g3811"><path
             id="path3813"
             style="fill:#1f4b7f;fill-opacity:1;fill-rule:nonzero;stroke:none"
             d="m 0,0 c -0.07,-0.279 -0.244,-0.418 -0.456,-0.418 h -3.133 c -0.208,0 -0.349,0.139 -0.312,0.418 l 3.203,22.888 c 0.036,0.245 0.212,0.417 0.419,0.417 h 3.136 c 0.244,0 0.382,-0.172 0.349,-0.417 z" /></g><g
           transform="translate(487.5361,85.5947)"
           id="g3815"><path
             id="path3817"
             style="fill:#1f4b7f;fill-opacity:1;fill-rule:nonzero;stroke:none"
             d="m 0,0 c -0.174,-0.346 -0.348,-0.451 -0.662,-0.451 h -3.032 c -0.348,0 -0.522,0.105 -0.558,0.451 l -5.4,22.753 c -0.068,0.346 0.037,0.624 0.422,0.624 h 2.993 c 0.348,0 0.556,-0.172 0.627,-0.486 L -1.568,4.426 h 0.07 l 9.13,18.465 c 0.138,0.314 0.345,0.486 0.694,0.486 h 2.998 c 0.344,0 0.449,-0.278 0.276,-0.624 z" /></g><g
           transform="translate(517.5225,105.9053)"
           id="g3819"><path
             id="path3821"
             style="fill:#1f4b7f;fill-opacity:1;fill-rule:nonzero;stroke:none"
             d="m 0,0 c -0.034,-0.242 -0.242,-0.381 -0.417,-0.381 h -11.428 l -0.941,-6.655 h 9.477 c 0.209,0 0.35,-0.175 0.35,-0.384 l -0.422,-2.647 c -0.033,-0.243 -0.242,-0.418 -0.45,-0.418 h -9.442 l -0.942,-6.722 H -1.53 c 0.207,0 0.38,-0.177 0.346,-0.384 l -0.385,-2.647 c -0.033,-0.28 -0.243,-0.418 -0.452,-0.418 H -18.22 c -0.209,0 -0.347,0.173 -0.315,0.418 l 3.207,22.887 c 0.036,0.209 0.242,0.417 0.453,0.417 H 0.07 c 0.208,0 0.349,-0.171 0.315,-0.417 z" /></g><g
           transform="translate(533.5049,104.5479)"
           id="g3823"><path
             id="path3825"
             style="fill:#1f4b7f;fill-opacity:1;fill-rule:nonzero;stroke:none"
             d="m 0,0 c -0.836,0.733 -2.091,1.115 -3.833,1.115 h -3.484 l -1.184,-8.396 h 3.868 c 1.811,0 3.447,0.384 4.528,1.359 0.803,0.698 1.254,1.671 1.254,3.1 C 1.149,-1.604 0.8,-0.661 0,0 M 3.309,-7.593 C 2.229,-8.813 0.766,-9.544 -0.768,-9.965 L 3.9,-18.742 c 0.174,-0.279 0.106,-0.557 -0.209,-0.557 H 0.348 c -0.244,0 -0.487,0.104 -0.662,0.418 l -4.356,8.324 h -4.282 l -1.151,-8.324 c -0.072,-0.279 -0.278,-0.418 -0.488,-0.418 h -3.102 c -0.209,0 -0.38,0.139 -0.312,0.418 l 3.169,22.852 c 0.071,0.281 0.245,0.453 0.455,0.453 h 6.443 c 2.995,0 5.124,-0.732 6.55,-1.845 1.636,-1.288 2.372,-3.139 2.372,-5.124 0,-2.191 -0.665,-3.865 -1.675,-5.048" /></g><g
           transform="translate(555.583,104.8604)"
           id="g3827"><path
             id="path3829"
             style="fill:#1f4b7f;fill-opacity:1;fill-rule:nonzero;stroke:none"
             d="m 0,0 c -0.139,-0.207 -0.312,-0.207 -0.523,-0.068 -1.184,0.664 -2.891,1.149 -4.388,1.149 -1.533,0 -2.718,-0.278 -3.519,-0.905 -0.628,-0.452 -0.975,-1.185 -0.975,-2.092 0,-1.007 0.625,-1.812 1.602,-2.543 2.02,-1.46 4.596,-2.123 6.656,-3.901 1.18,-1.114 2.09,-2.474 2.09,-4.596 0,-2.057 -0.871,-3.869 -2.545,-5.158 -1.534,-1.152 -3.799,-1.845 -6.656,-1.845 -3.099,0 -5.362,0.766 -7.175,2.122 -0.243,0.176 -0.243,0.352 -0.071,0.594 l 1.533,2.472 c 0.174,0.209 0.385,0.246 0.593,0.037 1.253,-1.012 2.822,-1.848 5.227,-1.848 1.462,0 2.716,0.243 3.623,0.803 0.872,0.523 1.392,1.355 1.392,2.472 0,1.081 -0.557,1.812 -1.635,2.612 -2.059,1.533 -4.775,2.23 -6.727,4.146 -1.078,1.013 -1.88,2.335 -1.88,4.216 0,2.197 0.836,3.8 2.264,4.914 1.601,1.252 3.972,1.845 6.689,1.845 2.301,0 4.599,-0.593 5.888,-1.288 0.21,-0.141 0.244,-0.315 0.105,-0.557 z" /></g><g
           transform="translate(563.6572,85.667)"
           id="g3831"><path
             id="path3833"
             style="fill:#1f4b7f;fill-opacity:1;fill-rule:nonzero;stroke:none"
             d="m 0,0 c -0.068,-0.279 -0.242,-0.418 -0.452,-0.418 h -3.137 c -0.208,0 -0.345,0.139 -0.312,0.418 l 3.204,22.888 c 0.036,0.245 0.21,0.417 0.422,0.417 h 3.132 c 0.243,0 0.383,-0.172 0.349,-0.417 z" /></g><g
           transform="translate(588.5996,108.9717)"
           id="g3835"><path
             id="path3837"
             style="fill:#1f4b7f;fill-opacity:1;fill-rule:nonzero;stroke:none"
             d="M 0,0 C 0.242,0 0.417,-0.208 0.383,-0.453 L 0,-3.03 c -0.034,-0.243 -0.244,-0.417 -0.489,-0.417 h -7.349 l -2.79,-19.858 c -0.032,-0.279 -0.244,-0.418 -0.487,-0.418 h -3.066 c -0.208,0 -0.382,0.139 -0.348,0.418 l 2.785,19.858 h -7.381 c -0.245,0 -0.386,0.174 -0.386,0.417 l 0.386,2.577 C -19.057,-0.172 -18.85,0 -18.606,0 Z" /></g><g
           transform="translate(606.7783,108.5186)"
           id="g3839"><path
             id="path3841"
             style="fill:#1f4b7f;fill-opacity:1;fill-rule:nonzero;stroke:none"
             d="m 0,0 c 0.207,0.281 0.419,0.453 0.765,0.453 h 3.517 c 0.454,0 0.488,-0.346 0.176,-0.697 l -10.033,-12.888 -1.361,-9.72 c -0.068,-0.245 -0.242,-0.418 -0.484,-0.418 h -3.066 c -0.243,0 -0.421,0.173 -0.349,0.418 l 1.356,9.72 -6.689,12.888 c -0.174,0.351 -0.102,0.697 0.383,0.697 h 3.275 c 0.384,0 0.525,-0.141 0.662,-0.453 l 4.738,-9.439 z" /></g></g></g></g></svg>