<svg xmlns="http://www.w3.org/2000/svg" height="816" width="1056" xml:space="preserve"><defs><clipPath id="a" clipPathUnits="userSpaceOnUse"><path d="M0 612h792V0H0Z"/></clipPath></defs><path style="fill:#1f4b7f;fill-opacity:1;fill-rule:nonzero;stroke:none" d="m0 0 9.586-61.78h32.632l-.036 95.432-74.657 11.219 64.056 33.226-11.817 71.92 51.46-51.399 64.591 35.115-33.089-66.304 51.106-51.68-68.995 9.165 185.617-70.676L150.916 75.134l76.702 153.64-149.305-81.139-117.645 117.498 27.088-165.076-147.649-76.586Z" transform="matrix(1.33333 0 0 -1.33333 498.295 400.73)"/><g clip-path="url(#a)" transform="matrix(1.33333 0 0 -1.33333 0 816)"><path style="fill:#1f4b7f;fill-opacity:1;fill-rule:nonzero;stroke:none" d="m0 0 4.768 33.948h-55.046c-13.344 0-23.14-8.731-25.159-23.069l-2.962-21.102c-2.018-14.338 5.326-23.067 18.676-23.067h27.688l-3.239-23.072h-17.803l1.598 11.37h-30.154l-4.981-35.428h57.18c13.349 0 23.169 8.894 25.167 23.071l3.311 23.561c1.989 14.176-5.328 23.074-18.682 23.074h-27.021l2.374 17.7-14.023 3.096 14.912-.031h17.452L-27.359 0Z" transform="translate(224.72 208.684)"/><path style="fill:#1f4b7f;fill-opacity:1;fill-rule:nonzero;stroke:none" d="m0 0-6.022-42.849h23.396l2.128 15.897-13.991 3.086 14.917-.031h10.493l-9.334-66.414h-8.899l-3.383-24.057h50.262l3.384 24.057h-8.9l8.794 63.363-13.962 3.082 14.913-.031h10.468L71.6-42.849h23.401L101.024 0Z" transform="translate(242.667 242.632)"/><path style="fill:#1f4b7f;fill-opacity:1;fill-rule:nonzero;stroke:none" d="m0 0 14.063 46.145L14.999 0Zm47.778-24.722-4.452 90.311H-8.586L-38.58-24.722h-8.735l-3.378-24.057h38.069l6.527 24.733-13.918 3.068 14.745-.033.014.076h19.285l-.284-27.844h38.728l3.38 24.057z" transform="translate(372.826 177.043)"/><path style="fill:#1f4b7f;fill-opacity:1;fill-rule:nonzero;stroke:none" d="M0 0h-17.145l2.58 19.139-14.193 3.138 14.917-.031H3.124Zm32.57 5.434 2.479 17.64c2.01 14.338-5.493 23.07-18.842 23.07h-68.395l-3.359-23.898h9.234l-9.339-66.413h-9.235l-3.376-24.058h41.526l6.584 46.798h18.455L-6.837-58.01c-.976-6.925 2.683-10.215 11.089-10.215h27.026l3.378 24.058h-9.058L28-27.031c1.395 9.895-3.112 14.175-14.305 16.651C25.11-8.904 31.244-3.957 32.57 5.434" transform="translate(500.306 196.488)"/><path style="fill:#1f4b7f;fill-opacity:1;fill-rule:nonzero;stroke:none" d="m0 0 4.77 33.948h-55.043c-13.348 0-23.145-8.731-25.163-23.069l-2.962-21.102c-2.018-14.338 5.329-23.067 18.675-23.067h27.689l-3.242-23.072h-17.8l1.597 11.37h-30.159l-4.974-35.428h57.177c13.354 0 23.17 8.894 25.164 23.071l3.317 23.561c1.986 14.176-5.328 23.074-18.678 23.074h-27.031l2.376 17.681-14.097 3.115 14.918-.031h17.523L-27.356 0Z" transform="translate(626.594 208.684)"/><path style="fill:#1f4b7f;fill-opacity:1;fill-rule:nonzero;stroke:none" d="M0 0c-1.219 1.323-2.927 2.089-4.809 2.089-2.297 0-4.704-1.325-6.235-3.695-1.116-1.707-1.777-4.006-1.672-6.689.139-2.227.871-3.832 1.951-4.946 1.22-1.287 2.926-1.878 4.634-1.878 2.577 0 4.912 1.357 6.374 3.761 1.045 1.74 1.604 4.004 1.5 6.69C1.636-2.721 1.01-1.151 0 0m3.1-13.867c-2.09-2.962-5.329-4.808-9.267-4.808-2.682 0-5.365.906-7.281 2.786-1.776 1.708-2.96 4.113-3.101 7.318-.174 3.797.871 7.105 2.717 9.579 2.126 2.926 5.364 4.704 8.989 4.704 3.031 0 5.541-1.047 7.42-2.893C4.422.975 5.469-1.466 5.608-4.496c.173-3.586-.766-6.862-2.508-9.371" transform="translate(153.499 103.61)"/><path style="fill:#1f4b7f;fill-opacity:1;fill-rule:nonzero;stroke:none" d="m0 0 10.31 9.962c.281.312.559.453.908.453h3.551c.384 0 .455-.346.141-.659L4.632.069l7.701-12.647c.207-.347.207-.73-.28-.73H8.848c-.383 0-.557.104-.729.418L1.742-2.751l-2.473-2.3-1.081-7.839c-.07-.279-.244-.418-.453-.418H-5.4c-.211 0-.348.139-.315.418l3.206 22.888c.035.245.208.417.419.417h3.135c.244 0 .384-.172.346-.417z" transform="translate(167.32 98.557)"/><path style="fill:#1f4b7f;fill-opacity:1;fill-rule:nonzero;stroke:none" d="M0 0a.333.333 0 0 0 .313-.384L-.07-3.031c-.036-.28-.21-.418-.417-.418h-13.587c-.211 0-.384.173-.314.418l3.203 22.887c.038.246.211.417.421.417h3.135c.243 0 .383-.171.347-.417L-10.07 0Z" transform="translate(196.505 88.698)"/><path style="fill:#1f4b7f;fill-opacity:1;fill-rule:nonzero;stroke:none" d="M0 0h11.671l.277 2.09c.106.728.211 1.429.211 2.124 0 1.601-.418 2.823-1.186 3.692-.87.943-2.159 1.398-3.831 1.398-2.126 0-3.727-.7-4.843-1.955C1.292 6.199.663 4.599.384 2.683Zm10.139-10.767 1.045 7.319H-.488L-1.533-10.8c-.033-.245-.207-.418-.454-.418h-3.097c-.248 0-.384.173-.351.418l1.953 13.933c.381 2.616 1.359 4.81 2.89 6.481 1.884 2.019 4.599 3.24 8.152 3.24 2.823 0 5.017-.802 6.481-2.3C15.4 9.196 16.13 7.279 16.13 4.877c0-.663-.103-1.532-.209-2.335l-1.88-13.309c-.036-.278-.243-.451-.454-.451h-3.1c-.21 0-.384.173-.348.451" transform="translate(204.964 96.467)"/><path style="fill:#1f4b7f;fill-opacity:1;fill-rule:nonzero;stroke:none" d="M0 0c-.071-.279-.244-.418-.452-.418h-3.137c-.206 0-.383.139-.313.418l1.359 9.753h-11.95L-15.85 0c-.072-.279-.245-.418-.455-.418h-3.135c-.208 0-.347.139-.313.418l3.204 22.888c.037.245.211.417.421.417h3.134c.243 0 .384-.172.348-.417l-1.359-9.686h11.948l1.36 9.686c.036.245.209.417.453.417h3.137c.209 0 .348-.172.312-.417z" transform="translate(243.799 85.667)"/><path style="fill:#1f4b7f;fill-opacity:1;fill-rule:nonzero;stroke:none" d="M0 0a6.482 6.482 0 0 1-4.81 2.089c-2.296 0-4.703-1.325-6.234-3.695-1.116-1.707-1.777-4.006-1.673-6.689.139-2.227.871-3.832 1.952-4.946 1.218-1.287 2.924-1.878 4.633-1.878 2.577 0 4.91 1.357 6.376 3.761 1.045 1.74 1.602 4.004 1.497 6.69C1.635-2.721 1.008-1.151 0 0m3.102-13.867c-2.094-2.962-5.332-4.808-9.269-4.808-2.681 0-5.365.906-7.281 2.786-1.776 1.708-2.961 4.113-3.101 7.318-.173 3.797.872 7.105 2.717 9.579 2.126 2.926 5.367 4.704 8.989 4.704 3.031 0 5.539-1.047 7.42-2.893C4.422.975 5.467-1.466 5.608-4.496c.174-3.586-.765-6.862-2.506-9.371" transform="translate(265.982 103.61)"/><path style="fill:#1f4b7f;fill-opacity:1;fill-rule:nonzero;stroke:none" d="M0 0c.104.209.245.417.522.417h2.857c.21 0 .348-.172.348-.417v-22.888c0-.279-.245-.418-.452-.418H.382c-.208 0-.347.139-.347.418v16.336l-7.7-14.767c-.139-.281-.278-.349-.523-.349h-3.099c-.174 0-.315.105-.348.349l-3.066 14.804-5.087-16.408c-.071-.21-.244-.383-.455-.383h-2.89c-.244 0-.418.173-.314.418L-15.99 0c.069.245.244.417.45.417h2.754c.211 0 .28-.208.348-.417l3.483-17.036z" transform="translate(296.665 108.555)"/><path style="fill:#1f4b7f;fill-opacity:1;fill-rule:nonzero;stroke:none" d="M0 0h11.672l.278 2.09c.106.728.21 1.429.21 2.124 0 1.601-.418 2.823-1.185 3.692-.872.943-2.159 1.398-3.831 1.398-2.126 0-3.729-.7-4.843-1.955C1.291 6.199.665 4.599.384 2.683Zm10.14-10.767 1.045 7.319H-.487L-1.532-10.8c-.034-.245-.21-.418-.453-.418h-3.101c-.244 0-.382.173-.348.418l1.953 13.933c.382 2.616 1.358 4.81 2.89 6.481 1.882 2.019 4.6 3.24 8.151 3.24 2.824 0 5.017-.802 6.482-2.3 1.359-1.358 2.089-3.275 2.089-5.677 0-.663-.104-1.532-.209-2.335l-1.88-13.309c-.037-.278-.243-.451-.453-.451h-3.102c-.208 0-.384.173-.347.451" transform="translate(309.855 96.467)"/><path style="fill:#1f4b7f;fill-opacity:1;fill-rule:nonzero;stroke:none" d="M0 0c-.033 7.388 5.958 13.064 13.692 13.064 2.648 0 4.74-.455 6.272-1.254.314-.174.314-.381.173-.626l-1.391-2.473c-.176-.279-.351-.279-.629-.175-1.324.627-2.926 1.013-4.739 1.013-5.294 0-9.336-4.219-9.302-9.343 0-5.26 3.414-7.977 7.735-7.977 2.124 0 3.624.354 4.949 1.046.31.108.45.108.557-.135l.975-2.545c.07-.245 0-.452-.244-.56-1.951-.973-4.041-1.355-6.551-1.355C5.472-11.32 0-7.979 0 0" transform="translate(338.932 96.222)"/><path style="fill:#1f4b7f;fill-opacity:1;fill-rule:nonzero;stroke:none" d="M0 0c-.069-.279-.244-.418-.453-.418h-3.135c-.209 0-.348.139-.313.418l3.204 22.888c.037.245.21.417.419.417h3.135c.244 0 .384-.172.348-.417z" transform="translate(363.902 85.667)"/><path style="fill:#1f4b7f;fill-opacity:1;fill-rule:nonzero;stroke:none" d="M0 0a.387.387 0 0 0 .384-.453L0-3.03a.488.488 0 0 0-.488-.417h-7.349l-2.79-19.858c-.034-.279-.245-.418-.488-.418h-3.065c-.209 0-.383.139-.347.418l2.785 19.858h-7.385c-.242 0-.383.174-.383.417l.383 2.577c.071.281.277.453.523.453Z" transform="translate(388.844 108.972)"/><path style="fill:#1f4b7f;fill-opacity:1;fill-rule:nonzero;stroke:none" d="M0 0c.213.281.421.453.77.453h3.516c.454 0 .489-.346.175-.697L-5.572-13.132l-1.36-9.72c-.068-.245-.242-.418-.488-.418h-3.062c-.247 0-.42.173-.352.418l1.36 9.72-6.691 12.888c-.173.351-.101.697.384.697h3.275c.383 0 .524-.141.664-.453l4.737-9.439z" transform="translate(407.02 108.519)"/><path style="fill:#1f4b7f;fill-opacity:1;fill-rule:nonzero;stroke:none" d="M0 0c.068.281.246.453.452.453h3.137c.244 0 .382-.172.348-.453L1.985-13.936c-.382-2.577-1.358-4.804-2.89-6.446-1.88-2.051-4.599-3.235-8.153-3.235-2.823 0-5.017.799-6.479 2.262-1.36 1.358-2.09 3.312-2.09 5.678 0 .7.069 1.535.21 2.37L-15.537 0c.033.281.242.453.452.453h3.103c.208 0 .382-.172.343-.453l-1.844-12.89a14.4 14.4 0 0 1-.173-2.087c0-1.605.418-2.858 1.184-3.694.872-.977 2.16-1.429 3.831-1.429 2.128 0 3.73.731 4.81 1.986 1.046 1.149 1.671 2.716 1.951 4.634z" transform="translate(437.877 108.519)"/><path style="fill:#1f4b7f;fill-opacity:1;fill-rule:nonzero;stroke:none" d="M0 0c0 .281.245.453.45.453h2.859c.243 0 .383-.172.35-.453L.417-22.852a.463.463 0 0 0-.487-.418h-2.579c-.348 0-.557.069-.765.452l-9.512 16.827-2.335-16.861c-.068-.314-.242-.418-.486-.418h-2.858c-.207 0-.384.139-.312.418L-15.747 0c.069.312.278.453.486.453h2.65c.382 0 .556-.141.733-.453l9.471-16.86z" transform="translate(462.568 108.519)"/><path style="fill:#1f4b7f;fill-opacity:1;fill-rule:nonzero;stroke:none" d="M0 0c-.07-.279-.244-.418-.456-.418h-3.133c-.208 0-.349.139-.312.418l3.203 22.888c.036.245.212.417.419.417h3.136c.244 0 .382-.172.349-.417z" transform="translate(471.932 85.667)"/><path style="fill:#1f4b7f;fill-opacity:1;fill-rule:nonzero;stroke:none" d="M0 0c-.174-.346-.348-.451-.662-.451h-3.032c-.348 0-.522.105-.558.451l-5.4 22.753c-.068.346.037.624.422.624h2.993c.348 0 .556-.172.627-.486l4.042-18.465h.07l9.13 18.465c.138.314.345.486.694.486h2.998c.344 0 .449-.278.276-.624z" transform="translate(487.536 85.595)"/><path style="fill:#1f4b7f;fill-opacity:1;fill-rule:nonzero;stroke:none" d="M0 0a.438.438 0 0 0-.417-.381h-11.428l-.941-6.655h9.477c.209 0 .35-.175.35-.384l-.422-2.647a.478.478 0 0 0-.45-.418h-9.442l-.942-6.722H-1.53c.207 0 .38-.177.346-.384l-.385-2.647a.448.448 0 0 0-.452-.418H-18.22c-.209 0-.347.173-.315.418l3.207 22.887c.036.209.242.417.453.417H.07c.208 0 .349-.171.315-.417z" transform="translate(517.523 105.905)"/><path style="fill:#1f4b7f;fill-opacity:1;fill-rule:nonzero;stroke:none" d="M0 0c-.836.733-2.091 1.115-3.833 1.115h-3.484l-1.184-8.396h3.868c1.811 0 3.447.384 4.528 1.359.803.698 1.254 1.671 1.254 3.1C1.149-1.604.8-.661 0 0m3.309-7.593C2.229-8.813.766-9.544-.768-9.965L3.9-18.742c.174-.279.106-.557-.209-.557H.348c-.244 0-.487.104-.662.418l-4.356 8.324h-4.282l-1.151-8.324c-.072-.279-.278-.418-.488-.418h-3.102c-.209 0-.38.139-.312.418l3.169 22.852c.071.281.245.453.455.453h6.443c2.995 0 5.124-.732 6.55-1.845C4.248 1.291 4.984-.56 4.984-2.545c0-2.191-.665-3.865-1.675-5.048" transform="translate(533.505 104.548)"/><path style="fill:#1f4b7f;fill-opacity:1;fill-rule:nonzero;stroke:none" d="M0 0c-.139-.207-.312-.207-.523-.068-1.184.664-2.891 1.149-4.388 1.149-1.533 0-2.718-.278-3.519-.905-.628-.452-.975-1.185-.975-2.092 0-1.007.625-1.812 1.602-2.543 2.02-1.46 4.596-2.123 6.656-3.901 1.18-1.114 2.09-2.474 2.09-4.596 0-2.057-.871-3.869-2.545-5.158-1.534-1.152-3.799-1.845-6.656-1.845-3.099 0-5.362.766-7.175 2.122-.243.176-.243.352-.071.594l1.533 2.472c.174.209.385.246.593.037 1.253-1.012 2.822-1.848 5.227-1.848 1.462 0 2.716.243 3.623.803.872.523 1.392 1.355 1.392 2.472 0 1.081-.557 1.812-1.635 2.612-2.059 1.533-4.775 2.23-6.727 4.146-1.078 1.013-1.88 2.335-1.88 4.216 0 2.197.836 3.8 2.264 4.914 1.601 1.252 3.972 1.845 6.689 1.845 2.301 0 4.599-.593 5.888-1.288.21-.141.244-.315.105-.557z" transform="translate(555.583 104.86)"/><path style="fill:#1f4b7f;fill-opacity:1;fill-rule:nonzero;stroke:none" d="M0 0c-.068-.279-.242-.418-.452-.418h-3.137c-.208 0-.345.139-.312.418l3.204 22.888c.036.245.21.417.422.417h3.132c.243 0 .383-.172.349-.417z" transform="translate(563.657 85.667)"/><path style="fill:#1f4b7f;fill-opacity:1;fill-rule:nonzero;stroke:none" d="M0 0a.387.387 0 0 0 .383-.453L0-3.03a.488.488 0 0 0-.489-.417h-7.349l-2.79-19.858c-.032-.279-.244-.418-.487-.418h-3.066c-.208 0-.382.139-.348.418l2.785 19.858h-7.381c-.245 0-.386.174-.386.417l.386 2.577c.068.281.275.453.519.453Z" transform="translate(588.6 108.972)"/><path style="fill:#1f4b7f;fill-opacity:1;fill-rule:nonzero;stroke:none" d="M0 0c.207.281.419.453.765.453h3.517c.454 0 .488-.346.176-.697L-5.575-13.132l-1.361-9.72c-.068-.245-.242-.418-.484-.418h-3.066c-.243 0-.421.173-.349.418l1.356 9.72-6.689 12.888c-.174.351-.102.697.383.697h3.275c.384 0 .525-.141.662-.453l4.738-9.439z" transform="translate(606.778 108.519)"/></g></svg>