<?xml version="1.0" encoding="UTF-8"?>
<svg width="200px" height="200px" viewBox="0 0 200 200" version="1.1" xmlns="http://www.w3.org/2000/svg" xmlns:xlink="http://www.w3.org/1999/xlink">
    <!-- Generator: Sketch 51.3 (57544) - http://www.bohemiancoding.com/sketch -->
    <title>old-dominion</title>
    <desc>Created with Sketch.</desc>
    <defs></defs>
    <g id="old-dominion" stroke="none" stroke-width="1" fill="none" fill-rule="evenodd">
        <g id="old-dominion_BGL" transform="translate(0.000000, 18.905473)">
            <g id="old-dominion">
                <g id="g10" transform="translate(99.893501, 82.017466) scale(-1, 1) rotate(-180.000000) translate(-99.893501, -82.017466) translate(0.000000, 0.300619)">
                    <g id="g12">
                        <path d="M173.00745,102.806991 L176.839612,102.752372 L176.839612,88.899038 C185.010006,89.3863753 198.301167,90.5465005 198.301167,90.5465005 L194.564425,66.1144334 C194.483062,60.9963337 194.100954,33.4662244 193.98679,25.2076996 C194.762934,23.8093254 195.663893,22.0381445 196.221933,20.5998856 C197.164212,18.1694657 197.736736,15.320935 198.058781,13.4650734 C198.391901,11.5499777 199.634926,0.393301914 199.634926,0.393301914 C199.634926,0.393301914 176.846428,0.348811537 173.431306,0.375109119 C170.075395,0.400579371 156.04728,0.476328771 153.590199,0.489394999 C151.76826,0.360719756 145.619592,0.11428588 138.062616,1.97345762 C134.953777,2.73856018 132.254736,4.10271074 129.951434,5.78919403 L120.395311,5.78919403 C115.575716,3.11251002 110.189987,1.44800559 104.555482,0.907836063 C100.021723,0.46706894 95.3384428,0.765928196 90.7169306,1.16435922 C89.450903,1.27368196 86.1252375,1.17543968 83.1152269,1.08431058 C81.4406795,1.03303643 79.8589969,0.975152962 78.6909458,0.929006231 L77.2809352,0.87227865 L76.9047904,0.855736281 C76.6112867,0.843004542 76.3075593,0.845485686 75.9931823,0.865825983 L57.0960582,0 L57.6937153,2.90792152 C53.3427037,1.53863931 48.3395089,0.671162058 42.7062822,0.743932392 C17.3587216,1.07124435 0,22.7152511 0,43.9035404 C0,61.431169 11.557529,78.0556782 27.5994881,85.4889474 L27.6499248,102.897176 L31.3320546,102.845521 C28.2491154,108.102074 25.9273689,113.465747 25.9273689,120.21649 C25.9270281,136.655126 39.3343973,149.980899 55.873481,149.981323 C59.9433425,149.981323 63.839828,149.167541 67.3916916,147.694945 C70.9461111,149.168812 74.8434486,149.981323 78.914588,149.981323 C80.1456849,149.981323 81.3605943,149.90765 82.5546305,149.762846 C85.5118189,157.556009 93.0790179,163.098358 101.956121,163.098358 C110.873693,163.098782 118.469859,157.5052 121.39808,149.655725 C122.848559,149.870814 124.330561,149.982169 125.835993,149.982169 C129.907132,149.982169 133.803618,149.169658 137.358037,147.695791 C140.911179,149.167965 144.80809,149.982169 148.877526,149.982169 C165.41597,149.982593 178.823851,136.657243 178.823851,120.218607 C178.823851,113.197733 176.16826,107.94118 173.00745,102.806991" id="path14" fill="#FFFFFF" fill-rule="nonzero"></path>
                        <path d="M173.43088,85.3356754 C180.462189,85.5905642 194.279015,86.7943 194.279015,86.7943 L191.159527,66.3964201 C191.084553,61.7554959 190.662402,31.3391306 190.565703,24.3431947 L190.9968,23.579248 C191.70564,22.3049309 192.531199,20.6954901 193.041103,19.3804416 C193.856012,17.2783287 194.38466,14.7035282 194.700315,12.8875089 C195.025341,11.0157697 195.828323,3.772092 195.828323,3.772092 C195.828323,3.772092 176.866875,3.73521356 173.456439,3.76117666 C170.031093,3.78780449 155.491796,3.86603673 153.472201,3.87662182 C152.069006,3.76911547 146.17891,3.46562418 138.880082,5.26078665 C133.217888,6.653699 129.049624,10.4385439 126.333969,14.4168841 C120.430242,8.62434522 112.65005,5.08681021 104.224918,4.27802513 C99.8960571,3.85760254 95.4227878,4.15745679 91.0104344,4.53850287 C89.678379,4.65282178 86.1780596,4.56513494 83.0104346,4.46940344 C81.3239596,4.41779058 79.7294975,4.35940325 78.5533527,4.31325229 L77.1412121,4.2560505 L76.7565476,4.23949542 C76.5312015,4.22940149 76.2956317,4.23454161 76.0502643,4.2586756 L61.3069207,3.58321599 C61.3069207,3.58321599 61.7776342,5.88280851 62.3084116,8.36352875 C57.1761434,5.90596868 50.6419583,4.0282849 42.7493067,4.12983819 C19.4785086,4.4308314 3.4072161,24.3511546 3.4072161,43.903117 C3.4072161,60.7088428 15.0497547,76.8392403 31.0002122,83.26735 L31.0469854,99.461258 L37.5948446,99.3689561 C37.0357392,100.153523 36.6232153,100.74036 36.5060694,100.924117 C32.3820226,107.413196 29.3340568,112.917863 29.3340568,120.215644 C29.3340568,134.784106 41.2155474,146.593249 55.8722031,146.593672 C59.9902008,146.593672 63.9032998,145.654564 67.3916916,143.982121 C70.8813614,145.655834 74.7940343,146.593672 78.913736,146.593672 C80.9950991,146.593672 83.0232141,146.354026 84.9729478,145.900561 C86.5644281,153.778827 93.562511,159.710285 101.955269,159.710285 C110.418741,159.710708 117.463682,153.678904 118.976781,145.701985 C121.167622,146.283741 123.467942,146.594519 125.834715,146.594519 C129.954842,146.594519 133.867515,145.657104 137.356759,143.982967 C140.845577,145.655411 144.758676,146.594519 148.876248,146.594943 C163.533542,146.594943 175.414692,134.7858 175.415118,120.217761 C175.415118,113.021174 172.273478,107.960657 168.362935,101.814534 C167.910539,101.104486 167.331199,100.28012 166.767621,99.5082558 L173.43088,99.4125667 L173.43088,85.3356754" id="path16" fill="#A8D7F3" fill-rule="nonzero"></path>
                        <path d="M164.786364,104.062806 C164.178058,103.107184 163.315864,101.928006 162.62023,101.00287 L158.423851,95.4215667 L169.199144,95.2670244 L169.199144,81.1812417 C170.756119,81.1190014 171.99744,81.085976 172.637695,81.1024887 C179.401486,81.2782011 189.286896,82.1377099 189.286896,82.1377099 L186.933329,66.7486917 C186.869005,62.9977614 186.365917,26.7048539 186.318206,23.2342589 C186.509474,22.9158596 186.875395,22.2968016 187.29286,21.5457687 C187.914372,20.4278992 188.645363,19.0210569 189.092647,17.8681295 C189.749942,16.1718487 190.223211,13.9389041 190.530347,12.1719996 C190.840464,10.3856185 191.106704,7.96891683 191.106704,7.96891683 C191.106704,7.96891683 176.892008,7.94131093 173.48924,7.96726556 C169.918633,7.99470209 154.274757,8.07807021 153.309048,8.08370148 C152.70415,8.02895543 147.044512,7.58569446 139.896908,9.34366517 C133.222148,10.9851576 128.860061,17.0935978 127.208091,21.9966509 C121.862404,14.2038699 113.344406,9.37838425 103.815546,8.46425641 C99.7414246,8.06879768 95.5292841,8.37030321 91.3763555,8.72837542 C89.9616591,8.85044261 86.2445133,8.77503447 82.8809351,8.67265554 C81.1804027,8.6213814 79.5697531,8.56248599 78.3838106,8.51553056 L76.9644283,8.45832877 L76.572948,8.44143497 C76.4851951,8.43762434 76.3927563,8.44854815 76.3037255,8.48081148 L66.5363136,8.0332318 C66.5363136,8.0332318 67.6268354,13.3914436 68.494993,15.9715789 C68.6969099,16.5694668 68.9486671,17.2308652 69.2204456,17.8998848 C64.6002114,13.8699317 55.7525013,8.16838215 42.8046848,8.33558413 C22.105303,8.60270931 7.63876445,26.3886139 7.63876445,43.903117 C7.63876445,59.7794725 19.4258994,75.2980521 35.2234709,80.3170755 L35.2662398,95.1954693 L45.9216176,95.0455845 C45.9216176,95.0455845 40.5512663,102.43482 40.0842163,103.170695 C35.9877733,109.615317 33.5656222,114.222793 33.5656222,120.215644 C33.5656222,132.460892 43.5527146,142.38716 55.8722031,142.387583 C59.4351423,142.387583 62.8076662,141.553479 65.7985074,140.074531 L67.3921176,139.286154 L68.9848758,140.074531 C71.9757171,141.554749 75.3486669,142.388007 78.913736,142.388007 C80.8741194,142.388007 82.7744388,142.135658 84.5861534,141.662717 L88.4093695,140.665179 L89.0266218,144.54567 C90.0149072,150.755727 95.4296036,155.504619 101.955269,155.504619 C108.542702,155.504619 113.997441,150.665966 114.910327,144.370805 L115.501169,140.297241 L119.469646,141.470492 C121.487111,142.067067 123.623852,142.38843 125.834715,142.38843 C129.401062,142.38843 132.772734,141.555596 135.763149,140.075801 L137.355907,139.287001 L138.950369,140.074954 C141.941211,141.554326 145.31416,142.38843 148.876674,142.388854 C161.196162,142.388854 171.183382,132.462586 171.183808,120.217761 C171.183808,114.392577 168.752285,110.295303 164.786364,104.062806" id="path18" fill="#0B4071" fill-rule="nonzero"></path>
                        <path d="M43.739296,87.6199365 L160.443446,87.6199365 L160.416609,81.6232748 C156.581892,81.8400573 153.367834,82.0403271 153.367834,82.0403271 C153.367834,82.0403271 141.362297,80.8691934 134.577632,80.8691934 C127.80447,80.8691934 116.573799,82.1999502 116.573799,82.1999502 L119.392116,72.8702573 C118.915865,73.1835758 118.432372,73.4867326 117.941211,73.7788809 C106.892436,80.3636498 93.2532458,81.2604181 87.9488796,81.3434052 C84.8630437,81.3920966 80.9380171,81.2265459 78.0387627,81.2900564 C73.7520748,81.3836285 61.2626183,83.7538405 61.2387631,83.7584979 L60.6057493,83.8783211 C60.6057493,83.8783211 61.0117131,80.5732345 61.2856215,78.3986349 C56.1763564,80.741749 50.7527144,81.99714 45.7776346,81.99714 C45.0947806,81.9933293 44.4157603,81.9700422 43.740574,81.926855 L43.739296,87.6199365" id="path20" fill="#92979A" fill-rule="nonzero"></path>
                        <path d="M93.4560147,23.1165105 C100.853246,22.8027686 104.3361,24.5595538 108.99595,29.2512016 C114.079656,34.483705 114.048985,42.6379878 112.431094,47.9627083 C110.325876,54.8917042 104.024279,58.7137662 96.7378038,60.5581112 C96.1516483,60.6910599 94.5801893,60.7655789 93.6728411,60.874817 C93.6545238,48.5076284 93.2604876,35.8258936 93.4560147,23.1165105 Z M68.6717768,75.4453965 C68.6717768,75.4453965 73.0658129,74.4461646 77.8841301,74.3403138 C80.7953121,74.2768033 84.7378041,74.4415072 87.8372715,74.3932392 C97.8969092,74.2353097 136.143128,70.8137872 124.796163,32.9980249 C121.738016,22.807045 113.246856,16.3509907 103.13823,15.3809736 C99.4845556,15.0256958 95.703512,15.3306733 91.9795504,15.6520364 C85.7196997,16.1913676 76.0349289,15.193914 76.0268352,15.1925591 L75.4300301,15.0934827 C75.4300301,15.0934827 76.2653868,18.1102316 78.1486668,20.0850272 C80.2325859,22.2715244 82.2253441,23.1376806 82.2253441,23.1376806 L79.543768,63.2522268 C79.543768,63.2522268 77.4257702,63.8924126 75.7840237,64.9801359 C69.5186351,69.1307589 68.6717768,75.4453965 68.6717768,75.4453965 Z" id="path22" fill="#92979A"></path>
                        <path d="M93.4560147,23.1165105 C100.853246,22.8027686 104.3361,24.5595538 108.99595,29.2512016 C113.315013,33.6969368 113.942489,40.250755 113.041531,45.3879925 L115.85431,49.4285307 C115.85431,49.4285307 121.509688,29.5874686 104.620658,22.1147381 C99.672841,19.9262509 90.8553758,20.5597047 90.8553758,20.5597047 L93.4555887,23.1433119 L93.4560147,23.1165105" id="path24" fill="#FFFFFF" fill-rule="nonzero"></path>
                        <path d="M80.1077722,18.5594625 C78.9269416,17.9430296 76.8992526,16.3373994 75.4402537,15.1290486 C75.5403602,15.4715819 76.3846626,18.2356013 78.1486668,20.0850272 C80.2325859,22.2715244 82.2253441,23.1376806 82.2253441,23.1376806 L79.543768,63.2522268 L83.0585709,65.757081 L85.4019148,20.8225111 C85.4019148,20.8225111 83.2315208,20.190878 80.1077722,18.5594625" id="path26" fill="#FFFFFF" fill-rule="nonzero"></path>
                        <path d="M68.6717768,75.4453965 C68.6717768,75.4453965 73.0658129,74.4461646 77.8841301,74.3403138 C80.7953121,74.2768033 84.7378041,74.4415072 87.8372715,74.3932392 C95.5838102,74.2717224 120.043873,72.2148289 125.702233,54.0084848 L121.531413,54.5309645 C121.531413,54.5309645 117.599145,65.9725933 99.4261956,69.599043 C86.4051097,72.197046 81.1953121,69.8818765 76.3245987,71.2498927 C72.1789119,72.4138285 69.8969099,74.1116759 68.6743327,75.42592 L68.6717768,75.4453965" id="path28" fill="#FFFFFF" fill-rule="nonzero"></path>
                        <path d="M139.294139,130.738064 C141.818101,132.998614 145.16038,134.374675 148.824703,134.374675 C156.691796,134.374675 163.069644,128.036327 163.069644,120.217337 C163.069644,116.060786 161.267302,112.323405 158.398292,109.733023 L139.294565,89.194997 L139.294139,115.570909 C138.504789,113.309935 137.15399,111.309354 135.408303,109.733023 L116.304576,89.194997 L116.30415,118.491122 C116.062191,116.508747 115.407026,114.652124 114.427686,113.009742 L101.956547,89.194997 L89.6357805,113.476332 C89.1045771,114.450584 88.6849818,115.493426 88.393182,116.588347 L88.393608,89.1941502 L69.2898811,109.732177 C67.5437683,111.308507 66.1938216,113.308241 65.4036192,115.570062 L65.4036192,89.1941502 L46.2994664,109.732177 C43.4304568,112.322558 41.6284122,116.05994 41.6284122,120.216067 C41.6284122,128.035057 48.0055366,134.373405 55.8726291,134.373405 C59.5373787,134.373828 62.8792317,132.997767 65.4031933,130.738064 L65.4031933,124.862495 C67.3375915,130.399341 72.633012,134.373405 78.8626178,134.373405 C82.5273675,134.373828 85.8692204,132.997767 88.393182,130.738064 L88.393182,123.844634 C90.0055356,129.906076 95.560381,134.374252 102.16528,134.374252 C109.444513,134.374252 115.448346,128.947067 116.30415,121.941436 L116.30415,130.738064 C118.828538,132.998614 122.169965,134.374675 125.834715,134.374675 C132.06432,134.374675 137.359741,130.399764 139.294139,124.863342 L139.294139,130.738064" id="path30" fill="#92979A" fill-rule="nonzero"></path>
                        <path d="M97.0074523,143.128116 C97.0066003,145.886589 99.2558016,148.121735 102.03152,148.120465 C104.806813,148.119195 107.057718,145.882355 107.058996,143.123882 C107.059422,140.365409 104.810647,138.130263 102.034928,138.131533 C99.2592094,138.132803 97.0083043,140.369643 97.0074523,143.128116" id="path32" fill="#92979A" fill-rule="nonzero"></path>
                        <path d="M97.0074523,143.128116 C97.0066003,145.886589 99.2558016,148.121735 102.03152,148.120465 C104.189135,148.119195 106.029816,146.767268 106.742489,144.869574 C105.203405,145.271807 103.166771,145.323462 101.389135,143.772959 C99.787005,142.375305 99.4764618,140.399705 99.5663447,138.775529 C98.0391882,139.633345 97.0083043,141.261331 97.0074523,143.128116" id="path34" fill="#FFFFFF" fill-rule="nonzero"></path>
                        <path d="M88.393182,123.844634 C90.0055356,129.906076 95.560381,134.374252 102.16528,134.374252 C109.41938,134.374252 115.407026,128.983904 116.295631,122.013414 C114.596802,124.423003 110.121403,129.298069 102.172947,128.387752 C95.7409987,127.65103 92.5716697,123.389052 92.048986,118.779883 C91.6153332,114.95274 91.8828518,111.22171 92.5252373,107.781981 L89.6357805,113.476332 C89.1045771,114.450584 88.6849818,115.493426 88.393182,116.588347 L88.393182,123.844634" id="path36" fill="#FFFFFF" fill-rule="nonzero"></path>
                        <path d="M116.30415,130.738064 C118.828538,132.998614 122.169965,134.374675 125.834715,134.374675 C132.026408,134.374675 137.294991,130.448456 139.25793,124.964536 C137.968048,126.338903 133.512244,130.13429 124.901807,128.387752 C120.511179,127.497334 117.764853,125.018731 116.30415,122.062529 L116.30415,130.738064" id="path38" fill="#FFFFFF" fill-rule="nonzero"></path>
                        <path d="M139.294139,130.738064 C141.818101,132.998614 145.16038,134.374675 148.824703,134.374675 C155.016397,134.374675 160.285406,130.448456 162.248345,124.964536 C160.958036,126.338903 156.502233,130.13429 147.89137,128.387752 C143.526301,127.502415 140.771029,125.167346 139.294139,122.309797 L139.294139,130.738064" id="path40" fill="#FFFFFF" fill-rule="nonzero"></path>
                        <path d="M65.4031933,130.738064 L65.4014893,124.687206 C64.1729483,126.153029 60.3727354,128.777283 55.9965907,128.387752 C50.2423843,127.875434 47.1897752,124.119846 46.5916921,119.494164 C46.0975494,115.675066 46.7403609,111.713281 47.9216175,107.988178 L46.2994664,109.732177 C43.4304568,112.322558 41.6284122,116.05994 41.6284122,120.216067 C41.6284122,128.035057 48.0055366,134.373405 55.8726291,134.373405 C59.5373787,134.373828 62.8792317,132.997767 65.4031933,130.738064" id="path42" fill="#FFFFFF" fill-rule="nonzero"></path>
                        <path d="M88.393182,130.738064 L88.3919041,124.687206 C87.1633631,126.153029 83.3622982,128.777283 78.9865795,128.387752 C73.2319471,127.875434 70.1801899,124.119846 69.5816809,119.494164 C69.0879642,115.675066 69.7303497,111.713281 70.9116063,107.988178 L69.2898811,109.732177 C67.5437683,111.308507 66.1938216,113.308241 65.4036192,115.570062 L65.4031933,124.862495 C67.3375915,130.399341 72.633012,134.373405 78.8626178,134.373405 C82.5273675,134.373828 85.8692204,132.997767 88.393182,130.738064" id="path44" fill="#FFFFFF" fill-rule="nonzero"></path>
                        <path d="M179.243872,20.7014601 C179.746534,20.239527 180.604468,19.4211307 181.671135,17.4523051 C182.249197,16.3848629 182.697759,14.6611879 182.697759,14.6611879 C182.697759,14.6611879 177.023638,14.950457 173.54334,14.976581 C169.723105,15.0058382 163.963361,14.6260877 163.963361,14.6260877 C163.963361,14.6260877 164.754415,16.0888193 166.04302,17.7558006 C166.803404,18.739409 168.369751,20.1048848 168.369751,20.1048848 C168.369751,20.1048848 168.297333,20.5198624 168.241103,20.7277534 C159.966769,14.0420875 150.610859,13.6186841 141.784022,16.0974144 C137.868793,17.1969505 134.742063,21.2409606 133.755055,24.6738303 C132.344619,29.5806941 131.522041,56.4955561 131.683916,67.1022335 C131.683916,67.1022335 130.525662,68.460088 129.934395,69.4931922 C129.21022,70.7595916 128.112883,74.3703754 128.112883,74.3703754 C128.112883,74.3703754 131.943767,73.8017447 135.576993,73.7280725 C138.456653,73.6696428 144.497973,74.3796903 144.497973,74.3796903 C144.497973,74.3796903 143.539081,43.1536931 144.451541,30.9825403 C145.222574,27.4056288 147.507132,23.5056605 153.77039,23.7876471 C161.983809,24.1652382 166.843446,28.003813 167.718846,34.4289589 C167.966343,38.9107681 167.479442,65.4382583 167.168047,66.5280985 C167.0181,66.6729025 165.619165,68.379218 164.944831,69.7455406 C164.183595,71.2867288 163.669857,73.9617912 163.669857,73.9617912 C163.669857,73.9617912 168.719485,73.4482029 171.956545,73.4947773 C176.011923,73.5527835 181.030027,74.0714526 181.066236,74.0782271 L179.890943,66.9519253 C179.890943,66.9519253 179.36187,37.7586452 179.243872,20.7014601" id="path46" fill="#92979A" fill-rule="nonzero"></path>
                        <path d="M143.896482,15.5635451 C143.189773,15.7218133 142.485193,15.9004471 141.784022,16.0974144 C137.868793,17.1969505 134.742063,21.2409606 133.755055,24.6738303 C132.344619,29.5806941 131.342702,55.0928208 131.505002,65.6999216 C131.505002,65.6999216 128.842595,68.02864 127.990625,69.6159792 C126.993394,71.4751433 126.073692,74.6972428 126.073692,74.6972428 C126.073692,74.6972428 132.002127,73.8999743 135.635353,73.8449318 C139.514799,73.7865022 144.497973,74.4059413 144.497973,74.4059413 C143.725662,72.950704 142.311392,72.0382697 140.557611,71.0187145 C138.955481,70.0876505 137.575715,69.7222534 136.106067,69.3466946 C136.106067,52.7391215 136.158463,34.226191 136.932478,27.7104368 C137.751221,20.8183618 143.628537,19.1826699 143.628537,19.1826699 L143.896482,15.5635451" id="path48" fill="#FFFFFF" fill-rule="nonzero"></path>
                        <path d="M150.258569,24.1407655 C151.261338,23.8596257 152.423851,23.7266347 153.77039,23.7876471 C161.983809,24.1652382 166.843446,28.003813 167.718846,34.4289589 C167.966343,38.9107681 166.648771,66.6525791 166.648771,66.6525791 C166.648771,66.6525791 164.885619,68.1730205 163.98679,69.4047009 C162.921828,70.8633254 162.175928,73.9562869 162.175928,73.9562869 C162.175928,73.9562869 168.719485,73.4482029 171.956545,73.4947773 C176.011923,73.5527835 181.030027,74.0714526 181.066236,74.0782271 L181.047067,73.9617912 C180.172519,73.3190649 177.929282,71.7274917 176.188281,70.9827252 C174.602339,70.3048564 171.956545,69.6972726 171.956545,69.6972726 L172.074117,43.1329463 C172.120975,32.4039053 171.140358,23.6378047 158.321189,21.1688551 C150.739506,19.7085792 147.27284,21.6364194 147.27284,21.6364194 L150.258569,24.1407655" id="path50" fill="#FFFFFF" fill-rule="nonzero"></path>
                        <path d="M168.369751,20.1048848 C168.369751,20.1048848 168.302445,20.4914097 168.247067,20.7057365 L171.956545,23.6226045 L171.956545,18.0145001 C170.314373,17.590758 169.400635,17.2791755 167.842381,16.6123152 C166.263255,15.9368175 165.116503,15.3586179 163.963361,14.6260877 C163.963361,14.6260877 164.754415,16.0888193 166.04302,17.7558006 C166.803404,18.739409 168.369751,20.1048848 168.369751,20.1048848" id="path52" fill="#FFFFFF" fill-rule="nonzero"></path>
                        <path d="M63.6055362,42.3767479 C62.9358877,54.4860838 51.6247058,63.505422 40.4254729,63.6472621 C31.8824699,64.2082715 26.348157,58.5774304 25.9418098,49.0970059 C25.3496053,35.2881713 37.7281354,26.3767163 51.8308826,26.4483138 C60.270073,26.4911622 64.1435554,32.6579474 63.6055362,42.3767479 Z M75.4227883,48.1049719 C75.5113932,30.2136398 60.8621923,15.3478634 42.8673046,15.492244 C26.575633,15.6227369 14.8392755,29.8482851 14.8392755,43.9026936 C14.8392755,59.3844372 29.1199141,74.7505916 45.796804,74.8399297 C59.0240667,74.8399297 75.3290716,63.9635444 75.4227883,48.1049719 Z" id="path54" fill="#92979A"></path>
                        <path d="M63.6055362,42.3767479 C63.38232,46.4227903 61.9701795,50.1241824 59.7712445,53.2645651 L61.013417,58.4169605 C67.9965904,51.4430839 71.3188481,35.4087566 62.1865799,26.7303004 C55.0645354,19.9618168 40.6958882,22.1974288 32.5550578,28.3866967 L37.0667083,30.0624848 C41.3205527,27.7016724 46.4502651,26.4208773 51.8308826,26.4483138 C60.270073,26.4911622 64.1435554,32.6579474 63.6055362,42.3767479" id="path56" fill="#FFFFFF" fill-rule="nonzero"></path>
                        <path d="M27.6299461,20.2742461 C19.750713,25.64715 14.8392755,34.8113768 14.8392755,43.9026936 C14.8392755,59.3844372 29.1199141,74.7505916 45.796804,74.8399297 C53.504152,74.8399297 62.2564415,71.1474291 68.237698,64.9280572 L63.8449398,63.7933363 C53.8151211,72.3067075 38.3471343,74.2615607 27.2621931,63.2492629 C10.6253458,46.7204429 23.31919,28.7385025 28.138487,25.4723267 L27.6299461,20.2742461" id="path58" fill="#FFFFFF" fill-rule="nonzero"></path>
                        <polyline id="path60" fill="#0B4071" fill-rule="nonzero" points="128.88562 10.4974393 127.957824 10.4974393 127.362723 8.70225144 126.768474 10.4974393 125.840252 10.4974393 125.840252 7.461976 126.415758 7.461976 126.415758 9.91144907 126.428538 9.91144907 127.193181 7.461976 127.532691 7.461976 128.297334 9.91144907 128.310114 9.91144907 128.310114 7.461976 128.88562 7.461976 128.88562 10.4974393 128.88562 10.4974393"></polyline>
                        <polyline id="path62" fill="#0B4071" fill-rule="nonzero" points="125.520338 10.4974393 123.27923 10.4974393 123.27923 9.91144907 124.083064 9.91144907 124.083064 7.461976 124.716504 7.461976 124.716504 9.91144907 125.520338 9.91144907 125.520338 10.4974393 125.520338 10.4974393"></polyline>
                    </g>
                </g>
            </g>
        </g>
    </g>
</svg>