<svg width="200" height="200" xmlns="http://www.w3.org/2000/svg"><g fill="none" fill-rule="evenodd"><path d="M173.007 79.833l3.833.054v13.854c8.17-.488 21.461-1.648 21.461-1.648l-3.737 24.432c-.08 5.118-.463 32.649-.577 40.907.776 1.398 1.677 3.17 2.235 4.608.942 2.43 1.515 5.279 1.837 7.135.333 1.915 1.576 13.071 1.576 13.071s-22.789.045-26.204.019c-3.356-.026-17.384-.102-19.84-.115-1.823.13-7.971.376-15.528-1.484-3.11-.765-5.808-2.129-8.112-3.815h-9.556c-4.82 2.676-10.205 4.34-15.84 4.88-4.533.442-9.217.143-13.838-.256-1.266-.109-4.592-.01-7.602.08-1.674.052-3.256.11-4.424.156l-1.41.057-.376.016a8.44 8.44 0 0 1-.912-.01l-18.897.866.598-2.908c-4.351 1.37-9.354 2.237-14.988 2.164C17.36 181.569 0 159.925 0 138.736c0-17.527 11.558-34.152 27.6-41.585l.05-17.408 3.682.051c-3.083-5.256-5.405-10.62-5.405-17.37 0-16.44 13.407-29.765 29.946-29.766 4.07 0 7.967.814 11.519 2.287a30.035 30.035 0 0 1 11.523-2.287 30.2 30.2 0 0 1 3.64.219 20.729 20.729 0 0 1 19.401-13.336 20.728 20.728 0 0 1 19.442 13.443 30.242 30.242 0 0 1 4.438-.326c4.071 0 7.968.812 11.522 2.286a30.05 30.05 0 0 1 11.52-2.286c16.538 0 29.946 13.325 29.946 29.763 0 7.021-2.656 12.278-5.817 17.412" fill="#FFF" fill-rule="nonzero"/><path d="M173.43 97.304c7.032-.255 20.849-1.459 20.849-1.459l-3.12 20.398c-.074 4.641-.497 35.058-.593 42.054l.43.764c.71 1.274 1.535 2.883 2.045 4.198.815 2.102 1.344 4.677 1.66 6.493.324 1.872 1.127 9.116 1.127 9.116s-18.961.037-22.372.01c-3.425-.026-17.964-.104-19.984-.115-1.403.108-7.293.411-14.592-1.384-5.662-1.393-9.83-5.178-12.546-9.156-5.904 5.792-13.684 9.33-22.11 10.139-4.328.42-8.801.12-13.214-.26-1.332-.115-4.832-.027-8 .068-1.686.052-3.28.11-4.457.157l-1.412.057-.384.016c-.226.01-.461.005-.707-.019l-14.743.676s.47-2.3 1.001-4.78c-5.132 2.457-11.666 4.335-19.559 4.233-23.27-.301-39.342-20.221-39.342-39.773C3.407 121.93 15.05 105.8 31 99.372l.047-16.193 6.548.092a62.79 62.79 0 0 1-1.089-1.555c-4.124-6.49-7.172-11.994-7.172-19.292 0-14.568 11.882-26.377 26.538-26.378 4.118 0 8.031.94 11.52 2.612a26.588 26.588 0 0 1 11.522-2.612c2.081 0 4.11.24 6.059.693 1.591-7.878 8.59-13.81 16.982-13.81 8.464 0 15.509 6.032 17.022 14.009a26.698 26.698 0 0 1 6.858-.893c4.12 0 8.033.938 11.522 2.612a26.606 26.606 0 0 1 11.52-2.612c14.657 0 26.538 11.809 26.538 26.377 0 7.197-3.142 12.257-7.052 18.403a46.55 46.55 0 0 1-1.595 2.307l6.663.095v14.077" fill="#A8D7F3" fill-rule="nonzero"/><path d="M164.786 78.577c-.608.956-1.47 2.135-2.166 3.06l-4.196 5.581 10.775.155v14.086c1.557.062 2.798.095 3.439.078 6.763-.175 16.649-1.035 16.649-1.035l-2.354 15.39c-.064 3.75-.567 40.043-.615 43.514.191.318.557.937.975 1.688.621 1.118 1.352 2.525 1.8 3.678.657 1.696 1.13 3.929 1.437 5.696.31 1.786.577 4.203.577 4.203s-14.215.027-17.618.002c-3.57-.028-19.214-.111-20.18-.117-.605.055-6.264.498-13.412-1.26-6.675-1.641-11.037-7.75-12.689-12.653-5.346 7.793-13.864 12.618-23.392 13.533-4.075.395-8.287.093-12.44-.265-1.414-.122-5.131-.046-8.495.056-1.7.051-3.311.11-4.497.157l-1.42.057-.391.017a.701.701 0 0 1-.27-.039l-9.767.448s1.09-5.359 1.959-7.939c.202-.598.454-1.26.725-1.928-4.62 4.03-13.467 9.731-26.415 9.564-20.7-.267-35.166-18.053-35.166-35.567 0-15.877 11.787-31.395 27.584-36.414l.043-14.879 10.656.15s-5.37-7.389-5.838-8.125c-4.096-6.445-6.518-11.052-6.518-17.045 0-12.245 9.987-22.171 22.306-22.172 3.563 0 6.936.834 9.927 2.313l1.593.789 1.593-.789a22.329 22.329 0 0 1 9.929-2.313c1.96 0 3.86.252 5.672.725l3.823.998.618-3.88c.988-6.21 6.403-10.96 12.928-10.96 6.588 0 12.042 4.839 12.955 11.134l.591 4.074 3.969-1.174a22.417 22.417 0 0 1 6.365-.918c3.566 0 6.938.833 9.928 2.313l1.593.789 1.594-.788a22.344 22.344 0 0 1 9.927-2.314c12.32 0 22.306 9.926 22.307 22.171 0 5.825-2.432 9.922-6.398 16.155" fill="#0B4071" fill-rule="nonzero"/><path d="M43.74 95.02h116.703l-.026 5.997c-3.835-.217-7.05-.418-7.05-.418s-12.005 1.172-18.79 1.172c-6.773 0-18.003-1.331-18.003-1.331l2.818 9.33c-.476-.314-.96-.617-1.45-.91-11.05-6.584-24.689-7.48-29.993-7.564-3.086-.048-7.011.117-9.91.054-4.287-.094-16.776-2.464-16.8-2.469l-.633-.12s.406 3.306.68 5.48c-5.11-2.343-10.533-3.598-15.508-3.598a34.41 34.41 0 0 0-2.037.07l-.002-5.693" fill="#92979A" fill-rule="nonzero"/><path d="M93.456 159.523c7.397.314 10.88-1.443 15.54-6.134 5.084-5.233 5.053-13.387 3.435-18.712-2.105-6.929-8.407-10.751-15.693-12.595-.586-.133-2.158-.208-3.065-.317-.018 12.367-.413 25.049-.217 37.758zm-24.784-52.329s4.394 1 9.212 1.105c2.911.064 6.854-.1 9.953-.052 10.06.157 48.306 3.579 36.96 41.395-3.059 10.19-11.55 16.647-21.659 17.617-3.653.355-7.434.05-11.158-.271-6.26-.54-15.945.458-15.953.46l-.597.098s.835-3.016 2.719-4.991c2.084-2.187 4.076-3.053 4.076-3.053l-2.681-40.114s-2.118-.64-3.76-1.728c-6.265-4.151-7.112-10.466-7.112-10.466z" fill="#92979A"/><path d="M93.456 159.523c7.397.314 10.88-1.443 15.54-6.134 4.319-4.446 4.946-11 4.046-16.137l2.812-4.04s5.656 19.84-11.233 27.313c-4.948 2.189-13.766 1.555-13.766 1.555l2.6-2.584.001.027m-13.348 4.557c-1.181.617-3.209 2.222-4.668 3.43.1-.342.945-3.106 2.709-4.955 2.084-2.187 4.076-3.053 4.076-3.053l-2.681-40.114 3.515-2.505 2.343 44.934s-2.17.632-5.294 2.263m-11.436-56.886s4.394 1 9.212 1.105c2.911.064 6.854-.1 9.953-.052 7.747.121 32.207 2.178 37.865 20.384l-4.17-.522s-3.933-11.442-22.106-15.068c-13.02-2.598-18.23-.283-23.101-1.651-4.146-1.164-6.428-2.862-7.65-4.176l-.003-.02" fill="#FFF" fill-rule="nonzero"/><path d="M139.294 51.902a14.24 14.24 0 0 1 9.53-3.637c7.868 0 14.246 6.338 14.246 14.157 0 4.157-1.803 7.894-4.672 10.485l-19.103 20.538V67.069a14.167 14.167 0 0 1-3.887 5.838l-19.103 20.538V64.149a14.002 14.002 0 0 1-1.877 5.481l-12.471 23.815-12.321-24.282a14.064 14.064 0 0 1-1.243-3.112v27.395L69.29 72.908a14.166 14.166 0 0 1-3.886-5.838v26.376L46.299 72.908a14.084 14.084 0 0 1-4.67-10.484c0-7.82 6.377-14.158 14.244-14.158a14.24 14.24 0 0 1 9.53 3.636v5.875a14.243 14.243 0 0 1 13.46-9.51 14.24 14.24 0 0 1 9.53 3.635v6.893c1.613-6.061 7.167-10.53 13.772-10.53 7.28 0 13.283 5.428 14.14 12.433v-8.796a14.24 14.24 0 0 1 9.53-3.637c6.23 0 11.525 3.975 13.46 9.511v-5.874m-42.288-12.39c0-2.759 2.249-4.994 5.025-4.993 2.775.002 5.026 2.238 5.027 4.997 0 2.758-2.248 4.994-5.024 4.992-2.776-.001-5.027-2.238-5.028-4.996" fill="#92979A" fill-rule="nonzero"/><path d="M97.007 39.512c0-2.759 2.249-4.994 5.025-4.993a5.031 5.031 0 0 1 4.71 3.251c-1.539-.402-3.575-.454-5.353 1.097-1.602 1.397-1.913 3.373-1.823 4.997a4.993 4.993 0 0 1-2.559-4.352m-8.614 19.283c1.613-6.061 7.167-10.53 13.772-10.53 7.254 0 13.242 5.39 14.13 12.361-1.698-2.41-6.174-7.284-14.122-6.374-6.432.737-9.601 4.999-10.124 9.608-.434 3.827-.166 7.558.476 10.998l-2.89-5.695a14.064 14.064 0 0 1-1.242-3.112v-7.256m27.911-6.893a14.24 14.24 0 0 1 9.53-3.637 14.244 14.244 0 0 1 13.424 9.41c-1.29-1.374-5.746-5.17-14.356-3.423-4.39.89-7.137 3.37-8.598 6.325v-8.675m22.99 0a14.24 14.24 0 0 1 9.53-3.637 14.244 14.244 0 0 1 13.424 9.41c-1.29-1.374-5.746-5.17-14.357-3.423-4.365.885-7.12 3.22-8.597 6.078v-8.428m-73.891 0l-.002 6.05c-1.228-1.465-5.028-4.09-9.404-3.7-5.755.512-8.807 4.268-9.405 8.894-.494 3.819.148 7.78 1.33 11.506l-1.623-1.744a14.084 14.084 0 0 1-4.67-10.484c0-7.82 6.377-14.158 14.244-14.158a14.24 14.24 0 0 1 9.53 3.636m22.99 0l-.001 6.05c-1.229-1.465-5.03-4.09-9.405-3.7-5.755.512-8.807 4.268-9.405 8.894-.494 3.819.148 7.78 1.33 11.506l-1.622-1.744a14.166 14.166 0 0 1-3.886-5.838v-9.293a14.243 14.243 0 0 1 13.459-9.51 14.24 14.24 0 0 1 9.53 3.635" fill="#FFF" fill-rule="nonzero"/><path d="M179.244 161.938c.503.462 1.36 1.28 2.427 3.25.578 1.067 1.027 2.79 1.027 2.79s-5.674-.289-9.155-.315c-3.82-.03-9.58.35-9.58.35s.791-1.462 2.08-3.129c.76-.984 2.327-2.35 2.327-2.35s-.073-.414-.129-.622c-8.274 6.686-17.63 7.11-26.457 4.63-3.915-1.1-7.042-5.143-8.029-8.576-1.41-4.907-2.233-31.822-2.071-42.428 0 0-1.158-1.358-1.75-2.391-.724-1.267-1.821-4.878-1.821-4.878s3.83.569 7.464.643c2.88.058 8.921-.652 8.921-.652s-.959 31.226-.046 43.397c.77 3.577 3.055 7.477 9.318 7.195 8.214-.377 13.073-4.216 13.949-10.641.247-4.482-.24-31.01-.551-32.1-.15-.144-1.549-1.85-2.223-3.217-.761-1.54-1.275-4.216-1.275-4.216s5.05.514 8.287.467c4.055-.058 9.073-.577 9.11-.583l-1.176 7.126s-.53 29.193-.647 46.25" fill="#92979A" fill-rule="nonzero"/><path d="M143.896 167.076a40.713 40.713 0 0 1-2.112-.534c-3.915-1.1-7.042-5.143-8.029-8.576-1.41-4.907-2.412-30.419-2.25-41.026 0 0-2.662-2.329-3.514-3.916-.998-1.86-1.917-5.081-1.917-5.081s5.928.797 9.561.852c3.88.058 8.863-.561 8.863-.561-.772 1.455-2.187 2.368-3.94 3.387-1.603.931-2.982 1.297-4.452 1.672 0 16.608.052 35.12.826 41.636.82 6.892 6.697 8.528 6.697 8.528l.267 3.62m6.363-8.578c1.002.281 2.165.414 3.511.353 8.214-.377 13.073-4.216 13.949-10.641.247-4.482-1.07-32.224-1.07-32.224s-1.763-1.52-2.662-2.752c-1.065-1.459-1.811-4.552-1.811-4.552s6.543.509 9.78.462c4.056-.058 9.074-.577 9.11-.583l-.019.116c-.874.643-3.118 2.234-4.859 2.98-1.586.677-4.231 1.285-4.231 1.285l.117 26.564c.047 10.729-.934 19.495-13.753 21.964-7.581 1.46-11.048-.468-11.048-.468l2.986-2.504m18.111 4.036s-.068-.387-.123-.601l3.71-2.917v5.608c-1.643.424-2.556.736-4.115 1.402-1.579.676-2.725 1.254-3.879 1.987 0 0 .791-1.463 2.08-3.13.76-.984 2.327-2.35 2.327-2.35" fill="#FFF" fill-rule="nonzero"/><path d="M63.606 140.263c-.67-12.11-11.981-21.129-23.18-21.27-8.544-.561-14.078 5.07-14.484 14.55-.592 13.809 11.786 22.72 25.889 22.648 8.44-.042 12.313-6.21 11.775-15.928zm11.817-5.728c.088 17.891-14.56 32.757-32.556 32.613-16.291-.131-28.028-14.356-28.028-28.41 0-15.483 14.28-30.849 30.958-30.938 13.227 0 29.532 10.876 29.626 26.735z" fill="#92979A"/><path d="M63.606 140.263c-.224-4.046-1.636-7.747-3.835-10.888l1.242-5.152c6.984 6.974 10.306 23.008 1.174 31.686-7.122 6.769-21.491 4.533-29.632-1.656l4.512-1.676c4.254 2.361 9.383 3.642 14.764 3.614 8.44-.042 12.313-6.21 11.775-15.928" fill="#FFF" fill-rule="nonzero"/><path d="M27.63 162.366c-7.88-5.373-12.79-14.538-12.79-23.629 0-15.482 14.28-30.848 30.957-30.937 7.707 0 16.46 3.692 22.44 9.912l-4.392 1.134c-10.03-8.513-25.498-10.468-36.583.545-16.637 16.528-3.943 34.51.876 37.776l-.508 5.199" fill="#FFF" fill-rule="nonzero"/><path fill="#0B4071" fill-rule="nonzero" d="M128.886 172.142h-.928l-.595 1.796-.595-1.796h-.928v3.036h.576v-2.45h.013l.764 2.45h.34l.764-2.45h.013v2.45h.576v-3.036m-3.366 0h-2.24v.586h.803v2.45h.634v-2.45h.803v-.586"/></g></svg>