<svg width="200" height="200" xmlns="http://www.w3.org/2000/svg"><g fill="none" fill-rule="evenodd"><path d="m173.007 79.299 3.833.055v13.938c8.17-.49 21.461-1.658 21.461-1.658l-3.737 24.581c-.08 5.15-.463 32.847-.577 41.156.776 1.407 1.677 3.19 2.235 4.636.942 2.445 1.515 5.311 1.837 7.179.333 1.926 1.576 13.151 1.576 13.151s-22.789.045-26.204.018c-3.356-.025-17.384-.102-19.84-.115-1.823.13-7.971.378-15.528-1.493-3.11-.77-5.808-2.142-8.112-3.839h-9.556c-4.82 2.693-10.205 4.368-15.84 4.911-4.533.444-9.217.143-13.838-.258-1.266-.11-4.592-.01-7.602.08-1.674.052-3.256.11-4.424.157l-1.41.057-.376.017c-.294.013-.597.01-.912-.01l-18.897.87.598-2.925c-4.351 1.378-9.354 2.25-14.988 2.177C17.36 181.654 0 159.88 0 138.561c0-17.634 11.558-34.36 27.6-41.839l.05-17.514 3.682.052c-3.083-5.289-5.405-10.685-5.405-17.477 0-16.539 13.407-29.946 29.946-29.946 4.07 0 7.967.819 11.519 2.3a29.877 29.877 0 0 1 11.523-2.3c1.23 0 2.446.074 3.64.22 2.957-7.841 10.524-13.417 19.401-13.417 8.918 0 16.514 5.627 19.442 13.524a30.063 30.063 0 0 1 4.438-.328c4.071 0 7.968.817 11.522 2.3a29.893 29.893 0 0 1 11.52-2.3c16.538 0 29.946 13.406 29.946 29.945 0 7.064-2.656 12.352-5.817 17.518" fill="#FFF" fill-rule="nonzero"/><path d="M173.43 96.877c7.032-.257 20.849-1.468 20.849-1.468l-3.12 20.522c-.074 4.67-.497 35.271-.593 42.31l.43.769c.71 1.282 1.535 2.901 2.045 4.224.815 2.115 1.344 4.706 1.66 6.533.324 1.883 1.127 9.17 1.127 9.17s-18.961.038-22.372.012c-3.425-.027-17.964-.106-19.984-.117-1.403.109-7.293.414-14.592-1.392-5.662-1.402-9.83-5.21-12.546-9.212-5.904 5.828-13.684 9.387-22.11 10.2-4.328.424-8.801.122-13.214-.261-1.332-.115-4.832-.027-8 .069-1.686.052-3.28.11-4.457.157l-1.412.058-.384.016c-.226.01-.461.005-.707-.019l-14.743.68s.47-2.314 1.001-4.81c-5.132 2.473-11.666 4.362-19.559 4.26-23.27-.303-39.342-20.345-39.342-40.016 0-16.908 11.643-33.137 27.593-39.604l.047-16.293 6.548.093a63.18 63.18 0 0 1-1.089-1.565c-4.124-6.528-7.172-12.067-7.172-19.409 0-14.657 11.882-26.538 26.538-26.539 4.118 0 8.031.945 11.52 2.628a26.455 26.455 0 0 1 11.522-2.628c2.081 0 4.11.241 6.059.697 1.591-7.926 8.59-13.893 16.982-13.893 8.464 0 15.509 6.068 17.022 14.093a26.546 26.546 0 0 1 6.858-.898c4.12 0 8.033.943 11.522 2.628a26.472 26.472 0 0 1 11.52-2.628c14.657 0 26.538 11.881 26.538 26.538 0 7.24-3.142 12.332-7.052 18.515a46.845 46.845 0 0 1-1.595 2.32l6.663.097v14.163" fill="#A8D7F3" fill-rule="nonzero"/><path d="M164.786 78.035c-.608.962-1.47 2.148-2.166 3.079l-4.196 5.615 10.775.156v14.171c1.557.063 2.798.096 3.439.08 6.763-.177 16.649-1.042 16.649-1.042l-2.354 15.483c-.064 3.774-.567 40.288-.615 43.78.191.32.557.943.975 1.699.621 1.124 1.352 2.54 1.8 3.7.657 1.706 1.13 3.953 1.437 5.73.31 1.798.577 4.23.577 4.23s-14.215.027-17.618 0c-3.57-.027-19.214-.11-20.18-.116-.605.055-6.264.5-13.412-1.268-6.675-1.651-11.037-7.797-12.689-12.73-5.346 7.84-13.864 12.695-23.392 13.615-4.075.398-8.287.094-12.44-.266-1.414-.123-5.131-.047-8.495.056-1.7.052-3.311.111-4.497.158l-1.42.058-.391.017a.697.697 0 0 1-.27-.04l-9.767.45s1.09-5.39 1.959-7.986c.202-.602.454-1.267.725-1.94-4.62 4.054-13.467 9.79-26.415 9.622-20.7-.268-35.166-18.163-35.166-35.784 0-15.973 11.787-31.586 27.584-36.636l.043-14.97 10.656.152s-5.37-7.435-5.838-8.175c-4.096-6.484-6.518-11.12-6.518-17.149 0-12.32 9.987-22.307 22.306-22.307 3.563 0 6.936.84 9.927 2.327l1.593.793 1.593-.793a22.218 22.218 0 0 1 9.929-2.328c1.96 0 3.86.254 5.672.73l3.823 1.004.618-3.904c.988-6.248 6.403-11.026 12.928-11.026 6.588 0 12.042 4.868 12.955 11.202l.591 4.098 3.969-1.18a22.29 22.29 0 0 1 6.365-.924c3.566 0 6.938.838 9.928 2.327l1.593.793 1.594-.792a22.233 22.233 0 0 1 9.927-2.328c12.32 0 22.306 9.986 22.307 22.306 0 5.86-2.432 9.983-6.398 16.253" fill="#0B4071" fill-rule="nonzero"/><path d="M43.74 94.578h116.703l-.026 6.034c-3.835-.218-7.05-.42-7.05-.42s-12.005 1.178-18.79 1.178c-6.773 0-18.003-1.338-18.003-1.338l2.818 9.386c-.476-.315-.96-.62-1.45-.914-11.05-6.625-24.689-7.527-29.993-7.61-3.086-.05-7.011.117-9.91.053-4.287-.094-16.776-2.479-16.8-2.484l-.633-.12s.406 3.325.68 5.513c-5.11-2.357-10.533-3.62-15.508-3.62-.683.003-1.362.027-2.037.07l-.002-5.728" fill="#92979A" fill-rule="nonzero"/><path d="M93.456 159.475c7.397.316 10.88-1.452 15.54-6.172 5.084-5.264 5.053-13.468 3.435-18.825-2.105-6.972-8.407-10.817-15.693-12.673-.586-.133-2.158-.208-3.065-.318-.018 12.442-.413 25.201-.217 37.988Zm-24.784-52.648s4.394 1.006 9.212 1.112c2.911.064 6.854-.102 9.953-.053 10.06.159 48.306 3.601 36.96 41.647-3.059 10.254-11.55 16.749-21.659 17.725-3.653.357-7.434.05-11.158-.273-6.26-.542-15.945.461-15.953.462l-.597.1s.835-3.035 2.719-5.022c2.084-2.2 4.076-3.071 4.076-3.071l-2.681-40.36s-2.118-.643-3.76-1.738c-6.265-4.176-7.112-10.529-7.112-10.529Z" fill="#92979A"/><path d="M93.456 159.475c7.397.316 10.88-1.452 15.54-6.172 4.319-4.473 4.946-11.066 4.046-16.235l2.812-4.065s5.656 19.962-11.233 27.48c-4.948 2.202-13.766 1.565-13.766 1.565l2.6-2.6.001.027M80.108 164.06c-1.181.62-3.209 2.236-4.668 3.451.1-.344.945-3.125 2.709-4.986 2.084-2.2 4.076-3.071 4.076-3.071l-2.681-40.36 3.515-2.52 2.343 45.21s-2.17.635-5.294 2.276M68.672 106.827s4.394 1.006 9.212 1.112c2.911.064 6.854-.102 9.953-.053 7.747.122 32.207 2.192 37.865 20.509l-4.17-.526s-3.933-11.511-22.106-15.16c-13.02-2.614-18.23-.284-23.101-1.66-4.146-1.172-6.428-2.88-7.65-4.202l-.003-.02" fill="#FFF" fill-rule="nonzero"/><path d="M139.294 51.197a14.19 14.19 0 0 1 9.53-3.658c7.868 0 14.246 6.377 14.246 14.243a14.21 14.21 0 0 1-4.672 10.549l-19.103 20.663V66.457a14.259 14.259 0 0 1-3.887 5.874l-19.103 20.663V63.519a14.145 14.145 0 0 1-1.877 5.515l-12.471 23.96-12.321-24.43a14.2 14.2 0 0 1-1.243-3.13v27.56L69.29 72.332a14.259 14.259 0 0 1-3.886-5.873v26.537L46.299 72.33a14.21 14.21 0 0 1-4.67-10.547c0-7.867 6.377-14.244 14.244-14.244 3.664 0 7.006 1.384 9.53 3.657v5.912c1.935-5.57 7.23-9.57 13.46-9.57 3.664 0 7.006 1.385 9.53 3.658v6.936c1.613-6.098 7.167-10.594 13.772-10.594 7.28 0 13.283 5.46 14.14 12.509v-8.85a14.19 14.19 0 0 1 9.53-3.66c6.23 0 11.525 4 13.46 9.57v-5.91M97.007 38.732a5.02 5.02 0 0 1 5.025-5.023 5.03 5.03 0 0 1 5.027 5.027 5.02 5.02 0 0 1-5.024 5.023 5.03 5.03 0 0 1-5.028-5.027" fill="#92979A" fill-rule="nonzero"/><path d="M97.007 38.732a5.02 5.02 0 0 1 5.025-5.023 5.032 5.032 0 0 1 4.71 3.27c-1.539-.404-3.575-.456-5.353 1.104-1.602 1.406-1.913 3.394-1.823 5.028a5.028 5.028 0 0 1-2.559-4.38M88.393 58.133c1.613-6.098 7.167-10.594 13.772-10.594 7.254 0 13.242 5.423 14.13 12.436-1.698-2.424-6.174-7.329-14.122-6.413-6.432.741-9.601 5.03-10.124 9.667-.434 3.85-.166 7.604.476 11.065l-2.89-5.73a14.2 14.2 0 0 1-1.242-3.13v-7.301M116.304 51.197a14.19 14.19 0 0 1 9.53-3.658c6.192 0 11.461 3.95 13.424 9.467-1.29-1.383-5.746-5.201-14.356-3.444-4.39.896-7.137 3.39-8.598 6.364v-8.729M139.294 51.197a14.19 14.19 0 0 1 9.53-3.658c6.192 0 11.461 3.95 13.424 9.467-1.29-1.383-5.746-5.201-14.357-3.444-4.365.89-7.12 3.24-8.597 6.115v-8.48M65.403 51.197l-.002 6.088c-1.228-1.475-5.028-4.115-9.404-3.723-5.755.516-8.807 4.294-9.405 8.948-.494 3.842.148 7.828 1.33 11.576l-1.623-1.755a14.21 14.21 0 0 1-4.67-10.547c0-7.867 6.377-14.244 14.244-14.244 3.664 0 7.006 1.384 9.53 3.657M88.393 51.197l-.001 6.088c-1.229-1.475-5.03-4.115-9.405-3.723-5.755.516-8.807 4.294-9.405 8.948-.494 3.842.148 7.828 1.33 11.576l-1.622-1.755a14.259 14.259 0 0 1-3.886-5.873v-9.35c1.934-5.57 7.229-9.568 13.459-9.568 3.664 0 7.006 1.384 9.53 3.657" fill="#FFF" fill-rule="nonzero"/><path d="M179.244 161.905c.503.465 1.36 1.288 2.427 3.269.578 1.074 1.027 2.808 1.027 2.808s-5.674-.29-9.155-.317c-3.82-.03-9.58.352-9.58.352s.791-1.471 2.08-3.148c.76-.99 2.327-2.364 2.327-2.364s-.073-.417-.129-.626c-8.274 6.726-17.63 7.152-26.457 4.658-3.915-1.106-7.042-5.175-8.029-8.629-1.41-4.936-2.233-32.015-2.071-42.687 0 0-1.158-1.366-1.75-2.405-.724-1.274-1.821-4.907-1.821-4.907s3.83.572 7.464.646c2.88.059 8.921-.656 8.921-.656s-.959 31.417-.046 43.662c.77 3.599 3.055 7.523 9.318 7.239 8.214-.38 13.073-4.242 13.949-10.706.247-4.51-.24-31.199-.551-32.295-.15-.146-1.549-1.862-2.223-3.237-.761-1.55-1.275-4.242-1.275-4.242s5.05.517 8.287.47c4.055-.059 9.073-.58 9.11-.587l-1.176 7.17s-.53 29.37-.647 46.532" fill="#92979A" fill-rule="nonzero"/><path d="M143.896 167.074a40.511 40.511 0 0 1-2.112-.537c-3.915-1.106-7.042-5.175-8.029-8.629-1.41-4.936-2.412-30.604-2.25-41.276 0 0-2.662-2.343-3.514-3.94-.998-1.87-1.917-5.112-1.917-5.112s5.928.802 9.561.857c3.88.06 8.863-.564 8.863-.564-.772 1.464-2.187 2.382-3.94 3.408-1.603.937-2.982 1.304-4.452 1.682 0 16.709.052 35.335.826 41.89.82 6.934 6.697 8.58 6.697 8.58l.267 3.641M150.259 158.445c1.002.283 2.165.416 3.511.355 8.214-.38 13.073-4.242 13.949-10.706.247-4.51-1.07-32.42-1.07-32.42s-1.763-1.53-2.662-2.77c-1.065-1.467-1.811-4.579-1.811-4.579s6.543.512 9.78.465c4.056-.059 9.074-.58 9.11-.587l-.019.117c-.874.647-3.118 2.248-4.859 2.997-1.586.682-4.231 1.293-4.231 1.293l.117 26.727c.047 10.794-.934 19.614-13.753 22.098-7.581 1.469-11.048-.47-11.048-.47l2.986-2.52M168.37 162.505s-.068-.389-.123-.604l3.71-2.935v5.642c-1.643.427-2.556.74-4.115 1.411-1.579.68-2.725 1.261-3.879 1.998 0 0 .791-1.471 2.08-3.148.76-.99 2.327-2.364 2.327-2.364" fill="#FFF" fill-rule="nonzero"/><path d="M63.606 140.098c-.67-12.184-11.981-21.258-23.18-21.4-8.544-.565-14.078 5.1-14.484 14.638-.592 13.893 11.786 22.86 25.889 22.787 8.44-.043 12.313-6.247 11.775-16.025Zm11.817-5.764c.088 18-14.56 32.957-32.556 32.812-16.291-.131-28.028-14.444-28.028-28.584 0-15.576 14.28-31.036 30.958-31.126 13.227 0 29.532 10.943 29.626 26.898Z" fill="#92979A"/><path d="M63.606 140.098c-.224-4.071-1.636-7.795-3.835-10.955l1.242-5.183c6.984 7.016 10.306 23.148 1.174 31.88-7.122 6.81-21.491 4.56-29.632-1.667l4.512-1.686c4.254 2.375 9.383 3.664 14.764 3.636 8.44-.043 12.313-6.247 11.775-16.025" fill="#FFF" fill-rule="nonzero"/><path d="M27.63 162.335c-7.88-5.406-12.79-14.626-12.79-23.773 0-15.576 14.28-31.036 30.957-31.126 7.707 0 16.46 3.715 22.44 9.973l-4.392 1.141c-10.03-8.565-25.498-10.532-36.583.548-16.637 16.63-3.943 34.721.876 38.007l-.508 5.23" fill="#FFF" fill-rule="nonzero"/><path fill="#0B4071" fill-rule="nonzero" d="M128.886 172.171h-.928l-.595 1.806-.595-1.806h-.928v3.054h.576v-2.464h.013l.764 2.464h.34l.764-2.464h.013v2.464h.576v-3.054M125.52 172.171h-2.24v.59h.803v2.464h.634v-2.464h.803v-.59"/></g></svg>