<svg width="200" height="200" xmlns="http://www.w3.org/2000/svg"><g fill="none"><path d="M117.626 130.885c-.532 1.532-.817 3.424.114 4.875.704 1.32 2.23 2.2 3.61 2.694 1.66.286 3.803.441 5.182-.513 2.087-1.766 3.547-4.67 2.593-7.264-.844-2.018-3.184-2.927-5.41-3.005-2.564-.104-4.93 1.065-6.089 3.213" fill="#E51636"/><path d="M170.492 173.914c-1.805-.96-3.836-1.428-6.085-1.35 4.112-4.719 6.9-9.931 9.464-15.24 1.1 1.48.565 3.913 1.019 5.595-.172 4.154-1.974 7.776-4.398 10.995zm-30.774-12.443c-.759 4.07-2.333 7.802-4.28 11.404l-.565.416c-1.772-.986-3.55-1.895-5.861-1.662l-.225-.207c3.973-4.693 7.835-9.435 10.48-14.618.99 1.142.48 3.164.451 4.667zm56.248 7.153c-.341-.909-1.383-1.194-2.37-1.143-3.917 1.87-4.732 6.641-8.227 9.127-1.83 1.142-4.086 3.161-6.198 1.758 3.014-3.368 4.955-7.175 6.536-11.09 2.142-6.169.957-13.373-.902-19.18-.873-3.605 1.492-6.74 2.593-9.954-.198-.88-.396-1.759-1.24-2.382-2.337-.96-5.693-1.818-7.89 0-8.568 8.47-13.666 18.921-19.498 28.612-3.386 4.252-5.892 9.257-10.824 12.444-1.266.415-2.62 1.55-3.94.934 2.703-2.362 4.644-5.108 6.195-8.09 3.862-7.027.932-15.472-.11-22.81-1.042-3.833 1.83-6.864 1.464-10.574-1.441-1.63-3.778-2.048-6.085-1.658-7.076 2.151-9.02 9.256-13.077 14.202-6.62 9.542-13.33 19.493-22.99 27.684-.68.364-1.724.26-2.26-.312-.759-1.505-.535-3.913.228-5.497 2.761-6.397 7.045-12.333 11.158-18.143 1.664-3.472 6.03-5.907 5.3-10.054-.565-.857-1.665-1.428-2.707-1.662-1.974-.383-4.313-.331-5.748 1.143-8.876 7.208-15.078 16.435-19.051 26.126-1.013 2.466-1.52 5.108-3.041 7.36-1.24.572-2.509 1.143-4.06 1.039-.588-.364-.705-1.116-.789-1.766 1.298-7.386 4.651-13.994 8.23-20.524 5.015-10.525 12.82-19.778 18.147-30.066 2.03-3.706 5.633-6.712 6.422-10.99-.195-2.54-1.941-4.51-3.83-6.426-1.547-1.48-4.06-1.999-6.088-1.142-9.863 6.349-17.863 15.5-26.373 23.537 3.606-5.498 7.186-10.915 10.483-16.488 1.266-1.915-.704-3.472-1.805-4.77-2.31-2.59-6.173-3.318-9.467-2.178-6.793 3.891-11.722 9.954-16.909 15.451-.14-.026-.363.078-.45-.107 1.492-4.274 3.806-9.123 1.917-13.783l-1.467-1.454c-6.085-3.582-14.429-1.01-20.177 1.762l-.334-.204c.646-.5.587-1.247.899-1.87-.14-.623-.506-.983-1.24-1.039-4.816 1.403-9.24 3.94-13.524 6.323-1.493 1.094-3.833 2.57-4.17 4.46-.65 3.602-.14 7.545 2.59 10.268 1.045.545 2.622.75 3.722.204 5.297-3.55 10.876-7.078 16.682-10.155 1.577-.603 2.876-1.795 4.732-1.769.62.16.565.783.678 1.244l-3.833 9.953c-8.4 15.835-15.273 32.219-23.783 48.004l-.45 3.11c.366 4.07 1.492 8.113 4.848 10.781 1.07.234 2.392.578 3.268-.311 3.72-8.711 8.679-16.975 12.849-25.503 6.06-10.11 12.17-20.11 20.852-29.028l.562-.104c-3.437 6.92-7.212 13.715-10.931 20.53-3.158 7.203-7.864 13.81-9.808 21.46-.143 4.556.396 9.458 3.72 12.853.846.681 2.028.882 3.157.622 2.675-2.1 3.467-5.26 5.183-7.88a177.363 177.363 0 0 1 6.426-12.232c7.072-11.252 14.034-22.728 24.234-32.348h.335c-.478 1.065-.983 2.152-1.46 3.213-4.652 7.906-9.134 15.89-12.853 24.157-2.901 6.351-6.62 12.517-5.183 20.008.337 2.619 2.704 4.278 5.07 5.498 6.286 2.177 11.41-2.181 16.344-4.667 1.184 2.281 3.297 4.485 6.196 4.875 7.357.7 13.842-3.032 18.375-7.88 3.265 3.498 7.02 6.062 11.61 7.049 8.847 1.629 17.385-1.422 24.46-5.391 3.86 3.498 8.507 6.066 13.752 6.945 7.043.023 13.611-1.061 18.823-5.08 3.438-4.61 7.722-8.889 7.102-15.032zM80.02 31.375c-1.015 10.938-6.902 20.27-12.848 29.447a6.842 6.842 0 0 1-1.577 1.45c2.281-11.146 8.253-21.2 14.426-30.897zM93.435 59.68c1.266-.934 2.506-1.943 3.833-2.695.76 0 1.156.597 1.127 1.245-1.181 4.276-3.973 8.032-7.55 11.3-1.606 1.243-3.16 3.082-5.186 3.627.448-5.314 3.72-9.82 7.776-13.477zM59.058 95.864c7.92 1.711 13.806-3.866 19.275-7.986 2.762 2.283 5.492 5.134 9.126 5.705 6.147 1.811 9.698-3.396 13.304-6.844 2.054-3.083 5.747-6.816 3.155-10.367-3.016-.624-4.116 2.902-6.09 4.25-2.42 1.815-4.449 5.729-8.003 5.081-1.606-.649-2.846-2.207-2.813-3.836 9.214-5.673 18.454-13.452 21.08-23.638.557-3.788.898-8.322-3.048-10.68-4.989-2.593-10.399.103-14.54 2.488-11.188 7.492-17.16 18.714-16.458 31.206-2.168 1.843-4.735 4.794-7.776 3.32-2.902-1.634-2.454-5.313-2.142-7.983 13.105-12.235 20.936-27.398 26.038-43.13 1.438-6.716 4.369-13.504 2.253-20.528-2.143-2.048-6.423-1.479-8.903-.103-7.834 6.428-12.738 14.88-17.246 23.014-6.874 13.79-14.316 27.373-15.218 43.44.34 6.401 1.015 13.894 8.006 16.59zM20.168 85.29c-5.972-2.826-3.804-10.112-3.493-15.245 1.325-9.744 5.047-18.583 8.569-27.472 1.012-1.763 1.661-3.655 3.04-5.289 1.526.52 3.243 1.192 4.96.625 5.608-3.219 7.75-9.333 14.091-11.822.873-.05.984.805.903 1.45-.169 9.722-4.284 18.197-6.767 27.166-3.437 9.694-7.101 19.308-13.524 27.891-2.003 1.994-4.706 3.495-7.78 2.695zm33.136-23.95c2.71-8.376 6.03-16.486 7.559-25.297.363-4.022 1.262-8.22.11-12.027-.565-2.075-3.018-3.088-4.959-3.632.873-.827 1.94-1.658 2.48-2.797.45-1.27-.198-2.382-1.24-3.213-5.102-2.62-11.81-4.15-17.808-2.283-22.067 9.67-31.673 31.752-35.62 52.15C1.486 72.199.39 82.954 5.855 90.057c4.988 4.977 12.849 6.713 20.177 5.289 16.653-4.9 21.612-20.995 27.272-34.007z" fill="#E51636"/><path d="M188.864 183.657c-5.212 4.018-11.78 5.102-18.823 5.08-5.245-.88-9.892-3.448-13.751-6.946-7.076 3.969-15.614 7.02-24.461 5.39-4.59-.986-8.345-3.55-11.61-7.049-4.533 4.85-11.018 8.582-18.375 7.88-2.899-.39-5.012-2.593-6.196-4.874-4.933 2.486-10.058 6.844-16.345 4.667-2.365-1.22-4.732-2.879-5.07-5.498-1.437-7.49 2.283-13.657 5.184-20.008 3.72-8.267 8.201-16.25 12.852-24.157.478-1.061.983-2.148 1.461-3.213h-.335c-10.2 9.62-17.162 21.096-24.234 32.348a177.363 177.363 0 0 0-6.426 12.232c-1.716 2.62-2.508 5.78-5.183 7.88-1.13.26-2.31.06-3.158-.622-3.323-3.395-3.862-8.297-3.72-12.853 1.945-7.65 6.651-14.257 9.809-21.46 3.72-6.815 7.494-13.61 10.93-20.53l-.56.104C62.17 140.947 56.058 150.946 50 161.056c-4.17 8.528-9.13 16.792-12.849 25.503-.876.89-2.197.545-3.268.311-3.356-2.668-4.482-6.711-4.849-10.781l.451-3.11c8.51-15.785 15.384-32.169 23.783-48.004l3.833-9.953c-.113-.461-.058-1.084-.678-1.244-1.856-.026-3.155 1.166-4.732 1.77-5.806 3.076-11.385 6.604-16.682 10.154-1.1.546-2.677.341-3.723-.204-2.729-2.723-3.238-6.666-2.59-10.269.338-1.889 2.678-3.365 4.171-4.46 4.284-2.381 8.708-4.92 13.524-6.322.734.056 1.1.416 1.24 1.04-.312.622-.253 1.369-.9 1.869l.335.204c5.748-2.772 14.092-5.344 20.177-1.762l1.467 1.454c1.89 4.66-.425 9.509-1.918 13.783.088.185.312.081.451.107 5.187-5.497 10.116-11.56 16.91-15.451 3.293-1.14 7.156-.412 9.466 2.177 1.1 1.299 3.07 2.856 1.805 4.771-3.297 5.573-6.877 10.99-10.483 16.488 8.51-8.037 16.51-17.188 26.373-23.537 2.028-.857 4.54-.337 6.088 1.142 1.889 1.916 3.635 3.885 3.83 6.427-.789 4.277-4.391 7.283-6.422 10.989-5.326 10.288-13.132 19.54-18.146 30.066-3.58 6.53-6.933 13.138-8.23 20.524.083.65.2 1.402.788 1.766 1.551.104 2.82-.467 4.06-1.039 1.522-2.252 2.028-4.894 3.041-7.36 3.973-9.691 10.175-18.918 19.05-26.126 1.436-1.474 3.775-1.526 5.749-1.143 1.042.234 2.142.805 2.707 1.662.73 4.147-3.636 6.582-5.3 10.054-4.113 5.81-8.397 11.746-11.158 18.143-.763 1.584-.987 3.992-.227 5.497.535.572 1.58.676 2.258.312 9.662-8.191 16.37-18.142 22.991-27.684 4.058-4.946 6.001-12.05 13.077-14.202 2.307-.39 4.644.029 6.085 1.658.366 3.71-2.506 6.74-1.464 10.574 1.042 7.338 3.972 15.783.11 22.81-1.551 2.982-3.492 5.728-6.195 8.09 1.32.616 2.674-.519 3.94-.934 4.932-3.187 7.438-8.192 10.824-12.444 5.832-9.69 10.93-20.141 19.499-28.612 2.196-1.818 5.552-.96 7.889 0 .844.623 1.042 1.503 1.24 2.382-1.1 3.213-3.466 6.349-2.593 9.954 1.86 5.807 3.044 13.011.902 19.18-1.58 3.915-3.522 7.722-6.536 11.09 2.112 1.403 4.368-.616 6.198-1.758 3.495-2.486 4.31-7.257 8.228-9.127.986-.051 2.028.234 2.369 1.143.62 6.143-3.664 10.421-7.102 15.033zM117.74 135.76c-.931-1.45-.646-3.343-.114-4.875 1.159-2.148 3.525-3.317 6.089-3.213 2.226.078 4.566.987 5.41 3.005.954 2.594-.506 5.498-2.593 7.264-1.38.954-3.521.799-5.183.513-1.38-.493-2.905-1.373-3.609-2.694zm80.186 34.049c0-.451-.026-.906-.071-1.377l-.023-.246-.088-.23c-.343-.935-1.09-1.61-1.81-1.935-.728-.344-1.441-.441-2.114-.445a5.88 5.88 0 0 0-.33.01l-.374.02-.334.162c-2.509 1.2-3.901 3.252-5.053 5.004-1.14 1.776-2.11 3.314-3.414 4.252-.175.11-.348.224-.516.337 1.505-2.394 2.667-4.887 3.67-7.373l.016-.04.017-.051c.898-2.58 1.253-5.277 1.253-7.952-.004-4.352-.936-8.646-2.117-12.365a4.935 4.935 0 0 1-.123-1.077c-.062-2.149 1.567-4.677 2.681-7.744l.172-.506-.114-.526c-.188-.824-.487-2.402-1.966-3.499l-.186-.14-.22-.087c-1.47-.6-3.327-1.2-5.33-1.207-1.486-.007-3.135.37-4.494 1.5l-.072.05-.058.06c-8.822 8.743-13.972 19.323-19.726 28.884-1.918 2.46-3.515 4.972-5.293 7.208 1.6-2.92 2.132-6.081 2.129-9.162-.014-5.205-1.451-10.32-2.068-14.747l-.016-.123-.03-.11a4.596 4.596 0 0 1-.165-1.234c-.104-2.057 1.622-4.546 1.73-8.178 0-.273-.01-.559-.042-.85l-.059-.61-.409-.462c-1.57-1.781-3.82-2.447-5.936-2.44-.636 0-1.265.058-1.895.162l-.113.023-.12.032c-4.08 1.23-6.699 3.963-8.672 6.777-1.98 2.83-3.47 5.8-5.32 8.039l-.052.065-.039.058c-6.523 9.402-13.03 19.019-22.196 26.918a3.883 3.883 0 0 1-.061-.753c-.007-.824.214-1.785.506-2.382l.02-.033.012-.036c2.645-6.137 6.842-11.985 10.967-17.794l.094-.137.071-.143c.562-1.216 1.792-2.53 3.029-4.05 1.206-1.506 2.521-3.381 2.537-5.906 0-.41-.035-.832-.113-1.253l-.068-.386-.218-.328a5.226 5.226 0 0 0-.801-.929c.996-.1 2.034-.366 3.005-1.025l.072-.052.074-.062c1.96-1.68 3.528-4.144 3.56-7.007 0-.779-.13-1.577-.412-2.359l-.02-.042-.01-.033c-.629-1.506-1.817-2.56-3.086-3.193-1.278-.643-2.664-.929-4.011-.98-.123-.007-.26-.007-.387-.007-3.027-.013-5.961 1.46-7.444 4.22l-.072.136-.048.136c-.332.954-.6 2.05-.6 3.242 0 1.042.223 2.197.879 3.236a6.76 6.76 0 0 0 1.843 2.067c-1.34.166-2.73.662-3.856 1.77-9.12 7.418-15.47 16.901-19.534 26.813-1.006 2.499-1.516 4.81-2.577 6.582-.581.257-1.09.451-1.58.559 1.294-6.81 4.449-13.067 7.922-19.396l.026-.052.026-.045c4.855-10.237 12.64-19.473 18.113-30.015 1.694-3.251 5.57-6.36 6.61-11.514l.046-.247-.02-.247c-.298-3.388-2.482-5.666-4.374-7.613a7.733 7.733 0 0 0-5.346-2.121 7.22 7.22 0 0 0-2.833.562l-.156.066-.136.085c-5.352 3.452-10.123 7.651-14.667 12.014.474-.776.949-1.558 1.413-2.35.453-.689.707-1.5.704-2.272-.013-1.35-.64-2.324-1.185-3.044-.561-.734-1.145-1.298-1.48-1.697-2.054-2.3-4.943-3.37-7.802-3.37-1.263 0-2.528.208-3.739.625l-.169.062-.156.083c-4.829 2.778-8.688 6.513-12.25 10.304.22-1.074.36-2.178.366-3.326a11.855 11.855 0 0 0-.847-4.48l-.15-.366-.276-.276-1.635-1.617-.205-.12c-2.49-1.466-5.257-2.018-7.984-2.018-3.816.01-7.61 1.049-10.91 2.36a3.084 3.084 0 0 0-.829-1.182c-.577-.504-1.314-.725-1.957-.764l-.34-.026-.325.096c-5.108 1.488-9.652 4.115-13.92 6.49l-.094.046-.1.074c-.698.514-1.727 1.192-2.681 2.062-.938.876-1.928 1.97-2.243 3.599a17.387 17.387 0 0 0-.282 3.09c-.007 3.105.918 6.383 3.407 8.857l.202.207.26.13a6.798 6.798 0 0 0 3.08.74c.762 0 1.573-.13 2.362-.513l.107-.058.107-.065c5.238-3.515 10.73-6.981 16.416-10.01.863-.343 1.538-.752 2.116-1.044l-3.067 7.967c-8.425 15.9-15.286 32.238-23.718 47.881l-.166.299-.529 3.66.023.222c.38 4.264 1.594 8.934 5.553 12.098l.347.273.439.098c.512.107 1.233.305 2.129.311.847.013 2.021-.25 2.888-1.143l.256-.252.143-.338c3.642-8.523 8.562-16.746 12.778-25.344 3.274-5.472 6.549-10.866 10.213-16.049-1.022 1.876-2.05 3.752-3.073 5.628l-.042.07-.033.076c-3.028 6.97-7.825 13.657-9.908 21.754l-.052.202-.004.207c-.016.435-.022.877-.022 1.318.003 4.372.724 9.269 4.28 12.93l.082.077.09.079c1 .795 2.21 1.145 3.402 1.145.458 0 .915-.051 1.366-.159l.415-.09.335-.26c3.265-2.639 4.08-6.134 5.599-8.335l.07-.11.059-.116a174.361 174.361 0 0 1 6.342-12.074c4.492-7.153 8.902-14.313 14.072-20.998-2.57 4.674-5.001 9.411-7.185 14.263-2.376 5.255-5.644 10.74-5.67 17.445 0 1.182.107 2.395.34 3.635.244 1.814 1.208 3.275 2.337 4.352 1.15 1.094 2.48 1.886 3.746 2.541l.123.065.124.046a12.39 12.39 0 0 0 4.085.691c4.9-.055 8.8-2.736 12.197-4.644 1.46 2.028 3.651 3.827 6.63 4.245l.026.006h.05c.655.065 1.307.092 1.953.092 6.582-.007 12.297-3.11 16.59-7.163 3.143 3.001 6.82 5.27 11.22 6.208l.033.01.02.003c1.784.328 3.553.48 5.303.48 7.032-.006 13.605-2.424 19.249-5.436 3.875 3.242 8.49 5.644 13.686 6.52l.162.026h.383c7.14 0 14.099-1.126 19.755-5.478l.205-.159.159-.211c1.551-2.084 3.375-4.2 4.871-6.605 1.5-2.388 2.671-5.15 2.668-8.38z" fill="#173A79"/><path d="M134.347 170.864a13.23 13.23 0 0 0-1.96-.78c1.678-2.031 3.314-4.108 4.82-6.257-.695 2.418-1.682 4.738-2.86 7.037zm-5.56.558l.225.207c2.31-.233 4.089.676 5.86 1.662l.565-.416c1.948-3.602 3.522-7.334 4.281-11.404.03-1.503.539-3.525-.451-4.667-2.645 5.183-6.507 9.925-10.48 14.618zm41.063.113a13.601 13.601 0 0 0-1.75-.522c1.866-2.496 3.44-5.083 4.858-7.699-.223 2.96-1.392 5.67-3.109 8.221zm-5.443 1.029c2.25-.078 4.28.39 6.085 1.35 2.424-3.22 4.226-6.841 4.398-10.995-.454-1.682.08-4.116-1.02-5.596-2.563 5.31-5.351 10.522-9.463 15.24zM89.601 68.087c-.295.24-.58.485-.86.723 1.253-2.795 3.366-5.367 5.9-7.659.296-.219.588-.436.87-.654-1.307 2.723-3.362 5.261-5.91 7.59zm8.793-9.858c.029-.648-.368-1.245-1.127-1.245-1.327.752-2.567 1.76-3.833 2.695-4.056 3.657-7.328 8.163-7.776 13.477 2.025-.545 3.58-2.384 5.187-3.627 3.576-3.268 6.368-7.024 7.549-11.3zM26.51 81.338c-1.403 1.371-3.039 2.282-4.648 2.267-.335 0-.679-.034-1.036-.115-1.194-.612-1.804-1.332-2.245-2.262-.452-.969-.643-2.238-.64-3.69-.01-2.27.464-4.872.626-7.291 1.276-9.36 4.882-18 8.397-26.855.805-1.451 1.353-2.77 2.034-3.863.825.259 1.779.49 2.856.497a6.31 6.31 0 0 0 1.987-.315l.181-.058.166-.097c3.174-1.824 5.245-4.364 7.234-6.558 1.548-1.71 3.022-3.211 4.872-4.297-.439 8.695-4.177 16.661-6.637 25.424-3.402 9.611-6.991 18.952-13.148 27.213zm21.728-53.8c.08-.646-.03-1.501-.903-1.451-6.341 2.489-8.483 8.603-14.091 11.822-1.717.567-3.434-.106-4.96-.625-1.379 1.634-2.028 3.526-3.04 5.289C21.722 51.462 18 60.3 16.675 70.045c-.311 5.133-2.48 12.42 3.493 15.244 3.073.8 5.776-.7 7.779-2.695 6.423-8.583 10.087-18.197 13.524-27.891 2.483-8.97 6.598-17.444 6.767-27.165z" fill="#173A79"/><path d="M26.032 95.346c-7.328 1.424-15.189-.312-20.177-5.289-5.466-7.103-4.369-17.858-2.029-25.816 3.947-20.398 13.553-42.48 35.62-52.15 5.997-1.866 12.706-.338 17.807 2.283 1.043.831 1.692 1.942 1.24 3.213-.538 1.14-1.606 1.97-2.479 2.797 1.94.544 4.394 1.557 4.959 3.632 1.152 3.807.253 8.005-.11 12.027-1.529 8.811-4.849 16.921-7.559 25.296-5.66 13.012-10.62 29.107-27.272 34.007zm46.073-14.93c-.698.622-1.373 1.24-2.022 1.71-.873.643-1.613.945-2.139.936a1.841 1.841 0 0 1-.788-.185c-.539-.327-.799-.674-1.026-1.202-.224-.541-.33-1.291-.33-2.136 0-.656.06-1.359.138-2.055a86.761 86.761 0 0 0 7.576-8.18 34.84 34.84 0 0 0-1.422 9.965c0 .376.003.762.013 1.148zM66.27 35.834c4.508-8.135 9.412-16.586 17.246-23.014 2.48-1.376 6.76-1.945 8.903.103 2.116 7.024-.815 13.812-2.253 20.528-5.102 15.732-12.933 30.895-26.038 43.13-.312 2.67-.76 6.349 2.142 7.982 3.04 1.475 5.608-1.476 7.776-3.32-.701-12.491 5.27-23.713 16.458-31.205 4.141-2.385 9.551-5.08 14.54-2.487 3.946 2.357 3.605 6.891 3.047 10.679-2.625 10.186-11.865 17.965-21.08 23.638-.032 1.63 1.208 3.187 2.814 3.836 3.554.648 5.583-3.266 8.004-5.08 1.973-1.35 3.073-4.875 6.089-4.25 2.592 3.55-1.1 7.283-3.155 10.366-3.606 3.448-7.157 8.655-13.304 6.844-3.634-.571-6.364-3.422-9.126-5.705-5.469 4.12-11.356 9.697-19.275 7.986-6.99-2.697-7.665-10.19-8.006-16.59.902-16.068 8.344-29.65 15.218-43.44zm-20.882 46.58c1.577-2.458 2.94-5.033 4.174-7.64a62.394 62.394 0 0 0-.406 4.397l-.007.1.007.106c.175 3.231.413 6.866 1.617 10.225 1.177 3.35 3.537 6.495 7.6 8.036l.137.052.146.032c1.13.242 2.233.357 3.304.357h.023c6.838-.055 11.9-4.382 16.285-7.77 2.337 2.016 4.988 4.447 8.763 5.13.993.281 1.96.417 2.892.417 2.95 0 5.335-1.361 7.224-2.933 1.909-1.583 3.473-3.428 4.927-4.81l.15-.145.116-.175c.707-1.066 1.737-2.347 2.639-3.78.886-1.433 1.713-3.07 1.73-5.025.01-1.251-.403-2.585-1.253-3.738l-.432-.587-.717-.154a5.264 5.264 0 0 0-1.074-.112c-2.123.01-3.522 1.334-4.395 2.346-.899 1.062-1.613 2.026-2.08 2.311l-.042.026-.023.02c-1.402 1.064-2.44 2.393-3.466 3.344-1.039.983-1.853 1.44-2.623 1.428a2.67 2.67 0 0 1-.253-.013 2.893 2.893 0 0 1-1.188-1.097c8.987-5.725 18-13.481 20.765-24.058l.026-.096.013-.1c.185-1.252.357-2.631.357-4.06 0-1.509-.188-3.092-.84-4.61a8.359 8.359 0 0 0-3.463-3.92l-.046-.026-.055-.03a11.3 11.3 0 0 0-5.274-1.27c-4.274.024-8.081 2.085-11.093 3.8l-.052.028-.058.038a44.09 44.09 0 0 0-4.917 3.8c3.008-5.907 5.439-12.031 7.448-18.222l.03-.094.019-.093c1.019-4.85 3.018-10.04 3.037-15.7 0-1.883-.23-3.82-.82-5.776l-.144-.478-.36-.347c-1.518-1.43-3.482-1.861-5.31-1.87-2.118.01-4.183.575-5.834 1.479l-.15.085-.133.108c-8.169 6.707-13.18 15.41-17.701 23.564l-.016.03-.02.042c-.863 1.732-1.743 3.47-2.612 5.21.288-1.262.548-2.535.775-3.831l.01-.076.01-.074c.217-2.454.681-5.134.685-7.91 0-1.586-.156-3.22-.65-4.84-.46-1.634-1.626-2.735-2.771-3.45a8.808 8.808 0 0 0-.604-.347c.289-.371.562-.79.802-1.272l.039-.09.029-.087a4.29 4.29 0 0 0 .253-1.45c-.016-1.763-1.048-3.048-2.103-3.884l-.15-.118-.165-.085c-3.768-1.932-8.33-3.313-13.02-3.318-2.075 0-4.174.278-6.222.914l-.1.03-.095.043c-11.437 5.006-19.661 13.266-25.467 22.8-5.794 9.523-9.234 20.322-11.243 30.648C.85 67.647.003 72.124 0 76.632c.003 5.123 1.104 10.358 4.346 14.582l.074.102.091.088c4.307 4.284 10.396 6.32 16.54 6.32a27.67 27.67 0 0 0 5.341-.516l.085-.014.087-.023c8.844-2.591 14.66-8.261 18.824-14.759z" fill="#173A79"/><path d="M67.172 60.822c5.946-9.177 11.833-18.51 12.849-29.447-6.173 9.696-12.145 19.751-14.426 30.898a6.842 6.842 0 0 0 1.577-1.451m129.696 124.646h-.334v-.984a1.79 1.79 0 0 1 .334-.022c.523 0 .711.253.711.51 0 .356-.328.496-.711.496zm.63.188v-.022c.315-.094.567-.328.567-.711 0-.276-.093-.474-.265-.604-.173-.13-.464-.22-.906-.22-.347 0-.58.032-.824.07v2.915h.464v-1.253h.325c.37 0 .558.136.629.507.056.383.124.65.195.746h.486c-.045-.097-.116-.273-.184-.72-.06-.429-.231-.662-.487-.708z" fill="#173A79"/><path d="M197.034 187.779c-1.159 0-2.1-.974-2.1-2.213 0-1.221.941-2.207 2.09-2.207h.01c1.161 0 2.087.986 2.087 2.213 0 1.233-.926 2.22-2.087 2.207zm0-4.83h-.01a2.597 2.597 0 0 0-2.59 2.617c0 1.473 1.159 2.619 2.59 2.619 1.435 0 2.574-1.146 2.574-2.62 0-1.454-1.14-2.616-2.564-2.616z" fill="#173A79"/></g></svg>