<svg width="200" height="200" xmlns="http://www.w3.org/2000/svg"><g fill="none"><path d="M75.027 72.25L62.982 61.956s45.574-9.173 76.889 3.66C157 80.38 157.89 80.321 157.89 80.321l-43.935 2.902L75.027 72.25" fill="#15213B"/><path d="M88.004 70.464s-5.416-5.398-9.71-9.157c0 0 37.93-5.868 64.282 6.128 9.822 10.798 9.343 12.353 9.343 12.353l-49.693 7.022-14.222-16.346" fill="#15213B"/><path d="M.539 86.488s72.748 17.625 116.29 55.693c-2.176-4.866-15.61-73.533-15.61-73.533s-34.3-5.373-100.68 17.84" fill="#15213B"/><path d="M116.83 142.181s24.367-15.85 43.077-18.421l-.873-.757-28.516-12.329-9.977-.22-3.712 31.727" fill="#15213B"/><path d="M129.093 123.5c9.979-2.126 23.741-1.689 39.012 1.923l14.54-20.037c1.429-12.321-41.157-41.273-41.157-41.273l1.111 8.893c-20.43-15.265-58.373-9.594-58.373-9.594l7.868 9.066s-33.317 1.215-61.997 15.117c0 0 55.007 13.162 86.718 53.126l12.278-17.22" fill="#C1B572"/><path d="M116.853 142.211l-.744-.937c-31.165-39.277-85.747-52.687-86.243-52.817l-2.326-.615 2.163-1.048c24.384-11.82 53.829-14.535 60.54-15.082l-7.76-8.941 1.609-.241c.095-.014 9.707-1.424 21.696-.936 10.545.429 25.04 2.452 35.669 9.514l-1.106-8.85 1.644 1.12c.107.072 10.804 7.363 21.187 16.07 14.135 11.854 20.984 20.615 20.355 26.04l-.027.231-14.987 20.653-.586-.145c-14.395-3.404-28.007-4.045-38.314-1.926l-12.77 17.91zM32.59 87.401c10.052 3.126 56.488 17.606 84.184 51.836l11.789-16.536.343-.072c10.463-2.232 24.23-1.593 38.822 1.79l14.045-19.357c.617-9.357-26.582-30.338-39.146-39.08l1.126 9-1.693-1.264c-17.506-13.08-48.602-10.479-56.06-9.63l7.984 9.2-1.85.081c-.273.012-32.096 1.305-59.544 14.033z" fill="#15213B"/><path d="M139.98 70.592l-2.144-12.497s43.386 25.86 46.368 47.385l-.846.557-2.757-2.512-4.684-10.818-13.448-12.689-13.261-9.626-6.637-4.686.028 7.3-2.619-2.414" fill="#15213B"/><path d="M176.009 99.357s-.487-5.964-10.981-16.232l2.66-.176 7.671 6.722 4.384 7.01 2.56 7.388-6.294-4.712" fill="#15213B"/><path d="M191.573 131.23l-24.443-6.05s4.66-2.305-3.277-6.834c0 0 27.492 7.592 27.72 12.884" fill="#C1B572"/><path d="M192.447 132.291l-27.693-6.852 2.006-.993c.004-.002.884-.464.901-1.245.011-.515-.378-1.95-4.22-4.144l-5.697-3.25 6.33 1.748c4.688 1.295 28.084 8.036 28.325 13.64l.048 1.096zm-23.63-7.539l21.251 5.26c-2.7-2.851-12.962-6.807-22.04-9.592.89.963 1.315 1.904 1.287 2.839a2.758 2.758 0 0 1-.498 1.493z" fill="#15213B"/><path d="M141.893 110.582l42.425 15s9.917 3.572 9.128 12.975l4.721-8.48c.15.23 2.418-7.587-5.832-15.783-7.212-7.164-22.264-20.303-22.264-20.303l4.657 13.653-5.061 4.817-27.774-1.88" fill="#C1B572"/><path d="M192.239 142.513l.338-4.027c.301-3.593-1.022-6.708-3.933-9.255-2.23-1.952-4.6-2.827-4.624-2.835l-48.375-17.105 33.696 2.28 4.383-4.171-5.523-16.195 2.445 2.135c.152.132 15.157 13.24 22.306 20.342 8.59 8.533 6.16 16.444 6.132 16.522a1.365 1.365 0 0 1-.224.419l-6.621 11.89zm-44.1-30.641l36.471 12.895c.098.035 8.277 3.073 9.578 10.668l3.285-5.901c.442-1.388.955-7.963-5.754-14.629-5.365-5.328-15.2-14.078-19.771-18.11l3.783 11.093-5.74 5.463-21.851-1.48z" fill="#15213B"/><path d="M152.52 110.392s13.571 1.28 16.873-2.011c3.3-3.293 2.572-6.472 1.596-9.47.652 1.306 2.22 4.277 2.22 4.277l1.37 4.016-4.912 5.257-6.237-.422-10.91-1.647" fill="#15213B"/><path d="M140.841 83.955l-11.454.756-12.973 5.267c1.76 10.668 13.417 18.852 27.516 18.852.136 0 .271 0 .407-.003 9.53-.105 17.9-3.927 22.873-9.667l-22.656-14.95-3.713-.255" fill="#9B8B20"/><path d="M141.847 83.888l-4.272 3.002-11.874.785c1.292 6.444 5.933 12.542 12.94 15.963 9.867 4.818 21.104 2.706 26.845-4.523l-23.64-15.227" fill="#FFF"/><path fill="#15213B" d="M166.67 99.855l-27.18-17.662.907-1.373 27.178 17.662-.906 1.373"/><path d="M149.102 88.397c-7.03-2.068-20.128-.232-20.26-.214l-.236-1.624c.55-.08 13.587-1.907 20.966.264l-.47 1.574m-23.045.751s.717 3.058 3.488 7.009c-3.97-2.357-7.097-6.77-7.097-6.77l3.609-.239" fill="#15213B"/><path d="M174.388 103.95l1.343 3.938-.002.002.015.04-5.69 5.372h-.01l-.052.048-21.841-1.477 31.532 11.133.023.008 3.271 1.155-.004.013 1.046.374s.145.046.399.143l.192.069c.03.01.83.307 1.958.935 1.539.838 3.49 2.169 5.027 4.105.407.513.727.937.977 1.287.704-.351 1.599-1.378 2.038-4.221.968-8.342-15.616-19.89-20.222-22.924" fill="#9B8B20"/><path d="M184.418 124.7c.443.17 1.221.496 2.15 1.002-1.129-.627-1.928-.923-1.958-.934l-.192-.068zm-36.281-12.832l.014.005 21.841 1.477.052-.049-21.907-1.433zm26.216-7.942l1.376 3.964.002-.002-1.343-3.938a1.264 1.264 0 0 1-.035-.024z" fill="#132935"/><path d="M170.055 113.302s4.33-1.102 5.689-5.372l-1.07-2.234-3.096 2.174-4.05 3.822 2.527 1.61m6.93-2.977c-.953 1.756-2.416 2.806-3.536 3.392 0 0 3.652.396 4.706-.312l-1.17-3.08m14.345 19.742s7.031-6.084-.353-15.94c2.872.164 5.802 6.422 5.802 6.422l1.485 8.705-3.022 6.076-1.796 3.227-1.118-6.203-.999-2.287" fill="#15213B"/><path d="M179.683 123.006l4.336 1.55s4.58 1.477 7.576 5.252c2.997 3.775 1.284 2.76 1.284 2.76l-2.24-1.653-1.793-1.85-1.983-1.79-2.063-.826-2.627-.93-2.49-2.513" fill="#15213B"/><path d="M168.49 120.905c.098.118 1.598 1.964.395 3.81l20.322 5.046s-2.082-2.175-5.365-3.428l-15.353-5.428" fill="#9B8B20"/><path d="M168.484 120.899l.005.005 15.353 5.43a11.63 11.63 0 0 0-.325-.12c-3.468-1.228-15.033-5.315-15.033-5.315" fill="#132935"/><path d="M167.16 124.096s-34.964-9.16-65.539-7.271c0 0 20.854 6.118 22.942 13.03 1.695 5.612 15.673-2.49 15.673-2.49l13.64-4.467 13.483 1.597.068-.294-.267-.105" fill="#15213B"/><path d="M135.273 118.23c-1.766-.56-18.62-6.333-25.137-16.919 0 0-10.969 7.93-18.263 14.739 0 0 14.562 9.923 24.772 23.386l7.532-10.495s-2.07-5.925-22.556-12.116c0 0 18.941-.254 33.652 1.406M32.512 87.43c25.094 7.535 53.023 24.28 53.023 24.28 24.075-20.54 41.313-24.844 54.133-28.993 0 0-33.05-9.243-107.156 4.712" fill="#9B8B20"/><path d="M142.539 87.003S117.5 88.24 103.214 98.406c2.578-3.884 21.642-15.679 36.814-15.64 5.659 3.287 2.51 4.237 2.51 4.237" fill="#15213B"/><path d="M161.189 95.79a10.32 10.32 0 0 1-8.57 5.684c-5.688.376-10.606-3.897-10.984-9.543a10.165 10.165 0 0 1 2.532-7.428l17.022 11.286" fill="#FFF"/><path d="M151.926 102.546c-5.934 0-10.946-4.584-11.346-10.545-.201-3.01.79-5.92 2.792-8.189l.61-.693 18.566 12.31-.413.825c-1.795 3.6-5.415 6-9.446 6.267-.257.016-.511.025-.763.025m-7.538-16.634a9.076 9.076 0 0 0-1.699 5.95c.34 5.06 4.765 8.904 9.86 8.565a9.312 9.312 0 0 0 7.241-4.303l-15.402-10.212" fill="#15213B"/><path d="M153.993 92.204h.001l-7.78-1.717a6.103 6.103 0 0 0-.667 3.21c.228 3.417 3.207 6.004 6.65 5.777a6.231 6.231 0 0 0 5.738-5.14l-3.942-2.13m7.807 4.606l7.881 4.955-1.778-5.598s-.521 2.34-3.71.244c-3.19-2.094-2.393.398-2.393.398m-16.241-12.666l-8.113-5.61s2.87 4.566 3.368 7.655l1.725.815 1.02-2.46 2-.4m-58.883 28.318s16.09 10.216 31.658 26.863l-1.52 1.398-31.889-24.316 1.751-3.945" fill="#15213B"/></g></svg>