<svg width="200" height="200" fill="none" xmlns="http://www.w3.org/2000/svg"><path d="m74.2 113.8-7.8-6.7s29.5-6 49.7 2.4c11.1 9.6 11.6 9.6 11.6 9.6L99.3 121l-25.1-7.2Z" fill="#091F40"/><path d="M82.6 112.6s-3.5-3.5-6.3-6c0 0 24.5-3.8 41.5 4 6.3 7 6 8 6 8l-32 4.7-9.2-10.7Z" fill="#091F40"/><path d="M26.1 123s47 11.5 75.2 36.3c-1.4-3.2-10.1-47.9-10.1-47.9S69 107.9 26.1 123Z" fill="#091F40"/><path d="M101.3 159.3s15.8-10.3 27.8-12l-.6-.5-18.4-8-6.4-.1-2.4 20.6Z" fill="#091F40"/><path d="M109.2 147.1c6.4-1.4 15.3-1.1 25.2 1.3l9.4-13c.9-8-26.6-26.9-26.6-26.9l.7 5.8c-13.2-9.9-37.7-6.2-37.7-6.2l5.1 5.9s-21.5.8-40.1 9.8c0 0 35.6 8.6 56.1 34.6l7.9-11.3Z" fill="#C5B682"/><path d="M46.8 123.6c6.5 2 36.5 11.5 54.4 33.8l7.6-10.8h.2c6.8-1.5 15.7-1 25.1 1.2l9.1-12.6c.4-6.1-17.2-19.8-25.3-25.4l.7 5.9-1.1-.8c-11.3-8.5-31.4-6.8-36.2-6.3l5.2 6-1.2.1c-.2-.3-20.7.7-38.5 8.9Zm54.5 35.7-.5-.6c-20.2-25.6-55.4-34.3-55.8-34.4l-1.5-.4 1.4-.7c15.8-7.7 34.8-9.5 39.1-9.8l-5-5.8 1-.2c.1 0 6.3-.9 14-.6 6.8.3 16.2 1.6 23.1 6.2l-.7-5.8 1.1.7c.1 0 7 4.8 13.7 10.5 9.1 7.7 13.6 13.4 13.2 17v.2l-9.7 13.4-.4-.1c-9.3-2.2-18.1-2.6-24.8-1.3l-8.2 11.7Z" fill="#091F40"/><path d="m116.2 112.7-1.4-8.1s28 16.8 30 30.9l-.5.4-1.8-1.6-3-7-8.7-8.3-8.6-6.3-4.3-3.1v4.8l-1.7-1.7Z" fill="#091F40"/><path d="M139.5 131.4s-.3-3.9-7.1-10.6l1.7-.1 5 4.4 2.8 4.6 1.7 4.8-4.1-3.1Z" fill="#091F40"/><path d="m149.6 152.1-15.8-3.9s3-1.5-2.1-4.5c0 .1 17.7 4.9 17.9 8.4Z" fill="#C5B682"/><path d="m134.9 148 13.7 3.4c-1.7-1.9-8.4-4.4-14.2-6.2.6.6.9 1.2.8 1.8 0 .4-.2.6-.3 1Zm15.2 4.9-17.9-4.5 1.3-.6s.6-.3.6-.8c0-.3-.2-1.3-2.7-2.7l-3.7-2.1 4.1 1.1c3 .8 18.2 5.2 18.3 8.9v.7Z" fill="#091F40"/><path d="m117.5 138.6 27.4 9.8s6.4 2.3 5.9 8.4l3.1-5.5c.1.1 1.6-4.9-3.8-10.3-4.7-4.7-14.4-13.2-14.4-13.2l3 8.9-3.3 3.1-17.9-1.2Z" fill="#C5B682"/><path d="m121.5 139.6 23.6 8.4c.1 0 5.4 2 6.2 6.9l2.1-3.8c.3-.9.6-5.2-3.7-9.5-3.5-3.5-9.8-9.2-12.8-11.8l2.4 7.2-3.7 3.6-14.1-1Zm28.5 19.8.2-2.6c.2-2.3-.7-4.4-2.5-6-1.4-1.3-3-1.8-3-1.8l-31.3-11.1 21.8 1.5 2.8-2.7-3.6-10.5 1.6 1.4c.1.1 9.8 8.6 14.4 13.2 5.6 5.6 4 10.7 4 10.8 0 .1-.1.2-.1.3l-4.3 7.5Z" fill="#091F40"/><path d="M124.3 138.6s8.8.8 10.9-1.3c2.1-2.1 1.7-4.2 1-6.2l1.4 2.8.9 2.6-3.2 3.4-4-.3-7-1Z" fill="#091F40"/><path d="m116.8 121.4-7.4.5-8.4 3.4c1.1 6.9 8.7 12.3 17.8 12.3h.3c6.2-.1 11.6-2.6 14.8-6.3l-14.6-9.7-2.5-.2Z" fill="#A38C31"/><path d="m117.4 121.4-2.8 2-7.7.5c.8 4.2 3.8 8.2 8.4 10.4 6.4 3.1 13.6 1.8 17.4-2.9l-15.3-10Z" fill="#fff"/><path d="m116.59 119.33-.603.92 17.571 11.502.602-.92-17.57-11.502Z" fill="#091F40"/><path d="M122.1 124.3c-4.5-1.3-13-.2-13.1-.1l-.2-1.1c.4-.1 8.8-1.2 13.6.2l-.3 1ZM107.2 124.8s.5 2 2.3 4.6c-2.6-1.5-4.6-4.4-4.6-4.4l2.3-.2Z" fill="#091F40"/><path d="m138.5 134.4.9 2.6-3.7 3.5-14.1-1 20.4 7.2 2.1.8.7.2s.1 0 .3.1h.1s.5.2 1.3.6c1 .5 2.3 1.4 3.2 2.7.3.3.5.6.6.8.5-.2 1-.9 1.3-2.7.6-5.3-10.2-12.8-13.1-14.8Z" fill="#A38C31"/><path d="M144.9 147.9c.3.1.8.3 1.4.7-.7-.4-1.2-.6-1.4-.7Z" fill="#002A38"/><path d="M135.7 140.4s2.8-.7 3.7-3.5l-.7-1.5-2 1.4-2.6 2.5 1.6 1.1ZM140.1 138.6c-.6 1.1-1.6 1.8-2.3 2.2 0 0 2.4.3 3-.2l-.7-2ZM149.4 151.4s4.5-4-.2-10.4c1.9.1 3.7 4.2 3.7 4.2l1 5.7-2 4-1.2 2.1-.7-4-.6-1.6Z" fill="#091F40"/><path d="m141.9 146.8 2.8 1s3 1 4.9 3.4c1.9 2.5.8 1.8.8 1.8l-1.4-1.1-1.2-1.2-1.3-1.2-1.3-.5-1.7-.6-1.6-1.6Z" fill="#091F40"/><path d="M134.6 145.4c.1.1 1 1.3.3 2.5l13.1 3.3s-1.3-1.4-3.5-2.2l-9.9-3.6Z" fill="#A38C31"/><path d="m134.6 145.4 9.9 3.5c-.1 0-.1-.1-.2-.1-2.2-.7-9.7-3.4-9.7-3.4Z" fill="#002A38"/><path d="M133.8 147.4s-22.6-6-42.4-4.7c0 0 13.5 4 14.8 8.5 1.1 3.7 10.1-1.6 10.1-1.6l8.8-2.9 8.7 1V147.4Z" fill="#091F40"/><path d="M113.2 143.6c-1.1-.4-12-4.1-16.2-11 0 0-7.1 5.2-11.8 9.6 0 0 9.4 6.5 16 15.2l4.9-6.8s-1.3-3.9-14.6-7.9c-.1.1 12.2-.1 21.7.9ZM46.8 123.7C63 128.6 81 139.4 81 139.4c15.6-13.4 26.7-16.2 35-18.9 0 .1-21.3-5.9-69.2 3.2Z" fill="#A38C31"/><path d="M117.9 123.4s-16.2.8-25.4 7.4c1.7-2.5 14-10.2 23.8-10.2 3.6 2.2 1.6 2.8 1.6 2.8Z" fill="#091F40"/><path d="M129.9 129.1c-1 2.1-3.1 3.5-5.5 3.7-3.7.2-6.9-2.5-7.1-6.2-.1-1.8.5-3.6 1.6-4.8l11 7.3Z" fill="#fff"/><path d="M119.1 122.7c-.8 1.1-1.2 2.5-1.1 3.9.2 3.3 3.1 5.8 6.4 5.6 1.9-.1 3.7-1.2 4.7-2.8l-10-6.7Zm4.8 10.7c-3.8 0-7.1-3-7.3-6.9-.1-2 .5-3.9 1.8-5.3l.4-.5 12 8-.3.5c-1.2 2.3-3.5 3.9-6.1 4.1-.1.1-.3.1-.5.1Z" fill="#091F40"/><path d="m125.3 126.8-5-1.1c-.3.6-.5 1.3-.4 2.1.1 2.2 2.1 3.9 4.3 3.8 1.9-.1 3.4-1.5 3.7-3.3l-2.6-1.5ZM130.3 129.8l5.1 3.2-1.1-3.6s-.3 1.5-2.4.2c-2.1-1.5-1.6.2-1.6.2ZM119.8 121.4l-5.2-3.7s1.9 3 2.2 5l1.1.5.7-1.6 1.2-.2ZM81.8 140s10.4 6.7 20.5 17.5l-1 .9-20.6-15.8 1.1-2.6ZM96.1 54.5H107l1.5 1.6-2.2 13.6-2.4 2H93.4l1.9-11.9-4.5-5.4h5.3v.1Zm-29.9 46.7c7.1-.4 14.7-.7 22.7-.8l2.4-15.1H102l1.5 1.9-2.1 13.1c7.2.1 14.7.3 22.4.8l2.5-15.6-5.7-6.8 7.9-6.8L132 50l-7.5-8.9H67l7.4 8.9-8.2 51.2Z" fill="#091F40"/><path d="M24.1 54.5H42l1.4 1.6L37.6 93l-2.2 1.8H24.9l-1.3-1.5 5.2-33.2-4.7-5.6ZM7.5 108.4s19.1-4.2 48.8-6.5l2.7-2.4L66.9 50l-7.5-8.9H18.2L7.8 50 0 99.4l7.5 9ZM134 101.8c15 1.2 30.7 3.3 46.5 6.5l10.2-8.9L200 41h-22.6l-8.3 52-2.1 1.8h-10.2l-1.4-1.6 8.3-52.2h-31.3l7.4 8.8-7.8 49.6 2 2.4Z" fill="#091F40"/></svg>