<svg width="200" height="200" xmlns="http://www.w3.org/2000/svg"><g fill-rule="nonzero" fill="#0C743D"><path d="M138.545 156.286c-7.71 7.779-20.66 14.434-38.517 14.434-17.854 0-30.814-6.655-38.512-14.434-9.813-9.979-12.609-15.527-12.609-56.015 0-40.482 2.796-46.035 12.61-56.02 7.697-7.768 20.657-14.418 38.51-14.418 17.857 0 30.809 6.65 38.518 14.418 9.801 9.985 12.597 15.538 12.597 56.02 0 40.488-2.796 46.036-12.597 56.015m43.651-113.02c-12.553-12.193-41.358-25.621-82.309-25.638-40.946.017-69.742 13.445-82.301 25.637C.193 60.368 0 80.42 0 100.188c0 19.794.378 39.464 17.586 56.398 12.559 12.196 41.355 25.616 82.301 25.638 40.951-.022 69.756-13.442 82.309-25.638 17.401-17.102 17.59-37.147 17.59-56.928 0-19.777-.38-39.466-17.59-56.393M189.556 169.185c.856 0 1.615.063 1.615.965 0 .969-1.325.806-2.288.806h-1.102v-1.771h1.775Zm.743 2.804c.95-.034 1.898-.55 1.898-1.953 0-1.498-1.158-1.885-2.447-1.885h-3.001v7.125h1.032v-3.287h1.322l1.822 3.287h1.176l-1.802-3.287Zm-1.1 6.012c3.548 0 6.352-2.803 6.352-6.335 0-3.534-2.804-6.336-6.351-6.336-3.544 0-6.351 2.802-6.351 6.336 0 3.532 2.807 6.335 6.35 6.335Zm0-11.64c2.902 0 5.323 2.307 5.323 5.305 0 2.98-2.42 5.302-5.322 5.302-2.901 0-5.32-2.321-5.32-5.302 0-2.998 2.419-5.305 5.32-5.305Z"/></g></svg>