<svg width="200" height="200" xmlns="http://www.w3.org/2000/svg"><g fill-rule="nonzero" fill="none"><path d="M107.893 77a2.988 2.988 0 0 0-2.52 3.407 2.999 2.999 0 0 0 3.407 2.522 2.998 2.998 0 0 0-.887-5.93M113.62 80.762a1.227 1.227 0 0 0-1.036 1.4 1.233 1.233 0 1 0 1.036-1.4M173.7 117.01l-3.58 4.965-.587-4.283c-6.78-.741-11.642 3.438-11.642 3.438l-2.168 6.247s-1.525 4.092-2.528 7.41c-3.013 10.001-6.984 12.471-8.524 13.068h3.41c1.494-.57 4.374-1.92 6.085-4.44 0 0-.38 1.495-1.029 2.659h1.646a13.277 13.277 0 0 0 1.545-.937c5.357-3.79 20.816-28.913 20.816-28.913l-3.443.786" fill="#FFF"/><path d="M117.874 142.97c6.737 3.355 19.368 3.516 19.368 3.516 7.734-3.603 8.662-11.735 8.662-11.735-12.604 9.518-28.03 8.219-28.03 8.219M174.899 100.687c-3.818.853-6.076-.22-6.076-.22 3.692-3.382 7.866-3.582 7.866-3.582-2.524.983-4.893 2.654-1.79 3.802Zm-10.852 5.59c-4.795 1.578-7.898.483-7.898.483 4.224-4.792 9.587-5.565 9.587-5.565-3.103 1.57-5.886 4.004-1.689 5.083Zm-.698-15.488c-2.601 1.006-5.046 2.729-1.844 3.916-3.94.88-6.265-.225-6.265-.225 3.81-3.486 8.109-3.691 8.109-3.691Zm9.648-5.956s9.511 3.194 16.599.326c0 0-28.598-20.839-71.066-31.446 2.178 2.052 3.485 5.697 3.485 5.697s-20.506-7.43-46.742-7.371c1.77 1.974 2.674 4.772 2.807 5.193-.797-.096-17.88-2.166-32.9.346 0 0-1.754.263-4.125.826-.018 0-.031.005-.044.009a51.62 51.62 0 0 0-2.1.542c-2.97.622-7.605 1.808-11.104 3.65 0 0 8.06 1.405 22.016 16.5h5.548c-1.637-3.18-4.788-10.468-3.442-17.282.906.164 1.578.29 1.86.336 5.796 1.273 17.628 5.51 22.169 19.177 0 0 1.479-3.292 1.512-8.079 15.96-6.602 32.16-10.741 38.39-2.597-12.087-4.407-19.17 2.7-16.628 10.134 2.056-8.705 13.156-10.872 20.981-1.798 6.743 7.818 18.153 6.775 18.153 6.775s-1.354-1.729-1.8-3.59c0 0 5.885 2.815 12.817 2.025 0 0-.144-6.023 15.818-.433 0 0-4 3.62-18.557 5.13 0 0 1.546 1.36 4.1 2.157 0 0-15.97 4.404-27.08.86 0 0 2.696-2.167 3.248-4.098 0 0-9.311 4.666-16.557-.043-6.515-4.235-10.372-2.9-10.372-2.9s5.37 2.239 6.15 6.936c0 0-27.46 4.6-43.78-5.12 0 0 4.916 11.285 20.009 14.304 8.27-1.114 20.403-4.04 39.039 1.485-5.67.142-8.158 3.864-9.616 5.48-8.826.845-28.436 1.243-52.433-.662 0 0 61.918 12.853 85.112-2.838-8.454 10.85-28.923 11.349-36.026 11.467-.42 1.366-.45 5.416-.227 5.772-4.252 1.369-21.488 2.156-32.312 2.274 0 0 50.873 4.971 70.677-8.675-2.101 3.672-10.677 13.396-36.997 12.888 4.61 11.543 17.048 14.255 31.755-.693 28.639-25.47 39.54-15.375 42.338-27.754 1.593-7.046-11.522-7.979-10.675-14.91Z" fill="#DC3821"/><path d="M174.899 100.687c-3.103-1.148-.734-2.82 1.79-3.802 0 0-4.174.2-7.866 3.581 0 0 2.258 1.074 6.076.22M161.505 94.705c-3.202-1.187-.757-2.91 1.844-3.916 0 0-4.299.205-8.11 3.69 0 0 2.327 1.106 6.266.226M165.736 101.195s-5.363.773-9.587 5.565c0 0 3.103 1.095 7.898-.482-4.197-1.079-1.414-3.513 1.69-5.083" fill="#100F0D"/><path d="M112.584 82.163a1.227 1.227 0 0 1 1.036-1.4 1.23 1.23 0 0 1 1.402 1.039c.101.672-.356 1.3-1.036 1.4a1.233 1.233 0 0 1-1.402-1.04Zm-4.69-5.164a2.997 2.997 0 0 1 .886 5.93 2.999 2.999 0 0 1-3.406-2.522 2.988 2.988 0 0 1 2.52-3.408Zm75.778 22.744c-2.798 12.379-13.7 2.285-42.338 27.754-14.707 14.948-27.145 12.236-31.755.693 26.32.508 34.896-9.216 36.997-12.888-19.804 13.646-70.677 8.675-70.677 8.675 10.824-.118 28.06-.905 32.312-2.274-.224-.356-.194-4.406.227-5.772 7.103-.118 27.572-.617 36.026-11.467-23.194 15.691-85.112 2.838-85.112 2.838 23.997 1.905 43.607 1.507 52.433.661 1.458-1.615 3.947-5.337 9.616-5.48-18.636-5.524-30.768-2.598-39.04-1.484-15.092-3.02-20.007-14.304-20.007-14.304 16.318 9.72 43.779 5.12 43.779 5.12-.78-4.697-6.15-6.937-6.15-6.937s3.857-1.334 10.372 2.901c7.246 4.71 16.557.043 16.557.043-.552 1.931-3.248 4.098-3.248 4.098 11.11 3.544 27.08-.86 27.08-.86-2.554-.797-4.1-2.156-4.1-2.156 14.558-1.51 18.557-5.13 18.557-5.13-15.962-5.59-15.818.432-15.818.432-6.932.79-12.817-2.026-12.817-2.026.446 1.862 1.8 3.591 1.8 3.591s-11.41 1.043-18.153-6.775c-7.825-9.074-18.925-6.907-20.98 1.798-2.543-7.434 4.54-14.541 16.627-10.134-6.23-8.144-22.43-4.005-38.39 2.597-.033 4.787-1.512 8.079-1.512 8.079-4.541-13.668-16.373-17.904-22.17-19.177-.28-.046-.953-.172-1.86-.336-1.345 6.814 1.806 14.102 3.443 17.282h-5.548c-13.955-15.095-22.016-16.5-22.016-16.5 3.5-1.842 8.134-3.028 11.105-3.65a51.62 51.62 0 0 1 2.1-.542c.012-.004.025-.01.043-.01 2.37-.562 4.125-.825 4.125-.825 15.02-2.512 32.103-.442 32.9-.346-.133-.421-1.038-3.22-2.807-5.193 26.236-.058 46.742 7.37 46.742 7.37s-1.307-3.644-3.485-5.696c42.468 10.607 71.066 31.446 71.066 31.446-7.088 2.868-16.599-.326-16.599-.326-.847 6.931 12.268 7.864 10.675 14.91Zm-27.344 45.394c-.47.335-.993.648-1.545.937h-1.646c.65-1.164 1.029-2.66 1.029-2.66-1.711 2.52-4.591 3.87-6.085 4.441h-3.41c1.54-.597 5.511-3.067 8.524-13.068 1.003-3.318 2.528-7.41 2.528-7.41l2.168-6.247s4.862-4.18 11.642-3.438l.587 4.283 3.58-4.965 3.444-.786s-15.46 25.123-20.816 28.913Zm-19.086 1.35s-12.631-.162-19.368-3.517c0 0 15.426 1.299 28.03-8.219 0 0-.928 8.132-8.662 11.735Zm34.53-78.502a197.075 197.075 0 0 0-17.296-8.322c-17.06-7.157-34.177-11.407-50.379-13.715a188.172 188.172 0 0 0-24.255-1.567c-20.923 0-44.007 3.474-68.78 12.407a238.523 238.523 0 0 0-7.159 2.71c-1.294.49-2.599.994-3.903 1.515 0 0 4.41.998 10.862 3.928 9.183 4.177 22.504 12.27 33.127 26.98-.693.016-1.434.026-2.216.026-1.205 0-2.495-.027-3.816-.096-2.45-.099-5.71-.339-8.532-.922a27.361 27.361 0 0 1-1.618-.39s.37.92 1.231 2.45c2.64 4.697 9.92 15.146 25.471 22.673 0 0-.658.141-1.863.26-.652.069-1.457.129-2.408.161-.42.011-.856.023-1.325.023-.144 0-.29 0-.432-.005a47.53 47.53 0 0 1-6.713-.552c.326.332.943 1.054 1.85 2.048 5.016 5.505 18.963 19.473 41.67 23.566.088.009.174.03.266.048 0 0-2.94.622-7.207.844-.91.045-1.883.07-2.903.07a49.82 49.82 0 0 1-4.002-.152 97.691 97.691 0 0 0 3.19 1.588c.094.04.185.084.273.129 6.91 4.23 24.61 12.532 56.956 12.532 5.792 0 12.05-.268 18.808-.872.288-.024.585-.058.871-.08.483-.046.963-.087 1.447-.139h.01c.148-.052.295-.107.444-.168 5.086-2.058 12.052-10.63 19.04-21.049 11.24-16.768 22.518-38.291 26.005-45.085.712-1.387 1.1-2.155 1.1-2.155a182.47 182.47 0 0 0-27.814-18.69ZM45.433 139.553a3.398 3.398 0 0 1-2.502 1.034c-.975 0-1.812-.345-2.496-1.034a3.406 3.406 0 0 1-1.029-2.495c0-.976.345-1.804 1.03-2.483.694-.69 1.526-1.034 2.495-1.034.976 0 1.813.344 2.502 1.034.68.679 1.024 1.507 1.024 2.483a3.42 3.42 0 0 1-1.024 2.495Zm-2.51-6.574c-1.114 0-2.08.404-2.877 1.193a3.944 3.944 0 0 0-1.187 2.88c0 1.133.394 2.092 1.182 2.89.793.793 1.758 1.197 2.881 1.197 1.133 0 2.098-.404 2.895-1.197.788-.798 1.191-1.768 1.191-2.89 0-1.128-.403-2.083-1.19-2.88-.798-.789-1.763-1.193-2.896-1.193Z" fill="#100F0D"/><path d="M43.537 136.855c-.163.064-.418.098-.753.098h-.728v-1.6h.688c.443 0 .759.06.965.163.198.108.306.329.306.65 0 .335-.158.565-.478.689Zm1.236-.763c0-.562-.226-.936-.69-1.123-.255-.118-.669-.167-1.23-.167h-1.566v4.466h.769v-1.759h.639c.424 0 .71.04.886.138.286.168.434.512.434 1.02v.36l.01.142c.005.026.005.035.01.05.01.014.01.034.01.049h.728l-.02-.06a.629.629 0 0 1-.039-.231c-.01-.118-.01-.237-.01-.335v-.324c0-.228-.084-.454-.247-.69-.157-.241-.412-.38-.767-.439.286-.048.492-.112.65-.21.296-.198.433-.484.433-.887Z" fill="#100F0D"/></g></svg>