<svg width="200" height="200" xmlns="http://www.w3.org/2000/svg"><g fill="none" fill-rule="evenodd"><path d="M178.655 115.588c0 28.1-37.986 51.233-86.79 54.207a174.1 174.1 0 0 0 10.665.326c53.822-.001 97.455-24.418 97.454-54.534-.001-30.116-43.635-54.53-97.458-54.528-3.604 0-7.162.113-10.665.327 48.805 2.971 86.792 26.102 86.794 54.202" fill="#000" fill-rule="nonzero"/><path d="M22.06 79.296c-1.93 28.033 34.377 53.72 82.862 60.039a175.27 175.27 0 0 1-10.661-.408C40.565 135.231-1.29 107.876.78 77.831c2.068-30.045 47.276-51.405 100.97-47.707 3.597.247 7.138.604 10.618 1.057-48.893-.386-88.38 20.082-90.31 48.115" fill="#000" fill-rule="nonzero"/><path d="M175.904 67.677c-14.026-6.285-33.984-15.175-33.984-15.175l-14.14-1.754-24.221-7.343-3.598 6.997S34.49 37.743 34.43 85.08c0 0 1.586-7.048 10.476-11.012-4.08 11.453-.41 29.67 22.247 55.155 9.321 11.468 12.707 17.185 11.768 31.75 2.192-1.723 44.33-39.558 58.356-4.791 2.067-3.233 10.385-16.215 21.22-33.333l-2.616-14.37 13.855-3.45c3.795-6.04 6.843-12.747 10.778-19.069 2.402-4.13 9.272-12.35-4.61-18.284" fill="#000" fill-rule="nonzero"/><path d="M173.032 71.284c-9.442-2.276-21.895 2.512-22.12 2.541-10.011 3.67-16.887 4.8-29.532 1.625-22.683-6.14-44.417-4.004-46.252 20.122-.93 12.209 5.31 17.637 9.764 33.671 5.051 18.183-2.694 25.927-2.694 25.927 3.704-19.53-3.739-24.827-12.8-37.89-20.035-28.885 4.205-48.174 28.989-51.813 10.793-1.584 35.412-2.808 40.21 4.684 1.263 1.936 3.605 3.444 9.767 1.18 9.17-3.37 20.158-4.077 24.668-.047zm-45.294-8.204c9.68 1.684 14.706-1.776 15.03-1.876l9.083 5.073s4.227 2.5 7.937-.73c-9.27-3.956-19.366-8.204-19.366-8.204l-15.004-2.114-19.886-5.905-2.41 5.012s-16.95-2.8-36.312 5.533c-26.813 11.54-12.557 38.58-12.557 38.58-3.723-40.325 44.023-40.336 73.485-35.369zm15.775 58.014c-3.218-7.026 4.546-14.808 1.555-19.984-1.172-2.026-2.857-2.8-5.021-2.668 6.176 4.287.335 13.636.3 13.703-1.99 3.979.009 8.259.009 8.259s-5.72-1.687-3.218-7.963c4.307-10.806-1.87-10.71-3.498-10.105 0 0-9.24 9.71 2.277 21.057 1.41 1.39 2.936 1.625 5.9 1.212 3.087-.43 2.191-2.429 1.696-3.511z" fill="#F36717"/><path d="M168.47 78.534c-17.562-5.535-25.76 6.995-45.827 2.488-18.186-4.086-49.84 5.516-30.01 36.36 10.571 16.446.477 30.39.47 30.424 3.776-3.49 13.113-10.111 9.887-26.896-7.13-37.102 26.685-33.081 26.685-33.081-16.78 2.01-26.118 34.37-3.788 46.758 10.912 6.405 11.5 12.984 11.5 12.984s4.344-6.813 9.043-14.565c0 0-21.049-1.742-21.067-21.716-.007-8.604 8.48-13.932 11.031-15.614 3.455-2.279 6.45-6.45 6.45-6.45 10.11-12.807 17.607-6.883 19.5-2.135 1.376 3.446 11.019 5.395 12.091.548.835-4.412-1.693-7.668-5.965-9.105" fill="#FFF" fill-rule="nonzero"/><path d="M151.706 117.977s.906 5.277-2.636 10.01c-1.005 1.342-3.276.962-3.397-.384-.149-1.636 4.036-3.452 6.033-9.626m13.576-25.956c-.537 2.331-1.235 5.39-4.037 9.54 0 0 5.564-3.568 8.067-9.085-.928.141-2.255.11-4.03-.455m-10.412-7.579c-2.285 3.402-.366 8.207-5.751 17.393 0 0 8.16-5.968 10.236-14.186-1.442-3.601-4.193-3.23-4.485-3.207m-8.145 29.713c-4.929 9.701-9.011 8.901-9.236 11.548-.143 1.685 1.487 2.53 2.781 1.92.497-.245 1.029-.64 1.583-1.23 5.04-5.39 4.872-12.238 4.872-12.238" fill="#FFF" fill-rule="nonzero"/><path d="M147.736 65.723c-.897.648-3.038 1.357-3.038 1.357.608.72 2.367 1.67 3.12 1.572.019-.052.727-1.48-.082-2.93m-8.73 1.556c0 2.055 2.027 3.728 4.517 3.728v-.001c-3.967-2.507-1.745-6.25-.44-7.435-2.285.183-4.077 1.776-4.077 3.708" fill="#FFF"/><path d="M164.71 161.491c1.044 0 1.875.849 1.875 1.909 0 1.077-.831 1.917-1.883 1.917a1.893 1.893 0 0 1-1.891-1.917c0-1.06.848-1.909 1.891-1.909h.009zm-.008.298c-.84 0-1.526.72-1.526 1.61 0 .908.686 1.62 1.535 1.62.848.009 1.526-.712 1.526-1.61 0-.9-.678-1.62-1.526-1.62h-.009zm-.357 2.722h-.338v-2.129c.178-.025.348-.05.602-.05.322 0 .534.067.661.16s.195.238.195.441c0 .28-.186.45-.415.518v.016c.186.035.313.204.355.518.052.33.103.457.137.526h-.356c-.052-.069-.102-.263-.145-.543-.051-.272-.186-.373-.457-.373h-.239v.916zm0-1.179h.247c.28 0 .517-.102.517-.365 0-.187-.135-.373-.517-.373-.11 0-.187.009-.247.017v.721z" fill="#231F20" fill-rule="nonzero"/></g></svg>