<svg width="200" height="200" xmlns="http://www.w3.org/2000/svg"><g fill="none" fill-rule="evenodd"><path d="M177.42 58.308c14.632 13.398 24.37 30.524 20.324 50.858-5.551 30.572-38.202 50.055-65.725 55.907-23.007 5.661-49.964 3.868-72.03-2.358-22.16-7.031-47.236-21.703-56.457-45.435-7.34-22.126 1.882-44.3 19.101-58.972 23.9-20.098 53.212-27.789 85.815-26.137 25.641 2.264 49.259 9.435 68.972 26.137" fill="#FFF" fill-rule="nonzero"/><path d="M177.42 58.308c14.632 13.398 24.37 30.524 20.324 50.858-5.551 30.572-38.202 50.055-65.725 55.907-23.007 5.661-49.964 3.868-72.03-2.358-22.16-7.031-47.236-21.703-56.457-45.435-7.34-22.126 1.882-44.3 19.101-58.972 23.9-20.098 53.212-27.789 85.815-26.137 25.641 2.264 49.259 9.435 68.972 26.137z" stroke="#FFF" stroke-linecap="square"/><path d="M172.245 57.741c12.28 9.86 20.842 22.457 23.006 37.13 2.588 22.693-11.62 41.941-30.251 53.547-25.077 15.286-56.929 20.382-88.074 14.956-19.807-3.443-41.637-16.749-47.847-37.46-6.258-18.21-1.694-38.827 11.62-52.227 8.328-9.105 18.302-15.946 28.323-21.513h-1.13c-17.03 3.917-32.98 10.946-45.494 25.382-11.668 13.069-12.797 35.1-5.88 50.717 1.41 3.586 3.669 6.794 5.645 10.096C8.283 126.008.286 108.411 5.555 89.681c7.293-27.6 36.557-44.3 61.539-50.858 36.462-8.964 76.358-2.5 105.151 18.918" fill="#0E2B58" fill-rule="nonzero"/><path d="M172.245 57.741c12.28 9.86 20.842 22.457 23.006 37.13 2.588 22.693-11.62 41.941-30.251 53.547-25.077 15.286-56.929 20.382-88.074 14.956-19.807-3.443-41.637-16.749-47.847-37.46-6.258-18.21-1.694-38.827 11.62-52.227 8.328-9.105 18.302-15.946 28.323-21.513h-1.13c-17.03 3.917-32.98 10.946-45.494 25.382-11.668 13.069-12.797 35.1-5.88 50.717 1.41 3.586 3.669 6.794 5.645 10.096C8.283 126.008.286 108.411 5.555 89.681c7.293-27.6 36.557-44.3 61.539-50.858 36.462-8.964 76.358-2.5 105.151 18.918z" stroke="#0E2B58" stroke-linecap="square"/><path d="M101.438 52.08c13.314 2.406 25.922 6.51 38.297 11.323 3.998 1.982 5.787 6.7 9.222 9.86 10.255 8.35 22.864 12.408 31.286 23.637 3.012 5.472-.071 11.098-3.248 15.521-6.256 5.473-13.548 8.304-20.464 12.125-6.823 3.208-13.644 6.369-20.654 9.059-.518.282.141.542.47.872l.423.354c9.88-3.35 19.714-6.747 29.359-10.615-.989 3.397-2.823 6.888-4.375 10.285-2.212 3.491-3.988 10.827-15.386 9.389l-28.087-4.389c-13.503 3.35-26.535 8.352-41.448 7.454-5.364-.518-10.352-3.113-13.456-7.925-1.977-3.586-3.2-7.643-2.823-12.124.705.518 1.223 1.51 1.835 2.264 13.267 15.191 36.79 12.408 54.622 8.87 12.278-4.058 24.182-8.965 35.473-15.286 4.376-3.068 7.246-7.502 6.776-12.928-.94-11.134-13.126-17.74-21.783-21.843-6.963-2.454-14.21-4.577-22.16-4.294l17.503-7.925c1.222-.33 1.786.896 2.258 1.698.658 1.746.8 3.963-.331 5.52 3.26.779 5.13 1.227 7.67 1.84 9.832 3.444 20.136 8.303 26.3 17.975 1.693 3.114 2.07 7.123 1.034 10.662l.236.33c4.94-1.698 6.715-5.968 8.139-11.087-.14-5.85-6.21-9.294-10.163-12.785-6.398-4.765-13.173-8.539-19.76-12.833-4.14-2.453-5.551-7.831-9.974-9.624-7.95-2.548-17.455-1.038-25.97-.66C97.486 68.404 83.7 72.414 71.75 80.858c1.318-10.755 3.764-21.277 7.434-31.137 1.74-4.01 3.764-9.058 8.374-10.663 7.104.237 10.068 8.351 13.88 13.022" fill="#FFF" fill-rule="nonzero"/><path d="M101.438 52.08c13.314 2.406 25.922 6.51 38.297 11.323 3.998 1.982 5.787 6.7 9.222 9.86 10.255 8.35 22.864 12.408 31.286 23.637 3.012 5.472-.071 11.098-3.248 15.521-6.256 5.473-13.548 8.304-20.464 12.125-6.823 3.208-13.644 6.369-20.654 9.059-.518.282.141.542.47.872l.423.354c9.88-3.35 19.714-6.747 29.359-10.615-.989 3.397-2.823 6.888-4.375 10.285-2.212 3.491-3.988 10.827-15.386 9.389l-28.087-4.389c-13.503 3.35-26.535 8.352-41.448 7.454-5.364-.518-10.352-3.113-13.456-7.925-1.977-3.586-3.2-7.643-2.823-12.124.705.518 1.223 1.51 1.835 2.264 13.267 15.191 36.79 12.408 54.622 8.87 12.278-4.058 24.182-8.965 35.473-15.286 4.376-3.068 7.246-7.502 6.776-12.928-.94-11.134-13.126-17.74-21.783-21.843-6.963-2.454-14.21-4.577-22.16-4.294l17.503-7.925c1.222-.33 1.786.896 2.258 1.698.658 1.746.8 3.963-.331 5.52 3.26.779 5.13 1.227 7.67 1.84 9.832 3.444 20.136 8.303 26.3 17.975 1.693 3.114 2.07 7.123 1.034 10.662l.236.33c4.94-1.698 6.715-5.968 8.139-11.087-.14-5.85-6.21-9.294-10.163-12.785-6.398-4.765-13.173-8.539-19.76-12.833-4.14-2.453-5.551-7.831-9.974-9.624-7.95-2.548-17.455-1.038-25.97-.66C97.486 68.404 83.7 72.414 71.75 80.858c1.318-10.755 3.764-21.277 7.434-31.137 1.74-4.01 3.764-9.058 8.374-10.663 7.104.237 10.068 8.351 13.88 13.022z" stroke="#FFF" stroke-linecap="square"/><path d="M96.122 50.476c.329.66.988 1.132.894 1.934-8.28 3.444-15.15 12.267-19.525 19.72h-.236c1.224-8.822 3.482-17.173 7.246-24.91 1.082-1.462 1.741-3.49 3.623-4.198 4.093.282 5.598 4.859 7.998 7.454" fill="#0E2B58" fill-rule="nonzero"/><path d="M96.122 50.476c.329.66.988 1.132.894 1.934-8.28 3.444-15.15 12.267-19.525 19.72h-.236c1.224-8.822 3.482-17.173 7.246-24.91 1.082-1.462 1.741-3.49 3.623-4.198 4.093.282 5.598 4.859 7.998 7.454z" stroke="#0E2B58" stroke-linecap="square"/></g></svg>