<svg width="200" height="200" xmlns="http://www.w3.org/2000/svg"><g fill="none" fill-rule="evenodd"><path d="M178.212 57.819c14.78 13.496 24.616 30.747 20.53 51.23-5.608 30.794-38.589 50.42-66.39 56.314-23.239 5.703-50.469 3.897-72.757-2.375-22.383-7.082-47.713-21.862-57.028-45.766C-4.846 94.934 4.47 72.6 21.862 57.82c24.142-20.245 53.749-27.992 86.682-26.328 25.9 2.281 49.756 9.505 69.668 26.328" fill="#FFF" fill-rule="nonzero"/><path d="M178.212 57.819c14.78 13.496 24.616 30.747 20.53 51.23-5.608 30.794-38.589 50.42-66.39 56.314-23.239 5.703-50.469 3.897-72.757-2.375-22.383-7.082-47.713-21.862-57.028-45.766C-4.846 94.934 4.47 72.6 21.862 57.82c24.142-20.245 53.749-27.992 86.682-26.328 25.9 2.281 49.756 9.505 69.668 26.328Z" stroke="#FFF" stroke-linecap="square"/><path d="M172.985 57.248c12.403 9.932 21.052 22.621 23.238 37.401 2.614 22.859-11.738 42.248-30.557 53.938-25.33 15.397-57.503 20.53-88.963 15.065-20.007-3.468-42.057-16.871-48.33-37.733-6.321-18.344-1.711-39.111 11.737-52.608 8.412-9.172 18.487-16.063 28.61-21.67h-1.142c-17.202 3.945-33.313 11.025-45.954 25.566-11.786 13.165-12.926 35.358-5.94 51.088 1.426 3.612 3.707 6.843 5.703 10.17C7.367 126.013-.711 108.288 4.611 89.42c7.366-27.8 36.926-44.624 62.16-51.23 36.83-9.028 77.13-2.518 106.214 19.057" fill="#0E2B58" fill-rule="nonzero"/><path d="M172.985 57.248c12.403 9.932 21.052 22.621 23.238 37.401 2.614 22.859-11.738 42.248-30.557 53.938-25.33 15.397-57.503 20.53-88.963 15.065-20.007-3.468-42.057-16.871-48.33-37.733-6.321-18.344-1.711-39.111 11.737-52.608 8.412-9.172 18.487-16.063 28.61-21.67h-1.142c-17.202 3.945-33.313 11.025-45.954 25.566-11.786 13.165-12.926 35.358-5.94 51.088 1.426 3.612 3.707 6.843 5.703 10.17C7.367 126.013-.711 108.288 4.611 89.42c7.366-27.8 36.926-44.624 62.16-51.23 36.83-9.028 77.13-2.518 106.214 19.057Z" stroke="#0E2B58" stroke-linecap="square"/><path d="M101.463 51.545c13.448 2.424 26.183 6.559 38.683 11.406 4.04 1.997 5.846 6.749 9.315 9.932 10.359 8.412 23.096 12.5 31.602 23.81 3.043 5.512-.072 11.18-3.28 15.634-6.32 5.513-13.685 8.364-20.67 12.214-6.893 3.23-13.783 6.415-20.864 9.124-.523.285.143.547.475.88l.427.355c9.98-3.374 19.913-6.795 29.656-10.692-.999 3.422-2.852 6.938-4.42 10.36-2.234 3.517-4.028 10.907-15.54 9.457l-28.371-4.42c-13.64 3.374-26.803 8.412-41.867 7.508-5.418-.522-10.456-3.135-13.592-7.983-1.997-3.611-3.232-7.698-2.852-12.213.713.523 1.236 1.521 1.854 2.281 13.401 15.303 37.162 12.499 55.174 8.934 12.402-4.087 24.426-9.029 35.831-15.397 4.42-3.09 7.319-7.556 6.844-13.022-.95-11.215-13.258-17.868-22.002-22.002-7.034-2.472-14.353-4.61-22.384-4.325l17.68-7.983c1.234-.334 1.804.903 2.28 1.71.665 1.758.807 3.992-.334 5.56 3.293.785 5.18 1.236 7.747 1.854 9.932 3.468 20.34 8.364 26.566 18.106 1.71 3.136 2.09 7.175 1.045 10.74l.238.333c4.99-1.711 6.783-6.012 8.22-11.168-.141-5.894-6.272-9.363-10.264-12.879-6.463-4.8-13.307-8.601-19.96-12.926-4.181-2.472-5.607-7.889-10.075-9.695-8.03-2.567-17.631-1.045-26.232-.665-14.922 1.616-28.847 5.655-40.917 14.161 1.33-10.834 3.802-21.432 7.509-31.365 1.758-4.039 3.801-9.124 8.458-10.74 7.177.238 10.17 8.412 14.02 13.116" fill="#FFF" fill-rule="nonzero"/><path d="M101.463 51.545c13.448 2.424 26.183 6.559 38.683 11.406 4.04 1.997 5.846 6.749 9.315 9.932 10.359 8.412 23.096 12.5 31.602 23.81 3.043 5.512-.072 11.18-3.28 15.634-6.32 5.513-13.685 8.364-20.67 12.214-6.893 3.23-13.783 6.415-20.864 9.124-.523.285.143.547.475.88l.427.355c9.98-3.374 19.913-6.795 29.656-10.692-.999 3.422-2.852 6.938-4.42 10.36-2.234 3.517-4.028 10.907-15.54 9.457h0l-28.371-4.42c-13.64 3.374-26.803 8.412-41.867 7.508-5.418-.522-10.456-3.135-13.592-7.983-1.997-3.611-3.232-7.698-2.852-12.213.713.523 1.236 1.521 1.854 2.281 13.401 15.303 37.162 12.499 55.174 8.934 12.402-4.087 24.426-9.029 35.831-15.397 4.42-3.09 7.319-7.556 6.844-13.022-.95-11.215-13.258-17.868-22.002-22.002-7.034-2.472-14.353-4.61-22.384-4.325l17.68-7.983c1.234-.334 1.804.903 2.28 1.71.665 1.758.807 3.992-.334 5.56 3.293.785 5.18 1.236 7.747 1.854 9.932 3.468 20.34 8.364 26.566 18.106 1.71 3.136 2.09 7.175 1.045 10.74l.238.333c4.99-1.711 6.783-6.012 8.22-11.168-.141-5.894-6.272-9.363-10.264-12.879-6.463-4.8-13.307-8.601-19.96-12.926-4.181-2.472-5.607-7.889-10.075-9.695-8.03-2.567-17.631-1.045-26.232-.665-14.922 1.616-28.847 5.655-40.917 14.161 1.33-10.834 3.802-21.432 7.509-31.365 1.758-4.039 3.801-9.124 8.458-10.74 7.177.238 10.17 8.412 14.02 13.116h0Z" stroke="#FFF" stroke-linecap="square"/><path d="M96.093 49.93c.332.665.997 1.14.903 1.949-8.364 3.468-15.303 12.355-19.723 19.864h-.237c1.235-8.887 3.517-17.299 7.319-25.092 1.092-1.473 1.758-3.517 3.659-4.23 4.134.285 5.655 4.895 8.079 7.509" fill="#0E2B58" fill-rule="nonzero"/><path d="M96.093 49.93c.332.665.997 1.14.903 1.949-8.364 3.468-15.303 12.355-19.723 19.864h-.237c1.235-8.887 3.517-17.299 7.319-25.092 1.092-1.473 1.758-3.517 3.659-4.23 4.134.285 5.655 4.895 8.079 7.509h0Z" stroke="#0E2B58" stroke-linecap="square"/></g></svg>