<svg width="200" height="200" xmlns="http://www.w3.org/2000/svg"><g fill="none"><path d="M175.053.775H18.699l.017 53.95v33.994c0 46.187 52.573 93.311 78.03 108.894l3.159 1.928 3.19-1.928c25.46-15.58 78.034-62.7 78.034-108.894l-.03-87.944h-6.046" fill="#FFF"/><path d="M175.053 6.823H24.749l.014 47.9v33.996c0 43.445 51.633 89.347 75.142 103.736v.022c.006 0 .013-.006.02-.006.003 0 .007.006.01.006v-.022c23.517-14.39 75.144-60.291 75.144-103.736l-.026-81.896" fill="#1F2854"/><path d="M32.272 61.793v26.926c0 35.943 42.052 77.634 67.652 94.803 25.59-17.17 67.652-58.86 67.652-94.803V61.793c-12.208.061-123.105.061-135.304 0" fill="#FFF"/><path d="M109.322 102.886h-1.982l-.077-12.698h4.363c.54 0 4.33-.193 5.333 5.388 0 5.325-2.216 7.31-7.637 7.31m1.045 15.993c24.791 0 30.438-13.992 30.438-25.733 0-16.599-10.536-23.878-28.866-23.878H72.534l.03 15.917 2.291.008c4.486 0 8.283 1.66 8.283 6.34l.142 38.68c0 1.832-.542 9.21-7.52 9.21l-3.228.007.02 15.035h45.4v-15.042h-2.541c-7.19 0-8.115-4.914-8.115-7.966V118.88h3.07" fill="#FFF"/><path d="M104.634 87.615h6.982c1.062 0 2.58.326 3.996 1.256l10.5-14.95c-3.942-1.74-8.869-2.17-14.265-2.17H75.274s.09 10.951 0 10.861c4.023 0 10.176 1.824 10.176 7.805v40.935l19.184-27.018v-16.72" fill="#961A1F"/><path d="M118.735 90.58c-.015-.013-.015-.044-.028-.066.005.033.013.053.028.066" fill="#154281"/><path d="M131.224 75.311l.002-.006a14.985 14.985 0 0 0-.796-.655c.277.21.533.43.794.661m-12.838 14.392c.101.13.206.264.29.407a3.746 3.746 0 0 0-.29-.407m11.008-15.848a.374.374 0 0 0 .096.062c-.03-.015-.06-.048-.096-.062m-10.486 16.693a5.13 5.13 0 0 0-.383-.438c.144.143.261.29.383.438m-14.024 14.839c1.642-.374 1.065-1.917 1.065-1.917l-1.204-1.556-19.295 27.127-.665 1.979c0 .009.665.032.665.036l20.984-25.556h-1.661" fill="#FFF"/><path d="M130.143 74.988a27.55 27.55 0 0 0-.993-.732c-.015-.011-.031-.017-.045-.035a21.292 21.292 0 0 0-3.432-1.894l-11.592 16.177c.804.535 1.819.854 2.455 1.828.207.309 1.384-.554 1.563-.186.046.096.096.194.138.298.066.144.123.29.184.44l12.513-15.239a14.47 14.47 0 0 0-.79-.657" fill="#FFF"/><path d="M118.707 90.548l12.517-15.237c5.18 4.378 6.795 11.125 6.795 17.58 0 15.627-9.252 23.443-27.75 23.443h-5.681v15.968c0 5.417 2.993 9.205 10.773 9.205v10.444H75.274s-.042-10.402 0-10.444c6.518 0 10.17-4.428 10.176-10.45l20.984-25.557h2.769c5.23 0 10.294-1.969 10.294-10.148-.002-1.393-.236-3.37-.79-4.804" fill="#1F2854"/><path d="M49.745 29.573h1.796c1.917 0 3.798-.65 3.836-3.35.04-2.66-1.632-3.514-3.063-3.514h-2.611l.042 6.864m0 5.227l-.042 4.449c0 1.837.978 2.904 4.082 2.904v3.956H37.367s.042-3.956.081-3.956c2.573 0 4.045-1.267 4.087-3.35V24.344c.04-2.042-2.207-2.617-3.76-2.617v-4.122h15.931c6.249 0 10.66 2.367 10.579 8.047C64.2 31 60.197 34.8 52.805 34.8h-3.06M86.01 24.587s.165-2.979-3.308-2.979h-3.755v7.676h2c2.002 0 2.002-1.999 2.002-1.999h3.47v7.8h-3.47s-.207-1.962-2.084-1.962h-1.918v8.698h3.836c1.796 0 3.35-.856 3.392-3.469h5.635v7.757l-25.321.047v-4.003c1.878 0 4.328-.822 4.328-3.35l-.04-14.5c0-2.127-3.022-2.531-3.883-2.531 0-2.166-.041-4.166-.041-4.166H91.81v6.98h-5.8m32.676 8.701V25.61c0-2.412-.858-3.883-4.287-3.883v-4.164h14.54v4.128c-2.699 0-3.963.16-3.963 3.513 0 3.717.039 20.904.039 20.904h-7.268L107.699 32.55s-.042 4.452-.042 5.676c0 2.66 1.389 3.846 4.331 3.846 0 1.793-.044 4.036-.044 4.036H97.61V42.19c2.777 0 4.004-1.51 4.004-3.964v-13.84c0-2.046-1.593-2.695-3.716-2.695v-4.128h9.476l11.312 15.723m34.838.001V25.61c0-2.412-.858-3.883-4.29-3.883v-4.164h14.544v4.128c-2.696 0-3.964.16-3.964 3.513 0 3.717.04 20.904.04 20.904h-7.27L142.537 32.55s-.045 4.452-.045 5.676c0 2.66 1.391 3.846 4.336 3.846 0 1.793-.045 4.036-.045 4.036h-14.334V42.19c2.775 0 4.003-1.51 4.003-3.964v-13.84c0-2.046-1.592-2.695-3.716-2.695v-4.128h9.473l11.315 15.723" fill="#FFF"/></g></svg>