<svg width="200" height="200" xmlns="http://www.w3.org/2000/svg"><g fill-rule="nonzero" fill="none"><path d="M174.354.775H18l.017 53.95v33.994c0 46.187 52.573 93.311 78.03 108.894l3.159 1.928 3.189-1.928c25.46-15.58 78.035-62.7 78.035-108.894L180.4.775h-6.046" fill="#FFF"/><path d="M174.354 6.823H24.05l.014 47.9v33.996c0 43.445 51.633 89.347 75.142 103.736v.022c.006 0 .013-.006.019-.006.004 0 .008.006.01.006v-.022c23.518-14.39 75.145-60.291 75.145-103.736l-.026-81.896" fill="#1F2854"/><path d="M31.572 61.793v26.926c0 35.943 42.053 77.634 67.653 94.803 25.59-17.17 67.652-58.86 67.652-94.803V61.793c-12.209.061-123.105.061-135.305 0" fill="#FFF"/><path d="M108.623 102.886h-1.982l-.077-12.698h4.363c.539 0 4.33-.193 5.332 5.388 0 5.325-2.215 7.31-7.636 7.31m1.045 15.993c24.79 0 30.438-13.992 30.438-25.733 0-16.599-10.537-23.878-28.866-23.878H71.835l.029 15.917 2.292.008c4.486 0 8.283 1.66 8.283 6.34l.142 38.68c0 1.832-.542 9.21-7.52 9.21l-3.229.007.022 15.035h45.398v-15.042h-2.54c-7.19 0-8.115-4.914-8.115-7.966V118.88h3.07" fill="#FFF"/><path d="M103.935 87.615h6.982c1.062 0 2.58.326 3.996 1.256l10.5-14.95c-3.943-1.74-8.87-2.17-14.265-2.17H74.575s.09 10.951 0 10.861c4.023 0 10.176 1.824 10.176 7.805v40.935l19.184-27.018v-16.72" fill="#961A1F"/><path d="M118.035 90.58c-.014-.013-.014-.044-.027-.066.005.033.013.053.027.066" fill="#154281"/><path d="m130.524 75.311.003-.006a14.985 14.985 0 0 0-.796-.655c.277.21.533.43.793.661M117.687 89.703c.101.13.206.264.29.407a3.746 3.746 0 0 0-.29-.407M128.695 73.855c.027.027.066.047.096.062-.03-.015-.06-.048-.096-.062M118.21 90.548a5.13 5.13 0 0 0-.384-.438c.144.143.26.29.383.438M104.185 105.387c1.642-.374 1.065-1.917 1.065-1.917l-1.204-1.556-19.295 27.127-.665 1.979c0 .009.665.032.665.036l20.984-25.556h-1.661" fill="#FFF"/><path d="M129.444 74.988a27.55 27.55 0 0 0-.993-.732c-.015-.011-.032-.017-.046-.035a21.292 21.292 0 0 0-3.431-1.894l-11.592 16.177c.804.535 1.819.854 2.455 1.828.207.309 1.384-.554 1.563-.186.046.096.096.194.138.298.066.144.122.29.184.44l12.513-15.239c-.26-.228-.516-.449-.79-.657" fill="#FFF"/><path d="m118.008 90.548 12.516-15.237c5.18 4.378 6.796 11.125 6.796 17.58 0 15.627-9.253 23.443-27.75 23.443h-5.681v15.968c0 5.417 2.993 9.205 10.773 9.205v10.444H74.575s-.042-10.402 0-10.444c6.518 0 10.17-4.428 10.176-10.45l20.984-25.557h2.769c5.23 0 10.294-1.969 10.294-10.148-.003-1.393-.236-3.37-.79-4.804" fill="#1F2854"/><path d="M49.045 29.573h1.796c1.917 0 3.798-.65 3.837-3.35.04-2.66-1.632-3.514-3.063-3.514h-2.612l.042 6.864m0 5.227-.042 4.449c0 1.837.979 2.904 4.083 2.904v3.956H36.668s.041-3.956.081-3.956c2.573 0 4.045-1.267 4.087-3.35V24.344c.04-2.042-2.207-2.617-3.76-2.617v-4.122h15.931c6.248 0 10.66 2.367 10.578 8.047C63.502 31 59.498 34.8 52.105 34.8h-3.06M85.311 24.587s.165-2.979-3.308-2.979h-3.755v7.676h2c2.001 0 2.001-1.999 2.001-1.999h3.47v7.8h-3.47s-.207-1.962-2.084-1.962h-1.917v8.698h3.836c1.795 0 3.35-.856 3.392-3.469h5.634v7.757l-25.32.047v-4.003c1.878 0 4.328-.822 4.328-3.35l-.041-14.5c0-2.127-3.021-2.531-3.882-2.531 0-2.166-.042-4.166-.042-4.166H91.11v6.98h-5.799M117.987 33.287V25.61c0-2.412-.858-3.883-4.287-3.883v-4.164h14.54v4.128c-2.699 0-3.964.16-3.964 3.513 0 3.717.04 20.904.04 20.904h-7.268L107 32.551s-.042 4.452-.042 5.676c0 2.66 1.389 3.846 4.33 3.846 0 1.793-.043 4.036-.043 4.036H96.911v-3.918c2.777 0 4.003-1.51 4.003-3.964v-13.84c0-2.046-1.593-2.695-3.715-2.695v-4.128h9.476l11.312 15.723M152.825 33.287V25.61c0-2.412-.858-3.883-4.29-3.883v-4.164h14.544v4.128c-2.696 0-3.964.16-3.964 3.513 0 3.717.04 20.904.04 20.904h-7.27l-10.048-13.558s-.045 4.452-.045 5.676c0 2.66 1.392 3.846 4.337 3.846 0 1.793-.045 4.036-.045 4.036H131.75v-3.918c2.774 0 4.003-1.51 4.003-3.964v-13.84c0-2.046-1.592-2.695-3.717-2.695v-4.128h9.474l11.315 15.723" fill="#FFF"/></g></svg>