<?xml version="1.0" encoding="UTF-8"?>
<svg width="200px" height="200px" viewBox="0 0 200 200" version="1.1" xmlns="http://www.w3.org/2000/svg" xmlns:xlink="http://www.w3.org/1999/xlink">
    <!-- Generator: Sketch 51.3 (57544) - http://www.bohemiancoding.com/sketch -->
    <title>penn-st</title>
    <desc>Created with Sketch.</desc>
    <defs></defs>
    <g id="penn-st" stroke="none" stroke-width="1" fill="none" fill-rule="evenodd">
        <g id="penn-st_BGL" transform="translate(0.990099, 31.683168)">
            <g id="penn-st">
                <g id="g10" transform="translate(98.909587, 68.442883) scale(-1, 1) rotate(-180.000000) translate(-98.909587, -68.442883) translate(0.000000, 0.083412)">
                    <g id="g12">
                        <path d="M176.429749,110.177698 C191.061858,96.7792418 200.800203,79.653109 196.754132,59.3193394 C191.202899,28.7476419 158.551886,9.26428592 131.029345,3.41287472 C108.022288,-2.24842824 81.0646336,-0.455437273 58.9992972,5.77080867 C36.8395717,12.801535 11.7632972,27.4739799 2.54182087,51.205052 C-4.79785632,73.3313991 4.4239166,95.5052534 21.6432619,110.177698 C45.5436153,130.275746 74.8544858,137.966458 107.458123,136.314951 C133.099394,134.050204 156.716906,126.879168 176.429749,110.177698" id="path14" fill="#FFFFFF" fill-rule="nonzero"></path>
                        <path d="M176.429749,110.177698 C191.061858,96.7792418 200.800203,79.653109 196.754132,59.3193394 C191.202899,28.7476419 158.551886,9.26428592 131.029345,3.41287472 C108.022288,-2.24842824 81.0646336,-0.455437273 58.9992972,5.77080867 C36.8395717,12.801535 11.7632972,27.4739799 2.54182087,51.205052 C-4.79785632,73.3313991 4.4239166,95.5052534 21.6432619,110.177698 C45.5436153,130.275746 74.8544858,137.966458 107.458123,136.314951 C133.099394,134.050204 156.716906,126.879168 176.429749,110.177698 Z" id="path16" stroke="#FFFFFF" stroke-width="0.999999975" stroke-linecap="square"></path>
                        <path d="M171.254987,110.744157 C183.534604,100.884074 192.096883,88.2870734 194.260598,73.6146286 C196.848521,50.9214599 182.64062,31.6730647 164.009815,20.0675484 C138.93307,4.78186289 107.08129,-0.314060457 75.9361625,5.11151149 C56.1292917,8.55483428 34.2992408,21.8605612 28.0891292,42.5714502 C21.8311359,60.7819057 26.3951895,81.3989047 39.7092154,94.7980864 C48.0367878,103.903133 58.0109246,110.744157 68.032075,116.311556 L66.9026613,116.311556 C49.8717686,112.394939 33.9227696,105.365699 21.4077595,90.9297019 C9.73993619,77.8608941 8.61106499,55.8288359 15.5273585,40.2124138 C16.938782,36.6265334 19.1969223,33.4188967 21.173125,30.1162094 C7.29363269,42.4775239 -0.704218174,60.0747388 4.56463221,78.8045087 C11.8575416,106.403965 41.1214346,123.105073 66.1034285,129.662868 C102.565444,138.626481 142.461991,132.163337 171.254987,110.744157" id="path18" fill="#0E2B58" fill-rule="nonzero"></path>
                        <path d="M171.254987,110.744157 C183.534604,100.884074 192.096883,88.2870734 194.260598,73.6146286 C196.848521,50.9214599 182.64062,31.6730647 164.009815,20.0675484 C138.93307,4.78186289 107.08129,-0.314060457 75.9361625,5.11151149 C56.1292917,8.55483428 34.2992408,21.8605612 28.0891292,42.5714502 C21.8311359,60.7819057 26.3951895,81.3989047 39.7092154,94.7980864 C48.0367878,103.903133 58.0109246,110.744157 68.032075,116.311556 L66.9026613,116.311556 C49.8717686,112.394939 33.9227696,105.365699 21.4077595,90.9297019 C9.73993619,77.8608941 8.61106499,55.8288359 15.5273585,40.2124138 C16.938782,36.6265334 19.1969223,33.4188967 21.173125,30.1162094 C7.29363269,42.4775239 -0.704218174,60.0747388 4.56463221,78.8045087 C11.8575416,106.403965 41.1214346,123.105073 66.1034285,129.662868 C102.565444,138.626481 142.461991,132.163337 171.254987,110.744157 Z" id="path20" stroke="#0E2B58" stroke-width="0.999999975" stroke-linecap="square"></path>
                        <path d="M100.448019,116.405844 C113.762299,113.999664 126.369926,109.895194 138.745016,105.082832 C142.74335,103.100589 144.531679,98.3828789 147.966572,95.2227493 C158.221706,86.8720142 170.831141,82.8143266 179.252741,71.5856034 C182.264872,66.1135818 179.181497,60.4870715 176.005179,56.0641955 C169.749103,50.5918113 162.456555,47.7609676 155.541202,43.9393649 C148.717706,40.7317282 141.896742,37.5705106 134.886999,34.8808102 C134.369125,34.5986324 135.02804,34.3385401 135.357136,34.0086014 L135.779536,33.6550179 C145.660369,37.0044144 155.493826,40.4013543 165.138505,44.2693762 C164.150133,40.8727989 162.315514,37.3819328 160.7637,33.9842313 C158.551886,30.4934739 156.775492,23.157324 145.378287,24.5959917 L117.291219,28.9840533 C103.788162,25.6346568 90.7559649,20.6329193 75.8424967,21.5304774 C70.4785955,22.0486676 65.4911655,24.6431724 62.3864532,29.455788 C60.4100697,33.0410882 59.1873519,37.0983407 59.5634615,41.5799659 C60.2690286,41.0613768 60.7865409,40.0702551 61.3988039,39.3159437 C74.6660694,24.1241482 98.1895537,26.9078836 116.020764,30.4462932 C128.298934,34.503582 140.20244,39.4102326 151.494046,45.7319425 C155.870297,48.7992338 158.73958,53.2333519 158.269804,58.6593169 C157.329169,69.7933885 145.143942,76.3986904 136.487273,80.5024346 C129.52346,82.9561226 122.277564,85.079074 114.327548,84.7962073 L131.829662,92.7215542 C133.05238,93.0522907 133.616183,91.8250841 134.087405,91.0236282 C134.74632,89.2778325 134.886999,87.0605921 133.756862,85.5037369 C137.01672,84.7247653 138.886057,84.2765302 141.426605,83.6636522 C151.259339,80.2199305 161.562571,75.3600616 167.726429,65.688919 C169.420007,62.5748459 169.796116,58.565028 168.761092,55.0262921 L168.996522,54.6959182 C173.9373,56.3945694 175.712248,60.6640445 177.135678,65.7832079 C176.994998,71.6338358 170.925168,75.0775575 166.973125,78.5684237 C160.57456,83.3332783 153.799887,87.1073739 147.213629,91.4011465 C143.073531,93.8544719 141.661673,99.2325672 137.238408,101.025145 C129.288391,103.573484 119.78403,102.063411 111.268764,101.68553 C96.4959757,100.08153 82.7108363,96.0713496 70.7610393,87.6270509 C72.0785078,98.3828789 74.5250283,108.904435 78.1949898,118.764518 C79.9352199,122.774336 81.9586171,127.822783 86.568491,129.427145 C93.6733456,129.190698 96.6373784,121.07641 100.448019,116.405844" id="path22" fill="#FFFFFF" fill-rule="nonzero"></path>
                        <path d="M100.448019,116.405844 C113.762299,113.999664 126.369926,109.895194 138.745016,105.082832 C142.74335,103.100589 144.531679,98.3828789 147.966572,95.2227493 C158.221706,86.8720142 170.831141,82.8143266 179.252741,71.5856034 C182.264872,66.1135818 179.181497,60.4870715 176.005179,56.0641955 C169.749103,50.5918113 162.456555,47.7609676 155.541202,43.9393649 C148.717706,40.7317282 141.896742,37.5705106 134.886999,34.8808102 C134.369125,34.5986324 135.02804,34.3385401 135.357136,34.0086014 L135.779536,33.6550179 C145.660369,37.0044144 155.493826,40.4013543 165.138505,44.2693762 C164.150133,40.8727989 162.315514,37.3819328 160.7637,33.9842313 C158.551886,30.4934739 156.775492,23.157324 145.378287,24.5959917 L117.291219,28.9840533 C103.788162,25.6346568 90.7559649,20.6329193 75.8424967,21.5304774 C70.4785955,22.0486676 65.4911655,24.6431724 62.3864532,29.455788 C60.4100697,33.0410882 59.1873519,37.0983407 59.5634615,41.5799659 C60.2690286,41.0613768 60.7865409,40.0702551 61.3988039,39.3159437 C74.6660694,24.1241482 98.1895537,26.9078836 116.020764,30.4462932 C128.298934,34.503582 140.20244,39.4102326 151.494046,45.7319425 C155.870297,48.7992338 158.73958,53.2333519 158.269804,58.6593169 C157.329169,69.7933885 145.143942,76.3986904 136.487273,80.5024346 C129.52346,82.9561226 122.277564,85.079074 114.327548,84.7962073 L131.829662,92.7215542 C133.05238,93.0522907 133.616183,91.8250841 134.087405,91.0236282 C134.74632,89.2778325 134.886999,87.0605921 133.756862,85.5037369 C137.01672,84.7247653 138.886057,84.2765302 141.426605,83.6636522 C151.259339,80.2199305 161.562571,75.3600616 167.726429,65.688919 C169.420007,62.5748459 169.796116,58.565028 168.761092,55.0262921 L168.996522,54.6959182 C173.9373,56.3945694 175.712248,60.6640445 177.135678,65.7832079 C176.994998,71.6338358 170.925168,75.0775575 166.973125,78.5684237 C160.57456,83.3332783 153.799887,87.1073739 147.213629,91.4011465 C143.073531,93.8544719 141.661673,99.2325672 137.238408,101.025145 C129.288391,103.573484 119.78403,102.063411 111.268764,101.68553 C96.4959757,100.08153 82.7108363,96.0713496 70.7610393,87.6270509 C72.0785078,98.3828789 74.5250283,108.904435 78.1949898,118.764518 C79.9352199,122.774336 81.9586171,127.822783 86.568491,129.427145 C93.6733456,129.190698 96.6373784,121.07641 100.448019,116.405844 Z" id="path24" stroke="#FFFFFF" stroke-width="0.999999975" stroke-linecap="square"></path>
                        <path d="M95.1318552,118.009482 C95.4605894,117.349459 96.1195044,116.877652 96.0258387,116.075108 C87.74528,112.631386 80.8758555,103.808844 76.5006885,96.354579 L76.2652584,96.354579 C77.4886994,105.177121 79.7471651,113.528219 83.5111541,121.264988 C84.5928308,122.727192 85.2521075,124.756217 87.1337403,125.463746 C91.2264635,125.181242 92.7323484,120.604966 95.1318552,118.009482" id="path26" fill="#0E2B58" fill-rule="nonzero"></path>
                        <path d="M95.1318552,118.009482 C95.4605894,117.349459 96.1195044,116.877652 96.0258387,116.075108 C87.74528,112.631386 80.8758555,103.808844 76.5006885,96.354579 L76.2652584,96.354579 C77.4886994,105.177121 79.7471651,113.528219 83.5111541,121.264988 C84.5928308,122.727192 85.2521075,124.756217 87.1337403,125.463746 C91.2264635,125.181242 92.7323484,120.604966 95.1318552,118.009482 Z" id="path28" stroke="#0E2B58" stroke-width="0.999999975" stroke-linecap="square"></path>
                    </g>
                </g>
            </g>
        </g>
    </g>
</svg>