<svg width="200" height="200" xmlns="http://www.w3.org/2000/svg"><g fill-rule="nonzero" fill="none"><path d="M189.032 76.195c0-40.217-64.55-71.41-120.08-71.41-17.07 0-31.535 2.357-42.037 4.816 3.144-.136 6.35-.223 9.364-.223 41.49 0 118.33 27.43 118.33 71.171 0 30.116-39.088 42.883-50.124 45.885V42.463C92.637 33.39 76.708 30.69 69.088 29.897V166.43c0 16.844-4.248 24.273-9.18 28.69h53.757c-4.936-4.417-9.18-11.846-9.18-28.69v-37.55c20.046-.84 84.547-12.368 84.547-52.685" fill="#1A3374"/><path d="M104.485 128.88v37.55c0 16.844 4.244 24.273 9.18 28.69H59.91c4.93-4.417 9.18-11.846 9.18-28.69V29.897c7.62.793 23.548 3.493 35.396 12.566v83.97c11.036-3 50.124-15.768 50.124-45.884 0-43.741-76.84-71.171-118.33-71.171-3.013 0-6.22.087-9.364.223 10.502-2.46 24.967-4.816 42.038-4.816 55.53 0 120.079 31.193 120.079 71.41 0 40.317-64.501 51.844-84.547 52.686ZM68.953.412C31.953.411 7 11.087 7 11.087l.935 4.213s15.99-1.552 28.344-1.552c47.59 0 113.975 30.274 113.975 66.801 0 23.205-27.37 35.304-41.413 39.984V40.359C91.367 25.659 64.734 25.2 64.734 25.2v141.23c0 22.626-8.197 25.922-12.334 28.763v4.298h68.774v-4.298c-4.137-2.84-12.333-6.137-12.333-28.763v-33.467c28.547-2.241 84.541-16.918 84.541-56.768 0-42.666-65.766-75.784-124.43-75.784Z" fill="#F46F1B"/></g></svg>