<svg width="200" height="200" xmlns="http://www.w3.org/2000/svg"><g fill="none"><path d="M188.64 77.134c0-40.217-64.895-71.41-120.722-71.41-17.163 0-31.705 2.357-42.263 4.816 3.16-.136 6.385-.223 9.414-.223 41.713 0 118.963 27.43 118.963 71.171 0 30.116-39.297 42.883-50.391 45.885V43.402c-11.913-9.073-27.926-11.773-35.587-12.566v136.533c0 16.844-4.271 24.273-9.228 28.69h54.043c-4.963-4.417-9.228-11.846-9.228-28.69v-37.55c20.152-.84 84.998-12.368 84.998-52.685" fill="#1A3374"/><path d="M103.64 129.82v37.55c0 16.843 4.266 24.272 9.23 28.689H58.825c4.957-4.417 9.228-11.846 9.228-28.69V30.836c7.661.793 23.674 3.493 35.587 12.566v83.97c11.094-3 50.39-15.768 50.39-45.884 0-43.742-77.25-71.171-118.962-71.171-3.03 0-6.253.087-9.414.223 10.558-2.46 25.1-4.816 42.263-4.816 55.827 0 120.721 31.193 120.721 71.41 0 40.317-64.846 51.844-84.998 52.686zM67.919 1.35C30.72 1.35 5.634 12.026 5.634 12.026l.94 4.213s16.076-1.552 28.495-1.552c47.844 0 114.585 30.274 114.585 66.801 0 23.205-27.517 35.304-41.635 39.984V41.298c-17.567-14.7-44.343-15.159-44.343-15.159v141.23c0 22.626-8.24 25.922-12.4 28.763v4.298h69.142v-4.298c-4.159-2.84-12.399-6.137-12.399-28.763v-33.467c28.7-2.241 84.994-16.918 84.994-56.768 0-42.666-66.118-75.784-125.095-75.784z" fill="#F46F1B"/></g></svg>