<?xml version="1.0" encoding="UTF-8"?>
<svg width="200px" height="200px" viewBox="0 0 200 200" version="1.1" xmlns="http://www.w3.org/2000/svg" xmlns:xlink="http://www.w3.org/1999/xlink">
    <!-- Generator: Sketch 51.3 (57544) - http://www.bohemiancoding.com/sketch -->
    <title>pittsburgh</title>
    <desc>Created with Sketch.</desc>
    <defs></defs>
    <g id="pittsburgh" stroke="none" stroke-width="1" fill="none" fill-rule="evenodd">
        <g id="pittsburgh_BGL" transform="translate(0.000000, 44.776119)">
            <g id="pittsburgh">
                <g id="g10" transform="translate(99.999998, 55.845525) scale(-1, 1) rotate(-180.000000) translate(-99.999998, -55.845525) translate(0.000000, 0.037506)" fill-rule="nonzero">
                    <g id="g12" transform="translate(0.000000, 0.160727)">
                        <path d="M197.428824,5.20130737 L196.688283,5.20130737 L196.688283,5.88384391 L197.428824,5.88384391 C197.618013,5.88384391 197.772968,5.73008166 197.772968,5.54292388 C197.772968,5.35255157 197.618013,5.20130737 197.428824,5.20130737 Z M198.363959,5.54292388 C198.363959,6.055304 197.945941,6.46981918 197.428824,6.46981918 L196.095491,6.47156932 L196.095491,3.34240923 L196.688283,3.34240923 L196.688283,4.61392128 L197.113509,4.61392128 L197.711707,3.34240923 L198.365761,3.34240923 L197.742337,4.66715766 C198.1045,4.79627509 198.363959,5.13901669 198.363959,5.54292388 Z M197.230626,2.7553803 C196.032428,2.7553803 195.059455,3.71868922 195.059455,4.90685533 C195.059455,6.09402137 196.032428,7.05754459 197.230626,7.05754459 C198.428824,7.05754459 199.401797,6.09402137 199.401797,4.90685533 C199.401797,3.71868922 198.428824,2.7553803 197.230626,2.7553803 Z M197.230626,7.64416277 C195.706301,7.64416277 194.468464,6.41924372 194.468464,4.90685533 C194.468464,3.39507414 195.706301,2.16890499 197.230626,2.16890499 C198.756752,2.16890499 199.992788,3.39507414 199.992788,4.90685533 C199.992788,6.41924372 198.756752,7.64416277 197.230626,7.64416277 Z M115.723781,40.5030493 C115.723781,41.5877786 115.783961,42.6598283 115.846844,43.7734885 C115.877294,44.3117457 115.884502,44.876255 115.908105,45.4243344 C118.484141,43.9263578 121.49279,43.8077769 123.887925,43.73795 C123.986844,43.7350926 124.075673,43.7304494 124.17315,43.727592 C124.246483,42.5633921 124.291348,41.3954418 124.291348,40.2265987 C124.291348,34.2825536 123.345943,28.3665464 121.562159,23.3168582 C120.711529,21.7797714 120.180177,21.3725961 120.02252,21.2838391 C120.015132,21.2841962 120.000718,21.2852677 120.000718,21.2852677 L119.895492,21.2872322 C119.019817,21.3047336 117.949547,21.7108374 117.540898,22.5323314 C116.25297,27.5164786 115.964682,33.0620991 115.778916,38.7880912 L115.776934,38.8473816 L115.77297,38.9068507 C115.737835,39.4461794 115.723781,39.976043 115.723781,40.5030493 Z M196.021617,19.3536852 C193.877473,14.1388232 189.199995,8.29508964 183.499095,6.65356597 C176.48396,3.36955425 168.639095,6.41227888 163.134591,10.758536 C162.159996,11.4337326 161.868464,12.4965316 161.039996,13.1732105 C156.021257,7.23236209 149.394771,3.32113968 141.552069,5.20507553 C137.654231,6.07407336 133.950267,8.34371852 131.465762,11.8202099 C130.247384,11.1449953 129.662159,9.69595128 128.591168,8.82681059 C125.230447,5.68759613 121.478015,3.46616909 116.751529,3.70759905 C110.904862,3.90084659 106.033511,6.50819724 101.988646,10.8545972 L101.501979,10.758536 C97.7016192,6.89522808 92.8783761,4.62536862 87.3729708,5.30135106 C82.5983763,6.55695112 77.920899,8.87479656 74.7535116,13.1732105 L73.8774756,16.2148815 C73.9985567,17.9380367 74.4617999,19.5469149 76.3135116,19.8849776 C79.7241422,20.2709012 82.6958538,17.7607011 85.9596375,19.5469149 C89.8572951,20.0782073 91.1245022,24.134602 92.7805382,26.9357181 C95.265403,34.1303986 92.2931508,43.0159281 94.6324301,50.5015247 C95.7036012,53.7850006 99.6017993,53.5431957 102.524862,53.9782303 C106.033511,53.6398105 110.076934,54.6534627 111.927745,51.1767571 C112.756574,46.8790931 111.781979,43.1600468 112.074412,38.6700461 C112.269367,32.6817117 112.5627,26.7421312 114.024321,21.2852677 C114.949366,18.9674045 117.385402,17.663372 119.821258,17.6151717 C122.354411,17.421942 124.011889,20.0299891 124.986123,21.8647782 C127.71333,29.4459181 128.591168,38.4762806 127.616934,46.9280256 L127.37315,47.1691163 C123.525042,47.7963091 118.506303,46.5892486 116.020357,50.2106086 C114.511529,52.8668918 114.511529,56.3923513 114.8027,59.4350938 C115.97315,60.7866301 117.48252,61.8970757 119.187745,61.8004609 C121.380357,60.0624652 123.914051,58.9032657 126.837114,59.1931102 L127.080718,59.6761844 C126.301618,65.2296627 126.495853,71.2171042 125.619276,76.5773528 C129.127564,80.3919425 133.512609,82.2283389 138.238015,83.3378916 C140.577114,83.1446619 143.158735,82.9523251 144.522699,80.8269772 C145.838195,78.0265754 144.766123,74.8872181 144.718735,71.8455471 L144.522699,65.0851869 C145.25333,64.6497951 145.936032,65.1807303 146.667564,65.2784166 C150.855672,66.5819133 155.14414,67.5959227 159.72414,68.0302431 C160.015852,71.5069487 159.529185,74.9838329 159.432068,78.6539468 L159.529185,79.426687 C163.134591,82.3240608 167.129906,84.4004762 171.90396,84.545845 C173.75477,84.2552861 175.558374,83.917402 176.921797,82.4694295 C179.310266,79.7645711 177.506842,75.7567517 177.799275,72.3763037 L177.361077,66.6297743 C181.843239,63.8781264 186.763959,61.3663191 190.223419,56.8266716 C191.100896,53.0601215 190.369365,49.1012345 188.32432,46.1551069 C187.446842,44.8024991 185.789185,44.9478678 184.522518,45.0923436 C181.502698,45.9618772 179.113509,48.3759982 176.04468,49.1967779 L175.753329,48.3759982 C175.70414,40.2630302 174.631888,31.5709089 176.04468,23.4584767 C176.677833,22.2992771 176.727924,20.8504117 178.042338,20.1264254 C179.357653,19.3536852 181.259455,18.7261352 182.672068,19.6921051 C185.057653,21.3334859 186.763959,23.6999245 188.810806,25.8729548 C190.466662,27.0319757 192.708103,27.080551 194.461256,26.1629779 C196.947743,24.6655371 196.26486,21.6233304 196.021617,19.3536852 Z M50.6430618,88.4656216 C50.6571159,88.4675861 50.6706294,88.4713364 50.6846834,88.4734794 C55.9097283,88.8358297 63.3140525,88.525805 69.2688271,85.0499923 L69.3488271,85.0049887 C74.0650432,82.407996 75.7920702,76.9532756 76.942881,71.4237278 C77.065944,70.6240212 77.1306287,69.8407445 77.1306287,69.0794338 C77.1306287,65.3577086 75.6673855,62.1333445 72.9061243,59.8128025 C70.0803586,58.0069443 66.5933317,57.2427762 62.8967552,56.445927 C62.8967552,56.445927 62.6472056,56.3923513 62.4623408,56.3523481 C62.1729714,56.3216314 61.8172958,56.2844856 61.5363949,56.2557333 C61.2261246,60.5828638 60.6187372,69.0631825 60.6187372,69.0631825 C60.6162147,69.0917562 60.4801787,70.9235093 60.4801787,70.9235093 C60.2563949,74.0494728 60.044503,77.0011366 59.1832418,80.1471016 C58.1241427,83.895436 55.0590977,86.8328129 50.6430618,88.4656216 Z M62.5250435,37.0765262 C61.2099084,36.8348998 59.9947733,36.9450872 58.968467,37.0281295 C59.3095481,28.3844049 59.7969354,20.803265 59.2120706,12.1591654 C59.1628814,10.0827678 58.4812598,8.29508964 57.1171157,6.75032368 C51.3190978,2.74253999 42.2574764,4.09386197 36.6544135,7.52313527 C33.0486478,10.9033511 34.1322514,16.1871829 33.5845037,20.8509474 C32.6592785,39.0570412 32.025765,57.3584997 30.807747,75.7567517 C31.0515308,78.5094711 31.4576569,81.2193299 33.9744136,83.0001861 C37.6562153,86.0102474 42.8418007,86.0429286 47.4702691,85.6077153 C50.8318906,84.7869356 54.5834221,82.807135 55.6068455,79.1847034 C56.5322508,75.8046126 56.6297283,72.4729185 56.9219806,68.8031618 L58.0917103,52.4804324 C59.7969354,52.2393418 61.3073859,52.5770472 63.0607191,52.7222374 C67.3001785,53.6398105 71.4897279,54.4613045 75.0951333,56.8266716 C79.674953,60.5455394 81.5263043,66.1467001 80.6001782,72.0387768 C79.3336917,78.1708726 77.2877458,84.8347966 71.1488271,88.2159589 C65.1077461,91.7407041 57.5556742,92.65792 50.2479267,92.1271634 C41.5747737,90.7745557 33.5845037,87.6841308 26.5688282,82.2761998 C21.6969364,78.6060859 19.6992788,72.9561713 15.0221618,69.2373035 C13.073333,68.1754332 10.0527205,67.5469903 8.00590971,68.8031618 C5.32587374,69.6237629 4.30306296,72.4241647 3.71868459,74.7429209 C3.91363954,81.4545272 9.02935113,86.4283164 13.8525402,91.161015 C25.6920714,102.171178 40.9908098,106.227573 57.0196382,107.483387 C67.1535118,108.304167 76.3617999,106.662429 84.6443222,102.557638 C95.5091868,96.5212636 102.817295,85.2700098 102.184322,72.8108026 C102.135673,63.4907741 96.8731507,56.0548244 90.3446824,49.2453531 C82.45207,42.0506726 73.0001784,38.2835867 62.5250435,37.0765262 Z M196.385581,29.3016209 L196.291887,29.3589469 L196.192788,29.410201 C193.151347,31.0031851 189.41441,30.7920968 186.673869,28.8730153 L186.326121,28.6301388 L186.102698,28.3795831 L184.35495,26.4349639 C183.17477,25.0882494 182.052248,23.8261845 180.818013,22.9136118 C180.679275,22.9428998 180.459455,23.0279066 180.152788,23.182919 C180.1045,23.3043572 180.053509,23.4422254 180.010086,23.5645565 C180.010086,23.5645565 179.830626,23.9815541 179.651167,24.3981944 C179.180176,27.2491359 179.02468,30.2370526 179.02468,33.2642581 C179.02468,35.866787 179.13495,38.4959251 179.241797,41.0845242 C179.27477,41.8661936 179.303599,42.6639358 179.333509,43.4577491 C180.560356,42.7403705 181.918914,42.0172771 183.488284,41.5649196 L183.789185,41.4786628 L184.099094,41.4434814 C185.509905,41.2829329 189.246842,40.8607564 191.403599,44.1204804 C193.286482,46.8533768 194.288283,50.2411468 194.288283,53.6789208 C194.288283,55.0083124 194.138734,56.3446689 193.832428,57.6531661 L193.655851,58.4153697 L193.180175,59.0409552 C189.801797,63.4752372 185.275671,66.1793813 181.282878,68.563857 C181.282878,68.563857 181.230626,68.5954667 181.227022,68.5974311 C181.35495,70.2645283 181.517113,72.3945194 181.517113,72.3945194 L181.491887,72.6900787 C181.477473,72.8479484 181.472068,73.0154618 181.472068,73.1911901 C181.472068,73.8657081 181.562158,74.658807 181.655851,75.4878017 C181.762158,76.4194831 181.879275,77.4708168 181.879275,78.5716189 C181.879275,80.6521418 181.455851,82.9123219 179.710986,84.8883723 L179.671347,84.9323043 L179.631707,84.9755221 C177.336032,87.4126806 174.415671,87.8707528 172.482879,88.1730983 L172.138374,88.227567 L171.790987,88.2168518 C166.750266,88.0639825 161.976392,86.1213277 157.195131,82.2799501 L156.036212,81.3484473 L155.714951,78.789672 L155.727924,78.5582249 L155.922338,74.7322057 C155.998014,73.5453254 156.058194,72.4013057 156.085942,71.279252 C153.601438,70.8995789 151.052248,70.3314979 148.360897,69.5901888 C148.387744,70.5227631 148.422879,71.7394672 148.422879,71.7394672 C148.435672,72.5238155 148.529726,73.33388 148.629005,74.1919841 C148.747203,75.2124226 148.878014,76.340191 148.878014,77.5270713 C148.878014,79.0814809 148.65351,80.7351841 147.882519,82.3774579 L147.779816,82.5956896 L147.649546,82.7994558 C145.311708,86.4397459 141.281798,86.7726296 138.614951,86.9926471 L137.957654,87.0472943 L137.3836,86.9122836 C133.400177,85.9759589 127.56324,84.1433129 122.880537,79.0518357 L121.674592,77.7413741 L121.961258,75.9899845 C122.390808,73.3645967 122.546123,70.5438362 122.710447,67.5577054 C122.780537,66.2883185 122.855673,64.9969656 122.950267,63.7031125 C122.478555,63.968848 121.999817,64.2751224 121.5027,64.6690823 L120.579276,65.4005692 L119.398916,65.4675388 C117.548105,65.5729044 114.760177,65.0258965 111.989367,61.8263558 L111.224141,60.9414638 L111.113331,59.7813714 C111.025583,58.8648698 110.954952,57.8167505 110.948105,56.7052334 C108.919637,57.5038684 106.740718,57.548872 105.037295,57.5611944 C104.261619,57.5661948 103.529006,57.571731 102.883421,57.6340574 L102.486304,57.6722747 L101.974772,57.6101269 L101.498556,57.5545868 C104.039997,61.9363646 105.841078,66.9723016 105.887565,72.7132948 L105.890628,72.7915154 C105.890628,72.7829432 105.889547,72.7752641 105.889547,72.766692 C105.913691,73.2851261 105.928286,73.8033817 105.928286,74.3202086 C105.928286,87.0901549 98.5872047,99.0221772 86.4560339,105.761643 L86.3798177,105.803789 L86.3016195,105.842364 C77.4430611,110.232892 67.489728,112.016248 56.7176562,111.144036 C36.7601793,109.580161 22.3304499,104.08133 11.3169367,93.8403357 L11.2450808,93.771223 L11.1437835,93.6719294 C6.03772958,88.6617087 0.250351345,82.9830419 0.0144988825,74.8479292 L0,74.3430676 L0.123592429,73.8523142 C0.550605392,72.1593221 1.83805401,67.1003475 6.5554593,65.4246783 C9.98944119,63.6388217 14.1740537,64.583897 16.8080717,66.0195471 L17.0898014,66.1727736 L17.3407203,66.372611 C20.0109905,68.4951015 21.8318913,71.0095876 23.5933327,73.4410314 C24.8073868,75.1158077 25.9715309,76.7209357 27.3414408,78.0733649 C27.2347741,77.3474142 27.1681074,76.6645026 27.1160354,76.0780273 L27.0915309,75.7967549 L27.1097291,75.516554 C27.913693,63.3766579 28.4709903,51.0790707 29.0099092,39.1861586 L29.889729,20.5391369 L29.9036029,20.4262707 C30.0255848,19.3863664 30.0554947,18.2589551 30.0870263,17.06511 C30.1882875,13.2094813 30.3145938,8.41068814 34.1077469,4.85452974 L34.3841433,4.59536622 L34.7075667,4.39731473 C41.425044,0.287340757 52.0075663,-1.25923785 59.2367553,3.73726212 L59.6082868,3.99369327 L59.906485,4.33125589 C61.8342327,6.51607287 62.8470255,9.12035184 62.9169354,12.0727478 L62.9097282,11.9130565 C63.1127912,14.9188854 63.1900885,17.7989185 63.1900885,20.6280725 C63.1900885,24.9212718 63.0120705,29.0974975 62.827566,33.4160559 C62.9488273,33.4346288 63.0630615,33.4407008 63.1866651,33.4632025 C63.107566,33.4539161 63.0320705,33.4369505 62.9531516,33.4278426 L63.1954939,33.4642741 C73.5160342,34.6938363 82.5072051,38.2725144 89.9803581,44.1195875 C89.9673851,43.6481214 89.9585563,43.1766552 89.9585563,42.7059034 C89.9585563,41.3400803 90.0061239,39.9817578 90.05225,38.6384364 C90.0967545,37.3504766 90.1405383,36.0860901 90.1405383,34.8615283 C90.1405383,32.4943753 89.9670248,30.2815204 89.3299077,28.3270789 C89.0448626,27.8027514 88.5686464,26.9276817 88.5686464,26.9276817 C87.4115293,24.7055403 86.6245023,23.3450748 85.4547726,23.1854192 L84.7722501,23.092376 L84.1684664,22.7619926 C83.5938718,22.4473246 82.9882862,22.5271524 81.2054034,22.9657588 C79.7535115,23.3223944 77.9463044,23.7665369 75.8933314,23.5340184 L75.766845,23.5200887 L75.6419801,23.4970512 C73.7625207,23.1538095 70.5533316,21.7845933 70.180719,16.469509 L70.1353136,15.8266006 L71.3717099,11.53558 L71.7610793,11.0071629 C75.0354936,6.56302304 79.9682863,3.44900701 86.4223402,1.75118599 L86.6664843,1.68728625 L86.9174753,1.65603376 C92.2266644,1.00475329 97.2823399,2.52789789 101.715133,6.03103421 C106.098015,2.25339387 111.089186,0.225185803 116.609186,0.0383680577 C123.403961,-0.289992754 128.150988,3.36919708 131.132609,6.15388329 L130.938015,5.98456622 C131.114591,6.12764905 131.240537,6.27923256 131.395132,6.42747652 C133.999816,4.08982594 137.188105,2.42074649 140.705042,1.63050137 C147.926122,-0.0943155521 154.858735,2.05018125 160.968825,7.77956642 C160.918915,7.81689082 160.825582,7.88580703 160.825582,7.88580703 C160.872969,7.84792901 160.922158,7.81723013 160.969365,7.77992359 C160.969365,7.77992359 160.970446,7.78040577 160.970446,7.78095938 C160.979095,7.77476246 160.985401,7.76811908 160.99405,7.76170785 C168.755852,1.70905049 177.586842,0.0214163318 184.747743,3.1982906 C192.016211,5.40185907 197.207202,12.5040679 199.452247,17.9676819 L199.643238,18.430576 L199.785581,19.6379936 C199.877472,20.3841245 199.992788,21.3238422 199.992788,22.343745 C199.992788,24.7094692 199.371166,27.503799 196.385581,29.3016209 Z M156.899816,41.3784762 C156.899816,41.3784762 156.82396,39.0831147 156.808284,38.6036122 C156.100897,34.3350577 155.272429,30.2490178 153.33351,26.9701851 C152.372969,26.1856583 151.798194,25.8811697 151.308465,25.915101 L151.098194,25.9293879 L150.887564,25.9199228 C150.287924,25.8936707 149.768645,26.415498 149.510086,26.9523265 C147.970447,30.4977876 147.912969,34.8192035 147.854951,39.3940323 C147.854951,39.3940323 147.796213,42.4037365 147.790987,42.6598283 C147.79387,42.7575147 147.862879,45.4845177 147.919636,47.7123738 C150.518915,48.5395826 153.467564,48.9862254 156.885762,49.0964127 C156.980176,48.0507937 157.017113,46.9612425 157.017113,45.8461537 C157.017113,44.3760365 156.958374,42.8666305 156.899816,41.3784762 Z M159.625942,52.8188522 C154.120897,52.9154671 149.005582,52.3359566 144.278555,50.3072235 L144.084501,42.6780441 C144.278555,36.8348998 143.841077,30.6535143 146.130627,25.4379201 C147.007744,23.5550915 148.859456,22.1542656 151.052248,22.2507018 C153.146122,22.1069404 154.706302,23.265247 156.215492,24.5689223 C158.798014,28.625317 159.72414,33.5024914 160.503239,38.2346542 C160.600176,42.9193133 161.136933,48.2317009 160.065762,52.6747336 L159.625942,52.8188522 Z M191.476572,44.1727981 C191.457127,44.1537682 191.437683,44.1407085 191.418238,44.1226115 C191.401572,44.1067533 191.393238,44.08791 191.376572,44.0727981 L191.476572,44.1727981 Z M160.968825,7.84685667 C161.003846,7.81281531 161.068825,7.74797461 161.068825,7.74797461 C161.053635,7.76301095 161.043508,7.77810318 161.027897,7.79095952 C161.010175,7.8110266 160.9895,7.82896958 160.970091,7.84797461 L160.968825,7.84685667 Z M116.660718,0.0367634656 C116.651092,0.0398884656 116.641734,0.0437954656 116.632643,0.0457484656 C116.608044,0.0500454656 116.584515,0.0457484656 116.560718,0.0519984656 L116.660718,0.0367634656 Z M140.779096,1.62157209 C140.759818,1.63758209 140.741746,1.65946209 140.722469,1.67157209 C140.708312,1.68563209 140.693553,1.68837209 140.679096,1.69930209 L140.779096,1.62157209 Z" id="path14" fill="#ADA157"></path>
                        <path d="M160.503239,38.2346542 C159.72414,33.5024914 158.798014,28.625317 156.215492,24.5689223 C154.706302,23.265247 153.146122,22.1069404 151.052248,22.2507018 C148.859456,22.1542656 147.007744,23.5550915 146.130627,25.4379201 C143.841077,30.6535143 144.278555,36.8348998 144.084501,42.6780441 L144.278555,50.3072235 C149.005582,52.3359566 154.120897,52.9154671 159.625942,52.8188522 L160.065762,52.6747336 C161.136933,48.2317009 160.600176,42.9193133 160.503239,38.2346542 Z M194.461256,26.1629779 C192.708103,27.080551 190.466662,27.0319757 188.810806,25.8729548 C186.763959,23.6999245 185.057653,21.3334859 182.672068,19.6921051 C181.259455,18.7261352 179.357653,19.3536852 178.042338,20.1264254 C176.727924,20.8504117 176.677833,22.2992771 176.04468,23.4584767 C174.631888,31.5709089 175.70414,40.2630302 175.753329,48.3759982 L176.04468,49.1967779 C179.113509,48.3759982 181.502698,45.9618772 184.522518,45.0923436 C185.789185,44.9478678 187.446842,44.8024991 188.32432,46.1551069 C190.369365,49.1012345 191.100896,53.0601215 190.223419,56.8266716 C186.763959,61.3663191 181.843239,63.8781264 177.361077,66.6297743 L177.799275,72.3763037 C177.506842,75.7567517 179.310266,79.7645711 176.921797,82.4694295 C175.558374,83.917402 173.75477,84.2552861 171.90396,84.545845 C167.129906,84.4004762 163.134591,82.3240608 159.529185,79.426687 L159.432068,78.6539468 C159.529185,74.9838329 160.015852,71.5069487 159.72414,68.0302431 C155.14414,67.5959227 150.855672,66.5819133 146.667564,65.2784166 C145.936032,65.1807303 145.25333,64.6497951 144.522699,65.0851869 L144.718735,71.8455471 C144.766123,74.8872181 145.838195,78.0265754 144.522699,80.8269772 C143.158735,82.9523251 140.577114,83.1446619 138.238015,83.3378916 C133.512609,82.2283389 129.127564,80.3919425 125.619276,76.5773528 C126.495853,71.2171042 126.301618,65.2296627 127.080718,59.6761844 L126.837114,59.1931102 C123.914051,58.9032657 121.380357,60.0624652 119.187745,61.8004609 C117.48252,61.8970757 115.97315,60.7866301 114.8027,59.4350938 C114.511529,56.3923513 114.511529,52.8668918 116.020357,50.2106086 C118.506303,46.5892486 123.525042,47.7963091 127.37315,47.1691163 L127.616934,46.9280256 C128.591168,38.4762806 127.71333,29.4459181 124.986123,21.8647782 C124.011889,20.0299891 122.354411,17.421942 119.821258,17.6151717 C117.385402,17.663372 114.949366,18.9674045 114.024321,21.2852677 C112.5627,26.7421312 112.269367,32.6817117 112.074412,38.6700461 C111.781979,43.1600468 112.756574,46.8790931 111.927745,51.1767571 C110.076934,54.6534627 106.033511,53.6398105 102.524862,53.9782303 C99.6017993,53.5431957 95.7036012,53.7850006 94.6324301,50.5015247 C92.2931508,43.0159281 95.265403,34.1303986 92.7805382,26.9357181 C91.1245022,24.134602 89.8572951,20.0782073 85.9596375,19.5469149 C82.6958538,17.7607011 79.7241422,20.2709012 76.3135116,19.8849776 C74.4617999,19.5469149 73.9985567,17.9380367 73.8774756,16.2148815 L74.7535116,13.1732105 C77.920899,8.87479656 82.5983763,6.55695112 87.3729708,5.30135106 C92.8783761,4.62536862 97.7016192,6.89522808 101.501979,10.758536 L101.988646,10.8545972 C106.033511,6.50819724 110.904862,3.90084659 116.751529,3.70759905 C121.478015,3.46616909 125.230447,5.68759613 128.591168,8.82681059 C129.662159,9.69595128 130.247384,11.1449953 131.465762,11.8202099 C133.950267,8.34371852 137.654231,6.07407336 141.552069,5.20507553 C149.394771,3.32113968 156.021257,7.23236209 161.039996,13.1732105 C161.868464,12.4965316 162.159996,11.4337326 163.134591,10.758536 C168.639095,6.41227888 176.48396,3.36955425 183.499095,6.65356597 C189.199995,8.29508964 193.877473,14.1388232 196.021617,19.3536852 C196.26486,21.6233304 196.947743,24.6655371 194.461256,26.1629779 Z M102.184322,72.8108026 C102.817295,85.2700098 95.5091868,96.5212636 84.6443222,102.557638 C76.3617999,106.662429 67.1535118,108.304167 57.0196382,107.483387 C40.9908098,106.227573 25.6920714,102.171178 13.8525402,91.161015 C9.02935113,86.4283164 3.91363954,81.4545272 3.71868459,74.7429209 C4.30306296,72.4241647 5.32587374,69.6237629 8.00590971,68.8031618 C10.0527205,67.5469903 13.073333,68.1754332 15.0221618,69.2373035 C19.6992788,72.9561713 21.6969364,78.6060859 26.5688282,82.2761998 C33.5845037,87.6841308 41.5747737,90.7745557 50.2479267,92.1271634 C57.5556742,92.65792 65.1077461,91.7407041 71.1488271,88.2159589 C77.2877458,84.8347966 79.3336917,78.1708726 80.6001782,72.0387768 C81.5263043,66.1467001 79.674953,60.5455394 75.0951333,56.8266716 C71.4897279,54.4613045 67.3001785,53.6398105 63.0607191,52.7222374 C61.3073859,52.5770472 59.7969354,52.2393418 58.0917103,52.4804324 L56.9219806,68.8031618 C56.6297283,72.4729185 56.5322508,75.8046126 55.6068455,79.1847034 C54.5834221,82.807135 50.8318906,84.7869356 47.4702691,85.6077153 C42.8418007,86.0429286 37.6562153,86.0102474 33.9744136,83.0001861 C31.4576569,81.2193299 31.0515308,78.5094711 30.807747,75.7567517 C32.025765,57.3584997 32.6592785,39.0570412 33.5845037,20.8509474 C34.1322514,16.1871829 33.0486478,10.9033511 36.6544135,7.52313527 C42.2574764,4.09386197 51.3190978,2.74253999 57.1171157,6.75032368 C58.4812598,8.29508964 59.1628814,10.0827678 59.2120706,12.1591654 C59.7969354,20.803265 59.3095481,28.3844049 58.968467,37.0281295 C59.9947733,36.9450872 61.2099084,36.8348998 62.5250435,37.0765262 C73.0001784,38.2835867 82.45207,42.0506726 90.3446824,49.2453531 C96.8731507,56.0548244 102.135673,63.4907741 102.184322,72.8108026 Z" id="path16" fill="#17233A"></path>
                    </g>
                </g>
            </g>
        </g>
    </g>
</svg>