<svg width="200" height="200" xmlns="http://www.w3.org/2000/svg"><g fill="none" fill-rule="evenodd"><path d="M197.438 129.464c1.97 4.697.013 10.703-5.238 16.073-4.727 5.198-10.381 7.833-16.806 7.833-5.582 0-10.931-2.265-15.39-6.455-4.38 4.675-9.74 7.205-15.41 7.205-5.036 0-9.907-2.048-14.023-5.838-4.302 4.383-9.511 6.755-14.977 6.755-5.25 0-10.31-2.221-14.531-6.32-3.39 2.572-7.937 4.675-12.349 4.675-.972 0-1.913-.106-2.795-.315-7.942-1.88-15.797-7.208-15.443-14.875.155-3.367 2.163-5.898 4.993-6.297l.088-.012c.24-.027.493-.04.759-.04 1.04 0 2.099.215 3.219.444 1.155.238 2.35.482 3.491.482.695 0 1.294-.091 1.83-.28 1.7-.6 3.13-2.433 4.247-5.448 1.205-3.543 1.17-7.134 1.13-11.289-.018-1.847-.034-3.834.053-5.975-.057.046-.11.094-.167.14-7.832 6.258-17.974 10.3-28.258 11.334.498 11.649.647 18.804.455 21.817-.084 2.848-1.06 5.36-2.906 7.468l-.27.309-.336.234c-2.873 2.004-6.544 3.063-10.617 3.063-4.646 0-9.515-1.36-13.356-3.733l-.294-.18-.25-.238c-3.666-3.467-3.789-8.195-3.888-11.993-.032-1.201-.06-2.336-.184-3.39l-.012-.109-.005-.11c-.31-6.162-.593-12.44-.866-18.51-.534-11.9-1.087-24.205-1.885-36.354l-.016-.257.023-.257c.057-.664.126-1.444.263-2.283-2.803 2.734-4.958 5.695-6.6 8.485l-.094.162-.112.149c-1.65 2.204-4.085 4.735-8.287 4.735-.537 0-1.1-.044-1.673-.128-5.43-.802-9.65-5.358-10.032-10.833l-.03-.427.078-.42c3.456-18.68 30.246-34.46 58.5-34.46.485 0 .973.004 1.458.014 14.816.298 26.812 4.858 34.694 13.186 6.456 6.822 9.684 15.706 9.335 25.69-.181 5.149-1.653 10.172-4.273 14.838a26.72 26.72 0 0 1 2.645-.135c1.8 0 4.766.187 7.236 1.236-.01-.688.009-1.405.054-2.151a6.639 6.639 0 0 1 2.259-4.6c.483-.418.986-.782 1.496-1.081a6.362 6.362 0 0 1 3.22-.869c1.342 0 2.655.402 3.8 1.164.42.28.832.511 1.239.698-.303-4.08-.683-8.49-1.137-13.161l-.144-1.486 1.005-1.103c2.722-2.985 9.394-7.722 15.712-7.722 3.178 0 5.928 1.184 7.961 3.424 1.26 1.285 1.548 2.705 1.275 13.849 2.36-.672 5.07-1.333 7.973-1.752l-.2-9.962 1.277-1.035c1.977-1.602 8.419-5.763 14.394-5.763 5.128 0 8.577 3.073 9.463 8.432l.054.327-.011.331a299.35 299.35 0 0 1-.538 10.54c3.733 1.919 7.302 4.658 10.637 8.166 1.176 1.237 1.922 2.814 2.1 4.445.44 4.006-.548 8.11-2.706 11.268-.8 1.219-2.368 2.645-5.312 2.645a9.66 9.66 0 0 1-3.614-.726c-.939-.381-1.97-.878-3.06-1.427-.196 6.559-.232 14.313-.237 15.562.221 2.102.735 3.788 1.216 4.765a.988.988 0 0 0 1.435.385c.72-.473 1.853-1.437 3.425-3.394 1.978-2.464 4.491-3.822 7.074-3.822 2.96 0 5.552 1.796 6.766 4.687Zm-82.612-20.666c.132 2.738.157 6.379.014 11.253-.225 7.673 1.359 12.12 2.916 13.724.326.335.647.535.86.535.671 0 2.835-1.761 3.86-7.427.484-2.67 1.086-7.104 1.033-15.626-3.37-.09-6.233-.898-8.683-2.46Zm41.288 8.8c.13-5.135.173-8.852.134-11.89-3.466.186-6.716.7-9.518 1.257-.114 6.495-.072 11.25.13 14.828.281 4.995 2.022 7.61 3.595 7.61 1.87 0 5.45-3.464 5.66-11.805ZM49.508 66.59c4.744 1.522 8.03 4.526 9.112 8.39.853 3.141 1.061 6.08 1.283 9.19.042.603.086 1.214.135 1.834.008.12.34 5.733.75 13.357 10.39-1.195 16.507-6.358 16.545-14.176.051-10.77-10.22-18.451-19.846-18.869a54.29 54.29 0 0 0-2.331-.052c-1.979 0-3.86.113-5.648.326Z" fill="#FFB81C"/><path d="M101.596 82.774c.687-19.625-13.873-34.86-40.739-35.4C34.584 46.846 7.54 61.41 4.27 79.074c.27 3.862 3.184 7.154 7.173 7.743 3.171.47 4.984-.9 6.78-3.298 6.671-11.343 18.983-21.446 39.41-20.559 25.896 1.125 35.252 38.81-.019 40.001-.493-9.406-.926-16.691-.926-16.691-.29-3.672-.386-7.003-1.304-10.384-1.014-3.624-4.733-5.603-8.066-6.424-4.588-.436-9.728-.403-13.378 2.608-2.495 1.78-2.898 4.491-3.14 7.244 1.207 18.402 1.836 36.707 2.753 54.916.543 4.665-.531 9.95 3.043 13.33 5.555 3.43 14.538 4.782 20.286.774 1.352-1.545 2.028-3.334 2.076-5.41.24-3.58-.107-13.913-.598-24.79 22.116-.788 42.568-16.31 43.236-35.36" fill="#003594"/><path d="M159.473 117.682c-.444 17.705-15.045 20.689-15.968 4.3-.27-4.826-.226-11.22-.081-17.752 5-1.112 10.39-2.02 16.097-1.95.134 3.377.149 7.58-.048 15.402m26.744 13.02c-9.621 11.98-11.74-.442-12.056-3.695 0 0 .036-13.688.454-21.051.308.143.624.294.944.45.077.038.155.079.233.117.246.12.491.242.74.367a318.376 318.376 0 0 1 1.917.975l.4.203c.191.096.383.194.572.288.131.066.258.127.387.19.18.09.36.18.536.264.13.063.256.12.384.181.165.078.332.158.49.23.126.057.243.105.365.158.147.064.297.13.436.188l.064.028c.145.059.293.108.442.158l.049.017c.374.12.757.208 1.146.256.02.003.039.008.058.01.203.023.407.037.612.038.605.004 1.217-.077 1.74-.37.312-.176.593-.428.822-.782.216-.314.416-.64.602-.974.063-.114.114-.234.174-.349.116-.227.235-.452.338-.687.062-.138.11-.283.166-.424.087-.22.178-.436.254-.661.053-.158.092-.322.14-.483.062-.215.13-.426.183-.645.041-.168.068-.341.102-.512.043-.216.093-.431.126-.652.027-.175.039-.353.059-.531.024-.219.055-.435.069-.655.012-.183.009-.368.013-.551.006-.218.018-.435.014-.654-.004-.186-.023-.374-.034-.562-.013-.211-.02-.422-.042-.633-.003-.022-.002-.042-.004-.063a3.902 3.902 0 0 0-.117-.58c-.003-.012-.003-.024-.007-.036a4.28 4.28 0 0 0-.223-.61c-.01-.022-.016-.046-.026-.067-.067-.142-.15-.275-.231-.41-.046-.075-.084-.155-.135-.228-.068-.099-.15-.188-.225-.28-.075-.093-.144-.19-.227-.277l-.004-.007c-.261-.275-.522-.524-.782-.785-.238-.239-.477-.49-.714-.718-.264-.253-.526-.482-.79-.722-.236-.216-.472-.442-.708-.648-.267-.232-.534-.442-.802-.663-.228-.188-.457-.388-.685-.567-.28-.218-.557-.417-.836-.622-.214-.157-.428-.326-.64-.476-.304-.214-.606-.406-.908-.604-.185-.122-.37-.254-.555-.369-.309-.195-.616-.367-.922-.546-.175-.101-.352-.214-.527-.31-.312-.174-.62-.327-.931-.484-.167-.086-.336-.18-.503-.262a28.209 28.209 0 0 0-1.416-.641c.314-4.182.556-8.45.697-12.714-1.75-10.583-14.851-3.505-18.427-.606l.228 11.386-.51.044c-.217.018-.428.046-.642.067-.256.026-.513.051-.767.081-.298.036-.593.078-.89.12-.248.035-.499.069-.747.108-.297.046-.593.1-.889.152-.242.043-.483.083-.723.13-.3.057-.597.121-.895.184-.233.05-.467.096-.7.148-.303.068-.605.142-.906.215-.223.053-.446.105-.668.161-.32.08-.638.166-.956.252-.2.054-.4.104-.6.16-.363.1-.723.206-1.084.31l-.462.133c-.505.15-1.01.305-1.513.462l-.022.007c-.044.014-.089.024-.135.034l-.036.01c-.245.059-.86.238-1.735.501.257-8.656.397-15.447-.232-16.066-5.19-5.827-15.267.434-18.746 4.251.639 6.591 1.102 12.306 1.425 17.287a3.069 3.069 0 0 1-.663.121c-.282.015-.56.017-.835.006-.106-.003-.207-.018-.311-.026-.168-.013-.338-.022-.502-.044-.106-.014-.208-.038-.312-.056-.161-.027-.323-.051-.481-.088-.108-.024-.212-.058-.319-.086-.15-.04-.303-.076-.451-.124-.114-.035-.224-.081-.337-.121-.138-.05-.276-.095-.412-.15-.108-.045-.213-.097-.319-.145-.137-.06-.275-.119-.41-.185-.105-.053-.208-.113-.312-.17-.132-.07-.265-.137-.394-.213-.105-.06-.207-.128-.31-.192-.122-.076-.246-.148-.366-.228-1.038-.69-2.381-.826-3.457-.195a6.319 6.319 0 0 0-.517.34c-.058.043-.112.091-.169.135-.104.082-.21.162-.312.249l-.006.007a3.25 3.25 0 0 0-1.098 2.255c-.02.338-.035.678-.043 1.021-.003.105-.001.211-.002.317-.004.239-.006.477-.002.716.002.132.01.262.015.393.008.214.016.427.03.64.01.142.027.284.041.427.019.199.038.399.063.597.02.147.047.29.07.437.032.19.062.382.101.57.03.146.069.288.104.433.045.182.09.364.143.542.043.144.094.285.142.426.06.172.121.343.19.511.058.14.122.274.186.41.047.1.086.205.136.304.056.106.11.216.176.317.034.051.065.105.112.144l.003.003c.09.076.187.132.278.204.306.239.612.475.93.677.117.075.243.129.362.2.3.174.599.352.91.498.173.082.357.14.533.212.266.109.528.228.801.317.103.033.211.053.315.084.816.245 1.658.421 2.536.517.333.037.677.05 1.02.068.166.008.327.028.495.032 1.029.026 2.097-.026 3.2-.139.244 10.167-.327 15.834-1.031 19.723-2.784 15.369-14.925 13.732-14.303-7.53.196-6.678.032-16.484-.966-17.297-3.47-2.822-15.845-2.105-16.409 1.942-1.353 9.712.628 16.381-1.836 23.58-1.695 4.597-3.957 6.666-6.296 7.49-3.858 1.36-7.93-.676-10.036-.436-3.625.512-4.034 11.076 10.756 14.577 4.656 1.102 11.025-2.025 14.63-5.793 3.835 4.772 8.818 7.662 14.27 7.662 5.735 0 10.953-3.193 14.86-8.415 3.818 4.675 8.75 7.497 14.14 7.497 5.93 0 11.305-3.414 15.25-8.953 4.113 5.098 9.567 8.204 15.55 8.204 5.823 0 10.528-2.546 14.361-6.778 10.556-10.75 2.195-19.666-3.538-12.53M195.825 149.309c.54 0 1.019.042 1.019.61 0 .612-.836.509-1.447.509h-.693v-1.12h1.12Zm.468 1.77c.6-.02 1.2-.346 1.2-1.23 0-.947-.732-1.192-1.546-1.192h-1.893v4.499h.65v-2.077h.834l1.152 2.077h.743l-1.14-2.077Zm-.692 3.798c2.239 0 4.01-1.772 4.01-4.001 0-2.23-1.771-4-4.01-4-2.24 0-4.01 1.77-4.01 4s1.77 4 4.01 4Zm0-7.35a3.343 3.343 0 0 1 3.359 3.349 3.347 3.347 0 0 1-3.36 3.348 3.347 3.347 0 0 1-3.358-3.348c0-1.89 1.527-3.35 3.359-3.35Z" fill="#003594"/></g></svg>