<svg width="200" height="200" xmlns="http://www.w3.org/2000/svg"><g fill="none"><path d="M197.429 151.068h-.74v-.683h.74c.189 0 .344.154.344.341 0 .19-.155.342-.344.342zm.935-.342a.93.93 0 0 0-.935-.927l-1.334-.002v3.13h.593v-1.272h.426l.598 1.272h.654l-.624-1.325a.931.931 0 0 0 .622-.876zm-1.133 2.788a2.162 2.162 0 0 1-2.172-2.152c0-1.187.973-2.15 2.172-2.15a2.16 2.16 0 0 1 2.17 2.15 2.162 2.162 0 0 1-2.17 2.152zm0-4.89c-1.525 0-2.763 1.226-2.763 2.738s1.238 2.738 2.763 2.738c1.526 0 2.762-1.226 2.762-2.738s-1.236-2.737-2.762-2.737zm-81.507-32.858c0-1.085.06-2.157.123-3.27.03-.539.038-1.103.061-1.651 2.576 1.498 5.585 1.616 7.98 1.686l.285.01c.073 1.165.118 2.332.118 3.501 0 5.944-.945 11.86-2.729 16.91-.85 1.537-1.382 1.944-1.54 2.033l-.021-.001-.106-.002c-.875-.018-1.945-.424-2.354-1.245-1.288-4.985-1.576-10.53-1.762-16.256l-.002-.06-.004-.059c-.035-.54-.05-1.07-.05-1.596zm80.298 21.15c-2.145 5.214-6.822 11.058-12.523 12.7-7.015 3.283-14.86.24-20.364-4.106-.975-.675-1.267-1.738-2.095-2.414-5.019 5.94-11.645 9.852-19.488 7.968-3.898-.87-7.602-3.139-10.086-6.615-1.219.675-1.804 2.124-2.875 2.993-3.36 3.14-7.113 5.36-11.84 5.12-5.846-.194-10.717-2.801-14.762-7.148l-.487.096c-3.8 3.864-8.624 6.134-14.129 5.458-4.775-1.256-9.452-3.574-12.62-7.872l-.876-3.042c.122-1.723.585-3.332 2.437-3.67 3.41-.386 6.382 2.124 9.646.338 3.897-.531 5.165-4.588 6.82-7.389 2.485-7.194-.487-16.08 1.852-23.566 1.072-3.283 4.97-3.041 7.893-3.476 3.509.338 7.552-.676 9.403 2.801.829 4.298-.146 8.017.146 12.507.195 5.988.489 11.928 1.95 17.385.925 2.318 3.361 3.622 5.797 3.67 2.533.193 4.19-2.415 5.165-4.25 2.727-7.581 3.605-16.611 2.63-25.063l-.243-.241c-3.848-.627-8.867.58-11.353-3.042-1.508-2.656-1.508-6.181-1.217-9.224 1.17-1.352 2.68-2.462 4.385-2.366 2.192 1.738 4.726 2.898 7.65 2.608l.243-.483c-.78-5.554-.585-11.541-1.462-16.901 3.509-3.815 7.894-5.651 12.619-6.761 2.34.193 4.92.386 6.285 2.511 1.315 2.8.243 5.94.196 8.981l-.196 6.76c.73.436 1.413-.095 2.145-.192 4.188-1.304 8.476-2.318 13.056-2.752.292-3.477-.195-6.954-.292-10.624l.097-.773c3.606-2.897 7.6-4.974 12.375-5.119 1.85.29 3.654.629 5.018 2.077 2.388 2.704.585 6.712.877 10.093l-.438 5.746c4.482 2.752 9.403 5.264 12.862 9.803.878 3.767.146 7.726-1.899 10.672-.877 1.352-2.535 1.207-3.801 1.063-3.02-.87-5.41-3.284-8.478-4.105l-.292.82c-.049 8.114-1.121 16.806.292 24.918.633 1.16.683 2.609 1.997 3.333 1.316.772 3.217 1.4 4.63.434 2.386-1.642 4.092-4.008 6.139-6.181 1.656-1.159 3.897-1.208 5.65-.29 2.487 1.497 1.804 4.54 1.56 6.81zM50.643 67.802l.042-.008c5.225-.362 12.63-.052 18.584 3.424l.08.045c4.716 2.597 6.443 8.052 7.594 13.581.123.8.188 1.583.188 2.345 0 3.721-1.464 6.946-4.225 9.266-2.826 1.806-6.313 2.57-10.01 3.367l-.434.094-.926.096-.917-12.807-.139-1.86c-.224-3.127-.435-6.078-1.297-9.224-1.059-3.748-4.124-6.686-8.54-8.319zm11.882 51.39c-1.315.241-2.53.13-3.557.048.342 8.644.829 16.225.244 24.869-.05 2.076-.73 3.864-2.095 5.409-5.798 4.007-14.86 2.656-20.463-.773-3.605-3.38-2.522-8.664-3.07-13.328-.925-18.206-1.558-36.508-2.776-54.906.244-2.753.65-5.462 3.166-7.243 3.682-3.01 8.868-3.043 13.496-2.608 3.362.821 7.113 2.8 8.137 6.423.925 3.38 1.023 6.712 1.315 10.382l1.17 16.323c1.705.24 3.215-.097 4.969-.242 4.24-.918 8.429-1.74 12.034-4.105 4.58-3.719 6.431-9.32 5.505-15.212-1.266-6.132-3.312-12.796-9.451-16.177-6.041-3.525-13.593-4.442-20.901-3.911-8.673 1.352-16.663 4.443-23.68 9.85-4.871 3.67-6.869 9.32-11.546 13.04-1.949 1.062-4.97 1.69-7.016.434-2.68-.82-3.703-3.621-4.287-5.94.195-6.712 5.31-11.685 10.134-16.418C25.693 54.098 40.99 50.04 57.02 48.786c10.134-.821 19.342.82 27.624 4.925C95.51 59.748 102.817 71 102.184 83.458c-.048 9.32-5.31 16.756-11.84 23.566-7.892 7.194-17.344 10.961-27.819 12.168zm133.86 7.774l-.093-.057-.1-.051c-3.04-1.593-6.778-1.382-9.518.537l-.348.243-.223.25-1.748 1.945c-1.18 1.347-2.303 2.609-3.537 3.521-.139-.029-.359-.114-.665-.269-.048-.121-.1-.26-.143-.382l-.359-.833c-.47-2.851-.626-5.84-.626-8.866 0-2.603.11-5.232.217-7.82.033-.782.062-1.58.092-2.374 1.226.718 2.585 1.44 4.154 1.893l.301.086.31.035c1.41.161 5.148.583 7.305-2.677 1.882-2.732 2.884-6.12 2.884-9.558 0-1.33-.15-2.666-.456-3.974l-.176-.762-.476-.626c-3.378-4.434-7.904-7.138-11.897-9.523 0 0-.052-.032-.056-.033l.29-3.798-.025-.295a5.548 5.548 0 0 1-.02-.501c0-.675.09-1.468.184-2.297.106-.932.223-1.983.223-3.084 0-2.08-.423-4.34-2.168-6.316l-.04-.044-.04-.044c-2.295-2.437-5.215-2.895-7.148-3.197l-.345-.055-.347.011c-5.04.153-9.815 2.096-14.596 5.937l-1.159.931-.321 2.56.013.23.194 3.827c.076 1.187.136 2.33.164 3.453-2.485.38-5.034.947-7.725 1.689l.062-2.15c.013-.784.107-1.594.206-2.452.118-1.02.249-2.148.249-3.335 0-1.555-.224-3.208-.995-4.85l-.103-.219-.13-.204c-2.338-3.64-6.368-3.973-9.035-4.193l-.657-.054-.574.135c-3.984.936-9.82 2.769-14.503 7.86l-1.206 1.31.286 1.752c.43 2.625.585 5.446.75 8.432.07 1.27.145 2.561.24 3.855a10.906 10.906 0 0 1-1.448-.966l-.924-.732-1.18-.067c-1.85-.105-4.639.442-7.41 3.642l-.765.884-.11 1.16a34.611 34.611 0 0 0-.166 3.077c-2.028-.799-4.207-.844-5.91-.856-.776-.005-1.509-.01-2.155-.073l-.397-.038-.511.062-.476.055c2.541-4.381 4.342-9.417 4.389-15.158l.003-.079-.001.025a33.41 33.41 0 0 0 .038-1.553c0-12.77-7.34-24.702-19.472-31.442l-.076-.042-.078-.038c-8.859-4.391-18.812-6.174-29.584-5.302-19.958 1.564-34.388 7.063-45.401 17.304l-.072.069-.101.099C6.038 67.607.25 73.286.014 81.421L0 81.926l.124.49c.427 1.694 1.714 6.753 6.431 8.428 3.434 1.786 7.62.841 10.253-.595l.282-.153.25-.2c2.671-2.122 4.492-4.637 6.253-7.068 1.214-1.675 2.379-3.28 3.748-4.632a34.732 34.732 0 0 0-.225 1.995l-.024.281.018.28c.804 12.14 1.361 24.438 1.9 36.33l.88 18.648.014.113c.122 1.04.151 2.167.183 3.36.101 3.856.228 8.655 4.02 12.211l.277.26.324.198c6.717 4.11 17.3 5.656 24.529.66l.371-.257.298-.337c1.928-2.185 2.941-4.79 3.01-7.742l-.006.16c.203-3.006.28-5.886.28-8.715 0-4.293-.178-8.47-.362-12.788.12-.019.235-.025.359-.047-.08.009-.155.026-.234.035l.242-.036c10.321-1.23 19.312-4.809 26.785-10.656-.013.472-.021.943-.021 1.414 0 1.366.047 2.724.093 4.067.045 1.288.089 2.553.089 3.777 0 2.368-.174 4.58-.811 6.535l-.761 1.4c-1.157 2.221-1.944 3.582-3.114 3.742l-.683.093-.604.33c-.574.315-1.18.235-2.963-.204-1.451-.356-3.259-.8-5.312-.568l-.126.014-.125.023c-1.88.343-5.089 1.712-5.461 7.027l-.046.643 1.237 4.291.39.529c3.273 4.444 8.206 7.558 14.66 9.256l.244.064.251.03c5.31.652 10.365-.871 14.798-4.374 4.383 3.778 9.374 5.806 14.894 5.993 6.795.328 11.542-3.331 14.524-6.116l-.195.17c.177-.144.303-.295.457-.444a20.722 20.722 0 0 0 9.31 4.797c7.221 1.725 14.154-.42 20.264-6.149l-.143-.106c.047.038.096.069.143.106l.001-.001c.01.006.015.013.024.02 7.762 6.052 16.593 7.74 23.754 4.563 7.268-2.204 12.46-9.306 14.704-14.77l.191-.463.143-1.207c.091-.746.207-1.686.207-2.706 0-2.366-.622-5.16-3.607-6.958zM156.9 114.89l-.092 2.775c-.707 4.269-1.536 8.355-3.474 11.634-.961.784-1.536 1.089-2.026 1.055l-.21-.014-.21.009c-.6.026-1.12-.496-1.378-1.032-1.54-3.546-1.597-7.867-1.655-12.442l-.064-3.266.129-5.052c2.599-.828 5.548-1.274 8.966-1.384.094 1.045.131 2.135.131 3.25 0 1.47-.059 2.98-.117 4.467zm2.726-11.44c-5.505-.097-10.62.483-15.347 2.512l-.194 7.629c.194 5.843-.244 12.024 2.046 17.24.877 1.883 2.728 3.284 4.921 3.187 2.094.144 3.654-1.014 5.163-2.318 2.583-4.056 3.51-8.934 4.288-13.666.097-4.684.634-9.997-.437-14.44l-.44-.144zm31.85 8.646c-.019.02-.038.032-.058.05-.016.016-.025.035-.041.05l.1-.1zm-30.507 36.326l.1.099c-.015-.015-.025-.03-.041-.043-.018-.02-.038-.038-.058-.057l-.001.001zm-44.308 7.81l-.028-.009c-.025-.004-.048 0-.072-.006l.1.015zm24.118-1.585c-.02-.016-.037-.038-.057-.05-.014-.014-.028-.016-.043-.027l.1.077z" fill="#ADA157"/><path d="M160.503 118.034c-.779 4.732-1.705 9.61-4.288 13.666-1.509 1.304-3.069 2.462-5.163 2.318-2.193.097-4.044-1.304-4.921-3.187-2.29-5.216-1.852-11.397-2.046-17.24l.194-7.63c4.727-2.028 9.842-2.608 15.347-2.51l.44.143c1.07 4.443.534 9.756.437 14.44zm33.958 12.072c-1.753-.918-3.994-.869-5.65.29-2.047 2.173-3.753 4.54-6.139 6.18-1.413.967-3.314.34-4.63-.433-1.314-.724-1.364-2.173-1.997-3.333-1.413-8.112-.34-16.804-.292-24.917l.292-.82c3.069.82 5.458 3.234 8.478 4.104 1.266.144 2.924.29 3.801-1.063 2.045-2.946 2.777-6.905 1.9-10.672-3.46-4.54-8.38-7.051-12.863-9.803l.438-5.746c-.292-3.38 1.511-7.389-.877-10.093-1.364-1.448-3.167-1.786-5.018-2.077-4.774.145-8.77 2.222-12.375 5.12l-.097.772c.097 3.67.584 7.147.292 10.624-4.58.434-8.868 1.448-13.056 2.752-.732.097-1.415.628-2.145.193l.196-6.76c.047-3.042 1.12-6.182-.196-8.982-1.364-2.125-3.946-2.318-6.285-2.511-4.725 1.11-9.11 2.946-12.619 6.76.877 5.36.683 11.348 1.462 16.902l-.244.483c-2.923.29-5.457-.87-7.65-2.608-1.704-.096-3.214 1.014-4.384 2.366-.291 3.043-.291 6.568 1.217 9.224 2.486 3.622 7.505 2.415 11.353 3.042l.244.24c.974 8.453.096 17.483-2.63 25.064-.975 1.835-2.633 4.443-5.166 4.25-2.436-.048-4.872-1.352-5.797-3.67-1.461-5.457-1.755-11.397-1.95-17.385-.292-4.49.683-8.21-.146-12.507-1.851-3.477-5.894-2.463-9.403-2.801-2.923.435-6.821.193-7.893 3.476-2.339 7.486.633 16.372-1.851 23.566-1.656 2.801-2.924 6.858-6.821 7.389-3.264 1.786-6.236-.724-9.646-.338-1.852.338-2.315 1.947-2.437 3.67l.877 3.042c3.167 4.298 7.844 6.616 12.619 7.872 5.505.676 10.329-1.594 14.129-5.458l.487-.096c4.045 4.347 8.916 6.954 14.763 7.147 4.726.242 8.478-1.98 11.84-5.119 1.07-.869 1.655-2.318 2.874-2.993 2.484 3.476 6.188 5.746 10.086 6.615 7.843 1.884 14.47-2.027 19.488-7.968.828.676 1.12 1.74 2.095 2.414 5.504 4.347 13.349 7.39 20.364 4.105 5.701-1.641 10.378-7.485 12.523-12.7.243-2.27.926-5.312-1.56-6.809zm-92.277-46.648c.633-12.46-6.675-23.71-17.54-29.747-8.282-4.104-17.49-5.746-27.624-4.925-16.03 1.255-31.328 5.312-43.167 16.322-4.824 4.733-9.94 9.706-10.134 16.418.584 2.319 1.607 5.12 4.287 5.94 2.047 1.256 5.067.628 7.016-.434 4.677-3.72 6.675-9.37 11.547-13.04 7.016-5.407 15.006-8.498 23.679-9.85 7.308-.531 14.86.386 20.9 3.911 6.14 3.381 8.186 10.045 9.452 16.177.926 5.892-.925 11.493-5.505 15.212-3.605 2.366-7.795 3.187-12.034 4.105-1.754.145-3.264.483-4.97.242l-1.169-16.323c-.292-3.67-.39-7.002-1.315-10.382-1.024-3.622-4.775-5.602-8.137-6.423-4.628-.435-9.814-.402-13.496 2.608-2.516 1.78-2.922 4.49-3.166 7.243 1.218 18.398 1.851 36.7 2.777 54.906.547 4.664-.536 9.948 3.07 13.328 5.602 3.43 14.664 4.78 20.462.773 1.364-1.545 2.046-3.333 2.095-5.41.585-8.643.098-16.224-.244-24.868 1.027.083 2.242.193 3.557-.049 10.475-1.207 19.927-4.974 27.82-12.168 6.528-6.81 11.79-14.246 11.84-23.566z" fill="#17233A"/></g></svg>