<svg width="200" height="200" xmlns="http://www.w3.org/2000/svg" xmlns:xlink="http://www.w3.org/1999/xlink"><defs><path id="a" d="M0 .938h198.669v189.366H0z"/></defs><g transform="translate(0 5)" fill="none" fill-rule="evenodd"><mask id="b" fill="#fff"><use xlink:href="#a"/></mask><path d="M99.413 58.597a6.688 6.688 0 0 1 0-13.378c3.686.01 6.678 3 6.678 6.69a6.692 6.692 0 0 1-6.678 6.688Zm71.947 59.3c-1.051 0-33.616 5.356-33.616 5.356-1.491.153-2.891 1.416-3.154 2.819l-1.902 10.302 19.549-1.672A63.256 63.256 0 0 1 124.65 158.1s-10.821 3.602-13.122-7.393c-1.309-6.263-4.147-66.55-4.147-66.55l28.19-3.334c1.661-.01 3.347-1.238 3.792-2.763l2.418-8.433h-35.159l-.172-3.532c5.212-2.596 8.803-7.963 8.803-14.185 0-8.749-7.09-15.843-15.84-15.856-8.744.013-15.839 7.107-15.839 15.856 0 6.222 3.592 11.589 8.807 14.185l-.175 3.532h-35.16l2.416 8.433c.447 1.525 2.135 2.754 3.794 2.763l28.19 3.335s-2.836 60.286-4.147 66.549C85 161.7 74.181 158.099 74.181 158.099a63.212 63.212 0 0 1-27.587-23.397l19.708 1.672-1.905-10.302c-.26-1.403-1.666-2.666-3.15-2.82 0 0-32.484-5.354-33.778-5.354-1.119 0-1.719.739-1.381 2.128l.352 1.24c5.734 20.036 19.494 36.681 37.576 46.236 0 0 27.893 15.792 35.027 22.548l.37.35.371-.35c7.134-6.756 35.026-22.548 35.026-22.548 18.084-9.555 31.843-26.2 37.574-46.236l.357-1.24c.337-1.39-.263-2.128-1.381-2.128Z" fill="#2E2153" mask="url(#b)"/><path d="M194.312 94.5c-3.734-1.6-7.768.28-11.762 1-1.652.356-3.412.874-4.93 1.198v-3.476h-2.657c-1.457-15.616-7.641-29.856-17.11-41.275l1.931-1.934-2.256-2.26c1.315-.806 2.709-1.641 4.238-2.596 3.444-2.147 7.637-3.856 9.178-7.6 1.213-2.794.734-5.14-1.216-7.371-2.203-1.92-4.522-2.372-7.315-1.156-3.773 1.51-5.295 5.688-7.61 9.02-.918 1.425-1.793 3.038-2.643 4.337l-2.454-2.456-1.94 1.938c-11.41-9.447-25.632-15.616-41.225-17.069v-2.813h-3.19c.358-1.499.755-3.078 1.155-4.832.92-3.955 2.675-8.126 1.12-11.862-1.12-2.837-3.117-4.155-6.076-4.355-2.913.2-4.872 1.518-5.987 4.355-1.6 3.736.277 7.768 1 11.761.355 1.655.874 3.415 1.197 4.933h-3.475V24.8c-15.594 1.453-29.813 7.622-41.223 17.066l.02-.044-2.007-2.003-2.256 2.26c-.806-1.316-1.641-2.713-2.6-4.239-2.147-3.446-3.853-7.637-7.597-9.178-2.793-1.214-5.14-.734-7.372 1.216-1.922 2.202-2.372 4.519-1.156 7.312 1.51 3.773 5.69 5.298 9.021 7.61 1.426.918 3.035 1.794 4.335 2.643l-2.456 2.458L41 51.902l.016-.004c-9.462 11.39-15.653 25.59-17.138 41.168H21.05v3.19c-1.5-.358-3.076-.757-4.83-1.155-3.958-.92-8.129-2.675-11.866-1.12C1.518 95.1.2 97.098 0 100.053c.2 2.915 1.518 4.872 4.354 5.99 3.737 1.597 7.768-.277 11.764-1 1.653-.358 3.413-.878 4.932-1.197v3.476h2.8a76.937 76.937 0 0 0 1.068 7.45l4.51.697c2.447.347 6.878 1.037 11.956 1.85a60.457 60.457 0 0 1-2.427-16.969c0-28.01 19.05-51.563 44.896-58.428 3.297-5.119 9.035-8.52 15.56-8.528 6.525.008 12.265 3.41 15.561 8.528 25.845 6.862 44.895 30.419 44.895 58.428 0 5.903-.856 11.607-2.435 16.997 3.76-.603 6.76-1.078 9.006-1.425l7.472-1.181a77.1 77.1 0 0 0 1.048-7.263h2.66v-3.19c1.498.358 3.074.755 4.83 1.158 3.956.917 8.128 2.672 11.862 1.117 2.838-1.12 4.157-3.117 4.357-6.072-.2-2.917-1.519-4.875-4.357-5.992" fill="#2E2153" mask="url(#b)"/></g></svg>