<svg width="200" height="200" xmlns="http://www.w3.org/2000/svg"><g fill="none"><path d="M157.772 98.822c-1.917 6.617-8.788 11.992-15.422 11.992H105.6c4.158-14.488 6.312-22.006 9.27-32.308 6.513-22.708 14.42-43.846 42.919-59.188 7.484-4.017 15.467-5.932 24.474-5.866l-24.491 85.37zm-54.704-14.21c-.949 3.495-13.714 47.798-13.714 47.798-6.294 20.263-13.25 46.632-35.966 54.87-12.04 4.358-18.556 3.81-27.043 3.81h-6.843L69.406 17.144C71.321 10.52 78.22 5.152 84.842 5.152h64.52c-30.397 25.41-37.765 50.29-46.294 79.46zM174.1.14H86.28c-9.356 0-19.175 7.621-21.892 17.004L13.043 196.108h11.86c.852 0 1.678.007 2.493.01.814.007 1.617.012 2.414.012.633 0 1.274-.005 1.914-.015.23 0 .466 0 .693.002.812.008 1.617.013 2.412.013 6.595 0 13.401-.322 24.126-4.198 11.137-4.039 20.278-12.326 27.169-24.63 5.626-10.042 9.123-21.424 12.21-31.463.343-1.117.684-2.221 1.02-3.307l.034-.113s2.164-7.511 4.775-16.596h36.75c9.345 0 19.158-7.621 21.873-17l23.44-81.692c2.66-9.37-2.777-16.99-12.125-16.99z" fill="#FEFFFF"/><path d="M157.789 19.318c-28.5 15.342-36.406 36.48-42.92 59.188-2.957 10.302-5.11 17.82-9.27 32.308h36.751c6.634 0 13.505-5.375 15.422-11.992l24.49-85.37c-9.006-.066-16.989 1.849-24.473 5.866" fill="#302566"/><path d="M84.842 5.152c-6.623 0-13.521 5.368-15.436 11.992L19.502 191.09h6.843c8.487 0 15.002.548 27.043-3.81 22.715-8.238 29.672-34.607 35.966-54.87 0 0 12.765-44.303 13.714-47.797 8.53-29.17 15.897-54.051 46.295-79.46h-64.52m11.263 182.13c1.19 0 2.244.09 2.244 1.346 0 1.344-1.84 1.12-3.186 1.12h-1.528v-2.466h2.47zm1.033 3.9c1.32-.042 2.645-.763 2.645-2.711 0-2.087-1.615-2.625-3.409-2.625h-4.172v9.91h1.433v-4.573h1.839l2.537 4.574h1.637l-2.51-4.574zm-1.528 8.366c4.936 0 8.84-3.9 8.84-8.813 0-4.911-3.904-8.812-8.84-8.812s-8.839 3.901-8.839 8.812c0 4.913 3.903 8.813 8.84 8.813zm0-16.193c4.038 0 7.407 3.21 7.407 7.38 0 4.15-3.37 7.378-7.407 7.378s-7.402-3.228-7.402-7.378c0-4.17 3.365-7.38 7.402-7.38z" fill="#302566"/></g></svg>