<?xml version="1.0" encoding="UTF-8"?>
<svg width="200px" height="200px" viewBox="0 0 200 200" version="1.1" xmlns="http://www.w3.org/2000/svg" xmlns:xlink="http://www.w3.org/1999/xlink">
    <!-- Generator: Sketch 51.3 (57544) - http://www.bohemiancoding.com/sketch -->
    <title>portland</title>
    <desc>Created with Sketch.</desc>
    <defs></defs>
    <g id="portland" stroke="none" stroke-width="1" fill="none" fill-rule="evenodd">
        <g id="portland_BGL" transform="translate(13.043478, 0.000000)">
            <g id="portland">
                <g id="g10" transform="translate(86.976592, 99.796238) scale(-1, 1) rotate(-180.000000) translate(-86.976592, -99.796238) translate(0.000000, 0.043050)" fill-rule="nonzero">
                    <g id="g12">
                        <path d="M144.7283,100.726951 C142.81107,94.1101145 135.940762,88.7356074 129.306573,88.7356074 L92.5563883,88.7356074 C96.7149742,103.223588 98.8683236,110.741198 101.826277,121.043475 C108.339878,143.751643 116.246415,164.889212 144.745527,180.231365 C152.229633,184.248443 160.212755,186.16303 169.219373,186.097526 L144.7283,100.726951 Z M90.0242367,114.936634 C89.0760139,111.442091 76.3107713,67.1395101 76.3107713,67.1395101 C70.0164373,46.8761378 63.0598079,20.507047 40.3449675,12.2698667 C28.3036248,7.91098926 21.7883384,8.45936978 13.3011832,8.45936978 L6.45888733,8.45936978 L56.3628912,182.405722 C58.2771253,189.029484 65.1757078,194.397066 71.7988489,194.397066 L136.319377,194.397066 C105.921947,168.987515 98.5537473,144.106674 90.0242367,114.936634 Z M161.057991,199.409056 L73.2370991,199.409056 C63.8814512,199.409056 54.0623651,191.788137 51.3455871,182.405722 L0,3.44180314 L11.859806,3.44180314 C12.7112778,3.44180314 13.5375835,3.43427955 14.3529165,3.43237057 C15.1666953,3.42492184 15.96967,3.41928849 16.7661284,3.41928849 C17.3999247,3.41928849 18.0401623,3.42492184 18.6803062,3.43427955 C18.9101529,3.43427955 19.1466468,3.43427955 19.3735911,3.43237057 C20.1856847,3.42492184 20.9902884,3.41928849 21.7851552,3.41928849 C28.3802091,3.41928849 35.1866658,3.741175 45.9118439,7.61717589 C57.0485926,11.6559822 66.1898418,19.9439 73.0805599,32.2481657 C78.7067938,42.2899242 82.2032716,53.6713325 85.2909874,63.710658 C85.6336508,64.8275943 85.9750035,65.931804 86.3113005,67.0174855 L86.3442561,67.1301524 C86.3442561,67.1301524 88.5084659,74.6415861 91.1198234,83.7267996 L127.869821,83.7267996 C137.214796,83.7267996 147.027515,91.3477185 149.742795,100.726951 L173.182285,182.418262 C175.842701,191.788137 170.405775,199.409056 161.057991,199.409056 Z" id="path14" fill="#FEFFFF"></path>
                        <path d="M144.745527,180.231365 C116.246415,164.889212 108.339878,143.751643 101.826277,121.043475 C98.8683236,110.741198 96.7149742,103.223588 92.5563883,88.7356074 L129.306573,88.7356074 C135.940762,88.7356074 142.81107,94.1101145 144.7283,100.726951 L169.219373,186.097526 C160.212755,186.16303 152.229633,184.248443 144.745527,180.231365" id="path16" fill="#302566"></path>
                        <path d="M71.7988489,194.397066 C65.1757078,194.397066 58.2771253,189.029484 56.3628912,182.405722 L6.45888733,8.45936978 L13.3011832,8.45936978 C21.7883384,8.45936978 28.3036248,7.91098926 40.3449675,12.2698667 C63.0598079,20.507047 70.0164373,46.8761378 76.3107713,67.1395101 C76.3107713,67.1395101 89.0760139,111.442091 90.0242367,114.936634 C98.5537473,144.106674 105.921947,168.987515 136.319377,194.397066 L71.7988489,194.397066" id="path18" fill="#302566"></path>
                        <path d="M83.0623643,12.2664979 C84.2517622,12.2664979 85.3065289,12.1762896 85.3065289,10.9204475 C85.3065289,9.57666163 83.4662578,9.80124667 82.1201335,9.80124667 L80.5927534,9.80124667 L80.5927534,12.2664979 L83.0623643,12.2664979 Z M84.0952231,8.36579268 C85.4162561,8.40885686 86.7400979,9.12940053 86.7400979,11.0776945 C86.7400979,13.1643889 85.1250858,13.7024572 83.3316266,13.7024572 L79.1591845,13.7024572 L79.1591845,3.7917815 L80.5927534,3.7917815 L80.5927534,8.36579268 L82.4315266,8.36579268 L84.968734,3.7917815 L86.6054668,3.7917815 L84.0952231,8.36579268 Z M82.567843,0 C87.5038816,0 91.4078105,3.90025607 91.4078105,8.81305379 C91.4078105,13.7243917 87.5038816,17.625621 82.567843,17.625621 C77.6316171,17.625621 73.7286245,13.7243917 73.7286245,8.81305379 C73.7286245,3.90025607 77.6316171,0 82.567843,0 Z M82.567843,16.1929369 C86.6054668,16.1929369 89.9742415,12.982868 89.9742415,8.81305379 C89.9742415,4.66386392 86.6054668,1.43545773 82.567843,1.43545773 C78.5300319,1.43545773 75.1653767,4.66386392 75.1653767,8.81305379 C75.1653767,12.982868 78.5300319,16.1929369 82.567843,16.1929369 Z" id="path20" fill="#302566"></path>
                    </g>
                </g>
            </g>
        </g>
    </g>
</svg>