<svg width="200" height="200" xmlns="http://www.w3.org/2000/svg"><g fill="none" fill-rule="evenodd"><path fill="#FFF" d="M28.14 11.717v30.842l10.032 8.34v92.183l9.527 18.734 13.623 11.95 36.098 19.98 40.492-19.98 14.515-11.95 9.883-18.734V50.898l10.998-8.34V11.718l-72.584 46.789z"/><path fill="#1D4231" fill-rule="nonzero" d="M78.056 72.355 60.34 60.485v30.152L78.056 78.76v-6.405"/><path d="m167.019 41.802-8.928 5.962v44.218l-18.878-12.656V60.479L121.5 72.355v6.41l36.59 24.532.004 30.554c0 12.677-7.276 24.083-18.88 32.034-9.535 6.528-20.925 10.723-34.678 11.363l.007-75.05 18.878 12.652v38.382c10.569-4.539 15.677-12.231 15.792-19.18v-20.686l-34.663-23.24v-29.13l62.469-41.845v22.651Zm-72.01 48.314L60.34 113.36v52.523c-11.6-7.951-18.873-19.358-18.873-32.031 0 0 .003-51.498.003-86.102l-8.935-5.97V19.134L95.01 61.007v29.11Zm4.761-37.4L23 1.305V46.91l9.538 6.35v80.989c0 12.592 5.24 24.387 15.227 33.754 5.686 5.686 14.734 11.968 20.212 15.082C82.98 191.61 99.77 200.54 99.77 200.54s16.796-8.931 31.799-17.456c5.482-3.114 14.526-9.396 20.209-15.082 9.987-9.367 15.23-21.162 15.23-33.754V53.26l9.535-6.35V1.306L99.77 52.716ZM146.265 197.487l-2.98-7.317h-2.587v10.368h1.58v-8.789h.05l3.443 8.789h.964l3.548-8.789h.048v8.789h1.576V190.17h-2.564l-3.078 7.317M130.428 191.75h3.398v8.788h1.58v-8.789h3.399v-1.58h-8.377v1.58" fill="#1D4231" fill-rule="nonzero"/><path fill="#1D4231" fill-rule="nonzero" d="M78.056 72.355 60.34 60.485v30.152L78.056 78.76v-6.405"/><path d="m167.019 41.802-8.928 5.962v44.218l-18.878-12.656V60.479L121.5 72.355v6.41l36.59 24.532.004 30.554c0 12.677-7.276 24.083-18.88 32.034-9.535 6.528-20.925 10.723-34.678 11.363l.007-75.05 18.878 12.652v38.382c10.569-4.539 15.677-12.231 15.792-19.18v-20.686l-34.663-23.24v-29.13l62.469-41.845v22.651Zm-72.01 48.314L60.34 113.36v52.523c-11.6-7.951-18.873-19.358-18.873-32.031 0 0 .003-51.498.003-86.102l-8.935-5.97V19.134L95.01 61.007v29.11Zm4.761-37.4L23 1.305V46.91l9.538 6.35v80.989c0 12.592 5.24 24.387 15.227 33.754 5.686 5.686 14.734 11.968 20.212 15.082C82.98 191.61 99.77 200.54 99.77 200.54s16.796-8.931 31.799-17.456c5.482-3.114 14.526-9.396 20.209-15.082 9.987-9.367 15.23-21.162 15.23-33.754V53.26l9.535-6.35V1.306L99.77 52.716Z" fill="#1D4231" fill-rule="nonzero"/></g></svg>