<svg width="200" height="200" xmlns="http://www.w3.org/2000/svg"><g fill="none" fill-rule="evenodd"><path d="M99.837 80.776h8.057v-7.414h-8.057v7.414zm-52.445 0h18.38v-10.57l24.89-25.973h17.232V31.307l-60.51.014.008 49.455zM2.508 1.508h117.467l23.507 18.07-.006 24.586h30.306l23.02 20.845v28.697H163.87V73.362h-20.388v12.354l-26.66 25.758H99.915v56.67h63.979l-.024-20.335h32.932v28.296l-24.095 21.771H90.663l-24.89-21.73v-64.672H47.468v16.648h11.638l.08 29.405H2.507l.002-29.405H14.15l-.096-96.815-11.546.007-.001-29.806z" fill="#005DA9"/><path d="M1.002 0v32.821l11.546-.006.095 93.8H1.002L1 159.034h59.698l-.086-32.42H48.976v-13.633h15.288v63.848l25.834 22.554h83.19l25.022-22.61v-30.472h-35.95l.024 20.334h-60.962v-53.654h16.01l27.557-26.627V74.869h17.374v20.344h35.947V64.341l-23.948-21.685h-29.378l.005-23.82L120.487 0H1.002zm3.015 3.015h115.445l22.512 17.306-.006 25.35h31.231l22.095 20.006v26.521h-29.917V71.854h-23.403v13.221l-25.761 24.892H98.407v59.684h66.995l-.023-20.335h29.915v26.12l-23.167 20.933H91.228L67.28 175.46v-65.493H45.962v19.662h11.643l.07 26.39H4.015l.002-26.39h11.644l-.1-99.831-11.544.007V3.015zm41.857 26.8l.011 52.468H67.28V70.811l24.027-25.07H109.4V29.799l-63.527.015zm3.018 3.013l57.494-.014v9.912H90.02L64.264 69.6v9.668H48.9l-.008-46.44zm49.437 49.455h11.072V71.854H98.33v10.43zm3.017-3.014h5.04v-4.4h-5.04v4.4z" fill="#A90533"/><path d="M46.015 29.953l.009 52.192h21.117v-11.39l24.106-25.154h18.015V29.937l-63.247.016zm52.454 52.192h10.792V71.993H98.47v10.152zm-7.292 114.364l-24.036-20.984v-65.418H46.1v19.382h11.642l.072 26.667H3.876l.001-26.667h11.645l-.1-99.552-11.545.007V2.875h115.632l22.604 17.378-.006 25.279h31.149l22.178 20.083v26.722h-30.196V71.994h-23.125v13.14l-25.845 24.973H98.546v59.407h66.717l-.023-20.338h30.194v26.32L172.18 196.51H91.177z" fill="#005DA9"/><path d="M98.47 82.146h10.792V71.994H98.469v10.152zm-52.446-.001l-.009-52.192 63.247-.016V45.6H91.248L67.14 70.756v11.389H46.024zm73.486-79.27H3.878v27.069l11.545-.007.098 99.552H3.878l-.002 26.667h53.938l-.07-26.667H46.1v-19.382h21.04v65.418l24.036 20.984h81.006l23.252-21.013v-26.32H165.24l.024 20.338H98.546v-59.407h17.722l25.846-24.972V71.994h23.124v20.343h30.196V65.615l-22.179-20.083h-31.147l.006-25.279L119.51 2.875zm-25.061 83.29h18.833V67.974H94.45v18.19zm-52.445 0H71.16V72.37l21.803-22.75h20.319V25.916h-4.021l-63.247.017h-4.02l.001 4.02.01 52.193v4.019zm76.138-79.27l19.951 15.337-.006 23.299v4.02h33.617l19.709 17.847v20.919h-22.155V67.974h-31.165v15.455l-23.451 22.657H94.526v67.448h74.763l-.005-4.025-.018-16.313h22.148v20.516l-20.78 18.776H92.685l-21.525-18.79v-67.611H42.08v27.422h11.654l.05 18.627H7.896V133.51h11.65l-.004-4.025-.099-99.552-.004-4.018-4.02.002-7.521.005V6.895h110.244z" fill="#A6A8AB"/><path d="M43.961 27.9l.011 56.298h25.22V71.58l22.931-23.926h19.192v-19.77l-67.354.017zm52.455 56.298h14.9V69.941h-14.9v14.257zm-4.47 110.26l-22.753-19.866v-66.539H44.048v23.49h11.647l.06 22.562H5.93l.001-22.562h11.646l-.103-103.66-11.543.006-.001-22.96h112.883l21.248 16.334-.008 26.32h32.412l20.917 18.944v23.757h-26.089V69.941H140.06v14.323l-24.62 23.79H96.492v63.51h70.825l-.022-20.336h26.086v23.356l-21.99 19.873H91.946z" fill="#005DA9"/><path d="M96.416 84.198h14.9V69.941h-14.9v14.257zm-52.444 0l-.011-56.297 67.354-.017v19.77H92.123L69.193 71.58v12.618H43.972zm74.84-79.27H5.929V27.89l11.544-.006.103 103.66H5.93l-.001 22.562h49.827l-.06-22.562h-11.65v-23.49h25.146v66.539l22.753 19.865h79.445l21.99-19.873v-23.356h-26.085l.021 20.337H96.492v-63.512h18.948l24.62-23.789V69.941h27.232v20.343h26.089V66.527l-20.917-18.943h-32.412l.008-26.32-21.248-16.335zM93.401 87.214h20.929V66.926H93.401v20.287zm-52.444 0h31.252V72.792l21.2-22.123h20.921v-25.8h-3.016l-67.353.016-3.015.001v3.016l.01 56.296v3.015zm76.83-79.27l19.258 14.806-.008 24.834V50.6h34.265l19.063 17.264V87.27h-20.058V66.926h-33.262v16.059l-22.824 22.053H93.477v69.542h76.858l-.003-3.018-.019-17.319h20.052v19.002l-20.135 18.197H93.078l-20.87-18.22v-68.184H41.033v29.52h11.656l.044 16.531H8.944l.001-16.531h11.649l-.003-3.018-.103-103.66-.003-3.014-3.014.002-8.526.005V7.943h108.843z" fill="#FFF"/></g></svg>