<svg width="200" height="200" xmlns="http://www.w3.org/2000/svg"><g fill-rule="nonzero" fill="none"><path d="M31.559.622H23v44.893h18.947v108.96H23v44.87h90.09v-44.87H94.14v-31.087h19.568c17.815 0 33.876-6.088 45.217-17.154 11.371-11.087 17.627-26.796 17.627-44.229 0-17.429-6.256-33.14-17.627-44.225C147.585 6.717 131.523.622 113.708.622H31.56Zm0 6.999h82.15c32.884 0 55.852 22.362 55.852 54.384 0 32.025-22.968 54.387-55.853 54.387h-26.56v45.081h18.95v30.881H29.99v-30.88h18.955V38.52H29.99V7.62h1.569Z" fill="#FFF"/><path d="M90.648 38.52h-3.5v47.144h19.809c16.997 0 27.982-9.25 27.982-23.568 0-14.324-10.985-23.575-27.982-23.575h-16.31Zm16.309 6.995c13.143 0 20.984 6.198 20.984 16.581 0 10.379-7.841 16.577-20.984 16.577H94.14V45.515h12.816Z" fill="#FFF"/><path d="M90.648 78.42V56.653c-17.204-21.6-35.635-39.406-50.201-52.532H26.494v20.423c23.666 15.17 46.18 35.562 64.154 53.876M94.289 82.167c15.277 15.858 26.845 29.71 32.383 36.562a61.8 61.8 0 0 0 1.621-.322c-5.412-12.794-12.028-24.925-19.33-36.292a43.09 43.09 0 0 1-2.006.052H94.289M82.586 4.121H62.693C74.487 15.184 86.951 28.07 99.297 42.023h7.66c15.332 0 24.482 7.873 24.482 20.073 0 5.202-1.669 9.613-4.768 12.968 8.515 10.998 16.652 22.258 24.104 33.488 7.44-5.444 13.287-12.665 17.121-21.25-24.12-37.268-55.945-64.255-85.31-83.18M51.571 62.281c14.498 19.565 28.103 39.046 40.365 57.61h14.305c-28.472-32.434-54.67-57.61-54.67-57.61M45.446 136.684v10.834c14.974 17.75 25.943 33.463 34.512 48.338h23.737c-20.631-24.525-41.364-44.456-58.25-59.172M45.446 82.382v25.638c14.047 14.589 28.34 31.541 42.536 51.184 0 0-14.509-38.142-42.536-76.822M54.37 195.856c-5.107-10.372-12.402-23.612-22.193-37.885h-5.683v14.28a388.91 388.91 0 0 1 20.82 23.605h7.056M122.42 8.65c27.427 29.577 41.187 54.893 48.027 71.77 1.707-5.694 2.61-11.864 2.61-18.415 0-1.575-.052-3.13-.154-4.66C146.943 21.17 122.42 8.65 122.42 8.65" fill="#231F20"/><path d="M108.963 82.115c7.302 11.367 13.918 23.498 19.33 36.292 8.494-1.793 16.077-5.165 22.482-9.855-7.452-11.23-15.59-22.49-24.104-33.488-3.844 4.16-9.893 6.683-17.708 7.05M126.672 118.729c-5.538-6.851-17.106-20.704-32.383-36.562h-3.641V78.42C72.675 60.106 50.16 39.714 26.494 24.544v17.479h18.952v40.359c28.027 38.68 42.536 76.822 42.536 76.822-14.196-19.643-28.49-36.595-42.536-51.184V136.684c16.885 14.716 37.618 34.647 58.249 59.172h5.898v-37.885H90.648v-38.08h1.288c-12.262-18.564-25.867-38.045-40.365-57.61 0 0 26.198 25.176 54.67 57.61h7.467c4.507 0 8.838-.4 12.964-1.162M47.314 195.856a388.91 388.91 0 0 0-20.82-23.604v23.604h20.82M45.446 157.971h-13.27c9.792 14.273 17.087 27.513 22.194 37.885h25.588c-8.569-14.875-19.538-30.588-34.512-48.338v10.453M90.648 56.653v-14.63h8.65C86.95 28.07 74.486 15.184 62.692 4.12H40.447c14.566 13.126 32.997 30.932 50.2 52.532M113.708 4.121H82.586c29.365 18.926 61.19 45.913 85.31 83.182a56.846 56.846 0 0 0 2.551-6.882c-6.84-16.878-20.6-42.194-48.027-71.77 0 0 24.524 12.518 50.483 48.695-2.125-31.57-25.87-53.225-59.195-53.225" fill="#F4731C"/><path fill="#FFF" d="M120.311 191.26v7.068h-1.24v-7.068h-2.253v-1.117h5.747v1.117h-2.254M129.958 198.328v-5.471l-1.885 3.989h-.918l-1.932-3.99v5.472h-1.242v-8.185h1.242l2.389 5.092 2.346-5.092h1.242v8.185h-1.242"/></g></svg>