<svg width="200" height="200" xmlns="http://www.w3.org/2000/svg"><g fill="none"><path d="M31.593.622h-8.56v44.893h18.948v108.96H23.034v44.87h90.09v-44.87h-18.95v-31.087h19.568c17.814 0 33.876-6.088 45.216-17.154 11.372-11.087 17.628-26.796 17.628-44.229 0-17.429-6.256-33.14-17.628-44.225C147.618 6.717 131.556.622 113.742.622h-82.15zm0 6.999h82.15c32.884 0 55.851 22.362 55.851 54.384 0 32.025-22.967 54.387-55.852 54.387h-26.56v45.081h18.949v30.881H30.024v-30.88h18.954V38.52H30.024V7.62h1.569z" fill="#FFF"/><path d="M90.682 38.52h-3.5v47.144h19.808c16.998 0 27.983-9.25 27.983-23.568 0-14.324-10.985-23.575-27.983-23.575H90.682zm16.308 6.995c13.144 0 20.985 6.198 20.985 16.581 0 10.379-7.841 16.577-20.985 16.577H94.174V45.515h12.816z" fill="#FFF"/><path d="M90.682 78.42V56.653C73.477 35.053 55.047 17.247 40.48 4.121H26.528v20.423c23.665 15.17 46.18 35.562 64.154 53.876m3.641 3.747c15.276 15.858 26.844 29.71 32.383 36.562a61.8 61.8 0 0 0 1.62-.322c-5.41-12.794-12.027-24.925-19.33-36.292a43.09 43.09 0 0 1-2.006.052H94.323M82.62 4.121H62.727C74.521 15.184 86.985 28.07 99.331 42.023h7.66c15.332 0 24.481 7.873 24.481 20.073 0 5.202-1.668 9.613-4.767 12.968 8.515 10.998 16.652 22.258 24.104 33.488 7.44-5.444 13.287-12.665 17.121-21.25-24.12-37.268-55.946-64.255-85.31-83.18M51.605 62.281c14.498 19.565 28.103 39.046 40.365 57.61h14.305c-28.472-32.434-54.67-57.61-54.67-57.61m-6.125 74.403v10.834c14.974 17.75 25.943 33.463 34.511 48.338h23.737c-20.63-24.525-41.364-44.456-58.249-59.172m.001-54.302v25.638c14.046 14.589 28.34 31.541 42.536 51.184 0 0-14.509-38.142-42.537-76.822m8.925 113.474c-5.107-10.372-12.402-23.612-22.194-37.885h-5.682v14.28a388.91 388.91 0 0 1 20.82 23.605h7.056M122.454 8.65c27.426 29.577 41.187 54.893 48.027 71.77 1.706-5.694 2.61-11.864 2.61-18.415 0-1.575-.052-3.13-.154-4.66C146.977 21.17 122.454 8.65 122.454 8.65" fill="#231F20"/><path d="M108.997 82.115c7.302 11.367 13.918 23.498 19.33 36.292 8.494-1.793 16.077-5.165 22.482-9.855-7.452-11.23-15.59-22.49-24.104-33.488-3.844 4.16-9.893 6.683-17.708 7.05m17.709 36.615c-5.539-6.851-17.107-20.704-32.383-36.562h-3.641V78.42C72.708 60.106 50.193 39.714 26.528 24.544v17.479h18.951v40.359c28.028 38.68 42.537 76.822 42.537 76.822-14.196-19.643-28.49-36.595-42.537-51.184v28.664c16.885 14.716 37.618 34.647 58.25 59.172h5.898v-37.885H90.682v-38.08h1.288c-12.262-18.564-25.867-38.045-40.365-57.61 0 0 26.198 25.176 54.67 57.61h7.467c4.507 0 8.838-.4 12.964-1.162m-79.358 77.127a388.91 388.91 0 0 0-20.82-23.604v23.604h20.82m-1.868-37.885H32.21c9.792 14.273 17.087 27.513 22.194 37.885h25.587c-8.568-14.875-19.537-30.588-34.512-48.338v10.453M90.682 56.653v-14.63h8.649C86.985 28.07 74.521 15.184 62.727 4.12H40.481c14.566 13.126 32.996 30.932 50.2 52.532m23.061-52.531H82.62c29.364 18.926 61.19 45.913 85.31 83.182a56.846 56.846 0 0 0 2.551-6.882c-6.84-16.878-20.6-42.194-48.027-71.77 0 0 24.524 12.518 50.483 48.695-2.125-31.57-25.87-53.225-59.195-53.225" fill="#F4731C"/><path fill="#FFF" d="M120.345 191.26v7.068h-1.24v-7.068h-2.253v-1.117h5.747v1.117h-2.254m9.647 7.068v-5.471l-1.885 3.989h-.919l-1.932-3.99v5.472h-1.241v-8.185h1.241l2.39 5.092 2.346-5.092h1.242v8.185h-1.242"/></g></svg>