<svg width="200" height="200" xmlns="http://www.w3.org/2000/svg"><g fill="none" fill-rule="evenodd"><path d="M164.173 115.96a71.484 71.484 0 0 1-6.571-2.757l7.275-10.873-1.936-5.454 2.884-5.309c.29-.158.58-.33.808-.493a6.889 6.889 0 0 0 2.003-2.182c1.103-1.916 1.357-3.77 1.179-5.42a10.755 10.755 0 0 0-.428-2.015c-.138-.447-.292-.862-.427-1.247 0 0-1.22-3.63-2.564-7.43l3.088-2.98-2.302-6.336 12.78-7.167-5.778-5.69c-.542-.534-11.518-11.14-32.631-14.715-10.93-1.851-21.756-.267-30.794 2.056-8.829 2.269-16.364 5.373-21.155 7.078-3.854 1.373-7.534 2.147-10.242 2.62-3.966.695-14.92 1.544-14.92 1.544s3.867 5.343 4.62 6.455a55.162 55.162 0 0 1 1.942 3.167 26.093 26.093 0 0 1 1.633 3.784c1.157 3.353 2.174 8.263 1.475 14.331-1.686 14.651-9.862 22.916-30.827 32.315C11.316 123.576 6.59 130.56 4.792 132.088L0 137.268s19.728-.015 29.792.501c10.133.52 24.826 2.12 43.069 6.416 19.822 4.668 32.895 9.687 40.904 13.449a74.315 74.315 0 0 1 9.032 5.025c2.054 1.345 5.546 4.158 5.546 4.158l3.906-3.34c.081-.069 15.091-12.872 26.449-19.1a128.606 128.606 0 0 1 4.533-2.352h14.347v-6.66c11.273-4.988 22.196-9.423 22.196-9.423s-24.865-6.14-35.6-9.982zm6.658 21.287h-.714l-.065 3.121h-.903l.066-3.12h-.708l.015-.712h2.324l-.015.711zm3.329 3.121l-.16-2.76h-.012l-.165.946-.426 1.814h-.696l-.403-1.835-.134-.854.002-.07h-.012l-.192 2.76h-.968l.48-3.833h1.187l.394 2.262h.012l.41-2.262h1.212l.397 3.832h-.926zm-17.13 1.012c-11.723 6.428-26.997 19.472-27.033 19.503l-1.72 1.47s-1.37-1.106-3.58-2.553a77.738 77.738 0 0 0-9.456-5.262c-8.249-3.875-21.553-8.968-41.584-13.685-18.504-4.358-33.408-5.977-43.687-6.504-10.137-.52-22.011-.562-22.011-.562s4.878-7.135 36.747-21.424c21.36-9.577 30.94-18.59 32.835-35.047.767-6.662-.348-12.087-1.64-15.83a29.501 29.501 0 0 0-1.851-4.283c-.24-.448-1.058-1.676-1.814-2.791a324.46 324.46 0 0 0-1.709-2.488s6.579-.427 9.409-.9c2.868-.48 6.756-1.322 10.833-2.774 4.723-1.682 12.15-4.75 20.855-6.987 8.797-2.26 19.089-3.733 29.349-1.996 20.178 3.418 30.542 13.535 30.78 13.77l2.543 2.505-11.35 6.364 2.537 6.978-3.078 2.97a519.422 519.422 0 0 1 3.282 9.439c.125.358.27.745.4 1.163.132.43.244.89.297 1.38.107.997-.032 2.12-.744 3.357a3.458 3.458 0 0 1-1.02 1.1c-.34.242-1.022.556-1.334.732l-4.108 7.56 1.873 5.273-8.462 12.648c1.883 1.02 5.895 3.058 10.413 4.676 10.87 3.89 25.701 7.555 25.701 7.555s-19.178 7.79-31.674 14.643z" fill="#FFF"/><path d="M136.514 80.374c.772 3.726 2.32 7.305 2.32 7.305l-7.455-2.48-1.86 4.26s-.806 5.889 3.37 9.915c6.256 6.035 16.7 7.271 16.7 7.271l4.03-5.396-1.817-3.573-3.418-.345 3.904-2.058 1.756-2.318-7.576.195s2.213-1.377 3.765-1.953c1.128-.42 2.977-.813 2.977-.813l1.318-3.111h-4.135l-.996-5.14 2.486 1.638 7.497.027c-1.712-5.35-4.013-11.541-4.013-11.541l-7.958 4.67 1.112-3.481-5.819-.255 10.245-5.546 1.137 2.573 3.08-2.802-1.626-4.757-19.51 10.617s-.412 2.77.486 7.098m-10.241 15.494l-3.423 7.728s3.596 1.105 7.104 2.549c3.623 1.49 6.004 2.772 6.004 2.772l1.457-2.157s-3.637-1.27-6.777-3.673c-3.36-2.572-4.365-7.22-4.365-7.22" fill="#FFF"/><path d="M163.002 119.182c-4.518-1.618-8.53-3.657-10.413-4.676l8.462-12.648-1.873-5.274 4.108-7.559c.312-.176.994-.49 1.333-.732a3.436 3.436 0 0 0 1.02-1.1c.713-1.238.852-2.36.745-3.356a7.342 7.342 0 0 0-.298-1.38c-.128-.42-.274-.806-.4-1.164 0 0-1.693-5.04-3.281-9.439l3.078-2.97-2.536-6.978 11.349-6.364-2.543-2.504c-.238-.236-10.602-10.353-30.78-13.77-10.26-1.738-20.552-.266-29.35 1.995-8.704 2.237-16.13 5.305-20.854 6.987-4.077 1.452-7.965 2.293-10.833 2.773-2.83.474-9.409.901-9.409.901s.948 1.365 1.709 2.488c.756 1.115 1.573 2.343 1.814 2.79.526.983 1.212 2.43 1.851 4.284 1.292 3.743 2.407 9.168 1.64 15.83-1.895 16.457-11.474 25.47-32.835 35.047-31.869 14.289-36.747 21.424-36.747 21.424s11.874.042 22.011.562c10.279.527 25.183 2.146 43.687 6.504 20.03 4.717 33.335 9.81 41.584 13.685a77.738 77.738 0 0 1 9.456 5.262c2.21 1.447 3.58 2.553 3.58 2.553l1.72-1.47c.036-.03 15.31-13.075 27.032-19.503 12.496-6.852 31.674-14.643 31.674-14.643s-14.83-3.665-25.7-7.555zm-7.284 19.843c-12.008 6.584-27.49 19.82-27.49 19.82s-13.557-11.1-53.945-20.61c-37.42-8.812-60.281-6.537-60.281-6.537s6.163-4.766 31.869-16.905c21.377-10.095 32.302-19.266 34.363-37.172C81.876 63.366 75.467 54.3 75.467 54.3s7.713-.49 16.218-3.518c9.34-3.325 29.366-12.159 48.832-8.862 19.444 3.293 29.326 13.027 29.326 13.027l-10.223 5.734 2.72 7.483-3.081 2.973c1.717 4.638 3.856 11.008 3.856 11.008.45 1.283.657 2.34-.085 3.483-.665 1.022-1.516 1.457-2.739 1.529l-1.288.075-1.284 3.1 1.712.255-3.594 5.945 2.14 5.011-6.846 9.853-8.986-2.633-1.65 2.33s9.428 6.268 21.588 10.62c11.041 3.952 18.23 5.65 18.23 5.65s-11.944 4.725-24.595 11.662z" fill="#B4B3B3"/><path d="M118.592 102.559s-1.62-5.311-.363-12.212c3.25-17.836 22.208-35.675 22.208-35.675s-17.848 11.556-25.375 29.05c-3.262 7.582-2.946 13.967-2.946 13.967s-2.424-3.373-3.46-8.387c-2.065-10.01.135-22.861.135-22.861s-4.999 13.997-4.767 23.736c.13 5.508.886 7.106.886 7.106s-2.816-1.745-5.265-4.058c-3.294-3.112-6.92-8.522-6.92-8.522s1.192 5.005 2.455 7.98c1.551 3.655 2.854 5.308 2.854 5.308s-5.176.883-9.841 2.718c-4.535 1.783-9.67 4.756-9.67 4.756s10.969-4.281 26.271-4.416c7.81-.07 13.798 1.51 13.798 1.51m27.056 17.735c-12.772-7.02-20.648-12.561-40.682-13.725-26.142-1.518-50.489 11.296-50.489 11.296s27.185-9.24 50.232-6.454c29.524 3.567 45.356 23.61 45.356 23.61s5.305-2.982 8.13-4.246c4.363-1.953 6.76-2.548 6.76-2.548s-9.358-2.465-19.307-7.933" fill="#B4B3B3"/><path d="M162.083 121.713c-12.16-4.352-21.587-10.62-21.587-10.62l1.649-2.33 8.986 2.633 6.845-9.853-2.14-5.01 3.595-5.946-1.712-.255 1.284-3.1 1.288-.075c1.223-.072 2.074-.507 2.739-1.53.742-1.141.535-2.199.085-3.482 0 0-2.14-6.37-3.856-11.008l3.08-2.973-2.72-7.483 10.224-5.734s-9.882-9.734-29.326-13.027c-19.466-3.297-39.492 5.537-48.832 8.862C83.18 53.811 75.467 54.3 75.467 54.3s6.409 9.066 4.767 23.321c-2.061 17.906-12.986 27.077-34.363 37.172C20.165 126.933 14 131.698 14 131.698s22.863-2.275 60.282 6.537c40.388 9.51 53.945 20.61 53.945 20.61s15.482-13.236 27.49-19.82c12.651-6.937 24.595-11.662 24.595-11.662s-7.189-1.698-18.23-5.65zm-6.545-59.054l1.626 4.757-3.08 2.802-1.137-2.573-10.245 5.546 5.82.255-1.113 3.482 7.958-4.671s2.301 6.191 4.013 11.541l-7.497-.027-2.486-1.639.996 5.14h4.135l-1.318 3.112s-1.85.394-2.977.813c-1.552.576-3.765 1.953-3.765 1.953l7.576-.195-1.756 2.318-3.904 2.058 3.418.345 1.818 3.573-4.03 5.396s-10.445-1.236-16.702-7.27c-4.175-4.027-3.37-9.916-3.37-9.916l1.86-4.26 7.456 2.48s-1.548-3.58-2.32-7.305c-.898-4.329-.486-7.098-.486-7.098l19.51-10.617zm-18.123 44.101l-1.457 2.157s-2.381-1.281-6.004-2.772c-3.508-1.444-7.104-2.549-7.104-2.549l3.423-7.728s1.005 4.647 4.365 7.219c3.14 2.404 6.777 3.673 6.777 3.673zm-49.222-6.051c4.665-1.835 9.84-2.718 9.84-2.718s-1.302-1.653-2.853-5.307c-1.263-2.976-2.456-7.981-2.456-7.981s3.627 5.41 6.921 8.522c2.45 2.313 5.265 4.058 5.265 4.058s-.756-1.598-.886-7.106c-.232-9.739 4.767-23.736 4.767-23.736s-2.2 12.85-.134 22.861c1.035 5.014 3.459 8.387 3.459 8.387s-.316-6.385 2.946-13.967c7.527-17.494 25.375-29.05 25.375-29.05s-18.957 17.84-22.208 35.675c-1.258 6.901.363 12.212.363 12.212s-5.988-1.58-13.798-1.51c-15.302.135-26.27 4.416-26.27 4.416s5.134-2.973 9.669-4.756zm61.872 34.313s-15.832-20.044-45.356-23.611c-23.047-2.785-50.232 6.454-50.232 6.454s24.347-12.814 50.489-11.296c20.034 1.164 27.91 6.704 40.682 13.725 9.949 5.468 19.306 7.933 19.306 7.933s-2.396.595-6.76 2.548c-2.824 1.264-8.13 4.247-8.13 4.247zm18.442 2.225h.708l-.066 3.121h.903l.065-3.12h.714l.015-.712h-2.324l-.015.711m4.971-.711l-.411 2.262h-.012l-.394-2.262h-1.187l-.48 3.832h.968l.192-2.76h.012l-.002.071.134.854.403 1.835h.696l.426-1.814.165-.946H174l.16 2.76h.926l-.397-3.832h-1.211" fill="#000"/></g></svg>