<?xml version="1.0" encoding="UTF-8"?>
<svg width="200px" height="200px" viewBox="0 0 200 200" version="1.1" xmlns="http://www.w3.org/2000/svg" xmlns:xlink="http://www.w3.org/1999/xlink">
    <!-- Generator: Sketch 51.3 (57544) - http://www.bohemiancoding.com/sketch -->
    <title>providence</title>
    <desc>Created with Sketch.</desc>
    <defs></defs>
    <g id="providence" stroke="none" stroke-width="1" fill="none" fill-rule="evenodd">
        <g id="providence_BGL" transform="translate(0.000000, 34.825871)">
            <g id="providence">
                <g id="g10" transform="translate(99.957208, 66.080479) scale(-1, 1) rotate(-180.000000) translate(-99.957208, -66.080479) translate(0.000000, 0.169876)">
                    <g id="g12">
                        <path d="M164.173209,50.8571648 C161.73487,51.7299706 159.450916,52.7318797 157.60205,53.613519 L164.87736,64.4874095 L162.940518,69.941342 L165.8249,75.2495237 C166.115186,75.4081848 166.405473,75.5807755 166.632773,75.742834 C167.294476,76.2147403 168.046551,76.9020452 168.635683,77.9250186 C169.738977,79.8411825 169.992636,81.695173 169.814972,83.344297 C169.73795,84.06082 169.579457,84.7338556 169.386731,85.3603461 C169.249461,85.807451 169.095075,86.2222801 168.960201,86.6072116 C168.960201,86.6072116 167.74086,90.2377307 166.39623,94.0377827 L169.484292,97.0173497 L167.181511,103.352582 L179.961313,110.51951 L174.183992,116.210245 C173.642101,116.743985 162.66632,127.349817 141.552756,130.925297 C130.623189,132.77623 119.797344,131.191997 110.758748,128.869158 C101.929993,126.599999 94.3945205,123.496085 89.6044479,121.790563 C85.7495914,120.418332 82.0700022,119.644392 79.361915,119.170447 C75.3958047,118.476347 64.4415902,117.626984 64.4415902,117.626984 C64.4415902,117.626984 68.3091125,112.283468 69.0628994,111.171822 C69.7386375,110.175348 70.7885305,108.405954 71.003507,108.005395 C71.4687188,107.137345 72.0718852,105.858544 72.6367119,104.221311 C73.7937508,100.868024 74.8107812,95.9580236 74.11245,89.8898315 C72.4258433,75.2389916 64.2495491,66.9740059 43.2848941,57.5746103 C11.3163198,43.2410927 6.58964468,36.2579662 4.79246886,34.729112 L0,29.548029 C0,29.548029 19.727753,29.5638272 29.7922115,29.0478219 C39.9253734,28.5285211 54.6183983,26.9280146 72.8605887,22.6320702 C92.6825822,17.9641726 105.756095,12.945352 113.764995,9.18335147 C117.602393,7.38069649 120.679501,5.54461055 122.796745,4.15841545 C124.851345,2.81311889 128.342658,0 128.342658,0 L132.249205,3.33932672 C132.330335,3.4085974 147.340005,16.2115621 158.697814,22.4395026 C160.036282,23.1734205 161.566106,23.9643817 163.230805,24.7915938 L177.578087,24.7915938 L177.578087,31.4512486 C188.850659,36.4404095 199.774064,40.8751059 199.774064,40.8751059 C199.774064,40.8751059 174.909367,47.0143048 164.173209,50.8571648 Z M170.831318,29.5695349 L170.116898,29.5695349 L170.051515,26.4487698 L169.149161,26.4487698 L169.214887,29.5695349 L168.506628,29.5695349 L168.52169,30.2811316 L170.84638,30.2811316 L170.831318,29.5695349 Z M174.16003,26.4487698 L174.000167,29.2086913 L173.988186,29.2086913 L173.822845,28.2633498 L173.397,26.4487698 L172.701065,26.4487698 L172.297813,28.2836666 L172.164309,29.1375487 L172.165678,29.2086913 L172.153697,29.2086913 L171.962341,26.4487698 L170.99392,26.4487698 L171.473851,30.2811316 L172.660672,30.2811316 L173.055023,28.0194466 L173.067005,28.0194466 L173.477788,30.2811316 L174.688571,30.2811316 L175.086346,26.4487698 L174.16003,26.4487698 Z M157.02935,25.43711 C145.306971,19.0092974 130.032688,5.96453584 129.997087,5.93412863 L128.276933,4.46354077 C128.276933,4.46354077 126.907656,5.56958184 124.696959,7.01693111 C122.4801,8.46842528 119.259218,10.3914181 115.241075,12.2787376 C106.99221,16.1535676 93.6876314,21.2472341 73.6571655,25.964123 C55.1531009,30.3217312 40.2488651,31.9410935 29.9701832,32.4679707 C19.8333927,32.9875433 7.9589215,33.0304191 7.9589215,33.0304191 C7.9589215,33.0304191 12.8369702,40.165038 44.7055188,54.4537093 C66.0669218,64.0311314 75.64604,73.0442365 77.5407768,89.5011627 C78.3075719,96.1625503 77.1926382,101.588284 75.9014102,105.330579 C75.2616156,107.18491 74.5762925,108.631545 74.0498056,109.614089 C73.8091552,110.062213 72.9920393,111.289713 72.2355138,112.405097 C71.4745382,113.527956 70.527341,114.892713 70.527341,114.892713 C70.527341,114.892713 77.1060314,115.319773 79.9359843,115.793718 C82.8039346,116.273778 86.6919961,117.115327 90.7693602,118.567059 C95.4923382,120.248799 102.918953,123.316699 111.623788,125.553923 C120.420707,127.814588 130.712876,129.287045 140.972525,127.549587 C161.151215,124.132088 171.514929,114.014471 171.753184,113.779367 L174.295588,111.275444 L162.94668,104.911333 L165.483265,97.9329635 L162.404788,94.9625697 C163.993492,90.5645658 165.686603,85.5241034 165.686603,85.5241034 C165.811549,85.1660118 165.957719,84.7793815 166.086431,84.3608152 C166.218567,83.9317168 166.33119,83.4713618 166.383907,82.98009 C166.491395,81.9836168 166.352413,80.8617776 165.639705,79.6240852 C165.356949,79.1328134 164.991695,78.7893308 164.619251,78.5236499 C164.280355,78.282091 163.597771,77.9674867 163.28626,77.7918384 L159.17843,70.2325038 L161.051258,64.9593158 L152.588785,52.3109352 C154.471541,51.2916991 158.483864,49.2528871 163.002478,47.6353594 C173.872824,43.7449351 188.703461,40.0801017 188.703461,40.0801017 C188.703461,40.0801017 169.52537,32.2892306 157.02935,25.43711 Z" id="path14" fill="#FFFFFF"></path>
                        <path d="M136.513818,86.4431146 C137.286432,82.7171271 138.833715,79.1382493 138.833715,79.1382493 L131.378687,81.6173713 L129.518182,77.3579835 C129.518182,77.3579835 128.71339,71.4691769 132.888315,67.4425147 C139.144883,61.4082971 149.589727,60.171624 149.589727,60.171624 L153.619851,65.5681395 L151.801793,69.1405621 L148.384078,69.4857434 L152.287887,71.5435812 L154.043642,73.8620036 L146.46846,73.6669898 C146.46846,73.6669898 148.681212,75.043638 150.232944,75.6198462 C151.360886,76.039092 153.210437,76.4328569 153.210437,76.4328569 L154.528366,79.544245 L150.393492,79.544245 L149.397001,84.6845926 L151.882923,83.0456609 L159.380056,83.0184812 C157.66846,88.3687914 155.36739,94.5603111 155.36739,94.5603111 L147.409153,89.889152 L148.521348,93.3712023 L142.702264,93.6260113 L152.946509,99.1720149 L154.083693,96.5987834 L157.163881,99.401343 L155.538207,104.157778 L136.027724,93.541075 C136.027724,93.541075 135.615914,90.7718104 136.513818,86.4431146" id="path16" fill="#FFFFFF"></path>
                        <path d="M126.273339,70.9490268 L122.850489,63.220499 C122.850489,63.220499 126.445525,62.1159867 129.953612,60.6724086 C133.576719,59.1812662 135.957549,57.9004261 135.957549,57.9004261 L137.415487,60.05679 C137.415487,60.05679 133.77766,61.3260788 130.637909,63.730117 C127.278046,66.3023293 126.273339,70.9490268 126.273339,70.9490268" id="path18" fill="#FFFFFF"></path>
                        <path d="M163.002478,47.6353594 C158.483864,49.2528871 154.471541,51.2916991 152.588785,52.3109352 L161.051258,64.9593158 L159.17843,70.2325038 L163.28626,77.7918384 C163.597771,77.9674867 164.280355,78.282091 164.619251,78.5236499 C164.991695,78.7893308 165.356949,79.1328134 165.639705,79.6240852 C166.352413,80.8617776 166.491395,81.9836168 166.383907,82.98009 C166.33119,83.4713618 166.218567,83.9317168 166.086431,84.3608152 C165.957719,84.7793815 165.811549,85.1660118 165.686603,85.5241034 C165.686603,85.5241034 163.993492,90.5645658 162.404788,94.9625697 L165.483265,97.9329635 L162.94668,104.911333 L174.295588,111.275444 L171.753184,113.779367 C171.514929,114.014471 161.151215,124.132088 140.972525,127.549587 C130.712876,129.287045 120.420707,127.814588 111.623788,125.553923 C102.918953,123.316699 95.4923382,120.248799 90.7693602,118.567059 C86.6919961,117.115327 82.8039346,116.273778 79.9359843,115.793718 C77.1060314,115.319773 70.527341,114.892713 70.527341,114.892713 C70.527341,114.892713 71.4745382,113.527956 72.2355138,112.405097 C72.9920393,111.289713 73.8091552,110.062213 74.0498056,109.614089 C74.5762925,108.631545 75.2616156,107.18491 75.9014102,105.330579 C77.1926382,101.588284 78.3075719,96.1625503 77.5407768,89.5011627 C75.64604,73.0442365 66.0669218,64.0311314 44.7055188,54.4537093 C12.8369702,40.165038 7.9589215,33.0304191 7.9589215,33.0304191 C7.9589215,33.0304191 19.8333927,32.9875433 29.9701832,32.4679707 C40.2488651,31.9410935 55.1531009,30.3217312 73.6571655,25.964123 C93.6876314,21.2472341 106.99221,16.1535676 115.241075,12.2787376 C119.259218,10.3914181 122.4801,8.46842528 124.696959,7.01693111 C126.907656,5.56958184 128.276933,4.46354077 128.276933,4.46354077 L129.997087,5.93412863 C130.032688,5.96453584 145.306971,19.0092974 157.02935,25.43711 C169.52537,32.2892306 188.703461,40.0801017 188.703461,40.0801017 C188.703461,40.0801017 173.872824,43.7449351 163.002478,47.6353594 Z M155.718267,27.7923608 C143.710052,21.2076878 128.227981,7.97287268 128.227981,7.97287268 C128.227981,7.97287268 114.671456,19.071131 74.2832673,28.5822688 C36.8636705,37.3944145 14.0015401,35.1191397 14.0015401,35.1191397 C14.0015401,35.1191397 20.1652712,39.8847481 45.8707734,52.0238504 C67.2475807,62.1190445 78.1730404,71.2901311 80.2341443,89.1957316 C81.8755649,103.451108 75.4673494,112.517213 75.4673494,112.517213 C75.4673494,112.517213 83.1801434,113.006447 91.6847217,116.034597 C101.024901,119.359685 121.050575,128.193744 140.516556,124.897195 C159.960972,121.604043 169.843385,111.869659 169.843385,111.869659 L159.619679,106.136116 L162.339405,98.6525442 L159.258875,95.6797721 C160.975606,91.041908 163.115101,84.6716822 163.115101,84.6716822 C163.564566,83.3884639 163.771669,82.3311763 163.029521,81.1892921 C162.365422,80.167338 161.514416,79.7321242 160.290967,79.6604379 L159.00282,79.5850145 L157.719123,76.4848379 L159.430719,76.2300289 L155.83671,70.2848246 L157.976205,65.2735803 L151.130505,55.4213041 L142.144626,58.0543308 L140.495675,55.7240173 C140.495675,55.7240173 149.923488,49.4563946 162.083008,45.1042563 C173.124172,41.1523381 180.312875,39.4536112 180.312875,39.4536112 C180.312875,39.4536112 168.369016,34.729112 155.718267,27.7923608 Z" id="path20" fill="#B4B3B3"></path>
                        <path d="M118.59238,64.2584211 C118.59238,64.2584211 116.971157,69.5689811 118.228837,76.4698891 C121.479843,94.3055021 140.437138,112.144852 140.437138,112.144852 C140.437138,112.144852 122.589299,100.589093 115.062385,83.0945842 C111.800425,75.5131661 112.115701,69.1279916 112.115701,69.1279916 C112.115701,69.1279916 109.691739,72.5009836 108.656908,77.5149459 C106.591011,87.5252036 108.791097,100.376072 108.791097,100.376072 C108.791097,100.376072 103.79221,86.3789027 104.023617,76.6397618 C104.154383,71.13147 104.909882,69.5339873 104.909882,69.5339873 C104.909882,69.5339873 102.094306,71.2792593 99.6453548,73.5922458 C96.3512171,76.7036339 92.7243451,82.1144188 92.7243451,82.1144188 C92.7243451,82.1144188 93.9166429,77.1092899 95.1798008,74.1331204 C96.7311914,70.4784794 98.033716,68.8259579 98.033716,68.8259579 C98.033716,68.8259579 92.8581919,67.9429597 88.1927235,66.1079949 C83.658021,64.3246714 78.523233,61.3518994 78.523233,61.3518994 C78.523233,61.3518994 89.4918249,65.6330309 104.794178,65.7682495 C112.604191,65.8372178 118.59238,64.2584211 118.59238,64.2584211" id="path22" fill="#B4B3B3"></path>
                        <path d="M145.648263,46.523033 C132.876334,53.5435314 124.999911,59.084099 104.96568,60.2477269 C78.8244739,61.766049 54.4770205,48.9518727 54.4770205,48.9518727 C54.4770205,48.9518727 81.6619577,58.1912482 104.709283,55.4063553 C134.232603,51.8393686 150.064866,31.7953767 150.064866,31.7953767 C150.064866,31.7953767 155.370129,34.7780354 158.194262,36.0418882 C162.55849,37.9954241 164.954382,38.5899785 164.954382,38.5899785 C164.954382,38.5899785 155.596744,41.0544914 145.648263,46.523033" id="path24" fill="#B4B3B3"></path>
                        <path d="M162.083008,45.1042563 C149.923488,49.4563946 140.495675,55.7240173 140.495675,55.7240173 L142.144626,58.0543308 L151.130505,55.4213041 L157.976205,65.2735803 L155.83671,70.2848246 L159.430719,76.2300289 L157.719123,76.4848379 L159.00282,79.5850145 L160.290967,79.6604379 C161.514416,79.7321242 162.365422,80.167338 163.029521,81.1892921 C163.771669,82.3311763 163.564566,83.3884639 163.115101,84.6716822 C163.115101,84.6716822 160.975606,91.041908 159.258875,95.6797721 L162.339405,98.6525442 L159.619679,106.136116 L169.843385,111.869659 C169.843385,111.869659 159.960972,121.604043 140.516556,124.897195 C121.050575,128.193744 101.024901,119.359685 91.6847217,116.034597 C83.1801434,113.006447 75.4673494,112.517213 75.4673494,112.517213 C75.4673494,112.517213 81.8755649,103.451108 80.2341443,89.1957316 C78.1730404,71.2901311 67.2475807,62.1190445 45.8707734,52.0238504 C20.1652712,39.8847481 14.0015401,35.1191397 14.0015401,35.1191397 C14.0015401,35.1191397 36.8636705,37.3944145 74.2832673,28.5822688 C114.671456,19.071131 128.227981,7.97287268 128.227981,7.97287268 C128.227981,7.97287268 143.710052,21.2076878 155.718267,27.7923608 C168.369016,34.729112 180.312875,39.4536112 180.312875,39.4536112 C180.312875,39.4536112 173.124172,41.1523381 162.083008,45.1042563 Z M155.538207,104.157778 L157.163881,99.401343 L154.083693,96.5987834 L152.946509,99.1720149 L142.702264,93.6260113 L148.521348,93.3712023 L147.409153,89.889152 L155.36739,94.5603111 C155.36739,94.5603111 157.66846,88.3687914 159.380056,83.0184812 L151.882923,83.0456609 L149.397001,84.6845926 L150.393492,79.544245 L154.528366,79.544245 L153.210437,76.4328569 C153.210437,76.4328569 151.360886,76.039092 150.232944,75.6198462 C148.681212,75.043638 146.46846,73.6669898 146.46846,73.6669898 L154.043642,73.8620036 L152.287887,71.5435812 L148.384078,69.4857434 L151.801793,69.1405621 L153.619851,65.5681395 L149.589727,60.171624 C149.589727,60.171624 139.144883,61.4082971 132.888315,67.4425147 C128.71339,71.4691769 129.518182,77.3579835 129.518182,77.3579835 L131.378687,81.6173713 L138.833715,79.1382493 C138.833715,79.1382493 137.286432,82.7171271 136.513818,86.4431146 C135.615914,90.7718104 136.027724,93.541075 136.027724,93.541075 L155.538207,104.157778 Z M137.415487,60.05679 L135.957549,57.9004261 C135.957549,57.9004261 133.576719,59.1812662 129.953612,60.6724086 C126.445525,62.1159867 122.850489,63.220499 122.850489,63.220499 L126.273339,70.9490268 C126.273339,70.9490268 127.278046,66.3023293 130.637909,63.730117 C133.77766,61.3260788 137.415487,60.05679 137.415487,60.05679 Z M88.1927235,66.1079949 C92.8581919,67.9429597 98.033716,68.8259579 98.033716,68.8259579 C98.033716,68.8259579 96.7311914,70.4784794 95.1798008,74.1331204 C93.9166429,77.1092899 92.7243451,82.1144188 92.7243451,82.1144188 C92.7243451,82.1144188 96.3512171,76.7036339 99.6453548,73.5922458 C102.094306,71.2792593 104.909882,69.5339873 104.909882,69.5339873 C104.909882,69.5339873 104.154383,71.13147 104.023617,76.6397618 C103.79221,86.3789027 108.791097,100.376072 108.791097,100.376072 C108.791097,100.376072 106.591011,87.5252036 108.656908,77.5149459 C109.691739,72.5009836 112.115701,69.1279916 112.115701,69.1279916 C112.115701,69.1279916 111.800425,75.5131661 115.062385,83.0945842 C122.589299,100.589093 140.437138,112.144852 140.437138,112.144852 C140.437138,112.144852 121.479843,94.3055021 118.228837,76.4698891 C116.971157,69.5689811 118.59238,64.2584211 118.59238,64.2584211 C118.59238,64.2584211 112.604191,65.8372178 104.794178,65.7682495 C89.4918249,65.6330309 78.523233,61.3518994 78.523233,61.3518994 C78.523233,61.3518994 83.658021,64.3246714 88.1927235,66.1079949 Z M150.064866,31.7953767 C150.064866,31.7953767 134.232603,51.8393686 104.709283,55.4063553 C81.6619577,58.1912482 54.4770205,48.9518727 54.4770205,48.9518727 C54.4770205,48.9518727 78.8244739,61.766049 104.96568,60.2477269 C124.999911,59.084099 132.876334,53.5435314 145.648263,46.523033 C155.596744,41.0544914 164.954382,38.5899785 164.954382,38.5899785 C164.954382,38.5899785 162.55849,37.9954241 158.194262,36.0418882 C155.370129,34.7780354 150.064866,31.7953767 150.064866,31.7953767 Z" id="path26" fill="#000000"></path>
                        <polyline id="path28" fill="#000000" points="168.506628 29.5695349 169.214887 29.5695349 169.149161 26.4487698 170.051515 26.4487698 170.116898 29.5695349 170.831318 29.5695349 170.84638 30.2811316 168.52169 30.2811316 168.506628 29.5695349"></polyline>
                        <polyline id="path30" fill="#000000" points="173.477788 30.2811316 173.067005 28.0194466 173.055023 28.0194466 172.660672 30.2811316 171.473851 30.2811316 170.99392 26.4487698 171.962341 26.4487698 172.153697 29.2086913 172.165678 29.2086913 172.164309 29.1375487 172.297813 28.2836666 172.701065 26.4487698 173.397 26.4487698 173.822845 28.2633498 173.988186 29.2086913 174.000167 29.2086913 174.16003 26.4487698 175.086346 26.4487698 174.688571 30.2811316 173.477788 30.2811316"></polyline>
                    </g>
                </g>
            </g>
        </g>
    </g>
</svg>