<svg width="200" height="200" xmlns="http://www.w3.org/2000/svg"><g fill="none" fill-rule="evenodd"><path d="M164.173 115.749a71.19 71.19 0 0 1-6.571-2.778l7.275-10.956-1.936-5.495 2.884-5.349c.29-.16.58-.333.808-.497a6.92 6.92 0 0 0 2.003-2.198c1.103-1.931 1.357-3.8 1.179-5.46-.077-.723-.236-1.4-.428-2.032-.138-.45-.292-.868-.427-1.256 0 0-1.22-3.658-2.564-7.487l3.088-3.002-2.302-6.384 12.78-7.22-5.778-5.735c-.542-.537-11.518-11.224-32.631-14.826-10.93-1.865-21.756-.269-30.794 2.072-8.829 2.286-16.364 5.413-21.155 7.132-3.854 1.382-7.534 2.162-10.242 2.64-3.966.7-14.92 1.555-14.92 1.555s3.867 5.384 4.62 6.504a55.658 55.658 0 0 1 1.942 3.19 26.395 26.395 0 0 1 1.633 3.813c1.157 3.379 2.174 8.326 1.475 14.44-1.686 14.762-9.862 23.09-30.827 32.56C11.316 123.422 6.59 130.458 4.792 132L0 137.219s19.728-.016 29.792.504c10.133.523 24.826 2.136 43.069 6.464 19.822 4.704 32.895 9.76 40.904 13.551a74.16 74.16 0 0 1 9.032 5.063c2.054 1.356 5.546 4.19 5.546 4.19l3.906-3.365c.081-.07 15.091-12.97 26.449-19.244 1.338-.74 2.868-1.537 4.533-2.37h14.347v-6.71c11.273-5.027 22.196-9.496 22.196-9.496s-24.865-6.185-35.6-10.057Zm6.658 21.448h-.714l-.065 3.145h-.903l.066-3.145h-.708l.015-.717h2.324l-.015.717Zm3.329 3.145-.16-2.781h-.012l-.165.953-.426 1.828h-.696l-.403-1.849-.134-.86.002-.072h-.012l-.192 2.78h-.968l.48-3.86h1.187l.394 2.278h.012l.41-2.279h1.212l.397 3.862h-.926Zm-17.13 1.02c-11.723 6.476-26.997 19.62-27.033 19.65l-1.72 1.482s-1.37-1.115-3.58-2.573a77.575 77.575 0 0 0-9.456-5.302c-8.249-3.904-21.553-9.036-41.584-13.789-18.504-4.39-33.408-6.022-43.687-6.553-10.137-.523-22.011-.567-22.011-.567s4.878-7.188 36.747-21.585c21.36-9.65 30.94-18.732 32.835-35.313.767-6.712-.348-12.179-1.64-15.95a29.842 29.842 0 0 0-1.851-4.315c-.24-.452-1.058-1.689-1.814-2.813-.761-1.131-1.709-2.506-1.709-2.506s6.579-.43 9.409-.908c2.868-.484 6.756-1.332 10.833-2.794 4.723-1.695 12.15-4.786 20.855-7.04 8.797-2.278 19.089-3.761 29.349-2.01 20.178 3.443 30.542 13.637 30.78 13.874l2.543 2.523-11.35 6.412 2.537 7.031-3.078 2.993a526.052 526.052 0 0 1 3.282 9.51c.125.36.27.75.4 1.172.132.432.244.896.297 1.391.107 1.004-.032 2.135-.744 3.382a3.474 3.474 0 0 1-1.02 1.108c-.34.244-1.022.56-1.334.738l-4.108 7.616 1.873 5.314-8.462 12.744c1.883 1.027 5.895 3.081 10.413 4.71 10.87 3.92 25.701 7.613 25.701 7.613s-19.178 7.85-31.674 14.754Z" fill="#FFF"/><path d="M136.514 79.893c.772 3.754 2.32 7.36 2.32 7.36l-7.455-2.498-1.86 4.292s-.806 5.933 3.37 9.99c6.256 6.08 16.7 7.327 16.7 7.327l4.03-5.438-1.817-3.6-3.418-.347 3.904-2.074 1.756-2.336-7.576.197s2.213-1.387 3.765-1.968c1.128-.422 2.977-.819 2.977-.819l1.318-3.135h-4.135l-.996-5.18 2.486 1.652 7.497.028c-1.712-5.391-4.013-11.63-4.013-11.63l-7.958 4.707 1.112-3.509-5.819-.256 10.245-5.588 1.137 2.592 3.08-2.823-1.626-4.793-19.51 10.697s-.412 2.79.486 7.152M126.273 95.504l-3.423 7.788s3.596 1.112 7.104 2.567c3.623 1.502 6.004 2.793 6.004 2.793l1.457-2.173s-3.637-1.279-6.777-3.7c-3.36-2.593-4.365-7.275-4.365-7.275" fill="#FFF"/><path d="M163.002 118.995c-4.518-1.63-8.53-3.684-10.413-4.711l8.462-12.744-1.873-5.314 4.108-7.616c.312-.177.994-.494 1.333-.738a3.474 3.474 0 0 0 1.02-1.108c.713-1.247.852-2.378.745-3.382a7.446 7.446 0 0 0-.298-1.39c-.128-.423-.274-.812-.4-1.173 0 0-1.693-5.079-3.281-9.51l3.078-2.993-2.536-7.031 11.349-6.412-2.543-2.523c-.238-.237-10.602-10.431-30.78-13.875-10.26-1.75-20.552-.267-29.35 2.01-8.704 2.255-16.13 5.346-20.854 7.04-4.077 1.463-7.965 2.311-10.833 2.795-2.83.478-9.409.908-9.409.908s.948 1.375 1.709 2.506c.756 1.124 1.573 2.361 1.814 2.813.526.99 1.212 2.447 1.851 4.315 1.292 3.771 2.407 9.238 1.64 15.95-1.895 16.581-11.474 25.663-32.835 35.313C12.837 126.522 7.959 133.71 7.959 133.71s11.874.044 22.011.567c10.279.53 25.183 2.163 43.687 6.553 20.03 4.753 33.335 9.885 41.584 13.79a77.575 77.575 0 0 1 9.456 5.3c2.21 1.46 3.58 2.574 3.58 2.574l1.72-1.482c.036-.03 15.31-13.174 27.032-19.65 12.496-6.905 31.674-14.755 31.674-14.755s-14.83-3.692-25.7-7.612Zm-7.284 19.993c-12.008 6.635-27.49 19.97-27.49 19.97s-13.557-11.183-53.945-20.766c-37.42-8.879-60.281-6.586-60.281-6.586s6.163-4.802 31.869-17.033c21.377-10.172 32.302-19.412 34.363-37.453 1.642-14.364-4.767-23.499-4.767-23.499s7.713-.493 16.218-3.544c9.34-3.35 29.366-12.25 48.832-8.93 19.444 3.319 29.326 13.127 29.326 13.127L159.62 60.05l2.72 7.54-3.081 2.995c1.717 4.673 3.856 11.092 3.856 11.092.45 1.293.657 2.358-.085 3.509-.665 1.03-1.516 1.468-2.739 1.54l-1.288.076-1.284 3.124 1.712.256-3.594 5.99 2.14 5.05-6.846 9.927-8.986-2.653-1.65 2.348s9.428 6.315 21.588 10.7c11.041 3.982 18.23 5.694 18.23 5.694s-11.944 4.76-24.595 11.75Z" fill="#B4B3B3"/><path d="M118.592 102.246s-1.62-5.351-.363-12.304c3.25-17.97 22.208-35.945 22.208-35.945s-17.848 11.643-25.375 29.27c-3.262 7.639-2.946 14.072-2.946 14.072s-2.424-3.398-3.46-8.45c-2.065-10.086.135-23.034.135-23.034s-4.999 14.103-4.767 23.916c.13 5.55.886 7.16.886 7.16s-2.816-1.76-5.265-4.09c-3.294-3.135-6.92-8.586-6.92-8.586s1.192 5.043 2.455 8.041c1.551 3.683 2.854 5.348 2.854 5.348s-5.176.89-9.841 2.738c-4.535 1.797-9.67 4.792-9.67 4.792s10.969-4.313 26.271-4.45c7.81-.069 13.798 1.522 13.798 1.522M145.648 120.116c-12.772-7.074-20.648-12.657-40.682-13.83-26.142-1.529-50.489 11.382-50.489 11.382s27.185-9.31 50.232-6.503c29.524 3.594 45.356 23.79 45.356 23.79s5.305-3.005 8.13-4.279c4.363-1.968 6.76-2.567 6.76-2.567s-9.358-2.483-19.307-7.993" fill="#B4B3B3"/><path d="M162.083 121.545c-12.16-4.385-21.587-10.7-21.587-10.7l1.649-2.348 8.986 2.653 6.845-9.927-2.14-5.05 3.595-5.99-1.712-.256 1.284-3.124 1.288-.076c1.223-.072 2.074-.51 2.739-1.54.742-1.15.535-2.216.085-3.51 0 0-2.14-6.418-3.856-11.09l3.08-2.996-2.72-7.54 10.224-5.777s-9.882-9.808-29.326-13.126c-19.466-3.322-39.492 5.58-48.832 8.93-8.505 3.05-16.218 3.543-16.218 3.543s6.409 9.135 4.767 23.499c-2.061 18.04-12.986 27.281-34.363 37.453C20.165 126.804 14 131.606 14 131.606s22.863-2.293 60.282 6.586c40.388 9.583 53.945 20.766 53.945 20.766s15.482-13.335 27.49-19.97c12.651-6.99 24.595-11.75 24.595-11.75s-7.189-1.711-18.23-5.693Zm-6.545-59.5 1.626 4.792-3.08 2.823-1.137-2.592-10.245 5.588 5.82.256-1.113 3.509 7.958-4.707s2.301 6.239 4.013 11.63l-7.497-.028-2.486-1.651.996 5.18h4.135l-1.318 3.134s-1.85.397-2.977.82c-1.552.58-3.765 1.967-3.765 1.967l7.576-.197-1.756 2.336-3.904 2.074 3.418.348 1.818 3.6-4.03 5.437s-10.445-1.246-16.702-7.326c-4.175-4.058-3.37-9.991-3.37-9.991l1.86-4.292 7.456 2.498s-1.548-3.606-2.32-7.36c-.898-4.361-.486-7.152-.486-7.152l19.51-10.697Zm-18.123 44.434-1.457 2.173s-2.381-1.29-6.004-2.793c-3.508-1.455-7.104-2.567-7.104-2.567l3.423-7.788s1.005 4.682 4.365 7.274c3.14 2.422 6.777 3.701 6.777 3.701Zm-49.222-6.097c4.665-1.849 9.84-2.738 9.84-2.738s-1.302-1.665-2.853-5.348c-1.263-2.998-2.456-8.041-2.456-8.041s3.627 5.451 6.921 8.586c2.45 2.33 5.265 4.09 5.265 4.09s-.756-1.61-.886-7.16c-.232-9.813 4.767-23.916 4.767-23.916s-2.2 12.948-.134 23.034c1.035 5.052 3.459 8.45 3.459 8.45s-.316-6.433 2.946-14.072c7.527-17.627 25.375-29.27 25.375-29.27S121.48 71.97 118.23 89.942c-1.258 6.953.363 12.304.363 12.304s-5.988-1.591-13.798-1.521c-15.302.136-26.27 4.45-26.27 4.45s5.134-2.996 9.669-4.793Zm61.872 34.573s-15.832-20.196-45.356-23.79c-23.047-2.806-50.232 6.503-50.232 6.503s24.347-12.911 50.489-11.381c20.034 1.172 27.91 6.755 40.682 13.829 9.949 5.51 19.306 7.993 19.306 7.993s-2.396.599-6.76 2.567c-2.824 1.274-8.13 4.279-8.13 4.279ZM168.507 137.197h.708l-.066 3.145h.903l.065-3.145h.714l.015-.717h-2.324l-.015.717M173.478 136.48l-.411 2.28h-.012l-.394-2.28h-1.187l-.48 3.862h.968l.192-2.781h.012l-.002.072.134.86.403 1.849h.696l.426-1.828.165-.953H174l.16 2.78h.926l-.397-3.86h-1.211" fill="#000"/></g></svg>