<svg width="200" height="200" xmlns="http://www.w3.org/2000/svg"><g fill-rule="nonzero" fill="none"><path d="m-1 154.238 16.781-39.413h21.572l11.98-28.145H27.806L44.58 47.285h118.938c10.45 0 25.136 1.21 32.054 11.676 6.956 10.523 1.687 22.895-1.459 30.286-8.498 19.965-20.793 33.263-53.171 33.263h-22.378l-13.506 31.728H-1" fill="#1D1C1B"/><path d="M107.122 79.373h36.042c2.657 0 3.808.68 4.05 1.047.25.374.206 1.445-.447 2.989-1.847 4.324-6.271 7.01-11.546 7.01H102.42l4.702-11.046Zm82.353-16.385c-3.784-5.728-12.034-8.396-25.957-8.396H49.417L38.86 79.372h21.527L42.18 122.13H20.613l-10.558 24.805h90.173l10.564-24.805H88.916l2.949-6.924h49.077c31.565 0 39.981-13.63 46.447-28.816 3.48-8.176 6.504-16.718 2.086-23.4Z" fill="#A49F94"/><path d="M135.221 94.217h-38.55l7.936-18.636h38.557c6.818 0 9.57 3.506 7.095 9.32-2.472 5.806-8.214 9.316-15.038 9.316Zm28.297-35.82H51.922L44.606 75.58h21.531l-21.442 50.35H23.123l-7.325 17.202h81.92l7.32-17.203H83.17l6.186-14.529h51.586c29.569 0 37.001-12.524 42.952-26.5 5.954-13.984 9.19-26.505-20.376-26.505Z" fill="#D0BC86"/><path d="M113.558 150.009c.408 0 .773.033.773.464 0 .464-.635.387-1.1.387h-.526v-.851h.853Zm.355 1.345c.455-.014.912-.262.912-.935 0-.72-.558-.904-1.175-.904h-1.438v3.416h.493v-1.577h.636l.872 1.577h.565l-.865-1.577Zm-.527 2.884a3.02 3.02 0 0 0 3.046-3.038 3.02 3.02 0 0 0-3.046-3.038 3.02 3.02 0 0 0-3.045 3.038 3.02 3.02 0 0 0 3.045 3.038Zm0-5.582a2.539 2.539 0 0 1 2.552 2.544c0 1.43-1.16 2.543-2.552 2.543a2.54 2.54 0 0 1-2.55-2.543 2.537 2.537 0 0 1 2.55-2.544Z" fill="#1D1C1B"/></g></svg>