<svg width="200" height="200" xmlns="http://www.w3.org/2000/svg"><g fill="none"><path d="M-1.005 154.47l16.781-39.414h21.572l11.98-28.144H27.8l16.774-39.396h118.938c10.45 0 25.136 1.21 32.054 11.676 6.956 10.523 1.687 22.895-1.459 30.286-8.498 19.966-20.793 33.263-53.171 33.263h-22.378l-13.506 31.728H-1.005" fill="#1D1C1B"/><path d="M107.117 79.604h36.042c2.657 0 3.808.681 4.05 1.047.249.375.206 1.445-.447 2.989-1.847 4.324-6.271 7.01-11.546 7.01h-32.802l4.703-11.046zm82.353-16.385c-3.784-5.728-12.034-8.396-25.957-8.396H49.412l-10.556 24.78h21.527L42.175 122.36H20.608L10.05 147.165h90.173l10.564-24.805H88.91l2.949-6.923h49.077c31.565 0 39.981-13.631 46.447-28.817 3.48-8.176 6.504-16.718 2.086-23.4z" fill="#A49F94"/><path d="M135.216 94.448h-38.55l7.936-18.636h38.557c6.818 0 9.57 3.506 7.095 9.32-2.472 5.806-8.214 9.316-15.038 9.316zm28.297-35.82H51.917l-7.316 17.184h21.531l-21.442 50.35H23.118l-7.325 17.202h81.92l7.32-17.203H83.165l6.186-14.528h51.586c29.569 0 37.001-12.525 42.952-26.5 5.954-13.985 9.19-26.506-20.376-26.506z" fill="#D0BC86"/><path d="M113.553 150.24c.408 0 .773.033.773.464 0 .464-.635.387-1.1.387h-.526v-.85h.853zm.355 1.346c.455-.015.912-.263.912-.935 0-.72-.558-.905-1.175-.905h-1.438v3.416h.493v-1.576h.636l.872 1.576h.565l-.865-1.576zm-.527 2.883a3.02 3.02 0 0 0 3.046-3.038 3.02 3.02 0 0 0-3.046-3.038 3.02 3.02 0 0 0-3.045 3.038 3.02 3.02 0 0 0 3.045 3.038zm0-5.582a2.539 2.539 0 0 1 2.552 2.544c0 1.43-1.16 2.543-2.552 2.543a2.54 2.54 0 0 1-2.55-2.543 2.537 2.537 0 0 1 2.55-2.544z" fill="#1D1C1B"/></g></svg>