<svg width="200" height="200" xmlns="http://www.w3.org/2000/svg"><g fill-rule="nonzero" fill="#243167"><path d="M114.513 173.532c-38.574-18.913-37.864-46.713-37.864-46.713-6.149 2.752-14.162 8.862-14.162 8.862s-5.041-27.696 15.205-44.93c0 0-6.06-2.818-7.5-10.435 0 0 5.87 9.416 19.202 9.416 0 0-17.032 11.738-20.13 33.024 0 0 8.983-6.875 18.832-8.124 0 0-15.571 25.735 26.417 58.9M64 77.966c-25.66 22.655-12.416 57.416-12.416 57.416C30.702 112.44 42.574 84.662 64 77.966M122.58 95.53c-.871-.03-1.55-.82-1.516-1.767.034-.945.767-1.685 1.64-1.653.87.03 1.547.822 1.514 1.767-.034.945-.767 1.686-1.638 1.653Zm-2.177 4.227c-3.09.023-5.702-2.672-5.587-5.881.07-1.942.912-3.633 2.15-4.645l2.643.635c-1.52.628-5.258 6.295.794 9.89.352 0-.334.078 0 0Zm-7.263-2.535c-4.995-2.895-5.634-8.702-5.214-10.928l6.449 2.129c-4.337 4.337-1.235 8.8-1.235 8.8Zm40.326 16.012-16.953-24.579c-22.4-3.551-42.155-14.163-50.476-23.666 0 0 4.271.893 7.306.18 0 0-11.074-7.559-20.987-23.035 0 0 2.397 11.613 9.498 18.501l-6.821-2.766s2.45 11.906 27.123 25.65c0 0-2.291 13.26 11.37 18.987l-11.349 6.963 30.776-9.215s3.223 1.963 1.477 8.529c-5.304 19.95 15.852 19.513 15.852 19.513-12.237-4.478-8.078-20.534 3.184-15.062Z"/><path d="M161.522 117.375c-3.262-.215-3.692 1.992-7.914 1.815-3.715-.155-2.941-4.489-5.436-2.8-2.53 1.713-.745 8.346 6.975 11.667-.001-.001 5.055 2.234 1.145 8.353-3.909 6.115-17.778 8.318-24.944 7.654-11.507-1.065-16.395-7.769-16.395-7.769 6.07 3.157 10.514 1.504 10.514 1.504-4.13-2.754-10.868-13.197-3.214-25.614 0 0-11.226 4.995-8.995 15.315 0 0-3.933-.166-8.717-4.028 0 0-4.044 28.232 24.31 46.955-11.625 10.66-19.416 16.786-24.63 18.917-34.648-12.948-47.684-44.108-47.684-44.108s-5.272.066-9.701 8.43c-24.493-31.928-17.4-66.36 2.119-78.56-5.524-5.524-14.63-3.909-14.63-3.909 8.018-16.036 21.372-17.77 21.372-17.77 1.29 4.783 6.142 20.991 25.144 24.969 0 0-27.19-22.65-14.7-50.062 31.751 40.72 75.922 52.248 75.922 52.248l27.378 38.605c-3.295 3.595-2.758-1.475-7.92-1.812Zm3.925 21.154s-.413.327-1.639-1.647c-1.192-1.922-.588-5.756-.588-5.756l1.453-.826s2.265-.037.774 8.23ZM126.3 150.742c18.33 3.199 33.638-8.529 33.638-8.529s1.482 1.904 3.707 2.582c0 0-.666 1.67-1.312 4.136-3.69 2.412-9.728-.858-9.728-.858.487 3.708 3.816 7.072 8.675 6.503-.165 1.59-.21 3.238-.045 4.832.652 6.308 2.796 9.22 2.796 9.22-29.335 5.762-41.794-18.596-37.731-17.886ZM79.967 8.393a929.73 929.73 0 0 1 2.085-.386l.661 2.006c-.79 1.833-1.27 4.063-1.27 6.083 0 7.35 6.041 13.331 13.465 13.331 3.67 0 7.18-1.598 9.735-4.348l3.3-.104.743 3.201c-.717 1.712-1.111 3.404-1.111 5.031 0 7.896 7.756 13.397 14.718 13.397 3.664 0 7.17-1.595 9.724-4.339l2.552-.134.991 2.65c-.71 1.734-1.156 3.805-1.156 5.659 0 7.296 5.789 12.797 13.466 12.797 3.494 0 7.366-2.147 10.22-5.582-.067-.008 2.564-.131 2.564-.131l.284 2.27c-.702.608-15.986 14.509-16.66 15.095-35.921-12.364-63.516-40.145-69.097-49.18l4.786-17.316Zm97.057 109.814L150.947 78.75l17.631-16.642-2.138-11.319-11.791.686a6.2 6.2 0 0 1-12.07-1.992c0-1.766.739-3.359 1.922-4.487l.042.01-4.63-11.9-12.095 1.137a6.2 6.2 0 1 1-10.146-6.48l-.038.023L113 15.974l-12.046 1.038-.02.01A6.197 6.197 0 0 1 88.87 15.03c0-1.765.735-3.358 1.92-4.488L86.779.21 75.06 2.004l-5.037 17.358-5.631-6.774s-9.634 12.62-9.634 31.365c-29.98 12.113-32.638 37.38-32.638 37.38 6.33-2.385 10.182-1.321 10.182-1.321-13.943 15.687-19.578 49.536 14.841 90.42 0 0 2.993-7.686 6.855-11.523 4.912 8.648 18.786 31.036 51.084 40.464.997-.55 16.602-8.77 32.816-24.983 27.846 8.679 34.836-4.66 34.836-4.66s-7.245-7.737-3.648-22.192c.94-3.777 5.472-12.129 2.418-21.761 2.858-1.504 5.13-2.981 5.52-7.57Z"/></g></svg>