<svg width="200" height="200" xmlns="http://www.w3.org/2000/svg" xmlns:xlink="http://www.w3.org/1999/xlink"><defs><path id="a" d="M.037 0H200v200H.037z"/></defs><g fill="none" fill-rule="evenodd"><mask id="b" fill="#fff"><use xlink:href="#a"/></mask><path d="M200 100c0 55.228-44.772 100-100 100C44.771 200 0 155.228 0 100 0 44.771 44.771 0 100 0c55.228 0 100 44.771 100 100" fill="#F2AF36" mask="url(#b)"/><path d="M162.183 106.664s-2.76-4.044-2.76-4.035c0 5.668 1.008 15.302-3.615 25.312 0 0-2.498-1.09-2.875-1.962-1.407 4.186-4.67 12.205-11.091 20.317l-2.378 3.007.075-3.835c.002-.073.097-7.404-3.92-11.342-1.798-1.758-4.203-2.59-7.15-2.474-9.976.397-16.572 22.282-16.572 22.282s-9.048 1.715-12.276 1.461c-3.241.194-12.216-1.597-12.216-1.597s-6.239-22.072-16.206-22.641c-2.946-.17-5.366.622-7.193 2.347-4.084 3.866-4.108 15.11-4.108 15.11-2.074-2.073-3.844-4.332-5.353-6.61-5.804-8.765-7.7-17.835-7.7-17.826l-2.92 2.791c-2.672-7.225-3.079-24.52-3.124-24.34l-2.879 2.957c.263-15.443 3.147-25.322 5.668-28.763-1.079.243-5.808 2.444-5.808 2.444 4.536-9.513 13.462-19.863 15.82-22.103-7.48-9.567-8.373-20.47-8.473-22.825-1.053-1.287-4.587-5.85-5.59-10.516a19.72 19.72 0 0 1-.414-4.117c0-3.732 3.487-6.582 3.487-6.582.46 9.518 13.73 17.852 24.952 22.09 9.92 3.752 14.962 10.477 16.36 12.602 3.543-.254 8.951-.322 14.418-.286l.815.007c7.86.066 15.656.336 18.032.565 1.435-2.094 6.594-8.736 16.573-12.313 11.3-4.045 24.713-12.146 25.335-21.655 0 0 3.375 2.692 3.375 6.242 0 1.425-.126 2.97-.486 4.51-1.085 4.646-4.697 9.147-5.775 10.415-.141 2.354-1.219 13.239-8.866 22.678 2.32 2.281 10.326 11.499 14.696 21.087 0 0-3.95-.998-5.023-1.258 2.378 3.376 5.828 16.159 5.165 28.856Zm4.274-23.448c-4.916-13.365-12.51-21.874-15.751-25.462 6.297-8.79 7.74-18.167 8.034-21.419 1.704-2.103 4.724-6.31 5.783-10.857.37-1.578.558-3.293.558-5.102 0-4.669-4.895-9.872-8.262-11.394 1.888 12.649-12.548 20.27-23.936 24.355-9.274 3.317-14.71 9.182-16.979 12.12-3.348-.36-24.73-.969-30.65-.265-2.217-2.98-7.552-8.936-16.765-12.416C57.171 28.5 42.94 19.979 44.903 8.379c-2.05.387-8.384 6.5-8.384 11.327 0 1.642.158 3.212.47 4.666.981 4.558 3.93 8.82 5.595 10.955.238 3.26 1.52 12.669 7.673 21.57-3.495 3.827-13.417 15.742-17.422 27.681 0 0 4.005-2.461 5.71-2.791-1.668 5.308-3.82 17.934-3.342 30.33 0 0 1.996-2.052 3.324-3.413.585 8.978 1.934 17.873 4.33 22.894 0 0 2.012-1.92 2.535-2.425 1.72 6.269 9.02 19.308 17.101 25.433-.52-3.518-.13-15.515 3.304-19.208 1.222-1.311 3.022-1.767 5.25-1.634 5.899.335 11.624 12.902 13.847 20.743l.435 1.536s9.237 1.962 14.3 1.962c5.627 0 14.308-1.804 14.308-1.804l.456-1.515c2.35-7.772 8.277-20.193 14.181-20.43 2.232-.085 3.938.48 5.22 1.73 2.633 2.583 4.315 10.407 2.533 21.007 9.734-9.688 16.047-22.354 17.873-26.94.196.091 2.906 1.299 2.906 1.299s4.6-8.294 4.978-20.211c1.147 1.672 2.3 3.36 2.3 3.36s2.405-17.91-2.861-32.878c.226.06 4.934 1.593 4.934 1.593Z" fill="#F2AF36"/><path d="M196.269 100c0 53.167-43.102 96.269-96.269 96.269-53.167 0-96.269-43.102-96.269-96.269C3.731 46.833 46.833 3.731 100 3.731c53.167 0 96.269 43.102 96.269 96.269" fill="#121B2C"/><path d="M100 166.098c-36.505 0-66.098-29.593-66.098-66.098 0-36.505 29.593-66.098 66.098-66.098 36.505 0 66.098 29.593 66.098 66.098 0 36.505-29.593 66.098-66.098 66.098Zm0-157.72C49.4 8.379 8.379 49.4 8.379 100s41.02 91.621 91.621 91.621c50.601 0 91.621-41.02 91.621-91.621 0-50.6-41.02-91.621-91.621-91.621Z" fill="#F2AF36"/><path d="M142.7 94.651c8.332.852 11.906 7.481 11.906 7.481.339-1.358-.172-5.44-.172-5.44-4.76-5.271-11.901-6.633-20.746-3.4-3.661 1.337-8.72 4.22-13.392 7.14.216.985.303 1.999.25 2.991 7.053-4.783 16.261-9.372 22.155-8.772M111.41 104.986c-1.568 1.533-2.792 2.855-3.568 3.781.777-.925 1.999-2.246 3.568-3.78" fill="#F2AF36"/><path d="M133.72 85.247c5.22-7.02 14.757-5.4 14.757-5.4 2.342 2.518 3.42 5.936 3.42 5.936-8.997-5.397-18.177-.536-18.177-.536Zm-6.024 4.947s-11.51-2.97-18.03 2.517c-.308-1.29.35-3.051.35-3.051-7.44.55-3.59-9.749-3.59-9.749-.325 1.26-.135 3.909.768 5.444 2.043.257 4.84-2.743 5.55-4.592.51-1.334 1.783-4.11 5.057-6.131 1.196-10.911-5.852-18-5.852-18 7.92 6.022 9.859 14.316 10.21 16.22 1.587-.39 3.431-.619 5.581-.605 0 0-1.36-2.939-4.95-5.54 0 0 9.33 3.337 12.855 10.682-1.936-.54-4.856-.365-5.512-.316.26-.02.867-.057 1.624-.062.414 1.823 1.624 9.058-4.06 13.183Zm16.583-22.767s3.015 1.727 3.23 3.02c0 0-4.953-.648-9.044.644 0 0 3.446-2.588 5.814-3.664Zm-55.63 21.9s.485 1.816.052 3.072c-5.904-6.142-17.527-4.252-17.527-4.252-5.168-4.639-3.306-11.598-2.678-13.47.866.1 1.472.212 1.472.212s-3.413-.636-5.653-.242c0 0 .197-.165.56-.393l-.093.057c4.358-6.72 13.731-9.005 13.731-9.005-3.844 2.212-5.506 4.99-5.506 4.99 2.304.2 4.191.66 5.753 1.286.412-1.982 2.426-9.408 10.256-15.146 0 0-6.703 7.268-5.937 17.936 1.909 1.912 2.764 4.096 3.365 5.674.605 1.607 2.8 4.711 5.175 5.599 1.232-1.335 1.756-4.292 1.54-5.678 0 0 2.84 10.62-4.51 9.36Zm-40.08-4.442s1.14-3.394 3.522-5.877c0 0 9.56-1.452 14.66 5.658 0 0-9.092-5.02-18.182.219Zm4.492-15.623c.423-1.243 3.679-2.446 3.679-2.446 2.161 1.445 5.136 4.558 5.136 4.558-3.825-1.94-8.815-2.112-8.815-2.112Zm93.21 4.816c2.723-1.704 6.463-2.215 6.463-2.215-5.103-9.348-21.426-19.724-21.426-19.724.25.036.494.078.738.12l-.03-.007c.563-.626 2.538-2.552 6.524-3.765 0 0-2.093-.838-6.909 1.255 0 0 1.385-3.428 6.14-6.869l.732-.372c-1.384.699-2.51 1.283-3.115 1.645-2.55 1.532-7.991 5.1-8.84 10.2-.851 5.106 3.74 6.808 3.74 6.808-11.054.85-12.416-8.844-12.416-8.844-3.91-.171-9.691 0-9.691 0-2.38 3.06-.34 8.504.34 13.606.68 5.1-2.72 6.458-2.72 6.458 1.362-4.933-2.72-7.82-2.72-7.82.679 3.401-.853 5.95-1.87 7.31-.278.37-.58.905-.873 1.485-.284-.586-.577-1.127-.847-1.5-1-1.377-2.484-3.954-1.743-7.345 0 0-4.134 2.818-2.859 7.777 0 0-3.376-1.42-2.608-6.508.769-5.09 2.906-10.497.578-13.596 0 0-5.777-.27-9.693-.17 0 0-1.527 9.67-12.565 8.626 0 0 4.62-1.622 3.859-6.734-.762-5.118-6.14-8.784-8.665-10.357-1.909-1.189-9.032-4.71-13.186-7.03 3.087 1.725 7.812 4.113 10.825 5.715 4.7 3.527 6.021 6.974 6.021 6.974-4.778-2.174-6.884-1.374-6.884-1.374 3.959 1.28 5.898 3.236 6.453 3.88.235-.035.47-.071.713-.102 0 0-16.5 10.09-21.764 19.351 0 0 3.732.575 6.422 2.323 0 0-9.043 1.714-11.766 21.395 0 0 7.322-10.416 20.357-6.79 6.35 1.768 12.62 5.715 17.786 9.797 1.22-2.447 3.317-4.258 5.984-4.213 4.854.086 9.802 5.39 9.802 5.39-3.285-1.796-8.387-2.65-11.075-1.275 2.186.995 3.644 2.83 3.644 2.83s4.622 2.474 10.976 2.169c6.325.404 10.967-1.98 10.967-1.98s1.429-1.838 3.654-2.788c-2.675-1.39-7.754-.621-11.055 1.108 0 0 5.041-5.22 9.9-5.22 2.666 0 4.73 1.849 5.907 4.315 5.237-3.992 11.575-7.83 17.955-9.486 13.094-3.404 20.233 7.14 20.233 7.14-2.379-19.724-11.392-21.594-11.392-21.594Z" fill="#F2AF36"/><path d="M107.448 85.756c-.094-.118-.172-.262-.254-.401l-.019-.001a3.4 3.4 0 0 0 .273.402M130.085 77.076l-.09.007.09-.007M138.11 97.88c-7.651.513-17.684 7.651-17.684 7.651-.147 1.026-.721 3-1.542 5.486 18.75-10.454 23.633-5.59 23.633-5.59-2.093.836-4.395 2.72-4.395 2.72 7.542-.318 13.904 3.38 16.61 5.242.245-1.783.384-3.264.384-3.264-1.873-6.293-9.355-12.754-17.006-12.245M83.32 102.34a268.634 268.634 0 0 1 0-.001v.002M52.609 36.511l-.098-.054.098.054M66.642 92.708c-8.784-3.384-15.948-2.145-20.801 3.043 0 0-.58 4.072-.265 5.434 0 0 3.687-6.563 12.033-7.27 5.902-.501 15.03 4.246 22 9.15-.037-.993.07-2.004.302-2.986-4.622-3-9.63-5.97-13.269-7.37M99.389 141.384a76.538 76.538 0 0 0 .324.014h.016l.45-.011-.475.01-.315-.013" fill="#F2AF36"/><path d="M62.144 97.224c-7.643-.645-15.238 5.687-17.215 11.945 0 0 .112 1.484.326 3.272 2.736-1.815 9.162-5.401 16.699-4.953 0 0-2.27-1.928-4.348-2.8 0 0 4.968-4.777 23.532 6.002-.778-2.499-1.317-4.483-1.445-5.512 0 0-9.909-7.31-17.549-7.954M79.838 85.034a37.13 37.13 0 0 1 5.717 1.948s-3.558-5.474-5.046-6.947c.154 1.306.17 3.274-.671 4.999M73.46 84.275s1.27-.129 3.528.194c-.048-.38-.087-.84-.1-1.37a1.683 1.683 0 0 1 .33-3.336c.143-.639.344-1.304.61-1.982-1.412-.951-3.172-1.737-5.206-1.694 0 0-1.586 4.8.838 8.188M118.872 84.896a1.695 1.695 0 0 1-1.757-1.628c-.001-.06.007-.11.01-.167a25.132 25.132 0 0 1 1.508-1.572c.035-.005.07-.019.108-.022.144-.005.281.013.415.042.03-.195.065-.38.101-.555l-.206.163c-1.597 1.276-5.732 6.467-5.732 6.467 2.402-.768 4.5-1.206 6.252-1.445a6.675 6.675 0 0 1-.407-1.323c-.095.02-.192.037-.292.04M122.206 79.049c.825 3.023.4 5.633.084 6.888 2.152-.08 3.327.157 3.327.157 2.741-3.14 1.62-8.073 1.62-8.073-1.883-.221-3.594.3-5.03 1.028" fill="#F2AF36"/><path d="M157.664 95.672s-7.139-10.544-20.233-7.141c-6.38 1.656-12.718 5.494-17.955 9.486-1.177-2.466-3.241-4.314-5.908-4.314-4.858 0-9.899 5.219-9.899 5.219 3.301-1.73 8.38-2.498 11.055-1.108.39.202.73.45 1.004.747.407.441.68 1.056.854 1.763v.001c-.189.157-.378.314-.563.47l-.054.047a91.79 91.79 0 0 0-2.096 1.835l-.193.174-.236.216-.54.497-.148.14c-.203.19-.404.379-.599.564l-.08.077a76.242 76.242 0 0 0-.663.641c-1.57 1.535-2.79 2.856-3.568 3.781 0 0 3.938-2.836 9.005-6.135v.001c.024 1.308-.114 2.641-.262 3.666v.007c-.292.227-.586.456-.861.68l-.143.117a48.039 48.039 0 0 0-1.25 1.055c-.371.324-.724.641-1.047.946-6.12 5.784-9.013 6.123-12.755 6.123 0 0 .17-2.55 2.382-4.76 2.21-2.21 6.8-5.444 8.159-9.865 0 0-4.642 2.384-10.967 1.98-6.354.305-10.975-2.17-10.975-2.17 1.282 4.447 5.82 7.752 7.992 10.005 2.171 2.25 2.297 4.802 2.297 4.802-3.74-.068-6.624-.459-12.645-6.345a35.642 35.642 0 0 0-1.045-.979l-.075-.069a51.657 51.657 0 0 0-1.19-1.035l-.051-.043c-.285-.24-.59-.486-.892-.73 0-.003 0-.006-.002-.009-.129-1.026-.244-2.362-.197-3.668v-.002a267.82 267.82 0 0 1 8.633 6.094l.067.049.072.053.127.094a27.095 27.095 0 0 0-.693-.823 74.17 74.17 0 0 0-.407-.465c-1.67-1.878-4.28-4.53-7.493-7.302v-.002c.187-.703.47-1.313.885-1.747.269-.282.598-.516.972-.707 2.688-1.374 7.79-.52 11.075 1.275 0 0-4.948-5.304-9.802-5.39-2.667-.046-4.763 1.766-5.984 4.213-5.166-4.082-11.436-8.03-17.786-9.798-13.035-3.625-20.357 6.791-20.357 6.791 2.723-19.68 11.766-21.395 11.766-21.395-2.69-1.748-6.423-2.323-6.423-2.323 5.264-9.261 21.765-19.351 21.765-19.351-.243.03-.478.068-.713.103l.002.002c-5.577.831-9.375 2.95-9.375 2.95-8.897-6.782-9.86-19.897-9.86-19.897.082.068.19.148.308.233.032.021.061.043.094.066a12.5 12.5 0 0 0 .566.37l.315.193c.157.094.324.193.5.296l.185.109c3.95 2.281 11.99 6.237 14.036 7.512 2.525 1.573 7.903 5.24 8.665 10.357.761 5.112-3.859 6.734-3.859 6.734 11.038 1.043 12.565-8.627 12.565-8.627 3.916-.099 9.693.17 9.693.17 2.328 3.1.191 8.508-.578 13.597-.768 5.088 2.608 6.508 2.608 6.508-1.275-4.96 2.859-7.777 2.859-7.777-.741 3.391.743 5.968 1.743 7.344.27.374.563.915.847 1.501.293-.58.595-1.115.873-1.486 1.017-1.359 2.549-3.908 1.87-7.31 0 0 4.082 2.888 2.72 7.821 0 0 3.4-1.358 2.72-6.458-.68-5.102-2.72-10.545-.34-13.606 0 0 5.78-.171 9.69 0 0 0 1.363 9.694 12.418 8.844 0 0-4.592-1.702-3.741-6.807.849-5.1 6.29-8.669 8.84-10.2.605-.363 1.73-.947 3.114-1.646 3.851-1.945 9.724-4.78 12.167-6.265l.04-.023a12.856 12.856 0 0 0 .511-.33c.125-.086.238-.166.324-.237 0 0-1.192 13.093-10.202 19.725 0 0-3.75-2.18-9.296-3.113-.244-.041-.487-.083-.738-.12 0 0 16.323 10.377 21.426 19.725 0 0-3.74.511-6.462 2.215 0 0 9.013 1.87 11.392 21.594Zm-37.368 4.76c4.673-2.92 9.73-5.803 13.391-7.14 8.845-3.233 15.986-1.871 20.747 3.4 0 0 .511 4.082.172 5.44 0 0-3.574-6.63-11.905-7.48-5.893-.601-15.102 3.988-22.155 8.771a11.219 11.219 0 0 0-.25-2.992ZM90.9 124.315c-3.548-2.94-3.58-11.577-3.58-11.577 1.227 1.817 5.867 4.239 5.867 4.239-2.027 2.663-2.287 7.338-2.287 7.338Zm3.5 5.642s.082 5.758 2.386 7.599c0 0-3.426.48-4.82-2.242 0 0-.696-1.274 2.434-5.357Zm10.892-3.148c-.54 1.08-1.59 2.626-5.44 2.626-3.853 0-4.875-1.628-5.395-2.717-.52-1.09-1.165-5.422-1.165-5.422 2.368-1.757 4.685-.277 4.685-.277.442.74 1.233 2.923 1.905 4.9.704-1.964 1.533-4.136 1.992-4.865 0 0 2.338-1.438 4.678.36 0 0-.72 4.32-1.26 5.395Zm1.439-9.714s4.678-2.34 5.939-4.141c0 0-.181 8.642-3.778 11.516 0 0-.181-4.677-2.161-7.375Zm.901 18.35c-1.442 2.7-4.859 2.161-4.859 2.161 2.337-1.799 2.52-7.554 2.52-7.554 3.059 4.135 2.34 5.394 2.34 5.394ZM79.61 103.066c-6.97-4.904-16.098-9.651-22-9.15-8.346.707-12.033 7.27-12.033 7.27-.314-1.362.265-5.434.265-5.434 4.853-5.189 12.017-6.427 20.801-3.043 3.639 1.4 8.647 4.371 13.27 7.37-.234.983-.34 1.994-.303 2.987Zm75.125 10.325-.032.219c-.02.15-.042.3-.065.452l-.039.264a52.331 52.331 0 0 1-.124.783c-.091.554-.191 1.1-.3 1.611l-.005.025c-.053.249-.108.487-.165.714l-.01.046c-.056.22-.113.426-.17.618l-.015.045c-.059.191-.119.365-.18.521l-.013.03a3.134 3.134 0 0 1-.2.418s-1.872-2.717-3.572-3.398c0 0 .508 11.393-6.973 20.915 0 0-3.402-14.452-17.855-9.863 0 0 7.311-10.034 19.216 1.192 0 0 1.87-4.931 1.87-7.822 0 0-11.052-6.801-18.705-1.702 0 0 2.892-3.57 4.762-5.27 0 0-17.685 8.33-24.147 36.048l-.062.007-.574.056c-1.459.142-5.143.487-7.663.588l-.004.005c-.015-.003-.033-.003-.048-.003h-.024c-2.718-.158-6.785-.62-7.954-.757-.096-.01-.171-.02-.226-.026l-.11-.013c-5.98-27.828-23.518-36.465-23.518-36.465 1.839 1.734 4.669 5.353 4.669 5.353-7.563-5.233-18.734 1.377-18.734 1.377-.047 2.89 1.736 7.855 1.736 7.855 12.096-11.02 19.233-.859 19.233-.859-14.372-4.843-18.022 9.552-18.022 9.552-7.317-9.65-6.61-21.035-6.61-21.035-1.711.652-3.63 3.338-3.63 3.338a2.95 2.95 0 0 1-.19-.414l-.02-.052a6.825 6.825 0 0 1-.161-.49l-.027-.094c-.049-.173-.096-.359-.142-.555-.01-.04-.02-.079-.028-.12a23.08 23.08 0 0 1-.131-.62l-.025-.123a34.182 34.182 0 0 1-.15-.85 44.522 44.522 0 0 1-.11-.7l-.026-.182c-.031-.212-.06-.422-.088-.632l-.032-.245c-.024-.18-.046-.358-.067-.535l-.02-.156c-.213-1.788-.325-3.272-.325-3.272 1.977-6.258 9.572-12.59 17.215-11.945 7.64.644 17.55 7.954 17.55 7.954.127 1.029.666 3.013 1.444 5.512h.002c2.55 8.196 7.684 21.943 9.442 25.893.018.042.037.086.056.125l.11.243c.03.065.06.125.088.182l.07.146c.048.095.093.182.13.243 1.323 2.23 2.838 3.112 4.193 3.474a4.497 4.497 0 0 0 .403.085c.146.026.308.049.483.07.04.006.087.01.13.015.137.017.277.033.426.047l.365.031.232.02c.196.015.395.03.596.042h.014a73 73 0 0 0 1.181.064l.12.006.21.008c.109.005.213.01.315.012.152-.002.31-.005.475-.01l.077-.001.1-.003c1.408-.04 3.157-.118 3.915-.304 1.358-.344 2.892-1.194 4.25-3.405.037-.062.085-.148.136-.245.019-.035.039-.076.058-.114.037-.072.076-.15.118-.238l.078-.162c.045-.094.093-.198.142-.305l.083-.179.24-.535.107-.246a60.02 60.02 0 0 0 .498-1.154l.143-.338.227-.542.118-.284c.117-.281.239-.573.362-.873l.105-.259.304-.744.11-.273.343-.847.079-.196c.299-.745.607-1.522.924-2.323l.029-.077.458-1.166c.011-.032.024-.063.036-.095.488-1.25.986-2.542 1.482-3.847l.066-.174c.137-.36.272-.719.407-1.078l.1-.266.424-1.131.05-.135a779.252 779.252 0 0 0 .633-1.714l.22-.601c.083-.227.165-.451.245-.675l.138-.382a214.49 214.49 0 0 0 1.897-5.457h.002c.822-2.486 1.396-4.461 1.543-5.487 0 0 10.033-7.138 17.684-7.651 7.651-.51 15.133 5.953 17.006 12.245 0 0-.139 1.48-.384 3.264l.002.001ZM79.935 48.662c-1.306 1.306-2.969 2.376-2.969 2.376-.236-5.11-7.13-10.573-7.13-10.573 5.228 2.017 10.099 8.197 10.099 8.197Zm51.394-8.197s-6.89 5.464-7.127 10.572c0 0-1.663-1.07-2.97-2.375 0 0 4.872-6.18 10.097-8.197Zm30.712 38.6c-4.37-9.587-12.377-18.805-14.696-21.086 7.648-9.439 8.725-20.324 8.866-22.678 1.078-1.267 4.69-5.769 5.775-10.415.36-1.54.487-3.085.487-4.51 0-3.55-3.376-6.242-3.376-6.242-.622 9.51-14.035 17.61-25.335 21.655-9.98 3.577-15.138 10.218-16.573 12.313-2.376-.229-10.173-.5-18.032-.565l-.816-.006c-5.466-.037-10.873.03-14.418.285-1.397-2.125-6.439-8.85-16.359-12.602-11.223-4.238-24.493-12.572-24.951-22.09 0 0-3.488 2.85-3.488 6.582 0 1.315.113 2.716.413 4.117 1.004 4.665 4.538 9.229 5.591 10.516.1 2.355.992 13.258 8.474 22.825-2.359 2.241-11.285 12.59-15.821 22.103 0 0 4.73-2.2 5.808-2.444-2.522 3.441-5.405 13.32-5.668 28.763l2.88-2.957c.044-.18.451 17.115 3.124 24.34l2.92-2.79c0-.01 1.895 9.061 7.699 17.824 1.509 2.28 3.279 4.538 5.352 6.61 0 0 .026-11.243 4.109-15.109 1.827-1.725 4.247-2.518 7.193-2.347 9.967.569 16.206 22.641 16.206 22.641s8.975 1.79 12.216 1.597c3.228.254 12.276-1.461 12.276-1.461s6.596-21.885 16.572-22.282c2.947-.116 5.352.716 7.15 2.474 4.017 3.938 3.922 11.269 3.92 11.341l-.075 3.836 2.378-3.007c6.42-8.112 9.684-16.131 11.09-20.317.378.872 2.876 1.962 2.876 1.962 4.623-10.01 3.615-19.644 3.615-25.312 0-.009 2.76 4.035 2.76 4.035.663-12.697-2.787-25.48-5.165-28.856 1.073.26 5.023 1.258 5.023 1.258Z" fill="#121B2C"/><path d="M117.801 74.632c1.175-.725 2.61-1.351 4.358-1.78-.352-1.904-2.29-10.198-10.21-16.22 0 0 7.048 7.089 5.852 18M133.72 85.247s9.18-4.861 18.177.536c0 0-1.078-3.418-3.42-5.936 0 0-9.537-1.62-14.757 5.4M89.016 56.436c-7.83 5.738-9.844 13.164-10.256 15.146 1.86.744 3.254 1.724 4.319 2.79-.766-10.668 5.937-17.936 5.937-17.936M52.09 79.008c-2.382 2.483-3.52 5.877-3.52 5.877 9.089-5.239 18.18-.219 18.18-.219-5.098-7.11-14.66-5.658-14.66-5.658M79.838 85.034c.84-1.725.825-3.693.671-4.999 1.489 1.473 5.046 6.947 5.046 6.947a37.13 37.13 0 0 0-5.718-1.948Zm-6.378-.759c-2.424-3.388-.837-8.188-.837-8.188 2.033-.043 3.793.743 5.206 1.694a13.431 13.431 0 0 0-.61 1.98c.069 0 .137-.004.207.005.93.108 1.593.95 1.483 1.881a1.691 1.691 0 0 1-1.882 1.482c-.048-.006-.091-.022-.138-.03.012.53.051.99.1 1.37-2.258-.323-3.529-.194-3.529-.194Zm18.159 1.37.002.001-.03.028c-.074.078-.15.153-.23.218-.027.024-.057.043-.085.065-.07.052-.14.105-.213.147-.057.033-.117.055-.175.082-.052.022-.101.05-.154.066a1.52 1.52 0 0 1-.365.074c-2.12.146-4.349-3.392-6.875-6.708-2.522-3.32-7.703-6.387-12.105-6.806a11.117 11.117 0 0 0-1.322-.046c-.338.008-.668.024-.98.059h-.01a10.51 10.51 0 0 0-1.088.184c-.276.06-.543.127-.79.202l-.04.012a10.403 10.403 0 0 0-.828.295c-.203.082-.396.166-.57.249l-.086.044c-.142.07-.274.139-.396.206l-.153.086a9.043 9.043 0 0 0-.25.15c-.364.23-.561.394-.561.394 2.24-.395 5.653.242 5.653.242-1.671 8.435 2.043 11.644 2.043 11.644C83.04 84.532 88.7 92.4 88.7 92.4c.433-1.256-.053-3.072-.053-3.072 7.351 1.26 4.51-9.36 4.51-9.36.217 1.386-.307 4.343-1.54 5.678ZM125.617 86.094s-1.175-.238-3.327-.156c.317-1.256.74-3.866-.084-6.89 1.437-.727 3.148-1.248 5.03-1.027 0 0 1.122 4.933-1.62 8.073Zm-12.298 1.53s4.135-5.19 5.732-6.467l.206-.163c-.036.174-.07.36-.1.555a1.69 1.69 0 0 1 .008 3.306c.087.446.221.89.406 1.324-1.752.239-3.85.677-6.252 1.445Zm15.464-12.745c-4.423-.002-9.875 2.55-12.706 5.613-2.831 3.059-5.39 6.37-7.487 6.015a1.581 1.581 0 0 1-.404-.13c-.03-.014-.057-.035-.085-.05a1.81 1.81 0 0 1-.287-.19c-.021-.018-.041-.039-.063-.057a2.486 2.486 0 0 1-.303-.324c-1.129-1.428-1.376-4.472-1.022-5.845 0 0-3.85 10.3 3.59 9.749 0 0-.659 1.761-.35 3.051 0 0 6.392-7.284 17.18-4.233 0 0 4.003-2.838 3.149-11.395l.09-.007.048-.003c.656-.049 3.576-.224 5.512.316 0 0-2.436-2.51-6.862-2.51ZM147.509 70.446c-.215-1.292-3.23-3.02-3.23-3.02-2.368 1.077-5.814 3.665-5.814 3.665 4.09-1.292 9.044-.645 9.044-.645M56.74 66.816s-3.256 1.203-3.68 2.446c0 0 4.99.172 8.816 2.112 0 0-2.975-3.113-5.136-4.558" fill="#121B2C"/><path d="M93.29 121.297s.646 4.332 1.166 5.422c.52 1.09 1.541 2.717 5.395 2.717 3.85 0 4.9-1.545 5.44-2.626.54-1.076 1.26-5.396 1.26-5.396-2.34-1.797-4.678-.359-4.678-.359-.46.729-1.288 2.901-1.992 4.865-.672-1.977-1.463-4.16-1.905-4.9 0 0-2.317-1.48-4.685.277M112.669 112.955c-1.26 1.802-5.939 4.141-5.939 4.141 1.98 2.698 2.161 7.375 2.161 7.375 3.596-2.874 3.778-11.516 3.778-11.516M102.772 137.607s3.417.539 4.86-2.16c0 0 .719-1.26-2.34-5.394 0 0-.183 5.755-2.52 7.554M114.33 108.158l.1-.088a48.039 48.039 0 0 1 1.294-1.084c.275-.224.57-.453.86-.68l.001-.007c.148-1.025.286-2.358.262-3.666-5.067 3.298-9.004 6.135-9.004 6.135.775-.927 1.999-2.249 3.567-3.782a87.672 87.672 0 0 1 .663-.641l.08-.077c.195-.186.395-.374.599-.564l.149-.14c.175-.163.356-.33.539-.496l.236-.217.193-.174a91.79 91.79 0 0 1 2.096-1.835l.054-.046c.185-.157.374-.314.563-.471-.174-.707-.447-1.323-.854-1.764a3.617 3.617 0 0 0-1.004-.747c-2.225.95-3.654 2.788-3.654 2.788-1.358 4.421-5.948 7.654-8.16 9.864-2.21 2.212-2.38 4.76-2.38 4.76 3.74 0 6.633-.338 12.754-6.122.323-.305.676-.623 1.047-.946M138.54 48.487c-3.986 1.213-5.96 3.14-6.523 3.765l.029.006c5.546.934 9.296 3.113 9.296 3.113 9.01-6.632 10.202-19.725 10.202-19.725a5.263 5.263 0 0 1-.39.282 11.986 11.986 0 0 1-.485.308c-2.443 1.485-8.316 4.32-12.167 6.265l-.731.372c-4.755 3.44-6.14 6.87-6.14 6.87 4.816-2.094 6.909-1.256 6.909-1.256M87.319 112.739s.032 8.637 3.58 11.577c0 0 .26-4.675 2.287-7.338 0 0-4.64-2.422-5.867-4.24M96.785 137.557c-2.304-1.84-2.386-7.599-2.386-7.599-3.13 4.083-2.434 5.357-2.434 5.357 1.394 2.722 4.82 2.242 4.82 2.242" fill="#FFFFFE"/><path d="M138.122 108.147s2.302-1.884 4.395-2.72c0 0-4.882-4.865-23.633 5.59l-.003.001a214.49 214.49 0 0 1-1.897 5.457l-.138.382-.244.675-.22.601c-.067.18-.133.359-.198.54l-.436 1.174-.05.135a255.658 255.658 0 0 1-.524 1.397c-.135.36-.27.718-.407 1.078l-.066.174a410.32 410.32 0 0 1-1.482 3.847c-.012.032-.025.063-.036.095l-.458 1.166-.03.077a472.97 472.97 0 0 1-.923 2.323l-.08.196-.341.847-.111.273-.304.744-.105.258-.362.874-.118.284-.227.542-.143.338a65.395 65.395 0 0 1-.317.74l-.18.414-.108.246-.24.535-.083.18-.142.304-.078.162c-.042.088-.081.165-.118.238l-.058.114c-.051.097-.099.183-.136.245-1.358 2.211-2.891 3.06-4.25 3.405-.758.186-2.507.264-3.914.304l-.101.003-.077.002-.45.01-.016.001a76.538 76.538 0 0 1-.324-.014l-.21-.008-.12-.006c-.38-.017-.78-.037-1.18-.063h-.015l-.596-.043-.232-.02-.365-.031c-.15-.014-.289-.03-.427-.047-.041-.005-.088-.008-.129-.014a9.184 9.184 0 0 1-.483-.071l-.01-.001a4.497 4.497 0 0 1-.393-.084c-1.355-.362-2.87-1.244-4.193-3.474a3.993 3.993 0 0 1-.2-.389 14.133 14.133 0 0 1-.198-.425c-.019-.04-.038-.082-.056-.125-1.758-3.95-6.892-17.697-9.442-25.892l-.002-.001c-18.564-10.78-23.532-6.002-23.532-6.002 2.077.872 4.348 2.8 4.348 2.8-7.537-.448-13.963 3.138-16.699 4.953h-.001l.02.156c.021.177.043.356.067.535a58.904 58.904 0 0 0 .282 1.915c.04.236.081.468.124.694l.025.123a23.08 23.08 0 0 0 .159.74c.046.196.093.382.142.555l.027.094c.052.178.106.341.161.49l.02.052c.06.16.125.3.19.414 0 0 1.919-2.686 3.63-3.338 0 0-.707 11.385 6.61 21.035 0 0 3.65-14.395 18.022-9.552 0 0-7.137-10.16-19.233.86 0 0-1.782-4.965-1.736-7.856 0 0 11.171-6.61 18.733-1.377 0 0-2.83-3.62-4.668-5.353 0 0 17.538 8.637 23.518 36.465l.11.013c.055.007.13.016.226.026 1.169.137 5.236.599 7.954.757h.024c.015 0 .033 0 .048.003l.004-.005c2.52-.1 6.205-.446 7.663-.588l.574-.056.063-.007c6.461-27.718 24.146-36.047 24.146-36.047-1.87 1.7-4.762 5.27-4.762 5.27 7.653-5.1 18.705 1.701 18.705 1.701 0 2.89-1.87 7.823-1.87 7.823-11.905-11.227-19.216-1.193-19.216-1.193 14.453-4.589 17.855 9.862 17.855 9.862 7.481-9.52 6.973-20.914 6.973-20.914 1.7.68 3.572 3.398 3.572 3.398.068-.114.135-.256.2-.418l.012-.03c.062-.156.123-.33.181-.521l.014-.044c.058-.193.115-.4.17-.619a21.582 21.582 0 0 0 .176-.76l.005-.025a36.376 36.376 0 0 0 .318-1.717 54.084 54.084 0 0 0 .21-1.393l.032-.219h-.002c-2.706-1.863-9.068-5.56-16.61-5.243" fill="#FFFFFE"/><path d="M85.483 97.583a3.579 3.579 0 0 0-.972.707c-.415.434-.698 1.044-.885 1.747v.002c3.213 2.772 5.822 5.424 7.493 7.302l.025.028c.133.151.261.297.382.437l.047.054a34 34 0 0 1 .646.77l-.127-.095-.072-.053-.067-.05a55.346 55.346 0 0 0-.23-.17c-1.196-.88-4.449-3.249-8.403-5.921-.047 1.306.068 2.642.198 3.668v.008c.303.246.608.491.893.73l.05.044c.418.353.817.698 1.19 1.035l.076.069c.37.336.723.664 1.045.98 6.02 5.885 8.905 6.276 12.645 6.344 0 0-.126-2.553-2.297-4.802-2.172-2.253-6.71-5.558-7.993-10.005 0 0-1.458-1.834-3.644-2.829M59.651 54.66s3.798-2.119 9.375-2.95l-.002-.002c-.555-.645-2.494-2.602-6.453-3.881 0 0 2.106-.8 6.884 1.374 0 0-1.322-3.447-6.02-6.974-3.304-1.757-8.673-4.46-11.676-6.197l-.186-.11a36.02 36.02 0 0 1-.814-.489l-.176-.11a11.476 11.476 0 0 1-.39-.26l-.094-.065a5.226 5.226 0 0 1-.307-.233s.962 13.114 9.86 19.896M131.33 40.465c-5.226 2.017-10.098 8.197-10.098 8.197 1.307 1.306 2.97 2.376 2.97 2.376.237-5.11 7.127-10.573 7.127-10.573M76.966 51.038s1.663-1.07 2.969-2.376c0 0-4.871-6.18-10.099-8.197 0 0 6.894 5.464 7.13 10.572M76.889 83.098c.047.01.09.025.139.03a1.691 1.691 0 0 0 1.88-1.48 1.691 1.691 0 0 0-1.482-1.882c-.07-.01-.139-.005-.207-.004a1.684 1.684 0 0 0-.33 3.336" fill="#FFFFFE"/><path d="M73.007 70.296s1.662-2.779 5.506-4.99c0 0-9.373 2.285-13.731 9.005.026-.017.066-.04.094-.057.076-.048.158-.098.25-.15.049-.03.099-.057.153-.087.122-.068.253-.136.396-.206.03-.015.054-.03.086-.044a10.7 10.7 0 0 1 .57-.249c.053-.022.108-.042.163-.064.21-.08.428-.158.665-.23.014-.005.026-.01.04-.013a10.53 10.53 0 0 1 .985-.242c.286-.058.58-.108.894-.143l.009-.001c.312-.035.642-.052.98-.059.08-.002.16-.002.242-.002.349.001.706.012 1.08.048 4.402.42 9.583 3.486 12.105 6.806 2.526 3.316 4.755 6.854 6.875 6.708.126-.01.247-.036.365-.073.053-.017.102-.044.154-.067.059-.026.118-.05.174-.082.074-.043.145-.094.214-.147.028-.021.058-.041.086-.064.079-.067.156-.14.23-.219l.029-.028-.002-.001c-2.375-.888-4.57-3.992-5.175-5.6-.6-1.578-1.457-3.761-3.365-5.673-1.065-1.066-2.46-2.046-4.319-2.79-1.562-.625-3.449-1.086-5.753-1.286" fill="#FFFFFE"/><path d="M68.496 74.677c-.628 1.872-2.49 8.831 2.678 13.47 0 0 11.623-1.89 17.527 4.252 0 0-5.66-7.867-16.69-5.866 0 0-3.714-3.209-2.043-11.644 0 0-.606-.111-1.472-.212M119.164 84.856a1.69 1.69 0 0 0 1.334-1.718 1.697 1.697 0 0 0-1.342-1.589 1.654 1.654 0 0 0-.415-.042c-.037.003-.073.017-.108.022-.43.401-.955.952-1.508 1.572-.003.057-.011.108-.01.167a1.695 1.695 0 0 0 1.757 1.628c.1-.004.198-.02.292-.04" fill="#FFFFFE"/><path d="M107.474 85.791c.088.107.18.202.277.289.021.018.041.039.063.056.09.075.187.135.287.19.028.016.055.037.085.05.128.061.262.108.404.13 2.097.356 4.656-2.955 7.487-6.014 2.83-3.063 8.283-5.616 12.706-5.613 4.426 0 6.862 2.51 6.862 2.51-3.526-7.345-12.855-10.683-12.855-10.683 3.591 2.602 4.95 5.541 4.95 5.541-2.15-.014-3.994.214-5.581.604-1.747.43-3.183 1.056-4.358 1.78-3.274 2.023-4.547 4.798-5.057 6.132-.712 1.855-3.523 4.869-5.569 4.59a3.4 3.4 0 0 0 .3.438" fill="#FFFFFE"/><path d="M109.667 92.711c6.52-5.487 18.03-2.517 18.03-2.517 5.685-4.125 4.474-11.36 4.06-13.183-.757.005-1.364.043-1.624.062-.02 0-.032.002-.048.003l-.09.007c.854 8.557-3.149 11.395-3.149 11.395-10.788-3.05-17.18 4.233-17.18 4.233" fill="#FFFFFE"/><path d="M23.59 141.229a4.497 4.497 0 0 0-.883-1.117l.072-.12c.22.037.805.265 1.444.624.783.438 1.8 1.223 2.612 1.643 1.394.714 3.119 1.021 5.468-.294 2.835-1.587 3.682-4.091 2.774-5.713-.95-1.698-3.516-2.192-6.29-.639-2.592 1.45-3.252 3.473-3.392 4.964l-.134-.025c-.88-2.035-.89-5.075 2.293-6.857 3.046-1.705 6.642-.653 8.22 2.166 1.544 2.758.838 6.299-2.223 8.013-3.001 1.68-5.86.235-8.212-1.833.084.113.16.25.245.4.753 1.311.797 3.238 1.612 4.732a6.403 6.403 0 0 0 2.026 2.23l-.073.12c-.669-.023-3.1-.454-4.178-2.379-.772-1.378-.38-4.127-1.381-5.915" fill="#121B2C"/><path d="m24.58 141.084.903.795c2.929 2.575 5.534 3.166 7.962 1.806 1.392-.78 2.363-2.016 2.734-3.48.358-1.41.147-2.914-.595-4.238-1.558-2.783-5.04-3.698-7.924-2.083-2.753 1.542-3.064 4.051-2.397 6.064.353-1.93 1.5-3.451 3.418-4.524 3.09-1.73 5.652-.945 6.585.722.489.873.498 1.99.026 3.063-.51 1.157-1.506 2.175-2.883 2.945-2.038 1.141-3.84 1.235-5.673.3-.454-.237-.965-.579-1.46-.91a40.97 40.97 0 0 0-.695-.46Zm-.8.04c.554.99.692 2.216.826 3.403.11.98.215 1.905.554 2.512.82 1.464 2.52 2.04 3.492 2.21a6.6 6.6 0 0 1-1.645-1.97c-.426-.781-.646-1.661-.858-2.513-.203-.82-.396-1.594-.754-2.215-.087-.155-.155-.28-.23-.381l-.974-1.324a8.858 8.858 0 0 0-.92-.458c.174.208.354.458.508.735Zm5.489 8.62-.127-.004c-.841-.029-3.264-.532-4.36-2.49-.383-.683-.492-1.65-.607-2.675-.13-1.144-.262-2.326-.774-3.24a4.28 4.28 0 0 0-.837-1.061l-.137-.12.242-.4.145.024c.254.042.857.28 1.515.65.364.203.765.47 1.19.756.483.324.984.66 1.415.883 1.063.544 2.768 1.104 5.263-.29 1.635-.916 2.37-1.997 2.697-2.743.418-.948.415-1.922-.007-2.676-.828-1.48-3.153-2.146-5.994-.556-1.984 1.11-3.087 2.724-3.282 4.796l-.022.237-.48-.092-.047-.105c-.93-2.153-.865-5.312 2.386-7.132 3.099-1.733 6.838-.745 8.515 2.25.795 1.42 1.021 3.038.637 4.556-.4 1.581-1.446 2.912-2.943 3.75-2.368 1.328-4.864.95-7.61-1.158.222.545.37 1.14.524 1.757.205.825.417 1.678.815 2.408a6.197 6.197 0 0 0 1.96 2.156l.167.116-.244.403ZM45.85 160.627c-1.489 1.483-4.106 1.932-6.251-.223-2.256-2.265-2.348-4.72-.526-6.535l4.53-4.51-.181-1.512.074-.074 3.21 3.226-.073.073-1.572-.25-4.48 4.462c-1.392 1.386-1.37 3.032.174 4.583 1.41 1.416 3.215 1.284 4.458.046l4.469-4.449-.242-1.573.074-.074 2.402 2.413-.073.074-1.487-.163-4.505 4.486" fill="#121B2C"/><path d="m43.691 148.277.139 1.16-4.604 4.585c-.86.857-1.276 1.87-1.203 2.93.076 1.099.673 2.24 1.73 3.3.949.952 2.072 1.439 3.212 1.41a4.067 4.067 0 0 0 2.732-1.188l4.58-4.56 1.143.125-1.692-1.698.185 1.2-.078.077-4.469 4.448c-1.395 1.389-3.354 1.37-4.765-.046-1.608-1.616-1.672-3.398-.173-4.889l4.558-4.54 1.198.19-2.493-2.504Zm-.825 13.821c-1.235 0-2.416-.53-3.421-1.54-1.13-1.136-1.772-2.372-1.855-3.576-.082-1.19.377-2.319 1.33-3.266l4.454-4.437-.18-1.51.302-.303L47.014 151l-.306.303-1.572-.249-4.403 4.384c-1.321 1.317-1.259 2.835.176 4.276 1.25 1.255 2.918 1.273 4.152.046l4.39-4.372-.242-1.572.305-.305 2.708 2.719-.3.3-1.486-.162-4.433 4.412c-.81.808-1.914 1.289-3.027 1.316l-.11.002ZM52.679 170.958l.055-.088 1.5-.162 5.03-7.964-.498-1.425.055-.087 3.747 2.365-.055.089-1.501.162-5.029 7.963.498 1.425-.055.088-3.747-2.367" fill="#121B2C"/><path d="m53.21 171.036 2.917 1.843-.383-1.095 5.14-8.14 1.154-.125-2.917-1.841.383 1.093-5.142 8.14-1.153.125Zm3.282 2.587-4.113-2.598.229-.36 1.499-.161 4.918-7.787-.497-1.424.224-.361 4.115 2.599-.228.359-1.5.163-4.917 7.786.499 1.424-.228.36ZM69.89 179.818l-3.515-1.212.034-.099 1.505-.528 2.918-8.46c-.285-.668-.72-1.535-.84-1.723l.034-.1 2.695.93 4.26 10.293 2.364-6.85-1.04-1.406.034-.1 3.465 1.196-.033.1-1.522.522-3.394 9.84-.773-.267-4.67-11.132-2.578 7.474 1.09 1.424-.034.098" fill="#121B2C"/><path d="m76.245 181.78.476.164 3.357-9.735 1.187-.406-2.48-.856.802 1.085L77 179.53l-4.444-10.732-2.18-.752c.19.372.46.93.654 1.388l.033.076-2.979 8.638-1.174.412 2.518.868-.838-1.095.038-.109 2.763-8.01 4.853 11.565Zm.744.717-1.069-.37-4.487-10.698-2.356 6.828 1.09 1.424-.143.412-3.925-1.353.14-.403 1.505-.528 2.855-8.281c-.288-.668-.69-1.458-.79-1.616l-.056-.088.139-.403 2.991 1.032 4.08 9.855 2.14-6.202-1.04-1.407.141-.41 3.875 1.335-.138.404-1.522.524-3.43 9.945ZM93.04 185.005l-3.713-.196.006-.103 1.3-.923.472-8.938c-.458-.563-1.117-1.276-1.282-1.424l.005-.105 2.846.15 6.936 8.718.381-7.237-1.388-1.064.005-.104 3.663.192-.007.105-1.318.922-.547 10.395-.816-.043-7.562-9.412-.415 7.896 1.44 1.067-.005.104" fill="#121B2C"/><path d="m99.692 185.138.502.026.54-10.283 1.029-.72-2.62-.137 1.07.821-.416 7.922-7.232-9.089-2.304-.122c.286.305.699.767 1.012 1.152l.053.065-.005.083-.476 9.043-1.014.72 2.66.14-1.109-.82.453-8.58 7.857 9.78Zm.912.482-1.129-.059-.06-.076-7.207-8.968-.38 7.212 1.442 1.068-.025.436-4.144-.219.02-.424 1.302-.924.46-8.75c-.46-.558-1.064-1.208-1.205-1.334l-.077-.068.02-.426 3.162.166.06.077 6.58 8.27.346-6.551-1.388-1.064.022-.435 4.096.215-.023.427-1.32.922-.552 10.505ZM112.68 184.344l-.018-.102 1.001-1.129-1.627-9.275-1.326-.721-.02-.103 4.366-.766.017.103-1.001 1.128 1.628 9.277 1.327.72.017.103-4.364.765" fill="#121B2C"/><path d="m111.212 173.143 1.019.553.018.104 1.647 9.379-.77.867 3.398-.596-1.02-.553-.018-.104-1.646-9.379.77-.868-3.398.597Zm1.292 11.453-.073-.42 1-1.128-1.592-9.07-1.325-.72-.076-.42 4.794-.842.072.421-1 1.128 1.592 9.07 1.326.72.074.42-4.792.84ZM129.779 174.992l-.071-.178c1.102-.799 1.993-2.356 1.286-4.113-.61-1.516-1.966-2.094-3.579-1.445l-.597.239 3.639 9.046 1.64.352.039.096-4.305 1.731-.038-.096.746-1.312-3.516-8.738-1.446-.43-.039-.096 4.128-1.66c2.369-.954 4.39-.587 5.161 1.331.948 2.354-.865 4.413-3.048 5.273" fill="#121B2C"/><path d="m124.074 170.066 1.111.33.04.097 3.554 8.836-.573 1.007 3.334-1.341-1.24-.266-.044-.107-3.72-9.247.798-.321c.84-.337 1.643-.368 2.328-.088.68.279 1.21.85 1.532 1.653.627 1.56.084 2.92-.734 3.812 1-.555 1.778-1.347 2.151-2.213.339-.787.345-1.601.015-2.417-.347-.866-.964-1.408-1.831-1.613-.843-.201-1.9-.062-3.048.4l-3.673 1.478Zm3.637 10.936-.16-.395.747-1.31-3.437-8.545-1.446-.43-.16-.394 4.329-1.742c1.234-.497 2.38-.641 3.312-.42.997.235 1.735.883 2.133 1.872.369.916.362 1.867-.02 2.752-.507 1.18-1.686 2.228-3.15 2.804l-.202.079-.214-.534.138-.1c.985-.716 1.895-2.155 1.212-3.857-.28-.693-.727-1.181-1.296-1.415-.576-.237-1.27-.204-2 .09l-.397.16 3.516 8.736 1.64.351.16.405-4.705 1.893ZM145.532 172.122l-.058-.086.46-1.437-5.237-7.827-1.504-.123-.057-.087 3.682-2.464.058.086-.46 1.437 5.237 7.828 1.503.122.059.087-3.683 2.464" fill="#121B2C"/><path d="m139.663 162.47 1.156.094 5.353 8-.353 1.105 2.868-1.918-1.156-.095-5.353-8.001.353-1.104-2.868 1.918Zm5.81 9.951-.238-.352.46-1.436-5.12-7.654-1.504-.123-.235-.355 4.042-2.703.236.353-.46 1.436 5.12 7.654 1.505.122.237.355-4.042 2.703ZM154.874 153.773l1.538 3.313 1.904-1.98-3.442-1.333Zm2.661 9.238.023-1.377-4.785-10.388.253-.264 10.807 4.128 1.375-.075.075.072-3.024 3.142-.075-.071.155-1.515-3.268-1.263-2.325 2.416 1.448 3.106 1.557-.214.075.071-2.216 2.305-.075-.073Z" fill="#121B2C"/><path d="m155.298 154.169 1.178 2.538 1.458-1.515-2.636-1.023Zm1.05 3.295-1.898-4.088 4.248 1.646-2.35 2.442Zm-3.317-6.175 4.744 10.3-.017 1.028 1.57-1.633-1.262.174-1.58-3.385 2.529-2.627 3.558 1.375-.126 1.22 2.375-2.468-1.023.056-.043-.017-10.673-4.076-.052.053Zm4.586 12.1-.3-.286.023-1.423-4.827-10.479.456-.473.133.051 10.766 4.112 1.423-.078.298.288-3.324 3.455-.306-.295.148-1.455-2.98-1.152-2.122 2.205 1.318 2.827 1.501-.207.31.293-2.517 2.617ZM166.524 143.953c-2.803-1.605-3.958-5.149-2.007-8.555.742-1.297 1.736-2.37 2.157-2.79l1.975 1.13-.052.092c-1.233.194-2.749.849-3.507 2.175-1.105 1.93-.058 4.472 2.384 5.87 2.79 1.596 5.574.928 6.67-.987.932-1.628.3-3.391-.023-4.156l.053-.09 1.854 1.061c-.05.612-.31 2.044-1.225 3.643-1.787 3.12-5.142 4.402-8.279 2.607" fill="#121B2C"/><path d="M166.632 143.765c2.902 1.663 6.182.619 7.983-2.527.896-1.567 1.127-2.935 1.183-3.416l-1.312-.751c.533 1.493.483 2.812-.154 3.925-1.242 2.17-4.238 2.628-6.965 1.066-1.225-.7-2.154-1.71-2.616-2.84-.47-1.153-.417-2.334.15-3.324.826-1.444 2.388-1.998 3.24-2.199l-1.43-.82c-.398.412-1.31 1.412-2.006 2.626-.903 1.576-1.165 3.233-.758 4.791.384 1.465 1.337 2.697 2.685 3.469Zm2.839 1.223c-1.016 0-2.056-.275-3.054-.847-1.45-.83-2.477-2.157-2.89-3.736-.429-1.646-.145-3.463.802-5.116.802-1.4 1.881-2.523 2.192-2.834l.117-.117 2.306 1.32-.21.37-.103.016c-.56.088-2.455.5-3.353 2.069-.5.873-.544 1.918-.126 2.945.425 1.041 1.289 1.975 2.43 2.628 2.515 1.439 5.254 1.05 6.374-.905.625-1.093.613-2.427-.035-3.966l-.042-.1.216-.368 2.16 1.237-.011.137c-.035.422-.227 1.94-1.253 3.732-1.311 2.29-3.362 3.535-5.52 3.535Z" fill="#121B2C"/></g></svg>