<svg width="200" height="200" xmlns="http://www.w3.org/2000/svg"><g fill="none"><path d="M150.08 147.877c26.807-28.077 44.772-64.667 49.406-105.315-26.986-16.316-61.77-26.145-99.744-26.145-37.973 0-72.757 9.83-99.742 26.144 4.632 40.648 22.6 77.24 49.406 105.32l-.934 28.016 20.47-10.301a182.949 182.949 0 0 0 30.793 19.562 182.912 182.912 0 0 0 30.804-19.564l20.474 10.303-.933-28.02" fill="#D3D4D3"/><path d="M99.742 169.202c-5.84-3.113-11.48-6.671-16.903-10.599l-8.15 4.101c7.339 5.617 15.088 10.582 23.187 14.741l1.866.959 1.866-.959c8.1-4.16 15.849-9.124 23.187-14.74l-8.149-4.102c-5.422 3.928-11.064 7.486-16.904 10.6" fill="#C31E25"/><path d="M111.322 155.925l-11.58-5.828-11.58 5.828c3.741 2.601 7.6 5.028 11.58 7.237 3.981-2.21 7.84-4.636 11.58-7.237m-68.117-48.881c2.97 4.96 6.15 9.753 9.533 14.278l-.004-31.236h-9.193l-.336 16.958m-8.102-52.987H22.185c1.486 7.253 3.61 14.665 6.289 22.037h6.095l.534-22.037m9.151 0l-.436 22.037h8.914l-.003-22.037h-8.475" fill="#223C6F"/><path d="M44.45 44.143l-.196 9.914h8.475l-.001-12.298c-2.78.73-5.54 1.527-8.278 2.384m-9.183 3.152a177.235 177.235 0 0 0-13.333 5.581c.076.392.17.788.25 1.18h12.919l.164-6.761" fill="#C31E25"/><path d="M35.267 47.295l-.164 6.762h9.151l.196-9.914a182.122 182.122 0 0 0-9.183 3.152" fill="#FFF"/><path d="M34.569 76.094h-6.095a178.817 178.817 0 0 0 5.756 13.951l.339-13.951m8.972 13.992h9.193l-.002-13.992h-8.914l-.277 13.992" fill="#C31E25"/><path d="M34.23 90.045a.39.39 0 0 0 .02.041h9.291l.277-13.992h-9.25l-.338 13.951" fill="#FFF"/><path d="M99.732 141.753l42.37 20.866V27.18a183.947 183.947 0 0 0-42.37-4.926 183.942 183.942 0 0 0-42.369 4.926v135.44l42.37-20.866" fill="#C31E25"/><path fill="#FFF" d="M60.696 49.494L73.817 60.61l38.816-14.22V74.5l-18.195 6.599v-16.59L75.09 71.506v68.887l19.348-9.876V96.825l8.974-3.303 11.11 46.236 17.694-9.03-11.343-43.63 11.1-4.086-.001-40.06-20.617-12.449-50.659 18.991"/><path fill="#D3D4D3" d="M73.817 60.61l38.816-14.22-8.864-5.36-37.124 13.504 7.172 6.076m47.936 10.587l-9.12 3.302V46.39l9.12 5.5v19.307m-18.341 22.325l8.198-3.017 12.23 44.498-9.318 4.755-11.11-46.236M75.09 71.506l9.917-3.587v60.84l9.43 1.758-19.347 9.876V71.506m90.833 82.888h-1.06V151.3h-.116l-.973 2.165h-.744l-.983-2.203h-.143v3.132h-1.006v-3.957h1.722l.799 1.934.83-1.934h1.674v3.957zm-5.654-3.1h-1.131v3.1h-1.066v-3.1h-1.132v-.857h3.33v.857z"/><path d="M156.28 107.044c-2.97 4.96-6.15 9.753-9.532 14.278l.003-31.236h9.193l.336 16.958m8.103-52.987H177.3c-1.486 7.253-3.61 14.665-6.288 22.037h-6.095l-.534-22.037m-9.152 0l.436 22.037h-8.914l.003-22.037h8.475" fill="#223C6F"/><path d="M155.035 44.143l.196 9.914h-8.475l.001-12.298c2.78.73 5.54 1.527 8.278 2.384m9.183 3.152a177.256 177.256 0 0 1 13.334 5.581c-.077.392-.17.788-.252 1.18h-12.917l-.165-6.761" fill="#C31E25"/><path d="M164.218 47.295l.165 6.762h-9.152l-.196-9.914c3.093.968 6.153 2.023 9.183 3.152" fill="#FFF"/><path d="M164.917 76.094h6.095a178.927 178.927 0 0 1-5.757 13.951l-.338-13.951m-8.973 13.992h-9.193l.002-13.992h8.914l.277 13.992" fill="#C31E25"/><path d="M165.255 90.045l-.019.041h-9.292l-.277-13.992h9.25l.338 13.951" fill="#FFF"/><path d="M6.766 45.43S27 33.95 53.41 27.734l-.283 8.494S35.657 40.19 15.735 50.01c0 0 4.63 38.932 34.37 76.906l-.41 12.264S13.989 101.874 6.767 45.43m185.953 0s-20.232-11.48-46.643-17.696l.283 8.494s17.47 3.963 37.392 13.783c0 0-4.63 38.932-34.37 76.906l.41 12.264s35.707-37.307 42.929-93.75" fill="#C31E25"/></g></svg>