<svg width="200" height="200" xmlns="http://www.w3.org/2000/svg"><g fill-rule="nonzero" fill="none"><path d="M173.798 170.967h-26.12l-27.72-75.744h-9.52v81.863h14.313v17.986H75.396V177.18h13.061V95.223h-29.1v57.433h9.911v17.94H24.442v-17.94H38.95V23.33H24.905V4.417h117.797l25.715 25.715V67.48l-.203.202-27.027 27.026 21 57.948h11.611v18.31Zm-10.27-20.221-20.129-55.547 26.161-26.16.77-.765V29.341L143.492 2.506h-120.5V25.24H37.04v125.505H22.53v21.764h48.647v-21.764H61.27v-53.61h25.276v78.13H73.482v21.715h53.182v-21.804h-14.313v-78.04h6.27l27.72 75.741h29.37v-22.132h-12.183Zm-16.954-90.523L134.157 72.64h-21.909V61.735h14.203V38.709H73.98v23.026h12.703V72.64h-25.38V25.012h72.89l12.38 12.379v22.832Zm1.91-23.625-13.497-13.5H59.393v51.454h29.204V59.824H75.894V40.62h48.644v19.204h-14.2v14.728h24.612l13.534-13.54V36.598Z" fill="#FFF"/><path d="m57.968 131.325-17.626 16.53v6.194H33.74l-7.905 7.414v7.742h42.041V154.05h-9.907v-22.724Zm103.243 22.724L139.579 94.35l27.447-27.45v-36.19l-.857-.858-16.293 15.28V61.59l-.205.201-14.146 14.15h-18.502L89.848 101.43v77.141h-13.06v15.11h46.573v-15.202H109.05V93.834h11.88l27.72 75.743h23.759v-15.528H161.21Z" fill="#74B4E6"/><path d="M172.407 169.577H148.65l-27.72-75.743h-11.881v84.642h14.312v15.204H76.786v-15.11h13.062v-77.141l27.175-25.487h18.5l14.15-14.148.202-.203V45.132l16.293-15.279.858.857V66.9l-27.448 27.45 21.634 59.699h11.195v15.528ZM59.392 74.552V23.1h75.595l13.498 13.497v24.416l-13.536 13.54h-24.613v-14.73h14.203V40.62H75.892v19.201h12.704v14.73H59.392Zm8.485 79.497v15.156H25.833v-7.742l7.906-7.414h6.602v-6.193l17.626-16.53v22.723h9.91Zm73.309-59.34 27.027-27.028.205-.202V30.134L142.701 4.418H24.906v18.914h14.045v129.327H24.44v17.94h44.825v-17.94h-9.908V95.226h29.1v81.954H75.394v17.892h49.359V177.09H110.44V95.226h9.517l27.72 75.74h26.12V152.66h-11.611l-21-57.95Zm34.523 78.171h-29.37l-27.717-75.744h-6.272v78.04h14.313v21.806h-53.18v-21.715h13.062v-78.13H61.27v53.609h9.909v21.762H22.53v-21.762h14.507V25.242H22.993V2.508h120.5l26.835 26.832v38.936l-.77.763-26.16 26.16 20.128 55.547h12.183v22.134ZM63.502 148.516V99.368h20.81v73.667H73.411v-24.52h-9.909Zm101.59 0-19.112-52.74 25.15-25.152 1.432-1.417V28.415L144.417.274H20.762v27.199h14.045v121.043h-14.51v26.224H71.18l.072 24.472h57.645v-26.268h-14.313V99.368h2.478l27.72 75.741h33.162v-26.593h-12.85Zm-80.64-84.55v6.442H63.537V27.241h69.734l11.071 11.074v20.982l-11.108 11.111h-18.752v-6.442h14.202v-27.49H71.748v27.49h12.705Zm-10.47-25.258h52.467v23.025h-14.2v10.908h21.909l12.415-12.419V37.39l-12.377-12.38h-72.89v47.632h25.377V61.733H73.982V38.708Z" fill="#15213B"/><path fill="#15213B" d="M133.03 196.519h-.898v-.632h2.556v.632h-.91v2.693h-.748v-2.693M137.88 197.94c-.015-.4-.03-.877-.03-1.366h-.01a20.91 20.91 0 0 1-.374 1.288l-.405 1.297h-.588l-.355-1.283c-.11-.392-.216-.862-.3-1.302h-.01c-.015.448-.035.963-.055 1.378l-.064 1.26h-.695l.212-3.325h1.002l.324 1.116c.11.383.207.795.283 1.183h.018c.09-.384.204-.819.316-1.193l.35-1.106h.988l.177 3.325h-.73l-.054-1.271"/></g></svg>