<svg width="200" height="200" xmlns="http://www.w3.org/2000/svg"><g fill="none"><path d="M174.39 170.967h-26.12l-27.72-75.744h-9.52v81.863h14.313v17.986H75.988V177.18h13.061V95.223h-29.1v57.433h9.911v17.94H25.034v-17.94h14.508V23.33H25.497V4.417h117.797l25.715 25.715V67.48l-.203.202-27.027 27.026 21 57.948h11.611v18.31zm-10.27-20.221l-20.13-55.547 26.161-26.16.77-.765V29.341L144.084 2.506h-120.5V25.24H37.63v125.505H23.122v21.764H71.77v-21.764h-9.907v-53.61h25.276v78.13H74.074v21.715h53.182v-21.804h-14.313v-78.04h6.27l27.72 75.741h29.37v-22.132H164.12zm-16.954-90.523L134.75 72.64h-21.91V61.735h14.203V38.709h-52.47v23.026h12.703V72.64h-25.38V25.012h72.89l12.38 12.379v22.832zm1.91-23.625l-13.497-13.5H59.985v51.454H89.19V59.824H76.486V40.62h48.644v19.204h-14.2v14.728h24.612l13.534-13.54V36.598z" fill="#FFF"/><path d="M58.56 131.325l-17.626 16.53v6.194h-6.603l-7.905 7.414v7.742h42.041V154.05H58.56v-22.724zm103.243 22.724L140.171 94.35l27.447-27.45V30.71l-.857-.858-16.293 15.28V61.59l-.205.201-14.146 14.15h-18.502L90.44 101.43v77.141H77.38v15.11h46.573v-15.202h-14.312V93.834h11.88l27.72 75.743H173v-15.528h-11.197z" fill="#74B4E6"/><path d="M173 169.577h-23.76l-27.72-75.743h-11.88v84.642h14.312v15.204H77.378v-15.11H90.44v-77.141l27.175-25.487h18.501l14.149-14.148.202-.203V45.132l16.293-15.279.858.857V66.9L140.17 94.35l21.634 59.699h11.195v15.528zM59.983 74.552V23.1h75.595l13.498 13.497v24.416l-13.536 13.54h-24.613v-14.73h14.203V40.62H76.484v19.201h12.704v14.73H59.984zm8.485 79.497v15.156H26.425v-7.742l7.906-7.414h6.602v-6.193l17.626-16.53v22.723h9.91zm73.309-59.34l27.028-27.028.204-.202V30.134L143.293 4.418H25.498v18.914h14.045v129.327h-14.51v17.94h44.825v-17.94H59.95V95.226h29.1v81.954H75.986v17.892h49.359V177.09h-14.313V95.226h9.517l27.72 75.74h26.12V152.66h-11.611l-21-57.95zM176.3 172.88h-29.37l-27.717-75.744h-6.271v78.04h14.312v21.806h-53.18v-21.715h13.062v-78.13H61.862v53.609h9.909v21.762H23.123v-21.762H37.63V25.242H23.585V2.508h120.5L170.92 29.34v38.936l-.77.763-26.16 26.16 20.128 55.547h12.183v22.134zM64.094 148.516V99.368h20.81v73.667H74.003v-24.52h-9.909zm101.59 0l-19.112-52.74 25.15-25.152 1.432-1.417V28.415L145.01.274H21.354v27.199H35.4v121.043H20.89v26.224h50.882l.072 24.472h57.645v-26.268h-14.313V99.368h2.478l27.72 75.741h33.162v-26.593h-12.85zm-80.64-84.55v6.442H64.129V27.241h69.734l11.071 11.074v20.982l-11.108 11.111h-18.752v-6.442h14.202v-27.49H72.34v27.49h12.705zm-10.47-25.258h52.467v23.025h-14.2v10.908h21.909l12.415-12.419V37.39l-12.377-12.38h-72.89v47.632h25.377V61.733H74.574V38.708z" fill="#15213B"/><path fill="#15213B" d="M133.622 196.519h-.898v-.632h2.556v.632h-.91v2.693h-.748v-2.693m4.85 1.421c-.015-.4-.03-.877-.03-1.366h-.01a20.91 20.91 0 0 1-.374 1.288l-.405 1.297h-.588l-.355-1.283c-.11-.392-.216-.862-.3-1.302h-.01c-.015.448-.035.963-.055 1.378l-.064 1.26h-.695l.212-3.325h1.002l.324 1.116c.11.383.207.795.283 1.183h.018c.09-.384.204-.819.317-1.193l.349-1.106h.988l.178 3.325h-.731l-.054-1.271"/></g></svg>