<svg width="200" height="200" xmlns="http://www.w3.org/2000/svg"><g fill="none"><path d="M171.207 113.969c-.906-1.564-2.157-3.574-2.157-3.574l-2.199-2.059-1.198-2.961s-.967-1.732-2.542-2.504c-1.575-.773-3.881-2.046-3.881-2.046s-1.302-1.617-2.606-3.794c-1.305-2.178-2.714-3.007-2.714-3.007l-1.683-.55-3.268-1.881-.458-1.342-3.57-1.356 1.108-1.107-4.183-1.638-3.137.135s.554-1.125-1.357-1.785c-1.914-.657-4.264-.417-4.264-.417s-.626-1.285-3.204-1.153c-2.58.13-7.165 1.508-7.165 1.508l-1.802-.884-7.448 2.683s.09-.861 2.215-1.772c2.122-.912 4.036-3.874 5.095-4.61 1.06-.737 1.44-2.925 1.44-2.925s1.845-.63 3.006-2.713c1.16-2.082 2.641-3.485 2.641-3.485l-1.44-.672 1.67-1.694s.606-1.517.934-2.753c.326-1.235 1.554-2.03 1.554-2.03l1.553-2.59s-.573-1.678-1.24-.888c-.67.79-.536-.595-.536-.595l1.631-2.776 1.412-1.95 1.55-3.544-1.993 1.108s.61-1.96.435-3.023c-.175-1.065-.01-1.683.149-2.86.16-1.18-.694-2.574-.694-2.574l.772-2.136-.066-1.29-.846-.834-1.097-4.309.425-3.142-.243-2.913-.241-2.354.27-1.402-.578-2.238-.737-1.06.088-.739s-.074-1.244-1.846-1.465c.718-.974-.18-2.38-.18-2.38l-2.703-5.603-.707 1.652-.024 2.127.523 2.631-.045 1.513s-.829 1.408-.37 2.75c.457 1.342 1.927 4.702 1.927 4.702s-.72 1.182-.645 3.592c.073 2.41.838 6.154.838 6.154l.14 3.699.63 3.085s-1.35-.102-.997 2.025c.352 2.128.284 4.177.284 4.177s-1.608 1.42-2.05 2.32c-.442.9-.797 3.556-.797 3.556s-1.891.344-1.483 2.64c.408 2.295-.372 2.748-.372 2.748l-2.169 2.426s-.11 1.908-.438 3.144c-.329 1.235-2.215 4.208-2.215 4.208s-1.398.29-1.784 1.358c-.382 1.069-.379 1.629-.379 1.629s-.903-1.003-1.566.347c-.666 1.35-1.215 3.036-1.215 3.036s-1.29.066-2.007 1.248c-.724 1.183-2.574 1.464-2.574 1.464l1.772-2.88-.332-2.208-.405-1.736 1.535-3.591s-.226-1.35-.286-2.079c-.062-.728 1.482-2.347 1.482-2.347s-.446-1.752-.684-3.545c-.237-1.791-.36-3.248-.36-3.248s.22-4.106-.064-4.946c-.287-.84-.525 1.026-.525 1.026l-.63-1.846-.576-2.238-1.53-2.288.603-2.077-1.077-1.507-1.088-3.187s.602-2.079-.303-3.082c-.907-1.001-1.635-1.502-1.635-1.502s-.068-1.287-.528-3.19c-.464-1.903-.751-2.741-1.595-3.577-.847-.834-1.973-1.387-1.973-1.387l-1.88-4.416-.015-1.17s-.006-.528-1.47-1.525c-1.467-.999-2.306-1.817-2.306-1.817s.16-1.179-.858-2.517c-1.018-1.34-2.308-1.273-2.308-1.273l-.808-1.806s-.202-2.275-1.426-2.485c-.665 1.108-1.531-1.499-1.531-1.499L85.61 8.927s.557-.565-.63-1.845c-1.185-1.282-3.213-2.276-3.213-2.276s-1.859-1.613-2.425-2.168c-.564-.557-1.78-1.248-1.78-1.248s-2.23-.063-1.887.944c.343 1.006.305.328 1.204.769.9.443 2.75 3.57 2.75 3.57l2.786 2.22.18 1.107s.028 1.402.649 2.127c.624.724.971 2.291 1.535 2.847.566.557 1.516.606 1.516.606s1.003 1.656 1.796 2.883c.795 1.228 1.248 2.01 2.266 3.347 1.02 1.339 1.549 1.97 1.549 1.97l.962 1.17s-.388.508.291 1.4c.679.892 1.303 2.177 1.303 2.177s.403 1.174 1.303 1.616c.9.442.85 1.395.85 1.395s.286.84 1.194 2.402c.909 1.564 1.88 3.854 1.88 3.854s-1.73-.965-1.273.378c.46 1.341 2.658 4.094 2.658 4.094l.472 1.416s-.286 2.006.114 3.18c.4 1.175 1.473 2.12 1.473 2.12l.58 2.799s-.726.622-.605 1.518c.118.896.799 1.963.799 1.963v2.36s-.591 1.224-.306 2.064c.286.838.43.862.778 2.428.348 1.567-.402 3.063-.402 3.063s-1.173.4-1.224 1.355c-.048.952.132 2.577.132 2.577s-.104 1.347-.208 2.132c-.107.785.343 1.006-.325 1.796s-.663 1.35-.261 2.524c.4 1.175-.166 2.2-.166 2.2s-.525-.895-1.37-2.235c-.907-1.435-3.403-2.364-3.403-2.364l.986-1.496.72-1.82-.02-2.165.16-1.179-.512-.949-1.224-3.843s-1.6-.895-2.215-1.329c-1.883-1.329-1.55.886-1.55.886l1.107 1.107s.59 1.033.49 2.378c-.103 1.346-.462.983.22 2.436.684 1.453-1.602 4.678-1.602 4.678s-.8-1.15-2.703-.688c-1.904.463-1.796 2.08-1.796 2.08l-1.443-1.237-2.201-1.51s-.157-1.934-.554-2.548c-.396-.614-.319-1.78-.319-1.78l.222-3.1-1.507.135s-1.22 1.761-1.55 2.436c-.332.676-.183 1.142-.065 2.038.119.896.691 2.573.691 2.573l-.498.732s.457 1.342 1.42 2.513c.96 1.17 2.27 2.206 2.27 2.206l.444 1.329s-.782 1.411-1.44 3.322c-.66 1.911.237 3.876-.665 3.434-.9-.442-2.4-1.813-2.4-1.813l-1.195-2.401s.328-1.236-.743-2.182c-1.072-.945-1.971-1.388-1.971-1.388s.104-.785-.85-1.395c-.96-.61-2.138-.769-2.138-.769s.495-1.293-.35-2.128c-.848-.835-1.467-.998-1.467-.998l-1.366-2.905s-.853-1.883-1.647-3.112c-.796-1.226-.583-2.87-.583-2.87l-.972-2.854s.604-1.517-.026-3.361c-.63-1.846-2.262-2.787-2.262-2.787s.885-1.8.485-2.976c-.4-1.174-1.593-3.015-1.593-3.015l-.307-3.642.293-1.883s.401-1.194 0-2.368a77.08 77.08 0 0 0-.902-2.472l.042-2.074.27-1.403-1.071-.946-.124-1.456s.613-.397.263-2.526c-.351-2.127-1.82-3.684-1.82-3.684l-.19-2.746.716-1.745s-.923-2.033-.26-3.382c.663-1.351.187-1.532.237-2.486.05-.955.716-3.076.716-3.076s1.548-3.866-1.424-1.416l-.944 2.832-.749 2.198-.343 2.342-.426 3.143-1.314 3.305.943 2.368.212 3.372-.132 2.543.759 1.489-.954 2.324-.992-.609 1.547 5.164.017 2.242.462 2.09.539 2.313.241 2.166-.355 2.619.428 3.12 1.06 4.24-1.503-.475 1.994 3.101.934 3.28.856 1.433.758 1.488.754.742.24 2.165.839 2.46L68.434 75l.83.967.162 1.942.758 1.49.988 2.16.975.665.459 1.343 1.21 2.084 2.4 1.179 1.823 2.951-2.437.222-2.215-.222-3.544-1.329-.431 1.306-2.596-1.424-1.87.595s-.758-1.49-2.036-2.303c-1.276-.812-2.171-.507-2.171-.507l-.441.9-4.44-4.228-1.094 1.295s-1.007-2.327-1.83-2.545c-.825-.219-4.124-1.84-4.124-1.84s.065-1.27-1.217-2.83a702.857 702.857 0 0 1-3.018-3.716l-1.139-2.609s-1.206-1.335-2.329-1.701c-1.126-.366-.835-1.715-.916-2.685-.081-.97-1.8-5.174-1.8-5.174l-.77 1.306-.905-1.189.218-.824-1.058-1.637-1.13-1.113-.687-2.013-1.134-1.86-1.592-3.204-1.137-1.334s.525-.454.22-1.35c-.305-.893-1.008-2.928-2.58-3.142-1.57-.212-.64 2.493-.64 2.493l.168 1.763.984 2.34.387 1.865 1.98 5.07-.361 1.87s.836 1.713 1.735 2.155c.9.442 1.43 1.261 1.43 1.261l.829.965-.285 2.095s.535 1.567.987 2.16c.455.596.982 1.414.982 1.414l1.282 1.56 1.053.89.993 2.908 1.36 1.783 2.109 2.527s1.125.365 1.13 1.113c.003.748-1.581.506-1.581.506s1.898 1.884 3.25 2.92c1.352 1.038 3.17 4.164 3.17 4.164l.825.217 1.133 1.86 1.652 1.185 4.803 2.357 1.193-.158s-.023 1.46 1.324 1.749c1.347.29 3.783.48 3.783.48l2.124.708s.917 1.262 1.889 1.18c.972-.082 3.547-.472 3.547-.472l5.196-.02-7.091 3.56-.473 1.652-2.831 2.132s-1.846 1.847-2.062 2.67c-.219.825-1.108 1.876-1.108 1.876l-1.708 1.583-1.637 1.059-1.555 2.03L55 116.921c-1.547.325-.155 1.68-.82 2.655-.666.976-2.97 3.012-3.935 3.841-.966.83-.812 1.277-.582 1.948l.227.67-.96 1.575.458 1.343.082.972-1.178 2.402c-.442.898-1.702 2.329-1.702 2.329s-.29 1.346.017 2.241c.303.895.905 1.19.905 1.19l-1.186 1.652s-.441.899.165 1.943c.604 1.042.834 1.713.834 1.713s-.58 2.696-1.175 3.148c-.593.452.16 1.195-.129 2.542-.289 1.347-.787 5.015-.787 5.015s-.289 1.345.018 2.24c.304.895 1.826 4.621 2.323.955.495-3.664-.11-4.707-.11-4.707l1.032-2.1.603-2.14s1.547-.345 1.988-1.243c.443-.9-.774-3.732.11-5.532a47.822 47.822 0 0 1 1.846-3.377l.952-2.324-.315-2.39s.963-1.575 1.85-2.629c.89-1.053 1.55-2.776 1.55-2.776s1.348.29 1.488-.758c.143-1.05.487-5.162.487-5.162s1.119 1.826 1.706.626c.59-1.2 1.41-3.937 2.38-4.02.972-.08 2.537-.616 3.345-2.639.808-2.023.955-2.325 1.78-2.106.823.218 1.628-1.566 2.905-3.639 1.652-2.678 3.544-2.436 3.544-2.436l5.76-3.766s-1.697 2.632-2.659 4.209c-.96 1.576-2.178 1.636-2.879 4.208 2.473-.8-1.724 3.48-1.72 4.229.007.747-1.608 4.794-1.608 4.794s-.743.753-.36 1.872a9.784 9.784 0 0 1 .463 2.09l-1.833 4.873s-.22.823-.213 1.57c.006.746.31 1.641.31 1.641l-.508 2.173s-.812 1.277-.655 2.47c.159 1.195.841 2.461.841 2.461s-.136 1.794-.055 2.768c.083.971.608 2.175.608 2.175l-.644 3.966-.35 3.366s-.5 1.188.63 2.302c1.128 1.112 1.19 1.572 1.19 1.572l.138 2.636c1.108 1.33 1.966 3.181.816 4.145l1.147 3.355 1.357 1.784-.219 3.785 1.33-1.55.808 4.852.987 2.16 1.73 1.41-.212 1.569 1.057 1.637.976.666.69 2.012c.304.897.985 2.162.985 2.162l.764 2.238.607 1.04 1.35 1.039.383 1.118s.61 1.787 1.14 2.608c.53.817 1.398 1.51 1.398 1.51l3.24 3.64s3.66-.25 1.702-2.33c-1.959-2.077-3.91-3.41-3.91-3.41l.32-1.6-.38-1.115-.683-1.268-1.284-1.56.22-.825-1.298-3.801-.83-.966-1.674-4.174-.677-.52-1.614-6.19s1.2.589.513-1.425c-.687-2.011-1.368-3.277-1.368-3.277s-1.67-3.428-1.603-4.699c.065-1.271.871-3.296.26-5.085l-1.373-4.025s1.696 1.709 1.762.439c.066-1.271-2.03-6.342-2.03-6.342l.66-1.723s1.785-1.361.503-2.92c-.535-.65-.78-.874-.889-.918l.128-.946.041-2.075.433-2.02.836-.848.213-1.57.782-.453-.185-2.185.394-2.808.886-3.323.886-2.215.22-2.772s.953.048 1.057-1.296c.102-1.348.91-4.318.91-4.318l1.383-2.29c-.247.709 1.025 1.824 1.369 2.833.343 1.004.976 1.909.976 1.909l.35 1.661s1.622 1.887 2.238 2.051c.618.164.79 1.449 1.465 1.78.675.333 1.54 1.445 1.54 1.445l1.969-.058s.12.895 1.243 1.449c1.126.55 2.186-.186 2.186-.186s.572 1.646 1.523 1.695c.952.048 2.835 1.192 2.835 1.192l2.587.163 4.28-1.27c1.565-.431 2.88-2.659 2.88-2.659l.22-1.312 1.994-1.346.457-1.994.668-1.564 1.09-1.98.73-2.66s.606-3.083.6-4.206c-.01-1.12-.767-2.197-.665-3.544.103-1.345-.565-3.17.444-2.954 1.01.216 1.923.112 2.662 1.173.735 1.06 1.314.466 1.825 1.416.512.95 1.91.66 1.91.66l1.703 2.789s1.072.946 1.69 1.108c.617.166 1.132 1.675 1.132 1.675s1.122-.007 1.51-.515c.39-.508 1.178.16 1.178.16s.177 1.063.967 1.73 2.193.937 2.193.937.63 1.847.97 2.29c.338.449.793 1.23 1.636 1.503.843.275 1.289-.065 1.289-.065s.46 1.904 1.085 2.626c.621.726 1.752 1.839 1.752 1.839s.4 1.173 1.015 1.338l.62.162 1.363 2.347s.843.272 1.071.944c.229.67 1.82 3.687 2.28 5.03.458 1.34.416 3.416.416 3.416s1.305 2.177 1.423 3.072c.118.897-.824 2.53-.824 2.53s.743 1.618 1.028 2.458c.286.84.468 2.465.468 2.465s-1.173.96-.995 2.023c.174 1.065.692 2.573.692 2.573s-.436 2.023-.04 2.636c.4.615 1.861 1.613 1.861 1.613s-.877 2.36-.48 3.535c.405 1.174.867 3.078.867 3.078l.75 2.739-.493 1.855-.328 1.234.699 3.696-.667.79-.425 3.142.522 2.631-.65 3.031s-.211 1.573 1.02 1.902c1.238.327 1.567-.91 1.724-2.087.16-1.179.701-3.987.701-3.987l.874-3.482-.518-1.508.45-7.46-.46-1.903.55-1.125-.804-2.91 1.55.124-1.412-4.666-.694-2.572s1.736-.406 1.5-1.638l-.861-3.076-.465-2.464-.461-1.342.276-.842-.124-1.457.33-1.235-.235-1.233.378-2.188-1.305-2.178-.921-3.244-.734-.5.33-1.234-.52-2.073-1.063-1.504 1.329-.665c-.886-.886-1.33-3.544-2.33-4.43a53.082 53.082 0 0 1-2.767-2.614s-.339-.448-.627-1.287c-.287-.837.049-.951-.912-2.122-.964-1.17-1.463-.999-1.463-.999l-.18-1.062s.16-1.18-.966-2.293c-1.13-1.114-2.089-1.723-2.089-1.723l-.8-2.348-3.494-2.554s1.166-1.522-.804-2.349c-1.967-.826-4.045-1.429-4.045-1.429l-1.407-.83s.72-1.183-1.36-1.784c-2.079-.601-2.638-.597-2.638-.597l-1.128-1.114s.159.725-1.642-.159a20.439 20.439 0 0 0-3.466-1.315c-1.772-.222-4.766-1.025-2.605-1.24 0 0 1.513-1.726 4.148-1.689 2.634.037 3.636-.867 3.636-.867l2.187-.183 1.57.212s1.408.831 2.25 1.106c.842.274 2.452 1.047 3.126.819.667-.23 1.873.097 1.873.097s2.077.602 2.976 1.045c.9.443 1.628.38 2.357.318l.729-.061 2.981 1.603 1.647 2.624 1.23-.234 1.873 3.295 2.191.375 1.518.606s.285.84 1.415 1.953c1.13 1.114 2.476 1.217 2.476 1.217l1.248 2.006s.516 1.512 1.355 1.225l.837-.286 2.59 1.551s.124 1.456 1.195 2.403c1.072.944 1.46.437 1.46.437s.86 2.516 1.198 2.961c.342.448 2.035 3.859 3.041 3.514 1.006-.343.825-3.71-.083-5.271" fill="#D41041"/><path d="M163.29 185.042a2.432 2.432 0 1 1-4.864-.003 2.432 2.432 0 0 1 4.864.003" fill="#FFF"/><path d="M160.858 182.831c-1.218 0-2.21.992-2.21 2.21 0 1.219.992 2.21 2.21 2.21 1.22 0 2.211-.991 2.211-2.21 0-1.218-.991-2.21-2.21-2.21zm0 4.863a2.655 2.655 0 0 1-2.652-2.652 2.655 2.655 0 0 1 2.652-2.654 2.656 2.656 0 0 1 2.654 2.654 2.656 2.656 0 0 1-2.654 2.652z" fill="#D41041"/><path d="M160.21 184.912h.756c.16 0 .284-.015.374-.05a.407.407 0 0 0 .206-.158.427.427 0 0 0 .07-.238.392.392 0 0 0-.136-.308c-.09-.081-.234-.122-.43-.122h-.84v.876zm-.35 1.48v-2.65h1.175c.236 0 .416.025.538.073a.589.589 0 0 1 .295.251c.073.122.11.254.11.4a.664.664 0 0 1-.182.475c-.12.129-.309.211-.564.246a.998.998 0 0 1 .212.131c.102.095.2.212.29.354l.461.72h-.44l-.35-.55a5.133 5.133 0 0 0-.254-.366.805.805 0 0 0-.177-.177.487.487 0 0 0-.16-.07.94.94 0 0 0-.197-.013h-.406v1.176h-.35z" fill="#D41041"/></g></svg>