<svg width="200" height="200" xmlns="http://www.w3.org/2000/svg"><g fill-rule="nonzero" fill="none"><path d="M171.285 113.241c-.906-1.564-2.157-3.574-2.157-3.574l-2.199-2.058-1.198-2.962s-.967-1.731-2.542-2.504c-1.575-.772-3.881-2.046-3.881-2.046s-1.302-1.617-2.606-3.793c-1.305-2.178-2.714-3.008-2.714-3.008l-1.683-.55-3.268-1.88-.458-1.343-3.57-1.356 1.108-1.107-4.183-1.637-3.137.134s.554-1.125-1.357-1.784c-1.914-.658-4.264-.417-4.264-.417s-.626-1.285-3.204-1.154c-2.58.13-7.165 1.509-7.165 1.509l-1.802-.884-7.448 2.682s.09-.86 2.215-1.772c2.122-.911 4.036-3.873 5.095-4.61 1.06-.737 1.44-2.925 1.44-2.925s1.844-.63 3.006-2.713c1.16-2.082 2.641-3.485 2.641-3.485l-1.44-.671 1.67-1.694s.606-1.518.934-2.754c.325-1.235 1.554-2.029 1.554-2.029l1.553-2.59s-.574-1.679-1.24-.89c-.67.792-.536-.594-.536-.594l1.631-2.775 1.412-1.95 1.55-3.544-1.993 1.107s.61-1.96.435-3.023c-.175-1.065-.01-1.683.148-2.86.16-1.18-.693-2.574-.693-2.574l.771-2.136-.065-1.29-.846-.834-1.097-4.308.425-3.143-.243-2.912-.241-2.354.27-1.403-.578-2.238-.737-1.06.088-.738s-.074-1.244-1.846-1.466c.718-.974-.18-2.379-.18-2.379l-2.703-5.604-.707 1.653-.024 2.126.523 2.631-.045 1.514s-.829 1.408-.37 2.749c.457 1.342 1.927 4.702 1.927 4.702s-.72 1.182-.646 3.593c.074 2.41.839 6.153.839 6.153l.14 3.699.63 3.085s-1.35-.102-.997 2.025c.352 2.129.284 4.177.284 4.177s-1.608 1.42-2.051 2.32c-.441.9-.796 3.557-.796 3.557s-1.891.344-1.483 2.64c.408 2.295-.372 2.748-.372 2.748l-2.169 2.425s-.11 1.908-.438 3.144c-.33 1.235-2.215 4.208-2.215 4.208s-1.398.29-1.784 1.359c-.383 1.068-.38 1.628-.38 1.628s-.903-1.003-1.565.347c-.667 1.35-1.215 3.037-1.215 3.037s-1.29.065-2.008 1.247c-.723 1.183-2.573 1.464-2.573 1.464l1.772-2.88-.333-2.207-.405-1.736 1.535-3.592s-.225-1.35-.285-2.079c-.062-.728 1.482-2.347 1.482-2.347s-.446-1.752-.684-3.544a76.958 76.958 0 0 1-.36-3.248s.22-4.107-.064-4.947c-.287-.839-.525 1.027-.525 1.027l-.63-1.847-.576-2.238-1.53-2.287.603-2.078-1.077-1.507-1.088-3.187s.602-2.078-.303-3.081c-.907-1.002-1.635-1.502-1.635-1.502s-.068-1.288-.528-3.192c-.464-1.902-.751-2.74-1.596-3.575-.846-.835-1.972-1.388-1.972-1.388l-1.881-4.416-.014-1.17s-.006-.527-1.47-1.525c-1.467-.998-2.306-1.817-2.306-1.817s.16-1.178-.858-2.516c-1.018-1.34-2.308-1.274-2.308-1.274l-.808-1.806s-.202-2.274-1.426-2.484c-.665 1.107-1.531-1.5-1.531-1.5L85.689 8.2s.557-.564-.63-1.845c-1.185-1.282-3.213-2.276-3.213-2.276s-1.859-1.612-2.425-2.168c-.564-.557-1.78-1.247-1.78-1.247s-2.23-.064-1.887.943c.342 1.006.305.328 1.204.77.9.442 2.75 3.57 2.75 3.57l2.786 2.22.18 1.107s.028 1.402.648 2.126c.624.724.972 2.291 1.535 2.848.567.556 1.517.606 1.517.606s1.003 1.655 1.796 2.882c.794 1.228 1.248 2.01 2.266 3.347 1.02 1.34 1.548 1.97 1.548 1.97l.963 1.17s-.388.509.291 1.4c.679.892 1.303 2.177 1.303 2.177s.403 1.174 1.302 1.616c.901.442.85 1.396.85 1.396s.287.839 1.195 2.402c.909 1.563 1.88 3.854 1.88 3.854s-1.73-.965-1.273.377c.46 1.341 2.658 4.094 2.658 4.094l.472 1.416s-.286 2.006.114 3.18c.4 1.176 1.472 2.12 1.472 2.12l.58 2.799s-.725.623-.604 1.519c.118.895.799 1.962.799 1.962v2.36s-.591 1.225-.306 2.065c.286.838.43.86.778 2.427.347 1.568-.402 3.063-.402 3.063s-1.173.4-1.224 1.355c-.048.952.132 2.577.132 2.577s-.104 1.347-.208 2.132c-.107.785.343 1.007-.325 1.796-.668.79-.663 1.351-.261 2.524.4 1.175-.166 2.201-.166 2.201s-.526-.896-1.371-2.235c-.906-1.436-3.402-2.364-3.402-2.364l.986-1.497.72-1.82-.02-2.165.16-1.178-.512-.95-1.224-3.843s-1.6-.895-2.215-1.329c-1.883-1.329-1.55.886-1.55.886l1.107 1.108s.59 1.032.49 2.377c-.103 1.347-.462.983.22 2.436.684 1.453-1.603 4.679-1.603 4.679s-.799-1.151-2.702-.689c-1.904.463-1.796 2.08-1.796 2.08l-1.443-1.236-2.201-1.511s-.158-1.933-.554-2.547c-.396-.614-.319-1.78-.319-1.78l.222-3.101-1.507.135s-1.22 1.762-1.55 2.437c-.332.675-.183 1.141-.066 2.038.12.895.692 2.573.692 2.573l-.498.731s.457 1.343 1.42 2.513c.96 1.17 2.27 2.206 2.27 2.206l.444 1.33s-.783 1.41-1.44 3.322c-.66 1.91.237 3.875-.665 3.433-.9-.441-2.4-1.813-2.4-1.813l-1.195-2.4s.328-1.237-.743-2.183c-1.072-.945-1.971-1.388-1.971-1.388s.104-.785-.85-1.394c-.96-.61-2.138-.77-2.138-.77s.495-1.293-.351-2.127c-.847-.836-1.466-.999-1.466-.999l-1.366-2.905s-.853-1.883-1.648-3.112c-.795-1.226-.582-2.87-.582-2.87l-.972-2.853s.604-1.518-.026-3.362c-.631-1.846-2.262-2.787-2.262-2.787s.884-1.8.485-2.975c-.401-1.175-1.593-3.015-1.593-3.015l-.307-3.643.293-1.882s.401-1.195 0-2.369c-.4-1.174-.902-2.472-.902-2.472l.042-2.074.27-1.402-1.071-.946-.124-1.457s.613-.397.263-2.525c-.351-2.127-1.82-3.685-1.82-3.685l-.19-2.746.716-1.744s-.923-2.034-.26-3.383c.663-1.351.187-1.532.236-2.485.05-.955.716-3.076.716-3.076s1.549-3.867-1.423-1.416l-.944 2.831-.749 2.199-.343 2.341-.426 3.143-1.315 3.306.944 2.368.211 3.371-.13 2.543.758 1.49-.954 2.323-.993-.608 1.548 5.163.016 2.243.463 2.089.539 2.313.24 2.166-.355 2.62.429 3.119 1.06 4.24-1.503-.475 1.993 3.101.934 3.281.857 1.432.758 1.489.754.741.24 2.166.839 2.46 2.182 2.002.83.967.163 1.942.758 1.49.987 2.16.976.666.459 1.342 1.21 2.084 2.4 1.18 1.823 2.95-2.437.222-2.215-.222-3.544-1.329-.431 1.306-2.596-1.423-1.87.594s-.758-1.49-2.036-2.303c-1.276-.812-2.172-.506-2.172-.506l-.44.899-4.44-4.228-1.094 1.295s-1.007-2.326-1.83-2.544c-.825-.22-4.124-1.84-4.124-1.84s.065-1.27-1.217-2.83c-1.281-1.562-3.018-3.716-3.018-3.716l-1.139-2.61s-1.206-1.335-2.329-1.7c-1.126-.367-.835-1.715-.916-2.685-.081-.971-1.8-5.175-1.8-5.175l-.77 1.306-.905-1.189.218-.824-1.058-1.637-1.13-1.113-.687-2.013-1.134-1.86-1.592-3.203-1.137-1.334s.525-.455.22-1.35c-.305-.894-1.008-2.929-2.58-3.142-1.57-.213-.64 2.493-.64 2.493l.168 1.763.984 2.339.387 1.866 1.98 5.069-.361 1.87s.836 1.713 1.735 2.156c.9.442 1.43 1.26 1.43 1.26l.829.965-.285 2.096s.535 1.566.987 2.16c.455.595.982 1.414.982 1.414l1.282 1.56 1.053.89.993 2.907 1.36 1.784 2.109 2.527s1.125.365 1.13 1.113c.003.747-1.582.505-1.582.505s1.898 1.884 3.251 2.92c1.352 1.038 3.17 4.164 3.17 4.164l.825.217 1.133 1.86 1.652 1.185 4.803 2.358 1.193-.159s-.023 1.461 1.324 1.75c1.347.289 3.783.48 3.783.48l2.124.707s.917 1.262 1.889 1.18c.971-.082 3.547-.472 3.547-.472l5.196-.02-7.092 3.56-.472 1.652-2.831 2.132s-1.846 1.847-2.062 2.67c-.22.825-1.109 1.877-1.109 1.877l-1.708 1.582-1.637 1.059-1.555 2.03-2.802 2.826c-1.547.325-.154 1.68-.82 2.655-.665.977-2.969 3.012-3.935 3.841-.965.83-.811 1.277-.582 1.948l.228.67-.96 1.576.458 1.343.082.972-1.178 2.402c-.442.897-1.702 2.328-1.702 2.328s-.29 1.346.016 2.242c.304.895.905 1.189.905 1.189l-1.185 1.652s-.441.9.164 1.943c.605 1.042.835 1.714.835 1.714s-.58 2.696-1.175 3.148c-.593.451.16 1.194-.13 2.541-.288 1.347-.786 5.015-.786 5.015s-.289 1.345.017 2.24c.305.896 1.827 4.622 2.324.955.495-3.663-.11-4.706-.11-4.706l1.032-2.1.603-2.14s1.546-.345 1.988-1.244c.443-.9-.774-3.732.11-5.532.885-1.801 1.846-3.377 1.846-3.377l.951-2.323-.314-2.39s.963-1.575 1.85-2.63c.89-1.053 1.55-2.775 1.55-2.775s1.348.288 1.488-.759c.143-1.049.486-5.162.486-5.162s1.12 1.827 1.707.627c.59-1.2 1.41-3.937 2.38-4.02.972-.081 2.537-.617 3.345-2.64.808-2.023.955-2.324 1.779-2.105.824.218 1.629-1.567 2.906-3.64 1.652-2.678 3.544-2.436 3.544-2.436l5.76-3.765s-1.697 2.631-2.659 4.208c-.96 1.577-2.178 1.636-2.88 4.209 2.474-.801-1.723 3.48-1.719 4.228.007.748-1.608 4.794-1.608 4.794s-.744.754-.36 1.872a9.784 9.784 0 0 1 .463 2.091l-1.834 4.872s-.218.823-.212 1.57c.006.746.31 1.642.31 1.642l-.508 2.172s-.812 1.277-.656 2.47c.16 1.196.842 2.462.842 2.462s-.137 1.794-.055 2.768c.083.97.607 2.175.607 2.175l-.644 3.965-.349 3.366s-.5 1.188.63 2.302c1.128 1.112 1.19 1.573 1.19 1.573l.138 2.636c1.108 1.329 1.966 3.18.816 4.144l1.146 3.356 1.358 1.783-.219 3.785 1.33-1.55.808 4.852.987 2.16 1.73 1.41-.212 1.569 1.057 1.637.976.666.689 2.013c.304.896.986 2.162.986 2.162l.763 2.237.608 1.04 1.35 1.04.383 1.117s.61 1.787 1.14 2.608c.529.818 1.398 1.511 1.398 1.511l3.24 3.64s3.66-.251 1.702-2.33c-1.959-2.078-3.91-3.41-3.91-3.41l.32-1.6-.38-1.116-.683-1.268-1.284-1.56.22-.825-1.299-3.8-.828-.967-1.676-4.174-.676-.519-1.615-6.191s1.2.59.514-1.425c-.687-2.011-1.369-3.277-1.369-3.277s-1.669-3.428-1.603-4.699c.066-1.271.872-3.295.26-5.084-.608-1.791-1.372-4.026-1.372-4.026s1.696 1.709 1.762.44c.066-1.272-2.03-6.343-2.03-6.343l.66-1.723s1.785-1.361.502-2.92c-.534-.649-.78-.874-.888-.918l.128-.946.041-2.074.433-2.02.836-.849.212-1.57.783-.453-.185-2.185.394-2.808.886-3.322.886-2.215.22-2.772s.953.047 1.056-1.297c.103-1.347.911-4.317.911-4.317l1.383-2.291c-.247.71 1.025 1.825 1.368 2.833.344 1.005.977 1.91.977 1.91l.35 1.66s1.621 1.888 2.237 2.052c.62.163.79 1.448 1.466 1.779.675.334 1.54 1.446 1.54 1.446l1.969-.059s.12.896 1.243 1.449c1.126.55 2.186-.185 2.186-.185s.572 1.646 1.523 1.694c.952.048 2.835 1.192 2.835 1.192l2.587.163 4.28-1.27c1.565-.43 2.88-2.658 2.88-2.658l.22-1.312 1.994-1.346.456-1.994.668-1.564 1.091-1.98.73-2.66s.606-3.084.6-4.206c-.01-1.121-.767-2.197-.665-3.544.103-1.346-.566-3.171.444-2.955 1.01.216 1.923.113 2.662 1.173.735 1.06 1.314.466 1.825 1.417.512.949 1.91.659 1.91.659l1.703 2.79s1.071.945 1.69 1.108c.616.165 1.132 1.674 1.132 1.674s1.122-.007 1.509-.515c.392-.507 1.18.16 1.18.16s.176 1.064.966 1.73c.79.667 2.193.938 2.193.938s.63 1.846.97 2.29c.338.448.793 1.229 1.635 1.502.844.275 1.29-.065 1.29-.065s.46 1.904 1.085 2.627c.621.726 1.751 1.838 1.751 1.838s.4 1.173 1.016 1.338l.62.162 1.363 2.347s.843.272 1.07.944c.23.671 1.822 3.688 2.28 5.03.459 1.341.417 3.416.417 3.416s1.305 2.177 1.423 3.073c.118.896-.824 2.528-.824 2.528s.742 1.62 1.028 2.46c.286.84.467 2.464.467 2.464s-1.172.96-.995 2.024c.175 1.065.692 2.572.692 2.572s-.435 2.023-.04 2.636c.4.615 1.862 1.614 1.862 1.614s-.877 2.36-.48 3.534c.405 1.175.866 3.078.866 3.078l.75 2.74-.492 1.855-.329 1.234.7 3.695-.667.79-.425 3.142.522 2.632-.65 3.03s-.211 1.573 1.02 1.902c1.238.327 1.567-.91 1.724-2.087.16-1.179.701-3.986.701-3.986l.874-3.482-.518-1.51.45-7.458-.46-1.904.55-1.125-.805-2.91 1.55.125-1.411-4.667-.694-2.572s1.736-.406 1.5-1.637l-.861-3.076-.465-2.464-.461-1.343.275-.841-.123-1.458.329-1.235-.234-1.232.377-2.189-1.305-2.177-.92-3.245-.734-.499.329-1.235-.52-2.072-1.062-1.505 1.329-.664c-.886-.886-1.33-3.544-2.33-4.43a53.298 53.298 0 0 1-2.768-2.615s-.338-.447-.626-1.286c-.287-.838.049-.952-.912-2.123-.964-1.17-1.463-.999-1.463-.999l-.18-1.062s.16-1.18-.966-2.293c-1.13-1.114-2.09-1.722-2.09-1.722l-.798-2.348-3.496-2.554s1.166-1.523-.803-2.35c-1.967-.826-4.046-1.428-4.046-1.428l-1.407-.831s.72-1.182-1.36-1.784c-2.078-.6-2.637-.597-2.637-.597l-1.128-1.114s.158.726-1.642-.158a20.5 20.5 0 0 0-3.466-1.316c-1.772-.222-4.767-1.024-2.605-1.239 0 0 1.513-1.727 4.148-1.69 2.634.038 3.636-.867 3.636-.867l2.187-.182 1.57.212s1.408.83 2.25 1.105c.842.274 2.452 1.047 3.126.819.667-.23 1.873.097 1.873.097s2.076.603 2.976 1.045c.9.443 1.628.38 2.356.318l.73-.061 2.981 1.604 1.647 2.623 1.23-.234 1.873 3.295 2.19.376 1.519.606s.285.839 1.415 1.953c1.13 1.113 2.476 1.216 2.476 1.216l1.248 2.007s.516 1.511 1.355 1.224l.837-.286 2.59 1.551s.124 1.456 1.195 2.403c1.071.944 1.46.437 1.46.437s.86 2.516 1.198 2.962c.342.447 2.034 3.858 3.041 3.514 1.006-.344.825-3.71-.083-5.272" fill="#D41041"/><path d="M163.368 184.314a2.432 2.432 0 1 1-4.865-.002 2.432 2.432 0 0 1 4.865.002" fill="#FFF"/><path d="M160.936 182.103c-1.218 0-2.21.992-2.21 2.21 0 1.22.992 2.21 2.21 2.21 1.22 0 2.21-.99 2.21-2.21 0-1.218-.99-2.21-2.21-2.21Zm0 4.864a2.655 2.655 0 0 1-2.652-2.653 2.655 2.655 0 0 1 2.652-2.654 2.656 2.656 0 0 1 2.654 2.654 2.656 2.656 0 0 1-2.654 2.653Z" fill="#D41041"/><path d="M160.289 184.185h.754c.16 0 .285-.016.375-.05a.407.407 0 0 0 .206-.158.427.427 0 0 0 .07-.239.392.392 0 0 0-.136-.308c-.09-.08-.234-.121-.43-.121h-.84v.876Zm-.35 1.48v-2.65h1.174c.236 0 .416.024.538.072a.589.589 0 0 1 .295.252c.073.121.11.253.11.399a.664.664 0 0 1-.182.475c-.12.13-.309.212-.564.246a.998.998 0 0 1 .212.132c.102.094.2.211.29.353l.461.72h-.44l-.351-.55a5.133 5.133 0 0 0-.253-.366.805.805 0 0 0-.178-.176.487.487 0 0 0-.16-.07.94.94 0 0 0-.196-.013h-.406v1.175h-.35Z" fill="#D41041"/></g></svg>