<svg width="200" height="200" xmlns="http://www.w3.org/2000/svg"><g fill-rule="nonzero" fill="none"><path d="M195.801 113.098c1.478-2.2 2.883-4.913 3.489-6.882.367-1.196.554-2.394.554-3.564 0-2.385-.788-4.492-2.22-5.935-2.392-2.415-5.217-2.746-7.913-2.746h-20.405c.405-.596.62-1.09.705-1.316 1.006-2.38.931-2.738.851-3.116-.161-.766-.753-1.167-1.253-1.484a6.967 6.967 0 0 0-.682-2.217c.104-.427.162-.92.213-1.452l-.008.063a8.92 8.92 0 0 0 .064-1.905c-.163-2.057-1.075-3.432-1.812-4.223-1.441-1.544-3.486-2.319-6.076-2.31-1.133-.318-4.956-1.6-6.16-4.649l-.172-.436-.08-.2-.132-.169-.287-.368c-.297-.378-1.343-1.566-3.343-2.471-.654-2.58-2.666-7.125-8.794-8.436l-.198-.042-.09-.02-.094-.008-.217-.02c-.57-.047-2.15-.34-3.519-1.06l.34-.466 1.031-1.415-1.559-.796c-.13-.068-3.316-1.773-3.422-5.26-.002-.067-.007-.13-.01-.17l-.003-.024-.459-7.307-.213-3.383-2.352 2.442-5.082 5.275c-.236.246-1.142 1.24-2.063 2.942a13.409 13.409 0 0 1-.99-3.622l-.284-2.193-1.928 1.082c-.28.158-2.585 1.571-3.837 5.95-10.894-.569-17.227 2.163-17.5 2.284-.002.002-7.378 3.272-7.378 3.272L89.1 58.256l3.517 1.258 1.462.521c-8.09 1.754-13.037 5.158-13.289 5.334l-5.494 3.84-2.545 1.778 2.977.877 3.461 1.02c-5.124 2.315-9.81 5.302-14.495 9.225-1.716 1.435-3.136 3.301-4.233 5.553a62.603 62.603 0 0 0-2.729-.062c-17.686 0-32.335 4.686-44.782 14.328l-2.776 2.149 3.48.509 1.624.238c-1.56 2.336-2.384 4.837-2.384 7.285 0 1.334.242 2.63.72 3.85 1.454 3.717 4.831 6.297 9.267 7.077 1.43.243 2.934.34 4.494.294-1.427 2.732-3.374 6.5-4.154 8.078-6.148 12.427-11.352 19.3-19.202 25.364L0 159.875l5.058-.435c5.673-.486 25.116-2.776 37.113-11.815.15-.117 2.936-2.283 5.353-4.357 12.495 12.7 27.964 15.695 36.204 16.339 12.252.958 24.773-.201 36.21-3.352 6.392-1.76 12.281-4.129 17.063-6.81h10.537l2.2-4.146h25.058c.69 0 2.124 0 3.983-.623 4.042-1.326 6.393-4.66 7.045-5.699 0 0 2.866-5.242 5.86-10.857l8.18-15.02-4.063-.002" fill="#FFF"/><path d="M198.35 102.652c0-1.959-.613-3.702-1.786-4.884-2.108-2.127-4.642-2.305-6.852-2.305H165.05c1.705-.669 3.017-1.83 3.577-3.37 0 0 .833-1.967.774-2.246-.059-.277-.67-.536-1.235-.962 0-.134 0-.268-.011-.399-.074-.934-.406-1.8-.88-2.54.024-.008 1.474-3.967-.984-6.608-1.187-1.27-2.933-1.881-5.181-1.833-4.642-1.248-6.809-3.881-7.523-6.03 0 0-1.086-1.686-3.744-2.675-1.104-6.038-6-7.888-8.639-8.167-2.11-.223-4.472-1.544-5.097-2.135l1.248-1.713s-4.101-2.09-4.236-6.545c-.002-.047-.007-.092-.01-.141l-.46-7.31-5.082 5.276c-.258.268-1.884 2.047-2.948 5.192-.886-1.16-2.23-3.4-2.66-6.718 0 0-2.396 1.346-3.42 6.214-11.279-.834-17.733 1.946-18.046 2.084l-7.376 3.27 7.086 2.532c-11.151.881-18.18 5.687-18.559 5.953l-5.496 3.84 6.431 1.897c.325.096.688.212 1.068.337-7.799 2.893-13.49 6.815-17.997 10.588-1.986 1.663-3.336 3.799-4.254 5.949a61.83 61.83 0 0 0-3.666-.11c-18.333 0-32.5 5.209-43.868 14.014 1.419.202 2.829.409 4.155.608-.324.372-.635.747-.92 1.125-1.77 2.321-2.711 4.84-2.711 7.269 0 1.147.207 2.259.616 3.305 1.26 3.222 4.225 5.464 8.135 6.15 2.14.364 4.464.369 6.821.058-1.107 2.078-4.35 8.323-5.4 10.449-6.048 12.222-11.25 19.41-19.628 25.882 8.699-.746 25.83-3.602 36.342-11.52 0 0 3.775-2.932 6.341-5.228 10.852 11.645 24.987 16.035 36.23 16.912 26.395 2.064 49.202-6.096 58.795-14.311h32.158c.61 0 1.879 0 3.508-.546 3.61-1.185 5.713-4.205 6.272-5.103l12.778-23.565-4.584-.003c1.934-2.074 4.307-6.264 5.092-8.814a10.67 10.67 0 0 0 .488-3.123" fill="#231F20"/><path d="M137.59 67.795a.83.83 0 0 1 .277-.435c-.895-.233-1.49-.257-1.49-.257-.105.21-.125.48-.057.755.232.005.674.028 1.25.126 0-.062.005-.124.02-.19M140.433 68.416a10.459 10.459 0 0 0-.951-.487.756.756 0 0 1-.022.188.803.803 0 0 1-.162.319c.225.08.456.17.692.273.278-.156.443-.293.443-.293" fill="#ABAAAA"/><path d="M129.255 51.114c-.923 3.356 1.06 7.155 2.135 8.995 1.128 1.93 5.226 2.565 5.226 2.565s.014-.021.034-.056c-1.378-.63-2.794-1.563-3.84-2.942 0 0-.303-1.712.175-2.37 0 0-2.798-2.313-3.093-7.004 0 0-.266.278-.637.812M164.834 89.519c.538-1.536-.988-2.6-.988-2.6.385.917-.812 1.83-.812 1.83-2.458-1.89-1.745-3.854-1.745-3.854 1.658-.265 3.17-1.087 3.17-1.087.446-3.245-2.578-3.144-3.686-3.07 0 0-7.575-1.47-10.013-7.644 0 0-.986-1.253-3.578-1.661 1.927.446 3.427 3.268 3.427 3.268 1.319 4.337 4.759 6.617 7.066 7.696.057-.236.127-.482.216-.74 0 0 .6 1.002 3.464 1.534 0 0-.135.423-.863.81 0 0-3.205-.504-.894 3.337 0 0-.17-.07-.413-.23a10.057 10.057 0 0 0 1.428 2.002c-2.218 1.091-5.715.455-7.07.145 2.818 1.21 6.632 1.227 6.632 1.227.904.64 1.494 2.384 1.494 2.384 3.236.028 3.928-1.876 3.928-1.876-.804-.603-.763-1.471-.763-1.471M153.046 89.407c.158.69.572 2.532.948 4.474 2.137.182 4.093-.173 4.093-.173.668-.25 1.216-1.17 1.216-1.17l-.366-.604a8.351 8.351 0 0 1-5.891-2.527" fill="#706D6E"/><path d="M155.215 82.527s-6.611-2.57-9.86-6.204c0 0-1.49-3.096-4.674-3.835 0 0 1.397 2.131 1.335 3.608 0 0-3.543 1.62-6.975.209 0 0 4.232 3.465 9.305 1.108 0 0 4.352 3.84 8.395 5.31 0 0-.077 3.757 3.705 4.774 0 0-2.425-2.296-1.23-4.97" fill="#706D6E"/><path d="M133.702 69.255s-3.5-4.383-7.525-5.163c0 0 3.677 3.008 5.506 5.71 0 0-.243 3.989 4.937 5.751 0 0-3.468-2.427-2.918-6.298" fill="#706D6E"/><path d="M136.32 67.858c.232.005.674.028 1.25.126.006.383.31.72.753.796.381.063.759-.08.975-.344.225.08.456.17.692.273-.468.264-1.254.574-2.128.424-1.14-.196-1.468-1.004-1.542-1.275" fill="#FFF"/><path d="M138.01 68.33s.95.309 1.19-.628l-.728-.255s.254.555-.462.883" fill="#751321"/><path d="M94.781 95.506s9.623-9.193 25.234-17.188h.001a18.087 18.087 0 0 1-.012-2.956C106.94 82.99 94.78 95.506 94.78 95.506" fill="#706D6E"/><path d="M131.44 57.947c-2.347-2.139-1.987-4.108-1.987-4.108-.122.154-.23.316-.327.482-1.17 1.99-.75 4.74-.75 4.74.353-2.033.874-2.685.874-2.685.43 1.88 2.14 3.733 2.14 3.733-.444-1.193.05-2.162.05-2.162M113.47 64.049s-.19-2.529-1.837-4.715c0 0 3.819-1.348 11.275-.747 0 0-6.594-2.437-16.406-.366 0 0 4.413 1.936 6.967 5.828M94.478 68.565s6.575-1.897 13.393-1.951c0 0-9.184-2.453-18.648 2.039 0 0 4.67 1.598 7.752 3.59 0 0-.943-2.657-2.497-3.678M92.361 76.204s-16.738 2.28-23.14 12.124c0 0 2.891-1.734 7.79-1.626 0 0-1.191-1.044-2.71-1.22 0 0 6.79-6.927 18.06-9.278M88.551 83.104s-7.608 3.395-10.278 10c1.02.48 1.974.998 2.854 1.551.57-1.55 2.788-6.985 7.424-11.55M86.531 93.446s-2.309-.333-5.138 1.38c.613.397 1.192.811 1.734 1.244a28.485 28.485 0 0 1 3.404-2.624M89.125 101.027l.34-.622c-.818-.48-1.781-.903-2.846-1.103 0 0 1.4.637 2.506 1.725M88.383 95.424s1.09 1.423 2.11 3.098l.403-.738a9.48 9.48 0 0 0-2.513-2.36M69.002 90.163a47.58 47.58 0 0 1 2.43.548c.534-.453 1.066-.89 1.587-1.32 0 0-1.686.114-4.017.772" fill="#C4C3C3"/><path d="m107.231 97.758 1.258-2.295h4.02c.14-2.586.851-4.368.851-4.368-2.158 1.156-4.62 3.304-7.007 5.739.323.27.617.576.878.924M103.098 95.525c6.26-8.065 14.35-14.422 16.998-16.405-.033-.274-.06-.54-.08-.802-15.004 7.685-24.474 16.473-25.19 17.145h7.209c.37 0 .722.022 1.063.062" fill="#ABAAAA"/><path d="M92.361 76.204c-11.27 2.351-18.06 9.279-18.06 9.279 1.519.175 2.71 1.22 2.71 1.22-4.899-.109-7.79 1.625-7.79 1.625 6.402-9.843 23.14-12.124 23.14-12.124Zm-3.138-7.551c9.464-4.492 18.648-2.04 18.648-2.04-6.818.055-13.393 1.952-13.393 1.952 1.554 1.02 2.497 3.678 2.497 3.678-3.082-1.992-7.752-3.59-7.752-3.59Zm17.279-10.432c9.812-2.07 16.406.366 16.406.366-7.456-.601-11.275.747-11.275.747 1.646 2.186 1.836 4.715 1.836 4.715-2.554-3.892-6.967-5.828-6.967-5.828Zm27.2 11.034c-.55 3.87 2.918 6.298 2.918 6.298-5.18-1.762-4.937-5.752-4.937-5.752-1.83-2.7-5.506-5.709-5.506-5.709 4.025.78 7.525 5.163 7.525 5.163Zm-1.121-5.55c2.775 2.897 6.174 2.281 6.174 2.281 4.904 1.27 5.814 5.58 5.814 5.58-1.364-1.81-2.411-1.72-2.411-1.72-1.797.929-4.07 1.702-6.046.3-1.976-1.401-1.356-3.195-1.356-3.195-2.427-1.38-2.175-3.245-2.175-3.245Zm12.774 12.618c3.249 3.634 9.86 6.204 9.86 6.204-1.194 2.674 1.23 4.97 1.23 4.97-3.781-1.017-3.704-4.775-3.704-4.775-4.043-1.47-8.395-5.309-8.395-5.309-5.073 2.357-9.305-1.108-9.305-1.108 3.432 1.411 6.975-.21 6.975-.21.062-1.476-1.335-3.607-1.335-3.607 3.184.739 4.674 3.835 4.674 3.835ZM73.019 89.391c-.52.43-1.053.867-1.587 1.32 2.377.6 4.59 1.36 6.576 2.269.09.041.176.084.265.125 2.67-6.606 10.278-10 10.278-10-4.636 4.565-6.855 10-7.424 11.55l.266.17c2.83-1.712 5.138-1.379 5.138-1.379a28.485 28.485 0 0 0-3.404 2.624c2.33 1.858 3.978 4.024 4.882 6.413.108-.001.215 0 .318.003l.798-1.459c-1.105-1.088-2.506-1.725-2.506-1.725 1.065.2 2.028.624 2.845 1.103l1.03-1.883c-1.02-1.675-2.11-3.098-2.11-3.098a9.48 9.48 0 0 1 2.512 2.36l1.268-2.321h2.642c6.824-12.524 24.697-23.533 26.393-24.559.34-.64.618-.943.618-.943s-1.505 5.992.896 10.492c0 0 7.13 8.256 16.103 5.44 0 0 5.875 2.732 10.135 2.283 2.067 1.968 3.12 5.374 3.12 5.374.679.216 1.923.331 1.923.331-.376-1.942-.79-3.783-.948-4.474-.281-.266-.625-.74-.625-.74.347.222.727.417 1.127.589 1.359.31 4.85.944 7.065-.146 0 0-.84-.883-1.428-2.002-.75-.495-2.2-1.854-1.51-4.711-2.307-1.079-5.747-3.359-7.066-7.696 0 0-1.5-2.822-3.427-3.268 0 0-.295-.044-.396-.057 0 0 .59-6.193-5.433-7.481 0 0-2.293-.174-4.703-1.276-.02.035-.034.055-.034.055s-4.098-.635-5.226-2.565c0 0-1.71-1.853-2.14-3.733 0 0-.521.652-.873 2.685 0 0-.421-2.75.749-4.74-.164-1.062-.16-2.156.129-3.207.371-.534.637-.812.637-.812s-2.862 2.972-2.978 8.41c0 0-1.808 3.011-8.95 6.306 0 0-14.212 6.554-25.7 20.58.346-3.16.56-5.259.56-5.259 4.597-5.607 17.595-14.157 23.69-16.852 6.094-2.693 7.775-4.955 7.775-4.955-.468-1.28-.094-1.83-.094-1.83-14.338-2.508-22.394 1.083-22.394 1.083 5.341 1.909 9.252 6.579 9.252 6.579-16.522-2.871-27.561 4.872-27.561 4.872 3.409 1.005 10.016 3.694 10.016 3.694-19.509 5.214-26.352 12.533-28.72 16.571 1.441.17 2.85.392 4.214.662 2.33-.658 4.017-.772 4.017-.772Z" fill="#ABAAAA"/><path d="M113.36 91.095s-.711 1.782-.85 4.368h1.274c1.91-6.485 7.047-10.078 7.63-10.468a.814.814 0 0 1 .053-.035c-.057-.168-.473-1.511-.531-1.718-6.487 3.667-11.715 8.419-15.693 12.88.403.194.774.431 1.11.712 2.387-2.435 4.85-4.583 7.007-5.739" fill="#706D6E"/><path d="m33.84 111.6 5.89-.003c-.132.169-.266.332-.4.51-3.79 2.13-9.077.505-10.082-.56-.753-.795-.724-1.354-.581-1.84.943-3.208 8.915-6.989 12.94-7.977 5.427-1.435 11.824-2.257 17.565-2.257.58.013 1.142.047 1.692.098-9.53.514-19.091 5.476-23.525 9.08-.01.01-3.5 2.948-3.5 2.948Zm32.974-10.507c1.468.716 2.6 1.646 3.286 2.754.484.782.73 1.64.73 2.554 0 .89-.233 1.834-.688 2.802-2.225 4.73-10.62 10.067-19.974 11.02 7.757-13.775 16.183-18.857 16.27-18.908l.376-.222Zm-.797-.495s-9.147 5.368-17.324 20.581c10.164-.504 19.719-6.344 22.202-11.621.51-1.087.766-2.147.766-3.157a5.612 5.612 0 0 0-.853-2.992c-1.772-2.861-6.129-4.644-11.636-4.77-5.81 0-12.28.832-17.763 2.282-4.147 1.02-12.453 4.856-13.54 8.551-.28.952-.034 1.793.775 2.649 1.211 1.282 7.046 3.1 11.225.647a25.48 25.48 0 0 1 1.652-2.004l-5.4.003 1.743-1.47c4.928-4.007 17.239-10.264 28.153-8.7Z" fill="#C4C3C3"/><path d="M180.73 136.436c-.193.323-1.248 1.965-3.035 2.552-.816.276-1.466.276-1.897.276H74.881l5.333-10.016h104.542l-4.027 7.188Zm-45.081 7.74c-11.102 8.8-69.16 24.058-91.527-14.855-.988 1.787-2.243 4.164-2.25 4.177-1.573 2.96-3.08 5.777-5.257 8.364h4.13l-1.894 1.486c-9.22 7.238-20.696 9.03-21.18 9.105l-2.294.342c6.475-6.64 10.286-14.098 14.321-22.103 2.94-5.696 6.22-12.135 8.937-16.181-2.873 1.873-8.974 4.18-14.817 3.191-2.532-.444-4.413-1.8-5.163-3.718a5.104 5.104 0 0 1-.347-1.875c0-1.556.653-3.245 1.921-4.91 1.627-2.157 4.136-4.29 7.18-6.149-.085-.01-2.301-.317-2.301-.317l2.031-1.214c.444-.266 11.1-6.504 30.592-6.504 13.498 0 27.164 4.778 27.164 13.913 0 3.758-2.236 7.832-6.294 11.469-4.034 3.613-9.63 6.63-16.208 8.774l-1.227.38c1.04 1.98 2 3.62 3.45 5.248 14.59 15.035 40.428 16.292 71.033 11.377Zm-4.627-16.111H79.738c-1.575 2.903-5.808 10.696-5.808 10.696-6.788-3.728-10.056-7.752-11.51-10.72l1.261-.44c6.255-2.16 11.596-5.11 15.475-8.585 4.237-3.797 6.57-8.091 6.57-12.088 0-4.59-3.113-8.441-9.004-11.14-5.081-2.324-11.826-3.605-18.99-3.605-19.724 0-30.568 6.352-31.02 6.622l-4.063 2.43 2.45.337c-2.308 1.615-4.204 3.362-5.533 5.127-1.367 1.79-2.09 3.664-2.09 5.41 0 .76.136 1.493.405 2.18.857 2.194 2.97 3.736 5.792 4.233 4.34.735 9.065-.289 12.6-1.83-2.22 3.674-4.937 9.012-7.313 13.619-4.142 8.408-8.932 17.8-16.291 23.734 6.743-1.077 17.21-2.598 26.695-10.045l3.788-2.972h-4.829c1.706-2.302 3.016-4.753 4.281-7.137.003-.001.846-1.602 1.518-2.843 10.584 17.145 27.71 22.555 40.65 24 16.477 1.838 42.885-2.462 54.796-12.54-17.8 3.517-32.12 3.966-42.279 2.913-7.588-.784-14.286-2.455-19.947-4.972h98.12c.453 0 1.294 0 2.33-.348 2.288-.75 3.657-2.804 3.936-3.256l4.801-8.78h-55.507Z" fill="#C4C3C3"/><path d="m183.282 130.139-3.316 6.014s-.883 1.522-2.345 2.003c-.651.218-1.183.218-1.572.218H76.29l4.532-8.235h102.459ZM74.88 139.264h100.917c.43 0 1.081 0 1.897-.276 1.787-.587 2.842-2.23 3.034-2.552l4.027-7.188H80.214l-5.333 10.016Z" fill="#FFF"/><path d="M132.605 145.382c-23.826 11.352-69.899 16.267-88.437-17.837-1.132 2.003-3.031 5.564-3.031 5.564-1.858 3.495-3.567 6.713-6.393 9.584h3.593c-9.154 7.186-20.79 8.937-20.79 8.937 8.05-6.721 18.303-35.6 26.071-41.699l-5.218.003s10.241-8.626 25.845-9.015l-.038.02s-8.759 5.195-16.915 21.121c10.612 0 21.46-5.992 24.356-12.148 3.08-6.547-2.488-11.878-12.476-12.103-6.28 0-12.83.948-17.962 2.305-5.217 1.283-18.127 7.336-13.17 12.578 1.569 1.661 5.677 2.663 8.75 1.805-2.866 1.603-7.59 3.272-12.828 2.387-4.354-.766-6.63-4.511-3.068-9.184 1.874-2.486 5.104-5.07 9.049-7.14l-2.377-.327s10.678-6.386 30.165-6.386c13.763 0 26.332 4.884 26.332 13.081 0 7.804-9.886 15.963-24.178 20.157 2.175 6.607 18.198 27.278 72.72 18.297Zm-91.084-34.618a25.48 25.48 0 0 0-1.652 2.004c-4.18 2.454-10.014.635-11.225-.647-.809-.856-1.056-1.697-.775-2.649 1.087-3.695 9.393-7.532 13.54-8.551 5.484-1.45 11.953-2.281 17.763-2.281 5.507.125 9.864 1.908 11.636 4.769.568.919.853 1.927.853 2.992 0 1.01-.255 2.07-.766 3.157-2.483 5.277-12.038 11.117-22.202 11.621 8.177-15.213 17.324-20.581 17.324-20.581-10.914-1.565-23.225 4.692-28.153 8.7l-1.744 1.47 5.401-.004Zm23.095 22.035c-1.45-1.629-2.41-3.268-3.45-5.247l1.227-.38c6.578-2.146 12.174-5.162 16.208-8.775 4.058-3.637 6.294-7.71 6.294-11.469 0-9.135-13.666-13.913-27.164-13.913-19.493 0-30.148 6.238-30.592 6.504l-2.031 1.214s2.216.307 2.3.317c-3.043 1.86-5.552 3.992-7.179 6.15-1.268 1.664-1.92 3.353-1.92 4.909 0 .653.114 1.283.346 1.875.75 1.918 2.631 3.274 5.163 3.718 5.843.99 11.944-1.318 14.817-3.191-2.717 4.046-5.998 10.485-8.937 16.181-4.035 8.005-7.846 15.462-14.32 22.103l2.293-.342c.484-.074 11.96-1.867 21.18-9.105l1.894-1.486h-4.13c2.177-2.587 3.684-5.404 5.256-8.364.008-.013 1.263-2.39 2.25-4.177 22.367 38.913 80.426 23.655 91.528 14.855-30.605 4.915-56.444 3.658-71.033-11.377Z" fill="#FFF"/><path d="M59.885 127.085c14.292-4.194 24.178-12.353 24.178-20.157 0-8.197-12.569-13.08-26.332-13.08-19.487 0-30.165 6.385-30.165 6.385l2.377.328c-3.945 2.07-7.175 4.653-9.05 7.14-3.56 4.672-1.285 8.417 3.069 9.183 5.237.885 9.962-.784 12.828-2.387-3.073.858-7.181-.144-8.75-1.805-4.957-5.242 7.953-11.295 13.17-12.578 5.132-1.357 11.682-2.305 17.962-2.305 9.988.225 15.555 5.556 12.476 12.103-2.896 6.156-13.744 12.148-24.356 12.148 8.156-15.926 16.915-21.12 16.915-21.12l.038-.021c-15.604.389-25.845 9.015-25.845 9.015l5.218-.003c-7.768 6.1-18.02 34.978-26.071 41.699 0 0 11.636-1.75 20.79-8.937h-3.593c2.826-2.871 4.535-6.09 6.393-9.584 0 0 1.9-3.56 3.031-5.564 18.538 34.104 64.61 29.189 88.437 17.837-54.522 8.98-70.545-11.69-72.72-18.297" fill="#A80C30"/><path d="M179.312 106.526h3.988c-.255.532-.592 1.036-.9 1.322-.341.298-.679.47-1.36.47h-2.689c.341-.634.691-1.289.96-1.792Zm10.714 6.419c1.21-.88 4.04-5.34 4.884-8.078.623-2.026.409-3.967-.54-4.923-1.188-1.199-2.65-1.391-4.66-1.391h-19.077l-2.084 3.806 1.352.26-10.305 19.214c-.184.345-.344.644-.44.954-.346 1.126.046 1.893.31 2.251.801 1.087 2.272 1.087 2.755 1.087h8.037l2.085-3.804-1.351-.261 4.055-7.552 3.51 8.932c1.315 2.685 3.943 2.685 5.355 2.685h.806c2.447 0 3.316-.843 4.337-2.734l3.104-5.711s-4.56-.002-4.623-.004c-.09-.22-.927-2.51-.927-2.51 1.266-.477 2.208-1.342 3.417-2.221ZM104.764 99.62c-.706-.957-1.896-1.067-2.729-1.067h-8.038l-2.08 3.806 1.353.261c-.917 1.715-10.2 19.07-10.205 19.077a7.006 7.006 0 0 0-.474 1.092c-.33 1.079-.015 1.826.308 2.262.793 1.074 2.246 1.074 2.723 1.074h8.04l2.077-3.806-1.352-.26c.916-1.715 10.2-19.07 10.2-19.07.236-.445.382-.782.48-1.101.332-1.086.02-1.833-.303-2.269M116.482 117.458c-.23.173-.328.222-1.862.222h-1.589l5.858-10.928 3.748.026c-.24.653-.84 2.017-2.333 4.779-1.245 2.323-2.803 5.088-3.822 5.9Zm17.922-16.98c-1.146-1.771-3.05-1.925-5.588-1.925H110.32l-2.086 3.806 1.352.26-10.305 19.214c-.185.345-.344.644-.439.953-.347 1.127.045 1.894.31 2.252.801 1.087 2.27 1.087 2.755 1.087h14.487c2.694 0 4.287-.361 6.086-1.38l.012-.006.01-.007c2.47-1.446 4.313-3.65 7.04-8.419 2.53-4.375 4.215-7.898 5.005-10.465 1.025-3.336.259-4.747-.143-5.37ZM140.906 98.553l-2.085 3.806 1.354.26-10.23 19.069.013-.024c-.205.37-.394.803-.504 1.158-.342 1.113.046 1.874.309 2.226.793 1.077 2.252 1.077 2.732 1.077h18.483c2.45 0 3.547-.659 4.69-2.819-.003.008 3.795-7.079 3.795-7.079h-4.744l-.498.775c-.41.64-.434.678-1.97.678h-8.637l.795-1.388h7.377c2.458 0 3.5-.623 4.642-2.778l2.935-5.413h-10.555l.78-1.575h10.36c2.432 0 3.48-.626 4.677-2.792l.004-.008.004-.009 2.776-5.164h-26.503" fill="#C4C3C3"/><path d="M178.807 105.686h4.66c.972 0 1.027.033.926.363-.274.892-.874 1.909-1.426 2.421-.556.49-1.116.69-1.928.69h-4.092l1.86-3.474Zm15.298-1.066c.473-1.537.513-3.016-.348-4.098-.902-1.137-2.94-1.128-4.046-1.128h-18.58l-1.29 2.356s1.263.25 1.304.262l-.001.01c-.043.137-.115.28-.43.862l-10.376 19.343c-.172.321-.307.576-.378.807-.226.734-.026 1.224.182 1.505.493.668 1.422.745 2.08.745h7.538l1.29-2.356s-1.262-.248-1.305-.26l.003-.01c.034-.114 4.94-9.263 5.415-10.157l4.15 10.57c1.083 2.213 3.283 2.213 4.599 2.213h.806c2.018 0 2.667-.572 3.598-2.292-.002.001 2.43-4.472 2.43-4.472h-2.99c-.16 0-.654 0-.748-.053-.125-.094-1.488-3.83-1.488-3.83 1.548-.438 2.67-1.104 3.91-2.286 1.906-1.865 3.87-5.113 4.675-7.731ZM94.512 102.022 83.81 122.09a5.81 5.81 0 0 0-.415.944c-.227.744-.027 1.236.18 1.516.485.656 1.4.733 2.047.733h7.54l1.287-2.356-1.302-.271 10.699-20.065c.207-.393.334-.684.415-.949.186-.605.128-1.117-.173-1.524-.475-.642-1.346-.725-2.053-.725h-7.54l-1.287 2.358 1.304.27M123.54 106.738c-.197.639-.79 2.061-2.495 5.22-1.934 3.604-3.143 5.446-4.045 6.162-.412.316-.537.4-2.38.4h-2.994l6.761-12.613 4.468.034c.972 0 .904.084.684.797Zm-12.71-4.726-.001.01c-.042.137-.115.28-.43.862l-10.376 19.343c-.171.321-.306.576-.377.807-.226.734-.026 1.224.182 1.505.493.668 1.423.745 2.079.745h14.487c2.564 0 3.995-.32 5.673-1.27 2.338-1.37 4.1-3.493 6.745-8.119 2.5-4.324 4.16-7.789 4.93-10.295.492-1.598.807-3.428-.042-4.663-.927-1.343-2.15-1.543-4.884-1.543h-17.999l-1.292 2.356s1.265.25 1.306.262ZM141.417 102.021c-.041.135-10.73 20.063-10.73 20.063l.007-.01a5.648 5.648 0 0 0-.435.996c-.222.722-.025 1.203.18 1.48.485.657 1.406.734 2.056.734h18.483c2.138 0 2.95-.488 3.948-2.37l3.132-5.845h-2.88l-.249.387c-.551.861-.755 1.064-2.677 1.064h-10.04l1.693-3.068h7.881c2.142 0 2.908-.459 3.9-2.336-.002.007 2.264-4.173 2.264-4.173H147.41l1.674-3.257h10.865c2.12 0 2.894-.463 3.94-2.358l2.115-3.934h-24.6l-1.289 2.356s1.304.268 1.303.271" fill="#FFF"/><path d="M94.823 103.285c.334-.619.426-.8.492-1.017.19-.618-.062-.98-.816-1.126l.496-.906h7.04c1.271 0 1.667.362 1.422 1.162-.066.216-.18.47-.353.796l-10.27 19.2c-.334.616-.426.798-.492 1.016-.2.654.063.98.816 1.125l-.494.907h-7.042c-1.234 0-1.666-.363-1.422-1.162.055-.18.18-.471.353-.798l10.27-19.197M117.887 105.064l-7.667 14.298h4.4c1.85 0 2.236-.073 2.9-.581 1.008-.799 2.221-2.614 4.264-6.424 1.432-2.65 2.269-4.427 2.559-5.372.425-1.378.037-1.886-1.488-1.886l-4.968-.035Zm-6.748-1.78c.335-.618.427-.798.494-1.016.19-.618-.062-.98-.815-1.126l.497-.906h17.5c2.76 0 3.589.253 4.18 1.162.556.905.525 2.067-.055 3.956-.726 2.357-2.298 5.696-4.859 10.123-2.593 4.537-4.259 6.533-6.428 7.803-1.539.872-2.826 1.162-5.259 1.162h-14.487c-1.235 0-1.703-.363-1.457-1.162.055-.18 10.689-19.995 10.689-19.995ZM141.726 103.285c.336-.619.428-.8.495-1.017.19-.618-.062-.98-.815-1.126l.496-.906h22.694l-1.444 2.685c-.9 1.633-1.39 1.925-3.204 1.925h-11.37l-2.567 4.937h10.526l-1.593 2.94c-.865 1.633-1.342 1.887-3.158 1.887h-8.385l-2.594 4.752h11.445c2.068 0 2.617-.255 3.385-1.451h1.017l-2.472 4.608c-.864 1.633-1.39 1.923-3.204 1.923h-18.483c-1.235 0-1.667-.363-1.433-1.125a4.99 4.99 0 0 1 .365-.835l10.3-19.197M185.196 106.297c-.3.98-.954 2.142-1.664 2.796-.699.618-1.441.908-2.493.908h-5.496l2.761-5.155h5.162c1.706 0 2.077.325 1.73 1.45Zm8.105-1.925c.436-1.415.38-2.649-.181-3.301-.548-.582-1.485-.835-3.41-.835h-18.08l-.498.906c.754.146 1.004.508.815 1.126-.067.218-.159.398-.494 1.017l-10.298 19.197c-.173.327-.336.618-.39.798-.247.799.222 1.162 1.456 1.162h7.041l.497-.907c-.753-.146-1.016-.471-.816-1.125.056-.181 6.34-11.927 6.34-11.927l4.784 12.218c.832 1.699 2.465 1.741 3.845 1.741h.806c1.598 0 2.014-.29 2.858-1.85l1.755-3.23h-1.574c-1.343 0-1.45-.11-2.055-1.779l-1.35-3.579c1.866-.4 3.164-.99 4.498-2.262 1.818-1.777 3.692-4.902 4.451-7.37Z" fill="#A80C30"/><path d="m95.514 103.657-10.269 19.196c-.323.613-.4.8.34.804.023-.046 10.598-19.817 10.598-19.817.343-.635.462-.864.552-1.161.132-.43.173-.529.04-.998h5.71c.282-.553.323-.661-.45-.661h-6.188c.197.246.465.677.219 1.478-.09.295-.208.525-.552 1.16M111.829 103.659l-10.371 19.334c-.136.256-.369.658.41.664.002 0 .002-.002.003-.003l10.64-19.85c.344-.635.464-.866.554-1.16.145-.466.112-.72.05-.963h16.114c2.139 0 2.874.163 3.265.503-.261-.785-.635-1.164-3.678-1.164h-16.651c.038.047.081.09.113.142.253.424.242.89.105 1.336-.09.296-.21.525-.554 1.16" fill="#BC384B"/><path d="M122.474 112.73c-2.097 3.913-3.35 5.781-4.466 6.666l-.01.008c-.876.67-1.458.744-3.378.744h-4.943l-.355.66h5.712c1.919 0 2.502-.073 3.377-.742l.01-.008c1.116-.885 2.37-2.754 4.467-6.667 1.421-2.63 2.301-4.485 2.618-5.513.47-1.52-.057-2.116-.303-2.35.181.578.035 1.219-.109 1.688-.316 1.03-1.199 2.885-2.62 5.514M142.416 103.659l-10.297 19.194c-.42.757-.372.8.34.804.024-.049 10.638-19.85 10.638-19.85.588-1.083.755-1.539.604-2.126h19.226l.356-.661h-20.53c.243.3.44.758.218 1.478-.09.295-.21.525-.555 1.16M140.308 120.148l-.359.66h12.753c.63 0 1.148-.024 1.596-.095l.486-.906c-.622.27-1.393.34-2.494.34h-11.982" fill="#BC384B"/><path d="M145.157 111.23h9.741l.36-.663h-9.756l-.345.662M185.833 119.544c.414.863.856 1.179 1.865 1.247l.351-.643h-.255c-1.01 0-1.555-.143-1.96-.604M189.71 101.02h-17.23c.037.047.082.09.113.142.408.68.195 1.31-.45 2.497l-10.37 19.334c-.15.28-.605.656.41.664l.003-.003 10.638-19.847c.6-1.107.743-1.582.603-2.126h16.697c1.358 0 2.173.128 2.626.42-.143-.66-.527-1.081-3.04-1.081" fill="#BC384B"/><path d="M186.043 105.23c.103.377.058.795-.097 1.296-.734 2.395-2.323 4.26-4.907 4.26h-4.802l4.546 11.587c.334.671.823.994 1.446 1.148a2.332 2.332 0 0 1-.32-.486l-4.546-11.59h4.09c2.547 0 4.157-1.812 4.906-4.256.27-.87.188-1.512-.316-1.96M26.253 109.266c-1.462 2.828.85 4.715 2.372 5.593.624.426 1.378.78 2.206 1.047a20.93 20.93 0 0 0 1.704-.45c-2.616-.38-4.272-1.385-5.067-2.226-.646-.683-1.325-1.73-1.325-3.04 0-.304.037-.613.11-.924M83.057 105.184C81.2 97.934 68.168 94.633 57.73 94.633c-7.08 0-17.96.925-27.526 5.172l1.327.182c4.042-1.617 12.337-4.585 25.776-4.687 3.385.027 6.667.263 9.683.77 4.93.892 13.887 3.757 16.066 9.114" fill="#BC384B"/><path d="M60.712 102.58c.46-.411.53-.417.912-.727a44.428 44.428 0 0 0-11.547 2.618c-3.298 1.2-5.91 2.557-7.48 3.56a40.08 40.08 0 0 0-1.776 1.118c.423-.003.464-.003 1.144-.003a48.502 48.502 0 0 1 9.24-4.38c2.906-.953 7.706-1.98 9.507-2.187M33.407 144.393h1.113c.473-.293.943-.597 1.41-.914h-1.623l-.9.914M72.659 111.16c1.298-2.189 1.213-4.54.403-6.543.448 1.76.217 3.67-.704 5.629-1.395 2.964-4.346 5.725-8.087 7.906-3.182 1.852-8.93 4.412-15.916 4.672-.356.013-1.536.02-1.536.02-.115.226-.235.447-.36.664l1.08-.002c10.502-.297 20.842-5.138 25.12-12.346M30.308 101.256c-3.757 1.97-6.96 4.492-8.787 6.917-1.765 2.316-1.876 4.207-1.238 5.497-.179-1.013.043-2.827 1.544-4.796 1.828-2.425 4.804-4.94 8.56-6.912l1.89-.992s-.439-.068-1.117-.161l-.852.447M44.725 110.06l-.623.488c-3.757 2.952-8.658 12.534-12.966 20.885-3.743 7.256-7.593 14.709-11.21 18.903.4-.095.642-.153 1.115-.28 3.317-4.326 6.999-11.124 10.395-17.709 4.308-8.35 8.955-17.726 12.712-20.976l1.642-1.306s-.23-.006-1.065-.005M59.059 127.215l-.67.186c1.966 7.105 14.985 19.324 38.228 21.14 7.862.814 18.02.691 27.634-.577 1.417-.46 1.393-.477 2.691-.974-11.191 1.497-21.392 1.796-30.37.867-8.67-.895-16.23-2.924-22.474-6.022-10.34-5.137-14.13-11.65-15.04-14.62" fill="#BC384B"/><path d="m183.282 130.139-3.316 6.014s-.883 1.522-2.345 2.003c-.651.218-1.183.218-1.572.218H76.29l4.532-8.235h102.459" fill="#A80C30"/><path d="M92.227 133.873a.854.854 0 0 0 .337-.533c.05-.23-.049-.28-.513-.28h-.648l-.534.983h.77c.244 0 .44-.059.588-.17Zm-2.682 2.575h.733c.428 0 .611-.052.835-.238.255-.212.474-.712.5-.83.062-.28-.09-.363-.677-.363h-.6l-.791 1.43Zm-.532-3.753c.08-.144.102-.187.113-.236.031-.144-.072-.23-.333-.264l.12-.21h4.535c.588 0 .887.032 1.101.108.364.127.514.388.44.73-.1.457-.488 1.05-.865 1.322-.175.126-.414.21-.731.262.62.076.836.313.733.78-.128.583-.644 1.43-1.18 1.922-.429.39-.825.525-1.595.525h-4.342c-.416 0-.593-.085-.551-.27.009-.043.048-.111.09-.187l2.465-4.482ZM108.545 133.999c.205-.152.351-.372.401-.6.059-.264-.083-.34-.659-.34h-.635l-.632 1.153h.732c.355 0 .59-.067.793-.213Zm-3.284-1.304c.082-.144.103-.187.114-.236.031-.144-.072-.23-.334-.264l.12-.21h4.989c.649 0 .979.057 1.193.194.223.152.307.44.234.77-.127.577-.582 1.253-1.101 1.667-.383.298-.745.442-1.352.536l.307.881c.135.39.165.415.618.415h.183l-.423.753c-.202.365-.326.433-.865.433h-1.137c-.464 0-.506-.034-.595-.408l-.472-2.074h-.233l-1.018 1.847a.616.616 0 0 0-.072.161c-.033.152.072.228.334.263l-.121.211h-2.372c-.415 0-.592-.085-.552-.27.01-.043.05-.111.09-.187l2.465-4.482ZM123.336 134.067c-.579.857-.955 1.568-1.04 1.949-.071.33.122.508.574.508.55 0 .895-.237 1.41-.965.52-.746.958-1.628 1.023-1.923.078-.356-.114-.542-.554-.542-.575 0-.92.237-1.413.973Zm3.703 1.347c-1.146 1.822-2.17 2.305-4.799 2.305-1.051 0-1.693-.085-2.103-.28-.464-.22-.65-.6-.54-1.1.22-1 1.14-2.569 1.965-3.373.79-.763 1.897-1.066 3.817-1.066 2.14 0 2.871.396 2.637 1.465-.112.508-.468 1.237-.977 2.05ZM138.225 132.695c.08-.144.102-.187.113-.236.033-.144-.072-.23-.334-.264l.12-.21h2.41c.464 0 .532.023.588.218l.711 2.272.978-1.78c.08-.144.102-.187.113-.236.03-.144-.072-.23-.334-.264l.12-.21h1.957c.415 0 .58.083.541.261a.73.73 0 0 1-.08.193l-2.852 5.195h-1.567c-.513 0-.558-.025-.657-.347l-.794-2.508-1.18 2.144c-.081.144-.104.186-.113.237-.035.152.072.228.321.263l-.108.211h-1.957c-.415 0-.591-.085-.554-.263a.791.791 0 0 1 .092-.194l2.466-4.482M158.063 133.11c-.598 0-.831.11-1.145.534-.19.254-.532.813-.845 1.398-.25.475-.368.728-.403.89-.056.253.074.44.356.491.131.017.264.025.618.025h.82c.66 0 .845-.06 1.04-.338h.33l-.49.897c-.142.254-.285.407-.438.493-.33.168-.606.192-2.354.192-1.456 0-1.934-.049-2.286-.226-.408-.205-.54-.543-.433-1.036.077-.346.271-.787.636-1.498 1.26-2.399 1.981-2.948 3.852-2.948h3.154l-.369.677c-.206.382-.343.448-.869.448h-1.174M171.444 136.287c.202-.086.347-.246.385-.415.047-.212-.064-.322-.499-.458l-.75-.254c-.783-.279-1.043-.544-.954-.948.052-.237.31-.746.581-1.144.322-.458.752-.805 1.188-.949.304-.111.543-.135 1.179-.135h3.07l-.335.626c-.218.382-.33.45-.832.45h-1.04c-.44 0-.601.018-.76.067-.237.076-.395.238-.439.44-.039.179.042.254.418.382l.74.253c.464.162.687.263.82.374.188.153.252.363.196.618-.12.543-.732 1.491-1.204 1.856-.563.45-1.07.584-2.11.584h-2.421c-.355 0-.499-.008-.625-.042-.198-.051-.307-.161-.275-.315.012-.05.118-.253.16-.338l.488-.881h.342c-.061.28.11.338.806.338h.917c.6 0 .752-.024.954-.109" fill="#231F20"/><path d="M91.442 133.121a.856.856 0 0 0 .337-.534c.051-.23-.048-.28-.513-.28h-.648l-.534.982h.77c.246 0 .442-.057.588-.168Zm-2.682 2.575h.733c.428 0 .611-.052.836-.238.254-.211.475-.71.5-.83.062-.279-.091-.364-.678-.364h-.6l-.791 1.432Zm-.532-3.754c.081-.143.102-.186.113-.237.032-.143-.071-.229-.333-.262l.12-.213h4.536c.588 0 .885.034 1.101.11.364.129.514.39.44.73-.1.457-.488 1.051-.866 1.322-.174.126-.414.21-.73.262.619.077.835.313.733.78-.129.583-.645 1.431-1.181 1.922-.428.392-.825.525-1.595.525h-4.342c-.415 0-.592-.084-.551-.27.01-.042.049-.111.09-.186l2.465-4.483ZM107.76 133.247a1.05 1.05 0 0 0 .402-.6c.058-.263-.085-.34-.659-.34h-.635l-.633 1.151h.734c.353 0 .589-.066.792-.211Zm-3.282-1.305c.08-.143.102-.186.113-.237.03-.143-.072-.229-.334-.262l.12-.213h4.99c.647 0 .977.06 1.191.196.223.152.306.44.234.77-.127.577-.582 1.255-1.101 1.669-.383.297-.745.44-1.352.535l.309.88c.133.39.164.416.617.416h.184l-.424.752c-.202.366-.327.433-.865.433h-1.138c-.464 0-.505-.032-.595-.406l-.472-2.075h-.233l-1.017 1.846a.607.607 0 0 0-.072.162c-.034.153.071.229.334.261l-.12.212h-2.373c-.416 0-.593-.084-.552-.27.01-.042.049-.111.09-.186l2.466-4.483ZM122.552 133.315c-.58.856-.956 1.567-1.04 1.95-.073.33.122.507.573.507.551 0 .896-.237 1.41-.966.52-.745.958-1.627 1.023-1.922.08-.357-.113-.543-.554-.543-.575 0-.92.237-1.412.974Zm3.703 1.347c-1.147 1.82-2.17 2.304-4.8 2.304-1.051 0-1.692-.085-2.102-.278-.465-.222-.65-.603-.54-1.104.22-.998 1.139-2.565 1.964-3.37.79-.763 1.898-1.067 3.817-1.067 2.141 0 2.872.397 2.638 1.465-.112.51-.469 1.237-.977 2.05ZM137.44 131.942c.08-.143.102-.186.114-.237.031-.143-.073-.229-.335-.262l.121-.213h2.41c.464 0 .532.027.587.221l.711 2.27.978-1.78c.08-.142.102-.185.113-.236.031-.143-.071-.229-.332-.262l.119-.213h1.957c.415 0 .58.086.54.264a.783.783 0 0 1-.078.194l-2.855 5.193h-1.565c-.514 0-.557-.025-.657-.347l-.795-2.507-1.18 2.143c-.08.144-.102.186-.114.238-.034.153.073.229.323.261l-.109.212h-1.957c-.415 0-.591-.084-.553-.263a.8.8 0 0 1 .091-.193l2.465-4.483M157.279 132.357c-.599 0-.832.112-1.145.535-.19.254-.533.813-.846 1.397-.251.475-.367.728-.403.89-.056.253.075.44.357.491.13.017.263.026.617.026h.82c.661 0 .845-.06 1.04-.339h.331l-.491.898c-.142.254-.285.406-.438.493-.33.166-.606.192-2.354.192-1.455 0-1.933-.05-2.286-.228-.407-.203-.54-.542-.433-1.034.077-.347.271-.787.636-1.498 1.26-2.398 1.981-2.95 3.852-2.95h3.155l-.369.679c-.207.382-.343.448-.87.448h-1.173M170.66 135.535c.2-.085.347-.246.385-.417.046-.21-.064-.32-.499-.456l-.751-.253c-.782-.28-1.043-.544-.953-.95.052-.237.31-.745.58-1.144.321-.457.752-.804 1.188-.949.306-.11.544-.136 1.18-.136h3.07l-.335.628c-.218.38-.331.45-.832.45h-1.04c-.44 0-.603.017-.76.067-.238.076-.395.237-.44.44-.039.177.042.253.418.381l.74.255c.465.16.687.262.821.373.187.152.25.364.195.617-.12.543-.732 1.492-1.203 1.856-.563.45-1.07.584-2.11.584h-2.421c-.354 0-.5-.007-.627-.041-.197-.051-.306-.162-.274-.315.013-.05.118-.252.162-.338l.486-.88h.343c-.061.277.109.337.806.337h.917c.6 0 .752-.026.954-.109" fill="#FFF"/><path d="M146.641 147.955h-.6l1.18-2.227h-.013l-1.98 2.227h-.355l.382-2.227h-.013l-1.182 2.227h-.6l1.463-2.759h.97l-.245 1.632 1.487-1.632h.97l-1.464 2.76Zm-2.335-2.227h-.84l-1.181 2.227h-.663l1.182-2.227h-.84l.282-.532h2.342l-.282.532Z" fill="#211D1D"/></g></svg>