<svg width="200" height="200" xmlns="http://www.w3.org/2000/svg" xmlns:xlink="http://www.w3.org/1999/xlink"><defs><path id="a" d="M0 1.61h197.719v154.066H0z"/></defs><g fill="none" fill-rule="evenodd"><g transform="translate(0 22.712)"><mask id="b" fill="#fff"><use xlink:href="#a"/></mask><path d="M55.562 155.63h-1.154v-5.832c-.707.289-1.393.556-2.053.802-5.784 2.17-9.637 3.206-9.637 3.206s-12.7 1.337-27.14-5.253c-5.96-2.72-9.43-7.398-11.418-10.872C3.143 135.904 0 124.437 0 124.437s5.194.265 12.41 0c.377-.014 4.93-.91 5.47-1.115 1.2-.844 7.135-5.807 12.714-9.566 6.286-4.238 13.36-7.907 17.705-10.14.416-.216.84-.42 1.268-.616-3.673-1.64-7.328-3.432-10.326-5.225-6.423-3.846-11.2-8.43-14.356-12.01-3.314-3.758-7.305-10.498-7.305-10.498s25.789-26.963 66.121-46.42c53.686-25.9 89.186-27.236 89.186-27.236s22.226 19.759 24.533 56.873c.433 6.924.49 17.275-.456 24.404-.928 6.973-3.007 16.183-3.007 16.183s-6.9 5.848-11.832 8.81c-5.707 3.426-14.45 6.551-15.55 7.046l-7.336 11.878s-1.277 1.382-2.466 2.507c-.858.813-2.137 1.97-3.537 2.967l6.726 23.398H55.534l.028-.047z" fill="#B2B1AE" mask="url(#b)"/></g><path d="M159.611 32.334c-1.732 4.273-2.31 4.273-2.02 9.345.348 6.139 9.813 6.408 13.564 2.135 2.335-2.658 3.175-6.14 3.175-6.14s13.277 16.02 17.028 45.392c1.672 13.079-3.463 34.978-3.463 34.978s-4.616 4.808-9.237 7.21c-3.977 2.07-17.028 7.475-17.028 7.475l-7.65 12.951s-3.146 3.193-5.627 4.673c-.902.539-2.084 1.069-3.181 1.513l5.779 20.114H67.248l15.875-26.702 3.07 1.22 1.84-5.49-4.91-1.336s-6.637 9.08-16.74 18.158c-10.102 9.078-25.688 12.282-25.688 12.282s-10.68.802-21.935-4.54c-8.386-3.978-10.68-13.349-10.68-13.349s5.196.532 8.37.532c3.177 0 5.775-1.6 5.775-1.6s21.644-15.222 29.44-19.225c7.793-4.006 19.914-4.54 19.914-4.54s-16.74-5.34-26.552-11.214C33.72 109.41 25.977 98.82 25.977 98.82s32.776-26.788 56.857-39.518c26.266-13.883 48.633-21.495 76.777-26.967" fill="#00214D"/><path d="M34.922 98.82c2.047-1.806 6.87-5.437 9.982-7.877 9.35-7.338 23.518-17.08 42.637-26.523 32.316-15.958 44.328-20.408 63.06-24.383-.007.79.34 3.73.64 4.58 4.616 13.083 21.935 5.339 22.8 3.47-.865 4.272-4.61 9.197-12.7 9.613-10.388.532-13.565-4.005-13.565-4.005s-36.365 8.543-57.149 18.158c-20.78 9.61-52.242 30.171-52.242 30.171l-3.463-3.204zm21.36 46.459c-7.505 4.805-12.323 11.439-16.886 14.153-4.04 2.402-8.514 4.273-15.151 1.868-.689-.249-3.563-2.11-4.114-2.524a20.088 20.088 0 0 0 3.046-.901c1.789-.683 3.063-1.506 3.063-1.506.251-.176 21.551-15.117 28.788-18.839 6.175-3.174 22.324-5.335 22.324-5.335s-13.565 8.279-21.07 13.084" fill="#AF1C2E"/><path d="M92.573 149.035c.859-2.93 1.982-6.647 2.961-9.496 2.42-7.033 7.072-17.756 7.072-17.756s-3.751 1.868-6.205-.934c-4.207-4.808-3.393-14.903-1.011-17.492 3.32-3.601 8.66-2.402 8.66-2.402l2.451 4.273s5.34.155 10.826-5.34c5.195-5.207 5.626-8.678 5.626-8.678s8.093-2.603 20.06-.937c10.537 1.471 17.174 7.078 17.174 7.078l2.019 8.011s-7.077-3.301-15.44-4.407c-14.141-1.868-18.904-.802-18.904-.802l-8.084 6.945s1.444-.27 4.044-.534c2.596-.268 5.482.534 5.482.534l-4.328 2.403s1.432 1.412 6.06 1.868c3.142.309 7.268.388 11.4-1.202l1.154-2.002s1.446-.802 3.177-.535c1.732.267 2.162 1.069 2.162 1.069l1.156 13.483s-2.598-1.068-4.184-1.068c-1.3 0-8.083 1.735-8.083 1.735s-.97-.957-1.154-1.735c-.33-1.388 1.589-3.337 1.589-3.337s-5.052.267-5.486 3.204c-.633 4.308 5.341 4.538 5.341 4.538l8.514 4.408-7.649-1.336s-2.837.27-4.474.934c-1.7.692-3.895 2.537-3.895 2.537s2.163-.267 3.75-.4c2.343-.197 4.331.268 6.638.802 2.31.532 5.919.934 5.919.934s-1.875 2.802-5.34 2.27c-3.463-.534-7.649-1.069-7.649-1.069s-.288 1.202 1.73 2.805c2.024 1.6.577.532 4.045 1.6 3.463 1.07 7.358 4.139 7.358 4.139s-6.435-1.633-13.565.667c-6.205 2.003-11.426 2.707-17.463-1.067-5.34-3.339-10.39-11.615-10.39-11.615s-2.164 5.474-3.175 12.015a2975.09 2975.09 0 0 1-1.46 9.243l-8.429-3.35z" fill="#B2B1AE"/><path d="M89.762 121.249s-8.37-.268-8.949 5.072c-.576 5.342 4.333 8.813 4.333 8.813s-.577-3.739.577-7.744c1.153-4.006 4.04-6.141 4.04-6.141" fill="#AF1C2E"/><path d="M116.116 114.407s-1.21 3.467-1.53 5.774c-.317 2.259-.129 5.846-.129 5.846s1.552 1.034 3.447 2.163c1.895 1.13 5.772 1.736 5.772 1.736s-2.258-2.94-4.607-7.514c-2.353-4.575-2.953-8.005-2.953-8.005" fill="#00214D"/><path d="M155.28 113.238l1.444 11.48s4.16-3.427 4.04-6.673c-.144-3.873-5.484-4.807-5.484-4.807" fill="#B2B1AE"/><path fill="#AF1C2E" d="M116.633 165.573H78.966l7.197-12.11z"/><path fill="#00214D" d="M58.75 168.134h1.068v-1.092h-3.426v1.092h1.068v3.87h1.29zm1.347 3.868h1.284l.414-2.856h.012l1.141 2.856h.512l1.193-2.856h.014l.36 2.856h1.291l-.749-4.96h-1.286l-1.065 2.653-1.01-2.654H60.94z"/></g></svg>