<svg width="200" height="200" fill="none" xmlns="http://www.w3.org/2000/svg"><path d="M37.734 70.305c-2.304 0-7.304-.04-7.304-.04v15.587c5.976-.782 15.43-.86 15.43-9.22.038-5.155-4.297-6.171-8.126-6.327Z" fill="#091F40"/><path d="M191.484 56.242h-82.226s-7.774 15.04-11.875 22.5l-10.899-22.5H8.242l-4.18 18.32L10 74.406v36.68c0 .312.04.391 0 .43 0 0-.234.195-1.367.586l-4.414 1.484 4.765 16.992s4.727-2.656 9.297-4.609c2.93-1.25 6.563-2.657 10.664-3.907.625.938 1.172 1.915 1.797 3.165 2.774 5.507 2.774 11.328 2.54 15.625 4.57 1.211 5.35 1.64 12.109.468 3.984-.664 9.218-3.867 10.195-4.14 9.062-2.696 12.578-2.227 17.187-.157l-2.382-6.679c6.406.117 11.25.469 18.32 1.601 11.797 1.875 24.609 6.993 29.492 8.282 9.688 2.578 17.383 3.476 25 3.828 18.125.781 31.719-8.438 31.719-8.438l-7.813-9.062.938-4.844c9.766.312 16.289-2.656 19.531-9.297 1.445-3.047 1.992-6.406 2.227-9.57.195-3.008.156-6.328.156-9.727V74.523l5.898.313-4.375-18.594Zm-22.851 78.086-.703.391c-.313.195-1.016.625-2.11 1.172-1.093.586-2.578 1.25-4.531 1.914-3.867 1.289-9.414 2.461-16.953 2.226-11.719-.312-21.524-2.968-30.508-5.742-4.492-1.367-8.789-2.812-13.047-3.984-4.219-1.172-8.437-2.11-12.734-2.539-12.734-1.289-26.64-1.719-36.719 1.406-5.664 1.758-8.242 3.086-13.086 5.976l-.976.586.039-1.171c.078-3.594 0-4.922-1.72-8.985-.937-2.187-1.405-3.164-1.835-3.828a8.606 8.606 0 0 0-.742-.937c-.313-.352-.664-.743-1.133-1.29l-.43-.468.47-.43c3.75-3.242 7.773-5.078 15.273-7.266l.117-.039c6.328-1.836 16.133-3.711 29.96-2.695 6.602.469 14.141 1.602 22.657 3.672 5.898 1.445 13.75 4.531 22.656 7.031 8.867 2.5 18.75 4.375 28.75 3.438 2.383-.235 7.891-1.719 12.735-3.633l1.093-.43-1.836 9.492 5.313 6.133Zm17.148-63.906c-.898.898-.742 3.516-.742 4.726v17.97c0 12.616.899 23.866-16.016 23.671l.665-3.32s-3.165 1.484-7.657 2.969c-12.383-1.407-27.226-8.008-27.226-21.68 0-7.735.312-15.469.312-23.164 0-2.969-1.133-3.672-3.476-3.867-.899.039-1.875.195-2.539.78-.86.704-.938 1.876-.977 2.891-.273 9.532-.469 19.141-.469 28.672 0 3.282 1.524 3.907 4.571 4.219l-1.758 5.703c-6.68-.781-12.5-1.445-20.547-1.758l-1.563-5.82c1.172.039 2.813.117 3.75-.625 1.485-1.172 1.172-14.102 1.211-16.836-3.398 7.07-10.468 20.078-10.468 20.078l-11.094-.156L80.43 83.703c-.078 5 .078 10 .078 14.961 0 2.891 1.21 3.438 3.867 3.438h.664l-1.094 3.515c-13.672-1.562-26.64-.898-37.93 1.992l-.703.196c-1.054-2.852-1.796-6.094-2.07-7.188-.86-3.555-2.07-6.64-6.289-6.64-2.148 0-4.453.585-6.562.976v10.742c0 1.758.195 3.477 2.382 3.477.743 0 1.524-.156 2.266-.352l-.781 3.321c-3.516 1.875-6.446 3.984-8.633 6.172l.078.078c-4.258 1.445-8.515 3.086-13.594 5.273l-1.914-6.797c2.93-1.015 4.688-2.383 4.688-5.703V73.977c0-3.008-.742-4.454-3.945-4.454h-.704l1.875-8.32h26.68c9.805 0 22.266 2.617 22.266 14.18 0 6.719-4.922 10.937-10.625 13.476 12.265 1.797 6.484 14.532 13.906 14.649.742-.196 1.445-.469 1.914-.938.781-.781.898-1.875.938-2.93.234-9.413-.04-18.906-.04-28.32 0-3.36-1.64-3.672-4.609-3.632l1.953-6.446h17.149l15.468 30.742c5.625-10.234 11.25-20.43 16.758-30.742h40.195l1.641 7.031c-1.133-.039-2.851-.078-3.75.782-.273.273-.625 3.125-.625 3.125l-.234 22.617s-.625 10.039 11.406 11.875c1.523 0 3.789-.039 5-.977 1.797-1.367 2.344-3.672 2.383-5.82.234-8.867.39-17.813.39-26.719 0-3.554-1.132-4.414-4.609-4.531l1.992-7.383h19.805l1.992 8.399c-1.133-.157-2.695-.196-3.672.78Z" fill="#091F40"/><path d="m165.117 118.781-1.094.43c-4.843 1.875-10.351 3.398-12.734 3.633-10 .937-19.883-.977-28.75-3.438-8.906-2.5-16.758-5.625-22.656-7.031-8.516-2.07-16.016-3.203-22.656-3.672-13.79-.976-23.633.86-29.961 2.695l-.118.04c-7.5 2.187-11.523 4.023-15.273 7.265l-.469.43.43.469c.469.546.82.937 1.133 1.289.273.312.508.586.742.937.469.664.937 1.641 1.836 3.828 1.719 4.024 1.758 5.391 1.719 8.985l-.04 1.172.977-.586c4.844-2.891 7.422-4.219 13.086-5.977 10.078-3.125 23.945-2.695 36.719-1.406 4.297.429 8.476 1.367 12.734 2.539 4.258 1.172 8.555 2.617 13.047 3.984 8.984 2.774 18.789 5.43 30.508 5.742 7.578.196 13.125-.937 16.953-2.226 1.914-.664 3.438-1.328 4.531-1.914 1.094-.547 1.758-1.016 2.11-1.172l.703-.391-5.352-6.015 1.875-9.61Z" fill="#E31937"/><path d="m193.203 77.922 6.797.39-5.977-25.273h-86.679s-6.758 13.125-9.844 18.828L88.437 53H5.665L0 77.922l6.797-.195.078 31.64-6.563 2.227 6.68 23.828s8.086-4.57 12.54-6.485a100.343 100.343 0 0 1 7.734-2.929c.156.273.273.547.43.82 2.343 4.688 2.421 9.727 2.187 13.867l-.156 2.774 2.695.742c1.172.312 2.11.586 2.969.781 1.015.235 1.914.391 2.93.469 2.07.156 4.296-.117 7.695-.703 2.5-.43 5.156-1.563 7.148-2.5.977-.469 1.875-.938 2.617-1.289l.86-.43c8.554-2.539 12.89-1.484 15.78-.508l5.47 1.914-2.461-7.968c4.062.195 7.89.625 12.851 1.406 11.64 1.836 24.297 6.914 29.102 8.203 9.961 2.656 17.89 3.594 25.742 3.945 19.258.821 33.594-8.906 33.789-9.023l3.203-2.149-5.273-6.093-4.844-5.938 1.602.039s1.679.117 4.57-.234a24.06 24.06 0 0 0 5.273-1.367c3.946-1.797 7.032-4.688 9.063-8.907 1.719-3.554 2.305-7.422 2.539-10.742.234-3.086.156-6.484.156-9.922V77.922Zm-3.242-3.399v18.595c0 3.398.039 6.679-.156 9.726-.235 3.164-.742 6.523-2.227 9.57-3.203 6.68-9.765 9.609-19.531 9.297l-.938 4.844 7.813 9.062s-13.594 9.219-31.719 8.438c-7.656-.313-15.351-1.211-25-3.828-4.883-1.29-17.695-6.407-29.453-8.282-7.07-1.132-11.914-1.484-18.32-1.601l2.382 6.679c-4.609-2.07-8.124-2.539-17.187.157-.977.273-6.21 3.476-10.195 4.14-6.758 1.133-7.54.742-12.11-.468.235-4.297.235-10.079-2.539-15.625a31.583 31.583 0 0 0-1.797-3.165 102.705 102.705 0 0 0-10.664 3.907c-4.57 1.953-9.297 4.609-9.297 4.609l-4.765-16.953 4.414-1.484c1.133-.391 1.367-.586 1.367-.586v-37.11l-5.937.157 4.101-18.399h78.242l10.899 22.5c4.101-7.46 11.875-22.5 11.875-22.5h82.226l4.414 18.594-5.898-.274Z" fill="#B0B3B2"/><path d="m167.773 61.164-1.992 7.383c3.477.117 4.61 1.016 4.61 4.531 0 8.906-.157 17.813-.391 26.719-.039 2.148-.586 4.453-2.383 5.82-1.25.938-3.476.977-5 .977-12.031-1.836-11.406-11.875-11.406-11.875l.234-22.617s.352-2.852.625-3.125c.899-.86 2.617-.82 3.75-.782l-1.64-7.03h-40.196c-5.507 10.273-11.132 20.507-16.757 30.741l-15.47-30.742H64.61l-1.953 6.445c2.969-.078 4.61.274 4.61 3.633 0 9.414.273 18.906.039 28.32-.04 1.055-.157 2.188-.938 2.93-.469.469-1.172.742-1.914.938-7.422-.117-1.64-12.852-13.906-14.649 5.703-2.539 10.625-6.758 10.625-13.476 0-11.563-12.461-14.18-22.266-14.18h-26.68l-1.874 8.32h.703c3.242 0 3.945 1.446 3.945 4.453v37.188c0 3.32-1.758 4.726-4.688 5.703l1.915 6.797c5.078-2.227 9.375-3.867 13.593-5.273l-.078-.079c2.149-2.148 5.117-4.296 8.633-6.171l.781-3.321c-.742.196-1.484.352-2.265.352-2.188 0-2.383-1.68-2.383-3.477V94.875c2.11-.39 4.414-.977 6.562-.977 4.258 0 5.43 3.047 6.29 6.641.273 1.133 1.015 4.375 2.07 7.188l.703-.196c11.289-2.89 24.258-3.515 37.93-1.992l1.093-3.516h-.664c-2.656 0-3.867-.546-3.867-3.437 0-5-.156-10-.078-14.961l11.328 21.172 11.094.156s7.07-13.008 10.469-20.078c-.04 2.734.312 15.625-1.211 16.836-.977.781-2.618.703-3.75.625l1.562 5.82c8.008.313 13.867.977 20.547 1.758l1.758-5.703c-3.008-.313-4.571-.938-4.571-4.219 0-9.531.196-19.14.469-28.672.039-1.015.117-2.187.977-2.89.664-.547 1.64-.743 2.539-.782 2.383.157 3.476.899 3.476 3.868 0 7.734-.312 15.468-.312 23.164 0 13.672 14.844 20.273 27.226 21.679 4.493-1.484 7.657-2.968 7.657-2.968l-.664 3.32c16.914.195 16.015-11.055 16.015-23.672V75.07c0-1.21-.156-3.789.742-4.726.938-.938 2.54-.938 3.75-.86l-1.992-8.398-19.883.078ZM30.43 85.852V70.266s5 .039 7.304.039c3.868.156 8.164 1.172 8.164 6.328 0 8.36-9.492 8.437-15.468 9.219Z" fill="#fff"/><path d="M50.781 121.789a.58.58 0 0 1 .04.234c0 .157-.079.274-.274.43-1.016.899-1.758 1.289-2.734 1.602-2.07.703-3.282.156-3.282-1.368 0-1.523 1.328-3.007 3.36-3.71 1.484-.508 2.89-.43 2.89.078 0 .039 0 .117-.039.195h.235l1.484-3.555h-.234c-.157.274-.274.391-.47.43-.507.156-1.874-.156-4.179.625-3.71 1.289-5.898 4.18-5.898 6.914 0 2.813 2.148 4.18 6.133 2.813 2.773-.977 4.101-2.461 4.414-2.579.078-.039.195 0 .351.118l.234-.196-1.796-2.343-.235.312ZM61.367 113.469c-3.36.469-5.586 2.969-5.586 5.703 0 2.734 2.266 4.609 5.586 4.141 3.32-.469 5.586-2.969 5.586-5.704 0-2.734-2.226-4.609-5.586-4.14Zm0 7.617c-1.758.234-2.851-.703-2.851-2.305 0-1.601 1.132-2.89 2.812-3.125 1.719-.234 2.813.742 2.813 2.305 0 1.562-1.055 2.891-2.774 3.125ZM80.117 120.695l-5.86-.39v-6.485c0-.351.079-.429.47-.508v-.234l-3.594-.234v.234c.39.117.469.195.469.547v7.93c0 .351-.079.429-.47.507v.235l8.985.625c.352.039.43.117.508.508h.234v-3.164h-.234c-.078.351-.156.429-.508.429ZM89.375 114.367c-3.36-.547-5.586 1.289-5.586 4.024 0 2.734 2.266 5.273 5.586 5.82 3.32.547 5.586-1.289 5.586-4.023 0-2.735-2.227-5.274-5.586-5.821Zm0 7.656c-1.758-.273-2.852-1.523-2.852-3.164 0-1.601 1.133-2.539 2.813-2.265 1.719.273 2.812 1.562 2.812 3.164.04 1.601-1.054 2.539-2.773 2.265ZM106.289 118.391c.391.195.469.312.469.625v4.57l-3.985-5.391c-.156-.234-.273-.351-.273-.508 0-.117.117-.195.352-.234v-.234l-4.18-1.055v.234c.39.196.469.313.469.625v7.93c0 .352-.079.43-.47.43v.234l3.204.781v-.234c-.391-.195-.469-.312-.469-.625v-5.43l4.766 6.407c.156.234.273.39.273.507 0 .118-.117.196-.351.235v.234l3.437.86v-.274c-.39-.195-.468-.312-.468-.625v-7.93c0-.351.078-.429.468-.39v-.235l-3.242-.82v.313ZM114.023 120.578c.391.195.469.313.469.664v7.93c0 .351-.078.43-.469.391v.234l3.594 1.016v-.274c-.39-.195-.469-.312-.469-.664v-7.93c0-.351.079-.39.469-.39v-.196l-3.594-1.015v.234ZM131.992 133.82l-3.008-8.359a2.507 2.507 0 0 1-.156-.586c0-.195.078-.234.274-.234v-.235l-4.727-1.172v.235c.195.078.273.156.273.351 0 .078-.039.274-.156.508l-2.5 6.211c-.195.508-.312.938-.859 1.094v.234l3.242.821v-.235c-.273-.117-.391-.312-.391-.547 0-.078 0-.195.078-.273l.391-.938 4.414 1.094.391 1.133c.078.234.117.351.117.43 0 .156-.117.234-.352.234v.234l3.477.86v-.235c-.352-.195-.43-.39-.508-.625ZM125 129.25l1.523-3.789 1.641 4.609-3.164-.82ZM145.117 133.898l-5.859-.507v-6.485c0-.351.078-.429.469-.469v-.234l-3.594-.312v.234c.39.117.469.234.469.547v7.93c0 .351-.079.429-.469.468v.235l8.984.781c.352.039.43.117.508.508l.273.039v-3.164l-.273-.039c-.078.429-.156.508-.508.468ZM154.805 129.562c-2.032.118-3.086.235-3.086-.507 0-.547.859-1.133 2.344-1.289 1.757-.196 3.437.195 3.437.703 0 .039-.039.117-.039.234l.234.078 1.172-2.656-.234-.078c-.117.234-.235.273-.43.273-.547.078-2.07-.547-4.258-.312-2.89.312-4.648 1.758-4.648 3.476 0 1.719 1.484 2.422 4.414 2.227 1.758-.117 2.93-.274 2.93.781 0 .664-.821 1.211-2.344 1.406-2.266.235-4.024-.39-4.024-1.015 0-.039 0-.117.039-.156l-.234-.079-1.328 3.047.234.078c.157-.195.235-.312.352-.312.195-.039 1.719.664 4.922.351 3.047-.312 4.922-1.953 4.922-3.789-.039-1.992-1.446-2.617-4.375-2.461Z" fill="#fff"/><path d="M175.586 125.656a3.935 3.935 0 0 1-3.945 3.946 3.935 3.935 0 0 1-3.946-3.946 3.935 3.935 0 0 1 3.946-3.945c2.187-.039 3.945 1.758 3.945 3.945Z" fill="#B0B3B2"/><path d="M174.57 125.617c0 1.602-1.25 2.891-2.929 2.891-1.641 0-2.93-1.289-2.93-2.891 0-1.601 1.289-2.851 2.93-2.851 1.64 0 2.929 1.289 2.929 2.851Zm-5.156 0c0 1.289.938 2.266 2.227 2.266 1.25 0 2.187-1.016 2.187-2.266 0-1.289-.937-2.305-2.187-2.305-1.289.04-2.227 1.055-2.227 2.305Zm1.758 1.524h-.664v-2.852a7.467 7.467 0 0 1 1.094-.078c.546 0 .781.078.976.195.156.117.274.352.274.625 0 .313-.235.547-.586.664v.039c.273.118.429.313.507.703.079.43.157.625.196.704h-.703c-.078-.118-.157-.352-.235-.704-.039-.312-.234-.468-.586-.468h-.312v1.172h.039Zm.039-1.641h.312c.352 0 .664-.117.664-.43 0-.273-.195-.429-.624-.429-.157 0-.313 0-.352.039v.82Z" fill="#091F40"/></svg>