<svg width="200" height="200" xmlns="http://www.w3.org/2000/svg"><g fill="none"><path d="M197.799 186.765l-.266-29.07-15.692.234-34.461-52.362c24.19-9.116 36.29-23.43 36.29-42.939 0-13.489-5.543-24.797-16.604-33.915-11.692-9.479-27.45-14.225-47.281-14.225l-116.517.149v28.845l13.302.076v114.371l-13.302-.234v29.07h82.637v-29.07l-13.753.234v-46.643h24.494l29.423 46.74-17.314-.29-.07 29.042 89.114-.013zM119.935 76.927c-5.6 4.384-13.878 6.568-24.86 6.568h-22.06V43.558h27.967c9.107 0 16.048 2.461 20.813 7.387 3.315 3.28 4.966 7.388 4.966 12.312 0 5.29-2.278 9.85-6.826 13.67z" fill="#E51635"/><path d="M73.728 82.782h21.346c10.76 0 18.973-2.156 24.413-6.408 4.354-3.664 6.561-8.076 6.561-13.117 0-4.712-1.6-8.683-4.754-11.806-4.615-4.769-11.445-7.18-20.312-7.18H73.728v38.511zm21.346 1.426H72.302V42.845h28.68c9.268 0 16.444 2.558 21.327 7.603 3.424 3.39 5.165 7.704 5.165 12.809 0 5.486-2.382 10.269-7.08 14.216l-.019.016c-5.697 4.458-14.209 6.72-25.3 6.72zm14.393 74.255l-.067 27.602 87.678-.013-.25-27.632-15.366.228-35.167-53.434.834-.314c23.773-8.959 35.828-23.182 35.828-42.272 0-13.2-5.5-24.423-16.344-33.366-11.51-9.329-27.265-14.06-46.828-14.06L3.98 15.347v27.426l13.302.075v115.806L3.98 158.42v27.631h81.211v-27.63l-13.753.233v-48.082h25.6l.21.332 30.124 47.857-17.906-.299zm-1.496 29.028l.073-30.48 16.72.281L96.251 112H72.865v45.205l13.753-.234v30.508H2.555V156.97l13.302.234V44.267L2.555 44.19V13.924l117.228-.149c19.9 0 35.96 4.839 47.733 14.383 11.192 9.23 16.867 20.826 16.867 34.47 0 19.52-12.083 34.08-35.92 43.289l33.76 51.294 16.016-.24.28 30.507-90.548.013z" fill="#200"/><path d="M74.439 82.066h20.635c10.801.003 18.747-2.16 23.978-6.263 4.267-3.625 6.264-7.693 6.283-12.546-.016-4.609-1.495-8.264-4.564-11.323-4.44-4.577-10.924-6.941-19.792-6.95h-26.54v37.082zm-2.85 2.854V42.13h29.39c9.347-.01 16.744 2.552 21.82 7.8 3.579 3.526 5.403 8.086 5.388 13.327.017 5.713-2.533 10.752-7.338 14.762l-.917-1.095.88 1.124c-5.973 4.667-14.58 6.869-25.738 6.872H71.59zm38.526 100.426l86.246-.01-.242-26.197-15.043.228-35.868-54.51 1.669-.626c23.903-9.08 35.318-22.77 35.364-41.603-.02-13.092-5.3-23.897-16.075-32.808-11.376-9.222-26.77-13.903-46.381-13.908l-115.09.145v26.005l13.302.078v117.238l-13.303-.235v26.193h79.783v-26.194l-13.751.236v-49.521H97.43l31.247 49.641-18.505-.315-.058 26.163zm-2.783-29.06l16.123.267-27.597-43.844H73.575v43.769l13.754-.234v31.944H1.842v-31.947l13.302.234V44.974l-13.302-.077V13.211l117.94-.149c20.05-.005 36.174 4.808 48.187 14.549 11.341 9.317 17.145 21.128 17.127 35.017.04 19.72-12.159 34.435-35.551 43.633l33.058 50.228 16.34-.245.282 30.507-1.426.014v-1.429 1.43l1.426-.015.014 1.437-91.987.016.08-31.917z" fill="#231F20"/></g></svg>