<svg width="200" height="200" xmlns="http://www.w3.org/2000/svg"><g fill-rule="nonzero" fill="none"><path d="M.037 91.225s-.512 32.53 37.207 49.77l-30.29 40.138c55.07 10.872 94.82 7.023 121.663-.277 76.099-23.018 70.782-72.48 70.782-72.48-1.241-40.225-48.386-55.048-48.386-55.048l27.643-36.271c-38.622-6.836-69.24-5.523-92.508-1.137 0 0-88.225 14.516-86.11 75.305" fill="#FFF"/><path d="m167.292 23.543-20.136 25.408c-34.386.04-44.354 11.987-44.354 11.987-9.16 9.85.547 21.063 1.624 22.436-49.126-33.64 5.456-48.263 11.012-50.044 0 0 18.013-5.14 51.854-9.787" fill="#024D36"/><path d="M152.583 150.931c11.26-28.489-29.753-49.749-38.255-55.347-8.284-5.455-42.86-23.452-41.103-40.56 3.228-31.418 93.602-35.136 93.602-35.136-39.883-5.697-119.853-4.837-122 37.31-1.222 23.195 31.814 41.474 39.214 46.267 10.46 6.763 45.295 24.905 41.884 42.38-3.038 15.549-25.287 18.671-25.287 18.671s22.89-12.36 12.424-30.166c-.315.433-2.403 23.745-56.845 15.915l2.359-28.626-42.54 55.87s117.779 20.908 136.547-26.578" fill="#024D36"/><path d="M170.459 72.359c-.234 17.434-18.805 27.362-40.942 25.272 2.144 1.022 13.884 6.858 24.107 16.33 14.6-3.104 23.95-20.96 16.835-41.602" fill="#B09247"/><path d="M174.117 70.91c12.446 32.132-2.75 47.988-13.839 50.116 12.495 15.138 8.727 28.712 8.192 30.808 37.01-26.963 28.716-64.908 5.647-80.924" fill="#024D36"/><path d="M28.866 126.638c.233-17.436 18.803-27.366 40.942-25.275-2.146-1.025-13.886-6.86-24.109-16.324-14.6 3.102-23.95 20.952-16.833 41.6" fill="#B09247"/><path d="M25.208 128.088C12.758 95.95 27.958 80.1 39.045 77.972c-12.493-15.137-8.726-28.711-8.19-30.81-37.012 26.967-28.715 64.909-5.647 80.926" fill="#024D36"/></g></svg>