<svg width="200" height="200" xmlns="http://www.w3.org/2000/svg"><g fill="none"><path fill="#B2B1B1" d="M199.879 60.216H188.06l.004-.011H74.4l-1.739 5.051-5.149-5.051H40.118L19.136 72.686 9.593 100.4l3.81 3.226H7.878L0 126.5l13.955 13.004h28.187l6.168-3.528-1.215 3.528h62.668l1.757-5.104 6.648 5.104h24.507l22.278-12.18 20.091-58.351h11.884l2.95-8.758"/><path d="M194.512 66.799l.748-2.654c.104-.349.251-.78.4-1.26h-.049c-.252.398-.568.928-.843 1.343l-1.676 2.504h-.928l.072-2.57c.037-.349.086-.88.124-1.278h-.049c-.143.415-.308.846-.468 1.26l-1.08 2.655h-.862l1.886-4.512h1.343l.02 2.206c-.021.348-.051.68-.095 1.145h.016c.258-.415.49-.797.703-1.128l1.545-2.223h1.294l-1.205 4.512h-.896zm-3.323-4.512l-.258.746h-1.442l-1.295 3.766h-.895l1.295-3.766h-1.444l.258-.746h3.781zm-56.718-.23h-58.75l-2.264 6.575-6.703-6.575H40.627L20.666 73.931l-8.91 25.873 6.701 5.673H9.198l-7.055 20.49 12.541 11.686H41.65l10.013-5.727-1.972 5.727h58.75l2.166-6.288 8.19 6.288H142.2l21.234-11.609 22.032-63.987H134.47" fill="#444142"/><path d="M56.376 91.393H68.46l-2.78 8.074-9.304-8.074zm74.279-26.498H77.584l-3.217 9.342-9.52-9.342H40.595l-17.58 10.457-7.89 22.92 11.866 10.046H11.059l-5.57 16.178 11.074 10.319H41.72l14.68-8.398-2.89 8.398h53.07l2.925-8.495 11.065 8.495h21.741l18.808-10.281 20.535-59.639h-50.998z" fill="#FFF"/><path fill="#CE0F3E" d="M68.125 88.596H47.17l2.995-8.703h-4.358L41.36 92.811l12.65.898 10.443 9.062-6.982 20.274-15.683 8.971H18.412l-9.627-8.97 4.108-11.933h22.165l-2.996 8.703h4.358l4.572-13.279-11.954-.806-10.598-8.97 6.89-20.008 15.23-9.06h22.408l9.234 9.06-4.077 11.843m70.261 31.22h-4.481l17.948-52.123h-22.166l-19.059 55.352 11.687 8.971h20.107l16.411-8.97 19.06-55.353h-21.56l-17.947 52.123m-33.639 12.2H83.186l9.113-26.463h-4.362l-9.111 26.463H57.268l22.149-64.323h21.557L92.139 93.35H96.5l8.835-25.657h21.56l-22.148 64.323"/><path fill="#FFF" d="M50.477 86.136h1.959l2.321-6.741h-1.96l-2.32 6.741M15.79 115.53h15.29l.675-1.959h-17.25l-2.823 8.2 1.482 1.381 2.625-7.622M52.36 96.118l-12.334-.877-.628 1.825 15.371 1.142-2.41-2.09m-13.041 28.115l6.21-18.037-1.914-.13-5.58 16.208h-7.316l-.675 1.959h9.275M28.649 79.944l13.17-7.834h21.494l-1.997-1.959H40.533l-13.17 7.834-6.007 17.446 1.517 1.284 5.776-16.771m103.911 42.33l-.675 1.959h9.396L159.23 72.11h14.684l.675-1.959h-16.643l-17.948 52.123h-7.438m.025-50.164h15.287l.675-1.959H131.3l-17.736 51.511 1.55 1.19 17.47-50.742m-35.696 32.943h-1.96l-8.437 24.505h1.96l8.437-24.505m-6.093-9.245l-.674 1.96h9.276l8.834-25.658h14.684l.675-1.959h-16.644l-8.834 25.657h-7.317M82.313 72.11h14.682l.674-1.959H81.03l-20.457 59.407h1.96l19.78-57.448"/></g></svg>