<svg width="200" height="200" xmlns="http://www.w3.org/2000/svg"><g fill="none" fill-rule="evenodd"><path d="M187.437 68.98c-2.478-38.802-72.003-29.154-78.584-29.284-55.358-1.097-66.58 11.082-87.515 27.996 8.384-2.945 17.512-3.749 17.512-3.749C7.69 79.161 0 109.287 0 109.287c12.802-10.145 23.938-14.49 23.938-14.49-14.976 8.695-21.99 23.384-21.99 23.384 13.892-7.203 27.046-9.11 33.51-9.61-13.011 7.453-9.782 20.59-9.782 20.59-5.531 9.873-2.262 18.205-2.262 18.205l-3.19 7.674 15.577 3.896.855-.865s5.47 2.245 16.64 2.245c13.044 0 18.662-4.43 18.662-4.43l8.542 5.124 2.322-2.115s3.184 1.421 10.732 1.421c19.244 0 22.552-11.515 22.552-11.515s5.649 11.514 25.033 11.514c20.632 0 27.973-12.881 27.973-25.3v-11.842l2.352-.208v-4.872l6.71-1.976s21.6-7.115 21.68-27.345c.05-12.62-12.417-19.792-12.417-19.792" fill="#FFF"/><path d="M184.571 70.23c-.577-22.008-20.834-26.074-41.008-28.496-8.177-.644-17.32-.609-25.667.336-7.288.539-32.15-.241-47.715 2.522-18.896 3.356-31.082 12.715-35.32 15.894 0 0 14.657-3.001 26.137-1.412 0 0-1.227.259-3.48 1.117C19.952 68.972 7.54 99.327 7.54 99.327s28.38-19.768 55.632-17.724l-.055.11c-2.875.562-37.087 8.973-51.921 28.046 7.24-3.356 25.254-6.535 35.954-5.036-2.354 1.896-4.521 4.088-6.495 6.41-7.144 2.716-11.486 8.22-11.486 15.34 0 .847.071 1.66.207 2.439-1.854 3.84-2.816 6.454-2.816 6.454s1.986-1.473 4.169-2.623a12.26 12.26 0 0 0 2.151 2.776l-7.539 18.003 9.904 2.459.94-.943c3.214 1.061 8.692 2.677 17.457 2.677 9.14 0 14.987-2.163 18.727-5.014l8.22 4.897s1.718-1.553 1.863-1.682c2.418.758 6.36 1.8 11.323 1.8 2.719 0 7.78 0 12.326-2.058 4.09-1.852 8.967-5.984 8.967-15.153V120.98l.704-.056.705.056v14.965c0 13.836 9.075 21.77 24.897 21.77 15.821 0 24.896-7.934 24.896-21.77V120.98l1.979-.157v-10.076c3.432-.508 6.567-1.162 9.514-2.662.394 1.36-.963 3.962-2.37 4.455 18.837-4.285 32.594-28.33 9.178-42.31" fill="#231F20" fill-rule="nonzero"/><path d="M184.447 81.76c9.712 6.906.336 19.957.336 19.957 4.454-13.015-6.865-15.566-6.865-15.566l-5.192 10.11c-11.987 3.786-15.102-5.338-15.102-5.338L128.57 99.39l26.423-1.702c9.373 9.706 24.376 1.62 24.376 1.62-4.027 5.39-13.967 9.033-26.147 5.314-16.392-5.001-23.885-1.545-23.885-1.545-13.686-1.195-6.365-6.748-6.365-6.748 27.253-.664 38.57-12.924 38.57-12.924 1.63-4.26 14.89-10.642 14.89-10.642 10.623-.54 12.531 7.76 12.531 7.76-2.04-1.464-4.517 1.236-4.517 1.236" fill="#BDBCBC"/><path d="M153.03 75.126c.027.063.056.126.078.193a4.05 4.05 0 0 1-2.525 5.142 4.048 4.048 0 0 1-5.329-3.319 2.283 2.283 0 0 1-1.157-1.315 2.297 2.297 0 0 1 1.428-2.912 2.28 2.28 0 0 1 1.818.153l.05-.025c-2.666-1.085-5.13-2.277-6.282-3.344 0 0-4.826 9.368 5.27 12.712 0 0 7.976 2.415 10.953-5.903 0 0-1.839-.545-4.304-1.382" fill="#A21A34"/><path d="M141.134 69.817c-.289.61-1.937 4.362-.553 7.75.891 2.185 2.85 3.791 5.822 4.775.018.005 2.008.593 4.33.164 2.126-.393 4.975-1.745 6.507-5.95-.359-.108-1.99-.603-4.082-1.31a4.128 4.128 0 0 1-5.702 5.086 4.099 4.099 0 0 1-2.085-2.371 4.151 4.151 0 0 1-.184-.771 2.348 2.348 0 0 1-1.158-1.34 2.344 2.344 0 0 1 .115-1.806 2.353 2.353 0 0 1 2.3-1.317c-2.594-1.103-4.378-2.08-5.31-2.91zm7.793 12.979c-1.48 0-2.539-.307-2.568-.316-3.016-.999-5.004-2.633-5.913-4.858-1.529-3.745.58-7.915.6-7.957l.044-.084.07.064c1 .926 3.106 2.047 6.26 3.331l.143.059-.137.073a1.05 1.05 0 0 1-.052.025l-.033.016-.032-.017a2.21 2.21 0 0 0-3.035.976 2.2 2.2 0 0 0-.108 1.695c.191.56.59 1.013 1.12 1.274l.035.017.005.039a3.956 3.956 0 0 0 2.195 3.069 3.947 3.947 0 0 0 3.038.19 3.984 3.984 0 0 0 2.48-5.05 2.205 2.205 0 0 0-.054-.14l-.082-.197.15.052c2.435.827 4.284 1.376 4.302 1.381l.073.022-.026.072c-1.896 5.299-5.85 6.264-8.475 6.264z" fill="#A21A34" fill-rule="nonzero"/><path d="M147.01 77.256a2.291 2.291 0 0 0 1.427-2.911 2.284 2.284 0 0 0-1.094-1.277 2.28 2.28 0 0 0-1.818-.153 2.297 2.297 0 0 0-1.428 2.912 2.283 2.283 0 0 0 1.157 1.315c.528.26 1.155.319 1.755.114" fill="#FFF"/><path d="M127.304 74.719c.67 4.06 4.333 7.453 4.333 7.453-2.771 1.303-3.708 4.84-21.388.157-17.68-4.678-41.681 3.52-41.681 3.52 8.295-6.051 32.845-12.65 32.845-12.65-32.822-4.412-64.787.71-81.034 13.601 20.133-24.194 65.297-26.513 65.343-26.49.044.022-7.065-4.768-16.778-5.827 19.603-8.831 45.876 2.738 57.111-2.428 11.234-5.167 26.002.984 39.931 4.09 13.922 3.107 10.14 11.904 10.14 11.904-.703 6.313-19.413 6.986-30.601-1.7-8.486-6.593-15.868-5.741-18.936-4.947h.002c-.974.254-1.521.499-1.521.499 4.503 1.678 7.206 5.402 7.206 5.402-2.047-1.803-14.116.027-17.135-3.08.682 2.148 2.161 3.19 2.161 3.19l-7.167-.054s1.174-.843 17.17 7.36" fill="#A21A34"/><path d="M85.705 60.383c-.441.017-11.536.606-25.258 4.201-7.985 2.092-15.19 4.774-21.417 7.972-7.516 3.86-13.617 8.486-18.145 13.758 16.22-12.425 47.706-17.6 80.537-13.188l.01.142c-.242.065-23.885 6.463-32.431 12.362 1.554-.5 6.92-2.146 13.764-3.367 7.498-1.337 18.356-2.423 27.502-.004 14.968 3.965 17.951 1.998 20.13.563.373-.246.727-.479 1.115-.67-.53-.517-3.646-3.69-4.273-7.385-11.758-6.029-15.47-7.151-16.599-7.331l-.727-.006.18-.13c.013-.008.105-.06.478-.01l6.523.05c-.412-.349-1.477-1.377-2.022-3.095l.12-.072c1.697 1.745 6.304 1.914 10.369 2.064 2.786.103 5.235.193 6.385.765-.791-.958-3.27-3.68-6.902-5.033l-.165-.062.161-.072c.006-.003.543-.241 1.476-.488v-.001l.055-.014c1.606-.416 4.205-.805 7.465-.299 3.954.616 7.835 2.385 11.533 5.259 8.224 6.384 20.934 7.885 27.199 5.238 1.99-.841 3.126-2.047 3.287-3.489l.005-.02c.012-.03 1.21-2.897-.317-5.883-1.435-2.803-4.722-4.795-9.772-5.923-2.98-.664-6.045-1.48-9.01-2.27-10.848-2.888-22.067-5.875-30.876-1.824-4.881 2.245-12.499 1.353-21.32.32-11.49-1.346-24.5-2.87-35.548 2 9.09 1.059 15.823 5.324 16.515 5.804h.022l-.006.012c.028.02.042.03.043.032l.05.161-.136-.067zM20.424 86.857l-.1-.103c4.598-5.527 10.896-10.36 18.719-14.368 6.258-3.205 13.499-5.89 21.522-7.983 12.602-3.285 23.21-4.053 24.942-4.147-1.134-.725-7.78-4.742-16.57-5.701l-.265-.03.243-.109c11.136-5.016 24.274-3.478 35.867-2.12 8.799 1.031 16.398 1.92 21.243-.307 8.856-4.073 20.1-1.078 30.974 1.816 2.963.79 6.027 1.605 9.003 2.269 5.096 1.137 8.417 3.156 9.87 6 1.512 2.956.405 5.799.326 5.994-.171 1.492-1.338 2.735-3.374 3.595-6.301 2.663-19.081 1.159-27.343-5.257-2.852-2.214-10.399-7.127-18.872-4.934v.001c-.65.169-1.111.336-1.342.426 4.37 1.696 7.04 5.324 7.067 5.361l-.106.097c-.864-.76-3.685-.865-6.672-.975-3.934-.145-8.373-.309-10.253-1.909.699 1.916 2.027 2.871 2.041 2.881l.19.133-6.247-.046c1.738.454 5.947 2.032 16.05 7.213l.033.017.006.036c.658 3.99 4.274 7.378 4.31 7.411l.079.073-.097.046c-.416.196-.792.444-1.19.706-2.203 1.45-5.218 3.437-20.248-.543-9.12-2.414-19.954-1.329-27.437.005-8.111 1.447-14.142 3.491-14.202 3.512l-.066-.127c7.675-5.599 29.506-11.736 32.523-12.567-33.044-4.374-64.66.967-80.624 13.634z" fill="#A21A34" fill-rule="nonzero"/><path d="M80.034 85.869l20.171.077s-18.09 1.679-34.55 12.73c0 0 7.46-9.95 14.379-12.807" fill="#A21A34"/><path d="M80.048 85.94c-6.086 2.522-12.67 10.646-14.066 12.431 13.837-9.159 28.883-11.778 33.077-12.357l-19.01-.073zM65.695 98.737l-.098-.104c.074-.1 7.55-10 14.41-12.83l.027-.006 20.172.078.006.144c-.18.017-18.26 1.805-34.517 12.718z" fill="#A21A34" fill-rule="nonzero"/><path d="M98.727 102.083l-37.416-.144c-9.13 5.124-10.338 7.54-10.338 7.54 5.314 0 9.903.724 14.493 1.449l33.261-8.845" fill="#A21A34"/><path d="M51.103 109.406c5.26.012 9.885.741 14.359 1.447l32.718-8.7-36.85-.14c-7.936 4.454-9.876 6.877-10.227 7.393zM65.47 111l-.016-.002c-4.51-.712-9.173-1.448-14.481-1.448h-.117l.052-.105c.05-.1 1.321-2.494 10.367-7.57l.017-.01h.02l37.415.144.018.143L65.47 111z" fill="#A21A34" fill-rule="nonzero"/><path d="M170.342 112.57h-.696v-.356h1.814v.355h-.696v1.773h-.422v-1.773zm1.479-.356h.608l.543 1.523.549-1.523h.605v2.128h-.39v-1.717l-.59 1.717h-.341l-.593-1.717v1.717h-.391v-2.128z" fill="#231F20"/><path d="M145.591 112.35v6.011l1.979.158v17.426c0 3.019-1.036 4.89-6.196 4.89s-6.197-1.871-6.197-4.89V118.52l1.979-.158v-6.01h-19.972v6.01l1.979.158v17.426c0 12.32 7.888 19.104 22.21 19.104 14.324 0 22.212-6.784 22.212-19.104V118.52l1.978-.158v-6.01h-19.972" fill="#A21A34" fill-rule="nonzero"/><path d="M117.257 118.295l1.978.157v17.493c0 12.273 7.863 19.031 22.139 19.031s22.138-6.758 22.138-19.03v-17.494l1.978-.157v-5.872h-19.826v5.872l1.979.157v17.493c0 1.744-.367 2.863-1.186 3.63-.973.909-2.588 1.332-5.083 1.332-5.22 0-6.27-1.898-6.27-4.962v-17.493l1.98-.157v-5.872h-19.827v5.872zm24.117 36.827c-14.37 0-22.284-6.81-22.284-19.177v-17.36l-1.978-.156v-6.15h20.117v6.15l-1.979.157v17.36c0 2.973 1.024 4.816 6.124 4.816 5.099 0 6.123-1.843 6.123-4.817v-17.36l-1.978-.156v-6.15h20.117v6.15l-1.979.157v17.36c0 12.366-7.914 19.176-22.283 19.176zM94.39 118.361l1.978.158v20.232c0 2.645-.254 2.645-2.24 2.645-2.528 0-6.24-.918-7.013-1.704l.441-2.611-5.441-1.888-6.628 16.257 4.772 2.841s1.515-1.37 1.539-1.39l.2.064c2.034.677 6.268 2.084 11.777 2.084 5.089 0 18.607 0 18.607-14.544V118.52l1.979-.158v-6.01H94.39v6.01" fill="#A21A34" fill-rule="nonzero"/><path d="M81.78 152.82l.04.011.2.065c2.031.676 6.256 2.08 11.755 2.08 5.07 0 18.534 0 18.534-14.47v-22.054l1.979-.157v-5.872H94.462v5.872l1.979.157v20.3c0 2.717-.308 2.717-2.312 2.717-2.509 0-6.272-.92-7.066-1.726l-.026-.026.006-.037.431-2.551-5.318-1.845-6.578 16.135 4.672 2.783 1.5-1.355.03-.028zm11.995 2.302c-5.522 0-9.762-1.411-11.8-2.088 0 0-.089-.03-.16-.051l-1.508 1.362-.04.036-4.87-2.901.023-.058 6.653-16.32 5.565 1.93-.01.06-.435 2.575c.827.78 4.483 1.657 6.936 1.657 1.962 0 2.167 0 2.167-2.573v-20.165l-1.979-.157v-6.15h20.116v6.15l-1.978.157v21.92c0 14.616-13.57 14.616-18.68 14.616zm-29.202-28.759v.51c-3.508-.866-7.258-1.183-10.43-1.442-1.807-.147-4.23-.35-5.844-.667.864-.232 2.195-.443 4.283-.443 5.259 0 10.275 1.213 11.991 2.042zm-23.328 12.099l.341-1.143c4.007 1.206 8.575 1.626 12.328 1.965 2.27.205 5.192.474 6.686.875-1.018.994-4.162 1.377-7.17 1.377-5.579 0-10.789-1.984-12.185-3.074zm28.737-9.582l6.793-13.585-5.298-1.914-1.378 1.456c-.48-.084-1.385-.318-2.225-.536-3.399-.887-9.086-2.372-16.14-2.372-11.89 0-19.879 5.845-19.879 14.545 0 3.844 1.695 6.458 4.251 8.286l-7.087 16.927 5.393 1.338 1.038-1.04c.264.084.568.186.84.277 2.9.974 8.3 2.787 17.352 2.787 21.002 0 22.634-11.776 22.634-15.386 0-5.502-2.617-8.775-6.294-10.783z" fill="#A21A34" fill-rule="nonzero"/><path d="M48.64 124.754c1.633.288 3.946.477 5.51.605 3.03.248 6.795.554 10.351 1.42v-.37c-1.738-.82-6.677-2.015-11.92-2.015-1.572 0-2.895.12-3.94.36zm16.005 2.21l-.09-.022c-3.57-.88-7.367-1.19-10.417-1.438-1.676-.138-4.207-.345-5.853-.668l-.005-.141c1.102-.297 2.55-.447 4.302-.447 5.307 0 10.311 1.223 12.023 2.05l.04.02v.647zm-23.317 11.47c1.463 1.104 6.677 3.03 12.101 3.03 3.462 0 6.062-.473 7.022-1.268-1.547-.387-4.426-.648-6.544-.84-3.673-.332-8.24-.744-12.272-1.947l-.307 1.026zm12.101 3.175c-5.773 0-10.892-2.047-12.229-3.09l-.039-.03.377-1.26.07.02c4.035 1.215 8.624 1.63 12.313 1.963 2.183.197 5.175.468 6.697.877l.124.033-.092.09c-.896.874-3.595 1.397-7.22 1.397zm-18 10.293l.043.013c.264.084.57.187.84.278 2.9.973 8.292 2.783 17.33 2.783 20.935 0 22.562-11.72 22.562-15.313 0-4.914-2.047-8.42-6.256-10.72l-.062-.033.031-.062 6.757-13.513-5.177-1.87-1.372 1.45-.039-.006c-.476-.084-1.363-.312-2.23-.538-3.395-.886-9.076-2.37-16.122-2.37-11.847 0-19.807 5.817-19.807 14.473 0 3.504 1.381 6.196 4.221 8.227l.047.034-.022.053-7.055 16.848 5.272 1.309 1.04-1.043zm18.213 3.22c-9.062 0-14.469-1.816-17.373-2.79a55.327 55.327 0 0 0-.799-.265l-1.035 1.038-5.516-1.369.033-.078 7.065-16.872c-2.85-2.057-4.234-4.776-4.234-8.312 0-8.743 8.017-14.617 19.95-14.617 7.065 0 12.758 1.485 16.16 2.373.84.22 1.701.44 2.18.529l1.384-1.462 5.42 1.957-.037.073-6.762 13.523c4.22 2.327 6.27 5.865 6.27 10.813 0 3.626-1.637 15.459-22.706 15.459z" fill="#A21A34" fill-rule="nonzero"/><path d="M148.299 115.88c1.767.14 1.978.631 1.978 1.263v18.802c0 5.402-3.25 7.577-8.903 7.577-5.654 0-8.904-2.175-8.904-7.577v-18.802c0-.632.212-1.122 1.98-1.263v-.841h-14.558v.841c1.766.14 1.978.631 1.978 1.263v18.802c0 12.347 8.692 16.417 19.504 16.417 10.811 0 19.503-4.07 19.503-16.417v-18.802c0-.632.212-1.122 1.979-1.263v-.841h-14.557v.841m-49.224 1.263v21.608c0 3.508-.848 5.333-4.946 5.333-2.05 0-9.752-.843-9.752-4.21 0-.35.07-.702.14-1.053l-.846-.28-4.806 11.786 1.06.632c.706-.632.919-.913 1.625-.913.778 0 5.442 2.316 12.225 2.316 8.904 0 15.9-1.965 15.9-11.857v-23.362c0-.632.212-1.122 1.978-1.263v-.841H97.097v.841c1.766.14 1.978.631 1.978 1.263m-54.761 7.787c0-1.613 2.12-3.296 8.268-3.296 6.642 0 14.698 1.963 14.698 3.717v.772l.848.42 4.876-9.75-.777-.282c-.495.562-.99 1.053-1.909 1.053-1.907 0-8.903-2.947-18.584-2.947-10.388 0-17.172 4.842-17.172 11.857 0 13.541 29.114 7.787 29.114 12.98 0 3.086-3.18 4.77-10.247 4.77-7.349 0-14.91-3.157-14.91-5.052 0-.631 0-1.122.142-1.472l-.706-.352-5.23 12.488.848.21c.424-.42.848-.912 1.413-.912 1.626 0 6.855 3.228 18.656 3.228 15.334 0 19.927-6.665 19.927-12.7 0-16.134-29.255-8.487-29.255-14.732" fill="#FFF" fill-rule="nonzero"/><path d="M52.873 133.186c-6.515-.588-12.275-1.333-15.374-3.578 2.4 3.413 9.085 4.334 16.84 5.035 4.018.363 7.494.68 9.5 1.833-1.233-2.4-5.617-2.806-10.966-3.29m104.551 1.304c0 9.719-5.73 14.443-17.517 14.443-5.883 0-10.258-1.177-13.163-3.565 2.8 3.365 7.654 5.02 14.63 5.02 11.786 0 17.516-4.723 17.516-14.443v-18.802c0-.047.01-.087.012-.131h-1.478v17.477" fill="#BDBCBC"/><path d="M132.247 141.974c-1.352-1.784-1.763-3.997-1.763-6.029v-18.802c0-.047.009-.087.01-.131h-1.478v17.477c0 2.634.695 5.572 3.23 7.485m-49.954 5.206l-.377.922c.404.056.85.203 1.573.443 1.937.645 5.543 1.844 10.287 1.844 10.142 0 13.913-2.679 13.913-9.884v-23.362c0-.047.01-.087.011-.131h-1.477v22.038c0 7.205-3.772 9.883-13.913 9.883-4.535 0-8.026-1.094-10.017-1.754m-13.538-13.526c.88 1.187 1.362 2.674 1.362 4.555 0 6.816-6.539 10.725-17.94 10.725-8.28 0-13.204-1.653-15.849-2.542-.002 0-.004 0-.007-.002-.118.282-.24.575-.378.901.522.118 1.106.307 1.852.557 2.644.889 7.568 2.542 15.848 2.542 11.401 0 17.94-3.909 17.94-10.726 0-2.747-1.031-4.654-2.828-6.01m-25.977-6.886c-.286-.518-.45-1.119-.45-1.837 0-1.584 1-5.27 10.255-5.27.136 0 11.094.223 15.175 3.19l1.699-3.398c-.546-.085-1.187-.237-1.975-.438-.42.836-.672 1.343-1.191 2.381-4.08-2.968-15.039-3.19-15.175-3.19-9.255 0-10.254 3.685-10.254 5.27 0 1.541.715 2.574 1.916 3.292" fill="#BDBCBC"/></g></svg>