<svg width="200" height="200" xmlns="http://www.w3.org/2000/svg"><g fill="none"><path d="M184.08 96.024s9.304-15.602 4.718-35.474c-5.066-21.953-7.663-29.033-3.89-45.781 0 0-31.05 4.635-42.908 37.117l-4.24-2.954s-2.339-11.9 7.33-23.567c0 0-8.804-2.055-15.961.086 0 0-12.145-27.964-57.24-21.192 0 0 6.6 10.03 8.799 20.57 0 0-10.731-7.035-28.615-2.494 0 0 11.508 12.37 11.407 26.003l-5.354 3.001.174.6-.436-.053C46.006 19.404 14.954 14.77 14.954 14.77c3.775 16.748 1.177 23.828-3.889 45.781-4.585 19.872 4.719 35.474 4.719 35.474C5.419 103.937 0 113.559 0 113.559c41.018 70.701 99.932 83.09 99.932 83.09s58.913-12.389 99.931-83.09c0 0-5.418-9.622-15.783-17.535" fill="#FFF"/><path d="M99.932 187.401s-46.113-15.413-79.28-75.257c0 0 8.03-20.873 35.298-25.973 0 0-14.75-.625-26.943 6.198 0 0-5.686-6.586-5.682-16.749.005-10.386 5.877-33.67 5.973-39.48 0 0 17.04 8.393 21.567 27.724 0 0-7.681 8.136-9.497 12.244l1.13-7.283s-3.006-5.832-9.249-8.904c0 0-4.285 15.334.38 24.076 0 0 5.646-2.456 11.509-2.413 0 0 8.821-15.115 28.593-26.748l.176-.054c.786-3.46 2.505-13.12-.952-19.629 0 0 12.094 2.444 17.647 11.851.518-1.543 5.244-13.13 2.26-27.6 30.254 3.96 33.271 35.432 33.271 35.432 19.771 11.633 28.593 26.748 28.593 26.748 5.863-.043 11.509 2.413 11.509 2.413 4.664-8.742.38-24.076.38-24.076-6.244 3.072-9.25 8.904-9.25 8.904l1.13 7.283c-1.815-4.108-9.497-12.244-9.497-12.244 4.527-19.331 21.567-27.724 21.567-27.724.097 5.81 5.969 29.094 5.973 39.48.005 10.163-5.68 16.749-5.68 16.749-12.195-6.823-26.944-6.198-26.944-6.198 27.267 5.1 35.297 25.973 35.297 25.973-33.167 59.844-79.28 75.257-79.28 75.257zm77.45-90.862s7.315-7.532 6.962-22.801c-.352-15.27-7.748-35.398-6.35-49.904 0 0-27.722 9.449-33.289 36.261 0 0-5.436-4.5-11.826-7.715 0 0-2.909-13.153 3.4-22.927 0 0-5.784.054-9.512 2.564 0 0-8.927-23.687-45.378-21.933 0 0 4.852 6.455 4.431 23.237 0 0-6.811-6.01-22.78-5.782 0 0 7.07 10.593 5.932 23.846 0 0-8.883 4.317-13.814 8.71-5.566-26.812-33.288-36.26-33.288-36.26 1.398 14.505-5.999 34.634-6.35 49.903-.353 15.27 6.961 22.8 6.961 22.8-10.582 7.62-13.904 16.49-13.904 16.49 39.023 65.431 91.355 79.425 91.355 79.425s52.332-13.994 91.354-79.426c0 0-3.321-8.869-13.904-16.488z" fill="#244995"/><path d="M99.932 146.663c-7.146-1.2-17.552-7.434-17.552-7.434 7.698 9.299 17.552 12.81 17.552 12.81s9.853-3.511 17.551-12.81c0 0-10.405 6.234-17.551 7.434M63.37 81.195s5.565-1.552 13.13 1.58c8.485 3.512 14.665-.554 15.661-5.904 0 0-4.7 2.168-8.856-1.328-5.046-4.245-10.471-6.604-17.408-4.874-6.999 1.744-10.322 8.798-10.322 8.798s6.18-4.613 12.461-4.26c4.911.277 11.949 4.391 11.949 4.391s-10.122-4.48-16.615 1.597m36.562 6.359c-7.558 3.012-11.901 8.103-11.901 8.103-7.182.333-15.096-.254-15.096-.254 4.071-1.802 12.83-3.889 12.83-3.889C91.477 84.15 99.932 81.48 99.932 81.48s8.455 2.671 14.167 10.035c0 0 8.758 2.087 12.829 3.889 0 0-7.913.587-15.095.254 0 0-4.343-5.09-11.901-8.103" fill="#244995"/><path d="M156.21 97.844c-8.676-3.623-19.589-2.52-19.589-2.52s9.98 2.245 14.992 4.968c0 0-14.67 18.007-51.681 28.41-37.012-10.403-51.681-28.41-51.681-28.41 5.011-2.723 14.991-4.968 14.991-4.968s-10.912-1.103-19.588 2.52c-4.545 8.23-4.635 19.198-4.635 19.198s3.316-9.677 6.569-14.362c0 0 16.862 23.435 54.344 35.066 37.482-11.631 54.344-35.066 54.344-35.066 3.252 4.685 6.569 14.362 6.569 14.362s-.09-10.967-4.636-19.198m-56.277 48.819c-7.146-1.2-17.552-7.434-17.552-7.434 7.698 9.299 17.552 12.81 17.552 12.81s9.853-3.511 17.551-12.81c0 0-10.405 6.234-17.551 7.434m25.767-68.235c-.17 1.537-1.578 2.346-2.897 2.127-1.408-.235-1.815-1.515-1.815-1.515s2.614-1.329 4.31-2.065c0 0 .5.564.402 1.453zm6.128-3.22c6.08-.56 12.462 4.259 12.462 4.259s-3.324-7.054-10.322-8.798c-6.937-1.73-12.362.63-17.408 4.874-4.156 3.496-8.857 1.328-8.857 1.328 3.757 7.553 10.734 3.415 11.07 3.256 1.41 3.202 3.968 3.841 3.968 3.841-1.753 1.161-2.321 2.312-2.321 2.312 8.468-2.091 18.164-.904 18.164-.904-3.577-2.602-8.409-2.853-8.409-2.853 3.283-3.74 1.653-7.315 1.653-7.315z" fill="#244995"/><path d="M130.174 82.523s4.832.25 8.41 2.853c0 0-9.697-1.187-18.165.904 0 0 .568-1.15 2.321-2.312 0 0-2.559-.639-3.967-3.84-.337.158-7.314 4.296-11.07-3.257 0 0 4.7 2.168 8.856-1.328 5.046-4.245 10.47-6.604 17.408-4.874 6.998 1.744 10.322 8.798 10.322 8.798s-6.382-4.819-12.462-4.26c0 0 1.63 3.575-1.653 7.316zm13.74 3.648s14.75-.625 26.943 6.198c0 0 5.686-6.586 5.68-16.749-.003-10.386-5.875-33.67-5.972-39.48 0 0-17.04 8.393-21.567 27.724 0 0 7.682 8.136 9.497 12.244l-1.13-7.283s3.006-5.832 9.25-8.904c0 0 4.284 15.334-.38 24.076 0 0-5.646-2.456-11.51-2.413 0 0-8.82-15.115-28.592-26.748 0 0-3.017-31.473-33.272-35.432 0 0 7.07 5.921 7.07 27.407V81.48s8.456 2.671 14.168 10.035c0 0 8.758 2.087 12.829 3.889 0 0-2.04.151-4.985.256l-22.011 7.138v20.818s18.948-2.481 50.605-23.865c-5.235-2.473-13.916-4.426-13.916-4.426s10.913-1.103 19.588 2.52c4.545 8.23 4.636 19.198 4.636 19.198s-3.317-9.677-6.57-14.362c0 0-16.861 23.435-54.343 35.066v8.917c7.146-1.2 17.551-7.434 17.551-7.434-7.698 9.299-17.551 12.81-17.551 12.81s-9.854-3.511-17.552-12.81c0 0 5.947 10.157 17.552 17.445V187.4s46.112-15.413 79.279-75.257c0 0-8.03-20.873-35.297-25.973z" fill="#C8C7C5"/></g></svg>