<svg width="200" height="201" fill="none" xmlns="http://www.w3.org/2000/svg"><path d="M190.083 147.69c-9.135 1.678-16.902-3.436-16.902-3.436 15.377 3.427 21.777-13.562 21.777-13.562-8.973 10.737-19.9 9.521-19.9 9.521 14.187-5.213 10.584-20.104 10.584-20.104-1.768 17.641-26.509 16.373-26.509 16.373 2.454-2.673 3.85-6.643 4.393-10.217.01-.128.029-.252.057-.381a4.22 4.22 0 0 1 0-.595c.105-1.435-.071-2.721-.305-4.142-.019-.114-.023-.228-.033-.343l-.157-.643c-.124.267-.258.534-.401.791v.005c-.047.157-.104.31-.176.457-.043.091-.09.177-.138.267-.281.601-.6 1.168-.953 1.711a4.372 4.372 0 0 1-.758 1.067c-8.992 11.523-34.648 9.655-39.094 2.445a12.117 12.117 0 0 1 1.958-.31c1.94.815 3.141.534 3.141.534.247.438-.081 1.125-.081 1.125 7.553-3.684 3.326-8.049 3.326-8.049.5-2.745-1.654-3.445-4.156-4.989-.023-.015-.052-.019-.076-.038-5.795-4.275-9.349-.706-13.629-4.027-9.154-21.678-61.5-26.338-56.05-55.154 0 0-7.052 3.279-6.828 14.267 0 0-16.607-25.542-4.951-33.161 0 0-17.57.924-6.686 23.621 0 0-13.162-11.084-7.053-24.317 0 0-15.477 10.498 5.771 28.334 0 0-9.797-3.211-16.692-14.982 0 0-5.738 7.253 15.573 20.13 0 0-16.226-.973-20.74-9.127 0 0-3.678 8.797 16.756 14.863.367.11.205.172.205.172l-23.698-4.06s7.314 8.682 21.987 10.617c0 0-14.091 2.388-17.389 1.773 0 0 5.366 6.404 20.682 4.37 0 0-7.425 1.424-10.78 4.05 0 0 4.618 3.717 10.45 2.078 0 0-3.316 1.105-4.207 2.144 9.226 15.626 41.234 18.513 44.08 29.75-6.524 3.069-13.777.31-16.632 2.202 0 0-.853.748-1.177.962-.958 1.263-.457 4.303-.457 4.303-2.145.801-1.606 7.367-1.606 7.367.133 1.206.805 1.611.805 1.611-.267.667-.4 3.484-.4 3.484 0 4.689 2.678 4.017 2.678 4.017-.534.267-.939 1.205-.939 1.205.806 5.361 4.289 6.028 4.289 6.028 1.072 5.095 6.295 4.694 6.295 4.694 2.811 4.689 8.578 1.206 8.578 1.206 2.95 3.083 7.638-1.339 7.638-1.339 5.762.267 8.24-4.418 8.24-4.418 2.654-.443 4.04-1.444 4.727-2.554.124-.043.248-.105.362-.181.167.134.281.257.295.334l.463 3.431 1.887-2.902c.08-.124.715-1.154.457-2.378.691.181 1.296.152 1.811-.191.176-.114.4-.314.567-.619.324.057.667.214.839.595l1.892 3.179.395-2.302c15.497 9.893 34.062 10.35 34.062 10.35-.376-1.625-.119-2.687-.119-2.687 5.619 5.37 12.104 6.147 12.104 6.147-1.496-3.622-1.367-6.648-1.367-6.648 7.991 7.739 17.979 7.391 17.979 7.391-7.867-5.241-9.864-9.511-9.864-9.511 10.25 6.285 18.227 5.018 18.227 5.018-7.743-5.247-11.489-9.888-11.489-9.888 12.738 6.242 19.795 2.53 19.795 2.53-9.507-1.949-17.603-9.821-17.603-9.821 16.726 8.415 24.87.562 24.87.562v-.005Z" fill="#000"/><path d="M128.306 121.286s-2.511.3-3.016.905c0 0-2.521 1.368-6.996-.043 0 0-1.501.496.663 1.449 0 0 1.41-.143 3.797 1.582 1.778 1.282 3.598 1.244 4.551.591 0 0-2.892.481-3.874-1.62l-4.393-1.192c3.907.753 5.198.239 5.198.239s0 1.658 2.164 1.706l1.406-1.354s1.815 1.134.252 2.917c0 0 2.445-1.387 1.859-3.217 0 0 .152-1.458-1.606-1.959l-.005-.004Z" fill="#E6E7E8"/><path d="M122.406 121.214s1.287.629 2.021-.696c0 0-.296-.143-.691-.352 0 .009.119.676-.562.839-.377.085-.815-.229-.811-.711a.392.392 0 1 1 .467-.633h.01c-.424-.258-.81-.529-.972-.744 0 0-1.077 1.458.543 2.302l-.005-.005ZM66.195 136.363c6.829-1.105 19.866-1.572 18.59-8.754-3.556 6.648-15.555 4.227-18.59 8.754Z" fill="#A90533"/><path d="M122.659 120.356a.397.397 0 0 0 .324-.452.42.42 0 0 0-.148-.248.406.406 0 0 0-.305-.076.396.396 0 0 0-.324.452.404.404 0 0 0 .162.258.391.391 0 0 0 .296.066h-.005Z" fill="#fff"/><path d="M122.135 125.975c-11.003-2.202-15.211 7.067-28.187 2.992-2.821 6.038-7.396 7.668-7.396 7.668 3.498-.248 5.68-1.811 5.68-1.811-1 1.434-2.682 2.935-2.682 2.935 3.56-.371 7.615-2.744 7.615-2.744-1.697 1.696-5.19 3.736-8.383 5.527 19.853-3.221 20.034-12.065 33.353-14.562v-.005ZM111.975 140.547s3.074-1.196 4.899-.329c-.286.01-.586.076-.887.186 1.354.391 2.945 1.577 5.128 4.074-1.344-.5-4.561-.934-4.561-.934a3.202 3.202 0 0 0-.772-.052c.053.214.058.396.053.491-.01.181-.081.624-.453 1.039.372.171 1.334.867 2.24 1.796 7.405 2.049 14.134 1.863 14.134 1.863-3.245-2.682-3.736-5.375-3.736-5.375 8.363 6.367 21.911 7.177 21.911 7.177-7.429-3.498-10.031-7.601-10.031-7.601 13.671 4.932 21.329 1.458 21.329 1.458-8.801-.5-13.657-3.254-13.657-3.254 8.677-2.683 10.45-9.908 10.45-9.908-20.767 12.257-40.681-.667-40.681-.667-5.48 1.987-5.742 4.994-13.172 8.988 1.368 1.396 2.917 2.578 4.566 3.583.676-1.992 2.063-2.664 3.254-2.54l-.014.005Z" fill="#A90533"/><path d="M109.716 144.369s-.076.152-.2.386c.01-.01.024-.019.033-.034.329-.309.706-.657 1.259-.81.095-.028.309-.367.385-.667l.015-.062c-.091-.309-.091-.881.815-1.453 0 0 0-.005.009-.01-.124.01-1.906.177-2.316 2.645v.005Z" fill="#E6E7E8"/><path d="M104.384 152.546s.796-.615 1.125-1.615c.329-1.006.839-.677 1.267-1.211 0 0 1.363-.024 1.754-.495 0 0 6.514-.768 4.618-1.668 0 0 .848-1.392 2.578-.729 0 0-1.973-2.254-3.979.595l-2.068.563 1.92-1.239s1.215-1.964 2.144-2.221c.93-.257 1.077-.839.296-1.158 0 0 .162-1.515 2.721-1.086 0 0-2.75-2.302-4.322 1.272 0 0-.31 1.329-1.292 1.596-.981.272-1.496 2.683-6.047 1.158-1.773-.595-3.221-1.1-4.327-1.496-.576.353-1.163.696-1.734 1.02 1.115.4 6.595 2.382 6.781 2.783 0 0-1.868 1.229-1.988 1.691 0 0-.624-.004-1.253.21.181.181.529.605.715.996.029 0 .057-.009.086-.009.038.324.076 1.153.996 1.043h.009ZM102.364 153.151s.366-3.007-4.713-2.706c0 0-2.802-1.325-3.126-1.211 0 0 2.444-.657 3.283-.148 0 0 .562-.19.024-.581 0 0 1.853-.305 2.854 1.101 0 0-.872-3.293-4.994-2.087 0 0-4.932.638-6.557-.248-1.62-.886-7.229-3.198-7.229-3.198s-1.54-.305-2.997.019c2.273 1.644 3.974 2.345 3.974 2.345s3.574 1.596 3.94 2.063c.368.472 1.373.963.997 2.845 0 0-1.272.443-1.482 1.053 0 0-3.77 1.201-1.072 4.184 0 0-.458-2.678 1.005-2.964 0 0 1.249 1.744 2.278-.586 1.03-2.33 1.167-1.72 1.11-2.263 0 0 2.978 1.844 3.627 3.002.648 1.158 1.129.438 1.324.043.32.138 1.687.676 1.835 1.772 0 0 1.43-2.206-1.825-3.083 0 0-2.778-2.077-2.902-2.468 0 0 3.555.996 4.136 1.367.582.372 3.755 2.497 3.422.458 0 0 2.254-.524 3.088 1.296v-.005Z" fill="#E6E7E8"/><path d="M79.871 117.64s-3.84 2.836-3.292 8.692c0 0 3.545-7.758 16.621-10.727-3.06-.176-5.28-1.806-5.28-1.806-8.24 2.659-13.448-1.096-13.448-1.096 8.049 1.373 10.613-2.101 10.613-2.101-13.905 2.559-19.853-5.766-19.853-5.766 10.246 5.032 15.002 2.835 15.002 2.835-10.703-3.66-7.959-6.862-7.959-6.862-5.856-3.112-3.845-5.585-3.845-5.585-15.916-8.596-17.56-16.46-17.56-16.46s-3.936 7.044 6.676 13.996c0 0-6.676-1.19-11.894-6.952 0 0-1.92 6.676 10.703 10.98 0 0-6.405.18-12.352-2.288 0 0 1.463 5.399 11.437 6.314 0 0-3.07 2.101-10.298-.162 0 0 3.345 4.189 10.57 3.364 0 0-1.006 2.288-5.857 1.74 0 0 4.617 3.397 9.607.733 0 0-.353 2.259-4.013 2.626 0 0 6.667 5.17 16.636 4.622 0 0-.825 1.258-4.117 1.535 0 0 4.007 2.259 7.943.062 0 0 .658 1.677 3.95 2.316l.01-.01ZM147.567 154.047s-2.559.72-10.884-2.759c0 0-3.569.653-15.006-.739 0 0 3.755 3.498 12.261 4.141 0 0 2.516 4.818 11.666 9.85 0 0-3.431-3.445-3.526-9.483 0 0 3.202 5.123 13.624 8.764 0 0-6.305-4.284-8.135-9.774Z" fill="#A90533"/><path d="M134.653 162.348c-2.744-3.936-2.821-5.737-2.821-5.737-7.133-.639-10.426-2.559-10.426-2.559 1.92 4.942 7.5 7.358 7.5 7.358-1.372-1.921-1.096-4.065-1.096-4.065 2.378 2.654 6.848 5.003 6.848 5.003h-.005ZM154.334 153.957c3.112 3.75 10.303 6.642 10.303 6.642-4.027-3.75-5.457-7.1-5.457-7.1-3.293.458-4.846.458-4.846.458ZM71.641 159.16c.487-1.472.81-2.249 1.149-4.455a226.903 226.903 0 0 1-3.984 5.661c1.649 1.949 3.731 1.501 5.151.519l.3-.805c-1.763.291-2.535-.815-2.62-.92h.004ZM65.614 155.934c1.534-1.973 2.068-2.868 2.573-3.812a216.283 216.283 0 0 1-5.647 4.003c.843 2.244 2.816 2.716 4.684 2.211l.553-.658c-1.725-.309-2.087-1.534-2.163-1.744ZM61.244 151.24c1.868-1.267 2.635-1.944 3.578-2.887a242.493 242.493 0 0 1-6.571 2.168c.181 2.935 2.683 3.45 3.827 3.488l.724-.467c-1.568-.805-1.544-2.106-1.554-2.302h-.004ZM60.458 147.752c-1.101-1.077-.944-2.125-.806-2.659 2.173-.629 3.155-1.153 4.275-1.701-3.16.11-6.029.124-6.92.129-.733 3.03 1.82 4.184 2.626 4.465l.83-.234h-.005ZM58.59 141.567c-1.03-1.516-.296-2.693-.263-2.764 2.34-.191 3.655-.567 4.528-.82a223.365 223.365 0 0 1-6.81-1.248c-1.077 2.306.2 4.017 1.687 4.894l.853-.062h.005ZM59.886 135.591l.848-.119c-1.163-1.482-.453-2.735-.415-2.826 1.54.339 5.59 1.12 10.284-2.039-5.861.857-11.442.352-12.738.214-.929 2.397.5 4.012 2.02 4.77ZM79.19 158.017a2.657 2.657 0 0 1-.891-.891l-1.072 3.731c1.21 0 2.163-.296 2.83-.906.591-.538.844-1.21.948-1.663-.686.119-1.296.029-1.815-.276v.005ZM53.872 64.221c4.274 23.47 47.729 30.46 54.267 46.552 2.459 2.769 8.068 3.636 11.356 3.46 2.783-.152 4.179 1.606 6.271 2.888 2.092 1.277.991 2.502.991 2.502-.467.986-3.55.057-4.884-1.978-1.339-2.035-3.083-1.863-3.083-1.863.638.524.872 1.282.872 1.282-.234-.405-3.603-1.22-3.603-1.22.581.233 2.383 2.154 2.383 2.154-.115.695.29 1.453.29 1.453-.524.057-.872.581-3.488-1.163s-6.981-1.744-6.981-1.744c3.202-1.124 6.047-.233 6.047-.233-4.555-3.855-13.833-3.327-13.833-3.327-6.93-17.169-56.107-18.498-46.605-48.753v-.01Z" fill="#A90533"/></svg>