<svg width="200" height="200" xmlns="http://www.w3.org/2000/svg"><g fill="#DF502A" fill-rule="evenodd"><path d="m154.702 79.167-4.109 19.328 8.714 1.419-4.05 19.058h-19.788c-7.203 4.541-13.83 2.135-13.83 2.135-8.083 17.336-22.859 16.259-22.859 16.259l-4.944 23.26-9.316 1.417-4.108 19.329h45.298l4.108-19.329-8.713-1.418 4.05-19.057h25.299l-8.461 39.804h36.283l4.108-19.329-8.713-1.418 12.904-60.711 9.316-1.419L200 79.167h-45.298M68.393 101.694C65 99.093 63.386 94.717 64.46 89.657 67.765 74.116 88.275 70 88.275 70 84.425 63.633 77.07 59.52 67.804 59.52h-14.83c-4.197 0-6.926-3.161-6.097-7.061l.79-3.713c.828-3.9 4.901-7.062 9.097-7.062h14.46l.17 10.57h22.19l7.226-33.99H51.006c-15.735 0-31.01 11.857-34.119 26.483l-2.489 11.71C11.29 71.083 21.524 82.94 37.258 82.94H52.09c4.196 0 6.925 3.162 6.096 7.062l-.789 3.712c-.829 3.9-4.902 7.062-9.098 7.062H29.585l-.17-10.569H7.224L0 124.196h58.515s-5.253-12.074 9.878-22.502"/><path d="M100.549 132.05c7.395 0 15.221-6.695 16.923-14.7.718-3.382-.075-5.522.496-8.207.472-2.22.88-3.303 1.338-5.454 1.232-5.797-3.285-10.414-9.062-10.414-9.412 0-12.014 5.859-26.465 7.923-13.092 1.87-19.344 9.179-20.383 14.067-1.55 7.293 2.065 11.076 13.708 11.076 4.4 0 7.152-.639 8.572-.639 5.858 0 4.754 6.347 14.873 6.347M91.177 74.613s-18.766 2.689-21.392 15.044c-1.158 5.45 2.605 9.242 7.792 9.242 4.021 0 9.334-2.102 10.262-6.47.849-3.994-2.484-6.67-1.746-10.148.89-4.18 5.084-7.668 5.084-7.668M94.562 80.92c-1.158 5.45 3.315 7.698 7.918 7.698 6.765 0 10.79-3.054 12.079-9.112l.738-3.473c1.817-8.55 11.253-11.67 11.253-11.67-13.088-.004-29.632 5.47-31.988 16.557M119.466 88.038c-.955 4.493 2.883 6.195 6.093 6.195 5.738 0 8.688-2.724 9.562-6.838.513-2.415.19-9.996 8.78-13.247-7.692 0-22.389 4.263-24.435 13.89M121.127 110.354c-.677 3.183 1.193 6.05 5.864 6.05 4.134 0 8.18-1.584 9.228-6.513.437-2.053.546-3.8.647-4.274 1.34-6.304 7.867-8.624 7.867-8.624-8.866 0-21.74 4.582-23.606 13.361M180.395 178.404h.984v2.968h.564v-2.968h1.035v-.565h-2.583v.565M184.983 180.303l-.777-2.464h-.752v3.533h.564v-2.254l.71 2.254h.51l.71-2.253v2.253h.564v-3.533h-.753l-.776 2.464"/></g></svg>