<svg width="200" height="200" xmlns="http://www.w3.org/2000/svg"><g fill="none"><path d="M85.56 64.494c.03.02.058.038.09.064l.13-.003a3.349 3.349 0 0 1-.22-.061" fill="#FFF"/><path d="M91.366 70.33a21.553 21.553 0 0 1 3.814 5.009c.028.052.047.106.074.158a17.099 17.099 0 0 1 2.387-.414c-.14-.281-.276-.565-.429-.844-1.944-3.545-4.62-6.431-7.955-8.578-2.19-1.364-4.621-2.512-7.232-3.47-.015.054-.023.112-.04.165a.81.81 0 0 0 .012.03c.006-.023.016-.033.022-.056-.006.021-.013.041-.018.063l.235.573c1.108.38 2.02.824 2.608 1.171l.662.362h.001l.04.005c.044.005.053.045.095.052h.066c-.016 0-.034.007-.051.008a3.31 3.31 0 0 1 1.122.498c.417 0 .896.107 1.482.454.325.193.457.256.647.58l.903 1.54.159.257c.248.145.497.282.763.549.417.415.643 1.051.643 1.644 0 .043-.001.085-.004.127l-.006.117" fill="#FFF"/><path d="M85.604 64.57c.162.124.437.367.58.492.054.006.103.028.154.037.077-.014.16-.016.24-.023a1.602 1.602 0 0 0-.924-.512c-.016 0-.033.005-.05.006m-8.239 22.947c.166.107.338.179.5.32-.127-.167-.328-.23-.498-.333-.002.005-.002.008-.002.013m.732-2.33c.024 0 .053-.01.08-.01l-.006-.002c-.026 0-.05.01-.074.012m3.905-22.894c-.03.081-.017.182-.05.26.065-.156.111-.318.16-.48-.005-.007-.007-.014-.01-.02-.027.097-.073.146-.1.24m-8.861 19.171c.174.062.307.132.468.198-.487-.382-.733-.929-.738-1.57-.748-.39-1.363-.933-1.877-1.564a62.379 62.379 0 0 0-3.158-.577c.744 1.067 1.12 1.778 1.12 2.354 0 .056-.013.11-.023.165 1.818.325 3.241.657 4.208.994M23.35 73.172c3.046 1.376 6.152 2.405 9.224 3.053 3.022.636 8.248 1.292 15.536 1.948l9.656.872c.004-.01.005-.02.01-.03.189-.433.283-.643.696-.88l.97-.558a3.64 3.64 0 0 1 .298-.653c-.2-.02-.379-.042-.582-.063l-10.84-.978c-7.197-.649-12.332-1.29-15.264-1.907-2.907-.614-5.854-1.59-8.757-2.903-4.049-1.774-7.262-4.483-9.561-8.057-2.072-3.207-3.122-6.961-3.122-11.157 0-7.004 2.606-12.636 7.967-17.217 7.07-6.048 17.888-9.116 32.16-9.116 6.04 0 11.726.547 16.901 1.626 5.211 1.082 11.816 3.13 19.63 6.088 3.776 1.366 4.848 1.549 5.402 1.549 1.061 0 2.222-.494 3.478-1.317l.324.161-10.312 18.2-.292-.145.02-.288c0-1.891-1.515-3.72-4.631-5.594-8.471-5.294-18.557-7.984-29.96-7.984-5.067 0-9.617.556-13.522 1.652-2.976.904-5.405 2.285-7.246 4.108-1.937 1.922-2.92 4.044-2.92 6.307 0 3.788 2.49 6.398 7.397 7.76 2.358.59 7.159 1.218 14.704 1.925l11.058.982c2.332.233 4.508.497 6.53.788a84.55 84.55 0 0 1 .66-1.545l.279-.64a151.76 151.76 0 0 0-7.25-.893c-.013 0-11.066-.981-11.066-.981-7.318-.686-12.138-1.311-14.322-1.858-3.81-1.058-5.676-2.872-5.676-5.538 0-1.653.733-3.183 2.24-4.678 1.57-1.556 3.678-2.745 6.265-3.531 3.676-1.032 8.014-1.56 12.87-1.56 10.96 0 20.63 2.572 28.744 7.644 3.075 1.848 3.531 3.07 3.531 3.636l-.117 1.625.69.38 2.95 1.46 12.581-22.202-3.689-1.846-.574.43c-1.086.813-2.034 1.243-2.744 1.243-.12 0-.905-.07-4.595-1.405-7.912-2.994-14.633-5.077-19.964-6.184-5.329-1.11-11.175-1.673-17.375-1.673-14.84 0-26.168 3.253-33.668 9.671C12.252 37.873 9.3 44.252 9.3 51.86c0 4.644 1.173 8.814 3.487 12.398 2.548 3.96 6.103 6.96 10.563 8.915" fill="#FFF"/><path d="M79.809 86.208l-.016-.005a2.526 2.526 0 0 1-.698-.383c-.62-.025-1.22-.31-1.679-.737-.04-.01-.076-.033-.115-.046.15.504.201.99.201 1.419 0 .341-.044.677-.097 1.01.143.126.289.247.4.405.385.182.69.457.919.827.232.141.437.314.603.519.306-.904.489-1.823.489-2.761 0-.081-.004-.165-.007-.248m-62.683 18.158c-3.662-1.57-4.649-1.785-5.173-1.785-.75 0-1.74.465-2.955 1.262l-.398-.179 9.39-19.076.32.132v.069c0 2.218 1.159 4.28 3.445 6.126 3.155 2.515 8.042 4.7 14.534 6.5 6.429 1.789 12.628 2.697 18.424 2.697.74 0 1.466-.016 2.184-.043a1.904 1.904 0 0 1-.548-.686l-.014-.036v.005l-.002-.01a29.662 29.662 0 0 1-.644-1.548c-.327.005-.645.019-.976.019-5.585 0-11.574-.88-17.802-2.614-6.19-1.716-10.8-3.759-13.703-6.073-1.737-1.403-2.584-2.823-2.584-4.337v-1.606l-3.756-1.546-11.396 23.147 3.737 1.675.543-.39c1.64-1.176 2.18-1.19 2.201-1.19.092.01.83.13 4.247 1.594 12.441 5.462 25.242 8.235 38.038 8.235 6.239 0 12.184-.62 17.757-1.777.119-.558.254-1.104.412-1.625-.005.023-.016.041-.021.065a2.19 2.19 0 0 1 .044-.166c-.01.031-.013.07-.023.101.068-.292.16-.574.248-.86-5.731 1.286-11.91 1.963-18.417 1.963-12.471 0-24.958-2.706-37.112-8.043m98.798-15.606c.171.228.463.58.746.903v-1.58h-1.767c.397.134.766.334 1.021.676m66.544 4.956c.297-.34.985-.842 2.575-1.287l.844-.236v-4.11h-29.273v4.133l.873.22c1.573.398 2.245.889 2.532 1.23.406.483.612 1.222.612 2.2v26.611h-30.75a10.363 10.363 0 0 1-2.156 1.802l-.766.497h35.985v-28.91c0-1.533-.387-2.77-1.15-3.675-.601-.715-1.607-1.239-2.865-1.663v-.146h24.644v.16c-1.251.447-2.252.977-2.856 1.67-.773.892-1.162 2.125-1.162 3.666v73.174c0 1.542.39 2.772 1.159 3.66.603.697 1.605 1.228 2.859 1.675v.16h-24.644v-.153c1.22-.423 2.206-.942 2.82-1.653.792-.903 1.195-2.149 1.195-3.696V136.73h-51.419c-.317.189-.635.377-.962.566l-.219.115v31.633c0 1.549.401 2.794 1.193 3.701.614.706 1.6 1.225 2.819 1.648v.154H89.717v-.161c1.256-.45 2.258-.98 2.858-1.678.767-.885 1.157-2.115 1.157-3.657v-29.177a2.33 2.33 0 0 1-1.148-.765c-.38-.133-.774-.28-1.165-.437v30.38c0 .973-.202 1.7-.599 2.157-.297.346-.98.846-2.572 1.29l-.844.234v4.112h29.266v-4.126l-.863-.226c-1.211-.316-2.083-.748-2.519-1.253-.42-.48-.63-1.218-.63-2.196v-30.015h47.973v30.015c0 .976-.212 1.715-.63 2.192-.44.509-1.312.941-2.522 1.257l-.865.224v4.128h29.273v-4.112l-.844-.235c-1.593-.443-2.278-.945-2.575-1.287-.397-.46-.6-1.185-.6-2.16V95.877c0-.976.203-1.703.6-2.162" fill="#FFF"/><path d="M86.188 128.698c-.267-1.124-4.09-6.138-4.09-6.138s-3.103-6.57.427-12.232c-.486 1.729-.648 3.506-.22 5.375.047.314.13.656.233 1.011-.53-2.71-.6-6.686 2.17-10.13 0 0 3.54-7.162 4.93-8.678 0 0 1.943-8.366 2.885-11.755.944-3.386 8.598-7.977 10.725-4.533 2.133 3.441 4.8 9.125 4.8 9.125l7.158 6.191s1.38 1.975 2.876 4.27a107.717 107.717 0 0 1 1.852 2.944c.435.726.825 1.409 1.137 2.005.076.15.149.293.215.43.312.642.506 1.153.494 1.423-.045 1.342 2.291 6.294-.88 9.948-.441 1.67-1.515 3.307-3.83 4.554-3.495 1.884-5.453 2.956-6.695 3.941.034-.087.077-.184.109-.267-.103.129-.18.254-.252.38a7.406 7.406 0 0 0-.602.553 4.75 4.75 0 0 1 .092-.359 2.22 2.22 0 0 0-.11.378c-.618.642-1.016 1.317-1.405 2.228-1.119 2.64-5.372 6.817-10.871 5.762-5.5-1.057-10.883-5.305-11.148-6.426zm4.922-39.894a3.82 3.82 0 0 1 .228-.582c-.132.906-.423 2.22-.675 3.354.022 2.432-.815 4.721-1.961 6.955.637-2.696 1.761-7.392 2.408-9.727zm-1.989 44.495c.463.218.96.448 1.52.696.134.059.286.123.426.184a118.19 118.19 0 0 0 3.854 1.6c1.427.565 2.682.926 3.821 1.16 6.195 1.274 8.448-1.686 9.962-2.05 1.789-.424 7.609-4.56 8.529-5.467.751-.738 1.216-1.639 5.655-4.646 1-.676 2.194-1.458 3.644-2.37 7.892-4.975-.262-15.373-.262-15.373s-3.274-2.65-3.894-5.245c-.351-1.481-2.551-4.523-4.38-6.867l-.225-.286c-.722-.92-1.365-1.707-1.79-2.22-.327-.395-.532-.635-.532-.635l-3.787-3.213s-3.482-1.912-3.79-3.207c-.31-1.297-1.489-3.078-3.9-5.245-7.759-6.992-14.39 3.091-14.39 3.091s-2.739 12.317-3.07 14.112c-.328 1.794-5.966 8.282-5.966 8.282-5.998 6.577-4.376 13.39-4.376 13.39.594 10.302 8.166 11.65 8.437 11.694l.004.002.021.003.004.005c.013.017.152.176.617.5.379.265.984.641 1.92 1.137.367.195.775.405 1.253.638.215.105.456.217.695.33zM64.9 90.438c1.503-.308 4.117-.058 5.411.099.666.194 1.265.46 1.849.79.65.436 1.21.855 1.691 1.254.149.194.25.397.167.56.264.105.568.304.783.657-.05.071.113-.166.255-.074l.021.021.065.48.086-.031c-.093.316.447.573.279.867l.17-.125c.095.38.32.774.065 1.006.192-.096.225.11.151.204l.29-.12c-.116.16.158.16.056.336l.07-.057c0 .128-.008.253-.028.374l-.18-.08c.102.32.052.375-.022.703-.005.028-.01.045-.017.078-.006 0-.01-.003-.014-.004-.212-.033-.38-.194-.56-.14.043.102.182.207-.035.326-.065-.057-.03-.14-.024-.223-.4.237-.989.417-1.4.771.305-.015.01.27.093.376l-.555.135c.175.017.56-.058.885-.064-.006.115.062.199.129.278.106.126.209.236.005.409-.203-.039.022-.234-.264-.208-.058.133-.184.162-.325.216.058.107.241.094.258.217a.357.357 0 0 1-.41-.104c-.008.059.088.115-.017.21-.238.123-.259-.078-.288-.187a.19.19 0 0 0-.016-.052c-.01.019-.02.05-.03.074-.072.184-.148.499-.451.288l.326.262c-.223.084-.324-.131-.578.026.248-.065.49-.055.43.147-.396-.124-.63.465-.933.102l.171.385c-.453.178-.25-.226-.595-.243.136.025.049.15.208.152-.008.124-.311.227-.55.25-1.333.064-1.841-.234-2.715-.7a.03.03 0 0 1-.01-.006l-.001.001c-.022.047-.053.084-.126.086-.16-.076-.275-.16-.396-.242-.546-.376-.813-.792-1.533-1.1-.223.152-.394-.293-.7-.296-.317-.71-1.354-1.188-1.785-1.725.065.34.222.668.43.984.482.732 1.269 1.388 2.024 1.907-.054.028-.062.085-.145.057 1.012.823 2.385 1.274 3.492 1.807l.02-.065c.562.063.183.28.668.386-.043-.046-.068-.09-.012-.135 1.119-.032 1.07-.029 1.531-.262.12.031.153.084.189.132-.378.13-.736.237-1.048.322-.144-.024.34-.048-.632-.053.136.028.327.048.62.056-.644.174-1.089.251-1.089.251-6.202-.792-8.754-6.811-8.754-6.811-1.085-1.736-1.188-4.593-1.114-6.479-.08-1.983.148-3.678.148-3.678-.209 5.308 4.317 5.222 4.317 5.222zM59 85.02s-.323 9.292 1.186 11.554c.03.045.056.106.088.145 0 0 2.114 3.029 3.474 4.28.411.378 1.03 1.002 1.515 1.498.41.42.726.75.726.75l.405.08 1.942.374 1.185.23.115.022.611.118.5.096s5.572-2.016 6.695-3.657c.771-1.129 1.978-2.685 1.961-4.387 0-.087-.012-.175-.02-.263-.057-.69-.319-1.4-.907-2.112l-.537-.658c-1.881-2.307-3.45-4.28-5.223-4.485-1.947-.223-5.554-1.075-6.22-2.288-.666-1.212-3.358-2.967-2.931-7.528 0 0-1.586-.312-4.566 6.23zm14.216-15.738c-.16-2.193.349-4.02.349-4.02-.185 1.531 3.149 2.86 3.149 2.86 6.869.057 6.531 4.385 6.531 4.385.243.781.252 1.407.127 1.919a.368.368 0 0 1-.205-.007c.083.08.066.15-.034.187-.062-.024.119.046.164.094.005.006.018.014.017.02l-.022-.004-.239-.035.061.038c-.246-.1-.1.101-.3.012l.15.097c-.151-.02-.111.137-.329.015.16.124.066.105.034.12l.195.138c-.095-.025.083.142-.005.125l.107.066.024.015c.015.055-.018.042-.055.026-.046-.023-.1-.053-.06.034l-.134-.154c.09.19.056.186.06.282 0 .022 0 .042.008.08-.015-.014-.03-.031-.044-.046-.102-.101-.203-.232-.273-.27.043.08.136.198.052.177l-.059-.136c-.121.002-.32-.074-.364.076.11.075.074.19.135.295l-.147-.02c.064.058.158.062.289.16.002.008.008.016.012.025.078.198.273.394.217.5-.089-.079-.055-.168-.153-.214.014.088-.023.085-.057.097l.145.216c-.05.016-.135-.097-.17-.165l.046.158c-.064.051-.129-.176-.163-.244.011.105.101.451-.065.207l.166.259c-.054.031-.135-.153-.182-.075.065-.007.146.038.173.185-.159-.167-.105.274-.279-.065l.134.334c-.11.078-.127-.217-.234-.274l.093.149c.023.1-.054.143-.12.139-.256-.01-.43.17-.713-.08-.02-.105.023-.166.044-.24.074-.034.165.007.218-.053-.171-.22-.361-.065-.522-.193-.017-.014-.036-.016-.052-.037.004.021.01.03.016.045.04.123.124.076.177.155l-.099.099.198.075c.007.102.04.205.013.25-.274.052-.463-.38-.638-.33-.06.212-.116-.028-.205.111-.093-.41-.424-.13-.574-.22.118.551.481.637.778.778l-.04.095c.196.311 1.158.09 1.294.338l-.01-.055c.07-.02.117.034.166.092-.802.428-1.638.5-1.638.5-6.722-.914-7.376-6.06-7.158-9.091zm8.846 8.564c-.004-.032-.016-.046-.016-.09.012-.016.061-.008.1-.007-.028.035-.056.066-.084.097zm2.002 3.376c4.318-2.517 4.351-11.228 1.119-13.002-3.232-1.777-4.14-2.624-5.563-2.71-.861-.051-2.086-1.645-2.753-3.265-.348-.848-.54-1.7-.447-2.345a1.688 1.688 0 0 1 .07-.292c.017-.05.026-.106.048-.152.264-.572.222-1.117.066-1.594-.008-.025-.011-.053-.02-.077a3.275 3.275 0 0 0-.277-.579 4.164 4.164 0 0 0-.743-.9l-.011-.01-.007.015-.294.695s-5.943 5.203-4.955 12.538c.005.035.005.068.01.103.092.651.195 1.238.3 1.797.109.57.221 1.103.342 1.585.041.166.084.322.126.478 1.088 3.988 2.577 4.813 3.916 4.998 1.314.181 3.455 3.217 6.364 3.4.84.054 1.74-.12 2.709-.683zm25.655-22.95c0 .02-.002.036 0 .054 4.414.94 6.459 9.524 3.759 12.892-.26.892-.671 1.669-1.273 2.221-2.648 2.438-5.432-.004-6.185-2.446-.739-2.397.18-4.154 1.16-5.9.313-.757.723-1.477 1.129-2.203.35-.85.571-1.757.512-2.777m0-.056v.056c.227.048.442.126.657.213a5.842 5.842 0 0 0 .24-2m-3.232 17.754c.918.25 2.62 2.704 5.176 2.663.927-.015 1.963-.348 3.118-1.247 2.876-2.23 3.666-5.441 3.69-7.873v-.056c.006-1.222-.18-2.244-.397-2.83-.654-1.758-2.532-7.68-4.373-8.51-1.84-.837-2.647-4.252-3.312-4.095-.275.067-.634-.33-1.231-.832l-.048-.039c-.846-.705-2.171-1.604-4.505-1.78 0 0 .948 1.017 1.716 2.297.353.59.66 1.233.826 1.864l.042.161a3.073 3.073 0 0 1 .084.736c0 .039-.009.074-.01.112-.037.655-.321 1.243-1.03 1.656 0 0-.568.743-1.28 1.846a30.4 30.4 0 0 0-1.129 1.895c-.084.153-.163.31-.246.468-.04.08-.085.159-.126.242-.046.09-.087.183-.131.274-.866 1.795-1.49 3.74-1.06 5.14 1.037 3.363 2.976 7.57 4.226 7.908m26.152-4.474c.163-.223.228-.462.236-.718-.164.15-.333.284-.5.424.087.094.174.194.264.294m.442-1.006l-.286.238v.05c.09-.102.188-.184.285-.287m-1.254 1.287l-.031-.021c-.265.235-.53.463-.798.678l-.017.038c.362-.11.656-.229.893-.354a9.117 9.117 0 0 0-.047-.341m.08-.514c-.09.146-.154.284-.167.392l.2-.172c-.01-.074-.024-.147-.033-.22" fill="#FFF"/><path d="M125.582 79.44a7.174 7.174 0 0 1 .868-1.679c.012-.034.02-.073.032-.107.848-2.417 2.553-3.555 4.3-4.94l-.06.003c-.055.001-.1 0-.146-.003-.115-.006-.206-.02-.216-.055-.005-.022.018-.05.083-.087l.133-.047.145-.054.146-.052.147-.053.024-.009.68-.574c-.007-.012-.015-.023-.018-.038v-.011c-.006-.048.017-.112.07-.196a5.52 5.52 0 0 1-.075-1.028c.208.223.423.484.637.754l.462-.391c.012-.617-.232-1.333-.202-2.15 3.39 3.646 7.882 13.632 4.236 18.893-.569 1.708-1.677 3.149-3.563 4.06-3.994 1.934-7.55-.807-8.157-4.24-.412-2.346-.348-5.658.474-7.996zm-2.784 4.861c.253 1.441.752 3.58 1.647 5.467.51 1.076 1.152 2.055 1.952 2.777.106.095.21.193.32.279.064.048.133.082.198.127.718.5 1.542.813 2.507.794 0 0 .162.007.406.009l.056.001c1.307.002 5.18-.22 8.092-2.569 1.445-1.166 2.63-2.87 3.151-5.33.172-.8.295-1.652.305-2.622 0 0-1.368-12.626-5.851-14.737 0 0-2.843-5.05-6.799-4.955l.043.243.009.052c.067.414.193 1.243.291 2.258.238 2.451.3 5.911-1.093 6.864a1.394 1.394 0 0 1-.467.213s-6.008 5.256-5.002 9.474c0 0 .062.664.235 1.655zM83.814 120.91l.643.393-1.02-1.342c-.47-.5-.009.278.377.949m2.216 2.502c-.031-.057-.041-.082-.067-.13a24.83 24.83 0 0 0-.227-.326c-.009.096-.024.181-.132.11l.796.86c-.08-.118-.156-.235-.238-.355l-.132-.159m23.692 3.344c.118-.346.29-.677.5-.993-.207.36-.385.714-.5.993m6.091-5.448c-2.513 1.384-3.889 2.244-4.783 3.17-.289.319-.593.799-.85 1.285 1.18-1.933 3.754-3.325 5.633-4.455m-36.51-45.104l.265.061.12-.5c-.201.147-.433.29-.385.439m.428-.03c-.024.06-.105.133-.182.205-.127.118-.232.235 0 .295-.054-.049-.112-.177.08-.29.033-.02.016-.043.073-.061l.056.07.061.08-.022-.078-.066-.22" fill="#FFF"/><path d="M79.61 76.655c.132-.113.33-.517.11-.5l-.11.5m3.263-1.435l.055.006-.099-.045zm-1.705 1.3l-.294-.088.138.312zm1.215-.317l.002-.102-.395-.14-.105-.038.09.052.408.228m.547-1.213l-.04-.079-.368-.094c.181.125.145-.015.408.173m-6.843 20.958c.008.51.177.533.384.388-.185-.01-.26-.216-.384-.388" fill="#FFF"/><path fill="#FFF" d="M76.262 96.392l.064-.101-.124.096zm-5.424 5.485a5.233 5.233 0 0 1-.093-.013c.003.004.003.009.008.013h.085m-.75-1.769c-.466-.432-1.51-.448-1.942-1.04-.048.23.4.356.533.541l-.439-.098c.209.13.402.313.63.404-.038.052-.05.111-.073.158.027-.117.255-.122.412-.165.307.052.612.194.88.2m-1.504-1.237l-.331-.465-.169.24c.244.092.264.354.5.225"/><path fill="#FFF" d="M68.238 99.304l-.5-.46.25.5zm4.694-.117l-.838.364.798-.202zm3.28-3.194l-.096-.101-.38.5c.23-.087.096-.312.476-.399"/><path d="M73.307 107.636c-.054.016-.09.019-.14.035h-.004c-2.384.724-3.553.551-4.702.254l-.822-.125c.022.003-.36-.018-.337-.015l-1.269-.153a2.472 2.472 0 0 1-.857-.264l-1.12-.614c-.011-.004-.022-.007-.03-.013-.014-.006-.217-.12-.217-.12.009.005.019.003.028.007a2.782 2.782 0 0 1-.73-.598l-1.076-.761c.074.052-.539-.515-.459-.472l-.264-.141-1.402-.82a2.268 2.268 0 0 1-1.097-1.662 3.37 3.37 0 0 1-.918-.607c-.36-.327-.55-.768-.638-1.23-.13-.073-.242-.172-.356-.268-.718.027-1.444.043-2.184.043-5.796 0-11.995-.908-18.424-2.698-6.492-1.8-11.38-3.984-14.534-6.499-2.286-1.847-3.446-3.908-3.446-6.126v-.069l-.318-.132-9.39 19.076c.197.088.24.107.397.179 1.215-.797 2.205-1.262 2.955-1.262.524 0 1.511.215 5.173 1.785 12.154 5.337 24.64 8.043 37.112 8.043 6.507 0 12.686-.677 18.417-1.962.367-1.198.888-2.331 1.489-3.39-.027.013-.06.03-.088.042-.23.205-.436.439-.749.537m8.582-13.162c.012-.49.245-1.033.556-1.414.23-.285.565-1.065.91-1.971v-4.265a.619.619 0 0 0-.06-.01c-.752.333-1.555.196-2.183-.308-.161-.01-.314-.04-.492-.068-.089.003-.172-.05-.261-.06a3.152 3.152 0 0 1-.55-.17c.003.083.007.167.007.248 0 .938-.183 1.857-.489 2.76.19.234.328.51.378.849l.176 1.186c.01.008.04.038.04.038l1.136 1.297c.318.363.46.766.46 1.177 0 .168-.151.326-.198.494.23.634.329 1.255.329 1.856 0 .038-.007.074-.008.111l.422-.36a4.351 4.351 0 0 1-.177-1.153c0-.091.002-.172.004-.237m13.365-18.977c-.027-.052-.046-.106-.074-.158a21.553 21.553 0 0 0-3.814-5.009l-.068 1.226c-.05 1.126-.105 2.03-.22 2.784.027.094.133.147.147.244.027.193.04.377.04.555 0 .86-.287 1.507-.545 2.03.002.054.019.11.019.164 0 .028-.007.052-.008.08 1.327-.887 2.936-1.523 4.523-1.916" fill="#F68429"/><path d="M79.735 90.994l.166.162a1.445 1.445 0 0 0-.16-.19.154.154 0 0 1-.006.028m.222.095c0-.007.007-.012.01-.02-.076-.064-.102-.071-.354-.322 0 0 .188.19.344.342m-21.216 10.775c-.21-.33-.432-.657-.531-1.028.15.557.27.855.523 1.068 0-.013.008-.027.008-.04M24.297 71.073c2.903 1.313 5.85 2.289 8.757 2.903 2.932.616 8.067 1.258 15.264 1.907l10.84.978c.203.02.383.042.582.063.08-.143.161-.286.274-.44.399-.545 1.174-.903 1.851-.932l.957-.15c.076-.07.1-.146.19-.213.98-.725 2.399-.474 3.14.488-.003-.005-.002-.011-.005-.016l.024.031c.68.904 1.234 1.641 1.665 2.26 1.188.188 2.237.38 3.158.576a7.523 7.523 0 0 1-.602-.841c-.18-.108-.365-.206-.513-.367-1.745-1.922-2.736-5.016-2.823-8.563-.077-.208-.243-.37-.254-.6a9.752 9.752 0 0 1-.011-.472c0-2.28.73-4.443 1.512-6.34a152.254 152.254 0 0 0-6.531-.79l-11.058-.981c-7.545-.707-12.346-1.335-14.704-1.925-4.908-1.362-7.397-3.972-7.397-7.76 0-2.263.983-4.385 2.92-6.307 1.841-1.823 4.27-3.204 7.246-4.108 3.905-1.096 8.455-1.652 13.523-1.652 11.402 0 21.488 2.69 29.959 7.984 3.116 1.873 4.63 3.703 4.63 5.594l-.02.288.293.145 10.312-18.2-.324-.16c-1.256.822-2.417 1.316-3.478 1.316-.554 0-1.626-.183-5.402-1.549-7.814-2.957-14.419-5.006-19.63-6.088-5.175-1.079-10.862-1.626-16.902-1.626-14.27 0-25.09 3.068-32.16 9.116-5.36 4.581-7.966 10.213-7.966 17.217 0 4.196 1.05 7.95 3.122 11.157 2.3 3.574 5.512 6.283 9.56 8.057m86.048 97.971V137.41l-.506.267c-2.615 1.38-6.987 3.692-10.796 2.914l-2.227-.222-2.806-.424c-.096-.015-.186-.046-.277-.072v29.177c0 1.542-.39 2.772-1.157 3.657-.6.698-1.602 1.229-2.858 1.678v.16h24.639v-.153c-1.218-.423-2.205-.942-2.819-1.648-.792-.907-1.193-2.152-1.193-3.701m70.373-76.831c.604-.694 1.605-1.224 2.856-1.671v-.16h-24.644v.146c1.258.424 2.264.948 2.864 1.663.764.906 1.15 2.142 1.15 3.675v28.91H126.96c-1.04.676-2.776 1.805-2.778 1.805-1.492 1.042-3.086 2.246-4.337 3.474-.06.111-.04.231-.135.338-.047.051-.097.089-.144.14l.005-.001-.005.003c-2.481 2.695-5.097 4.447-8.04 6.196h51.419v32.314c0 1.547-.403 2.793-1.195 3.696-.614.711-1.6 1.23-2.82 1.653v.154h24.644v-.161c-1.254-.447-2.256-.978-2.859-1.675-.77-.888-1.16-2.118-1.16-3.66V95.877c0-1.541.39-2.774 1.163-3.665" fill="#F68429"/><path d="M82.644 74.99c-.078-.108-.068-.028-.122-.1l.11.055.012.045zm-3.266 1.275l-.08-.031c-.014-.076.056-.15.116-.224l-.036.255zm3.867-3.758s.338-4.328-6.531-4.386c0 0-3.334-1.328-3.15-2.86 0 0-.508 1.828-.348 4.02.2 2.769 1.503 6.098 6.237 7.115.023-.067.047-.135.054-.192l.02.208c.282.059.541.133.847.174 0 0 .238-.02.578-.101-.006-.016-.012-.024-.016-.045.016.021.035.023.052.037.272-.068.606-.175.938-.342l-.04-.015.047.011c.162-.082.322-.182.477-.295-.004-.009-.01-.017-.012-.025-.13-.098-.225-.102-.29-.16l.148.02c-.061-.106-.026-.22-.135-.295.044-.15.243-.074.364-.076l.059.136c.084.02-.009-.097-.052-.176.07.037.171.168.273.269l.035-.034c-.003-.096.031-.092-.06-.282l.135.154c-.04-.087.014-.057.06-.034l.03-.041-.106-.066-.016-.002-.014-.011.03.013c.088.017-.09-.15.005-.125l-.195-.138c.032-.015.127.004-.034-.12.218.122.178-.035.33-.015l-.15-.097c.198.089.053-.111.3-.012l-.062-.038.24.035c.001-.005.001-.011.004-.016-.045-.048-.226-.118-.164-.094.1-.038.117-.107.034-.187.097.027.155.02.205.007.125-.512.116-1.138-.127-1.919z" fill="#F68429"/><path d="M79.477 76.382c.044.01.088.017.129.028l-.056-.222c-.057.059-.04.13-.073.194m-3.741 20.01l.114-.16.028.033c-.113.028-.073.1-.142.127zm-2.844 3.099l-.798.06.838-.109-.04.049zm-4.807-.75l.15-.154.295.297c-.21.082-.228-.085-.445-.143zm-.191.604l-.156-.182.312.167-.156.015zm8.326-2.953l-.018-.002c-.062.044-.112.037-.115-.115.037.051.06.113.115.115l.037-.028c.102-.175-.172-.175-.057-.336l-.289.12c.074-.093.04-.3-.151-.204.256-.232.03-.626-.066-1.006l-.169.125c.168-.294-.372-.551-.28-.867l-.085.032-.065-.48-.02-.022c-.143-.092-.306.145-.256.074a1.606 1.606 0 0 0-.783-.658c.084-.162-.018-.365-.167-.56a20.882 20.882 0 0 0-1.691-1.254 8.608 8.608 0 0 0-1.849-.79c-1.294-.156-3.908-.406-5.41-.098 0 0-4.526.086-4.317-5.222 0 0-.228 1.695-.148 3.678.065 1.626.336 3.447 1.114 4.693 0 0 .965 2.26 3.136 4.194-.208-.316-.365-.643-.43-.984.431.537 1.468 1.015 1.785 1.725.306.003.477.448.7.295.72.31.987.725 1.533 1.1.169.06.346.107.522.157.023-.048.036-.107.074-.16-.228-.09-.421-.273-.63-.403l.439.098c-.132-.185-.581-.311-.533-.541.431.592 1.476.608 1.942 1.04-.267-.006-.572-.148-.879-.2-.157.043-.385.048-.412.165a.03.03 0 0 0 .01.005 9.86 9.86 0 0 0 1.497.32s1.628-.287 3.19-.988c.01-.025.02-.055.03-.074a.19.19 0 0 1 .016.052 8.575 8.575 0 0 0 1.04-.553c-.066-.08-.134-.163-.128-.278-.326.006-.71.08-.885.064l.555-.135c-.083-.107.212-.391-.093-.376.411-.354 1-.534 1.4-.77-.007.081-.041.165.024.222.217-.119.078-.224.035-.326.18-.054.348.107.56.14.012-.024.02-.05.031-.074.074-.328.124-.383.022-.704l.18.081c.02-.12.028-.246.027-.374l-.069.057-.019.03zm36.884-24.739c.14-.128.253-.285.374-.435 2.7-3.368.655-11.951-3.76-12.892a5.842 5.842 0 0 1-.24 2c-.267.907-.71 1.741-1.169 2.564-.406.726-.816 1.446-1.13 2.202-.504 1.213-.751 2.521-.262 4.115.754 2.441 3.539 4.885 6.187 2.446m21.059 18.239a6.756 6.756 0 0 0 2.665-2.276c3.646-5.261-.846-15.247-4.236-18.893-.03.817.214 1.533.202 2.15l.086-.07c-.03.03-.06.054-.086.085a1.401 1.401 0 0 1-.198.718c-.14.225-.37.432-.724.623a5.092 5.092 0 0 1-.893.354l-.062.127c-.016.001-.032 0-.05.002a6.14 6.14 0 0 1-.086.003c-1.746 1.384-3.451 2.522-4.299 4.94-.013.033-.02.072-.032.106-.79 2.332-.849 5.576-.443 7.89.605 3.433 4.163 6.174 8.156 4.24m-24.544 36.82c.347-.811.697-1.437 1.206-2.018l.128-.136c.025-.026.05-.053.077-.079.894-.926 2.27-1.786 4.783-3.17.777-.429 1.65-.902 2.669-1.45 1.046-.564 1.818-1.213 2.418-1.904 3.171-3.654.835-8.606.88-9.948.012-.27-.182-.781-.494-1.423-.066-.137-.139-.28-.215-.43a39.892 39.892 0 0 0-1.137-2.005 107.717 107.717 0 0 0-1.852-2.945c-1.495-2.294-2.876-4.269-2.876-4.269l-7.159-6.191s-2.666-5.684-4.799-9.125c-2.127-3.444-9.781 1.147-10.725 4.533-.942 3.389-2.885 11.755-2.885 11.755-1.39 1.516-4.93 8.679-4.93 8.679-2.77 3.443-2.7 7.42-2.17 10.13.373 1.908.971 3.192.971 3.192a107.326 107.326 0 0 0 2.454 3.375l.2.29.237.353c.614.922 1.111 1.743 1.201 2.12.263 1.121 5.645 5.366 11.146 6.423 5.5 1.06 9.75-3.117 10.872-5.757" fill="#F68429"/><path d="M77.502 86.456c0-.43-.052-.915-.201-1.419a2.131 2.131 0 0 1-.857-.494c-.57-.185-1.063-.52-1.277-1.157 0 0-.204-.607-.346-1.048l-.885-.45c-.125-.063-.224-.146-.327-.226-.161-.066-.294-.136-.468-.198-.967-.337-2.39-.669-4.208-.994-.056.319-.256.604-.546.892l-.066.162-.013.059c.007.045.1.639.172 1.138l.005.035c.315.368.597.782.876 1.224l.155.233c.75-.438 1.68-.51 2.741-.17.74.238 1.504.64 1.744 1.325.46.19.856.381 1.15.575.005.024.007.046.01.068.3.141.58.35.83.604l.023.011-.016-.004c.058.059.098.123.15.186.095.02.184.055.279.086-.02-.056-.057-.144-.057-.162 0-.013.005-.015.017-.003l.155.2c.328.127.608.317.863.538.053-.334.097-.67.097-1.011m19.71-12.216c.153.278.288.562.43.843.96-.096 1.84-.093 2.558.008.16.022.315.048.457.08-.084-.162-.16-.326-.247-.486-.752-1.37-1.639-2.617-2.588-3.805-1.957-2.86-4.39-5.27-7.307-7.148-2.51-1.564-5.277-2.865-8.261-3.916.02.19.05.384.05.565 0 .648-.113 1.242-.279 1.81 2.61.958 5.041 2.106 7.232 3.47 3.335 2.147 6.011 5.033 7.955 8.578M75.463 82.54s-.492-.432-.5-.436c.018.076.058.05.5.436m2.141 5.202l.001-.014c-.17-.081-.298-.205-.5-.266a.15.15 0 0 0 .013.026c.171.035.323.167.486.254" fill="#1F4FA2"/><path d="M12.571 67.855c2.747 3.939 6.44 6.962 11.012 8.966 3.173 1.433 6.44 2.514 9.673 3.2 3.174.664 8.344 1.315 15.81 1.988l7.277.656.527-1.318c.01-.025.03-.047.042-.07.144-.312.392-.598.64-.875-.006-.07-.054-.103-.054-.18 0-.341.078-.734.268-1.177l-9.656-.872c-7.288-.656-12.514-1.312-15.536-1.948-3.072-.648-6.178-1.677-9.223-3.053-4.46-1.955-8.015-4.955-10.563-8.915C10.474 60.673 9.3 56.503 9.3 51.859c0-7.607 2.95-13.986 8.77-18.96 7.501-6.418 18.828-9.671 33.67-9.671 6.199 0 12.045.562 17.374 1.673 5.33 1.107 12.052 3.19 19.964 6.184 3.69 1.335 4.475 1.404 4.595 1.405.71 0 1.658-.43 2.744-1.243l.574-.43 3.69 1.846L88.1 54.866l-2.95-1.462-.69-.379.117-1.625c0-.565-.456-1.788-3.53-3.636-8.114-5.072-17.785-7.643-28.745-7.643-4.856 0-9.194.527-12.87 1.559-2.587.786-4.695 1.975-6.266 3.53-1.506 1.496-2.239 3.026-2.239 4.68 0 2.665 1.866 4.48 5.676 5.537 2.184.547 7.004 1.172 14.322 1.858l11.065.981c2.605.26 5.02.56 7.25.893l.145-.335c.04-.091.257-.243.307-.328 0 0 .102-.168.125-.272l.463-1.231a150.537 150.537 0 0 0-8.058-1.014l-11.091-.985c-8.959-.84-12.54-1.441-13.964-1.798-1.27-.352-2.125-.753-2.707-1.158a2.72 2.72 0 0 1-.053-.603c0-.272.005-.955.618-1.906a6.7 6.7 0 0 1 .941-1.145c1.3-1.289 3.087-2.285 5.308-2.96.79-.222 1.628-.413 2.492-.586 2.874-.573 6.13-.874 9.701-.874 10.517 0 19.775 2.454 27.513 7.29.51.307.905.575 1.23.812-.061.778-.182 2.276-.182 2.276l1.235.662-.072.883 2.091 1.119 4.88 2.422.038.02 14.852-26.21-.039-.02-1.55-.776.423-.75-7.138-3.57-1.722 1.289c-.85.637-1.23.735-1.32.755-.343-.076-1.327-.333-3.836-1.242-7.993-3.025-14.832-5.142-20.281-6.274-5.485-1.143-11.49-1.722-17.849-1.722-15.41 0-27.245 3.441-35.178 10.229-6.353 5.429-9.576 12.395-9.576 20.702 0 5.091 1.297 9.68 3.854 13.64a26.095 26.095 0 0 0 1.731 2.356m3.629 38.618c-3.417-1.465-4.155-1.585-4.247-1.593-.022 0-.56.013-2.2 1.19l-.544.389-3.737-1.675 11.396-23.147 3.756 1.546v1.606c0 1.514.847 2.934 2.584 4.337 2.903 2.314 7.513 4.357 13.703 6.073 6.228 1.734 12.217 2.614 17.802 2.614.33 0 .65-.014.976-.019-.302-.792-.495-1.528-.557-2.289-.14 0-.277.008-.42.008-5.373 0-11.153-.851-17.177-2.53-5.89-1.63-10.221-3.532-12.88-5.65-.166-.135-.297-.267-.44-.398a1.755 1.755 0 0 1-.112-.601v-3.143l-1.167-.48v-1.064l-7.19-2.96-13.4 27.218 1.579.709-.413.838 6.794 3.043.336.15 1.627-1.163c.097-.07.163-.112.248-.168.305-.21.552-.366.72-.461.496.166 1.41.503 3.211 1.276 12.722 5.585 25.837 8.424 38.955 8.424 5.345 0 10.496-.43 15.388-1.263.245-.04.489-.081.732-.125.01-.614.047-1.216.105-1.809.082-.834.2-1.647.367-2.425-5.573 1.157-11.518 1.777-17.757 1.777-12.796 0-25.597-2.773-38.038-8.235m172-19.146v-1.545h-33.9v8.222l1.166.295v1.248l2.614.661c.094.025.153.046.235.07v23.9H131.4a8.826 8.826 0 0 1-1.518 2.298h30.75v-26.61c0-.979-.206-1.718-.612-2.2-.287-.342-.96-.833-2.532-1.23l-.873-.22v-4.134h29.273v4.11l-.844.236c-1.59.445-2.278.947-2.575 1.287-.397.46-.6 1.186-.6 2.162v73.174c0 .975.203 1.7.6 2.16.297.342.982.844 2.575 1.287l.844.235v4.112h-29.273v-4.128l.865-.224c1.21-.316 2.081-.748 2.522-1.257.418-.477.63-1.216.63-2.192v-30.015h-47.973v30.015c0 .978.21 1.717.63 2.196.436.505 1.308.937 2.519 1.253l.863.226v4.126H87.404v-4.112l.844-.235c1.591-.443 2.275-.943 2.572-1.289.397-.457.6-1.184.6-2.158v-30.38a16.249 16.249 0 0 1-1.88-.866c-.144.014-.291-.015-.435-.018v31.264c0 .504-.076.689-.086.714-.04.001-.421.247-1.396.518l-2.533.707v8.156h1.166v1.544h33.894v-8.2l-1.165-.304v-1.242l-2.59-.675c-.104-.028-.169-.053-.259-.079v-27.317h42.18v26.17c0 .528-.09.716-.095.725-.02 0-.358.249-1.329.501l-2.59.675v8.202h1.165v1.544h33.9v-8.153l-1.167-.326v-1.22l-2.534-.708c-.126-.034-.212-.067-.319-.1V97.42c0-.5.075-.684.087-.711.023-.001.182-.09.482-.212.22-.09.508-.196.918-.31l2.533-.707v-8.154H188.2m-70.382 7.309l.39.286a6.505 6.505 0 0 0-.5-.682l.11.396" fill="#1F4FA2"/><path d="M85.012 133.366c.58.309 1.072.57 1.632.832.278.132.571.264.908.404l.639.764c.402.141.654.212.829.244.535.096.316-.18 1.24.05 1.281.868 4.477 1.846 5.331 2.07.477.356-.736.042-1.037.067 2.138.536 2.033.195 4.814.604l.033.12c.265.047.546.041.822.051 3.284.116 7.215-2.16 9.316-3.242 3.302-1.93 5.994-3.641 8.513-6.421-.288.266-.286.143-.453.2a17.85 17.85 0 0 1 1.557-1.501c.111-.097.223-.192.338-.289 1.045-.873 2.21-1.715 3.394-2.543-4.439 3.007-4.904 3.908-5.655 4.646-.92.907-6.74 5.043-8.53 5.467-1.513.364-3.766 3.324-9.96 2.05-1.786-.233-3.561-.753-5.179-1.443-1.202-.445-2.805-1.13-2.915-1.415.231.08.347.101.418.098-.14-.06-.292-.125-.426-.184-.323.088-.265.364-1.872-.405l.352-.29c-.24-.114-.48-.226-.695-.331-.395-.14-.812-.369-1.253-.638-.936-.496-1.541-.872-1.92-1.136a9.244 9.244 0 0 0-.59-.278c-.09-.138-.095-.204-.056-.233-.27-.045-7.843-1.392-8.437-11.694 0 0-1.622-6.813 4.376-13.39 0 0 5.638-6.488 5.966-8.282.331-1.795 3.07-14.112 3.07-14.112s6.631-10.083 14.39-3.09c2.411 2.166 3.59 3.947 3.9 5.244.308 1.295 3.79 3.207 3.79 3.207l3.787 3.213s.205.24.531.634l.22-.14c-.546-.293-1.792-1.83-2.063-2.193l-.71-.028c-.892-1.068-1.509-1.724-1.57-2.294l-.156.391c-.956-.757-3.904-2.76-2.47-2.501-.32-.258-.389.14-.56-.353l.315-.297c-.724-1.772-1.848-2.82-1.936-3.307.572.558.89.625 1.187.797-4.081-4.743-1.593-.273-5.604-3.693l.193-.18-1.355-.435c-.36-.352-.82-.58-1.276-.846-2.15-.501-8.179.63-9.884 3.56-.405.452-.958.88-1.575 1.47l-.475.486c-.17.32.039-.345-.469.84l-.104.32c-.137.435-.265.908-.366 1.431l.42-.05c-.77 1.585-2.39 7.751-3.625 9.132-.038 1.65.117-.149.418-.048-.357 3.63-.66 2.338-1.64 3.548-.81 1.525.836-.977.573-.058-1.754 2.006-.87 2.118-3.3 4.717-.4.127.472-.81.579-1.193-1.054 1.988-5.17 5.882-6.187 10.366-1.5 4.84-1.301 12.479 3.523 17.793l.188-.025c.891 1.076 2.13 1.907 3.541 2.482l1.103.39.286.08c.558.43.94.635 1.417.975-.202-.172-.385-.319-.573-.476a12.23 12.23 0 0 1-.449-.396l.175.04c.477.244.881.457 1.241.647m-7.738-30.831c.612-.564 1.102-1.191 1.361-1.883.121-.32.194-.655.205-1.003-.55 1.611-3.31 2.627-4.364 3.81-.649-.023-1.298.732-1.685.429-1.22.629-2.24.684-3.298.614-.645-.042-1.304-.131-2.032-.165-.285-.133-.1-.307-.15-.515l1.693.123-.668-.244-1.942-.375.229.21c.138.093.316.185.456.277.148.099.254.198.218.297-.04-.008-.067-.022-.107-.032-1.444-.357-2.222-.908-2.871-1.568-.628-.636-1.145-1.37-2.052-2.122-.39-.39-.803-.994-.703-1.183.27.237.237-.073.489.095-.599-.494-.618.38-1.22-.548l.64-.298c-.863.006-.661-.973-1.481-1.75.045-.135.113-.162.194-.13C58.677 94.312 59 85.02 59 85.02c2.98-6.543 4.566-6.231 4.566-6.231-.427 4.56 2.265 6.316 2.93 7.528.667 1.213 4.274 2.065 6.221 2.288 1.774.205 3.342 2.178 5.223 4.485.4.216.856.423 1.23.673-.486-.77-.72-.69-1.283-1.376-.32-.593-.152-1.086-.331-1.741l-.087.492c-.858-.484-.278-.63-1.064-.903l.471-.424c-.448.039-.823-.617-.978-.952l-.468.182c-.216-.459-.602-.691-.83-.968l-.041-.056a.677.677 0 0 1-.135-.305l-.056.405c-.498-.543-2.401-.523-1.617-1.075-.156.068-.328.24-.642.138l.028-.4c-.47.008-1.002-.04-1.067-.293.26-.027.387-.185.504-.335a1.811 1.811 0 0 0-.619-.102c-.007 0-.013.003-.02.004-.861.049-.391 1.207-1.729.748l.121-.23-.47.084c-.097-.152-.084-.311-.107-.446-.271.698-.934-.537-1.533-1.456l-.034-.05c-.27-.41-.525-.749-.724-.802-.24-.318-.016-.968-.242-1.57l-.369.153c.096-.329.14-1.018.363-1.675l.194-.483.104-.214.002-.003.056-.104.013-.022.009-.014.002-.007.002-.002-.144-.192a.165.165 0 0 1-.01-.013l-.926-1.236-.25-.333a127.05 127.05 0 0 0-.512-.68h-.01l-.04-.01-.656-.052c-1.473.107-1.792.371-2.23.343-.731.998.15-.02.313.262-1.288 1.664-1.555 1.28-2.308 1.848-.4.914.553-.52.492.086-1.113 1.04-.227 1.228-1.307 2.535-.28.036.078-.449.036-.673-.143.615-.448 1.357-.838 2.146l-.3.599-.077.152-.02.038c-.42 1.781-.117.518-.212.93l-.003.088-.015.336-.001 1.285c-.288 1.882-.358 4.61-.373 7.049l.149.023c-.133 1.138.121 1.952 1.035 3.989-.168-.389-.253-.728-.268-.973 0-.008-.005-.022-.005-.03.842 1.216.93 1.39 1.399 1.906l-.115.55c.55.5.474.046.969.335.182.687 1.298 1.654 1.532 1.924.014.307-.394-.042-.56-.054.666.554 1.112.415 1.789 1.07l-.07.093.04.024c.47.249.984.63 1.471 1.024l.378.316.095.08.047.041.012.01.002.002v.002l1.15.627h.006l.032.003.255.029.641.079.388.047a4.27 4.27 0 0 1 1.207.136c.871.212 1.555.523 3.857-.2-.184.049-.172-.052-.271-.102 1.441-.621 3.5-1.586 4.908-2.885M66.25 105.41c.074.039.056.03 0 0" fill="#1F4FA2"/><path d="M65.35 104.802v-.005c-.547-.5-.778-.71 0 .005M85.44 66.68c-.169-.018-.334-.109-.5-.205.17.123.365.292.5.204" fill="#1F4FA2"/><path d="M79.657 61.922c.032-.062.055-.096.07-.097.02-.001.026.05.023.124l-.111.004c.008-.019.011-.016.018-.03zm9.174 8.327c-1.086-1.353-.939-1.8-1.711-2.83-1.229-.729.761.811-.025.566-1.425-1.505-1.194-.194-2.404-1.275-.003-.104.065-.11.15-.093-.983-.307-2.005-1.404-4.285-1.884.01-.232-1.094-2.058-.813-2.67-.026.275-.086.58.106-.238.044-.126.058-.26.088-.391.022-.093.049-.185.063-.28.146-.918.013-1.898-.204-2.714l.032.54.032.548c-.253-.638-.437-1.097-.635-1.492a5.088 5.088 0 0 0-.813-1.195l-.065-.71-.295-.22-.16-.105-.039-.019-.016-.012-.008-.004-.005-.002-.001-.002-.002-.001-2.257.54c.033.029.419.37.743.9l.376-.09h.001l.002.003.003.002.016.013.078.06.295.302-.494.289c.009.024.012.052.02.077.69.037.75 1.032 1.16 1.802.029.054.053.11.086.161-.124.193-.232.13-.347-.047-.115-.176-.238-.467-.39-.737.088.384.248.554.379.742a.99.99 0 0 1 .191.628c-.2-.217-.377-.392-.602-.518-.004-.003-.007-.009-.012-.011.004.003.005.007.01.01.64.562-.201 1.064-.44 1.167.129.075.575.06.45.563-.123.216-.247.092-.342.145.108.044.432.268.482.639-.132.077-.24-.063-.362-.161.667 1.62 1.892 3.214 2.753 3.264 1.424.087 2.33.934 5.563 2.711 3.232 1.774 3.2 10.485-1.119 13.002-.968.564-1.869.737-2.71.684-1.394.067-2.888-.391-4.225-1.497-.422-.325-1.482-.425-1.883-.311.427.308.654.19 1.295.66.435.488.28 1.005.592 1.586l-.01-.486c.925.266.397.538 1.202.618l-.365.518c.413-.139.885.41 1.086.696l.405-.282c.53.42.955.63 1.093 1.075l.01-.41c.158.505 2.784-.056 1.964.701.223-.111.399-.291.832-.428l.175.36c.645-.339 1.308-.708 1.607-.597-.305.237-.356.447-.408.66.23-.13.409-.246.566-.356 1.683-1.173-.479-1.191 1.182-2.562l.176.189.113-.638.587-.316c-.012-.059 0-.127-.002-.189v-.009c-.002-.087-.01-.172.006-.265.18-1.05 1.403-2.469 1.114-3.68-.037-.485.69-1.072.552-2.051l-.397.063c.454-.754.406-3.611.534-4.95-.712-.711-.025.129-.324.244zM71.54 59.734l-.1-.051c-.954 2.256-2.347 5.028-2.4 7.836-.004.18-.02.359-.012.539.053-.19.132-.133.227-.198a17.228 17.228 0 0 0 .335 3.72c.142.68.33 1.329.567 1.932.353.898.807 1.697 1.377 2.324-.27-.62-.389-1.459-.512-2.319-.023-.163-.05-.325-.073-.488a28.597 28.597 0 0 1-.342-1.585 3.955 3.955 0 0 0-.37-.88c.145-.31.088-.69.06-1.02-.988-7.335 4.955-12.538 4.955-12.538l.294-.695-1.295.31-1.169.28.005.031.08.164a.73.73 0 0 1 .114.163 14.419 14.419 0 0 0-.95 1.179c-.275.04-.019-.39-.035-.552-.448.794-.15.955-.756 1.848m6.543-4.03c.548-.15.775-.21 0 0m-.262.062c.219-.09.373-.158.5-.208a77.8 77.8 0 0 1-.5.208m.135-.206l-.5.293c.11-.064.305-.177.5-.293m36.824 21.936c-1.155.899-2.19 1.232-3.118 1.247-1.302.577-2.754.574-4.2-.47-.415-.284-1.547-.601-1.956-.531.096.085.187.15.282.208.276.171.576.28 1.073.662.44.525.408 1.04.829 1.663l-.084-.515c.981.264.562.519 1.458.492l-.234.585c.262-.096.718.043 1.092.202.148.063.285.128.39.184l.319-.413c.72.237 1.218.13 1.563.48l-.179-.366c.498.34 2.406-1.248 2.04-.22.142-.188.195-.46.607-.664l.302.28c.437-.5.87-1.053 1.168-1.022-.184.311-.152.522-.12.732.626-.597.825-.945.84-1.195v-.025c.008-.541-.866-.617.03-1.871l.203.16.083-.615.546-.389c-.418-1.046 1.212-2.93.768-4.365-.014-.505.501-1.178.36-2.21l-.372.103c-.024 2.432-.814 5.642-3.69 7.873m-8.46-22.192c.26.1.503.252.75.419.038.027.078.053.118.08-.013-.067-.03-.136-.042-.204-.336-.174-.626-.307-.826-.295m1.296.973a2.277 2.277 0 0 1-.491-.114c.181.173.319.33.456.488.005-.126.035-.246.035-.374" fill="#1F4FA2"/><path d="M101.852 55.325l.001.001.006.006.012.013.232.209-.14.486c.443.34.423-.029.842.168.049.248.207.52.371.765.075.114.14.213.206.308.12.169.222.312.225.368-.126.188-.305-.033-.428-.033h-.002c.298.332.739.283.776.573l-.11.015c.11.126.355-.123.379-.121l.103.054c-1.292 1.21-.547.627-.902 1.012l-.57.942c-.232.387-.457.786-.673 1.189-.489.903-.925 1.84-1.239 2.796.106-.164.165-.084.274-.116-1.757 2.596-.932 7.454 1.096 8.637-.66-1.378-1.146-3.93-1.164-5.66.368-.529.369-1.476.82-1.564.67-1.217.848-2.123 1.185-3.08a8.004 8.004 0 0 1 .898-1.821c.241-.211.322.03.534.07l-.768 1.513.007-.007a30.4 30.4 0 0 1 1.129-1.895c-.249.175-.503.374-.624.26.334-1.206 1.294-1.745 1.017-2.054.001-.522-.227-1.314-.796-2.067-.184-.263-.396-.599-.483-.844-.038-.11-.059-.206-.028-.262.01.01.016.007.025.014.215.172.22-.08.448.073-.204-.168-.34-.166-.457-.136-.206.053-.354.193-.697-.329l.547-.297.07-.039c-.035.006-.058-.002-.088 0a.533.533 0 0 1-.378-.102l-.151-.17-.066-.097-.034-.053-.013-.026-.002-.002v-.002l.141-.296c.155-.32.389-.81.542-1.13l.006.003.008.002.018.006c.398.13.81.3 1.262.157.23.316-.338.387-.938.316.659.242.803-.205 1.358-.02l-.646.451c.697-.442.974.403 1.182.649.05-.06.036-.278.145-.38-.768-1.28-1.716-2.298-1.716-2.298 2.334.177 3.66 1.076 4.505 1.781.274-.039.695-.07.772.018l.494.18c-.365-.12-.75-.193-1.106-.17-.052.006-.071.006-.112.01.597.503.956.9 1.231.833.665-.157 1.472 3.258 3.312 4.094 1.84.831 3.72 6.753 4.373 8.511.217.586.403 1.608.397 2.83.412-1.038-.397-3.817.288-4.607-.532-.538-.054.1-.356.193-.853-1.105-.318-1.417-.377-2.184-.506-.712.11.66-.343.35-.24-1.33-.832-.762-1.375-2.389.11-.264.368.328.575.417-.506-.467-.846-1.174-1.616-2.12-.124-.353-1.323-1.208-1.68-1.432.014-.018-.077-.044-.233-.215-.248-.486-.46-1.163-1.165-2.599l-.162-.21-.548-.708c-.09-.083-.209-.159-.325-.234a3.4 3.4 0 0 0-.58-.298c.196.065-.113-.078-.148-.22-.34-.385-.862-.872-1.382-1.3-.069-.058-.14-.119-.21-.174l-.12.094a3.237 3.237 0 0 0-.74-.55c-.75-.427-1.662-.63-2.537-.83-.134-.03-.273-.062-.402-.093l.621.315c-.462.052-.8.022-1.133-.02l-.25-.035-.125-.015-.065-.01h-.01l-1.263 2.632-.475.992-.568 1.185m23.982 17.295c-.005-.019-.02-.003-.025-.025-.313.146-.147.078.025.025" fill="#1F4FA2"/><path d="M125.607 72.764c.024.077.054.118.103.11.205-.182.07-.165-.103-.11" fill="#1F4FA2"/><path d="M119.488 78.784c-.322 1.793-.839 1.849-1.317 2.881.14 1.42.231-1.022.49-.234-.327 2.223.45 1.632.41 3.448-.198.214-.224-.442-.398-.613.562 1.23.765 3.57 1.517 5.415.496 1.978 1.802 6.113 6.268 7.433l.097-.133c1.386.585 2.722.143 4.03.148l-.572-.11-.11-.022c.843-.342 1.347-.272 2.141-.543l.556.289c.862-.379.306-.421.874-.844.887.01 2.457-.967 2.79-1.222.35.011-.171.42-.243.6.909-.76.663-.949 1.736-1.87l.09.073a13.717 13.717 0 0 0 2.092-3.21c.654-1.389 1.082-2.894 1.188-4.414-.52 2.46-1.706 4.164-3.15 5.33-.88 1.194-2.173 2.073-3.573 2.827-.553.348-1.4.543-1.548.406.363-.202.024-.254.303-.455-.766.436.153.748-1.118 1.003l-.012-.712c-.315.857-1.502.207-2.313.718-.342-.242.223-.462.877-.574-.765-.023-.783.398-1.403.426l.52-.634c-.583.626-1.147-.029-1.483-.215-.035.138.277.603-.492.546-.364-.11-.171-.244-.25-.334-.04.126-.376.408-.953.297-.05-.2.43-.197.495-.415a1.182 1.182 0 0 1-.898-.381c-.69-.137-.09.31-.569.282-.584-.492-.26-.615-.014-.81l.013-.01a.455.455 0 0 0 .17-.248l.001-.025c.005-.033.017-.062.011-.102.027.008.053.011.08.02a3.898 3.898 0 0 0 1.095.155c-.066-.045-.135-.079-.198-.127-.102-.02-.202-.035-.306-.058.035-.047.016-.13-.015-.221-.8-.722-1.441-1.701-1.952-2.777-.102-.148-.21-.292-.302-.445.007.198.065.436-.082.464-.427-.564-.108-.626-.01-.814-.332-.416-.693-.221-1.082-.435-.026-1.16-.26-1.262-.014-2.291l-.375.148c.16-.723-.447-.698-.352-1.462.076-.055.228.2.362.401-.254-.605.226-.636-.024-1.22l.232.187a22.938 22.938 0 0 1-.235-1.655c-1.006-4.218 5.002-9.474 5.002-9.474.171-.041.325-.116.467-.213.825-2.47.43-4.83.034-7.116.361-.01.706.132 1.059.252a35.244 35.244 0 0 0-.291-2.258c-.03-.022-.052-.043-.08-.065-.16-.131-.297-.26-.381-.42l.01.349v.054a.502.502 0 0 0-.188-.09 3.359 3.359 0 0 0-.404-.098l-.48-.073-.127-.018-.06-.01h-.015l-.291.358c-.424.526-.737.911-.948 1.17l-.164.206c.03-.037.01-.014-.127.154-.236.293-.12.15 0 .001v.012l.003.022.015.167c.026.44-.024.796-.41.498.114.156.342.28.348.657l-.389.108c.157.515.306 1.109.092 1.276-.118-.276-.31-.357-.493-.43.077 2.181 1.383.376 1.455 2.358l-.257-.026.263.502-.337.494c.146.115.213.335.238.573.036.337-.03.714-.209.936l-.03.052c-.084.147-.177.31-.23.32-.06.052-.216.159-.602.388a2.161 2.161 0 0 0-.348.483c-.339.42-1.21.568-1.86 1.39l.344.208c-.877.326-2.922 2.724-4.083 3.345-.116.959.12-.056.399.096M83.814 120.91c-.386-.671-.847-1.45-.376-.95l1.019 1.343-.643-.393zm33.255 1.598c2.316-1.247 3.39-2.885 3.831-4.554-.6.69-1.372 1.34-2.418 1.903a310.698 310.698 0 0 0-2.67 1.45c-1.878 1.131-4.451 2.523-5.631 4.456.256-.486.56-.966.849-1.285-.027.026-.052.053-.077.08-.044.043-.085.09-.128.135-.509.58-.86 1.207-1.206 2.018-1.122 2.64-5.372 6.818-10.872 5.757-5.5-1.057-10.883-5.302-11.146-6.422-.09-.378-.587-1.2-1.201-2.12l-.796-.86c.108.071.123-.014.132-.11-1.08-1.544-2.227-3.05-2.227-3.05s-.598-1.283-.97-3.192a7.861 7.861 0 0 1-.235-1.011c-.427-1.87-.265-3.646.221-5.375-3.53 5.661-.426 12.232-.426 12.232s3.822 5.014 4.089 6.138c.265 1.12 5.649 5.369 11.148 6.426 5.499 1.055 9.752-3.122 10.871-5.762.39-.91.787-1.586 1.404-2.228.018-.095.05-.217.11-.378a4.75 4.75 0 0 0-.09.359c.179-.185.378-.369.601-.553.072-.126.149-.251.252-.38-.032.083-.075.18-.11.267 1.243-.985 3.2-2.057 6.695-3.94z" fill="#1F4FA2"/><path d="M85.963 123.071c.065.084.09.127.169.225l.33.275a50.204 50.204 0 0 0-.5-.5m5.148-34.267c-.647 2.335-1.77 7.031-2.408 9.727 1.146-2.234 1.983-4.523 1.961-6.955.252-1.133.543-2.448.675-3.354a3.776 3.776 0 0 0-.228.582M79.663 76.447c.105-.007.01.161-.053.208l.053-.208zm1.311.225l-.053.072-.047-.1.1.028zm-1.521-.276c-4.734-1.017-6.036-4.346-6.237-7.114-.218 3.03.436 8.177 7.158 9.091 0 0 .836-.072 1.638-.5-.049-.058-.095-.112-.167-.092l.011.055c-.136-.248-1.098-.027-1.295-.338l.041-.095c-.297-.141-.66-.227-.778-.777.15.09.481-.191.574.219.089-.14.145.101.205-.11.175-.05.364.381.638.33.028-.046-.006-.149-.013-.251l-.198-.075.099-.099c-.053-.08-.138-.032-.177-.155-.34.081-.578.101-.578.101-.306-.041-.565-.115-.847-.174l.007.072-.019-.074c-.012-.004-.025-.006-.038-.009a.37.37 0 0 0-.024.273c-.07-.056-.038-.166 0-.278zm3.584-1.233c-.035.045-.067.092-.102.137.122.053.234.097.183-.087l-.081-.05m-.272.259c.048.05.097.108.147.152-.026-.124-.026-.193-.03-.266-.037.04-.078.073-.117.114m.527-.714l.074.011c.002-.017-.04-.043-.059-.064-.008.016-.008.037-.015.053" fill="#1F4FA2"/><path d="M81.926 76.135a4.624 4.624 0 0 1-.938.342c.16.128.35-.027.522.193-.053.06-.144.019-.218.052-.02.075-.064.136-.044.24.283.251.457.072.713.08.066.005.143-.039.12-.138l-.093-.149c.107.057.125.352.234.274l-.134-.334c.174.339.12-.102.279.065-.027-.147-.108-.192-.173-.185.047-.078.128.106.182.075l-.166-.259c.166.244.076-.102.065-.207.034.068.099.295.163.244l-.046-.158c.035.068.12.18.17.165l-.145-.216c.034-.012.071-.009.057-.097.098.046.064.135.153.214.056-.106-.139-.302-.217-.5a3.474 3.474 0 0 1-.477.295l.182.042-.001.03-.188-.068m.167 1.711c.079-.044.159-.088.24-.137-.112-.002-.252-.012-.287.01 0 .062.035.082.047.127M73.494 99.41c-1.562.7-3.19.989-3.19.989a9.996 9.996 0 0 1-1.497-.32c.874.466 1.382.764 2.714.7.24-.023.543-.126.55-.25-.158-.001-.071-.127-.207-.152.345.017.142.421.595.243l-.171-.385c.302.363.537-.226.933-.102.06-.202-.182-.212-.43-.147.254-.157.355.058.578-.026l-.326-.262c.303.21.38-.104.45-.288m2.658-2.291c-.039.08-.063.167-.103.247.015.002.027.012.044.014.023-.11.04-.169.059-.261m-1.829 1.917c.286-.026.06.17.264.208.204-.173.1-.283-.005-.409-.329.208-.683.39-1.041.553.03.109.05.31.288.187.105-.095.01-.151.018-.21.049.075.213.178.409.104-.017-.123-.2-.11-.258-.217.14-.054.267-.083.325-.216m-6.048.624c.12.169.237.344.396.5.073-.005.104-.08.126-.177-.176-.103-.353-.202-.522-.323" fill="#1F4FA2"/><path d="M70.745 101.873c-.485-.107-.106-.323-.668-.386l-.02.065c-1.107-.533-2.48-.984-3.492-1.807.083.028.09-.03.145-.057-.755-.52-1.542-1.175-2.024-1.907-2.171-1.934-3.136-4.194-3.136-4.194-.778-1.246-1.05-3.067-1.114-4.693-.074 1.886.03 4.743 1.114 6.479 0 0 2.552 6.019 8.754 6.811 0 0 .445-.077 1.09-.251a3.563 3.563 0 0 1-.621-.056h-.026l-.002-.004" fill="#1F4FA2"/><path d="M71.405 101.93c.312-.093.67-.211 1.048-.355-.036-.053-.07-.111-.189-.145-.46.257-.412.253-1.53.289-.057.048-.032.098.011.148l.028.005c.971.005.488.032.632.058m38.073-41.604a3.953 3.953 0 0 0-.657-.213c.059 1.02-.162 1.927-.512 2.777.46-.823.902-1.657 1.169-2.564m-3.458 10.667c.753 2.442 3.537 4.884 6.185 2.446.602-.552 1.012-1.329 1.273-2.22-.121.149-.234.306-.374.434-2.648 2.439-5.433-.005-6.187-2.446-.49-1.594-.242-2.902.262-4.115-.98 1.747-1.898 3.504-1.16 5.9m19.988 14.658c-.406-2.313-.347-5.557.443-7.889a7.174 7.174 0 0 0-.868 1.679c-.822 2.338-.886 5.65-.474 7.996.606 3.433 4.163 6.174 8.157 4.24 1.886-.911 2.994-2.352 3.563-4.06a6.756 6.756 0 0 1-2.665 2.276c-3.993 1.933-7.551-.808-8.156-4.242m72.083 91.675l-.796-2.237h-.9v3.125h.58v-2.521l.883 2.52h.481l.867-2.52v2.52h.581v-3.124h-.902l-.794 2.237m-4.91-1.714h1.026v2.602h.622v-2.602h1.026v-.523h-2.674v.523" fill="#1F4FA2"/><path d="M67.079 103.813c-.14-.092-.318-.184-.456-.277l-.23-.21-.404-.078s-.316-.331-.726-.75a48.238 48.238 0 0 0-1.515-1.5c-1.36-1.25-3.474-4.279-3.474-4.279-.032-.039-.057-.1-.088-.145-.081-.032-.149-.005-.194.13.82.777.618 1.756 1.481 1.75l-.64.298c.602.929.621.054 1.22.548-.252-.168-.219.142-.49-.095-.1.19.314.793.704 1.183.907.752 1.424 1.486 2.052 2.122.649.66 1.427 1.211 2.871 1.568.04.01.068.024.107.032.036-.1-.07-.198-.218-.297M82.07 62.18c-.02.08-.055.114-.073.19.003.007.006.015.011.023.017-.072.041-.14.061-.212m-11.751 7.363c.038.33.115.71-.081 1.02a3.5 3.5 0 0 1 .5.88 29.974 29.974 0 0 1-.406-1.797c-.007-.035-.006-.068-.013-.103m9.613-8.018c-.079.107-.147.22-.23.325-.025.05-.035.04-.062.102l.37-.014c.01-.25-.009-.418-.078-.413m-2.853-4.03l-.295-.302-.078-.06-.016-.013-.003-.002-.002-.003-.377.09c.107.175.2.369.277.579l.494-.289m-.474.366c.156.477.198 1.022-.066 1.594-.022.046-.031.101-.048.152.043.07.104.13.138.204l-.022.1-.003.01c0-.004-.005-.006-.006-.01-.03-.082-.091-.151-.13-.23-.02.071-.037.142-.047.218-.093.646.099 1.497.447 2.345.123.098.23.238.362.16-.05-.37-.374-.594-.482-.638.095-.053.22.07.343-.145.124-.503-.322-.488-.452-.563.24-.103 1.08-.605.44-1.166-.004-.004-.005-.008-.01-.011.006.002.01.008.013.01.225.127.402.302.602.52a.99.99 0 0 0-.191-.629c-.13-.188-.291-.358-.379-.742.152.27.275.56.39.737.115.178.223.24.347.047-.033-.05-.057-.107-.086-.16-.41-.771-.47-1.766-1.16-1.803m32.665-4.762c.355-.049.741.107 1.106.36l-.494-.38c-.077-.186-.498-.121-.772-.039.015.028.033.055.048.081.04-.009.06-.009.112-.022m-2.211 2.646c.042.023.086.035.129.059.016.074.013.144.025.217-.074.045-.143.104-.224.14-.047-.102-.109-.199-.165-.3.081-.029.158-.076.235-.116zm-1.713 2.613c.277.31-.683.848-1.017 2.054.12.114.375-.085.624-.26a31.545 31.545 0 0 1 1.28-1.846c.709-.413.993-1.001 1.03-1.656-.042-.047-.083-.094-.137-.146a.686.686 0 0 0 .147.034 3.073 3.073 0 0 0-.084-.736l-.118-.063a4.328 4.328 0 0 0-.75-.332c.2-.009.49.096.826.234-.167-.63-.473-1.274-.826-1.864-.109.102-.096.32-.145.38-.208-.246-.485-1.09-1.182-.649l.646-.45c-.555-.186-.7.26-1.358.019.6.071 1.168 0 .938-.316-.453.143-.864-.027-1.262-.157l-.018-.006-.008-.002-.006-.002c-.153.32-.387.81-.542 1.13-.07.15-.123.257-.141.295v.002l.002.002.013.026.034.053.066.098.151.17a.532.532 0 0 0 .378.1c.03 0 .053.007.089.001l-.071.04-.547.296c.343.522.491.382.697.33.118-.03.253-.033.457.135-.229-.152-.233.099-.448-.073-.009-.007-.015-.004-.025-.014-.03.056-.01.153.028.262.087.245.299.581.483.844.569.753.797 1.545.796 2.067zm-20.709 72.335l-.02-.008h-.003l-.006-.002c-.04.03-.034.095.056.233.2.083.395.18.59.278-.465-.325-.604-.484-.617-.5m-.022-.017h.005c.027.006.055.01.055.01s-.043-.004-.06-.01M72.386 111.37c.016-.07.053-.127.07-.194.032-.096.044-.212.076-.305a6.138 6.138 0 0 0-.146.5m14.787 20.96c.441.27.858.497 1.253.638a40.09 40.09 0 0 1-1.253-.638m3.467 1.664a73.564 73.564 0 0 1-1.519-.696l-.352.291c1.607.77 1.55.493 1.872.405m2.923 1.501c1.618.69 3.393 1.21 5.178 1.443a22.782 22.782 0 0 1-3.821-1.16 118.19 118.19 0 0 1-3.854-1.6c-.07.003-.187-.017-.418-.098.11.284 1.713.97 2.915 1.415m49.885-49.517c-.015.114-.09.227-.113.34a4.36 4.36 0 0 0-.034.16c.01-.034.147-.465.147-.5m-9.328 12.158c.19-.005.344-.18.5-.5-.106.064-.214.077-.32.123-.088.185-.098.209-.18.377m-15.883-7.827c-.059-.108-.156-.188-.211-.298.019.036.304.465.324.5 0 0-.103-.189-.113-.202m10.887-24.215c-.353-.12-.698-.262-1.06-.252.398 2.285.792 4.645-.033 7.116 1.393-.953 1.331-4.413 1.093-6.864m-6.17 20.152c-.246 1.03-.012 1.13.014 2.291.389.214.75.019 1.081.435-.097.188-.416.25.01.814.148-.028.09-.266.083-.464.091.153.2.297.302.445-.895-1.887-1.394-4.026-1.647-5.467l-.232-.186c.25.583-.23.614.024 1.22l.079.113c.098.011.106-.202.143-.389.076.586-.01.564-.143.39l-.032-.002-.047-.113c-.134-.2-.286-.456-.362-.401-.095.764.511.739.352 1.462l.375-.148m3.942 6.577c-.174-.154-.335-.329-.5-.5.048.164.078.312.023.396.163.04.319.07.477.104m-1.131-.288c.019.132-.02.23-.036.342.095-.105.203-.182.3-.278-.088-.028-.176-.038-.264-.064" fill="#DBD0C9"/><path d="M126.13 93.689c.2.217.505.385.897.38-.065.219-.545.217-.495.416.577.111.913-.17.954-.297.078.09-.115.223.249.334.77.057.457-.408.492-.546.336.186.9.84 1.483.215l-.52.634c.62-.028.638-.449 1.403-.426-.654.112-1.22.332-.877.574.81-.511 1.998.139 2.313-.718l.012.712c1.271-.255.352-.567 1.118-1.003-.28.2.06.253-.303.455.149.137.995-.058 1.548-.406 1.4-.754 2.692-1.633 3.572-2.827-2.912 2.348-6.785 2.571-8.092 2.569a.285.285 0 0 0-.024.008l-.032-.01c-.244 0-.406-.008-.406-.008-.965.02-1.789-.294-2.507-.794a3.898 3.898 0 0 1-1.083-.153c-.034.036-.07.067-.103.105a.455.455 0 0 1-.17.248c-.07.11-.147.217-.192.349.045-.134.116-.232.18-.34-.248.196-.571.319.013.81.478.028-.12-.418.57-.281" fill="#DBD0C9"/><path d="M185.666 170.283l2.534.707v1.221l1.167.326v8.153h-33.9v-1.544H154.3v-8.202l2.591-.675c.971-.252 1.308-.5 1.329-.501.006-.009.095-.197.095-.724v-26.17h-42.18v27.316c.09.026.155.051.26.08l2.589.674v1.242l1.165.305v8.199H86.256v-1.544H85.09v-8.156l2.533-.707c.975-.271 1.356-.517 1.396-.518.01-.025.086-.21.086-.714v-31.264c.144.003.291.032.435.018.555.31 1.213.602 1.88.867.39.156.784.304 1.164.437.295.358.687.63 1.148.765.091.026.18.057.277.072l2.806.424 2.227.222c3.809.778 8.181-1.534 10.796-2.914l.506-.267.22-.115c.326-.189.644-.377.961-.566 2.943-1.75 5.559-3.501 8.04-6.196l.005-.003-.004.001c.046-.051.096-.089.143-.14.095-.107.076-.227.135-.338 1.25-1.228 2.845-2.432 4.337-3.474.002 0 1.738-1.13 2.778-1.805l.766-.497a10.363 10.363 0 0 0 2.156-1.802 8.826 8.826 0 0 0 1.518-2.299h26.917v-23.9c-.082-.023-.14-.044-.235-.069l-2.614-.661v-1.248l-1.166-.295v-8.222H188.2v1.545h1.167v8.153l-2.533.707c-.41.115-.697.22-.918.311-.3.122-.459.21-.482.212-.012.027-.087.21-.087.711v72.762c.107.033.193.066.319.1zm-99.022-36.085a35.96 35.96 0 0 1-1.632-.832c-.36-.19-.764-.403-1.24-.647l-.176-.04c.157.143.31.28.449.396.188.157.371.304.573.476-.477-.34-.86-.546-1.417-.976l-.286-.078-1.103-.391c-1.41-.575-2.65-1.406-3.54-2.482l-.189.025c-4.824-5.314-5.023-12.954-3.523-17.793 1.016-4.484 5.133-8.378 6.187-10.366-.107.383-.98 1.32-.58 1.193 2.432-2.599 1.547-2.711 3.3-4.717.264-.919-1.382 1.583-.571.058.978-1.21 1.282.083 1.64-3.548-.302-.1-.457 1.698-.42.048 1.236-1.38 2.857-7.547 3.625-9.133l-.419.051c.101-.523.229-.996.366-1.431l.104-.32c.508-1.185.299-.52.469-.84l.475-.485c.617-.591 1.17-1.02 1.575-1.47 1.705-2.932 7.734-4.062 9.884-3.561.456.266.917.494 1.276.846l1.355.436-.193.179c4.01 3.42 1.523-1.05 5.604 3.693-.297-.172-.615-.239-1.187-.797.088.488 1.212 1.535 1.936 3.307l-.315.297c.171.493.24.095.56.353-1.434-.26 1.514 1.744 2.47 2.501l.155-.391c.062.57.679 1.226 1.57 2.294l.71.028c.272.363 1.518 1.9 2.064 2.192l-.22.141c.426.514 1.069 1.3 1.791 2.22l-.063-.395c.122.248.206.465.288.682 1.829 2.344 4.029 5.386 4.38 6.867.62 2.596 3.894 5.245 3.894 5.245s8.154 10.398.262 15.373a130.08 130.08 0 0 0-3.644 2.37c-1.184.828-2.35 1.67-3.394 2.543a31.72 31.72 0 0 0-.338.289 17.85 17.85 0 0 0-1.557 1.5c.167-.056.165.067.453-.199-2.519 2.78-5.211 4.491-8.513 6.421-2.1 1.083-6.032 3.358-9.316 3.242-.276-.01-.557-.004-.822-.05l-.033-.12c-2.78-.41-2.676-.07-4.814-.605.301-.025 1.514.289 1.037-.067-.854-.224-4.05-1.202-5.33-2.07-.925-.23-.706.046-1.241-.05a5.715 5.715 0 0 1-.83-.244l-.638-.764a19.71 19.71 0 0 1-.908-.404zm-14.237-22.892c-.158.52-.293 1.067-.412 1.625a21.867 21.867 0 0 0-.367 2.425 22.111 22.111 0 0 0-.105 1.809c-.243.044-.487.085-.732.125-4.892.833-10.043 1.263-15.388 1.263-13.118 0-26.233-2.839-38.955-8.424-1.8-.773-2.715-1.11-3.21-1.276-.17.095-.416.251-.721.46-.085.057-.151.098-.248.169l-1.627 1.164-.336-.151-6.794-3.043.413-.838-1.58-.71 13.4-27.218 7.191 2.96v1.066l1.167.48v3.142c0 .194.038.395.113.6.142.132.273.264.44.399 2.658 2.118 6.99 4.02 12.88 5.65 6.023 1.679 11.803 2.53 17.177 2.53.142 0 .278-.007.42-.008.061.761.254 1.497.556 2.29.184.483.393.986.644 1.548l.002.009v-.005l.014.036c.13.288.327.501.548.686.114.096.226.195.356.268.089.462.279.903.638 1.23.298.27.604.47.918.607a2.268 2.268 0 0 0 1.097 1.663l1.402.819.264.141c-.08-.043.533.524.459.472 0 0 .85.602 1.077.761.235.28.511.471.729.598-.01-.004-.02-.002-.028-.007 0 0 .203.114.216.12.01.006.02.009.03.013l1.121.614c.253.138.57.23.857.264l1.269.153c-.022-.003.359.018.337.015l.822.125c1.149.297 2.318.47 4.702-.254h.004l.028-.003-.027.003c.05-.016.087-.019.14-.035.312-.098.519-.332.748-.537.027-.013.06-.03.088-.042a17.026 17.026 0 0 0-1.49 3.39c-.087.285-.18.567-.247.86zm7.328-20.235a.071.071 0 0 0 .004-.015.796.796 0 0 1 .096.1c-.049-.042-.05-.044-.1-.085zm-.122-.084c.076.075.084.077.106.096l-.002.006-.104-.102zm-2.508-3.329c.106.018.172.055.261.08.11.03.24.05.323.099-.105-.042-.217-.064-.324-.095-.084-.026-.164-.066-.253-.076a.042.042 0 0 1-.007-.008zm-8.217-1.394c0-.135.018-.255.037-.372.076.013.156.026.229.04-.125.232-.222.468-.245.702a3.976 3.976 0 0 1-.02-.37zm-10.147 15.6c0 .013-.008.027-.008.04-.253-.213-.374-.51-.523-1.068.1.371.321.698.531 1.028zM79.78 96.75c-.137-.23-.244-.438-.377-.627.017 1.702-1.19 3.258-1.961 4.387-1.123 1.64-6.694 3.657-6.694 3.657l-.5-.096-.375.044-.237-.162-.115-.023-1.185-.229.668.244-1.692-.123c.048.208-.136.382.149.515.728.034 1.387.123 2.032.165 1.059.07 2.078.015 3.298-.614.387.303 1.036-.452 1.685-.43 1.055-1.182 3.814-2.198 4.364-3.81a3.117 3.117 0 0 1-.205 1.004c-.259.692-.75 1.319-1.36 1.883-1.408 1.3-3.468 2.264-4.91 2.885.1.05.088.151.272.103-2.302.722-2.986.41-3.857.199a4.282 4.282 0 0 0-1.207-.136l-.388-.047-.641-.08-.255-.028-.032-.003h-.007l-1.149-.627v.001c-.391-.213-.275-.15 0-.001v-.002l-.002-.002-.012-.01-.047-.04-.095-.081-.378-.316c-.487-.393-1.002-.775-1.47-1.024l-.04-.024.069-.093c-.677-.655-1.123-.516-1.79-1.07.167.012.575.361.56.054-.233-.27-1.35-1.237-1.531-1.924-.495-.289-.419.165-.969-.335l.115-.55c-.47-.516-.557-.69-1.399-1.906 0 .008.005.022.005.03.015.245.1.584.268.973-.914-2.037-1.168-2.85-1.035-3.989l-.149-.023c.015-2.44.085-5.167.373-7.049v-1.285l.016-.336.003-.089c.095-.41-.208.852.213-.929l.02-.038.076-.152.3-.6c.39-.788.695-1.53.838-2.145.042.224-.317.709-.036.673 1.08-1.307.194-1.495 1.307-2.535.06-.607-.891.828-.492-.086.753-.567 1.02-.184 2.308-1.848-.162-.282-1.044.736-.313-.262.438.028.757-.236 2.23-.343l.656.053.04.008.01.002c-.84-1.124-.227-.309.513.679l.25.333.926 1.236a.165.165 0 0 0 .01.013l.143.192-.002.002-.002.007-.009.014-.013.022-.055.103h-.001l-.002.004-.104.214-.194.483c-.223.657-.267 1.346-.363 1.675l.369-.153c.226.602.002 1.252.242 1.57.199.053.455.391.724.801l.034.051c.6.919 1.262 2.154 1.533 1.456.023.135.01.294.108.446l.47-.085-.122.23c1.338.46.868-.698 1.728-.747.008 0 .014-.003.021-.004a1.8 1.8 0 0 1 .62.102c-.118.15-.245.308-.505.335.065.253.596.3 1.067.292l-.028.401c.314.102.486-.07.642-.138-.784.552 1.119.532 1.617 1.075l.056-.405a.677.677 0 0 0 .135.305l.042.056c.227.277.613.509.83.968l.467-.182c.155.335.53.991.978.952l-.47.424c.785.274.205.42 1.063.903l.087-.492c.179.655.012 1.148.33 1.741.565.687.798.605 1.284 1.376-.374-.25-.83-.457-1.23-.673l.537.658c.588.713.85 1.423.908 2.112.25-.112.539-.48.743.407-.133-.39-.54-.886-.606-.203l.259.686zM49.067 82.01c-7.467-.673-12.637-1.324-15.81-1.989-3.235-.685-6.501-1.766-9.674-3.199-4.572-2.004-8.265-5.027-11.012-8.966a26.095 26.095 0 0 1-1.73-2.356c-2.558-3.96-3.855-8.549-3.855-13.64 0-8.307 3.223-15.273 9.576-20.702C24.495 24.37 36.33 20.929 51.74 20.929c6.359 0 12.364.58 17.849 1.722 5.449 1.132 12.288 3.249 20.28 6.274 2.51.909 3.494 1.166 3.838 1.242.088-.02.468-.118 1.319-.755l1.722-1.29 7.138 3.57-.423.751 1.55.776.039.02L90.2 59.447l-.038-.02-4.88-2.422-2.091-1.12.072-.882-1.235-.662.182-2.276a16.24 16.24 0 0 0-1.23-.812c-7.738-4.836-16.996-7.29-27.513-7.29-3.57 0-6.827.301-9.7.874-.865.173-1.702.364-2.493.586-2.221.675-4.007 1.671-5.308 2.96a6.726 6.726 0 0 0-.941 1.145c-.613.951-.618 1.634-.618 1.906 0 .157.001.365.053.603.582.405 1.437.806 2.707 1.158 1.424.357 5.005.958 13.964 1.798l11.091.985c2.915.291 5.595.632 8.058 1.014l-.463 1.23c-.023.105-.125.273-.125.273-.05.085-.268.237-.307.328l-.144.335-.278.64a84.55 84.55 0 0 0-.66 1.545c-.782 1.898-1.512 4.062-1.512 6.341 0 .157.004.314.011.471.01.232.177.393.254.6.087 3.548 1.078 6.642 2.823 8.564.148.161.333.259.513.367.18.297.385.575.602.841.514.631 1.129 1.174 1.877 1.564.005.641.25 1.188.738 1.57.103.08.202.163.327.227l.885.449c.142.441.346 1.048.346 1.048.214.636.708.972 1.277 1.157.249.24.539.394.857.494.04.013.075.035.115.046.458.427 1.059.712 1.68.737.22.177.439.281.697.383l.016.005c.184.077.361.129.55.17.09.01.172.063.261.06.178.028.33.057.492.068.628.504 1.43.641 2.183.308.02.002.04.005.06.01v4.265c-.345.906-.68 1.686-.91 1.971-.31.38-.544.924-.556 1.414a4.351 4.351 0 0 0 .174 1.39l-.423.36c0-.037.008-.073.008-.111 0-.6-.098-1.222-.329-1.856.047-.168.198-.326.198-.494 0-.41-.142-.814-.46-1.177l-1.136-1.297s-.03-.03-.04-.038c0-.007-.176-1.186-.176-1.186a1.722 1.722 0 0 0-.378-.848 2.335 2.335 0 0 0-.603-.519 2.123 2.123 0 0 0-.919-.827c-.111-.158-.257-.279-.4-.404a2.924 2.924 0 0 0-.863-.538l-.155-.2c-.012-.012-.017-.01-.017.003 0 .018.037.106.057.162-.095-.031-.184-.066-.28-.086-.051-.063-.091-.127-.149-.186l.016.004-.022-.011a2.91 2.91 0 0 0-.832-.604c-.002-.022-.004-.044-.008-.068-.295-.194-.692-.385-1.151-.575-.24-.685-1.005-1.087-1.744-1.324-1.06-.34-1.99-.27-2.741.169l-.155-.233c-.28-.442-.561-.856-.876-1.224l-.005-.035c-.073-.5-.165-1.093-.172-1.138l.013-.058.066-.163c.29-.288.49-.573.546-.892.01-.055.024-.109.024-.165 0-.576-.377-1.287-1.12-2.354a82.554 82.554 0 0 0-1.666-2.259l-.024-.031c.003.005.002.011.005.016-.741-.962-2.16-1.213-3.14-.488-.09.067-.114.143-.19.213l-.957.15c-.677.029-1.452.387-1.85.931a4.027 4.027 0 0 0-.275.441 3.705 3.705 0 0 0-.298.653c-.136.077-.97.558-.97.558-.413.237-.507.447-.696.88-.005.01-.006.02-.01.03-.19.443-.268.836-.268 1.178 0 .076.048.109.055.18-.25.276-.497.562-.641.873-.012.024-.033.046-.042.07l-.527 1.319-7.276-.656zm27.917-28.32l.002-.001-4.425 1.06c-.425.101-.759.372-1.042.693a146.7 146.7 0 0 0-9.123-1.178l-11.11-.987c-8.842-.83-12.33-1.41-13.695-1.751a10.29 10.29 0 0 1-1.387-.497c.095-.314.343-.783.988-1.424 1.097-1.086 2.642-1.939 4.589-2.53 3.235-.908 7.202-1.385 11.686-1.385 10.186 0 19.132 2.364 26.59 7.026.123.075.228.142.338.211l-.148 1.718c-.512-1.134-1.594-1.182-2.43-1.074-.067 0-.129.001-.194.006.04-.012.059-.055.1-.065l-.74.178zm-4.415 23.83c.024.27-.29.015-.438.049-.026-.278.2-.568.438-.049zm1.008 1.1c-.23-.057-.4-.201-.611-.312.318.138.633.243.967.255-.334.076-.027 1.048-1.075.234.25.219 1.142.463.719-.177zm1.64 3.921c-.225-.115-.245-.107-.254-.13l.254.13zm-.593-3.378l.424-.387c.217.188.652.544.303.549-.239-.059-.499-.063-.727-.162zm3.533 6.018c-.02 0-.042.007-.06.007.018-.002.036-.009.056-.009l.004.002zm2.399-20.447c2.28.48 3.302 1.577 4.285 1.884-.085-.016-.153-.011-.15.093 1.21 1.081.979-.23 2.404 1.275.786.245-1.204-1.295.025-.566.772 1.03.625 1.477 1.71 2.83.3-.115-.387-.955.325-.245-.128 1.34-.08 4.197-.534 4.951l.397-.063c.138.98-.589 1.566-.552 2.051.29 1.211-.934 2.63-1.114 3.68-.016.093-.008.178-.006.265v.01c.002.061-.01.129.002.188l-.587.316-.113.638-.176-.19c-1.66 1.372.5 1.39-1.182 2.563-.157.11-.335.225-.566.357.052-.214.103-.424.408-.661-.299-.11-.962.258-1.607.596l-.175-.359c-.433.137-.61.317-.832.428.82-.757-1.806-.196-1.965-.702l-.01.411c-.137-.446-.562-.655-1.092-1.075l-.405.282c-.201-.286-.673-.835-1.086-.696l.365-.518c-.805-.08-.277-.352-1.201-.618l.009.486c-.311-.581-.157-1.098-.592-1.586-.641-.47-.868-.352-1.295-.66.4-.114 1.46-.014 1.883.31 1.337 1.107 2.83 1.565 4.226 1.498-2.909-.184-5.05-3.22-6.364-3.401-1.34-.185-2.828-1.01-3.916-4.998-.042-.156-.085-.312-.126-.478.024.163.05.325.073.488.123.86.242 1.7.512 2.32-.57-.628-1.024-1.427-1.377-2.325a12.004 12.004 0 0 1-.567-1.932 17.228 17.228 0 0 1-.335-3.72c-.095.065-.174.007-.227.198-.008-.18.008-.359.011-.539.054-2.808 1.447-5.58 2.4-7.836l.101.051c.607-.893.308-1.054.756-1.848.016.163-.24.591.034.552.049-.086.614-.817.951-1.18a.789.789 0 0 0-.113-.162l-.081-.164-.005-.031 1.17-.28 1.294-.31.007-.016.011.011 2.257-.54-.365.087.365-.087.262-.062-.262.062.002.001.001.002.005.002.008.004.016.012.038.019.16.105.296.22.065.71c.36.4.594.758.813 1.195.198.395.382.854.635 1.492l-.032-.549-.032-.54c.217.817.35 1.797.204 2.716a1.23 1.23 0 0 1-.063.279c-.03.13-.044.265-.088.391-.192.818-.132.513-.106.238-.28.612.823 2.438.813 2.67zm4.722 1.96c-.091.039-.223-.036-.338-.09.112.043.224.082.338.09zm.324-2.135c-.015-.02-.028-.033-.041-.048a.997.997 0 0 0 .1.046l-.06.002zm-3.635-2.092c.008-.031.022-.048.03-.08a.81.81 0 0 1-.012-.03c.017-.053.025-.111.04-.165a6.405 6.405 0 0 0 .279-1.81c0-.18-.03-.376-.05-.565 2.984 1.05 5.752 2.352 8.26 3.916 2.918 1.877 5.351 4.288 7.308 7.148.949 1.188 1.836 2.434 2.588 3.805.087.16.163.324.247.486a5.489 5.489 0 0 0-.457-.08c-.718-.1-1.599-.104-2.559-.008-.761.076-1.569.212-2.387.414-1.587.393-3.196 1.029-4.523 1.915 0-.027.008-.051.008-.079 0-.054-.017-.11-.019-.164.258-.523.544-1.17.544-2.03 0-.178-.012-.362-.04-.555-.013-.097-.12-.15-.146-.244.115-.753.17-1.658.22-2.784l.068-1.226.006-.117c.003-.042.004-.084.004-.127 0-.593-.226-1.229-.643-1.644-.266-.267-.515-.404-.763-.549l-.16-.257-.902-1.54c-.19-.324-.322-.387-.647-.58-.586-.347-1.065-.455-1.482-.454a3.31 3.31 0 0 0-1.12-.496c.404.074.693.264.92.51-.081.007-.164.01-.24.023-.052-.01-.101-.031-.154-.037-.144-.125-.42-.368-.58-.492.016 0 .033-.005.05-.006l.005.002c-.002 0-.003-.002-.003-.002.017 0 .035-.009.05-.009l-.065.001c-.042-.007-.05-.047-.094-.052l-.04-.005h-.002l-.662-.362c-.587-.347-1.5-.79-2.608-1.171l-.235-.573c-.015.054-.03.108-.048.16.01-.026.006-.06.014-.087zm21.555 13.174c.23.215.953.758.751-.009l-.554-.447.918.512c-.353-.01-.32.954-1.115-.056zm-.573-1.285c-.014-.276.22-.57.44-.02.015.274-.294-.007-.44.02zm.724 2.1a2.258 2.258 0 0 1-.078.093c-.03-.01-.053-.029-.084-.038l-.362-.117a28.45 28.45 0 0 0-.772-1.66c.056-.004.113-.006.17-.012.35.632.725 1.218 1.126 1.735zm1.434.118c.19-.055.377-.048.532-.175-.01.187.434.658.07.592-.195-.133-.435-.195-.602-.417zm-4.166-12.497c.314-.956.75-1.893 1.239-2.796.216-.403.441-.802.674-1.19l.57-.941c.354-.385-.39.199.901-1.012l-.103-.054c-.024-.002-.27.247-.38.121l.11-.015c-.036-.29-.477-.241-.773-.573h-.002.002c.123 0 .302.221.428.033-.003-.056-.104-.2-.225-.368a13.435 13.435 0 0 1-.206-.308c-.164-.246-.322-.517-.37-.765-.42-.197-.4.173-.843-.168l.14-.486-.232-.209-.012-.013-.006-.006h-.001l-.086.176.568-1.185.475-.992 1.263-2.631h.01l.065.01.125.014.25.036c.333.04.671.071 1.133.019l-.62-.315c.128.031.267.062.4.093.876.2 1.788.403 2.539.83.27.152.522.328.738.55l.121-.094c.07.055.141.116.21.174.52.428 1.042.915 1.382 1.3.035.142.344.285.149.22a3.4 3.4 0 0 1 .58.298c.115.075.235.151.324.234l.548.708.162.21c.706 1.436.917 2.113 1.165 2.599.156.171.247.197.232.215.358.224 1.557 1.08 1.68 1.432.771.946 1.111 1.653 1.617 2.12-.207-.09-.466-.68-.575-.417.543 1.627 1.136 1.06 1.375 2.39.452.31-.163-1.063.343-.351.06.767-.476 1.079.377 2.184.302-.093-.176-.731.356-.193-.685.79.124 3.569-.288 4.607v.056l.372-.103c.141 1.032-.374 1.705-.36 2.21.444 1.436-1.186 3.32-.768 4.365l-.546.39-.083.615-.204-.161c-.895 1.254-.02 1.33-.028 1.871l-.002.025c-.014.25-.213.598-.838 1.195-.033-.21-.065-.42.12-.732-.3-.03-.732.522-1.169 1.022l-.302-.28c-.412.204-.465.476-.606.664.365-1.028-1.543.56-2.04.22l.177.367c-.344-.35-.841-.244-1.562-.481l-.32.413a4.742 4.742 0 0 0-.39-.184c-.373-.159-.83-.298-1.091-.202l.234-.585c-.896.027-.477-.228-1.458-.492l.084.515c-.42-.622-.388-1.138-.829-1.663-.497-.382-.797-.491-1.073-.662a1.886 1.886 0 0 1-.282-.208c.41-.07 1.54.247 1.956.53 1.446 1.045 2.898 1.048 4.2.471-2.555.041-4.258-2.413-5.176-2.663-1.25-.337-3.19-4.545-4.225-7.908-.431-1.4.193-3.345 1.059-5.14l.049-.214.082-.06c.041-.083.085-.161.126-.242.083-.158.162-.315.246-.468l-.007.007.768-1.512c-.212-.041-.293-.282-.534-.071a8.004 8.004 0 0 0-.898 1.821c-.337.957-.515 1.863-1.184 3.08-.452.088-.453 1.035-.821 1.563.018 1.732.505 4.283 1.164 5.661-2.028-1.183-2.853-6.04-1.096-8.637-.11.032-.168-.048-.274.116zm16.431-5.57a2.522 2.522 0 0 0-.288-.538c.112.17.23.37.288.538zm-.468 31.338a16.87 16.87 0 0 1-.747-.904c-.256-.343-.624-.542-1.021-.678-.106-.036-.203-.093-.315-.116l-.596-.757.08.312c-.212-.823-2.483-3.44-3.305-3.643-.112-.263-.228-.51-.349-.74.177-.027.35-.068.518-.128l.018.003-.009-.005c.09-.033.162-.083.244-.126.296.07.548.131.846.107a3.84 3.84 0 0 0 1.28-.287c.673.156 1.326.005 1.841-.432.225.04.456.02.686-.024.094.36.22.672.38.911.04.2.108.387.176.571l.053.005.706 3.364.933 3.297c.167.64.366 1.241.584 1.818l-.48-.594c-.17-.521-.47-1.005-.937-1.294l.128.079c-.141-.108-.424-.41-.714-.74zm2.185-11.156c1.16-.621 3.206-3.02 4.083-3.345l-.344-.207c.65-.823 1.521-.97 1.86-1.39.077-.16.204-.326.348-.484.386-.23.542-.336.602-.388-.015.003-.024-.01-.03-.033-.052.016-.102.037-.008-.007.001.007.006.002.007.007.052-.016.093-.021.031.033.053-.01.146-.173.23-.32l.03-.052c.179-.222.245-.599.21-.936-.026-.238-.093-.458-.239-.573l.337-.494-.263-.502.257.026c-.072-1.982-1.378-.177-1.455-2.359.184.074.375.155.493.431.214-.167.065-.76-.092-1.276l.389-.108c-.006-.377-.234-.501-.347-.657.385.298.435-.058.409-.498l-.015-.167-.003-.022v-.012c-.12.15-.236.292 0 0 .137-.17.156-.192.127-.155l.164-.206c.21-.259.524-.644.948-1.17l.291-.359h.006l.009.002.06.009.127.018.48.073c.163.03.298.064.404.098a.487.487 0 0 1 .188.09V63.7l-.01-.349c.084.16.22.289.381.42.028.022.05.043.08.065l-.01-.052-.042-.243c3.956-.095 6.799 4.955 6.799 4.955 4.483 2.111 5.851 14.737 5.851 14.737-.01.97-.133 1.822-.305 2.622-.106 1.52-.534 3.025-1.188 4.414a13.717 13.717 0 0 1-2.092 3.21l-.09-.072c-1.073.92-.827 1.108-1.736 1.87.072-.18.593-.59.242-.601-.332.255-1.902 1.232-2.789 1.222-.568.423-.012.465-.874.844l-.556-.289c-.794.271-1.298.201-2.14.543l.11.022.572.11c-1.31-.005-2.645.437-4.031-.148l-.097.133c-4.466-1.32-5.772-5.455-6.268-7.433-.752-1.845-.955-4.184-1.517-5.415.174.17.2.827.397.613.042-1.816-.736-1.225-.409-3.448-.259-.788-.35 1.654-.49.234.478-1.032.995-1.088 1.317-2.88-.28-.153-.515.862-.399-.097zm4.937-9.144c.035.02.058.046.094.066l-.096.141c-.003.004-.002.013-.004.017-.012-.012-.027-.006-.039-.018.003-.072.034-.136.045-.206zm.203.14c.465.24.96.401 1.43.414-.548.174-1.023.102-1.48-.253.017-.054.027-.108.05-.161zm-3.576-4.478c-.044.339-.134.653-.318.93.161-.272.28-.574.318-.93zm3.178 4.414c-.158-.16-.641-.655-.641-.655.173.178.449.323.694.48-.016.06-.042.115-.053.175zm63.471 28.228l3.8-1.06V85.601h-1.166v-1.544h-37.371V95.03l1.167.388v1.155l2.85.95v20.929h-24.613c.028-.128.066-.25.088-.38a9.723 9.723 0 0 0 .143-1.687c0-5.327-3.985-10.475-4.173-10.713a2.24 2.24 0 0 0-.347-.354c-.88-.717-2.802-2.647-3.137-4.042l.002.003c-.146-.617-.523-1.615-1.744-3.5a10.475 10.475 0 0 0 3.02 1.457c-.08-.023-.06-.184-.136-.217 1.492.631 2.846.498 3.931.391l.962-.065c.465-.033.865-.271 1.225-.543.68.36 1.091.585 1.7-.034l.618-.63c-.167.003-.375-.02-.673-.024.276.003.559-.088.841-.146.259-.263.32-.324.525-.534.042.02.084.025.126.042l-.13.195c-.083.126-.15.174-.22.243a6.13 6.13 0 0 0 .835-.276c.731.111 1.495-.088 2.031-.667l1.756-1.885c.015-.014.294-.129.309-.143 2.125-2.405 3.49-5.513 3.791-8.56l.35-3.125c.005-.055.008-.084.008-.104 0-.041-.01-.05-.022-.157-.237-2.19-1.655-12.675-6.331-15.931-.83-1.352-3.94-5.85-8.588-5.738-.049 0-.088.03-.135.034a1.96 1.96 0 0 0-.596-.004l-.558-.083a2.259 2.259 0 0 0-2.067.803l-1.376 1.698c.246-.303.552-.505.885-.627-.339.137-.69.387-1.036.814-.006.006-.006.01-.01.016a3.302 3.302 0 0 0-.41.692c-.118.27-.18.526-.192.764-.003.037-.024.058-.024.096 0 .018.01.04.01.06-.017.074-.07.137-.08.214-.415.443-.624 1.076-.624 1.738 0 .067 0 .133.003.199.051 1.497.624 2.308 1.306 2.79 0 .01-.006.015-.006.024 0 .243.077.506.139.765l-.065.04c-.256.159-.335.165-.507.414l-.285.406-.132.075-1.892 1.512a1.605 1.605 0 0 0-.544.793l-.353.309c.276-.722.609-1.617.609-2.6 0-.14-.05-.289-.065-.432.01-.035.024-.075.024-.075.136-.416.347-1.057.347-1.88 0-.21-.014-.43-.045-.661-.03-.227-.135-.428-.23-.63-.002-.43-.033-.867-.064-1.298l-.041-1.37-.27.484a3.356 3.356 0 0 0 .39-1.572c0-.55-.145-1.08-.488-1.428-.047-.048-.091-.054-.138-.098.02-.267.04-.507.04-.507.004-.056.006-.109.006-.157 0-.398-.141-.58-.408-.955a2.71 2.71 0 0 0-.942-.838c-.111-.415-.272-.815-.507-1.13l-.467-.623-.881-1.194c-.443-.635-1.171-1.208-1.861-1.675l-.084-.193-.916-2.029a1.624 1.624 0 0 0-.233-.375l-.709-.918c-.168-.217-.024-.14-.26-.283l-.848-.515c-.012-.015-.028-.056-.04-.067l-.25-.234a.482.482 0 0 1 .12.144l.052.086-.604-.367c.226.138.32.058.43.135l-1.627-1.51c.025.023.065.256.09.281-1.257-1.283-2.928-1.663-4.27-1.97l-.484-.111c-.407-.095-.784.023-1.16.143-1.513-.294-2.257 1.129-3.133 2.953l-1.423 2.972h-.001l-.481 1.005a2.21 2.21 0 0 0 1.052 2.953c.201.096.411.148.62.18.031.049.052.1.09.148a26.29 26.29 0 0 0-.176.291c-1.001 1.664-1.674 3.074-2.121 4.44a2.188 2.188 0 0 0-.111.686c0 .03.023.053.023.082-.432 1.111-.703 2.276-.703 3.409 0 .266.026.517.044.774-1.87-2.36-4.06-4.41-6.618-6.057-2.879-1.794-6.063-3.249-9.505-4.389-.001-.007 0-.013-.002-.02-.151-.567-.537-.974-1.005-1.263-.1-.174-.245-.351-.365-.523a36.527 36.527 0 0 0-.015-.158c-.007-.081-.055-.149-.07-.227-.006-.067-.022-.143-.03-.21l.96.504-.077.891 3.158 1.66 6.396 3.174 16.553-29.214-1.59-.795.424-.75-9.725-4.865-2.583 1.934c-.202.15-.326.224-.45.3-.53-.153-1.435-.438-3.069-1.03-8.053-3.048-14.981-5.191-20.519-6.341-5.6-1.167-11.726-1.759-18.204-1.759-15.838 0-28.054 3.582-36.31 10.646C8.677 35.62 5.252 43.026 5.252 51.86c0 5.427 1.389 10.33 4.128 14.571a27.946 27.946 0 0 0 1.803 2.462c2.927 4.175 6.85 7.38 11.7 9.507 3.269 1.477 6.655 2.597 10.013 3.308 3.243.68 8.479 1.34 16.014 2.02l6.714.605c-.092.392-.213.922-.213 1.468 0 .07.017.138.022.208-.008-.076-.071-.128-.071-.206 0-.033 0-.068.002-.101l-.015.335c-.002.093-.003 1.236-.003 1.345-.267 1.923-.342 4.42-.363 6.396-.094 0-.177.011-.27.011-5.215 0-10.837-.83-16.71-2.465-5.597-1.551-9.682-3.322-12.167-5.267l.001-4.017-1.165-.48v-1.064l-9.769-4.023L0 106.745l1.58.708-.414.84 9.503 4.255 2.788-1.778c.526.202 1.225.48 2.303.943 12.93 5.677 26.281 8.564 39.643 8.564 5.615 0 11.029-.458 16.158-1.359.253 4.256 1.692 8.716 4.868 12.215a2.2 2.2 0 0 0 .844.56c1.011.992 2.224 1.864 3.694 2.463.098.037 1.2.427 1.2.427l.063.019.624.436.465.311c.433.293.936.388 1.43.354l1.391.674.338.406c.237.283.548.495.892.631v31.137c-.082.026-.114.044-.216.073l-3.8 1.06v11.186h1.166v1.544h37.365V171.16l-1.166-.304v-1.242l-2.846-.743v-24.274h38.709v23.963c-.053.014-.068.025-.13.04l-3.887 1.011v11.259h1.167v1.544h37.37V171.23l-1.166-.326v-1.22l-2.854-.796V97.92c.085-.026.117-.044.22-.073z" fill="#DBD0C9"/></g></svg>