<svg width="200" height="200" xmlns="http://www.w3.org/2000/svg"><g fill-rule="nonzero" fill="none"><path d="M176.599 23.672c.228.086.452.18.672.285-.22-.1-.436-.202-.672-.285M180.79 31.09c1.175-2.68.696-5.913-3.449-7.076 2.984.874 4.901 3.033 3.449 7.077M176.458 18.156l-.036-.018c-1.472-.587-3.976-1.23-6.835-.458-1.352.366-2.852 1.043-4.286 1.862a23.294 23.294 0 0 1 3.594-1.554c1.376-.46 4.77-1.017 7.563.168M160.561 22.683a7.827 7.827 0 0 0-.671.825c.205-.256.419-.531.671-.825M177.314 12.988c.25.254.478.482.673.671a9.735 9.735 0 0 0-.673-.67M161.697 20.22c1.032-1.24 2.69-2.613 5.537-4.02-.154 0-.319.017-.481.028-1.385.55-3.17 1.366-5.056 3.992M165.342 16.467c-1.914.503-4.068 1.784-5.963 4.254 1.171-1.462 3.402-3.411 5.963-4.254M160.28 22.542l.116-.258-.003.004c-.04.073-.074.179-.113.254M161.004 22.636a10.51 10.51 0 0 0-1.26 1.363 15.46 15.46 0 0 1 1.26-1.363M187.364 30.1c.232.28.457.563.673.853-.221-.291-.44-.583-.673-.853M182.487 23.54c-.094-.102-.193-.191-.285-.297a4.963 4.963 0 0 0-.387-.395c.213.225.426.45.65.67.006.008.014.015.022.023M173.674 79.568l5.318 17.122c-1.186-4.008-4.463-15.128-5.318-17.122" fill="#182744"/><path d="M162.543 194.107s-1.167 2.597-.938 2.46l1.305.297c.206-.693-.367-2.757-.367-2.757M174.893 193.927s-1.307 2.93-1.038 2.77l1.53.348c.242-.814-.492-3.118-.492-3.118M169.445 193.45s-1.414 4.016-1.075 3.775l2.062.297c.312-.838-.908-3.81-.987-4.072" fill="#C7CBDD"/><path d="M192.908 46.198c-.12-4.32-2.166-9.124-3.878-13.126a15.816 15.816 0 0 0-.875-1.727c.29.51.561 1.037.8 1.593 1.71 4.002 3.758 8.805 3.878 13.125.149 5.392-1.529-6.994-4.712-13.681 0 0-3.39-2.168-3.422-2.181-1.147-2.524-.652-5.352-3.754-6.662-.684-.328-1.698-1.062-2.17-1.866.011.026.016.045.029.071.454.83 1.045 1.641 1.747 1.977 3.102 1.31 2.404 4.535 3.551 7.06a.11.11 0 0 1 .057.043c1.403.666 3.676 2.175 3.676 2.175 3.185 6.687 3.041 17.072.777 21.246-.007.01-.477.857-1.296 2.305 1.656-.391 3.205-1.308 4.276-1.795.856-1.733 1.466-3.166 1.316-8.557M69.736 184.271c-.72-2.572-5.748-4.902-5.94-6.403-.235-1.837 5.061-6.287 5.445-10.369-4.231 4.853-16.148 12.376-17.99 16.63-.896 2.068-3.963 10.196-3.963 10.196l11.804 1.808 1.33-5.981 1.934 5.66 2.335-.142 1.624-4.95 1.811 4.612 1.61-.059 1.414-3.981s-.67-4.363-1.414-7.02M175.34 12.336c-2.788-1.667-6.185-2.826-9.265-3.528 1.05.246 2.133.558 3.191.946a62.797 62.797 0 0 1 6.073 2.582M164.815 8.225c.4.173.806.365 1.221.574a16.728 16.728 0 0 0-1.221-.574" fill="#182744"/><path d="M187.027 33.943c.024.065.851 2.262.837 5.697-.01 2.34-.797 5.61-1.882 9.191-.506 1.67-1.14 3.253-1.811 3.47.433-3.344 0-3.272-3.171-4.418-.413-1.84-.276-3.994.895-5.542 3.374-4.457 4.087-4.914 4.087-4.914l.283-2.384-2.421-.431-5.56.806 5.179-2.277 3.559.79c-.055-.14-.09-.22-.09-.22s-3.353-1-3.564-.946c-2.652.698-5.322 2.43-5.322 2.43s-.643 8.441-1.14 15.066c-.579 7.689-11.002 14.323-18.343 15.177-2.556.297-11.266.648-13.874-.19-2-1.854-6.216-5.824-8.271-9.96 6.843 3.344 15.181 6.072 26.098 4.174 13.77-2.395 11.49-17.547 14.295-25.704.962-.67 2.348-1.915 3.973-2.653v-.001c-2.474.486-3.133 1.474-4.301 2.17-.022.035-.039.07-.061.107-2.254 3.697-2.421 5.124-3.154 11.806-2.023-3.053-2.492-14.674-8.052-9.992 0 0 .285-3.05 1.681-4.625-.508-.17-1.542.062-3.396.98 1-2.516 2.791-5.01 5.964-6.553.694-.35 1.433-.638 2.215-.823.374-.157.667-.322.888-.51-3.716 1.33-8.214 1.533-10.204 9.101.665-10.598 9.314-7.876 7.08-13.174 3.392-1.14 6.194-.756 7.526-.443l.037.007c.405.105.405-.255.302-.43-.086-.15-.532-.416-.796-.542.252.139 1.133 1.03.392.86-2.63-.605-4.799-.537-7.848.462-.173.057 1.006 1.734-.04 2.065-4.407 1.39-9.22 5.975-11.002 8.943 0 0 .516-2.254.984-3.487.532-1.4-1.426-1.947-2.612.504.566-2.138 1.334-4.179 2.363-5.912-1.705 2.555-3.135 6.156-3.871 11.147 0 0 .001 0 0 0-.319-2.066-.784-8.24-4.04-.682-.629 1.457-1.51 3.196-2.374 5.67-.357-5.205 1.61-9.07 2.356-10.92-1.27-.288-4.473-.76-5.312-1.812-1.045.996-.843 1.358-2.391 3.33.332-6.971 4.8-12.615 11.527-12.236 8.163.46 12.59-1.85 9.216-4.15L160.94 9.69s10.32 5.151 13.168 6.2c1.053.362 3.029.64 3.701.272 0-.71.594-2.205.594-2.205a1.763 1.763 0 0 0-.393-.28l-1.068 2.024c-1.89.057-5.735-1.995-8.541-3.336-4.254-2.035-7.07-3.387-9.6-4.134 1.021-.258 3.343-.193 6.015.312-2.696-.522-5.027-.675-6.3-.49-1.396-.546-3.108-1.261-4.545-1.802-6.052-2.276-14.976 2.632-18.407 6.07 1.615-4.267 1.534-7.7.134-8.012-3.754-.838-7.508-1.15-7.508-1.15l6.096 1.087c1.07.13 1.906.985 2.01 2.054l.098 1.004c.127 1.303-.996 4.557-1.781 5.606l-6.178 6.17s1.441-7.044 1.472-8.737l.049-2.669c-3.612 0-11.12 16.047-11.12 16.047l-.587-6.638 9.94-13.923c-.568.188-9.696 12.761-12.086 14.615l.214-4.386-4.277 1.778s2.003 4.514 4.563 7.754c.252.32 1.294 1.41 2.067 2.278 2.736-5.81 6.706-13.261 10.145-15.913.564-.434-2.947 6.915-5.308 15.165 2.01-.787 3.771-2.721 5.499-3.657-6.179 8.41-7.794 30.32 7.413 41.93-12.855-4.303-18.158-18.178-20.096-25.43-.297.436-.587.844-.861 1.215-3.55 4.813-6.415 16.39-3.564 24.216 0 0-6.015-.849-8.657-3.823-5.619 5.531-12.585 18.866-17.195 36.033-3.727-5.133-3.686-10.813-3.496-14.606-3.89 2.146-27.478 12.003-31.541 12.945 0 0-2.195.5-4.785 1.661-3.83 1.84-12.787 17.63-14.589 21.531-2.482 5.374-.53 13.698-1.731 19.444-1.665 7.963-11.557 10.719-5.219 26.51-2.401.274-4.028-.354-4.028-.354.018-.15-8.625 13.373-8.625 13.373s-1.307 5.222-2.28 9.454c-.525 2.278-3.795 7.689-4.262 10.426l6.43.496 2.322-3.869.856 4.114 5.56.429 1.615-7.494 1.932 7.072 2.714-.527 1.868-3.678c-.076-1.847-1.358-5.902-1.358-5.902l-3.825-2.086 2.756-19.177c27.087-2.276 18.248-30.304 17.678-43.678 0 0 28.706 18.901 31.507 17.939l8.98-21.408c.22 8.61-.703 50.153.075 58.726.416 4.594-3.13 11.406-3.13 11.406l-.91 7.871 6.891.785 2.019-4.15 1.64-5.62-2.035 5.246-1.463-1.636 2.5-7.008.997 3.397 1.19 9.77h4.75l2.212-4.078v-4.695l1.502 8.477s3.25.189 4.37.297l2.662-3.808-.59-4.357-3.217-4.973-8.459-.569s7.397-8.596 7.62-11.206l-9.9 11.111 5.273-48.143 13.186-8.114-10.764 32.7-2.088 13.65 2.703-.758c-.474.067-1.107.109-2.297.184 1.5-4.125 2.28-12.418 3.369-15.61 2.82-8.258 9.295-29.619 12.26-30.02.206-.027 12.594-5.5 21.528-11.381-1.728 7.682-15.604 27.279-15.231 27.232 11.809-2.95 28.275-8.262 37.756-18.411.735 4.09-.941 7.655-1.81 8.906 14.222-9.052 20.746-25.684 21.86-36.08 0 0-4.008 15.642-12.922 22.052.704-1.78 1.013-3.78 1.062-5.847-4.425 3.884-19.503 16.706-29.433 20.074 2.623-3.089 14.009-15.503 11.762-25.135-4.066-17.43-24.83-34.715-24.83-34.715s27.364 10.795 37.44 20.506c-2.79-3.629-9.244-12.25-22.804-19.273 5.857.499 15.897 2.632 19.367 2.012-2.294-1.3-5.573-3.096-8.485-5.9 23.118-.95 33.87-16.894 34.356-17.548 2.19-2.94 3.23-9.068 3.57-11.942.365-3.098-.72-6.186-1.05-7.032" fill="#D3D4D2"/><path d="M149.058 44.855c2.935-4.771 4.323-4.15 5.82-10.506.486 3.953-2.297 7.869-3.159 10.98-1.511 5.456.807 8.347 1.662 8.964-1.995.06-5.428-.646-6.318-1.281-1.046-1.612.39-5.548 1.995-8.157M25.931 186.909l2.147 4.457-1.298 3.754-1.462-1.636.613-6.575M21.71 189.59l-1.38 4.836-1.38-2.72 3.798-11.531-1.038 9.415M42.323 153.329c-1.4 5.608-9.793 8.586-15.692 7.543 1.948-.796 9.81-6.048 11.664-11.11 3.357-9.159 5.287-21.948 5.287-21.948s.507 18.445-1.26 25.515M134.612 17.993s1.593-4.701 10.17-10.319c2.378-1.558 9.252-2.532 17.573 3.58.552.366 1.086.78 1.594 1.244l.03.022c-.003 0-.007-.001-.009-.003.12.11.243.22.36.336.361.358.32.769.065 1.062.047.525-2.539.994-3.029.968-3.665-.2-8.395-1.436-12.807.426 4.822-6.97-12.597.876-13.947 2.684M102.202 75.397c-11.523 13.71-15.681 33.387-15.681 33.387s-1.094-17.69 6.842-32.866c3.23-6.177 8.84-14.085 8.84-14.085s3.848 2.561 14.399 7.683c-4.05-.237-8.03-1.697-14.4 5.881M119 67.714c-5.93-2.833-6.185-13.411-2.752-20.19.18 2.478 3.256 12.9 8.384 16.158 9.282 5.897 23.286 10.86 23.286 10.86s-21.44-3.256-28.917-6.828M179.024 37.362c3.09-1.904 5.104-2.63 6.958-1.873-.06.154-.102.769-.238 1.399-2.09.237-5.548 3.717-6.058 6.45-.737-2.31-.737-3.655-.662-5.976" fill="#D3D4D2"/><path d="m173.819 190.518-1.974-2.704-6.488-2.808-.284-3.237 8.746 4.197s-7.075-3.97-9.032-5.336c0 0-1.666-3.58-2.235-5.05 1.237-8.893 10.647-31.94 10.504-41.187-6.13 5.618-13.377 13.865-17.59 17.54-2.102 7.33-4.421 12.188-5.742 18.477l3.374-1.304c-1.426 3.486-2.752 9.116-3.636 12.448 1.117-.426 3.136-1.422 3.136-1.422-.855 5.3-3.136 14.796-3.136 14.796l10.538.558c.61-.878 1.084-1.766 2.364-4.114l.238-2.799s-3.39-3.461-3.374-3.462c1.17-.022 4.799 2.798 4.799 2.798l-.546 7.02 3.588.557 1.845-4.114.246-2.466-3.28-2.324 4.61 1.944.499 6.616 1.617.344 1.735-4.065-.522-5.455v4.552" fill="#182744"/><path fill="#182744" d="m162.265 149.19 10.129-11.572-10.492 38.103-1.513.717 1.876-27.248M40.758 94.652c2.352-.878 6.7-2.467 6.7-2.467s-7.128.45-9.48 1.09c1.73.345 2.21.712 2.78 1.377M98.223 196.34l1.309 1.34.765-.749-1.037-3.203-1.037 2.611M89.074 196.931l.765.75 1.31-1.342-1.038-2.61-1.037 3.202M70.694 195.244l1.703.605-.665-3.216zM65.778 196.271l1.308 1.342.767-.749-1.038-3.203-1.037 2.61M59.695 196.767l1.309 1.342.766-.75-1.038-3.201-1.037 2.61M28.078 195.953l1.702.605-.665-3.216zM21.71 196.45l1.309 1.34.766-.749-1.037-3.202-1.038 2.61M12.368 196.5l.583.9 1.57-1.025-.44-2.774-1.713 2.9M107.771 193.994s-1.307 2.93-1.038 2.769l1.532.349c.241-.814-.494-3.118-.494-3.118M173.674 79.568 163.21 94.813c.002.002.005.005.005.007 2.98-3.681 6.745-9.325 10.46-15.252M163.209 94.813c-.045-.051-.084-.112-.13-.161-.311-.34-.65-.683-1.006-1.026.431.56.783 1.012 1.05 1.31l.086-.123"/><path d="M163.326 94.677c-.002-.005-.007-.01-.012-.016l-.19.274c.066-.079.138-.175.202-.258M177.314 13.326c-.526-.27-1.19-.608-1.975-.99.093.055.192.107.283.164.432.266 1.105.552 1.692.826M178.048 13.673a2.36 2.36 0 0 1-.068-.035c.024.014.041.027.065.04l.003-.005M159.912 23.998l-.077.04c.135-.19.269-.356.403-.532-.21.243-.41.467-.63.671.09-.058.204-.12.304-.179M158.804 21.526c-.02.03-.034.062-.054.092.222-.31.443-.618.672-.897-.25.291-.465.567-.618.805M167.18 15.796c-.627.085-1.238.345-1.838.67.49-.212.962-.34 1.41-.393l.429-.277M161.004 22.636c1.139-1.054 2.671-2.165 4.297-3.094-1.698.909-3.133 1.964-4.297 3.094M161.697 20.22a9.18 9.18 0 0 0-1.365 2.207c.458-.855.914-1.58 1.365-2.207M176.522 18.145c-.021-.009-.045-.014-.064-.021.036.014.082.04.123.059-.018-.01-.046-.032-.059-.038M160.356 22.368c-.045.104-.095.213-.138.315.047-.1.091-.22.138-.315M176.599 23.83c-1.214-.582-2.556-.76-3.902-.589-.034.079-.09.143-.129.219.082-.065.164-.126.245-.194 1.483-.13 2.731.09 3.786.564M177.132 23.887c.159.039.313.082.469.127-.156-.045-.314-.086-.47-.127M180.787 31.103l.009-.027-.01.027h.001M187.022 33.916l.01.027-.01-.027M186.924 29.503a46.813 46.813 0 0 0-1.926-2.348l.356.426c.52.621 1.045 1.262 1.57 1.922" fill="#182744"/><path d="M184.998 27.155a46.813 46.813 0 0 1 1.926 2.348c.105.13.21.265.314.4-.034-.05-.063-.103-.097-.152l-.031-.043c-.067-.095-.136-.186-.204-.28-.777-1.039-1.61-1.965-2.439-2.945.123.167.24.322.342.445l.19.227M187.595 30.1c-.066-.072-.125-.15-.193-.222-.16-.15-.318-.302-.478-.449.226.22.453.44.671.671M187.912 30.674c.18.224.367.439.542.67-.172-.229-.363-.445-.542-.67M181.815 22.848c-.048-.076-.101-.148-.148-.226-1.334-1.73-3.726-2.557-2.939-1.012.012.021.034.041.046.063-.68-1.465 1.746-.588 3.041 1.175" fill="#182744"/><path d="m184.998 27.155-.189-.227a9.596 9.596 0 0 1-.342-.445c-.751-.892-1.5-1.829-2.197-2.942.86 1.397 1.796 2.528 2.728 3.614M101.558 171.87c.555-.119.887-.292 1.59-.67l-1.59.67" fill="#182744"/><path d="M149.643 20.794c0-.426.087-.83.22-1.213-.71.426-1.286 1.018-1.945 2.083.555 1.707 2.749 3.006 4.81 2.795a3.727 3.727 0 0 1-3.085-3.665" fill="#FFF"/><path d="M196.39 49.502c-.26-5.63-3.039-13.934-5.045-17.297-1.625-2.725-3.344-4.684-4.99-6.663-1.442-1.735-4.853-6.85-4.9-7.725-.059-1.085.845-3.62.845-3.62s-2.743-2.063-5.177-3.52c-5.608-3.359-13.155-4.9-19.784-5.327-2.067-1.316-3.898-1.906-5.845-2.383-1.382-.34-3.185-.195-4.925-.195-1.157 0-2.306.07-3.418.137-1.12.068-2.177.132-3.246.132-1.469 0-2.68-.125-3.81-.393a48.305 48.305 0 0 1-2.337-.634c-1.655-.478-9.53-2.07-9.53-2.07s-3.716 5.217-5.086 6.593c-.929.931-1.806 1.812-2.723 2.523-.556.432-1.223.835-1.93 1.263-1.606.971-5.824 2.615-8.247 3.516 1.568 3.538 3.999 6.841 5.589 8.566.725.786 1.433 2.193 2.074 3.006.916 1.16 1.841 3.272 1.841 3.272s-1.498 2.868-3.219 5.2c-.886 1.201-1.808 2.343-2.7 3.447-2.746 3.398-5.338 6.608-6.82 11.26-1.71 5.37-2.856 8.114-6.657 11.855-1.746 1.72-3.222 3.353-4.65 4.933-3.172 3.512-5.91 6.546-10.414 9.156-5.785 3.354-11.756 6.63-17.53 9.798-1.91 1.047-3.82 2.094-5.725 3.146-3.625 2-4.534 2.104-8.228 2.26l-.088.004c-3.902.164-10.127 1.11-14.375 2.822 0 0-.836 5.915-1.325 8.467-.176.92-.342 1.789-.573 2.597-.536 1.876-1.559 3.333-2.743 5.021-.978 1.395-1.99 2.837-2.837 4.672-1.881 4.073-2.992 6.948-3.748 11.473-.29 1.736-.564 3.376-.895 4.955-.522 2.497-1.016 6.889-1.451 9.63-.939 5.9-1.498 12.001-3.625 16.989-.669 1.569-2.063 3.28-3.538 5.092-1.866 2.292-3.785 4.074-4.606 6.617l-3.157 12.65c-.122.53-.494 1.642-.887 2.817-2.104 6.296-3.115 16.928-3.115 16.928h29.796s-.312-11.284-1.681-14.803c-.53-1.358-1.076-2.762-1.349-4.154-1.307-6.67 1.39-9.78 8.244-14.06 10.038-6.268 13.852-13.73 15.619-24.905 1.762 1.771 2.533 3.553 2.896 5.44.458 2.383.152 5.23-.668 7.8-.604 1.893-1.584 3.71-2.622 5.633-1.272 2.357-2.588 4.795-3.23 7.493-.672 2.83-2.81 6.016-2.893 9.019-.043 1.573-.084 3.059-.205 4.465-.045.512-.252 1.637-.472 2.827-1.217 6.578-1.505 15.37-1.505 15.37h29.662s-.244-12.14-2.651-18.011c-.943-2.3-.912-4.62-1.093-6.033-.797-6.23 2.399-10.156 7.398-14.334.271 4.434 2.846 10.264 3.127 13.357.387 4.277-2.675 11.513-2.675 11.513l-.67 13.39h7.415s26.127.157 26.178 0c.04-.091-.228-9.027-.228-9.027-.17-.444-1.62-4.194-1.756-4.582-1.116-3.17-1.994-3.683-2.055-7.139-.022-1.285-.214-2.566-.4-3.805-.227-1.51-.442-2.937-.332-4.217.07-.827 1.393-7.66 1.393-7.66s5.755-1.25 8.407-1.381c1.332-.067 23.816-5.157 29.622-6.27.056 3.278-.183 1.567-.053 4.766.143 3.494.289 9.065.33 12.6.026 2.2-2.29 14.383-2.29 14.383s1.837.543 2.592.543h.072c.149 2.209-.485 11.632-.485 11.632h32.114c.342-6.897-2.958-16.349-2.958-16.349s-6.54-4.174-7.148-5.746c-.482-2.116-1.521-3.527-1.36-5.565 1.568-5.832 3.655-11.343 6.83-18.395.279-.616.61-1.2.817-1.818 1.552-4.622 2.688-11.098 3.364-18.423.532-5.759 1.655-10.904 2.788-16.483 1.491-7.337 1.762-9.613 3.313-19.146-.372-4.254-1.12-7.832-2.214-11.95-1.07-4.03-3.215-13.15-3.516-14.436a606.917 606.917 0 0 0 2.705-4.546c1.403-1.852 3.273-3.811 5.441-4.819 3.346-1.554 9.055-4.797 9.055-4.797 1.048-3.059 1.037-4.956.88-8.347" fill="#192743"/><path d="M154.995 19.08a.512.512 0 1 1-1.025-.002.512.512 0 0 1 1.025.002" fill="#182744"/><path d="M47.458 92.185s-4.348 1.589-6.7 2.467c-.57-.665-1.05-1.032-2.78-1.376 2.352-.64 9.48-1.09 9.48-1.09M12.95 197.4l-.582-.9 1.713-2.899.44 2.774-1.57 1.024M23.019 197.79l-1.31-1.34 1.039-2.611 1.037 3.202-.766.75M29.78 196.558l-1.702-.605 1.037-2.61zM61.004 198.11l-1.31-1.343 1.038-2.61 1.038 3.202-.766.75M67.086 197.613l-1.308-1.342 1.037-2.61 1.038 3.203-.767.75M72.397 195.849l-1.703-.605 1.038-2.61z" fill="#C9D0D2"/><path d="m71.15 191.292-1.414 3.981-1.61.06-1.811-4.612-1.624 4.95-2.335.14-1.934-5.66-1.33 5.982-11.804-1.808s3.067-8.128 3.963-10.197c1.842-4.253 13.759-11.776 17.99-16.629-.384 4.082-5.68 8.532-5.445 10.37.192 1.5 5.22 3.83 5.94 6.402.745 2.658 1.414 7.02 1.414 7.02M89.839 197.68l-.765-.749 1.037-3.203 1.037 2.611-1.31 1.341M99.532 197.68l-1.309-1.34 1.037-2.612 1.037 3.203-.765.75M108.265 197.112l-1.532-.35c-.269.162 1.038-2.768 1.038-2.768s.735 2.304.494 3.118M162.91 196.864l-1.305-.296c-.23.136.938-2.461.938-2.461s.573 2.064.367 2.757M170.432 197.522l-2.062-.297c-.339.241 1.075-3.775 1.075-3.775.079.262 1.299 3.234.987 4.072M175.386 197.045l-1.531-.349c-.269.162 1.038-2.769 1.038-2.769s.734 2.304.493 3.118" fill="#C9D0D2"/><path d="M162.552 175.58c.569 1.47 2.235 5.05 2.235 5.05 1.957 1.366 9.032 5.336 9.032 5.336l.522 5.455-1.735 4.065-1.617-.344-.499-6.616-4.61-1.944 3.28 2.324-.246 2.466-1.845 4.114-3.588-.558.546-7.019s-3.629-2.82-4.799-2.798c-.015 0 3.374 3.462 3.374 3.462l-.238 2.799c-1.28 2.348-1.754 3.236-2.364 4.114l-10.538-.558s2.28-9.496 3.136-14.796c0 0-2.02.996-3.136 1.422.884-3.332 2.21-8.962 3.636-12.448l-3.374 1.304c1.32-6.29 3.64-11.146 5.742-18.477 4.213-3.675 11.46-11.922 17.59-17.54.143 9.248-9.267 32.294-10.504 41.187M184.506 52.917c-.486.654-11.238 16.599-34.356 17.547 2.912 2.805 6.191 4.6 8.485 5.901-3.47.62-13.51-1.513-19.367-2.012 13.56 7.023 20.014 15.644 22.805 19.273.356.343.695.685 1.006 1.026.046.05.085.11.13.16l10.465-15.244c.855 1.994 4.132 13.114 5.318 17.122-1.113 10.397-7.637 27.03-21.86 36.08.87-1.25 2.546-4.815 1.811-8.905-9.481 10.149-25.947 15.46-37.756 18.411-.373.047 13.503-19.55 15.23-27.232-8.933 5.88-21.321 11.354-21.527 11.381-2.965.401-9.44 21.762-12.26 30.02-1.09 3.192-1.868 11.485-3.369 15.61 1.19-.075 1.823-.117 2.297-.184l1.59-.446c-.223 2.61-7.62 11.206-7.62 11.206l8.459.57 3.218 4.972.589 4.357-2.662 3.808c-1.12-.108-4.37-.297-4.37-.297l-1.502-8.477v4.695l-2.211 4.079h-4.752l-1.189-9.77-1.639 5.62-2.019 4.15-6.89-.785.91-7.871s3.545-6.812 3.129-11.406c-.778-8.573.146-50.117-.075-58.726l-8.98 21.408c-2.801.962-31.507-17.939-31.507-17.939.57 13.374 9.41 41.402-17.678 43.678l-2.756 19.177 3.825 2.086s1.282 4.055 1.358 5.902l-1.868 3.678-2.714.527-1.932-7.072-1.616 7.494-5.56-.43-.855-4.113-2.322 3.87-6.43-.497c.467-2.737 3.737-8.148 4.262-10.426.973-4.232 2.28-9.454 2.28-9.454s8.643-13.522 8.625-13.373c0 0 1.627.628 4.028.355-6.338-15.792 3.554-18.548 5.219-26.51 1.202-5.747-.75-14.071 1.731-19.445 1.802-3.901 10.76-19.692 14.589-21.53 2.59-1.162 4.785-1.662 4.785-1.662 4.063-.942 27.651-10.799 31.54-12.945-.189 3.793-.23 9.473 3.497 14.606 4.61-17.167 11.576-30.502 17.195-36.033 2.642 2.974 8.657 3.823 8.657 3.823-2.851-7.826.014-19.403 3.564-24.216.274-.371.564-.78.86-1.215 1.939 7.252 7.242 21.127 20.097 25.43-15.207-11.61-13.592-33.52-7.413-41.93-1.728.936-3.488 2.87-5.499 3.657 2.361-8.25 5.872-15.6 5.308-15.165-3.439 2.652-7.409 10.104-10.145 15.913-.773-.868-1.815-1.958-2.067-2.278-2.56-3.24-4.563-7.754-4.563-7.754l4.277-1.778-.214 4.386c2.39-1.854 11.518-14.427 12.087-14.615 0 0 3.754.311 7.508 1.149 1.4.311 1.48 3.745-.134 8.012 3.43-3.438 12.355-8.346 18.407-6.07 1.437.54 3.15 1.256 4.545 1.803 2.875-.42 11.127.875 16.824 4.282.785.382 1.449.72 1.975.99a9.513 9.513 0 0 1 .697.35l-.002.001c.17.098.313.193.393.28 0 0-.594 1.494-.594 2.205-.672.369-2.648.09-3.701-.272-2.848-1.049-13.168-6.2-13.168-6.2l2.922 2.276c3.373 2.3-1.053 4.61-9.216 4.15-6.727-.38-11.195 5.264-11.527 12.235 1.548-1.972 1.346-2.334 2.391-3.33.839 1.051 4.043 1.524 5.312 1.813-.746 1.85-2.713 5.714-2.356 10.919.863-2.474 1.745-4.213 2.374-5.67 3.256-7.558 3.721-1.384 4.04.682h-.002c.738-4.991 2.168-8.592 3.873-11.147.018-.03.032-.062.05-.092.144-.238.345-.514.58-.805 1.894-2.47 4.048-3.751 5.962-4.254.6-.198 1.211-.355 1.839-.407l-.428.168c.162-.011.327-.027.481-.027-2.847 1.406-4.505 2.778-5.537 4.019-.451.627-.907 1.352-1.365 2.207l-.052.115c-.021.042-.041.096-.062.14-.123.295-.228.57-.328.826-.06.175-.12.341-.18.53l.034-.04a10.51 10.51 0 0 1 1.26-1.362c1.164-1.13 2.6-2.185 4.297-3.094 1.434-.82 2.934-1.496 4.286-1.862 2.86-.772 5.363-.13 6.835.458.009.004.025.014.036.018l.029.01c.005.002.018.013.026.017.264.126.71.393.796.541.103.176.103.536-.302.43l-.037-.006c-1.332-.313-4.134-.697-7.525.443 2.233 5.298-6.416 2.576-7.08 13.174 1.99-7.568 6.487-7.772 10.203-9.1.04-.034.095-.063.129-.098 1.346-.077 2.688.003 3.902.263.187.037.358.082.533.127l.21.057c4.144 1.163 4.623 4.396 3.448 7.077l-.004.012-.002.002c-1.625.738-3.011 1.983-3.973 2.653-2.804 8.157-.525 23.309-14.295 25.704-10.917 1.898-19.255-.83-26.098-4.174 2.055 4.136 6.271 8.106 8.27 9.96 2.61.838 11.319.487 13.875.19 7.341-.854 17.764-7.488 18.342-15.177.498-6.625 1.14-15.066 1.14-15.066s2.67-1.732 5.323-2.43c.21-.055 3.564.945 3.564.945s.035.082.09.22l.005.013c.329.846 1.414 3.934 1.048 7.032-.34 2.874-1.38 9.002-3.57 11.942" fill="#C9D0D2"/><path d="M191.592 54.755c-1.071.487-2.62 1.404-4.276 1.795.819-1.448 1.29-2.294 1.296-2.305 2.264-4.174 2.408-14.559-.777-21.246 0 0-2.273-1.51-3.676-2.175a.11.11 0 0 0-.057-.044c-1.147-2.524-.449-5.749-3.55-7.059-.703-.336-1.294-1.147-1.748-1.977-.013-.026-.018-.045-.03-.071-.012-.022-.034-.042-.046-.063-.787-1.545 1.605-.718 2.939 1.012.047.078.1.15.148.226.094.127.182.259.262.395.063.106.13.195.193.298.697 1.113 1.446 2.05 2.197 2.942.828.98 1.662 1.906 2.439 2.945.068.094.137.185.204.28l.031.043c.034.049.063.102.097.151.044.065.083.134.126.198.19.27.368.562.548.853.08.131.166.258.243.392.309.534.606 1.097.875 1.727 1.712 4.002 3.759 8.805 3.878 13.126.15 5.391-.46 6.824-1.316 8.557" fill="#C9D0D2"/><path d="M179.024 37.362c-.075 2.32-.075 3.665.662 5.976.51-2.733 3.967-6.213 6.058-6.45.136-.63.179-1.245.238-1.399-1.854-.756-3.867-.031-6.958 1.873" fill="#182744"/><path d="M154.482 19.591a.512.512 0 1 0 .001-1.025.512.512 0 0 0-.001 1.025" fill="#FFF"/><path d="M153.381 54.293c-.855-.617-3.173-3.508-1.662-8.964.862-3.111 3.645-7.027 3.16-10.98-1.498 6.356-2.886 5.735-5.82 10.506-1.605 2.609-3.042 6.545-1.996 8.157.89.635 4.323 1.341 6.318 1.28" fill="#182744"/><path fill="#FFF" d="M106.696 188.386v4.123l-1.461-1.636-1.533-7.009 2.994 4.522M98.619 188.215v4.124l-1.463-1.636-1.533-7.01 2.996 4.522M152.727 24.46c-2.06.21-4.254-1.089-4.81-2.796.66-1.065 1.237-1.657 1.946-2.083-.133.382-.22.787-.22 1.213a3.727 3.727 0 0 0 3.084 3.665M38.295 149.763c-1.854 5.061-9.716 10.313-11.664 11.11 5.899 1.042 14.292-1.936 15.692-7.544 1.766-7.07 1.26-25.515 1.26-25.515s-1.931 12.79-5.288 21.949M160.39 176.438l1.512-.717 10.492-38.103-10.129 11.572-1.876 27.248M100.943 158.98l10.764-32.701-13.186 8.114-5.274 48.143 9.9-11.111c-.702.251-1.034.366-1.589.446l-2.703.758 2.088-13.65M173.674 79.568c-3.715 5.927-7.48 11.57-10.46 15.252-.028.037-.06.08-.09.115-.268-.297-.62-.748-1.051-1.31-10.077-9.71-37.44-20.505-37.44-20.505s20.763 17.286 24.829 34.715c2.247 9.632-9.14 22.046-11.762 25.135 9.93-3.368 25.008-16.19 29.433-20.074-.049 2.066-.358 4.067-1.062 5.847 8.914-6.41 12.921-22.053 12.921-22.053l-5.318-17.122M93.363 75.918c-7.936 15.176-6.842 32.866-6.842 32.866s4.158-19.677 15.681-33.387c6.37-7.578 10.35-6.118 14.4-5.881-10.55-5.122-14.4-7.683-14.4-7.683s-5.609 7.908-8.839 14.085"/><path fill="#FFF" d="M106.696 192.51v-4.124l-2.994-4.522 1.533 7.009 1.461 1.636M98.619 192.34v-4.125l-2.996-4.521 1.533 7.01 1.463 1.635M87.611 190.178l1.463 1.636 2.034-5.247-.997-3.397-2.5 7.008M69.693 194.158l-.46-2.007-5.485-12.907 4.137 3.686a5.477 5.477 0 0 1 1.622 2.581l1.187 4.152-1.001 4.495M161.902 188.597v2.703l-1.463-1.635-2.994-5.62 4.457 4.552M168.318 188.597v2.703l-1.464-1.635-5.774-5.123 7.238 4.055M165.357 185.006l6.488 2.808 1.974 2.704v-4.552l-8.746-4.197.284 3.237"/><path fill="#FFF" d="m166.854 189.665 1.464 1.635v-2.703l-7.238-4.055 5.774 5.123M160.44 189.665l1.462 1.635v-2.703l-4.457-4.552 2.994 5.62M116.248 47.524c-3.433 6.779-3.177 17.357 2.753 20.19 7.477 3.572 28.917 6.828 28.917 6.828s-14.004-4.963-23.286-10.86c-5.128-3.258-8.204-13.68-8.384-16.158M28.078 191.366l-2.147-4.457-.613 6.575 1.462 1.636 1.298-3.754M20.33 194.426l1.38-4.836 1.038-9.415-3.798 11.532 1.38 2.719M148.559 15.31c4.412-1.863 9.142-.626 12.807-.427.49.026 3.076-.443 3.03-.968.254-.293.295-.704-.066-1.062-.117-.116-.24-.226-.36-.336.002.002.006.003.008.003l-.029-.022a13.143 13.143 0 0 0-1.594-1.245c-8.321-6.111-15.195-5.137-17.574-3.579-8.576 5.618-10.169 10.32-10.169 10.32 1.35-1.81 18.77-9.656 13.947-2.685M169.465 24.997c-3.173 1.543-4.964 4.037-5.964 6.552 1.854-.917 2.888-1.15 3.396-.979-1.396 1.575-1.681 4.625-1.681 4.625 5.56-4.682 6.029 6.939 8.052 9.992.733-6.682.9-8.11 3.154-11.806.022-.037.039-.072.06-.108 1.17-.695 1.828-1.683 4.303-2.17l.005-.012c1.452-4.044-.465-6.203-3.449-7.077a9.981 9.981 0 0 0-.743-.184c-1.054-.212-2.302-.31-3.785-.252-.08.03-.163.058-.245.087-.22.187-.514.352-.888.51-.782.184-1.52.471-2.215.822"/><path d="m178.284 35.418 5.56-.806 2.421.43-.283 2.385s-.713.457-4.087 4.914c-1.17 1.548-1.308 3.702-.895 5.542 3.17 1.146 3.604 1.074 3.17 4.418.673-.217 1.306-1.8 1.812-3.47 1.085-3.58 1.872-6.851 1.882-9.19.014-3.436-.813-5.633-.837-5.698l-.005-.012-3.56-.79-5.178 2.277M118.835 23.721s7.508-16.047 11.12-16.047l-.05 2.67c-.03 1.692-1.471 8.736-1.471 8.736l6.178-6.17c.785-1.049 1.908-4.303 1.781-5.606l-.098-1.004a2.295 2.295 0 0 0-2.01-2.054l-6.096-1.086-9.941 13.923.587 6.638M158.999 27.026c-.468 1.233-.984 3.487-.984 3.487 1.783-2.968 6.595-7.552 11.002-8.943 1.046-.33-.133-2.008.04-2.065 3.05-.999 5.218-1.067 7.848-.463.741.171-.14-.72-.392-.86-.018-.007-.04-.02-.055-.026-2.792-1.185-6.187-.628-7.563-.168-1.31.438-2.5.969-3.594 1.554-1.626.929-3.158 2.04-4.297 3.094-.458.446-.887.9-1.26 1.363-.045.059-.096.12-.136.178.099-.203.188-.427.282-.669.107-.308.217-.583.328-.825l.062-.14c.017-.034.033-.082.05-.113l.002-.003a9.18 9.18 0 0 1 1.365-2.207c1.886-2.626 3.67-3.443 5.056-3.992-.45.033-.921.11-1.41.239-2.562.843-4.793 2.792-5.964 4.254-.214.28-.422.587-.629.897-1.03 1.733-1.797 3.774-2.363 5.912 1.186-2.45 3.144-1.904 2.612-.504" fill="#FFF"/><path d="m185.354 27.58-.356-.425c-.932-1.086-1.868-2.217-2.728-3.614l-.014-.023c-.152-.22-.296-.445-.44-.67-1.296-1.763-3.722-2.64-3.042-1.175.473.804 1.487 1.538 2.17 1.866 3.103 1.31 2.608 4.138 3.755 6.662.032.013 3.422 2.18 3.422 2.18 3.183 6.688 4.86 19.074 4.712 13.682-.12-4.32-2.167-9.123-3.878-13.125a15.671 15.671 0 0 0-.8-1.593c-.079-.136-.162-.261-.243-.392-.176-.29-.359-.574-.548-.853-.143-.206-.292-.402-.44-.597-.525-.66-1.05-1.3-1.57-1.922M158.8 8.231c2.53.747 5.346 2.099 9.6 4.134 2.806 1.34 6.65 3.393 8.541 3.336l1.068-2.024-.029-.018a44.21 44.21 0 0 1-.666-.333c-.587-.274-1.26-.56-1.692-.826-.091-.057-.19-.11-.283-.164a62.797 62.797 0 0 0-6.073-2.582c-4.264-1.559-8.897-1.92-10.466-1.523" fill="#FFF"/></g></svg>