<svg width="200" height="200" xmlns="http://www.w3.org/2000/svg"><g fill="none"><path d="M176.047 24.796a8.1 8.1 0 0 1 .659.285c-.216-.1-.428-.202-.66-.285m4.108 7.314c1.152-2.642.683-5.827-3.38-6.973 2.924.861 4.803 2.988 3.38 6.972m-4.245-12.743l-.036-.018c-1.442-.579-3.895-1.212-6.698-.451-1.325.36-2.795 1.027-4.2 1.834a22.765 22.765 0 0 1 3.523-1.531c1.347-.453 4.674-1.002 7.41.166m-15.565 4.459c-.227.239-.452.51-.67.813.204-.251.418-.523.67-.813m16.405-9.561c.245.254.468.482.659.671a9.64 9.64 0 0 0-.659-.67m-15.305 7.134c1.012-1.222 2.636-2.575 5.427-3.96-.152 0-.313.016-.472.027-1.358.541-3.106 1.346-4.955 3.933m3.572-3.698c-1.875.496-3.986 1.759-5.843 4.191 1.147-1.44 3.334-3.36 5.843-4.19m-4.961 5.985l.117-.258-.004.004c-.04.073-.073.179-.113.254m.71.093c-.501.466-.92.92-1.235 1.342.366-.456.786-.903 1.235-1.342m25.833 7.353c.228.275.447.554.66.84-.218-.286-.432-.574-.66-.84m-4.767-6.463c-.093-.1-.192-.188-.285-.293a4.924 4.924 0 0 0-.386-.389c.213.222.425.444.65.66.006.009.014.015.021.023m-8.649 55.199l5.211 16.87c-1.162-3.95-4.373-14.905-5.211-16.87" fill="#182744"/><path d="M162.272 192.716s-1.144 2.56-.92 2.424l1.28.293c.202-.683-.36-2.717-.36-2.717m12.103-.176s-1.28 2.886-1.018 2.727l1.501.344c.236-.802-.483-3.072-.483-3.072m-5.338-.469s-1.387 3.956-1.055 3.718l2.021.292c.306-.825-.89-3.753-.966-4.01" fill="#C7CBDD"/><path d="M192.03 46.993c-.117-4.257-2.123-8.989-3.8-12.932a15.615 15.615 0 0 0-.859-1.701c.286.502.551 1.021.785 1.569 1.676 3.943 3.682 8.675 3.8 12.931.146 5.312-1.498-6.89-4.617-13.479 0 0-3.323-2.136-3.354-2.149-1.124-2.487-.639-5.273-3.68-6.563-.67-.323-1.663-1.046-2.126-1.838.012.025.016.044.029.07.445.817 1.024 1.616 1.712 1.948 3.04 1.29 2.356 4.467 3.48 6.954a.108.108 0 0 1 .056.043c1.375.656 3.602 2.143 3.602 2.143 3.121 6.588 2.98 16.82.761 20.933-.006.01-.467.843-1.269 2.27 1.622-.385 3.14-1.288 4.19-1.768.84-1.708 1.436-3.12 1.29-8.43M71.321 183.026c-.706-2.534-5.633-4.83-5.821-6.308-.23-1.81 4.96-6.195 5.337-10.216-4.147 4.781-15.825 12.193-17.631 16.383-.879 2.038-3.884 10.046-3.884 10.046l11.568 1.782 1.303-5.893 1.895 5.576 2.29-.14 1.59-4.876 1.776 4.544 1.577-.058 1.386-3.923s-.656-4.298-1.386-6.917M174.813 13.631c-2.732-1.642-6.061-2.784-9.08-3.475 1.03.242 2.09.55 3.128.931a61.367 61.367 0 0 1 5.952 2.544m-10.315-4.058c.393.173.791.365 1.197.574a16.245 16.245 0 0 0-1.197-.574" fill="#182744"/><path d="M186.266 34.92c.024.064.835 2.228.82 5.612-.009 2.305-.78 5.528-1.844 9.056-.495 1.645-1.116 3.205-1.775 3.418.424-3.295 0-3.224-3.107-4.353-.405-1.813-.27-3.935.877-5.46 3.306-4.391 4.005-4.842 4.005-4.842l.278-2.348-2.373-.425-5.449.794 5.076-2.243 3.487.778c-.053-.137-.087-.217-.087-.217s-3.287-.985-3.493-.931c-2.6.687-5.216 2.393-5.216 2.393s-.63 8.317-1.118 14.844c-.566 7.575-10.781 14.111-17.976 14.952-2.504.293-11.04.64-13.596-.187-1.96-1.826-6.092-5.738-8.105-9.812 6.705 3.294 14.877 5.982 25.576 4.112 13.495-2.36 11.26-17.288 14.009-25.325.943-.66 2.301-1.886 3.894-2.613v-.001c-2.425.48-3.07 1.452-4.216 2.138-.021.035-.038.069-.06.106-2.209 3.642-2.372 5.048-3.09 11.631-1.983-3.008-2.443-14.457-7.892-9.845 0 0 .28-3.004 1.649-4.556-.499-.168-1.512.06-3.329.965.98-2.478 2.735-4.936 5.844-6.455a9.798 9.798 0 0 1 2.171-.811c.367-.155.654-.318.87-.502-3.64 1.309-8.049 1.51-9.999 8.966.652-10.442 9.127-7.76 6.939-12.98 3.324-1.123 6.07-.745 7.375-.436l.036.007c.397.104.397-.251.296-.425-.084-.146-.521-.409-.78-.533.247.137 1.11 1.015.384.847-2.578-.595-4.703-.528-7.69.455-.17.056.984 1.71-.04 2.035-4.32 1.37-9.035 5.886-10.782 8.811 0 0 .505-2.22.964-3.435.522-1.38-1.397-1.918-2.56.496.555-2.107 1.307-4.117 2.316-5.825-1.67 2.517-3.072 6.065-3.794 10.983 0 0 .002 0 0 0-.312-2.035-.768-8.119-3.959-.672-.616 1.435-1.48 3.148-2.327 5.586-.35-5.128 1.579-8.936 2.31-10.758-1.244-.285-4.384-.75-5.206-1.786-1.025.982-.826 1.338-2.343 3.28.325-6.867 4.703-12.428 11.296-12.054 8 .453 12.338-1.822 9.032-4.088l-2.864-2.242s10.113 5.075 12.905 6.108c1.032.356 2.968.631 3.627.268 0-.7.582-2.172.582-2.172a1.728 1.728 0 0 0-.385-.276l-1.047 1.993c-1.853.057-5.62-1.965-8.37-3.286-4.169-2.005-6.928-3.337-9.408-4.073 1-.254 3.276-.19 5.894.307-2.641-.514-4.925-.665-6.174-.481-1.367-.539-3.045-1.244-4.453-1.777-5.932-2.242-14.677 2.594-18.04 5.981 1.583-4.204 1.504-7.587.133-7.894-3.68-.825-7.359-1.132-7.359-1.132l5.974 1.07a2.255 2.255 0 0 1 1.97 2.024l.096.989c.125 1.283-.976 4.49-1.745 5.523l-6.055 6.079s1.413-6.94 1.443-8.608l.048-2.63c-3.54 0-10.898 15.81-10.898 15.81l-.575-6.54 9.742-13.717c-.558.185-9.502 12.573-11.845 14.4l.21-4.322-4.192 1.752s1.963 4.447 4.472 7.639c.247.316 1.268 1.39 2.026 2.245 2.681-5.724 6.572-13.066 9.942-15.678.552-.428-2.888 6.812-5.202 14.94 1.97-.775 3.696-2.68 5.388-3.602-6.054 8.286-7.637 29.872 7.266 41.31-12.598-4.24-17.796-17.91-19.695-25.054-.29.429-.575.831-.843 1.197-3.48 4.741-6.287 16.147-3.493 23.857 0 0-5.894-.835-8.484-3.766-5.506 5.45-12.334 18.588-16.85 35.501-3.653-5.058-3.613-10.653-3.427-14.39-3.812 2.114-26.929 11.826-30.91 12.754 0 0-2.152.492-4.69 1.636-3.752 1.812-12.531 17.369-14.297 21.213-2.432 5.294-.518 13.495-1.696 19.156-1.632 7.846-11.326 10.56-5.114 26.12-2.354.268-3.948-.35-3.948-.35.018-.147-8.453 13.175-8.453 13.175s-1.28 5.144-2.234 9.314c-.514 2.245-3.72 7.576-4.177 10.272l6.301.49 2.276-3.812.839 4.052 5.448.423 1.584-7.383 1.893 6.967 2.66-.519 1.83-3.623c-.074-1.82-1.33-5.815-1.33-5.815l-3.75-2.056 2.702-18.893c26.545-2.243 17.883-29.856 17.324-43.033 0 0 28.132 18.622 30.877 17.674l8.8-21.092c.217 8.482-.689 49.412.074 57.86.408 4.525-3.067 11.236-3.067 11.236l-.892 7.755 6.753.773 1.979-4.089 1.606-5.537-1.994 5.17-1.433-1.612 2.45-6.905.977 3.347 1.165 9.626h4.657l2.167-4.019v-4.625l1.471 8.352s3.185.186 4.284.292l2.608-3.751-.577-4.293-3.154-4.9-8.29-.56s7.25-8.469 7.468-11.04l-9.703 10.947 5.169-47.432 12.922-7.994-10.549 32.217-2.046 13.447 2.649-.747c-.465.067-1.085.108-2.25.182 1.47-4.064 2.233-12.234 3.3-15.378 2.763-8.137 9.11-29.182 12.015-29.577.202-.027 12.342-5.42 21.098-11.214-1.694 7.57-15.292 26.876-14.927 26.83 11.573-2.907 27.71-8.14 37.001-18.139.72 4.03-.922 7.542-1.774 8.774 13.938-8.917 20.331-25.304 21.422-35.547 0 0-3.927 15.412-12.663 21.727.69-1.753.993-3.725 1.041-5.76-4.336 3.826-19.113 16.459-28.844 19.777 2.57-3.044 13.729-15.274 11.527-24.763-3.985-17.173-24.333-34.202-24.333-34.202s26.816 10.634 36.691 20.202c-2.734-3.575-9.06-12.069-22.348-18.988 5.74.491 15.578 2.593 18.98 1.983-2.248-1.282-5.462-3.051-8.316-5.814 22.655-.935 33.193-16.644 33.669-17.288 2.145-2.897 3.164-8.934 3.498-11.765.358-3.053-.705-6.095-1.028-6.929" fill="#D3D4D2"/><path d="M149.057 45.67c2.876-4.7 4.237-4.088 5.704-10.351.476 3.894-2.252 7.753-3.096 10.818-1.481 5.375.79 8.223 1.629 8.831-1.956.06-5.32-.636-6.192-1.262-1.026-1.588.382-5.466 1.955-8.036M28.393 185.624l2.103 4.392-1.272 3.698-1.433-1.611.602-6.479m-4.137 2.642l-1.352 4.765-1.353-2.68 3.722-11.361-1.017 9.276m20.2-35.726c-1.372 5.526-9.597 8.46-15.378 7.433 1.91-.785 9.614-5.959 11.431-10.946 3.29-9.024 5.182-21.625 5.182-21.625s.496 18.173-1.235 25.139M134.9 19.205s1.56-4.632 9.966-10.166c2.33-1.536 9.067-2.495 17.222 3.526a12.89 12.89 0 0 1 1.562 1.226l.029.022a.011.011 0 0 1-.008-.003c.117.109.237.216.353.331.353.352.313.757.063 1.046.046.517-2.488.98-2.968.953-3.592-.196-8.227-1.414-12.551.42 4.726-6.867-12.345.863-13.668 2.645M103.138 75.76C91.845 89.269 87.77 108.655 87.77 108.655s-1.071-17.428 6.706-32.38c3.166-6.086 8.662-13.877 8.662-13.877s3.772 2.523 14.112 7.57c-3.969-.234-7.87-1.672-14.112 5.794M119.6 68.19c-5.81-2.79-6.062-13.212-2.697-19.89.176 2.44 3.19 12.709 8.217 15.92 9.096 5.809 22.82 10.699 22.82 10.699s-21.011-3.209-28.34-6.728m58.824-29.903c3.029-1.877 5.002-2.59 6.818-1.845-.058.151-.1.757-.233 1.377-2.049.234-5.437 3.663-5.937 6.355-.722-2.276-.722-3.6-.648-5.887" fill="#D3D4D2"/><path d="M173.322 189.18l-1.934-2.663-6.358-2.768-.278-3.189 8.57 4.135s-6.933-3.91-8.85-5.256c0 0-1.634-3.528-2.191-4.976 1.212-8.761 10.434-31.467 10.294-40.578-6.008 5.534-13.11 13.66-17.238 17.28-2.06 7.223-4.333 12.008-5.628 18.205l3.307-1.286c-1.397 3.435-2.697 8.982-3.563 12.265 1.094-.42 3.073-1.4 3.073-1.4-.838 5.22-3.073 14.576-3.073 14.576l10.327.55c.598-.865 1.063-1.74 2.317-4.054l.233-2.757s-3.322-3.41-3.307-3.41c1.147-.023 4.703 2.756 4.703 2.756l-.535 6.915 3.516.55 1.809-4.054.24-2.43-3.213-2.289 4.517 1.916.489 6.518 1.585.339 1.7-4.005-.512-5.375v4.485" fill="#182744"/><path fill="#182744" d="M162 148.463l9.926-11.4-10.282 37.54-1.482.705L162 148.463M42.923 94.73c2.305-.864 6.566-2.43 6.566-2.43s-6.985.444-9.29 1.075c1.695.34 2.165.7 2.724 1.356m56.316 100.184l1.282 1.322.75-.738-1.016-3.156-1.016 2.572m-8.967.584l.75.738 1.283-1.322-1.016-2.572-1.017 3.156m-18.012-1.663l1.669.596-.652-3.168zm-4.818 1.012l1.283 1.323.75-.738-1.016-3.156-1.017 2.571m-5.962.489l1.283 1.323.751-.74-1.017-3.154-1.016 2.571m-30.985-.802l1.669.596-.652-3.168zm-6.24.489l1.282 1.322.751-.739-1.016-3.155-1.017 2.572m-9.156.05l.572.886 1.54-1.01-.432-2.732-1.68 2.856m93.496-2.469s-1.281 2.887-1.017 2.728l1.5.344c.237-.802-.483-3.072-.483-3.072M173.181 79.87l-10.256 15.02.005.007c2.92-3.627 6.61-9.188 10.251-15.027m-10.256 15.02c-.044-.05-.083-.11-.127-.16a22.305 22.305 0 0 0-.987-1.01c.423.553.768.997 1.03 1.29l.084-.12"/><path d="M163.044 94.752c-.002-.005-.007-.01-.013-.016l-.19.274c.067-.079.138-.175.203-.258m13.704-80.146a111.93 111.93 0 0 0-1.935-.975c.09.055.187.106.277.162.423.263 1.082.544 1.658.813m.721.344a2.36 2.36 0 0 1-.068-.037c.023.015.04.027.064.04l.004-.004M159.7 25.121c-.025.014-.053.026-.077.04.134-.187.269-.351.403-.524-.21.239-.41.46-.63.661.09-.058.204-.118.304-.177m-1.092-2.435c-.02.029-.034.061-.053.09.217-.305.434-.608.659-.884a7.646 7.646 0 0 0-.606.794m8.209-5.656c-.615.086-1.213.346-1.802.671.48-.212.942-.34 1.383-.394.144-.095.284-.189.42-.277m-6.054 6.75c1.116-1.04 2.618-2.134 4.211-3.05-1.664.896-3.07 1.936-4.21 3.05m.678-2.381a9.053 9.053 0 0 0-1.338 2.175c.449-.843.896-1.557 1.338-2.175m14.53-2.045c-.021-.009-.045-.014-.064-.021.035.014.082.04.123.059-.018-.01-.046-.032-.059-.038m-15.841 4.156c-.045.104-.095.213-.138.315.046-.1.091-.22.138-.315m15.915 1.446c-1.19-.582-2.505-.76-3.824-.59-.033.08-.088.144-.126.22.08-.065.16-.126.24-.194 1.453-.13 2.677.09 3.71.564m.523.054c.158.039.312.082.468.127-.156-.045-.313-.086-.469-.127m3.582 7.111l.01-.027-.011.027h.001m6.11 2.771l.011.027-.01-.027m-.096-4.347a46.071 46.071 0 0 0-1.888-2.314l.35.42c.508.612 1.023 1.243 1.538 1.894" fill="#182744"/><path d="M184.278 28.231c.645.754 1.28 1.504 1.888 2.314l.307.393c-.034-.048-.062-.1-.095-.149l-.03-.042c-.065-.094-.134-.184-.2-.276-.762-1.024-1.579-1.936-2.39-2.902.12.165.235.318.335.439l.185.223m2.559 2.902c-.066-.071-.126-.147-.193-.219-.16-.148-.318-.297-.478-.442.225.217.452.433.67.661m.298.555c.18.225.367.44.542.672-.172-.23-.363-.446-.542-.672m-5.974-7.7c-.049-.074-.1-.146-.147-.222-1.307-1.704-3.65-2.52-2.88-.998.012.022.033.041.046.063-.667-1.444 1.71-.58 2.98 1.157" fill="#182744"/><path d="M184.278 28.231l-.185-.223a9.448 9.448 0 0 1-.335-.439c-.736-.878-1.47-1.801-2.153-2.898.842 1.376 1.76 2.49 2.673 3.56m-81.771 142.577c.544-.119.87-.292 1.558-.67l-1.558.67" fill="#182744"/><path d="M149.63 21.965c0-.42.086-.819.216-1.196-.695.42-1.26 1.003-1.907 2.053.544 1.682 2.694 2.962 4.714 2.754a3.667 3.667 0 0 1-3.023-3.611" fill="#FFF"/><path d="M195.441 50.249c-.255-5.548-2.977-13.729-4.943-17.042-1.592-2.684-3.277-4.615-4.89-6.565-1.413-1.71-4.756-6.748-4.802-7.61-.058-1.07.828-3.566.828-3.566s-2.688-2.034-5.073-3.47c-5.497-3.308-12.893-4.827-19.389-5.247-2.026-1.297-3.82-1.878-5.728-2.348-1.354-.334-3.121-.192-4.826-.192-1.134 0-2.26.069-3.35.135-1.097.067-2.133.13-3.181.13-1.44 0-2.627-.123-3.734-.387a47.14 47.14 0 0 1-2.29-.625c-1.622-.471-9.34-2.04-9.34-2.04s-3.641 5.14-4.984 6.496c-.91.918-1.77 1.786-2.668 2.486-.545.425-1.199.823-1.892 1.244-1.574.957-5.707 2.577-8.082 3.465 1.537 3.485 3.92 6.74 5.477 8.438.71.775 1.404 2.162 2.033 2.962.898 1.143 1.804 3.224 1.804 3.224s-1.468 2.826-3.154 5.124c-.869 1.183-1.772 2.308-2.646 3.395-2.691 3.348-5.232 6.51-6.684 11.093-1.676 5.29-2.8 7.994-6.524 11.681-1.71 1.694-3.157 3.303-4.556 4.86-3.11 3.46-5.794 6.449-10.207 9.02-5.669 3.305-11.52 6.533-17.18 9.653-1.87 1.032-3.742 2.064-5.61 3.1-3.552 1.971-4.443 2.073-8.063 2.226l-.086.004c-3.824.162-9.925 1.094-14.087 2.781 0 0-.82 5.827-1.299 8.341-.173.907-.336 1.763-.562 2.56-.525 1.848-1.527 3.283-2.688 4.947-.959 1.374-1.95 2.794-2.78 4.602-1.844 4.013-2.933 6.845-3.674 11.303-.284 1.71-.552 3.327-.876 4.883-.512 2.46-.996 6.786-1.423 9.487-.92 5.813-1.468 11.824-3.552 16.738-.655 1.545-2.022 3.232-3.467 5.017-1.83 2.257-3.71 4.013-4.514 6.519l-3.094 12.463c-.12.522-.484 1.618-.869 2.776-2.062 6.202-3.053 16.678-3.053 16.678h29.201s-.306-11.118-1.649-14.585c-.518-1.338-1.054-2.721-1.32-4.093-1.282-6.571 1.36-9.635 8.078-13.852 9.837-6.175 13.575-13.528 15.306-24.536 1.727 1.744 2.483 3.5 2.839 5.359.449 2.347.148 5.152-.655 7.685-.591 1.864-1.552 3.654-2.57 5.55-1.246 2.322-2.535 4.723-3.164 7.382-.66 2.787-2.755 5.926-2.836 8.885-.042 1.55-.082 3.014-.201 4.399-.044.504-.247 1.613-.463 2.785-1.192 6.48-1.474 15.143-1.474 15.143h29.069s-.24-11.96-2.6-17.745c-.922-2.265-.893-4.551-1.07-5.944-.781-6.137 2.351-10.006 7.25-14.122.266 4.37 2.79 10.113 3.064 13.16.38 4.214-2.62 11.343-2.62 11.343l-.658 13.193h7.268s25.604.153 25.654 0c.039-.09-.224-8.895-.224-8.895-.167-.437-1.588-4.132-1.721-4.514-1.093-3.123-1.954-3.629-2.013-7.033-.022-1.266-.21-2.529-.393-3.749-.222-1.487-.432-2.894-.325-4.155.07-.814 1.365-7.547 1.365-7.547s5.64-1.23 8.239-1.36c1.306-.066 23.34-5.081 29.03-6.177.055 3.229-.18 1.543-.052 4.695.14 3.443.283 8.931.324 12.415.025 2.166-2.245 14.17-2.245 14.17s1.8.534 2.54.534h.07c.146 2.177-.475 11.46-.475 11.46h31.472c.335-6.795-2.899-16.107-2.899-16.107s-6.408-4.112-7.005-5.66c-.472-2.086-1.49-3.476-1.333-5.484 1.538-5.746 3.583-11.175 6.695-18.123.272-.607.597-1.183.8-1.791 1.52-4.554 2.633-10.934 3.296-18.151.521-5.673 1.622-10.743 2.733-16.239 1.461-7.228 1.726-9.47 3.247-18.864-.365-4.19-1.098-7.715-2.17-11.773-1.05-3.97-3.15-12.955-3.446-14.223a598.63 598.63 0 0 0 2.65-4.478c1.376-1.825 3.208-3.755 5.333-4.748 3.28-1.531 8.874-4.726 8.874-4.726 1.027-3.014 1.016-4.883.862-8.223" fill="#192743"/><path d="M49.49 92.3s-4.262 1.566-6.567 2.43c-.56-.654-1.03-1.016-2.725-1.355 2.306-.631 9.291-1.074 9.291-1.074M15.672 195.96l-.572-.886 1.68-2.856.431 2.733-1.54 1.009m9.867.386l-1.282-1.322 1.017-2.572 1.016 3.155-.75.739m6.626-1.215l-1.669-.596 1.017-2.572zm30.598 1.529l-1.282-1.323 1.016-2.57 1.017 3.153-.75.74m5.961-.49l-1.283-1.322 1.017-2.57 1.016 3.155-.75.738m5.204-1.739l-1.669-.596 1.017-2.572z" fill="#C9D0D2"/><path d="M72.707 189.943l-1.386 3.923-1.577.058-1.776-4.544-1.59 4.877-2.29.139-1.895-5.576-1.303 5.893-11.568-1.782s3.005-8.008 3.884-10.046c1.806-4.19 13.484-11.602 17.63-16.383-.376 4.021-5.566 8.405-5.336 10.216.188 1.478 5.115 3.774 5.821 6.308.73 2.619 1.386 6.917 1.386 6.917m18.315 6.294l-.75-.738 1.017-3.156 1.016 2.572-1.283 1.322m9.499 0l-1.282-1.322 1.016-2.572 1.016 3.156-.75.738m8.559-.56l-1.501-.344c-.264.159 1.017-2.728 1.017-2.728s.72 2.27.483 3.072m53.553-.244l-1.28-.293c-.224.135.92-2.424.92-2.424s.562 2.034.36 2.717m7.371.647l-2.02-.292c-.333.238 1.054-3.719 1.054-3.719.076.258 1.272 3.186.966 4.011m4.855-.469l-1.5-.344c-.263.16 1.017-2.728 1.017-2.728s.72 2.27.483 3.072" fill="#C9D0D2"/><path d="M162.28 174.463c.558 1.448 2.192 4.976 2.192 4.976 1.917 1.345 8.85 5.256 8.85 5.256l.512 5.375-1.7 4.005-1.585-.34-.489-6.517-4.517-1.916 3.213 2.29-.24 2.43-1.809 4.053-3.516-.55.535-6.915s-3.556-2.779-4.703-2.757c-.015.001 3.307 3.411 3.307 3.411l-.233 2.757c-1.254 2.314-1.719 3.189-2.317 4.054l-10.327-.55s2.235-9.355 3.073-14.577c0 0-1.979.98-3.073 1.401.866-3.283 2.166-8.83 3.563-12.265l-3.307 1.286c1.295-6.197 3.568-10.982 5.628-18.204 4.129-3.62 11.23-11.747 17.238-17.281.14 9.11-9.082 31.817-10.294 40.578m21.515-120.85c-.476.644-11.014 16.353-33.67 17.288 2.855 2.763 6.069 4.532 8.316 5.814-3.4.61-13.24-1.492-18.979-1.983 13.288 6.92 19.614 15.413 22.348 18.988.35.338.681.675.987 1.01.044.05.083.11.127.16l10.256-15.02c.838 1.965 4.049 12.92 5.211 16.87-1.09 10.242-7.484 26.629-21.422 35.546.852-1.232 2.494-4.744 1.774-8.774-9.291 9.999-25.428 15.232-37 18.14-.366.045 13.232-19.262 14.926-26.83-8.756 5.793-20.896 11.186-21.098 11.213-2.905.395-9.252 21.44-12.015 29.577-1.067 3.144-1.83 11.314-3.3 15.378 1.165-.074 1.785-.115 2.25-.182l1.558-.439c-.218 2.572-7.468 11.041-7.468 11.041l8.29.56 3.154 4.9.577 4.293-2.608 3.75c-1.099-.105-4.284-.291-4.284-.291l-1.471-8.352v4.625l-2.167 4.019H93.43l-1.165-9.626-1.606 5.537-1.979 4.089-6.753-.773.892-7.755s3.475-6.711 3.067-11.237c-.763-8.447.143-49.377-.073-57.859l-8.801 21.092c-2.745.948-30.877-17.674-30.877-17.674.559 13.177 9.221 40.79-17.324 43.033l-2.701 18.893 3.749 2.056s1.256 3.994 1.33 5.815l-1.83 3.623-2.66.52-1.893-6.968-1.584 7.383-5.448-.423-.839-4.052-2.276 3.811-6.3-.489c.457-2.696 3.662-8.027 4.176-10.272.954-4.17 2.234-9.314 2.234-9.314s8.471-13.322 8.453-13.175c0 0 1.594.618 3.948.35-6.212-15.56 3.482-18.274 5.114-26.12 1.178-5.661-.736-13.862 1.696-19.156 1.766-3.844 10.545-19.401 14.298-21.213 2.537-1.144 4.689-1.636 4.689-1.636 3.981-.928 27.098-10.64 30.91-12.755-.186 3.738-.226 9.333 3.426 14.391 4.517-16.913 11.345-30.051 16.851-35.5 2.59 2.93 8.484 3.765 8.484 3.765-2.794-7.71.014-19.116 3.493-23.857.268-.366.553-.768.843-1.197 1.9 7.145 7.097 20.815 19.695 25.054-14.903-11.438-13.32-33.024-7.266-41.31-1.692.921-3.418 2.827-5.388 3.602 2.314-8.128 5.754-15.368 5.202-14.94-3.37 2.612-7.26 9.954-9.942 15.678-.758-.856-1.78-1.93-2.026-2.245-2.51-3.192-4.472-7.64-4.472-7.64l4.192-1.751-.21 4.321c2.343-1.826 11.287-14.214 11.845-14.399 0 0 3.68.307 7.359 1.132 1.37.307 1.45 3.69-.132 7.894 3.362-3.387 12.107-8.223 18.039-5.98 1.408.532 3.086 1.237 4.453 1.776 2.818-.414 10.906.861 16.489 4.218.768.377 1.419.71 1.935.975a9.304 9.304 0 0 1 .682.345l-.001.002c.166.097.307.19.385.276 0 0-.582 1.472-.582 2.172-.659.363-2.595.088-3.627-.268-2.792-1.033-12.905-6.108-12.905-6.108l2.864 2.242c3.306 2.266-1.032 4.541-9.032 4.088-6.593-.374-10.97 5.187-11.296 12.055 1.517-1.943 1.318-2.3 2.343-3.28.822 1.035 3.962 1.5 5.206 1.785-.731 1.822-2.66 5.63-2.31 10.758.847-2.438 1.711-4.15 2.327-5.586 3.191-7.447 3.647-1.363 3.959.672h-.001c.723-4.918 2.124-8.466 3.795-10.983.018-.029.031-.061.05-.09a7.59 7.59 0 0 1 .567-.794c1.857-2.432 3.968-3.695 5.843-4.19.589-.195 1.187-.35 1.802-.401l-.42.165c.16-.011.321-.027.473-.027-2.79 1.385-4.415 2.738-5.427 3.96a19.443 19.443 0 0 0-1.338 2.175l-.05.113c-.021.042-.04.094-.061.138-.121.29-.224.562-.322.813-.059.173-.118.336-.176.523l.033-.04c.315-.421.734-.875 1.235-1.341 1.14-1.114 2.547-2.154 4.211-3.05 1.405-.806 2.875-1.473 4.2-1.833 2.803-.761 5.256-.128 6.698.45l.036.019c.008.003.018.005.028.01l.026.016c.259.124.696.387.78.533.1.174.1.529-.296.425l-.036-.007c-1.306-.309-4.051-.687-7.375.436 2.188 5.22-6.287 2.538-6.939 12.98 1.95-7.457 6.358-7.657 10-8.966.038-.033.093-.062.126-.096 1.319-.076 2.634.003 3.824.259.183.036.351.08.522.125.068.018.137.036.206.056 4.062 1.146 4.53 4.33 3.38 6.972l-.005.012-.001.002c-1.593.727-2.951 1.954-3.894 2.613-2.748 8.037-.514 22.965-14.009 25.325-10.699 1.87-18.87-.818-25.576-4.112 2.013 4.074 6.145 7.986 8.105 9.812 2.556.826 11.092.48 13.596.187 7.195-.841 17.41-7.377 17.976-14.952.488-6.527 1.118-14.844 1.118-14.844s2.616-1.706 5.216-2.393c.206-.054 3.493.931 3.493.931s.034.08.087.217l.005.012c.323.834 1.386 3.876 1.028 6.929-.334 2.83-1.353 8.868-3.498 11.765" fill="#C9D0D2"/><path d="M190.74 55.424c-1.05.48-2.568 1.383-4.19 1.768.802-1.427 1.263-2.26 1.27-2.27 2.219-4.113 2.36-14.345-.762-20.933 0 0-2.227-1.487-3.602-2.143a.108.108 0 0 0-.056-.043c-1.124-2.487-.44-5.664-3.48-6.954-.688-.332-1.267-1.13-1.712-1.948-.013-.026-.017-.045-.03-.07-.012-.022-.033-.041-.045-.063-.77-1.522 1.573-.706 2.88.998.047.076.098.148.146.222.092.125.178.255.257.39.06.104.127.191.189.293.683 1.097 1.417 2.02 2.153 2.898.811.966 1.628 1.878 2.39 2.902.066.092.135.182.2.276l.03.042c.033.048.061.101.095.15.043.063.082.13.124.194.185.266.36.554.537.84.078.13.162.254.237.387.303.526.595 1.08.859 1.701 1.677 3.943 3.683 8.675 3.8 12.932.146 5.312-.45 6.723-1.29 8.43" fill="#C9D0D2"/><path d="M178.424 38.288c-.074 2.286-.074 3.61.648 5.887.5-2.692 3.888-6.121 5.937-6.355.133-.62.175-1.226.233-1.377-1.816-.746-3.79-.032-6.818 1.845" fill="#182744"/><path d="M154.372 20.78a.504.504 0 0 0 0-1.008.503.503 0 1 0 0 1.007" fill="#FFF"/><path d="M153.294 54.968c-.838-.608-3.11-3.456-1.63-8.83.845-3.066 3.573-6.925 3.097-10.82-1.467 6.264-2.828 5.651-5.704 10.352-1.573 2.57-2.98 6.448-1.955 8.036.872.626 4.236 1.322 6.192 1.262" fill="#182744"/><path fill="#FFF" d="M107.542 187.08v4.062l-1.432-1.612-1.502-6.905 2.934 4.454m-7.916-.167v4.063l-1.433-1.612-1.502-6.906 2.935 4.455m53.027-161.336c-2.02.208-4.17-1.072-4.714-2.754.647-1.05 1.212-1.633 1.907-2.053-.13.377-.216.775-.216 1.196a3.667 3.667 0 0 0 3.023 3.61M40.51 149.027c-1.818 4.987-9.522 10.161-11.432 10.946 5.78 1.027 14.006-1.907 15.378-7.432 1.73-6.966 1.235-25.139 1.235-25.139s-1.892 12.601-5.182 21.625m119.653 26.281l1.482-.706 10.282-37.54-9.926 11.4-1.838 26.846m-58.258-17.2l10.549-32.217-12.922 7.994-5.169 47.432 9.703-10.948c-.689.248-1.014.361-1.558.44l-2.65.746 2.047-13.447m71.277-78.238c-3.642 5.84-7.33 11.4-10.25 15.027-.03.036-.06.078-.09.113-.262-.293-.607-.737-1.03-1.29-9.875-9.568-36.691-20.202-36.691-20.202s20.348 17.03 24.333 34.202c2.202 9.49-8.957 21.72-11.527 24.763 9.731-3.318 24.508-15.95 28.844-19.777-.048 2.035-.35 4.007-1.04 5.76 8.735-6.315 12.662-21.727 12.662-21.727l-5.211-16.869m-78.705-3.596c-7.777 14.952-6.706 32.38-6.706 32.38s4.075-19.386 15.368-32.893c6.242-7.466 10.143-6.028 14.112-5.795-10.34-5.046-14.112-7.569-14.112-7.569s-5.496 7.791-8.662 13.877"/><path fill="#FFF" d="M107.542 191.142v-4.063l-2.934-4.454 1.502 6.905 1.432 1.612m-7.916-.167v-4.063l-2.935-4.455 1.502 6.906 1.433 1.612m-10.787-2.129l1.433 1.611 1.994-5.169-.977-3.347-2.45 6.905m-17.56 3.92l-.451-1.977-5.375-12.716 4.055 3.632a5.4 5.4 0 0 1 1.589 2.543l1.163 4.09-.981 4.428m90.365-5.478v2.663l-1.434-1.611-2.934-5.537 4.368 4.485m6.287 0v2.663l-1.434-1.611-5.658-5.047 7.092 3.995m-2.901-3.538l6.358 2.767 1.934 2.663v-4.485l-8.57-4.135.278 3.19"/><path fill="#FFF" d="M166.497 188.34l1.434 1.61v-2.662l-7.092-3.995 5.658 5.047m-6.287 0l1.434 1.61v-2.662l-4.368-4.485 2.934 5.537M116.903 48.3c-3.365 6.678-3.114 17.1 2.698 19.89 7.328 3.52 28.338 6.729 28.338 6.729s-13.723-4.89-22.82-10.7c-5.026-3.21-8.04-13.478-8.216-15.92M30.496 190.016l-2.103-4.392-.602 6.479 1.433 1.611 1.272-3.698m-7.592 3.014l1.352-4.764 1.017-9.276-3.722 11.361 1.353 2.68M148.568 16.56c4.324-1.834 8.96-.616 12.55-.42.48.026 3.015-.436 2.97-.953.25-.289.29-.694-.064-1.046-.116-.115-.236-.222-.353-.331.002.002.005.002.008.003l-.029-.022a12.89 12.89 0 0 0-1.562-1.226c-8.155-6.021-14.891-5.062-17.222-3.526-8.405 5.534-9.966 10.166-9.966 10.166 1.323-1.782 18.394-9.512 13.668-2.644m20.487 9.545c-3.109 1.52-4.864 3.977-5.844 6.455 1.817-.904 2.83-1.133 3.329-.965-1.37 1.552-1.649 4.556-1.649 4.556 5.45-4.612 5.909 6.837 7.891 9.845.719-6.583.882-7.99 3.091-11.631.022-.037.039-.071.06-.106 1.145-.686 1.79-1.659 4.217-2.139l.004-.012c1.423-3.984-.456-6.11-3.38-6.972a9.739 9.739 0 0 0-.728-.181c-1.032-.209-2.256-.306-3.71-.248-.078.03-.16.056-.24.085-.216.184-.503.347-.87.502a9.798 9.798 0 0 0-2.17.81"/><path d="M177.698 36.372l5.449-.794 2.373.425-.278 2.348s-.699.45-4.005 4.843c-1.147 1.524-1.282 3.646-.877 5.46 3.107 1.128 3.531 1.057 3.107 4.352.66-.213 1.28-1.773 1.775-3.418 1.063-3.528 1.835-6.751 1.845-9.056.014-3.384-.797-5.548-.82-5.613l-.006-.012-3.487-.778-5.076 2.243m-58.26-11.523s7.358-15.81 10.898-15.81l-.048 2.63c-.03 1.667-1.443 8.607-1.443 8.607l6.055-6.079c.77-1.033 1.87-4.24 1.745-5.523l-.096-.989a2.255 2.255 0 0 0-1.97-2.024l-5.974-1.07-9.742 13.718.575 6.54m39.361 3.256c-.459 1.214-.964 3.435-.964 3.435 1.747-2.925 6.462-7.44 10.782-8.811 1.024-.326-.13-1.979.04-2.035 2.987-.983 5.112-1.05 7.69-.455.727.168-.137-.71-.384-.847-.018-.008-.039-.02-.054-.026-2.737-1.168-6.064-.619-7.411-.166-1.284.432-2.45.955-3.523 1.53-1.593.916-3.095 2.01-4.21 3.05-.45.439-.87.886-1.236 1.342-.044.058-.094.119-.133.176.097-.2.184-.421.276-.66.105-.303.213-.574.322-.813l.06-.138c.017-.033.032-.08.05-.111l.001-.002a9.053 9.053 0 0 1 1.338-2.175c1.849-2.587 3.597-3.392 4.955-3.933-.44.032-.903.108-1.383.235-2.51.83-4.696 2.751-5.843 4.191-.21.276-.414.579-.617.884-1.009 1.708-1.761 3.718-2.316 5.825 1.163-2.414 3.082-1.876 2.56-.496" fill="#FFF"/><path d="M184.627 28.65l-.349-.419c-.914-1.07-1.83-2.184-2.673-3.56l-.014-.022c-.15-.217-.29-.439-.432-.66-1.27-1.738-3.647-2.602-2.98-1.158.463.792 1.457 1.515 2.127 1.838 3.04 1.29 2.555 4.076 3.679 6.563.031.013 3.354 2.15 3.354 2.15 3.12 6.588 4.763 18.79 4.617 13.478-.118-4.256-2.124-8.988-3.8-12.931a15.472 15.472 0 0 0-.785-1.57c-.076-.133-.158-.257-.237-.386a20.055 20.055 0 0 0-.537-.84c-.14-.203-.286-.396-.431-.588-.515-.65-1.03-1.282-1.539-1.894M158.604 9.587c2.48.736 5.24 2.068 9.408 4.073 2.75 1.321 6.517 3.343 8.37 3.286l1.047-1.993-.028-.018c-.19-.092-.41-.204-.653-.329-.576-.269-1.235-.55-1.658-.813-.09-.056-.186-.107-.277-.162a61.367 61.367 0 0 0-5.952-2.544c-4.18-1.535-8.72-1.89-10.257-1.5" fill="#FFF"/></g></svg>