<?xml version="1.0" encoding="UTF-8"?>
<svg width="200px" height="200px" viewBox="0 0 200 200" version="1.1" xmlns="http://www.w3.org/2000/svg" xmlns:xlink="http://www.w3.org/1999/xlink">
    <!-- Generator: Sketch 51.3 (57544) - http://www.bohemiancoding.com/sketch -->
    <title>samford</title>
    <desc>Created with Sketch.</desc>
    <defs></defs>
    <g id="samford" stroke="none" stroke-width="1" fill="none" fill-rule="evenodd">
        <g id="samford_BGL" transform="translate(2.000000, 0.000000)">
            <g id="samford" transform="translate(2.940000, -0.492611)">
                <g id="g10" transform="translate(95.550000, 100.618539) scale(-1, 1) rotate(-180.000000) translate(-95.550000, -100.618539) translate(0.000000, 0.787064)" fill-rule="nonzero">
                    <g id="g12">
                        <path d="M171.106668,175.161182 C171.33028,175.075288 171.549936,174.982235 171.765633,174.876656 C171.549936,174.976867 171.338196,175.078867 171.106668,175.161182" id="path20" fill="#182744"></path>
                        <path d="M175.214219,167.848155 C176.36584,170.489549 175.896719,173.674806 171.834668,174.820774 C174.758435,173.958937 176.637271,171.832284 175.214219,167.848155" id="path22" fill="#182744"></path>
                        <path d="M170.968599,180.591543 C170.9584,180.596266 170.941926,180.605711 170.933297,180.609646 C169.491418,181.18814 167.037556,181.821728 164.235383,181.060635 C162.910392,180.700159 161.440271,180.033514 160.035263,179.226771 C161.107651,179.802903 162.274176,180.325515 163.55759,180.757614 C164.905332,181.210177 168.232323,181.75955 170.968599,180.591543" id="path24" fill="#182744"></path>
                        <path d="M155.403212,176.132027 C155.175709,175.893545 154.951479,175.622795 154.732159,175.318987 C154.936749,175.570848 155.151158,175.842386 155.403212,176.132027" id="path26" fill="#182744"></path>
                        <path d="M171.807995,185.692992 C172.052731,185.43934 172.276082,185.211375 172.466961,185.021939 C172.278459,185.238666 172.051939,185.463421 171.807995,185.692992" id="path28" fill="#182744"></path>
                        <path d="M156.502737,178.558552 C157.51472,179.780865 159.139383,181.133045 161.929788,182.518281 C161.778383,182.518281 161.61678,182.50254 161.45753,182.491521 C160.100375,181.95002 158.351763,181.145638 156.502737,178.558552" id="path30" fill="#182744"></path>
                        <path d="M160.075271,182.256188 C158.199573,181.760337 156.08853,180.497883 154.231659,178.065061 C155.379358,179.505392 157.565711,181.425834 160.075271,182.256188" id="path32" fill="#182744"></path>
                        <path d="M155.114202,176.27055 C155.151781,176.354655 155.19115,176.44234 155.230518,176.528234 C155.228729,176.526445 155.226939,176.524655 155.226939,176.524655 C155.187571,176.451287 155.153571,176.345708 155.114202,176.27055" id="path34" fill="#182744"></path>
                        <path d="M155.824159,176.177676 C155.322875,175.710946 154.903961,175.257596 154.589384,174.835729 C154.954952,175.29144 155.374651,175.738493 155.824159,176.177676" id="path36" fill="#182744"></path>
                        <path d="M181.657176,168.824117 C181.884538,168.549431 182.104193,168.270023 182.316141,167.984318 C182.099376,168.27081 181.884538,168.558089 181.657176,168.824117" id="path38" fill="#182744"></path>
                        <path d="M176.890194,175.286717 C176.796861,175.388249 176.697621,175.475613 176.605469,175.580293 C176.487326,175.714094 176.357369,175.84396 176.219142,175.969104 C176.431799,175.747151 176.644457,175.525199 176.868928,175.308755 C176.874836,175.300885 176.883106,175.294588 176.890194,175.286717" id="path40" fill="#182744"></path>
                        <path d="M168.240952,120.087406 L173.452271,103.218217 C172.289668,107.166928 169.07878,118.122889 168.240952,120.087406" id="path42" fill="#182744"></path>
                        <path d="M157.331935,7.24116444 C157.331935,7.24116444 156.188159,4.68225491 156.412521,4.81692194 L157.692013,4.52484168 C157.893625,5.20738546 157.331935,7.24116444 157.331935,7.24116444" id="path44" fill="#C7CBDD"></path>
                        <path d="M169.434935,7.41825433 C169.434935,7.41825433 168.154659,4.5309808 168.417461,4.69020428 L169.918176,4.34617766 C170.154306,5.1483555 169.434935,7.41825433 169.434935,7.41825433" id="path46" fill="#C7CBDD"></path>
                        <path d="M164.09653,7.88797542 C164.09653,7.88797542 162.710349,3.9314725 163.042185,4.16971743 L165.063013,3.87700752 C165.368961,4.70193157 164.173409,7.63068349 164.09653,7.88797542" id="path48" fill="#C7CBDD"></path>
                        <path d="M187.089719,152.963947 C186.972831,157.221188 184.966909,161.95303 183.289685,165.896231 C183.026098,166.517226 182.734271,167.071321 182.43146,167.597868 C182.717012,167.094933 182.982167,166.576256 183.215943,166.028458 C184.892383,162.085257 186.898305,157.353415 187.015978,153.096961 C187.161891,147.785051 185.5184,159.987725 182.398512,166.576256 C182.398512,166.576256 179.076228,168.712354 179.044848,168.724947 C177.920685,171.212076 178.406279,173.99829 175.365624,175.288292 C174.695676,175.611776 173.701736,176.334303 173.238892,177.126878 C173.250659,177.101692 173.255366,177.082802 173.267918,177.056829 C173.712719,176.239068 174.292452,175.440195 174.980443,175.108841 C178.020314,173.818052 177.336245,170.641453 178.460409,168.154324 C178.491788,168.141731 178.505909,168.126777 178.516107,168.111035 C179.890521,167.455409 182.118452,165.968641 182.118452,165.968641 C185.239124,159.38011 185.098702,149.14825 182.8794,145.035829 C182.873124,145.025597 182.411848,144.192094 181.610107,142.765143 C183.232417,143.150806 184.750391,144.053571 185.800029,144.533681 C186.639426,146.241615 187.236417,147.652824 187.089719,152.963947" id="path50" fill="#182744"></path>
                        <path d="M66.3813598,16.9313657 C65.6753254,19.4657187 60.7479893,21.7615908 60.5597134,23.239701 C60.32986,25.0499532 65.5199978,29.4339118 65.8965495,33.4558199 C61.7497738,28.6743929 50.0715715,21.2625908 48.2656922,17.0722505 C47.3874638,15.0345362 44.3822673,7.02621667 44.3822673,7.02621667 L55.9497006,5.24484981 L57.2531187,11.1377716 L59.148429,5.56156524 L61.4375496,5.70079724 L63.0284806,10.5773805 L64.8037651,6.03380494 L66.3813598,6.09189042 L67.7667564,10.0146282 C67.7667564,10.0146282 67.1109288,14.3127965 66.3813598,16.9313657" id="path52" fill="#182744"></path>
                        <path d="M169.872676,186.326108 C167.141107,187.968715 163.811763,189.109961 160.793073,189.801792 C161.823099,189.559375 162.88372,189.251632 163.920806,188.869905 C166.424875,187.950612 168.382159,187.056505 169.872676,186.326108" id="path54" fill="#182744"></path>
                        <path d="M159.558297,190.384871 C159.950539,190.211292 160.349056,190.019818 160.755418,189.810449 C160.34984,190.026976 159.950539,190.214871 159.558297,190.384871" id="path56" fill="#182744"></path>
                        <path d="M181.326124,165.038329 C181.350443,164.973789 182.160814,162.809358 182.146693,159.424973 C182.137279,157.120443 181.365348,153.897407 180.302374,150.369777 C179.806581,148.724808 179.186055,147.164843 178.52709,146.951548 C178.951495,150.246207 178.52709,150.175371 175.419754,151.304024 C175.014961,153.117425 175.149892,155.239355 176.296805,156.763902 C179.6034,161.155732 180.302374,161.605933 180.302374,161.605933 L180.580081,163.954539 L178.207021,164.379555 L172.758004,163.585405 L177.833607,165.828543 L181.321417,165.050135 C181.268072,165.187084 181.233555,165.267365 181.233555,165.267365 C181.233555,165.267365 177.947357,166.252772 177.741038,166.198464 C175.141262,165.511356 172.525012,163.804996 172.525012,163.804996 C172.525012,163.804996 171.895073,155.488068 171.407124,148.960928 C170.840728,141.386203 160.625978,134.850406 153.431487,134.009032 C150.926634,133.716244 142.391461,133.369935 139.834832,134.196354 C137.875194,136.022348 133.743324,139.934066 131.729556,144.008708 C138.435315,140.714049 146.607272,138.026218 157.306047,139.896287 C170.800719,142.255912 168.566512,157.184196 171.314556,165.220928 C172.257504,165.88049 173.616228,167.107526 175.208728,167.833988 L175.208728,167.835562 C172.783892,167.356239 172.138262,166.383425 170.992918,165.69789 C170.971737,165.662472 170.955262,165.628629 170.933297,165.591636 C168.724193,161.949881 168.561021,160.543394 167.842435,153.960373 C165.860047,156.968539 165.40034,168.417204 159.951323,163.804996 C159.951323,163.804996 160.230599,166.809228 161.599521,168.361322 C161.101375,168.528967 160.087823,168.300718 158.270961,167.396379 C159.25078,169.874851 161.006452,172.332071 164.115357,173.851896 C164.796288,174.197418 165.519582,174.480762 166.286021,174.662574 C166.653159,174.817626 166.94028,174.980549 167.156797,175.164722 C163.515228,173.855831 159.10722,173.655129 157.156996,166.198464 C157.808901,176.640471 166.284452,173.95815 164.095745,179.177973 C167.419599,180.301116 170.165288,179.923324 171.470668,179.614794 C171.483219,179.612433 171.492633,179.610859 171.506754,179.607711 C171.903702,179.503818 171.903702,179.858785 171.803288,180.031939 C171.718564,180.178334 171.281607,180.441214 171.022728,180.56557 C171.26984,180.428621 172.133555,179.550255 171.407124,179.718687 C168.829314,180.313709 166.70415,180.246808 163.716056,179.262976 C163.546607,179.207094 164.701366,177.554255 163.676832,177.22841 C159.35747,175.858128 154.641944,171.341942 152.894901,168.417204 C152.894901,168.417204 153.400108,170.638305 153.85903,171.852748 C154.380711,173.232475 152.461866,173.770828 151.299263,171.356109 C151.853892,173.463085 152.606211,175.473252 153.615056,177.181186 C151.944108,174.664148 150.543022,171.116054 149.821297,166.198464 C149.821297,166.198464 149.822866,166.198464 149.820513,166.198464 C149.509073,168.233818 149.053289,174.317052 145.862013,166.870619 C145.246194,165.43501 144.381694,163.722354 143.535237,161.28481 C143.185358,166.412546 145.113617,170.220373 145.844754,172.042431 C144.600565,172.327349 141.461065,172.792505 140.638927,173.828284 C139.614393,172.846812 139.812867,172.490271 138.295677,170.547792 C138.621237,177.415731 142.999436,182.976354 149.592228,182.602498 C157.591599,182.149147 161.929788,184.424556 158.623978,186.690519 L155.759832,188.932871 C155.759832,188.932871 165.873383,183.857868 168.664573,182.82445 C169.696952,182.467909 171.633055,182.193223 172.292021,182.556061 C172.292021,183.256549 172.874107,184.728363 172.874107,184.728363 C172.795659,184.814941 172.655237,184.907814 172.488926,185.004623 L171.442426,183.010985 C169.589478,182.954316 165.821607,184.976289 163.071995,186.297773 C158.903254,188.302431 156.144228,189.634147 153.664478,190.370054 C154.664694,190.624276 156.939694,190.560524 159.558297,190.063098 C156.916944,190.577052 154.63253,190.728169 153.384418,190.544782 C152.017065,191.083135 150.339056,191.788347 148.93091,192.321191 C142.999436,194.563542 134.254022,189.727808 130.891729,186.340275 C132.474031,190.544782 132.394798,193.927593 131.023522,194.234548 C127.344298,195.059394 123.665074,195.36635 123.665074,195.36635 L129.63891,194.29594 C130.687763,194.168435 131.506763,193.326274 131.608746,192.272392 L131.705238,191.283837 C131.82997,190.000132 130.729341,186.793625 129.959763,185.760207 L123.905126,179.681695 C123.905126,179.681695 125.317979,186.621257 125.347789,188.289051 L125.395643,190.918639 C121.856057,190.918639 114.498393,175.108841 114.498393,175.108841 L113.922583,181.648573 L123.665074,195.36635 C123.107307,195.181389 114.162635,182.793755 111.820169,180.966974 L112.029626,185.288754 L107.838135,183.536745 C107.838135,183.536745 109.80091,179.089034 112.309686,175.897481 C112.556798,175.581867 113.578195,174.508309 114.336005,173.652768 C117.017367,179.376313 120.907617,186.718067 124.277755,189.330339 C124.830031,189.758503 121.390074,182.518281 119.07585,174.390249 C121.046471,175.165509 122.771548,177.070996 124.464462,177.992651 C118.409824,169.706418 116.826738,148.120342 131.729556,136.681909 C119.131548,140.921834 113.93435,154.5916 112.035117,161.736586 C111.744859,161.307635 111.460091,160.905444 111.191798,160.539459 C107.712617,155.798172 104.904954,144.392009 107.699281,136.681909 C107.699281,136.681909 101.804678,137.517773 99.2151004,140.448021 C93.7088161,134.998374 86.8814628,121.860666 82.3644112,104.947401 C78.7118595,110.005088 78.7518682,115.600342 78.9377906,119.338119 C75.1259889,117.223272 52.0091654,107.511663 48.0276017,106.583712 C48.0276017,106.583712 45.8763931,106.091795 43.338513,104.947401 C39.5858614,103.135575 30.8070288,87.5784249 29.0413151,83.7343938 C26.6091048,78.4405867 28.5225367,70.2393572 27.3445574,64.5779903 C25.7130686,56.7325147 16.0192154,54.0179235 22.2306713,38.4591995 C19.8772231,38.1900229 18.2831542,38.8086569 18.2831542,38.8086569 C18.3009619,38.9558383 9.83035264,25.6331692 9.83035264,25.6331692 C9.83035264,25.6331692 8.54976302,20.4889048 7.59551822,16.3190282 C7.08160357,14.0743155 3.87691314,8.74359505 3.41908901,6.04702765 L9.72036816,5.55818085 L11.9963095,9.3698636 L12.8346862,5.31741731 L18.2831542,4.89468407 L19.8668679,12.2774434 L21.7602954,5.31033372 L24.4196135,5.82901032 L26.2502824,9.45258425 C26.1755212,11.273147 24.9197212,15.2675078 24.9197212,15.2675078 L21.1707567,17.3233246 L23.8716523,36.2160609 C50.4172146,38.4591995 41.7547993,66.0726289 41.1958553,79.2489037 C41.1958553,79.2489037 69.327877,60.6269181 72.0727821,61.5753329 L80.873894,82.667132 C81.0896267,74.1849199 80.1843336,33.255118 80.9468509,24.8083239 C81.3547819,20.2826934 77.8803078,13.5713802 77.8803078,13.5713802 L76.988351,5.81641726 L83.7411784,5.04351829 L85.7196438,9.13224832 L87.3262645,14.6693375 L85.3321094,9.49996563 L83.8988594,11.1117984 L86.348799,18.0167299 L87.3262645,14.6693375 L88.4912214,5.04351829 L93.1479109,5.04351829 L95.3146522,9.06212073 L95.3146522,13.687866 L96.7863418,5.33559854 C96.7863418,5.33559854 99.9713418,5.14985092 101.069618,5.04351829 L103.678023,8.79467564 L103.100643,13.0873345 L99.9470228,17.9868214 L91.6573937,18.5472125 C91.6573937,18.5472125 98.9067987,27.0160445 99.1248849,29.5881767 L89.4224024,18.6408734 L94.5905747,66.0726289 L107.512574,74.06686 L96.9644194,41.8490935 L94.917704,28.402068 L97.5669022,29.1489938 C97.1024884,29.0828803 96.4819625,29.0411657 95.3162212,28.9671815 C96.7863418,33.0315912 97.5496436,41.201338 98.6173246,44.3456674 C101.380273,52.4823574 107.726738,73.5277197 110.632462,73.9228269 C110.834074,73.9495872 122.973945,79.3425645 131.729556,85.1361586 C130.035858,77.5669433 116.437634,58.2602102 116.803203,58.30586 C128.375893,61.2132824 144.512703,66.4464854 153.804116,76.445374 C154.524271,72.4155952 152.881565,68.9029189 152.029616,67.6711603 C165.968306,76.58862 172.361055,92.9753376 173.452271,103.218217 C173.452271,103.218217 169.52515,87.8066741 160.789151,81.4912552 C161.479495,83.2448386 161.782306,85.2164394 161.830159,87.2517925 C157.493539,83.4250768 142.717022,70.7926648 132.986298,67.4743938 C135.556263,70.5179787 146.714746,82.7481998 144.512703,92.2378566 C140.528315,109.410066 120.179617,126.439817 120.179617,126.439817 C120.179617,126.439817 146.996375,115.804979 156.871444,106.237403 C154.136737,109.812257 147.811453,118.306275 134.5231,125.225374 C140.262375,124.734245 150.101358,122.631991 153.50209,123.242754 C151.254547,124.524098 148.040522,126.293423 145.186573,129.056812 C167.842435,129.99106 178.379607,145.700113 178.855788,146.34472 C181.001348,149.241124 182.020391,155.278708 182.353797,158.109785 C182.712305,161.162028 181.648547,164.204826 181.326124,165.038329" id="path58" fill="#D3D4D2"></path>
                        <path d="M144.117323,154.287792 C146.993237,158.988151 148.35353,158.375814 149.821297,164.638499 C150.296694,160.744096 147.569047,156.885898 146.724944,153.820275 C145.243841,148.4454 147.515703,145.597007 148.35353,144.989392 C146.397815,144.929575 143.033953,145.625342 142.161608,146.251059 C141.136289,147.839359 142.544436,151.717234 144.117323,154.287792" id="path60" fill="#D3D4D2"></path>
                        <polyline id="path62" fill="#D3D4D2" points="23.4525032 14.3332603 25.5561721 9.94143105 24.2841333 6.24316454 22.8512756 7.85476122 23.4525032 14.3332603"></polyline>
                        <polyline id="path64" fill="#D3D4D2" points="19.3155334 11.6918662 17.9635559 6.92688892 16.6109507 9.60598345 20.3326153 20.967441 19.3155334 11.6918662"></polyline>
                        <path d="M39.5162778,47.4167996 C38.1443743,41.8915951 29.9189159,38.9574124 24.138298,39.9845337 C26.047729,40.7692387 33.7518986,45.9434117 35.5693882,50.9302629 C38.8586459,59.9539766 40.7506614,72.5549059 40.7506614,72.5549059 C40.7506614,72.5549059 41.2467682,54.3823352 39.5162778,47.4167996" id="path66" fill="#D3D4D2"></path>
                        <path d="M129.959763,180.752105 C129.959763,180.752105 131.520884,185.383989 139.925832,190.918639 C142.25653,192.454205 148.992884,193.413638 157.147582,187.392582 C157.688875,187.031319 158.212125,186.623619 158.710271,186.166333 C158.719685,186.158462 158.729099,186.151379 158.738513,186.144295 C158.736159,186.145082 158.733021,186.145869 158.730668,186.147444 C158.84834,186.038828 158.968366,185.931 159.083685,185.816089 C159.437487,185.46427 159.397478,185.058931 159.147228,184.770078 C159.192728,184.252975 156.658849,183.790967 156.178746,183.816941 C152.587384,184.01292 147.951875,185.231299 143.627806,183.396647 C148.35353,190.264587 131.283186,182.534023 129.959763,180.752105" id="path68" fill="#D3D4D2"></path>
                        <path d="M98.1984108,124.196678 C86.9049973,110.689049 82.8303939,91.3036091 82.8303939,91.3036091 C82.8303939,91.3036091 81.7587905,108.731615 89.5361524,123.683511 C92.7015402,129.769107 98.1984108,137.560275 98.1984108,137.560275 C98.1984108,137.560275 101.970204,135.036941 112.309686,129.99106 C108.340988,130.224818 104.439755,131.662788 98.1984108,124.196678" id="path70" fill="#D3D4D2"></path>
                        <path d="M114.660781,131.766681 C108.849333,134.557617 108.598298,144.979161 111.962945,151.658204 C112.139454,149.216725 115.153436,138.94866 120.179617,135.738217 C129.275694,129.928881 142.999436,125.038839 142.999436,125.038839 C142.999436,125.038839 121.988634,128.246921 114.660781,131.766681" id="path72" fill="#D3D4D2"></path>
                        <path d="M173.48365,161.669686 C176.512538,163.546051 178.485512,164.25992 180.302374,163.514569 C180.244323,163.363452 180.20196,162.757411 180.069383,162.137203 C178.020314,161.903444 174.632133,158.474197 174.132418,155.782431 C173.409909,158.058626 173.409909,159.383258 173.48365,161.669686" id="path74" fill="#D3D4D2"></path>
                        <path d="M168.382159,10.7772953 L166.447625,13.4407272 L160.090176,16.2080519 L159.811685,19.397244 L168.382159,15.2619983 C168.382159,15.2619983 161.448901,19.1729301 159.531625,20.5188133 C159.531625,20.5188133 157.898332,24.0464438 157.340564,25.4946456 C158.553375,34.2554791 167.774969,56.961551 167.634547,66.0726289 C161.626978,60.5379797 154.52584,52.4123085 150.397108,48.7918042 C148.337056,41.569685 146.063625,36.7843227 144.769229,30.5877508 L148.075823,31.8730298 C146.67866,28.4382731 145.378772,22.8910307 144.512703,19.6081777 C145.607056,20.0284711 147.586306,21.0091555 147.586306,21.0091555 C146.747694,15.7877585 144.512703,6.43190301 144.512703,6.43190301 L154.839633,5.88253082 C155.438194,6.74735913 155.902608,7.62265541 157.156996,9.93592159 L157.389987,12.6930144 C157.389987,12.6930144 154.068487,16.1033721 154.083392,16.1041591 C155.230306,16.126197 158.786366,13.3470664 158.786366,13.3470664 L158.251349,6.43190301 L161.767401,5.88253082 L163.575633,9.93592159 L163.816469,12.3655948 L160.603228,14.6551703 L165.12028,12.7394513 L165.609013,6.22159893 L167.193668,5.88253082 L168.894426,9.88704478 L168.382159,15.2619983 L168.382159,10.7772953" id="path76" fill="#182744"></path>
                        <polyline id="path78" fill="#182744" points="157.05972 51.4945894 166.98578 62.8952428 156.703564 25.3553349 155.221677 24.6493365 157.05972 51.4945894"></polyline>
                        <path d="M37.9825356,105.22681 C40.287895,106.091795 44.5492052,107.656483 44.5492052,107.656483 C44.5492052,107.656483 37.5637002,107.213365 35.2583408,106.582138 C36.9538433,106.242912 37.4239054,105.881649 37.9825356,105.22681" id="path80" fill="#182744"></path>
                        <polyline id="path82" fill="#182744" points="94.2987471 5.04194415 95.5813764 3.72053876 96.3313419 4.45872812 95.3146522 7.61407639 94.2987471 5.04194415"></polyline>
                        <polyline id="path84" fill="#182744" points="85.3321094 4.45872812 86.0820749 3.72053876 87.3654886 5.04194415 86.348799 7.61407639 85.3321094 4.45872812"></polyline>
                        <polygon id="path86" fill="#182744" points="67.3203857 6.12109058 68.9889805 5.52528149 68.3370753 8.69322281"></polygon>
                        <polyline id="path88" fill="#182744" points="62.5020927 5.10900219 63.784722 3.78665232 64.535472 4.52484168 63.5187823 7.68018995 62.5020927 5.10900219"></polyline>
                        <polyline id="path90" fill="#182744" points="56.5408084 4.62015539 57.8234376 3.29780552 58.5741876 4.03693936 57.557498 7.19134315 56.5408084 4.62015539"></polyline>
                        <polygon id="path92" fill="#182744" points="25.5561721 5.4219397 27.2247669 4.82613061 26.5726264 7.99438676"></polygon>
                        <polyline id="path94" fill="#182744" points="19.3155334 4.93340773 20.5983196 3.61168751 21.3490696 4.3501917 20.3326153 7.50553997 19.3155334 4.93340773"></polyline>
                        <polyline id="path96" fill="#182744" points="10.1603845 4.88303549 10.7315664 3.99758605 12.2714276 5.00660488 11.8396483 7.73921991 10.1603845 4.88303549"></polyline>
                        <path d="M103.656057,7.35277042 C103.656057,7.35277042 102.374997,4.46581172 102.638583,4.62472038 L104.139299,4.28069376 C104.376212,5.08224194 103.656057,7.35277042 103.656057,7.35277042" id="path98" fill="#182744"></path>
                        <path d="M168.240952,120.087406 L157.984625,105.067822 C157.986978,105.065461 157.989332,105.0631 157.990116,105.060739 C160.910745,108.68754 164.599383,114.248162 168.240952,120.087406" id="path100" fill="#182744"></path>
                        <path d="M157.984625,105.067822 C157.940694,105.118194 157.902254,105.178012 157.857539,105.22681 C157.552375,105.5621 157.220539,105.899751 156.871444,106.237403 C157.29428,105.684882 157.638668,105.24019 157.90147,104.947401 L157.984625,105.067822" id="path102" fill="#182744"></path>
                        <path d="M158.10368,105.205085 C158.101891,105.210454 158.096522,105.215822 158.091154,105.221191 L157.90147,104.947401 C157.96768,105.026138 158.039259,105.12277 158.10368,105.205085" id="path104" fill="#182744"></path>
                        <path d="M171.807995,185.350933 C171.291806,185.616174 170.641469,185.949103 169.872676,186.326108 C169.963676,186.2718 170.060168,186.220641 170.149599,186.164759 C170.573219,185.901879 171.232185,185.620109 171.807995,185.350933" id="path106" fill="#182744"></path>
                        <path d="M172.528685,185.008202 C172.507211,185.018939 172.480369,185.033255 172.460685,185.043992 C172.483948,185.029676 172.501843,185.01715 172.525106,185.004623 L172.528685,185.008202" id="path108" fill="#182744"></path>
                        <path d="M154.760232,174.836149 C154.735179,174.822737 154.706548,174.810114 154.683285,174.796702 C154.817495,174.983682 154.951706,175.147782 155.085916,175.320561 C154.876548,175.081511 154.676127,174.860607 154.456021,174.659426 C154.545495,174.717019 154.660021,174.777767 154.760232,174.836149" id="path110" fill="#182744"></path>
                        <path d="M153.667874,177.271698 C153.648591,177.242577 153.634339,177.210307 153.615056,177.181186 C153.832196,177.486567 154.049336,177.789588 154.274021,178.065061 C154.029215,177.777782 153.817944,177.506244 153.667874,177.271698" id="path112" fill="#182744"></path>
                        <path d="M161.877228,182.927241 C161.262194,182.841547 160.663633,182.581827 160.075271,182.256188 C160.555375,182.468447 161.017435,182.596329 161.45753,182.650382 C161.601875,182.745305 161.742297,182.83891 161.877228,182.927241" id="path114" fill="#182744"></path>
                        <path d="M155.824159,176.177676 C156.939694,177.216604 158.441978,178.311413 160.035263,179.226771 C158.371375,178.331089 156.964797,177.291375 155.824159,176.177676" id="path116" fill="#182744"></path>
                        <path d="M156.502737,178.558552 C155.850047,177.769911 155.454668,177.038727 155.165194,176.383888 C155.613918,177.226049 156.061073,177.940705 156.502737,178.558552" id="path118" fill="#182744"></path>
                        <path d="M171.03302,180.603149 C171.011546,180.612097 170.988283,180.617465 170.968599,180.624623 C171.004388,180.610307 171.050914,180.583465 171.092072,180.56557 C171.074178,180.574518 171.045546,180.597781 171.03302,180.603149" id="path120" fill="#182744"></path>
                        <path d="M155.191587,176.446974 C155.14685,176.343184 155.096745,176.234027 155.053797,176.132027 C155.100324,176.232237 155.14506,176.352132 155.191587,176.446974" id="path122" fill="#182744"></path>
                        <path d="M171.106668,175.0018 C169.917392,175.583378 168.601814,175.762326 167.283099,175.590536 C167.25015,175.5118 167.195237,175.447378 167.156797,175.372221 C167.236814,175.436642 167.317616,175.497484 167.396849,175.565484 C168.850495,175.696115 170.073504,175.47601 171.106668,175.0018" id="path124" fill="#182744"></path>
                        <path d="M171.629133,174.947827 C171.788396,174.908459 171.942291,174.865511 172.097975,174.820774 C171.942291,174.865511 171.784817,174.906669 171.629133,174.947827" id="path126" fill="#182744"></path>
                        <path d="M175.211302,167.836349 C175.214881,167.845297 175.21667,167.854244 175.220249,167.863191 C175.21667,167.854244 175.213091,167.845297 175.209512,167.836349 L175.211302,167.836349" id="path128" fill="#182744"></path>
                        <path d="M181.321417,165.065171 C181.324996,165.056224 181.328575,165.047276 181.332154,165.038329 L181.321417,165.065171" id="path130" fill="#182744"></path>
                        <path d="M181.22571,169.412843 C180.618521,170.221947 179.98309,170.972808 179.338245,171.72603 L179.68734,171.306524 C180.196469,170.694186 180.71109,170.062959 181.22571,169.412843" id="path132" fill="#182744"></path>
                        <path d="M179.338245,171.72603 C179.98309,170.972808 180.618521,170.221947 181.22571,169.412843 C181.328478,169.283764 181.43046,169.151537 181.533228,169.01931 C181.499495,169.067321 181.471254,169.120054 181.438305,169.168065 C181.427322,169.182232 181.417909,169.196399 181.40771,169.210567 C181.342598,169.304228 181.274348,169.393953 181.207667,169.48604 C180.445935,170.510013 179.629288,171.422223 178.818133,172.387953 C178.938159,172.223456 179.052693,172.070765 179.153107,171.949557 L179.338245,171.72603" id="path134" fill="#182744"></path>
                        <path d="M181.896763,168.824117 C181.830878,168.895711 181.771093,168.971724 181.703988,169.043317 C181.544155,169.191808 181.385543,169.340298 181.22571,169.485253 C181.451428,169.268704 181.678366,169.052156 181.896763,168.824117" id="path136" fill="#182744"></path>
                        <path d="M182.193762,168.268921 C182.374499,168.044781 182.560604,167.830208 182.735973,167.597868 C182.564183,167.827475 182.372709,168.043414 182.193762,168.268921" id="path138" fill="#182744"></path>
                        <path d="M176.219142,175.969104 C176.171288,176.043875 176.119512,176.115498 176.073228,176.191844 C174.76628,177.895842 172.422245,178.711242 173.193392,177.189056 C173.205159,177.167806 173.22634,177.148129 173.238892,177.126878 C172.572081,178.570358 174.949849,177.706159 176.219142,175.969104" id="path140" fill="#182744"></path>
                        <path d="M179.338245,171.72603 L179.153107,171.949557 C179.052693,172.070765 178.938159,172.223456 178.818133,172.387953 C178.081504,173.266319 177.348012,174.189547 176.664728,175.286717 C177.507262,173.910139 178.424323,172.795653 179.338245,171.72603" id="path142" fill="#182744"></path>
                        <path d="M97.5669022,29.1489938 C98.1105487,29.2680515 98.436109,29.4412264 99.1248849,29.8200464 L97.5669022,29.1489938" id="path144" fill="#182744"></path>
                        <path d="M144.689996,177.992651 C144.689996,178.412944 144.775504,178.8112 144.905729,179.188204 C144.210677,178.768698 143.645849,178.185482 142.999436,177.135536 C143.543082,175.453576 145.693349,174.173806 147.712608,174.381591 C145.99616,174.686973 144.689996,176.182399 144.689996,177.992651" id="path146" fill="#FFFFFF"></path>
                        <path d="M190.501434,149.708641 C190.246477,155.256671 187.524322,163.437436 185.558409,166.750198 C183.965909,169.434881 182.28084,171.365554 180.668728,173.315117 C179.25509,175.024624 175.912409,180.063422 175.866124,180.926047 C175.808073,181.994882 176.693754,184.491456 176.693754,184.491456 C176.693754,184.491456 174.006116,186.525235 171.620504,187.960844 C166.124418,191.26967 158.728314,192.787921 152.232013,193.208214 C150.206478,194.505299 148.412366,195.086154 146.50372,195.55682 C145.149703,195.890536 143.383048,195.748077 141.677582,195.748077 C140.544005,195.748077 139.417487,195.679602 138.327841,195.613488 C137.231134,195.546588 136.194832,195.483622 135.146763,195.483622 C133.707237,195.483622 132.520315,195.606405 131.412625,195.870859 C130.604608,196.06369 129.851505,196.282495 129.12272,196.495002 C127.501195,196.966455 119.783453,198.535078 119.783453,198.535078 C119.783453,198.535078 116.141884,193.394749 114.79885,192.039421 C113.88885,191.121702 113.029057,190.253568 112.130824,189.553079 C111.585609,189.128063 110.932135,188.730595 110.239436,188.309514 C108.664979,187.352442 104.53154,185.73266 102.156911,184.844849 C103.693712,181.358933 106.076186,178.105201 107.634169,176.405926 C108.344911,175.631452 109.038393,174.244642 109.666764,173.444196 C110.564997,172.301376 111.471074,170.220373 111.471074,170.220373 C111.471074,170.220373 110.003307,167.394805 108.316669,165.096572 C107.448247,163.913611 106.544523,162.788894 105.670609,161.701168 C102.979833,158.352989 100.438893,155.190557 98.9868159,150.608258 C97.3111608,145.317599 96.1877815,142.614027 92.4630575,138.927409 C90.7521006,137.233642 89.3055144,135.624092 87.9067817,134.067275 C84.7978766,130.607332 82.1133767,127.618842 77.6998768,125.04671 C72.0312045,121.742606 66.1797478,118.514848 60.5204893,115.39413 C58.649498,114.362287 56.7777222,113.330443 54.9099472,112.293877 C51.3577309,110.323063 50.4674999,110.221532 46.8469552,110.068054 L46.7605052,110.064118 C42.9370932,109.901983 36.8361709,108.970096 32.6735486,107.283414 C32.6735486,107.283414 31.854078,101.455976 31.3751512,98.9420863 C31.2023297,98.035386 31.0393142,97.179058 30.8131478,96.3833341 C30.2876228,94.5345157 29.2855246,93.098907 28.125353,91.4358362 C27.1662445,90.0616187 26.1748936,88.6409642 25.3444402,86.8330733 C23.5009057,82.8206099 22.4124359,79.9879588 21.671492,75.530016 C21.387117,73.8197212 21.118667,72.2038744 20.7950679,70.6478446 C20.2829576,68.1874757 19.7994024,63.860973 19.3722515,61.160549 C18.4526024,55.3472783 17.9044059,49.336454 15.820349,44.4227999 C15.1645215,42.8770019 13.7984232,41.1903191 12.3527,39.405253 C10.5238354,37.1479473 8.6438225,35.3920027 7.8394139,32.886771 L4.74533553,20.4235783 C4.62523122,19.9009663 4.26146657,18.8053702 3.87597176,17.6475959 C1.81427267,11.4455145 0.823235626,0.969821213 0.823235626,0.969821213 L15.2095508,0.969821213 L30.0237228,0.969821213 C30.0237228,0.969821213 29.7176177,12.0869734 28.3754461,15.5539999 C27.8572168,16.8927994 27.3212582,18.2756747 27.0540634,19.647531 C25.77316,26.2187465 28.4152194,29.2827951 35.1326667,33.4991085 C44.9700018,39.6744297 48.7075913,47.0272018 50.439337,58.0358963 C52.1663757,56.2909706 52.9223817,54.5358131 53.2778309,52.6767628 C53.7267903,50.3289444 53.4261766,47.5246276 52.6227093,44.9918487 C52.0315231,43.127289 51.0708456,41.3375005 50.0537637,39.4422452 C48.8072206,37.1196129 47.5176879,34.718274 46.888925,32.0595645 C46.2297241,29.2725632 44.134057,26.1329563 44.0530983,23.1743745 C44.0105009,21.6246412 43.970963,20.1606982 43.8518001,18.7754617 C43.8082613,18.2709523 43.6047665,17.1627631 43.3890337,15.9900345 C42.197326,9.50948914 41.9147553,0.847747251 41.9147553,0.847747251 L52.5436335,0.847747251 L70.9831356,0.847747251 C70.9831356,0.847747251 70.7438684,12.807139 68.3849288,18.5920753 C67.4615926,20.8572517 67.4914029,23.1436789 67.3141098,24.535999 C66.532765,30.673541 69.6652046,34.5419712 74.5642993,38.6583273 C74.8302389,34.289323 77.3531354,28.5453141 77.6284889,25.4985809 C78.0081785,21.2846287 75.007532,14.1553833 75.007532,14.1553833 L74.3501355,0.962422791 L81.6175836,0.962422791 C81.6175836,0.962422791 107.221531,0.809023595 107.271738,0.962422791 C107.310962,1.05309281 107.048161,9.85721497 107.048161,9.85721497 C106.881066,10.2948238 105.460367,13.9893124 105.327005,14.3710394 C104.234221,17.494118 103.372859,18.0002015 103.314023,21.4042627 C103.292057,22.6706522 103.103781,23.9331063 102.920997,25.1530589 C102.698988,26.6406139 102.488747,28.0471012 102.596221,29.3079812 C102.665255,30.1225947 103.961221,36.8551587 103.961221,36.8551587 C103.961221,36.8551587 109.600867,38.0861301 112.199859,38.2159961 C113.506022,38.2813226 135.539789,43.2965082 141.229642,44.3928914 C141.284556,41.1635589 141.05078,42.8494546 141.177867,39.6972546 C141.317505,36.2546272 141.461065,30.7664148 141.501858,27.2828599 C141.526961,25.1160668 139.256668,13.1133077 139.256668,13.1133077 C139.256668,13.1133077 141.057056,12.5781027 141.796823,12.5781027 C141.820358,12.5781027 141.843892,12.5781027 141.867427,12.5788898 C142.013341,10.4018648 141.39203,1.1183406 141.39203,1.1183406 L172.863909,1.1183406 C173.198883,7.91324024 169.965245,17.2249414 169.965245,17.2249414 C169.965245,17.2249414 163.556806,21.3373621 162.959814,22.8863083 C162.48834,24.9712466 161.469297,26.3612054 161.626978,28.3690112 C163.164564,34.1153813 165.209711,39.5445638 168.321754,46.4919968 C168.593969,47.0996119 168.918745,47.6749573 169.121926,48.2833594 C170.642254,52.8373243 171.755435,59.2172826 172.418323,66.4346794 C172.939219,72.1078523 174.039849,77.1773455 175.150676,82.6734286 C176.612167,89.9018443 176.877323,92.1441958 178.39765,101.537043 C178.032866,105.728171 177.300159,109.252653 176.227771,113.310766 C175.178133,117.280728 173.077288,126.265875 172.781538,127.533052 C173.699383,129.067831 174.587417,130.57034 175.432305,132.011458 C176.807504,133.836665 178.640055,135.766551 180.765219,136.759041 C184.044357,138.290672 189.639288,141.485374 189.639288,141.485374 C190.666176,144.49905 190.655193,146.368332 190.501434,149.708641" id="path148" fill="#192743"></path>
                        <path d="M149.935047,179.681695 C149.935047,179.403861 149.709901,179.177973 149.432194,179.177973 C149.155272,179.177973 148.93091,179.403861 148.93091,179.681695 C148.93091,179.960316 149.155272,180.185417 149.432194,180.185417 C149.709901,180.185417 149.935047,179.960316 149.935047,179.681695" id="path150" fill="#182744"></path>
                        <path d="M44.5492052,107.656483 C44.5492052,107.656483 40.287895,106.091795 37.9825356,105.22681 C37.4239054,105.881649 36.9538433,106.242912 35.2583408,106.582138 C37.5637002,107.213365 44.5492052,107.656483 44.5492052,107.656483" id="path152" fill="#C9D0D2"></path>
                        <polyline id="path154" fill="#C9D0D2" points="10.7315664 3.99758605 10.1603845 4.88303549 11.8396483 7.73921991 12.2714276 5.00660488 10.7315664 3.99758605"></polyline>
                        <polyline id="path156" fill="#C9D0D2" points="20.5983196 3.61168751 19.3155334 4.93340773 20.3326153 7.50553997 21.3490696 4.3501917 20.5983196 3.61168751"></polyline>
                        <polygon id="path158" fill="#C9D0D2" points="27.2247669 4.82613061 25.5561721 5.4219397 26.5726264 7.99438676"></polygon>
                        <polyline id="path160" fill="#C9D0D2" points="57.8234376 3.29780552 56.5408084 4.62015539 57.557498 7.19134315 58.5741876 4.03693936 57.8234376 3.29780552"></polyline>
                        <polyline id="path162" fill="#C9D0D2" points="63.784722 3.78665232 62.5020927 5.10900219 63.5187823 7.68018995 64.535472 4.52484168 63.784722 3.78665232"></polyline>
                        <polygon id="path164" fill="#C9D0D2" points="68.9889805 5.52528149 67.3203857 6.12109058 68.3370753 8.69322281"></polygon>
                        <path d="M67.7667564,10.0146282 L66.3813598,6.09189042 L64.8037651,6.03380494 L63.0284806,10.5773805 L61.4375496,5.70079724 L59.148429,5.56156524 L57.2531187,11.1377716 L55.9497006,5.24484981 L44.3822673,7.02621667 C44.3822673,7.02621667 47.3874638,15.0345362 48.2656922,17.0722505 C50.0715715,21.2625908 61.7497738,28.6743929 65.8965495,33.4558199 C65.5199978,29.4339118 60.32986,25.0499532 60.5597134,23.239701 C60.7479893,21.7615908 65.6753254,19.4657187 66.3813598,16.9313657 C67.1109288,14.3127965 67.7667564,10.0146282 67.7667564,10.0146282" id="path166" fill="#C9D0D2"></path>
                        <polyline id="path168" fill="#C9D0D2" points="86.0820749 3.72053876 85.3321094 4.45872812 86.348799 7.61407639 87.3654886 5.04194415 86.0820749 3.72053876"></polyline>
                        <polyline id="path170" fill="#C9D0D2" points="95.5813764 3.72053876 94.2987471 5.04194415 95.3146522 7.61407639 96.3313419 4.45872812 95.5813764 3.72053876"></polyline>
                        <path d="M104.139299,4.28069376 L102.638583,4.62472038 C102.374997,4.46581172 103.656057,7.35277042 103.656057,7.35277042 C103.656057,7.35277042 104.376212,5.08224194 104.139299,4.28069376" id="path172" fill="#C9D0D2"></path>
                        <path d="M157.692013,4.52484168 L156.412521,4.81692194 C156.188159,4.68225491 157.331935,7.24116444 157.331935,7.24116444 C157.331935,7.24116444 157.893625,5.20738546 157.692013,4.52484168" id="path174" fill="#C9D0D2"></path>
                        <path d="M165.063013,3.87700752 L163.042185,4.16971743 C162.710349,3.9314725 164.09653,7.88797542 164.09653,7.88797542 C164.173409,7.63068349 165.368961,4.70193157 165.063013,3.87700752" id="path176" fill="#C9D0D2"></path>
                        <path d="M169.918176,4.34617766 L168.417461,4.69020428 C168.154659,4.5309808 169.434935,7.41825433 169.434935,7.41825433 C169.434935,7.41825433 170.154306,5.1483555 169.918176,4.34617766" id="path178" fill="#C9D0D2"></path>
                        <path d="M157.340564,25.4946456 C157.898332,24.0464438 159.531625,20.5188133 159.531625,20.5188133 C161.448901,19.1729301 168.382159,15.2619983 168.382159,15.2619983 L168.894426,9.88704478 L167.193668,5.88253082 L165.609013,6.22159893 L165.12028,12.7394513 L160.603228,14.6551703 L163.816469,12.3655948 L163.575633,9.93592159 L161.767401,5.88253082 L158.251349,6.43190301 L158.786366,13.3470664 C158.786366,13.3470664 155.230306,16.126197 154.083392,16.1041591 C154.068487,16.1033721 157.389987,12.6930144 157.389987,12.6930144 L157.156996,9.93592159 C155.902608,7.62265541 155.438194,6.74735913 154.839633,5.88253082 L144.512703,6.43190301 C144.512703,6.43190301 146.747694,15.7877585 147.586306,21.0091555 C147.586306,21.0091555 145.607056,20.0284711 144.512703,19.6081777 C145.378772,22.8910307 146.67866,28.4382731 148.075823,31.8730298 L144.769229,30.5877508 C146.063625,36.7843227 148.337056,41.569685 150.397108,48.7918042 C154.52584,52.4123085 161.626978,60.5379797 167.634547,66.0726289 C167.774969,56.961551 158.553375,34.2554791 157.340564,25.4946456" id="path180" fill="#C9D0D2"></path>
                        <path d="M178.855788,146.34472 C178.379607,145.700113 167.842435,129.99106 145.186573,129.056812 C148.040522,126.293423 151.254547,124.524098 153.50209,123.242754 C150.101358,122.631991 140.262375,124.734245 134.5231,125.225374 C147.811453,118.306275 154.136737,109.812257 156.871444,106.237403 C157.220539,105.899751 157.552375,105.5621 157.857539,105.22681 C157.902254,105.178012 157.940694,105.118194 157.984625,105.067822 L168.240952,120.087406 C169.07878,118.122889 172.289668,107.166928 173.452271,103.218217 C172.361055,92.9753376 165.968306,76.58862 152.029616,67.6711603 C152.881565,68.9029189 154.524271,72.4155952 153.804116,76.445374 C144.512703,66.4464854 128.375893,61.2132824 116.803203,58.30586 C116.437634,58.2602102 130.035858,77.5669433 131.729556,85.1361586 C122.973945,79.3425645 110.834074,73.9495872 110.632462,73.9228269 C107.726738,73.5277197 101.380273,52.4823574 98.6173246,44.3456674 C97.5496436,41.201338 96.7863418,33.0315912 95.3162212,28.9671815 C96.4819625,29.0411657 97.1024884,29.0828803 97.5669022,29.1489938 L99.1248849,29.5881767 C98.9067987,27.0160445 91.6573937,18.5472125 91.6573937,18.5472125 L99.9470228,17.9868214 L103.100643,13.0873345 L103.678023,8.79467564 L101.069618,5.04351829 C99.9713418,5.14985092 96.7863418,5.33559854 96.7863418,5.33559854 L95.3146522,13.687866 L95.3146522,9.06212073 L93.1479109,5.04351829 L88.4912214,5.04351829 L87.3262645,14.6693375 L85.7196438,9.13224832 L83.7411784,5.04351829 L76.988351,5.81641726 L77.8803078,13.5713802 C77.8803078,13.5713802 81.3547819,20.2826934 80.9468509,24.8083239 C80.1843336,33.255118 81.0896267,74.1849199 80.873894,82.667132 L72.0727821,61.5753329 C69.327877,60.6269181 41.1958553,79.2489037 41.1958553,79.2489037 C41.7547993,66.0726289 50.4172146,38.4591995 23.8716523,36.2160609 L21.1707567,17.3233246 L24.9197212,15.2675078 C24.9197212,15.2675078 26.1755212,11.273147 26.2502824,9.45258425 L24.4196135,5.82901032 L21.7602954,5.31033372 L19.8668679,12.2774434 L18.2831542,4.89468407 L12.8346862,5.31741731 L11.9963095,9.3698636 L9.72036816,5.55818085 L3.41908901,6.04702765 C3.87691314,8.74359505 7.08160357,14.0743155 7.59551822,16.3190282 C8.54976302,20.4889048 9.83035264,25.6331692 9.83035264,25.6331692 C9.83035264,25.6331692 18.3009619,38.9558383 18.2831542,38.8086569 C18.2831542,38.8086569 19.8772231,38.1900229 22.2306713,38.4591995 C16.0192154,54.0179235 25.7130686,56.7325147 27.3445574,64.5779903 C28.5225367,70.2393572 26.6091048,78.4405867 29.0413151,83.7343938 C30.8070288,87.5784249 39.5858614,103.135575 43.338513,104.947401 C45.8763931,106.091795 48.0276017,106.583712 48.0276017,106.583712 C52.0091654,107.511663 75.1259889,117.223272 78.9377906,119.338119 C78.7518682,115.600342 78.7118595,110.005088 82.3644112,104.947401 C86.8814628,121.860666 93.7088161,134.998374 99.2151004,140.448021 C101.804678,137.517773 107.699281,136.681909 107.699281,136.681909 C104.904954,144.392009 107.712617,155.798172 111.191798,160.539459 C111.460091,160.905444 111.744859,161.307635 112.035117,161.736586 C113.93435,154.5916 119.131548,140.921834 131.729556,136.681909 C116.826738,148.120342 118.409824,169.706418 124.464462,177.992651 C122.771548,177.070996 121.046471,175.165509 119.07585,174.390249 C121.390074,182.518281 124.830031,189.758503 124.277755,189.330339 C120.907617,186.718067 117.017367,179.376313 114.336005,173.652768 C113.578195,174.508309 112.556798,175.581867 112.309686,175.897481 C109.80091,179.089034 107.838135,183.536745 107.838135,183.536745 L112.029626,185.288754 L111.820169,180.966974 C114.162635,182.793755 123.107307,195.181389 123.665074,195.36635 C123.665074,195.36635 127.344298,195.059394 131.023522,194.234548 C132.394798,193.927593 132.474031,190.544782 130.891729,186.340275 C134.254022,189.727808 142.999436,194.563542 148.93091,192.321191 C150.339056,191.788347 152.017065,191.083135 153.384418,190.544782 C156.20228,190.958779 164.289513,189.682945 169.872676,186.326108 C170.641469,185.949103 171.291806,185.616174 171.807995,185.350933 C172.049616,185.238382 172.273978,185.128193 172.460685,185.021939 C172.469314,185.017217 172.481081,185.01092 172.490495,185.006198 L172.488926,185.004623 C172.655237,184.907814 172.795659,184.814941 172.874107,184.728363 C172.874107,184.728363 172.292021,183.256549 172.292021,182.556061 C171.633055,182.193223 169.696952,182.467909 168.664573,182.82445 C165.873383,183.857868 155.759832,188.932871 155.759832,188.932871 L158.623978,186.690519 C161.929788,184.424556 157.591599,182.149147 149.592228,182.602498 C142.999436,182.976354 138.621237,177.415731 138.295677,170.547792 C139.812867,172.490271 139.614393,172.846812 140.638927,173.828284 C141.461065,172.792505 144.600565,172.327349 145.844754,172.042431 C145.113617,170.220373 143.185358,166.412546 143.535237,161.28481 C144.381694,163.722354 145.246194,165.43501 145.862013,166.870619 C149.053289,174.317052 149.509073,168.233818 149.820513,166.198464 C149.822866,166.198464 149.819728,166.198464 149.819728,166.198464 C150.543022,171.116054 151.944108,174.664148 153.615056,177.181186 C153.633099,177.210307 153.646435,177.242577 153.664478,177.271698 C153.804901,177.506244 154.00259,177.777782 154.231659,178.065061 C156.08853,180.497883 158.199573,181.760337 160.075271,182.256188 C160.663633,182.450594 161.262194,182.605646 161.877228,182.656805 C161.742297,182.604072 161.601875,182.54819 161.45753,182.491521 C161.61678,182.50254 161.778383,182.518281 161.929788,182.518281 C159.139383,181.133045 157.51472,179.780865 156.502737,178.558552 C156.061073,177.940705 155.613918,177.226049 155.165194,176.383888 C155.147935,176.346109 155.130677,176.307542 155.114202,176.27055 C155.093806,176.228836 155.074194,176.176102 155.053797,176.132027 C154.932987,175.842386 154.83022,175.570848 154.732159,175.318987 C154.673323,175.14662 154.614487,174.98291 154.555651,174.796375 C154.565849,174.809755 154.578401,174.822348 154.589384,174.835729 C154.903961,175.257596 155.322875,175.710946 155.824159,176.177676 C156.964797,177.291375 158.371375,178.331089 160.035263,179.226771 C161.440271,180.033514 162.910392,180.700159 164.235383,181.060635 C167.037556,181.821728 169.491418,181.18814 170.933297,180.609646 C170.941926,180.605711 170.9584,180.596266 170.968599,180.591543 C170.977228,180.588395 170.987426,180.586034 170.99684,180.582099 C171.002331,180.579737 171.014883,180.569506 171.022728,180.56557 C171.281607,180.441214 171.718564,180.178334 171.803288,180.031939 C171.903702,179.858785 171.903702,179.503818 171.506754,179.607711 C171.492633,179.610859 171.483219,179.612433 171.470668,179.614794 C170.165288,179.923324 167.419599,180.301116 164.095745,179.177973 C166.284452,173.95815 157.808901,176.640471 157.156996,166.198464 C159.10722,173.655129 163.515228,173.855831 167.156797,175.164722 C167.195237,175.197779 167.25015,175.226113 167.283099,175.260744 C168.601814,175.336303 169.917392,175.257596 171.106668,175.0018 C171.290237,174.965594 171.458116,174.920732 171.629133,174.876656 C171.697383,174.858553 171.766418,174.840451 171.834668,174.820774 C175.896719,173.674806 176.36584,170.489549 175.214219,167.848155 C175.21265,167.84422 175.211866,167.840284 175.210297,167.836349 L175.209512,167.836349 L175.208728,167.833988 C173.616228,167.107526 172.257504,165.88049 171.314556,165.220928 C168.566512,157.184196 170.800719,142.255912 157.306047,139.896287 C146.607272,138.026218 138.435315,140.714049 131.729556,144.008708 C133.743324,139.934066 137.875194,136.022348 139.834832,134.196354 C142.391461,133.369935 150.926634,133.716244 153.431487,134.009032 C160.625978,134.850406 170.840728,141.386203 171.407124,148.960928 C171.895073,155.488068 172.525012,163.804996 172.525012,163.804996 C172.525012,163.804996 175.141262,165.511356 177.741038,166.198464 C177.947357,166.252772 181.233555,165.267365 181.233555,165.267365 C181.233555,165.267365 181.268072,165.187084 181.321417,165.050135 L181.326124,165.038329 C181.648547,164.204826 182.712305,161.162028 182.353797,158.109785 C182.020391,155.278708 181.001348,149.241124 178.855788,146.34472" id="path182" fill="#C9D0D2"></path>
                        <path d="M185.800029,144.533681 C184.750391,144.053571 183.232417,143.150806 181.610107,142.765143 C182.411848,144.192094 182.873124,145.025597 182.8794,145.035829 C185.098702,149.14825 185.239124,159.38011 182.118452,165.968641 C182.118452,165.968641 179.890521,167.455409 178.516107,168.111035 C178.505909,168.126777 178.491788,168.141731 178.460409,168.154324 C177.336245,170.641453 178.020314,173.818052 174.980443,175.108841 C174.292452,175.440195 173.712719,176.239068 173.267918,177.056829 C173.255366,177.082802 173.250659,177.101692 173.238892,177.126878 C173.22634,177.148129 173.205159,177.167806 173.193392,177.189056 C172.422245,178.711242 174.76628,177.895842 176.073228,176.191844 C176.119512,176.115498 176.171288,176.043875 176.219142,175.969104 C176.310926,175.84396 176.397219,175.714094 176.475667,175.580293 C176.536857,175.475613 176.602754,175.388249 176.664728,175.286717 C177.348012,174.189547 178.081504,173.266319 178.818133,172.387953 C179.629288,171.422223 180.445935,170.510013 181.207667,169.48604 C181.274348,169.393953 181.342598,169.304228 181.40771,169.210567 C181.417909,169.196399 181.427322,169.182232 181.438305,169.168065 C181.471254,169.120054 181.499495,169.067321 181.533228,169.01931 C181.576374,168.955557 181.614814,168.88787 181.657176,168.824117 C181.842314,168.558089 182.017254,168.27081 182.193762,167.984318 C182.27221,167.854452 182.35615,167.730095 182.43146,167.597868 C182.734271,167.071321 183.026098,166.517226 183.289685,165.896231 C184.966909,161.95303 186.972831,157.221188 187.089719,152.963947 C187.236417,147.652824 186.639426,146.241615 185.800029,144.533681" id="path184" fill="#C9D0D2"></path>
                        <path d="M173.48365,161.669686 C173.409909,159.383258 173.409909,158.058626 174.132418,155.782431 C174.632133,158.474197 178.020314,161.903444 180.069383,162.137203 C180.20196,162.757411 180.244323,163.363452 180.302374,163.514569 C178.485512,164.25992 176.512538,163.546051 173.48365,161.669686" id="path186" fill="#182744"></path>
                        <path d="M149.432194,179.177973 C149.709901,179.177973 149.935047,179.403861 149.935047,179.681695 C149.935047,179.960316 149.709901,180.185417 149.432194,180.185417 C149.155272,180.185417 148.93091,179.960316 148.93091,179.681695 C148.93091,179.403861 149.155272,179.177973 149.432194,179.177973" id="path188" fill="#FFFFFF"></path>
                        <path d="M148.35353,144.989392 C147.515703,145.597007 145.243841,148.4454 146.724944,153.820275 C147.569047,156.885898 150.296694,160.744096 149.821297,164.638499 C148.35353,158.375814 146.993237,158.988151 144.117323,154.287792 C142.544436,151.717234 141.136289,147.839359 142.161608,146.251059 C143.033953,145.625342 146.397815,144.929575 148.35353,144.989392" id="path190" fill="#182744"></path>
                        <polyline id="path192" fill="#FFFFFF" points="102.602497 12.8779749 102.602497 8.81529678 101.170031 10.4278379 99.6677469 17.3327694 102.602497 12.8779749"></polyline>
                        <polyline id="path194" fill="#FFFFFF" points="94.6862816 13.04562 94.6862816 8.98278446 93.2530316 10.594696 91.7507471 17.5004145 94.6862816 13.04562"></polyline>
                        <path d="M147.712608,174.381591 C145.693349,174.173806 143.543082,175.453576 142.999436,177.135536 C143.645849,178.185482 144.210677,178.768698 144.905729,179.188204 C144.775504,178.8112 144.689996,178.412944 144.689996,177.992651 C144.689996,176.182399 145.99616,174.686973 147.712608,174.381591" id="path196" fill="#FFFFFF"></path>
                        <path d="M35.5693882,50.9302629 C33.7518986,45.9434117 26.047729,40.7692387 24.138298,39.9845337 C29.9189159,38.9574124 38.1443743,41.8915951 39.5162778,47.4167996 C41.2467682,54.3823352 40.7506614,72.5549059 40.7506614,72.5549059 C40.7506614,72.5549059 38.8586459,59.9539766 35.5693882,50.9302629" id="path198" fill="#FFFFFF"></path>
                        <polyline id="path200" fill="#FFFFFF" points="155.221677 24.6493365 156.703564 25.3553349 166.98578 62.8952428 157.05972 51.4945894 155.221677 24.6493365"></polyline>
                        <path d="M96.9644194,41.8490935 L107.512574,74.06686 L94.5905747,66.0726289 L89.4224024,18.6408734 L99.1248849,29.5881767 C98.436109,29.3402509 98.1105487,29.2269134 97.5669022,29.1489938 L94.917704,28.402068 L96.9644194,41.8490935" id="path202" fill="#FFFFFF"></path>
                        <path d="M168.240952,120.087406 C164.599383,114.248162 160.910745,108.68754 157.990116,105.060739 C157.961875,105.024534 157.930495,104.982032 157.90147,104.947401 C157.638668,105.24019 157.29428,105.684882 156.871444,106.237403 C146.996375,115.804979 120.179617,126.439817 120.179617,126.439817 C120.179617,126.439817 140.528315,109.410066 144.512703,92.2378566 C146.714746,82.7481998 135.556263,70.5179787 132.986298,67.4743938 C142.717022,70.7926648 157.493539,83.4250768 161.830159,87.2517925 C161.782306,85.2164394 161.479495,83.2448386 160.789151,81.4912552 C169.52515,87.8066741 173.452271,103.218217 173.452271,103.218217 L168.240952,120.087406" id="path204" fill="#FFFFFF"></path>
                        <path d="M89.5361524,123.683511 C81.7587905,108.731615 82.8303939,91.3036091 82.8303939,91.3036091 C82.8303939,91.3036091 86.9049973,110.689049 98.1984108,124.196678 C104.439755,131.662788 108.340988,130.224818 112.309686,129.99106 C101.970204,135.036941 98.1984108,137.560275 98.1984108,137.560275 C98.1984108,137.560275 92.7015402,129.769107 89.5361524,123.683511" id="path206" fill="#FFFFFF"></path>
                        <polyline id="path208" fill="#FFFFFF" points="102.602497 8.81529678 102.602497 12.8779749 99.6677469 17.3327694 101.170031 10.4278379 102.602497 8.81529678"></polyline>
                        <polyline id="path210" fill="#FFFFFF" points="94.6862816 8.98278446 94.6862816 13.04562 91.7507471 17.5004145 93.2530316 10.594696 94.6862816 8.98278446"></polyline>
                        <polyline id="path212" fill="#FFFFFF" points="83.8988594 11.1117984 85.3321094 9.49996563 87.3262645 14.6693375 86.348799 18.0167299 83.8988594 11.1117984"></polyline>
                        <path d="M66.3389978,7.19134315 L65.8879202,9.16853207 L60.513429,21.8843731 L64.5676358,18.2528498 C65.3262306,17.5728246 65.8777219,16.6913105 66.1569978,15.709839 L67.3203857,11.6194561 L66.3389978,7.19134315" id="path214" fill="#FFFFFF"></path>
                        <polyline id="path216" fill="#FFFFFF" points="156.703564 12.6694024 156.703564 10.0067575 155.270315 11.617882 152.336349 17.1548925 156.703564 12.6694024"></polyline>
                        <polyline id="path218" fill="#FFFFFF" points="162.991194 12.6694024 162.991194 10.0067575 161.557159 11.617882 155.898685 16.6645503 162.991194 12.6694024"></polyline>
                        <polyline id="path220" fill="#FFFFFF" points="160.090176 16.2080519 166.447625 13.4407272 168.382159 10.7772953 168.382159 15.2619983 159.811685 19.397244 160.090176 16.2080519"></polyline>
                        <polyline id="path222" fill="#FFFFFF" points="161.557159 11.617882 162.991194 10.0067575 162.991194 12.6694024 155.898685 16.6645503 161.557159 11.617882"></polyline>
                        <polyline id="path224" fill="#FFFFFF" points="155.270315 11.617882 156.703564 10.0067575 156.703564 12.6694024 152.336349 17.1548925 155.270315 11.617882"></polyline>
                        <path d="M111.962945,151.658204 C108.598298,144.979161 108.849333,134.557617 114.660781,131.766681 C121.988634,128.246921 142.999436,125.038839 142.999436,125.038839 C142.999436,125.038839 129.275694,129.928881 120.179617,135.738217 C115.153436,138.94866 112.139454,149.216725 111.962945,151.658204" id="path226" fill="#FFFFFF"></path>
                        <polyline id="path228" fill="#FFFFFF" points="25.5561721 9.94143105 23.4525032 14.3332603 22.8512756 7.85476122 24.2841333 6.24316454 25.5561721 9.94143105"></polyline>
                        <polyline id="path230" fill="#FFFFFF" points="17.9635559 6.92688892 19.3155334 11.6918662 20.3326153 20.967441 16.6109507 9.60598345 17.9635559 6.92688892"></polyline>
                        <path d="M143.627806,183.396647 C147.951875,185.231299 152.587384,184.01292 156.178746,183.816941 C156.658849,183.790967 159.192728,184.252975 159.147228,184.770078 C159.397478,185.058931 159.437487,185.46427 159.083685,185.816089 C158.968366,185.931 158.84834,186.038828 158.730668,186.147444 C158.733021,186.145869 158.736159,186.145082 158.738513,186.144295 C158.729099,186.151379 158.719685,186.158462 158.710271,186.166333 C158.212125,186.623619 157.688875,187.031319 157.147582,187.392582 C148.992884,193.413638 142.25653,192.454205 139.925832,190.918639 C131.520884,185.383989 129.959763,180.752105 129.959763,180.752105 C131.283186,182.534023 148.35353,190.264587 143.627806,183.396647" id="path232" fill="#FFFFFF"></path>
                        <path d="M164.115357,173.851896 C161.006452,172.332071 159.25078,169.874851 158.270961,167.396379 C160.087823,168.300718 161.101375,168.528967 161.599521,168.361322 C160.230599,166.809228 159.951323,163.804996 159.951323,163.804996 C165.40034,168.417204 165.860047,156.968539 167.842435,153.960373 C168.561021,160.543394 168.724193,161.949881 170.933297,165.591636 C170.955262,165.628629 170.971737,165.662472 170.992918,165.69789 C172.138262,166.383425 172.783892,167.356239 175.209512,167.836349 C175.211081,167.840284 175.21265,167.84422 175.214219,167.848155 C176.637271,171.832284 174.758435,173.958937 171.834668,174.820774 C171.766418,174.840451 171.698952,174.859341 171.629133,174.876656 C171.458116,174.923093 171.283961,174.96402 171.106668,175.0018 C170.073504,175.210372 168.850495,175.307181 167.396849,175.249725 C167.317616,175.219817 167.236814,175.193057 167.156797,175.164722 C166.94028,174.980549 166.653159,174.817626 166.286021,174.662574 C165.519582,174.480762 164.796288,174.197418 164.115357,173.851896" id="path234" fill="#FFFFFF"></path>
                        <path d="M172.758004,163.585405 L178.207021,164.379555 L180.580081,163.954539 L180.302374,161.605933 C180.302374,161.605933 179.6034,161.155732 176.296805,156.763902 C175.149892,155.239355 175.014961,153.117425 175.419754,151.304024 C178.52709,150.175371 178.951495,150.246207 178.52709,146.951548 C179.186055,147.164843 179.806581,148.724808 180.302374,150.369777 C181.365348,153.897407 182.137279,157.120443 182.146693,159.424973 C182.160814,162.809358 181.350443,164.973789 181.326124,165.038329 C181.324555,165.042264 181.322986,165.0462 181.321417,165.050135 L177.833607,165.828543 L172.758004,163.585405" id="path236" fill="#FFFFFF"></path>
                        <path d="M114.498393,175.108841 C114.498393,175.108841 121.856057,190.918639 125.395643,190.918639 L125.347789,188.289051 C125.317979,186.621257 123.905126,179.681695 123.905126,179.681695 L129.959763,185.760207 C130.729341,186.793625 131.82997,190.000132 131.705238,191.283837 L131.608746,192.272392 C131.506763,193.326274 130.687763,194.168435 129.63891,194.29594 L123.665074,195.36635 L113.922583,181.648573 L114.498393,175.108841" id="path238" fill="#FFFFFF"></path>
                        <path d="M153.85903,171.852748 C153.400108,170.638305 152.894901,168.417204 152.894901,168.417204 C154.641944,171.341942 159.35747,175.858128 163.676832,177.22841 C164.701366,177.554255 163.546607,179.207094 163.716056,179.262976 C166.70415,180.246808 168.829314,180.313709 171.407124,179.718687 C172.133555,179.550255 171.26984,180.428621 171.022728,180.56557 C171.004685,180.573441 170.984288,180.585247 170.968599,180.591543 C168.232323,181.75955 164.905332,181.210177 163.55759,180.757614 C162.274176,180.325515 161.107651,179.802903 160.035263,179.226771 C158.441978,178.311413 156.939694,177.216604 155.824159,176.177676 C155.374651,175.738493 154.954952,175.29144 154.589384,174.835729 C154.545452,174.777486 154.495246,174.716882 154.456021,174.659426 C154.552513,174.860128 154.640375,175.080506 154.732159,175.318987 C154.83728,175.622795 154.944754,175.893545 155.053797,176.132027 C155.072625,176.176889 155.09459,176.2249 155.114202,176.27055 C155.131461,176.303607 155.146366,176.350044 155.163625,176.381527 C155.163625,176.381527 155.164409,176.383101 155.165194,176.383888 C155.454668,177.038727 155.850047,177.769911 156.502737,178.558552 C158.351763,181.145638 160.100375,181.95002 161.45753,182.491521 C161.017435,182.459251 160.555375,182.382906 160.075271,182.256188 C157.565711,181.425834 155.379358,179.505392 154.231659,178.065061 C154.021418,177.789588 153.818237,177.486567 153.615056,177.181186 C152.606211,175.473252 151.853892,173.463085 151.299263,171.356109 C152.461866,173.770828 154.380711,173.232475 153.85903,171.852748" id="path240" fill="#FFFFFF"></path>
                        <path d="M179.68734,171.306524 L179.338245,171.72603 C178.424323,172.795653 177.507262,173.910139 176.664728,175.286717 C176.660021,175.294588 176.65453,175.300885 176.650607,175.308755 C176.501555,175.525199 176.360348,175.747151 176.219142,175.969104 C174.949849,177.706159 172.572081,178.570358 173.238892,177.126878 C173.701736,176.334303 174.695676,175.611776 175.365624,175.288292 C178.406279,173.99829 177.920685,171.212076 179.044848,168.724947 C179.076228,168.712354 182.398512,166.576256 182.398512,166.576256 C185.5184,159.987725 187.161891,147.785051 187.015978,153.096961 C186.898305,157.353415 184.892383,162.085257 183.215943,166.028458 C182.982167,166.576256 182.717012,167.094933 182.43146,167.597868 C182.354581,167.731669 182.272995,167.855239 182.193762,167.984318 C182.021176,168.270023 181.842314,168.549431 181.657176,168.824117 C181.516754,169.02718 181.37084,169.220011 181.22571,169.412843 C180.71109,170.062959 180.196469,170.694186 179.68734,171.306524" id="path242" fill="#FFFFFF"></path>
                        <path d="M153.664478,190.370054 C156.144228,189.634147 158.903254,188.302431 163.071995,186.297773 C165.821607,184.976289 169.589478,182.954316 171.442426,183.010985 L172.488926,185.004623 C172.478728,185.010133 172.470883,185.015642 172.460685,185.021939 C172.271624,185.114813 172.0504,185.226576 171.807995,185.350933 C171.232185,185.620109 170.573219,185.901879 170.149599,186.164759 C170.060168,186.220641 169.963676,186.2718 169.872676,186.326108 C168.382159,187.056505 166.424875,187.950612 163.920806,188.869905 C159.741866,190.405472 155.20128,190.760438 153.664478,190.370054" id="path244" fill="#FFFFFF"></path>
                    </g>
                </g>
            </g>
        </g>
    </g>
</svg>