<svg width="200" height="200" xmlns="http://www.w3.org/2000/svg"><g fill="none"><path d="M174.006 168.138l-40.11-18.794c-15.283-8.596-27.502-1.927-27.502-1.927l-73.802 43.576 21.574-75.03c28.9-1.94 36.673-11.69 36.673-11.69h-29.6c-13.753 4.166-22.014 25.483-22.014 25.483l-9.758 10.394c8.096-28.367 26.596-56.95 26.596-56.95a49.578 49.578 0 0 1 7.113-8.239s-6.05-2.404-9.318-3.695c-.875-.363-2.42-.936-3.735-1.483 0 0 .004-.004.004-.009L42.724 53.74l16.287 6a62.126 62.126 0 0 1 2.305-1.979l-3.12-17.62 14.308 10.442a53.68 53.68 0 0 1 2.743-1.263h-.004l1.863-18.057 11.058 14.19a59.96 59.96 0 0 1 3.318-.497l7.105-17.107 6.629 17.06c1.014.114 2.019.247 3.016.411l11.904-14.52 1.485 18.403c.614.26 1.223.535 1.824.813l15.48-10.83-3.616 18.163a60.8 60.8 0 0 1 2.246 1.878l17.997-5.945-8.654 16.343c.532.753 1.044 1.52 1.54 2.3l18.891-.578-12.837 13.135v-.004a60.452 60.452 0 0 1 1.393 4.702l17.92 5.435-16.132 8.244c.003.281.01.56.01.838 0 1.47-.053 2.925-.158 4.365l15.034 10.677-17.49 2.408-2.473-6.008-3.203-7.775c0-27.028-21.89-48.942-48.894-48.942-13.147 0-25.08 5.2-33.867 13.653a47.774 47.774 0 0 1 29.094-9.834c26.532 0 48.041 21.526 48.041 48.083 0 5.022-1.15 11.31-2.646 15.361l-.76 7.157 33.645 35.297zM10.926 63.679c6.103-13.845 12.807-21.45 12.807-21.45l16.652 23.547-29.46-2.097zm33.973-41.304l8.593 27.543L26.11 38.832c10.07-11.286 18.789-16.457 18.789-16.457zm24.486-11.774l.482 28.846L46.72 21.08c12.842-7.987 22.665-10.478 22.665-10.478zm26.939-4.148l-8.122 27.686L71.566 9.708C86.204 5.91 96.324 6.453 96.324 6.453zm27.797 3.764l-15.679 24.207L99.47 6.255c15.113.548 24.651 3.962 24.651 3.962zm24.193 11.354l-21.879 18.786-.653-29.554c14.341 4.795 22.532 10.768 22.532 10.768zm20.63 18.82l-26.522 11.3 8.287-28.38c12.228 8.908 18.235 17.08 18.235 17.08zm14.183 23.984l-28.668 3 16.246-24.686c9.084 12.108 12.422 21.686 12.422 21.686zm6.779 26.817l-28.359-5.17 22.52-19.126c5.315 14.167 5.839 24.296 5.839 24.296zm-1.945 28.949l-25.205-13.999 27.459-10.892c.496 15.127-2.254 24.89-2.254 24.89zm-10.154 26.501l-20.059-20.722 29.44-2.437c-3.917 14.62-9.381 23.16-9.381 23.16zm-32.707-20.17c1.279-3.68 2.204-8.395 2.537-12.773l7.94 18.498 24.171 22.048S230.1 79.62 157.415 20.427C108.156-19.69 20.798 2.95 2.913 66.97l42.97 3.252 1.256 2.715 8.99 3.578c-26.637 35.262-35.117 78.546-35.117 78.546l21.692-23.109 5.924-11.346-22.724 79.026 82.542-47.362c.282-.144 10.466-5.34 23.474 1.974l.131.075 55.649 23.198-42.833-47.156c.206-1.904.18-3.423.233-3.89z" fill="#FFF"/><path d="M73.842 98.384h16.695c-4.313-6.126-11.43-20.546 11.487-26.625-2.499-.341-4.104-.316-4.104-.316-33.203 0-41.84 28.863-41.84 28.863 2.48-2.575 17.762-1.922 17.762-1.922m22.142 10.056c.004-.008.012-.011.023-.02a44.998 44.998 0 0 1-4.119 2.988c-2.374 7.507-10.782 26.793-39.442 55.577l54.253-29.627c3.455-1.562 6.629-2.395 9.474-2.748.203-.025.311-.047.404-.055-6.727-5.073-14.257-13.186-20.593-26.116" fill="#FCD006"/><path d="M155.885 89.179a59.314 59.314 0 0 1 1.788 13.68l16.131-8.245-17.92-5.435m-7.446-17.256a59.03 59.03 0 0 1 6.054 12.558l12.837-13.135-18.89.577m-10.884-12.697a59.605 59.605 0 0 1 9.343 10.398l8.654-16.343-17.997 5.945m1.371-20.04l-15.481 10.829a59.055 59.055 0 0 1 11.863 7.333l3.618-18.162M120.137 30.8l-11.905 14.525a58.467 58.467 0 0 1 13.39 3.877L120.136 30.8m-14.92 14.107l-6.629-17.059-7.105 17.107a59.67 59.67 0 0 1 13.734-.048m-17.052.544L77.106 31.262 75.243 49.32h.001a58.591 58.591 0 0 1 12.92-3.868M59.009 59.739l-16.285-6 7.401 16.036A59.582 59.582 0 0 1 59.01 59.74m13.494-9.158L58.193 40.141l3.125 17.62a59.154 59.154 0 0 1 11.186-7.179m82.566 70.564l17.489-2.408-15.034-10.677a59.141 59.141 0 0 1-2.455 13.085M52.073 167.19l.37-.205c28.663-28.784 37.071-48.07 39.444-55.577-13.063 8.396-29.961 10.416-29.961 10.416l-9.853 45.367m68.281-55.967l10.04 1.55c3.826-33.154-18.81-39.718-28.37-41.015-22.916 6.08-15.8 20.499-11.49 26.625h13.676c-1.946 3.964-4.85 7.281-8.226 10.055 6.334 12.93 13.867 21.043 20.593 26.116 9.546-1.044 15.307 3.305 15.307 3.305l-8.127-16.188c5.136 2.114 16.606 11.17 16.606 11.17l.76-7.158c-13.058-10.566-23.697-12.693-23.697-12.693.754-1.853 2.928-1.767 2.928-1.767" fill="#FAB41D"/><path d="M155.885 89.179a59.2 59.2 0 0 0-1.393-4.698 59.03 59.03 0 0 0-6.054-12.558 59.083 59.083 0 0 0-1.538-2.299 59.615 59.615 0 0 0-11.59-12.276 59.213 59.213 0 0 0-13.689-8.146 58.467 58.467 0 0 0-13.389-3.877 54.485 54.485 0 0 0-3.016-.418 59.605 59.605 0 0 0-13.733.048 59.637 59.637 0 0 0-3.319.496 58.554 58.554 0 0 0-15.662 5.131 59.332 59.332 0 0 0-13.493 9.157 59.493 59.493 0 0 0-8.888 10.045c1.319.547 2.862 1.116 3.737 1.483 10.036-13.835 26.324-22.831 44.707-22.831 30.496 0 55.217 24.746 55.217 55.264 0 3.924-.41 7.746-1.186 11.438l2.476 6.008a58.97 58.97 0 0 0 2.448-13.085c.107-1.44.16-2.896.16-4.36 0-.283-.004-.562-.007-.843a59.314 59.314 0 0 0-1.788-13.68M22.876 55.491l12.993 6.963-12.653-16.991zM43.41 25.293L40 34.728l10.217 10.626zm23.723-12.318l-5.931 8.091 6.808 13.08zm26.333-4.922l-8.069 5.953 2.605 14.52zm18.032 6.277l-1.647 14.66 11.077-18.057zm23.542 7.616l-5.718 13.598 15.722-14.192zm21.138 14.794l-9.553 11.237 19.27-8.786zm15.818 20.39l-12.427 7.93 20.993-2.723zm16.019 31.388l-6.765-7.405-14.148 4.122zm-19.746 18.664L187.03 117l-4.036-9.184zm-5.544 21.331l15.103 14.858-1.198-9.965z" fill="#588ED2"/><path d="M123.757 121.672l8.127 16.188s-5.758-4.35-15.304-3.305c-.096.008-.204.03-.407.055-2.845.353-6.019 1.186-9.474 2.748l-54.253 29.627-.373.206 9.853-45.367s16.9-2.02 29.962-10.416a44.998 44.998 0 0 0 4.096-2.969c3.377-2.774 6.28-6.09 8.226-10.055H73.842s-15.281-.653-17.76 1.922c0 0 8.633-28.863 41.836-28.863 0 0 1.607-.025 4.108.316 9.559 1.297 32.197 7.86 28.369 41.014l-10.04-1.549s-2.175-.086-2.929 1.767c0 0 10.639 2.127 23.695 12.693 1.496-4.05 2.646-10.339 2.646-15.361 0-26.557-21.509-48.083-48.04-48.083a47.774 47.774 0 0 0-29.095 9.834c8.787-8.452 20.72-13.653 33.867-13.653 27.004 0 48.894 21.914 48.894 48.942l3.203 7.775a55.577 55.577 0 0 0 1.186-11.438c0-30.518-24.721-55.264-55.217-55.264-18.384 0-34.67 8.996-44.707 22.83 3.269 1.292 9.318 3.696 9.318 3.696a49.578 49.578 0 0 0-7.113 8.24s-18.5 28.58-26.596 56.948l9.758-10.394s8.261-21.317 22.015-25.484h29.6s-7.774 9.751-36.674 11.692l-21.574 75.029 73.802-43.576s12.219-6.669 27.502 1.927l40.11 18.794-33.645-35.297s-11.468-9.06-16.604-11.169M23.216 45.463L35.87 62.45l-12.993-6.96.34-10.028zm.517-3.234s-6.704 7.605-12.807 21.45l29.46 2.097-16.653-23.547zM43.41 25.293l6.806 20.061-10.217-10.626 3.411-9.435zm1.489-2.918s-8.717 5.17-18.79 16.457l27.383 11.086-8.593-27.543zm16.303-1.309l5.931-8.09.875 21.17-6.806-13.08zm8.182-10.46s-9.824 2.486-22.665 10.473l23.146 18.368-.481-28.841zm16.013 3.4l8.071-5.953-5.464 20.472-2.607-14.519zm10.927-7.553s-10.12-.543-24.758 3.255l16.636 24.43 8.122-27.685zm15.174 7.877l9.43-3.397-11.077 18.056 1.647-14.659zm12.623-4.113s-9.538-3.414-24.65-3.962l8.971 28.17 15.68-24.208zm10.919 11.729l10.004-.594-15.722 14.192 5.718-13.598zm13.274-.375s-8.19-5.973-22.532-10.768l.65 29.554 21.882-18.786zm7.864 15.169l9.716 2.45-19.27 8.787 9.554-11.237zm12.766 3.65s-6.004-8.17-18.235-17.076l-8.287 28.377 26.522-11.3zm3.052 16.74l8.566 5.207-20.993 2.724 12.427-7.932zm11.131 7.245s-3.342-9.578-12.422-21.686L154.46 67.376l28.668-3.001zm4.888 24.143l-20.913-3.283 14.148-4.122 6.765 7.405zm1.892 2.674s-.525-10.129-5.84-24.296l-22.521 19.126 28.361 5.17zm-21.638 15.99l14.726.634 4.036 9.184-18.762-9.818zm21.946-11.932l-27.459 10.892 25.208 13.999s2.747-9.764 2.25-24.89z" fill="#1E5AAF"/><path d="M177.828 143.371l-15.103-14.858 13.903 4.893 1.2 9.965zm-.021 3.271s5.461-8.538 9.381-23.16l-29.44 2.438 20.059 20.722zm7.233 14.789l-1.076-2.74h-.916v3.607h.578v-3.031h.02l1.184 3.031h.393l1.193-3.031h.017v3.031h.578v-3.606h-.894l-1.076 2.74m-5.571-2.165h1.133v3.031h.582v-3.031h1.136v-.575h-2.852v.575" fill="#1E5AAF"/></g></svg>