<svg width="200" height="200" xmlns="http://www.w3.org/2000/svg"><g fill="none"><path d="M123.729 87.118c2.698-11.89-1.222-22.999-11.031-31.32-8.094-5.34-11.905-14.828-8.669-21.71 3.268-6.962 11.797-8.033 20.33-5.08 4.344 1.61 5.766 6.716 5.285 10.157-.294 2.111-1.37 3.896-2.69 5.367 7.056-.234 12.725-2.767 16.338-7.411 3.681-4.735 4.69-11.283 2.515-16.294-1.596-3.672-4.668-5.892-8.652-6.249l.009-.012c-.736.044-69.222-.003-69.222-.003 2.032 5.32-.955 11.386-3.676 16.574-2.327 4.445-4.73 9.039-4.78 13.778 1.465 7.902 12.143 17.784 18.55 23.712 2.166 2.006 3.881 3.59 5.053 4.894 4.054 4.792 4.365 11.227.833 17.212-2.335 3.963-6.675 7.837-10.818 7.273-5.242-.057-10.184-2.846-12.93-7.31-1.856-3.023-4.16-9.306-.263-18.75-4.158-2.272-9.158-6.704-11.98-12.48-5.26 7.536-6.297 13.99-7.286 20.26-.866 5.476-1.766 11.14-5.6 16.706-5.088 9.942-13.325 14.3-19.36 17.105h80.068c14.115.038 24.311-9.592 27.976-26.419" fill="#FFF"/><path d="M185.049 90.602c-2.694-3.563-7.333-5.214-14.116-4.956l-36.723-.015.017-.655c-.144 4.613-.706 10.32-1.264 12.771-4.2 19.288-15.546 29.63-32.219 29.587l-7.698.549-17.661 41.638.053-.128c-2.618 6.617-10.1 11.626-15.291 13.167h71.833l.72-.051c15.482-.779 25.56-6.026 29.138-15.163.039-.102 25.39-61.589 25.39-61.589s.055-.093.072-.119c.251-.783.553-2.591.553-4.84 0-3.172-.604-7.168-2.804-10.196zm-35.842 22.607l-16.946 39.123c-7.166 16.955-38.42 15.474-38.852 15.44 10.088-.724 15.795-3.158 20.119-8.184 1.553-.937 8.52-19.572 19.695-47.03 3.264-8.89 10.537-6.447 10.537-6.447 8.83-.38 5.447 7.098 5.447 7.098z" fill="#FFF"/><path d="M189.943 87.048c-3.988-5.275-10.465-7.777-19.244-7.443l-36.344-.05s-.03 2.346-.128 5.421l-.017.655 36.723.015c6.783-.258 11.422 1.393 14.116 4.956 2.2 3.028 2.804 7.024 2.804 10.197 0 2.248-.302 4.056-.553 4.84-.017.025-.072.118-.072.118s-25.351 61.487-25.39 61.589c-3.579 9.137-13.656 14.384-29.138 15.163l-.72.051H60.147c5.19-1.54 12.673-6.55 15.291-13.167l-.053.128 17.66-41.638H88a13421.614 13421.614 0 0 1-16.674 39.288c-6.771 17.152-24.747 11.61-25.933 21.437h86.674c1.915-.25 27.887.128 35.398-19.062 0 0 25.232-61.184 25.232-61.197.92-1.285 3.184-13.122-2.753-21.301" fill="#4F99D9"/><path d="M129.087 88.284c3.17-13.965-1.413-27.016-12.912-36.726l-.264-.199-.022-.017a18.719 18.719 0 0 1-3.298-2.706 4.786 4.786 0 0 1-.246-.247l6.46 1.05c16.882 2.743 25.3-4.43 28.815-8.952 4.95-6.37 6.213-14.944 3.213-21.847-2.396-5.511-7.247-9.129-13.23-9.666H56.778l2.3 2.048 1.766 1.543a13.45 13.45 0 0 1 1.466 2.392c.009.023.022.044.032.066.923 2.008.984 3.906.358 6.153-.022.085-.048.17-.07.256-.018.063-.039.126-.058.184-.578 1.982-1.636 4.237-3.163 6.976-2.556 4.883-5.455 10.414-5.41 16.612v.219l.035.217c1.643 9.776 12.857 20.149 20.28 27.012 1.982 1.835 3.696 3.419 4.644 4.471 3.518 4.165 1.341 8.957.24 10.825-1.987 3.373-4.678 4.778-5.389 4.635l-.266-.051h-.273a9.962 9.962 0 0 1-8.428-4.709c-2.458-3.999-2.053-9.677 1.138-15.995l1.428-2.829-3.001-1.006c-3.544-1.191-11.212-6.907-12.896-14.737l-1.16-5.412-3.6 4.201c-8.925 10.42-10.304 19.133-11.521 26.826-.85 5.358-1.58 9.988-4.778 14.571l-.11.162-.09.175c-4.624 9.174-12.514 12.795-18.276 15.434-4.151 1.907-7.43 3.409-7.963 6.618l-.528 3.187h92.259c16.673.047 29.138-11.443 33.343-30.734zm-4.873-49.88c-.366 2.706-4.618 5.17-6.082 5.824l-6.77 3.013c-2.941-3.765-3.673-8.049-2.371-10.822 1.63-3.465 6.358-4.382 12.686-2.5 1.843.673 2.758 2.863 2.537 4.484zm-89.17 58.028c3.835-5.566 4.735-11.23 5.601-16.706.99-6.27 2.026-12.724 7.286-20.26 2.822 5.776 7.822 10.208 11.98 12.48-3.896 9.444-1.593 15.727.264 18.75 2.745 4.464 7.687 7.253 12.929 7.31 4.143.564 8.483-3.31 10.818-7.273 3.532-5.985 3.221-12.42-.833-17.212-1.172-1.304-2.887-2.888-5.053-4.894-6.407-5.928-17.085-15.81-18.55-23.712.05-4.74 2.453-9.333 4.78-13.778 2.72-5.188 5.708-11.254 3.676-16.574 0 0 68.486.047 69.222.003l-.009.012c3.984.357 7.056 2.577 8.652 6.25 2.175 5.01 1.166 11.558-2.515 16.293-3.613 4.644-9.282 7.177-16.338 7.41 1.32-1.47 2.396-3.255 2.69-5.366.481-3.441-.94-8.547-5.286-10.156-8.532-2.954-17.06-1.883-20.329 5.08-3.236 6.88.575 16.369 8.669 21.71 9.81 8.32 13.729 19.429 11.03 31.32-3.664 16.826-13.86 26.456-27.975 26.418H15.686c6.034-2.805 14.27-7.163 19.359-17.105zm78.484 63.156c-4.324 5.026-10.031 7.46-20.119 8.184.433.034 31.686 1.515 38.852-15.44l16.946-39.123s3.384-7.477-5.447-7.098c0 0-7.273-2.443-10.537 6.447-11.175 27.458-18.142 46.093-19.695 47.03zm24.44-44.906c2.37-5.618 4.443-2.694 6.077-3.17-.008 0-16.197 37.44-16.197 37.437-1.162 3.655-4.587 6.579-6.847 7.8 5.077-13.124 15.24-36.799 16.967-42.067z" fill="#4F99D9"/><path d="M196.684 98.782c-.051-4.958-.987-9.892-4.413-14.609-4.788-6.334-11.827-8.5-21.87-8.115l-36.118-.026s-.247-9.396-5.822-15.95c13.575.726 20.661-5.447 23.81-9.495 4.644-5.973 6.044-13.882 3.724-20.53.609-4.419.077-8.908-1.672-12.932-2.966-6.83-8.92-11.131-16.334-11.799l-92.56-.049L57.85 15.855c1.846 2.687 2.205 3.304-1.813 10.971-2.213 4.228-4.877 9.329-5.633 15.108l-6.545 7.635C34.232 60.805 32.7 70.494 31.47 78.273c-.808 5.098-1.444 9.126-4.14 12.993l-.269.383-.208.417c-4.024 7.983-10.92 11.146-16.461 13.687-4.56 2.094-9.27 4.252-10.133 9.456l-1.264 7.618h11.439c-.932.86-1.166 1.532-1.374 2.783l-.302 2.273h74.421L67.134 165.92c-3.188 8.06-9.05 10.107-14.723 12.078-5.003 1.745-10.675 3.72-11.473 10.342l-.49 4.09h4.116s8.035.025 8.067.017c-1.352 1.038-2.258 2.387-2.494 4.35h86.668c1.92-.248 27.888.131 35.403-19.059 0 0 25.233-61.184 25.233-61.2.791-1.107 2.578-10.066-.758-17.756zM6.719 119.018H3.486l.528-3.187c.532-3.21 3.812-4.711 7.963-6.618 5.762-2.639 13.652-6.26 18.276-15.434l.09-.175.11-.162c3.198-4.583 3.928-9.213 4.778-14.571 1.217-7.693 2.596-16.406 11.521-26.826l3.6-4.2 1.16 5.41c1.684 7.831 9.352 13.547 12.896 14.738L67.409 69l-1.428 2.829c-3.191 6.318-3.596 11.996-1.138 15.995a9.962 9.962 0 0 0 8.428 4.709h.273l.266.05c.71.144 3.402-1.26 5.39-4.634 1.1-1.868 3.277-6.66-.24-10.825-.95-1.052-2.663-2.636-4.645-4.471-7.423-6.863-18.637-17.236-20.28-27.012L54 45.423v-.219c-.045-6.198 2.854-11.729 5.41-16.612 1.467-2.794 2.555-5.02 3.163-6.976.02-.058.04-.12.057-.184.026-.085.047-.17.071-.256.626-2.247.565-4.145-.358-6.153-.01-.022-.023-.043-.032-.066a13.45 13.45 0 0 0-1.466-2.392l-1.766-1.543-2.345-2.048h80.868c5.984.537 10.835 4.155 13.231 9.666 3 6.903 1.736 15.478-3.213 21.847-3.515 4.521-11.933 11.695-28.815 8.952l-6.46-1.05c.076.083.161.166.246.247.94.97 2.03 1.888 3.298 2.706l.022.017.132.081.132.118c11.499 9.71 16.082 22.76 12.912 36.726-4.205 19.29-16.67 30.78-33.343 30.734H6.719zm185.977-10.669c0 .013-25.232 61.197-25.232 61.197-7.511 19.19-33.483 18.811-35.398 19.062H45.392c1.186-9.827 19.162-4.285 25.933-21.437 0 0 9.396-22.036 16.674-39.288h5.047l7.698-.55c16.673.043 28.02-10.298 32.22-29.586.557-2.451 1.119-8.158 1.263-12.771.098-3.075.128-5.42.128-5.42l36.344.049c8.78-.334 15.256 2.168 19.244 7.443 5.937 8.18 3.673 20.016 2.753 21.301z" fill="#0F2752"/><path d="M118.132 44.228c1.464-.654 5.716-3.118 6.082-5.825.221-1.62-.694-3.796-2.537-4.483-6.328-1.883-11.056-.966-12.686 2.499-1.302 2.773-.57 7.057 2.37 10.822l6.771-3.013m19.836 70.454c-1.728 5.268-11.89 28.943-16.967 42.067 2.26-1.221 5.685-4.145 6.847-7.8 0 .004 16.189-37.438 16.197-37.438-1.634.477-3.706-2.447-6.077 3.17m23.819 78.132h1.694v4.515h1.064v-4.515h1.694v-.783h-4.452v.783m8.584 3.004l-1.494-3.787h-1.468v5.298h.966v-4.37l1.71 4.37h.55l1.63-4.37v4.37h.966v-5.298h-1.468l-1.392 3.787" fill="#0F2752"/></g></svg>