<svg width="200" height="200" xmlns="http://www.w3.org/2000/svg"><g fill-rule="nonzero" fill="none"><path fill="#174B33" d="M146.364 76.7V95.1h-29.438v-4.05H97.264v12.11h22.086v11.741H97.264v14.606l8.45 3.398v16.003l-50.575-20.3v-15.953l8.67 3.473V91.051h-8.67V76.7h91.225M141.96 28.314h-31.813V25.12H89.45v10.433h36.797c5.873 0 10.696.94 14.466 2.821 3.77 1.876 5.651 4.133 5.651 6.763v15.15c0 2.471-2.073 4.579-6.225 6.323-4.153 1.746-9.04 2.618-14.66 2.618H54.88V52.771h34.685v3.76h20.581V45.943h-35.26c-6.39 0-11.66-1.057-15.812-3.173-4.153-2.117-6.228-4.567-6.228-7.352V21.263c0-2.946 2.46-4.5 7.38-6.109 4.916-1.606 10.57-2.41 16.959-2.41h64.774v15.57"/><path d="M167.144 11.486s-7.084 0-7.084 6.393v94.714c0 10.568-2.058 22.635-15.067 28.871-21.002 10.07-38.643 18.904-45.334 18.867-6.691.037-24.333-8.798-45.335-18.867-13.008-6.236-15.067-18.303-15.067-28.87V17.878c0-6.393-7.083-6.393-7.083-6.393H0v28.466h5.755s5.807-.63 5.655 5.177c-.118 4.503 0 65.52 0 65.52-.433 19.186 3.603 45.331 40.282 59.046 28.566 10.682 40.545 18.365 47.967 18.365 7.421 0 19.402-7.683 47.968-18.365 36.678-13.715 40.714-39.86 40.28-59.046 0 0 .118-61.017 0-65.52-.152-5.808 5.656-5.177 5.656-5.177h5.755V11.486h-32.174" fill="#FAB41D"/></g></svg>