<svg width="200" height="200" xmlns="http://www.w3.org/2000/svg" xmlns:xlink="http://www.w3.org/1999/xlink"><defs><path id="a" d="M0 0h186.998v200H0z"/></defs><g fill="none" fill-rule="evenodd"><g transform="translate(7)"><mask id="b" fill="#fff"><use xlink:href="#a"/></mask><path d="M152.33 26.129c-12.69-10.971-27.297-18.49-42.59-22.51-.39-.114-.77-.229-1.169-.342l-5.404-1.21C98.83 1.135 89.69-.365 77.21.081l-5.244.31c-3.573.32-13.216 1.54-25.591 5.946L41.62 8.378c-3.616 1.503-11.157 5.096-21.06 12.288l-3.822 3.175C14.322 25.83 8.127 31.2 2.79 38.077l-2.808 3.616 36.803 23.394 3.415 3.045 5.611 5.247c-4.225 4.235-7.196 8.165-9.074 12-.48.948-11.84 23.548-20.772 52.076l-2.58 8.235 17.789-6.851-15.477 61.179 7.69-3.21c.311-.13 31.387-13.088 52.282-19.524l15.05-4.276.112-.032.084-.08c3.246-3.149 5.473-7.429 6.632-12.739l6.105 12.72.382-.13a19.08 19.08 0 0 1 5.735-1c21.047-.431 45.142 8.465 45.383 8.556l12.798 4.757-30.33-42.09 24.319 26.276 3.002-3.687c.222-.273 5.497-6.814 10.763-17.59l2.032-4.418c.234-.528.496-1.144.778-1.83 17.294-40.641 7.948-86.08-26.185-115.592" fill="#FFFFFE" mask="url(#b)"/></g><path d="m107.205 63.16-.02.026c.123.034.243.057.369.09-.123-.035-.23-.079-.349-.116" fill="#1B69A3"/><path d="m172.152 115.933-17.586-8.59c.197 4.73-.184 8.551-1.156 13.362l18.742-4.772M169.727 91.113l-18.352-3.32a65.255 65.255 0 0 1 3.03 14.326l15.322-11.006M162.177 69.122l-20.232 2.148a64.273 64.273 0 0 1 7.472 12.972l12.76-15.12M140.009 68.8l7.876-18.153-18.682 7.807A63.488 63.488 0 0 1 140.01 68.8M114.291 50.13a63.014 63.014 0 0 1 13.183 7.076l2.574-19.56-15.757 12.483M104.322 47.116a67.195 67.195 0 0 1 6.897 1.893l-3.126-19.311-11.306 16.26c2.5.242 5.016.616 7.535 1.158M78.763 46.858a63.105 63.105 0 0 1 14.428-1.128l-8.42-17.318-6.008 18.446M59.374 54.071 42.42 43.688l4.988 19.164c3.537-3.255 7.802-6.399 11.965-8.78M62.24 52.532a63.347 63.347 0 0 1 13.357-4.974l-12.68-14.144-.676 19.118M148.019 136.432c2.253-3.83 3.327-6.103 4.649-10.478l13.669 12.771-18.318-2.293" fill="#F2B12F"/><path d="M51.943 11.554s-8.806 2.945-21.91 12.46L54.77 42.26l-2.828-30.705M80.951 4.424s-10.87.383-26.152 5.823l20.174 24.416 5.978-30.24M111.084 6.56s-10.498-2.898-26.716-2.32l11.828 29.335L111.084 6.56M138.986 17.304s-9.15-5.881-24.824-10.138l2.55 31.493 22.274-21.355M141.736 18.928l-6.933 30.81 27.642-13.802s-7-8.317-20.709-17.008M178.608 60.09s-4.233-9.994-14.778-22.314L148.1 65.171l30.51-5.081M187.385 87.747s-1.053-10.797-7.445-25.675l-23.223 21.475 30.668 4.2M187.977 116.455s1.839-10.342-.223-25.885l-27.326 13.983 27.55 11.902M157.258 124.394l22.607 19.695s4.918-9.287 7.705-24.707l-30.312 5.012M27.654 26.037s-7.98 6.098-14.572 14.589l26.283 16.706-11.71-31.295" fill="#233A82"/><path d="M107.553 63.277c.22.07.421.146.638.214l.046-.044c-.235-.068-.454-.108-.684-.17" fill="#1B69A3"/><path d="M120.528 159.517c.032.01.061.015.092.018 7.27.204 15.26 1 23.607 2.832l-25.742-35.066c2.683 1.19 7.012 3.646 10.59 5.754 2.49-5.284 2.808-14.785 2.685-19.164-3.392-38.727-38.364-40.947-38.364-40.947-34.777-2.818-43.9 31.477-43.9 31.477 2.609-2.578 37.867-.986 37.867-.986-5.66 22.8-32.447 23.257-32.447 23.257l-12.988 51.537 42.62-14.638c.002-.005.002-.007.006-.011 9.906-3.666 15.88-21.868 15.88-21.869l12.319 26.047-8.058-17.037s4.73 7.268 15.833 8.796" fill="#F2B12F"/><path d="M112.753 167.758c22.81-1.743 50.848 8.63 50.848 8.63l-27.273-38.011c4.018-12.768 3.325-23.695 3.325-23.695-1.364-21.09-12.627-40.584-34.948-47.626 0 0-15.693-5.358-28.76-.654 0 0 9.641-9.103 31.238-3.215l1.009.306c22.604 7.116 31.789 24.06 35.516 37.717 1.138 4.442 3.541 15.005 1.043 34.17 0 0 5.886-11.052 5.46-25.897l-.014-.016c-.399-31.616-26.195-57.923-58.578-58.473-18.07-.307-32.85 9.622-39.783 15.762l7.043 6.586c-3.837 3.509-8.73 8.398-11.412 13.89 0 0-11.462 22.518-20.525 51.46l9.014-3.47s.346-1.326 1.128-3.535c6.272-17.98 8.288-18.752 8.288-18.752 2.646-3.185 8.724-3.205 8.724-3.205l21.586-.538s-3.857 10.91-28.564 11.278L28.78 192.953s49.278-20.57 66.171-23.042c.018-.004.038-.01.055-.01l.034-.013c-.008.002-.022.003-.03.007 9.493-9.207 5.423-28.184 5.423-28.184s-5.974 18.203-15.88 21.869c-.004.004-.004.006-.006.01l-42.62 14.639 12.988-51.537s26.788-.458 32.447-23.257c0 0-35.258-1.592-37.867.986 0 0 9.123-34.295 43.9-31.477 0 0 34.972 2.22 38.364 40.947.123 4.379-.195 13.88-2.685 19.164-3.578-2.108-7.907-4.564-10.59-5.754l25.742 35.066c-8.346-1.832-16.337-2.628-23.607-2.832a.471.471 0 0 1-.092-.018c-11.102-1.528-15.833-8.796-15.833-8.796l8.058 17.037" fill="#233A82"/><path d="M178.952 146.14c-5.127 10.49-10.247 16.78-10.247 16.78l-21.273-22.557 31.52 5.777" fill="#233A82"/></g></svg>