<svg width="200" height="200" xmlns="http://www.w3.org/2000/svg"><g fill="#751D35"><path d="M146.715 165.713h-2.383v6.15h-1.114v-6.15h-2.384v-1.102h5.881v1.102zm9.205 6.15h-1.106v-6.15h-.035l-2.49 6.15h-.679l-2.415-6.15h-.037v6.15h-1.107v-7.252h1.812l2.097 5.116 2.162-5.116h1.798v7.253z"/><path d="M107.6 138.653H94.13v-19.025h13.47v19.025zM65.58 98.481H52.687V62.517H65.58V98.48zm112.005-52.543V1.194h-28.548v9.01l-9.052-9.01H86.269L65.58 26.307v15.06H44.95L24.137 62.086v36.82l20.812 20.722h20.63v19.454l20.813 20.721H107.6v19.023H52.687v-17.114h-28.55v38.263h28.548v-9.012l9.053 9.012h53.592l20.812-20.72v-19.452h20.63l20.813-20.72v-22.78h-28.548v22.35h-12.895v-19.454L115.33 98.48h-21.2V62.514h13.47v16.999h28.542V41.367H107.6v9.005l-9.05-9.005h-4.42V22.341h54.907v23.597h28.548z"/></g></svg>