<svg width="200" height="200" xmlns="http://www.w3.org/2000/svg"><g fill-rule="nonzero" fill="#751D35"><path d="M145.105 164.889h-2.371v6.12h-1.109v-6.12h-2.371v-1.097h5.851v1.097Zm9.16 6.12h-1.101v-6.12h-.035l-2.478 6.12h-.675l-2.403-6.12h-.038v6.12h-1.1v-7.217h1.802l2.087 5.091 2.151-5.09h1.79v7.216Z"/><path d="M106.184 137.963H92.782v-18.93h13.402v18.93Zm-41.81-39.972H51.545V62.205h12.829v35.786ZM175.82 45.709V1.19h-28.405v8.965l-9.008-8.966H84.96L64.374 26.177V41.16H43.846l-20.71 20.616v36.638l20.71 20.618h20.528v19.357l20.708 20.618h21.102v18.929H51.545v-17.03H23.137v38.073h28.406v-8.967l9.007 8.967h53.326l20.709-20.616v-19.356h20.528l20.709-20.618v-22.666h-28.406v22.24h-12.831v-19.358L113.876 97.99H92.782V62.203h13.402v16.914h28.4V41.161h-28.4v8.96l-9.005-8.96h-4.397V22.23h54.634v23.48h28.405Z"/></g></svg>