<?xml version="1.0" encoding="UTF-8"?>
<svg width="200px" height="200px" viewBox="0 0 200 200" version="1.1" xmlns="http://www.w3.org/2000/svg" xmlns:xlink="http://www.w3.org/1999/xlink">
    <!-- Generator: Sketch 51.3 (57544) - http://www.bohemiancoding.com/sketch -->
    <title>santa-clara</title>
    <desc>Created with Sketch.</desc>
    <defs></defs>
    <g id="santa-clara" stroke="none" stroke-width="1" fill="none" fill-rule="evenodd">
        <g id="santa-clara_BGL" transform="translate(24.000000, 0.000000)" fill="#751D35">
            <g id="santa-clara">
                <g id="g10" transform="translate(76.884422, 100.932131) scale(-1, 1) rotate(-180.000000) translate(-76.884422, -100.932131) translate(0.000000, 0.934657)" fill-rule="nonzero">
                    <g id="g12">
                        <path d="M122.715338,35.2165315 L120.331908,35.2165315 L120.331908,29.0656956 L119.217681,29.0656956 L119.217681,35.2165315 L116.834251,35.2165315 L116.834251,36.3181539 L122.715338,36.3181539 L122.715338,35.2165315 Z M131.9204,29.0656956 L130.81419,29.0656956 L130.81419,35.2165315 L130.779454,35.2165315 L128.289143,29.0656956 L127.610454,29.0656956 L125.19496,35.2165315 L125.157552,35.2165315 L125.157552,29.0656956 L124.051341,29.0656956 L124.051341,36.3181539 L125.862961,36.3181539 L127.960487,31.2021674 L130.12214,36.3181539 L131.9204,36.3181539 L131.9204,29.0656956 Z" id="path66"></path>
                        <path d="M83.5998334,62.2766448 L70.1302482,62.2766448 L70.1302482,81.301645 L83.5998334,81.301645 L83.5998334,62.2766448 Z M41.5798578,102.448752 L28.6874261,102.448752 L28.6874261,138.413092 L41.5798578,138.413092 L41.5798578,102.448752 Z M153.58503,154.991963 L153.58503,199.735231 L125.037311,199.735231 L125.037311,190.724859 L115.984553,199.735231 L62.2692048,199.735231 L41.5798578,174.622178 L41.5798578,159.562326 L20.949295,159.562326 L0.137035729,138.844057 L0.137035729,102.022841 L20.949295,81.301645 L41.5798578,81.301645 L41.5798578,61.8472754 L62.3921171,41.126346 L83.5998334,41.126346 L83.5998334,22.1032079 L28.6874261,22.1032079 L28.6874261,39.2173283 L0.137035729,39.2173283 L0.137035729,0.955037359 L28.6847541,0.955037359 L28.6847541,9.96673956 L37.7375124,0.955037359 L91.3299484,0.955037359 L112.142208,21.6741046 L112.142208,41.126346 L132.772771,41.126346 L153.58503,61.8472754 L153.58503,84.6269964 L125.037311,84.6269964 L125.037311,62.2766448 L112.142208,62.2766448 L112.142208,81.7310144 L91.3299484,102.448752 L70.1302482,102.448752 L70.1302482,138.415752 L83.5998334,138.415752 L83.5998334,121.416822 L112.142208,121.416822 L112.142208,159.562326 L83.5998334,159.562326 L83.5998334,150.557275 L74.5497471,159.562326 L70.1302482,159.562326 L70.1302482,178.588657 L125.037311,178.588657 L125.037311,154.991963 L153.58503,154.991963 Z" id="path68"></path>
                    </g>
                </g>
            </g>
        </g>
    </g>
</svg>