<svg width="200" height="200" xmlns="http://www.w3.org/2000/svg"><g fill="none"><path d="M83.376 88.22c-.266-1.325-1.4-1.782-2.322-2.452v1.29c.77.39 1.24 1.082 2.322 1.162m6.191-7.353c-.209-1.428-1.252-3.134-3.225-3.225-.003.906.439 1.368.902 1.805 1.021.227 1.418 1.077 2.323 1.42m29.578 26.915.01.159c0-.054 0-.109.002-.16h-.012m-.543-6.168c-.014.042-.011.085-.023.128a4.61 4.61 0 0 1 .228-.5c-.07.124-.14.247-.205.372m19.727 22.854c.303 1.03.403 2.262.902 3.097.537-.02.725.04 1.153.028l-.002.004 2.252-3.158c-1.303-.14-3.285-.35-4.305.029M74.602 89.123c-.065.711.01 1.28.386 1.547.529.279.937.956 1.807 1.033.164-1.54-1.288-1.464-1.418-2.709-.272-.284-.573-.027-.775.129m40.507-6.193c-1.115.11-2.272.805-3.316.162-.167.35-.426.318-.812.87 1.388.337 4.039.676 4.128-1.032m12.641-18.06c-1.173 1.617-3.19 3.154-3.096 5.805 2.816-.152 3.04-2.892 3.096-5.804m-12.191 8.749c-1.592.36-3.572-.383-4.45.28.321.926.501 1.994.902 2.838 1.357-.02 2.707-.038 3.742.26-.139-1.166-.005-2.363-.194-3.379m-8.964 7.507c.18-1.256-.244-1.91-1.031-2.194-.313.899.273 1.942 1.03 2.194m1.936-39.346c-.952.477-2.4 1.55-2.837 2.967 2.024.092 2.994-.875 2.837-2.967m3.869 38.055c-1.512.852-3.019 1.712-4.385 2.708 1.702 2.611 4.64-.39 4.385-2.708m-8.514 33.798c-.032-.019-.092.013-.13 0-.628 1.765-2.245 3.25-1.933 5.03.183 1.05 1.074 1.691 1.677 2.58.644.951.835 1.988 1.677 2.579 1.318-.229 1.188-1.908 2.321-2.32.034-1.524-.733-2.788-1.677-4.388-.755-1.281-1.278-3.117-1.935-3.481m-1.935-10.579c-.618 1.015-1.277 1.99-1.936 2.967.345 2.47-1.55 5.434.26 6.967.447-1.273 1.131-2.31 2.063-3.098.04-.262.35-.252.387-.515-.802-1.5-.814-4.395-.773-6.32m13.673 36.764c.106 1.688-1.16 2.948-1.806 4.257 2.264-.103 2.823-2.247 3.353-3.741.12-.824-1.15-.987-1.547-.516m-6.708-2.324c.758 1.353-.884 2.097-1.161 3.227 1.87.018 3.456-1.36 3.226-3.87-.53-.94-1.877.019-2.065.643m-6.579-6.836c.027.8-.185 1.528-.277 2.226l.186.726c.788-.21 1.164-1.668 1.253-2.952-.176-.476-1.072-.76-1.162 0m1.032 4.241.016-.015a.85.85 0 0 1-.355.142c-.057-.009-.097-.047-.145-.07l.02.067.166.035.298-.159" fill="#FFF"/><path d="M103.614 134.715c-.114.1-.24.192-.388.26l.351-.22.037-.04m.226-.507c-.052.096-.107.19-.162.287l.027-.045.136-.242m-.16.289c-.043.065-.084.13-.13.193l.031-.036.1-.157m.664-.727.116.032c-.056-.037-.103-.053-.163-.103-.13.097-.237.219-.337.352l.337-.348.047.067m2.094 9.997c1.212-.072 2.366-.377 3.292-.702.225.334.487.586.708.786-.49.307-1.065.856-1.085 1.878l-.02 1.052 1.01.289c1.558.445 2.866.39 4.342-.164.58-.217 1.15-.577 1.707-.958l-.037.14-.341 1.47 1.494.197c.328.043.648.066.956.066 1.506 0 2.537-.526 3.384-1.022l.2-.115c.61-.36.861-.74 1.521-.827l.698-.114.54-.646c.265-.474.265-.957.381-1.481l.874-.646c1.478-1.187 2.14-2.874 2.201-4.637.02-.493-.142-1.172-.251-1.67-.137-.622-.174-.675-.447-1.051-.095-.133-.24-.332-.279-.42l.144-.542-.373-.524c-.531-.744-1.276-1.174-1.933-1.551-.658-.38-1.078-.634-1.216-.988-.001-.096.013-.195.021-.294.021-.224.046-.478.021-.753-.072-.791-.273-1.544-.47-2.27-.084-.316-.166-.623-.235-.926 1.378-.11 2.561-.39 3.716-.665.165-.038.328-.078.492-.115l.785 1.766c.078.17.158.336.236.503 0 0 .265.536.352.708 0 0 .276.526.375.706 0 0 .29.507.388.671 0 0 .316.507.422.665l.567.795c.125.165.494.608.494.608.137.16.533.578.533.578.154.157.315.31.475.456 0 0 .449.386.635.527l.082.06c.06.047.564.471.564.471l-9.168 12.855c-.622.87-3.128 2.183-5.494 2.183h-23.22l7.458-10.766v.005c.106.452.305.785.518 1.036-.33.227-.636.522-.873.917l-.805 1.341 1.435.62c.937.404 2.06.566 3.225.498zm-2.852-7.756-9.984 14.412c-.226.316-.247.5-.24.53.054.136.663.53 2.043.53H118.7c2.735 0 5.675-1.45 6.607-2.754l10.09-14.147c-3.832-1.69-5.467-5.743-7.133-9.6-2.118.419-3.974 1.101-6.577 1.033.026 1.623.768 3.144.903 4.644.032.374-.122.907 0 1.29.493 1.57 2.51 1.786 3.353 2.968-.26.972.846 1.593 1.033 2.451.465 2.134-.633 3.83-1.807 4.772-.298-.56.363-1.269.129-2.193-1.25.858-.92 3.293-1.678 4.643-2.272.308-2.96 2.2-5.931 1.807.233-.997 1.348-.888 1.158-2.065-.372-2.336-2.863.624-4.643 1.291-1.33.497-2.431.577-3.528.264.02-1.057.17-.743 1.49-1.788-.28-1.225-1.688-1.165-1.623-2.736-1.683.79-4.695 1.674-6.916.714.354-.591 1.067-.95 1.805-1.16-.113-1.184-1-.862-1.205-1.747-.465-2.009 1.63-3.491 1.575-5.452-.478-.11-.732.161-1.012.28h.03l-1.233 2.013zm32.683-2.797c.025.03.053.06.077.092l.002-.001c-.024-.033-.054-.06-.079-.091m-60.488-22.135c1.277-.417 3.563.3 5.011.36.069.627-.548.57-.515 1.161 1.936 1.496 4.59 2.694 7.997 2.322-1.76-1.894-4.498-2.812-5.546-5.418 1.975-.21 2.807 1.8 4.384 2.838 1.1.723 2.816.969 4.387 1.29 2.517.514 4.456 2.112 6.708.515-.238-1.572-.633-2.997-.514-4.772.003-.052.01-.104.014-.157l-16.28.018c-2.096 0-4.305.856-5.646 1.843M51.329 86.346l11.435-.004c-1.905-.146-4.116.018-6.092-.057 1.332-.922 5.158-.301 5.418-1.934.196-1.23-1.64-1.723-3.095-1.42-2.645.623-3.82 3.148-7.533 3.406-.045.003-.089.005-.133.009m96.157 64.566c1.35-.059 2.525.057 3.742.129.854-1.253.323-3.894.774-5.547 2.606-1.434 3.165-4.917 4.128-7.999-1.564-1.252-3.64-1.988-4.741-3.699l-2.045 2.867c.767.051 1.337.435 1.884.705-.056.16-.13.188-.388.258.398.779 1.035 3.025.388 4.514.074.166.075.132.13.259.146.305-.171.153-.26.129-.98 1.917-1.584 4.218-3.353 5.418-1.706 1.154-3.937.037-6.513.09l-.86 1.205c1.238.384 1.512 1.786 3.244 1.671.992.215 2.882.215 3.87 0" fill="#FFF"/><path d="M121.428 139.819c.518 1.711-.413 3-.644 4.386 1.384-.278 2.685-2.353 2.192-4.515-.517-.182-1.242-.434-1.548.129m-4.77-63.467c1.487-.705 1.666-2.718 1.932-4.643-.856-.085-1.157.387-1.806.514.043 1.462-.227 2.61-.126 4.129M68.281 92.089c.073 1.046.514 2.308 1.452 2.491.665-.452-.372-1.672-.418-2.233-.08-.18-.06-.457-.13-.644-.426.005-.913-.053-.904.386m47.472-9.288c.931-.53 1.905-1.6 2.102-2.868-.792.327-1.693 1.129-2.49 1.45.192.411.557.648.388 1.418m-8.901-27.347c2.058-.951 3.882.332 5.03 1.42.932.636 2.337-2.38.517-1.807-.1.03-.127.067-.258.13-1.837.068-3.123-2.593-4.515-.646-.334-1.3-1.99-1.277-2.193-2.708-.72-.335-1.774 0-2.062.515.888 1.305 2.089 2.296 3.481 3.096m-9.934 8.386c.013 1.163.144 1.748 0 2.837 1.409.442 1.416 2.283 3.483 2.064.11-2.123-1.37-4.372.26-6.064-1.6-.33-2.85.4-3.743 1.163m11.612-1.033c-.515-.043-.718.23-1.292.13-.432.08-1.197-.167-1.418.127 1.095.498.641 2.543 2.71 2.065.029-.415-.228-.546-.129-1.033-.044-.515.23-.714.129-1.29M78.262 91.918l.049.093-.044-.093h-.005" fill="#FFF"/><path d="M120.011 67.323c-1.763 2.148-6.396.532-8.387-.259 2.298.068 5.762.085 8.387.259zm-4.516-3.483c-.187.455-.683.606-.902 1.03.957.764 3.463.602 4.774.259-.285 1.82-4.782 1.484-6.193.515.213-1.162 1.146-1.603 2.32-1.804zM112.657 69c1.961-.46 4.748.469 6.58-.259-.562 1.768-5.042.936-6.58.258zm-22.316 5.803c.676-.182.444-1.275 1.29-1.289-.307 3.487 1.922 4.442 4.643 4.902.053-1.009-.492-2.311.517-2.58.348 1.5.964 2.734 2.58 2.967.323-.751.773-1.375 1.162-2.065 1.266 2.33-1.807 4.446-.519 7.224 2.217 1.182 3.706 3.089 4.904 5.29 2.267.183 4.35.55 6.063 1.29.831-.416 1.338-1.156 2.322-1.419-.087-.861.249-1.3.258-2.065.911-.292 1.658-.748 1.805-1.806-5.514 1.619-12.694-.483-10.964-7.739-1.16.431-1.531 2.77-1.419 4.901.669 1.353 1.896 2.145 3.225 2.838-.354.531-.98 1.393-1.678 1.162-.276-1.633-2.084-1.832-2.45-3.096-.255-.875-.162-2.253-.13-2.967.145-3.134 2.94-5.537 2.968-8.514 1.386-.55 1.886-1.985 4.128-1.677 1.218 1.436 3.664 3.308 6.192 2.193-2.1-.609-4.38-1.037-4.773-3.354 1.391 1.768 3.102 2.51 5.934 2.193 1.651-.185 2.72-1.264 4.127-1.677 1.3-.383 2.874.088 3.613-.774.439-1.267-.424-2.201-.259-3.612-.873-.365-1.167-.945-1.16-1.935-.46-.572-1.376-.688-2.194-.903-1.11-.715-2.883.229-3.742.129-1.573-.225-3.562-.188-4.323 1.102a.683.683 0 0 1-.054.035c-.004.008-.004.017-.008.024.057-.114-.899.906-1.806 1.16-1.513 1.457-3.628 2.306-3.741 5.16-.875-.503-.722-2.394-.257-3.224-.39-.6-.995-.982-1.031-1.935-2.098-.204-2.807.978-3.742 1.935-.934 3.47 3.67 5.223 1.161 8.256-.043-1.617-.622-3.08-2.322-2.322 1.121-2.031-2.135-1.582-3.355-1.162 1.406-2.672-2.647-2.55-3.741-1.419-.539-3.145 1.048-5.094 1.806-7.353-.517-.383-1.234.139-1.548.387-.245-1.578.642-3.14 1.162-4.385.074-.547-.348-.598-.645-.774.645-.99 2.263-2.182 1.16-3.74.381-.179.523-.597.903-.775-1.02-.116-2.722.202-3.612.645-.203 1.259-1.565 2.046-2.45 2.193-.032-.592.584-.535.515-1.161-1.504.259-1.943 1.582-3.095 2.192-1.108.829-1.798 2.074-2.323 3.484-1.006 3.631-3.493 12.263 2.064 12.771-.256-1.55-.882-2.73-.644-4.773-.175-.256-.901.04-.903-.387-.144-3.24 1.367-4.826 2.321-6.965-.285.055-.7.296-.774-.13 1.296-1.456 2.603-3.588 4.514-4-.214.991-.84 1.567-1.03 2.581.498.019 1.132-.1 1.29.258-2.635 2.01-3.766 5.523-3.87 10.062.669-.062.994-.47 1.675-.516-.563 1.354-.592 4.106.26 5.16z" fill="#FFF"/><path d="M101.95 60.743v3.483c.996.007 1.227-.75 2.323-.645-.222-.466-.45-.927-.517-1.548-.346-.685-1.022-1.041-1.805-1.29m-22.447 3.999v.773c.121.582 0 1.19 0 1.55-.087 1.377.236 2.343.388 3.48-1.863-.784-1.535-3.601-1.42-6.061-.7-.848-2.483-.612-3.998-.644-.165.866-.545 1.518-.517 2.578a6.31 6.31 0 0 1 0 1.29c-.05.868.27 1.364.517 1.936 1.475-.502 2.524.99 3.742 1.419.988.35 1.966.106 2.707.646 1.024.743 1.093 2.781 2.838 2.45.022-3.418-2.853-5.498-1.29-8.9-1.303.143-1.967-.353-2.967-.517m10.063-18.575c-.326 1.733 1.073 2.883 1.547 4.902-.284.274-1.016.102-1.16.515.748.326 1.458.692 1.29 1.935 1.264-.37 2.134-1.133 2.58-2.322-1.909-.242-1.263-3.037-1.808-4.644.62-.8 1.072-1.766 1.678-2.58-.312-.331-.68-.609-1.03-.903-1.094.922-2.853 1.8-3.097 3.097M72.411 63.84c-1.45.357-2.604 1.01-3.613 1.804v1.806c1.49.275 2.323 1.204 3.74 1.55-.77-1.39-.755-3.607-.127-5.16m38.054-5.806c-1.252-.048-1.628.781-2.968.645-.524-.335-.727-.992-1.289-1.29-.476 1.124.605 1.801.774 2.71 1.197-.008 2.04-.369 2.708-.904.223-.422.68-.61.903-1.032-.049-.045-.049-.045-.128-.13m29.391 70.488c-.163.064-.334.119-.5.179.164-.059.336-.11.497-.173l.003-.006M109.82 53.648c-.002-.857-.802-.916-.774-1.805v-.646c0 .215-.01.11-.13.129-.47-.083-.687.087-.902.258-1.138 1.284.84 1.717 1.806 2.064M78.577 92.544c.036.163.048.324.065.486a5.436 5.436 0 0 0-.009-.198 2.033 2.033 0 0 0-.056-.288m-.199-.502c.05.11.097.222.141.334l-.049-.131-.092-.203m21.307 26.435h-.107l.187.107c-.028-.034-.05-.072-.08-.107m-24.311-4.898c.985.65 1.962 1.32 2.913 1.972l1.108.757c.4.274.81.55 1.226.83l-7.784-.004 2.537-3.555zm-5.192 4.922 15.212.007c-3.631-2.072-6.856-4.552-10.342-6.77-.077.085-.167.171-.228.256l-4.642 6.507z" fill="#FFF"/><path d="M60.968 93.426c1.364 1.833 3.75 2.643 5.25 4.34-.727.634-2.39.337-3.225 0 .33 2.035 1.381 3.348 2.84 4.256-.192.063-.358.09-.535.134l28.706-.003c-1.188-.077-2.144-.386-2.373-1.42.663.063 1.08-.124 1.419-.387-.343-2.367-2.324-3.095-3.613-4.516 1.51-.219 2.783.916 4.644.775.68 1.52 2.387 3.58 4.128 1.804 1.059.922 1.907 2.05 1.805 4.13 1.538-.356 1.662-2.125 2.323-3.354-1.394-4.366-5.68-5.844-7.352-9.934-.35.854-.76 1.647-.774 2.838-1.152-1.33-.243-4.012.515-5.031-.337-1.253.105-3.286-.386-4.385-.6.048-.733.558-1.29.645.027-.704-.09-1.55.129-2.065-.643-.303-1.522-.37-2.065-.773-.189 1.057-.232 2.262-.773 2.968-.792-.592-.835-1.449-1.805-1.548-1.31-.137-2.043 1.642-3.613 1.418.41 1.413-.226 2.188-.681 3.03h9.252l-5.047 7.077-9.402-.02-.43.02v-.11c-.005.065-.002.13-.014.193-1.152.035-1.783-.452-2.707-.644-.804.25-1.068.894-2.194.515-.93.402-1.38 1.285-2.194 1.807.236.667.58 1.227.775 1.933-2.157.268-2.5-1.282-3.741-1.933-2.325.294-3.413-.648-4.324-1.769l.006.009h-3.254m-1.02 7.362-21.726.003 2.65-3.814c.62-.87 3.126-2.185 5.492-2.185h12c.27.684.472 1.604.67 2.502.248 1.122.502 2.277.93 3.303l-.016.191zm-.696-7.28c.047-.046.126-.059.196-.082H46.364c-2.734 0-5.676 1.452-6.606 2.757l-4.153 5.976 27.522-.003c-2.807-1.012-2.435-6.339-3.875-8.648z" fill="#FFF"/><path d="M97.564 102.151c-.512-.06-1.068-.032-1.625.001h1.626v-.001m26.839 5.719c.023.067.039.148.062.215-.023-.067-.038-.15-.062-.214m36.163 10.629c1.018-.516 1.002-1.788 1.408-3.11-.408 1.321-.39 2.594-1.408 3.11m-9.497-.5c-.077.166-.14.337-.222.5.084-.163.145-.334.222-.5m-28.115-8.753H123l.01-.001h-.054m3.764-4.506c.149.573.334 1.127.5 1.691-.166-.564-.35-1.118-.5-1.691m49.92 42.688c-1.207.429-2.267 1.69-1.806 3.355.48-.639 1.106-1.13 1.805-1.55-.426-.62.41-1.23 0-1.805" fill="#FFF"/><path d="M196.893 151.556c-1.433 1.05-4.315-.295-5.934.645-1.025.597-.493 1.296-1.678 2.065-.422-.48-.571-1.234-.514-2.193-.624-.238-1.633-.087-2.45-.128-.728.434-.68 1.642-1.163 2.32-.87-.033-.84-1.108-.894-1.958-1.104-.2-2.177-.639-3.165-.348-.19.055-.27.099-.426.22-.623.483-.487 1.201-1.32 1.571-.446-.328-.535-1.013-.515-1.805-1.65-.735-3.993-.329-4.903.774-1.106-2.42.284-5.167 1.678-6.322.281-1.996 1.197-3.36 3.225-3.612-1.806-5.77-6.48-9.41-13.288-10.448-3.733-.57-8.216-.49-11.715-1.964l-1.571 2.202c.131.194.529.579.72.708 1.407.957 2.799 2.17 4.57 2.924v1.548c-.157 4.486-2.188 7.1-4.26 9.673.533 1.68.22 4.091-.644 5.16-4.715.168-10.13.534-14.582-.13.012-.026.03-.05.043-.075-3.103 3.99-11.147 7.08-18.578 7.08H87.36c-4.996 0-8.587-1.413-9.855-3.875-.816-1.584-.578-3.418.67-5.169l5.208-7.3h-46.19l5.69-7.977h41.55c2.732 0 5.675-1.451 6.606-2.756l4-5.61H2.656l5.69-7.976h46.191l6.628-9.292a11.9 11.9 0 0 1 .202-.272H21.233c-1.292 0-2.318-.552-2.815-1.515-.576-1.123-.321-2.589.7-4.023l6.974-9.99c2.948-4.132 11.204-7.36 18.802-7.36l2.06-.001c.218-.678.232-1.681.327-2.515-.103.852-.109 1.801-.412 2.453H45.32c1.313-4.201-.3-9.799 2.192-13.03.873-1.131 2.743-1.532 3.483-2.71.412-.652.424-2.062 1.032-2.965 1.77-2.63 5.955-3.008 8.256-5.417 2.787-2.917 2.283-9.768 5.03-11.74 1.071-.768 2.674-.679 3.871-1.419.963-.595 1.105-1.443 2.063-2.064 1.873-.275 3.059.61 4.646.515 2.14-.127 3.445-2.258 5.675-2.578 2.186-.315 3.611.47 5.804 1.16 1.89-2.153 4.48-3.603 5.935-6.191 2.038.024 3.429.698 5.16 1.032 1.548 1.622 2.187 4.827 4.903 3.999 2.015-.617 3.053-4.238 5.417-4.386 1.658-.105 2.336 1.654 3.999 2.063.29 1.172.677 2.248.645 3.741 2.44 1.815 4.361 4.152 6.192 6.58-.609 5.165 5.38 3.734 6.45 7.223.72.354 1.477.673 2.063 1.16.625 4.617.708 10.482-3.868 10.708-.422 1.643-.716 3.413-2.323 3.87-.284-1.16.318-2.507.128-3.999-.182-.107-.903.398-.774-.516-.591.221-.648 1.393-1.289.516-.805 1.903-.967 4.452-2.71 5.418 1.343.874 2.709.854 4.645 1.29 2.362.532 4.43 2.466 7.095 3.225 2.064.587 5.47 2.126 6.837 3.482.617.615.896 1.554 1.547 2.064 1.849 1.45 5.135 2.112 7.611 2.968 2.785.961 5.8 1.777 8.514 1.934 2.715.158 4.929-.037 6.707.903.833.441 1.456 1.187 2.453 1.678 1.77.87 3.303.936 5.289.772 4.34-.357 6.188-4.713 5.674-8.77-.705-5.565-6.045-8.586-6.45-14.578-.508-7.532 4.786-13.987 12.77-13.414 1.788.128 3.723.869 5.806 1.676 2.776 1.077 7.395 2.743 4.513 6.58-3.69 1.331-6.715-1.683-9.801-2.065-3.842-.474-5.594 1.42-7.096 3.87-1.103 8.977 7.878 11.023 7.352 21.285-.322 6.312-3.069 11.482-10.06 12.383 5.555 8.375 2.862 25 15.61 26.187 1.48 2.136 1.737 4.993 3.224 7.353 1.23 1.953 3.002 4.31 4.9 5.548.538.348 1.217.377 1.678.773 1.681 1.445 3.084 7.464.774 9.157zm.59-9.704a4.01 4.01 0 0 0-.471-.489c-.454-.389-.948-.555-1.344-.688-.194-.068-.38-.13-.478-.195-1.14-.742-2.423-2.11-3.71-3.952a29.59 29.59 0 0 1-.783-1.177c-.638-1.012-1.028-2.16-1.442-3.374-.465-1.365-.947-2.776-1.815-4.03l-.363-.522-.636-.06c-7.33-.681-8.845-7.034-10.601-14.39-.683-2.872-1.394-5.843-2.515-8.425a18.587 18.587 0 0 0-.483-1.035c3.505-.934 6.136-3.089 7.678-6.313.935-1.955 1.477-4.302 1.613-6.974.017-.347.026-.686.024-1.015-.026-5.057-2.258-8.246-4.228-11.058-1.316-1.88-2.56-3.655-3.033-5.816a9.048 9.048 0 0 1-.207-1.875 10.4 10.4 0 0 1 .05-1.13c.08-.125.16-.248.243-.37 1.074-1.6 2.235-2.667 4.394-2.667.303 0 .629.022.966.064.929.114 1.937.556 3.006 1.024 1.486.65 3.172 1.387 5.044 1.387.814 0 1.617-.14 2.386-.418l.384-.138.245-.327c.773-1.027 1.17-2.044 1.186-3.023.05-3.196-3.653-4.629-6.1-5.576l-.2-.077c-1.671-.649-3.062-1.17-4.449-1.49a11.362 11.362 0 0 0-1.753-.276c-2.164-.156-4.184.15-6.038.89-.228.09-.449.185-.669.287-4.776 2.234-7.673 7.186-7.56 12.927.005.255.017.511.035.769.237 3.493 1.913 5.992 3.536 8.41 1.35 2.01 2.624 3.909 2.921 6.245.056.441.079.888.07 1.33-.049 2.558-1.257 5.64-4.503 5.907-.533.043-.968.065-1.365.065-1.113 0-1.969-.167-2.864-.552l-.103-.045c-.078-.034-.157-.067-.238-.106a4.348 4.348 0 0 1-.229-.125 8.1 8.1 0 0 1-.904-.65c-.388-.306-.79-.623-1.283-.885-1.658-.875-3.543-.932-5.542-.991l-.229-.007c-.48-.015-.976-.03-1.498-.06-2.226-.13-4.89-.739-8.146-1.864a55.98 55.98 0 0 0-2.186-.685l-.444-.132c-1.742-.526-3.53-1.107-4.584-1.933-.156-.122-.339-.425-.515-.718-.238-.393-.51-.84-.911-1.24-1.652-1.639-5.407-3.252-7.427-3.826-1.153-.33-2.246-.942-3.304-1.535-.985-.552-2.007-1.123-3.146-1.5a7.866 7.866 0 0 0-.72-.21l-.072-.017.146-.041c1.136-.323 1.988-1.12 2.53-2.37.222-.512.38-1.05.519-1.584 2.284-.5 4.558-2.469 4.44-8.378a33.06 33.06 0 0 0-.316-3.745l-.07-.528-.41-.34c-.583-.484-1.23-.806-1.863-1.109-.775-1.653-2.38-2.354-3.694-2.93-1.779-.777-2.456-1.19-2.505-2.455a4.472 4.472 0 0 1 .03-.68l.065-.543-.33-.439a56.852 56.852 0 0 0-2.17-2.734c-1.265-1.485-2.5-2.703-3.758-3.704-.06-1.079-.296-1.965-.51-2.765l-.057-.21c-.036-.137-.072-.274-.106-.413l-.199-.801-.803-.198a1.834 1.834 0 0 1-.474-.202 2.702 2.702 0 0 1-.174-.11 8.89 8.89 0 0 1-.62-.484c-.744-.618-1.682-1.398-3.144-1.305-1.9.119-3.094 1.618-4.053 2.82-.576.722-1.17 1.469-1.677 1.623a1.51 1.51 0 0 1-.435.075c-.558 0-1.015-.676-1.702-1.792-.405-.659-.823-1.34-1.376-1.92l-.301-.314-.43-.083a19.613 19.613 0 0 1-1.595-.399c-1.126-.314-2.29-.638-3.808-.658l-.811-.01-.399.709c-.78 1.395-1.99 2.452-3.272 3.57-.623.546-1.262 1.104-1.869 1.717l-.445-.154c-1.347-.472-2.595-.912-4.212-.87a8.46 8.46 0 0 0-.941.084c-1.396.2-2.446.91-3.373 1.534-.785.531-1.465.99-2.19 1.033-.513.032-.998-.09-1.58-.233-.456-.111-.972-.238-1.546-.299a6.56 6.56 0 0 0-1.635.029l-.295.043-.25.162c-.677.438-1.06.944-1.367 1.352-.264.348-.415.537-.671.697a2.37 2.37 0 0 1-.294.15c-.354.155-.779.258-1.23.367-.776.19-1.657.403-2.426.954-1.815 1.302-2.424 3.806-3.069 6.457-.513 2.107-1.043 4.286-2.154 5.449-.885.926-2.186 1.53-3.565 2.167-1.804.837-3.67 1.702-4.836 3.432a4.081 4.081 0 0 0-.274.483c-.28.577-.424 1.18-.55 1.714-.064.272-.163.685-.231.804-.208.33-.768.654-1.311.968-.71.413-1.516.88-2.098 1.634-1.73 2.244-1.791 5.243-1.85 8.144-.03 1.506-.062 3.052-.338 4.42-7.928.176-16.123 3.525-19.27 7.938l-6.967 9.978c-1.329 1.866-1.621 3.85-.801 5.445.728 1.413 2.234 2.257 4.03 2.257h37.47l-4.87 6.827H7.642L0 128.145h92.383l-2.457 3.447c-.621.869-3.13 2.182-5.494 2.182H42.176l-7.64 10.714h46.19l-3.666 5.136c-1.537 2.158-1.82 4.56-.773 6.59 1.511 2.933 5.546 4.616 11.071 4.616h32.171c7.52 0 15.408-2.916 19.097-6.928 1.646.208 3.528.31 5.729.31 2.06 0 4.147-.086 6.165-.17.734-.029 1.461-.059 2.174-.083l.624-.022.393-.485c.714-.887 1.155-2.305 1.205-3.89a8.34 8.34 0 0 0-.134-1.801c1.937-2.43 3.97-5.264 4.134-10.005v-2.452l-.833-.354c-.116-.05-.234-.11-.349-.167l-.387-.193c-.914-.493-1.807-1.142-2.67-1.77a56.546 56.546 0 0 0-.601-.435l.425-.595c2.528.918 5.24 1.228 7.869 1.526l1.745.207c.395.05.79.103 1.225.168 5.784.883 9.801 3.704 11.705 8.19-1.179.551-2.278 1.665-2.707 3.829a7.067 7.067 0 0 0-.87 1.058c-.85 1.261-1.313 2.722-1.305 4.114a5.85 5.85 0 0 0 .524 2.408s.5 1.087.706 1.446c.208.359.363.346.363.346l1.229-1.491c.055-.065.186-.195.461-.33.347-.168.804-.275 1.29-.303a3.92 3.92 0 0 1 .793.03c.125.837.463 1.466 1.01 1.866l.638.472.31.153c.417-.186 1.172-.931 1.408-1.274.244-.35.334-.695.393-.922l.008-.03c.064-.018.168-.032.317-.032.408 0 .932.109 1.454.228.102.88.487 2.125 2.035 2.186l.603.023.561-.595c.33-.462.48-.968.629-1.464.023-.07.053-.177.087-.28l.22-.006c.082 0 .162-.005.245-.005.112.755.383 1.381.808 1.865l.83.732.943-.49a3.82 3.82 0 0 0 .785-.665c.366-.413.533-.816.641-1.084.033-.075.08-.19.098-.213 0 0 .021-.025.092-.065.345-.201 1.215-.184 2.174-.107.444.035.902.072 1.356.072.68 0 1.682-.072 2.527-.69 1.153-.846 1.767-2.353 1.773-4.361.005-2.33-.832-5.043-1.99-6.45z" fill="#FFF"/><path d="M186.96 148.074c.003.585-.633 1.526-.17 1.834.095.061.638.218.823.242.379.05.9.005 1.024-.14.422-.527.63-1.26.904-1.936-.576-.227-2-.196-2.58 0m-8.645-.902c-.288.522-.945 1.087-.515 1.934 1.75.703 2.883-.715 3.612-1.806-.86-.15-2.348-.291-3.097-.128m4.001 1.805c.328.66 1.856.121 2.32.644.601-.347.861-1.033 1.162-1.675-.788-.289-1.827-.324-2.71-.518-.332.442-.63.916-.772 1.55m-14.835-18.706c1.272 1.007 3.518 1.042 4.903 1.937 1.316-.445 2.363-1.162 3.869-1.42-1.822-1.921-5.14-2.344-8.385-2.838-.41.495-.418 1.387-.387 2.321m23.477 17.674v1.16c.725.91 2.9.368 4.385.515.515-.56.88-1.27.775-2.45-1.153.823-3.127.83-5.16.775m-9.933-12.512c-.707.562-1.491.974-1.678 1.805-.42 1.893 1.521 2.824 1.678 4.387 1.054 1.094 2.775 1.523 4.645 1.806-.376-1.003-1.521-2.349-1.935-3.742-.11.023-.123-.052-.13-.13-.679-1.18-1.426-3.96-2.58-4.126m-20.666-9.478.038-.046c.125-.256.306-.478.463-.714-.102.135-.203.265-.307.411a6.805 6.805 0 0 1-.193.349m-5.081 2.386c1.85.989 4.47 1.407 7.3 1.415.437-.895.922-1.744 1.418-2.58-.854-.392-1.895-.598-2.967-.774-.364.236-.559.557-1.031.645-.014-.4.157-.617.257-.903-.718-.34-1.83-.726-2.707-.986l-2.27 3.183m22.005 2.963c-.588.1-.678.696-1.162.904-1.148 1.034-.608 3.298.776 3.61 1.132-.5 1.974-1.291 3.095-1.806-.243-1.057-1.976-1.713-2.709-2.708m-15.559-7.91a8.924 8.924 0 0 1 1.756-1.637c-.737.526-1.284 1.023-1.756 1.637m-37.834-21.278c-.127.012-.233.013-.356.024h.423c-.019-.007-.054-.013-.067-.024m-3.162.013-.024-.001-.005.001h.03m5.759.022c-.036-.111-.095-.264-.138-.387.034.105.078.239.13.387h.008m-7.297 6.276a3.321 3.321 0 0 1-.064.5l.078-.382s-.007-.05-.014-.118m-.677-4.822h.001l-.004-.04.003.04m9.822-.81c.19 1.051.418 2.205.611 3.405-.193-1.199-.42-2.355-.611-3.405m19.417 15.704c.12-.596.528-.905.634-1.515-.224-.635-.65-1.069-1.03-1.548a4.26 4.26 0 0 0-.645.646c-.296-.263-.048-1.07-.13-1.549-1.521-2.045-6.247-3.055-9.417-1.805.03 1.019-.349 1.63-.388 2.58-.602-.515-.629-1.606-1.031-2.32-2.368.297-4.621.708-7.095.903-.168.153-.204.048-.388 0-1.18.19-2.633.116-3.996.127-.32 1.016-1.095 2.259-1.809 2.45.122-.867.212-1.767.39-2.577-1.327-.353-2.847-.51-4.13-.904.105 3.68 1.572 5.996 2.064 9.287 2.976.725 3.969-1.61 4.773-3.483.504.537.25 2.345.129 3.096 4.778.288 7.264-3.298 11.868-3.225 2.75.044 5.172 1.422 7.43 2.48l1.884-2.642h.887" fill="#FFF"/><path d="M107.497 49.133c-.127.432-.516.601-.645 1.033 3.075-1.623 7.248-.005 6.192 4.514.182.034.148.283.26.387 1.142-.231.504-2.249 1.29-2.838 1.425.21 1.695 1.574 2.837 2.063-.573-1.323-.97-2.8-2.322-3.352-.777-.319-2.091.104-2.194-1.162.416.058.7.248 1.16.259-.616-1.197-2.544-1.367-3.482-2.065-.584-.435-.798-1.255-1.42-1.419-2.09-.55-3.484 2.276-5.545.646-.656 1.212-.409 3.503.645 4.127-.446-2.239 2.009-3.57 3.224-2.193" fill="#1D4A97"/><path d="M75.377 55.067c.81-1.272 1.568-1.903 2.839-2.709 1.075-.682 2.625-1.125 3.482-2.192.82-1.024 1.085-2.45 1.805-3.484-2.268-.088-3.449.517-4.902 1.29-.958.51-2.02.794-2.58 1.161-1.848 1.214-2.532 3.855-2.837 6.58-2.068.598-3.461 1.935-3.483 4.256-.009.89.418 1.723.258 2.58-.171.92-1.384 1.951-1.16 3.095 1.008-.795 2.162-1.447 3.612-1.804 1.507-3.07 1.424-6.351 2.966-8.773" fill="#F1511B"/><path d="M107.626 56.228h1.031c-.067.487-.18.606.131.903.565.136.425-.436.902-.387.45 1.389-2.528 1.068-2.064-.516zm-7.74 3.483c.047 1.069.849 1.92.775 2.966-1.63 1.692-.15 3.941-.26 6.064-2.067.22-2.074-1.622-3.483-2.064.144-1.089.013-1.674 0-2.837-1.734-4.598.596-8.927 3.096-11.223 2.149-.126 3.01 1.034 3.87 2.192-2.593-.06-4.1 2.548-3.998 4.902zm13.288-.644c.45-.067.974-.059 1.29-.258a7.788 7.788 0 0 1-2.581-1.936c-1.15-1.087-2.973-2.37-5.031-1.42-1.392-.8-2.593-1.79-3.481-3.095a7.524 7.524 0 0 1-1.42-2.064c.476-.884 1.001-3.077-.387-3.354-.122 1.297-.298 2.542-1.55 2.709.578 2.53-2.107 2.868-3.61 3.741-.381.178-.523.596-.904.775 1.103 1.558-.515 2.75-1.16 3.74.297.176.72.227.645.774-.52 1.245-1.407 2.807-1.162 4.385.314-.248 1.03-.77 1.548-.387-.758 2.26-2.345 4.208-1.806 7.353 1.094-1.131 5.147-1.253 3.741 1.42 1.22-.42 4.476-.87 3.355 1.161 1.7-.759 2.279.705 2.322 2.322 2.509-3.033-2.095-4.785-1.161-8.256.935-.957 1.644-2.14 3.742-1.935.036.953.64 1.336 1.03 1.935-.464.83-.617 2.72.258 3.225.113-2.855 2.228-3.704 3.741-5.16-.602-.296-1.165.551-2.063.387-2.069.478-1.615-1.567-2.71-2.065-.83-.63-.987-1.936-1.935-2.45-.238.278-.086.945-.13 1.42.068.62.296 1.08.518 1.547-1.096-.106-1.327.652-2.322.645v-3.483c.435-1.845.082-4.475 2.192-4.643-.344 1.832.696 4.62 2.452 5.03 1.527.357 3.09-.615 3.095-1.935-.668.535-1.511.896-2.708.903-.17-.908-1.25-1.585-.774-2.708.562.297.765.954 1.29 1.289 1.339.136 1.715-.693 2.967-.645.079.084.079.084.128.13 1.292 1.223 2.767 3.405 1.814 5.393a.683.683 0 0 0 .054-.035c.76-1.29 2.75-1.327 4.323-1.102-1.284-1.037-2.864-1.778-3.61-3.353z" fill="#1D4A97"/><path d="M78.472 64.484c.518-1.542-.287-3.474-.256-4.773.09-4.097 3.677-6.135 7.997-6.837 1.16-1.09 2.878-2.263 2.323-4.644-2.104-.967-3.877 1.12-5.419 2.452-1.585 1.369-3.624 2.285-4.773 3.74-.417.529-.483 1.37-.902 2.065-.338.554-.952.835-1.162 1.289-.888 1.919-.698 4.141-1.806 6.064 1.515.032 3.298-.204 3.998.644M70.99 54.035c.336-1.115-.012-2.21.258-2.966.344-.957 1.257-1.657 1.163-2.453-1.282.116-1.543 1.14-2.58 1.808-.926.596-2.21.615-3.097 1.03-2.765 1.3-2 5.8-2.709 9.418-.393.037-.501-.413-.774-.129.3 2.45-.234 5.737 1.291 6.965.458-.142.778-.423 1.418-.385-.64-2.01.977-3.854 1.677-5.934.592-1.765.393-3.597 1.032-4.902.501-1.03 2.045-1.526 2.322-2.452" fill="#F1511B"/><path d="M107.626 54.55c1.392-1.946 2.678.715 4.515.646.131-.062.158-.1.258-.13v-.128c-.833-.935-1.983-2.22-1.418-4.128-.883-.108-1.194.357-1.935.387v.646c-.028.889.772.948.774 1.805-.967-.347-2.944-.78-1.806-2.064-.726-.132-2.218-.354-2.58.259.203 1.43 1.858 1.407 2.192 2.708" fill="#1D4A97"/><path d="M89.05 52.487c-1.232.251-1.357 1.807-2.192 2.451-.46.354-1.1.342-1.548.644-2.23 1.511-1.026 4.397-2.839 6.71-.162-1.451-.602-2.94-.258-4.516-1.642 1.066-2.512 4.022-2.71 6.966 1 .164 1.665.66 2.968.516 1.126-1.368 2.071-2.917 2.967-4.515.525-1.41 1.215-2.655 2.323-3.484-.095-1.477 2.417-2.67 1.289-4.772m10.964.13c-2.5 2.296-4.83 6.625-3.096 11.223.892-.763 2.144-1.494 3.743-1.163.074-1.045-.728-1.897-.775-2.966-.102-2.354 1.405-4.961 3.999-4.902-.86-1.158-1.722-2.318-3.87-2.192" fill="#F1511B"/><path d="M115.238 55.97c.838.022 1.03.69 1.933.645-.4-1.275-1.184-2.169-2.062-2.967-.09.906.218 1.416.13 2.322" fill="#1D4A97"/><path d="M108.788 57.131c-.312-.297-.198-.416-.13-.903h-1.032c-.464 1.584 2.515 1.905 2.064.516-.477-.05-.337.523-.902.387m70.046 6.709c.805-.658 1.555-1.37 1.677-2.71-.468-.823-1.593-.987-2.967-.903-.156 1.488.796 1.87.644 3.354.322-.02.536.067.646.259" fill="#F1511B"/><path d="M108.401 64.096c.557.103.487-.483.772-.773.87-.871 2.065-1.117 1.937-2.966-1.11 1.039-2.7 1.6-3.872 2.58.574.1.777-.173 1.292-.13.1.575-.173.774-.129 1.289" fill="#1D4A97"/><path d="M185.283 61.776c-.867-.21-1.895-.94-2.838-.647.364 1.056.936 1.903.773 3.484 1.747.966 2.487-1.255 2.065-2.837m-61.663 1.676c1.348.159 1.214 1.797 1.292 3.225 1.222-1.1 2.484-2.161 2.451-4.514-.028-.1-.108-.151-.257-.13-.41 1.226-3.275-.007-3.485 1.419m50.44 2.839c.513-.752 1.408-1.077 1.42-2.065.024-2.311-4.711-2.629-4.903 0 1.983-.597 2.984.761 3.483 2.065m13.803-3.227c.177 1.469-.669 1.913-1.033 2.838 2.53 1.546 4.204-2.935 1.033-2.838" fill="#F1511B"/><path d="M119.367 65.129c-1.31.343-3.817.505-4.774-.258.219-.425.715-.576.902-1.031-1.175.2-2.108.642-2.32 1.804 1.41.969 5.907 1.306 6.192-.515" fill="#1D4A97"/><path d="M57.446 66.548c.01.101 1.308 1.302 1.549 1.419.824.402 2.579.418 3.482.387-.168-1.595-.75-2.777-1.419-3.87-1.16.174-3.683 1.312-3.612 2.064" fill="#F1511B"/><path d="M120.011 67.323c-2.625-.174-6.089-.19-8.387-.259 1.991.79 6.624 2.407 8.387.259" fill="#1D4A97"/><path d="M171.738 67.064c-1.125-.198-2.244.085-3.096.516-.1.895-.585 2.314-.13 2.966 1.195-.44 2.234-1.036 3.873-1.03.034-1.07-.376-1.692-.647-2.452M53.06 69.515c1.986.4 3.07-.542 4.257-1.29-.915-1.65-4.637-1.267-4.256 1.29" fill="#F1511B"/><path d="M112.657 69c1.538.677 6.018 1.509 6.58-.259-1.832.728-4.619-.201-6.58.258" fill="#1D4A97"/><path d="M172.385 73.127c-2.8-.621-4.534 2.996-2.066 3.87.197-1.395 2.037-1.145 2.967-1.806-.388-.6-.657-1.322-.901-2.064m3.096 7.869c.452-.171.602.08 1.03-.257-.573-1.128-.881-2.357-1.806-2.582-2.74-.667-3.151 4.056-.774 3.87.559-.042.91-.79 1.55-1.031" fill="#F1511B"/><path d="M65.96 83.448c2.78.658 3.24 3.638 5.288 5.029 1.057-4.247-3.451-4.023-3.611-7.481-2.38-.349-3.025-3.596-6.063-2.451 1.494 1.602 3.783 2.408 4.386 4.903" fill="#1D4A97"/><path d="M117.3 79.577c-1.05-.583-2.106-1.161-3.868-1.032.338.403.703.716 1.088 1.011.351.27.719.526 1.1.821a4.45 4.45 0 0 0 1.68-.8m-3.482 2.966c.05-.822-.172-1.376-.903-1.417-.188.498-.42.955-.645 1.417.58-.082 1.102.353 1.548 0m-18.833 4.131c.755-1.176 1.697-1.879 2.22-3.145.175-.446.304-.936.36-1.501-1.082-.517-2.73-.188-3.225.645.491 1.099.049 3.132.386 4.385.045 0 .054-.191.259-.384m79.849-1.551c-.21.84.576 1.452.514 2.453 1.038-.437 2.662-.255 3.743 0 1.537-3.113-3.716-4.626-4.257-2.453m-.386 13.803c3.198.06 1.608-4.447.386-4.902 1.191-.396 2.41.244 3.612.258.22-.789.63-2.01.388-2.84-.806-.845-2.92-.476-4.13-.255-.286 1.818-1.662 2.55-2.319 4 1.495.436 2.047 1.82 2.063 3.74" fill="#F1511B"/><path d="M62.993 97.766c.835.337 2.498.634 3.225 0-1.5-1.697-3.886-2.507-5.25-4.34h-1.52c-.07.023-.149.036-.196.082 1.44 2.31 1.068 7.636 3.875 8.648h2.171c.177-.044.343-.07.534-.134-1.458-.908-2.51-2.22-2.839-4.256" fill="#1D4A97"/><path d="M165.288 97.378c1.9.726 2.817 3.114 4.517 3.612 1.142-3.217-1.984-4.903-4.517-3.612" fill="#F1511B"/><path d="M134.329 101.893c-1.077 3.9.355 8.105 1.419 11.095.402.715.43 1.806 1.03 2.32.04-.95.42-1.56.389-2.579.462-4.515-.662-8.534-2.838-10.836m-5.189 10.129c.047-.291.103-.58.126-.882.016-.199.01-.404.017-.607.01-.289.027-.575.02-.868-.003-.202-.025-.406-.036-.61-.016-.299-.028-.597-.057-.897-.018-.186-.046-.371-.068-.556-.038-.32-.073-.639-.12-.955-.022-.15-.05-.297-.073-.446-.193-1.2-.42-2.354-.611-3.405l-.049-.256-1.57 2.2c.087.573.192 1.127.287 1.691.416 2.49.88 4.932 1.26 7.46.183.05.219.154.387 0a7.95 7.95 0 0 0 .409-1.331c.038-.174.05-.36.079-.538m-4.569 1.042c.028-.125.062-.243.086-.377.031-.18.052-.374.074-.567.009-.076.022-.148.03-.226.022-.24.032-.489.04-.737 0-.032.004-.063.004-.096.006-.274 0-.548-.014-.82v-.02a10.75 10.75 0 0 0-.067-.771l-.005-.047a8.691 8.691 0 0 0-.12-.706l-.01-.05a5.664 5.664 0 0 0-.157-.562c-.01-.031-.018-.07-.029-.1l-.892 1.251-.532.01h-.004c.227 1.457.174 3.333-.127 4.646-.177.81-.267 1.71-.389 2.578.714-.192 1.49-1.435 1.809-2.45.085-.183.16-.39.224-.613.032-.107.052-.229.079-.343" fill="#1D4A97"/><path d="M148.52 116.985c.577-1.494 1.01-3.495.644-5.546-1.081.855-1.056 2.814-1.806 3.998.382.48.807.913 1.03 1.548h.133m-15.095 10.837c1.676-.346 3.79-.25 5.805-.258-.5-.835-.6-2.067-.902-3.097-2.206.548-3.777 1.73-4.903 3.355" fill="#F1511B"/><path d="M156.13 137.495c-.963 3.082-1.522 6.565-4.128 8-.45 1.652.08 4.293-.774 5.546-1.217-.072-2.392-.188-3.742-.129-.988.215-2.878.215-3.87 0-1.732.115-2.006-1.287-3.244-1.671l-2.046 2.87c-.066.093-.148.181-.219.272-.013.026-.03.05-.043.075 4.451.664 9.867.298 14.582.13.863-1.069 1.177-3.48.645-5.16 2.071-2.572 4.102-5.187 4.259-9.673v-1.548c-1.771-.754-3.163-1.967-4.57-2.924-.191-.13-.589-.514-.72-.708l-.871 1.221c1.101 1.71 3.177 2.447 4.74 3.7" fill="#1D4A97"/><path d="M151.358 142.399c-.055-.127-.056-.093-.13-.259-.616-1.447-3.082-1.046-3.483-2.708.654-.98 1.933-1.335 3.095-1.806.259-.07.332-.099.388-.258-.547-.27-1.117-.654-1.884-.705l-7.22 10.124c.03.045.074.097.074.126.922.76 1.028.076 1.935-.259 1.078-.394 2.251-.126 3.353-.257-.6-.473-1.433-.716-1.805-1.418.715-1.772 2.999-3.625 5.418-2.451.088.024.405.176.26-.13" fill="#1D4A97"/><path d="M172.77 123.693c-1.621 1.432-4.16 1.944-4.901 4.258 3.246.494 6.563.917 8.385 2.838.405-.076 1.198-.428 1.547-.13-.614.46-1.232.916-1.678 1.55.484-.208.574-.804 1.162-.904.733.995 2.466 1.65 2.709 2.708.694-.295 1.853-.809 2.71-.516-.261.944-1.12 1.289-1.678 1.937 1.154.166 1.901 2.945 2.58 4.127 3.289-.533 4.028-6.603 1.807-8.902-4.17.214-6.274-1.638-7.87-3.999-1.244.334-3.196.864-4.385.128.493-1.182 1.631-1.72 2.19-2.836-.292-2.544-1.39-4.284-1.933-6.58-1.148.122-.889 1.188-1.419 1.935-1.624 2.292-6.016 1.174-7.869 3.613-.42.55-.392 1.187-.645 1.547-.644.917-1.265.961-2.451 1.936 1.072.176 2.113.382 2.967.774 1.94-2.059 4.75-3.939 8.773-3.484" fill="#F1511B"/><path d="M188.894 144.85c-.577 1.31-2.09-.043-3.61-.26-.868-.122-1.775.152-2.71.13-1.702-.04-4.884-1.407-4.901.774-.007.695 1.102.73.643 1.678.75-.163 2.237-.021 3.097.128.465-.394.945-.774 1.934-.646.063.408-.183.505-.258.774.883.194 1.922.229 2.71.518.361-.243.63-.575 1.161-.646v.774c.581-.196 2.005-.227 2.58 0 .324-.495.618-1.015 1.419-1.032v.904c2.033.055 4.007.048 5.16-.774-.632-4.915-5.47-5.625-7.225-9.417-1.32.97-2.634 2.59-5.158 1.935.414 1.393 1.559 2.74 1.935 3.742 1.066.48 2.527.565 3.223 1.417m-75.591-46.052c1.002.029 2.152-.089 2.967.13.36-1.19.003-2.63-.387-3.483-.737-.382-2.435.199-2.968-.387 1.19-.736 2.907-1.518 2.45-3.483-1.819.502-3.098 1.543-3.74 3.225-1.559 1.493-3.642 2.232-5.289 3.61-.635.533-1.039 1.382-1.676 1.937-.968.842-2.278 1.21-2.71 2.708-.04 1.926-.028 4.82.774 6.321-.037.263-.347.253-.387.515h.129c.89-1.096 1.925-1.106 2.84-2.063 1.784-1.866 1.658-5.733 5.545-5.419-1.503 1.297-2.611 2.569-2.837 4.774-.092.884.153 2.047-.13 2.837-.671 1.898-3.076 2.094-4.128 3.614.037.013.097-.019.129 0 .657.364 1.18 2.2 1.935 3.481.944 1.6 1.71 2.864 1.677 4.388-.179 3.776-2.566 5.345-5.287 6.578-.328.828-.604 2.002.127 2.579.09-.76.986-.476 1.162 0 .097-.46.299-.82.774-.902.334.945-.6 2.135 0 2.966 1.768-.836 2.305-2.904 1.935-5.546.406-1.009 1.697-1.235 2.193-2.322.56-1.228-.105-2.915.515-4.386 1.867 2.506-.701 4.525-1.031 7.224-.237 1.937.361 3.559.129 5.933.27.351.484-.456.643.13.294.387.058 1.105 0 1.548-1.63.387-4.213 3.647-1.675 4.643.893-.57 1.002-1.92 1.934-2.452.188-.624 1.535-1.583 2.065-.643-.197-.714.572-.46.517-1.033-.384-.692-1.071-1.08-.905-2.322-.722-.18-.987-.817-1.16-1.548 1.534-.188 2.036 1.302 3.482.774.818 1.719 2.825 2.939 2.968 4.903-.786-.16-1.208-.686-2.193-.646-.46.996.43 1.364.386 2.193-.062 1.145-1.714 1.747-1.29 3.095 1.745-.017 1.386-2.14 2.452-2.836.282-.023.41.106.386.387.398-.47 1.666-.308 1.547.516 2.31-2.483-4.404-5.342.13-6.58-.067.283-.311.835.13.904.411-.235.827-.464 1.417-.516.632 1.561 2.63 1.756 2.84 3.74-.612-.075-1.19-.186-1.933-.128-.309 1.422-1.125 2.993-.647 4.773.126.08.126.08.259.127 1.646.017.91-2.357 1.806-3.094.138.031.087.256.255.258.306-.563 1.03-.31 1.548-.129 1.224-3.736-2.201-4.775-3.095-7.224h1.292c.266-2.56-.62-3.914-1.418-5.935-.584-1.47-.69-2.961-1.292-3.868-.79-1.192-2.536-1.457-2.84-2.967 1.159.046 1.89 1.205 2.967.901-.05-2.993-1.824-6.206-1.806-9.158.008-1.273.564-2.508.647-3.741.28-4.214-1.567-6.957-4.128-8.901" fill="#F1511B"/><path d="M176.64 149.233c-.7.42-1.326.911-1.806 1.55-.46-1.665.6-2.926 1.805-3.355.41.576-.426 1.186 0 1.805zm-6.835-48.243c-1.7-.498-2.616-2.886-4.517-3.612 2.533-1.291 5.66.395 4.517 3.612zm-54.052-18.189c.17-.77-.196-1.007-.387-1.418.796-.321 1.697-1.123 2.489-1.45-.197 1.268-1.17 2.339-2.102 2.868zm1.678 24.897c-.083 1.233-.64 2.468-.647 3.741-.018 2.952 1.757 6.165 1.806 9.158-1.078.304-1.808-.855-2.966-.901.303 1.51 2.05 1.775 2.84 2.967.6.907.707 2.397 1.29 3.868.798 2.021 1.685 3.375 1.42 5.935h-1.293c.894 2.45 4.32 3.488 3.095 7.224.493 2.162-.808 4.237-2.192 4.515.231-1.386 1.162-2.675.644-4.386-.168-.002-.117-.227-.255-.258-.896.737-.16 3.111-1.806 3.094-.133-.047-.133-.047-.259-.127-.478-1.78.338-3.351.647-4.773.743-.058 1.321.053 1.933.128-.21-1.984-2.208-2.179-2.84-3.74-.59.052-1.006.281-1.417.516-.441-.069-.197-.621-.13-.903-4.534 1.237 2.18 4.096-.13 6.579-.53 1.494-1.089 3.638-3.353 3.74.645-1.308 1.912-2.568 1.806-4.256.024-.28-.104-.41-.386-.387-1.066.697-.707 2.82-2.451 2.836-.425-1.348 1.227-1.95 1.289-3.095.044-.829-.846-1.197-.386-2.193.985-.04 1.407.486 2.193.646-.143-1.964-2.15-3.184-2.968-4.903-1.446.528-1.948-.962-3.482-.774.173.731.438 1.369 1.16 1.548-.166 1.242.521 1.63.905 2.322.055.572-.714.319-.517 1.033.23 2.51-1.356 3.888-3.226 3.87.277-1.13 1.919-1.874 1.16-3.227-.93.532-1.04 1.883-1.933 2.452-2.538-.996.045-4.256 1.675-4.643.058-.443.294-1.16 0-1.548-.159-.586-.373.221-.643-.13.232-2.374-.366-3.996-.13-5.933.33-2.699 2.9-4.718 1.032-7.224-.62 1.47.046 3.158-.515 4.386-.496 1.087-1.787 1.313-2.193 2.322.37 2.642-.167 4.71-1.935 5.546-.6-.831.334-2.021 0-2.966-.475.082-.677.442-.774.902-.09 1.284-.465 2.742-1.253 2.952l-.186-.726c.092-.698.304-1.425.277-2.226-.73-.577-.455-1.75-.127-2.58 2.721-1.232 5.108-2.8 5.287-6.577-1.133.412-1.003 2.091-2.32 2.32-.843-.59-1.034-1.628-1.678-2.578-.603-.89-1.494-1.53-1.677-2.581-.312-1.78 1.305-3.265 1.934-5.03 1.052-1.52 3.457-1.716 4.129-3.614.282-.79.037-1.953.129-2.837.226-2.205 1.334-3.477 2.837-4.774-3.887-.314-3.76 3.553-5.545 5.42-.915.956-1.95.966-2.84 2.062h-.13c-.93.789-1.615 1.825-2.062 3.098-1.81-1.533.085-4.498-.26-6.967.659-.976 1.318-1.952 1.937-2.967.43-1.498 1.741-1.866 2.709-2.708.637-.555 1.041-1.404 1.676-1.937 1.647-1.378 3.73-2.117 5.288-3.61.643-1.682 1.922-2.723 3.742-3.225.456 1.965-1.26 2.747-2.45 3.483.532.586 2.23.005 2.967.387.39.853.747 2.294.387 3.482-.815-.218-1.965-.1-2.967-.13 2.561 1.945 4.407 4.688 4.128 8.902zm-50.08 12.26 6.287-8.812c1.33-1.859 4.816-3.367 7.792-3.367h16.478l.197.007s-.07.463-.126.673c-.056.212-.112.759-.112.759h-.158c-.004.053-.011.105-.014.157-.119 1.775.276 3.2.514 4.772-2.252 1.597-4.19 0-6.708-.514-1.571-.322-3.287-.568-4.387-1.291-1.577-1.038-2.41-3.049-4.384-2.838 1.048 2.606 3.786 3.524 5.546 5.418-3.407.372-6.061-.826-7.997-2.322-.033-.59.584-.534.515-1.161-1.448-.06-3.734-.777-5.01-.36a4.772 4.772 0 0 0-.732.66c3.486 2.217 6.71 4.697 10.342 6.769l14.146.005.038.02h.05c.014.017.025.035.038.051l.403.227s.335.344.397.463c.064.119.382.685.382.685H67.351zm-34.534-16.342 5.754-8.279c1.327-1.86 4.817-3.37 7.793-3.37h17.26l-.003.066.018.457.094.205.085.123.398.6c.91 1.12 2 2.062 4.324 1.768 1.24.651 1.584 2.2 3.741 1.933-.195-.706-.539-1.266-.775-1.933.813-.522 1.264-1.405 2.194-1.807 1.126.379 1.39-.264 2.194-.515.924.192 1.555.679 2.707.644.012-.063.01-.128.013-.192 0-.08-.001-.185-.006-.286-.008-.076-.014-.152-.03-.228l-.003-.008a3.413 3.413 0 0 0-.081-.278l-.05-.14a3.778 3.778 0 0 0-.066-.157l-.093-.208a3.137 3.137 0 0 1-.023-.044h9.434l2.968-4.161h-6.816c-.068 0 .006-.292.006-.338.009-.25.08-.401.126-.55l.012-.033.033-.083c.045-.114.085-.2.094-.217l.008-.016.11-.212.005-.01c.455-.84 1.09-1.616.681-3.03 1.57.225 2.303-1.554 3.613-1.417.97.1 1.013.956 1.805 1.548.541-.706.584-1.911.773-2.968.543.404 1.422.47 2.065.773-.22.514-.102 1.361-.13 2.065.558-.087.692-.597 1.29-.645.495-.833 2.144-1.162 3.225-.645a5.504 5.504 0 0 1-.36 1.5c-.522 1.267-1.464 1.97-2.22 3.146-.204.193-.213.384-.258.384-.758 1.019-1.667 3.701-.515 5.03.013-1.19.423-1.983.774-2.837.732-1.89 2.191-3.054 3.998-3.87 1.23.835 2.204 1.925 2.839 3.354-.845 1.393-1.293 3.334-1.42 5.29.794-1.11 1.634-2.311 2.581-2.967a.212.212 0 0 1 .17.037c.011.008.024.013.034.023.145.153.098.529.312.456 2.242-.81 4.703-.129 6.191.903-2.065 2.577-5.326 3.96-7.224 6.708h-.13c-.66 1.23-.784 2.998-2.322 3.353.102-2.078-.746-3.207-1.805-4.129-1.74 1.775-3.448-.284-4.128-1.804-1.861.141-3.134-.994-4.644-.775 1.29 1.42 3.27 2.149 3.613 4.516-.339.263-.756.45-1.42.386.23 1.035 1.186 1.344 2.374 1.42h1.935a20.009 20.009 0 0 1 1.625 0h.081s.468.49.598.691c.148.23.277.744.283.773h-65.71zm55.59-33.456c.103-4.54 1.234-8.052 3.87-10.062-.16-.358-.793-.24-1.291-.258.19-1.014.816-1.59 1.03-2.58-1.91.41-3.218 2.543-4.514 3.999.075.426.489.185.774.13-.954 2.139-2.465 3.725-2.321 6.965.002.427.728.13.903.387-.238 2.043.388 3.224.644 4.773-5.557-.508-3.07-9.14-2.064-12.771-.896 1.598-1.84 3.147-2.967 4.515-1.563 3.403 1.312 5.483 1.29 8.901-1.745.331-1.814-1.707-2.838-2.45-.74-.54-1.72-.296-2.707-.646-1.218-.429-2.267-1.92-3.742-1.419-.247-.572-.568-1.068-.517-1.936a6.336 6.336 0 0 0 0-1.29c-.028-1.06.352-1.712.517-2.578 1.108-1.923.918-4.145 1.806-6.064.21-.454.824-.735 1.162-1.289.419-.695.485-1.536.902-2.065 1.149-1.455 3.188-2.371 4.773-3.74 1.542-1.332 3.315-3.419 5.419-2.452.555 2.381-1.164 3.555-2.323 4.644-4.32.702-7.908 2.74-7.997 6.837-.03 1.3.774 3.231.256 4.773-.115 2.46-.443 5.277 1.42 6.062-.152-1.138-.475-2.104-.388-3.482 0-.36.121-.967 0-1.549v-.773c.197-2.944 1.067-5.9 2.71-6.966-.345 1.576.095 3.065.257 4.515 1.813-2.312.608-5.198 2.839-6.709.448-.302 1.087-.29 1.548-.644.835-.644.96-2.2 2.192-2.451 1.128 2.101-1.384 3.295-1.29 4.772 1.153-.61 1.592-1.933 3.096-2.192.07.626-.547.57-.515 1.16.885-.146 2.247-.933 2.45-2.192 1.224-1.916 3.528-2.75 5.418-3.998.443-.057.722.05 1.032.129-.067-.836-.544-1.26-1.288-1.42.167-2.489-1.706-2.941-2.195-4.773h-2.064c-.606.814-1.059 1.78-1.678 2.58.545 1.607-.1 4.402 1.807 4.644-.445 1.189-1.315 1.952-2.579 2.322.168-1.243-.542-1.609-1.29-1.935.144-.413.876-.24 1.16-.515-.474-2.02-1.873-3.17-1.547-4.902.244-1.297 2.003-2.175 3.097-3.097.246-.355.57-.631.772-1.031 4.108-.684 4.869 2.037 6.45 3.999 2.37.557 4.958.237 7.482 0 .92-1.102 2.184-1.859 2.452-3.612 2.653.497 1.636 2.55 2.191 4.514.492 1.734 3.737 2.729 5.033 4.386.546.7 1.121 1.868 1.16 2.966.013.321-.21.81-.128 1.162.644 2.785 6.46 2.85 6.964 6.192-1.865.837-3.714-1.18-4.514.645.818.215 1.734.331 2.194.903-.007.99.287 1.57 1.16 1.935-.165 1.41.698 2.345.259 3.612-.739.862-2.312.391-3.613.774-1.407.413-2.476 1.492-4.127 1.677-2.832.317-4.543-.425-5.934-2.193.393 2.317 2.672 2.745 4.773 3.354-2.528 1.115-4.974-.757-6.192-2.193-2.242-.308-2.742 1.127-4.128 1.677-.028 2.977-2.823 5.38-2.967 8.514-.033.714-.126 2.092.128 2.967.367 1.264 2.175 1.463 2.451 3.096.698.231 1.324-.63 1.678-1.162-1.329-.693-2.556-1.485-3.225-2.838-.112-2.132.258-4.47 1.419-4.901-1.73 7.256 5.45 9.358 10.964 7.739-.147 1.058-.894 1.514-1.805 1.806-.01.765-.345 1.204-.258 2.065-.984.263-1.49 1.003-2.322 1.42-1.712-.74-3.796-1.108-6.063-1.292-1.198-2.2-2.687-4.107-4.904-5.29-1.288-2.777 1.785-4.893.52-7.223-.39.69-.84 1.314-1.163 2.065-1.616-.233-2.232-1.467-2.58-2.967-1.009.269-.464 1.571-.517 2.58-2.721-.46-4.95-1.415-4.643-4.902-.846.014-.614 1.107-1.29 1.29-.852-1.054-.823-3.806-.26-5.16-.68.047-1.006.454-1.675.516zm-19.609-2.71v-1.806c-.223-1.144.99-2.174 1.16-3.096.16-.856-.266-1.689-.257-2.58.022-2.32 1.415-3.657 3.483-4.256.305-2.724.99-5.365 2.837-6.579.56-.367 1.622-.65 2.58-1.161 1.453-.773 2.634-1.378 4.902-1.29-.72 1.034-.984 2.46-1.805 3.484-.857 1.067-2.407 1.51-3.482 2.192-1.27.806-2.03 1.437-2.84 2.709-1.54 2.422-1.458 5.703-2.965 8.773-.628 1.553-.643 3.77.127 5.16-1.417-.346-2.25-1.275-3.74-1.55zm-1.161-6.061c-.7 2.08-2.317 3.924-1.677 5.934-.64-.038-.96.243-1.418.385-1.525-1.228-.99-4.514-1.291-6.965.273-.284.38.166.774.129.709-3.618-.056-8.119 2.709-9.417.887-.416 2.17-.435 3.096-1.031 1.038-.669 1.3-1.692 2.581-1.808.094.796-.819 1.496-1.163 2.453-.27.755.078 1.851-.257 2.966-.277.926-1.821 1.423-2.322 2.452-.639 1.305-.44 3.137-1.032 4.902zm-8.642 6.578c-.241-.117-1.54-1.318-1.55-1.419-.07-.752 2.453-1.89 3.613-2.064.67 1.093 1.251 2.275 1.42 3.87-.904.031-2.659.015-3.483-.387zm-5.934 1.548c-.381-2.557 3.34-2.94 4.256-1.29-1.186.748-2.271 1.69-4.256 1.29zM108.53 41.78c.157 2.092-.813 3.059-2.837 2.967.437-1.417 1.885-2.49 2.837-2.967zm18.576 20.253c.15-.021.23.03.257.13.033 2.353-1.229 3.414-2.451 4.514-.078-1.428.056-3.066-1.291-3.225.21-1.426 3.075-.193 3.485-1.419zm-2.452 8.642c-.094-2.651 1.923-4.188 3.096-5.804-.055 2.912-.28 5.652-3.096 5.804zm-10.134 8.881a6.577 6.577 0 0 1-1.088-1.011c1.762-.13 2.817.45 3.869 1.032a4.45 4.45 0 0 1-1.68.8c-.382-.295-.75-.55-1.1-.82zm-2.727 3.536c1.044.643 2.201-.053 3.316-.162-.09 1.708-2.74 1.369-4.128 1.032.386-.552.645-.52.812-.87zm.606-3.257c.255 2.317-2.683 5.32-4.385 2.708 1.366-.996 2.873-1.856 4.385-2.708zm1.42 2.708c-.447.353-.968-.082-1.55 0 .227-.462.458-.919.646-1.417.73.041.953.595.903 1.417zm-1.808-5.805c-.401-.844-.58-1.912-.901-2.838.877-.663 2.857.08 4.449-.28.189 1.015.055 2.212.194 3.377-1.035-.297-2.385-.279-3.742-.259zm-5.416 4.388c-.758-.252-1.344-1.295-1.031-2.194.787.284 1.211.938 1.03 2.194zm-1.031-3.098c.002-1.374-.184-2.933.772-3.352 1.172.03 1.461.947 2.194 1.417.665-1.022-1.012-1.34-.645-2.064 1.38-.016 2.395.608 2.708 1.936.336 1.417-.64 3.234.57 3.756-1.032.343-1.815 1.005-2.806 1.389-1.578-.528-.7-3.07-2.793-3.082zm11.094-1.676c-.1-1.518.169-2.667.126-4.129.65-.127.95-.599 1.806-.514-.266 1.925-.445 3.938-1.932 4.643zm58.047 14.835c1.209-.221 3.323-.59 4.129.256.241.83-.167 2.05-.388 2.84-1.203-.015-2.421-.655-3.612-.259 1.222.455 2.812 4.961-.386 4.902-.016-1.919-.568-3.303-2.063-3.74.657-1.45 2.033-2.18 2.32-4zm0-13.03c.925.225 1.233 1.454 1.806 2.582-.428.336-.578.086-1.03.257-.64.24-.991.989-1.55 1.032-2.377.185-1.965-4.538.774-3.87zm-4.386-1.16c-2.468-.874-.733-4.491 2.066-3.87.244.742.513 1.463.9 2.064-.93.661-2.769.41-2.966 1.806zm-1.677-9.417c.852-.43 1.97-.714 3.096-.516.271.76.68 1.382.647 2.451-1.64-.005-2.678.591-3.873 1.03-.455-.65.03-2.07.13-2.965zm6.84-3.354c-.013.988-.908 1.313-1.42 2.065-.5-1.304-1.501-2.662-3.484-2.065.192-2.629 4.927-2.311 4.903 0zm5.029-3.097c-.122 1.341-.872 2.053-1.677 2.71-.11-.191-.324-.278-.646-.258.152-1.484-.8-1.866-.644-3.354 1.374-.084 2.5.08 2.967.902zm4.772.647c.422 1.582-.318 3.803-2.065 2.837.163-1.581-.409-2.428-.773-3.484.943-.294 1.97.437 2.838.647zm-6.192 25.8c-1.081-.255-2.705-.437-3.743 0 .062-1.001-.723-1.612-.514-2.453.54-2.173 5.794-.66 4.257 2.453zm8.773-24.512c3.17-.097 1.497 4.384-1.033 2.838.364-.925 1.21-1.37 1.033-2.838zm6.577 78.562c-1.898-1.238-3.67-3.595-4.9-5.548-1.487-2.36-1.743-5.217-3.225-7.353-12.747-1.187-10.054-17.812-15.61-26.187 6.992-.901 9.74-6.071 10.061-12.383.526-10.262-8.455-12.308-7.352-21.285 1.502-2.45 3.254-4.344 7.096-3.87 3.086.382 6.111 3.396 9.801 2.064 2.882-3.836-1.737-5.502-4.513-6.579-2.083-.807-4.018-1.548-5.805-1.676-7.985-.573-13.28 5.882-12.77 13.414.404 5.992 5.744 9.013 6.45 14.578.513 4.057-1.335 8.413-5.675 8.77-1.986.164-3.519.098-5.29-.772-.996-.491-1.62-1.237-2.452-1.678-1.778-.94-3.992-.745-6.707-.903-2.714-.157-5.729-.973-8.514-1.934-2.476-.856-5.762-1.517-7.611-2.968-.65-.51-.93-1.45-1.547-2.064-1.367-1.356-4.773-2.895-6.837-3.482-2.665-.759-4.733-2.693-7.095-3.225-1.936-.436-3.302-.416-4.645-1.29 1.743-.966 1.905-3.515 2.71-5.418.641.877.698-.295 1.289-.516-.13.914.592.41.774.516.19 1.492-.412 2.84-.128 3.999 1.607-.457 1.9-2.227 2.323-3.87 4.576-.226 4.493-6.091 3.868-10.707-.586-.488-1.343-.807-2.064-1.16-1.069-3.49-7.058-2.059-6.45-7.225-1.83-2.427-3.75-4.764-6.19-6.579.03-1.493-.356-2.57-.646-3.741-1.663-.41-2.34-2.168-3.999-2.063-2.364.148-3.402 3.77-5.417 4.386-2.716.828-3.355-2.377-4.903-3.999-1.731-.334-3.122-1.008-5.16-1.032-1.454 2.588-4.045 4.038-5.935 6.192-2.193-.69-3.618-1.476-5.804-1.161-2.23.32-3.535 2.451-5.675 2.578-1.587.095-2.773-.79-4.646-.515-.958.621-1.1 1.47-2.063 2.064-1.197.74-2.8.651-3.87 1.42-2.748 1.971-2.244 8.822-5.031 11.739-2.301 2.409-6.485 2.787-8.256 5.417-.608.903-.62 2.313-1.032 2.966-.74 1.177-2.61 1.578-3.483 2.71-2.492 3.23-.88 8.828-2.192 13.029h1.548c.303-.652.31-1.601.412-2.453.028-.222.055-.443.104-.644 2.21 2.575 4.82-.782 5.289-3.095-1.018.532-1.948 2.266-3.998 2.193-2.87-2.586-.384-8.169 3.095-8.386.156-.8-.555-.734-.518-1.419.845-1.77 2.375-1.088 4.13-1.418 1.414-.267 3.165-2.456 5.546-1.161-1.498 3.62-7.998 2.234-7.612 7.74 1.625-1.643 2.221-4.316 5.806-3.999-.38 2.371-1.941 3.563-2.837 5.417 1.654-.452 3.348-1.981 4.515-3.353-.167-.394-.774-.346-.774-.904.133-.94 1.15-.998 1.677-1.548-.415-.686-1.407.374-2.064-.128 1.873-2.188 4.981-4.722 8.126-4.773 3.782-.06 4.966 3.682 9.029 2.967.263.34.444.76.647 1.16 1.806-.164 3.453.49 3.224 1.935-1.085.376-1.787-.574-2.71-.773.965 3.273 8.437-.718 8.902 3.095-1.5 1.036-2.073-.213-3.097-.645-1.787-.752-3.66.537-5.545.259-.42-.06-.769-.55-1.293-.775-1.472-.63-3.038-.254-3.352-1.418-2.065-.086-2.784-1.516-3.999-2.45-.603.77-1.449.622-2.58.386.259 1.204 1.648 1.277 1.934 2.45 1.66.234 2.55 1.233 3.098 2.58 1.573-.157 2.226.61 2.964 1.29 1.307-.432 2.263.335 3.484.388.906 1.331 1.22 3.25 3.226 3.483.12-.853-.608-.855-.644-1.547.234-.796 1.253-.81 1.289-1.807-.254-.779-1.974-.09-2.451-.645.062-1.64 2.534-1.325 4-1.162.243.442.218 1.158.385 1.678.91-.166 1.052-1.097 2.065-1.161 1.973.09 3.016 1.797 3.225 3.225-.905-.343-1.302-1.193-2.323-1.42.147 2.642-2.942 2.044-4.773 2.71.312 1.074 1.354 2.698.13 3.484-1.172-.25-.859-1.98-2.322-1.936-.343.774.408 1.566.775 2.063.922.67 2.056 1.127 2.322 2.452-1.082-.08-1.551-.772-2.322-1.162-1.85 1.1-3.849-.487-3.612-2.707-.937-.871-1.839-1.776-2.323-3.098-2.94.635-2.615-3.332-4.903-3.611-.836-.103-1.476.403-2.192.258-1.844-.375-1.113-2.551-2.322-4.128-1.007.37-1.246 1.505-2.193 1.935.475.628 1.138.36 1.677.645 1.314.694 1.742 2.494 3.483 2.708.199.49.52.857.646 1.42 3.39.05 5.743 1.136 6.062 4.257 1.395.91 4.291 3.805 1.806 5.418-.765-.054-1.147-2.652-1.806-1.16.13 1.244 1.582 1.168 1.418 2.708-.87-.077-1.278-.754-1.807-1.033-.818-.375.09.539-.257.773-1.55-.08-1.547-1.718-2.965-1.933.117 1.13.457 3.963-1.163 4.128.036-.728-.975-2.954-1.288-1.29.046.56 1.083 1.78.418 2.232-.938-.183-1.379-1.445-1.452-2.491-.322-.365-.242-1.133-.772-1.29-.666.892.131 2.062.128 3.096-3.53-.92-1.705-7.199-3.612-10.062-.669-1.002-4.012-2.937-5.03-.903 1.455-.302 3.29.192 3.095 1.42-.26 1.634-4.086 1.013-5.418 1.935 1.976.075 4.187-.09 6.092.057h.831s.073-.027.178.05c.104.076.087.203.087.203l-.05.585-.028.598v.028H44.894c-7.069 0-14.951 3.017-17.607 6.738l-6.982 10.001c-1.269 1.779-.851 3.234.928 3.234H65.16c-1.19.794-2.158 1.663-2.807 2.575l-7.065 9.903H9.098l-3.612 5.063h92.383l-5.645 7.913c-1.329 1.86-4.816 3.37-7.792 3.37h-40.8l-3.612 5.06h46.192l-6.85 9.602c-2.655 3.724.925 6.74 7.996 6.74h32.171c7.073 0 14.956-3.016 17.609-6.74l22.331-31.306h-11.85l-21.126 29.617c-1.327 1.86-4.815 3.365-7.792 3.365H95.407c-2.978 0-4.314-1.506-2.99-3.365l10.482-14.533-.014-.031c.033.01.06.028.098.032a.74.74 0 0 0 .24-.067l.003-.001a.763.763 0 0 0 .182-.123l.144-.163c.021-.029.04-.06.06-.09l.066-.105.077-.135.044-.078.024-.035.084-.123.04-.058.015-.015a.832.832 0 0 1 .181-.165c.032.023.058.03.088.048l.09.023.257.047.213-.006c.28-.119.534-.39 1.012-.28.054 1.96-2.04 3.443-1.575 5.452.205.885 1.092.563 1.205 1.747-.738.21-1.451.569-1.805 1.16 2.221.96 5.233.076 6.916-.714-.065 1.571 1.344 1.51 1.623 2.736-1.32 1.045-1.47.731-1.49 1.788 1.097.313 2.199.233 3.528-.264 1.78-.667 4.27-3.627 4.643-1.291.19 1.177-.925 1.068-1.158 2.065 2.97.393 3.659-1.499 5.93-1.807.758-1.35.43-3.785 1.679-4.643.234.924-.427 1.634-.13 2.193 1.175-.942 2.273-2.638 1.808-4.772-.187-.858-1.294-1.479-1.033-2.45-.842-1.183-2.86-1.398-3.353-2.969-.122-.383.032-.916 0-1.29-.135-1.5-.877-3.021-.903-4.644 2.603.068 4.46-.614 6.577-1.032 1.666 3.856 3.3 7.908 7.132 9.6l.91-1.277c-.01-.015-.024-.029-.036-.043-.56-.733-1.512-1.177-2.076-1.932-.012-.016-.026-.029-.037-.045a2.267 2.267 0 0 1-.217-.37c.134-.196.292-.37.472-.525.06-.053.136-.092.202-.14.127-.095.251-.192.395-.272.066-.038.144-.066.214-.1.157-.078.313-.157.482-.223.052-.02.109-.034.161-.053a9.623 9.623 0 0 1 .639-.208c.926-.262 1.935-.44 2.85-.695.1-.028.201-.054.3-.084l.726-1.02.002-.004c-.428.012-.616-.048-1.153-.028-2.014.008-4.129-.088-5.805.258 1.126-1.624 2.697-2.807 4.903-3.355 1.02-.38 3.002-.169 4.305-.029l2.35-3.295c-2.258-1.058-4.68-2.436-7.43-2.48-4.604-.073-7.09 3.513-11.868 3.225.122-.75.375-2.559-.13-3.096-.803 1.872-1.796 4.208-4.772 3.483-.492-3.291-1.959-5.608-2.064-9.287a3.892 3.892 0 0 1-.093-.913c0-.118.02-.242.028-.362.014-.208.021-.413.051-.623.023-.157.057-.308.086-.462.032-.17.059-.342.096-.504.032-.14.064-.26.097-.39.035-.142.07-.295.105-.421l.04-.385c.013-.156.027-.313.03-.467a9.454 9.454 0 0 1-.01-.52l-.005-.075h.006v-.069l3.61-.018 2.97-4.163h-6.982c-.002-.009-.017-.01-.035-.01h-.014c-.066.006-.177.035-.185 0l-.002-.019c-.042-.238-.024-.677-.03-.777a3.062 3.062 0 0 1 .037-.68c0-.102.026-.246.059-.389.006-.035.004-.07.01-.105.031-.102.065-.202.097-.303l.025-.083.081-.258a11.836 11.836 0 0 0 .173-.612c.033-.137.058-.281.081-.428.01-.067.024-.13.032-.2.025-.218.039-.446.03-.697.146.09.257.217.367.342.48.539.698 1.34.984 2.073.022.056.22.605.245.66h.01l2.822.01c.058-.004.108-.005.167-.01.548-1.653-1.013-3.28-1.63-4.752-.364-.873-.564-1.913-1.03-2.709-.99-1.688-2.262-3.095-2.838-4.902-.62-1.942.083-5.347-1.161-6.579.468-.82.991-1.589 1.29-2.579 1.272 2.933.857 6.554 1.935 9.288.803 2.04 3.288 3.262 4.127 5.547.39 1.063.42 2.179.774 3.224.35 1.032.718 2.384 1.16 3.225 0 .009.011.041.022.077.02.058.048.13.065.182l1.793.006c.512-3.544-.347-6.12-1.364-8.52-.718-1.701-1.67-3.087-2.45-4.644-.596-1.188-.596-2.235-.904-3.742-.404-1.99-1.905-3.698-2.708-5.16 1.266-.083 2.233.707 2.966 1.42 5.033 4.893 5.321 14.72 8.773 21.156.342-2.386-.297-4.753-.129-6.967.075-.984.49-1.913.387-2.837-.086-.77-.737-1.487-1.032-2.322-.98-2.76-1.708-5.087-3.096-7.094 4.05 1.1 7.977 5.383 8.514 10.19.134 1.2-.116 2.455-.129 3.74-.032 2.96.605 5.434 1.549 7.353 1.408 2.869 3.943 4 4.514 7.482.73-3.401.353-6.551-.774-9.159-.66-1.525-1.899-2.812-2.323-4.515-.612-2.476.678-5.434-.257-7.74 3.209.06 3.906 1.691 4.902 4.129.531 1.3 1.24 2.45 1.419 3.869.132 1.052-.15 2.54-.13 3.741.035 2.093 1.16 4.067 1.033 5.676-.138 1.741-.909 4.477-.388 6.32.083.478-.165 1.286.13 1.55a4.26 4.26 0 0 1 .645-.647c.75-1.184.725-3.143 1.806-3.998.367 2.05-.067 4.052-.643 5.546h-.132c-.106.61-.514.919-.634 1.516h3.093c.038-.164.068-.335.104-.5.102-.447.202-.894.285-1.352.028-.16.047-.325.073-.487.078-.472.156-.945.214-1.425.025-.204.037-.41.058-.615.046-.44.095-.881.124-1.323.019-.278.021-.555.032-.833.017-.368.04-.737.044-1.103.003-.347-.012-.687-.02-1.03-.004-.293-.001-.59-.014-.878-.02-.425-.062-.838-.099-1.254-.018-.196-.025-.4-.047-.594a24.864 24.864 0 0 0-.214-1.464c-.017-.098-.026-.201-.044-.298-.105-.57-.23-1.12-.373-1.646-.426-1.552-1.213-2.588-1.807-3.999-.492-1.162-.604-2.344-1.031-3.483-.422-1.118-1.117-2.215-1.033-3.483 1.96-.069 3.234.55 4.386 1.29 1.703 3.885 2.42 8.76 2.322 14.447 1.738-3.662 3.51-8.916 2.193-14.06 3.517.611 3.701 5.237 3.612 8.902-.097 4.05-2.416 6.976-2.71 9.931-.152 1.546.09 2.64-.516 3.485 1.844-.645 1.444-2.734 2.451-4.387.754-1.235 2.474-1.858 3.226-3.095 1.62-2.674 1.015-6.408 1.418-10.579.434-.303.79.301 1.033.517 2.752 2.454 2.131 8.57.515 11.609-.802 1.509-2.205 2.529-2.84 3.998a5.8 5.8 0 0 0-.21.58l-.005.018c-.406 1.322-.39 2.594-1.408 3.11h1.66l.385-.347.664-.599.275-.248c.13-.115.256-.233.384-.35l.297-.27c.121-.111.24-.225.361-.338.102-.096.206-.19.307-.287.13-.123.257-.25.385-.376l.265-.259c.133-.133.262-.27.392-.406.08-.084.162-.165.24-.25.125-.134.244-.272.366-.408.08-.092.164-.181.243-.274.118-.137.23-.28.343-.42.08-.097.16-.19.237-.29.108-.14.21-.286.315-.43.076-.105.156-.207.229-.315.096-.14.185-.286.278-.43.076-.12.154-.233.226-.354.091-.151.174-.31.259-.466.066-.122.138-.238.2-.362.085-.167.161-.342.24-.515.056-.122.117-.24.17-.364.075-.178.14-.367.208-.55.048-.13.1-.253.145-.385.065-.194.12-.398.177-.598.038-.133.082-.26.117-.397.058-.233.106-.477.154-.72.023-.115.052-.223.073-.34.065-.365.117-.742.157-1.131 1.652 1.172 1.86 3.012 1.677 5.418-.219 2.878-1.428 3.47-2.58 5.16-.478.7-.71 1.696-1.16 2.193-1.214 1.333-3.318 1.93-4.774 2.966a8.924 8.924 0 0 0-1.756 1.637c-.38.495-.713 1.074-1.054 1.8-.097.237-.21.459-.288.715a1.838 1.838 0 0 0-.023.046c-.044.11-.081.189-.104.189-.1.286-.271.502-.257.903.472-.088.667-.41 1.031-.645 1.186-.975 1.807-1.019 2.451-1.936.253-.36.225-.997.645-1.547 1.853-2.439 6.245-1.32 7.87-3.613.53-.747.27-1.813 1.418-1.934.542 2.295 1.641 4.035 1.933 6.58-.559 1.115-1.697 1.653-2.19 2.835 1.189.736 3.141.206 4.386-.128 1.595 2.36 3.7 4.213 7.87 3.999 2.22 2.299 1.48 8.369-1.808 8.902.007.077.02.152.13.13 2.524.655 3.837-.967 5.158-1.936 1.756 3.792 6.593 4.502 7.225 9.417.105 1.18-.26 1.888-.775 2.45-1.485-.148-3.66.394-4.385-.516v-2.064c-.801.017-1.095.537-1.418 1.032-.273.676-.482 1.409-.904 1.935-.123.146-.645.191-1.024.14-.185-.023-.728-.18-.823-.241-.463-.308.173-1.25.17-1.834v-.774c-.532.07-.8.403-1.16.646-.302.642-.562 1.328-1.163 1.675-.464-.523-1.992.017-2.32-.644.142-.633.44-1.107.772-1.549.075-.269.321-.366.258-.774-.989-.128-1.47.252-1.934.646-.729 1.09-1.862 2.509-3.612 1.806-.43-.847.227-1.412.515-1.934.459-.947-.65-.983-.643-1.678.017-2.181 3.199-.814 4.901-.775.935.023 1.842-.251 2.71-.13 1.52.218 3.033 1.57 3.61.26-.696-.852-2.157-.937-3.223-1.417-1.87-.283-3.59-.712-4.645-1.806-.157-1.563-2.097-2.494-1.678-4.387.187-.83.97-1.243 1.678-1.805.558-.648 1.417-.993 1.678-1.937-.857-.293-2.016.22-2.71.516-1.121.515-1.963 1.305-3.095 1.806-1.384-.312-1.924-2.576-.776-3.61.446-.634 1.064-1.09 1.678-1.55-.35-.298-1.142.054-1.547.13-1.506.258-2.553.975-3.869 1.42-1.385-.895-3.631-.93-4.903-1.937-.031-.934-.022-1.826.387-2.32.74-2.315 3.28-2.827 4.902-4.259-4.024-.455-6.832 1.425-8.773 3.484-.496.836-.98 1.685-1.417 2.58-2.831-.008-5.451-.426-7.302-1.415l-1.448 2.031c3.5 1.474 7.982 1.393 11.715 1.964 6.808 1.038 11.482 4.678 13.288 10.448-2.028.252-2.944 1.616-3.225 3.612-1.394 1.155-2.784 3.901-1.678 6.322.91-1.103 3.252-1.51 4.903-.774-.02.792.069 1.477.514 1.805.834-.37.698-1.088 1.32-1.572.157-.12.237-.164.427-.22.988-.29 2.061.148 3.165.35.055.849.025 1.924.894 1.958.482-.679.435-1.887 1.162-2.321.818.04 1.827-.11 2.451.128-.057.959.092 1.713.514 2.193 1.185-.769.653-1.468 1.678-2.065 1.619-.94 4.501.406 5.934-.645 2.31-1.693.907-7.712-.774-9.157-.46-.396-1.14-.425-1.678-.773z" fill="#1D4A97"/><path d="M103.628 47.199c2.06 1.63 3.456-1.196 5.545-.646.622.164.836.984 1.42 1.419.938.698 2.866.868 3.483 2.065-.461-.011-.745-.201-1.16-.259.102 1.266 1.416.843 2.193 1.162 1.352.552 1.749 2.029 2.322 3.352-1.142-.49-1.412-1.854-2.838-2.063-.785.59-.147 2.607-1.29 2.838-.111-.104-.077-.353-.26-.387 1.057-4.52-3.116-6.137-6.191-4.514.129-.432.518-.601.645-1.033-1.215-1.378-3.67-.046-3.224 2.193-1.054-.624-1.3-2.915-.645-4.127zm11.61 8.771c.09-.906-.218-1.416-.13-2.322.879.798 1.664 1.692 2.063 2.967-.902.044-1.095-.623-1.933-.645zm-18.835-2.58c1.504-.873 4.189-1.212 3.611-3.741 1.252-.167 1.428-1.412 1.55-2.709 1.388.277.863 2.47.387 3.354.365.795.853 1.47 1.42 2.064.288-.514 1.341-.85 2.062-.515.363-.613 1.855-.39 2.58-.26.216-.17.432-.34.903-.257.12-.02.13.086.13-.13.741-.03 1.052-.494 1.935-.386-.565 1.907.585 3.193 1.418 4.128v.129c1.82-.574.415 2.443-.516 1.806.7.805 1.56 1.453 2.58 1.936-.315.2-.84.191-1.289.258.746 1.575 2.326 2.316 3.61 3.353.86.1 2.632-.844 3.742-.129.8-1.826 2.649.192 4.514-.645-.505-3.342-6.32-3.407-6.964-6.192-.083-.352.14-.84.129-1.162-.04-1.098-.615-2.265-1.161-2.966-1.296-1.657-4.541-2.652-5.033-4.386-.555-1.963.462-4.017-2.19-4.514-.269 1.753-1.532 2.51-2.453 3.612-2.524.237-5.113.557-7.482 0-1.581-1.962-2.342-4.683-6.45-4-.202.4-.526.677-.772 1.032.35.294.718.572 1.03.903h2.064c.49 1.832 2.362 2.284 2.195 4.773.744.16 1.221.584 1.288 1.42-.31-.079-.589-.186-1.032-.13-1.89 1.249-4.194 2.083-5.418 4 .89-.444 2.592-.762 3.612-.646z" fill="#F1511B"/><path d="M110.593 58.163c-.222.423-.68.61-.903 1.032-.005 1.32-1.568 2.292-3.095 1.934-1.756-.41-2.796-3.197-2.452-5.03-2.11.169-1.757 2.8-2.192 4.644.783.249 1.459.605 1.805 1.29.043-.474-.11-1.141.129-1.418.948.513 1.105 1.82 1.935 2.45.221-.295.986-.047 1.418-.129 1.173-.979 2.763-1.54 3.872-2.58.128 1.85-1.066 2.096-1.937 2.967-.285.29-.215.876-.772.773-.1.487.158.618.129 1.033.898.164 1.46-.683 2.063-.387.907-.255 1.863-1.275 1.806-1.16.004-.008.004-.017.008-.025.953-1.988-.522-4.17-1.814-5.394m37.152 81.269c.401 1.662 2.867 1.261 3.483 2.708.647-1.49.01-3.735-.388-4.514-1.162.471-2.44.827-3.095 1.806m-68.7-46.026 9.402.02 5.047-7.079h-9.252l-.005.01-.11.212-.008.016a2.993 2.993 0 0 0-.094.217c-.011.028-.022.052-.033.083l-.012.033c-.046.149-.117.3-.126.55 0 .046-.074.338-.006.338h6.816l-2.968 4.161h-9.432l.02.044.094.208.043.095.023.062.05.14c.03.09.06.186.081.278.002.003.002.005.002.008.012.05.024.1.026.135l.005.093c.005.101.006.205.006.286v.11l.43-.02m21.026 25.404-.404-.226-.088-.05-.038-.021-14.146-.005-15.212-.007 4.642-6.507c.06-.085.15-.17.228-.256.198-.221.437-.443.731-.66 1.341-.986 3.55-1.842 5.647-1.842l16.279-.018h.158s.056-.547.112-.76c.055-.209.126-.672.126-.672l-.197-.007H81.43c-2.976 0-6.463 1.508-7.792 3.367l-6.287 8.813h33.497s-.318-.566-.382-.685c-.062-.12-.397-.463-.397-.463" fill="#F1511B"/><path d="M67.637 80.996c.16 3.458 4.668 3.234 3.611 7.481-2.047-1.39-2.508-4.371-5.288-5.03-.603-2.494-2.892-3.3-4.386-4.902 3.038-1.145 3.682 2.102 6.063 2.45zm89.913 44.163c.878.26 1.99.646 2.707.986.023 0 .06-.08.104-.19a8.63 8.63 0 0 0 .12-.348c.065-.146.128-.276.191-.411.341-.727.674-1.306 1.054-1.8.472-.615 1.019-1.112 1.756-1.638 1.456-1.036 3.56-1.633 4.774-2.966.45-.497.682-1.493 1.16-2.193 1.152-1.69 2.361-2.282 2.58-5.16.183-2.406-.025-4.246-1.677-5.418-.04.389-.092.766-.157 1.13-.02.118-.05.226-.073.34-.048.244-.096.488-.154.721-.035.137-.079.264-.117.397-.058.2-.112.404-.177.598-.044.132-.097.255-.145.384-.069.184-.133.373-.208.55-.053.126-.114.243-.17.365-.079.173-.155.348-.24.515-.062.124-.134.24-.2.362-.085.156-.168.315-.259.466-.072.12-.15.235-.226.354-.093.144-.182.29-.278.43-.073.108-.153.21-.23.315-.104.144-.206.29-.314.43-.077.1-.158.193-.237.29-.113.14-.225.283-.343.42-.08.093-.163.182-.243.274-.122.136-.241.274-.365.407-.08.086-.161.167-.241.25-.13.136-.26.274-.392.407l-.265.26c-.128.125-.255.252-.385.375-.101.097-.205.191-.307.287-.12.113-.24.227-.361.339l-.297.27c-.128.116-.255.234-.384.35l-.275.247-.664.599c-.128.116-.256.23-.384.348h-1.661c1.018-.517 1-1.79 1.408-3.111l.004-.017a5.8 5.8 0 0 1 .212-.58c.634-1.47 2.037-2.49 2.839-4 1.616-3.037 2.237-9.154-.515-11.608-.243-.216-.599-.82-1.033-.517-.403 4.171.201 7.905-1.418 10.579-.752 1.237-2.472 1.86-3.226 3.095-1.007 1.653-.607 3.742-2.451 4.387.605-.845.364-1.939.517-3.485.293-2.955 2.612-5.881 2.71-9.93.088-3.666-.096-8.292-3.613-8.902 1.317 5.143-.455 10.397-2.193 14.06.097-5.688-.619-10.563-2.322-14.448-1.152-.74-2.426-1.359-4.386-1.29-.084 1.268.611 2.365 1.033 3.483.427 1.14.54 2.32 1.031 3.483.594 1.411 1.38 2.447 1.807 3.999.143.526.268 1.077.373 1.646.018.097.027.2.044.298.082.478.159.962.214 1.464.022.194.03.398.047.594.037.416.079.829.099 1.254.013.289.01.585.015.877.007.344.022.684.019 1.031-.005.366-.027.735-.044 1.103-.01.278-.013.555-.032.833-.029.442-.078.882-.124 1.323-.021.205-.033.411-.058.615-.058.48-.136.953-.214 1.425-.026.162-.045.327-.073.487-.083.458-.183.905-.285 1.351-.036.166-.065.337-.104.5h-3.98l-1.884 2.643-2.35 3.295-2.252 3.159-.727 1.019-.002.002c-.096.03-.199.054-.297.082-.915.255-1.924.433-2.85.695a9.623 9.623 0 0 0-.638.209c-.053.018-.11.032-.162.052-.17.066-.325.145-.482.222-.07.035-.148.063-.214.1-.144.08-.268.178-.395.272-.066.049-.141.088-.202.141-.18.155-.338.329-.472.526.06.132.135.254.217.37.011.015.025.028.037.044.564.755 1.515 1.2 2.076 1.932.012.014.026.027.037.042l-.91 1.277-10.09 14.147c-.932 1.304-3.872 2.755-6.607 2.755H95.407c-1.38 0-1.99-.395-2.042-.53-.008-.03.013-.215.239-.53l9.984-14.413 1.233-2.014-.03.001-.213.006-.258-.047-.089-.023-.063-.015-.025-.031-.18.163-.016.015-.04.058-.084.123-.024.035-.044.078-.064.114-.013.02-.065.106-.047.074-.014.016-.144.163-.017.019-.165.104-.002.001-.01.008-.203.074-.112-.016-10.483 14.533c-1.323 1.86.013 3.365 2.99 3.365h23.295c2.977 0 6.465-1.506 7.792-3.365l21.125-29.617h11.851l-22.331 31.306c-2.653 3.724-10.536 6.74-17.609 6.74H87.36c-7.072 0-10.652-3.016-7.997-6.74l6.85-9.602H40.02l3.611-5.06h40.8c2.977 0 6.464-1.51 7.793-3.37l5.645-7.913H5.486l3.611-5.063h46.191l7.065-9.903c.65-.912 1.616-1.78 2.807-2.575H21.233c-1.779 0-2.197-1.455-.928-3.234l6.982-10.001c2.656-3.721 10.538-6.738 17.607-6.738h18.888v-.028l.028-.598.05-.585s.017-.127-.087-.204c-.105-.076-.178-.05-.178-.05l-.83.001-11.436.004.133-.01c3.713-.257 4.888-2.782 7.533-3.406 1.018-2.034 4.361-.1 5.03.903 1.907 2.863.082 9.142 3.612 10.062.003-1.034-.794-2.204-.128-3.096.53.157.45.925.772 1.29-.009-.439.478-.38.904-.386.07.187.05.464.13.644.313-1.663 1.324.563 1.288 1.29 1.62-.164 1.28-2.998 1.163-4.127 1.418.215 1.415 1.852 2.965 1.933.348-.234-.56-1.148.257-.773-.376-.266-.45-.836-.386-1.547.202-.156.503-.413.775-.129.66-1.491 1.041 1.107 1.806 1.16 2.485-1.612-.411-4.508-1.806-5.417-.32-3.121-2.673-4.206-6.062-4.257-.127-.563-.447-.93-.646-1.42-1.74-.214-2.17-2.014-3.483-2.708-.539-.285-1.202-.017-1.677-.645.947-.43 1.186-1.566 2.193-1.935 1.21 1.577.478 3.753 2.322 4.128.716.145 1.356-.36 2.192-.258 2.288.279 1.963 4.246 4.903 3.611.484 1.322 1.386 2.227 2.323 3.098-.237 2.22 1.762 3.806 3.612 2.707v-1.29c-.367-.497-1.118-1.29-.775-2.063 1.463-.044 1.15 1.685 2.322 1.936 1.224-.786.182-2.41-.13-3.484 1.831-.666 4.92-.068 4.773-2.71-.463-.437-.905-.9-.902-1.805-1.013.064-1.155.995-2.065 1.161-.167-.52-.142-1.236-.386-1.678-1.465-.163-3.937-.478-4 1.162.478.554 2.198-.134 2.452.645-.036.998-1.055 1.011-1.29 1.807.037.692.765.694.645 1.547-2.006-.232-2.32-2.152-3.226-3.483-1.221-.053-2.177-.82-3.484-.387-.738-.68-1.391-1.448-2.964-1.291-.547-1.347-1.438-2.346-3.098-2.58-.286-1.173-1.675-1.246-1.934-2.45 1.131.236 1.977.385 2.58-.386 1.215.934 1.934 2.364 4 2.45.313 1.164 1.879.788 3.351 1.418.524.225.873.714 1.293.775 1.885.278 3.758-1.011 5.545-.259 1.024.432 1.597 1.681 3.097.645-.465-3.813-7.937.178-8.902-3.095.923.2 1.625 1.149 2.71.773.229-1.444-1.418-2.099-3.224-1.935-.203-.4-.384-.82-.647-1.16-4.063.715-5.247-3.027-9.03-2.967-3.144.051-6.252 2.585-8.125 4.773.657.502 1.65-.558 2.064.128-.526.55-1.544.608-1.677 1.548 0 .558.607.51.774.904-1.167 1.372-2.861 2.9-4.515 3.353.896-1.854 2.456-3.046 2.837-5.417-3.585-.317-4.181 2.356-5.806 3.999-.386-5.506 6.114-4.12 7.612-7.74-2.381-1.295-4.132.894-5.547 1.16-1.754.331-3.284-.352-4.129 1.42-.037.684.674.617.518 1.418-3.479.217-5.964 5.8-3.095 8.386 2.05.073 2.98-1.661 3.998-2.193-.468 2.313-3.078 5.67-5.29 3.095-.048.201-.075.422-.103.644-.095.834-.109 1.837-.327 2.515h-2.06c-7.598 0-15.854 3.229-18.802 7.362l-6.974 9.99c-1.021 1.433-1.276 2.899-.7 4.022.497.963 1.523 1.515 2.815 1.515h40.134c-.07.091-.136.181-.202.272l-6.628 9.292H8.346l-5.69 7.976h92.382l-4 5.61c-.931 1.305-3.874 2.756-6.606 2.756h-41.55l-5.69 7.978h46.19l-5.207 7.3c-1.25 1.75-1.487 3.584-.671 5.168 1.268 2.462 4.86 3.874 9.854 3.874h32.171c7.431 0 15.475-3.088 18.578-7.079.07-.09.153-.179.219-.272l2.046-2.87.86-1.205c2.576-.053 4.807 1.064 6.513-.09 1.77-1.2 2.373-3.5 3.354-5.418-2.42-1.174-4.703.68-5.418 2.451.372.702 1.204.945 1.805 1.418-1.102.13-2.275-.137-3.353.257-.907.335-1.013 1.02-1.935.26 0-.03-.045-.082-.074-.127l7.22-10.124 2.045-2.867.87-1.22 1.572-2.203 1.448-2.03 2.27-3.184z" fill="#F1511B"/><path d="M98.243 102.843c-.13-.201-.598-.69-.598-.69h-3.641l-28.706.003h-2.171l-27.522.003 4.153-5.976c.93-1.305 3.872-2.758 6.606-2.758l13.084.001h4.774l-.006-.009-.398-.599-.085-.123-.094-.205-.018-.457.002-.066H46.364c-2.976 0-6.466 1.51-7.793 3.37l-5.754 8.279h65.71c-.007-.029-.136-.542-.284-.773m24.733 6.404h-.02.024l.532-.01.892-1.253c.012.031.019.07.03.101.057.177.112.36.157.562l.009.05c.048.224.089.46.12.706l.005.047c.03.25.054.507.067.77v.021c.015.272.02.546.014.82 0 .033-.004.064-.005.096a11.82 11.82 0 0 1-.04.737c-.007.078-.02.15-.029.226-.022.193-.043.386-.074.567-.024.134-.058.252-.086.377-.027.114-.047.236-.079.343-.065.224-.14.43-.224.612 1.363-.011 2.815.063 3.996-.127-.378-2.529-.843-4.971-1.26-7.46-.094-.565-.2-1.12-.285-1.692l1.57-2.2c.014.082.032.172.048.256.19 1.05.418 2.206.611 3.405.024.15.05.296.073.446.047.316.082.636.12.955.022.185.05.37.068.556.03.3.04.598.057.898.011.203.033.407.037.609.006.293-.011.579-.021.868-.007.203-.001.408-.017.607-.023.302-.079.59-.125.882-.03.179-.041.364-.08.538-.1.46-.233.905-.408 1.332 2.474-.195 4.727-.606 7.095-.904-1.064-2.99-2.496-7.195-1.42-11.095 2.177 2.302 3.3 6.321 2.839 10.836 3.17-1.25 7.896-.24 9.416 1.805-.521-1.843.25-4.579.388-6.32.128-1.61-.998-3.583-1.032-5.676-.02-1.201.261-2.689.129-3.741-.179-1.42-.888-2.57-1.42-3.87-.995-2.437-1.692-4.069-4.9-4.128.934 2.306-.356 5.264.256 7.74.424 1.703 1.662 2.99 2.323 4.515 1.127 2.608 1.503 5.758.774 9.16-.571-3.484-3.106-4.614-4.514-7.483-.944-1.919-1.581-4.394-1.549-7.353.013-1.285.263-2.54.129-3.74-.537-4.807-4.464-9.09-8.514-10.19 1.388 2.007 2.116 4.334 3.096 7.094.295.835.946 1.552 1.032 2.322.104.924-.312 1.853-.387 2.837-.168 2.214.471 4.58.13 6.967-3.453-6.435-3.74-16.263-8.774-21.156-.733-.713-1.7-1.503-2.966-1.42.803 1.462 2.304 3.17 2.708 5.16.308 1.507.308 2.554.904 3.742.78 1.557 1.732 2.943 2.45 4.644 1.017 2.4 1.876 4.976 1.364 8.52l-1.793-.006h-.004a5.949 5.949 0 0 1-.06-.182.48.48 0 0 1-.022-.077c-.443-.84-.812-2.193-1.161-3.225-.354-1.045-.384-2.161-.774-3.224-.839-2.285-3.324-3.508-4.127-5.547-1.078-2.734-.663-6.355-1.935-9.288-.299.99-.822 1.758-1.29 2.58 1.244 1.231.542 4.636 1.16 6.578.577 1.807 1.85 3.214 2.839 4.902.466.796.666 1.836 1.03 2.71.617 1.47 2.178 3.098 1.63 4.75.007.006.023.009.032.012h-.199l-2.821-.01h-.014l.003-.001c-.024-.055-.223-.604-.245-.66-.286-.733-.503-1.534-.984-2.073-.11-.125-.22-.251-.367-.342a4.6 4.6 0 0 1-.03.698c-.008.068-.022.132-.032.199a5.147 5.147 0 0 1-.137.64c-.038.135-.075.27-.117.4l-.08.258a1.964 1.964 0 0 0-.192.88 3.018 3.018 0 0 0-.037.68c.006.1-.012.539.03.777 0 .006 0 .014.002.02.008.034.12.005.185 0h.014c.018 0 .033 0 .035.009h6.982l-2.97 4.163-3.61.018v.068l-.002.076a9.454 9.454 0 0 0 .017.63l-.037.357-.04.385c-.034.126-.069.28-.104.42-.033.131-.065.251-.097.391-.037.162-.064.334-.096.504-.029.154-.063.305-.086.462-.03.21-.037.415-.05.623-.008.12-.028.244-.029.362-.001.32.026.631.093.913 1.283.394 2.803.551 4.13.904.3-1.313.353-3.189.126-4.645m-20.639-10.062h.129c1.898-2.748 5.159-4.13 7.224-6.708-1.488-1.032-3.95-1.714-6.191-.903-.214.073-.167-.303-.312-.456-.01-.01-.023-.015-.034-.023a.212.212 0 0 0-.17-.037c-.947.656-1.787 1.857-2.582 2.966.128-1.955.576-3.896 1.42-5.29-.634-1.428-1.608-2.518-2.838-3.353-1.807.816-3.266 1.98-3.998 3.87 1.673 4.09 5.958 5.568 7.352 9.934m6.02-18.075c.991-.384 1.774-1.046 2.807-1.39-1.212-.52-.235-2.338-.57-3.755-.314-1.328-1.33-1.952-2.71-1.936-.366.725 1.311 1.042.646 2.064-.733-.47-1.022-1.386-2.194-1.417-.956.419-.77 1.978-.772 3.352 2.093.012 1.215 2.554 2.793 3.082" fill="#F1511B"/><path fill="#1D4A97" d="M157.316 152.589v-2.732h.953v-.328h-2.186v.328h.905v2.732h.328m4.014 0v-3.06h-.528l-.784 2.49-.785-2.49h-.526v3.06h.326v-2.6l.82 2.6h.33l.818-2.6v2.6h.33"/></g></svg>