<svg width="200" height="200" xmlns="http://www.w3.org/2000/svg"><g fill-rule="nonzero" fill="none"><path d="M42.273 0H95.03l.344.057.23.058c5.049.574 9.954 1.864 14.4 4.389 6.283 3.5 11.189 9.037 14.258 15.52 1.75 3.586 2.87 7.373 3.701 11.245 20.254 0 40.536-.028 60.79 0v.058c-.718.86-1.579 1.664-2.353 2.467-7.23 7.258-14.459 14.516-21.745 21.716v108.296c-.316 5.737-1.865 11.36-4.361 16.524-2.869 5.823-7.028 10.959-12.508 14.487-3.844 2.496-8.176 4.102-12.68 4.848-1.262.258-2.524.258-3.758.545H79.31c-.631-.114-1.262-.23-1.922-.287-6.024-.688-11.82-2.926-16.61-6.655-7.574-5.824-12.393-14.66-14.286-23.954-1.865-.23-3.73-.344-5.566-.689-7.401-1.29-14.401-4.762-19.593-10.212-6.484-6.57-10.012-15.664-10.902-24.758-.057-.315-.114-.602-.172-.918V96.103c10.7 0 21.401.029 32.102 0-3.558-2.266-7.23-4.418-10.844-6.598-6.082-3.787-11.447-8.778-15.147-14.946-3.3-5.393-5.221-11.475-5.881-17.758-.058-.287-.115-.573-.172-.889v-20.11c.2-.918.286-1.836.344-2.754.315-2.123.63-4.217 1.205-6.283 1.664-6.856 5.163-13.425 10.47-18.159 5.078-4.59 11.59-7.401 18.36-8.32.517-.085 1.062-.171 1.578-.286Z" fill="#181717"/><path d="M42.417 5.307c1.635-.143 3.242-.115 4.877-.115H91.76c3.758-.028 7.516.632 11.044 1.836 4.934 1.722 9.352 4.791 12.623 8.865 4.217 5.164 6.627 11.733 7.573 18.274.144.717.172 1.434.201 2.18 1.119.23 2.152.144 3.27.144h45.614c1.348 0 2.696-.03 4.045.028-5.594 5.594-11.189 11.217-16.811 16.782-.029 11.963 0 23.897 0 35.86.057 24.556 0 49.142.028 73.727-.086 6.311-2.151 12.622-5.45 17.987-2.898 4.676-6.914 8.606-11.906 11.045-4.245 2.123-9.094 3.07-13.827 3.012H81.977c-6.369.029-12.68-1.807-17.786-5.652-5.68-4.303-9.41-10.442-11.504-17.183-.402-1.55-.86-3.07-1.033-4.676l-.114-.201c-.058-.775-.115-1.55-.23-2.324a10.65 10.65 0 0 1-.115-.947c-1.95 0-3.93.058-5.88-.057-3.558-.287-7.058-1.061-10.357-2.438-4.963-2.066-9.323-5.509-12.508-9.84-4.217-5.68-6.34-12.68-6.827-19.68-.029-2.008-.258-4.016-.201-6.024v-24.528c11.934-.029 23.897 0 35.83 0 .03-2.094 0-4.189 0-6.283-5.536-3.27-11.044-6.598-16.58-9.868-4.533-2.754-8.607-6.34-11.791-10.586-4.246-5.651-6.742-12.536-7.258-19.594-.316-6.397-.258-12.852.057-19.249.344-3.758 1.004-7.43 2.266-11.016 1.865-5.365 5.078-10.184 9.582-13.655 4.246-3.328 9.467-5.25 14.889-5.824Z" fill="#FFF"/><path d="M47.868 12.795H88.89c4.647-.086 9.438.459 13.626 2.553 4.045 1.95 7.287 5.307 9.41 9.237 2.438 4.562 3.614 9.869 3.815 15.004.029 3.959.029 7.918 0 11.876-7.143 3.96-14.286 7.947-21.43 11.906a28.513 28.513 0 0 1-2.925 1.549c-.03-8.434 0-16.897 0-25.331 0-1.062-.201-2.439-1.291-2.955-.947-.143-1.951-.057-2.927-.057H51.31c-1.004 0-2.209.114-2.955.889-.746.918-.86 2.438-.89 3.557v10.04c.03 1.435.03 3.07.632 4.39.832 1.492 2.61 2.525 4.045 3.356 2.266 1.32 4.504 2.697 6.77 4.017 8.09 4.848 16.209 9.725 24.327 14.573 5.537 3.356 11.102 6.656 16.668 9.955 4.13 2.467 7.975 5.307 10.958 9.15a22.19 22.19 0 0 1 3.586 7c1.033 3.414 1.32 7.144 1.32 10.672v14.057a44.25 44.25 0 0 1-1.004 9.725c-.975 4.275-2.64 8.406-5.565 11.734-3.759 4.331-9.467 6.57-15.147 6.57H83.239c-.028-7.861-.057-15.75 0-23.64 1.808-.057 3.672.087 5.48-.086.745-.114 1.434-.229 1.922-.86.717-.947.717-2.324.746-3.471V115.61c.028-2.41-.918-4.791-2.611-6.484-1.55-1.663-3.557-2.553-5.508-3.786-8.119-4.82-16.208-9.697-24.298-14.516-5.738-3.443-11.533-6.857-17.27-10.3-1.865-1.118-3.73-2.122-5.48-3.413-5.077-3.672-9.094-8.635-11.216-14.573-1.263-3.414-1.75-6.971-1.894-10.586V42.2c0-1.606-.086-3.184.172-4.79.287-4.734 1.349-9.697 3.672-13.885 1.98-3.615 5.02-6.627 8.75-8.406 3.73-1.893 8.004-2.41 12.164-2.323Z" fill="#C32F41"/><path d="M127.275 44.35h.057c1.807-.085 3.643-.028 5.45-.028 8.205.029 16.439-.028 24.643.029-1.95 1.95-3.901 3.873-5.823 5.852V163.29c.028 1.72-.345 3.47-.717 5.163-1.263 5.078-3.759 10.04-7.717 13.54-3.5 3.128-8.004 4.906-12.68 5.25-1.148.058-2.295.058-3.443.058h-45.04c-3.93.057-7.946-.918-11.33-2.897-3.931-2.295-7-5.939-8.923-10.041-1.807-3.873-2.926-8.233-2.811-12.508V90.853c8.119 4.849 16.208 9.697 24.298 14.516v27.31c-.057 7.89-.028 15.75 0 23.64.058 1.663-.057 3.327.029 4.962.057 1.004.516 2.009 1.55 2.353 1.032.143 2.15.057 3.183.086h36.434c.717 0 1.32-.029 1.836-.574.774-.947.975-2.094.946-3.299.058-38.527.029-77.055.058-115.496Z" fill="#181717"/><path d="M53.146 44.294c10.04-.03 20.081-.03 30.122 0v33.105a6811.863 6811.863 0 0 1-24.327-14.573c.029-4.246 0-8.463.029-12.709a557.295 557.295 0 0 1-5.824-5.823Z" fill="#181717"/><path d="M83.24 105.34c1.979 1.263 3.958 2.124 5.507 3.787 1.693 1.722 2.61 4.074 2.61 6.484v12.594c-.028 1.118 0 2.524-.745 3.47-.488.632-1.176.747-1.922.861-1.807.201-3.643.03-5.48.087.058-9.094.03-18.188.03-27.282Z" fill="#FFF"/><path d="M47.466 109.156v20.225c0 1.119.315 2.897 1.606 3.242 3.27.086 6.541 0 9.812.028v23.61h-11.59c-6.57-.029-13.11-2.668-17.5-7.66-3.901-4.417-5.766-9.983-6.426-15.778-.057-1.836-.344-3.614-.286-5.45v-18.217c8.147-.029 16.265 0 24.384 0Z" fill="#C32F41"/><path d="M159.663 188.42h5.02c0 .401 0 .803.029 1.205h-1.779v5.422H161.5c0-1.808 0-3.615-.029-5.394-.602 0-1.205 0-1.807-.028-.029-.373 0-.775 0-1.205ZM165.716 188.448c.688-.028 1.377-.028 2.094-.028.66 1.463.976 3.012 1.55 4.504.487-1.492.917-3.012 1.434-4.476.746 0 1.491 0 2.237-.028.115 2.209.086 4.446.029 6.655a25.92 25.92 0 0 1-1.492-.057c-.028-1.434 0-2.84-.028-4.275-.517 1.435-.947 2.87-1.435 4.304H168.7c-.573-1.52-1.004-3.099-1.606-4.59.029 1.549.057 3.07-.029 4.59h-1.377c-.086-2.152-.2-4.418.029-6.599Z" fill="#181717"/></g></svg>