<?xml version="1.0" encoding="UTF-8"?>
<svg width="200px" height="200px" viewBox="0 0 200 200" version="1.1" xmlns="http://www.w3.org/2000/svg" xmlns:xlink="http://www.w3.org/1999/xlink">
    <!-- Generator: Sketch 51.3 (57544) - http://www.bohemiancoding.com/sketch -->
    <title>seton-hall</title>
    <desc>Created with Sketch.</desc>
    <defs></defs>
    <g id="seton-hall" stroke="none" stroke-width="1" fill="none" fill-rule="evenodd">
        <g id="seton-hall_BGL" transform="translate(1.960784, 0.000000)">
            <g id="seton-hall">
                <g id="g10" transform="translate(97.999998, 100.035914) scale(-1, 1) rotate(-180.000000) translate(-97.999998, -100.035914) translate(0.000000, 0.201111)">
                    <g id="g12">
                        <path d="M52.551691,100.28801 C48.4805629,100.447818 43.7815886,100.31674 39.3924093,99.2569824 C34.4679991,98.0675836 30.2310967,95.7218248 27.1432352,93.5545477 C25.6524865,92.508437 24.4830199,91.5420504 23.6875327,90.8353062 C23.3285584,90.5164094 22.5040302,89.6699683 21.7573636,88.9025332 C20.9193738,88.0410091 20.1756149,87.2624413 20.148261,87.2340709 L8.17790236,74.6907975 C8.17790236,74.6907975 5.08788705,98.9707653 5.02930244,102.614377 C5.00754859,103.961787 5.02158449,105.559144 5.13207679,107.266032 L0,106.332684 L0.478164603,118.860156 C0.4992005,119.412121 0.846393312,127.546862 4.71308193,136.891112 C8.63444594,146.366799 16.5731278,157.911366 32.0545787,163.073687 C43.2230246,166.7981 54.4599986,165.685552 62.3459472,163.981178 C63.7114856,163.685983 65.0052291,163.366727 66.2128189,163.03993 C73.0512802,177.060256 90.7465618,201.06873 130.404971,199.533142 C173.609688,197.859652 188.409123,161.079864 191.926354,137.092577 C194.24497,121.284562 192.004252,107.259568 190.407175,100.432376 C191.432764,98.2313414 192.629585,95.1019871 193.18779,91.4705859 C193.888867,86.9119421 193.145072,82.8305661 192.278508,79.9364341 L192.437534,79.6419574 C193.823175,77.0494845 196.346405,71.7302288 195.716764,65.9355008 C194.756149,57.0929383 189.521585,41.1452263 167.101842,38.9574795 C164.792201,38.7319534 162.857329,38.6087759 161.05815,38.630323 C158.415022,33.6979091 154.589073,27.6166049 150.189483,22.8765347 C146.692355,19.1089918 141.796304,14.626481 137.973586,11.2403933 C134.084099,7.79469204 124.75974,0 124.75974,0 C124.75974,0 110.561946,10.9282839 106.465331,14.3776122 C102.479997,17.7328517 97.0189207,22.542519 92.9036387,27.1235 C90.3308695,29.987071 87.623485,33.5075406 85.2958953,36.7079643 C85.0191261,36.6777984 84.7373312,36.649069 84.4515876,36.6224942 C80.6338954,36.2662492 74.4225622,36.0823808 68.855947,38.3782221 C54.0945628,44.467786 47.1376398,60.178121 53.7398961,73.359188 C52.5247679,75.7685106 51.572409,78.6346314 51.3631269,81.877826 C51.012768,87.3091266 52.2684602,91.762908 53.909332,95.2765185 L53.7725628,95.7203883 C53.2954858,97.2944025 52.8919987,98.8339414 52.551691,100.28801 Z M163.688714,35.2764841 L161.753124,35.2847438 L161.753124,36.3125754 L166.725278,36.3226307 L166.725278,35.2951223 L164.805842,35.2743653 L164.805842,30.0586073 L163.688714,30.0634913 L163.688714,35.2764841 Z M169.69938,30.0374193 L168.403124,33.9011699 L168.403124,30.0427343 L167.269483,30.0477979 L167.269483,36.2895919 L168.650816,36.2831277 L170.215585,31.6537376 L171.781073,36.2694812 L173.161688,36.2637354 L173.161688,30.0218336 L172.028047,30.0268972 L172.028047,33.8866974 L170.731432,30.0326431 L169.69938,30.0374193 Z" id="path14" fill="#FFFFFF"></path>
                        <path d="M185.716816,67.0221918 C185.035124,60.750196 181.927124,50.514974 166.125073,48.9725622 C160.791073,48.4522002 158.781534,48.6217039 155.17097,49.7213232 C153.711022,45.7893402 148.657381,36.0152257 142.818663,29.7241607 C136.541997,22.9623639 124.499484,12.8959991 124.499484,12.8959991 C124.499484,12.8959991 116.938048,18.7129924 112.942305,22.0767789 C109.022305,25.3774324 104.009946,29.8150535 100.385382,33.8496724 C97.209536,37.3845426 93.7447156,42.1177178 91.1726644,45.7965226 L89.8559465,47.6991297 C89.3907157,47.5633831 79.1387673,45.021546 72.69087,47.681533 C62.2996395,51.9683245 59.0839472,61.9632966 62.8826138,69.1420654 C63.8152292,70.9042574 64.8415368,72.3436023 65.9015881,73.5107358 C63.7929728,75.6769355 61.6380497,78.8576437 61.4011267,82.5256749 C61.3659472,83.0736889 61.3558959,83.6059018 61.368819,84.1226726 C61.4765113,88.4888292 63.2060497,91.7679357 64.9560497,94.3891379 C64.4043061,95.6905815 63.8507676,97.1482415 63.3991779,98.6385812 C61.8107164,103.882422 61.1656395,108.441784 61.2891267,109.937511 C60.0230241,109.474608 48.3933321,111.7823 37.0325119,109.038997 C24.0056917,105.893124 15.4709688,96.9058368 15.4709688,96.9058368 C15.4709688,96.9058368 14.1475022,107.167993 16.3692304,113.083384 C17.5005739,116.094948 20.4120354,120.273286 20.4120354,120.273286 L10.5297228,118.4759 C10.5297228,118.4759 11.5676612,145.634558 35.235594,153.527253 C52.7541525,159.369385 72.0698444,150.38138 72.0698444,150.38138 C72.0698444,150.38138 81.9753826,191.33771 130.016202,189.477119 C165.478919,188.103852 177.87897,158.624574 181.674047,135.551961 C184.593585,117.801836 179.652662,99.1528381 179.652662,99.1528381 C179.652662,99.1528381 182.45697,95.0675118 183.245995,89.9403842 C183.568354,87.8452898 183.369842,85.837461 182.984303,84.1244682 C182.293636,81.0568823 181.000252,78.9305446 181.000252,78.9305446 C181.000252,78.9305446 186.272508,72.14501 185.716816,67.0221918 Z M189.90497,78.2870052 C189.6562,78.7534994 189.404559,79.1991649 189.157585,79.6186147 L189.2782,79.9712686 C189.664098,81.1297832 190.046764,82.5364484 190.299123,84.1223135 C190.62579,86.1757502 190.734559,88.5297687 190.349739,91.0335393 C189.811995,94.5270392 188.618765,97.5321386 187.629431,99.5880892 L187.3742,100.107374 C188.912406,106.251524 191.454662,120.521436 189.085431,136.675641 C185.623483,160.282263 171.316201,195.073614 130.294407,196.661993 C90.0436901,198.220565 73.4960494,172.536805 67.7804598,159.59922 C66.0125112,160.139334 63.9760497,160.689503 61.7396395,161.172875 C54.1010243,162.823741 43.4434348,163.843277 32.9626761,160.34834 C18.5237944,155.533286 11.0876766,144.784166 7.36654853,135.791852 C3.68508709,126.895422 3.36272094,119.144578 3.34785581,118.750266 L3.00627018,109.79925 L8.40491774,110.781438 C7.92758955,107.823742 7.86505621,104.882207 7.90081006,102.660344 C7.94327672,100.003589 9.21749208,89.4390554 9.87725104,84.1244682 C10.1090408,82.2570546 10.2649792,81.037849 10.2649792,81.037849 L13.2103997,84.1244682 L18.0712713,89.2181979 C18.0987688,89.2469273 18.8516098,90.0348322 19.6995431,90.9064116 C20.503179,91.732383 21.3941533,92.6398741 21.7804815,92.983191 C22.6355943,93.7427255 23.8920045,94.7823721 25.4940353,95.9067706 C28.774307,98.2087169 33.3405684,100.750913 38.7186144,102.049484 C43.4768194,103.198302 48.4751783,103.323275 52.6644089,103.158799 C53.447691,103.128274 54.1914858,103.088053 54.8875371,103.044241 C55.281332,101.072683 55.8248191,98.851179 56.5208704,96.5535421 C56.6730755,96.0514951 56.834614,95.5526802 57.0029729,95.0606886 C55.5135884,92.1755346 54.2568192,88.5531113 54.1796397,84.1244682 C54.1681525,83.4561496 54.1835884,82.7687978 54.2291781,82.0627718 C54.4459986,78.694245 55.5990243,75.7577371 57.0044088,73.3692433 C56.8443063,73.0873357 56.6863576,72.8000413 56.5309217,72.5062828 C50.4323064,60.9818271 56.2904088,46.6698976 69.9508188,41.0346179 C74.8490238,39.013861 80.4798954,39.1370385 84.1848697,39.4832282 C85.0460492,39.5633115 85.8673825,39.6631463 86.629485,39.7701635 C89.1006644,36.3118572 92.1551772,32.254542 95.0395361,29.0432371 C99.0144591,24.6189393 104.3481,19.9152117 108.314767,16.5754144 C112.386972,13.1473817 124.685433,3.68207274 124.685433,3.68207274 C124.685433,3.68207274 132.201279,9.96441116 136.069586,13.3911869 C139.884407,16.7700922 144.690355,21.1743513 148.084458,24.8316089 C152.734612,29.8405868 156.784201,36.5294827 159.358047,41.5776044 C161.572201,41.4084598 163.871791,41.5287643 166.822919,41.8167769 C187.341175,43.8192189 191.979123,58.1203749 192.861841,66.2454196 C193.39097,71.1186508 191.250047,75.7706653 189.90497,78.2870052 Z" id="path16" fill="#A9AFB2"></path>
                        <path d="M105.534869,119.486817 C98.4598437,120.610498 87.791485,119.599221 87.791485,119.599221 C87.791485,119.599221 94.6417925,123.419159 104.075279,124.317673 C111.285638,125.004665 114.631279,124.205628 114.631279,124.205628 L118.224612,116.116495 C115.529433,117.240175 113.715536,118.188247 105.534869,119.486817 Z M178.461585,69.6178967 C178.399842,71.5542609 177.372457,73.0453189 176.186406,74.1277005 L176.186047,74.1277005 L176.186406,74.1294961 C174.489534,75.6798085 172.465278,76.3984036 172.465278,76.3984036 C172.465278,76.3984036 173.021329,75.4284259 173.505226,74.1277005 L173.507021,74.1259049 L173.505226,74.1251867 C173.964355,72.8883843 174.358508,71.3502819 174.149585,70.0553024 C172.84615,61.9711972 160.995688,65.1842259 148.221945,70.9218541 C144.722663,72.4933545 141.588099,73.4949346 138.925945,74.1277005 L138.924509,74.1277005 C132.940407,75.5501669 129.342407,75.1113247 129.342407,75.1113247 L132.320458,80.371326 L119.807689,80.2819056 L122.675176,126.730587 C122.675176,126.730587 127.658099,114.431513 132.581433,105.606548 C138.433073,95.1170701 144.572612,88.3943812 144.572612,88.3943812 C144.572612,88.3943812 153.149586,94.2095789 157.606611,99.3474801 C161.096919,103.37032 165.952047,110.387126 165.952047,110.387126 L174.812252,112.126335 C174.812252,112.126335 160.572458,124.315159 130.016202,131.507933 C121.011689,133.627448 109.001125,135.326435 100.256869,135.664724 C104.635997,136.338789 111.154972,136.628956 119.797279,136.900449 C138.386048,137.484016 154.047022,134.662067 174.037226,128.811675 C174.037226,128.811675 174.021791,146.177544 161.909278,163.862669 C145.288407,188.12899 104.943279,188.650071 86.4438953,163.413413 C81.1540493,156.197296 78.3834852,148.39007 77.0175878,141.32981 C73.4019982,141.532712 67.9613829,142.728575 59.7753318,145.84141 C28.1093788,157.883355 19.9628867,126.369314 19.9628867,126.369314 C19.9628867,126.369314 32.1056248,138.937366 50.187127,132.431944 C28.0210352,130.959201 23.7883686,109.824389 23.7883686,109.824389 C23.7883686,109.824389 35.2843786,120.669034 54.7715884,118.210871 C65.0999984,116.907632 71.711588,121.790559 75.839434,127.439845 C75.9460494,121.881416 76.7085109,118.282695 76.7864083,118.251092 L68.9740496,118.171009 C68.9740496,118.171009 67.6706137,109.77914 70.2774854,101.173236 C71.5080495,97.110175 73.866511,93.0858987 73.866511,93.0858987 L74.1522546,92.7188801 C70.4164085,91.7761954 67.6515881,88.3918674 67.6515881,84.3614861 C67.6515881,79.601377 71.5084085,75.7426541 76.2669725,75.7426541 C78.8971775,75.7426541 81.2520493,76.9223568 82.8326133,78.7807924 C81.885998,78.1336618 80.7408698,77.7547923 79.5077929,77.7547923 C76.2504596,77.7547923 73.6102033,80.3961052 73.6102033,83.6543827 C73.6102033,86.0303074 75.014152,88.0783573 77.0373314,89.0127824 L77.3158955,88.6551009 C77.3158955,88.6551009 78.8799467,86.8297041 80.443998,85.5261057 C82.0084082,84.2217892 83.8330748,82.9178317 83.8330748,82.9178317 C83.8330748,82.9178317 84.5348697,78.481288 85.8824594,74.3244972 C85.9036389,74.2587786 85.9251773,74.1934191 85.9463568,74.1277005 C87.2630747,70.0991148 88.9147157,66.0112747 88.9147157,66.0112747 C88.9147157,66.0112747 85.7381517,63.8235278 83.18728,62.7529971 C79.7063057,61.2928233 76.5749724,60.302735 74.4279469,62.4161444 C70.9466136,65.8428483 74.187793,71.1822147 74.187793,71.1822147 C74.187793,71.1822147 71.0370751,70.9085668 69.2346649,66.2274637 C68.0267162,63.0902089 68.2593316,56.8246772 75.8878955,54.4397745 C83.074921,52.1927732 92.6965105,56.8390419 92.6965105,56.8390419 C92.6965105,56.8390419 95.2617412,52.8499592 98.5456386,48.2712047 C100.801074,45.1267675 103.395023,41.7047321 105.73051,39.1054361 C112.277484,31.8178546 124.499484,22.4147089 124.499484,22.4147089 C124.499484,22.4147089 133.226509,29.1277016 137.794817,34.4113688 C141.228407,38.3818133 145.615432,45.3645036 145.615432,45.3645036 C145.615432,45.3645036 137.203227,37.4757586 128.149535,42.7565887 C125.939689,44.0454632 124.870664,46.0662202 124.70374,48.2712047 C124.445638,51.6946766 126.364356,55.5595045 129.566766,57.810097 C129.566766,57.810097 118.4041,54.5776759 117.775177,59.6078416 C117.438459,62.3037405 120.133638,63.8766773 123.839689,63.9890812 C128.273022,64.1233913 132.853535,63.9107935 138.576663,62.8370307 C151.089791,60.4901946 154.739124,55.5350844 165.427586,56.5783222 C176.115329,57.6212009 178.64179,63.9890812 178.461585,69.6178967 Z" id="path18" fill="#1A5DAD" fill-rule="nonzero"></path>
                    </g>
                </g>
            </g>
        </g>
    </g>
</svg>