<svg width="200" height="200" xmlns="http://www.w3.org/2000/svg"><g fill="none" fill-rule="evenodd"><path d="M54.512 99.583c-4.07-.16-8.77-.029-13.159 1.03-4.924 1.19-9.161 3.536-12.249 5.703a38.858 38.858 0 0 0-3.456 2.72c-.359.318-1.183 1.165-1.93 1.932-.838.862-1.582 1.64-1.609 1.669l-11.97 12.543S7.049 100.9 6.99 97.256a57.892 57.892 0 0 1 .103-4.651l-5.132.933.478-12.527c.021-.552.368-8.687 4.235-18.031 3.921-9.476 11.86-21.02 27.341-26.183 11.169-3.724 22.406-2.612 30.292-.907 1.365.295 2.659.614 3.867.94C75.012 22.81 92.707-1.197 132.366.339c43.204 1.673 58.004 38.453 61.521 62.44 2.319 15.808.078 29.833-1.519 36.66 1.026 2.201 2.222 5.33 2.78 8.962.702 4.559-.042 8.64-.909 11.534l.16.295c1.385 2.592 3.908 7.911 3.279 13.706-.961 8.843-6.196 24.79-28.615 26.978-2.31.226-4.245.349-6.044.327-2.643 4.933-6.47 11.014-10.869 15.754-3.497 3.768-8.393 8.25-12.216 11.636-3.89 3.446-13.213 11.24-13.213 11.24s-14.198-10.928-18.295-14.377c-3.985-3.355-9.446-8.165-13.562-12.746-2.572-2.863-5.28-6.384-7.607-9.584-.277.03-.559.059-.845.085-3.817.356-10.029.54-15.595-1.756-14.762-6.09-21.719-21.8-15.116-34.98-1.215-2.41-2.168-5.276-2.377-8.52-.35-5.43.905-9.884 2.546-13.398l-.137-.444a73.636 73.636 0 0 1-1.22-4.567zm111.137 65.011l-1.935-.008v-1.028l4.972-.01v1.028l-1.92.02v5.216l-1.117-.005v-5.213zm6.011 5.24l-1.296-3.864v3.858l-1.134-.005v-6.242l1.382.007 1.564 4.629 1.566-4.616 1.38.006v6.242l-1.133-.005v-3.86l-1.297 3.854-1.032-.005z" fill="#FFF"/><path d="M187.678 132.849c-.682 6.272-3.79 16.507-19.592 18.05-5.334.52-7.344.35-10.954-.75-1.46 3.932-6.514 13.706-12.353 19.998-6.276 6.761-18.319 16.828-18.319 16.828s-7.561-5.817-11.557-9.181c-3.92-3.3-8.932-7.738-12.557-11.773-3.176-3.535-6.64-8.268-9.213-11.947l-1.316-1.902c-.466.135-10.717 2.677-17.165.017-10.392-4.287-13.607-14.282-9.809-21.46.933-1.763 1.96-3.202 3.02-4.369-2.11-2.166-4.264-5.347-4.501-9.015a17.924 17.924 0 0 1-.032-1.597c.107-4.366 1.837-7.645 3.587-10.266a42.938 42.938 0 0 1-1.557-4.25c-1.588-5.244-2.234-9.803-2.11-11.299-1.266.463-12.896-1.845-24.257.899-13.027 3.146-21.561 12.133-21.561 12.133s-1.324-10.262.898-16.178c1.131-3.011 4.043-7.19 4.043-7.19l-9.882 1.798s1.037-27.159 24.705-35.052c17.519-5.842 36.835 3.146 36.835 3.146s9.905-40.956 57.946-39.095c35.463 1.373 47.863 30.852 51.658 53.925 2.92 17.75-2.022 36.399-2.022 36.399s2.805 4.085 3.594 9.212c.322 2.095.124 4.103-.262 5.816-.69 3.068-1.984 5.194-1.984 5.194s5.272 6.786 4.717 11.909zm4.188-11.265c-.249-.467-.5-.912-.748-1.332l.121-.353a26.21 26.21 0 0 0 1.02-4.15c.328-2.054.436-4.408.052-6.912-.538-3.493-1.731-6.498-2.72-8.554l-.256-.52c1.538-6.144 4.08-20.414 1.711-36.568-3.462-23.607-17.769-58.398-58.79-59.986C92.003 1.65 75.455 27.334 69.74 40.27a74.905 74.905 0 0 0-6.04-1.573c-7.64-1.651-18.297-2.67-28.778.824C20.485 44.337 13.048 55.087 9.327 64.08 5.646 72.975 5.324 80.726 5.31 81.12l-.342 8.951 5.399-.982c-.478 2.958-.54 5.9-.504 8.121.042 2.657 1.316 13.222 1.976 18.536.232 1.868.388 3.087.388 3.087l2.945-3.087 4.861-5.093c.028-.03.78-.817 1.628-1.689.804-.826 1.695-1.733 2.081-2.076.855-.76 2.112-1.8 3.714-2.924 3.28-2.302 7.846-4.844 13.224-6.143 4.759-1.149 9.757-1.274 13.946-1.11.783.031 1.527.072 2.223.115a69.833 69.833 0 0 0 1.634 6.491c.152.502.313 1.001.482 1.493-1.49 2.885-2.746 6.508-2.824 10.936a25.29 25.29 0 0 0 .05 2.062c.217 3.368 1.37 6.305 2.775 8.693-.16.282-.318.57-.473.863-6.099 11.525-.24 25.837 13.42 31.472 4.898 2.02 10.529 1.898 14.234 1.551a52.69 52.69 0 0 0 2.444-.286c2.471 3.458 5.526 7.515 8.41 10.726 3.975 4.425 9.309 9.129 13.276 12.468 4.072 3.428 16.37 12.894 16.37 12.894s7.516-6.283 11.384-9.71c3.815-3.378 8.621-7.783 12.015-11.44 4.65-5.009 8.7-11.698 11.274-16.746 2.214.17 4.514.049 7.465-.24 20.518-2.002 25.156-16.303 26.039-24.428.529-4.873-1.612-9.525-2.957-12.041z" fill="#A9AFB2"/><path d="M107.496 80.384c-7.075-1.124-17.744-.113-17.744-.113s6.85-3.82 16.284-4.718c7.21-.687 10.556.112 10.556.112l3.593 8.09c-2.695-1.124-4.509-2.073-12.69-3.371zm72.926 49.869c-.061-1.937-1.089-3.428-2.275-4.51v-.002c-1.697-1.55-3.72-2.269-3.72-2.269s.555.97 1.039 2.271l.002.002h-.002c.46 1.237.853 2.775.644 4.07-1.303 8.085-13.154 4.871-25.927-.866-3.5-1.572-6.634-2.573-9.296-3.206h-.002c-5.984-1.422-9.582-.984-9.582-.984l2.978-5.26-12.513.09 2.868-46.449s4.983 12.3 9.906 21.124c5.852 10.49 11.991 17.212 11.991 17.212s8.577-5.815 13.034-10.953c3.49-4.023 8.346-11.04 8.346-11.04l8.86-1.739s-14.24-12.188-44.796-19.381c-9.005-2.12-21.015-3.819-29.76-4.157 4.38-.674 10.899-.964 19.541-1.236 18.589-.583 34.25 2.239 54.24 8.089 0 0-.015-17.366-12.128-35.051-16.62-24.266-56.966-24.787-75.465.45-5.29 7.215-8.06 15.023-9.427 22.083-3.615-.203-9.056-1.399-17.242-4.512C30.07 41.987 21.924 73.501 21.924 73.501s12.142-12.568 30.224-6.062c-22.166 1.473-26.399 22.607-26.399 22.607s11.496-10.844 30.983-8.386c10.329 1.303 16.94-3.58 21.068-9.23.107 5.56.87 9.158.947 9.19l-7.812.08s-1.304 8.392 1.303 16.997c1.23 4.064 3.59 8.088 3.59 8.088l.285.367a8.621 8.621 0 0 0-6.5 8.357 8.617 8.617 0 0 0 15.18 5.58 5.898 5.898 0 0 1-9.222-4.874 5.9 5.9 0 0 1 3.427-5.357l.279.358s1.564 1.825 3.128 3.129 3.389 2.608 3.389 2.608.702 4.436 2.05 8.593c.02.066.042.131.063.197 1.317 4.029 2.968 8.116 2.968 8.116s-3.176 2.188-5.727 3.259c-3.48 1.46-6.612 2.45-8.76.337-3.48-3.427-.24-8.766-.24-8.766s-3.15.273-4.953 4.954c-1.207 3.138-.975 9.403 6.654 11.788 7.187 2.247 16.808-2.4 16.808-2.4s2.566 3.99 5.85 8.569c2.255 3.144 4.849 6.566 7.184 9.165 6.547 7.288 18.77 16.691 18.77 16.691s8.726-6.713 13.295-11.997c3.433-3.97 7.82-10.953 7.82-10.953s-8.412 7.889-17.466 2.608c-2.21-1.289-3.279-3.31-3.445-5.514-.259-3.424 1.66-7.289 4.863-9.54 0 0-11.163 3.233-11.792-1.797-.337-2.696 2.358-4.269 6.064-4.381 4.434-.135 9.014.078 14.737 1.152 12.514 2.347 16.163 7.302 26.851 6.258 10.688-1.042 13.215-7.41 13.034-13.04z" fill="#1A5DAD" fill-rule="nonzero"/></g></svg>