<svg width="200" height="200" xmlns="http://www.w3.org/2000/svg"><g fill="none" fill-rule="evenodd"><path d="M53.624 99.574c-4.154-.163-8.949-.029-13.428 1.052-5.025 1.213-9.348 3.606-12.499 5.816a39.648 39.648 0 0 0-3.526 2.774c-.366.325-1.208 1.189-1.97 1.972-.855.878-1.614 1.672-1.642 1.701L8.345 125.684S5.192 100.918 5.132 97.2a59.026 59.026 0 0 1 .105-4.744L0 93.409.488 80.63c.021-.563.376-8.86 4.321-18.392 4.002-9.665 12.102-21.44 27.9-26.706 11.396-3.799 22.862-2.664 30.91-.926 1.393.301 2.713.627 3.945.96 6.978-14.3 25.035-38.789 65.502-37.223 44.087 1.707 59.188 39.223 62.777 63.69 2.366 16.124.08 30.43-1.55 37.393 1.047 2.245 2.268 5.437 2.837 9.141.716 4.65-.043 8.813-.927 11.765l.162.3c1.414 2.645 3.988 8.07 3.346 13.98-.98 9.02-6.322 25.287-29.199 27.519-2.357.23-4.331.355-6.167.333-2.697 5.031-6.601 11.234-11.09 16.07-3.569 3.842-8.565 8.414-12.466 11.868-3.968 3.515-13.483 11.465-13.483 11.465s-14.488-11.147-18.668-14.665c-4.067-3.422-9.64-8.328-13.838-13-2.626-2.922-5.388-6.513-7.763-9.777-.283.03-.57.06-.862.087-3.896.364-10.234.551-15.914-1.79C55.2 156.51 48.1 140.485 54.837 127.041c-1.24-2.458-2.212-5.381-2.426-8.69-.357-5.54.924-10.082 2.599-13.666l-.14-.453a75.085 75.085 0 0 1-1.246-4.659Zm113.405 66.312-1.975-.008v-1.049l5.074-.01v1.048l-1.959.021v5.32l-1.14-.005v-5.317Zm6.134 5.344-1.323-3.941v3.936l-1.157-.006v-6.366l1.41.006 1.596 4.722 1.598-4.708 1.409.006v6.367l-1.157-.005v-3.937l-1.323 3.93-1.053-.004Z" fill="#FFF"/><path d="M189.507 133.505c-.696 6.398-3.867 16.838-19.992 18.411-5.442.53-7.493.358-11.177-.764-1.49 4.011-6.647 13.98-12.605 20.397-6.404 6.898-18.693 17.165-18.693 17.165s-7.715-5.933-11.793-9.364c-4-3.367-9.114-7.893-12.813-12.009-3.24-3.605-6.776-8.433-9.4-12.185l-1.344-1.941c-.475.138-10.936 2.731-17.516.018-10.603-4.373-13.884-14.567-10.008-21.89.952-1.797 1.999-3.265 3.08-4.456-2.151-2.21-4.35-5.454-4.592-9.195a18.276 18.276 0 0 1-.033-1.629c.11-4.453 1.875-7.798 3.66-10.472a43.785 43.785 0 0 1-1.588-4.334c-1.62-5.349-2.28-10-2.153-11.525-1.292.472-13.159-1.882-24.752.916-13.292 3.21-22.001 12.376-22.001 12.376s-1.35-10.467.916-16.5c1.155-3.073 4.126-7.335 4.126-7.335l-10.084 1.834s1.059-27.702 25.21-35.753c17.876-5.959 37.586 3.21 37.586 3.21S83.648 6.703 132.67 8.6c36.186 1.401 48.84 31.47 52.712 55.004 2.979 18.105-2.063 37.127-2.063 37.127s2.862 4.167 3.667 9.397c.329 2.137.126 4.185-.267 5.932-.705 3.13-2.025 5.298-2.025 5.298s5.38 6.921 4.813 12.146Zm4.274-11.49c-.254-.475-.511-.93-.763-1.358l.123-.36a26.725 26.725 0 0 0 1.042-4.234c.333-2.094.444-4.495.051-7.05-.548-3.562-1.766-6.628-2.775-8.725l-.26-.53c1.569-6.266 4.163-20.822 1.745-37.299-3.532-24.079-18.132-59.566-59.99-61.186C91.88-.317 74.995 25.88 69.163 39.077A76.459 76.459 0 0 0 63 37.472c-7.795-1.684-18.67-2.724-29.365.84C18.902 43.225 11.314 54.189 7.517 63.36c-3.757 9.075-4.086 16.98-4.1 17.383l-.35 9.13 5.51-1.002c-.488 3.017-.551 6.017-.515 8.284.043 2.71 1.344 13.485 2.017 18.906.236 1.905.395 3.149.395 3.149l3.006-3.149 4.96-5.195c.028-.03.796-.833 1.662-1.722.82-.843 1.729-1.769 2.123-2.119a42.643 42.643 0 0 1 3.79-2.982c3.347-2.348 8.006-4.94 13.494-6.265 4.855-1.172 9.955-1.3 14.23-1.132.8.031 1.558.072 2.269.117a71.206 71.206 0 0 0 1.666 6.62c.156.513.32 1.021.492 1.523-1.52 2.943-2.802 6.638-2.88 11.155-.012.682.003 1.383.05 2.103.221 3.436 1.398 6.431 2.832 8.868-.164.287-.325.58-.483.88-6.223 11.755-.246 26.353 13.693 32.1 4.999 2.062 10.744 1.936 14.525 1.583a53.787 53.787 0 0 0 2.494-.292c2.522 3.527 5.639 7.666 8.582 10.941 4.056 4.513 9.499 9.31 13.546 12.717 4.156 3.497 16.705 13.151 16.705 13.151s7.67-6.408 11.617-9.903c3.892-3.446 8.796-7.939 12.26-11.67 4.745-5.108 8.877-11.93 11.503-17.08 2.26.173 4.606.05 7.617-.244 20.937-2.042 25.67-16.63 26.57-24.917.54-4.97-1.644-9.716-3.016-12.283Z" fill="#A9AFB2"/><path d="M107.689 79.992c-7.22-1.147-18.106-.115-18.106-.115s6.99-3.896 16.616-4.813c7.358-.7 10.772.114 10.772.114l3.666 8.251c-2.75-1.146-4.6-2.113-12.948-3.437Zm74.415 50.866c-.063-1.975-1.112-3.496-2.322-4.6v-.002c-1.731-1.581-3.797-2.314-3.797-2.314s.567.99 1.061 2.316l.002.002h-.002c.469 1.262.87 2.83.658 4.152-1.33 8.246-13.423 4.968-26.457-.884-3.57-1.603-6.77-2.625-9.486-3.27h-.001c-6.107-1.451-9.778-1.003-9.778-1.003l3.039-5.366-12.768.092 2.926-47.378s5.084 12.545 10.108 21.546c5.971 10.7 12.236 17.557 12.236 17.557s8.752-5.932 13.3-11.172c3.562-4.104 8.516-11.26 8.516-11.26l9.04-1.775s-14.53-12.432-45.71-19.769c-9.188-2.162-21.443-3.895-30.366-4.24 4.468-.687 11.12-.983 19.94-1.26 18.967-.596 34.948 2.283 55.346 8.25 0 0-.016-17.713-12.375-35.752-16.96-24.751-58.129-25.283-77.006.458-5.398 7.36-8.225 15.324-9.619 22.526-3.689-.207-9.24-1.427-17.594-4.602C28.683 40.827 20.37 72.97 20.37 72.97s12.39-12.819 30.841-6.183c-22.618 1.502-26.937 23.06-26.937 23.06s11.73-11.062 31.615-8.555c10.54 1.33 17.286-3.651 21.498-9.414.109 5.67.887 9.34.966 9.373l-7.971.082s-1.33 8.56 1.33 17.337c1.255 4.145 3.662 8.25 3.662 8.25l.292.374a8.794 8.794 0 0 0-6.634 8.524 8.79 8.79 0 0 0 15.491 5.693 6.018 6.018 0 1 1-5.914-10.437l.285.365s1.596 1.862 3.192 3.192a68.29 68.29 0 0 0 3.458 2.66s.716 4.525 2.091 8.765l.065.2c1.344 4.11 3.03 8.28 3.03 8.28s-3.242 2.231-5.845 3.323c-3.552 1.49-6.747 2.5-8.938.344-3.552-3.496-.245-8.942-.245-8.942s-3.215.28-5.054 5.054c-1.233 3.2-.996 9.591 6.789 12.024 7.333 2.292 17.151-2.448 17.151-2.448s2.618 4.07 5.969 8.74c2.301 3.207 4.948 6.697 7.331 9.349 6.68 7.433 19.152 17.024 19.152 17.024s8.905-6.847 13.567-12.236c3.504-4.05 7.98-11.173 7.98-11.173s-8.584 8.047-17.822 2.66c-2.255-1.314-3.346-3.375-3.516-5.624-.264-3.492 1.694-7.435 4.962-9.73 0 0-11.39 3.297-12.032-1.834-.344-2.75 2.406-4.354 6.188-4.469 4.524-.137 9.198.08 15.038 1.175 12.768 2.394 16.492 7.448 27.399 6.384 10.906-1.063 13.484-7.559 13.3-13.3Z" fill="#1A5DAD" fill-rule="nonzero"/></g></svg>