<svg width="200" height="200" xmlns="http://www.w3.org/2000/svg"><g fill="none"><path d="M199.183 133.425l.343-.002c-.527-1.388-1.08-2.851-1.08-2.851-1.492-3.938-6.06-4.403-6.06-4.403l-.35-.894c-.883-2.247-4.264-4.298-4.264-4.298s-7.404-5.268-13.203-13.993l-.061-.09s-.648-2.163-3.843-3.263c-.336-.116-.955-.362-1.98-.87a46.756 46.756 0 0 1-1.443-.75c.256-.07.513-.137.771-.195 1.313-2.333 10.723.16 10.723.16 3.541.647 5.196-1.936 5.63-2.451.21.842.945.853 1.327.9 3.509 0 3.433-5.448 2.171-6.2 4.13.654 6.419-5.539 6.419-5.539.308-.616 1.463-1.663 1.463-1.663 1.115-1.657.81-3.914.81-3.914-1.013-3.733-9.851-7.718-9.127-9.167.267-1.788-.016-3.171-.41-4.352-.235-.71-.678-3.983-.678-3.983-.384-3.479-7.605-6.078-7.605-6.078-.157-1.503-1.69-2.41-1.703-2.36-.066-.095-.483.799-.616 1.014-.432-3.05-4.876-4.693-4.876-4.693.065.322.172 1.834.181 2.154-5.588-5.533-14.518-4.168-15.15-4.086-1.067-1.243-2.899-2.895-5.734-3.677l.688 1.934s-4.727-3.304-9.342-3.691l.562 1.047c-6.748-1.988-14.613.535-15.15.815.772.144 3.428.193 5.794 1.255-3.332-.723-8.258.29-12.313 2.028l3.91 2.221s-31.673-7.138-68.315 26.315c.05-.297.929-5.828.896-7.219-.107-4.667-2.487-8.118-6.699-9.723-2.891-1.101-6.582-1.32-11.604-1.32L0 61.552s14.425 7.65 19.295 10.584c-.388 1.304-2.852 15.248-2.829 16.305.035 1.46.374 3.608 1.72 5.759h-2.96s-2.659 16.034-2.745 16.704c.01-.128-.686 4.095-.642 6.062.115 4.86 2.567 8.267 7.094 9.852 2.314.81 9.21 1.488 9.21 1.488h110.829c-.007-.01-.012-.023-.02-.035.65 1.125 1.47 1.621 1.767 1.771l.032.014c1.408.688 3.524.215 3.524.215s4.365 4.995 4.998 6.976l.016.05c.56 1.752 2.46 4.958 2.46 4.958 2.42 10.845 9.913 9.51 9.913 9.51l.63.65c1.415 1.268 3.02 1.508 4.23 1.32l1.86-.25c1.5.1 2.359-.516 2.752-.91.317-.423 1.183-3.357.982-3.885.002-.086-.086-1.855-.318-2.706 0 0-.555-2.845-.914-3.52l-.782-2.69c-1.38-5.06-5.873-8.296-6.384-8.67-7.302-5.347-10.99-13.25-12.955-15.003-.06-.007 2.12.22 2.184.22.004 0 .004 0 .001-.001 0 0 2.903-.164 2.779-2.52 3.434 2.809 6.416 2.35 6.416 2.35l3.027 2.006s.14 2.578 1.24 3.778c1.5 1.631 4.523.87 4.523.87l3.176 3.734.045.445c.252 2.455 1.347 3.86 2.223 4.604.796.679 1.76 1.145 2.865 1.384l.823.179.392.745c1.387 2.624 4.06 3.567 4.06 3.567s2.168 4.119 9.519 3.255l.496-.25.769.341c1.271.476 2.77.018 4.559-.404-.178-1.82-.677-6.979-.677-6.979" fill="#231F20"/><path d="M42.427 126.374c1.108-.372 2.037-.803 2.718-1.288 3.997-2.844 5.09-7.476 5.939-12.37 0-.003 2.208-13.213 2.306-14.816.79-.066 1.59-.125 2.397-.177l-4.838 28.651h-8.522m22.163 0l4.786-28.343.064.01s.952-.02 2.88.348l-4.722 27.985H64.59m22.318 0l1.247-7.282h-5.88l1.345-7.894h5.873l.646-3.742c.807.322 1.705.668 2.648 1.01l-3.021 17.908h-2.858m15.103 0l1.162-6.818.784 6.818h-1.946m15.189 0l1.635-9.076c1.11.532 2.078 1.011 2.793 1.374l.757.384-2.548 7.318H117.2m15.879 0l.702-2.536c.657.216 1.234.439 1.737.66l-.137 1.876h-2.302" fill="#00674E"/><path d="M55.857 84.685C87.072 57.17 108.46 58.827 108.46 58.827c-1.03-.808-8.394-1.183-8.394-1.183 12.605-3.04 21.357-.915 24.493.443-4.685-.54-11.466.74-11.466.74l1.498 2.415c-28.154.482-38.537 12.604-38.537 12.604.723-.436 7.098-.723 7.098-.723-11.07 3.746-21.19 9.545-27.652 13.689l.356-2.127m54.576 5.308s-1.381-2.583-5.287-3.845c0 0 5.348 0 8.712 3.005 0 0-.048.079-.173.189h-2.202l-.117.684-.165.002c-.236 0-.492-.011-.768-.035m-.706 1.679c.494-.089.963-.144 1.388-.178l-.36 2.113a28.5 28.5 0 0 0-.744.83l-.284-2.765m9.418-2.33a1.456 1.456 0 0 1-.543-.43s-.539-.96 1.323-3.665c0 0-.27 2.64 1.132 4.095h-1.912" fill="#753D0C"/><path d="M51.693 92.205l1.07-.644h1.944l.216-1.291c9.591-5.704 24.39-14.124 34.17-17.873 0 0-5.94-.726-8.112-.144 0 0 14.632-11.3 36.943-8.984 0 0-.723-1.883-1.304-2.317 0 0 3.043-.87 7.245-.145 0 0-1.883 5.65-.726 8.982 0 0 1.45-3.477 2.03-4.056 0 0-.963 4.56.586 9.245-.226 1.654-1.18 3.92-4.35 5.745-1.24.492-2.54 1.285-3.77 2.54l1.545.096s-1.062.966-1.256 2.028c0 0-.483 3.285-5.023.58 0 0-14.292-5.601-28.201-3.38 0 0 3.477.676 6.085 2.027 0 0-7.108-1.35-26.175 4.513h-7.371l-.436 2.584c-1.44.509-2.932 1.051-4.48 1.631a11.364 11.364 0 0 0-.63-1.137M173.12 57.111l-.36-1.52s2.066.99 2.32 2.536l-1.96-1.016" fill="#753D0C"/><path d="M150.148 67.689c-.579-.651-2.161-1.235-2.161-1.235l.712 1.09c-.724-.24-1.657-.073-1.657-.073-2.543-2.197.147-4.204.147-4.204.726-.651 3.264-.581 3.769.798 1.073 2.95 2.666 3.768 2.666 3.768-1.689-.29-2.811-.943-2.811-.943.145.435.88 1.186.88 1.186l-1.545-.387m17.857 52.847c-.35-.378-.572-1.773-.572-1.773.857.317 2.819 1.995 2.819 1.995-.294.117-.63.17-.954.17-.554 0-1.074-.152-1.293-.392" fill="#DCBFA0"/><path d="M160.664 86.596s.217-3.55 3.26-5.797c3.042-2.244 9.85-13.617 7.75-22.456 0 0 4.927 1.594 7.243 6.375 0 0 4.999.726 5.508 4.564 0 0-2.32-.65-3.986-.144 0 0 2.39.263 2.681 2.68 0 0-3.248-3.126-6.147-.954 0 0-1.782-.609-3.192.047.985.329 3.146.94 3.616 1.92 0 0-1.017.87-1.086 1.955 0 0 2.463-2.342 4.634-.748-2.97 3.26-7.388 1.908-10.212 8.572 0 0 3.91-.145 3.547 3.332 0 0-.433 2.753-5.07 3.332 0 0-3.331.145-4.127 1.666 0 0-.166.021-.434.021-1.137 0-4.104-.38-3.985-4.365m7.968 12.604c1.738-2.536 5.866-.58 9.852.651-.25.074-.547.106-.881.106-2.272 0-6.254-1.452-8.97-.757" fill="#753D0C"/><path d="M182.46 96.895s1.188-.88 1.502-1.787c0 0 .51 1.164 0 2.298 0 0-.242.216-.571.216-.279 0-.62-.155-.931-.727m-1.942-.049s.595-.371.539-.882c0 0 .397.824.283 1.362 0 0-.035.005-.089.005-.18 0-.58-.05-.733-.485" fill="#FFF"/><path d="M193.212 83.698s.677-1.305 2.366-.484l.098.822s-1.256-.822-2.464-.338" fill="#918F90"/><path d="M180.077 99.923s-1.631-.886-3.196-1.201c0 0 4.564.583 6.487-.266 0 0-.87 1.496-2.819 1.496a3.95 3.95 0 0 1-.472-.029" fill="#DCBFA0"/><path d="M162.836 77.178l-.87-.193c.58 0 1.932-1.351 1.932-1.351-.868-.194-2.028-1.16-2.028-1.16 2.705.483 5.216-1.064 5.216-1.064 0 2.707-2.705 4.347-2.705 4.347-2.595 1.113-3.96 4.153-3.96 4.153.387-2.415 2.415-4.732 2.415-4.732" fill="#FFF"/><path d="M167.669 96.274c.41-2.457 3.316-2.825 3.316-2.825.655 1.72 2.251 2.538 2.251 2.538.819.203 2.537.45 2.537.45-2.374-.123-3.767.654-3.767.654-1.945-.413-3.15.819-3.15.819-1.227-.532-1.187-1.636-1.187-1.636" fill="#DCBFA0"/><path d="M166.891 56.678c0 .725-1.012 3.187-1.012 3.187-.073-1.377-2.1-3.622-2.1-3.622.217 1.522-.22 3.188-.22 3.188-.433-2.898-5.214-5.143-5.214-5.143 6.012-2.174 9.561 1.23 9.561 1.23 1.089 2.753-.07 4.347-.07 4.347-.29-1.883-.945-3.187-.945-3.187m-12.457 11.517c.723.58 3.983.943 3.983.943-.217-.654-1.522-1.305-1.522-1.305 1.667.145 3.622 1.45 3.622 1.45 5.073 1.014 5.724-1.45 5.724-1.45l-1.81-.579c3.765.217 3.26-3.55 3.26-3.55 1.447 6.955-5.144 6.883-5.144 6.883a11.65 11.65 0 0 1-.867.032c-4.312 0-7.246-2.424-7.246-2.424m-.437-5.649l.437-.581c0-.94.868-2.39 2.172-2.534 1.305-.145 2.1-1.666 2.1-1.666-.506 2.534-2.317 2.678-2.317 2.678l1.015.51-1.738.071c-.364.218-.581 1.45-.581 1.45.653 1.084 1.594 3.548 1.594 3.548-1.232-2.319-2.682-3.476-2.682-3.476" fill="#753D0C"/><path d="M121.81 100.789l.525-2.914c2.757-.56 5.41-.456 7.484-.177l-1.566 4.497c-2.079-.745-4.245-1.263-6.443-1.406m26.394 14.056s4.636-1.738 5.504-5.07c0 0-2.425 2.73-5.579 3.032V95.959a4.917 4.917 0 0 0 .509.924 7.42 7.42 0 0 0 .183.256l.03.038c1.01 1.322 2.2 1.816 3.377 1.856a4.989 4.989 0 0 0 .189.002c2.764-.019 5.398-2.443 5.398-2.443l-.194-1.062c4.553 2.106 5.232 4.163 5.237 5.2v.047c.055-.372.08-.705.08-1.006-.003-2.448-1.69-2.757-2.42-5.111-.253-.816-.342-1.392-.34-1.8 0-.245.033-.43.082-.569 1.001 1.412 6.067 1.388 6.198 7.198 0 0-.652-1.593-1.304-1.666 1.014 4.71-1.74 4.492-1.23 7.677 0 0-1.594-1.81-1.16-3.404 0 0-.65.653-.65 1.377 0 .725.505 2.32-.871 3.549 0 0-.075-1.613-1.248-4.049-.01-.018-2.135 11.922-10.804 11.922-.32 0-.65-.016-.987-.05" fill="#DCBFA0"/><path d="M197.251 134.98c-.124-.616-.616-1.356-.616-1.356-1.42-1.972-4.622-3.512-4.622-3.512 1.48-.616 2.958.924 2.958.924.8.308 1.54.308 1.54.308-.863-2.28-3.391-2.835-3.391-2.835-2.831-.492-2.896-2.093-2.896-2.093-.551-2.158-3.572-3.635-3.572-3.635-8.997-7.026-13.925-14.789-13.925-14.789-.492-1.048-.924-1.724-2.71-2.34-.66-.229-1.469-.598-2.23-.973-.632.766-1.749 2.349-1.754 3.999 0 .42.071.845.24 1.263l-1.689-.845s.254 1.183 1.942 2.195c0 0 9.965 7.77 12.075 13.259 0 0-.004.012-.008.034-.086.395-.765 3.99 2.882 4.02.015 0 1.296-.018 1.601-.17 0 0 .17 3.886 2.281 4.982 0 0 1.858.677 2.196 1.267l1.604-.59s0 2.672 2.817 2.714c.021 0 1.12-.095 1.49-.183 0 0 .274-1.765-.403-2.568-1.105-.435-2.837-2.835-2.837-2.835l3.515 1.663c.473.229.748.614.903 1.036.273.238.649.637.85 1.185 0 0 .496 1.097 1.871 1.043l-.112-1.168" fill="#FFF"/><path d="M196.078 138.862c-.49-.186-1.479-.492-1.354-2.835l.002-.004v-.005l.002-.007a.51.51 0 0 0 .011-.063c.053-.275.196-1.22-.097-2.028.273.238.649.637.85 1.185 0 0 .51 1.092 1.871 1.043l.257 2.651s-.557.131-1.05.131c-.182 0-.357-.018-.492-.068m-8.194-2.896s-1.048.985-1.107 1.233c0 0-.62-1.48-1.789-1.911 0 0-2.465-.493-3.327-4.252 0 0-5.361.8-5.422-4.99 0 0-2.033-5.176-15.033-12.94l.492.985s-2.628-.149-4.17-1.455c0 0 4.867-.476 6.77-5.584.652-1.424 2.36-2.933 3.49-2.373-.794.961-2.35 3.208-1.514 5.262l-1.69-.845s.254 1.183 1.942 2.195c0 0 9.965 7.77 12.075 13.259 0 0-1.013 4.137 3.039 4.052 0 0 .802-.008 1.436-.167 0 0 .17 3.885 2.281 4.981 0 0 1.858.677 2.196 1.267l1.604-.59s.018 3.46 4.307 2.531l.012.04v.003c-.096 1.019-.139 1.235-.356 2.195 0 0-.967.375-2.07.375-1.389 0-2.993-.593-3.166-3.27" fill="#DCBFA0"/><path d="M70.215 93.062l.556-3.29a46.81 46.81 0 0 1 4.124-.67h6.424v-.192c1.269.083 2.533.246 3.775.504h-11.26l-.655 3.88c-.97-.112-1.958-.19-2.964-.232m-13.926 1.69l-.05.295a47.28 47.28 0 0 0-1.674.579s.62-.343 1.724-.873m35.599 2.36l1.335-7.699h-7.688c-.49-.46-2.265-2.04-3.829-2.289 0 0 7.92-1.738 16.322-.29 0 0-2.609-2.414-3.96-2.605 0 0 9.39.74 13.945 5.112H96.014L94.41 98.85a18.863 18.863 0 0 0-2.522-1.737" fill="#FFF"/><path d="M56.24 95.047l-.064.373c-.53.062-1.066.13-1.611.206.563-.207 1.121-.4 1.674-.58m13.608.195l.368-2.179c1.006.041 1.993.12 2.964.231l-.397 2.353a48.449 48.449 0 0 0-2.935-.405m15.723 4.51l.29-1.732h5.87l.158-.906c.886.515 1.74 1.092 2.522 1.737l-.23 1.365a9.482 9.482 0 0 1-.207-.051s.057.094.172.255l-.593 3.516c-2.52-1.353-5.108-2.827-7.982-4.183" fill="#DCBFA0"/><path d="M180.67 77.925a.483.483 0 0 0 .955.13.484.484 0 0 0-.6-.532.26.26 0 0 0-.158-.058.256.256 0 0 0-.253.22c-.002.009-.002.019-.002.028 0 .066.025.127.067.175l-.01.037m.325 1.178a1.122 1.122 0 0 1-.695-1.846c.259-.037.529-.035.802.028 0 0 .11.02.249.061.135.04.3.1.42.182.031.023.076.047.127.075.092.046.206.098.339.151.028.124.038.252.018.386a1.12 1.12 0 0 1-.914.952c-.073.012-.145.02-.22.02a.955.955 0 0 1-.126-.009" fill="#FAB217"/><path d="M180.833 77.972a.255.255 0 0 1-.154-.084.256.256 0 0 1-.065-.203.256.256 0 0 1 .288-.218.26.26 0 0 1 .123.056.253.253 0 0 1 .096.23.254.254 0 0 1-.288.219m-2.45 1.301s.56.091.852-.263c0 0-.596-.236-.819-.805 0 0 .405-.432 1.06-.721l-.007.023a1.736 1.736 0 0 0 .13 1.29c.026.054.056.103.086.152.123.187.283.35.469.479-.24.15-.591.324-.945.324-.297 0-.593-.121-.826-.479m13.399 6.887l-.04-.1-.01.002.01-.003.04.1m-15.958 2.282c-.032.02-.064.04-.096.062-.026.018-.056.035-.084.053 2.914-1.963 5.455-1.043 4.362-2.033 0 0 5.36-1.304 4.997-4.058 0 0-1.794-5.438.796-7.896 2.727 3.526 7.314 5.528 7.968 7.173 0 0-1.522-.072-1.81.217l-1.16-.506s-.217 1.374 1.015 1.738c0 0 .65 1.955 1.81 2.534 0 0-1.882.434-2.535-1.738l.645 2.147c-.215.594-.95 2.077-3.151 3.276v-.024a.374.374 0 0 0-.172-.312.393.393 0 0 0-.217-.07.33.33 0 0 0-.218.078.292.292 0 0 0-.052.059.326.326 0 0 0-.053.172.38.38 0 0 0 .171.309l.06.03a11.4 11.4 0 0 1-.952.406c-.01-.065-.035-.121-.088-.156a.188.188 0 0 0-.11-.032c-.105 0-.229.072-.315.198a.533.533 0 0 0-.08.196c-.611.195-1.293.37-2.054.508-.49-.014-1.549-.1-3.209-.502 0 0 .682.558 1.375.962-.532.352-1.596 1.017-2.749 1.514-1.764-.52-3.468-2.357-4.094-4.305" fill="#FFF"/><path d="M190.615 89.29a.45.45 0 0 0 .436-.442.498.498 0 0 0-.227-.425.513.513 0 0 0-.29-.09.46.46 0 0 0-.385.2.434.434 0 0 0-.078.265.505.505 0 0 0 .224.404l.027.017a.526.526 0 0 0 .293.072m-17.002 1.138l.09-.1-.09.1m15.54.104a.304.304 0 0 0 .198-.286.368.368 0 0 0-.17-.305.396.396 0 0 0-.22-.07h-.002a.34.34 0 0 0-.245.105.302.302 0 0 0-.076.202.38.38 0 0 0 .242.347c.05.02.1.03.149.03a.346.346 0 0 0 .123-.023m-15.721.127l.1-.1-.1.1m-.137.175c.048-.06.09-.117.137-.175-.047.058-.09.115-.137.175m13.456 1.206c.105 0 .229-.074.314-.2a.45.45 0 0 0 .086-.26c0-.083-.03-.154-.09-.195a.191.191 0 0 0-.111-.032c-.105 0-.229.072-.315.197a.484.484 0 0 0-.085.263c0 .083.03.154.089.195.033.022.07.032.11.032h.002m-14.498.42c.313-.55.61-1.02.894-1.425l.147-.2c.048-.061.09-.118.137-.176l.03-.042c.05-.065.101-.128.152-.189l.015-.019a9.467 9.467 0 0 1 2.1-1.907l.096-.062c-.032.02-.064.04-.096.062l.096-.062c.626 1.948 2.33 3.785 4.094 4.305 1.153-.497 2.217-1.162 2.75-1.514-.694-.404-1.376-.962-1.376-.962 1.66.402 2.72.488 3.209.502a16.095 16.095 0 0 0 2.054-.508.38.38 0 0 0-.005.06c-.002.085.028.16.089.2.033.023.07.033.11.033a.303.303 0 0 0 .145-.04.49.49 0 0 0 .171-.158.454.454 0 0 0 .083-.3 11.4 11.4 0 0 0 .952-.407.382.382 0 0 0 .161.038.317.317 0 0 0 .267-.136.333.333 0 0 0 .053-.144c2.202-1.2 2.936-2.684 3.152-3.277l.007.026s1.593.22.505 3.26c0 0-.868 2.174-2.605 2.32l-1.087.942s-.653.578-1.956.362c-1.304-.218-3.332-.798-3.913.434 0 0 .725.289 1.304.795 0 0-3.187.292-6.888 1.354-.43-.003-3.495.072-4.847-3.164m-53.02 22.63l.7-3.885c.878.701 2.465 1.949 4.096 3.128l-.938 2.693a243.626 243.626 0 0 0-3.858-1.936m38.765 33.897s-4.438-3.873-4.49-9.583c0 0-.492.497-.492.744 0 0-1.234-1.937-1.726-3.477-.476-1.488-.677-2.233-6.3-8.777h2.21c1.641 2.065 3.546 4.715 4.652 7.111 0 0 .859 2.075 1.717 2.593l1.03-1.036s1.169 8.204 6.449 9.445c.06 2.42.342 3.21.355 3.23 0 0-.367.484-1.243.484-.526 0-1.237-.175-2.162-.734" fill="#DCBFA0"/><path d="M162.19 145.314l-3.696-5.269 4.905 5.528s-.129 3.09 2.73 4.079l.058 2.02s-.12.019-.317.019c-1 0-4.01-.486-3.68-6.377m7.427 2.363c-.688.977-1.337.18-1.337.18-.138-.898-1.237-2.144-1.237-2.144l-4.125-3.53.124.19 2.996 3.736c.345.547.741.845.937 1.837.2.994.74 3.327.74 3.327.395.108.723.155.993.155 2.28 0 .699-2.34.91-3.75" fill="#DCBFA0"/><path d="M29.843 123.252c12.656 0 14.822-1.5 16.548-11.468l2.035-12.07c.119-.752.22-1.4.21-1.935-.063-2.625-1.794-4.905-4.879-6.417L36.8 88.04c-1.755-.8-1.906-1.281-1.918-1.78-.007-.325-.016-.691.054-1.111l1.474-8.53c.205-1.338.662-1.808 1.736-1.81 1.179.002 1.19.542 1.195.773a.615.615 0 0 1 .002.07c0 .143-1.897 11.149-1.897 11.149h13.209l1.476-8.832c.46-2.452.703-4.373.68-5.397-.136-5.85-5.162-6.272-13.42-6.272h-.009l-20.398.01s5.448 2.492 6.96 3.133c-1.607 1.802-2.352 4.487-3.024 8.326 0 .003-.811 4.765-1.314 7.907l-.153.877c-.107.57-.208 1.115-.224 1.65a1.626 1.626 0 0 0-.01.252c.063 2.76 1.645 4.919 4.7 6.417l7.312 3.523c1.764.873 1.909 1.281 1.923 1.841l-.142.98-2.02 11.65c-.232 1.573-.78 1.88-1.647 1.881-1.266 0-1.282-.64-1.287-.91-.002-.07.035-.235.07-.396l.075-.357 2.363-14.124h-13.29l-2.093 12.623c-.404 2.212-.619 4.182-.59 5.397.135 5.836 5.331 6.272 13.241 6.272h.009m-15.274-6.286c-.032-1.356.187-3.404.616-5.77l2.364-14.26h8.05c-.723-.35-6.265-2.557-6.405-8.495-.016-.826 1.732-11.06 1.734-11.076.49-2.805 1.04-5.05 1.913-6.874-2.977-1.608-12.672-6.204-12.672-6.204l29.152-.01c4.707 0 8.127.191 10.617 1.141 3.16 1.204 4.804 3.617 4.886 7.168.028 1.188-.21 3.136-.707 5.789l-1.748 10.449h-9.298l1.526.728c3.824 1.876 5.973 4.802 6.053 8.241.016.717-.098 1.447-.234 2.294l-2.037 12.1c-.779 4.492-1.682 8.394-4.862 10.66-2.87 2.043-7.003 2.43-13.622 2.43-6.741 0-15.132 0-15.326-8.311M70.55 124.9h13.833l.562-3.244h-5.873l2.266-13.3h5.88l.56-3.24h-5.871c.124-.729 1.577-9.411 1.666-9.938h5.88l.56-3.246H76.111L70.544 124.9h.007m-1.405 1.18l5.966-35.326h16.294l-.966 5.604h-5.875l-1.27 7.577h5.876l-.969 5.602h-5.875l-1.864 10.938h5.875l-.968 5.605H69.146m37.497-1.18h7.94l5.633-32.968h-6.39s-3.455 20.92-4.138 25.046c-.45-4.149-2.728-25.046-2.728-25.046h-8.598L92.794 124.9h6.622l3.946-25.618c.835 6.377 3.28 25.618 3.28 25.618m-1.068 1.18s-1.27-10.42-2.175-17.393l-2.993 17.393h-9.007l5.964-35.326h10.673s1.103 10.42 1.857 17.31l.007-.042 2.93-17.268h8.786l-6.037 35.326h-10.005m-51.529-1.18h7.95l5.567-32.968H59.6L54.035 124.9h.01m-1.405 1.18l5.964-35.326h10.344l-5.964 35.326H52.64m85.612-.973h7.1V92.142l-15.973-.012 4.601 1.914-10.77 31.063h7.324s1.787-6.568 1.915-7.044h6.307c-.046.667-.504 7.044-.504 7.044m-1.267 1.18s.367-5.114.504-7.043h-4.137c-.434 1.59-1.915 7.044-1.915 7.044h-9.887l11.044-31.862-8.535-3.474 22.423.01.098 35.326h-9.595" fill="#FAB217"/><path d="M134.766 113.692h3.157c.077-1.787.34-8.09.56-13.355l-3.717 13.355m-1.554 1.181l5.458-19.604h1.209c-.03.686-.796 18.972-.824 19.604h-5.843" fill="#FAB217"/><path d="M17.79 116.966c.095 4.049 2.568 5.099 12.04 5.099 12.567 0 13.845-1.587 15.39-10.496l1.937-11.438.093-.616c.103-.652.193-1.218.195-1.64l-.001-.082c-.063-2.76-2.32-4.44-4.196-5.36l-6.941-3.315c-1.879-.857-2.586-1.627-2.616-2.845-.002-.111-.005-.231-.004-.36 0-.282.015-.607.074-.974l1.475-8.526c.184-1.2.686-2.795 2.9-2.795 1.477 0 2.375.73 2.403 1.95.007.292-1.429 8.716-1.66 10.02l-.003.023h10.768c.294-1.76 1.314-7.852 1.314-7.861.427-2.275.66-4.046.663-5.025v-.139c-.103-4.358-3.141-5.096-12.216-5.096 0 0-10.948.01-15.451.01 1.643.566 4.296 1.484 4.296 1.484l-.805.672C25.597 71.2 24.82 73.88 24.1 77.983l-.001.005c-.023.138-.552 3.245-1.01 6.04l-.303 1.804-.165.953c-.117.622-.217 1.164-.206 1.656.052 2.275 1.407 4.079 4.02 5.36l7.316 3.528c1.698.838 2.566 1.516 2.599 2.903l-2.177 12.837c-.182 1.23-.67 2.868-2.812 2.868-1.533 0-2.464-.782-2.494-2.086 0-.03.043-.314.118-.781l.045-.213s1.916-11.44 2.126-12.707H20.295c-.373 2.252-1.932 11.643-1.932 11.653-.503 2.76-.577 4.315-.576 4.984l.002.179m-1.19.014c-.028-1.215.19-3.185.59-5.397l2.094-12.623h13.283l-2.363 14.124-.075.357c-.035.16-.072.326-.07.396.005.271.021.91 1.29.91.87 0 1.42-.306 1.65-1.88l2.02-11.65c.008-.052.143-.971.143-.98-.014-.56-.156-.97-1.923-1.842l-7.312-3.523c-3.055-1.498-4.634-3.656-4.7-6.417v-.103c0-.583.11-1.175.227-1.799l.16-.919 1.317-7.865c.67-3.839 1.414-6.524 3.021-8.326-1.512-.641-6.96-3.134-6.96-3.134l20.4-.009c8.258 0 13.284.422 13.42 6.272.023 1.024-.22 2.945-.68 5.397l-1.477 8.832h-13.2l.124-.698 1.71-9.67c.054-.373.061-.638.061-.78v-.07c-.004-.232-.018-.773-1.199-.773-1.078 0-1.535.469-1.74 1.808l-1.475 8.53c-.07.42-.061.787-.054 1.112.012.499.163.98 1.918 1.78l6.958 3.322c3.085 1.512 4.816 3.792 4.879 6.417.01.534-.091 1.183-.21 1.934l-2.035 12.07c-1.726 9.969-3.892 11.47-16.548 11.47-7.912 0-13.108-.437-13.244-6.273m54.775 7.227H83.8l.32-1.856h-5.868l2.5-14.69h5.881c.065-.371.233-1.354.32-1.85h-5.864l1.897-11.327h5.882c.068-.382.245-1.418.322-1.857H76.706c-.096.563-5.206 30.821-5.332 31.58m-.823.693l5.567-32.968h13.895l-.56 3.246h-5.88c-.089.527-1.542 9.21-1.666 9.937h5.87l-.56 3.241h-5.88c-.09.54-2.137 12.551-2.265 13.3h5.873l-.562 3.244H70.55m33.185-28.127c.03.245 3.104 23.679 3.53 27.434h6.732c.096-.563 5.262-30.796 5.397-31.58h-4.977l-4.456 26.964-.686-.019s-2.873-26.338-2.938-26.945h-7.39c-.093.563-5.198 30.796-5.331 31.58h5.205l4.226-27.44.688.006m2.908 28.127s-2.446-19.241-3.281-25.618L99.416 124.9h-6.622l5.568-32.968h8.598l2.728 25.046c.683-4.126 4.139-25.046 4.139-25.046h6.389l-5.633 32.968h-7.94m-51.777-.693h6.54l5.334-31.58h-6.543l-5.331 31.58m-.821.693l5.565-32.968h7.952L61.994 124.9h-7.95m84.955-.486h5.702v-.004l-.088-31.575c-.609 0-9.609-.01-12.014-.01l2.265.791-10.679 30.798h5.817l1.915-7.044h7.583l-.501 7.044m-.747.693s.458-6.377.504-7.044h-6.307c-.128.476-1.915 7.044-1.915 7.044h-7.325l10.771-31.063-4.601-1.914 15.973.012v32.965h-7.1" fill="#00674E"/><path d="M133.212 114.873h5.843c.028-.632.793-18.918.824-19.604h-1.209l-5.458 19.604m-.914.695l5.845-20.995h2.459l-.88 20.995h-7.424" fill="#00674E"/><path d="M17.79 116.966c-.015-.539.018-2.119.573-5.163 0-.01 1.56-9.401 1.932-11.653h10.862c-.21 1.267-2.294 13.49-2.289 13.701.03 1.304.961 2.086 2.494 2.086 2.142 0 2.63-1.638 2.812-2.868l2.177-12.837c-.033-1.387-.9-2.065-2.6-2.903L26.438 93.8c-2.614-1.281-3.97-3.085-4.02-5.36-.012-.492 1.684-10.458 1.684-10.458.719-4.102 1.496-6.783 3.344-8.327l.805-.672s-2.653-.918-4.296-1.484c4.503 0 15.451-.01 15.451-.01 9.075 0 12.113.738 12.215 5.096.021.945-.214 2.777-.662 5.164 0 .01-1.02 6.102-1.314 7.86H38.876c.217-1.222 1.67-9.748 1.663-10.042-.028-1.22-.926-1.95-2.403-1.95-2.214 0-2.716 1.595-2.9 2.795l-1.475 8.526c-.086.534-.077.977-.07 1.334.03 1.218.737 1.988 2.616 2.845l6.941 3.316c1.876.919 4.133 2.599 4.196 5.36.011.429-.084 1.026-.194 1.721l-2.03 12.054c-1.545 8.909-2.823 10.496-15.39 10.496-9.472 0-11.945-1.05-12.04-5.1m53.584 7.243c.126-.759 5.236-31.017 5.332-31.58h12.483c-.077.439-.254 1.475-.322 1.857h-5.882l-1.897 11.326h5.864c-.087.497-.255 1.48-.32 1.85h-5.88l-2.501 14.691h5.868l-.32 1.856H71.374m35.892 0c-.427-3.755-3.5-27.189-3.53-27.434l-.689-.007-4.226 27.44h-5.205c.133-.783 5.238-31.016 5.331-31.579h7.39c.065.607 2.938 26.945 2.938 26.945l.686.02s4.36-26.395 4.456-26.965h4.977c-.135.784-5.301 31.017-5.397 31.58h-6.731m-52.4 0l5.331-31.58h6.543l-5.334 31.58h-6.54m77.432-8.639h7.424l.88-20.995h-2.46l-5.844 20.995m6.7 8.846l.502-7.044h-7.583l-1.915 7.044h-5.817l10.68-30.798-2.266-.79c2.405 0 11.405.009 12.014.009l.088 31.575v.004H139" fill="#FFF"/><path d="M187.663 95.777c-.11-1.96-1.504-1.9-1.504-1.9l-.374.161c.572.54.666 1.248.666 1.248a1.718 1.718 0 0 0-1.07-.893c.484 1.046.096 2.236.096 2.236.467-.11.756-.544.796-.255.25 2.102-1.197 2.899-1.197 2.899 2.534 1.52 2.752-2.826 2.587-3.496" fill="#E22739"/><path fill="#231F20" d="M173.785 104.338h-.522v-1.673h-.757v-.36h2.033v.36h-.754v1.673m3.685 0h-.488v-1.699h-.007l-.468 1.7h-.51l-.457-1.7h-.006v1.7h-.488v-2.033h.761l.453 1.602h.007l.446-1.602h.756v2.032"/><path d="M195.665 84.427s-.293-.292-1.096-.146l.584.365s-.364 1.601-.875 2.33c0 0 1.313-1.604 1.387-2.55" fill="#918F90"/><path d="M163.398 145.638v-.065l-4.904-5.528-.448-.64 2.96 5.561s.013.443.04 1.043c-5.28-1.242-6.449-9.445-6.449-9.445l-1.029 1.036c-.858-.518-1.717-2.593-1.717-2.593-1.106-2.396-3.01-5.046-4.652-7.111h.93v-11.083c1.076.615 2.199 1.586 2.905 3.203 0 0 5.796 8.813 11.462 12.83 0 0 4.333 2.983 5.565 7.502 0 0-2.91-2.979-4.933-3.873l1.43 1.738s3.157 3.676 3.603 4.072c.443.397 1.48 1.787 1.48 3.577 0 0-.052.867-.025 1.816a.323.323 0 0 1-.023.034l-.041.058-.014.016c-.197.254-.392.36-.565.384a.633.633 0 0 1-.148.003c-.323-.035-.545-.316-.545-.316-.138-.898-1.237-2.144-1.237-2.144l-4.125-3.53.124.19-.308-.384s1.825 3.575 2.909 4.716c0 0 .346.497.443 1.54l.043 1.407c-2.613-.905-2.73-3.564-2.731-4.014" fill="#FFF"/><path d="M161.067 145.93a1.157 1.157 0 0 0-.012-.096h-.01a.03.03 0 0 1 .01 0c.017.161.077.327.116.5-.039-.139-.07-.274-.104-.404m-41.135-34.723l1.228-6.812c1.63-.197 3.665-.112 5.925.716l.136.05-3.193 9.174a112.083 112.083 0 0 1-4.096-3.128m37.689-15.677l.194 1.062s-5.833 5.369-9.245.19a4.917 4.917 0 0 1-.44-.823v-5.984a.98.98 0 0 0 .146.025s3.043-2.754 2.464-5.215c0 0 1.013 0 1.23 1.594 0 0 .775-10.463-6.302-10.216-3.911.138-4.893 2.933-5.68 5.689 1.865-4.058 3.729-4.284 6.044-4.24 5.67 1.93 2.317 8.767 2.317 8.767-1.16-2.465-3.55-1.522-3.55-1.522.882.317 1.613 1.057 1.963 2.067.24.695.302 1.516.106 2.418h-23.861c-1.306-1.299-2.93-3.69-1.412-6.66 0 0 4.249-.289 6.18-3.766.194-2.319-1.738-11.3 7.39-19.268 0 0-2.898 0-4.491.434 0 0 1.86-3.855 8.271-3.626-2.3 5.22-2.867 10.124-2.653 14.261.584-5.338 2.08-9.569 3.64-12.705.46-.92.924-1.74 1.372-2.471-9.935-3.367-13.818 6.568-13.818 6.568.87-.578 4.926-1.012 4.926-1.012-5.397 3.647-6.23 10.285-6.23 10.285-.723-2.462.437-7.243.437-7.243-.871.29-2.32.868-2.32.868.724-2.753 3.042-6.23 3.042-6.23-.153-.072-1.026.164-1.199.1 1.584-3.023 5.498-4.106 5.498-4.106-.388-.58-4.336-3.066-4.336-3.066 8.113-1.885 13.898-.268 16.373.579-2.657-2.681-8.45-4.105-8.45-4.105 8.016.145 10.443 2.674 11.652 3.384 3.084.557 8.477 2.016 11.032 5.62 0 0-.145.944-1.738 1.45-1.594.508-2.754 2.247-3.043 3.187 0 0-2.172.072-3.477-.723-1.304-.798-3.332-.654-3.84-.073 0 0 1.087.362 1.303.868 0 0-3.511.59-4.11 4.684 0 0 .585-.628 1.203-.822-.023.857.231 2.69 1.386 4.47 0 0-.011-1.413.364-1.668 0 0 1.195-.226 3.148-.042-.593.285-1.048.936-1.048.936 3.386-.492 6.205.353 7.479.845.219.098.438.191.658.28.046.02.072.035.072.035l-.007-.01c4.788 1.92 9.766 1.87 11.574-2.044 0 0-1.016 7.39-14.705 2.754 0 0 4.925 4.636 5.215 11.809 0 0-2.39 7.676 1.448 11.662l.435-2.536.032.046c-.13.371-.147 1.064.257 2.369.821 2.643 2.847 2.709 2.34 6.117.016-1.02-.611-3.107-5.236-5.247m-34.631-1.291c.447.06.915.135 1.407.227 0 0-.518-.578-1.22-1.263l.095-.532 7.175 3.22-.628 1.807c-2.074-.28-4.727-.383-7.484.177l.655-3.636" fill="#FFF"/></g></svg>