<svg width="200" height="200" fill="none" xmlns="http://www.w3.org/2000/svg"><path d="M113.601 135.427 85.217 122.89l-1.656-.946c-5.913-3.311-10.88-6.859-13.955-10.171-6.623-7.332-8.988-13.482-9.698-18.45-.71-5.676-.236-11.116.473-13.718 2.366-8.989 6.387-17.74 8.515-23.417l.237-.71h-.71c-.71 0-1.182 0-1.892-.236l-.946-.237-.237-.473c-.71-.946-2.128-2.838-3.548-4.257-1.182-1.42-2.128-2.602-2.365-2.839-4.967-7.096-4.494-10.644-1.42-13.009.71-.71 2.603-2.129 2.603-2.129 1.655-1.183 3.075-2.602 4.494-3.784l.946-.947v-.236c-.237-1.42.237-3.548-.473-4.967l-.473-1.42c-.237-.709-.473-1.419-.473-1.655-.71-2.838-.71-5.677 1.419-7.806.473-.473 1.183-.946 1.656-1.182l6.623-4.495c.473-.236.946-.71 1.655-1.182.947-.71 2.366-1.42 3.312-2.129 1.183-.71 2.365-1.183 3.784-1.183 1.183 0 2.366.237 3.785.473l2.129.237c1.892.237 3.784 1.656 5.203 3.784l.237.237.237-.237c6.622-2.601 13.718-4.02 20.341-4.02 4.968 0 9.698.709 13.956 2.128 1.182.473 2.129.71 3.075 1.183h.236l.237-.237c2.129-1.655 4.494-2.365 7.096-2.365h2.602l.709.473c9.225 4.258 15.138 10.644 15.848 11.354l1.183 1.182.236 5.914-.709 1.182s-1.656 2.602-2.602 5.677v.473c2.602 6.86 8.042 11.117 8.042 11.117l1.419 1.183-1.183 3.075c-2.129 5.44-4.967 8.988-8.988 11.117-.236.236-1.183.473-1.183.473v.473c.237.946.237 1.892.237 2.838 8.279 17.977 10.171 31.696 5.677 43.522-2.839 7.806-8.752 15.139-17.74 21.998l-1.183.946-28.384 9.935Z" fill="#fff"/><path d="M185.744 124.309h-42.339c9.224-6.859 14.901-14.191 17.976-21.997 4.494-12.063 2.602-26.019-5.677-43.759 0-.946-.236-1.892-.236-2.838.236-.237.473-.237.946-.473 4.021-2.129 7.096-5.677 9.225-11.354l1.419-3.548-1.656-1.419s-5.204-4.258-7.805-10.88c.946-3.075 2.601-5.44 2.601-5.677l.946-1.42-.236-6.15-1.183-1.418c-.709-.71-6.623-7.096-15.847-11.59l-.947-.474h-2.601c-2.602 0-5.204.947-7.333 2.602-.946-.473-2.129-.946-3.075-1.182-10.644-3.548-22.944-2.839-34.77 1.892C93.496 2.495 91.604.839 89.475.603L87.346.366c-3.311-.473-5.44-.71-8.042.71-1.183.71-2.365 1.42-3.311 2.129-.71.473-1.42.946-1.656 1.182l-6.623 4.494c-.473.474-1.183.71-1.656 1.42-2.365 2.128-3.311 5.676-2.365 8.515 0 .236.236 1.183.473 1.656l.473 1.419c.473 1.419.946 3.075 1.183 4.494l-.71.71c-1.419 1.182-3.075 2.601-4.73 3.784-.71.71-1.656 1.42-2.366 1.892-3.075 2.602-5.677 7.096-.473 14.429.237.236 1.183 1.419 2.365 2.838 1.42 1.656 2.839 3.548 3.548 4.258l.71.946 1.183.236c.71 0 1.419.237 1.892.237a261.636 261.636 0 0 0-8.042 23.417c-.71 2.838-1.42 8.042-.473 13.955.71 4.967 2.838 12.3 9.698 19.869 3.075 3.548 8.278 7.569 14.192 10.88H10l8.515 5.441 15.375 9.698c-.473 3.784-1.656 11.117-1.892 12.772-.71 4.731 0 8.752 1.892 12.3h-3.548l-.473 2.602-.473 3.548c-.473 3.311-1.893 14.192-1.893 16.321 0 3.548.947 6.386 3.075 8.515C34.126 199.29 40.04 200 47.608 200H186.218v-2.838l2.838-70.487.237-3.075h-3.548v.709ZM140.093 9.118h.71c6.623 3.075 11.117 7.569 12.536 8.988v1.42c-.71 1.419-2.602 4.73-3.548 8.515l-.237.473.237.473c1.419 4.73 6.623 11.826 8.752 13.719-1.656 4.02-4.731 6.15-8.042 7.332-.474-1.182-1.183-2.129-1.893-3.311-1.892-2.602-4.494-7.57-4.021-11.117 3.785-5.44 3.548-11.354 3.548-11.354-2.602-6.15-6.386-10.88-11.353-14.428 1.182-.237 2.128-.71 3.311-.71Zm-2.365 66.466c-1.419-1.893-2.129-1.656-6.15-4.021-2.129-1.183-3.312-3.075-3.075-6.15.236-3.075.237-11.117 2.838-12.3l.473-.236c.71-.474 1.42-.947 1.42-1.656l.236-.71c0-.236.237-.71.473-.71l1.656-1.419c.236-.236.473-.71.71-1.182l.473-2.839c0-.473 0-.946-.237-1.182l-.71-1.183c2.839.946 4.968 2.602 6.86 5.913-.473 4.968-4.258 12.063-4.258 12.063s2.129 2.839 2.839 5.44c.473 1.42 0 3.549-.473 5.441-.237.71.236 1.42 1.182.237 2.602-4.022 1.893-6.387 1.183-7.806l-1.419-2.838s3.548-4.731 4.494-9.225v-.473c2.838 4.494 4.494 9.224 1.656 19.869 0 0-.473-.71-.946-1.656-2.366 14.901-6.387 17.03-10.408 17.976v-1.182c-.236-2.366-.473-5.914.473-7.806.237 0 1.183.473 1.892 1.656.237-.71-.236-2.839-1.182-4.021Zm-6.623 4.73c-.71.237-1.656.237-2.839 0 .473-.473 1.183-1.182 1.656-1.892l.237-.236s.236 0 .236.236c.71.71.71 1.42.71 1.892Zm4.73-44.94c-.473-.237-.946-.474-.946-.71h-.709c-.237 0-.237-.237-.237-.237.237 0 .71 0 .71-.236 0-.237.236-.71.946-1.183 0 .236-.237.473-.237.946s.237.946.473 1.42Zm-.236-1.184v-.473s0-.236.236-.236h1.656s.237 0 .237.236v.474s0 .236-.237.236l-1.892-.236Zm4.967-1.655c.473.236.71.473.71.71 0 .709-.237 1.182-.71 1.655 0-.236.237-.71.237-.946.236-.71 0-.946-.237-1.42Zm-9.461 91.774c-1.183.71-2.366 1.42-3.785 2.129-.236 0-.236.237-.473.237-1.182.709-2.365 1.419-3.548 1.892-.236.237-.473.237-.709.473-1.183.71-2.366 1.183-3.548 1.892-.237.237-.71.237-.946.473-1.656.71-3.075 1.42-4.731 2.129-.237-.473-.71-.946-.946-1.419l-.473-.473-.946-.946c-.237-.237-.474-.237-.71-.473-.473-.237-.946-.71-1.419-.946-.237 0-.473-.237-.473-.237-2.602-1.419-6.15-3.075-10.644-4.967-2.366-.946-4.731-2.129-7.333-3.548-17.503-8.988-19.632-21.288-19.632-21.288s-1.183 1.419-1.42 3.785c-1.655-2.129-5.913-10.171-3.074-21.525 3.784-14.901 10.17-29.093 10.88-30.513 3.785-2.838 5.44-7.569 5.44-11.826 0-3.075 0-5.677.947-8.752.236-.473-.473-.71-.71-.473-3.075 3.311-2.838 8.988-3.548 12.063-1.42 5.677-7.569 7.57-11.353 6.86-1.183-1.42-3.075-3.785-4.258-5.44-1.42-2.13-1.656-4.022.473-5.677 3.075-2.602 6.386-4.968 9.225-7.806.236-2.602-.473-5.204-1.183-7.57-.473-1.418-.946-3.074-1.419-4.493 0-.237-.237-.473-.237-.71 0-.71.237-1.183.947-1.42l.71-.472 1.182-.946c2.365-1.656 6.623-4.494 8.988-5.914l.71-.473c.236-.236.473-.236.71-.236l1.418.236c.71 0 1.183 0 2.13.237 1.892.236 2.601 1.656 2.838 1.892 1.655 2.129 3.075 4.021 4.73 6.15.237-1.183.237-2.129 0-3.075 10.881-5.204 22.707-6.386 32.405-3.075 6.86 2.365 12.063 6.15 16.085 13.719h-2.129c-2.366.473-4.731 2.365-4.731 2.365l.946-1.892c-1.892.473-3.548 1.183-4.967 1.656l-2.129 2.838-.709-3.784-1.893 5.676 1.183 2.13-.473.709c-3.312-2.602-6.386.236-7.096.946h.473c5.44-.236 7.806.71 7.806.71l4.257 5.203c-1.182 0-3.075.237-5.203.237-1.893 0-4.495-.71-5.914-.71-.946 0-1.656.237-2.602.71l-2.128 1.419c-.474.237-.71.71-.71 1.183v2.838c0 .473.236.946.473 1.183l2.365 1.892c.237.237.473.473.473.946v.473c.237.946.71 1.42 1.42 1.892.236 0 .473.237.709.474 2.839 1.655 1.183 10.643.71 12.536-.473 1.892-.946 4.257-4.731 5.677-3.784 1.419-11.827 2.838-12.3 5.913.473.946.71 1.42 1.183 1.42.237 0 .473 0 .473-.237l.71-.947s1.892 0 3.548 3.312c1.655 3.311 2.838 5.913 8.042 5.44 5.677-.473 7.805-.236 9.461 0 1.656.237 2.839-.236 3.548-.946 0 .71-.236 1.42-.473 2.129-.473 1.655-1.656 3.311-3.311 4.494-2.129 1.183-9.462 1.656-14.902 1.183-4.731-.474-8.042-3.075-9.461-4.258 2.365-1.656 3.075-3.312 2.838-3.785-4.967 3.785-9.934 2.366-12.3 1.42-5.44-2.13-14.665-10.88-15.847-29.803-2.366 5.676-1.892 14.665.236 19.632.237-.473.473-.473.71-.71 7.332 15.611 15.848 15.848 18.45 15.611 4.02 2.366 7.805 5.204 14.664 5.914 1.893.236 4.495.236 7.096.236 4.022-.236 7.806-.71 9.698-1.892 2.366-1.183 3.548-2.602 4.258-4.258 7.332-1.182 12.063-6.623 14.901-16.084.474-1.182 1.183-3.548 1.656-6.623 8.515 19.869 9.225 37.845-20.578 56.058Zm-8.515-80.657c-.946-.237-1.893-.71-2.839-.946.237-.237 1.183-.947 1.893-1.183.709.236 1.182.71 1.419 1.42.236.236 0 .709-.473.709Zm-2.602 36.899c-1.419 0-2.602-.237-3.312-.71l.473-.473c.473-.236.71-.71 1.183-.946l.473-.473h.473c.237.71.71 1.656.71 2.602Z" fill="#006549"/><path d="M136.071 61.865c-.473 0-1.182.473-1.182 1.182 0 .71.473 1.183 1.182 1.183.473 0 1.183-.473 1.183-1.183-.237-.71-.71-1.182-1.183-1.182ZM118.806 60.682c.709 0 1.182-.473 1.182-1.183 0-.71-.473-1.182-1.182-1.182-.71 0-.947.473-.947 1.182-.236.473.237 1.183.947 1.183ZM119.278 64.467c0 .71.473 1.182 1.183 1.182.71 0 1.183-.473 1.183-1.182 0-.71-.473-1.183-.946-1.183-.947 0-1.42.473-1.42 1.183ZM133.47 59.972c0-.71-.473-1.182-.947-1.182-.709 0-1.182.473-1.182 1.182 0 .71.473 1.183.946 1.183s.946-.473 1.183-1.183ZM132.761 65.886c-.473 0-.947.473-.947 1.183 0 .472.474 1.182 1.183 1.182.473 0 1.183-.473 1.183-1.183-.237-.71-.71-1.182-1.419-1.182ZM115.257 66.359c-.473.237-.709.946-.473 1.42.237.709.946.709 1.419.472.237-.236.473-.473.473-.946.237-.71-.709-1.183-1.419-.946ZM115.02 61.865c0-.473-.473-.946-1.182-.946-.473 0-.946.473-.946 1.182 0 .71.473 1.183.946 1.183.709-.236 1.419-.946 1.182-1.42ZM91.84 111.064c14.428 6.859 21.051-8.279 15.138-13.72.236 6.624-5.44 13.72-15.138 13.72ZM121.17 111.3c-2.129.946-4.731 2.129-6.623 4.021-2.129 2.129-3.075 5.44-1.42 8.279.947-2.365 1.656-4.021 4.021-5.44 7.333-4.494 12.773-6.387 18.923-10.644 6.623-4.494 6.623-10.171 3.785-14.665.709 7.332-2.129 10.407-18.686 18.449ZM89.475 37.975c1.419 3.311 3.547 6.15 7.096 8.515.236 2.365 1.182 6.623 4.494 10.408 0 0-.237 0-.237.236-3.075 2.129-7.096 5.44-7.332 11.59.473 3.548 4.02 7.333 6.15 8.752.473.237.709-.237.473-.473-.947-1.42-4.022-5.677-4.022-8.279.237-7.096 6.86-9.934 9.462-10.644-2.839-2.602-3.548-6.623-3.785-9.698 1.419-5.676 6.623-9.46 12.3-9.697 0 0 .473 1.182.71 2.365.473-1.892 1.182-4.494 3.548-5.913h-2.839s-.946 0 .237-1.656c.946-1.42 3.548-2.129 3.548-2.129s-1.656-2.838-4.258-6.623c1.419 4.021.71 6.15-.236 6.86-.947-2.366-2.129-4.968-2.129-4.968-.946-.71-2.129-1.419-3.312-1.892-.709-.236-1.419-.71-2.128-.946-.237 0-.474-.236-.71-.236l.71 2.365-4.495-3.312c-5.203-.946-10.644-.71-15.138.237-.473 4.258-.473 10.407 4.021 15.138h-2.128Zm17.976-5.204c.237.237.473.71.473.946 0 .237.71.237.946.237.237 0 0 .473-.236.473h-.946l-.237.236c.237-.472.237-.71.237-1.182-.237-.237-.237-.473-.237-.71Zm-3.548.473.237.947s0 .236-.237.236h-1.892s-.237 0-.237-.236v-.71s0-.237.237-.237h1.892Zm-2.129-1.655c-.473.473-.709 1.182-.709 1.892s.236 1.182.473 1.656c-1.183-.474-2.366-1.183-2.366-2.839.237-.236.947-.71 2.602-.71Z" fill="#006549"/><path d="m49.974 152.693 1.183-8.278c.236-2.366.236-3.075 2.838-3.075 2.366 0 2.366.709 2.129 3.075l-1.183 8.751h11.354l1.183-8.988c1.419-9.698 1.419-13.009-12.064-13.009h-21.76l7.568 4.967c-.946 1.892-1.182 4.494-1.655 8.042l-1.183 8.988c-2.129 15.375 14.902 11.591 13.719 18.923l-1.183 8.279c-.236 2.365-.473 3.075-2.838 3.075-2.602 0-2.602-.71-2.129-3.075l1.183-8.752H35.782l-1.182 8.988c-1.42 9.698-1.42 13.01 12.3 13.01 14.428 0 14.428-3.312 15.847-13.01l1.182-8.988c2.13-15.375-14.901-11.354-13.955-18.923ZM74.337 131.405l-8.752 62.209h12.063l8.752-62.209H74.337ZM160.435 131.405l-14.902 62.209h11.59l2.366-10.644h8.278l-.709 10.644h11.59l2.602-62.209h-20.815Zm7.805 41.394h-6.623l6.86-30.513h1.419l-1.656 30.513ZM103.194 131.405H91.131l-8.752 62.209h20.578l1.419-10.171h-8.515l2.366-16.085h8.278l1.419-9.934h-8.278l2.129-15.848h8.515l.236-2.128c.237-2.839-2.128-5.204-7.332-8.043ZM140.565 131.405l-4.73 34.061-1.183 13.719-1.419-47.78h-5.913a252.74 252.74 0 0 1-11.354 5.677l-8.042 56.532h9.934l4.731-34.061 1.183-13.956 1.419 48.017h16.557l8.752-62.209h-9.935ZM146.007 50.748c-.946 4.73-4.494 9.224-4.494 9.224 3.784.474 5.913 4.495 5.203 8.516.473.946.947 1.655.947 1.655 3.074-10.88 1.419-15.61-1.656-19.868.236 0 .236.236 0 .473ZM150.029 29.223l-.237-.473.237-.473c.946-4.02 2.602-7.332 3.548-8.515v-1.42c-1.42-1.655-5.914-5.913-12.537-8.988h-.709c-1.183 0-2.129.237-3.075.947 4.967 3.311 8.752 8.042 11.353 14.428 0 0 .237 5.677-3.548 11.354-.473 3.548 2.129 8.515 4.022 11.117.709 1.182 1.419 2.128 1.892 3.311 3.311-.946 6.15-3.311 8.042-7.332-2.365-2.13-7.569-9.225-8.988-13.956ZM132.762 81.024c-.473.473-1.892 1.42-4.494.946-2.602-.473-4.257-.473-8.042.237-1.419.236-3.311 0-5.677-1.893-.236 0-.473-.236-.473 0 .237.474 1.183 1.656 3.075 2.602.946.473 1.656.71 4.258.237 2.602-.473 4.73-.237 6.623 0 2.128.236 3.784.71 5.913-2.366-.237-.236-.473-.236-1.183.237Z" fill="#FFC62D"/><path d="M115.495 78.659a15.44 15.44 0 0 0 1.892-1.656c.237-.473.946-.71 1.419-.71.71 0 1.183.237 1.419.71.71 1.183 1.183 2.129 1.183 3.548h.237c1.655-.237 3.075-.237 4.257-.237l.71-.71.236-.236c.473-.473 1.183-1.182 1.656-1.892.473-.473.946-.946 1.656-.946.709 0 1.419.473 1.656.946.473.71.473 1.656.709 2.129.946-.473 1.183-1.183 1.183-1.183s.473-1.183-.71-1.892c-.946-.71-2.602-1.42-4.021-2.129-1.182-.473-2.129-1.656-2.602-2.602a5.754 5.754 0 0 1 0 2.839c-.236 1.419-1.182 2.365-1.419 1.182-.236-.71-.473-1.892-1.419-3.311-3.075 2.602-8.752 2.129-9.934 4.02.709.947 1.182 1.42 1.892 2.13ZM124.01 47.91c1.419.946 3.548 0 3.311-2.13-.236-1.419-2.365-2.365-3.784-1.182-.473.236 0 1.183.473.946 1.183-.71 1.892-.236 2.129.71.236.946-.473 1.892-2.129 1.655ZM132.761 45.544c.473.237.946-.71.473-.946-1.419-1.183-3.548-.473-3.784 1.183-.237 2.128 1.656 3.075 3.311 2.128-1.655.237-2.365-.71-2.129-1.655.237-.947 1.183-1.42 2.129-.71ZM141.275 36.792c-.709.947-2.365 1.183-4.257.947.236.236 4.021 2.601 4.257 2.838.71-.946.237-2.602 0-3.785ZM140.802 34.663c0-.236.237-.71.237-.946 0-.473 0-.946-.237-1.182-.236 0-.709-.237-1.183-.237.474.237.71.71.71 1.42 0 .945-.946 1.892-1.892 1.892-.71 0-1.419-.473-1.656-1.183h-.473s-.237 0-.237-.236v-.474s0-.236.237-.236h.473c0-.473.237-.71.473-.946-.473 0-.946.236-1.183.236 0 .237-.236.473-.236.946 0 .474.236 1.183.473 1.42.71.236 1.419.473 2.365.473.473 0 1.42-.237 2.129-.947ZM139.383 30.642c1.419.237 1.656.71 2.365.474.237 0 .474-.237.474-.474-.237-1.419-3.075-2.128-5.204-1.892-1.419.237-2.366.71-3.075.946l-.473-.473c-.473.473-.71 1.183-.473 2.366-.237.236-.473.236-.71.473h-1.183c.474.236 1.183.473 1.893.473.709-.237.946-.71 1.419-1.183 1.419-.473 3.548-.946 4.967-.71Z" fill="#FFC62D"/><path d="M115.021 24.73c-.71-1.42-.709-1.42-1.419-2.13 2.365-4.257 1.183-10.644 1.183-10.644l.946-1.182s2.838 0 5.44.473c8.752 7.332 9.698 9.224 8.279 14.192l.709 3.784 2.129-2.838c1.419-.71 3.075-1.183 4.967-1.656l-.946 1.892s2.365-1.892 4.731-2.365h2.129c-4.022-7.805-9.225-11.354-16.085-13.719-9.934-3.311-21.524-2.129-32.405 3.075v3.075c-1.656-2.129-3.075-4.258-4.73-6.15-.237-.473-1.183-1.656-2.839-1.892-.946-.237-1.419-.237-2.129-.237l-1.419-.236c-.236 0-.473 0-.71.236l-.709.473c-2.365 1.42-6.623 4.495-8.988 5.914l-1.183.946-.71.473c-.472.237-.71.946-.946 1.42 0 .236 0 .472.237.709.473 1.419.946 3.075 1.42 4.494.709 2.365 1.418 4.967 1.182 7.569-2.839 2.838-6.15 5.44-9.225 7.806-1.892 1.655-1.892 3.547-.473 5.676 1.183 1.893 3.075 4.021 4.258 5.44 3.784.71 9.934-1.182 11.353-6.859.71-3.075.237-8.752 3.548-12.063.237-.237.946 0 .71.473-.946 3.311-.946 5.913-.946 8.752 0 4.257-1.656 8.988-5.44 11.826-.71 1.42-7.097 15.611-10.881 30.513-2.839 11.354 1.419 19.632 3.075 21.525.236-2.366 1.419-3.785 1.419-3.785-.71-3.548.237-6.86 1.42-8.515 0 4.257 1.891 6.386 3.547 6.86-.946-7.097 2.365-14.193 9.934-15.848-1.419-1.893-2.838-4.258-4.02-6.86l-.71.71c-2.365-4.967-2.602-14.192-.237-19.633.71 10.881 4.021 18.45 7.806 23.417-4.258-6.386-4.494-11.826-2.839-15.847.71 1.892 1.656 2.838 1.656 2.838s3.785-10.17 14.192-9.461c-3.311-4.021-4.257-8.279-4.494-10.408-3.311-2.365-5.677-5.44-7.096-8.515h2.602c-4.494-4.73-4.494-10.88-4.021-15.138 4.257-.946 9.934-1.183 15.138-.237l4.494 3.312-.709-2.366c.236 0 .473.237.709.237.71.237 1.419.473 2.129.946 1.183.473 2.365 1.183 3.311 1.892 0 0 1.183 2.602 2.129 4.968.237-1.183.946-3.312-.473-7.333Z" fill="#FFC62D"/><path d="M106.032 32.062c.473.473.473.946.473 1.419 0 .946-.473 1.656-1.419 1.892.946-.236 1.656-.473 2.129-.71.236-.472.236-.71.236-1.182v-.71c-.236-.236-.709-.473-1.419-.71ZM101.776 33.244h.473c0-.71.473-1.182.946-1.419h-1.419c-.473.473-.71 1.183-.71 1.892 0 .71.237 1.183.473 1.656.474.237.947.237 1.656.237h.71c-.71-.237-1.419-.71-1.656-1.42h-.473s-.237 0-.237-.236l.237-.71ZM98.226 36.32c-.473 1.418 0 4.02 1.183 4.73 2.365-.237 4.967-1.892 6.623-4.021-3.075 1.655-6.387.473-7.806-.71ZM110.29 31.352c-.236 0-.473 0-.473-.236.237-1.893-.473-2.839-1.182-3.312 0 .473-.237.71-.474.71-.709-.237-2.128-.946-4.021-.946-2.601 0-6.15.946-5.913 2.601.237.237.473.473.71.473.71.237 1.182-.473 2.838-.946 1.892-.236 4.494 0 5.913 1.183.71.473.946 1.183 1.893 1.42.709 0 1.655-.474 2.128-.947h-1.419Z" fill="#FFC62D"/></svg>