<?xml version="1.0" encoding="UTF-8"?>
<svg width="200px" height="200px" viewBox="0 0 200 200" version="1.1" xmlns="http://www.w3.org/2000/svg" xmlns:xlink="http://www.w3.org/1999/xlink">
    <!-- Generator: Sketch 51.3 (57544) - http://www.bohemiancoding.com/sketch -->
    <title>siu-edwardsville</title>
    <desc>Created with Sketch.</desc>
    <defs></defs>
    <g id="siu-edwardsville" stroke="none" stroke-width="1" fill="none" fill-rule="evenodd">
        <g id="siu-edwardsville_BGL" transform="translate(0.000000, 41.000000)">
            <g id="siu-edwardsville">
                <g id="g10" transform="translate(99.999998, 58.977776) scale(-1, 1) rotate(-180.000000) translate(-99.999998, -58.977776) translate(0.000000, 0.644445)" fill-rule="nonzero">
                    <g id="g12">
                        <path d="M120.358886,40.8775545 C116.405553,40.8775545 116.767775,35.2374436 116.767775,35.2374436 L124.07333,35.2374436 C124.07333,35.2374436 124.671108,40.8775545 120.358886,40.8775545 Z M121.157775,25.9275549 C124.085552,25.9275549 125.031108,28.6762215 125.031108,28.6762215 L135.748885,27.3684438 C135.748885,27.3684438 133.179997,20.0681106 121.626664,20.0681106 C108.032997,20.0681106 104.036442,27.064666 104.036442,33.1648881 C104.036442,39.2643324 108.48522,46.5199988 120.10333,46.5199988 C137.307774,46.5199988 136.344441,32.0052214 136.344441,32.0052214 L116.61333,32.0052214 C116.61333,32.0052214 116.156664,25.9275549 121.157775,25.9275549 Z" id="path14" fill="#EE2A27"></path>
                        <path d="M44.0073322,39.9856657 C44.0073322,42.3264434 46.36411,43.4708878 48.2053321,43.4708878 C52.0585543,43.4708878 53.1871098,40.3133323 53.1871098,40.3133323 L57.3285541,42.6953323 C57.3285541,42.6953323 55.8128875,46.9931099 48.6297766,46.9931099 C42.3168878,46.9931099 39.1341101,43.3212211 39.1341101,39.5464435 C39.1341101,30.9548881 52.6119987,32.3654436 52.6119987,26.883666 C52.6119987,25.9635549 52.2799987,23.0152216 47.768221,23.0152216 C43.2552211,23.0152216 41.9196656,26.7131104 41.9196656,26.7131104 L37.5577768,24.2599994 C37.5577768,24.2599994 39.3936657,19.2759995 47.3458877,19.2759995 C55.2986653,19.2759995 57.7616652,23.9938883 57.7616652,27.482666 C57.7616652,36.2283324 44.0073322,34.641888 44.0073322,39.9856657" id="path16" fill="#231F20"></path>
                        <polyline id="path18" fill="#231F20" points="68.488665 46.4287766 63.7621095 46.4287766 63.7621095 19.8437773 68.488665 19.8437773 68.488665 46.4287766"></polyline>
                        <path d="M94.2317754,30.7083326 C94.2317754,26.0264438 93.0394421,23.0152216 87.1085534,23.0152216 C81.1783313,23.0152216 79.9861091,26.0264438 79.9861091,30.7083326 L79.9861091,46.4287766 L75.2604426,46.4287766 L75.2604426,30.7704437 C75.2604426,24.4878883 76.8923314,19.2759995 87.1085534,19.2759995 C97.3255531,19.2759995 98.957442,24.4878883 98.957442,30.7704437 L98.957442,46.4287766 L94.2317754,46.4287766 L94.2317754,30.7083326" id="path20" fill="#231F20"></path>
                        <path d="M187.249995,93.386331 C187.249995,93.386331 151.818885,116.476664 105.687108,116.476664 C58.3997763,116.476664 24.0876661,95.6692198 24.0876661,95.6692198 C24.0876661,95.6692198 37.4426657,96.5655531 48.7187766,94.6267754 C48.7187766,94.6267754 14.5824441,77.8394425 0,36.0295547 C0,36.0295547 17.3581107,56.4613319 31.3489992,66.423665 C31.3489992,66.423665 23.1219994,57.9622208 22.2213328,36.9799991 C22.2213328,36.9799991 42.5716656,54.2586653 79.3633313,59.5299985 L56.3433319,49.4409988 C56.3433319,49.4409988 79.2634425,53.7304431 100.250886,53.7304431 C121.235553,53.7304431 142.889996,50.1136654 142.889996,34.2434436 C142.889996,24.5073327 129.49333,14.6862219 129.49333,14.6862219 C129.49333,14.6862219 153.661107,14.8055552 165.611107,24.3228883 L169.962218,24.4908883 C169.962218,24.4908883 166.027774,18.885444 157.446663,14.8424441 C180.119995,12.5846664 200.962217,23.8888883 195.79444,40.3697768 L199.999995,69.1037761 C194.907773,77.5911092 187.696662,84.8727757 187.696662,84.8727757 C189.959995,88.0997756 190.513329,91.4331088 187.249995,93.386331" id="path22" fill="#FFFFFF"></path>
                        <path d="M182.987773,84.4626646 L185.583329,87.7331089 C186.537773,88.9517756 185.951106,89.9717755 185.34444,90.3667755 C178.321107,94.9196643 147.414441,112.949997 104.276442,112.949997 C65.669665,112.949997 39.0255546,98.7335531 39.0255546,98.7335531 C39.0255546,98.7335531 50.9699987,98.6739975 59.9535541,95.8449976 C59.9535541,95.8449976 28.7295548,86.2934423 9.38281088,50.617221 C9.38281088,50.617221 31.6418881,78.1562203 67.6575539,89.0329978 C76.0321092,92.3772199 86.1037756,95.2538865 98.2153309,97.3793309 C98.2153309,97.3793309 73.5633315,109.144997 48.1349988,101.673997 C48.1349988,101.673997 86.7786645,117.767775 123.788886,98.3137753 C123.788886,98.3137753 116.695553,99.243442 107.260442,98.3059975 C105.328997,98.1149975 103.302109,97.8458864 101.216553,97.4747753 C101.216553,97.4747753 118.945553,97.2752198 118.945553,91.715331 C118.945553,86.3442201 93.142331,80.4153313 93.142331,80.4153313 C93.142331,80.4153313 124.326664,86.3528867 142.448885,76.4852203 C142.448885,76.4852203 133.839997,86.0264423 141.101108,86.0264423 C147.612219,86.0264423 154.268885,74.8003315 156.029996,71.6124427 L180.91444,61.1662207 L195.875551,69.1241094 C189.809995,79.1805536 182.987773,84.4626646 182.987773,84.4626646" id="path24" fill="#231F20"></path>
                        <path d="M54.2199986,58.9396652 C75.3506648,67.472665 107.583775,74.9184426 148.221107,67.2404428 C107.605442,86.4648867 63.6536651,64.2231095 54.2199986,58.9396652" id="path26" fill="#A37B52"></path>
                        <path d="M156.202218,67.2752205 L152.221107,73.2105537 L156.029996,71.6124427 C154.268885,74.8003315 147.612219,86.0264423 141.101108,86.0264423 C133.839997,86.0264423 142.448885,76.4852203 142.448885,76.4852203 C124.326664,86.3528867 93.142331,80.4153313 93.142331,80.4153313 C93.142331,80.4153313 118.945553,86.3442201 118.945553,91.715331 C118.945553,97.2752198 101.216553,97.4747753 101.216553,97.4747753 C103.302109,97.8458864 105.328997,98.1149975 107.260442,98.3059975 C71.0168871,110.961331 48.1349988,101.673997 48.1349988,101.673997 C73.5633315,109.144997 98.2153309,97.3793309 98.2153309,97.3793309 C51.0625543,84.1024423 38.0221102,56.806443 35.3581102,49.6701099 C40.009999,52.4262209 46.3424433,55.7573319 54.2199986,58.9396652 C63.6536651,64.2231095 107.605442,86.4648867 148.221107,67.2404428 C169.652218,57.7807763 174.502218,44.1796656 175.053329,42.4109989 C169.819996,60.4327763 156.202218,67.2752205 156.202218,67.2752205" id="path28" fill="#CBA569"></path>
                        <path d="M48.1349988,101.673997 C48.1349988,101.673997 71.0168871,110.961331 107.260442,98.3059975 C116.695553,99.243442 123.788886,98.3137753 123.788886,98.3137753 C86.7786645,117.767775 48.1349988,101.673997 48.1349988,101.673997" id="path30" fill="#A37B52"></path>
                        <path d="M67.6575539,89.0329978 C32.902777,75.1605537 27.3155549,53.234332 26.0589993,43.43311 C26.0589993,43.43311 29.2643326,46.0568877 35.3581102,49.6701099 C38.0221102,56.806443 51.0625543,84.1024423 98.2153309,97.3793309 C86.1037756,95.2538865 76.0321092,92.3772199 67.6575539,89.0329978" id="path32" fill="#A37B52"></path>
                        <polygon id="path34" fill="#825B25" points="194.386662 54.7287764 196.079995 66.4592206 184.577773 44.22311"></polygon>
                        <path d="M184.577773,44.22311 L196.079995,66.4592206 L180.616662,57.6202208 C163.763329,65.202665 156.202218,67.2752205 156.202218,67.2752205 C156.202218,67.2752205 169.819996,60.4327763 175.053329,42.4109989 C174.502218,44.1796656 169.652218,57.7807763 148.221107,67.2404428 C107.583775,74.9184426 75.3506648,67.472665 54.2199986,58.9396652 C46.3424433,55.7573319 40.009999,52.4262209 35.3581102,49.6701099 C29.2643326,46.0568877 26.0589993,43.43311 26.0589993,43.43311 C26.0589993,43.43311 59.1332207,68.2604427 107.212664,63.644554 C107.212664,63.644554 89.1679978,60.5173318 75.8346648,54.4257764 C75.8346648,54.4257764 91.9348866,57.3112208 102.229997,57.3112208 C124.909997,57.3112208 146.325552,51.7968876 146.325552,33.8745547 C146.325552,25.6974438 138.614441,18.9266662 138.614441,18.9266662 C138.614441,18.9266662 158.126663,20.6432217 164.017774,27.6757771 L174.283329,28.2755548 C174.283329,28.2755548 178.186662,24.896666 166.90444,18.286444 C184.136662,18.286444 197.337773,30.5173326 192.237773,39.8315546 L194.386662,54.7287764 L184.577773,44.22311" id="path36" fill="#231F20"></path>
                        <path d="M126.075552,95.030331 C124.938886,91.9539977 127.832219,84.124109 136.669997,88.2031089 C132.184441,92.0885533 126.075552,95.030331 126.075552,95.030331" id="path38" fill="#FFFFFF"></path>
                        <path d="M134.634441,106.882331 C115.758886,111.511108 98.4387753,109.742664 98.4387753,109.742664 C98.4387753,109.742664 159.522218,102.717886 153.977774,84.3064423 C159.06444,85.4696645 153.404441,96.9271087 134.634441,106.882331" id="path40" fill="#825B25"></path>
                        <path d="M98.4387753,109.742664 C134.634441,103.904997 145.326663,84.2078868 153.047774,84.2078868 C153.389996,84.2078868 153.698885,84.2426646 153.977774,84.3064423 C159.522218,102.717886 98.4387753,109.742664 98.4387753,109.742664" id="path42" fill="#534018"></path>
                        <path d="M7.29339982,57.4913319 C6.46875539,57.4913319 5.79991097,58.1575541 5.79991097,58.9822207 C5.79991097,59.8077763 6.46875539,60.4761096 7.29339982,60.4761096 C8.11588869,60.4761096 8.78515534,59.8077763 8.78515534,58.9822207 C8.78515534,58.1575541 8.11588869,57.4913319 7.29339982,57.4913319 Z M7.29339982,60.8836651 C6.24262207,60.8836651 5.39279987,60.0334429 5.39279987,58.9822207 C5.39279987,57.9362208 6.24262207,57.0833319 7.29339982,57.0833319 C8.34157757,57.0833319 9.19009977,57.9362208 9.19009977,58.9822207 C9.19009977,60.0334429 8.34157757,60.8836651 7.29339982,60.8836651 Z" id="path44" fill="#231F20"></path>
                        <path d="M7.42882204,59.1862207 L6.92014427,59.1862207 L6.92014427,59.6601096 L7.42882204,59.6601096 C7.56033314,59.6601096 7.66623314,59.5559985 7.66623314,59.4227763 C7.66623314,59.2925541 7.56033314,59.1862207 7.42882204,59.1862207 Z M8.07247758,59.4227763 C8.07247758,59.7795541 7.78602203,60.0681096 7.42882204,60.0681096 L6.51302206,60.0681096 L6.51302206,57.8993319 L6.92014427,57.8993319 L6.92014427,58.7825541 L7.21181093,58.7825541 L7.62283314,57.8993319 L8.07247758,57.8993319 L7.64453314,58.8172208 C7.89453314,58.9062207 8.07247758,59.1449985 8.07247758,59.4227763 Z" id="path46" fill="#231F20"></path>
                        <path d="M134.807774,5.52951097 L136.718885,10.6931442 L138.584441,5.52951097 L134.807774,5.52951097 Z M135.596663,13.3854441 L130.519997,0.271267771 L132.88333,0.271267771 L134.16333,3.79209991 L139.149997,3.79209991 L140.439996,0.271267771 L142.928885,0.271267771 L138.065552,13.3854441 L135.596663,13.3854441 Z" id="path48" fill="#231F20"></path>
                        <path d="M157.783329,7.65277759 L156.754441,7.65277759 L156.754441,11.5156664 L158.821107,11.5156664 C159.877774,11.5156664 160.445552,10.7690997 160.445552,9.77647753 C160.445552,8.783422 160.119996,7.65277759 157.783329,7.65277759 Z M162.929996,9.89018864 C162.929996,12.593333 161.06444,13.3854441 158.496663,13.3854441 L154.406663,13.3854441 L154.406663,0.271267771 L156.754441,0.271267771 L156.754441,5.87022208 L158.108885,5.87022208 L161.376663,0.271267771 L164.15444,0.271267771 L160.46444,6.25521095 C160.46444,6.25521095 162.929996,7.1961776 162.929996,9.89018864 Z" id="path50" fill="#231F20"></path>
                        <path d="M43.8107767,1.83681107 C41.0798879,1.83681107 39.7235546,3.74132213 39.7235546,6.71224428 C39.7235546,9.68403309 41.1037768,11.840333 43.8207767,11.840333 C46.5377766,11.840333 46.9066655,9.77431087 46.9066655,9.77431087 L48.867221,10.9483553 C48.867221,10.9483553 48.048221,13.6748885 43.9378878,13.6748885 C40.305999,13.6748885 37.1714435,11.5082219 37.1714435,6.7903665 C37.1714435,2.07204439 39.8515546,0 43.8324433,0 C47.8125544,0 48.8758877,2.72352215 48.8758877,2.72352215 L46.9066655,3.8953999 C46.9066655,3.8953999 46.2664433,1.83681107 43.8107767,1.83681107" id="path52" fill="#231F20"></path>
                        <path d="M66.1493317,1.83681107 C63.5047762,1.83681107 62.2278873,4.07552212 62.2278873,6.83811094 C62.2278873,9.59852198 63.5047762,11.8381108 66.1493317,11.8381108 C68.7925538,11.8381108 70.0694427,9.59852198 70.0694427,6.83811094 C70.0694427,4.07552212 68.7925538,1.83681107 66.1493317,1.83681107 Z M66.1493317,13.6748885 C61.5898873,13.6748885 59.6757763,10.6141442 59.6757763,6.83811094 C59.6757763,3.06206659 61.5898873,0 66.1493317,0 C70.7065538,0 72.6206649,3.06206659 72.6206649,6.83811094 C72.6206649,10.6141442 70.7065538,13.6748885 66.1493317,13.6748885 Z" id="path54" fill="#231F20"></path>
                        <path d="M93.1675532,5.63367764 C93.1675532,3.73219991 92.9071088,1.83681107 90.2053311,1.83681107 C87.5034423,1.83681107 87.2431089,3.73219991 87.2431089,5.63367764 L87.2431089,13.3854441 L84.8775534,13.3854441 L84.8775534,5.66188875 C84.8775534,2.45789994 85.7108867,0 90.2053311,0 C94.6996643,0 95.5329976,2.45789994 95.5329976,5.66188875 L95.5329976,13.3854441 L93.1675532,13.3854441 L93.1675532,5.63367764" id="path56" fill="#231F20"></path>
                        <path d="M114.512219,11.840333 C117.046664,11.840333 117.622219,9.90668864 117.622219,9.90668864 L119.595553,11.0525219 C119.595553,11.0525219 118.50333,13.6748885 114.598886,13.6748885 C110.010886,13.6748885 107.813775,10.5933108 107.813775,6.7521665 C107.813775,0.911024422 111.929997,0 114.47333,0 C117.017775,0 119.364441,0.769965536 119.364441,0.769965536 L119.364441,6.90625538 L113.90333,6.90625538 L113.90333,5.08681098 L117.016664,5.08681098 L117.016664,2.18446661 C117.016664,2.18446661 116.105553,1.82117773 114.826664,1.82117773 C111.941108,1.82117773 110.365886,3.4322888 110.365886,6.69487761 C110.365886,9.95659975 111.977775,11.840333 114.512219,11.840333" id="path58" fill="#231F20"></path>
                        <path d="M177.793329,10.223522 C177.793329,11.1436664 178.582218,11.9409997 179.589996,11.9409997 C181.22444,11.9409997 181.70444,10.368922 181.70444,10.368922 L183.56444,11.5451108 C183.56444,11.5451108 182.859995,13.6748885 179.666662,13.6748885 C177.141107,13.6748885 175.392218,12.1962219 175.392218,9.98567753 C175.392218,5.73437763 181.211107,6.38324428 181.211107,3.73567768 C181.211107,2.19792217 179.947773,1.82117773 179.145551,1.82117773 C177.141107,1.82117773 176.648884,3.66232213 176.648884,3.66232213 L174.688885,2.45225549 C174.688885,2.45225549 175.541107,0 179.087773,0 C182.63444,0 183.746662,2.45442216 183.746662,4.0598999 C183.746662,8.28212202 177.793329,7.56509981 177.793329,10.223522" id="path60" fill="#231F20"></path>
                    </g>
                </g>
            </g>
        </g>
    </g>
</svg>