<svg width="200" height="200" fill="none" xmlns="http://www.w3.org/2000/svg"><path d="M196.345 25H0l11.228 16.637a24.287 24.287 0 0 0-1.491 5.41c-.41 2.66-.322 5.321.205 7.953.555 2.72 1.608 5.175 3.128 7.34.293.408.614.789.936 1.169l-12.193 3.48 1.286 6.081c.673 3.129 1.433 5.497 2.398 7.222 2.135 4.006 5.526 7.106 10.03 9.24 3.684 1.784 8.274 2.661 14.034 2.661 4.21 0 8.1-.439 11.58-1.316 2.777-.73 5.613-2.047 8.42-3.918 2.983-1.988 5.41-4.298 7.31-6.93l-1.754 12.164h28.801l2.836-19.444c.907 7.251 4.474 12.836 10.439 16.198 3.86 2.193 9.006 3.246 15.731 3.246 4.415 0 8.012-.38 11.023-1.17 5.468-1.432 10.088-4.298 13.772-8.45a28.717 28.717 0 0 0 3.275-4.532l-2.047 14.152h50.673l3.801-26.257h-2.982L196.345 25Z" fill="#000"/><path d="M142.457 68.772H57.749v18.567h84.708V68.772Z" fill="#000"/><path d="M53.625 54.064c-1.637-1.432-3.743-2.602-6.374-3.538l14.386-5.38-.41-2.368c-.233-1.462-.526-2.573-.818-3.421-.76-1.989-1.989-3.86-3.714-5.585-3.392-3.333-8.889-4.97-16.783-4.97H7.046L15 40.584l.527.73a19.57 19.57 0 0 0-2.076 6.317 17.918 17.918 0 0 0 .175 6.608c.468 2.222 1.287 4.21 2.485 5.906 1.2 1.638 2.837 3.129 4.942 4.386.35.205.672.41 1.023.585L6.17 69.678l.556 2.661c.584 2.749 1.257 4.796 2.017 6.228 1.754 3.275 4.59 5.848 8.363 7.632 3.157 1.55 7.222 2.28 12.427 2.28 3.918 0 7.485-.409 10.614-1.198 2.397-.644 4.824-1.784 7.28-3.392 5.848-3.947 9.328-9.24 10.322-15.76.41-2.603.292-5.147-.322-7.486-.702-2.778-1.988-4.97-3.8-6.579ZM34.882 69.386c-.058.292-.117.41-.409.556-.614.321-1.404.497-2.368.497-2.69 0-3.48-1.024-3.743-1.345-.03-.059-.38-.497-.731-1.96 4.795 1.024 6.17 1.463 6.55 1.638.526.205.701.41.701.41v.204Zm3.83-21.053a17.327 17.327 0 0 1-3.216-1.082c-.233-.116-.35-.204-.438-.263v-.029c.03-.175.088-.556.906-1.023a4.26 4.26 0 0 1 2.164-.556c.994 0 1.725.292 2.368.936.468.438.79 1.316.936 2.544v.087l-2.72-.614Z" fill="#fff"/><path d="m189.268 47.515 2.72-18.772h-66.345l-4.883 32.924c-.614 4.035-1.228 5.643-1.55 6.228-.556.994-1.55 2.105-4.444 2.105-2.486 0-2.807-.819-2.954-1.14-.087-.234-.497-1.609.205-6.316l5.029-33.743H57.719l8.45 13.1-6.754 46.55h21.199l7.923-54.591 5.322 8.011-2.982 20c-.527 3.51-.731 6.228-.644 8.304.322 7.193 3.246 12.427 8.743 15.527 3.275 1.871 7.836 2.778 13.889 2.778 4.094 0 7.368-.351 10.058-1.053 4.737-1.257 8.743-3.714 11.901-7.31 1.959-2.222 3.48-4.678 4.532-7.34 1.024-2.572 1.813-5.847 2.427-10.029l4.064-27.222 4.123 6.375-6.754 46.608h43.099l2.72-18.772h-21.872l.322-2.222h18.918l2.602-17.983h-18.918l.293-1.959h18.888v-.058Z" fill="#fff"/><path d="M54.62 61.316c-.555-2.164-1.55-3.83-2.924-5.059-2.017-1.783-5.117-3.158-9.298-4.093l-4.357-.965a19.408 19.408 0 0 1-3.801-1.287c-1.608-.76-2.28-1.871-2.076-3.333.205-1.316.994-2.34 2.368-3.129a7.33 7.33 0 0 1 3.597-.935c1.754 0 3.216.584 4.415 1.754.936.936 1.55 2.34 1.784 4.24l14.035-5.263c-.205-1.287-.439-2.252-.673-2.895-.614-1.608-1.608-3.129-3.04-4.562-2.808-2.748-7.69-4.122-14.737-4.122H12.515l4.883 7.222 1.55 2.251c-.205.293-.38.614-.556.936l-.175.292a17.109 17.109 0 0 0-1.901 5.673 15.584 15.584 0 0 0 .146 5.585c.38 1.842 1.053 3.45 2.018 4.795.965 1.316 2.31 2.515 4.093 3.596 1.784 1.053 3.626 1.813 5.556 2.223 3.801.79 6.17 1.403 7.164 1.813 1.9.79 2.719 2.017 2.456 3.772-.176 1.198-.819 2.105-1.9 2.66-1.053.585-2.31.878-3.743.878-2.749 0-4.767-.82-6.024-2.486-.556-.702-.994-1.871-1.345-3.509L9.62 71.696c.526 2.456 1.111 4.269 1.755 5.439 1.461 2.719 3.83 4.853 7.076 6.374 2.719 1.316 6.432 1.988 11.14 1.988 3.684 0 6.988-.35 9.883-1.082 2.076-.555 4.21-1.55 6.403-3.012 5.176-3.479 8.188-8.07 9.065-13.8.292-2.194.204-4.299-.322-6.287ZM63.07 31.667l6.17 9.532-6.432 44.327h15.321l7.807-53.86H63.071ZM128.158 31.667l-4.532 30.409c-.497 3.421-1.14 5.819-1.871 7.193-1.316 2.398-3.655 3.626-6.989 3.626-3.011 0-4.883-.994-5.643-3.012-.556-1.374-.526-3.977.029-7.807l4.532-30.41h-23.07l6.287 9.504-3.129 21.11c-.497 3.275-.702 5.878-.614 7.75.263 6.169 2.69 10.525 7.252 13.128 2.807 1.579 6.959 2.397 12.456 2.397 3.801 0 6.9-.321 9.327-.964 4.181-1.111 7.661-3.246 10.468-6.433a22.192 22.192 0 0 0 4.006-6.491c.936-2.34 1.696-5.468 2.281-9.386l4.561-30.614h-15.351ZM186.755 44.62l1.9-12.953h-41.754l6.14 9.503-6.462 44.356h37.222l1.872-12.953h-21.872l1.17-8.04h18.889l1.783-12.135h-18.918l1.141-7.778h18.889Z" fill="#CE202F"/><path d="M196.053 84.328a3.95 3.95 0 0 0-3.948 3.947 3.931 3.931 0 0 0 3.948 3.947A3.95 3.95 0 0 0 200 88.275a3.93 3.93 0 0 0-3.947-3.948Zm0 7.017a3.101 3.101 0 0 1-3.1-3.1 3.1 3.1 0 0 1 6.199 0c0 1.726-1.374 3.1-3.099 3.1Z" fill="#000"/><path d="M197.69 87.34c0-.732-.585-1.346-1.345-1.346h-1.901v4.503h.848v-1.813h.614l.848 1.813h.936l-.877-1.9a1.34 1.34 0 0 0 .877-1.258Zm-1.345.496h-1.053v-.994h1.053c.263 0 .497.234.497.497a.512.512 0 0 1-.497.497Z" fill="#000"/><path d="M131.666 148.713s-3.888 3.217-12.982-1.228c-1.608-.175-3.655-.029-5.731.264a31.663 31.663 0 0 0-8.567 4.181c4.21 7.836 12.865 7.427 12.865 7.427s-.789 1.462-1.988 2.134c5.877.731 10.234-3.976 10.234-3.976s-.293 1.286-.673 2.193c6.55-2.164 11.111-9.591 11.111-9.591-2.339-1.491-4.269-1.404-4.269-1.404ZM144.269 109.912c-.263 0-.555.03-.818.088 0 0-.351 2.719-2.076 4.035.76-1.784.029-3.538.029-3.538-.146.029-.263.088-.409.146h-.03c-.117.03-.204.088-.321.117-.059.029-.088.029-.147.059-.058.029-.087.029-.146.058-.175.059-.321.146-.497.205-.029 0-.029 0-.058.029a21.343 21.343 0 0 0-1.813.907l2.105-.234c.029.146.059.292.059.438a2.07 2.07 0 0 1-1.638 2.018c-.175.029-.38.058-.672.029a2.129 2.129 0 0 1-1.521-.994c-1.082.906-1.637 1.637-1.637 1.637s.117.439.38 1.141c0 0 .526.906 3.801.321a8.294 8.294 0 0 1-3.129 1.404c1.199 2.982 3.509 7.661 7.164 11.082l.176-.439c.029-.088.058-.146.087-.205.029-.058.059-.146.088-.204.029-.088.088-.205.117-.293 0-.029.029-.058.029-.117.029-.117.088-.234.117-.351 0-.029 0-.029.029-.058.03-.117.088-.234.117-.351v-.029c1.111-3.538.731-5.965.322-8.509-.409-2.515-.819-5.058.292-8.392ZM141.257 137.456s.848-1.257 2.486-3.012c-.205-.818-.439-1.257-.439-1.257-.146.205-1.462 1.784-3.421 3.187-1.491 2.807-4.62 4.152-7.28 3.831-.79.672-2.135 1.579-2.135 1.579l-.38 1.637c4.649.79 7.836 3.099 9.327 4.415 1.842-2.222 2.983-4.298 3.655-6.111-.731.409-1.491.819-2.222 1.257 0 0 .877-.789 2.486-1.959a15.84 15.84 0 0 0 .584-2.485c-1.345.76-2.69 1.55-4.035 2.398 0 0 1.491-1.462 4.123-3.48.029-.789 0-1.491-.088-2.076a33.17 33.17 0 0 0-2.661 2.076Z" fill="#fff"/><path d="M146.111 102.31c-6.52-3.129-18.977-15.322-18.977-15.322-.029-.029-.058-.029-.087-.058-.029-.03-.088-.059-.146-.088-.936-.526-4.036-1.988-9.269-1.784.35.322.672.673.994.995 2.719 2.953 4.561 6.345 5.965 9.62v.029c.117.292.234.555.35.848 0 .029.03.058.03.058.117.263.204.526.321.79 0 .029.03.058.03.087.087.264.204.527.292.79 0 .03.029.058.029.088.088.263.176.526.293.76 0 .029.029.058.029.058.088.263.175.527.263.76-13.129-23.567-35.058-18.83-42.865-15.146 0 0 .847 1.111 2.631 2.281.146.088.263.175.41.263.029 0 .029.03.058.03l.439.263c.029 0 .058.029.058.029.146.088.292.175.468.263.03 0 .058.03.058.03.147.087.322.175.497.233.03 0 .03.03.059.03.175.087.35.175.556.263-12.778-1.053-23.07-7.077-29.62-10.293 0 0 5.994 13.158 22.807 15.556 0 0-2.983 2.193-8.246 2.193 1.784 1.608 4.123 2.397 4.123 2.397-6.93 2.72-12.076-.877-12.076-.877 1.082-.672 1.783-1.55 1.783-1.55s-3.713-1.374-6.52-5.935c.614.146 1.433.117 1.433.117-3.246-3.45-4.152-8.07-4.152-8.07-1.14 12.397 6.432 20.964 14.386 23.83l-5.907-.965c-1.637 2.485-8.918 13.158-18.509 20.526-.292 7.544 1.755 13.948 3.51 18.012l.73-3.801 2.456 5.555c.03.059 3.304 7.223 11.462 13.919 3.948 3.245 8.421 5.848 13.275 7.777-4.21-3.187-5.906-6.111-6.052-6.345l-2.749-4.883 5.146 2.193c.088.029 5.263 2.193 11.345 2.895a12.657 12.657 0 0 1-.935-.38c-8.041-3.304-13.48-8.743-15.907-15.877-.205.468-.702 1.666-.994 3.421-3.421-1.608-12.427-20.497 1.023-35.527-8.567 16.638-2.047 26.696-2.047 26.696.351-.76.849-1.608 1.463-2.28 7.602 12.953 20.672 3.889 31.929 12.368-.029-.029-.029-.058-.058-.088-.059-.087-.117-.175-.205-.263l-.029-.029-.175-.263c-.03-.029-.03-.059-.059-.088l-.175-.263c-.03-.029-.059-.088-.088-.117l-.176-.263a.622.622 0 0 0-.087-.146 1.159 1.159 0 0 1-.146-.264c-.03-.058-.088-.146-.117-.204-.059-.088-.088-.176-.147-.263-.058-.088-.087-.147-.146-.234-.058-.088-.088-.176-.146-.263-.058-.088-.088-.176-.146-.293-.059-.088-.088-.175-.146-.263-.059-.117-.117-.205-.147-.322-.029-.087-.087-.175-.117-.263l-.175-.351c-.03-.087-.088-.175-.117-.263-.058-.117-.117-.263-.175-.38-.03-.088-.088-.175-.117-.263-.059-.146-.117-.293-.176-.41-.03-.087-.087-.175-.117-.263l-.175-.438c-.03-.088-.059-.176-.117-.293a9.26 9.26 0 0 1-.176-.497l-.087-.263c-.059-.175-.117-.38-.176-.555l-.087-.264a29.856 29.856 0 0 1-.264-.848 16.99 16.99 0 0 1-.73-3.04c-13.246-2.808-23.977-2.193-23.977-2.193 8.713-2.515 17.046-1.667 23.772.146-.03-.673 0-1.316.058-1.93-15.702-4.181-28.48-3.714-28.48-3.714 11.024-2.426 21.053-.877 28.86 1.667a9.783 9.783 0 0 1 .556-1.637c-15.38-5.497-27.252-6.872-27.252-6.872 10.76-1.14 20.644 1.492 28.305 4.796.38-.585.847-1.17 1.374-1.725-12.193-5.468-23.012-6.638-23.012-6.638 10.41-1.52 18.918 1.462 25 5.029 2.953-1.783 7.076-2.105 11.784 1.667-2.456-.906-5.497-1.023-8.334.585 4.649 3.362 7.164 6.549 7.164 6.549-2.895-2.105-5.877-3.888-8.83-5.409-.527.439-1.053.965-1.55 1.579 7.632 3.801 12.31 7.778 12.31 7.778a131.325 131.325 0 0 0-13.333-6.024 8.937 8.937 0 0 0-.498 1.638c7.983 3.158 12.837 6.93 12.837 6.93-4.386-2.106-8.801-3.772-13.07-5.088-.03.673 0 1.374.087 2.076 6.959 2.427 11.375 5.497 11.375 5.497a80.408 80.408 0 0 0-11.053-3.713c.468 1.9 1.374 3.889 2.69 5.789.029.029.029.059.058.088.117.175.234.321.351.497.03.029.059.058.059.088.146.175.292.38.438.555.03.059.088.088.117.146.117.147.234.264.351.41.059.058.117.146.176.204.087.117.204.234.292.322.059.059.117.146.205.205.087.087.175.175.263.292 4.035-1.93 10.848-4.181 20.175-3.655l.351-1.491-1.871-2.485s-4.942-.614-5.322-6.024c-.935-.731-1.959-1.433-2.982-2.134l-.731-3.802 1.608 2.983s3.041 1.813 7.368 2.456c0 0-.438-1.462-1.023-3.538 2.251 3.304 2.895 3.918 2.895 3.918.087.059.204.146.292.205.029.029.059.029.088.058l.263.176c.029 0 .029.029.059.029.116.059.204.117.321.175.029.03.059.03.088.059.088.058.175.088.263.117.029.029.058.029.088.058.117.059.234.117.351.147.029.029.087.029.117.058.087.029.175.059.263.117.058.029.087.029.146.059.117.029.234.087.38.116.029 0 .088.03.117.03l.263.087c.059.03.117.03.176.059.087.029.204.058.292.088.058.029.146.029.205.058.087.029.204.029.292.059.059 0 .117.029.176.029.087.029.175.029.263.058 3.508.614 7.573-.087 9.503-3.158-10-13.713-7.69-20.263-7.369-21.052.029-.059.029-.088.029-.088.117 1.608.79 2.719.79 2.719s1.608-5.526 5.38-6.725c-1.404 1.696-1.988 3.1-2.222 3.889-.117.439-.146.673-.146.673.497-.293.994-.556 1.491-.79 3.158-1.52 6.491-1.959 6.491-1.959l.643-1.374c.263-.556.41-1.141.468-1.755.41-.906.439-2.076.234-2.865Zm-36.345-2.368s3.421 1.432 5.409 3.421c0 0 .205-.79.147-1.316 2.397 2.017 1.842 6.608 3.976 9.327-1.433-.234-2.573-3.83-2.573-3.83s-.117.497-.643 1.199c-1.141-5.761-6.316-8.801-6.316-8.801Zm8.597 17.543c-3.188 4.035-12.223 3.158-18.714-.935 7.485 2.69 11.754.614 11.754.614s-3.07-.146-4.707-1.316c4.591.409 5.965-2.31 5.965-2.31s-1.024-.497-2.661-1.374a3.135 3.135 0 0 1-2.895 1.637 3.122 3.122 0 0 1-2.514-1.52 3.075 3.075 0 0 1-.41-1.199c-.029-.176-.029-.38-.029-.556 0-.087.029-.175.029-.263l3.158.439s-2.076-1.141-3.976-2.281a45.853 45.853 0 0 1-2.047-1.257s-1.024 3.011 1.052 6.666c-4.736-3.245-4.18-8.684-4.18-8.684a43.966 43.966 0 0 1-1.492-1.023c-.088-.059-.176-.117-.234-.176-.175-.117-.322-.234-.497-.351-.468-.35-.936-.672-1.404-1.023-.029 0-.029-.029-.058-.029a5.666 5.666 0 0 1-.497-.38c-.088-.059-.146-.117-.234-.176-.439-.321-.848-.672-1.287-1.023-.029-.029-.087-.059-.117-.088-.204-.175-.409-.321-.584-.497-.03-.029-.059-.029-.088-.058-1.316-1.112-2.544-2.252-3.597-3.392a8.484 8.484 0 0 1-.497-.556c26.375 18.655 18.597 8.158 15.088 4.094 6.842 4.561 5.789 8.801 11.462 12.368 0 0-.497-.614-.877-1.579a1.96 1.96 0 0 1-.088-.234c0-.029 0-.029-.029-.058a.55.55 0 0 1-.059-.205c0-.029-.029-.058-.029-.087-.029-.088-.058-.205-.088-.293-.029-.058-.029-.146-.058-.205 0-.058-.029-.087-.029-.146 0-.058-.03-.146-.03-.204 0-.059 0-.088-.029-.147 0-.087-.029-.175-.029-.263v-.117c0-.117-.029-.263-.029-.38 3.976 5.819 6.637 4.035 6.637 4.035s.059.322.059.76c0 .556-.03 1.082-.147 1.55.264 4.152 1.755 6.579 1.755 6.579-1.257-1.52-2.105-2.836-2.719-4.357Zm15.292-8.508c1.316-3.246.643-3.304 2.222-6.024.059.468.176.79.176.79 1.52-1.959 3.479-2.398 3.479-2.398s-3.333 1.667-3.83 5.819a4.748 4.748 0 0 1-.439-.644s-.555 1.375-1.608 2.457ZM140.906 94.62s5.527-4.825 5.147-12.749c-4.913 4.123-13.568 4.854-13.568 4.854 3.509 5 8.421 7.895 8.421 7.895Z" fill="#fff"/><path d="M140.907 94.62s5.527-4.825 5.147-12.749c-4.913 4.123-13.568 4.854-13.568 4.854 3.509 5 8.421 7.895 8.421 7.895ZM141.375 114.035c-.351.497-.761.965-1.17 1.374-.438.41-.906.702-1.345.907-1.491 1.111-3.129 1.403-3.129 1.403 1.199 2.983 3.509 7.661 7.164 11.082.497-1.14.848-2.193 1.082-3.158.439-5-3.158-9.883.322-15.76v-.029a6.725 6.725 0 0 0-.819.117c-.029.029-.38 2.748-2.105 4.064Z" fill="#D4AE7D"/><path d="M146.112 102.31c-6.521-3.129-18.977-15.322-18.977-15.322-.058-.029-.117-.087-.234-.146-2.105-.526-5.555-1.17-8.274-.76 3.976 4.298 6.081 9.59 7.602 13.889-14.795-22.018-35.702-15.877-41.345-13.684.848.701 2.105 1.52 3.713 2.222-12.777-1.053-23.07-7.076-29.62-10.293 0 0 5.995 13.158 22.807 15.556 0 0-2.982 2.193-8.245 2.193 1.783 1.608 4.123 2.398 4.123 2.398-1.492 3.713-5.878 5.467-5.878 5.467l.76 2.047h-.029l-3.918-.643c-1.286 2.017-8.918 13.538-18.8 21.199 0 0-.06 9.356 1.841 16.988l.731-3.772 2.456 5.556c.03.058 3.304 7.222 11.462 13.918 3.948 3.245 8.421 5.848 13.275 7.778-4.21-3.188-5.906-6.112-6.052-6.345l-2.749-4.884 5.146 2.193c.088.03 5.263 2.193 11.345 2.895a12.655 12.655 0 0 1-.935-.38c-8.041-3.304-13.48-8.743-15.907-15.877-.205.468-.702 1.667-.994 3.421-3.421-1.608-12.427-20.497 1.023-35.526 0 0-4.561 13.479-1.14 21.754 0 0 .76-.848 1.696-1.725 3.977 15.76 18.596 4.941 30.702 16.696-1.024-1.404-2.866-4.386-4.182-8.948a16.97 16.97 0 0 1-.73-3.041c-13.246-2.807-23.977-2.192-23.977-2.192 8.713-2.515 17.047-1.667 23.772.146-.03-.673 0-1.316.058-1.93-15.702-4.181-28.48-3.714-28.48-3.714 11.024-2.426 21.053-.877 28.86 1.667a9.783 9.783 0 0 1 .556-1.637c-15.38-5.497-27.252-6.872-27.252-6.872 10.76-1.14 20.644 1.492 28.304 4.796.38-.585.849-1.17 1.375-1.725-12.193-5.468-23.012-6.638-23.012-6.638 10.41-1.52 18.918 1.462 25 5.029 2.953-1.783 7.076-2.105 11.784 1.667.614.38 1.871 1.345 1.871 1.345l1.608 2.982s3.041 1.813 7.369 2.457c0 0-.439-1.462-1.024-3.538 2.252 3.304 2.895 3.918 2.895 3.918 1.199.848 2.895 1.52 4.737 1.813 1.871-.059 6.286-.527 8.07-3.275-1.053-1.696-9.62-13.538-6.082-20.965.029-.059.029-.088.029-.088.117 1.608.79 2.719.79 2.719s.906-6.929 6.403-7.719c0 0-.438 1.023-.526 1.959 4.094-.497 5.643-3.304 6.199-5.029.029 0 .029 0 0 0Zm-30.936 1.023s.205-.789.146-1.315c2.398 2.017 1.843 6.608 3.977 9.327-1.433-.234-2.573-3.83-2.573-3.83s-.117.497-.643 1.198c-1.141-5.731-6.316-8.8-6.316-8.8s3.421 1.432 5.409 3.42Zm3.187 14.152c-3.187 4.035-12.222 3.158-18.713-.935 7.485 2.69 11.754.614 11.754.614s-3.07-.146-4.707-1.316h.058a8.001 8.001 0 0 1-2.456-.79 8.009 8.009 0 0 1-1.871-1.257v.029c-4.737-3.245-4.182-8.684-4.182-8.684-4.005-2.69-7.953-5.73-10.584-8.772.263.176 8.157 5.205 9.18 4.357 1.2-1.199-4.005-6.374-4.005-6.374 7.719 3.1 7.953 9.415 10.263 8.976.994-.204-.351-2.894-.351-2.894 5.936 2.368 7.924 7.836 10.585 10.789a6.161 6.161 0 0 1-.468-2.339c3.977 5.819 6.638 4.035 6.638 4.035s.058.322.058.76c0 .556-.029 1.082-.146 1.55.263 4.152 1.754 6.579 1.754 6.579-1.345-1.491-2.193-2.807-2.807-4.328Zm17.34-10.321c-.264-.322-.439-.644-.439-.644s-.526 1.375-1.579 2.457c1.316-3.246.643-3.304 2.222-6.024.059.468.176.79.176.79 1.52-1.959 3.479-2.398 3.479-2.398s-3.362 1.667-3.859 5.819Z" fill="#D4AE7D"/><path d="M116.082 108.713c.527-.701.644-1.198.644-1.198s1.14 3.596 2.573 3.83c-2.135-2.719-1.579-7.31-3.977-9.327.029.497-.146 1.315-.146 1.315-1.988-1.988-5.409-3.42-5.409-3.42s5.175 3.069 6.315 8.8Z" fill="#000"/><path d="M147.866 99.269s-2.632-1.433-4.152-2.866c8.538-10.409 4.122-19.97 4.122-19.97-7.485 7.427-19.064 7.076-19.064 7.076-1.783-.965-7.193-3.217-15.555-1.784-6.93-4.006-17.457-5.263-34.006-.058 0 0-9.445-1.375-22.076-9.883 0 0-9.357 18.655 5.35 32.31l.117.029c-2.602 3.742-9.298 12.778-17.456 18.83l-.701.527-.059.877c-.906 14.707 6.228 25.468 6.52 25.935l2.574 3.831.526-2.749c17.749 28.538 56.959 23.1 56.959 23.1s-2.427-4.737-2.193-10.38c0 0 3.421.964 6.725.731-.351.38-1.052.731-1.052.731s14.122 1.257 24.035-13.392c.263.292.526.585.789.906 0 0 6.053-5.906 7.69-13.245.088-.439.176-.878.234-1.316a12.99 12.99 0 0 0 .146-1.842c0-.527 0-1.053-.029-1.55a13.51 13.51 0 0 0-.292-1.901 13.755 13.755 0 0 0-.439-1.462 11.905 11.905 0 0 0-.936-2.076c2.193-5.292 1.638-8.742 1.141-11.813-.497-2.982-.907-5.555 1.433-9.707l.409-.965c.38-.877 1.433-6.637-.76-7.924Zm-1.813-17.398c.351 7.924-5.146 12.749-5.146 12.749s-4.913-2.866-8.392-7.895c-.029 0 8.626-.73 13.538-4.854Zm-21.228 77.807c.38-.906.672-2.193.672-2.193s-4.356 4.679-10.234 3.977c1.199-.673 1.989-2.135 1.989-2.135s-8.655.41-12.866-7.426a31.666 31.666 0 0 1 8.567-4.182c2.076-.292 4.123-.438 5.731-.263 9.094 4.445 12.983 1.228 12.983 1.228s1.93-.058 4.269 1.374c.029.03-4.562 7.427-11.111 9.62Zm19.21-22.251c-2.661 2.017-4.123 3.479-4.123 3.479a97.744 97.744 0 0 1 4.036-2.397c-.117.76-.293 1.608-.585 2.485-1.608 1.17-2.486 1.959-2.486 1.959.731-.438 1.492-.848 2.223-1.257-.702 1.813-1.842 3.889-3.655 6.111a18.95 18.95 0 0 0-9.328-4.415l.38-1.638s1.345-.906 2.135-1.579c2.69.322 5.789-1.052 7.28-3.83 1.93-1.403 3.246-2.982 3.422-3.187 0 0 .233.438.438 1.257-1.637 1.755-2.485 3.012-2.485 3.012a44.798 44.798 0 0 1 2.661-2.135c.087.614.117 1.316.087 2.135Zm-1.14-8.597c-3.655-3.421-5.965-8.099-7.164-11.081 0 0 1.638-.293 3.158-1.404-3.275.585-3.801-.322-3.801-.322-.234-.731-.38-1.14-.38-1.14s.555-.731 1.637-1.637c.322.526.877.906 1.521.994.292.029.468 0 .672-.029.936-.176 1.638-1.024 1.638-2.018 0-.146-.03-.292-.059-.439l-2.105.234s.76-.438 1.813-.906c.029 0 .029 0 .058-.029.146-.059.322-.147.497-.205.059-.029.088-.029.147-.059.058-.029.087-.029.146-.058.117-.029.204-.088.321-.117h.03c.146-.058.263-.088.409-.146 0 0 .731 1.783-.029 3.567 1.725-1.316 2.076-4.035 2.076-4.035.263-.029.555-.088.818-.117-1.14 3.363-.731 5.906-.321 8.392.468 3.012.935 5.848-1.082 10.555Zm3.333-23.713a5.167 5.167 0 0 1-.468 1.754l-.643 1.375s-3.333.438-6.491 1.959a18.51 18.51 0 0 0-1.491.789s.029-.234.146-.672c.234-.79.819-2.193 2.222-3.889-3.801 1.199-5.38 6.725-5.38 6.725s-.673-1.111-.789-2.719c0 0-3.363 6.462 7.309 21.14-2.894 4.591-10.614 3.86-14.064 1.374 0 0-.643-.614-2.895-3.918.585 2.076 1.024 3.538 1.024 3.538-4.298-.643-7.369-2.456-7.369-2.456l-1.608-2.982.731 3.801c.994.701 2.047 1.403 2.983 2.134.38 5.41 5.321 6.024 5.321 6.024l1.872 2.485-.351 1.491c-9.328-.497-16.17 1.755-20.176 3.655-.087-.088-.175-.175-.263-.292-.058-.059-.117-.146-.205-.205-.116-.117-.204-.234-.292-.322-.058-.058-.117-.146-.175-.204a4.976 4.976 0 0 1-.351-.41c-.029-.058-.088-.087-.117-.146-.146-.175-.293-.351-.439-.555-.029-.03-.058-.059-.058-.088-.117-.176-.234-.322-.351-.497-.029-.029-.029-.059-.059-.088-1.345-1.9-2.222-3.86-2.69-5.789a81.738 81.738 0 0 1 11.053 3.713s-4.444-3.07-11.374-5.497a12.462 12.462 0 0 1-.088-2.076c4.269 1.316 8.684 2.982 13.07 5.088 0 0-4.854-3.772-12.836-6.93.117-.556.292-1.111.497-1.638a134.262 134.262 0 0 1 13.333 6.024s-4.678-3.977-12.31-7.778c.497-.614 1.024-1.111 1.55-1.579 2.953 1.521 5.936 3.304 8.83 5.409 0 0-2.514-3.187-7.163-6.549 2.836-1.608 5.877-1.491 8.333-.585-4.708-3.772-8.83-3.45-11.784-1.667-6.081-3.567-14.59-6.549-25-5.029 0 0 10.79 1.17 23.012 6.638-.526.555-.994 1.111-1.374 1.725-7.661-3.304-17.544-5.936-28.304-4.796 0 0 11.871 1.375 27.251 6.872-.204.526-.41 1.082-.555 1.637-7.807-2.544-17.807-4.093-28.86-1.667 0 0 12.778-.438 28.48 3.714-.059.643-.088 1.286-.059 1.93-6.725-1.813-15.058-2.632-23.772-.146 0 0 10.731-.615 23.977 2.193.146.994.41 1.988.73 3.04 1.346 4.62 3.246 7.632 4.241 9.006-11.258-8.479-24.357.585-31.93-12.368-.614.672-1.111 1.52-1.462 2.281 0 0-6.52-10.059 2.047-26.696-13.45 15.029-4.445 33.918-1.024 35.526.292-1.725.79-2.953.994-3.421 2.398 7.105 7.866 12.573 15.907 15.877.321.117.614.263.935.38-6.082-.702-11.257-2.836-11.345-2.895l-5.146-2.192 2.749 4.883c.146.233 1.842 3.187 6.052 6.345-4.883-1.93-9.327-4.533-13.275-7.778-8.157-6.696-11.432-13.831-11.462-13.918l-2.456-5.556-.73 3.801c-1.755-4.064-3.802-10.497-3.51-18.011 9.591-7.369 16.872-18.041 18.51-20.527l5.906.965c-7.983-2.865-15.556-11.433-14.386-23.83 0 0 .906 4.62 4.152 8.07 0 0-.819.03-1.433-.117 2.778 4.561 6.52 5.936 6.52 5.936s-.701.848-1.783 1.55c0 0 5.146 3.596 12.076.877 0 0-2.34-.79-4.123-2.398 5.263 0 8.246-2.193 8.246-2.193C65.234 91.374 59.21 78.216 59.21 78.216c6.55 3.246 16.842 9.24 29.62 10.293-3.538-1.52-5.234-3.684-5.234-3.684 7.807-3.685 29.737-8.422 42.865 15.146-1.637-4.679-3.947-10.468-8.567-14.913 5.819-.233 9.006 1.58 9.503 1.901 0 0 12.456 12.193 18.976 15.322-.058.818-.087 1.988-.146 2.836Z" fill="#000"/><path d="M119.532 113.713c0-.438-.058-.76-.058-.76s-2.632 1.784-6.637-4.035c.029 2.281 1.345 3.918 1.345 3.918-5.673-3.567-4.62-7.836-11.462-12.368 3.508 4.064 11.286 14.561-15.088-4.094 2.631 3.012 6.579 6.082 10.585 8.772 0 0-.556 5.439 4.181 8.684-2.076-3.655-1.053-6.666-1.053-6.666.556.351 1.287.789 2.047 1.257a141.209 141.209 0 0 0 3.977 2.281l-3.158-.439c0 .088-.029.176-.029.263 0 .176 0 .38.029.556.029.351.204.848.409 1.199a3.097 3.097 0 0 0 2.515 1.52 3.133 3.133 0 0 0 2.894-1.637 84.442 84.442 0 0 0 2.661 1.374s-1.374 2.719-5.965 2.31c1.609 1.17 4.708 1.316 4.708 1.316s-4.269 2.076-11.754-.614c6.52 4.093 15.555 4.97 18.713.935.614 1.521 1.462 2.837 2.778 4.357 0 0-1.491-2.456-1.755-6.579.059-.468.117-.994.117-1.55ZM136.053 103.772s-.117-.322-.176-.79c-1.578 2.72-.906 2.778-2.222 6.024 1.053-1.082 1.579-2.456 1.579-2.456s.176.321.439.643c.497-4.152 3.83-5.819 3.83-5.819s-1.93.439-3.45 2.398Z" fill="#000"/></svg>