<?xml version="1.0" encoding="UTF-8"?>
<svg width="200px" height="200px" viewBox="0 0 200 200" version="1.1" xmlns="http://www.w3.org/2000/svg" xmlns:xlink="http://www.w3.org/1999/xlink">
    <!-- Generator: Sketch 51.3 (57544) - http://www.bohemiancoding.com/sketch -->
    <title>smu</title>
    <desc>Created with Sketch.</desc>
    <defs></defs>
    <g id="smu" stroke="none" stroke-width="1" fill="none" fill-rule="evenodd">
        <g id="smu_BGL" transform="translate(0.000000, 48.756219)" fill="#E51636">
            <g id="smu">
                <g id="g10" transform="translate(99.999998, 51.863385) scale(-1, 1) rotate(-180.000000) translate(-99.999998, -51.863385) translate(0.000000, 0.347240)" fill-rule="nonzero">
                    <g id="g12">
                        <path d="M137.097123,3.30492296 C137.58218,3.30492296 138.133905,3.28112876 138.133905,3.92263854 C138.133905,4.43783985 137.712066,4.51344619 137.32241,4.51344619 L136.508617,4.51344619 L136.508617,3.30492296 L137.097123,3.30492296 Z M136.508617,1.25166018 L136.002295,1.25166018 L136.002295,4.93014635 L137.437353,4.93014635 C138.27241,4.93014635 138.645399,4.57259014 138.645399,3.91641107 C138.645399,3.26623177 138.209192,2.97605641 137.778157,2.88488707 L138.824134,1.25166018 L138.246548,1.25166018 L137.230456,2.88488707 L136.508617,2.88488707 L136.508617,1.25166018 Z M139.795399,2.84552987 C139.932755,4.45207082 138.758617,5.77954227 137.157468,5.77441912 C135.86379,5.76975136 134.640801,4.60750158 134.5431,3.33004918 C134.420686,1.72261452 135.592525,0.412698402 137.179882,0.41959132 C138.531031,0.425150509 139.681606,1.51137555 139.795399,2.84552987 Z M140.31264,3.09946177 C140.31264,1.39352596 138.909767,0.000667080005 137.167238,0.000667080005 C135.435629,0.000667080005 134.024135,1.39352596 134.024135,3.09946177 C134.024135,4.79650607 135.435629,6.19337916 137.167238,6.19337916 C138.909767,6.19337916 140.31264,4.79650607 140.31264,3.09946177 Z" id="path14"></path>
                        <path d="M126.548847,37.9973981 C125.461491,36.3788234 123.090802,32.8411158 122.657468,32.0332515 C122.222411,31.2256719 121.391951,29.9606517 123.777583,29.697834 C126.16379,29.4330239 129.374709,29.0038745 130.655744,29.242898 C132.093675,29.5106112 133.137928,30.1178755 132.149997,31.9127436 C131.42356,33.2293369 128.700571,37.3614441 128.308617,37.8759793 C127.91264,38.3934178 127.317238,39.1432196 126.548847,37.9973981 Z M107.887928,36.2149394 C108.179308,34.6188497 109.813216,34.4549658 111.411491,34.4440933 C113.502296,37.1417177 114.589652,39.6041326 115.159767,41.2629524 C114.848273,41.9460395 114.267813,43.7751757 113.904595,44.7272851 C113.539078,45.6799069 112.499422,45.2596376 111.429308,45.0768549 C103.981032,43.7880405 96.1545953,49.0884542 89.7511472,50.1397251 C87.419538,50.5188384 87.9149403,49.1680338 88.2149403,47.6793595 C88.515515,46.1884083 90.4729862,38.934195 92.0609172,35.1961152 C93.3310321,32.2058448 95.9413769,31.1585017 99.0040205,30.6284262 C102.780457,29.9738011 103.681032,27.5671717 105.617239,26.6130699 C106.408618,27.1377946 107.378733,28.2200321 107.696549,29.0085422 C107.311492,30.2448159 106.158618,30.3028783 104.736204,30.7924809 C102.258618,31.6457135 101.668963,32.6801349 100.551147,33.472402 C97.1316068,35.906981 97.9252849,37.8248047 99.7873538,37.6716225 C101.649423,37.5186679 105.058043,37.5270927 106.147698,37.6909766 C107.035055,37.8248047 107.59425,37.8117122 107.887928,36.2149394 Z M199.077007,58.9469936 C199.781604,57.9474096 199.509765,57.7624069 199.570685,56.6722 C199.651144,55.1984398 197.993673,54.9507069 196.930455,52.7291372 C196.344823,51.5078914 195.914363,50.8290737 194.548271,50.4306063 C193.182179,50.0319112 189.741375,50.8593003 188.324708,52.3717688 C186.906892,53.8865143 188.00057,55.8232367 187.317811,57.0383346 C185.754018,59.8241912 183.006317,60.873299 181.832179,61.9184221 C180.652869,62.962976 179.321835,63.3443662 177.651145,63.7604801 C173.022409,64.9109124 172.413214,67.3370098 170.75172,69.6509671 C169.089651,71.9649243 168.086777,71.5550721 167.505743,71.4173162 C160.297122,69.6634903 151.762065,66.4233809 147.827008,64.0297302 C141.177008,59.9835781 138.410341,55.3536144 137.10287,48.0884717 C140.344249,42.8705977 138.956318,41.249803 138.852295,39.1734462 C138.567238,33.6402706 140.751146,30.8783222 141.251146,29.4910294 C141.756318,28.1032812 141.71264,27.4504208 141.007468,26.6750601 C140.30287,25.897024 139.367238,24.4152375 138.240801,23.3854838 C137.118387,22.3535101 136.035054,22.8293941 134.947123,23.1049058 C129.23333,24.5484395 124.593675,25.1472791 118.99425,25.3847087 C115.218388,25.5439249 111.764365,21.8554258 110.811491,20.8257291 C109.85402,19.7959754 111.283331,19.149092 112.062066,18.6408184 C114.239652,17.218802 115.135629,15.4821671 117.001721,14.6596734 C118.870687,13.8364966 120.549997,13.2979395 121.498273,11.3801158 C122.179307,9.99703533 121.282756,8.83407969 120.5931,8.27155754 C121.493675,7.76032383 123.555744,6.15358934 124.510916,5.28947858 C125.46379,4.42761631 125.667813,2.63562292 124.349997,2.2218145 C123.036204,1.81022612 120.739077,1.18517304 119.403445,1.02574053 C117.763215,0.82762253 117.589078,1.90917696 117.258618,2.38101932 C115.803445,4.46230005 112.697124,7.68359039 109.98448,8.33354768 C105.138503,9.50162647 104.894825,12.0309838 101.758043,14.8188896 C99.9396527,16.4350166 99.6787331,15.0859766 97.4425263,13.3066488 C93.1396528,9.87851973 92.9701126,12.6257818 89.1459748,10.2878596 C82.8143657,6.42039174 82.5925267,8.82542726 82.9252853,9.83360676 C83.2517221,10.8417863 84.047699,12.3889783 85.5482737,15.4526236 C87.2454001,18.9187779 89.8752851,15.9562864 92.091377,17.9190231 C93.7988482,19.4314916 95.0718367,21.5297072 95.0718367,21.5297072 C91.9655149,24.7556994 91.1908023,23.1179983 85.1091933,23.3895254 C79.458044,23.643463 79.1752854,25.5826332 77.8827567,29.4956971 C74.548274,39.5872262 68.9212626,41.9631736 60.9511479,47.1816737 C54.2818377,51.5488197 57.1403434,53.7506369 53.1140217,57.6047276 C51.049539,59.5805568 51.0237344,60.8391446 50.5971826,62.9806224 C50.1751137,65.1221002 49.833447,65.1181155 47.9043091,65.4021659 C45.9727575,65.6890624 38.5333324,66.4535506 34.7049991,69.7500147 C30.5809762,73.3009287 30.5004015,71.8806769 25.6559764,71.650135 C9.9185055,70.9067087 0.295438498,81.7934079 0.010551379,87.45563 C-0.145922985,90.5409063 1.46776433,91.2194394 3.10367234,89.6916015 C4.7393562,88.164902 9.54247103,84.6179727 16.8227007,83.840392 C26.6067235,82.7975458 30.1066084,85.3875841 33.1216084,84.8485146 C39.0512634,83.7925759 38.7728726,81.1968453 42.0943093,76.1790019 C44.014884,73.2792976 55.7134469,78.2686789 57.327125,79.0872449 C64.7402283,82.8362541 73.0586189,87.7744039 86.9097679,85.6352031 C102.967239,83.157305 114.922411,86.0035009 121.025859,88.1688867 C125.722411,89.8322036 123.379882,90.1959474 122.287928,90.9934515 C121.200572,91.7881094 117.828733,94.2079451 118.527009,95.6532434 C119.566664,97.8100906 131.621836,91.3378412 133.498847,93.6347212 C134.382181,94.7185526 125.237353,99.2041573 127.403445,101.826073 C129.557468,104.428634 132.471836,99.0874633 139.898272,97.0387715 C144.12241,95.871262 145.597123,95.3583775 146.147697,96.0346336 C147.25287,97.4008076 145.06264,98.3878684 146.171835,99.3698059 C147.64195,100.671087 151.701146,97.6854272 155.233329,96.1274196 C158.966088,94.4834569 154.994249,100.548131 161.524134,96.1120501 C166.362065,92.8286786 169.64195,92.3954876 173.229306,92.3590563 C175.567812,92.3357175 174.71034,93.1093135 175.036777,94.7851536 C175.363214,96.4655477 176.328731,101.321727 177.542524,102.114677 C179.963789,103.681223 180.35057,98.3167135 181.096547,94.4014864 C181.8408,90.4891056 183.52011,87.7208955 187.883329,83.8682847 C191.241949,80.905964 190.817811,78.8874419 191.707466,75.9587064 C193.223558,70.9630634 194.694248,65.143162 199.077007,58.9469936 Z" id="path16"></path>
                    </g>
                </g>
            </g>
        </g>
    </g>
</svg>