<svg width="200" height="200" xmlns="http://www.w3.org/2000/svg"><path d="M137.097 148.83c.485 0 1.037.025 1.037-.617 0-.515-.422-.59-.812-.59h-.813v1.208h.588zm-.588 2.054h-.507v-3.678h1.435c.835 0 1.208.357 1.208 1.013 0 .65-.436.94-.867 1.032l1.046 1.633h-.577l-1.017-1.633h-.721v1.633zm3.286-1.594c.138-1.606-1.036-2.934-2.638-2.929-1.293.005-2.516 1.167-2.614 2.445-.122 1.607 1.05 2.917 2.637 2.91 1.351-.005 2.502-1.092 2.615-2.426zm.518-.254c0 1.706-1.403 3.1-3.146 3.1-1.731 0-3.143-1.394-3.143-3.1 0-1.697 1.412-3.094 3.143-3.094 1.743 0 3.146 1.397 3.146 3.094zm-13.764-34.898c-1.088 1.619-3.458 5.157-3.892 5.964-.435.808-1.265 2.073 1.12 2.336 2.387.265 5.598.694 6.879.455 1.438-.268 2.482-.875 1.494-2.67-.726-1.317-3.45-5.449-3.841-5.963-.396-.518-.992-1.267-1.76-.122zm-18.661 1.783c.291 1.596 1.925 1.76 3.523 1.77 2.091-2.697 3.179-5.16 3.749-6.818-.312-.683-.892-2.512-1.255-3.465-.366-.952-1.406-.532-2.476-.35-7.448 1.29-15.274-4.01-21.678-5.062-2.331-.38-1.836.972-1.536 2.46.3 1.491 2.258 8.746 3.846 12.484 1.27 2.99 3.88 4.037 6.943 4.567 3.776.655 4.677 3.062 6.613 4.016.792-.525 1.762-1.607 2.08-2.396-.386-1.236-1.538-1.294-2.96-1.784-2.478-.853-3.068-1.887-4.186-2.68-3.42-2.434-2.626-4.352-.764-4.199 1.862.153 5.271.145 6.36-.02.888-.133 1.447-.12 1.74 1.477zm91.189-22.732c.705 1 .433 1.184.494 2.275.08 1.473-1.577 1.721-2.64 3.943-.586 1.22-1.017 1.9-2.383 2.298-1.366.399-4.807-.429-6.223-1.941-1.418-1.515-.324-3.451-1.007-4.667-1.564-2.785-4.312-3.835-5.486-4.88-1.18-1.044-2.51-1.426-4.18-1.842-4.63-1.15-5.239-3.576-6.9-5.89-1.662-2.314-2.665-1.904-3.246-1.767-7.209 1.754-15.744 4.994-19.679 7.388-6.65 4.046-9.417 8.676-10.724 15.941 3.241 5.218 1.853 6.839 1.75 8.915-.286 5.533 1.898 8.295 2.398 9.683.505 1.387.462 2.04-.244 2.816-.704.778-1.64 2.26-2.766 3.29-1.123 1.031-2.206.555-3.294.28-5.714-1.444-10.353-2.043-15.953-2.28-3.776-.16-7.23 3.53-8.183 4.559-.957 1.03.472 1.677 1.251 2.185 2.178 1.422 3.074 3.159 4.94 3.981 1.869.823 3.548 1.362 4.496 3.28.681 1.383-.215 2.546-.905 3.108.9.511 2.963 2.118 3.918 2.982.953.862 1.157 2.654-.161 3.068-1.314.412-3.61 1.037-4.947 1.196-1.64.198-1.814-.883-2.144-1.355-1.456-2.082-4.562-5.303-7.275-5.953-4.845-1.168-5.09-3.697-8.226-6.485-1.818-1.616-2.08-.267-4.315 1.512-4.303 3.428-4.473.681-8.297 3.019-6.332 3.867-6.553 1.462-6.22.454.326-1.008 1.122-2.555 2.622-5.619 1.697-3.466 4.327-.504 6.543-2.466 1.708-1.513 2.98-3.611 2.98-3.611-3.105-3.226-3.88-1.588-9.962-1.86-5.651-.254-5.934-2.193-7.226-6.106-3.335-10.091-8.962-12.467-16.932-17.686-6.67-4.367-3.81-6.569-7.837-10.423-2.064-1.976-2.09-3.234-2.517-5.376-.422-2.141-.764-2.137-2.693-2.421-1.931-.287-9.37-1.052-13.199-4.348-4.124-3.551-4.205-2.13-9.049-1.9C9.919 81.229.296 70.342.011 64.68c-.157-3.085 1.457-3.764 3.093-2.236 1.635 1.527 6.438 5.074 13.719 5.851 9.784 1.043 13.284-1.547 16.299-1.008 5.93 1.056 5.65 3.652 8.972 8.67 1.92 2.9 13.62-2.09 15.233-2.908C64.74 69.299 73.06 64.36 86.91 66.5c16.057 2.477 28.012-.369 34.116-2.534 4.696-1.663 2.354-2.027 1.262-2.825-1.087-.794-4.46-3.214-3.761-4.66 1.04-2.156 13.095 4.316 14.972 2.019.883-1.084-8.262-5.57-6.096-8.191 2.154-2.603 5.069 2.738 12.495 4.787 4.224 1.167 5.7 1.68 6.25 1.004 1.105-1.366-1.085-2.353.024-3.335 1.47-1.301 5.53 1.684 9.061 3.242 3.733 1.644-.239-4.42 6.291.016 4.838 3.283 8.118 3.716 11.705 3.753 2.339.023 1.481-.75 1.808-2.426.326-1.68 1.292-6.537 2.506-7.33 2.42-1.566 2.808 3.798 3.554 7.713.744 3.913 2.423 6.68 6.786 10.533 3.359 2.963 2.935 4.981 3.824 7.91 1.517 4.996 2.987 10.816 7.37 17.012z" fill="#E51636"/></svg>