<svg width="200" height="201" fill="none" xmlns="http://www.w3.org/2000/svg"><g clip-path="url(#a)" fill="#A80000"><path d="M199.481 92.17c.692 1.038.461 1.21.519 2.306.058 1.498-1.556 1.729-2.651 3.976-.576 1.21-1.038 1.902-2.363 2.306-1.383.403-4.841-.461-6.225-1.96-1.44-1.556-.345-3.515-1.037-4.726-1.556-2.824-4.322-3.861-5.475-4.956-1.21-1.038-2.536-1.441-4.207-1.844-4.669-1.153-5.245-3.631-6.916-5.937-1.672-2.363-2.652-1.902-3.228-1.786-7.204 1.786-15.791 5.071-19.711 7.492-6.685 4.092-9.451 8.76-10.777 16.137 3.227 5.303 1.844 6.916 1.729 9.049-.288 5.59 1.902 8.414 2.421 9.798.518 1.383.461 2.074-.231 2.824-.692.806-1.671 2.305-2.766 3.342-1.153 1.038-2.19.577-3.285.289-5.706-1.441-10.375-2.075-16.023-2.306-3.803-.173-7.261 3.573-8.184 4.611-.979 1.037.461 1.671 1.268 2.19 2.19 1.441 3.055 3.17 4.957 4.034 1.902.807 3.573 1.384 4.495 3.343.692 1.383-.23 2.594-.922 3.17.922.519 2.997 2.132 3.919 2.997.98.864 1.153 2.709-.173 3.112-1.325.403-3.631 1.037-4.956 1.21-1.672.173-1.844-.922-2.133-1.383-1.44-2.132-4.553-5.36-7.319-6.051-4.841-1.211-5.129-3.747-8.242-6.571-1.844-1.613-2.075-.288-4.322 1.557-4.323 3.458-4.496.691-8.3 3.054-6.34 3.919-6.57 1.499-6.224.461.346-1.037 1.153-2.593 2.651-5.706 1.73-3.515 4.323-.518 6.57-2.478 1.73-1.556 2.997-3.631 2.997-3.631-3.112-3.285-3.919-1.613-9.97-1.902-5.648-.23-5.936-2.247-7.262-6.166-3.343-10.202-8.99-12.622-17.002-17.924-6.685-4.438-3.804-6.628-7.838-10.547-2.075-2.018-2.075-3.285-2.536-5.418-.403-2.19-.75-2.19-2.709-2.478-1.96-.288-9.394-1.038-13.255-4.38-4.15-3.574-4.208-2.133-9.049-1.902C9.924 80.125.3 69.117.012 63.354c-.173-3.113 1.44-3.804 3.112-2.248 1.613 1.556 6.455 5.13 13.774 5.936 9.798 1.037 13.314-1.556 16.368-1.037 5.936 1.095 5.648 3.688 8.99 8.76 1.903 2.94 13.66-2.132 15.274-2.94 7.435-3.803 15.791-8.817 29.681-6.627 16.08 2.536 28.068-.346 34.234-2.594 4.726-1.671 2.363-2.075 1.268-2.881-1.095-.807-4.495-3.228-3.746-4.726 1.038-2.19 13.141 4.38 15.043 2.017.864-1.095-8.3-5.648-6.11-8.3 2.133-2.65 5.072 2.767 12.507 4.842 4.265 1.21 5.706 1.729 6.282 1.037 1.095-1.383-1.095-2.363 0-3.4 1.498-1.326 5.533 1.729 9.106 3.285 3.746 1.671-.23-4.495 6.282 0 4.841 3.343 8.126 3.746 11.757 3.804 2.363 0 1.499-.75 1.787-2.478.346-1.73 1.268-6.628 2.536-7.435 2.42-1.614 2.824 3.861 3.573 7.78.749 3.977 2.421 6.743 6.801 10.663 3.343 2.997 2.939 5.071 3.861 8.01 1.499 5.072 2.997 10.951 7.377 17.233l-.288.115Zm-91.464 22.996c.288 1.614 1.902 1.787 3.515 1.787 2.075-2.709 3.17-5.245 3.747-6.916-.289-.692-.922-2.536-1.268-3.516s-1.383-.519-2.479-.346c-7.492 1.326-15.33-4.034-21.727-5.129-2.363-.403-1.845.98-1.556 2.478.288 1.499 2.247 8.876 3.861 12.622 1.268 3.055 3.919 4.092 6.974 4.611 3.803.691 4.668 3.112 6.627 4.092.807-.519 1.787-1.614 2.075-2.421-.403-1.268-1.556-1.326-2.997-1.787-2.478-.864-3.054-1.902-4.207-2.708-3.4-2.479-2.651-4.381-.75-4.265 1.845.173 5.303.173 6.398 0 .865-.116 1.441-.116 1.729 1.498h.058Zm18.731-1.786c-1.095 1.613-3.458 5.244-3.919 6.051-.461.807-1.268 2.075 1.095 2.363 2.42.288 5.59.692 6.916.461 1.441-.288 2.478-.864 1.498-2.709-.749-1.325-3.458-5.533-3.861-6.051-.404-.519-.98-1.268-1.787-.115h.058ZM140.522 148.709c0 1.729-1.383 3.112-3.17 3.112-1.786 0-3.17-1.383-3.17-3.112s1.441-3.112 3.17-3.112c1.729 0 3.17 1.441 3.17 3.112Zm-.519.23c.116-1.613-1.037-2.997-2.651-2.939-1.613.058-2.536 1.153-2.593 2.478-.058 1.326 1.037 2.94 2.651 2.94 1.614 0 2.536-1.095 2.651-2.479h-.058Zm-3.285 1.614h-.518v-3.746h1.441c.864 0 1.21.346 1.21 1.037 0 .692-.461.98-.865 1.038l1.038 1.671h-.577l-1.037-1.671h-.749v1.671h.057Zm.577-2.075c.461 0 1.037 0 1.037-.634s-.403-.576-.807-.576h-.807v1.21h.577Z"/></g><defs><clipPath id="a"><path fill="#fff" transform="translate(0 48)" d="M0 0h200v103.821H0z"/></clipPath></defs></svg>