<?xml version="1.0" encoding="UTF-8"?>
<svg width="200px" height="200px" viewBox="0 0 200 200" version="1.1" xmlns="http://www.w3.org/2000/svg" xmlns:xlink="http://www.w3.org/1999/xlink">
    <!-- Generator: Sketch 51.3 (57544) - http://www.bohemiancoding.com/sketch -->
    <title>southeast-mo-st</title>
    <desc>Created with Sketch.</desc>
    <defs></defs>
    <g id="southeast-mo-st" stroke="none" stroke-width="1" fill="none" fill-rule="evenodd">
        <g id="southeast-mo-st_BGL" transform="translate(0.000000, 24.875622)">
            <g id="southeast-mo-st">
                <g id="g10" transform="translate(99.934251, 75.505881) scale(-1, 1) rotate(-180.000000) translate(-99.934251, -75.505881) translate(0.000000, 0.000002)" fill-rule="nonzero">
                    <g id="g12">
                        <path d="M128.352922,55.1161563 C135.2426,56.6017149 143.930042,58.1635631 152.164099,58.7623848 C154.166466,57.631103 160.876788,54.720077 171.476656,58.8480801 L172.049437,55.1161563 L128.352922,55.1161563 Z M193.146609,17.4619755 C193.959232,19.0948881 194.433131,20.9739655 194.433131,23.0751191 C194.433131,25.7755124 193.737799,28.1651036 192.370278,30.2190725 C192.389739,33.5471835 192.438128,41.682328 192.438128,41.6876578 C192.438128,42.4028474 192.155682,42.8894815 191.782244,43.1966781 C190.675077,44.2192733 187.964229,46.278572 183.63392,46.7921165 L185.370673,55.3089706 L177.789871,55.3089706 C180.523335,57.753898 183.983164,62.7832688 183.983164,72.5838796 C183.983164,73.8562451 183.924782,75.2090806 183.799075,76.6470887 L183.796971,76.6706026 L183.794341,76.6941166 C183.779088,76.8289299 183.389345,80.0346639 180.841021,83.5418989 C178.655091,86.5495933 174.397892,90.3891586 166.423664,92.0351345 C165.834578,94.0865953 164.14569,98.1842915 159.426163,102.755924 C155.673369,106.39118 150.727149,109.639239 144.725835,112.409704 C137.319129,115.828631 128.251936,118.536914 117.777249,120.458787 L117.752002,120.464012 L117.726756,120.46767 C117.294935,120.534554 74.3184728,127.230802 47.3806168,135.137757 L47.3578423,135.14455 L47.3331744,135.15082 C36.5935034,138.003323 30.3698086,143.818582 24.8795786,150.621949 C25.4070211,144.487423 27.8498875,139.185813 30.4643253,134.134495 C32.7352523,129.747316 36.3459294,123.746559 41.3202883,118.288711 C36.5271786,118.05723 28.5807225,117.304261 21.7628397,114.901136 L16.5666268,113.070184 L21.8234314,111.416893 C22.0023663,111.360982 37.5174744,106.432982 48.9226023,99.1635165 C47.0087562,99.1023803 44.72468,98.9320348 42.1694138,98.559992 C35.199105,97.5468024 24.7962124,94.7700672 14.8204073,87.2999493 L10.7123206,84.2238032 L9.55660726,83.2607766 C8.48105173,83.4164912 7.37814577,83.5946746 6.24694264,83.7979396 L0,84.9203384 L4.66243249,80.639756 C8.56878348,77.0536186 14.7721232,71.7755226 22.1392236,66.9985347 C29.6268763,62.1436896 36.6337926,58.9045135 43.0337925,57.330647 C42.270926,56.7469788 41.4038648,56.0692547 40.458592,55.3089706 L9.41569996,55.3089706 C9.41569996,55.3089706 10.6989609,49.0151245 11.201525,46.5498707 C8.33393799,46.5408831 0.0606095974,46.5147565 0.0606095974,46.5147565 L0.523709652,44.3090965 L2.43897956,35.1721014 C2.43897956,35.1721014 2.98755022,35.1721014 3.43318335,35.1721014 C3.43318335,32.6163972 3.43318335,24.6306447 3.43318335,22.0749405 C2.98755022,22.0749405 2.43897956,22.0749405 2.43897956,22.0749405 L0.0595823785,10.726015 L24.0990921,10.726015 C24.0990921,8.35314482 24.0990921,0 24.0990921,0 C24.0990921,0 35.2254035,9.9693364 36.1676257,10.8127554 C36.8238255,10.8127554 37.7658373,10.8127554 39.0639306,10.8127554 C39.0639306,10.370223 39.0639306,9.82564009 39.0639306,9.82564009 L50.4879409,7.46118264 C50.4879409,7.46118264 50.4879409,10.2489955 50.4879409,10.6810773 C52.7863235,10.6670212 57.3159749,10.6392225 57.3159749,10.6392225 C59.3562115,10.6392225 61.3627861,10.9846161 63.2631148,11.6400281 C63.1700181,11.1972867 63.0711358,10.726015 63.0711358,10.726015 C63.0711358,10.726015 89.5705435,10.726015 90.4410234,10.726015 C91.1700174,10.350837 100.786848,5.39880096 100.786848,5.39880096 C100.786848,5.39880096 102.73241,12.0380407 103.262588,13.8464718 C104.049439,13.8464718 104.356605,13.8464718 105.207098,13.8464718 C105.663114,12.034383 107.36147,5.28859896 107.36147,5.28859896 C107.36147,5.28859896 117.161338,10.3200076 119.581851,11.5636861 C120.544376,9.74788733 123.786453,3.62894317 123.786453,3.62894317 C123.786453,3.62894317 128.132541,11.8614771 129.886124,15.1832133 C131.639181,11.8614771 135.985269,3.62894317 135.985269,3.62894317 C135.985269,3.62894317 137.779878,7.01661239 139.745427,10.726015 L176.333986,10.7380333 C177.66469,10.3812484 179.150028,10.2055209 180.867846,10.2055209 C182.1449,10.2055209 183.430896,10.3832863 184.674815,10.726015 L199.750159,10.726015 L199.750159,17.4619755 L193.146609,17.4619755 Z" id="path14" fill="#FFFFFF"></path>
                        <path d="M169.958707,27.8885274 C169.958707,27.8885274 169.970278,26.2327279 169.98448,24.2293401 L163.607097,30.5627941 L169.991317,36.8583123 L170.362652,36.7658241 C170.198549,35.9997921 170.111238,35.2045506 170.111238,34.3883034 C170.111238,31.8724161 170.753447,29.7565794 172.086255,27.951388 C171.151607,27.9156468 169.958707,27.874419 169.958707,27.8885274 Z M93.5147906,29.9039335 L93.5147906,37.0099511 L94.8544355,37.0099511 L95.9642317,42.3036708 L100.162522,42.3036708 L93.5147906,29.9039335 Z M81.4485187,34.7195887 L80.470215,34.7195887 L80.470215,37.0673251 L81.4485187,37.0673251 L81.4485187,34.7195887 Z M81.4485187,20.2370908 L80.470215,20.2370908 L80.470215,23.6231507 L81.4485187,23.6231507 L81.4485187,20.2370908 Z M58.6587757,24.683943 L58.6587757,32.5631512 C59.7238644,32.0579673 61.1445087,30.7567057 61.1445087,28.624357 C61.1445087,26.5727917 59.8117013,25.2315565 58.6587757,24.683943 Z M188.649568,31.6205557 C189.413276,31.7950291 190.511501,32.0489797 190.511501,32.0663278 C190.511501,32.0663278 190.589344,41.8172458 190.588818,41.7905444 C189.287569,43.0180766 186.328463,45.0737177 181.609463,45.0737177 C181.536879,45.0737177 181.466399,45.0714708 181.395393,45.0704257 L183.108477,53.4712255 L114.507295,53.4712255 C114.552528,53.5281814 114.598814,53.5840924 114.643521,53.6410484 C114.643521,53.6410484 134.676131,59.4207752 152.606439,60.6299143 C152.606439,60.6299143 159.830634,55.4077292 172.926228,61.4529023 L173.923467,54.9536488 C173.923467,54.9536488 183.542402,58.3553324 181.956603,76.488239 C181.956603,76.488239 180.671133,87.7744083 164.888359,90.4560427 C164.888359,90.4560427 162.694013,110.348315 117.442206,118.651871 C117.442206,118.651871 74.228006,125.340804 46.8566984,133.375256 C46.8566984,133.375256 33.3587894,136.942583 27.8607751,144.714201 C27.8607751,144.714201 33.2753706,128.131647 45.607941,116.549202 C45.607941,116.549202 32.542537,116.7509 22.3812223,113.169465 C22.3812223,113.169465 43.3061922,106.59549 54.9101893,97.1449753 C54.9101893,97.1449753 34.6414718,99.8412406 15.9339904,85.8321568 C15.9339904,85.8321568 27.05662,85.3430668 37.3814586,82.7225687 C31.7985528,81.0039608 21.3991842,79.2085407 5.91779078,81.9894562 C13.0785533,75.4154807 30.845443,60.5750484 47.513582,58.341224 C47.513582,58.341224 44.8730035,56.5191548 41.1178951,53.4712255 L11.677738,53.4712255 L13.4623534,44.7193364 C9.01359609,44.7073182 2.33460612,44.6838565 2.33460612,44.6838565 L3.94354231,37.0099511 L5.28310309,37.0099511 L5.28310309,20.2370908 L3.94354231,20.2370908 L2.33460612,12.5642305 L25.9489803,12.6342498 L25.9489803,4.1326954 L35.456725,12.6509708 L40.913661,12.6509708 L40.913661,11.3201862 L48.6380001,9.72113369 L48.6380001,12.5303704 L57.3270203,12.4774902 C60.4423391,12.4774902 63.3546335,13.3533584 65.8298471,14.8687012 L65.3464809,12.5642305 L90.8923054,12.5642305 L99.6397082,8.05963858 L101.873502,15.6849485 L106.797104,15.6849485 L106.667716,15.6200501 L108.589083,7.9873724 L120.363442,14.0342698 L123.783297,7.57979742 L129.886124,19.1404006 L135.987899,7.57979742 C135.987899,7.57979742 142.233264,19.3655074 146.819194,28.0201532 L146.819194,20.2370908 L145.479549,20.2370908 L143.870082,12.5642305 L162.552527,12.5642305 L162.12544,14.6000675 L164.088359,12.6509708 L176.58277,12.5746289 C177.860877,12.2027428 179.257852,12.0433183 180.867846,12.0433183 C186.626688,12.0433183 192.58277,16.1697015 192.58277,23.0751191 C192.58277,26.5807342 191.291514,29.3955098 188.649568,31.6205557 Z" id="path16" fill="#231F20"></path>
                        <path d="M177.923467,77.785686 C175.257326,82.8714903 160.763704,86.349986 160.763704,86.349986 L158.932277,88.9610786 C154.58356,88.1208471 151.155815,81.8708414 151.155815,81.8708414 C144.25404,78.120629 137.01354,79.2754248 132.229845,76.7630908 C127.444047,74.2528469 123.068504,65.7486381 123.068504,65.7486381 C133.847202,69.2119804 142.292699,66.4989941 149.494276,65.8907668 C156.69638,65.282017 158.413145,64.3033145 163.821692,65.763269 C169.230239,67.2211334 171.273631,69.5469234 171.273631,69.5469234 C164.845229,66.9259028 161.693093,72.7317562 161.693093,72.7317562 C153.832475,74.9363188 130.919129,71.7514861 130.919129,71.7514861 C135.156341,74.2261978 152.588556,77.0426455 158.105979,76.8675972 C163.624454,76.692549 166.040759,73.5730328 166.040759,73.5730328 C167.140035,77.4376797 169.04352,79.3438765 170.344769,80.4615725 C170.846544,80.0921424 175.1211,76.8639395 175.68494,74.180215 C176.196708,71.7499185 176.915709,65.8719557 176.65588,62.3997303 C176.65588,62.3997303 180.588556,72.7014493 177.923467,77.785686" id="path18" fill="#BDBCBC"></path>
                        <path d="M128.036289,97.8195641 C128.036289,97.8195641 136.073106,101.097408 145.067189,98.420476 C154.06285,95.745112 156.441811,93.1695516 156.441811,93.1695516 C156.441811,93.1695516 154.47258,89.7532372 150.0497,90.0030075 C150.0497,90.0030075 145.180273,96.7875634 128.036289,97.8195641" id="path20" fill="#E51636"></path>
                        <path d="M143.662324,87.3981853 C143.749635,86.1138015 142.772909,85.0039435 141.480601,84.9172032 C140.488096,84.849274 139.601837,85.4083833 139.204204,86.2522725 C139.062192,86.21047 138.916499,86.1785955 138.763442,86.1681449 C137.671528,86.0955129 136.726361,86.9137981 136.652199,87.9985746 C136.578037,89.0849187 137.402232,90.0244313 138.495197,90.0975858 C139.196841,90.1456587 139.835894,89.8195987 140.225112,89.2954991 C140.507031,89.4438982 140.822087,89.5416117 141.163442,89.563558 C142.456275,89.6508209 143.574487,88.682569 143.662324,87.3981853 Z M144.189871,90.0024849 C142.598813,90.9952958 138.487308,91.9771335 135.370411,92.6198479 C133.960286,91.2471562 133.137669,89.3937351 133.274421,87.3987078 C133.537406,83.5476467 137.228662,80.6585671 141.516893,80.9480499 C145.446939,81.2119285 148.482311,84.0618183 148.764756,87.500079 C147.030108,88.1642172 145.715184,89.0509541 144.189871,90.0024849 Z" id="path22" fill="#E51636"></path>
                        <path d="M140.607492,88.266111 C140.531752,89.35141 139.58711,90.1712628 138.495197,90.0975858 C137.402232,90.0244313 136.578037,89.0849187 136.652199,87.9985746 C136.726361,86.9137981 137.670477,86.0949904 138.763442,86.1681449 C139.855355,86.2418219 140.681127,87.181857 140.607492,88.266111" id="path24" fill="#FFFFFF"></path>
                        <path d="M157.247596,37.6541286 L157.247596,38.2466799 C157.247596,39.1705165 157.370147,39.3513649 157.97659,39.3513649 L158.95542,39.3513649 L157.247596,37.6541286 Z M102.532542,25.3517911 L104.191976,28.7158001 L105.874554,25.3517911 L102.532542,25.3517911 Z M56.8042063,21.9269594 L56.3019052,21.9269594 L56.3019052,35.3200825 L56.8042063,35.3200825 C60.4617999,35.3200825 63.5008531,32.3645368 63.5008531,28.624357 C63.5008531,24.7294555 60.304009,21.9269594 56.8042063,21.9269594 Z M43.3234966,33.3756885 L43.3452718,32.9368661 C43.1685459,32.2235054 43.1202619,32.1999915 42.1145552,32.1999915 L36.3778032,32.1999915 L36.3778032,34.7138931 L42.1145552,34.7138931 C43.1948444,34.7138931 43.2205117,34.6177472 43.2807353,34.2462792 L43.2832073,34.1993035 L46.2814453,34.1850384 L46.2814453,39.3513649 L47.5005905,39.3513649 C48.3039567,39.2605488 48.2300054,39.0184597 48.2300054,38.2466799 L48.2300054,19.0017729 C48.2300054,18.0038934 48.239052,17.9781849 47.4977503,17.8967221 L46.2814453,17.8967221 L46.2814453,23.077157 L43.2936741,23.0708343 C43.1481909,22.5535799 43.0163303,22.5341939 42.1145552,22.5341939 L36.3778032,22.5341939 L36.3778032,25.0480433 L42.1145552,25.0480433 C43.1948444,25.0480433 43.2205117,24.9519496 43.2807353,24.5810564 L43.3136084,23.914201 L46.2814453,23.914201 L46.2814453,33.3616324 L43.3234966,33.3756885 Z M28.3055877,18.0410455 L27.841472,17.8930644 C27.5376193,17.9285443 27.4687699,17.9744749 26.3313603,19.5563884 L21.6722151,26.2472543 C23.2780533,27.2259568 24.5439047,28.7047747 25.2517022,30.4609526 L25.2517022,22.6560484 L28.3055877,23.3132892 L28.3055877,18.0410455 Z M16.0386058,31.4192763 L15.7115052,31.4192763 L15.7115052,36.2302288 L16.0386058,36.2302288 C17.0704006,36.2302288 18.4159364,35.4391153 18.4159364,33.8255886 C18.4159364,32.4706631 17.3436419,31.4192763 16.0386058,31.4192763 Z M139.952133,39.3513649 L140.555947,39.3513649 C141.024586,39.291744 141.187636,39.178459 140.879418,38.6040918 L135.997893,29.1248382 L134.264296,32.5156008 L137.182903,37.9927816 C137.833527,39.2488963 137.851936,39.2829654 138.487833,39.3513649 L139.117945,39.3513649 L139.117945,42.282247 L130.506243,42.2557024 L129.886124,41.0475561 L129.266532,42.2557024 L120.662193,42.2901895 L120.662193,39.3513649 L121.283363,39.3513649 C121.919787,39.2829654 121.93767,39.2488963 122.589346,37.9927816 L125.507426,32.5151828 L123.774356,29.1248382 L118.885467,38.6171551 L118.878104,38.6308454 C118.597762,39.1370222 118.748715,39.2907511 119.087965,39.3513649 L119.821167,39.3513649 L119.827479,42.2926454 L107.249438,42.3428607 L108.002101,39.3513649 L109.017223,39.3513649 C109.660484,39.2860484 109.673107,39.2609146 110.255356,38.1360599 L119.933199,19.8723635 C119.561338,19.6853493 118.77028,19.2857168 118.685599,19.2271409 C118.128071,19.0540261 118.00289,19.1079514 117.573699,19.93768 L104.185139,44.8265078 C104.185139,44.8265078 93.195001,24.3275239 91.1579201,20.5267304 L91.1579201,38.2466799 C91.1579201,39.4950612 91.2415493,39.2829654 91.8437847,39.3513649 L92.9378018,39.3513649 L93.5652837,42.3428607 L81.338065,42.3428607 L81.338065,39.3513649 L82.3568684,39.3513649 C83.1973681,39.256264 83.0858625,38.8549594 83.0858625,38.2466799 L83.0858625,32.416372 L78.7234694,32.416372 L78.7234694,38.2466799 C78.7234694,39.4554532 78.8086765,39.2776878 79.4529895,39.3513649 L80.503877,39.3513649 L80.503877,42.3428607 L68.2451002,42.3428607 L68.8720561,39.3513649 L69.9224177,39.3513649 C70.5767241,39.2766428 70.6519377,39.4438008 70.6519377,38.2466799 L70.6519377,32.5939806 C68.8504914,38.6204471 63.0664021,42.429183 57.3270203,42.429183 C55.766468,42.429183 48.2240093,42.3638665 46.2814453,42.3465185 L46.2814453,44.6476973 L43.2704789,44.0243688 L43.2704789,42.9813426 C43.1948444,42.3271325 42.9168694,42.2557024 42.1145552,42.2557024 L28.3055877,42.2557024 L28.3055877,34.0204931 L25.8382637,34.5163237 C25.6490197,36.5186665 24.7704925,38.3789327 23.3158706,39.8246744 C21.653701,41.4759801 19.4405255,42.3863354 17.0860219,42.3863354 C15.1358313,42.3863354 5.23319382,42.3428607 5.23319382,42.3428607 L5.8600393,39.3513649 L6.91055867,39.3513649 C7.60068357,39.2729851 7.63992091,39.2297194 7.63992091,38.2466799 L7.63992091,19.0017729 C7.63992091,17.8669378 7.62366845,17.976147 6.90766584,17.8967221 L5.8600393,17.8967221 L5.23319382,14.9045992 L18.1190265,14.9045992 L17.4918076,17.8967221 L16.4443388,17.8967221 C15.7160285,17.9771398 15.7115052,17.8795831 15.7115052,19.0017729 L15.7115052,20.7555471 L19.7329121,14.9913395 L28.3055877,14.9109218 L28.3055877,9.39679805 L34.5508473,14.9913395 L42.1145552,14.9913395 C42.9834572,14.9913395 43.2704789,14.986271 43.2704789,14.2661696 L43.2704789,13.2231434 L46.2814453,12.5997627 L46.2814453,14.9005234 C48.2217476,14.8838024 55.7470072,14.8184859 57.3270203,14.8184859 C63.6197223,14.8184859 68.9472698,18.9950845 70.6519377,24.7043217 L70.6519377,19.0017729 C70.6519377,17.8059061 70.57725,17.9697721 69.9197879,17.8967221 L68.8720561,17.8967221 L68.2451002,14.9045992 L80.503877,14.9045992 L80.503877,17.8967221 L79.4556193,17.8967221 C78.766073,17.9734821 78.7234694,17.9401968 78.7234694,19.0017729 L78.7234694,25.8277656 L83.0858625,25.8277656 L83.0858625,19.0017729 C83.0858625,17.8059061 83.0132787,17.9703991 82.3542386,17.8967221 L81.338065,17.8967221 L81.338065,14.9045992 L91.4866512,14.9045992 L98.1680449,11.4079193 L99.0322132,14.3512378 C99.0322132,14.3512378 98.1517398,14.7882836 98.0170916,14.8425746 C97.5132126,15.1942387 97.5205761,15.2626381 97.9997346,16.1874676 L98.9086103,18.0253173 L109.508479,18.0253173 C109.856145,17.3225639 110.417354,16.1854297 110.419458,16.181354 C110.897039,15.2324358 110.908084,15.2067272 110.32005,14.816448 L109.412752,14.3659732 L110.162785,11.3864955 L121.341746,17.2137728 L123.77909,12.613453 L129.886124,24.1822077 L135.991581,12.613453 L149.176065,37.4896355 L149.176065,19.0017729 C149.176065,17.9647035 148.985138,17.9567088 148.442337,17.8967221 L147.395657,17.8967221 L146.768175,14.9045992 L159.654434,14.9045992 L159.026952,17.8967221 L157.979746,17.8967221 C157.196051,17.9834624 157.247596,17.9295894 157.247596,19.0017729 L157.247596,22.7578899 L165.065085,14.9913395 L175.192632,14.9045992 L174.951212,15.8678347 C176.353973,15.0421819 178.287438,14.3847321 180.867846,14.3847321 C185.467977,14.3847321 190.226425,17.6354561 190.226425,23.0751191 C190.226425,27.5849885 187.640758,29.7116417 185.389607,31.0624915 C185.389607,31.0624915 181.854565,33.1854869 181.839312,33.1948925 C180.234578,34.1186768 180.234578,34.468721 180.234578,34.9533172 C180.234578,35.6983434 181.266005,36.1434885 182.263243,36.1434885 C183.71755,36.1434885 184.882047,35.3831521 185.304926,34.1594866 L185.591054,33.330803 C185.591054,33.330803 188.169358,33.912956 188.169358,33.9196966 C188.169358,33.9196966 188.223532,40.6419667 188.223532,40.6352261 L187.831159,40.9309792 C186.244308,42.1271073 184.150949,42.7320949 181.609463,42.7320949 C178.787635,42.7320949 176.432343,41.873209 174.795525,40.2474028 C173.294407,38.7561486 172.468635,36.6764189 172.468635,34.3883034 C172.468635,30.9098076 173.961863,28.472666 177.305978,26.4887163 L180.096248,24.8171886 C181.725176,23.9456574 182.023927,23.4161757 182.023927,22.6852579 C182.023927,22.1955932 181.440101,21.5373073 180.125176,21.5373073 C177.807754,21.5373073 176.022612,22.8352769 175.348845,25.0088534 L175.126886,25.7273349 C175.126886,25.7273349 172.330831,25.6165059 172.330831,25.6234555 L172.380272,18.5327481 L160.271396,30.5712069 C162.178037,32.453942 168.185663,38.3867185 168.459167,38.6408258 C169.389608,39.5050415 169.500587,39.4662697 170.50519,39.1439719 L171.309923,42.3428607 L161.879286,42.2557024 L159.045887,39.4411881 L159.654434,42.3428607 L139.952133,42.2828218 L139.952133,39.3513649 Z" id="path26" fill="#FFFFFF"></path>
                        <path d="M22.1180797,51.1328424 L22.1180797,49.2372006 L20.5487963,49.2372006 L20.5487963,49.7925999 L19.5576589,49.7925999 L19.5576589,48.6169029 L20.7415116,48.6169029 C21.0991711,48.6079153 21.5121625,48.6079153 21.8423137,48.3891312 C22.3105846,48.0880482 22.3105846,47.5953005 22.3105846,47.2217946 L22.3105846,46.1924587 C22.3015379,45.7550472 22.3015379,45.1708564 21.7139245,44.8614129 C21.4114919,44.6969198 21.1086385,44.6969198 20.7873236,44.6969198 L17.887705,44.6969198 L17.887705,46.6663953 L19.5576589,46.6663953 L19.5576589,46.03711 L20.5487963,46.03711 L20.5487963,47.3310038 L19.255016,47.3310038 C18.878632,47.3407751 18.4748976,47.3407751 18.1447464,47.6779651 C17.8233789,47.9972321 17.8051278,48.3619595 17.7958707,48.7261121 L17.7958707,49.7925999 C17.8051278,50.1396135 17.8141218,50.4765944 18.1077182,50.7776773 C18.4475472,51.1240638 18.8968832,51.1328424 19.264273,51.1328424 L22.1180797,51.1328424" id="path28" fill="#FFFFFF"></path>
                        <path d="M28.8439178,51.1328424 C28.3577639,51.1328424 27.7153445,51.1328424 27.4397889,50.4582012 C27.3021426,50.1396135 27.3021426,49.7654805 27.3021426,49.3917134 L27.3021426,46.2467498 C27.3021426,45.8276791 27.3021426,45.3349837 27.7060874,44.9977415 C28.0639572,44.7062731 28.5961334,44.6969198 28.9998152,44.6969198 L30.174253,44.6969198 C30.7340952,44.6969198 31.4864949,44.7062731 31.7157652,45.5537678 C31.7985528,45.8642041 31.7985528,46.2561031 31.7985528,46.6208828 L31.7985528,49.2825042 C31.7985528,49.8109931 31.7985528,50.2398351 31.6056271,50.576398 C31.3029841,51.1062977 30.7250485,51.1328424 30.1099269,51.1328424 L28.8439178,51.1328424 Z M30.0367645,46.03711 L29.073188,46.03711 L29.073188,49.7925999 L30.0367645,49.7925999 L30.0367645,46.03711 Z" id="path30" fill="#FFFFFF"></path>
                        <path d="M36.5791444,51.1328424 L38.7723856,51.1328424 L38.7723856,46.03711 L39.6807354,46.03711 L39.6807354,51.1328424 L41.8647195,51.1328424 L41.8647195,49.7925999 L41.4425236,49.7925999 L41.4425236,46.4379965 C41.4425236,46.03711 41.4517807,45.5360017 41.2039963,45.1802619 C40.8826288,44.7062731 40.3505052,44.6969198 39.9375664,44.6969198 L38.4237203,44.6969198 C38.0748445,44.7062731 37.6896243,44.7150517 37.3685198,44.988963 C37.0194337,45.2888441 37.0013403,45.6817359 37.0013403,46.2467498 L37.0013403,49.7925999 L36.5791444,49.7925999 L36.5791444,51.1328424" id="path32" fill="#FFFFFF"></path>
                        <polyline id="path34" fill="#FFFFFF" points="51.9487692 51.1328424 51.9487692 48.7538585 50.7008008 48.7538585 50.7008008 49.7925999 50.0493347 49.7925999 50.0493347 46.03711 50.4715306 46.03711 50.4715306 44.6969198 47.8655083 44.6969198 47.8655083 46.03711 48.2877042 46.03711 48.2877042 49.7925999 47.6362381 49.7925999 47.6362381 48.7538585 46.3882697 48.7538585 46.3882697 51.1328424 51.9487692 51.1328424"></polyline>
                        <polyline id="path36" fill="#FFFFFF" points="56.4907284 51.1328424 58.6656133 51.1328424 58.6656133 48.635296 59.5834305 48.635296 59.5834305 51.1328424 61.7761983 51.1328424 61.7761983 49.7925999 61.3543706 49.7925999 61.3543706 46.03711 61.7761983 46.03711 61.7761983 44.6969198 59.5834305 44.6969198 59.5834305 47.286066 58.6656133 47.286066 58.6656133 44.6969198 56.4907284 44.6969198 56.4907284 46.03711 56.9130821 46.03711 56.9130821 49.7925999 56.4907284 49.7925999 56.4907284 51.1328424"></polyline>
                        <polyline id="path38" fill="#FFFFFF" points="66.5477958 51.1328424 71.117421 51.1328424 71.117421 49.027195 69.639972 49.027195 69.639972 49.7925999 68.7042718 49.7925999 68.7042718 48.5709723 70.0255078 48.5709723 70.0255078 47.3862877 68.7042718 47.3862877 68.7042718 46.03711 69.639972 46.03711 69.639972 46.8670476 71.2184072 46.8670476 71.2184072 44.6969198 66.5477958 44.6969198 66.5477958 46.03711 66.9701495 46.03711 66.9701495 49.7925999 66.5477958 49.7925999 66.5477958 51.1328424"></polyline>
                        <path d="M76.1914511,46.03711 L75.7143965,46.03711 L75.7143965,44.6969198 L77.7146595,44.6969198 L77.9350408,46.2648817 L79.026954,46.2648817 L79.2568028,44.6969198 L81.2475982,44.6969198 L81.2475982,46.03711 L80.8073616,46.03711 L79.8984858,51.1328424 L77.0819179,51.1328424 L76.1914511,46.03711 Z M78.8891499,47.3769344 L78.0728449,47.3769344 L78.4857311,50.0752898 L78.8891499,47.3769344 Z" id="path40" fill="#FFFFFF"></path>
                        <path d="M90.0197216,51.1328424 L90.0197216,49.2372006 L88.4507539,49.2372006 L88.4507539,49.7925999 L87.4598269,49.7925999 L87.4598269,48.6169029 L88.6437848,48.6169029 C89.0014442,48.6079153 89.4143304,48.6079153 89.7446394,48.3891312 C90.2127525,48.0880482 90.2127525,47.5953005 90.2127525,47.2217946 L90.2127525,46.1924587 C90.2032851,45.7550472 90.2032851,45.1708564 89.6157769,44.8614129 C89.3133442,44.6969198 89.0103857,44.6969198 88.6890182,44.6969198 L85.789347,44.6969198 L85.789347,46.6663953 L87.4598269,46.6663953 L87.4598269,46.03711 L88.4507539,46.03711 L88.4507539,47.3310038 L87.1573943,47.3310038 C86.7807999,47.3407751 86.3768552,47.3407751 86.0470721,47.6779651 C85.7251787,47.9972321 85.7072957,48.3619595 85.6978282,48.7261121 L85.6978282,49.7925999 C85.7072957,50.1396135 85.7162372,50.4765944 86.0097283,50.7776773 C86.3495047,51.1240638 86.7986829,51.1328424 87.1663358,51.1328424 L90.0197216,51.1328424" id="path42" fill="#FFFFFF"></path>
                        <polyline id="path44" fill="#FFFFFF" points="100.133594 51.1328424 100.133594 48.7538585 98.8859936 48.7538585 98.8859936 49.7925999 98.2343171 49.7925999 98.2343171 46.03711 98.6566708 46.03711 98.6566708 44.6969198 96.0504907 44.6969198 96.0504907 46.03711 96.4723184 46.03711 96.4723184 49.7925999 95.8211679 49.7925999 95.8211679 48.7538585 94.5735677 48.7538585 94.5735677 51.1328424 100.133594 51.1328424"></polyline>
                        <path d="M110.057591,51.1328424 L111.351477,48.7814482 C111.470346,48.5348653 111.498222,48.4799472 111.60815,48.206663 C111.727019,48.4617631 111.764363,48.5348653 111.892699,48.7814482 L113.159235,51.1328424 L115.187374,51.1328424 L115.187374,49.7925999 L114.76502,49.7925999 L114.76502,46.03711 L115.187374,46.03711 L115.187374,44.6969198 L113.09454,44.6969198 L113.09454,47.6779651 C113.09454,47.9145676 113.09454,47.9700605 113.112949,48.1700857 L111.598682,45.4086607 L110.038656,48.1972574 C110.048123,48.0055926 110.057591,47.9700605 110.057591,47.7506493 L110.057591,44.6969198 L107.992634,44.6969198 L107.992634,46.03711 L108.423403,46.03711 L108.423403,49.7925999 L107.992634,49.7925999 L107.992634,51.1328424 L110.057591,51.1328424" id="path46" fill="#FFFFFF"></path>
                        <polyline id="path48" fill="#FFFFFF" points="119.507689 51.1328424 122.132804 51.1328424 122.132804 49.7925999 121.701509 49.7925999 121.701509 46.03711 122.132804 46.03711 122.132804 44.6969198 119.507689 44.6969198 119.507689 46.03711 119.930569 46.03711 119.930569 49.7925999 119.507689 49.7925999 119.507689 51.1328424"></polyline>
                        <path d="M130.758182,51.1328424 L130.758182,49.2372006 L129.189214,49.2372006 L129.189214,49.7925999 L128.197761,49.7925999 L128.197761,48.6169029 L129.382245,48.6169029 C129.739905,48.6079153 130.152791,48.6079153 130.4831,48.3891312 C130.950687,48.0880482 130.950687,47.5953005 130.950687,47.2217946 L130.950687,46.1924587 C130.941746,45.7550472 130.941746,45.1708564 130.353711,44.8614129 C130.051805,44.6969198 129.748846,44.6969198 129.427479,44.6969198 L126.528333,44.6969198 L126.528333,46.6663953 L128.197761,46.6663953 L128.197761,46.03711 L129.189214,46.03711 L129.189214,47.3310038 L127.895329,47.3310038 C127.51926,47.3407751 127.11479,47.3407751 126.785007,47.6779651 C126.463639,47.9972321 126.44523,48.3619595 126.435763,48.7261121 L126.435763,49.7925999 C126.44523,50.1396135 126.454172,50.4765944 126.748189,50.7776773 C127.087965,51.1240638 127.537143,51.1328424 127.90427,51.1328424 L130.758182,51.1328424" id="path50" fill="#FFFFFF"></path>
                        <path d="M139.778037,51.1328424 L139.778037,49.2372006 L138.20907,49.2372006 L138.20907,49.7925999 L137.218143,49.7925999 L137.218143,48.6169029 L138.401574,48.6169029 C138.759234,48.6079153 139.17212,48.6079153 139.502955,48.3891312 C139.971068,48.0880482 139.971068,47.5953005 139.971068,47.2217946 L139.971068,46.1924587 C139.961075,45.7550472 139.961075,45.1708564 139.374618,44.8614129 C139.07166,44.6969198 138.768701,44.6969198 138.447334,44.6969198 L135.547663,44.6969198 L135.547663,46.6663953 L137.218143,46.6663953 L137.218143,46.03711 L138.20907,46.03711 L138.20907,47.3310038 L136.915184,47.3310038 C136.539116,47.3407751 136.135697,47.3407751 135.804862,47.6779651 C135.483494,47.9972321 135.465085,48.3619595 135.45667,48.7261121 L135.45667,49.7925999 C135.465085,50.1396135 135.475079,50.4765944 135.768044,50.7776773 C136.10782,51.1240638 136.557525,51.1328424 136.924651,51.1328424 L139.778037,51.1328424" id="path52" fill="#FFFFFF"></path>
                        <path d="M146.044967,51.1328424 C145.558971,51.1328424 144.916762,51.1328424 144.641679,50.4582012 C144.503875,50.1396135 144.503875,49.7654805 144.503875,49.3917134 L144.503875,46.2467498 C144.503875,45.8276791 144.503875,45.3349837 144.907294,44.9977415 C145.264954,44.7062731 145.797235,44.6969198 146.200654,44.6969198 L147.376196,44.6969198 C147.935302,44.6969198 148.687965,44.7062731 148.917288,45.5537678 C149.000391,45.8642041 149.000391,46.2561031 149.000391,46.6208828 L149.000391,49.2825042 C149.000391,49.8109931 149.000391,50.2398351 148.806834,50.576398 C148.504401,51.1062977 147.926361,51.1328424 147.311502,51.1328424 L146.044967,51.1328424 Z M147.238392,46.03711 L146.274816,46.03711 L146.274816,49.7925999 L147.238392,49.7925999 L147.238392,46.03711 Z" id="path54" fill="#FFFFFF"></path>
                        <path d="M153.321758,51.1328424 L155.515052,51.1328424 L155.515052,46.03711 L156.423402,46.03711 L156.423402,51.1328424 L158.606702,51.1328424 L158.606702,49.7925999 L158.1854,49.7925999 L158.1854,46.4379965 C158.1854,46.03711 158.194342,45.5360017 157.94661,45.1802619 C157.625243,44.7062731 157.092961,44.6969198 156.680075,44.6969198 L155.165808,44.6969198 C154.817616,44.7062731 154.432606,44.7150517 154.110713,44.988963 C153.761469,45.2888441 153.744112,45.6817359 153.744112,46.2467498 L153.744112,49.7925999 L153.321758,49.7925999 L153.321758,51.1328424" id="path56" fill="#FFFFFF"></path>
                        <path d="M162.919654,49.7925999 L163.333066,49.7925999 L163.333066,46.03711 L162.919654,46.03711 L162.919654,44.6969198 L165.112422,44.6969198 L165.112422,47.3126107 L166.103349,47.3126107 L166.103349,45.3625211 C166.113868,44.7605642 166.370016,44.7062731 167.040101,44.6969198 L168.260351,44.6969198 L168.260351,46.03711 L167.829056,46.03711 L167.829056,46.730092 C167.819588,47.0215603 167.801179,47.3226433 167.580798,47.5953005 C167.388819,47.8241173 167.159496,47.8780426 166.929647,47.9335355 C167.846939,48.2344094 167.856406,48.799162 167.856406,49.6472838 C167.856406,50.0663022 167.856406,50.4855819 167.507688,50.8052148 C167.159496,51.1240638 166.690857,51.1240638 166.29638,51.1328424 L162.919654,51.1328424 L162.919654,49.7925999 Z M166.103349,49.7925999 L166.103349,48.5170992 L165.112422,48.5170992 L165.112422,49.7925999 L166.103349,49.7925999 Z" id="path58" fill="#FFFFFF"></path>
                        <polyline id="path60" fill="#FFFFFF" points="172.499141 51.1328424 175.124256 51.1328424 175.124256 49.7925999 174.692435 49.7925999 174.692435 46.03711 175.124256 46.03711 175.124256 44.6969198 172.499141 44.6969198 172.499141 46.03711 172.921495 46.03711 172.921495 49.7925999 172.499141 49.7925999 172.499141 51.1328424"></polyline>
                        <path d="M56.8042063,20.9514966 L55.3204457,20.9514966 L55.3204457,36.2955453 L56.8042063,36.2955453 C61.0356329,36.2955453 64.4828386,32.8719677 64.4828386,28.624357 C64.4828386,24.3767464 61.0356329,20.9514966 56.8042063,20.9514966 Z M57.3270203,41.4541383 C55.4508862,41.4541383 47.0309521,41.3667709 47.0309521,41.3667709 L47.248914,40.3264096 C47.248914,40.3264096 47.4235886,40.3264096 47.5542394,40.3264096 C48.7754886,40.1973965 49.2120961,39.9371755 49.2120961,38.2466799 L49.2120961,19.0017729 C49.2120961,17.3115385 48.7754886,17.0506905 47.5542394,16.9212593 C47.4235886,16.9212593 47.248914,16.9212593 47.248914,16.9212593 L47.0309521,15.880271 C47.0309521,15.880271 55.4077567,15.7935307 57.3270203,15.7935307 C64.4391831,15.7935307 70.2411554,21.5591491 70.2411554,28.624357 C70.2411554,35.6895649 64.4391831,41.4541383 57.3270203,41.4541383 Z" id="path62" fill="#E51636"></path>
                        <path d="M100.958314,24.3767464 L104.186191,30.9214601 L107.458774,24.3767464 L100.958314,24.3767464 Z M119.151608,18.3508547 C117.97291,17.9609936 117.493225,17.9609936 116.707952,19.4780086 L104.186191,42.7545637 L91.7080845,19.4780086 C91.1852706,18.4684244 90.77817,18.1314435 90.2295835,18.1334814 C90.1932916,18.3700839 90.1764606,18.6560134 90.1764606,19.0017729 L90.1764606,38.2466799 C90.1764606,39.9371755 90.568834,40.1973965 91.7906617,40.3264096 C91.9647577,40.3264096 92.1399057,40.3264096 92.1399057,40.3264096 L92.3576571,41.3667709 L82.1049289,41.3667709 L82.1049289,40.3264096 C82.1049289,40.3264096 82.2795509,40.3264096 82.4105173,40.3264096 C83.6318191,40.1973965 84.068374,39.9371755 84.068374,38.2466799 L84.068374,31.4407002 L77.7420099,31.4407002 L77.7420099,38.2466799 C77.7420099,39.9371755 78.1780388,40.1973965 79.3998665,40.3264096 C79.530833,40.3264096 79.7054549,40.3264096 79.7054549,40.3264096 L79.7054549,41.3667709 L69.4522008,41.3667709 L69.6699522,40.3264096 C69.6699522,40.3264096 69.8451002,40.3264096 69.9760666,40.3264096 C71.1973684,40.1973965 71.6339233,39.9371755 71.6339233,38.2466799 L71.6339233,19.0017729 C71.6339233,17.3115385 71.1973684,17.0506905 69.9760666,16.9212593 C69.8451002,16.9212593 69.6699522,16.9212593 69.6699522,16.9212593 L69.4522008,15.880271 L79.7054549,15.880271 L79.7054549,16.9212593 C79.7054549,16.9212593 79.530833,16.9212593 79.3998665,16.9212593 C78.1780388,17.0506905 77.7420099,17.3115385 77.7420099,19.0017729 L77.7420099,26.8032284 L84.068374,26.8032284 L84.068374,19.0017729 C84.068374,17.3115385 83.6318191,17.0506905 82.4105173,16.9212593 C82.2795509,16.9212593 82.1049289,16.9212593 82.1049289,16.9212593 L82.1049289,15.880271 L91.7438504,15.880271 L97.5547642,12.8040727 L97.8603526,13.8430231 C97.8603526,13.8430231 97.6857306,13.9297634 97.5547642,13.9724021 C96.5512139,14.6674219 96.376066,15.187289 97.1187352,16.6171457 L98.2969075,19.0017729 L110.120181,19.0017729 L111.297828,16.6171457 C112.039445,15.1434486 111.864823,14.6674219 110.818143,13.9724021 C110.730832,13.9297634 110.55621,13.8430231 110.55621,13.8430231 L110.818143,12.8040727 L120.110977,17.7007726 L119.413541,18.5243876 C119.413541,18.5243876 119.238919,18.4376473 119.151608,18.3508547 Z" id="path64" fill="#E51636"></path>
                        <path d="M184.880995,30.2278511 L181.34753,32.3510555 C179.689147,33.3040494 179.252592,33.912956 179.252592,34.9533172 C179.252592,36.2526977 180.605387,37.1191603 182.263243,37.1191603 C184.269818,37.1191603 185.710449,35.9924767 186.234315,34.4750959 L187.19421,34.693044 C187.19421,36.8589393 187.237339,38.5065351 187.237339,40.1545488 C185.972382,41.1075428 184.183559,41.7576771 181.609463,41.7576771 C176.068372,41.7576771 173.450094,38.2466799 173.450094,34.3883034 C173.450094,31.311687 174.671922,29.1876988 177.813013,27.3237225 L180.561731,25.6767538 C182.263243,24.7663985 183.005387,23.9852654 183.005387,22.6852579 C183.005387,21.4719908 181.784085,20.5626806 180.125176,20.5626806 C177.638917,20.5626806 175.282573,21.9051176 174.409989,24.7231329 L173.319128,24.6796582 C173.319128,23.4231254 173.363309,19.7386475 173.363309,18.4809129 C175.151606,16.3140249 177.769358,15.3608219 180.867846,15.3608219 C184.793684,15.3608219 189.243914,18.0916266 189.243914,23.0751191 C189.243914,26.7164881 187.411961,28.7104703 184.880995,30.2278511" id="path66" fill="#E51636"></path>
                        <path d="M16.0386058,30.4448586 L14.7298353,30.4448586 L14.7298353,37.2059006 L16.0386058,37.2059006 C17.9150028,37.2059006 19.3984479,35.6895649 19.3984479,33.8255886 C19.3984479,31.9611943 17.9150028,30.4448586 16.0386058,30.4448586 Z M27.754161,16.9212593 C26.9958179,17.0077906 26.8316627,17.1813235 25.5237337,19.0017729 L20.2366859,26.5942156 C22.9824057,27.7950464 24.8956207,30.5189537 24.8956207,33.6949556 C24.8956207,37.9425662 21.4055484,41.4100366 17.0860219,41.4100366 C14.3807491,41.4100366 6.4406573,41.3667709 6.4406573,41.3667709 L6.65846137,40.3264096 C6.65846137,40.3264096 6.83287294,40.3264096 6.96373421,40.3264096 C8.18561452,40.1973965 8.62138046,39.9371755 8.62138046,38.2466799 L8.62138046,19.0017729 C8.62138046,17.3115385 8.18561452,17.0506905 6.96373421,16.9212593 C6.83287294,16.9212593 6.65846137,16.9212593 6.65846137,16.9212593 L6.4406573,15.880271 L16.9113474,15.880271 L16.6935959,16.9212593 C16.6935959,16.9212593 16.5189213,16.9212593 16.3880601,16.9212593 C15.166022,17.0506905 14.7298353,17.3115385 14.7298353,19.0017729 L14.7298353,23.8750111 L20.2473631,15.9674294 L28.0070473,15.880271 L28.0070473,16.9212593 C28.0070473,16.9212593 27.8714523,16.8771576 27.754161,16.9212593 Z" id="path68" fill="#E51636"></path>
                        <path d="M26.1234444,74.1300519 C26.1234444,74.1300519 49.842839,57.8411608 71.1679141,62.460344 C66.7492422,61.162897 58.3973687,58.325548 50.2389468,53.4712255 L106.278498,53.4712255 C108.846809,55.3027002 110.468899,56.6936805 110.468899,56.6936805 C110.468899,56.6936805 99.748584,52.6576431 93.8429957,55.2619427 C93.8429957,55.2619427 109.035106,59.6930144 117.288097,69.7366026 C117.288097,69.7366026 108.197762,71.2827749 99.7443762,68.55359 C99.7443762,68.55359 104.841549,78.7048199 107.074817,82.1796579 C107.074817,82.1796579 98.4136728,82.956663 92.8489129,88.8806087 C92.8489129,88.8806087 101.522154,86.0469174 108.523863,93.2197147 C108.523863,93.2197147 96.6243237,96.4515753 88.0920425,94.0312069 C88.0920425,94.0312069 92.6616676,97.4381158 103.186322,100.68513 C103.186322,100.68513 97.5105827,103.131102 95.106375,108.775493 C95.106375,108.775493 103.574488,101.868142 116.002101,104.666824 C116.002101,104.666824 111.516105,106.89072 109.803022,108.34963 C109.803022,108.34963 150.433132,100.015766 156.610121,96.5801182 C156.610121,96.5801182 141.26285,115.374028 91.4629826,116.172457 C69.3538444,116.527256 42.09278,127.229235 42.09278,127.229235 C42.09278,127.229235 58.6166981,109.907298 78.5698863,106.223969 C73.9723847,107.018741 52.7836936,110.610103 41.9185788,111.193772 C41.9185788,111.193772 65.6178813,99.7153104 70.9138707,89.6267844 C70.9138707,89.6267844 46.613227,94.602857 33.4153312,88.7484081 C33.4153312,88.7484081 57.9981577,83.8595984 63.2873094,76.887976 C63.2873094,76.887976 41.5616558,69.3797132 26.1234444,74.1300519" id="path70" fill="#E51636"></path>
                        <path d="M165.471659,15.9674294 L173.935564,15.880271 L173.673631,16.9212593 C173.673631,16.9212593 173.499009,16.8771576 173.368569,16.9212593 C172.583822,17.0077906 172.365019,17.1813235 170.488359,19.0017729 L158.883362,30.5744466 L166.649305,38.2466799 C168.482836,40.0678085 168.743717,40.2402964 169.484808,40.3264096 C169.615775,40.3703023 169.790397,40.3264096 169.790397,40.3264096 L170.05233,41.3667709 L162.286386,41.2800306 L156.265085,35.2986587 L156.265085,38.2466799 C156.265085,39.9371755 156.70164,40.1973965 157.922941,40.3264096 C158.053908,40.3264096 158.22853,40.3264096 158.22853,40.3264096 L158.447333,41.3667709 L140.719523,41.3667709 L140.719523,40.3127193 C141.871397,40.1535038 142.431555,39.423004 141.75358,38.1599396 L135.994211,26.977336 L133.158708,32.5245361 L136.299799,38.4202128 C137.01617,39.8012127 137.206045,40.1716879 138.319523,40.3117265 L138.319523,41.3594555 L131.107952,41.2800306 L129.886124,38.89718 L128.664297,41.2800306 L121.429057,41.3590374 L121.429057,40.3143914 C122.563048,40.1770177 122.750819,39.8116111 123.472449,38.4202128 L126.614067,32.5245361 L123.778038,26.977336 L118.018143,38.1599396 C117.345428,39.3717436 117.89191,40.1398657 119.029057,40.3086435 L119.029057,41.3667709 L108.507558,41.3667709 L108.768965,40.3264096 C108.768965,40.3264096 108.943587,40.3264096 109.074028,40.3264096 C110.340563,40.1973965 110.471003,39.8504352 111.21262,38.4202128 L123.778038,14.7099038 L129.886124,26.2827342 L135.994211,14.7099038 L148.560154,38.4202128 C148.984612,39.2903331 149.216038,39.757947 149.616827,40.0206239 C150.001837,39.7542893 150.156998,39.255219 150.156998,38.2466799 L150.156998,19.0017729 C150.156998,17.3115385 149.720969,17.0506905 148.499668,16.9212593 C148.368175,16.9212593 148.193027,16.9212593 148.193027,16.9212593 L147.975276,15.880271 L158.447333,15.880271 L158.22853,16.9212593 C158.22853,16.9212593 158.053908,16.9212593 157.922941,16.9212593 C156.70164,17.0506905 156.265085,17.3115385 156.265085,19.0017729 L156.265085,25.1133598 L165.471659,15.9674294" id="path72" fill="#E51636"></path>
                        <path d="M42.1422738,31.2682123 L35.4234311,31.2682123 L35.4234311,35.6895649 L42.1422738,35.6895649 C43.3074545,35.6895649 43.8155413,35.51645 44.0665867,34.9898422 L45.2864157,34.9898422 L45.3277043,43.4485385 L44.2800778,43.2311652 C44.2800778,43.2311652 44.2800778,43.0572665 44.2800778,42.9270516 C44.1492165,41.7142025 43.8436807,41.2800306 42.1422738,41.2800306 L29.315397,41.2800306 L29.315397,31.2682123 C27.744904,31.311687 27.4393682,31.7009734 27.3085069,32.8719677 C27.3085069,33.0454483 27.3085069,33.2173091 27.3085069,33.2173091 L26.2615115,33.4346824 L26.2615115,23.8556252 L27.3085069,24.0729985 C27.3085069,24.0729985 27.3085069,24.2465314 27.3085069,24.3767464 C27.4393682,25.5899612 27.744904,25.9798224 29.315397,26.0237151 L29.315397,11.5898127 L34.2016034,15.9674294 L42.1422738,15.9674294 C43.8436807,15.9674294 44.1492165,15.5333097 44.2800778,14.3200426 C44.2800778,14.1898276 44.2800778,14.0165038 44.2800778,14.0165038 L45.3277043,13.7991304 L45.2859949,22.3141557 L44.0912547,22.3141557 C43.849256,21.7430282 43.3471127,21.5591491 42.1422738,21.5591491 L35.4234311,21.5591491 L35.4234311,26.0237151 L42.1422738,26.0237151 C43.7814585,26.0237151 44.2030232,25.541836 44.2689798,24.6979991 L45.3277043,24.6979991 L45.3277043,32.6059988 L44.2546209,32.6059988 C44.183089,32.0505996 43.8971192,31.2682123 42.1422738,31.2682123" id="path74" fill="#E51636"></path>
                        <path d="M26.7883228,32.8170495 C26.7605516,32.8227451 26.7578692,32.8227451 26.7289408,32.828702 C26.7289408,31.837929 26.7289408,25.4526398 26.7289408,24.4612398 C26.760762,24.4681895 26.7636548,24.4691823 26.7938455,24.4752959 C26.8636943,25.0821646 27.0003412,25.5230249 27.2493353,25.8355513 C27.2493353,27.6054195 27.2493353,30.099883 27.2493353,31.4607131 C26.9960283,31.7756432 26.8554891,32.2140998 26.7883228,32.8170495" id="path76" fill="#F1807A"></path>
                        <path d="M66.3605506,37.0810154 C64.094147,39.4685165 60.8825757,40.9618086 57.3270203,40.9618086 C55.7680459,40.9618086 49.6003669,40.9005678 47.6390784,40.8807639 C47.6462841,40.8462768 47.6464945,40.8432461 47.6537003,40.8097518 C48.2373689,40.7454803 48.6928587,40.6299485 49.0253242,40.3729672 C51.5257318,40.3974217 56.4744233,40.4446064 57.8472043,40.4446064 C61.139249,40.4446064 64.1356986,39.1648209 66.3605506,37.0810154" id="path78" fill="#F1807A"></path>
                        <path d="M64.9783021,28.624357 C64.9783021,24.122221 61.3107151,20.459167 56.8042063,20.459167 L55.3451663,20.459167 L55.3451663,20.4352872 L55.3451663,19.9419648 L56.8562773,19.9419648 C61.363838,19.9419648 65.4979602,23.8254228 65.4979602,28.3279768 C65.4979602,30.7212258 64.4607479,32.6582521 62.8118327,34.1521711 C64.1556854,32.6970239 64.9783021,30.7552949 64.9783021,28.624357" id="path80" fill="#F1807A"></path>
                        <path d="M50.2278488,18.6774372 L50.2278488,37.7294777 C50.2278488,39.0053964 49.9502946,39.6377124 49.3785129,39.9673779 C49.5993676,39.5891692 49.7074544,39.0441683 49.7074544,38.2466799 L49.7074544,19.0017729 C49.7074544,17.0288487 49.0442065,16.593475 47.6537003,16.4372902 C47.6464945,16.4048409 47.6462841,16.4018102 47.6390784,16.3662781 C48.0859423,16.3619933 48.4261921,16.3558797 49.2061,16.3475192 C49.7162381,16.6045004 50.2278488,17.5209693 50.2278488,18.6774372" id="path82" fill="#F1807A"></path>
                        <path d="M78.4310303,16.3730187 L79.2994063,16.3730187 L79.3009842,16.4553591 C78.8086765,16.5262521 78.4084136,16.6415955 78.0959875,16.8730187 C78.1875063,16.6708498 78.2995378,16.5077088 78.4310303,16.3730187" id="path84" fill="#F1807A"></path>
                        <path d="M85.0840215,30.4311683 L85.0840215,37.7294777 C85.0840215,39.0053964 84.8063095,39.6377124 84.2340544,39.9680049 C84.4549617,39.590162 84.5633115,39.0441683 84.5633115,38.2466799 L84.5633115,30.9489975 L77.7662045,30.9489975 L77.7662045,30.4311683 L85.0840215,30.4311683" id="path86" fill="#F1807A"></path>
                        <path d="M85.0840215,18.4851977 L85.0840215,26.7787216 L84.5633115,26.7787216 L84.5633115,19.0017729 C84.5633115,17.0210629 83.8953299,16.589347 82.4936206,16.4352523 L82.4930946,16.3730187 C82.4930946,16.3730187 83.2094654,16.3730187 84.1451655,16.3730187 C84.5917139,16.7304306 85.0840215,17.355797 85.0840215,18.4851977" id="path88" fill="#F1807A"></path>
                        <path d="M112.495461,16.4419929 L111.281523,18.9773184 L110.684021,18.9773184 L111.742798,16.833892 C112.075737,16.1729935 112.249307,15.6534921 112.249307,15.2113778 C112.249307,14.5759788 111.88744,14.1000044 111.131621,13.5901176 C111.137407,13.563364 111.138459,13.5603333 111.145822,13.5329526 C111.380931,13.657472 111.925309,13.9689533 112.687966,14.370676 C112.78001,14.8194787 112.8284,15.7800494 112.495461,16.4419929" id="path90" fill="#F1807A"></path>
                        <path d="M90.3247841,17.1266144 C91.3525289,17.1266144 92.0105171,17.8842859 92.5259674,18.8785076 L92.5222857,18.8723939 C92.5222857,18.8723939 103.031687,38.4348959 104.485993,41.1473597 C104.333988,41.4290567 104.2998,41.4974039 104.186717,41.7084546 C103.375671,40.1964037 92.2109116,19.3692174 92.1462173,19.2479377 C91.7154481,18.4161712 91.1857965,17.6491464 90.2474665,17.6417787 C90.2516743,17.6082844 90.2553561,17.5737973 90.2600898,17.5413481 L90.3247841,17.1266144" id="path92" fill="#F1807A"></path>
                        <polyline id="path94" fill="#F1807A" points="104.460221 31.4784792 108.258248 23.8844167 100.938853 23.8844167 100.683758 23.3682073 109.10243 23.3682073 104.749504 32.0630358 104.460221 31.4784792"></polyline>
                        <path d="M72.6495708,18.4851977 L72.6495708,37.7294777 C72.6495708,39.0053964 72.3718588,39.6377124 71.8001297,39.9673779 C72.021037,39.5891692 72.1293868,39.0441683 72.1293868,38.2466799 L72.1293868,19.0017729 C72.1293868,17.0282216 71.4656129,16.593475 70.0749489,16.4372902 C70.0686373,16.4068788 70.0681113,16.4048409 70.0612737,16.3730187 C70.334252,16.3730187 70.7808003,16.3730187 71.7096629,16.3730187 C72.1567372,16.7304306 72.6495708,17.3554312 72.6495708,18.4851977" id="path96" fill="#F1807A"></path>
                        <path d="M91.7359609,40.8154474 C91.7417466,40.8432461 91.7422725,40.8452839 91.7480582,40.8750683 C90.7366184,40.8750683 83.5445081,40.8750683 82.4930946,40.8750683 L82.4936206,40.8124167 C83.0963819,40.7460551 83.563969,40.6279106 83.9005896,40.357239 C85.4311616,40.357239 88.3366184,40.357239 90.3174205,40.357239 C90.6356322,40.6138023 91.0937518,40.7475182 91.7359609,40.8154474" id="path98" fill="#F1807A"></path>
                        <path d="M79.3009842,40.8097518 L79.3030881,40.8750683 C79.3030881,40.8750683 71.0753434,40.8750683 70.0612737,40.8750683 C70.0681113,40.8432461 70.0686373,40.8401631 70.0749489,40.8097518 C70.6703467,40.7433902 71.1321481,40.6258205 71.4661389,40.357239 C72.9903992,40.357239 75.9232065,40.357239 77.9097942,40.357239 C78.2432591,40.6258205 78.7050605,40.7433902 79.3009842,40.8097518" id="path100" fill="#F1807A"></path>
                        <path d="M118.13596,17.2170125 C118.711897,17.5205513 119.146348,17.7499429 119.336223,17.8501645 C119.323074,17.8669378 119.322022,17.8675126 119.308347,17.8836588 C118.453646,17.600969 117.847729,17.523582 117.300194,17.8998051 C117.571595,17.543595 117.841417,17.3272667 118.13596,17.2170125" id="path102" fill="#F1807A"></path>
                        <path d="M92.1456913,19.2469449 L92.1470247,19.2494782 C92.1496913,19.2537449 92.152358,19.2578782 92.1536913,19.2614782 L92.1456913,19.2469449" id="path104" fill="#F1807A"></path>
                        <path d="M169.640388,40.8379162 C169.955055,40.8379162 169.503055,40.8712496 169.640388,40.8379162" id="path106" fill="#F1807A"></path>
                        <path d="M156.955157,16.3730187 C157.369095,16.3730187 157.679943,16.3730187 157.837734,16.3730187 C157.830897,16.4137872 157.830897,16.416398 157.824059,16.4553591 C157.332277,16.5262521 156.932014,16.6415955 156.619588,16.8730187 C156.712159,16.6708498 156.823665,16.5077088 156.955157,16.3730187" id="path108" fill="#F1807A"></path>
                        <path d="M181.735696,30.9385991 C181.735696,30.9385991 184.315051,29.3883511 184.316103,29.387097 C185.02511,28.9629578 186.46206,28.4230777 186.97751,27.9544187 C186.366859,28.6200722 185.58895,29.2293446 184.624847,29.8063767 L181.090331,31.9297901 C180.567517,32.2308209 180.150423,32.507188 179.82064,32.7801065 C180.186189,32.3280118 180.883099,31.4286819 181.735696,30.9385991" id="path110" fill="#F1807A"></path>
                        <path d="M180.301376,19.5530964 C182.25325,19.5530964 184.021034,20.8925028 184.021034,22.6240172 C184.021034,23.6914979 183.584479,23.9826005 182.824453,24.6179994 C183.258904,24.0934295 183.500324,23.4784093 183.500324,22.6852579 C183.500324,21.1943695 182.050226,20.0695148 180.125176,20.0695148 C178.443125,20.0695148 176.951475,20.6306097 175.819588,21.6254585 C176.994604,20.309357 178.346873,19.5530964 180.301376,19.5530964" id="path112" fill="#F1807A"></path>
                        <path d="M174.338983,23.5756003 C174.237471,23.7815301 174.1449,23.9952457 174.063901,24.2162768 C173.953973,24.211992 173.93872,24.2109992 173.818273,24.2062964 C173.822481,23.5276318 173.855091,18.9950845 173.857195,18.6668298 C174.071265,18.4182091 174.300061,18.1867797 174.540956,17.9710262 C174.486781,18.0304381 174.430502,18.0885959 174.377379,18.1496276 C174.375275,18.4637739 174.345295,22.6168585 174.338983,23.5756003" id="path114" fill="#F1807A"></path>
                        <path d="M181.899272,40.74872 C184.776327,40.74872 186.739246,39.8483973 186.739772,39.8963658 C185.436945,40.8013913 183.715446,41.2649294 181.609463,41.2649294 C175.952132,41.2649294 173.945558,37.5606476 173.945558,34.3883034 C173.945558,32.1675422 174.609332,30.5325917 176.158312,29.1248382 C174.979088,30.4166941 174.465742,32.2586196 174.465742,34.2134119 C174.465742,37.3855471 176.242994,40.74872 181.899272,40.74872" id="path116" fill="#F1807A"></path>
                        <path d="M185.904532,36.0312486 C186.153841,35.7375333 186.367911,35.4099057 186.534118,35.0472163 C186.616169,35.0666022 186.621429,35.067595 186.701376,35.0864062 C186.701902,35.1057921 186.702428,35.1278429 186.702428,35.1506776 C186.476787,35.4819629 186.209594,35.777298 185.904532,36.0312486" id="path118" fill="#F1807A"></path>
                        <path d="M27.0863899,16.3844598 C27.2754234,16.382007 27.4215378,16.3795542 27.5118994,16.3782963 C27.5118994,16.4259692 27.5118994,16.4259692 27.5118994,16.4738938 C27.1901637,16.5379818 26.9442202,16.6505604 26.6952262,16.8782963 C26.8355549,16.6775416 26.9631551,16.5159064 27.0863899,16.3844598" id="path120" fill="#F1807A"></path>
                        <path d="M22.5199205,38.5247192 C21.1801704,39.9924594 19.2408148,40.9179159 17.0860219,40.9179159 C14.8479681,40.9179159 8.95463488,40.8881316 7.0490465,40.8781512 C7.05619969,40.8452839 7.05641008,40.8412082 7.06340548,40.8097518 C7.65243899,40.7444353 8.11061124,40.6279106 8.44365528,40.3655995 C10.8754764,40.3780358 15.6443389,40.4011317 17.6064164,40.4011317 C19.4960153,40.4011317 21.2204071,39.6893908 22.5199205,38.5247192" id="path122" fill="#F1807A"></path>
                        <path d="M15.4195394,16.3730187 C15.8337406,16.3730187 16.1437997,16.3730187 16.3021692,16.3730187 C16.2953842,16.4137273 16.295016,16.4163342 16.2888096,16.455238 C15.7971857,16.5260267 15.3967123,16.6412005 15.0838129,16.8730187 C15.1758576,16.6704118 15.2878366,16.5075107 15.4195394,16.3730187" id="path124" fill="#F1807A"></path>
                        <path d="M18.9955025,36.3076158 C19.5556077,35.6346468 19.893964,34.7688112 19.893964,33.8255886 C19.893964,31.6899479 18.1644703,29.9521109 16.0386058,29.9521109 L14.754661,29.9521109 L14.754661,29.9280222 L14.754661,29.4352745 L16.0386058,29.4352745 C18.6020771,29.4352745 20.4041547,31.6519599 20.4041547,33.5361581 C20.4041547,34.7443044 19.8607227,35.5964497 18.9955025,36.3076158" id="path126" fill="#F1807A"></path>
                        <path d="M14.754661,24.7033289 C16.2179615,22.6058331 20.2822875,16.7810117 20.508507,16.4566761 C20.5386977,16.4556833 21.0527805,16.4556833 21.128152,16.4544292 C19.7821954,18.383722 14.754661,25.6275313 14.754661,25.6275313 L14.754661,24.7033289" id="path128" fill="#F1807A"></path>
                        <path d="M9.63718582,18.7133874 L9.63718582,37.7294777 C9.63718582,39.0053964 9.35957899,39.6377124 8.78779728,39.9673779 C9.00886237,39.5891692 9.11715954,39.0441683 9.11715954,38.2466799 L9.11715954,19.0017729 C9.11715954,17.0288487 8.45354351,16.593475 7.06340548,16.4372902 C7.05662047,16.4068788 7.05619969,16.4048409 7.04941468,16.3730187 C7.32228779,16.3730187 7.69972367,16.3730187 8.62879663,16.3730187 C9.11573942,16.6332397 9.63718582,17.5838299 9.63718582,18.7133874" id="path130" fill="#F1807A"></path>
                        <path d="M141.107689,40.8750683 L141.107689,40.7413523 C141.476394,40.6523651 141.748846,40.5135806 141.950292,40.357239 C143.320443,40.357239 146.235894,40.357239 149.240233,40.357239 C149.273369,40.3829476 149.307557,40.4074544 149.343323,40.430916 L149.623665,40.6158401 L149.899799,40.4245934 C149.930305,40.4031696 149.958708,40.3802827 149.986584,40.357239 C152.412882,40.357239 154.815512,40.357239 156.433395,40.357239 C156.76686,40.6258205 157.228661,40.7433902 157.824059,40.8097518 C157.830897,40.8401631 157.830897,40.8432461 157.837734,40.8750683 C156.813671,40.8750683 143.806966,40.8750683 141.107689,40.8750683" id="path132" fill="#F1807A"></path>
                        <path d="M142.327939,39.9402062 C142.34214,39.9167445 142.355289,39.8932828 142.367386,39.870814 C142.462587,39.6926305 142.541482,39.4522135 142.541482,39.145017 C142.541482,38.8173894 142.451016,38.4134721 142.190135,37.9284579 C142.190135,37.9284579 137.156078,28.1524583 136.271923,26.4360451 L136.56331,25.8663807 C136.56331,25.8663807 142.506242,37.4112557 142.506242,37.4116737 C143.292567,38.8770103 143.216827,39.3817762 142.327939,39.9402062" id="path134" fill="#F1807A"></path>
                        <path d="M112.490727,38.1746227 C112.080471,38.9667813 111.520839,39.7134796 110.939116,39.9114669 C111.145822,39.6256942 111.332542,39.2642065 111.568176,38.8094469 C111.568176,38.8094469 121.556341,19.9580587 123.777512,15.7680311 C123.80907,15.8296377 124.024192,16.2372649 124.073107,16.3301711 C121.266006,21.6271306 112.490727,38.1746227 112.490727,38.1746227" id="path136" fill="#F1807A"></path>
                        <path d="M130.16594,26.8126339 C131.4188,24.439398 135.365677,16.9608673 135.995263,15.7680311 C136.023665,15.8216952 136.22669,16.2058607 136.280338,16.3066571 C134.821824,19.0703813 130.451542,27.351469 130.451542,27.351469 C130.451542,27.351469 130.244836,26.963698 130.16594,26.8126339" id="path138" fill="#F1807A"></path>
                        <path d="M127.758051,32.5343597 L124.624849,38.415092 C124.165677,39.3001045 123.679681,39.5807564 123.190529,39.908384 C123.419326,39.5964846 123.63024,39.1909475 123.902692,38.6653326 L123.912686,38.6455286 C123.910582,38.6506494 127.17212,32.5296569 127.17212,32.5296569 L124.056802,26.4360451 L124.349241,25.8673735 L127.758051,32.5343597" id="path140" fill="#F1807A"></path>
                        <path d="M118.62406,40.8750683 C116.63642,40.8750683 110.105454,40.8750683 109.141878,40.8750683 C109.149767,40.8442389 109.150819,40.8405812 109.158183,40.8124167 C109.789872,40.7444353 110.199603,40.6023588 110.517814,40.357239 C112.197762,40.357239 115.669162,40.357239 117.836157,40.357239 C118.049701,40.5217321 118.31742,40.6430118 118.62406,40.7240043 L118.62406,40.8750683" id="path142" fill="#F1807A"></path>
                        <path d="M128.358708,40.7913586 C127.899537,40.7962704 123.440365,40.8452839 121.814067,40.86305 L121.814067,40.751803 C122.231161,40.6707582 122.536223,40.5407523 122.786585,40.3415108 C124.457591,40.3233267 127.641811,40.2882648 128.622219,40.2772394 C128.500194,40.5156185 128.403942,40.7015876 128.358708,40.7913586" id="path144" fill="#F1807A"></path>
                        <path d="M137.914,40.862632 C136.250358,40.8442389 131.867452,40.7962704 131.413014,40.7913586 C131.239444,40.4523399 130.348978,38.7142938 130.013935,38.0611288 C130.23905,37.6216793 130.406308,37.2946788 130.406308,37.2946788 C130.406308,37.2946788 131.718077,39.854511 131.933725,40.2747835 C132.285072,40.2778142 134.994868,40.3086435 136.971463,40.3300674 C137.216039,40.5290998 137.511108,40.6607256 137.914,40.7444353 L137.914,40.862632" id="path146" fill="#F1807A"></path>
                        <path d="M151.173172,18.4851977 L151.173172,37.7294777 C151.173172,38.5906105 151.081653,39.4501234 150.419983,39.907757 L150.315315,39.9804412 C150.603021,39.5081245 150.651936,38.8784211 150.651936,38.2466799 L150.651936,19.0017729 C150.651936,17.0282216 149.989214,16.593475 148.59855,16.4372902 C148.591712,16.4068788 148.591186,16.4048409 148.584875,16.3730187 C148.857327,16.3730187 149.234973,16.3730187 150.164362,16.3730187 C150.61091,16.7304306 151.173172,17.3554312 151.173172,18.4851977" id="path148" fill="#F1807A"></path>
                        <path d="M162.71137,40.2757763 C162.962784,40.2778142 166.164361,40.3086435 168.177774,40.3311124 C168.614328,40.6493344 168.938852,40.7554607 169.402231,40.8124167 C169.408017,40.8369234 169.409069,40.8405812 169.416432,40.8677006 C168.366071,40.8556823 162.844966,40.7940236 162.493619,40.7903658 C162.268504,40.5668789 157.829319,36.1561337 156.289805,34.6277275 L156.289805,33.9003107 C156.289805,33.9003107 162.438918,40.0055227 162.71137,40.2757763" id="path150" fill="#F1807A"></path>
                        <path d="M29.7935035,30.2588895 L30.303063,30.2446243 C30.303063,30.2446243 30.303063,39.3805221 30.303063,40.2704987 C31.2191971,40.2704987 42.6350022,40.2704987 42.6350022,40.2704987 C43.7300712,40.2704987 44.3970009,40.7428154 44.7918463,41.2331072 C44.7963697,42.1207846 44.7998937,42.5498357 44.8011034,42.8413041 C44.7702816,42.8356085 44.7678095,42.8345634 44.7388812,42.8288678 C44.5605249,41.2867713 43.9170535,40.788328 42.1145552,40.788328 C42.1145552,40.788328 30.6985397,40.788328 29.7828263,40.788328 C29.7828263,39.8984036 29.7828263,30.7620356 29.7828263,30.7620356 L29.2735298,30.7765097 C28.5499007,30.7969407 28.0261926,30.8973714 27.6474944,31.1194475 C28.0029447,30.5242312 28.6505713,30.2907117 29.7935035,30.2588895" id="path152" fill="#F1807A"></path>
                        <path d="M44.9725827,25.0999307 C44.9725827,25.1807142 44.9725827,25.2680815 44.9725827,25.3673103 C44.8309385,25.467114 44.6626319,25.5528615 44.4725827,25.6285764 C44.6102593,25.4744817 44.7106402,25.2979181 44.7785659,25.0999307 L44.9725827,25.0999307" id="path154" fill="#F1807A"></path>
                        <path d="M44.6537793,32.2194297 C44.4809982,31.5776558 43.9443513,30.7765097 42.1145552,30.7765097 L35.4203804,30.7765097 L35.4203804,30.2588895 L42.3033783,30.2588895 C43.4757123,30.2588895 44.478158,30.7902 44.8039963,31.2802828 C44.8039963,31.7485238 44.8039963,32.0181503 44.8039963,32.2194297 L44.6537793,32.2194297" id="path156" fill="#F1807A"></path>
                        <path d="M44.3926879,15.6106445 C44.6134864,15.3112336 44.7452958,14.9209545 44.8165128,14.4188012 C44.8519281,14.4124785 44.8549545,14.4114857 44.8926879,14.4057379 C44.8919796,14.5709102 44.8901766,14.8707391 44.8876654,15.2610183 C44.7508334,15.4016317 44.5878585,15.5171635 44.3926879,15.6106445" id="path158" fill="#F1807A"></path>
                        <path d="M29.7935035,25.9990516 C29.7900321,25.9986335 29.7867185,25.9986335 29.7828263,25.9986335 C29.7828263,23.6629676 29.7828263,14.3441313 29.7828263,12.6959085 C29.92852,12.8265416 30.105614,12.9855481 30.303063,13.1624774 C30.303063,16.5946768 30.303063,26.0133167 30.303063,26.0133167 L29.7935035,25.9990516" id="path160" fill="#F1807A"></path>
                        <path d="M44.4165143,21.9279523 C44.011728,21.2247809 43.2456005,21.0670285 42.1145552,21.0670285 L35.4203804,21.0670285 L35.4203804,20.550192 L42.3179477,20.550192 C43.3082435,20.550192 44.2061264,20.8192438 44.7680199,21.4375037 C44.7670206,21.6954778 44.7657582,21.8261108 44.7647589,21.9279523 L44.4165143,21.9279523" id="path162" fill="#F1807A"></path>
                        <path d="M196.418667,13.2063701 L196.981455,15.6435117 L197.919259,15.6435117 L197.919259,12.5450536 L197.311764,12.5450536 L197.311764,14.6403025 C197.311764,14.7015433 197.313342,14.7849916 197.313868,14.893208 C197.315445,15.0023649 197.316497,15.0864926 197.316497,15.1450684 L196.725307,12.5450536 L196.094144,12.5450536 L195.507687,15.1450684 C195.507687,15.0864926 195.507687,15.0023649 195.508213,14.893208 C195.511369,14.7849916 195.511369,14.7015433 195.511369,14.6403025 L195.511369,12.5450536 L194.902822,12.5450536 L194.902822,15.6435117 L195.851672,15.6435117 L196.418667,13.2063701" id="path164" fill="#231F20"></path>
                        <polyline id="path166" fill="#231F20" points="192.007359 15.6435117 194.534117 15.6435117 194.534117 15.0944351 193.601047 15.0944351 193.601047 12.5450536 192.943585 12.5450536 192.943585 15.0944351 192.007359 15.0944351 192.007359 15.6435117"></polyline>
                    </g>
                </g>
            </g>
        </g>
    </g>
</svg>