<svg width="200" height="200" xmlns="http://www.w3.org/2000/svg"><g fill="none"><path d="M130.57 0h16.086l.24.069c6.166 1.755 11.78 5.817 16.396 10.155 8.267 7.78 13.916 18.76 14.708 30.12v4.062c-.689 8.262-2.721 16.282-6.751 23.546-2.067 3.718-4.719 7.332-7.922 10.155 2.996 7.607 3.754 15.662 3.272 23.786-.345 5.611-1.24 11.222-2.48 16.696-2.032 8.88-4.995 17.59-9.093 25.714-3.79 7.745-8.75 15.56-15.363 21.205-2.72 2.34-5.752 4.268-8.955 5.817L81.52 195.491c-2.308 1.067-4.443 2.306-6.854 3.132-1.723.654-3.514.998-5.305 1.343h-7.784c-5.03-.551-9.92-1.894-14.467-4.166-6.544-3.167-12.159-7.951-16.568-13.735-4.615-5.542-6.992-12.495-7.543-19.69v-5.37c.62-6.3 1.963-12.461 4.34-18.348 2.204-5.576 5.339-10.705 9.507-15.043.344-.344.103-.722.034-1.101-1.481-4.544-2.273-9.294-2.549-14.08-.413-7.779.586-15.8 2.17-23.407 2.136-10.258 5.58-20.241 10.334-29.535C50.9 47.435 55.79 40.069 62.68 34.182a41.875 41.875 0 0 1 8.99-5.817c16.981-8.4 34.031-16.73 51.012-25.13 2.55-1.307 5.132-2.478 7.888-3.235z" fill="#231F20"/><path d="M142.522 6.713c4.65.791 9.025 3.063 12.366 6.402 4.202 4.2 6.682 9.914 7.199 15.8.55 5.336-.414 10.982-1.757 16.18-2.032 7.263-5.718 14.698-11.436 19.759-.654.654-1.687 1.17-2.204 1.962.827 1.962 1.722 3.855 2.273 5.886 2.79 9.157 2.343 19.036.758 28.365-1.688 10.086-4.684 20-9.059 29.26-2.79 5.886-6.028 11.67-10.23 16.661-2.893 3.373-6.096 6.368-9.954 8.64-1.895 1.17-3.927 2.031-5.89 3.03-16.775 8.227-33.55 16.488-50.358 24.715-3.066 1.515-6.476 2.307-9.886 2.376-5.407.069-10.78-1.79-14.948-5.233-4.513-3.683-7.303-8.915-8.44-14.56-1.343-6.507-.172-13.357 1.585-19.69 2.377-7.953 6.545-15.801 13.399-20.724 0-.62-.586-1.377-.792-1.996-2.48-5.818-3.548-12.29-3.48-18.555-.068-5.886.759-11.841 1.895-17.59 2.033-10.224 5.477-20.138 10.3-29.363 3.857-7.47 8.92-14.974 15.844-19.931 2.549-1.86 5.373-3.167 8.197-4.544 16.672-8.227 33.412-16.42 50.083-24.647 4.443-2.238 9.644-3.098 14.535-2.203z" fill="#EEB311"/><path d="M144.899 12.461c3.41 1.274 6.475 3.615 8.542 6.61 3.169 4.44 4.168 9.81 3.789 15.18-.344 4.062-1.171 8.193-2.446 12.048-1.894 5.508-4.96 11.223-9.437 15.044-1.723 1.514-3.755 2.547-5.753 3.614 3.617 4.647 5.27 10.155 6.028 15.938.827 6.92.172 14.114-1.068 20.964-2.1 11.635-6.062 22.891-11.917 33.184-3.1 5.473-7.096 10.843-12.16 14.664-2.307 1.756-4.89 2.995-7.508 4.234a21298.075 21298.075 0 0 0-48.705 23.925c-3.065 1.549-6.027 2.857-9.54 2.857a17.267 17.267 0 0 1-10.747-3.03c-3.686-2.443-6.235-6.196-7.51-10.395-1.653-5.13-1.24-10.671-.068-15.835 1.102-5.267 3.065-10.534 6.028-15.043 2.617-4.028 6.165-7.332 10.643-9.157-.896-1.411-1.894-2.72-2.618-4.2-2.72-5.335-3.685-11.118-3.858-17.039-.103-6.3.758-12.633 2.067-18.795 1.895-9.019 4.926-17.763 9.128-25.99 2.962-5.92 6.407-11.394 11.125-16.075 2.377-2.204 4.926-4.166 7.888-5.543 17.842-8.812 35.822-17.624 53.734-26.471 4.443-2.135 9.713-2.444 14.363-.689z" fill="#007650"/><path d="M135.117 25.99c1.377-.689 2.204.378 2.583 1.549.62 2.34.069 5.198-.379 7.538-.517 2.789-1.55 5.611-2.928 8.09-.93 1.549-2.066 3.339-3.789 4.096l-32.136 15.8c-1.964 1.033-3.858 1.515-5.201 3.374-2.928 4.062-4.444 9.157-4.926 14.114-.103 1.514-.034 3.683 1.068 4.888.827.723 1.515.138 2.308-.207 1.102-.585 2.239-1.067 3.34-1.652a4.82 4.82 0 0 0 .207-.964l-.034.86c7.027-3.338 13.984-6.884 21.011-10.257 1.206-.586 2.239-1.205 3.548-1.515a3.895 3.895 0 0 1 3.823 1.205c1.447 1.514 2.032 3.924 2.515 5.886.792 3.856.62 7.986.275 11.876-1.446 12.462-5.339 24.82-11.849 35.594-2.135 3.408-4.856 7.16-8.542 9.019-14.157 6.954-28.279 13.907-42.435 20.86-2.55 1.343-5.236 2.445-7.716 3.89 0 .345 0 .654-.034.964 0-.31-.035-.62-.035-.93-1.481.414-2.755 1.378-4.202 1.825-.758.172-1.275-.275-1.619-.93-.792-1.686-.758-3.58-.517-5.404.517-3.786 1.585-7.676 3.445-11.05.826-1.514 2.032-3.2 3.582-3.993 11.78-5.748 23.56-11.6 35.34-17.349 1.171-.585 2.032-1.652 2.756-2.72 1.756-2.719 3.065-5.817 3.685-9.018.482-2.582.965-5.646.138-8.193-.379-1.067-1.102-1.618-2.205-1.136-8.886 4.372-17.876 8.812-26.728 13.15-.655.413-1.93.481-2.24 1.239-.068-.172-.103-.31-.172-.482-1.997.24-3.478-.86-4.408-2.547-1.688-3.236-2.067-7.333-2.17-10.913a75.58 75.58 0 0 1 1.48-12.736c1.86-9.57 5.27-18.83 10.127-27.298 1.757-2.96 3.858-6.024 6.476-8.296 1.653-1.446 3.513-2.238 5.442-3.167 17.05-8.33 34.135-16.73 51.116-25.06z" fill="#FFF"/><path d="M142.488 33.115c.86.379 1.274 1.48 1.378 2.341.24 1.997.034 3.924-.345 5.852-.689 3.993-2.135 8.227-4.684 11.429-1.103 1.445-2.618 1.927-4.168 2.72-11.057 5.404-22.217 10.911-33.273 16.316-1.206.654-2.136 1.859-2.86 2.995-1.446 2.375-2.652 5.094-3.237 7.814a4.356 4.356 0 0 1-.207.964c-1.102.585-2.239 1.067-3.34 1.652-.828.344-1.516.895-2.309.206-1.102-1.204-1.17-3.373-1.067-4.888.482-4.922 1.997-10.051 4.925-14.113 1.343-1.86 3.238-2.341 5.201-3.374l32.137-15.8c1.722-.757 2.859-2.513 3.789-4.096 1.378-2.479 2.376-5.302 2.928-8.09 1.17-.55 2.307-1.17 3.478-1.721.483-.138 1.137-.448 1.654-.207zM126.161 78.83c.965.068 1.826.034 2.652.62 1.654 1.135 2.308 2.89 2.894 4.715 1.136 3.89 1.067 8.193.86 12.22-1.067 11.36-4.27 22.651-9.575 32.772-1.825 3.58-3.995 7.194-6.75 10.12-1.344 1.446-2.929 2.685-4.754 3.511-17.154 8.434-34.376 16.868-51.495 25.302-.86.378-1.929 1.135-2.893.998-.792-.138-1.033-.86-1.274-1.515-.758-2.237-.414-4.337.034-6.575.034-.31.034-.654.034-.964 2.48-1.445 5.167-2.547 7.716-3.89 14.157-6.919 28.313-13.906 42.436-20.86 3.65-1.893 6.372-5.611 8.542-9.019 6.51-10.74 10.402-23.132 11.849-35.594.31-3.89.516-7.986-.276-11.841z" fill="#231F20"/><path d="M96.229 102.169c1.137-.482 1.86.069 2.204 1.136.827 2.547.345 5.61-.137 8.192-1.792.551-3.445 1.55-5.133 2.376-5.166 2.513-10.299 5.06-15.465 7.607-1.206.585-2.446 1.308-3.755 1.687-1.309.275-2.652.275-3.72-.62-1.722-1.342-2.41-3.958-2.962-5.99.31-.722 1.585-.826 2.239-1.239 8.852-4.371 17.842-8.812 26.729-13.15zm63.688 40.688h6.027v1.446h-2.135c-.069 2.03-.035 4.062-.035 6.093-.55 0-1.102.034-1.618.034v-6.127c-.724 0-1.482 0-2.205.034-.034-.516-.034-.998-.034-1.48zm6.923 0c.723 0 1.481-.034 2.204.035.62 1.72.862 3.717 1.31 5.473.723-1.721.757-3.752 1.446-5.473.723-.07 1.481-.035 2.204-.035.035 2.513.035 5.06 0 7.573h-1.515c-.035-1.962.103-3.855-.172-5.817-.241 1.996-.758 3.89-1.171 5.852-.517-.035-1.068-.035-1.585-.07-.344-1.824-.758-3.648-1.102-5.507-.207 1.859-.103 3.649-.138 5.542h-1.515c0-2.513 0-5.06.034-7.573z" fill="#231F20"/></g></svg>