<svg width="200" height="200" xmlns="http://www.w3.org/2000/svg"><g fill="none" fill-rule="evenodd"><path fill="#CBCCCB" d="M34.707 134.453h7.57v-4.34h-7.57z"/><path d="M196.294 115.938c-3.809-4.601-9.966-6.933-18.302-6.933-6.492.003-11.924 1.37-16.199 4.07-3.472-3.115-8.262-3.507-11.713-3.507h-.691l-2.601.002c.676-2.584.995-5.836.64-9.915l-.002-.03-.004-.03c-.047-.418-1.267-9.916-13.763-12.757-1.558-4.625-8.475-16.9-38.536-22.453l-.034-.007-.032-.005c-.337-.052-39.146-6.197-54.794-11.5C34.348 50.869 26.806 47.818 21.37 39c-.112 4.492 1.227 8.317 1.38 8.74.917 2.546 4.235 10.94 10.547 18.461-3.81.287-9.053.971-13.614 2.59l-6.697 2.376 6.774 2.145c.126.04 10.005 3.198 18.39 7.986-6.358.611-15.438 2.759-24.139 9.316l-3.88 2.924a72.024 72.024 0 0 1-2.08-.347L0 91.735l6.01 5.554c4.87 4.503 16.515 14.372 28.543 18.032-5.39 4.298-14.565 12.447-18.988 21.225l-3.687 7.313 7.037-4.19c.106-.064 7.335-4.338 15.792-7.474v2.258h3.61a36.058 36.058 0 0 0-3.617 14.608l-.232 6.997 4.455-5.4c.037-.044 2.744-3.278 7.69-7.273-.081.283-.152.566-.214.848-.843 3.832.02 7.592 2.427 10.587 3.423 4.255 9.473 6.323 18.496 6.323 5.696-.004 10.882-1.296 15.13-3.757 3.407 2.892 7.869 3.24 9.81 3.24l15.41-.008c2.138-.001 4.134-.49 5.953-1.456 2.862 1.55 6.05 1.903 8.364 1.903h1.075l4.645-.002h1.946l1.32-6.459.186-.913c1.612.576 3.327.888 4.984.888h.849c.324.595.706 1.16 1.14 1.688 3.415 4.163 8.924 4.784 11.904 4.784h1.08l4.673-.003 1.957-.001.38-1.92.163-.818c3.505 1.873 7.93 2.82 13.212 2.82 14.165-.008 23.543-6.6 25.73-18.086l2.371-12.457c1.362-7.156-1.049-11.915-3.31-14.648" fill="#CBCCCB"/><path d="M82.807 154.334c.018.022.031.046.049.068 2.81 3.465 7.515 3.84 9.407 3.84l15.408-.009c2.341 0 4.338-.727 5.966-1.873 2.74 1.98 6.262 2.321 8.352 2.321h1.073l4.647-.003 1.73-8.467a12.668 12.668 0 0 0 6.706 1.983h2.391c.322.92.806 1.787 1.44 2.56 2.794 3.404 7.503 3.912 10.062 3.912h1.08l4.672-.003.861-4.342c3.391 2.927 8.363 4.423 14.852 4.423 12.919-.006 21.435-5.892 23.387-16.147l2.371-12.458c1.189-6.244-.869-10.343-2.804-12.68-3.334-4.028-8.874-6.07-16.465-6.07h-.02c-6.91.004-12.461 1.644-16.533 4.852-.101-.14-.196-.284-.306-.418-2.82-3.43-7.388-3.87-11.053-3.87H149.39l-2.89.002-2.096 2.87-5.973 8.204-1.118-3.65a10.313 10.313 0 0 0-4.607-5.872c1.598-.353 3.365-.932 5.298-1.83l.778 5.106s7.509-2.673 6.27-16.92c0 0-1.002-8.87-13.323-10.977 0 0-1.713-15.63-37.04-22.157 0 0-33.734-5.255-55.102-11.569 0 0-10.537-2.803-14.829-8.91 0 0 4.227 13.03 13.855 22.132 0 0-.104-.002-.3-.002-1.737 0-10.7.128-17.832 2.659 0 0 16.334 5.165 25.393 12.591 0 0-1.223-.163-3.301-.163-5.4-.001-16.58 1.103-27.126 9.051 0 0 8.683.386 16.743 2.444-2.72.844-6.909 1.71-12.612 1.71-3.432 0-7.41-.312-11.95-1.134 5.59 5.167 19.46 16.828 32.472 18.583 0 0-16.255 11.293-22.406 23.498 0 0 16.052-9.57 28.96-10.916 0 0-9.099 8.253-9.57 22.438 0 0 5.685-6.89 15.945-13.216.157.277.316.536.476.774l-.766.854c-2.137 2.383-3.487 4.803-4.01 7.191-.685 3.112.01 6.16 1.957 8.582 2.94 3.655 8.382 5.432 16.636 5.432 6.121-.004 11.458-1.607 15.485-4.424" fill="#060403"/><path d="M99.082 108.3c3.15-1.018 6.044-1.356 8.728-1.356 4.486 0 8.384.946 11.902 1.245 3.46.295 5.298.7 7.185.7 1.178 0 2.376-.158 3.998-.6 4.223-1.145 5.819-2.974 5.819-2.974-.925.38-1.763.535-2.514.535-3.328 0-4.965-3.036-4.965-3.036-1.578-.446-3.933-.61-6.561-.61-7.591 0-17.463 1.38-17.463 1.38 3.21-1.888 16.12-4.028 20.817-4.027.143 0 .279.002.406.006 4.309.138 6.195 2.59 6.195 2.59.857-3.038 2.344-4.535 3.358-5.414.393.29.714.553.912.761 1.393 1.457 2.869 2.261 3.258 4.175.388 1.912.96 6.53.757 9.258 0 0 3.072-8.095.99-12.091-2.08-3.996-13.395-6.73-13.395-6.73l-1.43-2.052c-3.395.662-6.07 5.573-6.07 5.573-5.389 2.947-11.04 2.039-14.774 4.012-3.737 1.974-7.153 8.656-7.153 8.656" fill="#CBCCCB"/><path d="M51.557 128.4c-3.957 3.04-7.493 6.715-8.161 10.464 0 0 3.674-2.767 8.487-5.848-.334-1.313-.491-2.845-.326-4.616Zm-20.537-1.069s12.687-5.255 23.171-6.737a17.306 17.306 0 0 1 4.16-4.591c4.003-3.08 9.5-4.643 16.342-4.647h.033c3.316 0 7.087.217 10.387 1.352 3.27-1.817 6.818-4.308 9.457-7.542 0 0-7.097-1.214-13.695.93 0 0 3.979-7.976 5.722-10.706 0 0-6.762-.612-11.106-5.267 0 0 6.77 2.228 12.236-3.41 0 0-9.289-2.538-15.95-.637 0 0 3.568-2.677 11.784-5.227 0 0-4.43-1.923-6.307-6.358 0 0 6.61 5.428 16.312 3.229 0 0-3.502-1.749-4.839-2.895 0 0 31.717 6.549 36.54 9.248 0 0-11.982-14.767-50.858-15.395-17.26-.28-38.54-8.688-38.54-8.688s13.286 14.02 29.174 16.628c0 0-19.763-3.512-29.31-4.028 0 0 18.5 9.02 22.635 16.947 0 0-18.97-3.909-29.274.69 0 0 19.191 3.843 23.32 9.32 0 0-16.96 5.901-29.012 2.168 0 0 18.656 12.884 35.353 9.114-5.525 1.615-19.68 6.54-27.735 16.502Zm81.156-37.827a1.551 1.551 0 0 0-.42-.243c-.024-.01-.048-.012-.073-.02.024.008.05.01.073.02.154.056.293.143.42.243.035.028.07.053.103.083.277.258.466.612.494 1.02a1.547 1.547 0 0 1-1.1 1.584l.006-.002a1.825 1.825 0 0 0 1.776 1.05 1.83 1.83 0 1 0-.98-3.442l-.005-.006a1.535 1.535 0 0 0-.144-.162l-.017-.02v.001l-.03-.023c-.033-.03-.068-.055-.103-.083Zm-3.49-2.318c2.433.504 5.642 1.277 6.885 2.057 1.19.747 2.216 1.444 3.57 1.965-.22 2.702-2.59 4.941-5.657 5.15-3.348.227-6.23-2.043-6.435-5.07-.106-1.568.535-3.024 1.637-4.102ZM102.96 83.1s6.274-2.576 13.295-.473 8.879 4.127 8.879 4.127-1.537 2.685-4.99 2.487c0 0-3.802-5.33-17.184-6.141Z" fill="#C92335"/><path d="M112.773 90.607a1.546 1.546 0 1 0-3.087.21 1.547 1.547 0 0 0 3.087-.21M183.216 125.021c-.821-.991-2.85-1.494-6.033-1.493-6.594.004-8.205 2.077-9.002 6.159l-2.2 11.27c-.415 2.119-.317 3.405.314 4.171.81.982 2.8 1.478 5.92 1.477 7.404-.004 8.504-2.669 9.17-6.153l2.16-11.271c.404-2.112.303-3.396-.33-4.16Zm8.452 4.054-2.371 12.457c-1.414 7.422-7.725 11.512-17.773 11.518-5.856.003-9.938-1.346-12.131-4.01-1.671-2.03-2.193-4.717-1.55-7.99l2.446-12.456c1.031-5.247 4.935-11.504 17.684-11.511 5.823-.003 9.894 1.345 12.098 4.006 1.68 2.031 2.22 4.717 1.597 7.986Zm-41.61-11.428h-.664l-.391.536c-1.854 2.54-9.116 12.522-12.674 17.418l-4.46-14.554c-.766-2.524-3.12-3.445-4.984-3.388l-4.703.003-6.402 31.157c-.177.865.015 1.671.557 2.335 1.424 1.747 4.962 1.833 5.658 1.833h1.065l4.18-20.453 3.223 10.447.068.172c1.56 3.311 5.45 3.348 5.615 3.348h.66l10.243-13.91-3.238 16.22c-.172.863.024 1.669.567 2.33 1.432 1.746 4.969 1.832 5.664 1.831h1.072l6.186-31.168c.176-.884-.02-1.702-.565-2.364-1.309-1.592-4.255-1.794-6.678-1.793Zm-36.48 6.465c3.327-.001 4.866-3.19 5.216-4.876l.326-1.572-25.885.014-6.513 30.693c-.193.912-.001 1.757.556 2.443 1.339 1.652 4.389 1.734 4.987 1.733l15.402-.007c3.345-.002 4.887-3.19 5.234-4.878l.323-1.57-17.888.01 1.905-9.024 10.642-.006c3.362-.002 5.626-1.993 6.377-5.604l.513-2.628-2.414 1.213c-.012.005-1.178.573-4.477.575l-9.282.004 1.376-6.513 13.602-.007Zm-27.068-3.97c.876 1.082 1.167 2.451.844 3.958-.31 1.445-1.17 3.026-2.627 4.836l-2.904 3.238.668-4.605c.218-1.014-.077-1.527-.317-1.823-.583-.722-2.449-1.933-8.38-1.93-2.128.001-7.157.366-7.891 3.721-.149.682 0 1 .123 1.179.744 1.076 3.635 1.5 6.432 1.91 3.058.449 6.41.94 8.892 2.424l.042.024c.926.56 1.73 1.261 2.347 2.152 1.234 1.773 1.553 4.095.954 6.897-1.443 6.743-8.09 10.936-17.345 10.941-4.361.002-10.024-.569-12.226-3.307-.855-1.063-1.143-2.375-.832-3.793.31-1.416 1.216-2.968 2.688-4.609l3.31-3.69-1.062 4.842c-.222 1.017.075 1.536.318 1.838.602.749 2.533 2.004 8.694 2 4.492-.001 7.416-1.623 8.023-4.448.205-.954-.011-1.413-.191-1.676-.9-1.311-4.04-1.8-7.076-2.275-4.259-.664-8.662-1.35-10.74-4.388-1.074-1.572-1.35-3.585-.824-5.983 1.055-4.798 4.906-10.518 17.263-10.524 6.353-.004 10.109.978 11.817 3.09Z" fill="#FFFFFE"/><path d="M77.42 142.123c-.23 1.005-.714 1.885-1.39 2.646 1.619-.947 2.653-2.322 3.037-4.008 2.026-8.878-21.454-1.574-18.508-14.212.511-2.195 1.493-3.921 2.82-5.269-2.168 1.472-3.764 3.608-4.468 6.63-2.946 12.638 20.534 5.334 18.51 14.213Zm6.305-13.954c.82-1 1.399-1.894 1.807-2.71-.104-3.424-5.063-4.219-9.93-4.217-3.538.003-6.619.84-8.19 2.779 1.688-.968 3.99-1.416 6.543-1.417 5.345-.003 10.82.945 9.832 5.293-.02.091-.04.18-.062.272Zm-14.897 22.108c-6.129.003-12.63-1.17-11.627-5.474.112-.481.342-1.024.666-1.604-.004-.32.02-.655.105-1.022-1.402 1.54-2.165 2.9-2.419 3.988-1.002 4.303 5.499 5.476 11.628 5.473 5.331-.003 10.048-1.472 13.039-4.405-2.947 2.027-6.958 3.042-11.392 3.044Zm46.493-28.842-14.66.008-.305 1.37 13.305-.007c1.416-.001 2.362-.78 2.978-1.637a3.38 3.38 0 0 1-1.318.266Zm-6.452 28.32-15.293.01-4.668-.093s.284-1.678.466-2.487l6.312-28.082-1.342.001-6.618 29.442c-.58 2.582 4.203 2.58 4.203 2.58l15.292-.009c1.414 0 2.356-.776 2.97-1.627a3.388 3.388 0 0 1-1.322.266Zm.599-15.36-11.703.006-.307 1.37 10.35-.005c1.964-.001 3.18-.812 3.962-1.844-.628.293-1.383.473-2.302.473Zm9.016 13.317 6.271-28.745h-1.38l-6.55 30.115c-.567 2.602 4.903 2.599 4.903 2.599l.317-1.461c-1.133-.133-3.993-.199-3.993-.199s.323-1.813.432-2.31Zm14.732-6.487-4.778-16.103s-.095 2.28-.53 4.289l-.111.516 3.759 12.669c1.196 2.6 4.403 2.598 4.403 2.598l1.064-1.422c-.984-.136-2.932-.644-3.807-2.547Zm13.306 6.471 3.865-18.297c.424-2.008 1.334-4.426 1.334-4.426l-2.204 2.947c-.273.84-.587 1.889-.79 2.85l-3.864 18.298c-.55 2.601 4.92 2.598 4.92 2.598l.31-1.478c-.95-.116-3.914-.306-3.914-.306s.193-1.475.343-2.186Zm-9.123-10.58c1.976-2.68 9.925-13.499 13.362-18.16a45.695 45.695 0 0 0-.583-.003c-1.9 2.565-9.388 12.693-12.963 17.536l.184.627Zm35.53 13.257c-9.885.005-13.638-3.917-12.283-10.442l2.589-12.457c.504-2.428 1.564-4.495 3.198-6.135-2.593 1.791-4.2 4.34-4.858 7.507l-2.588 12.456c-1.356 6.525 2.397 10.447 12.283 10.442 6.224-.003 10.669-1.563 13.439-4.343-2.77 1.913-6.672 2.969-11.78 2.972Zm11.893-20.947c.915-4.517.013-7.208-7.564-7.204-3.107.001-5.256.48-6.783 1.36 1.49-1.752 3.986-2.729 8.443-2.73 7.578-.005 8.478 2.686 7.564 7.203l-2.282 11.27c-.528 2.612-1.428 4.608-3.557 5.833.991-1.165 1.534-2.666 1.897-4.46l2.282-11.272Z" fill="#C92335"/><path d="M36.562 130.58h1.6v.35h-.59v1.627h-.417v-1.626h-.593v-.35Zm2.794 1.554.357-1.553h.594v1.976h-.385v-1.337c0-.038 0-.092.002-.162l.001-.16-.375 1.66h-.399l-.372-1.66a14.246 14.246 0 0 0 .002.322v1.337h-.384v-1.976h.6l.36 1.553Z" fill="#060403"/></g></svg>