<svg width="200" height="200" xmlns="http://www.w3.org/2000/svg"><g fill="none"><path d="M9.666 103.37c-.792-29.408 18.863-55.8 49.177-71.422C23.263 46.104-.57 73.271.253 103.827c.85 31.59 27.827 58.146 66.11 69.812-33.156-13.575-55.873-39.696-56.697-70.268" fill="#D2103E"/><path d="M74.334 170.372s-3.38-6.56-3.118-14.276c.263-7.716 5.708-15.912 6.92-15.393 5.514 2.361 10.587 5.534 13.912 7.445 3.323 1.916 17.223 11.887 33.968 14.675 7.357 1.227 4.292 1.004 11.731 1.642 6.108.519 14.414.653 20.982-4.466 3.013-2.35 7.943-12.427 9.613-16.35 0 0-.819-20.967 13.107-41.223 0 0 13.25-6.215 12.214-16.428 0 0 3.709-5.022 5.32-9.122 0 0-9.487-8.406-19.87-15.633 0 0 .332-1.358.727-3.137 0 0-7.135-7.096-24.369-16.282 0 0-21.91-12.714-50.63-12.932 0 0-69.69-5.703-85.48 57.185 0 0-14.185 63.342 54.973 84.295" fill="#173A79"/><path d="M178.353 103.083l-7.75 11.7.484-8.079-2.29 3.276-1.08-3-2.094 3.482-1.07-3.199-8.178 13.338-.153-11.982-15.935-5.807s25.56 4.456 38.066.271m-13.83 37.227l1.145-10.032-4.801 7.336-.543-1.401-1.64 1.719-1.51-2.03-1.477 2.715-1.632-9.736-4.378 12.089c.002.002-2.12 1.424-5.42 1.88-3.35.462-7.878-.037-7.878-.037l-18.368-.414s30.287 7.756 46.502-2.089" fill="#FFF"/><path d="M105.55 125.666s1.94 2.226 8.403 4.453c0 0-4.854-4.497.934-6.173 0 0 2.463-.876 3.63 1.227 0 0 1.108 10.528 14.656 14.674 0 0-27.073 4.914-27.623-14.18m-38.686 36.519s-10.1-13.343 7.63-23.857l-11.607-5.201s-6.746-4.237-10.205 3.113c0 0-4.066 8.45 1.815 15.282 0 0 7.215 8.04 12.367 10.663" fill="#FFF"/><path d="M57.363 38.862s-.824-6.597 7.834-3.711l1.031.825s-7.215 3.092-8.865 2.886" fill="#173A79"/><path d="M130.359 51.853l-3.55 9.289 31.871 6.028-11.674-6.337-6.903.724 1.467-3.597-11.211-6.107zm-90.048 57.37s.605-.97-.122-2.319c-.725-1.348-1.007-1.52-1.764-1.246-.758.273-1.281 1.745-1.335 2.462-.054.714.525 1.672 1.303 2.304.778.634 2.08-.204 1.918-1.2zm-8.037-9.927s.38-1.526-.966-2.941c-1.346-1.418-1.746-1.515-2.559-.82-.811.699-.918 2.828-.731 3.775.188.949 1.222 1.925 2.38 2.394 1.157.47 2.423-1.192 1.876-2.408zm4.871-12.507s1.185-1.48.633-3.544c-.556-2.067-.892-2.337-2.057-1.92-1.165.42-2.409 2.665-2.733 3.758-.32 1.09.16 2.56 1.039 3.53.876.975 2.999-.297 3.118-1.824zm5.637 11.284s.424-1.687-.771-3.18c-1.195-1.492-1.563-1.587-2.35-.786-.79.8-.98 3.142-.847 4.17.135 1.03 1.055 2.056 2.113 2.52 1.059.464 2.311-1.417 1.855-2.724zm-9.573 15.155s.46-1.841-.907-3.484c-1.366-1.65-1.782-1.753-2.667-.885-.881.865-1.078 3.423-.914 4.552.16 1.128 1.213 2.26 2.415 2.777 1.204.52 2.602-1.522 2.073-2.96zM88.744 46.81s-19.153-5.686-21.153-5.822c-1.252-.087-.455 7.191 10.106 20.629 10.556 13.432-6.238-20.898 11.047-14.807zm79.171 46.648s-41.267-7.898-74.495 9.996c0 0 38.515-15.81 71.448-7.63l3.047-2.366zm8.226-6.075s-62.074-11.57-106.281 15.29c0 0 50.804-23.974 102.727-11.399 0 0 2.271-2.497 3.554-3.89zm15.787-2.088c-.835 10.787-10.06 14.172-10.06 14.172 7.248-6.376 6.888-16.227 6.888-16.227l4.711-5.306-12.926-.945 7.478 6.383c-1.65 10.102-9.414 17.043-9.414 17.043-1.65 1.169-3.642 1.375-3.642 1.375-6.872 2.061-25.563.137-25.563.137-5.911-.824-9.69-.206-9.69-.206-33.673 4.674-36.815 25.299-36.815 25.299-.873 12.034 12.556 16.002 12.556 16.002 28.45 9.758 49.837-.615 49.837-.615-2.39 12.374-9.98 17.588-9.98 17.588-7.215 4.261-16.492 2.474-16.492 2.474-6.46-.48-17.593-4.398-17.593-4.398-11.957-3.641-32.229-17.043-32.229-17.043-10.789-7.147-26.586-11.472-26.586-11.472-17.102-8.31-5.6-27.748-5.6-27.748-34.867 33.108 1.84 58.89 1.84 58.89-43.127-21.905-36.14-69.732-36.14-69.732 6.906-36.181 35.425-48.894 35.425-48.894 2.474 6.391 14.431 21.51 14.431 21.51.825 1.03 1.581.275 1.581.275-.687-1.58-4.673-7.698-4.673-7.698-7.491-9.483-10.102-17.11-10.102-17.11-.894-3.162 1.925-2.612 1.925-2.612 1.1.07 13.4 1.718 13.4 1.718 1.993.206 20.41.825 20.41.825-.825-.138-21.853-3.093-21.853-3.093 12.37-3.917 27.005-3.985 27.005-3.985 28.45-.069 50.24 9.92 50.24 9.92 4.059 1.675 27.691 16.493 27.691 16.493-.55.162-1.213 3.7-1.213 3.7.78.426 20.131 15.553 20.131 15.553-.459 1.341-4.978 7.727-4.978 7.727z" fill="#FFF"/></g></svg>