<svg width="200" height="200" xmlns="http://www.w3.org/2000/svg"><g fill="none"><path d="M143.855 117.617c-.153.055-.753.42-.713.444-.05.164 1.315.622 1.427.567.108-.055-.05-.948-.086-1.126-.03-.187-.472.054-.628.115m-29.842-47.286c.58 2.711 3.526 2.88 3.526 2.88-1.316-.59-3.053-4.092-2.525-6.95 0 0-1.568 1.266-1.001 4.07m-52.284 8.755c-1.046-2.237-1.364-1.972-1.364-1.972s-1.773 3.247-2.82 6.837c-1.078 3.19-.973 7.766-.6 10.239 1.049 4.325.973 5.903 3.512 9.71-.147-2.713-1.415-9.262-.522-13.308.898-4.032 3.439-8.663 1.794-11.506m-2.214-27.898c-.872-1.085-2.393-1.862-3.082-1.886-1.196-.095-2.946.925-3.68 1.654-.74.736-1.938 2.122-1.75 2.671.457.646 2.852.064 4.968.096 2.048.029 4.145.736 4.514.092.229-.42-.093-1.545-.97-2.627m10.587 20.238c-.587-2.384-1.56-4.63-2.77-6.718-.178-.266-.647-.856-.913-.266-.56 1.593-1.502 3.062-2.24 4.536-.175.297-.325.685-.03.948.941.59 3.22 3.029 4.005 8.026.783 4.988-.337 10.028-.337 10.028s4.146-7.231 2.285-16.554" fill="#FFF"/><path d="M119.597 138.517c-.987.596-1.718 1.46-2.798 1.055-2.175-.885-4.228-.614-4.228-.614s-2.44-.327-2.616-.838c-.166-.504.238-.7.348-1.11.13-.521-.063-.91.224-1.206.287-.287 1.411-.287 2.182-.746.664-.389 1.175-.885 1.59-1.287.145-.141-.046-.064.862.619 1.167.886 4.18 2.268 6.82 2.836-.229.116-1.904 1.002-2.384 1.29zm12.454-75.42c-.372 1.648-1.416 1.71-2 3.364 0 0-1.415-1.039-1.615-2.943-.196-1.405-.166-2.891.308-4.458.478-1.57 2.999-3.73 2.999-3.73s-.31 1.795-.283 3.31c.033 1.514 1.01 1.762.59 4.457zm-5.475.32c.072.628.518 1.702.518 1.702l-.34.334c-.97-2.604-1.566-5.074-1.753-6.122-.033-.202 2.15-1.685 2.15-1.685s-.17.472-.188.512c-.515 1.702-.639 3.448-.387 5.259zM92.51 67.759c-.523-.304-1.517-1.817-1.496-3.248.002-.193 1.575-2.468 1.91-3.308.15.659.393 1.585.414 2.19.025.675-.7 3.574-.828 4.366zm-2.17 1.5s-2.577-1.306-3.512-2.285c-.935-.961-1.755-2.906-1.196-4.963.562-2.05 2.318-2.616 2.84-4.181.3-1.272-.337-2.842-.337-2.842s1.905 1.383 2.538 4.072c.639 2.687-2.09 3.735-2.123 5.716-.042 2.65 1.79 4.483 1.79 4.483zM85 82.597l-3.378-1.383c.008-.137.155-3.16.17-4.273C83.186 80.717 85 82.597 85 82.597zm.663 6.774l-4.736-.434 3.525 3.861c.261.31.82.768.82.768l-.926-.037s1.659 2.276 2.386 3.145c.732.87 1.433 1.429 2.252 2.028a44.462 44.462 0 0 0-3.96 3.394c-.922.895-1.757 2.184-2.646 3.558-1.529 2.361-3.675 5.29-5.548 5.02-.239-.032-1.092-.568-1.777-1.982-.8-1.67-2.168-6.378 2.423-13.998 2.852-4.848 3.577-7.411 4.032-12.494l1.638 3.436c1.678 3.029 2.517 3.735 2.517 3.735zm-40.198 31.69c.733-.794 1.613-1.563 2.615-2.091-.84 1.009-1.555 2.036-2.08 3.03-.169.326-.35.596-.535.862-.666.947-1.36 1.508-1.622 1.687-.339.225-.839.125-.9.17 0 0 .915-1.912 2.522-3.657zm16.481 11.837a13.1 13.1 0 0 0 1.67-.28c-.07.147-.145.28-.219.398-.193.187-2.024 1.259-2.412 1.515.115-.202.766-1.345.961-1.633zm113.644-8.963c-2.173-.172-8.35-1.252-13.874-2.983l-1.928-.6c1.375-.62 2.14-1.963 2.648-2.864.157-.273 1.047-1.889 1.165-2.183.123-.297-.83-.297-.567-.614a3.33 3.33 0 0 0 .653-.26c1.508-.79.8-1.73 1.249-2.08.19-.14.335-.302.443-.433.978-1.268.351-3.294-.11-4.392-.534-1.265-1.677-2.19-1.677-2.19.293-.094.59-.186.84-.263 1.337-.42 2.6-.816 3.463-1.438.762-.567 1.07-1.437 1.07-1.437.096-.046.196-.092.29-.132 1.434-.654 4.426-2.02 5.437-6.331l.765-3.31-3.274.894c-8.716 2.39-14.118 3.116-21.4 3.193-8.234.094-16.068-1.127-16.068-1.127 1.165-.778 4.53-2.913 6.096-3.488 1.396-.522 3.866-1.173 5.133-1.026-.016.8.14 1.584.473 2.324.681 1.506 2.01 2.477 3.413 2.524.027.008 4.904.684 8.562-3.021.353-.352.535-.654.775-.609.978.18 1.653.219 1.86.228l7.581-.172-2.933-2.417 5.528 2.27-3.019-5.167c-1.415-2.408-2.377-3.036-3.588-3.658-.187-.103-2.05-.538-2.043-.996a3.993 3.993 0 0 0-.437-1.855c-1.147-2.82-2.716-4.607-5.093-5.797-1.716-.855-3.221-1.164-4.877-.986-3.04.318-3.72 1.639-4.167 3.13-1.094.016-2.176.14-4-.52-1.824-.652-7.803-11.047-7.891-11.202 0 0-.28 1.741-.729 4.05-.44-.578-1.902-2.807-1.902-2.807a8.486 8.486 0 0 0 1.15-3.084c.316-2.036.008-3.108-.378-4.108-.134-.358-.182-.491-.182-.715-.027-1.3 1.195-8.453 1.195-8.453s-4.456 3.815-5.896 5.056c-1.139-.287-3.6-.877-4.438-.877l.17-2.215.38-3.442-3.182 1.362c-3.179 1.36-4.373 5.049-4.8 7.092a22.21 22.21 0 0 1-.657-.87c-.78-.917-1.448-1.437-1.976-1.85-.452-.34-1.087-1.11-1.21-1.26-.08-.146-.768-2.42-.73-5.56-.038-1.166-.171-3.395-.171-3.395s-3.641 5.999-3.704 6.155c-.28.696-.545 1.752-.545 1.752s-1.293-1.537-2.474-2.469c-1.18-.94-5.745-3.807-5.745-3.807l3.213 6.658c1.13 2.128.794 3.72.794 3.72-1.573-1.538-3.36-2.897-3.433-2.952l-5.45-4.086 2.34 6.401c.413 1.135.58 2.426.627 3.614-1.165-.917-3.014-1.873-3.219-1.958 0 0-1.915-.777-3.113-1.242-.928-1.525-2.083-2.51-2.257-2.634 0 0-5.588-4.057-5.584-4.04l2.518 6.424c.168.427.342 1.228.296 1.46-.09.282-.4.591-.781.986-.696.709-1.651 1.696-2.094 3.318-.758 2.773.152 5.353 2.1 7.303l.682 6.232a692.27 692.27 0 0 1-5.395-2.929 26.787 26.787 0 0 0-2.224-7.303c-1.864-4.585-5.302-8.997-10.147-11.007-.765-2.558-1.983-4.53-3.712-6.007-2.066-1.757-4.638-2.756-7.595-2.906-2.386.054-4.78.661-7.048 1.615a27.09 27.09 0 0 0-5.317 3.03 27.027 27.027 0 0 0-4.064 3.574 19.096 19.096 0 0 0-8.077 3.202c-6.37 5.81-12.609 9.726-18.636 11.613l-.32.077-3.53.878c.702 1.065 3.215 2.96 3.215 2.96.1.08.215.133.315.203 3.371 2.401 8.076 2.197 11.576 1.111 5.315-2.114 6.103-2.76 6.103-2.76a113.115 113.115 0 0 1-3.794 5.2s-1.513 1.91-2.666 3.184c0 0 1.965.055 3.02-.07 1.058-.122 4.986-1.001 6.417-1.865 1.432-.862 5.285-3.603 5.325-3.635 1.033-.823 3.74-4.506 5.116-6.23.474-.606.796-.978.827-.91.636 1.39 1.862 2.812 2.867 3.535.15.11.87.544 1.623 1.017.885.544 1.83 1.143 2.002 1.321-.498 1.818-1.324 5.043-2.002 7.638-.492 1.895-.905 3.464-1.059 3.905-1.163-1.1-2.534-2.065-4.258-2.724a13.216 13.216 0 0 0-2.697-.716c-4.19-.66-8.921 1.75-12.643 6.424-2.485 3.038-3.847 7.358-3.882 8.818-.089 2.353-1.859 3.076-2.465 3.254-1.276-.007-2.19-1.079-2.187-1.079l-2.751-3.471-.821 4.358c-.391 2.096.024 6.495 4.563 8.196 1.731.512 5.042-.093 7.144-4 .696-1.602.908-3.163 1.079-4.415.042-.325.083-.619.127-.892.155-.925.565-1.835 1.266-2.93 1.786-2.292 4.368-3.324 7.017-2.842 2.391.52 4.393 2.182 6.25 4.115.156.172.315.337.474.507-.159 0-.318.022-.474.037-3.201.234-6.292 1.386-9.562 3.551-4.79 2.938-8.63 8.997-8.403 14.394.066 3.91.854 7.763 1.006 7.756 0 0 .786-3.038 2.359-6.526 2.809-4.942 7.07-7.396 11.99-7.467.892-.047 1.76.022 2.61.172.987.17 1.957.443 2.918.792-.994.405-1.978.901-2.918 1.5a13.68 13.68 0 0 0-2.373 1.886c-2.567 2.573-3.872 6.138-3.99 10.9 0 0 .163 2.372.67 3.854a10.998 10.998 0 0 0 1.29 2.587c.674-1.576.927-2.02.927-2.02s.984.808 2.182 1.008c.458.095.888.164 1.294.227 1.218.18 2.2.231 2.977.217-.968 1.352-1.579 2.306-2.977 3.373-.353.27-.75.55-1.227.846-2.36 1.46-5.407 2.004-5.395 2.028 0 0 2.023 1.793 4.27 2.018a26.58 26.58 0 0 0 2.352.142c1.69.023 3.627-.163 5.317-.972a6.36 6.36 0 0 0 1.092-.63s.164 1.01-1.092 2.37c-.2.21-.424.435-.701.669l.701.078 1.877.216c1.008.217 4.003-.403 6.122-1.6a3.879 3.879 0 0 0-.332 1.12c-.116.86-.596 2.479-.976 3.766-.794 2.689-1.214 5.748-1.214 5.748s3.898-.852 5.778-2.258c1.006-.764 2.26-1.702 3.061-2.115 1.163-.598 1.788-1.67 2.16-2.865 0 0 1.518-.218 1.971-.388-.77 1.863-1.56 3.075-1.566 3.085l-4.35 6.522 6.962-3.612c.14-.068 3.493-1.825 5.8-5.174.208-.302.41-.597.599-.893-.003.164-.548 4.686-.548 4.686l3.68-2.51a5.493 5.493 0 0 0 1.032-1.002l1.63.131c1.266.094 3.138-.628 3.853-2.88 2.359-.15 7.607.551 8.597 1.832 1.997 2.588 2.951 3.156 4.18 3.728 1.005.522 2.61.848 3.866.987.733.085 1.498.171 2.31.365 1.403.233 4.91 1.687 4.919 2.004-.023.722-.41 2.595-2.772 6.846-.366.658-.567 1.072-2.156 3.976 0 0 .595-.101 1.372-.257 1.92-2.46 6.529-9.796 4.767-11.87-1.267-.83-4.56-2.322-6.286-2.6-1.858-.468-3.986-.358-5.142-.948-1.158-.6-1.754-.57-3.92-3.372-2.168-2.797-12.067-3.023-11.917-2.129-.216 2.532-1.942 2.393-1.942 2.393s.59-4.149-1.765-4.034c.062.023.163.28-.354 2.138-.644 2.308-1.826 3.115-1.826 3.115s.213-1.78-.483-3.712c-.61-1.688-.309-1.602-1.022-2.58-.161.907-.7 2.58-2.742 5.53-2.042 2.963-5.049 4.521-5.049 4.521s1.18-1.778 2.149-4.458c.967-2.688.269-4.787.269-4.787s-.415 1.152-1.653 2.176c-1.237 1.026-2.065 1.126-2.065 1.126.6-1.203 1.387-3.27 1.3-5.133-.18-.233-.531-.087-.77 0-.795.45-1.542.387-2.27 1.568-.724 1.182-.243 5.794-2.122 6.766-1.881.964-5.159 3.87-5.373 3.605-.215-.272 1.398-4.677 1.666-6.673.268-1.982 4.137-3.17 4.942-4.297.807-1.126 1.437-3.635 1.106-4.14-.327-.49-2.688.823-4.856.823-.971.08-1.937 2.978-2.913 3.815-1.65 1.506-5.588 2.221-5.676 2.013 3.735-3.208 3.235-5.393 3.235-5.393-2.09.38-3.564 2.3-5.599 2.978-2.24.976-7.955 1.062-7.927.83.59-.358 1.296-.474 1.915-.802 2.738-.883 4.416-3.067 5.912-5.235 1.493-2.166 2.314-3.287 7.768-3.208.598.147 3.66-3.148 2.839-3.814-1.195-.52-3.308.13-3.663.078-1.493.294-3.657 2.912-4.928 3.434-3.065 1.117-4.157 1.226-7.427.699-.086-.086 1.71-.81 3.035-3.335 1.327-2.523 4.157-5.42 6.985-7.223l.06-.117c-.528-.441-1.387-.231-2.034-.294-5.04.38-9.608 4.132-11.731 8.638-.47-.117-.205-.802-.323-1.152.088-3.572.871-6.975 3.388-9.491 2.521-2.526 5.777-3.45 8.992-4.366.144-.116.113-.265 0-.38-3.331-1.592-6.782-3.24-10.76-3.039-5.658.086-10.905 3.566-13.234 8.7-.293.119-.204-.293-.265-.448.562-5.066 3.245-9.907 7.724-12.64 2.977-1.981 6.22-3.396 10.047-3.31 1.213 0 2.3.271 3.42.381.179-.079.088-.32-.028-.412-3.064-3.326-6.129-7.543-10.757-8.546-3.566-.653-6.838.762-9.021 3.566-.84 1.282-1.433 2.485-1.658 3.83-.227 1.343-.317 3.1-1.064 4.824-1.494 2.757-3.755 3.13-4.707 2.858-3.956-1.498-3.135-5.873-3.135-5.873s1.566 1.982 4.032 1.835c0 0 4.032-.838 4.2-5.213.021-.893 1.178-4.824 3.418-7.566 2.772-3.48 6.863-6.3 10.736-5.696 3.87.614 5.982 2.742 8.133 5.486.237.147.325-.202.354-.35 1.033-5.136 3.808-15.079 4.084-15.809-.221-.786-3.77-2.687-4.704-3.365-.936-.675-2.093-2.167-2.39-3.206-.3-1.051-.04-3.365-.04-3.365s.86 1.716 4.37 3.208c1.608.708 5.016 1.127 5.016 1.127l1.765-4.072s.746-1.576 1.207-2.314l-.613-.334c-2.195-1.367-9.06 1.181-12.827 1.576-1.473 2.672-4.142 7.28-7.714 11.04-1.504 1.38-2.093 2.09-4.253 3.426-2.163 1.336-4.192 1.973-4.556 2.066-.37.094-1.476.74-1.889.28 3.085-2.075 5.66-4.01 6.12-6.496.462-2.485 1.841-5.063 2.625-6.447-.206-.147-.92.877-1.656 1.384-3.742 2.92-6.03 3.753-10.246 5.438-3.154.97-7.22 1.033-9.874-1.034-.06-.087-.06-.294 0-.39 7.132-2.237 13.44-6.656 19.13-11.848 2.3-1.59 4.862-2.563 7.663-2.92l.352-.115c3.93-4.14 8.81-7.551 15.325-7.985 2.302.11 4.452.908 6.22 2.406 1.8 1.54 2.741 3.629 3.273 5.757.529.414 1.148.646 1.68.94 3.857 2.037 6.749 5.664 8.31 9.495 2.182 4.683 2.659 9.072 2.21 15.203-.45 6.129-.898 8.07-3.886 13.152-7.02 11.66-1.855 18.93 1.048 18.98 4.51.65 7.135-6.729 9.617-9.121 2.483-2.388 5.164-4.429 6.343-4.78-.97-.83-3.141-1.715-4.032-3.013 0 0 5.488.233 7.258-.59 0 0-7.149-.537-10.05-3.714 0 0 9.745.885 9.735-.195 0 0-7.372.683-10.698-6.43 0 0 4.24 1.738 5.748 1.085 0 0-6.131-5.204-7.46-10.961 1.3.644 10.96 7.001 12.177 6.673 0 0-6.6-4.577-7.03-10.384 0 0 6.196 6.726 10.875 6.455 0 0-5.004-5.27-4.93-8.073.075-2.798 1.043-4.218.971-6.198-.073-1.982-.95-4.515-.95-4.515s1.622.63 2.78 1.708c1.157 1.09 2.078 2.961 2.575 3.404.326-.327 1.274-5.463-.147-9.338 0 0 1.642 1.229 3.136 2.69 1.493 1.45 2.241 4.333 2.241 4.333s2.56-5.228.298-10.24c0 0 1.178 1.385 1.796 1.943 1.907 2.129 2.387 4 2.387 6.58 0 2.573-1.358 4.35-.8 5.773 0 0 .35-.545 1.624-2.642 1.269-2.09 1.436-4.218.894-6.105-.537-1.89-.862-2.388-.84-3.817-.054-1.398.637-2.346.784-3.083.063-.084-.035 3.022.877 4.117.917 1.445 1.834 1.508 3.216 3.14 1.381 1.623 1.514 3.86 1.514 3.86s.853-1.398 2.462-2.758c.186-1.879 1.18-5.647 3.788-6.758-.426 3.9-.26 4.793-.26 4.793s.702-.18 1.533-.318c.825-.124 1.794.115 1.794.115s-1.25.747-1.645 1.173a64.189 64.189 0 0 0-1.233 1.439c.13.69.393 2.975 1.791 6.728 1.405 3.75 2.361 4.362 3.985 6.78.054-.025-1.914-4.716.168-5.493 0 0 .589 3.488 3.13 5.72 0 0-.334-2.464-.106-4.544 0 0 2.427 4.037 3.436 3.798 0 0 .795-1.049.732-2.563.544.953 3.65 7.767 6.926 8.8 1.971.917 4.923.505 5.824.645.894.14 1.795.17 1.765.083-.412-.462-1.053-.914-.871-1.847.186-.931 1.18-1.289 2.243-1.406 1.066-.109 2.182 0 3.752.784 1.572.785 3.029 2.021 4.146 4.826.474.824.093 2.034.395 2.33.522.38 1.693.737 2.314 1.088 1.214.738 1.905.637 3.437 3.254-2.467-1.016-5.005-.822-5.005-.822s.45.699 1.307 1.188c-.226.48-1.966-.303-2.053-.226.047.814 1.196 1.274 3.084 2.214l-2.788.071s-.856-.04-2.129-.334c0 0-1.155.598-1.863 1.305-3.327 3.364-6.28 2.471-6.99 2.43-1.647-.06-2.986-2.91-.968-5.376 0 0-6.724.894-8.853 1.679-2.128.786-6.5 3.697-6.5 3.697s.266-2.353-.333-2.245c-.828.357-2.133 1.128-2.352 2.208-.226 1.079.06 2.221.736 2.757 1.838 1.203 11.812 2.106 19.095 2.106 7.282 0 12.878-.793 21.874-3.264-1.032 4.438-4.502 4.717-5.29 5.5-.788.785-.061.732-.727 1.236-1.18.838-4.988 1.514-5.66 2.299-.675.777-.638.987-.638.987s.224.04.565.257c.336.233 2.164 2.02 2.465 2.735.293.706.352 2.586.09 2.92-.32-.225-.69-.458-.69-.458-.185.263.025 2.236-.37 2.439-.088-.506-.548-.644-.732-.644-.357.155.224.97-.648 2.353.049-.807-.529-1.757-.757-2.192-.233-.434-1.817-1.406-2.509-1.583-.69-.188-2.695 0-2.695 0s-1.683.964-1.964 1.793c-.282.833.701 2.472 1.116 2.62.407.153 3.847.651 5.338.278.21 0 1.008-.459 1.24-.738-.548 1.29-1.029 3.528-2.607 3.528-1.576-.008-4.774-.063-6.953-.653-1.123-.674-1.667-1.36-2.406-2.368-.441-.228-.017 3.937.272 4.052 2.478.856 7.37 2.31 11.051 3.318 3.68 1.011 12.272 2.65 14.84 2.86 3.135.855-9.078 3.605-9.195 3.76.441.318.973.125 1.412.646 1.732 4.854-9.047 2.974-11.14 3.512l-.094.085c.537.44 1.863.82 1.863.82-1.974 1.936-9.738 2.388-13.923 2.085-4.184-.296-10.442-2.037-10.442-2.037.15.294 1.87 1.687.882 1.74-.992.056-4.392.064-7.26-.278-2.863-.343-8.597-2.23-10.223-3.459-1.625-1.236-2-1.366-2.543-1.195-.535.17-1.23 1.189-2.143 1.724-.914.544-2.15.49-2.634.862-.482.38-.378 1.071-.698 2.315-.326 1.235-.807 2.152-.756 2.526.056.372 2.152 1.288 2.152 1.288l2.317.598s3.037-.464 4.305.631c2.128.441 3.997-1.313 5.526-2.02 1.53-.716 2.95-1.672 3.96-1.678 1.007-.01 6.577 4.179 6.91 4.886.335.708 1.384 7.062.52 6.806-.185-.41-.596-.302-.596-.302s.037.822-.412 1.008c-.068-.224-.56-.412-.56-.412s-.516 2.175-2.569 2.123c.596-2.09.123-2.736.123-2.736s-1.197.832-2.425.092c1.566-.55 1.045-2.454 1.045-2.454s.091-1.281-1.702-1.506c-1.79-.227-3.545.294-4.217.97-.675.675-.705 2.953-.185 3.891.518.924.633 1.071 1.417 1.561.786.493 1.122.818 2.093.732.97-.092 1.451-.162 2.236-.683.49 1.227-1.291 2.182-1.291 2.182-1.956 1.32-6.025-.024-6.886-1.7-.859-1.688-1.095-4.493-2.315-5.61-.294-.38-2.22-.464-2.24-.147-.518 6.075-4.746 9.632-7.775 11.295.987-.201 2.189-.49 2.927-.785 1.415-.584 1.028-.52 2.32-1.358 1.291-.842 4.256-4.702 4.529-6.285.06-.383.857 2.913 1.281 3.745.706 1.374 2.381 2.515 4.484 3.058 2.06.53 4.01.312 5.355-.596l1.708-1.664 1.348-.318c2.059-.475 2.409-2.206 2.58-2.151.38.107 1.016.28 1.131.248l.862-1.003c1.635-1.894-.365-8.895-.394-8.956-.254-.53-1.88-2.045-3.59-3.334 1.214.017 2.538.023 2.96 0 .97-.055 1.781-.977 1.781-.977 2.22.512 5.17 1.108 7.555 1.281 3.09.218 12.587.202 15.514-2.658 0 0 .147-.42.357-.42 3.582.064 7.47.018 9.14-2.298.535-.746.644-2.687.644-2.687 6.477-1.748 8.174-2.572 8.185-4.53 0-.412-.135-1.81-2.004-2.322z" fill="#FFF"/><path d="M157.172 109.974c-1.015-.139-2.098.69-2.098.69s1.636-.054 2.052.087c.41.14 1.909.807 2.785 1.732.227.233.368.411.552.987.203-.738.022-1.195-.138-1.429-.374-.638-2.144-1.935-3.153-2.067" fill="#FFF"/><path d="M155.146 107.3c.372-.077 3.548-.154 4.068.226.52.374 2.884 2.106 3.135 2.929.134-.83.134-1.334-.185-1.77-.372-.675-1.981-2.19-2.467-2.501-.483-.32-5.74-.459-6.468.069-.732.536-3.046 2.891-3.046 2.891s-2.101 2.08-2.625 2.244c-.526.156-.518.086-.783.201-.263.11.443 3.746.706 3.746.264 0 1.064-.607 1.382-.365.318.24.754.846.754.846s1.101 1.133 1.683 1.639c.119.18 4.515.755 6.57.714.364 0 1.118-1.453 1.118-1.453-1.108.693-5.458.008-5.986-.178-.52-.194-1.771-2.578-1.607-3.502.16-.925 2.485-2.45 2.485-2.45s1.194-.822 1.561-.96c.65-.274 1.521-.274 1.521-.274s.793.077 1.505.304c.709.226 2.835 1.802 3.053 2.734.186-.832.186-1.616-.14-1.833-.364-.56-2.204-2.213-2.649-2.44-.45-.21-3.997-.186-4.075-.294-.071-.11.113-.453.49-.522m-9.228 4.444c-.415-.077-1.336.343-2.116.457-.6.087-1.112 1.02-1.26 1.352-.154.334.303.84.497 1.655.193.816-.108 1.864.22 1.864.34 0 .712-.596 1.27-.783.566-.187 1.647-.265 1.947-.412.299-.147 0-1.05-.075-1.717-.078-.668-.076-2.338-.483-2.416m-.34 7.148c-.147.444 1.647.815 1.942.668.294-.15-.06-2.533-.147-3.023-.094-.497-1.61.03-2.02.186-.412.141.115 2.09.225 2.17m-3.466-1.406c.298-1.726-.052-3.318-.648-3.359-.707-.147-4.621.614-4.815.956-.184.334 5.35 2.805 5.463 2.403m-33.286 23.242c-.861-.434-1.583-1.073-1.961-1.073-.377 0-2.071 2.424-2.016 2.752.056.318 1.78.637 2.805 1.063 1.017.428 2.42 1.064 2.74 1.064.326 0 1.388-2.54 1.01-2.968-.163-.327-1.715-.411-2.578-.837m5.21 5.771s-1.057.295-1.736-.062c.752 3.217-3.761 9.695-3.761 9.695 1.103-.274 5.126-3.954 5.497-9.633m1.964-.84c.374.14 1.476-.156 2.292 1.564.826 1.497 1.255 4.558 2.077 5.273.82.709.899.932 2.912 1.345 1.98.184 2.8-.095 2.915-.623-2.392.491-3.533-.613-3.533-.613s-1.248-.769-1.734-1.85c-.488-1.079-.634-2.896-.336-3.642.3-.746.565-1.61 1.566-2.02.714-.296 1.629-.67 2.86-.67 1.23 0 2.374 0 3.306 1.012.314.443.405 1.4.405 1.608.154 1.204-.4 1.755-.4 1.755s1.044.18 1.259-.862c.308.83.458 1.291.49 2.922 0 0 1.6-1.306 1.076-3.14 0 0-.478-2.586-1.445-3.744-.927-1.12-3.314-2.23-4.175-2.269-.851-.038-3.78 1.563-4.06 1.19-.287-.367 3.232-2.417 4.435-2.362 1.196.07 3.732 2.067 4.48 2.89.785 1.048 1.367 3.332 1.483 5.164 1.569.149.597-4.676-.185-5.677-.525-.599-4.972-4.359-6.276-4.09-1.31.26-5.341 2.724-6.499 3.25-1.256.567-2.513.125-2.749.226-.261.11.227.816 0 1.788-.221.969-.536 1.419-.163 1.575m-1.122 0c.478-.17.821-2.563.672-3.31-.15-.744-2.743-.846-3.195-.621-.336.04-.434 1.167-.618 1.741-.255.83-.778 1.328-.56 1.624.345.853 2.657.932 3.7.566m46.105-58.941c.48-.06 1.788.15 2.385.227.597.07 1.544.444 1.544.444s-.27-.904-1.99-1.765c-.859-.411-1.842-.986-2.44-.838-.597.147-1.819 1.84-2.045 2.549-.225.705-.203 2.127 1.064 2.577 1.42.334 2.245.196 2.245.196s-1.833-.28-2.469-1.849c-.334-1.12 1.235-1.486 1.706-1.54m-124.168-.931c3.707-.645 6.608.106 10.533 3.06 0 0-2.58-4.405-6.073-4.676-2.632-.1-4.46 1.616-4.46 1.616m2.098 17.316c3.978-.917 9.67-1.298 12.955.496 0 0-1.616-2.758-4.786-2.81-3.175-.055-8.17 2.314-8.17 2.314m34.545-13.93c1.4-2.182 2.465-5.975 2.482-12.01.021-6.035-2.185-12.803-6.143-15.567 3.585 5.53 5.827 15.995 2.69 23.763-.363.94-4.781 8.827-2.837 12.336.892-3.588 2.089-5.904 3.808-8.522m-10.831 4.632c-.224 6.805 2.837 7.776 2.837 7.776-1.869-5.603-1.27-13.378.525-18.46 0 0-3.14 3.885-3.362 10.684" fill="#FFF"/><path d="M46.292 65.732c-.031-.07-.353.303-.827.908v13.783c1.724.66 3.095 1.623 4.258 2.724.154-.44.567-2.01 1.06-3.905v-8.959c-.754-.473-1.474-.907-1.624-1.017-1.005-.723-2.23-2.145-2.867-3.534" fill="#961730"/><path d="M188.693 40.695l-40.026-38.9H53.533L9.05 45.02v112.01l44.483 43.223h95.134l40.026-38.899v-18.806H146.96v16.462H50.782v-20.47l-.701-.078a8.58 8.58 0 0 0 .701-.67v-1.739c-1.69.809-3.626.995-5.317.972v27.156H152.28v-16.469h31.1v11.508l-36.917 35.859H55.739l-41.37-40.187V71.706c-.101-.07-.215-.123-.316-.202 0 0-2.513-1.896-3.215-2.96l3.53-.88V47.157l41.37-40.185h90.724l36.918 35.867v11.496h-31.101V37.867H45.465v11.332a27.09 27.09 0 0 1 5.317-3.03v-3.13h96.179v16.47h41.732V40.694" fill="#961730"/><path d="M45.965 95.75c-.168-.17-.335-.335-.5-.507v.544c.165-.015.332-.037.5-.037m2.418 12.709a16.98 16.98 0 0 0-2.918-.792v2.292a18.253 18.253 0 0 1 2.918-1.5m-2.918 23.531c1.398-1.066 2.01-2.02 2.977-3.372-.777.014-1.759-.037-2.977-.217v3.59m0-10.929v1.8c.184-.266.366-.536.536-.862.524-.994 1.238-2.021 2.079-3.03-1.002.528-1.882 1.297-2.615 2.092M47.78 52.2c-.739.366-1.767.994-3.202 2.362-1.946 1.707-3.84 5.514-4.167 6.065-.318.553-4.186 6.681-4.416 9.393-.6 3.365-2.531 4.42-2.531 4.42 1.973-.94 5.157-4.28 6.86-6.578 2.486-3.149 4.047-6.311 5.968-9.853.942-1.622 2.867-4.886 4.2-6.362.471-.472-1.977.186-2.712.552M63.53 66.3c1.356-2.246 2.33-4.662 2.505-7.436-.147-1.615.032-3.324-.735-4.778-1.267-2.733-2.078-3.634-3.276-4.466-1.195-.833-4.142-1.702-4.119-1.149-.09.55 3.223.458 4.324 6.26.489 2.641-.273 3.597-1.38 6.052a19.3 19.3 0 0 0-1.414 3.069C56.4 70.75 54.013 77.944 52.657 85.58c-.503 1.414-.485 6.26-.192 7.706 1.24 6.074 3.187 9.643 6.577 14.8 2.003 3.185 7.104 6.207 11.653 7.177-9.626-5.757-10.907-9.423-10.907-9.423s-7.471-11.651-2.623-24.657c1.885-5.036 3.86-10.106 6.365-14.884" fill="#961730"/><path d="M49.897 55.19c-.417.278-.793.717-1.382 1.568-.06.148-1.191 1.79-1.013 1.936 3.803.086 9.389-2.944 12.983-.74.38-.085.332-1.062.395-1.356-.091-.444.088-1.185-.443-1.418a43.953 43.953 0 0 0-4.894-.357c-1.473.063-5.232.095-5.646.367M38.48 60.534c.506-.458.898-1.725 1.429-2.672 0 0 .318-.412-.461-.365-1.613.094-3.769 1.577-5.98 3.083-3.918 3.684-8.223 6.924-12.939 8.905-.587.38-1.324.412-1.885.792 3.27.147 6.159-.91 8.931-2.182 4.212-1.828 9.938-6.457 10.905-7.561m8.602 40.258c3.17.053 4.786 2.811 4.786 2.811-3.285-1.794-8.977-1.413-12.955-.496 0 0 4.994-2.37 8.169-2.315zm11.51 9.237s-3.63-7.008-5.079-8.672c-1.454-1.667-6.431-2.391-9.98-1.32-3.547 1.081-5.644 2.092-9.003 5.12-.473.623-1.296 1.275-1.504 2.036l.5-.264c4.664-3.294 11.617-5.422 25.066 3.1zm70.71-50.744c-.386.9-.558 2.072-.302 4.201.224 1.592.897 2.027.897 2.027.485-1.266 1.69-1.389 1.675-3.145.06-1.569-.362-1.741-.583-3.2-.171-1.065.054-2.41.054-2.41s-1.344 1.633-1.741 2.527m-12.575 3.845c-.796 1.244-1.137 3.666-.88 5.322.256 1.652 1.458 4.022 2.392 4.396.938.373 1.625.037 2.856.45 1.234.404 2.578.785 2.578.785-1.024-.94-3.892-3.21-4.124-4.39-.046-.106-.714-1.965-.372-4.878.37-3.215 3.843-7.498 3.843-7.498s-2.593 1.127-3.828 2.511c-1.327 1.21-2.237 2.851-2.465 3.302m-61.384 6.393c.26-.902.504-1.46.985-2.394.302-.372-3.02-.838-4.813-1.62-1.604-.701-2.915-2.132-2.915-2.132s.037.677.168 1.174c.187.708 1.178 1.648 1.848 2.245.899.816 4.652 3.022 4.727 2.727m65.061-13.991c-.39.956-.653 2.462-.653 2.462.618-.466 1.01-.677 1.738-.992 0 0-.092-.6-.115-1.36-.015-.763.115-1.795.115-1.795s-.695.728-1.085 1.685m33.359 21.184c-1.629-.397-3.137-.41-3.309.732-.17 1.14 1.178 1.849 1.178 1.849s1.734.116 3.863 1.397c2.132 1.29 3.306 2.594 3.306 2.594 0-.769-.098-1.693-.387-2.314-.568-1.677-3.029-3.86-4.651-4.258m3.68 6.471c-.448-.49-2.606-2.042-3.232-1.933-.635.117-3.476 2.36-3.476 2.587-.112.39.39 1.173.73 1.562.333.394.891.86 1.344.79.448-.076 1.134-.753 1.218-.885.14-.194-.14-.116-.396-.194-.993-.169-1.02-1.802.132-2.314.714-.327 1.876-.257 2.787 1.134.583.785 1.623 1.296 1.834 1.345.206.037.559-.406.504-.63-.115-.474-.995-.972-1.445-1.462m-8.947 9.13c.484.892 1.195 1.011 2.649.97 2.465.078 5.08-3.061 6.312-3.55.522-.335.413-.863.187-1.118-.224-.265-3.253-.382-4.257-.333-1.008.037-3.29.215-3.958.665-.374.187-1.42 2.47-.933 3.366M41.275 84.175c3.492.271 6.073 4.676 6.073 4.676-3.925-2.954-6.826-3.705-10.533-3.06 0 0 1.828-1.717 4.46-1.616zm-4.095 3.589c6.487-.055 10.905 5.126 14.974 9.556l.029-.243c-.38-1.264-3.386-13.92-10.965-13.944-3.815.032-7.25 2.805-9.194 6.128l.176.033c1.532-.793 3.096-1.53 4.98-1.53z" fill="#961730"/><path d="M154.43 87.571c1.274.038 2.354.262 2.765 0 .411-.266.124-.545.792-1.477.676-.939-1.358-.21-2.859-.654-.3-.108-1.104.654-1.707 1.144-1.453.838-2.012-.49-2.237-.335-.223.147-1.047 1.213-.783 1.4.259.184 2.758-.119 4.028-.078m11.711 12.406c1.535-.591 1.85-1.104 2.02-2.185-2.015.567-10.934 2.185-15.15 2.386-4.42.084-8.845.024-13.2-.295-2.391-.18-8.868-1.935-8.254-.76.93 1.644 4.05 4.792 4.416 7.006.366 2.215-.084 5.322-.366 7.666.236.507 3.97-.69 5.097-.853 1.17-.396 1.055-1.32 2.203-1.965.731-.28 3.185-.738 4.358-.8.279.116 2.059-1.64 2.337-2.144.334-.343-2.804.161-3.87-.063-.728-.055.066-.738.463-.738.392 0 3.74.348 4.078.124.338-.224 1.984-1.67 1.535-1.84-.447-.172-2.64.068-3.2-.101-.56-.173-.056-.562.67-.562.727 0 7.42.22 8.485.11.838 0 2.088-.934 2.392-1.849.171-.504-4.902-.257-6.11-.17-1.215.1-6.308.241-9.551-.023l-.267-.18c-.03-.084 0-.168.091-.168 6.456.147 15.898-.974 21.823-2.596M86.08 63.13c-.259 3.403 2.764 4.823 2.764 4.823s-1.081-1.646-.857-3.245c.448-2.325 2.168-3.218 2.239-4.678.076-1.453-1.232-3.542-1.232-3.542s.337.962-.337 2.353c-.634 1.12-2.391 1.749-2.576 4.289m-62.469 38.306c-1.496.07-2.969-.793-2.969-.793s.616 2.75 2.97 2.868c2.295-.055 3.696-2.471 4.032-4.428 0 0-1.344 2.182-4.033 2.353" fill="#961730"/><path d="M72.486 85.363c3.137-7.768.895-18.234-2.69-23.763 3.958 2.764 6.164 9.532 6.143 15.567-.017 6.035-1.082 9.828-2.482 12.01-1.72 2.618-2.916 4.934-3.808 8.522-1.944-3.51 2.474-11.395 2.837-12.336zm-7.023 16.222s-3.061-.971-2.837-7.776c.221-6.8 3.362-10.685 3.362-10.685-1.795 5.083-2.394 12.858-.525 18.461zm51.322-23.555c2.035-.91 6.353-.995 6.353-.995s-3.119.825-4.356 1.47c-1.236.642-2.152 1.42-2.107 2.065.047.636 3.463.552 3.463.552s-2.73 1.05-4.655.954c-1.925-.093-2.926-.178-3.076-.768-.156-.597 2.796-2.573 4.378-3.278zm14.074.925c.092 1.56-2.62 3.12-4.834 4.186-2.482 1.244-5.84 2.44-5.84 2.44s1.105-2.169 1.105-2.86c0-.682-.779-1.287-.779-1.287s2.207.138 4.457-.367c2.257-.506 5.89-2.112 5.89-2.112zm.316 5.281c-.288.623-2.973 4.792-4.646 5.99-1.955 1.475-5.6 2.914-5.6 2.914a34.683 34.683 0 0 0 2.891-2.991s-3.307-1.593-6.368-1.826c0 0 5.661-.66 7.284-1.242 1.63-.567 3.261-1.82 4.62-2.603.38-.288 1.82-.622 1.82-.242zm-38.37 44.771c1.046-1.647-.473-3.263-2.729-5.469-1.076-1.451-3.712-2.425-4.407-5.538-1.357-4.927 5.426-15.7 9.136-15.647-1.397 2.578-.324 5.749-.324 5.749s.565-3.753 3.555-6.293c3.883-3.894 8.732-5.89 10.122-6.541-1.293-.109-1.63-.054-1.852-.506-.446-.839.952-3.675 5.688-5.094-1.906.892-3.588 1.56-4.146 3.138-.45 1.173.193 1.622.193 1.622s1.12-1.063 1.849-1.567c.73-.506 2.732-.872 2.75-.84.168.388.054.722-.172 1.064-.226.334-.857.334-1.363 1.173-.298.52-.466 1.423-.187 1.757.283.342 1.497.077 2.169-.6.84-1.288.67-.815.895-2.275.278-1.742 1.569-2.075 1.569-2.075s-.225 3.023.279 3.535c.278-1.631 1.118-1.515 1.118-1.515s-.053 2.907.675 3.194c.112-1.571 1.065-1.461 1.065-1.461s.169 2.524.636 2.703c.202-.847.76-1.693.76-1.693s.621 2.183 1.01 2.517c.28-.553 1.065-1.4 1.065-1.4s.307 3.784 2.827 5.129c-.888-5.748-.342-6.137.458-6.48 0 0 .528 5.135 5.925 7.955 0 0-1.405-2.673-1.903-4.366-.49-1.685-1.35-5.584.132-7.076.411-.53-1.945.271-.9-.328 1.047-.596 5.287-2.253 5.49-1.933.263.389.054 1.451-.038 1.832 0 0 3.027-2.01 4.927-2.578 1.912-.553 9.583-1.507 9.583-1.507.336 0 2.02-1.686 1.963-2.137-.059-.442-.979-1.505-.895-1.787.186-.636 4.44-3.122 2.964-3.085-4.14-.568-8.63-.147-11.26-1.568-3.106-1.687-3.783-4.49-4.869-6.446.218.666-.9 1.567-.9 1.567s-2.336-1.54-2.967-2.688c.442 1.268 0 2.742 0 2.742-3.51-2.206-3.759-3.698-3.759-3.698-.148.529.955 4.032.955 4.032s-3.434-1.787-5.768-6.944c-.973-1.77-2.128-7.234-2.128-7.234-1.403 2.208-1.569 2.923-1.569 2.923s-1.18 4.195.334 6.774c1.179 1.74 3.975 3.922 4.65 4.147 1.625 1.18.334 1.01.334 1.01s-4.65-1.344-5.94-1.399c-1.287-.06-1.902.335-3.697-.17-1.792-.504-3.105-2.627-2.964-4.706.164-2.543 1.071-2.782 1.342-3.752.941-1.57 1.214-4.957-.441-6.891-.513-.678-1.371-1.47-2.64-2.253.522 1.685.707 2.206.596 3.255-.184 2.577-.294 3.588-2.352 6.54-3.285 3.271 2.88 9.267 2.88 9.267s-3.307-2.92-4.933-5.195c-1.72-2.993.184-8.182.026-9.936a25.87 25.87 0 0 0-.511-3.216s-.117 3.619-.873 5.19c-.762 1.568-1.209 2.826-1.329 4.448-.294 3.482.743 6.091.743 6.091-1.604-1.794-2.501-7.029-2.463-9.491.036-2.728-1.961-4.436-1.961-4.436s.128 1.786-.033 3.597c-.158 1.81-.62 2.103-.81 4.652-.37 2.54 5.343 9.262 5.343 9.262s-4.11-2.837-5.641-7.282c-.447-1.98-4.03-6.618-4.03-6.618s.557.862.408 2.657c-.149 1.795-1.268 3.472-.596 5.756 1.12 2.356 5.168 9.222 11.893 9.898-3.48 1.927-13.928-2.641-16.079-3.583 1.02 2.145 9.742 7.94 16.25 9.02-4.95 2.146-17.458-4.086-22.411-7.394 3.327 4.713 8.403 8.63 8.403 8.63-1.343 1.018-5.996.28-5.996.28 2.347 3.239 12.102 3.364 12.102 3.364-.75 2.47-8.627 2.246-8.627 2.246 4.14 2.033 8.29 1.396 8.29 1.396-.375.965-.858 1.687-2.792 2.059-2.795.645-6.002.35-6.002.35l3.797 1.802s-5.105 3.28-7.9 6.02c-2.795 2.744-5.788 9.953-8.635 9.255-2.108.76-4.069-.073-4.781-1.049-.712-.964-2.894-3.847-3.136-6.426-.244-2.58 1.045-9.266 3.287-12.702 2.24-3.44 4.034-5.68 4.182-17.043-.26-8.047-3.453-14.046-7.05-16.998-.854-.855-2.51-2.037-2.96-2.15-.447-.11-.069 1.326-.167 2.127-.116.917-.56 1.825-.233 2.174.606.995 2.249 1.198 4.212 9.099 2.295 12.328-3.249 16.926-3.362 21.448-.897 4.63-.598 8.367-.302 11.062-2.835-6.283-1.717-13.12-.763-19.064.95-5.935-2.026-12.134-3.293-12.998-.235-.115-.617-.411-.793 0-.679 1.454-1.3 2.448-1.74 3.978 5.379 5.882.765 11.864.016 16.121-.746 4.257.9 12.71 1.943 14.504 1.047 1.786 6.961 9.399 14.043 9.857-2.716 1.337-4.098 1.4-6.724.747-8.51-2.152-12.418-6.06-15.05-5.976-3.36.109-4.667.6-6.013 1.12-1.346.53-2.84 1.197-4.036 2.55-1.195 1.344-2.003 2.763-2.24 4.178 0 0 1.645-2.02 4.562-3.434 5.147-1.95 7.615-1.724 11.2.6 2.987 1.186 7.47 5.894 11.803 4.853.147-.06 2.299-.015 2.242.227 0 .115-2.154.535-2.242.59-3.435.599-6.97-1.438-10.45-3.356-.97-.528-2.997-1.724-3.892-1.422-.896.294-3.284 1.795-5.007 3.814-1.716 2.012-3.061 4.778-3.061 4.778 2.69.52 3.137.155 8.068-3.96 1.718-.818 5.35-.755 8.74.745.223.38.374.83-.077 1.195-1.685.024-2.136-.374-3.137.302-.996.678-1.118 2.619-.82 2.464.598.155 1.643-.815 4.332-.59 1.423.364-4.24 1.997-6.123 2.081-4.137-.079-5.232-.217-6.725 1.204-1.493 1.413-2.167 3.139-3.585 4.708.824-.092 4.558-2.462 5.379-2.842.821-.374 5.677 0 8.739-.676 3.063-.67 4.557-1.563 5.305-2.238 0 0-.228 2.167-1.542 5.047.059.21 5.212-4.512 5.588-5.483-.122.289-1.29 3.022-.212 6.294.323 2.53.804 2.64.106 6.672 2.525-2.422 3.87-5.864 3.979-8.174.105-2.315-.324-4.792.266-7.208.432-1.717 2.024-4.568 2.096-4.521-.187.97-1.558 3.286-1.61 6.192-.054 2.905 1.128 7.311 1.824 7.9.378.273 1.023-1.128.754-2.097-.268-2.635-.644-6.426 0-6.774.264.084 1.29 1.235 1.559 2.797.592 1.29 0 2.47.968 3.441.03-.032.644-1.025.75-2.907.109-1.878-.481-2.686-.699-3.55-.215-.853-.27-4.35-.27-4.35s2.951 2.237 4.07 2.689c1.124.443 5.435 3.542 6.725 5.523z" fill="#961730"/><path d="M125.412 114.66c-3.3-1.587-3.253-3.583-2.912-3.871 0 0 1.624 1.857 3.472 2.868 1.848 1.002 4.591 1.561 4.591 1.561.114.622-2.351.792-5.151-.559zm-1.624 5.662c-1.125 0-5.155-1.625-6.275-2.579-.952-.73-1.29-1.903-1.29-1.903s1.23 1.233 3.924 2.129c2.686.892 3.245 1.397 5.153.504 0 0-.392 1.849-1.512 1.849zm-9.806 1.29c-1.567-.732-2.128-1.12-1.962-2.246 0 0 .838.956 2.693 1.57 1.848.62 2.856.675 2.856.675-1.512 1.236-2.577.505-3.587 0zm-2.366-12.134c-.53-.817-.392-2.76-.392-2.76s.763 1.594 2.619 2.944c1.852 1.337 1.894 1.633 3.58 1.4 0 0-1.464 1.383-2.33 1.112-1.918-.608-3.57-2.875-3.477-2.696zm-.872 3.122c-1.233-.783-1.737-1.01-1.848-2.237-.108-1.235-2.462-2.408-.67-1.686.73.28 2.077.56 2.014 1.902-.056 1.353 1.738 2.805.504 2.021zm-3.374 1.429c.226.56 1.402 2.58-.616 2.695-1.905-.116-5.83-2.805-5.83-2.805s4.037 1.455 5.1 1.4c1.068-.055.73-.444.674-.893-.056-.452-.673-1.074-.673-1.074.28-.72 2.412.118 2.412.118s-1.29 0-1.067.559zm6.762-10.791s.378 1.042 1.442 1.998c.676.573 1.087.956 2.144 1.103 0 0-1.367.389-1.888.163-1.203-.514-1.747-1.764-1.615-1.5-.294-.53-.083-1.764-.083-1.764zm3.95 7.387c-.948-.611-1.283-.993-1.42-1.73-.148-.73-1.898-1.85-.521-1.292.558.22 1.437.585 1.554 1.469.112.879 1.335 2.152.387 1.553zm-19.67 18.103c.683.132.695-1.648.725-1.945.035-.284.794 2.984-.507 2.752-1.192-.366-1.96-2.3-1.96-2.3s1.057 1.37 1.741 1.493zm3.292 6.252c.698-.038.642-1.282.604-1.576-.032-.287 1.116 2.236-.198 2.308-1.246-.072-2.95-1.96-2.95-1.96s1.849 1.268 2.544 1.228zm-6.337-10.682c-.239.104-.702-.037-.966-.285-.269-.259-.597-1.462-.597-1.462s.266.69 1.238.987c.97.295 1.449-.32 1.449-.32s-.723 1.074-1.124 1.08zm-5.327-4.932c-.744-.45-1.196-1.334-1.196-1.334s1.495 1.108 2.84 1.108c0 0-.899.677-1.644.226zm39.37 1.796c2.758 1.048 8.885 2.99 12.549 3.96 3.658.97 8.138 1.944 12.626 2.54 4.482.6 7.244 1.143 12.697.228.498 0 4.031-.71 2.127-1.12-1.902-.412-8.332-1.616-10.696-2.221-2.364-.608-9.437-2.362-15.557-4.608-7.768-2.687-11.6-5.71-14.73-8.475-3.285-2.642-6.64-8.01-10.43-10.7-3.792-2.686-4.91-3.873-6.872-3.703-1.962.17-3.587 1.903-4.98 2.92 0 0 .595-1.39 1.29-2.306 0 0-5.816 2.044-9.1 6.223-1.795 2.244-2.844 4.784-3.853 7.542-.913-1.352-1.88-4.677-1.451-6.828-.698-.273-2.943 2.385-3.211 3.992-.273 1.615 1.64 4.04 1.64 4.04-1.942-.528-2.84-2.47-2.84-2.47s-.67 1.275-.373 2.54c.304 1.275 1.794 2.766 1.794 2.766-1.288.698-2.765-1.421-2.765-1.421s-1.045 3.067.076 4.785c2.91 2.991 4.257 3.805 6.574 7.325 1.12 1.57 2.69 2.02 2.54 5.532-.373 6.424 1.418 5.454 1.418 5.454s-.223-2.393.45-2.54c0 0 .522 2.315 1.494 3.736.97 1.422 2.54 2.842 3.734 2.617 1.193-.224 1.373-.924 2.014-1.949.969-1.552.525-6.347.602-6.72.073-.374 1.717-.747.273-1.484-1.142-.59-1.773-1.407-1.696-1.879 0 0 2.616 1.265 2.616-.901.298-2.013-1.94-2.462-2.541-2.983-2.839-2.316-5.153-6.432-5.9-6.432 0 0-1.046.153-1.193-.453-.151-.59.97-.891 1.866-.137.896.743 2.016 2.46 3.658 3.952 1.645 1.5 2.544 2.167 3.664 2.167 0 0-1.493-1.119-1.12-2.167 0 0 1.943 2.47 3.136 3.294 1.197.814 3.885 1.492 3.885 1.492-.373.677-2.54 0-2.54 0s6.129 4.784 9.862 6.433c3.734 1.638 8.349 2.143 10.197 1.576 1.848-.55-2.019-.948-3.038-1.462-2.49-.987-4.357-1.839-8.114-3.914-3.756-2.075-6.836-5.772-6.836-5.772s4.259 2.742 6.668 2.58c-.11.559-1.625.668-1.625.668s1.101.784 5.721 2.811c4.63 2.027 9.117 3.18 14.95 4.7 5.84 1.524 11.206 1.344 13.749.305-3.29-.156-10.139-2.132-14.788-3.59-5.678-1.942-10.168-4.039-13.584-6.153-.628-.342-.432-1.017.21-.8.638.218 2.088.824 5.752 2.316 3.661 1.5 11.58 3.656 17.63 4.558 4.554.97 12.695 1.167 15.91 1.235 3.831.024 2.243-1.474 1.343-1.567-.901-.093-9.863-1.12-16.804-2.47-6.949-1.345-14.085-4.032-18.68-6.014-.596-.302-.444-1.344.601-1.048z" fill="#961730"/><path d="M146.462 6.97H55.739l-41.37 40.186v20.509l.319-.077c6.027-1.887 12.266-5.803 18.636-11.613a19.096 19.096 0 0 1 8.077-3.202 27.027 27.027 0 0 1 4.064-3.574V37.867H152.28v16.467h31.1V42.838L146.463 6.97m5.816 157.211H45.465v-27.156a26.938 26.938 0 0 1-2.352-.142c-2.247-.225-4.27-2.018-4.27-2.018-.012-.024 3.036-.567 5.395-2.028a15.33 15.33 0 0 0 1.227-.846v-3.59a26.93 26.93 0 0 1-1.294-.227c-1.198-.2-2.182-1.007-2.182-1.007s-.253.443-.926 2.019c0 0-.785-1.095-1.292-2.587-.506-1.482-.67-3.854-.67-3.854.119-4.762 1.424-8.327 3.991-10.9a13.68 13.68 0 0 1 2.373-1.886v-2.292a11.546 11.546 0 0 0-2.61-.172c-4.92.071-9.181 2.525-11.99 7.467-1.573 3.488-2.359 6.526-2.359 6.526-.152.007-.94-3.845-1.006-7.756-.228-5.397 3.614-11.456 8.403-14.394 3.27-2.165 6.36-3.317 9.562-3.55v-.545c-1.857-1.933-3.859-3.595-6.25-4.115-2.649-.482-5.23.55-7.017 2.842-.701 1.095-1.11 2.005-1.266 2.93-.044.273-.085.567-.127.892-.171 1.252-.383 2.813-1.079 4.414-2.102 3.908-5.413 4.513-7.144 4.001-4.54-1.701-4.954-6.1-4.563-8.196l.82-4.358 2.752 3.471c-.003 0 .911 1.072 2.187 1.08.606-.179 2.376-.902 2.465-3.255.035-1.46 1.397-5.78 3.882-8.818 3.722-4.674 8.453-7.084 12.643-6.424.996.154 1.883.406 2.697.716V66.64c-1.376 1.725-4.083 5.408-5.116 6.231-.04.032-3.893 2.773-5.325 3.635-1.431.864-5.36 1.743-6.417 1.866-1.055.124-3.02.069-3.02.069 1.153-1.274 2.666-3.184 2.666-3.184s1.851-2.363 3.794-5.2c0 0-.788.646-6.103 2.76-3.5 1.086-8.205 1.29-11.576-1.111v83.186l41.37 40.187h90.724l36.918-35.86v-11.507h-31.101v16.47" fill="#211D1D"/><path d="M45.465 121.062c-1.607 1.745-2.522 3.657-2.522 3.657.061-.045.561.055.9-.17.262-.18.956-.74 1.622-1.687v-1.8m74.682-3.093c-2.695-.896-3.924-2.13-3.924-2.13s.338 1.173 1.29 1.904c1.12.954 5.15 2.579 6.275 2.579 1.12 0 1.512-1.85 1.512-1.85-1.908.894-2.467.39-5.153-.503m-4.317-11.467c.521.226 1.888-.163 1.888-.163-1.057-.147-1.468-.53-2.144-1.103-1.064-.956-1.442-1.998-1.442-1.998s-.211 1.235.083 1.765c-.132-.265.412.985 1.615 1.499m-7.604 2.175c-1.792-.722.562.45.67 1.686.11 1.226.615 1.454 1.848 2.237 1.234.784-.56-.668-.504-2.021.063-1.343-1.284-1.621-2.014-1.902m6.867 3.497c.866.271 2.33-1.112 2.33-1.112-1.686.233-1.728-.063-3.58-1.4-1.856-1.35-2.619-2.943-2.619-2.943s-.138 1.942.392 2.759c-.093-.179 1.56 2.088 3.477 2.696m-9.068 1.178s.617.622.673 1.074c.056.45.394.838-.673.893-1.064.055-5.1-1.4-5.1-1.4s3.924 2.69 5.829 2.805c2.018-.116.842-2.136.616-2.695-.222-.559 1.067-.559 1.067-.559s-2.131-.838-2.412-.118m-15.985 6.014c.745.451 1.643-.226 1.643-.226-1.344 0-2.839-1.108-2.839-1.108s.452.884 1.196 1.334m32.46-8.577c-.341.288-.388 2.284 2.912 3.87 2.8 1.35 5.265 1.18 5.151.56 0 0-2.743-.56-4.591-1.562-1.848-1.011-3.472-2.868-3.472-2.868m6.857-26.311c-1.36.783-2.99 2.036-4.62 2.603-1.624.581-7.285 1.242-7.285 1.242 3.06.233 6.368 1.826 6.368 1.826s-1.218 1.46-2.89 2.991c0 0 3.644-1.439 5.6-2.914 1.672-1.198 4.357-5.367 4.645-5.99 0-.38-1.44-.046-1.818.242m-13.874-2.402c1.924.096 4.655-.954 4.655-.954s-3.416.084-3.463-.552c-.045-.646.87-1.423 2.107-2.066 1.237-.644 4.356-1.469 4.356-1.469s-4.318.085-6.353.995c-1.582.705-4.534 2.68-4.378 3.278.15.59 1.15.675 3.076.768m.658 25.527c-1.377-.558.373.562.52 1.291.138.738.473 1.12 1.421 1.731.948.6-.275-.674-.387-1.553-.117-.884-.996-1.25-1.554-1.469m-21.099 15.935c-.972-.296-1.238-.987-1.238-.987s.328 1.203.597 1.462c.264.248.727.389.966.285.4-.006 1.124-1.08 1.124-1.08s-.48.615-1.45.32m16.979-4.172c-.166 1.126.395 1.514 1.962 2.245 1.01.505 2.075 1.236 3.587 0 0 0-1.008-.055-2.856-.675-1.855-.614-2.693-1.57-2.693-1.57m-9.91 16.346c1.314-.072.166-2.595.198-2.308.038.294.094 1.538-.604 1.576-.695.04-2.543-1.228-2.543-1.228s1.703 1.888 2.95 1.96" fill="#211D1D"/><path d="M70.245 106.44c.242 2.578 2.424 5.461 3.136 6.425.712.976 2.673 1.81 4.78 1.049 2.848.698 5.84-6.511 8.636-9.254 2.795-2.741 7.9-6.021 7.9-6.021L90.9 96.838s3.207.294 6.002-.351c1.934-.372 2.417-1.094 2.793-2.06 0 0-4.152.638-8.29-1.395 0 0 7.876.224 8.626-2.246 0 0-9.755-.125-12.102-3.364 0 0 4.653.738 5.996-.28 0 0-5.076-3.917-8.403-8.63 4.953 3.308 17.46 9.54 22.411 7.395-6.508-1.081-15.23-6.876-16.25-9.021 2.15.942 12.598 5.51 16.079 3.583-6.725-.676-10.774-7.542-11.893-9.898-.672-2.284.447-3.96.596-5.756.15-1.795-.409-2.657-.409-2.657s3.584 4.638 4.03 6.618c1.532 4.445 5.642 7.282 5.642 7.282s-5.713-6.722-5.342-9.262c.189-2.549.65-2.843.81-4.652.16-1.811.032-3.597.032-3.597s1.997 1.708 1.961 4.436c-.038 2.462.86 7.697 2.463 9.491 0 0-1.037-2.609-.743-6.09.12-1.623.567-2.881 1.329-4.45.756-1.57.873-5.19.873-5.19s.347 1.46.51 3.217c.16 1.754-1.746 6.943-.025 9.936 1.626 2.275 4.933 5.195 4.933 5.195s-6.165-5.996-2.88-9.267c2.058-2.952 2.168-3.963 2.352-6.54.111-1.049-.074-1.57-.597-3.255 1.27.783 2.128 1.575 2.64 2.253 1.656 1.934 1.383 5.321.442 6.89-.271.971-1.178 1.21-1.342 3.753-.141 2.08 1.172 4.202 2.964 4.706 1.795.505 2.41.11 3.696.17 1.29.055 5.941 1.4 5.941 1.4s1.29.17-.333-1.011c-.676-.225-3.472-2.408-4.65-4.147-1.515-2.579-.335-6.774-.335-6.774s.166-.715 1.569-2.923c0 0 1.155 5.464 2.128 7.234 2.334 5.157 5.768 6.944 5.768 6.944s-1.103-3.503-.955-4.032c0 0 .249 1.492 3.76 3.698 0 0 .441-1.474 0-2.742.63 1.148 2.966 2.688 2.966 2.688s1.118-.901.9-1.567c1.086 1.955 1.763 4.76 4.869 6.446 2.63 1.421 7.12 1 11.26 1.568 1.477-.037-2.778 2.449-2.964 3.085-.084.282.836 1.345.895 1.787.057.45-1.627 2.137-1.963 2.137 0 0-7.671.954-9.583 1.507-1.9.568-4.927 2.578-4.927 2.578.092-.38.301-1.443.037-1.832-.202-.32-4.442 1.337-5.49 1.933-1.044.599 1.312-.202.901.328-1.483 1.492-.622 5.39-.132 7.076.498 1.693 1.903 4.366 1.903 4.366-5.397-2.82-5.925-7.954-5.925-7.954-.8.342-1.346.73-.458 6.479-2.52-1.345-2.827-5.129-2.827-5.129s-.785.847-1.064 1.4c-.39-.334-1.01-2.517-1.01-2.517s-.56.846-.761 1.693c-.467-.179-.636-2.703-.636-2.703s-.953-.11-1.065 1.46c-.728-.286-.675-3.193-.675-3.193s-.84-.116-1.118 1.515c-.504-.512-.28-3.535-.28-3.535s-1.29.333-1.568 2.075c-.226 1.46-.055.987-.895 2.275-.672.677-1.886.942-2.17.6-.278-.334-.11-1.236.188-1.757.506-.839 1.137-.839 1.363-1.173.226-.342.34-.676.172-1.064-.018-.032-2.02.334-2.75.84-.728.504-1.85 1.567-1.85 1.567s-.642-.449-.192-1.622c.558-1.578 2.24-2.246 4.146-3.138-4.736 1.419-6.134 4.255-5.688 5.094.223.452.559.397 1.852.506-1.39.651-6.24 2.647-10.122 6.541-2.99 2.54-3.555 6.293-3.555 6.293s-1.073-3.17.324-5.749c-3.71-.054-10.493 10.72-9.136 15.647.695 3.113 3.33 4.087 4.407 5.538 2.256 2.206 3.775 3.822 2.73 5.47-1.29-1.982-5.602-5.081-6.725-5.524-1.12-.452-4.07-2.688-4.07-2.688s.054 3.496.269 4.348c.218.865.808 1.673.698 3.551-.105 1.882-.718 2.875-.75 2.907-.967-.971-.375-2.151-.967-3.44-.269-1.563-1.295-2.714-1.559-2.798-.644.348-.268 4.14 0 6.774.269.97-.376 2.37-.754 2.098-.696-.59-1.878-4.996-1.824-7.901.052-2.906 1.423-5.222 1.61-6.192-.072-.047-1.664 2.804-2.096 4.52-.59 2.417-.161 4.894-.266 7.21-.11 2.309-1.454 5.751-3.979 8.173.698-4.032.217-4.142-.106-6.672-1.077-3.272.09-6.005.212-6.294-.376.971-5.53 5.694-5.588 5.483 1.314-2.88 1.542-5.047 1.542-5.047-.748.675-2.242 1.569-5.305 2.238-3.062.676-7.918.302-8.739.676-.821.38-4.555 2.75-5.379 2.842 1.418-1.57 2.092-3.295 3.585-4.708 1.493-1.421 2.588-1.283 6.725-1.204 1.884-.084 7.546-1.717 6.123-2.082-2.69-.224-3.734.746-4.331.59-.299.156-.177-1.785.819-2.463 1.001-.676 1.452-.278 3.137-.302.451-.365.3-.815.077-1.195-3.39-1.5-7.022-1.563-8.74-.746-4.93 4.116-5.378 4.48-8.068 3.96 0 0 1.345-2.765 3.061-4.777 1.723-2.02 4.111-3.52 5.007-3.814.895-.302 2.922.894 3.893 1.422 3.478 1.918 7.014 3.955 10.45 3.356.087-.055 2.241-.475 2.241-.59.057-.242-2.095-.288-2.242-.227-4.333 1.041-8.816-3.667-11.803-4.853-3.585-2.324-6.053-2.55-11.2-.6-2.917 1.414-4.562 3.434-4.562 3.434.237-1.415 1.045-2.834 2.24-4.179 1.197-1.352 2.69-2.02 4.036-2.55 1.346-.52 2.654-1.01 6.012-1.119 2.633-.084 6.54 3.824 15.051 5.976 2.626.653 4.008.59 6.724-.747-7.082-.458-12.996-8.07-14.043-9.857-1.043-1.795-2.69-10.247-1.943-14.504.75-4.257 5.363-10.239-.016-16.121.44-1.53 1.061-2.524 1.74-3.978.176-.411.558-.115.793 0 1.267.864 4.243 7.063 3.293 12.998-.954 5.943-2.072 12.781.763 19.064-.296-2.695-.595-6.432.302-11.062.113-4.522 5.657-9.12 3.362-21.448-1.963-7.901-3.606-8.104-4.212-9.099-.326-.349.117-1.257.233-2.174.098-.8-.28-2.237.168-2.127.449.113 2.105 1.295 2.959 2.15 3.597 2.952 6.79 8.951 7.05 16.998-.148 11.364-1.941 13.604-4.182 17.043-2.242 3.436-3.531 10.123-3.287 12.702zm47.294-33.228s-2.945-.17-3.526-2.88c-.567-2.805 1.001-4.072 1.001-4.072-.528 2.86 1.209 6.361 2.525 6.952zm-.812-10.082c.228-.45 1.138-2.092 2.465-3.302 1.235-1.384 3.828-2.51 3.828-2.51s-3.473 4.282-3.843 7.497c-.342 2.913.326 4.772.372 4.878.232 1.18 3.1 3.45 4.124 4.39 0 0-1.344-.381-2.578-.785-1.23-.413-1.918-.077-2.856-.45-.934-.374-2.136-2.744-2.392-4.396-.257-1.656.084-4.078.88-5.322zm3.677-7.598c.39-.957 1.085-1.685 1.085-1.685s-.13 1.032-.115 1.795c.023.76.115 1.36.115 1.36-.728.315-1.12.526-1.738.992 0 0 .263-1.506.653-2.462zm33.359 21.184c1.622.398 4.083 2.58 4.65 4.258.29.621.388 1.545.388 2.314 0 0-1.174-1.305-3.306-2.594-2.13-1.281-3.863-1.397-3.863-1.397s-1.348-.709-1.178-1.85c.172-1.142 1.68-1.128 3.309-.73zm4.62 8.563c-.21-.05-1.25-.56-1.833-1.345-.91-1.391-2.073-1.461-2.787-1.134-1.152.512-1.125 2.145-.132 2.314.256.078.535 0 .396.194-.084.132-.77.809-1.218.886-.453.07-1.01-.397-1.344-.791-.34-.39-.842-1.172-.73-1.562 0-.227 2.841-2.47 3.476-2.587.626-.109 2.784 1.444 3.232 1.933.45.49 1.33.988 1.445 1.462.055.224-.298.667-.504.63zm2.1-.49c.597-.148 1.58.427 2.438.838 1.72.861 1.99 1.765 1.99 1.765s-.946-.374-1.543-.444c-.597-.077-1.904-.287-2.385-.227-.471.055-2.04.42-1.706 1.541.636 1.569 2.469 1.85 2.469 1.85s-.825.137-2.245-.197c-1.267-.45-1.29-1.872-1.064-2.577.226-.709 1.448-2.402 2.046-2.55zm-2.496 1.305c-.668.932-.381 1.211-.792 1.477-.411.262-1.491.038-2.766 0-1.27-.04-3.77.262-4.028.077-.264-.186.56-1.252.783-1.4.225-.154.784 1.174 2.237.336.603-.49 1.406-1.252 1.707-1.144 1.5.443 3.535-.285 2.86.654zm-.53 3.642c-1.232.49-3.847 3.63-6.312 3.551-1.454.041-2.165-.078-2.649-.97-.487-.895.56-3.18.933-3.366.668-.45 2.95-.628 3.958-.665 1.004-.05 4.033.068 4.257.333.226.255.335.783-.187 1.117zm-17.648 10.147c4.356.319 8.78.38 13.2.295 4.217-.201 13.136-1.82 15.151-2.386-.17 1.08-.485 1.594-2.02 2.185-5.925 1.622-15.367 2.743-21.823 2.596-.09 0-.12.084-.09.169l.266.179c3.243.264 8.336.123 9.55.023 1.21-.087 6.282-.334 6.111.17-.304.915-1.554 1.85-2.392 1.85-1.065.109-7.758-.11-8.486-.11-.725 0-1.229.388-.67.56.56.17 2.754-.07 3.2.101.45.17-1.196 1.617-1.534 1.841-.337.224-3.686-.124-4.078-.124-.397 0-1.191.683-.462.738 1.065.224 4.203-.28 3.87.063-.279.504-2.06 2.26-2.338 2.143-1.173.063-3.627.52-4.358.8-1.148.645-1.032 1.57-2.203 1.966-1.128.162-4.861 1.36-5.097.853.282-2.344.732-5.451.366-7.666-.366-2.214-3.486-5.362-4.416-7.007-.614-1.174 5.863.582 8.253.761zm22.355 8.801c.319.437.319.941.185 1.77-.25-.822-2.615-2.554-3.135-2.928-.52-.38-3.696-.303-4.068-.225-.377.069-.561.412-.49.522.078.108 3.625.084 4.075.294.445.227 2.285 1.88 2.65 2.44.325.217.325 1.001.139 1.833-.218-.932-2.344-2.508-3.053-2.734-.712-.227-1.505-.304-1.505-.304s-.87 0-1.52.273c-.368.139-1.562.962-1.562.962s-2.324 1.524-2.485 2.449c-.164.924 1.087 3.308 1.607 3.502.528.186 4.878.871 5.986.178 0 0-.754 1.453-1.118 1.453-2.055.041-6.451-.534-6.57-.714-.582-.506-1.683-1.639-1.683-1.639s-.436-.607-.754-.846c-.318-.242-1.118.365-1.382.365-.263 0-.97-3.637-.706-3.746.265-.115.257-.045.783-.201.524-.164 2.625-2.244 2.625-2.244s2.314-2.355 3.046-2.891c.728-.528 5.985-.389 6.468-.069.486.31 2.095 1.826 2.467 2.5zm-1.701 4.786c-.184-.576-.325-.754-.552-.987-.876-.925-2.374-1.593-2.785-1.732-.416-.14-2.052-.086-2.052-.086s1.083-.83 2.098-.691c1.009.132 2.78 1.429 3.153 2.067.16.234.34.691.138 1.429zm-15.894 5.158c-.112.055-1.478-.403-1.428-.567-.039-.024.56-.389.714-.444.156-.06.597-.302.628-.115.036.178.194 1.071.086 1.126zm2.804-2.09c.087.49.441 2.873.147 3.023-.295.147-2.09-.224-1.942-.668-.11-.078-.637-2.028-.225-2.169.41-.155 1.926-.683 2.02-.186zm-.897-.66c-.3.147-1.381.225-1.946.412-.56.187-.93.783-1.27.783-.329 0-.028-1.048-.221-1.864-.194-.815-.651-1.321-.496-1.655.147-.331.66-1.265 1.26-1.352.78-.114 1.7-.534 2.115-.457.407.078.405 1.748.483 2.416.075.668.374 1.57.075 1.717zm-9.827-.793c.194-.342 4.108-1.103 4.815-.956.596.041.946 1.633.648 3.359-.113.402-5.647-2.069-5.463-2.403zm22.064 9.464c2.364.605 8.794 1.809 10.696 2.221 1.904.41-1.629 1.12-2.127 1.12-5.453.915-8.215.372-12.697-.227-4.488-.597-8.968-1.57-12.626-2.54-3.664-.972-9.791-2.913-12.55-3.96-1.045-.297-1.197.745-.6 1.047 4.594 1.982 11.73 4.669 18.679 6.013 6.941 1.351 15.903 2.378 16.804 2.47.9.094 2.488 1.592-1.342 1.568-3.216-.068-11.357-.264-15.91-1.235-6.051-.902-13.97-3.058-17.63-4.558-3.665-1.492-5.115-2.098-5.753-2.317-.642-.216-.838.46-.21.8 3.416 2.115 7.906 4.212 13.584 6.154 4.65 1.458 11.497 3.434 14.788 3.59-2.543 1.04-7.91 1.219-13.75-.305-5.832-1.52-10.32-2.673-14.949-4.7-4.62-2.027-5.721-2.811-5.721-2.811s1.514-.109 1.625-.668c-2.41.162-6.668-2.58-6.668-2.58s3.08 3.697 6.836 5.772c3.757 2.075 5.625 2.927 8.114 3.914 1.02.514 4.886.911 3.038 1.462-1.848.567-6.463.062-10.197-1.576-3.733-1.649-9.862-6.433-9.862-6.433s2.167.677 2.54 0c0 0-2.688-.678-3.885-1.492-1.193-.825-3.136-3.294-3.136-3.294-.373 1.048 1.12 2.167 1.12 2.167-1.12 0-2.019-.667-3.664-2.167-1.642-1.492-2.762-3.21-3.658-3.952-.896-.754-2.017-.452-1.866.137.147.606 1.194.453 1.194.453.746 0 3.06 4.116 5.899 6.432.602.52 2.84.97 2.54 2.983 0 2.166-2.615.901-2.615.901-.077.472.554 1.29 1.696 1.879 1.444.737-.2 1.11-.273 1.484-.077.373.367 5.168-.602 6.72-.641 1.025-.821 1.725-2.014 1.949-1.194.225-2.765-1.195-3.734-2.617-.972-1.421-1.493-3.736-1.493-3.736-.674.147-.45 2.54-.45 2.54s-1.792.97-1.419-5.454c.15-3.512-1.42-3.963-2.54-5.532-2.317-3.52-3.663-4.334-6.574-7.325-1.121-1.718-.076-4.785-.076-4.785s1.477 2.12 2.765 1.421c0 0-1.49-1.491-1.794-2.766-.296-1.265.374-2.54.374-2.54s.897 1.942 2.838 2.47c0 0-1.912-2.425-1.64-4.04.269-1.607 2.514-4.265 3.212-3.992-.43 2.151.538 5.476 1.451 6.828 1.01-2.758 2.058-5.298 3.853-7.542 3.284-4.18 9.1-6.223 9.1-6.223-.695.915-1.29 2.307-1.29 2.307 1.393-1.018 3.018-2.75 4.98-2.92 1.963-.171 3.08 1.016 6.872 3.703 3.79 2.689 7.145 8.057 10.43 10.699 3.13 2.765 6.962 5.788 14.73 8.475 6.12 2.246 13.193 4 15.557 4.608zm-49.887 16.182c.863.426 2.415.51 2.578.837.378.427-.684 2.968-1.01 2.968-.32 0-1.723-.636-2.74-1.064-1.024-.426-2.749-.745-2.805-1.063-.055-.328 1.639-2.752 2.016-2.752.378 0 1.1.639 1.96 1.074zm3.53 1c.452-.225 3.045-.123 3.195.621.149.747-.194 3.14-.672 3.31-1.044.366-3.356.287-3.701-.566-.218-.296.305-.794.56-1.624.184-.574.282-1.702.618-1.741zm3.808.568c.236-.1 1.493.341 2.75-.226 1.157-.526 5.189-2.99 6.498-3.25 1.304-.269 5.751 3.491 6.276 4.09.782 1 1.754 5.826.185 5.677-.116-1.832-.698-4.116-1.484-5.164-.747-.823-3.283-2.82-4.479-2.89-1.203-.055-4.722 1.995-4.435 2.362.28.373 3.209-1.228 4.06-1.19.861.04 3.248 1.15 4.175 2.269.967 1.158 1.445 3.745 1.445 3.745.524 1.833-1.077 3.139-1.077 3.139-.03-1.63-.181-2.091-.49-2.922-.214 1.041-1.257.862-1.257.862s.553-.55.399-1.755c0-.209-.091-1.165-.405-1.608-.932-1.012-2.076-1.012-3.305-1.012-1.232 0-2.147.374-2.861.67-1.001.41-1.266 1.274-1.566 2.02-.298.746-.152 2.563.336 3.643.486 1.08 1.734 1.849 1.734 1.849s1.141 1.104 3.533.613c-.116.528-.935.807-2.915.623-2.013-.413-2.093-.636-2.912-1.345-.822-.715-1.25-3.776-2.077-5.273-.816-1.72-1.918-1.424-2.291-1.564-.373-.156-.058-.606.163-1.575.227-.972-.261-1.678 0-1.788zm-7.625 13.836s4.513-6.478 3.761-9.695c.68.357 1.736.062 1.736.062-.37 5.679-4.394 9.36-5.497 9.633zm-75.013-49.206l-.5.264c.208-.761 1.03-1.413 1.504-2.035 3.36-3.029 5.456-4.04 9.003-5.12 3.549-1.072 8.526-.348 9.98 1.32 1.45 1.663 5.08 8.67 5.08 8.67-13.45-8.521-20.403-6.393-25.067-3.1zm3.654-19.165c-1.884 0-3.448.737-4.98 1.53l-.176-.033c1.945-3.323 5.38-6.096 9.194-6.128 7.58.024 10.585 12.68 10.965 13.944l-.029.243c-4.069-4.43-8.487-9.611-14.974-9.556zM60.457 103.9c-2.539-3.807-2.463-5.385-3.511-9.71-.374-2.473-.479-7.048.6-10.24 1.046-3.59 2.819-6.836 2.819-6.836s.318-.265 1.364 1.972c1.645 2.843-.896 7.474-1.794 11.506-.893 4.046.375 10.595.522 13.308zm-7.8-18.32c1.356-7.636 3.743-14.83 6.778-21.728a19.3 19.3 0 0 1 1.413-3.069c1.108-2.455 1.87-3.41 1.381-6.051-1.101-5.803-4.414-5.711-4.324-6.26-.023-.554 2.924.315 4.119 1.148 1.198.832 2.009 1.733 3.276 4.466.767 1.454.588 3.163.735 4.778-.175 2.774-1.149 5.19-2.505 7.436-2.506 4.778-4.48 9.848-6.365 14.884-4.848 13.006 2.623 24.657 2.623 24.657s1.28 3.666 10.907 9.423c-4.549-.97-9.65-3.992-11.653-7.177-3.39-5.157-5.337-8.726-6.577-14.8-.293-1.445-.31-6.292.192-7.706zm-2.041-18.784c-.67-.597-1.66-1.537-1.848-2.245-.131-.497-.168-1.174-.168-1.174s1.31 1.43 2.915 2.131c1.794.783 5.115 1.25 4.813 1.621-.48.934-.724 1.492-.985 2.394-.075.295-3.828-1.911-4.727-2.727zm-3.114-8.102c-.178-.147.953-1.788 1.013-1.936.589-.851.965-1.29 1.382-1.568.414-.272 4.173-.304 5.646-.367 1.65.033 3.363.15 4.894.357.53.233.352.974.443 1.418-.063.294-.016 1.271-.395 1.355-3.594-2.203-9.18.827-12.983.741zm-1.21-.685c-1.921 3.542-3.482 6.704-5.968 9.853-1.703 2.297-4.887 5.638-6.86 6.578 0 0 1.93-1.055 2.53-4.42.231-2.712 4.099-8.84 4.417-9.393.326-.551 2.22-4.358 4.167-6.065 1.435-1.368 2.463-1.996 3.202-2.363.735-.366 3.183-1.024 2.712-.552-1.333 1.476-3.258 4.74-4.2 6.362zM27.575 68.095c-2.772 1.272-5.661 2.33-8.93 2.182.56-.38 1.297-.412 1.884-.792 4.716-1.98 9.021-5.22 12.94-8.905 2.21-1.506 4.366-2.989 5.979-3.083.779-.047.461.365.461.365-.53.947-.923 2.214-1.43 2.672-.966 1.104-6.692 5.733-10.904 7.56zm25.177-17.139c.735-.729 2.485-1.749 3.68-1.654.69.024 2.21.8 3.083 1.886.877 1.082 1.199 2.206.97 2.627-.369.644-2.466-.063-4.514-.092-2.116-.032-4.51.55-4.968-.096-.188-.55 1.01-1.935 1.75-2.67zm14.58 13.752c1.21 2.088 2.183 4.334 2.77 6.718 1.861 9.323-2.285 16.554-2.285 16.554s1.12-5.04.337-10.028c-.785-4.997-3.064-7.436-4.005-8.026-.295-.263-.145-.651.03-.948.738-1.474 1.68-2.943 2.24-4.536.266-.59.735 0 .913.266zm-43.72 38.803c-2.353-.118-2.969-2.868-2.969-2.868s1.473.864 2.97.793c2.688-.17 4.032-2.353 4.032-2.353-.336 1.957-1.737 4.373-4.033 4.428zM79.21 80.734c.449-6.131-.028-10.52-2.21-15.203-1.561-3.83-4.453-7.458-8.31-9.495-.532-.294-1.151-.526-1.68-.94-.532-2.128-1.473-4.218-3.273-5.757-1.768-1.498-3.918-2.296-6.22-2.406-6.514.434-11.396 3.845-15.325 7.985l-.352.115c-2.801.357-5.364 1.33-7.663 2.92-5.69 5.192-11.998 9.611-19.13 11.849-.06.095-.06.302 0 .39 2.655 2.066 6.72 2.003 9.874 1.033 4.215-1.685 6.504-2.518 10.246-5.438.736-.507 1.45-1.531 1.656-1.384-.784 1.384-2.163 3.962-2.625 6.447-.46 2.486-3.035 4.421-6.12 6.496.413.46 1.518-.186 1.889-.28.364-.093 2.393-.73 4.556-2.066 2.16-1.336 2.75-2.045 4.253-3.427 3.572-3.759 6.241-8.367 7.714-11.04 3.767-.394 10.632-2.942 12.827-1.575l.613.334c-.461.738-1.207 2.314-1.207 2.314l-1.765 4.072s-3.408-.42-5.015-1.127c-3.511-1.492-4.37-3.208-4.37-3.208s-.261 2.314.038 3.365c.298 1.04 1.455 2.531 2.391 3.206.933.678 4.483 2.579 4.704 3.365-.276.73-3.051 10.673-4.084 15.81-.029.147-.117.496-.354.35-2.151-2.745-4.264-4.873-8.133-5.487-3.873-.605-7.964 2.216-10.736 5.696-2.24 2.742-3.397 6.673-3.418 7.566-.168 4.375-4.2 5.213-4.2 5.213-2.466.147-4.032-1.835-4.032-1.835s-.821 4.375 3.135 5.873c.952.273 3.213-.1 4.707-2.858.747-1.724.837-3.481 1.064-4.824.225-1.345.817-2.548 1.658-3.83 2.183-2.804 5.455-4.22 9.021-3.566 4.628 1.003 7.693 5.22 10.757 8.546.116.092.207.333.029.412-1.121-.11-2.208-.38-3.42-.38-3.828-.087-7.07 1.328-10.048 3.308-4.479 2.734-7.162 7.575-7.724 12.64.061.156-.028.568.265.45 2.33-5.135 7.576-8.615 13.234-8.7 3.978-.203 7.429 1.446 10.76 3.038.113.115.144.264 0 .38-3.215.915-6.47 1.84-8.992 4.366-2.517 2.516-3.3 5.919-3.388 9.49.118.351-.148 1.036.323 1.153 2.123-4.506 6.69-8.259 11.731-8.638.647.063 1.506-.147 2.035.294l-.061.117c-2.828 1.802-5.658 4.7-6.985 7.223-1.325 2.526-3.121 3.249-3.035 3.335 3.27.527 4.362.418 7.427-.7 1.271-.52 3.435-3.139 4.928-3.433.355.052 2.468-.598 3.663-.078.821.666-2.24 3.961-2.84 3.814-5.453-.079-6.274 1.042-7.767 3.208-1.496 2.168-3.174 4.352-5.912 5.235-.619.328-1.326.444-1.915.801-.028.233 5.686.147 7.927-.83 2.035-.677 3.508-2.597 5.6-2.977 0 0 .5 2.185-3.236 5.393.088.208 4.027-.507 5.676-2.013.976-.837 1.942-3.736 2.913-3.815 2.168 0 4.53-1.313 4.856-.823.33.505-.3 3.014-1.106 4.14-.805 1.127-4.674 2.315-4.942 4.297-.268 1.996-1.881 6.4-1.666 6.673.214.265 3.492-2.641 5.373-3.605 1.879-.972 1.398-5.584 2.122-6.766.728-1.181 1.475-1.118 2.27-1.568.239-.087.59-.233.77 0 .087 1.863-.7 3.93-1.3 5.133 0 0 .828-.1 2.065-1.126 1.238-1.024 1.653-2.176 1.653-2.176s.698 2.099-.27 4.787c-.968 2.68-2.148 4.458-2.148 4.458s3.007-1.558 5.05-4.52c2.042-2.951 2.58-4.624 2.74-5.532.714.979.412.893 1.023 2.58.696 1.933.483 3.713.483 3.713s1.182-.807 1.826-3.115c.517-1.858.416-2.115.354-2.138 2.355-.115 1.765 4.034 1.765 4.034s1.726.14 1.942-2.393c-.15-.894 9.75-.668 11.917 2.129 2.166 2.802 2.762 2.773 3.92 3.372 1.156.59 3.284.48 5.142.947 1.727.279 5.019 1.772 6.286 2.601 1.762 2.074-2.847 9.41-4.767 11.87-.04.055-.086.119-.126.165.133-.071.27-.14.406-.218 3.029-1.663 7.257-5.22 7.775-11.295.02-.317 1.946-.234 2.24.147 1.22 1.117 1.456 3.922 2.315 5.61.86 1.676 4.93 3.02 6.886 1.7 0 0 1.78-.955 1.291-2.182-.785.521-1.266.59-2.236.683-.971.086-1.307-.24-2.093-.732-.784-.49-.899-.637-1.417-1.56-.52-.939-.49-3.217.185-3.892.672-.676 2.426-1.197 4.217-.97 1.793.225 1.702 1.506 1.702 1.506s.52 1.904-1.045 2.454c1.228.74 2.425-.092 2.425-.092s.473.645-.123 2.736c2.053.052 2.57-2.123 2.57-2.123s.49.188.559.412c.45-.186.412-1.008.412-1.008s.411-.109.596.302c.864.256-.185-6.098-.52-6.806-.333-.707-5.903-4.895-6.91-4.886-1.01.006-2.43.962-3.96 1.678-1.529.707-3.398 2.461-5.526 2.02-1.268-1.095-4.305-.631-4.305-.631l-2.317-.598s-2.096-.916-2.152-1.288c-.051-.374.43-1.29.756-2.526.32-1.244.216-1.935.698-2.315.484-.371 1.72-.318 2.634-.862.913-.535 1.608-1.555 2.143-1.724.543-.171.918-.04 2.543 1.195 1.626 1.23 7.36 3.116 10.223 3.46 2.868.341 6.268.333 7.26.278.988-.054-.732-1.447-.882-1.74 0 0 6.258 1.74 10.442 2.036 4.185.303 11.95-.15 13.923-2.085 0 0-1.326-.38-1.863-.82l.094-.085c2.093-.538 12.872 1.342 11.14-3.512-.44-.521-.97-.328-1.412-.646.117-.155 12.33-2.905 9.195-3.76-2.568-.21-11.16-1.849-14.84-2.86-3.68-1.009-8.573-2.462-11.05-3.318-.29-.115-.714-4.28-.273-4.052.74 1.008 1.283 1.694 2.406 2.368 2.179.59 5.377.645 6.953.653 1.578 0 2.059-2.238 2.607-3.528-.232.28-1.03.738-1.24.738-1.491.373-4.93-.125-5.338-.279-.415-.147-1.398-1.786-1.116-2.62.28-.828 1.964-1.792 1.964-1.792s2.005-.188 2.695 0c.692.177 2.276 1.149 2.51 1.583.227.435.805 1.385.756 2.192.872-1.382.291-2.198.648-2.353.184 0 .644.138.733.644.394-.203.184-2.176.369-2.439 0 0 .37.233.69.458.262-.334.203-2.214-.09-2.92-.301-.716-2.13-2.502-2.465-2.735-.34-.217-.565-.257-.565-.257s-.037-.21.638-.987c.672-.785 4.48-1.46 5.66-2.299.666-.504-.06-.451.727-1.236.788-.783 4.258-1.062 5.29-5.5-8.996 2.471-14.592 3.264-21.874 3.264-7.283 0-17.257-.903-19.095-2.106-.677-.536-.962-1.678-.736-2.757.22-1.08 1.524-1.851 2.352-2.208.599-.108.333 2.245.333 2.245s4.372-2.91 6.5-3.697c2.129-.785 8.853-1.679 8.853-1.679-2.018 2.465-.68 5.316.968 5.376.71.041 3.663.934 6.99-2.43.708-.707 1.863-1.305 1.863-1.305 1.273.294 2.13.334 2.13.334l2.787-.071c-1.888-.94-3.037-1.4-3.084-2.214.087-.077 1.827.707 2.053.226-.857-.49-1.307-1.188-1.307-1.188s2.538-.194 5.005.822c-1.532-2.617-2.223-2.516-3.437-3.254-.621-.35-1.792-.708-2.314-1.089-.302-.295.079-1.505-.395-2.33-1.117-2.804-2.574-4.04-4.146-4.825-1.57-.784-2.686-.893-3.752-.784-1.063.117-2.057.475-2.243 1.406-.182.933.459 1.385.87 1.847.03.088-.87.057-1.764-.083-.9-.14-3.853.272-5.824-.644-3.276-1.034-6.382-7.848-6.926-8.801.063 1.514-.732 2.563-.732 2.563-1.009.239-3.436-3.798-3.436-3.798-.228 2.08.106 4.543.106 4.543-2.541-2.231-3.13-5.719-3.13-5.719-2.082.777-.114 5.468-.168 5.492-1.624-2.417-2.58-3.028-3.985-6.78-1.398-3.752-1.661-6.036-1.79-6.727 0 0 .843-1.011 1.232-1.44.395-.425 1.645-1.172 1.645-1.172s-.969-.239-1.794-.115c-.83.138-1.533.318-1.533.318s-.166-.894.26-4.793c-2.608 1.11-3.602 4.88-3.788 6.758-1.609 1.36-2.462 2.758-2.462 2.758s-.133-2.237-1.514-3.86c-1.382-1.632-2.299-1.695-3.216-3.14-.912-1.095-.814-4.201-.877-4.117-.147.737-.838 1.685-.784 3.083-.022 1.429.303 1.927.84 3.817.542 1.887.375 4.015-.894 6.105-1.274 2.097-1.624 2.642-1.624 2.642-.558-1.424.8-3.2.8-5.772 0-2.58-.48-4.452-2.387-6.581-.618-.558-1.796-1.943-1.796-1.943 2.263 5.012-.298 10.24-.298 10.24s-.748-2.883-2.241-4.334c-1.494-1.46-3.136-2.69-3.136-2.69 1.42 3.876.473 9.012.147 9.34-.497-.444-1.418-2.316-2.575-3.405-1.158-1.079-2.78-1.708-2.78-1.708s.877 2.533.95 4.515c.072 1.98-.896 3.4-.97 6.198-.075 2.803 4.929 8.073 4.929 8.073-4.679.271-10.875-6.455-10.875-6.455.43 5.807 7.03 10.384 7.03 10.384-1.216.328-10.877-6.029-12.177-6.673 1.329 5.757 7.46 10.96 7.46 10.96-1.508.654-5.748-1.085-5.748-1.085 3.326 7.114 10.698 6.431 10.698 6.431.01 1.08-9.736.195-9.736.195 2.902 3.177 10.05 3.713 10.05 3.713-1.769.824-7.257.591-7.257.591.89 1.298 3.062 2.183 4.032 3.014-1.179.35-3.86 2.391-6.343 4.779-2.482 2.392-5.106 9.772-9.617 9.12-2.903-.049-8.069-7.318-1.048-18.979 2.988-5.082 3.435-7.023 3.886-13.152z" fill="#211D1D"/><path d="M120.511 81.434s.779.605.779 1.287c0 .691-1.105 2.86-1.105 2.86s3.358-1.196 5.84-2.44c2.215-1.065 4.926-2.626 4.834-4.186 0 0-3.634 1.606-5.89 2.112-2.251.505-4.458.367-4.458.367M96.67 127.236s.768 1.933 1.96 2.299c1.3.232.542-3.036.507-2.752-.03.297-.042 2.077-.726 1.945-.684-.123-1.74-1.492-1.74-1.492m34.901-64.868c.014 1.756-1.19 1.88-1.675 3.145 0 0-.673-.435-.897-2.027-.256-2.129-.084-3.3.302-4.201.397-.894 1.74-2.527 1.74-2.527s-.224 1.345-.053 2.41c.22 1.459.644 1.631.583 3.2zm-2.828-3.308c-.474 1.567-.504 3.053-.308 4.458.2 1.904 1.615 2.943 1.615 2.943.584-1.653 1.628-1.716 2-3.364.42-2.695-.558-2.943-.591-4.457-.027-1.515.283-3.31.283-3.31s-2.521 2.16-3 3.73zm-40.087-.219c.674-1.391.337-2.353.337-2.353s1.308 2.089 1.232 3.542c-.071 1.46-1.791 2.353-2.239 4.678-.224 1.599.857 3.245.857 3.245s-3.023-1.42-2.763-4.823c.185-2.54 1.942-3.169 2.576-4.289zm-3.025 3.17c-.559 2.057.261 4.002 1.196 4.963.935.979 3.511 2.285 3.511 2.285s-1.831-1.833-1.789-4.483c.033-1.98 2.762-3.03 2.123-5.716-.633-2.69-2.538-4.072-2.538-4.072s.637 1.57.337 2.842c-.522 1.565-2.278 2.131-2.84 4.181zm86.021 125.927h1.707v5.135h.615v-5.135h1.793v-.621h-4.115v.621m7.399 4.064l-1.474-4.685h-.99v5.756h.617v-4.886l1.545 4.886h.613l1.545-4.886v4.886h.615v-5.756h-.99l-1.48 4.685" fill="#211D1D"/></g></svg>