<svg width="200" height="200" xmlns="http://www.w3.org/2000/svg"><g fill-rule="nonzero" fill="none"><path d="M9.671 102.23c-.792-29.408 18.863-55.8 49.177-71.423C23.268 44.963-.565 72.13.258 102.686c.85 31.59 27.827 58.147 66.11 69.813-33.156-13.576-55.873-39.696-56.697-70.269" fill="#D2103E"/><path d="M74.34 169.23s-3.38-6.56-3.119-14.274c.263-7.717 5.708-15.913 6.92-15.394 5.514 2.362 10.587 5.534 13.912 7.446 3.323 1.915 17.223 11.886 33.968 14.674 7.357 1.227 4.292 1.005 11.731 1.643 6.109.518 14.414.652 20.982-4.467 3.013-2.35 7.943-12.427 9.613-16.349 0 0-.819-20.968 13.107-41.223 0 0 13.25-6.216 12.214-16.429 0 0 3.709-5.022 5.32-9.122 0 0-9.487-8.406-19.87-15.632 0 0 .332-1.359.727-3.138 0 0-7.135-7.095-24.369-16.282 0 0-21.91-12.714-50.63-12.932 0 0-69.69-5.703-85.48 57.185 0 0-14.185 63.342 54.973 84.295" fill="#173A79"/><path d="m178.358 101.943-7.75 11.7.484-8.08-2.29 3.276-1.08-3-2.094 3.482-1.07-3.199-8.178 13.338-.153-11.982-15.935-5.807s25.56 4.456 38.066.272M164.528 139.17l1.145-10.032-4.801 7.335-.543-1.401-1.64 1.719-1.51-2.03-1.477 2.716-1.632-9.737-4.378 12.089c.002.002-2.12 1.424-5.42 1.88-3.35.462-7.878-.037-7.878-.037l-18.368-.414s30.287 7.756 46.502-2.089" fill="#FFF"/><path d="M105.555 124.526s1.94 2.225 8.403 4.453c0 0-4.854-4.497.934-6.174 0 0 2.463-.875 3.63 1.227 0 0 1.108 10.529 14.656 14.675 0 0-27.073 4.913-27.623-14.181M66.87 161.045s-10.1-13.343 7.629-23.857l-11.607-5.201s-6.746-4.237-10.205 3.114c0 0-4.066 8.449 1.815 15.281 0 0 7.215 8.04 12.367 10.663" fill="#FFF"/><path d="M57.368 37.721s-.824-6.597 7.835-3.71l1.03.824s-7.215 3.092-8.865 2.886" fill="#173A79"/><path d="m130.364 50.712-3.55 9.29 31.871 6.027-11.674-6.336-6.903.724 1.467-3.597-11.211-6.108Zm-90.048 57.37s.605-.97-.122-2.319c-.725-1.348-1.007-1.52-1.764-1.246-.758.274-1.28 1.746-1.335 2.462-.054.714.525 1.672 1.303 2.305.778.633 2.08-.204 1.918-1.201Zm-8.036-9.927s.38-1.525-.967-2.941c-1.346-1.417-1.746-1.515-2.558-.82-.812.7-.92 2.828-.732 3.775.188.95 1.222 1.925 2.38 2.394 1.157.47 2.423-1.192 1.877-2.408Zm4.87-12.507s1.185-1.48.633-3.544c-.556-2.067-.892-2.337-2.057-1.92-1.165.42-2.409 2.665-2.733 3.758-.32 1.09.16 2.56 1.039 3.53.876.976 2.999-.297 3.118-1.824Zm5.637 11.285s.424-1.687-.771-3.182c-1.195-1.491-1.563-1.586-2.35-.784-.79.8-.98 3.142-.847 4.17.135 1.03 1.055 2.055 2.113 2.519 1.059.464 2.311-1.416 1.855-2.723Zm-9.573 15.154s.46-1.84-.907-3.484c-1.366-1.65-1.782-1.753-2.667-.884-.881.865-1.078 3.423-.914 4.552.161 1.127 1.213 2.26 2.415 2.776 1.204.52 2.602-1.522 2.073-2.96ZM88.75 45.67s-19.153-5.687-21.153-5.823c-1.252-.087-.455 7.192 10.106 20.63 10.556 13.432-6.238-20.899 11.047-14.807Zm79.171 46.647s-41.267-7.898-74.495 9.997c0 0 38.515-15.81 71.448-7.632l3.047-2.365Zm8.226-6.074s-62.074-11.57-106.281 15.29c0 0 50.804-23.975 102.727-11.4 0 0 2.272-2.497 3.554-3.89Zm15.787-2.09c-.835 10.788-10.06 14.174-10.06 14.174C189.12 91.95 188.76 82.1 188.76 82.1l4.711-5.307-12.926-.945 7.478 6.384c-1.65 10.102-9.414 17.042-9.414 17.042-1.65 1.169-3.642 1.375-3.642 1.375-6.872 2.062-25.563.138-25.563.138-5.911-.825-9.69-.206-9.69-.206-33.673 4.673-36.815 25.298-36.815 25.298-.873 12.035 12.556 16.002 12.556 16.002 28.45 9.759 49.837-.614 49.837-.614-2.39 12.373-9.98 17.587-9.98 17.587-7.215 4.261-16.492 2.474-16.492 2.474-6.46-.48-17.593-4.397-17.593-4.397C109.271 153.289 89 139.888 89 139.888c-10.789-7.147-26.586-11.473-26.586-11.473-17.102-8.31-5.6-27.747-5.6-27.747-34.867 33.107 1.84 58.89 1.84 58.89-43.127-21.906-36.14-69.733-36.14-69.733C29.419 53.644 57.938 40.93 57.938 40.93c2.474 6.391 14.431 21.51 14.431 21.51.825 1.03 1.581.275 1.581.275-.687-1.58-4.673-7.697-4.673-7.697-7.49-9.484-10.102-17.112-10.102-17.112-.894-3.161 1.925-2.61 1.925-2.61 1.1.069 13.4 1.717 13.4 1.717 1.993.207 20.41.825 20.41.825-.825-.138-21.853-3.092-21.853-3.092 12.37-3.917 27.005-3.986 27.005-3.986 28.45-.068 50.24 9.92 50.24 9.92 4.059 1.675 27.691 16.493 27.691 16.493-.55.163-1.213 3.7-1.213 3.7.78.426 20.131 15.553 20.131 15.553-.459 1.342-4.978 7.727-4.978 7.727Z" fill="#FFF"/></g></svg>