<svg width="200" height="200" xmlns="http://www.w3.org/2000/svg"><g fill-rule="nonzero" fill="none"><path d="M183.566 135.506c4.287-3.72 6.608-8.52 5.108-11.602-.865-1.778-3.819-3.84-7.787-5.276-.282.789-1.03 1.442-1.03 1.442-3.239.657-4.852-.145-4.852-.145 1.892-.377 3.482-1.152 4.509-1.757a30.234 30.234 0 0 0-8.09-1.325 13.486 13.486 0 0 0-2.291 1.937s-5.448 2.123-13.535 1.613c-3.91 2.77-7.09 6.5-7.09 6.5 1.774 4.366 7.305 14.54 17.357 19.288 0 0 .296-2.82-.297-4.822-8.788-4.885-11.939-14.251-11.939-14.251s1.219-1.459 3.4-2.996c0 0 16.043-1.115 25.882 6.526 1.477 1.145 1.193 3.24.655 4.868M125.361 133.46c2.374-.36 4.63-1.03 4.63-1.03-7.743-5.16-23.41-8.915-23.41-8.915 8.99.492 15.385 2.107 15.385 2.107-1.792-3.862-6.23-11.596-22.444-18.42 0 0 2.82-2.269 9.02-4.905-3.203.458-11.503 2.073-19.174 7.039 0 0 20.101 4.946 26.248 12.932 0 0-3.797-1.707-9.793-3.693-2.545.678-8.99 2.607-15.05 6.295 0 0 12.076.348 22.856 3.734 0 0-4.909-.075-11.457-.007-3.495 1.883-6.54 4.205-6.54 4.205 9.746-1.334 18.428-.27 23.996.846 0 0-2.504 1.975-4.123 3.08 0 0 13.002 2.973 26.04-1.718-.733 1.536-2.267 3.473-2.267 3.473s5.701-.352 9.31-1.71c-1.167-1.83-2.295-3.683-3.231-5.517-9.6 4.263-19.996 2.205-19.996 2.205M36.98 76.312h.986c.544 0 1.011.22 1.011.843 0 .31-.194.61-.48.713l.597 1.076h-.596l-.454-.907h-.531v.907h-.533v-2.632Zm.934 3.423c1.09 0 1.932-.843 1.932-2.074 0-1.219-.843-2.088-1.932-2.088s-1.918.87-1.918 2.088c0 1.231.83 2.074 1.918 2.074Z" fill="#C6C5C5"/><path d="M38.407 77.181c0-.26-.143-.428-.531-.428h-.363v.869h.336c.351 0 .558-.156.558-.441" fill="#C6C5C5"/><path d="M191.908 135.204c-5.358 5.517-13.284 6.832-15.881 7.033-.374-.252-.11-.76.495-1.392.603-.631 5.142-5.007 1.935-7.737-1.464-1.247-4.507-2.119-7.697-2.486 0 0-.661 2.842-.742 5.993-.121 4.552 1.615 9.26-.374 15.91 0 0-8.831-2.983-12.755-6.46-5.692 7.517-15.59 9.796-15.59 9.796s1.434-3.311 1.495-6.332c-3.895 2.624-10.502 5.77-19.49 5.436 0 0 4.207-2.544 7.427-7.133 0 0-12.455 7.623-31.582.969 0 0 3.188 3.743 9.94 5.32-4.244 8.163-9.372 12.23-10.991 13.37-11.016-45.59-50.32-64.244-71.892-71.015 8.149-2.281 15.444-3.305 15.444-3.305C28.058 85.526 14.8 83.003 14.8 83.003c6.171-.936 15.6-1.57 26.947-1.75a9.623 9.623 0 0 1-.15-3.533l2.863-20.667-.87-1.287c-2.592-3.79-1.794-8.482-1.179-12.848 20.992-7.697 43.349-11.92 66.55-12.042 23.112-.123 48.521 4.393 69.524 12.071.494 4.883 1.221 10.225-2.55 14.124l1.573 16.128c1.458.435 2.913.885 4.37 1.329l2.152 20.414-17.795 3.483c8.325 3.58 14.976 7.816 19.152 12.8 0 0-.565.975-1.414 1.453 17.97 6.645 13.578 16.833 7.935 22.526Zm-16.905 2.954c-.537.532-1.712 1.9-1.93 2.677a24.655 24.655 0 0 1 .04-6.824c1.04.163 2.77.397 3.4 1.366.412.632-.974 2.248-1.51 2.78ZM37.914 75.106c1.35 0 2.451 1.038 2.451 2.555 0 1.517-1.102 2.554-2.451 2.554-1.336 0-2.438-1.037-2.438-2.554s1.102-2.555 2.438-2.555Zm158.283 41.548c-1.822-1.95-4.288-3.675-7.531-5.206l.343-.542c-3.605-4.745-8.517-8.49-13.84-11.488l11.799-2.31-2.599-24.641-4.356-1.33-1.285-13.186c3.843-4.893 2.846-11.24 2.268-16.96-23.763-8.883-48.617-12.887-72.036-12.763-23.335.124-47.705 4.813-68.989 12.72-.283 2.025-.868 5.867-.872 8.217-.006 2.64.488 5.537 2.266 8.13l.285.422s-1.503 10.811-2.275 16.395a3.825 3.825 0 0 0-5.084 4.49h-.001C19.772 79.339 5.394 81.045 0 82.656c0 0 21.68 4.373 33.327 9.643 0 0-10.678 2.514-16.072 4.02 0 0 31.42 7.847 53.141 28.498 22.4 21.296 25.757 47.33 25.757 47.33s11.022-5.217 16.228-17.515c0 0 3.384.286 5.839-.072l-5.024 3.04c8.652.648 16.988 1.036 25.105-2.31l-2.142 4.959c9.837-1.96 16.932-5.683 21.18-10.184 0 0 6.633 3.868 14.257 6.233 0 0 2.626-6.678 1.765-12.69.58.787 1.865 1.652 1.865 1.652 7.188-.435 14.89-3.656 19.58-8.822 5.134-5.654 7.066-13.74 1.39-19.784Z" fill="#C6C5C5"/><path d="M156.824 112.667c.225.269.578.453.988.494.499.046.967-.146 1.3-.45-1.7-3.105-3.81-2.947-3.81-2.947-.8.496-1.516 1.492-1.682 2.469-.367 2.214 1.7 4.197 4.625 4.469 1.51.126 2.953-.232 4.029-.899-.411-.177-.606-.185-1.233-.698-.534.248-1.152.353-1.818.3-1.572-.142-2.69-1.225-2.492-2.418.02-.105.052-.206.093-.32M180.762 117.34c.294.417.274.87.125 1.288 3.968 1.437 6.922 3.498 7.787 5.276 1.5 3.082-.821 7.881-5.108 11.602-.426 1.287-1.01 2.282-1.01 2.282 6.834-3.71 11.017-10.406 9.263-14.421-1.082-2.45-3.566-5.082-9.987-7.564-4.033-1.565-7.606-.827-10.408 1.04 2.862.068 5.63.57 8.09 1.325.791-.465 1.248-.828 1.248-.828" fill="#FFF"/><path d="M103.915 96.168s8.59 2.77 14.158 10.684c0 0-3.35-2.144-9.531-4.555-6.2 2.636-9.02 4.905-9.02 4.905 16.215 6.824 20.652 14.558 22.444 18.42 0 0-6.394-1.615-15.385-2.107 0 0 15.667 3.756 23.41 8.914 0 0-2.256.671-4.63 1.032 0 0 10.395 2.058 19.996-2.205a28.806 28.806 0 0 1-1.406-3.17c-1.32-.22-2.886-.405-2.886-.405s2.358-3.619 8.36-8.166c-3.038-.667-6.288-1.756-9.651-3.428 0 0 5.523.596 11.376.742-.804-1.129-1.344-2.564-1.363-4.08-8.206-6.03-15.773-10.512-15.773-10.512s7.045 1.463 16.303 4.135c-.448-1.677-1.608-3.454-1.608-3.454s5.425-.802 10.325 3.65c4.463 4.067 6.303 6.222 11.878 6.007a15.285 15.285 0 0 1 4.536-1.377c-5.103-7.645-42.351-21.734-71.533-15.03M103.494 58.477c3.237 2.026 7.332 2.053 10.985 2.137 4.28.093 8.56.319 12.849.677l.332 8.023a216.585 216.585 0 0 0-10.02-.586l-.077-3.982a210.2 210.2 0 0 0-17.055.083l-.236 12.474a224.163 224.163 0 0 1 30.198.706c3.314.3 6.444.654 9.502.032 5.925-1.118 5.704-4.667 5.48-7.507l-.543-6.755c-.187-2.388-.462-5.502-5.195-8.11-3.34-1.87-7.36-2.43-10.859-2.758-3.85-.367-7.693-.622-11.534-.765l-.138-7.2c3.162.12 7.224.315 10.39.593l.146 3.517c5.224.418 12.309 1.696 14.047-3.106.626-1.769.434-4.229.25-6.66-8.995-1.533-18.828-2.706-27.75-2.92-3.447-.09-7.645.001-10.871 2.316-2.796 2.014-2.939 4.172-3.07 6.367l-.14 6.924c.046 2.31.163 4.592 3.309 6.5M152.933 49.65l1.363 23.477s-2.85-.563-4.274-.824l.4 8.388a246.464 246.464 0 0 1 27.14 6.457l-.877-8.327c-1.468-.448-4.397-1.297-4.397-1.297l-2.264-23.212c3.267-1.03 3.525-4.444 3.242-7.175-8.313-2.763-16.56-5.115-24.775-6.758l.384 8.396c1.35.265 4.058.875 4.058.875M88.515 76.234c4.235-2.521 4.322-5.609 4.421-8.273l.796-22.46c3.506-2.386 4.229-6.058 4.302-8.831a188.105 188.105 0 0 0-20.68 2.518l-2.416 32.281a230.87 230.87 0 0 0-9.81 1.817l3.102-32.254a217.71 217.71 0 0 0-21.012 5.902c-.396 2.76-.27 6.153 2.955 7.164L47.16 76.466c-.348 2.622-.787 5.727 3.145 6.723 3.5.837 9.03-.42 13.247-1.277a240.336 240.336 0 0 1 11.513-2.084c4.162-.664 9.69-1.401 13.45-3.594" fill="#FFF"/><path d="M158.08 129.508c1.77 3.396 4.076 5.75 7.453 7.863 0 0-.39-2.474-.186-4.824.235-2.747-1.406-3.882-2.897-3.987.333 1.097-.02 2.402-.02 2.402-1.268-1.417-4.35-1.454-4.35-1.454M136.412 147.807c3.848-1.408 8.553-5.558 8.553-5.558-3.564.83-5.242.849-5.242.849s-1.688 2.8-3.31 4.71M147.453 148.263c3.81-2.219 4.981-7.813 4.981-7.813-2.423 1.108-4.44 1.357-4.44 1.357.444 3.955-.54 6.456-.54 6.456M104.112 138.876s10.488 6.461 20.236 6.343c4.462-1.261 6.165-3.145 6.165-3.145-14.486 1.121-26.401-3.198-26.401-3.198M84.232 92.355c-6.362 3.923-11.312 9.271-11.312 9.271s11.716-7.405 35.147-10.91c-8.077.039-16.03.61-23.835 1.639" fill="#DD1731"/><path d="M162.45 128.56c1.491.105 3.132 1.24 2.897 3.987-.205 2.35.186 4.824.186 4.824-3.377-2.113-5.683-4.467-7.454-7.863 0 0 3.083.037 4.35 1.454 0 0 .354-1.305.021-2.402Zm-5.421-4.448c-2.181 1.537-3.4 2.996-3.4 2.996s3.15 9.366 11.94 14.251c.592 2.003.296 4.822.296 4.822-10.052-4.749-15.583-14.922-17.357-19.289 0 0 3.18-3.73 7.09-6.499 8.087.51 13.535-1.613 13.535-1.613.69-.725 1.456-1.38 2.29-1.937 2.803-1.867 6.376-2.605 10.41-1.04 6.42 2.482 8.904 5.115 9.986 7.564 1.754 4.015-2.429 10.71-9.264 14.421 0 0 .585-.995 1.011-2.282.538-1.628.822-3.723-.655-4.868-9.839-7.641-25.882-6.526-25.882-6.526Zm-9.576 24.151s.985-2.501.542-6.456c0 0 2.016-.249 4.439-1.357 0 0-1.17 5.594-4.98 7.813Zm-11.04-.456c1.622-1.91 3.31-4.71 3.31-4.71s1.678-.018 5.242-.848c0 0-4.705 4.15-8.553 5.558Zm-12.065-2.588c-9.748.118-20.236-6.343-20.236-6.343s11.915 4.32 26.4 3.198c0 0-1.702 1.884-6.164 3.145ZM72.92 101.626s4.95-5.348 11.312-9.271c7.806-1.03 15.758-1.6 23.835-1.64-23.431 3.506-35.147 10.911-35.147 10.911ZM50.304 83.19c-3.932-.996-3.493-4.1-3.145-6.723l3.014-22.368c-3.224-1.011-3.351-4.404-2.955-7.164a217.71 217.71 0 0 1 21.012-5.902l-3.102 32.254a230.87 230.87 0 0 1 9.81-1.817l2.416-32.281c6.92-1.23 13.807-2.07 20.68-2.518-.073 2.773-.796 6.445-4.302 8.832l-.796 22.46c-.099 2.663-.186 5.75-4.421 8.272-3.762 2.193-9.29 2.93-13.451 3.594-3.83.596-7.668 1.292-11.513 2.084-4.216.856-9.747 2.114-13.247 1.277Zm50.022-38.136c.13-2.195.273-4.353 3.069-6.367 3.226-2.315 7.424-2.406 10.87-2.316 8.923.214 18.756 1.387 27.75 2.92.185 2.431.377 4.891-.25 6.66-1.737 4.802-8.822 3.524-14.046 3.106l-.145-3.517c-3.167-.278-7.23-.472-10.39-.593l.137 7.2c3.841.143 7.684.398 11.534.765 3.498.328 7.52.888 10.859 2.758 4.733 2.608 5.008 5.722 5.195 8.11l.544 6.755c.223 2.84.444 6.389-5.481 7.507-3.058.622-6.188.269-9.502-.032a224.163 224.163 0 0 0-30.198-.706l.236-12.474a210.2 210.2 0 0 1 17.055-.083l.077 3.982c3.338.118 6.677.313 10.02.586l-.332-8.023a208.284 208.284 0 0 0-12.849-.677c-3.653-.084-7.748-.11-10.985-2.137-3.146-1.908-3.263-4.19-3.31-6.5l.142-6.924Zm72.94 2.084c.283 2.73.025 6.145-3.242 7.175l2.264 23.212s2.929.85 4.397 1.297l.878 8.327a246.464 246.464 0 0 0-27.14-6.457l-.4-8.388c1.423.26 4.273.824 4.273.824l-1.363-23.477s-2.707-.61-4.058-.875l-.384-8.396c8.214 1.643 16.462 3.995 24.775 6.758Zm-14.043 68.267c.666.054 1.284-.051 1.818-.299.627.513.822.52 1.233.698-1.076.667-2.52 1.025-4.029.899-2.925-.272-4.992-2.255-4.625-4.47.166-.976.882-1.972 1.681-2.468 0 0 2.11-.158 3.812 2.948a1.713 1.713 0 0 1-1.3.449 1.472 1.472 0 0 1-.99-.494 1.935 1.935 0 0 0-.092.32c-.197 1.193.92 2.276 2.492 2.417Zm16.225-4.206c-1.565.218-3.089.68-4.536 1.377-5.575.215-7.415-1.94-11.878-6.007-4.9-4.452-10.325-3.65-10.325-3.65s1.16 1.777 1.608 3.454c-9.258-2.672-16.303-4.135-16.303-4.135s7.567 4.483 15.773 10.512c.019 1.516.559 2.951 1.363 4.08-5.853-.146-11.376-.742-11.376-.742 3.363 1.672 6.613 2.76 9.652 3.428-6.003 4.547-8.361 8.166-8.361 8.166s1.565.186 2.886.405a28.806 28.806 0 0 0 1.406 3.17c.936 1.834 2.064 3.686 3.23 5.517-3.608 1.358-9.309 1.71-9.309 1.71s1.534-1.937 2.267-3.473c-13.038 4.691-26.04 1.719-26.04 1.719 1.619-1.106 4.123-3.08 4.123-3.08-5.568-1.118-14.25-2.181-23.996-.847 0 0 3.045-2.322 6.54-4.205 6.548-.068 11.457.007 11.457.007-10.78-3.386-22.857-3.734-22.857-3.734 6.06-3.688 12.506-5.617 15.05-6.295 5.997 1.986 9.794 3.693 9.794 3.693-6.147-7.986-26.248-12.932-26.248-12.932 7.671-4.966 15.971-6.581 19.174-7.039 6.182 2.41 9.531 4.555 9.531 4.555-5.567-7.914-14.158-10.684-14.158-10.684 29.182-6.704 66.43 7.385 71.533 15.03Zm8.525 1.48c.85-.478 1.414-1.453 1.414-1.453-4.176-4.984-10.827-9.22-19.152-12.8l17.795-3.483-2.153-20.414c-1.456-.444-2.91-.894-4.37-1.329l-1.573-16.128c3.772-3.9 3.045-9.241 2.551-14.124-21.003-7.678-46.412-12.194-69.525-12.071-23.2.123-45.557 4.345-66.549 12.042-.615 4.366-1.413 9.057 1.18 12.848l.87 1.287-2.863 20.667a9.623 9.623 0 0 0 .15 3.533c-11.347.18-20.777.814-26.948 1.75 0 0 13.258 2.523 26.85 10.168 0 0-7.295 1.024-15.444 3.305 21.572 6.77 60.876 25.424 71.892 71.015 1.62-1.14 6.747-5.207 10.991-13.37-6.752-1.577-9.94-5.32-9.94-5.32 19.127 6.654 31.582-.97 31.582-.97-3.22 4.59-7.427 7.134-7.427 7.134 8.988.334 15.595-2.812 19.49-5.436-.06 3.02-1.496 6.332-1.496 6.332s9.9-2.279 15.591-9.796c3.924 3.477 12.755 6.46 12.755 6.46 1.99-6.65.253-11.358.374-15.91.08-3.151.742-5.993.742-5.993 3.19.367 6.233 1.24 7.697 2.486 3.207 2.73-1.332 7.106-1.935 7.737-.606.632-.87 1.14-.495 1.392 2.597-.2 10.523-1.516 15.881-7.033 5.643-5.693 10.034-15.881-7.935-22.526Z" fill="#0F2B53"/><path d="M180.762 117.34s-.457.363-1.248.828c-1.027.605-2.617 1.38-4.51 1.757 0 0 1.614.802 4.853.145 0 0 .748-.653 1.03-1.442.149-.417.17-.871-.125-1.288M37.85 77.622c.35 0 .557-.156.557-.441 0-.26-.143-.428-.531-.428h-.363v.869h.336Zm-.87-1.31h.986c.544 0 1.011.22 1.011.843 0 .31-.194.61-.48.713l.597 1.076h-.596l-.454-.907h-.531v.907h-.533v-2.632Zm2.866 1.349c0-1.219-.843-2.088-1.932-2.088s-1.918.87-1.918 2.088c0 1.231.83 2.074 1.918 2.074 1.09 0 1.932-.843 1.932-2.074Zm-4.37 0c0-1.517 1.102-2.555 2.438-2.555 1.35 0 2.451 1.038 2.451 2.555 0 1.517-1.102 2.554-2.451 2.554-1.336 0-2.438-1.037-2.438-2.554Z" fill="#0F2B53"/></g></svg>