<svg width="200" height="200" xmlns="http://www.w3.org/2000/svg"><g fill="none"><path d="M128.353 120.771c6.89-1.485 15.577-3.047 23.811-3.646 2.002 1.131 8.713 4.042 19.313-.086l.572 3.732h-43.696zm64.794 37.654c.812-1.633 1.286-3.512 1.286-5.613 0-2.7-.695-5.09-2.063-7.144l.068-11.468c0-.715-.282-1.202-.656-1.51-1.107-1.022-3.818-3.081-8.148-3.595l1.737-8.517h-7.581c2.733-2.445 6.193-7.474 6.193-17.274 0-1.273-.058-2.626-.184-4.064l-.002-.023-.003-.024c-.015-.135-.405-3.34-2.953-6.848-2.186-3.007-6.443-6.847-14.417-8.493-.59-2.051-2.278-6.149-6.998-10.72-3.753-3.636-8.699-6.884-14.7-9.654-7.407-3.42-16.474-6.128-26.949-8.05l-.025-.005-.025-.003c-.432-.067-43.409-6.763-70.346-14.67l-.023-.007-.025-.006c-10.74-2.853-16.963-8.668-22.453-15.472.527 6.135 2.97 11.437 5.584 16.488 2.271 4.387 5.882 10.388 10.856 15.846-4.793.231-12.74.984-19.557 3.387l-5.196 1.831 5.256 1.653c.18.056 15.694 4.984 27.1 12.254a60.386 60.386 0 0 0-6.754.603c-6.97 1.014-17.373 3.79-27.349 11.26l-4.108 3.077-1.155.963a98.55 98.55 0 0 1-3.31-.538L0 90.967l4.662 4.28c3.907 3.587 10.11 8.865 17.477 13.642 7.488 4.855 14.495 8.094 20.895 9.668a132.49 132.49 0 0 0-2.575 2.021H9.416l1.786 8.76c-2.868.008-11.141.035-11.141.035l.463 2.205 1.915 9.137h.994v13.097H2.44l-2.38 11.35H24.1v10.725s11.126-9.969 12.069-10.812h2.896v.987l11.424 2.364v-3.22l6.828.042c2.04 0 4.047-.345 5.947-1l-.192.913h27.37l10.346 5.328s1.945-6.64 2.476-8.448h1.944l2.154 8.558 12.22-6.275 4.205 7.934 6.1-11.554 6.1 11.554 3.76-7.097 36.588-.012c1.33.357 2.816.533 4.534.533 1.277 0 2.563-.178 3.807-.52h15.075v-6.737h-6.603z" fill="#FFF"/><path d="M169.959 147.999l.025 3.659-6.377-6.333 6.384-6.296.372.093a11.34 11.34 0 0 0-.252 2.377c0 2.516.642 4.632 1.975 6.437-.934.036-2.127.077-2.127.063zm-76.444-2.016v-7.106h1.34l1.11-5.293h4.198l-6.648 12.4zm-12.066-4.815h-.979v-2.348h.979v2.348zm0 14.482h-.979v-3.386h.979v3.386zm-22.79-4.447v-7.879c1.065.505 2.486 1.807 2.486 3.939 0 2.052-1.333 3.393-2.486 3.94zm129.99-6.936c.764-.175 1.863-.429 1.863-.446l.077-9.724c-1.301-1.228-4.26-3.283-8.98-3.283-.072 0-.143.002-.214.003l1.713-8.4h-68.6c.045-.058.09-.114.136-.17 0 0 20.032-5.78 37.962-6.99 0 0 7.225 5.223 20.32-.823l.997 6.5s9.62-3.402 8.034-21.535c0 0-1.286-11.286-17.069-13.968 0 0-2.194-19.892-47.446-28.195 0 0-43.214-6.69-70.585-14.724 0 0-13.498-3.567-18.996-11.339 0 0 5.414 16.583 17.747 28.165 0 0-13.065-.202-23.227 3.38 0 0 20.925 6.574 32.53 16.024 0 0-20.27-2.696-38.977 11.313 0 0 11.123.49 21.447 3.11-5.582 1.718-15.982 3.514-31.463.733 7.16 6.574 24.927 21.414 41.596 23.648 0 0-2.641 1.822-6.396 4.87h-29.44l1.784 8.752c-4.448.012-11.127.036-11.127.036l1.609 7.673h1.34v16.773h-1.34l-1.61 7.673 23.615-.07v8.502l9.508-8.519h5.457v1.331l7.724 1.6v-2.81l8.689.053a16.24 16.24 0 0 0 8.503-2.391l-.484 2.304h25.546l8.748 4.505 2.234-7.626h4.923l-.13.065 1.922 7.633 11.774-6.047 3.42 6.455 6.103-11.561 6.102 11.56 10.831-20.44v7.783h-1.34l-1.609 7.673h18.683l-.428-2.036 1.963 1.95 12.495.076c1.278.372 2.675.531 4.285.531 5.759 0 11.715-4.126 11.715-11.032 0-3.505-1.291-6.32-3.933-8.545z" fill="#231F20"/><path d="M177.923 98.102c-2.666-5.086-17.16-8.565-17.16-8.565l-1.83-2.61c-4.35.84-7.777 7.09-7.777 7.09-6.902 3.75-14.142 2.595-18.926 5.107-4.786 2.51-9.161 11.015-9.161 11.015 10.778-3.464 19.224-.75 26.425-.142 7.202.608 8.92 1.587 14.328.127 5.408-1.458 7.452-3.784 7.452-3.784-6.429 2.621-9.58-3.184-9.58-3.184-7.862-2.205-30.775.98-30.775.98 4.237-2.475 21.67-5.291 27.187-5.116 5.518.175 7.935 3.294 7.935 3.294 1.099-3.864 3.003-5.77 4.304-6.888.502.37 4.776 3.597 5.34 6.281.512 2.43 1.23 8.308.97 11.78 0 0 3.934-10.301 1.268-15.385" fill="#BDBCBC"/><path d="M128.036 78.068s8.037-3.278 17.031-.601c8.996 2.675 11.375 5.25 11.375 5.25s-1.97 3.417-6.392 3.167c0 0-4.87-6.784-22.014-7.816m15.626 10.422a2.334 2.334 0 0 1-2.181 2.48 2.338 2.338 0 0 1-2.277-1.335 1.978 1.978 0 0 1-2.552-1.746 1.973 1.973 0 0 1 1.843-2.1 1.985 1.985 0 0 1 1.73.803c.282-.149.597-.246.938-.268a2.338 2.338 0 0 1 2.5 2.165zm.528-2.605c-1.591-.993-5.703-1.975-8.82-2.617-1.41 1.372-2.232 3.226-2.096 5.22.263 3.852 3.955 6.74 8.243 6.451 3.93-.264 6.965-3.113 7.248-6.552-1.735-.664-3.05-1.55-4.575-2.502z" fill="#E51636"/><path d="M140.607 87.621a1.98 1.98 0 0 0-2.112-1.831 1.973 1.973 0 0 0-1.843 2.099 1.977 1.977 0 0 0 2.111 1.83 1.975 1.975 0 0 0 1.844-2.098m16.641 50.612v-.592c0-.924.122-1.105.729-1.105h.978l-1.707 1.697zm-54.715 12.303l1.659-3.364 1.683 3.364h-3.342zm-45.729 3.424h-.502v-13.393h.502c3.658 0 6.697 2.956 6.697 6.696 0 3.895-3.197 6.697-6.697 6.697zm-13.48-11.448l.021.439c-.176.713-.225.736-1.23.736h-5.737v-2.514h5.737c1.08 0 1.106.097 1.166.468l.002.047 2.998.014v-5.166h1.22c.803.09.729.333.729 1.105v19.245c0 .997.01 1.023-.732 1.105H46.28v-5.18l-2.987.006c-.146.517-.278.536-1.18.536h-5.736v-2.514h5.737c1.08 0 1.106.096 1.166.467l.033.667h2.967v-9.447l-2.958-.014zm-15.018 15.334l-.465.148c-.303-.035-.372-.081-1.51-1.663l-4.659-6.69a8.801 8.801 0 0 0 3.58-4.215v7.805l3.054-.657v5.272zm-12.267-13.378h-.327v-4.81h.327c1.031 0 2.377.79 2.377 2.404a2.38 2.38 0 0 1-2.377 2.406zm123.913-7.932h.604c.469.06.632.173.323.747l-4.881 9.48-1.734-3.391 2.919-5.477c.65-1.257.669-1.29 1.305-1.359h.63v-2.93l-8.612.026-.62 1.208-.62-1.208-8.604-.035v2.939h.621c.637.068.655.102 1.306 1.359l2.918 5.477-1.733 3.39-4.889-9.492-.007-.013c-.28-.507-.13-.66.21-.721h.733l.006-2.941-12.578-.05.753 2.991h1.015c.643.065.656.09 1.238 1.215l9.678 18.264c-.372.187-1.163.587-1.247.645-.558.173-.683.12-1.112-.71l-13.389-24.89-13.027 24.3v-17.72c0-1.248.084-1.036.686-1.104h1.094l.627-2.991H81.338v2.991h1.019c.84.095.729.496.729 1.105v5.83h-4.363v-5.83c0-1.21.086-1.031.73-1.105h1.05v-2.991H68.246l.627 2.991h1.05c.655.075.73-.092.73 1.105v5.652c-1.802-6.026-7.586-9.835-13.325-9.835-1.56 0-9.103.066-11.046.083v-2.301l-3.01.623v1.043c-.076.654-.354.726-1.156.726h-13.81v8.235l-2.467-.496a8.591 8.591 0 0 0-2.522-5.308 8.783 8.783 0 0 0-6.23-2.562c-1.95 0-11.853.044-11.853.044l.627 2.991h1.05c.69.078.73.122.73 1.105v19.245c0 1.134-.016 1.025-.732 1.105H5.86l-.627 2.992H18.12l-.627-2.992h-1.048c-.728-.08-.732.017-.732-1.105v-1.754l4.02 5.764 8.574.08v5.515l6.245-5.595h7.564c.868 0 1.155.005 1.155.725v1.043l3.011.624v-2.301c1.94.017 9.466.082 11.046.082 6.293 0 11.62-4.177 13.325-9.886v5.703c0 1.195-.075 1.032-.732 1.105h-1.048l-.627 2.992h12.259v-2.992h-1.048c-.69-.077-.733-.044-.733-1.105v-6.826h4.363v6.826c0 1.195-.073 1.031-.732 1.105h-1.016v2.992h10.149l6.681 3.496.864-2.943s-.88-.437-1.015-.491c-.504-.352-.496-.42-.017-1.345l.909-1.838h10.6l.91 1.844c.478.949.49.975-.099 1.365l-.907.45.75 2.98 11.179-5.827 2.437 4.6 6.107-11.569 6.106 11.569 13.184-24.876v18.488c0 1.037-.19 1.045-.734 1.105h-1.046l-.628 2.992h12.886l-.627-2.992h-1.047c-.784-.087-.732-.033-.732-1.105v-3.757l7.817 7.767 10.128.087-.242-.963c1.403.825 3.336 1.483 5.917 1.483 4.6 0 9.358-3.251 9.358-8.69 0-4.51-2.585-6.637-4.836-7.988l-3.55-2.133c-1.605-.923-1.605-1.273-1.605-1.758 0-.745 1.031-1.19 2.028-1.19 1.455 0 2.619.76 3.042 1.984l.286.829s2.578-.583 2.578-.59l.055-6.715-.393-.296c-1.587-1.196-3.68-1.8-6.222-1.8-2.821 0-5.177.858-6.813 2.484-1.502 1.491-2.327 3.571-2.327 5.86 0 3.478 1.493 5.915 4.837 7.899l2.79 1.671c1.63.872 1.928 1.401 1.928 2.132 0 .49-.584 1.148-1.899 1.148-2.317 0-4.102-1.298-4.776-3.471l-.222-.719s-2.796.11-2.796.104l.05 7.09-12.11-12.038c1.907-1.883 7.915-7.815 8.188-8.07.93-.864 1.042-.825 2.046-.503l.805-3.198-9.43.087-2.834 2.814.608-2.901-19.702.06v2.931zM22.118 124.755v1.895h-1.57v-.555h-.99v1.175h1.184c.357.01.77.01 1.1.228.469.301.469.794.469 1.168v1.029c-.01.437-.01 1.022-.597 1.331-.303.164-.605.164-.927.164h-2.9v-1.969h1.67v.63h.992v-1.295h-1.294c-.376-.01-.78-.01-1.11-.347-.322-.319-.34-.684-.35-1.048v-1.066c.01-.347.02-.684.313-.985.34-.347.789-.355 1.156-.355h2.854m6.726 0c-.486 0-1.129 0-1.404.674-.138.319-.138.693-.138 1.067v3.145c0 .419 0 .911.404 1.249.358.291.89.3 1.294.3h1.174c.56 0 1.312-.009 1.542-.856.083-.31.083-.703.083-1.068v-2.661c0-.529 0-.957-.193-1.294-.303-.53-.881-.556-1.496-.556h-1.266zm1.193 5.095h-.964v-3.755h.964v3.755zm6.543-5.095h2.192v5.095h.909v-5.095h2.184v1.34h-.422v3.354c0 .401.009.902-.239 1.258-.321.474-.853.483-1.266.483h-1.514c-.35-.009-.734-.018-1.055-.292-.35-.3-.368-.692-.368-1.257v-3.546h-.422v-1.34m15.37 0v2.379H50.7v-1.04h-.652v3.756h.423v1.34h-2.606v-1.34h.422v-3.755h-.652v1.039h-1.248v-2.38h5.56m4.543.001h2.176v2.497h.917v-2.497h2.193v1.34h-.422v3.755h.422v1.34h-2.193v-2.589h-.917v2.59H56.49v-1.34h.422v-3.756h-.422v-1.34" fill="#FFF"/><path fill="#FFF" d="M66.548 124.755h4.57v2.105H69.64v-.765h-.936v1.221h1.322v1.185h-1.322v1.35h.936v-.83h1.578v2.17h-4.67v-1.34h.422v-3.756h-.422v-1.34m9.643 5.095h-.477v1.34h2l.221-1.567h1.092l.23 1.567h1.99v-1.34h-.44l-.909-5.095h-2.816l-.89 5.095zm2.698-1.34h-.816l.413-2.698.403 2.698zm11.131-3.755v1.895h-1.57v-.555h-.99v1.175h1.184c.357.01.77.01 1.1.228.469.301.469.794.469 1.168v1.029c-.01.437-.01 1.022-.597 1.331-.303.164-.606.164-.927.164h-2.9v-1.969h1.67v.63h.992v-1.295h-1.294c-.376-.01-.78-.01-1.11-.347-.322-.319-.34-.684-.35-1.048v-1.066c.01-.347.02-.684.313-.985.34-.347.789-.355 1.156-.355h2.854m10.114 0v2.379h-1.248v-1.04h-.652v3.756h.423v1.34H96.05v-1.34h.422v-3.755h-.65v1.039h-1.248v-2.38h5.56m9.924.001l1.293 2.35c.12.248.147.302.257.576.119-.255.156-.328.285-.575l1.266-2.351h2.028v1.34h-.422v3.755h.422v1.34h-2.092v-2.98c0-.237 0-.293.018-.493l-1.514 2.762-1.56-2.789c.01.192.019.227.019.447v3.053h-2.065v-1.34h.43v-3.755h-.43v-1.34h2.065m9.45 0h2.625v1.34h-.431v3.755h.43v1.34h-2.624v-1.34h.423v-3.755h-.423v-1.34m11.25 0v1.895h-1.569v-.555h-.991v1.175h1.184c.358.01.77.01 1.101.228.468.301.468.794.468 1.168v1.029c-.01.437-.01 1.022-.597 1.331-.302.164-.605.164-.927.164h-2.899v-1.969h1.67v.63h.991v-1.295h-1.294c-.376-.01-.78-.01-1.11-.347-.321-.319-.34-.684-.35-1.048v-1.066c.01-.347.02-.684.313-.985.34-.347.79-.355 1.156-.355h2.854m9.02 0v1.895h-1.569v-.555h-.99v1.175h1.183c.357.01.77.01 1.101.228.468.301.468.794.468 1.168v1.029c-.01.437-.01 1.022-.596 1.331-.303.164-.606.164-.928.164h-2.9v-1.969h1.671v.63h.991v-1.295h-1.294c-.376-.01-.78-.01-1.11-.347-.322-.319-.34-.684-.348-1.048v-1.066c.008-.347.018-.684.311-.985.34-.347.79-.355 1.157-.355h2.853m6.267 0c-.486 0-1.128 0-1.403.674-.138.319-.138.693-.138 1.067v3.145c0 .419 0 .911.403 1.249.358.291.89.3 1.294.3h1.175c.56 0 1.312-.009 1.541-.856.083-.31.083-.703.083-1.068v-2.661c0-.529 0-.957-.193-1.294-.303-.53-.88-.556-1.495-.556h-1.267zm1.193 5.095h-.963v-3.755h.963v3.755zm6.084-5.095h2.193v5.095h.908v-5.095h2.184v1.34h-.422v3.354c0 .401.01.902-.238 1.258-.322.474-.854.483-1.267.483h-1.514c-.348-.009-.733-.018-1.055-.292-.35-.3-.367-.692-.367-1.257v-3.546h-.422v-1.34m9.598 1.34h.413v3.755h-.413v1.34h2.192v-2.615h.991v1.95c.01.602.267.656.937.665h1.22v-1.34h-.43v-.693c-.01-.291-.029-.592-.25-.865-.191-.229-.42-.283-.65-.338.917-.301.926-.866.926-1.714 0-.419 0-.838-.348-1.158-.349-.319-.817-.319-1.212-.327h-3.376v1.34zm3.183 0v1.275h-.99v-1.275h.99zm6.397-1.34h2.624v1.34h-.432v3.755h.432v1.34H172.5v-1.34h.422v-3.755h-.422v-1.34"/><path d="M56.804 154.936H55.32v-15.344h1.484c4.232 0 7.679 3.423 7.679 7.671s-3.447 7.673-7.679 7.673zm.523-20.503c-1.876 0-10.296.088-10.296.088l.218 1.04h.305c1.221.129 1.658.39 1.658 2.08v19.245c0 1.69-.437 1.95-1.658 2.08h-.305l-.218 1.041s8.377.087 10.296.087c7.112 0 12.914-5.766 12.914-12.831 0-7.065-5.802-12.83-12.914-12.83z" fill="#E51636"/><path d="M100.958 151.51l3.228-6.544 3.273 6.545h-6.5zm18.194 6.027c-1.18.39-1.659.39-2.444-1.128l-12.522-23.276-12.478 23.276c-.523 1.01-.93 1.347-1.478 1.345a5.84 5.84 0 0 1-.054-.868V137.64c0-1.69.393-1.951 1.615-2.08h.349l.218-1.04H82.105v1.04h.306c1.22.129 1.657.39 1.657 2.08v6.806h-6.326v-6.806c0-1.69.436-1.951 1.658-2.08h.305v-1.04H69.452l.218 1.04h.306c1.221.129 1.658.39 1.658 2.08v19.245c0 1.69-.437 1.95-1.658 2.08h-.306l-.218 1.041h10.253v-1.04H79.4c-1.222-.13-1.658-.391-1.658-2.081v-7.802h6.326v7.802c0 1.69-.436 1.95-1.657 2.08h-.306v1.041h9.639l5.81 3.076.306-1.039s-.174-.086-.305-.129c-1.004-.695-1.179-1.215-.436-2.645l1.178-2.384h11.823l1.178 2.384c.741 1.474.567 1.95-.48 2.645l-.262.13.262 1.038 9.293-4.896-.697-.824s-.175.087-.262.174zm65.729-11.877l-3.533-2.124c-1.659-.953-2.095-1.562-2.095-2.602 0-1.3 1.352-2.166 3.01-2.166 2.007 0 3.447 1.127 3.971 2.644l.96-.218c0-2.166.043-3.813.043-5.461-1.265-.953-3.053-1.603-5.628-1.603-5.54 0-8.159 3.51-8.159 7.37 0 3.076 1.222 5.2 4.363 7.064l2.749 1.647c1.701.91 2.443 1.691 2.443 2.991 0 1.213-1.22 2.123-2.88 2.123-2.486 0-4.842-1.343-5.715-4.16l-1.09.043c0 1.256.043 4.94.043 6.198 1.789 2.167 4.406 3.12 7.505 3.12 3.926 0 8.376-2.73 8.376-7.714 0-3.641-1.832-5.635-4.363-7.152m-168.842-.217h-1.31v-6.762h1.31a3.359 3.359 0 0 1 3.36 3.38 3.359 3.359 0 0 1-3.36 3.382zm11.715 13.523c-.758-.086-.922-.26-2.23-2.08l-5.287-7.593c2.745-1.2 4.659-3.925 4.659-7.1 0-4.248-3.49-7.716-7.81-7.716-2.705 0-10.645.044-10.645.044l.217 1.04h.306c1.222.129 1.657.39 1.657 2.08v19.245c0 1.69-.435 1.95-1.657 2.08h-.306l-.217 1.041h10.47l-.217-1.04h-.306c-1.222-.13-1.658-.391-1.658-2.081v-4.874l5.517 7.908 7.76.087v-1.04s-.136.043-.253 0zm-1.631-57.209s23.72 16.29 45.045 11.67c-4.419 1.297-12.77 4.135-20.93 8.99h56.04c2.569-1.832 4.19-3.223 4.19-3.223s-10.72 4.036-16.625 1.431c0 0 15.192-4.43 23.445-14.474 0 0-9.09-1.546-17.544 1.183 0 0 5.098-10.151 7.33-13.626 0 0-8.66-.777-14.225-6.701 0 0 8.673 2.833 15.675-4.34 0 0-11.9-3.231-20.432-.81 0 0 4.57-3.408 15.094-6.655 0 0-5.675-2.446-8.08-8.09 0 0 8.468 6.907 20.896 4.109 0 0-4.486-2.224-6.199-3.683 0 0 40.63 8.334 46.807 11.77 0 0-15.347-18.795-65.147-19.593-22.11-.355-49.37-11.057-49.37-11.057S58.617 65.98 78.57 69.663c-4.598-.794-25.786-4.386-36.651-4.97 0 0 23.699 11.48 28.995 21.568 0 0-24.3-4.976-37.499.878 0 0 24.583 4.889 29.872 11.86 0 0-21.725 7.509-37.164 2.758" fill="#E51636"/><path d="M165.472 159.92l8.464.087-.262-1.04s-.175.043-.305 0c-.785-.087-1.004-.26-2.88-2.081l-11.606-11.573 7.766-7.672c1.834-1.821 2.095-1.994 2.836-2.08.13-.044.305 0 .305 0l.262-1.04-7.766.086-6.02 5.982v-2.948c0-1.69.436-1.951 1.657-2.08h.306l.218-1.04H140.72v1.054c1.151.159 1.712.89 1.034 2.152l-5.76 11.183-2.835-5.547 3.14-5.896c.717-1.38.907-1.751 2.02-1.891v-1.048l-7.211.08-1.222 2.382-1.222-2.383-7.235-.079v1.045c1.134.137 1.322.503 2.043 1.894l3.142 5.896-2.836 5.547-5.76-11.183c-.673-1.211-.126-1.98 1.011-2.148v-1.058h-10.521l.261 1.04h.305c1.267.129 1.397.476 2.139 1.906l12.565 23.71 6.108-11.572 6.108 11.572 12.566-23.71c.425-.87.656-1.338 1.057-1.6.385.266.54.765.54 1.774v19.245c0 1.69-.436 1.95-1.657 2.08h-.307l-.218 1.041h10.472l-.218-1.04h-.306c-1.221-.13-1.658-.391-1.658-2.081v-6.112l9.207 9.146m-123.33-15.3h-6.719v-4.422h6.72c1.164 0 1.673.173 1.924.7h1.22l.04-8.46-1.047.218v.304c-.13 1.213-.436 1.647-2.138 1.647H29.315v10.012c-1.57-.043-1.876-.433-2.006-1.604v-.345l-1.047-.217v9.579l1.047-.218v-.303c.13-1.214.436-1.603 2.006-1.647v14.434l4.887-4.378h7.94c1.702 0 2.007.434 2.138 1.647v.304l1.048.217-.042-8.515h-1.195c-.242.571-.744.755-1.949.755h-6.719v-4.464h6.72c1.638 0 2.06.482 2.126 1.325h1.059v-7.908h-1.073c-.072.556-.358 1.338-2.113 1.338" fill="#E51636"/><path d="M26.788 143.07l-.06-.011v8.367l.066-.014c.07-.607.206-1.048.455-1.36v-5.625c-.253-.315-.394-.754-.46-1.357m39.571-4.264a12.426 12.426 0 0 0-9.033-3.88c-1.559 0-7.727.06-9.688.08l.015.072c.583.064 1.039.18 1.371.436 2.5-.024 7.45-.071 8.822-.071a12.42 12.42 0 0 1 8.514 3.363m-1.383 8.457c0 4.502-3.667 8.165-8.174 8.165h-1.459v.517h1.511c4.508 0 8.642-3.883 8.642-8.386 0-2.393-1.037-4.33-2.686-5.824a8.124 8.124 0 0 1 2.166 5.528m-14.75 9.947v-19.052c0-1.276-.278-1.908-.85-2.238.221.378.33.923.33 1.72v19.246c0 1.973-.664 2.408-2.054 2.564-.008.033-.008.036-.015.071.447.004.787.01 1.567.019.51-.257 1.022-1.174 1.022-2.33m28.203 2.304h.868l.002-.082c-.492-.07-.893-.186-1.205-.418.092.203.204.366.335.5m6.653-14.058v-7.298c0-1.276-.278-1.908-.85-2.239.221.378.33.924.33 1.722v7.297h-6.798v.518h7.318m0 11.946v-8.293h-.52v7.777c0 1.98-.669 2.412-2.07 2.566v.062h1.651c.447-.357.939-.982.939-2.112m27.411 2.043l-1.213-2.535h-.598l1.059 2.143c.333.661.506 1.18.506 1.623 0 .635-.362 1.111-1.117 1.621.005.027.006.03.014.057.235-.124.78-.436 1.542-.837.092-.45.14-1.41-.193-2.072m-22.17-.685c1.028 0 1.686-.757 2.201-1.751l-.004.006s10.51-19.563 11.964-22.275c-.152-.282-.186-.35-.3-.561l-12.04 22.46c-.43.832-.96 1.6-1.899 1.607l.013.1.065.415m14.135-14.352l3.798 7.594h-7.32l-.254.516h8.418l-4.352-8.695-.29.585m-31.81 12.993v-19.244c0-1.276-.278-1.908-.85-2.238.221.378.33.923.33 1.72v19.246c0 1.973-.664 2.408-2.055 2.564l-.014.064h1.649c.447-.357.94-.982.94-2.112m19.086-22.33l.012-.06h-9.255v.063c.603.066 1.071.184 1.408.455h6.416c.319-.256.777-.39 1.419-.458m-12.435.006l.002-.066h-9.242l.014.066c.595.066 1.057.184 1.391.452h6.444c.333-.268.795-.386 1.391-.452m38.835 23.592l1.2-.633c-.013-.017-.014-.017-.028-.033-.854.282-1.46.36-2.008-.016.272.356.541.572.836.682" fill="#F1807A"/><path d="M92.146 156.64l.001-.002.007-.012-.008.014m77.494-21.59c.315 0-.137-.034 0 0m-12.685 24.464h.883l-.014-.082c-.492-.07-.892-.186-1.204-.418.092.203.204.366.335.5m24.781-14.565l2.58 1.551c.71.424 2.146.964 2.662 1.433-.611-.666-1.389-1.275-2.353-1.852l-3.535-2.123a9.36 9.36 0 0 1-1.27-.85c.366.451 1.063 1.35 1.916 1.84m-1.435 11.386c1.952 0 3.72-1.34 3.72-3.07 0-1.068-.437-1.36-1.197-1.995.435.525.676 1.14.676 1.933 0 1.491-1.45 2.616-3.375 2.616-1.682 0-3.174-.561-4.305-1.556 1.175 1.316 2.527 2.072 4.481 2.072m-5.962-4.022a6.537 6.537 0 0 1-.275-.64c-.11.003-.125.004-.246.01l.04 5.539c.213.248.442.48.683.695-.054-.06-.11-.117-.164-.178l-.038-5.426m7.561-17.173c2.876 0 4.84.9 4.84.852-1.303-.905-3.025-1.369-5.13-1.369-5.658 0-7.664 3.705-7.664 6.877 0 2.22.663 3.856 2.212 5.264-1.179-1.292-1.692-3.134-1.692-5.089 0-3.172 1.777-6.535 7.433-6.535m4.006 4.717c.249.294.463.621.63.984l.166-.039.001-.064a4.27 4.27 0 0 0-.797-.88M27.086 159.503l.426.006v-.096a1.58 1.58 0 0 1-.817-.404c.14.2.268.362.391.494m-4.566-22.14a7.34 7.34 0 0 0-5.434-2.394c-2.238 0-8.131.03-10.037.04l.014.069c.59.065 1.048.181 1.38.444 2.432-.013 7.201-.036 9.163-.036 1.89 0 3.614.712 4.914 1.877m-7.1 22.151h.882l-.013-.082c-.492-.07-.892-.186-1.205-.418.092.203.204.366.336.5m3.576-19.934a3.87 3.87 0 0 1 .898 2.482c0 2.135-1.73 3.873-3.855 3.873h-1.284v.517h1.284c2.563 0 4.365-2.217 4.365-4.1 0-1.209-.543-2.061-1.408-2.772m-4.241 11.604l5.754 8.247c.03 0 .544 0 .62.002-1.347-1.93-6.374-9.173-6.374-9.173v.924m-5.118 5.99v-19.016c0-1.276-.277-1.908-.85-2.238.222.378.33.923.33 1.72v19.246c0 1.973-.663 2.408-2.054 2.564l-.014.064h1.58c.487-.26 1.008-1.21 1.008-2.34m131.471-22.162v.134c.368.089.64.228.842.384h7.29c.033-.026.068-.05.103-.074l.28-.184.277.19c.03.022.059.045.087.068h6.446c.334-.268.796-.386 1.391-.452l.014-.066h-16.73m1.22.935l.04.07c.095.178.173.418.173.725 0 .328-.09.732-.35 1.217l-5.92 11.492.292.57 5.943-11.545c.787-1.466.71-1.97-.178-2.529m-29.838 1.766c-.41-.792-.97-1.54-1.55-1.737.206.286.393.647.628 1.102 0 0 9.988 18.851 12.21 23.041l.295-.562c-2.807-5.297-11.582-21.844-11.582-21.844m17.675 11.362l5.83 11.044.284-.538-5.828-11.045-.286.539m-2.408-5.722l-3.133-5.88c-.46-.886-.945-1.166-1.434-1.494.228.312.44.717.712 1.243l.01.02 3.26 6.116-3.116 6.093.292.569 3.41-6.667m-9.135-8.341h-9.482l.016.063c.632.068 1.042.21 1.36.455h7.318c.214-.164.481-.286.788-.367v-.15m9.735.083l-6.545-.072v.112c.417.08.722.21.973.41l5.835.064-.263-.514m9.555-.071l-6.501.071c-.174.339-1.064 2.077-1.4 2.73l.393.767 1.528-2.98 5.037-.056c.245-.199.54-.33.943-.414v-.118m13.259 22.377v-19.244c0-.861-.091-1.72-.753-2.178l-.105-.073c.288.472.337 1.102.337 1.734v19.245c0 1.973-.663 2.408-2.053 2.564l-.014.064h1.58c.446-.357 1.008-.982 1.008-2.112m11.538-21.79c.252-.002 3.453-.033 5.467-.056a2.325 2.325 0 0 1 1.224-.481l.014-.055-6.922.077-6.204 6.163v.727l6.421-6.375M29.794 145.628l.51.015v-10.026h12.331c1.095 0 1.762-.472 2.157-.963.004-.887.008-1.316.01-1.608l-.063.013c-.178 1.542-.822 2.04-2.624 2.04H29.783v10.026l-.51-.014c-.723-.02-1.247-.121-1.626-.343.356.595 1.004.829 2.147.86m15.179 5.159v-.267c-.142-.1-.31-.185-.5-.261.137.154.238.33.306.528h.194m-.319-7.119c-.173.642-.71 1.443-2.54 1.443H35.42v.517h6.883c1.173 0 2.175-.53 2.501-1.02v-.94h-.15m-.261 16.609c.22.3.352.69.424 1.192l.076.013-.005-.856c-.137-.14-.3-.256-.495-.35m-14.599-10.388h-.011v13.303l.52-.466v-12.85l-.51.013m14.624 4.072c-.405.703-1.171.86-2.302.86H35.42v.517h6.898c.99 0 1.888-.269 2.45-.887a72.838 72.838 0 0 0-.003-.49h-.348" fill="#F1807A"/><path d="M196.419 162.681l.562-2.437h.938v3.098h-.607v-2.095l.002-.253.002-.252-.59 2.6h-.632l-.586-2.6v.252c.003.108.003.192.003.253v2.095h-.608v-3.098h.949l.567 2.437m-4.412-2.437h2.527v.549h-.933v2.55h-.657v-2.55h-.937v-.55" fill="#231F20"/></g></svg>