<svg width="200" height="200" xmlns="http://www.w3.org/2000/svg"><g fill-rule="nonzero" fill="none"><path d="M131.105 103.787V80.984h13.03l17.91 17.912v22.579h-24.654v-17.688h-6.286Zm-3.144 8.037-17.914 17.91H97.02V106.93l6.288-.002V77.84H53.05l-17.91-17.913V21.054L53.055 3.142h56.996l17.91 17.915v22.576h-24.653V25.944H59.796v29.092l50.255.001 17.91 17.913v38.874Zm-34.083-8.037v69.582h43.513V155.68h24.655v22.581l-17.915 17.91H87.133l-17.91-17.913V98.892l17.914-17.908h13.03v22.803h-6.29Zm-27.794 25.947H53.052l-17.91-17.914V89.24h24.654v17.69h6.288v22.804Zm99.104-5.116V97.594l-19.75-19.754h-14.333v-6.191l-19.752-19.754-48.414-.003V29.09h37.227v17.69h30.94V19.753L111.351 0h-59.6L32 19.75v41.48l19.748 19.754H82.69L66.084 97.59v6.197H62.94V86.098H32v27.024l19.75 19.755h14.334v46.685l19.75 19.753h59.599l19.755-19.75v-27.027h-30.94v17.686H97.02v-37.347h14.332l19.753-19.75v-6.197h3.143v17.688h30.94Z" fill="#FBC01C"/><path fill="#A21A34" d="M137.39 121.475h24.656V98.896l-17.912-17.912h-13.029v22.803h6.286v17.688M59.796 55.036V25.944h43.512v17.69h24.653V21.056l-17.91-17.915H53.055L35.141 21.054v38.873l17.91 17.913h50.257v29.088l-6.288.002v22.804h13.027l17.914-17.91V72.95l-17.91-17.913-50.255-.001M59.796 89.24H35.141v22.58l17.911 17.914h13.032V106.93h-6.288V89.24"/><path fill="#A21A34" d="M100.166 80.985h-13.03L69.224 98.891v79.366l17.91 17.913h56.998l17.915-17.91v-22.58H137.39v17.688H93.878v-69.582h6.288V80.985"/></g></svg>