<svg width="200" height="200" xmlns="http://www.w3.org/2000/svg"><g fill-rule="nonzero" fill="none"><path fill="#100F0D" d="m89.299 22.732.008-.015-.005.007.01-.017-.013.025"/><path d="m175.192 77.785-.855-4.761-.034-.173c-.239-1.116-1.585-6.927-4.628-11.702-4.362-6.846-8.032-9.877-9.055-10.644l-7.973-5.947-4.052 4.28c-3.882-10.383-10.03-16.907-13.602-20.039l-.095-.517c-.188-1.029-1.317-6.426-5.223-11.616-4.127-5.46-9.594-7.734-10.647-8.134l-9.201-3.5-4.638 8.68c-.434.81-2.627 5.18-3.165 11.757-.437 5.24.03 9.046.415 11.08-.404.446-.801.906-1.19 1.375a29.673 29.673 0 0 0-3.006-4.273c.781-5.486.173-11.838.096-12.585l-.062-.481c-.865-5.873-3.248-10.054-3.72-10.836L89.05.709 79.71 5.71c-.894.482-4.12 2.379-8.05 6.587-4.09 4.385-6.26 10.11-6.658 11.224l-1.249 3.644c-3.368 3.117-9.332 9.406-14.048 18.508l-1.566-3.999-11.727 8.523c-.788.576-4.96 3.788-9.624 10.368-4.731 6.683-14.858 25.618-6.732 57.011 2.731 10.55 8.54 19.309 16.027 24.232-9.143 10.503-9.685 23.55-1.667 39.844 5.869 11.93 15.807 17.979 29.54 17.979 5.826 0 11.516-.986 17.545-2.031 5.273-.916 10.725-1.862 15.552-1.91h.406c4.404 0 9.379.937 14.207 1.846 5.25.99 10.68 2.014 16.11 2.014 13.334 0 23.023-6.421 28.801-19.08 6.177-13.534 6.085-24.8-.294-34.402 10.008-4.85 18.365-15.152 22.488-27.802 6.551-20.09-.965-35.889-3.579-40.48" fill="#100F0D"/><path d="m169.787 79.808-1.034-5.77c-.124-.579-1.271-5.769-3.865-9.839-3.965-6.222-7.078-8.707-7.661-9.144l-3.927-2.929-3.372 3.561c-.335.357-2.555 2.878-3.75 7.432-.012-.1-.02-.194-.03-.295-2.165-18.153-12.172-27.705-16.361-30.97l-.474-2.556c-.091-.498-.987-4.984-4.167-9.21-3.256-4.307-7.646-6.064-8.136-6.25l-4.532-1.724-2.286 4.28c-.21.39-2.056 3.986-2.512 9.545-.528 6.34.44 10.117.552 10.528l.486 1.783c-3.154 2.956-6.226 6.913-8.59 12.175-1.518-5.979-4.051-11.354-7.952-14.903l.351-2.054c.826-4.86.24-11.105.168-11.801l-.033-.256c-.73-4.947-2.729-8.339-2.953-8.71l-2.713-4.454L82.4 10.71c-.497.267-3.157 1.785-6.588 5.46-3.381 3.625-5.217 8.565-5.44 9.191l-1.728 5.042c-3.512 3.046-14.588 13.724-18.625 30.43a38.084 38.084 0 0 0-.447 2.202c-.471-3.218-1.29-5.419-1.438-5.803l-2.602-6.645-5.77 4.193c-.402.295-4.069 3.038-8.34 9.066-3.265 4.612-13.797 21.692-5.87 52.309 3.43 13.25 11.546 21.94 20.735 23.944-9.2 7.054-17.369 17.525-6.778 39.048 4.902 9.964 12.9 14.809 24.446 14.809 5.332 0 10.795-.946 16.576-1.948 5.502-.955 11.189-1.94 16.522-1.993h.406c4.955 0 10.183.987 15.24 1.94 5.003.943 10.171 1.92 15.077 1.92 11.065 0 18.797-5.156 23.637-15.762 8.22-18.01 2.308-27.947-5.008-34.865 11.394-1.583 22.205-12.122 26.969-26.74 6.806-20.868-3.587-36.699-3.587-36.699" fill="#FFF"/><path d="M85.427 31.556c-3.991-1.948-7.944-2.335-10.516-2.447l.673-1.964s1.551-4.315 4.257-7.216c2.982-3.195 5.16-4.362 5.16-4.362s1.622 2.665 2.213 6.65c0 0 .605 6.06-.12 10.328l-1.667-.99M115.053 18.988s-1.506 2.82-1.883 7.406c-.461 5.553.377 8.621.377 8.621s3.292-2.154 5.022-2.86c2.462-1.005 5.325-1.857 5.325-1.857s-.662-3.586-3.147-6.89c-2.391-3.164-5.694-4.42-5.694-4.42M42.999 59.238s2.003 5.122 1.207 11.265c-.748 5.8-1.002 6.095-1.002 6.095s-2.444-.74-5.578-.456c-3.136.284-5.637 1.073-5.637 1.073s1.252-6.409 3.928-10.183c3.871-5.463 7.082-7.794 7.082-7.794" fill="#100F0D"/><path d="M94.833 80.84c2.915-9.81 2.683-33.457-6.563-41.47-5.88-5.102-15.148-5.521-15.148-5.521S59.71 44.244 55.39 62.129c-2.777 11.487.504 21.746 14.223 28.22 12.238 5.775 21.917 1.624 25.22-9.509M104.193 82.883c-2.892-9.82-3.438-16.06-1.02-24.681 5.564-19.8 21.92-22.951 21.92-22.951s13.189 8.018 15.6 28.224c2.24 18.867.096 26.03-11.826 29.792-9.958 3.148-22.24-2.106-24.674-10.384M97.434 95.204c.201 0 .403.007.604.016 20.767.862 17.47 21.288 28.973 37.723 9.092 12.986 31.546 16.285 19.405 42.88-4.495 9.854-11.023 12.539-18.625 12.539-9.114 0-19.763-3.859-30.317-3.859h-.406c-11.424.114-23.173 3.941-33.099 3.941-8.096 0-14.98-2.543-19.502-11.732-15.46-31.414 13.311-32.144 23.7-47.402 6.954-10.212 14.098-34.106 29.267-34.106" fill="#AB1C22"/><path d="M143 88.851c8.173-7.507 21.764-6.558 21.764-6.558s9.63 13.35 3.386 32.505c-6.17 18.926-25.661 33.852-41.648 13.197C113.61 111.34 136.203 95.088 143 88.85" fill="#AB1C22"/><path d="M163.836 76.73c-.191-.655-.571-1.97-.665-2.333-.378-1.473-1.332-4.73-2.932-7.237-3.621-5.685-6.304-7.688-6.304-7.688s-3.038 3.214-3.016 9.712c.023 5.784.915 9.17.932 9.235 5.086-1.61 9.996-1.723 11.985-1.688" fill="#100F0D"/><path d="M66.923 107.29C63.151 98.31 55.01 89.861 49.96 85.361c-8.344-7.437-20.69-.953-20.69-.953s-3.364 13.162 1.575 30.213c3.963 13.678 13.197 22.962 23.59 19.768 2.241-.689 20.491-.574 20.491-.574V107.29h-8.003" fill="#AB1C22"/><path d="M113.593 142.7v8.867h-8.876l8.876-8.867Zm0-37.388v13.176l-16.162-13.176h16.162Zm22.753-7.706-13.8-13.647h-5.665v-6.152l-13.795-13.656H69.961l-13.657 13.66v2.607l-3.522 3.524v16.289l19.584 15.932v9.85H56.304v7.794h-3.522v9.392l11.991 12.109h7.593v17.605h42.652l2.125-2.12h5.41l13.806-13.802-.013-59.385Z" fill="#100F0D"/><path d="M119.692 154.517H92.015v-4.058h9.634l12.121-12.11v-15.721l-21.755-17.737v-4.431h27.677v54.057Zm13.547-55.614-12.13-11.995H78.46v6.93l-6.031-4.917v-8.27h27.789v3.57h13.553v-5.12L101.65 67.1H70.868L58.876 79.097v16.284l19.583 15.936v22.886h13.556v-11.856l8.202 6.675v7.882H72.428v-7.941H58.876v9.386l11.992 12.11h7.591v17.606h42.65s10.919-10.894 12.13-12.12c-.014-1.061 0-57.042 0-57.042Z" fill="#FFF"/><path d="M167.399 149.343h.768c.806 0 1.575-.255 1.575-.952 0-.585-.402-1.025-1.464-1.025-.44 0-.697.037-.88.073v1.904Zm0 3.442h-1.135v-6.115c.622-.11 1.28-.183 2.123-.183 1.025 0 1.539.183 1.905.477.365.256.622.732.622 1.318 0 .732-.55 1.208-1.172 1.427v.074c.513.22.805.694.989 1.5.183.917.329 1.283.476 1.502h-1.172c-.183-.219-.33-.77-.513-1.574-.146-.696-.55-.988-1.392-.988h-.731v2.562Zm-3.625-3.221c0 2.709 2.014 4.832 4.723 4.832 2.6.037 4.577-2.123 4.577-4.797 0-2.672-1.977-4.833-4.65-4.833-2.636 0-4.65 2.16-4.65 4.798Zm10.582 0c0 3.33-2.563 5.894-5.896 5.894-3.332 0-5.97-2.564-5.97-5.894 0-3.26 2.638-5.823 6.007-5.823 3.296 0 5.859 2.563 5.859 5.823Z" fill="#100F0D"/></g></svg>