<svg width="200" height="200" xmlns="http://www.w3.org/2000/svg"><g fill-rule="nonzero" fill="none"><path d="M69.654 52.372c-.712 0 0 1.067-.712 1.067" fill="#231F20"/><path d="M68.942 53.621v-.363c.141 0 .175-.013.175-.352 0-.25 0-.715.537-.715v.363c-.14 0-.174.013-.174.352 0 .25 0 .715-.538.715" fill="#FFF"/><path fill="#FFF" d="M177.301 30.09V66.29H118.06V36.923H71.318V78.68L139.6 84.41l39.493 26.15.268 58.973-43.609 28.375-72.172-.037-43.322-29.61-.773-34.706h63.048v25.576h35.649v-39.458l-56.711-3.984-39.665-27.753V30.09L66.29 2h67.304L177.3 30.09"/><path d="m64.03 196.418 71.292.038 42.583-27.708-.261-57.403-38.535-25.517-69.245-5.813V35.47h49.65v29.368h56.333V30.884l-42.681-27.43H66.709L23.261 30.89v56.29l38.714 27.087 57.661 4.05v42.267H81.081V135.01H20.973l.723 32.475 42.335 28.934Zm72.154 2.946h-.432l-72.62-.039-.371-.253-43.938-30.03-.823-36.94h65.988v25.576h32.74v-36.65l-55.76-3.916-40.614-28.418V29.29L65.868.547h68.152l44.735 28.75v38.448h-62.149V38.377H72.771v38.965l67.322 5.65 40.45 26.786.277 60.542-44.636 29.044Z" fill="#214597"/><path fill="#8E0A26" d="M171.06 34.473V59.81h-46.966V40.895H73.568l-.712 43.501 62.475 5.964 37.508 23.688.117 51.513-40.115 26.673-66.388-.035L26.6 164.364 25.89 140.1h49.813v26.05h49.814v-47.46l-55.507-6.424-41.985-27.832v-49.96L68.942 8.066h61.911l40.208 26.407"/><path d="m66.91 190.745 65.492.035 39.099-25.996-.114-49.934-36.54-23.076-63.466-6.059.757-46.273h53.41v18.913h44.059V35.258L130.418 9.52H69.371L29.478 35.265v48.387l41.046 27.21 56.447 6.531v50.21H74.249v-26.05H27.387l.646 22.038 38.878 27.154Zm66.37 2.943h-.44l-66.845-.036-40.825-28.515-.777-26.492h52.764v26.05h46.906v-44.712l-54.565-6.314L26.57 85.213V33.681L68.514 6.612h62.774l41.226 27.077v27.574H122.64V42.349H74.998l-.666 40.728 61.482 5.869 38.477 24.3.12 53.093-41.131 27.349Z" fill="#214597"/><path d="M65.012 34.956c.8-1.068 1.97-1.828 3.681-2.509 4.699-1.868 7.557 1.32 7.715.195.825-5.906 8.038-8.01 10.327-7.559.79.153.319-2.025 3.148-2.562 1.808-.345 4.12.306 4.536 2.294 8.113-1.602 9.86 1.807 15.125 9.832.27.41.054.785.482.72 2.198-.33 5.445-.398 6.681 1.348.651.916 1.175.479 1.896.748 2.889 1.079 4.333 4.904 3.25 7.42-1.084 2.875-3.736 4.857-5.23 8.006-.49 1.026.596 1.584.957 2.664 0 1.796-.722 3.592-1.083 5.39-.362 2.515 1.25 4.735 2.166 7.186 1.445 3.865-1.683 5.822 0 6.47 13.545 5.21 12.822 4.041 18.962 6.918.722.36 1.173-.272 1.896.088 4.333 5.033 6.23 10.963 8.397 17.072 1.084 3.954.36 7.548 1.084 11.5-1.084 0-1.82.185-2.181 1.261 1.084.36 1.288.91 2.18.488 2.482-1.177 4.455 1.144 6.982 1.504 1.084 0 1.724-.487 2.446-.487-.712 4.072-4.803 5.267-3.736 7.966.296.746-2.942 1.85-4.981 1.329-1.296-.333-2.271-1.007-2.758-1.725-.55-.815-.804-1.717-1.912-1.906-3.14-.532-5.96-.31-7.161-5.885-.168-.786-1.329.5-1.69-.218-.722-1.795-1.23-4.255-2.312-5.692-3.25-2.877-6.434-4.171-8.54-8.362-.24-.48-2.669-.12-2.669 0 0 3.055-.395 3.821-.755 5.978-.723 2.874-1.807 5.75-3.252 7.907-.632.945-1.805 1.435-2.166 2.513 0 .72-.717 1.087.005 1.447 3.974 1.437 8.394 4.485 9.995 8.007.242.534 1.01.613 1.403.417 1.083-.72 2.602-1.217 3.61-.72 2.172 1.072 6.077 1.722 5.715 3.88-.361 1.078-4.228 1.003-4.59 2.082-.062.698.226 1.468.428 2.348.325 1.418.72 3.026 1.281 4.376.345.834 1.254 1.034 1.867 1.6 1.173 1.087 2.535 1.958 4.164 1.388 4.014-1.399 5.376 1.531 6.82 4.766.174.386 3.807 1.537 6.683 2.812 1.98.879 3.297 1.892 4.109 2.456 1.446 1.079 3.294 2.876 2.933 5.033-.361.718-.723 1.796-1.806 2.157 1.083 2.515 1.445 5.03 1.083 7.906-5.055.956-9.685.383-14.38.383-1.443 0-5.916-.137-5.347-1.457.36-.842 1.019-.936 1.88-2.226.93-1.395 2.051-3.851 2.615-3.79 1.83.202 4.709.772 4.11-.96-.962-2.775-3.737-5.818-7.296-5.247-2.826.451-8.286 1.725-14.306 3.162-1.06.254-5.8-2.085-10.496-2.684-2.265-.288-4.2-4.757-6.138-4.912-3.01-.237-6.261-1.677-9.871-.957-5.057.72-9.432.395-14.127 2.792-.455.232 1.174 2.99-.923 4.397-1.744 1.168-2.61 1.352-4.414.992-9.03-1.795-18.46-1.355-27.489-.276-1.49-.628-1.399-1.079-1.805-2.246-1.67.226-5.372-2.29-6.094-3.278-.858-.989-1.31-1.844-2.89-2.83.362-.358.902-.809.902-1.169 0-1.376-.09-2.155.734-3.053.03-.034-.006-.09-.01-.137-.135-1.058.075-2.663.572-3.876 3.612.719 7.05-.768 10.302 1.389 1.443 1.437 2.492 3.005 3.574 4.803.362.359.986.533 1.708.533 3.612-.72 6.379-1.248 9.981-.801.722.091 1.507.24 1.867-.48 1.084-4.671-.093-10.667 4.964-13.184-3.37-3.714-6.931-7.873-9.82-12.543-2.935 2.067-5.948 2.957-8.115 1.518-1.986-1.15-2.743-2.47-4.966-5.524-.211-.291-.27-.739-.586-.899-3.747-1.887-3.927-2.477-4.2-3.235-.676-1.885.813-.314-.36-6.737-.065-.353 1.273-.884 1.128-1.213-3.25-7.367-.716-7.858-.703-8.176.054-1.311-.044-2.6-.606-3.861-1.694-3.793-1.944-6.923.541-9.481 2.618-2.695 6.73-3.783 7.833-1.674.108.203.506.33.64.107 1.118-1.854 2.88-1.534 4.324-1.176 2.528 1.079 4.049 3.021 5.177 5.765.407.99 1.773.136 2.135.853.36.722.747 1.604.534 2.19 1.084.358 1.144-.55 1.28-1.494.051-.355-.225-.854-.587-.854-1.806-.36-2.943-1.687-3.549-3.178-1.895-4.67-2.392-6.693-4.016-10.467-.256-.59-.165-1.266-.137-1.526.271-2.427 1.716-6.02 2.574-5.66.207.086.154-1.094.18-1.305.406-3.28 2.764-9.454 5.002-9.78.154-.023-.108-.374-.267-.535-1.306-1.307-2.455-4.644-1.014-7.15-1.219-.721-4.636-1.003-6.191-4.7-.427-1.012.01-2.733.96-4" fill="#FFF"/><path d="M65.029 36.005a8.368 8.368 0 0 1 3.957-3.113c4.732-1.76 7.726 1.479 7.785.356.312-5.96 7.887-8.154 10.14-7.71.781.155.297-2.194 3.083-2.728 1.783-.341 3.945.356 4.301 2.491 7.619-2.016 9.932 1.986 15.121 9.932.264.404.053.776.475.713 2.164-.327 5.364-.395 6.582 1.335.64.909 1.158.473 1.868.74 2.846 1.069 4.21 4.566 3.142 7.057-1.067 2.847-4.15 4.803-5.217 8.006-.356 1.068.711 1.78 1.067 2.847 0 1.78-.71 3.559-1.067 5.336-.356 2.492 1.231 4.69 2.135 7.118 1.424 3.825-1.66 5.763 0 6.402 13.342 5.16 12.63 4.005 18.68 6.852.71.355 1.156-.269 1.868.086 4.27 4.982 6.137 10.854 8.272 16.903 1.067 3.915.356 7.472 1.067 11.386-1.067 0-2.135.355-2.49 1.423 1.067.355 1.423 1.779 2.49 1.424 2.491-1.07 3.203-.237 6.761 1.067 1.002.367 2.136-.149 2.847-.149-.508 2.282-2.165 4.092-3.618 5.191-.594.447.149 1.392.149 2.31.212.43-1.926 1.594-4.241 1.276-2.817-.386-4.127-3.937-4.714-3.944-4.626-.058-6.79-2.192-7.502-6.108-.356-.712-1.423 0-1.78-.712-.71-1.778-1.066-3.914-2.133-5.335-3.204-2.847-6.821-4.746-8.896-8.896-.238-.476-2.965 0-2.965.12 0 3.022-.238 4.505-.593 6.64-.71 2.848-1.778 5.693-3.202 7.826-.624.936-1.779 1.425-2.135 2.492 0 .712-.356 1.78.356 2.136 3.913 1.42 7.828 3.916 9.606 7.826.356 0 1.068.712 1.78.357 1.066-.71 2.49-1.068 3.558-.71 2.135 1.065 5.693 1.422 5.337 3.556-.356 1.067-5.103 1.089-4.748 2.157.641 1.92.961 3.468 1.352 5.512.347 1.812 1.367 2.516 2.704 3.188 1.175.587 2 2.221 3.42 1.597 3.837-1.684 5.35.522 6.878 3.677.546 1.122 1.924 1.553 2.992 2.09 2.397 1.202 5.177 1.335 7.684 3.482 1.35 1.16 3.2 2.493 2.845 4.628-.355.714-.71 1.778-1.78 2.134 1.07 2.489 1.425 4.983 1.07 7.828-4.982.949-9.608.59-14.234.59-1.423 0-4.71.007-4.151-1.3.356-.832 1.168-.741 2.017-2.018.916-1.38 1.58-3.381 2.134-3.32 1.804.202 4.745.828 4.389-.95-.356-3.203-4.842-7.072-8.303-6.166-2.728.71-7.413 1.957-13.343 3.38-1.044.25-6.464-2.313-11.09-2.907-2.23-.286-4.139-4.709-6.047-4.864-2.966-.235-6.167-1.658-9.726-.947-4.982.712-10.2.712-14.826 3.082-.447.231 1.424 2.495 0 4.034-1.407 1.526-2.964 1.424-4.744 1.067-8.896-1.778-17.79-1.424-26.687-.355-1.467-.623-1.377-1.069-1.778-2.223-1.646.22-5.293-2.269-6.004-3.248-.846-.978-1.29-1.824-2.846-2.8.355-.356.888-.802.888-1.159 0-1.36-.089-2.136.723-3.023.03-.033-.005-.088-.01-.134-.132-1.048-.267-1.778.222-2.98 3.558.711 6.672-.8 9.874 1.333 1.423 1.426 2.135 2.847 3.202 4.628.356.354 1.423.71 2.135.71 3.558-.71 6.726-1.286 10.274-.846.712.09 1.467.136 1.824-.576 1.067-4.628.237-10.911 5.218-13.402-3.321-3.678-7.397-8.526-10.244-13.15-2.891 2.046-5.56 3.288-7.695 1.868-1.957-1.142-2.703-2.45-4.892-5.47-.208-.29-.266-.732-.579-.892-3.691-1.865-3.868-2.451-4.135-3.2-.668-1.869.8-.312-.357-6.673-.063-.348 1.255-.875 1.112-1.201-3.202-7.294-.705-7.777-.691-8.095.053-1.298-.043-2.575-.598-3.826-1.669-3.751-1.915-6.85.534-9.385 2.58-2.668 6.34-3.02 7.427-.933.106.205.356.046.49-.178 1.1-1.835 2.712-1.557 4.136-1.202 2.49 1.07 3.826 2.89 4.936 5.608.4.976 1.78 0 2.135.709.355.713.711 1.824.355 2.536 1.068.356 2.135-1.023 2.269-1.956.05-.354-.134-1.29-.49-1.29-1.779-.356-3.14-1.283-3.736-2.758-1.867-4.626-2.356-6.627-3.958-10.363-.25-.585-.162-1.254-.132-1.513.266-2.401 1.69-5.958 2.534-5.604.204.086.153-1.082.178-1.29.4-3.245 2.777-9.594 4.982-9.919.15-.02-.06-.14-.179-.266-1.245-1.334-2.934-5.204-1.156-7.695-1.2-.712-4.848-1.645-5.915-4.136-.356-1.066-.623-2.135.267-3.424" fill="#231F20"/><path d="M86.982 25.917s-.399.598 1.894.797c0 0-4.685 4.086-4.585 6.579 0 0-.3 1.994-.1 3.686l-6.578-2.689s-2.493-6.48 9.37-8.373" fill="#214598"/><path d="M103.828 37.678s-2.891-1.893-6.878.798c0 0-4.188.996-11.364-.898 0 0-2.691-6.08 4.685-10.466l3.788-.398s2.79.497 5.582 4.186c0 0 1.196-1.297-4.485-4.884 0 0 2.691-1.298 6.18.2 0 0 1.793.797 3.489 3.887 0 0 1.396 1.494 2.391 2.591 0 0 2.991 2.792 2.193 3.389l-1.993 1.395-2.093 1.793s-.65-1.106-1.495-1.593" fill="#214598"/><path d="m81.482 34.256-.171-.061c1.572-4.37 2.462-4.664 2.559-4.683l.039.177c-.009.003-.89.295-2.427 4.567M78.455 33.017l-.166-.073c.051-.117 1.277-2.884 3.06-3.955l.094.155c-1.734 1.041-2.975 3.845-2.988 3.873M79.872 33.384l-.155-.095c.059-.095 1.441-2.333 2.158-2.872l.11.145c-.69.519-2.099 2.799-2.113 2.822M90.56 36.55l-.181-.021c.003-.032.343-3.188-.52-4.567l.153-.097c.897 1.433.562 4.552.548 4.684M91.97 36.23l-.155-.094c.003-.006.348-.581.41-1.662.058-1-.122-2.65-1.302-4.83l.16-.086c2.311 4.267.946 6.577.887 6.673M95.36 36.365c-.001-.039-.2-3.928-2.122-7.073l.155-.095c1.947 3.186 2.147 7.12 2.149 7.16l-.181.008M98.924 35.683l-1.067-2.67.168-.066 1.068 2.668-.169.068M104.264 37.292l-1.778-3.559.162-.081 1.779 3.559-.163.08M104.79 36.552c-.524-3.665-4.207-7.384-4.244-7.421l.128-.129c.038.038 3.763 3.8 4.296 7.524l-.18.026M106.213 35.667c-.172-.864-2.631-4.91-2.657-4.951l.156-.095c.102.168 2.5 4.116 2.68 5.01l-.179.036" fill="#231F20"/><path d="M51.584 93.18s-.385-4.052-.643-4.438c0 0-2.573-4.63-.708-7.268 0 0 1.351-2.121 3.923-3.216 0 0 2.38-1.093 4.501 1.801 0 0 .709-1.929 1.994-2.121 0 0 2.252-1.03 4.953 2.83 0 0 3.538 3.537-1.094 4.243 0 0-.321.064-1.48-2.444 0 0-2.058-2.187-4.243-1.736 0 0-.836.643 1.48 1.221 0 0 2.379.453 3.086 3.54 0 0 .578 1.668-1.994 2.441 0 0-.836.13-1.092-1.027 0 0-1.287-3.152-3.153-4.181 0 0-1.35-.128.129 1.35 0 0 1.801 1.93 2.123 3.279 0 0 .385 3.218-4.052 2.637 0 0-.321-.064-.385-1.413 0 0-.516-5.597-3.794-2.895 0 0-.259.707.577.514 0 0 1.479-1.155 2.122 1.222 0 0-.192 3.537 1.544 3.665 0 0 3.538.58 4.952-2.442 0 0 3.345.77 4.116-3.024 0 0 2.509.45 3.474-1.8l1.478.323s.515.128.257 1.477c0 0-.385 5.018-6.43 3.922 0 0-.387-.19-.258 1.224 0 0-.58 2.058-2.508.963 0 0-.643-.45-1.608 1.482 0 0-.514 2.248-3.345 1.478l-3.922-1.608M139.308 112.795s3.344-.451 5.595-1.478c0 0 1.351 1.413 2.38 2.056 0 0 .772.514 1.03 1.672 0 0 1.35 1.221.835-.965l-.129-.643s1.221-.834 3.215.322c0 0 1.801 1.03 3.988 1.286 0 0-2.252 5.468-7.074 2.507 0 0-1.48-.643-.708.773 0 0 1.028 1.158 4.373.837 0 0 1.48 1.992-.9 2.572 0 0-3.087.643-6.109-4.244 0 0-1.543 1.223-3.924-.581 0 0-3.023-1.348-2.572-4.114M88.532 43.393s.73.683.292 1.023c0 0-.438.586-1.317-.047l.781-1.854s.536-.487 1.023.098c0 0-.194.196-.731.342l-.048.438M82.684 40.664l.926.39s-.05.633-.44.828c0 0-.827.05-.973-.243 0 0 .195-.829.487-.975M81.416 41.492s-.828-.341-1.413-.877c0 0 .098-.39 1.852-.048 0 0 .195.536-.439.925M75.179 52.068s-.293-2.193 1.852-3.9c0 0 .098-.973-.537-.097l-2.338.39s-.147-.39-1.121 1.56c0 0 .34 2.388 2.144 2.047M68.795 56.99s1.656-5.167 3.948-5.118c0 0 .536.584 1.266 1.024 0 0 1.072.293-.438.974 0 0-3.071 1.803-4.436 3.12 0 0-.243.34-.34 0M80.247 54.357s-1.024-.682-2.193-.096c0 0-.243.048-.146.877 0 0-.097.194-.586.732 0 0-.146.436.635.388 0 0 .584.78.926.048 0 0 .243-.436-.097-.78 0 0-.586-.681 1.023-.925 0 0 .438.097.438-.244" fill="#FFF"/><path d="M76.993 54.508c-.4-.668 1.513-1.514 1.513-1.514-.446-.045-2.047.311-2.047.311-1.111.269-2.402 1.337-2.402 1.337-4.891 2.666-5.604 4.714-5.604 4.714-2.045 3.247-.09 6.004-.09 6.004.803.445 1.203-.223 1.203-.223l.177-.311c.622-.355.444-.8.444-.8-.71-.8-.177-2.446-.177-2.446.934-3.738 3.158-4.225 3.158-4.225l.045.845c-.98 2.045-.133 2.445-.133 2.445 1.734-1.424 2.712.044 2.712.044 1.378-1.512 2.935.178 2.935.178 1.735-1.601 3.203.444 3.203.444 1.423-1.11 2.89.891 2.89.891l1.469-1.112c1.423-1.158 1.912-1.113 1.912-1.113l-.089.579c-.623.755-.89 1.467-.89 1.467l.09 1.736c1.023.8 4.537.978 4.537.978 1.378.132.622-.534.622-.534-1.112-1.112-1.956-1.468-1.956-1.468-.713-1.11.622-.755.622-.755 4.09 1.69 3.958 6.76 3.958 6.76.579 1.956 1.424 2.356 1.424 2.356l3.557 1.293c1.335.843-.4.932-.4.932-2.98-.224-4.937-2.401-4.937-2.401-2.67 1.067-3.336.711-3.336.711-2.979-.18-5.114-5.515-5.114-5.515-1.69-2.402-3.56-2.625-3.56-2.625-6.091-.888-8.627.49-8.627.49-3.647.578-3.825 1.601-3.825 1.601-.978 1.69-.09 2.58-.09 2.58.49 1.335-.267 1.066-.267 1.066l-.354-.311c-.757.4-.49.758-.49.758.4 1.11-.578 2.845-.578 2.845-1.468 4.048-.045 5.96-.045 5.96 1.38 2.223 3.426 2.492 3.426 2.492.621.178.31-.492.31-.492-.8.047-.533-1.377-.533-1.377-1.246-.31-.667-2.49-.667-2.49.178-1.112 1.112-2.625 1.112-2.625.312-.802-.09-.446-.09-.446l-1.245 2.404-.668-.712c.267-1.824.58-2.404.58-2.404.755-1.822.933-1.557.933-1.557.49-.088.49-.22.49-.22a6.283 6.283 0 0 0-.845-1.78c-1.112-1.556.267-.978.267-.978 1.557 1.69 1.778 3.87 1.778 3.87.49 3.78.711 4.136.711 4.136.312 1.245.579.888.579.888.757-.62.757.135.757.135.043 1.244 1.022 2.224 1.022 2.224.623.534.934.22.934.22l-.356-1.064c-.444-1.425.356-.757.356-.757l.98 2.046c.531.4.443-.4.443-.4-.4-.357-.444-1.335-.444-1.335.578-.712.622.355.622.355l.623 1.112c.623 1.07.978.043.978.043-.4-1.11.223-.888.223-.888l.445.755c1.111.935.845-.622.845-.622l-1.157-2.445c-.533-1.47.534-.58.534-.58.49.668 1.646 3.337 1.646 3.337.889 1.202 2.313 1.647 2.313 1.647 1.334.667 5.426-.357 5.426-.357a14.686 14.686 0 0 1 3.557-1.557c1.202-.223 1.868-.845 1.868-.845 1.601-.847.045-1.688.045-1.688-.267-1.024-1.823-1.47-1.823-1.47-1.913-1.199.489-.754.489-.754.979.665.845.22.845.22.178-1.067.908.207.908.207.925 1.024.633-.146.633-.146.146-2.142.878.781.878.781.146.437.925 1.364.925 1.364.926.974.293-.538.293-.538-.096-2.388 1.17 1.171 1.17 1.171 1.9 2.192.78-.097.78-.097-.829-1.852.244-.83.244-.83.729 1.659 1.363 1.268 1.363 1.268 1.17-.925 1.804-1.218 1.804-1.218 1.608-.44 1.022-.683 1.022-.683-2.485-1.753-2.874-3.996-2.874-3.996-.243-1.024-1.17-2.584-1.17-2.584-1.803-2.289-.438-1.705-.438-1.705.682.439 1.997 2.681 1.997 2.681.49 1.316.586.487.586.487.731-1.948.779-.585.779-.585v3.02c.635 1.221.682-1.363.682-1.363.78-1.461.975-.73.975-.73l-.292 2.289s.682.441.243.733c-.437.292-.292.535-.292.535.584.632.634-1.024.634-1.024 0-1.803.292-2.046.292-2.046.83-1.17.633.585.633.585-.634 2 .098.877.098.877.146-1.267.341-1.17.341-1.17.682-.342.243 2.243.243 2.243-.047 1.46.585.388.585.388V73.17c.536-1.219.78.292.78.292.244-.876.682-.683.682-.683.39.293-.097 1.414-.097 1.414.439.634.828-.342.828-.342.684-1.9.634-.243.634-.243-.098.828.536.44.536.44.585.243.585-.733.585-.733.633-1.071.633.147.633.147-.341.926.926.488.926.488.536.194.683-1.073.683-1.073 1.364-3.07.681.293.681.293-.438 2.242.88-.145.88-.145.242-2.195 1.313-3.608 1.313-3.608.147-.488-1.46-4.141-1.46-4.141-1.122-2.244-.683-4.727-.683-4.727.926-1.804.876-3.558.876-3.558-.291-1.901-1.364-3.413-1.364-3.413-.73-1.217-.876-.975-.876-.975-.487-.146-.342.927-.342.927-.829 1.853-.73-.684-.73-.684.193-.877-.099-.825-.099-.825-.68-.538-.633.34-.633.34-.244 2.387-.73-.392-.73-.392-.391-2.484-.634-.048-.634-.048-.147.977-.488.536-.488.536l-.146-1.51c-.049-.78-.486-.828-.486-.828l-.293-.293c-.342-.147.146-2.437.146-2.437.438-1.363-.634-1.363-.634-1.363l-.925-.245c-.78-.925-.976-.634-.976-.634l-.876.343c-1.024.388-.635-.587-.635-.587.732-.68.342-.974.342-.974-1.12-1.12 1.413-.778 1.413-.778l2.582-2.779c2.973-2.533 3.509.148 3.509.148-.536 2.338-.145 2.386-.145 2.386.536.147.39 1.023.39 1.023l-2.68 3.851c-.83 1.512-.147 1.705-.147 1.705l3.898 2.291c.341.585 1.073.097 1.073.097.877-1.997 3.995-6.14 3.995-6.14 2.096-4.193-.779-6.286-.779-6.286-2.291-1.804-2.095-.05-2.095-.05.486 1.804.439 2.827.439 2.827-.196 2.485-.878.829-.878.829l-.196-2.827c0-3.85-3.75-3.947-3.75-3.947-4.047-.195-6.532 3.313-6.532 3.313-.487 1.317-1.316 1.414-1.316 1.414-.925.195-1.51.974-1.51.974-.39 1.365-1.073.878-1.073.878-.098-.78-.681-.487-.681-.487-1.267.487-.732-.536-.732-.536 3.655-2.243 1.658-3.559 1.658-3.559-3.607-.974-7.7 3.023-7.7 3.023-.829 1.072-1.218.925-1.218.925-.829-.244-.586 1.023-.586 1.023.341-.437 2.145-.389 2.145-.389 1.803-.292-.488.973-.488.973-.536.391-1.023.391-1.023.391-1.266.34-.194.487-.194.487 3.507-1.071 5.798.683 5.798.683 1.17.634.049.975.049.975-1.511-.975-2.73-1.171-2.73-1.171-5.067.244-7.357 2.096-7.357 2.096-3.51 1.998-5.02 1.707-5.02 1.707-.292.34-.878.243-.878.243-1.315-.389.537-1.023.537-1.023 3.216-.39 4.19-1.316 4.19-1.316 3.168-1.95 4.143-1.901 4.143-1.901l-.633-1.315c-.196-.683-.634-.391-.634-.391l-1.56.585c-.243 1.9-1.024 1.754-1.024 1.754-2.922-.048-4.093-.291-4.093-.291l-4.19-1.366c-2.194-1.022-.487-1.168-.487-1.168l1.802.584c4.679 1.852 5.36.976 5.36.976l.684-1.414c.438-.976-.537-.732-.537-.732l-.536 1.414c-.39 1.071-.585.243-.585.243l.341-.925c.488-.976-.097-1.073-.097-1.073l-1.414-.488c-1.023-.44-.681.197-.681.197-.439.291-.1.534-.1.534 1.61.146.83.732.83.732-1.17.732-2.778-.048-2.778-.048-3.898-2.29-4.531-2.34-4.531-2.34-3.314.05-3.314 1.17-3.314 1.17 2.68.097 5.166 3.02 5.166 3.02 1.412 1.511 2.24 1.463 2.24 1.463 1.852.341.538.973.538.973-1.756-.047-3.413-1.606-3.413-1.606-4.24-4.534-5.848-2.974-5.848-2.974-3.8 3.41-1.85 5.947-1.85 5.947.875-.196 1.168.68 1.168.68l.611-.595s.49-.266-.801-1.689c0 0-.757-1.245.533-.89l1.646 1.334s1.112.488.8-.71c0 0-.177-1.024.846-.268 0 0 .4.223 1.601.489 0 0 4.136.932 4.67 3.603 0 0 .311.444-.622 2.357 0 0-.09.845 1.289.488 0 0 2.491-1.422 5.96.58 0 0 2.936 2.18 10.186 1.644 0 0 2.223-.8 1.023.491 0 0-.757.398-1.69.443 0 0-.09.356 2.446 1.823 0 0 1.511.757 2.135 1.915 0 0 .71 1.379-.891-.046 0 0-1.29-.979-2.09-1.38-.8-.399-2.58-1.6-2.891-2.223 0 0 .445-.22-2.713-.266 0 0-.488-.222.31.8 0 0 .891 2.135 5.384 4.893 0 0 1.512.446.177.711 0 0-2.668-.088-6.849-5.737 0 0 .133-1.066-.446-.889 0 0-2.266-.846-1.422.354 0 0 1.333 2.27 1.2 3.16 0 0 1.38.045 1.246.8-.133.756.623.222.623.222s.311-.932 1.023.31c0 0 .934.445.978 1.914 0 0 .578.98-.267 1.112 0 0-.31.045-.533-1.423l-.223-.623-.533-.579s-.224 0-.445.534c0 0-.623.979-.979-.313 0 0-.356-1.687-.89-.799 0 0-.89 1.112-.933-.888 0 0 .311-1.867-2.047-3.958 0 0-.133-.98-1.067-1.07 0 0-.712-.265-1.778-.887 0 0-.224-.58-3.158-.133 0 0-.89.354.533.576 0 0 1.467.313.978 2.002 0 0-.533.533-.133 1.202 0 0-.134 1.155-1.823.844 0 0-.222.222-1.378-.622 0 0-.801-.267-1.646.844 0 0-.712.356-.89-.267 0 0-.845-1.246-2.269-1.468 0 0-1.201-.711-.177-1.868" fill="#FFF"/><path d="M71.04 63.834s-1.562-1.562.925-4.453c0 0-.349 2.312.751 4.047l-1.677.406M73.41 63.198s-.579-1.794.983-2.43c0 0 .869-.231 1.1 1.852 0 0-.983.405-2.083.578M76.245 62.445s-.578-1.502.925-1.734c0 0 .81 0 .984 1.561 0 0-1.62.348-1.91.173M79.254 62.445s-.638-1.386.866-1.328c0 0 1.1.055 1.042 1.212l-1.908.116M82.319 62.503s-.29-.75.578-.81c0 0 1.563.752.636 1.216l-1.214-.406M85.153 63.487s.522-1.387 1.446-1.851c0 0-.52 1.966 0 3.297 0 0-1.04-.868-1.446-1.446M64.85 68.981s-.06-3.527 1.85-5.494l.232 1.33s-.751-.463-1.099 1.562c0 0-.116.579-.579 2.544 0 0-.29.581-.404.058" fill="#FFF"/><path d="M66.99 65.742s-.694-.288.115-.519c0 0 .232.231-.116.52M66.064 67.42s.694-2.43.58-.405c0 0-.58 2.025-.753 3.53 0 0-.521 1.097-.29-.75l.463-2.375M68.32 66.958s-.578.231-.635-.694c0 0 .057-.461.925.289 0 0 .404.117.289.752 0 0 .462.52-.232.809 0 0-.982 1.446-1.446 3.182 0 0-.579.52.116-1.446 0 0 .405-1.794.925-2.371 0 0 .29-.174.058-.521M66.874 74.189s-.925-1.042.058-1.852c0 0-.406 1.045-.174 1.1.231.055.289.461.289.461l-.173.29M72.254 76.79s-.868 2.72.462.118c0 0 .405-1.1-.173-.985 0 0-.23.23-.289.868M72.427 78.759s.983-2.605.578-.578c0 0-.347.866-.578.578M72.89 79.51l.81-1.271s.867-.058.173 1.272c0 0-.578 1.445-.868.81 0 0-.346 0-.115-.81M73.873 81.245s.52-2.371 1.1-1.675l1.446 1.272-.117.635s.058.405-.462.81c0 0-1.33-.58-1.967-1.042M117.154 73.588s.046-1.69.58-2.09c0 0 .31-.402.088.577 0 0-.267 1.692-.668 1.513M55.334 150.843s.088-.624-1.602 0c0 0-2.935-.088-5.782-2.758 0 0-.979-1.333-2.757-2.845 0 0 3.825-3.114 8.717-.98 0 0 1.424-.533-.089-1.067 0 0-3.915-1.778-8.005.624 0 0-.535-.18-.268-1.514 0 0-.088-.978 1.067-.62 0 0 1.78 0 4.715-.713 0 0 1.068-.088 2.669.887 0 0 1.067-.532-.267-1.064 0 0 .267-1.159-5.605-.269 0 0-1.244.18-1.956-.178 0 0-.267-.177 0-.978 0 0-.534-.712.978-.444 0 0 .533.622 3.826.088 0 0 3.38-1.245 5.692 2.759 0 0 1.69 2.579 3.558 3.734 0 0 6.05-2.045 12.098-.977 0 0 2.313.268 2.046-3.023 0 0-.713-7.118 3.736-10.409 0 0 1.868-.89.534.264 0 0-2.224 1.426-3.203 4.095 0 0-.03.712.623-.296 0 0 1.245-2.492 3.44-3.62 0 0 1.363-.353.652.535 0 0-.77 0-1.186.24 0 0-.593.116-1.72 1.776 0 0-.83.89-1.483 3.321 0 0-.414 2.135.594-.177 0 0 .711-2.255 2.312-3.62 0 0 1.186-.65.356.358 0 0-1.186.83-1.483 1.72 0 0 0 .473-.296.947 0 0-.593 1.72.712 0 0 0 .83-.178 1.067-.829 0 0 .949-.712.475.296 0 0-.772 2.076.474.595 0 0 .474-.12.474-1.01 0 0-.236-.356 1.364-1.244 0 0 1.72-1.188 0 .65 0 0-.77 1.425-1.305 2.196 0 0-.237 1.423.593.058 0 0 .654-.77.356 0 0 0-.532 1.305.712-.117 0 0 .474-.773.415-.118 0 0 .059.473.296.177 0 0 .416-.237.178.474 0 0-.415 1.365.534-.118l1.72-1.898s1.245-1.484.355.296c0 0-.533.357-.71.95 0 0-1.72 2.846.296.473 0 0 .89-.71.355.238 0 0-.119 1.481.89-.652 0 0 1.304-1.424.474.237 0 0-.948 2.253.415.712 0 0 .415-.89.95-.594 0 0 .177.297-.178.889 0 0 .118.89.71-.118 0 0-.118-.948 1.127.238 0 0 3.084 2.432 5.693 3.142 0 0 .415.295.653.474 0 0 1.186.416 2.907.237 0 0 .414-.237 3.26 1.898 0 0 1.424.949-.77.653 0 0-7.592.77-15.063 2.965 0 0-2.55.712-.652 1.898 0 0 1.068 1.304-1.187 3.499 0 0-1.838 1.008-5.691-.178 0 0-5.931-1.78-12.93-.89 0 0-7.412.474-10.97.89 0 0-.535.119-1.245-.771 0 0-.771-.712.949-.888 0 0 .355-.239.386-.506M132.871 128.814s-1.068 1.184-1.958-.238c0 0-1.66-1.72-3.38-2.787 0 0 1.185-.18 1.897-.476 0 0 1.187-.651 2.313-.117 0 0 .178.533 2.61 1.068 0 0 .949-.178 2.313 1.42 0 0-2.077.239-3.795 1.13M125.385 128.465l.59-2.153s.236-1.513 1.42.29c0 0 5.97 3.961 5.676 8.211 0 0 .53 2.911 1.654 3.668 0 0 1.005 0 3.43 2.213 0 0 .53.467 1.655-.116 0 0 1.891-.7 2.719-.524 0 0 3.251 1.456 3.546 4.192 0 0 .238 1.048 9.637 5.183 0 0 1.773.58 3.074 2.734 0 0 1.537 2.154-.532 3.436 0 0-.769 1.224 0 2.504 0 0 .887 1.98.77 3.2v1.866s-.296.876-3.076.7c0 0-1.24-.41-6.088.114 0 0 .058-2.908 2.304-5.125 0 0 1.42-.23.888-.755 0 0 .059-.525-.888-.115 0 0-2.245 1.455-2.895 5.47 0 0-1.715 1.457-4.139.525 0 0-.827 0 .355-1.69l1.773-2.268s0-.99-.592-.465c0 0-2.068 2.212-2.305 3.376 0 0-1.354 2.168-2.656.539 0 0-.97-.209 1.513-1.78 0 0 .715-1.832 1.957-3.114 0 0 .133-.654 2.379.103 0 0 .444.584 2.158-.814 0 0 .975-2.037-1.153-3.84 0 0-2.364-2.563-4.316-3.206 0 0-.413-.173.296-1.22 0 0 .414-1.166-.532-.06l-.414.584s-.828.811-.886-.293l.354-1.222s-.06-1.164-.71.176c0 0-.413 1.63-2.541 2.155 0 0-6.68.405-9.578 2.094 0 0-2.424 1.222-5.852-.582 0 0-3.193-1.048-6.563-1.34 0 0-1.892-.172-4.316-3.027 0 0-1.123-1.224-1.596-1.806 0 0-.353-1.34-4.197-3.784 0 0-1.123.174.295 1.05 0 0 1.36.814 1.774 1.222 0 0 1.834 1.34-.355 1.105 0 0-2.659-.233-4.73-1.513 0 0-2.067-1.284-2.6-1.807 0 0-1.241-.582 2.305-.816 0 0 2.661-.288 6.976-1.394 0 0 5.321-1.225 9.163-5.182 0 0 2.838-2.738 4.85-6.699" fill="#FFF"/><path d="M77.126 150.43a.093.093 0 0 1-.067-.03c-2.077-2.31-12.152-.699-12.254-.681a.092.092 0 0 1-.104-.076.09.09 0 0 1 .075-.104c.026-.004 2.588-.418 5.378-.536 3.767-.16 6.136.27 7.04 1.276a.09.09 0 0 1-.007.128.09.09 0 0 1-.06.023M153.893 151.734h-.008c-3.908-.353-8.115-5.497-8.158-5.55a.09.09 0 0 1 .014-.127.09.09 0 0 1 .127.014c.042.05 4.202 5.135 8.033 5.482a.09.09 0 0 1 .083.099.091.091 0 0 1-.09.082M75.537 56.333s-.928.404-.928.97c0 0-1.33.079-.08-1.09 0 0 1.048-.766 1.008.12M74.69 71.533s.202-3.63-1.975-4.919c0 0-.444.082-.887.283 0 0-1.088-.283-.202-.807 0 0 1.653-.444 4.192-1.854 0 0 1.25-.846 3.67.163 0 0 .523.281 1.732.32 0 0 .808.203-.24.767 0 0-1.09-.041-1.815-.363 0 0-.524-.039-.16.483 0 0 .321 1.13 0 1.09 0 0-.283.364-.767-.846 0 0-.363-1.17-.725-.888 0 0-.364-.08.04.726 0 0 .846 1.33.242 1.57 0 0-.445.244-1.049-1.45 0 0-.685-1.532-.968-.08 0 0-.04.442.726 1.774 0 0 .363.766-.403.645 0 0-.242.121-.766-1.493 0 0-.564-1.289-.726-.484 0 0 .08.484.646 1.574 0 0 .886 1.29.202 1.451 0 0-.405-.242-.163.887l.163 1.491s-.163.887-.768-.04M89.466 78.032s-2.306-.49-3.202-2.237c0 0-.156-3.112-.85-2.664 0 0-.83-.517-.157 2.799 0 0 .47 1.365 1.814 1.994 0 0 .493.537 2.596.94 0 0 .895.135.94-.38 0 0 .292-.764-1.141-.452M93.717 48.502l-1.469 1.202s-.578.533-1.201.132c0 0-.667-.132 1.201-1.155 0 0 .177-.134.49-.445 0 0 1.379-1.468 2.535-1.511 0 0 .845.133.133.667 0 0-.578.133-1.69 1.11M103.5 54.463s-.488-.623-1.911-.444c0 0-.934-.445.266-.802 0 0 1.113-.133 2.046.802 0 0 .179.578-.4.444M101.321 57.934s-.844-.98-.533-1.336c0 0 .311-.533 1.067.667 0 0 .49.669.134.935 0 0-.4.177-.668-.266M105.413 53.753s1.602-3.693-.31-4.538c0 0-.446-.979.444-.668 0 0 .844.401 1.068 1.068 0 0 .933 1.469-.356 4.003 0 0-.4.89-.846.135M106.747 60.29s-.444-.8.623-1.024c0 0 .58.177 0 1.067 0 0-.445.223-.623-.043M109.016 59.31l-1.112-.756s-.49-.888.578-.488l1.068.4s.934.666.223 2.134c0 0-.268 1.38-.757 1.291 0 0-.934.089-.134-1.335 0 0 .267-.534.134-1.245M113.153 61.488s-.623-.843.577-2.934c0 0 1.068-.755.668.356 0 0-.579.891-.445 2.046 0 0 .267.935.578-.4 0 0 1.156-1.734.712.133l-.134 1.914s.044.754.623 1.555c0 0-.089.889-1.067-.044l-.445-.933s-.623-.578-1.067-1.693M110.928 65.894s-.845-.133-.31-1.69c0 0 .621-.668.71.222 0 0 .224.178.4 0 0 0 .49.045.178.843 0 0 .134.268.356.357 0 0 .49.045.179.623 0 0 0 .622.4.222 0 0 .577.046.09.8 0 0-.223 1.068.267.937 0 0 .576-.18.399.398 0 0-.312.49-.09.844 0 0 0 .847-.799-.088 0 0-1.068.045-.757-1.2 0 0 .133-.355-.311-.756l-.8-.535s-.223-.354.177-.622c.4-.266 0-.177-.089-.355M117.215 45.7s-1.128-.326-1.483-1.215c0 0-.267-.74.503-.176 0 0 .387.503.89.857l.475.12s.474.415-.385.415M115.79 46.799s-1.096-1.158-.236-1.098c0 0 .15.03.325.385 0 0 .268.386.772.476 0 0 .652.385-.178.562 0 0-.563-.09-.682-.325M115.109 48.191s-.8-.771.297-.473c0 0 .563.117.237.533 0 0-.237.06-.534-.06" fill="#231F20"/><path d="M91.951 52.845s-.415-.829-.473-1.362c0 0-1.365-.89-2.61-.651 0 0-1.38-.817 1.201-.861 0 0 1.823.74 2.534.681 0 0 1.425-.236 2.61-1.482 0 0 3.263-2.49 4.568-2.016 0 0 .829 0 1.778.95 0 0 .237.948-.771.473 0 0-.652-1.127-2.847-.12 0 0-.06.12.535.3 0 0 1.897.947 1.363 3.26 0 0 1.127-1.365 1.899-1.542 0 0 1.304-.06.415.83 0 0-.89.119-2.077 1.779 0 0 1.068 1.6-.592.771 0 0-.594-.534-1.72-.355 0 0-1.357-.12-3.321-.12-.356 0-3.44.831-3.44.831s-.889.237-.297-.83c0 0 .594-.12.949-.297 0 0 .296-.119.296-.239" fill="#231F20"/><path d="m94.185 52.452-.438-1.072-1.317.146s-.39-.097.099.683l.34.536s.342.245 1.316-.293" fill="#FFF"/><path d="M51.686 104.618s-.83-2.67.771-3.027l2.906-.829 3.144.061s2.252-2.016 3.082-1.603c0 0 2.668-1.482 2.906 0 0 0 1.126.298.475 2.075 0 0 .236 8.246 1.838 11.745l.474 3.084s-1.541 1.718-4.506 2.312c0 0-2.67.118-4.39-2.55 0 0-1.066-1.545-1.72-2.017 0 0-.77-1.008-1.244-2.432 0 0-1.009-1.127-2.135-1.186 0 0-1.897-.71-1.78-2.312 0 0-.415-.475.535-1.839 0 0 .06-.651-.356-1.482M50.975 97.203s-1.008-2.43-.06-3.022c0 0 .475-.296.533 1.008 0 0 .297 2.312 1.246 5.22 0 0-.118.83-.711.147 0 0-.623-2.788-1.008-3.353M52.19 96.228s-.564-2.967.978-1.543c0 0 .682.265.505.77l-.208.473s-.148 2.02.415 3.975c0 0-.326.77-.712.207 0 0-.563-1.689-.504-2.55l-.474-1.332M54.473 97.381s-.118-2.072.415-1.896c0 0 .592-.149.592.683l-.028.74s.384.06.177 1.006c0 0 .327.18.267.893 0 0 .86.857-.089 1.213 0 0-.92.21-1.125-.533 0 0 .176-1.007-.446-1.066 0 0-.356-.326.148-.74 0 0 .09-.18.09-.3" fill="#8E0A26"/><path d="M56.281 97.117s-.385-1.158.475-1.246c0 0 .563-.329.682 1.81l.236 2.073s-.295.623-.622-.03l-.77-2.607M57.942 95.928s.979-1.392.89.149l.06.655s.444-.15.236 1.216c0 0 .593 1.333-.06 1.629l-.651.087-.267-1.006s-.267-.178 0-1.394c0 0-.267-.325-.208-1.336M59.574 96.018v-2.045s.948-2.224 1.185-.328l.119 2.077s.326.029.207 1.453c0 0 .089.83.445 1.275 0 0-.385.741-1.423.268 0 0-.504.089-.533-2.7M61.472 93.349l1.332-.68s.595-.445.416 1.125c0 0-.297 2.344.179 3.085 0 0 .592.206-.683 1.035 0 0-.682.804-.86-.621 0 0-.297-1.75-.297-3.112 0 0 .089-.448-.087-.832M77.788 83.437s.043-1.352.55-1.352h.254s.127.253-.127 1.311l-.253 1.48s-.297.253-.593 0l.169-1.439M79.354 82.593l.38-.593s.888-.254.762.38c-.043.213-.297 3.807-.297 3.807s.085.635-.93 0c0 0-.634-.125-.38-.889l.465-2.705M81.383 83.606s-.168-1.141.804-1.226c0 0 .762-.21.592 1.057l-.084 3.003s.38.548-.762.548l-.803-.166s-.254-.085-.085-.847l.338-2.37M83.583 83.057s.634-1.226 1.142-.083l.126 3.256s.466.634-.465.718c0 0-.931.34-.803-.761 0 0-.17-.973-.297-1.269 0 0 .085-.55.338-.677l-.041-1.184M85.655 83.987l-.042-1.142s-.17-.55.676-.507c0 0 1.346-.267 1.1.719-.042.17.17 1.27.17 1.27s.21 1.055.21 1.648c0 0 .127.34-1.395.802 0 0-1.269.424-.719-2.79M88.446 85.382l-.042-2.285s-.254-.676.93-.676c0 0 .762-.126.592 1.016l.212.762s.254 1.14-.085 1.648l-1.14.468s-.593-.298-.467-.933M90.899 82.295l1.523-.38s.254.085.254 1.059c0 0 .877 1.361.168 2.07-.126.127-1.226.762-1.226.762s-.592.254-.592-.847c0 0 .043-.336-.253-1.185 0 0-.38-1.436.126-1.48M93.606 81.49l1.1-.675s.17-.254.507.72l.423 1.818s.255.213-.634.761c0 0-.72.717-1.227-.38 0 0-.677-1.141-.169-2.244M95.974 80.138l.93-.76s.594-.379.551.549c0 0 .381.678.212 1.14 0 0 .338.933.126 1.186l-.888.762s-.381.211-.55-.51l-.423-1.818s-.168-.338.042-.55M98.259 80.01l-.297-1.352s.127-.973 1.016.211c0 0-.042.549.169 1.101 0 0 .337 1.015-.255 1.27 0 0-.507.463-.55-.255l-.083-.975M99.654 79.504s-.297-.465.169-.465c0 0 1.143-.087.508.509 0 0-.212.675-.677-.044" fill="#8E0A26"/><path d="M76.593 84.751s1.512 4.004 9.606 2.757c0 0 5.071-.09 11.83-4.27 0 0 2.135-1.956 2.67-2.758 0 0 1.601-1.867 4.359-2.757 0 0 1.067-.801 1.867-1.422 0 0 1.334-.266 2.136-.355 0 0 3.201-1.78 7.116-.8 0 0 4.269.355 17.613 6.047 0 0 2.134 1.424 5.07 1.601 0 0 .355.356.533 1.514l2.669 4.98s4.981 5.515 5.071 14.59c0 0-3.202 3.022-10.409 3.378 0 0-2.223-3.203-5.247-4.713 0 0-2.848-2.134-4.804-5.25 0 0 6.049-2.58 7.472-5.336 0 0 1.78-2.492 3.559-.357 0 0 .622.536 1.067.448 0 0 .8-.448-.711-1.426l-1.692-.891s-.177-1.066 1.958-1.955c0 0 1.156-.98-.98-.712 0 0-1.422.532-3.379 3.38 0 0-3.024 4.36-9.074 6.05 0 0-7.382 1.332-13.608-4.27 0 0-.98-.176.621 1.421 0 0 2.047 1.514.268 1.514 0 0-1.602.356-1.067.622 0 0 .354.178 2.134-.355 0 0 1.335-.445 3.558.802 0 0 1.602 1.153 4.358 1.51 0 0 1.78 5.78-4.624 15.035 0 0-1.957 3.022-4.981 4.448 0 0-2.847 2.933-3.38 4.623 0 0 .355 1.691 1.244.445 0 0 2.045-4.27 5.604-5.87 0 0 .534.09.534 1.688 0 0 .89 2.226 3.023 4.005 0 0 .535.772-.77 2.489 0 0-2.727 5.279-6.997 6.938l-.83.416s-1.66-.118-2.55.296l-1.187.535s-2.253.238-2.372.416c-.118.177-1.066 0-1.066.296 0 .294-3.441-.296-3.974.177 0 0-1.246.058-1.186.297 0 0-3.796.118-3.676.532l-2.789.298-2.372-.235s-3.202-.061-10.2-6.348c0 0-5.692-5.573-8.717-10.732 0 0-6.82-11.477-2.194-24.996 0 0 2.758-7.562 8.896-7.74" fill="#8E0A26"/><path d="M137.48 111.88s-.844-.088-1.689-2.89c0 0-.222-.71.756-.355 0 0 0 .134.933 3.245M137.215 108.635s.177-1.068.888-.4c0 0 .712 3.069.98 3.469 0 0-.535.266-.802-.045 0 0-.4-.222-1.066-3.024M139.126 109.613s-.623-1.956.49-1.468c0 0 .355 1.114.445 1.959 0 0 .977 1.467.177 1.866 0 0-.667.177-1.112-2.357M140.505 108.235s-.133-.624.49-.757c0 0 .444-.088.578.667 0 0 .489 2.58.578 2.759 0 0-.09.934-.89.4 0 0-.533-.89-.756-3.07M142.462 107.745s-.222-.845.623-.978c0 0 .622-.266.667 1.2v2.937s-.445.578-.8-.045l-.49-3.114M144.418 107.076s-.044-.931.757-.796c0 0 .267.22.134 1.11 0 0-.09 1.11.533 2.445 0 0 .356.89-1.068.669 0 0-.4.22-.356-3.428M146.198 105.788s1.023-1.2.979.045l.445 3.426s-.267.978-1.024.621c0 0-.666-.89-.4-4.092M118.045 120.11s-.623-.27-.49-1.244c0 0 1.378.62.49 1.243M120.001 119.577s4.315 3.203 4.804 4.624c0 0 .845.269.267-.802 0 0-2.58-3.779-6.139-5.067 0 0-.577-.357.18 1.155 0 0 .667 1.645.488 2.09 0 0-.177 0 .89.58 0 0 1.6 1.111 2.935 3.156 0 0 1.024 1.424 1.513.89 0 0 .71-.268-.623-1.556 0 0-1.202-1.601-4.092-4.134 0 0-.978-1.202-.223-.936M124.717 127.006s-1.735-.67-3.381-3.026c0 0-1.201-1.824-1.957-1.246l-.267 1.112s-.578-.133.933.801c0 0 3.603 3.735 3.87 3.333 0 0 .756.714.802-.974M118 126.025s.801-2.09 1.601-.933c0 0 2.846 3.246 3.825 3.423 0 0 .979-.222.269.89l-.713 1.069s-.756-.268-1.469-.935c0 0-2.044-2.357-3.069-2.758 0 0-.31-.266-.444-.756M117.066 128.027s-.4-.534.489-1.2c0 0-.044-.491 1.246 1.11 0 0 2.447 2.447 3.425 2.849 0 0 .933.354-.045.976 0 0-.134.49-.978-.089 0 0-2.136-1.155-2.491-1.511 0 0-1.112-.935-1.646-2.135M115.776 129.984s-.801-.49.089-1.243c0 0 .4-.624.846.353 0 0 1.334 2.092 4.136 3.202 0 0 1.022.536-.312 1.29 0 0-.667-.223-1.378-.754 0 0-.978.09-3.381-2.848M114.487 131.453s-1.202-.445.044-1.336c0 0 .178-.445 1.334 1.023 0 0 1.513 1.913 3.915 3.025 0 0 .489.933-1.068.712 0 0-1.334-.31-4.225-3.424M114.753 133.986s-3.292-2.578-1.868-2.712c0 0 .045-.488 2.535 2.134 0 0 1.958 1.29 2.047 1.912 0 0 1.422.27.712.802 0 0-.134.71-1.025.088 0 0-.932 0-2.4-2.224M110.795 132.34s.89-.844 1.29-.044c0 0 2.757 2.581 3.068 3.245 0 0 1.024.938 1.47 1.115 0 0 .309.976-1.114.799 0 0-2.624-2-4.625-4.447 0 0-.267-.265-.09-.667M108.616 132.875s1.556-.979 1.29.31c0 0 .266.313 4.981 4.539 0 0-.045 1.11-1.113.49 0 0-2.222-1.292-3.157-2.804 0 0-2.046-1.78-2-2.535M106.57 133.452l1.424-.489s.31 0 .22 1.111c0 0-.132.134 1.87 1.914 0 0 1.067 1.336 1.29 1.601 0 0 2.312.888 1.334 1.29 0 0-.446.667-1.247-.044 0 0-2.712-1.558-3.113-2.179 0 0-2.357-2.448-1.778-3.204M108.927 139.501s-.755-2.445.668-.979c0 0 1.289.402 1.156.98 0 0-1.646.844-1.824 0M104.39 134.298s.135-.846 1.29-.533c0 0 .134.131.045.71 0 0 .578.402.89 1.69 0 0 1.867 1.781 1.6 3.024 0 0 .09.98-.888-.13 0 0-1.424-2.76-2.003-3.518l-.934-1.243M102.922 134.567s.356-1.204.89-.224c0 0 .178.845.578 1.246 0 0 1.245 1.067 1.157 1.866 0 0 .311.933.534 1.201 0 0 1.022 1.96-.801-.489l-1.246-2.045s-.49-.533-.934-.934c-.443-.4-.178-.621-.178-.621M100.566 134.253s2.001-.622 1.734 1.023c0 0 1.29.846 3.691 4.893 0 0 .355.624-1.29.49 0 0-.31.044-1.956-2.225 0 0-2.67-3.158-2.401-3.557 0 0-.401-.624.222-.624M98.61 134.698s.754-.89 1.066-.088v.8s-.134.578 3.78 5.249c0 0 .312.622-1.69.444 0 0-.445-.357-.934-1.512 0 0-2.491-2.935-2.223-4.893M94.783 135.143l2.714-.355s.488-.221.355.89c0 0 0 .444.489 1.065 0 0 .356.446.58 1.557 0 0 1.822 2.046.043 1.024 0 0-2.935-1.557-3.424-2.893 0 0-.712-.89-.757-1.288" fill="#8E0A26"/><path d="M92.425 135.5s1.47-.533 1.825.533c0 0 .712 1.422 1.512 2.045 0 0 2.135 1.69 4.046 2.715 0 0 1.914.89-.755.577 0 0-1.6.045-2.357-.577 0 0-4.004-2.493-4.715-4.45 0 0-.89-1.288.444-.844M88.78 135.32l1.6.09s.845.09.579.89c0 0-.045.401 1.334 1.778 0 0 2.401 2.18-.667.49 0 0-2.358-1.736-3.025-2.626 0 0-1.334-.975.18-.622" fill="#8E0A26"/><path d="M109.09 128.957a.091.091 0 0 1-.09-.086c-.278-4.157 2.457-5.378 2.485-5.39 2.444-.92 3.267-1.921 3.528-2.6.256-.665.02-1.136.017-1.141a.09.09 0 0 1 .16-.084c.013.022.278.54-.005 1.284-.271.714-1.122 1.765-3.633 2.71-.022.009-2.64 1.186-2.37 5.21a.09.09 0 0 1-.085.096h-.006" fill="#231F20"/><path d="M64.139 91.155s2.49-.355 3.025-.533l-1.958 7.116s-.533 1.069-1.245-2.312l.178-4.27M83.334 96.011a40.394 40.394 0 0 0-.566 3.762l-3.917-.027c.106-1.005.25-2.008.433-3.005l-2.66-.031a40.898 40.898 0 0 0-.588 4.691c1.214.123 2.429.244 3.645.365a82.939 82.939 0 0 0 3.027 3.412c.07 2.18.316 4.355.74 6.504a75.732 75.732 0 0 0-2.286 3.386l-4.788.089a99.664 99.664 0 0 1-3.877-3.332 40.979 40.979 0 0 1-.533-3.831l4.075-.028a40.8 40.8 0 0 0 .4 3.022l2.824-.034a40.512 40.512 0 0 1-.54-4.8 2844.11 2844.11 0 0 1-3.695-.34 83.219 83.219 0 0 1-3.058-3.452c.1-2.174.375-4.344.821-6.487a110.178 110.178 0 0 1 3.887-3.33l4.437.082a64.886 64.886 0 0 0 2.22 3.384" fill="#FFF"/><path d="M76.39 115.066c1.568-.03 3.137-.058 4.707-.087a75.7 75.7 0 0 1 2.252-3.33 40.344 40.344 0 0 1-.731-6.435 83.73 83.73 0 0 1-2.986-3.359c-1.231-.122-2.462-.246-3.692-.37.106-1.63.31-3.255.611-4.868l2.84.034c-.184.996-.33 1.999-.44 3.004l3.736.025c.127-1.217.31-2.43.55-3.635a65.107 65.107 0 0 1-2.188-3.329l-4.358-.08a110.13 110.13 0 0 0-3.817 3.275 41.16 41.16 0 0 0-.812 6.415 83.346 83.346 0 0 0 3.006 3.398c1.247.116 2.494.23 3.743.344.084 1.667.27 3.329.56 4.977l-3.007.035a40.59 40.59 0 0 1-.407-3.02l-3.893.026c.116 1.24.289 2.475.518 3.702 1.22 1.106 2.49 2.2 3.807 3.278Zm4.838.09-4.87.092a99.58 99.58 0 0 1-3.946-3.386 40.877 40.877 0 0 1-.548-3.961l4.258-.029a40.4 40.4 0 0 0 .394 3.023l2.64-.03a40.545 40.545 0 0 1-.52-4.628c-1.216-.11-2.433-.222-3.648-.334l-.025-.027a83.581 83.581 0 0 1-3.086-3.478c.1-2.2.378-4.393.832-6.56.009-.01.019-.018.029-.027a110.675 110.675 0 0 1 3.927-3.357l4.516.084.018.03a64.822 64.822 0 0 0 2.232 3.41 40.32 40.32 0 0 0-.582 3.887l-4.098-.027c.104-1.006.246-2.009.426-3.007l-2.479-.028a40.893 40.893 0 0 0-.565 4.514l3.596.361.022.027a83.007 83.007 0 0 0 3.047 3.437c.069 2.204.318 4.402.748 6.574a75.888 75.888 0 0 0-2.318 3.44Z" fill="#231F20"/><path d="M96.381 96.18a39.33 39.33 0 0 0-.608 5.002l-3.879-.017a39.53 39.53 0 0 1 .485-4.229l-2.832-.033a39.919 39.919 0 0 0 .064 13.887l2.867-.033a39.84 39.84 0 0 1-.611-5.3l3.895-.01c.104 2.032.365 4.06.784 6.064a74.914 74.914 0 0 0-2.264 3.314l-4.659.086a101.063 101.063 0 0 1-3.898-3.259 40.181 40.181 0 0 1-.016-15.61c1.233-1.1 2.51-2.187 3.83-3.259l4.567.085a66.057 66.057 0 0 0 2.275 3.312" fill="#FFF"/><path d="m89.638 114.822 4.578-.084a74.732 74.732 0 0 1 2.231-3.26 39.596 39.596 0 0 1-.772-5.942l-3.712.011a39.77 39.77 0 0 0 .623 5.298l-3.05.036a39.925 39.925 0 0 1-.064-14.069l3.013.036c-.241 1.4-.406 2.812-.494 4.226l3.697.017a39.35 39.35 0 0 1 .596-4.878 66.389 66.389 0 0 1-2.242-3.258l-4.488-.083a109.003 109.003 0 0 0-3.761 3.206c-1.006 5.13-1 10.409.017 15.538a100.962 100.962 0 0 0 3.828 3.206Zm4.71.09-4.74.089a101.743 101.743 0 0 1-3.967-3.313 40.179 40.179 0 0 1-.015-15.682l.028-.026a108.668 108.668 0 0 1 3.87-3.286l4.647.087.018.029a66.056 66.056 0 0 0 2.289 3.337 39.349 39.349 0 0 0-.619 5.125l-4.061-.018a39.54 39.54 0 0 1 .475-4.23l-2.65-.03a39.908 39.908 0 0 0 .064 13.705l2.683-.031a39.785 39.785 0 0 1-.598-5.3c1.358-.005 2.717-.008 4.076-.012.102 2.074.367 4.144.797 6.188a74.922 74.922 0 0 0-2.296 3.368Z" fill="#231F20"/><path d="M95.213 39.623s-3.379 1.662-11.72-1.147l-4.984-2.094s-4.983-2.592-6.877-3.19c0 0 1.494-.398 4.285.898 0 0 5.283 2.592 5.88 2.79.6.2 2.801 2.327 13.416 2.743" fill="#214598"/></g></svg>