<svg width="200" height="200" xmlns="http://www.w3.org/2000/svg"><g fill="none"><path d="m137.46 105.626-10.577 17.216c-2.896 4.714-11.815 8.384-11.815 8.384l-11.588 20.25.377 5.226c.158 2.828-17.945 12.46-23.468 15.653H28.912c-1.88-3.206-10.688-15.777-9.055-18.945.637-1.225 3.17-3.006 5.823-5.115l12.54-20.141c-2.639-5.372-4.464-8.6-3.279-10.37l9.176-13.693c-10.325 0-36.429-2.487-36.429-17.71 0-28.13 39.764-26.775 46.178-48.349 0 0 2.34 3.559 2.34 7.476 0 14.41-19.911 21.028-19.911 26.912 0 8.214 27.663 10.008 48.59 10.008l-26.688 40.018 2.948 6.24-14.439 23.466h28.337l11.257-21.18 8.723-5.6 25.079-41.687c34.065 0 48.615-5.542 48.615-11.647 0-4.065-5.77-8.286-5.77-16.803 0-8.44 10.07-15.826 10.07-15.826-5.13 19.292 19.02 19.288 19.02 34.706 0 21.705-29.047 31.511-54.578 31.511zm38.333-60.951c0-3.458 3.165-13.971 3.165-13.971s-19.516 11.493-19.516 24.53c0 9.103 5.77 14.528 5.77 16.804 0 2.717-11.794 8.143-47.092 8.143l-25.678 42.684-8.805 5.653-10.7 20.13H52.979l12.146-19.742-2.91-6.164 29.221-43.819c-45.68 0-51.608-5.486-51.608-6.42 0-2.571 19.884-11.624 19.884-26.995 0-7.126-7.057-15.698-7.057-15.698-3.393 29.833-48.47 22.712-48.47 56.572 0 13.865 16.87 19.8 33.525 20.98l-5.679 8.471c-2.168 3.234-.454 6.798 2.184 12.123l-11.182 17.96s-5.164 3.709-6.283 5.876c-2.326 4.568 2.493 11.396 10.171 23.977h54.55c18.339-10.366 25.895-14.638 25.895-18.961l-.312-4.518 10.487-18.326c2.742-1.247 9.49-4.663 12.33-9.287l9.58-15.594c27.394-.508 56.09-11.477 56.09-34.968 0-15.827-19.747-17.863-19.747-29.44z" fill="#FFF"/><path d="m139.45 109.083-9.58 15.594c-2.84 4.624-9.588 8.04-12.33 9.287l-10.487 18.326.312 4.518c0 4.323-7.556 8.595-25.895 18.96H26.92c-7.678-12.58-12.497-19.408-10.17-23.976 1.118-2.167 6.282-5.876 6.282-5.876l11.182-17.96c-2.638-5.325-4.352-8.889-2.184-12.123l5.68-8.47c-16.657-1.18-33.526-7.116-33.526-20.981 0-33.86 45.077-26.739 48.47-56.572 0 0 7.057 8.572 7.057 15.698 0 15.37-19.884 24.424-19.884 26.994 0 .935 5.929 6.421 51.608 6.421l-29.221 43.819 2.91 6.164-12.146 19.741h19.96l10.699-20.13 8.805-5.652 25.678-42.684c35.298 0 47.093-5.426 47.093-8.143 0-2.276-5.77-7.701-5.77-16.803 0-13.038 19.515-24.531 19.515-24.531s-3.165 10.513-3.165 13.97c0 11.578 19.748 13.614 19.748 29.441 0 23.49-28.697 34.46-56.091 34.968zm40.51-64.408c0-6.152 6.087-24.36 6.087-24.36S155.26 37.372 155.26 55.234c0 8.59 4.929 15.714 4.929 15.714-9.034 4.185-27.046 5.05-44.434 5.05L89.36 119.873l-8.905 5.718-10.03 18.874h-9.962l9.41-15.297-2.867-6.075 32.248-48.355c-36.54 0-44.093-1.153-52.3-3.263 0 0 16.94-10.824 16.94-25.967C63.894 35.44 51.206 20 51.206 20l-4.709 15.84C41.4 52.997 0 52.825 0 86.38c0 14.693 14.042 21.94 30.386 24.392l-1.832 2.73c-3.065 4.576-1.452 9.28.89 14.206l-9.572 15.37s-5.25 3.657-6.832 6.781c-3.278 6.457.976 13.227 11.502 29.983h58.223c22.842-12.916 28.77-16.266 28.77-23.567-.006-.067-.116-1.605-.218-3.014l9.197-16.072c3.647-1.784 9.877-5.376 12.918-10.322l8.396-13.667c28.672-1.136 57.897-13.458 57.897-39.086 0-17.408-19.765-21.752-19.765-29.44z" fill="#CBC282"/><path d="M173.017 39.409s-10.07 7.386-10.07 15.826c0 8.517 5.77 12.738 5.77 16.803 0 6.105-14.55 11.647-48.615 11.647l-25.08 41.687-8.722 5.6-11.257 21.18H46.706l14.439-23.466-2.948-6.24 26.688-40.018c-20.927 0-48.59-1.794-48.59-10.008 0-5.884 19.912-12.502 19.912-26.912 0-3.917-2.341-7.476-2.341-7.476C47.452 59.606 7.688 58.25 7.688 86.382c0 15.222 26.104 17.71 36.43 17.71l-9.177 13.692c-1.185 1.77.64 4.998 3.278 10.37l-12.54 20.141c-2.652 2.109-5.185 3.89-5.822 5.115-1.633 3.168 7.175 15.74 9.055 18.945H80.39c5.523-3.193 23.626-12.825 23.468-15.653l-.377-5.225 11.588-20.25s8.92-3.671 11.815-8.385l10.576-17.216c25.53 0 54.577-9.806 54.577-31.51 0-15.419-24.148-15.415-19.019-34.707m-66.794 138.216a3.069 3.069 0 0 1-2.274.95c-.89 0-1.649-.316-2.273-.95a3.17 3.17 0 0 1-.93-2.3c0-.892.311-1.652.935-2.282a3.072 3.072 0 0 1 2.268-.951 3.08 3.08 0 0 1 2.274.95c.625.63.937 1.391.937 2.284 0 .9-.312 1.664-.937 2.299zm-2.272-6.039a3.565 3.565 0 0 0-2.625 1.092 3.606 3.606 0 0 0-1.091 2.643c0 1.041.36 1.927 1.082 2.66.724.735 1.602 1.1 2.634 1.1 1.033 0 1.915-.365 2.642-1.1a3.643 3.643 0 0 0 1.09-2.66c0-1.034-.363-1.915-1.09-2.643-.727-.728-1.61-1.092-2.642-1.092z" fill="#136247"/><path d="M104.517 175.144c-.154.062-.385.092-.693.092h-.658v-1.481h.623c.403 0 .696.05.88.152.184.101.275.302.275.599 0 .315-.14.527-.427.638zm1.128-.706c0-.518-.213-.864-.638-1.042-.237-.099-.61-.147-1.12-.147h-1.435v4.117h.714v-1.624h.57c.385 0 .654.044.806.134.258.152.389.466.389.943v.328l.014.134.01.045.012.04h.678l-.027-.05a.66.66 0 0 1-.037-.214 6.133 6.133 0 0 1-.01-.309v-.3c0-.207-.074-.42-.22-.639-.148-.218-.38-.351-.696-.403.251-.041.448-.106.59-.2.266-.173.4-.443.4-.813z" fill="#136247"/></g></svg>