<svg width="200" height="200" xmlns="http://www.w3.org/2000/svg"><g fill="none" fill-rule="evenodd"><path d="M197.953 95.932c-4.767-4.612-8.976-7.62-11.087-9.244-2.364-1.816-21.162-14.194-21.162-14.194-6.184-12.014-8.525-14.856-23.25-21.596-53.301-24.4-61.723 11.439-85.307 4.62.902 2.698 7.606 7.82 7.606 7.82-11.197 10.997-29.582 8.747-29.582 8.747s2.977 5.43 7.755 8.436c-9.064-.55-20.516-4.468-20.516-4.468s7.133 12.16 14.504 16.213C26.096 105.043 13.828 107.074 0 106.473c15.98 11.606 37.78 12.817 37.78 12.817-.443 20.002 23.232 32.8 23.232 32.8s-4.205-11.487-3.467-17.446c9.529 19.536 29.296 22.583 29.296 22.583-2.168-4.358-2.773-5.658-3.99-9.527 4.186 3.556 12.416 6.957 12.416 6.957-1.55-4.648-4.892-11.066-5.747-22.435 2.764 14.212 24.032 21.213 24.032 21.213-4.185-6.745-4.95-7.777-6.467-10.943l3.107 2.22s-3.927-13.38-2.586-20.438c6.937-6.015 8.77-9.987 14.205-12.077 13.774-5.299 20.955 3.783 24.402 6.88 6.919 6.218 13.49 6.743 20.662 6.896 1.8 1.135 3.468 2.22 5.12 1.375a2.975 2.975 0 0 0 1.545-1.973c2.104-9.027-1.783-13.7-6.121-15.064-5.79-1.823-8.917-4.978-11.946-9.514 7.236 3.527 20.464 10.827 28.616 10.427 5.351-.258 12.42-4.342 14.52-7.181 2.024-2.736 1.727-5.806-.656-8.111" fill="#FEFEFE"/><path d="M117.237 144.276l.87 2.435.875-2.435h.966v3.401h-.624v-2.745l-.94 2.745h-.544l-.95-2.745v2.745h-.626v-3.4h.973zm-4.448.567v-.567h2.899v.567h-1.112v2.834h-.677v-2.834h-1.11z" fill="#73253E"/><path d="M82.877 76.32c-13.433 9.54-20.322 31.991-9.959 57.448-7.259-35.731 9.96-57.449 9.96-57.449m-2.148-4.118s7.622-8.072 17.718-8.883c-15.57 13.001-13.64 37.784-13.64 37.784.296-10.203 7.756-32.59 25.708-42.453 0 0-2.876-.94-7.072-.247 3.143-2.339 10.747-3.787 14.918-2.747-16.254-8.061-29.662 3.079-29.662 3.079s5.884-2.71 11.621-1.677c0 0-12.297 1.017-19.59 15.144m-2.018 67.442c.453 7.416 3.582 13.693 3.582 13.693-14.146-4.742-21.706-16.99-25.52-26.19-2.038 5.194-2.758 11.268-.615 18.059-27.764-21.021-10.217-47.632-10.217-47.632-5.912 4.888-8.705 11.188-9.998 18.203-7.16-.437-15.432-2.426-24.831-6.873 0 0 16.846-.199 29.58-17.294-4.379-2.496-8.468-6.07-11.99-11.066 27.006 7.83 39.961-4.473 39.961-4.473s3.18-8.465 13.678-14.216c-12.314 3.25-13.582 15.511-34.397 18.63-3.12-1.536-5.733-3.397-7.465-5.665 14.74.482 20.918-6.551 28.97-11.517-1.923-.96-3.785-2.318-5.525-4.207 13.533 1.98 19.61-14.489 41.069-9.735-1.4-1.216-3.3-2.068-5.427-2.655 16.982-3.93 37.076 4.594 44.582 7.874 13.522 5.907 14.53 13.92 19.488 19.872-8.872-2.97-3.582-11.738-27.248-18.534a10.98 10.98 0 0 1 3.187 3.676c-4.288.753-8.76 3.563-10.498 7.542-5.896-1.336-11.14.482-12.565 1.93 3.625-.331 6.868.911 9.093 2.122-26.094-.578-27.234 17.298-5.905 26.053-8.344-1.151-18.086-.9-25.582 2.789-.72 3.449-.302 7.044 1.158 9.502-2.051-.845-3.609-1.978-4.799-3.228-3.837 11.615-5.866 26.93.187 43.294-5.11-2.47-9.05-5.888-11.953-9.954m68.648-36.024c.382.583 1.393 1.54 2.613 2.17a.278.278 0 0 0 .402-.274l-.226-2.387a.279.279 0 0 0-.315-.249l-2.28.318a.276.276 0 0 0-.194.422m15.398 13.32c.036 1.333 1.02 1.927 1.742 2.188.245.089.503.102.745.052-.011.338.06.685.352.88.603.397 1.599.232 2.535-.583.066-.06.023-.176-.066-.18-.85-.042-1.4-.078-2.056-.55 1.108-1.118 1.158-2.801 1.117-3.53a.177.177 0 0 0-.288-.13c-.495.395-1.738 1.217-3.93 1.67a.186.186 0 0 0-.151.182m-16.547-14.68l-.141-3.723a.183.183 0 0 0-.243-.167l-2.935.998a.184.184 0 0 0-.125.2c.102.666 1.352 2.105 3.195 2.87.119.053.256-.043.25-.178m-3.614-3.54l1.436-2.65a.277.277 0 0 0-.04-.317l-1.017-1.095-.484-1.863a.276.276 0 0 0-.368-.188l-4.356 1.73c-.224.088-.354.34-.265.564.281.735 1.284.865 2.03 1.51.894.77.773 2.124 2.554 2.535a.46.46 0 0 0 .51-.226m-5.432-4.71l.893-2.319a.168.168 0 0 0-.162-.226l-2.494.117a.162.162 0 0 0-.158.132c-.07.395-.126 1.61 1.7 2.39a.17.17 0 0 0 .221-.094m54.986 12.277s-3.748 2.348-8.182 2.565c-10.616.516-26.911-13.342-36.674-12.82 6.823 3.25 7.595 13.023 19.351 16.721 6.403 2.013 4.8 10.325 4.4 12.04a.414.414 0 0 1-.562.293c-1.302-.546-2.522-1.407-3.605-2.358a1.62 1.62 0 0 1-1.537.957c-7.82-.226-14.312-2.247-22.23-10.324-3.33-3.396-12.74-7.195-22.22-3.55-6.347 2.44-8.103 6.76-15.675 13.132-1.234 7.275.84 15.672.84 15.672s-2.042-1.462-4.474-4.018c1.43 6.75 5.376 13.083 5.376 13.083-11.146-4.997-14.965-12.768-15.678-20.05 11.208-6.795 14.198-12.9 21.937-17.713-3.426-1.698-10.384-.163-10.384-.163 13.954-10.692 32.385-7.496 43.376 1.097 4.776 3.73 7.323 8.995 16.055 10.02-6.685-2.117-6.08-8.59-18.967-14.954-9.804-4.84-13.527-9.283-12.542-12.869-1.234-.082-2.207-.03-2.207-.03s2.684-4.27 9.945-4.467c2.554-.069 5.571.208 8.32 1.133 13.277 4.474 33.186 18.855 40.568 12.533-2.051-4.265.16-8.25.16-8.25-.251-.985-2.24-3.664-4.594-7.14 4.646 2.982 7.39 5.052 13.351 10.817 3.212 3.109-1.078 7.305-4.148 8.643m-51.436-37.254c2.455-1.946 7.912-2.442 7.912-2.442s-.254-1.186-1.368-2.86c4.23 1.204 8.234 5.795 10.461 10.605-.925 0-4.153-2.247-8.342-1.69-1.174-1.434-6.176-4.038-8.663-3.613" fill="#73253E"/></g></svg>