<svg width="200" height="200" xmlns="http://www.w3.org/2000/svg"><g fill-rule="nonzero" fill="none"><path d="M197.583 108.214c-3.993-11.93-14.665-21.087-22.197-26.324l7.053-8.788-2.06-1.71c-1.242-1.032-30.952-25.3-73.787-25.3l-1.02.004C62.747 46.491 32.983 71.918 31.738 73l-5.275 4.583 9.173.279c-9.996 7.192-22.043 18.254-32.327 34.53l-3.122 4.945 5.796-.774c.124-.016 12.137-1.61 21.786-1.61.729 0 1.43.01 2.098.028-2.245 2.93-5.08 6.818-6.762 9.847l-3.044 5.464 6.08-1.48c.076-.019 7.825-1.876 18.893-1.876 16.339 0 42.332 3.975 60.365 22.913l1.757 1.843 1.964-1.622c.141-.118 11.61-11.73 29.63-16.573 4.036-.922 8.052-1.389 11.937-1.389h.461c.249 0 .501.004.752.012 2.017.17 4.064.479 6.086.911 18.94 4.064 19.685 14.945 19.708 15.528l.074 4.993 4.177-2.781c.733-.487 17.953-12.165 17.953-30.148 0-4.208-.792-8.417-2.314-12.409" fill="#FFF"/><path d="M194.99 109.082c-4.22-12.614-16.543-22.063-23.865-26.751l2.566-2.615 4.943-6.221s-30.163-25.056-73.037-24.663c-42.31.387-72.068 26.231-72.068 26.231l10.763.33c-10.32 6.29-25.898 18.242-38.67 38.458 0 0 19.8-2.649 29.51-1.197-.413.52-.856 1.094-1.319 1.707-2.13 2.688-6.209 7.999-8.323 11.796 0 0 50.057-11.618 81.886 21.807 0 0 11.812-12.04 30.761-17.132 4.111-.937 8.472-1.498 13.01-1.456.305 0 .606.004.91.012 2.095.179 4.254.49 6.5.969 21.67 4.652 21.87 18.139 21.87 18.139s16.738-11.147 16.738-27.873c0-4.133-.82-7.99-2.175-11.541" fill="#211D1D"/><path d="M180.282 131.224c.179.118.344.235.51.354 2.795-3.676 6.75-11.123 4.184-21.948 0 0 3.332 3.08 5.148 7.772-.383-15.38-18.363-27.372-24.634-31.095-4.435 3.389-9.94 6.852-16.407 9.496-9.992 4.085-16.544 9.715-21.912 17.374 29.254-3.476 46.385 11.087 53.11 18.047" fill="#FBBF16"/><path d="M121.973 121.776c-1.42 2.666-3.133 6.974-4.534 10.033 16.843-10.688 31.306-9.221 47.525-5.863-17.612-10.069-35.926-6.97-42.991-4.17" fill="#FBBF16"/><path d="M128.076 90.709s-6.077-3.184-6.607-8.823c-1.81-.673-4.469-1.002-6.385-1.133 1.203 2.86 5.542 10.065 12.992 9.956" fill="#F6F7F8"/><path d="M140.069 62.532c-46.676-15.1-79.407 5.236-79.407 5.236 8.592.266 15.497.82 15.497.82-25.815 7.125-43.75 26.372-48.507 32.446 26.592-19.242 52.863-27.116 68.811-28.612 2.357-.14 4.519-.219 6.524-.238-.742-.762-2.175-1.458-3.868-2.064-.065-.027-.128-.05-.192-.074-.011-.003-.02-.005-.029-.005-3.629-1.252-8.18-2.125-9.986-2.45a15.392 15.392 0 0 0-.465-.077h.007c-.22-.043-.339-.061-.339-.061a57.05 57.05 0 0 1 11.686-.409 58.61 58.61 0 0 1 10.256 1.527c15.857 3.646 28.339 12.35 33.377 16.288 5.887 1.186 11.884-.353 17.207-4.217-4.867-3.894-16.544-11.795-16.544-11.795 8.603 2.668 16.73 7.326 19.75 9.294 1.803-1.398 3.081-2.975 3.081-2.975-8.763-6.189-17.935-10.17-26.859-12.634" fill="#FBBF16"/><path d="M109.365 81.19c-32.636-2.26-57.142 17.158-57.142 17.158 28.494-10.06 50.886-9.427 50.886-9.427 9.284 8.787 20.34 8.38 26.59 7.167-15.71-2.09-19.45-11.041-20.334-14.899" fill="#FBBF1A"/><path d="M33.873 135.858c.214-.015.403-.052.567-.116a.846.846 0 0 0 .397-.305c.1-.138.15-.33.15-.573 0-.207-.038-.373-.116-.5a.872.872 0 0 0-.314-.304 1.349 1.349 0 0 0-.445-.156 3.28 3.28 0 0 0-.52-.039h-1.327v2.01h.958c.218 0 .435-.003.65-.017Zm-2.334 3.207v-5.81h2.258c.666 0 1.152.139 1.458.414.305.274.458.673.458 1.195 0 .253-.039.473-.117.663a1.366 1.366 0 0 1-.32.479c-.137.13-.295.233-.473.31a2.525 2.525 0 0 1-.568.17l1.752 2.579h-.848l-1.656-2.58h-1.218v2.58h-.726Zm.13-6.876a4.278 4.278 0 0 0-1.361.918 4.181 4.181 0 0 0-.896 1.365 4.392 4.392 0 0 0-.322 1.69c0 .602.107 1.164.322 1.686a4.16 4.16 0 0 0 2.257 2.285 4.322 4.322 0 0 0 1.718.336 4.26 4.26 0 0 0 3.066-1.255 4.27 4.27 0 0 0 .902-1.366 4.327 4.327 0 0 0 .328-1.686 4.293 4.293 0 0 0-1.23-3.055 4.275 4.275 0 0 0-3.066-1.255c-.62 0-1.193.112-1.718.337Zm3.729-.668a4.927 4.927 0 0 1 2.69 2.669c.258.611.388 1.27.388 1.972 0 .71-.13 1.37-.389 1.977a4.924 4.924 0 0 1-1.074 1.588c-.456.45-.994.805-1.615 1.06-.62.257-1.29.384-2.011.384-.721 0-1.392-.127-2.012-.384a4.964 4.964 0 0 1-1.614-1.06 4.93 4.93 0 0 1-1.464-3.565 5.008 5.008 0 0 1 1.464-3.573 4.92 4.92 0 0 1 1.614-1.068 5.22 5.22 0 0 1 2.012-.386c.72 0 1.39.13 2.011.386Z" fill="#211D1D"/></g></svg>