<svg width="200" height="200" xmlns="http://www.w3.org/2000/svg"><g fill-rule="nonzero" fill="none"><path d="M119.067 41h7.786c5.68.212 11.28.531 16.88 1.514 6.054 1.063 12.427 2.895 17.36 6.667 4.134 3.161 6.88 7.438 8.827 12.219.347.983 1.12 1.434 1.84 2.152 4 3.851 7.387 8.553 8.987 13.892 1.546 5.02 1.36 10.36-.214 15.353-1.813 5.923-5.44 11.395-9.626 15.937-1.094 1.222-2.374 2.178-3.254 3.586 10.774 2.949 21.574 5.844 32.32 8.82v.079c-1.333.345-2.64.77-3.946 1.169-39.734 12.165-79.494 24.33-119.227 36.496-1.147.346-2.293.664-3.413 1.116h-.107c.32-.425.613-.823.987-1.222 4.16-4.595 8.346-9.19 12.506-13.786-19.706 4.49-39.386 9.111-59.093 13.6 6.16-5.392 12.4-10.731 18.533-16.15-15.44 2.152-30.826 4.33-46.213 6.508 2.107-2.417 4.4-4.702 6.587-7.066 6.346-6.746 12.746-13.467 19.066-20.24-4.053.85-8.08 1.806-12.16 2.63 9.44-10.2 18.934-20.4 28.374-30.6-4.134 1.142-8.214 2.417-12.347 3.585 7.92-8.207 15.92-16.654 24.347-24.357 10.613-9.696 22.32-18.7 35.493-24.65 9.36-4.304 19.44-6.854 29.707-7.252Z" fill="#CF2127"/><path d="M123.733 45.33c6.667.133 13.414.478 20 1.567 2.987.531 5.974 1.195 8.774 2.39 2.613 1.116 5.066 2.63 7.173 4.543 2.64 2.417 4.587 5.418 5.92 8.739.373.85.667 1.965 1.333 2.63 2.32 2.284 4.64 4.701 6.427 7.437 1.867 2.895 3.227 6.136 3.68 9.589.56 3.772-.053 7.73-1.413 11.29-2.187 5.763-6.294 10.89-11.04 14.768-2.054 1.62-4.214 3.108-6.72 3.878-1.36-3.188-4.427-5.286-7.414-6.827-.72-.318-1.626-.903-2.4-.85-.826.93-1.306 2.311-1.04 3.533.187 1.116.88 2.046 1.654 2.816 1.733 1.7 3.946 2.789 6.32 3.267a2567.51 2567.51 0 0 1 28.106 7.331c-1.306.532-2.666.85-4 1.302-30.426 9.323-60.933 18.7-91.36 27.997 3.76-4.41 7.707-8.686 11.467-13.096-18.453 4.25-36.907 8.527-55.36 12.804 5.547-4.835 11.147-9.643 16.72-14.504-15.867 2.125-31.707 4.33-47.573 6.429 6.48-7.172 13.013-14.291 19.546-21.436 3.014-3.347 6.16-6.615 9.147-9.988-1.333.345-2.427 1.063-3.627 1.674-3.466 1.78-6.986 3.506-10.64 4.887.614-.903 1.36-1.7 2.08-2.523 8.854-10.28 17.734-20.666 26.214-31.264.56-.691 1.12-1.382 1.6-2.099-1.414.611-2.747 1.514-4.08 2.284-2.56 1.514-5.04 3.135-7.6 4.622 1.04-1.168 2.213-2.178 3.36-3.267 2.08-1.992 4.16-3.984 6.24-6.003 4.106-3.984 8.373-8.155 13.04-11.448 2.186-1.62 4.4-3.241 6.533-4.915 5.813-4.728 12.64-8.5 19.387-11.767 9.173-4.383 19.413-5.897 29.546-5.79Z" fill="#231F20"/><path d="M114.667 48.198a57.866 57.866 0 0 1 10.933.24c4.48.61 9.04 1.753 12.72 4.515-.827-1.116-2.08-2.205-1.947-3.745.054-.744.774-1.142 1.467-1.142 1.52.053 3.04.504 4.533.743 3.92.664 7.707 1.647 11.227 3.586 3.04 1.674 5.6 4.09 7.2 7.172.72 1.328 1.2 2.763.773 4.277-.533 1.54-2.106 2.47-3.493 3.16-1.413.665-3.2 1.462-4.8 1.143-1.333-.266-2.08-1.169-2.88-2.205.16.877.587 2.072.213 2.922-1.093 1.7-3.28 2.71-5.2 3.161-2.8.664-5.786.717-8.666.505-1.52-.053-3.014-.08-4.534-.213-3.226-.186-6.693-.398-9.653-1.753-2.613-1.248-5.147-2.683-7.707-4.037-2.133-1.09-4.453-1.913-6.906-1.78-2.107.106-4 .983-5.707 2.151-1.68 1.17-3.2 2.338-4.16 4.197 1.76-.132 3.52-.265 5.28-.425-.373-.425-.72-.664-.533-1.301.373-1.302 2.08-2.019 3.28-2.338 1.28-.398 2.48-.133 3.786-.053-2.053.956-3.68 2.763-4.586 4.808-.667 1.673-.16 3.294.933 4.622-1.92.106-3.387-.266-5.04-1.195.507.69 1.013 1.354 1.707 1.885.986.744 2.133 1.302 3.2 1.966-4.507-.956-9.574-1.567-14.08-.292-2.774.823-5.494 2.364-7.36 4.569-1.44 1.7-2.134 4.01-1.76 6.242.48 2.922 2.266 5.551 4.346 7.623 2.267 2.338 4.96 4.117 7.867 5.605-1.227 1.567-2.4 3.16-3.6 4.728 2-.266 4-.531 6-.823a46.68 46.68 0 0 1-6.133 4.834c-2.16 1.408-4.587 2.763-7.12 3.32-1.014.186-2.48.478-3.387-.16-1.067-.822-1.067-2.23-1.173-3.426-1.174.638-2.347 1.275-3.6 1.753.373-1.221.826-2.39 1.173-3.612-3.467 1.86-6.88 3.852-10.427 5.578-1.013.478-2.08.983-3.173 1.249-.507.08-1.067.212-1.44-.213-.293-1.089.427-2.258.907-3.187 2.693-4.702 6.48-8.872 9.386-13.468-7.76 3.852-15.146 8.394-22.746 12.458 4.746-10.306 9.733-20.267 16.16-29.644 3.44-5.046 7.173-9.801 11.04-14.503 4.053-5.126 9.52-9.27 15.173-12.51 6.8-3.8 14.64-6.535 22.507-6.987Z" fill="#FFF"/><path d="M106.293 63.605c-2.373.85-4.613 1.78-6.613 3.373-1.413 1.142-2.8 2.842-3.093 4.702-.214 1.222.186 2.337.826 3.373-8.133 1.275-15.093 5.578-21.546 10.44-1.2.876-2.374 1.805-3.627 2.629.587-.877 1.253-1.674 1.92-2.47 3.12-3.64 6.427-7.199 10.107-10.307-2.08.585-4.134 1.249-6.214 1.833 3.974-3.692 8.8-6.64 13.6-9.164 2.8-1.487 5.76-2.683 8.854-3.453 1.893-.478 3.84-.903 5.786-.956Z" fill="#231F20"/><path d="M113.067 68.227c1.36.106 2.693.876 3.733 1.726 1.2.956 1.52 2.311 2.533 3.586.8 1.036 1.947 2.178 3.36 2.019 2.187-.24 4.347-1.169 6.374-1.992 1.093.345 2.186.557 3.28.93-4.747 2.443-10.187 3.559-15.52 3.479-2.267-.08-4.454-.319-6.534-1.302-1.066-.53-2.053-1.354-2.4-2.523-.32-1.328.107-2.603.907-3.666.987-1.275 2.613-2.337 4.267-2.257Z" fill="#FFF"/><path d="M112 82.013c-3.253-.372-6.533-.638-9.813-.957a82.705 82.705 0 0 0-6.987-.398c-2.453-.027-4.8 1.036-6.613 2.656-1.342 1.199-2.31 2.869-2.48 4.702-.214 2.284.68 4.434 2.106 6.162 1.974 2.39 4.747 3.878 7.654 4.861 2.557.865 5.38 1.391 8.133 1.222 4.747-.292 9.227-1.62 14-1.54 1.932.032 3.862.258 5.733.743 1.947.505 3.871 1.258 5.787 1.833 2.234.67 11.173 3.187 13.413 3.134.828-.02 1.68-.451 1.947-1.248.15-.449-.256-.588-.64-.797-3.705-2.018-7.757-3.558-11.808-4.78a122.006 122.006 0 0 0-5.712-1.569c-5.536-1.38-10.698-.552-11.364-.476-2.73.314-5.434.836-8.156 1.22-2.127.3-3.935.838-6.133.505-2.454-.372-5.12-1.116-7.147-2.63-1.527-1.14-2.693-2.815-2.693-4.754 0-1.807 1.035-3.375 2.533-4.357 2.027-1.328 4.441-1.55 6.827-1.275 5.513.637 10.494 2.89 15.58 4.88 1.037.406 2.102.837 3.17 1.245 1.883.726 4.784 1.786 6.698 2.448 3.298 1.123 9.567 3.326 9.858 3.434 5.2 1.912 10.427 3.984 15.307 6.614 2.533 1.434 4.96 3.028 7.493 4.462.614.372 1.04.213 1.6-.133 1.92-1.195 6.88-4.834 9.04-8.075.832-1.247 1.574-2.55 2.16-3.904.725-1.877 1.547-5.194 1.627-5.685.16-.983.32-1.939.347-2.948.21-3.103-.19-6.279-1.334-9.111-.697-1.708-1.9-3.692-2.773-4.808-1.227-1.567-2.773-2.762-4.827-2.895-3.12-.213-6.506 1.036-9.493 1.965-1.313.402-2.582.875-3.876 1.349-1.11.298-2.177.697-3.297 1.015-.265.076-10.085 3.136-11.174 3.48-2.655.82-5.31 1.666-7.966 2.434-2.247.568-4.46 1.179-6.727 1.577-1.4.215-3.697.51-5.104.589-1.633.034-3.308-.009-4.896-.19Z" fill="#FFF"/><path d="M137.627 79.41c.613 0 1.52-.213 2.053.159.72.504.773 1.567.64 2.364-.133.85-.613 1.434-1.147 2.098l-.266-.717c-.267-.823-.64-1.46-1.2-2.125-1.494.292-3.04.399-4.534.638-.773.08-1.573.186-2.346.239.266-.293.56-.558.933-.718a28.132 28.132 0 0 1 5.867-1.939Z" fill="#231F20"/><path d="M105.2 86.9c4.213 1.434 8.4 3.134 12.427 4.967-3.307-.292-6.64-.584-9.947-.93.827-.478 1.653-.93 2.48-1.407-2.507-.08-5.04-.027-7.547-.133.667-.319 1.334-.585 2-.877-3.12-.372-6.24-.743-9.333-1.195 3.093-1.886 6.587-1.355 9.92-.425Z" fill="#FEFEFE"/><path d="M93.76 88.892c2.507.106 5.04.186 7.547.319-.907.425-1.84.77-2.72 1.248 3.173-.132 6.346-.292 9.493-.425-.987.532-2.053.903-3.067 1.435l12.16 1.912c-1.706.346-3.44.558-5.173.877-3.387.584-6.693.983-10.133.77-2.294-.266-4.96-.876-6.8-2.39-1.147-.957-1.6-2.285-1.307-3.746Z" fill="#FFF"/><path d="M175.36 107.513c1.28-.08 2.587 0 3.893-.027v.558c-.586 0-1.146.026-1.733.026.027 1.302 0 2.603 0 3.905h-.613v-3.931H175.2c.053-.16.107-.346.16-.531Z" fill="#0B0607"/><path d="M184.587 107.38v4.515a6.89 6.89 0 0 1-.667-.106 68.912 68.912 0 0 0 0-3.32c-.507.584-1.013 1.195-1.52 1.806a49.356 49.356 0 0 0-1.547-1.78c0 1.17 0 2.311.027 3.48h-.64c0-1.487-.027-2.975 0-4.462.32-.133.56-.08.72.132.507.532.933 1.09 1.413 1.647.72-.61 1.227-1.86 2.214-1.912Z" fill="#120E0F"/><path d="M138.293 113.542c-4.56 4.277-9.173 8.5-13.733 12.803 14.72-1.726 29.493-3.32 44.213-5.02.827-.106 1.654-.213 2.48-.266-9.44 2.949-18.933 5.818-28.4 8.766-14.533 4.49-29.093 8.978-43.653 13.44 3.493-3.984 7.013-7.942 10.533-11.9-17.36 3.958-34.773 8.05-52.133 12.033 4.987-4.356 10-8.659 14.987-12.989-15.734 2.205-31.44 4.649-47.174 6.8-.586.08-1.2.133-1.786.133 25.733-7.517 51.546-15.087 77.28-22.605-3.627 3.507-7.28 6.986-10.934 10.466 16.08-3.878 32.187-7.81 48.32-11.66Z" fill="#FFF"/></g></svg>