<svg width="200" height="200" xmlns="http://www.w3.org/2000/svg"><g fill-rule="nonzero" fill="none"><path d="M198.454 107.738c-.501-2.085-1.659-5.368-3.794-9.625-1.031-2.058-2.113-3.934-3.256-6.16-1.143-2.225-5.193-8.31-7.179-10.6-2.437-2.814-4.94-5.453-8.523-6.887a2901.216 2901.216 0 0 0-5.496-18.468c-1.841-6.085-3.557-9.491-6.793-13.506-3.795-4.697-9.204-6.932-16.053-9.762l-2.056-.853c-3.749-1.565-7.283-3.387-9.483-4.425-2.2-1.04-6.23-2.795-6.962-1.97-1.73 1.946-2.857 7.72-3.003 11.72-.025.692-.03 1.37-.013 2.034-4.501-.804-8.871-1.735-12.502-2.905-8.37-2.693-17.643-6.772-21.869-8.444-4.224-1.672-8.839-4.378-9.515-2.226-.544 1.728-.362 5.547 1.054 9.511.804 2.254 2.697 5.208 4.008 7.283a71.185 71.185 0 0 0 5.865 7.962l-.715 1.041a30.277 30.277 0 0 0-3.986-1.587c-2.461-.782-6.488-1.716-11.7-1.716-4.796 0-9.615.791-14.318 2.347-15.92 5.266-27.77 19.985-28.75 35.41-3.375 3.604-9.37 7.436-19.592 7.436-2.456 0-5.444-.275-7.807-.663-2.362-.387-5.713-1.23-5.92-.245-.212 1.004-.126 3.134.815 5.775.924 2.59 5.959 11.03 13.092 15.963a36.533 36.533 0 0 0 4.486 2.62s5.03 2.361 11.261 2.583c6.01.215 11.987-1.466 17.077-4.565.58.405 1.183.793 1.812 1.161a30.19 30.19 0 0 0 3.17 1.609l.13.057c.14.064.283.125.418.182a28.458 28.458 0 0 0 6.603 1.86c.598.1 1.212.185 1.856.254 1.19.127 2.438.19 3.706.19 3.023 0 6.315-.364 9.785-1.081 1.179-.245 2.115-.363 2.86-.363 1.19 0 1.94.226 3.138 1.552 2.496 3.15 3.307 6.546 4.108 9.897.428 1.793.868 4.361 1.622 6.817 1.196 3.898 7.722 5.43 9.749 5.788.323.084.651.133.978.146l.129.004h.084c.195 0 .4-.011.621-.032a230.51 230.51 0 0 0-.58 2.61c-.062.247-.275.726-.56 1.287-1.26.217-2.363.733-3.24 1.524l-.05.046-.073.031-.005.005c-.01.01-1.255 1.12-3.35 1.728-1.071.311-2.314.434-3.412.543-2.13.211-5.284.407-6.72 2.64-1.085 1.686-2.377 3.923-3.583 7.355-1.207 3.432-1.578 5.753-.751 8.273 1.681 5.123 10.043 6.65 12.896 6.65 1.785 0 3.295-.303 4.488-.91.896-.454 4.774-3.39 6.48-4.737 1.704-1.346 8.721-5.123 11.008-7.293 2.703-2.27 4.39-5.62 5.305-7.437.13-.252.234-.47.324-.632 3.585-5.397 15.83-19.058 20.835-24.582.65-.144 5.789-1.018 10.286-1.368 4.01-2.684 6.02-4.43 13.22-6.813.44-.148 1.73-.486 4.186-.486 2.34 0 7.17.33 13.253 2.497 1.71.609 5.141 1.642 6.99 1.642.74 0 1.478-.068 2.194-.205 3.784-.72 6.902-2.407 9.258-5.01 1.292-1.422 2.058-2.418 2.737-4.72.814-2.763.223-5.673-.278-7.757" fill="#FFF"/><path d="M88.165 170.453c-3.187 0-6.9-1.325-7.587-2.665.063-.425.316-1.578.607-2.54l.154-.511-.396-.361a6.329 6.329 0 0 1-.735-.771c.112-.824 1.176-3.605 1.573-4.323.09-.016.267-.038.606-.038l.297.003.58.016.226-.536c.477-1.138 1.132-2.327 1.356-2.726.3-.132 1.23-.223 1.986-.297 1.25-.125 2.806-.28 4.324-.72 3.394-.983 5.343-2.831 5.424-2.909.286-.222.723-.34 1.283-.34.483 0 .88.088.882.089l.587.132.322-.508c.202-.324 1.99-3.203 2.347-4.922.095-.465.725-3.252 1.597-7.112l.646-2.863.367-1.63-1.533.663-.141.06c-4.142 1.795-5.481 2.123-5.915 2.146l-.035-.012-.134-.02c-1.33-.104-5.119-1.446-5.471-2.164-.054-.673-.133-3.618-.151-6.239l-.01-1.579-1.313.881-.787.53c-.432-2.54-1.692-8.116-4.875-12.187-2.125-2.404-4.232-3.414-7.08-3.414-1.112 0-2.35.15-3.895.468-3.13.648-6.074.977-8.749.977-1.09 0-2.156-.054-3.168-.162a24.947 24.947 0 0 1-1.558-.212 23.421 23.421 0 0 1-5.481-1.54c-.117-.048-.223-.097-.329-.144l-.13-.058a24.594 24.594 0 0 1-2.638-1.335c-1.693-.995-2.899-1.998-3.612-2.666l-.529-.493-.57.441c-4.677 3.616-10.833 5.69-16.887 5.69-1.376 0-2.756-.108-4.112-.318.243-.426.521-.91.752-1.306l1.004-1.74-1.948.49c-.002 0-2.57.648-3.752.926-.884-.37-2.853-1.37-4.665-2.621-5.679-3.926-9.756-10.09-10.747-12.12 2.656.387 5.231.583 7.668.583 13.199 0 20.575-5.618 24.439-10.329l.19-.23.003-.297c.165-11.918 8.912-26.824 25.313-32.25 4.186-1.384 8.466-2.087 12.72-2.087 4.556 0 8.036.802 10.152 1.475 4.311 1.372 6.765 3.43 6.789 3.45l1.136.963.252-1.467c.003-.003.045-.254.155-.664 1.984 3.89 4.482 7.37 8.288 11.604 1.755 1.952 3.836 4.038 6.191 6.2l.53.489.568-.444c2.1-1.638 5.047-2.617 7.883-2.617 1.82 0 3.398.392 4.464 1.109.148.294.47 1.281.813 2.81l.101.45.428.16c.25.093.5.19.745.293.193.304.615 1.369 1.122 3.346l.09.359.329.178c.268.146.588.337 1.07.624l.213.127c.074.26.183.888.331 2.338l.048.474.43.206c.274.131.522.264.736.395.105.231.314.934.547 2.373l.073.452.417.188a15.015 15.015 0 0 0 7.69 1.277l.207-.02.224-.148c1.9-1.238 8.493-4.21 8.56-4.24l.377-.169.1-.402.843-3.433.045-.184-.038-.188c-.57-2.804-1.823-5.14-3.723-6.94l-.17-.162-.227-.052a200.246 200.246 0 0 1-3.705-.862c-14.994-3.701-26.462-9.318-36.087-17.679-7.023-6.098-12.821-13.528-16.325-20.92l-.114-.242c-.509-1.047-.442-1.77-.293-1.924.065.012.35.143.559.238.1.046.198.091.3.134l.87.37c8.548 3.642 13.708 5.841 22.3 8.605 5.434 1.75 12.25 2.968 18.809 4.025l.983.157v-.997c0-.115 0-.227.006-.35l.006-.132-.032-.126c-.487-1.846-.69-3.99-.602-6.37.142-3.834.499-5.86 1.065-6.02a.603.603 0 0 1 .164-.022c.516 0 1.46.505 2.886 1.269 1.713.917 4.302 2.304 8.277 3.964l2.074.86c6.418 2.65 11.054 4.566 14.03 8.253 2.84 3.519 4.215 6.271 5.885 11.78 2.207 7.299 5.68 19.093 5.938 19.987.248.863 1.163 1.267 1.545 1.4 3.088.88 5.164 3.064 7.56 5.83 3.386 3.908 6.762 8.9 7.226 10.685a3.9 3.9 0 0 1 .108 1.462l-.068.529a5.108 5.108 0 0 0-.467-.32l-.88 1.535.586.34.976-1.38c-.023-.02-.047-.041-.073-.061l.341.197c.602.35 1.263 1.18 1.97 2.466 2.366 4.328 3.257 7.884 3.576 9.62l.072.385.34.196c.27.511.656 2.026.578 2.505-.066.053-.14.105-.216.155l-.26.175-.085.301c-.231.82-.745 2.062-1.874 3.31-1.626 1.79-3.732 2.912-6.442 3.427a6.669 6.669 0 0 1-1.237.114 7.64 7.64 0 0 1-3.763-1.009l-.198-.114h-.252c-.293 0-.652-.074-1.062-.222-5.044-1.801-10.361-2.794-14.969-2.794-2.318 0-4.318.257-5.789.744-6.747 2.237-10.586 5.125-12.388 7.182.025-.26.076-.55.152-.864l.378-1.54-1.492.538c-3.857 1.394-7.513 2.385-10.868 2.947l-.29.049-.198.217c-4.247 4.664-18.409 20.352-22.37 26.391-.16.273-.33.612-.54 1.025-.814 1.617-2.178 4.323-4.124 5.904-1.686 1.653-6.99 5.159-9.678 6.412-.321.15-.64.263-.973.346l-.211.05-.16.146c-3.284 3-4.751 4.024-5.4 4.355-.458.23-1.231.358-2.184.358" fill="#FFF"/><path d="M191.818 115.953c-.078.09-.145.178-.225.267.079-.09.143-.177.225-.267M180.25 98.527l-.018.901c-1.31-.55-2.745-.598-3.189-.598-.36 0-.876.024-1.273.14l-.078.023-.067.043c-.944.589-2.333.914-3.91.914-2.486 0-6.061-.902-7.954-3.45-1.216-1.635-1.69-3.514-1.334-5.29.3-1.509 1.16-2.754 2.424-3.507a2.778 2.778 0 0 1 1.429-.391l.065.001.76.017-.188-.737c-.126-.493-.425-.863-.814-1.138a7.541 7.541 0 0 1 3.613 2.04c.764.764 1.724 1.887 2.74 3.075l.049.057c1.544 1.32 3.15 2.96 3.93 4.327.758.721 1.465 1.286 2.086 1.59 1.577.77 2.732 1.113 3.502 1.263-.47.286-1.086.584-1.774.72Zm-36.495-33.833-.111-.05-.135-.002c-.033 0-.085.005-.14.013h-1.075l.58.899c.358.54.68 1.046.933 1.456-3.757-.682-15.917-3.358-28.655-11.222-5.056-3.12-9.666-6.78-12.263-9.263 10.586 6.566 23.516 8.23 31.51 9.257 2.705.348 4.847.623 6.1.985 8.721 3.76 12.751 12.895 13.885 20.23-1.247-4.326-4.12-9.405-10.629-12.303Zm22.752 14.896a18.049 18.049 0 0 0-4.151.233c.518-.483 1.117-.999 1.69-1.405l.412-.29-.233-.447-.063-.123-.068-.131c-.298-.592-.672-1.366-1.103-2.265-1.89-3.931-4.747-9.873-8.02-14.372-1.527-2.1-3.22-4.236-5.153-6.129-4.477-3.352-8.735-5.236-9.995-5.757a16.69 16.69 0 0 0-1.097-.207c-8.514-1.241-18.602-3.296-23.774-4.597-3.222-.812-11.83-3.178-22.146-7.608l-.11-.048h-.126a.664.664 0 0 0-.564.332.631.631 0 0 0-.031.624c1.947 3.489 6.255 10.178 13.312 15.959 1.077.881 2.155 1.735 3.249 2.564 3.696 2.647 7.301 4.876 10.249 6.587 5.706 3.027 12.524 5.665 21.668 8.055 1.735.487 3.68.97 5.774 1.436.205.047.337.079.42.128l-.115-.152.112.13.02.023.022.022a.48.48 0 0 1 .078.091l.014.023.053.075c1.194 1.507 6.447 9.013 1.11 18.225.12-.64.191-1.204.233-1.653l.064-.68-.261.02a.57.57 0 0 1-.008.03l-3.068.606c-3.716 1.102-9.747 3.447-13.603 4.99.72-.504 1.505-1.052 2.289-1.598l1.416-.986-1.723-.064c-1.507-.057-3.774-.372-6.01-1.554l-1.128-.596.307 1.283c-.055.32-1.28 1.245-2.265 1.987-1.666 1.256-3.737 2.82-5.237 4.85a24.758 24.758 0 0 0-3.606 6.867c-.139.408-.31.408-.394.408a.822.822 0 0 1-.348-.093l-1.244-.685.407 1.355c.057.188.12.372.182.549.121.352.287.833.236.984l-.22.662.691.093c1.633.22 3.144.47 4.316.683-1.628.154-3.876.405-5.615.814l-.055.013-.05.023c-1.455.657-2.621 4.983-3.056 6.813-2.5 12.217-6.732 29.128-7.277 30.7-.55 1.731-2.513 5.384-3.225 6.702.032.184.062.374.09.576l.139.181c.228 1.008.161 1.975.161 1.975s-.186.81-.228 1.1c-.066.463.035 2.254-.068 2.666l.946-.145c2.1-2.15 4.711-4.956 6.01-6.585l.067-.06.057-.053.055-.05.042-.063c.897-1.384 1.767-2.97 2.687-4.648l.046-.085c.271-.493.777-1.592 1.478-3.11 1.387-3.008 3.485-7.554 5.634-11.457.796-1.447 1.661-2.97 2.572-4.528.262-.52.517-1.017.799-1.545 3.273-6.098 8.653-14.214 14.44-19.772-2.353 2.613-4.12 5.454-5.26 8.452-.027.071-.051.143-.077.214 1.53.575 6.57 2.231 11.422 1.187 2.67-.575 4.807-1.35 6.466-2.115-1.598-.911-2.84-2.24-3.79-4.03l-.47-.889-.53.855c-.074.119-.14.236-.202.35-2.11-5-1.133-8.266.415-10.439.14-.34.317-.677.556-1.02.714-.677.979-1.133 1.383-1.403l-.004.004c.013-.009.024-.021.037-.03.022.13.054.278.095.435-.066.437-.116 1.29.777 3.576 1.487 3.807 7.459 8.482 17.084 7.874a197.402 197.402 0 0 1 1.917-.11l.317-.016.564-.025.322-.013a90.339 90.339 0 0 1 .824-.025 36.16 36.16 0 0 1 .779-.014c.17-.002.335-.002.5-.001h.234c.235.002.466.006.691.013.054.001.106.004.16.006.17.006.34.012.506.02l.269.017.374.025a23.199 23.199 0 0 1 .624.056c.103.01.204.022.305.034.102.013.203.025.303.039.106.013.21.027.314.043.095.013.187.029.28.043.11.018.22.035.33.055.077.013.153.029.23.043.309.059.617.122.929.195h.002c.639.13 1.481.545 1.485.551.074-.173.152-.34.232-.502h.009c.052-.108.1-.222.155-.326.986-1.845 2.348-2.943 3.684-2.485.058-.046.834-.367 1.067-.427 1.754-.46 7.786-.77 8.364 8.201.009.007.014.015.02.023a8.896 8.896 0 0 0 1.597-1.683l.097-.133.012-.166c.136-2.013-.456-3.859-1.142-5.272 2.092 2.488 2.191 2.488 2.488 2.488.256 0 .646-.166 1.193-.505l.096-.06-.184-.196c.137-.256.232-.538.294-.837-.313-1.56-1.033-4.256-2.66-7.56a8.622 8.622 0 0 0-1.498-1.64l.645.011c-.77-1.36-1.299-1.815-1.549-1.959l-.979-.566.144-1.122c.033-.247.14-.68-.085-1.14-.393-.805-1.423-2.623-2.848-4.765-1.437-1.761-3.173-3.65-4.808-5.344-3.49-3.616-7.735-5.597-12.614-5.888Z" fill="#FDDD04"/><path d="m38.461 90.934-.631.646c-6.782 6.937-14.945 8.392-20.597 8.392-1.649 0-4.177-.127-6.87-.732a2.694 2.694 0 0 0-.219-.043.929.929 0 0 0-.117-.007c-.279 0-.517.121-.653.333a.737.737 0 0 0-.111.469c.145.237.297.45.451.604.721.723 1.4 1.1 2.928 2.142 1.57 1.07 2.199 1.286 3.76 1.945a24.976 24.976 0 0 0 5.595 1.45c3.03.42 9.86.637 15.185-1.818a19.08 19.08 0 0 0 4.545-2.933l.035.054c-.125-.269-.259-.536-.373-.805.167.092.281.118.281.118s7.085 7.242 18.383 6.306c11.299-.937 17.908-9.262 17.908-9.262l.485 1.646s1.791-1.501 3.583-4.65c2.601-4.57 2.953-8.758 2.978-10.436.05.281.073.577.073.577l.513 2.76c-.003-.123-.003-.253-.007-.373.077.472.142.94.199 1.405l.104.562s.001.153-.006.418c.67 7.312-1.267 13.69-5.613 18.213l-.226.234c1.905 1.297 4.695 3.758 6.74 7.906.258.437.513.889.765 1.357.487.788.861 1.526 1.13 2.23 2.023 4.439 3.573 8.436 4.583 11.116-.385 1.205-.584 2-.547 2.66l.01.165.093.135c.113.16.336.328.622.49.017-.03.034-.056.05-.086.03.06.074.113.11.17.473.247 1.08.472 1.658.63.791-.06 1.365.031 2.168-.042a.79.79 0 0 0 .214-.311c1.62-4.267 3.936-9.182 6.489-14.286.722-1.76 1.643-3.58 2.655-5.315l.037.014a1488.54 1488.54 0 0 1 2.426-4.696c.438-.844.875-1.686 1.308-2.526-.056-.164-.26-.487-.482-.78-.732-.962-2.427-3.32-3.498-5.837-.388-.913-.7-1.795-.943-2.647.01.067.016.131.027.199a40.29 40.29 0 0 1-.796-1.411l-.645-1.208-.414 1.306c-.782 2.474-1.543 5.244-2.347 8.176-1.51 5.51-3.224 11.754-5.567 17.724l-.112.315c-2.988-8.99-.228-30.75 1.704-38.227.973-3.766-2.787-9.847-6.91-13.162-4.502-3.622-8.418-5.243-13.097-5.416a33.45 33.45 0 0 0-1.245-.023c-10.016 0-18.108 4.559-22.38 7.589 8.39-8.435 18.246-9.428 22.403-9.428.817 0 1.617.036 2.381.105 5.319.48 9.85 2.31 13.853 5.594 5.454 4.476 8.842 11.758 8.01 14.805-.115.423-.237.863-.367 1.322-1.298 4.644-3.076 11.005-3.393 22.386-.062 2.18.015 3.82.232 4.877l1.12.042c.975-3.4 1.913-7.579 2.905-12.003 1.478-6.588 3.005-13.401 4.944-19.093.36-1.243.733-2.465 1.12-3.661a9.342 9.342 0 0 1 .988-2.084l.25-.4-.344-.326c-2.98-2.802-6.969-6.876-12.193-12.456-4.884-5.217-12.423-8.208-20.685-8.208a35.39 35.39 0 0 0-9.208 1.238 49.652 49.652 0 0 0-3.837 1.2c-6.195 2.87-11.591 6.791-15.598 11.417a59.25 59.25 0 0 0-2.326 3.285c-1.955 2.949-3.543 6.606-4.358 10.035a58.33 58.33 0 0 0-.64 3.068c-.036.446-.063.894-.074 1.345-.023.229-.042.454-.058.68l-.227.226a39.56 39.56 0 0 0-.273 2.646l-.014-.036M190.14 114.668l-.25.03-.17.205c-.237.327-.65.814-1.277 1.331.02.116.032.212.106.219 1.196.09 2.196-.011 3.142-.349a7.89 7.89 0 0 0 1.253-1.944l.035-.079.028-.068-1.163.302c-.815.21-1.511.33-1.704.353M163.413 56.31c-3.685-10.573-10.04-13.89-19.31-17.745a159.354 159.354 0 0 1-8.033-3.608c-1.556-.743-1.895-.901-2.172-.901h-.112l-.129.047c-.585.239-.61 1.021-.585 1.802l.006.22.152.16c1.385 1.462 4.285 3.165 7.643 5.137 5.243 3.078 11.768 6.91 14.861 11.274 2.499 3.524 6.482 13.642 8.634 19.358 1.22 2.941 2.486 4.808 3.201 5.518l.148.146.204.02.491.046.314.029c.159-.028.303-.055.423-.082l-.115-.626c-.018-.098-1.842-9.96-5.621-20.795" fill="#FDDD04"/><path d="m103.432 93.688-.002.006c.268.459.304.516.002-.006M60.053 107.055c11.299-.937 17.908-9.262 17.908-9.262l.485 1.646s1.791-1.501 3.583-4.65c3.374-5.927 2.963-11.22 2.963-11.22s-.315-.6-.425-1.08a7.967 7.967 0 0 1-.087-.544c-5.285 15.634-17.633 18.46-17.633 18.46l.836-4.1c-3.347 2.236-8.04 3.79-11.722 3.31-8.736-1.14-10.813-6.488-10.66-11.657.09-3.055 2.275-6.801 2.275-6.801l-.173-.26c-2.03 1.815-6.27 7.875-7.267 14.16-.139.87-.182 1.598-.168 2.224-10.068 9.326-25.23 5.596-30.659 2.507.108.473.459.85.459.85 2.208 1.778 5.926 4.74 12.229 5.496 3.038.364 9.86.636 15.185-1.82a19.073 19.073 0 0 0 4.867-3.21c1.59 1.434 8.21 6.763 18.004 5.95" fill="#D6A808"/><path d="M87.55 117.412c.486.788.86 1.526 1.128 2.23a171.963 171.963 0 0 1 4.092 9.822l.746 1.727.134.262c.21-.698.504-1.57.882-2.703-.105-.247-.21-.495-.335-.77-2.475-5.42-4.923-14.089-5.338-18.485a38.836 38.836 0 0 1-.177-3.573l-3.078 1.54-.145-.102c1.942-2.238 3.306-8.163 2.67-13.206-.639-5.042-2.72-10.393-2.72-10.393l-.214.794c.26 1.136.423 2.364.513 3.625.025.182.055.365.077.547l.104.557s.001.15-.006.416c.67 7.312-1.266 13.692-5.613 18.215l-.504.524.626.372c2.432 1.445 4.907 4.42 7.157 8.601M121.47 107.928s-2.634-1.59-6.081-3.99c-.016.043-.033.086-.048.13-.139.408-.31.408-.394.408a.822.822 0 0 1-.348-.093l-1.244-.685.407 1.355c.057.188.12.372.182.549.121.352.287.833.236.984l-.22.662.691.093c1.633.22 4.316.683 4.316.683l2.503-.096M110.627 107.621c-.141-.225-1.882-2.252-3.254-4.825-3.163 9.706-7.61 19.432-11.255 28.955-.287.75-2.729 2.009-3.08 2.188.036.029.075.058.117.087l2.504.994c.347.075.669.12.923.12.696 0 .96-.31 1.058-.571 2.666-7.02 7.211-15.797 11.607-24.283.463-.891.923-1.78 1.38-2.665M96.97 114.019l1.12.042c.974-3.4 1.912-7.579 2.904-12.003.66-2.94 1.331-5.92 2.042-8.829a7481.72 7481.72 0 0 1-3.19-5.452c-1.26 4.557-2.815 10.793-3.109 21.365-.062 2.18.015 3.82.232 4.877M99.552 159.194l-.103 1.554 1.09-1.112c2.13-2.172 4.863-5.1 6.2-6.78l.067-.058.057-.054.055-.05.042-.063c.897-1.384 1.767-2.97 2.687-4.648l.046-.085c.271-.493.777-1.592 1.478-3.11 1.387-3.008 3.485-7.554 5.634-11.457.796-1.447 1.661-2.97 2.572-4.528.262-.52.517-1.017.799-1.545 3.03-5.644 7.862-13.014 13.152-18.487.426-.441 2.135-1.778 2.135-1.778s.43-1.493.715-2.247c.191-.502.4-.984.62-1.455-.082.05-.16.092-.243.148-6.134 4.134-10.029 7.138-12.726 9.779-3.428 3.355-4.88 6.017-6.062 8.493-4.62 9.678-8.453 19.147-12.072 26.887-1.477 3.158-3.783 5.17-5.742 7.384l-.028.036c-.01.308-.032.612-.074.904-.067.47-.156.913-.263 1.332l.006-.01c-.007.3-.02.62-.042.95M190.14 114.668l-.25.03-.17.205c-.237.327-.65.814-1.277 1.331.02.116.032.212.106.219 1.176.088 2.162-.01 3.092-.333.35-.38.7-.811 1.045-1.453.127-.234.23-.451.313-.653l-1.155.3c-.815.21-1.511.331-1.704.354M177.135 107.587l-.012-.004-.235-.053-.12.246-.643.68c-.39.413-.75.838-1.07 1.261l-.202.266-.204.243-.396.701c-.036.063-.06.124-.093.188-3.372-.922-6.14-.957-11.642-.608-9.625.608-15.597-4.067-17.084-7.874-.893-2.287-.843-3.139-.777-3.576a5.225 5.225 0 0 1-.095-.434c-.784.546-2.142 2.696-2.225 2.825-.189-.09-.338-.083-.432.063-.523-2.606-.314-5.005.253-7.116-6.948-.577-14.247 1.86-14.247 1.86l-.002-.396 7.426-3.57c4.784-1.849 10.372-3.873 12.223-4.006l.68-.05-.064.68c-.042.45-.113 1.013-.233 1.653 5.337-9.212.084-16.718-1.11-18.225l-.053-.075-.014-.023a.48.48 0 0 0-.078-.09l-.023-.023-.02-.022-.111-.131.116.152c-.084-.05-.216-.08-.421-.128-2.093-.465-4.039-.95-5.774-1.436-17.317-4.526-26.294-9.94-35.166-17.206-7.057-5.78-11.365-12.47-13.312-15.96a.631.631 0 0 1 .031-.623.673.673 0 0 1 .454-.317c1.082 1.464 3.932 4.43 11.056 10.432-.208-.124-.42-.238-.627-.366 2.597 2.483 7.207 6.142 12.263 9.263 10.797 6.665 21.176 9.603 26.377 10.76 1.48.354 2.33.506 2.33.506-.18-.937-1.043-1.915-1.524-2.4h.17c6.953 4.266 10.616 12.797 10.124 17.805-.237 2.404-1.27 4.54-2.397 6.255.937-.215 1.858-.237 2.655-.087.016.044.019.111.03.17 0 0-1.312.519-2.319 1.432-1.612 1.46-3.142 3.92-2.538 6.787a9.943 9.943 0 0 0 2.703 5.01c1.94 1.737 4.458 3.094 7.281 3.882 4.53 1.266 10.895 1.934 15.202-1.166 1.998-1.439 2.374-3.128 2.53-4.154-2.188 1.382-8.659 1.968-13.725-1.19-3.755-2.34-4.643-5.2-4.071-8.68.578-3.518 2.679-5.093 4.15-5.816 1.796-.016 3.96.414 4.216.619.255.204.445.579.571 1.072l.187.737-.76-.017-.064-.001c-.642 0-1.13.213-1.43.391-1.262.753-2.124 1.998-2.423 3.507-.355 1.776.118 3.655 1.334 5.29 1.893 2.548 5.468 3.45 7.954 3.45 1.577 0 2.966-.325 3.91-.914l.067-.043.078-.023c.397-.116.912-.14 1.273-.14.444 0 1.88.047 3.189.598 0 0 3.394 2.296 4.277 3.561.634.907 2.051 2.72 2.967 3.857.654.572 1.26 1.45 1.396 1.827.686 1.413 1.278 3.26 1.142 5.272l-.012.166-.097.133a8.896 8.896 0 0 1-1.596 1.683c-.007-.008-.012-.016-.021-.023-.578-8.97-6.61-8.661-8.364-8.201-.233.06-1.01.381-1.067.427l-1.722-.543" fill="#D6A808"/><path d="m38.957 93.046.235-.142s.764-11.335 7.417-19.903c4.888-6.295 9.34-9.284 16.5-12.082 9.438-3.686 22.9-3.083 30.235 4.155 6.216 6.134 10.69 10.539 13.92 13.667a9.84 9.84 0 0 1 .782-1.521l.25-.4-.344-.326c-2.98-2.802-6.969-6.876-12.193-12.456-4.884-5.217-12.423-8.208-20.685-8.208a35.39 35.39 0 0 0-9.208 1.238c-10.977 2.965-16.373 7.987-21.218 15.094-2.515 4.22-4.12 8.464-4.955 11.363-1.555 5.396-.736 9.521-.736 9.521" fill="#FCFAA8"/><path d="m50.942 77.412.378.067s12.959-9.001 25.44-8.128c11.447.8 19.218 11.282 18.113 16.636-2.89 14.004-4.224 35.045.887 39.113-.027-.807-.045-1.426-.054-1.748-2.08-6.628-1.215-19.738.15-29.267.246-2.31.583-4.404 1.036-6.11.2-.988.4-1.868.59-2.605.973-3.766-2.787-9.847-6.91-13.162-4.502-3.622-8.418-5.243-13.097-5.416a33.45 33.45 0 0 0-1.245-.023c-10.016 0-18.108 4.559-22.38 7.589.114-.116.231-.225.347-.338-1.256 1.04-2.365 2.172-3.255 3.392M104.195 96.147l-.39 1.235c-.783 2.474-1.544 5.244-2.348 8.176-1.24 4.519-2.62 9.53-4.368 14.481-.78 3.137-1.288 5.238-1.288 5.238l.744-.93s4.526-9.139 9.237-25.129c-.594-1.21-1.062-2.013-1.587-3.07M188.6 100.362l.67.013c-.194-.44-.733-1.569-1.573-1.96l-.979-.566.144-1.122a2.997 2.997 0 0 0-.085-1.14c-.01-.038-.03-.088-.043-.131-.514-1.073-1.634-2.852-2.945-4.804-1.409-1.713-3.086-3.535-4.668-5.174-3.49-3.616-7.735-5.597-12.614-5.888a18.049 18.049 0 0 0-4.151.233c.518-.483 1.117-.999 1.69-1.405l.412-.29-.233-.447-.063-.123-.068-.131c-.298-.592-.672-1.366-1.103-2.265-1.89-3.931-4.747-9.873-8.02-14.372-3.91-5.376-8.896-11.016-16.245-12.093-8.514-1.241-18.602-3.296-23.774-4.597-3.222-.812-11.83-3.178-22.146-7.608l-.11-.048h-.126a.647.647 0 0 0-.485.231c6.086 4.905 15.512 8.856 23.086 10.734 4.67 1.159 9.871 2.234 13.986 2.872 6.401.992 11.4 1.339 13.85 2.667 10.46 5.67 18.211 24.362 18.906 26.84-.49.291-.934.613-1.264.943-.505.502-.76.945-.76.945l.049.065s.99-.323 2.878-.375c4.933-.134 9.056 1.502 12.196 3.973 3.142 2.47 8.628 8.866 9.21 9.613.575.746.647.929.575 1.023-.224.061-.955.572-1.285 1.157.044.032.054.057.072.088 1.794.308 2.876 1.63 3.185 2.25-.449.025-1.134.313-1.436.45-.056.023-.068.08 0 .096 1.041.184 2.76 1.441 4.22 4.045 1.792 3.194 1.58 6.226 1.639 6.771-.331-.205-.058-.021.41.289.24-.066.553-.218.951-.465l.298-.184-.027-.35a17.815 17.815 0 0 0-.042-.464 29.167 29.167 0 0 0-.245-1.088c-.266-.899-.684-2.896-1.432-4.56a27.045 27.045 0 0 0-.886-1.832c-.465-.68-.999-1.302-1.618-1.816" fill="#FCFAA8"/><path d="M97.943 157.89c-2.11 1.438-5.23 2.869-6.72 2.535-2.038-.456-5.061-2.151-6.325-2.895-1.069 1.301-1.366 2.849-1.213 3.665.187.995 4.68 4.644 7.88 4.002 3.753-.754 7.475-2.592 8.286-8.275.042-.292.065-.596.074-.904-.305.379-1.044 1.23-1.982 1.871" fill="#C9D9F2"/><path d="M93.687 165.903a1.942 1.942 0 0 1-.495-.344c-.959.567-3 1.142-4.305.938-5.25-.82-7.292-4.814-7.292-4.814.026-.136-.718 1.564-.683 2.192.013.221.265.556.669.937-.344 1.143-.476 2.318-.439 2.755.079.932 4.11 2.73 7.05 2.448 3.246-.31 2.379-1.44.972-1.87.026-.002.055.001.081-.001 1.418-.112 3.147-1.263 4.442-2.24M38.421 111.205c3.305-1.548 5.18-3.585 6.003-4.664l.266-.347-.263-.35a24.838 24.838 0 0 1-1.129-1.633c-6.533 6.542-14.711 6.133-14.711 6.133l-1.37 2.664.648.121c.431.08.967.12 1.591.12 2.222 0 5.742-.537 8.965-2.044M84.58 96.202c.398-1.425.694-2.925.857-4.518.15-1.48.184-2.83.155-4.03a23.807 23.807 0 0 0-.594-3.973c.005.121.012.344.007.664.051.284.075.585.075.585l.088 4.17s-.942 8.726-8.608 14.273c-5.429 3.928-11.537 5.676-16.297 5.676-7.496 0-13.43-2.534-16.883-6.112a12.43 12.43 0 0 1-1.659-2.138l-.05-.05s-.097-.021-.244-.096c.108.347.262.706.503 1.088.44.701.924 1.37 1.434 2.02 2.26 2.691 4.992 4.841 8.042 6.265 3.078 1.435 6.608 2.193 10.208 2.193 2.239 0 4.474-.288 6.647-.856 3.938-1.03 7.233-2.682 9.864-4.905a23.668 23.668 0 0 0 6.455-10.256M112.716 103.557l-.168-.276c-.63-1.03-1.043-1.785-1.311-2.337.9.271 1.554.322 1.92.322.225 0 .343-.018.343-.018l.36-.058.11-.352c.01-.036 1.031-3.475 3.57-6.42 1.636-1.899 3.967-3.57 5.36-4.568 1.263-.906 1.49-1.069 1.447-1.5v-.008c-1.978-.222-6.875-.624-9.87.381-3.439 1.154-6.064 7.927-7.115 14.102a34.666 34.666 0 0 0 3.16 4.997c.69-1.335 1.376-2.664 2.047-3.976l.147-.289M112.29 81.716c-.042.05-.142.169-.273.336a15.784 15.784 0 0 1 5.443-.987c2.257 0 4.363.507 6.096 1.468l.335.185.301-.236c1.088-.858 1.293-1.19 1.304-1.536.002-.093.005-.233-.142-.737-1.02-.31-3.887-1.098-6.66-1.063-3.496.044-5.183 1.176-6.403 2.57M150.229 118.542c.39-.211.804-.43 1.237-.653l.196-.107.153-.083 1.565-.851-1.767-.229a15.118 15.118 0 0 1-1.51-.273.955.955 0 0 1-.04.025c-4.451 2.57-15.065 6.875-21.796 3.028-.213.806-.395 1.57-.546 2.243l-.12.523.514.156c1.845.56 3.826.844 5.887.844 4.872 0 10.18-1.512 16.227-4.623M173.475 114.427l-.03-.659a4.145 4.145 0 0 1 .142-1.218c-2.715-1.589-7.35-1.054-11.098-.655a36.43 36.43 0 0 1-11.112-.556c-3.968-.82-5.6-3.622-5.6-3.622-.658.754-1.116 1.451-1.273 2.075.3.474.703.998 1.25 1.564 1.758 1.82 4.96 2.704 9.783 2.704 2.777 0 5.601-.288 7.87-.518 1.339-.137 2.495-.255 3.29-.277.164-.003.325-.005.483-.005 2.626 0 4.41.576 5.443 1.06l.614.286.088-.01s.06-.066.15-.17M185.678 119.549a11.648 11.648 0 0 0 4.335-1.81c-.643-.23-1.04-.977-1.12-1.231-.02-.058-.08-.072-.18-.03a6.544 6.544 0 0 1-.176-.322c-.961.815-2.47 1.721-4.723 2.21a9.55 9.55 0 0 1-2.955.495c.238.35 2.488.708 2.488.708.77.136 1.63.112 2.331-.02" fill="#C9D9F2"/><path d="m180.396 118.438.065-.002c3.357-.11 6.005-.98 7.92-2.576-.065-.114-.12-.19-.161-.187-1.22.178-4.675.564-7.738-.195-3.206-.793-3.626-4.522-.65-6.774-.607-.184-1.357-.907-1.357-.907s-.316-.388-.38-.525c0 0-5.147 4.39-2.269 8.837.895 1.386 2.55 2.089 4.286 2.334h.008c.095 0 .188 0 .276-.005M174.044 99.308a5.574 5.574 0 0 0 1.782-.849c.178-.156.354-.333.536-.536.01-.008.021-.023.031-.034l-.009-.18-.004-.117a3.786 3.786 0 0 0-.052-.313l-.167.19c-1.853 2.054-6.007 1.738-8.128-.39-2.12-2.124-1.781-5.276.376-6.975.852-.67 1.627-.678 2.22-.45.017.007.042.021.06.029-.728-.497-1.51-.96-2.35-1.379l-.217-.108-.229.079a2.834 2.834 0 0 0-.825.471c-1.321 1.041-2.135 2.573-2.233 4.204-.098 1.65.526 3.239 1.757 4.473.455.457.995.845 1.587 1.166 1.147.54 2.444.882 3.631.88.948-.002 1.66-.05 2.234-.161" fill="#C9D9F2"/><path d="M191.362 110.583s-.037.12-2.33-2.616c-1.27-1.519-2.28-2.009-2.28-2.009l-.09.328s3.056 3.476 2.776 7.62c-2.752 3.804-7.705 3.91-9.063 3.956-1.354.047-3.958-.228-5.11-3.243-.489-1.277-.241-2.493.303-3.633l2.53.478s.63-.347 1.017-.986c.386-.64-1.153-.682-1.153-.682l-1.585-.202c.106-.158.213-.315.323-.47.157-.222.32-.426.483-.622l2.337.7s.391-.268.847-.861c.453-.596-.868-.806-.868-.806l-1.102-.252c1.353-1.135 2.55-1.502 2.55-1.502l-.102-.119s-2.047.182-3.829 1.305l-13.646-3.122s-.635.339-.41.401c.155.043 7.905 2.364 12.746 3.814-.39.414-.767.853-1.11 1.309l-14.918-1.891s-.689.391-.457.428c.159.024 9.005 1.694 14.53 2.737-.582 1.03-.933 2.106-.883 3.153-1.267-.593-3.272-1.182-6.187-1.107-4.025.106-16.36 2.561-20.511-1.734-2.195-2.27-1.9-3.75-1.9-3.75s-.544.512-.879.91c-.938-2.8-.827-6.61 1.277-9.081l.342-1.218c-2.906 2.372-7.073 6.47-2.822 15.111 0 0 .215-.716.68-1.463 2.038 3.84 5.229 5.283 8.67 5.728l-.337.183c-.436.227-.852.446-1.236.653-5.5 2.83-13.84 6.123-21.682 3.741.393-1.737.899-3.742 1.613-5.625 1.35-3.553 3.429-6.415 5.432-8.58.155-.67.347-1.348.577-2.031-6.472 5.564-12.603 14.684-16.237 21.453a57.675 57.675 0 0 0-.79 1.524 201.354 201.354 0 0 0-2.579 4.543c-3.222 5.853-6.32 13.126-7.112 14.568-.945 1.723-1.81 3.307-2.711 4.696l-.156.142c-1.28 1.614-4 4.537-6.192 6.772a22.472 22.472 0 0 0-.028-3.413s-.159.202-.159.173c-1.088 3.062-4.073 8.13-7.977 8.401-4.283.298-7.62-3.09-7.719-4.147-.06-.642 1.056-2.455 1.16-2.678.016-.033.17-.075.425-.127 1.174-.105 4.299-.273 6.892-1.288 3.01-.967 4.41-2.379 4.653-2.525.245-.147 1.772-.173 2.54.26.23-.447 2.876-5.202 3.545-7.31.598-1.728 4.834-18.74 7.292-30.757.679-2.86 1.776-5.99 2.732-6.42 2.893-.678 7.372-.932 7.55-.987.255-.072.46-.485.46-.485s-3.047-.661-6.767-1.159c.148-.443-.182-1.13-.412-1.884 0 0 1.134.658 1.572-.633a24.28 24.28 0 0 1 3.524-6.71c2.81-3.798 7.898-6.066 7.6-7.312l-.011-.043c2.285 1.207 4.607 1.558 6.258 1.62-2.665 1.855-5.353 3.747-5.353 3.747v.327s16.37-6.784 19.694-7.023c-.212 2.26-.845 4.008-.923 4.244-.12.368.218.075.218.075 7.92-10.488 1.895-19.292.39-21.195l-.037-.054a1.115 1.115 0 0 0-.165-.197 16.92 16.92 0 0 0-.116-.134c-.014.004-.017.024-.025.036-.16-.096-.343-.14-.589-.196-1.94-.43-3.924-.917-5.753-1.43-18.112-4.734-26.764-10.393-34.946-17.096-7.048-5.771-11.27-12.38-13.166-15.777-.017-.032.046-.122.09-.112 8.83 3.791 16.949 6.306 22.234 7.637 5.328 1.342 15.435 3.385 23.83 4.61 6.836 1 11.702 6.136 15.864 11.86 4.012 5.516 7.493 13.43 9.078 16.563l.13.255c-1.274.9-2.632 2.29-3.064 2.783-.007.083.049.088.049.088s2.4-.85 5.775-.651c3.666.217 8.122 1.453 12.233 5.712 3.648 3.781 8.275 9.148 7.781 10.517-.012.034-.011.062-.018.093l-.009-.002s-1.127-.206-2.081.491c.045.04.053.061.097.096 0 0 2.75.005 4.041 2.71-.443-.009-1.16.06-1.431.175-.052.008-.007.068.04.106h-.002l.01.007.014.008c3.483 1.826 4.87 7.015 5.101 10.085-.688.427-.887.418-.887.418Zm-6.351 8.828c-.657.075-1.772.119-2.544-.231 4.802-.572 6.996-2.939 7.72-3.939h.021c.216-.026.931-.149 1.78-.368-1.608 3.546-5.219 4.333-6.977 4.538ZM90.685 167.43c-.816.257-2.376.006-3.197-.16-3.74-.754-6.295-3.306-6.181-3.943.114-.634.533-1.776.667-1.984.058-.09.343-.145.739-.178 1.95 3.251 6.496 5.21 10.197 4.635-.97.883-1.888 1.523-2.225 1.63Zm-3.434 2.18c-.024-.001-.023.005-.012.014-2.841-.263-5.32-1.734-5.24-2.194.027-.152.158-.52.33-.961 1.529.968 3.385 1.82 5.12 2.194a6.497 6.497 0 0 0 2.092.11c-.553.556-1.39.931-2.29.838Zm9.85-35.246c-.246.647-3.432-.44-3.81-.978-.033-.58.168-1.363.581-2.644-1.001-2.664-2.577-6.749-4.655-11.306a13.61 13.61 0 0 0-1.159-2.297c-1.652-3.07-4.19-6.934-7.373-8.824 5.766-6 6.824-14.328 5.265-22.23-.548-2.78-1.374-4.752-1.374-4.752l-.235.882s1.09 3.857.522 9.411c-.93 9.107-6.054 16.384-16.748 19.179-5.616 1.467-11.556.987-16.464-1.303-5.167-2.41-9.219-6.805-11.678-12.204-.068.034-.22.164-.22.164s.158.744.268 1.087a25.883 25.883 0 0 0 3.944 7.643c-.924 1.208-2.758 3.07-5.788 4.49-3.954 1.849-8.405 2.214-10.206 1.88a3920.75 3920.75 0 0 1 2.194-3.845l-.279-.02s-5.984 1.323-8.702 1.379c-2.952-1.468-6.952-4.144-11.316-10.01 0 0-.154-.336.217-.296.314.033 16.268 4.375 28.158-7.787.295.777.576 1.164.576 1.164l.183-.138s-.186-3.574 1.308-9.87c.699-2.947 2.114-6.588 4.275-9.85 4.76-7.19 9.966-12.567 21.431-15.663 11.683-3.154 23.007.062 29.322 6.806 5.664 6.05 9.467 9.895 12.218 12.482a9.95 9.95 0 0 0-1.048 2.213c-.442 1.37-.812 2.598-1.115 3.651-3.28 9.628-5.465 22.78-7.859 31.124-.181-.884-.288-2.351-.22-4.745.347-12.468 2.498-19.014 3.741-23.571.932-3.417-2.742-10.923-8.202-15.403-5.002-4.104-10.127-5.359-14.167-5.724-6.79-.613-19.145 1.14-28.199 12.864l.455.09S61.936 66.79 77.454 67.368c4.14.153 7.919 1.396 12.756 5.288 4.155 3.342 7.57 9.256 6.714 12.569-1.95 7.543-5.1 31.366-1.193 39.826v.008l.002-.003c.009.02.07.19.07.19l.625-1.753c3.591-9.153 5.667-18.789 7.926-25.937a52.989 52.989 0 0 0 2.295 3.816c.022-.088.075-.155.088-.207-1.081-4.601-2.224-12.703 3.905-16.978 4.428-3.09 11.99-1.39 12.449-.541.458.849.643 4.396.683 4.761.028.289-4.113 2.664-6.672 5.634-2.658 3.082-3.686 6.634-3.686 6.634s-1.165.17-3.183-.72c.193.82.982 2.254 1.822 3.627-5.366 10.507-11.601 21.95-14.954 30.781Zm16.322-56.922c5.366-1.929 10.134-.488 10.481.415.345.897 1.028 2.7 1.015 3.071-.006.19-.453.604-1.085 1.1-4.666-2.588-11.326-1.773-15.604 1.387.707-2.528 2.212-4.902 5.193-5.973Zm-2.633-1.1a8.98 8.98 0 0 1 2.112-1.701c4.026-2.31 8.628-1.362 8.9-.661.089.23.19.71.286 1.263-2.76-.612-5.7-.525-9.01.616-1.05.36-2.042.9-2.961 1.562.217-.448.47-.819.673-1.08Zm23.085-41.704c.242-.098 3.56 1.78 10.006 4.46 9.045 3.76 15.375 7.042 18.987 17.402 3.808 10.918 5.598 20.708 5.598 20.708l-.49-.046c-.451-.447-1.713-2.043-3.067-5.311-2.328-6.181-6.208-15.968-8.704-19.49-5.128-7.236-19.086-12.81-22.556-16.474-.022-.691.028-1.169.226-1.25Zm60.913 75.247a.71.71 0 0 0-.285-.275c-.404-2.19-1.417-5.763-3.669-9.876-.938-1.712-1.684-2.44-2.285-2.79a4.711 4.711 0 0 0-.128-1.782c-.527-2.03-4.136-7.254-7.405-11.027-2.45-2.828-4.712-5.252-8.1-6.148-.275-.12-.72-.366-.833-.76-.28-.97-3.737-12.72-5.941-19.998-1.773-5.85-3.284-8.66-6.035-12.068-3.435-4.256-8.905-6.22-16.438-9.364-8.354-3.487-10.376-5.678-11.888-5.245-1.327.377-1.558 3.458-1.68 6.807-.109 2.93.227 5.096.628 6.617-.008.138-.006.264-.006.392-6.295-1.013-13.196-2.226-18.683-3.993-8.845-2.847-14.182-5.152-23.097-8.948-.66-.282-1.305-.701-1.803-.183-.502.518-.466 1.643.138 2.888.606 1.245 5.08 11.385 16.646 21.433 8.62 7.484 19.59 13.702 36.443 17.862 1.052.26 2.416.571 3.718.865 2.152 2.038 3.074 4.513 3.476 6.494l-.843 3.433s-6.698 3.013-8.675 4.304l-.05.033a14.145 14.145 0 0 1-7.259-1.207c-.227-1.425-.527-2.698-.81-2.88a8.535 8.535 0 0 0-.944-.518c-.132-1.303-.303-2.723-.55-2.868-.728-.434-1.16-.697-1.506-.884-.471-1.845-1.076-3.687-1.477-3.86a20.37 20.37 0 0 0-.911-.363c-.328-1.452-.78-3.057-1.052-3.25-2.944-2.096-9.273-1.804-13.46 1.464-2.138-1.965-4.275-4.073-6.136-6.144-4.635-5.155-7.067-8.951-8.969-13.091-.093.138-.468.81-.67 1.48-.2.67-.273 1.096-.273 1.096s-2.531-2.163-7.081-3.61c-5.117-1.63-13.642-2.614-23.397.613-15.724 5.202-25.714 19.912-25.895 33.045-5.46 6.656-15.514 12.005-32.265 9.3 0 0-.35.027-.246.589.197 1.098 4.651 8.601 11.324 13.214 1.943 1.343 4.205 2.485 5.08 2.81 1.018-.23 4.027-.99 4.027-.99s-1.22 2.113-1.343 2.359c8.93 1.796 17.405-1.12 22.846-5.325.816.762 2.057 1.774 3.762 2.777.8.47 1.713.939 2.72 1.378.157.069.312.142.47.206.003.003.007.004.01.005a24.293 24.293 0 0 0 5.668 1.594c.52.085 1.055.16 1.608.218 3.421.364 7.445.153 12.18-.827 4.755-.984 7.39-.465 10.133 2.636 3.883 4.97 4.822 12.48 4.888 13.041l-.007.091 1.924-1.292c.017 2.602.095 5.604.17 6.378.126 1.315 5.07 2.772 6.233 2.866.055.02.104.032.146.033 1.175.045 5.454-1.831 6.485-2.277-1.193 5.281-2.127 9.41-2.247 9.99-.335 1.62-2.235 4.643-2.235 4.643s-1.9-.44-2.874.438l-.048.047-.022-.02s-1.839 1.77-5.07 2.708c-3.035.88-6.332.568-6.757 1.313-.268.472-.953 1.716-1.458 2.916-.77-.02-1.35.02-1.545.275-.371.481-2.085 4.787-1.772 5.247.23.34.569.707.983 1.083-.363 1.204-.699 2.806-.653 2.931.944 2.662 8.53 4.178 11.014 2.919 1.153-.586 3.294-2.39 5.592-4.486.376-.093.75-.222 1.13-.4 2.787-1.3 8.165-4.862 9.852-6.522 2.588-2.1 4.17-5.967 4.84-7.122 3.916-5.97 17.917-21.486 22.287-26.286 3.128-.522 6.787-1.447 11.015-2.974-.286 1.17-.333 2.355.38 2.937.932-1.895 4.925-5.598 12.951-8.257 3.7-1.225 11.624-1.02 20.204 2.045.554.198 1 .274 1.373.271 1.48.855 3.545 1.38 5.585.993 3.373-.642 5.497-2.133 6.91-3.691 1.266-1.396 1.823-2.794 2.063-3.648.15-.1.29-.205.407-.315.535-.503-.176-2.862-.533-3.513Z" fill="#2154AC"/><path d="M140.699 56.225c-5.354-1.577-25.913-1.426-40.27-12.066-.083-.023-.086-.017-.19.151.84 1.835 7.523 7.596 14.61 11.97 15.556 9.603 30.067 11.498 30.067 11.498-.056-.174-.787-1.375-1.56-2.543.035.006.14-.02.165-.013 9.87 4.394 11.12 14.122 11.208 17.818l.548-.53c.376-6.833-2.61-21.148-14.578-26.285M167 97.015c-2.375-2.38-1.995-5.912.426-7.816a2.24 2.24 0 0 1 .655-.378c1.445.718 2.622 1.506 3.579 2.307-.736-.028-1.452.162-2.032.563.112.016.223.04.326.099.5.282.654.963.34 1.522-.317.56-.979.786-1.478.503a.946.946 0 0 1-.369-.41c-.353 1.39.309 2.959 1.716 3.781 1.676.98 3.763.532 4.656-1.001.131-.223.225-.458.293-.698.591 1.264.691 2.13.691 2.13l.005.116c-2.194 1.977-6.535 1.563-8.808-.718Zm14.456 2.36c-.168-.047-.572-.16-1.096-.282 1.703-.336 2.979-1.541 2.979-1.541s-.015-.13-.168-.22c0 0-1.339.186-4.396-1.307-2.305-1.128-6.31-6.594-8.65-8.939-3.494-3.497-7.966-2.2-7.966-2.2l.338.344s3.44-.145 3.86 1.506a3.364 3.364 0 0 0-1.802.472c-2.983 1.779-3.906 6.073-1.257 9.636 2.86 3.851 9.609 4.571 12.633 2.681.796-.231 2.993-.166 4.485.628 1.54.814 3.817 3.048 4.176 3.428.079.083.366.01.366.01s-2.798-4.018-3.502-4.216Z" fill="#2154AC"/><path d="M89.33 144.402v.94c.323-.046.561-.267.561-.528a.405.405 0 0 0-.207-.353.603.603 0 0 0-.302-.059h-.052Zm0 1.737c0 .217-.036.454.219.583v.013H88.15v-.013c.254-.13.218-.366.218-.583v-1.545c0-.216.036-.454-.218-.583v-.013h1.538c.255 0 .463-.003.696.096.306.133.463.354.463.633 0 .31-.276.54-.618.656l.618.827c.14.188.29.362.499.5l-.717.037c-.349.017-.515-.021-.697-.278l-.603-.907v.577Z" fill="#FFF"/><path d="M87.358 145.375a2.168 2.168 0 0 0 2.165 2.163 2.168 2.168 0 0 0 2.164-2.163 2.168 2.168 0 0 0-2.164-2.166 2.169 2.169 0 0 0-2.165 2.166Zm-.577 0a2.74 2.74 0 1 1 5.482 0 2.741 2.741 0 0 1-5.482 0Z" fill="#FFF"/></g></svg>