<svg width="200" height="200" xmlns="http://www.w3.org/2000/svg"><g fill="none" fill-rule="evenodd"><path d="m199.8 103.151-.003-.026-.003-.027c-.017-.147-.44-3.657-3.211-7.495-2.374-3.288-7.004-7.483-15.658-9.286-1.491-5.328-9.651-23.119-52.889-31.106l-.029-.004-.026-.005c-.47-.073-47.18-7.399-76.458-16.05l-.025-.007-.027-.006c-6.054-1.62-17.602-7.056-24.405-16.918.053 6.357 6.04 22.361 17.845 35.365-5.212.257-13.838 1.08-21.237 3.707l-5.666 2.009 5.732 1.815c.195.062 17.037 5.448 29.432 13.394-2.077.068-4.55.254-7.317.66-7.577 1.108-18.884 4.147-29.729 12.32l-5.44 4.456a106.69 106.69 0 0 1-3.872-.626L0 94.089l5.085 4.698c7.048 6.514 24.384 21.178 41.698 25.49-6.892 5.294-21.458 17.502-28.116 30.71l-3.118 6.189 5.954-3.549c.154-.092 11.172-6.602 23.732-11.052v3.894h5.91a49.041 49.041 0 0 0-5.698 21.4l-.196 5.91 3.77-4.559c.04-.05 4.234-5.085 11.846-11.08 6.971-5.493 18.318-12.933 32.843-17.274 8.293-.815 23.153-3.832 32.08-14.777 3.571-.996 22.499-6.1 39.601-7.354 2.182 1.242 9.474 4.412 20.981-.09l1.061 6.959 2.302-.82c.451-.159 10.265-3.867 10.265-21.187 0-1.394-.064-2.873-.2-4.446" fill="#FFFFFE"/><path d="M179.239 88.043s-2.386-21.763-51.57-30.848c0 0-46.968-7.318-76.719-16.108 0 0-14.67-3.903-20.646-12.405 0 0 5.885 18.142 19.29 30.814 0 0-14.201-.22-25.245 3.698 0 0 22.742 7.191 35.355 17.531 0 0-22.03-2.949-42.363 12.376 0 0 12.089.536 23.31 3.402-6.068 1.882-17.371 3.846-34.196.802 7.782 7.194 27.092 23.43 45.21 25.874 0 0-22.631 15.722-31.196 32.716 0 0 22.348-13.325 40.322-15.198 0 0-12.67 11.489-13.327 31.239 0 0 16.879-20.465 45.84-29.055 7.58-.724 22.736-3.541 31.325-14.56 0 0 21.773-6.324 41.261-7.648 0 0 7.851 5.716 22.086-.898l1.083 7.109s10.454-3.72 8.731-23.559c0 0-1.395-12.348-18.551-15.282" fill="#1A1919"/><path d="M193.407 101.905c-2.898-5.564-18.652-9.369-18.652-9.369l-1.99-2.857c-4.726.92-8.451 7.758-8.451 7.758-7.503 4.103-15.373 2.839-20.571 5.586-5.202 2.748-9.957 12.052-9.957 12.052 11.714-3.788 20.895-.821 28.722-.156 7.827.667 9.693 1.737 15.571.14 5.878-1.596 8.1-4.141 8.1-4.141-6.987 2.869-10.413-3.483-10.413-3.483-8.543-2.412-33.447 1.073-33.447 1.073 4.605-2.709 23.551-5.79 29.548-5.6 5.998.192 8.625 3.607 8.625 3.607 1.193-4.23 3.264-6.314 4.677-7.537.546.404.992.77 1.27 1.06 1.938 2.027 3.992 3.147 4.534 5.812.542 2.662 1.339 9.09 1.056 12.888 0 0 4.276-11.27 1.378-16.833" fill="#B6B7B6"/><path d="m50.696 148.265.496-2.161h.827v2.75h-.536v-1.86l.002-.225c.002-.096.002-.17.002-.224l-.521 2.309h-.557l-.517-2.309.001.224c.002.097.002.171.002.224v1.861h-.535v-2.75h.836l.5 2.161zm-3.89-2.161h2.227v.487h-.822v2.263h-.579v-2.263h-.826v-.487z" fill="#1A1919"/><path d="M139.186 79.987s8.734-3.586 18.51-.658c9.776 2.928 12.362 5.746 12.362 5.746s-2.14 3.738-6.947 3.464c0 0-5.293-7.422-23.925-8.552" fill="#D02139"/><path d="M86.392 70.963s-27.515-4.89-40.81-5.608c0 0 25.76 12.558 31.517 23.596 0 0-26.412-5.444-40.758.96 0 0 26.72 5.35 32.468 12.976 0 0-23.613 8.216-40.393 3.018 0 0 28.442 19.66 52.436 11.826 0 0-27.681 6.343-41.83 23.84 0 0 32.739-13.571 45.903-8.971 0 0-26.384 12.2-28.672 25.029 0 0 25.602-19.3 37.336-19.6 11.732-.301 26.501-13.048 26.501-13.048s-11.65 4.416-18.07 1.567c0 0 16.513-4.849 25.483-15.837 0 0-9.88-1.692-19.068 1.294 0 0 5.54-11.105 7.966-14.906 0 0-9.413-.852-15.462-7.332 0 0 9.428 3.1 17.037-4.748 0 0-12.933-3.534-22.208-.888 0 0 4.968-3.726 16.407-7.278 0 0-6.168-2.676-8.781-8.853 0 0 9.203 7.559 22.711 4.497 0 0-4.876-2.434-6.738-4.03 0 0 44.161 9.117 50.874 12.877 0 0-16.681-20.561-70.809-21.435-24.029-.39-53.66-12.098-53.66-12.098s18.5 19.521 40.62 23.152" fill="#D02139"/><path d="M156.742 88.54c-1.73-1.085-6.198-2.161-9.587-2.863-1.532 1.501-2.426 3.528-2.278 5.71.286 4.214 4.299 7.375 8.96 7.06 4.271-.291 7.57-3.408 7.877-7.17-1.887-.726-3.315-1.696-4.972-2.737zm-2.946 5.563a2.541 2.541 0 0 1-2.473-1.46l-.007.002a2.15 2.15 0 0 1-2.767-1.913 2.155 2.155 0 0 1 2.004-2.298 2.148 2.148 0 0 1 1.647.618v-.001c.01.008.015.018.024.027.07.072.14.145.2.225.004.004.007.006.009.01.306-.162.648-.27 1.02-.294a2.549 2.549 0 1 1 .343 5.084z" fill="#D02139"/><path d="M152.848 90.44a2.158 2.158 0 0 0-2.295-2.006 2.155 2.155 0 1 0 2.295 2.005" fill="#FFFFFE"/></g></svg>