<svg width="200" height="200" xmlns="http://www.w3.org/2000/svg"><g fill="none" fill-rule="evenodd"><path d="M42.487 135.994c-.052.269-.084.548-.158.82-1.3 4.999-.288 9.497 2.93 13.471 2.647 3.271 6.076 5.543 9.878 7.123 10.589 4.37 21.621 6.941 33.046 7.365 6.47.24 12.983.197 19.435-.273 6.399-.464 12.799-1.342 19.099-2.559 8.513-1.649 16.609-4.639 23.78-9.751 5.047-3.605 9.352-7.91 11.41-13.998 4.274-12.656 8.397-25.361 12.736-37.99.884-2.578 2.189-5.1 3.737-7.335 4.59-6.62 11.072-10.838 18.25-14.07.979-.44 1.98-.833 2.973-1.246a11.87 11.87 0 0 0-.059-.223h-55.58c3.866-11.753 7.691-23.386 11.62-35.327-2.524.405-4.709.712-6.874 1.12-4.886.92-9.626 1.415-14.635-.085-12.55-3.754-25.557-4.743-38.558-5.358-10.903-.516-21.748.385-32.479 2.489-8.552 1.68-17.048 3.584-25.001 7.344-5.868 2.772-11.219 6.26-14.967 11.788-2.761 4.065-3.689 8.876-5.176 13.453-.342 1.055-.488 2.207-.517 3.325-.156 5.42 2.286 9.606 6.375 12.814 2.174 1.707 4.615 3.057 7.038 4.634-5.596-.966-11.012-2.19-15.884-5.514C9.927 102.993 4.994 117.853 0 132.89c3.225-.524 6.208-.887 9.136-1.516 4.217-.906 8.326-.97 12.438.562 1.635.612 3.385.973 5.11 1.291 5.229.957 10.472 1.842 15.802 2.766" fill="#61AEE1"/><path d="M111.659 61.906c-3.285-.423-6.563-.87-9.85-1.26-1.741-.207-3.489-.325-5.235-.466-1.274-.103-2.55-.176-3.824-.265-.287-.107-.568-.273-.862-.316-9.31-1.285-18.643-1.612-27.988-.494-5.584.67-11.014 1.993-16.13 4.456-.802.387-1.324.865-1.57 1.786-.457 1.719-.946 3.446-1.63 5.083-.831 1.988-.074 3.511 1.372 4.546 1.558 1.114 3.32 2.16 5.144 2.622 9.245 2.343 18.545 1.63 27.831.15 8.836.077 17.659.27 26.342 2.218.677.267 1.343.556 2.026.798 4.485 1.582 8.857 3.371 12.243 6.93 2.508 2.636 3.246 5.683 2.025 9.197-1.247 3.58-2.405 7.193-3.654 10.77-1.314 3.762-3.831 6.59-7.271 8.354-7.29 3.736-15.205 5.513-23.162 7.087 1.287-3.911 2.542-7.835 3.9-11.725.147-.434.808-.814 1.307-.969 2.338-.725 4.726-1.311 7.052-2.082.545-.178 1.134-.802 1.338-1.36.931-2.549 1.683-5.167 2.608-7.72.365-1.013.11-1.544-.826-1.776-3.995-.972-7.952-2.391-12.002-2.768-7.826-.726-15.707-.93-23.569-1.222-11.066-.412-21.778-2.565-32.003-6.857-2.461-1.034-4.748-2.757-6.76-4.567-2.8-2.525-3.485-5.891-2.37-9.54.83-2.735 1.64-5.486 2.665-8.15 1.871-4.851 5.656-7.923 9.962-10.41 6.47-3.74 13.558-5.714 20.77-7.3 9.567-2.107 19.22-3.606 29.03-3.455 6.237.092 12.502.276 18.703.921 7.072.733 14.105 1.927 21.122 3.116 2.953.5 5.823 1.494 8.73 2.262-1.664 5.205-3.337 10.41-5.027 15.69-6.768-2.042-13.49-3.415-20.437-3.284" fill="#FFFFFE"/><path d="M111.936 139.712c5.33-.413 10.575-1.155 15.462-3.58.83-.42 1.276-.908 1.566-1.775 4.118-12.407 8.24-24.814 12.427-37.195 1.771-5.235.8-9.69-3.298-13.392-.174-.156-.39-.265-.755-.505.413-.176.558-.293.706-.293 9.918.007 19.84.023 29.758.04-3.175 3.045-5.661 6.536-7.07 10.79-4.298 12.981-8.653 25.941-12.948 38.92-1.03 3.108-2.78 5.701-5.06 7.971-5.733 5.693-12.866 8.717-20.42 10.88-6.926 1.993-14.022 2.985-21.193 3.496-7.913.556-15.823.679-23.727-.03-2.206-.196-4.414-.394-6.623-.586-4.813-.981-9.476-2.42-13.757-4.911-2.903-1.688-5.631-3.743-6.448-7.201-.43-1.829-.446-4.01.123-5.78 4.045-12.581 8.282-25.099 12.499-37.62.13-.392.723-.9 1.092-.898 4.864.053 9.728.19 14.592.304-3.841 12.2-7.672 24.403-11.548 36.589-.304.963-.04 1.334.777 1.7 4.125 1.858 8.43 3.11 12.857 3.936 7.953 1.477 15.942 1.496 23.937.487 2.368-.303 4.702-.89 7.051-1.347" fill="#FFFFFE"/><path d="M70.761 154.454c2.21.192 4.415.389 6.623.587 7.906.706 15.816.587 23.728.028 7.17-.512 14.264-1.502 21.192-3.493 7.552-2.165 14.688-5.189 20.419-10.882 2.281-2.271 4.03-4.863 5.061-7.972 4.297-12.981 8.652-25.938 12.948-38.918 1.41-4.257 3.897-7.746 7.07-10.793h10.814c-1.356 1.174-2.736 2.26-3.996 3.471-2.91 2.801-4.95 6.172-6.234 10.03-4.143 12.445-8.425 24.843-12.411 37.335-1.642 5.14-4.659 9.005-8.82 12.122-5.919 4.439-12.672 6.97-19.75 8.663-12.638 3.032-25.478 3.537-38.398 2.963-6.044-.269-11.947-1.367-17.781-2.91-.165-.039-.31-.156-.465-.23" fill="#FFC82F"/><path d="M12.312 120.754c1.538-4.811 3.067-9.624 4.618-14.43 1.042-3.237 2.114-6.465 3.205-9.799 6.033 8.245 14.777 11.132 23.892 13.275 2.997.703 6.055 1.13 9.25 1.715-1.453 4.36-2.9 8.694-4.344 13.03-8.31-.477-16.575-1.375-24.634-3.527-4.034-1.076-7.961-1.448-11.987-.264" fill="#FEFEFE"/><path d="M87.467 123.104c7.957-1.576 15.87-3.35 23.16-7.09 3.442-1.763 5.959-4.59 7.27-8.35 1.253-3.58 2.41-7.192 3.656-10.773 1.222-3.512.485-6.56-2.026-9.196-3.386-3.558-7.758-5.349-12.241-6.93-.684-.243-1.353-.532-2.027-.8 2.268.363 4.559.62 6.803 1.107 4.622 1.004 9.153 2.354 13.259 4.806a22.588 22.588 0 0 1 4.18 3.222c2.79 2.73 3.525 6.097 2.374 9.821a244.685 244.685 0 0 1-3.23 9.723c-1.404 3.976-4.26 6.76-7.609 9.071-4.95 3.422-10.464 5.609-16.234 7.063-6.31 1.583-12.686 2.9-19.032 4.332-.088-.132-.17-.269-.258-.407l1.955-5.599" fill="#FFC82F"/><path d="M111.936 139.712c-2.35.457-4.683 1.044-7.05 1.347-7.996 1.009-15.985.99-23.938-.487-4.427-.826-8.732-2.078-12.857-3.936-.817-.366-1.081-.737-.777-1.7 3.876-12.186 7.707-24.389 11.548-36.589 3.552.238 7.103.473 10.962.728-4.079 12.252-8.074 24.257-12.091 36.328 3.168 1.936 6.598 2.945 10.194 3.509 7.972 1.242 15.994.923 24.009.8M78.917 77.748c-9.286 1.48-18.586 2.193-27.83-.15-1.824-.46-3.587-1.509-5.144-2.619-1.448-1.037-2.203-2.562-1.374-4.55.685-1.636 1.176-3.363 1.631-5.08.246-.922.77-1.401 1.57-1.788 5.116-2.462 10.547-3.786 16.132-4.457 9.343-1.118 18.676-.789 27.984.498.296.038.576.206.863.315-.57.083-1.15.269-1.717.238-10.026-.587-19.958-.06-29.71 2.555-4.274 1.144-4.257 1.198-5.631 5.388-.554 1.686-1.111 3.372-1.706 5.176 2.615 1.723 5.449 2.908 8.486 3.224 5.464.568 10.963.848 16.446 1.25m32.742-15.842c6.947-.13 13.669 1.242 20.437 3.285 1.69-5.282 3.363-10.486 5.027-15.69h8.55c-2.827 8.748-5.648 17.49-8.508 26.347-5.894-8.478-14.805-11.203-23.979-13.442-.52-.124-1.02-.331-1.527-.5m-99.347 58.848c4.026-1.184 7.953-.812 11.987.264 8.059 2.152 16.323 3.05 24.634 3.526-.386 1.204-.721 2.434-1.194 3.597-.14.345-.697.783-1.014.748-7.312-.868-14.65-1.644-21.717-3.84-4.498-1.399-8.98-2.185-13.864-1.098l1.168-3.197" fill="#FFC82F"/></g></svg>