<?xml version="1.0" encoding="UTF-8"?>
<svg width="200px" height="200px" viewBox="0 0 200 200" version="1.1" xmlns="http://www.w3.org/2000/svg" xmlns:xlink="http://www.w3.org/1999/xlink">
    <!-- Generator: Sketch 53.2 (72643) - https://sketchapp.com -->
    <title>st-bonaventure</title>
    <desc>Created with Sketch.</desc>
    <g id="st-bonaventure" stroke="none" stroke-width="1" fill="none" fill-rule="evenodd">
        <g id="st-bonaventure_BGL">
            <g id="st-bonaventure" transform="translate(0.000000, 12.000000)">
                <path d="M124.780702,0.657178218 C149.627193,1.90581683 174.364035,5.27933168 198.486842,11.412995 C199.078947,13.3626238 199.342105,15.4655941 199.561404,17.4809406 C200.087719,23.242203 200.109649,29.0472772 199.714912,34.8304455 C199.144737,44.1404703 197.763158,53.3628713 195.855263,62.4757426 C194.078947,70.9752475 191.929825,79.3871287 189.320175,87.6675743 C187.083333,83.9435644 185.986842,79.5623762 183.77193,75.7945545 C179.254386,89.2009901 172.872807,102.037871 165.087719,113.867079 C158.048246,124.60099 149.846491,134.612005 140.833333,143.746782 C132.061404,152.6625 122.52193,160.81151 112.324561,168.062376 C108.311404,170.932054 104.166667,173.648391 99.8464912,176.058045 C96.5789474,174.283663 93.4210526,172.268317 90.3508772,170.165347 C75.0657895,159.672401 61.1842105,147.076485 49.254386,132.837624 C35.1754386,116.035767 24.0570175,96.8899752 17.2807018,75.9917079 C16.2938596,77.5689356 15.6359649,79.2556931 14.8903509,81.0081683 C13.9692982,83.2644802 12.9605263,85.4769802 11.8421053,87.6237624 C6.73245614,73.4944307 3.81578947,58.269802 2.01754386,43.3737624 C0.76754386,32.7712871 0.0877192982,22.1030941 0.0657894737,11.412995 C6.90789474,9.72623762 13.7719298,8.38997525 20.7017544,7.18514851 C40.5263158,3.7240099 60.5701754,1.57722772 80.6798246,0.635272277 C95.372807,-0.0438118812 110.087719,-0.0657178218 124.780702,0.657178218 Z" id="Shape" fill="#69392D" fill-rule="nonzero"></path>
                <path d="M88.3114035,6.22128713 C91.3596491,6.11175743 94.5175439,6.11175743 97.5657895,6.06794554 C97.5657895,12.6835396 97.5657895,19.3210396 97.5657895,25.9366337 C94.7587719,25.9585396 91.9517544,26.0242574 89.1666667,26.0242574 C87.0175439,22.847896 84.8464912,19.6934406 82.6754386,16.5389851 C82.6315789,19.7591584 82.6096491,22.9793317 82.5657895,26.2214109 C79.4736842,26.3528465 76.3815789,26.4842822 73.2675439,26.6376238 C73.2675439,20.0220297 73.2675439,13.3845297 73.2675439,6.7470297 C76.0964912,6.6375 78.9254386,6.48415842 81.7324561,6.39653465 C83.8815789,9.50717822 86.0087719,12.6397277 88.1798246,15.7503713 C88.245614,12.552104 88.2017544,9.37574257 88.3114035,6.22128713 Z" id="Shape" fill="#FFFFFF" fill-rule="nonzero"></path>
                <path d="M102.324561,6.08985149 C105.153509,6.11175743 107.960526,6.19938119 110.789474,6.22128713 C112.938596,9.48527228 115.087719,12.7273515 117.236842,15.9913366 C117.258772,12.8149752 117.302632,9.61670792 117.346491,6.44034653 C120.460526,6.61559406 123.552632,6.7470297 126.644737,6.90037129 C126.644737,13.5159653 126.644737,20.1096535 126.644737,26.7252475 C123.837719,26.6376238 121.030702,26.4623762 118.223684,26.3309406 C116.052632,23.0231436 113.837719,19.7372525 111.666667,16.4294554 C111.644737,19.6496287 111.666667,22.869802 111.666667,26.0899752 C108.552632,26.0242574 105.438596,25.9804455 102.324561,25.9147277 C102.324561,19.3210396 102.324561,12.7054455 102.324561,6.08985149 Z" id="Shape" fill="#FFFFFF" fill-rule="nonzero"></path>
                <path d="M131.885965,7.25086634 C135.241228,7.5575495 138.596491,7.75470297 141.929825,8.12710396 C141.907895,14.7207921 141.929825,21.3144802 141.929825,27.9300743 C138.574561,27.667203 135.241228,27.4043317 131.885965,27.0976485 C131.885965,20.4820545 131.885965,13.8664604 131.885965,7.25086634 Z" id="Shape" fill="#FFFFFF" fill-rule="nonzero"></path>
                <path d="M60.745614,7.57945545 C61.3596491,7.51373762 61.8201754,7.5575495 62.3903509,7.77660891 C64.4078947,8.49950495 66.4473684,9.17858911 68.4649123,9.90148515 C68.4649123,15.5532178 68.4649123,21.2049505 68.4649123,26.8785891 C62.7631579,27.3824257 57.0394737,27.8424505 51.3157895,28.3681931 C50.7675439,28.4339109 50.2412281,28.3024752 49.7149123,28.1272277 C47.8508772,27.5138614 45.9868421,26.900495 44.122807,26.3090347 C44.1447368,21.5992574 44.2105263,16.8894802 44.2324561,12.2016089 C45.9649123,11.2377475 47.6973684,10.2957921 49.4298246,9.33193069 C50.1315789,8.9595297 50.7017544,8.52141089 51.5131579,8.47759901 C54.6052632,8.17091584 57.6754386,7.88613861 60.745614,7.57945545 Z" id="Shape" fill="#FFFFFF" fill-rule="nonzero"></path>
                <path d="M147.192982,8.63094059 C153.377193,9.37574257 159.539474,10.1643564 165.679825,11.0625 C165.657895,12.3111386 165.657895,13.5378713 165.635965,14.7865099 C162.850877,14.392203 160.065789,13.9540842 157.258772,13.6035891 C157.214912,14.8522277 157.192982,16.0789604 157.192982,17.327599 C159.561404,17.6561881 161.907895,17.9847772 164.276316,18.3352723 C164.276316,19.5839109 164.210526,20.8106436 164.188596,22.0592822 C161.842105,21.7087871 159.473684,21.380198 157.127193,21.0735149 C157.127193,22.6945545 157.127193,24.3375 157.127193,25.9585396 C160,26.3528465 162.872807,26.7909653 165.723684,27.1852723 C165.723684,28.4339109 165.723684,29.6606436 165.701754,30.9092822 C159.539474,30.0987624 153.377193,29.2225248 147.192982,28.4996287 C147.171053,21.8621287 147.192982,15.2465347 147.192982,8.63094059 Z" id="Shape" fill="#FFFFFF" fill-rule="nonzero"></path>
                <path d="M30.9649123,11.1063119 C31.7324561,10.9967822 32.5438596,10.7558168 33.2675439,10.9967822 C34.9780702,11.5006188 36.7105263,12.0044554 38.4210526,12.5082921 C38.3991228,14.2607673 38.3991228,16.0132426 38.3552632,17.7657178 C36.7763158,18.6419554 35.1973684,19.5181931 33.6403509,20.3944307 C35.4824561,20.7887376 37.3245614,21.1830446 39.1666667,21.5773515 C39.1447368,24.3155941 39.122807,27.0538366 39.0789474,29.7920792 C27.5877193,31.4788366 16.1403509,33.537995 4.75877193,35.9038366 C8.20175439,34.1294554 11.6885965,32.442698 15.1535088,30.7340347 C15.1535088,25.1042079 15.1535088,19.4524752 15.1535088,13.8226485 C20.4385965,12.8587871 25.7017544,11.9606436 30.9649123,11.1063119 Z" id="Shape" fill="#FFFFFF" fill-rule="nonzero"></path>
                <path d="M58.4210526,11.5225248 C58.3991228,15.6627475 58.3552632,19.8029703 58.2894737,23.9212871 C56.8859649,24.0308168 55.504386,24.1841584 54.1008772,24.2936881 C54.122807,20.1753713 54.2105263,16.0351485 54.2324561,11.8949257 C55.6359649,11.785396 57.0394737,11.6539604 58.4210526,11.5225248 Z" id="Shape" fill="#69392D" fill-rule="nonzero"></path>
                <path d="M174.627193,12.7711634 C175.109649,12.6178218 175.570175,12.7054455 176.052632,12.7930693 C178.991228,13.3626238 181.951754,13.9102723 184.868421,14.5236386 C185.657895,14.6550743 186.22807,15.0931931 186.864035,15.5313119 C188.618421,16.6923267 190.394737,17.8533416 192.127193,19.0143564 C192.105263,20.1753713 192.105263,21.3363861 192.105263,22.497401 C188.925439,21.7964109 185.745614,21.0954208 182.54386,20.4382426 C182.54386,19.562005 182.565789,18.6638614 182.565789,17.7876238 C181.20614,17.5247525 179.846491,17.2618812 178.508772,16.9990099 C178.486842,18.3352723 178.464912,19.6934406 178.464912,21.0516089 C180.657895,21.5554455 182.872807,22.0811881 185.065789,22.6069307 C185.789474,22.7821782 186.315789,23.1764851 186.929825,23.5707921 C188.72807,24.7537129 190.548246,25.9147277 192.346491,27.1195545 C192.346491,30.0987624 192.368421,33.0779703 192.368421,36.0352723 C187.302632,34.9837871 182.236842,33.9761139 177.171053,32.9246287 C176.447368,32.7712871 175.679825,32.6617574 174.95614,32.442698 C174.320175,32.2017327 173.75,31.7636139 173.157895,31.4131188 C171.600877,30.4492574 170.02193,29.4634901 168.442982,28.4996287 C168.442982,27.3386139 168.464912,26.177599 168.464912,25.0165842 C171.776316,25.5423267 175.087719,26.1337871 178.377193,26.7471535 C178.377193,27.6233911 178.355263,28.4996287 178.355263,29.3758663 C179.714912,29.6168317 181.074561,29.9016089 182.434211,30.1644802 C182.45614,28.7844059 182.45614,27.4043317 182.47807,26.0023515 C180.328947,25.5204208 178.201754,25.0384901 176.052632,24.5565594 C175.153509,24.3594059 174.495614,23.8555693 173.70614,23.3955446 C171.973684,22.3659653 170.263158,21.3582921 168.530702,20.3506188 C168.552632,18.3571782 168.574561,16.3856436 168.596491,14.392203 C170.614035,13.8445545 172.609649,13.2969059 174.627193,12.7711634 Z" id="Shape" fill="#FFFFFF" fill-rule="nonzero"></path>
                <path d="M29.2982456,15.137005 C29.2982456,16.5389851 29.2763158,17.9409653 29.254386,19.3429455 C27.8947368,19.5839109 26.5131579,19.8029703 25.1535088,20.0220297 C25.1754386,18.6200495 25.1754386,17.2180693 25.1754386,15.8160891 C26.5570175,15.5751238 27.9385965,15.3341584 29.2982456,15.137005 Z" id="Shape" fill="#69392D" fill-rule="nonzero"></path>
                <path d="M29.2105263,23.0888614 C29.2105263,24.5565594 29.1885965,26.0461634 29.1885965,27.5138614 C27.8289474,27.7767327 26.4473684,27.9738861 25.0657895,28.2148515 C25.0877193,26.7252475 25.0877193,25.2575495 25.1096491,23.7679455 C26.4912281,23.5269802 27.8508772,23.3079208 29.2105263,23.0888614 Z" id="Shape" fill="#69392D" fill-rule="nonzero"></path>
                <path d="M93.2017544,33.3408416 C96.4254386,33.3408416 99.627193,33.2313119 102.850877,33.3189356 C109.692982,33.3408416 116.557018,33.4941832 123.377193,33.8665842 C115.416667,36.0790842 107.631579,38.9268564 100.065789,42.2127475 C92.4561404,38.9268564 84.5833333,36.0133663 76.6008772,33.8446782 C82.127193,33.5160891 87.6754386,33.4065594 93.2017544,33.3408416 Z" id="Shape" fill="#FFFFFF" fill-rule="nonzero"></path>
                <path d="M54.6491228,33.910396 C58.6184211,37.0210396 62.2807018,40.7669554 64.8903509,45.0824257 C62.4342105,45.9148515 60.3947368,47.4701733 58.5964912,49.3102723 C57.0175439,45.8053218 55.6359649,42.1470297 54.9342105,38.357302 C54.6491228,36.889604 54.6052632,35.4 54.6491228,33.910396 Z" id="Shape" fill="#ECD19C" fill-rule="nonzero"></path>
                <path d="M145.350877,33.910396 C145.394737,35.3123762 145.350877,36.7143564 145.109649,38.1163366 C144.429825,41.9498762 143.026316,45.7615099 141.403509,49.3102723 C139.605263,47.4701733 137.565789,45.9367574 135.109649,45.0824257 C137.719298,40.7669554 141.381579,37.0210396 145.350877,33.910396 Z" id="Shape" fill="#ECD19C" fill-rule="nonzero"></path>
                <path d="M51.6885965,35.7066832 C51.8201754,37.9410891 52.0175439,40.2193069 52.3464912,42.4318069 C52.7631579,45.3233911 53.245614,48.0835396 54.4078947,50.7779703 C54.8026316,51.6761139 55.3289474,52.4866337 55.9649123,53.2314356 C55.8991228,55.9696782 55.504386,58.9488861 54.2763158,61.4242574 C53.4210526,63.1548267 52.0833333,64.6006188 50.1754386,65.1263614 C48.0921053,65.6740099 46.1622807,65.1482673 44.2105263,64.4253713 C42.8070175,68.4341584 41.9298246,72.5962871 41.4254386,76.8241337 C40.8991228,80.9643564 40.9429825,85.2579208 41.2061404,89.4200495 C39.6929825,85.4988861 38.3333333,81.5558168 37.127193,77.5251238 C35.2850877,79.3871287 33.9035088,81.6215347 32.8508772,84.0311881 C32.3464912,81.2272277 32.1052632,78.4013614 31.9298246,75.5535891 C31.6885965,71.4790842 31.5570175,67.3826733 31.4912281,63.2862624 C31.3815789,54.962005 31.4254386,46.6158416 31.6885965,38.2915842 C38.3114035,37.262005 44.9780702,36.4295792 51.6885965,35.7066832 Z" id="Shape" fill="#FFFFFF" fill-rule="nonzero"></path>
                <path d="M148.289474,35.7066832 C154.97807,36.4295792 161.688596,37.240099 168.333333,38.3134901 C168.618421,49.770297 168.72807,61.2709158 168.223684,72.7277228 C168.026316,76.4955446 167.785088,80.3509901 167.127193,84.0530941 C166.074561,81.6434406 164.692982,79.4309406 162.850877,77.5470297 C161.644737,81.5777228 160.263158,85.5207921 158.77193,89.4419554 C158.859649,87.6675743 158.947368,85.8931931 158.991228,84.1188119 C158.969298,77.4594059 157.938596,70.7342822 155.767544,64.4472772 C153.77193,65.1920792 151.776316,65.7178218 149.649123,65.1044554 C147.807018,64.5568069 146.535088,63.1329208 145.701754,61.4461634 C144.495614,58.9488861 144.078947,55.9915842 144.013158,53.2314356 C144.692982,52.4428218 145.219298,51.5884901 145.635965,50.6246287 C146.600877,48.302599 147.127193,45.8491337 147.47807,43.3737624 C147.916667,40.8326733 148.135965,38.2915842 148.289474,35.7066832 Z" id="Shape" fill="#FFFFFF" fill-rule="nonzero"></path>
                <path d="M73.5087719,50.9094059 C75.1535088,51.1065594 76.7982456,51.5884901 78.3991228,52.0485149 C84.7587719,54.0638614 90.5701754,57.525 95.5263158,61.9719059 C95.2412281,68.0617574 94.9342105,74.129703 94.6491228,80.1976485 C94.6710526,82.234901 94.9122807,84.2940594 95.0219298,86.3313119 C95.6359649,94.6993812 96.2280702,103.06745 96.8201754,111.43552 C95.8114035,111.041213 94.8026316,110.668812 93.7938596,110.296411 C92.8070175,108.52203 92.0614035,106.681931 91.9078947,104.666584 C88.5964912,108.281064 86.4692982,113.078465 86.5350877,118.029208 C88.4649123,118.795916 90.4166667,119.562624 92.3684211,120.329332 C90,121.534158 87.6096491,122.695173 85.2412281,123.9 C83.5526316,122.651361 82.1929825,121.030322 81.2280702,119.168317 C79.122807,115.356683 78.7061404,110.581188 79.1885965,106.331436 C80.9429825,108.215347 82.6754386,110.099257 84.4298246,111.983168 C85.6140351,104.951361 86.8201754,97.9195545 87.9824561,90.8877475 C89.4298246,90.9096535 90.8552632,90.9534653 92.3026316,90.9753713 C91.995614,86.1341584 91.6666667,81.3148515 91.3377193,76.4736386 C85.9649123,71.3257426 80.5921053,66.1559406 75.2192982,61.0080446 C75.0657895,63.5929455 74.9561404,66.1778465 74.7807018,68.7408416 C71.3157895,69.0256188 67.872807,69.332302 64.4078947,69.6170792 C64.7368421,71.6105198 65.0657895,73.6258663 65.372807,75.6193069 C61.9517544,76.1888614 58.5964912,76.9117574 55.3508772,78.1165842 C53.5745614,78.7956683 51.9078947,79.5842822 50.5921053,81.0300743 C52.872807,75.9040842 55.4824561,70.9314356 58.5964912,66.2435644 C60.6140351,63.1986386 62.8289474,60.3070545 65.3289474,57.6345297 C67.7631579,54.962005 70.372807,52.6618812 73.5087719,50.9094059 Z" id="Shape" fill="#ECD19C" fill-rule="nonzero"></path>
                <path d="M126.491228,50.8875 C127.258772,51.3694307 128.004386,51.8294554 128.75,52.3332921 C130.767544,53.6914604 132.565789,55.4001238 134.276316,57.1087871 C138.245614,61.2490099 141.600877,66.0902228 144.429825,71.0409653 C146.29386,74.2392327 147.894737,77.5689356 149.429825,80.9424505 C148.201754,79.6061881 146.644737,78.8175743 145,78.160396 C141.644737,76.8679455 138.201754,76.1450495 134.649123,75.5316832 C134.95614,73.5382426 135.285088,71.522896 135.614035,69.5294554 C132.149123,69.2446782 128.684211,68.937995 125.219298,68.6532178 C125.087719,66.0683168 124.95614,63.5053218 124.802632,60.9204208 C119.429825,66.0902228 114.057018,71.2381188 108.684211,76.3860149 C108.355263,81.2272277 108.048246,86.0465347 107.719298,90.8877475 C109.166667,90.8877475 110.592105,90.8439356 112.039474,90.8220297 C113.201754,97.8538366 114.407895,104.885644 115.592105,111.91745 C117.346491,110.055446 119.078947,108.149629 120.833333,106.287624 C121.20614,109.266832 121.052632,112.267946 120.350877,115.181436 C119.451754,118.576856 117.653509,121.753218 114.780702,123.878094 C112.412281,122.673267 110.02193,121.512252 107.653509,120.307426 C109.605263,119.540718 111.535088,118.77401 113.486842,118.007302 C113.552632,113.056559 111.425439,108.259158 108.092105,104.644678 C107.916667,106.681931 107.192982,108.500124 106.20614,110.274505 C105.197368,110.646906 104.188596,111.041213 103.157895,111.413614 C103.859649,101.380693 104.583333,91.3258663 105.307018,81.2710396 C105.372807,80.1538366 105.285088,79.0585396 105.219298,77.9413366 C104.97807,72.6181931 104.714912,67.2950495 104.451754,61.9719059 C107.609649,59.1460396 111.118421,56.7144802 114.890351,54.7867574 C118.618421,52.9466584 122.390351,51.5227723 126.491228,50.8875 Z" id="Shape" fill="#ECD19C" fill-rule="nonzero"></path>
                <path d="M76.4692982,72.3115099 C76.9736842,72.5962871 77.4342105,72.9029703 77.9166667,73.2096535 C77.8508772,73.9106436 77.7631579,74.5240099 78.004386,75.2030941 C78.5307018,76.6488861 80.0438596,77.6346535 81.5789474,77.5032178 C82.3245614,77.4594059 82.872807,77.1089109 83.4868421,76.7584158 C83.9692982,77.065099 84.4517544,77.3717822 84.9122807,77.6565594 C84.2763158,79.1023515 83.1140351,80.1100248 81.5350877,80.4167079 C78.9035088,80.9643564 76.1403509,79.2556931 75.4166667,76.6707921 C75,75.1154703 75.4166667,73.5163366 76.4692982,72.3115099 Z" id="Shape" fill="#FFFFFF" fill-rule="nonzero"></path>
                <path d="M123.530702,72.289604 C124.649123,73.5820545 125.065789,75.3564356 124.429825,76.9993812 C123.530702,79.5185644 120.679825,81.0519802 118.092105,80.3071782 C116.666667,79.9347772 115.657895,78.9490099 115.065789,77.6346535 C115.548246,77.3279703 116.030702,77.0431931 116.491228,76.7365099 C117.127193,77.087005 117.675439,77.4375 118.421053,77.4813119 C119.912281,77.6127475 121.359649,76.714604 121.929825,75.3345297 C122.236842,74.6335396 122.149123,73.9544554 122.083333,73.2096535 C122.565789,72.9029703 123.026316,72.5743812 123.530702,72.289604 Z" id="Shape" fill="#FFFFFF" fill-rule="nonzero"></path>
                <path d="M68.0701754,81.4243812 C71.622807,84.9731436 76.1842105,88.0180693 81.1184211,89.222896 C81.2061404,91.7201733 81.2280702,94.2174505 81.3157895,96.6928218 C79.4298246,99.1462871 77.5219298,101.577847 75.6359649,104.009406 C75.1535088,104.666584 74.5833333,105.126609 74.5833333,106.002847 C74.3201754,109.81448 74.6052632,113.669926 75.4166667,117.415842 C76.4912281,122.037995 78.4429825,126.484901 81.6885965,130.033663 C84.2982456,132.947153 87.6315789,135.07203 91.2938596,136.452104 C91.0087719,135.203465 90.7236842,133.954827 90.4385965,132.706188 C93.9912281,133.67005 97.872807,134.546287 101.578947,134.305322 C104.451754,134.130074 107.346491,133.472896 110.109649,132.706188 C109.846491,133.954827 109.539474,135.203465 109.276316,136.452104 C111.29386,135.641584 113.245614,134.743441 115,133.45099 C118.991228,130.690842 121.929825,126.682054 123.662281,122.169431 C125.592105,117.306312 126.25,111.873639 126.008772,106.660025 C125.942982,105.980941 126.008772,105.38948 125.548246,104.841832 C123.421053,102.125495 121.315789,99.4091584 119.210526,96.6928218 C119.276316,94.2174505 119.320175,91.7201733 119.385965,89.244802 C124.320175,88.0180693 128.881579,84.9950495 132.45614,81.4243812 C136.578947,81.9282178 140.460526,83.5054455 143.815789,85.9589109 C147.916667,88.9381188 151.184211,92.9907178 153.684211,97.3719059 C153.991228,97.9633663 154.407895,98.5548267 154.583333,99.190099 C154.364035,99.8691832 153.991228,100.48255 153.684211,101.117822 C150.745614,106.988614 147.368421,112.618441 143.640351,118.029208 C139.342105,124.206683 134.495614,130.033663 129.298246,135.466337 C124.912281,140.000866 120.197368,144.228713 115.307018,148.215594 C110.372807,152.180569 105.175439,155.816955 99.8245614,159.19047 C94.5394737,155.860767 89.3859649,152.268193 84.495614,148.34703 C79.2982456,144.162995 74.3421053,139.672277 69.7149123,134.831064 C64.8464912,129.661262 60.2631579,124.162871 56.1842105,118.335891 C52.1929825,112.552723 48.5307018,106.506683 45.4605263,100.197772 C47.8508772,95.2470297 51.0087719,90.7125 55.2412281,87.1637376 C58.8596491,84.0311881 63.3114035,82.0158416 68.0701754,81.4243812 Z" id="Shape" fill="#FFFFFF" fill-rule="nonzero"></path>
                <path d="M132.719298,82.2787129 C133.530702,82.2568069 134.385965,82.5196782 135.175439,82.7168317 C139.890351,83.8997525 144.013158,86.5722772 147.324561,90.0772277 C149.912281,92.7497525 152.039474,95.882302 153.75,99.1681931 C150.723684,105.38948 147.192982,111.369802 143.289474,117.087252 C139.122807,123.155198 134.385965,128.894554 129.342105,134.26151 C124.934211,138.861757 120.241228,143.133416 115.307018,147.186015 C110.350877,151.194802 105.131579,154.875 99.7368421,158.292327 C91.7105263,153.232054 84.122807,147.53651 77.1491228,141.118069 C64.4517544,129.529827 53.8157895,115.575743 46.2061404,100.15396 C48.5745614,95.2908416 51.9078947,90.6248762 56.1842105,87.2513614 C59.5394737,84.5788366 63.5307018,82.8044554 67.7850877,82.212995 C71.3377193,85.6741337 75.5921053,88.4342822 80.3947368,89.8143564 C80.4166667,91.8516089 80.5263158,93.9107673 80.5263158,95.9480198 C80.5482456,96.4737624 80.2631579,96.8023515 79.9780702,97.1966584 C78.0701754,99.6063119 76.2061404,102.059777 74.2982456,104.469431 C73.8596491,104.995173 73.8157895,105.586634 73.7719298,106.221906 C73.5526316,110.121163 73.8377193,114.064233 74.6929825,117.85396 C75.8552632,122.760891 77.9605263,127.361139 81.4912281,130.997525 C84.4517544,134.130074 88.1578947,136.233045 92.2368421,137.591213 C91.9517544,136.298762 91.6447368,135.006312 91.3596491,133.713861 C94.2105263,134.392946 96.995614,135.028218 99.9342105,135.028218 C103.048246,135.07203 106.030702,134.436757 109.035088,133.713861 C108.75,135.006312 108.442982,136.298762 108.157895,137.591213 C112.214912,136.276856 115.921053,134.15198 118.859649,131.041337 C121.22807,128.587871 123.048246,125.586757 124.276316,122.432302 C126.337719,117.218688 126.973684,111.369802 126.600877,105.805693 C126.578947,104.841832 125.964912,104.294183 125.416667,103.571287 C123.903509,101.643564 122.412281,99.7158416 120.899123,97.7881188 C120.570175,97.35 120.131579,96.8899752 119.934211,96.3642327 C119.868421,95.9261139 119.890351,95.487995 119.890351,95.0498762 C119.95614,93.297401 119.97807,91.5449257 120.04386,89.7924505 C124.166667,88.6095297 127.828947,86.3970297 131.074561,83.6149752 C131.644737,83.2206683 132.127193,82.6292079 132.719298,82.2787129 Z" id="Shape" fill="#B8B3B7" fill-rule="nonzero"></path>
                <path d="M114.122807,173.692203 C114.407895,173.648391 114.692982,173.648391 114.97807,173.626485 C115.285088,174.458911 115.614035,175.269431 115.942982,176.101856 C116.25,175.291337 116.557018,174.480817 116.864035,173.670297 C117.171053,173.670297 117.47807,173.670297 117.763158,173.670297 C117.763158,174.765594 117.763158,175.882797 117.763158,176.978094 L117.171053,176.978094 C117.171053,176.07995 117.171053,175.181807 117.149123,174.261757 C116.798246,175.159901 116.447368,176.058045 116.096491,176.956188 C115.964912,176.956188 115.833333,176.956188 115.679825,176.956188 C115.328947,176.058045 115,175.159901 114.627193,174.283663 C114.605263,175.181807 114.605263,176.058045 114.605263,176.956188 C114.407895,176.956188 114.232456,176.956188 114.035088,176.956188 C114.122807,175.882797 114.035088,174.765594 114.122807,173.692203 Z" id="Shape" fill="#69392D" fill-rule="nonzero"></path>
                <path d="M110.877193,173.648391 C111.710526,173.736015 113.114035,173.363614 113.72807,174.020792 C113.311404,174.08651 112.894737,174.130322 112.47807,174.174134 C112.47807,175.094183 112.47807,176.036139 112.47807,176.956188 C112.280702,176.956188 112.083333,176.956188 111.907895,176.956188 C111.907895,176.014233 111.907895,175.072277 111.907895,174.130322 C111.557018,174.130322 111.22807,174.130322 110.877193,174.130322 L110.877193,173.648391 Z" id="Shape" fill="#69392D" fill-rule="nonzero"></path>
            </g>
        </g>
    </g>
</svg>