<svg width="200" height="201" fill="none" xmlns="http://www.w3.org/2000/svg"><g clip-path="url(#a)"><g clip-path="url(#b)"><path d="M130.688 74.597c-8.752 2.261-19.185 8.314-25.392 13.977l-5.299 27.953L94.7 88.574c-6.208-5.663-16.64-11.716-25.392-13.977-9.923 6.902-18.324 17.795-22.034 29.516-3.76 1.931-6.982 4.655-9.547 8.344 5.263-2.962 10.48-4.922 15.634-5.423 1.14-6.006 3.644-11.102 7.135-15.54 1.217 1.407 2.669 2.532 4.303 3.443 1.085-3.994 3.562-8.432 5.456-10.325 5.732 8.5 12.17 15.028 19.305 19.607l3.672 21.173a13.912 13.912 0 0 1-5.037-2.399c-2.568 7.113-4.457 14.491-5.455 22.215-1.327-1.177-2.657-3.4-3.987-6.05-.486 8.538 1.877 15.715 8.498 20.859 2.35-.416 5.978-2.728 7.659-5.111-3.631-1.59-6.437-3.64-8.603-6.05.903-4.511 2.584-7.973 4.931-10.534l2.215 4.019c1.986.608 3.88.833 6.548.833s4.562-.225 6.548-.833l2.214-4.019c2.348 2.561 4.028 6.023 4.932 10.534-2.166 2.41-4.972 4.46-8.603 6.05 1.68 2.383 5.309 4.692 7.659 5.111 6.62-5.144 8.984-12.321 8.498-20.859-1.33 2.65-2.657 4.871-3.987 6.05-1.001-7.727-2.887-15.105-5.455-22.215a13.914 13.914 0 0 1-5.037 2.399l3.672-21.173c7.135-4.579 13.572-11.107 19.305-19.607 1.894 1.893 4.371 6.33 5.455 10.325 1.633-.911 3.087-2.036 4.303-3.442 3.491 4.438 5.995 9.533 7.136 15.539 5.15.503 10.371 2.464 15.634 5.423-2.566-3.689-5.787-6.413-9.548-8.344-3.709-11.72-12.113-22.614-22.033-29.516h-.005Z" fill="#B5ADA5"/><path d="M159.9 67c-.72 3.865-1.708 7.562-2.959 11.02 2.018-.459 4.567-.472 5.94.22-2.598 1.33-5.598 4.335-6.391 6.977.782 1.012 3.917 1.401 5.631.904 4.642 7.821 7.818 18.858 7.176 30.509-1.152-9.585-6.057-21.793-10.341-26.33-4.503.556-8.175-3.39-9.065-6.319 2.714-4.992 4.856-11.155 6.124-18.146h-.008c.75-4.133 1.187-8.557 1.265-13.198 1.193.292 2.38.6 3.57.911 2.582.674 5.158 1.374 7.721 2.134v-8.79a236.25 236.25 0 0 0-4.26-1.22v.401c0 .885-.712 1.406-1.592 1.171-.65-.176-1.3-.338-1.95-.508a211.882 211.882 0 0 0-3.64-.917c-.008-.125-.01-.244-.018-.368 0-.022 0-.04-.003-.062a94.248 94.248 0 0 0-.262-3.159h-.008c-.604.052-1.203.127-1.805.198v-9.81a243.55 243.55 0 0 1 8.38 2.123v-6.785a238.814 238.814 0 0 0-8.38-2.123v-12.69c2.571.604 5.131 1.247 7.686 1.937.88.235 1.592 1.155 1.592 2.04v.4c1.422.394 2.844.8 4.26 1.22V9.95a241.02 241.02 0 0 0-23.852-5.772v4.309c.135.024.267.051.402.075.891.168 1.614 1.033 1.614 1.918v33.297a78.605 78.605 0 0 0-4.981 1.268c-.82-.219-1.47-1.008-1.47-1.844V9.209c0-.836.688-1.399 1.53-1.252.164.03.326.056.491.086V3.735a238.953 238.953 0 0 0-12.421-1.88c0 1.436 0 2.872.003 4.308.134.017.269.036.404.052.896.113 1.624.933 1.624 1.817v33.993c0 .835-.69 1.422-1.535 1.314-.164-.022-.329-.04-.493-.062v4.308c1.108.138 2.212.306 3.318.457a81.193 81.193 0 0 0-13.47 7.134 82.499 82.499 0 0 0-4.722 3.348h-.01a79.902 79.902 0 0 0-8.593 7.595c.693-2.816 1.667-5.472 2.995-7.922-3.114-.146-6.241-.23-9.389-.23-3.148 0-6.275.084-9.388.23 1.327 2.453 2.298 5.106 2.994 7.922a79.927 79.927 0 0 0-8.592-7.595h-.011a81.002 81.002 0 0 0-4.56-3.24l-.161-.108a81.302 81.302 0 0 0-13.474-7.134c2.261-.314 4.522-.595 6.788-.844 1.063-.116 2.124-.246 3.19-.349v-4.308l-.406.04c-.898.09-1.629-.554-1.629-1.438V23.707c3.415 7.424 6.834 14.92 10.257 22.488 3.208-.2 6.418-.336 9.629-.406v-4.308c-.165.003-.332.008-.497.01-.852.022-1.545-.638-1.545-1.473V5.939c0-.838.693-1.539 1.545-1.56.165-.003.332-.009.497-.011V.06c-4.176.091-8.35.294-12.52.603V4.97c.164-.014.33-.025.496-.035.85-.063 1.543.573 1.543 1.411V23.87A4002.792 4002.792 0 0 0 73.909 1.417c-3.197.349-6.388.76-9.575 1.236v4.308l.494-.073c.845-.124 1.535.46 1.535 1.298v34.08c0 .567-.32 1.103-.79 1.43a1.76 1.76 0 0 1-.745.308l-.493.073v2.983a81.408 81.408 0 0 0-4.954-1.687c.65-.758 1.3-1.528 1.95-2.28V8.879a614.292 614.292 0 0 0-5.797-4.744c-4.8.9-9.58 1.947-14.33 3.143a739.627 739.627 0 0 0-5.718 7.27V48.76c1.215.89 2.437 1.804 3.653 2.713.688.514 1.374 1.014 2.064 1.533.513-.13 1.025-.248 1.538-.373.075 4.638.515 9.063 1.265 13.198h-.008c1.268 6.99 3.413 13.157 6.124 18.147-.89 2.929-4.564 6.874-9.064 6.317-4.285 4.538-9.19 16.746-10.341 26.331-.642-11.651 2.53-22.688 7.176-30.509 1.71.498 4.845.108 5.63-.903-.793-2.642-3.793-5.647-6.39-6.978 1.372-.692 3.922-.676 5.94-.219-1.252-3.459-2.24-7.156-2.96-11.02a200.997 200.997 0 0 0-19.97 7.358 142.128 142.128 0 0 0 10.509 60.975 42.113 42.113 0 0 1 6.275-6.25c12.262 29.803 34.44 55.001 63.086 70.916 28.646-15.918 50.825-41.113 63.087-70.916a41.758 41.758 0 0 1 6.275 6.25 142.167 142.167 0 0 0 10.508-60.975 201.064 201.064 0 0 0-19.969-7.358L159.9 67Zm-8.93-15.82c.386-.271.769-.53 1.15-.78.002.35-.006.693-.006 1.039-.021 6.496-.793 12.773-2.269 18.447-1.748-.736-5.242-1.047-6.86-.611 2.546 2.65 3.955 6.193 4.268 8.319v.005c-3.483-3.475-7.622-6.328-11.585-8.357 2.9-6.95 9.335-13.87 15.305-18.063h-.003ZM46.132 42.551c-.804-.1-1.61-.187-2.417-.265V14.775c0-.734.596-1.475 1.327-1.645 2.196-.514 4.395-.995 6.602-1.447.736-.151 1.335.328 1.335 1.06v29.5c0 .514-.296 1.015-.725 1.323a78.972 78.972 0 0 0-6.124-1.02v.009l.002-.003Zm1.754 8.879c0-.344-.011-.685-.006-1.028.38.249.767.508 1.152.779 5.97 4.192 12.402 11.112 15.305 18.063-3.963 2.028-8.101 4.881-11.584 8.357v-.006c.31-2.125 1.72-5.668 4.265-8.319-1.619-.435-5.112-.124-6.86.612-1.476-5.677-2.248-11.96-2.27-18.458h-.002ZM153.906 123c-.783 8.049-3.64 14.94-8.639 20.63-.267-4.616-1.411-8.63-3.286-12.135-1.905 24.481-20.746 46.29-41.981 52.837-21.235-6.547-40.076-28.353-41.981-52.837-1.878 3.505-3.019 7.519-3.286 12.135-5-5.693-7.856-12.581-8.639-20.63-1.098-.194-2.538-.286-4.319-.281 5.485-4.581 12.251-7.832 18.874-9.149-.28-2.442-.17-4.771.28-7.002 4.736 6.155 10.924 10.456 18.875 12.508v9.615c-2.547 2.828-5.204 6.104-8.077 10.268.885 14.237 9.979 27.426 19.532 32.021-.426-1.052-.707-2.063-.76-3.18 2.16 1.219 5.791 1.779 9.496 1.779 3.704 0 7.335-.56 9.496-1.779-.051 1.117-.335 2.128-.761 3.18 9.553-4.592 18.648-17.784 19.533-32.021-2.874-4.164-5.528-7.44-8.078-10.268v-9.615c7.951-2.055 14.142-6.353 18.874-12.508.451 2.231.562 4.56.281 7.002 6.626 1.317 13.392 4.568 18.874 9.149-1.783-.008-3.221.087-4.319.281h.011Zm-76.352-15.953c.968 0 1.824-.457 2.385-1.155.688.479 1.392.944 2.128 1.377-1.607 1.625-4.27 2.052-6.285 1.428-3.94-1.223-5.644-5.766-4.309-11.335 1.665 2.356 3.531 4.465 5.644 6.32a2.47 2.47 0 0 1-1.816.796c-.27 0-.526-.055-.769-.133a3.044 3.044 0 0 0 3.027 2.705l-.005-.003Zm47.147-2.569a2.47 2.47 0 0 1-1.815-.796c2.112-1.855 3.976-3.962 5.644-6.32 1.335 5.569-.37 10.112-4.309 11.335-2.015.624-4.678.197-6.286-1.428a31.525 31.525 0 0 0 2.129-1.377 3.051 3.051 0 0 0 2.385 1.155 3.046 3.046 0 0 0 3.027-2.705 2.477 2.477 0 0 1-.769.133l-.006.003Zm21.937 2.555c-1.142-6.006-3.645-11.102-7.136-15.54-1.217 1.407-2.668 2.532-4.303 3.443-1.085-3.994-3.561-8.432-5.455-10.325-5.733 8.5-12.17 15.028-19.306 19.607l-3.672 21.173a13.914 13.914 0 0 0 5.037-2.399c2.568 7.113 4.457 14.491 5.455 22.215 1.327-1.177 2.657-3.4 3.988-6.05.485 8.538-1.878 15.715-8.499 20.859-2.35-.416-5.978-2.728-7.659-5.111 3.631-1.59 6.437-3.64 8.604-6.05-.904-4.511-2.585-7.973-4.932-10.534.048 1.528-.332 4.287-.839 5.89-1.816 1.393-4.735 2.315-7.921 2.315s-6.105-.919-7.92-2.315c-.51-1.603-.888-4.362-.84-5.89-2.347 2.561-4.025 6.023-4.931 10.534 2.166 2.41 4.972 4.46 8.603 6.05-1.68 2.383-5.31 4.692-7.66 5.111-6.62-5.144-8.983-12.321-8.498-20.859 1.33 2.65 2.658 4.871 3.988 6.05 1-7.727 2.887-15.105 5.455-22.215a13.913 13.913 0 0 0 5.037 2.399l-3.672-21.173C82.426 99.64 75.99 93.112 70.256 84.612c-1.894 1.893-4.37 6.33-5.455 10.325-1.632-.911-3.086-2.036-4.303-3.442-3.49 4.438-5.994 9.533-7.136 15.539-5.15.503-10.367 2.464-15.634 5.423 2.566-3.689 5.787-6.413 9.548-8.344 3.71-11.72 12.113-22.614 22.033-29.516 8.752 2.261 19.185 8.314 25.392 13.977L100 116.527l5.299-27.953c6.207-5.663 16.64-11.716 25.392-13.977 9.922 6.902 18.323 17.795 22.033 29.516 3.761 1.931 6.982 4.655 9.548 8.344-5.264-2.962-10.482-4.922-15.634-5.423ZM31.046 58.027V39.79a453.922 453.922 0 0 0-2.825-2.004c.94-1.25 1.88-2.491 2.825-3.73V15.824a476.463 476.463 0 0 0-5.663-3.992A242.07 242.07 0 0 0 4 19.929v4.308c.154-.067.31-.135.467-.2.798-.343 1.451.062 1.451.898V67c0 .836-.653 1.793-1.451 2.14-.154.067-.31.135-.467.2v4.308a242.07 242.07 0 0 1 21.383-8.097 867.476 867.476 0 0 1 5.663-7.524Zm-8.142.23c0 .733-.583 1.528-1.3 1.774a243.23 243.23 0 0 0-7.708 2.796v-16.68c2.557-.977 5.126-1.91 7.707-2.797.718-.246 1.3.154 1.3.887v14.02Zm0-23.467c0 .733-.583 1.528-1.3 1.774-2.582.887-5.15 1.82-7.708 2.797V22.68c2.557-.977 5.126-1.91 7.707-2.797.718-.246 1.3.154 1.3.887v14.02Zm86.703 6.824-.407-.017c-.901-.035-1.638-.776-1.635-1.663V22.498a3619.51 3619.51 0 0 1 10.273 23.889c2.865.213 5.73.484 8.587.8.338.038.678.068 1.015.106v-4.308l-.494-.057c-.85-.095-1.54-.85-1.54-1.685V7.164c0-.836.69-1.444 1.54-1.35l.494.057V1.563A242.079 242.079 0 0 0 114.946.46v4.308l.496.032c.85.055 1.544.785 1.544 1.623v17.522A3603.619 3603.619 0 0 0 106.712.092a243.42 243.42 0 0 0-9.634-.076v4.308c.165 0 .332-.002.497-.005a1.52 1.52 0 0 1 1.546 1.506v34.08c0 .835-.694 1.52-1.546 1.527-.165 0-.332.003-.497.006v4.308c4.177-.052 8.355.008 12.529.173v-4.308.003ZM196 30.122v-4.435a834.771 834.771 0 0 0-5.517-8.07 243.251 243.251 0 0 0-13.899-5.136 494.254 494.254 0 0 0-5.652 3.94V36.82a864.236 864.236 0 0 1 3.974 5.306 240.53 240.53 0 0 1 11.851 4.219c.71.273 1.287 1.098 1.287 1.83v13.972c0 .733-.575 1.106-1.287.83a252.71 252.71 0 0 0-6.402-2.366c-.715-.252-1.297-1.052-1.297-1.785v-2.077a239.911 239.911 0 0 0-8.126-2.659v4.435a839.125 839.125 0 0 1 5.652 7.573 240.6 240.6 0 0 1 13.899 5.136A410.405 410.405 0 0 1 196 67.79V47.393a777.278 777.278 0 0 0-3.874-5.685 239.053 239.053 0 0 0-11.773-4.508c-.715-.254-1.298-1.052-1.298-1.785V21.444c0-.733.583-1.13 1.298-.877 2.142.758 4.276 1.547 6.401 2.367.71.273 1.287 1.098 1.287 1.83v2.078a236.911 236.911 0 0 1 7.956 3.286l.003-.006Z" fill="#503629"/><path d="M139.351 113.574c.28-2.442.17-4.771-.281-7.002-4.734 6.155-10.923 10.455-18.874 12.508v9.614c2.547 2.829 5.204 6.104 8.078 10.269-.885 14.236-9.98 27.426-19.533 32.021.426-1.052.707-2.064.761-3.181-2.161 1.22-5.792 1.78-9.496 1.78-3.705 0-7.336-.56-9.497-1.78.054 1.117.335 2.129.761 3.181-9.553-4.592-18.647-17.785-19.532-32.021 2.873-4.165 5.527-7.44 8.077-10.269v-9.614c-7.95-2.055-14.142-6.353-18.874-12.508a22.284 22.284 0 0 0-.28 7.002c-6.627 1.317-13.393 4.567-18.875 9.149 1.783-.008 3.221.086 4.32.281.782 8.049 3.639 14.94 8.638 20.63.267-4.617 1.41-8.63 3.286-12.135 1.904 24.481 20.746 46.289 41.981 52.837 21.235-6.548 40.076-28.354 41.981-52.837 1.878 3.505 3.019 7.518 3.286 12.135 4.999-5.693 7.856-12.581 8.639-20.63 1.098-.195 2.538-.287 4.319-.281-5.485-4.582-12.251-7.832-18.874-9.149h-.011Zm-63.57-4.876c2.016.624 4.679.197 6.287-1.428-.74-.433-1.441-.896-2.129-1.377a3.05 3.05 0 0 1-2.385 1.155 3.046 3.046 0 0 1-3.027-2.705c.243.079.5.133.769.133a2.47 2.47 0 0 0 1.816-.795c-2.113-1.855-3.977-3.962-5.644-6.32-1.336 5.568.37 10.111 4.308 11.334l.006.003Zm48.438 0c3.939-1.223 5.644-5.766 4.308-11.335-1.664 2.356-3.531 4.465-5.644 6.32a2.472 2.472 0 0 0 1.816.796c.27 0 .526-.055.769-.133a3.044 3.044 0 0 1-3.027 2.705 3.057 3.057 0 0 1-2.385-1.155c-.688.478-1.392.944-2.129 1.376 1.608 1.626 4.271 2.053 6.286 1.428l.006-.002ZM100 146.527c3.186 0 6.105-.919 7.921-2.315.51-1.603.888-4.362.839-5.89l-2.215 4.019c-1.985.608-3.879.833-6.547.833-2.669 0-4.563-.225-6.548-.833l-2.215-4.019c-.049 1.528.332 4.287.839 5.89 1.816 1.393 4.735 2.315 7.92 2.315H100ZM50.155 69.889c1.748-.736 5.242-1.047 6.86-.612-2.546 2.65-3.955 6.194-4.265 8.32v.005c3.483-3.476 7.622-6.329 11.585-8.357-2.9-6.95-9.335-13.871-15.305-18.063-.386-.27-.772-.533-1.152-.779-.003.343.005.684.005 1.028.02 6.498.793 12.78 2.27 18.458h.002Zm97.098 7.705c-.31-2.126-1.721-5.669-4.268-8.32 1.619-.435 5.112-.124 6.86.612 1.474-5.674 2.248-11.951 2.269-18.447 0-.346.011-.693.006-1.039a36.96 36.96 0 0 0-1.15.78c-5.97 4.191-12.404 11.112-15.304 18.062 3.963 2.029 8.101 4.882 11.584 8.357v-.005h.003Z" fill="#fff"/><path d="M164.516 140.602v3.427h-.941v-3.427h-1.304v-.871h3.551v.871H164.516ZM170.246 144.026v-2.805l-1.206 1.834h-.024l-1.195-1.817v2.785h-.925v-4.297h1.017l1.125 1.817 1.127-1.817h1.017v4.297h-.936v.003Z" fill="#503629"/></g></g><defs><clipPath id="a"><path fill="#fff" transform="translate(0 .3)" d="M0 0h200v200H0z"/></clipPath><clipPath id="b"><path fill="#fff" transform="translate(4)" d="M0 0h192v200H0z"/></clipPath></defs></svg>