<svg width="200" height="200" xmlns="http://www.w3.org/2000/svg"><g fill="none"><path d="M124.78 12.657c24.847 1.249 49.584 4.622 73.707 10.756.592 1.95.855 4.053 1.074 6.068.527 5.761.549 11.566.154 17.35-.57 9.31-1.952 18.532-3.86 27.645-1.776 8.5-3.925 16.911-6.535 25.192-2.237-3.724-3.333-8.106-5.548-11.873-4.518 13.406-10.9 26.243-18.684 38.072-7.04 10.734-15.242 20.745-24.255 29.88a213.943 213.943 0 0 1-28.508 24.315c-4.014 2.87-8.158 5.586-12.479 7.996-3.267-1.774-6.425-3.79-9.495-5.893a205.253 205.253 0 0 1-41.097-37.327c-14.079-16.802-25.197-35.948-31.973-56.846-.987 1.577-1.645 3.264-2.39 5.016a78.614 78.614 0 0 1-3.049 6.616c-5.11-14.13-8.026-29.354-9.824-44.25C.768 44.77.088 34.104.066 23.413c6.842-1.687 13.706-3.023 20.636-4.228 19.824-3.461 39.868-5.608 59.978-6.55 14.693-.679 29.408-.7 44.1.022z" fill="#69392D"/><path d="M88.311 18.221c3.049-.11 6.207-.11 9.255-.153v19.869c-2.807.022-5.614.087-8.4.087-2.148-3.176-4.32-6.33-6.49-9.485-.044 3.22-.066 6.44-.11 9.682-3.092.132-6.184.263-9.298.417V18.747c2.828-.11 5.657-.263 8.464-.35 2.15 3.11 4.277 6.243 6.448 9.353.066-3.198.022-6.374.131-9.529zm14.014-.131c2.829.022 5.636.11 8.464.131 2.15 3.264 4.299 6.506 6.448 9.77.022-3.176.066-6.374.11-9.55 3.114.175 6.206.306 9.298.46v19.824c-2.807-.087-5.614-.263-8.421-.394-2.171-3.308-4.386-6.594-6.557-9.902-.022 3.22 0 6.44 0 9.661-3.114-.066-6.228-.11-9.342-.175V18.09zm29.561 1.16c3.355.308 6.71.505 10.044.877-.022 6.594 0 13.187 0 19.803a775.445 775.445 0 0 1-10.044-.832V19.25zm-71.14.33c.614-.066 1.074-.022 1.644.197 2.018.723 4.057 1.402 6.075 2.124V38.88c-5.702.503-11.426.963-17.15 1.49-.547.065-1.074-.067-1.6-.242-1.864-.613-3.728-1.227-5.592-1.818.022-4.71.088-9.42.11-14.107 1.732-.964 3.464-1.906 5.197-2.87.702-.372 1.272-.81 2.083-.854 3.092-.307 6.162-.592 9.233-.899zm86.447 1.05c6.184.746 12.346 1.534 18.487 2.433-.022 1.248-.022 2.475-.044 3.724-2.785-.395-5.57-.833-8.377-1.183a105.455 105.455 0 0 0-.066 3.724c2.368.328 4.715.657 7.083 1.007 0 1.249-.065 2.476-.087 3.724-2.347-.35-4.715-.679-7.062-.985v4.885c2.873.394 5.746.832 8.597 1.226 0 1.249 0 2.476-.022 3.724-6.163-.81-12.325-1.686-18.509-2.41-.022-6.637 0-13.252 0-19.868zM30.965 23.106c.767-.11 1.579-.35 2.303-.11 1.71.505 3.443 1.008 5.153 1.512-.022 1.753-.022 3.505-.066 5.258a909.584 909.584 0 0 0-4.715 2.628l5.527 1.183c-.022 2.739-.044 5.477-.088 8.215-11.491 1.687-22.939 3.746-34.32 6.112 3.443-1.775 6.93-3.461 10.395-5.17V25.823a823.088 823.088 0 0 1 15.81-2.717z" fill="#FFF"/><path d="M58.421 23.523c-.022 4.14-.066 8.28-.132 12.398-1.403.11-2.785.263-4.188.373.022-4.119.11-8.259.131-12.4a248.06 248.06 0 0 0 4.19-.371z" fill="#69392D"/><path d="M174.627 24.771c.483-.153.943-.066 1.426.022 2.938.57 5.899 1.117 8.815 1.73.79.132 1.36.57 1.996 1.008 1.754 1.161 3.53 2.322 5.263 3.483-.022 1.161-.022 2.322-.022 3.483-3.18-.7-6.36-1.402-9.561-2.059 0-.876.022-1.774.022-2.65-1.36-.263-2.72-.526-4.057-.789a247.01 247.01 0 0 0-.044 4.053c2.193.503 4.408 1.03 6.6 1.555.724.175 1.25.57 1.865.964 1.798 1.183 3.618 2.344 5.416 3.549 0 2.979.022 5.958.022 8.915-5.065-1.051-10.131-2.059-15.197-3.11-.724-.154-1.491-.263-2.215-.482-.636-.241-1.206-.68-1.798-1.03-1.557-.964-3.136-1.95-4.715-2.913 0-1.161.022-2.322.022-3.483 3.311.525 6.623 1.117 9.912 1.73 0 .876-.022 1.753-.022 2.629 1.36.24 2.72.526 4.08.788.021-1.38.021-2.76.043-4.162-2.15-.482-4.276-.964-6.425-1.445-.9-.198-1.557-.701-2.347-1.161a636.575 636.575 0 0 0-5.175-3.045l.065-5.959c2.018-.547 4.014-1.095 6.031-1.62z" fill="#FFF"/><path d="M29.298 27.137c0 1.402-.022 2.804-.044 4.206-1.36.24-2.74.46-4.1.679.021-1.402.021-2.804.021-4.206 1.382-.24 2.764-.482 4.123-.679zm-.088 7.952c0 1.468-.021 2.957-.021 4.425-1.36.263-2.742.46-4.123.7.022-1.489.022-2.956.044-4.446 1.381-.241 2.74-.46 4.1-.68z" fill="#69392D"/><path d="M93.202 45.34c3.223 0 6.425-.109 9.649-.021 6.842.022 13.706.175 20.526.548-7.96 2.212-15.745 5.06-23.311 8.346-7.61-3.286-15.483-6.2-23.465-8.368 5.526-.329 11.074-.438 16.6-.504z" fill="#FFF"/><path d="M54.65 45.91c3.968 3.111 7.63 6.857 10.24 11.172-2.456.833-4.495 2.388-6.294 4.228-1.578-3.505-2.96-7.163-3.662-10.953-.285-1.467-.329-2.957-.285-4.447zm90.7 0c.045 1.402 0 2.804-.24 4.206-.68 3.834-2.084 7.646-3.706 11.194-1.799-1.84-3.838-3.373-6.294-4.228 2.61-4.315 6.272-8.061 10.24-11.172z" fill="#ECD19C"/><path d="M51.689 47.707c.131 2.234.329 4.512.657 6.725.417 2.891.9 5.652 2.062 8.346a9.9 9.9 0 0 0 1.557 2.453c-.066 2.739-.46 5.718-1.689 8.193-.855 1.73-2.193 3.177-4.1 3.702-2.084.548-4.014.022-5.965-.7-1.404 4.008-2.281 8.17-2.786 12.398-.526 4.14-.482 8.434-.219 12.596a161.772 161.772 0 0 1-4.079-11.895c-1.842 1.862-3.223 4.097-4.276 6.506-.505-2.804-.746-5.63-.921-8.477a285.971 285.971 0 0 1-.439-12.268c-.11-8.324-.066-16.67.198-24.994 6.622-1.03 13.29-1.862 20-2.585zm96.601 0c6.688.723 13.399 1.533 20.043 2.606.285 11.457.395 22.958-.11 34.415-.197 3.768-.438 7.623-1.096 11.325-1.052-2.41-2.434-4.622-4.276-6.506-1.206 4.03-2.588 7.974-4.08 11.895.089-1.774.176-3.549.22-5.323-.022-6.66-1.052-13.385-3.223-19.672-1.996.745-3.992 1.27-6.119.657-1.842-.547-3.114-1.971-3.947-3.658-1.206-2.497-1.623-5.454-1.689-8.215a10.005 10.005 0 0 0 1.623-2.606c.965-2.322 1.491-4.776 1.842-7.251.439-2.541.658-5.082.811-7.667z" fill="#FFF"/><path d="M73.509 62.91c1.645.197 3.29.678 4.89 1.139 6.36 2.015 12.171 5.476 17.127 9.923-.285 6.09-.592 12.158-.877 18.226.022 2.037.263 4.096.373 6.133.614 8.368 1.206 16.736 1.798 25.105a170.007 170.007 0 0 0-3.026-1.14c-.987-1.774-1.733-3.614-1.886-5.63-3.312 3.615-5.439 8.412-5.373 13.363 1.93.767 3.882 1.534 5.833 2.3-2.368 1.205-4.758 2.366-7.127 3.571a13.704 13.704 0 0 1-4.013-4.732c-2.105-3.811-2.522-8.587-2.04-12.837 1.755 1.884 3.487 3.768 5.242 5.652 1.184-7.032 2.39-14.063 3.552-21.095 1.448.022 2.873.065 4.32.087-.306-4.84-.635-9.66-.964-14.501-5.373-5.148-10.746-10.318-16.119-15.466-.153 2.585-.263 5.17-.438 7.733-3.465.285-6.908.591-10.373.876.329 1.994.658 4.009.965 6.002-3.421.57-6.777 1.293-10.022 2.498-1.776.679-3.443 1.467-4.759 2.913 2.28-5.126 4.89-10.099 8.004-14.786 2.018-3.045 4.233-5.937 6.733-8.61 2.434-2.672 5.044-4.972 8.18-6.725zm52.982-.022c.768.481 1.513.941 2.259 1.445 2.018 1.358 3.816 3.067 5.526 4.776 3.97 4.14 7.325 8.981 10.154 13.932 1.864 3.198 3.465 6.528 5 9.901-1.228-1.336-2.785-2.124-4.43-2.782-3.355-1.292-6.798-2.015-10.35-2.628.306-1.994.635-4.01.964-6.003-3.465-.284-6.93-.591-10.395-.876a912.901 912.901 0 0 0-.416-7.733c-5.373 5.17-10.746 10.318-16.119 15.466-.329 4.841-.636 9.66-.965 14.502 1.448 0 2.873-.044 4.32-.066 1.163 7.032 2.369 14.064 3.553 21.095 1.754-1.862 3.487-3.767 5.241-5.63.373 2.98.22 5.98-.482 8.894-.9 3.396-2.697 6.572-5.57 8.697-2.369-1.205-4.76-2.366-7.127-3.57 1.951-.767 3.881-1.534 5.833-2.3.066-4.951-2.062-9.749-5.395-13.363-.175 2.037-.899 3.855-1.886 5.63-1.009.372-2.017.766-3.048 1.139a14936.65 14936.65 0 0 1 2.149-30.143c.066-1.117-.022-2.212-.088-3.33-.24-5.323-.504-10.646-.767-15.97a49.406 49.406 0 0 1 10.438-7.184c3.728-1.84 7.5-3.264 11.601-3.9z" fill="#ECD19C"/><path d="M76.47 84.312c.504.284.964.591 1.447.898-.066.7-.154 1.314.087 1.993.527 1.446 2.04 2.432 3.575 2.3.746-.044 1.294-.394 1.908-.745.482.307.965.614 1.425.899-.636 1.445-1.798 2.453-3.377 2.76-2.631.547-5.395-1.161-6.118-3.746-.417-1.556 0-3.155 1.052-4.36zm47.06-.022c1.12 1.292 1.536 3.066.9 4.71-.9 2.519-3.75 4.052-6.338 3.307-1.425-.372-2.434-1.358-3.026-2.672.482-.307.965-.592 1.425-.898.636.35 1.184.7 1.93.744 1.491.132 2.939-.766 3.509-2.146.307-.701.22-1.38.153-2.125.483-.307.943-.636 1.448-.92zm-55.46 9.134c3.553 3.55 8.114 6.594 13.048 7.799.088 2.497.11 4.994.198 7.47-1.886 2.453-3.794 4.885-5.68 7.316-.482.658-1.053 1.118-1.053 1.994a40.75 40.75 0 0 0 .834 11.413c1.074 4.622 3.026 9.069 6.272 12.618 2.61 2.913 5.943 5.038 9.605 6.418l-.855-3.746c3.552.964 7.434 1.84 11.14 1.6 2.873-.176 5.767-.833 8.53-1.6-.263 1.249-.57 2.497-.833 3.746 2.018-.81 3.97-1.709 5.724-3.001 3.991-2.76 6.93-6.769 8.662-11.282 1.93-4.863 2.588-10.295 2.347-15.509-.066-.68 0-1.27-.46-1.818a2052.168 2052.168 0 0 1-6.338-8.15c.065-2.475.11-4.972.175-7.447 4.934-1.227 9.496-4.25 13.07-7.82 4.123.503 8.005 2.08 11.36 4.534 4.1 2.98 7.368 7.032 9.868 11.413.307.591.724 1.183.9 1.818-.22.68-.593 1.293-.9 1.928-2.938 5.87-6.316 11.5-10.044 16.911-4.298 6.178-9.144 12.005-14.342 17.437-4.386 4.535-9.1 8.763-13.991 12.75-4.934 3.965-10.132 7.601-15.482 10.974-5.286-3.33-10.439-6.922-15.33-10.843-5.197-4.184-10.153-8.675-14.78-13.516-4.869-5.17-9.452-10.668-13.53-16.495-3.992-5.783-7.654-11.83-10.724-18.138 2.39-4.951 5.548-9.485 9.78-13.034 3.619-3.133 8.07-5.148 12.83-5.74z" fill="#FFF"/><path d="M132.72 94.279c.81-.022 1.666.24 2.455.438 4.715 1.183 8.838 3.855 12.15 7.36 2.587 2.673 4.714 5.805 6.425 9.091-3.026 6.221-6.557 12.202-10.46 17.92-4.167 6.067-8.904 11.807-13.948 17.174-4.408 4.6-9.1 8.871-14.035 12.924-4.956 4.009-10.175 7.689-15.57 11.106-8.026-5.06-15.614-10.755-22.588-17.174-12.697-11.588-23.333-25.542-30.943-40.964 2.369-4.863 5.702-9.53 9.978-12.903 3.355-2.672 7.347-4.447 11.601-5.038 3.553 3.461 7.807 6.221 12.61 7.601.022 2.038.131 4.097.131 6.134.022.526-.263.854-.548 1.249-1.908 2.41-3.772 4.863-5.68 7.272-.438.526-.482 1.118-.526 1.753-.22 3.9.066 7.842.921 11.632 1.162 4.907 3.268 9.507 6.798 13.144 2.96 3.132 6.667 5.235 10.746 6.593-.285-1.292-.592-2.585-.877-3.877 2.85.679 5.636 1.314 8.574 1.314 3.114.044 6.097-.591 9.101-1.314-.285 1.292-.592 2.585-.877 3.877 4.057-1.314 7.763-3.439 10.702-6.55 2.368-2.453 4.188-5.454 5.416-8.609 2.062-5.213 2.698-11.062 2.325-16.626-.022-.964-.636-1.512-1.184-2.235-1.513-1.927-3.005-3.855-4.518-5.783-.329-.438-.767-.898-.965-1.424-.066-.438-.044-.876-.044-1.314.066-1.753.088-3.505.154-5.258 4.123-1.182 7.785-3.395 11.03-6.177.57-.394 1.053-.986 1.645-1.336z" fill="#B8B3B7"/><path d="M114.123 185.692c.285-.044.57-.044.855-.066.307.833.636 1.643.965 2.476l.921-2.432h.9v3.308h-.593c0-.898 0-1.796-.022-2.716l-1.053 2.694h-.416c-.351-.898-.68-1.796-1.053-2.672-.022.898-.022 1.774-.022 2.672h-.57c.088-1.073 0-2.19.088-3.264zm-3.246-.044c.834.088 2.237-.284 2.851.373-.417.066-.833.11-1.25.153v2.782h-.57v-2.826h-1.03v-.482z" fill="#69392D"/></g></svg>