<svg width="200" height="200" xmlns="http://www.w3.org/2000/svg"><g fill="none"><path d="M78.592 43.502c.11-.366.183-.732.31-1.08h121.272c-6.93 30.154-13.824 60.362-20.773 90.515-.75 3.109-1.298 6.108-2.414 9.106-1.554 4.243-3.876 8.174-7.405 11.045-3.603 2.962-8.192 4.443-12.837 4.48-11.392.037-22.802.037-34.194.037-2.78.018-5.522-.348-8.137-1.317-3.273-1.207-6.163-3.474-8.046-6.418-1.518-2.377-2.377-5.157-2.597-7.955-.256-2.742.092-5.577.677-8.246 1.207-5.45 2.432-10.88 3.694-16.311h-6.528c-3.182 13.421-6.309 26.88-9.509 40.301H52.096c-.585-.128-1.17-.073-1.755-.054H19.438c-3.255.018-6.601-.494-9.6-1.866-3.164-1.426-5.852-3.876-7.589-6.875-1.371-2.395-2.066-5.065-2.194-7.771v-1.738c.091-1.664.329-3.31.731-4.918 2.45-10.368 4.883-20.736 7.333-31.104h13.769c-1.481-1.61-2.98-3.182-4.462-4.791-3.017-3.401-4.736-7.863-4.736-12.416-.036-1.737.183-3.456.567-5.157 1.463-6.51 2.926-13.02 4.407-19.529.75-3.822 2.158-7.46 4.553-10.57 2.505-3.309 6.034-5.74 9.966-7.057 2.359-.823 4.79-1.134 7.278-1.317 10.99.037 21.997 0 33.005.018" fill="#221F1F"/><path d="M83.438 47.525c.548-.055 1.097-.019 1.645-.019h73.637c-5.54 24.412-11.118 48.823-16.677 73.235a812.307 812.307 0 0 0 5.907-2.487c2.359-9.911 4.7-19.822 7.058-29.733 3.237-13.66 6.491-27.319 9.691-40.996.64-.037 1.299-.037 1.939-.037h26.642c-6.656 29.11-13.33 58.203-20.023 87.296-.603 2.761-1.353 5.43-2.633 7.973-1.39 2.816-3.328 5.302-5.998 6.985-2.413 1.536-5.193 2.212-8.045 2.23-11.648 0-23.278.037-34.926.019-2.89-.092-5.669-.695-8.028-2.45-2.157-1.573-3.547-3.95-4.059-6.547-.585-3.017-.183-5.924.494-8.868 1.664-7.46 3.383-14.921 5.083-22.382-5.98.018-11.977 0-17.956 0-3.018 12.855-6.035 25.71-9.07 38.565a18.199 18.199 0 0 1-.439 1.718c-9.582-.036-19.182 0-28.763-.018.164-.75.347-1.5.53-2.249-2.853 1.573-6.053 2.194-9.29 2.23H19.256c-2.688-.036-5.285-.42-7.68-1.663-2.633-1.353-4.645-3.785-5.45-6.638-.749-2.67-.53-5.394.129-8.046l6.034-25.563c.11-.33.128-.896.366-1.152 7.296-.037 14.738 0 22.052-.018a21.232 21.232 0 0 0-1.207-1.353c-3.748-4.005-7.478-8.01-11.209-12.014-1.261-1.298-2.322-2.798-2.999-4.48-1.133-2.743-1.225-5.724-.585-8.613l4.718-20.937c.475-2.066 1.207-4.06 2.34-5.87 1.317-2.157 3.164-3.986 5.377-5.23 2.76-1.59 6.016-2.303 9.197-2.303H71.79c1.92 0 3.895.237 5.705.86a12.053 12.053 0 0 1 4.919 3.071c.31-1.481.603-3.017 1.024-4.516z" fill="#BC1F26"/><path d="M130.359 53.669c-1.445 1.06-2.816 2.212-4.224 3.291-.311.274-.658.439-.75.878-.457 1.81-.823 3.657-1.335 5.449-8.649-.037-17.316-.018-25.965 0-2.323 9.801-4.499 19.639-6.748 29.458-.238 1.225-.658 2.396-.987 3.602 1.682-1.243 3.4-2.468 5.028-3.785 7.37-.018 14.757-.018 22.126 0-1.445 1.043-2.78 2.231-4.187 3.328-.256.238-.695.476-.75.86-.384 1.737-.75 3.492-1.17 5.23H89.07c-.384 1.7-.732 3.437-1.097 5.138-2.743 11.72-5.523 23.424-8.266 35.145-2.285.073-4.59.018-6.893.018-.53.037-1.116-.128-1.555.256-1.206.878-2.413 1.719-3.62 2.597-.311.22-.567.475-.951.548.256-.932.457-1.883.677-2.834l11.958-50.962c3-12.727 5.962-25.509 8.979-38.217h42.057zm4.553.018c5.321-.037 10.752 0 16.091-.018-1.28.969-2.486 2.03-3.748 3.017-.256.22-.549.42-.768.695-.201.512-.274 1.097-.42 1.645-5.048 21.614-10.094 43.246-15.141 64.86-1.116 4.809-2.268 9.618-3.365 14.427 3.237-1.5 6.473-3.017 9.728-4.498-.585 2.798-1.097 5.614-1.7 8.411-4.151-.018-8.302 0-12.471 0-.64.019-1.225-.128-1.774.275-1.225.786-2.487 1.517-3.712 2.34-1.134-.713-1.81-1.902-2.048-3.218-.274-1.646-.091-3.401.256-5.029.494-2.34 1.024-4.663 1.554-6.985 5.669-24.923 11.447-49.847 17.207-74.752.11-.402.183-.786.311-1.17zm35.182-.018c5.156.018 10.295 0 15.451.018-1.481 1.134-2.962 2.286-4.443 3.401-.53.31-.512 1.115-.677 1.646-5.65 24.411-11.282 48.823-17.006 73.216-.676 2.889-1.718 6.052-4.004 8.064-1.957 1.755-4.517 2.267-7.058 2.23h-9.344a269.946 269.946 0 0 1 10.038-16.658c2.45-3.748 4.974-7.479 7.644-11.08-1.975.548-3.95 1.115-5.925 1.681 4.92-20.754 9.838-41.49 14.757-62.226.036-.42.274-.238.567-.292z" fill="#FEFEFE"/><path d="M130.359 53.669l-3.182 13.33c-8.667.036-17.335-.018-26.002.018-1.902 8.521-3.895 17.024-5.797 25.545-1.627 1.317-3.346 2.524-5.028 3.785.329-1.206.75-2.377.987-3.602 2.25-9.82 4.425-19.657 6.748-29.458 8.649 0 17.316-.018 25.965 0 .512-1.792.878-3.639 1.335-5.45.092-.438.42-.621.75-.877 1.426-1.079 2.798-2.23 4.224-3.291zm20.644 0c-5.888 25.8-11.757 51.602-17.627 77.403 3.237-1.371 6.491-2.725 9.728-4.096-1.463 6.29-2.926 12.562-4.37 18.853-5.504.018-11.008 0-16.53 0-1.555-.019-3.219-.183-4.572-1.006 1.207-.823 2.469-1.554 3.712-2.34.567-.403 1.134-.238 1.774-.275 4.15.018 8.301 0 12.47 0 .604-2.798 1.116-5.614 1.701-8.411-3.236 1.48-6.473 2.998-9.728 4.498 1.097-4.81 2.25-9.618 3.365-14.428 5.047-21.613 10.093-43.245 15.14-64.859.147-.549.22-1.134.42-1.646.22-.256.513-.475.769-.695 1.243-.969 2.468-2.03 3.748-2.998zm34.56 0c-6.162 26.788-12.27 53.613-18.468 80.384-.604 2.724-1.481 5.613-3.127 7.917-1.134 1.61-2.706 2.871-4.608 3.438a9.66 9.66 0 0 1-3.145.402h-15.14c.64-1.207 1.28-2.395 1.956-3.584h9.344c2.56.019 5.12-.475 7.058-2.23 2.286-2.012 3.328-5.175 4.005-8.065 5.705-24.393 11.337-48.804 17.005-73.216.165-.548.147-1.334.677-1.645 1.481-1.116 2.944-2.268 4.443-3.401z" fill="#A6A8AA"/><path d="M41.198 54.272h30.537c1.664.037 3.255.22 4.754.95-1.042.787-2.066 1.61-3.108 2.415.493.585.914 1.206 1.133 1.956.494 1.61.22 3.42-.183 5.01-1.225 5.12-2.468 10.24-3.693 15.36-2.505.019-5.01.019-7.497 0-.33.019-.604-.036-.86.202a1047.993 1047.993 0 0 0-4.681 3.73c1.39-5.687 2.706-11.392 4.06-17.079 1.572-1.317 3.163-2.615 4.68-3.986-8.228-.019-16.475-.019-24.703 0-.074.274-.147.548-.22.84-1.518 6.767-3.145 13.514-4.7 20.261 7.9 8.467 15.8 16.951 23.699 25.418a6.724 6.724 0 0 1 1.902 3.894 10.831 10.831 0 0 1-.256 3.676c-1.536 6.546-3.09 13.166-4.627 19.694-.713 1.92-2.249 3.657-4.187 4.406-2.267.915-5.083.823-7.497.933H19.237c-.458.018-1.043-.11-1.408.201-1.226.878-2.414 1.792-3.658 2.633-.896-.548-1.627-1.335-2.011-2.34-.603-1.573-.402-3.438-.018-5.047 1.755-7.424 3.51-14.866 5.248-22.29h15.817c-1.39.987-2.725 2.048-4.096 3.053-.33.275-.695.42-.768.915-1.134 5.12-2.304 10.24-3.438 15.36-.183.822-.402 1.609-.603 2.432 1.627-1.08 3.2-2.231 4.79-3.347h16.951c1.354-5.705 2.688-11.428 4.042-17.133L26.44 91.045a7.142 7.142 0 0 1-1.609-2.579c-.53-1.48-.494-3.181-.146-4.7l4.717-20.955c.366-1.59.951-3.09 1.884-4.425 1.06-1.536 2.633-2.67 4.388-3.291 1.792-.713 3.64-.86 5.523-.823z" fill="#FEFEFE"/><path d="M76.49 55.223l.036.018c.969.512 1.755 1.317 2.157 2.359.64 1.61.44 3.383.055 5.029-1.7 7.076-3.4 14.153-5.12 21.23H57.563c1.573-1.244 3.127-2.47 4.682-3.731.256-.22.548-.183.859-.201 2.505.018 5.01.018 7.497 0 1.225-5.12 2.469-10.24 3.694-15.36.402-1.591.676-3.401.183-5.01-.22-.75-.64-1.354-1.134-1.957 1.079-.768 2.103-1.59 3.145-2.377z" fill="#A6A8AA"/><path d="M41.637 62.793c8.228-.018 16.475-.018 24.704 0-1.518 1.372-3.127 2.652-4.682 3.986H44.69c-1.115 4.791-2.23 9.582-3.364 14.355-.073.402-.238.823-.22 1.225.256.347.585.658.878.969l22.857 24.503c.878.932 1.5 2.066 1.737 3.328.293 1.463.147 2.907-.22 4.352-1.736 7.35-3.455 14.683-5.174 21.998-.549 2.304-1.573 4.425-3.42 5.96-2.066 1.72-4.79 2.323-7.423 2.341H19.072c-1.646-.018-3.438-.237-4.882-1.06 1.243-.841 2.432-1.756 3.657-2.633.366-.311.95-.183 1.408-.202 8.832.019 17.682 0 26.514 0 2.414-.11 5.23-.018 7.497-.932 1.92-.75 3.475-2.505 4.188-4.407 1.554-6.528 3.09-13.166 4.626-19.694.293-1.207.384-2.432.256-3.675a6.724 6.724 0 0 0-1.902-3.895c-7.9-8.466-15.799-16.95-23.698-25.417 1.536-6.766 3.182-13.495 4.7-20.26.054-.275.11-.55.2-.842z" fill="#A6A8AA"/><path d="M49.59 72.942h4.225c-.841 3.748-1.756 7.479-2.633 11.227-1.17-1.152-2.25-2.395-3.401-3.584.347-1.682.768-3.346 1.152-5.01.237-.896.384-1.792.658-2.633zm56.522.238h17.92a1722.284 1722.284 0 0 1-3.054 13.22c-5.96-.018-11.922 0-17.901 0a3441.34 3441.34 0 0 0 3.035-13.22zM56.65 90.02c5.595-.018 11.19 0 16.785 0-1.078 4.828-2.249 9.619-3.364 14.428-4.462-4.81-8.978-9.6-13.422-14.427z" fill="#221F1F"/><path d="M117.504 92.58c-.987 4.334-1.902 8.705-2.926 13.038-7.424-.036-14.848 0-22.272-.018-3.163 13.422-6.308 26.843-9.472 40.247H66.651l.055-.165c.384-.073.64-.329.951-.548 1.207-.878 2.432-1.72 3.62-2.597.44-.366 1.025-.22 1.555-.256 2.286 0 4.59.037 6.894-.018 2.724-11.721 5.522-23.442 8.265-35.145.384-1.7.713-3.438 1.097-5.139h22.327c.42-1.737.768-3.492 1.17-5.23.055-.365.494-.621.75-.859 1.39-1.079 2.743-2.267 4.169-3.31z" fill="#A6A8AA"/><path d="M39.717 114.286c1.261 1.225 2.395 2.578 3.638 3.84-.694 3.072-1.444 6.125-2.157 9.197-1.463.019-2.926 0-4.389 0 .914-4.15 1.865-8.301 2.78-12.452.036-.201.073-.384.128-.585z" fill="#221F1F"/><path d="M33.225 115.072c-1.353 6.126-2.78 12.251-4.114 18.395-1.591 1.116-3.182 2.268-4.791 3.347.201-.805.42-1.61.603-2.432 1.134-5.12 2.304-10.24 3.438-15.36.073-.476.42-.64.768-.915 1.372-.987 2.706-2.048 4.096-3.035z" fill="#A6A8AA"/><path d="M176.238 144.037h3.364v.932h-1.097v5.632h-1.097c-.055-1.883 0-3.767-.018-5.632h-1.134c0-.31 0-.622-.018-.932zm3.693 0h1.152c.33 1.078.64 2.157.933 3.236.366-1.06.64-2.158.97-3.236h1.151c-.018 2.194 0 4.37 0 6.564h-1.17c0-.914.036-1.828-.018-2.743-.22.713-.366 1.445-.586 2.176h-.676c-.201-.731-.366-1.48-.549-2.212-.073.932-.018 1.865-.055 2.797h-1.17c.018-2.212 0-4.406.018-6.582z" fill="#221F1F"/></g></svg>