<svg width="200" height="200" xmlns="http://www.w3.org/2000/svg"><g fill="none"><path d="M198.09 112.094c-.046-.017-6.146-2.234-7.15-2.752a30.203 30.203 0 0 1-4.325-2.76c-3.486-2.643-7.865-7.027-11.218-13.94-3.09-6.369-6.368-10.504-9.064-13.131 4.393-2.735 11.65-6.833 11.65-6.833l-4.518-3.946c-.2-.174-3.65-3.157-9.73-5.897-.942-3.364-2.966-10.32-4.72-14.554-2.338-5.646-5.978-12.899-11.007-18.138-3.473-3.614-9.216-7.537-13.818-8.753l-2.133-.563-1.687 1.42c-.168.142-5.028 4.25-9.14 11.192a34.338 34.338 0 0 0-4.81.293c-3.107-4.096-7.192-5.668-10.45-6.362-7.099-1.51-14.856-2.763-22.504-2.582-9.047.209-17.058 6.648-22.194 11.319-6.355 5.786-11 15.664-2.534 24.34.668.74 1.26 1.531 1.782 2.367-18.157 8.176-30.167 20.94-35.606 27.405-.245-.088-.48-.166-.7-.227a6.452 6.452 0 0 0-1.485-.245c-.574-.022-1.7.024-2.827.75-2.693 1.734-6.443 5.431-9.655 8.69-1.628 1.65-3.237 3.318-4.675 4.78-1.42 1.445-2.671 2.685-3.604 3.502L0 109.19l.652 2.532c5.773 22.41 30.317 51.107 59.74 61.206 2.007 2.57 5.345 5.345 8.702 6.49 7.436 2.534 14.176.939 19.411-3.107 5.528-.535 11.915-1.93 15.217-5.76l.6-.697s.091-.27.25-.764c1.51 1.004 3.508 1.621 5.71 1.621 3.177 0 5.943-1.276 7.404-3.167 3.971 2.847 8.64 5.712 8.64 5.712l.475-3.465c3.376 2.918 8.69 7.398 8.69 7.398l-.071-5.45c3.48 2.07 10.93 6.06 10.93 6.06s-1.74-7.089-2.812-11.614l2.294.08c.99.036 8.356-.05 19.375-8.277l4.18-.854c13.77-2.815 26.573-17.741 21.677-38.368l.17-.069c.7-.291 1.235-.586 1.597-.804.12-.073.439-.298.837-.606l.995-.782c.684-.542 4.843-3.898 4.843-3.898l-1.416-.514zm-89.625 50.255h-1.107v4.013h-1.333v-4.013h-1.11v-1.132h3.55v1.132zm6.621 4.013h-1.336l-.27-2.153-.1-.809h-.014l-.207.494-1.032 2.468h-.528l-1.184-2.962h-.013l-.427 2.962h-1.33l.876-5.145h1.313l.15.394.895 2.357.42-1.048.681-1.703h1.331l.643 4.266.132.879zm53.451-13.388s1.862-3.266 3.27-6.518c-15.447 15.932-25.826 15.567-25.826 15.567s1.058-2.592 1.505-5.64c0 0-6.352 2.876-9.836 2.94a309.961 309.961 0 0 0 2.306 10.242s-6.452-3.452-8.765-7.183c-.13.813-.067 5.556-.067 5.556s-8.075-6.83-9.544-10.011c.32 2.646 1.016 5.554 1.016 5.554s-12.18-7.855-17.249-13.847c-1.527 6.835-4.841 18.145-4.841 18.145-1.327 1.54-3.997 2.689-7.129 3.504-2.288.595-4.821 1.012-7.262 1.272-4.451 3.245-9.983 4.478-15.56 2.577-2.588-.882-4.85-2.947-6.208-4.508a71.204 71.204 0 0 1-5.83-1.922c-27.95-10.533-52.103-38.625-54.693-57.454 3.859-3.377 13.952-14.332 18.378-17.182.742-.478 3.479 1.44 4.29.922C30.903 89.49 44.428 73.5 66.278 65.002c-.988-2.676-2.396-5.193-4.388-7.4-6.062-6.098-3.459-13.167 2.24-18.354 5.19-4.721 12.138-10.047 19.435-10.215 7.156-.17 14.534 1.005 21.52 2.49 3.194.681 6.91 2.264 9.275 6.9 3.023-.73 6.657-.91 9.289-.583 3.942-7.703 9.456-12.345 9.456-12.345 3.623.957 8.718 4.34 11.84 7.59 8.95 9.321 13.582 26.65 13.582 26.65s-3.39-1.154-7.734-1.961c1.184 1.618 3.659 6.273 3.659 6.273 10.26 2.678 16.22 7.884 16.22 7.884s-5.037 2.846-9.03 5.557c-.214.72-.422 1.844-.352 3.251 2.411 1.851 6.445 5.84 10.287 13.757 7.38 15.214 19.41 19.53 19.41 19.53s-1.923 1.503-5.304 1.503c7.288 20.552-4.857 34.934-17.146 37.445z" fill="#FFF"/><path d="M165.1 94.402c-6.502-12.995-14.174-14.573-14.174-14.573-3.124-1.276-5.761-1.243-5.761-1.243 2.964-1.792 6.022-1.857 8.515-1.37a47.538 47.538 0 0 1 8.476-5.836c-5.027-2.269-11.682-4.752-11.682-4.752s-13.185-28.742-40.28-21.124c0 0-.34-7.223-3.655-8.085-6.224-1.618-19.592-3.517-24.77-2.839-3.202.417-13.603 7.12-17.162 12.117-1.577 2.213-1.086 4.787.56 6.543.333.355 8.721 7.14 7.662 26.41 0 0 .856.748 2.373.455 1.266-.244 13.015-4.664 17.676-36.86 0 0 3.135-2.865 7.171-.98 6.363 2.97 3.89 13.397.907 16.336 0 0-.495-5.823-4.93-6.408-1.106 8.055-3.335 16.072-7.794 23.045-3.469 5.425-13.317 13.495-20.042 6.238.174-3.135.15-6.407-.274-9.62-3.93.915-11.313 3.946-22.25 13.835 1.21-.245 9.526 2.128 9.526 2.128-.113.045-14.338 7.437-21.326 15.7 4.148 9.228 16.347 20.017 20.058 23.133 5.162 4.336 10.148 7.516 14.8 9.84a61.835 61.835 0 0 0 6.768 2.901c.645-.58 2.135-.859 3.177-1.244 1.978-.733 5.29-.658 8.49.566 2.274.87 4.028 2.183 5.343 3.788 2.295-.007 4.01-.206 5.021-.367.686-.109 1.052-.2 1.052-.2-1.454-3.159-4.129-9.944-3.402-18.676 2.22-26.67 16.133-30.305 16.133-30.305-8.164 11.132-15.698 34.997 4.654 55.368.184-4.11 1.347-7.61 1.347-7.61s3.27 7.357 9.143 12.899c-2.685-11.751.911-20.732.911-20.732s1.026 3.789 3.002 6.88c.992-21.808 24.755-24.504 24.755-24.504s-3.136 1.698-6.873 4.764c3.277 1.948 7.262 8.16 12.44 12.784 0 0 9.315-2.588 11.203-.783 1.691 1.61-2.378 5.763-2.378 5.763s.501-4.731-9.397-1.494c0 0-9.657-4.797-24.128 3.65a19.475 19.475 0 0 0-.008 2.931c3.65-1.016 6.737-.715 9.268.166 1.672 3.347-.393 8.162-.393 8.162 4.211-1.528 5.685-5.033 5.685-5.033s1.547 6.442.251 10.954c11.535-6.715 9.109-18.337 9.109-18.337 9.96-2.562 9.872 4.005 9.872 4.005 4.628-2.368 6.885-10.38 6.546-16.587 0 0 3.949 3.95 1.387 12.9 0 0 9.014-4.885 4.183-24.726 0 0-10.831-8.071-16.784-19.973zm-30.72-6.172c-10.43-7.271-24.46 1.51-24.46 1.51 1.05-5.302 4.985-7.351 4.985-7.351-8.196-.724-17.438 8.637-17.438 8.637 4.565-10.614 12.57-12.522 12.57-12.522s-4.954-.34-10.284 3.173c0 0 6.646-13.601 18.087-13.575-1.486-1.29-2.884-2.373-4.049-3.055 0 0 16.643 2.626 20.739 14.774 2.849-.553 3.563-4.639 3.563-4.639 2.888 5.384-3.714 13.048-3.714 13.048zm5.576 28.15c.682-4.332 1.828-7.23 7.163-8.443 5.107-1.158 10.064 4.261 10.064 4.261-10.909-4.313-17.227 4.182-17.227 4.182zm35.046 5.522c-4.467 4.256-10.199 7.96-10.199 7.96l.506-2.507c-3.994-2.791-4.609-4.092-6.129-6.163-.698-.948-1.265-1.281-1.836-1.121-1.022.282-1.346 1.483-1.358 2.356-2.155-2.409-4.191-10.098 15.315-9.06.028-2.16-3.362-6.06-3.362-6.06 4.467 1.895 6.721 3.592 8.202 5.325 1.48 1.733 2.528 5.78-1.139 9.27zm-25.67-72.107c-2.619-11.26-11.77-17.259-15.323-20.023 0 0-4.255 3.92-6.017 8.96 6.223 1.523 11.531 6.693 11.531 6.693 4.389.12 7.651 2.295 9.809 4.37" fill="#FFF"/><path d="M123.127 79.123a3.022 3.022 0 0 1-.014-.337c.247.082.515.124.796.103.698-.053 1.26-.449 1.508-.979a23.65 23.65 0 0 0-1.773-.758 21.398 21.398 0 0 0-1.515-.508 18.2 18.2 0 0 0-3.737-.702c-.41.682-.836 1.627-.899 2.692 0 0-.865 5.182 6.068 2.984.295-.094.591-.177.888-.255-.735-.545-1.234-1.334-1.322-2.24m38.788 37.279c10.275.156 11.504 3.78 11.504 3.78 3.01-1.495 1.928-3.684 1.928-3.684-5.486-2.025-13.432-.096-13.432-.096m-9.264 15.438s-1.544-3.292-4.37-5.36a9.175 9.175 0 0 0-1.702-.992 7.201 7.201 0 0 0-3.427-.622 36.953 36.953 0 0 0-2.02 2.455c3.653-.019 6.11 2.4 6.11 2.4s-4.139-.456-8.053.507a24.977 24.977 0 0 0-2.237 4.91c2.36-1.038 9.996-4.121 15.7-3.298m-66.609 29.103c-1.342 2.536-3.228 4.66-5.342 6.173-3.341 2.391-7.251 3.252-10.487 1.766 0 0-.065 1.4 1.663 2.28 4.383 2.233 9.79.318 13.695-4.054a20.018 20.018 0 0 0 3.182-4.843c2.31-4.935 2.663-10.765.978-14.873-.907-2.209-2.401-3.92-4.502-4.724-4.749-1.816-6.39.927-6.39.927 1.059.072 2.94.29 3.91.737 1.35.62 2.448 1.585 3.282 2.78 2.428 3.485 2.589 8.96.011 13.831" fill="#FFF"/><path d="M171.577 94.496C167.735 86.58 163.7 82.59 161.29 80.74c-.07-1.407.138-2.531.352-3.251 3.993-2.711 9.03-5.557 9.03-5.557s-5.96-5.206-16.22-7.884c0 0-2.475-4.655-3.66-6.273 4.345.807 7.735 1.961 7.735 1.961s-4.633-17.329-13.582-26.65c-3.122-3.25-8.217-6.633-11.84-7.59 0 0-5.514 4.642-9.456 12.345-2.632-.328-6.266-.147-9.289.583-2.366-4.636-6.08-6.219-9.275-6.9-6.986-1.485-14.364-2.66-21.52-2.49-7.297.168-14.244 5.494-19.435 10.215-5.699 5.187-8.302 12.256-2.24 18.354 1.992 2.207 3.4 4.724 4.388 7.4C44.428 73.5 30.903 89.49 26.492 94.988c-.811.517-3.548-1.4-4.29-.922-4.426 2.85-14.52 13.805-18.378 17.182 2.59 18.829 26.743 46.92 54.693 57.454a71.204 71.204 0 0 0 5.83 1.922c1.358 1.561 3.62 3.626 6.208 4.508 5.577 1.901 11.109.668 15.56-2.577 2.44-.26 4.974-.677 7.262-1.272 3.132-.815 5.802-1.963 7.129-3.504 0 0 3.314-11.31 4.841-18.145 5.068 5.992 17.249 13.847 17.249 13.847s-.696-2.908-1.016-5.554c1.469 3.18 9.544 10.01 9.544 10.01s-.062-4.742.067-5.555c2.313 3.731 8.765 7.183 8.765 7.183s-1.256-5.112-2.306-10.241c3.484-.065 9.836-2.94 9.836-2.94-.447 3.047-1.505 5.639-1.505 5.639s10.379.365 25.825-15.567c-1.407 3.252-3.269 6.518-3.269 6.518 12.289-2.511 24.434-16.893 17.146-37.445 3.381 0 5.303-1.503 5.303-1.503s-12.03-4.316-19.41-19.53zm-37.568-64.724c3.553 2.764 12.704 8.764 15.323 20.023-2.158-2.075-5.42-4.25-9.809-4.37 0 0-5.308-5.17-11.53-6.693 1.76-5.04 6.016-8.96 6.016-8.96zM10.05 112.253c1.25-1.09 11.918-12.072 13.262-13.081 4.434 7.096 20.875 30.487 43.375 41.893 2.822 1.43 5.737 2.676 8.738 3.673l.045.037.8.434.528.28c.216.113.378.182.413.192 4.939 1.442 6.996 6.724 5.136 12.28-1.755 5.244-6.294 7.977-10.92 7.958a69.799 69.799 0 0 1-9.41-2.659c-26.113-9.351-47.738-33.455-51.967-51.007zm72.699 32.079c-.97-.446-2.851-.665-3.91-.737 0 0 1.641-2.743 6.39-.927 2.1.803 3.595 2.515 4.502 4.724 1.685 4.108 1.331 9.938-.978 14.873a20.018 20.018 0 0 1-3.182 4.843c-3.905 4.372-9.312 6.287-13.695 4.055-1.728-.88-1.663-2.281-1.663-2.281 3.236 1.486 7.146.625 10.487-1.766 2.114-1.513 4-3.637 5.342-6.173 2.578-4.871 2.417-10.346-.011-13.83-.834-1.196-1.932-2.161-3.282-2.781zm16.635 11.038c-1.215 4.079-2.472 8.104-2.925 9.713-.288.16-2.201.602-4.486 1.04.474-.775.91-1.584 1.302-2.423 2.264-4.838 3.267-11.18 1.71-16.408a46.302 46.302 0 0 0 4.134-.504c.92-.154 1.844-.327 2.773-.54-.453 2.089-1.465 5.625-2.508 9.122zm39.804-25.142c3.914-.963 8.053-.507 8.053-.507s-2.457-2.419-6.11-2.4a36.953 36.953 0 0 1 2.02-2.455 7.201 7.201 0 0 1 3.427.622c.61.27 1.178.61 1.701.992 2.827 2.068 4.371 5.36 4.371 5.36-5.703-.823-13.339 2.26-15.699 3.297a24.977 24.977 0 0 1 2.237-4.909zm38.513 8.872c2.562-8.948-1.387-12.9-1.387-12.9.339 6.208-1.918 14.22-6.546 16.588 0 0 .087-6.567-9.872-4.005 0 0 2.426 11.622-9.109 18.337 1.296-4.512-.251-10.954-.251-10.954s-1.474 3.505-5.685 5.033c0 0 2.065-4.815.393-8.162-2.531-.88-5.618-1.182-9.268-.166a19.475 19.475 0 0 1 .008-2.93c14.47-8.448 24.128-3.65 24.128-3.65 9.898-3.238 9.397 1.493 9.397 1.493s4.07-4.153 2.378-5.763c-1.888-1.805-11.203.783-11.203.783-5.178-4.624-9.163-10.836-12.44-12.784 3.737-3.066 6.873-4.764 6.873-4.764s-23.763 2.696-24.755 24.503c-1.976-3.09-3.002-6.879-3.002-6.879s-3.596 8.98-.91 20.732c-5.875-5.542-9.144-12.9-9.144-12.9s-1.163 3.501-1.347 7.61c-20.352-20.37-12.818-44.235-4.654-55.367 0 0-13.913 3.636-16.133 30.305-.727 8.732 1.948 15.517 3.402 18.676 0 0-.366.091-1.052.2-1.012.16-2.726.36-5.02.367-1.316-1.605-3.07-2.919-5.343-3.788-3.201-1.224-6.513-1.299-8.491-.566-1.042.385-2.532.663-3.177 1.244a61.835 61.835 0 0 1-6.768-2.901c-4.652-2.324-9.638-5.504-14.8-9.84-3.711-3.116-15.91-13.905-20.058-23.133 6.988-8.263 21.213-15.655 21.326-15.7 0 0-8.315-2.373-9.526-2.128 10.937-9.889 18.32-12.92 22.25-13.834.423 3.212.448 6.484.274 9.619 6.725 7.257 16.573-.813 20.042-6.238 4.46-6.973 6.688-14.99 7.793-23.045 4.436.585 4.931 6.408 4.931 6.408 2.983-2.94 5.456-13.366-.907-16.337-4.036-1.884-7.17.98-7.17.98-4.662 32.197-16.411 36.617-17.677 36.86-1.517.294-2.373-.454-2.373-.454 1.06-19.27-7.33-26.055-7.662-26.41-1.646-1.756-2.137-4.33-.56-6.543 3.56-4.996 13.96-11.7 17.162-12.117 5.178-.678 18.546 1.22 24.77 2.839 3.315.862 3.655 8.085 3.655 8.085 27.095-7.618 40.28 21.124 40.28 21.124s6.655 2.483 11.682 4.752a47.538 47.538 0 0 0-8.476 5.835c-2.493-.486-5.55-.421-8.515 1.371 0 0 2.637-.033 5.761 1.243 0 0 7.672 1.578 14.175 14.573 5.953 11.902 16.784 19.973 16.784 19.973 4.831 19.841-4.183 24.725-4.183 24.725z" fill="#1A5DAD"/><path d="M134.53 79.82c-4.096-12.147-20.739-14.773-20.739-14.773 1.165.682 2.563 1.766 4.049 3.055-11.441-.026-18.087 13.575-18.087 13.575 5.33-3.513 10.284-3.173 10.284-3.173s-8.005 1.908-12.57 12.522c0 0 9.242-9.361 17.438-8.637 0 0-3.935 2.049-4.985 7.352 0 0 14.03-8.782 24.46-1.51 0 0 6.601-7.665 3.713-13.049 0 0-.714 4.086-3.563 4.639zm-10.969 1.798c-6.933 2.198-6.068-2.984-6.068-2.984.063-1.065.488-2.01.9-2.692a18.2 18.2 0 0 1 3.736.702c.52.154 1.027.323 1.515.508a23.65 23.65 0 0 1 1.773.758c-.248.53-.81.926-1.508.979-.28.021-.55-.02-.796-.103a2.95 2.95 0 0 0 .014.337c.088.906.587 1.695 1.322 2.24-.297.078-.593.161-.888.255zm23.558 26.319c-5.335 1.212-6.481 4.11-7.163 8.443 0 0 6.318-8.495 17.227-4.182 0 0-4.957-5.42-10.064-4.26m20.821-.631s3.39 3.9 3.36 6.06c-19.505-1.038-17.469 6.651-15.314 9.06.012-.873.336-2.074 1.358-2.356.57-.16 1.138.173 1.836 1.12 1.52 2.072 2.135 3.373 6.129 6.164l-.506 2.507s5.732-3.704 10.2-7.96c3.666-3.49 2.617-7.537 1.138-9.27-1.48-1.733-3.735-3.43-8.202-5.325zm5.479 12.875s-1.229-3.624-11.504-3.78c0 0 7.946-1.929 13.432.096 0 0 1.082 2.189-1.928 3.684zm-68.503 41.035v1.132h1.109v4.013h1.333v-4.013h1.107v-1.132h-3.549m8.064 0-.682 1.703-.42 1.048-.894-2.357-.15-.394h-1.313l-.876 5.145h1.33l.427-2.962h.013l1.184 2.962h.528l1.032-2.468.207-.494h.013l.101.809.27 2.153h1.336l-.132-.879-.643-4.266h-1.33m-53.278-7.739-1.477 2.12c-1.976-.795-3.099-1.528-4.642-2.386l5.875-8.437c1.558.781 3.018 1.746 4.607 2.472l-1.394 2s2.135.486 3.195.714l2.365-3.658s-3.125-1.424-4.593-2.115c-1.094-.514-4.03-2.392-4.222-2.367 0 0-1.743.211-1.809.306-.642.917-7.517 10.757-7.528 10.811l.669 1.702c2.001 1.186 7.034 3.683 8.77 4.35l2.602-3.71-2.418-1.802m-12.822-12.722 2.155-3.076c1.327 1.095 2.445 1.808 3.708 2.638l-.925 1.52c.615.716 1.995 2.267 1.995 2.267l2.947-4.22-.133-.085c-1.62-1.024-3.193-2.12-4.764-3.22-1.633-1.143-3.154-2.44-4.698-3.7l-.127-.102-1.442 2.07 1.027.942-2.183 3.128-1.053-.866-1.447 2.077 1.05.865-2.493 3.573-1.06-.874-1.34 2.165a77.913 77.913 0 0 0 4.732 3.636l1.329-2.16c-.422-.296-.84-.595-1.254-.9l2.525-3.605c.905.66 1.825 1.299 2.877 2.006l1.46-2.067-.128-.086a88.566 88.566 0 0 1-2.758-1.926m-6.764-5.517s.001-.009-.074-.084l-.614-.608-1.507-1.49a439.12 439.12 0 0 1-2.68-2.663l2.205-3.178a216.642 216.642 0 0 0 3.711 3.718l-1.129 1.632.135.083c.784.485 1.573.962 2.367 1.43l.2-.045.754-1.08.455-.655.191-.277c.053-.08-.285-1.706-.285-1.706l-.122-.394s-2.121-2.044-2.978-2.905c-.661-.663-2.74-2.847-2.95-3.003 0 0-1.638.08-1.762-.008l-3.71 5.296.34 1.905s4.065 4.222 4.85 4.993l-2.524 3.646c-1.272-1.252-2.55-2.686-3.795-3.964l1.34-1.93-2.491-1.637-1.752 2.5.367 2.024c.072.142 5.622 5.875 6.031 6.18 0 0 1.699-.122 1.823-.035l4.001-5.78c.01-.055-.377-1.929-.397-1.965" fill="#1A5DAD"/><path d="M94.985 147.292c1.558 5.229.555 11.57-1.709 16.408a24.786 24.786 0 0 1-1.302 2.422c2.285-.437 4.198-.878 4.486-1.039.453-1.61 1.71-5.634 2.925-9.713 1.043-3.497 2.055-7.033 2.508-9.122-.93.213-1.852.386-2.773.54-1.388.232-2.766.4-4.135.504m-12.637 10.669c1.86-5.556-.197-10.838-5.136-12.28a3.587 3.587 0 0 1-.413-.192l-.527-.28-.801-.434-.045-.037c-3-.997-5.916-2.243-8.738-3.673-22.5-11.406-38.941-34.797-43.375-41.893-1.344 1.01-12.013 11.99-13.262 13.081 4.229 17.552 25.854 41.656 51.968 51.007a69.799 69.799 0 0 0 9.409 2.66c4.626.018 9.165-2.715 10.92-7.959zM34.69 143.02c-.409-.305-5.959-6.038-6.031-6.18l-.367-2.024 1.752-2.5 2.49 1.637-1.34 1.93c1.245 1.278 2.524 2.712 3.796 3.964l2.524-3.646c-.785-.77-4.85-4.993-4.85-4.993l-.34-1.905 3.71-5.296c.124.087 1.762.008 1.762.008.21.156 2.289 2.34 2.95 3.003.857.86 2.978 2.905 2.978 2.905l.122.394s.338 1.626.285 1.706l-.19.277-.456.655-.754 1.08-.2.045c-.794-.468-1.583-.945-2.367-1.43l-.135-.083 1.13-1.632a216.642 216.642 0 0 1-3.712-3.718l-2.205 3.178c.475.48 1.621 1.617 2.68 2.664l1.507 1.49.614.607c.075.075.074.084.074.084.02.036.408 1.91.397 1.964l-4.001 5.78c-.124-.086-1.823.036-1.823.036zm13.617 1.816a89.465 89.465 0 0 1-2.877-2.006l-2.525 3.605c.414.305.832.604 1.254.9l-1.33 2.16a77.913 77.913 0 0 1-4.73-3.636l1.339-2.165 1.06.874 2.494-3.573-1.051-.865 1.447-2.077 1.053.866 2.183-3.128-1.027-.942 1.442-2.07.127.103c1.544 1.259 3.065 2.556 4.698 3.7 1.57 1.1 3.143 2.195 4.764 3.22l.133.084-2.947 4.22s-1.38-1.551-1.995-2.266l.925-1.52c-1.263-.83-2.38-1.544-3.708-2.639l-2.155 3.076c.907.66 1.828 1.3 2.758 1.926l.128.086-1.46 2.067zm11.213 14.156c-1.737-.668-6.77-3.165-8.771-4.35l-.669-1.703c.01-.054 6.886-9.894 7.528-10.811.066-.095 1.81-.306 1.81-.306.191-.025 3.127 1.853 4.22 2.367 1.469.69 4.594 2.115 4.594 2.115l-2.365 3.658c-1.06-.228-3.195-.714-3.195-.714l1.394-2c-1.589-.726-3.049-1.691-4.607-2.472l-5.875 8.437c1.543.858 2.666 1.591 4.642 2.385l1.477-2.119 2.418 1.802-2.601 3.71z" fill="#E51636"/></g></svg>