<?xml version="1.0" encoding="UTF-8"?>
<svg width="200px" height="200px" viewBox="0 0 200 200" version="1.1" xmlns="http://www.w3.org/2000/svg" xmlns:xlink="http://www.w3.org/1999/xlink">
    <!-- Generator: Sketch 51.3 (57544) - http://www.bohemiancoding.com/sketch -->
    <title>st-francis-ny</title>
    <desc>Created with Sketch.</desc>
    <defs></defs>
    <g id="st-francis-ny" stroke="none" stroke-width="1" fill="none" fill-rule="evenodd">
        <g id="st-francis-ny_BGL" transform="translate(0.000000, 20.000000)">
            <g id="st-francis-ny">
                <g id="g10" transform="translate(99.999998, 80.473833) scale(-1, 1) rotate(-180.000000) translate(-99.999998, -80.473833) translate(0.000000, 0.308545)" fill-rule="nonzero">
                    <g id="g12">
                        <path d="M198.090353,68.5454528 C198.043521,68.5625327 191.944348,70.7790616 190.940491,71.2975189 C189.852337,71.8600533 188.335532,72.7515133 186.614871,74.0561965 C183.128921,76.7002736 178.750409,81.0842955 175.397241,87.996692 C172.306332,94.3658379 169.029197,98.500824 166.332778,101.128372 C170.725616,103.862807 177.982365,107.96143 177.982365,107.96143 L173.465009,111.906884 C173.26556,112.080989 169.814321,115.063909 163.734982,117.803854 C162.792833,121.168041 160.769142,128.124515 159.015423,132.358123 C156.677131,138.004404 153.037462,145.256746 148.008261,150.495864 C144.534983,154.109638 138.792283,158.033054 134.189528,159.249032 L132.057297,159.812117 L130.370245,158.392283 C130.20165,158.250134 125.342146,154.142696 121.229749,147.200547 C119.683193,147.217627 118.034157,147.120107 116.419281,146.906883 C113.313496,151.003302 109.227545,152.574652 105.969143,153.268867 C98.8710719,154.778509 91.1140473,156.031952 83.4661136,155.851236 C74.4192819,155.64242 66.4077118,149.203302 61.2721748,144.532228 C54.9166928,138.746553 50.2724505,128.868316 58.7377396,120.191733 C59.4060591,119.451237 59.9972437,118.661154 60.5195577,117.82479 C42.3626987,109.649033 30.3527265,96.885948 24.9139388,90.4203834 C24.6687597,90.5085377 24.4331123,90.5862236 24.2142143,90.6473807 C23.8757019,90.7421465 23.3458396,90.8688683 22.7285394,90.8925597 C22.1545449,90.9145983 21.028319,90.8683173 19.9023136,90.1426975 C17.2090354,88.4082623 13.4594487,84.7107417 10.2466664,81.4523396 C8.61917334,79.8016509 7.01035795,78.1338823 5.57184559,76.6716234 C4.1516032,75.2275463 2.9009531,73.986775 1.96797791,73.1702461 L0,71.4479321 L0.652330562,68.9157008 C6.42451775,46.5058942 30.9687045,17.8092558 60.391734,7.71024774 C62.3994475,5.14096957 65.7371884,2.36505779 69.0936622,1.22051237 C76.5300256,-1.31435258 83.2699704,0.281293106 88.5052319,4.32679328 C94.0330555,4.86247371 100.420383,6.25647367 103.722311,10.0878234 L104.322862,10.7840218 C104.322862,10.7840218 104.413221,11.0543799 104.572449,11.5483193 C106.082091,10.5436361 108.080438,9.92705209 110.282091,9.92705209 C113.45895,9.92705209 116.22479,11.2028647 117.686498,13.0937738 C121.657297,10.2468317 126.326719,7.38165271 126.326719,7.38165271 L126.800548,10.8471072 C130.176856,7.92914581 135.490906,3.44955363 135.490906,3.44955363 L135.419831,8.89933862 C138.89917,6.82958661 146.35041,2.83983464 146.35041,2.83983464 C146.35041,2.83983464 144.609363,9.92809893 143.537737,14.4531126 L145.831952,14.3723963 C146.822035,14.3375754 154.187875,14.4223688 165.207158,22.6498066 L169.387324,23.5042418 C183.157571,26.318677 195.960326,41.2454535 191.064458,61.8721748 L191.233604,61.9410453 C191.93443,62.2325053 192.469417,62.5267202 192.830849,62.744902 C192.950408,62.8176293 193.269968,63.0435246 193.667764,63.3509626 L194.663356,64.1333317 C195.346552,64.6754805 199.50578,68.0314033 199.50578,68.0314033 L198.090353,68.5454528 Z M108.465011,18.2903026 L107.358124,18.2903026 L107.358124,14.2775203 L106.024791,14.2775203 L106.024791,16.3251236 L106.024791,18.2903026 L104.9157,18.2903026 L104.9157,19.422589 L106.893661,19.422589 L108.465011,19.422589 L108.465011,18.2903026 Z M115.086499,14.2775203 L113.75041,14.2775203 L113.480438,16.4303577 L113.379061,17.2389527 L113.365837,17.2389527 L113.159226,16.7452337 L112.126719,14.2775203 L111.598895,14.2775203 L110.414873,17.2389527 L110.40165,17.2389527 L109.974653,14.2775203 L108.645176,14.2775203 L109.520658,19.422589 L110.576306,19.422589 L110.833606,19.422589 L110.984019,19.0276579 L111.878785,16.6714045 L112.298069,17.7188976 L112.980162,19.422589 L114.311292,19.422589 L114.954267,15.1558123 L115.086499,14.2775203 Z M168.537186,27.6646274 C168.537186,27.6646274 170.398894,30.9308532 171.806056,34.1834702 C156.359776,18.251129 145.981264,18.6161428 145.981264,18.6161428 C145.981264,18.6161428 147.039115,21.2078232 147.485947,24.2553162 C147.485947,24.2553162 141.134432,21.3797791 137.649583,21.3154265 C138.700272,16.1858398 139.955919,11.0741595 139.955919,11.0741595 C139.955919,11.0741595 133.503578,14.525895 131.19063,18.2571345 C131.061705,17.4444624 131.123964,12.7012118 131.123964,12.7012118 C131.123964,12.7012118 123.049033,19.53168 121.579611,22.7122308 C121.899721,20.0658397 122.595589,17.1582365 122.595589,17.1582365 C122.595589,17.1582365 110.415424,25.0128919 105.347105,31.0046273 C103.820383,24.1703024 100.505783,12.8600548 100.505783,12.8600548 C99.1785099,11.3192835 96.5085375,10.1710741 93.3774081,9.35625321 C91.088703,8.76099152 88.5559207,8.34385654 86.1151494,8.08369126 C81.6639098,4.83879878 76.1316785,3.60580156 70.5548192,5.50705771 C67.9674914,6.38881527 65.7046816,8.45388409 64.3471058,10.0154818 C62.3895301,10.5660052 60.4446266,11.2106333 58.5168029,11.9371898 C30.5666659,22.4705229 6.41355356,50.5625883 3.82425335,69.3911828 C7.68291992,72.7680423 17.7761428,83.7228629 22.2017074,86.5730006 C22.9442419,87.0512375 25.680936,85.1338822 26.4921205,85.6506866 C30.903305,91.1487581 44.4279328,107.139942 66.2776843,115.636912 C65.2903565,118.313496 63.8815411,120.8303 61.8898056,123.037462 C55.8275468,129.134983 58.4314035,136.204404 64.1300259,141.391181 C69.3206594,146.112393 76.2677667,151.438013 83.5652872,151.606057 C90.7206589,151.775203 98.0986201,150.601098 105.084846,149.115699 C108.279336,148.434707 111.994488,146.851787 114.360328,142.216525 C117.383468,142.946002 121.016526,143.126718 123.649033,142.798895 C127.59063,150.502476 133.105231,155.143798 133.105231,155.143798 C136.72782,154.186773 141.823137,150.803302 144.945451,147.554266 C153.894211,138.233054 158.527269,120.904129 158.527269,120.904129 C158.527269,120.904129 155.136635,122.057848 150.792834,122.865562 C151.976856,121.24738 154.451787,116.591733 154.451787,116.591733 C164.712393,113.914047 170.671621,108.708537 170.671621,108.708537 C170.671621,108.708537 165.635258,105.862256 161.64242,103.151513 C161.427544,102.431402 161.219831,101.306885 161.290354,99.899722 C163.701373,98.0490334 167.734982,94.0595018 171.576855,86.1426976 C178.956469,70.9289238 190.986221,66.6132215 190.986221,66.6132215 C190.986221,66.6132215 189.064458,65.1101912 185.68264,65.1101912 C192.971345,44.5577399 180.825891,30.1762527 168.537186,27.6646274 Z" id="path14" fill="#FFFFFF"></path>
                        <path d="M165.100822,86.2374634 C158.598343,99.2325044 150.926167,100.810466 150.926167,100.810466 C147.801649,102.085948 145.164735,102.05289 145.164735,102.05289 C148.129473,103.845176 151.187324,103.909639 153.680437,103.423689 C155.615974,105.092559 158.502475,107.299171 162.15647,109.25895 C157.129473,111.527821 150.474376,114.011567 150.474376,114.011567 C150.474376,114.011567 137.289253,142.753164 110.193937,135.135534 C110.193937,135.135534 109.853992,142.358123 106.53884,143.220382 C100.314598,144.838564 86.9465543,146.736635 81.769144,146.05895 C78.5674911,145.642421 68.1663895,138.938289 64.6071609,133.942145 C63.0303015,131.729473 63.5212105,129.155369 65.1674915,127.398895 C65.4997229,127.044074 73.8881524,120.25895 72.8291993,100.989529 C72.8291993,100.989529 73.6848466,100.24132 75.202202,100.534433 C76.4677667,100.77851 88.2165267,105.198344 92.8782346,137.394487 C92.8782346,137.394487 96.0126698,140.25895 100.049033,138.374652 C106.411568,135.403853 103.939391,124.977407 100.956471,122.038564 C100.956471,122.038564 100.461155,127.861154 96.025342,128.446278 C94.9201078,120.390631 92.6914577,112.374102 88.2319537,105.401099 C84.7630833,99.976306 74.9145987,91.9057828 68.18953,99.1630829 C68.3636347,102.298069 68.3393922,105.570245 67.9157008,108.782366 C63.9856733,107.868317 56.6027534,104.836912 45.6661146,94.948207 C46.8769134,95.193386 55.1917342,92.8198324 55.1917342,92.8198324 C55.0790069,92.7746533 40.8539935,85.382918 33.866225,77.1201083 C38.0141588,67.8925603 50.2128362,57.1035798 53.9236901,53.9869408 C59.0864999,49.6511282 64.0721747,46.4714589 68.7239652,44.1472716 C71.0721745,42.9741036 73.3349844,42.0193929 75.4920091,41.2461147 C76.1366372,41.8269962 77.6269953,42.1050678 78.6688686,42.4905224 C80.6473809,43.2226986 83.9586756,43.1484838 87.1597774,41.9245169 C89.4330556,41.0549852 91.1873255,39.7415417 92.502477,38.1364178 C94.7972428,38.1430844 96.5112924,38.3423682 97.5234135,38.5029191 C98.2093639,38.6116244 98.5752041,38.7026437 98.5752041,38.7026437 C97.1212097,41.8620926 94.4462786,48.6467205 95.1730004,57.3790619 C97.392835,84.0484827 111.305782,87.6842953 111.305782,87.6842953 C103.141595,76.5520642 95.6077111,52.687051 115.960328,32.3161975 C116.143799,36.4258393 117.307435,39.9270513 117.307435,39.9270513 C117.307435,39.9270513 120.576306,32.5688697 126.450135,27.0271619 C123.764735,38.7781808 127.361429,47.7591173 127.361429,47.7591173 C127.361429,47.7591173 128.387325,43.9704121 130.362531,40.8798337 C131.354818,62.6870508 155.118453,65.3829185 155.118453,65.3829185 C155.118453,65.3829185 151.981814,63.6848469 148.244624,60.6187313 C151.52231,58.6710729 155.507434,52.4595579 160.684844,47.8348748 C160.684844,47.8348748 169.999996,50.4233596 171.887599,48.6182908 C173.579059,47.0082082 169.509638,42.854875 169.509638,42.854875 C169.509638,42.854875 170.011015,47.5862798 160.112944,44.3487592 C160.112944,44.3487592 150.455644,49.1460043 135.985121,40.6986216 C135.91074,39.7423682 135.904129,38.7655087 135.976856,37.7677126 C139.626994,38.7844618 142.714046,38.4829191 145.244624,37.6024233 C146.916801,34.2550956 144.851787,29.4397789 144.851787,29.4397789 C149.063357,30.9676576 150.536635,34.4731672 150.536635,34.4731672 C150.536635,34.4731672 152.084294,28.0307431 150.788426,23.5188424 C162.323412,30.2337183 159.896966,41.8560871 159.896966,41.8560871 C169.856194,44.4176297 169.768591,37.850798 169.768591,37.850798 C174.39669,40.2195031 176.65399,48.2315139 176.314596,54.4382907 C176.314596,54.4382907 180.263907,50.4872715 177.702475,41.5386216 C177.702475,41.5386216 186.716249,46.4228088 181.884844,66.2644612 C181.884844,66.2644612 171.05399,74.3355353 165.100822,86.2374634 Z M134.37906,92.4088131 C123.949308,99.6804383 109.919556,90.8986203 109.919556,90.8986203 C110.970245,96.2010995 114.90468,98.2501353 114.90468,98.2501353 C106.709088,98.9741022 97.4666642,89.6132209 97.4666642,89.6132209 C102.031953,100.226995 110.037463,102.134984 110.037463,102.134984 C110.037463,102.134984 105.083193,102.47548 99.7526146,98.962532 C99.7526146,98.962532 106.398895,112.563083 117.839666,112.536636 C116.353716,113.826443 114.956471,114.91019 113.791182,115.592284 C113.791182,115.592284 130.434157,112.966388 134.530024,100.818179 C137.378509,101.370796 138.093109,105.456747 138.093109,105.456747 C140.981264,100.072725 134.37906,92.4088131 134.37906,92.4088131 Z M139.955919,64.2589516 C140.638013,68.5911829 141.784018,71.4898054 147.119005,72.7019266 C152.225892,73.8606042 157.183467,68.4407696 157.183467,68.4407696 C146.274377,72.7537172 139.955919,64.2589516 139.955919,64.2589516 Z M175.002199,58.7366377 C170.534982,54.481321 164.803302,50.7769684 164.803302,50.7769684 L165.308536,53.2838554 C161.314597,56.0754807 160.700271,57.3757561 159.180161,59.4473814 C158.481539,60.3950398 157.914597,60.7283731 157.343798,60.5685935 C156.32231,60.2859489 155.998343,59.084847 155.985671,58.2121198 C153.831401,60.6209351 151.795038,68.3101911 171.300822,67.2716237 C171.329472,69.4330561 167.93939,73.3322296 167.93939,73.3322296 C172.406056,71.4369128 174.660051,69.7404941 176.141042,68.0071608 C177.620381,66.2743785 178.668866,62.2264447 175.002199,58.7366377 Z" id="path16" fill="#FFFFFF"></path>
                        <path d="M149.331677,130.844074 C146.713495,142.103578 137.56198,148.103027 134.008812,150.867214 C134.008812,150.867214 129.753716,146.947655 127.992283,141.906884 C134.214873,140.384019 139.523412,135.213771 139.523412,135.213771 C143.911842,135.093661 147.174101,132.919005 149.331677,130.844074" id="path18" fill="#FFFFFF"></path>
                        <path d="M123.126719,101.516251 C123.115699,101.62975 123.111292,101.742146 123.112945,101.853441 C123.359777,101.770796 123.628096,101.728923 123.908537,101.750411 C124.606608,101.803303 125.168592,102.198896 125.416526,102.728923 C124.856195,102.995039 124.265011,103.251788 123.643523,103.48705 C123.15592,103.671623 122.649584,103.84132 122.128923,103.995039 C120.952614,104.342146 119.698069,104.59559 118.392284,104.696967 C117.981264,104.014873 117.55592,103.06997 117.49311,102.004956 C117.49311,102.004956 116.627545,96.8231381 123.561429,99.0214851 C123.856195,99.115149 124.152063,99.1983446 124.449033,99.2760306 C123.714046,99.8214851 123.214873,100.610466 123.126719,101.516251" id="path20" fill="#FFFFFF"></path>
                        <path d="M161.914597,64.236913 C172.190078,64.0815411 173.418728,60.4567478 173.418728,60.4567478 C176.429197,61.9526155 175.346552,64.1415962 175.346552,64.1415962 C169.860602,66.1658386 161.914597,64.236913 161.914597,64.236913" id="path22" fill="#FFFFFF"></path>
                        <path d="M152.651236,48.7995029 C152.651236,48.7995029 151.106883,52.0915138 148.280437,54.1586763 C147.757021,54.5418168 147.188977,54.8809904 146.57906,55.1509628 C145.554266,55.6049573 144.409363,55.856197 143.152063,55.7735523 C142.456195,54.9959215 141.777407,54.1771887 141.132779,53.3182907 C144.784569,53.3368031 147.242421,50.9183458 147.242421,50.9183458 C147.242421,50.9183458 143.103027,51.3739932 139.188977,50.4108527 C138.283743,48.8717894 137.51625,47.2318445 136.952063,45.5018721 C139.312393,46.5394479 146.947655,49.6223128 152.651236,48.7995029" id="path24" fill="#FFFFFF"></path>
                        <path d="M86.0429731,19.6958673 C84.7013753,17.1601649 82.814874,15.0359225 80.7008244,13.5229198 C77.3597777,11.1316251 73.4495849,10.2714047 70.2137723,11.7574653 C70.2137723,11.7574653 70.1487586,10.3564185 71.8765822,9.47658379 C76.2595022,7.24391166 81.6672156,9.15933861 85.5718987,13.5309088 C86.8099152,14.9169142 87.8986204,16.547658 88.7537168,18.3742144 C91.0633586,23.3088148 91.4170776,29.1391177 89.7316782,33.2468311 C88.8253421,35.4558118 87.3305763,37.167933 85.2297499,37.9711285 C80.4809897,39.7871615 78.8391165,37.0441864 78.8391165,37.0441864 C79.8986206,36.9716244 81.7790613,36.7533875 82.7498602,36.3074371 C84.1002734,35.6872167 85.197794,34.7225887 86.0319538,33.5266107 C88.4595019,30.0425888 88.6209344,24.567217 86.0429731,19.6958673" id="path26" fill="#FFFFFF"></path>
                        <path d="M171.576855,86.1426976 C167.734982,94.0595018 163.701373,98.0490334 161.290354,99.899722 C161.219831,101.306885 161.427544,102.431402 161.64242,103.151513 C165.635258,105.862256 170.671621,108.708537 170.671621,108.708537 C170.671621,108.708537 164.712393,113.914047 154.451787,116.591733 C154.451787,116.591733 151.976856,121.24738 150.792834,122.865562 C155.136635,122.057848 158.527269,120.904129 158.527269,120.904129 C158.527269,120.904129 153.894211,138.233054 144.945451,147.554266 C141.823137,150.803302 136.72782,154.186773 133.105231,155.143798 C133.105231,155.143798 127.59063,150.502476 123.649033,142.798895 C121.016526,143.126718 117.383468,142.946002 114.360328,142.216525 C111.994488,146.851787 108.279336,148.434707 105.084846,149.115699 C98.0986201,150.601098 90.7206589,151.775203 83.5652872,151.606057 C76.2677667,151.438013 69.3206594,146.112393 64.1300259,141.391181 C58.4314035,136.204404 55.8275468,129.134983 61.8898056,123.037462 C63.8815411,120.8303 65.2903565,118.313496 66.2776843,115.636912 C44.4279328,107.139942 30.903305,91.1487581 26.4921205,85.6506866 C25.680936,85.1338822 22.9442419,87.0512375 22.2017074,86.5730006 C17.7761428,83.7228629 7.68291992,72.7680423 3.82425335,69.3911828 C6.41355356,50.5625883 30.5666659,22.4705229 58.5168029,11.9371898 C60.4446266,11.2106333 62.3895301,10.5660052 64.3471058,10.0154818 C65.7046816,8.45388409 67.9674914,6.38881527 70.5548192,5.50705771 C76.1316785,3.60580156 81.6639098,4.83879878 86.1151494,8.08369126 C88.5559207,8.34385654 91.088703,8.76099152 93.3774081,9.35625321 C96.5085375,10.1710741 99.1785099,11.3192835 100.505783,12.8600548 C100.505783,12.8600548 103.820383,24.1703024 105.347105,31.0046273 C110.415424,25.0128919 122.595589,17.1582365 122.595589,17.1582365 C122.595589,17.1582365 121.899721,20.0658397 121.579611,22.7122308 C123.049033,19.53168 131.123964,12.7012118 131.123964,12.7012118 C131.123964,12.7012118 131.061705,17.4444624 131.19063,18.2571345 C133.503578,14.525895 139.955919,11.0741595 139.955919,11.0741595 C139.955919,11.0741595 138.700272,16.1858398 137.649583,21.3154265 C141.134432,21.3797791 147.485947,24.2553162 147.485947,24.2553162 C147.039115,21.2078232 145.981264,18.6161428 145.981264,18.6161428 C145.981264,18.6161428 156.359776,18.251129 171.806056,34.1834702 C170.398894,30.9308532 168.537186,27.6646274 168.537186,27.6646274 C180.825891,30.1762527 192.971345,44.5577399 185.68264,65.1101912 C189.064458,65.1101912 190.986221,66.6132215 190.986221,66.6132215 C190.986221,66.6132215 178.956469,70.9289238 171.576855,86.1426976 Z M134.008812,150.867214 C137.56198,148.103027 146.713495,142.103578 149.331677,130.844074 C147.174101,132.919005 143.911842,135.093661 139.523412,135.213771 C139.523412,135.213771 134.214873,140.384019 127.992283,141.906884 C129.753716,146.947655 134.008812,150.867214 134.008812,150.867214 Z M10.0514598,68.3856732 C11.3003854,69.4765823 21.9692556,80.4578492 23.3126716,81.4672156 C27.7468313,74.371348 44.1882083,50.9798885 66.6881526,39.5744894 C69.5101911,38.1441313 72.4253425,36.8984564 75.4264444,35.901101 L75.4705215,35.8636906 L76.2716234,35.4304674 L76.7994471,35.1502471 C77.0154251,35.0368035 77.1774085,34.967933 77.2115683,34.9580157 C82.1509621,33.5156465 84.2082624,28.2336632 82.3482073,22.6777956 C80.5928355,17.4343797 76.0539926,14.7012669 71.4275464,14.7197792 C68.2429735,15.3772999 65.0997229,16.2758123 62.0187312,17.3790629 C35.9047925,26.7303575 14.2798895,50.8339932 10.0514598,68.3856732 Z M82.7498602,36.3074371 C81.7790613,36.7533875 79.8986206,36.9716244 78.8391165,37.0441864 C78.8391165,37.0441864 80.4809897,39.7871615 85.2297499,37.9711285 C87.3305763,37.167933 88.8253421,35.4558118 89.7316782,33.2468311 C91.4170776,29.1391177 91.0633586,23.3088148 88.7537168,18.3742144 C87.8986204,16.547658 86.8099152,14.9169142 85.5718987,13.5309088 C81.6672156,9.15933861 76.2595022,7.24391166 71.8765822,9.47658379 C70.1487586,10.3564185 70.2137723,11.7574653 70.2137723,11.7574653 C73.4495849,10.2714047 77.3597777,11.1316251 80.7008244,13.5229198 C82.814874,15.0359225 84.7013753,17.1601649 86.0429731,19.6958673 C88.6209344,24.567217 88.4595019,30.0425888 86.0319538,33.5266107 C85.197794,34.7225887 84.1002734,35.6872167 82.7498602,36.3074371 Z M99.3851215,25.269476 C98.1696945,21.1901923 96.9134962,17.1653439 96.4595017,15.5559225 C96.1718984,15.3953715 94.2589508,14.9541594 91.9741024,14.516804 C92.4479316,15.2914046 92.8831933,16.10022 93.2760307,16.939118 C95.5404935,21.7766386 96.5432483,28.1185668 94.9851216,33.3468862 C96.3537166,33.4506328 97.732229,33.6195584 99.1201077,33.8515694 C100.040769,34.0054537 100.963634,34.1785115 101.892559,34.3915694 C101.440218,32.302203 100.427546,28.7659497 99.3851215,25.269476 Z M139.188977,50.4108527 C143.103027,51.3739932 147.242421,50.9183458 147.242421,50.9183458 C147.242421,50.9183458 144.784569,53.3368031 141.132779,53.3182907 C141.777407,54.1771887 142.456195,54.9959215 143.152063,55.7735523 C144.409363,55.856197 145.554266,55.6049573 146.57906,55.1509628 C147.188977,54.8809904 147.757021,54.5418168 148.280437,54.1586763 C151.106883,52.0915138 152.651236,48.7995029 152.651236,48.7995029 C146.947655,49.6223128 139.312393,46.5394479 136.952063,45.5018721 C137.51625,47.2318445 138.283743,48.8717894 139.188977,50.4108527 Z M177.702475,41.5386216 C180.263907,50.4872715 176.314596,54.4382907 176.314596,54.4382907 C176.65399,48.2315139 174.39669,40.2195031 169.768591,37.850798 C169.768591,37.850798 169.856194,44.4176297 159.896966,41.8560871 C159.896966,41.8560871 162.323412,30.2337183 150.788426,23.5188424 C152.084294,28.0307431 150.536635,34.4731672 150.536635,34.4731672 C150.536635,34.4731672 149.063357,30.9676576 144.851787,29.4397789 C144.851787,29.4397789 146.916801,34.2550956 145.244624,37.6024233 C142.714046,38.4829191 139.626994,38.7844618 135.976856,37.7677126 C135.904129,38.7655087 135.91074,39.7423682 135.985121,40.6986216 C150.455644,49.1460043 160.112944,44.3487592 160.112944,44.3487592 C170.011015,47.5862798 169.509638,42.854875 169.509638,42.854875 C169.509638,42.854875 173.579059,47.0082082 171.887599,48.6182908 C169.999996,50.4233596 160.684844,47.8348748 160.684844,47.8348748 C155.507434,52.4595579 151.52231,58.6710729 148.244624,60.6187313 C151.981814,63.6848469 155.118453,65.3829185 155.118453,65.3829185 C155.118453,65.3829185 131.354818,62.6870508 130.362531,40.8798337 C128.387325,43.9704121 127.361429,47.7591173 127.361429,47.7591173 C127.361429,47.7591173 123.764735,38.7781808 126.450135,27.0271619 C120.576306,32.5688697 117.307435,39.9270513 117.307435,39.9270513 C117.307435,39.9270513 116.143799,36.4258393 115.960328,32.3161975 C95.6077111,52.687051 103.141595,76.5520642 111.305782,87.6842953 C111.305782,87.6842953 97.392835,84.0484827 95.1730004,57.3790619 C94.4462786,48.6467205 97.1212097,41.8620926 98.5752041,38.7026437 C98.5752041,38.7026437 98.2093639,38.6116244 97.5234135,38.5029191 C96.5112924,38.3423682 94.7972428,38.1430844 92.502477,38.1364178 C91.1873255,39.7415417 89.4330556,41.0549852 87.1597774,41.9245169 C83.9586756,43.1484838 80.6473809,43.2226986 78.6688686,42.4905224 C77.6269953,42.1050678 76.1366372,41.8269962 75.4920091,41.2461147 C73.3349844,42.0193929 71.0721745,42.9741036 68.7239652,44.1472716 C64.0721747,46.4714589 59.0864999,49.6511282 53.9236901,53.9869408 C50.2128362,57.1035798 38.0141588,67.8925603 33.866225,77.1201083 C40.8539935,85.382918 55.0790069,92.7746533 55.1917342,92.8198324 C55.1917342,92.8198324 46.8769134,95.193386 45.6661146,94.948207 C56.6027534,104.836912 63.9856733,107.868317 67.9157008,108.782366 C68.3393922,105.570245 68.3636347,102.298069 68.18953,99.1630829 C74.9145987,91.9057828 84.7630833,99.976306 88.2319537,105.401099 C92.6914577,112.374102 94.9201078,120.390631 96.025342,128.446278 C100.461155,127.861154 100.956471,122.038564 100.956471,122.038564 C103.939391,124.977407 106.411568,135.403853 100.049033,138.374652 C96.0126698,140.25895 92.8782346,137.394487 92.8782346,137.394487 C88.2165267,105.198344 76.4677667,100.77851 75.202202,100.534433 C73.6848466,100.24132 72.8291993,100.989529 72.8291993,100.989529 C73.8881524,120.25895 65.4997229,127.044074 65.1674915,127.398895 C63.5212105,129.155369 63.0303015,131.729473 64.6071609,133.942145 C68.1663895,138.938289 78.5674911,145.642421 81.769144,146.05895 C86.9465543,146.736635 100.314598,144.838564 106.53884,143.220382 C109.853992,142.358123 110.193937,135.135534 110.193937,135.135534 C137.289253,142.753164 150.474376,114.011567 150.474376,114.011567 C150.474376,114.011567 157.129473,111.527821 162.15647,109.25895 C158.502475,107.299171 155.615974,105.092559 153.680437,103.423689 C151.187324,103.909639 148.129473,103.845176 145.164735,102.05289 C145.164735,102.05289 147.801649,102.085948 150.926167,100.810466 C150.926167,100.810466 158.598343,99.2325044 165.100822,86.2374634 C171.05399,74.3355353 181.884844,66.2644612 181.884844,66.2644612 C186.716249,46.4228088 177.702475,41.5386216 177.702475,41.5386216 Z" id="path28" fill="#1A5DAD"></path>
                        <path d="M134.530024,100.818179 C130.434157,112.966388 113.791182,115.592284 113.791182,115.592284 C114.956471,114.91019 116.353716,113.826443 117.839666,112.536636 C106.398895,112.563083 99.7526146,98.962532 99.7526146,98.962532 C105.083193,102.47548 110.037463,102.134984 110.037463,102.134984 C110.037463,102.134984 102.031953,100.226995 97.4666642,89.6132209 C97.4666642,89.6132209 106.709088,98.9741022 114.90468,98.2501353 C114.90468,98.2501353 110.970245,96.2010995 109.919556,90.8986203 C109.919556,90.8986203 123.949308,99.6804383 134.37906,92.4088131 C134.37906,92.4088131 140.981264,100.072725 138.093109,105.456747 C138.093109,105.456747 137.378509,101.370796 134.530024,100.818179 Z M123.561429,99.0214851 C116.627545,96.8231381 117.49311,102.004956 117.49311,102.004956 C117.55592,103.06997 117.981264,104.014873 118.392284,104.696967 C119.698069,104.59559 120.952614,104.342146 122.128923,103.995039 C122.649584,103.84132 123.15592,103.671623 123.643523,103.48705 C124.265011,103.251788 124.856195,102.995039 125.416526,102.728923 C125.168592,102.198896 124.606608,101.803303 123.908537,101.750411 C123.628096,101.728923 123.359777,101.770796 123.112945,101.853441 C123.111292,101.742146 123.115699,101.62975 123.126719,101.516251 C123.214873,100.610466 123.714046,99.8214851 124.449033,99.2760306 C124.152063,99.1983446 123.856195,99.115149 123.561429,99.0214851 Z" id="path30" fill="#1A5DAD"></path>
                        <path d="M147.119005,72.7019266 C141.784018,71.4898054 140.638013,68.5911829 139.955919,64.2589516 C139.955919,64.2589516 146.274377,72.7537172 157.183467,68.4407696 C157.183467,68.4407696 152.225892,73.8606042 147.119005,72.7019266" id="path32" fill="#1A5DAD"></path>
                        <path d="M167.93939,73.3322296 C167.93939,73.3322296 171.329472,69.4330561 171.300822,67.2716237 C151.795038,68.3101911 153.831401,60.6209351 155.985671,58.2121198 C155.998343,59.084847 156.32231,60.2859489 157.343798,60.5685935 C157.914597,60.7283731 158.481539,60.3950398 159.180161,59.4473814 C160.700271,57.3757561 161.314597,56.0754807 165.308536,53.2838554 L164.803302,50.7769684 C164.803302,50.7769684 170.534982,54.481321 175.002199,58.7366377 C178.668866,62.2264447 177.620381,66.2743785 176.141042,68.0071608 C174.660051,69.7404941 172.406056,71.4369128 167.93939,73.3322296 Z M173.418728,60.4567478 C173.418728,60.4567478 172.190078,64.0815411 161.914597,64.236913 C161.914597,64.236913 169.860602,66.1658386 175.346552,64.1415962 C175.346552,64.1415962 176.429197,61.9526155 173.418728,60.4567478 Z" id="path34" fill="#1A5DAD"></path>
                        <polyline id="path36" fill="#1A5DAD" points="104.9157 19.422589 104.9157 18.2903026 106.024791 18.2903026 106.024791 14.2775203 107.358124 14.2775203 107.358124 18.2903026 108.465011 18.2903026 108.465011 19.422589 106.893661 19.422589 104.9157 19.422589"></polyline>
                        <polyline id="path38" fill="#1A5DAD" points="112.980162 19.422589 112.298069 17.7188976 111.878785 16.6714045 110.984019 19.0276579 110.833606 19.422589 110.576306 19.422589 109.520658 19.422589 108.645176 14.2775203 109.974653 14.2775203 110.40165 17.2389527 110.414873 17.2389527 111.598895 14.2775203 112.126719 14.2775203 113.159226 16.7452337 113.365837 17.2389527 113.379061 17.2389527 113.480438 16.4303577 113.75041 14.2775203 115.086499 14.2775203 114.954267 15.1558123 114.311292 19.422589 112.980162 19.422589"></polyline>
                        <path d="M59.7030288,27.1608258 L58.2258939,25.0419828 C56.2495854,25.8361426 55.1272713,26.5695861 53.5842962,27.427272 L59.4589517,35.8643517 C61.0170784,35.0830845 62.4771334,34.1177953 64.0661141,33.3925061 L62.6721747,31.392451 C62.6721747,31.392451 64.8071609,30.9065006 65.867216,30.6785667 L68.2319542,34.3358118 C68.2319542,34.3358118 65.1068854,35.7606052 63.6385659,36.450798 C62.544902,36.9649578 59.6093649,38.8429742 59.4170784,38.8177952 C59.4170784,38.8177952 57.6743787,38.6071065 57.608263,38.5121753 C56.9663898,37.5953159 50.0906324,27.7548202 50.0804946,27.7008258 L50.7485387,25.9990627 C52.7500813,24.8133878 57.7834696,22.3159774 59.5195577,21.6483741 L62.1206596,25.3596137 L59.7030288,27.1608258" id="path40" fill="#1A5DAD"></path>
                        <path d="M46.8814313,39.8835803 L49.0355911,42.9590623 C50.3633045,41.864021 51.4813761,41.1507979 52.7442962,40.3206601 L51.8188417,38.80055 C52.4339381,38.0853985 53.813938,36.5343242 53.813938,36.5343242 L56.7614311,40.7541588 L56.6275468,40.8387318 C55.0071061,41.8629742 53.4349298,42.9586215 51.8640207,44.0584011 C50.2313486,45.2016518 48.7095305,46.4992275 47.1655636,47.7584561 L47.0394479,47.8615966 L45.597244,45.7909079 L46.624076,44.8491449 L44.4408804,41.7211009 L43.3879879,42.5876022 L41.9408805,40.510302 L42.9915692,39.6453434 L40.4982359,36.0720101 L39.4378503,36.9460046 L38.0982911,34.7807154 C39.5951505,33.5399441 41.1195582,32.358181 42.8296959,31.1456191 L44.158897,33.3053435 C43.7372992,33.6006603 43.3193378,33.9002195 42.9048474,34.2047374 L45.429806,37.8099164 C46.3349851,37.1492002 47.2548749,36.5115142 48.3074919,35.8038559 L49.7673266,37.8706327 L49.6392825,37.9569137 C48.708704,38.583415 47.787547,39.2222029 46.8814313,39.8835803" id="path42" fill="#1A5DAD"></path>
                        <path d="M40.1172993,45.4005498 C40.1172993,45.4005498 40.1181808,45.4091449 40.0430293,45.4842413 L39.4294756,46.0917895 L37.9224784,47.5813762 C36.8631396,48.6283734 35.7166933,49.7643514 35.2423132,50.2449023 L37.446831,53.4226433 C38.6707979,52.1691998 39.9050679,50.9273816 41.158291,49.704737 L40.0290348,48.0735525 L40.1644067,47.9898611 C40.9484838,47.5051779 41.7366381,47.0282633 42.5305774,46.5605498 L42.7311284,46.604682 L43.4852882,47.6852881 L43.9404948,48.3402192 L44.1309631,48.6171889 C44.1839107,48.6966379 43.8464452,50.3228087 43.8464452,50.3228087 L43.7235251,50.7175194 C43.7235251,50.7175194 41.6027538,52.7612659 40.7455086,53.6217066 C40.0847924,54.2846267 38.0060046,56.4688691 37.7959219,56.6253429 C37.7959219,56.6253429 36.1579054,56.5460041 36.0341589,56.6330564 L32.3230846,51.3373541 L32.6631397,49.4320098 C32.6631397,49.4320098 36.72909,45.2098611 37.5135528,44.438897 L34.9896961,40.7926712 C33.7181259,42.0450127 32.4391176,43.4794479 31.1949303,44.7568033 L32.5344344,46.6873267 L30.0439111,48.3242963 L28.2924511,45.8245168 L28.6585117,43.8003846 C28.7310737,43.6579052 34.2813766,37.9248475 34.6900818,37.6203296 C34.6900818,37.6203296 36.3890349,37.741707 36.5130018,37.6555913 L40.5141588,43.4357565 C40.5249026,43.4902468 40.1372993,45.3637454 40.1172993,45.4005498" id="path44" fill="#1A5DAD"></path>
                        <path d="M94.9851216,33.3468862 C96.5432483,28.1185668 95.5404935,21.7766386 93.2760307,16.939118 C92.8831933,16.10022 92.4479316,15.2914046 91.9741024,14.516804 C94.2589508,14.9541594 96.1718984,15.3953715 96.4595017,15.5559225 C96.9134962,17.1653439 98.1696945,21.1901923 99.3851215,25.269476 C100.427546,28.7659497 101.440218,32.302203 101.892559,34.3915694 C100.963634,34.1785115 100.040769,34.0054537 99.1201077,33.8515694 C97.732229,33.6195584 96.3537166,33.4506328 94.9851216,33.3468862" id="path46" fill="#E51636"></path>
                        <path d="M82.3482073,22.6777956 C84.2082624,28.2336632 82.1509621,33.5156465 77.2115683,34.9580157 C77.1774085,34.967933 77.0154251,35.0368035 76.7994471,35.1502471 L76.2716234,35.4304674 L75.4705215,35.8636906 L75.4264444,35.901101 C72.4253425,36.8984564 69.5101911,38.1441313 66.6881526,39.5744894 C44.1882083,50.9798885 27.7468313,74.371348 23.3126716,81.4672156 C21.9692556,80.4578492 11.3003854,69.4765823 10.0514598,68.3856732 C14.2798895,50.8339932 35.9047925,26.7303575 62.0187312,17.3790629 C65.0997229,16.2758123 68.2429735,15.3772999 71.4275464,14.7197792 C76.0539926,14.7012669 80.5928355,17.4343797 82.3482073,22.6777956 Z M34.6900818,37.6203296 C34.2813766,37.9248475 28.7310737,43.6579052 28.6585117,43.8003846 L28.2924511,45.8245168 L30.0439111,48.3242963 L32.5344344,46.6873267 L31.1949303,44.7568033 C32.4391176,43.4794479 33.7181259,42.0450127 34.9896961,40.7926712 L37.5135528,44.438897 C36.72909,45.2098611 32.6631397,49.4320098 32.6631397,49.4320098 L32.3230846,51.3373541 L36.0341589,56.6330564 C36.1579054,56.5460041 37.7959219,56.6253429 37.7959219,56.6253429 C38.0060046,56.4688691 40.0847924,54.2846267 40.7455086,53.6217066 C41.6027538,52.7612659 43.7235251,50.7175194 43.7235251,50.7175194 L43.8464452,50.3228087 C43.8464452,50.3228087 44.1839107,48.6966379 44.1309631,48.6171889 L43.9404948,48.3402192 L43.4852882,47.6852881 L42.7311284,46.604682 L42.5305774,46.5605498 C41.7366381,47.0282633 40.9484838,47.5051779 40.1644067,47.9898611 L40.0290348,48.0735525 L41.158291,49.704737 C39.9050679,50.9273816 38.6707979,52.1691998 37.446831,53.4226433 L35.2423132,50.2449023 C35.7166933,49.7643514 36.8631396,48.6283734 37.9224784,47.5813762 L39.4294756,46.0917895 L40.0430293,45.4842413 C40.1181808,45.4091449 40.1172993,45.4005498 40.1172993,45.4005498 C40.1372993,45.3637454 40.5249026,43.4902468 40.5141588,43.4357565 L36.5130018,37.6555913 C36.3890349,37.741707 34.6900818,37.6203296 34.6900818,37.6203296 Z M48.3074919,35.8038559 C47.2548749,36.5115142 46.3349851,37.1492002 45.429806,37.8099164 L42.9048474,34.2047374 C43.3193378,33.9002195 43.7372992,33.6006603 44.158897,33.3053435 L42.8296959,31.1456191 C41.1195582,32.358181 39.5951505,33.5399441 38.0982911,34.7807154 L39.4378503,36.9460046 L40.4982359,36.0720101 L42.9915692,39.6453434 L41.9408805,40.510302 L43.3879879,42.5876022 L44.4408804,41.7211009 L46.624076,44.8491449 L45.597244,45.7909079 L47.0394479,47.8615966 L47.1655636,47.7584561 C48.7095305,46.4992275 50.2313486,45.2016518 51.8640207,44.0584011 C53.4349298,42.9586215 55.0071061,41.8629742 56.6275468,40.8387318 L56.7614311,40.7541588 L53.813938,36.5343242 C53.813938,36.5343242 52.4339381,38.0853985 51.8188417,38.80055 L52.7442962,40.3206601 C51.4813761,41.1507979 50.3633045,41.864021 49.0355911,42.9590623 L46.8814313,39.8835803 C47.787547,39.2222029 48.708704,38.583415 49.6392825,37.9569137 L49.7673266,37.8706327 L48.3074919,35.8038559 Z M59.5195577,21.6483741 C57.7834696,22.3159774 52.7500813,24.8133878 50.7485387,25.9990627 L50.0804946,27.7008258 C50.0906324,27.7548202 56.9663898,37.5953159 57.608263,38.5121753 C57.6743787,38.6071065 59.4170784,38.8177952 59.4170784,38.8177952 C59.6093649,38.8429742 62.544902,36.9649578 63.6385659,36.450798 C65.1068854,35.7606052 68.2319542,34.3358118 68.2319542,34.3358118 L65.867216,30.6785667 C64.8071609,30.9065006 62.6721747,31.392451 62.6721747,31.392451 L64.0661141,33.3925061 C62.4771334,34.1177953 61.0170784,35.0830845 59.4589517,35.8643517 L53.5842962,27.427272 C55.1272713,26.5695861 56.2495854,25.8361426 58.2258939,25.0419828 L59.7030288,27.1608258 L62.1206596,25.3596137 L59.5195577,21.6483741 Z" id="path48" fill="#E51636"></path>
                    </g>
                </g>
            </g>
        </g>
    </g>
</svg>