<svg width="200" height="200" xmlns="http://www.w3.org/2000/svg"><g fill-rule="nonzero" fill="none"><path d="M110.274 97.501c0-10.462-3.989-20.383-11.307-26.837-7.336-6.103-15.623-8.718-24.383-11.333-8.764-2.787-18.647-5.743-18.647-17.944 0-9.766 7.012-15.526 15.46-15.526 8.44 0 14.662 6.98 14.815 16.214h18.46V8.601H89.08v6.975C84.301 8.772 76.655 5.98 68.842 5.98c-18.324 0-34.415 15.345-34.415 35.92 0 11.158 4.301 20.922 12.425 27.55 7.016 5.75 14.022 8.018 22.308 10.637 8.766 2.785 19.446 6.6 19.446 18.983 0 10.636-7.334 18.106-16.735 18.106-10.514 0-16.89-9.737-16.89-20.027H36.203v37.994H52.43v-8.208c5.42 7.331 13.066 10.642 21.834 10.642 20.718 0 36.01-17.582 36.01-40.077M111.017 42.244v14.468h15.476v27.879h21.736V56.712h15.312V42.244h-52.524" fill="#D41041"/><path d="M126.493 151.022c0 11.039-3.173 21.335-16.937 21.335-7.986 0-17.044-5.938-17.044-21.871v-6.66H59.578v16.778h11.15c2.34 18.251 20.75 32.113 38.995 32.113 9.902 0 38.506-5.52 38.506-38.945V90.934h-21.736v60.088" fill="#D41041"/><path d="M68.842 5.98c7.813 0 15.459 2.792 20.238 9.596V8.6h15.593v33.474H86.212c-.153-9.235-6.374-16.214-14.815-16.214-8.448 0-15.46 5.76-15.46 15.526 0 12.201 9.883 15.157 18.647 17.944 8.76 2.615 17.047 5.23 24.383 11.333 7.318 6.454 11.307 16.375 11.307 26.837 0 22.495-15.292 40.077-36.01 40.077-8.768 0-16.415-3.31-21.834-10.642v8.208H36.203V97.15h18.778c0 10.29 6.376 20.027 16.89 20.027 9.4 0 16.735-7.47 16.735-18.106 0-12.384-10.68-16.198-19.446-18.983-8.286-2.62-15.292-4.886-22.308-10.637-8.124-6.628-12.425-16.392-12.425-27.55 0-20.575 16.091-35.92 34.415-35.92Zm42.175 36.264h52.524v14.468H148.23v27.879h-21.736V56.712h-15.476V42.244Zm9.053 20.895v87.883c0 13.762-5.428 14.916-10.514 14.916-2.483 0-10.609-1.123-10.609-15.452v-14.685c10.876-8.364 17.754-22.235 17.754-38.136 0-12.316-4.795-23.996-13.493-31.659l-.066-.062-.067-.056c-8.591-7.142-18.146-10.01-26.59-12.528-.095-.033-1.023-.328-1.023-.328-9.508-3.003-13.094-5.083-13.094-11.482 0-6.71 4.664-9.098 9.029-9.098 4.838 0 8.29 4.067 8.39 9.895l.106 6.311h24.706v14.48h15.47Zm28.159 90.633c0 33.424-28.604 38.945-38.506 38.945-18.246 0-36.655-13.862-38.995-32.113h-11.15v-16.778h32.934v6.66c0 15.933 9.058 21.871 17.044 21.871 13.764 0 16.937-10.296 16.937-21.335V90.934h21.736v62.838ZM42.787 74.593c8.07 6.613 16.022 9.12 24.44 11.783l.52.167c10.032 3.187 14.432 5.963 14.432 12.69 0 6.58-3.949 11.68-10.308 11.68-7.228 0-10.464-7.336-10.464-13.6v-6.426H29.781v50.848h23.38v25.293h12.414c5.252 18.143 23.849 32.112 44.148 32.112 15.533 0 44.93-9.48 44.93-45.368V63.139h15.312V35.815h-58.87V2.335h-28.44v.19C78.546.709 73.905-.283 68.842-.283 46.322-.283 28 18.716 28 42.07c0 13.161 5.114 24.628 14.787 32.523ZM164.656 191.698l-2.492-6.122h-2.167v8.672h1.322v-7.354h.044l2.878 7.354h.804l2.974-7.354h.033v7.354h1.315v-8.672h-2.141l-2.57 6.122M151.418 186.894h2.839v7.354h1.321v-7.354h2.841v-1.318h-7.001v1.318" fill="#231F20"/></g></svg>