<svg width="200" height="200" xmlns="http://www.w3.org/2000/svg"><g fill="none"><path d="M77.954 118.525c.127.095.612-1.377.612 14.738 0 18.35 21.682 24.335 23.315 25.14 1.675-.793 23.026-6.79 23.026-25.46 0-9.208.05-12.162.172-14.312 0 0-12.496-9.49-23.373-15.833-11.56 7.194-23.226 15.51-23.752 15.727" fill="#E51B24"/><path d="M98.687 119.405c-.929 0-3.743 1.53-6.338 5.215-.013.015-.65.737-.65 2.908l.013 6.795c.417 6.634 6.888 11.118 8.94 11.118h2.44c2.123 0 6.185-4.766 6.185-5.862v-6.628c-.002-.03-.01-.383-.01-.383 0-.899 0-3.001-1.54-3.001h-7.845s.117.202 2.302 3.813l.122.178.14-.166c.287-.344.692-.81 2.85-.833l-.004 7.468c0 1.265-.872 2.367-1.866 2.367-1.882 0-7.429-2.066-7.669-8.389v-5.789c0-4.471.218-5.427 2.508-5.427h5.16c.251 0 1.287.15 1.712.892l.135.235 2.883-4.525-9.468.014" fill="#FFF"/><path d="M181.862 72.428c.013.006.097.062.1.062l-.1-.062zm-64.52 4.735c-2.83 2.426-6.574 5.941-9.587 8.762l-2.197 2.058c-.75.666-2.271 2.006-4.028 3.549l-5.32-5.036a138.04 138.04 0 0 0-11.635-10.352c0-4.662.004-14.238.004-15.885l15.038 20.997c.011.018 2.02 2.783 2.02 2.783l2.035-2.783s15.01-20.96 15.035-20.997l.006 15.728-1.372 1.176zm-33.609 43.949c2.598-1.014 8.07-3.842 17.89-11.69l.368.297c9.546 7.628 14.868 10.395 17.42 11.395-.003 3.69-.007 12.557-.007 13.022 0 10.4-14.132 16.351-17.797 17.72-3.68-1.366-17.873-7.318-17.873-17.72v-5.506l-.001-7.518zM26.225 74.987c3.946-1.891 8.99-2.747 15.472-2.747 17.944 0 29.971 10.991 36.225 16.292.375.333 6.53 5.842 13.148 11.973-8.054 6.349-15.254 10.517-18.996 10.959-.002.003-2.148.257-2.148.257v24.549c-.013.694.04 5.684 3.82 11.797 3.486 5.638 11 13.321 26.998 17.917l.281.08c.612.174 1.075.036 1.483-.092 15.913-4.59 23.394-12.273 26.865-17.908 3.756-6.1 3.817-11.096 3.805-11.8V111.72l-2.149-.254c-3.706-.442-10.75-4.526-18.884-10.932a423.463 423.463 0 0 0 7.648-6.88c.903 2.962 2.555 6.331 5.574 9.088l-.043-.038c6.507 6.278 18.218 13.764 37.046 13.764 13.399 0 24.674-3.676 34.476-11.235l2.747-2.117-16.974-10.848c.308 4.75-2.65 6.1-2.65 6.1l-.018.01c-5.333 2.755-10.996 4.041-17.815 4.041-12.673 0-20.519-4.878-25.936-9.13-1.928-1.486-2.742-3.246-2.867-5.208l-.006-.089v-5.471l1.243-.938c5.344-4.01 14.015-9.344 27.566-9.344 6.821 0 12.48 1.285 17.81 4.043 0 0 2.981 1.232 2.673 6.105l16.974-10.844-2.747-2.118c-9.802-7.56-21.077-11.235-34.476-11.235-10.832 0-20.1 2.406-29.048 7.55l-.014-11.619v-.062l-.01-.746s-.455-11.202 5.189-15.833l3.644-3.18-31.638-.024 2.037 3.639c.004.006.58 1.084.58 2.59 0 1.247-.393 2.454-1.169 3.586.006-.006-6.954 10.052-10.298 14.885-2.56-3.703-10.302-14.894-10.302-14.894-.768-1.123-1.162-2.33-1.162-3.577 0-1.509.575-2.586.582-2.596l2.03-3.63-31.665.005 3.593 3.175c5.926 4.727 5.257 16.584 5.257 16.584v12.043c-9.342-5.306-18.048-7.896-28.515-7.896-12.149 0-22.1 3.053-30.423 9.324a2.583 2.583 0 0 0-.35.24 10.29 10.29 0 0 1-.266.216 34.993 34.993 0 0 0-1.882 1.578c-4.843 4.33-5.672 7.098-5.811 7.842a1.043 1.043 0 0 1-.012.064l-.091.487.15.544c1.622 5.849 8.332 10.113 19.944 12.675 5.492 1.214 12.129 2.038 18.683 2.321l.223.009c4.686.252 9.064.462 13.313 1.207 2.174.379 3.39.667 4.483 1.002 0 0 2.573.849.134 2.539-8.978 5.73-20.422 5.443-20.422 5.443h-.053l-.052.002c-.41.02-10.111.426-19.47-5.949 0 0-3.855-2.322-2.474-6.554L0 102.105l2.167 2.127C3.53 105.646 15.88 117.718 38.9 117.73h.038c16.764-.292 26.215-5.195 31.998-9.255 5.916-4.151 8.776-8.544 9.21-9.333.024-.033.73-1.088.73-1.088l-.651-1.328-.145-.31c-.735-1.607-2.454-5.364-7.987-8.814-9.883-6.692-28.207-7.124-28.207-7.124-1.293-.05-6.611-.286-11.371-.86-2.858-.345-4.758-.617-6.26-.998-5.76-1.233-.03-3.633-.03-3.633zm155.747 27.154l-.1.049.1-.05z" fill="#D0CFCF"/><path d="M126.807 101.171c6.243 6.023 17.419 13.164 35.563 13.164 12.907 0 23.758-3.532 33.174-10.791l.341-.26-11.643-7.435-.092.424c-.589 2.687-3.191 3.988-3.22 4-5.651 2.922-11.622 4.28-18.794 4.28-13.326 0-21.565-5.12-27.254-9.583-1.62-1.25-3.487-3.436-3.683-6.829l-.004-.108-.004-17.942-.017-15.955c0-.021-.01-.317-.01-.822 0-2.881.341-12.558 4.783-16.3l.629-.532-22.434-.06.251.452c.056.1.852 1.556.852 3.632 0 1.394-.361 3.068-1.543 4.793l-12.06 17.432c-.476-.692-12.056-17.432-12.056-17.432-1.183-1.727-1.543-3.4-1.543-4.793 0-2.076.796-3.532.851-3.632l.252-.45-22.434.058.629.532c5.219 4.398 4.775 16.98 4.77 17.109v13.179c2.465 1.55 6.378 4.11 10.33 7.102 0-3.932.007-19.29.007-20.788l18.903 26.4c.002.001.292.4.292.4l.292-.399 18.904-26.4.013 32.895s-.328 8.914 5.955 14.66M38.9 115.596c-23.205-.011-35.09-12.742-35.222-12.87l-.271-.264 11.623-7.42.074.45c.375 2.304 3.207 3.98 3.252 4.008 10.081 6.866 20.643 6.324 20.778 6.317 7.72 0 14.723-1.962 20.563-4.977 2.557-1.441 4.883-3.51 4.502-4.555-1.198-3.323-13.457-4.442-22.458-4.924-1.414-.079-33.192-.796-36.907-13.445l-.02-.068.014-.067c.017-.099.511-2.507 5.143-6.651.522-.47 1.092-.946 1.793-1.497l.273-.224s.087-.069.118-.069c7.638-5.813 17.182-9.014 29.306-9.014 10.933 0 20.014 2.932 29.73 8.965.115.065 11.638 6.845 23.535 18.74l5.269 4.985a824.42 824.42 0 0 1-7.244 6.137c-6.854-6.357-13.37-12.18-13.429-12.233-6.44-5.456-18.878-16.813-37.625-16.813-8.59 0-14.427 1.473-18.768 4.278l-.188.103c-.456.298-.852.588-1.174.858-.684.6-1.145 1.242-1.374 1.903a1.161 1.161 0 0 0-.013.163c0 .303.137.58.36.878 2.785 3.74 23.1 4.315 23.315 4.323C74.412 84.2 77.16 95.29 78.308 97.664l.113.225-.101.144s-8.014 17.012-39.42 17.563" fill="#0B335E"/><path d="M195.544 71.115c-9.416-7.26-20.267-10.789-33.174-10.789-10.858 0-20.187 2.554-29.08 7.91v11.645c5.654-4.249 14.792-9.774 28.846-9.774 7.176 0 13.147 1.359 18.79 4.278.033.016 2.635 1.315 3.224 4.003l.092.42 11.643-7.43-.34-.263m-64.503 65.165v-22.663l-.265-.03c-4.911-.587-13.253-6.066-20.26-11.617-2.28 1.928-5.26 4.45-7.192 6.08 11.587 9.264 16.967 11.306 18.221 11.508-.004.522-.008 14.578-.008 14.578 0 12.674-17.514 19.157-19.931 19.99-2.428-.833-20.006-7.314-20.006-19.99 0 0 .005-12.57-.008-14.582 1.31-.224 7.134-2.365 20.176-12.989a.665.665 0 0 0 .038-.025l7.28-6.166c2.94-2.547 6.38-5.616 10.089-9.052-.385-1.709-.448-3.798-.448-3.798v-8.74c-3.51 3.01-8.384 7.655-11.73 10.779 0-.006-11.486 10.141-13.348 11.611-7.463 6.03-16.232 11.808-21.325 12.413l-.265.03v22.67c-.003.19-.077 4.867 3.5 10.656 3.29 5.32 10.429 12.583 25.772 16.989l.275.075c.013.009.293-.08.293-.08 15.268-4.4 22.38-11.665 25.654-16.984 3.565-5.79 3.493-10.467 3.488-10.662" fill="#0B335E"/></g></svg>