<svg width="200" height="200" xmlns="http://www.w3.org/2000/svg" xmlns:xlink="http://www.w3.org/1999/xlink"><defs><path id="a" d="M.03.459h150.28V199.97H.03z"/></defs><g fill="none" fill-rule="evenodd"><g transform="translate(25)"><mask id="b" fill="#fff"><use xlink:href="#a"/></mask><path d="M130.92 105.293c7.287 1.287 12.398 7.799 14.664 12.152 5.835-11.958 5.523-25.11 3.043-32.784-2.302-7.128-7.666-12.8-15.43-17.62 1.311-4.815-.175-13.853-7.455-22.509C114.724 31.431 98.66 24.177 81.98 23.79c-8.326-.193-17.13 1.8-23.36 4.865L30.016 12.812C28.802 7.408 25.088 3.353 17.955.46 10.292 3.91 6.237 10.1 6.575 18.004.78 24.344-.207 31.044 2.052 37.989c-3.365 7.163-2.574 13.658 2.247 20.053 6.43.973 14.01-1.922 17.067-5.193l13.167-.265c-10.42 16.684-13.855 33.623-11.082 49.565 2.522 14.504 9.185 29.055 14.108 38.717 4.6 9.024 11.485 22.536 14.419 42.095 3.055-1.931 7.603-5.276 9.585-7.668 2.66 6.105 6.015 15.839 7.757 24.707 5.65-1.926 14.604-7.463 18.019-10.533 0 0 1.551 4.056 1.959 5.662 11.707-9.15 17.968-19.864 20.463-36.69 2.01-13.554-1.909-36.349-18.42-48.886 5.396-1.072 9.967-3.06 13.943-5.709 10.716 4.632 16.802-.113 25.636 1.449" fill="#FFFFFE" mask="url(#b)"/></g><path d="M146.255 94.177c-8.26 1.896-13.478-1.038-14.928-4.251 9.636 1.364 12.168-3.415 25.379-.848-.568-3.032-3.92-5.361-7.118-6.169-5.73-1.447-9.442.523-16.254-.063-8.352-.717-13.245-6.133-15.542-8.88a4.06 4.06 0 0 1-2.314.724c-2.31 0-4.182-1.94-4.182-4.333 0-.843.236-1.627.637-2.292-1.526-1.478-2.968-2.8-4.628-4.167-4.314 5.27-3.04 13.954 3.64 16.29-4.571.894-9.296-2.278-10.654-6.093-1.703-4.788-.958-10.523 1.512-14.024-5.247-2.651-9.148-1.29-12.144.754-4.352 2.968-6.722 8.03-7.835 11.578-1.037-2.526-1.978-11.114 3.636-16.186 6.249-5.646 14.534-5.624 22.895.25 4.358 3.063 7.888 6.673 11.301 10.165 5.095 5.212 10.338 8.745 14.392 9.367 3.744.575 9.774.216 13.448-2.155 11.268 4.5 16.84 12.274 17.027 22.233-5.147-2.783-11.446-3.465-18.268-1.9zm-40.477 1.93c-8.434-.718-13.166-4.548-16.511-10.34-3.658-6.333-1.15-13.588 1.254-14.075.81 9.39 8.38 22.158 30.094 17.233-.177 3.648-6.81 7.865-14.837 7.182zm24.444-30.444c2.287 2.08 5.22 1.11 5.89-1.593 2.755 2.084 6.106.86 6.221-2.11 2.76 1.627 5.607.199 5.55-3.01 2.214 1.09 2.712 4.923.49 6.67-1.982 1.558-4.067.115-4.067.115.227.796.123 2.783-2.048 3.598-2.614.981-4.238-1.095-4.238-1.095-1.825 4.355-8.579 3.463-7.798-2.575zm7.775-11.38c3.04 1.546 5.724.233 5.672-3.052 2.066 1.06 2.945 4.635.36 6.255-2.154 1.35-4.299-.205-4.299-.205s-.018 2.848-2.711 3.39c-2.254.453-4.86-.972-4.907-4.248 2.625 1.631 5.28.85 5.885-2.14zm-.475-9.273c2.146.764 3.034 3.772.878 5.425-1.902 1.458-5.366.165-5.309-2.454 2.818 1.14 4.746-.177 4.43-2.971zm-32.178 122.08c7.672-5.314 12.906-14.94 15.302-26.412 1.005 5.143-.121 14.979-2.984 21.303-3.014 6.657-8.311 12.387-15.217 16.882-5.565-15.506-12.291-27.423-20.447-36.382 10.051 4.43 18.742 14.72 23.346 24.61zm47.25-98.069c1.762-2.256 3.566-9.55-3.421-19.261-5.284-7.342-16.014-17.064-32.193-20.51-12.471-2.657-27.158.188-33.267 4.51L52.064 16.01c-.806-5.322-4.193-8.44-8.762-10.106-4.519 2.41-6.66 6.052-6.881 11.45 3 2.881 9.236 4.254 13.385 2.902l18.225 13.6-21.719-4.837c-2.416-4.048-7.423-6.733-11.718-7.096-3.602 2.902-5.17 8.235-3.705 13.42 4.024 1.598 10.854 1.363 13.918-1.325l21.259 6.879-22.267 2.292c-3.455-3.137-8.696-3.928-12.905-2.972-2.306 4.692-1.912 9.344.888 13.53 4.299.309 10.24-1.95 12.53-5.281l21.663-.436.267 2.56c-6.672 9.303-17.26 27.305-13.426 50.85 4.664 28.65 22.137 45.333 27.17 73.543 2.157-1.62 5.91-4.98 7.608-7.184 3.83 6.783 7.626 16.556 9.97 25.055 6.115-2.98 11.604-6.402 16.516-11.498.902 1.863 1.707 3.65 2.264 5.878 5.594-4.835 12.126-14.925 13.929-29.67 2.238-18.316-5.393-34.17-11.083-39.521.677 3.959.609 8.55.27 11.843-3.342-8.019-9.664-13.768-17.514-17.225.63 4.631.155 10.185-.996 13.62-4.175-8.513-8.257-12.678-16.374-21.328-15.553-16.575-12.606-31.556-10-33.72.268 11.402 4.654 19.703 11.515 26.028 14.918 13.752 37.28 8.372 43.703 1.085 4.2 3.458 11.06 3.41 17.835 2.256 11.456-1.95 18.516 2.84 21.924 7.567 3.594-12.951 2.884-29.341-16.958-39.148z" fill="#21375C"/></g></svg>