<svg width="200" height="200" xmlns="http://www.w3.org/2000/svg"><g fill="none"><path d="M182.644 149.254l15.169-8.558s-8.226-2.534-10.566-3.217c4.135-6.358 3.447-16.425-1.052-21.123l5.23-13.427-10.724-2.65-.023-.006c-2.89-.63-5.988-.986-9.235.393l-2.071-2.549c1.825-1.107 2.75-2.517 2.817-2.62l-.58-.563c1.217-1.072 1.45-1.228 5.684-7.372-6.748-3.184-7.019-3.224-8.608-3.544l.22-.777c-.14-.071-2.56-1.284-5.653-.7-.186-1.438.027-.938-.864-2.092 2.603-1.775 3.452-4.347 3.5-4.496l-.706-.394c.898-1.35 1.44-2.647 3.583-8.593-7.037-1.307-7.615-1.294-9.233-1.192l.011-.81c-.152-.033-2.804-.58-5.641.786-.561-1.366-.227-.92-1.375-1.796 2.054-2.388 2.21-5.092 2.215-5.248l-.782-.2c.517-1.536.632-2.331 1.236-9.225-7.492.63-7.69.718-9.226 1.236-.074-.288-.198-.783-.198-.783-.157.006-2.862.161-5.249 2.215-.88-1.152-.442-.822-1.8-1.38.989-2.047 1.15-4.363.779-5.618l-.808.01c.38-1.427-1.176-9.235-1.176-9.235l-5.728 2.086a14.88 14.88 0 0 0-2.87 1.48l-.394-.706c-.149.047-2.721.897-4.496 3.499-1.135-.876-.634-.678-2.09-.867.433-2.297-.088-4.469-.7-5.653l-.777.22c-.32-1.59-.478-2.195-3.544-8.608-5.986 4.13-6.3 4.467-7.372 5.683l-.564-.578c-.117.075-2.385 1.562-3.43 4.546-1.113-.465-.833-.49-2.252-.3-.237-3.153-2.045-5.177-2.137-5.277l-.693.412c-.721-1.454-1.24-2.187-5.652-7.397-4.794 5.624-4.931 5.943-5.652 7.396-.254-.15-.692-.412-.692-.412-.104.114-1.907 2.136-2.143 5.278-1.37-.184-.867-.283-2.263.3-1.041-2.975-3.305-4.462-3.434-4.545l-.563.58c-1.073-1.218-1.862-1.938-7.373-5.684-2.683 5.608-3.223 7.017-3.543 8.608l-.777-.22c-.765 1.477-1.077 3.657-.7 5.652-1.44.186-.943-.027-2.11.873-1.774-2.602-4.346-3.45-4.495-3.498l-.395.705c-1.35-.898-2.376-1.427-8.592-3.583-1.451 7.65-1.212 8.927-1.192 9.233l-.81-.011c-.206.938-.352 3.277.785 5.641-1.215.5-.921.225-1.81 1.39-2.387-2.055-5.092-2.21-5.248-2.217l-.198.783c-1.537-.517-1.543-.572-9.227-1.236.694 8.064.72 7.69 1.236 9.227l-.783.198c.007.156.163 2.86 2.216 5.248-.981.749-.825.443-1.388 1.811-2.836-1.365-5.488-.819-5.64-.785l.01.81c-1.617-.103-1.963-.149-9.232 1.192 2.515 7.035 2.685 7.242 3.582 8.592l-.705.395c.047.149.897 2.72 3.499 4.495l-.653.845c.019.02.086.09.196.198-.342.006-.647.04-.86.127l-1.99.808c-1.695.128-3.45.517-4.325 1.944-.924.279-2.039.714-7.281 3.209 3.841 5.597 4.467 6.3 5.684 7.372l-.58.563c.085.132 1.572 2.395 4.544 3.436l-.38.91c-9.54 1.183-15.294 15-7.675 25.024L9.369 137.19c-2.399.718-7.542 2.35-7.542 2.35s12.462 7.03 15.163 8.556L0 168.087s14.772-4.588 23.318-6.907v11.856c11.448-2.894 25.086-5.498 25.086-5.498v-5.025a414.161 414.161 0 0 1 19.945-2.371c12.746 10.633 26.409 16.735 26.409 16.735s15.04-7.033 27.299-17.479c7.798.53 15.693 1.322 23.942 2.405v4.882l5.417.892s11.42 2.008 25.91 5.723v-10.67c5.479 1.551 22.197 6.492 22.197 6.492l-16.879-19.867" fill="#FFF"/><path d="M66.338 60.484l.024.001c.004-.005.007-.016.01-.021l-.034.02m56.884-.024c.003.007.004.014.008.022.008-.001.016-.004.027-.004l-.035-.019M82.038 55.08c.806 1.67.687 2.674.687 2.674-.621-1.532-2.156-2.756-2.655-2.953h-.004c-.158.2-.4.711-.589 1.369l7.014 6.817-1.776-4.63a2.383 2.383 0 0 1-.014.187c-.384-1.857-2.663-3.463-2.663-3.463" fill="#6E9DD9"/><path d="M70.668 60.81c.956.826 1.12 2.093 1.12 2.093-.853-1.694-3.47-2.656-3.47-2.656 1.212 1.404 1.356 2.404 1.356 2.404-.996-1.32-2.796-2.103-3.33-2.166l-.002.002c-.18.414-.363 1.854-.036 3.207h7.383c-.959-2.23-3.021-2.885-3.021-2.885m5.462.845s-.032.945.25 2.04h2.76c-.778-.73-1.528-1.432-2.207-2.066a5.58 5.58 0 0 0 .877 1.855s-1.409-.921-1.68-1.829M43.117 92.211c1.26-.09 2.272.69 2.272.69-1.801-.596-4.332.575-4.332.575 1.85.135 2.659.74 2.659.74-1.637-.228-3.464.49-3.885.823l-.001.004c.198.5 1.42 2.035 2.953 2.655 0 0-1.004.12-2.673-.687 0 0 1.606 2.279 3.464 2.663 0 0-1.267.171-2.312-.54 0 0 1.425 2.229 4.37 2.231v-9.618c-1.462-.08-2.515.464-2.515.464M109.509 54.8c-.466.185-1.834 1.263-2.52 2.65l-.741 2.38 3.525-4.568a2.398 2.398 0 0 0-.26-.461l-.004-.001m-44.467 8.894h.88a7.382 7.382 0 0 1-.774-1.617s-.122.71-.106 1.617m-21.55 40.498c.567.016 1.245.427 1.697.752l.444.058v-1.095c-1.18-.006-2.14.285-2.14.285m.304-2.312s.775.481 1.835.785v-1.073c-.52.197-1.283.418-1.835.287m55.427-41.216a5.385 5.385 0 0 0-.39-4.714l-.018 5.554c.379.006.757.02 1.134.038l.622-2.138c-.084-.567-.198-.94-.198-.94-.027.946-1.15 2.2-1.15 2.2m49.054 38.436c-1.046.71-2.313.54-2.313.54 1.858-.385 3.465-2.663 3.465-2.663-1.67.806-2.674.687-2.674.687 1.532-.621 2.755-2.156 2.954-2.655l-.001-.004c-.422-.334-2.249-1.051-3.886-.823 0 0 .81-.605 2.659-.742 0 0-2.53-1.17-4.332-.575 0 0 1.011-.78 2.272-.688 0 0-1.081-.559-2.573-.46v9.613c2.984.026 4.429-2.23 4.429-2.23M92.966 53.642s-1.785 2.14-1.677 4.034c0 0-.491-1.178-.077-2.372 0 0-.608.668-.963 1.791l1.84 5.081c.399-.094.803-.177 1.211-.25l-.098-6.444a5.03 5.03 0 0 0-.208.92s-.375-.94-.028-2.76m50.883 50.216v1.43c.086-.075 1.283-1.12 2.195-1.145 0 0-.99-.301-2.195-.285m0-2.326v1.114a8.008 8.008 0 0 0 1.894-.803c-.573.136-1.373-.107-1.894-.31m-29.223-37.839h.735c.005-.412.062-.839.23-1.151 0 0-.475.443-.965 1.15m-1.177-2.04c-.271.908-1.68 1.829-1.68 1.829.736-1.033.998-2.054 1.039-2.927l-2.52 3.139h2.91c.284-1.095.251-2.04.251-2.04m9.775-1.172l-.003-.002c-.534.062-2.333.847-3.33 2.166 0 0 .145-1.001 1.356-2.405 0 0-2.617.963-3.469 2.657 0 0 .163-1.268 1.12-2.094 0 0-2.065.657-3.024 2.89h7.385c.328-1.354.144-2.797-.035-3.212m1.194 1.59a7.426 7.426 0 0 1-.777 1.622h.883a9.573 9.573 0 0 0-.106-1.622m19.431 43.218v.77c1.594-.173 3.092-.345 4.474-.508-.926-.485-2.52-.99-4.474-.261M73.974 62.547c.168.312.225.737.23 1.147h.732a7.846 7.846 0 0 0-.962-1.147" fill="#6E9DD9"/><path d="M63.883 56.098c-1.79 1.03-4.476-.28-5.993-2.924-1.519-2.642-1.295-5.62.498-6.65 1.791-1.028 4.474.28 5.992 2.925 1.517 2.643 1.295 5.62-.497 6.649zM41.212 78.753c-1.036 1.786-4.016 1.994-6.652.464-2.636-1.529-3.931-4.22-2.894-6.007 1.038-1.787 4.015-1.995 6.652-.464 2.635 1.53 3.931 4.22 2.894 6.007zm-6.19 14.93c-.539 1.994-3.364 2.966-6.306 2.17-2.942-.794-4.89-3.058-4.35-5.053.54-1.994 3.362-2.966 6.305-2.17 2.942.796 4.89 3.06 4.35 5.054zm42.788-30.2a5.582 5.582 0 0 1-.877-1.855 5069.945 5069.945 0 0 0-2.826-2.646c-3.026 1.157-6.702.817-7.175.764l-2.024-.225.3-2.019c.699-4.712 2.587-7.821 4.707-9.794a5.263 5.263 0 0 1-.966-.561c-.147 1.075-.928 2.32-.928 2.32.739-3.51-2.767-6.785-2.767-6.785.638 1.184.148 3.523.148 3.523-.786-4.704-4.843-5.99-4.843-5.99 1.359 1.173 1.59 2.972 1.59 2.972-1.21-2.406-4.925-3.772-4.925-3.772 1.72 1.993 1.924 3.414 1.924 3.414-1.414-1.873-3.969-2.986-4.727-3.075l-.004.003c-.302.7-.615 3.47.3 5.631 0 0-1.128-.888-1.995-3.374 0 0-.675 3.901.804 6.152 0 0-1.443-1.1-1.78-2.863 0 0-.913 4.156 2.766 7.19 0 0-2.27-.746-2.976-1.89 0 0 1.083 4.672 4.493 5.789 0 0-1.392-.006-2.396-.416.136 1.076-.295 2.48-.295 2.48-.196-3.581-4.43-5.836-4.43-5.836.923.978 1.055 3.364 1.055 3.364-1.977-4.34-6.228-4.533-6.228-4.533 1.616.782 2.305 2.46 2.305 2.46-1.791-2.011-5.734-2.368-5.734-2.368 2.177 1.48 2.743 2.799 2.743 2.799-1.852-1.443-4.607-1.857-5.362-1.746l-.004.003c-.11.754.304 3.51 1.747 5.361 0 0-1.32-.565-2.8-2.742 0 0 .358 3.943 2.37 5.734 0 0-1.679-.69-2.461-2.305 0 0 .193 4.251 4.533 6.228 0 0-2.386-.132-3.364-1.055 0 0 2.256 4.234 5.838 4.43 0 0-1.346.354-2.422.218.41 1.004.358 2.473.358 2.473-1.117-3.409-5.79-4.492-5.79-4.492 1.145.705 1.89 2.976 1.89 2.976-3.033-3.68-7.19-2.766-7.19-2.766 1.763.337 2.864 1.78 2.864 1.78-2.252-1.48-6.152-.804-6.152-.804 2.485.866 3.374 1.994 3.374 1.994-2.162-.915-4.931-.602-5.631-.3l-.003.005c.088.758 1.201 3.313 3.074 4.727 0 0-1.42-.205-3.413-1.924 0 0 1.365 3.715 3.772 4.925 0 0-1.8-.232-2.973-1.59 0 0 1.287 4.057 5.99 4.843 0 0-2.339.49-3.522-.148 0 0 3.275 3.505 6.785 2.767 0 0-1.208.69-2.283.838.656.864.986 2.297.986 2.297-1.961-3.005-6.755-2.841-6.755-2.841 1.288.385 2.595 2.385 2.595 2.385-3.882-2.77-7.66-.811-7.66-.811 1.79-.13 3.226.978 3.226.978-2.557-.846-6.15.816-6.15.816 2.625.193 3.775 1.052 3.775 1.052-2.325-.323-4.918.696-5.516 1.169l-.002.005c.282.709 2.018 2.888 4.194 3.77 0 0-1.426.17-3.796-.975 0 0 2.28 3.235 4.918 3.78 0 0-1.798.243-3.283-.765 0 0 2.293 3.585 7.04 3.128 0 0-2.132 1.078-3.44.767 0 0 4.07 2.539 7.27.918 0 0-.989.98-1.989 1.4.514.399.967 1.024 1.248 1.462 2.594.53 8.107 1.564 16.254 2.637-.452-.325-1.13-.736-1.697-.752 0 0 .962-.291 2.14-.285v-1.242a8.028 8.028 0 0 1-1.835-.786c.552.131 1.314-.09 1.835-.287v-.227c-2.945-.002-4.37-2.23-4.37-2.23 1.045.71 2.312.54 2.312.54-1.858-.385-3.464-2.664-3.464-2.664 1.669.807 2.673.687 2.673.687-1.532-.62-2.755-2.155-2.953-2.655v-.004c0 .002-.003.003-.005.005l.003-.01c0 .002.002.004.003.005.421-.332 2.248-1.05 3.885-.823 0 0-.81-.605-2.659-.74 0 0 2.531-1.171 4.332-.575 0 0-1.012-.78-2.272-.69 0 0 1.053-.544 2.514-.464l-.002-26.15a7.951 7.951 0 0 1-1.118-.938c-2.151-2.158-2.706-5.093-1.24-6.551 1.464-1.457 4.394-.887 6.544 1.273 1.314 1.32 2.031 2.929 2.057 4.313h13.17a9.623 9.623 0 0 1 .106-1.617c.25.716.53 1.244.773 1.617h.385c-.327-1.353-.143-2.793.036-3.207l.003-.002h-.007l.01-.005-.003.005c.533.063 2.333.847 3.33 2.166 0 0-.145-1-1.357-2.404 0 0 2.617.962 3.47 2.656 0 0-.164-1.267-1.12-2.094 0 0 2.062.656 3.021 2.885h.515c-.005-.41-.062-.835-.23-1.147 0 0 .473.443.962 1.147h1.444c-.282-1.095-.25-2.04-.25-2.04.271.908 1.68 1.829 1.68 1.829zm21.414-2.82s1.123-1.254 1.15-2.2c0 0 .114.373.198.94l3.08-10.585c-.835-.756-1.534-1.649-2.126-2.574a24.672 24.672 0 0 1-2.668 1.77l-.024 7.935a5.385 5.385 0 0 1 .39 4.714m61.624 35.219c-2.946.781-5.765-.204-6.295-2.202-.53-1.994 1.43-4.25 4.376-5.031 2.945-.784 5.763.203 6.294 2.2.53 1.998-1.428 4.25-4.375 5.033zm-12.465-17.12c-1.029-1.79.28-4.475 2.924-5.992 2.642-1.52 5.62-1.296 6.65.497 1.028 1.792-.28 4.474-2.924 5.992-2.643 1.518-5.621 1.295-6.65-.497zm20.212 13.78c2.176-.883 3.912-3.062 4.194-3.77l-.001-.006c-.6-.473-3.193-1.492-5.517-1.168 0 0 1.15-.86 3.774-1.053 0 0-3.592-1.662-6.15-.816 0 0 1.437-1.109 3.227-.978 0 0-3.778-1.958-7.66.812 0 0 1.307-2 2.594-2.386 0 0-4.793-.164-6.754 2.841 0 0 .338-1.416.995-2.28-1.075-.146-2.283-.837-2.283-.837 3.51.738 6.784-2.768 6.784-2.768-1.183.638-3.522.149-3.522.149 4.704-.787 5.991-4.844 5.991-4.844-1.173 1.359-2.973 1.59-2.973 1.59 2.406-1.21 3.772-4.925 3.772-4.925-1.993 1.72-3.414 1.925-3.414 1.925 1.873-1.415 2.987-3.97 3.075-4.727l-.003-.005c-.7-.302-3.47-.616-5.63.3 0 0 .887-1.128 3.372-1.994 0 0-3.9-.676-6.151.803 0 0 1.1-1.442 2.863-1.78 0 0-4.156-.913-7.188 2.767 0 0 .744-2.27 1.889-2.976 0 0-4.673 1.083-5.79 4.492 0 0-.04-1.454.37-2.458-1.075.135-2.421-.22-2.421-.22 3.582-.195 5.837-4.428 5.837-4.428-.978.923-3.364 1.055-3.364 1.055 4.34-1.977 4.533-6.229 4.533-6.229-.782 1.616-2.46 2.305-2.46 2.305 2.012-1.791 2.369-5.734 2.369-5.734-1.48 2.177-2.8 2.743-2.8 2.743 1.444-1.851 1.858-4.607 1.748-5.362l-.005-.004c-.755-.11-3.51.304-5.362 1.748 0 0 .567-1.32 2.744-2.8 0 0-3.943.358-5.735 2.368 0 0 .69-1.678 2.306-2.46 0 0-4.252.193-6.228 4.533 0 0 .13-2.386 1.054-3.363 0 0-4.234 2.255-4.43 5.838 0 0-.414-1.396-.278-2.472-1.004.41-2.396.416-2.396.416 3.41-1.116 4.492-5.79 4.492-5.79-.705 1.145-2.976 1.89-2.976 1.89 3.68-3.033 2.767-7.189 2.767-7.189-.338 1.763-1.78 2.863-1.78 2.863 1.479-2.25.803-6.151.803-6.151-.866 2.485-1.993 3.373-1.993 3.373.914-2.161.601-4.93.299-5.63l-.005-.003c-.757.088-3.311 1.201-4.727 3.075 0 0 .205-1.421 1.925-3.414 0 0-3.716 1.365-4.925 3.772 0 0 .231-1.8 1.589-2.973 0 0-4.056 1.287-4.843 5.99 0 0-.49-2.339.149-3.522 0 0-1.517 1.416-2.345 3.385a12.285 12.285 0 0 1 3.26 3.464l.034-.061c1.53-2.636 4.22-3.932 6.008-2.894 1.786 1.038 1.995 4.016.464 6.652-1.53 2.636-4.22 3.932-6.007 2.894a2.692 2.692 0 0 1-.941-.93c-3.018.694-6.12.387-7.795.12l-4.216 5.25c-.04.873-.303 1.894-1.04 2.927 0 0 1.41-.921 1.681-1.829 0 0 .033.946-.25 2.04h1.427c.49-.707.966-1.15.966-1.15-.169.312-.226.74-.231 1.15h.513c.959-2.232 3.024-2.89 3.024-2.89-.957.827-1.12 2.095-1.12 2.095.852-1.694 3.47-2.657 3.47-2.657-1.212 1.404-1.357 2.405-1.357 2.405.997-1.32 2.796-2.104 3.33-2.166l.003.002-.002-.006.01.005-.008.001c.179.415.363 1.858.035 3.212h.382c.244-.374.526-.903.777-1.622 0 0 .123.713.106 1.622h13.234c.038-1.381.762-2.98 2.078-4.29 2.158-2.15 5.092-2.705 6.55-1.24 1.458 1.464.889 4.394-1.272 6.545-.4.398-.826.74-1.265 1.026v25.98c1.492-.098 2.573.461 2.573.461-1.26-.092-2.272.688-2.272.688 1.802-.595 4.332.575 4.332.575-1.849.137-2.66.742-2.66.742 1.638-.228 3.465.49 3.887.823l.001.004.002-.007.003.01c-.002 0-.004-.003-.005-.003-.2.499-1.422 2.034-2.954 2.655 0 0 1.004.119 2.674-.687 0 0-1.607 2.278-3.465 2.663 0 0 1.267.17 2.313-.54 0 0-1.445 2.256-4.429 2.23v.203c.521.204 1.32.447 1.894.311 0 0-.803.5-1.894.803v1.212a8.025 8.025 0 0 1 2.195.285c-.912.026-2.11 1.07-2.195 1.145v.003c1.954-.729 3.548-.224 4.474.261 5.886-.695 9.66-1.247 9.661-1.247a12.12 12.12 0 0 1 3.529.02l2.401-2.963c-1.231.09-2.554.449-3.59 1.376 0 0 .693-1.28 1.55-1.944-1-.42-1.988-1.4-1.988-1.4 1.982 1.004 4.295.413 5.772-.182.21-.26.402-.498.57-.703-1.198-.136-2.512-.8-2.512-.8 4.747.457 7.04-3.128 7.04-3.128-1.485 1.008-3.283.766-3.283.766 2.637-.545 4.918-3.78 4.918-3.78-2.37 1.144-3.796.974-3.796.974zM90.249 57.095c.355-1.123.963-1.791.963-1.791-.414 1.194.077 2.372.077 2.372-.108-1.893 1.677-4.034 1.677-4.034-.347 1.82.028 2.76.028 2.76a5.03 5.03 0 0 1 .208-.92c-.047-3.136-.09-6.009-.105-6.924-1.174-.544-2.258-1.323-3.167-2.129a24.218 24.218 0 0 1-2.348 3.302c.31.853 1.468 4.052 2.667 7.364m15.755-19.782s-.503.807-.918 1.984c.371-.045.733-.076 1.085-.096-.18-.627-.299-1.331-.167-1.888m-30.016 1.936c1.532-.407 3.214.652 4.267 2.498a13.539 13.539 0 0 1 2.614-1.289c.284-4.545-3.15-6.742-3.15-6.742 1.008 1.484.766 3.282.766 3.282-.546-2.637-3.782-4.918-3.782-4.918 1.146 2.37.976 3.796.976 3.796-.881-2.176-3.061-3.912-3.77-4.194l-.005.002c-.473.599-1.493 3.192-1.169 5.516 0 0-.859-1.15-1.052-3.774 0 0-1.662 3.593-.816 6.15 0 0-1.109-1.436-.978-3.227 0 0-1.958 3.779.811 7.66 0 0-2-1.306-2.385-2.595 0 0-.129 3.77 1.937 5.991a11.746 11.746 0 0 1 3.475-2.102c-.67-2.856.316-5.539 2.26-6.054m7.627-1.934c.234.985-.32 2.437-.607 3.094.59-.207 1.168-.36 1.73-.47-.431-1.515-1.123-2.624-1.123-2.624m-5.879 17.162l1.742 1.693c.189-.658.431-1.17.59-1.369h.003a.093.093 0 0 1-.006-.003l.01-.003a.027.027 0 0 0-.004.006c.499.197 2.034 1.42 2.655 2.953 0 0 .119-1.004-.687-2.673 0 0 2.279 1.606 2.663 3.463 0 0 .01-.069.014-.188l-2.355-6.14c-1.43-.123-2.845-.565-4.016-1.04a24.26 24.26 0 0 1-.609 3.3M88.358 39.8c-.414-.505-1.428-1.85-1.459-2.919 0 0-.384 1.262-.405 2.847.665-.03 1.291 0 1.864.073m14.381-2.92c-.015.54-.281 1.148-.594 1.684.356.145.678.297.965.446a11.125 11.125 0 0 0-.371-2.13M89.684 40.07a19.508 19.508 0 0 1 2.204-1.125c.686-1.32 1.768-2.172 2.983-2.17.769.003 1.483.347 2.075.935a12.12 12.12 0 0 1 4.596.63c.538-3.562-1.635-5.943-1.635-5.943.59 1.695-.11 3.37-.11 3.37.156-2.69-2.38-5.73-2.38-5.73.493 2.586-.039 3.918-.039 3.918-.288-2.33-1.945-4.57-2.556-5.026h-.006c-.612.456-2.267 2.697-2.556 5.026 0 0-.533-1.332-.04-3.918 0 0-2.535 3.04-2.38 5.73 0 0-.7-1.675-.11-3.37 0 0-2.786 3.053-1.267 7.417l.092.013c.058-.146 1.006.21 1.13.244m21.537-.281c.8-.532 1.677-.74 2.51-.516 1.34.363 2.217 1.757 2.408 3.525.35.359.619.683.813.937a15.68 15.68 0 0 1 3.713 1.474c.702-1.897.637-3.797.637-3.797-.385 1.288-2.385 2.595-2.385 2.595 2.77-3.882.812-7.66.812-7.66.13 1.79-.978 3.227-.978 3.227.846-2.557-.817-6.151-.817-6.151-.192 2.626-1.053 3.775-1.053 3.775.325-2.325-.694-4.918-1.167-5.517l-.006-.001c-.708.282-2.888 2.018-3.77 4.193 0 0-.17-1.425.976-3.794 0 0-3.236 2.28-3.781 4.917 0 0-.242-1.798.765-3.283 0 0-2.788 1.785-3.132 5.464 1.71-.035 3.19.211 4.455.611m.181 10.227c-.047-.17-.091-.339-.132-.507a24.535 24.535 0 0 1-1.964.518c-.256.823-1.254 4.014-2.317 7.423.685-1.387 2.053-2.465 2.519-2.65h.004l-.004-.005.01.003-.006.003c.073.092.163.25.26.46 1.145-1.485 2.057-2.665 2.42-3.134a11.925 11.925 0 0 1-.79-2.111" fill="#287AC8"/><path d="M91.888 38.945c1.85-.797 3.547-1.155 5.058-1.235-.592-.588-1.306-.932-2.075-.934-1.215-.003-2.297.848-2.983 2.17m21.844.328c-.833-.225-1.71-.016-2.51.515a11.86 11.86 0 0 1 4.918 3.01c-.19-1.768-1.068-3.162-2.408-3.525m12.028 16.841c1.786 1.038 4.477-.258 6.007-2.894 1.53-2.636 1.322-5.614-.464-6.652-1.788-1.038-4.479.258-6.008 2.894l-.033.061c.326.527.59 1.046.795 1.54.104-.306.243-.614.418-.915.973-1.676 2.681-2.5 3.816-1.84 1.136.66 1.27 2.552.295 4.228-.953 1.645-2.617 2.467-3.75 1.871l.04.254-1.737.446a12.38 12.38 0 0 1-.32.077c.237.387.552.704.94.93m20.628 2.048c-1.459-1.464-4.393-.91-6.551 1.241-1.316 1.31-2.04 2.909-2.078 4.29h1.777c-.234-.982.228-2.294 1.263-3.323 1.372-1.366 3.235-1.72 4.161-.788.927.931.567 2.793-.808 4.16-.098.097-.2.189-.302.276v1.716a7.962 7.962 0 0 0 1.265-1.026c2.16-2.15 2.73-5.08 1.273-6.546m5.599 15.79c1.68-.965 3.57-.824 4.224.314.654 1.141-.175 2.846-1.857 3.81-1.679.966-3.571.823-4.224-.316-.655-1.14.178-2.845 1.857-3.808zm3.047 5.306c2.644-1.518 3.952-4.2 2.923-5.992-1.029-1.793-4.007-2.016-6.649-.497-2.643 1.517-3.953 4.202-2.924 5.992 1.029 1.792 4.007 2.015 6.65.497zm4.246 10.708c1.871-.496 3.662.129 3.998 1.397.336 1.272-.906 2.703-2.78 3.199-1.872.498-3.663-.129-3.998-1.397-.338-1.272.908-2.703 2.78-3.199zm-4.726 3.713c.53 1.998 3.349 2.983 6.295 2.202 2.947-.783 4.904-3.035 4.375-5.032-.53-1.998-3.349-2.985-6.294-2.201-2.946.781-4.906 3.037-4.376 5.03zM75.988 39.249c-1.945.515-2.93 3.198-2.261 6.054a9.993 9.993 0 0 1 1.31-.402c-.361-1.763.263-3.388 1.466-3.707.913-.242 1.91.332 2.583 1.372.389-.301.78-.573 1.169-.819-1.053-1.846-2.735-2.905-4.267-2.498m-16.6 9.022c1.14-.654 2.845.176 3.809 1.857.966 1.68.824 3.571-.315 4.224-1.14.656-2.845-.177-3.809-1.857s-.823-3.571.315-4.224zm4.495 7.827c1.792-1.029 2.014-4.006.497-6.65-1.518-2.643-4.2-3.952-5.992-2.923-1.793 1.029-2.017 4.007-.498 6.65 1.517 2.642 4.203 3.952 5.993 2.923zm-20.613 2.01c-1.465 1.458-.91 4.393 1.241 6.551.354.357.73.67 1.118.937v-1.754l-.151-.144c-1.367-1.373-1.72-3.236-.79-4.162.934-.927 2.795-.567 4.16.808 1.04 1.042 1.492 2.367 1.241 3.35h1.783c-.026-1.384-.743-2.993-2.057-4.313-2.15-2.16-5.08-2.73-6.545-1.273M39.472 77.74c-.66 1.14-2.552 1.27-4.227.297-1.675-.972-2.498-2.68-1.839-3.815.66-1.137 2.552-1.271 4.227-.296 1.677.97 2.5 2.68 1.839 3.814zm1.74 1.013c1.037-1.787-.259-4.477-2.894-6.007-2.637-1.531-5.614-1.323-6.652.464-1.037 1.788.258 4.478 2.894 6.007 2.636 1.53 5.616 1.322 6.652-.464zm-8.134 14.404c-.341 1.27-2.136 1.886-4.005 1.38-1.87-.507-3.107-1.943-2.764-3.21.344-1.269 2.136-1.888 4.006-1.38 1.87.505 3.108 1.943 2.763 3.21zm-2.407-4.527c-2.943-.796-5.765.176-6.305 2.17-.54 1.995 1.408 4.26 4.35 5.054 2.942.795 5.767-.177 6.305-2.17.54-1.995-1.408-4.258-4.35-5.054z" fill="#59C134"/><path d="M130.586 52.537c.975-1.676.841-3.567-.295-4.228-1.135-.66-2.843.164-3.816 1.84-.175.3-.314.609-.418.916.244.586.407 1.137.501 1.627.022-.397.16-.85.412-1.285.562-.97 1.483-1.486 2.056-1.153.573.334.582 1.388.02 2.357-.539.926-1.401 1.436-1.977 1.192l.5-1.315-.914.79.18 1.13c1.134.596 2.798-.226 3.751-1.871m14.374 7.046c-.927-.932-2.79-.578-4.162.788-1.035 1.03-1.497 2.34-1.263 3.323h1.151l.562-.78-1.117.542c-.036-.513.26-1.185.819-1.74.794-.792 1.818-1.052 2.285-.582.466.47.202 1.49-.593 2.281-.103.103-.21.195-.318.279h1.525v.325a5.21 5.21 0 0 0 .302-.277c1.375-1.366 1.735-3.228.808-4.16m6.827 15.708c.972-.558 2.027-.545 2.357.03.328.575-.19 1.492-1.163 2.05-.928.533-1.93.544-2.307.045l1.09-.889-1.22.233c.099-.504.559-1.077 1.243-1.468zm2.567 2.786c1.682-.963 2.511-2.668 1.857-3.809-.653-1.138-2.544-1.279-4.224-.314-1.68.963-2.512 2.668-1.857 3.808.653 1.14 2.545 1.282 4.224.315zm2.806 14.229c.225-.463.817-.896 1.58-1.098 1.083-.288 2.099-.002 2.269.638.169.64-.57 1.393-1.654 1.681-1.035.274-2.006.025-2.24-.554l1.283-.577-1.238-.09zm3.338 2.258c1.874-.496 3.116-1.927 2.78-3.199-.336-1.268-2.127-1.893-3.998-1.397-1.872.496-3.118 1.927-2.78 3.199.335 1.268 2.126 1.895 3.998 1.397zM76.503 41.194c-1.203.32-1.827 1.944-1.466 3.707a7.568 7.568 0 0 1 1.194-.181h.009c.043-.644.312-1.142.743-1.257.264-.07.546.017.807.216.43-.409.862-.779 1.296-1.113-.673-1.04-1.67-1.614-2.583-1.372M60.44 50.338c.576-.328 1.493.191 2.05 1.163.534.929.544 1.93.045 2.307l-.888-1.09.233 1.22c-.505-.099-1.077-.558-1.469-1.243-.559-.97-.545-2.027.029-2.357zm2.442 4.014c1.139-.653 1.281-2.544.315-4.224-.964-1.681-2.668-2.511-3.809-1.857-1.138.653-1.28 2.544-.315 4.224.964 1.68 2.669 2.513 3.809 1.857zm-14.644 9.342h.403l-.62-.5z" fill="#FFF"/><path d="M48.849 60.344c-1.366-1.375-3.227-1.735-4.16-.808-.93.926-.578 2.789.789 4.162l.15.144v-.148h1.353a2.97 2.97 0 0 1-.16-.15c-.79-.793-1.05-1.816-.581-2.284.47-.466 1.491-.202 2.282.593.593.597.885 1.32.797 1.84h.77c.25-.982-.201-2.307-1.24-3.349M38.9 77.443l-1.315-.5.812.94c-.486.168-1.211.056-1.893-.341-.97-.562-1.486-1.483-1.153-2.056.334-.572 1.388-.581 2.357-.018.926.537 1.436 1.4 1.192 1.975zm-1.267-3.517c-1.675-.975-3.566-.841-4.227.296-.66 1.134.164 2.843 1.84 3.815 1.674.973 3.567.842 4.226-.297.66-1.134-.162-2.843-1.839-3.814zM32.45 93.017l-1.4-.143 1.027.698c-.426.288-1.155.367-1.917.16-1.082-.292-1.819-1.047-1.646-1.687.175-.64 1.19-.92 2.273-.627 1.033.28 1.75.98 1.662 1.599zm-2.135-3.07c-1.87-.508-3.662.111-4.006 1.38-.343 1.267.894 2.703 2.764 3.21 1.869.506 3.664-.11 4.005-1.38.345-1.267-.893-2.705-2.763-3.21z" fill="#FFF"/><path d="M127.07 53.803c.575.244 1.437-.266 1.975-1.192.563-.969.554-2.023-.019-2.357-.573-.333-1.494.183-2.056 1.153-.253.435-.39.888-.412 1.285.013.069.026.136.036.202l.061.384.914-.79-.5 1.315m16.166 7.331c-.467-.47-1.49-.21-2.285.581-.56.556-.855 1.228-.819 1.74l1.117-.54-.562.779h1.638c.109-.084.215-.176.318-.279.795-.79 1.06-1.811.593-2.281m7.438 16.281c.376.499 1.38.488 2.307-.045.973-.558 1.491-1.475 1.163-2.05-.33-.575-1.385-.588-2.357-.03-.684.392-1.144.965-1.242 1.469l1.22-.233-1.091.889m8.681 16.111c1.083-.288 1.823-1.04 1.654-1.68-.17-.64-1.186-.927-2.27-.639-.762.202-1.354.635-1.58 1.098l1.239.09-1.283.577c.234.579 1.205.828 2.24.554M76.983 43.463c-.43.115-.7.613-.743 1.256l.572-.036c.324-.358.65-.692.978-1.004-.261-.199-.543-.285-.807-.216M61.88 53.937l-.233-1.219.888 1.09c.5-.376.489-1.378-.044-2.307-.558-.972-1.475-1.491-2.051-1.163-.574.33-.588 1.386-.029 2.357.392.685.964 1.144 1.47 1.242m-13.359 7.916c-.79-.795-1.811-1.059-2.282-.593-.47.468-.21 1.491.582 2.285.052.052.105.102.159.149h1.257l-.217-.447.62.447h.678c.088-.522-.204-1.244-.797-1.84M37.708 75.468c-.97-.563-2.023-.554-2.357.018-.333.573.183 1.494 1.153 2.056.682.397 1.407.509 1.893.34l-.812-.938 1.315.499c.244-.575-.266-1.438-1.192-1.975m-6.921 15.95c-1.082-.294-2.098-.013-2.273.627-.173.64.564 1.395 1.646 1.687.762.207 1.491.128 1.917-.16l-1.027-.698 1.4.143c.087-.62-.63-1.32-1.663-1.6" fill="#231F20"/><path d="M77.735 54.477c.21-.812.458-1.968.609-3.301 1.171.475 2.587.917 4.016 1.04.463 1.209 2.488 6.482 4.13 10.771-3.494-3.399-7.89-7.671-8.755-8.51zm12.195-8.048c.909.806 1.993 1.585 3.167 2.129l.203 13.367c-.408.074-.812.157-1.212.251l-4.506-12.445a24.218 24.218 0 0 0 2.348-3.302zm8.928 1.585c.7-.4 1.65-.994 2.668-1.77.592.925 1.291 1.818 2.125 2.574l-3.7 12.723a34.55 34.55 0 0 0-1.135-.038l.042-13.489zm10.45 2.013a24.52 24.52 0 0 0 1.963-.518c.21.875.506 1.78.921 2.618-.697.902-3.419 4.429-5.944 7.703l3.06-9.803zm70.707 98.759c2.979-1.683 13.532-7.635 13.532-7.635a415.22 415.22 0 0 0-9.21-2.743c2.423-2.449 3.956-6.26 3.956-11.445 0-5.843-2.541-8.854-4.1-10.154l4.944-12.693-8.823-2.18c-2.912-.638-6.066-1.015-9.34.85l-4.111-5.061-5.35 6.6a12.12 12.12 0 0 0-3.529-.02c-.002 0-5.753.843-14.135 1.755V63.694h-33.562l6.737-8.389c1.734.276 4.999.596 8.115-.197l1.736-.446-.281-1.768c-.424-2.662-2.998-7.423-9.64-9.158-1.183-1.55-5.169-5.709-13.042-4.261-1.956-1.256-7.174-3.57-14.228.596-.123-.034-1.071-.39-1.13-.244-3.02-.442-7.619.29-11.742 4.856l-.581.037c-3.185.207-9.592 3.14-11.024 12.782l-.3 2.019 2.025.225c.473.053 4.149.393 7.175-.764l5.034 4.712H45.629l.004 41.308c-11.97-1.56-18.394-3.057-18.405-3.06-12.611-2.833-15.114 8.09-15.114 12.665 0 3.674 1.39 7.386 3.675 9.992l-5.116 13.976a273.383 273.383 0 0 0-4.609 1.403l13.556 7.647-14.53 17.1s10.692-3.324 19.928-5.76v11.893c9.264-2.32 21.686-4.724 21.686-4.724v-5.095a415.561 415.561 0 0 1 22.189-2.658C81.33 168.9 94.214 174.785 94.74 175.015c.793-.363 14.157-6.485 26.744-17.362 10.203.673 20.69 1.812 31.633 3.42v5.092s10.663 1.988 22.508 4.956v-10.729c3.822 1.022 18.908 5.481 18.908 5.481l-14.518-17.087z" fill="#231F20"/><path d="M94.62 168.594c-4.829-2.506-11.201-6.397-17.134-10.898-1.46.099-2.925.209-4.397.326 7.317 5.839 16.138 11.294 21.532 13.78v-3.208" fill="#6E9DD9"/><path d="M94.62 168.594v3.209l.12.055c4.034-2 13.27-6.937 22.436-14.461a311.887 311.887 0 0 0-4.489-.211c-7.095 5.51-13.98 9.41-17.947 11.472l-.12-.064" fill="#287AC8"/><path d="M94.74 165.413l-.12-.067v3.248c.04.02.081.043.12.064 3.967-2.062 10.852-5.962 17.947-11.472-1.57-.064-3.136-.115-4.696-.155a119.048 119.048 0 0 1-13.25 8.382" fill="#59C134"/><path d="M107.991 157.031a317.844 317.844 0 0 0-13.27-.064l.023 8.443a119.048 119.048 0 0 0 13.247-8.379" fill="#C8C7C7"/><path d="M94.74 165.413l.004-.003-.023-8.443c-4.19.067-8.416.218-12.69.45 3.975 2.863 8.226 5.525 12.59 7.93l.12.066" fill="#FFF"/><path d="M82.18 69.177c.098-.135.198-.268.3-.398l-.007-.008c.24-.43.502-.836.785-1.222l-1.051-.985h-33.27l-.003 38.852c1.066.128 2.17.257 3.31.383 0-12.676.003-32.44.003-36.622H82.18" fill="#6E9DD9"/><path d="M110.714 66.564c.336.42.634.894.866 1.43.497.266.998.652 1.389 1.183h24.262l.003 37.558a440.21 440.21 0 0 0 3.308-.327c0-14.646-.003-39.844-.003-39.844h-29.825" fill="#287AC8"/><path d="M112.969 69.177c.117.158.225.33.32.516a5.116 5.116 0 0 1 2.148 2.094h18.488v35.249a394.8 394.8 0 0 0 3.31-.301l-.004-37.558H112.97" fill="#59C134"/><path d="M115.437 71.787c.34.62.589 1.367.681 2.258.26.377.528.886.692 1.543.924.826 2 2.212 2.457 4.078 2.732 1.85 6.478 6.012 6.478 12.116 0 .853-.074 1.743-.234 2.669l-.761 4.328-2.732-3.465c-.118-.148-2.616-3.177-8.434-2.97.267.697.539 1.398.539 1.398h-2.693c1.108 1.448 2.285 3.499 2.201 5.596 0 0 1.716 1.402 2.34 2.805l-1.718.156s2.497 3.898 3.901 5.147c.177.157.385.364.613.613a361.55 361.55 0 0 0 15.158-1.023V71.787h-18.488" fill="#C8C7C7"/><path d="M70.591 100.584s-2.183 2.181-2.65 3.12c0 0-.313-9.514 2.65-13.256 0 0-1.478-.61-3.276.864 0 0 .736-4.338 3.589-6.477 0 0-1.247-1.25-2.963-1.092 0 0 1.716-1.716 5.3-1.562l-1.243-2.026s1.869-.622 3.428-.154c0 0 2.025-4.99 4.678-7.174 0 0 .182-.42.5-1.04h-25.05l-.004 34.366c4.032.413 8.468.804 13.287 1.143.606-2.214 1.416-4.54 2.378-5.776l-.624-.936" fill="#FFF"/><path d="M172.359 141.227s-2.038-.394-5.69-.988v4.79c2.361.446 8.957 1.791 8.957 1.791v11.162a399.939 399.939 0 0 1 12.054 3.411c-3.742-4.475-7.496-8.89-11.256-13.248a588.413 588.413 0 0 1 11.256-6.35c-1.864-.56-3.73-1.104-5.599-1.634-2.773 1.617-6.205 1.97-9.722 1.066m-147.072.32c-1.512.242-3.64.314-5.982-.316l.05.016-5.242-1.252c-.72.212-1.44.424-2.16.64a609.532 609.532 0 0 1 11.257 6.35 1108.341 1108.341 0 0 0-11.257 13.248 402.846 402.846 0 0 1 13.065-3.679v-9.997s5.922-1.186 7.946-1.567v-4.714c-4.799.753-7.68 1.277-7.677 1.27m34.463 11.169c1.053-.094 1.159-1.523 1.159-2.606 0-1.082-.106-2.493-1.159-2.399-1.043.094-1.148 1.522-1.148 2.605s.105 2.494 1.148 2.4" fill="#287AC8"/><path d="M157.567 155.885l1-.838v-5.872l-1-1.2 6.083 1.098v2.225l-1.225-1.468-1.79-.323v2.198l1.198.218.987-.828v3.016l-.987-1.196-1.199-.216v2.761l1.791.323 1.225-1.026v2.225l-6.083-1.097zm-55.003-5.115h-4.908l.8-.799v-4.605l-.8-.8h3.254l-.8.8v4.637h1.485l.969-.978v1.745zm19.853-5.381v1.745l-.98-1.038-1.432-.087v1.723l.958.06.79-.74v2.365l-.79-.848-.958-.058v2.166l1.432.088.98-.918v1.745l-4.867-.298.802-.75v-4.658l-.802-.847 4.867.35zm18.4 1.614c.758.096 1.232.24 1.917.695v1.819l-1.107-1.254c-.263-.287-.463-.438-.81-.482-1.19-.15-1.549 1.118-1.549 2.264 0 1.146.179 2.483 1.549 2.656.22.028.358-.048.537-.132v-1.85l-.8-.9 3.243.411-.8.697v2.377c-.78.31-1.316.286-2.18.176-1.686-.215-3.413-1.894-3.413-3.671 0-1.84 1.727-3.02 3.413-2.806zm-58.149 4.282l-4.908.317.8-.856v-4.64l-.8-.752 3.254-.211-.8.857v4.67l1.485-.096.97-1.047v1.758zm-42.102 5.044c-2.002.244-3.766-1.447-3.766-3.589 0-2.143 1.66-4.25 3.766-4.507.947-.116 1.566-.112 2.409.284v2.26l-1.396-1.222c-.316-.277-.566-.404-1.013-.35-1.41.172-1.436 1.897-1.436 3.25 0 1.354.013 3.074 1.436 2.901.447-.053.697-.242 1.013-.609l1.396-1.55v2.26c-.843.602-1.462.757-2.41.872zm19.184-9.396c1.748-.157 3.022 1.274 3.022 3.01 0 1.734-1.274 3.394-3.022 3.55-1.738.155-3.013-1.277-3.013-3.01 0-1.736 1.275-3.396 3.013-3.55zm40.897-6.352c-24.349-.038-48.737 2.778-72.988 7.705v19.461a413.474 413.474 0 0 1 17.043-3.695v-5.212c18.504-2.79 37.037-4.407 55.529-4.404 18.488.009 37.025 1.637 55.527 4.437v5.214a416.827 416.827 0 0 1 17.866 3.914v-19.458c-24.24-5.02-48.627-7.924-72.977-7.962z" fill="#287AC8"/><path d="M42.975 153.197l-1.396 1.55c-.316.367-.566.556-1.013.61-1.423.172-1.436-1.548-1.436-2.902 0-1.353.026-3.078 1.436-3.25.447-.054.697.073 1.013.35l1.396 1.223v-2.26c-.843-.397-1.462-.4-2.41-.285-2.106.256-3.765 2.364-3.765 4.507 0 2.142 1.764 3.833 3.766 3.589.947-.115 1.566-.27 2.409-.872v-2.26m16.775-5.487c1.053-.094 1.159 1.317 1.159 2.399 0 1.083-.106 2.512-1.159 2.606-1.043.094-1.148-1.317-1.148-2.4s.105-2.51 1.148-2.605zm-3.013 2.773c0 1.733 1.275 3.165 3.013 3.01 1.748-.156 3.022-1.816 3.022-3.55 0-1.736-1.274-3.167-3.022-3.01-1.738.154-3.013 1.814-3.013 3.55zm23.477.187V146l.8-.857-3.254.21.8.754v4.639l-.8.856 4.908-.317v-1.758l-.97 1.047-1.484.097m19.896-.668v-4.637l.8-.8h-3.254l.8.8v4.605l-.8.8h4.908v-1.746l-.97.978h-1.485m18.243.541l-.802.75 4.867.298v-1.745l-.98.918-1.432-.088v-2.166l.958.058.79.848v-2.365l-.79.74-.958-.06v-1.723l1.432.087.98 1.038v-1.745l-4.867-.35.802.847v4.658m22.465 2.936c.864.11 1.4.135 2.18-.176v-2.377l.8-.697-3.244-.411.801.9v1.85c-.18.084-.317.16-.537.132-1.37-.173-1.549-1.51-1.549-2.656 0-1.146.358-2.415 1.549-2.264.347.044.547.195.81.482l1.107 1.254v-1.819c-.685-.455-1.16-.6-1.917-.695-1.686-.214-3.413.966-3.413 2.806 0 1.777 1.727 3.456 3.413 3.67m22.833 1.278l-1.225 1.026-1.79-.323v-2.76l1.198.216.987 1.196v-3.016l-.987.828-1.199-.218v-2.198l1.791.323 1.225 1.468v-2.225l-6.083-1.098 1 1.2v5.872l-1 .838 6.083 1.097v-2.225" fill="#FFF"/><path d="M146.768 116.787v-2.649l.508-.057.082-.009.84.95-1.43 1.765zm-.755-3.324v5.017h.355l2.82-3.48a864.24 864.24 0 0 1-1.524-1.723l-1.65.186zm.755 11.73l1.968 2.46-1.375 1.546-.593-.066v-3.94zm-.755-1.716v6.331c.737.084 1.134.128 1.652.186l2.059-2.315-3.361-4.202h-.35zm-87.475 6.234c-.136.178-.36.476-.691.913l-.421-.472v-17.03l.08-.088 1.032 1.955v14.722zm.755-14.91l-1.628-3.083c-.46.518-.849.953-.995 1.117v17.605l1.224 1.374 1.399-1.85v-15.163zm99.899 3.536c.286-.222.5-.47.5-.76v-4.399c0-.303-.203-.568-.5-.78v5.939m-120.75 16.771l-1.947-1.842 1.454-5.096h1.32c.229.791.985 3.42 1.13 3.923l-1.957 3.015zm1.397-7.694h-2.46l-1.736 6.085 2.938 2.783 2.64-4.067-1.382-4.8zm111.921-3.163l-.752.846v-6.896l.752.849v5.201zm.755 7.297v-19.83l-.654-.716v7.022l-1.609-1.819v10.88l1.609-1.81v6.987l.654-.714zm9.14 4.04l-2.463-7.05v3.662l2.463 3.388m-62.137-17.39v-6.232c.672.22 1.37 1.507 1.37 3.141 0 1.607-.698 2.875-1.37 3.091zm-.197-7.034h-.56v7.835h.56c1.259 0 2.322-1.782 2.322-3.892 0-2.137-1.063-3.943-2.322-3.943z" fill="#59C134"/><path d="M179.822 115.39c-.754-.653-2.715-2.354-2.85-2.469-.104-.17-.321-.772-.321-1.17 0-1.314.512-1.989.741-2.185.105.012.194.024.267.049l2.163 5.775zm-6.877 23.356s-26.823-5.574-64.35-6.439l3.371-4.012v-13.31l-.754-.9c.03.333.05.672.05 1.022 0 7.051-6.19 10.262-11.941 10.262h-.56v6.362c.488.6 4.588 5.66 4.588 5.66H85.046s4.104-5.06 4.593-5.66v-21.278c-.49-.6-4.594-5.657-4.594-5.657H99.32c4.45 0 9.04 1.944 11.064 6.092 25.609-.463 47.952-4.058 47.952-4.058 2.402-.336 4.577.14 6.025 1.293l-.658-2.451 3.16-3.9 3.168 3.9-.51 1.892c3.075-4.626 7.796-3.673 10.228-3.142l5.957 1.473-4.402 11.302-3.045-8.132c-.142-.109-.541-.274-.997-.274-.33.027-1.368.966-1.368 2.96 0 .59.316 1.46.509 1.676.201.176 6.14 5.322 6.114 5.302 1.204.989 3.224 3.374 3.224 8.234 0 11.14-7.219 13.246-12.797 11.783zm-84.062-15.918v8.634l-.464.57-3.284-3.899v-10.152c.937 1.21 2.834 3.666 3.748 4.847zm-62-7.403l-2.846-2.467c-.106-.17-.323-.774-.323-1.174 0-1.311.51-1.984.738-2.182.106.013.195.025.268.048l2.162 5.775zm-7.843 9.798l4.558 3.886.084.082c.285.277.302.294.302.953 0 1.993-.95 3.028-1.224 3.144-.305-.01-.784-.136-1.115-.27l-2.605-7.795zm49.329 8.3l-3.559-4.08v-2.64l3.559 6.72zm5.15-.746v-11.22c.25-.295 2.195-2.606 3.455-4.103v10.907c-.291.374-3.409 4.358-3.455 4.416zm.762.254l3.45-4.41v-13.237c-.6.71-4.268 5.067-4.268 5.067v-7.012l-.7.822v18.924l-3.6.224-5.109-9.65v5.967l3.304 3.788c-19.33 1.43-40.583 5.224-40.583 5.224s-3.713.982-6.85.022l-6.074-1.45 4.408-12.04 2.772 8.294c.376.219 1.236.484 1.77.484.665 0 1.94-1.521 1.94-3.904 0-.979-.156-1.13-.53-1.494l-.103-.099-5.394-4.6c-2.46-2.06-4.05-5.727-4.05-9.344 0-5.28 2.705-10.609 8.747-10.609 1.178 0 2.316.22 3.329.448l6.155 1.177-4.53 11.607-3.044-8.128c-.142-.11-.542-.273-.997-.274-.524.042-2.255 3.06-.856 4.637l6.114 5.299c1.186.98 3.162 3.324 3.216 8.043l5.915-20.348 2.352.35 7.149 24.34.88 1.044.899-1.224v-18.654l-1.657-2.253-1.8-2.452s10.259 1.223 17.904 1.883l3.588 7.001v-2.401l-3.52-4.568s17.19 1.182 24.134 1.353v10.404s-3.66-4.732-4.263-5.514v12.642l3.367 3.997-13.465.624zm107.782-15.698l4.66-11.965-6.792-1.68c-2.315-.506-6.036-1.232-9.303 1.518l-3.764-4.633-3.99 4.923.3 1.115c-1.425-.575-3.13-.783-4.942-.529 0 0-24.14 3.63-47.397 4.032-2.327-4.46-7.42-6.073-11.514-6.073H83.457l4.928 6.068s-20.601-.489-43.48-3.441l4.332 5.896v18.157l-.184.251-.159-.188-7.24-24.65-3.483-.52-5.101 17.55c-.987-3.68-3.08-5.045-3.946-5.796l4.806-12.316-7.049-1.349c-.997-.225-2.211-.46-3.47-.46-6.565 0-9.502 5.707-9.502 11.364 0 3.64 1.542 7.322 3.947 9.567l-5.006 13.675 6.922 1.653v-.004c2.068.558 3.943.484 5.23.277l-.016.021s30.14-5.805 62.507-6.622c-1.61 1.987-4.033 4.973-4.033 4.973h21.473l-5.415-6.684v-5.345c4.782-.058 9.79-2.227 11.693-6.82v8.721l-4.182 4.977c36.197.743 65.592 6.46 65.777 6.492 6.29 1.62 13.692-1.115 13.692-12.525 0-6.156-2.677-8.11-4.435-9.63z" fill="#59C134"/><path d="M138.579 129.754l-1.717 1.935-1.96-2.56v-12.534c1.256 1.477 3.31 3.888 3.677 4.319v8.84zm.756-16.52l-.925-1.042v7.358l-4.258-5h-.006v14.835l2.673 3.491 2.516-2.835v-16.807zm-19.938 3.55v-.53l.442-.018.001.002-.443.546zm-.756-1.256v2.952h.356l1.822-2.25-.64-.764c-.47.02-.822.033-1.538.062zm.756 9.666l.97 1.213-.508.589-.462-.019v-1.783zm-.756-1.717v4.225l1.551.065 1.157-1.343a5749.33 5749.33 0 0 1-2.358-2.947h-.35zm48.654-5.144c.64 2.252 1.916 4.305 3.451 5.758l-2.587 7.363-3.325-8.833c1.588-1.448 1.997-2.56 2.461-4.288zm9.323 10.82c.285.275.303.291.303.957 0 1.987-.947 3.024-1.22 3.14-.307-.009-.786-.136-1.115-.269l-2.609-7.797 4.641 3.968zm-12.665-6.726c.627 1.668 4.196 11.053 4.265 11.142l2.954-8.41 2.8 8.368c.374.219 1.234.484 1.77.484.664 0 1.934-1.52 1.934-3.901 0-.986-.155-1.136-.53-1.498 0 0-5.501-4.704-5.49-4.697-2.439-2.035-4.02-5.653-4.05-9.242l-.742 2.756-.546-2.032c.082 2.677.236 5.045-2.365 7.03zm-40.318.189v-1.052s2.712-3.593 3.104-4.11v11.316c-.17.2-.755.878-1.492 1.733v-9.756l-1.612 1.869zm3.86 6.434v-13.844c-.337.44-2.289 3.023-3.508 4.627a90.264 90.264 0 0 1-1.108-1.146v5.962c.693-.802 1.612-1.87 1.612-1.87v9.759l3.004-3.488z" fill="#59C134"/><path d="M99.32 118.999h-.558v-7.835h.559c1.259 0 2.322 1.806 2.322 3.943 0 2.11-1.063 3.892-2.322 3.892zm0-9.168h-1.89v10.5h1.89c2.178 0 3.656-2.535 3.656-5.224 0-2.737-1.478-5.276-3.655-5.276zm60.015 7.746c0 .29-.061.538-.143.76v-5.94c.085.213.143.478.143.781v4.399zm1.332 0v-4.399c0-1.543-.944-2.797-2.145-2.627l-.663.09v9.833h.663c1.2 0 2.145-1.386 2.145-2.897z" fill="#287AC8"/><path d="M161.655 135.588l-2.463-3.388v-3.661l2.463 7.05zm11.54 1.848l-4.407-.776-5.665-.913-4.522-12.942h-.742v9.828l1.94 2.667-7.892-1.115 1.94-2.119V111.2l-1.94-2.123 6.615-.927c2.94-.411 6.462.478 6.462 4.324v5.103c0 2.08-1.122 3.558-2.658 4.311l4.579 12.163 1.76 2.268 2.476-7.05 1.697 5.073c.532.58 2.067 1.001 2.903 1.001 1.635 0 3.268-2.335 3.268-5.233 0-1.686-.531-2.053-1.062-2.58l-5.437-4.637c-2.015-1.683-3.574-4.848-3.574-8.325 0-4.213 1.978-9.271 7.414-9.271 1.064 0 2.128.212 3.08.42l4.485 1.108-2.585 6.636-1.908-5.095c-.378-.589-1.362-.908-2.162-.908-1.137 0-2.698 1.568-2.698 4.292 0 .905.455 2.24.95 2.669l6.16 5.34c1.1.903 2.737 2.987 2.737 7.204 0 10.602-6.885 11.66-11.213 10.473zm-22.943-10.352v-10.879l1.609 1.82v-7.023l.654.715v19.83l-.654.715v-6.987l-1.609 1.81zm-1.065-12.083l-2.819 3.479h-.355v-5.017l1.65-.186 1.524 1.724zm.537 12.678l-2.059 2.315c-.518-.058-.915-.102-1.652-.186v-6.331h.35l3.36 4.202zm.803 6.332l-11.798-1.278 1.938-2.187v-17.82l-1.938-2.184 11.798-1.267v5.229l-2.324-2.629-3.524.396v7.54h2.325l1.914-2.362v7.09l-1.914-2.395h-2.325V131l3.524.395 2.324-2.614v5.23zm-16.38-4.626V114.55h.005l4.258 5v-7.358l.925 1.042v16.807l-2.516 2.835a10289.1 10289.1 0 0 1-2.673-3.49zm-7.261 2.415l1.942-2.254v-15.943l-1.891.138-2.376 3.11v-5.234l12.516-.917v5.23l-2.348-2.76-1.916.141v16.526l1.942 2.535-7.87-.572zm-4.007-7.15v-5.963c.05.06.552.575 1.108 1.146 1.22-1.604 3.171-4.186 3.508-4.627v13.844l-3.004 3.488v-9.758l-1.612 1.87zm-1.53 1.774l-1.157 1.343-1.55-.065v-4.225h.35c.5.626 1.97 2.465 2.357 2.947zm-.53-10.194l-1.822 2.25h-.356v-2.952c.716-.029 1.068-.042 1.539-.062l.64.764zm2.34 15.368l-11.802-.506 1.942-2.311v-14.282l-1.942-2.315 11.802-.468v5.228l-2.38-2.837-3.471.14v5.565h2.324l1.915-2.363v7.09l-1.915-2.395h-2.324v6.836l3.472.145 2.379-2.758v5.23zm43.16-16.201l.545 2.032.742-2.756c.03 3.59 1.611 7.207 4.05 9.242-.011-.007 5.49 4.697 5.49 4.697.375.362.53.512.53 1.498 0 2.38-1.27 3.9-1.935 3.9-.535 0-1.395-.264-1.77-.483l-2.799-8.369-2.954 8.411c-.07-.09-3.638-9.474-4.265-11.142 2.601-1.985 2.447-4.353 2.365-7.03zm.547-11.51l1.7 2.095-1.7 6.318-1.699-6.318 1.699-2.095zm-67.545 20.15h-1.892v8.166l3.124 3.855H87.844l3.127-3.855V109.98l-3.127-3.85h11.477c4.974 0 10.607 2.687 10.607 8.977 0 6.24-5.633 8.93-10.607 8.93zm83.197-5.308c.026.02-5.913-5.126-6.114-5.302-.193-.216-.509-1.086-.509-1.677 0-1.993 1.038-2.932 1.368-2.959.456 0 .855.165.997.274l3.045 8.132 4.402-11.302-5.957-1.473c-2.432-.53-7.153-1.484-10.228 3.142l.51-1.892-3.167-3.9-3.161 3.9.658 2.451c-1.448-1.153-3.623-1.629-6.025-1.293 0 0-22.343 3.595-47.952 4.058-2.024-4.148-6.615-6.092-11.064-6.092H85.045s4.105 5.057 4.594 5.657v21.278c-.489.6-4.593 5.66-4.593 5.66h18.303l-4.587-5.66v-6.362h.559c5.75 0 11.94-3.21 11.94-10.262 0-.35-.02-.69-.049-1.022l.754.9v13.31l-3.371 4.012c37.527.865 64.35 6.439 64.35 6.439 5.578 1.463 12.797-.643 12.797-11.783 0-4.86-2.02-7.245-3.224-8.234zM37.062 123.75h3.141l-1.558-5.605z" fill="#287AC8"/><path d="M79.063 129.082v-15.015l-1.892-.09-2.374 2.82v-5.228l12.512.581v5.227l-2.348-3.037-1.915-.088v14.644l1.941 2.304-7.867.364 1.943-2.482zm-7.632-15.313v18.163l-1.492.092-7.217-13.63v11.832l1.919 2.202-5.956.55 1.94-2.567V114.47l-2.22-4.204 5.183.485 5.774 11.267v-8.38l-1.983-2.571 5.993.426-1.941 2.276zM56.67 130.44v-17.605l.994-1.117 1.628 3.083v15.164l-1.399 1.849-1.224-1.374zm-7.26 3.578l1.915-2.613V111.88l-1.915-2.607 7.865.878-1.938 2.177v18.621l1.938 2.177-7.865.893zm-10.83 2.264c-.544-.516-2.34-2.218-2.938-2.783l1.736-6.085h2.46c.355 1.236 1.15 3.999 1.382 4.801l-2.64 4.067zm2.33-1.14l1.76-2.711-1.83-6.349h-4.468l-2.234 7.829 2.047 1.938-6.256 1.022 2.115-2.7 7.623-26.221.358.053 6.988 23.793 1.919 2.273-8.023 1.073zm-20.654 2.329l-4.639-1.109 2.584-7.057 1.696 5.076c.53.577 2.069 1 2.902 1 1.636 0 3.273-2.337 3.273-5.237 0-1.682-.537-2.051-1.065-2.579l-5.438-4.636c-2.013-1.684-3.573-4.847-3.573-8.322 0-4.215 1.976-9.276 7.414-9.276 1.063 0 2.125.21 3.078.424l4.582.877-2.68 6.867-1.908-5.097c-.377-.587-1.36-.907-2.161-.907-1.14 0-2.697 1.566-2.697 4.289 0 .907.456 2.243.95 2.67l6.158 5.338c5.094 4.206 3.735 21.062-8.476 17.679zm64.122-9.061v-12.642l4.263 5.514v-10.404c-6.945-.171-24.133-1.353-24.133-1.353l3.52 4.568v2.401l-3.589-7c-7.645-.661-17.905-1.884-17.905-1.884l1.801 2.452 1.657 2.253v18.654l-.898 1.224-.881-1.043-7.15-24.34-2.351-.35-5.915 20.347c-.054-4.719-2.03-7.063-3.216-8.043l-6.114-5.3c-1.4-1.576.332-4.594.856-4.636.455 0 .855.164.997.274l3.045 8.128 4.53-11.607-6.156-1.177c-1.013-.228-2.15-.448-3.33-.448-6.041 0-8.746 5.328-8.746 10.609 0 3.617 1.59 7.284 4.05 9.344l5.394 4.6.102.1c.375.363.53.514.53 1.493 0 2.383-1.274 3.904-1.94 3.904-.533 0-1.393-.265-1.77-.484l-2.771-8.293-4.408 12.04 6.074 1.45c3.137.96 6.85-.023 6.85-.023s21.254-3.795 40.583-5.224l-3.304-3.788v-5.967l5.11 9.65 3.6-.224V114.26l.7-.822v7.012l4.266-5.067v13.237c-.413.53-3.449 4.41-3.449 4.41l13.465-.624-3.367-3.997z" fill="#287AC8"/><path d="M178.822 134.168c1.204-1.675 2.018-5.627-.38-7.795l-5.4-4.584c-5.675-4.858-2.573-13.284.115-14.385-1.252 1.12-3.456 7.914.76 11.379l5.627 4.796c1.663 1.35 4.035 8.17-.722 10.59zm2.85-14.41l-6.16-5.34c-.495-.427-.95-1.763-.95-2.668 0-2.724 1.561-4.292 2.698-4.292.8 0 1.784.32 2.162.908l1.908 5.095 2.585-6.636-4.486-1.109c-.951-.207-2.015-.42-3.079-.42-5.436 0-7.414 5.06-7.414 9.272 0 3.477 1.559 6.642 3.574 8.325l5.437 4.638c.53.526 1.062.893 1.062 2.579 0 2.898-1.633 5.233-3.268 5.233-.836 0-2.37-.42-2.903-1.001l-1.697-5.073-2.476 7.05.284.367-.16-.026 4.407.776c4.328 1.186 11.213.129 11.213-10.473 0-4.217-1.636-6.3-2.737-7.205zM25.881 134.203c1.333-1.85 1.922-5.704-.379-7.798l-5.399-4.579c-4.988-4.27-3.386-12.973.114-14.383-1.052.936-3.593 7.793.76 11.377l5.626 4.797c2.094 1.704 3.618 8.382-.722 10.586zm2.852-14.41l-6.159-5.339c-.493-.427-.95-1.763-.95-2.67 0-2.723 1.559-4.29 2.698-4.29.8 0 1.784.32 2.16.908l1.91 5.097 2.679-6.867-4.582-.877c-.953-.214-2.015-.424-3.078-.424-5.438 0-7.414 5.06-7.414 9.276 0 3.475 1.56 6.638 3.573 8.322l5.438 4.636c.528.528 1.065.897 1.065 2.58 0 2.9-1.637 5.236-3.273 5.236-.833 0-2.372-.423-2.902-1l-1.696-5.076-2.584 7.057 4.64 1.109c12.21 3.383 13.57-13.473 8.475-17.679z" fill="#FFF"/><path d="M43.308 132.35l-4.305-15.437.712-2.487 5.552 19.304-1.96-1.38zm-6.246-8.6l1.583-5.605 1.558 5.605h-3.14zm2.964-15.747l-.358-.053-7.623 26.22-2.115 2.701 6.256-1.022-2.047-1.938 2.234-7.829h4.469l1.828 6.349-1.76 2.71 8.023-1.072-1.919-2.273-6.988-23.793zm13.317 24.842l-1.378-1.514v-19.38l1.378-1.549v22.443zm1.995-20.518l1.938-2.177-7.865-.878 1.915 2.607v19.526l-1.915 2.613 7.865-.893-1.938-2.177v-18.621zm15.45 18.735l-10.34-19.5 1.573.197 8.767 16.555v2.748zm-1.426-17.423v8.379l-5.774-11.267-5.183-.485 2.22 4.204v15.941l-1.94 2.567 5.956-.55-1.92-2.202v-11.832l7.218 13.63 1.492-.092V113.77l1.94-2.276-5.992-.426 1.983 2.572zm11.691 17.021l-1.351-1.61v-14.86l1.35-1.638v18.108zm1.993-1.764v-14.644l1.915.088 2.348 3.037v-5.227l-12.512-.581v5.229l2.374-2.82 1.892.089v15.015l-1.943 2.482 7.867-.364-1.94-2.304zm18.779-8.361c1.358-1.169 2.18-3.146 2.18-5.428 0-2.284-.822-4.311-2.18-5.479 2.427 0 4.649 2.333 4.649 5.48 0 3.095-2.222 5.427-4.65 5.427zm-2.504-.204h-1.892v-10.5h1.892c2.177 0 3.655 2.539 3.655 5.276 0 2.689-1.478 5.224-3.655 5.224zm-5.142 14.561l-2.18-2.689V109.98l2.18-2.736v27.648zm5.142-28.762H87.844l3.127 3.85v22.223l-3.127 3.855h12.709l-3.124-3.855v-8.166h1.892c4.974 0 10.607-2.69 10.607-8.93 0-6.29-5.633-8.977-10.607-8.977zm15.97 24.405l-1.353-1.73v-14.332l1.353-1.753v17.815zm2.017-1.555v-6.836h2.324l1.915 2.394v-7.089l-1.915 2.363h-2.324v-5.564l3.472-.14 2.379 2.836v-5.228l-11.802.468 1.942 2.315v14.282l-1.942 2.31 11.802.507v-5.23l-2.38 2.757-3.471-.145zm13.512 2.382l-1.354-1.771v-15.94l1.355-1.8v19.51zm1.993-18.05l1.916-.142 2.348 2.76v-5.23l-12.516.917v5.234l2.376-3.11 1.89-.138v15.943l-1.941 2.254 7.87.572-1.943-2.535v-16.526zm9.847 19.124l-1.354-1.82V112.66l1.353-1.847v21.624zm2.019-1.436v-8.856h2.325l1.914 2.394v-7.089l-1.914 2.363h-2.325v-7.541l3.524-.396 2.324 2.629v-5.229l-11.798 1.267 1.938 2.185v17.82l-1.938 2.186 11.798 1.278v-5.23l-2.324 2.614-3.524-.395zm18.887 4.067l-4.84-13.805c1.328-.189 2.578-1.606 2.578-3.685v-4.488c0-1.515-.687-2.614-1.454-2.978 1.838-.102 2.99.904 2.99 2.763v4.703c0 2.047-2.019 3.623-2.786 3.81l5.209 13.94-1.697-.26zm-5.044-14.593h-.663v-9.832l.663-.091c1.2-.17 2.145 1.084 2.145 2.627v4.399c0 1.51-.944 2.897-2.145 2.897zm-2.682 13.544l-1.353-1.86v-21.045l1.353-1.699v24.604zm12.825 2.3l-1.76-2.267-4.579-12.163c1.536-.753 2.658-2.232 2.658-4.311v-5.103c0-3.846-3.522-4.735-6.462-4.324l-6.615.927 1.94 2.123v20.866l-1.94 2.119 7.892 1.115-1.94-2.667v-9.828h.742l4.522 12.942 5.665.913.161.026-.284-.367zm-.098-30.336l-1.701-2.095-1.699 2.095 1.699 6.318 1.7-6.318" fill="#FFF"/><path d="M26.603 123.617l-5.625-4.797c-4.354-3.584-1.813-10.441-.76-11.377-3.501 1.41-5.103 10.113-.115 14.383l5.4 4.579c2.3 2.094 1.71 5.949.378 7.798 4.34-2.204 2.816-8.882.722-10.586m12.4-6.704l4.305 15.436 1.959 1.381-5.552-19.304-.712 2.487m12.962 14.417l1.378 1.515v-22.443l-1.378 1.548v19.38m8.483-19.769l10.34 19.5v-2.747l-8.767-16.555-1.573-.198m19.254 17.489l1.35 1.61v-18.108l-1.35 1.638v14.86m12.297 3.153l2.18 2.69v-27.649l-2.18 2.736v22.223m9.826-22.575c1.358 1.168 2.18 3.195 2.18 5.48 0 2.28-.822 4.258-2.18 5.427 2.427 0 4.649-2.332 4.649-5.428 0-3.146-2.222-5.479-4.65-5.479m12.114 19.177l1.353 1.73V112.72l-1.353 1.753v14.332m15.528.785l1.355 1.772v-19.51l-1.355 1.8v15.939m11.84 1.025l1.353 1.82v-21.624l-1.353 1.847v17.957m38.238-7.037l-5.627-4.796c-4.216-3.465-2.012-10.26-.76-11.379-2.688 1.1-5.79 9.527-.115 14.385l5.4 4.584c2.398 2.168 1.584 6.12.38 7.795 4.757-2.419 2.385-9.238.722-10.59m-25.057 8.579l1.353 1.86v-24.603l-1.353 1.699v21.044m8.353-14.58v-4.703c0-1.859-1.152-2.865-2.99-2.763.767.364 1.454 1.463 1.454 2.978v4.488c0 2.08-1.25 3.496-2.578 3.685l4.84 13.805 1.697.26-5.209-13.94c.767-.187 2.786-1.763 2.786-3.81" fill="#6E9DD9"/><path d="M101.49 85.95c.395-.078.939-.332 1.373-.56.41-.216.722-.408.722-.408.764-.819 3.523-1.48 3.523-1.48-1.328-.257-3.627-1.481-4.087-1.942-.458-.458-1.94-1.022-1.94-1.022-.97.666-2.45.358-2.45.358 4.04 2.735 2.86 5.054 2.86 5.054" fill="#287AC8"/><path d="M112.927 83.502c-3.199.278-6.052-1.822-6.052-1.822-2.818-3.02-4.62-2.723-4.62-2.723.462 1.634.92 1.175 1.84 2.094.918.919 3.828 1.94 3.828 1.94 1.99 1.479 5.004.511 5.004.511" fill="#FFF"/><path d="M109.813 78.241l.1 1.992c5.618.869 6.588 4.187 6.588 4.187-1.482-.918-3.164-.306-3.164-.306-3.27 1.07-5.518-.154-5.518-.154-.966.102-2.143 1.276-2.143 1.276s12.517-2.945 17.303 6.471c.002.024.002.042.006.064-.155-6.482-5.258-9.7-5.922-9.955-.664-.256-1.277-1.379-1.277-1.379-1.991-4.543-5.973-2.196-5.973-2.196" fill="#FFF"/><path d="M88.83 88.862s-5.055.152-7.91-3.268c0 0 1.221 3.881 4.234 5.565 0 0-2.043.102-2.962-.155 0 0 1.43 1.993 6.178 2.044 0 0 5.155 3.317 10.77-1.125 0 0-6.48 1.993-10.157-3.93l-.154.869m-1.836-2.399c-.768-1.635-.309-4.442-.204-5.054l-1.737.919-.97-1.174c.1 3.777 2.911 5.31 2.911 5.31" fill="#6E9DD9"/><path d="M121.436 91.15s-3.273-5.079-13.905-3.13l.539.427s-.832 1.307-.962 1.391c0 0 10.404-2.296 14.328 1.312" fill="#59C134"/><path d="M105.676 85.236c14.192-.61 17.309 6.535 17.309 6.535-.004-.022-.004-.04-.006-.064-4.786-9.416-17.303-6.47-17.303-6.47" fill="#287AC8"/><path d="M97.052 80.174c.613.079 1.354.057 2.242-.09a2.429 2.429 0 0 1-.67-.51 2.82 2.82 0 0 1-3.473-1.523 2.814 2.814 0 0 1 .629-3.181 1.608 1.608 0 0 0-1.24-.322c-.159.563-.472 1.921-.226 3.17.23 1.162.949 2.228 2.738 2.456" fill="#FFF"/><path d="M96.002 77.874a.758.758 0 0 1-.206-1.393c.084-.38.278-.732.565-1.005a2.78 2.78 0 0 0-.581-.606 2.814 2.814 0 0 0-.629 3.18 2.82 2.82 0 0 0 3.474 1.524 4.74 4.74 0 0 1-.556-.725 1.973 1.973 0 0 1-2.067-.975" fill="#6E9DD9"/><path d="M95.796 76.481a.754.754 0 0 1 .506-.098c.07-.188.175-.362.313-.51a4.625 4.625 0 0 0-.254-.397c-.287.273-.48.625-.565 1.005m.721 1.337a.76.76 0 0 1-.515.056 1.973 1.973 0 0 0 2.067.975 8.21 8.21 0 0 1-.258-.434 1.52 1.52 0 0 1-1.294-.597" fill="#287AC8"/><path d="M96.492 77.83a.758.758 0 0 0-.49.043.76.76 0 0 0 .49-.042m2.672-1.175s.265 2.928 3.287 3.714c-1.898-.79-1.98-4.154-1.98-4.154-1.423-4.945-7.24-5.973-7.24-5.973.187.42.263.885.288 1.299 1.253-.024 4.53.383 5.645 5.114m7.616 9.415l1.227.327s-1.516.772-2.128 1.149c3.327-1.198 8.104-.82 8.104-.82-2.864-.9-7.203-.656-7.203-.656" fill="#FFF"/><path d="M97.98 76.414c.59 2.432 2.067 3.37 3.163 3.732.741.244 1.308.224 1.308.224-3.022-.786-3.287-3.714-3.287-3.714-1.116-4.731-4.392-5.138-5.645-5.114h-.002c.014.23.011.445.003.624-.015.319-.05.529-.05.529.91-.157 3.519-.354 4.51 3.72m7.913-1.773s-.815-.377-.44-1.542c0 0-1.163 1.222.44 1.542m3.724 2.649s.086-1.078-1.019-1.428c0 0-.171.37-.517.497a1.045 1.045 0 0 0-1.396.13c.033-.053.069-.106.109-.16 0 0-1.28-.06-1.047-1.715 0 0-.699 1.307.377 1.803 0 0-.871 1.92 1.57 2.417 0 0-1.01-.404-1.234-1.199.154.409.542.699.995.699.59 0 1.07-.488 1.07-1.09 0-.355-.166-.669-.422-.867.32-.02 1.205.011 1.514.913m1.6-5.442s1.833-.028 1.949 2.648l.465.058s-.029-2.821-2.414-2.706" fill="#287AC8"/><path d="M84.918 75.487c1.279 2.754 3.78 1.99 3.78 1.99-2.707-.97-1.788-4.34-1.33-5.055.434-.673.46-.894.674-2.451-.596.369-1.14.508-2.023-.187-.216-.168-.482-.36-.781-.57-.15.93-.143 1.905-.799 3.208-.86 1.71-.641 2.931-.166 3.748.38-.433.645-.683.645-.683" fill="#59C134"/><path d="M95.135 81.986c-6.356-3.963-2.221-8.391-2.221-8.391-1.962.674-3.461 5.064 1.328 8.58l-1.278.05s1.021 2.245 4.24 2.348c0 0 2.959-.306 3.521 1.53 0 0 .02-.561-.188-1.283-.88-.61-2.691-.638-4.42-1.11-2.45-.665-.982-1.724-.982-1.724" fill="#6E9DD9"/><path d="M98.378 82.226c-1.953-.936-4.78-2.454-5.436-5.74-.169-.842-.195-1.798-.028-2.891 0 0-4.135 4.428 2.221 8.391 0 0-1.467 1.059.981 1.725 1.73.47 3.541.499 4.421 1.109-.249-.863-.825-1.956-2.16-2.594" fill="#FFF"/><path d="M116.558 49.374s3.317-.631 6.157 2.681c-2.437-4.958-8.433-5.348-8.433-5.348.245 3.192 1.589 4.85 1.589 4.85s.138-2.02.687-2.183" fill="#59C134"/><path d="M122.715 52.055c-2.84-3.312-6.157-2.681-6.157-2.681-.549.163-.687 2.184-.687 2.184 4.41 1.081 6.844.497 6.844.497" fill="#FFF"/><path d="M106.719 44.65s2.841-1.822 6.712.192c-4.11-3.691-9.82-1.817-9.82-1.817 1.418 2.87 3.284 3.909 3.284 3.909s-.625-1.926-.176-2.283" fill="#59C134"/><path d="M113.43 44.842c-3.87-2.014-6.711-.191-6.711-.191-.449.357.176 2.283.176 2.283 4.495-.642 6.536-2.092 6.536-2.092" fill="#FFF"/><path d="M94.783 43.683s2.191-2.568 6.48-1.762c-5.004-2.342-9.925 1.107-9.925 1.107 2.189 2.337 4.276 2.79 4.276 2.79s-1.157-1.663-.831-2.135" fill="#59C134"/><path d="M101.263 41.92c-4.289-.805-6.48 1.763-6.48 1.763-.326.472.83 2.135.83 2.135 4.118-1.918 5.65-3.897 5.65-3.897" fill="#FFF"/><path d="M82.27 47.065s1.177-3.164 5.481-3.878c-5.504-.483-8.943 4.444-8.943 4.444 2.857 1.445 4.973 1.153 4.973 1.153s-1.657-1.165-1.512-1.72" fill="#59C134"/><path d="M87.751 43.187c-4.304.714-5.482 3.878-5.482 3.878-.145.554 1.512 1.72 1.512 1.72 3.21-3.213 3.97-5.598 3.97-5.598" fill="#FFF"/><path d="M71.768 54.357s-.343-3.359 3.202-5.902c-5.15 2-6.055 7.94-6.055 7.94 3.201.033 4.97-1.165 4.97-1.165s-2.001-.312-2.117-.873" fill="#59C134"/><path d="M74.97 48.455c-3.545 2.543-3.202 5.902-3.202 5.902.116.561 2.117.873 2.117.873 1.457-4.3 1.085-6.775 1.085-6.775" fill="#FFF"/><path d="M107.31 102.135s1.827-.33 3.216.103c-1.46-2.293-3.673-2.705-3.673-2.705s1.731-1.073 3.673-.715c0 0-.253-4.545-3.522-6.282 0 0-2.464-.696-5.31.767 0 0 1.174-2.144 3.882-3.013l.05-1.428-2.809-.153c.034-.246 1.902-2.157 3.167-2.4 0 0-1.318-.24-2.452.051 0 0-.783 1.301-3.676 1.378 0 0 1.123-1.378-.203-1.684-1.326-.306-2.756.152-3.981-.256-2.414-.803-4.327-3.826-5.254-5.863v.01c-.56-1.23-.807-2.303-.81-3.233-.184 3.713 2.539 9.391 6.422 10.003 5.134.807 1.767 2.368 1.767 2.368.984.07 3.227-.404 3.227-.404-.477.16-1.049 1.213-1.049 1.213 1.09-.257 3.226-.244 3.226-.244-3.328 2.508-2.5 8.39-2.5 8.39.238-1.777.65-4.143 4.202-4.29 3.55-.148 2.33 3.724 2.33 3.724-4.276.865-5.806 4.192-5.806 4.192 3.429-1.552 5.485-.4 5.485-.4-.85-.18-1.533.804-1.533.804a17.383 17.383 0 0 1 2.034 2.186c.9.495 1.754 1.094 2.53 1.805-.362-1.455-1.11-3.264-2.632-3.924m8.165 6.051c-1.356-1.357-2.601-2.806-3.11-4.16 0 0-.48 1.85-1.333 3.177.283.34.551.696.8 1.075a240.68 240.68 0 0 0 3.643-.092M86.635 95.088l-1.686 1.125-1.273-1.276c-.222 2.835.373 5.477.968 7.309h.808c-.055-4.045 1.183-7.158 1.183-7.158m-.153 3.882s-.19 1.332-.03 3.276h2.962l-2.932-3.277" fill="#6E9DD9"/><path d="M80.92 85.594c2.855 3.42 7.91 3.268 7.91 3.268l.153-.869c3.676 5.923 10.158 3.93 10.158 3.93-5.616 4.442-10.771 1.125-10.771 1.125-4.748-.051-6.178-2.044-6.178-2.044.92.257 2.962.155 2.962.155-3.013-1.684-4.235-5.565-4.235-5.565zm4.132-3.266l1.737-.92c-.105.613-.564 3.42.204 5.055 0 0-2.81-1.532-2.912-5.31l.97 1.175zm.286-33.026s2.69-2.724 4.056-6.22c.802.942 3.169 3.506 5.65 4.107l.262 17.444v.001c-.179.032-1.675.304-2.187-.021-.504-.32-1.496.054-2.029.575l-5.752-15.886zm-6.53-1.67s3.44-4.928 8.943-4.445c0 0-.76 2.385-3.97 5.597 0 0-2.116.292-4.973-1.153zm22.455-5.711s-1.532 1.98-5.65 3.897c0 0-2.086-.453-4.275-2.79 0 0 4.92-3.449 9.925-1.107zm4.641 6.184l-4.59 15.79c-.65-.175-1.401-.23-2.325.002 0 0-.135.732-.358 1.328 0 0-.574-.835-1.79-.884l.056-17.504s2.795-1.32 5.162-3.63c.675 1.418 2.018 3.8 3.845 4.898zm7.527-3.263s-2.04 1.45-6.536 2.092c0 0-1.866-1.038-3.284-3.909 0 0 5.71-1.874 9.82 1.817zm9.284 7.213s-2.433.584-6.844-.497c0 0-1.344-1.659-1.589-4.851 0 0 5.996.39 8.433 5.348zM104.463 65.36c-.255-.188-1.534-.785-1.725-.88l5.043-16.16s2.426-.337 5.038-1.467c.058.592.155 1.285.311 1.999.266 1.207.704 2.473 1.431 3.421L104.463 65.36zM73.885 55.23s-1.769 1.198-4.97 1.165c0 0 .905-5.94 6.055-7.94 0 0 .372 2.475-1.085 6.775zm10.76 47.016c-.596-1.832-1.191-4.474-.97-7.31l1.274 1.277 1.686-1.125s-1.238 3.113-1.183 7.158h1c-.16-1.944.03-3.277.03-3.277l2.932 3.277h9.907c2.555 0 5.51.583 8.092 2.008a17.383 17.383 0 0 0-2.034-2.186s.683-.983 1.533-.805c0 0-2.056-1.15-5.485.401 0 0 1.53-3.327 5.807-4.192 0 0 1.219-3.872-2.331-3.724-3.552.147-3.964 2.513-4.202 4.29 0 0-.828-5.882 2.5-8.39 0 0-2.136-.013-3.226.244 0 0 .572-1.052 1.049-1.213 0 0-2.243.474-3.227.404 0 0 3.367-1.56-1.767-2.368-3.883-.612-6.606-6.29-6.422-10.003-.006-1.696.802-2.908 2.03-3.679 0 0 2.094-.97.101-3.877 7.519.628 10.619 7.76 10.619 7.76s.51.56 1.687 1.223c1.17.665 1.735 1.176 2.038 1.483.308.305.462.409 1.076.305l.1-.767c-1.953-.539-2.16-1.72-1.94-2.757 0 0-.407-.815-.152-1.48 0 0-.92-.765-.667-1.736 0 0 1.655-1.803 2.631.25a1.136 1.136 0 0 0-.657 1.031c0 .81.784 1.31 1.49 1.078-.093.19-.266.373-.56.523 0 0 .934.028 1.07-.866.218-.256.31-.584.255-.92.131.28.216.652.216 1.15 0 0 .716.36.868.818 0 0 3.216-.307 4.187.815.16-.386.004-.993-.36-1.327 0 0-.38.108-.887.092 0 0 .002-.001.002-.003a1.33 1.33 0 0 0 .383-.937c0-.733-.58-1.324-1.295-1.324-.49 0-.917.278-1.137.69-.002-.178.009-.555.128-.762 0 0-1.226-.972-.408-2.3 0 0-.07.082-.193.192a.594.594 0 0 0 .064-.264c0-.768-1.452-1.123-2.033-.39-.061-.32.04-.701.536-1.095 0 0 .437-.086.673.145 0 0-.03-.932-1.14-.783 0 0-.768 1.195-.206 2.036-.087.565.617.922 1.223.865-.78.298-2.504-.637-1.63-2.95.166-.44-1.023-.922-1.277-1.379-.115-.205-.435-.668-.863-1.155l10.648-13.26s4.432 1.065 8.425.047c0 0-.787-4.935-6.755-7.129-.73-.269-1.54-.497-2.435-.668l.173-.124s-3.4-5.772-12.196-3.731c-.547-.46-5.838-4.565-13.785.801.026-.08.052-.159.076-.24 0 0-7.085-2.87-13.12 6.01 0 0 3.984 2.498 7.107 2.148l5.814 15.156c-.776.09-1.738.308-2.508.816L75.52 55.065s1.476-4.31.835-8.384c0 0-7.63.49-9.206 11.112 0 0 4.674.52 7.333-1.15l11.472 10.74c-.456.642-.62 1.227-.717 1.832.3.21.565.4.781.57.883.694 1.427.555 2.023.186-.214 1.557-.24 1.778-.674 2.451-.458.714-1.377 4.085 1.33 5.055 0 0-2.501.764-3.78-1.99 0 0-.265.25-.645.683.539.925 1.407 1.329 1.404 1.33-.02.004-1.155.25-2.253-.372-.504.734-3.07 4.73-.854 7.035 0 0-2.634-.843-2.927-1.165 0 0 .117 1.035.322 1.317l-2.55-.237s-1.19.813-1.17 1.17c0 0 3.416.41 4.694 1.061 0 0-3.371 2.315-4.94 5.049 0 0 1.41-.272 2.133-.247 0 0-.635 1.194-.814 2.118 0 0 1.516-1.368 2.547-1.815 0 0-1.395 3.527-.458 7.809h-.87l-.492.58.734 1.015s-.627-.055-1.374-.124c0 0-1.811 2.674-1.755 4.654 0 0 1.331-1.147 2.587-1.188 0 0-.695.935-.428 1.51 0 0 3.47.186 6.101 1.776l-4.222-5.2h4.956z" fill="#287AC8"/><path d="M73.513 105.914s-.222.65-.31 1.669l.81.048c.187-.339.424-.68.725-1.004 0 0 .023.473.091 1.05.227.014.453.027.682.039.186-.429.485-.893.963-1.343 0 0 .186.687.502 1.423 1.034.054 6.278.289 7.49.335l-.556-.685c-2.63-1.59-6.101-1.775-6.101-1.775-.267-.576.428-1.51.428-1.51-1.256.04-2.587 1.187-2.587 1.187-.056-1.98 1.755-4.654 1.755-4.654.747.069 1.374.124 1.374.124l-.734-1.015.492-.58h.87c-.937-4.282.458-7.81.458-7.81-1.031.448-2.547 1.816-2.547 1.816.179-.924.814-2.118.814-2.118-.723-.025-2.132.247-2.132.247 1.568-2.734 4.939-5.049 4.939-5.049-1.278-.651-4.695-1.06-4.695-1.06-.02-.358 1.171-1.17 1.171-1.17l2.55.236c-.205-.282-.322-1.317-.322-1.317.293.322 2.927 1.165 2.927 1.165-2.216-2.304.35-6.3.854-7.035-.531-.302-1.054-.805-1.437-1.641 0 0-5.407 5.27-2.347 8.676l-.008-.002h-.002c-.093-.023-2.074-.507-3.108-1.322 0 0-2.906 1.072-4.285 4.132 0 0 2.863-1.334 5.768-.662 0 0-5.972 3.625-7.044 10.568 0 0 .408-.664 1.58-.92 0 0 1.134-2.961 4.394-4.543 0 0-1.5 2.977-.461 7.809h-.867s-2.873 2.923-3.761 8.275l.343.022c.287-.432.72-1.003 1.324-1.606" fill="#59C134"/><path d="M151.273 164.844l-.442-.045.147-1.426h-.01l-.656 1.371-.27-.027-.363-1.478h-.01l-.146 1.425-.442-.046.193-1.867.712.073.268 1.118h.008l.49-1.04.713.075-.192 1.867zm-2.222-1.669l-.504-.052-.147 1.425-.541-.056.146-1.425-.5-.052.045-.441 1.547.159-.046.442z" fill="#231F20"/></g></svg>