<svg width="200" height="200" xmlns="http://www.w3.org/2000/svg"><g fill-rule="nonzero" fill="none"><path d="M185.432 14.928C161.102 29.333 122.378 27.307 98.83.46 75.281 27.307 36.558 29.333 12.227 14.93 3.594 80.882 17.554 175.687 98.83 199.605c81.274-23.918 95.235-118.723 86.602-184.678" fill="#412784"/><path d="M56.863 31.076c-12.955 1.706-26.22.162-37.88-4.184-.643 7.406-.991 14.825-.991 22.179 0 25.666 3.875 50.536 11.33 71.257 13.184 36.64 36.58 61.683 69.508 72.118 32.926-10.435 56.323-35.478 69.507-72.118 7.455-20.72 11.33-45.59 11.33-71.257 0-7.354-.347-14.773-.991-22.179-11.66 4.346-24.925 5.89-37.88 4.184-15.855-2.087-30.467-8.858-41.966-19.283C87.33 22.218 72.72 28.99 56.863 31.076" fill="#FFF"/><path d="M57.731 37.67c-11 1.448-22.145.761-32.696-1.942a242.79 242.79 0 0 0-.392 13.343c0 25.256 3.782 49.118 10.938 69.005 12.154 33.777 33.443 57.213 63.25 67.329 29.804-10.116 51.093-33.552 63.247-67.329 7.156-19.887 10.938-43.749 10.938-69.005 0-4.34-.142-8.81-.392-13.343-10.55 2.703-21.697 3.39-32.696 1.943-15.219-2.004-29.305-7.929-41.098-17.201-11.794 9.272-25.88 15.197-41.099 17.2" fill="#412784"/><path fill="#FFF" d="M39.942 48.54v26.072h12.933V63.32h38.593v44.957h14.37V63.321h38.594v11.29h12.933v-26.07H39.942"/><path fill="#FFF" d="M89.192 79.388H67.449l-7.903 7.904v27.61l8.879 8.879h56.504v14.934h-17.244v13.139h22.17l7.905-7.903v-26.38l-7.031-7.031h-56.71V94.374h15.19l-.017-14.986"/><path fill="#FFF" d="M108.019 79.363v14.934h16.551v5.928h13.703V87.369l-7.93-8.029-22.324.023M89.158 138.562H74.224v-6.159H59.597v11.009l8.506 8.506h21.055v-13.356"/><path fill="#FFF" d="M105.786 159.963v-34.18H91.468v34.18h-5.851v9.7h26.02v-9.7h-5.85"/></g></svg>