<svg width="200" height="200" xmlns="http://www.w3.org/2000/svg"><g fill="none"><path d="M158.613 62.58l-39.501.042c-2.533-1.948-5.38-3.652-7.688-4.35-4.82-1.455-4.264-2.858-4.026-3.212.455-.23 1.124-.444 2.09-.632 1.558-.296 3.774.248 3.774.248 3.458.602 4.926-1.105 2.161-3.122-1.49-1.082-2.414-1.401-6.615-3.256-2.75-1.215-2.369-4.293-1.297-4.405 1.661-.172 6.14 1.232 2.992-2.298 0 0-2.44-2.405-4.208-3.074-1.767-.675-.011-1.733.626-2.064.638-.332 2.872-.95-.26-3.33 0 0-5.499-3.338-3.344-4.908 2.22-1.62 3.08-2.875 1.02-3.017-1.46-.103-2.882-.63-2.515-2.103.09-.52 1.339-1.374 1.756-1.894.55-.687.077-.926-.225-1.006a2.626 2.626 0 0 0-.587-.058c-1.086.005-1.718-.623-2.274-2.094-.668-2.674-1.13-5.075-1.13-5.075-.027 0-.058-.009-.094-.009h-.002c-.473.005-.494.304-.82 1.73-1.074 4.728-1.608 6.539-3.455 6.536a3.102 3.102 0 0 0-.593.049c-.307.086-.769.325-.22 1.008.758.949 2.548 1.788 2.583 2.472.034.594-.463 1.132-1.17 1.788-.727.729-2.536 1.937-2.536 1.937s-2.239 1.384-2.633 2.149c-.496 1.149 2.062 1.082 2.062 1.082 4.56.173 2.646 1.852 1.901 2.113-1.176.415-2.156.679-3.35 1.355-1.5.962-3.003 2.439-3.003 2.439-3.152 3.534 1.325 2.129 2.989 2.3 1.07.111 1.457 3.19-1.3 4.402-1.759.78-2.94 1.288-3.835 1.69-.45.243-2.052 1.138-3.033 2.545-1.048 1.508 2.118 1.019 4.286 1.19 1.413.11 3.079-1.045 4.096-.945 1.272.132 1.667.397 1.867 1.21.221.878-.422 1.753-1.368 2.524-.279.358-.763.65-1.092.792l-.076.039c-1.329.825-2.78 1.451-3.372 1.69-4.328 2.322-10.754 6.21-13.414 9.19-1.983 2.22-.355 3.43.499 3.05.857-.386 2.325-1.246 4.624-.79 1.856.367 4.29-.244 6.193-.745h.001c1.68-.36 3.303-3.172 3.962-2.09 1.583 2.586-1.131 5.625-2.216 6.683-2.108 2.81-7.955 5.363-10.303 7.267-2.732 2.208-3.851 5.1-4.594 10.789-.736 5.69 2.22 1.626 2.22 1.626.738-.886 2.438-2.898 6.797-2.898 4.361 0 5.19-1.254 6.72-2.124 2.78-1.575 1.334 2.124 1.334 2.124-1.849 4.106-5.158 4.136-8.853 6.458-.33.24-.632.548-1.333 1.242-1.556 1.53-1.06 2.16-.209 2.03.844-.128 2.197.398 3.605.352 1.473-.049 2.713-.347 4.363-1.063 1.651-.719 2.492-2.057 3.546-1.381.704.45.567 1.595.394 2.312-.048.835-1.099 2.33-1.689 2.988-.993 1.122-6.524 4.736-8.46 5.624-.263.12-.518.244-.767.375a2.032 2.032 0 0 1-.249.156c-2.548 1.447-4.24 3.635-4.24 3.635-.447.645-2.756 4.358.403 2.752 3.164-1.605 7.378 1.112 9.467.077 1.23-.606.807 1.872.764 2.107-.008.83-.146 1.673-.282 1.95-.926 1.839-1.631 1.72-4.983 3.155H60.939L40.12 99.066V31.139L64.586 7.626h69.556l24.471 23.552V62.58zm-49.385 37.975c2.57.674 3.887 2.463 8.28 1.279 0 0 1.825-.36 2.934.214 1.118.575 4.033-.221-1.406-4.035-3.965-2.775-7.56-2.548-9.524-6.898 0 0-.722-1.308-.376-1.954h-.005c.161-.38 1.171-1.385 2.56-.893 1.36.483 6.345 2.625 8.428 3.12 1.118.254 1.969.663 2.62 1.1.926.554 3.798 1.593 3.787-.54-.487-3.545-1.147-5.967-2.292-7.822l13.557.004 20.822 20.811v64.824l-24.471 23.549-6.876-.003c-3.589-.04-8.965-2.17-10.613-4.14-3.577-4.276-5.502-3.8-8.037-6.334-3.09-3.09-3.806-6.728-3.97-10.55v-17.043s-.273-3.451 2.467-1.32c2.73 2.128 4.268 1.889 8.882 1.53 4.614-.365 9.673 3.79 12.327 5.414 2.655 1.623 8.06 5.669 2.474-8.46-1.078-2.73-4.3-4.623-5.96-5.45-1.02-.546-2.516-2.4-1.133-3.971 0 0 2.77-2.447 1.269-4.117-.495-.6-1.731-1.184-4.457-1.523-3.122-.383-6.389-2.3-7.66-5.353-.244-1.998 2.482-2.742 3.842-1.824 1.406.934 4.377 1.965 6.021 2.19 5.155.707 4.569.248 4-1.361-.355-.994-1.147-3.362-4.514-5.128-7.088-3.706-7.924-2.713-9.15-5.143-.35-.696-.683-4.935 1.015-3.662a.31.31 0 0 0 .057.038c.323.343.701.751 1.165 1.106 1.77 1.37 3.176 1.55 5.662 1.49 2.483-.05 2.769.954 3.77 1.414 1.001.462 2.341 1.285 1.11-2.451-1.302-3.954-3.485-7.066-7.684-8.985-1.933-.89-7.463-4.503-8.458-5.624-.926-1.047-3.03-4.177-.463-3.499zm-15.337 50.68v1.645l-.004.003v2.467l-.015-.106v10.321c-.062 4.953-.42 9.51-2.427 11.511-1.9 1.901-4.892 4.13-6.587 6.757-2.243 3.469-5.006 9.088-12.402 9.446l-7.87-.003-24.466-23.554.011-27.934H71.12c.002 0 .003-.002.005-.003h4.667c-.499.482-1.064.732-1.064.732s-5.51 2.178-6.988 5.916c-1.06 2.676-1.722 4.7-2.083 6.213l.018.002c-.76 3.342 1.109 4.741 2.431 3.04 2.132-2.735 9.587-6.54 12.168-6.772 2.591-.224 7.076 0 9.738-2.814 2.664-2.812 3.88-2.734 3.88-1.705v4.449a7.02 7.02 0 0 1 0 .39zm68.126-121.504L135.51 4.224H63.222L36.716 29.689v70.784l22.812 22.838 14.711.005c-1.652 1.453-2.16 2.967-2.426 3.71-.57 1.61-1.154 2.069 4.001 1.362 1.645-.225 4.62-1.257 6.02-2.192 1.362-.92 4.085-.173 3.841 1.826-1.271 3.054-4.533 4.967-7.657 5.353-7.165.884-4.073 3.506-4.073 3.506.794.537 1.36 1.043 1.763 1.508h-3.49l-.002-.005H36.73l-.015 32.786 26.501 25.55h72.293l26.507-25.506V103.53l-22.818-22.805-18.43.002c-1.47-.953-3.45-2.03-5.253-3.193a13.642 13.642 0 0 1-2.032-1.444 11.749 11.749 0 0 1-1.44-1.327c-1.6-1.626-2.795-3.333-3.111-4.111-.586-1.444-.452-3.269.885-2.513 3.406 1.931 9.007 2.295 11.083 2.36.236-.003 1.916.184 2.306.307.417.163 1.066.47 1.066.47.837.352 2.36-.793.606-2.9-.466-.724-1.15-1.543-1.97-2.392l39.108.003V29.731z" fill="#FFF"/><path d="M109.691 104.054c.995 1.121 6.525 4.734 8.458 5.624 4.199 1.92 6.382 5.03 7.684 8.985 1.231 3.736-.109 2.913-1.11 2.451-1.001-.46-1.287-1.465-3.77-1.415-2.486.06-3.891-.118-5.662-1.49-.464-.354-.842-.762-1.165-1.105a.302.302 0 0 1-.057-.038c-1.698-1.273-1.364 2.966-1.014 3.662 1.225 2.43 2.06 1.437 9.149 5.143 3.367 1.766 4.16 4.134 4.513 5.128.57 1.61 1.156 2.068-3.999 1.362-1.644-.226-4.615-1.257-6.021-2.191-1.36-.918-4.086-.174-3.841 1.824 1.27 3.053 4.537 4.97 7.659 5.353 2.726.339 3.962.924 4.457 1.523 1.5 1.67-1.269 4.117-1.269 4.117-1.383 1.57.113 3.425 1.133 3.971 1.66.827 4.882 2.72 5.96 5.45 5.585 14.129.18 10.083-2.474 8.46-2.654-1.624-7.713-5.779-12.327-5.413-4.614.358-6.151.597-8.882-1.53-2.74-2.132-2.467 1.32-2.467 1.32v17.041c.164 3.823.88 7.46 3.97 10.551 2.535 2.535 4.46 2.058 8.037 6.334 1.648 1.97 7.024 4.1 10.613 4.14l6.876.003 24.471-23.549v-64.824L137.791 84.13l-13.557-.004c1.145 1.855 1.805 4.277 2.292 7.821.011 2.134-2.861 1.095-3.787.541-.651-.437-1.502-.846-2.62-1.1-2.083-.495-7.067-2.637-8.427-3.12-1.39-.492-2.4.512-2.56.892h.004c-.346.647.376 1.955.376 1.955 1.964 4.35 5.559 4.123 9.524 6.898 5.439 3.814 2.524 4.61 1.406 4.035-1.11-.574-2.934-.214-2.934-.214-4.393 1.184-5.71-.605-8.28-1.279-2.567-.678-.463 2.452.463 3.5m-24.833 79.778c1.695-2.626 4.686-4.856 6.587-6.757 2.006-2 2.365-6.558 2.427-11.51v-10.322l.015.106v-2.467l.004-.003v-1.645a7.02 7.02 0 0 0 0-.39v-4.448c0-1.029-1.216-1.107-3.88 1.705-2.662 2.814-7.147 2.59-9.738 2.814-2.58.232-10.036 4.037-12.168 6.772-1.322 1.701-3.191.302-2.43-3.04l-.02-.002c.362-1.513 1.024-3.537 2.084-6.213 1.478-3.738 6.988-5.916 6.988-5.916s.565-.25 1.064-.732h-4.667c-.002.001-.003.003-.005.003H40.13l-.011 27.934 24.466 23.554 7.87.003c7.396-.358 10.159-5.977 12.402-9.446" fill="#8A191D"/><path d="M64.586 7.626L40.12 31.14v67.927l20.819 20.843h19.555c3.352-1.435 4.057-1.316 4.983-3.155.136-.277.274-1.12.282-1.95.043-.235.465-2.713-.764-2.107-2.09 1.035-6.303-1.682-9.467-.077-3.16 1.606-.85-2.107-.403-2.752 0 0 1.692-2.188 4.24-3.635.096-.05.176-.104.25-.156.248-.131.503-.256.767-.375 1.935-.888 7.466-4.502 8.46-5.624.59-.659 1.64-2.153 1.688-2.988.173-.717.31-1.862-.394-2.312-1.054-.676-1.895.662-3.546 1.38-1.65.717-2.89 1.015-4.363 1.064-1.408.046-2.76-.48-3.605-.352-.852.13-1.347-.5.21-2.03.7-.694 1.003-1.001 1.332-1.242 3.695-2.322 7.004-2.352 8.853-6.458 0 0 1.447-3.7-1.335-2.124-1.53.87-2.358 2.124-6.719 2.124-4.36 0-6.059 2.012-6.797 2.898 0 0-2.956 4.064-2.22-1.626.743-5.69 1.862-8.58 4.594-10.789 2.348-1.904 8.195-4.457 10.303-7.267 1.085-1.058 3.8-4.097 2.216-6.683-.659-1.082-2.282 1.73-3.962 2.09-1.904.5-4.338 1.112-6.194.745-2.3-.456-3.767.404-4.624.79-.854.38-2.482-.83-.499-3.05 2.66-2.98 9.086-6.868 13.414-9.19.592-.239 2.043-.865 3.372-1.69l.076-.039c.33-.143.813-.434 1.092-.792.946-.77 1.59-1.646 1.368-2.524-.2-.813-.595-1.078-1.867-1.21-1.017-.1-2.683 1.055-4.096.944-2.168-.17-5.334.319-4.286-1.189.98-1.407 2.583-2.302 3.033-2.544.895-.403 2.076-.911 3.835-1.69 2.757-1.213 2.37-4.292 1.3-4.402-1.664-.172-6.14 1.233-2.989-2.301 0 0 1.503-1.477 3.003-2.439 1.194-.676 2.174-.94 3.35-1.355.745-.26 2.658-1.94-1.9-2.113 0 0-2.559.067-2.063-1.082.394-.765 2.633-2.15 2.633-2.15s1.809-1.207 2.536-1.936c.707-.656 1.204-1.194 1.17-1.788-.035-.684-1.825-1.523-2.584-2.472-.548-.683-.086-.922.22-1.008.163-.03.353-.05.594-.05 1.847.004 2.381-1.807 3.454-6.535.327-1.426.348-1.725.821-1.73h.002c.036 0 .067.009.095.009 0 0 .461 2.401 1.13 5.075.555 1.471 1.187 2.099 2.273 2.094.234 0 .424.02.587.058.302.08.775.32.225 1.006-.417.52-1.667 1.373-1.756 1.894-.367 1.472 1.055 2 2.515 2.103 2.06.142 1.2 1.397-1.02 3.017-2.155 1.57 3.344 4.909 3.344 4.909 3.132 2.378.898 2.997.26 3.33-.637.33-2.393 1.388-.626 2.063 1.767.669 4.208 3.074 4.208 3.074 3.148 3.53-1.33 2.126-2.992 2.298-1.072.112-1.454 3.19 1.297 4.405 4.2 1.855 5.125 2.174 6.615 3.256 2.765 2.017 1.297 3.724-2.161 3.122 0 0-2.216-.544-3.774-.248-.966.188-1.635.403-2.09.632-.238.354-.793 1.757 4.026 3.211 2.308.699 5.155 2.403 7.688 4.351l39.501-.041V31.178L134.142 7.626H64.586" fill="#8A191D"/><path d="M162.017 65.988l-39.108-.003c.82.849 1.504 1.668 1.97 2.392 1.754 2.107.23 3.252-.606 2.9 0 0-.649-.307-1.066-.47-.39-.123-2.07-.31-2.306-.306-2.076-.066-7.677-.43-11.083-2.361-1.337-.756-1.471 1.069-.885 2.513.316.778 1.51 2.485 3.11 4.111.403.448.893.894 1.44 1.327a13.642 13.642 0 0 0 2.016 1.435.045.045 0 0 1 .017.009c1.802 1.162 3.783 2.24 5.253 3.193l18.43-.002 22.818 22.805v67.683L135.51 196.72H63.217l-26.501-25.55.015-32.786h35.485l.003.005h3.489c-.403-.465-.969-.97-1.763-1.508 0 0-3.092-2.622 4.073-3.506 3.124-.386 6.386-2.299 7.657-5.353.244-2-2.48-2.746-3.842-1.826-1.399.935-4.374 1.967-6.019 2.192-5.155.707-4.571.248-4-1.363.264-.742.773-2.256 2.425-3.709l-14.711-.005-22.812-22.838V29.69L63.222 4.224h72.288l26.507 25.507v36.257zm3.401-37.706L136.883.82H61.848L33.313 28.24v73.64l24.804 24.832h11.376c-.277.749-.64 1.906.146 3.036.862 1.244 2.348 1.244 2.906 1.244.677 0 1.601-.08 3.032-.266l.007.006s.594.508-1.219 1.091c-1.494.522-2.792 1.377-3.231 2.846-.03.105-.042.207-.06.31h-37.75l-.014 37.642 28.529 27.504h75.043l28.535-27.463V102.12l-24.81-24.799h-21.04a.127.127 0 0 1-.028-.017c-.928-.546-1.884-1.108-2.756-1.676l-.314-.201-.062-.02c-.46-.285-.96-.65-1.505-1.105a9.042 9.042 0 0 1-1.15-1.06l-.08-.081a20.405 20.405 0 0 1-1.414-1.597c3.288.938 6.856 1.166 8.57 1.223h.214c.111 0 .222.003.323.006l.152.013c.41.032.728.102.936.163.22.088.419.183.592.263l.893.327c.21.046.431.069.656.069 1.294 0 2.492-.77 3.046-1.958.192-.41.46-1.227.25-2.296l37.527.021V28.282z" fill="#8A191D"/></g></svg>