<svg width="200" height="200" xmlns="http://www.w3.org/2000/svg"><g fill="none"><path fill="#FFF" d="M32.422 91.25v-3.022L4.014 87.102l.042.082-.605.817.327.582 3.061 1.69.797 2.025 1.052 1.768 2.761 1.525 8.653 8.882 7.262 5.053.69 1.155.692 1.37-.015 1.394.3.454 1.982 2.579.094 5.458.378 1.351 2.438 3.258 10.27 6.479 7.078 3.619 1.348.116.647-.37 1.462-1.806.966-.844 2.576-6.465 1.542-2.398 1.717-1.155 2.496.532.173-.415 1.155-1.619 2.424.685.602.315v-16.156h-18.96L32.421 91.251m150.558-1.51l.03 5.197-3.963-2.968-5.186 2.968 2.84-5.197-3.815-3.35h5.839l3.219-5.284.709 5.283h6.004l-5.677 3.351zm14.203 10.585l-.72-2.294-.948-1.309-.84-.718.039-1.168-.273-.279-.785-1.468-1.08-.663-.765-1.286.675-1.764-1.045-1.687-2.322-1.633-.917-1.539-1.809-24.871-.752-.122-1.922.839-1.343-.291-2.274-1.405-.79-.279-.577-.49-1.07-.105-6.474-2.97-2.703.922-3.304-.326-1.09.055-.727.103-2.465 1.038-3.105.42-.602.318-2.743 2.378-3.07-1.808-1.734-.769-.13.226-1.148.19v18.016h10.824v27.066l13.367 31.83h1.227l.748-.516.267-1.945 3.84-3.37-1.683-1.987.295-3.114 3.628-1.683 2.392.203-.336 2.42 2.628-.42.347.413 5.487-2.52 1.993-.246-.652-1.297.787-.993.34-1.055 1.08-1.227.825-2.904-.909-1.232-.095-1.763.233-.694-.142-1.006.477-2.6 1.068-1.02.379-1.209.48-2.845-.082-1.547zm-53.72 83.81l-2.62-7.88-1.477-3.493 1.527-4.878-.092-.475-.669-.126-.66-1.1-.052-1.045h-28.59v.85l1.068 1.237.586 3.772 1.052 1.048 3.993 6.598.298 1.159 1.746.046 3.043 1.59 3.35.938 4.826 2.604 6.71.12 1.499.395 3.747 2.05.897.333.929-1.35-.067-.022.296-1.006-1.34-1.365M99.23 21.602l-.132-7.39-40.443-.328-.127 4.073h36.89l3.813 3.645M72.698 67.317v-3.3h-23.07l-7.69-8.88V37.544l11.059-10.54H91.5l8.743 7.945v6.5H86.659V36.79H56.245v17.968h16.453v-3.424H59.902V40.24h23.125v4.665h19.99v-11.36l-9.975-9.814H51.595L38.398 35.954v20.683l9.461 10.68H72.7"/><path fill="#FFF" d="M77.817 101.267V97.86H52.995L41.95 86.872v-8.146h14.024V85.8h21.843v-3.4H59.902v-7.086H38.398V88.66l13.197 12.607h26.222"/><path fill="#FFF" d="M110.984 118.652v-5.894h-6.11v-16.09h12.603v-3.285H101.62v22.73h5.731v10.31H77.945l.016-10.31h6.488V63.97h-5.163v-9.398h59.505V70.11h-14.804v-4.717H101.62v19.578h15.857v-3.4h-12.253V68.82h15.103v4.836h22.086V51.334h-66.69v15.983h5.099v45.441h-6.587v17.076h31.661l5.088-11.182"/><path d="M170.7 155.496h-25.287v-11.435h5.06l-2.976-6.541h-21.259l-3.278 6.553 4.734-.012v11.435h-25.756v-11.435h4.981l21.96-49.587h-4.767V84.68h25.394v9.793h-4.093l20.657 49.587h4.63v11.435zm-19.86-57.271h2.417V81.249H120.44v16.976h3.118l-19.16 42.685H98.29v18.225h33.051V140.91h10.437v18.225h32.583v-19.149h-5.806l-17.716-41.761z" fill="#FFF"/><path d="M134.984 125.919l2.21-4.682 1.986 4.682h-4.196zm-5.96 3.451h14.879l-6.708-16.633-8.171 16.633z" fill="#FFF"/><path fill="#AFAFAE" d="M134.984 125.919h4.196l-1.985-4.682z"/><path d="M174.361 159.135h-32.583V140.91h-10.437v18.225H98.29V140.91h6.107l19.16-42.685h-3.118V81.249h32.817v16.976h-2.417l17.716 41.761h5.806v19.15zM74.235 129.834v-17.076h6.587V67.317h-5.1V51.334h66.691v22.323h-22.086v-4.836h-15.103v12.75h12.253v15.096h-12.603v16.091h6.11v5.894l-5.088 11.182H74.235zm-22.64-28.567L38.398 88.66V75.314h21.504V82.4h17.915v18.867H51.595zm28.327-58.18v5.224H63.054v-5.225h16.868zm-7.224 24.23H47.86l-9.461-10.68V35.954l13.197-12.222h41.447l9.976 9.814v11.36h-19.99v-4.665H59.901v11.093h12.796v15.983zm35.281 42.486V99.497h9.369v1.894h1.519l-4.78 10.093v-1.68h-6.108zm62.629 27.6l-15.364-36.587h1.013V78.507h-48.01v-6.753h8.984v4.694h28.203V48.311h-39.632V31.94L94.236 20.875h-43.66l-15.22 13.812V57.93l11.571 12.335h29.648v9.212H62.71v-7.116H35.356v17.622l15.22 14.158h27.192v5.758h-6.454v22.919h33.291l-2.334 5.56h-6.977v23.842h39.111v-18.08h4.29v18.08h38.882v-24.817h-6.97z" fill="#AFAFAE"/><path fill="#592B94" d="M55.974 78.726l-6.973.031v6.848l5.979 5.755.994-5.56v-7.074m-2.979 19.133H74.88V91.36h-19.9l-1.985 6.499m75.884-3.385l-21.96 49.587h-4.98v11.435l6.373-5.03h13.373l6.01-6.405-4.739.014-7.745.02 5.357-11.206 16.526-38.415h-8.215"/><path fill="#592B94" d="M158.486 144.061l-21.392-49.587.1 18.263 6.709 16.633 9.716 3.596-33.05-.077 5.67 4.63h21.258l2.975 6.542h-5.059v11.435l6-5.03h13.634l5.653-6.405h-12.214m-34.374-49.587l5.214-4.738h15.266l4.914-5.055h-25.394v9.793m-.125-29.081v4.717l7.368-5.165v-5.07H92.912l8.708 5.518h22.367m-6.51 27.99l.035-5.265H92.976v.022l-.064-28.265h-7.557l-6.07 4.096h5.164v52.141H77.96l-.016 10.31 6.576-5.485h8.53l-.075-32.78 8.644 5.226h15.857M86.66 41.449h7.22v-4.532l-7.22-.127v4.659M56.245 54.758V36.79L56 31.73l-7.51 7.065v14.522l4.652 6.005 3.102-4.564"/><path fill="#592B94" d="M93.88 36.917l6.364-1.968-8.743-7.945H52.997L56 31.73h32.357l5.521 5.187m-21.18 27.1v-4.695H53.143l-3.514 4.695h23.07"/><path fill="#372852" d="M53.143 59.322h19.556v-4.564H56.245l-3.102 4.564"/><path d="M196.784 104.718l-.379 1.208-1.068 1.021-.477 2.6.142 1.006-.233.694.095 1.763.909 1.232-.825 2.904-1.08 1.227-.34 1.055-.787.993.652 1.297-1.993.246-5.487 2.52-.347-.413-2.628.42.336-2.42-2.392-.203-3.628 1.683-.295 3.114 1.683 1.987-3.84 3.37-.267 1.945-.748.515h-1.227l-13.367-31.83V75.588H148.37V57.57l1.149-.19.129-.226 1.734.77 3.07 1.807 2.743-2.378.602-.32 3.105-.418 2.465-1.038.727-.103 1.09-.055 3.304.326 2.703-.921 6.474 2.97 1.07.104.577.49.79.279 2.274 1.405 1.343.29 1.922-.838.753.122 1.808 24.871.917 1.539 2.322 1.633 1.045 1.687-.675 1.764.765 1.286 1.08.663.785 1.468.273.279-.04 1.168.841.718.948 1.31.72 2.293.081 1.547-.48 2.845zm-19.206 32.685v24.817h-38.882v-18.08h-4.291v18.08H95.294v-23.842h6.976l2.334-5.56h-33.29v-22.919h6.453v-5.758H50.576l-8.056-7.495-7.164-6.663V72.361h27.355v7.116h13.864v-9.212H46.927l-.026-.029-6.65-7.089-4.895-5.217V34.687l4.935-4.478 10.285-9.334h43.66l11.566 11.064v16.372h39.632v28.137H117.23v-4.694h-8.984v6.753h48.01v22.309h-1.013l15.364 36.587h6.97zm-34.116 46.733l1.34 1.365-.296 1.006.067.023-.93 1.349-.896-.333-3.747-2.05-1.499-.394-6.71-.12-4.826-2.605-3.35-.937-3.043-1.591-1.746-.047-.298-1.159-3.993-6.597-1.052-1.048-.586-3.772-1.068-1.237v-.85h28.59l.052 1.045.66 1.1.67.126.09.475-1.526 4.878 1.478 3.493 2.619 7.88zM68.379 123.22l-.602-.315-2.424-.685-1.155 1.62-.173.414-2.496-.532-1.717 1.155-1.542 2.398-2.576 6.465-.966.844-1.462 1.806-.647.37-1.348-.116-7.079-3.62-10.269-6.478-2.438-3.258-.378-1.35-.094-5.46-1.982-2.578-.3-.454.015-1.394-.691-1.37-.691-1.155-7.262-5.053-8.653-8.882-2.761-1.525-1.052-1.768-.797-2.026-3.061-1.689-.327-.582.605-.818-.042-.08 28.408 1.125v3.023l16.996 15.812h18.96v16.156zM58.655 13.884l40.443.328.133 7.39-3.813-3.645h-36.89l.127-4.073zM199.76 99.91l-.92-2.944-1.353-1.872-.173-.15.036-1.034-.755-.77-.936-1.748-.955-.587.642-1.671-1.929-3.118-2.306-1.621-.356-.599-1.915-26.241-3.549-.585-1.857.808-.029-.005-2.13-1.315-.593-.21-.834-.716-1.465-.143-7.617-3.493-.922.775-1.678.572-2.914-.286-1.422.066-1.198.175-2.458 1.029-3.23.44-1.283.685-1.508 1.308-1.527-.9-.852-.376-.005-.133-.909-.786-2.448-.263-.042.07v-8.88h-39.63V30.697l-6.863-6.567-.222-12.355-45.526-.256-.2 6.438h-6.491l-17.015 15.44V59.08l9.717 10.36h-9.717v16.326l-30.77-1.23L0 86.267l.96.814-.55.743 1.17 2.086.427.54 2.717 1.504.548 1.387 1.5 2.513L9.8 97.528l8.563 8.785 7.013 4.883.374.623.39.778-.016 1.545.752 1.137 1.554 2.018.085 4.973.58 2.078 2.985 3.994 10.771 6.793 7.651 3.908 2.737.24 1.792-1.032 1.625-2.005 1.25-1.094 2.71-6.794 1.136-1.769.336-.224 2.15.459 1.638-.305.59-1.418.304.083 1.406.735.203.016v9.802h20.08l.138.098 1.37 1.816.136.89 2.257 4.43v22.168h15.871l-.002 1.723 1.204 1.395.597 3.869 1.405 1.397 3.656 6.04.682 2.642 3.095.082 2.739 1.433 3.33.935 5.141 2.774 7.047.131.861.223 3.631 1.987 3.05 1.127 1.568-2.28 1.524.181 1.18-1.238-.12-2.255-1.152-.37.032-.106-1.935-1.96-2.472-7.443-1.18-2.783 1.441-4.612-.439-2.39-.35-.145.48-.357h37.27v-30.657h-3.43l.17-1.262 3.923-3.447.395-1.593-1.93-2.28.07-.75.552-.259-.058.423.65 2.008 3.63-.58.688.816 6.98-3.21 3.603-.442 2.161-.81-2.04-2.156-.118-.235.118-.147.321-.988 1.114-1.264 1.286-4.528-1.179-1.597-.032-.612.268-.796-.17-1.178.268-1.465.957-.908.612-1.96.548-3.253-.112-2.099z" fill="#372852"/><path fill="#372852" d="M79.922 43.086H63.054v5.225h16.868v-5.225m-.636 20.884l6.069-4.095h46v5.07l-7.368 5.165h14.804V54.573H79.286v9.398"/><path fill="#372852" d="M117.477 88.118v-3.147H101.62V65.393l-8.708-5.518.064 28.243h24.501m1.39 13.273h-1.52v-1.894h-9.368v10.306h6.108v1.681l4.78-10.093m63.076-20.284l-3.22 5.283h-5.838l3.815 3.351-2.84 5.197 5.186-2.968 3.964 2.968-.031-5.197 5.677-3.35h-6.004l-.71-5.284m-30.53 69.358l-5.999 5.031H170.7v-11.435l-5.653 6.404h-13.635m-43.1 0l-6.374 5.031h25.756v-11.435l-6.009 6.404h-13.373m35.591-21.095h-14.88l8.172-16.633-.101-18.263-16.526 38.415 33.051.077-9.716-3.596"/><path fill="#372852" d="M166.07 144.061l-20.657-49.587h4.093V84.68l-4.914 5.055h-15.266l-5.214 4.738h12.982l21.392 49.587h7.584m-43.114.015l3.282-6.555-5.67-4.63-5.357 11.205 7.745-.02m-15.605-27.963h-5.731V93.383l-8.644-5.225.074 32.78h-8.529l-6.576 5.484h29.406v-10.31M86.66 36.79l7.22.127-5.522-5.187H56.001l.244 5.06h30.414"/><path fill="#372852" d="M100.244 41.449v-6.5l-6.365 1.968v4.532h6.365m-51.752-2.654L56 31.73l-3.004-4.726-11.059 10.54v17.593l7.69 8.88 3.515-4.695-4.651-6.005V38.795M54.98 91.36h19.9v6.499h2.937v-12.06H55.975l-.995 5.561M49 78.757l-7.05-.031v8.146L52.995 97.86l1.985-6.499L49 85.605v-6.848m99.977 93.667a2.276 2.276 0 0 1-2.282-2.27 2.276 2.276 0 0 1 2.282-2.269 2.277 2.277 0 0 1 2.283 2.27 2.276 2.276 0 0 1-2.283 2.269zm0-5.157a2.896 2.896 0 0 0-2.904 2.887 2.897 2.897 0 0 0 2.904 2.889 2.897 2.897 0 0 0 2.904-2.889c0-1.595-1.3-2.887-2.904-2.887z"/><path d="M149.185 169.844h-.778v-.72h.778a.36.36 0 0 1 0 .72zm.984-.36a.98.98 0 0 0-.984-.979l-1.401-.001v3.3h.623v-1.34h.447l.629 1.34h.688l-.655-1.397a.983.983 0 0 0 .653-.924z" fill="#372852"/></g></svg>