<svg width="200" height="200" xmlns="http://www.w3.org/2000/svg" xmlns:xlink="http://www.w3.org/1999/xlink"><defs><path id="a" d="M.024.051h199.911v189.803H.025z"/></defs><g fill="none" fill-rule="evenodd"><g transform="translate(0 5)"><mask id="b" fill="#fff"><use xlink:href="#a"/></mask><path d="M195.945 99.676s-1.151 1.152-1.536 1.535c-.054.595-.26 2.88-.317 3.48l1.447 2.067-1.382 4.495s-1.393 2.053-1.836 2.71c.205.635 1.043 3.211 1.043 3.211l-4.009.26c-.41.23-6.725 3.748-6.725 3.748l-.743-1.36c-.92.161-4.038.712-4.038.712l.383-2.864-1.387.616-.102.542a5442.2 5442.2 0 0 1 2.444 3.774s-3.612 3.04-4.148 3.493l-.503 3.217-3.452 2.152h3.45v25.258h-29.807l-.354.895-3.11 2.693.584.988-1.328 5.975 3.524 10.261c.473.356 3.83 2.871 3.83 2.871v3.278s-2.218-.404-2.847-.517c-.546.619-2.353 2.677-2.353 2.677l-5.271-3.09-8.265-.324-5.078-2.708-5.003-2.346-3.518-.37s-3.67-7.504-3.787-7.747l-1.944-2.294s-.13-2.516-.162-3.094c-.349-.417-1.619-1.943-1.619-1.943l-.343-5.155-.01-.05H95.276V142.38l-2.093-3.097s-3.213-7.231-3.265-7.345l-1.419-2.41-3.764-2.441-.072-.291H72.18v-6.234c-1.675-.386-4.026-.93-4.64-1.07l-1.421 1.387-2.557-.577-.411.457c-.001 0-.76.909-.895 1.073-.11.219-3.519 6.92-3.519 6.92l-2.857 4.106-2.675.897-9.346-4.93-9.222-5.712-3.74-5.556-.096-5.895-2.395-2.895s.163-1.465.21-1.901l-.886-1.775c-.474-.308-6.886-4.494-6.886-4.494l-8.897-9.386-2.657-1.839-1.85-3.31-2.624-1.75-1.513-2.559.424-2.484H35.1V65.266h20.984v-2.134h-7.395L35.1 50.576V26.923l17.102-14.058h3.882V3.203h44.432V19.19l4.884 4.936v15.167l.064.038h1.325l2.007-1.228 2.832 1.349s.223.597.542 1.337H143.573v5.573l.723-.237 1.438 1.336 2.506-.464 3.509 2.158c.74-.58 2.333-1.833 2.333-1.833l3.295-.618 3.136-1.214 4.904.096c.414-.223 2.617-1.417 2.617-1.417l6.632 3.57h1.91l3.7 2.438c.487-.288 1.34-.789 1.34-.789l3.865.15 2.19 26.777 2.114 1.762 2.102 3.271-.468 2.154 2.185 2.549s.24 1.439.3 1.812l1.628 2.296 1.187 4.425-.774 5.091Zm-48.542 63.638c-1.078 0-2-.595-2.447-1.477a2.67 2.67 0 0 1-.289-1.21c0-1.474 1.215-2.656 2.736-2.656 1.539 0 2.72 1.182 2.72 2.655 0 .127-.01.25-.027.373-.177 1.323-1.284 2.315-2.693 2.315Zm51.6-57.1-1.667-2.383c.04-.448.108-1.183.11-1.198l1.46-1.46 1.03-6.766-1.506-5.607-1.535-2.169-.328-1.966-1.735-2.023c.125-.58.413-1.9.413-1.9l-3.071-4.776-1.47-1.224c-.075-.933-2.31-28.248-2.31-28.248l-7.581-.289-.443.261-2.85-1.876h-2.059l-7.432-4.003-3.382 1.833-4.692-.092-3.445 1.333-3.767.706-1.214.954-2.672-1.644-1.008.187v-7.351h-35.063c-.36-.17-2.402-1.143-3.11-1.479l.002-12.666-6.01-6.073V.05H52.932v8.537H50.67L30.823 24.902v27.545l9.245 8.542h-9.245v15.127H1.07L0 82.361l2.467 4.174 2.591 1.728 1.836 3.285 2.99 2.069 8.926 9.417 6.481 4.232.088.177-.256 2.304 2.544 3.073.094 5.723 4.639 6.89 9.89 6.13 10.636 5.61 4.944-1.656 3.577-5.143 3.338-6.565 2.31.52.807-.789v7.533H85.09l1.071.695c.133.223.89 1.508.951 1.613l3.305 7.434.583.863v19.32h13.805l.144 2.16 1.604 1.925.163 3.105 2.375 2.807 4.382 8.962 4.727.497 4.476 2.099c0 .002 5.383 2.872 5.383 2.872l.233.125 8.197.321 6.832 4.008 2.896-3.294 4.809.872v-8.627l-4.317-3.236c-.18-.521-2.73-7.947-2.92-8.505l.079-.36a7.334 7.334 0 0 0 10.834-5.73h24.108v-33.812h-.175l2.52-2.123.23.42 8.883-4.951 7.35-.475s-1.55-4.758-1.824-5.603l1.237-1.825 1.972-6.416Z" fill="#FFFFFE" mask="url(#b)"/></g><path d="M148.035 167.019c-.08-.097-.13-.34-.21-.648-.033-.196-.123-.313-.278-.372a.733.733 0 0 0-.273-.049h-.292v1.069h-.615v-2.655a5.37 5.37 0 0 1 1.02-.081c.502 0 .729.08.924.194a.737.737 0 0 1 .258.583c0 .291-.226.518-.55.615v.032a.663.663 0 0 1 .345.292c.06.096.107.21.14.356.081.405.13.567.195.664h-.664Zm-.632-3.514c-1.182 0-2.056.956-2.056 2.121 0 .128.015.252.035.373.163 1 .969 1.749 2.037 1.749 1.045 0 1.836-.755 1.992-1.75.018-.115.032-.233.032-.355 0-1.182-.858-2.138-2.04-2.138Z" fill="#FFFFFE"/><path d="M147.338 164.72c-.161 0-.275.016-.34.032v.761h.292c.34 0 .616-.113.616-.388 0-.244-.179-.405-.568-.405M104.244 131.796H88.422l1.746 1.133 1.755 2.977 3.237 7.281.117.173v-5.905h6.72l2.247-5.659M78.395 102.613H52.202L35.1 88.2V86.52H5.776l.714 1.205c.36.242 2.648 1.767 2.648 1.767l1.86 3.328 2.421 1.676 8.875 9.363 7.174 4.684 1.457 2.911-.18 1.615 2.291 2.77.1 6.017c.317.473 2.86 4.25 3.096 4.598.391.244 8.68 5.379 8.745 5.418.064.035 7.655 4.04 8.425 4.446l1.055-.355c.353-.505 2.265-3.255 2.343-3.368l3.565-7.007.08-.098 1.005-1.204 1.32-1.467s1.942.439 2.65.597c.42-.408 1.428-1.392 1.428-1.392l5.331 1.23v-14.782h6.216v-5.858M77.246 77.51v-9.378H58.334v2.134h5.557v7.243h13.355M64.224 45.79h16.248v-5.323H64.224zM117.981 99.811h-1.462v-1.926h-9.023v10.49h5.883v1.712l4.602-10.276M179.451 87.658l-.03 5.526-3.956-3.154-5.25 3.154 2.915-5.526-3.8-3.562h5.875l3.299-5.619.653 5.62h6.044l-5.75 3.561Zm12.32 6.085-.284-1.704-2.503-2.92.508-2.337-1.413-2.197-2.572-2.145-2.107-25.73-1.212-.047-1.98 1.164s-3.82-2.516-4.308-2.836h-1.8l-6.063-3.264-2.07 1.122-5.054-.1-2.918 1.13-2.956.554-3.134 2.462-4.107-2.528-2.767.513s-.89-.829-1.295-1.203l-.164.054v18.556h-27.166v-4.778h-8.653v9.01h46.245v22.706h-.977l14.572 36.674.029.072 4.85-3.023.474-3.031s2.314-1.95 3.274-2.757l-1.853-2.866.484-2.583 3.347-1.487 2.662-.244-.374 2.803 2.603-.459.429.787 5.186-2.89 1.626-.105-.49-1.503 2.265-3.343.961-3.121c-.373-.535-1.288-1.84-1.288-1.84l.464-5.113 1.59-1.588.593-3.894c-.105-.384-.873-3.25-.961-3.582-.202-.283-1.693-2.39-1.693-2.39ZM94.256 17.865l4.01 4.052V10.453H58.335v7.412h35.922M108.93 45.66l-.215.132h.49c-.09-.044-.183-.088-.275-.131M137.083 161.722v-18.4h-4.132v18.4h-23.017l.287 4.325 1.631 1.958.163 3.083 1.633 1.93 3.364 6.88 2.656.28 5.399 2.53 4.673 2.494 8.313.325 4.156 2.437c.628-.717 1.967-2.238 1.967-2.238s.325.057.491.088l-2.528-1.894-3.954-11.516s1.108-4.983 1.272-5.727l-1.086-1.84 3.6-3.115h-4.888" fill="#FFFFFE"/><path d="m193.832 103.608-1.59 1.588-.464 5.112 1.288 1.84-.961 3.122c-.17.253-2.265 3.343-2.265 3.343l.49 1.503-1.626.105-5.186 2.89-.429-.787-2.603.46.374-2.804-2.662.244-3.347 1.487-.484 2.583 1.853 2.866c-.96.807-3.274 2.757-3.274 2.757l-.474 3.031-4.85 3.023-.029-.072-14.572-36.674h.977V76.519h-46.245v-9.01h8.653v4.778h27.166V53.73l.164-.054 1.295 1.203 2.767-.513 4.107 2.528 3.134-2.462 2.956-.555 2.918-1.13c.404.01 5.054.1 5.054.1l2.07-1.121 6.062 3.264h1.8c.489.32 4.309 2.836 4.309 2.836l1.98-1.164 1.212.046 2.107 25.731 2.572 2.145 1.413 2.197-.508 2.337 2.503 2.92.284 1.704s1.49 2.106 1.693 2.389c.088.331.856 3.198.961 3.582-.06.382-.505 3.312-.593 3.894Zm-22.396 35.483v19.492h-31.384V140.03h-10.054v18.553H98.162V140.03h5.884L122.5 96.589h-3.005V79.312h31.61V96.59h-2.326l17.065 42.502h5.592Zm-33.065 25.746 1.086 1.84c-.164.744-1.272 5.727-1.272 5.727l3.954 11.516 2.528 1.894-.49-.088s-1.34 1.52-1.968 2.238l-4.156-2.437-8.313-.325c-.412-.221-4.673-2.493-4.673-2.493l-5.4-2.532-2.655-.279-3.364-6.88-1.633-1.93-.163-3.083-1.63-1.958-.288-4.325h23.017v-18.4h4.132v18.4h4.888l-3.6 3.115Zm-43.094-22.605v1.128l-.117-.173c-.08-.177-3.237-7.28-3.237-7.28l-1.755-2.978-1.746-1.133h15.822l-2.247 5.66h-6.72v4.776Zm12.22-33.858V97.885h9.022v1.926h1.462l-4.602 10.276v-1.713h-5.883Zm-32.505 20.388V111.38h6.343V65.134h-4.91V48.866h64.237v20.581h-21.275v-4.925H104.84v15.116h11.802v3.46h-15.275V61.035h21.547v4.799h14.258V52.161H79.857v9.564h4.973v53.072h-6.25v10.496h28.311v-10.496h-5.524V91.661h15.275v3.342h-12.137v16.378h5.886v6.001l-4.902 11.38H74.992Zm-2.813-6.216v.708l-5.331-1.23-1.428 1.391c-.708-.158-2.65-.597-2.65-.597l-1.32 1.467c-.029.033-1.005 1.204-1.005 1.204l-.08.098-3.565 7.007c-.078.113-1.99 2.863-2.343 3.368-.325.11-.666.223-1.055.355-.77-.406-8.36-4.41-8.425-4.446-.064-.04-8.354-5.174-8.745-5.418-.235-.347-2.779-4.125-3.096-4.598l-.1-6.018-2.29-2.769.18-1.615-1.458-2.911-7.174-4.684-8.875-9.363-2.421-1.676-1.86-3.328S6.85 87.966 6.49 87.724l-.714-1.205H35.1V88.2l17.102 14.413h26.193v5.858h-6.216v14.075ZM38.03 73.272h23.156v7.209h17.256v3.464H57.403v-7.202H41.45v8.293l13.084 11.182h23.908v3.469H53.187L38.029 86.853V73.272Zm20.305-3.006v-2.134h18.912v9.377H63.89v-7.243h-5.557Zm5.89-24.477h16.248v-5.322H64.224v5.322ZM49.588 65.134l-11.559-10.87V33.21l15.158-12.439h39.92l9.61 9.989v11.56H83.462v-4.745H61.185v11.29h12.326v3.485H57.66V34.064H86.96v4.74h13.084v-6.617l-8.42-8.085H54.535L41.44 34.828v17.908l9.85 9.036h22.22v3.362H49.589Zm8.746-54.681h39.933v11.464l-4.01-4.052H58.333v-7.412ZM108.93 45.66l.276.13h-.491l.215-.13Zm84.975 47.203-.301-1.812-2.185-2.549.468-2.154-2.102-3.27-2.113-1.763-2.191-26.778-3.866-.149s-.852.5-1.34.789l-3.699-2.437h-1.91c-.46-.249-6.632-3.57-6.632-3.57l-2.617 1.416-4.904-.096-3.136 1.214-3.295.618-2.333 1.833-3.51-2.158-2.505.464-1.438-1.336-.724.237V45.79H112.17c-.319-.739-.542-1.336-.542-1.336l-2.832-1.349-2.007 1.228h-1.325c-.019-.01-.043-.026-.064-.038V29.127l-4.884-4.936V8.203H56.084v9.662h-3.882L35.1 31.923v23.653l13.59 12.556h7.394v2.134H35.1v14.003H3.726l-.424 2.484 1.513 2.558 2.624 1.75 1.85 3.311 2.657 1.84 8.897 9.385s6.412 4.186 6.886 4.494l.887 1.775-.211 1.901 2.395 2.895.097 5.895 3.739 5.556 9.222 5.713 9.346 4.93 2.675-.898 2.857-4.105 3.52-6.92c.135-.165.893-1.074.894-1.074l.41-.457 2.558.577 1.422-1.388 4.64 1.071v6.234h12.484l.072.291 3.764 2.44c.219.374 1.362 2.313 1.42 2.41.05.115 3.264 7.346 3.264 7.346l2.093 3.097v14.342h12.395l.011.05.343 5.155s1.27 1.526 1.619 1.943c.032.578.162 3.094.162 3.094l1.944 2.294c.117.243 3.787 7.747 3.787 7.747l3.518.37 5.003 2.346 5.078 2.708 8.265.324 5.271 3.09s1.807-2.058 2.353-2.677c.629.113 2.848.517 2.848.517v-3.278l-3.831-2.87-3.524-10.262 1.328-5.975-.584-.988 3.11-2.693.354-.895h29.806v-25.258h-3.45l3.453-2.152.503-3.217 4.148-3.493-2.444-3.774.102-.542 1.387-.616c-.09.665-.383 2.864-.383 2.864l4.038-.712.743 1.36s6.315-3.518 6.725-3.748l4.009-.26s-.838-2.576-1.043-3.211c.443-.657 1.836-2.71 1.836-2.71l1.382-4.495-1.447-2.066c.056-.6.263-2.886.317-3.48l1.536-1.536.774-5.09-1.187-4.426-1.627-2.296Z" fill="#532F7C"/><path fill="#FFFFFE" d="M73.51 61.772H51.29l-9.85-9.036V34.828l13.095-10.726h37.088l8.42 8.085v6.617H86.959v-4.74H57.662v18.287H73.51v-3.485H61.185v-11.29h22.277v4.745h19.255v-11.56l-9.61-9.989h-39.92l-15.158 12.44v21.052l11.559 10.87H73.51v-3.362M78.44 99.687v-3.469H54.534L41.45 85.036v-8.293h15.954v7.202h21.038V80.48H61.185v-7.21H38.03v13.582l15.158 12.834h25.254"/><path fill="#FFFFFE" d="M110.39 117.382v-6.001h-5.885V95.003h12.137V91.66h-15.275v23.136h5.524v10.496H78.58v-10.496h6.25V61.725h-4.973v-9.564h57.315v13.673h-14.258v-4.8h-21.547v22.064h15.275v-3.46H104.84V64.522h14.547v4.925h21.275v-20.58H76.425v16.267h4.91v46.247h-6.343v17.38h30.497l4.902-11.379"/><path d="M167.91 154.879h-24.356v-11.64h4.87l-2.863-6.657h-20.714l-2.94 6.657h4.576v11.64h-24.805v-11.64h4.797l21.15-50.468h-4.59v-9.968h24.46v9.968h-3.941l19.896 50.468h4.46v11.64Zm-19.131-58.29h2.326V79.312h-31.61V96.59h3.005l-18.454 43.441h-5.884v18.553h31.836V140.03h10.054v18.553h31.384V139.09h-5.592L148.78 96.589Z" fill="#FFFFFE"/><path d="m133.505 124.776 2.131-4.766 1.914 4.766h-4.045Zm-5.738 3.511h14.33l-6.461-16.93-7.87 16.93Z" fill="#FFFFFE"/><path fill="#532F7C" d="m178.504 78.477-3.3 5.62h-5.875l3.8 3.561-2.915 5.526 5.251-3.154 3.956 3.154.03-5.526 5.75-3.562h-6.044l-.653-5.619M127.767 128.287l7.869-16.93 6.461 16.93h-14.33Zm15.787-35.516h3.94v-9.968h-24.459v9.968h4.59l-21.15 50.468h-4.797v11.64h24.805v-11.64h-4.577l2.94-6.657h20.715l2.862 6.657h-4.87v11.64h24.358v-11.64h-4.461l-19.896-50.468Z"/><path fill="#532F7C" d="M133.505 124.776h4.045l-1.914-4.766-2.131 4.766M147.29 165.513h-.292v-.76c.065-.017.179-.033.34-.033.39 0 .568.161.568.405 0 .275-.276.388-.616.388Zm1.074.486a.663.663 0 0 0-.345-.292v-.032c.324-.097.55-.324.55-.615a.737.737 0 0 0-.258-.583c-.195-.113-.422-.194-.924-.194a5.37 5.37 0 0 0-1.02.08v2.656h.615v-1.069h.292c.111 0 .198.02.273.049.155.06.245.176.277.372.082.308.13.55.21.648h.665c-.065-.097-.114-.26-.195-.664a1.162 1.162 0 0 0-.14-.356Z"/><path d="M149.41 165.999c-.155.994-.946 1.749-1.99 1.749-1.069 0-1.875-.75-2.038-1.75a2.291 2.291 0 0 1-.035-.372c0-1.165.874-2.12 2.056-2.12s2.04.955 2.04 2.137c0 .122-.014.24-.032.356Zm-2.007-3.028c-1.521 0-2.736 1.182-2.736 2.655 0 .44.106.849.29 1.211a2.72 2.72 0 0 0 2.446 1.477c1.41 0 2.516-.992 2.693-2.315.016-.122.027-.246.027-.373 0-1.473-1.181-2.655-2.72-2.655Z" fill="#532F7C"/></g></svg>