<?xml version="1.0" encoding="UTF-8"?>
<svg width="200px" height="200px" viewBox="0 0 200 200" version="1.1" xmlns="http://www.w3.org/2000/svg" xmlns:xlink="http://www.w3.org/1999/xlink">
    <!-- Generator: Sketch 51.3 (57544) - http://www.bohemiancoding.com/sketch -->
    <title>stephen-f-austin</title>
    <desc>Created with Sketch.</desc>
    <defs></defs>
    <g id="stephen-f-austin" stroke="none" stroke-width="1" fill="none" fill-rule="evenodd">
        <g id="stephen-f-austin_BGL" transform="translate(0.000000, 10.945274)">
            <g id="stephen-f-austin">
                <g id="g10" transform="translate(99.999998, 90.085269) scale(-1, 1) rotate(-180.000000) translate(-99.999998, -90.085269) translate(0.000000, 0.218443)" fill-rule="nonzero">
                    <g id="g12">
                        <polyline id="path14" fill="#FFFFFF" points="32.4221572 99.6467896 32.4221572 102.668921 4.01387273 103.795226 4.05603073 103.713599 3.45119837 102.896175 3.77754518 102.314052 6.83930619 100.625169 7.63591503 98.5994291 8.68797666 96.8316011 11.4494409 95.3067392 20.1017721 86.4246777 27.3637758 81.3710579 28.0545658 80.216777 28.7459338 78.846739 28.7310205 77.4521745 29.0313288 76.99805 31.0129087 74.419696 31.1072825 68.9610049 31.4848162 67.6101283 33.9231205 64.3523121 44.1922918 57.8738529 51.2705189 54.2546533 52.6192665 54.1381521 53.2655093 54.5079666 54.727937 56.3141173 55.6940256 57.1587505 58.2701334 63.6234136 59.8115592 66.0212675 61.5287075 67.1759316 64.0250466 66.6447785 64.1976863 67.0590473 65.3529849 68.6781831 67.7768769 67.9937389 68.3788037 67.678726 68.3788037 83.8340604 49.4184959 83.8340604 32.4221572 99.6467896"></polyline>
                        <path d="M182.978801,101.156322 L183.009629,95.9597587 L179.045853,98.927855 L173.860497,95.9597587 L176.699803,101.156322 L172.885159,104.507263 L178.723695,104.507263 L181.942577,109.790819 L182.651633,104.507263 L188.655872,104.507263 L182.978801,101.156322 Z M197.181883,90.5715814 L196.461652,92.8651974 L195.514446,94.1743022 L194.673598,94.8924704 L194.712905,96.0605475 L194.440458,96.3391539 L193.655486,97.8076813 L192.575332,98.4706647 L191.8104,99.7563926 L192.485159,101.520005 L191.440072,103.206972 L189.117914,104.840671 L188.200766,106.378945 L186.392288,131.250404 L185.639687,131.371887 L183.7183,130.533769 L182.374947,130.824638 L180.100959,132.22955 L179.311364,132.508156 L178.734485,132.998687 L177.663965,133.103308 L171.189591,136.072554 L168.487472,135.151276 L165.182655,135.477785 L164.092867,135.422217 L163.36647,135.319512 L160.900574,134.280966 L157.796142,133.862099 L157.19383,133.54287 L154.451249,131.164944 L151.380728,132.973011 L149.64701,133.742148 L149.51753,133.516811 L148.369168,133.325964 L148.369168,115.310443 L159.19306,115.310443 L159.19306,88.2446246 L172.560304,56.4152894 L173.786508,56.4152894 L174.53487,56.930347 L174.801922,58.8752261 L178.641614,62.2453279 L176.959148,64.2327452 L177.254331,67.3460846 L180.882462,69.0296026 L183.273599,68.8261088 L182.938338,66.406411 L185.566084,66.8256618 L185.912905,66.4129259 L191.399995,68.9334125 L193.392673,69.1794445 L192.741421,70.4766693 L193.527548,71.4696115 L193.868203,72.5246365 L194.948357,73.7509642 L195.77302,76.6558279 L194.863964,77.8875208 L194.768781,79.6507501 L195.001922,80.3440085 L194.859725,81.3499804 L195.336797,83.9501783 L196.40539,84.9710961 L196.78381,86.1794121 L197.263194,89.0244924 L197.181883,90.5715814 Z" id="path16" fill="#FFFFFF"></path>
                        <polyline id="path18" fill="#FFFFFF" points="143.461653 6.76128109 140.842771 14.6415479 139.364544 18.1347423 140.891711 23.0120392 140.800382 23.4872028 140.131018 23.6133996 139.470902 24.7135305 139.419264 25.7582851 110.828514 25.7582851 110.828514 24.9085933 111.897107 23.6716118 112.483234 19.8998494 113.535257 18.8508794 117.527935 12.2536962 117.826201 11.0944333 119.572251 11.0484844 122.615026 9.45763078 125.965315 8.5206781 130.791134 5.91591976 137.50096 5.79554803 138.999997 5.40155194 142.747203 3.35099407 143.643542 3.0186631 144.573021 4.3676044 144.505969 4.39063637 144.802309 5.3966083 143.461653 6.76128109"></polyline>
                        <polyline id="path20" fill="#FFFFFF" points="99.230826 169.294921 99.0978781 176.685078 58.6551045 177.013121 58.5283222 172.94018 95.4181094 172.94018 99.230826 169.294921"></polyline>
                        <polyline id="path22" fill="#FFFFFF" points="72.6982641 123.580491 72.6982641 126.880462 49.6285151 126.880462 41.9379566 135.760224 41.9379566 153.353428 52.9965305 163.892948 91.5013465 163.892948 100.243543 155.94826 100.243543 149.448724 86.6593427 149.448724 86.6593427 154.107236 56.2446999 154.107236 56.2446999 136.139619 72.6982641 136.139619 72.6982641 139.563756 59.9017326 139.563756 59.9017326 150.656656 83.0273582 150.656656 83.0273582 145.991246 103.017724 145.991246 103.017724 157.351256 93.0416162 167.16571 51.5953744 167.16571 38.397764 154.943821 38.397764 134.260272 47.8593437 123.580491 72.6982641 123.580491"></polyline>
                        <polyline id="path24" fill="#FFFFFF" points="77.8169537 89.6299917 77.8169537 93.0384162 52.9946037 93.0384162 41.9495173 104.025163 41.9495173 112.171811 55.9741797 112.171811 55.9741797 105.097816 77.8169537 105.097816 77.8169537 108.497426 59.9017326 108.497426 59.9017326 115.582918 38.397764 115.582918 38.397764 102.237407 51.5953744 89.6299917 77.8169537 89.6299917"></polyline>
                        <polyline id="path26" fill="#FFFFFF" points="110.984198 72.2448805 110.984198 78.138918 104.873986 78.138918 104.873986 94.2302534 117.477068 94.2302534 117.477068 97.5141291 101.619651 97.5141291 101.619651 74.7849117 107.351057 74.7849117 107.351057 64.4749449 77.9614624 64.4749449 77.9445067 64.4749449 77.9614624 74.7849117 84.4489382 74.7849117 84.4489382 126.926832 79.2855472 126.926832 79.2855472 136.324718 138.790748 136.324718 138.790748 120.787529 123.986509 120.787529 123.986509 125.504292 101.619651 125.504292 101.619651 105.926354 117.477068 105.926354 117.477068 109.327114 105.223889 109.327114 105.223889 122.076706 120.326779 122.076706 120.326779 117.240376 142.413099 117.240376 142.413099 139.563756 75.7225415 139.563756 75.7225415 123.580491 80.8215779 123.580491 80.8215779 78.138918 74.2346802 78.138918 74.2346802 61.0634545 105.895951 61.0634545 110.984198 72.2448805"></polyline>
                        <path d="M170.700188,35.400938 L145.413484,35.400938 L145.413484,46.8361372 L150.472443,46.8361372 L147.497106,53.3774457 L126.238147,53.3774457 L122.959534,46.8238739 L127.694409,46.8361372 L127.694409,35.400938 L101.93834,35.400938 L101.93834,46.8361372 L106.919072,46.8361372 L128.878609,96.4234639 L124.11175,96.4234639 L124.11175,106.21684 L149.505969,106.21684 L149.505969,96.4234639 L145.413484,96.4234639 L166.070131,46.8361372 L170.700188,46.8361372 L170.700188,35.400938 Z M150.838532,92.6728173 L153.255873,92.6728173 L153.255873,109.648258 L120.438918,109.648258 L120.438918,92.6728173 L123.557222,92.6728173 L104.396915,49.9877993 L98.2897856,49.9877993 L98.2897856,31.7619256 L131.341423,31.7619256 L131.341423,49.9877993 L141.778031,49.9877993 L141.778031,31.7619256 L174.36146,31.7619256 L174.36146,50.9113774 L168.554909,50.9113774 L150.838532,92.6728173 Z" id="path28" fill="#FFFFFF"></path>
                        <path d="M134.984197,64.9785057 L137.194602,69.6600117 L139.180343,64.9785057 L134.984197,64.9785057 Z M129.023889,61.5271597 L143.902501,61.5271597 L137.194602,78.1607619 L129.023889,61.5271597 Z" id="path30" fill="#FFFFFF"></path>
                        <polygon id="path32" fill="#AFAFAE" points="134.984197 64.9785057 139.180343 64.9785057 137.194602 69.6600117"></polygon>
                        <path d="M174.36146,31.7619256 L141.778031,31.7619256 L141.778031,49.9877993 L131.341423,49.9877993 L131.341423,31.7619256 L98.2897856,31.7619256 L98.2897856,49.9877993 L104.396915,49.9877993 L123.557222,92.6728173 L120.438918,92.6728173 L120.438918,109.648258 L153.255873,109.648258 L153.255873,92.6728173 L150.838532,92.6728173 L168.554909,50.9113774 L174.36146,50.9113774 L174.36146,31.7619256 Z M74.2346802,61.0634545 L74.2346802,78.138918 L80.8215779,78.138918 L80.8215779,123.580491 L75.7225415,123.580491 L75.7225415,139.563756 L142.413099,139.563756 L142.413099,117.240376 L120.326779,117.240376 L120.326779,122.076706 L105.223889,122.076706 L105.223889,109.327114 L117.477068,109.327114 L117.477068,94.2302534 L104.873986,94.2302534 L104.873986,78.138918 L110.984198,78.138918 L110.984198,72.2448805 L105.895951,61.0634545 L74.2346802,61.0634545 Z M51.5953744,89.6299917 L38.397764,102.237407 L38.397764,115.582918 L59.9017326,115.582918 L59.9017326,108.497426 L77.8169537,108.497426 L77.8169537,89.6299917 L51.5953744,89.6299917 Z M79.922156,147.811193 L79.922156,142.585887 L63.053563,142.585887 L63.053563,147.811193 L79.922156,147.811193 Z M72.6982641,123.580491 L47.8593437,123.580491 L38.397764,134.260272 L38.397764,154.943821 L51.5953744,167.16571 L93.0416162,167.16571 L103.017724,157.351256 L103.017724,145.991246 L83.0273582,145.991246 L83.0273582,150.656656 L59.9017326,150.656656 L59.9017326,139.563756 L72.6982641,139.563756 L72.6982641,123.580491 Z M107.979188,81.0939845 L107.979188,91.4005023 L117.347589,91.4005023 L117.347589,89.5062092 L118.866664,89.5062092 L114.087088,79.4131491 L114.087088,81.0939845 L107.979188,81.0939845 Z M170.607703,53.4943301 L155.243541,90.0814336 L156.257414,90.0814336 L156.257414,112.39025 L108.247011,112.39025 L108.247011,119.143867 L117.230826,119.143867 L117.230826,114.448948 L145.433522,114.448948 L145.433522,142.585887 L105.802309,142.585887 L105.802309,158.958128 L94.2362212,170.02267 L50.5757213,170.02267 L35.3559914,156.210388 L35.3559914,132.967646 L46.9271665,120.632322 L76.5749499,120.632322 L76.5749499,111.420302 L62.7102104,111.420302 L62.7102104,118.536452 L35.3559914,118.536452 L35.3559914,100.914123 L50.5757213,86.7561694 L77.7680135,86.7561694 L77.7680135,80.9985609 L71.3144491,80.9985609 L71.3144491,58.079646 L104.605392,58.079646 L102.270518,52.5193996 L95.2936392,52.5193996 L95.2936392,28.6776731 L134.405006,28.6776731 L134.405006,46.7575756 L138.695565,46.7575756 L138.695565,28.6776731 L177.57726,28.6776731 L177.57726,53.4943301 L170.607703,53.4943301 Z" id="path34" fill="#AFAFAE"></path>
                        <polyline id="path36" fill="#592B94" points="55.9741797 112.171811 49.0007695 112.140386 49.0007695 105.292496 54.9799601 99.5371865 55.9741797 105.097816 55.9741797 112.171811"></polyline>
                        <path d="M52.9946037,93.0384162 L74.8801523,93.0384162 C74.8801523,94.1263988 74.8801523,96.8806542 74.8801523,99.5371865 L54.9799601,99.5371865 L52.9946037,93.0384162" id="path38" fill="#592B94"></path>
                        <polyline id="path40" fill="#592B94" points="128.878609 96.4234639 106.919072 46.8361372 101.93834 46.8361372 101.93834 35.400938 108.312136 40.432024 121.685161 40.432024 127.694409 46.8361372 122.956452 46.8227242 115.210787 46.8020299 120.568398 58.0079825 137.093638 96.4234639 128.878609 96.4234639"></polyline>
                        <polyline id="path42" fill="#592B94" points="158.485931 46.8361372 137.093638 96.4234639 137.194602 78.1607619 143.902501 61.5271597 153.619264 57.9317202 120.568398 58.0079825 126.238147 53.3774457 147.497106 53.3774457 150.472443 46.8361372 145.413484 46.8361372 145.413484 35.400938 151.412328 40.432024 165.046624 40.432024 170.700188 46.8361372 158.485931 46.8361372"></polyline>
                        <polyline id="path44" fill="#592B94" points="124.11175 96.4234639 129.325623 101.161304 144.591519 101.161304 149.505969 106.21684 124.11175 106.21684 124.11175 96.4234639"></polyline>
                        <polyline id="path46" fill="#592B94" points="123.986509 125.504292 123.986509 120.787529 131.354525 125.952668 131.354525 131.022 92.9121364 131.022 101.619651 125.504292 123.986509 125.504292"></polyline>
                        <polyline id="path48" fill="#592B94" points="117.477068 97.5141291 117.512136 102.778907 92.9761056 102.778907 92.9761056 102.75783 92.9121364 131.022 85.3549112 131.022 79.2855472 126.926832 84.4489382 126.926832 84.4489382 74.7849117 77.9614624 74.7849117 77.9445067 64.4749449 84.5206145 69.9600787 93.0504794 69.9600787 92.9761056 102.739818 101.619651 97.5141291 117.477068 97.5141291"></polyline>
                        <polyline id="path50" fill="#592B94" points="86.6593427 149.448724 93.8793811 149.448724 93.8793811 153.980771 86.6593427 154.107236 86.6593427 149.448724"></polyline>
                        <polyline id="path52" fill="#592B94" points="56.2446999 136.139619 56.2446999 154.107236 56.0007693 159.167371 48.4917136 152.102573 48.4917136 137.580171 53.1429659 131.575764 56.2446999 136.139619"></polyline>
                        <polyline id="path54" fill="#592B94" points="93.8793811 153.980771 100.243543 155.94826 91.5013465 163.892948 52.9965305 163.892948 56.0007693 159.167371 88.3579939 159.167371 93.8793811 153.980771"></polyline>
                        <polyline id="path56" fill="#592B94" points="72.6982641 126.880462 72.6982641 131.575764 53.1429659 131.575764 49.6285151 126.880462 72.6982641 126.880462"></polyline>
                        <polyline id="path58" fill="#372852" points="53.1429659 131.575764 72.6986494 131.575764 72.6986494 136.139619 56.2446999 136.139619 53.1429659 131.575764"></polyline>
                        <path d="M196.78381,86.1794121 L196.40539,84.9710961 L195.336797,83.9501783 L194.859725,81.3499804 L195.001922,80.3440085 L194.768781,79.6507501 L194.863964,77.8875208 L195.77302,76.6558279 L194.948357,73.7509642 L193.868203,72.5246365 L193.527548,71.4696115 L192.741421,70.4766693 L193.392673,69.1794445 L191.399995,68.9334125 L185.912905,66.4129259 L185.566084,66.826045 L182.938338,66.406411 L183.273599,68.8261088 L180.882462,69.0296026 L177.254331,67.3464678 L176.959148,64.2327452 L178.641614,62.2453279 L174.801922,58.8752261 L174.53487,56.930347 L173.786508,56.4152894 L172.560304,56.4152894 L159.19306,88.2446246 L159.19306,115.310443 L148.369168,115.310443 L148.369168,133.325964 L149.51753,133.516811 L149.64701,133.742148 L151.380728,132.973011 L154.451249,131.164944 L157.19383,133.54287 L157.796142,133.862482 L160.900574,134.280966 L163.36647,135.319512 L164.092867,135.422217 L165.182655,135.477785 L168.487472,135.151276 L171.189591,136.072554 L177.663965,133.103308 L178.734485,132.998687 L179.311364,132.508156 L180.100959,132.22955 L182.374947,130.824638 L183.7183,130.533769 L185.639687,131.371887 L186.392674,131.250404 L188.200766,106.378945 L189.117914,104.840671 L191.439687,103.206972 L192.485159,101.520005 L191.8104,99.7563926 L192.575332,98.4706647 L193.655486,97.8076813 L194.440458,96.3391539 L194.712905,96.0605475 L194.673213,94.8924704 L195.514446,94.1743022 L196.461652,92.8651974 L197.181883,90.5715814 L197.263194,89.0244924 L196.78381,86.1794121 Z M177.577645,53.4943301 L177.577645,28.6776731 L138.695565,28.6776731 L138.695565,46.7575756 L134.405006,46.7575756 L134.405006,28.6776731 L95.2936392,28.6776731 L95.2936392,52.5193996 L95.3541402,52.5193996 L102.270518,52.5193996 L104.605392,58.079646 L71.3144491,58.079646 L71.3144491,58.1428785 L71.3144491,80.9985609 L77.7676281,80.9985609 L77.7676281,81.0564282 L77.7676281,86.708266 L77.7676281,86.7561694 L50.5757213,86.7561694 L42.5202302,94.2509477 L35.3559914,100.914123 L35.3559914,118.536452 L62.7105957,118.536452 L62.7105957,118.501578 L62.7105957,111.420302 L62.8385341,111.420302 L76.5749499,111.420302 L76.5749499,120.632322 L46.9271665,120.632322 L46.9009622,120.661064 L40.2516368,127.750388 L35.3559914,132.967646 L35.3559914,156.210388 L40.2909431,160.688017 L50.5757213,170.02267 L94.2362212,170.02267 L105.802309,158.958128 L105.802309,142.585887 L145.433522,142.585887 L145.433522,114.448948 L117.230826,114.448948 L117.230826,119.143867 L108.247011,119.143867 L108.247011,112.39025 L156.257414,112.39025 L156.257414,90.0814336 L156.191518,90.0814336 L155.243541,90.0814336 L170.607703,53.4943301 L177.577645,53.4943301 Z M143.461653,6.76128109 L144.802309,5.3966083 L144.505969,4.39063637 L144.573021,4.3676044 L143.643542,3.0186631 L142.747203,3.35099407 L138.999997,5.40155194 L137.50096,5.79554803 L130.791134,5.91591976 L125.965315,8.5206781 L122.615026,9.45763078 L119.572251,11.0484844 L117.826201,11.0948932 L117.527935,12.2541561 L113.535257,18.8508794 L112.483234,19.8998494 L111.897107,23.6716118 L110.828514,24.9085933 L110.828514,25.7582851 L139.419264,25.7582851 L139.470902,24.7135305 L140.131018,23.6133996 L140.800382,23.4872028 L140.891711,23.0120392 L139.364544,18.1347423 L140.842771,14.6415479 L143.461653,6.76128109 Z M68.3788037,67.678726 L67.7768769,67.9937389 L65.3529849,68.6781831 L64.1976863,67.0590473 L64.0250466,66.6447785 L61.5287075,67.1759316 L59.8115592,66.0212675 L58.2701334,63.6234136 L55.6940256,57.1587505 L54.727937,56.3141173 L53.2655093,54.5079666 L52.6192665,54.1381521 L51.2705189,54.2546533 L44.1922918,57.8738529 L33.9231205,64.3523121 L31.4848162,67.6101283 L31.1072825,68.9610049 L31.0130628,74.419696 L29.0313288,76.99805 L28.7310205,77.4521745 L28.7459338,78.846739 L28.0545658,80.216777 L27.3637758,81.3710579 L20.1017721,86.4246777 L11.4494409,95.3067392 L8.68797666,96.8316011 L7.63591503,98.5994291 L6.83930619,100.625169 L3.77754518,102.314052 L3.45119837,102.896175 L4.05603073,103.713982 L4.01402687,103.795226 L32.4221572,102.668921 L32.4221572,99.6467896 L49.4184959,83.8340604 L68.3788037,83.8340604 L68.3788037,67.678726 Z M58.6554899,177.013121 L99.0978781,176.685078 L99.230826,169.294921 L95.4181094,172.94018 L58.5283222,172.94018 L58.6554899,177.013121 Z M199.758762,90.9873832 L198.838145,93.9317193 L197.485544,95.8030187 L197.312519,95.9528606 L197.349128,96.9875746 L196.593829,97.7570952 L195.658184,99.5057619 L194.703271,100.092483 L195.344504,101.763738 L193.41618,104.881676 L191.110207,106.502345 L190.753752,107.101329 L188.839302,133.342826 L185.290169,133.927631 L183.433136,133.119021 L183.404234,133.124386 L181.274755,134.439622 L180.681306,134.649631 L179.847009,135.3655 L178.381884,135.508444 L170.764928,139.001561 L169.84277,138.226292 L168.164543,137.654134 L165.250863,137.940405 L163.829283,137.87449 L162.63121,137.699355 L160.173406,136.670772 L156.942578,136.230827 L155.660112,135.545617 L154.152212,134.237278 L152.625044,135.136713 L151.773021,135.513809 L151.767626,135.646022 L150.859341,136.432788 L148.411172,136.695682 L148.369168,136.625168 L148.369168,145.505314 L108.738726,145.505314 L108.738726,160.200552 L101.875913,166.767153 L101.654333,179.122022 L56.1283223,179.378017 L55.9287077,172.94018 L49.4366076,172.94018 L32.4221572,157.499565 L32.4221572,131.81873 L42.139498,121.456644 L32.4221572,121.456644 L32.4221572,105.130774 L1.65251634,106.359784 L0,104.631812 L0.959175313,103.81707 L0.409441223,103.073992 L1.58146817,100.987319 L2.00776874,100.447735 L4.72543341,98.9435673 L5.27260102,97.5559009 L6.77383413,95.0438452 L9.79965293,93.3691415 L18.3625429,84.5840365 L25.3760302,79.7013361 L25.7497874,79.0782084 L26.1402691,78.2998735 L26.1244695,76.7558503 L26.8764926,75.6180481 L28.42998,73.6003558 L28.514874,68.627597 L29.0952979,66.5489716 L32.0798836,62.5553588 L42.8512513,55.7622699 L50.5021182,51.8541168 L53.2389197,51.6138332 L55.0308271,52.6462478 L56.6558753,54.6516769 L57.9067423,55.7450246 L60.6157981,62.5396465 L61.7518289,64.308241 L62.0882451,64.5328122 L64.2377633,64.0737058 L65.8755282,64.3779884 L66.4655089,65.7959298 L66.7699405,65.7131526 L68.1764916,64.9785057 L68.3788037,64.9627934 L68.3788037,55.1602196 L88.459728,55.1602196 L88.5969149,55.0624966 L89.9668571,53.2467652 L90.1025026,52.3572944 L92.3599206,47.9264191 L92.3599206,25.7582851 L108.231211,25.7582851 L108.228899,24.0352563 L109.433138,22.6403469 L110.030055,18.7717046 L111.43545,17.3739593 L115.090941,11.3347169 L115.773408,8.69267056 L118.86782,8.61035331 L121.606548,7.17742773 L124.936798,6.24269776 L130.078224,3.46865638 L137.125237,3.33707142 L137.986124,3.11446995 L141.616952,1.12782675 L144.667434,0 L146.235449,2.28065143 L147.759149,2.09936954 L148.938725,3.33707142 L148.818108,5.59243751 L147.667434,5.96217531 L147.698648,6.06875085 L145.764158,8.02907399 L143.291711,15.4713118 L142.112906,18.2546542 L143.553368,22.8664127 L143.114062,25.2558739 L142.764929,25.4010788 L143.243542,25.7582851 L180.514061,25.7582851 L180.514061,56.4152894 L177.084003,56.4152894 L177.254331,57.6776404 L181.176874,61.1243877 L181.57225,62.7170808 L179.641999,64.9976671 L179.712134,65.7464934 L180.263965,66.0059384 L180.205776,65.5836218 L180.855487,63.5755102 L184.48593,64.1553332 L185.174176,63.3398253 L192.153367,66.5489716 L195.757221,66.991216 L197.918299,67.8009755 L195.877837,69.9570129 L195.759533,70.1926978 L195.877837,70.3390906 L196.199224,71.3278173 L197.312519,72.5917013 L198.599224,77.1195331 L197.420034,78.7160585 L197.388434,79.3280726 L197.656257,80.1244192 L197.485544,81.302077 L197.754138,82.7671553 L198.710592,83.6757875 L199.322924,85.6344628 L199.870515,88.8884467 L199.758762,90.9873832 Z" id="path60" fill="#372852"></path>
                        <polyline id="path62" fill="#372852" points="79.922156 147.811193 63.053563 147.811193 63.053563 142.585887 79.922156 142.585887 79.922156 147.811193"></polyline>
                        <polyline id="path64" fill="#372852" points="79.2859325 126.926832 85.3549112 131.022 131.35491 131.022 131.35491 125.952668 123.986509 120.787529 138.790748 120.787529 138.790748 136.324718 79.2859325 136.324718 79.2859325 126.926832"></polyline>
                        <polyline id="path66" fill="#372852" points="117.477068 102.778907 117.477068 105.926354 101.619651 105.926354 101.619651 125.504292 92.9121364 131.022 92.9761056 102.778907 117.477068 102.778907"></polyline>
                        <polyline id="path68" fill="#372852" points="118.866664 89.5062092 117.347589 89.5062092 117.347589 91.4005023 107.979188 91.4005023 107.979188 91.3108271 107.979188 81.0943677 114.087088 81.0943677 114.087088 79.4131491 118.866664 89.5062092"></polyline>
                        <polyline id="path70" fill="#372852" points="181.942577 109.790819 178.723695 104.507263 172.885159 104.507263 176.699803 101.156322 173.860882 95.9597587 179.045853 98.927855 183.009629 95.9597587 182.978801 101.156322 188.655872 104.507263 182.651633 104.507263 181.942577 109.790819"></polyline>
                        <polyline id="path72" fill="#372852" points="151.412328 40.432024 145.413484 35.400938 170.700188 35.400938 170.700188 46.8361372 165.046624 40.432024 151.412328 40.432024"></polyline>
                        <polyline id="path74" fill="#372852" points="108.312136 40.432024 101.93834 35.400938 127.694409 35.400938 127.694409 46.8361372 121.685161 40.432024 108.312136 40.432024"></polyline>
                        <polyline id="path76" fill="#372852" points="143.902501 61.5271597 129.023889 61.5271597 137.194602 78.1607619 137.093638 96.4234639 120.568398 58.0079825 153.619264 57.9317202 143.902501 61.5271597"></polyline>
                        <polyline id="path78" fill="#372852" points="166.070131 46.8361372 145.413484 96.4234639 149.505969 96.4234639 149.505969 106.21684 144.591519 101.161304 129.325623 101.161304 124.11175 96.4234639 137.093638 96.4234639 158.485545 46.8361372 166.070131 46.8361372"></polyline>
                        <polyline id="path80" fill="#372852" points="122.956452 46.8227242 126.238147 53.3774457 120.568398 58.0079825 115.210787 46.8020299 122.956452 46.8227242"></polyline>
                        <polyline id="path82" fill="#372852" points="107.351057 74.7849117 101.619651 74.7849117 101.619651 97.5141291 92.9761056 102.739818 93.0504794 69.9600787 84.5209998 69.9600787 77.9445067 64.4749449 77.9614624 64.4749449 107.351057 64.4749449 107.351057 74.7849117"></polyline>
                        <polyline id="path84" fill="#372852" points="86.6593427 154.107236 93.8793811 153.980771 88.3579939 159.167371 56.0007693 159.167371 56.2446999 154.107236 86.6593427 154.107236"></polyline>
                        <polyline id="path86" fill="#372852" points="100.243543 149.448724 100.243543 155.94826 93.8793811 153.980771 93.8793811 149.448724 100.243543 149.448724"></polyline>
                        <polyline id="path88" fill="#372852" points="48.4917136 152.102573 56.0007693 159.167371 52.9965305 163.892948 41.9379566 153.353428 41.9379566 135.760224 49.6285151 126.880462 53.1429659 131.575764 48.4917136 137.580171 48.4917136 152.102573"></polyline>
                        <polyline id="path90" fill="#372852" points="54.9799601 99.5371865 74.8801523 99.5371865 74.8801523 93.0384162 77.8169537 93.0384162 77.8169537 105.097433 55.9745651 105.097433 54.9799601 99.5371865"></polyline>
                        <polyline id="path92" fill="#372852" points="49.0007695 112.140386 41.9495173 112.171811 41.9495173 104.025163 52.994989 93.0384162 54.9799601 99.5371865 49.0007695 105.292496 49.0007695 112.140386"></polyline>
                        <path d="M148.97726,18.4738219 C147.717145,18.4738219 146.695179,19.4893745 146.695179,20.7429497 C146.695179,21.9952985 147.717145,23.0120392 148.97726,23.0120392 C150.237761,23.0120392 151.260112,21.9952985 151.260112,20.7429497 C151.260112,19.4893745 150.237761,18.4738219 148.97726,18.4738219 Z M148.97726,23.6306065 C147.373792,23.6306065 146.072829,22.3387086 146.072829,20.7429497 C146.072829,19.1483405 147.373792,17.8544881 148.97726,17.8544881 C150.581114,17.8544881 151.881306,19.1483405 151.881306,20.7429497 C151.881306,22.3387086 150.581114,23.6306065 148.97726,23.6306065 Z" id="path94" fill="#372852"></path>
                        <path d="M149.185353,21.0534022 L148.406933,21.0534022 L148.406933,21.7739081 L149.185353,21.7739081 C149.384582,21.7739081 149.547202,21.6117645 149.547202,21.4140192 C149.547202,21.2131314 149.384582,21.0534022 149.185353,21.0534022 Z M150.169168,21.4140192 C150.169168,21.9547531 149.728705,22.3920155 149.185353,22.3920155 L147.783811,22.3935101 L147.783811,19.0931174 L148.406933,19.0931174 L148.406933,20.4341067 L148.854332,20.4341067 L149.482848,19.0931174 L150.171095,19.0931174 L149.515989,20.489943 C149.896335,20.6264486 150.169168,20.987832 150.169168,21.4140192 Z" id="path96" fill="#372852"></path>
                    </g>
                </g>
            </g>
        </g>
    </g>
</svg>