<svg width="200" height="200" xmlns="http://www.w3.org/2000/svg"><g fill-rule="nonzero" fill="none"><path d="M153.898 192.89h-1.759v-5.13h-.19l-1.613 3.59h-1.233l-1.63-3.653h-.236v5.192h-1.668v-6.561h2.855l1.323 3.208 1.378-3.208h2.773v6.561Zm-9.37-5.138h-1.877v5.137h-1.767v-5.137h-1.876v-1.424h5.52v1.424Z" fill="#1E513D"/><path d="M198.613 117.046c-25.127 3.124-42.913-5.827-50.795-9.874l-.754-22.807c8.704 3.201 18.792 5.846 18.792 5.846l23.983-97.3S175.985 8.385 136.83 8.385H93.262c-23.022 0-43.132 15.564-48.907 37.85l-4.629 17.867C11.733 65.179 0 84.936 0 84.936s25.985-4.127 65.363 16.407c14.181 7.395 26.971 14.103 38.374 19.331l-6.46 25.7H76.041l5.674-22.605c-29.878-17.31-51.188-21.48-51.188-21.48L4.21 206.374S18.063 190.9 57.217 190.9h45.993c23.246 0 43.517-15.807 49.184-38.351l4.21-16.75c32.408 1.92 38.976-13.466 42.009-18.752" fill="#FFF"/><path d="M179.107 7.766s-10.624 7.247-42.276 7.247H93.466c-20.258 0-37.922 13.774-42.86 33.42l-3.878 15.053c6.522.003 13.246.859 20.143 2.537l11.776-22.228c3.183-7.236 10.876-10.875 17.437-8.031 5.296 2.293 11.911 6.466 20.591 14.055 4.055 3.544 8.448 5.62 13.012 6.579-2.087-3.38-8.838-9.925-12.69-14.098l19.418 8.627c4.882 2.759 7.247 6.054 7.53 11.16l1.043 14.282c5.604 2.278 10.769 4.052 15.515 5.412l18.604-74.015" fill="#1E513D"/><path d="m140.99 104.317-.293-9.526C116.736 78.658 94.13 71.255 79.324 70.587c9.05 3.423 19.02 8.44 29.898 15.571 11.722 7.683 22.291 13.618 31.769 18.159" fill="#448D35"/><path d="M182.464 123.86c-14.647.358-36.745-6.117-75.23-31.341C53.502 57.3 25.727 73.589 18.28 79.226c9.83-.118 29.637 4.206 77.77 30.036a253.672 253.672 0 0 0 15.466 7.654l-6.624 26.354a12.87 12.87 0 0 1-12.481 9.732H67.542l6.505-25.913c-15.189-8.444-28.219-13.52-38.762-16.542l-20.344 80.97s10.624-7.245 42.277-7.245h45.908c20.257 0 37.922-13.774 42.86-33.42l5.514-21.936c14.954 1.577 24.587-1.65 30.964-5.057" fill="#1E513D"/></g></svg>