<svg width="200" height="200" xmlns="http://www.w3.org/2000/svg"><g fill="none"><path d="M150.437 187.808h-1.645v-4.795h-.177l-1.508 3.355h-1.153l-1.525-3.414h-.22v4.854h-1.56v-6.134h2.67l1.236 3 1.29-3h2.592v6.134zm-8.762-4.803h-1.754v4.803h-1.652v-4.803h-1.755v-1.331h5.161v1.331z" fill="#1E513D"/><path d="M192.245 116.903c-23.493 2.921-40.123-5.447-47.493-9.23l-.705-21.322c8.138 2.992 17.57 5.465 17.57 5.465L184.041.852s-12.953 14.466-49.562 14.466H93.742c-21.525 0-40.328 14.55-45.728 35.385l-4.328 16.704C17.512 68.414 6.542 86.884 6.542 86.884s24.296-3.858 61.114 15.339c13.26 6.913 25.219 13.184 35.88 18.072l-6.04 24.027H77.64l5.306-21.133c-27.936-16.183-47.861-20.081-47.861-20.081l-24.608 97.306s12.954-14.466 49.563-14.466h43.003c21.736 0 40.688-14.778 45.987-35.854l3.936-15.66c30.302 1.796 36.444-12.59 39.28-17.53" fill="#FFF"/><path d="M174.007 14.74s-9.933 6.774-39.528 6.774H93.933c-18.942 0-35.457 12.877-40.074 31.244l-3.626 14.073c6.098.003 12.384.803 18.833 2.372l11.01-20.781c2.977-6.764 10.17-10.167 16.305-7.508 4.951 2.144 11.136 6.045 19.252 13.14 3.791 3.313 7.899 5.255 12.166 6.15-1.95-3.16-8.263-9.278-11.864-13.18l18.155 8.066c4.564 2.579 6.776 5.66 7.04 10.433l.976 13.353c5.24 2.129 10.068 3.787 14.506 5.059l17.395-69.195" fill="#1E513D"/><path d="M138.368 105.003l-.274-8.905C115.69 81.015 94.554 74.094 80.71 73.47c8.463 3.2 17.784 7.89 27.955 14.557 10.96 7.183 20.842 12.731 29.703 16.976" fill="#448D35"/><path d="M177.146 123.273c-13.696.335-34.357-5.718-70.34-29.3-50.24-32.925-76.209-17.697-83.173-12.427 9.191-.11 27.71 3.933 72.715 28.08a237.078 237.078 0 0 0 14.46 7.156l-6.193 24.637a12.032 12.032 0 0 1-11.67 9.1H69.694l6.082-24.227c-14.202-7.894-26.385-12.64-36.243-15.464l-19.021 75.697s9.933-6.773 39.529-6.773h42.924c18.94 0 35.457-12.877 40.074-31.245l5.155-20.506c13.982 1.474 22.99-1.543 28.952-4.728" fill="#1E513D"/></g></svg>