<svg width="200" height="200" xmlns="http://www.w3.org/2000/svg"><g fill-rule="nonzero" fill="none"><path d="M199.785 28.49H0l1.187 23.513c.675 13.364 9.207 24.994 21.931 30.206 3.835 7.195 10.208 12.91 17.968 16.111 3.82 7.194 10.175 12.913 17.92 16.126.033.062.07.12.102.18l-5.756 42.717 3.6 1.622c14.442 6.507 28.875 12.349 46.63 12.349 11.616 0 25.645-1.24 41.613-10.439 12.086-7.015 21.885-17.767 27.606-30.286 3.357-7.344 5.046-14.754 5.046-21.8 0-4.74-.813-9.295-2.35-13.572l24.288-66.727" fill="#FFF"/><path d="M143.839 33.787H5.572l.906 17.949C7.095 63.93 15.44 74.06 26.896 77.989c3.36 7.508 9.896 13.379 17.991 16.153 3.359 7.509 9.894 13.379 17.988 16.155a28.785 28.785 0 0 0 1.72 3.272l-5.467 40.567c15.488 6.978 28.454 11.88 44.454 11.88 10.917 0 24.076-1.152 38.969-9.73 22.742-13.2 35.976-40.84 27.312-61.073 6.18-16.984 12.09-33.216 17.893-49.16-14.794-6.617-23.938-12.266-43.917-12.266" fill="#231F20"/><path d="M106.456 126.775c-12.561 0-19.794-8.057-20.353-8.712 6.932 1.7 18.664.65 29.277.65 2.1 1.369 2.723 2.105 2.904 2.399-.12.749-1.883 5.663-11.828 5.663ZM143.84 43.28H15.556c-.505 20.157 11.072 25.638 18.723 26.74 1.654 8.275 9.013 14.86 17.988 16.153 1.655 8.276 9.015 14.861 17.99 16.154.642 3.214 2.141 6.172 4.267 8.665l-5.043 37.397c13.767 6.202 21.932 8.135 34.101 8.135 9.662 0 21.278-1.004 34.204-8.449 21.741-12.619 32.64-38.774 19.294-55.909-8.144-10.453-19.909-12.64-22.999-15.702 2.635-5.21 15.78-6.276 29.526 8.182l12.207-33.536c-9.739-4.355-16.464-7.83-31.975-7.83Z" fill="#B9B7B8"/><path d="M19.425 47.073c-.043 16.583 10.973 18.555 18.048 19.575 1.62 8.105 5.913 14.413 15.334 15.77l2.654.383c1.521 7.602 5.551 14.361 15.337 15.772l2.654.382c1.909 9.548 6.627 13.662 13.555 15.423 5.993 1.47 16.282.542 28.373.542 3.051 0 6.65 3.357 6.65 6.794-.059.361-1.584 8.855-15.574 8.855-14.272 0-22.365-9.017-23.241-10.047 0 0-3.066-3.6-5.31-6.232-.59 4.392-3.684 27.34-4.283 31.78 11.717 5.07 19.069 6.66 29.96 6.66 9.16 0 20.16-.944 32.31-7.942 11.745-6.817 20.433-18.2 22.664-29.704 1.05-5.425 1.13-13.4-4.468-20.587-7.825-10.042-18.701-11.398-22.676-15.338l-1.962-1.943c1.662-3.285 4.48-7.124 9.747-7.898 6.937-1.02 15.18 2.194 22.806 8.645 2.436-6.695 7.429-20.414 9.04-24.837-7.932-3.55-14.241-6.053-27.204-6.053H19.425" fill="#FFF"/><path d="M142.48 65.156c7.143 0 13.103 2.856 17.697 6.712l6.082-16.712c-6.386-2.854-14.437-4.285-22.434-4.285H23.453c.327 6.524 6.597 11.803 14 11.794h72.12a43.65 43.65 0 0 0-4.344 4.371H41.452c.33 6.525 6.597 11.801 14 11.791h42.787a34.617 34.617 0 0 0-1.242 4.373H59.452c.33 6.524 6.599 11.806 14.003 11.793h24.294c.676 1.613 1.588 3.055 2.67 4.372H77.455c.327 6.523 6.598 11.802 14 11.792H117.5c5.814 3.415 9.994 6.952 7.747 13.125-2.912 8-12.402 10.14-18.83 10.14-10.282 0-20.33-4.57-25.936-11.138l-2.773 20.566c7.608 3.426 16.41 5.14 25.835 5.14 10.141 0 19.75-1.284 30.41-7.427 9.597-5.57 16.468-13.852 19.849-23.137 3.324-9.138 1.95-15.568-2.722-21.566-3.893-4.999-9.333-7.712-15.095-10.712-4.453-2.285-11.75-4.999-9.253-11.855 2.443-6.71 10.181-9.137 15.75-9.137" fill="#2F2975"/><path d="M133.51 87.677c-3.468-1.591-9.108-5.805-10.47-11.124-.503 9.704 8.068 12.14 10.836 13.641 8.974 4.379 13.58 7.68 16.497 14.68.44-10.158-15.626-16.488-16.863-17.197M143.825 53.478H26.729a9.307 9.307 0 0 0 1.103 1.944h117.33c6.202 0 12.189.887 17.308 2.524l.481-1.324c-5.489-2.036-12.178-3.144-19.126-3.144M105.674 101.973H80.73a9.343 9.343 0 0 0 1.103 1.943h25.435l-1.594-1.943M114.29 62.001c-5.025 3.992-7.866 7.643-7.866 7.643H44.73a9.345 9.345 0 0 0 1.103 1.943h61.488C111.695 66.302 117.348 62 117.348 62h-3.058M83.884 132.18c7.376 4.774 15.104 6.793 23.87 6.793 8.15 0 18.637-4.598 21.278-11.855 1.688-4.633.382-8.159-1.828-10.813 1.308 2.369 1.796 5.287.49 8.87-3.178 8.74-13.076 11.854-21.278 11.854-8.766 0-17.65-3.203-24.032-8.366l-1.826 13.547c.498.204 1.341.66 1.85.845.39-2.896.906-6.65 1.476-10.875M101.235 78.165c-1.51 3.906-2.123 7.642-2.123 7.642H62.728a9.375 9.375 0 0 0 1.103 1.943h36.868c.913-5.564 2.558-9.585 2.558-9.585h-2.022" fill="#8271B2"/><path d="M185.756 36.173h.559c.61 0 .98-.28.98-.8 0-.496-.332-.813-.953-.813h-.586v1.613Zm.522.724h-.522v1.917h-.85v-5.003h1.461c1.079 0 1.79.572 1.79 1.537 0 .711-.395 1.18-.978 1.41l1.55 2.056h-1.068l-1.383-1.917Zm.177-4.584c-2.184 0-3.835 1.46-3.835 4.088 0 2.63 1.677 4.09 3.835 4.09 2.172 0 3.822-1.46 3.822-4.09 0-2.628-1.676-4.088-3.822-4.088Zm-.013 8.634c-2.601 0-4.38-1.828-4.38-4.533 0-2.717 1.803-4.558 4.393-4.558 2.603 0 4.382 1.828 4.382 4.533s-1.804 4.558-4.395 4.558Z" fill="#231F20"/></g></svg>