<svg width="200" height="200" xmlns="http://www.w3.org/2000/svg"><g fill="none"><path fill="#FFF" d="M66.78 131.965l-2.803.04.007.586 1.067-.014.045 3.343.671-.01-.045-3.343 1.068-.017-.01-.585m3.483-.047l-.836 2.826-.985-2.8-.91.014.055 3.927.595-.01-.044-3.24 1.125 3.227.346-.003.98-3.26.045 3.246.615-.01-.054-3.929-.932.012"/><path d="M198.113 126.641c-1.666-1.68-5.295-4.167-7.272-5.924-1.979-1.758-5.351-5.503-5.413-5.565-.39-.423-1.41-2.023-2.134-3.355 0 0-.423-.774-.532-.977 0-.017.395-2.71.395-2.71s-1.68-2.095-1.693-2.107l3.796-1.774-.79-4.303a114.56 114.56 0 0 0-1.398-6.416h.1a158.821 158.821 0 0 0-1.133-3.84c-.749-2.556-1.645-5.173-2.676-7.383-.088-.192-.171-.358-.256-.533-.068-.139-.132-.28-.2-.41.56-3.882.879-7.481.879-10.676 0-13.183-4.216-20.83-8.02-25.742a39.858 39.858 0 0 0-3.915-4.587l-8.591-9.662-1.134 13.109c-.495 5.871-1.96 10.839-3.322 14.003-3.93-2.122-10.351-2.752-16.046-2.821a117.212 117.212 0 0 0-9.562-.43l-2.62-.006c-6.12-16.155-23.695-26.413-23.695-26.413s2.7 15.35-3.047 30.955c-26.63 1.217-39.595 7.321-39.595 7.321s5.97 4.976 8.837 6.403c-38.193 6.94-62.097 35.319-62.097 35.319l12.088-.546C4.575 119.769 0 132.73 0 132.73s8.03-4.888 11.26-5.685c-9 11.991-9.536 23.485-9.536 23.485s36.783-26.188 75.675-21.994l-5.756 18.047 14.523-5.847c-1.427 2.696-11.428 25.749-11.428 25.749 22.857-16.76 53.838-19.1 61.97-10.88l2.031 2.107c5.854 6.138 13.872 14.546 24.592 14.208 9.89-.307 18.358-8.978 20.227-17.045 2.29-2.769 4.795-5.969 6.374-8.498 7.499-3.319 9.753-11.42 9.824-15.655l.041-2.388-1.684-1.694" fill="#971A1F"/><path d="M189.089 126.464l-1.822 3.146.157-4.382c-1.29-.976-4.047-3.818-4.047-3.818l-1.7 2.74-.26-5.001c-1.227-1.21-3.094-4.643-3.094-4.643l-2.368 3.74 1.246-8.517-4.653-5.815 6.352-2.961s-2.525-13.703-5.845-18.455c4.155-24.62-4.638-32.946-9.287-38.231-.58 6.822-2.492 13.626-4.76 17.847l-.109.197c2.16 1.675 5.007 4.94 6.715 11.103 0 0-3.672-6.885-14.692-10.644l-.136-.04c-7.14-2.107-17.595-2.461-20.7-2.521l-1.311-.025c4.05 2.79 11.463 8.29 13.728 12.614 0 0-6.782-3.152-16.45-4.983a34 34 0 0 0-.993-.094c-5.77-20.478-15.698-25.968-15.698-25.968s-1.58 17.381-3.796 24.528c0 0-18.317-1.88-31.892 2.247l12.672 7.925s-34.872 1.768-61.364 26.128l9.662.629s-11.143 7.424-17.963 16.225l10.124-2.496s-9.744 10.808-14.114 19.82c0 0 36.781-21.333 74.07-13.51-2.066 3.545-3.828 7.623-4.79 12.152 0 0 7.428-4.26 14.51-7.215-1.874 4.919-6.881 18.095-9.884 26.386.298.141 36.835-20.434 54.136-2.947 5.363 5.42 13.068 14.93 22.422 14.637 7.745-.24 14.675-7.959 15.176-13.96 0 0 6.745-8.027 7.647-10.471 7.957-1.98 8.119-11.202 8.119-11.202s-3.446-3.47-5.008-4.165" fill="#16243E"/><path d="M172.423 139.554c-3.81-.839-7.993-4.456-12.672-13.031-4.697-8.594-11.155-11.168-15.404-10.917-20.292 1.195-20.742 12.87-20.742 12.87s7.443-.1 10.92 1.341c3.47 1.44 9.939 5.224 13.7 10.404 3.753 5.169 11.32 11.977 13.08 13.383 2.684 2.144 10.096 2.943 10.096 2.943-4.611 8.945-18.347 5.197-23.814-3.894-5.131-8.53-11.18-10.819-15.237-12.685-14.953-6.893-36.968 6.954-36.968 6.954l19.882-20.24-13.138 3.195 8.521-11.361c.594.26-.712-.983-9.585 1.774 12.07-17.045 35.188-18.158 35.188-18.158-11.06 4.456-14.925 10.562-14.925 10.562s9.698-2.402 15.785-3.372c6.163-.986 13.286 2.93 17.67 6.434.732-3.27 3.837-6.1 6.576-6.445 2.727-.344 6.892 1.649 8.22 3.6l-7.63-1.753 2.638 4.558c1.436.749 9.201 4.019 9.201 4.019-1.207.174-7.356-1.223-7.356-1.223.902 1.684 2.99 3.77 2.99 3.77.885.137 8.938 3.115 8.938 3.115l-6.775-.646a20.007 20.007 0 0 0 2.082 2.643l10.039 3.05-6.65.06s-1.206 3.728-.706 4.948c.942 2.315 5.288 2.996 5.288 2.996a112.845 112.845 0 0 0-1.362-3.349c1.97.03 3.19.349 3.19.349.925.68.872 2.69.68 4.154-3.634 1.381-8.365.686-11.72-.048" fill="#B3B5B7"/><path d="M141.487 118.77l1.347 3.87 7.205-2.225c-1.046-.564-3.636-2.196-8.552-1.645m10.384 2.676l-.115 6.322 5.142-.023s-3.359-5.292-5.002-6.044m6.043 7.994l-.393 5.283 4.362.67s-2.484-3.115-3.97-5.953m-27.582-3.756c3.47.047 8.216 2.223 8.216 2.223l-1.488-4.367-8.038 2.172 1.31-.028m9.984 3.239l6.063-.785-.118 5.5s-3.407-3.743-5.945-4.715m7.217 6.132l4.663-.388-.556 5.742s-3.745-4.442-4.107-5.354m5.016 6.408l5.186.816s-.51 3.178-.628 3.943c-.56-.563-3.801-3.991-4.228-4.442m12.205-2.768c1.68 2.182 4.92 2.771 4.92 2.771-1.097 2.206-6.153 6.989-11.209 6.383 0 0 4.84-4.045 6.29-9.154m-3.909 11.398c5.325-.517 9.448-3.206 9.448-3.206s-1.79 3.837-3.478 5.446c-3.263.153-5.97-2.24-5.97-2.24m7.902 2.945s5.207-3.145 6.99-6.11c.108 3.361-3.124 6.768-3.124 6.768s-3.168-.41-3.866-.659m3.166-5.736c3.06-1.34 4.67-5.343 4.67-5.343s-2.928.113-4.087-.15c0 0 .19 3.441-.583 5.493m6.226-5.366s.494 3.136-.728 5.882c3.03-2.01 5.348-6.323 5.348-6.323s-2.566.96-4.62.441" fill="#FFF"/><path d="M138.815 121.772l1.293 5.361 7.792-1.236.696 6.984 6.034-.747-.522 7.075 5.756.47-.458 4.864c2.445-2.316 3.17-7.21 3.17-7.21l-6.498-1.017.19-6.934-6.222.909.012-7.857-8.712 2.222-1.865-5.58c-5.877.973-9.595 4.86-9.595 4.86l8.93-2.164" fill="#971A1F"/><path d="M112.194 84.47l4.35-3.88 4.202 5.697s.796-16.737-7.555-31.601c.118 3.227-3.06 20.675-8.467 29.047l4.98-2.913 2.49 3.65" fill="#FFF"/><path d="M151.267 83.942l7.836 10.13 1.612 6.282 5.754 5.383-8.271-1.784-2.2-5.53-13.006-4.587 4.05 4.644s-2.056 7.702 7.532 9.273c0 0-12.31 2.501-13.176-10.408l-7.533-9.892 20.725 6.523-3.323-10.034" fill="#B3B5B7"/><path d="M150.778 99.304c-.638.8-1.05 2.165-.828 3.404.264 1.436 1.68 2.832 3.447 2.595.94-.13 1.409-.301 1.851-.93l-.946-3.68-3.524-1.389" fill="#971A1F"/><path d="M93.31 102.718s10.946-7.28 27.882-9.926c0 0-36.42-12.97-73.968 5.828 14.546-3.702 31.61-2.194 31.61-2.194-27.356 7.163-52.328 28.322-52.328 28.322 38.837-13.603 63.485-7.283 63.485-7.283 5.938-9.361 13.343-11.525 13.343-11.525s-.998-.424-2.754-.885l-7.27-2.337" fill="#B3B5B7"/><path d="M121.192 92.792s-49.041 3.346-74.87 23.545c0 0 22.444-10.467 40.456-2.79 0 0-4.932-3.246-10.989-6.136 14.698-6.93 27.545-1.471 27.545-1.471l-10.024-3.222s10.946-7.28 27.882-9.926" fill="#FFF"/></g></svg>