<svg width="200" height="200" xmlns="http://www.w3.org/2000/svg"><g fill="none"><path d="M168.031 106.106c-.729-.738-24.277-24.57-25.018-25.316H77.64V44.423h43.47v20.733l46.92-.003V30.958c-.777-.74-26.208-25.151-26.94-25.856h-84.7c-.735.733-25.319 25.107-26.064 25.85v62.72l25.012 25.315h65.773v36.368h-43.47v-20.733l-47.315.003v34.202c.741.741 25.33 25.117 26.064 25.845h84.7c.732-.699 26.163-25.113 26.94-25.858v-62.708" fill="#F46A25"/><path d="M168.031 168.814c-.777.745-26.208 25.16-26.94 25.858h-84.7c-.735-.728-25.323-25.104-26.064-25.845v-34.202l47.314-.003v20.733h43.47v-36.368H55.34L30.327 93.673V30.952c.745-.743 25.33-25.117 26.064-25.85h84.7c.732.705 26.163 25.117 26.94 25.856v34.195l-46.92.003V44.423h-43.47V80.79h65.372c.741.745 24.29 24.578 25.018 25.316v62.708zm3.947-99.715V29.278L142.676 1.155H54.764l-28.39 28.148v65.991l27.315 27.643h63.472v28.471H81.59v-20.737l-55.217.007v39.798l28.39 28.15h87.912l29.302-28.13v-66.014L144.666 76.84H81.59V48.369h35.57v20.736l54.817-.006zm-6.071 125.599c-.208-.111-.54-.167-.998-.167h-.703v1.644h.744c.347 0 .61-.036.783-.103.32-.126.482-.36.482-.71 0-.33-.103-.548-.308-.664zm-.877-.738c.575 0 .992.058 1.262.167.475.2.713.584.713 1.162 0 .41-.149.712-.45.904-.16.1-.382.174-.667.22.358.057.622.207.789.449.167.243.247.481.247.711v.335c0 .109.003.22.013.34a.8.8 0 0 0 .042.243l.026.055h-.752l-.01-.046c-.002-.015-.01-.034-.012-.05l-.016-.148v-.363c0-.53-.148-.879-.443-1.052-.173-.096-.478-.148-.914-.148h-.652v1.807h-.79v-4.586h1.614zm-2.483-.234c-.706.703-1.056 1.553-1.056 2.55 0 1.003.35 1.862 1.05 2.568.702.706 1.558 1.06 2.567 1.06 1.004 0 1.861-.354 2.563-1.06a3.502 3.502 0 0 0 1.06-2.567c0-.998-.354-1.848-1.06-2.551-.706-.709-1.559-1.062-2.563-1.062a3.49 3.49 0 0 0-2.561 1.062zm5.523 5.516c-.819.822-1.807 1.233-2.97 1.233-1.16 0-2.146-.41-2.96-1.233-.812-.818-1.22-1.81-1.22-2.971 0-1.152.41-2.138 1.229-2.953.815-.814 1.8-1.223 2.952-1.223 1.162 0 2.15.409 2.969 1.223.821.812 1.229 1.798 1.229 2.953 0 1.158-.408 2.15-1.23 2.97z" fill="#0E2B58"/></g></svg>