<svg width="200" height="200" xmlns="http://www.w3.org/2000/svg" xmlns:xlink="http://www.w3.org/1999/xlink"><defs><path id="a" d="M0 1.286h200v187.931H0z"/></defs><g fill="none" fill-rule="evenodd"><g transform="translate(0 5.498)"><mask id="b" fill="#fff"><use xlink:href="#a"/></mask><path d="M199.168 95.324c-1.217-1.976-2.814-5.426-3.27-7.555-.294-1.388-.624-1.914-1.094-2.557-.308-.428-.66-.907-1.178-2.243-1.06-2.73-1.27-5.359-1.288-5.615l-.512-27.609-.008-.551-.43-.342c-.059-.048-1.47-1.158-3.89-1.831-1.027-.284-1.938-.323-2.824-.356-.99-.04-1.923-.076-2.95-.49-1.83-.735-3.373-.946-4.856-1.152-.461-.064-.933-.128-1.42-.206l-.636-.103c-2.044-.34-5.463-.904-7.53-1.645-1.445-.514-2.558-.879-3.728-.879-.841 0-1.694.19-2.672.601-1.564.651-2.897 1.044-3.567 1.044a.707.707 0 0 1-.116-.009 1.806 1.806 0 0 0-.75-.153c-.4 0-.84.109-1.303.22-.461.114-.983.24-1.408.24-.423 0-.528-.123-.576-.176-.933-1.068-2.3-1.216-3.636-1.216-.355 0-.733.011-1.127.022-.425.014-.875.025-1.345.025-.68 0-1.264-.025-1.828-.083a13.435 13.435 0 0 0-1.302-.064c-1.267 0-2.353.184-3.23.331-.618.106-1.156.192-1.581.192-.259 0-.453-.03-.612-.1-.622-.278-1.255-.434-1.814-.568-1.005-.245-1.591-.412-1.994-.946-1.003-1.341-3.322-2.732-5.458-2.732-.628 0-1.206.12-1.725.356a.651.651 0 0 1-.273.053c-.572 0-1.433-.496-2.266-.977-1.08-.623-2.2-1.269-3.417-1.36-1.091-.087-1.836-.844-2.7-1.718-.447-.453-.91-.926-1.45-1.31-.855-.615-1.883-.768-3.303-.977-.127-.02-.26-.042-.397-.061V1.286h-59.2v70.497H0l.447 1.5c.086.29 2.133 7.13 5.37 11.373.69.907 2.21 3.917 3.219 5.91.51 1.01.953 1.88 1.23 2.382.456.82 1.775 2.204 3.892 4.39 1.817 1.876 3.875 4.002 4.525 5.062 1.425 2.315 2.925 3.86 4.728 4.861 1.136.632 3.041 3.732 3.686 5.674.294.89.739 1.572 1.13 2.17.62.952 1.028 1.576.867 2.78-.317 2.39 2.395 5.235 5.703 8.435.636.617 1.183 1.146 1.533 1.533 1.733 1.906 4.786 4.471 7.395 5.593.358.153.725.306 1.091.459 1.875.79 4.006 1.683 4.861 2.54.911.913 2.064 1.364 3.084 1.762.533.209 1.036.403 1.389.623.338.217.713.529 1.075.824.894.732 1.816 1.489 2.9 1.489.483 0 .95-.16 1.347-.465a.772.772 0 0 0 .103-.073c.658-.39 1.255-.806 1.802-1.23.495-.308.959-.575 1.395-.823.72-.412 1.4-.793 2.039-1.275 1.002-.754 1.733-2.153 2.377-3.386.356-.682.762-1.455 1.045-1.747.661-.68 1.2-1.737 1.767-2.85.56-1.102 1.258-2.468 1.864-2.869.58-.375 1.066-.665 1.591-.665.486 0 1.009.26 1.595.799 1.177 1.082 1.633 1.283 2.27 1.347.06.008.224.027.932.559 1.84 1.383 4.942 5.192 5.717 7.343 1.078 3.005 5.053 7.469 6.247 8.765.467.507.978 1.03 1.517 1.584 1.786 1.83 3.808 3.907 4.786 5.99.172.362.33.705.478 1.028 1.07 2.32 1.775 3.848 3.528 5.078.147.106.286.2.416.286 1.198.824 1.325.908 1.714 3.387.27 1.7.917 2.774 1.44 3.637.557.92.921 1.527.785 2.716-.317 2.66 2.045 4.774 3.456 6.04.286.257.672.607.794.755.603 1.324 3.803 3.856 5.325 4.772.428.259.895.554 1.384.862 1.486.938 3.166 2.001 4.786 2.675.627.264 1.16.45 1.63.617 1.033.365 1.603.562 2.256 1.222 1.18 1.182 2.866 1.89 4.516 1.89.759 0 1.495-.148 2.186-.438.159-.066.32-.097.498-.097.833 0 1.844.693 2.66 1.252.504.342.934.635 1.362.818.789.337 1.736.365 2.72.365l.405-.003h.42c.702 0 1.45.014 2.144.13.3.054.625.079.958.079 1.584 0 3.258-.56 4.609-1.008.45-.15.875-.292 1.202-.378 4.742-1.255 6.325-3.437 6.49-3.679l.36-.537-.26-.592c-.006-.017-.768-1.75-1.39-3.83-.291-.957-.42-1.747-.541-2.51-.167-1.07-.33-2.075-.875-3.28-1.136-2.496-2.856-7.822-2.236-9.558.344-.971.588-2.143.847-3.387.389-1.889.836-4.034 1.691-5.473 1.445-2.404 4.498-4.75 5.067-4.98.636-.26 1.192-.96 2.292-2.394.67-.874 1.916-2.501 2.41-2.705.904-.225 1.5-.773 2.079-1.305.57-.52 1.208-1.11 2.405-1.67 2.67-1.251 5.311-3.683 6.653-5.022 2.772-2.78 5.189-4.563 5.842-4.619 1.241 0 2.55-1.057 4.55-2.805.827-.718 1.76-1.536 2.23-1.745.611-.272 1.47-.776 2.461-1.369 1.295-.765 3.459-2.048 4.2-2.131 2.145-.237 2.417-1.038 2.561-2.947l.042-.509c.142-1.73.847-2.721 1.658-3.865.773-1.08.595-2.863.387-4.928-.112-1.124-.228-2.282-.167-3.206.089-1.327.697-2.504 1.289-3.64.41-.79.836-1.608 1.066-2.456.503-1.856 1.345-4.959-.133-7.366" fill="#5A2B81" mask="url(#b)"/></g><path fill="#FEFEFE" d="m105.898 13.747 5.756-5.796H55.718l5.464 5.796zM106.688 14.613v29.88c.808.576 2.48 1.655 3.402 1.758.278.03.603.042.947.056 1.453.05 3.445.125 3.937 1.767.327 1.096 2.786 1.93 4.972 2.1.858.065 1.844.404 2.794.73 1.395.475 2.884.926 3.664.578 1.836-.837 4.1-.258 5.25 1.28.492.654 1.242.838 2.111 1.05.514.125 1.048.255 1.58.495 1.243.55 4.431.87 7.248 1.152l.572.055c.534.053 1.08.078 1.722.078.44 0 .856-.01 1.245-.022.361-.011.703-.02 1.022-.02 1.036 0 2.209.073 2.975.95.125.141.35.325.895.325.447 0 .958-.122 1.41-.23.676-.165 1.217-.265 1.592-.079.006.006.078.036.284.036.689 0 1.952-.364 3.46-.996.476-.195.79-.373 1.045-.515.386-.217.72-.406 1.217-.406.403 0 .864.117 1.767.443.947.333 2.222.378 3.222.378.472 0 .944-.011 1.4-.022.442-.009.872-.02 1.278-.02.733 0 1.252.034 1.683.106 2.18.365 4.644.89 6.275 2.518 1.133 1.138 2.02 1.25 3.355 1.422.323.04.664.084 1.028.145a17.304 17.304 0 0 1 1.178.236c.583.137 1.083.287 1.503.437.058.02.108.04.16.059.176.064.343.13.49.192l.186.083.23.106.217.111 6.153-5.904c-.13-.081-.286-.17-.458-.268l-.159-.08a10.665 10.665 0 0 0-.436-.217c-.075-.037-.158-.073-.239-.109a14.28 14.28 0 0 0-.522-.217c-.086-.03-.17-.067-.261-.097-.28-.103-.578-.2-.897-.292-2.04-.565-3.722-.012-5.9-.888-2.24-.899-3.978-.946-6.028-1.288-2.05-.343-5.978-.941-8.367-1.798-1.402-.5-2.366-.815-3.336-.815-.686 0-1.372.155-2.222.512-1.611.673-3.117 1.132-4.017 1.132-.247 0-.45-.033-.591-.106a.631.631 0 0 0-.275-.05c-.603 0-1.712.457-2.712.457-.552 0-1.072-.14-1.455-.576-.6-.685-1.539-.813-2.756-.813-.733-.003-1.56.045-2.472.045-.608 0-1.26-.02-1.947-.09a11.686 11.686 0 0 0-1.183-.058c-2.061 0-3.6.526-4.811.526-.395 0-.753-.056-1.084-.206-1.539-.682-3.247-.512-4.267-1.878-.822-1.09-2.805-2.265-4.527-2.265-.436 0-.859.078-1.242.25a1.833 1.833 0 0 1-.755.159c-1.748 0-3.84-2.193-5.778-2.343-2.214-.173-3.28-2.201-4.734-3.242-.836-.595-2.097-.629-4.189-.99V8.722l-5.85 5.89ZM54.819 78.448H1.639l10.085 5.616h49.422zM198.173 107.88c.51-1.883 1.194-4.504 0-6.444-1.198-1.942-2.903-5.532-3.414-7.928-.514-2.393-1.03-1.538-2.223-4.619-1.197-3.077-1.366-5.988-1.366-5.988l-.497-26.852-5.909 5.67.47 22.162c.002.002.163 2.599 1.213 5.298.498 1.285.859 1.778 1.142 2.17.35.479.653.893.922 2.16.436 2.03 1.9 5.203 3.064 7.092 1.248 2.026.536 4.644.064 6.378-.197.726-.555 1.42-.933 2.151-.57 1.094-1.153 2.218-1.24 3.542-.06.89.05 1.979.156 3.03.178 1.79.337 3.342-.263 4.177-.756 1.063-1.473 2.07-1.62 3.796a6.342 6.342 0 0 1-.097.704c-.014.072-.036.139-.053.208a2.154 2.154 0 0 1-.105.351 1.719 1.719 0 0 1-.084.209 2.474 2.474 0 0 1-.122.225c-.042.064-.078.128-.12.187-.041.05-.085.094-.133.139-.214.217-.47.367-.764.464-.02.009-.038.014-.055.023-.117.036-.24.07-.367.094l7.386 2.132a.954.954 0 0 0 .206-.109.583.583 0 0 0 .075-.067.543.543 0 0 0 .089-.105c.016-.028.039-.056.055-.092a.906.906 0 0 0 .061-.167c.014-.053.028-.106.04-.162a4.124 4.124 0 0 0 .069-.473c.005-.08.014-.172.02-.27.013-.155.027-.333.044-.523.005-.083.014-.167.02-.258.168-2.054 1.024-3.253 1.877-4.45.853-1.196-.17-4.964 0-7.53.17-2.562 1.878-4.443 2.392-6.324"/><path d="M186.576 123.579c.172-2.048 1.014-3.233 1.833-4.374.342-.484.19-2.026.05-3.39-.108-1.096-.225-2.234-.158-3.222.103-1.566.772-2.86 1.367-4.004.35-.673.68-1.313.847-1.92.416-1.539 1.047-3.86.064-5.454-1.025-1.67-2.7-5.086-3.209-7.463-.22-1.021-.408-1.283-.725-1.714-.328-.448-.73-1.007-1.283-2.435-1.12-2.88-1.286-5.562-1.294-5.676l-.464-21.991c-.467-.262-1.664-.832-3.753-1.177-.35-.059-.678-.1-.983-.137-1.406-.18-2.623-.336-4.04-1.755-1.383-1.386-3.636-1.86-5.636-2.193-.36-.058-.838-.09-1.494-.09-.394 0-.817.012-1.25.02-.467.012-.947.023-1.428.023-1.091 0-2.497-.053-3.614-.451-.733-.262-1.133-.367-1.375-.367-.183 0-.3.06-.647.256-.266.147-.628.35-1.16.57-.97.406-2.768 1.088-3.915 1.088-.325 0-.589-.053-.803-.159-.163.014-.486.092-.797.165-.517.128-1.1.27-1.686.27-.753 0-1.35-.245-1.775-.73-.347-.4-.917-.548-2.092-.548-.314 0-.641.011-.991.02-.403.008-.83.022-1.278.022-.67 0-1.272-.025-1.842-.083l-.57-.056c-3.044-.306-6.19-.62-7.602-1.25-.439-.194-.92-.314-1.383-.425-.998-.242-2.028-.496-2.764-1.483-.825-1.102-2.503-1.53-3.842-.921-.355.16-.77.244-1.225.244-1.025 0-2.18-.397-3.297-.779-.922-.314-1.794-.615-2.506-.67-1.95-.15-5.405-.938-6.002-2.928-.234-.779-1.38-.884-2.859-.937-.375-.011-.73-.028-1.036-.062-1.525-.17-3.936-1.953-4.205-2.153l-.234-.176V14.918h-43.2v70.314H13.63c.452 1.166 1.458 3.417 2.944 5.014 1.122 1.205 2.561 3.807 3.42 5.36l.141.255c.325.582 1.967 2.126 3.558 3.618 2.012 1.892 4.09 3.845 4.795 4.997 1.275 2.07 2.1 3.178 3.353 3.877 1.47.818 2.505 3.433 3.408 6.135.203.612.52 1.1.853 1.611.63.966 1.28 1.962 1.053 3.679-.234 1.74 2.425 4.541 4.008 6.214.3.314.575.603.803.854 1.55 1.706 4.041 3.829 6.125 4.722l.997.42c1.955.82 3.975 1.675 4.989 2.688 1.242 1.247 2.55 1.992 3.433 1.876 1.022-.128 3.986-2.151 4.709-3.882.23-.554.447-1.241.68-1.965.567-1.789 1.153-3.64 2.175-4.405.3-.228.603-.481.903-.74 1.008-.851 2.053-1.73 3.208-1.73.297 0 .922-.092 1.65-.2 1.236-.182 2.778-.41 4.12-.41 1.189 0 2.025.184 2.56.56.562.394.976.436 1.495.495.75.08 1.6.172 2.797 1.274.912.838 1.373 1.47 1.778 2.029.45.62.84 1.157 1.784 1.861 1.88 1.414 6.277 6.158 7.136 8.551.338.94 1.197 1.887 1.213 2.805.023 1.369.887 2.552 1.884 3.634.628.682.666 1.43 1.603 2.226 1.814 1.542 3.027 3.286 3.902 5.148.892 1.895 2.956 3.125 4.614 4.11.498.298.967.579 1.347.846l.176.122c1.569 1.091 1.788 1.35 2.26 4.347.198 1.24.653 2.003 1.098 2.738.56.93 1.142 1.886.942 3.545-.231 1.973.669 3.681 1.205 4.705.144.276.258.498.325.665.367.91 1.408 2.841 2.736 3.64.55.331 1.245.804 1.975 1.308 1.42.976 3.033 2.087 4.225 2.582 1.903.796 2.911 1.594 4.106 2.797 1.3 1.299 2.258 1.53 3.594.968.672-.276 1.311-.415 1.953-.415 1.033 0 1.842.354 2.555.663l.181.077c.383.162.77.387 1.18.624.817.481 1.745 1.018 2.917 1.216 2.3.38 3.675.378 4.734.022 1.23-.412 2.027-1.04 2.372-1.358-.272-1.196-1.3-5.504-2.317-7.029-.794-1.196-.864-2.293-.922-3.264-.044-.693-.08-1.347-.378-2.003-.875-1.923-.658-7.789.136-10.015.761-2.137 2.498-5.969 3.972-8.431 1.487-2.482 4.559-4.906 5.459-5.265.217-.122.883-1.013 1.367-1.658 1.288-1.72 2.197-2.86 3.055-3.078.539-.136 1.094-.512 1.792-.988.72-.484 1.61-1.088 2.808-1.647 2.214-1.035 4.48-3.125 5.636-4.28 1.417-1.419 4.886-4.725 6.528-4.725.608 0 2.103-1.302 3.094-2.164.967-.846 1.806-1.575 2.47-1.868.467-.211 1.253-.673 2.083-1.165.292-.176.57-.334.834-.493l.01-.008c.026-.014.048-.025.07-.04l.128-.072c.1-.055.189-.108.278-.161.036-.017.07-.036.102-.056l.228-.13.014-.009s.003-.003.006-.003l.01-.005c.004-.003.006-.006.01-.006l.152-.083.005-.003c.003-.003.003-.003.006-.003l.008-.008c-.002.003-.005.005-.008.005.086-.047.164-.086.247-.13-.067.036-.133.07-.203.105.209-.114.411-.22.6-.32a.596.596 0 0 0 .073-.039h-.003c.017-.008.03-.01.047-.019.22-.111.433-.217.63-.306.223-.097.423-.17.615-.237.044-.014.086-.027.13-.039.186-.06.367-.105.525-.122 1.256-.136 1.553-.17 1.678-1.664" fill="#FEFEFE"/><path fill="#5A2B81" d="M40.501 30.514V78.43h37.883V67.74h11.809v67.397h-10.47v37.652h58.842v-37.735h-10.478V67.74h11.903v10.793h39.114v-48.02z"/><path fill="#FEFEFE" d="M130.88 165.092H87.406v-22.258h10.472V60.041H70.696v10.79H48.185V38.215H170.51L177 31.686H41.535l5.483 5.367v34.95h24.847V61.21H96.71v80.454l-5.35-5.36H80.89l5.35 5.36v24.598h45.809l5.347 5.36v-34.469l-6.517 6.448z"/><path fill="#FEFEFE" d="m127.817 136.226-6.586 6.528h8.63l6.595-6.528zM171.417 39.171v31.66h-23.744v-10.79h-27.27v81.678l6.495-6.425.02-67.729-5.348-6.355h24.936v10.793h26.08l5.35 5.36V32.62z"/><path fill="#5A2B81" d="M158.066 184.408h1.669v5.047h.603v-5.047h1.758v-.607h-4.03zM166.77 183.802l-1.447 4.602-1.447-4.602h-.972v5.654h.605v-4.8l1.512 4.8h.605l1.511-4.8v4.8h.606v-5.654z"/></g></svg>