<svg width="200" height="200" xmlns="http://www.w3.org/2000/svg"><g fill="#393563"><path d="M187.387 138.226c.515 0 .972.04.972.582 0 .582-.797.485-1.38.485h-.66v-1.067h1.068zm.447 1.688c.57-.019 1.144-.33 1.144-1.174 0-.903-.7-1.135-1.475-1.135h-1.805v4.289h.62v-1.98h.798l1.095 1.98h.709l-1.086-1.98zm-.66 3.62a3.79 3.79 0 0 0 3.822-3.813 3.79 3.79 0 0 0-3.822-3.814 3.791 3.791 0 0 0-3.824 3.814 3.791 3.791 0 0 0 3.824 3.813zm0-7.007a3.187 3.187 0 0 1 3.203 3.194 3.192 3.192 0 0 1-3.203 3.192 3.191 3.191 0 0 1-3.203-3.192 3.186 3.186 0 0 1 3.203-3.194zM3.542 74.08v26.16l.322-.154c1.649-.779 6.208-2.866 12.911-5.44l.148-.053v-11.06l.452-.163a293.66 293.66 0 0 1 8.133-2.84l.901-.3v44.994l-.43.173a234.09 234.09 0 0 0-7.763 3.262l-.132.057v15.364l.303-.147a236.707 236.707 0 0 1 29.39-11.76l.162-.05v-14.237l-.283.085a217.95 217.95 0 0 0-7.272 2.237l-.9.291V76.391L40 76.26c3.215-.828 5.84-1.46 8.256-1.99l.835-.18v10.757l.282-.066c4.134-.94 8.072-1.725 11.706-2.324l.18-.03V58.334l-.261.034C29.74 62.55 4.723 73.554 3.676 74.02l-.134.06M109.68 56.833c-3.588-.369-7.555-.557-11.815-.557-6.099 0-10.782.38-11.66.456l-.092.006L71.91 71.366v40.903l13.328 14.122.102-.008c.56-.047 5.639-.457 12.254-.457 4.428 0 8.49.182 12.075.55l.116.017 13.874-14.231V101.35l-13.082-1.477v6.462l-.2.2c-.44.443-5.14 5.13-5.647 5.628l-.214.212-.3-.017c-2.017-.1-4.148-.15-6.333-.15-3.008 0-5.587.097-7.219.176l-.315.015-1.2-1.26a1083.37 1083.37 0 0 0-3.681-3.87l-.195-.2V76.892l.193-.201c.178-.186 1.122-1.159 2.229-2.303 1.717-1.772 3.834-3.958 4.1-4.241l.195-.202.28-.01c3.815-.138 7.57-.138 11.055 0l.265.01.189.186c.436.431 6.131 6.078 6.601 6.55l.197.202v5.816l13.082 1.31V71.362l-13.91-14.527-.068-.002m61.675 10.127l-.294-.085v14.338l4.713 1.565.463.157v37.442l-.233.202c-.53.466-5.199 4.525-5.873 5.114l-.311.268-.383-.145a4992.11 4992.11 0 0 0-10.618-3.978l-.218-.081-.124-.202c-.34-.548-4.85-8.068-5.08-8.471l-.091-.16V76.231l.86.224c.605.157 4.02 1.02 5.64 1.43v-14.07l-.149-.036c-11.951-2.963-21.851-4.511-25.555-5.041l-.265-.04v13.817l.204.028c.748.085 2.438.334 4.896.766l.567.1v42.475l10.622 17.606.075.023c1.824.509 11.392 3.312 21.285 8.284l.128.065 17.758-15.353V88.172l.969.438a123.73 123.73 0 0 1 5.888 2.847l.33.167V76.656l-.128-.06c-7.079-3.523-15.514-6.764-25.076-9.636"/><path d="M62.633 83.587l-1.33.223a195.59 195.59 0 0 0-11.623 2.31l-1.962.446v-10.77c-2.04.457-4.255.992-6.86 1.66v41.154c2.157-.692 4.31-1.35 6.412-1.959l2.04-.604v17.106l-1.128.33a236.457 236.457 0 0 0-29.195 11.683l-2.277 1.116v-18.46l.95-.42a247.256 247.256 0 0 1 7.377-3.104V82.135a296.8 296.8 0 0 0-6.74 2.362v11.06l-1.041.374c-6.65 2.551-11.173 4.623-12.807 5.398l-2.28 1.071V73.198l.94-.428c1.065-.473 26.257-11.554 57.708-15.761l1.816-.24v26.818zm-1.03-28.637l-1.038.138C28.842 59.33 3.397 70.521 2.329 70.994l-.562.258-1.537.696v33.505l3.739-1.759 1.304-.612c1.62-.765 6.088-2.811 12.664-5.337l.565-.201 1.732-.626v-11.06c.99-.356 1.944-.694 2.865-1.012v38.144c-2.232.914-8.325 3.572-8.325 3.572v22.824l3.776-1.848 1.294-.634a233.965 233.965 0 0 1 28.92-11.573l.603-.176 1.882-.554V113.45s-7.133 2.111-8.453 2.52V78.964c1.047-.264 2.036-.507 2.984-.73V89l3.208-.734 1.123-.258c4.059-.925 7.93-1.694 11.507-2.286l.763-.126 2.19-.368V54.559l-2.968.39zm63.428 30.574l-15.826-1.58V77.45c-1.028-1.024-5.204-5.165-6.201-6.154-3.293-.122-6.818-.12-10.408 0-.621.646-2.42 2.504-3.917 4.047-.885.916-1.666 1.722-2.033 2.1v29.073c.628.651 2.367 2.484 3.5 3.677l.763.807c1.656-.08 4.123-.164 6.973-.164 2.099 0 4.15.048 6.1.138.954-.945 4.31-4.292 5.223-5.205V98.34l15.826 1.786v12.694l-14.744 15.122-.777-.1c-3.52-.36-7.536-.546-11.917-.546-6.558 0-11.585.406-12.135.453l-.763.067-14.16-15.003V70.808L85.496 55.4l.607-.035c.87-.075 5.606-.463 11.761-.463 4.31 0 8.32.19 11.927.564l.575.034 14.664 15.311v14.713zm1.21-16.252l-14.29-14.918-.71-.743-1.025-.063-.28-.016c-3.657-.377-7.717-.566-12.07-.566-6.159 0-10.927.38-11.913.466l-.306.019-1.016.06-.71.73L69.34 69.259l-.742.762v43.564l.717.76 13.742 14.56.87.925 1.264-.11.435-.037c.537-.045 5.505-.447 11.973-.447 4.298 0 8.232.178 11.694.532l.4.053 1.303.17 15.973-16.38V98.393l-19.702-2.223v8.792A3066.41 3066.41 0 0 1 103.22 109a139.568 139.568 0 0 0-5.345-.101c-2.415 0-4.552.06-6.166.126-.917-.963-2.272-2.394-3.123-3.288v-27.51l1.712-1.767a2516.83 2516.83 0 0 0 3.146-3.25 158.09 158.09 0 0 1 4.477-.065c1.443 0 2.872.022 4.259.063 1.261 1.253 3.798 3.766 5.088 5.048v7.441l2.364.236 14.453 1.446 2.885.29V70.032l-.728-.761zm71.693 24.572l-2.328-1.162a118.28 118.28 0 0 0-4.86-2.381v36.834l-18.927 16.368-.95-.478c-9.778-4.918-19.235-7.687-21.033-8.19l-.601-.167-11.103-18.407v-41.7c-2.12-.365-3.579-.579-4.26-.657l-1.406-.19V57.1l1.839.28c3.716.533 13.672 2.088 25.669 5.064l1.205.271v16.933l-.853-.217s-3.819-.964-5.646-1.427v34.552a2782.55 2782.55 0 0 0 4.845 8.08c1.376.513 8.173 3.057 10.014 3.75l5.327-4.632V83.921l-4.707-1.562-.472-.154v-17.16l2.056.599c9.644 2.894 18.151 6.162 25.293 9.718l.898.434v18.048zm.454-19.981l-.514-.25c-7.207-3.589-15.819-6.899-25.567-9.824l-1.202-.35-3.356-.973v21.137l1.8.595c1.027.343 2.336.778 3.378 1.121v33.553c-1.02.888-2.656 2.308-3.788 3.294-2.287-.86-6.49-2.432-8.302-3.11-1.006-1.67-3.327-5.54-4.22-7.036V80.494c1.567.398 3.112.785 3.236.816l3.264.825V61.166l-2.047-.463-.656-.148c-12.051-2.986-22.085-4.557-25.841-5.095l-1.025-.158-3.022-.46v20.561l2.268.312.798.107.027.006.027.003c.473.053 1.333.177 2.55.372v40.599l.377.628 10.86 18.005.543.9 1.015.278.342.092c1.746.492 11.055 3.219 20.665 8.052l.546.271 1.565.788 1.324-1.147 18.343-15.862.91-.784V93.374c.675.334 7.187 3.606 7.187 3.606v-22.4l-1.485-.717z"/></g></svg>