<?xml version="1.0" encoding="UTF-8"?>
<svg width="200px" height="200px" viewBox="0 0 200 200" version="1.1" xmlns="http://www.w3.org/2000/svg" xmlns:xlink="http://www.w3.org/1999/xlink">
    <!-- Generator: Sketch 51.3 (57544) - http://www.bohemiancoding.com/sketch -->
    <title>temple</title>
    <desc>Created with Sketch.</desc>
    <defs></defs>
    <g id="temple" stroke="none" stroke-width="1" fill="none" fill-rule="evenodd">
        <g id="temple_BGL" transform="translate(4.761905, 0.956938)">
            <g id="temple">
                <g id="g10" transform="translate(94.724635, 99.854382) scale(-1, 1) rotate(-180.000000) translate(-94.724635, -99.854382) translate(0.000000, 0.000005)" fill-rule="nonzero">
                    <g id="g12">
                        <polyline id="path14" fill="#FFFFFF" points="14.3601446 185.584462 14.3601446 127.715745 26.7515588 127.715745 26.7515588 172.534827 146.716564 172.534827 146.716564 127.715745 159.114697 127.715745 159.114697 185.584462 14.3601446 185.584462"></polyline>
                        <polyline id="path16" fill="#FFFFFF" points="45.8134597 53.9550919 45.8134597 41.2376385 79.8876734 41.2376385 79.8876734 158.718088 41.2113845 158.718088 41.2113845 127.695774 53.5993842 127.695774 53.5993842 145.867939 67.4939461 145.867939 67.4939461 53.9550919 45.8134597 53.9550919"></polyline>
                        <polyline id="path18" fill="#FFFFFF" points="45.8134597 14.1243572 127.572716 14.1243572 127.572716 26.8446287 45.8134597 26.8446287 45.8134597 14.1243572"></polyline>
                        <polyline id="path20" fill="#FFFFFF" points="93.5870585 41.2376385 127.663034 41.2376385 127.663034 53.9550919 105.982548 53.9550919 105.982548 145.867939 119.872925 145.867939 119.872925 127.695774 132.264229 127.695774 132.264229 158.718088 93.5870585 158.718088 93.5870585 41.2376385"></polyline>
                        <path d="M14.3601446,185.584462 L159.114697,185.584462 L159.114697,127.715745 L146.716564,127.715745 L146.716564,172.534827 L26.7515588,172.534827 L26.7515588,127.715745 L14.3601446,127.715745 L14.3601446,185.584462 Z M132.264229,127.695774 L119.872925,127.695774 L119.872925,145.867939 L105.982548,145.867939 L105.982548,53.9550919 L127.663034,53.9550919 L127.663034,41.2376385 L93.5870585,41.2376385 L93.5870585,158.718088 L132.264229,158.718088 L132.264229,127.695774 Z M127.572716,14.1243572 L45.8134597,14.1243572 L45.8134597,26.8446287 L127.572716,26.8446287 L127.572716,14.1243572 Z M53.5993842,145.867939 L53.5993842,127.695774 L41.2113845,127.695774 L41.2113845,158.718088 L79.8876734,158.718088 L79.8876734,41.2376385 L45.8134597,41.2376385 L45.8134597,53.9550919 L67.4939461,53.9550919 L67.4939461,145.867939 L53.5993842,145.867939 Z M0,0 L173.473851,0 L173.473851,199.708753 L0,199.708753 L0,0 Z" id="path22" fill="#B20D35"></path>
                        <path d="M182.782859,1.31318934 C180.147091,1.31318934 178.013143,3.46456964 178.013143,6.12389139 C178.013143,8.77453691 180.147091,10.9259106 182.782859,10.9259106 C185.415984,10.9259106 187.554337,8.77453691 187.554337,6.12389139 C187.554337,3.46456964 185.415984,1.31318934 182.782859,1.31318934 Z M182.782859,12.2391066 C179.428726,12.2391066 176.707706,9.49570741 176.707706,6.12389139 C176.707706,2.73907212 179.428726,0 182.782859,0 C186.136332,0 188.858013,2.73907212 188.858013,6.12389139 C188.858013,9.49570741 186.136332,12.2391066 182.782859,12.2391066 Z" id="path24" fill="#B20D35"></path>
                        <path d="M183.219253,6.77571857 L181.59021,6.77571857 L181.59021,8.30127155 L183.219253,8.30127155 C183.638245,8.30127155 183.97639,7.9614782 183.97639,7.53936047 C183.97639,7.11635514 183.638245,6.77571857 183.219253,6.77571857 Z M185.280065,7.53936047 C185.280065,8.6835141 184.357711,9.61271455 183.219253,9.61271455 L180.289178,9.61444536 L180.289178,2.62204279 L181.59021,2.62204279 L181.59021,5.46511879 L182.526442,5.46511879 L183.841352,2.62204279 L185.280065,2.62204279 L183.910082,5.58214812 C184.70621,5.86990624 185.280065,6.64395518 185.280065,7.53936047 Z" id="path26" fill="#B20D35"></path>
                    </g>
                </g>
            </g>
        </g>
    </g>
</svg>