<svg width="200" height="200" xmlns="http://www.w3.org/2000/svg"><g fill="none"><path fill="#FFF" d="M19.122 15.081V72.95h12.391V28.13h119.965v44.82h12.399V15.081H19.122"/><path fill="#FFF" d="M50.575 146.71v12.718H84.65V41.948H45.973V72.97h12.388V54.798h13.895v91.913h-21.68m-.001 39.83h81.76v-12.72h-81.76v12.72m47.774-27.113h34.076v-12.717h-21.68V54.798h13.89V72.97h12.391V41.948H98.35v117.48"/><path d="M19.122 15.081h144.755V72.95h-12.399V28.13H31.513v44.82H19.122V15.081zM137.026 72.97h-12.391V54.798h-13.89v91.913h21.68v12.717H98.349V41.948h38.677V72.97zm-4.691 113.571h-81.76v-12.72h81.76v12.72zM58.36 54.798V72.97H45.973V41.948H84.65v117.48H50.575v-12.717h21.68V54.798H58.362zM4.76 200.666h173.475V.956H4.762v199.71zm182.785-1.313c-2.636 0-4.77-2.152-4.77-4.811 0-2.65 2.134-4.802 4.77-4.802 2.633 0 4.771 2.151 4.771 4.802 0 2.66-2.138 4.81-4.771 4.81zm0-10.926c-3.354 0-6.075 2.743-6.075 6.115 0 3.385 2.72 6.124 6.075 6.124 3.353 0 6.075-2.74 6.075-6.124 0-3.372-2.722-6.115-6.075-6.115z" fill="#B20D35"/><path d="M187.981 193.89h-1.629v-1.526h1.63c.418 0 .756.34.756.762a.76.76 0 0 1-.757.764zm2.061-.764a2.068 2.068 0 0 0-2.06-2.073l-2.93-.002v6.993h1.3V195.2h.936l1.315 2.843h1.439l-1.37-2.96a2.089 2.089 0 0 0 1.37-1.958z" fill="#B20D35"/></g></svg>