<svg width="200" height="200" xmlns="http://www.w3.org/2000/svg"><g fill="none"><path d="M107.109 63.467l-.879-.366-1.378 1.206-.653-2.052-1.016-.423a2.18 2.18 0 0 0-.481 1.19 2.206 2.206 0 0 0 2.013 2.384 2.211 2.211 0 0 0 2.394-1.939m5.791-1.337c-4.516 1.61-8.719 5.939-8.121 9.826l16.768.269c-2.595-2.284-12.875-2.219-12.875-2.219l-2.081.923 1.71-2.468 8.825.522c8.912.527 10.16 5.524 10.16 5.524s3.906-4.809-1.026-9.154c-3.753-3.305-13.36-3.223-13.36-3.223zm4.02 1.451l-.31 1.681-4.499-.603s1.28-1.273 4.81-1.078zm25.71 71.836c-3.152-.503-9.067-.386-9.067-5.361l.01-18.18h-16.546c1.312 1.874 2.057 2.877 2.057 5.313 0 4.248-.643 18.725.427 21.576.678 1.806 2.23 2.786 3.81 3.359 2.364.855 5.007 1.13 7.459 1.48 8.445 1.202 16.777 2.873 25.097 4.89l.03-36.618h-13.3l.023 23.54zm-12.298-19.865l2.048-2.303-.01 16.794c0 .735.101 1.385.28 1.958-1.314-.926-2.326-2.396-2.326-4.73l.008-11.719zm22.333-.346l2.049-1.957-.028 33.52c-7.862-1.865-15.74-3.418-23.717-4.553-1.216-.173-2.478-.327-3.73-.545-1.198-.208-2.386-.474-3.508-.88-1.467-.532-2.588-1.338-3.054-2.58a4.162 4.162 0 0 1-.175-.729c.36.205.757.382 1.183.537 1.121.406 2.31.672 3.508.88 1.251.218 2.514.372 3.729.545 7.978 1.136 15.855 2.688 23.717 4.553l.026-28.79zM36.634 127.282c1.109-.867 2.61-3.246 3.694-3.88 2.795-1.636 6.39-.856 9.507-1.26l-.203 25.387a278.588 278.588 0 0 1 19.465-2.765c-1.111-1.183-2.567-2.828-2.567-4.612 0-6.192.057-18.01.057-18.01h7.322c2.37 0 4.227 1.483 5.948 3.033l.044-13.3H36.745l-.111 15.407zm26.449-9.353h8.645c1.797 0 3.322.698 4.626 1.594l-.029-4.75 2.279-1.51-.03 9.06c-1.306-.896-2.83-1.594-4.627-1.594h-8.645s-.065 13.215-.065 19.41c0 1.29.521 2.423 1.095 3.315l.122.186a280.086 280.086 0 0 0-15.438 2.22l2.457-3.469c4.386-.72 5.568-1.04 9.984-1.55 0 0-.439-4.048-.439-5.336 0-6.196.065-17.576.065-17.576zm-22.812 1.16c1.513-.711 3.048-1.15 7.221-1.15l6.091-.016-2.578 2.89c-1.306.096-4.71.035-6.052.084-1.692.062-3.552.283-5.235 1.267-.444.26-.843.647-1.17 1-.142.155-.287.322-.434.497l2.157-4.572z" fill="#FFF"/><path d="M109.11 101.499c4.689.065 20.137-.25 23.498 1.553 1.262.677 2.356 1.628 3.556 2.405l.052-14.824H64.329l.073 14.66c1.088-.974 2.237-1.913 3.563-2.55 3.595-1.725 16.564-1.222 21.213-1.244l.01 54.293a394.53 394.53 0 0 1 9.97-.152c4.203 0 8.404.138 12.604.315-.974-.99-2.756-2.604-2.756-4.064 0-11.27.07-39.122.104-50.392zm-30.925-1.352c-4.167.09-8.645.377-10.76 1.392-.592.284-1.146.618-1.667.978l1.986-3.856c2.275-.835 4.378-1.076 8.223-1.16 4.281-.092 16.738.01 16.738.01l-2.328 2.652c-2.46-.013-8.401-.098-12.192-.016zm21.01 54.158c-2.879 0-5.758.05-8.637.119l2.702-2.694c2.14-.042 1.577-.07 3.717-.07 3.17 0 5.319.077 8.486.191 0-1.337.14-54.352.14-54.352s8.738-.01 13.616.145c4.714.15 7.366.072 11.87 1.238.617.16 1.055.077 1.572.44l.03-5.51 2.227-1.869-.038 10.942a15.602 15.602 0 0 0-1.602-1.01c-2.026-1.086-7.126-1.436-11.84-1.586-4.878-.155-9.922-.093-12.27-.125l-1.347-.02-.003 1.338c-.035 11.272-.105 39.124-.105 50.397 0 1.002.484 1.912.989 2.618a263.904 263.904 0 0 0-9.506-.192z" fill="#FFF"/><path d="M60.583 101.507l-31.998 5.816a107.82 107.82 0 0 0 3.735 5.14l.622-.1.032-4.483h27.618l-.009-6.373m16.123-16.364l-3.37 1.715h3.351c.03-1.072.019-1.715.019-1.715m-16.159 9.398l-39.19.516a107.546 107.546 0 0 0 2.829 5.252l36.392.002-.03-5.77m-.135-6.284l-44.706-6.623c.652 1.9 1.353 3.77 2.102 5.612l42.735 6.373-.131-5.362m43.219-1.399h3.144c-.283-2.303.02-3.915.02-3.915-1.384.233-2.483 2.25-3.164 3.915m-19.714-7.45c-.3 2.746-.599 5.22-.921 7.45h19.371c-.42-3.14.247-5.664.247-5.664-2.45.807-4.129 3.824-4.129 3.824-1.08-4.957 2.93-8.588 2.93-8.588-1.679-.135-4.3.268-4.3.268 1.373-4.026 5.548-4.74 5.548-4.74s-.795-2.233.781-4.373c0 0-2.924-.22-2.934-3.565-.007-2.163 1.253-3.192 1.253-3.192l-3.918-4.15s7.712 2.8 11.71 3.774c2.616.638 2.558-2.543 2.558-2.543 2 3.007 4.24.834 4.24.834s.093-4.252-10.145-4.901c-9.37-.594-16.705 5.868-16.705 5.868l3.026.835c-7.52 4.995-9.865 10.266-9.865 10.266l2.933-.371c-3.493 5.365-4.52 10.173-4.52 10.173l2.84-1.205" fill="#FDDD04"/><path d="M194.105 29.403l-5.728-5.964.045 5.52c0 .026.006.888-.016 1.901-.022.97-.064 2.084-.17 2.684a20.251 20.251 0 0 1-1.7 5.177c-1.948 4.054-5.971 9.21-14.496 12.923l-22.803 9.347 2.171-5.071-18.698 5.795a14.206 14.206 0 0 0-2.613-2.21c-1.824-1.209-3.816-2.012-5.507-2.584-.413-.14-.818-.269-1.21-.39.023-.089.045-.183.066-.28.157-.743.243-1.761-.153-2.855-.815-2.251-3.337-4.779-9.192-5.773-12.557-2.131-21.18.055-27.202 2.881a29.977 29.977 0 0 0-7.211 4.766 39.053 39.053 0 0 0-2.463 2.396c-.706.745-1.323 1.44-1.875 2.045l-.986 1.081 1.313.653c.383.19.747.36 1.075.505a39.095 39.095 0 0 0-1.876 2.295L48.282 55.91l2.175 5.081-22.741-9.321C19.153 47.956 10.15 39.033 11.29 26.325l.25-2.781-2.1 1.855C-.412 34.104-.737 43.376.525 57.109c2.458 26.774 13.582 50.126 29.556 67.921l-.114 15.938 9.011-7.04a115.84 115.84 0 0 0 4.162 3.561l-.144 18.071 7.76-1.383c5.05-.9 10.093-1.652 15.17-2.264a106.98 106.98 0 0 0 4.247 1.896c12.533 5.27 19.255 10.4 22.872 13.956 1.866 1.834 3.395 3.96 4.464 5.643 1.055 1.66 2.723 5.07 2.723 5.07s1.464-3.5 2.43-5.173c.98-1.699 2.399-3.81 4.185-5.556 1.449-1.416 3.387-3.105 6.01-4.964h13.334v-7.515c1.06-.485 2.17-.973 3.33-1.46 1.97-.83 3.92-1.72 5.849-2.671 6.37 1.066 12.688 2.393 18.998 3.922l8.071 1.956.02-24.686c19.763-18.475 33.9-44.612 36.71-75.222 1.258-13.691-.165-22.605-5.064-27.706zm-74.37 128.825h-.753v2.712h-.91v-2.712h-.752v-.765h2.414v.765zm3.689 2.712l-.255-2.001h-.01l-.84 2.001h-.362l-.803-2.001h-.01l-.292 2.001h-.904l.594-3.477h.896l.71 1.859.752-1.86h.905l.529 3.478h-.91zm72.475-104.127c-2.76 30.038-16.75 55.582-36.207 73.557l-.02 23.144-4.648-1.127c-6.966-1.688-13.941-3.132-20.985-4.255a104.427 104.427 0 0 1-5.798 2.671c-25.38 10.764-28.212 21.217-28.212 21.217s-2.894-10.416-28.576-21.217a102.812 102.812 0 0 1-4.099-1.83 274.745 274.745 0 0 0-17.087 2.495l-4.475.798.156-16.714a112.484 112.484 0 0 1-6.612-5.738c-2.981 2.496-6.559 5.457-6.559 5.457l.087-12.045c-15.7-17.337-26.66-40.18-29.068-66.413-1.254-13.654.364-21.195 4.17-25.157 0 0-.204 14.922 18.436 23.005l30.216 12.387-2.53-5.911 20.309 6.297c-1.244 1.797-2.53 3.797-3.532 5.683l-6.481-1.927 4.449 7.864-44.975-18.437c-6.126-2.657-10.638-6.023-13.919-9.533.06 1.575.171 3.285.342 5.14.156 1.704.35 3.391.582 5.063l52.315 20.656-51.046-13.327a108.75 108.75 0 0 0 1.207 5.153L60.51 86.858h12.344c1.54-7.541 4.367-12.368 4.367-12.368l-3.694-.839c2.964-6.697 9.613-13.323 9.613-13.323l-2.724-.902s11.554-10.949 27.138-8.962c15.585 1.987 11.959 8.279 11.959 8.279 4.018 1.33 15.188 3.24 12.611 13.87-1.747 7.21-7.492 9.566-7.492 9.566 1.253-5.643-4.84-6.518-6.84-5.272-1.005.626-4.71 2.443-1.217 9.95h2.373c-1.914-3.72-1.832-5.64-1.563-6.514.147-.473.387-.783.638-1.015a3.32 3.32 0 0 1 .42-.325c.19-.126.36-.222.483-.3 1.25-.777 4.263.134 3.622 3.019l-.881 3.967 3.779-1.55c.212-.087 6.763-2.817 8.753-11.03.818-3.374.44-6.083-.64-8.239l12.046-3.733-2.53 5.91 30.217-12.386c18.64-8.083 18.436-23.005 18.436-23.005 3.805 3.962 5.423 11.503 4.17 25.157z" fill="#FDDD04"/><path d="M187.915 68.616c.501-2.407.925-4.85 1.269-7.329l-51.52 20.041 50.25-12.712m-28.336 49.087l2.852 1.1a107.69 107.69 0 0 0 5.297-6.34l-8.149-1.32v6.56m24.762-36.069c.882-2.57 1.673-5.192 2.368-7.865l-48.48 13.792 46.112-5.927m-5.65 13.423a107.63 107.63 0 0 0 3.548-7.811l-42.427 6.916 38.88.895m-7.229 12.266a107.746 107.746 0 0 0 4.4-7.014l-36.051.66 31.65 6.354m-38.811 24.678a6.565 6.565 0 0 1-.28-1.958l.01-16.794-2.048 2.303-.008 11.718c0 2.335 1.012 3.805 2.326 4.731m-24.832-30.519l.003-1.337 1.347.019c2.348.032 7.392-.03 12.27.125 4.714.15 9.814.5 11.84 1.586.557.299 1.085.645 1.602 1.01l.038-10.942-2.228 1.868-.029 5.512c-.517-.364-.955-.282-1.571-.441-4.505-1.166-7.157-1.088-11.871-1.238-4.878-.155-13.616-.145-13.616-.145s-.14 53.015-.14 54.352c-3.167-.114-5.316-.192-8.486-.192-2.14 0-1.577.029-3.717.07l-2.702 2.695c2.879-.069 5.758-.12 8.638-.12 3.17 0 6.338.079 9.506.193-.505-.706-.99-1.616-.99-2.618 0-11.273.07-39.125.106-50.397" fill="#FDDD04"/><path d="M125.193 138.899c-1.199-.208-2.387-.474-3.508-.88a7.692 7.692 0 0 1-1.183-.537c.052.31.11.555.175.73.466 1.241 1.587 2.047 3.054 2.579 1.122.406 2.31.672 3.508.88 1.252.218 2.514.372 3.73.545 7.977 1.135 15.855 2.688 23.717 4.554l.028-33.521-2.049 1.957-.026 28.791c-7.862-1.865-15.74-3.417-23.717-4.553-1.215-.173-2.478-.327-3.73-.545M75.967 97.501c-3.845.084-5.948.325-8.223 1.16l-1.986 3.856c.521-.36 1.075-.694 1.667-.978 2.115-1.015 6.593-1.302 10.76-1.392 3.79-.082 9.732.003 12.192.016l2.328-2.651s-12.457-.103-16.738-.01m-22.494 44.889l-2.457 3.47a280.086 280.086 0 0 1 15.438-2.22l-.122-.187c-.574-.892-1.095-2.026-1.095-3.315 0-6.195.065-19.41.065-19.41h8.645c1.797 0 3.321.698 4.626 1.594l.03-9.06-2.278 1.51.03 4.75c-1.305-.896-2.83-1.594-4.627-1.594h-8.645s-.065 11.38-.065 17.576c0 1.288.439 5.336.439 5.336-4.416.51-5.598.83-9.984 1.55m-13.755-20.227c1.683-.984 3.543-1.205 5.235-1.267 1.343-.049 4.746.012 6.052-.084l2.578-2.89-6.09.016c-4.174 0-5.709.439-7.222 1.15l-2.157 4.572c.147-.175.292-.342.435-.497.326-.353.725-.74 1.17-1" fill="#FDDD04"/><path d="M116.61 65.262l.31-1.68c-3.528-.196-4.809 1.077-4.809 1.077l4.498.603" fill="#53369A"/><path d="M173.293 54.661l-30.217 12.387 2.53-5.911-12.045 3.733c1.078 2.156 1.457 4.865.64 8.239-1.991 8.213-8.542 10.943-8.754 11.03l-3.779 1.55.88-3.967c.642-2.885-2.371-3.796-3.62-3.018-.124.077-.293.173-.485.3a3.32 3.32 0 0 0-.419.324c-.25.232-.491.542-.638 1.015-.27.873-.35 2.794 1.563 6.515h-2.373c-3.493-7.508.212-9.325 1.218-9.951 2-1.246 8.092-.371 6.84 5.272 0 0 5.744-2.356 7.491-9.567 2.577-10.63-8.593-12.54-12.611-13.869 0 0 3.626-6.292-11.959-8.279-15.584-1.987-27.138 8.962-27.138 8.962l2.724.902s-6.649 6.626-9.613 13.323l3.694.84s-2.826 4.826-4.367 12.367H60.511L13.339 73.769a108.75 108.75 0 0 1-1.207-5.153l51.046 13.327-52.315-20.656c-.232-1.672-.426-3.36-.582-5.062a95.073 95.073 0 0 1-.342-5.14c3.28 3.51 7.793 6.875 13.919 9.532l44.975 18.437-4.449-7.864 6.48 1.927c1.003-1.886 2.29-3.886 3.533-5.683l-20.308-6.297 2.53 5.91-30.217-12.386C7.762 46.578 7.966 31.656 7.966 31.656 4.16 35.618 2.542 43.16 3.796 56.813c2.409 26.233 13.369 49.076 29.068 66.413l-.087 12.045s3.578-2.961 6.559-5.457a112.484 112.484 0 0 0 6.612 5.738l-.156 16.714 4.475-.798a274.745 274.745 0 0 1 17.087-2.495c1.356.642 2.723 1.252 4.1 1.83 25.681 10.8 28.575 21.217 28.575 21.217s2.833-10.453 28.212-21.217a104.427 104.427 0 0 0 5.798-2.67c7.044 1.122 14.019 2.566 20.985 4.254l4.648 1.127.02-23.144c19.457-17.975 33.448-43.519 36.207-73.557 1.253-13.654-.365-21.195-4.17-25.157 0 0 .204 14.922-18.436 23.005zM126.26 65.353c4.932 4.345 1.026 9.154 1.026 9.154s-1.248-4.997-10.16-5.524l-8.824-.522-1.711 2.468 2.081-.923s10.28-.065 12.875 2.219l-16.768-.269c-.598-3.887 3.605-8.216 8.12-9.826 0 0 9.608-.082 13.36 3.223zm-19.484 21.505h-3.144c.681-1.665 1.78-3.682 3.165-3.915 0 0-.304 1.612-.02 3.915zm-4.074-23.836a2.18 2.18 0 0 1 .481-1.19l1.016.423.653 2.052 1.378-1.206.879.366a2.211 2.211 0 0 1-2.394 1.94 2.206 2.206 0 0 1-2.013-2.385zM82.665 70.81s2.345-5.271 9.865-10.266l-3.026-.835s7.335-6.462 16.705-5.868c10.238.649 10.145 4.901 10.145 4.901s-2.24 2.173-4.24-.834c0 0 .058 3.181-2.559 2.543-3.997-.975-11.71-3.774-11.71-3.774l3.92 4.15s-1.26 1.03-1.254 3.192c.01 3.346 2.934 3.565 2.934 3.565-1.576 2.14-.78 4.372-.78 4.372s-4.176.715-5.55 4.741c0 0 2.622-.403 4.301-.268 0 0-4.01 3.63-2.93 8.588 0 0 1.68-3.017 4.13-3.824 0 0-.668 2.523-.248 5.664H82.997c.322-2.23.62-4.704.921-7.45l-2.84 1.205s1.027-4.808 4.52-10.173l-2.933.37zm-5.959 14.332s.01.643-.019 1.715h-3.35l3.369-1.715zm-61-3.51l44.707 6.624.131 5.362-42.735-6.373a107.962 107.962 0 0 1-2.102-5.612zm5.65 13.424l39.191-.516.03 5.77-36.391-.002a107.546 107.546 0 0 1-2.83-5.252zm11.586 17.306l-.622.1a107.82 107.82 0 0 1-3.735-5.14l31.998-5.816.01 6.373h-27.62l-.031 4.483zm46.915 12.812c-1.721-1.55-3.578-3.033-5.948-3.033h-7.322s-.057 11.818-.057 18.01c0 1.784 1.456 3.429 2.567 4.612a278.526 278.526 0 0 0-19.465 2.765l.203-25.387c-3.118.404-6.712-.376-9.507 1.26-1.085.634-2.585 3.013-3.694 3.88l.11-15.407h43.157l-.044 13.3zm19.3 30.465c-3.323 0-6.646.068-9.968.152l-.011-54.293c-4.649.022-17.618-.481-21.213 1.244-1.326.637-2.475 1.576-3.563 2.55l-.073-14.66h71.887l-.052 14.824c-1.2-.777-2.294-1.728-3.556-2.405-3.36-1.803-18.81-1.488-23.498-1.553-.034 11.27-.105 39.121-.104 50.392 0 1.46 1.782 3.074 2.756 4.064-4.2-.177-8.4-.315-12.604-.315zm56.72-7.146c-8.32-2.017-16.652-3.688-25.097-4.89-2.452-.35-5.095-.625-7.459-1.48-1.58-.573-3.132-1.553-3.81-3.36-1.07-2.85-.427-17.327-.427-21.575 0-2.436-.745-3.44-2.057-5.313h16.546l-.01 18.18c0 4.975 5.915 4.858 9.067 5.36l-.024-23.54h13.302l-.03 36.618zm6.553-29.691l-2.852-1.1v-6.56l8.15 1.32a107.69 107.69 0 0 1-5.298 6.34zm9.032-11.48l-31.651-6.353 36.05-.66a107.746 107.746 0 0 1-4.4 7.013zm7.228-12.266l-38.879-.895 42.427-6.916a107.63 107.63 0 0 1-3.548 7.81zm5.65-13.423l-46.112 5.927 48.48-13.792a107.529 107.529 0 0 1-2.368 7.865zm3.575-13.018l-50.25 12.712 51.519-20.04a109.689 109.689 0 0 1-1.27 7.328z" fill="#53369A"/><path fill="#53369A" d="M117.32 158.228h.752v2.712h.91v-2.712h.752v-.765h-2.414v.765m5.58-.765l-.752 1.859-.71-1.86h-.896l-.594 3.478h.904l.293-2.001h.01l.802 2.001h.362l.84-2.001h.01l.255 2.001h.91l-.53-3.477h-.904"/></g></svg>