<?xml version="1.0" encoding="UTF-8"?>
<svg width="200px" height="200px" viewBox="0 0 200 200" version="1.1" xmlns="http://www.w3.org/2000/svg" xmlns:xlink="http://www.w3.org/1999/xlink">
    <!-- Generator: Sketch 51.3 (57544) - http://www.bohemiancoding.com/sketch -->
    <title>tennessee-tech</title>
    <desc>Created with Sketch.</desc>
    <defs></defs>
    <g id="tennessee-tech" stroke="none" stroke-width="1" fill="none" fill-rule="evenodd">
        <g id="tennessee-tech_BGL" transform="translate(0.000000, 22.885572)">
            <g id="tennessee-tech">
                <g id="g10" transform="translate(99.907147, 77.910972) scale(-1, 1) rotate(-180.000000) translate(-99.907147, -77.910972) translate(0.000000, 0.228806)" fill-rule="nonzero">
                    <g id="g12">
                        <path d="M107.109004,115.011306 L106.230267,115.37739 L104.851622,114.171379 L104.198697,116.22396 L103.183284,116.646506 C102.916246,116.318433 102.741316,115.90991 102.701576,115.457102 C102.594984,114.246293 103.496748,113.178302 104.715318,113.072389 C105.913461,112.967951 106.971956,113.831866 107.109004,115.011306" id="path14" fill="#FFFFFF"></path>
                        <path d="M112.899162,116.348694 C108.383656,114.738957 104.181242,110.409791 104.778827,106.52273 L121.547258,106.253703 C118.952272,108.538038 108.672235,108.472719 108.672235,108.472719 L106.590527,107.550128 L108.301576,110.017505 L117.126459,109.495688 C126.03788,108.969073 127.286162,103.971951 127.286162,103.971951 C127.286162,103.971951 131.192197,108.780495 126.259607,113.12553 C122.506961,116.430989 112.899162,116.348694 112.899162,116.348694 Z M116.920703,114.897274 L116.609468,113.216313 L112.111046,113.819687 C112.111046,113.819687 113.391641,115.092494 116.920703,114.897274 Z" id="path16" fill="#FFFFFF"></path>
                        <path d="M142.629523,43.0621212 C139.478177,43.5647488 133.563228,43.4481333 133.563228,48.4227442 L133.573256,66.6029542 L117.027295,66.6029542 C118.339459,64.7289873 119.08412,63.7255772 119.08412,61.2899369 C119.08412,57.0419587 118.441223,42.5642911 119.511232,39.7138538 C120.189041,37.9077896 121.741873,36.9272599 123.321074,36.3551427 C125.685048,35.4992735 128.327573,35.2239354 130.77957,34.8746793 C139.22488,33.6723956 147.556914,32.001657 155.877062,29.9852051 L155.907517,66.6029542 L142.606496,66.6029542 L142.629523,43.0621212 Z M130.332402,62.9262444 L132.380312,65.2301387 L132.370656,48.4360295 C132.370656,47.7005399 132.471306,47.0510359 132.649579,46.4775533 C131.335558,47.4042037 130.324231,48.8740757 130.324231,51.2082311 L130.332402,62.9262444 Z M152.665177,63.2724005 L154.713831,65.2301387 L154.685976,31.7090111 C146.823766,33.5751176 138.946329,35.1273586 130.968613,36.2628836 C129.753014,36.435851 128.49099,36.5901082 127.239365,36.8077659 C126.040851,37.0158286 124.852736,37.2819039 123.731102,37.6878439 C122.263692,38.2192564 121.143172,39.0252319 120.676692,40.2674085 C120.611696,40.4412246 120.553757,40.6866338 120.501761,40.9962554 C120.862021,40.7914402 121.258678,40.6143027 121.684677,40.4600455 C122.806311,40.0537364 123.994426,39.7876611 125.19294,39.5798936 C126.444194,39.3621621 127.706589,39.2079049 128.921817,39.0348268 C136.899532,37.8989328 144.777341,36.3469132 152.639179,34.4815448 L152.665177,63.2724005 Z" id="path18" fill="#FFFFFF"></path>
                        <path d="M36.6340195,51.19716 C37.7429888,52.0632884 39.2430817,54.4428353 40.3275756,55.0775779 C43.1234901,56.7131473 46.7171762,55.9326353 49.8354676,56.3367301 L49.6323107,30.9500509 C56.1039912,32.1037325 62.5660151,33.0198285 69.0967485,33.7146503 C67.9855136,34.8980024 66.5299891,36.5422442 66.5299891,38.3262769 C66.5299891,44.518708 66.5868136,56.3367301 66.5868136,56.3367301 L73.9090047,56.3367301 C76.278921,56.3367301 78.1355598,54.8539418 79.8570082,53.3032508 L79.9012051,66.6033232 L36.7447345,66.6033232 L36.6340195,51.19716 Z M63.0830068,60.5496499 L71.7281319,60.5496499 C73.5253464,60.5496499 75.0495803,59.852171 76.3543156,58.9557816 L76.3253463,63.7060183 L78.6035264,65.2164844 L78.5734428,56.1559023 C77.268336,57.0519227 75.7441021,57.7497706 73.9468877,57.7497706 L65.3017625,57.7497706 C65.3017625,57.7497706 65.2367672,44.5349456 65.2367672,38.3395622 C65.2367672,37.050518 65.7582156,35.9166167 66.3316604,35.0242867 L66.454223,34.8383292 C61.2843067,34.2408224 56.1511592,33.5034507 51.0157833,32.6183538 L53.4726078,36.0874437 C57.8592372,36.8067695 59.040667,37.1283847 63.4566372,37.638024 C63.4566372,37.638024 63.0180114,41.6852464 63.0180114,42.9739215 C63.0180114,49.1700429 63.0830068,60.5496499 63.0830068,60.5496499 Z M40.2711225,59.3893994 C41.7842144,60.1009016 43.3188476,60.5396859 47.4922922,60.5396859 L53.5832856,60.5555544 L51.0053841,57.6656303 C49.6987917,57.5693118 46.2956349,57.6305718 44.9526451,57.58149 C43.2609089,57.5194918 41.4012989,57.2988081 39.7184763,56.314588 C39.2735366,56.0544173 38.8746508,55.6676671 38.5489313,55.3144993 C38.4059415,55.159504 38.2607233,54.9923305 38.1143909,54.8181453 L40.2711225,59.3893994 Z" id="path20" fill="#FFFFFF"></path>
                        <path d="M109.110489,76.9798891 C113.798697,76.9145697 129.247165,77.2293578 132.60761,75.4269839 C133.870006,74.7498021 134.964156,73.7984262 136.163785,73.0216045 L136.215781,87.8457974 L64.3286892,87.8457974 L64.4018554,73.1865638 C65.4900634,74.1600819 66.6388098,75.0989105 67.9654579,75.7354983 C71.5602582,77.4611126 84.5292458,76.958116 89.1777136,76.9798891 L89.1888557,22.6868089 C92.5110469,22.7706908 95.8343523,22.8384459 99.1576577,22.8384459 C103.361186,22.8384459 107.562486,22.7012013 111.761928,22.5239162 C110.788112,23.5135242 109.005754,25.1276157 109.005754,26.5876345 C109.005383,37.8583387 109.075578,65.709517 109.110489,76.9798891 Z M78.1853277,78.3316695 C74.0181968,78.2412556 69.5398311,77.9545143 67.4246966,76.9392951 C66.8334245,76.6555061 66.2792927,76.3218972 65.7578442,75.9617177 L67.7444737,79.8174101 C70.0189398,80.6529086 72.1218181,80.8938894 75.9669433,80.9772916 C80.248466,81.0699197 92.7052902,80.9669586 92.7052902,80.9669586 L90.3765994,78.31617 C87.9171751,78.3290863 81.9758568,78.4139646 78.1853277,78.3316695 Z M99.1955407,24.1737673 C96.3160607,24.1737673 93.4365808,24.12332 90.5578436,24.0551221 L93.2601648,26.7490879 C95.3998119,26.791195 94.8367664,26.8192786 96.9767849,26.8192786 C100.146701,26.8192786 102.296005,26.7414489 105.463321,26.627269 C105.463321,27.9645832 105.602969,80.9795058 105.602969,80.9795058 C105.602969,80.9795058 114.341316,80.9898388 119.218939,80.8348435 C123.933145,80.6850147 126.584955,80.7625124 131.08969,79.5970954 C131.705846,79.4373026 132.144101,79.5199668 132.661092,79.1560969 L132.690062,84.6676557 L134.918474,86.5357181 L134.879848,75.5941574 C134.362856,75.9583963 133.835466,76.3049215 133.278362,76.603841 C131.252364,77.6899152 126.1519,78.0393927 121.437694,78.1895905 C116.560071,78.3445858 111.516432,78.2822186 109.167685,78.3150629 L107.821353,78.3338837 L107.817639,76.9964958 C107.782727,65.7242785 107.712532,37.8723621 107.712532,26.5998865 C107.712532,25.5980264 108.197212,24.6876874 108.701576,23.982016 C105.533888,24.0961958 102.365086,24.1737673 99.1955407,24.1737673 Z" id="path22" fill="#FFFFFF"></path>
                        <path d="M60.5834711,76.9721394 L28.5850318,71.1557564 C29.7839918,69.3987741 31.0297857,67.6845999 32.3195164,66.0150792 L32.9416148,66.1158261 L32.9738153,70.5988805 L60.5923847,70.5988805 L60.5834711,76.9721394" id="path24" fill="#FDDD04"></path>
                        <path d="M76.7060334,93.335214 L73.3366741,91.6210399 L76.6870919,91.6210399 C76.7164326,92.6923526 76.7060334,93.335214 76.7060334,93.335214" id="path26" fill="#FDDD04"></path>
                        <path d="M60.5470737,83.9377017 L21.3566197,83.4221578 C22.2548184,81.6374977 23.1986995,79.8860509 24.1856633,78.1692935 L60.5775287,78.1674483 L60.5470737,83.9377017" id="path28" fill="#FDDD04"></path>
                        <path d="M60.4129976,90.2216538 L15.7065177,96.8451194 C16.3588111,94.9453199 17.0604267,93.0743053 17.8091732,91.2331826 L60.5444739,84.8599237 L60.4129976,90.2216538" id="path30" fill="#FDDD04"></path>
                        <path d="M103.631567,91.6210399 L106.776228,91.6210399 C106.493219,93.9241962 106.796655,95.5357782 106.796655,95.5357782 C105.412439,95.3029162 104.313461,93.2861322 103.631567,91.6210399" id="path32" fill="#FDDD04"></path>
                        <path d="M83.9182895,99.070778 C83.6178252,96.324409 83.319218,93.8507579 82.996841,91.6210399 L102.368057,91.6210399 C101.948373,94.7615398 102.615411,97.2842727 102.615411,97.2842727 C100.165271,96.4775591 98.4861628,93.4606864 98.4861628,93.4606864 C97.4068685,98.4179526 101.416153,102.048902 101.416153,102.048902 C99.7370449,102.1836 97.1153179,101.780243 97.1153179,101.780243 C98.489134,105.8068 102.664064,106.521623 102.664064,106.521623 C102.664064,106.521623 101.868893,108.753555 103.445123,110.893967 C103.445123,110.893967 100.521075,111.113174 100.511047,114.458489 C100.504361,116.621412 101.764157,117.651023 101.764157,117.651023 L97.8458657,121.801207 C97.8458657,121.801207 105.558029,119.001328 109.555058,118.026703 C112.172328,117.388639 112.114389,120.570101 112.114389,120.570101 C114.11476,117.563193 116.353943,119.73571 116.353943,119.73571 C116.353943,119.73571 116.447165,123.988117 106.208725,124.636883 C96.8393662,125.231031 89.504176,118.768466 89.504176,118.768466 L92.5303598,117.934074 C85.00984,112.938797 82.665179,107.66785 82.665179,107.66785 L85.5977694,108.038732 C82.1051047,102.67405 81.0789209,97.8655051 81.0789209,97.8655051 L83.9182895,99.070778" id="path34" fill="#FDDD04"></path>
                        <path d="M194.105102,149.07595 L188.37734,155.039579 L188.421908,149.519901 C188.422279,149.494069 188.428222,148.631261 188.405566,147.618257 C188.384396,146.648798 188.342057,145.534677 188.235093,144.934624 C188.005566,143.648901 187.528315,141.820694 186.536671,139.75815 C184.587925,135.703916 180.564527,130.54737 172.040107,126.834495 L149.237136,117.48754 L151.408353,122.559208 L132.710489,116.76386 C131.924973,117.618548 131.034723,118.350347 130.096561,118.972912 C128.273349,120.182613 126.280777,120.985267 124.589783,121.557643 C124.176784,121.697508 123.771585,121.82667 123.379756,121.946976 C123.403154,122.036652 123.424695,122.130756 123.445865,122.227444 C123.60334,122.970683 123.689133,123.988855 123.293219,125.08231 C122.47762,127.333801 119.956172,129.8617 114.10139,130.855515 C101.544287,132.98707 92.9203319,130.800529 86.8987908,127.974448 C83.8956339,126.565098 81.5554297,124.863471 79.6876489,123.208343 C78.7595152,122.38613 77.9465162,121.573881 77.2252534,120.812558 C76.5188467,120.067474 75.9015766,119.372209 75.3496731,118.767359 L74.3639721,117.686451 L75.6772497,117.033626 C76.0597938,116.843572 76.4237678,116.674184 76.7517158,116.528415 C76.2276675,115.934635 75.5665719,115.148218 74.8761355,114.233377 L48.2822643,122.568434 L50.4568233,117.48754 L27.7157282,126.808662 C19.1528686,130.522276 10.1506033,139.445945 11.2900276,152.154083 L11.539424,154.935142 L9.43970264,153.079995 C-0.411587733,144.374426 -0.736564513,135.102756 0.524605372,121.369434 C2.98340197,94.5954734 14.1067406,71.2439561 30.0808163,53.4482821 L29.9666473,37.5110755 L38.978272,44.5504451 C40.3413175,43.3274584 41.7288755,42.1398992 43.1402032,40.9892437 L42.9957278,22.918453 L50.7561733,24.3016384 C55.8057553,25.2015706 60.849395,25.9536299 65.9257179,26.566009 C67.3307318,25.9014482 68.7468878,25.2693257 70.1727002,24.6696415 C82.7056618,19.3993587 89.4276672,14.270306 93.0447516,10.7138652 C94.9106754,8.8794959 96.4404804,6.75366163 97.5090041,5.07063415 C98.5637858,3.40998136 100.232495,0 100.232495,0 C100.232495,0 101.696191,3.50152084 102.661093,5.17370603 C103.641223,6.87256516 105.060722,8.98400701 106.847165,10.7294385 C108.296005,12.1454682 110.233981,13.8349907 112.85645,15.6934212 L126.190526,15.6934212 L126.190526,23.2089216 C127.251622,23.69402 128.361,24.1812587 129.521631,24.6696415 C131.490805,25.497833 133.441037,26.388281 135.369727,27.3396938 C141.740386,26.2736583 148.057564,24.9471569 154.368056,23.4179438 L162.439365,21.4617925 L162.459792,46.1476347 C182.222465,64.6223357 196.358769,90.7593399 199.16954,121.369434 C200.427107,135.061054 199.003523,143.975129 194.105102,149.07595 Z M119.734073,20.2505781 L118.981613,20.2505781 L118.981613,17.5386033 L118.072049,17.5386033 L118.072049,20.2505781 L117.320331,20.2505781 L117.320331,21.0160334 L119.734073,21.0160334 L119.734073,20.2505781 Z M123.423952,17.5386033 L123.168799,19.540183 L123.159143,19.540183 L122.319403,17.5386033 L121.957286,17.5386033 L121.154315,19.540183 L121.144658,19.540183 L120.852365,17.5386033 L119.947629,17.5386033 L120.541873,21.0160334 L121.437694,21.0160334 L122.147815,19.1571601 L122.899533,21.0160334 L123.804639,21.0160334 L124.333516,17.5386033 L123.423952,17.5386033 Z M195.898602,121.66614 C193.139828,91.6273135 179.149485,66.0833509 159.691732,48.1090633 L159.672419,24.9651659 L155.023952,26.0917234 C148.057935,27.780065 141.083005,29.223514 134.038622,30.3464549 C132.127388,29.3943409 130.193497,28.5030073 128.241408,27.6752955 C102.86165,16.9119425 100.029338,6.45913367 100.029338,6.45913367 C100.029338,6.45913367 97.1353736,16.8751865 71.4532944,27.6752955 C70.0768785,28.2540553 68.710119,28.8641094 67.3541302,29.5053102 C61.6297106,28.8518574 55.9520877,28.0241456 50.2670368,27.0107347 L45.7920137,26.2131363 L45.948374,42.9263158 C43.681336,44.7434511 41.4744651,46.657643 39.3355608,48.6644631 C36.3546138,46.1690388 32.7772322,43.2075216 32.7772322,43.2075216 L32.8638432,55.2528702 C17.1645678,72.590201 6.20486521,95.432448 3.7958402,121.66614 C2.54192751,135.320118 4.16029702,142.86027 7.96571939,146.822614 C7.96571939,146.822614 7.76155969,131.900996 26.4015964,123.817622 L56.618383,111.430915 L54.0887637,117.341771 L74.3970269,111.044534 C73.1532015,109.247326 71.8666649,107.247518 70.8646222,105.361742 L64.3840281,107.28885 L68.8326817,99.4246839 L23.857641,117.861743 C17.7316987,120.518436 13.2197211,123.884418 9.93949836,127.394323 C9.99825416,125.819275 10.1101205,124.10953 10.280594,122.254015 C10.4369914,120.550912 10.6313832,118.863308 10.8629152,117.191573 L63.1780857,96.5358669 L12.1323674,109.86251 C12.4947815,108.125455 12.8973813,106.407222 13.3388298,104.709285 L60.5106763,91.6210399 L72.8549657,91.6210399 C74.3959127,99.16193 77.2219108,103.988557 77.2219108,103.988557 L73.5275748,104.827377 C76.4924772,111.52465 83.1405736,118.15033 83.1405736,118.15033 L80.4174539,119.052255 C80.4174539,119.052255 91.9706569,130.001565 107.555429,128.014673 C123.140201,126.027781 119.513832,119.73571 119.513832,119.73571 C123.53203,118.406072 134.701575,116.495939 132.125159,105.866215 C130.377713,98.655243 124.633237,96.2996836 124.633237,96.2996836 C125.886348,101.942988 119.793497,102.817236 117.793869,101.572107 C116.788484,100.945852 113.083377,99.1290858 116.576413,91.6210399 L118.949301,91.6210399 C117.035466,95.3420341 117.116803,97.2624996 117.386441,98.1360088 C117.532773,98.6083754 117.773442,98.919104 118.024138,99.1504899 C118.155615,99.2722719 118.296747,99.3774473 118.443451,99.4752419 C118.634723,99.6021904 118.804082,99.6981399 118.927388,99.7748995 C120.176784,100.553197 123.189598,99.6413083 122.548929,96.7569197 L121.667964,92.7897782 L125.446979,94.3397312 C125.65905,94.4264547 132.209839,97.1565861 134.200182,105.369861 C135.01801,108.743961 134.63918,111.452688 133.560628,113.60823 L145.605939,117.341771 L143.075948,111.430915 L173.292846,123.817622 C191.932771,131.900996 191.728872,146.822614 191.728872,146.822614 C195.533886,142.86027 197.152456,135.320118 195.898602,121.66614 Z" id="path36" fill="#FDDD04"></path>
                        <path d="M187.914573,109.86251 C188.416337,112.269365 188.840478,114.712756 189.184025,117.191573 L137.664621,97.1506815 L187.914573,109.86251" id="path38" fill="#FDDD04"></path>
                        <path d="M159.578455,60.7755001 L162.429708,59.6757716 C164.266291,61.7095313 166.034536,63.8237409 167.727387,66.0150792 L159.578455,67.3362295 L159.578455,60.7755001" id="path40" fill="#FDDD04"></path>
                        <path d="M184.339828,96.8451194 C185.221908,99.4147199 186.013366,102.037093 186.707888,104.709285 L138.227666,90.9176565 L184.339828,96.8451194" id="path42" fill="#FDDD04"></path>
                        <path d="M178.690061,83.4221578 C179.966941,85.9600213 181.152085,88.5650493 182.237693,91.2331826 L139.810953,84.3170711 L178.690061,83.4221578" id="path44" fill="#FDDD04"></path>
                        <path d="M171.461834,71.1557564 C173.008352,73.4231162 174.477247,75.762069 175.861091,78.1692935 L139.810953,77.5090874 L171.461834,71.1557564" id="path46" fill="#FDDD04"></path>
                        <path d="M132.649579,46.4775533 C132.471306,47.0510359 132.370656,47.7005399 132.370656,48.4360295 L132.380312,65.2301387 L130.332402,62.9262444 L130.324231,51.2082311 C130.324231,48.8740757 131.335558,47.4042037 132.649579,46.4775533" id="path48" fill="#FDDD04"></path>
                        <path d="M107.817639,76.9964958 L107.821353,78.3338837 L109.167685,78.3150629 C111.516432,78.2822186 116.560071,78.3445858 121.437694,78.1895905 C126.1519,78.0393927 131.252364,77.6899152 133.278362,76.603841 C133.835466,76.3049215 134.362856,75.9583963 134.879848,75.5941574 L134.918474,86.5357181 L132.690062,84.6676557 L132.661092,79.1560969 C132.144101,79.5199668 131.705846,79.4373026 131.08969,79.5970954 C126.584955,80.7625124 123.933145,80.6850147 119.218939,80.8348435 C114.341316,80.9898388 105.602969,80.9795058 105.602969,80.9795058 C105.602969,80.9795058 105.463321,27.9645832 105.463321,26.627269 C102.296005,26.7414489 100.146701,26.8192786 96.9767849,26.8192786 C94.8367664,26.8192786 95.3998119,26.791195 93.2601648,26.7490879 L90.5578436,24.0551221 C93.4365808,24.12332 96.3160607,24.1737673 99.1955407,24.1737673 C102.365086,24.1737673 105.533888,24.0961958 108.701576,23.982016 C108.197212,24.6876874 107.712532,25.5980264 107.712532,26.5998865 C107.712532,37.8723621 107.782727,65.7242785 107.817639,76.9964958" id="path50" fill="#FDDD04"></path>
                        <path d="M125.19294,39.5798936 C123.994426,39.7876611 122.806311,40.0537364 121.684677,40.4600455 C121.258678,40.6143027 120.862021,40.7914402 120.501761,40.9962554 C120.553757,40.6866338 120.611696,40.4412246 120.676692,40.2674085 C121.143172,39.0252319 122.263692,38.2192564 123.731102,37.6878439 C124.852736,37.2819039 126.040851,37.0158286 127.239365,36.8077659 C128.49099,36.5901082 129.753014,36.435851 130.968613,36.2628836 C138.946329,35.1273586 146.823766,33.5751176 154.685976,31.7090111 L154.713831,65.2301387 L152.665177,63.2724005 L152.639179,34.4815448 C144.777341,36.3469132 136.899532,37.8989328 128.921817,39.0348268 C127.706589,39.2079049 126.444194,39.3621621 125.19294,39.5798936" id="path52" fill="#FDDD04"></path>
                        <path d="M75.9669433,80.9772916 C72.1218181,80.8938894 70.0189398,80.6529086 67.7444737,79.8174101 L65.7578442,75.9617177 C66.2792927,76.3218972 66.8334245,76.6555061 67.4246966,76.9392951 C69.5398311,77.9545143 74.0181968,78.2412556 78.1853277,78.3316695 C81.9758568,78.4139646 87.9171751,78.3290863 90.3765994,78.31617 L92.7052902,80.9669586 C92.7052902,80.9669586 80.248466,81.0699197 75.9669433,80.9772916" id="path54" fill="#FDDD04"></path>
                        <path d="M53.4726078,36.0874437 L51.0157833,32.6183538 C56.1511592,33.5034507 61.2843067,34.2408224 66.454223,34.8383292 L66.3316604,35.0242867 C65.7582156,35.9166167 65.2367672,37.050518 65.2367672,38.3395622 C65.2367672,44.5349456 65.3017625,57.7497706 65.3017625,57.7497706 L73.9468877,57.7497706 C75.7441021,57.7497706 77.268336,57.0519227 78.5734428,56.1559023 L78.6035264,65.2164844 L76.3253463,63.7060183 L76.3543156,58.9557816 C75.0495803,59.852171 73.5253464,60.5496499 71.7281319,60.5496499 L63.0830068,60.5496499 C63.0830068,60.5496499 63.0180114,49.1700429 63.0180114,42.9739215 C63.0180114,41.6852464 63.4566372,37.638024 63.4566372,37.638024 C59.040667,37.1283847 57.8592372,36.8067695 53.4726078,36.0874437" id="path56" fill="#FDDD04"></path>
                        <path d="M39.7184763,56.314588 C41.4012989,57.2988081 43.2609089,57.5194918 44.9526451,57.58149 C46.2956349,57.6305718 49.6987917,57.5693118 51.0053841,57.6656303 L53.5832856,60.5555544 L47.4922922,60.5396859 C43.3188476,60.5396859 41.7842144,60.1009016 40.2711225,59.3893994 L38.1143909,54.8181453 C38.2607233,54.9923305 38.4059415,55.159504 38.5489313,55.3144993 C38.8746508,55.6676671 39.2735366,56.0544173 39.7184763,56.314588" id="path58" fill="#FDDD04"></path>
                        <path d="M116.609468,113.216313 L116.920703,114.897274 C113.391641,115.092494 112.111046,113.819687 112.111046,113.819687 L116.609468,113.216313" id="path60" fill="#53369A"></path>
                        <path d="M173.292846,123.817622 L143.075948,111.430915 L145.605939,117.341771 L133.560628,113.60823 C134.63918,111.452688 135.01801,108.743961 134.200182,105.369861 C132.209839,97.1565861 125.65905,94.4264547 125.446979,94.3397312 L121.667964,92.7897782 L122.548929,96.7569197 C123.189598,99.6413083 120.176784,100.553197 118.927388,99.7748995 C118.804082,99.6981399 118.634723,99.6021904 118.443451,99.4752419 C118.296747,99.3774473 118.155615,99.2722719 118.024138,99.1504899 C117.773442,98.919104 117.532773,98.6083754 117.386441,98.1360088 C117.116803,97.2624996 117.035466,95.3420341 118.949301,91.6210399 L116.576413,91.6210399 C113.083377,99.1290858 116.788484,100.945852 117.793869,101.572107 C119.793497,102.817236 125.886348,101.942988 124.633237,96.2996836 C124.633237,96.2996836 130.377713,98.655243 132.125159,105.866215 C134.701575,116.495939 123.53203,118.406072 119.513832,119.73571 C119.513832,119.73571 123.140201,126.027781 107.555429,128.014673 C91.9706569,130.001565 80.4174539,119.052255 80.4174539,119.052255 L83.1405736,118.15033 C83.1405736,118.15033 76.4924772,111.52465 73.5275748,104.827377 L77.2219108,103.988557 C77.2219108,103.988557 74.3959127,99.16193 72.8549657,91.6210399 L60.5106763,91.6210399 L13.3388298,104.709285 C12.8973813,106.407222 12.4947815,108.125455 12.1323674,109.86251 L63.1780857,96.5358669 L10.8629152,117.191573 C10.6313832,118.863308 10.4369914,120.550912 10.280594,122.254015 C10.1101205,124.10953 9.99825416,125.819275 9.93949836,127.394323 C13.2197211,123.884418 17.7316987,120.518436 23.857641,117.861743 L68.8326817,99.4246839 L64.3840281,107.28885 L70.8646222,105.361742 C71.8666649,107.247518 73.1532015,109.247326 74.3970269,111.044534 L54.0887637,117.341771 L56.618383,111.430915 L26.4015964,123.817622 C7.76155969,131.900996 7.96571939,146.822614 7.96571939,146.822614 C4.16029702,142.86027 2.54192751,135.320118 3.7958402,121.66614 C6.20486521,95.432448 17.1645678,72.590201 32.8638432,55.2528702 L32.7772322,43.2075216 C32.7772322,43.2075216 36.3546138,46.1690388 39.3355608,48.6644631 C41.4744651,46.657643 43.681336,44.7434511 45.948374,42.9263158 L45.7920137,26.2131363 L50.2670368,27.0107347 C55.9520877,28.0241456 61.6297106,28.8518574 67.3541302,29.5053102 C68.710119,28.8641094 70.0768785,28.2540553 71.4532944,27.6752955 C97.1353736,16.8751865 100.029338,6.45913367 100.029338,6.45913367 C100.029338,6.45913367 102.86165,16.9119425 128.241408,27.6752955 C130.193497,28.5030073 132.127388,29.3943409 134.038622,30.3464549 C141.083005,29.223514 148.057935,27.780065 155.023952,26.0917234 L159.672419,24.9651659 L159.691732,48.1090633 C179.149485,66.0833509 193.139828,91.6273135 195.898602,121.66614 C197.152456,135.320118 195.533886,142.86027 191.728872,146.822614 C191.728872,146.822614 191.932771,131.900996 173.292846,123.817622 Z M126.259607,113.12553 C131.192197,108.780495 127.286162,103.971951 127.286162,103.971951 C127.286162,103.971951 126.03788,108.969073 117.126459,109.495688 L108.301576,110.017505 L106.590527,107.550128 L108.672235,108.472719 C108.672235,108.472719 118.952272,108.538038 121.547258,106.253703 L104.778827,106.52273 C104.181242,110.409791 108.383656,114.738957 112.899162,116.348694 C112.899162,116.348694 122.506961,116.430989 126.259607,113.12553 Z M106.776228,91.6210399 L103.631567,91.6210399 C104.313461,93.2861322 105.412439,95.3029162 106.796655,95.5357782 C106.796655,95.5357782 106.493219,93.9241962 106.776228,91.6210399 Z M102.701576,115.457102 C102.741316,115.90991 102.916246,116.318433 103.183284,116.646506 L104.198697,116.22396 L104.851622,114.171379 L106.230267,115.37739 L107.109004,115.011306 C106.971956,113.831866 105.913461,112.967951 104.715318,113.072389 C103.496748,113.178302 102.594984,114.246293 102.701576,115.457102 Z M82.665179,107.66785 C82.665179,107.66785 85.00984,112.938797 92.5303598,117.934074 L89.504176,118.768466 C89.504176,118.768466 96.8393662,125.231031 106.208725,124.636883 C116.447165,123.988117 116.353943,119.73571 116.353943,119.73571 C116.353943,119.73571 114.11476,117.563193 112.114389,120.570101 C112.114389,120.570101 112.172328,117.388639 109.555058,118.026703 C105.558029,119.001328 97.8458657,121.801207 97.8458657,121.801207 L101.764157,117.651023 C101.764157,117.651023 100.504361,116.621412 100.511047,114.458489 C100.521075,111.113174 103.445123,110.893967 103.445123,110.893967 C101.868893,108.753555 102.664064,106.521623 102.664064,106.521623 C102.664064,106.521623 98.489134,105.8068 97.1153179,101.780243 C97.1153179,101.780243 99.7370449,102.1836 101.416153,102.048902 C101.416153,102.048902 97.4068685,98.4179526 98.4861628,93.4606864 C98.4861628,93.4606864 100.165271,96.4775591 102.615411,97.2842727 C102.615411,97.2842727 101.948373,94.7615398 102.368057,91.6210399 L82.996841,91.6210399 C83.319218,93.8507579 83.6178252,96.324409 83.9182895,99.070778 L81.0789209,97.8655051 C81.0789209,97.8655051 82.1051047,102.67405 85.5977694,108.038732 L82.665179,107.66785 Z M76.7060334,93.335214 C76.7060334,93.335214 76.7164326,92.6923526 76.6870919,91.6210399 L73.3366741,91.6210399 L76.7060334,93.335214 Z M15.7065177,96.8451194 L60.4129976,90.2216538 L60.5444739,84.8599237 L17.8091732,91.2331826 C17.0604267,93.0743053 16.3588111,94.9453199 15.7065177,96.8451194 Z M21.3566197,83.4221578 L60.5470737,83.9377017 L60.5775287,78.1674483 L24.1856633,78.1692935 C23.1986995,79.8860509 22.2548184,81.6374977 21.3566197,83.4221578 Z M32.9416148,66.1158261 L32.3195164,66.0150792 C31.0297857,67.6845999 29.7839918,69.3987741 28.5850318,71.1557564 L60.5834711,76.9721394 L60.5923847,70.5988805 L32.9738153,70.5988805 L32.9416148,66.1158261 Z M79.8570082,53.3032508 C78.1355598,54.8539418 76.278921,56.3367301 73.9090047,56.3367301 L66.5868136,56.3367301 C66.5868136,56.3367301 66.5299891,44.518708 66.5299891,38.3262769 C66.5299891,36.5422442 67.9855136,34.8980024 69.0967485,33.7146503 C62.5660151,33.0198285 56.1039912,32.1037325 49.6323107,30.9500509 L49.8354676,56.3367301 C46.7171762,55.9326353 43.1234901,56.7131473 40.3275756,55.0775779 C39.2430817,54.4428353 37.7429888,52.0632884 36.6340195,51.19716 L36.7447345,66.6033232 L79.9012051,66.6033232 L79.8570082,53.3032508 Z M99.1576577,22.8384459 C95.8343523,22.8384459 92.5110469,22.7706908 89.1888557,22.6868089 L89.1777136,76.9798891 C84.5292458,76.958116 71.5602582,77.4611126 67.9654579,75.7354983 C66.6388098,75.0989105 65.4900634,74.1600819 64.4018554,73.1865638 L64.3286892,87.8457974 L136.215781,87.8457974 L136.163785,73.0216045 C134.964156,73.7984262 133.870006,74.7498021 132.60761,75.4269839 C129.247165,77.2293578 113.798697,76.9145697 109.110489,76.9798891 C109.075578,65.709517 109.005383,37.8583387 109.005754,26.5876345 C109.005754,25.1276157 110.788112,23.5135242 111.761928,22.5239162 C107.562486,22.7012013 103.361186,22.8384459 99.1576577,22.8384459 Z M155.877062,29.9852051 C147.556914,32.001657 139.22488,33.6723956 130.77957,34.8746793 C128.327573,35.2239354 125.685048,35.4992735 123.321074,36.3551427 C121.741873,36.9272599 120.189041,37.9077896 119.511232,39.7138538 C118.441223,42.5642911 119.08412,57.0419587 119.08412,61.2899369 C119.08412,63.7255772 118.339459,64.7289873 117.027295,66.6029542 L133.573256,66.6029542 L133.563228,48.4227442 C133.563228,43.4481333 139.478177,43.5647488 142.629523,43.0621212 L142.606496,66.6029542 L155.907517,66.6029542 L155.877062,29.9852051 Z M162.429708,59.6757716 L159.578455,60.7755001 L159.578455,67.3362295 L167.727387,66.0150792 C166.034536,63.8237409 164.266291,61.7095313 162.429708,59.6757716 Z M171.461834,71.1557564 L139.810953,77.5090874 L175.861091,78.1692935 C174.477247,75.762069 173.008352,73.4231162 171.461834,71.1557564 Z M178.690061,83.4221578 L139.810953,84.3170711 L182.237693,91.2331826 C181.152085,88.5650493 179.966941,85.9600213 178.690061,83.4221578 Z M184.339828,96.8451194 L138.227666,90.9176565 L186.707888,104.709285 C186.013366,102.037093 185.221908,99.4147199 184.339828,96.8451194 Z M187.914573,109.86251 L137.664621,97.1506815 L189.184025,117.191573 C188.840478,114.712756 188.416337,112.269365 187.914573,109.86251 Z" id="path62" fill="#53369A"></path>
                        <polyline id="path64" fill="#53369A" points="117.320331 20.2505781 118.072049 20.2505781 118.072049 17.5386033 118.981613 17.5386033 118.981613 20.2505781 119.734073 20.2505781 119.734073 21.0160334 117.320331 21.0160334 117.320331 20.2505781"></polyline>
                        <polyline id="path66" fill="#53369A" points="122.899533 21.0160334 122.147815 19.1571601 121.437694 21.0160334 120.541873 21.0160334 119.947629 17.5386033 120.852365 17.5386033 121.144658 19.540183 121.154315 19.540183 121.957286 17.5386033 122.319403 17.5386033 123.159143 19.540183 123.168799 19.540183 123.423952 17.5386033 124.333516 17.5386033 123.804639 21.0160334 122.899533 21.0160334"></polyline>
                    </g>
                </g>
            </g>
        </g>
    </g>
</svg>