<svg width="200" height="200" xmlns="http://www.w3.org/2000/svg"><path d="M198.81 1.326v67.1h-24.85c0-12.356-12.237-22.365-27.335-22.365-11.032 0-20.532 5.348-24.852 13.049v83.864c0 17.817 13.866 32.265 30.985 32.304h.077v24.852H45.977v-24.852h.073c17.121-.04 30.992-14.487 30.992-32.304V59.11c-4.322-7.701-13.82-13.05-24.853-13.05-15.095 0-27.336 10.01-27.336 22.366H0v-67.1h198.81m-32.56 187.629c1.083 0 2.042.086 2.042 1.226 0 1.225-1.675 1.02-2.9 1.02h-1.39v-2.246h2.247zm.94 3.553c1.202-.04 2.407-.694 2.407-2.47 0-1.9-1.47-2.39-3.103-2.39h-3.798v9.027H164v-4.167h1.675l2.309 4.167h1.491l-2.286-4.167zm-1.39 7.62c4.494 0 8.047-3.553 8.047-8.027 0-4.473-3.553-8.028-8.047-8.028-4.495 0-8.048 3.555-8.048 8.028 0 4.474 3.553 8.027 8.048 8.027zm0-14.75c3.676 0 6.741 2.928 6.741 6.723 0 3.78-3.065 6.72-6.741 6.72-3.677 0-6.74-2.94-6.74-6.72 0-3.795 3.063-6.722 6.74-6.722z" fill="#F47216"/></svg>