<svg width="200" height="200" xmlns="http://www.w3.org/2000/svg"><g fill="none" fill-rule="evenodd"><path d="M178.796 49.61Zm-.837-11.315Zm-4.447 89.936.001.001a82.075 82.075 0 0 1-.001 0Zm-.003-.002-.068-.05a2.672 2.672 0 0 0-.045-.034l.115.085h-.002Zm-.489-.361c.102.074.207.152.311.23l.03.022-.34-.252Zm-2.235 37.934h-16.379v-14.466l1.856-.811c7.175-3.138 12.047-9.734 14.523-19.639v34.916Zm-16.124-152.93h.026a74.37 74.37 0 0 0-.026 0Zm.706 135.605Zm3.888-2.27Zm7.265-132.505Zm2.05 15.95a35.216 35.216 0 0 0-1.576-.937l-.122-.139.122.139c.533.298 1.059.611 1.575.938Zm-32.672-17.919c.2-.004.403-.006.608-.006h.041c-.219 0-.435.002-.649.006Zm-18.78 115.945.024.082-.042-.15.044.157a4.568 4.568 0 0 0-.027-.09Zm.245 54.873c-.69.778-1.48 1.527-2.382 2.226l-.118.087.118-.087c.902-.7 1.692-1.448 2.382-2.226Zm1.257-24.331Zm1.582 2.76Zm-7.543-150.557c.117-.001.238-.004.355-.004h.16c-.17 0-.343.003-.515.004Zm-3.825 140.573-1.858-.397 1.858.397.057.022-.057-.022Zm-21.257-25.678a47.974 47.974 0 0 1 9.972-1.05c3.308 0 6.574.358 9.706 1.056l-19.678-.006Zm-9.623 2.281.1-.02-.1.02Zm-2.943 39.59-.074-.025.074.025 2.654.46-2.654-.46Zm-2.563-150.3.451-.001h.039l-.49.001Zm-5.534 173.475Zm-10.24-72.96c2.206 4.965 4.673 9.993 7.852 14.435a21.3 21.3 0 0 0-3.029 3.642c-2.453 3.727-3.788 8.416-3.582 12.564-.223 8.075 4.285 13.819 9.047 17.37H56.675v-48.01Zm-2.234-3.78c.225.627.447 1.256.692 1.872-.245-.616-.467-1.245-.692-1.872Zm3.063.096Zm7.777-72.166Zm1.29-24.395ZM29.62 172.322V149.58v22.742l.017.106-.017-.106ZM48.632 94.95Zm-2.805-20.902Zm10.704-57.484Zm113.947-3.305Zm8.87 37.234c-.054-.068-.11-.137-.163-.207l.162.207Zm5.079 64.18Zm2.645-9.045Zm.859-39.885Zm.716 1.331Zm1.263 30.265Zm7.664 27.635h-18.415c1.574-2.683 2.92-5.488 4.157-8.26l1.948 1.92 1.24-3.137c1.909-4.807 3.13-10.028 3.588-15.291l1.606 1.137.432-3.748c.336-2.91.435-5.906.296-8.913 2.036-4.63 2.286-10.15.72-16.005-1.269-4.74-3.29-8.069-3.31-8.102-.728-1.189-1.743-2.217-3.085-3.124a29.05 29.05 0 0 0-5.647-12.338l-.028-.036-.136-.175c.002-.078.007-.174.011-.242l.35-6.47c.042-.774.095-1.737-.2-2.758-.295-1.02-.855-1.817-1.357-2.482a37.974 37.974 0 0 0-9.667-8.986c2.845-4.493 3.831-10.128 2.57-15.24l-.632-2.57-2.428 1.055c-.466.203-1.068.298-1.894.298-.294 0-.615-.011-1.043-.036-1.376-.081-2.797-.229-4.172-.371-2.158-.224-4.39-.456-6.653-.46l-.465-.002-.7-.001c-2.313 0-4.45.092-6.801 1.104-3.24-1.494-7.053-2.25-11.353-2.25-3.542 0-6.436.511-7.826.757l-.265.047-.15-.042a57.05 57.05 0 0 0-15.251-2.07c-3.815 0-7.6.39-11.246 1.159-6.472 1.364-12.099 3.681-16.744 6.892-2.225-.677-4.415-1.017-6.144-1.242-1.736-.225-3.748-.34-5.98-.34-3.956 0-7.494.353-8.653.482-.478-.123-1.439-.401-2.24-.633-1.703-.493-3.464-1.002-4.446-1.197l-1.478-.294-.826 1.26c-2.866 4.373-3.266 12.517-.93 18.944 1.436 3.945 3.717 6.94 6.696 8.831-5.018 4.35-14.168 14.37-17.392 31.592l-.62 3.315 3.294-.72c.227-.05.459-.116.692-.192-1.11 6.656-1.3 12.96-.585 19.165l.432 3.748 1.928-1.365c.224 2.92.65 5.842 1.277 8.741H27.215v18.307H.192v27.126l2.23.003 24.963.045v20.697l.03.183.036.213c2.168 13.01 13.164 18.315 18.675 19.303l.206.036.17.03.174.004.206.005c3.82.075 23.638.45 39.007.45 14.181 0 17.3-.318 18.413-.558 5.498-1.184 11.197-5.035 11.828-5.47l.026-.017.026-.019.118-.086.025-.02.025-.018c8.004-6.205 8.077-15.843 8.053-17.043-.02-6.947-3.541-11.998-3.973-12.591-1.29-1.797-2.927-3.288-4.526-4.473h10.132v19.956l.005.07.02.32.004.067.008.067c1.922 15.567 18.52 19.454 19.227 19.612l.278.062.243.055h34.22l.218-.044.256-.051c6.357-1.279 11.658-4.645 15.33-9.734 2.806-3.891 3.732-7.507 3.829-7.906l.134-.56v-49.376h-2.234Z" fill="#FFFFFE"/><path d="M117.276 128.222Zm78.35 45.671c-.028.118-2.995 11.869-15.85 14.454l-.115.012h-33.262l-.064-.014c-.143-.032-14.365-3.36-15.923-15.97l-.004-.07V148.78c-.174-.283-.4-.559-.52-.63h-43.94l22.444 4.8c.232.09 5.715 2.289 8.686 6.45.122.161 3.16 4.279 3.16 10.144.011.324.225 8.472-6.4 13.608-.25.173-5.552 3.801-10.331 4.83-1.625.35-8.532.467-16.987.467-16.189 0-38.061-.426-39.447-.454l-.09-.008c-.13-.024-12.997-2.478-15.218-15.805l-.008-.095v-24.555l-27.194-.049v-18.596h27.024v-18.306H52.51v57.277c.046.153.366 1.013 1.883 1.808h45.236c.113-.067.225-.144.308-.215a2.536 2.536 0 0 0-.3-.093L75.57 165.18c-.138-.046-13.756-4.732-13.28-17.21-.036-.823-.398-15.12 16.16-18.393l.113-.011 39.14.002-.068-.21c.144.43.305.886.487 1.37H78.62c-15.887 3.172-15.205 16.63-15.168 17.202l.002.03-.001.031c-.449 11.302 11.669 15.798 12.447 16.073l23.974 4.157c.342.084 1.255.312 1.338 1.066.083.762-.795 1.289-1.177 1.48l-.123.06H54.115l-.123-.06c-2.333-1.167-2.614-2.598-2.639-2.757l-.007-.088v-56.179H32.75v18.306H5.725v16.274l27.194.049v25.666c2.064 12.21 13.306 14.62 14.225 14.796 1.83.036 51.577.99 56.118.012 4.557-.98 9.837-4.595 9.89-4.631 6.133-4.756 5.926-12.571 5.923-12.65 0-5.485-2.905-9.44-2.935-9.48-2.645-3.703-7.623-5.827-8.132-6.038l-24.891-5.322c-.218-.087-.878-.354-.82-.95.036-.387.375-.67.927-.777l.11-.01h46.2a36.435 36.435 0 0 0 2.036 1.588v23.692c1.43 11.379 13.988 14.69 14.961 14.929h33.072c11.617-2.368 14.636-12.618 14.878-13.514v-43.294h-18.162v39.518c0 .866-.747 1.254-1.25 1.305l-.057.003H150.24c-.572 0-.955-.175-1.14-.52a.916.916 0 0 1-.022-.778V151.01c.392-.272.818-.574 1.252-.887-.03.021-.06.046-.09.067v19.863h24.732c.063-.012.185-.048.185-.146v-40.68h20.486l-.016 44.666ZM57.504 113.72c2.732 6.33 5.708 12.878 9.956 18.309 13.778-10.475 33.678-13.23 49.3-5.809.07.35.197.883.385 1.547-.019-.065-.043-.143-.06-.206l-38.879-.012-.251.05c-14.843 2.934-18.13 14.555-17.802 20.42-.36 11.121 9.426 17.36 14.673 19.108l.186.062 2.654.46H54.837a2.478 2.478 0 0 1-.397-.32v-53.705c.225.627.447 1.256.692 1.872.537-.528 1.835-1.247 2.371-1.776Zm97.637 32.52.227 2.237c9.125-3.991 12.761-13.761 14.191-22.793a27.823 27.823 0 0 1 3.462 2.183v40.17h-20.848v-19.28l-.068.05c1.178-.902 2.295-1.82 3.036-2.568Zm18.888-17.62Zm1.038-1.41c3.038-4.282 5.287-9.23 7.36-14.035.453.446 1.548 1.052 2 1.498 2.304-5.798 3.54-12.18 3.632-18.417.51.361 1.342.722 1.852 1.084.354-3.065.425-6.083.256-9.089 4.935-10.36-2-22.125-2.235-22.507-.748-1.22-1.872-2.154-3.206-2.924a26.9 26.9 0 0 0-5.378-12.325c-.215-.275-.44-.553-.551-.884-.114-.342-.096-.711-.076-1.07l.35-6.47c.037-.676.072-1.367-.116-2.017-.188-.651-.587-1.218-.995-1.759a35.532 35.532 0 0 0-10.965-9.58l-.122-.139c3.487-4.167 4.91-10.029 3.606-15.316-1.23.534-2.62.52-3.958.442-3.573-.21-7.121-.82-10.7-.827-3.073-.006-5.29-.093-7.973 1.353-8.374-4.444-19.035-1.599-19.558-1.663-.703-.085-11.968-4.007-26.06-1.036-6.007 1.267-11.907 3.543-16.828 7.183-2.187-.783-4.502-1.203-6.809-1.503-6.316-.82-14.464.19-14.464.19-.771-.127-5.393-1.583-7.002-1.902-3.896 5.943-2.925 22.715 8.154 26.057-.306.226-15.217 9.868-19.453 32.495 1.184-.259 2.94-1.28 4.123-1.538-1.62 7.477-2.194 14.84-1.318 22.44.605-.429 1.591-.858 2.197-1.286.072 4.98.775 10.03 2.05 14.9H29.45v18.307H2.426v22.66l27.194.048v22.742l.035.213c1.964 11.782 11.89 16.58 16.865 17.472l.203.036.207.005c3.377.066 23.5.45 38.959.45 8.847 0 16.167-.126 17.943-.509 5.169-1.113 10.794-4.962 11.03-5.125l.119-.087c7.217-5.595 7.208-14.379 7.188-15.25-.012-6.3-3.206-10.837-3.55-11.307-3.319-4.633-9.329-7.044-9.584-7.144l-.2-.08-3.717-.793h23.153v22.12l.02.32c1.73 14.017 16.854 17.561 17.496 17.705l.283.064h33.748l.256-.052c14.114-2.84 17.298-15.438 17.428-15.973l.072-.302V127.21h-22.508Z" fill="#272E63"/><path d="M174.158 105.64c-1.943 2.01-4.524 3.447-7.161 4.608a28.95 28.95 0 0 1 2.088 6.772c1.282.32 2.561.662 3.839 1.026a93.809 93.809 0 0 0 6.645-17.228 5.826 5.826 0 0 1 1.644 1.332c.303-1.912.531-3.835.687-5.764-.487.235-.915.392-1.213.413-1.813 3.32-4.891 7.188-6.529 8.842M133.997 107.44c.087-.11.173-.22.264-.327.68-.8 1.482-1.467 2.327-2.08a8.262 8.262 0 0 1 1.346-.942c.065-.036.132-.07.198-.106l.377-.245c.33-.213.665-.416 1.01-.602a131.32 131.32 0 0 1-1.548-2.094c-1.818-2.519-3.591-5.146-6.06-7.03-2.182-1.664-5.063-2.664-7.702-2.103 2.235 1.85 3.82 5.636 5.403 9.225a70.353 70.353 0 0 0 1.583 2.801c.457.755.947 1.491 1.509 2.172.4.485.835.917 1.293 1.332M147.227 111.625a3.805 3.805 0 0 0 1.817-.75 17.305 17.305 0 0 0 1.319-5.387 31.453 31.453 0 0 1-6.312 4.468c.146.462.29.924.432 1.386.903.243 1.823.401 2.744.283" fill="#FFFFFE"/><path d="M139.538 120.535c.968-.194 1.766-.883 2.709-1.174.635-.196 1.312-.203 1.977-.21l11.749-.105c1.419 1.542 3.578-.035 3.928-.666 1.294-2.337 2.43-5.471 1.392-9.647-2.169 2.169-3.427 3.849-5.66 5.335l1.228.74s-1.14 1.52-1.904 2.331l-.127-1.224c-4.002-.1-8.007-.117-12.01-.053l-.783 1.837a61.237 61.237 0 0 1-2.405-10.815 12.062 12.062 0 0 0-4.274 7.616c-.195 1.422-.115 2.94.599 4.185.713 1.246 2.174 2.133 3.581 1.85M129.725 108.673c-.14-.17-.276-.341-.408-.516.397 1.082.778 2.17 1.152 3.254l.84 2.432c.047-.303.101-.604.164-.904.14-.67.332-1.331.568-1.974a14.68 14.68 0 0 1-.604-.52 16.411 16.411 0 0 1-1.712-1.772M171.553 57.11c1.908 1.47 4.617 2.373 7.329 3.299.011-1.507-.486-3.041-1.128-4.43a42.935 42.935 0 0 0-.83-1.669c-.293 1.16-1.012 2.213-2.94 2.856 1.322-2.744 1.653-5.084 1.085-7.019.038.13-.853.078-.925.193.069 1.04-.178 3.741-.298 4.029-.13.313-1.678 2.145-2.293 2.742M175.674 95.578s-5.638.102-8.581.485c-7.76 1.876-17.677 1.786-23.042-.166a52.056 52.056 0 0 1-1.06 9.118c3.67-.699 7.044-2.894 9.137-5.993 5.023.085 10.048.018 15.066-.2a37.157 37.157 0 0 1-1.25 6.137c4.781-1.61 8.456-4.507 9.73-9.381M168.359 54.996c.27.353.505.903.753 1.271 1.054-.441 2.305-1.51 2.709-2.58.439-1.165.122-2.523-.502-3.597a8.402 8.402 0 0 0-1.403.102c.593.511.966 1.238.966 2.046 0 1.386-1.091 2.534-2.523 2.758M162.662 25.037c1.916-1.799 3.172-4.296 3.441-6.912-3.41-.183-6.823-.276-10.238-.281-.762-.002-1.58.026-2.309.23.149.093 5.167 1.92 9.106 6.963" fill="#FFFFFE"/><path d="M160.884 35.25c2.862 0 6.283 2.473 7.512 8.152-2.032 2.61-3.75 4.122-6.443 5.216a45.4 45.4 0 0 0 2.072-5.25c-.292-2.022-.872-3.439-3.141-8.117Zm-3.343 15.43c-4.437-1.23-8.25-4.032-11.708-7.73.125-2.402 1.474-4.832 3.109-6.508.319 1.726.624 3.76.888 4.005 1.766 1.664 4.062 3.496 6.388 4.391.79-.958 1.158-2.449 1.228-4.035l-2.386-4.361c3.143 1.014 4.83 3.183 6.086 5.702.31.62-3.243 8.87-3.605 8.537Zm-4.418 7.66c-2.004.504-4.707 2.772-6.9 3.095-.143.022-1.311-.377-2.404-.863-3.523-1.065-7.836 1.698-12.67.678-.716-.15-3.048-1.248-3.772-2.117-.196-.234-.924-2.806-1.074-5.511-.434-.064-.865-.141-1.294-.232-.523 2.87.277 5.966 2.156 8.203-1.439-.418-2.666-1.41-3.572-2.602-.907-1.194-1.519-2.585-2.022-3.996-.35-.98-.65-1.98-.85-3a21.473 21.473 0 0 1-6.148-4.116c5.72.835 18.485 1.325 18.986 1.613 3.18 1.824 8.97 3.657 12.97 7.264.833-1.337.895-3.12.158-4.512 1.642.775 2.876 2.345 3.278 4.111.368-.413 1.605-1.376 1.825-1.37 1.404.046 4.25 2.073 5.602 4.196-1.053-.328-3.99-.911-4.27-.841Zm-27.29-12.616c-4.561-.565-6.416 0-10.961-3.61 1.537-6.547 7.286-9.892 10.427-9.892-3.476 3.877-4.233 8.308-4.228 8.436.005.137 1.955 2.727 4.763 5.066Zm-16.958-6.387c-.138.191-.278.392-.318.624-.048.281.06.563.165.828l1.602 4.034c-.483-.35-.952-.718-1.397-1.115-1.354-1.208-2.504-2.702-3.033-4.438-.083-.27-.15-.556-.092-.833.05-.24.19-.45.33-.652a49.392 49.392 0 0 1 1.909-2.592c1.012-1.285 2.087-2.518 3.162-3.752l4.898-5.618c.156-.18.314-.36.502-.506.363-.278.815-.408 1.262-.506 3.404-.742 6.93.099 10.31.947 5.28 1.324 10.745 2.77 14.934 6.246a102.509 102.509 0 0 0-23.416-3.046c-.418-.006-.846-.008-1.24.132-.442.156-.803.474-1.15.79a61.278 61.278 0 0 0-8.428 9.457ZM95.32 43.072c-1.722 11.664.79 23.259 3.44 34.533 6.127.977 13.29-.742 19.829-2.203-5.696 6.61-13.165 10.102-22.031 10.532-12.216-18.975-6.94-46.413-6.772-46.782.117-.257 11.343-12.35 17.357-17.56 1.28-1.109 2.6-2.198 4.113-2.957 3.045-1.528 6.657-1.595 9.985-.865 3.327.73 6.438 2.203 9.516 3.664a56.867 56.867 0 0 0-8.483-.966c-1.518-.058-3.063-.051-4.52.379-2.057.607-3.776 2.008-5.362 3.452-3.453 3.143-12.234 12.951-17.072 18.773Zm21.923 69.238c-7.487-7.518-28.605-15.493-29.088-15.804-.496-.319-2.99-3.75-3.885-4.982l.184 4.458c-1.21-1.535-4.24-5.378-4.447-5.821-.247-.532-.32-1.123-.428-1.7-2.484-13.28-2.14-30.565 3.658-42.737-1.129 10.954-.206 33.028 6.935 44.772 7.36-.015 14.922-.34 21.677-3.26a28.387 28.387 0 0 1-8.08 7.587 38.826 38.826 0 0 1 13.474 17.487ZM73.91 106.33c-4.337-5.897-9.263-18.392-9.263-18.392-2.135-22.057 7.999-35.255 11.8-39.868-4.92 14.47-5.36 35.634-5.242 36.116.321 1.315 6.222 12.26 6.222 12.26.865 1.037 14.92 8.467 26.433 12.937-8.864.126-29.659-2.657-29.95-3.053Zm62.072-58.8c-4.735-1.533-7.409-3.209-9.748-6.617 2.072-5.345 5.58-6.818 11.162-7.152-4.679 3.743-5.586 7.13-5.581 7.257.005.137 1.17 3.37 4.167 6.512Zm6.627 1.47c-2.692-1.095-4.41-2.607-6.443-5.217 1.23-5.678 4.65-8.152 7.513-8.15-2.27 4.678-2.85 6.095-3.141 8.116 0 0 .811 2.6 2.071 5.251Zm44.027 28.783c-.107-3.788-1.03-7.764-3.677-10.477-.956-.98-6.394-3.408-8.52-4.21.882 1.219.28 2.073-.01 3.071-1.374-2.22-5.364-5.672-5.404-5.653-.017-.063-1.755-4.242-3.138-5.808l-2.303-1.746a25.511 25.511 0 0 1 2.132-3.209c.115-.148.234-.296.384-.41.214-.16.478-.24.735-.314 1.556-.45 3.16-.885 4.469-1.838 1.039-.756 1.86-1.927 2.007-3.173-1.831 1.607-4.065 2.687-7.206 3.704 2.997-3.141 4.162-6.374 4.167-6.512.005-.127-.902-3.514-5.581-7.257a25.69 25.69 0 0 1 2.876.318l-.092-.098c-.718-.76-1.47-1.526-2.419-1.966-.896-.416-1.902-.513-2.886-.594-3.64-.302-7.288-.483-10.94-.544 2.175-1.92 4.919-3.145 7.783-3.591-1.138-1.634-2.229-3.105-4.205-4.006-2.687-.87-9.225-.856-13.979.221a20.928 20.928 0 0 1 6.9-4.109c-7.167-4.825-19.48-2.37-19.48-2.37s-20.674-7.488-36.522 4.687c1.843 1.406 2.586 2.985 3.091 5.224-2.904-2.72-6.743-4.29-10.656-5.008-3.914-.718-7.929-.636-11.901-.407C78.28 23.93 83.592 28 87.358 33.19c-2.362.735-5.047.155-7.293-.97-2.53-1.268-4.687-3.156-7.053-4.708-3.948-2.59-8.434-4.217-12.874-5.821-.33 4.17 1.077 8.451 3.815 11.614.873 1.009 1.888 1.915 3.078 2.517 2.658 1.344 5.817 1.024 8.775.67-.878 5.824-16.846 16.832-19.427 27.704l3.463-2.178a67.02 67.02 0 0 0-3.55 17.714l1.884-1.179c-.647 7.361-.389 14.801.766 22.1a6.911 6.911 0 0 1 1.948-1.579 111.185 111.185 0 0 0 7.877 20.422c10.392-2.963 20.885-4.8 31.68-4.305 5.522.253 11.55 1.584 16.454 4.1.022-1.087.099-2.172.235-3.25.986 2.931 2.533 5.637 4.103 8.302a374.367 374.367 0 0 0 8.545 13.808l.363-3.36a99.513 99.513 0 0 0 16.594 11.586 49.917 49.917 0 0 0 10.791-8.985l.436 2.279a34.912 34.912 0 0 0 5.423-10.793l1.082.892c.539-3.36.22-6.85-.893-10.065a23.065 23.065 0 0 1-2.607 5.264c-7.83-2.938-17-2.043-24.115 2.353-2.665-1.187-4.819-3.335-6.417-5.776-1.597-2.442-2.682-5.18-3.652-7.932-2.042-5.791-3.731-11.922-7.245-16.881-.505-.563-1.068-1.06-1.732-1.423-1.424-.778-2.722.179-4.423.588 2.55-10.413 8.933-19.834 17.62-26.108l.106-.263c-7.034 2.233-17.476 1.584-19.07 1.39-3.237-.394-6.184-1.213-9.16-3.295.933-4.496 2.99-14.416 2.94-14.882-.05-.467-1.712-4.23-2.351-5.676 2.035 1.175 6.487 4.935 6.71 5.44.208.476.405 8.891.943 9.658.482.69 2.793 2.741 3.446 2.866 3.089.589 8.047.503 11.18.234 3.647-.314 7.239-1.086 10.867-1.578 3.627-.492 7.351-.7 10.922.106 3.572.805 7.003 2.725 9.03 5.774-4.73-1.923-9.859-3.88-14.814-2.65-1.436.356-2.774.964-4.078 1.665 5.183 1.035 11.233 3.253 15.215 7.235-3.117-1.141-12.589-3.128-13.505-3.225-2.496-.265-5.27.208-6.942 2.08 2.082 1.105 4.369 1.757 6.636 2.4l12.815 3.638c-4.827 1.201-6.427 1.602-13.889-.563-1.768-.513-4.279-1.409-6.114-1.562-1.543-.13-3.238.307-4.27 1.405a71.343 71.343 0 0 0 21.478 6.703c-6.026 1.166-12.315.783-18.227-.863-1.374-.383-2.74-.839-4.037-1.431 1.654 1.447 3.592 2.599 5.561 3.599 11.56 5.87 25.274 7.347 37.828 4.131.832-1.322.896-3.112.113-4.472-.481-.838-1.27-1.592-1.264-2.558l4.548 1.182 1.052-1.069c-2.763-.988-5.649-1.585-8.526-2.161-.23-.047-.467-.095-.67-.215-.188-.11-.336-.276-.48-.44a34.052 34.052 0 0 1-4.536-6.608l5.56 3.919 3.773-1.657c.176-.078.356-.156.547-.18.23-.027.46.028.684.08a85.929 85.929 0 0 0 8.204 1.518 18.725 18.725 0 0 1 2.408-1.874c.075-1.608.094-3.22.057-4.829a40.422 40.422 0 0 1 2.142 6.452c.039.161.077.324.072.49-.007.257-.135.491-.226.732-1.787 4.76-7.614 9.583-8.415 10.376a70.64 70.64 0 0 1-.356.35c2.373.402 4.981.527 7.753-.993 2.801-1.536 4.08-8.409 3.968-12.386Z" fill="#FFFFFE"/><path d="M137.796 54.884c-.28 1.405-1.612 2.47-3.214 2.47-1.807 0-3.272-1.353-3.272-3.022 0-1.115.656-2.086 1.628-2.61-.38-.2-.676-.325-.837-.338-1.08.198-2.054.97-2.506 1.981-.54 1.211-.359 2.69.376 3.794.734 1.104 1.976 1.83 3.286 2.036 1.27.2 2.61-.075 3.699-.758a5.45 5.45 0 0 0 2.136-2.558c-.058-.08-.57-.473-1.296-.995" fill="#FFFFFE"/><path d="M136.956 58.437a5.442 5.442 0 0 1-3.699.758c-1.31-.206-2.552-.932-3.286-2.036-.735-1.104-.917-2.583-.376-3.794.452-1.012 1.425-1.783 2.506-1.98.161.012.457.138.837.337-.972.524-1.628 1.495-1.628 2.61 0 1.67 1.465 3.022 3.272 3.022 1.602 0 2.933-1.065 3.214-2.47.726.522 1.238.915 1.296.995a5.45 5.45 0 0 1-2.136 2.558Zm14.834-3.451c-.22-.007-1.457.956-1.825 1.37-.402-1.767-1.636-3.337-3.278-4.112.737 1.392.675 3.175-.159 4.512-3.999-3.607-9.79-5.44-12.969-7.264-.501-.288-13.267-.778-18.986-1.613a21.473 21.473 0 0 0 6.148 4.116c.2 1.02.5 2.02.85 3 .503 1.411 1.115 2.802 2.022 3.996.906 1.193 2.133 2.184 3.572 2.602-1.879-2.237-2.68-5.333-2.156-8.203.429.091.86.168 1.294.232.15 2.705.878 5.277 1.074 5.511.724.869 3.056 1.966 3.772 2.117 4.834 1.02 9.147-1.743 12.67-.678 1.093.486 2.26.885 2.403.863 2.194-.323 4.897-2.591 6.9-3.095.28-.07 3.217.513 4.27.841-1.351-2.123-4.198-4.15-5.602-4.195ZM155.06 36.442l2.386 4.361c-.07 1.586-.437 3.077-1.228 4.035-2.326-.895-4.622-2.727-6.388-4.391-.264-.245-.57-2.28-.888-4.005-1.635 1.676-2.984 4.106-3.11 6.507 3.459 3.699 7.272 6.5 11.71 7.732.36.334 3.914-7.916 3.604-8.537-1.257-2.519-2.943-4.688-6.086-5.702M136.167 43.782c2.033 2.61 3.75 4.122 6.443 5.217-1.26-2.651-2.071-5.25-2.071-5.25.291-2.022.871-3.439 3.14-8.118-2.862 0-6.282 2.473-7.512 8.151" fill="#272E63"/><path d="M137.397 33.76c-5.581.334-9.09 1.807-11.162 7.152 2.339 3.408 5.013 5.084 9.748 6.617-2.998-3.142-4.162-6.375-4.167-6.512-.005-.127.902-3.514 5.58-7.257M168.396 43.402c-1.229-5.679-4.65-8.152-7.512-8.151 2.27 4.678 2.85 6.095 3.141 8.117 0 0-.812 2.599-2.072 5.25 2.693-1.094 4.411-2.607 6.443-5.216M114.872 42.115c4.545 3.609 6.4 3.044 10.962 3.609-2.808-2.34-4.758-4.93-4.763-5.066-.005-.128.752-4.559 4.228-8.436-3.141 0-8.89 3.345-10.427 9.893M103.77 94.823a28.387 28.387 0 0 0 8.08-7.588c-6.756 2.921-14.318 3.246-21.678 3.261-7.141-11.744-8.064-33.818-6.935-44.772-5.799 12.172-6.142 29.458-3.658 42.737.108.577.181 1.168.428 1.7.207.443 3.237 4.286 4.447 5.821l-.184-4.458c.895 1.232 3.389 4.663 3.885 4.982.483.31 21.6 8.286 29.088 15.804a38.826 38.826 0 0 0-13.473-17.487" fill="#272E63"/><path d="M77.428 96.445s-5.9-10.945-6.222-12.26c-.117-.482.321-21.646 5.241-36.116-3.8 4.613-13.934 17.81-11.799 39.868 0 0 4.926 12.495 9.263 18.392.291.396 21.086 3.18 29.95 3.053-11.513-4.47-25.568-11.9-26.433-12.937M117.304 29.88c.346-.316.707-.634 1.148-.79.395-.14.823-.138 1.241-.132a102.509 102.509 0 0 1 23.416 3.046c-4.19-3.477-9.654-4.922-14.934-6.246-3.38-.848-6.906-1.689-10.31-.947-.447.098-.9.228-1.262.506-.188.145-.346.326-.502.506l-4.898 5.618c-1.075 1.234-2.15 2.467-3.162 3.752a49.392 49.392 0 0 0-1.91 2.592c-.138.202-.278.412-.329.652-.058.277.01.563.092.833.53 1.736 1.68 3.23 3.033 4.438.445.397.914.765 1.397 1.115l-1.602-4.034c-.105-.265-.213-.547-.165-.828.04-.232.18-.433.318-.624a61.278 61.278 0 0 1 8.429-9.458" fill="#272E63"/><path d="M112.392 24.3c1.586-1.445 3.305-2.846 5.363-3.453 1.456-.43 3.001-.437 4.519-.379 2.846.109 5.685.432 8.483.966-3.078-1.461-6.189-2.933-9.516-3.664-3.328-.73-6.94-.663-9.985.865-1.514.76-2.834 1.848-4.113 2.957-6.014 5.21-17.24 17.303-17.357 17.56-.167.369-5.444 27.807 6.772 46.782 8.866-.43 16.335-3.923 22.03-10.532-6.537 1.461-13.701 3.18-19.827 2.203-2.65-11.274-5.163-22.869-3.44-34.533 4.837-5.822 13.618-15.63 17.07-18.773" fill="#272E63"/><path d="M134.528 53.066c.158.302-.099.676-.575.837-.475.16-.99.045-1.148-.257-.158-.302.1-.676.575-.837.476-.16.99-.045 1.148.257M167.026 52.295c.047.363.448.532.895.38.447-.152.771-.569.724-.93-.047-.363-.447-.533-.894-.38-.447.151-.771.568-.725.93M175.157 129.227v40.68c0 .098-.122.134-.185.146H150.24V150.19a84.92 84.92 0 0 1-1.162.82v18.907a.916.916 0 0 0 .023.779c.184.344.567.519 1.139.519h24.772l.058-.003c.502-.05 1.25-.44 1.25-1.305V130.39h18.16v43.294c-.241.896-3.26 11.146-14.877 13.514H146.53c-.973-.24-13.53-3.55-14.96-14.929v-23.692a36.435 36.435 0 0 1-2.037-1.588h-46.2l-.11.01c-.552.107-.89.39-.928.776-.057.597.603.864.821.951l24.89 5.322c.51.21 5.488 2.335 8.133 6.038.03.04 2.935 3.995 2.935 9.48.003.079.21 7.894-5.923 12.65-.053.036-5.333 3.65-9.89 4.631-4.541.979-54.288.024-56.118-.012-.92-.177-12.161-2.585-14.225-14.796v-25.666l-27.194-.049V130.05H32.75v-18.306h18.597v56.179l.007.088c.025.16.306 1.59 2.64 2.756l.122.061h45.798l.123-.06c.382-.191 1.26-.718 1.177-1.48-.083-.754-.996-.982-1.338-1.066l-23.974-4.157c-.778-.275-12.896-4.771-12.447-16.073v-.03l-.001-.03c-.037-.572-.719-14.031 15.168-17.203h39.502a39.22 39.22 0 0 1-.42-1.16l-39.139-.002-.113.01c-16.558 3.273-16.196 17.571-16.16 18.395-.476 12.477 13.142 17.163 13.28 17.209l24.064 4.178c.132.033.23.065.301.093-.083.07-.195.148-.308.215H54.392c-1.517-.795-1.837-1.655-1.883-1.808V110.58H31.587v18.306H4.563v18.596l27.194.049v24.555l.008.095c2.22 13.327 15.088 15.781 15.217 15.805l.091.008c1.386.028 23.258.454 39.447.454 8.455 0 15.362-.117 16.987-.467 4.779-1.029 10.081-4.657 10.331-4.83 6.625-5.136 6.411-13.284 6.4-13.608 0-5.865-3.038-9.983-3.16-10.145-2.97-4.16-8.454-6.358-8.686-6.45l-22.445-4.8h43.941c.12.072.346.348.52.63v23.525l.004.072c1.558 12.61 15.78 15.937 15.923 15.969l.064.014h33.262l.114-.012c12.856-2.585 15.823-14.336 15.852-14.454l.016-44.666h-20.486" fill="#FFFFFE"/></g></svg>