<svg width="200" height="200" xmlns="http://www.w3.org/2000/svg"><g fill-rule="nonzero" fill="none"><path d="m107.109 62.842-.879-.368-1.378 1.213-.653-2.065-1.016-.426a2.216 2.216 0 1 0 3.926 1.646M112.9 61.496c-4.516 1.62-8.719 5.977-8.121 9.889l16.768.27c-2.595-2.298-12.875-2.233-12.875-2.233l-2.081.929 1.71-2.483 8.825.525c8.912.53 10.16 5.56 10.16 5.56s3.906-4.84-1.026-9.213c-3.753-3.327-13.36-3.244-13.36-3.244Zm4.02 1.46-.31 1.692-4.499-.607s1.28-1.28 4.81-1.084ZM142.63 135.252c-3.152-.505-9.067-.388-9.067-5.395l.01-18.296h-16.546c1.312 1.886 2.057 2.895 2.057 5.347 0 4.275-.643 18.845.427 21.714.678 1.818 2.23 2.805 3.81 3.38 2.364.862 5.007 1.139 7.459 1.49 8.445 1.21 16.777 2.892 25.097 4.921l.03-36.852h-13.3l.023 23.691Zm-12.298-19.991 2.048-2.319-.01 16.902c0 .74.101 1.394.28 1.971-1.314-.933-2.326-2.412-2.326-4.761l.008-11.793Zm22.333-.348 2.049-1.97-.028 33.735c-7.862-1.878-15.74-3.44-23.717-4.583-1.216-.174-2.478-.33-3.73-.548-1.198-.21-2.386-.477-3.508-.886-1.467-.535-2.588-1.346-3.054-2.596a4.211 4.211 0 0 1-.175-.734c.36.207.757.385 1.183.54 1.121.409 2.31.677 3.508.886 1.251.219 2.514.374 3.729.548 7.978 1.144 15.855 2.706 23.717 4.583l.026-28.975ZM36.634 127.065c1.109-.871 2.61-3.266 3.694-3.905 2.795-1.646 6.39-.86 9.507-1.267l-.203 25.55a276.92 276.92 0 0 1 19.465-2.783c-1.111-1.191-2.567-2.846-2.567-4.641 0-6.233.057-18.126.057-18.126h7.322c2.37 0 4.227 1.492 5.948 3.053l.044-13.386H36.745l-.111 15.505Zm26.449-9.412h8.645c1.797 0 3.322.702 4.626 1.604l-.029-4.78 2.279-1.521-.03 9.119c-1.306-.902-2.83-1.604-4.627-1.604h-8.645s-.065 13.3-.065 19.534c0 1.298.521 2.439 1.095 3.337l.122.187a278.412 278.412 0 0 0-15.438 2.234l2.457-3.491c4.386-.724 5.568-1.048 9.984-1.56 0 0-.439-4.074-.439-5.37 0-6.237.065-17.69.065-17.69Zm-22.812 1.167c1.513-.716 3.048-1.157 7.221-1.157l6.091-.016-2.578 2.908c-1.306.097-4.71.036-6.052.085-1.692.062-3.552.284-5.235 1.275-.444.262-.843.651-1.17 1.006-.142.156-.287.325-.434.5l2.157-4.6Z" fill="#FFF"/><path d="M109.11 101.117c4.689.066 20.137-.25 23.498 1.563 1.262.682 2.356 1.639 3.556 2.42l.052-14.918H64.329l.073 14.753c1.088-.98 2.237-1.925 3.563-2.565 3.595-1.737 16.564-1.23 21.213-1.253l.01 54.641c3.323-.084 6.646-.152 9.97-.152 4.203 0 8.404.138 12.604.316-.974-.996-2.756-2.62-2.756-4.09 0-11.342.07-39.372.104-50.715Zm-30.925-1.36c-4.167.09-8.645.38-10.76 1.401-.592.286-1.146.621-1.667.984l1.986-3.88c2.275-.841 4.378-1.084 8.223-1.168 4.281-.093 16.738.01 16.738.01l-2.328 2.668c-2.46-.013-8.401-.098-12.192-.015Zm21.01 54.505c-2.879 0-5.758.05-8.637.12l2.702-2.712c2.14-.042 1.577-.07 3.717-.07 3.17 0 5.319.078 8.486.193 0-1.346.14-54.701.14-54.701s8.738-.01 13.616.146c4.714.15 7.366.072 11.87 1.245.617.161 1.055.078 1.572.444l.03-5.547 2.227-1.88-.038 11.012a15.588 15.588 0 0 0-1.602-1.016c-2.026-1.093-7.126-1.445-11.84-1.596-4.878-.156-9.922-.093-12.27-.127l-1.347-.018-.003 1.345c-.035 11.345-.105 39.375-.105 50.72 0 1.008.484 1.925.989 2.635a262.225 262.225 0 0 0-9.506-.193Z" fill="#FFF"/><path d="m60.583 101.125-31.998 5.854a108.489 108.489 0 0 0 3.735 5.173l.622-.101.032-4.512h27.618l-.009-6.414M76.706 84.657l-3.37 1.725h3.351c.03-1.078.019-1.725.019-1.725M60.547 94.115l-39.19.519a108.462 108.462 0 0 0 2.829 5.286l36.392.002-.03-5.807M60.413 87.79l-44.706-6.665a109.094 109.094 0 0 0 2.102 5.648l42.735 6.414-.131-5.396M103.632 86.382h3.144c-.283-2.318.02-3.94.02-3.94-1.384.235-2.483 2.264-3.164 3.94M83.918 78.885c-.3 2.764-.599 5.253-.921 7.497h19.371c-.42-3.16.247-5.7.247-5.7-2.45.813-4.129 3.849-4.129 3.849-1.08-4.99 2.93-8.644 2.93-8.644-1.679-.135-4.3.27-4.3.27 1.373-4.052 5.548-4.77 5.548-4.77s-.795-2.247.781-4.401c0 0-2.924-.22-2.934-3.588-.007-2.176 1.253-3.213 1.253-3.213l-3.918-4.176s7.712 2.817 11.71 3.798c2.616.642 2.558-2.56 2.558-2.56 2 3.027 4.24.84 4.24.84s.093-4.28-10.145-4.932c-9.37-.598-16.705 5.906-16.705 5.906l3.026.84c-7.52 5.027-9.865 10.331-9.865 10.331l2.933-.373c-3.493 5.4-4.52 10.239-4.52 10.239l2.84-1.213" fill="#FDDD04"/><path d="m194.105 28.559-5.728-6.002.045 5.555c0 .026.006.895-.016 1.914-.022.976-.064 2.097-.17 2.7a20.474 20.474 0 0 1-1.7 5.21c-1.948 4.08-5.971 9.27-14.496 13.007l-22.803 9.407 2.171-5.104-18.698 5.832a14.229 14.229 0 0 0-2.613-2.223c-1.824-1.217-3.816-2.025-5.507-2.601-.413-.141-.818-.271-1.21-.392.023-.09.045-.185.066-.282.157-.748.243-1.773-.153-2.874-.815-2.266-3.337-4.81-9.192-5.81-12.557-2.145-21.18.056-27.202 2.9a29.963 29.963 0 0 0-7.211 4.796 39.17 39.17 0 0 0-2.463 2.412c-.706.75-1.323 1.45-1.875 2.058l-.986 1.088 1.313.657c.383.191.747.361 1.075.508a39.295 39.295 0 0 0-1.876 2.31l-26.594-8.389 2.175 5.114-22.741-9.381C19.153 47.232 10.15 38.251 11.29 25.461l.25-2.799-2.1 1.867C-.412 33.291-.737 42.622.525 56.443 2.983 83.39 14.107 106.89 30.08 124.8l-.114 16.039 9.011-7.084c1.363 1.23 2.75 2.426 4.162 3.584l-.144 18.186 7.76-1.392a270.377 270.377 0 0 1 15.17-2.279c1.405.669 2.82 1.305 4.247 1.909 12.533 5.304 19.255 10.466 22.872 14.045 1.866 1.846 3.395 3.986 4.464 5.68 1.055 1.67 2.723 5.103 2.723 5.103s1.464-3.524 2.43-5.207c.98-1.71 2.399-3.835 4.185-5.592 1.449-1.425 3.387-3.125 6.01-4.995h13.334v-7.564c1.06-.488 2.17-.979 3.33-1.47 1.97-.834 3.92-1.73 5.849-2.687 6.37 1.072 12.688 2.407 18.998 3.946l8.071 1.97.02-24.845c19.763-18.593 33.9-44.898 36.71-75.704 1.258-13.78-.165-22.75-5.064-27.884Zm-74.37 129.651h-.753v2.73h-.91v-2.73h-.752v-.77h2.414v.77Zm3.689 2.73-.255-2.015h-.01l-.84 2.014h-.362l-.803-2.014h-.01l-.292 2.014h-.904l.594-3.5h.896l.71 1.872.752-1.871h.905l.529 3.5h-.91Zm72.475-104.796c-2.76 30.232-16.75 55.94-36.207 74.03l-.02 23.291-4.648-1.133c-6.966-1.7-13.941-3.152-20.985-4.282a104.112 104.112 0 0 1-5.798 2.688c-25.38 10.832-28.212 21.352-28.212 21.352s-2.894-10.483-28.576-21.352a102.485 102.485 0 0 1-4.099-1.842 273.105 273.105 0 0 0-17.087 2.51l-4.475.803.156-16.82a112.695 112.695 0 0 1-6.612-5.775 1850.28 1850.28 0 0 1-6.559 5.492l.087-12.123c-15.7-17.448-26.66-40.437-29.068-66.839-1.254-13.741.364-21.33 4.17-25.317 0 0-.204 15.017 18.436 23.152l30.216 12.466-2.53-5.948 20.309 6.337c-1.244 1.809-2.53 3.822-3.532 5.72l-6.481-1.94 4.449 7.915-44.975-18.556C17.732 57.3 13.22 53.912 9.939 50.38c.06 1.585.171 3.305.342 5.173.156 1.714.35 3.412.582 5.095l52.315 20.788-51.046-13.412c.363 1.748.765 3.477 1.207 5.186L60.51 86.382h12.344c1.54-7.59 4.367-12.447 4.367-12.447l-3.694-.844c2.964-6.74 9.613-13.408 9.613-13.408l-2.724-.908s11.554-11.02 27.138-9.02c15.585 2 11.959 8.332 11.959 8.332 4.018 1.338 15.188 3.26 12.611 13.959-1.747 7.257-7.492 9.628-7.492 9.628 1.253-5.68-4.84-6.56-6.84-5.307-1.005.63-4.71 2.459-1.217 10.015h2.373c-1.914-3.745-1.832-5.677-1.563-6.557.147-.475.387-.788.638-1.02.132-.123.273-.229.42-.327.19-.128.36-.225.483-.302 1.25-.783 4.263.134 3.622 3.037l-.881 3.993 3.779-1.56c.212-.087 6.763-2.835 8.753-11.1.818-3.397.44-6.123-.64-8.292l12.046-3.757-2.53 5.948 30.217-12.466c18.64-8.135 18.436-23.152 18.436-23.152 3.805 3.987 5.423 11.576 4.17 25.317Z" fill="#FDDD04"/><path d="M187.915 68.024c.501-2.423.925-4.882 1.269-7.376l-51.52 20.17 50.25-12.794M159.578 117.425l2.852 1.107a108.222 108.222 0 0 0 5.297-6.38l-8.149-1.33v6.603M184.34 81.125a108.739 108.739 0 0 0 2.368-7.915l-48.48 13.88 46.112-5.965M178.69 94.634a108.66 108.66 0 0 0 3.548-7.861l-42.427 6.96 38.88.9M171.462 106.979a108.545 108.545 0 0 0 4.4-7.059l-36.051.665 31.65 6.394M132.65 131.815a6.646 6.646 0 0 1-.28-1.971l.01-16.902-2.048 2.319-.008 11.793c0 2.35 1.012 3.828 2.326 4.761M107.818 101.1l.003-1.345 1.347.018c2.348.034 7.392-.03 12.27.127 4.714.15 9.814.503 11.84 1.596.557.3 1.085.65 1.602 1.016l.038-11.012-2.228 1.88-.029 5.547c-.517-.366-.955-.283-1.571-.444-4.505-1.173-7.157-1.095-11.871-1.245-4.878-.156-13.616-.146-13.616-.146s-.14 53.355-.14 54.7c-3.167-.114-5.316-.193-8.486-.193-2.14 0-1.577.029-3.717.071l-2.702 2.711c2.879-.068 5.758-.12 8.638-.12 3.17 0 6.338.079 9.506.194-.505-.71-.99-1.627-.99-2.635 0-11.345.07-39.375.106-50.72" fill="#FDDD04"/><path d="M125.193 138.757c-1.199-.21-2.387-.477-3.508-.886a7.669 7.669 0 0 1-1.183-.54c.052.312.11.56.175.734.466 1.25 1.587 2.061 3.054 2.596 1.122.409 2.31.676 3.508.886 1.252.219 2.514.374 3.73.548 7.977 1.143 15.855 2.705 23.717 4.583l.028-33.736-2.049 1.97-.026 28.976c-7.862-1.877-15.74-3.44-23.717-4.583-1.215-.174-2.478-.329-3.73-.548M75.967 97.094c-3.845.084-5.948.327-8.223 1.167l-1.986 3.88a12.297 12.297 0 0 1 1.667-.983c2.115-1.022 6.593-1.31 10.76-1.401 3.79-.083 9.732.002 12.192.015l2.328-2.667s-12.457-.104-16.738-.01M53.473 142.272l-2.457 3.491a278.412 278.412 0 0 1 15.438-2.234l-.122-.187c-.574-.898-1.095-2.04-1.095-3.337 0-6.235.065-19.534.065-19.534h8.645c1.797 0 3.321.702 4.626 1.604l.03-9.119-2.278 1.52.03 4.78c-1.305-.901-2.83-1.603-4.627-1.603h-8.645s-.065 11.452-.065 17.688c0 1.297.439 5.37.439 5.37-4.416.513-5.598.837-9.984 1.56M39.718 121.915c1.683-.99 3.543-1.213 5.235-1.275 1.343-.05 4.746.012 6.052-.085l2.578-2.908-6.09.016c-4.174 0-5.709.441-7.222 1.157l-2.157 4.601c.147-.175.292-.344.435-.5.326-.355.725-.744 1.17-1.006" fill="#FDDD04"/><path d="m116.61 64.648.31-1.691c-3.528-.197-4.809 1.084-4.809 1.084l4.498.607" fill="#53369A"/><path d="m173.293 53.98-30.217 12.465 2.53-5.948-12.045 3.757c1.078 2.17 1.457 4.895.64 8.291-1.991 8.266-8.542 11.014-8.754 11.101l-3.779 1.56.88-3.993c.642-2.903-2.371-3.82-3.62-3.037-.124.077-.293.174-.485.302a3.323 3.323 0 0 0-.419.326c-.25.233-.491.546-.638 1.021-.27.88-.35 2.812 1.563 6.557h-2.373c-3.493-7.556.212-9.384 1.218-10.015 2-1.253 8.092-.373 6.84 5.307 0 0 5.744-2.371 7.491-9.628 2.577-10.698-8.593-12.62-12.611-13.959 0 0 3.626-6.332-11.959-8.332-15.584-2-27.138 9.02-27.138 9.02l2.724.908s-6.649 6.668-9.613 13.408l3.694.844s-2.826 4.858-4.367 12.447H60.511L13.339 73.21a110.039 110.039 0 0 1-1.207-5.186l51.046 13.412-52.315-20.788c-.232-1.683-.426-3.381-.582-5.095a96.288 96.288 0 0 1-.342-5.173c3.28 3.532 7.793 6.92 13.919 9.593L68.833 78.53l-4.449-7.915 6.48 1.94c1.003-1.898 2.29-3.911 3.533-5.72l-20.308-6.337 2.53 5.948L26.401 53.98C7.762 45.844 7.966 30.827 7.966 30.827c-3.806 3.987-5.424 11.576-4.17 25.317 2.409 26.402 13.369 49.391 29.068 66.84l-.087 12.122s3.578-2.98 6.559-5.492a112.695 112.695 0 0 0 6.612 5.775l-.156 16.82 4.475-.802a273.105 273.105 0 0 1 17.087-2.51c1.356.644 2.723 1.258 4.1 1.84 25.681 10.87 28.575 21.353 28.575 21.353s2.833-10.52 28.212-21.352c1.952-.833 3.886-1.73 5.798-2.688 7.044 1.13 14.019 2.582 20.985 4.282l4.648 1.133.02-23.292c19.457-18.09 33.448-43.797 36.207-74.029 1.253-13.741-.365-21.33-4.17-25.317 0 0 .204 15.017-18.436 23.152ZM126.26 64.74c4.932 4.373 1.026 9.212 1.026 9.212s-1.248-5.03-10.16-5.56l-8.824-.524-1.711 2.483 2.081-.929s10.28-.065 12.875 2.234l-16.768-.271c-.598-3.912 3.605-8.269 8.12-9.889 0 0 9.608-.083 13.36 3.244Zm-19.484 21.642h-3.144c.681-1.676 1.78-3.705 3.165-3.94 0 0-.304 1.622-.02 3.94Zm-4.074-23.989a2.2 2.2 0 0 1 .481-1.197l1.016.426.653 2.065 1.378-1.213.879.368a2.215 2.215 0 0 1-4.407-.449Zm-20.037 7.84S85.01 64.927 92.53 59.9l-3.026-.84s7.335-6.503 16.705-5.905c10.238.653 10.145 4.932 10.145 4.932s-2.24 2.187-4.24-.84c0 0 .058 3.202-2.559 2.56-3.997-.98-11.71-3.798-11.71-3.798l3.92 4.176s-1.26 1.037-1.254 3.213c.01 3.367 2.934 3.588 2.934 3.588-1.576 2.154-.78 4.4-.78 4.4s-4.176.72-5.55 4.772c0 0 2.622-.406 4.301-.27 0 0-4.01 3.654-2.93 8.643 0 0 1.68-3.036 4.13-3.848 0 0-.668 2.539-.248 5.7H82.997c.322-2.245.62-4.734.921-7.498l-2.84 1.213s1.027-4.84 4.52-10.239l-2.933.373Zm-5.959 14.424s.01.647-.019 1.725h-3.35l3.369-1.725Zm-61-3.532 44.707 6.666.131 5.396-42.735-6.414a109.094 109.094 0 0 1-2.102-5.648Zm5.65 13.509 39.191-.52.03 5.808-36.391-.002c-.987-1.728-1.931-3.49-2.83-5.286Zm11.586 17.417-.622.101a108.489 108.489 0 0 1-3.735-5.173l31.998-5.854.01 6.414h-27.62l-.031 4.512Zm46.915 12.895c-1.721-1.561-3.578-3.053-5.948-3.053h-7.322s-.057 11.893-.057 18.126c0 1.795 1.456 3.45 2.567 4.64a276.92 276.92 0 0 0-19.465 2.783l.203-25.55c-3.118.407-6.712-.378-9.507 1.268-1.085.639-2.585 3.034-3.694 3.905l.11-15.505h43.157l-.044 13.386Zm19.3 30.66c-3.323 0-6.646.068-9.968.152l-.011-54.64c-4.649.021-17.618-.485-21.213 1.252-1.326.64-2.475 1.585-3.563 2.565l-.073-14.753h71.887l-.052 14.919c-1.2-.782-2.294-1.74-3.556-2.421-3.36-1.814-18.81-1.497-23.498-1.563-.034 11.343-.105 39.373-.104 50.715 0 1.47 1.782 3.094 2.756 4.09-4.2-.178-8.4-.316-12.604-.316Zm56.72-7.193c-8.32-2.03-16.652-3.71-25.097-4.92-2.452-.352-5.095-.63-7.459-1.49-1.58-.576-3.132-1.563-3.81-3.38-1.07-2.87-.427-17.44-.427-21.715 0-2.452-.745-3.461-2.057-5.347h16.546l-.01 18.296c0 5.007 5.915 4.89 9.067 5.395l-.024-23.691h13.302l-.03 36.852Zm6.553-29.88-2.852-1.108v-6.602l8.15 1.33a108.222 108.222 0 0 1-5.298 6.38Zm9.032-11.554-31.651-6.394 36.05-.665a108.545 108.545 0 0 1-4.4 7.059Zm7.228-12.345-38.879-.901 42.427-6.96a108.66 108.66 0 0 1-3.548 7.86Zm5.65-13.51-46.112 5.966 48.48-13.88a108.739 108.739 0 0 1-2.368 7.915Zm3.575-13.1-50.25 12.793 51.519-20.17a111.038 111.038 0 0 1-1.27 7.377Z" fill="#53369A"/><path fill="#53369A" d="M117.32 158.21h.752v2.73h.91v-2.73h.752v-.77h-2.414v.77M122.9 157.44l-.752 1.87-.71-1.87h-.896l-.594 3.5h.904l.293-2.015h.01l.802 2.014h.362l.84-2.014h.01l.255 2.014h.91l-.53-3.5h-.904"/></g></svg>