<svg width="200" height="200" xmlns="http://www.w3.org/2000/svg"><g fill-rule="nonzero" fill="none"><path d="M107.158 40.747c-9.923.002-13.343 7.968-13.632 15.33-.287 7.363-1.366 14.901-5.288 17.008 0 0 14.974-.644 20.009-10.734.193-.388.395-.756.6-1.117a26.08 26.08 0 0 0-1.794-.07c-3.018 0-5.918.522-8.636 1.473 4.063-4.484 9.454-7.6 15.5-8.628-2.478-.627-5.93-.894-8.337-.522 5.085-2.242 10.796-2.982 16.53-1.792.712.148 1.408.332 2.094.532-.913-1.355-8.026-11.481-17.046-11.48M149.958 77.277l.001-.001a31.3 31.3 0 0 1-.937-1.673c-1.237-2.388-2.214-3.669-2.88-4.354-.002.002-3.733-.574-7.005-.02-4.329.733-6.546 2.262-6.546 2.262.816-.125 1.814-.045 2.81.123-.119.281-.256.829.15 1.519 1.708 2.585 5.749 3.842 9.983 2.824 2.14 2.276 7.53 7.446 13.38 8.662-3.192-1.62-6.581-5.37-8.956-9.342" fill="#1D2953"/><path d="M169.095 103.532c1.8 1.483 7.18 2.366 7.366 5.192 0 0 1.93-1.165 3.816-1.392-.936 1.489-2.303 3.576-3.679 5.362-.757.984-1.487 1.507-2.117 1.78.353-1.137.643-2.342.776-3.537 0 0-3.933 2.923-6.847 3.758 0 0-14.792 4.02-20.342 3.258-2.293-.315-4.696-1.911-4.657-1.903.09.02.784 9.632 10.37 7.474 5.823-1.309 16.983-5.597 17.506-5.8-.357 1.766-1.195 4.545-3.157 7.278 0 0 3.655 6.702.495 14.113-3.16 7.41-10.279 10.97-10.279 10.97s2.13-4.95-2.731-10.34c-4.508-4.383-10.758-7.694-16.918-10.339l.031-.01c-24.038-9.651-23.512-24.641-23.512-24.641-2.17 4.324-2.787 8.122-2.428 11.418-8.034-9.685-6.45-23.686-6.45-23.686-1.23 2.118-15.458 29.993 15.081 41.876 5.143 2.001 9.38 4.115 12.868 6.27v.001c6.124 3.097 18.477 15.06 4.396 33.273a19.67 19.67 0 0 0 .735-5.292c0-12.095-11.193-22.504-27.271-27.167 10.812 5.17 17.768 13.236 17.768 22.301 0 7.616-4.912 14.528-12.893 19.61 1.822-4.033 2.84-8.64 2.613-13.893 0 0-3.945 9.649-24.031 14.495 2.475-7.145 2.502-17.917-11.16-28.968-20.3-16.417-21.587-36.342-21.587-36.342-4.184 18.521-.972 34.743 2.946 45.866-8.595-5.953-14.725-15.216-16.537-25.951a40.382 40.382 0 0 0-.895 8.444 40.062 40.062 0 0 0 8.302 24.48c-16.964-13.673-27.82-34.617-27.82-58.102 0-21.746 9.309-41.317 24.153-54.952-15.8 9.258-27.885 24.162-33.495 41.942-2.611-50.15 39.771-68.637 46.8-71.35a78.482 78.482 0 0 0-13.927 1.235C65.603 21.546 81.377 16.676 98.21 17.13c10.012.27 19.907 2.383 28.684 6.046a37.747 37.747 0 0 0-6.842-6.357c19.913 2.226 35.307 17.077 35.307 35.079 0 .302-.016.6-.025.899-4.947-3.655-16.744-5.895-16.744-5.895 7.218 3.697 13.388 8.96 16.088 11.428a.712.712 0 0 1-.01.055c4.416 4.156 9.45 10.038 9.999 16.619.227 2.7 1.905 4.694 1.905 4.694l15.635 19.84c-3.883-.27-10.032 1.252-14.541-.885 0 0-.372 3.394 1.429 4.878Zm1.365-73.748C151.6 10.924 126.524.537 99.853.537S48.105 10.924 29.246 29.784C10.388 48.644 0 73.72 0 100.39c0 26.672 10.388 51.747 29.246 70.608 18.86 18.86 43.936 29.246 70.607 29.246s51.748-10.387 70.607-29.246c18.86-18.861 29.246-43.936 29.246-70.608 0-26.671-10.387-51.746-29.246-70.606Z" fill="#1D2953"/><path d="M145.534 77.957c-4.234 1.018-8.275-.24-9.984-2.824-.405-.69-.268-1.238-.15-1.519-.995-.168-1.993-.248-2.809-.123 0 0 2.217-1.529 6.545-2.262 3.273-.554 7.004.022 7.005.02.667.685 1.644 1.966 2.88 4.354a31.3 31.3 0 0 0 .938 1.673l-.001.001c2.375 3.971 5.764 7.722 8.955 9.342-5.848-1.216-11.24-6.386-13.379-8.662ZM122.11 51.695c-5.734-1.19-11.445-.45-16.53 1.792 2.408-.372 5.86-.105 8.337.522-6.046 1.028-11.437 4.144-15.5 8.628a26.087 26.087 0 0 1 8.636-1.472c.603 0 1.2.028 1.794.069-.205.36-.407.729-.6 1.117-5.035 10.09-20.009 10.734-20.009 10.734 3.922-2.107 5.001-9.645 5.288-17.008.29-7.362 3.71-15.328 13.632-15.33 9.02-.001 16.133 10.125 17.046 11.48-.686-.2-1.382-.384-2.094-.532Zm60.097 47.845-15.635-19.841s-1.678-1.995-1.905-4.694c-.55-6.581-5.583-12.463-9.999-16.619l.01-.055c-2.7-2.468-8.87-7.731-16.088-11.428 0 0 11.797 2.24 16.744 5.895.009-.3.025-.597.025-.9 0-18-15.394-32.852-35.307-35.078a37.747 37.747 0 0 1 6.842 6.357c-8.777-3.663-18.672-5.776-28.684-6.046-16.833-.455-32.607 4.415-45.826 13.132a78.482 78.482 0 0 1 13.926-1.235c-7.028 2.713-49.41 21.2-46.799 71.35 5.61-17.78 17.696-32.684 33.495-41.942-14.844 13.635-24.153 33.206-24.153 54.952 0 23.485 10.857 44.43 27.82 58.102a40.062 40.062 0 0 1-8.302-24.48c0-2.898.313-5.72.895-8.444 1.812 10.735 7.942 19.998 16.537 25.951-3.918-11.123-7.13-27.345-2.946-45.866 0 0 1.288 19.925 21.586 36.342 13.663 11.051 13.636 21.823 11.16 28.968 20.086-4.846 24.032-14.495 24.032-14.495.227 5.253-.79 9.86-2.613 13.892 7.98-5.08 12.893-11.993 12.893-19.609 0-9.065-6.956-17.13-17.768-22.3 16.078 4.662 27.272 15.071 27.272 27.166a19.67 19.67 0 0 1-.736 5.292c14.08-18.213 1.728-30.176-4.397-33.273l.001-.001c-3.488-2.155-7.725-4.269-12.868-6.27-30.539-11.883-16.31-39.758-15.081-41.876 0 0-1.584 14 6.45 23.686-.359-3.296.257-7.094 2.428-11.418 0 0-.526 14.99 23.512 24.641l-.03.01c6.16 2.645 12.41 5.956 16.917 10.339 4.86 5.39 2.731 10.34 2.731 10.34s7.12-3.56 10.28-10.97c3.16-7.41-.496-14.113-.496-14.113 1.962-2.733 2.8-5.512 3.157-7.278-.523.203-11.683 4.491-17.506 5.8-9.586 2.158-10.28-7.454-10.37-7.474-.039-.008 2.364 1.588 4.657 1.903 5.55.761 20.342-3.258 20.342-3.258 2.913-.835 6.846-3.758 6.846-3.758-.132 1.195-.421 2.4-.775 3.536.63-.271 1.36-.795 2.117-1.779 1.375-1.786 2.742-3.873 3.679-5.362-1.886.227-3.816 1.392-3.816 1.392-.186-2.826-5.565-3.709-7.367-5.192-1.8-1.484-1.428-4.878-1.428-4.878 4.51 2.137 10.659.616 14.541.886Z" fill="#E8A311"/></g></svg>