<svg width="200" height="200" xmlns="http://www.w3.org/2000/svg"><g fill="none"><path d="M4.558 103.687c5.838 6.62 12.593 11.821 18.31 18.524 5.716 6.702 10.792 14.29 17.752 19.502 13.31 9.972 32.674 10.505 49.892 13.154 17.585 2.707 35.541 3.738 47.105 18.051-1.383-20.68-21.046-27.22-30.232-40.865-2.318-3.442-3.945-9.76-3.8-13.832.224-6.256 5.604-20.183 15.66-16.699 2.503.867 5.78 5.02 8.854 6.66 5.699 3.042 12.502 3.301 18.218 6.153 5.582 2.784 10.261 7.303 14.49 12.134.663.76 2.51 4.265 2.84 5.832.391 1.841.683 3.117 1.214 4.417 1.132 2.784 4.3 3.736 8.725 3.182 2.765-.346 5.173-2.454 7.858-2.986 1.889-.373 5.037.708 8.107-.573 2.601-1.088 2.847-4.645 4.492-8.464 1.008-2.343 5.675-8.252 5.554-10.617-.208-4.071-3.277-8.457-5.246-11.575-5.55-8.796-13.161-17.28-19.44-25.65-3.083-4.11-4.12-9.743-6.076-16.099-1.154-3.749-6.902-5.306-10.044-7.984-3.291-2.807-4.943-5.845-8.228-8.896-4.39-.832-8.966-1.335-13.666-1.618-1.314-6.784-15.587-21.048-18.598-22.577.412 5.49-.33 10.835.275 16.04-7.57-5.502-21.81-3.064-34.778-3.257-10.861-.161-20.698-1.446-29.398-4.734 2.508 5.278 7.97 10.302 13.059 12.942-16.852 3.335-29.29 13.515-43.754 18.215 4.776 1.478 10.204 1.816 16.355.879-7.61 8.743-14.372 17.972-27.389 23.638 5.594.994 11.955.638 17.998.842-9.925 4.962-21.913 4.565-29.908 2.43 4.758 9.485 14.34 10.498 21.624 15.546-5.44-1.454-11.92-1.08-17.825-1.715" fill="#FFF"/><path d="M148.527 57.332c.217 6.234 8.442 7.555 9.611 13.402-2.415-.642-2.58-3.355-4.073-3.767-2.756 3.88 2.58 5.879 4.978 6.18 1.057 2.869 4.25 6.747 6.612 5.925-3.312-3.404-2.288-7.884-4.612-11.47-2.827-4.363-9.984-6.086-12.516-10.27m-29.038-5.151c-85.384 6.76-68.667 73.866-64.84 84.094-.178-.33.448.456.431.47-1.023-12.62-12.336-72.554 64.178-83.952a15.75 15.75 0 0 1 .23-.612m72.216 59.59c.248.174-2.514-.186-1.806 3.577.64 3.398 3.474 3.733 3.474 3.733s-.934 2.693-2.996 2.707c-1.889.013-3.42-2.333-3.42-5.212 0-2.88 1.531-5.213 3.42-5.213.472 0 .93.132 1.328.408m-56.612-32.865c21.168 1.113 29.728 18.594 30.92 25.024.035-.07-.423.183-.419.186-1.653-5.393-14.434-22.799-30.544-24.626 0-.002.044-.582.043-.584m2.924 93.986a32.24 32.24 0 0 0-.518-3.945c.292 1.636.462 3.578.559 5.158l.04.05-.081-1.263m-.437-4.317a4.263 4.263 0 0 0-.072-.124l-.07-.004c.103.168.231.328.325.5-.062-.123-.122-.25-.183-.372" fill="#F46F19"/><path d="M195.118 120.153c-.614.986-2.335 3.14-3.355 4.932-1.95 3.429-1.614 7.618-3.176 8.181-11.063 3.985.447-13.403-16.643-8.275 4.294 1.249 3.877 6.17 6.458 9.61-5.211 3.172-8.108 2.513-11.333.397-.113-32.924-32.429-23.621-40.07-31.282-8.48-8.502-5.917-21.15 1.56-25.005-35.475 1.16-37.564 36.811-30.022 49.808 11.164 19.24 28.138 21.415 33.474 35.468-5.246-6.05-17.663-9.258-31.373-11.49-8.509-8.054-17.431-21.878-14.998-43.14a9.035 9.035 0 0 1-.352-.252c-3.84 20.78.136 33.898 6.993 42.148-15.7-2.15-31.549-3.55-39.252-6.834-2.575-1.097-9.19-3.091-11.866-11.688-5.398-17.342-5.792-84.926 81.095-84.926 2.245 1.941 4.793 3.068 8.49 2.461-4.535-1.435-11.613-2.6-9.222-20.202 2.034 4.4 1.982 8.676 3.904 12.74 1.529 3.236 5.86 4.483 7.46 6.255-.482-3.55-4.685-4.184-6.029-7.063-1.041-2.226-1.075-2.703-1.948-5.536-.628-2.035-1.371-3.493-1.582-5.72 3.785 5.443 11.142 11.961 11.142 17.265 4.34.16 9.125.567 13.316 1.247 3.237 1.99 5.158 6.515 10.006 10.188 2.297 1.74 6.152 2.416 7.459 5.275 1.075 2.35 2.14 6.411 2.836 9.354 1.183 4.991 4.032 7.15 6.8 11.052 1.874 2.644 14.48 17.247 17.41 23.356 3.344 6.97 6.274 6.122 2.818 11.676zM11.81 107.138c6.494 1.027 10.425 1.027 19.14.683-7.6-8.367-14.526-8.715-23.242-14.184 8.033 3.588 23.316.273 27.857-9.056-5.127.34-8.686.105-13.5-.173 12.816-5.638 15.038-17.26 27.855-25.291-6.36 2.06-9.916 2.122-14.867 1.709 12.067-4.13 21.309-13.27 35.032-14.698 3.063-.316 7.7.552 10.767-1.024-7.33-.603-15.943-4.846-19.654-9.913 16.402 9.151 46.933-5.026 58.907 10.01-91.914 0-87.468 73.095-82.663 89.163-8.881-10.413-15.378-22.099-25.632-27.226zm188.184 10.122c-.23-4.27-3.35-8.677-5.305-11.789-5.58-8.836-13.198-17.324-19.46-25.675-3.01-4-4.054-9.594-6.013-15.978-1.316-4.06-7.16-5.548-10.167-8.17-3.231-2.748-4.88-5.78-8.216-8.887l-.086-.078-.112-.022c-4.317-.818-8.809-1.317-13.418-1.605-1.78-7.176-15.591-20.89-18.738-22.553l-.634-.318.053.705c.1 1.317.13 2.628.13 3.934 0 2.37-.107 4.726-.108 7.066.001 1.405.04 2.805.165 4.199-4.2-2.654-10.03-3.216-16.433-3.221-5.233 0-10.855.386-16.298.385-.52 0-1.038-.002-1.555-.009-10.831-.16-20.622-1.444-29.261-4.708l-.928-.351.427.896c2.407 5.054 7.4 9.814 12.273 12.6-16.428 3.574-28.67 13.446-42.733 18.006l-1.197.39 1.204.372c3.025.935 6.308 1.421 9.858 1.42a43.49 43.49 0 0 0 5.615-.378c-7.347 8.515-14.034 17.28-26.548 22.728l-1.215.528 1.303.233c5.135.906 10.855.696 16.364.802-5.232 2.284-10.953 3.176-16.295 3.176-4.346 0-8.44-.592-11.806-1.488L0 89.239l.4.795c4.462 8.854 12.98 10.473 19.86 14.49-5-.901-10.57-.686-15.66-1.235l-1.023-.109.68.772c5.874 6.654 12.626 11.854 18.307 18.518 5.698 6.675 10.784 14.293 17.817 19.563 12.91 9.657 35.58 10.99 50.07 13.23.039.007.08.012.12.017l.001-.01c13.506 2.081 27.27 3.16 38.286 10.12 1.05.668 2.456 1.532 3.93 2.858a19.34 19.34 0 0 1 2.12 2.237c.246.306.495.619.737.96 1.267 1.778 2.047 3.34 2.517 4.895a77.219 77.219 0 0 0-.105-2.235c-.097-1.58-.267-3.522-.56-5.158-.017-.093-.04-.18-.06-.27-3.61-17.71-21.336-24.305-29.72-36.849-2.16-3.19-3.75-9.114-3.74-13.088 0-.174.001-.342.008-.502.16-5.47 4.528-16.968 12.15-16.867.933 0 1.924.164 2.979.529 2.3.763 5.624 4.921 8.797 6.634 5.812 3.09 12.62 3.349 18.226 6.158 5.509 2.745 10.156 7.226 14.368 12.041.58.635 2.468 4.225 2.75 5.648.392 1.846.688 3.15 1.234 4.49 1.007 2.48 3.524 3.591 6.826 3.58.73 0 1.504-.053 2.319-.155 2.93-.388 5.345-2.507 7.887-2.988a4.9 4.9 0 0 1 .944-.077c.944-.002 2.135.155 3.436.157 1.2 0 2.502-.137 3.802-.677 2.905-1.285 3.064-4.956 4.709-8.676.46-1.083 1.851-3.128 3.121-5.17 1.266-2.068 2.44-4.083 2.465-5.514-.003-.036-.003-.068-.003-.091z" fill="#F46F19"/><path d="M138.268 176.41c-.04-.023-.07-.048-.106-.07.073.455.106.732.106.732v-.663m-.171-2.254l-.081-1.263a32.24 32.24 0 0 0-.518-3.945c.292 1.636.462 3.578.559 5.158l.04.05" fill="#FFF"/><path d="M37.443 134.364c-8.881-10.413-15.378-22.099-25.632-27.226 6.494 1.027 10.425 1.027 19.14.683-7.6-8.367-14.526-8.715-23.242-14.184 8.033 3.588 23.316.273 27.857-9.056-5.127.34-8.686.105-13.5-.173 12.816-5.638 15.038-17.26 27.855-25.291-6.36 2.06-9.916 2.122-14.867 1.709 12.067-4.13 21.309-13.27 35.032-14.698 3.063-.316 7.7.552 10.767-1.024-7.33-.603-15.943-4.846-19.654-9.913 16.402 9.151 46.933-5.026 58.907 10.01-91.914 0-87.468 73.095-82.663 89.163" fill="#2E60B5"/></g></svg>