<svg width="200" height="200" xmlns="http://www.w3.org/2000/svg"><g fill-rule="nonzero" fill="none"><path fill="#231F20" d="M128.909 101.233h32.487l-.036-35.693h24.256V.26H15v65.28h24.562v35.693h32.746l-.034 41.487h-16.18v57.087h88.964V142.78h-16.15v-41.547"/><path fill="#A5A5A4" d="M19.606 4.542v56.652h40.773V46.068H77.03l3.896-3.954V65.46h44.027V46.068h16.177v15.126h40.59V4.542H19.607"/><path fill="#FFF" d="m141.13 61.194 3.666-4.282V42.025l-3.666 4.043v15.126"/><path fill="#ED1F2A" d="M24.218 8.82v48.092l15.498-15.433V24.67h121.68l-16.6 17.356v14.887h33.02V8.82H24.218"/><path fill="#ED1F2A" d="M80.926 65.46h20.236V24.669L80.926 42.114V65.46"/><path fill="#231F20" d="M120.998 65.46V42.025h23.798l16.6-17.356h-60.234v40.79h19.836M161.396 24.669v16.525l-16.6 15.718h33.02V8.82l-16.42 15.849"/><path fill="#A5A5A4" d="M68.991 96.877v-8.35h19.956l3.828-3.638H64.98v8.052H48.465l-3.7 3.936h24.226M112.964 88.528h8.034v62.21h16.262v41.021H64.28l-3.816 3.77h80.696v-48.466h-16.208V88.528h8.005v8.35h24.054V65.46l-3.756 3.776v23.705h-16.43v-8.052H108.94v77.726h12.046v16.402H81.018l-3.944 4.001h48.038v-24.207h-12.148V88.528"/><path fill="#231F20" d="M64.98 84.89h27.795l7.981-7.732H56.922v7.736l-8.457 8.047h16.514v-8.052M24.218 56.912l15.498-15.433V24.67h61.446L80.926 42.114l-24.448-.005v14.803h-32.26"/><path fill="#ED1F2A" d="M48.465 92.94V69.237h104.79l-7.859 7.922H56.922v7.736l-8.457 8.047M121.005 162.617l-7.767 8.072h-12.482l8.242-8.072h12.007"/><path fill="#ED1F2A" d="M136.826 92.94v-8.05l8.57-7.732v7.736l-8.57 8.047"/><path fill="#FFF" d="m19.606 61.194 4.612-4.282V8.82h153.598l3.905-4.278H19.606v56.652M77.03 46.068l3.896-3.954V65.46h76.086l-3.756 3.776H48.465v23.705l-3.7 3.936V65.46H77.03V46.068M136.826 84.89v8.05l-3.868 3.937v-8.35l3.868-3.638"/><path fill="#FFF" d="M80.926 88.528h-4.004v58.477H60.465v48.523l3.816-3.77v-41.08h16.645v-62.15"/><path fill="#ED1F2A" d="m112.964 158.81 12.153-.011v3.398l12.143-11.36v-.1h-16.262l-8.034 8.074"/><path fill="#FFF" d="m108.998 162.617 4.011-3.822h12.103l-4.107 3.822h-12.007"/><path fill="#ED1F2A" d="M92.775 84.89v77.79H81.018v16.337l7.778-8.328h11.96V77.158l-7.98 7.731"/><path fill="#ED1F2A" d="M80.926 88.528v62.15H64.28v41.08l12.793-13.23v-19.717h11.873V88.528h-8.021"/><path fill="#FFF" d="m92.775 84.89-3.828 3.638v70.283H77.074v24.207l3.944-4.001v-16.338h11.757V84.89"/><path d="M154.587 193.339h.341c.396 0 .7-.096.904-.287a.963.963 0 0 0 .31-.743c0-.28-.07-.493-.215-.637-.142-.145-.426-.217-.845-.217h-.495v1.884Zm-1.83 3.766V190.2h2.463c.841 0 1.432.067 1.766.198.338.133.594.336.773.61.18.271.268.607.268 1.008 0 .436-.116.831-.352 1.19-.232.358-.581.674-1.047.946l1.494 2.953h-1.986l-1.116-2.566h-.433v2.566h-1.83Zm2.553 1.12a4.608 4.608 0 0 0 4.01-2.296c.43-.728.645-1.514.645-2.358 0-.828-.208-1.601-.62-2.32a4.57 4.57 0 0 0-1.7-1.708 4.581 4.581 0 0 0-2.335-.626c-.825 0-1.6.21-2.32.626-.72.418-1.29.988-1.707 1.707a4.529 4.529 0 0 0-.628 2.32c0 .845.215 1.631.645 2.36a4.545 4.545 0 0 0 1.72 1.694c.717.4 1.482.6 2.29.6Zm-.006 1.582a6.194 6.194 0 0 1-3.072-.8 6.089 6.089 0 0 1-2.297-2.267 6.132 6.132 0 0 1-.863-3.17c0-1.11.276-2.148.833-3.117a6.053 6.053 0 0 1 2.276-2.286 6.171 6.171 0 0 1 3.123-.833c1.119 0 2.158.278 3.122.833a6.093 6.093 0 0 1 2.284 2.286c.559.969.839 2.007.839 3.118 0 1.135-.29 2.191-.87 3.17a6.119 6.119 0 0 1-2.304 2.266c-.956.534-1.979.8-3.071.8Z" fill="#100F0D"/></g></svg>