<svg width="200" height="200" xmlns="http://www.w3.org/2000/svg"><g fill="none" fill-rule="evenodd"><path d="M191.587 98.674c-.026-.064-.319-.341-.341-.456-.16-.78.685-1.58.113-2.507-.138-.086-.683.065-.91-.228-1.005-1.299-1.74-4.69-2.049-5.13-.307-.44-1.239-.428-1.592-.91-.353-.484.522-1.584.228-2.51-.65-2.039-3.149-2.437-3.756-4.672-.375-1.387-.257-3.413-.34-4.902v-2.051c-.296-1.37-.017-2.945-.341-4.446-.294-1.353-.019-2.95-.341-4.446-.527-2.431-.401-5.789-.683-8.206l-.115-.114c-1.09-.257-2.873-.189-3.755.455-.967-.104-1.596-.923-2.502-1.253-.893-.326-1.782-.317-2.617-.684-.381-.168-.696-.622-1.024-.798-.442-.239-.932-.118-1.365-.342-.994-.513-1.792-1.471-2.73-2.051-.44-.272-1.055-.278-1.48-.57-.75.035-.876.555-1.138 1.026-.77.177-1.623.52-2.616.227-.63-.185-1.57-.794-2.504-.57-.863.208-1.338.917-2.16 1.14-1.433.39-3.067-.355-3.983.456-.37.162-.613.928-.796 1.254-1.083-.044-1.248.139-1.593.799-.92-.075-.92-.571-1.479-.913l-1.138-.114c-.077-.047-.128-.392-.227-.456-.342-.221-.91-.303-1.252-.456-.082-.232-.118-.533-.114-.912-.195-.073-.111-.022-.227-.113-.546.115-.528.458-.683.911-.494.207-1.24.277-1.706-.114-1.184.021-1.022-.63-1.365-1.368-.397.03-.48.04-.683.229-.28.177-.45 1.181-.57 1.481h-.796l-.227 1.71a9.512 9.512 0 0 0-.114.115c-.746-.015-.834-.186-1.252-.457-.082-.4-.112-1.456-.341-1.823l-.113-.342c-1.061 0-1.432.502-1.82 1.14-1.15-.071-2.008-1.512-2.731-1.14-.709-.087-.76-.739-1.138-1.14-1.736.268-1.677 1.937-3.754 1.937l-.796-.57c.027-.435.132-.676 0-.911-.236-.6-1.408-1.06-1.936-1.369a5.8 5.8 0 0 1-.113-1.253c-.839.146-2.494-.398-2.958-.114-.442.18-.837.908-1.138 1.254-1.21.014-1.675-.58-2.047-1.368-1.017-.192-1.625.497-2.732.228-.926-.225-1.666-.881-2.502-1.14l-2.618-.114c-.192-.068-.382-.342-.568-.456-.052-.285.067-1.054 0-1.254-.089-.263-.625-.648-.796-.912-1.525 0-2.557.006-3.982 0v-.456h-.114l-.342.57h-1.365l-1.024-.797c-.61-.807-1.073-1.974-2.161-2.28-.19-.13-.56-.125-.91-.114-.015-9.987-.205-20.734-.341-30.548l-15.93-.228c-1.083 0-5.834.218-6.37-.114h-11.72c-1.608 0-3.973-.34-5.346.114-.006 1.949.153 4.16-.228 5.927-.199.924.054 2.182-.114 2.964-.438 2.034.2 4.745-.228 6.725l-.454 18.465-1.366 37.73a244.985 244.985 0 0 1-7.622-.115c-1.651-.056-3.668.199-5.12-.114h-2.162c-1.947 0-4.602.153-6.371-.228H34.92c-1.391-.01-3.554.06-4.892-.227-1.249-.27-2.876.124-3.983-.114l-7.053-.115c-.78 0-2.3.221-2.845-.114h-6.94c-.087.37-.318.973-.227 1.14.311 2.16 3.232 2.073 4.21 3.648.75 1.21.778 2.978 1.933 3.761 1.203.815 2.676.791 3.527 1.938.738.992 1.283 2.47 2.276 3.191.764.555 1.83.732 2.39 1.481.959 1.289 1.651 2.834 2.957 3.763.352.25.977.54 1.366.683l.91.115c.162.103.522.94.796 1.14.577.418 1.256.605 1.82 1.025 1.277.95 1.139 2.75 1.82 4.332.545 1.261 1.919 1.92 2.39 3.19.542 1.464.208 2.892.574 4.443.28 1.185.43 1.732.905 2.625.4.752.552 1.4 1.024 2.052 1 1.379 2.818 1.874 3.982 3.078.552.57.474 1.703 1.138 2.166 1.179.82 3.132.674 4.437 1.366 1.164.618 2.55-1.967 3.754-1.213 1.418.887 3.066 1.28 4.324 2.28 1.847-.093 2.347-1.739 3.185-2.85.469-.621 1.462 3.307 2.162 2.923.2-3.366 1.806-5.816 2.958-8.207 1.066-.292 2.674-1.08 4.096-.57.265-.557.448-1.016.91-1.253.463-.236 3.227.51 4.779.912.937.242 4.371.722 5.46.456.51-.124.87-.45 1.594-.342.724.107.682.531 1.024.797.478.633 1.593 1.7 2.275 2.28.683.58 1.1 1.406 1.707 1.596 1.084.707 1.593 2.191 2.616 2.964 1.251.944 2.807 1.847 3.64 3.191.579.932.176 1.945.57 3.079.167.479.819 1.785 1.138 2.28.825 1.277 1.557 2.657 2.389 3.988.12.191.508.455.57.684l-.115 1.14c.176.655.782 1.254 1.024 1.824v.684c.12.242.583.396.796.57 1.03.838 2.986 2.507 3.755 3.533.292.39.741.924.91 1.367.31.817.133 1.742.57 2.395.403.606 2.262 2.354 2.957 2.622.77.295 1.479.357 1.934.683.455.327.537 1.2.342 2.051-.126.548-.607 1.591-.342 2.394.298.906 2.517 1.724 1.366 3.534.018 2.105.23.997.91 1.938.477.66.632 1.445 1.024 2.166.49.9 1.284 1.777 1.707 2.735.437.994.92 1.973 1.25 2.964.171.507.085.986.342 1.366.813.643 2.213.55 3.3.913 1.22.407 2.33 1.866 3.071 2.166.742.3 3.033.582 4.324 1.367.476.29.978.279 1.48.57.593.347.856.915 1.705 1.14 2.14.566 5.172-.728 7.396.229 1.852.795 4.153 3.462 4.55 3.19.398-.27.916-1.249 1.088-1.464.308-.932 1.378-1.121.847-1.499-.093-.107-.028-.952-.228-1.253-.391-.592-1.137-.915-1.365-1.71-.254-.886.175-1.907-.228-2.622l-1.48-1.482v-2.165c-.424-1.622-.788-3.128-1.25-4.56-.191-.592-.15-1.142-.455-1.596.16-.628.8-.664 1.023-1.253.43-1.134-.134-2.834.57-3.648v-.227c-.91.242-2.28-.708-2.591-.914l-.026.001c-.063-.058-.048-.05.026-.001.815-.013 1.165-.446 1.34-.454.395-.02.61.613 1.137.341.264-.026.32-.022.455-.114.261-.327.184-.664.341-1.139.4-1.208.995-3.614 1.706-4.56-.13-.605-.71-2.695.797-2.393.799-.741 1.63-1.515 2.048-2.622v-.57c.13-.307.54-1.015.342-1.367v-.229c-.545.176-1.388.556-1.82.911-.398.013-.912.04-1.139-.113-.038 0 .557-.781 1.025-.912.037-.19.948-1.039 1.82-1.14.022.475.079.522.227.798 1.902.032 3.923-1.193 3.3-3.533-.08-.301.11-1.056.455-1.14.309.623.642.834 1.137 1.254 1.956-.072 2.475-1.35 3.869-1.824v-.228c-1.167-.776 6.755-1.12 6.927-1.058 0 .19 1.31-.667 1.238-.868.688-.644.031-1.701 1.153-1.963.606 0 .656-1.24 1.262-1.24.504-.174 1.145-.843 1.593-1.14 2.409-1.6 4.909-3.307 5.349-6.84h.909c.69-.76 1.129-2.109 2.502-2.164.087-.35.225-.568.115-.798-.062-.696-.451-1.083-.911-1.368.01-.513.072-.623.228-.913-1.671-.785-1.023-2.844-2.048-3.989v-.114c1 .308 1.053 1.208 2.39 1.254.11-.728.477-.996.796-1.482.196-.074.11-.023.228-.114 1.14.014-.235.959.267 1.55.01.961-.343 1.992-.878 2.412v.342c1.013-.375-1.05.568-.007.63.129.136-.147 1.396.02 1.494-.163.24.864.02.7.178.397-.251 1.197-.735.807-.337 0 .038-1.075.665-1.075.701.955-.193 2.648-1.508 3.351-1.954 1.481-.942 3.103-1.984 4.665-2.736 1.191-.574 2.523-.907 3.868-1.254.667-.172 1.503-.016 2.049-.342.297-.393-1.183-1.432-1.366-1.938-.927-1.507 1.488-3.074 2.047-3.647 1.177-1.206.97-4-.341-5.471.033-1.003.414-3.723.341-4.103-.042-.217.707-1.408.911-1.596.037 0 .125-.66.342-.798.072-.17.556-2.057.568-2.622.01-.564.104-.727-.227-1.596zm-15.991 27.732a.362.362 0 0 0 .052-.039c-.21.133-.308.203-.052.04z" fill="#820431" fill-rule="nonzero"/><path d="M191.587 98.674c-.026-.064-.319-.341-.341-.456-.16-.78.685-1.58.113-2.507-.138-.086-.683.065-.91-.228-1.005-1.299-1.74-4.69-2.049-5.13-.307-.44-1.239-.428-1.592-.91-.353-.484.522-1.584.228-2.51-.65-2.039-3.149-2.437-3.756-4.672-.375-1.387-.257-3.413-.34-4.902v-2.051c-.296-1.37-.017-2.945-.341-4.446-.294-1.353-.019-2.95-.341-4.446-.527-2.431-.401-5.789-.683-8.206l-.115-.114c-1.09-.257-2.873-.189-3.755.455-.967-.104-1.596-.923-2.502-1.253-.893-.326-1.782-.317-2.617-.684-.381-.168-.696-.622-1.024-.798-.442-.239-.932-.118-1.365-.342-.994-.513-1.792-1.471-2.73-2.051-.44-.272-1.055-.278-1.48-.57-.75.035-.876.555-1.138 1.026-.77.177-1.623.52-2.616.227-.63-.185-1.57-.794-2.504-.57-.863.208-1.338.917-2.16 1.14-1.433.39-3.067-.355-3.983.456-.37.162-.613.928-.796 1.254-1.083-.044-1.248.139-1.593.799-.92-.075-.92-.571-1.479-.913l-1.138-.114c-.077-.047-.128-.392-.227-.456-.342-.221-.91-.303-1.252-.456-.082-.232-.118-.533-.114-.912-.195-.073-.111-.022-.227-.113-.546.115-.528.458-.683.911-.494.207-1.24.277-1.706-.114-1.184.021-1.022-.63-1.365-1.368-.397.03-.48.04-.683.229-.28.177-.45 1.181-.57 1.481h-.796l-.227 1.71a9.512 9.512 0 0 0-.114.115c-.746-.015-.834-.186-1.252-.457-.082-.4-.112-1.456-.341-1.823l-.113-.342c-1.061 0-1.432.502-1.82 1.14-1.15-.071-2.008-1.512-2.731-1.14-.709-.087-.76-.739-1.138-1.14-1.736.268-1.677 1.937-3.754 1.937l-.796-.57c.027-.435.132-.676 0-.911-.236-.6-1.408-1.06-1.936-1.369a5.8 5.8 0 0 1-.113-1.253c-.839.146-2.494-.398-2.958-.114-.442.18-.837.908-1.138 1.254-1.21.014-1.675-.58-2.047-1.368-1.017-.192-1.625.497-2.732.228-.926-.225-1.666-.881-2.502-1.14l-2.618-.114c-.192-.068-.382-.342-.568-.456-.052-.285.067-1.054 0-1.254-.089-.263-.625-.648-.796-.912-1.525 0-2.557.006-3.982 0v-.456h-.114l-.342.57h-1.365l-1.024-.797c-.61-.807-1.073-1.974-2.161-2.28-.19-.13-.56-.125-.91-.114-.015-9.987-.205-20.734-.341-30.548l-15.93-.228c-1.083 0-5.834.218-6.37-.114h-11.72c-1.608 0-3.973-.34-5.346.114-.006 1.949.153 4.16-.228 5.927-.199.924.054 2.182-.114 2.964-.438 2.034.2 4.745-.228 6.725l-.454 18.465-1.366 37.73a244.985 244.985 0 0 1-7.622-.115c-1.651-.056-3.668.199-5.12-.114h-2.162c-1.947 0-4.602.153-6.371-.228H34.92c-1.391-.01-3.554.06-4.892-.227-1.249-.27-2.876.124-3.983-.114l-7.053-.115c-.78 0-2.3.221-2.845-.114h-6.94c-.087.37-.318.973-.227 1.14.311 2.16 3.232 2.073 4.21 3.648.75 1.21.778 2.978 1.933 3.761 1.203.815 2.676.791 3.527 1.938.738.992 1.283 2.47 2.276 3.191.764.555 1.83.732 2.39 1.481.959 1.289 1.651 2.834 2.957 3.763.352.25.977.54 1.366.683l.91.115c.162.103.522.94.796 1.14.577.418 1.256.605 1.82 1.025 1.277.95 1.139 2.75 1.82 4.332.545 1.261 1.919 1.92 2.39 3.19.542 1.464.208 2.892.574 4.443.28 1.185.43 1.732.905 2.625.4.752.552 1.4 1.024 2.052 1 1.379 2.818 1.874 3.982 3.078.552.57.474 1.703 1.138 2.166 1.179.82 3.132.674 4.437 1.366 1.164.618 2.55-1.967 3.754-1.213 1.418.887 3.066 1.28 4.324 2.28 1.847-.093 2.347-1.739 3.185-2.85.469-.621 1.462 3.307 2.162 2.923.2-3.366 1.806-5.816 2.958-8.207 1.066-.292 2.674-1.08 4.096-.57.265-.557.448-1.016.91-1.253.463-.236 3.227.51 4.779.912.937.242 4.371.722 5.46.456.51-.124.87-.45 1.594-.342.724.107.682.531 1.024.797.478.633 1.593 1.7 2.275 2.28.683.58 1.1 1.406 1.707 1.596 1.084.707 1.593 2.191 2.616 2.964 1.251.944 2.807 1.847 3.64 3.191.579.932.176 1.945.57 3.079.167.479.819 1.785 1.138 2.28.825 1.277 1.557 2.657 2.389 3.988.12.191.508.455.57.684l-.115 1.14c.176.655.782 1.254 1.024 1.824v.684c.12.242.583.396.796.57 1.03.838 2.986 2.507 3.755 3.533.292.39.741.924.91 1.367.31.817.133 1.742.57 2.395.403.606 2.262 2.354 2.957 2.622.77.295 1.479.357 1.934.683.455.327.537 1.2.342 2.051-.126.548-.607 1.591-.342 2.394.298.906 2.517 1.724 1.366 3.534.018 2.105.23.997.91 1.938.477.66.632 1.445 1.024 2.166.49.9 1.284 1.777 1.707 2.735.437.994.92 1.973 1.25 2.964.171.507.085.986.342 1.366.813.643 2.213.55 3.3.913 1.22.407 2.33 1.866 3.071 2.166.742.3 3.033.582 4.324 1.367.476.29.978.279 1.48.57.593.347.856.915 1.705 1.14 2.14.566 5.172-.728 7.396.229 1.852.795 4.153 3.462 4.55 3.19.398-.27.916-1.249 1.088-1.464.308-.932 1.378-1.121.847-1.499-.093-.107-.028-.952-.228-1.253-.391-.592-1.137-.915-1.365-1.71-.254-.886.175-1.907-.228-2.622l-1.48-1.482v-2.165c-.424-1.622-.788-3.128-1.25-4.56-.191-.592-.15-1.142-.455-1.596.16-.628.8-.664 1.023-1.253.43-1.134-.134-2.834.57-3.648v-.227c-.91.242-2.28-.708-2.591-.914l-.026.001c-.063-.058-.048-.05.026-.001.815-.013 1.165-.446 1.34-.454.395-.02.61.613 1.137.341.264-.026.32-.022.455-.114.261-.327.184-.664.341-1.139.4-1.208.995-3.614 1.706-4.56-.13-.605-.71-2.695.797-2.393.799-.741 1.63-1.515 2.048-2.622v-.57c.13-.307.54-1.015.342-1.367v-.229c-.545.176-1.388.556-1.82.911-.398.013-.912.04-1.139-.113-.038 0 .557-.781 1.025-.912.037-.19.948-1.039 1.82-1.14.022.475.079.522.227.798 1.902.032 3.923-1.193 3.3-3.533-.08-.301.11-1.056.455-1.14.309.623.642.834 1.137 1.254 1.956-.072 2.475-1.35 3.869-1.824v-.228c-1.167-.776 6.755-1.12 6.927-1.058 0 .19 1.31-.667 1.238-.868.688-.644.031-1.701 1.153-1.963.606 0 .656-1.24 1.262-1.24.504-.174 1.145-.843 1.593-1.14 2.409-1.6 4.909-3.307 5.349-6.84h.909c.69-.76 1.129-2.109 2.502-2.164.087-.35.225-.568.115-.798-.062-.696-.451-1.083-.911-1.368.01-.513.072-.623.228-.913-1.671-.785-1.023-2.844-2.048-3.989v-.114c1 .308 1.053 1.208 2.39 1.254.11-.728.477-.996.796-1.482.196-.074.11-.023.228-.114 1.14.014-.235.959.267 1.55.01.961-.343 1.992-.878 2.412v.342c1.013-.375-1.05.568-.007.63.129.136-.147 1.396.02 1.494-.163.24.864.02.7.178.397-.251 1.197-.735.807-.337 0 .038-1.075.665-1.075.701.955-.193 2.648-1.508 3.351-1.954 1.481-.942 3.103-1.984 4.665-2.736 1.191-.574 2.523-.907 3.868-1.254.667-.172 1.503-.016 2.049-.342.297-.393-1.183-1.432-1.366-1.938-.927-1.507 1.488-3.074 2.047-3.647 1.177-1.206.97-4-.341-5.471.033-1.003.414-3.723.341-4.103-.042-.217.707-1.408.911-1.596.037 0 .125-.66.342-.798.072-.17.556-2.057.568-2.622.01-.564.104-.727-.227-1.596zm-15.991 27.732a.362.362 0 0 0 .052-.039c-.21.133-.308.203-.052.04z" stroke="#820431" stroke-width="15.898"/><path d="M191.587 98.674c-.026-.064-.319-.341-.341-.456-.16-.78.685-1.58.113-2.507-.138-.086-.683.065-.91-.228-1.005-1.299-1.74-4.69-2.049-5.13-.307-.44-1.239-.428-1.592-.91-.353-.484.522-1.584.228-2.51-.65-2.039-3.149-2.437-3.756-4.672-.375-1.387-.257-3.413-.34-4.902v-2.051c-.296-1.37-.017-2.945-.341-4.446-.294-1.353-.019-2.95-.341-4.446-.527-2.431-.401-5.789-.683-8.206l-.115-.114c-1.09-.257-2.873-.189-3.755.455-.967-.104-1.596-.923-2.502-1.253-.893-.326-1.782-.317-2.617-.684-.381-.168-.696-.622-1.024-.798-.442-.239-.932-.118-1.365-.342-.994-.513-1.792-1.471-2.73-2.051-.44-.272-1.055-.278-1.48-.57-.75.035-.876.555-1.138 1.026-.77.177-1.623.52-2.616.227-.63-.185-1.57-.794-2.504-.57-.863.208-1.338.917-2.16 1.14-1.433.39-3.067-.355-3.983.456-.37.162-.613.928-.796 1.254-1.083-.044-1.248.139-1.593.799-.92-.075-.92-.571-1.479-.913l-1.138-.114c-.077-.047-.128-.392-.227-.456-.342-.221-.91-.303-1.252-.456-.082-.232-.118-.533-.114-.912-.195-.073-.111-.022-.227-.113-.546.115-.528.458-.683.911-.494.207-1.24.277-1.706-.114-1.184.021-1.022-.63-1.365-1.368-.397.03-.48.04-.683.229-.28.177-.45 1.181-.57 1.481h-.796l-.227 1.71a9.512 9.512 0 0 0-.114.115c-.746-.015-.834-.186-1.252-.457-.082-.4-.112-1.456-.341-1.823l-.113-.342c-1.061 0-1.432.502-1.82 1.14-1.15-.071-2.008-1.512-2.731-1.14-.709-.087-.76-.739-1.138-1.14-1.736.268-1.677 1.937-3.754 1.937l-.796-.57c.027-.435.132-.676 0-.911-.236-.6-1.408-1.06-1.936-1.369a5.8 5.8 0 0 1-.113-1.253c-.839.146-2.494-.398-2.958-.114-.442.18-.837.908-1.138 1.254-1.21.014-1.675-.58-2.047-1.368-1.017-.192-1.625.497-2.732.228-.926-.225-1.666-.881-2.502-1.14l-2.618-.114c-.192-.068-.382-.342-.568-.456-.052-.285.067-1.054 0-1.254-.089-.263-.625-.648-.796-.912-1.525 0-2.557.006-3.982 0v-.456h-.114l-.342.57h-1.365l-1.024-.797c-.61-.807-1.073-1.974-2.161-2.28-.19-.13-.56-.125-.91-.114-.015-9.987-.205-20.734-.341-30.548l-15.93-.228c-1.083 0-5.834.218-6.37-.114h-11.72c-1.608 0-3.973-.34-5.346.114-.006 1.949.153 4.16-.228 5.927-.199.924.054 2.182-.114 2.964-.438 2.034.2 4.745-.228 6.725l-.454 18.465-1.366 37.73a244.985 244.985 0 0 1-7.622-.115c-1.651-.056-3.668.199-5.12-.114h-2.162c-1.947 0-4.602.153-6.371-.228H34.92c-1.391-.01-3.554.06-4.892-.227-1.249-.27-2.876.124-3.983-.114l-7.053-.115c-.78 0-2.3.221-2.845-.114h-6.94c-.087.37-.318.973-.227 1.14.311 2.16 3.232 2.073 4.21 3.648.75 1.21.778 2.978 1.933 3.761 1.203.815 2.676.791 3.527 1.938.738.992 1.283 2.47 2.276 3.191.764.555 1.83.732 2.39 1.481.959 1.289 1.651 2.834 2.957 3.763.352.25.977.54 1.366.683l.91.115c.162.103.522.94.796 1.14.577.418 1.256.605 1.82 1.025 1.277.95 1.139 2.75 1.82 4.332.545 1.261 1.919 1.92 2.39 3.19.542 1.464.208 2.892.574 4.443.28 1.185.43 1.732.905 2.625.4.752.552 1.4 1.024 2.052 1 1.379 2.818 1.874 3.982 3.078.552.57.474 1.703 1.138 2.166 1.179.82 3.132.674 4.437 1.366 1.164.618 2.55-1.967 3.754-1.213 1.418.887 3.066 1.28 4.324 2.28 1.847-.093 2.347-1.739 3.185-2.85.469-.621 1.462 3.307 2.162 2.923.2-3.366 1.806-5.816 2.958-8.207 1.066-.292 2.674-1.08 4.096-.57.265-.557.448-1.016.91-1.253.463-.236 3.227.51 4.779.912.937.242 4.371.722 5.46.456.51-.124.87-.45 1.594-.342.724.107.682.531 1.024.797.478.633 1.593 1.7 2.275 2.28.683.58 1.1 1.406 1.707 1.596 1.084.707 1.593 2.191 2.616 2.964 1.251.944 2.807 1.847 3.64 3.191.579.932.176 1.945.57 3.079.167.479.819 1.785 1.138 2.28.825 1.277 1.557 2.657 2.389 3.988.12.191.508.455.57.684l-.115 1.14c.176.655.782 1.254 1.024 1.824v.684c.12.242.583.396.796.57 1.03.838 2.986 2.507 3.755 3.533.292.39.741.924.91 1.367.31.817.133 1.742.57 2.395.403.606 2.262 2.354 2.957 2.622.77.295 1.479.357 1.934.683.455.327.537 1.2.342 2.051-.126.548-.607 1.591-.342 2.394.298.906 2.517 1.724 1.366 3.534.018 2.105.23.997.91 1.938.477.66.632 1.445 1.024 2.166.49.9 1.284 1.777 1.707 2.735.437.994.92 1.973 1.25 2.964.171.507.085.986.342 1.366.813.643 2.213.55 3.3.913 1.22.407 2.33 1.866 3.071 2.166.742.3 3.033.582 4.324 1.367.476.29.978.279 1.48.57.593.347.856.915 1.705 1.14 2.14.566 5.172-.728 7.396.229 1.852.795 4.153 3.462 4.55 3.19.398-.27.916-1.249 1.088-1.464.308-.932 1.378-1.121.847-1.499-.093-.107-.028-.952-.228-1.253-.391-.592-1.137-.915-1.365-1.71-.254-.886.175-1.907-.228-2.622l-1.48-1.482v-2.165c-.424-1.622-.788-3.128-1.25-4.56-.191-.592-.15-1.142-.455-1.596.16-.628.8-.664 1.023-1.253.43-1.134-.134-2.834.57-3.648v-.227c-.91.242-2.28-.708-2.591-.914l-.026.001c-.063-.058-.048-.05.026-.001.815-.013 1.165-.446 1.34-.454.395-.02.61.613 1.137.341.264-.026.32-.022.455-.114.261-.327.184-.664.341-1.139.4-1.208.995-3.614 1.706-4.56-.13-.605-.71-2.695.797-2.393.799-.741 1.63-1.515 2.048-2.622v-.57c.13-.307.54-1.015.342-1.367v-.229c-.545.176-1.388.556-1.82.911-.398.013-.912.04-1.139-.113-.038 0 .557-.781 1.025-.912.037-.19.948-1.039 1.82-1.14.022.475.079.522.227.798 1.902.032 3.923-1.193 3.3-3.533-.08-.301.11-1.056.455-1.14.309.623.642.834 1.137 1.254 1.956-.072 2.475-1.35 3.869-1.824v-.228c-1.167-.776 6.755-1.12 6.927-1.058 0 .19 1.31-.667 1.238-.868.688-.644.031-1.701 1.153-1.963.606 0 .656-1.24 1.262-1.24.504-.174 1.145-.843 1.593-1.14 2.409-1.6 4.909-3.307 5.349-6.84h.909c.69-.76 1.129-2.109 2.502-2.164.087-.35.225-.568.115-.798-.062-.696-.451-1.083-.911-1.368.01-.513.072-.623.228-.913-1.671-.785-1.023-2.844-2.048-3.989v-.114c1 .308 1.053 1.208 2.39 1.254.11-.728.477-.996.796-1.482.196-.074.11-.023.228-.114 1.14.014-.235.959.267 1.55.01.961-.343 1.992-.878 2.412v.342c1.013-.375-1.05.568-.007.63.129.136-.147 1.396.02 1.494-.163.24.864.02.7.178.397-.251 1.197-.735.807-.337 0 .038-1.075.665-1.075.701.955-.193 2.648-1.508 3.351-1.954 1.481-.942 3.103-1.984 4.665-2.736 1.191-.574 2.523-.907 3.868-1.254.667-.172 1.503-.016 2.049-.342.297-.393-1.183-1.432-1.366-1.938-.927-1.507 1.488-3.074 2.047-3.647 1.177-1.206.97-4-.341-5.471.033-1.003.414-3.723.341-4.103-.042-.217.707-1.408.911-1.596.037 0 .125-.66.342-.798.072-.17.556-2.057.568-2.622.01-.564.104-.727-.227-1.596zm-15.991 27.732a.362.362 0 0 0 .052-.039c-.21.133-.308.203-.052.04z" fill="#B3B5B7" fill-rule="nonzero"/><path d="M191.587 98.674c-.026-.064-.319-.341-.341-.456-.16-.78.685-1.58.113-2.507-.138-.086-.683.065-.91-.228-1.005-1.299-1.74-4.69-2.049-5.13-.307-.44-1.239-.428-1.592-.91-.353-.484.522-1.584.228-2.51-.65-2.039-3.149-2.437-3.756-4.672-.375-1.387-.257-3.413-.34-4.902v-2.051c-.296-1.37-.017-2.945-.341-4.446-.294-1.353-.019-2.95-.341-4.446-.527-2.431-.401-5.789-.683-8.206l-.115-.114c-1.09-.257-2.873-.189-3.755.455-.967-.104-1.596-.923-2.502-1.253-.893-.326-1.782-.317-2.617-.684-.381-.168-.696-.622-1.024-.798-.442-.239-.932-.118-1.365-.342-.994-.513-1.792-1.471-2.73-2.051-.44-.272-1.055-.278-1.48-.57-.75.035-.876.555-1.138 1.026-.77.177-1.623.52-2.616.227-.63-.185-1.57-.794-2.504-.57-.863.208-1.338.917-2.16 1.14-1.433.39-3.067-.355-3.983.456-.37.162-.613.928-.796 1.254-1.083-.044-1.248.139-1.593.799-.92-.075-.92-.571-1.479-.913l-1.138-.114c-.077-.047-.128-.392-.227-.456-.342-.221-.91-.303-1.252-.456-.082-.232-.118-.533-.114-.912-.195-.073-.111-.022-.227-.113-.546.115-.528.458-.683.911-.494.207-1.24.277-1.706-.114-1.184.021-1.022-.63-1.365-1.368-.397.03-.48.04-.683.229-.28.177-.45 1.181-.57 1.481h-.796l-.227 1.71a9.512 9.512 0 0 0-.114.115c-.746-.015-.834-.186-1.252-.457-.082-.4-.112-1.456-.341-1.823l-.113-.342c-1.061 0-1.432.502-1.82 1.14-1.15-.071-2.008-1.512-2.731-1.14-.709-.087-.76-.739-1.138-1.14-1.736.268-1.677 1.937-3.754 1.937l-.796-.57c.027-.435.132-.676 0-.911-.236-.6-1.408-1.06-1.936-1.369a5.8 5.8 0 0 1-.113-1.253c-.839.146-2.494-.398-2.958-.114-.442.18-.837.908-1.138 1.254-1.21.014-1.675-.58-2.047-1.368-1.017-.192-1.625.497-2.732.228-.926-.225-1.666-.881-2.502-1.14l-2.618-.114c-.192-.068-.382-.342-.568-.456-.052-.285.067-1.054 0-1.254-.089-.263-.625-.648-.796-.912-1.525 0-2.557.006-3.982 0v-.456h-.114l-.342.57h-1.365l-1.024-.797c-.61-.807-1.073-1.974-2.161-2.28-.19-.13-.56-.125-.91-.114-.015-9.987-.205-20.734-.341-30.548l-15.93-.228c-1.083 0-5.834.218-6.37-.114h-11.72c-1.608 0-3.973-.34-5.346.114-.006 1.949.153 4.16-.228 5.927-.199.924.054 2.182-.114 2.964-.438 2.034.2 4.745-.228 6.725l-.454 18.465-1.366 37.73a244.985 244.985 0 0 1-7.622-.115c-1.651-.056-3.668.199-5.12-.114h-2.162c-1.947 0-4.602.153-6.371-.228H34.92c-1.391-.01-3.554.06-4.892-.227-1.249-.27-2.876.124-3.983-.114l-7.053-.115c-.78 0-2.3.221-2.845-.114h-6.94c-.087.37-.318.973-.227 1.14.311 2.16 3.232 2.073 4.21 3.648.75 1.21.778 2.978 1.933 3.761 1.203.815 2.676.791 3.527 1.938.738.992 1.283 2.47 2.276 3.191.764.555 1.83.732 2.39 1.481.959 1.289 1.651 2.834 2.957 3.763.352.25.977.54 1.366.683l.91.115c.162.103.522.94.796 1.14.577.418 1.256.605 1.82 1.025 1.277.95 1.139 2.75 1.82 4.332.545 1.261 1.919 1.92 2.39 3.19.542 1.464.208 2.892.574 4.443.28 1.185.43 1.732.905 2.625.4.752.552 1.4 1.024 2.052 1 1.379 2.818 1.874 3.982 3.078.552.57.474 1.703 1.138 2.166 1.179.82 3.132.674 4.437 1.366 1.164.618 2.55-1.967 3.754-1.213 1.418.887 3.066 1.28 4.324 2.28 1.847-.093 2.347-1.739 3.185-2.85.469-.621 1.462 3.307 2.162 2.923.2-3.366 1.806-5.816 2.958-8.207 1.066-.292 2.674-1.08 4.096-.57.265-.557.448-1.016.91-1.253.463-.236 3.227.51 4.779.912.937.242 4.371.722 5.46.456.51-.124.87-.45 1.594-.342.724.107.682.531 1.024.797.478.633 1.593 1.7 2.275 2.28.683.58 1.1 1.406 1.707 1.596 1.084.707 1.593 2.191 2.616 2.964 1.251.944 2.807 1.847 3.64 3.191.579.932.176 1.945.57 3.079.167.479.819 1.785 1.138 2.28.825 1.277 1.557 2.657 2.389 3.988.12.191.508.455.57.684l-.115 1.14c.176.655.782 1.254 1.024 1.824v.684c.12.242.583.396.796.57 1.03.838 2.986 2.507 3.755 3.533.292.39.741.924.91 1.367.31.817.133 1.742.57 2.395.403.606 2.262 2.354 2.957 2.622.77.295 1.479.357 1.934.683.455.327.537 1.2.342 2.051-.126.548-.607 1.591-.342 2.394.298.906 2.517 1.724 1.366 3.534.018 2.105.23.997.91 1.938.477.66.632 1.445 1.024 2.166.49.9 1.284 1.777 1.707 2.735.437.994.92 1.973 1.25 2.964.171.507.085.986.342 1.366.813.643 2.213.55 3.3.913 1.22.407 2.33 1.866 3.071 2.166.742.3 3.033.582 4.324 1.367.476.29.978.279 1.48.57.593.347.856.915 1.705 1.14 2.14.566 5.172-.728 7.396.229 1.852.795 4.153 3.462 4.55 3.19.398-.27.916-1.249 1.088-1.464.308-.932 1.378-1.121.847-1.499-.093-.107-.028-.952-.228-1.253-.391-.592-1.137-.915-1.365-1.71-.254-.886.175-1.907-.228-2.622l-1.48-1.482v-2.165c-.424-1.622-.788-3.128-1.25-4.56-.191-.592-.15-1.142-.455-1.596.16-.628.8-.664 1.023-1.253.43-1.134-.134-2.834.57-3.648v-.227c-.91.242-2.28-.708-2.591-.914l-.026.001c-.063-.058-.048-.05.026-.001.815-.013 1.165-.446 1.34-.454.395-.02.61.613 1.137.341.264-.026.32-.022.455-.114.261-.327.184-.664.341-1.139.4-1.208.995-3.614 1.706-4.56-.13-.605-.71-2.695.797-2.393.799-.741 1.63-1.515 2.048-2.622v-.57c.13-.307.54-1.015.342-1.367v-.229c-.545.176-1.388.556-1.82.911-.398.013-.912.04-1.139-.113-.038 0 .557-.781 1.025-.912.037-.19.948-1.039 1.82-1.14.022.475.079.522.227.798 1.902.032 3.923-1.193 3.3-3.533-.08-.301.11-1.056.455-1.14.309.623.642.834 1.137 1.254 1.956-.072 2.475-1.35 3.869-1.824v-.228c-1.167-.776 6.755-1.12 6.927-1.058 0 .19 1.31-.667 1.238-.868.688-.644.031-1.701 1.153-1.963.606 0 .656-1.24 1.262-1.24.504-.174 1.145-.843 1.593-1.14 2.409-1.6 4.909-3.307 5.349-6.84h.909c.69-.76 1.129-2.109 2.502-2.164.087-.35.225-.568.115-.798-.062-.696-.451-1.083-.911-1.368.01-.513.072-.623.228-.913-1.671-.785-1.023-2.844-2.048-3.989v-.114c1 .308 1.053 1.208 2.39 1.254.11-.728.477-.996.796-1.482.196-.074.11-.023.228-.114 1.14.014-.235.959.267 1.55.01.961-.343 1.992-.878 2.412v.342c1.013-.375-1.05.568-.007.63.129.136-.147 1.396.02 1.494-.163.24.864.02.7.178.397-.251 1.197-.735.807-.337 0 .038-1.075.665-1.075.701.955-.193 2.648-1.508 3.351-1.954 1.481-.942 3.103-1.984 4.665-2.736 1.191-.574 2.523-.907 3.868-1.254.667-.172 1.503-.016 2.049-.342.297-.393-1.183-1.432-1.366-1.938-.927-1.507 1.488-3.074 2.047-3.647 1.177-1.206.97-4-.341-5.471.033-1.003.414-3.723.341-4.103-.042-.217.707-1.408.911-1.596.037 0 .125-.66.342-.798.072-.17.556-2.057.568-2.622.01-.564.104-.727-.227-1.596zm-15.991 27.732a.362.362 0 0 0 .052-.039c-.21.133-.308.203-.052.04z" stroke="#FFF" stroke-width="3.974"/><path fill="#820431" fill-rule="nonzero" d="M114.935 61.076v74.941h10.283v14.899H84.514v-14.899h10.14V61.076h-20.28v7.476H54.092V46.177h82.01l-21.168 14.899"/><path d="M88.193 147.23h33.346v-7.527h-10.283V59.161l13.21-9.298H57.772v15.004h12.922V57.39h27.638v82.313H88.193v7.527zm40.704 7.372H80.836v-22.27h10.139v-67.57H78.052v7.476H50.414V42.491h97.325l-29.125 20.5v69.34h10.283v22.27z" fill="#820431" fill-rule="nonzero"/><path fill="#FFF" fill-rule="nonzero" d="M114.935 61.076v74.941h10.283v14.899H84.514v-14.899h10.14V61.076h-20.28v7.476H54.092V46.177h101.69l-40.848 14.899"/><path d="M85.597 149.832h38.539v-12.73h-10.283V60.316l35.794-13.056H55.175v20.207H73.29v-7.476h22.445v77.11h-10.14v12.73zM126.3 152H83.432v-17.067h10.14V62.16H75.455v7.476H53.011V45.093h102.771l.37 2.103-40.135 14.64v73.097H126.3V152z" fill="#B3B5B7" fill-rule="nonzero"/><path fill="#820431" fill-rule="nonzero" d="M36.477 140.617h9.251v3.442h18.633v-13.815H43.878l-7.4-5.487v-16.564l7.4-5.487H66.21l7.4 5.487v4.812h-9.25v-3.44H45.728v13.821h20.483l7.4 5.488v16.555l-7.4 5.487H43.878l-7.4-5.487v-4.812"/><path d="M68.04 109.32h.907l-.907-.673v.673zM40.156 122.9l1.893 1.403v-15.656l-1.893 1.404V122.9zm27.884 6.428v15.647l1.893-1.404v-12.84l-1.893-1.403zm-26.898 14.974l.907.673v-.673h-.907zm26.282 10.3h-24.76l-9.866-7.315V136.93h16.61v3.442h11.274v-6.443H42.664l-9.866-7.315v-20.28l9.866-7.315h24.76l9.867 7.316v10.355H60.682v-3.441H49.407v6.45h18.017l9.867 7.316v20.27l-9.867 7.316z" fill="#820431" fill-rule="nonzero"/><path fill="#FFF" fill-rule="nonzero" d="M36.477 140.617h9.251v3.442h18.633v-13.815H43.878l-7.4-5.487v-16.564l7.4-5.487H66.21l7.4 5.487v4.812h-9.25v-3.44H45.728v13.821h20.483l7.4 5.488v16.555l-7.4 5.487H43.878l-7.4-5.487v-4.812"/><path d="M44.234 149.832h21.62l6.676-4.95V129.42l-6.676-4.95H44.646v-15.99h20.797v3.441h7.087v-3.182l-6.676-4.95h-21.62l-6.675 4.95v15.472l6.675 4.95h21.209v15.982H44.646v-3.442H37.56v3.182l6.675 4.949zM66.568 152H43.52l-8.126-6.025v-6.442H46.81v3.442h16.47v-11.647H43.52l-8.126-6.024v-17.657l8.126-6.025h23.047l8.126 6.025v6.442H63.279v-3.44H46.81v11.653h19.758l8.126 6.025v17.648L66.568 152z" fill="#B3B5B7" fill-rule="nonzero"/><path fill="#820431" fill-rule="nonzero" d="M131.644 103.14h18.534v6.796h-4.641v34.185h18.632v-34.185h-4.642v-6.797h18.535v6.797h-4.642v35.542l-7.4 5.438h-22.334l-7.4-5.438v-35.542h-4.642v-6.797"/><path d="M139.965 143.61l1.893 1.391v-38.176h-1.893v36.786zm27.883-36.785v38.177l1.893-1.391v-36.786h-1.893zm-.623 47.777h-24.743l-9.875-7.256v-33.725h-4.642V99.454h25.892v14.167h-4.641v26.814h11.274v-26.814h-4.642V99.454h25.893v14.167h-4.642v33.725l-9.874 7.256z" fill="#820431" fill-rule="nonzero"/><path fill="#FFF" fill-rule="nonzero" d="M131.644 103.14h18.534v6.796h-4.641v34.185h18.632v-34.185h-4.642v-6.797h18.535v6.797h-4.642v35.542l-7.4 5.438h-22.334l-7.4-5.438v-35.542h-4.642v-6.797"/><path d="M144.04 149.832h21.626l6.672-4.903v-36.077h4.642v-4.629h-16.37v4.629h4.641v36.353h-20.796v-36.353h4.64v-4.629h-16.369v4.629h4.642v36.077l6.672 4.903zM166.375 152h-23.043l-8.128-5.972V111.02h-4.642v-8.965h20.698v8.965h-4.641v32.017h16.468V111.02h-4.642v-8.965h20.699v8.965h-4.642v35.008L166.375 152z" fill="#B3B5B7" fill-rule="nonzero"/><path fill="#FFF" fill-rule="nonzero" d="M114.935 61.076v74.941h10.283v14.899H84.514v-14.899h10.14V61.076h-20.28v7.476H54.092V46.177h101.69l-40.848 14.899"/><path d="M84.73 150.7h40.272v-14.466h-10.284v-75.31l39.837-14.53H54.31v21.941h19.848V60.86H94.87v75.375H84.73V150.7zm40.704.433H84.298V135.8h10.14V61.293H74.59v7.476H53.876V45.96h101.906l.074.421-40.705 14.847V135.8h10.283v15.332z" fill="#B3B5B7" fill-rule="nonzero"/><path fill="#FFF" fill-rule="nonzero" d="M36.477 140.617h9.251v3.442h18.633v-13.815H43.878l-7.4-5.487v-16.564l7.4-5.487H66.21l7.4 5.487v4.812h-9.25v-3.44H45.728v13.821h20.483l7.4 5.488v16.555l-7.4 5.487H43.878l-7.4-5.487v-4.812"/><path d="M43.95 150.7h22.19l7.256-5.38v-16.337l-7.257-5.38H45.512v-14.256h19.065v3.442h8.819v-4.486l-7.257-5.38H43.95l-7.255 5.38v16.345l7.255 5.38h20.628v14.248H45.512v-3.442h-8.818v4.486l7.255 5.38zm22.332.433H43.806l-7.545-5.595V140.4h9.684v3.442h18.2v-13.381H43.806l-7.545-5.595v-16.782l7.545-5.595h22.476l7.546 5.595v5.138h-9.683v-3.441h-18.2v13.388h20.337l7.546 5.595v16.774l-7.546 5.595z" fill="#B3B5B7" fill-rule="nonzero"/><path fill="#FFF" fill-rule="nonzero" d="M131.644 103.14h18.534v6.796h-4.641v34.185h18.632v-34.185h-4.642v-6.797h18.535v6.797h-4.642v35.542l-7.4 5.438h-22.334l-7.4-5.438v-35.542h-4.642v-6.797"/><path d="M143.757 150.7h22.192l7.255-5.331v-35.65h4.641v-6.363h-18.102v6.363h4.642v34.619H145.32v-34.62h4.641v-6.362h-18.1v6.363h4.642v35.65l7.254 5.33zm22.334.433h-22.476l-7.545-5.545v-35.435h-4.642v-7.23h18.966v7.23h-4.64v33.751h18.199v-33.751h-4.642v-7.23h18.967v7.23h-4.642v35.435l-7.545 5.545z" fill="#B3B5B7" fill-rule="nonzero"/><path d="M119.763 46.865l.288-4.318 7.936.731 5.05-2.635c1.029 0 6.007-1.22 6.78-.951.772.268 2.958.366 2.958.366l3.173-.513 2.586.739 3.99 2.286 9.799.928 4.357 6.196 5.405 2.151 7.19 6 2.205 2.336-1.544 2.15-1.382 1.883-.577 2.269-2.289 1.227-1.535 4.117-2.308.512.858.869-.786 2.498-1.587 1.245-5.173 1.551 2.504-4.113 1.016-3.513-6.115-6.662s-2.446.94-3.862 3.36c-1.415 2.42-4.366 7.774-4.366 7.774l4.76 4.39 1.281 2.765 2.345-.76 1.815-1.548-.319 2.247 2.291-1.89-1.175 4.469-2.937 2.544-.577 4.245-6.78 1.538-3.418-2.71.443-2.63-3.617-1.822-13.27-.849-2.473 1.328-8.494 6.185-13.834 14.312-.109-55.005 9.497-5.292" fill="#FFF" fill-rule="nonzero"/><path d="M137.41 46.785c2.412-2.347 5.044-1.22 6.359-2.405 1.864-1.68 2.846-2.769 5.098-3.207 1.279.65 1.136.708 1.136.708l1.526.987s-1.997.93-2.405 2.209c-.226.705-1.922.35-3.566 1.534-.351.252-2.25 2.762-2.412 3.741 0 0 1.749-1.94 3.544-2.825 1.864-.918 3.545-.59 4.071-1.623 1.37-2.692 2.943-2.864 5.227-2.825.988.017 1.807.024 2.704.152.897.128 1.395.17 2.924.687 1.528.518 3.678 4.981 4.738 5.833 1.059.851 4.595 2.334 5.735 2.93 1.143.596 4.502 4.21 5.97 5.018 1.193.658 3.173 2.357 2.386 3.198-.788.842-2.01-.495-2.374-1.019-.365-.524-1.13-.624-1.56-.523-.43.101-.602.44-.893.753-.563.605.64 1.331.807 1.834.168.502-.685.975-.284.915.503-.076 1.68-.237 1.905 1.061.042.249-.069 1.04-.08 1.32-.266.614-.675 1.2-1.056 1.417-.448.255-1.508.638-1.508.638s-1.21 3.184-1.454 3.524c-.124.173-.368.382-.724.512-.59.138-1.033.12-1.327.052-1.1-.256-.856-.894-1.59-1.107-.733-.213-1.508-.17-2.12-.64-.175-.134-.532-.545-.956-1.104l.198-.11c2.003-1.06 4.277-1.378 4.476-1.368.112-.014.46.03.552.03a.361.361 0 0 0 .353-.368.36.36 0 0 0-.353-.368c-.048 0-.448-.016-.637.007-.227-.008-2.586.51-4.556 1.76-.077.05-.154.101-.231.154-.41-.555-.866-1.22-1.28-1.894.288-.095.589-.181.896-.25 2.185-.683 4.47-.256 4.69-.253.432.038.798-.082.818-.277.018-.192-.323-.386-.764-.426-.186-.006-2.655-.258-4.838.617-.328.102-.645.22-.95.35-.563-.943-1.031-1.882-1.167-2.545a4.161 4.161 0 0 1-.066-1.047c.206.01.415.023.624.042 2.642.104 5.12 1.17 5.312 1.312.45.203.852.275.954.116.106-.164-.198-.54-.683-.76-.22-.16-2.893-1.099-5.57-1.02a13.673 13.673 0 0 0-.612 0c.104-3.048 2.666-3.747 2.683-3.731-2.63.207-3.573 2.262-3.688 3.838-1.913.17-3.567.565-3.551.597-.013-.033 1.588-.286 3.478-.33-.011.452.036.993.1 1.28 0 0-1.305-.467-2.854-.254-1.548.212-1.677.344-2.043.216-.367-.128-.91-.581-.544-1.475.367-.894.933-1.543 1.189-2.879.203-2.223-.439-2.329.292-4.046.732-1.718 2.246-2.312 3.143-2.482.897-.17 3.792.787 5.015 1.468 1.223.681 2.772 1.874 3.424 2.002 0 0-2.616-3.319-2.675-4.602-1.367.233-3.724-.167-4.255-.295-1.16-.2-1.793-4.812-1.752-3.576.04 1.234.429 3.538-1.596 2.387-.14-.08-.62.891-.248.928 1.882.185-.384 1.553-2.13 3.121-1.653 1.483.04 5.333-2.632 8.246-1.26 1.374-3.913 1.065-5.299 1.107-1.385.043 7.054 2.1 7.163 1.24 0 0-.493 2.12-2.028 3.55-1.535 1.433-3.257 3.946-3.543 6.032-.285 2.086.382 2.234.382 2.234s4.84 6.032 4.632 11.179c0 0 .367.298 1.182.255.815-.043 2.41.607 3.592-.116 0 0-1.216 1.921-.41 3.368-.374.098-.59.892-2.72.412-1.521-.343-3.605.95-3.605.95-.377-.631-.862-.936-1.3-1.09-.863-.301-1.673-1.413-1.673-1.413s.57-.222.328-2.792c0 0-1.263-.299-1.508-.682-.244-.383-1.573-1.485-2.698-1.6-1.126-.116-7.985-.705-9.477-.745-1.491-.04-1.384.107-1.384.107s-.955-.51-1.49-4.423c0 0-1.322 3.05-4.023 5.813-2.52 2.58-5.635 3.24-5.635 3.24s3.217-4.047 1.316-8.78c.439 5.42-5.062 11.718-14.302 17.906 0 2.702.052 7.521.052 7.521s7.016-8.64 12.17-13.248c3.605-3.222 8.767-6.034 10.728-6.368 1.11-.189 3.235-.115 4.947-.009-.365.382-.436.87-.292 1.145.804-.801 1.579-1.068 2.083-1.068.584.035 1.77-.02 1.352 0-.245.012-1.06 1.03-.475 1.183.475-.84 2.173-1.01 2.412-.993.925.065 1.632-.017 1.968.266 1.367 1.15 3.138 1.69 3.138 1.69s-.19 1.678-.728 2.185c1.139.73 1.328 1.775 2.127 2.022 1.26.39 1.87 1.829 3.155 1.907-.316-.665-.175-.957.3-1.206 1.21-.631 2.568-.212 3.024-.21.755.002 1.727-.288 2.045-.527 0 0 .713-.486 1.027-1.078-.67-1.728.479-1.874.479-1.874s-.58-1.184.026-2.076c0 0 4.842-2.762 3.932-8.255l-2.03 2.163s.249-.81-.025-1.81c0 0-2.705 2.746-4.257 2.24 0 0 .631-1.717-5.428-6.595 0 0 2.895-7.095 7.775-10.24 0 0 .692.698 1.545 1.624-1.052.605-1.73 1.191-1.711 1.203-.016-.016.72-.557 1.825-1.08a43.492 43.492 0 0 1 1.74 2.005c-1.374 1.097-2.31 2.216-2.31 2.21-.005.007 1.028-1.045 2.463-2.019.516.655.87 1.284 1.09 1.666 1.286 2.224-1.29 6.005-3.105 7.65 0 0 1.174 1.082 4.184-.681 0 0 2.343-.512 3.21-1.513.866-1 1.478-2.133 1.247-3.34 0 0 1.147.137 2.153-1.99.563-1.19.991-2.465.991-2.465s1.72-1.27 1.978-1.51c.172-.16.347-.822.49-1.538.194-.465.3-.855.3-.855s1.55-1.143 2.006-1.715c.457-.572.987-1.566 1.095-2.24.089-.553-1.455-2.744-2.372-3.096-.652-.25-1.231-.62-2.006-1.144-.776-.524-3.285-3.62-4.47-4.43-1.186-.81-5.063-2.287-6.066-3.193-1.004-.905-2.569-4.41-4.03-5.327-1.358-.85-2.881-1.203-5.482-1.298-2.6-.095-5.129-.426-5.129-.426s-3.277-2.017-4.592-2.513c-1.155-.436-3.536.284-5.208.057-1.672-.228-3.245-.077-4.167-.057-2.796.057-7.948 1.202-11.128 3.779 0 0-1.973-.516-4.943-.672-1.422-.075-2.759-.223-2.896.157-.225.627-.472 1.844-.373 3.86 0 0-.825.308-3.573 1.496a64.89 64.89 0 0 1-5.38 2.024s.692.127 1.762.17c1.753.071 2.74-.01 2.765-.016 2.42-.66 4.414-1.73 4.701-1.839.366 1.13 1.015 2.746 2.032 4.318-.496 1.208-1.888 4.333-7.008 6.116 0 0 4.18 1.336 3.01 3.321-1.759 2.984-3.299 4.57-3.874 6.49-.772 2.575-.394 5.255-.35 5.255.135 0 .252-3.114 3.054-6.706 1.608-2.061 3.801-3.302 5.104-6.665.525-1.356 1.318-5.383 1.58-6.624.067.113 2.729 2.692 5.523 2.64-.07.105-3.692 4.16-4.17 7.389-.243 1.644-.091 3.572.365 5.24.456 1.668 1.185 5.054-.27 7.266-2.179 3.315-6.384 3.435-8.258 7.509-1.21 2.633-1.36 4.031-1.315 5.243.026.663.068 1.233.07 2 .175-2.73 2.706-6.918 5.45-7.842 3.556-1.198 7.773-4.28 8.704-6.638.93-2.357 1.314-6.383-.33-8.1-1.203-1.256-2.411-3.556-1.988-5.671.423-2.115 1.34-3.53 1.742-4.05 1.53-1.98 1.356-2.164 2.704-3.99 0 0-1.134.17-1.974.077-.948-.104-2.227.212-4.472-1.247-1.614-1.049-2.918-2.452-3.948-5.948-.9-3.054-.283-4.193-.283-4.193s3.537.075 5.524.374c6.468.974 9.377 1.223 9.541 3.227 0 0 .148-1.763-1.047-2.41-1.193-.647-2.519-.76-2.519-.76 1.48-1.546 2.753-1.243 3.975-1.284 2.658-.09 4.028-1.12 4.905-2.094 1.7.973 5.123-.435 6-.092-4.195 3.955-5.72 2.685-7.578 4.117-.93.74-1.851 2.411-1.851 2.411zm34.973 26.481c.082.396-.297 1.122-.63 1.715-.763 1.369-2.453 1.987-2.453 1.987 1.354-.912 2.471-3.264 2.508-4.075 0 0 .507.05.575.373zm-6.884 4.81s1.403-1.054 1.898-2.069c.496-1.015.982-2.371 1.35-3.653.311-1.08.981-1.075 1.584-.72 1.092.64.785 1.643.16 2.899-.792 1.595-2.85 3.205-4.992 3.542zm-5.005 6.18c.743-.237 1.859-.495 2.76-.944 1.13-.564 2.421-1.875 2.916-2.37 0 0-.413 2.172-1.486 3.746-1.073 1.574-2.931 2.673-4.149 2.63-.722-.043-.95-1.078-.95-1.078-.206-.863.166-1.746.909-1.984zm.314-1.609c1.552-.239 2.813-.903 3.558-2.11 0 0-.244 1.391-.596 1.8-.35.41-2.6 1.187-2.786 1.1-.186-.086-.577-.728-.176-.79zm-27.04-41.496c-2.124 1.076-2.572 2.286-2.686 2.405-.823-.287-1.973-.344-1.973-.344 1.43-1.126 3.496-1.95 4.66-2.061zm3.453-.916c1.243-.186 2.851 0 2.851 0s-.84.617-3.673 1.087c-1.428.238-1.97-.209-2.357-.343 0 0 1.644-.516 3.18-.744zm34.663 18.4c-.453-1.94-1.26-3.698-1.276-3.686.017-.008.692 1.8 1.001 3.751.355 1.94.524 3.953.546 4.14.046.376.202.666.355.65.155-.015.249-.341.202-.723a43.369 43.369 0 0 0-.828-4.132zm2.312 1.262c-.268-1.888-.972-3.58-.968-3.578-.003-.006.567 1.752.688 3.609.106 1.862-.31 3.715-.37 3.871-.079.343-.03.661.119.702.15.04.345-.207.428-.568.066-.177.356-2.144.103-4.036zm-36.954-9.041c-1.27 1.482-1.205 3.215-3.525 5.375 0 0 3.438-1.518 4.056-3.207 1.426-3.893 5.827-5.959 5.827-5.959s-1.604.177-2.673.706c-1.069.529-2.96 2.239-3.685 3.085z" fill="#820431" fill-rule="nonzero"/><path d="M121.858 44.662s5.557.103 8.61 1.307c2.187.862 4.503 4.067 4.503 4.067l-1.662-.501.662 1.21-5.419-.835s.941 1.099 3.594 2.062c-1.281.6-2.848.417-4.09.075.478 1.095 2.302.983 2.302.983-2.473 1.372-3.642-1.596-3.642-1.596l2.475-.013s-1.187-.442-2.043-1.244c-.856-.8-1.377-1.673-1.377-1.673l4.866-.203c-1.8-2.385-8.78-3.639-8.78-3.639m35.257 6.695c-1.261-.056-2.536-1.514-2.536-1.514s.333-.415 1.103-.774c.769-.359 1.189-.404 1.189-.404-.806 1.054.244 2.692.244 2.692zm1.46-1.282c.01.473-.316.721-.316.721l-.238.06c-.559-.709.191-1.217.191-1.217.158.078.254.18.363.436zm4.657 1.163c-1.283-.236-3.243-1.56-3.878-1.912 0 0-1.32-1.361-2.476-1.424-1.472-.08-3.045 1.674-4.216 1.524-1.172-.151-1.424-.736-1.424-.736s.073 1.642 2.299 1.744c0 0 1.217 1.76 3.381 1.609 2.165-.151 1.738-.365 2.436-.604.697-.238 3.878-.201 3.878-.201z" fill="#820431" fill-rule="nonzero"/><path d="M157.218 48.739c-.658 1.31.276 2.427.276 2.427-.616-1.5.107-2.155.107-2.155l-.383-.272m-.989 28.909c-1.228-1.6-2.631-1.756-2.631-1.756s-.578-.54 2.704 4.123c1.827 2.596 1.827 6.184 1.827 6.184.658-3.207 1.17-5.42-.146-7.177-.314-.419-1.37-.873-1.754-1.374" fill="#FFF" fill-rule="nonzero"/><path d="M161.28 53.15c-1.218.189-2.952 1.522-4.123 1.381-1.172-.141-2.924-1.336-2.924-1.336s.778 2.53 3.618 2.672c0 0 3.97-2.764 3.429-2.717" fill="#820431" fill-rule="nonzero"/><path d="M150.612 71.55c-1.028-.142-2.756-.71-3.494-2.169-1.102-2.177-.975-6.675 2.582-9.555 2.284-1.849.339-3.828 3.383-6.043-4.034.643-3.033 4.465-5.37 5.038-10.64 2.612-8.726 10.608-8.02 13.16.14-.116.264-10.147 7.233-11.245-3.393 4.278-1.947 6.742-1.267 7.906-4.638 2.445-5.105 7.08-3.01 9.685.07-.06-1.552-7.704 4.958-6.417-.559 1.47-1.32 3.374-1.12 4.848.252 1.833 2.144 3.007 3.12 4.903.922 1.796 1.41 3.792 1.374 5.3.512-1.813.421-2.97.215-4.049-.942-4.939-5.364-7.409-.584-11.361zm2.306.623c-3.263 4.655-1.81 9.577 1.919 11.876-2.688-2.954-2.586-5.704-1.919-11.876zM141.066 80.8c-1.506-3.281-1.197-4.566-1.007-6.994-3.295 5.913 1.337 10.718 1.337 10.804-5.205.055-6.119-7.07-5.753-9.933.296-2.323-2.01-3.642-1.415-6.554 1.535-7.502 6.363-8.223 9.618-12.24 1.498-1.85 1.271-2.75 1.316-4.41-.454 1.754-1.56 3.308-3.494 4.299-3.525 1.806-8.279 4.825-9.522 8.32-1.263 3.552-.989 7.525 1.018 12.198 2.007 4.672 1.245 6.115-1.066 11.083 3.743-2.954 13.214-1.394 13.214-1.394-.924-2.546-2.973-2.408-4.246-5.179z" fill="#820431"/><path d="M160.99 43.26s.31 2.264-1.424 2.2c-1.734-.065-2.114-1.357-3.978-1.296-1.53.05-1.98.487-3.028 1.46-1.044.97-2.912.73-2.912.73 4.251 1.521 4.701-1.283 6.142-1.449 1.44-.165 3.123 1.813 4.844 1.958.994.084 1.572 1.74 1.754 2.955.106.709.349 0 .542-.131-.647-4.272-1.94-6.428-1.94-6.428m7.41 15.377c-1.313-1.497-2.851-2.666-2.86-2.648.012-.015 1.457 1.26 2.649 2.836 1.225 1.542 2.32 3.238 2.428 3.392.217.31.492.492.62.407.128-.087.058-.42-.163-.734a43.57 43.57 0 0 0-2.674-3.253" fill="#820431" fill-rule="nonzero"/></g></svg>