<svg width="200" height="200" xmlns="http://www.w3.org/2000/svg"><g fill="none"><path fill="#231F20" d="M128.439 101.233h32.487l-.036-35.693h24.256V.26H14.53v65.28h24.562v35.693h32.746l-.034 41.487h-16.18v57.087h88.964V142.78h-16.15v-41.547"/><path fill="#A5A5A4" d="M19.136 4.542v56.652h40.773V46.068H76.56l3.896-3.954V65.46h44.027V46.068h16.177v15.126h40.59V4.542H19.137"/><path fill="#FFF" d="M140.66 61.194l3.666-4.282V42.025l-3.666 4.043v15.126"/><path fill="#ED1F2A" d="M23.748 8.82v48.092l15.498-15.433V24.67h121.68l-16.6 17.356v14.887h33.02V8.82H23.748"/><path fill="#ED1F2A" d="M80.456 65.46h20.236V24.669L80.456 42.114V65.46"/><path fill="#231F20" d="M120.528 65.46V42.025h23.798l16.6-17.356h-60.234v40.79h19.836m40.398-40.79v16.525l-16.6 15.718h33.02V8.82l-16.42 15.849"/><path fill="#A5A5A4" d="M68.521 96.877v-8.35h19.956l3.828-3.638H64.51v8.052H47.994l-3.7 3.936h24.227m43.973-8.349h8.034v62.21h16.262v41.021H63.81l-3.817 3.77h80.697v-48.466h-16.208V88.528h8.005v8.35h24.054V65.46l-3.756 3.776v23.705h-16.43v-8.052H108.47v77.726h12.046v16.402H80.547l-3.943 4.001h48.038v-24.207h-12.148V88.528"/><path fill="#231F20" d="M64.51 84.89h27.795l7.981-7.732H56.452v7.736l-8.458 8.047H64.51v-8.052M23.748 56.912l15.498-15.433V24.67h61.446L80.456 42.114l-24.448-.005v14.803h-32.26"/><path fill="#ED1F2A" d="M47.994 92.94V69.237h104.792l-7.86 7.922H56.452v7.736l-8.458 8.047m72.54 69.675l-7.766 8.072h-12.482l8.242-8.072h12.006"/><path fill="#ED1F2A" d="M136.356 92.94v-8.05l8.57-7.732v7.736l-8.57 8.047"/><path fill="#FFF" d="M19.136 61.194l4.612-4.282V8.82h153.598l3.905-4.278H19.136v56.652M76.56 46.068l3.896-3.954V65.46h76.086l-3.756 3.776H47.994v23.705l-3.7 3.936V65.46H76.56V46.068m59.796 38.822v8.05l-3.868 3.937v-8.35l3.868-3.638"/><path fill="#FFF" d="M80.456 88.528h-4.004v58.477H59.994v48.523l3.817-3.77v-41.08h16.645v-62.15"/><path fill="#ED1F2A" d="M112.494 158.81l12.153-.011v3.398l12.143-11.36v-.1h-16.262l-8.034 8.074"/><path fill="#FFF" d="M108.528 162.617l4.011-3.822h12.103l-4.108 3.822h-12.006"/><path fill="#ED1F2A" d="M92.305 84.89v77.79H80.547v16.337l7.779-8.328h11.96V77.158l-7.98 7.731"/><path fill="#ED1F2A" d="M80.456 88.528v62.15H63.81v41.08l12.793-13.23v-19.717h11.873V88.528h-8.021"/><path fill="#FFF" d="M92.305 84.89l-3.828 3.638v70.283H76.604v24.207l3.943-4.001v-16.338h11.758V84.89"/><path d="M154.116 193.339h.342c.395 0 .7-.096.904-.287a.963.963 0 0 0 .31-.743c0-.28-.071-.493-.215-.637-.142-.145-.426-.217-.845-.217h-.496v1.884zm-1.829 3.766V190.2h2.463c.841 0 1.432.067 1.766.198.337.133.594.336.773.61.179.271.268.607.268 1.008 0 .436-.116.831-.352 1.19-.232.358-.582.674-1.047.946l1.494 2.953h-1.986l-1.116-2.566h-.434v2.566h-1.829zm2.553 1.12a4.608 4.608 0 0 0 4.01-2.296c.43-.728.645-1.514.645-2.358a4.59 4.59 0 0 0-.62-2.32 4.57 4.57 0 0 0-1.7-1.708 4.581 4.581 0 0 0-2.335-.626c-.825 0-1.6.21-2.32.626-.72.418-1.29.988-1.707 1.707a4.529 4.529 0 0 0-.628 2.32c0 .845.215 1.631.645 2.36a4.545 4.545 0 0 0 1.72 1.694c.717.4 1.482.6 2.29.6zm-.007 1.582a6.194 6.194 0 0 1-3.072-.8 6.089 6.089 0 0 1-2.296-2.267 6.132 6.132 0 0 1-.864-3.17c0-1.11.277-2.148.834-3.117a6.053 6.053 0 0 1 2.276-2.286 6.171 6.171 0 0 1 3.122-.833c1.12 0 2.159.278 3.123.833a6.093 6.093 0 0 1 2.283 2.286c.56.969.84 2.007.84 3.118a6.11 6.11 0 0 1-.87 3.17 6.119 6.119 0 0 1-2.304 2.266c-.956.534-1.979.8-3.072.8z" fill="#100F0D"/></g></svg>