<svg width="200" height="200" xmlns="http://www.w3.org/2000/svg"><g fill-rule="nonzero" fill="none"><path d="M178.214 144.516c.469-1.717.856-3.572.835-4.579-.194-11.302-9.555-12.15-9.555-12.15 2.509 4.141-.018 10.852 1.364 9.958 1.385-.893 1.718-4.165 1.718-4.165s5.946.792 3.313 13.806c-1.89 8.683-5.127 12.201-10.262 7.858-4.406 6.733-11.217 7.208-11.217 7.208.64-.735 6.668-11.125 5.372-14.818-.078-.227-5.057-14.042-14.62-15.535-9.707-1.617-24.894 2.9-29.398 9.362-4.992 8.943 12.66 23.748 14.64 24.935 2.25.792 7.656 2.611 14.073-2.265 0 0-3.059 8.372-8.558 10.856 0 0 4.835 20.072-22.42 18.19 2.057-1.315 10.507-7.652 6.237-14.096-3.36 7.586-17.474 5.852-17.474 5.852 23.023-17.613-3.783-26.899-3.783-26.899-5.55-2.014-9.757-2.8-9.41-2.768 8.475-17.42 20.697-24.554 20.697-24.554-21.543 3.882-33.979 15.848-38.007 21.865-32.466-2.622-44.978 10.527-44.978 10.527 11.665-36.831 49.52-48.934 67.608-47.206-50.352-4.825-64.18 13.076-64.18 13.076 15.787-50.876 44.85-55.262 44.945-55.19.388-.108.796-.209 1.213-.309C58.218 51.543 57.71 23.211 57.71 23.211c9.292 20.38 37.93 29.96 65.953 42.71 37.652 17.14 41.881 27.255 45.718 45.878 0 0 10.196 7.911 11.54 24.264 0 0 .208 6.637-2.707 8.453Zm5.681-10.42c-.613-8.072-4.964-17.3-11.282-24.165-4.543-21.45-11.64-31.442-47.83-47.6C80.628 43.16 67.262 38.481 49.364.501c-1.887 22.221 4.26 33.35 4.477 33.735 0 0-5.064-3-9.156-8.898 2.34 14.924 13.506 21.126 13.506 21.126C63.49 63.014 71 70.749 71 70.749c-48.032 16.442-53.293 74.833-53.293 74.833s15.311-20.842 41.275-25.003C18.797 134.19 15 177.394 15 177.394s18.982-23.964 60.368-19.853c-.27-.247 9.376-14.456 20.834-18.667 0 0-10.751 10.043-16.224 19.783 0 0 9.625 1.7 13.495 2.853 3.88 1.155 13.946 4.297 13.414 10.105-.843 9.156-19.104 12.333-19.162 12.101 12.393 8.522 25.353 4.724 25.494 4.535-1.92 4.336-14.813 7.303-14.813 7.303s37.886 14.465 40.721-18.748c10.087-7.345 8.903-18.364 8.903-18.364s-4.776 6.699-14.058 5.428c-2.983-.412-16.56-9.811-12.339-18.355 1.4-2.839 11.81-9.44 26.1-7.457 6.454 1.151 9.31 10.98 9.251 11.356-.947 5.935-7.365 15.966-7.365 15.966s7.51.889 16.606-6.5c3.476 1.392 4.144 2.389 6.487.815 4.424-2.965 5.54-9.95 5.919-10.74 2.164-1.174 6.026-4.854 5.264-14.858Z" fill="#B09247"/><path fill="#B09247" d="M80.87 188.67h1.575v4.77h.57v-4.77h1.659v-.571H80.87v.572M87.718 192.444 86.35 188.1h-.915v5.341h.572v-4.54l1.425 4.54h.57l1.428-4.54v4.54H90V188.1h-.917l-1.365 4.345M81.864 72.287c10.969-1.787 25.074-1.242 39.94 5.294-16.12-13.929-30.962-13.902-48.188-25.22 0 .091-.98 6.966 8.248 19.926M151.599 112.057s2.682-4.903 2.874-9.21c-4.523-3.828-10.17-4.982-10.17-4.982 0 6.375 1.522 11.908 5.542 14.785 2.642 1.888 6.817 1.416 8.359-1.938.884-1.921-.514-4.513-.514-4.641-1.544 4.384-6.091 5.986-6.091 5.986"/><path d="M158.204 110.712c-1.542 3.354-5.717 3.826-8.359 1.938-4.02-2.877-5.541-8.41-5.541-14.785 0 0 5.646 1.154 10.17 4.981-.193 4.308-2.875 9.21-2.875 9.21s4.547-1.601 6.091-5.985c0 .128 1.398 2.72.514 4.641Zm-76.34-38.425c-9.229-12.96-8.248-19.835-8.248-19.927 17.226 11.319 32.069 11.292 48.189 25.22-14.867-6.535-28.972-7.08-39.94-5.293Zm99.056 63.776c-1.343-16.353-11.539-24.264-11.539-24.264-3.837-18.623-8.066-28.738-45.718-45.878-28.024-12.75-56.661-22.33-65.953-42.71 0 0 .508 28.332 18.657 50.264-.417.1-.825.201-1.213.31-.094-.073-29.158 4.313-44.945 55.189 0 0 13.828-17.9 64.18-13.076-18.089-1.728-55.943 10.375-67.608 47.206 0 0 12.512-13.15 44.978-10.527 4.028-6.017 16.464-17.983 38.007-21.865 0 0-12.222 7.134-20.696 24.554-.348-.032 3.86.754 9.409 2.768 0 0 26.806 9.286 3.783 26.899 0 0 14.115 1.734 17.474-5.852 4.27 6.444-4.18 12.78-6.238 14.096 27.256 1.882 22.42-18.19 22.42-18.19 5.5-2.484 8.559-10.856 8.559-10.856-6.417 4.876-11.823 3.057-14.073 2.265-1.98-1.187-19.632-15.992-14.64-24.935 4.504-6.463 19.69-10.979 29.399-9.362 9.562 1.493 14.54 15.308 14.619 15.535 1.296 3.693-4.731 14.083-5.372 14.818 0 0 6.81-.475 11.217-7.208 5.135 4.343 8.371.825 10.262-7.858 2.633-13.014-3.313-13.806-3.313-13.806s-.333 3.272-1.718 4.165c-1.382.894 1.145-5.817-1.364-9.957 0 0 9.36.847 9.555 12.15.021 1.006-.366 2.861-.835 4.578 2.915-1.816 2.706-8.453 2.706-8.453Z" fill="#511D20"/></g></svg>