<svg width="200" height="200" xmlns="http://www.w3.org/2000/svg"><path d="M62.506 84.415s-3.144-1.421-5.388-2.542c-3.93-1.964-6.977-4.216-10.514-7.056-10.273-8.25-13.94-12.308-24.414-15.665-4.283-1.373-10.178-2.746-14.818-2.964-1.933-.09-4.76-.308-5.222-.494-1.321-.53-2.166-2.074-1.482-3.74.235-.572.672-.875 1.2-1.058 2.092-.726 8.626-.746 10.64-.635 9.577.526 18.167 3.771 26.6 8.565 7.903 4.495 15.333 10.142 22.597 13.38 3.207 1.43 5.704 2.123 8.933 2.47 1.151.123 2.784.141 3.415 0 .426-.096.796-.25 1.27-.283.985-.066 1.352.156 1.764-.141.405-.291.925-1.062 1.411-1.552 1.103-1.108 3.319-1.609 4.996-1.553 1.06.036 2.425.218 2.978.095.556-.125 1.045-.431 1.623-.659 1.04-.41 2.592-.637 3.53-.423.751.17 1.318.615 2.046.62.782.006 2.349-.844 3.343-1.044.62-.124 1.917.08 2.805.62.154.094.247.186.385.227.44.132 2.248-.676 3.273-.847.549-.091 1.326.027 1.998.315.67.287 1 .572 1.408.49.233-.048.528-.205.828-.31.86-.305 2.388-.3 3.105 0 1.05.438 1.168.804 1.835.775.45-.019 1.007-.215 1.552-.282 2.422-.295 5.618 1.87 7.973 3.246.332.194.638.364.963.423.361.066.747-.005 1.169 0 .823.012 1.784.317 2.653.424 3.854.476 9.901-1.741 12.715-3.105a80.494 80.494 0 0 0 5.504-2.963c13.311-7.778 20.714-13.908 33.587-16.794 6.713-1.505 12.754-1.836 19.546-.495.712.141 1.267.909 1.412 1.821.177 1.117-.68 2.393-1.571 2.797-.409.186-6.202.667-9.578 1.027-5.797.62-13.433 3.045-18.276 5.575-3.6 1.88-6.202 3.655-9.385 6.21-5.96 4.784-11.7 10.125-18.654 13.439-1.799.857-4.695 2.103-4.695 2.103s.603.517 1.192.97c1.66 1.27 6.854 3.82 7.55 4.515 2.732 2.721-1.626 5.448-5.275 6.609-3.59 1.141-8.464 1.034-12.153-.61-.84-.376-4.75-2.935-5.692-2.47-1.056.519-.623 2.18-.658 3.815-.039 1.742-1.226 4.99-1.764 6.345-1.113 2.796-5.172 10.24-7.41 15.03-2.037 4.361-1.947 7.914-.776 12.913.33 1.409.92 3.208 1.27 3.81.183.315.379.558.425.85.094.588-.538 1.562-.637 2.453-.093.842.3 1.67.283 2.427-.059 2.47-4.466 6.606-6.35 7.748-.744.45-1.4.716-2.256.917-.602.14-9.553.14-10.167 0-2.815-.648-6.444-3.876-8.041-6.986-.548-1.068-.715-1.768-.483-2.83.084-.389.21-.748.2-1.164-.029-1.456-.725-1.992-.564-2.822.082-.42.386-.915.635-1.44.845-1.773 1.774-6.856 1.764-8.75-.02-4.421-1.568-7.394-4.022-11.854-1.425-2.591-6.668-12.36-6.844-16.272-.111-2.455.496-4.88-1.71-4.112-.876.305-1.912 1.013-2.947 1.544-5.08 2.608-11.133 2.88-15.806.706-1.967-.915-3.435-1.782-4.163-3.458-.556-1.279.07-2.072 1.362-2.996 2.517-1.798 7.977-4.905 7.977-4.905" fill="#E05E15"/></svg>