<svg width="200" height="200" xmlns="http://www.w3.org/2000/svg"><g fill="none"><path fill="#B6B5B5" d="M199.998 69.43v-1.337h-3.59v.56l-.002-.56-19.51.007h-2.258l-.98 2.03-12.532 25.917-12.561-25.928-.608-1.268-.222-.446-.155-.312h-24.677v3.581l-.002 9.981.002 2.245v1.327h5.013v38.317h-5.293v17.128h28.343V137.1l.004-9.976-.004-2.241v-1.339h-5.448v-20.163l12.395 25.412 3.21 6.603 3.25-6.594 12.566-25.56v20.3l-1.69.002h-3.598v17.128h28.347V137.1l.002-9.976-.002-2.241v-1.339h-5.44V85.227H200V71.675l-.002-2.245M36.27 102.945l2.377-5.473 2.38 5.47-4.758.003zM77.1 124.84v-1.33h-8.033l-16.76-38.52h2.609V67.856H21.877v17.136h3.091l-16.76 38.516-4.61.002H0v17.126h3.598l23.101.004 2.257-.004h1.333V123.51h-2.963l1.491-3.428h19.66l1.488 3.428H46.81v3.578l-.002 9.98.002 2.245v1.323h3.597l23.106.004 2.247-.004h1.34v-3.569l.003-9.979-.003-2.248z"/><path fill="#B6B5B5" d="M70.153 179.19h-3.639v-32.721h16.782V45.677h-28.51l-.004 13.074v3.61H21.873V15.704h.971l2.67-.008 148.496.008h3.627v.958l.008 2.652-.008 39.251v3.62h-33.089v-.958l-.007-2.662V45.677h-28.32V146.47h16.777v32.721h-.963l-2.67.007-59.212-.008"/><path fill="#550520" d="M146.123 70.567l14.817 30.77 15.531-30.775h.738l19.004-.018h1.38v12.221h-5.51v43.193h5.93v12.205h-23.898v-12.205h5.275V92.151l-18.405 37.762-9.304-19.372-8.615-18.32v33.737h5.409v12.281h-23.399v-12.313l1.018-.015h4.28V83.393h-5.115V70.567h19.928M44.15 104.894H33.186l5.532-11.965 5.434 11.965zm29.285 20.979l-6.08-.017-18.794-43.32 2.64.012h1.246l.006-1.17V70.21H24.279v12.344h4.449L9.792 125.961l-6.203-.035H2.478v12.297h25.231v-11.221l.004-1.059h-1.041l-3.132-.017 3.546-8.363H50.12l3.198 7.658H49.21v13.022h25.46v-12.371h-1.235zm66.8 52.989c1.066 0 1.974.396 2.737 1.163.77.743 1.126 1.653 1.126 2.701 0 1.076-.356 2-1.126 2.751-.742.755-1.671 1.128-2.737 1.128-1.081 0-1.987-.373-2.76-1.128-.739-.751-1.117-1.675-1.117-2.751 0-1.048.378-1.958 1.127-2.7.763-.768 1.669-1.164 2.75-1.164m4.521 3.864c0-1.231-.453-2.285-1.338-3.15-.877-.872-1.937-1.305-3.183-1.305-1.24 0-2.305.433-3.19 1.305-.884.865-1.3 1.919-1.3 3.15 0 1.245.416 2.309 1.3 3.183.863.88 1.944 1.322 3.19 1.322s2.306-.441 3.183-1.322c.885-.883 1.338-1.938 1.338-3.183m-3.335-.95c0 .373-.159.632-.513.758-.19.077-.463.108-.832.108h-.8v-1.768h.762c.468 0 .83.063 1.043.176.227.135.34.356.34.725m-3.007-1.512v4.918h.861v-1.928h.703c.467 0 .785.052.968.153.316.187.475.552.475 1.127v.387l.022.164c0 .02 0 .03.017.036 0 .03 0 .037.007.06h.808l-.03-.065a.742.742 0 0 1-.036-.261 4.506 4.506 0 0 1-.017-.362v-.347c0-.248-.081-.52-.271-.752-.181-.266-.461-.442-.855-.494.318-.052.56-.135.727-.234.318-.212.482-.54.482-.98 0-.625-.257-1.03-.77-1.244-.279-.119-.742-.178-1.346-.178h-1.745"/><path fill="#550520" d="M173.838 18.187H24.392v41.475h27.857v-16.49H85.75v105.752H69.043v27.699h61.331v-27.558h-16.61V43.172h33.231V59.63h28.288V18.187h-1.445"/><path fill="#FFF" d="M158.463 29.584H35.776l-6.455-6.236h137.26l-8.118 6.236m-50.126 8.484v116.156l-6.274 6.16V31.847l6.274 6.222m55.289 10.871V33.073l6.266-6.421v28.247l-6.266-5.959m-44.843 116.474v-5.222l6.276-6.428v17.62l-6.276-5.97"/></g></svg>