<?xml version="1.0" encoding="UTF-8"?>
<svg width="200px" height="200px" viewBox="0 0 200 200" version="1.1" xmlns="http://www.w3.org/2000/svg" xmlns:xlink="http://www.w3.org/1999/xlink">
    <!-- Generator: Sketch 51.3 (57544) - http://www.bohemiancoding.com/sketch -->
    <title>texas-st</title>
    <desc>Created with Sketch.</desc>
    <defs></defs>
    <g id="texas-st" stroke="none" stroke-width="1" fill="none" fill-rule="evenodd">
        <g id="texas-st_BGL" transform="translate(14.468085, 0.000000)">
            <g id="texas-st">
                <g id="g10" transform="translate(84.999998, 100.317496) scale(-1, 1) rotate(-180.000000) translate(-84.999998, -100.317496) translate(0.000000, 0.277144)" fill-rule="nonzero">
                    <g id="g12" transform="translate(0.000000, 0.608353)">
                        <path d="M164.17952,54.5105011 C164.651067,56.2362647 165.040988,58.1012062 165.019401,59.1124925 C164.82444,70.470993 155.408329,71.3226879 155.408329,71.3226879 C157.93202,67.16155 155.390115,60.4176135 156.780472,61.3158812 C158.173528,62.2128647 158.508131,65.5014885 158.508131,65.5014885 C158.508131,65.5014885 164.489163,64.7051537 161.841345,51.6269055 C159.938964,42.9005478 156.683329,39.3644593 151.518568,43.7291252 C147.08575,36.9622065 140.234481,36.4856629 140.234481,36.4856629 C140.879401,37.2244069 146.942734,47.6659835 145.638727,51.3776157 C145.559798,51.6052075 140.551544,65.489389 130.933052,66.9899267 C121.167497,68.6148389 105.891108,64.0764542 101.359799,57.5807936 C96.3387278,48.5937901 114.095632,33.7142748 116.087061,32.5218343 C118.34968,31.72577 123.78833,29.8972622 130.242933,34.7978875 C130.242933,34.7978875 127.166068,26.3836152 121.634322,23.8874056 C121.634322,23.8874056 126.498211,3.71560685 99.0809896,5.60641007 C101.151347,6.92847037 109.651346,13.2971879 105.356148,19.7728405 C101.976386,12.1488193 87.7780137,13.89209 87.7780137,13.89209 C110.937815,31.5932165 83.9725773,40.925224 83.9725773,40.925224 C78.3902361,42.9491484 74.1577759,43.7393996 74.507895,43.7074273 C83.0328551,61.214489 95.326823,68.3843405 95.326823,68.3843405 C73.6558712,64.4828343 61.1467048,52.4562265 57.0949033,46.4093955 C24.43642,49.0447829 11.8503489,35.8299931 11.8503489,35.8299931 C23.5850034,72.8455995 61.6629786,85.0086137 79.8588472,83.2721024 C29.2092374,88.1206798 15.2987179,70.130991 15.2987179,70.130991 C31.1795508,121.261074 60.4151652,125.668934 60.509812,125.595931 C60.8998001,125.704759 61.3106334,125.806151 61.7298993,125.906867 C43.473991,147.948866 42.9624394,176.422514 42.9624394,176.422514 C52.3094035,155.941279 81.1163075,146.31172 109.30595,133.498443 C147.180869,116.273252 151.434917,106.107665 155.294996,87.3913316 C155.294996,87.3913316 165.550988,79.4408273 166.902218,63.0057521 C166.902218,63.0057521 167.11202,56.3363051 164.17952,54.5105011 Z M169.894758,64.9824278 C169.277496,73.0957004 164.901345,82.3690355 158.545909,89.269116 C153.976147,110.82646 146.836147,120.867673 110.433212,137.106655 C66.014911,156.374562 52.5698003,161.075783 34.5663285,199.245233 C32.6684674,176.913928 38.8524197,165.729011 39.0703165,165.342369 C39.0703165,165.342369 33.9760507,168.357098 29.8598921,174.285165 C32.2131103,159.286548 43.4457926,153.053628 43.4457926,153.053628 C48.7758996,136.420568 56.3311851,128.647162 56.3311851,128.647162 C8.01489266,112.122929 2.72344715,53.4397989 2.72344715,53.4397989 C2.72344715,53.4397989 18.124698,74.3854098 44.242364,78.5675021 C3.81994038,64.8889441 0,21.4687273 0,21.4687273 C0,21.4687273 19.0947098,45.5520227 60.7250778,41.4208293 C60.4534152,41.6687671 70.1567046,55.9495275 81.6829741,60.1810316 C81.6829741,60.1810316 70.8677363,50.0877711 65.362165,40.299431 C65.362165,40.299431 75.0442045,38.590566 78.9373393,37.4319906 C82.8399186,36.2715225 92.965712,33.1132891 92.4307517,27.2766105 C91.5827755,18.0749935 73.2133315,14.8816784 73.1553156,15.114813 C85.6213074,6.54983115 98.6580134,10.3670871 98.8003547,10.556961 C96.8689658,6.19918296 83.8990455,3.21814944 83.8990455,3.21814944 C83.8990455,3.21814944 122.010076,-11.3200391 124.861624,22.0597089 C135.00833,29.4415378 133.817655,40.5149233 133.817655,40.5149233 C133.817655,40.5149233 129.013132,33.7831539 119.675949,35.0600879 C116.675315,35.4743766 103.018648,44.9202138 107.263926,53.5073937 C108.672497,56.3598281 119.144362,62.9943961 133.518806,61.0017005 C140.010512,59.8444093 142.884322,49.9660329 142.824282,49.5881777 C141.871068,43.6237449 135.415116,33.5425839 135.415116,33.5425839 C135.415116,33.5425839 142.969322,32.6491154 152.120314,40.0750161 C155.616107,38.6764115 156.288687,37.6745884 158.645075,39.2565103 C163.095432,42.2359554 164.217297,49.2557463 164.599123,50.0499856 C166.776067,51.2295155 170.661107,54.9281695 169.894758,64.9824278 Z" id="path14" fill="#B09247"></path>
                        <polyline id="path16" fill="#B09247" points="66.2599944 10.1352368 67.844165 10.1352368 67.844165 5.34210751 68.4169031 5.34210751 68.4169031 10.1352368 70.0858713 10.1352368 70.0858713 10.7103337 66.2599944 10.7103337 66.2599944 10.1352368"></polyline>
                        <polyline id="path18" fill="#B09247" points="73.147895 6.3430856 71.7723792 10.7103337 70.8515458 10.7103337 70.8515458 5.34210751 71.4269823 5.34210751 71.4269823 9.90473845 72.8605141 5.34210751 73.4346013 5.34210751 74.8701569 9.90473845 74.8701569 5.34210751 75.4435695 5.34210751 75.4435695 10.7103337 74.521387 10.7103337 73.147895 6.3430856"></polyline>
                        <path d="M67.2597563,127.101268 C78.2930933,128.896587 92.4820215,128.349745 107.436624,121.780879 C91.2211882,135.779093 76.2908711,135.752055 58.9632168,147.127589 C58.9632168,147.034984 57.9763398,140.12544 67.2597563,127.101268" id="path20" fill="#B09247"></path>
                        <path d="M137.407219,87.1324433 C137.407219,87.1324433 140.104957,92.0601067 140.298568,96.3888798 C135.74837,100.235026 130.068886,101.395629 130.068886,101.395629 C130.068886,94.9883148 131.59956,89.4272879 135.643132,86.5362569 C138.300393,84.63887 142.500473,85.1127097 144.051385,88.4836641 C144.940512,90.4148484 143.534639,93.0199533 143.534639,93.1483835 C141.981028,88.7425523 137.407219,87.1324433 137.407219,87.1324433" id="path22" fill="#B09247"></path>
                        <path d="M144.051385,88.4836641 C142.500473,85.1127097 138.300393,84.63887 135.643132,86.5362569 C131.59956,89.4272879 130.068886,94.9883148 130.068886,101.395629 C130.068886,101.395629 135.74837,100.235026 140.298568,96.3888798 C140.104957,92.0601067 137.407219,87.1324433 137.407219,87.1324433 C137.407219,87.1324433 141.981028,88.7425523 143.534639,93.1483835 C143.534639,93.0199533 144.940512,90.4148484 144.051385,88.4836641 Z M67.2597563,127.101268 C57.9763398,140.12544 58.9632168,147.034984 58.9632168,147.127589 C76.2908711,135.752055 91.2211882,135.779093 107.436624,121.780879 C92.4820215,128.349745 78.2930933,128.896587 67.2597563,127.101268 Z M166.902218,63.0057521 C165.550988,79.4408273 155.294996,87.3913316 155.294996,87.3913316 C151.434917,106.107665 147.180869,116.273252 109.30595,133.498443 C81.1163075,146.31172 52.3094035,155.941279 42.9624394,176.422514 C42.9624394,176.422514 43.473991,147.948866 61.7298993,125.906867 C61.3106334,125.806151 60.8998001,125.704759 60.509812,125.595931 C60.4151652,125.668934 31.1795508,121.261074 15.2987179,70.130991 C15.2987179,70.130991 29.2092374,88.1206798 79.8588472,83.2721024 C61.6629786,85.0086137 23.5850034,72.8455995 11.8503489,35.8299931 C11.8503489,35.8299931 24.43642,49.0447829 57.0949033,46.4093955 C61.1467048,52.4562265 73.6558712,64.4828343 95.326823,68.3843405 C95.326823,68.3843405 83.0328551,61.214489 74.507895,43.7074273 C74.1577759,43.7393996 78.3902361,42.9491484 83.9725773,40.925224 C83.9725773,40.925224 110.937815,31.5932165 87.7780137,13.89209 C87.7780137,13.89209 101.976386,12.1488193 105.356148,19.7728405 C109.651346,13.2971879 101.151347,6.92847037 99.0809896,5.60641007 C126.498211,3.71560685 121.634322,23.8874056 121.634322,23.8874056 C127.166068,26.3836152 130.242933,34.7978875 130.242933,34.7978875 C123.78833,29.8972622 118.34968,31.72577 116.087061,32.5218343 C114.095632,33.7142748 96.3387278,48.5937901 101.359799,57.5807936 C105.891108,64.0764542 121.167497,68.6148389 130.933052,66.9899267 C140.551544,65.489389 145.559798,51.6052075 145.638727,51.3776157 C146.942734,47.6659835 140.879401,37.2244069 140.234481,36.4856629 C140.234481,36.4856629 147.08575,36.9622065 151.518568,43.7291252 C156.683329,39.3644593 159.938964,42.9005478 161.841345,51.6269055 C164.489163,64.7051537 158.508131,65.5014885 158.508131,65.5014885 C158.508131,65.5014885 158.173528,62.2128647 156.780472,61.3158812 C155.390115,60.4176135 157.93202,67.16155 155.408329,71.3226879 C155.408329,71.3226879 164.82444,70.470993 165.019401,59.1124925 C165.040988,58.1012062 164.651067,56.2362647 164.17952,54.5105011 C167.11202,56.3363051 166.902218,63.0057521 166.902218,63.0057521 Z" id="path24" fill="#511D20"></path>
                    </g>
                </g>
            </g>
        </g>
    </g>
</svg>