<svg width="201" height="200" fill="none" xmlns="http://www.w3.org/2000/svg"><path d="m200 94.7-5.5-8.7v-2.7l-3.4-4.3-.3-30.1-13.5-1-6.5-3.3-6.8-3.2v-3.5h-57.2V3H49.4v76.6H0V94l8.9 9.7 2.9 2.1 1.2 1.3 3.5 5.4 5.8 3.9 1.9 1.4 1.3 3 .7.9.8 5.3 3.3 6.3 5.5 6.8h1.6l2.8 3.1H43l3.1 3h2l3 2.4h12l2.2-3.9 4-1.1 1.4-8.1 2.8-.4 3.8.5 7 5.9.7 2.1 2.2 4.9 4.6 11.6h3.3l1.4 1.8 1.6 4.1 4.4 2.6.5 1.5 1.4 7.1 3 2.6 2.4 9.4 13.4 4.5 5.4 2.9h9.9l17.1 1.2v-12.9l-5.1-10.2-1-3v-3.2l1.3-4.6 14.9-15.7 9.4-4.5 5-8.2 11.3-6.7 3.7-4.9 4.8-8.9-1.7-6.4 2.2-5.9v-8h-.4Z" fill="#5D0025"/><path d="m87.6 139.2-8.7-7.4-6.1-.6-4.5.6-1 .1-.3.6-.8 4.8-.5 3.1-3.1.8-.4.8-1.4 2.5h-8.2l-1.4-1.1-1.6-1.3h-1.9l-1.4-1.3-1.7-1.6h-2.7l-1.5-1.7-1.3-1.5h-1.4l-1.5-1.9-2.2-2.8-.3-.4-.2-.4-2.2-4.3-.4-.7-.1-.8-.8-4.8-.6-.9-.3-.4-.2-.5-1.3-3.2-2.9-2.1-4.4-2.9-.9-.6-.6-.9-2.7-4.2-1.8-1.8-2.5-1.8-.4-.3-.3-.4-5.9-6.5-1.2-1v-8.7h49.4V7.1h49.3V38h-5V12H58.4v76.6H9v1.8l5.9 6.5 2.8 2 2.4 2.4 3 4.6 4.4 3 4.1 3 1.9 4.4 1.3 1.8.9 5.9 2.2 4.3 2.2 2.8h1.3l2.8 3.1h2.4l3.1 3h1.7l3 2.4h3.5l1.5-2.6 2-.5.9-5.4 1.7-3.9 3.9-.4v-1.9l2.2.4 1.3.7 9.6.9 6.6 5.6v6.7Zm107.6-44.6-4.8-7.5v-2.5l-1.1-1.3-2.3-2.9-.2-23.2v-4.6l-4.6-.3-6-.4-7.3-3.6-3.7-1.8-1.2-.6v5.5l2.8 1.3 8.1 4.1 7 .5.2 24.8 3.3 4.3v2.2l5.5 8.7v4.1l-2.6 7 1.5 5.7-2.8 5.2-2.2 3-12.4 7.4v.7l-4.1 6.7-8.5 4.1-17.4 18.4-2.2 7.9v3.3l-1.3.4v2.4l2 2 .9 2.8 3 5.9 1.5 3v1.1l-7.8-.6h-8l-4.1-2.2-9.4-3-1.8-7.4-2.8-2.4-.9-4.6-1.7-5.2-4.6-2.8-.9-2.4-4.8-6.5h-1.7l-1.2-3.2h-5.3l2 5 1.2 3.1H97l2.9 3.9.7 1.8.6 1.6 1.5.9 3 1.8 1 3.1.9 4.3.3 1.7 1.3 1.1 1.6 1.4 1.5 5.9.7 2.6 2.6.9 9 3 3.7 2 1.1.6h9l7.6.5 5.3.4v-7.6l-.5-1-1.5-3-2.8-5.6-.8-2.4-.4-1.1-.1-.1v-4.7l1.7-6.1 16.1-16.9 7.7-3.7 1.3-.6.8-1.2 4.1-6.8 10.6-6.3.8-.5.6-.8 2.2-3 .2-.3.2-.3 2.8-5.2.9-1.7-.5-1.9-1.1-4.2 2-5.5.3-.8V96l-.7-1.4ZM81.7 110.8l-1.9-4.5H65.9l-1.9 4.5h2.5v8.6h-17v-8.6h4.8L65.9 84h-2.6v-8.6H82V84h-2.2l11.6 26.8H96v8.6H79.1v-8.6h2.6Zm-5.6-13.1-3.2-7.5-3.2 7.5h6.4Zm15.5 46.4v-18.8h10.6V59.1h-20v10.6H63.4V42H160v27.6h-19V59.1h-19.9v66.2h10.6v18.8H91.6Zm32.2-7.7 4 3.8V129l-4 4.1v3.3Zm-6.6-81.2-4-4v81.9l4-3.9v-74Zm39-7.2-4 4.1v10.1l4 3.8V48Zm-7.3 1.8 5.1-4H67l4.1 4h77.8Zm25.3 69.6v-8.6h-3.4V84.1h3.4v-8.6H160l-.3.6-9 18.6-9-18.6-.3-.6h-13.8v8.6h3.2v26.7h-3.3v8.6h15.7v-8.6h-3.5V91.9l10 20.6 1 2.1 1-2.1 10.1-20.7v19h-3.3v8.6h15.7Z" fill="#fff"/></svg>