<svg width="200" height="200" xmlns="http://www.w3.org/2000/svg"><g fill="none"><path d="M178.648 145.239c.471-1.726.861-3.59.84-4.602-.195-11.358-9.612-12.21-9.612-12.21 2.524 4.16-.018 10.905 1.373 10.007 1.393-.897 1.727-4.186 1.727-4.186s5.981.796 3.333 13.875c-1.902 8.726-5.158 12.262-10.322 7.897-4.433 6.767-11.284 7.244-11.284 7.244.644-.739 6.708-11.18 5.404-14.892-.08-.228-5.087-14.112-14.706-15.612-9.765-1.625-25.042 2.913-29.573 9.409-5.021 8.987 12.736 23.866 14.727 25.059 2.263.796 7.701 2.624 14.156-2.276 0 0-3.077 8.414-8.609 10.91 0 0 4.864 20.172-22.553 18.281 2.07-1.322 10.57-7.69 6.275-14.166-3.38 7.624-17.578 5.88-17.578 5.88 23.16-17.7-3.805-27.033-3.805-27.033-5.583-2.024-9.815-2.814-9.465-2.782 8.525-17.507 20.819-24.677 20.819-24.677-21.671 3.902-34.18 15.928-38.232 21.975-32.658-2.635-45.245 10.58-45.245 10.58 11.735-37.016 49.813-49.18 68.009-47.443-50.65-4.848-64.56 13.142-64.56 13.142 15.88-51.13 45.116-55.538 45.21-55.465.39-.11.802-.21 1.221-.311C57.942 51.8 57.431 23.327 57.431 23.327c9.346 20.481 38.153 30.11 66.343 42.924 37.875 17.225 42.129 27.39 45.99 46.107 0 0 10.255 7.95 11.606 24.386 0 0 .21 6.67-2.722 8.495zm5.715-10.472c-.617-8.113-4.994-17.387-11.349-24.287-4.57-21.557-11.71-31.598-48.113-47.837C80.483 43.375 67.038 38.673 49.034.504c-1.897 22.332 4.287 33.516 4.504 33.903 0 0-5.094-3.015-9.21-8.943 2.353 14.999 13.586 21.232 13.586 21.232 5.33 16.633 12.885 24.406 12.885 24.406-48.316 16.525-53.607 75.208-53.607 75.208s15.4-20.946 41.518-25.128c-40.422 13.679-44.242 57.099-44.242 57.099s19.095-24.084 60.725-19.952c-.271-.248 9.432-14.529 20.958-18.76 0 0-10.815 10.093-16.32 19.881 0 0 9.681 1.709 13.574 2.868 3.903 1.16 14.029 4.318 13.494 10.155-.848 9.202-19.218 12.395-19.276 12.162 12.466 8.565 25.503 4.747 25.645 4.558-1.93 4.357-14.9 7.338-14.9 7.338s38.11 14.539 40.962-18.841c10.146-7.382 8.956-18.455 8.956-18.455s-4.805 6.731-14.142 5.454c-3-.414-16.657-9.86-12.412-18.447 1.409-2.852 11.88-9.487 26.255-7.494 6.492 1.157 9.365 11.035 9.305 11.413-.953 5.965-7.409 16.046-7.409 16.046s7.554.893 16.705-6.533c3.496 1.4 4.169 2.4 6.525.819 4.45-2.98 5.572-10 5.954-10.793 2.177-1.18 6.062-4.879 5.296-14.933z" fill="#B09247"/><path fill="#B09247" d="M80.728 189.614h1.584v4.793h.573v-4.793h1.669v-.575h-3.826v.575m6.888 3.792l-1.376-4.367h-.92v5.368h.575v-4.562l1.434 4.562h.574l1.435-4.562v4.562h.574v-5.368h-.923l-1.373 4.367M81.728 72.648c11.033-1.795 25.222-1.248 40.177 5.32-16.216-13.998-31.146-13.97-48.474-25.346 0 .093-.987 7.002 8.297 20.026m70.147 39.969s2.698-4.928 2.892-9.256c-4.55-3.847-10.23-5.007-10.23-5.007 0 6.407 1.53 11.968 5.574 14.86 2.657 1.897 6.858 1.423 8.408-1.948.89-1.931-.516-4.536-.516-4.665-1.554 4.406-6.128 6.016-6.128 6.016"/><path d="M158.52 111.266c-1.551 3.37-5.752 3.845-8.409 1.947-4.043-2.89-5.574-8.452-5.574-14.86 0 0 5.68 1.161 10.23 5.008-.194 4.328-2.892 9.256-2.892 9.256s4.574-1.61 6.128-6.016c0 .129 1.406 2.734.516 4.665zM81.727 72.648c-9.284-13.024-8.297-19.933-8.297-20.026 17.33 11.375 32.26 11.348 48.475 25.347-14.955-6.57-29.144-7.116-40.177-5.32zm99.642 64.096c-1.35-16.435-11.607-24.386-11.607-24.386-3.86-18.716-8.114-28.882-45.989-46.107-28.19-12.813-56.997-22.443-66.343-42.924 0 0 .511 28.474 18.767 50.516-.42.1-.83.202-1.22.31-.095-.072-29.33 4.335-45.211 55.466 0 0 13.91-17.99 64.56-13.142-18.196-1.736-56.274 10.427-68.009 47.443 0 0 12.587-13.215 45.245-10.58 4.052-6.047 16.561-18.073 38.232-21.975 0 0-12.294 7.17-20.819 24.677-.35-.032 3.882.758 9.465 2.782 0 0 26.965 9.332 3.805 27.033 0 0 14.198 1.744 17.578-5.88 4.295 6.475-4.205 12.844-6.275 14.166 27.417 1.89 22.553-18.28 22.553-18.28 5.532-2.497 8.609-10.911 8.609-10.911-6.455 4.9-11.893 3.072-14.156 2.276-1.991-1.193-19.748-16.072-14.727-25.06 4.531-6.495 19.808-11.033 29.573-9.408 9.619 1.5 14.627 15.384 14.706 15.612 1.304 3.712-4.76 14.153-5.404 14.892 0 0 6.85-.477 11.284-7.244 5.164 4.365 8.42.829 10.322-7.897 2.648-13.079-3.333-13.875-3.333-13.875s-.334 3.289-1.727 4.186c-1.39.898 1.151-5.846-1.373-10.007 0 0 9.417.852 9.611 12.21.022 1.011-.368 2.876-.84 4.602 2.933-1.826 2.723-8.495 2.723-8.495z" fill="#511D20"/></g></svg>