<svg width="200" height="200" xmlns="http://www.w3.org/2000/svg"><g fill="none" fill-rule="evenodd"><path fill="#FDDC04" fill-rule="nonzero" d="M153.966 52.926l-.41 4.718-22.36 13.539-15.794 6.154-3.487 1.23 4.718-6.974 19.692-9.026 17.64-9.64M87.3 57.44l-9.642 2.871-6.769 3.487-4.103 3.488-1.025 2.05-6.154-1.846-3.282-.615 3.077-2.256 10.872-4.308 10.256-3.077 6.77.206"/><path fill="#173A78" fill-rule="nonzero" d="M73.245 74.968l-7.843 9.966L0 107.291l73.245-32.323"/><path d="M119.719 68.16c6.935-2.798 10.599-4.64 17.095-8.345 6.848-3.906 10.566-6.415 16.806-11.233-16.41.143-26.028 1.98-41.325 7.923-13.101 5.09-20.237 9.26-31.164 18.1l-1.49-2.06c4.113-4.1 6.655-6.222 11.356-9.632 4.333-3.144 6.913-4.763 11.652-7.254-8.502 1.546-11.976 2.298-19.578 4.912-5.626 1.936-14.812 7.584-15.629 11.761-3.092-1.43-4.94-2.073-8.255-2.855-3.495-.825-5.542-1.102-9.132-1.177 9.871-5.04 15.79-7.358 26.452-10.386 12.471-3.542 19.857-4.735 32.806-5.36 10.172-4.694 16.39-6.637 27.437-8.504 13.364-2.258 21.355-2.301 34.75-.24-8.9 10.373-14.954 15.617-26.502 22.927-13.507 8.55-22.286 12.178-37.9 15.61-10.038 7.766-15.765 11.882-27.894 18.2-5.055 2.633-8.971 4.509-14.059 6.635 0 0 .09-1.017 3.25-2.814 6.773-3.46 12.67-6.576 19.723-12.008 7.427-5.72 10.135-8.681 15.847-14.983-6.187 3.55-9.726 5.471-16.085 8.702-6.323 3.213-9.932 4.953-16.408 7.85 3.923-5.319 9.243-14.924 9.243-14.924 7.987-3.1 12.538-4.734 20.478-7.948l21.68-8.774c-.945 2.356-2.117 3.991-3.154 5.877zm-2.839 5.31c-.835 1.191-1.722 2.318-2.912 3.742 8.74-3.127 13.56-5.32 21.696-9.79 6.812-3.743 10.536-6.12 16.798-10.724l.725-2.7c-6.369 4.49-10.111 6.844-16.964 10.552-7.8 4.221-11.043 5.793-19.343 8.92zm-58.73-6.695c1.592.095 2.498.226 4.04.636 1.232.329 1.919.572 3.082 1.095 2.292-2.464 3.152-3.483 6.572-5.595 3.922-2.422 7.672-3.925 12.584-5.365-5.99.959-10.4 2.332-16.713 4.81-3.825 1.5-5.934 2.494-9.565 4.42z" fill="#173A78"/><path fill="#FDDC04" fill-rule="nonzero" d="M34.59 104.052l1.548 49.977-14.785 4.216-1.64-52.906-10.331 2.946-.36-11.579 35.45-10.108.358 11.579-10.331 2.945-5.147 1.468 5.237 1.462"/><path d="M20.107 104.8l1.64 52.906 13.971-3.984-1.53-49.356-6.347-1.772 16.57-4.724-.333-10.733-34.636 9.876.333 10.733 10.332-2.946zm.852 53.984l-1.64-52.906-10.331 2.946L8.603 96.4l36.262-10.34.385 12.424-14.387 4.102 4.127 1.152 1.568 50.598-15.599 4.448z" fill="#173A78" fill-rule="nonzero"/><path fill="#FDDC04" fill-rule="nonzero" d="M86.109 129.42l-5.3 3.665 5.145-.74 10.77-1.289-.516 9.743-23.198 3.073 2.747-53.401 12.41-2.154-2.058 41.103"/><path d="M76.15 90.819L73.445 143.4l22.372-2.963.47-8.916-10.284 1.231-5.135.74-.292-.744 5.133-3.55 2.023-40.39-11.582 2.01zm-3.087 53.46l-.463-.428 2.747-53.401.34-.384 12.41-2.153.48.424-2.059 41.103-.176.317-3.865 2.673 3.419-.492 10.778-1.29.459.43-.515 9.743-.355.385-23.2 3.073z" fill="#173A78" fill-rule="nonzero"/><path fill="#FDDC04" fill-rule="nonzero" d="M115.15 98.958l-4.66-2.571 5.045-.303 11.23-.662 1.283-9.575-23.477 1.41-7.147 53.324 24.36-1.462 1.284-9.575-12.144.729 1.787-13.331 10.45-.627 1.225-9.133-10.45.627 1.214-8.851"/><path d="M104.933 87.646l-7.036 52.496 23.526-1.413 1.172-8.746-11.646.7-.431-.465 1.786-13.33.383-.355 10.113-.608 1.113-8.304-9.954.597-.43-.465 1.177-8.572-4.414-2.435.174-.769 15.937-.944 1.173-8.747-22.643 1.36zm-7.484 53.345l-.432-.464 7.148-53.325.382-.355 23.477-1.41.431.465-1.284 9.575-.382.354-14.862.88 3.422 1.888.208.415-1.148 8.355 9.952-.597.432.464-1.225 9.133-.382.355-10.113.607-1.676 12.502 11.646-.699.431.464-1.283 9.575-.382.355-24.36 1.463z" fill="#173A78" fill-rule="nonzero"/><path d="M157.155 130.878c-2.664 8.553 2.146 11.483 12.221 12.73 10.076 1.247 16.285-.317 18.948-8.871l9.978-32.04c2.664-8.553-2.146-11.482-12.221-12.73-10.076-1.247-16.285.318-18.948 8.872l-9.978 32.039zm22.136-29.502l-4.014-3.405 8.003.99c2.247.28 2.96.888 2.351 2.845l-9.571 30.735c-.61 1.957-1.638 2.357-3.885 2.078-2.247-.278-2.959-.893-2.35-2.85l9.466-30.393z" fill="#FDDC04"/><path d="M176.59 98.547l2.966 2.516.127.434-9.466 30.394c-.235.758-.252 1.257-.051 1.568.241.375.877.607 2.06.754 2.178.269 2.92-.116 3.442-1.794l9.571-30.734c.236-.757.252-1.254.052-1.564-.24-.373-.876-.606-2.062-.752l-6.64-.822zm-3.296 36.562c-.362 0-.752-.03-1.17-.082-1.484-.184-2.252-.51-2.647-1.123-.343-.531-.357-1.248-.043-2.256l9.384-30.135-3.806-3.23.315-.72 8.003.992c1.488.184 2.256.509 2.65 1.12.343.531.356 1.247.043 2.253l-9.571 30.735c-.589 1.89-1.624 2.446-3.158 2.446zm7.597-45.083c-8.643 0-11.703 3.593-13.366 8.934L157.547 131c-1.012 3.249-.937 5.708.231 7.519 1.571 2.435 5.164 3.879 11.649 4.682 12.652 1.564 16.548-2.3 18.505-8.586l9.978-32.04c1.012-3.248.936-5.707-.231-7.518-1.572-2.435-5.164-3.88-11.649-4.682-1.902-.236-3.61-.349-5.139-.349zm-6.027 54.378c-1.728 0-3.578-.146-5.538-.39-6.748-.835-10.522-2.393-12.237-5.05-1.308-2.028-1.414-4.713-.326-8.208l9.978-32.04c2.876-9.235 9.832-10.34 19.39-9.156 6.749.836 10.523 2.394 12.237 5.053 1.307 2.027 1.414 4.711.326 8.206l-9.978 32.04c-2.286 7.342-7.151 9.545-13.852 9.545z" fill="#173A78" fill-rule="nonzero"/><path d="M123.463 139.46l15.603.059c11.196.042 15.245-2.329 18.92-19.52l2.793-13.075c3.674-17.192.66-19.661-10.536-19.703l-15.603-.058-11.177 52.298zm21.265-43.295l3.167.011c2.6.01 2.931 1.168 2.098 5.069l-5.095 23.837c-.834 3.9-1.659 5.054-4.258 5.045l-3.18-.012 6.63-31.132-4.35-2.837 4.988.019z" fill="#FDDC04"/><path d="M137.967 129.706l2.674.01h.033c2.287 0 3.005-.891 3.823-4.72l5.095-23.837c.5-2.34.525-3.515.09-4.056-.286-.353-.837-.513-1.789-.516l-6.766-.026 3.186 2.078.178.43-6.524 30.637zm2.703.83h-.032l-3.179-.011-.4-.496 6.57-30.856-4.114-2.684.226-.754 8.156.031c1.221.005 1.968.258 2.423.822.715.888.559 2.473.074 4.742l-5.095 23.838c-.808 3.782-1.632 5.369-4.63 5.369zm-16.7 8.516l15.098.057h.343c10.205 0 14.455-1.8 18.173-19.196l2.795-13.075c1.979-9.263 1.97-14.053-.03-16.535-1.766-2.193-5.318-2.654-10.108-2.672l-15.27-.057-11.001 51.478zm15.355.877h-.26l-15.603-.058-.4-.496 11.177-52.298.402-.325 15.604.059c5.167.019 8.766.524 10.743 2.977 2.174 2.698 2.23 7.688.193 17.222l-2.795 13.074c-3.638 17.026-7.768 19.845-19.061 19.845z" fill="#173A78" fill-rule="nonzero"/><path d="M39.523 141.757c0 8.677 5.588 9.572 15.807 7.041 10.22-2.53 15.808-6.192 15.808-14.868v-32.497c0-8.675-5.588-9.571-15.808-7.04-10.219 2.53-15.807 6.192-15.807 14.868v32.496zm12.646-34.62l-4.955-1.612 8.116-2.01c2.28-.564 3.162-.274 3.162 1.71V136.4c0 1.985-.883 2.718-3.162 3.282-2.279.565-3.161.268-3.161-1.717v-30.827z" fill="#FDDC04"/><path d="M48.704 105.579l3.592 1.168.283.39v30.828c0 .723.126 1.173.383 1.375.34.266 1.04.248 2.27-.056 2.21-.548 2.85-1.194 2.85-2.884v-31.174c0-.721-.125-1.17-.381-1.37-.339-.266-1.04-.248-2.272.057l-6.725 1.666zm4.984 34.767c-.534 0-.924-.12-1.231-.36-.476-.372-.698-1.015-.698-2.021v-30.53l-4.673-1.52.029-.788 8.117-2.01c1.542-.382 2.404-.355 2.974.092.475.372.696 1.013.696 2.017V136.4c0 2.359-1.273 3.135-3.473 3.68-.713.177-1.28.266-1.741.266zm9.771-46.779c-2.1 0-4.738.408-8.03 1.224-11.15 2.76-15.496 6.818-15.496 14.47v32.496c0 3.169.759 5.302 2.319 6.523 2.239 1.752 6.24 1.79 12.98.12 11.15-2.76 15.495-6.818 15.495-14.47v-32.497c0-3.168-.758-5.301-2.318-6.522-1.145-.896-2.752-1.344-4.95-1.344zm-16.25 56.87c-2.404 0-4.175-.503-5.463-1.51-1.772-1.387-2.633-3.732-2.633-7.17v-32.496c0-9.358 6.444-12.871 16.119-15.267 7.007-1.735 11.227-1.651 13.682.27 1.772 1.387 2.634 3.732 2.634 7.169v32.497c0 9.358-6.444 12.87-16.12 15.267-3.332.825-6.036 1.24-8.218 1.24z" fill="#173A78" fill-rule="nonzero"/></g></svg>