<svg width="200" height="200" xmlns="http://www.w3.org/2000/svg"><g fill="none"><path d="M149.463 107.378c-2.384 1.051-4.51-.927-4.51-.927-1.424 1.165-3.41 2.14-6.196 2.14 0 0-6.2-4.852-11.621-3.89-.028-1.445.058-2.306-2.293-2.372-1.53-.043-4.302.32-6.564 1.02 4.919-5.997 15.747-8.266 16.229-7.84 6.885 3.29 13.53 9.562 16.848 6.444 0 0 1.234 4.045-1.893 5.425zm23.75 7.678s-19.09-21.873-50.845-25.377c-3.17 1.427-9.491 4.043-10.286 7.589-1.539 6.866 6.32 14.931 6.32 14.931-13.58-5.036-14.28-13.565-13.99-15.291.502-2.995 3.458-5.915 9.854-7.886a56.094 56.094 0 0 1-4.785-.901c-3.984 1.535-6.657 4.924-6.657 4.924.123-1.665.794-4.015 2.961-5.969-1.344-.44-2.178-.759-2.866-.792-1.565-.071-3.988 1.148-10.674 3.185 3.286 2.19 8.542 3.94 8.542 3.94-2.68 1.155-11.827 0-17.082-1.97-3.252.37-4.44.452-8.436.236 5.274 3.083 12.02 5.458 15.654 5.627 3.886.18 10.11-1.833 11.199-2.317-3.297 7.502-11.745 11.454-11.745 11.454s-7.853-2.998-11.044-5.49c0 0-1.93 1.07-4.235 3.88 4.172-.527 11.002 1.2 12.484 2.065 0 0-11.03-.782-15.816 3.111-.46.912-.907 1.903-1.327 2.982 6.615-2.907 19.632-6.301 35.328-2.947a40.47 40.47 0 0 1 6.562 1.066s-20.793-1.74-29.6 7.785c0 0 12.94-6.875 23.996-4.256 0 0-7.522 6.459-10.84 16.516.03.009.058.02.086.029.075.024.152.046.225.07 5.188-11.62 16.078-16.175 18.416-17.441 0 0-9.052 9.807-9.592 15.288 0 0 4.088-2.896 8.734-3.552 2.185-.546 3.712-.582 3.712-.582-5.137 3.67-7.005 7.732-7.005 7.732s3.929-3.824 14.048-7.169c.289-.248.595-.49.896-.733a1.071 1.071 0 0 1-.097.05c5.34-5.265 13.176-8.366 13.176-8.366-5.397.52-21.328 6.928-21.328 6.928s9.03-6.539 20.316-9.03c0 0-11.754.367-19.435 2.339 0 0 9.445-4.119 21.9-3.84 6.176.14 14.478 3.47 14.478 3.47a29.099 29.099 0 0 0-1.652-.172c1.156.107 2.367.254 3.699.431l-1.777-4.922s4.128 3.2 5.25 3.251c1.118.05 13.279.124 13.279.124z" fill="#FBC707"/><path d="M160.24 126.578c-.22 1.187-.52 2.961-.886 4.24 0 0 3.176-.41 4.24-1.676l-3.353-2.564M145.49 144.19s-1.847 1.176-3.41 1.793c0 0 2.642.712 3.237 1.151 0 0 .72-1.76.173-2.945" fill="#FFF"/><path d="M75.335 104.552zm12.247 2.342c-1.482-.866-8.312-2.592-12.483-2.066-1.081 1.318-2.245 3.02-3.332 5.176 4.787-3.892 15.815-3.11 15.815-3.11zm19.143 7.741c-11.055-2.619-23.996 4.256-23.996 4.256 8.807-9.525 29.6-7.785 29.6-7.785a40.558 40.558 0 0 0-6.562-1.066l-.196-.04c.094.02.186.037.28.058 0 0-18.763-1.878-29.748 9.306 0 0-2.446 2.47-3.646 4.922 0 0 6.491 1.822 6.733 1.884 5.38-4.63 12.42-8.016 19.984-9.706 0 0-6.73 4.553-10.29 12.814a70.885 70.885 0 0 1 7.081 1.9.938.938 0 0 0-.08-.027c3.318-10.057 10.84-16.516 10.84-16.516zm-31.627-9.807c.08-.097.158-.183.237-.276-.08.093-.156.178-.237.276zm42.368 20.135s-1.527.036-3.712.582l-.034.006c.095-.014.188-.032.283-.044 0 0-5.645 3.987-8.002 9.884a60.665 60.665 0 0 1 6.063 3.66c2.746-7.367 9.197-12.47 12.445-13.525-10.12 3.345-14.048 7.17-14.048 7.17s1.868-4.063 7.005-7.733zM77.99 101.91zm-6.234 8.114l.06-.1c-.004.003-.005.005-.008.006-.018.03-.035.063-.052.094zm84.706 6.58a95.005 95.005 0 0 0-3.691-.432c-13.802-1.077-25.943 7.825-27.367 8.621-.3.244-.606.485-.895.733 0 0-7.267 7.262-5.365 19.169 4.669 4.291 8.477 9.004 11.786 13.67 0 0 4.717-3.773 9.656-1.68 0 0 0-4.152 2.49-6.228 0 0-6.46-4.374-11.546-.841-17.45-20.635 11.21-30.981 25.17-29.788l10.067 6.59s3.166-1.611 3.321-6.049l-13.626-3.765zM77.99 101.91zm24.132-6.925c-1.09.484-7.313 2.498-11.2 2.317-3.633-.169-10.379-2.544-15.653-5.627 0 0 8.555 7.632 15.273 8.34 2.95.31 10.387-4.01 11.58-5.03z" fill="#FFF"/><path d="M139.938 112.874c-12.456-.279-21.901 3.84-21.901 3.84 7.681-1.972 19.435-2.338 19.435-2.338-11.286 2.49-20.316 9.03-20.316 9.03s15.931-6.409 21.328-6.929c0 0-7.836 3.101-13.176 8.367.908-.38 14.27-10.522 29.107-8.5 0 0-8.302-3.33-14.477-3.47m-3.883-10.297c-.566 0-1.04-.367-1.213-.874a3.852 3.852 0 0 0-.058.708 3.84 3.84 0 0 0 .44 1.7c-.906-.73-1.98-1.452-3.908-1.3.046-1.796 1.77-3.507 3.297-3.33.136.15.396.41.753.734l.025-.02c.48.437 1.104.973 1.865 1.545-.183.488-.65.837-1.201.837zm15.301-.624s-1.456 3.404-5.14 2.595c-4.13-.906-7.67-5.475-11.708-9.04-.482-.425-11.31 1.844-16.23 7.841 0 0 5.828-2.023 8.568-2.014 2.827.008.29 3.365.29 3.365 5.42-.961 11.621 3.892 11.621 3.892 2.786 0 4.772-.976 6.196-2.141 0 0 2.126 1.978 4.51.927 3.127-1.38 1.893-5.425 1.893-5.425z" fill="#231F20"/><path d="M135.39 100.196c-.008.005-.015.013-.024.02a11.951 11.951 0 0 1-.753-.736c-1.526-.176-3.251 1.535-3.297 3.33 1.927-.151 3.002.571 3.908 1.302a3.842 3.842 0 0 1-.44-1.701c-.005-.242.02-.477.058-.708.173.507.647.874 1.213.874.552 0 1.018-.35 1.201-.837a26.12 26.12 0 0 1-1.865-1.544m-8.545 1.139c-2.74-.009-8.567 2.014-8.567 2.014 2.262-.7 5.034-1.063 6.564-1.02 2.35.066 2.265.927 2.293 2.371 0 0 2.537-3.357-.29-3.365zm7.662-5.827c4.038 3.565 7.578 8.134 11.707 9.04 3.685.809 5.141-2.595 5.141-2.595-3.319 3.118-9.963-3.154-16.848-6.445z" fill="#FFF"/><path d="M159.354 130.819c.367-1.28.667-3.054.887-4.241l3.353 2.564c-1.064 1.266-4.24 1.677-4.24 1.677zm-25.268 7.787c-.136 1.215-.552 3.208 2.264 5.655-1.999-.01-3.613-.47-4.244-1.4-2.478-3.648-2.386-6.876-.785-9.594 3.283 2.247 2.923 3.938 2.765 5.34zm11.404 5.583c.547 1.185-.173 2.945-.173 2.945-.595-.44-3.237-1.151-3.237-1.151 1.563-.617 3.41-1.794 3.41-1.794zm-31.457-59.603c-3.034-.27-8.76-2.21-10.733-2.186-4.268.05-20.244 7.44-38.403 5.333 0 0 3.3 4.23 9.372 9.368 0 0-1.497.975-3.54 3.358-15.015-3.555-27.23-9.903-27.23-9.903 2.706 2.8 10.813 8.923 23.902 14.545-1.126 1.862-2.269 4.1-3.326 6.758-15.958-4.57-32.391-13.205-32.391-13.205 6.16 5.814 22.936 17.639 43.362 21.854l1.057-1.144c10.985-11.184 29.748-9.306 29.748-9.306-15.734-3.386-28.785.016-35.412 2.93 3.531-9.073 8.894-12.039 8.894-12.039 3.191 2.492 11.044 5.49 11.044 5.49s8.448-3.952 11.745-11.454c-1.193 1.02-8.63 5.34-11.58 5.03-6.718-.708-15.273-8.34-15.273-8.34 3.996.216 5.184.135 8.436-.236 5.255 1.97 14.402 3.125 17.082 1.97 0 0-5.256-1.75-8.542-3.94 6.686-2.037 9.11-3.256 10.674-3.185.688.033 1.522.352 2.866.792-2.167 1.954-2.838 4.304-2.96 5.97 0 0 2.672-3.39 6.656-4.925 1.31.31 2.877.621 4.785.901-6.396 1.97-9.352 4.89-9.855 7.886-.29 1.726.411 10.255 13.99 15.291 0 0-7.858-8.065-6.32-14.931.796-3.546 7.118-6.162 10.287-7.589 31.755 3.504 50.846 25.377 50.846 25.377s-12.161-.074-13.279-.124c-1.122-.051-5.25-3.25-5.25-3.25l1.777 4.922 13.626 3.765c-.155 4.438-3.321 6.05-3.321 6.05l-10.067-6.591c-13.96-1.193-42.62 9.153-25.17 29.788 5.086-3.533 11.547.841 11.547.841-2.49 2.076-2.49 6.227-2.49 6.227-4.94-2.092-9.657 1.682-9.657 1.682-3.309-4.667-7.117-9.38-11.786-13.671-1.902-11.907 5.365-19.169 5.365-19.169-3.248 1.054-9.7 6.158-12.445 13.526a60.665 60.665 0 0 0-6.063-3.66c2.357-5.898 8.002-9.885 8.002-9.885-4.749.583-8.983 3.59-8.983 3.59.54-5.481 9.592-15.288 9.592-15.288-2.338 1.266-13.228 5.822-18.416 17.442a70.787 70.787 0 0 0-7.311-1.973c3.558-8.261 10.29-12.814 10.29-12.814-7.987 1.784-15.394 5.456-20.874 10.492-21.031-5.453-41.413-15.76-41.413-15.76 20.5 16.367 36.675 19.063 59.368 26.756 23.957 8.123 32.802 28.502 32.802 28.502 4.153-6.228 10.352-6.603 15.609-4.472 0 0-2.11-8.297 5.493-12.153 0 0-1.274-.832-2.438-1.358 1.17-4.428-1.154-7.644-1.154-7.644-1.507 1.252-3.462 2.167-5.454 2.737-3.121-1.784-3.835-3.646-3.53-5.522.454-2.772-.043-5.09-3.929-7.57 6.493-5.88 20.133-8.294 23.969-5.77 0 0 .053 3.222-1.6 8.864 0 0 16.32.424 17.247-13.18l8.087-4.615c-14.917-13.838-31.38-27.98-67.325-31.185z" fill="#231F20"/><path d="M134.086 138.606c-.136 1.215-.552 3.208 2.264 5.655-1.999-.01-3.613-.47-4.244-1.4-2.478-3.648-2.386-6.876-.785-9.594 3.283 2.247 2.923 3.938 2.765 5.34" fill="#BBBABA"/><path d="M179.003 60.268l-3.592-18.098-8.094.926-10.297 36.292 8.09-.926 5.431-19.134c6.832 21.399 2.732 29.516 2.732 29.516 4.294-2.216 7.289-6.887 8.952-12.345l10.298-36.291-8.09.927-5.43 19.133zm-66.806 3.378l2.143-7.67 7.765-.887 7.233 2.556 2.977-10.532-16.006 1.83c-7.114.813-9.025 3.842-10.21 7.976l-4.073 14.655 15.962-1.825-2.111 7.578-7.766.887-7.232-2.556-1.864 6.597c4.963-1.308 6.108-.583 9.577.208 2.03.463 4.107 1.037 5.528 1.156.867.073 1.72.155 2.567.243 4.836-1.226 6.414-3.948 7.389-7.472l4.122-14.617-16 1.873zM8.1 47.967l-2.495 9.618 15.002-1.676-10.122 35.512c-2.594 9.254 3.966 13.678 7.89 15.074-2.204-4.697-.255-12.019 1.014-16.605l10.013-34.993L194.389 35.84l.054-.166L8.1 47.967zm32.923 37.915l-7.764.888 6.229-22.238 7.765-.887-6.23 22.237zm.433-28.384c-7.114.813-9.025 3.843-10.21 7.976L23.05 94.746l16.006-1.83c1.784-.215 3.241-.567 4.443-1.039-2.255-2.044-3.655-3.705-4.835-4.926a171.816 171.816 0 0 0 7.172 3.639c1.866-1.42 2.754-3.356 3.387-5.645l8.24-29.277-16.006 1.83zm53.025-6.06l-8.284 29.281-7.47.854 8.24-29.277-8.285.947L70.4 82.525l-7.47.854 8.24-29.277-8.285.947-10.252 36.316 12.91-1.476a71.799 71.799 0 0 1-2.837-3.387c1.18.137 11.834 2.401 29.736-2.354 1.005-1.234 1.608-2.716 2.085-4.38l8.24-29.278-8.285.947zm51.057 22.499l-7.764.887 6.229-22.238 7.764-.887-6.229 22.238zm.433-28.385c-7.113.813-9.026 3.843-10.21 7.977L127.563 82.8l16.007-1.83c7.065-.85 9.026-3.842 10.167-7.97l8.24-29.277-16.006 1.83z" fill="#FFF"/><path d="M39.488 64.532l-6.23 22.238 7.765-.888 6.23-22.237-7.765.887zm-10.086-9.635L19.389 89.89c-1.269 4.586-3.218 11.908-1.014 16.605-3.924-1.396-10.484-5.82-7.89-15.074L20.607 55.91 5.605 57.585 8.1 47.967l186.343-12.293-.054.166L29.402 54.897zM182.225 76.5c-1.663 5.458-4.658 10.129-8.952 12.345 0 0 4.1-8.117-2.732-29.516l-5.431 19.134-8.09.926 10.297-36.292 8.094-.926 3.592 18.098 5.43-19.133 8.09-.927L182.225 76.5zm-38.655 4.472l-16.007 1.83 8.198-29.272c1.184-4.134 3.097-7.164 10.21-7.977l16.007-1.83L153.737 73c-1.141 4.128-3.102 7.12-10.167 7.97zM5.556 44.893L1.293 61.321l14.88-1.661c-1.997 7.01-8.575 30.52-8.575 30.52-3.87 12.616 5.84 19.05 17.001 21.963-3.612-4.755-4.555-10.282-3.76-13.888l18.584-2.124c2.854-.344 5.058-1.042 6.782-1.971a50.288 50.288 0 0 1-2.707-2.283c-1.202.472-2.659.824-4.443 1.04L23.05 94.746l8.197-29.272c1.185-4.133 3.096-7.163 10.21-7.976l16.007-1.83-8.241 29.277c-.633 2.29-1.521 4.226-3.387 5.645 1.07.508 2.132.996 3.196 1.466l.062-.06-.022.077a115.83 115.83 0 0 0 5.634 2.31l13.577-1.55a83.807 83.807 0 0 1-2.74-2.944l-12.91 1.476 10.252-36.316 8.285-.947-8.24 29.277 7.47-.854 8.283-29.282 8.286-.947-8.24 29.277 7.469-.854 8.284-29.282 8.285-.947-8.24 29.277c-.477 1.665-1.08 3.147-2.085 4.38a108.34 108.34 0 0 0 4.302-1.236c.84-.26 1.591-.477 2.272-.656l1.864-6.597 7.232 2.556 7.766-.887 2.111-7.578-15.962 1.825 4.073-14.655c1.185-4.134 3.096-7.163 10.21-7.976l16.006-1.83-2.977 10.532-7.233-2.556-7.765.888-2.143 7.669 16.001-1.873-4.122 14.617c-.975 3.524-2.553 6.246-7.39 7.472 4.537.467 8.781 1.14 12.755 1.98l14.497-1.657c4.621-.557 7.549-2.034 9.475-3.936l-.823 2.902 15.04-1.72 2.733-9.627c.65 3.662 3.298 13.73-4.21 24.327 13.843-5.845 17.11-11.938 19.166-18.69l13.1-45.243L5.557 44.893zm132.218 29.931l7.764-.887 6.23-22.238-7.765.887-6.229 22.238z" fill="#231F20"/><path d="M170.363 71.804l-2.733 9.626-15.04 1.721.823-2.902c-1.926 1.902-4.854 3.379-9.475 3.936l-14.497 1.657c-4.715-.996-9.808-1.761-15.321-2.223-1.42-.119-3.498-.693-5.528-1.156-3.945-.9-4.882-1.715-11.85.448-20.494 6.363-32.766 3.739-34.037 3.591.487.624 2.524 3.205 5.577 6.33l-13.576 1.552a116.024 116.024 0 0 1-5.635-2.31l.022-.078-.062.06.016.007c-3.37-1.487-6.702-3.146-10.384-5.112 1.593 1.648 3.582 4.096 7.542 7.209-1.724.93-3.928 1.627-6.782 1.97l-18.585 2.125c-.794 3.606.15 9.133 3.761 13.888-11.16-2.913-20.87-9.347-17.001-21.964 0 0 6.578-23.51 8.576-30.52l-14.88 1.662 4.262-16.428L198.42 32.198l-13.101 45.244c-2.056 6.751-5.323 12.844-19.167 18.69 7.509-10.598 4.862-20.666 4.21-24.328zM72.744 97.057a23.969 23.969 0 0 0-2.348 2.318c-6.19-1.697-9.134-2.52-13.673-4.245l12.43-1.42a74.62 74.62 0 0 0 3.591 3.347zm-9.209 13.627c-11.724-3.455-24.21-9.338-31.937-13.228.285.144.59.295.888.444l7.047-.805c3.014-.363 5.482-1.132 7.494-2.301l-.007-.005c4.017 3.038 9.906 6.667 19.025 10.773a46.984 46.984 0 0 0-2.51 5.122zm122.713-32.96c.003-.016 13.534-46.589 13.534-46.589L4.792 43.971 0 62.442l14.85-1.658-8.187 29.133c-.601 1.96-.902 3.838-.902 5.622 0 2.49.586 4.796 1.756 6.894 2.673 4.79 8.495 8.472 16.837 10.649l2.716.709-1.698-2.235c-2.722-3.584-3.82-7.625-3.82-10.759 0-.595.053-1.141.128-1.662l7.959-.91c9.01 8.19 25.444 18.98 44.709 23.121.37-.451.698-.838.698-.838-20.426-4.215-37.203-16.04-43.362-21.854 0 0 16.433 8.635 32.39 13.205 1.058-2.659 2.201-4.896 3.327-6.758-13.09-5.622-21.196-11.745-23.903-14.545 0 0 12.216 6.348 27.23 9.903 2.044-2.383 3.541-3.358 3.541-3.358-6.071-5.137-9.372-9.368-9.372-9.368C83.056 89.841 99.032 82.45 103.3 82.4c1.973-.025 7.7 1.915 10.733 2.186 35.946 3.205 52.408 17.347 67.325 31.185l-8.087 4.615c-.926 13.604-17.247 13.18-17.247 13.18 1.653-5.642 1.6-8.863 1.6-8.863-3.836-2.525-17.476-.11-23.969 5.77 3.886 2.478 4.383 4.797 3.93 7.569-.306 1.876.408 3.738 3.53 5.522 1.99-.57 3.946-1.485 5.453-2.737 0 0 2.324 3.216 1.154 7.644 1.164.526 2.438 1.358 2.438 1.358-7.602 3.856-5.493 12.153-5.493 12.153-5.257-2.131-11.456-1.756-15.609 4.472 0 0-8.845-20.38-32.802-28.502-22.693-7.693-38.868-10.39-59.368-26.756 0 0 20.382 10.307 41.413 15.76.24-.221 1.01-.876 1.01-.876-20.511-5.357-38.437-13.78-50.382-19.997 12.34 10.42 26.965 21.27 54.525 28.757 4.034 1.096 8.108 2.563 12.49 4.032 20.944 7.015 30.177 23.662 32.935 29.6 5.464-9.106 13.08-6.776 17.191-4.874 0 0-.714-2.906-.714-4.24 0-2.516.377-6.462 6.74-9.424-1.405-.918-2.31-1.505-3.281-2.008.22-3.589.288-5.206-2.069-8.509-1.62 1.483-3.781 2.565-5.503 3.1-2.686-1.638-2.894-3.136-2.7-4.32.463-2.83.002-5.317-3.288-7.797 6.247-4.85 17.588-6.861 21.377-5.111-.52 5.366-1.893 9.214-1.893 9.214 1.26.033 18.04.28 19.423-13.508.74-.424 8.825-5.036 8.825-5.036-7.749-6.74-21.61-22.531-50.66-29.47l11.72-1.34c3.102-.374 5.608-1.186 7.651-2.41l-.437 1.541 17.125-1.96 1.656-5.833c.152 1.507 1.711 11.558-6.242 21.33 16.715-5.863 20.315-13.088 22.448-20.093z" fill="#BBBABA"/></g></svg>