<svg width="200" height="200" xmlns="http://www.w3.org/2000/svg"><g fill-rule="nonzero" fill="none"><path d="M183.886.664c-.367.003-37.205.399-84.095.399s-83.6-.396-83.966-.4L12 .623l.5 3.797C16.067 31.445 31.5 44.078 43.9 54.23c2.276 1.862 11.888 10.335 11.888 10.335V38.682a147.19 147.19 0 0 1 21.286-4.767l-.002 127.206c0 12.903 10.585 24.977 16.909 32.19.746.852 3.488 3.864 6.007 6.652 2.623-3.018 5.522-6.32 6.37-7.305 6.103-7.087 16.317-18.947 16.317-31.537l-.002-127.127s8.54.915 21.25 4.688c0 0 0 25.511.016 25.498l9.897-8.235c14.736-12.181 29.974-24.777 33.376-51.542l.48-3.781-3.806.042" fill="#FFF"/><path d="M99.79 4.383c-47.453 0-84-.399-84-.399C19.831 34.633 40.115 46 52.47 57.116V36.232c8.97-2.893 18.345-4.948 27.92-6.117l-.002 131.006c0 14.686 16.203 29.346 19.546 34.153 3.903-5.65 19.423-19.645 19.423-34.153l-.002-131.001c9.561 1.169 18.924 3.222 27.884 6.112v20.884c16.098-13.57 33.116-25.074 36.682-53.132 0 0-36.678.4-84.131.4" fill="#871C30"/><path d="M99.79 9.624c-44.944 0-77.678.31-77.678.31 3.089 15.338 12.16 25.665 25.333 36.525l.003-13.848c12.416-4.343 25.196-6.956 37.878-8.069-.014.01-.043 136.579-.043 136.579 0 9.991 10.135 20.982 14.551 26.498 6.866-8.478 14.63-17.011 14.63-26.695l-.002-136.344c13.341 1.188 26.142 3.953 37.8 8.031l.004 13.848c13.173-10.86 22.244-21.187 25.333-36.525 0 0-32.863-.31-77.808-.31" fill="#FFF"/><path d="M38.912 24.747c-9.839-5.21-16.8-14.813-16.8-14.813 3.089 15.338 12.16 25.665 25.333 36.524-10.385-12.671-8.533-21.711-8.533-21.711M160.799 24.747s1.852 9.04-8.533 21.711C165.439 35.6 174.51 25.272 177.599 9.934c0 0-6.961 9.602-16.8 14.813" fill="#B4B3B3"/><path d="M47.448 32.611c12.416-4.343 25.196-6.956 37.878-8.069 6.431-4.384 14.503-7.762 14.508-7.764-30.5.004-60.922 7.969-60.922 7.969s1.132 5.264 8.536 7.864M99.856 16.778h-.022V187.62c6.866-8.478 14.63-17.011 14.63-26.695l-.002-136.344c13.341 1.188 26.142 3.953 37.8 8.031 7.404-2.6 8.537-7.864 8.537-7.864s-30.437-7.969-60.943-7.969" fill="#B4B3B3"/><path d="M127.366 42.426a2.613 2.613 0 0 1-2.613-2.617 2.613 2.613 0 1 1 5.225 0 2.616 2.616 0 0 1-2.612 2.617m0-5.948a3.328 3.328 0 0 0-3.33 3.331 3.328 3.328 0 1 0 6.654 0 3.325 3.325 0 0 0-3.324-3.33" fill="#871C30"/><path d="M127.604 39.453h-.893v-.832h.893c.227 0 .41.187.41.415 0 .23-.183.417-.41.417m1.125-.417c0-.622-.504-1.127-1.125-1.127h-1.605v3.8h.712v-1.54h.514l.718 1.54h.786l-.75-1.607c.437-.156.75-.575.75-1.066" fill="#871C30"/></g></svg>