<svg width="200" height="200" xmlns="http://www.w3.org/2000/svg"><g fill-rule="nonzero" fill="none"><path d="M117.262 78.703c2.054-3.583 5.513-2.396 5.513-2.396s.954 2.534 1.512 8.28c0 0-3.907-1.175-7.219 1.331 0 0-1.879-3.599.194-7.215Zm-.137 11.755c2.06 1.525 4.439 2.522 7.432 2.258 0 0 .57.024 1.403.943.302.334.97.883 1.806.812 0 0 .372-10.79-1.98-18.932-3.315-11.469-12.33-11.438-12.33-11.438s5.466 2.873 7.02 7.36c0 0-6.245 1.85-7.715 7.51-1.357 5.228 2.024 9.757 4.364 11.487Zm-60.3 48.415-1.929-1.592 3.328-2.025-1.398 3.617Zm-9.402.096 2.892 2.121 2.122-1.302 2.025 1.544-.434 1.735 3.037 1.784 4.919-10.559-3.906-3.375-10.655 8.052Zm13.404 8.149 2.17-2.363.193 4.05 2.17 1.206 6.17-7.523-2.314-2.023-1.734 1.06-.338-3.086-2.219-1.687-6.992 8.728 2.894 1.638Zm11.138 6.846 1.35-1.638-1.929-1.448.579-.675 1.205.773 1.447-1.64-1.206-.868.628-.771 2.216 1.494 1.4-1.88-4.388-3.28-5.64 7.185 4.338 2.748Zm-25.7-19.864 6.269-8.102-3.328-2.458-8.583 11.523 6.077 3.568 1.783-2.748-2.218-1.783ZM189.79 85.188c-3.415 3.552-8.912 3.845-12.069 1.94 0 0 4.184-4.709 3.148-11.792-.41-2.822-1.577-6.531-6.026-8.175-1.233-.456-2.473-.686-3.687-.686-5.869 0-9.33 5.139-11.191 7.9-1.535 2.277-3.98 4.993-6.905 4.993-.675 0-1.353-.138-2.076-.42-.945-.37-5.544-2.516-3.42-8.486l.706-1.99-1.595-1.38c-.516-.444-12.816-10.906-30.6-10.906-3.907 0-7.827.516-11.648 1.535-15.978 4.26-25.277 14.703-28.881 19.572 3.432-7.416 13.786-26.771 32.065-36.22 22.889-11.828 57.757-11.103 76.64 10.017 15.927 17.81 8.906 30.596 5.54 34.098Zm-24.427-4.46c-1.97 9.045-5.85 10.074-8.84 12.924-2.668 2.544-8.325 8.229-6.782 16.843 1.021 5.703 4.608 7.968 6.914 8.847.013.178.017.353.04.535.208 1.629.6 2.76 1.399 4.033 1.124 1.786 2.978 2.868 5.083 2.81 1.775-.045 3.395-.924 3.395-.924-.644 1.633-1.658 3.077-3.296 4.187-6.782 4.602-18.501 3.841-25.493-.716-8.68-5.658-12.987-3.471-12.987-3.471 14.48 4.67 22.841 13.404 26.853 18.8-1.04 3.654-.12 7.053.172 8.21l3.415-1.442c1.494-.623 1.987-.727 2.325-.757.29-.024.928.084 1.242.651.313.568-.134 1.381-.495 1.76-1.27 1.33-6.642 3.168-12.476 2.493-6-.807-14.251-3.084-26.63-7.47-21.71-7.696-35.76-4.486-35.76-4.486-2.584-1.749-8.87-8.57-10.533-10.394.211-.198.41-.413.58-.653 1.2-1.672 1.94-3.434 2.26-5.196l2.151-2.829c2.2-2.875 3.177-7.353.126-10.397-1.678-1.674-3.749-2.558-5.988-2.558-.84 0-1.872.11-2.951.263 2.5-13.87 18.73-10.005 18.73-10.005-3.342-3.472-13.745-4.456-19.145 3.245-5.298 7.552-1.981 17.18-1.981 17.18l-.09-.045.015.044c-3.536-1.414-13.21-17.602.5-31.774l.009.074.067-.074c12.307-12.72 31.824-5.98 31.824-5.98-7.522-8.229-22.462-3.048-22.462-3.048s9.014-15.444 28.744-20.705c22.433-5.983 39.432 8.725 39.432 8.725-1.216 3.42-1.4 9.806 5.203 12.392 6.236 2.444 10.672-2.764 12.667-5.72 1.99-2.958 5.504-8.166 11.25-6.045 4.92 1.819 3.892 6.492 3.892 6.492-.702-1.73-10.51-4.399-12.38 4.181Zm.504 30.426c3.445-.528 7.763.434 9.546 5.544 3.12 8.937-7.57 12.778-7.57 12.778s2.062-3.034 1.954-5.594c-.17-3.977-2.46-3.182-4.052-1.372-1.163 1.32-3.781 1.757-5.037-.244-.53-.843-.793-1.519-.952-2.78-.542-4.26 2.739-7.818 6.11-8.332Zm-3.5-4.766c3.837-1.687 5.32 1.598 5.32 1.598-3.013.206-4.954.936-4.954.936-1.161-1.136-.366-2.534-.366-2.534Zm-6.208 36.057c2.315-2.635 8.412-4.189 12.826-.963 4.036 2.953 4.396 8.942 1.472 12.888-3.484 4.697-13.205 7.267-20.76 4.374 0 0 8.477-.962 11.018-3.766 2.515-2.777 1.295-5.861-.064-6.76-1.182-.785-2.885-1.268-6.614.304 0 0-.192-3.44 2.122-6.077Zm-86.523-27.331c1.483-.605 3.977-1.073 6.21 1.156 2.274 2.268.138 5.58-.31 6.219-.673-2.403-2.194-4.637-4.54-6.44a17.327 17.327 0 0 0-1.36-.935Zm-.272 5.497a17.313 17.313 0 0 1-.11-.442c-.047-.183-.088-.363-.142-.555-.029-.106-.036-.23-.05-.35-.051-.278-.114-.593-.176-.928.077.057.154.102.231.16 4.16 3.197 4.89 7.992 1.863 12.217-.19.263-.454.437-.743.527l-1.805-1.805c.045-.142.106-.28.197-.406.361-.506.833-1.297 1.101-2.25l.01.003a5.54 5.54 0 0 0 .06-.277 5.134 5.134 0 0 0 .126-1.543c.002-1.018-.12-2.452-.562-4.35Zm17.56 31.698c-1.459.815-2.832 2.004-3.984 3.503-1.222 1.587-2.063 3.375-2.448 5.142l-65.904-30.592s-5.623-1.703-2.435-10.696c3.184-8.98 11.015-17.272 16.769-19.45 4.983-1.887 6.639.914 9.058 3.187 1.591 1.498 42.763 42.718 48.944 48.906Zm6.391 2.482c1.978 1.523 1.635 5.287-.767 8.41-2.401 3.122-5.95 4.422-7.928 2.901-1.978-1.521-1.636-5.287.765-8.409 2.401-3.123 5.952-4.421 7.93-2.902Zm-65.123 9.125c-11.572-2.121-11.108-13.107-11.108-13.107 6.119 5.57 12.62 2.463 17.424-2.746a39.68 39.68 0 0 0 2.98-3.668l16.951 7.867c-6.998 4.515-15.588 13.61-26.247 11.654Zm1.62-23.895 5.21 2.529c-.297.398-.707.903-1.136 1.42-1.5 1.81-4.102 2.38-6.148 1.22-.246-.139-.434-.28-.531-.416-.354-.465-.286-.88-.145-1.222.564-1.365 3.52-.224 3.52-.224s-.273-1.991-.77-3.307Zm-7.599-1.48c3.43-.5 4.498 2.128 4.498 2.128-2.827.332-3.262 2.807-2.693 4.718.8 2.695 4.715 3.646 4.715 3.646-3.673 2.584-7.412 1.876-9.845-.939-2.757-3.193-.66-8.973 3.325-9.553ZM5.884 125.302c-1.107-6.18 3.392-14.734 7.633-19.741 7.184-8.484 12.787-11.73 18.297-10.652 1.287.253 2.13 1.024 2.677 2.02a8.153 8.153 0 0 0-2.754-.42c-1.23.023-2.507.29-3.907.821-7.146 2.704-15.309 12.061-18.586 21.304-1.503 4.237-1.545 7.813-.123 10.624.097.194.209.362.315.54-1.456-.546-3.063-1.768-3.552-4.496ZM56.928 107.7a25.64 25.64 0 0 0 .553 4.548c.101.476.231.948.36 1.419-.739.27-1.239.526-1.412.623a4.484 4.484 0 0 0-1.605 1.539l-1.808-1.806a332.766 332.766 0 0 1 3.912-6.323Zm1.893 8.89v.002l.017-.007c.373.916.777 1.805 1.227 2.631l-.11.038c-.346.121-.562.23-.596.248-.22.12-.455.17-.69.17-.139-.137-.274-.273-.412-.411l-1.037-1.035.02-.154c.05-.442.287-.857.703-1.093.05-.028.367-.198.878-.39Zm127.732-67.556c-10.798-12.075-27.17-18.725-46.1-18.725-12.08 0-24.246 2.848-34.258 8.025-19.006 9.823-29.725 29.612-33.45 37.664l-3.71 8.016-4.137 4.278c-3.607 3.727-6.03 7.947-7.192 12.407l-6.938 11.078S38.675 99.743 38.39 99.47c-.175-1.42-.552-2.828-1.21-4.05-1.058-1.91-2.707-3.134-4.774-3.538a13.77 13.77 0 0 0-2.636-.258c-5.874 0-11.614 3.683-18.61 11.942-2.478 2.927-4.775 6.648-6.302 10.21-1.927 4.492-2.622 8.667-2.014 12.071.592 3.302 2.096 5.142 5.507 6.84 1.247.622 4.204.493 7.396 1.615 2.217.782 3.915 1.818 3.915 1.818a8.643 8.643 0 0 0-4.493 5.03c-1.264 3.7-1.17 9.528-1.17 9.528-.2 4.728 2.393 14.213 13.634 16.274 1.165.214 2.354.322 3.534.322 8.147 0 14.967-5.1 20.448-9.2 1.595-1.193 3.101-2.318 4.494-3.218l1.638-1.057 21.443 9.954 1.146.532c.261 1.759 1.091 3.256 2.4 4.262 1.086.834 2.43 1.278 3.885 1.278 2.96 0 6.09-1.773 8.373-4.742 3.493-4.544 3.58-10.138.2-12.737-1.086-.834-2.429-1.276-3.884-1.276-.389 0-.78.03-1.173.09l-1.031-1.032-3.762-3.766c1.224-.17 3.344-.386 6.216-.386 5.742 0 15.017.864 26.61 4.972 7.923 2.81 14.195 4.1 19.35 6.254 5.156 2.153 11.071 4.425 11.071 4.425 2.467.944 5.17 1.424 8.03 1.424 6.83 0 13.23-2.686 16.311-6.843 2.03-2.738 2.897-6.246 2.385-9.63-.473-3.11-2.075-5.805-4.513-7.587-2.155-1.576-4.77-2.409-7.562-2.409-3.672 0-7.362 1.503-9.405 3.828-.282.322-.536.65-.765.982a53.52 53.52 0 0 0-5.075-5.485c7.826 1.065 20.888-3.527 20.888-3.527 4.693-1.686 12.703-7.346 9.44-16.7-1.267-3.626-3.741-6.116-7.017-7.171l-.81-1.792c-.653-1.448-2.667-3.898-6.07-3.898-1.072 0-3.239.035-4.733 2.202-.976 1.413-1.065 3.781.463 5.655-1.535 1.39-2.728 3.25-3.255 5.4-1.681-.883-3.502-2.637-4.126-6.126-1.148-6.408 2.536-10.881 5.873-14.063.512-.489 1.105-.95 1.732-1.437 2.76-2.147 6.197-4.819 7.994-13.066.333-1.522 1.133-3.552 4.248-3.548l.063.001c3.234.037 5.234 3.64 3.649 6.46-.594 1.057-1.324 2.075-2.59 3.208 0 0 1.062 1.23 2.6 2.198 1.921 1.212 4.935 1.685 6.783 1.466 2.602-.307 5.92-1.14 8.672-3.718 2.937-2.755 5.135-7.17 5.645-12.053.632-5.994-1.149-15.467-10.894-26.365Zm-62.732 62.579c-5.989-1.16-13.864 2.145-13.864 2.145 2.388.313 3.738.433 6.51.073 2.772-.363 5.257-.844 10.51 2.483 5.257 3.327 8.053 1.518 8.053 1.518-3.351-3.447-4.99-5.013-11.21-6.22Zm-.573-8.85c-.807-.418-1.315-.698-1.315-.698s.19-.772 1.024-.781c.836-.008 1.943.926 2.17 1.942 0 0-1.072-.044-1.879-.463Zm.127 2.224s-.716.031-.887.02c-.211-.01-.72.027-1.147-.3 0 0-.008-.563.853-.655.862-.09 1.39.418 1.181.935ZM119.572 102c-1.008.38-2.824-.053-3.177-.099-.355-.047-1.189-.245-1.78-.2 0 0-.127-2.016 1.915-2.305 2.042-.291 3.74.97 3.913 1.206 0 0 .136 1.018-.871 1.398Zm-1.19 3.123c-.707.417-1.66.78-3.294.945-1.635.162-2.224.38-2.224.38s-.526-1.907 1.062-2.779c1.589-.869 3.85-.615 5.373.156 0 0-.209.88-.916 1.298Zm-9.548-3.142c-.525 0-1.497.083-1.752.119 0 0-.67-2.33 1.989-2.868 2.24-.455 4.093.2 4.093.2s-.308 1.497-.872 2.323c0 0-2.93.226-3.458.226Zm1.415 5.092c-1.605 1.535-3.693 1.654-5.263 1.126 0 0 .853-2.923 1.462-4.093 0 0 2.786-.88 4.963-.58 0 0 .445 2.014-1.162 3.547Zm-5.979-3.992c-1.06.466-1.583.446-2.502.76 0 0-.29-2.845 3.793-3.232 0 0 .383 1.739-1.29 2.472Zm-1.036 4.537s-1.724.197-2.332-1.17c0 0 .099-.66.832-1.054.811-.435 2.161-.61 2.336-.617 0 0-.32 1.805-.836 2.84Zm29.465-.262s-1.078-7.184-11.889-10.273c-10.81-3.09-19.235-.999-22.77 3.411-4.345 5.424 0 11.458 6.753 11.135 5.165-.247 8.727-3.411 12.966-4.131 4.359-.738 7.9-.396 11.85 1.904 3.951 2.299 5.173 3.304 5.783 4.56.611 1.258.898 2.335 2.3 2.731 0 0 .5-4.957-4.993-9.337Zm14.694-13.681s-6.24-2.966-9.109 2.844c0 0-.651.117-1.15-.046-.498-.163-.745-.25-.9-.244 0 0 1.921-4.78 11.618-7.297 0 0 1.229 2.26-.459 4.743Zm-4.925-6.196c-4.74 2.052-12.04 9.042-12.04 9.042.203.004.552.052 1.36.242s1.53-.001 1.53-.001 1.166 1.435 4.4 2.433c3.28 1.013 6.776.357 9.185-.976 3.485-1.93 4.205-5.148 4.792-7.128.59-1.98 1.177-3.05 1.177-3.05.91.107 1.09.4 3.048.895 1.664.423 2.195-.3 2.195-.3-4.665-4.545-11.162-3.098-15.647-1.157ZM44.166 119.35s-5.712 7.2-7.495 8.075c-1.432.703-1.594-1.134-.941-2.004.512-.68 6.075-8.094 6.075-8.094l-2.777-2.48s-5.647 6.912-6.768 8.406c-1.122 1.498-3.1 5.036.655 7.712 3.706 2.642 7.008-.56 7.43-1.075.42-.514 6.634-7.99 6.634-7.99l-2.813-2.55Zm42.125 44.528c.167.956.64 1.63.853 1.775 0 0-.076-.92.141-1.69.912-.287 2.117-1.1 3.122-2.408 1.338-1.74 1.589-3.286 1.526-4.047.575-.69 1.128-1.09 1.128-1.09-.937-.011-2.22.476-3.173 1.164-.702.426-1.457 1.073-2.124 1.941-1.557 2.025-1.64 3.788-1.473 4.355Zm-51.516-46.995 2.923-3.188-8.073-7.458-3.034 3.913 2.27 1.926-7.722 10.797 3.69 2.548 7.832-10.198 2.114 1.66Z" fill="#231F20"/><path d="M34.507 148.063c-4.804 5.209-11.306 8.317-17.423 2.746 0 0-.465 10.984 11.107 13.107 10.659 1.956 19.25-7.139 26.246-11.654l-16.95-7.867a39.795 39.795 0 0 1-2.98 3.668m22.42-40.364a334.095 334.095 0 0 0-3.911 6.325l1.809 1.804a4.476 4.476 0 0 1 1.604-1.539 9.997 9.997 0 0 1 1.412-.623c-.129-.471-.258-.943-.36-1.42a25.651 25.651 0 0 1-.553-4.547m98.992-18.763c-1.958-.496-2.138-.788-3.046-.895 0 0-.59 1.07-1.177 3.05-.59 1.98-1.31 5.199-4.792 7.128-2.41 1.333-5.907 1.99-9.186.976-3.235-.998-4.4-2.432-4.4-2.432s-.723.192-1.53.001c-.809-.191-1.158-.24-1.359-.244 0 0 7.299-6.989 12.038-9.04 4.483-1.943 10.98-3.389 15.645 1.155 0 0-.53.724-2.193.301m-18.229 27.755c-1.401-.392-1.69-1.471-2.3-2.727-.609-1.258-1.83-2.263-5.782-4.562-3.95-2.3-7.491-2.642-11.852-1.904-4.237.72-7.797 3.882-12.964 4.131-6.753.323-11.098-5.71-6.753-11.135 3.534-4.41 11.961-6.5 22.77-3.41 10.81 3.088 11.889 10.272 11.889 10.272 5.494 4.38 4.992 9.335 4.992 9.335m-10.713-.378c-5.256-3.327-7.739-2.846-10.51-2.483-2.775.362-4.123.24-6.511-.073 0 0 7.874-3.305 13.862-2.145 6.22 1.206 7.86 2.772 11.211 6.22 0 0-2.797 1.808-8.052-1.519m-14.215-37.342c1.468-5.66 7.713-7.51 7.713-7.51-1.554-4.487-7.02-7.36-7.02-7.36s9.015-.031 12.33 11.438c2.352 8.14 1.98 18.932 1.98 18.932-.836.071-1.504-.478-1.806-.81-.832-.922-1.403-.945-1.403-.945-2.993.264-5.371-.733-7.432-2.258-2.339-1.73-5.722-6.259-4.362-11.487m61.085-8.916c-5.745-2.121-9.259 3.087-11.251 6.044-1.991 2.957-6.429 8.165-12.665 5.721-6.603-2.585-6.42-8.972-5.203-12.394 0 0-16.999-14.706-39.432-8.723-19.729 5.261-28.744 20.705-28.744 20.705s14.939-5.18 22.462 3.048c0 0-19.517-6.74-31.824 5.98l-.069.073-.007-.073c-13.71 14.172-4.035 30.36-.5 31.774l-.016-.046.092.046s-3.32-9.628 1.979-17.18c5.4-7.7 15.804-6.716 19.146-3.244 0 0-16.23-3.866-18.73 10.005 1.079-.154 2.112-.265 2.95-.265 2.24 0 4.31.886 5.99 2.56 3.05 3.044 2.073 7.522-.127 10.397l-2.15 2.83c-.32 1.76-1.06 3.523-2.26 5.195-.171.24-.37.455-.582.653 1.665 1.825 7.95 8.645 10.533 10.394 0 0 14.051-3.21 35.762 4.486 12.378 4.386 20.629 6.663 26.63 7.47 5.833.677 11.203-1.163 12.475-2.493.361-.377.808-1.192.495-1.76-.314-.567-.953-.675-1.242-.65-.34.029-.833.133-2.325.756l-3.415 1.442c-.289-1.157-1.213-4.558-.171-8.21-4.014-5.396-12.377-14.13-26.854-18.8 0 0 4.307-2.187 12.987 3.47 6.992 4.56 18.71 5.319 25.493.717 1.638-1.112 2.654-2.554 3.299-4.187 0 0-1.623.879-3.396.925-2.107.057-3.961-1.025-5.085-2.811-.799-1.274-1.193-2.404-1.4-4.033-.022-.182-.026-.357-.04-.535-2.305-.88-5.892-3.144-6.913-8.847-1.543-8.614 4.114-14.3 6.781-16.843 2.992-2.85 6.87-3.879 8.84-12.924 1.87-8.58 11.678-5.91 12.38-4.181 0 0 1.027-4.673-3.893-6.492" fill="#136247"/><path d="M184.253 51.09c-11.014-12.315-27.462-17.697-43.8-17.697-11.68 0-23.3 2.75-32.843 7.68-18.279 9.449-28.633 28.804-32.065 36.22 3.603-4.87 12.903-15.31 28.881-19.572a45.256 45.256 0 0 1 11.649-1.535c17.783 0 30.083 10.462 30.599 10.906l1.595 1.38-.708 1.99c-2.122 5.97 2.477 8.115 3.422 8.485.723.283 1.401.421 2.076.421 2.924 0 5.37-2.716 6.905-4.994 1.86-2.76 5.322-7.9 11.19-7.9 1.215 0 2.455.231 3.688.687 4.451 1.644 5.616 5.353 6.026 8.177 1.036 7.081-3.148 11.79-3.148 11.79 1.248.753 2.864 1.163 4.571 1.163 2.609 0 5.432-.956 7.498-3.103.211-.22.436-.476.667-.765.233-.29.474-.615.714-.975 3.383-5.037 7.016-16.774-6.917-32.358Zm-92.32 106.418c.063.76-.188 2.306-1.526 4.047-1.005 1.308-2.21 2.121-3.122 2.409-.216.77-.141 1.69-.141 1.69-.213-.146-.686-.82-.853-1.776-.169-.567-.084-2.33 1.474-4.355.667-.868 1.422-1.515 2.123-1.94.952-.69 2.236-1.176 3.174-1.166 0 0-.554.401-1.129 1.091Zm1.38-2.717c-1.977-1.52-5.528-.22-7.93 2.902-2.4 3.122-2.742 6.888-.765 8.409 1.979 1.521 5.53.221 7.93-2.9 2.402-3.124 2.745-6.888.766-8.411ZM26.71 140.669s-1.069-2.628-4.496-2.128c-3.988.58-6.085 6.36-3.326 9.553 2.432 2.815 6.17 3.523 9.844.939 0 0-3.914-.951-4.715-3.646-.57-1.91-.134-4.386 2.693-4.718Zm28.186-3.388 1.93 1.592 1.398-3.617-3.328 2.025Zm21.36 11.91-2.217-1.494-.628.77 1.206.869-1.446 1.64-1.206-.773-.579.675 1.93 1.448-1.351 1.638-4.34-2.748 5.642-7.184 4.388 3.279-1.398 1.88Zm-13.066-.386-.193-4.05-2.17 2.363-2.894-1.638 6.993-8.728 2.218 1.687.338 3.086 1.735-1.06 2.313 2.023-6.17 7.523-2.17-1.206Zm-9.162-5.738.434-1.735-2.025-1.544-2.122 1.302-2.892-2.12 10.656-8.053 3.905 3.375-4.919 10.559-3.037-1.784Zm-13.405-8.004 8.583-11.523 3.328 2.458-6.269 8.102 2.218 1.783-1.783 2.748-6.077-3.568Zm-7.708-4.098c-3.756-2.676-1.775-6.214-.655-7.712 1.122-1.494 6.768-8.405 6.768-8.405l2.777 2.48-6.075 8.093c-.652.868-.49 2.707.941 2.004 1.783-.876 7.496-8.075 7.496-8.075l2.812 2.55s-6.215 7.476-6.634 7.99c-.422.514-3.723 3.717-7.43 1.075Zm-11.777-8.092 7.723-10.797-2.27-1.926 3.034-3.913 8.073 7.458-2.923 3.188-2.115-1.66-7.833 10.198-3.689-2.548Zm65.785 29.436c-6.18-6.188-47.353-47.408-48.945-48.906-2.418-2.273-4.074-5.074-9.057-3.187-5.754 2.178-13.585 10.47-16.77 19.45-3.188 8.993 2.436 10.696 2.436 10.696l65.904 30.592c.386-1.767 1.227-3.555 2.446-5.142 1.154-1.499 2.527-2.688 3.986-3.503ZM69.74 126.782l-.01-.003a7.411 7.411 0 0 1-1.102 2.248 1.478 1.478 0 0 0-.197.408l1.805 1.805c.289-.09.553-.264.743-.527 3.027-4.225 2.297-9.02-1.863-12.217-.077-.058-.154-.103-.23-.16.06.335.124.65.176.93.013.117.02.242.05.348.052.192.095.372.141.555.038.165.076.314.11.442.442 1.899.564 3.333.562 4.35.04.543-.013 1.06-.126 1.544-.023.12-.042.218-.059.277Zm-60.496-8.148c3.277-9.243 11.441-18.6 18.586-21.304 1.4-.531 2.678-.798 3.906-.82h.001a8.153 8.153 0 0 1 2.754.42c-.548-.997-1.39-1.768-2.677-2.02-5.51-1.08-11.113 2.167-18.297 10.65-4.241 5.008-8.74 13.563-7.633 19.742.489 2.728 2.096 3.95 3.552 4.496-.106-.178-.218-.346-.315-.54-1.422-2.811-1.38-6.387.123-10.624Zm47.997-.563-.02.154 1.037 1.035.41.411c.235 0 .471-.05.69-.17.035-.018.25-.127.597-.248l.11-.038a26.037 26.037 0 0 1-1.227-2.631l-.017.007v-.002a7.139 7.139 0 0 0-.878.389 1.415 1.415 0 0 0-.702 1.093Zm43.66-11.623c.608 1.367 2.333 1.17 2.333 1.17.515-1.036.836-2.84.836-2.84-.177.006-1.525.181-2.336.616-.734.394-.832 1.054-.832 1.054Zm8.17-7.216c-2.66.538-1.99 2.868-1.99 2.868a18.626 18.626 0 0 1 1.753-.119c.528 0 3.458-.226 3.458-.226.564-.826.872-2.323.872-2.323s-1.852-.655-4.093-.2Zm-2.623 4.874c-.609 1.17-1.462 4.093-1.462 4.093 1.572.528 3.656.41 5.263-1.126 1.607-1.533 1.162-3.548 1.162-3.548-2.177-.3-4.963.58-4.963.58Zm10.082-4.71c-2.042.29-1.915 2.304-1.915 2.304.591-.044 1.425.154 1.78.201.353.046 2.17.48 3.178.1 1.006-.381.87-1.399.87-1.399-.172-.236-1.87-1.497-3.913-1.206Zm19.705-3.167c.156-.006.4.08.899.244.499.163 1.151.046 1.151.046 2.868-5.81 9.108-2.844 9.108-2.844 1.69-2.484.46-4.743.46-4.743-9.698 2.516-11.618 7.297-11.618 7.297Zm-14.04 7.822c-.862.092-.854.654-.854.654.427.328.936.29 1.148.302.171.01.886-.02.886-.02.21-.518-.319-1.025-1.18-.936Zm2.092-19.465c-.558-5.745-1.512-8.28-1.512-8.28s-3.459-1.186-5.513 2.397c-2.073 3.616-.194 7.215-.194 7.215 3.312-2.506 7.219-1.332 7.219-1.332Zm-10.36 19.083c-1.589.872-1.063 2.78-1.063 2.78s.59-.219 2.224-.381c1.633-.165 2.587-.528 3.296-.945.706-.418.915-1.298.915-1.298-1.525-.771-3.784-1.025-5.373-.156Zm9.03-2.386c-.835.01-1.024.78-1.024.78s.507.281 1.315.7c.807.418 1.878.462 1.878.462-.226-1.016-1.333-1.95-2.169-1.942Zm-17.396-.674c-4.081.387-3.792 3.232-3.792 3.232.918-.314 1.441-.294 2.501-.76 1.672-.733 1.29-2.472 1.29-2.472Zm-30.026 21.88c.448-.639 2.584-3.95.31-6.22-2.233-2.228-4.727-1.76-6.21-1.155.459.288.915.592 1.36.935 2.347 1.803 3.867 4.037 4.54 6.44Zm93.449 18.993c-4.414-3.226-10.513-1.672-12.826.963-2.316 2.637-2.122 6.077-2.122 6.077 3.728-1.572 5.432-1.09 6.614-.304 1.36.899 2.58 3.983.064 6.76-2.539 2.804-11.018 3.766-11.018 3.766 7.554 2.893 17.276.323 20.76-4.374 2.924-3.946 2.564-9.935-1.472-12.888Zm-3.118-30.328c-3.372.514-6.653 4.073-6.111 8.332.159 1.261.421 1.937.952 2.782 1.256 2 3.872 1.563 5.037.242 1.592-1.81 3.882-2.605 4.052 1.372.108 2.56-1.955 5.594-1.955 5.594s10.69-3.841 7.57-12.778c-1.782-5.11-6.1-6.072-9.545-5.544Zm-3.5-4.766s-.797 1.398.366 2.534c0 0 1.94-.73 4.953-.936 0 0-1.482-3.285-5.32-1.598Z" fill="#FFF"/><path fill="#231F20" d="m174.425 161.51-.046-.045v-2.423l-.026-.027h-.781l-.046-.045v-.506l.046-.044h2.285l.045.044v.506l-.045.045h-.782l-.026.027v2.423l-.046.044h-.578M176.272 158.464l.047-.046h.539l.072.046.783 1.764h.019l.768-1.764.072-.046h.53l.047.046v3l-.047.045h-.513l-.045-.044v-1.741h-.02l-.57 1.303-.087.06h-.313l-.088-.06-.57-1.303h-.019v1.74l-.046.045h-.512l-.047-.044v-3"/></g></svg>