<?xml version="1.0" encoding="UTF-8"?>
<svg width="200px" height="200px" viewBox="0 0 200 200" version="1.1" xmlns="http://www.w3.org/2000/svg" xmlns:xlink="http://www.w3.org/1999/xlink">
    <!-- Generator: Sketch 51.3 (57544) - http://www.bohemiancoding.com/sketch -->
    <title>tulane</title>
    <desc>Created with Sketch.</desc>
    <defs></defs>
    <g id="tulane" stroke="none" stroke-width="1" fill="none" fill-rule="evenodd">
        <g id="tulane_BGL" transform="translate(-2.040816, 27.551020)">
            <g id="tulane">
                <g id="g10" transform="translate(101.999998, 73.026874) scale(-1, 1) rotate(-180.000000) translate(-101.999998, -73.026874) translate(0.894737, 0.483630)" fill-rule="nonzero">
                    <g id="g12" transform="translate(1.610526, 1.612072)">
                        <path d="M117.10226,93.211979 C119.197197,96.8704871 122.725681,95.6587462 122.725681,95.6587462 C122.725681,95.6587462 123.698797,93.0719079 124.267134,87.2057566 C124.267134,87.2057566 120.282692,88.4044218 116.904344,85.8457051 C116.904344,85.8457051 114.987639,89.5203339 117.10226,93.211979 Z M116.962323,81.2102814 C119.064239,79.6540944 121.489871,78.6361605 124.54325,78.9048392 C124.54325,78.9048392 125.124828,78.8810163 125.974113,77.9427903 C126.281544,77.6012102 126.963155,77.0407464 127.816018,77.1136479 C127.816018,77.1136479 128.195565,88.1307278 125.795881,96.4431089 C122.414671,108.152305 113.219102,108.12078 113.219102,108.12078 C113.219102,108.12078 118.795102,105.186988 120.380576,100.605479 C120.380576,100.605479 114.010408,98.7177426 112.511008,92.9390015 C111.127029,87.6005352 114.575166,82.9769333 116.962323,81.2102814 Z M55.4568618,31.7796729 L53.4891566,33.4049998 L56.8828933,35.4725718 L55.4568618,31.7796729 Z M45.8658199,31.6816947 L48.816304,29.5161445 L50.9804935,30.8455666 L53.0460829,29.2698557 L52.6035461,27.4976511 L55.7014828,25.6770844 L60.7184511,36.4570105 L56.7347249,39.9029042 L45.8658199,31.6816947 Z M59.5384722,23.3625071 L61.7515142,25.7748834 L61.9487142,21.6399185 L64.1617563,20.4084745 L70.455693,28.0887442 L68.0950194,30.1550624 L66.3259457,29.0719291 L65.9812931,32.2226345 L63.7185037,33.9452231 L56.5865565,25.0347632 L59.5384722,23.3625071 Z M70.8987666,16.3726162 L72.2764824,18.0448544 L70.3087772,19.5232678 L70.8987666,20.2125182 L72.128314,19.4233194 L73.6039139,21.0975458 L72.3743666,21.9840063 L73.0141034,22.7712349 L75.2752823,21.2458564 L76.7027455,23.1651178 L72.226914,26.5132124 L66.4733983,19.1782844 L70.8987666,16.3726162 Z M44.6851252,36.6529668 L51.0789145,44.9254043 L47.6846409,47.4350424 L38.930178,35.6699611 L45.1283778,32.0266781 L46.9471988,34.8324001 L44.6851252,36.6529668 Z M191.079995,86.5915572 C187.59589,82.9643949 181.989469,82.6656242 178.769132,84.6113953 C178.769132,84.6113953 183.036311,89.418236 181.980522,96.6494541 C181.561785,99.5314808 180.371785,103.318238 175.833322,104.996763 C174.576396,105.461936 173.311238,105.697119 172.072564,105.697119 C166.086954,105.697119 162.555428,100.450183 160.657691,97.6317434 C159.091901,95.3060607 156.597733,92.5332967 153.615217,92.5332967 C152.926628,92.5332967 152.234638,92.6746217 151.497196,92.9628243 C150.533923,93.3405866 145.842102,95.5313925 148.008975,101.626279 L148.729059,103.65749 L147.101712,105.06662 C146.576144,105.51997 134.030144,116.202097 115.890787,116.202097 C111.905092,116.202097 107.906692,115.674592 104.009576,114.634805 C87.7121241,110.284181 78.2264823,99.6231898 74.5503666,94.6519176 C78.0511138,102.22382 88.6125873,121.984958 107.256576,131.630881 C130.60366,143.708167 166.169448,142.967868 185.430627,121.404254 C201.675469,103.221514 194.513995,90.1669539 191.079995,86.5915572 Z M166.163901,91.144407 C164.154143,81.9099207 160.197796,80.8590288 157.146564,77.949776 C154.426028,75.3525487 148.655691,69.5485518 150.229891,60.7536238 C151.271365,54.9308194 154.929228,52.6183915 157.281491,51.7206465 C157.295449,51.5386615 157.298849,51.3602588 157.323364,51.1748705 C157.534522,49.5117495 157.935007,48.3573267 158.749396,47.0572801 C159.895733,45.233131 161.78667,44.1290407 163.934038,44.1870753 C165.744448,44.2340045 167.397564,45.1317496 167.397564,45.1317496 C166.74047,43.4643297 165.705975,41.9901793 164.035322,40.8567135 C157.117217,36.1582398 145.16407,36.9349003 138.031944,41.5878777 C129.17906,47.363753 124.785723,45.1317496 124.785723,45.1317496 C139.554428,40.3634194 148.083775,31.4459739 152.175228,25.9373445 C151.11407,22.2066514 152.054259,18.7362184 152.351312,17.5550711 L155.834522,19.0265705 C157.358259,19.6631599 157.861638,19.7695566 158.205575,19.7996486 C158.501196,19.8241879 159.152743,19.7136714 159.47288,19.1349376 C159.792301,18.5556663 159.336522,17.725091 158.967533,17.3381757 C157.672849,15.9807931 152.192586,14.1042337 146.24187,14.7934125 C140.122049,15.6169485 131.705976,17.9420042 119.080344,22.4199823 C96.9356081,30.2774008 82.6037137,26.9993417 82.6037137,26.9993417 C79.9692506,28.7849803 73.5572087,35.7489526 71.8606087,37.6114332 C72.0765982,37.8143752 72.2786298,38.0334379 72.4534613,38.2782937 C73.6767455,39.9854781 74.4322613,41.7850879 74.7581244,43.5832648 L76.9521981,46.4715606 C79.1954822,49.4067857 80.192219,53.9791595 77.0801454,57.0872345 C75.3690507,58.7965683 73.2565771,59.6991495 70.9721351,59.6991495 C70.1165877,59.6991495 69.0631246,59.5872001 67.9622404,59.4297544 C70.5129561,73.5914495 87.0670189,69.645097 87.0670189,69.645097 C83.6578926,73.1896853 73.0468508,74.1945436 67.538672,66.3321097 C62.1353563,58.6215689 65.5185352,48.7924071 65.5185352,48.7924071 L65.4261984,48.8379033 L65.4423036,48.7924071 C61.8354406,50.2359281 51.968104,66.7637868 65.9526615,81.2333877 L65.9608931,81.1577995 L66.0294299,81.2333877 C78.5824086,94.2207779 98.4903028,87.3381257 98.4903028,87.3381257 C90.8172188,95.7398872 75.5787771,90.4503204 75.5787771,90.4503204 C75.5787771,90.4503204 84.7734505,106.219072 104.897334,111.58978 C127.779692,117.698817 145.118617,102.682186 145.118617,102.682186 C143.877796,99.1893632 143.690617,92.6703228 150.42548,90.0297487 C156.786522,87.5346193 161.311206,92.8515913 163.34548,95.8706441 C165.375996,98.8898761 168.959954,104.207385 174.819764,102.041298 C179.838522,100.184907 178.790069,95.4138904 178.790069,95.4138904 C178.074996,97.1791093 168.070764,99.9044068 166.163901,91.144407 Z M166.677659,60.0804941 C170.192185,60.6192845 174.59608,59.6375326 176.414901,54.4199716 C179.596943,45.2961809 168.694217,41.3743678 168.694217,41.3743678 C168.694217,41.3743678 170.796848,44.4718747 170.686438,47.0852227 C170.513754,51.145495 168.177059,50.3339062 166.553827,48.4866507 C165.36687,47.1377046 162.696796,46.6920562 161.41607,48.735089 C160.874396,49.5957563 160.606691,50.2862606 160.444564,51.5737688 C159.892333,55.9222437 163.23847,59.5556751 166.677659,60.0804941 Z M163.107659,64.9468024 C167.022133,66.669391 168.533522,63.3144899 168.533522,63.3144899 C165.461354,63.1045623 163.481659,62.3594267 163.481659,62.3594267 C162.296849,63.5194022 163.107659,64.9468024 163.107659,64.9468024 Z M156.776143,28.1329867 C159.137354,30.8231768 165.356491,32.4094557 169.85809,29.1159924 C173.975311,26.1017758 174.342332,19.9864699 171.359638,15.9584032 C167.806459,11.1620589 157.890986,8.53825031 150.184438,11.4923187 C150.184438,11.4923187 158.831175,12.4739631 161.423049,15.3370748 C163.988438,18.1728888 162.744217,21.3214447 161.358091,22.2394302 C160.152343,23.04063 158.415301,23.5339241 154.611238,21.9281212 C154.611238,21.9281212 154.41547,25.440468 156.776143,28.1329867 Z M68.5221667,56.0377756 C70.0348088,56.6555574 72.5785456,57.1327308 74.8572613,54.8573805 C77.1765981,52.5413703 74.9971981,49.1597804 74.5399876,48.5077868 C73.8535455,50.9615396 72.3024298,53.2424425 69.9097246,55.0827124 C69.4553772,55.432532 68.9897562,55.7438411 68.5221667,56.0377756 Z M68.2446193,50.4248988 C68.2104404,50.5556557 68.1719667,50.7082652 68.1327772,50.8760998 C68.0853562,51.0629211 68.0425878,51.2468764 67.9881878,51.4428327 C67.9588404,51.5513789 67.9516825,51.6787326 67.9377246,51.799638 C67.8845773,52.0844374 67.8203351,52.4063145 67.7575246,52.7477155 C67.8364404,52.6896809 67.9141036,52.6441847 67.9930194,52.5847171 C72.2360403,49.3208085 72.9811771,44.4251246 69.8929035,40.1115779 C69.6992825,39.8421828 69.4301456,39.665034 69.1359562,39.5727876 C68.5257457,40.1828674 67.912672,40.7972459 67.2940509,41.4164607 C67.3407562,41.561189 67.4023141,41.7012602 67.4953667,41.8305842 C67.8636404,42.3469846 68.3453667,43.1551701 68.6186193,44.1276078 L68.6291772,44.1242045 C68.6451035,44.185105 68.6662193,44.2850535 68.6905562,44.407571 C68.8038299,44.900865 68.8605562,45.4305203 68.8185035,45.9832819 C68.8206509,47.0223519 68.6962825,48.4866507 68.2446193,50.4248988 Z M86.1561768,18.0623364 C84.6680505,17.2297191 83.2670716,16.0157751 82.0921032,14.4855604 C80.8457348,12.8657862 79.9887559,11.039613 79.5959664,9.23582973 L12.373226,40.4698162 C12.373226,40.4698162 6.63783773,42.2085255 9.88963344,51.3903508 C13.1379576,60.5576675 21.1249153,69.0239119 26.993852,71.2487505 C32.0770308,73.1742811 33.7657571,70.3148234 36.2332623,67.993977 C37.8564938,66.4650161 79.8516822,24.3804411 86.1561768,18.0623364 Z M92.6752293,15.5280875 C94.6925029,13.9726886 94.3430187,10.1300282 91.8930503,6.94086598 C89.4436188,3.75379944 85.8235136,2.42650883 83.8060611,3.97981195 C81.7880716,5.53309715 82.1375558,9.37787119 84.5862716,12.5649198 C87.0355241,15.7533835 90.6570609,17.0792949 92.6752293,15.5280875 Z M26.2494309,6.21179742 C14.4458123,8.37731178 14.9190386,19.5933034 14.9190386,19.5933034 C21.1605258,13.9062175 27.7914204,17.0792949 32.691536,22.3968759 C33.8042307,23.6037805 34.8185044,24.8773175 35.7314938,26.1422567 L53.0215671,18.1098388 C45.8838936,13.5004053 37.1217359,4.21418932 26.2494309,6.21179742 Z M27.9025467,30.6076964 L33.2171044,28.0258734 C32.9130729,27.6199895 32.4950518,27.1043055 32.0575255,26.5760833 C30.5273466,24.7290069 27.8731993,24.1461532 25.786673,25.330668 C25.5356099,25.471993 25.3434204,25.6154674 25.2448204,25.7553594 C24.8835257,26.229846 24.9533152,26.6531045 25.096652,27.0029241 C25.6719678,28.39665 28.6881256,27.2316592 28.6881256,27.2316592 C28.6881256,27.2316592 28.4093256,29.264303 27.9025467,30.6076964 Z M20.1510837,32.1189245 C23.6489678,32.6297722 24.7387573,29.9465678 24.7387573,29.9465678 C21.8553784,29.607137 21.41141,27.0799453 21.9917363,25.129159 C22.80881,22.3780684 26.8009467,21.4068845 26.8009467,21.4068845 C23.0548626,18.7689972 19.2409574,19.4917429 16.759548,22.3653509 C13.9474081,25.6258563 16.0856859,31.5263984 20.1510837,32.1189245 Z M3.49647044,45.6354325 C2.3668652,51.9445454 6.95588088,60.678752 11.2820766,65.7913491 C18.6098101,74.4526543 24.3243152,77.767791 29.9450519,76.6658501 C31.2578097,76.4075604 32.1174729,75.6205109 32.6754308,74.6038308 C31.8442203,74.8830775 30.9172729,75.0487627 29.8666729,75.0321046 C28.6127888,75.0097147 27.3089783,74.7367372 25.8809783,74.1945436 C18.5922732,71.4343179 10.2664071,61.880104 6.92372404,52.4433921 C5.39078934,48.1173071 5.34814618,44.4670385 6.79790615,41.5962963 C6.89716825,41.3989071 7.01110404,41.2274901 7.11945666,41.045505 C5.63405039,41.603282 3.99485674,42.8506676 3.49647044,45.6354325 Z M55.5617249,63.6082453 C55.6107565,62.0710449 55.7931039,60.5191569 56.1252302,58.9644029 C56.2286618,58.4782736 56.3614407,57.9968014 56.4927881,57.5160457 C55.7392407,57.2410978 55.2290618,56.9786883 55.0522618,56.8794563 C54.3600934,56.4875437 53.8085776,55.9417677 53.4150723,55.3085816 C52.7943039,55.9292294 52.1708513,56.5520266 51.5710198,57.1522547 C52.9104408,59.3787054 54.2316092,61.504312 55.5617249,63.6082453 Z M57.492388,54.5319211 L57.492388,54.5299508 L57.5092091,54.5369364 C57.8894722,53.6013973 58.3019459,52.6932633 58.7611248,51.8501496 L58.6492827,51.811639 C58.2956828,51.6876886 58.0753985,51.5771721 58.0405038,51.5583646 C57.8168196,51.4358471 57.5770301,51.3847981 57.3372407,51.3847981 C57.1953354,51.5246902 57.0577249,51.6633284 56.9170723,51.8046533 C56.5591775,52.1614586 56.2139881,52.507875 55.8594933,52.8610979 L55.8804302,53.0185436 C55.9301775,53.4699238 56.1726512,53.8931823 56.5969354,54.1346349 C56.6481144,54.1625775 56.9709354,54.3361439 57.492388,54.5319211 Z M187.778416,123.504784 C176.764385,135.833195 160.064838,142.622884 140.756775,142.622884 C128.434639,142.622884 116.025713,139.714348 105.813187,134.429618 C86.427461,124.40038 75.494135,104.19628 71.6943666,95.9748915 L67.9105246,87.7907597 L63.6905879,83.4232981 C60.011609,79.6184497 57.539988,75.3097393 56.3544617,70.7561729 L49.2776303,59.4451586 C49.2776303,59.4451586 36.9435043,71.7309392 36.6534307,72.0094694 C36.4751991,73.4590805 36.0908202,74.8970488 35.4190517,76.1444344 C34.340357,78.0945042 32.6586097,79.3442184 30.549715,79.7569088 C29.659094,79.9311917 28.754694,80.0200348 27.8612098,80.0200348 C21.8693363,80.0200348 16.0150912,76.2599662 8.87956504,67.8273962 C6.35123563,64.8396892 4.00883253,61.0403935 2.45073783,57.4040962 C0.485813462,52.8177511 -0.223684205,48.5545369 0.397039464,45.0792677 C1.00098682,41.7082458 2.53462836,39.8294653 6.01361564,38.0964878 C7.28580613,37.4611523 10.3020534,37.5926257 13.5580544,36.4466216 C15.8186607,35.648825 17.5508175,34.5909475 17.5508175,34.5909475 C15.5124996,33.6373173 13.7754576,31.8273186 12.9681007,29.455244 C11.6791071,25.6770844 11.7748797,19.7276427 11.7748797,19.7276427 C11.5707723,14.8997734 14.2151312,5.21614586 25.6818099,3.11219474 C26.8700204,2.89318579 28.0829256,2.78334995 29.2858098,2.78334995 C37.5957675,2.78334995 44.5523463,7.99039656 50.1430198,12.1766075 C51.7696513,13.3940443 53.3060934,14.5429323 54.7271144,15.4616163 L56.397767,16.5405404 L78.2692507,6.3776259 L79.4386717,5.83536067 C79.7049454,4.0392795 80.5515454,2.51046197 81.8872085,1.48333023 C82.9945348,0.631814044 84.3652716,0.178419438 85.8492821,0.178419438 C88.8675873,0.178419438 92.0614398,1.98920741 94.3891871,5.02022537 C97.9520291,9.65914195 98.0415028,15.3706597 94.5939029,18.0238617 C93.4860398,18.8761104 92.1160187,19.3273115 90.6320083,19.3273115 C90.2356398,19.3273115 89.8356925,19.2959657 89.4352083,19.2343487 L88.3838925,20.2893603 C87.478061,21.1969569 86.1638715,22.5124077 84.5463663,24.1341523 C85.7954189,24.3070022 87.957461,24.5274979 90.8870083,24.5274979 C96.7434186,24.5274979 106.204545,23.6458735 118.029744,19.4512619 C126.110292,16.582508 132.508376,15.2657138 137.766386,13.0665967 C143.025112,10.868196 149.059038,8.54874669 149.059038,8.54874669 C151.575396,7.58458428 154.331544,7.09480095 157.249996,7.09480095 C164.215701,7.09480095 170.744417,9.83756251 173.886554,14.0811453 C175.956975,16.8763887 176.841153,20.458807 176.319164,23.9138357 C175.836722,27.0881848 174.202396,29.840171 171.716101,31.6593048 C169.517733,33.268511 166.85088,34.1186104 164.002396,34.1186104 C160.257207,34.1186104 156.493049,32.584276 154.409922,30.2109476 C154.121996,29.8820849 153.863238,29.5476695 153.629175,29.2082387 C152.305859,30.8631203 150.591901,32.7906212 148.452944,34.8078607 C156.435607,33.7213241 169.758775,38.4092298 169.758775,38.4092298 C174.544901,40.1303855 182.715995,45.909843 179.387574,55.4590417 C178.094501,59.1617922 175.571164,61.7036716 172.229859,62.7812523 L171.402943,64.6109541 C170.737438,66.0886869 168.683838,68.5900854 165.213154,68.5900854 C164.119249,68.5900854 161.908891,68.554978 160.385154,66.3426778 C159.388954,64.8991568 159.298049,62.4817651 160.856859,60.5682355 C159.29107,59.1499703 158.074764,57.2502329 157.53667,55.0545907 C155.821996,55.957172 153.964701,57.7471093 153.328544,61.3097887 C152.157691,67.8519355 155.91487,72.4194731 159.319164,75.6679775 C159.841154,76.1668243 160.445817,76.6370119 161.085554,77.1353213 C163.901112,79.3266647 167.406691,82.054828 169.239469,90.4746806 C169.578575,92.0294346 170.394933,94.1011263 173.571964,94.0970066 L173.636206,94.0962901 C176.935638,94.058496 178.97528,90.3802848 177.35849,87.5011241 C176.752396,86.421394 176.007975,85.3825031 174.716154,84.2259309 C174.716154,84.2259309 175.79968,82.9706641 177.369048,81.9812101 C179.328522,80.7442134 182.402838,80.2607709 184.287153,80.4846698 C186.940943,80.7981283 190.326627,81.6489441 193.132521,84.2810996 C196.1281,87.0930907 198.370311,91.6018772 198.891048,96.5871206 C199.535258,102.706009 197.718942,112.377725 187.778416,123.504784 Z M123.791671,59.6131724 C117.683839,60.7976871 109.650713,57.4230828 109.650713,57.4230828 C112.086724,57.1033552 113.463902,56.9808377 116.291271,57.3482111 C119.118818,57.7189876 121.652713,58.2101323 127.012007,54.8133172 C132.373449,51.4163231 135.225512,53.2633995 135.225512,53.2633995 C131.80726,56.7829111 130.135355,58.3817284 123.791671,59.6131724 Z M123.208123,68.64812 C122.384607,69.0749609 121.866018,69.3617306 121.866018,69.3617306 C121.866018,69.3617306 122.059639,70.1489591 122.910892,70.1588107 C123.763755,70.1670501 124.892734,69.2127035 125.123397,68.1757829 C125.123397,68.1757829 124.030744,68.2212791 123.208123,68.64812 Z M123.337323,66.377606 C123.337323,66.377606 122.60686,66.346081 122.432207,66.3566491 C122.216934,66.3684709 121.698165,66.3301394 121.262786,66.6645548 C121.262786,66.6645548 121.254376,67.2382734 122.133007,67.3326692 C123.012355,67.4236617 123.550628,66.9058283 123.337323,66.377606 Z M119.457923,69.4262135 C118.430229,69.0378832 116.577944,69.4806657 116.217902,69.5275949 C115.855892,69.5752406 115.005176,69.7781825 114.401945,69.7326863 C114.401945,69.7326863 114.272566,71.7896903 116.355692,72.0848786 C118.438639,72.3823954 120.17085,71.0948872 120.346934,70.8534346 C120.346934,70.8534346 120.485439,69.8145437 119.457923,69.4262135 Z M118.245018,66.237714 C117.522965,65.812306 116.551281,65.4415295 114.884208,65.2735157 C113.217134,65.1076514 112.615871,64.8851855 112.615871,64.8851855 C112.615871,64.8851855 112.079745,66.8323894 113.699397,67.7224324 C115.319766,68.6096094 117.626397,68.3507822 119.17966,67.5635537 C119.17966,67.5635537 118.966534,66.6645548 118.245018,66.237714 Z M108.505629,69.4457374 C107.969503,69.4457374 106.978313,69.3617306 106.718303,69.3246529 C106.718303,69.3246529 106.034724,71.7029966 108.74685,72.2521758 C111.032724,72.7168108 112.92205,72.0485174 112.92205,72.0485174 C112.92205,72.0485174 112.60746,70.5197357 112.032324,69.676622 C112.032324,69.676622 109.043903,69.4457374 108.505629,69.4457374 Z M109.949197,64.2471632 C108.312008,62.6798708 106.181461,62.5587863 104.580776,63.0975766 C104.580776,63.0975766 105.450997,66.0817012 106.071766,67.276784 C106.071766,67.276784 108.913271,68.1757829 111.134008,67.86931 C111.134008,67.86931 111.588355,65.812306 109.949197,64.2471632 Z M103.850313,68.3228397 C102.768934,67.8469202 102.235492,67.8678771 101.298166,67.547433 C101.298166,67.547433 101.001829,70.4518495 105.166471,70.846449 C105.166471,70.846449 105.558008,69.0713785 103.850313,68.3228397 Z M102.79345,63.6908192 C102.79345,63.6908192 101.035292,63.4893102 100.414703,64.8851855 C100.414703,64.8851855 100.515271,65.5590316 101.263271,65.9613332 C102.090903,66.4055486 103.467903,66.5839512 103.646134,66.591116 C103.646134,66.591116 103.319018,64.7486967 102.79345,63.6908192 Z M132.847481,63.9580649 C132.847481,63.9580649 131.747849,71.2929929 120.720934,74.4463851 C109.694018,77.6012102 101.101682,75.4664685 97.4955344,70.9641302 C93.0639029,65.4261252 97.4955344,59.265323 104.383576,59.5956187 C109.652145,59.8474602 113.285492,63.07859 117.609039,63.8133366 C122.054629,64.5668908 125.666502,64.2170711 129.696218,61.8695359 C133.726112,59.5221798 134.972481,58.4956482 135.594502,57.2131552 C136.218133,55.9292294 136.510354,54.8292588 137.939786,54.424987 C137.939786,54.424987 138.451397,59.4858187 132.847481,63.9580649 Z M147.835754,77.9266696 C147.835754,77.9266696 141.471133,80.9548575 138.544449,75.0222531 C138.544449,75.0222531 137.880376,74.903318 137.371449,75.0691823 C136.863239,75.2355839 136.611639,75.3251435 136.454344,75.3181579 C136.454344,75.3181579 138.412923,80.1998704 148.304059,82.7684386 C148.304059,82.7684386 149.557407,80.460847 147.835754,77.9266696 Z M142.811807,84.2517241 C137.97826,82.1569259 130.531544,75.0201036 130.531544,75.0201036 C130.73787,75.0159839 131.094334,74.9676217 131.919102,74.7738148 C132.742618,74.578575 133.48006,74.7745313 133.48006,74.7745313 C133.48006,74.7745313 134.668449,73.3093369 137.967702,72.28997 C141.312586,71.2564526 144.878828,71.9254626 147.335954,73.286947 C150.890386,75.2565409 151.624428,78.5430185 152.22408,80.5643778 C152.825165,82.5857371 153.42428,83.6780055 153.42428,83.6780055 C154.352659,83.5696384 154.535722,83.2708678 156.533491,82.7643189 C158.230091,82.3324627 158.771764,83.0706126 158.771764,83.0706126 C154.013554,87.7110517 147.386954,86.2340354 142.811807,84.2517241 Z M42.54402,51.7122279 C42.54402,51.7122279 36.7178517,44.3620747 34.8995675,43.4679121 C33.4386413,42.7507191 33.2736518,44.6259172 33.939157,45.5145271 C34.4613255,46.2091511 40.1359253,53.7776505 40.1359253,53.7776505 L37.3028306,56.309141 C37.3028306,56.309141 31.5435887,49.2529223 30.400115,47.7275439 C29.2557466,46.1987622 27.2370414,42.5862877 31.0675887,39.8540046 C34.8478518,37.1566498 38.2165359,40.4262902 38.6463675,40.9511093 C39.0747674,41.4759283 45.413441,49.1094479 45.413441,49.1094479 L42.54402,51.7122279 Z M85.5116084,6.2502722 C85.6823242,5.27421628 86.1638715,4.58643468 86.3820084,4.43808822 C86.3820084,4.43808822 86.3043452,5.37706648 86.525882,6.16282625 C87.4556926,6.45668908 88.6845241,7.28721071 89.7098925,8.62220344 C91.0750819,10.3994055 91.3302609,11.9771942 91.2667346,12.7538368 C91.8531451,13.4584197 92.4171872,13.8677428 92.4171872,13.8677428 C91.4608925,13.8782391 90.1517135,13.3814522 89.1800293,12.6782843 C88.4649557,12.2430786 87.6947662,11.5832754 87.0138715,10.696779 C85.4257137,8.629207 85.3403558,6.82891653 85.5116084,6.2502722 Z M32.9655044,54.2311801 L35.9467675,57.4861328 L27.7123256,65.1006658 L24.6170731,61.1055929 L26.9330099,59.1394023 L19.0564627,48.1158741 L22.8193679,45.5145271 L30.8090098,55.9258261 L32.9655044,54.2311801 Z" id="path14" fill="#231F20"></path>
                        <path d="M32.691536,22.3968759 C27.7914204,17.0792949 21.15981,13.9062175 14.9204344,19.5933034 C14.9204344,19.5933034 14.4458123,8.37870891 26.2494309,6.21179742 C37.1217359,4.21418932 45.8846094,13.5004053 53.0208513,18.1098388 L35.7314938,26.1422567 C34.8177886,24.8773175 33.8042307,23.6037805 32.691536,22.3968759 M55.5610091,63.6082453 C54.2308934,61.504312 52.9118724,59.3787054 51.5710198,57.1502844 C52.1715671,56.5520266 52.7943039,55.9292294 53.4157881,55.3085816 C53.8085776,55.9417677 54.3600934,56.4875437 55.0522618,56.8794563 C55.228346,56.9786883 55.7392407,57.2432473 56.4927881,57.5160457 C56.3614407,57.9968014 56.2293775,58.4782736 56.1245144,58.9658358 C55.7923881,60.5191569 55.6107565,62.0688955 55.5610091,63.6082453 M156.533491,82.7643189 C154.535722,83.2708678 154.352659,83.568922 153.426428,83.6780055 C153.426428,83.6780055 152.825165,82.5851998 152.225512,80.5643778 C151.624428,78.5430185 150.888954,75.2565409 147.337923,73.286947 C144.878828,71.9254626 141.312586,71.2559153 137.967702,72.28997 C134.668449,73.3093369 133.48006,74.7738148 133.48006,74.7738148 C133.48006,74.7738148 132.742618,74.5778585 131.919102,74.7723819 C131.094334,74.9676217 130.73787,75.0167004 130.533691,75.0215366 C130.533691,75.0215366 137.97826,82.1569259 142.811807,84.2510076 C147.384807,86.2347519 154.011407,87.7110517 158.770333,83.0720455 C158.770333,83.0720455 158.230091,82.3324627 156.533491,82.7643189 M137.939786,54.4269573 C136.510354,54.8272885 136.216702,55.9292294 135.594502,57.2117223 C134.972481,58.4956482 133.726112,59.5221798 129.696218,61.8695359 C125.666502,64.2170711 122.054629,64.5668908 117.606892,63.8133366 C113.285492,63.07859 109.654113,59.8496096 104.383576,59.5956187 C97.4955344,59.265323 93.0639029,65.4261252 97.4955344,70.9641302 C101.100429,75.4664685 109.696166,77.6004937 120.720934,74.4463851 C131.747849,71.2929929 132.847481,63.9580649 132.847481,63.9580649 C138.451397,59.4858187 137.939786,54.4269573 137.939786,54.4269573 M127.012007,54.8133172 C121.650744,58.2101323 119.118818,57.7189876 116.291271,57.3482111 C113.461755,56.9786883 112.086724,57.1033552 109.650713,57.4230828 C109.650713,57.4230828 117.682408,60.7976871 123.789702,59.6131724 C130.135355,58.3817284 131.80726,56.7829111 135.225512,53.2633995 C135.225512,53.2633995 132.372197,51.4163231 127.012007,54.8133172 M112.513155,92.9390015 C114.010408,98.7177426 120.380576,100.605479 120.380576,100.605479 C118.795102,105.186988 113.219102,108.121496 113.219102,108.121496 C113.219102,108.121496 122.414671,108.152305 125.795881,96.4423924 C128.195565,88.1314442 127.816018,77.1136479 127.816018,77.1136479 C126.963155,77.0407464 126.281544,77.6012102 125.974113,77.9413574 C125.124828,78.8817328 124.54325,78.9048392 124.54325,78.9048392 C121.489871,78.6361605 119.064239,79.6540944 116.962323,81.2102814 C114.576597,82.9769333 111.125597,87.6005352 112.513155,92.9390015 M174.819764,102.041298 C168.959954,104.207385 165.375996,98.8898761 163.343333,95.8706441 C161.312638,92.8515913 156.786522,87.5346193 150.42548,90.0297487 C143.690617,92.6696063 143.877796,99.1900797 145.118617,102.683619 C145.118617,102.683619 127.779692,117.698817 104.897334,111.58978 C84.7741663,106.218356 75.5787771,90.4503204 75.5787771,90.4503204 C75.5787771,90.4503204 90.816503,95.7398872 98.4903028,87.3381257 C98.4903028,87.3381257 78.5824086,94.2207779 66.0294299,81.2333877 L65.9596405,81.1585159 L65.9519457,81.2333877 C51.968104,66.7637868 61.8361563,50.2359281 65.4423036,48.7924071 L65.4261984,48.8400528 L65.519251,48.7924071 C65.519251,48.7924071 62.1339248,58.6230018 67.5379562,66.3335427 C73.0468508,74.1945436 83.6578926,73.1896853 87.0670189,69.645097 C87.0670189,69.645097 70.5129561,73.5919869 67.9629562,59.4297544 C69.0625877,59.5872001 70.1165877,59.7005825 70.9721351,59.7005825 C73.2565771,59.7005825 75.368335,58.7965683 77.0808612,57.0872345 C80.1929348,53.9791595 79.1954822,49.4067857 76.9521981,46.4715606 L74.7593771,43.5832648 C74.4329771,41.7850879 73.6767455,39.9854781 72.4534613,38.2782937 C72.2786298,38.0334379 72.0758824,37.8143752 71.8598929,37.6114332 C73.5579245,35.7489526 79.9692506,28.7849803 82.6037137,26.9993417 C82.6037137,26.9993417 96.9356081,30.2774008 119.080344,22.4199823 C131.705976,17.9420042 140.122049,15.6169485 146.244017,14.7934125 C152.192586,14.102138 157.67088,15.9807931 158.967533,17.3381757 C159.336522,17.7229953 159.792301,18.5556663 159.47288,19.1349376 C159.152743,19.7136714 158.501196,19.8241879 158.205575,19.7996486 C157.859491,19.7695566 157.356291,19.6631599 155.834522,19.0265705 L152.351312,17.5550711 C152.056407,18.7362184 151.11407,22.2079052 152.17648,25.9373445 C148.082523,31.4459739 139.55246,40.3634194 124.785723,45.1317496 C124.785723,45.1317496 129.17906,47.363753 138.031944,41.5878777 C145.16407,36.9327509 157.117217,36.1582398 164.035322,40.8567135 C165.705975,41.9916122 166.742617,43.4643297 167.399712,45.1317496 C167.399712,45.1317496 165.744448,44.2340045 163.936006,44.1870753 C161.78667,44.1290407 159.895733,45.233131 158.749396,47.0572801 C157.935007,48.3573267 157.533091,49.5117495 157.321217,51.1748705 C157.298849,51.3602588 157.295449,51.5386615 157.281491,51.7206465 C154.929228,52.6183915 151.271365,54.9308194 150.229891,60.7536238 C148.655691,69.5485518 154.426028,75.3538026 157.146564,77.949776 C160.197796,80.8590288 164.154143,81.9099207 166.163901,91.144407 C168.070764,99.9044068 178.074996,97.1791093 178.790069,95.4138904 C178.790069,95.4138904 179.838522,100.184907 174.819764,102.041298" id="path16" fill="#136247"></path>
                        <path d="M185.432416,121.404971 C174.198996,133.978237 157.421249,139.472896 140.756775,139.472896 C128.843534,139.472896 116.990418,136.665741 107.256576,131.630881 C88.6125873,121.984958 78.0511138,102.22382 74.5503666,94.6519176 C78.2252296,99.6231898 87.7121241,110.283464 104.009576,114.634805 C107.906692,115.674592 111.905092,116.202097 115.890787,116.202097 C134.030144,116.202097 146.576144,105.51997 147.101712,105.06662 L148.729059,103.65749 L148.007007,101.626279 C145.842102,95.5313925 150.533923,93.3405866 151.497196,92.9628243 C152.234638,92.6746217 152.926628,92.5332967 153.615217,92.5332967 C156.597733,92.5332967 159.091901,95.3060607 160.657691,97.6317434 C162.555428,100.450183 166.086954,105.697119 172.072564,105.697119 C173.311238,105.697119 174.576396,105.461936 175.833322,104.996763 C180.373574,103.318238 181.561785,99.5314808 181.980522,96.6480211 C183.036311,89.418236 178.769132,84.6113953 178.769132,84.6113953 C180.042522,83.8417204 181.690627,83.4232981 183.431785,83.4232981 C186.092732,83.4232981 188.971995,84.3993182 191.079995,86.5915572 C191.294732,86.8154561 191.523785,87.0771491 191.759995,87.3723374 C191.997995,87.6682422 192.243153,88.0006873 192.488311,88.3680606 C195.938416,93.5107497 199.644416,105.494177 185.432416,121.404971 Z M91.2667346,12.7538368 C91.3302609,11.9771942 91.0750819,10.3994055 89.7098925,8.62220344 C88.6845241,7.28721071 87.4556926,6.45668908 86.5251663,6.16282625 C86.305061,5.37706648 86.3812926,4.43808822 86.3812926,4.43808822 C86.1638715,4.58643468 85.6816084,5.27421628 85.5116084,6.2502722 C85.33964,6.82891653 85.4257137,8.629207 87.0145873,10.696779 C87.695482,11.5832754 88.4656715,12.2430786 89.1800293,12.6782843 C90.1517135,13.3814522 91.4608925,13.8782391 92.417903,13.8677428 C92.417903,13.8677428 91.8531451,13.4584197 91.2667346,12.7538368 Z M92.6745135,15.5280875 C90.6570609,17.0792949 87.0355241,15.7533835 84.5862716,12.5649198 C82.1375558,9.37787119 81.7880716,5.53309715 83.8053453,3.97981195 C85.8235136,2.42650883 89.4450504,3.75379944 91.8935872,6.94086598 C94.3437345,10.1300282 94.6932187,13.9726886 92.6745135,15.5280875 Z M24.7387573,29.9465678 C24.7387573,29.9465678 23.6489678,32.6297722 20.1525153,32.1189245 C16.084988,31.5263984 13.9467102,25.6258563 16.7602459,22.3653509 C19.2409574,19.4917429 23.0548626,18.7689972 26.8014835,21.4068845 C26.8014835,21.4068845 22.80881,22.3780684 21.9917363,25.129159 C21.41141,27.0799453 21.8553784,29.607137 24.7387573,29.9465678 Z M53.4891566,33.4049998 L55.4568618,31.7796729 L56.8828933,35.4725718 L53.4891566,33.4049998 Z M75.2767139,21.2458564 L73.0141034,22.7712349 L72.3743666,21.9840063 L73.6039139,21.0975458 L72.1290298,19.4233194 L70.8987666,20.2125182 L70.3087772,19.5232678 L72.2764824,18.0448544 L70.8987666,16.3726162 L66.4726825,19.1782844 L72.226914,26.5132124 L76.7027455,23.1651178 L75.2767139,21.2458564 Z M61.9487142,21.6399185 L61.7515142,25.7748834 L59.5384722,23.3625071 L56.5865565,25.0347632 L63.7192195,33.9452231 L65.9812931,32.2226345 L66.3259457,29.0719291 L68.0957351,30.1550624 L70.455693,28.0887442 L64.1617563,20.4084745 L61.9487142,21.6399185 Z M52.6035461,27.4976511 L53.0460829,29.2698557 L50.9804935,30.8455666 L48.816304,29.5161445 L45.8658199,31.6816947 L56.7354407,39.9029042 L60.7184511,36.4570105 L55.7014828,25.6770844 L52.6035461,27.4976511 Z M38.930178,35.6699611 L47.6846409,47.4350424 L51.0789145,44.9254043 L44.6851252,36.6529668 L46.9471988,34.8324001 L45.1283778,32.0266781 L38.930178,35.6699611 Z M31.0675887,39.8540046 C27.2370414,42.5862877 29.2571782,46.1987622 30.400115,47.7275439 C31.5443045,49.2529223 37.3035464,56.309141 37.3035464,56.309141 L40.1359253,53.7776505 C40.1359253,53.7776505 34.4613255,46.2091511 33.939157,45.5145271 C33.2743676,44.6278875 33.4393571,42.7507191 34.8995675,43.4679121 C36.7178517,44.3620747 42.5454516,51.7122279 42.5454516,51.7122279 L45.413441,49.1094479 C45.413441,49.1094479 39.0735148,41.4759283 38.6463675,40.9511093 C38.2165359,40.4262902 34.8492833,37.1566498 31.0675887,39.8540046 Z M19.0557469,48.1158741 L26.9330099,59.1394023 L24.6170731,61.1055929 L27.7123256,65.1006658 L35.9467675,57.4861328 L32.9647886,54.2311801 L30.8075782,55.9258261 L22.8179363,45.5145271 L19.0557469,48.1158741 Z M86.1561768,18.0623364 C79.8516822,24.3804411 37.8564938,66.4650161 36.2320096,67.993977 C33.7657571,70.3148234 32.0770308,73.1742811 26.9945677,71.2482132 C21.1249153,69.0239119 13.1379576,60.5576675 9.88963344,51.3903508 C6.63712194,42.2085255 12.373226,40.4698162 12.373226,40.4698162 L79.5959664,9.23582973 C79.9894717,11.039613 80.8471664,12.8657862 82.0906716,14.4855604 C83.2670716,16.0157751 84.6680505,17.2297191 86.1561768,18.0623364 Z M68.629893,44.1242045 L68.6193351,44.1276078 C68.3453667,43.1551701 67.8636404,42.3469846 67.4953667,41.8327336 C67.4023141,41.7012602 67.3407562,41.561189 67.2940509,41.4164607 C67.912672,40.7972459 68.5257457,40.1828674 69.1359562,39.5727876 C69.4301456,39.665034 69.6992825,39.8421828 69.8929035,40.1115779 C72.9811771,44.4251246 72.2360403,49.3208085 67.9930194,52.5847171 C67.9141036,52.6441847 67.8364404,52.6896809 67.7587773,52.7477155 C67.8203351,52.4063145 67.8845773,52.0844374 67.9384404,51.7976677 C67.9516825,51.6787326 67.9588404,51.5513789 67.9881878,51.4428327 C68.041872,51.2468764 68.085893,51.0629211 68.1327772,50.8760998 C68.1719667,50.7082652 68.2104404,50.5556557 68.2446193,50.4248988 C68.6962825,48.4866507 68.8206509,47.0223519 68.8185035,45.9832819 C68.8598404,45.4290873 68.8045456,44.900865 68.6898404,44.407571 C68.6662193,44.2850535 68.6465351,44.185105 68.629893,44.1242045 Z M6.92372404,52.4433921 C10.2664071,61.880104 18.5937048,71.4343179 25.8809783,74.1945436 C27.3089783,74.7367372 28.6127888,75.0097147 29.8659571,75.0321046 L29.8666729,75.0321046 C30.9172729,75.0487627 31.8442203,74.8830775 32.6754308,74.6038308 C32.116936,75.6205109 31.2578097,76.4075604 29.9450519,76.6658501 C24.3243152,77.767791 18.6098101,74.4526543 11.2820766,65.7913491 C6.95588088,60.678752 2.3668652,51.9445454 3.49647044,45.6354325 C3.99485674,42.8506676 5.63405039,41.603282 7.11945666,41.045505 C7.01110404,41.2274901 6.89716825,41.3989071 6.79790615,41.5962963 C5.34814618,44.4670385 5.39009144,48.1173071 6.92372404,52.4433921 Z M55.8804302,53.0185436 L55.8602091,52.8610979 C56.2147039,52.507875 56.5606091,52.1614586 56.9177881,51.8046533 C57.0577249,51.6633284 57.1953354,51.5246902 57.3365249,51.3847981 C57.5755986,51.3847981 57.8168196,51.4358471 58.0405038,51.5583646 C58.0753985,51.5771721 58.294967,51.6876886 58.6492827,51.811639 L58.7604091,51.8501496 C58.3026617,52.6932633 57.8894722,53.5992478 57.5092091,54.5369364 L57.492388,54.5299508 L57.492388,54.5319211 C56.9702196,54.3361439 56.6481144,54.1625775 56.5969354,54.1346349 C56.1712196,53.8931823 55.9301775,53.4699238 55.8804302,53.0185436 Z M100.414703,64.8851855 C101.03404,63.4893102 102.79345,63.6908192 102.79345,63.6908192 C103.319018,64.7486967 103.646134,66.591116 103.646134,66.591116 C103.465755,66.5839512 102.090903,66.4055486 101.263271,65.9613332 C100.514555,65.5590316 100.414703,64.8851855 100.414703,64.8851855 Z M108.74685,72.2521758 C106.034724,71.7029966 106.718303,69.3246529 106.718303,69.3246529 C106.978313,69.3617306 107.969503,69.4457374 108.505629,69.4457374 C109.043903,69.4457374 112.032324,69.676622 112.032324,69.676622 C112.60746,70.5197357 112.92205,72.0485174 112.92205,72.0485174 C112.92205,72.0485174 111.032724,72.7168108 108.74685,72.2521758 Z M106.071766,67.276784 C105.450997,66.0817012 104.580776,63.0975766 104.580776,63.0975766 C106.183608,62.5587863 108.310039,62.6798708 109.949197,64.2471632 C111.588355,65.812306 111.134008,67.86931 111.134008,67.86931 C108.913271,68.1757829 106.071766,67.276784 106.071766,67.276784 Z M116.355692,72.0848786 C114.272566,71.7896903 114.401945,69.7326863 114.401945,69.7326863 C115.005176,69.7781825 115.855892,69.5752406 116.217902,69.5275949 C116.577944,69.4806657 118.430229,69.0378832 119.459176,69.4262135 C120.485439,69.8145437 120.346934,70.8534346 120.346934,70.8534346 C120.17085,71.0948872 118.438639,72.3823954 116.355692,72.0848786 Z M136.454344,75.3181579 C136.61307,75.3251435 136.863239,75.2363004 137.371449,75.0691823 C137.880376,74.9026015 138.545881,75.0222531 138.545881,75.0222531 C141.471133,80.9548575 147.835754,77.9266696 147.835754,77.9266696 C149.558838,80.4622799 148.304059,82.7684386 148.304059,82.7684386 C138.412923,80.1998704 136.454344,75.3181579 136.454344,75.3181579 Z M122.133007,67.3326692 C121.254376,67.2382734 121.262786,66.6645548 121.262786,66.6645548 C121.698165,66.3301394 122.216934,66.3684709 122.433639,66.3566491 C122.608292,66.346081 123.337323,66.377606 123.337323,66.377606 C123.550628,66.9058283 123.012355,67.4236617 122.133007,67.3326692 Z M124.267134,87.2057566 C123.698797,93.0719079 122.725681,95.6587462 122.725681,95.6587462 C122.725681,95.6587462 119.197197,96.8704871 117.10226,93.211979 C114.987639,89.5203339 116.904344,85.8457051 116.904344,85.8457051 C120.282692,88.4044218 124.267134,87.2057566 124.267134,87.2057566 Z M113.699397,67.7224324 C112.079745,66.8323894 112.615871,64.8851855 112.615871,64.8851855 C112.615871,64.8851855 113.217134,65.1076514 114.884208,65.2735157 C116.550029,65.4415295 117.522965,65.812306 118.24645,66.237714 C118.966534,66.6645548 119.17966,67.5635537 119.17966,67.5635537 C117.624429,68.3507822 115.319766,68.6096094 113.699397,67.7224324 Z M122.910892,70.1588107 C122.059639,70.1489591 121.866018,69.3617306 121.866018,69.3617306 C121.866018,69.3617306 122.383176,69.0749609 123.208123,68.64812 C124.030744,68.2212791 125.123397,68.1757829 125.123397,68.1757829 C124.892734,69.2127035 123.763755,70.1670501 122.910892,70.1588107 Z M105.166471,70.846449 C101.003976,70.4518495 101.298882,67.547433 101.298882,67.547433 C102.235492,67.8678771 102.768934,67.8469202 103.850313,68.3228397 C105.555861,69.0713785 105.166471,70.846449 105.166471,70.846449 Z M74.5399876,48.5077868 C74.9971981,49.1597804 77.1765981,52.5413703 74.8560087,54.8573805 C72.5785456,57.1327308 70.0355246,56.6555574 68.5221667,56.0377756 C68.990472,55.7438411 69.4553772,55.432532 69.9097246,55.0827124 C72.3031456,53.2424425 73.8535455,50.9615396 74.5399876,48.5077868 Z M169.85809,29.1159924 C165.356491,32.4094557 159.135207,30.8231768 156.776143,28.1329867 C154.413322,25.440468 154.611238,21.9281212 154.611238,21.9281212 C158.41387,23.5339241 160.152343,23.04063 161.358091,22.2394302 C162.744217,21.3214447 163.988438,18.1728888 161.423049,15.3370748 C158.833322,12.4739631 150.184438,11.4923187 150.184438,11.4923187 C157.889554,8.53825031 167.806459,11.1620589 171.359638,15.9584032 C174.342332,19.9864699 173.975311,26.1017758 169.85809,29.1159924 Z M166.677659,60.0804941 C163.23847,59.5556751 159.892333,55.9222437 160.444564,51.5737688 C160.606691,50.2862606 160.874396,49.5957563 161.41607,48.7329395 C162.696796,46.6920562 165.365617,47.1377046 166.553827,48.4866507 C168.177059,50.3339062 170.513754,51.145495 170.686438,47.0852227 C170.796848,44.4718747 168.692785,41.3743678 168.692785,41.3743678 C168.692785,41.3743678 179.596943,45.2961809 176.414901,54.4199716 C174.59608,59.6375326 170.192185,60.6192845 166.677659,60.0804941 Z M163.107659,64.9468024 C163.107659,64.9468024 162.294701,63.5194022 163.481659,62.3594267 C163.481659,62.3594267 165.459922,63.1045623 168.533522,63.3144899 C168.533522,63.3144899 167.022133,66.669391 163.107659,64.9468024 Z" id="path18" fill="#FFFFFF"></path>
                        <polyline id="path20" fill="#231F20" points="175.408322 8.66907891 175.361438 8.71455726 175.361438 11.1879416 175.334954 11.2159379 174.537922 11.2159379 174.491217 11.2614162 174.491217 11.7777808 174.537922 11.8232592 176.869248 11.8232592 176.914701 11.7777808 176.914701 11.2614162 176.869248 11.2159379 176.070964 11.2159379 176.044301 11.1879416 176.044301 8.71455726 175.997596 8.66907891 175.408322 8.66907891"></polyline>
                        <polyline id="path22" fill="#231F20" points="177.292101 11.7777808 177.339701 11.8246563 177.889785 11.8246563 177.963153 11.7777808 178.762153 9.97749037 178.780943 9.97749037 179.564732 11.7777808 179.638101 11.8246563 180.178522 11.8246563 180.226838 11.7777808 180.226838 8.71455726 180.178522 8.66907891 179.655996 8.66907891 179.609469 8.71455726 179.609469 10.4917593 179.589785 10.4917593 179.008206 9.16095794 178.919448 9.09939469 178.599311 9.09939469 178.510553 9.16095794 177.928259 10.4917593 177.90929 10.4917593 177.90929 8.71455726 177.861869 8.66907891 177.339701 8.66907891 177.292101 8.71455726 177.292101 11.7777808"></polyline>
                    </g>
                </g>
            </g>
        </g>
    </g>
</svg>