<svg width="200" height="200" xmlns="http://www.w3.org/2000/svg"><g fill="none"><path d="M117.567 78.297c2.095-3.658 5.623-2.447 5.623-2.447s.973 2.587 1.542 8.453c0 0-3.985-1.198-7.363 1.36 0 0-1.917-3.674.198-7.366zm-.14 12.002c2.102 1.556 4.527 2.574 7.58 2.305 0 0 .582.024 1.432.962.307.342.989.902 1.841.83 0 0 .38-11.018-2.02-19.33-3.38-11.71-12.576-11.678-12.576-11.678s5.576 2.934 7.161 7.516c0 0-6.37 1.887-7.87 7.666-1.384 5.339 2.065 9.962 4.452 11.729zm-61.506 49.43l-1.967-1.625 3.393-2.068-1.426 3.693zm-9.59.098l2.95 2.166 2.164-1.33 2.066 1.576-.443 1.772 3.098 1.821 5.017-10.78-3.984-3.446-10.869 8.221zm13.672 8.32l2.213-2.413.197 4.135 2.213 1.232 6.294-7.68-2.36-2.067-1.77 1.083-.344-3.15-2.263-1.723-7.132 8.91 2.952 1.673zm11.36 6.99l1.378-1.673-1.968-1.478.59-.69 1.23.79 1.475-1.674-1.23-.887.64-.787 2.262 1.525 1.427-1.92-4.476-3.347-5.753 7.335 4.425 2.805zm-26.213-20.28l6.393-8.273-3.394-2.51-8.754 11.765 6.198 3.643 1.819-2.805-2.262-1.82zm146.394-49.94c-3.484 3.628-9.09 3.926-12.31 1.98 0 0 4.267-4.806 3.211-12.037-.419-2.882-1.609-6.67-6.147-8.348-1.257-.465-2.522-.7-3.761-.7-5.986 0-9.517 5.247-11.415 8.065-1.566 2.326-4.06 5.099-7.042 5.099-.689 0-1.38-.142-2.118-.43-.964-.378-5.655-2.568-3.489-8.663l.72-2.031-1.627-1.41c-.525-.453-13.071-11.135-31.21-11.135a46.12 46.12 0 0 0-11.882 1.567c-16.297 4.35-25.783 15.012-29.46 19.983 3.502-7.572 14.063-27.333 32.707-36.979 23.347-12.077 58.913-11.337 78.174 10.227 16.245 18.183 9.083 31.237 5.65 34.813zm-24.916-4.552c-2.01 9.234-5.966 10.285-9.017 13.194-2.72 2.598-8.49 8.402-6.917 17.196 1.042 5.823 4.7 8.136 7.052 9.033.014.182.017.36.042.546.211 1.663.611 2.818 1.426 4.118 1.146 1.824 3.037 2.928 5.184 2.87 1.81-.047 3.464-.945 3.464-.945-.657 1.668-1.692 3.142-3.362 4.275-6.918 4.699-18.871 3.922-26.004-.73-8.852-5.777-13.246-3.545-13.246-3.545 14.769 4.769 23.298 13.686 27.39 19.195-1.061 3.73-.121 7.2.176 8.382l3.483-1.472c1.524-.636 2.027-.742 2.371-.773.296-.024.947.086 1.267.665.32.58-.136 1.41-.505 1.797-1.295 1.357-6.775 3.234-12.726 2.545-6.12-.824-14.536-3.149-27.161-7.627-22.145-7.857-36.477-4.58-36.477-4.58-2.634-1.785-9.046-8.749-10.743-10.611a4.54 4.54 0 0 0 .593-.667c1.223-1.707 1.979-3.507 2.305-5.305l2.194-2.888c2.243-2.936 3.24-7.508.128-10.616-1.712-1.71-3.824-2.612-6.108-2.612-.856 0-1.91.112-3.01.27 2.55-14.162 19.104-10.216 19.104-10.216-3.409-3.545-14.02-4.55-19.528 3.313-5.403 7.71-2.02 17.54-2.02 17.54l-.092-.046.016.046c-3.607-1.444-13.474-17.972.51-32.441l.008.075.069-.075c12.553-12.988 32.46-6.105 32.46-6.105-7.672-8.402-22.91-3.112-22.91-3.112s9.194-15.769 29.318-21.14c22.882-6.109 40.221 8.908 40.221 8.908-1.24 3.493-1.428 10.012 5.307 12.652 6.361 2.495 10.886-2.822 12.92-5.84 2.03-3.02 5.614-8.337 11.474-6.171 5.019 1.856 3.97 6.627 3.97 6.627-.715-1.765-10.719-4.49-12.626 4.27zm.514 31.064c3.515-.54 7.919.443 9.737 5.66 3.182 9.124-7.72 13.046-7.72 13.046s2.102-3.098 1.992-5.711c-.173-4.06-2.51-3.249-4.133-1.402-1.187 1.35-3.857 1.795-5.137-.248-.542-.86-.81-1.551-.972-2.839-.552-4.348 2.794-7.982 6.233-8.506zm-3.57-4.867c3.915-1.722 5.426 1.633 5.426 1.633-3.072.21-5.052.955-5.052.955-1.185-1.16-.374-2.588-.374-2.588zm-6.331 36.814c2.36-2.69 8.58-4.276 13.082-.983 4.117 3.014 4.484 9.13 1.501 13.158-3.553 4.796-13.469 7.42-21.175 4.466 0 0 8.647-.982 11.238-3.845 2.566-2.836 1.322-5.984-.064-6.902-1.206-.802-2.943-1.295-6.747.31 0 0-.196-3.511 2.165-6.204zm-88.254-27.905c1.512-.617 4.056-1.095 6.335 1.18 2.319 2.317.14 5.698-.318 6.35-.686-2.453-2.237-4.734-4.63-6.575-.454-.35-.92-.66-1.387-.955zm-.278 5.613a17.69 17.69 0 0 1-.112-.451c-.047-.187-.09-.37-.144-.567-.03-.108-.037-.236-.05-.357-.054-.284-.118-.606-.181-.948.079.058.157.104.235.163 4.243 3.264 4.989 8.16 1.9 12.473-.193.27-.462.447-.757.54l-1.842-1.844a1.49 1.49 0 0 1 .202-.415c.368-.516.85-1.324 1.123-2.297l.01.004a4.3 4.3 0 0 0 .062-.284 5.25 5.25 0 0 0 .128-1.575c.002-1.04-.122-2.504-.574-4.442zm17.912 32.363c-1.489.832-2.89 2.046-4.064 3.577-1.247 1.62-2.104 3.445-2.497 5.25l-67.222-31.235s-5.736-1.738-2.484-10.92c3.248-9.168 11.235-17.634 17.104-19.859 5.083-1.925 6.772.934 9.24 3.255 1.623 1.529 43.618 43.614 49.923 49.932zm6.519 2.534c2.017 1.555 1.667 5.398-.783 8.587-2.449 3.187-6.069 4.515-8.086 2.961-2.018-1.553-1.669-5.398.78-8.585 2.449-3.188 6.07-4.514 8.089-2.963zm-66.426 9.316c-11.804-2.165-11.33-13.381-11.33-13.381 6.241 5.687 12.872 2.514 17.772-2.804a40.505 40.505 0 0 0 3.04-3.745l17.29 8.032c-7.138 4.61-15.9 13.896-26.772 11.898zm1.653-24.396l5.315 2.582a41.06 41.06 0 0 1-1.16 1.45c-1.53 1.847-4.184 2.43-6.27 1.245-.252-.14-.444-.284-.543-.424-.361-.475-.291-.898-.148-1.248.575-1.394 3.592-.229 3.592-.229s-.28-2.032-.786-3.376zm-7.751-1.51c3.497-.512 4.587 2.171 4.587 2.171-2.883.34-3.327 2.867-2.747 4.818.817 2.751 4.81 3.722 4.81 3.722-3.747 2.638-7.56 1.915-10.042-.958-2.812-3.26-.674-9.161 3.392-9.754zM3.96 125.873c-1.13-6.31 3.46-15.044 7.786-20.156 7.327-8.662 13.042-11.977 18.662-10.875 1.313.259 2.173 1.046 2.73 2.062a8.309 8.309 0 0 0-2.808-.428c-1.254.022-2.558.295-3.986.838-7.288 2.76-15.614 12.314-18.957 21.75-1.533 4.327-1.575 7.977-.126 10.848.1.197.214.369.322.55-1.486-.557-3.125-1.805-3.623-4.59zM56.026 107.9c.05 1.537.232 3.089.564 4.644.103.486.236.967.367 1.448-.753.275-1.263.537-1.44.637a4.576 4.576 0 0 0-1.637 1.57l-1.845-1.843a341.835 341.835 0 0 1 3.991-6.456zm1.93 9.076v.002l.018-.007c.38.936.792 1.844 1.252 2.687l-.112.038a4.896 4.896 0 0 0-.609.254 1.447 1.447 0 0 1-.703.173c-.142-.14-.28-.278-.42-.42l-1.058-1.056.02-.157c.05-.452.293-.875.717-1.117.052-.028.374-.201.896-.397zm130.287-68.973c-11.014-12.328-27.714-19.118-47.022-19.118-12.322 0-24.73 2.909-34.943 8.193-19.386 10.03-30.32 30.234-34.12 38.455l-3.783 8.184-4.22 4.368c-3.679 3.805-6.15 8.113-7.336 12.667l-7.077 11.31S37.408 99.779 37.118 99.5c-.178-1.45-.563-2.888-1.235-4.135-1.078-1.95-2.76-3.2-4.869-3.613a14.033 14.033 0 0 0-2.688-.263c-5.992 0-11.846 3.76-18.982 12.193-2.528 2.987-4.87 6.787-6.429 10.423C.95 118.691.241 122.955.861 126.43c.604 3.37 2.138 5.25 5.617 6.983 1.272.635 4.289.503 7.545 1.65 2.26.797 3.992 1.855 3.992 1.855a8.821 8.821 0 0 0-4.582 5.136c-1.29 3.778-1.194 9.727-1.194 9.727-.204 4.828 2.44 14.512 13.907 16.616 1.188.219 2.401.329 3.604.329 8.31 0 15.267-5.207 20.857-9.394 1.627-1.217 3.164-2.366 4.585-3.285l1.67-1.078 21.872 10.162 1.17.543c.265 1.796 1.112 3.325 2.448 4.352 1.107.851 2.478 1.305 3.962 1.305 3.018 0 6.212-1.811 8.54-4.842 3.562-4.64 3.652-10.35.204-13.004-1.108-.852-2.478-1.303-3.962-1.303a7.87 7.87 0 0 0-1.196.093l-1.052-1.055c-.905-.908-2.22-2.223-3.837-3.845 1.249-.173 3.41-.393 6.34-.393 5.857 0 15.318.881 27.143 5.076 8.08 2.869 14.479 4.185 19.737 6.384 5.259 2.199 11.292 4.518 11.292 4.518 2.517.964 5.273 1.454 8.191 1.454 6.966 0 13.495-2.742 16.637-6.986 2.07-2.795 2.955-6.378 2.433-9.833-.483-3.174-2.117-5.926-4.603-7.745-2.199-1.61-4.866-2.46-7.714-2.46-3.745 0-7.51 1.535-9.593 3.908-.288.329-.546.663-.78 1.003a54.623 54.623 0 0 0-5.177-5.6c7.983 1.087 21.306-3.601 21.306-3.601 4.786-1.721 12.957-7.5 9.629-17.05-1.293-3.703-3.816-6.245-7.158-7.322l-.827-1.83c-.665-1.478-2.719-3.979-6.19-3.979-1.093 0-3.304.035-4.827 2.247-.997 1.444-1.088 3.861.471 5.775-1.565 1.418-2.782 3.318-3.32 5.513-1.715-.902-3.572-2.692-4.208-6.255-1.17-6.542 2.586-11.11 5.99-14.358.523-.499 1.127-.969 1.767-1.467 2.816-2.192 6.321-4.92 8.154-13.34.339-1.554 1.155-3.626 4.332-3.622h.065c3.3.039 5.339 3.717 3.722 6.596-.606 1.08-1.35 2.119-2.642 3.275 0 0 1.083 1.255 2.652 2.245 1.96 1.237 5.034 1.72 6.919 1.496 2.653-.313 6.04-1.164 8.845-3.796 2.996-2.812 5.238-7.32 5.758-12.306.645-6.119-1.172-15.79-11.112-26.918zm-63.987 63.892c-6.108-1.185-14.14 2.19-14.14 2.19 2.435.32 3.812.442 6.64.075 2.827-.37 5.361-.862 10.72 2.535 5.362 3.397 8.214 1.55 8.214 1.55-3.418-3.52-5.09-5.119-11.434-6.35zm-.583-9.035c-.824-.427-1.343-.714-1.343-.714s.194-.787 1.045-.797c.853-.008 1.982.946 2.213 1.983 0 0-1.093-.045-1.915-.472zm.129 2.27s-.73.032-.905.021c-.216-.011-.734.027-1.17-.307 0 0-.008-.574.87-.669.88-.09 1.418.427 1.205.955zm-3.88-3.048c-1.027.388-2.88-.055-3.24-.102-.362-.047-1.212-.25-1.816-.205 0 0-.129-2.057 1.954-2.352 2.083-.297 3.815.99 3.991 1.232 0 0 .139 1.039-.889 1.427zm-1.213 3.188c-.722.426-1.693.797-3.36.965-1.667.165-2.269.388-2.269.388s-.536-1.947 1.084-2.837c1.62-.888 3.927-.629 5.48.159 0 0-.213.899-.935 1.325zm-9.739-3.208c-.536 0-1.527.084-1.787.121 0 0-.684-2.378 2.028-2.927 2.286-.465 4.175.204 4.175.204s-.314 1.528-.89 2.371c0 0-2.988.231-3.526.231zm1.444 5.199c-1.638 1.567-3.768 1.688-5.369 1.15 0 0 .87-2.985 1.491-4.18 0 0 2.842-.899 5.062-.592 0 0 .455 2.057-1.184 3.622zm-6.1-4.076c-1.08.476-1.614.455-2.551.776 0 0-.297-2.905 3.868-3.3 0 0 .391 1.776-1.316 2.524zm-1.056 4.632s-1.758.202-2.379-1.194c0 0 .1-.674.849-1.076.827-.444 2.204-.623 2.383-.63 0 0-.328 1.842-.853 2.9zm30.054-.267s-1.1-7.335-12.127-10.488c-11.027-3.155-19.619-1.02-23.225 3.482-4.432 5.538 0 11.699 6.888 11.368 5.269-.251 8.902-3.483 13.225-4.217 4.446-.754 8.058-.404 12.088 1.944 4.03 2.347 5.276 3.373 5.898 4.656.624 1.284.916 2.384 2.345 2.788 0 0 .512-5.06-5.092-9.533zM148.3 93.582s-6.364-3.028-9.291 2.905c0 0-.664.119-1.173-.047-.508-.167-.76-.256-.917-.25 0 0 1.958-4.88 11.85-7.45 0 0 1.253 2.308-.469 4.842zm-5.024-6.325c-4.833 2.095-12.28 9.232-12.28 9.232.206.004.563.052 1.388.246.823.195 1.56 0 1.56 0s1.189 1.465 4.488 2.484c3.345 1.034 6.911.365 9.368-.997 3.555-1.97 4.289-5.256 4.889-7.277.6-2.022 1.2-3.114 1.2-3.114.928.108 1.111.407 3.109.914 1.697.432 2.238-.307 2.238-.307-4.758-4.64-11.385-3.163-15.96-1.18zm-100.268 32.54s-5.826 7.35-7.644 8.244c-1.46.717-1.626-1.158-.96-2.046l6.196-8.264-2.833-2.531s-5.759 7.056-6.902 8.582c-1.145 1.528-3.164 5.14.667 7.873 3.78 2.697 7.149-.572 7.579-1.097.428-.525 6.767-8.158 6.767-8.158l-2.87-2.603zm42.968 45.462c.17.976.652 1.664.87 1.812 0 0-.077-.939.144-1.725.93-.294 2.159-1.124 3.184-2.46 1.366-1.776 1.62-3.354 1.557-4.13a7.195 7.195 0 0 1 1.15-1.115c-.956-.01-2.265.487-3.237 1.19-.715.435-1.485 1.095-2.166 1.981-1.588 2.068-1.673 3.868-1.502 4.447zM33.43 117.278l2.981-3.255-8.234-7.615-3.095 3.995 2.315 1.967-7.876 11.023 3.763 2.602 7.99-10.412 2.156 1.695z" fill="#231F20"/><path d="M33.156 149.112c-4.9 5.318-11.532 8.49-17.771 2.804 0 0-.475 11.214 11.329 13.381 10.872 1.998 19.635-7.288 26.771-11.898l-17.29-8.032a40.623 40.623 0 0 1-3.039 3.745m22.87-41.211a341.16 341.16 0 0 0-3.99 6.458l1.844 1.841a4.568 4.568 0 0 1 1.637-1.57c.176-.1.687-.364 1.44-.637-.131-.48-.263-.962-.368-1.45a26.213 26.213 0 0 1-.564-4.642m100.973-19.156c-1.998-.507-2.18-.805-3.107-.914 0 0-.601 1.093-1.201 3.114-.601 2.021-1.337 5.308-4.888 7.277-2.459 1.362-6.025 2.031-9.37.997-3.3-1.02-4.487-2.484-4.487-2.484s-.738.196-1.561.002c-.825-.196-1.182-.245-1.386-.25 0 0 7.445-7.135 12.278-9.229 4.573-1.984 11.2-3.46 15.959 1.179 0 0-.54.74-2.237.308m-18.594 28.337c-1.43-.4-1.723-1.502-2.345-2.785-.622-1.284-1.868-2.31-5.898-4.657-4.03-2.348-7.642-2.698-12.09-1.944-4.321.734-7.952 3.963-13.223 4.217-6.888.33-11.32-5.83-6.888-11.368 3.605-4.502 12.2-6.636 23.225-3.482 11.027 3.153 12.127 10.488 12.127 10.488 5.604 4.472 5.092 9.531 5.092 9.531m-10.928-.386c-5.36-3.397-7.893-2.906-10.72-2.535-2.83.37-4.205.245-6.64-.075 0 0 8.03-3.375 14.138-2.19 6.346 1.231 8.018 2.83 11.436 6.35 0 0-2.853 1.847-8.214-1.55M112.978 78.57c1.497-5.779 7.867-7.666 7.867-7.666-1.585-4.582-7.161-7.516-7.161-7.516s9.195-.031 12.576 11.679c2.4 8.31 2.02 19.328 2.02 19.328-.852.073-1.534-.487-1.841-.827-.85-.94-1.431-.964-1.431-.964-3.054.269-5.48-.749-7.581-2.305-2.386-1.767-5.837-6.39-4.45-11.729m62.307-9.102c-5.86-2.166-9.444 3.151-11.476 6.17-2.03 3.02-6.557 8.336-12.918 5.841-6.735-2.64-6.548-9.16-5.307-12.654 0 0-17.339-15.015-40.221-8.906-20.123 5.372-29.319 21.14-29.319 21.14s15.238-5.29 22.912 3.112c0 0-19.908-6.883-32.461 6.105l-.07.075-.008-.075c-13.983 14.47-4.115 30.997-.51 32.44l-.015-.047.093.048s-3.386-9.83 2.018-17.541c5.51-7.861 16.12-6.857 19.53-3.312 0 0-16.555-3.947-19.105 10.215 1.1-.157 2.154-.27 3.01-.27 2.284 0 4.396.903 6.108 2.613 3.112 3.108 2.115 7.68-.128 10.616l-2.193 2.888c-.327 1.798-1.083 3.598-2.306 5.305a4.544 4.544 0 0 1-.594.667c1.698 1.862 8.11 8.826 10.744 10.612 0 0 14.332-3.278 36.477 4.58 12.625 4.477 21.041 6.802 27.163 7.626 5.949.69 11.427-1.188 12.724-2.545.369-.385.825-1.218.505-1.797-.32-.579-.971-.69-1.267-.665-.346.03-.85.137-2.371.773l-3.483 1.472c-.295-1.181-1.237-4.653-.175-8.382-4.094-5.509-12.624-14.426-27.39-19.195 0 0 4.393-2.232 13.245 3.544 7.133 4.655 19.086 5.43 26.004.731 1.67-1.135 2.707-2.607 3.364-4.275 0 0-1.655.898-3.464.945-2.149.058-4.04-1.046-5.186-2.87-.815-1.3-1.216-2.455-1.428-4.118-.023-.185-.026-.364-.04-.546-2.352-.897-6.01-3.21-7.052-9.033-1.574-8.794 4.196-14.6 6.917-17.196 3.051-2.909 7.008-3.96 9.017-13.194 1.907-8.76 11.911-6.035 12.627-4.27 0 0 1.048-4.77-3.97-6.627" fill="#136247"/><path d="M185.897 50.104c-11.234-12.573-28.011-18.068-44.676-18.068-11.913 0-23.766 2.807-33.5 7.842-18.644 9.646-29.205 29.407-32.706 36.98 3.675-4.972 13.162-15.632 29.459-19.984a46.12 46.12 0 0 1 11.881-1.567c18.14 0 30.686 10.682 31.211 11.135l1.628 1.41-.723 2.03c-2.164 6.096 2.527 8.286 3.49 8.664.738.288 1.43.43 2.119.43 2.982 0 5.476-2.773 7.042-5.099 1.898-2.818 5.43-8.065 11.415-8.065 1.239 0 2.504.235 3.76.7 4.541 1.679 5.73 5.466 6.148 8.349 1.056 7.23-3.211 12.037-3.211 12.037 1.273.77 2.921 1.188 4.662 1.188 2.661 0 5.54-.976 7.648-3.168.215-.224.444-.486.68-.781.238-.296.484-.629.729-.996 3.45-5.143 7.156-17.126-7.056-33.037zM91.73 158.755c.064.777-.191 2.355-1.557 4.132-1.025 1.335-2.254 2.165-3.184 2.46-.22.785-.144 1.724-.144 1.724-.218-.148-.7-.836-.87-1.812-.172-.579-.086-2.38 1.503-4.447.68-.886 1.451-1.546 2.165-1.981.972-.703 2.281-1.2 3.238-1.19 0 0-.564.41-1.15 1.114zm1.408-2.774c-2.017-1.551-5.639-.225-8.088 2.963-2.449 3.187-2.798 7.032-.781 8.585 2.018 1.554 5.64.226 8.088-2.96 2.45-3.19 2.8-7.033.781-8.588zm-67.936-14.419s-1.09-2.683-4.586-2.172c-4.068.593-6.206 6.493-3.392 9.754 2.48 2.873 6.294 3.596 10.04.958 0 0-3.992-.971-4.809-3.722-.58-1.95-.136-4.478 2.747-4.818zm28.75-3.458l1.968 1.625 1.426-3.693-3.393 2.068zm21.788 12.16l-2.262-1.526-.64.787 1.23.887-1.476 1.674-1.23-.79-.59.69 1.968 1.478-1.378 1.672-4.426-2.805 5.754-7.335 4.476 3.348-1.426 1.92zm-13.328-.395l-.197-4.135-2.213 2.413-2.952-1.673 7.133-8.91 2.262 1.722.344 3.151 1.77-1.083 2.36 2.066-6.294 7.68-2.213-1.23zm-9.345-5.858l.443-1.772-2.066-1.576-2.164 1.33-2.95-2.166 10.869-8.22 3.983 3.445-5.017 10.78-3.098-1.82zm-13.673-8.172l8.754-11.765 3.394 2.51-6.393 8.272 2.262 1.82-1.82 2.806-6.197-3.643zm-7.863-4.184c-3.83-2.732-1.81-6.345-.667-7.873 1.144-1.526 6.903-8.582 6.903-8.582l2.832 2.531-6.196 8.264c-.665.886-.5 2.763.96 2.046 1.818-.894 7.646-8.244 7.646-8.244l2.868 2.603s-6.34 7.633-6.767 8.158c-.43.525-3.797 3.794-7.579 1.097zm-12.012-8.262l7.877-11.023-2.315-1.967 3.095-3.995 8.234 7.615-2.982 3.255-2.157-1.695-7.99 10.412-3.762-2.602zm67.1 30.054c-6.304-6.318-48.3-48.403-49.924-49.932-2.466-2.32-4.155-5.18-9.237-3.254-5.87 2.224-13.857 10.69-17.105 19.858-3.252 9.182 2.484 10.92 2.484 10.92l67.222 31.234c.394-1.804 1.252-3.63 2.495-5.25 1.177-1.53 2.577-2.744 4.066-3.576zm-17.526-26.062l-.01-.004c-.274.973-.756 1.781-1.124 2.295a1.51 1.51 0 0 0-.202.417l1.842 1.843c.295-.092.564-.27.757-.539 3.089-4.313 2.343-9.209-1.9-12.473-.078-.06-.156-.105-.234-.163.062.342.126.664.18.95.013.12.02.247.05.355.053.196.097.38.144.567.04.168.078.32.112.451.452 1.938.576 3.403.574 4.442a5.219 5.219 0 0 1-.129 1.575 4.6 4.6 0 0 1-.06.284zm-61.706-8.32c3.343-9.436 11.67-18.99 18.957-21.75 1.428-.543 2.732-.816 3.985-.838h.001a8.309 8.309 0 0 1 2.809.428c-.559-1.016-1.418-1.803-2.73-2.062-5.621-1.102-11.336 2.213-18.663 10.875-4.327 5.112-8.916 13.847-7.786 20.156.498 2.784 2.137 4.032 3.623 4.59-.108-.182-.222-.354-.322-.551-1.45-2.871-1.407-6.521.126-10.847zm48.957-.574l-.02.157 1.057 1.056c.14.142.278.28.419.42.239 0 .48-.05.704-.173a4.84 4.84 0 0 1 .609-.254l.11-.038a26.76 26.76 0 0 1-1.25-2.687l-.017.007v-.002c-.522.196-.844.37-.896.397a1.445 1.445 0 0 0-.716 1.117zm44.534-11.867c.62 1.396 2.379 1.194 2.379 1.194.525-1.058.853-2.9.853-2.9-.18.007-1.556.186-2.383.63-.749.402-.849 1.076-.849 1.076zm8.332-7.367c-2.712.55-2.028 2.927-2.028 2.927a18.98 18.98 0 0 1 1.787-.12c.538 0 3.527-.232 3.527-.232.575-.843.89-2.371.89-2.371s-1.89-.669-4.176-.204zm-2.675 4.975c-.62 1.195-1.49 4.18-1.49 4.18 1.602.538 3.728.417 5.368-1.15 1.639-1.565 1.184-3.622 1.184-3.622-2.22-.307-5.062.592-5.062.592zm10.284-4.808c-2.083.295-1.954 2.352-1.954 2.352.604-.045 1.454.158 1.816.205.36.047 2.213.49 3.242.102 1.026-.388.887-1.427.887-1.427-.176-.242-1.908-1.53-3.99-1.232zm20.099-3.233c.159-.007.409.082.917.249.509.166 1.174.047 1.174.047 2.926-5.933 9.29-2.905 9.29-2.905 1.723-2.535.469-4.841.469-4.841-9.892 2.568-11.85 7.45-11.85 7.45zm-14.322 7.985c-.878.095-.87.669-.87.669.436.334.954.296 1.171.307.175.011.904-.02.904-.02.213-.529-.325-1.047-1.205-.956zm2.135-19.873c-.569-5.866-1.542-8.453-1.542-8.453s-3.528-1.211-5.623 2.447c-2.115 3.692-.198 7.366-.198 7.366 3.378-2.558 7.363-1.36 7.363-1.36zm-10.568 19.484c-1.62.89-1.084 2.837-1.084 2.837s.602-.223 2.269-.388c1.665-.168 2.638-.54 3.362-.965.72-.426.933-1.325.933-1.325-1.555-.788-3.86-1.047-5.48-.16zm9.211-2.437c-.85.01-1.045.797-1.045.797s.518.287 1.343.714c.822.427 1.915.472 1.915.472-.23-1.037-1.36-1.991-2.213-1.983zm-17.744-.687c-4.163.394-3.868 3.299-3.868 3.299.937-.32 1.47-.3 2.552-.776 1.705-.748 1.316-2.523 1.316-2.523zM75.004 123c.458-.652 2.637-4.033.316-6.35-2.277-2.275-4.82-1.797-6.333-1.18.468.294.933.606 1.387.955 2.394 1.84 3.944 4.122 4.63 6.575zm95.319 19.392c-4.502-3.293-10.723-1.707-13.082.983-2.363 2.693-2.165 6.205-2.165 6.205 3.802-1.606 5.54-1.113 6.747-.311 1.386.918 2.63 4.066.064 6.902-2.59 2.863-11.238 3.845-11.238 3.845 7.705 2.954 17.622.33 21.175-4.466 2.983-4.028 2.616-10.144-1.501-13.158zm-3.18-30.964c-3.44.524-6.786 4.158-6.234 8.506.162 1.288.43 1.978.972 2.841 1.28 2.041 3.95 1.595 5.137.246 1.624-1.847 3.96-2.658 4.133 1.402.11 2.613-1.994 5.71-1.994 5.71s10.904-3.921 7.722-13.045c-1.818-5.217-6.222-6.2-9.737-5.66zm-3.57-4.867s-.814 1.428.373 2.588c0 0 1.978-.745 5.052-.955 0 0-1.511-3.355-5.426-1.633z" fill="#FFF"/><path fill="#231F20" d="M175.873 162.84l-.047-.045v-2.474l-.027-.028h-.797l-.046-.045v-.517l.046-.045h2.332l.045.045v.517l-.045.045h-.799l-.026.028v2.474l-.047.045h-.59m1.885-3.109l.047-.047h.55l.074.047.799 1.8h.018l.784-1.8.074-.047h.54l.048.047v3.064l-.048.045h-.523l-.046-.045v-1.778h-.02l-.581 1.331-.09.062h-.32l-.088-.062-.582-1.33h-.02v1.777l-.047.045h-.522l-.047-.045v-3.064"/></g></svg>