<svg width="200" height="200" xmlns="http://www.w3.org/2000/svg" xmlns:xlink="http://www.w3.org/1999/xlink"><defs><path id="a" d="M.03.015h129.053V96.59H.03z"/></defs><g fill="none" fill-rule="evenodd"><g transform="matrix(1 0 0 -1 37.824 156.343)"><mask id="b" fill="#fff"><use xlink:href="#a"/></mask><g mask="url(#b)" fill="#FFF" fill-rule="nonzero"><path d="M42.935 58.523v-.002c.39-.132.786-.256 1.195-.365v.001c-.409.11-.806.232-1.195.366M48.072 34.666c-.447-.135-.842-.101-1.178.092.336-.193.731-.228 1.178-.092M56.36 50.977c.198-.142.295-.313.299-.5-.004.187-.1.358-.299.5M56.51 50.61c-.006-.082-.045-.174-.063-.26.018.086.057.178.062.26M56.437 50.263c-.007-.017-.022-.033-.028-.048.006.015.021.03.028.048M44.247 50.45c.004.04 0 .076 0 .114 0-.038.004-.075 0-.115M43.162 57.142v-.001c.389-.123.788-.234 1.194-.334v.002c-.406.1-.805.21-1.194.333M57.544 49.53c.339.32.513.655.5.987.013-.332-.161-.668-.5-.987"/></g></g><path fill="#FFF" fill-rule="nonzero" d="M91.297 103.92h1.411-1.411M83.694 74.208h.003l.032-.003c-.01 0-.021.003-.032.003h-.003c-.6 0-1.217-.076-1.827-.13.61.054 1.226.13 1.827.13M66.13 72.343c-.629-.165-1.25-.33-1.872-.5v.001c.622.169 1.243.334 1.872.5M114.534 163.378l.086.012-.056-.012h-.03M101.68 163.209c.067-.013.133-.025.2-.035l-.16-.002-.04.037M135.995 111.372c-.169.154-.333.308-.5.462.167-.154.331-.308.5-.462M135.062 112.178l-.676.539.676-.54M137.327 107.772"/><path d="M101.738 117.119c-.485.354-.944.726-1.287 1.08.343-.354.802-.726 1.287-1.08M100.596 119.93c4.407.025 12.658-5.227 22.102-12.314-9.444 7.087-17.695 12.34-22.102 12.314-.013 0-.027.004-.04.004.013 0 .027-.004.04-.004M99.985 119.562" fill="#231F20" fill-rule="nonzero"/><path d="M100.938 115.175c-2.84 1.974-5.58 4.856-2.64 6.328h.001l-.001-.001c-2.939-1.471-.2-4.353 2.64-6.327a209.694 209.694 0 0 0 3.573-2.544h-.001c-1.156.84-2.337 1.686-3.572 2.544" fill="#231F20" fill-rule="nonzero"/><path d="M102.72 117.737a23.87 23.87 0 0 0-.909.675c-.326.263-.064.398.127.355 3.846-.869 10.272-4.886 17.428-10.075a188.203 188.203 0 0 1-7.18 2.039 190.64 190.64 0 0 1-9.467 7.006" fill="#D41938" fill-rule="nonzero"/><path d="M129.745 117.306" fill="#231F20" fill-rule="nonzero"/><path d="M134.467 114.024a1158.01 1158.01 0 0 0-3.55 2.844c1.111.796 2.468 1.326 3.772 1.47a25.8 25.8 0 0 1-.222-4.314" fill="#D41938" fill-rule="nonzero"/><path d="M112.187 110.731a188.613 188.613 0 0 0 7.18-2.04 263.637 263.637 0 0 0 3.18-2.345c-2.11.729-4.742 1.551-7.863 2.369-.813.67-1.644 1.342-2.497 2.016M104.51 112.631c1.052-.764 2.07-1.52 3.06-2.269h-.001a193.7 193.7 0 0 1-3.06 2.27M134.467 114.024a25.8 25.8 0 0 0 .222 4.315c.236.026.47.044.7.044.19 0 .375-.009.553-.025-.274-1.662-.406-3.337-.44-5.16l-1.035.826M135.562 111.678l-.5.5.5-.5M119.886 123.465c-2.424 1.58-4.754 2.916-6.985 4.006 2.23-1.09 4.56-2.426 6.985-4.005 2.524 3.105 6.062 5.289 10.476 6.49-4.414-1.202-7.952-3.386-10.476-6.49" fill="#231F20" fill-rule="nonzero"/><path d="M120.39 120.664c-8.46 5.799-14.885 8.046-19.66 8.336 4.775-.289 11.2-2.537 19.66-8.336 1.573 2.487 3.697 4.305 6.142 5.6-2.445-1.295-4.569-3.113-6.142-5.6M137.134 162.09v-.006l-.007.01.007-.003" fill="#231F20" fill-rule="nonzero"/><path d="m104.16 140.932.226 2.326c-3.17-1.827-4.061-5.633-4.061-5.633 1.406 16.175-.79 21.911-.79 21.911s3.277-2.803 5.452-5.842c.435 2.981-5.56 7.27-5.56 10.011.748-.207 1.5-.363 2.253-.497l.015-.013.055.001c4.3-.746 8.647-.388 12.784.19h.01l.02.004c2.689.376 5.289.84 7.725 1.144 5.7.714 10.604.395 12.837-2.574 2.903-3.862-3.26-11.7-3.26-11.7 1.583.425 4.507-.59 7.692-1.755 2.28-.834 4.897-1.577 6.753-1.984-2.899-4.592-6.23-11.29-7.747-14.416-8.212-.129-14.71-2.615-18.885-7.232-7.125 4.527-13.484 6.963-18.929 7.251.38 6.234 3.41 8.808 3.41 8.808m15.012-12.658c6.207 5.031 12.5 5.783 12.5 5.783l2.086 4.923c-1.402.107-3.21.978-3.272 2.75-.088 2.48 3.107 3.874 3.387 6.303-4.436-.007-6.039 3.42-15.548 1.115.62-9.117-3.15-18.663-3.15-18.663s2.051-.946 3.997-2.21" fill="#D41938" fill-rule="nonzero"/><path d="M127.482 117.605c-.15-.17-.323-.325-.47-.5.147.175.32.33.47.5M126.393 116.506c.15.234.325.455.5.675-.175-.22-.35-.44-.5-.675M125.78 79.366c.109.09.176.232.218.402-.042-.17-.11-.312-.219-.402M99.644 74.67c.03.247-.025.518-.204.815.179-.297.235-.568.204-.815M102.69 89.06a90.586 90.586 0 0 0-1.553 1.908h.001a87.695 87.695 0 0 1 1.552-1.908M95.474 72.5c-2.533.885-5.405 1.416-8.707 1.615 3.302-.198 6.174-.73 8.707-1.615M97.37 75.307c-1.41 4.253-4.999 6.86-9.494 8.376 4.495-1.516 8.085-4.122 9.494-8.375.167-.503.098-.771-.077-.906.175.135.243.403.077.905M87.722 85.911c2.747-.831 5.043-1.983 6.895-3.426-1.852 1.443-4.148 2.595-6.895 3.426M118.94 90.453c2.197-2.478 3.787-4.52 4.885-6.148-1.098 1.628-2.688 3.67-4.885 6.148M121.103 73.157c.17-.122.334-.229.5-.349-.166.12-.33.227-.5.35M121.685 83.798a54.733 54.733 0 0 1 .001-.001M99.037 73.281c-.479-.663-1.263-1.043-2.15-1.043.887 0 1.671.38 2.15 1.043" fill="#231F20" fill-rule="nonzero"/><path d="M123.05 46.174s-6.316-.966-11.175 6.099a22.22 22.22 0 0 0 .95 3.168c-1.049-.563-1.836-1.593-3.026-5.532-1.37-4.54-3.378-9.08-9.403-10.129-5.32-.926-12.11 1.89-18.05 2.954-.368.066-.733.126-1.092.178-4.87.69-11.964-.768-11.979-.771.003.004 1.37 2.46 4.85 5.291 1.674 1.364 3.833 2.812 6.577 4.119l-.673 1.059-.442.693c-3.893-1.585-8.033-5.268-8.033-5.268s6.994 13.328 14.539 25.04c3.46-.162 6.435-.682 9.027-1.587a5.374 5.374 0 0 1 1.766-.322c1.237 0 2.337.542 3.02 1.487.418.578 1.027 1.82.425 3.635-1.743 5.261-6.125 8.894-12.85 10.796a36.074 36.074 0 0 0-.566 6.018c.185.033.365.074.541.127a30.559 30.559 0 0 1 4.34-5.077c1.323-1.24 2.894-2.479 4.702-3.496l1.012 1.369h-.001s-5.074 2.988-8.334 8.15c.186.165.356.343.506.538 1.26-.648 3.506-1.672 6.78-2.704 2.262-3.152 4.835-6.259 7.832-9.475 9.726-10.438 16.87-13.454 21.478-13.954-4.152-14.852-2.721-22.406-2.721-22.406M106.927 75.98c-2.14-.22-3.888.446-3.888.446 0-10.502-6.372-23.7-6.372-23.7 15.378-3.212 16.3 7.73 16.3 7.73l3.025-1.513c.128 2.28.725 6.525 1.206 9.704-4.993 2.815-8.63 5.852-10.271 7.333" fill="#D41938" fill-rule="nonzero"/><path d="M114.427 90.152c-.15.15-.285.294-.43.443.145-.148.28-.293.43-.443M126.68 71.638c-1.364.073-2.908.421-4.63 1.114 1.722-.693 3.266-1.04 4.63-1.114M127.696 91.415c1.736-2.252 3.066-4.341 4.04-6.259-.974 1.918-2.304 4.007-4.04 6.259" fill="#231F20" fill-rule="nonzero"/><path d="M133.327 88.695a46.07 46.07 0 0 1-2.327 3.48c1.953.477 3.73.969 4.655 1.374a176.855 176.855 0 0 1-2.328-4.854" fill="#D41938" fill-rule="nonzero"/><path d="M129.892 91.912a43.725 43.725 0 0 0 2.9-4.381 43.668 43.668 0 0 1-2.9 4.38M68.178 97.825a1367.036 1367.036 0 0 1 0 0c.182-.253.27-.482.288-.685-.019.203-.106.432-.288.685M79.927 175.23h1.616l-7.21-43.05a18.85 18.85 0 0 1-1.66.078c-.033 0-.06-.005-.092-.005l.39 2.281 6.956 40.697M64.617 74.16a570.846 570.846 0 0 0 0 0M67.073 113.508l1.33-1.814-1.331 1.814M69.136 110.695c-.064.09-.13.175-.194.264.064-.09.13-.174.194-.264M67.154 127.82c.903.498 2.052.941 3.489 1.163-1.437-.222-2.586-.665-3.49-1.163M59.536 71.146a651.617 651.617 0 0 1 0 0l-.214-.04.214.04M76.587 175.23l-5.202-40.508-.33-2.545a14.44 14.44 0 0 1-3.402-.738l6.048 43.792h2.886M61.126 84.17a65.49 65.49 0 0 0 5.308.84v-.001a65.068 65.068 0 0 1-5.308-.84M72.672 131.182c-.097 0-.18-.033-.276-.038.096.005.18.04.276.04.486 0 .981-.073 1.484-.195v-.002a6.323 6.323 0 0 1-1.484.195M60.736 30.503a4.809 4.809 0 1 0-9.617 0c0 2.096 1.35 3.86 3.22 4.518l4.828 34.966.566.106c1.412.263 2.867.532 4.337.796l-6.043-36.08c1.598-.781 2.709-2.407 2.709-4.306M62.76 93.898h4.29c.321 0 .629.105.92.283-.291-.178-.599-.283-.92-.283h-4.29c-.09 0-.175.02-.264.027.089-.007.174-.027.264-.027M67.486 130.228v.001a13.118 13.118 0 0 1 0 0M64.473 108.41l.391 2.834.43-.586.055-.074c1.486-2.027 2.987-4.074 4.37-5.965l-.487-2.905a3146.264 3146.264 0 0 0-4.759 6.697M61.422 86.315a68.836 68.836 0 0 1 0 0M72.045 129.093a5.297 5.297 0 0 1 0 0M72.107 121.502c.14.048.3.078.457.11-.158-.032-.317-.062-.457-.11-.818-.276-.812-.946.028-2.452-.84 1.506-.846 2.176-.028 2.452M61.577 87.436l.772 5.59c.137-.005.27-.015.411-.015h4.29c.25 0 .494.018.733.05l-.813-4.85a71.535 71.535 0 0 1-5.393-.775M65.422 112.297l.737-1.005-.737 1.005c-.116.158-.233.305-.349.456.116-.15.233-.298.349-.456M64.26 106.861" fill="#231F20" fill-rule="nonzero"/><path d="M60.13 34.532a1.08 1.08 0 0 0 .438 1.462c1.853.998 3.988 3.419 4.01 3.443a1.078 1.078 0 0 0 1.622-1.422c-.097-.11-2.41-2.738-4.608-3.921a1.079 1.079 0 0 0-1.462.438M90.1 95.358c.21.423.33.868.38 1.322.806-.358 2.307-1.015 3.951-1.699a76.555 76.555 0 0 1 2.03-2.971c-3.274 1.03-5.52 2.055-6.78 2.704.158.201.303.413.419.644M97.51 86.025 96.5 84.656h-.001c-1.808 1.018-3.379 2.256-4.703 3.497a30.52 30.52 0 0 0-4.339 5.076 4.484 4.484 0 0 1 1.719.946c3.258-5.16 8.33-8.147 8.334-8.15M124.847 45.407a.622.622 0 0 0-.508-.71c-1.895-.331-7.893-.721-12.884 6.183-1.173-3.835-2.16-8.266-6.186-10.897-6.403-4.188-14.727-1.241-19.832.03-5.526 1.375-8.8 1.495-16.666.093-1.351-.24-1.99-.003-2.354.388-.405.439-.35 1.125-.025 2 1.447 3.897 13.022 23.9 17.035 30.636.089 0 .18.006.27.006.827 0 1.62-.024 2.396-.061-7.545-11.712-14.539-25.04-14.539-25.04s4.14 3.683 8.033 5.269l.442-.694.674-1.06c-2.745-1.305-4.903-2.754-6.58-4.118-3.479-2.83-4.845-5.287-4.848-5.291v-.001s7.104 1.462 11.98.771c.36-.05.724-.111 1.09-.177 5.942-1.064 12.732-3.88 18.052-2.954 6.024 1.048 8.031 5.59 9.402 10.13 1.19 3.938 1.978 4.969 3.026 5.531a18.938 18.938 0 0 1-.506-1.473c-.293-.966-.444-1.695-.444-1.695 4.86-7.065 11.175-6.1 11.175-6.1s-1.43 7.555 2.721 22.408c.513-.057.996-.082 1.445-.082.129 0 .252.011.378.015-2.249-7.764-3.81-16.217-2.747-23.107M101.138 90.968a78.154 78.154 0 0 1 0 0M113.997 90.596a87.957 87.957 0 0 1 0 0M132.791 87.531c.275-.479.534-.954.773-1.422v-.001c-.239.469-.498.943-.773 1.423M133.327 88.695c.73 1.578 1.497 3.19 2.328 4.854-.925-.405-2.702-.897-4.655-1.373-.373.51-.765 1.025-1.173 1.543 2.485.506 5.351 1.368 6.653 1.776a54.25 54.25 0 0 1 1.01-.732l-3.374-7.438c-.245.452-.512.91-.789 1.37M85.982 93.778c.44 0 .855.185 1.243.5-.388-.315-.803-.5-1.243-.5h-1.045 1.045M126.294 93.158c.492-.59.963-1.174 1.403-1.743h-.001a58.32 58.32 0 0 1-1.402 1.743M118.866 90.538c-.507.57-1.035 1.151-1.579 1.738h.001a111.52 111.52 0 0 0 1.578-1.738l.075-.085h-.001c-.026.028-.048.056-.074.085M85.002 87.685l-.058.44-.327 4.886h1.365c.321 0 .631.037.934.091.022-2.533.324-4.69.566-6.018-.795.224-1.62.426-2.48.601M85.152 86.56a32.568 32.568 0 0 1 0 0M128.567 71.726" fill="#231F20" fill-rule="nonzero"/><path d="M112.966 60.457s-.921-10.942-16.3-7.73c0 0 6.374 13.198 6.374 23.7 0 0 1.747-.667 3.887-.446 1.64-1.481 5.279-4.518 10.272-7.333-.482-3.18-1.078-7.425-1.208-9.704l-3.025 1.513M95.952 167.786c-1.79 2.123-2.607 5.537-2.64 5.68a1.078 1.078 0 0 0 2.1.494c.007-.03.73-3.05 2.19-4.783a1.08 1.08 0 0 0-1.65-1.39M97.625 158.457c-1.263 4.981-1.01 6.52-.107 7.047.838.489 2.332-.325 5.72-.645 5.894-.558 11.508.309 18.783 1.3 6.933.943 11.028.247 13.785-2.319a6.09 6.09 0 0 0 1.321-1.746l.002-.002c1.38-2.77.315-6.337-1.946-9.999 0 0 5.758-3.136 13.208-4.433a.547.547 0 0 0 .369-.834c-1.385-2.157-5.626-8.91-8.3-14.728-.407.01-.818.018-1.233.018-.224 0-.44-.009-.663-.011 1.516 3.126 4.848 9.825 7.747 14.416-1.856.407-4.473 1.15-6.753 1.984-3.186 1.166-6.11 2.18-7.692 1.756 0 0 6.163 7.837 3.26 11.699-2.233 2.97-7.137 3.288-12.837 2.574-2.436-.305-5.037-.768-7.726-1.144l-.029-.004c-4.138-.578-8.485-.936-12.784-.19l-.07.012c-.752.134-1.505.29-2.254.497 0-2.74 5.996-7.03 5.561-10.011-2.175 3.04-5.452 5.842-5.452 5.842s2.196-5.736.79-21.911c0 0 .89 3.806 4.06 5.633l-.226-2.326s-3.03-2.574-3.409-8.808a19.009 19.009 0 0 1-2.885-.062c.521 6.826 1.672 18.846-.24 26.395M138.318 128.978c-.166-.007-.333-.02-.5-.029.167.01.334.022.5.03M100.55 129.006c.17-.008.329-.008.5-.018-.171.01-.333.01-.5.018" fill="#231F20" fill-rule="nonzero"/><path d="M118.325 149.148c9.51 2.306 11.112-1.122 15.548-1.114-.28-2.43-3.474-3.823-3.387-6.304.063-1.772 1.87-2.643 3.272-2.75l-2.085-4.922s-6.294-.753-12.501-5.784c-1.946 1.265-3.997 2.21-3.997 2.21s3.77 9.547 3.15 18.664" fill="#231F20" fill-rule="nonzero"/><path d="M186.406 117.154c.009-.012.018-.023.025-.035l12.501-17.442c.987-1.318 1.17-2.939.48-4.319-.725-1.447-2.303-2.347-4.118-2.347h-3.97c-1.186 0-2.247.231-3.165.69-1.69-1.134-3.935-1.729-6.55-1.729-3.485 0-7.397 1.039-10.733 2.85-5.36 2.91-10.77 8.735-15.644 16.846-.71 1.181-1.44 2.195-2.186 3.037.382-5.1-.467-10.424-1.335-14.261l-.013-.057a8.296 8.296 0 0 1-.044-.195c-.049-.233.017-.323.082-.388.558-.564.974-.858 1.55-1.268.326-.23.689-.488 1.106-.813 1.66-1.292 1.788-3.092 1.394-4.242-1.074-3.127-5.605-3.37-6.967-3.37-2.836 0-6.026 1.174-9.823 3.634a47.113 47.113 0 0 0-2.516 1.75c-.566.42-1.149.87-1.742 1.342-.102.082-.202.157-.305.24a524.617 524.617 0 0 1-6.714 5.317 368.584 368.584 0 0 1-5.172 3.952 272.678 272.678 0 0 1-3.18 2.346c-7.157 5.188-13.583 9.206-17.429 10.075-.191.043-.453-.092-.126-.356.151-.123.674-.511.907-.674 3.383-2.351 6.54-4.69 9.468-7.006a160.9 160.9 0 0 0 2.497-2.016c1.132-.932 2.225-1.859 3.277-2.78 4.184-3.664 7.732-7.23 10.586-10.635A65.64 65.64 0 0 0 131 92.176a46.331 46.331 0 0 0 2.328-3.48c.276-.461.543-.918.788-1.37.382-.703.723-1.392 1.028-2.072.988-2.2 1.575-4.277 1.731-6.206.261-3.223-.668-5.96-2.687-7.915-1.264-1.225-2.853-2.03-4.662-2.4-.619-.126-1.264-.198-1.932-.219-.126-.004-.25-.015-.377-.015-.45 0-.933.025-1.446.082-4.607.499-11.752 3.515-21.478 13.952-2.997 3.217-5.57 6.324-7.832 9.476v.001a77.077 77.077 0 0 0-2.03 2.971 72.542 72.542 0 0 0-1.637 2.642c-2.46 4.173-4.494 8.57-6.301 13.527-3.746 3.814-7.373 5.838-9.93 6.77.23-.338.442-.641.606-.879 3.06-4.42 11.222-15.703 12.442-17.351a4.74 4.74 0 0 0 .52-.89c.309-.687.426-1.412.35-2.12-.05-.454-.17-.9-.382-1.322a3.836 3.836 0 0 0-.417-.644 3.987 3.987 0 0 0-.507-.54 4.501 4.501 0 0 0-1.719-.945 4.978 4.978 0 0 0-.541-.126 5.214 5.214 0 0 0-.933-.092h-4.37c-3.568 0-5.052 2.074-5.849 3.188l-.235.324a.598.598 0 0 0-.03.045l-.032.048c-.556.852-2.184 3.114-4.27 5.978l-1.477 2.025a5221.172 5221.172 0 0 1-4.37 5.965l-.055.074-.43.586-.307.419a23.643 23.643 0 0 1-1.232 1.533c-1.714 1.977-3.487 3.379-4.776 4.041-.426.218-.262-.089-.13-.275a6173.289 6173.289 0 0 1 10.813-15.249 570.496 570.496 0 0 1 1.479-2.066c.982-1.366 1.152-2.991.458-4.347a3.986 3.986 0 0 0-1.455-1.56 4.767 4.767 0 0 0-1.932-.679 5.483 5.483 0 0 0-.732-.05h-4.29c-.14 0-.274.01-.412.015-.623.02-1.216.087-1.78.203-1.494.305-2.795.935-3.93 1.92-.233.201-.473.413-.723.631-1.497 1.316-3.244 2.85-5.459 4.222l.142-.22c4.558-7.076 7.147-11 8.654-12.828a52.706 52.706 0 0 0 2.324.481 71.618 71.618 0 0 0 7.24.948c1.884.155 3.873.248 5.904.248 3.07 0 5.875-.215 8.44-.615.628-.1 1.244-.208 1.842-.331a34.41 34.41 0 0 0 2.48-.601c6.725-1.902 11.107-5.535 12.85-10.795.602-1.817-.008-3.058-.426-3.635-.683-.946-1.783-1.488-3.02-1.488-.56 0-1.154.109-1.766.322-2.591.906-5.568 1.425-9.027 1.587a51.19 51.19 0 0 1-2.396.061c-.09 0-.18-.007-.271-.007a61.7 61.7 0 0 1-2.115-.052c-4.98-.198-10.27-.963-15.368-1.853a695.663 695.663 0 0 1-6.776-1.237l-1.856-.345c-5.898-1.09-11.42-2.02-15.944-2.02-8.15 0-18.322 1.144-24.693 10.064-.874 1.222-1.007 2.777-.348 4.056a3.659 3.659 0 0 0 3.274 1.981c.183 0 .37-.013.554-.04 4.043-.576 7.98-.867 11.7-.867 3.361 0 6.505.232 9.37.69-5.585 8.016-12.409 18.863-15.07 23.093l-.59.938c-.106.166-.234.373-.383.613-5.568 8.973-8.886 11.773-10.689 12.542-1.322.565-2.6.84-3.902.84-1.574 0-3.193-.397-4.95-1.211a4.563 4.563 0 0 0-1.926-.45c-1.383 0-2.599.707-3.25 1.893-.693 1.259-.604 2.857.229 4.171 3.197 5.035 11.387 9.29 17.884 9.29.865 0 1.693-.076 2.463-.227 4.284-.837 7.127-2.453 12.655-9.812 3.682-4.903 7.89-11.323 11.281-16.602.803.499 1.743.894 2.64 1.16-.385.564-.703 1.028-.927 1.35-4.613 6.625-4.574 11.346-3.728 14.138.843 2.781 2.82 4.907 5.568 5.987 1.463.575 3.11.866 4.896.866 4.365 0 8.438-1.684 10.487-2.695.507.408 1.118.817 1.815 1.197.574.314 1.214.603 1.926.852.995.348 2.122.615 3.403.738.487.047.994.073 1.525.077.031 0 .06.003.09.003.545 0 1.1-.027 1.663-.077.582-.052 1.174-.131 1.777-.237 3.667-.645 7.689-2.284 12.01-4.9 1.386 1.74 3.865 3.908 7.927 4.748a18.894 18.894 0 0 0 4.702.332c5.445-.287 11.804-2.722 18.93-7.25 4.173 4.618 10.672 7.103 18.884 7.231.222.004.44.013.662.013a47.017 47.017 0 0 0 3.166-.114c5.933-.404 10.822-1.834 13.268-2.678 1.47 1.363 3.248 2.277 5.069 2.594a14.96 14.96 0 0 0 2.56.216c3.577 0 6.862-1.175 9.196-2.307 1.3 1.436 3.116 2.218 5.206 2.218 2.34 0 4.997-1.003 7.9-2.979 2.029-1.38 3.645-2.985 4.94-4.904 1.442-2.137.957-3.774.539-4.56-.638-1.201-1.878-1.92-3.318-1.92-.658 0-1.346.147-2.088.444.213-.29.449-.602.71-.932l.032-.041Zm-46.851.388c-.35.477-.755.83-1.184 1.105-.986.635-2.1.808-2.981.808-1.056 0-2.14-.24-3.156-.653a9.269 9.269 0 0 1-3-1.958 1229.134 1229.134 0 0 1 5.829-4.666l.431-.344.203-.16a712.205 712.205 0 0 1 4.906-3.868c.466 3.176.613 7.459-1.048 9.736Zm41.322-13.066c-.54.745-1.517 2.088-2.63 3.588-1.44 1.942-3.109 4.146-4.347 5.659-.421.512-.897.994-1.394 1.456-1.52 1.41-3.278 2.539-4.684 3.178a8.85 8.85 0 0 1-1.146.448.44.44 0 0 1-.564-.455c.051-.567.26-1.421.787-2.562.327-.707.78-1.525 1.395-2.457.583-.88 1.308-1.86 2.22-2.943 1.625-1.933 3.555-3.433 5.336-4.513 1.903-1.152 3.637-1.824 4.644-2.007.018-.003.034-.004.051-.005l.024-.002c.117 0 .209.063.278.142a.363.363 0 0 1 .058.397c-.011.026-.01.052-.028.076Z" fill="#FFF" fill-rule="nonzero"/><path d="M186.406 117.154c.009-.012.018-.023.025-.035l12.501-17.442c.987-1.318 1.17-2.939.48-4.319-.725-1.447-2.303-2.347-4.118-2.347h-3.97c-1.186 0-2.247.231-3.165.69-1.69-1.134-3.935-1.729-6.55-1.729-3.485 0-7.397 1.039-10.733 2.85-5.36 2.91-10.77 8.735-15.644 16.846-.71 1.181-1.44 2.195-2.186 3.037.382-5.1-.467-10.424-1.335-14.261l-.013-.057a8.296 8.296 0 0 1-.044-.195c-.049-.233.017-.323.082-.388.558-.564.974-.858 1.55-1.268.326-.23.689-.488 1.106-.813 1.66-1.292 1.788-3.092 1.394-4.242-1.074-3.127-5.605-3.37-6.967-3.37-2.836 0-6.026 1.174-9.823 3.634a47.113 47.113 0 0 0-2.516 1.75c-.566.42-1.149.87-1.742 1.342-.102.082-.202.157-.305.24a524.617 524.617 0 0 1-6.714 5.317 368.584 368.584 0 0 1-5.172 3.952 272.678 272.678 0 0 1-3.18 2.346c-7.157 5.188-13.583 9.206-17.429 10.075-.191.043-.453-.092-.126-.356.151-.123.674-.511.907-.674 3.383-2.351 6.54-4.69 9.468-7.006a160.9 160.9 0 0 0 2.497-2.016c1.132-.932 2.225-1.859 3.277-2.78 4.184-3.664 7.732-7.23 10.586-10.635A65.64 65.64 0 0 0 131 92.176a46.331 46.331 0 0 0 2.328-3.48c.276-.461.543-.918.788-1.37.382-.703.723-1.392 1.028-2.072.988-2.2 1.575-4.277 1.731-6.206.261-3.223-.668-5.96-2.687-7.915-1.264-1.225-2.853-2.03-4.662-2.4-.619-.126-1.264-.198-1.932-.219-.126-.004-.25-.015-.377-.015-.45 0-.933.025-1.446.082-4.607.499-11.752 3.515-21.478 13.952-2.997 3.217-5.57 6.324-7.832 9.476v.001a77.077 77.077 0 0 0-2.03 2.971 72.542 72.542 0 0 0-1.637 2.642c-2.46 4.173-4.494 8.57-6.301 13.527-3.746 3.814-7.373 5.838-9.93 6.77.23-.338.442-.641.606-.879 3.06-4.42 11.222-15.703 12.442-17.351a4.74 4.74 0 0 0 .52-.89c.309-.687.426-1.412.35-2.12-.05-.454-.17-.9-.382-1.322a3.836 3.836 0 0 0-.417-.644 3.987 3.987 0 0 0-.507-.54 4.501 4.501 0 0 0-1.719-.945 4.978 4.978 0 0 0-.541-.126 5.214 5.214 0 0 0-.933-.092h-4.37c-3.568 0-5.052 2.074-5.849 3.188l-.235.324a.598.598 0 0 0-.03.045l-.032.048c-.556.852-2.184 3.114-4.27 5.978l-1.477 2.025a5221.172 5221.172 0 0 1-4.37 5.965l-.055.074-.43.586-.307.419a23.643 23.643 0 0 1-1.232 1.533c-1.714 1.977-3.487 3.379-4.776 4.041-.426.218-.262-.089-.13-.275a6173.289 6173.289 0 0 1 10.813-15.249 570.496 570.496 0 0 1 1.479-2.066c.982-1.366 1.152-2.991.458-4.347a3.986 3.986 0 0 0-1.455-1.56 4.767 4.767 0 0 0-1.932-.679 5.483 5.483 0 0 0-.732-.05h-4.29c-.14 0-.274.01-.412.015-.623.02-1.216.087-1.78.203-1.494.305-2.795.935-3.93 1.92-.233.201-.473.413-.723.631-1.497 1.316-3.244 2.85-5.459 4.222l.142-.22c4.558-7.076 7.147-11 8.654-12.828a52.706 52.706 0 0 0 2.324.481 71.618 71.618 0 0 0 7.24.948c1.884.155 3.873.248 5.904.248 3.07 0 5.875-.215 8.44-.615.628-.1 1.244-.208 1.842-.331a34.41 34.41 0 0 0 2.48-.601c6.725-1.902 11.107-5.535 12.85-10.795.602-1.817-.008-3.058-.426-3.635-.683-.946-1.783-1.488-3.02-1.488-.56 0-1.154.109-1.766.322-2.591.906-5.568 1.425-9.027 1.587a51.19 51.19 0 0 1-2.396.061c-.09 0-.18-.007-.271-.007a61.7 61.7 0 0 1-2.115-.052c-4.98-.198-10.27-.963-15.368-1.853a695.663 695.663 0 0 1-6.776-1.237l-1.856-.345c-5.898-1.09-11.42-2.02-15.944-2.02-8.15 0-18.322 1.144-24.693 10.064-.874 1.222-1.007 2.777-.348 4.056a3.659 3.659 0 0 0 3.274 1.981c.183 0 .37-.013.554-.04 4.043-.576 7.98-.867 11.7-.867 3.361 0 6.505.232 9.37.69-5.585 8.016-12.409 18.863-15.07 23.093l-.59.938c-.106.166-.234.373-.383.613-5.568 8.973-8.886 11.773-10.689 12.542-1.322.565-2.6.84-3.902.84-1.574 0-3.193-.397-4.95-1.211a4.563 4.563 0 0 0-1.926-.45c-1.383 0-2.599.707-3.25 1.893-.693 1.259-.604 2.857.229 4.171 3.197 5.035 11.387 9.29 17.884 9.29.865 0 1.693-.076 2.463-.227 4.284-.837 7.127-2.453 12.655-9.812 3.682-4.903 7.89-11.323 11.281-16.602.803.499 1.743.894 2.64 1.16-.385.564-.703 1.028-.927 1.35-4.613 6.625-4.574 11.346-3.728 14.138.843 2.781 2.82 4.907 5.568 5.987 1.463.575 3.11.866 4.896.866 4.365 0 8.438-1.684 10.487-2.695.507.408 1.118.817 1.815 1.197.574.314 1.214.603 1.926.852.995.348 2.122.615 3.403.738.487.047.994.073 1.525.077.031 0 .06.003.09.003.545 0 1.1-.027 1.663-.077.582-.052 1.174-.131 1.777-.237 3.667-.645 7.689-2.284 12.01-4.9 1.386 1.74 3.865 3.908 7.927 4.748a18.894 18.894 0 0 0 4.702.332c5.445-.287 11.804-2.722 18.93-7.25 4.173 4.618 10.672 7.103 18.884 7.231.222.004.44.013.662.013a47.017 47.017 0 0 0 3.166-.114c5.933-.404 10.822-1.834 13.268-2.678 1.47 1.363 3.248 2.277 5.069 2.594a14.96 14.96 0 0 0 2.56.216c3.577 0 6.862-1.175 9.196-2.307 1.3 1.436 3.116 2.218 5.206 2.218 2.34 0 4.997-1.003 7.9-2.979 2.029-1.38 3.645-2.985 4.94-4.904 1.442-2.137.957-3.774.539-4.56-.638-1.201-1.878-1.92-3.318-1.92-.658 0-1.346.147-2.088.444.213-.29.449-.602.71-.932l.032-.041Zm3.235 6.41a16.522 16.522 0 0 1-2.677 3.048 18.541 18.541 0 0 1-1.977 1.57c-2.721 1.852-5.176 2.79-7.296 2.79-2.295 0-3.934-1.073-4.91-2.496-.833.44-1.844.912-2.98 1.334-1.895.7-4.14 1.253-6.511 1.253-.813 0-1.613-.068-2.377-.2a8.26 8.26 0 0 1-2.012-.63 9.187 9.187 0 0 1-1.26-.705 10.038 10.038 0 0 1-1.706-1.438 48.048 48.048 0 0 1-5.427 1.6c-3.383.792-7.292 1.354-11.282 1.354-3.25 0-6.214-.367-8.864-1.088-4.414-1.202-7.952-3.386-10.476-6.49-2.424 1.58-4.755 2.915-6.985 4.005-4.908 2.4-9.338 3.61-13.235 3.61-3.52 0-6.277-.995-8.327-2.454a11.815 11.815 0 0 1-2.939-3.016c-4.529 2.85-8.702 4.61-12.467 5.273-.603.105-1.196.183-1.777.233a17.79 17.79 0 0 1-1.484.067c-.096 0-.18-.011-.276-.014a15.18 15.18 0 0 1-1.483-.09 13.125 13.125 0 0 1-3.427-.85c-.742-.3-1.39-.64-1.946-.997-.36-.23-.682-.462-.968-.693-.18-.146-.356-.29-.509-.43-2.535 1.341-6.574 2.903-10.638 2.903-.66 0-1.293-.054-1.907-.14a11.764 11.764 0 0 1-1.857-.405c-.25-.078-.5-.154-.74-.248-1.624-.637-2.935-1.694-3.855-3.051a8.274 8.274 0 0 1-1.078-2.247 9.597 9.597 0 0 1-.394-2.94c.038-2.546.972-5.962 3.975-10.274.16-.23.376-.545.62-.903.097-.143.2-.293.308-.454.273-.4.571-.839.9-1.326-.974-.106-2.146-.465-3.151-.963-.603-.299-1.146-.649-1.551-1.025l-1.175 1.829c-3.414 5.3-7.271 11.136-10.682 15.676-2.74 3.646-4.796 6.027-7.17 7.538-1.425.907-2.964 1.5-4.834 1.865a11.71 11.71 0 0 1-2.256.208c-6.071 0-14.006-4.11-16.98-8.793a3.483 3.483 0 0 1-.208-.377 3.272 3.272 0 0 1-.313-1.188 2.874 2.874 0 0 1 .002-.397c.027-.394.135-.774.324-1.118.154-.28.356-.517.588-.715a2.638 2.638 0 0 1 1.723-.622c.298 0 .605.051.915.143.185.054.372.12.56.206 1.901.882 3.667 1.31 5.4 1.31 1.452 0 2.866-.301 4.324-.923 1.06-.453 2.252-1.349 3.57-2.683.22-.221.443-.455.67-.702 1.585-1.725 3.34-4.045 5.257-6.948.548-.829 1.108-1.706 1.682-2.63l.378-.608.591-.939c1.176-1.868 3.094-4.916 5.34-8.419 2.42-3.771 5.22-8.07 7.886-11.99l.568-.833c.756-1.103 1.497-2.17 2.212-3.18a51.065 51.065 0 0 0-5.477-.758 65.407 65.407 0 0 0-5.736-.246c-3.77 0-7.758.295-11.852.88-.037.004-.071.003-.108.007-.1.01-.2.02-.294.02a2.596 2.596 0 0 1-2.472-1.752 2.662 2.662 0 0 1-.141-.747 2.897 2.897 0 0 1 .345-1.497c.063-.118.135-.233.214-.346a21.27 21.27 0 0 1 2.127-2.532c6.092-6.21 14.665-7.082 21.694-7.082 4.409 0 9.843.912 15.657 1.985l.441.082c.616.114 1.235.228 1.857.345l.214.04c1.536.287 3.12.58 4.721.867.623.112 1.244.22 1.873.33 5.227.904 10.64 1.663 15.737 1.819.61.019 1.227.046 1.827.046h.003l.032-.001c1.054 0 2.063-.033 3.038-.092 3.302-.198 6.174-.73 8.707-1.615a4.958 4.958 0 0 1 .843-.207c.195-.031.387-.055.57-.055.887 0 1.67.38 2.15 1.043.136.188.27.43.36.725.062.197.103.417.114.664.011.247-.009.518-.07.815-.032.15-.073.304-.128.466-.864 2.61-2.453 4.787-4.695 6.534-1.854 1.443-4.15 2.594-6.896 3.426-.814.247-1.679.458-2.57.649a37.66 37.66 0 0 1-1.855.352c-2.585.424-5.439.647-8.577.647-2.1 0-4.151-.1-6.086-.265a78.027 78.027 0 0 1-1.847-.18c-1.986-.218-3.8-.5-5.365-.8a46.953 46.953 0 0 1-2.553-.556c-1.49 1.633-4.051 5.493-9.172 13.442-.68 1.057-1.452 2.268-2.287 3.579 4.123-1.728 6.922-4.18 9.214-6.194l.179-.156c.182-.16.364-.32.537-.47a7.397 7.397 0 0 1 3.368-1.664l.007-.002a9.61 9.61 0 0 1 1.78-.201c.09-.003.174-.01.265-.01h4.29c.321 0 .629.037.92.099.859.182 1.572.618 2.027 1.255.08.113.154.23.219.353a2.729 2.729 0 0 1 .306 1.188c.007.273-.025.55-.096.825a3.677 3.677 0 0 1-.586 1.219l-1.28 1.786a2492.12 2492.12 0 0 0-4.3 6.055l-1.515 2.137-1.056 1.494c-1.72 2.433-3.233 4.578-4.07 5.768-.09.128-.168.246-.246.366-.17.256-.316.492-.438.706a8.65 8.65 0 0 0-.346.661.479.479 0 0 0 .55.664c.236-.062.493-.14.769-.24.965-.35 2.162-.951 3.46-1.93a18.42 18.42 0 0 0 2.147-1.92 21.844 21.844 0 0 0 1.558-1.815c.116-.15.233-.299.349-.456l.736-1.005 1.69-2.303c1.961-2.676 3.863-5.275 5.387-7.377 1.524-2.103 2.672-3.712 3.13-4.41l.03-.048s.023-.03.05-.07c.056-.075.143-.197.189-.26.269-.375.587-.816 1.008-1.233.804-.798 1.99-1.509 3.97-1.509H85.982c.44 0 .855.073 1.243.197.85.271 1.543.815 1.916 1.56.19.378.288.783.296 1.196a3.123 3.123 0 0 1-.383 1.527 3.761 3.761 0 0 1-.304.49c-.42.567-1.662 2.274-3.236 4.452-3.004 4.158-7.218 10.027-9.225 12.925l-.212.306c-.537.778-1.347 1.964-1.91 2.893 2.398-.257 6.749-1.986 11.298-6.021.65-.577 1.303-1.201 1.956-1.874 1.376-3.8 2.892-7.267 4.627-10.557 3.313-6.283 7.44-11.913 13.03-17.91 10.546-11.32 17.86-13.695 22.139-13.695 1.56 0 2.987.315 4.222.924.74.366 1.412.837 2.005 1.408 1.186 1.15 1.935 2.624 2.24 4.332.094.534.156 1.084.161 1.663.004.347-.009.702-.039 1.063-.122 1.521-.526 3.141-1.198 4.847-.294.75-.647 1.519-1.044 2.3-.239.469-.498.944-.772 1.423a43.733 43.733 0 0 1-2.9 4.381 62.037 62.037 0 0 1-2.588 3.23 86.939 86.939 0 0 1-5.679 5.993c-5.222 5.043-11.783 10.345-19.518 15.72-.123.087-.247.175-.368.264-.487.355-.945.726-1.288 1.08-.257.266-.45.521-.54.752a.974.974 0 0 0-.077.397.593.593 0 0 0 .053.214c.076.179.238.305.468.351.062.013.13.02.202.02l.039-.003c4.407.025 12.658-5.227 22.101-12.314a329.523 329.523 0 0 0 3.39-2.58 479.456 479.456 0 0 0 4.436-3.467 771.18 771.18 0 0 0 4.583-3.656 70.381 70.381 0 0 1 2.078-1.607c4.71-3.485 8.445-5.123 11.635-5.123.526 0 2.382.05 3.911.702.918.391 1.718 1 2.042 1.945.072.213.12.451.131.703a2.6 2.6 0 0 1-.343 1.39c-.185.333-.448.66-.827.955-.2.155-.388.296-.565.425-.178.13-.344.247-.5.358-.505.358-.924.662-1.417 1.124-.09.085-.18.166-.277.265-.184.186-.38.48-.406.899-.009.139.001.292.037.461.004.025.012.059.02.094l.01.045.03.132c.743 3.282 1.4 7.317 1.406 11.338.003 1.828-.127 3.654-.446 5.404.212-.147.437-.32.665-.506a13.76 13.76 0 0 0 1.743-1.726c.679-.791 1.39-1.76 2.118-2.971 1.792-2.98 3.651-5.643 5.55-7.956 3.167-3.855 6.442-6.738 9.687-8.5.994-.54 2.045-1 3.116-1.388 2.358-.854 4.828-1.332 7.105-1.332 2.716 0 4.95.684 6.479 1.937.762-.518 1.787-.899 3.237-.899h3.97c.44 0 .855.073 1.242.197.85.271 1.543.815 1.916 1.56.19.378.287.784.296 1.196.015.686-.218 1.39-.687 2.017l-8.825 12.312-3.677 5.13-.029.037c-.393.498-.728.958-1.039 1.399a21.933 21.933 0 0 0-1.332 2.104v.001c.96-.187 2.003-.502 2.496-.734.778-.367 1.463-.545 2.096-.545 1.036 0 1.922.505 2.372 1.35.151.288.313.734.296 1.317-.017.583-.214 1.305-.779 2.14Z" fill="#223A6A" fill-rule="nonzero"/><path d="M139.555 117.542c1.661-2.277 1.514-6.56 1.048-9.735a712.205 712.205 0 0 0-4.906 3.867l-.203.16-.431.344-.678.539c-2.072 1.65-3.922 3.138-5.15 4.127a9.269 9.269 0 0 0 3 1.958c1.015.413 2.099.653 3.155.653.88 0 1.995-.173 2.981-.808a4.341 4.341 0 0 0 1.184-1.105m-1.885.29c-.49.287-1.065.464-1.728.525a5.897 5.897 0 0 1-.552.026c-.231 0-.465-.018-.7-.044-1.305-.145-2.662-.675-3.774-1.471 1-.804 2.224-1.786 3.55-2.844.34-.271.684-.547 1.037-.827l1.784-1.417c.82-.649 1.65-1.305 2.472-1.95.269 3.228-.103 5.755-1.07 7.08-.28.382-.62.688-1.02.922M121.686 83.796c-1.753 1.288-3.96 3.117-6.398 5.502-.284.278-.57.56-.86.854-.15.15-.286.295-.432.444a88.112 88.112 0 0 0-3.146 3.398 74.891 74.891 0 0 0-4.531 5.757l.001-.001a81.08 81.08 0 0 0 6.47-5.776 95.236 95.236 0 0 0 1.676-1.694c.955-.994 1.911-2.025 2.87-3.104a85.24 85.24 0 0 0 1.824-2.12 54.165 54.165 0 0 0 2.525-3.258v-.002M180.877 104.476c.018-.024.017-.05.028-.076a.363.363 0 0 0-.058-.397.367.367 0 0 0-.278-.142l-.024.002c-.017.001-.033.002-.05.005-1.008.183-2.742.855-4.645 2.007-1.781 1.08-3.71 2.58-5.336 4.513a32.117 32.117 0 0 0-2.22 2.943 18.862 18.862 0 0 0-1.395 2.457c-.527 1.14-.736 1.995-.787 2.562a.423.423 0 0 0 .118.334.446.446 0 0 0 .446.12 8.85 8.85 0 0 0 1.146-.447c1.406-.64 3.164-1.767 4.684-3.178.497-.462.973-.944 1.394-1.456 1.238-1.513 2.906-3.717 4.347-5.659 1.113-1.5 2.09-2.843 2.63-3.588m-12.943 12.643c-.51.251-.404-.064-.334-.243.487-1.246 1.525-3.17 3.735-5.799 2.37-2.817 5.35-4.612 7.42-5.507-1.65 2.25-4.045 5.473-5.684 7.473-1.484 1.81-3.53 3.287-5.137 4.076M52.339 91.374c2.609-3.957 4.018-5.918 5.077-7.062.07-.075.145-.144.222-.203.018-.015.038-.025.057-.038.06-.042.12-.085.182-.12l.033-.015a2.069 2.069 0 0 1 1.349-.186c.028.006.058.009.084.016.535.135 1.133.27 1.783.404a64.65 64.65 0 0 0 5.308.838c.603.071 1.217.139 1.85.198 4.77.441 10.303.48 15.299-.433a34.51 34.51 0 0 0 1.86-.389 28.62 28.62 0 0 0 2.432-.701c4.496-1.516 8.086-4.123 9.495-8.377.167-.5.098-.768-.077-.903-.269-.207-.793-.092-1.143.03-4.306 1.504-9.217 1.943-14.363 1.787-4.988-.153-10.197-.866-15.298-1.735-.626-.107-1.25-.215-1.872-.325-1.688-.3-3.358-.61-5-.916l-1.856-.346c-6.188-1.151-11.885-2.157-16.393-2.157-3.993 0-7.764.322-11.167 1.277-4.378 1.227-8.146 3.501-10.988 7.48-.316.443-.194.952.206 1.072.086.026.182.04.294.025 9.177-1.308 16.12-.97 20.669-.364a45.72 45.72 0 0 1 4.703.862c.589.141 1.357.47.745 1.313-.466.643-.95 1.324-1.445 2.027-4.886 6.944-10.942 16.457-14.254 21.705l-1.928 3.062c-1.128 1.79-4.994 8.306-9.145 12.073-1.109 1.006-2.239 1.82-3.342 2.29-1.7.725-3.47 1.12-5.353 1.086h-.006l-.035-.002a12.896 12.896 0 0 1-1.728-.16c-1.358-.213-2.775-.644-4.267-1.336-.897-.417-1.285.048-1.186.626.027.159.084.325.186.485 2.946 4.642 11.691 8.735 17.114 7.674.53-.104 1.028-.226 1.502-.373 2.498-.773 4.346-2.22 6.714-5.026a48.812 48.812 0 0 0 1.243-1.53c.415-.53.843-1.088 1.3-1.695a164.684 164.684 0 0 0 3.77-5.261c1.99-2.88 4.019-5.953 5.941-8.923 2.716-4.192 5.216-8.166 7.064-11.035a763.421 763.421 0 0 1 4.364-6.719" fill="#223A6A" fill-rule="nonzero"/><path d="M186.997 123.673c.408-.483.717-.913.948-1.254.441-.655.529-1.158.313-1.418-.139-.168-.41-.224-.797-.157a3.653 3.653 0 0 0-.932.308c-1.335.63-5.102 1.548-5.738.828-1.147-1.295 2.747-6.228 3.133-6.717l7.226-10.084 5.27-7.354c.331-.442.34-.83.158-1.125-.214-.35-.697-.57-1.284-.57h-3.969c-2.02 0-2.643.953-3.373 1.972-.535-1.275-1.677-2.12-3.175-2.582l-.014-.004c-3.297-1.01-8.314-.17-12.398 2.048-.56.304-1.128.649-1.7 1.033-2.06 1.383-4.19 3.285-6.34 5.734a47.48 47.48 0 0 0-2.127 2.602 66.576 66.576 0 0 0-3.811 5.562c-.161.26-.32.514-.48.78-.188.312-.375.606-.562.89-4.49 6.875-8.734 6.421-8.734 6.421.83-2.048 1.221-4.366 1.35-6.677l.018-.325c.021-.478.033-.954.034-1.426v-.04a41.436 41.436 0 0 0-.2-4.013 45.239 45.239 0 0 0-.266-2.236c-.058-.409-.118-.8-.179-1.172-.334-2.044-.69-3.497-.768-3.867a3.483 3.483 0 0 1 .919-3.22c1.108-1.122 1.84-1.48 2.956-2.348 1.37-1.066-1.144-2.031-3.657-2.031-1.911 0-5.165.713-11.114 5.249-.425.324-.86.665-1.315 1.029a864.65 864.65 0 0 1-3.043 2.435c-10.811 8.605-20.348 15.652-27.13 18.577-3.388 1.461-6.09 1.897-7.918.982-2.94-1.472-.2-4.353 2.64-6.328a206.874 206.874 0 0 0 6.631-4.813c1.133-.86 2.237-1.71 3.288-2.548 5.924-4.719 10.555-9.091 14.061-13.054a67.423 67.423 0 0 0 2.778-3.345c1.735-2.252 3.065-4.341 4.04-6.259.305-.6.583-1.187.817-1.753.408-.98.703-1.904.908-2.777.753-3.21.187-5.673-1.442-7.25a5.85 5.85 0 0 0-1.355-.971 6.774 6.774 0 0 0-2.097-.678 8.918 8.918 0 0 0-1.888-.089c-1.363.073-2.907.421-4.629 1.114-.219.088-.442.185-.667.284-.094.041-.184.078-.28.121-3.996 1.831-8.867 5.43-14.527 11.504a107.442 107.442 0 0 0-3.887 4.4 80.992 80.992 0 0 0-3.208 4.085 73.43 73.43 0 0 0-1.706 2.423c-3.476 5.151-6.2 10.621-8.574 17.266-5.249 5.537-11.116 8.437-14.812 8.826-.693.073-1.303.054-1.826-.05-.157-.03-.316-.061-.456-.108-.819-.277-.812-.947.028-2.453.165-.296.364-.625.594-.99a82.71 82.71 0 0 1 1.877-2.797 418.676 418.676 0 0 1 2.983-4.232 1687.16 1687.16 0 0 1 8.634-11.993c.402-.553.71-.975.887-1.213a1.63 1.63 0 0 0 .187-.323c.003-.009.011-.018.015-.026.026-.064.031-.122.044-.182.01-.047.03-.095.033-.14.002-.02-.007-.038-.007-.057a.783.783 0 0 0-.16-.48c-.237-.304-.698-.486-1.24-.486h-4.37c-1.652 0-2.37.638-2.975 1.426-.189.245-.367.504-.558.764-.452.691-1.545 2.225-2.99 4.22-1.688 2.332-3.859 5.298-6.08 8.327l-.067.091c-.179.245-.36.49-.538.735-.445.606-.89 1.212-1.33 1.814a24.888 24.888 0 0 1-1.623 1.986 21.51 21.51 0 0 1-1.59 1.584c-.106.095-.213.2-.319.29-3.5 3.012-6.716 3.65-7.931 3.498-.744-.093-1.334-.566-1.411-1.488-.079-.94.374-2.345 1.744-4.295a2348.16 2348.16 0 0 1 4.29-6.08l2.102-2.97 1.514-2.135c1.695-2.39 3.275-4.61 4.328-6.073.182-.254.27-.482.287-.685.003-.022 0-.042 0-.063.01-.596-.622-.946-1.414-.946h-4.29c-1.347 0-2.795.26-4.078 1.374-2.068 1.795-4.746 4.315-8.627 6.3a27.157 27.157 0 0 1-3.419 1.468.51.51 0 0 0-.236.162c-.142.179-.125.452.23.688.071.047.156.093.256.136.394.172.953.352 1.585.504 1.49.357 3.436.541 4.95-.032-1.793 2.65-3.442 5.099-4.172 6.147-2.05 2.942-3.118 5.498-3.473 7.65a10.263 10.263 0 0 0-.138 1.67c.009 1.34.33 2.483.866 3.423.728 1.275 1.856 2.18 3.164 2.694 2.947 1.158 6.594.609 9.676-.419 2.109-.703 3.955-1.627 5.123-2.392 0 .002.382.615 1.243 1.338.382.32.864.66 1.442.978.903.498 2.053.941 3.49 1.163.439.068.91.112 1.402.134.555.025 1.145.016 1.77-.03a17.828 17.828 0 0 0 1.78-.226c3.51-.618 7.972-2.386 13.575-6.203 1.098 2.958 4.504 6.697 11.38 6.348l.18-.006c4.775-.29 11.201-2.537 19.66-8.336 1.573 2.487 3.696 4.304 6.142 5.6 3.337 1.77 7.279 2.56 11.286 2.704.08.003.161.008.241.01 1.432.043 2.87.002 4.29-.102 5.51-.4 10.742-1.78 14.229-3.234 1.158 1.675 2.858 2.885 4.686 3.203 2.736.476 5.544-.112 7.907-.994.054-.02.11-.038.163-.058a22.867 22.867 0 0 0 4.45-2.288h.001c.162 1.323 1.067 2.986 3.077 3.348 1.462.264 3.51-.163 6.282-1.912l.038-.023c.056-.035.114-.076.17-.112.16-.103.32-.206.484-.318a15.624 15.624 0 0 0 3.16-2.815m-61.309-44.195a.536.536 0 0 1 .147.29c.15.66-.397 2.15-2.008 4.537-1.099 1.627-2.689 3.67-4.885 6.148-.027.028-.048.055-.075.085a111.52 111.52 0 0 1-3.224 3.475c-3.31 3.412-7.215 6.949-11.785 10.127-1.617 1.123-3.035 1.749-3.24 1.593-.304-.233.614-2.133 1.927-4.102 3.24-4.86 6.068-8.511 10.428-12.92 5.972-6.039 11.3-9.42 12.525-9.303.082.008.146.03.19.07m16.075 38.37a6.915 6.915 0 0 1-.553.9c-3.255 4.462-10.587 3.076-14.034-1.143-.052-.064-.113-.122-.163-.187-.06-.076-.105-.16-.16-.237-.16-.22-.321-.44-.46-.675.002 0 3.604-2.918 7.812-6.263 1.02-.81 2.075-1.646 3.124-2.47a453.957 453.957 0 0 1 4.63-3.604s2.373 8.72-.196 13.679m29.415.973c-2.536 1.674-5.1 2.584-6.143 1.985-.398-.228-.712-.647-.87-1.256a3.303 3.303 0 0 1-.08-.45c-.001-.015-.005-.027-.007-.042-.014-.13-.015-.272-.016-.414 0-.05-.007-.096-.006-.148.003-.11.018-.235.028-.353.008-.094.01-.181.023-.28.008-.064.026-.138.038-.206.127-.775.412-1.685.893-2.725.757-1.635 1.996-3.587 3.91-5.863a26.83 26.83 0 0 1 2.096-2.228h.001c.027-.027.054-.048.081-.073 2.785-2.612 5.583-4.039 7.85-4.622 1.717-.441 3.13-.4 4.004-.03.419.178.67.394.806.627.266.461.075.988-.178 1.42l-.007.013-.022.036c-.122.201-.256.381-.357.519l-.696.964a321.308 321.308 0 0 1-3.917 5.32 132.932 132.932 0 0 1-3.124 4.005c-1.183 1.443-2.74 2.768-4.307 3.8" fill="#223A6A" fill-rule="nonzero"/><path d="M143.897 162.551c.623-.02.766-.277.766-.603 0-.317-.143-.48-.67-.48h-.795v1.083h.7Zm-.7.661v1.83h-.66v-4.234h1.37c.775 0 1.58.21 1.58 1.168 0 .49-.297.872-.862.987v.019c.584.115.65.374.719.834.057.402.105.842.249 1.226h-.843c-.049-.24-.115-.508-.144-.758-.048-.363-.048-.698-.24-.9-.162-.172-.383-.153-.613-.172h-.555Zm3.727-.24a2.962 2.962 0 0 0-2.96-2.96 2.973 2.973 0 0 0-2.98 2.96 2.977 2.977 0 0 0 2.98 2.98 2.966 2.966 0 0 0 2.96-2.98Zm-6.571 0a3.598 3.598 0 0 1 3.61-3.591 3.587 3.587 0 0 1 3.593 3.591c0 2.002-1.6 3.612-3.592 3.612a3.602 3.602 0 0 1-3.611-3.612Z" fill="#231F20" fill-rule="nonzero"/></g></svg>