<svg width="200" height="200" xmlns="http://www.w3.org/2000/svg" xmlns:xlink="http://www.w3.org/1999/xlink"><defs><path id="a" d="M.03.015h129.053V95.95H.03z"/></defs><g fill="none" fill-rule="evenodd"><g transform="matrix(1 0 0 -1 37.824 156.343)"><mask id="b" fill="#fff"><use xlink:href="#a"/></mask><g mask="url(#b)" fill="#FFF" fill-rule="nonzero"><path d="M42.935 58.138v-.002c.39-.132.786-.256 1.195-.365v.001c-.409.11-.806.232-1.195.366m5.137-23.701c-.447-.135-.842-.101-1.178.092.336-.193.731-.228 1.178-.092m8.288 16.206c.198-.142.295-.314.299-.5-.004.186-.1.358-.299.5m.15-.367c-.006-.082-.045-.174-.063-.26.018.086.057.178.062.26m-.072-.346c-.007-.017-.022-.033-.028-.047.006.014.021.03.028.048m-12.19.184c.004.04 0 .077 0 .115 0-.038.004-.075 0-.115m-1.085 6.651v-.001c.389-.123.788-.234 1.194-.334v.002c-.406.1-.805.21-1.194.333m14.382-7.564c.339.317.513.65.5.98.013-.33-.161-.663-.5-.98"/></g></g><path fill="#FFF" fill-rule="nonzero" d="M91.297 104.267h1.411-1.411m-7.603-29.514h.003l.032-.003c-.01 0-.021.003-.032.003h-.003c-.6 0-1.217-.076-1.827-.131.61.055 1.226.13 1.827.13M66.13 72.9c-.629-.164-1.25-.33-1.872-.5v.002c.622.168 1.243.334 1.872.498m48.404 90.433l.086.011-.056-.011h-.03m-12.854-.169a3.48 3.48 0 0 1 .2-.034l-.16-.003-.04.037m34.315-51.497c-.169.155-.333.308-.5.463.167-.155.331-.308.5-.463m-.933.804l-.676.535.676-.535m2.265-4.376"/><path d="M101.738 117.38c-.485.351-.944.721-1.287 1.073.343-.352.802-.722 1.287-1.073m-1.142 2.792c4.407.025 12.658-5.193 22.102-12.232-9.444 7.04-17.695 12.257-22.102 12.232-.013 0-.027.004-.04.004.013 0 .027-.004.04-.004m-.611-.366" fill="#231F20" fill-rule="nonzero"/><path d="M100.938 115.448c-2.84 1.961-5.58 4.824-2.64 6.286-2.939-1.462-.2-4.325 2.64-6.286a209.687 209.687 0 0 0 3.573-2.526h-.001a211.41 211.41 0 0 1-3.572 2.526" fill="#231F20" fill-rule="nonzero"/><path d="M102.72 117.994a23.86 23.86 0 0 0-.909.67c-.326.262-.064.396.127.353 3.846-.863 10.272-4.854 17.428-10.009a189.075 189.075 0 0 1-7.18 2.026 190.567 190.567 0 0 1-9.467 6.96m31.748-3.689a968.192 968.192 0 0 0-3.55 2.825c1.111.791 2.468 1.318 3.772 1.461a25.462 25.462 0 0 1-.222-4.286" fill="#D41938" fill-rule="nonzero"/><path d="M112.187 111.034a189.59 189.59 0 0 0 7.18-2.026 263.546 263.546 0 0 0 3.18-2.33c-2.11.724-4.742 1.54-7.863 2.353-.813.666-1.644 1.333-2.497 2.003m-7.677 1.888a202.6 202.6 0 0 0 3.06-2.255h-.001a190.35 190.35 0 0 1-3.06 2.255m29.958 1.383c-.033.957-.024 2.505.222 4.286.236.026.47.044.7.044.19 0 .375-.009.553-.025-.274-1.65-.406-3.315-.44-5.126l-1.035.82m1.095-2.333c-.166.168-.335.335-.5.5.165-.165.334-.332.5-.5m-15.676 11.713c-2.424 1.57-4.754 2.896-6.985 3.98 2.23-1.084 4.56-2.41 6.985-3.98 2.524 3.085 6.062 5.254 10.476 6.448-4.414-1.195-7.952-3.364-10.476-6.448" fill="#231F20" fill-rule="nonzero"/><path d="M120.39 120.901c-8.46 5.76-14.885 7.993-19.66 8.28 4.775-.286 11.2-2.52 19.66-8.28 1.573 2.471 3.697 4.276 6.142 5.564-2.445-1.288-4.569-3.093-6.142-5.564m16.744 41.153v-.007l-.007.01.007-.003" fill="#231F20" fill-rule="nonzero"/><path d="M104.16 141.034l.226 2.311c-3.17-1.814-4.061-5.595-4.061-5.595 1.406 16.068-.79 21.766-.79 21.766s3.277-2.785 5.452-5.804c.435 2.962-5.56 7.222-5.56 9.945.748-.205 1.5-.36 2.253-.493l.015-.013h.055c4.3-.741 8.647-.385 12.784.19h.01l.02.003c2.689.374 5.289.834 7.725 1.137 5.7.709 10.604.392 12.837-2.558 2.903-3.836-3.26-11.621-3.26-11.621 1.583.422 4.507-.586 7.692-1.745 2.28-.828 4.897-1.566 6.753-1.97-2.899-4.562-6.23-11.215-7.747-14.321-8.212-.127-14.71-2.597-18.885-7.184-7.125 4.497-13.484 6.917-18.929 7.203.38 6.193 3.41 8.75 3.41 8.75m15.012-12.574c6.207 4.998 12.5 5.745 12.5 5.745l2.086 4.89c-1.402.107-3.21.971-3.272 2.73-.088 2.465 3.107 3.85 3.387 6.263-4.436-.007-6.039 3.398-15.548 1.108.62-9.058-3.15-18.54-3.15-18.54s2.051-.94 3.997-2.196" fill="#D41938" fill-rule="nonzero"/><path d="M127.482 117.862c-.15-.17-.323-.324-.47-.5.147.176.32.33.47.5m-1.089-1.092c.15.233.325.453.5.672-.175-.22-.35-.439-.5-.671m-.613-36.897c.109.09.176.232.218.402-.042-.17-.11-.312-.219-.402m-26.135-4.662c.03.245-.025.514-.204.81.179-.296.235-.565.204-.81m3.046 14.295a90.106 90.106 0 0 0-1.553 1.894h.001a87.23 87.23 0 0 1 1.552-1.894m-7.216-16.45c-2.533.878-5.405 1.405-8.707 1.604 3.302-.197 6.174-.725 8.707-1.604m1.896 2.787c-1.41 4.226-4.999 6.815-9.494 8.321 4.495-1.506 8.085-4.095 9.494-8.32.167-.5.098-.765-.077-.9.175.135.243.4.077.9m-9.648 10.533c2.747-.826 5.043-1.97 6.895-3.403-1.852 1.434-4.148 2.577-6.895 3.403m31.218 4.512c2.197-2.462 3.787-4.49 4.885-6.107-1.098 1.617-2.688 3.645-4.885 6.107m2.163-17.18c.17-.124.334-.23.5-.35-.166.12-.33.226-.5.35m.582 10.569a54.417 54.417 0 0 1 .001-.001M99.037 73.832c-.479-.659-1.263-1.036-2.15-1.036.887 0 1.671.377 2.15 1.036" fill="#231F20" fill-rule="nonzero"/><path d="M123.05 46.904s-6.316-.96-11.175 6.059a21.954 21.954 0 0 0 .95 3.147c-1.049-.559-1.836-1.582-3.026-5.495-1.37-4.51-3.378-9.02-9.403-10.062-5.32-.92-12.11 1.878-18.05 2.934a32.78 32.78 0 0 1-1.092.177c-4.87.685-11.964-.763-11.979-.766.003.004 1.37 2.444 4.85 5.256 1.674 1.355 3.833 2.794 6.577 4.092l-.673 1.052-.442.688c-3.893-1.575-8.033-5.233-8.033-5.233s6.994 13.24 14.539 24.874c3.46-.16 6.435-.677 9.027-1.576a5.406 5.406 0 0 1 1.766-.32c1.237 0 2.337.538 3.02 1.477.418.574 1.027 1.807.425 3.611-1.743 5.226-6.125 8.835-12.85 10.724a35.605 35.605 0 0 0-.566 5.979c.185.033.365.074.541.126a30.408 30.408 0 0 1 4.34-5.043c1.323-1.232 2.894-2.463 4.702-3.474l1.012 1.36h-.001v.001s-5.074 2.968-8.334 8.096c.186.163.356.34.506.534 1.26-.643 3.506-1.661 6.78-2.686 2.262-3.13 4.835-6.217 7.832-9.413 9.726-10.368 16.87-13.364 21.478-13.86-4.152-14.755-2.721-22.259-2.721-22.259m-16.123 29.61c-2.14-.22-3.888.443-3.888.443 0-10.433-6.372-23.543-6.372-23.543 15.378-3.19 16.3 7.679 16.3 7.679l3.025-1.503c.128 2.264.725 6.481 1.206 9.64-4.993 2.796-8.63 5.813-10.271 7.284" fill="#D41938" fill-rule="nonzero"/><path d="M114.427 90.591c-.15.15-.285.293-.43.44.145-.147.28-.29.43-.44M126.68 72.2c-1.364.072-2.908.418-4.63 1.106 1.722-.688 3.266-1.034 4.63-1.106m1.016 19.646c1.736-2.238 3.066-4.313 4.04-6.218-.974 1.905-2.304 3.98-4.04 6.218" fill="#231F20" fill-rule="nonzero"/><path d="M133.327 89.144A45.744 45.744 0 0 1 131 92.602c1.953.473 3.73.961 4.655 1.363a175.176 175.176 0 0 1-2.328-4.82" fill="#D41938" fill-rule="nonzero"/><path d="M129.892 92.34a43.412 43.412 0 0 0 2.9-4.352 43.355 43.355 0 0 1-2.9 4.351m-61.714 5.874c.182-.251.27-.478.288-.68-.019.201-.106.429-.288.68m11.749 76.894h1.616l-7.21-42.766c-.563.05-1.117.077-1.66.077-.033 0-.06-.005-.092-.005l.39 2.267 6.956 40.427m-12.854-61.315l1.33-1.802-1.331 1.802m2.064-2.795c-.064.089-.13.174-.194.264.064-.09.13-.175.194-.264m-1.982 17.013c.903.494 2.052.935 3.489 1.155-1.437-.22-2.586-.661-3.49-1.155m-7.617-56.3c1.536.286 3.12.577 4.722.863v-.001a655.538 655.538 0 0 1-4.722-.861l-.214-.04.214.04m17.051 103.396l-5.202-40.241-.33-2.528a14.522 14.522 0 0 1-3.402-.733l6.048 43.502h2.886m-3.915-43.757c-.097 0-.18-.034-.276-.039v.001c.096.004.18.04.276.04a6.26 6.26 0 0 0 1.484-.196v-.001a6.323 6.323 0 0 1-1.484.194M60.736 31.337c0-2.638-2.153-4.777-4.808-4.777-2.656 0-4.809 2.14-4.809 4.777 0 2.082 1.35 3.834 3.22 4.489l4.828 34.734.566.105c1.412.26 2.867.528 4.337.791l-6.043-35.84c1.598-.777 2.709-2.393 2.709-4.279M62.76 94.31h4.29c.321 0 .629.106.92.283-.291-.177-.599-.283-.92-.283h-4.29c-.09 0-.175.02-.264.027.089-.007.174-.027.264-.027m1.713 14.419l.391 2.814.43-.582.055-.073c1.486-2.014 2.987-4.047 4.37-5.926l-.487-2.886a3125.634 3125.634 0 0 0-4.759 6.653m7.634 13.005c.14.047.3.077.457.108-.158-.031-.317-.061-.457-.109-.818-.274-.812-.94.028-2.435-.84 1.495-.846 2.161-.028 2.436m-10.53-33.841l.772 5.553c.137-.005.27-.015.411-.015h4.29c.25 0 .494.018.733.05l-.813-4.818a71.982 71.982 0 0 1-5.393-.77m3.845 24.697l.737-.999-.737.998c-.116.157-.233.303-.349.454.116-.15.233-.297.349-.454m-1.162-5.399" fill="#231F20" fill-rule="nonzero"/><path d="M60.13 35.34a1.07 1.07 0 0 0 .438 1.451c1.853.992 3.988 3.397 4.01 3.421a1.082 1.082 0 0 0 1.522.099c.447-.39.493-1.067.1-1.511-.097-.11-2.41-2.72-4.608-3.896a1.082 1.082 0 0 0-1.462.435M90.1 95.763c.21.42.33.862.38 1.313a187.46 187.46 0 0 1 3.951-1.687 76.027 76.027 0 0 1 2.03-2.952c-3.274 1.024-5.52 2.042-6.78 2.686.158.2.303.41.419.64m7.41-9.271l-1.011-1.36h-.001c-1.808 1.01-3.379 2.24-4.703 3.474a30.368 30.368 0 0 0-4.339 5.042 4.492 4.492 0 0 1 1.719.94c3.258-5.126 8.33-8.094 8.334-8.096m27.338-40.349a.619.619 0 0 0-.508-.705c-1.895-.33-7.893-.717-12.884 6.141-1.173-3.809-2.16-8.21-6.186-10.825-6.403-4.16-14.727-1.233-19.832.03-5.526 1.366-8.8 1.485-16.666.093-1.351-.24-1.99-.004-2.354.385-.405.436-.35 1.118-.025 1.987 1.447 3.87 13.022 23.741 17.035 30.433.089 0 .18.006.27.006a50.9 50.9 0 0 0 2.396-.06c-7.545-11.636-14.539-24.875-14.539-24.875s4.14 3.659 8.033 5.234l.442-.69.674-1.051c-2.745-1.298-4.903-2.737-6.58-4.092-3.479-2.811-4.845-5.252-4.848-5.256v-.001s7.104 1.452 11.98.766c.36-.05.724-.11 1.09-.176 5.942-1.056 12.732-3.854 18.052-2.934 6.024 1.041 8.031 5.553 9.402 10.062 1.19 3.913 1.978 4.936 3.026 5.495a18.664 18.664 0 0 1-.506-1.464 21.476 21.476 0 0 1-.444-1.683c4.86-7.018 11.175-6.059 11.175-6.059s-1.43 7.504 2.721 22.259c.513-.057.996-.082 1.445-.082.129 0 .252.012.378.016-2.249-7.713-3.81-16.11-2.747-22.954m7.944 41.845c.275-.476.534-.948.773-1.413v-.001a32.9 32.9 0 0 1-.773 1.414m.536 1.156c.73 1.568 1.497 3.168 2.328 4.821-.925-.402-2.702-.89-4.655-1.363a55.338 55.338 0 0 1-1.173 1.533c2.485.502 5.351 1.359 6.653 1.764a54.24 54.24 0 0 1 1.01-.727l-3.374-7.389c-.245.45-.512.904-.789 1.361M85.982 94.19c.44 0 .855.184 1.243.5-.388-.316-.803-.5-1.243-.5h-1.045 1.045m40.312-.612a60.9 60.9 0 0 0 1.403-1.732h-.001c-.44.566-.91 1.146-1.402 1.732m-7.428-2.604a106.73 106.73 0 0 1-1.579 1.727h.001c.543-.583 1.07-1.16 1.578-1.727l.075-.084h-.001c-.026.028-.048.056-.074.084M85.002 88.14l-.058.438-.327 4.853h1.365a5.3 5.3 0 0 1 .934.091 35.56 35.56 0 0 1 .566-5.979 35.05 35.05 0 0 1-2.48.598m.15-1.119v.001m43.415-14.735" fill="#231F20" fill-rule="nonzero"/><path d="M112.966 61.093s-.921-10.87-16.3-7.679c0 0 6.374 13.11 6.374 23.543 0 0 1.747-.663 3.887-.443 1.64-1.471 5.279-4.488 10.272-7.285-.482-3.158-1.078-7.375-1.208-9.639l-3.025 1.503M95.952 167.711c-1.79 2.11-2.607 5.5-2.64 5.643a1.071 1.071 0 0 0 1.05 1.317c.49 0 .934-.333 1.05-.827.007-.03.73-3.03 2.19-4.75a1.067 1.067 0 0 0-.13-1.511 1.084 1.084 0 0 0-1.52.128m1.673-9.267c-1.263 4.948-1.01 6.477-.107 7 .838.486 2.332-.322 5.72-.64 5.894-.554 11.508.306 18.783 1.29 6.933.938 11.028.246 13.785-2.303a6.054 6.054 0 0 0 1.321-1.734l.002-.003c1.38-2.751.315-6.295-1.946-9.932 0 0 5.758-3.115 13.208-4.403a.544.544 0 0 0 .369-.829c-1.385-2.143-5.626-8.85-8.3-14.631-.407.01-.818.019-1.233.019-.224 0-.44-.01-.663-.012 1.516 3.106 4.848 9.76 7.747 14.32-1.856.405-4.473 1.143-6.753 1.971-3.186 1.159-6.11 2.167-7.692 1.745 0 0 6.163 7.785 3.26 11.621-2.233 2.95-7.137 3.267-12.837 2.558-2.436-.303-5.037-.763-7.726-1.137l-.029-.004c-4.138-.574-8.485-.93-12.784-.188l-.07.012c-.752.132-1.505.288-2.254.493 0-2.723 5.996-6.983 5.561-9.945-2.175 3.02-5.452 5.804-5.452 5.804s2.196-5.698.79-21.766c0 0 .89 3.78 4.06 5.595l-.226-2.31s-3.03-2.557-3.409-8.75a19.134 19.134 0 0 1-2.885-.061c.521 6.78 1.672 18.72-.24 26.22m40.693-29.284c-.166-.007-.333-.02-.5-.029.167.01.334.022.5.03m-37.768.027c.17-.008.329-.008.5-.018-.171.01-.333.01-.5.018" fill="#231F20" fill-rule="nonzero"/><path d="M118.325 149.197c9.51 2.29 11.112-1.115 15.548-1.107-.28-2.413-3.474-3.798-3.387-6.262.063-1.76 1.87-2.625 3.272-2.733l-2.085-4.889s-6.294-.747-12.501-5.745a36.113 36.113 0 0 1-3.997 2.196s3.77 9.483 3.15 18.54" fill="#231F20" fill-rule="nonzero"/><path d="M186.406 117.414l.025-.034 12.501-17.327c.987-1.309 1.17-2.919.48-4.29-.725-1.438-2.303-2.332-4.118-2.332h-3.97c-1.186 0-2.247.23-3.165.685-1.69-1.126-3.935-1.717-6.55-1.717-3.485 0-7.397 1.032-10.733 2.83-5.36 2.891-10.77 8.678-15.644 16.736-.71 1.173-1.44 2.18-2.186 3.017.382-5.067-.467-10.356-1.335-14.167l-.013-.057a8.194 8.194 0 0 1-.044-.193c-.049-.232.017-.32.082-.386.558-.56.974-.852 1.55-1.26.326-.228.689-.484 1.106-.807 1.66-1.283 1.788-3.071 1.394-4.213-1.074-3.107-5.605-3.348-6.967-3.348-2.836 0-6.026 1.166-9.823 3.61a47.133 47.133 0 0 0-2.516 1.738c-.566.417-1.149.863-1.742 1.333-.102.08-.202.156-.305.238a524.089 524.089 0 0 1-6.714 5.283 368.338 368.338 0 0 1-5.172 3.925 272.585 272.585 0 0 1-3.18 2.33c-7.157 5.154-13.583 9.146-17.429 10.009-.191.043-.453-.091-.126-.354.151-.122.674-.508.907-.67a190.73 190.73 0 0 0 9.468-6.959 160.71 160.71 0 0 0 2.497-2.002 140.668 140.668 0 0 0 3.277-2.763c4.184-3.639 7.732-7.18 10.586-10.564A65.29 65.29 0 0 0 131 92.602a46.003 46.003 0 0 0 2.328-3.458 36.1 36.1 0 0 0 .788-1.36c.382-.698.723-1.383 1.028-2.058.988-2.186 1.575-4.25 1.731-6.165.261-3.202-.668-5.92-2.687-7.863-1.264-1.216-2.853-2.017-4.662-2.383a11.446 11.446 0 0 0-1.932-.218c-.126-.005-.25-.016-.377-.016-.45 0-.933.025-1.446.082-4.607.495-11.752 3.492-21.478 13.86-2.997 3.196-5.57 6.282-7.832 9.413v.001a76.546 76.546 0 0 0-2.03 2.952 71.984 71.984 0 0 0-1.637 2.624c-2.46 4.145-4.494 8.513-6.301 13.437-3.746 3.789-7.373 5.799-9.93 6.726.23-.336.442-.638.606-.874 3.06-4.39 11.222-15.598 12.442-17.236.213-.283.38-.581.52-.885a4.032 4.032 0 0 0 .35-2.105c-.05-.45-.17-.894-.382-1.313-.115-.23-.26-.44-.417-.64a3.971 3.971 0 0 0-.507-.536 4.51 4.51 0 0 0-1.719-.94 5.006 5.006 0 0 0-.541-.125 5.247 5.247 0 0 0-.933-.091h-4.37c-3.568 0-5.052 2.06-5.849 3.167l-.235.322a.594.594 0 0 0-.03.045l-.032.048c-.556.846-2.184 3.093-4.27 5.938a1561.6 1561.6 0 0 1-1.477 2.011 5188.426 5188.426 0 0 1-4.37 5.926l-.055.073-.43.582-.307.417a23.515 23.515 0 0 1-1.232 1.522c-1.714 1.964-3.487 3.357-4.776 4.015-.426.216-.262-.088-.13-.274a6132.537 6132.537 0 0 1 10.813-15.147 566.802 566.802 0 0 1 1.479-2.053c.982-1.357 1.152-2.971.458-4.317a3.97 3.97 0 0 0-1.455-1.55 4.787 4.787 0 0 0-1.932-.675 5.518 5.518 0 0 0-.732-.05h-4.29c-.14 0-.274.01-.412.015-.623.02-1.216.087-1.78.202-1.494.303-2.795.929-3.93 1.906-.233.2-.473.41-.723.628-1.497 1.307-3.244 2.832-5.459 4.194l.142-.22c4.558-7.028 7.147-10.926 8.654-12.741a53.016 53.016 0 0 0 2.324.478 72.066 72.066 0 0 0 7.24.941c1.884.153 3.873.246 5.904.246 3.07 0 5.875-.213 8.44-.61a41.175 41.175 0 0 0 1.842-.33 34.6 34.6 0 0 0 2.48-.597c6.725-1.889 11.107-5.498 12.85-10.723.602-1.805-.008-3.037-.426-3.611-.683-.94-1.783-1.478-3.02-1.478a5.42 5.42 0 0 0-1.766.32c-2.591.9-5.568 1.415-9.027 1.576a51.53 51.53 0 0 1-2.396.061c-.09 0-.18-.007-.271-.007a62.112 62.112 0 0 1-2.115-.051c-4.98-.197-10.27-.957-15.368-1.841a699.856 699.856 0 0 1-6.776-1.229l-1.856-.343c-5.898-1.082-11.42-2.007-15.944-2.007-8.15 0-18.322 1.137-24.693 9.998-.874 1.214-1.007 2.758-.348 4.029.628 1.215 1.883 1.968 3.274 1.968.183 0 .37-.013.554-.04 4.043-.572 7.98-.861 11.7-.861 3.361 0 6.505.23 9.37.685-5.585 7.963-12.409 18.738-15.07 22.94l-.59.932c-.106.165-.234.37-.383.61-5.568 8.913-8.886 11.694-10.689 12.458-1.322.561-2.6.834-3.902.834-1.574 0-3.193-.394-4.95-1.203a4.588 4.588 0 0 0-1.926-.447c-1.383 0-2.599.702-3.25 1.88-.693 1.251-.604 2.84.229 4.144 3.197 5.002 11.387 9.229 17.884 9.23.865 0 1.693-.077 2.463-.227 4.284-.831 7.127-2.436 12.655-9.747 3.682-4.87 7.89-11.248 11.281-16.492.803.496 1.743.888 2.64 1.151-.385.562-.703 1.023-.927 1.343-4.613 6.581-4.574 11.27-3.728 14.044.843 2.763 2.82 4.875 5.568 5.947 1.463.571 3.11.86 4.896.86 4.365 0 8.438-1.672 10.487-2.677a12.37 12.37 0 0 0 1.815 1.19c.574.311 1.214.599 1.926.846.995.346 2.122.61 3.403.733.487.046.994.072 1.525.076.031 0 .06.003.09.003.545 0 1.1-.026 1.663-.077.582-.051 1.174-.13 1.777-.235 3.667-.64 7.689-2.269 12.01-4.867 1.386 1.73 3.865 3.881 7.927 4.717a19.019 19.019 0 0 0 4.702.33c5.445-.286 11.804-2.705 18.93-7.203 4.173 4.588 10.672 7.057 18.884 7.183.222.004.44.013.662.013a47.33 47.33 0 0 0 3.166-.113c5.933-.401 10.822-1.821 13.268-2.66 1.47 1.354 3.248 2.262 5.069 2.577a15.05 15.05 0 0 0 2.56.214c3.577 0 6.862-1.167 9.196-2.292 1.3 1.427 3.116 2.204 5.206 2.204 2.34 0 4.997-.996 7.9-2.96 2.029-1.37 3.645-2.965 4.94-4.87 1.442-2.124.957-3.75.539-4.53-.638-1.194-1.878-1.907-3.318-1.907-.658 0-1.346.145-2.088.44.213-.289.449-.598.71-.926l.032-.04zm-46.851.385a4.33 4.33 0 0 1-1.184 1.099c-.986.63-2.1.802-2.981.802-1.056 0-2.14-.238-3.156-.648a9.281 9.281 0 0 1-3-1.945 1227.757 1227.757 0 0 1 5.829-4.635l.431-.343.203-.159a711.516 711.516 0 0 1 4.906-3.841c.466 3.155.613 7.409-1.048 9.67zm41.322-12.978c-.54.74-1.517 2.073-2.63 3.564-1.44 1.928-3.109 4.118-4.347 5.62-.421.51-.897.989-1.394 1.448-1.52 1.4-3.278 2.521-4.684 3.157a8.886 8.886 0 0 1-1.146.444.443.443 0 0 1-.446-.12.418.418 0 0 1-.118-.332c.051-.562.26-1.411.787-2.545.327-.702.78-1.515 1.395-2.44a31.923 31.923 0 0 1 2.22-2.924c1.625-1.92 3.555-3.41 5.336-4.482 1.903-1.145 3.637-1.812 4.644-1.995.018-.003.034-.003.051-.004l.024-.002a.37.37 0 0 1 .278.14.359.359 0 0 1 .058.394c-.011.027-.01.052-.028.077z" fill="#FFF" fill-rule="nonzero"/><path d="M186.406 117.414l.025-.034 12.501-17.327c.987-1.309 1.17-2.919.48-4.29-.725-1.438-2.303-2.332-4.118-2.332h-3.97c-1.186 0-2.247.23-3.165.685-1.69-1.126-3.935-1.717-6.55-1.717-3.485 0-7.397 1.032-10.733 2.83-5.36 2.891-10.77 8.678-15.644 16.736-.71 1.173-1.44 2.18-2.186 3.017.382-5.067-.467-10.356-1.335-14.167l-.013-.057a8.194 8.194 0 0 1-.044-.193c-.049-.232.017-.32.082-.386.558-.56.974-.852 1.55-1.26.326-.228.689-.484 1.106-.807 1.66-1.283 1.788-3.071 1.394-4.213-1.074-3.107-5.605-3.348-6.967-3.348-2.836 0-6.026 1.166-9.823 3.61a47.133 47.133 0 0 0-2.516 1.738c-.566.417-1.149.863-1.742 1.333-.102.08-.202.156-.305.238a524.089 524.089 0 0 1-6.714 5.283 368.338 368.338 0 0 1-5.172 3.925 272.585 272.585 0 0 1-3.18 2.33c-7.157 5.154-13.583 9.146-17.429 10.009-.191.043-.453-.091-.126-.354.151-.122.674-.508.907-.67a190.73 190.73 0 0 0 9.468-6.959 160.71 160.71 0 0 0 2.497-2.002 140.668 140.668 0 0 0 3.277-2.763c4.184-3.639 7.732-7.18 10.586-10.564A65.29 65.29 0 0 0 131 92.602a46.003 46.003 0 0 0 2.328-3.458 36.1 36.1 0 0 0 .788-1.36c.382-.698.723-1.383 1.028-2.058.988-2.186 1.575-4.25 1.731-6.165.261-3.202-.668-5.92-2.687-7.863-1.264-1.216-2.853-2.017-4.662-2.383a11.446 11.446 0 0 0-1.932-.218c-.126-.005-.25-.016-.377-.016-.45 0-.933.025-1.446.082-4.607.495-11.752 3.492-21.478 13.86-2.997 3.196-5.57 6.282-7.832 9.413v.001a76.546 76.546 0 0 0-2.03 2.952 71.984 71.984 0 0 0-1.637 2.624c-2.46 4.145-4.494 8.513-6.301 13.437-3.746 3.789-7.373 5.799-9.93 6.726.23-.336.442-.638.606-.874 3.06-4.39 11.222-15.598 12.442-17.236.213-.283.38-.581.52-.885a4.032 4.032 0 0 0 .35-2.105c-.05-.45-.17-.894-.382-1.313-.115-.23-.26-.44-.417-.64a3.971 3.971 0 0 0-.507-.536 4.51 4.51 0 0 0-1.719-.94 5.006 5.006 0 0 0-.541-.125 5.247 5.247 0 0 0-.933-.091h-4.37c-3.568 0-5.052 2.06-5.849 3.167l-.235.322a.594.594 0 0 0-.03.045l-.032.048c-.556.846-2.184 3.093-4.27 5.938a1561.6 1561.6 0 0 1-1.477 2.011 5188.426 5188.426 0 0 1-4.37 5.926l-.055.073-.43.582-.307.417a23.515 23.515 0 0 1-1.232 1.522c-1.714 1.964-3.487 3.357-4.776 4.015-.426.216-.262-.088-.13-.274a6132.537 6132.537 0 0 1 10.813-15.147 566.802 566.802 0 0 1 1.479-2.053c.982-1.357 1.152-2.971.458-4.317a3.97 3.97 0 0 0-1.455-1.55 4.787 4.787 0 0 0-1.932-.675 5.518 5.518 0 0 0-.732-.05h-4.29c-.14 0-.274.01-.412.015-.623.02-1.216.087-1.78.202-1.494.303-2.795.929-3.93 1.906-.233.2-.473.41-.723.628-1.497 1.307-3.244 2.832-5.459 4.194l.142-.22c4.558-7.028 7.147-10.926 8.654-12.741a53.016 53.016 0 0 0 2.324.478 72.066 72.066 0 0 0 7.24.941c1.884.153 3.873.246 5.904.246 3.07 0 5.875-.213 8.44-.61a41.175 41.175 0 0 0 1.842-.33 34.6 34.6 0 0 0 2.48-.597c6.725-1.889 11.107-5.498 12.85-10.723.602-1.805-.008-3.037-.426-3.611-.683-.94-1.783-1.478-3.02-1.478a5.42 5.42 0 0 0-1.766.32c-2.591.9-5.568 1.415-9.027 1.576a51.53 51.53 0 0 1-2.396.061c-.09 0-.18-.007-.271-.007a62.112 62.112 0 0 1-2.115-.051c-4.98-.197-10.27-.957-15.368-1.841a699.856 699.856 0 0 1-6.776-1.229l-1.856-.343c-5.898-1.082-11.42-2.007-15.944-2.007-8.15 0-18.322 1.137-24.693 9.998-.874 1.214-1.007 2.758-.348 4.029.628 1.215 1.883 1.968 3.274 1.968.183 0 .37-.013.554-.04 4.043-.572 7.98-.861 11.7-.861 3.361 0 6.505.23 9.37.685-5.585 7.963-12.409 18.738-15.07 22.94l-.59.932c-.106.165-.234.37-.383.61-5.568 8.913-8.886 11.694-10.689 12.458-1.322.561-2.6.834-3.902.834-1.574 0-3.193-.394-4.95-1.203a4.588 4.588 0 0 0-1.926-.447c-1.383 0-2.599.702-3.25 1.88-.693 1.251-.604 2.84.229 4.144 3.197 5.002 11.387 9.229 17.884 9.23.865 0 1.693-.077 2.463-.227 4.284-.831 7.127-2.436 12.655-9.747 3.682-4.87 7.89-11.248 11.281-16.492.803.496 1.743.888 2.64 1.151-.385.562-.703 1.023-.927 1.343-4.613 6.581-4.574 11.27-3.728 14.044.843 2.763 2.82 4.875 5.568 5.947 1.463.571 3.11.86 4.896.86 4.365 0 8.438-1.672 10.487-2.677a12.37 12.37 0 0 0 1.815 1.19c.574.311 1.214.599 1.926.846.995.346 2.122.61 3.403.733.487.046.994.072 1.525.076.031 0 .06.003.09.003.545 0 1.1-.026 1.663-.077.582-.051 1.174-.13 1.777-.235 3.667-.64 7.689-2.269 12.01-4.867 1.386 1.73 3.865 3.881 7.927 4.717a19.019 19.019 0 0 0 4.702.33c5.445-.286 11.804-2.705 18.93-7.203 4.173 4.588 10.672 7.057 18.884 7.183.222.004.44.013.662.013a47.33 47.33 0 0 0 3.166-.113c5.933-.401 10.822-1.821 13.268-2.66 1.47 1.354 3.248 2.262 5.069 2.577a15.05 15.05 0 0 0 2.56.214c3.577 0 6.862-1.167 9.196-2.292 1.3 1.427 3.116 2.204 5.206 2.204 2.34 0 4.997-.996 7.9-2.96 2.029-1.37 3.645-2.965 4.94-4.87 1.442-2.124.957-3.75.539-4.53-.638-1.194-1.878-1.907-3.318-1.907-.658 0-1.346.145-2.088.44.213-.289.449-.598.71-.926l.032-.04zm3.235 6.368a16.446 16.446 0 0 1-2.677 3.027 18.522 18.522 0 0 1-1.977 1.56c-2.721 1.84-5.176 2.773-7.296 2.773-2.295 0-3.934-1.067-4.91-2.48a25.41 25.41 0 0 1-2.98 1.324c-1.895.696-4.14 1.246-6.511 1.246a14.14 14.14 0 0 1-2.377-.2 8.3 8.3 0 0 1-2.012-.625 9.205 9.205 0 0 1-1.26-.7 10.022 10.022 0 0 1-1.706-1.43 48.29 48.29 0 0 1-5.427 1.591c-3.383.786-7.292 1.344-11.282 1.344-3.25 0-6.214-.364-8.864-1.08-4.414-1.194-7.952-3.364-10.476-6.448-2.424 1.57-4.755 2.896-6.985 3.98-4.908 2.382-9.338 3.585-13.235 3.585-3.52 0-6.277-.988-8.327-2.438a11.56 11.56 0 0 1-2.939-2.996c-4.529 2.831-8.702 4.58-12.467 5.238-.603.105-1.196.182-1.777.232-.503.041-.998.067-1.484.067-.096 0-.18-.012-.276-.014a15.28 15.28 0 0 1-1.483-.09 13.196 13.196 0 0 1-3.427-.845 11.715 11.715 0 0 1-1.946-.99c-.36-.228-.682-.459-.968-.688a10.803 10.803 0 0 1-.509-.428c-2.535 1.333-6.574 2.884-10.638 2.884-.66 0-1.293-.053-1.907-.138a11.832 11.832 0 0 1-1.857-.403c-.25-.077-.5-.153-.74-.246-1.624-.633-2.935-1.683-3.855-3.031a8.196 8.196 0 0 1-1.078-2.232 9.475 9.475 0 0 1-.394-2.92c.038-2.53.972-5.923 3.975-10.207.16-.228.376-.541.62-.897.097-.142.2-.29.308-.45.273-.398.571-.834.9-1.318-.974-.105-2.146-.462-3.151-.956-.603-.297-1.146-.645-1.551-1.019l-1.175 1.817c-3.414 5.265-7.271 11.063-10.682 15.573-2.74 3.622-4.796 5.986-7.17 7.488-1.425.9-2.964 1.49-4.834 1.852a11.75 11.75 0 0 1-2.256.207c-6.071 0-14.006-4.082-16.98-8.735a3.453 3.453 0 0 1-.208-.374 3.233 3.233 0 0 1-.313-1.18 2.836 2.836 0 0 1 .002-.395 2.67 2.67 0 0 1 .324-1.11 2.54 2.54 0 0 1 .588-.71 2.648 2.648 0 0 1 1.723-.62c.298 0 .605.052.915.143.185.054.372.12.56.205 1.901.876 3.667 1.302 5.4 1.302 1.452 0 2.866-.3 4.324-.918 1.06-.45 2.252-1.34 3.57-2.665.22-.22.443-.452.67-.697 1.585-1.714 3.34-4.018 5.257-6.902a109.65 109.65 0 0 0 1.682-2.613l.378-.603.591-.934c1.176-1.855 3.094-4.883 5.34-8.362 2.42-3.747 5.22-8.017 7.886-11.91.19-.28.38-.555.568-.829a249.463 249.463 0 0 1 2.212-3.16 51.374 51.374 0 0 0-5.477-.751 65.84 65.84 0 0 0-5.736-.245c-3.77 0-7.758.293-11.852.873-.037.005-.071.004-.108.008-.1.01-.2.02-.294.02a2.6 2.6 0 0 1-2.472-1.74 2.62 2.62 0 0 1-.141-.742 2.862 2.862 0 0 1 .345-1.488c.063-.117.135-.231.214-.343a21.164 21.164 0 0 1 2.127-2.515c6.092-6.17 14.665-7.036 21.694-7.036 4.409 0 9.843.907 15.657 1.972l.441.082c.616.113 1.235.226 1.857.342l.214.04c1.536.285 3.12.576 4.721.862.623.11 1.244.219 1.873.327 5.227.898 10.64 1.653 15.737 1.807.61.019 1.227.046 1.827.046h.003l.032-.001c1.054 0 2.063-.033 3.038-.091 3.302-.198 6.174-.725 8.707-1.605a4.984 4.984 0 0 1 .843-.205c.195-.032.387-.055.57-.055.887 0 1.67.376 2.15 1.036a2.55 2.55 0 0 1 .474 1.38c.011.245-.009.514-.07.81a4.153 4.153 0 0 1-.128.462c-.864 2.594-2.453 4.756-4.695 6.49-1.854 1.435-4.15 2.578-6.896 3.404a32.19 32.19 0 0 1-2.57.645c-.601.128-1.219.246-1.855.35-2.585.42-5.439.643-8.577.643-2.1 0-4.151-.1-6.086-.264a78.532 78.532 0 0 1-1.847-.178 69.206 69.206 0 0 1-5.365-.795 47.228 47.228 0 0 1-2.553-.552c-1.49 1.621-4.051 5.456-9.172 13.353-.68 1.05-1.452 2.252-2.287 3.554 4.123-1.716 6.922-4.152 9.214-6.152l.179-.156c.182-.159.364-.318.537-.467a7.416 7.416 0 0 1 3.368-1.652l.007-.002a9.67 9.67 0 0 1 1.78-.2c.09-.003.174-.01.265-.01h4.29c.321 0 .629.037.92.098.859.181 1.572.614 2.027 1.247.08.112.154.228.219.351a2.695 2.695 0 0 1 .306 1.18c.007.272-.025.546-.096.82-.107.411-.303.82-.586 1.21l-1.28 1.775a2475.819 2475.819 0 0 0-4.3 6.014c-.508.71-1.015 1.423-1.515 2.123l-1.056 1.484c-1.72 2.417-3.233 4.548-4.07 5.73-.09.127-.168.245-.246.364-.17.254-.316.488-.438.702-.14.243-.257.464-.346.656a.478.478 0 0 0 .55.66c.236-.062.493-.14.769-.24.965-.347 2.162-.944 3.46-1.916a18.38 18.38 0 0 0 2.147-1.907 21.74 21.74 0 0 0 1.558-1.804c.116-.15.233-.296.349-.453l.736-.998 1.69-2.288c1.961-2.658 3.863-5.24 5.387-7.328 1.524-2.089 2.672-3.687 3.13-4.381l.03-.047s.023-.03.05-.069c.056-.075.143-.197.189-.258.269-.374.587-.811 1.008-1.226.804-.793 1.99-1.498 3.97-1.498h4.37c.44 0 .855.071 1.243.195.85.27 1.543.81 1.916 1.55.19.375.288.778.296 1.187a3.086 3.086 0 0 1-.383 1.518c-.088.165-.186.33-.304.487-.42.562-1.662 2.259-3.236 4.422-3.004 4.13-7.218 9.96-9.225 12.839l-.212.304c-.537.773-1.347 1.95-1.91 2.874 2.398-.255 6.749-1.973 11.298-5.981a36.427 36.427 0 0 0 1.956-1.862c1.376-3.774 2.892-7.218 4.627-10.487 3.313-6.241 7.44-11.834 13.03-17.792 10.546-11.244 17.86-13.604 22.139-13.604 1.56 0 2.987.313 4.222.919.74.363 1.412.83 2.005 1.398 1.186 1.143 1.935 2.607 2.24 4.303.094.53.156 1.078.161 1.652.004.345-.009.697-.039 1.056-.122 1.512-.526 3.12-1.198 4.815a26.076 26.076 0 0 1-1.044 2.286c-.239.465-.498.937-.772 1.412a43.42 43.42 0 0 1-2.9 4.353 61.677 61.677 0 0 1-2.588 3.209 86.606 86.606 0 0 1-5.679 5.953c-5.222 5.009-11.783 10.276-19.518 15.616-.123.086-.247.173-.368.261-.487.353-.945.722-1.288 1.074-.257.263-.45.517-.54.747a.961.961 0 0 0-.077.394.586.586 0 0 0 .053.212c.076.178.238.304.468.35.062.012.13.019.202.02.012 0 .026-.004.039-.004 4.407.025 12.658-5.193 22.101-12.232a329.315 329.315 0 0 0 3.39-2.563 479.036 479.036 0 0 0 4.436-3.444 770.35 770.35 0 0 0 4.583-3.633 70.312 70.312 0 0 1 2.078-1.596c4.71-3.462 8.445-5.088 11.635-5.088.526 0 2.382.048 3.911.697.918.388 1.718.993 2.042 1.931.072.212.12.45.131.699.02.439-.082.918-.343 1.38a3.107 3.107 0 0 1-.827.95c-.2.153-.388.293-.565.422-.178.128-.344.245-.5.356-.505.355-.924.657-1.417 1.116-.09.085-.18.165-.277.263a1.37 1.37 0 0 0-.406.893c-.009.138.001.29.037.458.004.025.012.059.02.094l.01.044.03.131c.743 3.26 1.4 7.269 1.406 11.264.003 1.815-.127 3.629-.446 5.367.212-.146.437-.317.665-.502a13.717 13.717 0 0 0 1.743-1.714 21.563 21.563 0 0 0 2.118-2.952c1.792-2.96 3.651-5.605 5.55-7.903 3.167-3.83 6.442-6.693 9.687-8.444a22.84 22.84 0 0 1 3.116-1.378c2.358-.85 4.828-1.324 7.105-1.324 2.716 0 4.95.68 6.479 1.924.762-.514 1.787-.892 3.237-.892h3.97c.44 0 .855.071 1.242.195.85.27 1.543.81 1.916 1.55.19.375.287.778.296 1.187.015.682-.218 1.382-.687 2.005l-8.825 12.23-3.677 5.096-.029.037a30.6 30.6 0 0 0-1.039 1.389 21.767 21.767 0 0 0-1.332 2.09v.001c.96-.186 2.003-.498 2.496-.729.778-.365 1.463-.54 2.096-.54 1.036 0 1.922.5 2.372 1.34a2.6 2.6 0 0 1 .296 1.308c-.017.58-.214 1.296-.779 2.127z" fill="#223A6A" fill-rule="nonzero"/><path d="M139.555 117.8c1.661-2.262 1.514-6.516 1.048-9.67v-.001a711.516 711.516 0 0 0-4.906 3.841l-.203.16c-.144.113-.289.228-.431.342l-.678.534a1306.4 1306.4 0 0 0-5.15 4.1 9.281 9.281 0 0 0 3 1.945c1.015.411 2.099.649 3.155.649.88 0 1.995-.172 2.981-.802a4.33 4.33 0 0 0 1.184-1.099m-1.885.289c-.49.285-1.065.461-1.728.521a5.936 5.936 0 0 1-.552.026c-.231 0-.465-.018-.7-.044-1.305-.143-2.662-.67-3.774-1.461a1175.834 1175.834 0 0 1 4.587-3.646l1.784-1.408c.82-.645 1.65-1.296 2.472-1.938.269 3.207-.103 5.717-1.07 7.034-.28.38-.62.684-1.02.916m-15.983-33.81c-1.753 1.279-3.96 3.095-6.398 5.465-.284.276-.57.556-.86.848-.15.15-.286.293-.432.441a87.78 87.78 0 0 0-3.146 3.375 74.454 74.454 0 0 0-4.531 5.719h.001a80.906 80.906 0 0 0 6.47-5.739 94.912 94.912 0 0 0 1.676-1.682c.955-.987 1.911-2.012 2.87-3.083a84.834 84.834 0 0 0 1.824-2.106 53.852 53.852 0 0 0 2.525-3.237v-.001m59.192 20.542c.018-.024.017-.05.028-.076a.359.359 0 0 0-.058-.393.368.368 0 0 0-.278-.141l-.024.002a.281.281 0 0 0-.05.004c-1.008.183-2.742.85-4.645 1.995-1.781 1.072-3.71 2.562-5.336 4.482a31.923 31.923 0 0 0-2.22 2.924 18.704 18.704 0 0 0-1.395 2.44c-.527 1.134-.736 1.983-.787 2.545a.418.418 0 0 0 .118.332.447.447 0 0 0 .446.12c.335-.096.73-.256 1.146-.444 1.406-.636 3.164-1.756 4.684-3.157.497-.46.973-.939 1.394-1.447 1.238-1.503 2.906-3.693 4.347-5.621a405.14 405.14 0 0 0 2.63-3.564m-12.943 12.559c-.51.25-.404-.064-.334-.241.487-1.238 1.525-3.15 3.735-5.761 2.37-2.799 5.35-4.582 7.42-5.47-1.65 2.235-4.045 5.436-5.684 7.422-1.484 1.798-3.53 3.265-5.137 4.05M52.339 91.805c2.609-3.93 4.018-5.88 5.077-7.016.07-.074.145-.142.222-.201.018-.014.038-.024.057-.038.06-.042.12-.084.182-.119l.033-.015a2.081 2.081 0 0 1 1.349-.185c.028.006.058.01.084.017.535.134 1.133.268 1.783.4 1.514.309 3.324.6 5.308.834.603.07 1.217.137 1.85.195 4.77.44 10.303.478 15.299-.43.63-.113 1.25-.24 1.86-.385.835-.2 1.647-.434 2.432-.697 4.496-1.506 8.086-4.095 9.495-8.321.167-.498.098-.764-.077-.898-.269-.205-.793-.091-1.143.03-4.306 1.494-9.217 1.93-14.363 1.775-4.988-.151-10.197-.86-15.298-1.723a316.29 316.29 0 0 1-1.872-.323 574.19 574.19 0 0 1-5-.91l-1.856-.344c-6.188-1.143-11.885-2.143-16.393-2.143-3.993 0-7.764.321-11.167 1.269-4.378 1.22-8.146 3.479-10.988 7.431-.316.44-.194.945.206 1.065.086.026.182.04.294.024 9.177-1.299 16.12-.963 20.669-.362 2.067.274 3.64.602 4.703.857.589.14 1.357.468.745 1.305-.466.638-.95 1.314-1.445 2.013-4.886 6.898-10.942 16.348-14.254 21.562l-1.928 3.041c-1.128 1.778-4.994 8.25-9.145 11.993-1.109 1-2.239 1.807-3.342 2.275-1.7.72-3.47 1.112-5.353 1.079h-.006l-.035-.003a12.98 12.98 0 0 1-1.728-.158c-1.358-.212-2.775-.64-4.267-1.327-.897-.414-1.285.047-1.186.622.027.157.084.323.186.481 2.946 4.612 11.691 8.678 17.114 7.623.53-.103 1.028-.224 1.502-.37 2.498-.768 4.346-2.205 6.714-4.993a48.561 48.561 0 0 0 1.243-1.52c.415-.525.843-1.08 1.3-1.684 1.211-1.6 2.482-3.374 3.77-5.226a357.9 357.9 0 0 0 5.941-8.863c2.716-4.165 5.216-8.112 7.064-10.963a757.835 757.835 0 0 1 4.364-6.674" fill="#223A6A" fill-rule="nonzero"/><path d="M186.997 123.89c.408-.48.717-.907.948-1.246.441-.65.529-1.15.313-1.408-.139-.167-.41-.222-.797-.157a3.67 3.67 0 0 0-.932.307c-1.335.626-5.102 1.538-5.738.822-1.147-1.286 2.747-6.186 3.133-6.672l7.226-10.018 5.27-7.305c.331-.438.34-.823.158-1.118-.214-.347-.697-.565-1.284-.565h-3.969c-2.02 0-2.643.947-3.373 1.958-.535-1.266-1.677-2.105-3.175-2.564l-.014-.004c-3.297-1.004-8.314-.169-12.398 2.034-.56.302-1.128.645-1.7 1.026-2.06 1.374-4.19 3.264-6.34 5.697a47.25 47.25 0 0 0-2.127 2.584 66.12 66.12 0 0 0-3.811 5.526c-.161.258-.32.51-.48.775-.188.309-.375.6-.562.884-4.49 6.828-8.734 6.378-8.734 6.378.83-2.035 1.221-4.337 1.35-6.633l.018-.323a33.7 33.7 0 0 0 .034-1.417v-.04a40.891 40.891 0 0 0-.2-3.986 44.651 44.651 0 0 0-.266-2.22 58.726 58.726 0 0 0-.179-1.165c-.334-2.03-.69-3.474-.768-3.841a3.445 3.445 0 0 1 .919-3.2c1.108-1.114 1.84-1.469 2.956-2.332 1.37-1.059-1.144-2.017-3.657-2.017-1.911 0-5.165.708-11.114 5.214-.425.322-.86.66-1.315 1.022a880.69 880.69 0 0 1-3.043 2.419c-10.811 8.548-20.348 15.548-27.13 18.454-3.388 1.452-6.09 1.884-7.918.975-2.94-1.462-.2-4.324 2.64-6.286a206.866 206.866 0 0 0 6.631-4.781 174.267 174.267 0 0 0 3.288-2.53c5.924-4.688 10.555-9.032 14.061-12.969a67.101 67.101 0 0 0 2.778-3.322c1.735-2.238 3.065-4.313 4.04-6.218.305-.596.583-1.18.817-1.74.408-.975.703-1.893.908-2.76.753-3.188.187-5.635-1.442-7.202a5.849 5.849 0 0 0-1.355-.965 6.805 6.805 0 0 0-2.097-.673 8.977 8.977 0 0 0-1.888-.088c-1.363.072-2.907.418-4.629 1.106-.219.088-.442.184-.667.282-.094.042-.184.078-.28.121-3.996 1.819-8.867 5.393-14.527 11.427a106.957 106.957 0 0 0-3.887 4.37 80.511 80.511 0 0 0-3.208 4.058 72.942 72.942 0 0 0-1.706 2.408c-3.476 5.118-6.2 10.551-8.574 17.152-5.249 5.5-11.116 8.38-14.812 8.767-.693.073-1.303.054-1.826-.049-.157-.03-.316-.06-.456-.108-.819-.275-.812-.94.028-2.436.165-.294.364-.622.594-.983a82.127 82.127 0 0 1 1.877-2.779c.738-1.06 1.794-2.544 2.983-4.204 2.983-4.16 6.81-9.425 8.634-11.914.402-.55.71-.968.887-1.205.083-.11.142-.218.187-.32.003-.01.011-.019.015-.026.026-.064.031-.121.044-.181.01-.047.03-.095.033-.139.002-.02-.007-.038-.007-.057a.774.774 0 0 0-.16-.477c-.237-.301-.698-.483-1.24-.483h-4.37c-1.652 0-2.37.634-2.975 1.417-.189.244-.367.5-.558.76-.452.686-1.545 2.21-2.99 4.191a1781.547 1781.547 0 0 1-6.08 8.272l-.067.09c-.179.243-.36.486-.538.73-.445.603-.89 1.204-1.33 1.802a24.757 24.757 0 0 1-1.623 1.973 21.44 21.44 0 0 1-1.59 1.574c-.106.094-.213.198-.319.288-3.5 2.992-6.716 3.625-7.931 3.475-.744-.092-1.334-.562-1.411-1.478-.079-.933.374-2.33 1.744-4.267a2332.6 2332.6 0 0 1 4.29-6.04l2.102-2.95 1.514-2.121a1292.06 1292.06 0 0 1 4.328-6.033c.182-.252.27-.479.287-.68.003-.022 0-.042 0-.063.01-.592-.622-.94-1.414-.94h-4.29c-1.347 0-2.795.26-4.078 1.365-2.068 1.783-4.746 4.287-8.627 6.258a27.253 27.253 0 0 1-3.419 1.459.51.51 0 0 0-.236.16c-.142.179-.125.45.23.684.071.047.156.093.256.135.394.171.953.35 1.585.5 1.49.356 3.436.539 4.95-.031-1.793 2.632-3.442 5.065-4.172 6.106-2.05 2.924-3.118 5.462-3.473 7.6a10.13 10.13 0 0 0-.138 1.66c.009 1.33.33 2.465.866 3.4.728 1.266 1.856 2.164 3.164 2.675 2.947 1.15 6.594.605 9.676-.415 2.109-.7 3.955-1.617 5.123-2.377 0 .003.382.611 1.243 1.329.382.318.864.655 1.442.972.903.494 2.053.935 3.49 1.155.439.068.91.111 1.402.133.555.025 1.145.016 1.77-.03a17.941 17.941 0 0 0 1.78-.225c3.51-.613 7.972-2.37 13.575-6.16 1.098 2.938 4.504 6.651 11.38 6.305.06-.003.118-.003.18-.007 4.775-.287 11.201-2.52 19.66-8.28 1.573 2.471 3.696 4.276 6.142 5.564 3.337 1.757 7.279 2.541 11.286 2.685.08.003.161.008.241.01 1.432.043 2.87.002 4.29-.1 5.51-.4 10.742-1.77 14.229-3.214 1.158 1.664 2.858 2.866 4.686 3.182 2.736.473 5.544-.111 7.907-.987l.163-.059a22.922 22.922 0 0 0 4.45-2.273h.001c.162 1.316 1.067 2.967 3.077 3.327 1.462.262 3.51-.162 6.282-1.9l.038-.022c.056-.035.114-.076.17-.112.16-.102.32-.204.484-.315a15.577 15.577 0 0 0 3.16-2.797m-61.309-43.902a.531.531 0 0 1 .147.288c.15.655-.397 2.135-2.008 4.507-1.099 1.617-2.689 3.646-4.885 6.107-.027.028-.048.055-.075.084a111.046 111.046 0 0 1-3.224 3.453c-3.31 3.389-7.215 6.903-11.785 10.06-1.617 1.115-3.035 1.737-3.24 1.582-.304-.232.614-2.12 1.927-4.075 3.24-4.828 6.068-8.455 10.428-12.834 5.972-6 11.3-9.359 12.525-9.242a.33.33 0 0 1 .19.07m16.075 38.115a6.861 6.861 0 0 1-.553.895c-3.255 4.432-10.587 3.056-14.034-1.136-.052-.063-.113-.12-.163-.186-.06-.075-.105-.158-.16-.234-.16-.22-.321-.438-.46-.67.002-.002 3.604-2.9 7.812-6.223 1.02-.805 2.075-1.635 3.124-2.454 1.61-1.26 3.205-2.496 4.63-3.58 0 0 2.373 8.662-.196 13.588m29.415.967c-2.536 1.663-5.1 2.567-6.143 1.973-.398-.227-.712-.644-.87-1.249a3.262 3.262 0 0 1-.08-.447c-.001-.015-.005-.027-.007-.04a4.233 4.233 0 0 1-.016-.413c0-.05-.007-.095-.006-.146.003-.11.018-.234.028-.352.008-.092.01-.179.023-.276.008-.065.026-.138.038-.206.127-.77.412-1.674.893-2.707.757-1.624 1.996-3.563 3.91-5.824a26.725 26.725 0 0 1 2.096-2.214h.001c.027-.026.054-.047.081-.072 2.785-2.595 5.583-4.012 7.85-4.591 1.717-.439 3.13-.398 4.004-.03.419.177.67.391.806.622.266.459.075.983-.178 1.411l-.007.013-.022.036c-.122.2-.256.379-.357.515l-.696.959a328.85 328.85 0 0 1-3.917 5.285 132.175 132.175 0 0 1-3.124 3.978c-1.183 1.433-2.74 2.749-4.307 3.775" fill="#223A6A" fill-rule="nonzero"/><path d="M143.897 162.51c.623-.019.766-.275.766-.599 0-.314-.143-.476-.67-.476h-.795v1.076h.7zm-.7.657v1.818h-.66v-4.206h1.37c.775 0 1.58.21 1.58 1.161 0 .486-.297.866-.862.98v.019c.584.114.65.371.719.828.057.4.105.837.249 1.218h-.843c-.049-.238-.115-.504-.144-.753-.048-.36-.048-.693-.24-.893-.162-.172-.383-.153-.613-.172h-.555zm3.727-.238a2.953 2.953 0 0 0-2.96-2.94c-1.647 0-2.98 1.323-2.98 2.94a2.967 2.967 0 0 0 2.98 2.96 2.956 2.956 0 0 0 2.96-2.96zm-6.571 0c0-1.97 1.61-3.568 3.61-3.568a3.576 3.576 0 0 1 3.593 3.568 3.58 3.58 0 0 1-3.592 3.588 3.59 3.59 0 0 1-3.611-3.588z" fill="#231F20" fill-rule="nonzero"/></g></svg>