<svg width="200" height="200" xmlns="http://www.w3.org/2000/svg"><g fill="none" fill-rule="evenodd"><path d="M103.311 53.74c-2.449.25-19.338 3.824-22.42 4.331-3.085.508-12.576 2.675-18.537 3.06 2.286 1.02 3.789 3.383 3.916 5.344 1.225-.613 3.668-2.247 5.455-5.992 2.936 1.312 4.726 3.459 5.013 5.563 1.79-.665 3.864-2.965 5.575-7.29 1.336.98 3.208 3.836 3.013 4.926 2.112-.707 4.527-3.475 5.538-6.123 2.192 1.91 2.84 3.59 2.94 6.806 1.76-1.284 4.624-4.504 6.009-7.86 1.9 2.225 2.553 5.573 2.29 8.289 2.124-1.425 4.344-7.152 4.597-9.92.134-1.474-2.251-1.25-3.389-1.135m24.165 6.487c-1.78-.662-5.281-2.464-7.659-3.93-1.163-.715-3.537-1.65-5.157-1.23-1.621.417-2.5 1.636-2.872 2.46-1.038 3.928-.85 8.605 1.651 11.588 1.062-2.676 4.64-9.767 7.168-11.176.196 1.714 1.534 4.281 2.44 5.3.97-.551 1.862-1.435 2.366-2.142.422 1.03.98 2.372 1.59 3.203.772-.307 1.89-1.482 2.384-2.221.875.873 1.52 2.608 1.914 3.76.743-.81 2.004-1.885 3.065-2.346-.615 2.258.55 6.241 1.988 8.104 1.15-2.49 1.685-7.146.28-8.494-3.037-.819-7.377-2.214-9.158-2.876m-8.911 45.237c-.06-.796-.516-1.626-1.004-2.287-1.196 1.24-3.516 2.962-4.777 2.762-.504-.234-1.293-2.013-1.366-3.515-.921.575-4.81 3.047-5.494 4.584.764.689 4.297 1.543 5.869.444 1.136.87 3.552 1.178 5.685-.31 1.103.661 2.712 1.603 4.008 1.643 1.943.06 4.15-1.698 5.465-3.235-.64-.718-2.317-1.903-4.013-2.108-.62.947-3.02 2.337-4.373 2.022m-17.871-1.679c.829.165 1.742.244 2.403-.233 2.392-2.657 3.516-6.81 2.503-10.435-2.379 2.972-6.075 6.099-8.644 5.503 0 0-.844-.254-.868-.705 1.367-2.013 1.624-4.88 1.015-7.16-1.216 1.127-4.663 2.336-6.908 1.548.548-.952 1.245-5.157.157-6.71-1.008.925-4.482 2.562-6.994 1.4.953-1.771.842-5.715-.411-7.226 0 0-1.688 3.047-3.125 3.686-1.258.56-2.41.93-3.985.216.243-1.23.607-4.554-.548-6.252-.773 1.823-3.548 3.867-5.855 4.306 0 0 5.173 1.627 8.513 3.332 7.08 3.445 15.356 11.043 17.808 14.026 2.45 2.981 2.572 4.129 4.939 4.704M66.82 75.776c-.882 1.576-4.187 3.564-5.835 3.875 2.185.45 4.525.935 6.699 1.615 1.343-1.523.283-4.08-.864-5.49m14.086-34.273c2.779-2.314-1.978-3.37-1.978-3.37 3.038.973 1.978 3.37 1.978 3.37" fill="#FFF"/><path d="M71.725 60.483c-1.787 3.745-4.23 5.379-5.455 5.992-.127-1.96-1.63-4.324-3.916-5.343 5.961-.386 15.452-2.553 18.536-3.06 3.083-.508 19.972-4.082 22.421-4.333 1.138-.115 3.523-.339 3.39 1.136-.254 2.767-2.474 8.494-4.597 9.919.262-2.716-.39-6.064-2.291-8.289-1.385 3.356-4.249 6.576-6.009 7.86-.1-3.216-.748-4.895-2.94-6.806-1.011 2.648-3.426 5.416-5.538 6.123.195-1.09-1.677-3.947-3.013-4.925-1.71 4.324-3.784 6.624-5.575 7.29-.287-2.105-2.077-4.252-5.013-5.564m64.629 11.113c-1.439-1.863-2.603-5.846-1.988-8.104-1.06.46-2.322 1.537-3.065 2.345-.394-1.15-1.039-2.886-1.914-3.759-.495.739-1.612 1.914-2.385 2.221-.61-.83-1.167-2.173-1.59-3.203-.503.707-1.396 1.59-2.366 2.142-.905-1.019-2.243-3.586-2.44-5.3-2.527 1.409-6.105 8.5-7.167 11.176-2.5-2.983-2.689-7.66-1.65-11.588.37-.824 1.25-2.043 2.871-2.46 1.62-.42 3.994.515 5.157 1.23 2.378 1.466 5.88 3.268 7.659 3.93 1.78.662 6.121 2.057 9.159 2.876 1.404 1.348.869 6.003-.281 8.494m-14.868 37.188c-1.296-.04-2.905-.982-4.008-1.643-2.133 1.488-4.55 1.18-5.685.31-1.572 1.1-5.105.245-5.869-.444.683-1.537 4.573-4.01 5.494-4.584.073 1.502.862 3.281 1.366 3.515 1.26.2 3.58-1.522 4.777-2.762.488.66.944 1.491 1.004 2.287 1.353.315 3.753-1.075 4.373-2.022 1.696.205 3.373 1.39 4.013 2.108-1.314 1.537-3.522 3.295-5.465 3.235m-18.389-5.233c-.66.477-1.574.398-2.403.233-2.367-.575-2.489-1.723-4.94-4.704-2.451-2.983-10.728-10.581-17.807-14.026-3.34-1.705-8.513-3.332-8.513-3.332 2.307-.439 5.082-2.483 5.855-4.306 1.155 1.698.791 5.023.548 6.252 1.575.714 2.727.345 3.985-.216 1.437-.639 3.125-3.686 3.125-3.686 1.253 1.511 1.364 5.455.411 7.227 2.512 1.161 5.986-.476 6.994-1.4 1.088 1.552.391 5.757-.157 6.71 2.245.787 5.692-.422 6.908-1.55.61 2.28.352 5.148-1.015 7.161.024.45.868.705.868.705 2.569.596 6.265-2.531 8.644-5.503 1.013 3.624-.11 7.778-2.503 10.435M67.684 81.266c-2.174-.68-4.514-1.165-6.7-1.615 1.65-.31 4.954-2.299 5.836-3.875 1.147 1.41 2.207 3.967.864 5.49" fill="#FFF"/><path d="M183.303 97.062c.268.053.565.034.878-.048h.002c.308-.08.634-.225.962-.424 2.697-1.63 5.624-6.999 2.137-12.328-.02-.028-.034-.056-.053-.084h-.002v-.003c-.134-.2-.275-.4-.426-.6.586 2.86.945 8.282-3.498 13.487m-63.185-13.006c1.96 2.129 3.098 4.406 3.614 6.047 1.897-1.967 2.186-5.258 1.554-6.534 2.565.775 12.44 7.159 14.232 8.647 1.79 1.492 6.174 5.263 8.324 6.39 1.82.954 5.07 1.643 7.211.986-5.924-2.436-9.092-4.529-11.508-6.997.482-.109.914-.162 1.394-.539-3.657-2.086-7.409-5.368-10.337-6.956-2.93-1.586-10.09-6.25-16.047-7.24-.458-.394-.057-1.015.006-1.47-1.805.118-3.913.301-5.838-.203-5.011-.295-9.142-1.867-11.432-2.296-2.14-.402-6.891-1.11-13.381-.975-.146.055-.647.196-1.258.368-1.198.338-2.827.798-3.051.972.502.081 1.061.159 1.662.234 5.41.686 14.319 1.185 18.829 2.212 5.289 1.197 12.732 3.775 16.026 7.354" fill="#F3D075"/><path d="M168.994 117.987c-.953-.129-4.045-.307-5.863-.072-1.815.234-6.27.234-8.288-.296-1.032-.273-2.224-.865-3.278-1.54 1.913.46 4.112.675 6.638.35 3.262-.413 11.33-1.072 14.603.7.916.497 1.782 1.366 2.038 2.403-1.778-.772-4.9-1.414-5.85-1.545zm9.217.286c-.488-.679-1.17-1.266-1.939-1.761-1.735-1.113-3.91-1.746-5.275-1.874-1.969-.18-4.744-.354-7.264-.086-4.66.496-9.041.444-10.953.214-1.139-.138-2.256-.303-3.449-.611a19.268 19.268 0 0 1-2.577-.86c.41 1.2 1.441 2.304 2.577 3.26.058.047.115.097.173.143 2.362 1.933 5.8 3.222 9.09 3.466 3.291.245 7.384-.21 10.907.352 2.434.308 5.087 1.254 6.633 2.572.049.041.091.081.138.124 1.467 1.282 2.449 2.596 2.768 3.71.584-2.866.721-6.487-.83-8.649zm21.657-5.861c.14-8.522-5.838-17.42-14.723-15.822a3.702 3.702 0 0 1-.964.424c10.245-.356 11.76 8.206 11.76 8.206-5.318-3.051-10.16-2.821-16.327-1.484-4.903 1.066-6.99 1.086-10.797-2.31.83 2.753 2.799 4.554 4.954 5.288-7.276-1.977-12.843 5.216-21.464 4.282a14.616 14.616 0 0 1-2.05-.365c6.007 2.856 11.837.637 16.448-1.068 6.261-2.319 17.61 2.732 22.064-1.523-3.279.013-8.695-1.147-11.695-2.03 0 0 1.439-.723 8.185-.895 6.75-.172 12.368 4.444 14.609 7.297" fill="#E6A909"/><path d="M199.868 112.412c.14-8.522-5.838-17.42-14.723-15.822a3.698 3.698 0 0 1-.962.424c10.244-.355 11.759 8.206 11.759 8.206-5.319-3.051-10.16-2.821-16.328-1.484-4.903 1.066-6.99 1.086-10.797-2.31.83 2.753 2.799 4.554 4.954 5.288-7.276-1.977-12.843 5.216-21.464 4.282a14.616 14.616 0 0 1-2.05-.365c6.007 2.856 11.837.637 16.448-1.068 6.261-2.319 17.61 2.732 22.064-1.523-3.279.013-8.695-1.147-11.695-2.03 0 0 1.439-.723 8.185-.895 6.75-.172 12.368 4.444 14.609 7.297m-37.176-13.658c-5.207-.524-12.807-3.449-16.417-5.788 1.189-.39 2.015-1.09 2.322-2.057-2.423-.195-9.61-6.055-10.874-6.836-6.51-4.024-17.08-8.425-17.08-8.425.218-.652.121-2.257-.264-2.717-1.26 1.235-5.643 1.523-8.637.96-2.993-.563-8.23-1.223-10.423-1.505-3.894-.5-11.33-.176-13.41.53 6.49-.135 11.241.573 13.382.975 2.29.429 6.42 2 11.432 2.296 1.925.504 4.033.32 5.838.203-.063.455-.464 1.076-.006 1.47 5.957.99 13.117 5.654 16.047 7.24 2.928 1.588 6.68 4.87 10.337 6.956-.48.377-.912.43-1.394.539 2.416 2.468 5.584 4.561 11.508 6.997-2.14.657-5.39-.032-7.211-.985-2.15-1.128-6.534-4.9-8.324-6.39-1.792-1.489-11.667-7.873-14.232-8.648.632 1.276.343 4.567-1.554 6.534-.516-1.641-1.653-3.918-3.614-6.047-3.294-3.579-10.737-6.157-16.026-7.354-4.51-1.027-13.419-1.526-18.83-2.212.222.28.947.135 1.181.414.336.068 4.027.786 5.375 1.081 6.447.993 13.257 2.052 19.021 5.296 2.622 1.522 6.13 4.208 7.462 6.07 1.333 1.864 2.534 3.935 1.959 7.017 4.154.212 7.304-3.01 8.306-5.642 2.004.771 2.805 1.559 4.178 2.418 4.511 2.81 8.528 7.718 12.947 10.36 6.14 3.669 15.374-.767 17.001-2.75M80.906 41.503s1.06-2.397-1.978-3.37c0 0 4.757 1.056 1.978 3.37zm-3.845.95c2.419-.219 5.148-.254 8.101-.572-1.373-.989-2.732-2.747-4.13-3.505-3.29-1.78-5.875-2.038-7.155-1.3-1.364.785-5.397 4.231-3.57 7.016 0 0 1.1-.476 2.964-1.004.069-.02.141-.036.212-.055.817-2.063 2.033-4.143 3.341-5.368a9.488 9.488 0 0 0 .237 4.789z" fill="#E6A909"/><path d="M145.69 101.504c-4.418-2.642-8.435-7.55-12.946-10.36-1.373-.86-2.174-1.647-4.178-2.418-1.002 2.632-4.152 5.854-8.306 5.642.575-3.082-.626-5.153-1.959-7.017-1.333-1.862-4.84-4.548-7.462-6.07-5.764-3.244-12.574-4.303-19.021-5.296-1.348-.295-5.039-1.013-5.375-1.081-.234-.279-.96-.135-1.18-.414-.6-.075-1.16-.153-1.662-.234.224-.174 1.853-.634 3.051-.972.138-.099.44-.202 1.258-.368 2.08-.706 9.515-1.03 13.41-.53 2.192.282 7.43.942 10.422 1.505 2.994.563 7.377.275 8.637-.96.385.46.482 2.065.264 2.717 0 0 10.57 4.4 17.08 8.425 1.264.78 8.451 6.64 10.874 6.836-.307.967-1.133 1.666-2.322 2.057 3.61 2.339 11.21 5.264 16.417 5.788-1.627 1.983-10.862 6.419-17.001 2.75zm38.491-4.49c-.313.082-.61.1-.878.048 4.443-5.205 4.084-10.628 3.498-13.487-1.518 8.624-9.043 13.042-13.79 12.988-4.061-.047-6.78-.74-10.7-2.874-4.84-2.633-5.182-6.84-10.82-9.303.768 1.53.912 4.61-.354 6.054-1.793-2.603-9.482-10.259-13.106-12.893a17.092 17.092 0 0 0-.516-.361c-3.58-2.365-12.459-8.878-19.565-10.553-.927.779-3.237 5.29-3.255 7.096-4.384-2.61-5.624-6.636-6.717-9.98-2.39 1.999-7.635 4.818-9.063 4.551.766-.888 1.086-4.484.41-5.661-1.902 2.085-5.228 5.686-8.649 5.82.56-.83 1.005-4.643.04-5.848-1.183 1.956-4.414 4.396-7.455 4.706.154-.924.313-2.32-.658-3.273-1.82 2.939-5.203 5.463-8.274 5.478.355-2.186-.163-4.102-1.687-5.356-1.524 2.283-3.35 4.93-8.175 5.167-.042-1.74-1.617-5.462-3.284-6.047-1.394 1.389-2.836 7.012-2.987 8.457-.214 2.076.649 5.076 3.133 4.829 2.147-.217 4.303-2.831 5.12-4.551 2.243.698 3.86 4.314 4.404 6.272 1.233-.838 3.523-2.972 4.069-5.108 2.719 1.79 3.82 5.145 3.813 7.674 1.581-1.312 3.444-3.746 3.961-5.528 2.259 1.422 4.278 5.791 3.91 9.195 1.334-.456 3.017-1.472 4.15-2.89 2.016 1.707 3.234 5.286 2.716 7.979 1.09-.188 4.24-2.337 5.019-3.82 1.01 1.555 1.8 6.994 1.426 9.106 2.16-1.323 5.527-5.118 6.795-7.513.665 1.18 1.453 3.684 1.523 5.476 4.07 1.075 9.23 3.155 12.498 4.73 2.642 1.275 6.55 3.398 10.071 5.692 2.326 1.517 4.486 3.107 5.995 4.575 2.342 2.277 2.987 5.24 3.526 7.446 2.146-2.097 1.9-7.909 1.295-9.153 2.032 1.364 3.658 2.958 5.592 3.537 1.455.573 3.247 1.012 5.095 1.305 8.62.934 14.188-6.26 21.464-4.282-2.155-.734-4.123-2.535-4.954-5.287 3.807 3.395 5.894 3.375 10.797 2.309 6.168-1.337 11.01-1.567 16.328 1.484 0 0-1.516-8.562-11.76-8.206z" fill="#D82342"/><path d="M145.69 101.504c-4.418-2.642-8.435-7.55-12.946-10.36-1.373-.86-2.174-1.647-4.178-2.418-1.002 2.632-4.152 5.854-8.306 5.642.575-3.082-.626-5.153-1.959-7.017-1.333-1.862-4.84-4.548-7.462-6.07-5.764-3.244-12.574-4.303-19.021-5.296-1.348-.295-5.039-1.013-5.375-1.081-.234-.279-.96-.135-1.18-.414-.6-.075-1.16-.153-1.662-.234.224-.174 1.853-.634 3.051-.972.61-.172 1.112-.313 1.258-.368 2.08-.706 9.515-1.03 13.41-.53 2.192.282 7.43.942 10.422 1.505 2.994.563 7.377.275 8.637-.96.385.46.482 2.065.264 2.717 0 0 10.57 4.4 17.08 8.425 1.264.78 8.451 6.64 10.874 6.836-.307.967-1.133 1.666-2.322 2.057 3.61 2.339 11.21 5.264 16.417 5.788-1.627 1.983-10.862 6.419-17.001 2.75zm28.081 5.21c-2.155-.734-4.123-2.535-4.954-5.287 3.807 3.395 5.894 3.375 10.797 2.309 6.168-1.337 11.01-1.567 16.328 1.484 0 0-1.515-8.56-11.759-8.206h-.002c-.313.082-.61.1-.878.048 4.443-5.205 4.084-10.628 3.498-13.487-1.518 8.624-9.043 13.042-13.79 12.988-4.061-.047-6.78-.74-10.7-2.874-4.84-2.633-5.182-6.84-10.82-9.303.768 1.53.912 4.61-.354 6.054-1.883-2.733-10.272-11.044-13.622-13.254-3.58-2.365-12.459-8.878-19.565-10.553-.927.779-3.237 5.29-3.255 7.096-4.384-2.61-5.624-6.636-6.717-9.98-2.39 1.999-7.635 4.818-9.063 4.551.766-.888 1.086-4.484.41-5.661-1.902 2.085-5.228 5.686-8.649 5.82.56-.83 1.005-4.643.04-5.848-1.183 1.956-4.414 4.396-7.455 4.706.154-.924.313-2.32-.658-3.273-1.82 2.939-5.203 5.463-8.274 5.478.355-2.186-.163-4.102-1.687-5.356-1.524 2.283-3.35 4.93-8.175 5.167-.042-1.74-1.617-5.462-3.284-6.047-1.394 1.389-2.836 7.012-2.987 8.457-.214 2.076.649 5.076 3.133 4.829 2.147-.217 4.303-2.831 5.12-4.551 2.243.698 3.86 4.314 4.404 6.272 1.233-.838 3.523-2.972 4.069-5.108 2.719 1.79 3.82 5.145 3.813 7.674 1.581-1.312 3.444-3.746 3.961-5.528 2.259 1.422 4.278 5.791 3.91 9.195 1.334-.456 3.017-1.472 4.15-2.89 2.016 1.707 3.234 5.286 2.716 7.979 1.09-.188 4.24-2.337 5.019-3.82 1.01 1.555 1.8 6.994 1.426 9.106 2.16-1.323 5.527-5.118 6.795-7.513.665 1.18 1.453 3.684 1.523 5.476 4.07 1.075 9.23 3.155 12.498 4.73 4.389 2.117 12.27 6.579 16.066 10.267 2.342 2.277 2.987 5.24 3.526 7.446 2.146-2.097 1.9-7.909 1.295-9.153 2.032 1.364 3.658 2.958 5.592 3.537 1.455.573 3.247 1.012 5.095 1.305 8.62.934 14.188-6.26 21.464-4.282zm-.965 10.416c-3.273-1.773-11.34-1.114-14.603-.7a18.157 18.157 0 0 1-6.638-.352c1.054.676 2.246 1.268 3.278 1.54 2.017.53 6.473.53 8.288.297 1.818-.235 4.91-.057 5.863.072.95.131 4.072.773 5.85 1.545-.256-1.037-1.122-1.906-2.038-2.403" fill="#D82342"/><path d="M4.973 64.514l1.289.483c.148-.591 1.252-2.577 1.448-3.168-.394.444-2.441 2.193-2.737 2.685m6.267-10.602c-1.33.296-2.465 1.234-3.647 1.925l2.021.69 1.626-2.615m6.409-6.851c-2.12-.051-3.746.049-5.67.344l3.156 2.12c.79-.741 1.824-1.775 2.514-2.464m4.585-2.367c2.317-.837 4.534-2.089 6.9-2.73-2.91-1.034-6.652-.771-9.612-.327 1.48.494 2.238 2.045 2.712 3.057m16.173-5.823c-.325-.27-1.685-.845-2.565-.93.393 1.035 1.161 2.06 1.26 3.194.798-1.3 1.305-2.264 1.305-2.264m44.837 14.187c-7.732 2.762-22.57 3.689-27.2 1.125 1.795-2.412 2.797-7.852.306-9.985.2 5.856-5.1 12.656-12.763 12.805 3.012 1.64 5.775 2.058 8.068 1.057-2.047 5.314-3.44 14.654-2.48 16.136 1.047 1.625 3.865 4.929 3.865 4.929l2.78 2.586s-4.428-6.033-4.989-8.445c-.56-2.411 2.3-12.437 3.113-15.84v-.007c4.154 1.472 10.047 1.032 15.705.116 5.877-.947 32.065-7.164 40.785-7.138.887.002 1.592.067 2.078.212-3.445-1.358-20.834-.565-29.268 2.449M115 164.796c-.251-2.549-2.021-6.529-4.27-8.291-2.139-.418-6.38.15-9.081.29 5.953 2.517 11.057 5.705 13.351 8.001M34.148 71.78c-.955 1.552-1.777 5.783-2.021 7.364 2.995-.08 7.602-.454 9.148.055-1.62-1.584-4.911-4.03-7.127-7.419m13.096 16.286c-.571-1.36-1.173-3.283-2.71-4.988-4.095-1.132-10.747-.74-12.443.79.046 2.127.12 4.362.922 6.25 4.485-1.859 9.195-3.49 14.231-2.052m.788 3.218c-2.996-.863-10.38-.07-13.96 2.507.574 4.008 3.606 9.149 3.606 9.149s8.313-3.959 15.7-4.035c-2.01-2.382-3.658-5.054-5.346-7.621m-1.162 25.833c4.8-3.953 11.122-5.308 16.614-7.7-2.59-2.176-4.893-4.854-7.274-7.397-5.745.3-11.545 1.84-16.333 5.097 1.506 3.596 4.46 6.884 6.993 10m10.475 11.837c6.924-4.606 14.683-6.474 22.77-6.698-3.382-2.98-10.252-7.194-13.968-9.375-6.392.944-11.253 3.642-16.238 8.255 1.504 2.843 4.914 5.446 7.436 7.818m14.925 10.714c8.163-4.593 17.957-5.201 23.534-4.593-2.678-3.443-7.845-7.653-11.417-9.184-6.888-.765-16.132 2.05-23.79 6.315 0 0 4.21 4.975 11.672 7.462m23.535 12.439c3.561-.275 10.035-.827 12.82-.705 0 0-2.552-7.653-9.439-11.99-5.614-.766-16.584 1.404-21.749 3.892 0 0 11.86 4.973 18.368 8.803" fill="#3F9D7D"/><path d="M116.714 42.567c2.533 1.359 5.514 5.303 6.107 6.002.375.441 1.257 1.737.643 2.421-1.28-.565-2.13-1.749-3.258-2.802-.213-.329-.576-.823-1.097-.893-.207.628 1.033 1.742.663 2.196-1.097-.595-1.87-1.455-3.17-2.047-1.3-.595-2.963-1.077-4.182-1.37 1.35-1.202 2.55-3.093 4.294-3.507zM55.819 81.71l-2.78-2.586s-2.817-3.304-3.865-4.929c-.958-1.482.434-10.822 2.481-16.136-2.293 1.001-5.056.583-8.068-1.057 7.664-.149 12.964-6.949 12.763-12.805 2.491 2.133 1.489 7.573-.305 9.985 4.63 2.564 19.467 1.637 27.199-1.125 8.434-3.014 25.823-3.807 29.268-2.45-.486-.144-1.191-.21-2.078-.211 3.818.288 7.45 1.268 10.573 3.522 2.977 2.148 10.136 5.081 15.934 5.504-.612-.594-.913-1.943-.697-2.802.321-1.287.188-3.43.106-4.027s-.293-1.555-.504-1.95c-.366.096-.704.224-.95.584.487.884 1.002 1.708.964 2.787-.03.164-.18.23-.306.293-1.135-1.553-4.035-4.343-5.388-5.338.617-.879 1.596-1.363 2.396-2.307 1.07-.713 2.261-.02 3.394-.567.199-1.054-1.315-.873-1.806-.84-1.879.134-7.893 3.313-7.659 5.622-.031.327-.397.291-.551.291-.608-1.084-.479-3.966-1.298-4.92-1.917-2.434-3.71-4.574-5.904-6.946-1.738-.764-5.38.196-5.38.196-1.497.185-3.396 2.534-4.773 3.016.027.686 1.517 2.365 1.64 2.726-.093.228-.277.522-.464.652-1.92-.758-5.879-1.61-7.718-1.833-3.687-.451-12.753.23-15.595.309-5.379-.592-12.646.46-16.08 1.247-3.133.716-7.088 2.29-9.236 3.363a5.826 5.826 0 0 0 .828-3.166c-2.69-2.488-10.491-5.782-16.302-4.753-1.063.618-2.319 1.834-2.995 2.91a18.125 18.125 0 0 0-2.238 5.696c-.626 5.972 3.813 10.767 6.61 12.94-.436.191-1.151.548-2.354.278-.586 1.63-.801 4.064-.361 6.086-.583.697-1.871 1.27-2.82 1.521 0 0 9.001 11.48 11.768 14.901 4.213.024 9.55.877 12.875 1.67 3.325.796 12.026 4.153 18.657 8.32-7.634-7.389-18.443-11.539-20.795-12.21-2.353-.673-6.413-1.285-8.186-1.461zM15.89 55.995l2.863-2.505s.357-1.72.573-2.434c-1.036.938-4.367 4.297-5.369 5.657.93-.289 1.932-.718 1.932-.718m-5.586 9.896c-1.774 2.417-2.316 5.375-3.204 8.137.693-2.27 3.278-5.72 3.278-5.72s.11-1.623-.074-2.417m2.437 4.922c-1.528 2.515-3.449 5.45-4.483 8.212-.149 1.627.332 3.6.936 5.128 1.757-4.534 3.619-8.758 7.77-13.34-1.182-.296-2.934-.286-4.223 0m.521-7.09l-.098 3.945 2.22-.248c2.07-2.118 4.386-4.434 7-6.061.147-.346.235-3.717.443-4.933-1.337-.13-3.214.287-3.214.287s-4.784 4.786-6.351 7.01m6.137 3.51s-.215 1.146-.144 2.004c1.504-1.574 5.313-4.938 7.088-5.725l-2.364-.072c-1.059.513-4.58 3.793-4.58 3.793M21.2 53.667h2.809c2.021-1.676 5.12-3.227 7.485-4.509 0 0 1.701-2.258 2.293-3.686-1.473-.379-4.296-.072-4.296-.072s-4.7 2.65-6.862 3.927c-.69 1.382-1.135 2.81-1.43 4.34m16.416-.099c-1.252-1.08-2.397-1.509-3.894-2.022-2.218 1.036-5.024 2.469-7.094 3.948-.246 1.774-.285 3.364-.252 5.076 1.035.342 1.873 1.131 2.959 1.28l6.755-4.141c.344-1.283 1.182-2.71 1.526-4.141m80.235 57.047c-1.367 1.291-5.059 1.537-6.122.04-3.138.796-5.893-.293-7.483-1.414-2.283.118-6.367-.922-9.597-3.627.878 2.03 2.591 3.525 4.737 4.364 3.438.965 7.295 2.705 10.077 3.21 2.782.51 5.736.857 7.153.843 1.417-.016 4.151-.533 6.699-2.096-1.686.178-4.005-.43-5.464-1.32" fill="#007B5E"/><path d="M98.904 40.75l-1.797-1.78c-.704.095-1.593.71-2.115 1.395 1.22.335 2.505.343 3.85.483l.062-.098m-33.14 1.717c-.107-2.104 2.56-6.655 4.675-8.081 1.593-.743 3.793-.797 6.162-.537-.007-.904-.945-2.069-.945-2.069 3.516.162 9.887 5.244 11.677 6.605 1.766 1.342 3.282 2.128 3.282 2.128-.667-1.15-.822-3.812-1.918-4.767-1.951-1.484-6.194-5.545-8.545-6.443-2.224-1.29-10.682.09-12.702.6-3.709 2.625-2.221 8.6-5.35 11.59 1.753-.031 2.612 1.33 3.664.974M43.605 29.988c.3 1.051-.585 1.168-1.704 1.823.339.292 5.85.855 6.445 3.535.98.282 1.765.46 2.749.844.125-.707-.007-1.647-.012-2.47-.546-1.35-4.696-2.294-5.968-2.44 1.128-.842 2.2-1.484 3.567-1.5-.937-1.06-2.582-2.133-4.767-2.868.466-.481 3.205-.498 4.844.188-.727-1.6-3.876-4.393-6.453-6.54 4.723 1.505 10.593 6.515 12.818 9.052-1.723 2.045-1.498 6.317-.496 7.841.001-2.638.42-6.154 1.664-7.903-2.677-4.05-10.837-10.134-17.588-10.904 1.668 1.629 3.745 3.918 3.536 5.68-.436.384-1.366.674-2.48.659 1.624 1.229 3.547 3.951 3.845 5.003" fill="#007B5E"/><path d="M122.938 103.441c1.696.205 3.373 1.39 4.013 2.108-1.314 1.537-3.522 3.295-5.465 3.235-1.296-.04-2.905-.982-4.008-1.643-2.133 1.488-4.55 1.18-5.685.31-1.572 1.1-5.105.245-5.869-.444.683-1.537 4.573-4.01 5.494-4.584.073 1.502.862 3.281 1.366 3.515 1.26.2 3.58-1.522 4.777-2.762.488.66.944 1.491 1.004 2.287 1.353.315 3.753-1.075 4.373-2.022zm-6.323 10.59c-1.417.014-4.37-.334-7.153-.844-2.782-.504-6.639-2.244-10.077-3.209-2.146-.839-3.859-2.335-4.737-4.364 3.23 2.705 7.314 3.745 9.597 3.627 1.59 1.121 4.345 2.21 7.483 1.414 1.063 1.497 4.755 1.251 6.122-.04 1.459.89 3.778 1.498 5.464 1.32-2.548 1.563-5.282 2.08-6.7 2.096zM77.947 85.054c-3.34-1.705-8.513-3.332-8.513-3.332 2.307-.439 5.082-2.483 5.855-4.306 1.155 1.698.791 5.023.548 6.252 1.575.714 2.727.345 3.985-.216 1.437-.639 3.125-3.686 3.125-3.686 1.253 1.511 1.364 5.455.411 7.227 2.512 1.161 5.986-.476 6.994-1.4 1.088 1.552.391 5.757-.157 6.71 2.245.787 5.692-.422 6.908-1.55.61 2.28.352 5.148-1.015 7.161.024.45.868.705.868.705 2.569.596 6.265-2.531 8.644-5.503 1.013 3.624-.11 7.778-2.503 10.435-.66.477-1.574.398-2.403.233-2.367-.575-2.489-1.723-4.94-4.704-2.451-2.983-10.728-10.581-17.807-14.026zM66.143 87.06c-3.325-.792-8.662-1.645-12.875-1.669-2.767-3.42-11.768-14.9-11.768-14.9.949-.253 2.237-.825 2.82-1.522-.44-2.022-.225-4.456.361-6.086 1.203.27 1.918-.087 2.354-.279-2.797-2.172-7.236-6.967-6.61-12.939a18.125 18.125 0 0 1 2.238-5.696c.676-1.076 1.932-2.292 2.995-2.91 5.81-1.029 13.612 2.265 16.302 4.753.03.947-.184 2.1-.828 3.166 2.148-1.073 6.103-2.647 9.235-3.363 3.435-.787 10.702-1.84 16.08-1.247 2.843-.08 11.91-.76 15.596-.31 1.84.224 5.797 1.076 7.718 1.834.187-.13.371-.424.464-.652-.123-.361-1.613-2.04-1.64-2.726 1.377-.482 3.276-2.83 4.774-3.016 0 0 3.64-.96 5.379-.196 2.193 2.372 3.987 4.512 5.904 6.945.82.955.69 3.837 1.298 4.921.154 0 .52.036.551-.29-.234-2.31 5.78-5.489 7.659-5.622.491-.034 2.005-.215 1.806.839-1.133.547-2.323-.146-3.394.567-.8.944-1.78 1.428-2.396 2.307 1.353.995 4.253 3.785 5.388 5.338.125-.064.276-.13.306-.293.038-1.079-.477-1.903-.964-2.787.246-.36.584-.488.95-.584.211.395.422 1.353.504 1.95.082.597.215 2.74-.106 4.027-.216.86.085 2.208.697 2.802-5.798-.423-12.957-3.356-15.934-5.504-3.123-2.254-6.755-3.234-10.573-3.522-8.72-.026-34.908 6.191-40.785 7.138-5.658.916-11.551 1.356-15.705-.116v.006c-.812 3.404-3.674 13.43-3.113 15.84.56 2.413 4.988 8.446 4.988 8.446 1.773.176 5.833.788 8.186 1.46 2.352.672 13.161 4.822 20.795 12.211-6.631-4.167-15.332-7.524-18.657-8.32zm-9.933 14.96c2.38 2.542 4.685 5.22 7.274 7.397-5.492 2.391-11.813 3.746-16.614 7.699-2.533-3.116-5.487-6.404-6.993-10 4.788-3.257 10.588-4.798 16.333-5.097zm23.904 20.235c-8.086.224-15.845 2.092-22.77 6.698-2.52-2.372-5.931-4.975-7.435-7.818 4.985-4.613 9.846-7.311 16.238-8.255 3.716 2.18 10.586 6.395 13.967 9.375zm4.273 3.635c3.572 1.531 8.739 5.741 11.417 9.184-5.577-.608-15.371 0-23.535 4.593-7.462-2.487-11.672-7.462-11.672-7.462 7.658-4.265 16.902-7.08 23.79-6.315zm14.798 13.522c6.887 4.336 9.44 11.99 9.44 11.99-2.786-.123-9.26.429-12.82.704-6.508-3.83-18.369-8.803-18.369-8.803 5.165-2.488 16.135-4.658 21.75-3.891zm11.544 17.092c2.25 1.762 4.02 5.742 4.271 8.291-2.294-2.296-7.398-5.484-13.351-8 2.7-.14 6.942-.709 9.08-.291zM34.072 93.79c3.58-2.576 10.964-3.37 13.96-2.507 1.688 2.567 3.337 5.239 5.346 7.621-7.387.076-15.7 4.035-15.7 4.035s-3.032-5.141-3.606-9.15zm-1.981-9.923c1.696-1.53 8.348-1.922 12.442-.79 1.538 1.705 2.14 3.627 2.711 4.988-5.036-1.437-9.746.193-14.23 2.052-.804-1.888-.877-4.123-.923-6.25zM26.375 60.57c-.033-1.712.006-3.302.252-5.076 2.07-1.48 4.876-2.912 7.094-3.948 1.497.513 2.642.942 3.894 2.022-.344 1.43-1.182 2.858-1.526 4.141l-6.755 4.14c-1.086-.148-1.924-.937-2.959-1.279zm-7.121 8.667c-.07-.858.144-2.004.144-2.004s3.521-3.28 4.58-3.793l2.364.072c-1.775.787-5.584 4.151-7.088 5.725zM9.194 84.153c-.605-1.528-1.086-3.501-.937-5.128 1.034-2.762 2.955-5.697 4.483-8.212 1.289-.286 3.04-.296 4.223 0-4.151 4.582-6.013 8.806-7.77 13.34zm1.109-18.262c.185.794.074 2.417.074 2.417s-2.585 3.45-3.278 5.72c.888-2.762 1.43-5.72 3.204-8.137zm-5.33-1.377c.296-.492 2.343-2.241 2.737-2.685-.196.591-1.3 2.577-1.448 3.168l-1.289-.483zm6.267-10.602l-1.626 2.615-2.021-.69c1.182-.691 2.317-1.629 3.647-1.925zm6.409-6.851c-.69.69-1.724 1.723-2.514 2.465l-3.156-2.12c1.924-.296 3.55-.396 5.67-.345zm1.677 3.995c-.216.715-.573 2.434-.573 2.434l-2.864 2.505s-1.001.43-1.932.718c1.002-1.36 4.333-4.72 5.37-5.657zm9.808-9.092c-2.366.641-4.583 1.893-6.9 2.73-.474-1.012-1.233-2.563-2.712-3.057 2.96-.444 6.702-.707 9.612.327zm-6.308 14.462c-.208 1.216-.296 4.587-.444 4.933-2.613 1.627-4.93 3.943-7 6.061l-2.219.248.098-3.945c1.567-2.224 6.351-7.01 6.351-7.01s1.877-.416 3.214-.287zm10.96-10.954c-.59 1.428-2.292 3.686-2.292 3.686-2.365 1.282-5.464 2.833-7.485 4.509h-2.81c.295-1.53.74-2.958 1.43-4.34C24.79 48.049 29.49 45.4 29.49 45.4s2.823-.307 4.296.072zm4.621-6.6s-.507.964-1.306 2.263c-.098-1.135-.866-2.159-1.26-3.194.881.085 2.24.66 2.566.93zm2.868 40.327c-1.546-.51-6.153-.136-9.148-.055.244-1.581 1.066-5.812 2.021-7.364 2.216 3.39 5.508 5.835 7.127 7.419zM39.76 24.985c1.114.015 2.044-.275 2.48-.659.209-1.762-1.868-4.051-3.536-5.68 6.751.77 14.911 6.855 17.588 10.904-1.244 1.75-1.663 5.265-1.664 7.903-1.002-1.524-1.227-5.796.496-7.841-2.225-2.537-8.095-7.547-12.818-9.052 2.577 2.147 5.726 4.94 6.453 6.54-1.64-.686-4.378-.67-4.844-.188 2.185.735 3.83 1.808 4.767 2.868-1.368.016-2.44.658-3.567 1.5 1.272.146 5.422 1.09 5.968 2.44.005.823.137 1.763.012 2.47-.984-.384-1.769-.562-2.749-.844-.596-2.68-6.106-3.243-6.445-3.535 1.12-.655 2.003-.772 1.704-1.823-.298-1.052-2.221-3.774-3.845-5.003zm33.723 18.048c-.07.02-.143.035-.212.055-1.864.528-2.964 1.004-2.964 1.004-1.827-2.785 2.206-6.23 3.57-7.016 1.28-.738 3.865-.48 7.154 1.3 1.4.758 2.758 2.516 4.131 3.505-2.953.318-5.682.353-8.1.573a9.488 9.488 0 0 1-.238-4.789c-1.308 1.225-2.524 3.305-3.34 5.368zm-6.033-13.13c2.02-.51 10.478-1.89 12.702-.6 2.351.898 6.594 4.959 8.545 6.443 1.096.955 1.251 3.616 1.918 4.767 0 0-1.516-.786-3.282-2.128-1.79-1.361-8.161-6.443-11.677-6.605 0 0 .938 1.165.945 2.07-2.37-.261-4.569-.207-6.162.536-2.115 1.426-4.782 5.977-4.675 8.08-1.052.357-1.911-1.004-3.664-.972 3.129-2.99 1.641-8.966 5.35-11.592zm29.657 9.066l1.797 1.781-.061.098c-1.346-.14-2.63-.148-3.851-.483.522-.684 1.411-1.3 2.115-1.396zm39.247 32.627c-1.439-1.863-2.603-5.846-1.988-8.104-1.06.46-2.322 1.537-3.065 2.345-.394-1.15-1.039-2.886-1.914-3.759-.495.739-1.612 1.914-2.385 2.221-.61-.83-1.167-2.173-1.59-3.203-.503.707-1.396 1.59-2.366 2.142-.905-1.019-2.243-3.586-2.44-5.3-2.527 1.409-6.105 8.5-7.167 11.176-2.5-2.983-2.689-7.66-1.65-11.588.37-.824 1.25-2.043 2.871-2.46 1.62-.42 3.994.515 5.157 1.23 2.378 1.466 5.88 3.268 7.659 3.93 1.78.662 6.121 2.057 9.159 2.876 1.404 1.348.869 6.003-.281 8.494zm-34.25-6.802c.262-2.716-.39-6.064-2.291-8.289-1.385 3.356-4.249 6.576-6.009 7.86-.1-3.216-.748-4.895-2.94-6.806-1.011 2.648-3.426 5.416-5.538 6.123.195-1.09-1.677-3.947-3.013-4.925-1.71 4.324-3.784 6.624-5.575 7.29-.287-2.105-2.077-4.252-5.013-5.564-1.787 3.745-4.23 5.379-5.455 5.992-.127-1.96-1.63-4.324-3.916-5.343 5.961-.386 15.452-2.553 18.536-3.06 3.083-.508 19.972-4.082 22.421-4.333 1.138-.115 3.523-.339 3.39 1.136-.254 2.767-2.474 8.494-4.597 9.919zM66.82 75.776c1.147 1.41 2.207 3.967.864 5.49-2.174-.68-4.514-1.165-6.7-1.615 1.65-.31 4.954-2.299 5.836-3.875zm41.415 17.088c-.07-1.792-.858-4.297-1.523-5.476-1.268 2.395-4.634 6.19-6.795 7.513.374-2.112-.417-7.55-1.426-9.105-.779 1.482-3.928 3.63-5.019 3.819.518-2.693-.7-6.272-2.717-7.979-1.132 1.418-2.815 2.434-4.149 2.89.368-3.404-1.651-7.773-3.91-9.195-.517 1.782-2.38 4.216-3.961 5.528.007-2.529-1.094-5.883-3.813-7.674-.546 2.136-2.836 4.27-4.07 5.108-.544-1.958-2.16-5.574-4.403-6.272-.817 1.72-2.973 4.334-5.12 4.551-2.484.247-3.347-2.753-3.133-4.83.15-1.444 1.593-7.067 2.987-8.456 1.667.585 3.242 4.307 3.284 6.047 4.825-.238 6.651-2.884 8.175-5.167 1.524 1.254 2.042 3.17 1.687 5.356 3.07-.015 6.453-2.54 8.274-5.478.971.953.812 2.349.658 3.273 3.04-.31 6.272-2.75 7.454-4.706.966 1.205.52 5.019-.039 5.847 3.42-.133 6.747-3.734 8.65-5.819.675 1.177.355 4.773-.41 5.661 1.427.267 6.671-2.552 9.062-4.55 1.093 3.343 2.333 7.368 6.717 9.979.018-1.806 2.328-6.317 3.255-7.096 7.106 1.675 15.984 8.188 19.565 10.553.158.106.334.23.516.361.8-4.853 1.164-8.75 1.188-10.664.307-.065 2.043-1.003 2.258-1.362.281-1.309.377-2.616.566-4.057-1.125-1.086-2.005-2.776-2.366-4.447.071-2.356.235-5.102.582-7.36-.48-2.489-1.019-5.015-1.713-7.375-.392-.918-1.819-1.5-3.212-1.363-2.875.735-5.994 1.204-8.72 2.463-1.055-1.418-2.028-5.617-8.134-8.654-7.43.072-12.357 5.089-13.586 5.931-1.28-.86-3.326-5.354-4.389-6.639-2.137-.733-3.294-.967-4.33-.331-1.135.909-2.268 1.458-3.464 2.202-1.728-3.09-6.038-8.052-7.741-9.283-1.933-1.396-5.262-2.9-6.969-3.282-.672-.2-1.409.516-1.472 1.169-1.439-.213-3.729-.141-5.181-.023-2.698-1.58-5.33-4.283-9.924-4.463-1.652 3.199.137 8.102 1.277 10.402-.782.745-2.214 2.39-2.953 3.418 0 0 .997-4.286-1.379-7.275-2.376-2.99-13.494-11.464-19.768-11.215-2.114.082-3.347 6.438-2.567 10.686.752 4.098 4.116 10.782 4.116 10.782h-.001c-3.815-1.385-7.777-2.065-10.57-1.332 1.332.936 2.515 2.466 2.862 3.895-4.34-1.134-14.69-1.164-18.933 1.085 1.48 1.38 3.155 2.267 4.24 3.992-2.995-.747-9.338.63-11.931 3.303 2.056.44 4.095 1.516 5.176 3.107-3.764 1.308-6.359 4.091-8.873 6.754 1.675.196 3.39.747 4.535 1.627-2.575 1.34-5.548 4.845-6.655 7.59 1.536-.167 3.147-.059 4.29.445-1.628 2.219-3.008 4.584-4.045 7.246 1.291-.128 2.122.15 2.86.444-.92 10.19 2.45 21.589 7.1 28.792 7.79 12.063 16.005 21.465 32.215 31.32 34.824 21.177 69.266 24.492 82.277 49.367.383-21.048-9.184-46.306-36.228-63.397-11.364-7.186-30.737-20.442-33.726-29.533 5.246-.143 14.002 2.31 18.661 4.438 3.818 1.745 11.67 6.762 15.839 15.13 0 0 2.384.895 4.889.457-.035 1.404-.358 2.8-1.819 3.621 1.569.789 5.22.252 6.877-.413.587.622.199 4.026-.477 4.874 1.827.194 5.48-.881 7.833-2.307.544 1.856.223 4.327-.573 6.116 2.447-.669 4.685-1.869 6.494-3.82 1.067.205 4.073.419 5.35-.16 1.28-.58 5.445-4.867 8.411-5.077.25-1.308-.172-2.883-.502-4.224 1.256-.78 2.117-2.048 3.285-3.154a58.696 58.696 0 0 0 1.793-3.707c-3.52-2.294-7.429-4.417-10.07-5.692-3.27-1.575-8.429-3.655-12.5-4.73z" fill="#231F20"/><path d="M119.772 49.491c.37-.454-.87-1.568-.663-2.196.52.07.884.564 1.097.893 1.127 1.053 1.978 2.237 3.258 2.802.614-.684-.268-1.98-.643-2.42-.593-.7-3.574-4.644-6.107-6.003-1.745.414-2.943 2.305-4.294 3.507 1.22.293 2.883.775 4.182 1.37 1.3.592 2.073 1.452 3.17 2.047m15.39 129.343v.881h-1.48v4.259h-1.044v-4.259h-1.536v-.881h4.06m2.493 5.14l-.898-4.166v4.166h-1.045v-5.14h1.521l.944 3.951.945-3.951h1.522v5.14h-1.046v-4.166l-.898 4.166h-1.045" fill="#231F20"/></g></svg>