<svg width="200" height="200" xmlns="http://www.w3.org/2000/svg"><g fill="#6B1F36" fill-rule="evenodd"><path d="M138.66 156.837c.234.05.363.068.363.068s-3.96 2.54-9.403 2.888c-3.895.25-8.109-.486-12.287-2.956H98.08c1.129 3.802 4.152 13.94 6.295 20.724 1.23 3.895 2.33 6.493 2.33 6.493s.775 1.673 2.578 3.013c.699.52 1.498 1.064 2.286 1.427 1.1.508 2.101.739 2.101.739s1.474.06 3.072.32c2.15.353 4.72.974 6.093 1.38 3.36.99 7.568 2.059 10.805 3.239 3.887 1.417 6.396 2.667 6.396 2.667s.533.295.983-.025c.74-.527 1.819-1.556 3.383-2.577 1.539-1.003 3.551-1.996 5.545-2.809 3.43-1.397 7.192-1.984 9.266-2.348.993-.175 1.6-.454 1.6-.454s-8.944-4.965-17.748-8.131c-7.242-2.605-14.653-3.522-14.653-3.522s1.052-1.705 1.787-3.278c.973-2.078 1.697-4.166 1.697-4.166s4.029 1.005 7.866 1.555c4.316.62 8.496.791 8.496.791s3.427.374 5.245-1.021c2.02-1.55 2.612-4.886 2.612-4.886s.633-3.945 1.164-9.13H138.66zm-57.796 0c-1.575 1.19-3.043 2.594-4.02 4.189-1.336 2.183-2.334 4.551-2.79 6.297-.431 1.645-.359 2.732-.359 2.732s3.121 1.88 6.758 5.109c3.354 2.976 7.098 7.135 10.347 11.193 4.908 6.129 6.872 13.638 6.872 13.638s-4.828-3.43-11.861-7.444c-3.713-2.12-8.039-4.314-12.594-6.444-5.258-2.459-9.9-3.889-15.661-5.68-8.375-2.603-16.11-2.125-23.433-2.364-4.614-.15-9.334-.78-13.102-2.03-7.432-2.465-11.276-5.21-11.276-5.21l15.916-9.265s3.21 1.8 6.969 2.579c2.608.54 6.518.35 6.518.35s-3.098-2.8-7.177-7.649h48.893z"/><path d="M132.866 105.844l13.447-1.295 4.293 11.41-17.74-10.115zm-3.648-2.954a30.6 30.6 0 0 1 .354 3.843c.173 6.587-2.214 11.815-2.214 11.815s-2.447 3.74-3.588 9.302c-.883 4.302-.788 9.89.6 14.455 1.058 3.48 3.783 8.092 6.538 10.512 3.277 2.879 6.658 3.788 7.751 4.02h18.619c.267-2.609.507-5.533.628-8.425.327-7.831-.415-15.46-.415-15.46l8.991-.89s-1.386-14.723-5.06-29.17l-32.204-.002zm-72.837 0c-.01 1.043 0 2.248.053 3.482.13 3 .615 6.31.615 6.31s.12 1.107-1.216 1.592c-1.336.486-2.064-.338-2.064-.338s-1.644-3.871-2.819-7.761a57.363 57.363 0 0 1-.876-3.282l-40.621-.003c1.248 13.837 5.624 27.232 11.42 37.847 3.556 6.514 7.673 12.03 11.098 16.101h48.893a29.314 29.314 0 0 1 2.324-1.581c3.01-1.851 8.136-3.09 11.266-2.501 2.32.437 3.177 2.571 3.177 2.571l.448 1.511h19.254a25.586 25.586 0 0 1-3.687-2.665c-5.346-4.613-9.305-10.675-11.9-17.45-3.52-9.193-4.196-18.58-4.196-18.58s.799-2.148-1.166-5.304c-.845-1.402-2.818-2.038-4.095-2.474-2.908-.994-7.06 1.653-7.628 5.05-.567 3.4.288 4.466 1.9 6.257 1.223 1.36 1.778.704 3.21 2.216 1.036 1.096 2.42 3.36 2.621 4.806.408 2.934-1.077 6.891-2.92 9.905-1.796 2.933-3.929 4.948-5.295 6.093-7.022 5.885-13.893 6.82-19.603 7.117-3.455.18-7.768.484-7.768.484l14.743-17.48s-5.007-6.635-8.045-15.284c-1.787-5.087-2.63-10.761-2.447-16.639h-4.676z"/><path d="M53.728 77.32l6.238 2.427s.531.255.892.85c.242.397.363 1.214.363 1.214s-1.304 3.19-2.248 6.063c-.756 2.302-1.195 4.416-1.195 4.416s-.603.916-1.345 1.096c-1.581.382-4.34.136-5.919-.269-1.58-.404-1.767-3.052-1.767-3.052s.101-2.503.586-4.851c.646-3.123 1.722-6.316 1.722-6.316s.643-1.11 1.166-1.419c.766-.452 1.507-.16 1.507-.16zm34.577-6.798c-.316.899-.298 2.223-.096 2.977.225.84 1.1 2.09 2.066 2.608 1.432.77 3.063.606 3.063.606s6.208-1.966 12.712-.702c5.992 1.164 12.136 5.337 16.122 10.238 3.61 4.439 6.144 10.762 7.046 16.64l32.204.001c-1.104-4.34-2.414-8.656-3.956-12.54-3.355-8.455-7.617-15.11-11.489-19.83l-6.522.002a49.37 49.37 0 0 1 1.5 1.765c5.517 6.803 8.76 14.38 8.76 14.38s1.053 2.538-1.296 3.914c-2.349 1.376-3.726-.84-3.726-.84s-3.279-5.19-8.86-10.572c-3.245-3.13-7.373-6.304-11.66-8.645l-35.868-.002zm-33.727 0c-.33.555-.526.89-.526.89s-.24.4.052 1.007c.106.219.139.444.368.678.191.195.512.46.512.46s2.54 1.07 4.602 1.876c1.245.486 2.526.835 2.526.835s.726.238 1.3.074c.375-.107.685-.64.685-.64s1.26-2.195 2.806-4.321c.21-.289.426-.576.643-.857l5.967-.002a43.254 43.254 0 0 0-2.431 3.106c-4.462 6.273-8.536 15.615-9.642 24.4a51.739 51.739 0 0 0-.383 4.862h-4.676c.018-1.911.101-3.277.101-3.277s-.014-.6-.274-.93c-.383-.487-1.062-.769-1.062-.769l-4.78.04s-.476.255-.739.655c-.242.368-.273.883-.273.883s.26 1.461.72 3.4l-40.621-.002a86.138 86.138 0 0 1-.275-11.715c.32-6.915 1.488-13.911 3.343-20.654l42.057.001z"/><path d="M124.173 70.522a39.073 39.073 0 0 0-3.811-1.827c-5.805-2.383-12.158-3.52-17.299-3.377-7.131.197-12.155 2.332-12.155 2.332s-1.7.925-2.505 2.635a2.671 2.671 0 0 0-.098.24l35.868-.003zm61.153-13.487l-26.134 12.447s-2.247-3.288-5.256-6.607c-1.991-2.197-4.485-4.352-6.092-5.839h37.482zm-66.756 0c.475.137.946.28 1.413.433 7.697 2.509 14.393 7.36 19.472 13.054h6.522a25.369 25.369 0 0 0-.278-.338c-2.237-2.686-4.716-4.773-5.844-6.043-.782-.881-.427-2.317-.427-2.317l4.726-4.789h-5.523l-2.403 2.401s-1.14.558-1.938.268c-1.18-.43-2.269-1.406-4.016-2.364a27.54 27.54 0 0 0-.571-.303l-11.133-.002zm-50.5 0a37.187 37.187 0 0 0 2.22 2.365c1.49 1.446 3.284 2.95 3.284 2.95s.574.435 1.133.426c.614-.01 1.216-.467 1.216-.467s2.021-1.55 4.139-2.942c1.39-.913 3.191-1.873 3.191-1.873s.244-.174.481-.456l11.245-.003c-8.532 2.545-14.52 7.054-14.52 7.054s-3.284 2.165-6.946 6.433h-5.967c1.231-1.592 2.464-2.953 2.464-2.953s.332-.593.301-1.253c-.03-.634-.423-1.337-.423-1.337l-5.305-5.057s-.76-.564-1.574-.412c-.696.13-1.464.978-1.464.978s-1.644 1.792-3.016 3.793c-1.545 2.252-3.148 4.893-3.951 6.24l-42.057.001a99.909 99.909 0 0 1 4.766-13.487H68.07z"/><path d="M84.711 46.165l3.443 7.81s.348.355.871.455c.416.08 1.033-.092 1.033-.092s2.057-.876 4.283-1.605c2.622-.858 5.477-1.59 5.477-1.59s.54-.308.855-.888c.352-.65.481-1.581.481-1.581l-.08-6.19s-.193-.936-.753-1.473c-.437-.42-1.272-.47-1.272-.47s-3.382.264-6.767.957c-3.234.662-6.477 1.754-6.477 1.754s-.78.347-1.134 1.052c-.503.803.04 1.861.04 1.861zm20.493-3.965l.203 7.243s.165.673.592 1.146c.256.285.866.472.866.472s2.833.023 5.444.351c2.357.297 4.56.782 4.56.782s.872.088 1.543-.236c.344-.165.685-.735.685-.735l2.591-6.312s.235-1.082-.285-1.82c-.491-.697-1.74-1.052-1.74-1.052s-3.002-.772-6.241-1.224c-2.805-.393-5.909-.476-5.909-.476s-.544-.153-1.476.575c-.931.729-.833 1.286-.833 1.286zM17.287 57.035c1.967-4.5 4.233-8.747 6.738-12.618 9.357-14.462 21.44-23.792 21.44-23.792S57.292 10.772 75.007 4.94c14.82-4.878 34.1-6.36 50.775-2.479 17.547 4.083 34.712 14.083 46.377 25.762 12.295 12.31 18.624 26.214 18.624 26.214l-5.456 2.598h-37.482c-.206-.19-.398-.37-.573-.538-.89-.856-2.092-.5-2.092-.5l-1.025 1.038h-5.523l2.538-2.535s.403-1.062.358-1.777c-.055-.851-.56-1.379-.56-1.379s-2.716-1.996-6.095-3.812c-3.043-1.634-6.785-3.106-6.785-3.106s-.637-.04-1.188.211c-.29.133-.675.638-.675.638l-2.551 6.474s-.57 1.854.686 2.623c1.278.783 3.511 1.717 5.344 2.665l-11.133-.002c-7.175-2.048-15.096-2.17-21.644-.536-.662.166-1.312.345-1.947.534l-11.245.002c.17-.199.336-.456.408-.745.149-.593-.24-1.385-.24-1.385l-3.12-7.566s-.391-.697-1.072-.946c-.509-.186-1.357.056-1.357.056s-2.1 1.143-4.281 2.703c-2.803 2.005-5.844 4.54-5.844 4.54s-.761.608-.832 1.413c-.07.793.548 1.782.548 1.782l.126.149H17.287z"/></g></svg>