<?xml version="1.0" encoding="UTF-8"?>
<svg width="200px" height="200px" viewBox="0 0 200 200" version="1.1" xmlns="http://www.w3.org/2000/svg" xmlns:xlink="http://www.w3.org/1999/xlink">
    <!-- Generator: Sketch 51.3 (57544) - http://www.bohemiancoding.com/sketch -->
    <title>ualr</title>
    <desc>Created with Sketch.</desc>
    <defs></defs>
    <g id="ualr" stroke="none" stroke-width="1" fill="none" fill-rule="evenodd">
        <g id="ualr_BGL" transform="translate(9.090909, 0.000000)" fill="#6B1F36">
            <g id="ualr">
                <g id="g10" transform="translate(90.957810, 100.024447) scale(-1, 1) rotate(-180.000000) translate(-90.957810, -100.024447) translate(0.000000, 0.053952)">
                    <g id="g12">
                        <path d="M129.568471,43.1575831 C129.802701,43.1083565 129.931965,43.0901494 129.931965,43.0901494 C129.931965,43.0901494 125.973022,40.5505954 120.528717,40.2016258 C116.6339,39.9517839 112.420477,40.6881601 108.242156,43.1579203 L88.9881257,43.1579203 C90.1170826,39.3556698 93.1401219,29.21765 95.2826087,22.4335814 C96.5128172,18.5388793 97.6124111,15.9409614 97.6124111,15.9409614 C97.6124111,15.9409614 98.3883369,14.267897 100.190618,12.9284272 C100.88993,12.4082097 101.688806,11.8635813 102.476882,11.5004844 C103.576813,10.9934165 104.578531,10.7621188 104.578531,10.7621188 C104.578531,10.7621188 106.052418,10.7027434 107.650171,10.441168 C109.799408,10.0887257 112.369514,9.46772851 113.7435,9.06245183 C117.103708,8.07174928 121.311055,7.00336308 124.548073,5.82327292 C128.43479,4.4061195 130.944483,3.15555435 130.944483,3.15555435 C130.944483,3.15555435 131.477404,2.86092967 131.926962,3.18123986 C132.666775,3.70780958 133.745781,4.73681448 135.310457,5.75755876 C136.848809,6.76127601 138.861356,7.75420388 140.855003,8.56644308 C144.285411,9.96437789 148.046913,10.5510176 150.121561,10.9154294 C151.114166,11.089813 151.721001,11.3690223 151.721001,11.3690223 C151.721001,11.3690223 142.777435,16.3334594 133.97326,19.5002145 C126.730723,22.104842 119.320446,23.0215024 119.320446,23.0215024 C119.320446,23.0215024 120.371776,24.7265641 121.107539,26.2995568 C122.079893,28.3774933 122.803843,30.4662192 122.803843,30.4662192 C122.803843,30.4662192 126.83265,29.4611532 130.669753,28.910894 C134.985777,28.2918862 139.165786,28.1194581 139.165786,28.1194581 C139.165786,28.1194581 142.593495,27.7455381 144.410963,29.1411128 C146.430261,30.6911781 147.022921,34.0267198 147.022921,34.0267198 C147.022921,34.0267198 147.656419,37.9722669 148.186978,43.1565716 L129.568471,43.1575831 Z M71.7733056,43.1575831 C70.1985036,41.9687266 68.7303534,40.5644193 67.7532742,38.9689374 C66.4167512,36.7861077 65.4190841,34.4174982 64.9624388,32.6720437 C64.5317814,31.0268969 64.6043452,29.9401687 64.6043452,29.9401687 C64.6043452,29.9401687 67.7252612,28.0601839 71.362561,24.8311538 C74.715681,21.8545955 78.4599702,17.6955531 81.7094759,13.6377963 C86.6171476,7.50911601 88.5807562,0 88.5807562,0 C88.5807562,0 83.7530735,3.42937573 76.7197904,7.4443122 C73.0075642,9.5630798 68.6810776,11.7577103 64.125762,13.8879079 C58.8684343,16.3468787 54.2260422,17.776541 48.4648184,19.5676482 C40.0896123,22.1711968 32.3557347,21.6931254 25.0325004,21.9315036 C20.4181888,22.08151 15.6985079,22.7113409 11.9296483,23.9618993 C4.49831088,26.42731 0.653785834,29.1717951 0.653785834,29.1717951 L16.5704879,38.4368853 C16.5704879,38.4368853 19.7804716,36.636742 23.5386661,35.8582197 C26.1470796,35.3177384 30.0571178,35.5075643 30.0571178,35.5075643 C30.0571178,35.5075643 26.959456,38.3080869 22.8805298,43.1569088 L71.7733056,43.1575831 Z" id="path14"></path>
                        <path d="M123.775522,94.1506277 L137.221753,95.4456924 L141.515164,84.0355692 L123.775522,94.1506277 Z M120.127085,97.104562 C120.328913,95.7936504 120.449065,94.5033061 120.481466,93.2615141 C120.654269,86.6752623 118.267428,81.4464514 118.267428,81.4464514 C118.267428,81.4464514 115.819836,77.7069142 114.679066,72.1453179 C113.796489,67.8430463 113.89099,62.255488 115.279827,57.6902249 C116.337232,54.2106447 119.061916,49.598178 121.816976,47.1779817 C125.094495,44.2988989 128.47529,43.3895551 129.568471,43.1582574 L148.186978,43.1575831 C148.453945,45.7665939 148.694249,48.6905201 148.815076,51.5827525 C149.141782,59.414168 148.399944,67.0422708 148.399944,67.0422708 L157.391099,67.932396 C157.391099,67.932396 156.004625,82.6562124 152.330874,97.1035505 L120.127085,97.104562 Z M47.2896233,97.104562 C47.2798356,96.0620366 47.2892858,94.856996 47.3432867,93.6226217 C47.4732264,90.623844 47.9585598,87.3131853 47.9585598,87.3131853 C47.9585598,87.3131853 48.0787118,86.2062608 46.7421889,85.7207379 C45.405666,85.2352151 44.6780035,86.0585809 44.6780035,86.0585809 C44.6780035,86.0585809 43.0343503,89.929951 41.8594927,93.8202025 C41.5179368,94.9514032 41.2229568,96.0917075 40.9829902,97.1022018 L0.3616307,97.1048992 C1.61040211,83.2674991 5.98596888,69.8724642 11.7814495,59.258059 C15.3377817,52.7442984 19.4551161,47.228557 22.8805298,43.1569088 L71.7733056,43.1575831 C72.5374187,43.7365016 73.3271822,44.2634962 74.0973704,44.7378924 C77.106572,46.5892853 82.2329474,47.8287171 85.3626386,47.2390092 C87.6823158,46.8023759 88.5402556,44.6677613 88.5402556,44.6677613 C88.5402556,44.6677613 88.7042834,44.1127818 88.9881257,43.1565716 L108.242156,43.1575831 C107.007222,43.8878903 105.774989,44.7695863 104.555243,45.8218895 C99.209151,50.4346934 95.2502081,56.4969851 92.6554636,63.2710398 C89.1342657,72.4649537 88.4592542,81.8510537 88.4592542,81.8510537 C88.4592542,81.8510537 89.2581304,84.0001665 87.2928342,87.1564019 C86.4480572,88.5576747 84.4746608,89.1939119 83.1978765,89.6298709 C80.2902641,90.623844 76.1372554,87.9774075 75.5702457,84.579085 C75.003236,81.1800882 75.8578006,80.1136238 77.4697282,78.3225841 C78.6928492,76.9637946 79.2477087,77.6189132 80.6794083,76.106712 C81.7162261,75.0112511 83.1006748,72.7461524 83.3011532,71.3010477 C83.7088602,68.3673435 82.2245098,64.4096583 80.3803781,61.3963823 C78.5848474,58.4626782 76.4524858,56.4484329 75.0859249,55.3030711 C68.064117,49.41813 61.1928367,48.4824871 55.4832513,48.1861159 C52.0282045,48.0067422 47.7155556,47.7022789 47.7155556,47.7022789 L62.4578084,65.1811001 C62.4578084,65.1811001 57.451585,71.8169156 54.4133579,80.465965 C52.6262648,85.5531651 51.7831753,91.2273758 51.966441,97.1048992 L47.2896233,97.104562 Z" id="path16"></path>
                        <path d="M44.6371653,122.675093 L50.8746098,120.247479 C50.8746098,120.247479 51.4061814,119.992579 51.7669751,119.398825 C52.0093042,119.001304 52.1301313,118.184007 52.1301313,118.184007 C52.1301313,118.184007 50.8260089,114.994729 49.8820052,112.121378 C49.1256548,109.818516 48.6872348,107.704806 48.6872348,107.704806 C48.6872348,107.704806 48.0844494,106.788719 47.3419367,106.609008 C45.7610596,106.227333 43.0026248,106.472792 41.4230977,106.877732 C39.8432331,107.281997 39.6559174,109.930119 39.6559174,109.930119 C39.6559174,109.930119 39.7571691,112.432585 40.2425025,114.781301 C40.8884885,117.904157 41.964457,121.097144 41.964457,121.097144 C41.964457,121.097144 42.607068,122.206766 43.130202,122.515612 C43.8963401,122.967755 44.6371653,122.675093 44.6371653,122.675093 Z M79.2139581,129.472749 C78.8983902,128.574195 78.9159405,127.249797 79.118444,126.496225 C79.3435604,125.656675 80.2187129,124.405779 81.1843169,123.887551 C82.616354,123.118807 84.2471819,123.281996 84.2471819,123.281996 C84.2471819,123.281996 90.4552634,125.247689 96.9589999,123.984319 C102.95074,122.820412 109.09537,118.646939 113.080639,113.746193 C116.690601,109.307369 119.224594,102.983771 120.127085,97.106585 L152.330874,97.104562 C151.226893,101.444934 149.917033,105.761366 148.375306,109.645549 C145.020499,118.100389 140.758476,124.75576 136.886272,129.474772 L130.363635,129.472749 C130.880694,128.892819 131.381553,128.304123 131.864523,127.708346 C137.380718,120.905295 140.623811,113.328779 140.623811,113.328779 C140.623811,113.328779 141.677504,110.789562 139.328464,109.413577 C136.979424,108.037929 135.601725,110.254138 135.601725,110.254138 C135.601725,110.254138 132.323194,115.444512 126.742536,120.826397 C123.49708,123.956671 119.368709,127.130102 115.082048,129.470726 L79.2139581,129.472749 Z M45.4870049,129.472749 C45.1565867,128.918107 44.9615084,128.582287 44.9615084,128.582287 C44.9615084,128.582287 44.7212043,128.183417 45.0134843,127.576176 C45.1187861,127.357353 45.1518616,127.13145 45.3813656,126.897793 C45.5723939,126.703246 45.8930244,126.437895 45.8930244,126.437895 C45.8930244,126.437895 48.4324179,125.367384 50.4952533,124.561888 C51.7399746,124.076028 53.0211466,123.727059 53.0211466,123.727059 C53.0211466,123.727059 53.7471215,123.489018 54.3208813,123.652882 C54.6958503,123.760101 55.0056806,124.293502 55.0056806,124.293502 C55.0056806,124.293502 56.2659272,126.487796 57.8120412,128.614318 C58.0219698,128.902934 58.238311,129.190202 58.4546522,129.470726 L64.4217545,129.472749 C63.6195033,128.538455 62.7986892,127.502673 61.9910379,126.367089 C57.5295489,120.094404 53.4555165,110.751799 52.348835,101.967208 C52.143294,100.33666 52.0163918,98.7128563 51.966441,97.1048992 L47.2896233,97.104562 C47.3078486,99.0159709 47.39155,100.381504 47.39155,100.381504 C47.39155,100.381504 47.3766998,100.981327 47.1174953,101.311078 C46.7337513,101.798961 46.0550271,102.080834 46.0550271,102.080834 L41.2759452,102.040373 C41.2759452,102.040373 40.7990495,101.785811 40.5361325,101.386266 C40.2938034,101.018078 40.2634278,100.502884 40.2634278,100.502884 C40.2634278,100.502884 40.5222948,99.0419329 40.9829902,97.1022018 L0.3616307,97.104562 C0.0105470558,100.991442 -0.0933416129,104.914062 0.0872769714,108.819486 C0.406984728,115.735151 1.57520363,122.7314 3.43003756,129.474435 L45.4870049,129.472749 Z" id="path18"></path>
                        <path d="M115.082048,129.472749 C113.819101,130.159899 112.542655,130.777255 111.270933,131.299529 C105.466508,133.683311 99.1132993,134.819906 93.9720737,134.677284 C86.8409139,134.48004 81.8171403,132.345089 81.8171403,132.345089 C81.8171403,132.345089 80.1174611,131.420235 79.3118348,129.710116 C79.2763967,129.634253 79.2436587,129.554344 79.2139581,129.470389 L115.082048,129.472749 Z M176.235059,142.959494 L150.100974,130.512577 C150.100974,130.512577 147.85386,133.800646 144.844996,137.120071 C142.854049,139.317061 140.360219,141.471569 138.753354,142.95882 L176.235059,142.959494 Z M109.479452,142.959494 C109.953648,142.823278 110.424806,142.679644 110.892251,142.527244 C118.588733,140.018035 125.285186,135.166179 130.363635,129.472749 L136.886272,129.472749 C136.793458,129.588061 136.700644,129.700338 136.608167,129.811267 C134.371179,132.497152 131.891861,134.584226 130.764254,135.854003 C129.982254,136.735024 130.336635,138.171363 130.336635,138.171363 L135.063403,142.959494 L129.540459,142.959494 L127.13708,140.558516 C127.13708,140.558516 125.99631,140.001177 125.198784,140.291142 C124.019876,140.720357 122.93007,141.697135 121.18314,142.654694 C120.998525,142.755844 120.807159,142.856995 120.611743,142.958145 L109.479452,142.959494 Z M58.9791362,142.959494 C59.2926791,142.593329 60.1573689,141.605425 61.1985743,140.594931 C62.6889998,139.148814 64.4828431,137.645379 64.4828431,137.645379 C64.4828431,137.645379 65.0572779,137.209758 65.616525,137.219198 C66.229773,137.229651 66.8318834,137.68584 66.8318834,137.68584 C66.8318834,137.68584 68.8532055,139.236815 70.9707168,140.627636 C72.3615782,141.541026 74.162509,142.500608 74.162509,142.500608 C74.162509,142.500608 74.4058507,142.674587 74.6431173,142.957134 L85.8877976,142.959494 C77.3556513,140.414545 71.3679611,135.905589 71.3679611,135.905589 C71.3679611,135.905589 68.0840298,133.740967 64.4217545,129.473086 L58.4549897,129.472749 C59.6865483,131.06486 60.918782,132.426009 60.918782,132.426009 C60.918782,132.426009 61.2515627,133.019089 61.2205121,133.679265 C61.1908116,134.313142 60.7972799,135.015464 60.7972799,135.015464 L55.4916889,140.072994 C55.4916889,140.072994 54.7312884,140.636739 53.9182369,140.485351 C53.2219625,140.355204 52.4541368,139.50655 52.4541368,139.50655 C52.4541368,139.50655 50.8098087,137.714836 49.4378476,135.714415 C47.8927461,133.462128 46.2899312,130.821424 45.4870049,129.473086 L3.43003756,129.472749 C4.709657,134.126351 6.31611704,138.657897 8.19626053,142.959494 L58.9791362,142.959494 Z" id="path20"></path>
                        <path d="M75.620534,153.829473 L79.0630931,146.020648 C79.0630931,146.020648 79.411399,145.664598 79.934533,145.564796 C80.3503401,145.485224 80.9669632,145.656506 80.9669632,145.656506 C80.9669632,145.656506 83.0243985,146.532807 85.2505866,147.261766 C87.8723316,148.120197 90.727293,148.852864 90.727293,148.852864 C90.727293,148.852864 91.2676398,149.160025 91.5825327,149.740292 C91.9342137,150.390353 92.0634785,151.320939 92.0634785,151.320939 L91.9824771,157.511354 C91.9824771,157.511354 91.7897613,158.447335 91.2301767,158.98377 C90.7931067,159.403208 89.9577799,159.453446 89.9577799,159.453446 C89.9577799,159.453446 86.5756344,159.18978 83.1911263,158.496898 C79.9568084,157.835036 76.7140528,156.74261 76.7140528,156.74261 C76.7140528,156.74261 75.9334019,156.396338 75.5803709,155.690644 C75.0768122,154.887508 75.620534,153.829473 75.620534,153.829473 Z M96.1135479,157.794576 L96.3160514,150.552194 C96.3160514,150.552194 96.4807542,149.879206 96.9080365,149.405484 C97.1642034,149.120576 97.7740764,148.933785 97.7740764,148.933785 C97.7740764,148.933785 100.606762,148.910857 103.217707,148.582455 C105.575523,148.285747 107.777748,147.800898 107.777748,147.800898 C107.777748,147.800898 108.649863,147.712897 109.321499,148.036579 C109.66508,148.202129 110.005624,148.771944 110.005624,148.771944 L112.597331,155.08374 C112.597331,155.08374 112.832572,156.165714 112.312476,156.903439 C111.82073,157.601378 110.572296,157.956417 110.572296,157.956417 C110.572296,157.956417 107.569844,158.727522 104.331139,159.180339 C101.526128,159.572803 98.4220875,159.655747 98.4220875,159.655747 C98.4220875,159.655747 97.8780282,159.808821 96.9461747,159.080537 C96.0146587,158.352253 96.1135479,157.794576 96.1135479,157.794576 Z M8.19639553,142.959494 C10.162873,147.459009 12.4289206,151.70666 14.9337198,155.57803 C24.2910677,170.040203 36.3750237,179.370333 36.3750237,179.370333 C36.3750237,179.370333 48.2002139,189.223412 65.9155551,195.054743 C80.7344217,199.932898 100.014777,201.41408 116.689926,197.533944 C134.237189,193.451169 151.402058,183.451085 163.066596,171.772238 C175.361932,159.462886 181.691515,145.55839 181.691515,145.55839 L176.235059,142.959494 L138.753354,142.959494 C138.5468,143.149657 138.35476,143.33038 138.180269,143.497952 C137.290941,144.353686 136.088071,143.997636 136.088071,143.997636 L135.063403,142.959494 L129.540459,142.959494 L132.078165,145.494665 C132.078165,145.494665 132.481484,146.556746 132.435921,147.271881 C132.380907,148.122894 131.875661,148.650563 131.875661,148.650563 C131.875661,148.650563 129.160089,150.647276 125.780644,152.462592 C122.738029,154.097185 118.99644,155.569263 118.99644,155.569263 C118.99644,155.569263 118.359567,155.609386 117.807745,155.357858 C117.517152,155.225351 117.133408,154.719598 117.133408,154.719598 L114.581865,148.245961 C114.581865,148.245961 114.01283,146.391533 115.268014,145.622789 C116.546486,144.840221 118.779087,143.906264 120.611743,142.958145 L109.479452,142.959494 C102.303742,145.007456 94.3831557,145.129848 87.8355435,143.495592 C87.1730196,143.33038 86.523321,143.151343 85.8877976,142.961517 L74.6431173,142.959494 C74.8125452,143.158761 74.978598,143.41602 75.0508243,143.704974 C75.1996643,144.297716 74.8101826,145.090063 74.8101826,145.090063 L71.6919667,152.656126 C71.6919667,152.656126 71.299785,153.352717 70.6190358,153.601884 C70.1104146,153.788339 69.261925,153.546251 69.261925,153.546251 C69.261925,153.546251 67.161289,152.402576 64.9810016,150.842834 C62.1780161,148.838029 59.1367514,146.30387 59.1367514,146.30387 C59.1367514,146.30387 58.3760134,145.694943 58.3047997,144.889784 C58.2342609,144.096764 58.8532466,143.107511 58.8532466,143.107511 C58.8532466,143.107511 58.8974598,143.054576 58.9791362,142.959157 L8.19639553,142.959494 Z" id="path22"></path>
                    </g>
                </g>
            </g>
        </g>
    </g>
</svg>