<svg width="200" height="200" xmlns="http://www.w3.org/2000/svg"><g fill="#6B1F36" fill-rule="evenodd"><path d="M138.857 156.053a6.1 6.1 0 0 0 .361.067s-3.937 2.527-9.352 2.874c-3.873.249-8.063-.484-12.219-2.941H98.5c1.123 3.783 4.13 13.87 6.26 20.62 1.224 3.876 2.317 6.46 2.317 6.46s.772 1.665 2.564 2.998c.696.518 1.49 1.06 2.274 1.421 1.094.505 2.09.735 2.09.735s1.466.059 3.055.319c2.137.35 4.693.969 6.06 1.372 3.341.986 7.526 2.049 10.745 3.223 3.865 1.41 6.361 2.654 6.361 2.654s.53.293.977-.025c.736-.524 1.809-1.548 3.365-2.564 1.53-.999 3.531-1.986 5.514-2.795 3.412-1.39 7.152-1.974 9.216-2.337.987-.173 1.59-.451 1.59-.451s-8.894-4.94-17.65-8.09c-7.203-2.592-14.572-3.504-14.572-3.504s1.045-1.697 1.777-3.262c.967-2.068 1.687-4.146 1.687-4.146s4.007 1 7.823 1.548c4.292.616 8.45.787 8.45.787s3.408.372 5.215-1.016c2.009-1.543 2.598-4.862 2.598-4.862s.63-3.925 1.158-9.084h-18.516Zm-57.478 0c-1.566 1.183-3.026 2.58-3.998 4.168-1.33 2.172-2.321 4.529-2.775 6.265-.429 1.637-.357 2.719-.357 2.719s3.104 1.87 6.721 5.083c3.335 2.962 7.059 7.1 10.29 11.137 4.881 6.098 6.834 13.57 6.834 13.57s-4.801-3.412-11.796-7.407c-3.692-2.108-7.994-4.292-12.525-6.412-5.228-2.446-9.845-3.869-15.574-5.65-8.33-2.591-16.021-2.116-23.304-2.353-4.589-.15-9.283-.776-13.03-2.02-7.391-2.453-11.215-5.184-11.215-5.184l15.83-9.219s3.192 1.791 6.93 2.566c2.593.538 6.482.349 6.482.349s-3.08-2.787-7.137-7.611h48.624Z"/><path d="m133.095 105.315 13.373-1.288 4.27 11.353-17.643-10.065Zm-3.628-2.94c.2 1.305.32 2.59.352 3.825.172 6.553-2.201 11.756-2.201 11.756s-2.435 3.72-3.569 9.254c-.878 4.281-.784 9.84.597 14.383 1.052 3.462 3.762 8.052 6.502 10.46 3.26 2.865 6.621 3.77 7.709 4h18.516c.265-2.596.504-5.505.624-8.383.325-7.792-.412-15.382-.412-15.382l8.941-.886s-1.379-14.65-5.032-29.025l-32.027-.001Zm-72.437 0c-.01 1.038 0 2.237.053 3.465.13 2.984.612 6.278.612 6.278s.12 1.102-1.21 1.585c-1.329.483-2.052-.336-2.052-.336s-1.635-3.852-2.804-7.723a57.1 57.1 0 0 1-.871-3.266l-40.398-.002c1.242 13.768 5.593 27.096 11.357 37.657 3.537 6.481 7.631 11.97 11.038 16.02h48.624c.76-.576 1.545-1.1 2.311-1.572 2.993-1.842 8.091-3.076 11.204-2.489 2.307.435 3.16 2.559 3.16 2.559l.445 1.503h19.148a25.446 25.446 0 0 1-3.666-2.652c-5.317-4.59-9.254-10.622-11.835-17.362-3.501-9.148-4.173-18.487-4.173-18.487s.795-2.138-1.16-5.279c-.84-1.394-2.802-2.027-4.072-2.46-2.892-.99-7.022 1.643-7.586 5.025-.564 3.382.286 4.443 1.89 6.225 1.215 1.352 1.767.7 3.191 2.205 1.031 1.09 2.408 3.344 2.607 4.781.406 2.92-1.07 6.857-2.904 9.856-1.786 2.919-3.907 4.923-5.266 6.062-6.983 5.856-13.816 6.787-19.495 7.082-3.436.178-7.725.481-7.725.481l14.662-17.391s-4.98-6.603-8-15.209c-1.778-5.061-2.616-10.707-2.434-16.555H57.03Z"/><path d="m54.392 76.933 6.203 2.416s.529.253.888.844c.24.396.36 1.209.36 1.209s-1.296 3.173-2.235 6.032c-.752 2.292-1.188 4.395-1.188 4.395s-.6.911-1.338 1.09c-1.572.38-4.316.136-5.887-.267-1.57-.403-1.757-3.037-1.757-3.037s.1-2.49.583-4.827c.643-3.108 1.713-6.285 1.713-6.285s.639-1.104 1.16-1.411c.761-.45 1.498-.159 1.498-.159Zm34.387-6.763c-.314.894-.297 2.211-.095 2.961.224.836 1.094 2.08 2.054 2.596 1.424.765 3.046.602 3.046.602s6.174-1.955 12.642-.698c5.96 1.158 12.07 5.31 16.033 10.187 3.59 4.416 6.11 10.708 7.008 16.556l32.027.002c-1.098-4.319-2.4-8.614-3.934-12.478-3.336-8.413-7.575-15.035-11.426-19.73l-6.487.002a49.118 49.118 0 0 1 1.493 1.755c5.486 6.77 8.711 14.308 8.711 14.308s1.048 2.526-1.288 3.895c-2.336 1.37-3.706-.836-3.706-.836s-3.26-5.164-8.81-10.52c-3.228-3.114-7.334-6.271-11.597-8.6l-35.671-.002Zm-33.542 0c-.329.551-.523.886-.523.886s-.239.396.052 1c.105.218.138.443.366.676.19.193.509.457.509.457s2.525 1.065 4.577 1.867c1.238.483 2.512.83 2.512.83s.722.237 1.292.074c.373-.106.681-.637.681-.637s1.254-2.183 2.791-4.3c.21-.286.424-.572.64-.851l5.934-.002c-.798.93-1.614 1.96-2.418 3.09-4.437 6.241-8.488 15.537-9.589 24.278a51.505 51.505 0 0 0-.38 4.838H57.03c.018-1.902.101-3.26.101-3.26s-.015-.597-.272-.926c-.382-.485-1.057-.765-1.057-.765l-4.753.04s-.474.253-.736.65c-.24.367-.27.88-.27.88s.257 1.453.715 3.383l-40.398-.002a85.75 85.75 0 0 1-.273-11.656c.318-6.882 1.48-13.843 3.324-20.552l41.826.002Z"/><path d="M124.45 70.17a38.85 38.85 0 0 0-3.79-1.818c-5.773-2.372-12.091-3.503-17.204-3.36-7.092.195-12.088 2.32-12.088 2.32s-1.69.92-2.492 2.621a2.658 2.658 0 0 0-.097.239l35.67-.002Zm60.817-13.42-25.99 12.385s-2.236-3.272-5.228-6.575c-1.98-2.186-4.46-4.33-6.058-5.81h37.276Zm-66.39 0c.473.136.941.279 1.406.43 7.654 2.497 14.314 7.325 19.364 12.99h6.487a25.254 25.254 0 0 0-.276-.337c-2.225-2.673-4.69-4.75-5.812-6.013-.778-.876-.426-2.306-.426-2.306l4.701-4.764h-5.492l-2.39 2.39s-1.135.554-1.928.265c-1.173-.427-2.256-1.399-3.994-2.351-.183-.101-.374-.202-.568-.302l-11.071-.002Zm-50.222 0a36.993 36.993 0 0 0 2.207 2.353c1.483 1.439 3.267 2.935 3.267 2.935s.57.433 1.127.424c.61-.01 1.209-.464 1.209-.464s2.01-1.544 4.116-2.928c1.383-.908 3.174-1.863 3.174-1.863s.242-.173.478-.454l11.183-.003c-8.485 2.532-14.44 7.019-14.44 7.019s-3.266 2.154-6.908 6.4h-5.934c1.225-1.584 2.45-2.938 2.45-2.938s.331-.59.3-1.247c-.03-.63-.42-1.33-.42-1.33l-5.277-5.032s-.756-.56-1.565-.41c-.692.13-1.456.974-1.456.974s-1.635 1.783-3 3.773c-1.536 2.241-3.13 4.869-3.929 6.21H13.411a99.442 99.442 0 0 1 4.74-13.419h50.504Z"/><path d="m85.205 45.935 3.424 7.77s.346.354.866.453c.414.08 1.027-.091 1.027-.091s2.046-.872 4.26-1.597c2.608-.855 5.447-1.584 5.447-1.584s.537-.305.85-.883c.35-.646.479-1.572.479-1.572l-.08-6.16s-.193-.931-.75-1.465c-.434-.417-1.264-.467-1.264-.467s-3.364.262-6.73.952c-3.217.658-6.441 1.745-6.441 1.745s-.777.345-1.128 1.047c-.5.799.04 1.852.04 1.852Zm20.38-3.946.202 7.207s.164.67.589 1.14c.254.284.86.47.86.47s2.818.023 5.415.35c2.344.295 4.535.777 4.535.777s.867.088 1.535-.234c.342-.165.68-.732.68-.732l2.578-6.28s.234-1.077-.284-1.811c-.489-.694-1.73-1.048-1.73-1.048s-2.986-.767-6.207-1.217c-2.79-.391-5.877-.474-5.877-.474s-.54-.152-1.467.573c-.927.724-.829 1.28-.829 1.28ZM18.151 56.75c1.956-4.477 4.21-8.703 6.7-12.555 9.307-14.39 21.324-23.674 21.324-23.674s11.76-9.803 29.378-15.606C90.291.062 109.465-1.412 126.05 2.45c17.45 4.062 34.521 14.012 46.122 25.633 12.227 12.247 18.522 26.082 18.522 26.082l-5.426 2.586H147.99c-.205-.189-.396-.369-.57-.535-.884-.852-2.08-.498-2.08-.498l-1.02 1.033h-5.492l2.523-2.522s.402-1.057.356-1.769c-.054-.846-.557-1.371-.557-1.371s-2.7-1.987-6.061-3.793c-3.026-1.627-6.747-3.091-6.747-3.091s-.634-.04-1.183.21c-.289.132-.67.635-.67.635l-2.538 6.441s-.566 1.845.683 2.61c1.271.779 3.491 1.708 5.314 2.652l-11.071-.002c-7.136-2.037-15.013-2.16-21.525-.533-.659.164-1.305.342-1.937.531l-11.183.002c.168-.198.334-.454.405-.741.148-.59-.239-1.379-.239-1.379l-3.1-7.528s-.391-.693-1.068-.94c-.506-.186-1.35.054-1.35.054s-2.089 1.138-4.257 2.69c-2.788 1.995-5.812 4.517-5.812 4.517s-.757.606-.828 1.407c-.07.789.546 1.773.546 1.773l.125.148H18.151Z"/></g></svg>