<svg width="200" height="200" xmlns="http://www.w3.org/2000/svg"><g fill="none"><path d="M191.3 74.87c-1.202-3.752-11.586-25.19-12.865-27.468-.829-1.481-2.26-2.539-3.926-2.96-1.602-.408-39.672-9.935-74.41-9.984-10.471-.016-26.346.772-42.513 4.61-18.133 4.299-32.26 11.404-41.99 21.122C5.245 70.522 0 83.612 0 99.103c0 16.565 7.979 32.843 21.902 44.667 16.405 13.942 40.346 21.308 69.22 21.308 33.428 0 77.588-8.003 84.47-11.145a6.372 6.372 0 0 0 3.058-2.965c.006-.006.024-.01.028-.02 0 0 7.76-15.349 8.739-17.211.983-1.866 2.895-5.848 3.882-8.99.985-3.14 1.327-45.74 0-49.878" fill="#AEA555"/><path d="M105.044 96.271c.167.17.332.333.5.5-.168-.167-.333-.33-.5-.5" fill="#CAC9C9"/><path d="M136.973 72.807l-12.925-2.872-3.025-.638 15.632 1.92 9.494 6.11.315 2.112-9.491-6.632zM116.99 61.035l13.369-7.983c-12.813 2.212-28.807 7.817-28.807 7.817-31.923.465-47.97 12.197-54.347 18.56-6.846 10.007-5.945 19.769-5.945 19.769.595 26.55 15.96 37.538 28.587 42.08a116.07 116.07 0 0 0 9.548 2.504c3.219.546 5.6.672 6.531.7-5.067-3.256-6.616-7.372-6.03-11.76-.036.077-.06.121-.06.121l.097-.364c.21-1.395.629-2.81 1.217-4.232a59.458 59.458 0 0 1 3.154-7.77c-.153.3-.307.607-.453.922l-.004.004c1.274-6.784 9.33-18.234 9.33-18.234l.214-18.238c.845-5.933 12.467-11.934 12.467-11.934l-1.33 1.763a.075.075 0 0 0-.022.016l.036-.028c-5.728 6.996-4.507 11.226-4.507 11.226.785 4.695 2.673 8.047 5.003 10.435 3.2 1.9 10.253 4.964 19.726 2.522 0 0 9.966-2.123 24.565-3.484l-.9.293c-6.361 3.179-11.667 5.302-11.667 5.302l2.597.966 7.457 1.585c4.877 1.484 4.452 3.923 4.452 3.923l.212 3.708c2.698.676 5.187 2.75 6.097 3.575l9.478-2.43 1.905-3.179 5.547.223-.085-.59c-.852-2.48-2.049-10.839-3.516-12.466-7.405-8.208-17.889-15.77-17.889-15.77-2.07-1.12-3.833-2.645-5.194-4.06 1.441 4.15 1.985 7.657 1.985 7.657l-.313-.41s-.912-2.637-3.068-7.31l-.048-1.558c-1.086-1.31-1.683-2.27-1.683-2.27-5.09-5.3-18.654-11.557-18.654-11.557l-10.413.66 1.36-.704z" fill="#C4C3C3"/><path d="M116.998 61.063l15.688-9.41s-15.666 1.836-27.299 5.837l-1.64.567c-15.613.151-27.729 3.23-27.729 3.23-37.374 9.664-34.758 37.91-34.758 37.91 1.015 45.345 45.103 45.297 45.103 45.297 36.569 4.133 78.875-9.685 78.875-9.685l5.287-6.414c9.742-11.006 13.845-10.199 13.845-10.199 3.63 1.104.41 5.039-.722 7.522-1.132 2.475-10.696 22.43-10.696 22.43-5.241 2.393-47.626 10.573-81.83 10.573-60.598 0-84.76-32.918-84.76-59.618 0-50.394 61.43-58.332 93.728-58.288 34.351.049 72.862 9.793 72.862 9.793l11.383 24.843s4.469 7.372-2.39 5.452l-16.707-16.819L145.776 60c-6.47.333-2.062 4.456-2.062 4.456 5.297 3.178 7.398 6.77 7.398 6.77l4.839 4.497c18.181 12.795 21.097 19.592 21.097 19.592l1.694 8.27.953 9.702-7.738.052-1.961 2.968-11.289 2.863-16.695-4.573c6.365-3.498 2.4-6.535 2.4-6.535l-11.833-4.383-15.901 5.088-11.64-1.89c-14.07 3.07-25.202 25.966-25.202 25.966 4.804-19.692 16.806-28.532 16.806-28.532l-1.005-19.065c1.005-5.075 8.905-10.498 8.905-10.498-5.728 6.996-4.507 11.226-4.507 11.226 2.864 17.175 20.507 16.337 20.507 16.337 18.444-5.404 27.887-6.571 27.887-6.571-6.361 3.179-11.667 5.302-11.667 5.302l12.78 4.755.893 6.374 7.056 2.652 9.564-2.454 1.905-3.179 5.547.223-1.7-11.976c-10.265-12.634-20.35-19.08-20.35-19.08l-4.434-3.62s-3.743-4.995-4.679-5.659c-6.347-4.5-17.124-9.923-17.124-9.923l-1.017.307-8.205 1.601" fill="#1D2950"/><path d="M145.829 75.18l.635 4.259-9.491-6.632-12.925-2.872 12.607 5.472s5.672 8.953 9.681 6.228l3.159 2.139s-1.072-3.12-3.666-8.593m24.749 23.525l1.063 5.623-6.256-11.056z" fill="#1D2950"/><path d="M82.652 108.13s6.361-7.21 6.784-16.112c0 0-13.535 6.759-27.343 18.628-3.4 2.79-3.29 1.02-2.87-.406 9.225-12.547 27.6-34.21 47.226-38.67 0 0-3.11 17.68 20.478 18.832l20.208-.6-11.642-7.377s-9.944-8.445-26.612-14.26c-1.38-.803-.839-1.444-.629-1.622 9.831-.142 25.56 1.306 32.49 6.709 0 0-2.093-3.984-14.64-9.813-2.232-1-6.013-1.025-9.66-.714l-.009-.008c-4.735.116-3.073-1-2.893-1.593l5.93-4.202-19.388 5.698c-14.888 2.06-38.994 8.363-57.776 27.499-1.393 5.281-1.046 9.079-1.046 9.079.27 12.014 3.563 20.842 8.26 27.329 5.296 1.142 19.894 1.973 33.132-18.396" fill="#FFF"/><path d="M163.962 104.964h4.606c-1.243-4.367-4.064-12.37-12.455-17.771l-6.618-3.42 12.712 16.104-7.631-3.183-15.707 3.468c-.817.35-1.427.6-1.771.744l6.39-.01c14.265 3.963 11.407 9.738 11.407 9.738s5.593 1.015 7.738.37c2.122-.633 6.18-2.997 4.453-3.603l-10.6-.21s5.478-2.696 7.476-2.227m-98.741 40.363S33.862 133.03 33.862 98.902c0-27.507 31.191-41.013 31.191-41.013S28.845 66.979 28.845 98.7c0 37.342 36.376 46.627 36.376 46.627m21.569 6.167s57.769-1.092 81.796-12.106l11.503-13.767-9.612 15.662s-22.446 12.69-83.688 10.211M116.32 49.663c-26.273-.84-32.012 1.153-31.806 1.383 0 0 8.788-.715 24.18.753l7.626-2.136m22.02 4.242c10.397.611 23.94 2.883 30.246 6.37l12.118 14.39-10.983-17.42s-7.918-3.505-27.738-5.855l-3.644 2.515m4.756 25.311a1.186 1.186 0 0 0-.146.562 1.216 1.216 0 1 0 2.393.316c-.568.11-1.541-.417-2.247-.878" fill="#FFF"/><path fill="#1D2950" d="M186.066 159.602h-1.26v-8.963h-2.402v-1.155h6.064v1.155h-2.402v8.963m5.114-6.682h-.028l-1.181 6.682h-1.299l2.063-10.548 3.478 7.97 3.473-7.97 2.065 10.548h-1.3l-1.181-6.682h-.026l-3.031 6.896-3.033-6.896"/></g></svg>