<svg width="200" height="145" xmlns="http://www.w3.org/2000/svg" xmlns:xlink="http://www.w3.org/1999/xlink"><defs><path id="a" d="M.043.196h199.8v144.09H.042z"/></defs><g fill="none" fill-rule="evenodd"><mask id="b" fill="#fff"><use xlink:href="#a"/></mask><path d="M119.364 74.785h-12.6l6.261-18.551h.154l6.185 18.551Zm4.096 11.596 3.787 10.125h16.156L121.45 38.223h-16.542L82.49 96.506H98.57l4.02-10.125h20.871Z" fill="#15233C" mask="url(#b)"/><path d="M199.842 97.25c-14.078 26.006-42.526 47.036-86.608 47.036-42.029 0-64.766-21.03-86.797-47.035C16.76 85.828 9.02 77.059 0 69.554c9.349-5.39 20.64-16.87 27.402-24.203C51.677 19.035 73.456.196 113.231.196c37.42 0 70.392 13.553 86.505 48.078h-26.332c-11.059-15.658-33.504-26.298-58.915-26.298-36.365 0-65.843 21.893-65.843 48.901 0 27.008 29.478 48.9 65.843 48.9 23.09 0 44.047-9.468 55.8-22.828l29.553.302" fill="#15233C" mask="url(#b)"/></g></svg>