<svg width="200" height="200" xmlns="http://www.w3.org/2000/svg"><g fill-rule="nonzero" fill="none"><path d="M133.603 152.962c0 11.134-7.513 23.03-28.6 23.03H96.74c-21.087 0-28.6-11.896-28.6-23.03v-8.969c6.682 1.128 13.78 1.88 21.215 2.264v4.686H78.723v20.253h44.271v-20.253h-10.632v-4.568c7.433-.241 14.514-.722 21.241-1.439v8.026Zm-88.848-40.147c-9.868-5.08-14.284-10.944-14.284-14.503 0-3.558 4.416-9.422 14.284-14.5l.303-.153v29.308l-.303-.152Zm44.599-39.342v49.68c-8.136-.462-15.169-1.398-21.215-2.605v-44.47c6.046-1.207 13.079-2.143 21.215-2.605Zm44.25 1.472v46.736c-6.378.758-13.431 1.315-21.242 1.592v-49.92c7.81.277 14.864.834 21.241 1.592Zm44.467 34.54c-.127.068-.246.135-.374.203-4.943 2.592-11.773 5.388-21.013 7.782V79.156c9.24 2.393 16.07 5.19 21.011 7.782.466.244.914.488 1.354.731l13.887-18.632c-9.864-5.944-21.979-10.503-36.252-13.66V20.642h10.59V.391h-44.27v20.252h10.6v31.045c-6.729-.716-13.81-1.197-21.242-1.438v-4.52h10.642V25.477h-44.27V45.73h10.62v4.64c-7.435.384-14.533 1.135-21.215 2.263v-31.99h10.595V.391H34.463v20.252h10.595v37.938c-3.855 1.403-7.49 2.966-10.863 4.702C17.16 72.05 7.39 84.818 7.39 98.313c0 13.494 9.77 26.263 26.805 35.03 3.372 1.735 7.008 3.298 10.863 4.701v14.918c0 27.153 21.252 46.117 51.681 46.117h8.265c30.429 0 51.68-18.964 51.68-46.117v-11.714c13.817-3.058 25.612-7.428 35.299-13.097l-13.912-18.666Z" fill="#FBC01C"/><path d="M89.354 127.303c-42.916-2.407-63.038-18.1-63.038-28.99 0-10.891 20.122-26.582 63.038-28.99V54.53c-21.22 1.117-39.476 5.355-53.258 12.449-15.603 8.03-24.552 19.45-24.552 31.333 0 11.884 8.95 23.305 24.552 31.335 13.782 7.093 32.038 11.333 53.258 12.45v-14.794Zm23.008.13v14.775c31.127-1.02 55.911-6.252 73.855-15.618l-8.983-12.052c-12.684 6.143-32.91 11.792-64.872 12.895Zm74.843-56.882c-18.018-9.691-43.145-15.094-74.843-16.131v14.774c32.82 1.131 53.263 7.059 65.875 13.39l8.968-12.033Zm-49.447 73.908v8.503c0 20.066-17.644 27.186-32.754 27.186h-8.265c-24.176 0-32.755-14.645-32.755-27.186v-9.73c-5.206-1.024-10.133-2.29-14.771-3.774v13.504c0 24.706 19.543 41.962 47.526 41.962h8.265c27.982 0 47.526-17.256 47.526-41.962v-10.848a210.397 210.397 0 0 1-14.772 2.345ZM49.213 57.167c4.638-1.484 9.565-2.75 14.771-3.774V16.96h10.608V4.073H38.605V16.96h10.608v40.206Zm103.317 20.98c-4.417-1.005-9.324-1.913-14.772-2.67v45.673c5.447-.758 10.355-1.666 14.772-2.67V78.146Zm-14.772-25.98a210.74 210.74 0 0 1 14.772 2.345v-37.55h10.603V4.071h-35.988v12.89h10.613v35.205ZM63.984 76.982c-5.97 1.415-10.844 3.08-14.771 4.749v33.164c3.927 1.668 8.801 3.334 14.771 4.75V76.981Zm44.237-34.934v112.577h10.63v12.888H82.865v-12.888h10.631V42.048h-10.62V29.16h35.987v12.888h-10.641ZM168.907 149.91h.608c.341 0 .593-.052.757-.155.163-.103.245-.271.245-.506 0-.249-.086-.426-.256-.533-.17-.107-.434-.16-.789-.16h-.565v1.354Zm.736-1.94c.61 0 1.067.1 1.37.298.302.2.452.49.452.874 0 .32-.082.581-.245.784-.163.202-.401.34-.714.41l.96 1.951h-1.035l-.852-1.801h-.672v1.801h-.927v-4.317h1.663Zm-.085-1.056c-.903 0-1.667.313-2.292.939a3.52 3.52 0 0 0-.735 1.092 3.236 3.236 0 0 0 .693 3.556c.32.32.674.563 1.065.73.39.167.796.25 1.215.25.924 0 1.716-.32 2.377-.959.313-.299.55-.643.714-1.034.164-.39.245-.803.245-1.237 0-.93-.312-1.716-.937-2.356-.654-.654-1.436-.98-2.345-.98Zm-.01-.565c.532 0 1.03.096 1.496.288.466.192.887.48 1.263.864.363.362.636.772.821 1.23.185.46.277.948.277 1.467 0 .533-.096 1.03-.288 1.492a3.711 3.711 0 0 1-.842 1.237 4.05 4.05 0 0 1-1.273.842c-.466.192-.95.288-1.455.288-.512 0-1.002-.1-1.47-.299a3.85 3.85 0 0 1-1.258-.863 3.926 3.926 0 0 1-.832-1.242 3.731 3.731 0 0 1-.288-1.455c0-.512.1-1.004.299-1.477.198-.472.487-.897.863-1.274.732-.732 1.627-1.098 2.686-1.098Z" fill="#16243A"/></g></svg>