<svg width="200" height="200" xmlns="http://www.w3.org/2000/svg"><g fill="none"><path d="M37.584 146.155s8.346-7.19 8.376-7.26c.418 1.277.993 4.015 1.602 5.45 3.18 7.397 9.316 19.227 20.988 28.622l6.157 4.955.29-7.067c3.637 2.563 22.425 16.667 40.12 18.643 19.673-4.081 35.904-18.046 36.038-18.257.432 1.547.735 5.17.777 6.829l5.021-4.638c11.67-9.397 18.818-18.555 22.555-28.094.569-1.452.992-1.383 1.408-2.66.057.123.09.23.115.305a.646.646 0 0 0 .059.132l2.927 7.895 3.952-7.43c.142-.313 6.206-15.431 6.233-32.56.021-7.776-1.954-17.638-6.124-26.38 3.113-3.921 4.953-8.28 4.904-11.474v-.038l2.672.525-.844-5.368c-.354-2.09-1.234-3.874-2.242-5.481-1.038-1.63-2.254-3.13-3.41-4.397l4.647-1.987s-11.083-7.197-20.343-7.117c-2.098.022-4.63.435-6.487.773-3.224-2.65-7.143-5.618-11.867-8.938-5.75-4.04-11.927-6.601-17.424-9.42a.988.988 0 0 0 .01-.13c.07-1.248-.268-2.408-.796-3.41-.79-1.507-2.007-2.761-3.472-3.847-1.475-1.08-3.226-1.985-5.188-2.635-1.712-.566-3.402-.887-5.007-.971-1.917-.091-3.706.116-5.33.779a7.252 7.252 0 0 0-2.24 1.409l-.005.001c-9.419-2.737-17.952-3.865-25.147-4.331-16.057-1.024-25.048-.047-25.048-.047-4.398 1.654-7.409 2.256-11.858 5.798-2.64 2.106-4.308 5.013-4.442 7.863-.151 2.879 1.01 6.613 2.546 9.595 1.372 2.662 3.146 4.223 4.647 6.298-9.923-2.834-25.262 8.61-25.262 8.61s3.469 1.59 3.44 1.614c-6.492 5.569-7.09 15.692-7.09 15.692l2.666-.487c-.014 1.226.334 2.978.688 4.424-1.84 2.07-1.231 3.355-2.906 4.95-2.116 2-2.607 3.557-3.845 4.852-10.33 10.947-23.04 20.844-23.96 38.35-.686 13.06 3.01 18.5 3.01 18.5 5.148.57 22.936 7.017 26.501 9.68 0 0-3.11-12.667-3.443-13.995 5.881 2.244 9.576 2.993 11.43 5.875" fill="#123A71"/><path d="M157.48 59.714l.541.67v.005h-.003l-.538-.675m.541.675v-.011.01" fill="#FAB20B"/><path d="M193.132 54.172l3.771-1.787s-8.443-9.108-19.844-8.848c-2.073.046-4.167.175-6.014.515-8.89-8.247-17.525-14.09-28.265-19.374-.516-11.168-21.132-14.519-24.655-10.136-9.348-2.721-17.802-2.712-24.957-2.962-25.516-.905-34.023 7.17-37.113 10.821-2.15 2.537-3.207 5.455-3.341 8.288-.149 2.853 1.166 5.976 2.169 8.457 1.121 2.753 2.658 5.233 4.149 7.297-11.89-3.27-24.326 6.112-24.326 6.112l4.725 2.36a11.68 11.68 0 0 1-.346.304c-7.903 7.023-7.03 15.026-7.03 15.026l2.65-.53v.048a16.42 16.42 0 0 0 .474 4.002c-1.822 2.051-3.166 2.984-4.834 4.565-2.096 1.986-3.864 2.685-5.864 4.294-13.536 10.918-21.133 24.487-20.876 39.35.08 4.496.43 12.369 3.252 17.929 6.028 1.571 20.116 5.265 26.26 9.301 0 0-2.307-9.964-2.632-11.277 10.46 3.73 10.621 6.552 10.621 6.552s7.938-7.065 7.967-7.129a52.488 52.488 0 0 0 1.528 4.036c3.158 7.35 9.622 17.972 21.21 27.294l6.106 4.921.174-7.642c3.614 2.546 19.502 17.008 36.942 18.212 18.813-2.318 38.31-18.702 38.44-18.9.659 2.222 1.13 4.497 1.257 6.99 11.59-9.322 23.17-21.204 26.327-28.557.771-1.825 1.003-2.411 1.716-4.549.972 1.652 3.524 8.935 3.524 8.935l.58-.862c5.347-9.472 10.774-22.679 10.8-39.689.019-7.715-1.019-17.52-5.155-26.202 3.099-3.896 4.374-8.279 4.335-11.443l2.643.482c-.178-5.503-1.692-10.795-6.368-16.204" fill="#FAB20B"/><path d="M115.565 52.107l-1.251 121.162c2.961.08 5.796-.24 5.796-.24 16.205-2.687 34.11-17.619 34.11-17.619 2.753 3.948 2.835 6.783 2.835 6.783 23.453-18.89 22.834-37.147 22.834-37.147 2.9 1.868 5.598 9.128 5.598 9.128s19.097-35.904-8.507-65.79c-27.601-29.887-61.233-17.431-61.233-17.431l-.182 1.154" fill="#CC7B11"/><path d="M185.306 79.867c-.158-.353-2.591-5.404-8.715-11.89 0 0-8.46-1.113-11.73-.214 0 0 1.947 6.199-8.937 1.416-24.097-14.388-48.236-14.303-48.236-14.303s6.21 5.456 7.17 9.022c9.02-2.329 22.768 0 32.692 4.638 20.584 9.623 18.686 18.557 31.7 13.144 2.345 3.225 8.978 19.503 2.447 39.173 0 0-4.536-4.663-5.67-5.41 0 0-.903 25.707-18.298 36.661-.934-2.747-2.814-4.509-4.552-6.249 0 0-10.913 17.782-26.674 16.92l-11.018 12.121s20.921-1.354 38.66-19.307c0 0 2.292 2.454 2.966 6.534 0 0 20.635-15.583 22.667-36.042 0 0 3.076 2.977 5.358 9.464 0 0 15.494-29.053.17-55.678" fill="#98540E"/><path d="M146.645 142.762c-5.117.701-7.649-1.311-8.891-2.577-2.848 4.233-4.322 10.934-4.253 12.198.082 1.267.3 2.923 1.16 5.071 1.206 3.017 4.083 16.75-8.804 16.234 0 0-5.434 3.715-10.652 4.553-21.567-2.575-38.619-22.496-38.619-22.496-1.855 3.968-1.605 6.832-1.605 6.832-23.446-18.882-23.363-37.313-23.363-37.313-2.903 1.863-5.597 9.126-5.597 9.126s-9.34-14.994-5.73-36.474c-7.26 7.217-9.751 24.87-4.855 37.629-3.092-1.16-5.411-2.19-8.632-2.665.498 2.813 1.23 5.836 2.232 9.167-3.906-2.51-16.942-5.668-19.589-6.502C4.81 115.57 11.08 99.119 27.575 85.718c2.446-1.99 9.613-6.054 14.475-12.091-1.57-4.727-1.201-8.7-1.201-8.7l-2.769.557c1.612-7.85 9.22-11.883 9.22-11.883l-1.941-1.304c10.048-5.545 21.247-.402 26.813 2.662 22.491-11.603 43.575-3.795 43.575-3.795l.012 23.12c10.715 0 12.448 2.65 12.49 2.703 5.724-1.107 7.964-1.866 11.756-3.395 7.414-2.994 17.994 1.752 19.813 8.758 0 0-7.114-2.947-15.362 3.066 15.722 10.824 5.259 31.347 3.094 40.979-1.16 5.155-1.934 13.016-.905 16.367" fill="#123A71"/><path d="M68.701 56.676s40.996-17.18 89.115 13.878l-.66-8.573s-52.146-46.057-88.311-25.34L68.7 56.677" fill="#FAB20B"/><path d="M68.807 48.491c24.66-9.079 62.482-4.503 88.857 15.081 0 0-.285-2.275-.448-3.627-7.238-5.906-13.833-10.653-13.833-10.653-40.12-21.476-74.59-7.01-74.59-7.01l.014 6.21" fill="#2D71C1"/><path fill="#2D71C1" d="M91.288 53.786h-8.092V31.033h8.092v22.753m26.371 1.251l-8.158-1.126.074-21.619h8.084v22.745m24.992 7.613l-8.093-2.92-.01-17.113h8.091l.012 20.033"/><path fill="#123A71" d="M96.07 53.196h-1.957V30.583h1.958v22.613m26.128 2.823h-1.955V36.577h1.955v19.442m24.749 7.703l-2.063-1.028.018-11.595 1.958 1.253.087 11.37M83.196 38.61v6.307c1.86-.321 5.424-.657 8.085-.767v-6.422c-2.37.13-6.036.508-8.085.882m26.359-.337l-.023 6.574c2.775.427 5.482.697 8.098 1.31l.042-6.488c-2.232-.6-6.1-1.181-8.117-1.396m33.096 11.124c-1.85-1.4-5.38-3.427-8.083-4.864l.008 6.519c1.634.623 6.4 2.666 8.075 3.458v-5.113"/><path d="M141.136 128.305c1.427-11.96 18.62-43.612-11.886-45.035-.945 3.366-4.142 5.793-8.416 7.195-4.085 2.04-4.083 8.418-4.083 8.418l.013 10.711c1.653-.009 25.31-2.413 22.6 14.74-2.145 13.596 3.932 15.508 3.932 15.508s-3.244-2.431-2.16-11.537" fill="#CC7B11"/><path d="M143.21 127.986c1.43-11.958 16.666-44.848-14.054-45.11-.946 3.369-4.048 6.187-8.322 7.59-1.731.87-2.782 2.517-3.41 4.128 4.493-2.273 17.463-5.306 22.672-.133 6.057 6.015 3.974 17.115 1.74 26.995-3.846 17.003 1.46 18.297 1.46 18.297s-1.167-2.666-.086-11.767" fill="#98540E"/><path d="M112.855 98.843c-.698-6.396-5.157-8.785-5.157-8.785h.058c-3.485-1.536-5.966-4.196-7.172-7.18-24.684-3.13-14.06 33.484-12.639 45.45 1.093 9.105-1.624 11.409-1.624 11.409s5.37 1.066 3.818-16.304c-1.48-16.582 22.615-13.904 22.615-13.904l.101-10.686" fill="#CC7B11"/><path d="M107.698 90.058h.058c-3.338-1.476-5.756-3.986-7.014-6.821-.368-.823-.635-2.078-.793-2.942-.247-1.286-.131-2.37.478-3.277-5.878-1.113-8.568-2.707-12.545-3.842-8.417-2.408-17.413 2.168-19.232 9.174 0 0 5.222-5.508 15.454 2.336.65.504 2.478 1.363 3.093 1.719-13.798 9.385-1.93 32.25-.86 41.236 1.091 9.103-.095 12.143-.095 12.143s4.494-1.268 2.159-18.543c-1.597-11.763-4.98-18.5.669-25.62 4.478-5.644 16.167-3.982 22.654-.988-1.419-3.354-4.026-4.575-4.026-4.575" fill="#98540E"/><path d="M99.864 79.718c-3.18-.767-7.556-1.924-9.488-2.947 0 0-1.007 4.287.858 7.316 2.397-.816 5.601-1.354 9.514-.84 0 0-.718-1.74-.884-3.529" fill="#FFF"/><path d="M124.675 85.321c-.954.766-2.097 1.277-3.93 1.127-2.341-.192-4.688-1.878-4.23-4.895.278-1.85 1.396-.05 1.396-.05s1.762 3.507 5.78 2.71c0 0 1.132-.535 1.438.11 0 0 .254.428-.454.998m-19.437-.163c.898.84 2.132 1.567 3.95 1.29 2.233-.338 4.012-2.411 3.715-5.012-.235-2.078-1.372-.185-1.372-.185s-1.676 3.565-5.691 2.813c0 0-.73-.301-1.004.161 0 0-.16.407.402.933" fill="#2D71C1"/><path d="M114.827 113.037c-7.753.041-13.255.957-16.76 2.722-.053 2.136.522 8.236 4.24 13.981.096.145.262.237.242-.094-.14-1.923-.665-8.436 2.45-13.17l2.217.813 2.672-.994 2.511.994 2.617-.994 2.51.994 2.508-.994 2.248.994 2.428-.794c3.094 4.725 2.559 11.136 2.427 13.05-.03.333.146.242.244.095 3.626-5.614 4.289-11.487 4.252-13.725-3.36-1.9-8.857-2.837-16.806-2.878" fill="#FFF"/><path d="M131.124 131.196c.133 4.661-1.058 6.807-2.778 12.08-1.538 4.72-2.298 7.456-1.743 11.34.385 2.73 1.486 7.604-4.056 7.346 0 0-2.996-.877-8.223-.89-3.761-.01-7.174.7-7.174.7-5.35.9-5.911-4.505-5.521-7.241.556-3.867.273-4.704-1.442-12.107-1.16-4.946-1.736-5.633-1.349-10.787-2.34-3.389-4.297-7.367-3.91-11.555-2.147 2.063-2.147 6.978-1.548 10.418.502 3.624.472 4.944 1.591 9.04 3.043 11.21 2.999 12.177 2.48 14.692-.434 2.118-5.444 16.752 9.935 14.862 0 0 3.919-.432 6.786-.432 2.31 0 7.473.73 7.473.73 13.692 1.549 10.91-8.253 8.945-13.796-.727-2.038-2.044-3.272 2.267-14.057 1.033-2.576 2.107-5.217 2.967-9.085 1.46-5.584.899-10.31-.516-12.63-.357 3.2-2.137 8.21-4.184 11.372" fill="#CC7B11"/><path d="M132.04 160.133a27.19 27.19 0 0 0-.5-1.626c.052.2.096.388.133.596.134.338.262.685.367 1.03" fill="#CC7B11"/><path d="M124.585 165.966s-4.677-.834-9.982-.834c-5.309 0-9.75.653-9.75.653-6.971.783-8.616-5.584-7.97-8.806-1.907 5.182-1.78 12.956 7.861 13.04.841 0 1.767-.068 2.785-.207 0 0 3.9-.327 6.77-.327h.274c2.338 0 7.003.713 7.003.713.78.082 1.987.27 2.659.275 7.985-.037 8.738-6.264 7.733-10.469-.09-.341-.199-.69-.314-1.03.598 3.392-1.22 7.854-7.069 6.992" fill="#98540E"/><path d="M104.84 159.052s-.708-6.772 2.3-10.76c.072-.077.186-.132.172.067-.09 1.446.29 7.848 3.25 9.964 0 0-2.928 2.486-5.722.729m19.835-.009s.882-6.532-2.31-10.764c-.058-.072-.394-.12-.386.08.085 1.446.23 7.513-3.25 9.964 0 0 3.156 2.475 5.946.72" fill="#FFF"/><path d="M112.369 157.152c.352.014 1.511.222 1.962.227-2.1-9.922-.069-25.893.52-25.763-1.499-.902-3.403-1.74-5.962-1.74-4.125 0-6.571 4.079-5.8 8.632.264 1.548.944 5.758 2.278 9.367.557-.73 1.261-1.432 1.63-1.72.791-.613 1.79.071 1.71.764-.084.693.601 8.107 3.662 10.233" fill="#98540E"/><path d="M120.627 129.875c-2.062-.13-4.724.86-5.756 1.675-.042.045-.068.066-.098.066-.586-.13-2.616 15.841-.517 25.763l-.03-.003c.009 0 .017.003.027.003.788-.01 1.546-.095 2.132-.15 3.084-1.28 3.739-6.841 3.838-7.917.131-1.353.258-2.286.789-2.897.643-.741 1.435-.394 1.85.02.644.645 1.093 1.19 1.093 1.19s1.611-3.897 2.256-10.015c.474-4.504-1.295-7.467-5.584-7.735" fill="#CC7B11"/><path d="M129.45 80.76c-.028.582-.136 1.558-.294 2.116 3.653.01 7.084.673 9.03 1.382 1.754-3 .745-7.487.745-7.487-1.94 1.03-6.315 2.188-9.488 2.947.029.345.029.69.006 1.042" fill="#FFF"/><path d="M49.817 74.363a61.818 61.818 0 0 1 4.705-5.766c3.359-3.628 6.8-6.63 10.259-9.109-2.56-2.386-7.774-3.062-11.303-1.648-8.302 3.326-6.652 13.262-4.558 15.738.28.328.58.588.897.785m-3.62 5.716c-1.41-1.398-1.908-2.115-2.642-3.468-5.324 6.104-13.954 11.43-17.696 15.121-11.858 11.683-17.485 24.656-13.702 41.408 2.019.602 10.224 2.197 13.14 4.21-3.177-12.542-.685-21.906 1.676-26.89 2.55-5.377 9.409-15.336 14.177-17.525.686-3.093 3.566-11.45 5.047-12.856m147.099-14.506c-2.231-8.875-8.58-11.627-8.58-11.627l2.521-1.52c-5.56-3.52-12.563-4.229-17.008-2.36-3.403-2.949-8.819-8.034-14.563-12.029-46.07-32.141-85.41-17.842-85.41-17.842 23.846-3.219 72.868 27.207 89.732 41.99 3.825 3.357 11.315 5.455 15.5 4.643.5.503 1.003 1.016 1.492 1.557 3.713 4.019 6.573 8.135 8.755 12.276 7.72-7.455 4.797-15.647 4.797-15.647l2.764.559" fill="#2D71C1"/><path d="M178.51 58.033c-1.675-.597-3.195-.451-3.19-.451.316.386.762.99 1.208 1.589.006.005.011.023.022.03.093.133.183.265.277.392.008.013.008.018.013.028.287.414.535.812.741 1.193a51.153 51.153 0 0 0 .2.373c4.435 8.734-12.933 3.732-18.89-2.06C143.64 44.31 94.367 17.14 70.424 20.17a6.432 6.432 0 0 0-.146.042c-24.57 9.223-1.454 31.2-1.454 31.2l.117-15.351s16.752-9.797 43.168-1.548c28.35 9.538 44.844 26.29 44.844 26.29.131 1.45.451 4.7.692 7.56C109.703 37.105 68.7 56.676 68.7 56.676l.577 2.3c43.282-11.767 72.203 4.215 85.96 11.277 6.444 3.309 10.33-.141 10.823-.686 1.668.815 5.464 2.53 7.742 1.582 1.956-.888 3.449-2.498 3.579-2.356 1.767 1.91 3.105 3.742 4.446 5.59.153-.137.282-.31.455-.468 3.366-3.06 4.655-12.882-3.774-15.882" fill="#123A71"/><path d="M90.031 55.306c-6.17 2.636-10.745 6.635-10.745 6.635 4.565-2.703 33.133-7.031 34.391 9.145.097 1.251.206 2.33.31 3.242a76.283 76.283 0 0 1 3.226 0c.02-1.903.922-12.672 6.54-16.36-9.583-2.728-27.45-3.866-33.722-2.662" fill="#98540E"/><path fill="#123A71" d="M66.056 58.92h2.798V35.637h-2.798V58.92m71.218-31.55a2.71 2.71 0 0 0 .543-.988c.804-2.68-2.587-6.086-7.576-7.616-5.004-1.523-9.702-.584-10.513 2.09a.212.212 0 0 0-.014.046 121.973 121.973 0 0 1 17.56 6.468"/><path d="M135.351 24.07c-.418.785-2.14.666-3.85-.24-1.711-.925-2.767-2.3-2.35-3.077.419-.784 2.138-.673 3.847.251 1.717.91 2.77 2.289 2.353 3.066" fill="#2D71C1"/></g></svg>