<svg width="200" height="200" xmlns="http://www.w3.org/2000/svg" xmlns:xlink="http://www.w3.org/1999/xlink"><defs><path id="a" d="M0 .025h199.185v191.62H0z"/></defs><g fill="none" fill-rule="evenodd"><g transform="translate(0 4)"><mask id="b" fill="#fff"><use xlink:href="#a"/></mask><path d="M154.021 54.159a1.925 1.925 0 0 1-1.924 1.923h-12.833V34.127h12.833c1.062 0 1.924.862 1.924 1.923v18.109zm23.165 32.086 14.057-14.056V20.71L170.559.025h-68.675v56.057H88.241V.025h-37.25c-.004 27.91.072 90.867.042 100.343a1.444 1.444 0 0 1-1.45 1.441H39.26a1.883 1.883 0 0 1-1.882-1.884V.025H0v114.949l20.684 20.685h30.337v35.264l21.328 20.793h45.446l21.469-21.467v-37.935H102.04v22.171a3.379 3.379 0 0 1-3.38 3.38h-6.883a3.378 3.378 0 0 1-3.378-3.377V93.56a3.378 3.378 0 0 1 3.378-3.378h10.106v22.95h37.38V89.738h1.453l19.776 45.922h38.692l-22-49.414z" fill="#F2AF36" mask="url(#b)"/></g><path d="M90.323 167.943a8.002 8.002 0 0 1-8.002-8.002V96.105a8.001 8.001 0 0 1 8-8h10.47V66.16H82.164V10.104H57.1v94.03a7.75 7.75 0 0 1-7.751 7.752H39.29a7.991 7.991 0 0 1-7.992-7.991v-93.79H6.08v106.352L23.2 133.58h33.9v38.918l17.892 17.14h40.287l17.907-17.907v-29.338H108.12v17.548a8.002 8.002 0 0 1-8.003 8.002h-9.795" fill="#1E437B"/><path d="M160.1 58.159c0 4.411-3.59 8.002-8.003 8.002h-18.914V32.047h18.914c4.413 0 8.004 3.59 8.004 8.003v18.109zm9.833 30.745 15.23-15.233V27.227L168.04 10.103h-60.077v100.954h25.22V87.659h11.53l19.835 45.922h25.325l-19.94-44.677z" fill="#1E437B"/><path d="M153.626 156.054v-6.047h1.496l1.753 3.711 1.734-3.71h1.495v6.046h-1.253v-3.865l-1.462 3.128h-1.047l-1.462-3.128v3.865h-1.254zm-5.686-4.93v-1.117h4.913v1.116h-1.821v4.931h-1.254v-4.93h-1.838z" fill="#F2AF36"/></g></svg>