<?xml version="1.0" encoding="UTF-8"?>
<svg width="200px" height="200px" viewBox="0 0 200 200" version="1.1" xmlns="http://www.w3.org/2000/svg" xmlns:xlink="http://www.w3.org/1999/xlink">
    <!-- Generator: Sketch 51.3 (57544) - http://www.bohemiancoding.com/sketch -->
    <title>uc-riverside</title>
    <desc>Created with Sketch.</desc>
    <defs></defs>
    <g id="uc-riverside" stroke="none" stroke-width="1" fill="none" fill-rule="evenodd">
        <g id="uc-riverside_BGL" transform="translate(0.000000, 11.000000)">
            <g id="uc-riverside">
                <g id="g10" transform="translate(99.915609, 89.383967) scale(-1, 1) rotate(-180.000000) translate(-99.915609, -89.383967) translate(0.000000, 0.270045)">
                    <g id="g12">
                        <path d="M37.583594,43.3425812 C37.583594,43.3425812 45.9301254,50.5324544 45.9598976,50.6025979 C46.3783955,49.3259735 46.9527752,46.5878132 47.5617203,45.1532141 C50.7418046,37.7560834 56.8779058,25.9254002 68.5495342,16.530565 L74.7071711,11.5754259 L74.9967914,18.6429025 C78.6342596,16.079662 97.4217697,1.97547337 115.116959,0 C134.789532,4.08095855 151.021093,18.0456367 151.154764,18.2568772 C151.586832,16.7102106 151.889954,13.0870545 151.932486,11.4282529 L156.953245,16.0654173 C168.623118,25.463088 175.771135,34.6212987 179.507844,44.1600664 C180.076958,45.6115432 180.500249,45.5432225 180.916114,46.8193744 C180.972822,46.6969777 181.006578,46.5904461 181.030882,46.5147668 C181.068687,46.4121507 181.089616,46.3831887 181.089616,46.3831887 L184.016873,38.4878978 L187.96894,45.9179735 C188.111388,46.23129 194.175185,61.3488592 194.201514,78.4783103 C194.223118,86.2541751 192.247759,96.1161157 188.078308,104.858056 C191.191219,108.779069 193.030881,113.138225 192.982274,116.332149 L192.982274,116.369955 L195.653666,115.844723 L194.809784,121.213162 C194.456029,123.303288 193.575691,125.086917 192.567759,126.694343 C191.530122,128.324047 190.313582,129.823457 189.157126,131.091305 L193.804552,133.077465 C193.804552,133.077465 182.722021,140.274764 173.462274,140.194427 C171.364046,140.172823 168.831051,139.759659 166.974511,139.422106 C163.750882,142.071895 159.831895,145.039659 155.107507,148.359828 C149.357633,152.399659 143.181093,154.961009 137.68371,157.779574 C137.68911,157.820756 137.694511,157.863962 137.694511,157.909869 C137.764722,159.157464 137.425819,160.317971 136.897887,161.319152 C136.107338,162.826663 134.891473,164.081009 133.426495,165.167253 C131.950714,166.246072 130.200166,167.152063 128.237634,167.801515 C126.526242,168.367928 124.835777,168.688603 123.231052,168.772992 C121.313752,168.864131 119.524723,168.656873 117.901769,167.99392 C117.097043,167.666494 116.331474,167.211473 115.661094,166.584975 C115.656368,166.584975 115.656368,166.583625 115.656368,166.583625 C106.237297,169.321177 97.7039638,170.448603 90.5086897,170.915101 C74.4519813,171.938561 65.4609941,170.962359 65.4609941,170.962359 C61.0627495,169.30835 58.0521842,168.706156 53.6033742,165.163878 C50.9631042,163.057549 49.2953912,160.15122 49.1611127,157.300924 C49.0100241,154.422275 50.1708679,150.688266 51.7067329,147.70565 C53.0788172,145.044385 54.8528594,143.482866 56.3541589,141.408267 C46.4314588,144.242359 31.0923199,132.798646 31.0923199,132.798646 C31.0923199,132.798646 34.5606742,131.208773 34.5327249,131.183794 C28.0403706,125.614849 27.4416871,115.492318 27.4416871,115.492318 L30.1081511,115.979069 C30.094379,114.752402 30.4417208,113.000504 30.7961511,111.554428 C28.9551385,109.485229 29.5648938,108.199829 27.8902947,106.605229 C25.773974,104.605567 25.2826998,103.047424 24.0453665,101.753246 C13.71443,90.8057361 1.00474597,80.90869 0.0849154409,63.4032052 C-0.60073855,50.3425473 3.09466996,44.9026824 3.09466996,44.9026824 C8.24290275,44.3328259 26.0305816,37.8863113 29.5964887,35.2228177 C29.5964887,35.2228177 26.4868179,47.8900241 26.1534508,49.2178216 C32.0342946,46.973906 35.7288767,46.225214 37.583594,43.3425812" id="path14" fill="#123A71" fill-rule="nonzero"></path>
                        <path d="M157.479827,129.783625 L158.021262,129.114596 L158.021262,129.109195 C158.017886,129.109195 158.017886,129.109195 158.017886,129.109195 L157.479827,129.783625" id="path16" fill="#FAB20B" fill-rule="nonzero"></path>
                        <polyline id="path18" fill="#FAB20B" fill-rule="nonzero" points="158.021262 129.109195 158.021262 129.119862 158.021262 129.109195"></polyline>
                        <path d="M193.132147,135.326241 L196.903286,137.113246 C196.903286,137.113246 188.460417,146.220418 177.059236,145.961178 C174.985987,145.915271 172.892485,145.78565 171.045397,145.446072 C162.154258,153.692486 153.520334,159.536199 142.780081,164.820249 C142.263625,175.987844 121.647929,179.338392 118.124554,174.956283 C108.777044,177.676958 100.322698,177.667506 93.1679302,177.91797 C67.652319,178.823287 59.1450449,170.747675 56.0553572,167.096705 C53.9056189,164.559658 52.8478637,161.641852 52.7135852,158.808435 C52.5653995,155.955439 53.8797624,152.832401 54.8826315,150.351389 C56.0042518,147.598984 57.5405893,145.119321 59.0316272,143.054849 C47.1424123,146.32506 34.7056869,136.942444 34.7056869,136.942444 L39.4308851,134.582275 C39.4052986,134.553246 39.1170961,134.304807 39.0854336,134.278478 C31.1822439,127.256031 32.0543452,119.252655 32.0543452,119.252655 L34.7041342,119.783288 L34.7041342,119.735356 C34.6962354,118.520841 34.8280835,117.165904 35.1785308,115.73333 C33.3565561,113.681685 32.0134338,112.748689 30.3451807,111.167592 C28.2494508,109.181432 26.480742,108.483373 24.481012,106.873921 C10.9454174,95.9554406 3.34783452,82.3864958 3.60548852,67.5240489 C3.68512396,63.0279815 4.03559821,55.1553066 6.85657367,49.5952055 C12.8845229,48.0237625 26.9730964,44.330193 33.1162861,40.2938049 C33.1162861,40.2938049 30.8101258,50.2581591 30.484725,51.5706991 C40.9440665,47.841214 41.1060243,45.0187331 41.1060243,45.0187331 C41.1060243,45.0187331 49.0440494,52.0843869 49.0728089,52.1479143 C49.489484,50.8929608 49.9902097,49.5453827 50.6007076,48.1120663 C53.758716,40.7621256 60.2228508,30.139476 71.8116438,20.8174847 L77.9166225,15.896641 L78.0907997,23.5390374 C81.7046393,20.9931472 97.5932465,6.53085553 115.032571,5.32727075 C133.845735,7.6447593 153.343456,24.0284889 153.472401,24.2275775 C154.131979,22.0044551 154.603878,19.7299573 154.730123,17.2360502 C166.320333,26.5585141 177.899067,38.4411805 181.057211,45.7937541 C181.828181,47.6186992 182.060417,48.2051634 182.772654,50.3425473 C183.745481,48.6906317 186.296704,41.4082015 186.296704,41.4082015 L186.877295,42.2703112 C192.22413,51.7415683 197.651303,64.9485891 197.677632,81.958479 C197.69586,89.6742594 196.658223,99.478141 192.521852,108.161348 C195.620586,112.056706 196.89586,116.439491 196.857379,119.60371 L199.499742,119.12236 C199.321514,124.624469 197.807928,129.916621 193.132147,135.326241" id="path20" fill="#FAB20B" fill-rule="nonzero"></path>
                        <path d="M115.565229,137.390714 L114.313584,16.2289279 C117.275271,16.1484553 120.110039,16.4685903 120.110039,16.4685903 C136.315271,19.1561177 154.220418,34.0875603 154.220418,34.0875603 C156.973498,30.139476 157.055186,27.3045732 157.055186,27.3045732 C180.50835,46.1949018 179.888603,64.4517115 179.888603,64.4517115 C182.789531,62.5836271 185.487253,55.324083 185.487253,55.324083 C185.487253,55.324083 204.583961,91.227677 176.980249,121.113246 C149.378562,151.00084 115.746833,138.545144 115.746833,138.545144 L115.565229,137.390714" id="path22" fill="#CC7B11" fill-rule="nonzero"></path>
                        <path d="M185.305649,109.631052 C185.14835,109.983457 182.714595,115.034596 176.590713,121.520335 C176.590713,121.520335 168.130966,122.633583 164.860755,121.735018 C164.860755,121.735018 166.808435,115.5362 155.923709,120.319322 C131.82717,134.70717 107.688099,134.622112 107.688099,134.622112 C107.688099,134.622112 113.898394,129.165904 114.858394,125.599997 C123.878478,127.928436 137.626326,125.599997 147.549701,120.962022 C168.133667,111.338394 166.235945,102.404723 179.250628,107.817719 C181.594595,104.59274 188.227506,88.3145969 181.696536,68.644724 C181.696536,68.644724 177.160502,73.3083526 176.026325,74.0543441 C176.026325,74.0543441 175.124384,48.3475431 157.728941,37.3934843 C156.79527,40.141096 154.915102,41.9024462 153.17738,43.6429356 C153.17738,43.6429356 142.263625,25.8612652 126.502613,26.7233749 L115.484892,14.6017887 C115.484892,14.6017887 136.40641,15.9562528 154.144806,33.909265 C154.144806,33.909265 156.436789,31.454649 157.110545,27.3747166 C157.110545,27.3747166 177.745818,42.9575685 179.777886,63.4166398 C179.777886,63.4166398 182.854341,60.4401673 185.135523,53.9530788 C185.135523,53.9530788 200.629868,83.0062427 185.305649,109.631052" id="path24" fill="#98540E" fill-rule="nonzero"></path>
                        <path d="M146.64506,46.7362689 C141.52776,46.0348343 138.996115,48.0471887 137.753921,49.3130114 C134.905651,45.0801676 133.431895,38.3783957 133.501431,37.1147332 C133.583119,35.8481004 133.801853,34.1914591 134.661938,32.043746 C135.867001,29.0269022 138.7443,15.2937718 125.856537,15.8096199 C125.856537,15.8096199 120.422613,12.0951896 115.205398,11.2565736 C93.6384787,13.8314933 76.5859896,33.7526405 76.5859896,33.7526405 C74.7314749,29.7850457 74.9812639,26.9211808 74.9812639,26.9211808 C51.5345135,45.8032731 51.617619,64.2336524 51.617619,64.2336524 C48.7154756,62.3710364 46.0213322,55.1081168 46.0213322,55.1081168 C46.0213322,55.1081168 36.6817206,70.1022767 40.2913745,91.5821074 C33.0310878,84.3645549 30.5398136,66.711222 35.4364211,53.9530788 C32.3436279,55.1123699 30.0250457,56.1431885 26.8037799,56.6175851 C27.3024803,53.8050957 28.0332145,50.7821759 29.0356111,47.4512056 C25.130261,49.9617878 12.0943794,53.1186485 9.44702086,53.9530788 C4.81012646,73.9274243 11.0796284,90.3790695 27.5748854,103.779913 C30.0211301,105.770124 37.1875096,109.834259 42.0500918,115.871052 C40.4807416,120.59814 40.8488766,124.571136 40.8488766,124.571136 L38.0802016,124.013499 C39.6920159,131.86295 47.300387,135.897381 47.300387,135.897381 L45.3589187,137.201009 C55.4074585,142.74565 66.6055004,137.603372 72.1721501,134.539068 C94.6632888,146.142106 115.746833,138.333836 115.746833,138.333836 L115.758984,115.214174 C126.473583,115.214174 128.207254,112.563035 128.249786,112.511052 C133.97333,113.61755 136.212655,114.377044 140.004722,115.906157 C147.41873,118.899575 157.998983,114.154259 159.817718,107.148014 C159.817718,107.148014 152.704131,110.09485 144.456368,104.08236 C160.177549,93.2577192 149.714764,72.7345129 147.549701,63.1028507 C146.390545,57.9482855 145.615524,50.0867498 146.64506,46.7362689" id="path26" fill="#123A71" fill-rule="nonzero"></path>
                        <path d="M68.7014329,132.8216 C68.7014329,132.8216 109.697212,150.001009 157.81603,118.944132 L157.155102,127.516621 C157.155102,127.516621 105.009955,173.574342 68.8445552,152.85603 L68.7014329,132.8216" id="path28" fill="#FAB20B" fill-rule="nonzero"></path>
                        <path d="M68.8067493,141.006579 C93.467677,150.085397 131.289111,145.509532 157.664131,125.925398 C157.664131,125.925398 157.379237,128.200503 157.215861,129.552739 C149.978055,135.459237 143.38295,140.205904 143.38295,140.205904 C103.262782,161.682359 68.7939223,147.215524 68.7939223,147.215524 L68.8067493,141.006579" id="path30" fill="#2D71C1" fill-rule="nonzero"></path>
                        <polyline id="path32" fill="#2D71C1" fill-rule="nonzero" points="91.2877614 135.711727 83.1959473 135.711727 83.1959473 158.464806 91.2877614 158.464806 91.2877614 135.711727"></polyline>
                        <polyline id="path34" fill="#2D71C1" fill-rule="nonzero" points="117.658731 134.460756 109.500757 135.586832 109.575018 157.205734 117.658731 157.205734 117.658731 134.460756"></polyline>
                        <polyline id="path36" fill="#2D71C1" fill-rule="nonzero" points="142.651136 126.847592 134.557971 129.767423 134.54717 146.881347 142.638984 146.881347 142.651136 126.847592"></polyline>
                        <polyline id="path38" fill="#123A71" fill-rule="nonzero" points="96.0708837 136.301769 94.1130778 136.301769 94.1130778 158.915102 96.0708837 158.915102 96.0708837 136.301769"></polyline>
                        <polyline id="path40" fill="#123A71" fill-rule="nonzero" points="122.198816 133.479153 120.244385 133.479153 120.244385 152.92084 122.198816 152.92084 122.198816 133.479153"></polyline>
                        <polyline id="path42" fill="#123A71" fill-rule="nonzero" points="146.948182 125.775524 144.88506 126.804385 144.903288 138.398646 146.861093 137.145651 146.948182 125.775524"></polyline>
                        <path d="M83.1959473,150.887422 L83.1959473,144.581262 C85.0551877,144.901937 88.6197446,145.237465 91.2810104,145.348182 L91.2810104,151.769785 C88.9107151,151.640165 85.2448924,151.261431 83.1959473,150.887422" id="path44" fill="#123A71" fill-rule="nonzero"></path>
                        <path d="M109.554765,151.224975 L109.532487,144.650798 C112.30717,144.224131 115.013668,143.953414 117.629702,143.341769 L117.672233,149.828857 C115.43966,150.429026 111.572655,151.010292 109.554765,151.224975" id="path46" fill="#123A71" fill-rule="nonzero"></path>
                        <path d="M142.651136,140.101262 C140.801347,141.500081 137.27122,143.528098 134.568098,144.964722 L134.576199,138.445904 C136.209954,137.822781 140.976199,135.779912 142.651136,134.988014 L142.651136,140.101262" id="path48" fill="#123A71" fill-rule="nonzero"></path>
                        <path d="M141.136199,61.1930449 C142.562697,73.1524032 159.755608,104.804723 129.250292,106.227845 C128.305144,102.86177 125.107845,100.434765 120.834427,99.0325714 C116.749364,96.9930777 116.750714,90.6146813 116.750714,90.6146813 L116.763541,79.9034579 C118.416875,79.9129094 142.074596,82.31696 139.364047,65.1637452 C137.218562,51.5680662 143.295861,49.6561 143.295861,49.6561 C143.295861,49.6561 140.05198,52.0870198 141.136199,61.1930449" id="path50" fill="#CC7B11" fill-rule="nonzero"></path>
                        <path d="M143.210123,61.5116272 C144.639321,73.4703779 159.875777,106.359491 129.155777,106.621432 C128.209955,103.253331 125.107845,100.434765 120.834427,99.0325714 C119.102782,98.1610102 118.051643,96.514428 117.42447,94.9043014 C121.916621,97.1773815 134.887423,100.209955 140.095861,95.0366221 C146.152908,89.0221075 144.069532,77.9220234 141.836283,68.0418548 C137.990208,51.0387835 143.295861,49.7444713 143.295861,49.7444713 C143.295861,49.7444713 142.128604,52.4105978 143.210123,61.5116272" id="path52" fill="#98540E" fill-rule="nonzero"></path>
                        <path d="M112.855356,90.6551876 C112.156622,97.0511368 107.698225,99.43966 107.698225,99.43966 L107.756284,99.43966 C104.27139,100.9762 101.790377,103.63544 100.583964,106.620082 C75.9000825,109.749196 86.5242172,73.1355256 87.9453143,61.1698213 C89.03831,52.0648763 86.3210105,49.761349 86.3210105,49.761349 C86.3210105,49.761349 91.6907994,48.6946148 90.1387319,66.065146 C88.6582256,82.6464114 112.75409,79.9689431 112.75409,79.9689431 L112.855356,90.6551876" id="path54" fill="#CC7B11" fill-rule="nonzero"></path>
                        <path d="M107.698225,99.43966 L107.756284,99.43966 C104.417888,100.916116 101.99966,103.426158 100.741938,106.260926 C100.374006,107.083879 100.107339,108.3389 99.9486895,109.203035 C99.7016009,110.488436 99.817719,111.57198 100.427339,112.479997 C94.5491959,113.592571 91.8589007,115.18717 87.8818543,116.322022 C79.4646394,118.730124 70.468859,114.154259 68.6501249,107.148014 C68.6501249,107.148014 73.8720657,112.6562 84.1039641,104.811474 C84.7534156,104.307845 86.5822763,103.449111 87.1966223,103.093331 C73.3988167,93.7080145 85.267846,70.8421923 86.3378881,61.8565385 C87.4281835,52.7542265 86.2420232,49.7141591 86.2420232,49.7141591 C86.2420232,49.7141591 90.7362003,50.9820747 88.4010104,68.2565384 C86.804386,80.0202512 83.4200823,86.7578037 89.07004,93.8767909 C93.5480145,99.5213477 105.236791,97.858563 111.723879,94.8651453 C110.305482,98.2190693 107.698225,99.43966 107.698225,99.43966" id="path56" fill="#98540E" fill-rule="nonzero"></path>
                        <path d="M99.8636262,109.779575 C96.6838794,110.546495 92.3078458,111.704301 90.376369,112.727086 C90.376369,112.727086 89.3691117,108.440166 91.2344281,105.410968 C93.6310525,106.226495 96.8351031,106.764554 100.748014,106.250124 C100.748014,106.250124 100.029702,107.990546 99.8636262,109.779575" id="path58" fill="#FFFFFF" fill-rule="nonzero"></path>
                        <path d="M124.675102,104.176875 C123.720503,103.41063 122.57755,102.899575 120.744638,103.050124 C118.404048,103.241854 116.056706,104.927592 116.514427,107.945314 C116.792571,109.794428 117.910546,107.995272 117.910546,107.995272 C117.910546,107.995272 119.672571,104.487424 123.690123,105.284048 C123.690123,105.284048 124.82295,105.819407 125.128773,105.174681 C125.128773,105.174681 125.383288,104.746664 124.675102,104.176875" id="path60" fill="#2D71C1" fill-rule="nonzero"></path>
                        <path d="M105.238141,104.339575 C106.136031,103.499069 107.370124,102.773331 109.187508,103.050124 C111.420757,103.388352 113.19966,105.460926 112.902613,108.061432 C112.668352,110.139407 111.531474,108.246411 111.531474,108.246411 C111.531474,108.246411 109.854512,104.681854 105.83966,105.433921 C105.83966,105.433921 105.109871,105.735018 104.835778,105.272571 C104.835778,105.272571 104.675103,104.865483 105.238141,104.339575" id="path62" fill="#2D71C1" fill-rule="nonzero"></path>
                        <path d="M114.826664,76.4610951 C107.073753,76.4199137 101.572318,75.5037956 98.0664954,73.7390699 C98.0138372,71.6030362 98.5890271,65.5029182 102.306833,59.7576356 C102.403373,59.612623 102.569449,59.5213487 102.548521,59.8520829 C102.409449,61.7747833 101.883542,68.2875932 104.999153,73.0221079 L107.2162,72.2086058 L109.887592,73.2030361 L112.398985,72.2086058 L115.016368,73.2030361 L117.525735,72.2086058 L120.033752,73.2030361 L122.281853,72.2086058 L124.709533,73.0025298 C127.804216,68.2774666 127.268858,61.8673402 127.136537,59.9528086 C127.107507,59.6199816 127.283035,59.7109858 127.380925,59.8576188 C131.006917,65.4717958 131.66987,71.3444708 131.633414,73.5824454 C128.273415,75.4828673 122.776031,76.4199137 114.826664,76.4610951" id="path64" fill="#FFFFFF" fill-rule="nonzero"></path>
                        <path d="M131.124385,58.3014331 C131.257381,53.6405725 130.066495,51.4950198 128.345651,46.2225811 C126.808436,41.5021087 126.047592,38.7658387 126.602528,34.882632 C126.988014,32.1518979 128.089111,27.278244 122.54717,27.5355942 C122.54717,27.5355942 119.551052,28.4124212 114.324385,28.4253833 C110.562698,28.4361849 107.15004,27.7265141 107.15004,27.7265141 C101.800504,26.8259234 101.238816,32.2310203 101.629027,34.9670202 C102.184639,38.8340919 101.902445,39.670615 100.187002,47.0738216 C99.0271705,52.0203194 98.4513056,52.7067666 98.838141,57.8612644 C96.4975503,61.2497537 94.5410947,65.2280828 94.9279301,69.4163696 C92.7810947,67.3533823 92.7810947,62.4377368 93.3799133,58.998142 C93.8821917,55.3741758 93.851812,54.0543446 94.9711369,49.9578047 C98.0138372,38.7470708 97.9699554,37.7808598 97.4514744,35.2660919 C97.0167064,33.1476785 92.0067488,18.5139573 107.386326,20.4037126 C107.386326,20.4037126 111.304639,20.8357126 114.172487,20.8357126 C116.482698,20.8357126 121.645229,20.1052484 121.645229,20.1052484 C135.337043,18.5572316 132.554933,28.3584128 130.590376,33.9019063 C129.862613,35.9398472 128.546157,37.174075 132.856706,47.9588849 C133.890292,50.5350873 134.96371,53.1761674 135.823794,57.0437792 C137.283372,62.627644 136.723035,67.3533823 135.308013,69.6742599 C134.950883,66.4741249 133.17063,61.4630871 131.124385,58.3014331" id="path66" fill="#CC7B11" fill-rule="nonzero"></path>
                        <path d="M132.039575,29.364455 C131.889968,29.9140583 131.720677,30.4601511 131.539575,30.9913241 C131.591543,30.7908853 131.636425,30.6025984 131.673433,30.3952735 C131.807291,30.0564381 131.93485,29.7101765 132.039575,29.364455" id="path68" fill="#CC7B11" fill-rule="nonzero"></path>
                        <path d="M124.585313,23.5321513 C124.585313,23.5321513 119.908183,24.3660416 114.602529,24.3660416 C109.294174,24.3660416 104.853331,23.7130796 104.853331,23.7130796 C97.8815165,22.9298222 96.2369596,29.2969444 96.8823604,32.5184802 C94.9758626,27.3365056 95.1021073,19.5632738 104.743964,19.4788856 C105.585145,19.4788856 106.510715,19.5463961 107.529449,19.6862105 C107.529449,19.6862105 111.428858,20.012894 114.299406,20.012894 C114.338563,20.012894 114.383795,20.012894 114.418225,20.012894 C114.474934,20.012894 114.530292,20.012894 114.573499,20.012894 C116.911389,20.012894 121.576368,19.2998476 121.576368,19.2998476 C122.35544,19.2183624 123.562529,19.0306156 124.234934,19.0245396 C132.220081,19.0622105 132.972824,25.2887757 131.968267,29.4934001 C131.878478,29.834936 131.769111,30.1845731 131.654343,30.5247587 C132.251811,27.1318812 130.434427,22.6701091 124.585313,23.5321513" id="path70" fill="#98540E" fill-rule="nonzero"></path>
                        <path d="M104.839829,30.4459064 C104.839829,30.4459064 104.131643,37.2178219 107.139238,41.20648 C107.212149,41.2826994 107.325567,41.338058 107.312065,41.1389694 C107.222276,39.6927585 107.60236,33.2908684 110.561347,31.1750878 C110.561347,31.1750878 107.63409,28.6893495 104.839829,30.4459064" id="path72" fill="#FFFFFF" fill-rule="nonzero"></path>
                        <path d="M124.675102,30.4546153 C124.675102,30.4546153 125.557465,36.9870708 122.364891,41.2186319 C122.306832,41.2908682 121.97063,41.338058 121.978731,41.1389694 C122.06447,39.6927585 122.209617,33.6263283 118.729449,31.1750878 C118.729449,31.1750878 121.884891,28.7001512 124.675102,30.4546153" id="path74" fill="#FFFFFF" fill-rule="nonzero"></path>
                        <path d="M112.368605,32.3457207 C112.72101,32.331476 113.880166,32.1242186 114.331136,32.1189528 C112.230208,42.0408428 114.262276,58.0118804 114.850292,57.8821251 C113.352233,58.7839985 111.448436,59.6226145 108.889111,59.6226145 C104.763542,59.6226145 102.317635,55.5429522 103.088605,50.9899734 C103.352571,49.4419566 104.033078,45.2320664 105.367086,41.622885 C105.924048,42.3533492 106.628183,43.0548512 106.996791,43.3425812 C107.788014,43.9554419 108.786495,43.2716276 108.706158,42.5788344 C108.62312,41.8855686 109.308352,34.4723029 112.368605,32.3457207" id="path76" fill="#98540E" fill-rule="nonzero"></path>
                        <path d="M120.62717,59.6226145 C118.564723,59.75372 115.902782,58.7632053 114.870546,57.9482855 C114.829364,57.9031884 114.803035,57.8821251 114.772655,57.8821251 C114.187339,58.0118804 112.156622,42.0408428 114.255525,32.1189528 C114.246748,32.1189528 114.234596,32.1215857 114.225145,32.1215857 C114.234596,32.1215857 114.242698,32.1189528 114.252824,32.1189528 C115.041347,32.1297545 115.799491,32.2141427 116.385482,32.2692313 C119.469364,33.548016 120.123541,39.11021 120.223457,40.185653 C120.354427,41.5384969 120.480672,42.4723027 121.01198,43.0825306 C121.655356,43.8238639 122.446579,43.4767922 122.861769,43.06302 C123.50582,42.4182268 123.95544,41.8720665 123.95544,41.8720665 C123.95544,41.8720665 125.566242,45.7700579 126.210967,51.8879312 C126.684891,56.3921674 124.916115,59.3552053 120.62717,59.6226145" id="path78" fill="#CC7B11" fill-rule="nonzero"></path>
                        <path d="M129.449448,108.737888 C129.421769,108.155947 129.313752,107.179744 129.155777,106.621432 C132.809448,106.611305 136.240334,105.949027 138.185313,105.239491 C139.939912,108.23966 138.931305,112.727086 138.931305,112.727086 C136.990376,111.69755 132.615693,110.538394 129.442697,109.779575 C129.471727,109.435272 129.471727,109.089618 129.449448,108.737888" id="path80" fill="#FFFFFF" fill-rule="nonzero"></path>
                        <path d="M49.8167076,115.134512 C51.2083025,117.07274 52.7737371,118.997465 54.5223953,120.900588 C57.8807749,124.528604 61.3222601,127.530123 64.7806229,130.009786 C62.2212305,132.396284 57.0068509,133.072064 53.477602,131.657718 C45.1761676,128.332149 46.8256528,118.395946 48.9201,115.920335 C49.2001338,115.591558 49.4997456,115.332318 49.8167076,115.134512" id="path82" fill="#2D71C1" fill-rule="nonzero"></path>
                        <path d="M46.1969946,109.419069 C44.787712,110.817212 44.2892816,111.533499 43.5545643,112.886411 C38.2307501,106.782782 29.6007419,101.45755 25.8591723,97.7653984 C14.0013499,86.0826983 8.37394072,73.1098716 12.1568942,56.357872 C14.1756621,55.7555429 22.3808264,54.1611463 25.2977546,52.1479143 C22.1202357,64.6898887 24.6118475,74.0543441 26.9730964,79.0372976 C29.5226997,84.4151878 36.3815687,94.3736685 41.1503112,96.5630356 C41.8359483,99.6563688 44.7157457,108.012149 46.1969946,109.419069" id="path84" fill="#2D71C1" fill-rule="nonzero"></path>
                        <path d="M193.295523,123.92506 C191.064974,132.799997 184.716282,135.551727 184.716282,135.551727 L187.237126,137.072064 C181.676957,140.592064 174.674088,141.300925 170.229194,139.432233 C166.825987,142.380418 161.410291,147.465988 155.666494,151.460587 C109.595947,183.602358 70.2568759,169.302949 70.2568759,169.302949 C94.1022761,172.521852 143.124385,142.096199 159.987844,127.312064 C163.812992,123.95544 171.303287,121.857887 175.488941,122.670039 C175.988519,122.16641 176.490797,121.654005 176.980249,121.113246 C180.693329,117.094343 183.553076,112.97755 185.735016,108.837128 C193.454172,116.291643 190.532316,124.484048 190.532316,124.484048 L193.295523,123.92506" id="path86" fill="#2D71C1" fill-rule="nonzero"></path>
                        <path d="M178.509363,131.464638 C176.835101,132.062106 175.314764,131.916284 175.320164,131.916284 C175.636114,131.529448 176.081683,130.926579 176.527928,130.327085 C176.534004,130.32236 176.539405,130.303457 176.550207,130.296706 C176.643371,130.16371 176.73316,130.031389 176.827,129.905144 C176.835101,129.891642 176.835101,129.886917 176.839827,129.87679 C177.127422,129.46295 177.375185,129.064638 177.581093,128.683879 C177.647253,128.559659 177.712063,128.440166 177.776198,128.322022 C177.776198,128.315946 177.780249,128.310545 177.780249,128.310545 C182.215692,119.576706 164.847928,124.578562 158.890798,130.371642 C143.640165,145.187507 94.3669175,172.357126 70.4236269,169.327253 C70.3210109,169.298224 70.2778042,169.284722 70.2778042,169.284722 C45.7088934,160.061431 68.8243021,138.085397 68.8243021,138.085397 L68.9410953,153.435946 C68.9410953,153.435946 85.6931624,163.232401 112.109364,154.983962 C140.459743,145.446072 156.953245,128.694005 156.953245,128.694005 C157.084215,127.243879 157.404215,123.993921 157.644553,121.133499 C109.702613,152.392908 68.7014329,132.8216 68.7014329,132.8216 L69.277973,130.521516 C112.560335,142.289279 141.481178,126.306832 155.237802,119.245229 C161.681684,115.935862 165.567591,119.386326 166.061093,119.931136 C167.728603,119.115609 171.524721,117.400841 173.803202,118.349364 C175.758983,119.236453 177.251641,120.846579 177.381936,120.704807 C179.148688,118.794934 180.487422,116.963373 181.828181,115.115609 C181.98143,115.25198 182.110375,115.424807 182.283202,115.582782 C185.649278,118.64236 186.938054,128.465144 178.509363,131.464638" id="path88" fill="#123A71" fill-rule="nonzero"></path>
                        <path d="M90.0313902,134.192064 C83.8616013,131.555777 79.2857364,127.556453 79.2857364,127.556453 C83.8514747,130.26025 112.419238,134.588351 113.676959,118.411474 C113.774174,117.160503 113.882866,116.08236 113.986833,115.169617 C115.223626,115.197297 116.299744,115.18717 117.213162,115.169617 C117.233415,117.07274 118.134681,127.842022 123.752233,131.529448 C114.169786,134.258224 96.3037951,135.395777 90.0313902,134.192064" id="path90" fill="#98540E" fill-rule="nonzero"></path>
                        <polyline id="path92" fill="#123A71" fill-rule="nonzero" points="66.0558971 130.577549 68.8540067 130.577549 68.8540067 153.860587 66.0558971 153.860587 66.0558971 130.577549"></polyline>
                        <g id="path94"></g>
                        <path d="M137.273921,162.127928 C137.525735,162.4243 137.705313,162.74565 137.817381,163.116283 C138.621431,165.795101 135.230376,169.201684 130.240672,170.731473 C125.23679,172.25451 120.538731,171.316114 119.727929,168.642021 C119.721178,168.625143 119.717128,168.611641 119.714427,168.595439 C125.281347,167.021768 131.167592,164.920165 137.273921,162.127928" id="path96" fill="#123A71" fill-rule="nonzero"></path>
                        <path d="M135.35122,165.427844 C134.93333,164.642696 133.211136,164.761515 131.501094,165.668182 C129.789701,166.592401 128.733836,167.967591 129.151727,168.744637 C129.569617,169.52911 131.289111,169.417717 132.997803,168.493498 C134.714596,167.583456 135.767085,166.20489 135.35122,165.427844" id="path98" fill="#2D71C1" fill-rule="nonzero"></path>
                    </g>
                </g>
            </g>
        </g>
    </g>
</svg>