<svg width="200" height="200" xmlns="http://www.w3.org/2000/svg"><g fill="none"><path d="M95.268 33.879c1.241-.032 2.467.031 3.693-.048a46.827 46.827 0 0 1 3.343.032c2.818-.016 5.62.08 8.438.286 2.452.096 4.888.335 7.324.573 6.368.7 12.927 1.768 19.025 3.742 2.642.891 5.38 2.006 7.625 3.693.987.78 1.959 1.736 2.58 2.834.509.908.78 1.926.827 2.961.064 2.26-.047 4.538.048 6.798.27.048.541.096.812.16 6.83 1.114 13.644 2.515 20.315 4.378 6.336 1.767 12.736 3.98 18.53 7.1 2.962 1.624 5.955 3.566 8.311 6.018 1.72 1.72 3.137 3.869 3.805 6.209.24.764.303 1.528.446 2.356v1.465c-.16.732-.207 1.449-.43 2.165-.7 2.515-2.245 4.776-4.107 6.575-1.465 1.513-3.216 2.802-4.967 3.948-4.984 3.2-10.747 5.493-16.367 7.34-7.96 2.563-16.254 4.394-24.501 5.779-.605.095-1.194.207-1.8.27.112 3.98-.318 7.929-1.623 11.718-.191.62-.478 1.114-.478 1.751-.222.016-.43-.016-.652-.016-.605-.032-1.115.191-1.704-.048-.063-.891.462-1.75.637-2.626.462-1.37.653-2.755.923-4.156.16-1.926.494-3.757.319-5.715-.032-.239-.207-.462-.35-.653-.605.096-1.322.112-1.895.35-.127.271.032.67.032.972.064.955.255 1.878.207 2.817-.032.972.064 1.91-.112 2.882-.175.971-.175 1.942-.43 2.913-.222 1.083-.525 2.118-.795 3.185-.765.111-1.497.047-2.261.063h-22.289c-1.592.016-3.263 0-4.808.35-1.433.223-2.85.797-4.139 1.433a2.295 2.295 0 0 1-.637.207c-.095-.652.191-1.241.16-1.91a20.813 20.813 0 0 0-1.736-.064H78.09c-1.592 0-3.264-.016-4.84.303-1.194.238-2.452.51-3.55 1.05-.335.16-.637.335-1.035.271.016-.525.143-1.05.143-1.592a1.71 1.71 0 0 0-.637-.08c-3.057.048-6.13.032-9.186.032-.239-.016-.716 0-.812-.286-.764-2.34-1.114-4.745-1.305-7.196.016-.844-.032-1.704.016-2.548.111-.891.175-1.783.27-2.69.048-.287-.19-.239-.398-.319a13.523 13.523 0 0 0-1.608-.254.45.45 0 0 0-.541.43 17.406 17.406 0 0 0 .111 3.152c.048 2.324.478 4.617 1.115 6.861.207.924.637 1.768.812 2.707-.637.318-1.513.111-2.213.064-1.529-3.869-2.26-8.024-2.245-12.164.016-.398.064-.86-.048-1.241-.62-.048-1.226-.16-1.83-.271-8.693-1.465-17.306-3.391-25.68-6.193-4.904-1.672-9.855-3.694-14.265-6.4-1.608-1.003-3.184-2.102-4.617-3.36-1.687-1.512-3.184-3.12-4.235-5.157C.573 85.333.048 83.359.127 81.369c.032-3.025 1.433-5.779 3.36-8.04 2.69-3.12 6.256-5.413 9.87-7.323 5-2.595 10.428-4.553 15.825-6.145 5.97-1.752 12.068-3.137 18.181-4.235 1.64-.319 3.28-.541 4.92-.844.095-2.213 0-4.442.047-6.67.064-1.163.319-2.293.956-3.296.987-1.624 2.642-2.914 4.282-3.837 3.057-1.735 6.48-2.786 9.855-3.662 4.171-1.066 8.406-1.767 12.657-2.292 3.295-.398 6.59-.7 9.902-.86 1.8-.19 3.55-.223 5.286-.286z" fill="#231F20"/><path d="M98.659 36.76c.541-.08 1.003.08 1.544.08.573 0 1.146-.016 1.72.016 2.037.111 4.123-.112 6.145.175.78.064 1.544-.048 2.324.095.796.144 1.592 0 2.388.16.748.127 1.48.031 2.229.159.828.143 1.64.032 2.468.239.891.238 1.815.08 2.706.318 1.592.287 3.232.382 4.824.732 1.019.16 2.038.35 3.057.494 1.305.35 2.658.557 3.948.955.891.223 1.783.398 2.659.7 1.385.51 2.786.828 4.123 1.45 1.385.636 2.913 1.305 4.076 2.292.51.398 1.066.764 1.432 1.305.367.605.765 1.099.749 1.847v18.468c-.016.653-.016 1.305.063 1.974.048.398-.095.732-.175 1.13-.111.478-.032 1.035-.047 1.529.015.7-.414 1.4-.796 1.958-.398.382-.844.78-1.274 1.13-.876.526-1.672 1.21-2.627 1.544-.987.112-2.022-.015-3.009.048-2.197.382-4.123 1.465-5.779 2.93-2.07.557-4.41.939-6.527 1.305-.462.096-.892.223-1.37.239-.97.048-1.783-.494-2.786-.605-1.066-.096-2.18-.112-3.231.127-1.322.223-2.595.86-3.758 1.48-.955.399-2.197.144-3.216.32-1.162.222-2.308-.017-3.47.174-.605.096-1.162.096-1.751-.047-.972-.176-1.815-.7-2.802-.86-2.134-.573-4.299-.239-6.32.557-.51.175-.924.478-1.466.398-1.273-.143-2.563-.048-3.836-.143-1.306-.27-2.914.08-4.203-.446-1.051-.605-2.197-1.035-3.375-1.37-.94-.27-1.831-.222-2.802-.222-.908.016-1.863.334-2.723.573-.732.207-1.576-.032-2.308-.159-1.974-.366-4.012-.669-5.955-1.226-.748-.207-1.241-.748-1.862-1.194-1.306-.987-2.786-1.433-4.362-1.783-.987-.096-2.006.064-2.993-.064-.765-.286-1.465-.764-2.15-1.226-.78-.493-1.369-1.162-2.053-1.783-.765-.907-.494-1.846-.59-2.913-.08-.446-.254-.796-.27-1.258.016-6.798 0-13.596 0-20.394-.016-.748.334-1.337.7-1.958.398-.62 1.035-1.099 1.592-1.56 1.003-.812 2.102-1.258 3.232-1.847 2.165-1.083 4.538-1.672 6.846-2.356 1.242-.35 2.484-.621 3.741-.876.987-.207 1.974-.111 2.946-.446 1.815-.27 3.645-.589 5.476-.78.669-.127 1.306-.286 1.99-.254.924.047 1.767-.335 2.707-.319.812.016 1.592-.207 2.388-.175.748.016 1.464-.207 2.229-.16.86.033 1.687-.222 2.547-.158 1.13.08 2.213-.207 3.343-.16 1.274-.08 2.484.048 3.694-.159z" fill="#1D105F"/><path d="M96.923 40.677c2.006-.048 4.028 0 6.034-.032a9.62 9.62 0 0 1 1.513.063c1.703.207 3.47-.047 5.174.24.716.079 1.433-.033 2.149.079.557.08 1.114.095 1.672.127 1.257.128 2.515.255 3.773.335.764.08 1.512.27 2.276.27.956-.016 1.831.303 2.786.382 1.003.191 1.99.191 2.962.494 1.448.159 2.881.493 4.298.828 1.194.254 2.388.51 3.55.907 1.035.35 2.086.621 3.089 1.035 1.13.494 2.277.748 3.28 1.48.54.415 1.417.59 1.321 1.433-.812.462-1.576 1.051-2.42 1.401-2.42 1.083-4.983 1.895-7.562 2.484-.59.16-1.13.334-1.767.27.812-.43 1.735-.62 2.563-1.034.669-.335 1.4-.446 2.07-.78.891-.446 1.799-.828 2.69-1.29.239-.111.382-.27.526-.493-.685-.446-1.433-.7-2.198-.924-2.372-.844-4.792-1.592-7.275-2.101-1.831-.414-3.662-.844-5.54-1.035-2.102-.398-4.251-.669-6.385-.892-1.703-.111-3.359-.382-5.062-.398-1.02-.19-2.038-.063-3.057-.238-1.512-.144-3.073.015-4.585-.08-1.258-.207-2.563-.127-3.853-.111-2.006.334-4.107-.016-6.145.238-.732.08-1.465.032-2.197.16-.78.127-1.528 0-2.308.095-1.226.127-2.436.318-3.662.318-2.022.319-4.06.51-6.066.908-2.324.255-4.537.86-6.814 1.321-1.592.382-3.12.94-4.696 1.37-1.226.493-2.404.684-3.47 1.385.222.461.843.573 1.273.843.796.51 1.671.765 2.531 1.147 1.337.573 2.738.987 4.06 1.592-.796.095-1.433-.223-2.181-.367-2.086-.493-4.14-1.114-6.13-1.958-.939-.334-1.75-.875-2.627-1.353-.334-.191-.716-.414-.939-.748.112-.255.334-.446.541-.621 1.656-1.178 3.44-1.735 5.318-2.452 1.687-.557 3.39-.971 5.094-1.417 3.232-.764 6.448-1.242 9.712-1.72.668-.079 1.337-.079 2.006-.19 1.194-.223 2.42-.175 3.63-.398.843-.16 1.703-.064 2.547-.16 1.019-.175 2.038-.031 3.057-.238 1.83-.096 3.63.032 5.444-.175z" fill="#231F20"/><path d="M58.094 51.136c.589.414.97.94 1.512 1.433 1.496 1.337 3.152 2.484 4.999 3.28.764.366 1.576.589 2.34.923-1.735.08-3.502-.16-5.222-.446-1.034-.159-2.006-.525-3.024-.748.493.637 1.082 1.099 1.687 1.608 1.528 1.274 3.28 2.26 5.126 2.993.478.175.972.319 1.433.557-.939.016-1.926.064-2.85-.111-.955-.16-1.926-.239-2.865-.462-.812-.159-1.592-.462-2.404-.62.302.572.764.907 1.242 1.305 1.624 1.385 3.486 2.531 5.476 3.28.382.143.796.238 1.115.493-1.576.111-3.2-.143-4.76-.382-1.099-.175-2.15-.557-3.216-.844.159.255.318.478.525.685 1.958 1.878 4.33 3.375 6.893 4.25.24.096.478.223.701.35-1.863 0-3.741-.222-5.572-.573-.828-.143-1.592-.461-2.404-.62.111.159.207.318.334.461a19.206 19.206 0 0 0 5.62 3.79c.621.302 1.29.445 1.879.78-.908.127-1.8.031-2.707-.08-1.862-.191-3.852-.526-5.572-1.306-.382-.159-.27-.477-.302-.812.016-6.05 0-12.1 0-18.149a7.559 7.559 0 0 1 .016-1.035z" fill="#0160AB"/><path d="M141.978 51.646c.27.286.191.684.207 1.05-.016.685.016 1.386-.016 2.07-.032.223 0 .526-.27.59-1.433.35-2.77.795-4.235 1.018-.94.08-1.8.319-2.755.127.16-.175.398-.302.605-.413 1.545-.605 2.962-1.577 4.315-2.516.828-.525 1.369-1.337 2.15-1.926z" fill="#231F20"/><path d="M69.063 54.48c2.292.286 4.585.748 6.877 1.019 3.28.398 6.575.732 9.87.955 1.195.143 2.405.08 3.599.207.907.095 1.799.111 2.706.127.908.016 1.8.16 2.707.127 3.614.048 7.212.064 10.826 0 .7.016 1.385-.031 2.07-.095 6.177-.223 12.37-.717 18.499-1.56 1.576-.207 3.152-.573 4.744-.637-1.624.589-3.375.876-5.047 1.274-8.58 1.703-17.416 2.324-26.14 2.26a137.001 137.001 0 0 1-18.946-1.21c-3.662-.51-7.34-1.162-10.89-2.165-.302-.064-.605-.143-.875-.302z" fill="#0160AB"/><path d="M141.978 55.626c.27.286.191.684.207 1.05-.032.828.064 1.704-.08 2.516-.764.175-1.448.541-2.228.7a38.104 38.104 0 0 1-3.821.637 5.28 5.28 0 0 1-1.003-.016c.175-.334.557-.477.875-.636 1.529-.717 3.025-1.56 4.299-2.69.637-.463 1.13-1.068 1.751-1.561z" fill="#231F20"/><path d="M53.859 57.52c.063.319.08.59.032.908-.096.828-.016 1.64-.048 2.468-1.338.206-2.675.35-3.996.604-1.72.399-3.487.605-5.206 1.003-2.165.478-4.33 1.003-6.48 1.465-.668.207-1.369.303-2.022.526-.812.302-1.671.398-2.515.668-1.783.541-3.598.971-5.333 1.656-1.051.318-2.086.7-3.137 1.035-1.671.684-3.327 1.226-4.935 2.053-1.863.812-3.63 1.752-5.413 2.723-1.242.796-2.5 1.64-3.63 2.595-.589.637-1.64 1.29-1.878 2.15.509-.256.843-.654 1.32-.956.383-.255.797-.478 1.163-.764.669-.542 1.465-.828 2.15-1.322 1.32-.589 2.547-1.353 3.884-1.878.955-.51 1.974-.828 2.945-1.306 1.497-.477 2.93-1.13 4.41-1.64 1.592-.477 3.152-1.05 4.76-1.448 1.02-.35 2.07-.558 3.089-.892 5.683-1.465 11.415-2.706 17.21-3.646 1.194-.254 2.388-.51 3.614-.445-.016 1.926.032 3.852-.016 5.763-1.306.78-1.879 1.974-2.627 3.232-.525 1.05-.462 2.244-.43 3.375.032 1.608.78 3.152 1.783 4.362.335.398.86.685 1.13 1.114.208.796.112 1.624.446 2.42.367.987 1.051 1.752 1.783 2.484.558.462 1.179.844 1.752 1.273 1.337.924 2.818 1.417 4.266 2.086.733.318 1.513.494 2.261.764 1.337.478 2.707.812 4.076 1.162 1.146.176 2.229.59 3.375.765.493.08.97.175 1.464.286 1.13.27 2.277.335 3.423.557 1.481.303 2.977.335 4.458.621.971.223 1.942.144 2.913.27 1.608.192 3.232.32 4.856.415 1.385.239 2.739.016 4.124.19.636.08 1.29.096 1.942.08 2.07 0 4.14.016 6.209 0 1.13.08 2.388.255 3.502.048.956-.111 1.927.016 2.882-.127 1.274-.175 2.563.032 3.82-.175.685-.08 1.37-.064 2.055-.16.668-.095 1.337 0 2.021-.095 1.242-.16 2.5-.223 3.742-.366 1.576-.334 3.184-.303 4.76-.669 1.433-.239 2.913-.382 4.314-.764.796-.207 1.608-.255 2.404-.478 1.147-.318 2.309-.509 3.455-.843 1.035-.24 2.006-.637 3.025-.956 2.436-.86 5.079-1.91 7.1-3.534.494-.382.812-.86 1.21-1.337.59-.733 1.163-1.529 1.306-2.484.095-.493.048-1.066.239-1.544.159-.223.398-.382.589-.557 1.417-1.338 2.292-3.2 2.292-5.158.207-1.736-.334-3.44-1.337-4.856-.446-.637-1.099-1.02-1.56-1.608-.191-.223-.144-.573-.16-.844a154.11 154.11 0 0 0 0-3.837c.032-.302-.047-.605.255-.796.987 0 2.006.366 2.993.446 1.02.096 1.99.35 2.993.494 2.086.413 4.171.732 6.241 1.257 1.417.223 2.786.621 4.187.908.971.254 1.942.525 2.93.732 1.687.541 3.422.844 5.094 1.433.637.223 1.29.446 1.942.605 1.067.255 2.022.78 3.089 1.05 1.433.494 2.85 1.02 4.235 1.64 1.082.367 2.085.892 3.136 1.338 2.69 1.4 5.254 2.706 7.578 4.696.27.239.526.414.86.526-.669-1.274-1.735-2.404-2.866-3.296-.684-.669-1.496-1.13-2.292-1.687-.526-.35-1.147-.542-1.688-.876a22.784 22.784 0 0 0-2.834-1.48c-1.83-.988-3.805-1.768-5.715-2.564-1.242-.398-2.404-.94-3.646-1.305-2.101-.796-4.267-1.306-6.384-2.054-2.213-.541-4.521-1.13-6.766-1.672-1.99-.366-3.932-.97-5.938-1.242-1.481-.254-2.946-.636-4.442-.827-.605-.096-1.178-.255-1.8-.287-.318-.032-.748 0-1.034-.175-.239-.143-.16-.334-.191-.557 0-.86.08-1.688-.112-2.548.16-.127.287-.254.51-.222 1.082.095 2.117.35 3.184.477 2.356.43 4.728.844 7.085 1.337 2.308.398 4.585 1.051 6.861 1.577 1.035.318 2.118.461 3.152.812.94.19 1.8.573 2.739.796.94.222 1.783.652 2.706.923.478.143.94.302 1.385.493 1.258.542 2.58.892 3.821 1.433 1.02.446 2.086.749 3.057 1.258 1.226.669 2.579 1.05 3.789 1.783.796.494 1.656.86 2.452 1.37 2.515 1.56 5.206 3.39 7.037 5.73.748.876 1.225 1.863 1.735 2.882.462 1.115.684 2.34.7 3.55-.111 1.003-.334 2.038-.7 2.978-.812 1.576-1.783 3.04-3.057 4.298-.94.971-1.99 1.656-3.057 2.531-1.432 1.051-2.977 1.959-4.553 2.786-.844.51-1.799.812-2.643 1.338-1.417.589-2.77 1.369-4.25 1.815-1.465.589-2.962 1.098-4.458 1.592a93.73 93.73 0 0 1-7.467 2.26c-1.464.319-2.85.86-4.33 1.099-1.194.287-2.388.557-3.582.828-1.13.159-2.213.477-3.343.653-1.115.143-2.197.493-3.312.668-1.226.144-2.452.446-3.662.621-.907.064-1.767.35-2.674.398-1.767.207-3.503.541-5.27.78-2.07.207-4.155.446-6.225.733-1.544.095-3.072.35-4.6.382-.749.031-1.481.238-2.23.286-.557.032-1.098 0-1.655.096-.733.127-1.465.048-2.197.175-.86.16-1.72-.016-2.58.16-.795.142-1.591.015-2.387.142-.67.112-1.338.096-2.022.08-.7-.016-1.37.16-2.07.175-1.067.016-2.15-.064-3.216.08-.414.047-.828.08-1.242.08-6.527 0-13.054.015-19.582-.017-.796.016-1.592-.143-2.388-.159-.796-.016-1.56.064-2.372-.064-1.274-.222-2.547.016-3.82-.175-.845-.143-1.688-.016-2.516-.159-.542-.095-1.099-.08-1.64-.08-1.497-.095-2.977-.302-4.458-.334-1.082-.08-2.101-.334-3.184-.302-1.035.016-1.99-.287-3.025-.319a9.201 9.201 0 0 1-1.608-.175c-.891-.175-1.799-.159-2.69-.35-.796-.16-1.624-.096-2.42-.27-.828-.192-1.688-.16-2.516-.367-.7-.16-1.4-.127-2.101-.286-.557-.128-1.13-.16-1.704-.24-1.974-.35-3.98-.684-5.954-1.034-.844-.175-1.64-.414-2.5-.51-.636-.063-1.257-.222-1.878-.366a191.787 191.787 0 0 1-7.276-1.64c-.891-.206-1.735-.54-2.642-.7-1.752-.43-3.471-1.019-5.206-1.512-.987-.35-1.974-.7-2.977-.987-2.102-.701-4.156-1.545-6.193-2.404-1.45-.717-2.994-1.306-4.379-2.15-2.053-1.035-3.996-2.356-5.795-3.757A34.47 34.47 0 0 0 7.5 89.17c-1.497-1.576-2.962-3.486-3.471-5.636-.287-.907-.175-1.75-.191-2.706-.016-.908.382-1.847.7-2.69.35-.685.764-1.354 1.163-2.038.684-.797 1.337-1.624 2.117-2.34.923-.988 2.038-1.672 3.073-2.5.636-.494 1.385-.828 2.053-1.29 1.322-.86 2.739-1.512 4.14-2.245 2.34-1.066 4.632-2.117 7.1-2.945.732-.223 1.353-.669 2.07-.923 1.496-.478 2.96-1.003 4.473-1.385.653-.16 1.258-.462 1.91-.621 2.007-.494 4.013-1.003 6.003-1.497.732-.159 1.449-.302 2.165-.51 1.496-.35 3.009-.556 4.505-.907 1.736-.382 3.519-.589 5.254-.955 1.115-.111 2.213-.446 3.296-.462z" fill="#1D105F"/><path d="M141.978 59.463c.35.461.143 1.273.191 1.83-.048.526.143 1.402-.16 1.815-.859.287-1.687.637-2.578.796-1.13.383-2.277.367-3.423.558a3.624 3.624 0 0 1-1.099.016c.478-.605 1.29-.7 1.975-1.115.987-.51 1.878-1.162 2.77-1.815.828-.652 1.64-1.305 2.324-2.085zm0 3.98c.255.302.175.653.191 1.035-.032.891.064 1.799-.064 2.69-.716.08-1.305.478-2.005.605-.717.143-1.401.366-2.134.446-1.066.095-1.99.43-3.072.255.175-.43.86-.542 1.241-.749 1.035-.51 2.118-1.019 3.01-1.75 1.034-.797 2.021-1.53 2.833-2.532zm0 3.98c.255.302.175.653.191 1.035-.032.732.048 1.48-.032 2.213-.063.398-.62.589-.955.716-1.64.541-3.391.86-5.11.987-.494.064-.987.143-1.481.08.414-.382.908-.494 1.401-.733.748-.35 1.449-.589 2.086-1.082.636-.494 1.337-.876 1.942-1.401.684-.605 1.4-1.115 1.958-1.815z" fill="#231F20"/><path d="M55.371 69.365c.032.335.032.669.048 1.003-.557.669-1.274 1.02-1.751 1.783-.287.414-.43.876-.51 1.37.59-.494 1.226-1.529 2.102-1.306.111 1.783-.048 3.566.08 5.35.079.89.127 1.782.047 2.674-1.194-.35-2.133-1.322-2.706-2.42-1.147-2.229-.94-5.254.732-7.18.478-.541 1.178-1.194 1.958-1.274zm89.775.032c.287-.032.605.16.844.287 1.242.78 2.038 2.07 2.388 3.47.319 1.624.207 3.328-.605 4.792-.557 1.02-1.512 1.99-2.643 2.293-.111-.908.032-1.767.048-2.675.112-1.83-.032-3.677.08-5.508a.992.992 0 0 1 .7.175c.51.334.955.844 1.385 1.273a3.439 3.439 0 0 0-.7-1.64c-.446-.572-1.099-.923-1.544-1.512 0-.302 0-.637.047-.955z" fill="#FCB714"/><path d="M55.403 70.368c0 .637-.032 1.274-.096 1.91v5.286c-.127-1.767.032-3.566-.08-5.35-.875-.222-1.496.813-2.1 1.306.079-.493.222-.955.509-1.369.493-.748 1.21-1.114 1.767-1.783zm89.696 0c.445.59 1.082.94 1.544 1.513.398.477.605 1.019.7 1.64-.43-.43-.875-.956-1.385-1.274-.207-.144-.461-.223-.7-.175-.112 1.83.032 3.677-.08 5.508-.032-2.42.032-4.808-.08-7.212z" fill="#FFF"/><path d="M60.975 76.816c1.91-.382 4.06.35 5.684 1.353 1.799 1.146 3.439 2.85 4.219 4.856.398.987.525 2.054.366 3.104a3.322 3.322 0 0 1-1.863 2.436c-1.003.51-2.085.478-3.184.366-1.847-.302-3.598-1.226-5.015-2.451-1.48-1.306-2.754-3.01-3.12-4.983-.128-.908-.144-2.006.302-2.85.51-.987 1.529-1.64 2.611-1.831zm76.275 0c1.242-.223 2.658-.127 3.725.589.78.494 1.29 1.305 1.449 2.213.207 1.226-.048 2.452-.573 3.55-.971 2.006-2.611 3.614-4.538 4.697-1.671.907-3.518 1.385-5.413 1.003-1.098-.255-2.101-1.051-2.499-2.118-.35-.987-.318-2.022-.048-3.025.446-1.512 1.385-2.913 2.5-4.027 1.48-1.433 3.359-2.516 5.397-2.882z" fill="#FCB714"/><path d="M62.36 78.392c.844-.032 1.656.255 2.42.557.685.319 1.321.51 1.83 1.099a5.964 5.964 0 0 1-1.257-.462c-1.194-.557-2.547-.685-3.789-.16-.605.287-.987.829-1.162 1.45-.191 1.003.08 1.91.462 2.833-.733-.875-1.194-2.053-1.29-3.184.016-.716.223-1.48.892-1.846.589-.382 1.21-.271 1.894-.287zm75.017.048c.51-.064 1.035-.048 1.56-.032.366.032.7-.048.94.302-2.054.287-3.933 1.21-5.493 2.548-.923.652-1.528 1.544-2.197 2.451-.573.828-.876 1.752-1.114 2.707-.24-.478-.398-.971-.319-1.513.144-.923.542-1.799 1.035-2.595.382-.636.908-1.066 1.417-1.592 1.114-1.178 2.595-1.926 4.171-2.276z" fill="#FFF"/><path d="M79.936 80.637c2.627-.35 5.43.541 7.356 2.372 1.05 1.067 1.799 2.388 1.83 3.916.064 1.385-.605 2.723-1.671 3.598a6.181 6.181 0 0 1-2.07 1.099c-2.054.653-4.394.382-6.336-.51-1.258-.605-2.452-1.512-3.2-2.69-.59-.876-.94-1.879-.908-2.945-.047-1.385.669-2.69 1.752-3.535.907-.716 2.053-1.146 3.247-1.305zm38.209.016c1.752-.255 3.71.032 5.222.987 1.083.716 1.942 1.783 2.15 3.088.27 1.545-.255 3.089-1.258 4.251-2.165 2.58-5.923 3.614-9.139 2.659-.939-.287-1.799-.78-2.483-1.497a4.433 4.433 0 0 1-1.242-3.677c.175-1.354.907-2.58 1.879-3.519 1.321-1.257 3.088-2.038 4.871-2.292zm-19.757 1.098a10.62 10.62 0 0 1 3.948.048c1.831.398 3.535 1.305 4.633 2.85 1.067 1.464 1.099 3.63.048 5.094-1.162 1.736-3.216 2.723-5.238 3.025-1.48.27-2.977.128-4.41-.286-1.369-.414-2.61-1.115-3.55-2.197-.796-.94-1.29-2.134-1.194-3.376.095-1.448.955-2.722 2.085-3.598 1.083-.843 2.357-1.305 3.678-1.56z" fill="#FCB714"/><path d="M80.494 82.213c.811 0 1.56-.064 2.356.175.844.255 1.72.43 2.404.987-.446-.032-.876-.095-1.29-.27-.732-.35-1.687-.255-2.5-.207-1.464.334-2.913.86-3.788 2.165-.542.828-.478 1.687-.43 2.627-.239-.287-.478-.51-.542-.892-.127-.637-.318-1.274-.127-1.91.143-.812.812-1.513 1.497-1.943.732-.382 1.592-.748 2.42-.732zm39.02 0c.892-.048 1.72.175 2.532.51-1.99-.08-4.06.318-5.716 1.464a6.447 6.447 0 0 0-2.213 2.133c-.398.637-.525 1.306-.716 2.022-.478-.525-.35-1.353-.318-2.006.222-1.082.955-2.07 1.878-2.674 1.29-.956 2.93-1.545 4.553-1.45zm-20.505 1.019c.812-.08 1.672-.048 2.484-.016.716.127 1.607.414 2.244.78-1.48.048-3.152-.191-4.553.239-1.544.446-2.93 1.258-3.82 2.61-.383.606-.526 1.274-.622 1.975-.477-.764-.62-1.64-.318-2.484.255-.796.828-1.321 1.465-1.83.939-.749 1.99-.972 3.12-1.274z" fill="#FFF"/><path d="M7.912 84.426c.796.557 1.465 1.258 2.245 1.847a33.333 33.333 0 0 0 5.365 3.231c3.312 1.72 6.846 3.073 10.38 4.267 6.846 2.245 13.82 3.885 20.904 5.206 6.687 1.242 13.453 2.15 20.219 2.85 1.194.16 2.388.239 3.582.318 1.767.175 3.518.319 5.286.478 1.655.08 3.295.19 4.935.318 3.136.112 6.24.27 9.377.366 4.935.176 9.87.096 14.806.112 2.34-.032 4.665-.064 7.005-.175 1.863-.048 3.725-.096 5.572-.223 13.373-.653 26.826-2.118 39.96-4.776 5.143-1.067 10.221-2.309 15.236-3.869 4.028-1.29 8.104-2.77 11.877-4.68 2.26-1.13 4.521-2.42 6.463-4.044.494-.398.956-.828 1.45-1.21-.478 1.21-1.434 2.133-2.357 3.025-.78.796-1.656 1.417-2.547 2.07-3.821 2.626-8.183 4.52-12.514 6.113-7.068 2.563-14.52 4.378-21.906 5.795a222.69 222.69 0 0 1-14.185 2.229c-2.739.35-5.493.668-8.231.891-3.503.398-7.021.637-10.555.86-1.115.064-2.23.064-3.344.175-2.658.127-5.301.255-7.96.287-.844-.016-1.687.111-2.547.111-3.025-.032-6.05.127-9.075.016-1.655-.064-3.28.064-4.935-.096a175.204 175.204 0 0 1-5.095-.143c-2.292-.032-4.553-.27-6.845-.334a463.69 463.69 0 0 1-6.544-.446c-13.755-1.13-27.765-3.136-41.074-6.878-5.89-1.703-11.877-3.805-17.258-6.798-1.449-.86-2.866-1.75-4.203-2.802-.7-.557-1.321-1.225-1.974-1.846-.573-.685-1.194-1.417-1.513-2.245z" fill="#0160AB"/><path d="M55.18 108.657c.541.063 1.067.159 1.608.254.191.08.446.032.398.319-.095.891-.16 1.783-.27 2.69-.048.844 0 1.704-.016 2.548.19 2.451.54 4.855 1.305 7.196.111.27.573.254.812.286 3.057 0 6.13.016 9.186-.032.223-.016.43.032.637.08 0 .525-.128 1.067-.143 1.592.398.064.7-.111 1.034-.27 1.099-.542 2.357-.828 3.55-1.051 1.577-.319 3.232-.303 4.84-.303h28.498c.573-.016 1.146.016 1.735.064.032.669-.27 1.242-.159 1.91.223-.032.43-.111.637-.207 1.29-.636 2.706-1.21 4.14-1.433 1.543-.35 3.215-.334 4.807-.35h22.289c.764 0 1.496.048 2.26-.063.287-1.067.59-2.102.796-3.185.255-.955.255-1.926.43-2.913.175-.971.096-1.91.112-2.882.032-.939-.144-1.878-.207-2.817 0-.303-.16-.7-.032-.972.557-.254 1.273-.27 1.894-.35.144.191.303.414.35.653.176 1.958-.159 3.773-.318 5.715-.27 1.401-.461 2.802-.923 4.156-.175.875-.7 1.735-.637 2.626.59.24 1.099.016 1.704.048.222 0 .43.032.652.016 1.003-.095 2.006 0 3.01 0h24.039c2.531.112 5.27.621 7.499 1.895 2.037 1.162 3.613 3.056 4.218 5.349.494 1.72.494 3.598.048 5.333-.318 1.624-.684 3.248-.987 4.872-.302 1.512-.796 2.945-1.672 4.235-.238.366-.54.7-.748 1.082 0 .287.128.557.191.828.24.748.35 1.56.398 2.34.032 1.497-.366 2.786-.637 4.22-.302 1.353-.557 2.706-.843 4.059-.303 1.417-.78 2.786-1.545 4.028-1.21 1.99-3.184 3.566-5.237 4.633-2.054 1.05-4.251 1.385-6.528 1.512h-32.653c.08-.748.303-1.48.398-2.229-.573.207-1.05.542-1.592.78-2.356 1.02-4.919 1.417-7.466 1.385h-4.617c-.717 0-1.433-.031-2.15.064H95.03c-.43-.159-.876-.127-1.322-.111-7.976.016-16.031-.016-23.992.016-2.626-.112-5.476-.78-7.641-2.34-1.115-.765-1.943-1.768-2.755-2.819-.445.398-.796.892-1.257 1.29-2.022 1.847-4.474 3.2-7.18 3.646-.924.175-1.847.207-2.786.318H15.284c.589-3.009 1.257-6.018 1.878-9.027 2.356-11.224 4.729-22.463 7.085-33.687.111-.557.207-1.13.382-1.672.844-.032 1.671-.016 2.515-.016h26.587c.24 0 .462-.048.7-.095.685.047 1.577.238 2.214-.064-.175-.94-.621-1.783-.812-2.707-.621-2.244-1.05-4.52-1.115-6.861a18.921 18.921 0 0 1-.111-3.152c.032-.271.302-.494.573-.43z" fill="#1D105F"/><path d="M66.324 109.007c.574-.08 1.083.032 1.64.095 1.513.128 3.041.24 4.553.446.812.27 1.608.621 2.404.908 2.006.923 3.949 1.99 5.89 3.04 2.262 1.258 4.618 2.611 7.054 3.44 1.56.668 3.216.939 4.903.986.828.016 1.592-.286 2.404-.302-.127.525-.875.669-1.305.844-1.37.525-2.69.398-4.124.318-1.21-.207-2.404-.605-3.534-1.082-2.786-1.035-5.365-2.627-8.056-3.901-.573-.287-1.098-.62-1.687-.86-1.194-.493-2.34-1.13-3.582-1.512-1.847-.7-3.774-1.13-5.748-1.226-.907-.016-1.83.143-2.722.302-.669.112-1.242.494-1.91.637-.144.016-.287-.047-.414-.175.35-.286.7-.557 1.098-.78 1.019-.51 1.974-1.019 3.136-1.178zm66.452.063c1.306-.254 2.754.128 3.885.813.668.35 1.592.732 1.974 1.417-.7-.096-1.258-.446-1.927-.621-1.05-.255-2.101-.51-3.2-.446-1.512.064-3.024.302-4.457.764-1.29.318-2.532.812-3.742 1.353-2.101 1.02-4.17 2.086-6.256 3.137-.971.636-2.054 1.018-3.089 1.544-1.496.653-2.977 1.273-4.569 1.64-.955.254-2.038.159-3.04.175-.956.016-1.768-.35-2.628-.764-.223-.112-.43-.24-.589-.446 1.035.032 2.006.334 3.057.286a13.81 13.81 0 0 0 4.665-1.05c1.496-.494 2.834-1.274 4.266-1.943 1.768-.987 3.567-1.958 5.334-2.945 1.846-.923 3.534-1.863 5.54-2.42.732-.143 1.48-.223 2.229-.318.844-.112 1.703-.032 2.547-.175zm-11.813.94c.239-.016.764-.16.828.16-.16.222-.478.254-.732.318-1.401.222-2.739.652-4.171.78-2.102.398-4.203.51-6.305.843-.971.048-1.91.016-2.866.176-1.13-.032-2.228.207-3.343.175-2.659 0-5.301.016-7.96-.016-.86 0-1.688-.175-2.547-.144-.86.048-1.688-.175-2.548-.175-1.64-.095-3.263-.414-4.903-.525-1.258-.239-2.547-.334-3.805-.637-.669-.143-1.337-.207-2.006-.382-.303-.095-.59-.143-.796-.414 1.417-.175 2.77.048 4.171.096.923-.064 1.83.175 2.754.143 1.688.016 3.375 0 5.047.16 5.413.015 10.842 0 16.255 0 1.958-.16 3.932-.16 5.89-.16.335-.016.653-.048.972-.096 1.018-.159 2.021.032 3.056-.127 1.02-.175 2.006.032 3.01-.175z" fill="#1D105F"/><path d="M71.658 113.258c.589-.032 1.257.398 1.83.557-.27.669-.27 1.37-.19 2.085a5.04 5.04 0 0 0-1.895-.636 4.101 4.101 0 0 0-.032.987c-.143-.987-.095-2.07.287-2.993zm57.186-.032c.207.653.334 1.321.35 2.006-.653.111-1.274.318-1.926.493.016-.652 0-1.29-.271-1.91.605-.191 1.226-.541 1.847-.59z" fill="#A9B9DD"/><path d="M73.489 113.815c.254.08.493.143.748.223.016.525-.032 1.05-.048 1.576.096 1.258.94 2.245 2.054 2.77.78.27 1.687.207 2.452-.016.62-.255 1.114-.86 1.64-1.258l.668.24c-.366.668-.907 1.146-1.544 1.56-.844.35-1.672.62-2.611.461-1.8-.255-3.28-1.656-3.566-3.47-.064-.717-.064-1.401.207-2.086zm53.508 0c.27.62.287 1.258.27 1.91-.206.908-.557 1.752-1.21 2.42a4.38 4.38 0 0 1-3.056 1.258c-.716-.016-1.337-.255-1.99-.51-.669-.43-1.13-.923-1.56-1.576.223-.08.51-.366.732-.19.717.445 1.146 1.114 2.038 1.305.971.159 1.958.08 2.754-.541.764-.494 1.162-1.322 1.322-2.182.015-.557-.112-1.098-.08-1.655.27-.08.541-.144.78-.24z" fill="#1D105F"/><path d="M75.288 114.515c.27-.047.652-.047.86.16.35.254.35.827.174 1.178-.318.557-1.178.525-1.512 0-.334-.494-.048-1.147.478-1.338zm49.225.032c.255-.08.558-.095.796 0 .414.255.653.764.414 1.21-.238.494-.875.637-1.337.35-.478-.382-.462-1.29.127-1.56z" fill="#FCB714"/><path d="M71.403 115.264a5.04 5.04 0 0 1 1.895.636c.27 1.8 1.767 3.216 3.566 3.471.939.16 1.75-.111 2.61-.462.637.446 1.338.574 2.054.828-2.053 2.006-5.524 2.134-7.785.398-1.257-.923-2.085-2.356-2.356-3.884a4.083 4.083 0 0 1 .016-.987zm5.987.079a.9.9 0 0 1 1.177 1.003.895.895 0 0 1-1.337.621c-.621-.366-.541-1.4.16-1.624zm45.197-.032c.255-.047.51-.031.716.112.526.318.51 1.242-.047 1.528-.446.24-1.035.096-1.258-.398-.239-.51.016-1.082.59-1.242zm6.607-.079c.016 1.894-.892 3.773-2.436 4.903-2.26 1.736-5.731 1.592-7.785-.398.717-.254 1.417-.366 2.038-.828.653.255 1.274.494 1.99.51a4.38 4.38 0 0 0 3.057-1.258c.668-.668 1.003-1.512 1.21-2.42.652-.175 1.273-.398 1.926-.51z" fill="#FFF"/><path d="M81.003 117.35c.589.222 1.146.509 1.703.811-.286.621-.716 1.115-1.194 1.576-.716-.254-1.416-.382-2.053-.828.637-.413 1.178-.891 1.544-1.56zm38.464-.033c.43.67.891 1.147 1.56 1.577-.637.461-1.322.557-2.038.827-.478-.461-.907-.97-1.194-1.576.541-.286 1.114-.525 1.672-.828z" fill="#A9B9DD"/><path d="M26.746 124.577c.605-.08 1.242-.032 1.847-.032h35.343c.573 0 1.147 0 1.704.032-.175 1.21-.526 2.388-.764 3.598-1.975 9.202-3.98 18.404-5.97 27.622-.446 2.133-1.593 4.092-3.36 5.397-1.56 1.21-3.311 2.086-5.285 2.372a34.79 34.79 0 0 1-4.633.255H21.27c-.94 0-1.879.016-2.818-.016 2.658-12.593 5.317-25.186 7.96-37.78.111-.509.175-1.002.334-1.448zm51.359-.047c9.011.015 18.038-.017 27.05.015-.017.27-.033.557-.08.828-1.02 4.824-1.943 9.68-2.977 14.504-.574.031-1.13.047-1.704.031H84.792c-.62-.015-1.226-.031-1.847.064-.414 2.022-.812 4.06-1.242 6.082-.143.764-.334 1.496-.398 2.276 5.302.032 10.603 0 15.905.016 1.019.016 2.022-.047 3.025.048-.048.637-.191 1.258-.335 1.879-.97 4.457-1.958 8.9-2.897 13.34-.732.16-1.417.08-2.165.096h-23.88c-2.405 0-5.159-.413-7.197-1.767-1.72-1.098-2.881-2.945-3.2-4.935-.35-2.038.143-3.9.557-5.875 1.163-5.62 2.34-11.271 3.487-16.891.494-2.213 1.465-4.41 2.945-6.13 1.529-1.767 3.773-2.786 6.05-3.2 1.48-.27 2.993-.398 4.505-.382zm40.757-.048h23.562c.907 0 1.799-.032 2.706.031 0 .844-.27 1.592-.414 2.42-.589 2.962-1.21 5.923-1.783 8.884-.318 1.353-.51 2.722-.86 4.06-1.32.095-2.626-.032-3.948.08.319.509.733.954 1.035 1.496.637 1.13 1.02 2.436 1.003 3.725 0 .685.016 1.417-.111 2.086-.35 1.624-.669 3.263-.987 4.903-.255 1.21-.446 2.42-.86 3.582-.796 2.34-2.15 4.553-4.235 5.954-2.165 1.497-4.871 1.927-7.45 1.975-3.392.047-6.799-.08-10.19.095h-16.238c-.637 0-1.258 0-1.895-.032-.032-.748.191-1.417.35-2.133.892-4.41 1.783-8.82 2.707-13.214 1.242-.143 2.515 0 3.773-.08a2.516 2.516 0 0 0-.462-.764c-.732-.844-1.162-1.974-1.4-3.056-.32-1.481-.16-2.93.142-4.394.367-1.72.685-3.44 1.051-5.159.398-2.07 1.083-4.235 2.309-5.97a9.945 9.945 0 0 1 5.413-3.805c2.244-.684 4.441-.668 6.782-.684zm27.288.095c.238-.032.477-.032.732-.048h24.199c2.42-.031 5.046.16 7.307 1.099 1.385.605 2.611 1.512 3.375 2.834.94 1.528 1.003 3.327.717 5.062-.335 1.481-.605 2.993-.924 4.474-.286 1.433-.557 2.818-1.353 4.06-.541.891-1.29 1.433-1.974 2.197.223.51.557.939.78 1.433.653 1.448.589 3.231.175 4.744-.414 1.926-.796 3.868-1.226 5.795-.382 1.592-1.13 3.04-2.308 4.203-1.608 1.512-3.519 2.659-5.716 3.04-1.815.32-3.693.335-5.54.32h-23.562c-.987 0-1.99.015-2.977-.017 2.579-12.274 5.174-24.597 7.753-36.887.207-.765.27-1.577.541-2.309z" fill="#0160AB"/><path d="M30.026 126.376h12.1c.795 0 1.575-.048 2.372.064-.064.668-.223 1.305-.367 1.942-.939 4.378-1.91 8.74-2.833 13.134-.542 2.484-1.13 4.968-1.608 7.467-.24 1.115-.526 2.229-.733 3.36.7.047 1.417.031 2.102-.096.477-.16.51-.526.605-.955.668-3.2 1.4-6.369 2.053-9.569.383-1.305.605-2.674.924-3.996.812-3.757 1.576-7.514 2.452-11.255.78-.128 1.56-.08 2.34-.08h12.895c.319 0 .653.032.972.064-.048.414-.096.812-.192 1.226-1.257 5.7-2.451 11.399-3.725 17.098-.732 3.375-1.417 6.75-2.165 10.11-.239 1.178-.605 2.324-1.321 3.311-.733 1.067-1.91 1.895-3.01 2.563-1.862 1.067-3.757 1.115-5.842 1.226h-24.2c-.684 0-1.4.048-2.053-.064.032-.318.064-.636.127-.955 2.436-11.478 4.824-23.005 7.276-34.483.605-.176 1.21-.112 1.83-.112zm47.284 0h23.243c.796 0 1.576-.048 2.372.064-.047.493-.127.97-.238 1.449-.685 3.359-1.386 6.718-2.038 10.093-.526.175-1.13.112-1.688.127H85.747a6.219 6.219 0 0 1-.764-.08c.08-.572.191-1.145.27-1.719-1.098-.095-2.308-.127-3.406.016-1.02 4.776-1.927 9.441-2.946 14.25-.111.413-.127.827-.127 1.24.94 0 1.895.017 2.834 0 .143 0 .255-.015.35-.079.223-.477.27-1.035.366-1.544.78-.175 1.513-.095 2.309-.111h11.622a8.95 8.95 0 0 1 1.72.095c-.065.796-.303 1.528-.447 2.309-.238 1.162-.54 2.308-.78 3.47-.35 1.91-.796 3.79-1.226 5.684-.54.207-1.082.175-1.64.175-8.23-.016-16.477.016-24.708-.016-1.799-.207-3.502-.62-4.92-1.783-1.496-1.21-2.1-3.152-1.973-5.03.095-.956.286-1.911.493-2.85 1.194-5.78 2.388-11.527 3.566-17.306a12.802 12.802 0 0 1 1.242-3.534c.828-1.752 2.213-3.2 4.012-3.949 1.799-.748 3.79-.923 5.715-.97zm41.233-.048h22.448c.62 0 1.29-.047 1.895.08-.032.78-.24 1.512-.398 2.26-.574 2.93-1.194 5.828-1.752 8.757-.063.207-.095.462-.238.605-.51.095-1.051.048-1.56.064h-11.941c-.7 0-1.353.047-2.038-.064.08-.573.223-1.13.27-1.704-1.13-.016-2.26-.016-3.406 0-.127.924-.382 1.831-.494 2.755 2.786-.048 5.572 0 8.374-.016 1.704-.016 3.392.175 4.984.828 1.114.461 2.149 1.241 2.817 2.26.812 1.433 1.035 3.105.749 4.729-.398 2.117-.844 4.25-1.258 6.368-.239 1.21-.557 2.388-1.146 3.47-.7 1.322-1.624 2.66-2.898 3.471-1.751 1.21-3.725 1.48-5.779 1.688-.955.095-1.894.047-2.85.047-3.184.016-6.368-.031-9.552.032h-12.577c-.589.016-1.178.016-1.767-.048.016-.509.143-.987.255-1.496.493-2.515 1.034-5.03 1.544-7.546.16-.812.366-1.608.462-2.436l.175-.191c.573-.08 1.162-.032 1.735-.048h12.896c.286 0 .589-.032.86.048.031.557-.112 1.146-.192 1.703 1.067-.016 2.134.032 3.2-.032.191-.907.414-1.799.541-2.722-2.945-.016-5.906 0-8.867 0-1.576-.032-3.105-.35-4.601-.844-.94-.557-1.815-1.098-2.468-1.99-1.162-1.48-1.273-3.566-.923-5.349.51-2.42.923-4.872 1.512-7.276.382-1.337.892-2.61 1.624-3.789 1.274-1.671 3.136-2.786 5.19-3.232 1.688-.398 3.391-.366 5.174-.382zm29.055.144c.525-.144 1.13-.096 1.672-.096h23.562c2.18.112 4.537.462 6.32 1.831 1.306 1.05 1.847 2.754 1.624 4.394-.223 1.512-.605 2.993-.891 4.49-.176.827-.319 1.687-.542 2.515a6.394 6.394 0 0 1-2.627 3.423c-.525.366-1.13.605-1.623 1.019 1.178.748 2.18 1.687 2.483 3.104.319 1.13-.032 2.181-.255 3.312-.334 1.64-.684 3.28-1.019 4.92-.27 1.432-.955 2.849-2.021 3.852-.653.668-1.417 1.13-2.23 1.592-.716.414-1.528.669-2.324.844-.7.159-1.4.143-2.101.286-.971.032-1.942.032-2.914.032h-22.129c-.78 0-1.56.032-2.356-.048a3.79 3.79 0 0 1 .016-.605c.78-3.916 1.656-7.8 2.452-11.685 1.655-7.722 3.231-15.507 4.903-23.18z" fill="#FCB714"/><path d="M117.429 127.602c7.88-.016 15.777.016 23.658-.016.015.478.015.94-.096 1.417-.653 2.706-1.067 5.493-1.815 8.183-.732.127-1.433.064-2.181.08-3.295 0-6.575-.016-9.87.016-.35.016-.637-.048-.972-.16 2.15-.891 4.299-1.799 6.464-2.674.239-.112.446-.175.478-.478a20.47 20.47 0 0 0 .382-2.595c-.59.223-1.115.557-1.672.844-1.688.86-3.343 1.783-5.03 2.627-.24.111-.32.286-.415.51l-.048-.303c-.54-.16-1.162-.08-1.719-.096-1.162.016-2.34-.032-3.502.016-.319.016-.462.112-.51.446-.286 1.672-.7 3.327-.876 4.999-1.528.796-3.104 1.48-4.664 2.229-.462.239-1.035.43-1.433.78.828.525 1.751.669 2.706.684h9.393c1.003 0 1.959-.047 2.946.24.382.11.7.318 1.066.46.51-.079 1.003-.429 1.481-.636 1.465-.669 2.913-1.417 4.394-2.038.414.43.796.876 1.003 1.465.51 1.21.414 2.58.127 3.837-.477 2.197-.843 4.426-1.353 6.607-.462 1.433-1.082 3.009-2.15 4.075-1.193 1.258-2.928 2.102-4.68 2.086-.589.127-1.098.382-1.72.334-7.593.032-15.171 0-22.765.016-.653.016-1.29.032-1.927-.08 1.863-.986 3.805-1.814 5.7-2.738.493-.27 1.146-.445 1.56-.828.27-.939.318-1.942.637-2.865.19-.191.477-.287.716-.398 2.022-.828 4.028-1.672 6.05-2.5a4.359 4.359 0 0 0-.796-.111h-9.887c-.732 0-1.496-.048-2.197.063l.064-.095c3.837-.016 7.69 0 11.542 0 .51-.016 1.003 0 1.513.032.016.748-.239 1.417-.128 2.165 1.13.08 2.261.016 3.392.032.62-.016 1.273.048 1.894-.048.287-.318.35-.907.478-1.321-.08.525-.144 1.05-.35 1.544-1.624-.016-3.264 0-4.888-.016-.414 0-.796 0-1.178.191-1.545.796-3.073 1.576-4.617 2.388-.637.319-1.274.573-1.847 1.003.525.048 1.067.048 1.592.048h12.736c1.099-.032 2.436-.127 3.328-.828.94-.7 1.385-1.879 1.624-2.993.398-1.879.796-3.773 1.194-5.652.159-.844.19-1.671-.398-2.356-.144-.207-.366-.064-.542-.016-1.974.892-3.916 1.91-5.906 2.738-.812-.159-1.624-.063-2.484-.08-2.913-.015-5.842.033-8.756-.015-1.608-.191-3.375-.637-4.665-1.64.988-.62 2.086-1.035 3.12-1.544.876-.446 1.8-.796 2.66-1.306-.223-.398-.478-.764-.558-1.226-.095-.605.016-1.162.144-1.75.382-1.752.764-3.503 1.114-5.27.207-1.083.653-2.213 1.497-2.946.891-.764 2.07-.923 3.215-.939h13.055c.573 0 1.162.048 1.736-.032.461-.111.907-.366 1.337-.557 1.735-.812 3.47-1.624 5.222-2.42a4.06 4.06 0 0 0 .796-.478c-.796-.047-1.592-.015-2.404-.031h-19.582c-1.162 0-2.34-.016-3.503.031.669-.19 1.401-.08 2.07-.111z" fill="#A9B9DD"/><path d="M148.712 127.618c7.754-.032 15.714 0 23.483-.016.796-.016 1.576.111 2.372.191 1.576.287 3.025.669 4.187 1.83-.063.399-.51.478-.812.622-2.022.796-3.996 1.687-6.034 2.452-.509-.43-1.018-.812-1.655-1.02-1.051-.366-2.213-.477-3.312-.509h-10.03c-.78 0-1.544-.032-2.324.048-1.735 8.342-3.502 16.669-5.254 25.01-.063.24-.111.51-.238.733-.43.335-.988.494-1.481.748-1.417.701-2.866 1.386-4.299 2.07-.445.191-.86.414-1.257.7l-.287-.015c.175-1.401.541-2.77.812-4.14 1.417-6.814 2.866-13.58 4.283-20.378.143-1.257.605-2.42.78-3.677.414-1.529.62-3.137 1.066-4.65zm-119.418.112c.589-.144 1.257-.08 1.862-.08h10.826c.287 0 .59.048.86.143-.35.111-.685.223-1.02.366a501.87 501.87 0 0 1-5.985 2.77c-.303.16-.59.24-.653.621-1.735 8.358-3.502 16.669-5.238 25.027-.063.255-.111.446-.382.557-1.576.765-3.152 1.497-4.728 2.277-.717.366-1.465.637-2.134 1.098a2.254 2.254 0 0 0-.318.064c.175-1.465.573-2.913.844-4.362.207-1.226.605-2.388.812-3.598.477-2.102.812-4.235 1.305-6.336.494-2.197.86-4.41 1.385-6.591.749-3.55 1.497-7.085 2.245-10.635.112-.446.143-.908.319-1.322zm18.929-.017c.653-.111 1.369-.047 2.038-.063h10.507c.303 0 .573.016.86.143-.334.111-.685.223-1.003.382a361.108 361.108 0 0 1-5.604 2.675c-.366.207-.764.286-.828.78-1.417 6.702-2.818 13.405-4.235 20.107-.223 1.13-.446 2.34-1.273 3.2-1.02 1.02-2.325 1.752-3.774 1.943-1.082.127-2.165.127-3.247.143h-8.916c-.812 0-1.592.032-2.404-.048.478-.318.987-.493 1.497-.732 1.815-.844 3.646-1.624 5.46-2.484 1.401-.35 3.185.207 4.538-.398.398-.159.732-.461.891-.875.303-.78.367-1.672.573-2.5.335-1.353.605-2.706.876-4.076.637-2.865 1.258-5.747 1.879-8.628.525-2.245.987-4.522 1.48-6.782.207-.924.335-1.895.685-2.787zm30.36-.063h20.219c.716 0 1.465-.032 2.181.048l.08.127a6.225 6.225 0 0 0-1.067.43c-1.608.78-3.248 1.528-4.872 2.308-.636.287-1.162.669-1.894.653-4.824-.016-9.664 0-14.488-.016-1.178 0-2.5.239-3.375 1.099-.844.875-1.178 2.07-1.4 3.215-1.259 5.986-2.516 12.036-3.79 18.022-.08.494-.127 1.035-.016 1.529.096.35.335.684.541.987-.939.557-1.974.955-2.945 1.448-.97.43-1.894.94-2.881 1.322a4.287 4.287 0 0 1-1.274-2.595c-.175-1.162.096-2.181.334-3.296.621-3.12 1.226-6.225 1.879-9.345a38.15 38.15 0 0 0 .94-4.649c.397-1.75.668-3.645 1.225-5.413.573-1.671 1.449-3.184 2.882-4.25.939-.51 1.942-.987 2.993-1.194 1.576-.367 3.168-.462 4.728-.43zm36.792.063c1.162-.047 2.325-.031 3.503-.031h19.582c.796 0 1.592-.032 2.404.031a4.06 4.06 0 0 1-.796.478c-1.752.796-3.487 1.608-5.222 2.42-.43.191-.876.446-1.338.557-.573.08-1.162.032-1.735.032h-13.055c-1.13.016-2.308.175-3.216.94-.843.748-1.29 1.862-1.496 2.945-.35 1.75-.732 3.518-1.114 5.27-.128.588-.24 1.145-.144 1.75.08.462.319.828.557 1.226-.843.494-1.767.86-2.658 1.306-1.035.51-2.15.923-3.12 1.544-.685-.557-1.131-1.417-1.306-2.26-.112-1.02-.096-2.086.143-3.105.35-1.735.7-3.455 1.035-5.19.27-1.449.685-2.818 1.449-4.092.828-1.448 2.07-2.627 3.677-3.152.924-.382 1.895-.43 2.85-.669z" fill="#FFF"/><path d="M42.842 127.793c-.16 1.035-.462 2.054-.653 3.089-.334 1.878-.891 3.661-1.098 5.54-1.179 5.524-2.42 11.065-3.598 16.605-.096.35.175.541.493.525 1.29 0 2.611.112 3.837-.19-1.353.588-3.152.031-4.537.397-1.815.86-3.646 1.64-5.461 2.484-.51.239-1.019.398-1.497.732.796.08 1.592.032 2.404.048h8.916c1.082 0 2.18-.016 3.248-.143 1.448-.176 2.754-.908 3.773-1.943.828-.86 1.034-2.07 1.273-3.2a8989.388 8989.388 0 0 0 4.235-20.107c.064-.494.446-.573.828-.78a361.108 361.108 0 0 0 5.604-2.675c.318-.16.669-.27 1.003-.382.032.7-.207 1.274-.334 1.958-.223 1.051-.478 2.102-.669 3.152-.207 1.13-.557 2.23-.748 3.376-.86 4.107-1.783 8.199-2.659 12.306-.541 2.309-.94 4.633-1.528 6.925-.303 1.242-1.02 2.357-2.054 3.105-1.513 1.242-3.487 1.958-5.445 1.942H25.887c-1.067 0-2.118.032-3.185-.048.67-.461 1.417-.732 2.134-1.098 1.576-.78 3.152-1.512 4.728-2.277.255-.111.319-.302.382-.557 1.736-8.358 3.503-16.669 5.238-25.027.064-.382.35-.461.653-.62 2.006-.924 3.996-1.831 5.986-2.77a11.06 11.06 0 0 1 1.019-.367zm58.237.016c.063.541-.144.971-.24 1.496-.238 1.242-.525 2.484-.763 3.726-.255 1.433-.653 2.818-.844 4.267-4.378.031-8.756-.016-13.119.015l.016-.222c.462-.144.924-.303 1.37-.51a340.58 340.58 0 0 1 5.062-2.101c.255-.128.541-.176.605-.51.223-.86.382-1.735.541-2.61-1.194.509-2.308 1.161-3.47 1.735-.987.477-1.942 1.034-2.945 1.496-.367.175-.701.303-.844.716-.064-.111-.144-.238-.207-.35-1.592-.063-3.184-.016-4.76-.032-.414 0-.621.064-.7.494-.877 4.076-1.64 8.183-2.548 12.259-.287 1.815-.796 3.598-1.05 5.428-2.039 1.035-4.14 1.927-6.178 2.962.78.62 1.863.732 2.834.732 4.25-.016 8.485 0 12.736 0 .717 0 1.417.048 2.15-.064.19-.907.318-1.862.62-2.754.366-.286.876-.43 1.29-.62 1.863-.75 3.677-1.577 5.556-2.262.08.144.127.287.111.414-.525 2.548-1.082 5.079-1.592 7.642-.08.398-.095.94-.366 1.274-.414.16-.955.064-1.4.08H70.335c-.828-.016-1.671-.064-2.483-.192-1.035-.382-2.118-.827-2.946-1.576.988-.382 1.927-.875 2.882-1.321.971-.494 2.006-.892 2.945-1.449-.207-.302-.445-.637-.541-.987-.111-.493-.08-1.035.016-1.528 1.258-5.986 2.531-12.02 3.789-18.022.223-1.146.557-2.356 1.401-3.216.876-.86 2.197-1.083 3.375-1.099 4.824.016 9.664-.016 14.488.016.732.016 1.257-.35 1.894-.652 1.624-.78 3.248-1.529 4.872-2.309.334-.095.684-.239 1.05-.366zm77.691 1.815c.748.812 1.02 2.101.732 3.152-.35 1.751-.732 3.519-1.082 5.27-.127.716-.287 1.417-.637 2.07-.541 1.066-1.496 1.798-2.531 2.34a15.19 15.19 0 0 1-3.407 1.194c-.382.095-.844.159-1.162.398.19.08.382.159.573.19 1.353.176 2.865.574 3.964 1.434 1.019.748 1.433 2.165 1.114 3.375-.334 1.305-.541 2.627-.843 3.932-.287 1.274-.446 2.611-.956 3.805-.51 1.099-1.385 1.863-2.388 2.5-1.353.97-2.93 1.257-4.569 1.257-7.8.016-15.602 0-23.403 0-.7 0-1.4.032-2.101-.063.398-.287.812-.51 1.257-.7 1.433-.685 2.866-1.37 4.299-2.07.477-.24 1.05-.414 1.48-.749.128-.223.176-.493.24-.732 1.735-8.342 3.518-16.669 5.253-25.011.78-.08 1.544-.048 2.324-.048h10.03c1.115.032 2.26.143 3.312.51.636.207 1.146.605 1.655 1.019 2.038-.765 4.012-1.672 6.034-2.452.303-.144.748-.223.812-.621z" fill="#A9B9DD"/><path d="M93.692 131.375c-.16.876-.319 1.751-.542 2.611-.063.318-.35.366-.605.51a340.58 340.58 0 0 0-5.062 2.101c-.446.191-.908.35-1.37.51.016-.606.176-1.179.303-1.768.16-.414.478-.541.844-.716 1.003-.462 1.958-1.019 2.945-1.497 1.178-.589 2.308-1.241 3.487-1.75zm39.816-.015c-.08.859-.222 1.75-.382 2.594-.047.303-.238.366-.477.478-2.15.875-4.315 1.783-6.464 2.674h-.127c.08-.605.19-1.178.318-1.767.096-.223.175-.414.414-.51 1.688-.843 3.343-1.75 5.03-2.626.574-.287 1.083-.605 1.688-.844zm38.464 1.639c.446.59.541 1.465.398 2.181-.239 1.242-.525 2.468-.764 3.71-.175.891-.318 1.719-.876 2.467-.748 1.003-2.101 1.624-3.263 1.99-1.29.382-2.675.749-4.044.717-3.71-.016-7.419.016-11.128-.016.302-.16.605-.319.907-.462 2.165-.971 4.314-2.022 6.511-2.961 1.258.08 2.452.08 3.63-.414a2.867 2.867 0 0 0 1.736-2.117c.127-.765.51-1.608.095-2.34.287-.192.59-.351.892-.478 1.783-.7 3.534-1.465 5.301-2.181.207-.064.43-.16.605-.096z" fill="#FFF"/><path d="M161.226 134.814c.923-.127 1.91.032 2.834.191.477.08.843.366 1.146.732.414.733.032 1.56-.096 2.34a2.867 2.867 0 0 1-1.735 2.118c-1.178.494-2.388.51-3.63.414-.063-.748.16-1.417.319-2.133.223-.972.398-1.943.605-2.914.047-.334.19-.668.557-.748z" fill="#FCB714"/><path d="M161.879 136.247c.668-.144 1.417-.048 2.101 0 .127.907-.111 2.229-.987 2.722-.493.287-1.114.27-1.672.239-.063-.541.096-1.003.191-1.512.096-.478.176-1.003.367-1.45z" fill="#0160AB"/><path d="M119.705 140.402c2.484-.064 4.968 0 7.451-.016 1.64 0 3.248-.032 4.888.16 1.21.27 2.674.652 3.566 1.575-1.497.621-2.93 1.37-4.394 2.038-.478.207-.971.541-1.48.637-.367-.127-.701-.35-1.067-.462-.971-.286-1.943-.238-2.946-.238h-9.393c-.955 0-1.894-.16-2.706-.685.382-.35.955-.541 1.433-.78 1.528-.748 3.12-1.433 4.648-2.229z" fill="#FFF"/><path d="M43.733 141.707c-.652 3.2-1.385 6.385-2.053 9.569-.096.43-.128.796-.605.955a7.736 7.736 0 0 1-2.102.095c.191-1.13.478-2.228.732-3.359.064 1.13-.525 2.118-.461 3.232.637.064 1.449.08 2.022-.255.27-.366.35-.907.461-1.337.367-1.847.812-3.662 1.178-5.508.303-1.099.35-2.325.828-3.392z" fill="#1D105F"/><path d="M129.879 145.162c.589.685.54 1.513.398 2.356-.398 1.879-.796 3.774-1.194 5.652-.24 1.115-.7 2.277-1.624 2.993-.892.7-2.245.796-3.328.828h-12.736c-.525 0-1.067 0-1.592-.048.573-.43 1.21-.668 1.847-1.003 1.544-.796 3.088-1.576 4.617-2.388.382-.19.764-.19 1.178-.19 1.624.015 3.263 0 4.887.015.207-.493.271-1.019.35-1.544.255-1.322.558-2.643.749-3.964 2.006-.828 3.932-1.847 5.906-2.739.175-.031.398-.175.542.032zm39.912 1.162c.255.59.207 1.178.08 1.783-.335 1.497-.621 2.993-.94 4.49-.127.62-.302 1.194-.636 1.735-.494.828-1.401 1.45-2.23 1.91-1.337.717-3.04.733-4.52.749-3.392.016-6.799 0-10.19 0-.541 0-1.082 0-1.624-.048.335-.302.749-.43 1.163-.62 1.592-.685 3.152-1.433 4.744-2.102.382-.143.716-.35 1.035-.59 1.226 0 2.515.112 3.725-.095.637-.095 1.305-.541 1.497-1.178.27-.891.398-1.815.636-2.706.112-.653.637-.685 1.147-.924 1.799-.732 3.614-1.464 5.413-2.228.222-.064.445-.144.7-.176z" fill="#FFF"/><path d="M158.074 147.757c.636-.159 1.369-.063 2.037-.08.78.048 1.592-.031 2.15.606.43.398.302.86.254 1.385-.238.891-.366 1.83-.636 2.706-.191.653-.86 1.083-1.497 1.178-1.21.207-2.5.096-3.725.096.207-1.338.541-2.659.812-3.98.159-.621.254-1.37.605-1.91z" fill="#FCB714"/><path d="M108.386 148.362c1.497.51 3.009.828 4.601.844 2.961 0 5.907-.016 8.868 0-.128.923-.335 1.815-.542 2.722-1.066.048-2.133.016-3.2.032.08-.557.223-1.13.191-1.703.128.461.016 1.003.064 1.48.955.064 1.942.096 2.898-.032.063-.811.477-1.607.35-2.404-3.089-.063-6.177 0-9.266-.031-1.05-.048-2.101-.271-3.104-.542-.335-.047-.605-.19-.86-.366z" fill="#1D105F"/><path d="M159.029 149.11c.684-.08 1.4-.031 2.101 0 .096.717-.159 1.274-.238 1.975-.112.461.015.875-.494 1.098-.605.191-1.321.112-1.942.08-.048-.59.127-1.083.239-1.656.095-.494.175-1.019.334-1.497z" fill="#0160AB"/><path d="M102.814 150.018c5.19.048 10.396 0 15.586.016-.51.127-1.083.048-1.608.064-4.649.015-9.282-.016-13.93.015l-.048-.095zm-.175.43c-.096.828-.303 1.624-.462 2.436-.493 2.515-1.035 5.015-1.544 7.546-.112.493-.239.987-.255 1.496.59.064 1.178.064 1.767.048h12.577c3.184-.064 6.369-.016 9.553-.032.955 0 1.894.032 2.85-.047-.51.222-1.035.127-1.577.143-8.23-.016-16.446.032-24.676.016-.191 0-.398-.016-.59-.016 0-.51.08-.971.208-1.465.573-2.786 1.13-5.572 1.703-8.358.127-.621.207-1.194.446-1.767z" fill="#1D105F"/><path d="M83.248 151.069c.493-.112 1.035-.048 1.544-.064h9.711c.558 0 1.13-.064 1.656.111-1.878.685-3.693 1.529-5.556 2.261-.43.191-.923.334-1.29.621-.302.876-.413 1.83-.62 2.754-.717.112-1.417.048-2.15.064H73.807c-.955-.016-2.054-.127-2.834-.732 2.038-1.035 4.14-1.927 6.177-2.962 1.847-.047 3.694 0 5.54-.016.335-.62.192-1.496.558-2.037zm20.68.016c.717-.112 1.481-.064 2.197-.064h9.887c.27 0 .525.048.796.111-2.022.828-4.028 1.672-6.05 2.5-.239.111-.541.207-.716.398-.319.923-.366 1.942-.637 2.866-.414.382-1.05.557-1.56.827-1.895.924-3.837 1.752-5.7 2.739h-.143c.048-.749.239-1.45.382-2.181.462-2.197.908-4.394 1.353-6.591.048-.207.096-.414.191-.605z" fill="#FFF"/><path d="M95.506 161.656l-.095.207c-.716.047-1.465.016-2.181.016H72.533c-1.13 0-2.244.031-3.375-.064 8.231.032 16.478 0 24.709.016.573 0 1.114.032 1.64-.175z" fill="#A9B9DD"/><path d="M140.243 161.91c.78.08 1.56.048 2.356.048h22.13c.97 0 1.942.016 2.913-.032-.653.144-1.29.08-1.958.08-8.486 0-16.956 0-25.425.016l-.016-.112z" fill="#231F20"/><path d="M69.715 166.273c7.96-.032 16.016 0 23.992-.016.446-.016.892-.048 1.322.111H69.572l.143-.095z" fill="#0160AB"/></g></svg>