<svg width="200" height="200" xmlns="http://www.w3.org/2000/svg"><g fill-rule="nonzero" fill="none"><path d="m196.087 123.648-79.95-5.145a.899.899 0 0 0-.823.428.9.9 0 0 0-.003.927l10.065 16.749-26.744 16.07c-4.196-5.376-8.902-10.933-14.004-16.536l66.82-64.562 12.971 12.97a.895.895 0 0 0 1.468-.313l30.959-80.615c.254-.66-.497-1.41-1.157-1.157l-80.616 30.96a.897.897 0 0 0-.31 1.468l12.968 12.97-64.57 66.811c-5.59-5.087-11.144-9.79-16.527-13.995l16.07-26.743 16.749 10.063a.895.895 0 0 0 1.353-.825l-5.144-79.95a.896.896 0 0 0-1.66-.403L40.07 59.291a.767.767 0 0 0-.107.352L9.6 110.173a.896.896 0 0 0 .348 1.253c8.66 4.587 20.844 13.696 32.718 24.45L1.695 178.27l19.327 19.328 42.4-40.967c10.76 11.876 19.873 24.065 24.463 32.73.114.22.314.379.552.443.236.066.49.031.7-.095l50.503-30.344a.896.896 0 0 0 .378-.124l56.472-33.931a.896.896 0 0 0-.403-1.662" fill="#FBCB07"/><path d="m79.114 83.283.001.005v-.005Zm86.499.062.006.005-.006-.005Zm-154.878 26.58.007.003-.007-.004Zm105.293 10.269.005.002-.005-.002Zm79.948 5.144h.003-.003Zm-56.493 32.338-.002.001h.002Zm-51.219 30.58-.005.003.005-.003Zm1.112.3.006.011-.006-.012ZM4.07 178.25l16.971 16.971 41.202-39.81c.33-.318.778-.513 1.234-.474a1.69 1.69 0 0 1 1.2.556c10.529 11.62 19.549 23.63 24.304 32.332l49.784-29.913c.158-.095.331-.164.51-.202l54.148-32.536-75.873-4.882 9.278 15.442c.48.802.221 1.843-.58 2.326l-26.744 16.07a1.69 1.69 0 0 1-2.208-.41c-4.167-5.336-8.851-10.868-13.923-16.438a1.698 1.698 0 0 1 .076-2.361l66.822-64.561a1.692 1.692 0 0 1 2.375.02l12.1 12.1L194.62 4.69 116.83 34.566l12.099 12.098c.653.654.662 1.711.019 2.376l-64.57 66.813a1.696 1.696 0 0 1-2.36.075c-5.554-5.056-11.082-9.738-16.429-13.914a1.694 1.694 0 0 1-.409-2.208l16.07-26.744a1.69 1.69 0 0 1 1.042-.771c.437-.11.897-.04 1.283.192l15.44 9.277-4.88-75.87L41.62 60.002a1.685 1.685 0 0 1-.204.514l-29.931 49.812c8.703 4.757 20.702 13.77 32.32 24.293a1.7 1.7 0 0 1 .08 2.435L4.071 178.25Zm16.95 21.042c-.433 0-.867-.165-1.197-.496L.497 179.469a1.696 1.696 0 0 1-.02-2.378l39.75-41.13c-11.343-10.138-22.872-18.694-31.072-23.038a2.584 2.584 0 0 1-1.284-1.6 2.602 2.602 0 0 1 .272-2.014l30.214-50.284c.06-.212.146-.415.257-.603L72.55 1.948a2.59 2.59 0 0 1 4.804 1.167l5.143 79.95c.065.96-.409 1.875-1.237 2.379a2.582 2.582 0 0 1-2.677.009l-15.3-9.194-14.426 24.01a291.7 291.7 0 0 1 14.225 12.046l62.272-64.434-11.79-11.79a2.586 2.586 0 0 1 .9-4.247L195.082.88c.92-.353 1.993-.114 2.727.62.732.732.975 1.803.618 2.728l-30.958 80.614a2.59 2.59 0 0 1-4.252.898l-11.789-11.788-64.443 62.265c4.338 4.814 8.384 9.59 12.056 14.235l24.01-14.428-9.192-15.295a2.585 2.585 0 0 1 .007-2.68 2.598 2.598 0 0 1 2.385-1.238l79.945 5.144a2.584 2.584 0 0 1 2.35 1.966 2.582 2.582 0 0 1-1.18 2.837l-56.475 33.932a2.676 2.676 0 0 1-.62.27l-50.261 30.2a2.572 2.572 0 0 1-2.03.273 2.568 2.568 0 0 1-1.6-1.294c-4.34-8.194-12.9-19.726-23.043-31.072l-41.138 39.748a1.698 1.698 0 0 1-1.177.475Z" fill="#FFF"/><path fill="#FFF" d="m184.554 21.788-26.338 47.73 4.944 4.944zM175.972 131.959 88.487 175.32l3.262 5.428zM72.905 31.59l2.065 43.877-5.345-3.212z"/><path d="m196.087 123.648-79.95-5.145a.899.899 0 0 0-.823.428.9.9 0 0 0-.003.927l10.065 16.749-26.744 16.07c-4.196-5.376-8.902-10.933-14.004-16.536l66.82-64.562 12.971 12.97a.895.895 0 0 0 1.468-.313l30.959-80.615c.254-.66-.497-1.41-1.157-1.157l-80.616 30.96a.897.897 0 0 0-.31 1.468l12.968 12.97-64.57 66.811c-5.59-5.087-11.144-9.79-16.527-13.995l16.07-26.743 16.749 10.063a.895.895 0 0 0 1.353-.825l-5.144-79.95a.896.896 0 0 0-1.66-.403L40.07 59.291a.767.767 0 0 0-.107.352L9.6 110.173a.896.896 0 0 0 .348 1.253c8.66 4.587 20.844 13.696 32.718 24.45L1.695 178.27l19.327 19.328 42.4-40.967c10.76 11.876 19.873 24.065 24.463 32.73.114.22.314.379.552.443.236.066.49.031.7-.095l50.503-30.344a.896.896 0 0 0 .378-.124l56.472-33.931a.896.896 0 0 0-.403-1.662" fill="#192847"/><path d="m79.114 83.283.001.005v-.005Zm86.499.062.006.005-.006-.005Zm-154.878 26.58.007.003-.007-.004Zm105.293 10.269.005.002-.005-.002Zm79.948 5.144h.003-.003Zm-56.493 32.338-.002.001h.002Zm-51.219 30.58-.005.003.005-.003Zm1.112.3.006.011-.006-.012ZM4.07 178.25l16.971 16.971 41.202-39.81c.33-.318.778-.513 1.234-.474a1.69 1.69 0 0 1 1.2.556c10.529 11.62 19.549 23.63 24.304 32.332l49.784-29.913c.158-.095.331-.164.51-.202l54.148-32.536-75.873-4.882 9.278 15.442c.48.802.221 1.843-.58 2.326l-26.744 16.07a1.69 1.69 0 0 1-2.208-.41c-4.167-5.336-8.851-10.868-13.923-16.438a1.698 1.698 0 0 1 .076-2.361l66.822-64.561a1.692 1.692 0 0 1 2.375.02l12.1 12.1L194.62 4.69 116.83 34.566l12.099 12.098c.653.654.662 1.711.019 2.376l-64.57 66.813a1.696 1.696 0 0 1-2.36.075c-5.554-5.056-11.082-9.738-16.429-13.914a1.694 1.694 0 0 1-.409-2.208l16.07-26.744a1.69 1.69 0 0 1 1.042-.771c.437-.11.897-.04 1.283.192l15.44 9.277-4.88-75.87L41.62 60.002a1.685 1.685 0 0 1-.204.514l-29.931 49.812c8.703 4.757 20.702 13.77 32.32 24.293a1.7 1.7 0 0 1 .08 2.435L4.071 178.25Zm16.95 21.042c-.433 0-.867-.165-1.197-.496L.497 179.469a1.696 1.696 0 0 1-.02-2.378l39.75-41.13c-11.343-10.138-22.872-18.694-31.072-23.038a2.584 2.584 0 0 1-1.284-1.6 2.602 2.602 0 0 1 .272-2.014l30.214-50.284c.06-.212.146-.415.257-.603L72.55 1.948a2.59 2.59 0 0 1 4.804 1.167l5.143 79.95c.065.96-.409 1.875-1.237 2.379a2.582 2.582 0 0 1-2.677.009l-15.3-9.194-14.426 24.01a291.7 291.7 0 0 1 14.225 12.046l62.272-64.434-11.79-11.79a2.586 2.586 0 0 1 .9-4.247L195.082.88c.92-.353 1.993-.114 2.727.62.732.732.975 1.803.618 2.728l-30.958 80.614a2.59 2.59 0 0 1-4.252.898l-11.789-11.788-64.443 62.265c4.338 4.814 8.384 9.59 12.056 14.235l24.01-14.428-9.192-15.295a2.585 2.585 0 0 1 .007-2.68 2.598 2.598 0 0 1 2.385-1.238l79.945 5.144a2.584 2.584 0 0 1 2.35 1.966 2.582 2.582 0 0 1-1.18 2.837l-56.475 33.932a2.676 2.676 0 0 1-.62.27l-50.261 30.2a2.572 2.572 0 0 1-2.03.273 2.568 2.568 0 0 1-1.6-1.294c-4.34-8.194-12.9-19.726-23.043-31.072l-41.138 39.748a1.698 1.698 0 0 1-1.177.475Z" fill="#FBCB07"/><path fill="#FBCB07" d="m184.554 21.788-26.338 47.73 4.944 4.944zM175.972 131.959 88.487 175.32l3.262 5.428zM72.905 31.59l2.065 43.877-5.345-3.212z"/></g></svg>