<svg width="200" height="200" xmlns="http://www.w3.org/2000/svg"><g fill-rule="nonzero" fill="none"><path d="M94.268 34.127c1.241-.031 2.467.032 3.693-.047a46.827 46.827 0 0 1 3.343.031c2.818-.015 5.62.08 8.438.287 2.452.096 4.888.334 7.324.573 6.368.7 12.927 1.767 19.025 3.741 2.642.892 5.38 2.006 7.625 3.694.987.78 1.959 1.735 2.58 2.834.509.907.78 1.926.827 2.961.064 2.26-.047 4.537.048 6.798.27.048.541.096.812.16 6.83 1.114 13.644 2.515 20.315 4.377 6.336 1.767 12.736 3.98 18.53 7.1 2.962 1.625 5.955 3.567 8.311 6.019 1.72 1.72 3.137 3.868 3.805 6.209.24.764.303 1.528.446 2.356v1.465c-.16.732-.207 1.448-.43 2.165-.7 2.515-2.245 4.776-4.107 6.575-1.465 1.512-3.216 2.802-4.967 3.948-4.984 3.2-10.747 5.493-16.367 7.34-7.96 2.563-16.254 4.393-24.501 5.779-.605.095-1.194.207-1.8.27.112 3.98-.318 7.929-1.623 11.718-.191.62-.478 1.114-.478 1.75-.222.017-.43-.015-.652-.015-.605-.032-1.115.191-1.704-.048-.063-.891.462-1.751.637-2.627.462-1.369.653-2.754.923-4.155.16-1.926.494-3.757.319-5.715-.032-.24-.207-.462-.35-.653-.605.095-1.322.111-1.895.35-.127.27.032.669.032.971.064.956.255 1.879.207 2.818-.032.971.064 1.91-.112 2.882-.175.971-.175 1.942-.43 2.913-.222 1.083-.525 2.118-.795 3.184-.765.112-1.497.048-2.261.064h-22.289c-1.592.016-3.263 0-4.808.35-1.433.223-2.85.796-4.139 1.433a2.295 2.295 0 0 1-.637.207c-.095-.653.191-1.242.16-1.91a20.813 20.813 0 0 0-1.736-.064H77.09c-1.592 0-3.264-.016-4.84.302-1.194.24-2.452.51-3.55 1.051-.335.16-.637.334-1.035.27.016-.525.143-1.05.143-1.591a1.71 1.71 0 0 0-.637-.08c-3.057.048-6.13.032-9.186.032-.239-.016-.716 0-.812-.287-.764-2.34-1.114-4.744-1.305-7.196.016-.843-.032-1.703.016-2.547.111-.891.175-1.783.27-2.69.048-.287-.19-.24-.398-.319a13.523 13.523 0 0 0-1.608-.255.45.45 0 0 0-.541.43 17.406 17.406 0 0 0 .111 3.153c.048 2.324.478 4.616 1.115 6.861.207.924.637 1.767.812 2.707-.637.318-1.513.111-2.213.063-1.529-3.868-2.26-8.023-2.245-12.163.016-.398.064-.86-.048-1.242-.62-.047-1.226-.159-1.83-.27-8.693-1.465-17.306-3.391-25.68-6.193-4.904-1.672-9.855-3.694-14.265-6.4-1.608-1.003-3.184-2.102-4.617-3.36-1.687-1.512-3.184-3.12-4.235-5.158-.939-1.75-1.464-3.725-1.385-5.715.032-3.025 1.433-5.78 3.36-8.04 2.69-3.12 6.256-5.413 9.87-7.323 5-2.595 10.428-4.554 15.825-6.146 5.97-1.75 12.068-3.136 18.181-4.234 1.64-.319 3.28-.542 4.92-.844.095-2.213 0-4.442.047-6.67.064-1.163.319-2.293.956-3.296.987-1.624 2.642-2.914 4.282-3.837 3.057-1.735 6.48-2.786 9.855-3.662 4.171-1.066 8.406-1.767 12.657-2.292 3.295-.398 6.59-.7 9.902-.86 1.8-.191 3.55-.223 5.286-.287Z" fill="#231F20"/><path d="M97.659 37.009c.541-.08 1.003.08 1.544.08.573 0 1.146-.016 1.72.015 2.037.112 4.123-.111 6.145.176.78.063 1.544-.048 2.324.095.796.143 1.592 0 2.388.16.748.127 1.48.031 2.229.159.828.143 1.64.031 2.468.238.891.24 1.815.08 2.706.319 1.592.286 3.232.382 4.824.732 1.019.16 2.038.35 3.057.494 1.305.35 2.658.557 3.948.955.891.223 1.783.398 2.659.7 1.385.51 2.786.828 4.123 1.45 1.385.636 2.913 1.305 4.076 2.292.51.398 1.066.764 1.432 1.305.367.605.765 1.099.749 1.847v18.468c-.016.652-.016 1.305.063 1.974.048.398-.095.732-.175 1.13-.111.478-.032 1.035-.047 1.528.015.7-.414 1.401-.796 1.959-.398.382-.844.78-1.274 1.13-.876.525-1.672 1.21-2.627 1.544-.987.112-2.022-.016-3.009.048-2.197.382-4.123 1.465-5.779 2.93-2.07.557-4.41.939-6.527 1.305-.462.095-.892.223-1.37.239-.97.047-1.783-.494-2.786-.605-1.066-.096-2.18-.112-3.231.127-1.322.223-2.595.86-3.758 1.48-.955.399-2.197.144-3.216.319-1.162.223-2.308-.016-3.47.175-.605.096-1.162.096-1.751-.048-.972-.175-1.815-.7-2.802-.86-2.134-.572-4.299-.238-6.32.558-.51.175-.924.477-1.466.398-1.273-.143-2.563-.048-3.836-.143-1.306-.271-2.914.08-4.203-.446-1.051-.605-2.197-1.035-3.375-1.37-.94-.27-1.831-.222-2.802-.222-.908.016-1.863.334-2.723.573-.732.207-1.576-.032-2.308-.16-1.974-.365-4.012-.668-5.955-1.225-.748-.207-1.241-.748-1.862-1.194-1.306-.987-2.786-1.433-4.362-1.783-.987-.096-2.006.063-2.993-.064-.765-.287-1.465-.764-2.15-1.226-.78-.493-1.369-1.162-2.053-1.783-.765-.907-.494-1.847-.59-2.913-.08-.446-.254-.796-.27-1.258.016-6.798 0-13.596 0-20.394-.016-.748.334-1.337.7-1.958.398-.621 1.035-1.099 1.592-1.56 1.003-.812 2.102-1.258 3.232-1.847 2.165-1.083 4.538-1.672 6.846-2.356 1.242-.35 2.484-.621 3.741-.876.987-.207 1.974-.112 2.946-.446 1.815-.27 3.645-.589 5.476-.78.669-.127 1.306-.287 1.99-.255.924.048 1.767-.334 2.707-.318.812.016 1.592-.207 2.388-.175.748.016 1.464-.207 2.229-.16.86.032 1.687-.222 2.547-.159 1.13.08 2.213-.207 3.343-.159 1.274-.08 2.484.048 3.694-.159Z" fill="#1D105F"/><path d="M95.923 40.925c2.006-.047 4.028 0 6.034-.031a9.62 9.62 0 0 1 1.513.063c1.703.207 3.47-.048 5.174.239.716.08 1.433-.032 2.149.08.557.08 1.114.095 1.672.127 1.257.127 2.515.255 3.773.334.764.08 1.512.271 2.276.271.956-.016 1.831.302 2.786.382 1.003.191 1.99.191 2.962.494 1.448.159 2.881.493 4.298.827 1.194.255 2.388.51 3.55.908 1.035.35 2.086.62 3.089 1.035 1.13.493 2.277.748 3.28 1.48.54.414 1.417.59 1.321 1.433-.812.462-1.576 1.05-2.42 1.401-2.42 1.083-4.983 1.895-7.562 2.484-.59.159-1.13.334-1.767.27.812-.43 1.735-.62 2.563-1.034.669-.335 1.4-.446 2.07-.78.891-.446 1.799-.828 2.69-1.29.239-.112.382-.27.526-.494-.685-.445-1.433-.7-2.198-.923-2.372-.844-4.792-1.592-7.275-2.101-1.831-.414-3.662-.844-5.54-1.035-2.102-.398-4.251-.669-6.385-.892-1.703-.111-3.359-.382-5.062-.398-1.02-.19-2.038-.064-3.057-.239-1.512-.143-3.073.016-4.585-.08-1.258-.206-2.563-.127-3.853-.11-2.006.334-4.107-.017-6.145.238-.732.08-1.465.032-2.197.16-.78.127-1.528 0-2.308.095-1.226.127-2.436.318-3.662.318-2.022.319-4.06.51-6.066.908-2.324.254-4.537.86-6.814 1.321-1.592.382-3.12.94-4.696 1.37-1.226.493-2.404.684-3.47 1.384.222.462.843.573 1.273.844.796.51 1.671.764 2.531 1.146 1.337.573 2.738.987 4.06 1.592-.796.096-1.433-.222-2.181-.366-2.086-.493-4.14-1.114-6.13-1.958-.939-.334-1.75-.876-2.627-1.353-.334-.191-.716-.414-.939-.748.112-.255.334-.446.541-.621 1.656-1.178 3.44-1.736 5.318-2.452 1.687-.557 3.39-.971 5.094-1.417 3.232-.764 6.448-1.242 9.712-1.72.668-.079 1.337-.079 2.006-.19 1.194-.223 2.42-.176 3.63-.398.843-.16 1.703-.064 2.547-.16 1.019-.175 2.038-.032 3.057-.239 1.83-.095 3.63.032 5.444-.175Z" fill="#231F20"/><path d="M57.094 51.385c.589.414.97.94 1.512 1.433 1.496 1.337 3.152 2.483 4.999 3.28.764.366 1.576.589 2.34.923-1.735.08-3.502-.16-5.222-.446-1.034-.16-2.006-.525-3.024-.748.493.637 1.082 1.098 1.687 1.608 1.528 1.273 3.28 2.26 5.126 2.993.478.175.972.318 1.433.557-.939.016-1.926.064-2.85-.111-.955-.16-1.926-.24-2.865-.462-.812-.16-1.592-.462-2.404-.621.302.573.764.908 1.242 1.306 1.624 1.385 3.486 2.53 5.476 3.28.382.142.796.238 1.115.493-1.576.111-3.2-.144-4.76-.382-1.099-.176-2.15-.558-3.216-.844.159.255.318.477.525.684 1.958 1.879 4.33 3.375 6.893 4.251.24.096.478.223.701.35-1.863 0-3.741-.223-5.572-.573-.828-.143-1.592-.461-2.404-.62.111.159.207.318.334.461a19.206 19.206 0 0 0 5.62 3.79c.621.302 1.29.445 1.879.78-.908.127-1.8.031-2.707-.08-1.862-.191-3.852-.526-5.572-1.306-.382-.16-.27-.478-.302-.812.016-6.05 0-12.1 0-18.15a7.559 7.559 0 0 1 .016-1.034Z" fill="#0160AB"/><path d="M140.978 51.895c.27.286.191.684.207 1.05-.016.685.016 1.385-.016 2.07-.032.223 0 .525-.27.589-1.433.35-2.77.796-4.235 1.019-.94.08-1.8.318-2.755.127.16-.175.398-.302.605-.414 1.545-.605 2.962-1.576 4.315-2.515.828-.525 1.369-1.337 2.15-1.926Z" fill="#231F20"/><path d="M68.063 54.728c2.292.287 4.585.749 6.877 1.02 3.28.397 6.575.732 9.87.954 1.195.144 2.405.08 3.599.207.907.096 1.799.112 2.706.128.908.016 1.8.159 2.707.127 3.614.048 7.212.064 10.826 0 .7.016 1.385-.032 2.07-.095 6.177-.223 12.37-.717 18.499-1.56 1.576-.208 3.152-.574 4.744-.637-1.624.589-3.375.875-5.047 1.273-8.58 1.704-17.416 2.325-26.14 2.261a137.001 137.001 0 0 1-18.946-1.21c-3.662-.51-7.34-1.162-10.89-2.165-.302-.064-.605-.143-.875-.303Z" fill="#0160AB"/><path d="M140.978 55.875c.27.286.191.684.207 1.05-.032.828.064 1.704-.08 2.516-.764.175-1.448.541-2.228.7-1.258.27-2.532.494-3.821.637a5.28 5.28 0 0 1-1.003-.016c.175-.334.557-.477.875-.637 1.529-.716 3.025-1.56 4.299-2.69.637-.462 1.13-1.067 1.751-1.56Z" fill="#231F20"/><path d="M52.859 57.77c.063.318.08.588.032.907-.096.827-.016 1.64-.048 2.467-1.338.207-2.675.35-3.996.605-1.72.398-3.487.605-5.206 1.003-2.165.478-4.33 1.003-6.48 1.465-.668.207-1.369.302-2.022.525-.812.303-1.671.398-2.515.669-1.783.541-3.598.971-5.333 1.656-1.051.318-2.086.7-3.137 1.034-1.671.685-3.327 1.226-4.935 2.054-1.863.812-3.63 1.751-5.413 2.723-1.242.796-2.5 1.64-3.63 2.595-.589.636-1.64 1.29-1.878 2.149.509-.255.843-.653 1.32-.955.383-.255.797-.478 1.163-.765.669-.54 1.465-.827 2.15-1.32 1.32-.59 2.547-1.354 3.884-1.88.955-.509 1.974-.827 2.945-1.305 1.497-.478 2.93-1.13 4.41-1.64 1.592-.477 3.152-1.05 4.76-1.449 1.02-.35 2.07-.557 3.089-.891 5.683-1.465 11.415-2.707 17.21-3.646 1.194-.255 2.388-.51 3.614-.446-.016 1.927.032 3.853-.016 5.764-1.306.78-1.879 1.974-2.627 3.231-.525 1.051-.462 2.245-.43 3.376.032 1.607.78 3.152 1.783 4.362.335.398.86.684 1.13 1.114.208.796.112 1.624.446 2.42.367.987 1.051 1.751 1.783 2.484.558.461 1.179.843 1.752 1.273 1.337.924 2.818 1.417 4.266 2.086.733.318 1.513.493 2.261.764 1.337.478 2.707.812 4.076 1.162 1.146.175 2.229.59 3.375.764.493.08.97.175 1.464.287 1.13.27 2.277.334 3.423.557 1.481.303 2.977.334 4.458.621.971.223 1.942.143 2.913.27 1.608.192 3.232.32 4.856.415 1.385.238 2.739.016 4.124.19.636.08 1.29.096 1.942.08 2.07 0 4.14.016 6.209 0 1.13.08 2.388.255 3.502.048.956-.111 1.927.016 2.882-.127 1.274-.175 2.563.032 3.82-.175.685-.08 1.37-.064 2.055-.16.668-.095 1.337 0 2.021-.095 1.242-.16 2.5-.223 3.742-.366 1.576-.335 3.184-.303 4.76-.669 1.433-.239 2.913-.382 4.314-.764.796-.207 1.608-.255 2.404-.478 1.147-.318 2.309-.51 3.455-.844 1.035-.238 2.006-.636 3.025-.955 2.436-.86 5.079-1.91 7.1-3.534.494-.382.812-.86 1.21-1.337.59-.733 1.163-1.529 1.306-2.484.095-.494.048-1.067.239-1.544.159-.223.398-.382.589-.558 1.417-1.337 2.292-3.2 2.292-5.158.207-1.735-.334-3.439-1.337-4.855-.446-.637-1.099-1.02-1.56-1.608-.191-.223-.144-.574-.16-.844a154.11 154.11 0 0 0 0-3.837c.032-.302-.047-.605.255-.796.987 0 2.006.366 2.993.446 1.02.095 1.99.35 2.993.493 2.086.414 4.171.733 6.241 1.258 1.417.223 2.786.62 4.187.907.971.255 1.942.526 2.93.733 1.687.541 3.422.844 5.094 1.433.637.223 1.29.445 1.942.605 1.067.254 2.022.78 3.089 1.05 1.433.494 2.85 1.02 4.235 1.64 1.082.366 2.085.892 3.136 1.337 2.69 1.401 5.254 2.707 7.578 4.697.27.239.526.414.86.525-.669-1.273-1.735-2.404-2.866-3.295-.684-.669-1.496-1.13-2.292-1.688-.526-.35-1.147-.541-1.688-.875a22.784 22.784 0 0 0-2.834-1.481c-1.83-.987-3.805-1.767-5.715-2.563-1.242-.398-2.404-.94-3.646-1.306-2.101-.796-4.267-1.305-6.384-2.053-2.213-.542-4.521-1.13-6.766-1.672-1.99-.366-3.932-.971-5.938-1.242-1.481-.254-2.946-.637-4.442-.828-.605-.095-1.178-.254-1.8-.286-.318-.032-.748 0-1.034-.175-.239-.144-.16-.335-.191-.558 0-.86.08-1.687-.112-2.547.16-.127.287-.255.51-.223 1.082.096 2.117.35 3.184.478 2.356.43 4.728.844 7.085 1.337 2.308.398 4.585 1.051 6.861 1.576 1.035.319 2.118.462 3.152.812.94.191 1.8.573 2.739.796.94.223 1.783.653 2.706.924.478.143.94.302 1.385.493 1.258.542 2.58.892 3.821 1.433 1.02.446 2.086.748 3.057 1.258 1.226.668 2.579 1.05 3.789 1.783.796.493 1.656.86 2.452 1.369 2.515 1.56 5.206 3.391 7.037 5.731.748.876 1.225 1.863 1.735 2.882.462 1.114.684 2.34.7 3.55-.111 1.003-.334 2.038-.7 2.977-.812 1.576-1.783 3.041-3.057 4.299-.94.971-1.99 1.656-3.057 2.531-1.432 1.05-2.977 1.958-4.553 2.786-.844.51-1.799.812-2.643 1.338-1.417.589-2.77 1.369-4.25 1.814-1.465.59-2.962 1.099-4.458 1.593a93.73 93.73 0 0 1-7.467 2.26c-1.464.319-2.85.86-4.33 1.099-1.194.286-2.388.557-3.582.828-1.13.159-2.213.477-3.343.652-1.115.144-2.197.494-3.312.669-1.226.143-2.452.446-3.662.62-.907.065-1.767.351-2.674.399-1.767.207-3.503.541-5.27.78-2.07.207-4.155.446-6.225.732-1.544.096-3.072.35-4.6.382-.749.032-1.481.24-2.23.287-.557.032-1.098 0-1.655.095-.733.128-1.465.048-2.197.176-.86.159-1.72-.016-2.58.159-.795.143-1.591.016-2.387.143-.67.112-1.338.096-2.022.08-.7-.016-1.37.159-2.07.175-1.067.016-2.15-.064-3.216.08-.414.047-.828.079-1.242.079-6.527 0-13.054.016-19.582-.016-.796.016-1.592-.143-2.388-.16-.796-.015-1.56.065-2.372-.063-1.274-.223-2.547.016-3.82-.175-.845-.143-1.688-.016-2.516-.16-.542-.095-1.099-.079-1.64-.079-1.497-.095-2.977-.302-4.458-.334-1.082-.08-2.101-.334-3.184-.303-1.035.016-1.99-.286-3.025-.318a9.201 9.201 0 0 1-1.608-.175c-.891-.175-1.799-.16-2.69-.35-.796-.16-1.624-.096-2.42-.27-.828-.192-1.688-.16-2.516-.367-.7-.16-1.4-.127-2.101-.287-.557-.127-1.13-.159-1.704-.238-1.974-.35-3.98-.685-5.954-1.035-.844-.175-1.64-.414-2.5-.51-.636-.063-1.257-.223-1.878-.366a191.787 191.787 0 0 1-7.276-1.64c-.891-.207-1.735-.541-2.642-.7-1.752-.43-3.471-1.02-5.206-1.513-.987-.35-1.974-.7-2.977-.987-2.102-.7-4.156-1.544-6.193-2.404-1.45-.716-2.994-1.305-4.379-2.149-2.053-1.035-3.996-2.356-5.795-3.757A34.47 34.47 0 0 0 6.5 89.419c-1.497-1.576-2.962-3.487-3.471-5.636-.287-.907-.175-1.751-.191-2.706-.016-.908.382-1.847.7-2.69.35-.686.764-1.354 1.163-2.039.684-.796 1.337-1.624 2.117-2.34.923-.987 2.038-1.672 3.073-2.5.636-.493 1.385-.827 2.053-1.29 1.322-.859 2.739-1.512 4.14-2.244 2.34-1.067 4.632-2.117 7.1-2.945.732-.223 1.353-.669 2.07-.924 1.496-.477 2.96-1.003 4.473-1.385.653-.159 1.258-.461 1.91-.62 2.007-.494 4.013-1.003 6.003-1.497.732-.16 1.449-.303 2.165-.51 1.496-.35 3.009-.557 4.505-.907 1.736-.382 3.519-.589 5.254-.955 1.115-.112 2.213-.446 3.296-.462Z" fill="#1D105F"/><path d="M140.978 59.711c.35.462.143 1.274.191 1.831-.048.526.143 1.401-.16 1.815-.859.287-1.687.637-2.578.796-1.13.382-2.277.366-3.423.557a3.624 3.624 0 0 1-1.099.016c.478-.605 1.29-.7 1.975-1.114.987-.51 1.878-1.162 2.77-1.815.828-.653 1.64-1.305 2.324-2.086ZM140.978 63.692c.255.302.175.652.191 1.034-.032.892.064 1.8-.064 2.69-.716.08-1.305.479-2.005.606-.717.143-1.401.366-2.134.446-1.066.095-1.99.43-3.072.254.175-.43.86-.54 1.241-.748 1.035-.51 2.118-1.019 3.01-1.751 1.034-.796 2.021-1.528 2.833-2.531ZM140.978 67.672c.255.302.175.652.191 1.034-.032.733.048 1.481-.032 2.213-.063.398-.62.59-.955.717-1.64.541-3.391.86-5.11.987-.494.064-.987.143-1.481.08.414-.383.908-.494 1.401-.733.748-.35 1.449-.589 2.086-1.082.636-.494 1.337-.876 1.942-1.401.684-.605 1.4-1.115 1.958-1.815Z" fill="#231F20"/><path d="M54.371 69.614c.032.334.032.669.048 1.003-.557.669-1.274 1.019-1.751 1.783-.287.414-.43.876-.51 1.37.59-.494 1.226-1.53 2.102-1.306.111 1.783-.048 3.566.08 5.349.079.891.127 1.783.047 2.675-1.194-.35-2.133-1.322-2.706-2.42-1.147-2.23-.94-5.254.732-7.18.478-.542 1.178-1.194 1.958-1.274ZM144.146 69.646c.287-.032.605.159.844.286 1.242.78 2.038 2.07 2.388 3.471.319 1.624.207 3.327-.605 4.792-.557 1.019-1.512 1.99-2.643 2.293-.111-.908.032-1.768.048-2.675.112-1.83-.032-3.678.08-5.509a.992.992 0 0 1 .7.176c.51.334.955.843 1.385 1.273a3.439 3.439 0 0 0-.7-1.64c-.446-.573-1.099-.923-1.544-1.512 0-.302 0-.637.047-.955Z" fill="#FCB714"/><path d="M54.403 70.617c0 .637-.032 1.274-.096 1.91v5.286c-.127-1.767.032-3.566-.08-5.35-.875-.222-1.496.813-2.1 1.306.079-.493.222-.955.509-1.369.493-.748 1.21-1.114 1.767-1.783ZM144.099 70.617c.445.589 1.082.94 1.544 1.512.398.478.605 1.02.7 1.64-.43-.43-.875-.955-1.385-1.273-.207-.144-.461-.223-.7-.176-.112 1.831.032 3.678-.08 5.509-.032-2.42.032-4.808-.08-7.212Z" fill="#FFF"/><path d="M59.975 77.065c1.91-.382 4.06.35 5.684 1.353 1.799 1.146 3.439 2.85 4.219 4.856.398.987.525 2.053.366 3.104a3.322 3.322 0 0 1-1.863 2.436c-1.003.51-2.085.478-3.184.366-1.847-.302-3.598-1.226-5.015-2.452-1.48-1.305-2.754-3.009-3.12-4.983-.128-.907-.144-2.006.302-2.85.51-.987 1.529-1.64 2.611-1.83ZM136.25 77.065c1.242-.223 2.658-.128 3.725.589.78.493 1.29 1.305 1.449 2.213.207 1.226-.048 2.451-.573 3.55-.971 2.006-2.611 3.614-4.538 4.696-1.671.908-3.518 1.386-5.413 1.003-1.098-.254-2.101-1.05-2.499-2.117-.35-.987-.318-2.022-.048-3.025.446-1.512 1.385-2.913 2.5-4.028 1.48-1.433 3.359-2.515 5.397-2.881Z" fill="#FCB714"/><path d="M61.36 78.64c.844-.031 1.656.256 2.42.558.685.318 1.321.51 1.83 1.099a5.964 5.964 0 0 1-1.257-.462c-1.194-.557-2.547-.685-3.789-.16-.605.287-.987.828-1.162 1.45-.191 1.002.08 1.91.462 2.833-.733-.875-1.194-2.054-1.29-3.184.016-.716.223-1.48.892-1.847.589-.382 1.21-.27 1.894-.286ZM136.377 78.689c.51-.064 1.035-.048 1.56-.032.366.032.7-.048.94.302-2.054.287-3.933 1.21-5.493 2.547-.923.653-1.528 1.545-2.197 2.452-.573.828-.876 1.751-1.114 2.707-.24-.478-.398-.971-.319-1.513.144-.923.542-1.799 1.035-2.595.382-.637.908-1.066 1.417-1.592 1.114-1.178 2.595-1.926 4.171-2.276Z" fill="#FFF"/><path d="M78.936 80.886c2.627-.35 5.43.54 7.356 2.372 1.05 1.066 1.799 2.388 1.83 3.916.064 1.385-.605 2.723-1.671 3.598a6.181 6.181 0 0 1-2.07 1.099c-2.054.652-4.394.382-6.336-.51-1.258-.605-2.452-1.512-3.2-2.69-.59-.876-.94-1.879-.908-2.946-.047-1.385.669-2.69 1.752-3.534.907-.716 2.053-1.146 3.247-1.305ZM117.145 80.901c1.752-.254 3.71.032 5.222.988 1.083.716 1.942 1.783 2.15 3.088.27 1.544-.255 3.089-1.258 4.25-2.165 2.58-5.923 3.615-9.139 2.66-.939-.287-1.799-.78-2.483-1.497a4.433 4.433 0 0 1-1.242-3.678c.175-1.353.907-2.579 1.879-3.518 1.321-1.258 3.088-2.038 4.871-2.293ZM97.388 82a10.62 10.62 0 0 1 3.948.048c1.831.398 3.535 1.305 4.633 2.85 1.067 1.464 1.099 3.63.048 5.094-1.162 1.735-3.216 2.722-5.238 3.025-1.48.27-2.977.127-4.41-.287-1.369-.414-2.61-1.114-3.55-2.197-.796-.939-1.29-2.133-1.194-3.375.095-1.449.955-2.722 2.085-3.598 1.083-.844 2.357-1.305 3.678-1.56Z" fill="#FCB714"/><path d="M79.494 82.462c.811 0 1.56-.064 2.356.175.844.255 1.72.43 2.404.987-.446-.032-.876-.096-1.29-.27-.732-.351-1.687-.255-2.5-.208-1.464.335-2.913.86-3.788 2.165-.542.828-.478 1.688-.43 2.627-.239-.286-.478-.51-.542-.891-.127-.637-.318-1.274-.127-1.91.143-.813.812-1.513 1.497-1.943.732-.382 1.592-.748 2.42-.732ZM118.514 82.462c.892-.048 1.72.175 2.532.51-1.99-.08-4.06.318-5.716 1.464a6.447 6.447 0 0 0-2.213 2.133c-.398.637-.525 1.306-.716 2.022-.478-.525-.35-1.353-.318-2.006.222-1.083.955-2.07 1.878-2.675 1.29-.955 2.93-1.544 4.553-1.448ZM98.009 83.48c.812-.079 1.672-.047 2.484-.015.716.127 1.607.414 2.244.78-1.48.048-3.152-.191-4.553.239-1.544.445-2.93 1.257-3.82 2.61-.383.606-.526 1.274-.622 1.975-.477-.765-.62-1.64-.318-2.484.255-.796.828-1.321 1.465-1.83.939-.749 1.99-.972 3.12-1.274Z" fill="#FFF"/><path d="M6.912 84.675c.796.557 1.465 1.257 2.245 1.846a33.333 33.333 0 0 0 5.365 3.232c3.312 1.72 6.846 3.073 10.38 4.267 6.846 2.245 13.82 3.884 20.904 5.206 6.687 1.242 13.453 2.15 20.219 2.85 1.194.159 2.388.238 3.582.318 1.767.175 3.518.318 5.286.478 1.655.08 3.295.19 4.935.318 3.136.111 6.24.27 9.377.366 4.935.175 9.87.096 14.806.112 2.34-.032 4.665-.064 7.005-.175 1.863-.048 3.725-.096 5.572-.223 13.373-.653 26.826-2.118 39.96-4.776 5.143-1.067 10.221-2.309 15.236-3.87 4.028-1.289 8.104-2.77 11.877-4.68 2.26-1.13 4.521-2.42 6.463-4.044.494-.398.956-.827 1.45-1.21-.478 1.21-1.434 2.134-2.357 3.025-.78.796-1.656 1.417-2.547 2.07-3.821 2.627-8.183 4.521-12.514 6.114-7.068 2.563-14.52 4.378-21.906 5.795a222.69 222.69 0 0 1-14.185 2.228c-2.739.35-5.493.669-8.231.892-3.503.398-7.021.637-10.555.86-1.115.063-2.23.063-3.344.175-2.658.127-5.301.254-7.96.286-.844-.016-1.687.112-2.547.112-3.025-.032-6.05.127-9.075.016-1.655-.064-3.28.063-4.935-.096-1.704-.032-3.407-.064-5.095-.143-2.292-.032-4.553-.27-6.845-.334-2.181-.128-4.363-.287-6.544-.446-13.755-1.13-27.765-3.137-41.074-6.878-5.89-1.703-11.877-3.805-17.258-6.798-1.449-.86-2.866-1.751-4.203-2.802-.7-.557-1.321-1.226-1.974-1.847-.573-.684-1.194-1.417-1.513-2.244Z" fill="#0160AB"/><path d="M54.18 108.905c.541.064 1.067.16 1.608.255.191.08.446.032.398.319-.095.891-.16 1.783-.27 2.69-.048.844 0 1.704-.016 2.547.19 2.452.54 4.856 1.305 7.196.111.271.573.255.812.287 3.057 0 6.13.016 9.186-.032.223-.016.43.032.637.08 0 .525-.128 1.066-.143 1.592.398.063.7-.112 1.034-.27 1.099-.542 2.357-.829 3.55-1.052 1.577-.318 3.232-.302 4.84-.302h28.498c.573-.016 1.146.016 1.735.064.032.668-.27 1.241-.159 1.91.223-.032.43-.111.637-.207 1.29-.637 2.706-1.21 4.14-1.433 1.543-.35 3.215-.334 4.807-.35h22.289c.764 0 1.496.048 2.26-.064.287-1.066.59-2.101.796-3.184.255-.955.255-1.926.43-2.913.175-.971.096-1.91.112-2.882.032-.94-.144-1.878-.207-2.818 0-.302-.16-.7-.032-.97.557-.256 1.273-.271 1.894-.351.144.191.303.414.35.653.176 1.958-.159 3.773-.318 5.715-.27 1.401-.461 2.802-.923 4.155-.175.876-.7 1.736-.637 2.627.59.239 1.099.016 1.704.048.222 0 .43.032.652.016 1.003-.096 2.006 0 3.01 0h24.039c2.531.111 5.27.62 7.499 1.894 2.037 1.163 3.613 3.057 4.218 5.35.494 1.719.494 3.598.048 5.333-.318 1.624-.684 3.248-.987 4.872-.302 1.512-.796 2.945-1.672 4.234-.238.367-.54.7-.748 1.083 0 .287.128.557.191.828.24.748.35 1.56.398 2.34.032 1.497-.366 2.786-.637 4.22-.302 1.352-.557 2.706-.843 4.059-.303 1.417-.78 2.786-1.545 4.028-1.21 1.99-3.184 3.566-5.237 4.632-2.054 1.051-4.251 1.386-6.528 1.513h-32.653c.08-.748.303-1.48.398-2.229-.573.207-1.05.541-1.592.78-2.356 1.02-4.919 1.417-7.466 1.385h-4.617c-.717 0-1.433-.032-2.15.064H94.03c-.43-.16-.876-.127-1.322-.112-7.976.016-16.031-.015-23.992.016-2.626-.111-5.476-.78-7.641-2.34-1.115-.764-1.943-1.767-2.755-2.818-.445.398-.796.892-1.257 1.29-2.022 1.847-4.474 3.2-7.18 3.646-.924.175-1.847.206-2.786.318H14.284c.589-3.009 1.257-6.018 1.878-9.027 2.356-11.224 4.729-22.464 7.085-33.688.111-.557.207-1.13.382-1.671.844-.032 1.671-.016 2.515-.016h26.587c.24 0 .462-.048.7-.096.685.048 1.577.24 2.214-.063-.175-.94-.621-1.783-.812-2.707-.621-2.245-1.05-4.521-1.115-6.861a18.921 18.921 0 0 1-.111-3.153c.032-.27.302-.493.573-.43Z" fill="#1D105F"/><path d="M65.324 109.256c.574-.08 1.083.032 1.64.095 1.513.128 3.041.239 4.553.446.812.27 1.608.62 2.404.907 2.006.924 3.949 1.99 5.89 3.041 2.262 1.258 4.618 2.611 7.054 3.44 1.56.668 3.216.938 4.903.986.828.016 1.592-.286 2.404-.302-.127.525-.875.668-1.305.843-1.37.526-2.69.398-4.124.319-1.21-.207-2.404-.605-3.534-1.083-2.786-1.035-5.365-2.627-8.056-3.9-.573-.287-1.098-.621-1.687-.86-1.194-.493-2.34-1.13-3.582-1.512-1.847-.7-3.774-1.13-5.748-1.226-.907-.016-1.83.143-2.722.302-.669.112-1.242.494-1.91.637-.144.016-.287-.048-.414-.175.35-.287.7-.557 1.098-.78 1.019-.51 1.974-1.02 3.136-1.178ZM131.776 109.32c1.306-.255 2.754.127 3.885.811.668.35 1.592.733 1.974 1.417-.7-.095-1.258-.446-1.927-.62-1.05-.255-2.101-.51-3.2-.446-1.512.063-3.024.302-4.457.764-1.29.318-2.532.812-3.742 1.353-2.101 1.019-4.17 2.086-6.256 3.136-.971.637-2.054 1.02-3.089 1.545-1.496.652-2.977 1.273-4.569 1.64-.955.254-2.038.159-3.04.175-.956.015-1.768-.35-2.628-.765-.223-.111-.43-.238-.589-.445 1.035.031 2.006.334 3.057.286a13.81 13.81 0 0 0 4.665-1.05c1.496-.494 2.834-1.274 4.266-1.943 1.768-.987 3.567-1.958 5.334-2.945 1.846-.924 3.534-1.863 5.54-2.42.732-.143 1.48-.223 2.229-.318.844-.112 1.703-.032 2.547-.176ZM119.963 110.259c.239-.016.764-.16.828.159-.16.223-.478.255-.732.318-1.401.223-2.739.653-4.171.78-2.102.398-4.203.51-6.305.844-.971.048-1.91.016-2.866.175-1.13-.032-2.228.207-3.343.175-2.659 0-5.301.016-7.96-.015-.86 0-1.688-.176-2.547-.144-.86.048-1.688-.175-2.548-.175-1.64-.095-3.263-.414-4.903-.525-1.258-.24-2.547-.335-3.805-.637-.669-.143-1.337-.207-2.006-.382-.303-.096-.59-.143-.796-.414 1.417-.175 2.77.048 4.171.095.923-.063 1.83.176 2.754.144 1.688.016 3.375 0 5.047.159 5.413.016 10.842 0 16.255 0 1.958-.16 3.932-.16 5.89-.16.335-.015.653-.047.972-.095 1.018-.159 2.021.032 3.056-.127 1.02-.175 2.006.032 3.01-.175Z" fill="#1D105F"/><path d="M70.658 113.506c.589-.031 1.257.398 1.83.558-.27.668-.27 1.369-.19 2.085a5.04 5.04 0 0 0-1.895-.637 4.101 4.101 0 0 0-.032.988c-.143-.988-.095-2.07.287-2.994ZM127.844 113.475c.207.652.334 1.321.35 2.006-.653.111-1.274.318-1.926.493.016-.653 0-1.29-.271-1.91.605-.191 1.226-.542 1.847-.59Z" fill="#A9B9DD"/><path d="M72.489 114.064c.254.08.493.143.748.223.016.525-.032 1.05-.048 1.576.096 1.257.94 2.244 2.054 2.77.78.27 1.687.207 2.452-.016.62-.255 1.114-.86 1.64-1.258l.668.239c-.366.669-.907 1.146-1.544 1.56-.844.35-1.672.621-2.611.462-1.8-.255-3.28-1.656-3.566-3.47-.064-.717-.064-1.402.207-2.086ZM125.997 114.064c.27.62.287 1.257.27 1.91-.206.908-.557 1.751-1.21 2.42a4.38 4.38 0 0 1-3.056 1.258c-.716-.016-1.337-.255-1.99-.51-.669-.43-1.13-.923-1.56-1.576.223-.08.51-.366.732-.19.717.445 1.146 1.114 2.038 1.305.971.159 1.958.08 2.754-.542.764-.493 1.162-1.321 1.322-2.18.015-.558-.112-1.1-.08-1.657.27-.08.541-.143.78-.238Z" fill="#1D105F"/><path d="M74.288 114.764c.27-.048.652-.048.86.16.35.254.35.827.174 1.177-.318.558-1.178.526-1.512 0-.334-.493-.048-1.146.478-1.337ZM123.513 114.796c.255-.08.558-.096.796 0 .414.255.653.764.414 1.21-.238.494-.875.637-1.337.35-.478-.382-.462-1.29.127-1.56Z" fill="#FCB714"/><path d="M70.403 115.512a5.04 5.04 0 0 1 1.895.637c.27 1.8 1.767 3.216 3.566 3.47.939.16 1.75-.11 2.61-.46.637.445 1.338.572 2.054.827-2.053 2.006-5.524 2.133-7.785.398-1.257-.923-2.085-2.356-2.356-3.884a4.083 4.083 0 0 1 .016-.988ZM76.39 115.592c.652-.207 1.289.318 1.177 1.003a.895.895 0 0 1-1.337.62c-.621-.365-.541-1.4.16-1.623ZM121.587 115.56c.255-.048.51-.032.716.112.526.318.51 1.241-.047 1.528-.446.239-1.035.096-1.258-.398-.239-.51.016-1.083.59-1.242ZM128.194 115.48c.016 1.895-.892 3.774-2.436 4.904-2.26 1.735-5.731 1.592-7.785-.398.717-.255 1.417-.366 2.038-.828.653.255 1.274.494 1.99.51a4.38 4.38 0 0 0 3.057-1.258c.668-.669 1.003-1.512 1.21-2.42.652-.175 1.273-.398 1.926-.51Z" fill="#FFF"/><path d="M80.003 117.598c.589.223 1.146.51 1.703.812-.286.62-.716 1.114-1.194 1.576-.716-.255-1.416-.382-2.053-.828.637-.414 1.178-.891 1.544-1.56ZM118.467 117.566c.43.669.891 1.146 1.56 1.576-.637.462-1.322.558-2.038.828-.478-.462-.907-.971-1.194-1.576.541-.287 1.114-.525 1.672-.828Z" fill="#A9B9DD"/><path d="M25.746 124.826c.605-.08 1.242-.032 1.847-.032h35.343c.573 0 1.147 0 1.704.032-.175 1.21-.526 2.388-.764 3.598-1.975 9.202-3.98 18.404-5.97 27.622-.446 2.133-1.593 4.091-3.36 5.397-1.56 1.21-3.311 2.085-5.285 2.372-1.529.191-3.089.27-4.633.255H20.27c-.94 0-1.879.016-2.818-.016 2.658-12.593 5.317-25.186 7.96-37.78.111-.509.175-1.002.334-1.448ZM77.105 124.778c9.011.016 18.038-.016 27.05.016-.017.27-.033.557-.08.828-1.02 4.824-1.943 9.68-2.977 14.503-.574.032-1.13.048-1.704.032H83.792c-.62-.016-1.226-.032-1.847.064-.414 2.022-.812 4.06-1.242 6.081-.143.765-.334 1.497-.398 2.277 5.302.032 10.603 0 15.905.016 1.019.016 2.022-.048 3.025.048-.048.637-.191 1.257-.335 1.878-.97 4.458-1.958 8.9-2.897 13.342-.732.159-1.417.08-2.165.095h-23.88c-2.405 0-5.159-.414-7.197-1.767-1.72-1.098-2.881-2.945-3.2-4.935-.35-2.038.143-3.9.557-5.875 1.163-5.62 2.34-11.272 3.487-16.891.494-2.213 1.465-4.41 2.945-6.13 1.529-1.767 3.773-2.786 6.05-3.2 1.48-.27 2.993-.398 4.505-.382ZM117.862 124.73h23.562c.907 0 1.799-.031 2.706.032 0 .844-.27 1.592-.414 2.42-.589 2.961-1.21 5.922-1.783 8.884-.318 1.353-.51 2.722-.86 4.06-1.32.095-2.626-.032-3.948.079.319.51.733.955 1.035 1.496.637 1.13 1.02 2.436 1.003 3.726 0 .684.016 1.417-.111 2.085-.35 1.624-.669 3.264-.987 4.904-.255 1.21-.446 2.42-.86 3.582-.796 2.34-2.15 4.553-4.235 5.954-2.165 1.497-4.871 1.927-7.45 1.974-3.392.048-6.799-.08-10.19.096H99.092c-.637 0-1.258 0-1.895-.032-.032-.748.191-1.417.35-2.133.892-4.41 1.783-8.82 2.707-13.214 1.242-.143 2.515 0 3.773-.08a2.516 2.516 0 0 0-.462-.764c-.732-.844-1.162-1.974-1.4-3.057-.32-1.48-.16-2.93.142-4.394.367-1.72.685-3.439 1.051-5.158.398-2.07 1.083-4.235 2.309-5.97a9.945 9.945 0 0 1 5.413-3.805c2.244-.685 4.441-.669 6.782-.685ZM145.15 124.826c.238-.032.477-.032.732-.048h24.199c2.42-.032 5.046.16 7.307 1.099 1.385.605 2.611 1.512 3.375 2.833.94 1.529 1.003 3.328.717 5.063-.335 1.48-.605 2.993-.924 4.474-.286 1.433-.557 2.818-1.353 4.06-.541.891-1.29 1.432-1.974 2.196.223.51.557.94.78 1.433.653 1.45.589 3.232.175 4.745-.414 1.926-.796 3.868-1.226 5.795-.382 1.592-1.13 3.04-2.308 4.203-1.608 1.512-3.519 2.658-5.716 3.04-1.815.319-3.693.335-5.54.319h-23.562c-.987 0-1.99.016-2.977-.016 2.579-12.275 5.174-24.597 7.753-36.888.207-.764.27-1.576.541-2.308Z" fill="#0160AB"/><path d="M29.026 126.625h12.1c.795 0 1.575-.048 2.372.064-.064.668-.223 1.305-.367 1.942-.939 4.378-1.91 8.74-2.833 13.134-.542 2.484-1.13 4.967-1.608 7.467-.24 1.114-.526 2.229-.733 3.359.7.048 1.417.032 2.102-.095.477-.16.51-.526.605-.956.668-3.2 1.4-6.368 2.053-9.568.383-1.305.605-2.674.924-3.996.812-3.757 1.576-7.514 2.452-11.256.78-.127 1.56-.08 2.34-.08h12.895c.319 0 .653.033.972.064-.048.414-.096.812-.192 1.226-1.257 5.7-2.451 11.4-3.725 17.099-.732 3.375-1.417 6.75-2.165 10.11-.239 1.177-.605 2.324-1.321 3.31-.733 1.067-1.91 1.895-3.01 2.564-1.862 1.067-3.757 1.114-5.842 1.226h-24.2c-.684 0-1.4.048-2.053-.064.032-.318.064-.637.127-.955 2.436-11.479 4.824-23.005 7.276-34.484.605-.175 1.21-.111 1.83-.111ZM76.31 126.625h23.243c.796 0 1.576-.048 2.372.064-.047.493-.127.97-.238 1.448-.685 3.36-1.386 6.719-2.038 10.094-.526.175-1.13.111-1.688.127H84.747a6.219 6.219 0 0 1-.764-.08c.08-.573.191-1.146.27-1.719-1.098-.095-2.308-.127-3.406.016-1.02 4.776-1.927 9.44-2.946 14.249-.111.414-.127.828-.127 1.242.94 0 1.895.016 2.834 0 .143 0 .255-.016.35-.08.223-.478.27-1.035.366-1.544.78-.175 1.513-.096 2.309-.112h11.622c.573-.016 1.146 0 1.72.096-.065.796-.303 1.528-.447 2.308-.238 1.163-.54 2.309-.78 3.471-.35 1.91-.796 3.789-1.226 5.684-.54.207-1.082.175-1.64.175-8.23-.016-16.477.016-24.708-.016-1.799-.207-3.502-.621-4.92-1.783-1.496-1.21-2.1-3.153-1.973-5.031.095-.955.286-1.91.493-2.85 1.194-5.779 2.388-11.526 3.566-17.305a12.802 12.802 0 0 1 1.242-3.535c.828-1.751 2.213-3.2 4.012-3.948 1.799-.748 3.79-.923 5.715-.971ZM117.543 126.577h22.448c.62 0 1.29-.048 1.895.08-.032.78-.24 1.512-.398 2.26-.574 2.93-1.194 5.827-1.752 8.757-.063.207-.095.461-.238.605-.51.095-1.051.047-1.56.063h-11.941c-.7 0-1.353.048-2.038-.063.08-.574.223-1.13.27-1.704-1.13-.016-2.26-.016-3.406 0-.127.924-.382 1.831-.494 2.754 2.786-.047 5.572 0 8.374-.016 1.704-.015 3.392.176 4.984.828 1.114.462 2.149 1.242 2.817 2.261.812 1.433 1.035 3.104.749 4.728-.398 2.118-.844 4.251-1.258 6.369-.239 1.21-.557 2.388-1.146 3.47-.7 1.322-1.624 2.659-2.898 3.47-1.751 1.21-3.725 1.481-5.779 1.688-.955.096-1.894.048-2.85.048-3.184.016-6.368-.032-9.552.032h-12.577c-.589.016-1.178.016-1.767-.048.016-.51.143-.987.255-1.496.493-2.516 1.034-5.031 1.544-7.547.16-.812.366-1.608.462-2.435l.175-.191c.573-.08 1.162-.032 1.735-.048h12.896c.286 0 .589-.032.86.048.031.557-.112 1.146-.192 1.703 1.067-.016 2.134.032 3.2-.032.191-.907.414-1.799.541-2.722-2.945-.016-5.906 0-8.867 0-1.576-.032-3.105-.35-4.601-.844-.94-.557-1.815-1.098-2.468-1.99-1.162-1.48-1.273-3.566-.923-5.35.51-2.42.923-4.87 1.512-7.275.382-1.337.892-2.61 1.624-3.789 1.274-1.672 3.136-2.786 5.19-3.232 1.688-.398 3.391-.366 5.174-.382ZM146.598 126.72c.525-.143 1.13-.095 1.672-.095h23.562c2.18.111 4.537.462 6.32 1.83 1.306 1.051 1.847 2.755 1.624 4.395-.223 1.512-.605 2.993-.891 4.49-.176.827-.319 1.687-.542 2.515a6.394 6.394 0 0 1-2.627 3.423c-.525.366-1.13.605-1.623 1.019 1.178.748 2.18 1.687 2.483 3.104.319 1.13-.032 2.181-.255 3.311-.334 1.64-.684 3.28-1.019 4.92-.27 1.433-.955 2.85-2.021 3.853-.653.668-1.417 1.13-2.23 1.592-.716.414-1.528.668-2.324.843-.7.16-1.4.144-2.101.287-.971.032-1.942.032-2.914.032h-22.129c-.78 0-1.56.032-2.356-.048a3.79 3.79 0 0 1 .016-.605c.78-3.916 1.656-7.8 2.452-11.686 1.655-7.72 3.231-15.506 4.903-23.18Z" fill="#FCB714"/><path d="M116.429 127.85c7.88-.015 15.777.017 23.658-.015.015.477.015.94-.096 1.417-.653 2.706-1.067 5.492-1.815 8.183-.732.127-1.433.064-2.181.08-3.295 0-6.575-.016-9.87.015-.35.016-.637-.047-.972-.159 2.15-.891 4.299-1.799 6.464-2.674.239-.112.446-.176.478-.478.175-.844.318-1.735.382-2.595-.59.223-1.115.557-1.672.844-1.688.86-3.343 1.783-5.03 2.627-.24.111-.32.286-.415.509l-.048-.303c-.54-.159-1.162-.08-1.719-.095-1.162.016-2.34-.032-3.502.016-.319.016-.462.111-.51.446-.286 1.671-.7 3.327-.876 4.999-1.528.796-3.104 1.48-4.664 2.229-.462.238-1.035.43-1.433.78.828.525 1.751.668 2.706.684h9.393c1.003 0 1.959-.048 2.946.239.382.111.7.318 1.066.462.51-.08 1.003-.43 1.481-.637 1.465-.669 2.913-1.417 4.394-2.038.414.43.796.876 1.003 1.465.51 1.21.414 2.579.127 3.837-.477 2.197-.843 4.425-1.353 6.607-.462 1.432-1.082 3.008-2.15 4.075-1.193 1.258-2.928 2.102-4.68 2.086-.589.127-1.098.382-1.72.334-7.593.032-15.171 0-22.765.016-.653.016-1.29.032-1.927-.08 1.863-.987 3.805-1.815 5.7-2.738.493-.27 1.146-.446 1.56-.828.27-.94.318-1.942.637-2.865.19-.192.477-.287.716-.398 2.022-.828 4.028-1.672 6.05-2.5a4.359 4.359 0 0 0-.796-.111h-9.887c-.732 0-1.496-.048-2.197.063l.064-.095c3.837-.016 7.69 0 11.542 0 .51-.016 1.003 0 1.513.032.016.748-.239 1.416-.128 2.165 1.13.08 2.261.016 3.392.032.62-.016 1.273.047 1.894-.048.287-.319.35-.908.478-1.322-.08.526-.144 1.051-.35 1.545-1.624-.016-3.264 0-4.888-.016-.414 0-.796 0-1.178.19-1.545.797-3.073 1.577-4.617 2.389-.637.318-1.274.573-1.847 1.003.525.048 1.067.048 1.592.048h12.736c1.099-.032 2.436-.128 3.328-.828.94-.7 1.385-1.879 1.624-2.993.398-1.879.796-3.773 1.194-5.652.159-.844.19-1.672-.398-2.356-.144-.207-.366-.064-.542-.016-1.974.891-3.916 1.91-5.906 2.738-.812-.159-1.624-.064-2.484-.08-2.913-.015-5.842.032-8.756-.015-1.608-.191-3.375-.637-4.665-1.64.988-.621 2.086-1.035 3.12-1.544.876-.446 1.8-.796 2.66-1.306-.223-.398-.478-.764-.558-1.226-.095-.605.016-1.162.144-1.751.382-1.751.764-3.503 1.114-5.27.207-1.082.653-2.213 1.497-2.945.891-.764 2.07-.923 3.215-.94h13.055c.573 0 1.162.049 1.736-.031.461-.112.907-.366 1.337-.557 1.735-.812 3.47-1.624 5.222-2.42a4.06 4.06 0 0 0 .796-.478c-.796-.048-1.592-.016-2.404-.032h-19.582c-1.162 0-2.34-.016-3.503.032.669-.19 1.401-.08 2.07-.111Z" fill="#A9B9DD"/><path d="M147.712 127.867c7.754-.032 15.714 0 23.483-.016.796-.016 1.576.111 2.372.19 1.576.287 3.025.67 4.187 1.832-.063.398-.51.477-.812.62-2.022.797-3.996 1.688-6.034 2.452-.509-.43-1.018-.812-1.655-1.019-1.051-.366-2.213-.477-3.312-.51h-10.03c-.78 0-1.544-.03-2.324.049-1.735 8.342-3.502 16.668-5.254 25.01-.063.24-.111.51-.238.733-.43.334-.988.493-1.481.748-1.417.7-2.866 1.385-4.299 2.07-.445.19-.86.414-1.257.7l-.287-.016c.175-1.4.541-2.77.812-4.139 1.417-6.814 2.866-13.58 4.283-20.378.143-1.258.605-2.42.78-3.678.414-1.528.62-3.136 1.066-4.648ZM28.294 127.978c.589-.143 1.257-.08 1.862-.08h10.826c.287 0 .59.048.86.144-.35.111-.685.223-1.02.366a501.87 501.87 0 0 1-5.985 2.77c-.303.16-.59.239-.653.621-1.735 8.358-3.502 16.669-5.238 25.027-.063.255-.111.446-.382.557-1.576.764-3.152 1.497-4.728 2.277-.717.366-1.465.637-2.134 1.098a2.254 2.254 0 0 0-.318.064c.175-1.465.573-2.914.844-4.362.207-1.226.605-2.388.812-3.598.477-2.102.812-4.235 1.305-6.337.494-2.197.86-4.41 1.385-6.59.749-3.55 1.497-7.085 2.245-10.635.112-.446.143-.908.319-1.322ZM47.223 127.962c.653-.111 1.369-.048 2.038-.063h10.507c.303 0 .573.015.86.143-.334.111-.685.223-1.003.382a361.108 361.108 0 0 1-5.604 2.675c-.366.206-.764.286-.828.78-1.417 6.702-2.818 13.405-4.235 20.107-.223 1.13-.446 2.34-1.273 3.2-1.02 1.019-2.325 1.751-3.774 1.942-1.082.128-2.165.128-3.247.144h-8.916c-.812 0-1.592.031-2.404-.048.478-.319.987-.494 1.497-.732 1.815-.844 3.646-1.624 5.46-2.484 1.401-.35 3.185.207 4.538-.398.398-.16.732-.462.891-.876.303-.78.367-1.671.573-2.5.335-1.352.605-2.706.876-4.075.637-2.865 1.258-5.747 1.879-8.629.525-2.244.987-4.521 1.48-6.782.207-.923.335-1.894.685-2.786ZM77.583 127.899h20.219c.716 0 1.465-.032 2.181.047l.08.128a6.225 6.225 0 0 0-1.067.43c-1.608.78-3.248 1.528-4.872 2.308-.636.287-1.162.669-1.894.653-4.824-.016-9.664 0-14.488-.016-1.178 0-2.5.239-3.375 1.098-.844.876-1.178 2.07-1.4 3.216-1.259 5.986-2.516 12.036-3.79 18.022-.08.494-.127 1.035-.016 1.528.096.35.335.685.541.987-.939.558-1.974.956-2.945 1.45-.97.43-1.894.939-2.881 1.32a4.287 4.287 0 0 1-1.274-2.594c-.175-1.163.096-2.181.334-3.296.621-3.12 1.226-6.225 1.879-9.345a38.15 38.15 0 0 0 .94-4.649c.397-1.751.668-3.646 1.225-5.413.573-1.672 1.449-3.184 2.882-4.25.939-.51 1.942-.988 2.993-1.195 1.576-.366 3.168-.461 4.728-.43ZM114.375 127.962c1.162-.048 2.325-.032 3.503-.032h19.582c.796 0 1.592-.031 2.404.032a4.06 4.06 0 0 1-.796.478c-1.752.796-3.487 1.608-5.222 2.42-.43.19-.876.445-1.338.557-.573.08-1.162.032-1.735.032h-13.055c-1.13.016-2.308.175-3.216.94-.843.747-1.29 1.862-1.496 2.944-.35 1.752-.732 3.519-1.114 5.27-.128.589-.24 1.146-.144 1.751.08.462.319.828.557 1.226-.843.494-1.767.86-2.658 1.306-1.035.509-2.15.923-3.12 1.544-.685-.557-1.131-1.417-1.306-2.26-.112-1.02-.096-2.086.143-3.105.35-1.736.7-3.455 1.035-5.19.27-1.45.685-2.818 1.449-4.092.828-1.449 2.07-2.627 3.677-3.152.924-.382 1.895-.43 2.85-.669Z" fill="#FFF"/><path d="M41.842 128.042c-.16 1.035-.462 2.054-.653 3.088-.334 1.879-.891 3.662-1.098 5.54-1.179 5.525-2.42 11.065-3.598 16.606-.096.35.175.54.493.525 1.29 0 2.611.111 3.837-.191-1.353.589-3.152.032-4.537.398-1.815.86-3.646 1.64-5.461 2.484-.51.238-1.019.398-1.497.732.796.08 1.592.032 2.404.048h8.916c1.082 0 2.18-.016 3.248-.144 1.448-.175 2.754-.907 3.773-1.942.828-.86 1.034-2.07 1.273-3.2 1.417-6.702 2.834-13.405 4.235-20.107.064-.494.446-.574.828-.78a361.108 361.108 0 0 0 5.604-2.675c.318-.16.669-.27 1.003-.382.032.7-.207 1.273-.334 1.958-.223 1.05-.478 2.101-.669 3.152-.207 1.13-.557 2.23-.748 3.375-.86 4.108-1.783 8.2-2.659 12.307-.541 2.308-.94 4.633-1.528 6.925-.303 1.242-1.02 2.356-2.054 3.105-1.513 1.241-3.487 1.958-5.445 1.942H24.887c-1.067 0-2.118.032-3.185-.048.67-.461 1.417-.732 2.134-1.098 1.576-.78 3.152-1.513 4.728-2.277.255-.111.319-.302.382-.557 1.736-8.358 3.503-16.669 5.238-25.027.064-.382.35-.462.653-.62 2.006-.924 3.996-1.832 5.986-2.771a11.06 11.06 0 0 1 1.019-.366ZM100.079 128.058c.063.541-.144.97-.24 1.496-.238 1.242-.525 2.484-.763 3.726-.255 1.432-.653 2.818-.844 4.266-4.378.032-8.756-.016-13.119.016l.016-.223c.462-.143.924-.302 1.37-.51a340.58 340.58 0 0 1 5.062-2.1c.255-.128.541-.176.605-.51.223-.86.382-1.735.541-2.611-1.194.51-2.308 1.162-3.47 1.735-.987.478-1.942 1.035-2.945 1.497-.367.175-.701.302-.844.716-.064-.111-.144-.239-.207-.35-1.592-.064-3.184-.016-4.76-.032-.414 0-.621.064-.7.494-.877 4.075-1.64 8.183-2.548 12.258-.287 1.815-.796 3.598-1.05 5.43-2.039 1.034-4.14 1.926-6.178 2.96.78.621 1.863.733 2.834.733 4.25-.016 8.485 0 12.736 0 .717 0 1.417.048 2.15-.064.19-.907.318-1.863.62-2.754.366-.287.876-.43 1.29-.621 1.863-.748 3.677-1.576 5.556-2.26.08.143.127.286.111.413-.525 2.547-1.082 5.079-1.592 7.642-.08.398-.095.94-.366 1.274-.414.159-.955.063-1.4.08H69.335c-.828-.017-1.671-.064-2.483-.192-1.035-.382-2.118-.828-2.946-1.576.988-.382 1.927-.876 2.882-1.321.971-.494 2.006-.892 2.945-1.45-.207-.302-.445-.636-.541-.986-.111-.494-.08-1.035.016-1.529 1.258-5.986 2.531-12.02 3.789-18.021.223-1.147.557-2.357 1.401-3.216.876-.86 2.197-1.083 3.375-1.099 4.824.016 9.664-.016 14.488.016.732.016 1.257-.35 1.894-.653 1.624-.78 3.248-1.528 4.872-2.308.334-.096.684-.239 1.05-.366ZM177.77 129.873c.748.812 1.02 2.101.732 3.152-.35 1.751-.732 3.518-1.082 5.27-.127.716-.287 1.416-.637 2.07-.541 1.066-1.496 1.798-2.531 2.34a15.19 15.19 0 0 1-3.407 1.194c-.382.095-.844.159-1.162.398.19.08.382.159.573.19 1.353.176 2.865.574 3.964 1.433 1.019.749 1.433 2.166 1.114 3.376-.334 1.305-.541 2.626-.843 3.932-.287 1.273-.446 2.61-.956 3.805-.51 1.098-1.385 1.863-2.388 2.5-1.353.97-2.93 1.257-4.569 1.257-7.8.016-15.602 0-23.403 0-.7 0-1.4.032-2.101-.064.398-.286.812-.51 1.257-.7 1.433-.685 2.866-1.37 4.299-2.07.477-.239 1.05-.414 1.48-.748.128-.223.176-.494.24-.732 1.735-8.343 3.518-16.669 5.253-25.011.78-.08 1.544-.048 2.324-.048h10.03c1.115.032 2.26.143 3.312.51.636.206 1.146.604 1.655 1.018 2.038-.764 4.012-1.671 6.034-2.451.303-.144.748-.223.812-.621Z" fill="#A9B9DD"/><path d="M92.692 131.624c-.16.876-.319 1.751-.542 2.61-.063.32-.35.367-.605.51a340.58 340.58 0 0 0-5.062 2.102c-.446.19-.908.35-1.37.51.016-.606.176-1.179.303-1.768.16-.414.478-.541.844-.716 1.003-.462 1.958-1.02 2.945-1.497 1.178-.589 2.308-1.242 3.487-1.751ZM132.508 131.608c-.08.86-.222 1.751-.382 2.595-.047.302-.238.366-.477.478-2.15.875-4.315 1.783-6.464 2.674h-.127c.08-.605.19-1.178.318-1.767.096-.223.175-.414.414-.51 1.688-.843 3.343-1.75 5.03-2.626.574-.287 1.083-.605 1.688-.844ZM170.972 133.248c.446.589.541 1.464.398 2.18-.239 1.243-.525 2.469-.764 3.71-.175.892-.318 1.72-.876 2.468-.748 1.003-2.101 1.624-3.263 1.99-1.29.382-2.675.748-4.044.716-3.71-.015-7.419.016-11.128-.015.302-.16.605-.319.907-.462 2.165-.971 4.314-2.022 6.511-2.961 1.258.08 2.452.08 3.63-.414a2.867 2.867 0 0 0 1.736-2.118c.127-.764.51-1.608.095-2.34.287-.191.59-.35.892-.478 1.783-.7 3.534-1.464 5.301-2.18.207-.064.43-.16.605-.096Z" fill="#FFF"/><path d="M160.226 135.063c.923-.128 1.91.032 2.834.19.477.08.843.367 1.146.733.414.732.032 1.56-.096 2.34a2.867 2.867 0 0 1-1.735 2.118c-1.178.493-2.388.51-3.63.414-.063-.749.16-1.417.319-2.134.223-.97.398-1.942.605-2.913.047-.334.19-.669.557-.748Z" fill="#FCB714"/><path d="M160.879 136.496c.668-.144 1.417-.048 2.101 0 .127.907-.111 2.228-.987 2.722-.493.286-1.114.27-1.672.239-.063-.542.096-1.003.191-1.513.096-.477.176-1.003.367-1.448Z" fill="#0160AB"/><path d="M118.705 140.65c2.484-.063 4.968 0 7.451-.015 1.64 0 3.248-.032 4.888.159 1.21.27 2.674.653 3.566 1.576-1.497.621-2.93 1.37-4.394 2.038-.478.207-.971.541-1.48.637-.367-.128-.701-.35-1.067-.462-.971-.286-1.943-.239-2.946-.239h-9.393c-.955 0-1.894-.159-2.706-.684.382-.35.955-.542 1.433-.78 1.528-.749 3.12-1.433 4.648-2.23Z" fill="#FFF"/><path d="M42.733 141.956c-.652 3.2-1.385 6.384-2.053 9.568-.096.43-.128.796-.605.956a7.736 7.736 0 0 1-2.102.095c.191-1.13.478-2.229.732-3.36.064 1.131-.525 2.118-.461 3.233.637.063 1.449.08 2.022-.255.27-.366.35-.907.461-1.337.367-1.847.812-3.662 1.178-5.509.303-1.098.35-2.324.828-3.39Z" fill="#1D105F"/><path d="M128.879 145.41c.589.686.54 1.513.398 2.357-.398 1.879-.796 3.773-1.194 5.652-.24 1.114-.7 2.277-1.624 2.993-.892.7-2.245.796-3.328.828h-12.736c-.525 0-1.067 0-1.592-.048.573-.43 1.21-.669 1.847-1.003 1.544-.796 3.088-1.576 4.617-2.388.382-.191.764-.191 1.178-.191 1.624.016 3.263 0 4.887.016.207-.494.271-1.019.35-1.544.255-1.322.558-2.643.749-3.965 2.006-.827 3.932-1.846 5.906-2.738.175-.032.398-.175.542.032ZM168.791 146.573c.255.59.207 1.178.08 1.783-.335 1.497-.621 2.993-.94 4.49-.127.62-.302 1.194-.636 1.735-.494.828-1.401 1.449-2.23 1.91-1.337.717-3.04.733-4.52.749-3.392.016-6.799 0-10.19 0-.541 0-1.082 0-1.624-.048.335-.302.749-.43 1.163-.62 1.592-.685 3.152-1.434 4.744-2.102.382-.144.716-.35 1.035-.59 1.226 0 2.515.112 3.725-.095.637-.095 1.305-.541 1.497-1.178.27-.892.398-1.815.636-2.707.112-.652.637-.684 1.147-.923 1.799-.732 3.614-1.465 5.413-2.229.222-.063.445-.143.7-.175Z" fill="#FFF"/><path d="M157.074 148.006c.636-.16 1.369-.064 2.037-.08.78.048 1.592-.031 2.15.605.43.398.302.86.254 1.385-.238.892-.366 1.831-.636 2.707-.191.653-.86 1.082-1.497 1.178-1.21.207-2.5.096-3.725.096.207-1.338.541-2.66.812-3.98.159-.621.254-1.37.605-1.911Z" fill="#FCB714"/><path d="M107.386 148.61c1.497.51 3.009.829 4.601.845 2.961 0 5.907-.016 8.868 0-.128.923-.335 1.815-.542 2.722-1.066.048-2.133.016-3.2.032.08-.557.223-1.13.191-1.704.128.462.016 1.003.064 1.481.955.064 1.942.096 2.898-.032.063-.812.477-1.608.35-2.404-3.089-.063-6.177 0-9.266-.032-1.05-.047-2.101-.27-3.104-.54-.335-.049-.605-.192-.86-.367Z" fill="#1D105F"/><path d="M158.029 149.36c.684-.08 1.4-.033 2.101 0 .096.716-.159 1.273-.238 1.973-.112.462.015.876-.494 1.099-.605.19-1.321.111-1.942.08-.048-.59.127-1.083.239-1.656.095-.494.175-1.02.334-1.497Z" fill="#0160AB"/><path d="M101.814 150.267c5.19.047 10.396 0 15.586.016-.51.127-1.083.047-1.608.063-4.649.016-9.282-.016-13.93.016l-.048-.095ZM101.639 150.697c-.096.827-.303 1.623-.462 2.435-.493 2.516-1.035 5.015-1.544 7.547-.112.493-.239.987-.255 1.496.59.064 1.178.064 1.767.048h12.577c3.184-.064 6.369-.016 9.553-.032.955 0 1.894.032 2.85-.048-.51.223-1.035.128-1.577.144-8.23-.016-16.446.031-24.676.015-.191 0-.398-.015-.59-.015 0-.51.08-.972.208-1.465.573-2.786 1.13-5.572 1.703-8.358.127-.621.207-1.194.446-1.767Z" fill="#1D105F"/><path d="M82.248 151.317c.493-.111 1.035-.047 1.544-.063h9.711c.558 0 1.13-.064 1.656.111-1.878.685-3.693 1.529-5.556 2.26-.43.192-.923.335-1.29.622-.302.875-.413 1.83-.62 2.754-.717.111-1.417.048-2.15.064H72.807c-.955-.016-2.054-.128-2.834-.733 2.038-1.034 4.14-1.926 6.177-2.96 1.847-.049 3.694 0 5.54-.017.335-.62.192-1.496.558-2.038ZM102.928 151.333c.717-.111 1.481-.063 2.197-.063h9.887c.27 0 .525.047.796.111-2.022.828-4.028 1.672-6.05 2.5-.239.111-.541.207-.716.398-.319.923-.366 1.942-.637 2.865-.414.382-1.05.557-1.56.828-1.895.924-3.837 1.751-5.7 2.738h-.143c.048-.748.239-1.448.382-2.18.462-2.198.908-4.395 1.353-6.592.048-.207.096-.414.191-.605Z" fill="#FFF"/><path d="m94.506 161.904-.095.207c-.716.048-1.465.016-2.181.016H71.533c-1.13 0-2.244.032-3.375-.063 8.231.032 16.478 0 24.709.016.573 0 1.114.031 1.64-.176Z" fill="#A9B9DD"/><path d="M139.243 162.16c.78.079 1.56.047 2.356.047h22.13c.97 0 1.942.016 2.913-.032-.653.143-1.29.08-1.958.08-8.486 0-16.956 0-25.425.016l-.016-.112Z" fill="#231F20"/><path d="M68.715 166.521c7.96-.031 16.016 0 23.992-.016.446-.015.892-.047 1.322.112H68.572l.143-.096Z" fill="#0160AB"/></g></svg>