<svg width="200" height="200" xmlns="http://www.w3.org/2000/svg"><g fill="none"><path d="M187.742 116.156h-9.473l-6.409 25.97H146.9l-7.304 29.582h-36.318l8.136-32.958H83.82l-19.494-14.332 3.413-13.729H38.931L19.029 96.682l12.896-52.24-19.19-15.03 95.266.009-6.88 27.866 1.048-.54h28.14l20.447 14.167-4.677 18.793h48.192l-6.53 26.449zm-36.023-30.835l4.052-16.28-24.075-16.682h-24.812l6.746-27.325L0 25.025l26.96 21.114-12.935 52.397 23.5 16.54H62.1l-2.767 11.129 23.03 16.932h23.42l-8.136 32.957h45.411l6-24.301s2.953 1.461 5.675-.693c2.293-1.814 1.824-4.588 1.824-4.588h18.767l6.409-25.97h9.472l8.695-35.221h-48.18z" fill="#FFF"/><path d="M182.258 109.21h-43.423l7.536 5.897-1.856 7.512h24.96l-3.099 12.56h-24.961l-7.304 29.583H112.19l9.42-38.155-9.632 5.198H86.125l-13.894-10.216 5.913-23.783-11.489 6.303H41.04L26.535 93.901l12.838-52.005-7.535-5.901 30.91.005-13.713 55.553H63.92l12.259-49.65-7.534-5.9L99.556 36l-8.465 34.287 12.785-6.595h24.236l14.704 10.188-3.88 15.584h-21.772l3.269-13.14H96.271l7.537 5.879-9.198 36.965h15.167l4.117-16.556h13.64l-7.519-5.959h65.342l-3.1 12.557zm-36.179-19.503l4.677-18.793-20.447-14.168h-28.14l-1.049.541L108 29.421l-95.265-.008 19.19 15.03-12.896 52.24 19.902 14.006h28.808l-3.413 13.729L83.82 138.75h27.593l-8.136 32.958h36.318l7.304-29.583h24.961l6.41-25.969h9.472l6.53-26.449h-48.193zm4.803 57.304h.403c.472 0 .853-.156.853-.535 0-.335-.247-.558-.785-.558-.225 0-.382.023-.471.045v1.048zm-.023 2.051h-.853v-3.656c.337-.045.808-.112 1.414-.112.696 0 1.01.112 1.257.29.225.156.381.424.381.78 0 .446-.336.736-.763.87v.045c.36.111.539.4.651.891.112.558.202.758.27.892h-.898c-.112-.134-.18-.446-.292-.892-.067-.379-.292-.557-.763-.557h-.404v1.45zm-2.266-1.895c0 1.627 1.234 2.92 2.872 2.92 1.593.023 2.805-1.293 2.805-2.898 0-1.627-1.212-2.943-2.85-2.943-1.593 0-2.827 1.316-2.827 2.921zm6.62 0c0 2.051-1.661 3.679-3.77 3.679-2.11 0-3.793-1.628-3.793-3.679 0-2.052 1.683-3.657 3.815-3.657 2.087 0 3.748 1.605 3.748 3.657z" fill="#100F0D"/><path d="M181.594 99.586l-.752 3.048H133.72l-14.631 59.195h-3.135l14.914-60.41-2.34-1.833h53.066zm-63.006 9.006l-4.117 16.556H93.22l.758-3.047h18.11l4.116-16.556h9.419l-.758 3.047h-6.278zm-40.365 13.754l-2.654-1.952 11.064-44.502 17.964-9.267h22.586l4.398 3.047H105.36l-16.052 8.295-11.085 44.379zm-9.606-24.813H47.653l.752-3.047h17.83l13.261-53.718-2.34-1.833 18.636-.001-.752 3.047-12.706.001-13.717 55.55zM32.55 94.54l-2.67-1.878 12.813-51.9-2.34-1.833 18.632.003-.752 3.047-12.659-.002L32.55 94.54zm91.524-8.009h-3.14l2.511-10.094h3.14l-2.51 10.094zm19.812 39.021h21.827c-.28 1.13-.524 2.125-.753 3.047h-21.828l.754-3.047zm-16.352-22.94h-13.64l-4.117 16.556H94.61l9.198-36.965-7.537-5.88h24.162l-3.269 13.141h21.772l3.88-15.584-14.704-10.188h-24.236l-12.785 6.595L99.556 36l-30.912.003 7.534 5.9-12.259 49.65H49.035L62.75 36l-30.91-.005 7.534 5.901-12.838 52.005L41.04 104.11h25.616l11.489-6.303-5.913 23.783 13.894 10.216h25.853l9.632-5.198-9.42 38.155h21.921l7.304-29.582h24.961l3.1-12.561h-24.961l1.856-7.512-7.536-5.897h43.423l3.1-12.557h-65.343l7.519 5.959z" fill="#AEA057"/><path d="M115.954 161.83h3.135l14.63-59.196h47.123l.752-3.048h-53.066l2.34 1.834-14.914 60.41zm49.759-36.278h-21.827l-.754 3.047h21.828c.229-.922.473-1.917.753-3.047zM58.985 38.932l-18.632-.003 2.34 1.833-12.812 51.9 2.67 1.878 13.023-52.563 12.659.002.752-3.047zm36.055 3.05l.752-3.048-18.635.001 2.34 1.833-13.262 53.718h-17.83l-.752 3.047h20.964l13.717-55.55 12.706-.002zm30.584 63.563h-9.419l-4.117 16.556h-18.11l-.757 3.047h21.25l4.117-16.556h6.278l.758-3.047zm5.957-35.873l-4.398-3.048-22.586.001-17.964 9.267-11.064 44.502 2.654 1.952 11.085-44.379 16.052-8.295h26.221zm-8.136 6.765h3.14l-2.51 10.094h-3.141l2.511-10.094z" fill="#FFF"/></g></svg>