<svg width="200" height="200" xmlns="http://www.w3.org/2000/svg"><g fill-rule="nonzero" fill="none"><path d="M187.742 115.88h-9.473l-6.409 26.141H146.9l-7.304 29.778h-36.318l8.136-33.175H83.82l-19.494-14.427 3.413-13.819H38.931l-19.902-14.1 12.896-52.583-19.19-15.128 95.266.008-6.88 28.05 1.048-.545h28.14l20.447 14.261-4.677 18.917h48.192l-6.53 26.623Zm-36.023-31.037 4.052-16.388-24.075-16.79h-24.812l6.746-27.505L0 24.15l26.96 21.253-12.935 52.742 23.5 16.65H62.1l-2.767 11.2 23.03 17.044h23.42l-8.136 33.175h45.411l6-24.462s2.953 1.471 5.675-.697c2.293-1.826 1.824-4.618 1.824-4.618h18.767l6.409-26.14h9.472l8.695-35.454h-48.18Z" fill="#FFF"/><path d="M182.258 108.89h-43.423l7.536 5.935-1.856 7.561h24.96l-3.099 12.644h-24.961l-7.304 29.777H112.19l9.42-38.406-9.632 5.231H86.125L72.231 121.35l5.913-23.939-11.489 6.345H41.04L26.535 93.48l12.838-52.347-7.535-5.94 30.91.005-13.713 55.918H63.92l12.259-49.977-7.534-5.939 30.912-.002-8.465 34.512 12.785-6.639h24.236l14.704 10.256-3.88 15.686h-21.772l3.269-13.227H96.271l7.537 5.919-9.198 37.208h15.167l4.117-16.665h13.64l-7.519-5.998h65.342l-3.1 12.64Zm-36.179-19.632 4.677-18.917-20.447-14.26h-28.14l-1.049.544 6.88-28.05-95.265-.008 19.19 15.128L19.03 96.28l19.902 14.1h28.808l-3.413 13.818 19.494 14.427h27.593l-8.136 33.175h36.318l7.304-29.778h24.961l6.41-26.14h9.472l6.53-26.623h-48.193Zm4.803 57.68h.403c.472 0 .853-.156.853-.538 0-.336-.247-.56-.785-.56-.225 0-.382.021-.471.044v1.055Zm-.023 2.066h-.853v-3.681c.337-.045.808-.112 1.414-.112.696 0 1.01.112 1.257.291.225.158.381.427.381.786 0 .449-.336.74-.763.875v.045c.36.113.539.404.651.898.112.56.202.763.27.898h-.898c-.112-.135-.18-.45-.292-.898-.067-.382-.292-.562-.763-.562h-.404v1.46Zm-2.266-1.908c0 1.638 1.234 2.94 2.872 2.94 1.593.022 2.805-1.302 2.805-2.918 0-1.638-1.212-2.962-2.85-2.962-1.593 0-2.827 1.324-2.827 2.94Zm6.62 0c0 2.064-1.661 3.703-3.77 3.703-2.11 0-3.793-1.639-3.793-3.703 0-2.065 1.683-3.68 3.815-3.68 2.087 0 3.748 1.615 3.748 3.68Z" fill="#100F0D"/><path d="m181.594 99.202-.752 3.067H133.72l-14.631 59.586h-3.135l14.914-60.807-2.34-1.846h53.066Zm-63.006 9.065-4.117 16.665H93.22l.758-3.067h18.11l4.116-16.665h9.419l-.758 3.067h-6.278Zm-40.365 13.844-2.654-1.964 11.064-44.795 17.964-9.328h22.586l4.398 3.067H105.36l-16.052 8.35-11.085 44.67Zm-9.606-24.976H47.653l.752-3.067h17.83l13.261-54.071-2.34-1.845 18.636-.001-.752 3.067-12.706.001-13.717 55.916ZM32.55 94.123l-2.67-1.89L42.694 39.99l-2.34-1.845 18.632.003-.752 3.067-12.659-.002-13.024 52.91Zm91.524-8.062h-3.14l2.511-10.16h3.14l-2.51 10.16Zm19.812 39.278h21.827l-.753 3.067h-21.828l.754-3.067Zm-16.352-23.091h-13.64l-4.117 16.665H94.61l9.198-37.208-7.537-5.92h24.162l-3.269 13.228h21.772l3.88-15.686-14.704-10.256h-24.236L91.091 69.71l8.465-34.512-30.912.002 7.534 5.939-12.259 49.977H49.035L62.75 35.198l-30.91-.006 7.534 5.94L26.535 93.48l14.504 10.275h25.616l11.489-6.345-5.913 23.94 13.894 10.282h25.853l9.632-5.231-9.42 38.406h21.921l7.304-29.777h24.961l3.1-12.644h-24.961l1.856-7.561-7.536-5.936h43.423l3.1-12.64h-65.343l7.519 5.999Z" fill="#AEA057"/><path d="M115.954 161.855h3.135l14.63-59.586h47.123l.752-3.067h-53.066l2.34 1.846-14.914 60.807Zm49.759-36.516h-21.827l-.754 3.067h21.828l.753-3.067ZM58.985 38.149l-18.632-.003 2.34 1.845-12.812 52.241 2.67 1.891 13.023-52.91 12.659.003.752-3.067Zm36.055 3.069.752-3.067-18.635.001 2.34 1.845-13.262 54.071h-17.83l-.752 3.067h20.964L82.334 41.22l12.706-.001Zm30.584 63.982h-9.419l-4.117 16.665h-18.11l-.757 3.067h21.25l4.117-16.665h6.278l.758-3.067Zm5.957-36.11-4.398-3.067-22.586.001-17.964 9.328-11.064 44.795 2.654 1.964 11.085-44.67 16.052-8.35h26.221Zm-8.136 6.81h3.14l-2.51 10.161h-3.141l2.511-10.16Z" fill="#FFF"/></g></svg>