<?xml version="1.0" encoding="UTF-8"?>
<svg width="200px" height="200px" viewBox="0 0 200 200" version="1.1" xmlns="http://www.w3.org/2000/svg" xmlns:xlink="http://www.w3.org/1999/xlink">
    <!-- Generator: Sketch 51.3 (57544) - http://www.bohemiancoding.com/sketch -->
    <title>ucf</title>
    <desc>Created with Sketch.</desc>
    <defs></defs>
    <g id="ucf" stroke="none" stroke-width="1" fill="none" fill-rule="evenodd">
        <g id="ucf_BGL" transform="translate(0.000000, 24.875622)">
            <g id="ucf">
                <g id="g10" transform="translate(99.950022, 75.654206) scale(-1, 1) rotate(-180.000000) translate(-99.950022, -75.654206) translate(0.000000, 0.089376)" fill-rule="nonzero">
                    <g id="g12">
                        <path d="M187.741525,59.9386984 L178.269261,59.9386984 L171.860465,33.9692211 L146.898547,33.9692211 L139.594999,4.38635469 L103.276559,4.38635469 L111.413291,37.3443178 L83.8196881,37.3443178 L64.3260354,51.6766127 L67.7391287,65.4051834 L38.9305338,65.4051834 L19.0288451,79.4125793 L31.9252366,131.652602 L12.7351121,146.68196 L108.000597,146.674016 L101.120237,118.807574 L102.169313,119.348542 L130.308842,119.348542 L150.756018,105.180881 L146.079157,86.3871833 L194.27106,86.3871833 L187.741525,59.9386984 Z M151.719337,90.7741139 L155.770711,107.054413 L131.696349,123.735473 L106.883755,123.735473 L113.630382,151.060351 L0,151.069685 L26.9595196,129.95562 L14.0246273,77.5583117 L37.5250365,61.0180542 L62.1001484,61.0180542 L59.3333318,49.8898669 L82.3634162,32.9575857 L105.783706,32.9575857 L97.6469741,0.000232727761 L143.058267,0.000232727761 L149.058467,24.3020863 C149.058467,24.3020863 152.011191,22.8406366 154.73323,24.9943832 C157.026283,26.8089321 156.556518,29.5824891 156.556518,29.5824891 L175.324134,29.5824891 L181.732729,55.552165 L191.205393,55.552165 L199.900045,90.7741139 L151.719337,90.7741139 Z" id="path14" fill="#FFFFFF"></path>
                        <path d="M182.257867,66.884705 L138.835179,66.884705 L146.371211,60.9880665 L144.514539,53.4756713 L169.475458,53.4756713 L166.376208,40.915029 L141.414889,40.915029 L134.111341,11.3323215 L112.189702,11.3323215 L121.609992,49.487715 L111.978208,44.2901257 L86.1251353,44.2901257 L72.2308828,54.5059744 L78.1437262,78.28854 L66.6552707,71.9853807 L41.0390794,71.9853807 L26.5351318,82.1934842 L39.3731125,134.198372 L31.8380802,140.099975 L62.7486241,140.094613 L49.0350812,84.542051 L63.9194387,84.542051 L76.1775093,134.192017 L68.644476,140.092032 L99.5562194,140.094613 L91.0910522,105.807841 L103.876059,112.402933 L128.111541,112.402933 L142.815589,102.21449 L138.936128,86.630659 L117.164415,86.630659 L120.43298,99.7715914 L96.271262,99.7715914 L103.808093,93.8916348 L94.6102925,56.9264321 L109.776709,56.9264321 L113.89385,73.4827757 L127.53403,73.4827757 L120.01499,79.441574 L185.357317,79.441574 L182.257867,66.884705 Z M146.079157,86.3871833 L150.756018,105.180881 L130.308842,119.348542 L102.169313,119.348542 L101.120237,118.807574 L108.000597,146.674016 L12.7351121,146.68196 L31.9252366,131.652602 L19.0288451,79.4125793 L38.9305338,65.4051834 L67.7391287,65.4051834 L64.3260354,51.6766127 L83.8196881,37.3443178 L111.413291,37.3443178 L103.276559,4.38635469 L139.594999,4.38635469 L146.898547,33.9692211 L171.860465,33.9692211 L178.269261,59.9386984 L187.741525,59.9386984 L194.27106,86.3871833 L146.079157,86.3871833 Z M150.881555,29.0840194 L151.285354,29.0840194 C151.756718,29.0840194 152.138127,29.2397167 152.138127,29.6188317 C152.138127,29.9532631 151.891251,30.1762837 151.35292,30.1762837 C151.128432,30.1762837 150.970911,30.1540412 150.881555,30.1314015 L150.881555,29.0840194 Z M150.858767,27.0325484 L150.005993,27.0325484 L150.005993,30.6890521 C150.342825,30.733537 150.813989,30.8004631 151.420086,30.8004631 C152.115738,30.8004631 152.430181,30.6890521 152.677058,30.5109137 C152.901545,30.354422 153.058267,30.0871152 153.058267,29.7302426 C153.058267,29.2842016 152.721635,28.9946523 152.295049,28.8609988 L152.295049,28.8161167 C152.654469,28.7045072 152.833979,28.4149578 152.946123,27.9244319 C153.058267,27.3669799 153.148422,27.1662018 153.215388,27.0325484 L152.318037,27.0325484 C152.205693,27.1662018 152.138127,27.4783908 152.025783,27.9244319 C151.958817,28.3035469 151.734329,28.4820824 151.262965,28.4820824 L150.858767,28.4820824 L150.858767,27.0325484 Z M148.5927,28.9275277 C148.5927,27.3002525 149.826683,26.0072101 151.465064,26.0072101 C153.058267,25.9849677 154.270061,27.3002525 154.270061,28.9052852 C154.270061,30.5329576 153.058267,31.848441 151.420086,31.848441 C149.826683,31.848441 148.5927,30.5329576 148.5927,28.9275277 Z M155.21279,28.9275277 C155.21279,26.8766525 153.55202,25.2487815 151.442275,25.2487815 C149.33313,25.2487815 147.649971,26.8766525 147.649971,28.9275277 C147.649971,30.9791972 149.33313,32.5842299 151.465064,32.5842299 C153.55202,32.5842299 155.21279,30.9791972 155.21279,28.9275277 Z" id="path16" fill="#100F0D"></path>
                        <path d="M181.593998,76.5083478 L180.842174,73.461129 L133.719737,73.461129 L119.088853,14.2653689 L115.95442,14.2653689 L130.868163,74.6749326 L128.527533,76.5083478 L181.593998,76.5083478 Z M118.587903,67.5023308 L114.470762,50.9463844 L93.2207873,50.9463844 L93.9788082,53.9936032 L112.088153,53.9936032 L116.205294,70.5497482 L125.623785,70.5497482 L124.866364,67.5023308 L118.587903,67.5023308 Z M78.2232864,53.748936 L75.5688137,55.7003158 L86.6326815,100.203135 L104.596899,109.469707 L127.182606,109.470303 L131.581006,106.422885 L105.359917,106.422687 L89.3083436,98.1274358 L78.2232864,53.748936 Z M68.6170897,78.5618047 L47.6525725,78.5618047 L48.4049963,81.6090235 L66.2350808,81.6090235 L79.4964498,135.326582 C79.4964498,135.326582 77.3265348,137.026741 77.1568197,137.159203 L95.7923015,137.16099 L95.0402775,134.113573 L82.3342308,134.11258 L68.6170897,78.5618047 Z M32.550324,81.5542117 L29.8806589,83.4329063 L42.6932523,135.332937 L40.3534223,137.165756 L58.985106,137.162181 L58.2328821,134.115161 L45.5742118,134.117942 L32.550324,81.5542117 Z M124.07416,89.5636865 L120.93393,89.5636865 L123.445074,99.6574002 L126.585504,99.6574002 L124.07416,89.5636865 Z M143.886053,50.5426438 C149.63298,50.5426438 161.640376,50.5426438 165.712939,50.5426438 C165.433079,49.4130439 165.188602,48.4178918 164.960116,47.4952264 C157.43248,47.4952264 143.13223,47.4952264 143.13223,47.4952264 C143.13223,47.4952264 143.465264,48.8436763 143.886053,50.5426438 Z M127.53403,73.4827757 L113.89385,73.4827757 L109.776709,56.9264321 L94.6102925,56.9264321 L103.808093,93.8916348 L96.271262,99.7715914 L120.43298,99.7715914 L117.164415,86.630659 L138.936128,86.630659 L142.815589,102.21449 L128.111541,112.402933 L103.876059,112.402933 L91.0910522,105.807841 L99.5562194,140.094613 L68.644476,140.092032 L76.1775093,134.192017 L63.9194387,84.542051 L49.0350812,84.542051 L62.7486241,140.094613 L31.8380802,140.099975 L39.3731125,134.198372 L26.5351318,82.1934842 L41.0390794,71.9853807 L66.6552707,71.9853807 L78.1437262,78.28854 L72.2308828,54.5059744 L86.1251353,44.2901257 L111.978208,44.2901257 L121.609992,49.487715 L112.189702,11.3323215 L134.111341,11.3323215 L141.414889,40.915029 L166.376208,40.915029 L169.475458,53.4756713 L144.514539,53.4756713 L146.371211,60.9880665 L138.835179,66.884705 L182.257867,66.884705 L185.357317,79.441574 L120.01499,79.441574 L127.53403,73.4827757 Z" id="path18" fill="#AEA057"></path>
                        <path d="M115.95442,14.2653689 L119.088853,14.2653689 L133.719737,73.461129 L180.842174,73.461129 L181.593998,76.5083478 L128.527533,76.5083478 L130.868163,74.6749326 L115.95442,14.2653689 Z M165.712939,50.5426438 C161.640376,50.5426438 149.63298,50.5426438 143.886053,50.5426438 C143.465264,48.8436763 143.13223,47.4952264 143.13223,47.4952264 C143.13223,47.4952264 157.43248,47.4952264 164.960116,47.4952264 C165.188602,48.4178918 165.433079,49.4130439 165.712939,50.5426438 Z M58.985106,137.162181 L40.3534223,137.165756 L42.6932523,135.332937 L29.8806589,83.4329063 L32.550324,81.5542117 L45.5742118,134.117942 L58.2328821,134.115161 L58.985106,137.162181 Z M95.0402775,134.113573 L95.7923015,137.16099 L77.1568197,137.159203 C77.3265348,137.026741 79.4964498,135.326582 79.4964498,135.326582 L66.2350808,81.6090235 L48.4049963,81.6090235 L47.6525725,78.5618047 L68.6170897,78.5618047 L82.3342308,134.11258 L95.0402775,134.113573 Z M125.623785,70.5497482 L116.205294,70.5497482 L112.088153,53.9936032 L93.9788082,53.9936032 L93.2207873,50.9463844 L114.470762,50.9463844 L118.587903,67.5023308 L124.866364,67.5023308 L125.623785,70.5497482 Z M131.581006,106.422885 L127.182606,109.470303 L104.596899,109.469707 L86.6326815,100.203135 L75.5688137,55.7003158 L78.2232864,53.748936 L89.3083436,98.1274358 L105.359917,106.422687 L131.581006,106.422885 Z M123.445074,99.6574002 L126.585504,99.6574002 L124.07416,89.5636865 L120.93393,89.5636865 L123.445074,99.6574002 Z" id="path20" fill="#FFFFFF"></path>
                    </g>
                </g>
            </g>
        </g>
    </g>
</svg>