<svg width="200" height="200" xmlns="http://www.w3.org/2000/svg"><g fill="#29699A" fill-rule="evenodd"><path d="M195.911 96.716v-1.01h.675c.348 0 .72.071.72.478 0 .506-.379.532-.798.532h-.597Zm1.913-.501c0-.643-.385-.933-1.162-.933h-1.247v3.282h.496v-1.422h.573l.87 1.422h.553l-.935-1.444c.483-.06.852-.319.852-.905Zm-1.31 3.08c-1.3 0-2.319-1.01-2.319-2.383 0-1.34 1.019-2.359 2.319-2.359 1.286 0 2.3 1.019 2.3 2.36 0 1.371-1.014 2.381-2.3 2.381Zm0-5.215c-1.565 0-2.889 1.202-2.889 2.832 0 1.652 1.324 2.857 2.889 2.857 1.548 0 2.875-1.205 2.875-2.857 0-1.63-1.327-2.832-2.875-2.832ZM130.327 99.205c.98-3.752 5.376-19.404 12.987-32.162 1.696-2.393 3.414-3.823 4.594-3.823.398 0 .712.168.935.496.714 1.045.425 3.498-.775 6.556-4.246 10.852-13.921 25.097-17.74 28.933m26.005 34.847c-3.524-1.094-2.892-6.369-1.807-11.386 2.746-12.934 9.41-17.334 9.49-17.38 1.104-.796 2.142-1.198 3.082-1.198.922 0 1.734.403 2.346 1.168 1.2 1.5 1.538 4.246.883 7.168-.326 1.459-6.36 16.07-6.412 16.203-2.013 3.715-4.17 5.522-6.596 5.522-.326 0-.664-.034-.986-.097m40.85-4.912c-.46-1.1-1.411-1.708-2.68-1.708-1.925 0-4.518 1.374-7.5 3.973-1.488 1.3-3.842 2.697-5.495 2.697-.652 0-1.134-.22-1.432-.659-.51-.748-.761-2.556.951-6.93.436-1.3 2.45-6.373 4.396-11.279 2.136-5.382 4.344-10.945 4.585-11.815 1.09-2.968 1.085-5.372-.016-6.949-.877-1.259-2.44-1.95-4.401-1.95-4.149 0-9.358 3.003-10.783 7.885-2.86-5.083-6.811-7.767-11.452-7.767-4.513 0-9.481 2.517-13.989 7.087-6.593 6.684-10.786 16.386-10.694 24.739-.605.645-7.46 7.836-12.706 7.837-.499 0-.976-.067-1.415-.196-.738-.22-1.318-.725-1.721-1.5-2.263-4.35 1.454-15.867 1.686-16.575 15.61-16.346 24.66-31.472 28.008-39.017 3.688-8.313 4.908-15.96 1.8-20.96-1.47-2.362-4.195-3.604-8.093-3.693-.32-.017-.642-.027-.958-.027-8.415 0-13.877 6.256-16.385 9.987-5.373 8.269-16.155 36.655-21.524 64.124-2.551 2.314-5.883 3.986-8.564 5.33-.554.278-1.076.542-1.552.79-2.411 1.26-4.596 1.897-6.491 1.897h-.003c-2.519 0-4.485-1.146-5.687-3.318-2.787-5.034-1.07-14.41 4.183-22.798 1.617-2.585 4.294-4.256 6.82-4.256 1.209 0 2.237.41 2.894 1.155.627.71.911 1.707.833 2.905-1.025-1.226-2.357-1.899-3.792-1.899-2.325 0-5.046 1.905-5.523 6.093-.064 1.335.4 2.56 1.335 3.542 1.251 1.312 3.292 2.095 5.46 2.095 4.536 0 9.213-3.338 9.444-10.793.108-3.486-.916-6.444-2.957-8.55-2.218-2.287-5.613-3.547-9.564-3.547-6.087 0-12.685 2.918-17.644 7.802-4.146 4.082-9.133 11.436-9.372 23.301-.177.45-2.802 6.912-8.713 8.056-.991.198-1.76-.064-2.332-.785-1.76-2.232-1.483-8.646.775-18.07 1.322-6.086 1.878-8.152 2.524-10.542.485-1.804 1.036-3.85 2.012-7.986.839-3.552 3.17-12.176 5.425-20.518 2.208-8.17 4.293-15.884 4.491-17.07.424-2.567-1.22-4.816-4.003-5.468-1.183-.274-2.275-.408-3.34-.408-1.838 0-3.616.414-5.287 1.228-3.357 1.635-4.65 5.056-5.142 7.63-2.026 8.13-3.504 13.507-4.809 18.255-1.512 5.5-2.818 10.25-4.492 17.542-.116.494-.253 1.102-.411 1.807-2.083 9.236-7.617 33.763-16.178 33.766h-.002c-.165 0-.328-.01-.496-.029-1.454-.163-2.506-.724-3.212-1.716-1.575-2.21-1.498-6.663.248-14.437 1.674-6.51 3.368-12.391 5.01-18.078 2.02-7.008 3.93-13.628 5.444-20.264 1.968-7.5.914-14.866-2.817-19.704-2.77-3.592-6.775-5.49-11.58-5.49-3.02 0-6.327.753-9.826 2.236C2.557 59.508-.22 69.255.89 74.706c.594 2.925 2.184 4.602 4.359 4.602h.053c3.462-.04 3.585-3.501 3.693-6.555.024-.644.046-1.254.096-1.8.703-4.002 2.83-6.297 5.837-6.297.124 0 .248.004.344.008 4.444 1.156 4.728 4.233 3.335 12.871-.341 1.16-.697 2.363-1.065 3.608-2.898 9.806-6.507 22.008-9.949 37.43-2.366 10.728-1.586 18.63 2.316 23.486 3.305 4.115 7.994 4.98 11.348 4.98 2.624 0 5.326-.538 7.607-1.515 5.131-2.198 7.238-4.307 10.435-10.565 1.761 7.605 6.05 11.785 12.108 11.785 5.918 0 12.761-4.083 17.92-10.672 1.822 5.888 7.324 9.605 11.887 10.245 1.316.256 2.674.385 4.035.385 10.159 0 18.964-7.132 22.493-10.434 1.116 6.86 5.535 10.633 12.472 10.633 7.568 0 16.726-4.61 21.002-10.538 2.962 6.621 7.326 10.264 12.307 10.264 5.21 0 10.602-4.134 13.08-9.935.106 3.393 1.089 6.113 2.862 7.901 1.56 1.575 3.71 2.408 6.215 2.408h.002c2.354 0 4.973-.74 7.563-2.136 4.986-2.502 5.96-3.346 12.09-9.188 1.835-1.855 2.63-4.666 1.848-6.537"/></g></svg>