<?xml version="1.0" encoding="UTF-8"?>
<svg width="200px" height="200px" viewBox="0 0 200 200" version="1.1" xmlns="http://www.w3.org/2000/svg" xmlns:xlink="http://www.w3.org/1999/xlink">
    <!-- Generator: Sketch 52.4 (67378) - http://www.bohemiancoding.com/sketch -->
    <title>ucla</title>
    <desc>Created with Sketch.</desc>
    <g id="ucla" stroke="none" stroke-width="1" fill="none" fill-rule="evenodd">
        <g id="ucla_BGL" transform="translate(-2.000000, 52.000000)" fill="#29699A">
            <g id="UCLA_WW_PRI_LOGO_ON_WHT" transform="translate(-1.000000, 0.000000)">
                <path d="M199.083262,45.439881 L199.083262,44.4132976 L199.76919,44.4132976 C200.122548,44.4132976 200.500155,44.4860476 200.500155,44.8994524 C200.500155,45.4133214 200.115619,45.439881 199.689512,45.439881 L199.083262,45.439881 Z M201.026726,44.930631 C201.026726,44.2770357 200.635262,43.9825714 199.84656,43.9825714 L198.578631,43.9825714 L198.578631,47.3175238 L199.083262,47.3175238 L199.083262,45.8729167 L199.665262,45.8729167 L200.548655,47.3175238 L201.111024,47.3175238 L200.160655,45.8509762 C200.651429,45.788619 201.026726,45.5264881 201.026726,44.930631 Z M199.695286,48.0600357 C198.374238,48.0600357 197.339571,47.0334524 197.339571,45.6396548 C197.339571,44.2770357 198.374238,43.242369 199.695286,43.242369 C201.002476,43.242369 202.033679,44.2770357 202.033679,45.6396548 C202.033679,47.0334524 201.002476,48.0600357 199.695286,48.0600357 Z M199.695286,42.7608333 C198.105179,42.7608333 196.759881,43.9825714 196.759881,45.6396548 C196.759881,47.3175238 198.105179,48.5427262 199.695286,48.5427262 C201.269226,48.5427262 202.616833,47.3175238 202.616833,45.6396548 C202.616833,43.9825714 201.269226,42.7608333 199.695286,42.7608333 Z" id="Fill-1"></path>
                <path d="M132.437333,47.9688095 C133.432738,44.1569405 137.900512,28.25125 145.633952,15.2867381 C147.358012,12.8548095 149.104012,11.402119 150.302655,11.402119 C150.706821,11.402119 151.02669,11.571869 151.253024,11.9055952 C151.978214,12.9679762 151.684905,15.4599524 150.465476,18.5674167 C146.150131,29.5953929 136.318488,44.0714881 132.437333,47.9688095 M158.86406,83.3807381 C155.283143,82.2687024 155.92519,76.9082976 157.027988,71.8100238 C159.817893,58.6665238 166.589417,54.1952857 166.671405,54.1490952 C167.793833,53.3396071 168.848131,52.9308214 169.803119,52.9308214 C170.740786,52.9308214 171.565286,53.3407619 172.187702,54.1179167 C173.405976,55.6422024 173.750095,58.4332619 173.084952,61.4021548 C172.753536,62.884869 166.62175,77.7316429 166.568631,77.8679048 C164.523548,81.6428214 162.33181,83.4788929 159.866393,83.4788929 C159.534976,83.4788929 159.190857,83.44425 158.86406,83.3807381 M200.37544,78.3887024 C199.907762,77.2708929 198.941226,76.6530952 197.652512,76.6530952 C195.696345,76.6530952 193.061179,78.0492024 190.029929,80.6901429 C188.518345,82.0111905 186.126833,83.4315476 184.446655,83.4315476 C183.783821,83.4315476 183.294202,83.2075238 182.991655,82.7617857 C182.473167,82.0019524 182.217964,80.1647262 183.95819,75.7200476 C184.400464,74.3978452 186.446702,69.2429881 188.42481,64.257881 C190.595762,58.7889286 192.839464,53.1352143 193.084274,52.2518214 C194.19169,49.2355833 194.187071,46.7921071 193.068107,45.1904524 C192.176631,43.9109762 190.587679,43.2077262 188.595714,43.2077262 C184.379679,43.2077262 179.08625,46.2597619 177.638179,51.220619 C174.732798,46.055369 170.716536,43.3278214 166.000488,43.3278214 C161.414929,43.3278214 156.36631,45.885619 151.785369,50.5300714 C145.08544,57.322381 140.824369,67.1817381 140.917905,75.6692381 C140.303571,76.3251429 133.336893,83.6324762 128.006512,83.633631 C127.499571,83.633631 127.014571,83.5655 126.568833,83.4338571 C125.818238,83.2109881 125.22931,82.697119 124.819369,81.9095714 C122.520238,77.4891429 126.297464,65.785631 126.533036,65.0662143 C142.396,48.456119 151.591369,33.0850833 154.994452,25.4174643 C158.741655,16.970381 159.981869,9.19883333 156.823595,4.11788095 C155.329333,1.71828571 152.560214,0.456130952 148.599381,0.366059524 C148.274893,0.348738095 147.94694,0.338345238 147.625917,0.338345238 C139.074905,0.338345238 133.523964,6.69530952 130.975405,10.4875476 C125.51569,18.8895952 114.55931,47.7355476 109.10306,75.6496071 C106.510619,78.0007024 103.124857,79.6993571 100.400774,81.0654405 C99.83725,81.3483571 99.3072143,81.6162619 98.823369,81.868 C96.3729643,83.148631 94.1535119,83.7964524 92.227369,83.7964524 L92.2239048,83.7964524 C89.6649524,83.7964524 87.6672143,82.6312976 86.4454762,80.4245476 C83.6128452,75.3089524 85.3576905,65.7810119 90.6961548,57.2577143 C92.339381,54.630631 95.06,52.9319762 97.625881,52.9319762 C98.8545476,52.9319762 99.8996071,53.3488452 100.56706,54.106369 C101.204488,54.8269405 101.493179,55.8408214 101.4135,57.0579405 C100.371905,55.8119524 99.0185238,55.1283333 97.5600595,55.1283333 C95.1974167,55.1283333 92.4329167,57.0637143 91.9479167,61.3201667 C91.88325,62.6770119 92.3543929,63.9218452 93.3047619,64.9195595 C94.5761548,66.2521548 96.6501071,67.0477857 98.8533929,67.0477857 C103.462048,67.0477857 108.215048,63.65625 108.449464,56.0810119 C108.559167,52.5382024 107.518726,49.5323571 105.444774,47.3925833 C103.190679,45.0680476 99.7414048,43.7874167 95.7262976,43.7874167 C89.5402381,43.7874167 82.8356905,46.7528452 77.7963095,51.7160119 C73.5837381,55.8639167 68.5154881,63.3375357 68.2729881,75.3944048 C68.0928452,75.8516905 65.4253452,82.4176667 59.4182738,83.5805119 C58.4113214,83.7814405 57.6307024,83.5158452 57.0487024,82.7825714 C55.261131,80.514619 55.5417381,73.9971429 57.83625,64.4207024 C59.1803929,58.2357976 59.7450714,56.1364405 60.4009762,53.7079762 C60.8940595,51.8742143 61.454119,49.7956429 62.4460595,45.5923095 C63.2982738,41.9825238 65.6678452,33.2190357 67.9588929,24.7419286 C70.2025952,16.4403452 72.3215833,8.60066667 72.5225119,7.39625 C72.9532381,4.78764286 71.2822976,2.50236905 68.4542857,1.83953571 C67.2521786,1.5612381 66.1424524,1.42497619 65.0604405,1.42497619 C63.1931905,1.42497619 61.3859881,1.84530952 59.6884881,2.67211905 C56.2761667,4.33382143 54.9632024,7.81080952 54.4631905,10.4251905 C52.40425,18.6875119 50.9019048,24.1518452 49.5762381,28.9764405 C48.03925,34.5666429 46.7124286,39.3935476 45.0114643,46.8025 C44.8936786,47.3048214 44.7539524,47.922619 44.5934405,48.6385714 C42.4767619,58.0244762 36.8530714,82.9488571 28.1530952,82.9511667 L28.1519405,82.9511667 C27.9833452,82.9511667 27.8182143,82.9419286 27.6473095,82.9222976 C26.170369,82.7560119 25.1010595,82.1867143 24.3839524,81.1786071 C22.7834524,78.9325952 22.8608214,74.4070833 24.6356905,66.5073571 C26.3366548,59.8917262 28.0584048,53.9158333 29.725881,48.1374048 C31.7802024,41.0159881 33.7202024,34.2883452 35.2583452,27.5445357 C37.2583929,19.9231071 36.1879286,12.4379405 32.3956905,7.52211905 C29.580381,3.87191667 25.511,1.94230952 20.6286667,1.94230952 C17.5593095,1.94230952 14.1989524,2.70791667 10.6434405,4.21488095 C2.59821429,7.6295119 -0.222869048,17.5339048 0.904178571,23.0732976 C1.50811905,26.0456548 3.12363095,27.7500833 5.33384524,27.7500833 L5.38811905,27.7500833 C8.90552381,27.7096667 9.03139286,24.1922619 9.14109524,21.0894167 C9.16534524,20.4346667 9.18728571,19.8145595 9.23809524,19.259119 C9.95289286,15.1932024 12.1146071,12.8605833 15.1701071,12.8605833 C15.2959762,12.8605833 15.4218452,12.8652024 15.5188452,12.8686667 C20.035119,14.0442143 20.3238095,17.1701548 18.9080714,25.9486548 C18.5616429,27.1276667 18.2002024,28.3494048 17.8260595,29.6150238 C14.8814167,39.5794643 11.2138929,51.9792976 7.71611905,67.6517262 C5.31190476,78.5526786 6.10407143,86.5828929 10.0695238,91.5171905 C13.4275714,95.6985833 18.1932738,96.5773571 21.6009762,96.5773571 C24.2673214,96.5773571 27.0133452,96.0311548 29.3309524,95.0380595 C34.5458571,92.80475 36.6867857,90.6615119 39.935131,84.3022381 C41.7250119,92.0299048 46.0830833,96.2782738 52.239119,96.2782738 C58.253119,96.2782738 65.2070952,92.1292143 70.4485595,85.43275 C72.3007976,91.4167262 77.8921548,95.1939524 82.5285238,95.8440833 C83.8657381,96.1039048 85.2456786,96.2355476 86.6290833,96.2355476 C96.9526548,96.2355476 105.89975,88.9882619 109.48644,85.6325238 C110.620417,92.6026667 115.111286,96.437631 122.159952,96.437631 C129.850667,96.437631 139.156893,91.7527619 143.502262,85.728369 C146.512726,92.4571667 150.947012,96.1593333 156.008333,96.1593333 C161.302917,96.1593333 166.782262,91.9583095 169.300798,86.06325 C169.40819,89.511369 170.40706,92.2747143 172.208488,94.0923095 C173.793976,95.6928095 175.978786,96.53925 178.523881,96.53925 L178.52619,96.53925 C180.918857,96.53925 183.579429,95.7863452 186.212286,94.3682976 C191.278226,91.8255119 192.267857,90.9686786 198.497798,85.0320476 C200.362738,83.1463214 201.169917,80.2905952 200.37544,78.3887024" id="Fill-2"></path>
            </g>
        </g>
    </g>
</svg>