<svg width="200" height="200" xmlns="http://www.w3.org/2000/svg"><path d="M196.083 97.44v-1.027h.686c.354 0 .731.073.731.486 0 .514-.384.54-.81.54h-.607zm1.944-.51c0-.653-.392-.947-1.18-.947h-1.268v3.335h.504v-1.445h.582l.884 1.445h.562l-.95-1.467c.49-.062.866-.325.866-.92zm-1.332 3.13c-1.32 0-2.355-1.027-2.355-2.42 0-1.363 1.034-2.398 2.355-2.398 1.307 0 2.339 1.035 2.339 2.398 0 1.393-1.032 2.42-2.339 2.42zm0-5.3c-1.59 0-2.935 1.223-2.935 2.88 0 1.678 1.345 2.903 2.935 2.903 1.574 0 2.922-1.225 2.922-2.903 0-1.657-1.348-2.88-2.922-2.88zm-67.258 5.209c.996-3.812 5.464-19.718 13.197-32.682 1.724-2.432 3.47-3.885 4.669-3.885.404 0 .724.17.95.504.725 1.062.432 3.554-.788 6.661-4.315 11.028-14.147 25.504-18.028 29.402m26.427 35.412c-3.58-1.112-2.939-6.473-1.836-11.571 2.79-13.143 9.561-17.615 9.643-17.66 1.123-.81 2.177-1.22 3.132-1.22.938 0 1.762.41 2.385 1.188 1.218 1.524 1.562 4.315.897 7.284-.331 1.483-6.463 16.33-6.516 16.466-2.045 3.775-4.237 5.61-6.703 5.61-.331 0-.675-.034-1.002-.097m41.511-4.992c-.467-1.118-1.434-1.736-2.722-1.736-1.957 0-4.592 1.396-7.623 4.037-1.512 1.321-3.903 2.742-5.583 2.742-.663 0-1.153-.224-1.455-.67-.519-.76-.774-2.597.966-7.042.442-1.322 2.489-6.477 4.467-11.462 2.17-5.47 4.414-11.123 4.66-12.006 1.107-3.016 1.102-5.46-.017-7.062-.891-1.279-2.48-1.982-4.472-1.982-4.216 0-9.51 3.052-10.958 8.013-2.905-5.166-6.921-7.893-11.638-7.893-4.585 0-9.634 2.558-14.215 7.202-6.7 6.792-10.96 16.652-10.867 25.14-.614.655-7.581 7.962-12.911 7.964-.507 0-.992-.068-1.438-.2-.75-.223-1.34-.737-1.75-1.524-2.299-4.42 1.478-16.124 1.714-16.844 15.863-16.61 25.058-31.98 28.461-39.649 3.748-8.447 4.988-16.218 1.83-21.3-1.495-2.399-4.264-3.66-8.225-3.75a18.366 18.366 0 0 0-.973-.029c-8.551 0-14.102 6.357-16.65 10.15-5.46 8.402-16.417 37.248-21.873 65.162-2.592 2.35-5.978 4.05-8.702 5.415-.564.283-1.094.551-1.578.803-2.45 1.28-4.67 1.928-6.596 1.928h-.003c-2.559 0-4.557-1.165-5.779-3.371-2.832-5.116-1.087-14.644 4.251-23.167 1.643-2.627 4.364-4.326 6.93-4.326 1.229 0 2.274.417 2.941 1.174.637.72.926 1.735.847 2.952-1.042-1.246-2.395-1.93-3.854-1.93-2.363 0-5.127 1.936-5.612 6.192-.065 1.357.406 2.602 1.357 3.6 1.271 1.332 3.345 2.128 5.548 2.128 4.609 0 9.362-3.392 9.596-10.967.11-3.543-.93-6.549-3.004-8.688-2.254-2.325-5.704-3.606-9.719-3.606-6.186 0-12.89 2.966-17.93 7.929-4.212 4.148-9.28 11.622-9.523 23.678-.18.458-2.848 7.024-8.855 8.187-1.007.2-1.787-.065-2.37-.798-1.787-2.268-1.506-8.786.788-18.362 1.344-6.185 1.91-8.285 2.565-10.713.493-1.834 1.053-3.912 2.045-8.116.852-3.61 3.222-12.373 5.513-20.85 2.244-8.302 4.363-16.141 4.564-17.346.43-2.608-1.24-4.894-4.069-5.556-1.202-.279-2.312-.415-3.394-.415-1.867 0-3.674.42-5.372 1.247-3.412 1.662-4.725 5.139-5.225 7.753-2.059 8.263-3.561 13.727-4.887 18.551-1.537 5.59-2.864 10.418-4.565 17.827a254.8 254.8 0 0 0-.418 1.836c-2.116 9.385-7.74 34.31-16.44 34.312h-.001c-.169 0-.334-.01-.505-.029-1.477-.166-2.546-.735-3.263-1.743-1.6-2.246-1.523-6.772.252-14.672 1.7-6.615 3.422-12.591 5.09-18.37 2.054-7.121 3.994-13.849 5.532-20.592 2-7.622.93-15.107-2.862-20.023-2.816-3.65-6.885-5.58-11.767-5.58-3.07 0-6.43.766-9.986 2.273C-.402 59.63-3.223 69.534-2.096 75.073c.604 2.973 2.22 4.677 4.43 4.677h.054c3.518-.04 3.643-3.558 3.753-6.66.024-.655.046-1.275.097-1.83.715-4.067 2.877-6.4 5.932-6.4.126 0 .252.005.349.009 4.516 1.175 4.805 4.301 3.39 13.08-.347 1.179-.709 2.4-1.083 3.666-2.945 9.964-6.612 22.364-10.11 38.037-2.404 10.9-1.612 18.93 2.354 23.865 3.358 4.182 8.123 5.06 11.531 5.06 2.666 0 5.412-.546 7.73-1.539 5.215-2.233 7.356-4.376 10.604-10.736 1.79 7.728 6.148 11.976 12.304 11.976 6.014 0 12.968-4.149 18.21-10.845 1.852 5.984 7.443 9.761 12.08 10.411 1.337.26 2.717.392 4.1.392 10.324 0 19.27-7.248 22.857-10.603 1.134 6.97 5.625 10.805 12.674 10.805 7.69 0 16.997-4.685 21.342-10.71 3.01 6.73 7.445 10.431 12.506 10.431 5.295 0 10.774-4.2 13.293-10.096.107 3.448 1.106 6.212 2.907 8.03 1.586 1.6 3.77 2.446 6.316 2.446h.002c2.393 0 5.053-.753 7.686-2.17 5.066-2.543 6.056-3.4 12.286-9.337 1.865-1.886 2.672-4.741 1.877-6.643" fill="#29699A" fill-rule="evenodd"/></svg>