<svg width="200" height="200" xmlns="http://www.w3.org/2000/svg"><g fill="none"><path d="M155.53 148.754l-2.065-6.326s-11.852 22.868-30.459 33.911c0 0-6.931 18.618-23.667 20.933-16.738-2.315-23.67-20.933-23.67-20.933-18.608-11.043-30.468-33.91-30.468-33.91l-2.056 6.325c-12.22-21.316-20.562-53.037-20.562-53.037 6.386-10.859 15.138-19.96 15.138-19.96l-3.28-1.75c2.552-5.812 7.12-12.01 7.12-12.01C47.94 17.03 68.415 4.26 68.415 4.26c12.448 11.492 15.868 28.617 15.868 28.617 5.203-.582 15.055-1.024 15.055-1.024s9.847.442 15.054 1.024c0 0 3.418-17.125 15.86-28.617 0 0 20.475 12.77 26.853 57.738 0 0 4.569 6.198 7.12 12.01l-3.28 1.75s8.753 9.101 15.148 19.96c0 0-8.345 31.72-20.564 53.037zm22.725-54.31c-4.563-7.734-10.216-14.527-13.284-17.99l2.49-1.323-.936-2.13c-2.235-5.078-5.845-10.332-7.014-11.973-6.582-45.103-27.055-58.346-27.93-58.89l-1.626-1.01-1.4 1.297c-10.344 9.536-14.701 22.57-16.098 27.736-5.32-.47-12.663-.801-13.015-.814l-.103-.009-.112.009c-.353.013-7.688.343-13.021.814-1.394-5.166-5.74-18.2-16.087-27.736l-1.4-1.298-1.633 1.011c-.866.544-21.347 13.787-27.921 58.89-1.168 1.641-4.791 6.895-7.015 11.973l-.934 2.13 2.472 1.322c-3.059 3.464-8.71 10.257-13.267 17.99l-.531.896.268 1.018c.344 1.304 8.567 32.284 20.81 53.655l2.816 4.9 2.067-6.354c4.573 7.387 14.364 21.232 27.808 29.503 1.643 3.856 9.233 19.455 25.334 21.697l.346.048.344-.048c16.102-2.242 23.683-17.84 25.323-21.697 13.445-8.271 23.237-22.116 27.808-29.503l2.065 6.355 2.814-4.901c12.25-21.371 20.476-52.35 20.82-53.655l.259-1.018-.517-.896z" fill="#FFF"/><path d="M108.06 171.733c-5.191 1.732-4.559 2.685-8.728 2.915-4.172-.23-3.543-1.183-8.736-2.915-5.062-2.288-5.641-12.21-2.132-15.278-1.528 6.578 3.859 12.724 3.901 12.556.183-1.305 1.311-1.753 1.311-1.762 0-.087.947 3.758 5.656 3.885 4.7-.127 5.65-3.972 5.66-3.885 0 .01 1.118.457 1.295 1.762.048.168 5.43-5.978 3.917-12.556 3.499 3.069 2.915 12.99-2.145 15.278zm-8.72-11.23c1.926 0 .806-4.814 7.187-4.814-.12 5.147-3.85 8.493-7.188 8.606-3.349-.113-7.078-3.459-7.2-8.606 6.43 0 5.268 4.814 7.2 4.814zm-6.993-27.153c1.059-1.842 4.094-3.124 6.985-3.124 2.895 0 5.916 1.282 6.981 3.124-1.57-1.305-4.414-2.13-6.981-2.13-2.56 0-5.406.825-6.985 2.13zm30.5 2.033c-5.743 11.05-8.07 14.971-15.326 15.263-7.245.295-6.422-3.494-6.422-3.494s8.886-2.024 9.023-15.405c0 0-3.964-4.651-10.666-4.651-6.709 0-10.67 4.651-10.67 4.651.136 13.38 9.032 15.405 9.032 15.405s.814 3.79-6.439 3.494c-7.246-.292-9.576-4.213-15.319-15.263-2.234-4.283-4.016-5.624-5.388-5.648 5.136 8.93 8.456 20.094 9.194 22.68a108.441 108.441 0 0 1 2.768 9.712c3.686 15.853 16.822 17.005 16.822 17.005s13.133-1.152 16.827-17.005a101.786 101.786 0 0 1 2.987-10.376c1.013-3.452 4.233-13.702 9.006-22.016-1.38 0-3.188 1.33-5.43 5.648z" fill="#0C2950"/><path d="M122.106 95.113c1.87-.557 1.59-2.465 1.526-2.793 1.056-.216 1.73-.226 1.73-.226s.936 3.952-2.66 5.03c-3.611 1.08-4.539-2.347-4.539-2.347a14.024 14.024 0 0 1 3.6-1.928c-.24.696-.574 1.506-1.06 2.25.359.145.814.19 1.403.014zm-45.29 0c.583.177 1.04.131 1.4-.013-.498-.745-.834-1.555-1.066-2.25 1.098.399 2.356 1 3.597 1.927 0 0-.93 3.428-4.534 2.347-3.594-1.078-2.657-5.03-2.657-5.03s.67.01 1.72.226c-.056.328-.337 2.236 1.54 2.793zm87.493 4.503c-3.7 15.7-10.683 32.131-10.683 32.131l-2.053-5.082c-8.887 17.43-17.227 22.808-17.227 22.808 2.458-8.71 6.43-18.31 6.43-18.31-12.454 9.013-19.913 28.413-23.125 38.665-4.927 15.704-18.195 15.311-18.195 15.311s-13.267.393-18.2-15.31c-3.209-10.253-10.673-29.653-23.124-38.666 0 0 3.974 9.6 6.432 18.31 0 0-8.337-5.378-17.242-22.808l-2.04 5.082s-6.991-16.431-10.68-32.131l11.09-1.442-6.71-4.366 6.71-5.667s4.923.579 11.896 3.05c0 0 1.86 10.155 7.474 16.407 0 0-2.415-11.321-1.998-20.34 0 0 7.802-1.44 13.407-8.863l-2.053-1.015s2.324-4.07 5.064-7.405c6.012 2.317 10.128 7.99 10.128 7.99 1.226 18.022-3.421 21.37-3.421 21.37-4.932-11.348-10.68-13.955-10.68-13.955l1.095 3.492c-4.514-.731-8.886-.152-8.886-.152s.407 9.16 11.899 12.503c0 0-.274 6.92 1.095 13.173 0 0 5.061-8.087 13.405-14.045 0 0 1.146-24.662 5.242-43.703 4.101 19.04 5.433 43.703 5.433 43.703 8.34 5.958 13.41 14.045 13.41 14.045 1.368-6.253 1.09-13.173 1.09-13.173 11.487-3.344 11.897-12.503 11.897-12.503s-4.374-.58-8.887.152l1.098-3.492s-5.75 2.607-10.676 13.954c0 0-4.652-3.347-3.419-21.37 0 0 4.108-5.672 10.123-7.99 2.738 3.336 5.066 7.406 5.066 7.406l-2.055 1.015c5.61 7.424 13.41 8.863 13.41 8.863.411 9.019-2.001 20.34-2.001 20.34 5.603-6.252 7.47-16.408 7.47-16.408 6.974-2.47 11.9-3.05 11.9-3.05l6.71 5.668-6.71 4.366 11.091 1.442zM67.855 13.45c10.393 9.306 13.411 26.601 13.411 26.601l-3.284 2.044c1.915 0 6.151.573 6.151.573s-10.4 5.237-19.97 15.12c0 0 1.095-7.407 3.419-11.774l-3.284.437s2.05-6.681 7.114-13.809c0 0-.413-7.71-3.967-13.233 0 0-6.986 9.147-11.754 19.9-4.771 10.75-7.806 18.479-7.806 18.479 4.235-33.44 19.97-44.338 19.97-44.338zm49.796 26.601s3.018-17.295 13.41-26.6c0 0 15.734 10.898 19.97 44.337 0 0-3.039-7.73-7.805-18.48-4.767-10.752-11.757-19.899-11.757-19.899-3.554 5.523-3.964 13.233-3.964 13.233 5.061 7.128 7.112 13.809 7.112 13.809l-3.284-.437c2.323 4.367 3.418 11.774 3.418 11.774-9.567-9.883-19.97-15.12-19.97-15.12s4.237-.573 6.151-.573l-3.281-2.044zm46.574 33.956c-2.55-5.812-7.119-12.01-7.119-12.01C150.728 17.03 130.253 4.26 130.253 4.26c-12.442 11.492-15.86 28.617-15.86 28.617-5.207-.582-15.054-1.024-15.054-1.024s-9.852.442-15.055 1.024c0 0-3.42-17.125-15.868-28.617 0 0-20.476 12.77-26.856 57.738 0 0-4.567 6.198-7.119 12.01l3.28 1.75s-8.752 9.101-15.138 19.96c0 0 8.342 31.72 20.562 53.037l2.056-6.326s11.86 22.868 30.469 33.911c0 0 6.93 18.618 23.67 20.933 16.735-2.315 23.666-20.933 23.666-20.933 18.607-11.043 30.46-33.91 30.46-33.91l2.064 6.325c12.219-21.316 20.564-53.037 20.564-53.037-6.395-10.859-15.148-19.96-15.148-19.96l3.28-1.75z" fill="#0C2950"/><path d="M67.445 19.41c3.554 5.522 3.967 13.232 3.967 13.232-5.064 7.128-7.114 13.809-7.114 13.809l3.284-.437c-2.324 4.367-3.418 11.774-3.418 11.774 9.57-9.883 19.97-15.12 19.97-15.12s-4.237-.573-6.152-.573l3.284-2.044s-3.018-17.295-13.411-26.6c0 0-15.735 10.898-19.97 44.337 0 0 3.035-7.73 7.806-18.48C60.46 28.557 67.445 19.41 67.445 19.41m67.305 38.378s-1.094-7.407-3.417-11.774l3.284.437s-2.05-6.681-7.112-13.809c0 0 .41-7.71 3.964-13.233 0 0 6.99 9.147 11.757 19.9 4.766 10.75 7.806 18.479 7.806 18.479-4.237-33.44-19.97-44.338-19.97-44.338-10.393 9.306-13.411 26.601-13.411 26.601l3.281 2.044c-1.914 0-6.15.573-6.15.573s10.402 5.237 19.969 15.12" fill="#FFF"/><path d="M73.556 92.094s-.937 3.952 2.657 5.03c3.604 1.08 4.534-2.347 4.534-2.347a13.993 13.993 0 0 0-3.597-1.928c.232.696.568 1.506 1.066 2.25-.36.145-.817.19-1.4.014-1.877-.557-1.596-2.465-1.54-2.793-1.05-.216-1.72-.226-1.72-.226m44.607 2.683s.928 3.428 4.54 2.347c3.595-1.078 2.658-5.03 2.658-5.03s-.673.01-1.73.226c.065.328.346 2.236-1.525 2.793-.59.177-1.044.131-1.404-.013.487-.745.822-1.555 1.061-2.25a14.024 14.024 0 0 0-3.6 1.927" fill="#97C7ED"/><path d="M99.34 164.295c3.338-.113 7.067-3.459 7.187-8.606-6.381 0-5.26 4.814-7.188 4.814-1.932 0-.77-4.814-7.2-4.814.122 5.147 3.851 8.493 7.2 8.606" fill="#EE293D"/><path d="M106.313 133.35c-1.065-1.842-4.086-3.124-6.981-3.124-2.891 0-5.926 1.282-6.985 3.124 1.579-1.305 4.426-2.13 6.985-2.13 2.567 0 5.41.825 6.981 2.13m-.026 35.661c-.177-1.305-1.296-1.753-1.296-1.762-.01-.087-.96 3.758-5.66 3.885-4.708-.127-5.655-3.972-5.655-3.885 0 .01-1.128.457-1.311 1.762-.042.168-5.429-5.978-3.9-12.556-3.51 3.069-2.931 12.99 2.131 15.278 5.193 1.732 4.564 2.685 8.736 2.915 4.17-.23 3.537-1.183 8.727-2.915 5.06-2.288 5.644-12.21 2.145-15.278 1.513 6.578-3.87 12.724-3.917 12.556" fill="#FFF"/><path d="M119.27 151.75a101.786 101.786 0 0 0-2.987 10.377c-3.694 15.853-16.827 17.005-16.827 17.005s-13.136-1.152-16.822-17.005a108.441 108.441 0 0 0-2.768-9.713c-.738-2.585-4.058-13.75-9.194-22.679 1.372.024 3.154 1.365 5.388 5.648 5.743 11.05 8.073 14.971 15.32 15.263 7.252.295 6.438-3.494 6.438-3.494s-8.896-2.024-9.033-15.405c0 0 3.962-4.651 10.671-4.651 6.702 0 10.666 4.651 10.666 4.651-.137 13.38-9.023 15.405-9.023 15.405s-.823 3.79 6.422 3.494c7.255-.292 9.583-4.213 15.326-15.263 2.241-4.318 4.05-5.648 5.43-5.648-4.774 8.314-7.994 18.564-9.007 22.016zm40.658-57.942l-6.71-5.667s-4.926.579-11.9 3.05c0 0-1.867 10.155-7.47 16.407 0 0 2.412-11.321 2-20.34 0 0-7.8-1.44-13.409-8.863l2.055-1.015s-2.328-4.07-5.066-7.405c-6.015 2.317-10.123 7.99-10.123 7.99-1.233 18.022 3.419 21.37 3.419 21.37C117.65 87.986 123.4 85.38 123.4 85.38l-1.098 3.492c4.513-.731 8.887-.152 8.887-.152s-.41 9.16-11.898 12.503c0 0 .279 6.92-1.09 13.173 0 0-5.068-8.087-13.409-14.045 0 0-1.332-24.662-5.433-43.703-4.096 19.04-5.242 43.703-5.242 43.703-8.344 5.958-13.405 14.045-13.405 14.045-1.369-6.253-1.095-13.173-1.095-13.173C68.125 97.88 67.718 88.72 67.718 88.72s4.372-.58 8.886.152l-1.096-3.492s5.749 2.607 10.68 13.954c0 0 4.648-3.347 3.422-21.37 0 0-4.116-5.672-10.128-7.99-2.74 3.336-5.064 7.406-5.064 7.406l2.053 1.015c-5.605 7.424-13.407 8.863-13.407 8.863-.417 9.019 1.998 20.34 1.998 20.34-5.615-6.252-7.474-16.408-7.474-16.408-6.973-2.47-11.896-3.05-11.896-3.05l-6.71 5.668 6.71 4.366-11.09 1.442c3.689 15.7 10.68 32.131 10.68 32.131l2.04-5.082c8.905 17.43 17.242 22.808 17.242 22.808-2.458-8.71-6.432-18.31-6.432-18.31 12.451 9.013 19.915 28.413 23.125 38.665 4.932 15.704 18.2 15.311 18.2 15.311s13.267.393 18.194-15.31c3.212-10.253 10.67-29.653 23.124-38.666 0 0-3.971 9.6-6.429 18.31 0 0 8.34-5.378 17.227-22.808l2.053 5.082s6.982-16.431 10.683-32.131l-11.09-1.442 6.71-4.366z" fill="#FFF"/></g></svg>