<svg width="200" height="200" xmlns="http://www.w3.org/2000/svg"><g fill-rule="nonzero" fill="none"><path d="M169.572 69.991C153.715 39.734 65.087 27.87 0 74.757c22.849-4.47 45.255-6.329 45.255-6.329L33.387 73.81l11.23-.39S29.15 80.324 15.15 90.267c45.071-4.91 72.558 45.196 75.47 66.06l48.092-31.865 61.02-20.615c-10.57-21.875-30.16-33.855-30.16-33.855M105.73 152.012h1.43v4.314h.52v-4.314h1.503v-.52h-3.453v.52M111.94 155.425l-1.239-3.933h-.831v4.834h.521v-4.106l1.296 4.106h.516l1.295-4.106v4.106h.517v-4.834h-.831l-1.244 3.933" fill="#231F20"/><path d="M137.301 86.457s-8.501-4.729-2.315-13.38c-3.305.742-5.977 3.164-6.412 5.927 0 0-3.044-3.24-3.508-7.23-9.345-5.564-30.189-3.715-30.189-3.715 42.115-12.196 58.856 6.69 63.997 8.57 0 0 7.5.765 7.5-3.58 0-5.395-17.032-24.895-70.076-24.895-39.204 0-72.642 18.47-72.642 18.47 11.99-2.34 33.206-3.425 38.723-2.953a3759.399 3759.399 0 0 1-10.463 5.548s8.659-.218 11.5-.117c0 0-12.41 4.444-27.27 17.109 38.603 8.195 30.697 24.728 59.56 24.728 20.689 0 33.452-10.534 33.452-10.534s-10.681 17.309-36.705 22.6c0 0 3.821 6.596 5.927 10.733 30.8-18.905 39.833-24.833 37.162-41.836-4.692-4.98-5.686-8.3-5.686-8.3 1.463 1.8 4.727 2.703 7.445 2.855" fill="#D12636"/><path d="M171.412 76.136s4.614 4.607 5.468 8.383c-13.432-7.595-19.37-.538-27.695 13.693 0 0 5.953-5.253 10.821-3.991l21.727 4.382c-31.198-.483-35.313 3.694-39.48 15.457l51.754-13.215c-8.02-13.844-22.595-24.71-22.595-24.71" fill="#D12636"/><path d="m150.728 79.996-4.554.625c-3.027.409-2.996-3.929-1.58-5.108 0 0 3.992 2.429 6.134 4.483" fill="#FFF"/></g></svg>