<svg width="200" height="200" xmlns="http://www.w3.org/2000/svg"><g fill-rule="nonzero" fill="none"><path d="M99.267 125.588c.02.006.039.009.06.014-.032.03-.07.058-.1.086l.04-.1Zm100.348-19.504c-.46-5.639-2.46-10.881-5.502-14.588l-.035-1.806c-.374-4.586-2.307-11.412-9.4-17.898-21.178-19.36-82.054-19.927-116.25-10.61 7.443 2.11 13.801 4.927 14.386 5.142-14.035 1.815-34.98 7.198-57.056 22.391 0 0-8.229 6.132-12.587 15.368 10.211-6.753 21.956-9.076 24.88-9.351-3.705 4.562-8.081 11.228-11.905 20.489H5.66l-4.326 16.142c-1.618 6.038-1.853 7.6-.214 10.278 1.985 3.256 6.24 4.276 9.889 4.276h157.783l3.063-11.15h-4.126l3.348-12.493a63.008 63.008 0 0 0 8.633-5.674 22.41 22.41 0 0 0 2.953 2.124c.01 1.693-.1 4.813-.903 7.818l-2.707 10.11 8.782-5.696c7.452-4.833 10.233-11.545 11.256-16.325.585-2.741.763-5.617.524-8.547Z" fill="#1A64B7"/><path d="M154.694 93.755c3.499 2.008 7.892-.272 9.894-1.556a55.498 55.498 0 0 0-2.122-1.3 3.43 3.43 0 0 1-.72.416 3.46 3.46 0 0 1-4.51-1.897 3.425 3.425 0 0 1-.212-1.711c-.013.116-.034.231-.034.351a59.496 59.496 0 0 0-7.16-2.747c.075 3.065 1.812 6.691 4.864 8.444M161.19 89.244c.347-.14.587-.429.69-.759-.64-.437-1.28-.853-1.924-1.249a1.2 1.2 0 0 0-.327 1.35c.249.61.948.91 1.56.658M129.595 102.753a9.752 9.752 0 0 0 1.53 2.604c1.918 2.32 4.43 3.742 7.332 4.56-.747-2.314-1.238-4.445-1.532-6.375-3.044-.168-5.524-.392-7.33-.79M178.08 108.584c-2.828-1.107-6.023-1.941-9.41-2.573.248.818.563 1.68.955 2.569 3.004-.238 5.864-.294 8.455.004M166.246 103.76a21.697 21.697 0 0 1-.302-2.227c-4.386-.514-9.055-.778-13.27-1.103.004.66.04 1.326.12 1.995 4.433.262 9.036.656 13.452 1.335M154.982 110.303c4.252-.478 8.597-1.14 12.736-1.552a23.87 23.87 0 0 1-1.045-3.088c-4.416-.715-9.073-1.126-13.571-1.396.473 2.311 1.246 4.479 1.88 6.036M153.09 110.498c-.667-1.693-1.425-3.941-1.867-6.34a515.476 515.476 0 0 0-7.803-.338 854.35 854.35 0 0 1-4.622-.187c.327 2.03.879 4.29 1.743 6.754 3.782.68 8.082.543 12.548.111M136.874 94.34l-.01.052c-1.858-1.502-4.13-1.783-5.797-1.73-1.776 1.863-2.59 5.002-2.047 8.058 1.55.511 4.29.785 7.674.98-.3-3.053-.123-5.52.18-7.36M150.848 100.278c-6.106-.527-10.934-1.297-11.97-3.345a28.46 28.46 0 0 0-.385-.7 28.59 28.59 0 0 0 .062 5.566c1.556.073 3.217.137 4.933.204 2.36.089 4.872.185 7.464.32-.135-1.27-.104-2.045-.104-2.045M167.791 101.726c.068.636.18 1.433.377 2.349 5.067.892 9.798 2.205 13.626 4.192-3.398-3.55-8.464-5.33-14.003-6.54" fill="#FFF"/><path d="M180.445 98.717c.337.602.267 2.471 1.455 2.45 1.19-.024 3.022-.953 3.022-.953s-3.81-1.067-4.998-3.423a11.3 11.3 0 0 1-1.222.628c.264.194.51.46.52.784.02.727.886-.086 1.223.514M182.781 94.728s-.873.757-2.004 1.52c.946 1.065 3.192 3.338 4.657 2.741 1.898-.771.894-2.111-2.653-4.26" fill="#D11C2E"/><path d="M165.944 101.533c-.006-.065-.016-.134-.018-.193-4.4-.863-8.99-1.469-13.197-2.392-.05.486-.068.979-.064 1.48.002 0 .004.002.01.002 4.214.325 8.883.589 13.27 1.103M164.588 92.2a14.818 14.818 0 0 0 1.084-.757 32.31 32.31 0 0 0-2.155-1.78 3.51 3.51 0 0 1-.421.636c-.025.029-.054.058-.08.089a3.518 3.518 0 0 1-.55.512c.804.468 1.514.908 2.122 1.3M157.024 87.707c.008-.055.01-.113.019-.167.044-.252.122-.493.22-.726a3.667 3.667 0 0 1 .496-.858 65.4 65.4 0 0 0-7.41-3.5 5.422 5.422 0 0 0-.41 1.333c-.016.076-.009.161-.02.239-.06.41-.1.828-.09 1.267-.001.005-.003.008-.003.014.003 0 .003 0 .005.002 2.62.81 5.021 1.77 7.159 2.747 0-.12.02-.235.034-.351M150.848 100.278c-6.106-.527-10.934-1.297-11.97-3.345a28.46 28.46 0 0 0-.385-.7s.228-2.455.671-3.754c0 0 3.487 4.084 11.786 6.049l-.102 1.75M131.067 92.662c1.666-.053 3.939.228 5.797 1.73 0 0 .325-1.664.66-2.815 0 0-3.709-1.74-6.457 1.085" fill="#FFF"/><path d="M181.99 86.556c-17.468-31.301-80.603-22.865-80.844-22.826 5.015 1.703 12.173 7.784 12.173 7.784-39.063-.717-68.15 15.306-68.15 15.306 11.974-1.88 25.342-2.062 34.843-1.853-21.843 9.188-33.61 26.944-33.61 26.944 23.538-15.13 44.775-18.514 54.655-19.233 0 0-20.294 6.957-28.724 22.712 0 0 19.93-6.573 35.607-3.165 12.893 10.816 40.219 11.315 59.948.44-6.144-.172-13.479 1.617-18.68 1.628-26.4.053-28.947-18.917-20.462-24.035 7.999-4.826 15.83 3.883 20.906 5.58-4.18-4.05-3.86-10.582-3.86-10.582-11.548-6.399-28.132-7.971-35.217-8.356-.303-.913-2.723-2.666-2.723-2.666 39.42-2.888 61.757 14.171 61.757 14.171 2.877-1.813-.194-5.558-.194-5.558 1.777 1.025 3.076 4.529 3.076 4.529 1.31-.82.8-2.624.8-2.624 3.463 8.191-5.882 8.138-5.882 8.138-1.765 2.696-7.462 5.514-7.462 5.514l10.235 1.744s15.344-7.258 11.809-13.592M82.968 126.583c-.754-2.47-3.859-3.383-6.886-3.383-2.575 0-5.287.656-7.03 2.43-1.11-1.644-3.556-2.43-6.43-2.43-2.957 0-5.913.876-7.505 2.978l.223-2.635H26.055l1.743-6.503H7.056l-3.964 14.795c-1.564 5.838-1.642 6.859-.419 8.858 1.342 2.2 4.445 3.404 8.336 3.404 2.907 0 5.396-.64 7.415-1.936l-.52 1.936h35.693l.069-.817c.85.522 2.294 1.16 4.875 1.16 2.837 0 5.658-.902 7.172-2.423 1.147 1.559 3.394 2.422 6.287 2.422 6.531 0 8.307-3.33 9.046-6.086.934-3.488-.02-4.955-.56-5.628h1.634l.595-2.218c.469-1.751.547-2.96.253-3.924" fill="#D11C2E"/><path d="m165.357 136.587 3.495-13.044h-9.612l-3.495 13.044h-1.426l3.495-13.044h-43.878l-.13 1.04c-1.112-.827-2.765-1.383-5.057-1.383-2.878 0-7.234 1.032-8.827 4.944-.313.769-.693 1.989-1.16 3.732l-.91 3.41h-3.08l4.891-18.254H87.968l-7.252 27.065h17.472l.405-1.512c1.335 1.321 3.376 1.854 5.603 1.854 3.857 0 6.177-1.474 7.485-2.873l-.317 2.53h56.1l2.013-7.51h-4.12" fill="#D11C2E"/><path d="M81.807 126.936c-.513-1.683-2.899-2.522-5.725-2.522-2.326 0-4.767.586-6.228 2.127-.658.696-1.162 1.72-1.54 3.13-.528 1.964-.168 3.442.795 4.345.306.286.849.683 1.65 1.206h-4.012c-.049-.519-.178-.967-.395-1.346-.4-.7-1.282-1.465-2.732-2.365h4.11l.354-1.318c.401-1.498.485-2.533.264-3.257-.417-1.37-2.294-2.522-5.725-2.522-1.331 0-2.54.18-3.594.537-2.267.767-3.443 1.992-4.175 4.72-.756 2.823.181 4.245 2.445 5.55h-3.77l-.584 2.21 1.075-12.674h-9.135l-6.792 15.777 4.227-15.777h-8.59l-1.196 2.822.255-2.822h-8.315l1.743-6.503H7.987l-3.723 13.895c-.693 2.588-1.08 4.252-1.184 5.084-.386 3.11 2.28 5.651 7.929 5.651 4.961 0 8.679-2.174 9.926-5.408l-1.45 5.408h6.444l.34-1.273-.113 1.273h18.34l1.096-2.931h.152l-.526 2.931h7.264l.24-2.843c.28 1.93 2.484 3.185 5.819 3.185.812 0 6.045.22 7.621-4.362-.043.506-.03.951.044 1.337.364 1.9 2.69 3.025 5.794 3.025 1.369 0 2.646-.205 3.798-.61 2.393-.844 3.374-1.956 4.076-4.577.497-1.856.477-3.217-.062-4.163-.4-.7-1.282-1.465-2.733-2.365h4.11l.354-1.318c.4-1.498.485-2.533.264-3.257M141.062 137.8l.473-1.765h3.636l1.318-4.922h-3.635l.34-1.273h4.577l-2.133 7.96h-4.576Zm22.714 0 3.495-13.043h-7.1l-3.495 13.043h-3.938l3.495-13.043h-25.414l-1.454 3.333.47-3.333h-7.04l-1.408 3.285.572-3.285h-6.952l-.424 3.382c-.28-2.566-2.76-3.725-5.834-3.725-2.723 0-6.394.97-7.704 4.187-.293.722-.657 1.896-1.11 3.589l-1.138 4.308h-5.606l4.89-18.253H88.9l-6.603 24.64h14.961l1.096-4.093c-.139 1.74.93 4.434 5.843 4.434 4.017 0 6.756-1.864 7.704-4.187.864-2.12 1.94-6.532 2.373-8.42l-1.535 12.265h8.103l1.666-3.768-.173 3.768h8.065l6.353-15.493-4.152 15.493h33.934l1.361-5.084h-4.12Z" fill="#1A64B7"/><path d="M17.885 119.164h7.146l-4.001 14.931c-.454 1.694-.84 2.882-1.16 3.568-1.472 3.156-5.511 4.311-8.861 4.311-4.48 0-7.385-1.73-7.026-4.629.098-.787.485-2.44 1.16-4.96l3.542-13.221h7.146l-4.489 16.753c-.519 1.936-.407 2.277.375 2.277.982 0 1.216-.549 1.757-2.567l4.41-16.463M34.333 125.667h6.802l-4.37 16.307h-4.56l2.951-11.01-4.77 11.01H27.15l.962-10.758-2.882 10.758h-4.56l4.37-16.307h6.752l-.69 7.613 3.23-7.613M38.463 141.974h5.402l1.095-2.931h1.87l-.524 2.931h5.34l1.384-16.307h-7.546l-7.02 16.307Zm10.033-12.661-1.039 6.84h-1.784l2.823-6.84ZM80.664 129.957l-.173.644h-4.844l.324-1.208c.256-.955.233-1.309-.454-1.309-.548 0-1.04.317-1.292 1.259-.328 1.22-.109 1.53 1.15 2.226 2.02 1.122 3.236 2.041 3.647 2.76.41.718.401 1.877-.027 3.475-.311 1.162-.708 2.018-1.19 2.568-1.109 1.267-3.629 1.944-5.805 1.944-2.925 0-4.66-1.03-4.9-2.286-.128-.665-.028-1.608.3-2.83l.285-1.068h4.845l-.532 1.984c-.274 1.024-.276 1.44.544 1.44.683 0 1.145-.436 1.381-1.32.258-.959.265-1.587.021-1.883-.25-.295-.932-.788-2.044-1.48-1.65-1.038-3.574-1.735-2.708-4.966.335-1.249.776-2.162 1.323-2.74 1.224-1.293 3.39-1.843 5.567-1.843 3.5 0 4.65 1.203 4.855 1.878.165.541.074 1.46-.273 2.755M89.597 119.155h7.299l-4.89 18.253h5.776l-1.223 4.566H83.482l6.115-22.819M113.676 128.9c.262-2.185-1.668-3.576-4.927-3.576-1.985 0-5.629.599-6.861 3.62-.278.683-1.823 6.271-1.823 6.271-.45 1.68-.714 2.854-.795 3.524-.296 2.448 2.006 3.577 4.926 3.577 2.788 0 5.814-1.049 6.862-3.621.277-.681.635-1.841 1.075-3.48l.747-2.79c.45-1.679.715-2.854.796-3.525Zm-8.753 10.657c-.656 0-.742-.237-.246-2.085l2.04-7.615c.432-1.614.717-1.773 1.318-1.773.746 0 .654.517.318 1.773l-2.008 7.493c-.457 1.701-.639 2.207-1.422 2.207ZM131.409 125.667h5.066l-6.686 16.307h-6.517l.715-8.542-3.737 8.542h-6.481l2.041-16.307h5.067l-1.918 11.18 4.433-11.18h5.427l-1.962 11.572s2.862-7.799 4.552-11.572M133.786 141.974l4.37-16.307h9.962l-.875 3.263h-4.747l-.828 3.092h3.636l-.831 3.103h-3.636l-.96 3.585h4.776l-.875 3.264h-9.992M149.831 125.667h5.216l-3.495 13.043h4.12l-.874 3.264h-9.337l4.37-16.307M160.87 125.667h5.215l-3.495 13.043h4.12l-.875 3.264H156.5l4.37-16.307M67.205 129.957l-.173.644h-4.844l.324-1.208c.256-.955.233-1.309-.454-1.309-.548 0-1.04.317-1.292 1.259-.328 1.22-.109 1.53 1.15 2.226 2.02 1.122 3.236 2.041 3.647 2.76.41.718.401 1.877-.027 3.475-.311 1.162-.708 2.018-1.19 2.568-1.11 1.267-3.629 1.944-5.805 1.944-2.925 0-4.66-1.03-4.9-2.286-.128-.665-.028-1.608.3-2.83l.285-1.068h4.845l-.532 1.984c-.274 1.024-.276 1.44.543 1.44.684 0 1.146-.436 1.382-1.32.257-.959.265-1.587.021-1.883-.251-.295-.932-.788-2.044-1.48-1.65-1.038-3.574-1.735-2.708-4.966.335-1.249.775-2.162 1.323-2.74 1.224-1.293 3.39-1.843 5.567-1.843 3.5 0 4.65 1.203 4.855 1.878.165.541.074 1.46-.273 2.755" fill="#FFF"/><path d="m172.4 133.022.675-1.056h.646l-.466 1.74h-.447l.317-1.186h-.008l-.732 1.186h-.341l-.097-1.186h-.007l-.319 1.186h-.447l.466-1.74h.646l.114 1.056Zm-1.185-.697h-.486l-.37 1.38h-.472l.37-1.38h-.482l.097-.359h1.439l-.096.36Z" fill="#1A64B7"/></g></svg>