<svg width="200" height="200" xmlns="http://www.w3.org/2000/svg"><g fill="none"><path d="M99.267 126.31c.02.005.039.008.06.014-.032.029-.07.058-.1.086l.04-.1zm100.348-19.504c-.46-5.64-2.46-10.882-5.502-14.589l-.035-1.806c-.374-4.586-2.307-11.412-9.4-17.897-21.178-19.36-82.054-19.927-116.25-10.611 7.443 2.111 13.801 4.927 14.386 5.143-14.035 1.814-34.98 7.197-57.056 22.39 0 0-8.229 6.132-12.587 15.368 10.211-6.753 21.956-9.075 24.88-9.35-3.705 4.561-8.081 11.227-11.905 20.488H5.66l-4.326 16.142c-1.618 6.039-1.853 7.6-.214 10.278 1.985 3.256 6.24 4.277 9.889 4.277h157.783l3.063-11.15h-4.126l3.348-12.493a63.008 63.008 0 0 0 8.633-5.675 22.41 22.41 0 0 0 2.953 2.125c.01 1.692-.1 4.813-.903 7.817l-2.707 10.11 8.782-5.695c7.452-4.834 10.233-11.546 11.256-16.325.585-2.742.763-5.618.524-8.547z" fill="#1A64B7"/><path d="M154.694 94.476c3.499 2.008 7.892-.272 9.894-1.555a55.498 55.498 0 0 0-2.122-1.3 3.43 3.43 0 0 1-.72.416 3.46 3.46 0 0 1-4.51-1.898 3.425 3.425 0 0 1-.212-1.71c-.013.116-.034.23-.034.35a59.496 59.496 0 0 0-7.16-2.747c.075 3.065 1.812 6.691 4.864 8.444m6.496-4.51c.347-.14.587-.43.69-.76-.64-.437-1.28-.852-1.924-1.248a1.2 1.2 0 0 0-.327 1.35c.249.61.948.91 1.56.658m-31.594 13.508a9.752 9.752 0 0 0 1.53 2.605c1.918 2.32 4.43 3.742 7.332 4.56-.747-2.314-1.238-4.445-1.532-6.375-3.044-.169-5.524-.392-7.33-.79m48.485 5.832c-2.828-1.108-6.023-1.942-9.41-2.574.248.819.563 1.681.955 2.569 3.004-.238 5.864-.293 8.455.005m-11.834-4.824a21.697 21.697 0 0 1-.302-2.228c-4.386-.514-9.055-.778-13.27-1.102.004.658.04 1.325.12 1.994 4.433.262 9.036.656 13.452 1.336m-11.264 6.542c4.252-.478 8.597-1.139 12.736-1.552a23.87 23.87 0 0 1-1.045-3.088c-4.416-.715-9.073-1.125-13.571-1.396.473 2.312 1.246 4.479 1.88 6.036m-1.892.196c-.667-1.694-1.425-3.942-1.867-6.34a515.476 515.476 0 0 0-7.803-.338 854.35 854.35 0 0 1-4.622-.188c.327 2.03.879 4.29 1.743 6.754 3.782.68 8.082.543 12.548.112m-16.215-16.158l-.01.052c-1.858-1.502-4.13-1.783-5.797-1.73-1.776 1.862-2.59 5.001-2.047 8.058 1.55.51 4.29.785 7.674.98-.3-3.053-.123-5.52.18-7.36M150.848 101c-6.106-.527-10.934-1.297-11.97-3.346a28.46 28.46 0 0 0-.385-.699 28.59 28.59 0 0 0 .062 5.565c1.556.073 3.217.137 4.933.204 2.36.09 4.872.185 7.464.321-.135-1.27-.104-2.045-.104-2.045m16.943 1.448c.068.635.18 1.432.377 2.348 5.067.893 9.798 2.206 13.626 4.192-3.398-3.55-8.464-5.33-14.003-6.54" fill="#FFF"/><path d="M180.445 99.438c.337.602.267 2.471 1.455 2.45 1.19-.024 3.022-.953 3.022-.953s-3.81-1.067-4.998-3.423a11.3 11.3 0 0 1-1.222.629c.264.193.51.459.52.783.02.728.886-.085 1.223.514m2.336-3.988s-.873.756-2.004 1.519c.946 1.065 3.192 3.339 4.657 2.742 1.898-.772.894-2.112-2.653-4.261" fill="#D11C2E"/><path d="M165.944 102.254c-.006-.064-.016-.133-.018-.193-4.4-.863-8.99-1.469-13.197-2.391-.05.485-.068.978-.064 1.48.002 0 .004.002.01.002 4.214.324 8.883.588 13.27 1.102m-1.357-9.334a.082.082 0 0 0 .013-.008c.673-.433 1.07-.748 1.07-.748a32.31 32.31 0 0 0-2.154-1.78 3.51 3.51 0 0 1-.421.636c-.025.03-.054.058-.08.09a3.518 3.518 0 0 1-.55.51c.804.469 1.514.91 2.122 1.3m-7.564-4.492c.008-.055.01-.113.019-.167.044-.252.122-.492.22-.726.023-.063.052-.124.08-.183.118-.238.249-.468.415-.675a65.4 65.4 0 0 0-7.41-3.499 5.422 5.422 0 0 0-.41 1.333c-.015.076-.008.16-.02.238-.058.41-.1.828-.09 1.267l-.002.014a59.496 59.496 0 0 1 7.163 2.75c0-.12.022-.235.035-.352M150.848 101c-6.106-.527-10.934-1.297-11.97-3.346a28.46 28.46 0 0 0-.385-.699s.228-2.456.671-3.755c0 0 3.487 4.084 11.786 6.05l-.102 1.75m-19.781-7.616c1.666-.053 3.939.228 5.797 1.73 0 0 .325-1.665.66-2.815 0 0-3.709-1.74-6.457 1.085" fill="#FFF"/><path d="M181.99 87.278c-17.468-31.302-80.603-22.865-80.844-22.827 5.015 1.704 12.173 7.784 12.173 7.784-39.063-.717-68.15 15.306-68.15 15.306 11.974-1.88 25.342-2.062 34.843-1.852-21.843 9.187-33.61 26.943-33.61 26.943 23.538-15.13 44.775-18.514 54.655-19.233 0 0-20.294 6.958-28.724 22.712 0 0 19.93-6.572 35.607-3.165 12.893 10.817 40.219 11.315 59.948.441-6.144-.172-13.479 1.616-18.68 1.628-26.4.053-28.947-18.917-20.462-24.035 7.999-4.826 15.83 3.883 20.906 5.58-4.18-4.05-3.86-10.583-3.86-10.583-11.548-6.398-28.132-7.97-35.217-8.356-.303-.912-2.723-2.666-2.723-2.666 39.42-2.888 61.757 14.172 61.757 14.172 2.877-1.814-.194-5.559-.194-5.559 1.777 1.026 3.076 4.529 3.076 4.529 1.31-.82.8-2.624.8-2.624 3.463 8.192-5.882 8.139-5.882 8.139-1.765 2.696-7.462 5.513-7.462 5.513l10.235 1.745s15.344-7.259 11.809-13.592m-99.023 40.026c-.754-2.469-3.859-3.382-6.886-3.382-2.575 0-5.287.655-7.03 2.429-1.11-1.643-3.556-2.43-6.43-2.43-2.957 0-5.913.877-7.505 2.978l.223-2.634H26.055l1.743-6.503H7.056l-3.964 14.794c-1.564 5.838-1.642 6.86-.419 8.858 1.342 2.201 4.445 3.405 8.336 3.405 2.907 0 5.396-.64 7.415-1.937l-.52 1.936h35.693l.069-.817c.85.523 2.294 1.16 4.875 1.16 2.837 0 5.658-.902 7.172-2.423 1.147 1.56 3.394 2.422 6.287 2.422 6.531 0 8.307-3.33 9.046-6.085.934-3.489-.02-4.955-.56-5.629h1.634l.595-2.218c.469-1.75.547-2.96.253-3.924" fill="#D11C2E"/><path d="M165.357 137.308l3.495-13.043h-9.612l-3.495 13.043h-1.426l3.495-13.043h-43.878l-.13 1.04c-1.112-.828-2.765-1.383-5.057-1.383-2.878 0-7.234 1.032-8.827 4.943-.313.769-.693 1.99-1.16 3.732l-.91 3.41h-3.08l4.891-18.253H87.968l-7.252 27.065h17.472l.405-1.513c1.335 1.322 3.376 1.854 5.603 1.854 3.857 0 6.177-1.474 7.485-2.872l-.317 2.53h56.1l2.013-7.51h-4.12" fill="#D11C2E"/><path d="M81.807 127.658c-.513-1.683-2.899-2.523-5.725-2.523-2.326 0-4.767.587-6.228 2.127-.658.696-1.162 1.72-1.54 3.13-.528 1.965-.168 3.442.795 4.345.306.286.849.684 1.65 1.206h-4.012c-.049-.518-.178-.966-.395-1.345-.4-.7-1.282-1.465-2.732-2.365h4.11l.354-1.319c.401-1.498.485-2.532.264-3.256-.417-1.37-2.294-2.523-5.725-2.523-1.331 0-2.54.18-3.594.537-2.267.768-3.443 1.992-4.175 4.72-.756 2.823.181 4.245 2.445 5.551h-3.77l-.584 2.209 1.075-12.674h-9.135l-6.792 15.777 4.227-15.777h-8.59l-1.196 2.822.255-2.822h-8.315l1.743-6.503H7.987L4.264 132.87c-.693 2.588-1.08 4.252-1.184 5.085-.386 3.11 2.28 5.65 7.929 5.65 4.961 0 8.679-2.174 9.926-5.408l-1.45 5.409h6.444l.34-1.273-.113 1.273h18.34l1.096-2.932h.152l-.526 2.932h7.264l.24-2.844c.28 1.93 2.484 3.185 5.819 3.185.812 0 6.045.22 7.621-4.362-.043.507-.03.952.044 1.337.364 1.9 2.69 3.025 5.794 3.025 1.369 0 2.646-.205 3.798-.61 2.393-.844 3.374-1.956 4.076-4.576.497-1.856.477-3.217-.062-4.163-.4-.7-1.282-1.465-2.733-2.365h4.11l.354-1.319c.4-1.498.485-2.532.264-3.256m59.255 10.864l.473-1.766h3.636l1.318-4.922h-3.635l.34-1.273h4.577l-2.133 7.96h-4.576zm22.714 0l3.495-13.044h-7.1l-3.495 13.044h-3.938l3.495-13.044h-25.414l-1.454 3.334.47-3.334h-7.04l-1.408 3.285.572-3.285h-6.952l-.424 3.383c-.28-2.566-2.76-3.726-5.834-3.726-2.723 0-6.394.97-7.704 4.188-.293.722-.657 1.895-1.11 3.588l-1.138 4.309h-5.606l4.89-18.253H88.9l-6.603 24.639h14.961l1.096-4.092c-.139 1.739.93 4.433 5.843 4.433 4.017 0 6.756-1.864 7.704-4.187.864-2.12 1.94-6.532 2.373-8.42l-1.535 12.266h8.103l1.666-3.769-.173 3.769h8.065l6.353-15.494-4.152 15.494h33.934l1.361-5.084h-4.12z" fill="#1A64B7"/><path d="M17.885 119.885h7.146l-4.001 14.932c-.454 1.693-.84 2.882-1.16 3.567-1.472 3.156-5.511 4.312-8.861 4.312-4.48 0-7.385-1.731-7.026-4.63.098-.786.485-2.44 1.16-4.96l3.542-13.22h7.146l-4.489 16.752c-.519 1.936-.407 2.277.375 2.277.982 0 1.216-.548 1.757-2.566l4.41-16.464m16.449 6.503h6.802l-4.37 16.308h-4.56l2.951-11.01-4.77 11.01H27.15l.962-10.758-2.882 10.758h-4.56l4.37-16.308h6.752l-.69 7.614 3.23-7.614m4.131 16.308h5.402l1.095-2.932h1.87l-.524 2.932h5.34l1.384-16.308h-7.546l-7.02 16.308zm10.033-12.662l-1.039 6.84h-1.784l2.823-6.84zm32.168.645l-.173.644h-4.844l.324-1.209c.256-.955.233-1.308-.454-1.308-.548 0-1.04.316-1.292 1.258-.328 1.22-.109 1.53 1.15 2.227 2.02 1.12 3.236 2.04 3.647 2.76.41.718.401 1.877-.027 3.474-.311 1.162-.708 2.019-1.19 2.569-1.109 1.267-3.629 1.943-5.805 1.943-2.925 0-4.66-1.03-4.9-2.286-.128-.665-.028-1.608.3-2.83l.285-1.068h4.845l-.532 1.984c-.274 1.024-.276 1.441.544 1.441.683 0 1.145-.437 1.381-1.32.258-.96.265-1.588.021-1.883-.25-.295-.932-.789-2.044-1.481-1.65-1.038-3.574-1.734-2.708-4.966.335-1.248.776-2.162 1.323-2.74 1.224-1.292 3.39-1.843 5.567-1.843 3.5 0 4.65 1.203 4.855 1.878.165.542.074 1.46-.273 2.756m8.933-10.802h7.299l-4.89 18.253h5.776l-1.223 4.566H83.482l6.115-22.82m24.079 9.745c.262-2.184-1.668-3.576-4.927-3.576-1.985 0-5.629.599-6.861 3.621-.278.682-1.823 6.27-1.823 6.27-.45 1.68-.714 2.855-.795 3.525-.296 2.448 2.006 3.576 4.926 3.576 2.788 0 5.814-1.049 6.862-3.62.277-.682.635-1.842 1.075-3.48l.747-2.79c.45-1.68.715-2.854.796-3.526zm-8.753 10.657c-.656 0-.742-.236-.246-2.085l2.04-7.615c.432-1.614.717-1.772 1.318-1.772.746 0 .654.516.318 1.772l-2.008 7.494c-.457 1.7-.639 2.206-1.422 2.206zm26.486-13.89h5.066l-6.686 16.308h-6.517l.715-8.543-3.737 8.543h-6.481l2.041-16.308h5.067l-1.918 11.18 4.433-11.18h5.427l-1.962 11.573s2.862-7.8 4.552-11.573m2.377 16.308l4.37-16.308h9.962l-.875 3.263h-4.747l-.828 3.093h3.636l-.831 3.102h-3.636l-.96 3.586h4.776l-.875 3.264h-9.992m16.045-16.308h5.216l-3.495 13.044h4.12l-.874 3.264h-9.337l4.37-16.308m11.039 0h5.215l-3.495 13.044h4.12l-.875 3.264H156.5l4.37-16.308m-93.665 4.291l-.173.644h-4.844l.324-1.209c.256-.955.233-1.308-.454-1.308-.548 0-1.04.316-1.292 1.258-.328 1.22-.109 1.53 1.15 2.227 2.02 1.12 3.236 2.04 3.647 2.76.41.718.401 1.877-.027 3.474-.311 1.162-.708 2.019-1.19 2.569-1.11 1.267-3.629 1.943-5.805 1.943-2.925 0-4.66-1.03-4.9-2.286-.128-.665-.028-1.608.3-2.83l.285-1.068h4.845l-.532 1.984c-.274 1.024-.276 1.441.543 1.441.684 0 1.146-.437 1.382-1.32.257-.96.265-1.588.021-1.883-.251-.295-.932-.789-2.044-1.481-1.65-1.038-3.574-1.734-2.708-4.966.335-1.248.775-2.162 1.323-2.74 1.224-1.292 3.39-1.843 5.567-1.843 3.5 0 4.65 1.203 4.855 1.878.165.542.074 1.46-.273 2.756" fill="#FFF"/><path d="M172.4 133.743l.675-1.056h.646l-.466 1.74h-.447l.317-1.186h-.008l-.732 1.186h-.341l-.097-1.186h-.007l-.319 1.186h-.447l.466-1.74h.646l.114 1.056zm-1.185-.696h-.486l-.37 1.38h-.472l.37-1.38h-.482l.097-.36h1.439l-.096.36z" fill="#1A64B7"/></g></svg>