<svg width="200" height="200" xmlns="http://www.w3.org/2000/svg"><g fill="none" fill-rule="evenodd"><path d="M3.353 91.052V65.86S-.164 62.795.006 58.37V45.092s-.113-5.05 4.653-7.83l17.476-10.44s1.872-1.021 3.915-.965c0 0 1.362-2.042 4.085-3.121l17.08-6.922s1.645-.51 3.064-.34c0 0 1.135-.965 2.496-1.249l16.91-4.029s6.297-2.098 9.36 3.859l3.35 6.411 3.8-8.34s1.703-5.39 7.945-4.71l15.83.171s2.666-.057 4.141 1.134c0 0 .91-.397 2.44-.056l31.322 5.73s6.866.966 9.532 7.434c0 0 5.165-2.837 12.2.453l24.399 14.923s4.938 2.667 4.994 8.114V64.1s.737 6.355-5.391 9.249c0 0 6.299 2.724 6.014 9.59v11.688s-.964 13.731-12.937 14.696c0 0-4.426.623-9.76-2.781l-6.979-3.97s2.213 7.32 2.157 16.568c0 0-17.76-.909-22.47 15.036 0 0 16.457 19.858 18.214 48.4L148.385 167.2l8.17 17.022-16-10.1H99.926l-13.732 18.724-5.56-18.837H51.47s18.952-13.845 13.958-28.826c0 0-41.762.227-37.11-40.967l-4.425 2.383s-19.859 8.285-20.54-15.547" fill="#F6BC25"/><path d="M27.858 29.522s.68-2.128 2.978-3.234l16.81-6.937s2.298-.85 3.66-.128c0 0 .923-1.403 2.965-1.744l15.603-3.688s4.086-1.078 6.527 2.837l6.24 12.142 6.582-14.752s1.76-3.12 5.107-3.064l15.83.226s2.043-.056 3.292 1.306c0 0 1.192-.624 2.61-.284l30.81 5.561s6.013 1.021 9.247 8.964c0 0 4.938-4.765 12.427-.964l23.378 14.3s3.802 2.099 3.632 6.184v18.157s-.455 8.512-8.91 5.618l-9.702-6.923v5.845s1.815-.795 4.538.737l11.52 7.603s3.177 1.702 3.12 5.447c-.056 3.745 0 11.575 0 11.575s-1.816 16.683-16.396 9.817l-17.819-10.157s-4.823-2.44-7.15-8.058c0 0-4.084 3.973-9.93 1.93 0 0-14.297-3.064-30.695-5.618 0 0-1.42-.34-2.043-.907 0 0-.907.624-2.78.453l-15.15-.17s-4.823 0-5.674-5.22c0 0-6.128 6.752-10.781-1.418V79.1s-.681 4.369-5.278 5.163c-4.595.794-15.035 3.518-15.035 3.518s-4.595 1.474-7.15-3.575c0 0-2.552 5.73-7.376 8.171-4.824 2.44-18.611 9.929-18.952 9.987-.296.048-10.213 6.585-15.547-3.576-1.192-2.27-1.248-3.177-1.476-5.673V64.007S3.43 62.53 3.6 58.162V45.168s.17-3.518 3.12-4.993l16.74-10.043s1.874-1.162 4.398-.61" fill="#1A1919"/><path d="M49.912 36.969l.024-12.106-16.383 6.687v46.14l-7.19 3.845V35.227L9.612 45.271v13.1l3.378-1.887v35.414c.082 5.503 3.355 8.15 7.854 5.012l18.388-9.694c4.557-1.726 7.552-9.18 7.526-14.21V38.07l3.153-1.1" fill="#FFFFFE"/><path d="M31.98 31.55c0-.64.387-1.215.979-1.457l16.382-6.687a1.573 1.573 0 0 1 2.168 1.46l-.024 12.106a1.574 1.574 0 0 1-1.055 1.482l-2.098.732v33.812c.033 6.214-3.6 13.737-8.445 15.652l-18.225 9.608c-5.461 3.744-10.142.487-10.245-6.36V59.165l-1.037.58a1.573 1.573 0 0 1-2.34-1.374v-13.1c0-.552.29-1.065.764-1.35l16.75-10.043a1.573 1.573 0 0 1 2.382 1.35v43.68l4.044-2.162V31.55zm16.378-4.343l-13.231 5.4V77.69c0 .58-.32 1.114-.832 1.388l-7.19 3.845a1.574 1.574 0 0 1-2.316-1.387v-43.53l-13.603 8.158v9.526l1.037-.579a1.573 1.573 0 0 1 2.341 1.374v35.39c.068 4.547 2.164 5.99 5.38 3.746l.167-.102L38.5 85.824l.177-.08c3.455-1.308 6.536-7.653 6.51-12.738V38.07c0-.67.423-1.265 1.054-1.486l2.1-.733.018-8.643z" fill="#F6BC25" fill-rule="nonzero"/><path fill="#FFFFFE" d="M94.439 43.81v31.574l15.71.166V63.348l-3.342-.169V29.247h3.009V17.04l-15.377-.17-11.372 25.914-11.872-23.238-15.543 3.678v12.202l3.174-.997v34.265l-3.01 1.002v12.04l15.717-3.68V47.298L83.41 72.772 94.44 43.81"/><path d="M84.882 73.332c-.495 1.3-2.31 1.365-2.897.105l-8.879-19.04v23.66c0 .731-.503 1.366-1.214 1.532l-15.717 3.68a1.573 1.573 0 0 1-1.932-1.532v-12.04c0-.677.434-1.279 1.076-1.493l1.934-.644V36.573l-1.13.355a1.574 1.574 0 0 1-2.045-1.5V23.224c0-.73.502-1.363 1.211-1.531l15.544-3.678a1.573 1.573 0 0 1 1.763.815L82.96 39.115l10.039-22.876a1.574 1.574 0 0 1 1.458-.941l15.377.17c.863.01 1.556.711 1.556 1.573v12.206c0 .869-.704 1.573-1.573 1.573h-1.436v30.863l1.85.094a1.573 1.573 0 0 1 1.493 1.571V75.55c0 .876-.715 1.583-1.59 1.574l-15.71-.167a1.573 1.573 0 0 1-1.558-1.573v-23.02l-7.983 20.968zm-1.617-4.598l9.703-25.484c.622-1.633 3.044-1.187 3.044.56v30.017l12.564.133v-9.116l-1.849-.093a1.573 1.573 0 0 1-1.494-1.572V29.247c0-.87.705-1.574 1.574-1.574h1.436v-9.076l-12.781-.14-10.954 24.96c-.533 1.215-2.238 1.265-2.842.083l-11.31-22.137-13.13 3.107v8.813l1.129-.355A1.573 1.573 0 0 1 60.4 34.43v34.265c0 .677-.434 1.279-1.076 1.493l-1.934.644v8.92l12.57-2.942V47.298c0-1.683 2.287-2.19 2.999-.665l10.306 22.101z" fill="#F6BC25" fill-rule="nonzero"/><path d="M139.372 68.642l-7.69-1.672v-12.2l7.69 1.672v12.201zm-.17-23.234l-7.52-1.674V32.702l7.52 1.67v11.036zm13.08 14.971c-.839-4.265-3.596-6.477-7.062-8.617 3.82.61 6.394-1.826 7.19-6.187.46-6.715-.238-19.533-6.854-21.73 0 0-27.933-5.256-30.426-5.522v11.371s3.259.6 3.51.667v34.103s-3.242-.111-3.51-.167V76.33c2.634.142 28.893 5.017 31.429 5.854 3.869 1.185 5.826-1.607 5.722-6.313V60.379z" fill="#FFFFFE"/><path d="M137.799 57.71l-4.544-.989v8.981l4.544.988v-8.98zm1.239 12.47l-7.691-1.672a1.573 1.573 0 0 1-1.24-1.538v-12.2c0-1.004.928-1.751 1.909-1.538l7.69 1.673c.724.157 1.24.797 1.24 1.537v12.201a1.574 1.574 0 0 1-1.908 1.538zm-1.409-34.545l-4.374-.972v7.809l4.374.974v-7.81zm1.232 11.309l-7.522-1.675a1.573 1.573 0 0 1-1.231-1.535V32.702c0-1.007.932-1.755 1.915-1.536l7.52 1.67c.72.16 1.233.8 1.233 1.537v11.035a1.574 1.574 0 0 1-1.915 1.536zm14.964 13.132c.02.1.03.201.03.303v15.458c.13 5.87-2.819 9.365-7.79 7.842-2.371-.782-28.49-5.64-31.02-5.777a1.573 1.573 0 0 1-1.488-1.57V64.296c0-1 .919-1.745 1.896-1.54-.047-.01.369.016.776.036a123.553 123.553 0 0 0 .838.037V31.655a277.108 277.108 0 0 0-1.672-.312l-.55-.101a1.573 1.573 0 0 1-1.288-1.548v-11.37c0-.936.81-1.665 1.74-1.566 1.11.119 6.58 1.092 15.243 2.69l.455.083a4507.817 4507.817 0 0 1 13.586 2.53l.935.175.331.062.205.053c6.485 2.154 8.687 12.23 7.928 23.331-.64 3.557-2.26 5.994-4.59 7.094 2.468 2.052 3.83 4.223 4.435 7.3zm-9.432-6.975c-1.464-.904-.623-3.164 1.075-2.893 2.793.446 4.693-1.21 5.379-4.83.638-9.562-1.295-18.434-5.694-20.008l-.218-.041-.934-.176a5034.188 5034.188 0 0 0-13.577-2.527l-.455-.084c-6.188-1.14-10.836-1.978-13.265-2.386v8.23l.479.089c1.144.214 1.698.322 1.866.367a1.574 1.574 0 0 1 1.165 1.52v34.102c0 .89-.738 1.603-1.627 1.573a237.341 237.341 0 0 1-1.883-.073v8.973c6.327.91 27.968 4.969 30.315 5.744 2.484.76 3.778-.773 3.689-4.809V60.537c-.656-3.127-2.392-5.014-6.315-7.436z" fill="#F6BC25" fill-rule="nonzero"/><path d="M182.121 98.58c4.501 3.136 7.773.486 7.857-5.72l.045-10.204-11.867-7.826v9.19l-7.362-4.174V45.74l7.362 4.179v6.857l11.365 8.02v-18.89c-2.037-1.545-24.243-14.874-24.243-14.874-4.12-1.925-7.604 1.07-7.52 6.352l.222 37.494c-.027 5.03 2.968 12.48 7.52 14.21l16.621 9.49" fill="#FFFFFE"/><path d="M164.82 90.513c-4.828-1.938-8.447-9.444-8.413-15.625l-.222-37.478c-.101-6.365 4.49-10.264 9.76-7.802l.143.076.274.165.775.466a3049.812 3049.812 0 0 1 11.39 6.884c6.778 4.121 11.033 6.763 11.945 7.455.392.298.623.761.623 1.254v18.889c0 1.276-1.439 2.021-2.481 1.286l-11.366-8.02a1.574 1.574 0 0 1-.666-1.286v-5.94l-4.214-2.393v30.485l4.214 2.39V74.83c0-1.253 1.394-2.003 2.44-1.313l11.867 7.825c.444.293.71.79.707 1.32l-.044 10.22c-.1 7.403-4.683 10.876-10.27 7.03l-16.462-9.4zm-5.488-53.137l.222 37.511c-.028 5.074 3.052 11.418 6.506 12.731.076.03.15.064.22.105l16.621 9.49.12.076c3.257 2.27 5.314.723 5.384-4.436l.04-9.352-8.716-5.748v6.267c0 1.206-1.3 1.964-2.35 1.369l-7.36-4.175a1.574 1.574 0 0 1-.798-1.368V45.74a1.573 1.573 0 0 1 2.35-1.368l7.362 4.179c.492.28.796.802.796 1.368v6.041l8.219 5.8V46.732c-1.57-1.037-5.53-3.484-11.056-6.844l-.235-.143a2674.834 2674.834 0 0 0-11.142-6.733l-.773-.465-.2-.12c-2.911-1.311-5.277.732-5.21 4.949z" fill="#F6BC25" fill-rule="nonzero"/><path d="M140.551 79.473c26.007.498 27.202 35.858 27.202 35.858-20.029 1.894-22.818 20.028-22.818 20.028 7.386 7.835 15.694 26.209 17.249 37.334l-25.77-20.635 9.912 20.637-22.853-14.542 8.94 11.63H97.742l-9.983 13.554-3.895-13.555-17.909-.001c11.512-5.206 10.624-18.036 10.624-18.036l-7.132 6.57c1.664-12.088-.73-17.37-.73-17.37-39.772-.605-36.784-31.096-36.784-31.096s-.004-10.296 7.688-13.27l24.257-7.501S69.6 75.17 88.397 70.33v4.93s9.452-8.246 25.196-6.166l-.424 5.807s13.448-7.716 27.382 4.572" fill="#1A1919"/><path d="M76.524 92.26s3.81 5.965 13.129-7.725c0 0 10.5-1.526 13.363 10.028 0 0-3.118-3.09-7.607-3.451 0 0 2.44 1.987 1.198 6.058 0 0-7.807-1.758-8.544 5.745 0 0-5.247-1.242-5.72-6.16 0 0-6.049 3.531-5.819-4.495zm32.688-11.11l.446-7.286c-16.423-.706-24.507 8.52-24.507 8.52v-5.836C72.6 80.914 68.134 89.296 68.134 89.296l5.64 1.538-27.213 7.624s11.622 2.078 5.451 13.032c0 0 .28-5.86-3.93-6.537-4.21-.671-4.91 8.505-4.91 8.505s.122-7.995-3.467-8.394c-3.586-.398-3.322 5.841-3.322 5.841s-.697 11.133 6.211 16.185l.668-11.692s2.977 17.035 19.144 18.47H82.36c17.136-.103 18.183-9.072 18.183-9.072-.05 18.336-24.255 14.517-24.255 14.517l16.035 9.399-12.01 1.132c11.48 9.104 8.847 24.888 8.847 24.888l9.517-13.012c-.003 0 19.113.073 19.303 0l-13.103-16.596 20.744.002c-21.02-3.78-19.15-20.926-19.15-20.926 17.041-15.993 5.879-33.334 5.879-33.334 14.849 17.987.698 33.73.698 33.73-1.294 11.957 11.46 13.353 11.46 13.353s13.489 2.743 17.24-8.369c5.578-16.542 20.527-17.14 20.527-17.14-3.886-29.596-25.41-28.2-25.41-28.2s-9.866-12.954-27.652-3.09z" fill="#A2801C"/><path d="M87.572 92.749s2.671-1.919 2.992-3.481c0 0 4.434 2.611 3.387 5.167 0 0-4.464-.538-6.12 3.001 0 0 1.75-3.209-.26-4.687" fill="#FFFFFE"/><path fill="#F6BC25" d="M104.055 182.63h-.623v-4.426h-1.424v-.546h3.474v.546h-1.427v4.426m6.92 0h-.604v-4.342l-1.614 4.342h-.422l-1.632-4.342v4.342h-.528v-4.972h.922l1.502 3.977 1.466-3.977h.91v4.972"/></g></svg>