<?xml version="1.0" encoding="UTF-8"?>
<svg width="200px" height="200px" viewBox="0 0 200 200" version="1.1" xmlns="http://www.w3.org/2000/svg" xmlns:xlink="http://www.w3.org/1999/xlink">
    <!-- Generator: Sketch 51.3 (57544) - http://www.bohemiancoding.com/sketch -->
    <title>umkc</title>
    <desc>Created with Sketch.</desc>
    <defs></defs>
    <g id="umkc" stroke="none" stroke-width="1" fill="none" fill-rule="evenodd">
        <g id="umkc_BGL" transform="translate(0.000000, 46.000000)">
            <g id="umkc" transform="translate(0.473373, 0.000000)">
                <g id="g10" transform="translate(99.408284, 53.961371) scale(-1, 1) rotate(-180.000000) translate(-99.408284, -53.961371) translate(0.000000, 0.863080)" fill-rule="nonzero">
                    <g id="g12">
                        <path d="M191.844172,68.9062039 L190.857089,68.0570893 C190.577937,68.1693736 190.263611,68.3017684 189.940911,68.4470117 C188.471452,69.0961374 186.598339,70.0139632 185.042902,70.8021873 C183.504214,71.5814734 182.191639,72.2797584 182.030847,72.3741665 C181.940402,72.4250016 181.828741,72.4959474 181.704797,72.5786243 C181.858889,72.5210856 182.014656,72.4618711 182.16149,72.4082428 C182.608693,72.2467993 183.020163,72.1099354 183.399811,72.0043548 C183.790066,71.9021258 184.103833,71.8144212 184.583417,71.8054832 C184.843029,71.8250352 185.232167,71.7859312 185.823412,72.2166334 C186.396791,72.7004052 186.823336,73.2311018 187.085181,73.5947687 C187.403973,73.7416878 187.851176,73.9522906 188.257063,74.1578657 C188.364258,74.2165216 188.458611,74.2841156 188.555198,74.3500337 C189.684649,72.9132425 190.811308,71.4568993 191.657698,70.3122706 C191.973141,69.8877133 192.250618,69.5039358 192.467241,69.1911042 C192.119417,69.0296607 191.844172,68.9067625 191.844172,68.9062039 Z M178.806636,84.3450058 L173.923143,82.7227501 C174.484798,83.3841656 174.795774,84.134403 174.934792,84.6589547 C175.09,85.2404865 175.138015,85.5963325 175.187704,85.7633623 C175.292107,86.1784229 175.435033,86.4722612 175.479697,86.5225377 C175.625415,86.7376095 175.931924,87.0901038 176.290914,87.6705183 C176.643763,88.2403188 177.042393,89.1447375 177.053001,90.2044548 L177.051884,90.2631108 L177.053001,90.2631108 C177.053001,90.2631108 177.053001,90.2631108 177.053001,90.2781937 L177.053001,90.2798696 C177.053001,90.3022147 177.051884,90.3379669 177.049651,90.3860089 L177.048534,90.3860089 C176.983771,91.9602226 176.455614,92.8702276 176.389734,93.2607086 C176.036886,94.4466758 175.948115,96.0957457 175.446757,98.0710543 C175.431683,98.1246826 175.417167,98.1760763 175.403768,98.2257942 C176.038002,97.7297326 176.743141,97.000723 177.113856,96.4208672 C177.604606,95.7058233 177.847468,94.5913605 177.842444,93.0959134 C177.846352,91.8602282 177.684443,90.4519271 177.588415,89.0101082 L177.582832,88.8307886 C177.582832,88.0325092 177.597348,87.178367 177.61298,86.3767358 L179.539132,85.2846181 L178.782629,84.3651164 L178.806636,84.3450058 Z M173.903044,75.6119743 C173.444676,75.4712001 173.452492,75.462262 173.424019,75.4600275 C172.584328,75.2399281 172.330299,74.9673176 172.061196,74.783529 C171.640234,74.4450005 171.387322,74.1651278 171.097562,73.8584411 C170.307561,72.9724571 169.250131,71.8630219 168.897841,71.6937576 C167.957097,71.1233984 166.405009,70.0290462 164.342631,68.8408444 C162.313751,67.6660497 159.871167,66.4761721 157.64688,65.899668 C155.988157,65.4639382 153.987192,65.1483134 151.949937,64.9321243 L150.431348,63.0204993 C150.142704,64.7751499 149.869135,66.4906964 149.660329,67.9431292 C151.234749,68.1548492 152.784045,68.4341632 154.225588,68.812913 C157.040003,69.5558882 159.726008,70.9133543 161.922938,72.1881434 C164.100885,73.454553 165.847821,74.6857691 166.482055,75.0673121 C167.440665,75.6544301 168.234575,76.4096951 168.872717,77.009103 C169.185368,77.3079689 169.459496,77.5682896 169.640386,77.7235882 C169.672768,77.7520782 169.702916,77.7766578 169.72804,77.7973271 L169.76768,77.8101755 C170.439321,78.0051367 170.605137,78.1235658 171.122128,78.1358556 C171.203082,78.1369729 171.268403,78.1392074 171.319767,78.1392074 C171.356616,78.1392074 171.391231,78.1386488 171.422496,78.1380901 C171.574355,77.8760936 171.813309,77.4744401 172.128751,77.0727866 C172.535756,76.5778422 173.101877,75.9415649 174.09231,75.6588991 C174.029221,75.6432575 173.962783,75.6292918 173.903044,75.6119743 Z M137.029239,70.4631001 L137.582519,67.1968022 C137.636674,67.1979195 137.710929,67.1979195 137.814215,67.2012712 C138.892302,67.228644 140.278015,67.257134 141.827311,67.3174659 C142.230965,66.3024388 142.579906,65.4678486 142.800436,64.970111 C142.856267,64.8477715 142.932196,64.6550448 143.018175,64.4254487 C142.670351,64.4165107 142.33816,64.4075726 142.028859,64.3991932 C141.668752,64.3902552 141.330978,64.3857861 141.014419,64.3857861 C139.503646,64.3857861 138.50093,64.483546 137.943184,64.5606367 L137.705346,62.8445315 L137.220179,64.1064721 L137.152066,64.5779542 C137.152066,64.5779542 137.142016,64.5762783 137.096794,64.570692 L137.095119,64.5690161 C137.081161,64.566223 137.06497,64.5628712 137.045988,64.5595195 L137.054362,64.5215327 L136.441344,63.8148683 L136.196248,64.2321634 L136.146,64.2025562 L136.263803,63.6098519 L134.706132,61.8116283 C134.700549,59.0542406 134.500117,56.2203207 134.260605,53.395339 C134.160668,54.1388728 134.103163,54.8807308 134.105954,55.6264992 C134.105954,56.0398839 134.122145,56.4532686 134.157877,56.8688878 C134.444845,60.2396492 134.777595,63.7847024 134.866924,67.3643906 L134.925546,69.7564357 L111.767617,61.9680442 C103.657121,67.1951263 93.9320083,69.8363195 84.2588176,69.8413472 C78.797479,69.8413472 73.3411652,68.9994948 68.1813113,67.2794792 C62.21694,65.2913221 56.4329012,63.0221752 50.654613,60.9960315 C46.7828802,59.6385654 43.2516016,58.676608 39.3716059,58.3414312 C37.6145087,58.1911603 35.9114554,58.1101592 34.2718256,58.1101592 C27.7953212,58.1123938 22.3886966,59.3631618 18.1569129,62.3719322 C17.3857263,62.9227394 16.6440183,63.5349957 15.9341336,64.2176391 C20.4346294,61.5401351 25.6547802,60.1133992 30.6738296,59.7659326 C31.5523224,59.7083939 32.4329367,59.6799039 33.3161751,59.6799039 C49.8254186,59.7419116 66.668305,69.3536649 79.1078966,77.6146557 C85.3542118,81.7915172 91.2889929,86.1594295 97.5353082,89.836319 C104.985887,94.2383076 113.036085,97.5923101 120.825555,97.5761099 C124.486919,97.5727581 128.109201,96.8627419 131.747674,95.1712164 C136.752878,92.8590551 141.280172,89.0564743 146.500881,85.6806853 C148.573867,84.3477989 151.215766,82.6289006 154.049164,81.1379225 C156.232694,79.9977627 158.519511,78.973239 160.868858,78.3850037 L137.029239,70.4631001 Z M144.121386,55.9594415 C143.78417,55.9594415 143.419038,55.9292755 143.003659,55.8672678 C141.856901,55.6974449 141.28408,55.6706308 140.696744,55.5656087 C140.517528,55.5248289 140.285273,55.4851663 140.013378,55.3544473 C140.096566,56.496283 140.171379,57.6453808 140.219393,58.8078856 C140.472305,58.8022993 140.7375,58.7995062 141.014419,58.7995062 C141.380667,58.7995062 141.766456,58.8050925 142.174577,58.8157064 C142.883624,58.8346998 143.726106,58.8542517 144.657359,58.8833004 C144.956052,57.5917525 145.159833,56.4147233 145.153692,55.8376606 C144.830433,55.922572 144.485401,55.9600001 144.121386,55.9594415 Z M140.985946,18.8168247 C143.210232,18.0164225 145.296059,16.7645371 147.430459,15.4091939 C147.221653,15.4912563 147.015638,15.575665 146.802924,15.6526998 C143.780262,16.7125847 141.112681,16.6158862 138.918542,16.9360359 C138.476923,17.0023451 138.312223,17.0739612 138.025813,17.242611 C137.783509,17.391206 137.449642,17.6659393 136.994624,18.1091547 C136.895245,18.3631629 136.714355,18.9202267 136.513365,19.628567 C138.14864,19.4738829 139.629823,19.3213216 140.985946,18.8168247 Z M170.852466,102.588679 L170.801661,103.736659 L171.504008,103.736659 L172.066221,103.648396 C172.012066,103.615437 171.954002,103.592533 171.901521,103.556781 C171.498425,103.29255 171.151718,102.958491 170.852466,102.588679 Z M168.670611,15.2232825 L168.671169,15.2226121 L168.462363,14.756046 L168.670611,15.2232825 Z M197.380324,70.8602846 L191.442193,79.6139853 C191.442193,79.6139853 188.12642,83.8299508 188.120837,83.8383302 L187.728349,84.2327216 L183.170347,87.9867017 C183.168114,88.2442292 183.165881,88.4978463 183.165881,88.7425254 C183.24516,89.9569826 183.423259,91.4619265 183.425493,93.0959134 C183.424376,93.6735347 183.396461,94.2802047 183.330581,94.9008404 C183.031329,97.7157669 182.052621,100.454161 179.890864,102.395394 C179.332001,102.897042 178.681576,103.366289 178.018868,103.720459 C176.026836,104.785763 173.865638,105.048877 171.635768,105.12485 C171.007675,105.146078 170.379582,105.148871 169.750931,105.147195 C169.358442,105.146078 168.966512,105.136023 168.574024,105.129319 C168.337303,105.125409 168.144687,105.117588 168.006786,105.110326 C167.808588,105.102505 167.694694,105.095801 167.694694,105.095801 C167.694694,105.095801 168.881092,102.587562 169.688401,98.0554127 L169.719107,98.0285986 C169.817369,97.4504186 169.963087,96.9990472 170.049066,96.6454356 C170.389632,95.427068 170.472261,93.7450391 171.014933,91.7485026 C171.166792,91.2172474 171.316418,90.8351459 171.390672,90.582646 C171.40798,90.5290177 171.420821,90.4815343 171.431987,90.4413131 C171.33205,90.303332 171.160092,90.0748532 170.930629,89.7614628 C170.278529,88.8352576 169.99156,87.9308389 169.790012,87.1923327 C169.671651,86.7258783 169.613588,86.3979637 169.577856,86.2393133 C169.303728,86.0298278 168.600823,85.6505194 167.641096,85.0924501 C166.869519,84.61203 166.124182,84.2109351 165.405085,83.922683 C164.083578,83.7472738 162.504691,83.8059298 160.656702,84.2857912 C159.378184,84.7421903 158.007545,85.3611501 156.646398,86.0828975 C154.111135,87.4152253 151.602113,89.0402741 149.518519,90.3804227 C144.697557,93.4606974 139.997188,97.4749982 134.102604,100.236296 C129.709861,102.285344 125.218298,103.165742 120.825555,103.16239 C111.437659,103.14619 102.569543,99.2732217 94.7019108,94.6505751 C88.1301038,90.7753727 82.1138101,86.3387491 76.0076294,82.2607648 C63.9314944,74.1472517 47.5937622,65.2036175 33.3161751,65.2656252 C32.5537539,65.2656252 31.7959108,65.2902049 31.0441533,65.3404814 C24.9139096,65.7343141 18.4179763,68.2090361 14.4291111,72.4557262 C12.6534781,74.3081366 11.1401369,76.8901152 10.650336,78.7883331 C10.2304907,80.3496984 9.86608509,82.0032372 9.63271364,83.5562231 C9.45673593,84.636051 9.03582986,85.4583514 8.4860112,86.181216 C8.20317393,86.5409725 7.88477265,86.8755906 7.44879235,87.1878637 C7.02023751,87.4783502 6.46589657,87.8051476 5.57694117,87.8744175 C5.5736695,87.8744175 5.55992962,87.8755347 5.5350683,87.876652 C5.52940151,87.8772106 5.52394687,87.8777692 5.51827449,87.8777692 C5.48382149,87.8794451 5.43431102,87.881121 5.36757683,87.8816796 C4.66860701,87.9001144 3.82198787,87.5962207 3.28963856,87.1208283 C2.47464182,86.3957292 2.27312724,85.6756577 2.13616947,85.1606027 C2.01447575,84.6254371 1.99266836,84.1813278 1.99048539,83.7428048 C1.99834074,82.4244428 2.24347009,81.0859701 2.49536051,79.839671 C2.74834521,78.6134826 3.03098707,77.5168958 3.14591972,77.0510001 C5.35842063,68.0420064 9.40939167,61.7222479 14.9246067,57.8168795 C20.4337361,53.9070422 27.1170366,52.5222034 34.2718256,52.5238793 C36.0955286,52.5238793 37.9549072,52.6138184 39.8477283,52.7752619 C44.3693281,53.164067 48.415922,54.2913783 52.5013739,55.7242591 C58.4070674,57.7962103 64.1648658,60.053626 69.9455548,61.9797754 C74.5024394,63.4998021 79.3714165,64.2550672 84.2588176,64.2550672 C96.0396093,64.2623294 107.849991,59.8480509 115.734931,51.5222593 C118.100469,49.0117851 121.019846,45.6689552 126.012766,35.6097408 C127.368331,32.9037468 128.651874,28.1570847 129.657939,24.0255838 C130.168788,21.9473201 130.623807,20.0111154 131.048118,18.4486888 C131.262507,17.6637606 131.464614,16.9772627 131.689052,16.3617105 C131.802946,16.0509457 131.920191,15.7600681 132.075399,15.4504206 C132.239541,15.1409966 132.402566,14.8143109 132.836369,14.3663471 C133.502427,13.7060489 134.184117,13.0607777 135.071822,12.5025966 C135.953943,11.9435217 137.04208,11.5417564 138.180463,11.3988594 C140.953564,11.0518955 143.143236,11.0575377 144.918087,10.3948373 C148.844645,9.01748408 152.480327,6.05608535 156.992547,3.60990922 C159.270989,2.39489333 161.80681,1.32607039 164.65584,0.91385879 C165.392803,0.809339492 166.605441,0.654208498 167.949839,0.652029849 C168.868251,0.656387147 169.845284,0.716160343 170.879823,0.99726195 C171.883097,1.28048634 173.116393,1.81162984 173.988465,3.13440507 C174.123016,3.34785683 174.435109,3.78358667 174.690254,4.12446147 C174.778466,4.24272302 174.859979,4.35226997 174.929767,4.44438772 C174.975548,4.48231856 175.024121,4.52376876 175.074926,4.56896177 C175.253026,4.73504187 175.46574,4.94318666 175.704136,5.30020581 C175.9269,5.65219731 176.227826,6.2079763 176.2362,7.05485635 C176.244017,7.34707465 176.190978,7.65711319 176.097741,7.95475018 L176.914541,9.19227878 L175.318905,9.23853318 C174.939816,9.61800918 174.556819,9.83620927 174.225744,9.98480432 C173.311241,10.3887482 172.450893,10.4485214 171.833966,10.4496387 C171.242163,10.4452255 170.821201,10.4037753 170.65706,10.4090264 C170.639194,10.4090264 170.61072,10.4090264 170.568289,10.4083561 C170.293603,10.4133837 170.023942,10.414501 169.760422,10.414501 C169.716316,10.414501 169.644294,10.4155624 169.544358,10.4155624 C168.943622,10.4112051 168.381967,10.4227687 167.920249,10.4591912 C168.106164,10.6390136 168.279239,10.8445887 168.434448,11.0837373 C168.595798,11.3418793 168.909007,11.7826927 169.167502,12.1340138 C169.292562,12.3037809 169.40534,12.4545546 169.488527,12.5658332 C169.548824,12.612758 169.614146,12.6680063 169.685051,12.7328072 C169.903906,12.9852511 170.400239,13.3060153 170.472261,14.3839998 C170.474494,14.4605877 170.462211,14.5404715 170.45272,14.6199084 L172.222547,16.5242712 L168.41379,16.541477 C167.41275,16.8197296 166.528953,16.7785028 165.965623,16.8014066 C165.893044,16.802468 165.812648,16.8040321 165.726669,16.8040321 C164.857388,16.8014066 164.06292,16.7186738 163.399654,16.72264 C162.976459,16.7212993 162.613561,16.7531411 162.338317,16.8203999 C162.297002,16.8219082 161.783361,17.0119535 161.152477,17.3196458 C158.87236,18.4096407 154.451701,20.9714528 150.32192,23.8656486 C148.446574,25.1644587 146.618684,26.5683467 145.069388,27.9151988 C144.56133,28.981061 144.168842,29.9608945 143.815993,30.979832 C143.213024,32.7227514 142.720041,34.6271142 142.007085,37.1711061 C140.787189,41.4189134 139.445024,44.9008417 139.469031,48.2900377 C139.469031,48.6810773 139.485222,49.0709996 139.519837,49.4592461 C139.552777,49.8352027 139.587392,50.2212147 139.62089,50.602199 C139.828021,50.3653407 140.127831,50.0418951 140.502453,49.7000148 C141.118264,49.1855184 141.852993,48.5218683 143.009242,48.2922722 C142.886415,48.1855743 142.771405,48.0755246 142.682076,47.9654748 C142.107022,47.3018248 141.961304,46.5007522 141.96912,46.0119527 C141.987545,45.2673016 142.157828,44.9164832 142.272838,44.6165 C142.645228,43.8003445 142.98356,43.4405881 143.045532,43.3394764 C143.108621,43.2623857 143.64571,42.593708 144.392164,41.8512914 C144.770694,41.4786866 145.192773,41.0865297 145.716463,40.7122489 C146.269743,40.3720445 146.813532,39.8815691 148.210969,39.8128579 C148.435966,39.8128579 148.667104,39.8368789 148.888193,39.8826864 C149.67317,40.0553024 151.291696,40.4189692 152.816985,40.8401748 C153.585771,41.053012 154.321616,41.2731115 154.985999,41.5244941 C155.32154,41.6557716 155.636983,41.7848147 155.999881,41.9881553 C156.184122,42.0942946 156.383436,42.2149583 156.635232,42.4277955 C156.87642,42.6490122 157.225919,42.9456437 157.52182,43.6634806 C157.682612,44.1159693 157.685962,44.3008752 157.706619,44.4578497 C157.720577,44.6081206 157.721693,44.7064391 157.721693,44.7924678 C157.714994,45.2734465 157.668654,45.5840437 157.607799,46.0823399 C157.2583,48.7173881 156.095909,55.1505481 155.399145,59.7491738 C156.650864,59.9446936 157.883043,60.1876968 159.060508,60.4955008 C162.06363,61.2870767 164.854038,62.6942606 167.130247,64.0014501 C169.375191,65.2946739 171.199732,66.5672285 171.769761,66.9040812 C173.041021,67.691188 173.886295,68.6576144 174.608183,69.424052 C174.89571,69.738001 175.149739,70.0178736 175.326722,70.2033381 C175.368595,70.2178624 175.397626,70.2279177 175.415492,70.233504 C175.446757,70.2374144 175.526595,70.2452352 175.669521,70.2491456 C175.715302,70.2502628 175.75885,70.2513801 175.800164,70.2524974 C175.851528,70.1994277 175.904009,70.1452408 175.959281,70.0877021 C176.179812,69.8726303 176.420441,69.6491791 176.676703,69.424052 L185.325963,65.7192312 C185.325963,65.7192312 187.398949,64.204232 189.199482,63.5160024 C189.618211,63.3612624 190.019632,63.2545645 190.374155,63.2249572 C190.38588,63.2238399 190.391463,63.2216054 190.402071,63.2204881 C190.677315,63.2635025 190.937485,63.3355655 191.168065,63.4506429 C191.803974,63.7685022 192.446025,64.5461124 192.446025,65.4516484 C192.446025,65.8873782 192.08201,66.2711556 191.768801,66.5342694 C191.513656,66.7493412 191.001132,67.2107679 190.671732,67.3342247 C190.657216,67.3386937 190.643258,67.3448386 190.628743,67.3493077 C190.628743,67.3493077 190.667824,67.3359006 190.671732,67.3342247 C190.868814,67.2744515 191.060871,67.2035058 191.250694,67.1292082 C191.625317,66.9878753 191.992123,66.833694 192.372887,66.7107959 C192.529212,66.6627539 192.686654,66.617505 192.850796,66.5862218 C193.598925,66.4454476 194.367152,66.4566201 195.119189,66.5616422 C195.66242,67.2593686 197.229581,69.2910986 197.380324,69.6961039 C197.621511,70.3374088 197.380324,70.8602846 197.380324,70.8602846 Z" id="path62" fill="#231F20"></path>
                        <path d="M177.470613,72.5953832 C177.774889,72.0976456 179.458736,70.6323644 180.641784,69.9513969 C181.509949,69.4531007 191.123959,64.4254487 191.768801,64.9477659 C192.003289,65.1388167 192.226611,65.3767922 192.417551,65.6024779 C192.355021,65.9845795 192.034554,66.3203149 191.75261,66.5571732 C191.497465,66.7722449 190.984941,67.2336717 190.654983,67.3571285 C190.641025,67.3615975 190.627068,67.3677424 190.611993,67.3722114 L190.651633,67.3588043 C190.65275,67.3582457 190.653866,67.3576871 190.654983,67.3571285 C191.39697,67.13256 192.063586,66.7538102 192.834605,66.6096842 C193.014379,66.5756079 193.195828,66.5515869 193.377278,66.5342694 C193.692162,66.6783954 194.138247,66.8856464 194.530735,67.0822835 C195.216334,67.4258397 195.740024,68.4872329 195.49437,69.5653849 C195.250391,70.643537 185.955172,82.0753003 185.955172,82.0753003 L180.556364,86.5214205 L180.403947,86.4342745 C180.387756,87.2252917 180.374356,88.0632337 180.374356,88.83023 C180.563063,91.763027 181.181665,95.363943 179.432496,97.9755289 C178.643053,99.154234 177.35616,100.405561 176.120631,101.09379 C174.756692,101.854642 173.291142,101.717219 172.630109,100.211158 C172.198539,99.2285315 172.489416,98.3391957 172.747911,97.358245 C173.168873,95.7605689 173.253736,94.0958575 173.702054,92.5060022 C173.909186,91.767496 174.271525,91.030107 174.261476,90.2463519 C174.248635,89.3866235 173.673581,88.80174 173.206838,88.1442348 C172.856781,87.6532008 172.642392,87.0543516 172.489416,86.4767302 C172.294568,85.738224 172.284518,85.0388218 171.741288,84.452821 C171.035032,83.691411 169.985977,83.2607089 169.111113,82.7182811 C167.956539,82.0004441 166.740551,81.3585805 165.429092,80.9770376 C164.757452,80.7792833 164.047288,80.6669991 163.34494,80.749676 C158.309588,81.3423803 152.167118,85.3572397 148.009979,88.0308333 C142.989144,91.2580272 138.375312,95.1661887 132.925139,97.7040357 C120.349321,103.559574 107.370407,98.8715682 96.1188886,92.243447 C89.7095483,88.4671218 83.734011,84.0645745 77.5591588,79.9379895 C64.6444497,71.3122147 46.9244104,61.4770102 30.8600802,62.5529277 C24.1543358,63.001506 17.0555448,65.6253817 12.4037484,70.5329286 C10.3360662,72.7171641 8.62949556,75.5522012 7.9551749,78.0637926 C7.51271826,79.7089521 7.12603628,81.4546646 6.87262169,83.1406038 C6.72712743,84.1003267 5.94399314,85.0617255 5.39178493,85.0868638 C3.93299564,85.1533405 5.50890055,79.1263031 5.85633928,77.7213537 C10.630907,58.4112597 23.423738,54.1679215 39.6110629,55.5583466 C43.8103532,55.9192202 47.5994011,56.9644132 51.5786634,58.359866 C57.4199843,60.4089134 63.1911821,62.6719155 69.0639914,64.629348 C85.6210815,70.1491512 105.708334,66.1404367 117.758787,53.4444982 C120.268367,50.8010705 123.468013,47.0521181 128.515647,36.8487777 C131.636013,30.5390745 133.572773,17.576056 134.807185,16.3448958 C136.041597,15.1120038 136.971733,14.3767935 138.54727,14.167308 C141.032843,13.8332484 143.461469,13.8847539 145.860506,13.0239082 C150.383334,11.4003677 154.115602,8.31417144 158.308472,6.07396145 C160.422772,4.94318666 162.659342,4.02279117 165.052795,3.67906737 C166.640614,3.44952713 170.588946,2.99826743 171.638001,4.64096891 C172.061196,5.30366931 172.947785,6.44712495 172.947785,6.44712495 C172.947785,6.44712495 173.954967,7.05156044 173.105785,7.42690259 C172.257161,7.80246819 171.338192,7.59907174 170.570522,7.6146016 C169.27693,7.64035435 167.776765,7.55108559 166.509412,7.84983985 C164.028864,8.43461163 147.432692,18.0124562 143.949986,24.0589898 C141.320928,28.6240977 140.729125,31.398803 139.319405,36.4141651 C138.048703,40.9312311 136.330799,45.0404987 136.739478,49.7078356 C137.084511,53.6344317 137.488724,57.7448165 137.497098,61.8054834 C137.535063,61.8110697 137.572469,61.8155387 137.609876,61.8233595 L137.559628,61.7937522 C138.399319,61.676999 139.876594,61.5479559 142.103672,61.6071705 C143.48771,61.6440399 145.328441,61.6837025 147.358996,61.7848142 C147.941308,60.2910429 148.471698,59.0134607 148.7542,58.3861215 C149.524661,56.673368 151.780771,49.2519951 151.157144,47.7900657 C150.534634,46.3275776 151.163844,46.3934957 150.033276,46.3275776 C148.902151,46.2611008 148.990363,46.8862056 146.584627,46.5515874 C145.278194,46.3705919 144.990108,46.3683574 144.805868,46.1521684 C144.588129,45.8979926 145.242462,45.0634024 145.242462,45.0634024 C145.242462,45.0634024 147.383003,42.4121539 148.320955,42.6171704 C149.777015,42.9367056 154.67949,44.0528444 154.919561,44.6723628 C155.113293,45.1723349 152.891239,56.8683292 152.246397,62.1546259 C154.371864,62.3819875 156.490631,62.7087849 158.354253,63.1970258 C163.580545,64.5651057 168.82247,68.3911489 170.334918,69.2989194 C171.846249,70.2066899 173.49939,72.6149351 174.044295,72.7361574 C174.589759,72.8601728 174.647823,73.0154714 175.596383,73.0406097 C176.544943,73.0657479 177.167453,73.0925621 177.470613,72.5953832" id="path64" fill="#231F20"></path>
                        <path d="M177.623588,72.6255491 C177.929539,72.1205494 178.625745,70.7435314 179.61897,70.5854396 C180.612194,70.4262307 190.619251,64.1221137 191.266885,64.6522517 C191.567811,64.8991653 191.992123,65.3896407 192.360046,65.8438052 C192.232194,66.1175329 191.994356,66.3571843 191.778292,66.5387384 C191.523147,66.7538102 191.010623,67.2152369 190.681223,67.3386937 C190.666707,67.3431628 190.65275,67.3493077 190.637675,67.3537767 L190.676757,67.3403696 C190.678432,67.339811 190.680107,67.3392524 190.681223,67.3386937 C191.422652,67.1141253 192.089268,66.7353755 192.860287,66.5906908 C192.885969,66.5856632 192.911651,66.5845459 192.937333,66.5800769 C193.054577,66.7348169 193.127157,66.8331354 193.127157,66.8331354 C193.127157,66.8331354 193.997554,67.2219405 194.685386,67.5699657 C195.373776,67.9168737 195.896908,68.9933499 195.649579,70.0888194 C195.401691,71.1820543 186.059017,82.7802888 186.059017,82.7802888 L180.628385,87.302941 C180.628385,87.302941 180.444144,88.8687753 180.441911,89.6463855 C180.438003,92.2529437 181.02869,94.7645352 180.191232,97.3230514 C179.550298,99.2816011 177.890458,101.638453 175.833104,102.279758 C174.758926,102.614934 173.210188,102.276964 172.678123,101.211661 C171.969634,99.7888354 172.312992,98.1894834 172.660816,96.7242022 C172.972908,95.4097505 173.283326,94.0925057 173.673581,92.7964887 C173.882945,92.1060245 174.802473,90.3832158 174.007447,89.7893942 C173.228054,89.205628 172.767452,88.1933941 172.529056,87.2722165 C172.334766,86.523655 172.325833,85.8136388 171.782044,85.2198172 C171.072997,84.448352 170.020592,84.0120635 169.14517,83.4634908 C167.986129,82.7367158 166.766791,82.0875901 165.44975,81.7021368 C164.774759,81.5049411 164.06292,81.3915396 163.359456,81.476451 C158.300655,82.0864728 152.124687,86.1733952 147.946333,88.8944722 C142.898698,92.1797634 138.258626,96.1560775 132.781097,98.7414079 C120.14219,104.710907 107.117495,99.9754171 95.8335948,93.2679708 C89.4041556,89.4447208 83.4124274,84.987428 77.2191511,80.8111251 C64.2670356,72.0769764 46.4921708,62.1272532 30.3593365,63.2478609 C23.6243928,63.7159912 16.4922152,66.3923779 11.8125035,71.3831604 C9.73198025,73.6031481 8.01318277,76.4851099 7.33104584,79.0346881 C6.88373196,80.706103 6.49247188,82.4791883 6.23425586,84.1913831 C6.08770083,85.1667476 5.89034004,87.0269788 4.47254708,86.9012875 C1.97805752,86.6811881 3.17819532,81.4490783 3.39649812,79.9960869 C6.03494101,62.4339399 22.2892066,54.8673237 38.5402899,56.2488108 C42.7558827,56.6080086 47.1776576,57.5448277 51.171715,58.9536875 C57.0325207,61.0234042 62.8238175,63.3104273 68.7167257,65.2874117 C85.3318796,70.8569328 105.510135,66.752693 117.633168,53.8439172 C120.158381,51.1546821 126.380131,44.1533974 128.676997,37.3856192 C130.973864,30.6195169 133.578914,17.40344 134.820584,16.1511077 C136.061696,14.8974906 136.997974,14.1511636 138.58021,13.9338573 C141.075833,13.5914742 143.515067,13.6394604 145.925827,12.7607386 C150.469313,11.1038479 154.222796,7.9637441 158.436882,5.68119011 C160.562349,4.53097506 162.810642,3.59136277 165.214145,3.23830988 C166.809222,3.00374198 170.774304,2.53890763 171.825592,4.20255766 C172.24767,4.87469887 173.135933,6.03318161 173.135933,6.03318161 C173.135933,6.03318161 174.145907,6.64549375 173.293375,7.02865669 C172.440285,7.4114286 171.488376,7.38612275 170.717356,7.40399884 C169.418739,7.4330475 167.941465,7.16373294 166.668529,7.46947004 C164.177373,8.06826339 147.495222,17.8213496 143.987393,23.9651403 C141.338236,28.6034285 140.738616,31.4217068 139.312706,36.5158354 C138.030279,41.1038472 136.296743,45.2767983 136.69928,50.0145223 C137.038172,54.0003331 137.436243,58.1699324 137.438476,62.2942829 C137.475324,62.2976347 137.512731,62.303221 137.551254,62.3110418 L137.499331,62.2814345 C138.344605,62.1613295 139.827463,62.0272587 142.063474,62.0836802 C143.452537,62.1188737 145.301084,62.1546259 147.34113,62.255179 C147.926792,60.7373867 148.461648,59.4391352 148.746384,58.802858 C149.524102,57.0604972 151.803103,49.5234883 151.180035,48.0408896 C150.557525,46.5577323 151.692559,46.6225331 150.557525,46.5577323 C149.422491,46.4923728 150.675327,47.7342029 148.26345,47.3794741 C145.851573,47.0258626 144.858348,47.1845129 144.799726,46.5962776 C144.740546,46.0069251 144.988992,44.9125728 144.988992,44.9125728 C144.988992,44.9125728 146.882204,42.4663409 148.342729,42.7959314 C149.801022,43.1266391 154.723038,44.2405434 154.964225,44.8701171 C155.156841,45.3773513 152.905197,57.2537825 152.247514,62.6216389 C154.381913,62.846766 156.507938,63.1746807 158.37826,63.6679492 C163.622976,65.0460844 168.878858,68.9207282 170.396889,69.8391126 C171.913804,70.7591729 173.407828,72.6289008 173.95385,72.7534749 C174.500431,72.8780489 175.007371,73.1841771 175.959281,73.2070808 C176.911191,73.2322191 177.318195,73.1322247 177.623588,72.6255491" id="path66" fill="#FCD006"></path>
                        <path d="M168.982703,9.39718353 L177.627496,9.52572383 L174.110175,5.06234201 L174.303907,6.0717828 L175.205011,7.48779304 L175.504821,8.23976219 C175.504821,8.23976219 174.367554,8.34646014 174.260359,8.34646014 C174.153723,8.34646014 171.814426,8.38902759 171.21369,8.43137159 C170.612953,8.47544734 169.712408,8.86145928 169.62587,8.88330164 C169.541008,8.90402674 168.982703,9.39718353 168.982703,9.39718353" id="path68" fill="#231F20"></path>
                        <path d="M188.094597,77.7733061 C187.963953,78.3464584 185.865843,81.4501955 183.931317,84.2304871 L137.201755,68.5168402 C137.272101,68.5190747 137.335748,68.5190747 137.407769,68.5201919 C138.773383,68.5548269 140.590666,68.5911377 142.594422,68.6894562 C143.170593,67.1990367 143.698191,65.9208959 143.977343,65.2946739 C144.740546,63.584155 146.981582,56.1745132 146.368563,54.7170528 C145.756661,53.2584751 146.872154,53.3227173 145.756661,53.2584751 C144.638934,53.1936743 145.871672,54.4148351 143.501667,54.0668098 C141.131105,53.7187846 140.155746,53.8746418 140.097124,53.2964618 C140.03906,52.7182818 140.282481,51.6412471 140.282481,51.6412471 C140.282481,51.6412471 142.145545,49.2363535 143.579272,49.5603578 C145.011882,49.8854793 149.850711,50.9809488 150.088549,51.5987913 C150.278372,52.0982048 148.065252,63.7729712 147.418735,69.0492127 C149.517403,69.270988 151.607696,69.5938749 153.443961,70.0782054 C158.601582,71.4334369 163.768135,75.2421626 165.259926,76.1443468 C166.7506,77.0487656 168.218384,78.8872103 168.756031,79.0095498 C169.293679,79.1318893 169.79057,79.4318726 170.727406,79.4558936 C171.664242,79.4799146 172.06343,79.3815961 172.363239,78.8844171 C172.665282,78.3866796 173.347531,77.0336826 174.324564,76.8778254 C175.300481,76.7214095 183.788949,72.6518046 184.4243,73.1713286 C185.060209,73.6930872 185.615165,74.5723676 185.615165,74.5723676 C185.615165,74.5723676 186.469929,74.9550278 187.146037,75.2969082 C187.822144,75.6382299 188.336901,76.6968299 188.094597,77.7733061 Z M168.107281,14.4008145 C167.268707,14.7774415 166.331871,14.7534763 165.574252,14.7696207 C164.29685,14.7992838 162.845816,14.5349969 161.595213,14.8348684 C159.144812,15.4220423 142.745164,25.0103891 139.297631,31.0507778 C136.694814,35.6102995 136.104686,38.3805357 134.703899,43.3875184 C133.44213,47.8967636 131.738183,52.0004449 132.134021,56.6566092 C132.422107,60.0346327 132.750948,63.5478442 132.837485,67.0493244 L113.326404,60.4887972 C113.348178,60.4658935 113.371068,60.444107 113.392842,60.420086 C115.873949,57.7783342 124.295979,51.4373478 126.554322,44.7863229 C128.812107,38.1347394 132.632029,27.2219415 133.851367,25.9901667 C135.071822,24.7583362 132.427131,21.4022109 133.983127,21.1881446 C136.436319,20.8525209 138.835355,20.8994457 141.20201,20.0350806 C145.669565,18.4074621 149.359402,15.320372 153.502583,13.0775924 C155.592318,11.9457003 157.801531,11.0228469 160.164277,10.6748216 C161.733672,10.444611 165.630641,9.98659193 166.663505,11.6227575 C167.078883,12.2830558 167.950956,13.4232155 167.950956,13.4232155 C167.950956,13.4232155 168.944738,14.0254723 168.107281,14.4008145 Z" id="path70" fill="#FCD006"></path>
                        <path d="M149.852944,74.2723844 C146.39257,72.7171641 146.549454,69.0207226 147.405894,65.8510674 C148.05576,63.4433807 148.715677,61.0200525 149.660329,58.7078912 C150.500019,56.6515815 151.821527,54.7734742 152.24863,52.5652178 C152.599804,50.7519113 153.179883,48.7738096 152.560723,46.9549168 C151.959987,45.1896523 150.282839,43.9830159 148.364503,44.3606484 C147.329406,44.5634303 151.381024,48.4671228 144.296694,46.8733571 C142.646903,46.5013109 146.352372,42.7534756 147.199321,42.4467889 C148.643656,41.9272648 151.489894,42.8255387 152.922504,43.2640616 C155.665456,44.1020036 155.393562,45.0807199 155.258452,47.3001489 C155.087052,50.1178685 154.368514,52.7423028 154.066471,55.532091 C153.791785,58.0598827 152.993409,60.8474364 152.941487,63.4070699 C152.916363,64.6600725 152.789628,68.0386546 153.796251,68.8626309 C154.506974,69.4463972 155.241145,69.1145721 156.031704,69.0469781 C156.923317,68.9715634 157.769707,69.1156894 158.687002,69.2654017 C160.992243,69.6430342 162.599045,70.3083602 161.470711,72.9456429 C160.658377,74.8472126 158.009779,75.0097734 156.150623,75.3315431 C154.21163,75.6656026 152.139761,75.4678483 150.272789,74.9069858" id="path72" fill="#FCD006"></path>
                        <path d="M19.060641,58.9765913 C19.7581313,57.8263762 24.6075119,57.199037 25.8673827,56.9448612 C28.2377779,56.4661171 30.6509391,56.1856858 33.069516,56.1264712 C37.9309559,56.0086007 42.7875386,56.7180583 47.4644029,58.021896 C57.106217,60.7133657 65.9659575,65.5382357 75.852979,67.5291859 C81.5281483,68.6726974 87.3881166,69.0229571 93.1006923,67.9297222 C96.4164651,67.2956794 99.6082943,66.1175329 102.637657,64.6410791 C103.462273,64.2411015 108.184974,61.9965342 111.915009,58.8726865 L110.333331,59.3637205 L105.099781,61.5099692 L99.2560039,64.2422188 L91.4486681,65.8829092 C91.4486681,65.8829092 83.0941936,66.1471402 82.8574723,66.0225662 C82.6213093,65.8991094 73.7437031,64.5343812 73.4299357,64.4829874 C65.404861,63.1903222 58.1485722,58.5794068 50.318346,56.5169522 C47.2923334,55.71979 43.9793521,55.2365768 40.8508906,55.0237396 C37.3702503,54.785764 33.5364822,54.0461406 30.0716978,54.5807476 C27.7669593,54.9371522 24.8122981,55.3522128 22.6207281,56.1125055 C21.2461256,56.5901325 19.8030191,57.7520787 19.060641,58.9765913" id="path74" fill="#231F20"></path>
                        <path d="M174.332381,78.9441903 C174.332381,78.9441903 173.20293,74.3159574 175.764433,71.8105108 C178.325377,69.3056229 188.077289,66.2365207 189.847116,65.7566592 C191.616942,65.2762392 190.362989,67.3023829 190.362989,67.3023829 C190.362989,67.3023829 177.865334,73.5377886 177.504669,73.8640273 C177.144563,74.1902661 174.332381,78.9441903 174.332381,78.9441903" id="path76" fill="#FCD006"></path>
                        <path d="M174.709795,73.3394757 C174.449066,73.9601114 174.31954,74.6237614 174.262593,75.2991427 C174.198388,76.0549663 174.18108,76.8113487 174.211229,77.5694068 C174.211229,77.5694068 174.205646,77.5576757 174.201737,77.5353305 L174.205087,77.5682896 C173.79585,76.6353808 173.548521,75.6175606 173.4698,74.6019749 C173.398895,73.7104046 173.470916,72.8003996 173.803666,71.9658094 C173.897461,71.7311857 174.010797,71.5055 174.145907,71.2926627 C174.367554,70.9446374 174.662897,70.6256609 174.983364,70.3670161 C176.725834,68.8738035 180.119211,68.7894506 180.119211,68.7894506 C180.119211,68.7894506 182.055971,68.1928359 183.9369,67.6124214 C182.267568,68.1906014 180.645134,68.8536929 179.072389,69.6592344 C177.815087,70.3027739 176.520936,70.9926795 175.547252,72.0378724 C175.29099,72.3127174 175.062085,72.6300181 174.887336,72.9629604 C174.822014,73.0864172 174.763392,73.2126671 174.709795,73.3394757" id="path78" fill="#231F20"></path>
                        <path d="M183.9369,67.6124214 C184.957481,67.2588099 184.682795,66.757162 185.937865,66.3979642 C186.49282,66.2398725 185.950147,66.9906685 183.9369,67.6124214" id="path80" fill="#231F20"></path>
                        <path d="M74.3355062,78.9246384 C69.7713637,75.7628039 58.6326226,70.0279289 58.6326226,70.0279289 C58.6326226,70.0279289 53.7606307,67.7325265 50.6897304,66.6476709 C47.6183834,65.563374 34.4642175,60.6580615 22.1610198,64.9064274 C9.76793508,69.1860765 7.46928214,78.2297051 7.05144675,80.0849087 C6.63511878,81.9334087 6.20198584,85.0572565 5.90759167,85.8432461 C5.36234551,87.2951202 4.24268178,86.9297775 4.25118477,86.9197222 C3.67543283,86.7538097 3.10862495,86.1437879 3.03359994,85.425951 L3.07351315,85.4617032 C3.55090851,86.0532902 4.179437,86.1147393 4.45553553,85.598567 C4.75038751,85.0477598 4.80556478,84.3578542 4.9381622,83.7428048 C5.0988926,82.9942433 5.29910073,82.2562957 5.53027246,81.5261689 C6.57755755,78.2174153 8.12221972,74.9488829 10.1907952,72.1551843 C11.2878085,70.6731442 12.7675398,69.2877468 14.1440964,68.0677033 C15.3924103,66.9621785 16.7572425,66.0018969 18.2332332,65.225404 C20.331008,64.1221137 22.618774,63.2959029 24.8986679,62.6540394 C25.31628,62.5361689 25.7330546,62.4847751 26.1520066,62.3937187 C26.1520066,62.3937187 33.7625957,60.8843059 48.3465805,65.1835069 C63.7305046,69.7190076 78.8996488,82.0864728 74.3355062,78.9246384" id="path82" fill="#FFFFFF"></path>
                        <path d="M179.923246,82.2708201 C182.17489,83.0389335 183.517055,81.4155606 184.46059,79.6709654 C184.867036,78.9179348 185.375093,77.9984331 186.218134,77.6358836 C187.483253,77.0928972 188.417855,77.677222 188.236406,79.02575 C188.278279,78.7207391 187.918172,78.3972935 187.655211,78.3559551 C187.323019,78.3045613 186.899824,78.467122 186.62793,78.6509106 C185.776515,79.2257389 185.648104,80.4675689 184.969764,81.1993716 C183.631507,82.6451008 181.823716,82.9864225 179.994151,82.3300346" id="path84" fill="#231F20"></path>
                        <path d="M185.325963,79.0609436 C185.325963,78.4380734 184.821255,77.932515 184.198745,77.932515 C183.576235,77.932515 183.069852,78.4380734 183.069852,79.0609436 C183.069852,79.6849311 183.576235,80.1899308 184.198745,80.1899308 C184.821255,80.1899308 185.325963,79.6849311 185.325963,79.0609436" id="path86" fill="#231F20"></path>
                        <path d="M139.366861,58.9894397 C139.62424,65.3723232 140.0854,72.2099299 137.760618,78.3017681 C135.369956,84.5662225 129.113592,87.8833555 122.712068,88.4799702 C120.982997,88.6402965 119.177439,88.598958 117.453394,88.3838862 C114.737241,88.0442404 112.059052,87.4152253 109.632659,86.1102703 C112.322014,86.6934779 115.005227,87.3822662 117.758787,87.5878413 C122.696435,87.9559772 128.738411,86.1320568 132.35846,82.6668873 C135.223122,79.9251411 136.460884,76.0432352 136.965034,72.2015504 C137.640024,67.0537935 137.444059,61.8054834 137.247536,56.6331468" id="path88" fill="#231F20"></path>
                        <path d="M150.009269,55.0103325 C149.651396,56.4694688 149.361077,57.9671505 149.101466,59.4452802 C148.697253,61.7384481 148.12499,64.0321746 147.827972,66.3398669 C147.642615,67.7833616 147.563336,69.4754458 147.887152,70.9066507 C148.10545,71.8725185 148.511896,72.8059859 149.183536,73.5439335 C149.911566,74.3422129 150.811553,74.9349172 151.827668,75.298584 C152.308369,75.4706415 153.40153,75.833191 153.964301,75.9717308 C154.021807,75.9856965 152.174934,75.6912995 151.630028,75.5751049 C148.949048,75.0030698 146.617009,73.1109968 146.475199,70.1072541 C146.364655,67.7945342 146.933009,65.5203596 147.541003,63.3115445 C147.882686,62.0713904 149.413558,55.1270857 149.846803,53.9165389" id="path90" fill="#231F20"></path>
                        <path d="M0.562447525,87.9705015 C0.562447525,87.9705015 -0.701370534,81.0792665 2.80221047,72.2546201 C6.30622137,63.4322082 10.4162946,60.7301245 10.4162946,60.7301245 C10.4162946,60.7301245 4.27278,64.7025282 1.53250229,72.7087847 C-1.20755209,80.7161583 0.562447525,87.9705015 0.562447525,87.9705015" id="path92" fill="#231F20"></path>
                        <path d="M168.671727,13.6176739 C168.671727,13.6176739 169.924005,13.8825753 169.617496,15.2237294 C169.308753,16.5644366 168.498653,16.5024289 167.795189,16.5460577 C167.091724,16.589519 163.114919,16.4795251 162.542656,16.5676766 C161.973185,16.6560516 155.930093,19.5133779 155.337173,19.8659839 C154.742578,20.217305 154.369631,20.1073112 154.369631,20.1073112 L159.335753,16.6331478 C159.335753,16.6331478 161.906747,15.7768828 161.994959,15.7768828 C162.082613,15.7768828 164.653607,15.4460633 164.653607,15.4460633 L166.674112,15.4679057 L168.147479,15.3360695 C168.147479,15.3360695 168.586865,14.7868264 168.608639,14.6332037 C168.630413,14.479581 168.762173,13.9947478 168.740399,13.6438177 C168.718625,13.2914352 168.426631,12.9734641 168.426631,12.9734641 L168.671727,13.6176739" id="path94" fill="#231F20"></path>
                        <path d="M172.228688,104.123789 C173.14375,104.032174 174.053228,103.885813 174.940933,103.651189 C175.457923,103.514884 175.967097,103.348413 176.462314,103.147307 C177.983136,102.528906 179.318044,101.497678 180.310151,100.187137 C180.59042,99.8162081 180.828258,99.4167891 181.033156,99.0000526 C181.08452,98.8955892 181.481475,97.8347546 181.532839,97.8369892 C180.902513,97.7934162 179.993034,99.3525469 179.58938,99.7335312 C179.522941,99.7966562 179.449803,99.856988 179.388948,99.924582 C179.388948,99.924582 176.853686,102.762412 174.999555,102.65739 C174.436225,102.62499 173.17669,102.242888 172.87018,101.855759 C172.561438,101.469188 171.956235,101.518348 171.816659,100.567004 C171.708906,99.8346429 171.247746,99.0011699 170.671575,98.5844334 C170.654268,98.9129067 170.557123,99.3961199 170.570522,99.688841 C170.623561,100.861401 170.609604,102.103231 170.113271,103.191997 C169.945779,103.560692 169.683934,103.904806 169.396965,104.191383 C169.455029,104.133844 170.002168,104.228811 170.099313,104.231045 C170.344409,104.23719 170.588946,104.233838 170.834042,104.225459 C171.281244,104.209259 171.729563,104.174065 172.175649,104.130492 C172.192956,104.128258 172.21138,104.12714 172.228688,104.123789" id="path96" fill="#231F20"></path>
                        <path d="M171.23323,103.340592 C171.23323,103.340592 175.75885,102.892014 177.458888,101.398243 C179.158927,99.9055886 176.54606,97.4576807 176.54606,97.4576807 L172.294568,98.5408604 C172.294568,98.5408604 172.142709,102.351821 171.23323,103.340592" id="path98" fill="#FCD006"></path>
                        <path d="M107.100188,98.7307939 C107.100188,98.7307939 125.113895,104.424889 137.020306,96.0823386 C143.824926,91.3133314 158.164429,75.9795516 168.745982,83.1467488 C168.745982,83.1467488 164.059571,80.2011033 154.236754,85.3717641 C144.282736,90.611136 133.257331,110.305007 107.100188,98.7307939" id="path100" fill="#FFFFFF"></path>
                        <path d="M120.683746,50.4826526 C120.683746,50.4826526 128.563661,39.200043 130.939249,29.3659557 L131.859894,34.2137295 L126.66375,48.1202148 C126.66375,48.1202148 124.00231,50.9088858 123.833702,50.9088858 C123.663978,50.9088858 117.714122,55.7119693 120.683746,50.4826526" id="path102" fill="#FCD006"></path>
                        <path d="M64.234654,64.1014445 C64.234654,64.1014445 84.2068952,72.9607259 99.3989299,65.9834622 C114.2169,59.1776973 119.780409,51.4166786 119.780409,51.4166786 C119.780409,51.4166786 111.808931,63.1595977 98.5519814,67.8643627 C85.2955898,72.5680104 65.1753977,64.2902608 64.234654,64.1014445" id="path104" fill="#FFFFFF"></path>
                        <path d="M162.853632,16.3846142 L171.838433,16.2643416 L169.073149,13.0053618 L169.052491,14.603764 C169.052491,14.603764 168.538851,15.0074286 168.318879,15.0074286 C168.098348,15.0074286 166.741667,15.0074286 165.970648,15.0074286 C165.201304,15.0074286 162.853632,16.3846142 162.853632,16.3846142" id="path106" fill="#231F20"></path>
                        <polyline id="path108" fill="#FCD006" points="167.256424 7.35992309 166.996813 5.97798916 171.743521 4.05614127 174.804707 7.98949685 167.256424 7.35992309"></polyline>
                        <polyline id="path110" fill="#FCD006" points="161.998309 14.5830389 161.769404 13.4059539 166.312331 11.2245116 169.546591 15.2125568 161.998309 14.5830389"></polyline>
                        <polyline id="path112" fill="#231F20" points="162.70289 13.3523256 168.813537 13.8686096 169.267439 13.8421865 169.824627 15.9438009 162.70289 13.3523256"></polyline>
                        <polyline id="path114" fill="#231F20" points="167.90015 5.7226403 174.005214 6.29065325 174.459116 6.26886676 174.997322 8.37612328 167.90015 5.7226403"></polyline>
                        <path d="M172.874647,102.288137 C173.17669,102.11999 173.648457,102.08759 173.982882,101.985919 C174.366437,101.869725 174.74441,101.738447 175.112891,101.581473 C176.828562,100.853022 178.434805,99.3106498 179.119845,97.5582338 C179.327535,97.0258613 179.512892,96.3957289 179.557556,95.8242525 C179.763013,93.2176943 179.742914,90.5932599 179.758546,87.9816741 C179.758546,87.7710713 179.733422,87.5431511 179.756313,87.3336656 C179.611154,88.7039801 179.434729,90.0787635 179.201358,91.4367882 C178.6933,94.3902544 178.390141,97.7660434 176.136264,99.9877069 C175.590242,100.525107 174.954891,101.061949 174.302791,101.465278 C173.834931,101.754089 173.354231,102.021113 172.874647,102.288137" id="path116" fill="#231F20"></path>
                        <path d="M167.694694,105.095801 C167.694694,105.095801 174.127483,105.504158 177.446605,103.530526 L177.805596,102.99145 L177.043509,102.766881 L173.411178,103.619906 L168.881092,104.293053 L167.694694,105.095801" id="path118" fill="#231F20"></path>
                        <path d="M186.790955,72.6400734 C186.790955,72.6400734 185.135581,76.3571841 182.825873,74.8069914 C182.825873,74.8069914 184.831304,77.2822721 186.790955,72.6400734" id="path120" fill="#231F20"></path>
                        <path d="M189.087263,68.2822164 L187.647953,69.8424644 L186.68041,71.6418052 C186.68041,71.6418052 185.136697,73.6645972 185.021128,73.7159909 C184.953015,73.7461568 184.556618,73.6355485 184.207678,73.5377886 C184.175296,73.5310851 184.143473,73.5227056 184.111649,73.5115331 C183.903402,73.4528771 183.725302,73.4048351 183.67338,73.4048351 C183.529337,73.4048351 183.124566,72.2177506 183.008997,72.1389841 C182.893428,72.0618934 182.48754,71.8272697 182.401561,71.5663904 C182.314466,71.3055111 182.255286,71.0446319 182.371971,70.6804064 C182.48754,70.3150637 182.690763,70.0016734 182.777859,69.9240241 C182.863838,69.8458162 183.733119,69.4553352 183.733119,69.4553352 L184.861453,68.9860877 L186.482212,68.4118181 L187.930455,68.0738482 L188.827651,67.734761 L189.521066,67.734761 L189.087263,68.2822164" id="path122" fill="#FFFFFF"></path>
                        <path d="M193.7519,72.9422912 C193.7519,72.9422912 191.98319,73.8064887 191.00169,72.8244206 C190.019632,71.8412354 189.724847,70.4664519 189.724847,70.4664519 C189.724847,70.4664519 188.593163,65.8220187 188.566923,65.727052 C189.368648,65.2276385 190.124593,64.878496 190.609202,64.6757141 L190.609202,64.657838 C190.609202,64.657838 190.614785,64.6556035 191.081528,64.4880151 C191.120609,64.4734907 191.1435,64.4656699 191.1435,64.4656699 C191.677797,64.2729433 191.752052,64.657838 191.927918,65.0097736 C191.97984,65.1136784 191.999381,65.2041762 192.003289,65.2829427 L192.081452,65.3572402 L191.870971,66.4370681 C191.817374,66.4873447 191.764335,66.5359453 191.711854,66.5800769 C191.456709,66.7951487 190.944185,67.2565754 190.614227,67.3800322 C190.599711,67.3845012 190.585195,67.3906461 190.571237,67.3951152 L190.610318,67.3817081 C190.611435,67.3811495 190.612552,67.3805908 190.614227,67.3800322 C191.355097,67.1554637 192.02283,66.7772726 192.793291,66.6325879 C192.942358,66.6040979 193.0931,66.5862218 193.243843,66.5700216 L194.045569,67.224175 L195.616639,69.0905511 L195.804229,70.2256832 L193.7519,72.9422912" id="path124" fill="#FFF87D"></path>
                        <path d="M182.643866,70.661413 C182.714771,71.0133487 182.860488,71.4356715 183.051987,71.8457044 C183.502539,71.1731163 184.61859,69.8877133 187.14157,68.5475647 C186.017702,68.8285546 184.92175,69.1000478 184.088759,69.4128795 C183.111725,69.7670496 182.593618,70.1983104 182.628233,70.5351631 C182.628233,70.5748257 182.6327,70.6167228 182.643866,70.661413 Z M184.577276,73.4875121 C184.594583,73.4875121 184.612449,73.4863948 184.630315,73.4847189 C185.035086,73.4975674 185.650338,73.0953552 186.325328,71.6926403 C187.069549,70.1435649 187.93883,69.0129018 188.8511,68.1906014 C186.7234,69.1212757 185.365602,70.0670329 184.515862,70.8329118 C183.965374,71.3272976 183.626482,71.7468272 183.426609,72.0389897 C183.359054,72.1378668 183.312715,72.2138402 183.275309,72.280317 C183.651606,72.9456429 184.132865,73.4875121 184.577276,73.4875121 Z M182.120176,70.3139464 C182.154232,70.1430063 182.220671,69.9793283 182.328424,69.8357609 C182.547837,69.5447157 182.888962,69.3480786 183.207754,69.1855179 C183.429959,69.072675 183.661097,68.9793842 183.893352,68.8900037 C184.902767,68.5118125 186.211434,68.2090361 187.498885,67.8822388 C188.831559,67.5459447 189.9906,67.1275323 190.794559,66.6644297 C191.610243,66.2002099 192.010547,65.7019137 191.998264,65.2980257 C192.007197,64.9226276 191.670539,64.4014277 190.686806,63.8238064 L190.93916,63.3942215 C191.00839,63.4199183 191.079853,63.4417048 191.144616,63.4741053 C191.780526,63.791406 192.422576,64.5695748 192.422576,65.4751107 C192.422576,65.9102819 192.058561,66.2940594 191.745911,66.5571732 C191.490207,66.7728036 190.978241,67.2342303 190.648842,67.3576871 C190.633209,67.3621561 190.61981,67.3677424 190.605294,67.3722114 C190.605294,67.3722114 190.644375,67.359363 190.648842,67.3576871 C191.389712,67.1331186 192.056328,66.7543688 192.827347,66.6096842 C193.575476,66.4689099 194.343703,66.4795239 195.09574,66.5851046 C195.158829,66.665547 195.235875,66.7661 195.323528,66.8778256 C194.933832,66.809673 194.482163,66.7577206 193.977455,66.7577206 C191.846964,66.7688932 188.925913,67.6185664 186.827803,71.9356435 C186.307463,73.0087679 185.534769,74.1556312 184.205445,74.1640106 C183.542178,74.1684796 182.993365,73.853972 182.723703,73.2417158 C182.631025,73.0305544 182.561795,72.8082204 182.495915,72.5875624 C182.335123,72.0484864 182.237978,71.5071758 182.129109,70.9563686 C182.087794,70.7446486 182.078861,70.5234319 182.120176,70.3139464 Z" id="path126" fill="#231F20"></path>
                        <path d="M195.867317,70.1888138 L193.13609,71.0435146 C193.13609,71.0435146 192.712895,70.753028 192.712895,70.6413024 C192.712895,70.5306941 194.129314,68.7062151 194.171745,68.1531733 C194.212502,67.5978971 193.891476,66.9822891 193.325355,66.7459894 C193.101475,66.6538158 194.418516,66.9867581 194.418516,66.9867581 C194.418516,66.9867581 195.643995,67.8006791 195.733324,67.9118461 C195.821536,68.023013 195.844427,68.2699266 195.911982,68.4704741 C195.977862,68.6710215 196.090081,69.251436 196.090081,69.3631616 C196.090081,69.4737699 195.867317,70.1888138 195.867317,70.1888138" id="path128" fill="#231F20"></path>
                        <path d="M165.199071,8.48393848 L165.056145,8.53237153 C165.052795,8.53371224 163.265661,9.27104533 161.326668,10.0620626 C159.396608,10.8513481 157.280632,11.7071662 156.743543,11.9005073 L156.745776,11.9066522 C156.403535,11.9972058 156.424193,12.0334049 156.334864,12.0713916 C156.271217,12.1093783 156.21762,12.1433988 156.156765,12.1852959 C156.036171,12.2669114 155.894361,12.3692521 155.720728,12.4953903 C155.375138,12.7485046 154.915095,13.0947981 154.37298,13.508127 C153.289311,14.3355667 151.884616,15.4263996 150.492203,16.5157242 C147.707378,18.6928651 144.968893,20.8590569 144.967776,20.8603976 L144.622185,21.3262933 L141.534201,29.1514426 L143.611095,29.9726257 L146.588535,22.427796 C147.702912,21.5468955 152.524433,17.7403485 155.417569,15.5209195 C156.367804,14.7890051 157.173438,14.194178 157.410159,14.0337959 C157.436399,14.0244109 157.463198,14.0148025 157.500046,14.0025686 C157.592167,13.968995 157.703269,13.9277124 157.836146,13.8762069 C158.101341,13.7734752 158.453073,13.6362204 158.86231,13.471872 C159.68246,13.1439015 160.737098,12.7159925 161.781128,12.2909324 C163.644192,11.5306397 165.471524,10.7776092 165.840563,10.6257182 L167.126339,10.2876924 L166.557427,8.12736624 L165.199071,8.48393848" id="path130" fill="#231F20"></path>
                    </g>
                </g>
            </g>
        </g>
    </g>
</svg>