<svg width="200" height="200" xmlns="http://www.w3.org/2000/svg"><g fill="none"><path d="M192.318 84.153l-.988.85a27.026 27.026 0 0 1-.916-.39c-1.47-.65-3.342-1.567-4.898-2.356a112.15 112.15 0 0 1-3.012-1.572 5.338 5.338 0 0 1-.326-.204c.154.058.31.117.457.17.447.162.859.299 1.238.404.39.103.704.19 1.184.2.26-.02.649.019 1.24-.412.573-.484 1-1.014 1.262-1.378.318-.147.766-.358 1.171-.563.108-.059.202-.126.299-.192a185.442 185.442 0 0 1 3.102 4.037c.316.425.593.809.81 1.122-.348.161-.623.284-.623.284zM179.28 68.715l-4.883 1.622a5.11 5.11 0 0 0 1.011-1.936c.155-.582.203-.938.253-1.105.104-.415.247-.709.292-.759.146-.215.452-.567.811-1.148.353-.57.752-1.474.762-2.534v-.075c0-.023 0-.058-.003-.106h-.001c-.065-1.575-.593-2.485-.659-2.875-.353-1.186-.442-2.835-.943-4.81l-.043-.155c.634.496 1.34 1.225 1.71 1.805.491.715.734 1.83.729 3.325.004 1.235-.158 2.644-.254 4.086l-.006.179c0 .798.015 1.652.03 2.454l1.927 1.092-.757.92.024.02zm-4.904 8.733c-.458.14-.45.15-.479.152-.84.22-1.093.492-1.362.676-.421.339-.674.619-.964.925-.79.886-1.847 1.996-2.2 2.165-.94.57-2.493 1.665-4.555 2.853-2.029 1.175-4.471 2.364-6.696 2.941-1.658.436-3.66.751-5.697.968l-1.518 1.911a257.16 257.16 0 0 1-.771-4.922c1.574-.212 3.123-.492 4.565-.87 2.814-.743 5.5-2.1 7.697-3.375 2.178-1.267 3.925-2.498 4.56-2.88.958-.587 1.752-1.342 2.39-1.941.313-.3.587-.56.768-.715l.087-.074.04-.013c.672-.194.838-.313 1.355-.325.08-.001.146-.004.197-.004l.103.002c.152.262.39.663.706 1.065.407.495.973 1.131 1.964 1.414-.063.015-.13.03-.19.047zm-36.873 5.149l.553 3.266c.054-.001.128-.001.232-.005 1.078-.027 2.463-.055 4.013-.116.403 1.015.752 1.85.973 2.348.056.122.132.315.218.544l-.99.026c-.36.01-.698.014-1.014.014-1.511 0-2.514-.098-3.071-.175l-.238 1.716-.485-1.262-.069-.471-.055.007-.002.002-.049.01.009.037-.613.707-.245-.418-.05.03.117.593-1.557 1.798c-.006 2.757-.207 5.591-.446 8.416-.1-.743-.157-1.485-.155-2.23 0-.414.017-.828.052-1.243.287-3.371.62-6.916.71-10.496l.058-2.392-23.158 7.789c-8.11-5.227-17.836-7.869-27.509-7.874-5.461 0-10.917.842-16.077 2.562-5.965 1.988-11.749 4.257-17.527 6.284-3.872 1.357-7.403 2.32-11.283 2.654a60.12 60.12 0 0 1-5.1.232c-6.476-.003-11.883-1.253-16.115-4.262a19.816 19.816 0 0 1-2.222-1.846c4.5 2.678 9.72 4.104 14.74 4.452.878.057 1.758.086 2.642.086 16.509-.062 33.352-9.674 45.791-17.935 6.247-4.177 12.181-8.545 18.428-12.222 7.45-4.402 15.5-7.756 23.29-7.74 3.661.004 7.284.714 10.922 2.405 5.005 2.313 9.533 6.115 14.753 9.491 2.073 1.333 4.715 3.052 7.549 4.543 2.183 1.14 4.47 2.164 6.82 2.753l-23.84 7.922zm7.092 14.503c-.337 0-.703.03-1.118.092-1.147.17-1.72.197-2.307.302-.18.04-.411.08-.683.211.083-1.142.158-2.29.206-3.453a44.717 44.717 0 0 0 1.955-.008c.709-.019 1.551-.039 2.483-.068.298 1.292.502 2.469.496 3.046a4.032 4.032 0 0 0-1.032-.122zm-3.136 37.143c2.225.8 4.31 2.052 6.445 3.407-.209-.082-.415-.166-.628-.243-3.022-1.06-5.69-.963-7.884-1.283-.442-.067-.606-.138-.893-.307-.242-.149-.576-.423-1.031-.866a20 20 0 0 1-.481-1.52c1.635.155 3.116.307 4.472.812zm29.867-83.772l-.051-1.148h.702l.563.088c-.055.033-.113.056-.165.092-.403.264-.75.598-1.05.968zm-2.182 87.365v.001l-.208.467.208-.468zm28.71-55.637l-5.938-8.753-3.322-4.225-.392-.394-4.558-3.754a65.372 65.372 0 0 1-.005-.756c.08-1.214.258-2.72.26-4.353a17.452 17.452 0 0 0-.095-1.805c-.3-2.815-1.278-5.553-3.44-7.495a9.755 9.755 0 0 0-1.872-1.325c-1.992-1.065-4.153-1.328-6.383-1.404a51.703 51.703 0 0 0-1.885-.023c-.392.002-.784.012-1.177.018-.236.004-.429.012-.567.02-.198.007-.312.014-.312.014s1.186 2.508 1.994 7.04l.03.027c.099.578.244 1.03.33 1.383.341 1.219.424 2.9.966 4.897.152.531.302.914.376 1.166.017.054.03.101.041.141-.1.138-.272.367-.501.68-.652.926-.94 1.83-1.14 2.57-.119.466-.177.794-.213.952-.274.21-.977.59-1.937 1.147-.771.48-1.516.882-2.236 1.17-1.321.175-2.9.117-4.748-.363a30.91 30.91 0 0 1-4.01-1.797c-2.535-1.333-5.045-2.958-7.128-4.298-4.821-3.08-9.521-7.094-15.416-9.856a31.099 31.099 0 0 0-13.277-2.926c-9.388.016-18.256 3.89-26.124 8.512-6.572 3.875-12.588 8.312-18.694 12.39-12.076 8.113-28.414 17.057-42.691 16.995-.763 0-1.52-.025-2.272-.075-6.13-.394-12.627-2.868-16.616-7.115-1.775-1.852-3.288-4.434-3.778-6.333a43.897 43.897 0 0 1-1.018-4.768c-.176-1.08-.597-1.902-1.147-2.625a4.967 4.967 0 0 0-1.037-1.006c-.428-.29-.983-.617-1.872-.687l-.042-.002-.016-.001a3.777 3.777 0 0 0-.151-.004c-.699-.018-1.546.285-2.078.76-.815.726-1.016 1.446-1.153 1.961a6.19 6.19 0 0 0-.146 1.418c.008 1.318.253 2.657.505 3.903.253 1.226.535 2.323.65 2.789 2.213 9.009 6.264 15.328 11.779 19.234 5.51 3.91 12.192 5.294 19.347 5.293 1.824 0 3.683-.09 5.576-.252 4.522-.388 8.568-1.516 12.654-2.949 5.905-2.072 11.663-4.329 17.444-6.255 4.557-1.52 9.426-2.275 14.313-2.275 11.781-.008 23.591 4.407 31.476 12.732 2.366 2.51 5.285 5.854 10.278 15.913 1.356 2.706 2.64 7.453 3.645 11.584.511 2.078.966 4.015 1.39 5.577.215.785.417 1.471.641 2.087.114.31.232.602.387.911.164.31.327.636.76 1.084.667.66 1.348 1.306 2.236 1.864.882.56 1.97.96 3.109 1.104 2.773.347 4.963.341 6.737 1.004 3.927 1.377 7.563 4.339 12.075 6.785 2.278 1.215 4.814 2.284 7.663 2.696.737.104 1.95.26 3.294.262.919-.005 1.896-.064 2.93-.346 1.003-.283 2.237-.814 3.109-2.137.134-.213.446-.649.702-.99l.24-.32.144-.124a3.87 3.87 0 0 0 .63-.732 3.2 3.2 0 0 0 .532-1.754 2.807 2.807 0 0 0-.139-.9l.817-1.238-1.596-.046a3.567 3.567 0 0 0-1.093-.746c-.914-.404-1.775-.464-2.392-.465-.591.004-1.012.046-1.177.04l-.088.001a44.015 44.015 0 0 0-.808-.006h-.216a19.984 19.984 0 0 1-1.624-.045c.186-.18.359-.385.514-.624.161-.258.474-.699.733-1.05l.32-.432c.061-.047.127-.102.197-.167.22-.253.716-.573.788-1.651.002-.077-.01-.157-.02-.236l1.77-1.905-3.809-.017c-1-.278-1.885-.237-2.448-.26l-.239-.002c-.87.002-1.664.085-2.327.081-.423.001-.786-.03-1.061-.098-.042-.001-.555-.191-1.186-.499-2.28-1.09-6.7-3.652-10.83-6.546-1.876-1.299-3.704-2.703-5.253-4.05a29.035 29.035 0 0 1-1.254-3.064c-.603-1.743-1.096-3.647-1.809-6.191-1.22-4.248-2.562-7.73-2.538-11.12 0-.39.017-.78.051-1.169l.101-1.143c.207.237.507.56.882.903.616.514 1.35 1.178 2.507 1.407a3 3 0 0 0-1.04 2.28c.018.745.188 1.096.303 1.396.373.816.71 1.176.773 1.277.063.077.6.746 1.347 1.488.378.373.8.765 1.324 1.14.553.34 1.097.83 2.494.899.225 0 .456-.024.678-.07a80.6 80.6 0 0 0 3.928-.958 25.285 25.285 0 0 0 2.17-.684 7.65 7.65 0 0 0 1.013-.463 4.07 4.07 0 0 0 .636-.44c.24-.221.59-.518.886-1.236.161-.452.164-.637.185-.794.014-.15.015-.249.015-.335-.007-.48-.053-.791-.114-1.29-.35-2.635-1.512-9.068-2.208-13.667a37.297 37.297 0 0 0 3.66-.746c3.004-.791 5.794-2.199 8.07-3.506 2.246-1.293 4.07-2.566 4.64-2.902 1.271-.788 2.117-1.754 2.839-2.52.287-.314.541-.594.718-.78l.089-.03c.031-.004.111-.012.254-.015l.13-.004.16.165c.22.215.46.438.717.664l8.65 3.704s2.072 1.515 3.873 2.204c.419.154.82.261 1.175.29l.027.005c.276-.043.536-.115.766-.23.636-.318 1.278-1.095 1.278-2.001 0-.436-.364-.82-.677-1.083-.255-.215-.767-.676-1.097-.8l-.043-.015.043.015c.197.06.39.131.58.205.374.142.74.296 1.121.419.157.048.314.093.478.124.748.141 1.517.13 2.269.025.543-.698 2.11-2.73 2.26-3.134.242-.642 0-1.165 0-1.165z" fill="#231F20"/><path d="M177.944 80.464c.304.498 1.988 1.963 3.171 2.644.868.499 10.482 5.526 11.127 5.004a5.13 5.13 0 0 0 .649-.655c-.063-.382-.383-.718-.665-.955-.255-.215-.768-.676-1.098-.8l-.043-.015.04.014.003.002c.742.224 1.409.603 2.18.747.18.034.361.058.543.075.315-.144.76-.351 1.153-.548.686-.343 1.21-1.405.964-2.483-.244-1.078-9.54-12.51-9.54-12.51l-5.398-4.446-.153.087c-.016-.79-.03-1.629-.03-2.396.19-2.932.808-6.533-.941-9.145-.79-1.179-2.076-2.43-3.312-3.118-1.364-.761-2.83-.624-3.49.883-.432.982-.141 1.871.117 2.852.421 1.598.506 3.263.954 4.853.208.738.57 1.476.56 2.26-.013.859-.588 1.444-1.055 2.101-.35.491-.564 1.09-.717 1.668-.195.738-.205 1.438-.748 2.024-.707.761-1.756 1.192-2.63 1.734-1.155.718-2.371 1.36-3.683 1.742-.671.197-1.381.31-2.084.227-5.035-.593-11.178-4.608-15.335-7.281-5.02-3.227-9.634-7.136-15.084-9.673-12.576-5.856-25.555-1.168-36.807 5.46-6.41 3.777-12.385 8.18-18.56 12.306-12.914 8.625-30.634 18.46-46.699 17.385-6.705-.449-13.804-3.073-18.456-7.98-2.068-2.185-3.774-5.02-4.448-7.531a46.481 46.481 0 0 1-1.083-5.077c-.145-.96-.929-1.921-1.48-1.946-1.46-.067.116 5.96.464 7.365 4.774 19.31 17.567 23.554 33.754 22.163 4.2-.36 7.989-1.406 11.968-2.801 5.841-2.05 11.613-4.312 17.485-6.27 16.557-5.52 36.645-1.51 48.695 11.185 2.51 2.644 5.71 6.393 10.757 16.596 3.12 6.31 5.057 19.273 6.292 20.504 1.234 1.233 2.164 1.968 3.74 2.177 2.485.334 4.914.283 7.313 1.144 4.523 1.623 8.255 4.71 12.448 6.95 2.114 1.13 4.35 2.05 6.744 2.395 1.588.23 5.536.68 6.585-.962.424-.663 1.31-1.806 1.31-1.806s1.007-.605.158-.98c-.848-.376-1.767-.172-2.535-.188-1.294-.026-2.794.064-4.061-.235-2.48-.585-19.077-10.163-22.56-16.21-2.629-4.564-3.22-7.34-4.63-12.355-1.27-4.517-2.989-8.626-2.58-13.293.345-3.927.75-8.037.757-12.098a1.4 1.4 0 0 0 .113-.018l-.05.03c.84.117 2.317.246 4.544.186 1.384-.036 3.225-.076 5.255-.177a84.021 84.021 0 0 0 1.396 3.399c.77 1.712 3.026 9.134 2.403 10.596-.623 1.462.006 1.396-1.124 1.462-1.131.067-1.043-.559-3.449-.224-1.306.181-1.595.183-1.779.4-.217.254.437 1.088.437 1.088s2.14 2.652 3.078 2.446c1.456-.319 6.359-1.435 6.599-2.055.194-.5-2.028-12.196-2.673-17.482 2.125-.227 4.244-.554 6.108-1.042 5.226-1.368 10.468-5.194 11.98-6.102 1.512-.908 3.165-3.316 3.71-3.437.545-.125.603-.28 1.552-.305.948-.025 1.57-.052 1.874.445" fill="#231F20"/><path d="M178.097 80.434c.306.505 1.002 1.882 1.995 2.04.994.16 11 6.464 11.648 5.933.301-.247.725-.737 1.093-1.191-.127-.274-.365-.514-.581-.695-.255-.215-.768-.677-1.097-.8l-.044-.015.04.013.004.002c.741.225 1.408.603 2.179.748.025.005.051.006.077.01l.19-.252s.87-.39 1.558-.737c.688-.347 1.211-1.424.964-2.52-.248-1.092-9.59-12.69-9.59-12.69l-5.431-4.523s-.184-1.566-.187-2.344c-.004-2.606.587-5.118-.25-7.676-.641-1.959-2.301-4.316-4.359-4.957-1.074-.335-2.622.003-3.155 1.068-.708 1.423-.365 3.022-.017 4.487.312 1.315.623 2.632 1.013 3.928.21.69 1.129 2.413.334 3.007-.78.584-1.24 1.596-1.479 2.517-.194.749-.203 1.459-.747 2.053-.709.771-1.761 1.208-2.636 1.756-1.16.727-2.379 1.376-3.696 1.762-.675.197-1.387.31-2.09.225-5.059-.61-11.235-4.697-15.413-7.418-5.048-3.285-9.688-7.261-15.166-9.847-12.638-5.97-25.663-1.234-36.947 5.474-6.43 3.823-12.421 8.28-18.614 12.457-12.953 8.734-30.727 18.683-46.86 17.563-6.735-.468-13.867-3.145-18.547-8.135-2.08-2.22-3.8-5.102-4.482-7.652a47.93 47.93 0 0 1-1.096-5.157c-.147-.975-.344-2.835-1.762-2.71-2.495.22-1.294 5.453-1.076 6.906C6.508 90.626 22.763 98.192 39.014 96.81c4.215-.36 8.637-1.296 12.631-2.705 5.86-2.07 11.652-4.357 17.545-6.334 16.615-5.57 36.794-1.465 48.917 11.444 2.525 2.689 8.747 9.69 11.043 16.458 2.297 6.766 4.902 19.982 6.144 21.235 1.241 1.253 2.177 2 3.76 2.217 2.495.342 4.934.294 7.345 1.173 4.544 1.657 8.297 4.797 12.511 7.08 2.126 1.15 4.374 2.09 6.778 2.442 1.595.235 5.56.7 6.611-.964.422-.672 1.31-1.83 1.31-1.83s1.01-.613.158-.996c-.853-.383-1.805-.357-2.576-.375-1.299-.03-2.776.24-4.05-.066-2.49-.599-19.172-10.352-22.68-16.495-2.65-4.639-3.249-7.457-4.675-12.551-1.282-4.588-3.016-8.761-2.613-13.499.339-3.986.737-8.155.739-12.28a1.18 1.18 0 0 0 .113-.016l-.052.03c.845.12 2.328.253 4.564.197 1.389-.035 3.237-.071 5.278-.172a83.356 83.356 0 0 0 1.405 3.453c.777 1.742 3.056 9.28 2.433 10.762-.622 1.483.513 1.418-.622 1.483-1.135.065.118-1.177-2.294-.822-2.412.354-3.405.195-3.464.783-.06.59.19 1.684.19 1.684s1.893 2.446 3.353 2.117c1.458-.331 6.38-1.445 6.622-2.074.192-.508-2.06-12.384-2.717-17.752 2.134-.225 4.26-.553 6.13-1.046 5.245-1.378 10.501-5.253 12.02-6.171 1.516-.92 3.01-2.79 3.556-2.915.547-.124 1.054-.43 2.006-.453.952-.026 1.359.074 1.664.581" fill="#FCD006"/><path d="M169.456 143.662l8.645-.128-3.517 4.463.193-1.01.901-1.415.3-.752s-1.137-.107-1.244-.107c-.107 0-2.446-.042-3.047-.085-.6-.044-1.501-.43-1.588-.452-.085-.02-.643-.514-.643-.514" fill="#231F20"/><path d="M188.568 75.286c-.13-.573-2.229-3.677-4.163-6.457l-46.73 15.714.206-.004c1.366-.034 3.183-.07 5.187-.169a84.84 84.84 0 0 0 1.383 3.395c.763 1.71 3.004 9.12 2.39 10.578-.611 1.458.505 1.394-.611 1.458-1.118.065.115-1.156-2.255-.808-2.37.348-3.346.192-3.405.77-.058.578.186 1.655.186 1.655s1.863 2.405 3.297 2.081c1.432-.325 6.271-1.42 6.509-2.038.19-.5-2.023-12.174-2.67-17.45 2.099-.222 4.19-.545 6.025-1.03 5.158-1.355 10.325-5.164 11.816-6.066 1.491-.904 2.959-2.743 3.496-2.865.538-.122 1.035-.422 1.972-.446.937-.024 1.336.074 1.636.571.302.498.984 1.851 1.96 2.007.977.156 9.465 4.226 10.1 3.706.637-.521 1.192-1.4 1.192-1.4s.854-.383 1.53-.725c.677-.342 1.191-1.4.949-2.477zm-19.987 63.373c-.839-.377-1.776-.353-2.533-.369-1.278-.03-2.729.235-3.98-.065-2.45-.587-18.85-10.176-22.297-16.216-2.603-4.56-3.193-7.33-4.594-12.337-1.261-4.51-2.965-8.613-2.57-13.269.288-3.378.617-6.891.704-10.393L113.8 92.57l.066.07c2.481 2.641 10.903 8.982 13.162 15.633 2.257 6.652 6.077 17.565 7.297 18.796 1.22 1.232-1.424 4.588.131 4.803 2.454.335 4.853.288 7.22 1.153 4.467 1.627 8.157 4.714 12.3 6.957 2.09 1.132 4.299 2.055 6.662 2.403 1.569.23 5.466.688 6.499-.948.415-.66 1.287-1.8 1.287-1.8s.994-.603.157-.978z" fill="#FCD006"/><path d="M150.326 78.787c-3.46 1.555-3.303 5.252-2.447 8.422.65 2.407 1.31 4.83 2.255 7.143.84 2.056 2.16 3.934 2.588 6.142.351 1.814.931 3.792.312 5.61-.6 1.766-2.278 2.973-4.196 2.595-1.035-.203 3.016-4.106-4.068-2.513-1.65.372 2.056 4.12 2.903 4.427 1.444.52 4.29-.379 5.723-.817 2.743-.838 2.47-1.817 2.336-4.036-.172-2.818-.89-5.443-1.192-8.232-.275-2.528-1.073-5.316-1.125-7.875-.025-1.253-.152-4.632.855-5.456.71-.584 1.445-.252 2.235-.184.892.075 1.738-.069 2.655-.219 2.306-.377 3.912-1.043 2.784-3.68-.812-1.902-3.46-2.064-5.32-2.386-1.939-.334-4.01-.136-5.878.425" fill="#FCD006"/><path d="M19.534 94.083c.698 1.15 5.547 1.778 6.807 2.032 2.37.479 4.783.759 7.202.818 4.861.118 9.718-.591 14.395-1.895 9.642-2.692 18.501-7.517 28.388-9.508 5.676-1.143 11.535-1.493 17.248-.4 3.316.634 6.508 1.812 9.537 3.289.825.4 5.547 2.644 9.277 5.768l-1.581-.491-5.234-2.146-5.844-2.733-7.807-1.64s-8.354-.264-8.591-.14c-.236.124-9.114 1.488-9.428 1.54-8.025 1.292-15.281 5.903-23.111 7.966-3.026.797-6.34 1.28-9.468 1.493-3.48.238-7.314.978-10.779.443-2.305-.356-5.26-.772-7.45-1.532-1.376-.477-2.819-1.64-3.561-2.864" fill="#231F20"/><path d="M174.806 74.115s-1.13 4.629 1.432 7.134c2.56 2.505 12.313 5.574 14.082 6.054 1.77.48.516-1.546.516-1.546s-12.497-6.235-12.858-6.561c-.36-.327-3.172-5.08-3.172-5.08" fill="#FCD006"/><path d="M175.183 79.72c-.26-.62-.39-1.284-.447-1.96a18.23 18.23 0 0 1-.051-2.27s-.006.012-.01.034l.003-.033a9.202 9.202 0 0 0-.735 2.967c-.07.891.001 1.801.334 2.636.094.234.207.46.342.673.222.348.517.667.838.926 1.742 1.493 5.136 1.577 5.136 1.577l3.817 1.177c-1.67-.578-3.291-1.241-4.864-2.047-1.258-.643-2.552-1.333-3.525-2.378a4.319 4.319 0 0 1-.838-1.302m9.227 5.727c1.02.354.746.856 2.001 1.215.555.158.013-.593-2-1.215" fill="#231F20"/><path d="M74.809 74.135c-4.564 3.162-15.703 8.897-15.703 8.897s-4.872 2.295-7.943 3.38c-3.071 1.084-16.225 5.99-28.529 1.741-12.393-4.28-14.691-13.323-15.11-15.178-.416-1.849-.849-4.973-1.143-5.759-.545-1.451-1.665-1.086-1.656-1.076-.576.166-1.143.776-1.218 1.494l.04-.036c.477-.592 1.106-.653 1.382-.137.295.55.35 1.24.483 1.856.16.748.36 1.486.592 2.216 1.047 3.31 2.592 6.578 4.66 9.371 1.097 1.483 2.577 2.868 3.953 4.088a20.735 20.735 0 0 0 4.09 2.842c2.097 1.104 4.385 1.93 6.665 2.572.418.117.834.169 1.253.26 0 0 7.611 1.51 22.195-2.79 15.384-4.535 30.553-16.903 25.989-13.741" fill="#FFF"/><path d="M180.397 70.789c2.251-.768 3.593.855 4.537 2.6.406.753.914 1.672 1.758 2.035 1.265.543 2.2-.042 2.018-1.39.042.305-.318.628-.581.67-.333.051-.756-.111-1.028-.295-.851-.575-.98-1.817-1.658-2.549-1.338-1.445-3.146-1.787-4.975-1.13" fill="#231F20"/><path d="M185.8 73.999a1.128 1.128 0 1 1-2.257 0 1.128 1.128 0 0 1 2.256 0M139.84 94.07c.258-6.383.719-13.22-1.606-19.312-2.39-6.265-8.647-9.582-15.049-10.178a24.632 24.632 0 0 0-5.258.096c-2.716.34-5.395.968-7.821 2.273 2.69-.583 5.373-1.272 8.126-1.477 4.938-.368 10.98 1.456 14.6 4.92 2.864 2.743 4.102 6.624 4.606 10.466.675 5.148.48 10.396.283 15.569m12.762 1.623a68.277 68.277 0 0 1-.908-4.436c-.404-2.293-.977-4.587-1.274-6.894-.185-1.444-.264-3.136.06-4.567.218-.966.624-1.9 1.296-2.637a6.535 6.535 0 0 1 2.644-1.755c.48-.172 1.574-.535 2.137-.673.057-.014-1.79.28-2.335.397-2.68.572-5.013 2.464-5.154 5.467-.111 2.313.457 4.587 1.065 6.796.342 1.24 1.873 8.185 2.306 9.395M1.036 65.09s-1.264 6.89 2.24 15.715C6.78 89.627 10.89 92.33 10.89 92.33s-6.144-3.973-8.884-11.98c-2.74-8.006-.97-15.26-.97-15.26m168.109 74.352s1.252-.265.946-1.606c-.309-1.34-1.119-1.279-1.822-1.322-.704-.044-4.68.066-5.253-.022-.57-.088-6.613-2.946-7.205-3.298-.595-.352-.968-.242-.968-.242l4.966 3.475s2.571.856 2.66.856c.087 0 2.658.33 2.658.33l2.02-.021 1.474.132s.44.549.461.702c.022.154.154.639.132.99-.022.352-.314.67-.314.67l.245-.644m3.557-90.506c.915.091 1.825.238 2.712.472.517.137 1.026.303 1.522.504a9.183 9.183 0 0 1 3.848 2.96c.28.371.518.77.723 1.188.05.104.448 1.165.5 1.163-.631.043-1.54-1.516-1.944-1.897-.067-.063-.14-.123-.2-.19 0 0-2.536-2.839-4.39-2.734-.563.033-1.823.415-2.13.802-.308.386-.913.337-1.053 1.289-.108.732-.569 1.565-1.145 1.982-.017-.328-.115-.811-.101-1.104.053-1.173.039-2.415-.457-3.503a3.504 3.504 0 0 0-.717-1c.058.058.606-.037.703-.04.245-.006.49-.002.734.006.448.016.896.052 1.342.095l.053.007" fill="#231F20"/><path d="M171.707 49.72s4.525.448 6.225 1.941c1.7 1.493-.913 3.941-.913 3.941l-4.251-1.083s-.152-3.811-1.061-4.8" fill="#FCD006"/><path d="M107.574 54.329s18.013-5.694 29.92 2.648c6.804 4.77 21.144 20.103 31.725 12.936 0 0-4.686 2.946-14.509-2.225-9.954-5.24-20.98-24.933-47.136-13.36" fill="#FFF"/><path d="M121.157 102.577s7.88 11.283 10.256 21.117l.92-4.848-5.196-13.907s-2.661-2.788-2.83-2.788c-.17 0-6.12-4.803-3.15.426" fill="#FCD006"/><path d="M64.708 88.958s19.972-8.86 35.164-1.882c14.818 6.806 20.382 14.567 20.382 14.567S112.282 89.9 99.025 85.195C85.77 80.492 65.65 88.77 64.708 88.958" fill="#FFF"/><path d="M163.327 136.675l8.985.12-2.765 3.26-.021-1.6s-.514-.403-.734-.403h-2.348c-.77 0-3.117-1.377-3.117-1.377" fill="#231F20"/><path fill="#FCD006" d="M167.73 145.7l-.26 1.382 4.747 1.922 3.061-3.934-7.548.63m-5.258-7.223l-.23 1.177 4.544 2.181 3.234-3.988-7.548.63"/><path fill="#231F20" d="M163.176 139.707l6.11-.516.455.026.557-2.101-7.122 2.591m5.198 7.63l6.105-.568.453.022.539-2.107-7.097 2.653m4.974-96.565c.302.168.774.2 1.108.302.384.116.762.247 1.13.404 1.716.729 3.322 2.271 4.007 4.023.208.533.393 1.163.438 1.734.205 2.607.185 5.231.2 7.843 0 .21-.024.439-.001.648a64.18 64.18 0 0 0-.555-4.103c-.508-2.954-.811-6.33-3.065-8.551-.546-.537-1.182-1.074-1.834-1.478a37.42 37.42 0 0 0-1.428-.822m-5.18-2.808s6.433-.408 9.752 1.565l.359.54-.762.224-3.632-.853-4.53-.673-1.187-.803m19.096 32.456s-1.655-3.718-3.965-2.167c0 0 2.006-2.476 3.965 2.167"/><path d="M189.56 84.777l-1.439-1.56-.967-1.8s-1.544-2.022-1.66-2.073c-.068-.03-.464.08-.813.178a.742.742 0 0 0-.096.026 3.136 3.136 0 0 1-.438.107c-.144 0-.55 1.187-.665 1.266-.115.077-.521.311-.607.572-.087.261-.146.522-.03.886.116.366.32.679.406.757.086.078.955.468.955.468l1.129.47 1.62.574 1.449.338.897.339h.693l-.433-.548" fill="#FFF"/><path d="M194.225 80.117s-1.768-.864-2.75.118c-.982.983-1.277 2.358-1.277 2.358s-1.131 4.645-1.158 4.74c.802.499 1.558.848 2.043 1.05v.019a177.137 177.137 0 0 0 .534.192c.534.193.608-.192.784-.544a.677.677 0 0 0 .076-.273l.078-.075-.21-1.08a3.989 3.989 0 0 0-.16-.142c-.255-.215-.767-.677-1.097-.8l-.043-.015.039.013.004.002c.74.224 1.408.602 2.179.747.149.029.3.046.45.063l.802-.655 1.571-1.866.188-1.135-2.053-2.717" fill="#FFF87D"/><path d="M183.117 82.398c.071-.352.217-.774.408-1.184.45.673 1.567 1.958 4.09 3.298-1.124-.28-2.22-.552-3.053-.865-.977-.354-1.495-.786-1.46-1.123a.52.52 0 0 1 .015-.126zm1.934-2.826l.053.003c.404-.013 1.02.39 1.695 1.792.744 1.55 1.613 2.68 2.525 3.502-2.127-.93-3.485-1.876-4.335-2.642-.55-.495-.89-.914-1.089-1.206a3.204 3.204 0 0 1-.151-.242c.376-.665.857-1.207 1.302-1.207zm-2.457 3.174c.034.17.1.334.208.478.22.29.56.488.88.65.221.113.452.206.685.296 1.01.378 2.318.68 3.605 1.007 1.333.337 2.492.755 3.296 1.218.816.464 1.216.963 1.204 1.367.009.375-.328.896-1.312 1.474l.253.43c.069-.026.14-.048.205-.08.636-.318 1.278-1.096 1.278-2.001 0-.436-.364-.82-.677-1.083-.255-.215-.767-.677-1.097-.8-.015-.004-.029-.01-.043-.015l.043.015c.741.225 1.408.603 2.179.748.748.14 1.516.13 2.268.025l.228-.293a7.78 7.78 0 0 1-1.346.12c-2.13-.011-5.052-.86-7.15-5.178-.52-1.073-1.293-2.22-2.622-2.228-.663-.005-1.212.31-1.482.922a5.63 5.63 0 0 0-.228.654c-.16.54-.258 1.08-.367 1.631-.04.212-.05.433-.008.643z" fill="#231F20"/><path d="M196.34 82.87l-2.73-.854s-.424.29-.424.402c0 .111 1.417 1.935 1.46 2.488.04.556-.281 1.171-.847 1.408-.224.092 1.093-.241 1.093-.241s1.225-.814 1.315-.925c.088-.111.11-.358.178-.559.066-.2.178-.78.178-.892 0-.111-.222-.826-.222-.826m-30.669 61.705l-.142-.049c-.004-.001-1.791-.738-3.73-1.53-1.93-.789-4.046-1.645-4.583-1.838l.002-.006c-.342-.09-.321-.127-.41-.165a3.106 3.106 0 0 1-.179-.114c-.12-.081-.262-.184-.436-.31-.345-.253-.806-.6-1.348-1.012a447.937 447.937 0 0 1-3.88-3.008 1336.928 1336.928 0 0 1-5.525-4.345l-.345-.466-3.088-7.825 2.076-.821 2.978 7.545c1.114.88 5.936 4.687 8.829 6.907a60.91 60.91 0 0 0 1.993 1.487l.09.031c.092.034.203.075.336.126.265.103.616.24 1.026.405.82.328 1.874.756 2.919 1.18 1.863.761 3.69 1.514 4.059 1.666l1.286.338-.57 2.16-1.358-.356" fill="#231F20"/></g></svg>