<svg width="200" height="200" xmlns="http://www.w3.org/2000/svg"><g fill-rule="nonzero" fill="none"><path d="M195.592 117.382c-4.472-20.51-15.13-43.674-17.664-47.698-2.28-3.607-7.333-8.094-11.432-6.708a9.286 9.286 0 0 0-4.785 3.682 7.93 7.93 0 0 0-6.305-.358c-3.07 1.267-4.054 3.533-5.172 6.38-2.668-.492-6.037-.164-7.706 2.37a16.262 16.262 0 0 0-2.594 8.943 35.55 35.55 0 0 0-10.568 1.148V69.088c0-1.012.402-1.983 1.118-2.698l.805-.805c1.192-1.193.67-3.22-.447-4.472l-5.754-5.739a1.356 1.356 0 0 1-.298-1.49c3.085-7.26 12.893-30.11 15.144-35.654 1.848-4.472 1.327-10.867-2.385-12.685-1.729-.94-5.232-1.357-9.167 5.41a43.942 43.942 0 0 1-10.628 12.06c-3.428 2.906-6.662 5.663-8.72 10.582a29.17 29.17 0 0 0-1.49 4.964c-.12.566-.224 1.49-.224 1.49a8.273 8.273 0 0 0-2.802 1.238c-.104-.716-.372-2.057-.521-2.758a29.275 29.275 0 0 0-1.595-4.978c-2.057-4.92-5.292-7.677-8.72-10.583a43.942 43.942 0 0 1-10.687-12.014C79 4.188 75.557 4.606 73.828 5.47c-3.772 1.819-4.234 8.154-2.385 12.685 2.101 5.187 12.863 30.676 14.905 35.654a1.401 1.401 0 0 1-.298 1.49l-5.962 5.874a3.175 3.175 0 0 0 0 4.471l.462.448a3.816 3.816 0 0 1 1.118 2.697v6.768c-12.431-3.488-28.082-2.982-42.615 1.49C21.97 82.503 8.317 92.564.626 105.591a4.48 4.48 0 0 0-.627 2.147 4.88 4.88 0 0 0 .21 1.49c7.154 25.34 19.645 40.499 28.917 48.757 10.284 9.152 18.855 12.073 19.213 12.192l.551.194.582-.09a27.307 27.307 0 0 0 8.75-3.189c12.297 14.13 37.86 23.849 45.417 26.234 1.366.44 2.837.44 4.203 0 34.894-11.925 48.488-29.38 48.488-29.38a39.217 39.217 0 0 0 4.77 5.456c.307.274.601.562.88.865 6.886 6.529 13.414 9.301 22.88 12.014a3.473 3.473 0 0 0 2.593-.254 6.141 6.141 0 0 0 1.804-1.758c11.417-14.533 13.37-30.691 6.335-62.887Z" fill="#004987"/><path d="M106.352 110.585h-5.828a4.188 4.188 0 0 1-4.144-3.637c-3.697-.984-4.472-4.368-5.962-7.17-1.998-4.144-6.917-3.845-7.915-8.943l-2.982 16.933a20.242 20.242 0 0 0 5.68 16.47c5.962 5.068 10.046 3.935 8.436-.268-1.61-4.203-5.172-12.908-5.962-21.792 3.875 8.943 8.451 22.358 17.38 29.93a13.952 13.952 0 0 1-.328-14.637 11.924 11.924 0 0 0 1.625-6.886ZM110.167 162.128c2.221-.149 4.472-.372 6.633-.67a5.455 5.455 0 0 1 3.936 1.833c2.086-.373 4.173-.805 6.23-1.297-1.789-2.474-5.858-5.083-8.943-4.948a91.22 91.22 0 0 1-4.055.506 229.03 229.03 0 0 1-3.8 4.576ZM120.825 168.18a7.289 7.289 0 0 1-3.89 3.07c-4.94.672-9.922.971-14.906.895v4.248c5.36.077 10.718-.272 16.024-1.043 3.1-.552 7.273-5.009 8.943-8.452-2.012.567-4.1.924-6.171 1.282ZM95.47 154.527v2.146c1.76.15 3.518.238 5.292.283v-2.161a6.857 6.857 0 0 1 2.758-4.218c-2.52 0-5.053-.09-7.587-.284a6.245 6.245 0 0 0-2.773 4.01l2.31.224Z" fill="#FFCD00"/><path d="M100.702 170.804a237.167 237.167 0 0 0 3.622-4.01c.671 1.49 1.327 2.817 1.998 4.218 1.938 0 3.89-.164 5.813-.328a585.209 585.209 0 0 1-3.771-8.332c2.315-2.653 4.61-5.39 6.886-8.213l1.953-.253a5.962 5.962 0 0 0-2.802-3.906c-2.52.284-5.068.462-7.602.552a6.499 6.499 0 0 1 2.772 4.114 270.907 270.907 0 0 1-8.854 10.09v-1.31c-1.788 0-3.547-.15-5.321-.284l-.134 16.396-2.25-.149a7.453 7.453 0 0 0 2.786 4.472c2.564.194 5.143.298 7.707.298a6.886 6.886 0 0 1-2.832-4.293l.03-9.062ZM115.027 176.855a89.277 89.277 0 0 1-5.65.492l1.118 2.28a7.14 7.14 0 0 1-2.802 4.472c2.46-.104 4.919-.298 7.364-.581a7.9 7.9 0 0 0 2.98-4.62l-1.877.238c-.433-.79-.776-1.536-1.133-2.28Z" fill="#FFCD00"/><path d="M92.415 161.666c2.981.328 5.927.527 8.839.597a336.257 336.257 0 0 0 3.741-4.16 99.36 99.36 0 0 1-14.115-.79c-2.639 0-6.052 2.013-8.064 4.19l-2.877 2.98c.85 1.357 1.729 2.698 2.593 4.025 1.998 3.264 5.769 6.857 8.571 7.185.94.119 1.878.223 2.832.313v-4.234l-1.67-.164c-2.175-.223-5.455-4.039-5.425-5.708.03-1.67 3.428-4.398 5.575-4.234ZM159.49 123.866c.447-10.24 0-15.785-1.848-22.18a25.459 25.459 0 0 0-2.877-6.707c-2.862-4.472-7.244-8.824-8.332-10.643a8.347 8.347 0 0 1-1.103-4.815 23 23 0 0 0-1.789 5.784c-.276 2.389.036 4.81.91 7.05a9.555 9.555 0 0 0 3.279 4.472s.417-2.892-1.744-8.437a17.44 17.44 0 0 1 3.89 8.228c.373 2.624 1.252 13.251 6.32 12.253.25 2.71.324 5.433.224 8.153-7.29 4.89-10.285 13.847-5.68 20.793a14.906 14.906 0 0 1 5.858-16.56c-.834 15.249 1.61 27.53 9.644 31.764-4.963-5.59-7.229-17.41-6.752-29.155ZM29.439 152.738s-.313-13.594 4.039-19.87c4.352-6.275 12.953-10.612 17.544-11.61 5.008-1.148 0 5.53.134 9.36.12 2.176 2.773 2.981 4.561 5.083 3.876 4.471 2.355 7.766-2.414 10.434 3.502 5.962 2.697 9.688-1.625 11.015.61 4.978 1.595 6.394-1.863 8.079-4.517 2.072-20.376-12.491-20.376-12.491ZM48.637 118.872s.7-11.373 8.824-18.065c-4.919 10.076-4.919 17.2-4.919 17.2a11.239 11.239 0 0 0-3.905.865ZM113.06 77.48c-.627-2.34-1.491-5.456-2.624-8.243-1.133-2.788-7.23-3.86-10.434-4.159 2.802-.313 6.394-1.759 6.111-6.812-.325-2.292-.9-4.54-1.714-6.707a11.582 11.582 0 0 1 .969-7.453 10.747 10.747 0 0 0-5.5 6.93 6.782 6.782 0 0 1-.12-2.13 6.44 6.44 0 0 1 .612-1.938 11.269 11.269 0 0 0-3.473 2.474 18.587 18.587 0 0 0-2.982 5.962 23.849 23.849 0 0 1-4.248-13.698c0-2.31.716-4.382.671-6.395a23.402 23.402 0 0 1-8.466-12.982s3.592 6.38 8.079 9.345a24.535 24.535 0 0 0-5.203-10.627c-2.966-3.637-5.112-6.559-6.38-8.6-2.712-4.234-4.665-.508-2.98 3.89 1.356 3.532 10.434 26.636 14.086 35.773.64 1.61 1.37 3.458.149 4.695l-6.44 6.559h.313a50.351 50.351 0 0 0 13.937 1.818 8.258 8.258 0 0 0-3.369 2.102 5.724 5.724 0 0 0-1.64 3.294 9.495 9.495 0 0 0-6.886-2.981c0 1.133-.76 18.23 0 21.762.492 2.266 2.698 4.114 4.785 5.605a8.645 8.645 0 0 1 3.592 5.62 3.577 3.577 0 0 0 2.46 2.786c1.595.448 8.198.463 8.198-2.206a63.453 63.453 0 0 0-.104-7.452c-.135-.79-1.163-1.49-1.819-1.953a47.355 47.355 0 0 0-4.636-2.877 4.576 4.576 0 0 0-2.131-.864c-1.744.164-1.49 3.98-1.49 3.98a8.198 8.198 0 0 1-1.595-4.934 7.602 7.602 0 0 1 .715-2.981l.402-.835a29.32 29.32 0 0 1 4.13-5.873s-1.357 3.712.387 4.606l7.11 2.683s3.622-1.401 6.841-2.609c1.476-.521 1.029-3.19.686-4.576ZM120.9 25.489a23.968 23.968 0 0 0-7.617 8.451 26.636 26.636 0 0 0-1.893 5.336 9.733 9.733 0 0 1 5.276 1.237.253.253 0 0 1 0 .343c-1.192 1.64-1.967 2.832-.969 4.591a37.726 37.726 0 0 1 1.61 4.472c2.639-4.472 1.282-11.06.94-15.085.005-3.3.923-6.535 2.653-9.345ZM107.112 138.622c0-.88-1.49-1.371-1.49-1.371s-1.491.492-1.491 1.371v4.01c0 .864 1.49 1.371 1.49 1.371s1.49-.507 1.49-1.371v-4.01ZM102.402 138.473c.134-.864-1.238-1.58-1.238-1.58s-1.49.283-1.669 1.133l-.626 3.965c-.15.864 1.222 1.58 1.222 1.58s1.49-.268 1.67-1.133l.64-3.965ZM97.766 137.653c.283-.834-.969-1.744-.969-1.744s-1.49 0-1.818.865l-1.267 3.86c-.269.835.983 1.745.983 1.745s1.491 0 1.819-.865l1.252-3.86ZM93.339 136.073c.402-.775-.686-1.863-.686-1.863s-1.49-.208-1.952.582l-1.834 3.577c-.402.775.686 1.878.686 1.878s1.49.194 1.938-.581l1.848-3.593ZM89.195 133.882c.522-.715-.372-1.952-.372-1.952s-1.491-.433-2.013.268l-2.4 3.264c-.521.716.388 1.953.388 1.953s1.49.432 2.012-.268l2.385-3.265ZM85.454 131.08c.626-.626 0-1.982 0-1.982s-1.401-.656-2.027 0l-2.937 2.832c-.626.61 0 1.982 0 1.982s1.416.656 2.042 0l2.922-2.832ZM82.19 127.756c.715-.522.253-1.982.253-1.982s-1.282-.85-1.997-.343l-3.294 2.4c-.716.521-.254 1.967-.254 1.967s1.282.865 1.997.343l3.295-2.385ZM79.507 123.97c.79-.417.566-1.923.566-1.923s-1.148-1.043-1.923-.626l-3.622 1.863c-.79.403-.566 1.908-.566 1.908s1.133 1.044 1.923.641l3.622-1.863ZM77.51 119.767c.849-.269.849-1.804.849-1.804s-.954-1.192-1.789-.91l-3.89 1.283c-.835.283-.85 1.803-.85 1.803s.954 1.208 1.804.924l3.875-1.296ZM76.019 115.414c.88-.149 1.133-1.654 1.133-1.654s-.76-1.342-1.64-1.193l-3.965.686c-.88.149-1.133 1.654-1.133 1.654s.76 1.342 1.64 1.193l3.965-.686ZM75.408 110.823c.894 0 1.386-1.49 1.386-1.49s-.537-1.49-1.49-1.49h-4.1c-.894 0-1.371 1.49-1.371 1.49s.536 1.49 1.49 1.49h4.085ZM75.482 106.232c.88.12 1.595-1.237 1.595-1.237s-.298-1.49-1.192-1.61l-3.712-.491c-.88-.12-1.595 1.237-1.595 1.237s.313 1.49 1.193 1.61l3.711.491ZM76.272 101.686c.865.254 1.774-.969 1.774-.969s0-1.49-.91-1.773l-2.608-.82c-.85-.254-1.774.983-1.774.983s0 1.491.91 1.774l2.608.805ZM77.51 97.185c.804.372 1.907-.7 1.907-.7s.179-1.491-.626-1.894l-1.103-.551c-.79-.388-1.893.7-1.893.7s-.179 1.49.611 1.893l1.103.552ZM108.811 138.429c-.134-.865 1.237-1.595 1.237-1.595s1.49.268 1.67 1.132l.67 3.95c.135.865-1.222 1.595-1.222 1.595s-1.49-.268-1.684-1.132l-.671-3.95ZM113.506 137.534c-.283-.82.954-1.744.954-1.744s1.49 0 1.834.85l1.282 3.816c.283.82-.954 1.744-.954 1.744s-1.491 0-1.834-.85l-1.282-3.816ZM168.896 106.173c-.12-.865-1.49-.97-1.49-.97s-1.283.865-1.193 1.73c0 .164 1.729 12.774 1.818 12.938.134.85 1.714.969 1.714.969s1.401-.865 1.252-1.73c-.134-.163-2.146-12.758-2.101-12.937ZM164.484 108.602c-.09-.85-1.491-.968-1.491-.968s-1.327.864-1.252 1.729c0 .164 1.356 12.774 1.49 12.938.105.864 1.715.969 1.715.969s1.49-.865 1.311-1.73c-.164-.164-1.818-12.759-1.773-12.938ZM21.494 139.233c-.537-.775-1.953-.223-1.953-.223s-.775 1.49-.238 2.22c.074.254 5.634 7.558 5.783 7.603.581.685 1.953 0 1.953 0s.715-1.49.164-2.117c-.164 0-5.635-7.244-5.71-7.483ZM21.42 130.767c-.507-.805-1.938-.358-1.938-.358s-.85 1.401-.328 2.206c0 .284 6.126 9.108 6.29 9.123.551.73 1.953.164 1.953.164s.76-1.372.223-2.087c-.164-.03-6.156-8.765-6.2-9.048ZM23.253 124.656c-.492-.805-1.938-.433-1.938-.433s-.88 1.327-.388 2.147c0 .283 5.62 8.943 5.769 8.943.537.73 1.953.254 1.953.254s.82-1.312.298-2.042c-.164.03-5.664-8.586-5.694-8.87ZM27.262 121.75c-.432-.806-1.922-.493-1.922-.493s-.91 1.267-.433 2.072c0 .224 4.07 6.827 4.204 6.916.506.746 1.937.328 1.937.328s.85-1.237.358-1.982c-.104-.075-4.084-6.618-4.144-6.842Z" fill="#FFCD00"/><path d="M53.869 128.367c1.043-2.98 3.175-5.485.999-8.809 6.9.924 7.93 11.746 7.93 11.746a33.508 33.508 0 0 0-7.155.506c-2.743.433-2.162-2.34-1.774-3.443ZM117.933 135.97c-.417-.776.656-1.879.656-1.879s1.49-.209 1.953.566l1.878 3.563c.402.775-.67 1.878-.67 1.878s-1.491.209-1.954-.566l-1.863-3.563ZM122.047 133.733c-.521-.7.373-1.952.373-1.952s1.49-.448 2.012.268l2.415 3.234c.522.716-.373 1.968-.373 1.968s-1.49.432-2.012-.268l-2.415-3.25ZM125.774 130.916c-.626-.626 0-1.997 0-1.997s1.4-.656 2.042 0l2.936 2.772c.626.611 0 1.983 0 1.983s-1.401.67-2.042 0l-2.936-2.758ZM129.008 127.562c-.73-.521-.268-1.982-.268-1.982s1.282-.865 1.997-.343l3.31 2.355c.715.522.268 1.983.268 1.983s-1.282.864-1.998.342l-3.309-2.355ZM131.661 123.746c-.79-.387-.566-1.907-.566-1.907s1.118-1.044 1.908-.641l3.652 1.833c.79.402.581 1.908.581 1.908s-1.133 1.043-1.923.656l-3.652-1.849ZM133.689 119.588c-.85-.268-.865-1.789-.865-1.789s.94-1.207 1.789-.939l3.89 1.267c.85.268.88 1.789.88 1.789s-.954 1.207-1.804.939l-3.89-1.267ZM135.03 115.176c-.88-.15-1.133-1.64-1.133-1.64s.745-1.341 1.61-1.207l3.697.626c.879.134 1.147 1.64 1.147 1.64s-.745 1.326-1.624 1.192l-3.697-.611ZM135.641 110.6c-.88 0-1.386-1.49-1.386-1.49s.522-1.491 1.49-1.491h2.803c.88 0 1.386 1.49 1.386 1.49s-.522 1.49-1.49 1.416l-2.803.075ZM135.94 105.964c-.88.12-1.61-1.222-1.61-1.222s.298-1.49 1.177-1.625l1.222-.209c.88-.134 1.595 1.223 1.595 1.223s-.283 1.49-1.177 1.624l-1.208.21ZM186.41 102.148c-.224-.85-1.595-.969-1.61-.969-.015 0-1.118.88-.91 1.73 0 .163 3.37 12.774 3.489 12.938.253.864 1.788.983 1.788.983s1.252-.88.984-1.729c-.12-.179-3.756-12.774-3.741-12.953ZM181.968 102.402c-.209-.85-1.58-.97-1.58-.97s-1.163.865-.984 1.73c0 .164 2.981 12.774 2.981 12.938.209.864 1.76.969 1.76.969s1.281-.865 1.042-1.73c-.044-.163-3.249-12.773-3.22-12.937ZM177.586 103.132c-.164-.865-1.491-.969-1.491-.969s-1.192.865-1.043 1.73c0 .163 2.504 12.758 2.623 12.937.179.85 1.73.97 1.73.97s1.31-.865 1.117-1.73c-.164-.164-2.966-12.7-2.936-12.938ZM173.218 104.22c-.134-.85-1.49-.969-1.49-.969s-1.237.88-1.118 1.73c0 .163 2.101 12.773 2.206 12.937.149.865 1.714.984 1.714.984s1.356-.88 1.177-1.729c-.134-.179-2.519-12.774-2.489-12.953ZM31.838 120.542c-.462-.79-1.922-.522-1.922-.507 0 .015-.91 1.192-.448 1.982.09.194 2.982 4.83 3.056 4.95.492.744 1.923.387 1.923.387s.88-1.178.402-1.923c-.119-.105-2.936-4.71-3.01-4.89ZM37.264 120.914c-.462-.745-1.908-.506-1.923-.506-.015 0-.909 1.147-.432 1.908.09.149 1.148 1.833 1.252 1.982.477.73 1.923.432 1.923.432s.894-1.118.417-1.848c-.179-.134-1.237-1.819-1.237-1.968ZM153.334 78.03c.418-3.68 3.264-9.703 9.45-6.274 0 0 2.668-4.904 5.351-4.472 2.683.432 4.83 2.46 7.29 7.453a233.705 233.705 0 0 1 9.658 23.849c-4.112.166-8.194.77-12.178 1.803a42.54 42.54 0 0 0-11.626 5.411 46.207 46.207 0 0 0-4.472-12.163c-2.355-4.382-6.856-7.453-8.511-11.373-1.654-3.92-.015-6.782 5.038-4.233ZM56.925 133.912s7.02-1.416 9.047-.85c2.027.567 4.815 4.979 2.4 7.453a24.162 24.162 0 0 1-6.35 4.114s.835 1.49 5.456-.954c1.297 3.324 0 7.364-8.347 10.881 1.904.206 3.83-.103 5.574-.894 0 0 1.685 4.129-5.53 8.004-3.145 1.67-4.665 2.326-4.665 2.326.262-2.004.074-4.041-.552-5.963 2.087-1.132 6.097-4.039 2.296-11.432 2.43-2.37 7.274-5.56.67-12.685ZM99.555 106.769s4.471-.313 6.081-1.893c1.357 1.49 6.574 1.774 6.574 1.774s-.343 1.282-6.5 1.282c-6.155 0-6.155-1.163-6.155-1.163ZM119.006 71.845a20.689 20.689 0 0 0-2.548-2.757c-2.087-1.625-3.846-.686-3.548 1.356.581 4.01 1.878 7.08 4.472 13.221a9.152 9.152 0 0 1 .954 3.488 8.198 8.198 0 0 1-1.595 4.934s.313-3.816-1.49-3.98a4.62 4.62 0 0 0-1.968.805 48.667 48.667 0 0 0-4.621 2.877c-.656.462-1.684 1.162-1.818 1.952a63.453 63.453 0 0 0-.105 7.453c0 2.668 6.603 2.653 8.198 2.206a3.16 3.16 0 0 0 2.445-2.698 9.256 9.256 0 0 1 3.622-5.649c2.087-1.49 4.278-3.324 4.785-5.59.745-3.472 0-20.048 0-21.687l-6.783 4.07ZM28.887 97.036a17.29 17.29 0 0 1 9.719 9.718c2.548 6.723 1.773 16.068 1.773 16.068a38.934 38.934 0 0 1 3.593-1.982 31.66 31.66 0 0 0-2.147-14.906 14.041 14.041 0 0 0-12.938-8.898Z" fill="#3D7CC9"/><path d="M123.568 102.163c-.805 8.944-4.368 17.589-5.963 21.792-1.595 4.204 2.43 5.336 8.437.268a20.242 20.242 0 0 0 5.694-16.5l-3.07-16.933c-1.014 5.143-5.963 4.844-7.916 8.944-1.281 2.668-2.608 5.753-5.828 6.916a4.174 4.174 0 0 1-4.158 3.89h-2.504a12.73 12.73 0 0 1-2.117 8.288c-3.756 5.887 0 13.22 0 13.22 8.973-7.482 13.55-21.001 17.425-29.885ZM92.773 34.88c-.388 4.62-1.744 9.941.939 15.084a10.24 10.24 0 0 1 6.633-6.141 25.429 25.429 0 0 0-2.4-9.883 23.998 23.998 0 0 0-7.677-8.451s2.892 4.844 2.505 9.39ZM135.775 16.396c1.7-4.397-.268-8.123-2.98-3.89-1.283 1.982-3.43 4.904-6.276 8.466a24.34 24.34 0 0 0-5.187 10.628c4.471-2.981 8.079-9.346 8.079-9.346a23.506 23.506 0 0 1-8.467 12.983c0 2.012.582 4.084.671 6.394a23.67 23.67 0 0 1-4.308 13.699c-1.774-5.262-3.622-6.887-4.59-9.257a4.86 4.86 0 0 1 0-4.084c-3.906-.104-8.273 3.786-6.008 10.702 3.175 9.54-.536 10.151 0 12.03.343 1.147 3.712 1.34 7.304.133a30.601 30.601 0 0 1 13.877-1.49s-2.28-2.4-4.993-5.128l-1.49-1.49c-1.044-1.014-.79-2.49.133-4.696 3.846-8.958 12.879-32.151 14.235-35.654ZM154.392 161.16a44.419 44.419 0 0 1-5.962-17.067s-2.504 5.485-.566 10.21a14.548 14.548 0 0 0 6.528 6.857Z" fill="#3D7CC9"/><path fill="#004987" d="M152.589 178.674v-4.86h-1.819v-.655h4.368v.655h-1.834v4.86zM155.853 178.674v-5.515h1.103l1.312 3.905c.12.358.209.626.253.805 0-.194.164-.492.298-.88l1.312-3.83h.984v5.515h-.7v-4.621l-1.596 4.62h-.655l-1.655-4.695v4.696h-.656Z"/></g></svg>