<svg width="200" height="200" xmlns="http://www.w3.org/2000/svg" xmlns:xlink="http://www.w3.org/1999/xlink"><defs><path id="a" d="M0 .12h199.72v151.45H0z"/></defs><g fill="none" fill-rule="evenodd"><g transform="translate(0 24.595)"><mask id="b" fill="#fff"><use xlink:href="#a"/></mask><path d="M154.75 97.877c.92-.456 1.87-1.05 2.75-1.833.014-.012.01-.032-.01-.04-4.304-1.367-6.732-2.399-6.757-2.41-.465-.185-11.533-4.792-10.43-20.743.117-1.665.35-3.549.845-5.546.648-2.611.88-4.128 1.122-6.57.177-1.787.17-2.572.126-4.382a65.984 65.984 0 0 0-.528-6.83c-.576-4.325-1.66-8.736-2.923-12.573-.064-.225-.126-.448-.193-.672-3.22-10.762-10.618-19.912-19.821-26.318a25.83 25.83 0 0 0-.488-.358c-3.979-2.827-8.47-5.069-13.246-6.666C99.945 1.108 94.524.121 89.212.121c-.668 0-1.338.006-1.987.031-4.648.082-8.902.696-11.998 1.259-4.258.775-9.837 2.629-13.568 4.473-3.382 1.67-6.759 3.824-9.359 5.767-2.916 2.18-5.096 4.195-6 5.094a257.438 257.438 0 0 0-3.443 3.519c-.333.346-.077.64.119.673.943.157 2.193.33 3.205.512 1.26.225 3.18.415 7.846 2.163 5.477 2.053 10.608 5.584 12.186 7.143 1.456 1.44 4.249 5.25 5.586 7.099l.781 1.077-.181.23a30.57 30.57 0 0 0-1.767 2.497s-1.083.542-2.055 1.125c-.698.42-1.29.892-1.806 1.339-.352.302-.544.863-.417 1.34.272 1.031.972 2.704 1.417 3.487l.104.186-.018.13c-.195 1.396-.804 4.442-1.926 8.802-.859 3.334-1.81 6.437-2.832 9.22-.43 1.174-.954 2.668-1.298 3.602-.332.9-.04 1.355.485 1.452.868.16 2.527.362 2.527.362-.4 4.796-1.217 11.071-1.504 12.886-.175 1.114-.355 1.756-.625 2.515-.235.663-.875 2.122-1.012 2.405-.605 1.254-.64 2.455-.478 2.863.244.62 1.1 1.233 2.353 1.624 1.316.426 3.586.787 5.172.822 1.484.034 3.568-.135 6.568-.657 1.55-.27 3.4-.67 5.424-1.218l.201-.053.053.442c.397 3.344-.683 6.806-3.347 10.867l-1.584 2.403-8.858-9.725H12.37L.643 136.175c-1.666 5.448.28 9.155 1.587 10.88a11.455 11.455 0 0 0 9.074 4.516h56.843l2.176-7.13 6.514 7.13h18.837l.152-.506c1.132.335 2.277.506 3.504.506h30.07c2.055 0 4.74-.21 7.4-1.815 1.89 1.188 4.156 1.814 6.57 1.815h39.944l16.407-53.694h-44.97Z" fill="#FEFEFE" mask="url(#b)"/></g><path d="M137.184 125.312c-3.047-3.425-8.205-8.662-14.454-12.633-3.011-1.913-6.317-3.718-7.201-5.92-.034-.083-.027-.129.128-.136.612-.027 1.901.258 3.225.764.406.156.783.314 1.06.452.144.071.204.057.295-.02.093-.077.224-.2.224-.2s1.947-1.739 2.372-2.213c.825-.923 1.65-2.116.864-3.612-.206-.462-.507-.818-.69-1.037-.258-.305-.54-.724-.955-1.176-.641-.7-1.454-1.775-2.099-2.61-.47-.609-2.258-3.218-2.4-3.966-.12-.638.309-1.125 1.088-.944 1.131.263 2.397 1.15 3.487 2.324 1.516 1.633 2.566 4.596 2.98 6.908 1.791 10.007 10.76 16.686 16.742 18.5 3.215.974 5.64 1.17 6.896 1.192.241.004.462.004.614-.006.098-.005.162-.088.034-.143-2.006-.878-13.027-6.563-11.937-23.52.134-2.077.565-4.443 1.16-6.882-1.183-1.924-2.35-3.889-3.243-5.253-.07-.107-.169-.254-.215-.323-.032-.046-.025-.34-.025-.34 1.537 1.127 2.974 2.323 3.995 3.306.2-1.254.418-2.724.49-4.05-1.847-1.649-4.47-3.728-7.789-5.416l-.148-.076c-.049-.025-.045-.496-.042-.615 1.924.606 4.617 1.648 7.747 3.342.076.053.268.14.271.141-.317-11.34-4.622-24.725-9.361-31.388-.952-1.338-2.249-3.14-3.248-4.138-.177.223-.753.91-.933 1.125-2.527 3.032-5.195 5.385-7.104 6.902-.027-.04-.236-.426-.145-.524 2.725-2.96 4.2-5.733 5.363-8 .174-.339.582-1.265.715-1.769-.447-.458-.774-.798-1.242-1.242-.764.877-2.29 2.309-3.883 3.534-.036.029-.24-.178-.206-.225.588-.843 1.798-2.853 2.52-4.808-6.075-5.436-15.369-11.289-28.566-12.846-2.617-.309-6.142-.263-7.325-.159.22.542.582 1.682.777 2.22 1.59 4.373 2.39 8.537 2.794 11.478l.015.11s-.388.006-.398-.024l-.029-.093c-2.153-6.924-5.533-11.434-7.178-13.413-1.003.061-2.149.223-3.317.386a33.58 33.58 0 0 1 3.573 6.137s-.296.038-.36-.049c-.922-1.255-3.07-4.067-5.286-5.764-.574.081-2.09.386-4.492.973-2.685.655-5.198 1.49-9.565 3.649-6.257 3.091-11.009 6.868-14.278 10.104-.057.057-.025.122.017.128 7.556 1.19 16.733 6.894 19.166 9.22 1.633 1.56 2.037 2.152 2.486 2.733 1.555 2.016 5.14 6.7 6.141 8.345-.272.245-2.432 2.638-3.685 4.923-1.12.259-3.094 1.325-3.082 1.623.03.725 1.355 2.524 1.354 2.95-.002.498-.485 4.192-2.038 10.226-1.34 5.207-2.85 8.979-3.484 10.838-.01.032-.007.098.04.105.375.052 2.146.286 2.433.336-.107 5.182-1.184 13.151-1.616 15.892-.279 1.761-.62 2.569-1.028 3.6-.407 1.029-.68 1.758-.868 2.146-.11.228-.056.325.127.384 1.036.336 3.563.712 4.817.684 1.233-.027 2.726-.223 5.453-.61 3.045-.432 5.28-1.096 8.083-2.053 1.453 3.268 2.574 8.405-2.866 16.695-.934 1.422-2.245 3.427-3.51 5.364L65.921 125.3h-1.503l-22.454-.003L34 151.366l-5.07-.001 7.97-26.068-22.43-.002-11.112 36.307c-1.296 4.24.154 7.039 1.134 8.33a8.593 8.593 0 0 0 6.813 3.376l32.316.003 22.428.002 3.014-9.862 9.024 9.864 15.487.001.499-1.631c1.479 1.063 3.28 1.632 5.258 1.632l30.07.002c1.846 0 4.015-.179 6.11-1.507.5-.317.937-.67 1.327-1.04 1.291 1.304 3.355 2.548 6.534 2.548l37.844.004 14.67-48.012h-58.701Z" fill="#122348"/><path d="M91.628 85.15c.352-.274.524-.588.524-.588s-.375-.582-1.398-1.094c-.79-.394-1.452-.564-2.094-.71-.64-.145-1.5-.246-2.145-.27-.641-.04-1.853.09-1.895.139.624.093 1.235.206 1.82.399.595.195 1.362.503 1.695.7.335.195.561.462.573.602l-2.105-.115c-3.42 5.18-3.903.946-5.43 1.495-.666.24-1.407 1.896-1.633 2.553 4.066-.511 9.372-1.89 10.795-2.415.438-.178.973-.448 1.293-.697M117.4 115.626c-.174-.069-.327-.13-.476-.162-1.54.046-9.065 3.127-13.63 5.471-.066.034-.098.052-.198.102-.101.051-.259.073-.638.024.15-.097 3.333-2.499 5.12-3.663 2.228-1.452 3.108-1.739 3.108-1.739s-1.642-1.055-2.97-1.636c-1.057-.463-2.22.047-3.224.776-2.352 1.708-6.725 5.4-9.83 8.087a144.94 144.94 0 0 0-2.428 2.149c-.014-.013-.103-.075-.038-.145a74.227 74.227 0 0 0 1.991-2.677c5.22-7.59 5.276-8.276 5.353-8.59.083-.34-.307-2.934-1.294-5.757-3.84 2.333-7.817 4.16-11.483 5.553.076.166.213.47.354.844.296.777.712 2.136.749 4.332.068 4.017-1.123 7.58-2.567 10.47-1.444 2.89-5.642 8.812-5.642 8.812l1.262-.005c3.47-2.942 13.607-10.743 27.845-14.864 7.337-2.124 13.207-2.089 17.365-1.46-3.56-3.302-6.743-5.146-8.729-5.922" fill="#898B8E"/><path d="m184.423 140.74 2.74-8.97-33.217-.003c-2.141 0-3.543 1.144-4.312 3.659l-8.618 28.205c-.314 1.032-.162 1.88.213 2.375.395.52.932.855 2.142.855l33.07.003 6.428-21.039-20.288-.002-2.152 6.865 11.369.002-1.547 5.092-18.561-.001 5.207-17.043 27.526.003ZM91.758 48.259c-6.973 0-13.41 2.395-18.61 6.439l6.753 9.558a21.602 21.602 0 0 1 13.526-4.61c3.512.026 7.144.901 10.19 2.406.212.104.278.138.308.154.02.011.024.07-.028.1-.006.004-.8.302-.902.262-.03-.011-.351-.135-.675-.256-2.539-.943-5.007-1.404-7.546-1.404-5.745 0-11.208 2.422-15.014 6.644h-.523l-1.122-1.519v-.003l-.002.001s-1.003.754-1.682 1.924c2.148-.152 5.065-.095 8.62.696 1.37.305 2.83.714 4.383 1.269 7.687 2.75 12.948 8.164 16.181 11.474l.12.121c1.66 1.7 2.767 2.82 3.772 3.553 2.787 1.762 6.027-.406 5.938-5.364l-.001-.105c-.01-.32-.03-.65-.067-.992-.366-3.375-1.35-5.532-1.624-6.206-.035-.088-.077-.184-.097-.23l-.107-.242s1.502-.811 2.306-1.268c.643-.354 2.22-1.245 2.22-1.245a29.01 29.01 0 0 0-5.032-8.022 254.99 254.99 0 0 1-2.294 2.87l-.133.164a24.864 24.864 0 0 1 2.86 4.022l.947-.63a26.215 26.215 0 0 0-2.138-3.209l-.03-.038.989-1.134.044.055a27.853 27.853 0 0 1 3.138 4.972l.024.05-3.406 2.144s-.602-1.172-.927-1.726c-.98-1.667-2.206-3.28-3.356-4.43a6.716 6.716 0 0 0-.192-.184s2.437-3.136 3.255-4.215a27.952 27.952 0 0 0-8.028-5.614 233.663 233.663 0 0 1-1.158 3.934 23.916 23.916 0 0 1 3.594 2.064c.501.35.808.588.86.626.142-.215.585-.9.667-1.027a25.263 25.263 0 0 0-3.44-2.235l-.045-.023.53-1.447.06.032a27.01 27.01 0 0 1 5.046 3.52l.038.033-2.349 3.466-.05-.043a21.634 21.634 0 0 0-6.958-4.017l-.051-.019s.113-.393.182-.64c.41-1.479.856-3.05 1.36-4.953a26.957 26.957 0 0 0-9.676-1.786c-.261 0-.62.017-.678.018.175 1.492.335 2.957.475 4.354.307-.013.586-.023.874-.023.153 0 .582.012.582.012a22.91 22.91 0 0 1 4.106.477c.09-.444.176-.88.262-1.316-.152-.03-.466-.101-.73-.147-1.102-.192-2.472-.363-3.704-.405l-.055-.001-.073-1.644.063.002c2.226.091 4.432.467 6.556 1.115l.051.016-.01.052a658.72 658.72 0 0 1-.974 4.44l-.06-.016a22.29 22.29 0 0 0-5.813-.771c-.847 0-1.734.057-2.638.169l-.059.007s-.49-4.071-.786-6.208a27.01 27.01 0 0 0-10.076 3.027 249.027 249.027 0 0 1 2.246 4.08 23.033 23.033 0 0 1 5.265-2.12l-.359-1.433a24.35 24.35 0 0 0-4.316 1.523l-.052.024-.066-.14c-.222-.47-.445-.94-.67-1.409l-.024-.054.044-.046a26.13 26.13 0 0 1 4.833-1.617c.653-.15 1.203-.259 1.73-.343l.058-.008.809 4.942-.056.01a21.473 21.473 0 0 0-7.853 3.259l-.053.035s-2.24-3.954-3.273-5.71c-.684.42-1.449.972-1.449.972l-.934-1.472.045-.033c4.923-3.52 10.682-5.38 16.656-5.38 8.818 0 17.106 4.072 22.74 11.17a31.037 31.037 0 0 1 5.81 11.838 31.612 31.612 0 0 1 .93 7.654c0 2.906-.4 5.8-1.189 8.6l-.006.022 1.158.86a34.255 34.255 0 0 0 1.286-9.312c0-18.108-14-32.787-31.271-32.787" fill="#FCB61A"/><path d="m116.258 86.252-.006.027.915.679c.44-1.927.675-3.894.675-5.851 0-.52-.007-.86-.007-.86l1.475-.17s.024.393.022.89a28.812 28.812 0 0 1-.855 6.938l-.005.022.871.648a29.684 29.684 0 0 0 1.024-7.718c0-3.394-.568-6.718-1.687-9.882l-.386.208c-.546.296-1.11.603-1.667.898-.413.225-.837.449-1.247.664a25.52 25.52 0 0 1 1.134 4.69c.015.09.028.18.041.27.293-.054 1.067-.205 1.067-.205a26.63 26.63 0 0 0-.794-3.912l-.013-.047.515-.254c.14-.068.827-.412.827-.412l.02.067c.551 1.87.908 3.823 1.062 5.806l.004.053-.463.084c-.609.114-1.26.229-2.046.36.051.636.073 1.245.063 1.81a31.153 31.153 0 0 1-.54 5.198M117.886 98.64c-2.646-3.425-4.23-5.643-3.855-8.209l.047-.009c.01-.001 1.278-1.794.965-2.068-.232-.2-.468-.315-.536-.348-.023-.011-.017-.001-.017-.001.385 1.025-3.25 1.072-4.828.287-1.454-.722-2.657-1.94-4.434-4.07-1.193-1.43-2.547-3.05-4.216-4.738-7.194-7.281-16.805-8.868-22.357-8.782-3.457-.038-5.257.36-5.402.569-.136.196.73 1.437.982 1.788l.001.009c-.002.01-.436 2.009-1.278 4.677-1.3 4.123-1.912 4.684-1.597 5.133.117.169.216.33.304.485-1.489 4.953-2.945 8.607-2.945 8.607l1.055.104v.001l1.734.17s1.758-3.77 4.935-8.29l.088-.12h.001c-.413-.326-.835-.813-.369-1.222.978-.857 3.627-2.323 7.542-2.085 4.855.294 8.916 3.152 10.339 4.3-.003.008-.267.802-1.124 1.512-.6.498-1.142.825-1.776 1.057-1.577.576-7.92 1.721-12.139 2.122-.481.046-2.124.157-2.462.181-.211 1.315-.61 3.68-1.33 7.644-1.663 9.173-3.05 14.04-3.675 15.996-.01.002-.023.003-.034.006-.62.098-1.35 1.756-1.35 1.756l.081.004c.3.01 1.39-.006 4.06-.516 5.446-1.041 9.097-2.087 16.335-5.527 3.454-1.642 10.084-6.3 12.89-9.23.99-1.034 1.747-1.885 2.226-2.598.159-.237.614-.822.866-1.495a6.1 6.1 0 0 1 .03-.087c.519.058.603.47.681 1.024.136.965.26 2.368 2.662 3.125 3.019.952 4.2 1.325 6.507 2.225 2.009.783 3.609 1.544 3.615 2.314.013.014.21.118.21.118s1.42-1.292 1.145-1.601c.096-.225-2.132-2.35-3.577-4.218" fill="#FCB61A"/><path d="M76.946 74.083c.232-.584.71-.941 1.337-1.198.042-.018.06-.073.01-.072-.722.015-2.35.114-2.785.139a34.52 34.52 0 0 0-1.271.115s-.434 2.002-1.279 4.678c-1.3 4.123-1.912 4.684-1.597 5.133.117.169.216.331.304.484-1.489 4.953-2.945 8.608-2.945 8.608l1.054.104 3.614-8.405c2.336-6.437 2.758-7.571 3.558-9.586M117.886 98.64c-2.646-3.425-4.23-5.643-3.855-8.209-.186.043-.875.081-1.028.083-1.24.09-2.879-.266-3.73-.673-1.873-.895-3.006-1.912-4.98-4.206a34.01 34.01 0 0 0-1.896-2c-.222-.217-.454-.447-.776-.698-.371-.29-.34-.107-.318-.063.731 1.399 1.251 2.919 1.511 4.934.974 7.553-5.19 15.277-12.74 16.283-4.064.54-7.34-.116-10.353-2.244-.02-.015-.066-.036-.08.002-.015.038-1.856 5.234-1.856 5.234-1.246-4.535-1.59-10.276 1.221-17.564-.481.046-2.124.157-2.462.181-.211 1.315-.61 3.68-1.33 7.644-1.663 9.173-3.05 14.04-3.675 15.996.569-.089 1.365-.187 2.444-.394 5.405-1.033 8.814-2.01 15.932-5.395 3.341-1.588 9.75-6.109 12.4-8.875 2.297-2.398 2.688-3.36 3.238-4.525.721-1.525.925-2.89.967-3.217.088-.003 1.444-.086 1.966 2.596.699 3.604.313 4.235 2.582 4.85 4.087 1.106 8.92 2.82 10.395 4.478.096-.225-2.132-2.35-3.577-4.218M85.052 68.65c-.432-.45-.438-1.009-.148-1.619.01-.022.023-.045.034-.067.215-.424.568-.87 1.022-1.319 1.812-1.797 7.907-4.368 15.495-1.272 10.89 4.444 9.175 18.15 4.161 17.021l.12.122c1.66 1.698 2.766 2.819 3.77 3.552 2.986 1.888 6.494-.732 5.871-6.461-.366-3.375-1.348-5.533-1.624-6.206l-.063-.153-.102-.234-.021-.047c-.423-.955-1.525-2.77-3.312-4.795-1.944-2.206-3.688-3.466-5.5-4.533a13.73 13.73 0 0 0-.831-.434c.021.011.026.072-.027.102-.006.003-.8.301-.902.261l-.386-.147-.29-.109c-2.537-.945-5.005-1.404-7.545-1.404-5.745 0-11.208 2.421-15.014 6.644h-.523l-1.122-1.519v-.003h-.002s-1.003.754-1.681 1.925c2.147-.152 5.064-.096 8.62.696" fill="#CC8B2A"/><path d="M83.707 80.528c4.854.295 8.915 3.152 10.337 4.3l2.015.069s-.91-.928-1.735-1.55c-1.23-.927-4.395-3.616-10.371-3.954-4.408-.21-7.124 1.057-8.397 2.388-.447.467-.594.982-.47 1.409.078.276.31.465.507.504.196.037.932.148.94.142-.413-.326-.836-.815-.369-1.223.978-.857 3.627-2.323 7.543-2.085" fill="#CC8B2A"/><path d="M142.384 132.41c-.328-.433-1.003-.644-2.065-.644l-30.142-.003c-2.234 0-3.657 1.162-4.385 3.545l-8.616 28.227c-.36 1.179-.163 1.975.187 2.438.331.436.855.885 1.968.885l30.07.003c2.375 0 3.347-.42 4.067-2.777l3.021-9.885-8.959-.001-1.111 3.636-18.566-.002 5.225-17.098 18.565.002-1.008 3.3 8.958.001 2.77-9.083c.376-1.234.384-2.066.021-2.544M46.74 131.757l-7.968 26.069-18.566-.003 7.97-26.068h-8.934l-9.715 31.74c-.4 1.306-.231 2.09.104 2.533.39.514 1.015.821 1.673.821l30.545.003c2.359 0 3.351-.74 4.059-3.057l9.79-32.037-8.959-.001ZM88.39 138.505l-4.735 15.87-20.592-22.625-10.723 35.102 8.934.002 4.92-15.632 14.732 15.633H88.8l10.612-34.418c-5.142 2.37-8.748 4.537-11.022 6.068" fill="#FEFEFE"/></g></svg>