<svg width="200" height="200" xmlns="http://www.w3.org/2000/svg"><g fill="none"><path d="M177.944 90.028c-8.57-1.752-20.19-3.19-34.908-2.984 14.836-.143 26.556 1.34 34.908 2.984M152.53 102.38c-13.85 3.373-28.914 7.688-41.112 12.774 13.67-5.309 28.099-9.528 41.112-12.774m40.176-8.338l-.024-.012c-.357.08-1.094.246-2.175.5.806-.181 1.549-.347 2.2-.488" fill="#A7A5A6"/><path d="M192.706 94.176c-.65.102-1.393.223-2.2.354-5.73.976-20.929 3.698-37.976 7.85-13.013 3.246-27.441 7.465-41.112 12.774-.916.382-1.818.767-2.7 1.159C87.3 125.798 69.302 138.866 69.124 139l-26.142 19.75 26.935-54.18-7.54 8.102-55.883 11.033L99.719 36.11h29.404l-18.754 54.32c3.867-.866 8.276-1.833 13.018-2.303a221.347 221.347 0 0 1 19.65-1.083c14.716-.206 26.338 1.232 34.907 2.984 9.829 1.937 14.989 4.098 14.989 4.098l-.25.042.023.008zm4.31-.441c-.986-.52-24.747-12.669-73.858-7.61-3.378.348-6.551.956-9.727 1.612l18.519-53.642H98.92L0 127.043l62.644-12.37-25.272 50.835 32.967-24.9c.195-.142 21.697-15.413 39.148-22.433 39.46-15.872 86.71-22.403 87.182-22.468l3.256-.442-2.909-1.53z" fill="#A7A5A6"/><path d="M179.097 93.767s-39.357 5.212-71.697 19.439c-21.854 9.614-40.13 22.965-40.311 23.102l-14.713 11.125 23.877-48.03h-6.137l-9.464 10.17-43.285 8.547 83.689-78.635h23.333L105.16 95.181c4.82-1.29 11.352-2.81 18.655-3.706 26.708-3.28 55.282 2.292 55.282 2.292zm-1.153-3.739c-8.352-1.645-20.072-3.127-34.908-2.984-6.042.058-12.596.386-19.649 1.083-4.742.47-9.151 1.437-13.018 2.302l18.754-54.319H99.719L6.494 123.705l55.884-11.033 7.539-8.103-26.935 54.181L69.124 139c.178-.134 18.176-13.202 39.594-22.687a127.33 127.33 0 0 1 2.7-1.159c12.198-5.086 27.263-9.401 41.112-12.774 17.047-4.152 32.246-6.874 37.977-7.85a241.624 241.624 0 0 1 2.426-.404s-5.16-2.16-14.99-4.098z" fill="#231F20"/><path d="M152.902 93.15l12.358.848-12.235 1.934c-.198.031-20.112 3.26-46.77 14.57-22.342 9.478-40.754 23.325-40.938 23.464l-4.756 3.6 20.432-41.1H68.838l-9.688 10.41-32.32 6.382 75.389-70.836h18.049l-19.734 57.16c4.299-1.342 13.265-3.868 23.653-5.195 16.167-2.063 28.592-1.246 28.715-1.238zm-29.087-1.675c-7.303.895-13.836 2.417-18.655 3.706l19.229-55.696h-23.333l-83.69 78.635 43.286-8.547 9.464-10.17h6.137l-23.877 48.03 14.713-11.125c.18-.137 18.457-13.488 40.311-23.102 32.34-14.227 71.697-19.44 71.697-19.44s-28.574-5.57-55.282-2.291z" fill="#FFF"/><path d="M78.832 85.726h7.5l8.601-17.302-16.101 17.302" fill="#FFF"/><path d="M152.807 94.547s-19.946 3.145-47.1 14.666c-22.775 9.66-41.236 23.636-41.236 23.636l18.784-37.784H68.227l-9.794 10.524-27.087 5.349 71.428-67.115H118.3l-20.014 57.97s11.579-4.164 26.077-6.016c16.22-2.07 28.443-1.23 28.443-1.23zm-52.273 5.035l19.734-57.16h-18.049l-75.39 70.836 32.32-6.381 9.689-10.41h12.155l-20.432 41.099 4.756-3.6c.184-.139 18.596-13.986 40.938-23.463 26.658-11.31 46.572-14.54 46.77-14.57l12.235-1.935-12.358-.849c-.123-.008-12.548-.825-28.715 1.238-10.388 1.327-19.354 3.853-23.653 5.195z" fill="#231F20"/><path d="M86.332 85.726h-7.5l16.101-17.302-8.601 17.302zm-10.72 1.402H87.2l13.29-26.732-24.878 26.732z" fill="#231F20"/><path d="M75.612 87.128l24.877-26.732L87.2 87.128H75.612zm42.689-43.305h-15.527l-71.428 67.115 27.087-5.349 9.794-10.524h15.028L64.47 132.849s18.46-13.975 41.236-23.636c27.154-11.521 47.1-14.666 47.1-14.666s-12.223-.84-28.443 1.23c-14.498 1.852-25.336 5.153-25.336 5.153L118.3 43.823z" fill="#285798"/><path d="M165.528 78.707a9.63 9.63 0 0 0-1.083-.607c.136-.477.224-.993.224-1.577 0-.728-.139-1.565-.474-2.562.65-1.148.99-2.115 1.006-2.161l-.028-.013c.26-.56.392-1.095.392-1.597 0-.203-.02-.4-.064-.592-.161-.731-.61-1.324-1.3-1.714-.34-.193-.61-.509-.922-.874-.76-.89-1.99-2.325-4.64-1.278-2.88-2.151-6.918-4.555-10.618-4.617-.647-.583-1.42-1.303-2.388-2.23-1.1-1.052-2.16-1.208-2.858-1.153-1.123.087-2.16.744-3.084 1.953-.104.14-.193.275-.289.412-4.383-1.662-8.651-1.518-12.707.43-.764 0-1.943-.082-2.592-.344-1.2-.482-3.02-.939-5.35.303l-.192-.076a21.617 21.617 0 0 0-1.761-.619c-2.255-.702-4.43-.507-6.124.55-1.57.98-2.602 2.59-2.903 4.534l-.105.906c-.074.797-.13 1.426-.82 2.73-1.29 2.447-1.841 2.952-3.483 4.448l-.125.114c-1.103 1.005-1.637 1.898-1.637 2.847 0 .632.237 1.29.703 2.019.021.033.047.067.07.101-1.736-.125-2.915.339-3.511 1.391a2.518 2.518 0 0 0-.335 1.263c0 1.001.56 2.141 1.661 3.404a28.771 28.771 0 0 0-1.468 8.584c-1.515.811-2.29 1.805-2.29 2.964 0 .054 0 .108.004.162.076 1.253 1.006 2.224 2.76 2.895a29.133 29.133 0 0 0 2.676 8.066c-.704 1.009-1.062 1.924-1.062 2.736 0 .498.133.957.4 1.375.71 1.12 2.103 1.499 4.136 1.143 1.745 2.058 3.732 3.751 5.927 5.048.029 2.239.704 3.617 2.023 4.085 1.263.448 2.61-.127 4.008-1.7.28.06.561.112.843.159 2.013 1.137 5.04 2.446 8.446 2.533 1.612.042 3.037-.393 4.129-1.246.827.482 2.013 1.084 3.312 1.473.66.592 1.43 1.12 2.306 1.56 6.81 3.432 15.112-1.07 19.452-4.061 1.736-1.194 3.106-1.658 4.313-2.067 2.074-.701 3.864-1.307 5.134-4.76.343-.935.492-1.738.492-2.436 0-1.952-1.171-3.073-2.569-3.87-.318-2.19-1.326-3.52-2.729-3.52-.108 0-.209.007-.307.02a34.52 34.52 0 0 0 .68-6.503c1.676.644 3.476-1.335 4.391-3.636a9.76 9.76 0 0 0 .386-1.236 6.052 6.052 0 0 0 1.745-2.348l.033-.08c.257-.623.531-1.426.821-3.76.033-.285.05-.568.05-.85 0-2.838-1.674-5.434-2.705-6.121" fill="#285798"/><path d="M162.501 74.14c-.098.138-.198.276-.304.414-.401.524-.704.853-.971 1.143-.1.108-.19.206-.276.304.28.457.394.918.394 1.389 0 .513-.134 1.038-.33 1.578a38.795 38.795 0 0 0 1.431-.278c.317-.69.562-1.347.562-2.188 0-.646-.144-1.403-.506-2.363m-49.58 42.763c0 1.181.197 2.434.93 2.694.939.334 2.24-1.142 3.028-2.256a5.738 5.738 0 0 1-.134-.094l-.002.026-1.614 1.62-.102-.091c.314-.386 1.134-1.465 1.173-1.811a.75.75 0 0 0 .004-.134 23.385 23.385 0 0 1-2.482-2.103 1.587 1.587 0 0 0-.666.36c-.065.43-.135 1.094-.135 1.789M102.28 79.978l2.243.444.014.02c.012.015.296.387.29.801-.006.408-.658 1.627-.687 1.68l-.12-.06c.093-.218.343-.82.364-.992l.009-.058c.033-.225.082-.566-.163-.853-.226-.266-1.509-.705-1.984-.852l.035-.13zm.333 4.22c.21.01 1.162-.03 2.02-1.496.362-.624.475-1.139.475-1.536 0-.505-.179-.815-.251-.922-1.115-.38-3.944-1.069-4.552.004a.879.879 0 0 0-.113.453c0 1.13 1.64 2.818 2.421 3.496zm-2.908 12.445c.482.12 1.806.407 2.136.296.36-.12.494-.438.582-.648l.023-.052c.067-.155.054-.782.043-1.011l.137-.007c.004.057.082 1.428-.126 1.782-.208.359-.643.53-.661.537l-.025.01-2.148-.778.039-.129zm2.474 1.121c.191-.116.882-.638.882-2.118 0-.075-.002-.154-.005-.236-.078-1.631-.935-2.093-1.15-2.184-1.125.285-3.817 1.227-3.817 2.434l.001.048c.074 1.23 2.918 1.892 4.089 2.056zm4.339 11.39c.236-.296.176-.636.135-.86l-.01-.056c-.028-.168-.35-.805-.472-1.036l.12-.067c.032.053.797 1.308.815 1.715.02.414-.25.794-.263.81l-.014.02-2.227.52-.036-.13c.47-.162 1.736-.643 1.952-.916zm.662.655c.055-.097.184-.358.184-.793 0-.419-.124-.986-.558-1.692-.856-1.385-1.83-1.377-2.065-1.354-.738.692-2.268 2.394-2.268 3.52 0 .186.04.356.134.503.66 1.04 3.469.24 4.573-.184z" fill="#FFF"/><path d="M118.93 61.99l.365.315.01-.012c-.183-.143-.342-.282-.5-.419.04.043.077.081.126.116" fill="#231F20"/><path d="M148.794 99.969c.077-.278.12-.43.07-.888-.046-.435-.168-.634-.41-.664-.38-.046-.534-.032-.707.002.236.89.494 1.608.888 2.314.019-.131.035-.257.035-.256l.124-.508m2.228 3.34l.05-.498c.015-.12.028-.217.028-.325a2.1 2.1 0 0 0-.079-.521c-.102-.407-.238-.572-.47-.568-.434.008-.55.05-.758.128a4.527 4.527 0 0 1-.535.169c.44.6 1.01 1.241 1.764 2.013v-.398m2.128 1.812c0-.14-.022-.286-.097-.538-.112-.363-.242-.506-.45-.491-.393.027-.496.072-.683.154a5.23 5.23 0 0 1-.26.105 49.705 49.705 0 0 0 1.46 1.396l.018-.396c.006-.084.013-.156.013-.23m1.849 1.942c-.118-.383-.25-.428-.377-.418a1.77 1.77 0 0 0-.422.065c.315.28.588.533.883.843l.001-.022c0-.123-.017-.25-.085-.468m1.516 4.719c.323-.111.658-.3 1.006-.499.588-.332 1.194-.678 1.826-.678.716 0 1.436.188 1.739.278.155-.248.527-1.001.527-2.6 0-2.036-.611-3.404-1.18-3.404-.373 0-.518.37-.88 1.44-.14.405-.311.909-.54 1.486-.531 1.336-1.567 2.454-2.253 3.094a2.234 2.234 0 0 1-.244.883m-26.414-13.398c.248-.204.594-.274 1.03-.205l.021.004c.04-.036.078-.074.117-.116a5.65 5.65 0 0 0 .338-.436c.112-.156.227-.317.355-.46.369-.41.431-.543.553-.81l.286-.567c.14-.254.039-.51-.342-.852-.345-.31-.437-.334-.622-.383a3.035 3.035 0 0 1-.588-.212c-.191-.085-.374-.191-.553-.294-.314-.179-.567-.317-.786-.358a34.553 34.553 0 0 0-.57 3.794c.164.276.355.536.562.768.068.052.135.093.199.127m2.932 3.319l.23-.54.267-.49c.156-.268.244-.415.322-.904.074-.47 0-.711-.25-.813-.453-.182-.6-.189-.843-.199-.15-.007-.338-.015-.638-.063l-.531-.123a4.898 4.898 0 0 0-.503-.12c-.615-.097-.963.114-1.097.661a4.268 4.268 0 0 0-.006.221c0 1.245.514 2.602 1.675 3.108.187-.148.455-.243.848-.237l.295.027c.079-.143.151-.321.231-.528m1.879 3.044l.187-.5c.115-.273.177-.423.185-.894.008-.45-.093-.668-.337-.729-.451-.113-.592-.099-.823-.077-.142.013-.322.03-.613.026l-.52-.047-.488-.046c-.592-.01-.891.233-.945.763.1 1.112.654 2.31 1.663 2.788.163-.186.426-.321.849-.336l.48.017.104.005a4.67 4.67 0 0 0 .112-.429l.146-.541m1.369 3.676l.106-.504.148-.47c.09-.252.143-.392.125-.822-.013-.413-.11-.6-.336-.642-.415-.082-.536-.064-.754-.031-.13.02-.294.043-.56.053l-.48-.02-.451-.017c-.541.02-.793.248-.816.736.147 1.033.734 2.125 1.713 2.49.146-.164.38-.283.756-.297l.421.017h.017a4.12 4.12 0 0 0 .11-.493m1.708 1.312c-.013-.436-.143-.521-.28-.548-.362-.07-.466-.055-.657-.027l-.493.047-.424-.015-.392-.016c-.466.016-.682.21-.704.625.097.661.396 1.346.884 1.792.291-.976.732-1.638 1.32-1.638.322 0 .54.08.717.246a1.81 1.81 0 0 0 .03-.466m4.599-35.575c-1.521-1.013-3.582-2.344-6.436-3.03l-.503-.12c-.667.65-1.34 1.38-1.705 1.898-.62.883-.339 1.531-.153 1.96l.024.055c.037.084.148.284.292.537.337.6.912 1.623 1.44 2.822 2.073.67 4.174.963 5.758 1.086a4.548 4.548 0 0 1 1.284-5.207" fill="#FFF"/><path d="M149.598 78.549c-.163-.122-.326-.25-.5-.39.151.14.267.268.407.39h.093" fill="#656263"/><path d="M161.399 95.19c.349.14 1.503-.803 2.258-2.701.135-.337.234-.658.31-.96-.739.568-1.1.632-3.11-.426.294.843.309 1.818.322 2.634.01.645.021 1.374.22 1.454" fill="#FFF"/><path d="M110.137 107.765c0 .01 0 .019.008.019-.008 0-.008-.01-.008-.019m5.623-21.433l.03-.027c-.008.014-.012.014-.03.027" fill="#231F20"/><path d="M140.505 116.466c-.377.223-.44.276-.68.476l-.304.256-.096.076c-.748.615-1.523 1.25-2.133.754-.6-.49-1.437-3.104-.946-5.737.17-.91.282-.988.378-.988.158-.002.23.303.348.89.062.301.127.614.198.76l.196.427c.467 1.04 1.175 2.615 3.018 2.962l.173.033-.152.09zm-1.376-3.03c-.43-.82-.703-1.455-.904-1.917-.419-.968-.513-1.15-.981-1.15-.632 0-1.308 1.788-1.308 4.449 0 2.2.89 3.561 1.714 3.561 1.238 0 1.775-.652 2.249-1.226.326-.394.635-.768 1.114-.768.304 0 .586.003.837.008a7.65 7.65 0 0 1-2.721-2.958zm5.196-21.719c-1.13-.47-2.051-.97-2.867-1.472-.03-.02-.062-.038-.093-.057-.12-.074-.237-.148-.349-.22-.239.509-.665 1.63-.665 3.133 0 2.192.854 3.777 1.428 3.777.307 0 .632-.703.979-1.447.543-1.167 1.234-2.653 2.545-3.337-.26-.094-.511-.19-.754-.287l-.224-.09" fill="#FFF"/><path d="M160.664 76.35c-.036.05-.073.102-.11.158-.142.204-.405.496-.7.798.273.535.289 1.207.217 1.813.162-.023.318-.048.469-.073.388-.988.57-1.857.124-2.696m-30.324 27.148l.002.01c.018.064 1.748 6.04 5.303 9.432.05-.37.117-.723.198-1.049-.605-.492-.97-1.297-1.079-2.065l-.001-.014.001-.01a1.16 1.16 0 0 1 .07-.365c-1.062-.422-1.693-1.599-1.846-2.709l-.002-.012v-.014c.006-.141.03-.292.09-.432-1.092-.536-1.69-1.824-1.793-3.017v-.026c.018-.19.071-.395.184-.57-1.297-.62-1.825-2.2-1.751-3.576l.001-.012.004-.012c.04-.182.107-.335.193-.462a1.93 1.93 0 0 1-.185-.123l-.01-.009-.01-.01a4.897 4.897 0 0 1-.406-.516 51.663 51.663 0 0 0-.14 2.08c.335 1.198.723 2.35 1.174 3.471l.003.01m8.408-13.94c.545.664.99 1.284 1.356 1.873.16-.785.402-1.366.56-1.692a21.783 21.783 0 0 1-.31-.203 8.666 8.666 0 0 1-.638-.472c-.348.108-.67.274-.968.494" fill="#E32435"/><path d="M130.835 93.814c.174.1.351.201.53.282.269.124.42.164.543.196.231.06.36.105.74.445.191.173.703.636.396 1.19l-.273.549c-.133.283-.204.44-.602.881a5.08 5.08 0 0 0-.338.436c-.112.155-.228.316-.355.459h-.001l.19.051.501.118c.285.045.465.053.607.06.265.012.44.02.936.22.559.225.456.868.417 1.11-.085.541-.192.725-.355 1.001l-.26.474-.218.517c-.059.151-.12.308-.193.455l.418.038c.276.005.444-.011.582-.025.252-.024.42-.04.916.085.561.14.551.765.546 1.002-.008.523-.086.71-.205.996 0 0-.18.48-.182.48l-.137.517c-.028.125-.06.253-.096.376l.06.003c.252-.008.401-.03.53-.05.231-.035.385-.057.846.032.533.104.552.685.561.905.018.482-.045.658-.14.925l-.143.45-.101.48c-.03.151-.057.308-.1.455l.095.003.463-.042c.205-.031.341-.051.75.029.48.093.499.613.505.809.013.373-.029.54-.095.735.141.222.27.517.433.893.198.458.47 1.083.89 1.89a7.258 7.258 0 0 0 1.238 1.708c1.765.307 6.676.115 8.193-.169 1.28-.238 5.974-2.114 6.734-2.63.357-.243.602-.656.67-1.134.076-.526-.022-1.382-.925-2.475-.666-.807-1.098-1.186-1.75-1.762-.606-.535-1.44-1.268-2.832-2.684-2.979-3.03-3.223-4.191-4.031-8.044l-.405-1.89a7.002 7.002 0 0 0-.675-1.796c-1.34.571-2.039 2.074-2.58 3.238-.286.617-.534 1.148-.831 1.442.606 2.063.614 3.018 1.9 5.444-.84-.747-1.284-2.257-1.845-4.17-.098-.327-.201-.693-.321-1.086a.625.625 0 0 1-.257.057c-.964 0-1.843-1.998-1.843-4.192 0-.366.024-.71.065-1.03-.823-1.501-1.902-2.923-3.348-3.963-1.288-.697-2.88-1.015-4.21-.915-.62.933-1.072 2.048-1.788 3.901a16.913 16.913 0 0 0-.686 2.329c.285.057.578.225.866.39m13.631-18.301c-.5-.39-.962-.747-1.323-.984l-.19-.126a4.131 4.131 0 0 0-1.18 4.999c.402.024.762.038 1.067.046.166.003.325.003.48 0a3.648 3.648 0 0 1 1.146-3.935" fill="#E32435"/><path d="M116.61 117.15c-.095-.065-.182-.131-.271-.196l-.135-.098a.75.75 0 0 1-.004.134c-.04.346-.86 1.425-1.173 1.81l.102.092 1.614-1.62.002-.026a4.83 4.83 0 0 1-.136-.096m-12.072-36.708l-.014-.02-2.242-.444-.035.13c.475.147 1.758.586 1.984.852.245.287.196.628.163.853l-.009.058c-.021.171-.271.774-.364.991l.12.06c.03-.052.681-1.271.687-1.679.006-.414-.278-.786-.29-.8m-1.911 14.777l-.137.008c.01.229.024.856-.043 1.011l-.023.052c-.088.21-.222.527-.582.648-.33.111-1.654-.176-2.136-.296l-.04.13 2.15.776.024-.009c.018-.007.453-.178.661-.537.208-.354.13-1.725.126-1.782m4.48 13.629c-.018-.407-.783-1.662-.816-1.715l-.119.067c.122.23.444.868.472 1.036l.01.056c.04.224.1.564-.135.86-.216.273-1.482.754-1.952.917l.036.13 2.227-.52.014-.02c.012-.017.283-.397.263-.81m56.221.935c-.144-.326-.66-.622-1.317-.893-.004.075-.01.147-.017.218-.1 1.14-.4 1.75-.562 2.007a.986.986 0 0 1-.11.149l-.09.098-.018-.006a.705.705 0 0 1-.213.282c-.315.283-1.621.801-2.883 1.303-.76.3-1.546.614-2.125.879-.908.414-2.493 1.36-3.13 1.749-2.071 1.255-2.05 1.308-2.019 1.395l.033.09.1-.026c.083-.024.31-.126.758-.33.802-.366 2.297-1.044 4.69-2.042 2.453-1.024 3.296-1.328 3.91-1.551l.922-.349c1.136-.462 1.973-1.158 2.206-1.504.26-.383.14-.846-.135-1.47zm-8.152-3.507c.464.346 1.1.82 1.298 1.042.22.242.897.765 1.648 1.32a8.17 8.17 0 0 0 .427-.799 4.74 4.74 0 0 0 .08-.19 31.075 31.075 0 0 1-3.324-1.703c-.704-.413-.732-.415-.795-.319-.068.103-.068.103.666.65zm-19.654 8.539v-.046c.002-.12.003-.239.007-.36a22.487 22.487 0 0 0-2.37-2.873c-.305-.315-1.425-2.324-1.953-3.448-.51-1.085-1.57-3.994-1.58-4.024l-.198.052c.001.014.219 1.385.387 2.25.161.826 1.469 3.505 2.17 4.942l.145.3c.464.952 2.495 3.902 3.795 5.605a4.864 4.864 0 0 1-.194-.608 7.226 7.226 0 0 1-.209-1.79zm25.489-46.966c-.21-.48-.875-.758-1.219-.613a.37.37 0 0 0-.23.364c0 .088.02.197.075.329.303.75.463 1.798.463 2.522 0 .147-.007.281-.02.397-.078.66-.583 2.646-1.318 3.788-.105.137-.208.27-.323.415-.05.064-.089.111-.113.147l-.001.002c-.027.04-.04.066-.04.087 0 .025.015.043.045.067.053.043.074.055.151-.024l.004-.004c.04-.04.09-.1.167-.19.094-.11.183-.238.273-.373 1.18-1.515 1.816-2.492 1.929-2.966.243-1.03.366-1.927.366-2.647 0-.541-.068-.982-.21-1.3m-19.851 25.834c.187 1.216.4 1.609.501 1.798l.035.065c.19.39.258.422.26.427.037-.033.05-.276.062-.455l.033-.434c.205-1.5.721-2.598 1.453-3.095.252-.17.529-.258.823-.276-1.13-.47-2.051-.97-2.867-1.472-.263.83-.491 2.191-.3 3.442m3.848-22.055c-.306-.353-7.527-8.624-12.279-8.624-3.172 0-5.91 3.153-5.956 3.206l-.002.003.154.135c.022-.022 2.015-2.182 5.834-2.182 4.902 0 12.022 7.523 12.096 7.6l3.505 3.733-3.352-3.871m7.559-7.248c-.103-.053-2.528-1.318-4.558-1.318-.696 0-1.154.089-1.64.182a9.783 9.783 0 0 1-2.12.218c-1.917 0-3.086-.478-4.44-1.033-1.637-.67-3.495-1.43-7.136-1.43v.044a.52.52 0 0 0-.036-.007l-.039.202c.03.006 3.148.597 5.964 1.491 1.147.364 2.138.866 3.098 1.351 1.37.694 2.665 1.348 4.055 1.348 1.53 0 1.817-.7 2.006-1.166.114-.275.177-.408.368-.408 2.485 0 4.375.707 4.393.715l1.576.598-1.49-.787m-34.839-1.949c-.063-.034-1.583-.86-3.599-.86-1.99 0-4.394 1.96-4.394 4.394 0 2.221-1.663 4.846-1.68 4.87l-.966 1.513 1.134-1.391c.096-.12 2.354-2.913 2.354-4.992 0-1.953 2.985-3.712 3.658-3.712.675 0 3.402.367 3.43.37l.544.073-.481-.265m22.757 53.907c-1.843-.347-2.55-1.921-3.018-2.962l-.196-.427c-.071-.146-.136-.459-.198-.76-.119-.587-.19-.892-.348-.89-.096 0-.207.078-.378.988-.491 2.633.345 5.248.946 5.737.61.496 1.385-.14 2.133-.754l.096-.076.304-.256c.24-.2.303-.253.68-.476l.152-.09-.173-.034" fill="#DEDDDE"/><path d="M142.904 59.385c-.633.05-1.27.489-1.893 1.306a8.882 8.882 0 0 0-.738 1.116c.31.144.58.277.81.391.295.145.548.271.642.29 2.393.528 3.762.229 4.668.03l.136-.03c.15-.031.302-.056.455-.076a99.896 99.896 0 0 1-2.496-2.329c-.529-.504-1.062-.739-1.584-.698" fill="#C8C7C7"/><path d="M108.055 70.84c.016-.025 1.68-2.65 1.68-4.871 0-2.434 2.403-4.394 4.393-4.394 2.016 0 3.536.826 3.599.86l.48.265-.543-.073c-.028-.003-2.755-.37-3.43-.37-.673 0-3.658 1.759-3.658 3.712 0 2.08-2.258 4.873-2.354 4.992l-1.134 1.39.967-1.511zm24.58-9.8a.52.52 0 0 1 .036.007v-.044c3.64 0 5.5.76 7.136 1.43 1.354.555 2.523 1.033 4.44 1.033a9.7 9.7 0 0 0 2.12-.218c.486-.093.944-.182 1.64-.182 2.03 0 4.455 1.265 4.558 1.318l1.49.787-1.575-.598c-.018-.008-1.908-.715-4.393-.715-.19 0-.254.133-.368.408-.19.465-.476 1.166-2.006 1.166-1.39 0-2.684-.654-4.055-1.348-.96-.485-1.951-.987-3.098-1.35-2.816-.895-5.933-1.486-5.964-1.492l.039-.202zm-17.137 24.947c2.307-3.205 7.485-6.571 7.705-6.713 4.843-3.14 9.008-2.192 11.72-1.206l.09.031c-.038-.077-.072-.155-.109-.23l-.151-.155c-.708-.732-1.51-1.561-2.574-2.421a2.133 2.133 0 0 1-.807-1.547c-.073-.951.377-2.145 1.223-3.326-.764-.076-1.492-.067-2.692-.04-2.571.056-3.077-.058-4.327-.4-.639-.079-1.105-.268-1.317-.622-.254-.425-.111-.99.435-1.725 2.378-3.195 4.685-4.923 7.048-5.289 2.028-.312 4.135.355 6.628 2.101 2.76 1.933 5.04 4.352 7.094 6.677a17.464 17.464 0 0 0 2.617 2.396c1.7.68 3.377 1.205 4.96 1.366 2.125.215 3.893-.225 5.398-1.368.783-1.38 1.087-3.105.777-4.583a2.682 2.682 0 0 0-.402-.94l-.755-.625-.164-.122c-4.488-3.407-8.494-4.952-11.277-4.353l-.135.03c-.884.194-2.365.518-4.847-.03-.142-.031-.366-.14-.735-.323-2.02-.995-7.383-3.64-13.777-.414l-.04.02-.045.003c-.09.003-2.223.078-3.555-.456-1.052-.424-2.363-.702-4.157.337.627.284 1.701.769 2.003.87 0 0-1.596-.388-2.398-.626h-.002l-.093-.03a.27.27 0 0 1-.032-.01l-.096-.03c-.303-.102-.525-.19-.756-.282-.369-.145-.785-.31-1.647-.578-1.813-.564-3.456-.435-4.752.374-1.156.721-1.916 1.922-2.143 3.381l-.092.804c-.082.903-.161 1.755-1.003 3.352-1.425 2.703-2.13 3.346-3.835 4.9l-.123.113c-.81.738-1.103 1.22-1.103 1.662 0 .353.189.678.45 1.086.232.366 1.258 1.576 4.68 1.839h.01l.164.03.003-.02c.013.003 1.26.217 3.412-.532l1.946-.645c1.314-.424 2.354-.76 2.868-1.112.724-.497 2.059-3.015 2.059-5.293 0-2.456.426-3.626.8-4.37 0 0-.545 1.695-.515 4.445.026 2.33-1.246 4.936-2.122 5.538-.563.386-1.625.73-2.97 1.163l-1.938.642c-1.775.617-2.953.61-3.403.572l-.308.556c-1.19 2.13-1.83 4.164-2.276 7.256-.256 1.788-.362 3.293-.362 4.565 0 2.818.516 4.493 1.025 5.563.064-.501.146-1.019.247-1.554 1.259-6.685 7.8-9.436 8.473-9.702z" fill="#C8C7C7"/><path d="M126.771 66.214c.046-.053 2.784-3.206 5.956-3.206 4.752 0 11.973 8.27 12.279 8.624l3.352 3.87-3.505-3.732c-.074-.077-7.194-7.6-12.096-7.6-3.819 0-5.812 2.16-5.834 2.182l-.154-.135.002-.003zm33.308 4.637c.013-.116.02-.25.02-.397 0-.724-.16-1.772-.463-2.522a.863.863 0 0 1-.075-.329.37.37 0 0 1 .23-.364c.344-.145 1.008.133 1.218.613.142.32.21.76.21 1.3 0 .721-.123 1.618-.366 2.648-.113.474-.749 1.45-1.929 2.966-.09.135-.18.264-.273.373-.077.09-.128.15-.167.19l-.004.004c-.077.079-.098.067-.151.024-.03-.024-.045-.042-.045-.067 0-.021.013-.048.04-.087V75.2c.025-.036.063-.083.114-.147.115-.145.218-.278.323-.415.735-1.142 1.24-3.128 1.318-3.788zm-8.435 7.828a16.159 16.159 0 0 1 3.27-.217 18.77 18.77 0 0 1 2.83.29c.703-.576 1.357-1.343 1.962-2.3 1.356-2.144 1.788-2.604 2.337-3.186.209-.223.425-.452.718-.802.825-.98 1.235-1.881 1.128-2.474-.053-.283-.217-.5-.504-.662-.595-.337-1.005-.819-1.369-1.242-.752-.882-1.313-1.52-3.114-.658.23.259.576.737.719 1.419.089.425.133.864.133 1.308a7.23 7.23 0 0 1-1.404 4.259c-.906 1.214-2.13 1.941-3.448 2.047-3.891.315-7.96-3.036-9.751-5.065-2.033-2.306-4.294-4.703-7.019-6.611-3.687-2.582-7.83-3.994-13.104 3.096-.296.397-.608.94-.413 1.264.5.834 3.8.344 5.574.082.539-.08 1.003-.15 1.348-.183l.14-.014c2.073-.203 4.915-.481 7.285.704 2.635 1.319 4.898 3.234 6.035 4.475l.07.077c.823.898 2.647 2.89 4.857 4.278.54.018 1.121.058 1.72.115zm-19.079 36.215s-.106 1.084-.084 1.42c.06.963.422 2.439 2.373 4.57l.004.002.04.037c.607.593 1.323 1.094 2.189 1.53 6.047 3.049 13.728-1.162 17.766-3.944 1.927-1.328 3.477-1.852 4.722-2.273 1.942-.656 3.113-1.053 4.109-3.763.273-.747.404-1.36.404-1.875 0-1.243-.756-1.925-2.063-2.594a9.098 9.098 0 0 1-.015.89c.657.27 1.173.566 1.317.892.275.623.395 1.086.135 1.47-.233.345-1.07 1.041-2.206 1.503l-.921.349c-.615.223-1.458.527-3.91 1.551a146.644 146.644 0 0 0-4.691 2.042c-.448.204-.675.306-.757.33l-.101.026-.033-.09c-.032-.087-.052-.14 2.019-1.395.637-.39 2.222-1.335 3.13-1.75a49.745 49.745 0 0 1 2.125-.878c1.262-.502 2.568-1.02 2.883-1.303a.705.705 0 0 0 .213-.282l-.11-.037c-.008-.003-.91-.303-1.755-.303-.524 0-1.08.318-1.621.625-.516.293-1.045.59-1.581.643a1.88 1.88 0 0 1-.252.209c-.811.55-5.55 2.446-6.89 2.695-1.342.25-5.531.472-7.753.244.745.63 1.393.924 1.54.987 1.194.164 3.638.156 3.638.156-1.543.231-2.778.373-3.69.256v.001c-.008 0-.782-.036-1.726-.036-.27 0-.478.235-.793.618-.48.58-1.137 1.377-2.57 1.377-.644 0-1.311-.542-1.726-1.578-1.3-1.703-3.331-4.653-3.795-5.606l-.145-.299c-.701-1.437-2.009-4.116-2.17-4.942a79.652 79.652 0 0 1-.387-2.25l.198-.052c.01.03 1.07 2.94 1.58 4.024.528 1.124 1.648 3.133 1.953 3.448a22.487 22.487 0 0 1 2.37 2.873 15 15 0 0 1 .057-.96c-3.755-3.398-5.585-9.634-5.64-9.823a35.088 35.088 0 0 1-.821-2.29 49.497 49.497 0 0 0-.003 1c.054 4.109.627 7.433 1.757 10.168.528 1.276.79 2.482.79 3.57 0 1.116-.278 2.107-.833 2.917a.384.384 0 0 1-.016.02c.891.59 2.073 1.216 3.242 1.626-2.638-3.016-1.547-5.63-1.496-5.746" fill="#C8C7C7"/><path d="M150.266 101.134c.08-.007.17-.011.28-.014.548-.01.689.563.744.778.118.476.093.664.057.95l-.05.477.002.499.003.168c.049.05.095.096.142.141.163-.054.27-.1.365-.14.201-.089.334-.146.775-.177.51-.036.672.488.732.685.133.433.117.608.097.873l-.02.438.011.192c.193.175.367.327.527.467.011.012.023.022.034.032.157-.065.284-.11.64-.135.463-.032.605.437.66.615.116.382.103.536.085.77l-.004.084c.12.134.243.28.378.443.662.801.932 1.502 1.012 2.062a9.924 9.924 0 0 0 1.385-1.702c-.75-.554-1.428-1.077-1.648-1.32-.197-.22-.834-.695-1.298-1.04-.734-.547-.734-.547-.666-.65.063-.096.091-.094.795.319a31.075 31.075 0 0 0 3.324 1.703c.146-.37.27-.708.375-1.01a31.236 31.236 0 0 1-2.29-1.145c-4.213-2.35-5.27-5.858-5.27-9.555 0-1.092.092-2.2.222-3.3-.546.34-1.107.537-1.965.51-.746 3.31-.558 5.98.566 7.982" fill="#C8C7C7"/><path d="M135.283 80c2.283.738 7.252.593 6.777.593-.475 0-4.036-.474-5.748-1.108-1.712-.634-3.928-1.7-7.067-1.385-3.138.318-4.246 1.438-5.788 2.23-1.005.515-3.36 2.498-4.47 3.423 3.494-2.08 5.168-2.87 8.728-3.753 3.666-.91 5.287-.739 7.568 0m-8.026 21.558c0 10.378 1.261 10.95 1.261 14.964 0 4.013-6.077 2.58-6.077 2.58s1.834.86 4.301.86c.286 0 3.954.058 3.954-3.555 0-4.185-2.407-4.758-2.407-14.85 0-8.612 2.048-12.546 2.646-13.514-.732 1.141-3.678 6.185-3.678 13.515m31.243-3.244s-.697 3.725-1.58 5.94a7.281 7.281 0 0 1-.322.697 18.688 18.688 0 0 0 .77.43 34.636 34.636 0 0 0 1.462-8.219c.31-5.798-.33 1.152-.33 1.152m-24.753-22.651a8.038 8.038 0 0 1-.31-.576l-.025-.054c-.196-.45-.559-1.29.194-2.363.347-.494.948-1.155 1.568-1.771-1.018-.237-1.71-.375-2.338-.452a7.05 7.05 0 0 0-.24-.027c-.847 1.18-1.297 2.375-1.224 3.326.05.633.32 1.153.807 1.547 1.064.86 1.866 1.69 2.574 2.42l.151.156a28.489 28.489 0 0 0-.29-.595c-.336-.667-.653-1.227-.867-1.61M149.7 93.151c-.068 0-.136-.005-.208-.009-.793-.055-1.83-.285-3.298-.748.266.534.471 1.1.599 1.681l.404 1.894c.179.846.328 1.557.483 2.182.197-.042.375-.061.806-.008.566.069.63.68.654.91.053.508 0 .7-.08.99l-.119.488-.072.518-.007.066c.07.11.14.22.218.33l.1-.016c.248-.062.395-.118.516-.162.117-.044.214-.08.349-.105.064-.012.135-.021.221-.028-1.124-2.003-1.312-4.672-.566-7.983" fill="#918F90"/><path d="M157.561 88.717c-.03-.273-.102-.91-.36-1.5l.19-.083c.168.387.26.79.313 1.105.081-.385.178-.882.194-1.155l.205.011c-.021.363-.169 1.056-.258 1.47l-.053.267c-.017.1-.09.105-.112.104-.095-.002-.102-.07-.119-.22zm-8.841.746c-.096 0-.173-.067-.173-.15 0-.082.077-.149.173-.149.094 0 .172.067.172.15 0 .082-.078.15-.172.15zm-.713-4.873c-.094 0-.172-.067-.172-.149 0-.082.078-.15.172-.15.095 0 .173.068.173.15 0 .082-.078.149-.173.149zm-29.337-.648l.316-.189c1.111-.925 3.466-2.908 4.47-3.424 1.543-.791 2.65-1.91 5.789-2.229 3.139-.316 5.355.751 7.067 1.385 1.712.634 5.273 1.108 5.748 1.108.475 0-4.494.145-6.777-.593-2.28-.739-3.902-.91-7.568 0-3.56.883-5.234 1.673-8.729 3.753l-.316.19zm12.265 4.101c-.598.968-2.646 4.902-2.646 13.515 0 10.09 2.407 10.664 2.407 14.849 0 3.613-3.668 3.556-3.954 3.556-2.467 0-4.3-.861-4.3-.861s6.076 1.433 6.076-2.58c0-4.014-1.261-4.586-1.261-14.964 0-7.33 2.946-12.374 3.678-13.515.103-.167.164-.246.164-.246s-.06.083-.164.246zm13.92-2.637c.095 0 .17.066.17.15 0 .08-.075.148-.17.148-.096 0-.174-.067-.174-.148 0-.084.078-.15.173-.15zm-1.365 1.897c.096 0 .173.066.173.15 0 .082-.077.148-.173.148-.096 0-.171-.066-.171-.149 0-.083.075-.15.17-.15zm2.604.362c0 .082-.077.15-.173.15-.094 0-.172-.068-.172-.15 0-.081.078-.148.172-.148.096 0 .173.067.173.148zm.723-.924c0 .081-.08.148-.173.148-.094 0-.173-.067-.173-.148 0-.083.079-.15.173-.15.094 0 .173.067.173.15zm.356-1.293c0 .083-.079.15-.173.15-.095 0-.172-.067-.172-.15 0-.082.077-.15.172-.15.094 0 .173.068.173.15zm1.364 1.363c0 .082-.078.15-.174.15-.095 0-.173-.068-.173-.15 0-.082.078-.15.173-.15.096 0 .174.068.174.15zm16.543-1.142a.149.149 0 1 1 0 .298.15.15 0 0 1-.15-.15.15.15 0 0 1 .15-.148zm.611 1.38c.094 0 .172.068.172.15 0 .082-.078.149-.172.149-.095 0-.173-.067-.173-.15 0-.081.078-.149.173-.149zm.205-2.466c.093 0 .172.067.172.15 0 .081-.08.148-.172.148-.096 0-.173-.067-.173-.149 0-.082.077-.15.173-.15zm-3.963-4.194c.564.427.85.818.968 1.014l.005.008-.001.009c-.186 1.142-1.497 2.012-1.51 2.02l-.024.017-.012-.027c-.184-.447-.836-1.007-1.199-.937-.126.025-.213.085-.26.175-.08.159-.036.427.12.757.088.183.22.461.205.816-.719 1.724-2.604 2.508-2.623 2.515l-.017.007-.012-.013c-1.416-1.792-3.664-2.107-3.687-2.11l-.034-.005.015-.03c.493-.982.586-1.643.277-1.969-.613-.64-2.61.236-2.629.244l-.013.006-.01-.007c-1.588-.972-2.945-1.51-4.272-1.69a.104.104 0 0 1-.094-.09c-.043-.249.526-.997 1.208-1.353.427-.222 1.07-.506 1.925-.752-1.143-.058-2.12-.035-2.638.088l-.772.201c-1.077.291-2.298.62-4.017.578-1.68-.04-4.956-.278-8.05-1.403-2.629-.956-6.666-1.876-11.352 1.163-.053.034-4.97 3.23-7.347 6.279-.01.014-.017.03-.029.046-.1.129-.196.257-.29.383l-.004.003c-2.292 3.072-3.273 5.455-3.273 5.455s.52-2.35 2.544-5.14c-1.78.846-6.56 3.601-7.598 9.118-.276 1.465-.415 2.799-.415 4.011 0 2.709.693 4.825 2.105 6.511.45.538.761.81.956.946-.406-4.51.855-7.202.855-7.202-.108.285-.964 2.756-.435 7.346h.008l.023.194c.066.574.066.585.599 2.538.36 1.326 1.698 4.041 6.584 7.301 1.337.893 4.881 2.977 8.924 3.081 1.689.043 3.058-.572 3.857-1.732 1.013-1.477 1.015-3.642 0-6.093-1.15-2.784-1.735-6.16-1.786-10.32-.035-2.646.257-8.024 1.562-11.401 1.097-2.846 1.584-3.99 2.987-5.374-2.984.489-4.705 2.383-4.705 2.383 1.273-1.719 2.768-2.378 4.258-2.7-4.443-.594-8.017 4.643-8.017 4.643 1.636-2.473 3.356-4.07 5.116-4.745 1.272-.489 2.583-.51 4.009-.067l-.002.003.004.001c.452.136 1.127.376 1.441.497 1.88.728 2.893 1.637 3.786 2.44.465.417.906.812 1.437 1.165 1.446.96 3.075 1.968 5.708 2.8 3.529 1.113 4.392.871 5.52.053 1.139-.825 5.254-2.688 5.722-2.72.533-.035 1.548.34 2.86 1.058 2.576 1.408 2.707 1.304 3.437.728l.52-.39c.774-.53 1.267-1.391 1.438-1.817l.04-.097c.157-.384.422-1.024.707-3.332a5.05 5.05 0 0 0 .038-.634c0-2.261-1.404-4.378-1.966-4.754-.698-.463-1.789-.9-2.04-.999-.23.051-1.117.24-2.24.412.8.333 1.318.672 1.605.89z" fill="#7B7979"/><path d="M153.968 93.358c-1.13 2.192-1.232 4.095-1.268 6.97l-.004.29c.698 1.655 1.907 3.143 3.902 4.333.12-.232.231-.464.323-.698.882-2.214 1.578-5.94 1.578-5.94s.64-6.95.331-1.15a34.636 34.636 0 0 1-1.462 8.218c.149.08.295.155.44.229.67-2.096 1.096-4.387 1.268-6.863.256-3.7-.127-6.921-.432-8.743a4.514 4.514 0 0 0-.784-.238c-1.773.816-2.897 1.663-3.892 3.592" fill="#7B7979"/><path d="M157.566 89.738c-.05.006-.178.049-.36.117-1.056.402-4.007 1.73-5.086 2.48-.331 2.652-.469 5.366.378 7.768.06.174.127.346.198.515l.004-.29c.036-2.875.139-4.778 1.268-6.97.995-1.929 2.12-2.776 3.892-3.592a1.256 1.256 0 0 0-.294-.028m-4.525-14.854c-1.583-.161-3.26-.685-4.96-1.366.226.167.454.33.687.487 1.935 1.3 4.14 2.201 6.102 2.042 1.196-.096 2.314-.764 3.148-1.881.055-.072.105-.147.154-.221.096-.138.183-.281.267-.429-1.505 1.143-3.273 1.583-5.398 1.368m-4.596 3.152c-1.678-1.28-3.01-2.734-3.685-3.471l-.069-.076c-1.112-1.215-3.33-3.091-5.914-4.384-2.264-1.132-5.036-.86-7.06-.662l-.142.014a28.5 28.5 0 0 0-1.325.18c-1.331.197-2.61.366-3.65.386a7.249 7.249 0 0 1-1.024-.043c1.25.342 1.756.456 4.327.4 1.2-.027 1.928-.036 2.692.04l.24.027c.63.077 1.32.215 2.339.452a75.267 75.267 0 0 1 .98.232c2.854.685 4.915 2.016 6.437 3.03l.167.11.194.131.191.126c.36.237.823.594 1.323.984l.167.13.108.086c1.206.945 2.633 2.065 3.78 2.566.19.083.37.15.544.195a17.842 17.842 0 0 1-.62-.453m15.521-6.606a7.067 7.067 0 0 1-.74 1.122c-.051.063-.1.124-.147.179-.3.359-.532.603-.734.82-.535.565-.955 1.012-2.289 3.123a10.642 10.642 0 0 1-1.282 1.675c.252-.232.6-.56.928-.89l.152-.153c.295-.302.558-.594.7-.798.037-.056.074-.108.11-.158a5.16 5.16 0 0 1 .286-.349c.086-.098.176-.196.276-.304.267-.29.57-.619.971-1.143a12.523 12.523 0 0 0 .583-.832c.769-1.197 1.186-2.292 1.186-2.292" fill="#656263"/><path d="M166.536 85.474c-.285 2.308-.55 2.948-.708 3.332l-.039.097c-.17.426-.664 1.288-1.437 1.817l-.52.39c-.731.576-.862.68-3.439-.728-1.31-.718-2.326-1.093-2.859-1.057-.468.03-4.583 1.894-5.722 2.72-1.128.817-1.991 1.059-5.52-.055-2.633-.831-4.262-1.838-5.708-2.799-.531-.353-.972-.748-1.437-1.166-.893-.802-1.906-1.71-3.786-2.439a24.699 24.699 0 0 0-1.44-.497l-.005-.001.002-.003c-1.426-.443-2.737-.422-4.009.067-1.76.676-3.48 2.272-5.116 4.745 0 0 3.574-5.237 8.017-4.642-1.49.32-2.985.98-4.258 2.7 0 0 1.721-1.895 4.705-2.384-1.403 1.384-1.89 2.528-2.987 5.374-1.305 3.377-1.597 8.755-1.562 11.4.05 4.161.636 7.537 1.787 10.32 1.014 2.452 1.012 4.617-.001 6.094-.799 1.16-2.168 1.775-3.857 1.732-4.043-.104-7.587-2.188-8.924-3.081-4.886-3.26-6.223-5.975-6.584-7.301-.533-1.953-.533-1.964-.6-2.538l-.022-.193-.008-.001c-.53-4.59.327-7.061.435-7.346 0 0-1.26 2.692-.855 7.202-.195-.137-.507-.408-.956-.946-1.412-1.686-2.105-3.802-2.105-6.51 0-1.213.139-2.547.415-4.012 1.037-5.517 5.818-8.272 7.598-9.119-2.024 2.792-2.544 5.141-2.544 5.141s.981-2.383 3.273-5.455l.003-.003c.095-.126.19-.254.291-.383.012-.016.019-.032.03-.046 2.376-3.048 7.293-6.245 7.346-6.28 4.686-3.038 8.723-2.118 11.352-1.162 3.094 1.125 6.37 1.362 8.05 1.403 1.72.042 2.94-.287 4.017-.578l.772-.2c.518-.124 1.495-.147 2.638-.089-.854.246-1.498.53-1.925.752-.682.356-1.251 1.104-1.208 1.353.01.05.043.082.094.09 1.327.18 2.684.718 4.272 1.69l.01.007.013-.006c.02-.008 2.016-.885 2.629-.244.309.326.216.987-.277 1.969l-.015.03.034.005c.023.003 2.271.318 3.687 2.11l.012.013.017-.007c.019-.007 1.904-.79 2.623-2.515.016-.355-.117-.633-.205-.816-.156-.33-.2-.598-.12-.757.047-.09.134-.15.26-.175.363-.07 1.015.49 1.2.937l.01.027.025-.017c.013-.008 1.324-.878 1.51-2.02l.001-.009-.005-.008c-.119-.196-.404-.587-.968-1.014-.287-.218-.805-.557-1.605-.89a37.04 37.04 0 0 0 2.24-.412c.251.099 1.342.536 2.04 1 .562.375 1.966 2.492 1.966 4.753 0 .21-.011.423-.038.634zm-2.879 7.015c-.755 1.898-1.91 2.84-2.258 2.702-.199-.08-.21-.81-.22-1.454-.013-.816-.028-1.791-.321-2.634 2.01 1.058 2.37.994 3.11.426a7.532 7.532 0 0 1-.311.96zm-4.581 6.258c-.172 2.476-.598 4.767-1.268 6.863a27.504 27.504 0 0 1-.893-.476 8.76 8.76 0 0 1-.317-.183c-1.995-1.19-3.204-2.678-3.902-4.333a9.098 9.098 0 0 1-.198-.515c-.847-2.402-.71-5.116-.378-7.769 1.079-.75 4.03-2.077 5.086-2.479.182-.068.31-.11.36-.117a1.23 1.23 0 0 1 .294.028c.175.032.428.1.784.238.305 1.822.688 5.043.432 8.743zm-.073 7.895c-.105.302-.229.64-.375 1.01a5.816 5.816 0 0 1-.401.81 8.17 8.17 0 0 1-.106.178 9.924 9.924 0 0 1-1.385 1.702c-.08-.56-.35-1.26-1.012-2.062a14.986 14.986 0 0 0-.378-.443l.004-.084c.018-.234.03-.388-.085-.77-.055-.178-.197-.647-.66-.615-.356.025-.483.07-.64.135-.011-.01-.023-.02-.034-.032a37.08 37.08 0 0 1-.527-.467l-.01-.192.019-.438c.02-.265.036-.44-.097-.873-.06-.197-.221-.72-.732-.685-.441.03-.574.088-.775.176-.094.04-.202.087-.365.141l-.142-.14c0-.057-.002-.113-.003-.17l-.002-.498.05-.477c.036-.286.061-.474-.057-.95-.055-.215-.196-.787-.745-.778-.11.003-.198.007-.279.014a2.231 2.231 0 0 0-.221.028 1.942 1.942 0 0 0-.349.105c-.12.044-.268.1-.517.162l-.099.017a7.666 7.666 0 0 1-.218-.33l.007-.067.072-.518.119-.488c.08-.29.133-.482.08-.99-.024-.23-.088-.841-.654-.91-.43-.053-.609-.034-.806.008-.155-.625-.304-1.336-.483-2.182l-.404-1.894a7.255 7.255 0 0 0-.599-1.68c1.468.462 2.505.692 3.298.747.072.004.14.008.208.01.858.027 1.42-.17 1.965-.51-.13 1.1-.223 2.208-.223 3.3 0 3.697 1.058 7.204 5.27 9.555.803.447 1.57.818 2.291 1.145zm.55-.323c.363-1.07.508-1.44.881-1.44.569 0 1.18 1.368 1.18 3.405 0 1.598-.372 2.351-.527 2.6-.303-.09-1.023-.28-1.739-.28-.632 0-1.238.347-1.826.68-.348.198-.683.387-1.006.498a2.234 2.234 0 0 0 .245-.883c.686-.64 1.722-1.758 2.254-3.094.228-.577.4-1.08.538-1.486zm-29.844-7.865l.01.01.01.008c.062.046.123.087.185.123a1.34 1.34 0 0 0-.193.462l-.004.012-.001.012c-.074 1.376.454 2.956 1.751 3.576-.113.175-.166.38-.184.57v.026c.103 1.193.701 2.481 1.793 3.017-.06.14-.084.291-.09.432v.014l.002.012c.153 1.11.784 2.287 1.846 2.709a1.16 1.16 0 0 0-.07.364l-.001.01.001.015c.108.768.474 1.573 1.08 2.065a9.906 9.906 0 0 0-.2 1.05c-3.554-3.393-5.284-9.37-5.302-9.432l-.002-.011-.003-.01a33.338 33.338 0 0 1-1.174-3.471c.031-.653.076-1.354.14-2.08.124.183.263.355.406.517zm.99-4.4c.178.102.361.208.552.293.29.135.46.18.588.212.185.049.277.072.622.383.381.343.483.598.342.852l-.286.567c-.122.267-.184.4-.553.81-.128.143-.243.304-.355.46a5.91 5.91 0 0 1-.338.436c-.04.042-.077.08-.117.116-.006 0-.014-.003-.021-.004-.436-.069-.782.001-1.03.205a1.446 1.446 0 0 1-.199-.127 4.84 4.84 0 0 1-.561-.768c.123-1.26.307-2.568.569-3.794.219.04.472.18.786.358zm6.545 16.316c.468 0 .562.181.981 1.149.201.462.475 1.097.904 1.916a7.65 7.65 0 0 0 2.721 2.958c-.25-.005-.533-.008-.837-.008-.479 0-.788.374-1.114.768-.474.574-1.01 1.226-2.25 1.226-.823 0-1.713-1.362-1.713-3.561 0-2.661.676-4.448 1.308-4.448zm-1.5-1.194l.392.016.424.015.493-.047c.19-.028.295-.043.656.027.138.027.268.112.282.548a1.81 1.81 0 0 1-.03.466c-.178-.166-.395-.246-.717-.246-.588 0-1.029.662-1.32 1.638-.488-.446-.787-1.13-.884-1.792.022-.415.238-.609.704-.625zm-1.663-3.206l.45.018.481.019c.266-.01.43-.034.56-.053.218-.033.339-.05.754.031.226.042.323.23.336.642.018.43-.034.57-.125.822l-.148.47-.106.504a4.12 4.12 0 0 1-.111.494l-.017-.001-.421-.017c-.376.014-.61.133-.756.298-.979-.366-1.566-1.458-1.713-2.491.023-.488.275-.716.816-.736zm-4.095-6.637c0-.073.002-.147.006-.22.134-.548.482-.759 1.097-.662.163.026.336.073.503.12l.53.123c.301.048.488.056.639.063.244.01.39.017.843.2.25.1.324.343.25.812-.078.489-.166.636-.322.904l-.267.49-.23.54c-.08.207-.152.385-.231.528l-.295-.027c-.393-.006-.661.09-.848.237-1.161-.506-1.675-1.863-1.675-3.108zm2.519 3.147l.488.046.52.047c.291.005.47-.013.613-.026.23-.022.372-.036.823.077.244.06.345.279.337.729-.008.47-.07.621-.185.893l-.187.5-.146.542a4.67 4.67 0 0 1-.112.429l-.105-.005-.48-.017c-.422.015-.685.15-.848.336-1.009-.478-1.563-1.676-1.663-2.788.054-.53.353-.773.945-.763zm21.696 4.23c.094-.03.209-.05.422-.065.126-.01.259.035.377.418.068.219.085.345.085.468v.022a13.93 13.93 0 0 0-.884-.843zm-2.54-2.359c.107-.04.189-.075.259-.105.187-.082.29-.127.683-.154.208-.015.338.128.45.491.075.252.098.397.098.538 0 .074-.007.146-.013.23l-.018.396c-.393-.36-.868-.808-1.46-1.396zm-.639-.644c-.753-.772-1.323-1.414-1.764-2.013.256-.065.411-.122.535-.169.209-.077.324-.12.757-.128.233-.004.37.16.471.568.059.235.08.387.08.521 0 .108-.014.206-.029.325l-.05.498v.398zm-3.275-5.288c.173-.034.327-.048.707-.002.242.03.364.23.41.664.05.457.007.61-.07.888l-.124.508s-.016.125-.035.256c-.394-.706-.652-1.425-.888-2.314zm-7.746-6.349c-.041.32-.065.665-.065 1.03 0 2.195.88 4.193 1.843 4.193.09 0 .178-.021.257-.057.12.393.223.76.32 1.086.562 1.913 1.006 3.423 1.846 4.17-1.286-2.426-1.294-3.38-1.9-5.444.297-.294.545-.825.831-1.442.541-1.164 1.24-2.667 2.58-3.238.304.566.536 1.17.675 1.796l.405 1.89c.808 3.853 1.052 5.015 4.03 8.044 1.393 1.416 2.227 2.15 2.833 2.684.652.576 1.084.955 1.75 1.762.903 1.093 1 1.95.926 2.475-.07.478-.314.891-.671 1.133-.76.517-5.453 2.393-6.734 2.631-1.517.284-6.428.476-8.193.169a7.243 7.243 0 0 1-1.237-1.708 26.475 26.475 0 0 1-.891-1.89c-.163-.376-.292-.671-.433-.893.066-.195.108-.362.095-.735-.006-.196-.025-.716-.505-.81-.409-.08-.545-.06-.75-.028l-.463.042-.094-.003c.042-.147.07-.304.099-.455l.1-.48.143-.45c.096-.267.16-.443.141-.925-.009-.22-.028-.8-.561-.905-.46-.09-.615-.067-.845-.032-.13.02-.279.042-.53.05l-.06-.003c.035-.123.067-.251.095-.376l.137-.517.182-.48c.119-.285.197-.473.205-.996.005-.237.015-.862-.546-1.002-.496-.124-.664-.11-.916-.085-.138.014-.306.03-.582.025l-.418-.038c.073-.147.134-.304.193-.455l.219-.517.26-.474c.162-.276.269-.46.354-1 .039-.243.142-.886-.417-1.112-.497-.2-.671-.207-.936-.218-.142-.008-.322-.016-.607-.061l-.501-.118-.19-.05.001-.001c.127-.143.243-.304.355-.46.109-.15.22-.304.338-.435.398-.441.47-.598.602-.881l.273-.549c.307-.554-.205-1.017-.397-1.19-.38-.34-.508-.385-.74-.445a2.805 2.805 0 0 1-.542-.196c-.179-.081-.356-.183-.53-.282-.288-.166-.58-.334-.866-.391.19-.836.415-1.627.686-2.329.716-1.853 1.167-2.968 1.787-3.9 1.33-.101 2.923.217 4.211.914 1.446 1.04 2.525 2.462 3.348 3.962zm1.015-2.102c.112.072.23.146.35.22.03.02.062.038.092.057a20.171 20.171 0 0 0 2.867 1.472l.224.09c.243.097.493.193.754.287-1.31.684-2.002 2.17-2.545 3.337-.347.744-.672 1.447-.98 1.447-.573 0-1.427-1.585-1.427-3.777 0-1.503.426-2.624.665-3.133zm-.912 1.463a17.653 17.653 0 0 0-1.356-1.873c.298-.22.62-.386.968-.494.2.162.41.32.638.472.101.067.205.136.31.203-.158.326-.4.907-.56 1.692zm21.906 17.462a9.098 9.098 0 0 0 .015-.89c1.307.67 2.063 1.352 2.063 2.595 0 .516-.13 1.128-.404 1.875-.996 2.71-2.167 3.107-4.11 3.763-1.244.421-2.794.945-4.721 2.273-4.038 2.782-11.719 6.993-17.766 3.945-.866-.437-1.582-.938-2.19-1.531l-.039-.037-.004-.003c-1.95-2.13-2.314-3.606-2.373-4.57-.022-.335.084-1.419.084-1.419-.051.115-1.142 2.73 1.496 5.746a15.382 15.382 0 0 1-3.242-1.627.384.384 0 0 0 .016-.02c.555-.81.833-1.8.833-2.916 0-1.088-.262-2.294-.79-3.57-1.13-2.735-1.703-6.06-1.757-10.167v-.402c0-.188 0-.39.003-.599.25.78.523 1.542.82 2.29.056.19 1.886 6.425 5.641 9.823a14.749 14.749 0 0 0-.064 1.32v.046c0 .68.078 1.278.21 1.79.054.218.119.422.193.608.415 1.036 1.082 1.578 1.726 1.578 1.433 0 2.09-.797 2.57-1.377.315-.383.523-.618.793-.618.944 0 1.718.036 1.726.036v-.001c.912.117 2.147-.025 3.69-.256 0 0-2.444.008-3.638-.156-.147-.063-.795-.356-1.54-.987 2.222.228 6.411.007 7.753-.244 1.34-.249 6.079-2.145 6.89-2.695a1.88 1.88 0 0 0 .252-.21c.536-.051 1.065-.35 1.58-.642.542-.307 1.098-.625 1.622-.625.844 0 1.747.3 1.756.303l.109.037.018.006.09-.098a.967.967 0 0 0 .11-.15c.163-.255.462-.865.562-2.006.007-.071.013-.143.017-.218zm-48.159 10.703c-.733-.26-.93-1.513-.93-2.694 0-.695.07-1.359.135-1.789.08-.077.297-.256.666-.36a23.58 23.58 0 0 0 2.482 2.103l.135.098c.089.065.176.13.27.196l.136.096c.043.031.088.063.134.094-.789 1.114-2.09 2.59-3.028 2.256zm-6.671-9.787c-1.104.423-3.913 1.224-4.573.184a.912.912 0 0 1-.134-.502c0-1.127 1.53-2.829 2.268-3.52.236-.024 1.209-.032 2.065 1.353.434.706.558 1.273.558 1.692 0 .435-.13.696-.184.793zm-4.567-25.612c-.78-.678-2.42-2.365-2.42-3.496a.88.88 0 0 1 .112-.453c.608-1.073 3.437-.383 4.552-.004.072.107.25.417.25.922 0 .397-.112.912-.475 1.536-.857 1.465-1.809 1.506-2.019 1.495zm-.434 13.567c-1.17-.164-4.015-.825-4.089-2.056l-.001-.048c0-1.207 2.692-2.149 3.816-2.434.216.091 1.073.553 1.15 2.184.004.082.006.16.006.236 0 1.48-.69 2.002-.882 2.118zm1.525-20.718c-.26-.408-.449-.733-.449-1.086 0-.441.294-.924 1.103-1.662l.123-.114c1.705-1.553 2.41-2.196 3.835-4.9.842-1.596.92-2.448 1.003-3.35l.092-.805c.227-1.46.987-2.66 2.143-3.381 1.296-.81 2.939-.938 4.752-.374.862.268 1.278.433 1.647.578.231.092.453.18.756.281l.096.03c.04.014.08.027.127.04.802.24 2.398.626 2.398.626-.302-.1-1.376-.585-2.003-.87 1.794-1.038 3.105-.76 4.157-.336 1.332.534 3.465.459 3.555.456l.045-.002.04-.02c6.394-3.226 11.757-.582 13.777.413.369.182.593.292.735.323 2.482.548 3.963.224 4.847.03l.135-.03c2.783-.6 6.789.946 11.277 4.353l.164.122.755.624c.156.233.32.55.402.94.31 1.479.006 3.203-.777 4.584-.084.148-.171.29-.267.429-.05.074-.1.15-.154.22-.834 1.118-1.952 1.786-3.148 1.882-1.962.159-4.167-.742-6.102-2.042a17.464 17.464 0 0 1-3.304-2.883c-2.053-2.325-4.333-4.744-7.094-6.677-2.493-1.746-4.6-2.413-6.628-2.1-2.363.365-4.67 2.093-7.048 5.288-.546.735-.69 1.3-.435 1.725.212.354.678.543 1.317.622.305.038.648.05 1.024.043 1.04-.02 2.319-.189 3.65-.387.532-.079.993-.147 1.325-.18l.142-.013c2.024-.199 4.796-.47 7.06.662 2.584 1.293 4.802 3.17 5.914 4.384l.069.076c.675.737 2.007 2.191 3.685 3.471.202.155.408.305.62.453a3.78 3.78 0 0 1-.544-.195c-1.147-.501-2.574-1.621-3.78-2.566l-.108-.086-.167-.13a3.65 3.65 0 0 0-1.146 3.936 14.07 14.07 0 0 1-.48-.001 31.025 31.025 0 0 1-1.066-.046 4.131 4.131 0 0 1 1.179-4.999l-.195-.13-.167-.111a4.548 4.548 0 0 0-1.284 5.207c-1.584-.123-3.685-.416-5.758-1.086a31.949 31.949 0 0 0-1.44-2.822 8.927 8.927 0 0 1-.292-.537l-.024-.055c-.186-.429-.467-1.077.153-1.96.365-.518 1.038-1.248 1.705-1.898l-.477-.111c-.62.616-1.22 1.277-1.568 1.77-.753 1.073-.39 1.913-.194 2.364l.024.054c.045.104.15.292.311.576.214.384.53.944.867 1.61.095.19.192.39.29.596.037.075.071.153.108.23l-.089-.03c-2.712-.987-6.877-1.935-11.72 1.205-.22.142-5.398 3.508-7.705 6.713-.673.266-7.214 3.017-8.473 9.702a26.42 26.42 0 0 0-.247 1.554c-.509-1.07-1.025-2.745-1.025-5.563 0-1.272.106-2.777.362-4.565.447-3.092 1.085-5.126 2.275-7.256l.31-.556c.45.037 1.627.045 3.402-.572l1.938-.642c1.345-.434 2.407-.777 2.97-1.163.876-.602 2.148-3.208 2.122-5.538-.03-2.75.514-4.445.514-4.445-.373.744-.799 1.914-.799 4.37 0 2.278-1.335 4.796-2.059 5.293-.514.353-1.554.688-2.868 1.112l-1.946.645c-2.153.749-3.4.535-3.412.533l-.003.019-.163-.03h-.01c-3.423-.263-4.449-1.473-4.682-1.839zm37.307-16.355c.623-.817 1.26-1.257 1.893-1.306.522-.041 1.055.194 1.584.698.966.926 1.779 1.688 2.496 2.329-.153.02-.305.045-.455.076l-.136.03c-.906.199-2.275.498-4.668-.03-.094-.019-.347-.145-.641-.29-.23-.114-.502-.247-.811-.39.173-.315.406-.683.738-1.117zm8.087 17.758c.035.035.067.069.1.1h-.019c-.028-.031-.05-.065-.081-.1zm12.918-10.363c.364.423.774.905 1.369 1.242.287.161.451.38.504.662.107.593-.303 1.494-1.128 2.474-.293.35-.51.58-.718.802-.549.582-.981 1.042-2.337 3.186-.605.957-1.259 1.724-1.963 2.3a18.838 18.838 0 0 0-2.828-.29 16.159 16.159 0 0 0-3.271.217 29.161 29.161 0 0 0-1.72-.115c-2.21-1.388-4.034-3.38-4.857-4.278l-.07-.077c-1.137-1.241-3.4-3.156-6.035-4.475-2.37-1.185-5.212-.907-7.285-.704l-.14.014c-.345.034-.81.102-1.348.183-1.774.262-5.074.752-5.574-.082-.195-.325.117-.867.413-1.264 5.275-7.09 9.417-5.678 13.104-3.096 2.725 1.908 4.986 4.305 7.019 6.611 1.79 2.029 5.86 5.38 9.751 5.065 1.318-.106 2.542-.833 3.448-2.047a7.23 7.23 0 0 0 1.404-4.26c0-.443-.044-.882-.133-1.307a3.104 3.104 0 0 0-.72-1.419c1.802-.862 2.363-.224 3.115.658zm2.82 11.656c-.638-.426-1.557-.817-1.968-.98.584-1.286.909-2.555-.088-5.04-.09.137-.18.277-.279.417.362.96.506 1.717.506 2.363 0 .841-.245 1.499-.562 2.188-.206.044-.734.156-1.432.278.197-.54.331-1.065.331-1.578 0-.471-.113-.932-.394-1.389a5.16 5.16 0 0 0-.286.349c.446.84.264 1.708-.124 2.696-.15.025-.307.05-.469.073.072-.606.056-1.278-.217-1.813l-.152.154c-.328.328-.676.657-.928.89a10.642 10.642 0 0 0 1.282-1.676c1.334-2.111 1.754-2.558 2.289-3.123.202-.217.434-.461.734-.82a7.067 7.067 0 0 0 .887-1.301c.252-.496.418-1.033.33-1.513-.073-.406-.312-.726-.707-.95-.533-.301-.9-.732-1.256-1.15-.807-.945-1.568-1.837-3.86-.644l-.16-.132a14.281 14.281 0 0 1-.166-.126c-2.433-1.845-6.861-4.726-10.6-4.554a100.829 100.829 0 0 1-2.774-2.577c-.615-.59-1.254-.863-1.9-.812-.757.059-1.494.553-2.193 1.468a9.56 9.56 0 0 0-.786 1.196c-2.59-1.146-7.365-2.649-12.913.13-.288.006-2.184.036-3.341-.429-.725-.29-2.41-.962-4.765.513a14.515 14.515 0 0 1-.77-.283c-.376-.148-.8-.316-1.676-.59-1.903-.591-3.713-.443-5.094.419-1.26.786-2.087 2.089-2.333 3.67l-.095.83c-.08.86-.154 1.672-.958 3.196a29.215 29.215 0 0 1-.49.9c-1.079 1.9-1.757 2.518-3.256 3.886l-.126.113c-.88.804-1.233 1.38-1.233 1.948 0 .42.194.835.511 1.332.15.234.471.617 1.103.99-.278.402-.542.814-.795 1.233-1.305-.285-3.135-.469-3.714.553-.63 1.113.723 2.79 1.659 3.754-1.1 3.011-1.67 6.297-1.653 9.666-1.131.494-2.333 1.258-2.272 2.266.062 1.03 1.406 1.665 2.61 2.03.51 3.318 1.568 6.402 3.047 9.125-.818 1.009-1.665 2.4-1.076 3.324.598.943 2.288.751 3.566.438 1.904 2.383 4.181 4.326 6.699 5.7-.062 1.338.06 3.23 1.185 3.63 1.074.382 2.316-.866 3.131-1.913.568.148 1.14.266 1.72.358 1.76 1.015 4.743 2.396 8.062 2.48 1.658.043 3.038-.51 3.938-1.564 1.1.734 2.645 1.525 4.084 1.915.628.607 1.365 1.121 2.25 1.568 6.24 3.144 14.075-1.14 18.189-3.974 1.879-1.294 3.397-1.808 4.62-2.22 1.917-.649 3.3-1.117 4.365-4.014 1.078-2.934-.016-4.065-2.072-5.084-.134-1.815-.751-3.068-1.567-3.068-.689 0-.91.648-1.274 1.722l-.02.062a37.55 37.55 0 0 1-.947-.446c1.998-6.17 1.406-12.5.905-15.606.308.137.67.316 1.095.55l.062.032c.474.86.495 2.027.51 2.965.014.959.027 1.652.481 1.833.749.298 2.056-1.073 2.795-2.934a7.99 7.99 0 0 0 .44-1.5l.106-.08c.855-.587 1.4-1.537 1.586-2.005l.039-.094c.166-.401.444-1.075.735-3.438.325-2.627-1.353-5.279-2.11-5.783z" fill="#231F20"/><path d="M148.007 84.291c-.094 0-.172.068-.172.15 0 .082.078.149.172.149.095 0 .173-.067.173-.149 0-.082-.078-.15-.173-.15zm.356 2.37c-.095 0-.173.068-.173.15 0 .082.078.15.173.15.096 0 .174-.068.174-.15 0-.082-.078-.15-.174-.15zm.357 2.503c-.096 0-.173.067-.173.15 0 .082.077.15.173.15.094 0 .172-.068.172-.15 0-.083-.078-.15-.172-.15zM147 85.3c-.095 0-.172.067-.172.149 0 .083.077.15.172.15.094 0 .173-.067.173-.15 0-.082-.079-.15-.173-.15zm-3.51 2.004c-.096 0-.171.066-.171.15 0 .082.075.148.17.148.097 0 .174-.066.174-.149 0-.083-.077-.15-.173-.15zm1.364-1.897c-.095 0-.173.066-.173.15 0 .08.078.148.173.148.096 0 .172-.067.172-.148 0-.084-.076-.15-.172-.15zm1.79 1.185c-.094 0-.173.067-.173.15 0 .081.079.148.173.148.094 0 .173-.067.173-.148 0-.083-.08-.15-.173-.15zm-.723.926c-.094 0-.172.067-.172.148 0 .082.078.15.172.15.096 0 .173-.068.173-.15 0-.081-.077-.148-.173-.148zm19.159-1.849a.15.15 0 0 0-.15.149.15.15 0 0 0 .15.149.149.149 0 1 0 0-.298zm.816-1.086c-.096 0-.173.067-.173.15 0 .081.077.148.173.148.093 0 .172-.067.172-.149 0-.082-.08-.15-.172-.15zm-.205 2.466c-.095 0-.173.068-.173.15 0 .082.078.149.173.149.094 0 .172-.067.172-.15 0-.081-.078-.149-.172-.149zm-7.899 1.783l.053-.266c.09-.415.237-1.108.258-1.47l-.205-.012c-.016.273-.113.77-.194 1.155a4.788 4.788 0 0 0-.313-1.105l-.19.082c.258.59.33 1.228.36 1.5.017.15.024.218.119.22.022.001.095-.005.112-.104" fill="#231F20"/><path d="M168.183 85.677c-.29 2.335-.564 3.138-.82 3.76l-.034.081a6.052 6.052 0 0 1-1.745 2.348 9.704 9.704 0 0 1-.386 1.236c-.915 2.3-2.715 4.28-4.391 3.636a34.595 34.595 0 0 1-.68 6.503c.098-.013.199-.02.307-.02 1.403 0 2.41 1.33 2.73 3.52 1.397.797 2.568 1.918 2.568 3.87 0 .698-.15 1.501-.492 2.435-1.27 3.454-3.06 4.06-5.134 4.76-1.207.41-2.577.874-4.313 2.068-4.34 2.99-12.642 7.493-19.452 4.06a10.54 10.54 0 0 1-2.306-1.559c-1.299-.39-2.485-.991-3.312-1.473-1.092.853-2.517 1.288-4.129 1.246-3.406-.087-6.433-1.396-8.446-2.533a19.503 19.503 0 0 1-.843-.158c-1.399 1.572-2.745 2.147-4.008 1.7-1.319-.469-1.994-1.847-2.023-4.086-2.195-1.297-4.182-2.99-5.927-5.048-2.033.356-3.425-.023-4.137-1.143a2.51 2.51 0 0 1-.399-1.375c0-.812.358-1.727 1.062-2.736a29.133 29.133 0 0 1-2.677-8.066c-1.753-.671-2.683-1.642-2.76-2.895a3.003 3.003 0 0 1-.003-.162c0-1.159.775-2.153 2.29-2.964.061-2.97.552-5.85 1.468-8.584-1.1-1.263-1.66-2.403-1.66-3.404 0-.449.11-.87.334-1.263.596-1.052 1.775-1.516 3.51-1.39-.022-.035-.048-.07-.069-.102-.466-.73-.703-1.387-.703-2.019 0-.949.534-1.842 1.637-2.847l.125-.114c1.642-1.496 2.194-2 3.483-4.448.69-1.304.746-1.933.82-2.73l.105-.906c.3-1.945 1.332-3.554 2.903-4.534 1.694-1.057 3.869-1.252 6.124-.55.92.286 1.367.462 1.761.619.068.025.13.051.192.076 2.33-1.242 4.15-.785 5.35-.303.649.262 1.828.345 2.592.343 4.056-1.947 8.324-2.09 12.707-.43.096-.136.185-.272.29-.411.923-1.209 1.96-1.866 3.083-1.953.698-.055 1.758.101 2.858 1.153.969.927 1.741 1.647 2.388 2.23 3.7.062 7.738 2.466 10.618 4.617 2.65-1.047 3.88.388 4.64 1.278.312.365.582.681.923.874.688.39 1.138.983 1.3 1.714.043.192.063.39.063.592 0 .502-.132 1.037-.392 1.597l.028.013c-.017.046-.355 1.013-1.006 2.161.335.997.474 1.834.474 2.562 0 .584-.088 1.1-.224 1.577.368.18.75.386 1.083.607 1.031.687 2.705 3.283 2.705 6.12 0 .283-.017.566-.05.85zm-2.157-7.718a8.585 8.585 0 0 0-.56-.337 6.65 6.65 0 0 0 .102-1.126c0-.735-.124-1.534-.399-2.44.551-1.031.843-1.85.881-1.965l-.024-.009c.289-.651.436-1.284.436-1.89 0-.267-.026-.53-.084-.787-.212-.974-.83-1.79-1.735-2.303-.203-.115-.423-.374-.682-.674-.762-.896-2.248-2.631-5.172-1.705-2.87-2.086-6.736-4.298-10.405-4.492-.59-.536-1.283-1.186-2.13-1.994-1.34-1.283-2.668-1.47-3.549-1.401-.931.072-2.306.522-3.627 2.185-4.327-1.481-8.546-1.275-12.58.604-.69-.011-1.604-.091-2.06-.275-.765-.308-2.92-1.17-5.73.153a23.022 23.022 0 0 0-1.641-.57c-2.51-.781-4.947-.551-6.866.645-1.77 1.105-2.979 2.985-3.316 5.16l-.111.96c-.07.751-.114 1.248-.719 2.395-1.217 2.307-1.658 2.708-3.295 4.202l-.126.114c-1.291 1.178-1.929 2.317-1.929 3.515 0 .416.082.84.236 1.274-1.165.163-2.222.667-2.858 1.79a3.415 3.415 0 0 0-.459 1.709c0 1.103.525 2.304 1.558 3.592a29.645 29.645 0 0 0-1.346 7.866c-1.838 1.141-2.3 2.46-2.3 3.494 0 .073 0 .144.005.214.066 1.08.653 2.477 2.854 3.476a30.045 30.045 0 0 0 2.444 7.371c-.67 1.097-.921 2.032-.921 2.809 0 .763.236 1.374.535 1.844.857 1.35 2.383 1.89 4.535 1.622 1.616 1.835 3.425 3.376 5.407 4.603.115 1.86.73 3.75 2.6 4.414 1.528.542 3.08.008 4.63-1.57.071.015.144.028.217.041 2.105 1.17 5.214 2.483 8.73 2.573 1.593.042 3.028-.34 4.2-1.087.777.42 1.752.88 2.81 1.216.686.59 1.472 1.118 2.354 1.562 3.16 1.593 6.888 1.767 11.08.522 2.965-.88 6.091-2.443 9.288-4.645 1.631-1.123 2.937-1.566 4.09-1.956 2.1-.71 4.272-1.445 5.69-5.302.37-1.008.555-1.925.555-2.763 0-.826-.18-1.575-.54-2.262-.505-.964-1.286-1.634-2.115-2.15-.44-2.32-1.591-3.431-2.785-3.753a35.21 35.21 0 0 0 .48-4.672c1.853-.134 3.49-2.15 4.354-4.322.14-.354.258-.715.358-1.08.87-.78 1.475-1.76 1.772-2.501l.03-.072c.28-.68.578-1.548.881-3.994.037-.31.056-.62.056-.93 0-3.016-1.7-5.961-3.104-6.898z" fill="#231F20"/><path d="M150.671 80.431c0-.29 1.626-1.101 4.64-1.362-5.363 0-6.725 1.508-6.725 1.508s.349 0 1.478.347c1.13.349 2.117 1.102 2.117 1.102s-.58-1.16-1.51-1.595" fill="#4F4C4C"/><path fill="#231F20" d="M168.327 106.89v-3.27h-1.3v-.39h3.12v.39h-1.3v3.27h-.52m2.331 0v-3.66h.725l1.012 2.832 1.039-2.832h.647v3.66h-.49v-2.977l-1.001 2.732h-.504l-.979-2.74v2.984h-.45"/></g></svg>