<svg width="200" height="200" xmlns="http://www.w3.org/2000/svg"><g fill="none" fill-rule="evenodd"><path d="M111.8 72.296c.005 2.202.032 4.345.062 6.375l.013.779c-1.075.127-2.157.264-3.242.409 1.026-2.491 2.1-5.045 3.168-7.563Zm68.493 37.537s-4.425-5.153-6.105-7.22l3.849-8.316s-8.63-6.096-21.73-10.747c4.729.16 11.933.725 21.125 2.408l22.109-53.604-28.513-.002-20.38 49.381a91.757 91.757 0 0 0-3.208-.866l19.993-48.515h-25.238s-6.873 16.545-7.764 18.838l-.248-18.838h-31.105l-21.61 52.416c-1.525.333-2.983.661-4.358.978.35-.685.677-1.38.959-2.094L99.213 32.35H70.79L51.414 79.247c-.821 1.944-2.949 3.554-4.847 3.664l-.202.006c-.434 0-1.02-.09-1.349-.506-.3-.385-.368-1.034-.183-1.778.059-.238.139-.471.252-.735L64.724 32.35h-28.46L16.838 79.39a25.096 25.096 0 0 0-1.375 4.334c-1.276 5.921-.102 11.506 3.307 15.726 2.519 3.119 6.014 5.17 10.08 5.98C10.631 110.593 0 114 0 114s21.042 2 45.104 4.55c-4.792 1.667-9.302 3.464-13.265 5.389 0 0 46.228 1.635 59.112 13.2 5.538 4.973 10.08 8.499 15.533 10.86 3.612 8.778 11.226 21.37 25.216 21.37 13.037 0 17.592-8.231 19.107-12.674 2.378-1.985 6.3-6.328 4.09-12.134 0 0 8.774-.365 14.314-7.666 7.029-.48 12.589-6.321 12.589-13.473 0-2.67-.783-5.15-2.116-7.245 2.586-4.511.609-6.344.609-6.344Z" fill="#FAB80A" fill-rule="nonzero"/><path d="M187.425 82.015a2.218 2.218 0 0 0-2.216 2.219c0 1.225.992 2.22 2.216 2.22a2.218 2.218 0 0 0 0-4.439m0 3.98c-.951 0-1.697-.79-1.697-1.761 0-.97.746-1.76 1.697-1.76.95 0 1.7.79 1.7 1.76s-.75 1.76-1.7 1.76m1.025-2.285c0-.558-.266-.754-1.007-.754h-.888v2.527h.484v-1.006h.258l.635 1.006h.545l-.673-1.025c.413-.062.646-.316.646-.748m-1.411.358v-.706h.47c.295 0 .459.057.459.33 0 .315-.178.376-.447.376h-.482" fill="#FAB80A"/><path d="M178.582 124.827c-.807 5.438-5.265 9.206-10.76 9.103-1.545 2.275-2.736 3.432-5.057 4.914-2.13 1.355-3.536 1.918-6.02 2.407.768-1.164 1.107-1.909 1.487-3.245.277-.97.377-1.543.432-2.55-3.11.763-4.945 2.007-6.8 4.623-1.435 2.022-1.965 3.511-2.139 5.987l2.039-1.698c1.085 2.296 1.1 4.2.053 6.511-.812 1.807-1.733 2.779-3.49 3.692-.386 1.693-.75 2.638-1.593 4.15-3.537 6.321-11.937 8.825-19.027 7.366-11.994-2.464-19.327-20.667-19.414-20.712-3.428-1.82-9.793-5.224-13.829-9.572-3.783-3.784-11.611-9.911-49.346-14.076l15.598-4.825-46.47-4.346c33.246-9.09 50.852-13.98 68.535-18.085l-9.579-4.66c23.993-5.235 34.251-7.139 47.471-8.236 27.06-2.246 41.785 7.686 53.464 13.976l-3.473 7.49c.556.758 7.336 8.588 7.329 8.77-.13 2.34-.812 2.913-2.103 4.226 2.423 2.644 3.22 5.245 2.692 8.79" fill="#4A217B"/><path d="M147.385 149.009c-1.149.651-1.887.938-3.183 1.242-.67.753-.89 1.38-.794 2.245.096.838.423 1.342 1.187 1.819 2.053-.353 3.39-1.106 4.64-2.613 1.408-1.697 1.729-3.235 1.042-5.014-.927 1.052-1.602 1.598-2.892 2.321M151.542 132.16c-1.252-.946-4.77-1.59-8.143-1.583-1.313 0 2.474 1.355 3.356 3.421.881 2.057.742 3.14.742 3.14s5.272-4.055 4.045-4.979" fill="#FFF"/><path d="M168.543 120.937c-1.356-5.822-8.1-9.287-13.622-7.013l.165-2.573c3.166-1.205 5.05-1.7 8.404-2.203 3.338-.504 5.284-.586 8.656-.37-1.45-2.408-2.549-3.67-4.737-5.437-3.027-2.445-5.224-3.47-9.04-4.22l5.887-.71 2.409-3.284c-15.348-7.624-25.171-12.812-45.32-11.215-15.038 1.189-17.942 2.48-38.083 6.375l9.81 4.986c-23.27 4.733-39.578 9.49-63.428 15.547l42.054 3.594-13.694 5.72c29.886 3.85 37.522 12.346 38.276 13.259 5.42 6.53 14.613 10.091 14.613 10.091 2.136 6.003 4.517 9.529 7.248 12.702 3.102 3.613 9.531 6.938 15.81 6.182 4.613-.555 7.448-1.97 10.654-5.336-4.364 1.388-7.817.899-11.62-1.646-3.622-2.42-4.84-5.258-5.899-9.482-.825-3.286.298-4.725-1.685-7.466-2.106-2.91-8.728-4.44-12.053-3.092 5-3.695 13.466-5.829 19.633-6.653 4.418-.593 13.682-.445 18.67 1.654 8.197 3.446 18.608-2.068 16.892-9.41" fill="#FAB80A"/><path d="M138.529 147.13c-1.086.675-1.788.985-3.035 1.34-.611.923-.583 1.792.079 2.55.695.799 1.756 1.04 2.982.683 1.913-1.38 2.815-2.6 3.398-4.587.403-1.367.417-2.211.063-3.505-.918 1.587-1.787 2.458-3.487 3.519" fill="#FFF"/><path d="M170.123 123.261c.39 1.144.447 1.901.227 3.09-.273 1.519-.779 2.42-1.926 3.456 3.113-.05 5.559-2.242 5.937-5.33.234-1.892-.167-3.232-1.404-4.684l-2.834 3.468" fill="#FAB80A"/><path d="M117.568 111.527c-9.045.996-14.173 1.802-23.162 3.639l.676 2.472-10.59-3.476c10.184-2.614 16.081-3.67 26.422-4.722 15.903-1.626 25.091-1.467 40.333.695-13.005-.366-20.5-.057-33.679 1.392M120.476 116.489c-5.524 1.19-8.633 1.981-14.071 3.582l-.382 2.723-8.85-3.719c8.459-2.197 13.315-3.18 21.905-4.44 11.83-1.73 18.6-2.2 30.33-2.109-11.27.664-17.732 1.547-28.932 3.963M126.559 120.307c-4.15 1.464-6.467 2.406-10.459 4.237l-.393 2.893-7.18-3.69c6.05-2.285 9.563-3.383 15.827-4.932 8.027-1.986 12.674-2.766 20.804-3.487-7.353 1.362-11.512 2.474-18.6 4.98M131.966 95.437c1.436 1.137 2.477 2.577 4.052 4.68l16.796-.92c-4.931-3.226-9.144-4.818-13.702-6.07-2.243-.616-8.02-2.188-14.28-1.188 2.603.715 5.017 1.824 7.134 3.498" fill="#4A217B"/><path d="M131.968 95.437c-2.12-1.674-4.533-2.783-7.136-3.499 6.26-.997 12.037.573 14.28 1.188 2.793.769 5.46 1.667 8.24 2.986-2.93-1.843-5.62-3.103-9.81-4.566-8.316-2.903-19.857-1.937-28.711-.262 7.428 0 10.2.53 14.032 1.889 3.333 1.178 7.751 3.409 13.055 6.808-1.519-2.026-2.547-3.432-3.95-4.544M159.714 138.763c.985-.482 4.25-2.217 5.845-4.752-.928.248-2.628.615-4.965.814-.008.956-.139 2.688-.88 3.938" fill="#FFF" fill-rule="nonzero"/><path d="m131.978 64.312-1.19 2.956.371-3.166c.382-3.24.56-6.392.53-9.367l-.242-19.61h-26.515L84.982 83.53c8.741-1.81 15.009-2.957 20.8-3.801 1.324-3.23 2.66-6.608 4.045-9.876 1.532-3.614 2.98-7.029 4.29-10.256l1.01-2.493-.19 2.683c-.44 6.216-.396 12.705-.301 18.843 1.291-.13 2.594-.25 3.925-.361a95.86 95.86 0 0 1 7.832-.331c6.564 0 12.512.632 18.54 1.96l18.389-44.772h-19.314l-12.03 29.187M175.818 82.854l19.672-47.728H172.9L154.092 80.83s8.69-.312 21.726 2.024" fill="#4A217B" fill-rule="nonzero"/><path d="M59.73 96.516c7.006-1.853 13.128-7.227 15.775-13.92l19.567-47.474H72.645L53.968 80.324c-1.213 2.873-4.24 5.18-7.236 5.354-3.367.2-5.42-2.355-4.59-5.713.095-.382.223-.76.382-1.124L60.58 35.12H38.12l-18.726 45.34a22.365 22.365 0 0 0-1.222 3.846c-2.228 10.351 4.356 18.739 14.706 18.739 1.543 0 3.054-.183 4.564-.535a2637.125 2637.125 0 0 1 22.288-5.995" fill="#4A217B"/></g></svg>