<svg width="200" height="200" xmlns="http://www.w3.org/2000/svg"><g fill="none"><path d="M170.778 100.332c-.41-2.049-3.187-20.716-3.734-23.312l.092-.545c1.957.41 3.734 1.32 5.462 2.185.686.591 1.685.639 2.095 1.549.138 3.049-3.458 18.21-3.915 20.123zm-58.686-18.486c-.363 9.47-.138 17.756-.683 27.41v.364c-1.684-.136-3.688-.228-5.555-.364-.41-1.505-.137-3.734-.227-5.01.227-14.522.457-27.407.865-41.84l.136-.136c1.776.41 3.826.136 5.553.683.547 6.51-.18 12.43-.089 18.893zM89.6 66.23c.046 2.596-.182 5.009-.228 7.512-.319-.682-.772-1.502-.863-2.367-1.14-3.005-2.278-5.919-3.188-8.97 1.229-.408 2.777-.135 4.143-.227.546 1.548-.092 2.505.136 4.052zm-15.525 44.574c.319-6.557.183-12.249.547-18.668.591.547 4.962 13.432 6.33 17.803-1.46.636-6.513 1.41-6.877.865zM57.14 108.71s-.23 4.599-.457 6.782c-.5.82-1.593.685-2.276 1.32-1.412.365-2.733 1.004-4.052 1.55.456-2.141.683-22.174 1.184-31.598.09-6.056.273-12.611.546-19.213.547-.82 1.912-.682 2.869-1.001.91-.32 1.866-.456 2.822-.637l.228.317c-.455 13.706-.41 28.001-.864 42.48zm-23.404-1.732c-.134 2.55-.273 5.237-.409 8.106-.319 2.002-.636 4.87-1.457 7.102-.91 3.095-3.05 6.1-5.78 8.057-.73.094-1.322 0-1.504-.772.136-6.33.091-11.883.41-18.578.091-11.245.682-21.624.774-32.78.273-.91-.045-2.365 1.185-2.594 2.365-1.23 4.87-1.913 7.329-2.868l.228.909c-.092 11.474-.683 21.537-.776 33.418zm165.226-36.513l-6.33-3.46c-3.095-1.411-9.257-4.66-10.745-5.463-2.413-.819-4.372-2.458-6.964-3.097-2.325-1.229-4.874-1.956-7.332-2.913-1.957-.957-4.279-1.139-6.237-2.185-6.694-1.822-13.34-3.824-20.077-5.463-.41.045-.547-.639-.91-.138-.276 5.783-.276 13.022-.412 19.123 0 0 3.583 1.168 4.78 1.548 1.458.454 1.595 2.23 1.776 3.368.365 1.64.547 3.278 1.095 4.826.636 5.235 1.774 11.063 2.41 16.254.184.91.549 2.004.093 2.868-1.594-.273-2.87-1.183-4.372-1.64-1.5-.5-3.141-1.183-4.46-1.548-.502 6.376.181 13.525-1.093 19.67-.547 1.273-.274 2.823-1.092 3.962-2.413.227-4.236-1.184-6.558-1.778-.546-.181-1.229-.044-1.64-.545-.134-16.846.595-31.506.637-47.76l.228-.955c2.415.18 4.783.91 7.105 1.09.365-5.963.18-12.517.546-18.483l-.318-.637a18.603 18.603 0 0 1-4.28-.638c-3.46-.09-5.648-1.229-9.198-1.092-3.96-.865-8.058-.865-12.02-1.458l-6.192-.318c-8.059-.318-16.163.183-24.175 0l-.319.228-.091 4.598c.045 2.003-.046 3.916-.32 5.782-.18.047-.225-.136-.363-.227-.455-2.914-2.048-5.509-2.823-8.423-.228-.455-.274-1.047-.546-1.503-11.792 1.093-22.627 2.369-33.782 5.008-.638.41-1.593.137-2.187.684-8.057 1.775-15.569 4.871-23.126 7.83-.957.228-1.685.912-2.642 1.092-4.78 1.821-9.197 4.644-13.976 6.467-.774.682-1.914.682-2.505 1.41C.364 73.652 0 82.075 0 89.497c1.914-1.092 3.871-2.048 5.783-3.279h.636c0 4.781 0 10.154-.318 15.072 0 6.009-.365 13.247-.546 19.031-.365 7.831-.773 16.342.318 23.719.638 4.917 2.597 10.334 7.423 12.43 2.276 1.454 5.464.956 8.012.453 7.74-2.822 14.206-8.968 19.44-15.525 3.05-4.46 5.966-8.967 7.193-14.205.547-.955.639-2.413 1.23-3.505.41 4.416-.317 10.245-.228 14.66 3.46-1.276 6.83-2.73 10.382-3.823 6.965-2.688 14.341-4.373 21.716-6.01 0-5.692.456-10.518.456-16.527l.227-.319.229.228c1.502 4.78 3.46 9.335 5.008 14.114.409.638-.046 2.004 1.183 1.956 5.373-.726 10.927 0 16.528-.227 1.366.048 2.685.275 3.914.639 3.961.5 7.65 1.638 11.472 2.412.912.501 2.096.319 2.962 1.001 4.144.774 7.74 2.778 11.792 3.687 6.145 2.644 12.291 5.236 18.256 8.334.864 0 1.41.818 2.278.864a44.602 44.602 0 0 1 .317-6.465c.455 1.82.544 3.688.774 5.69.593 4.099.957 8.787 1.866 13.021 6.192.048 11.611.32 17.71.229.183-.73.502-1.41.547-2.184.319-1.185 4.508-17.53 4.69-18.94.773-3.05 10.154-45.53 10.926-46.075 2.278 1.002 4.235 2.731 6.555 3.596.366-7.285.275-15.753.23-23.083z" fill="#231F20"/><path d="M107.813 47.656l.227.318-.092 8.423c-2.002.092-4.597-.455-5.918 1.32-1.41 6.282-.591 12.293-.953 19.442-.32 13.338-.777 30.548-.913 44.89l-.319.227c-2.595-.318-6.237.183-9.06 0C84.956 105.84 78.81 89.541 73.21 73.015l-.228-.228c-.82-2.777-1.821-5.555-2.96-8.104-.455 7.194-.136 13.43-.546 20.215-.5 4.235.227 7.967-.32 11.792.092 2.776-.91 16.662.958 19.26 2.095.68 3.868-.458 6.009-.685l.228.455c-.092 2.777-.32 5.736-.228 8.286-.592.546-1.502.366-2.185.683-6.738 1.73-13.476 3.825-19.76 6.328-.501-.956 0-2.64 0-3.914-.09-1.732.137-3.46.228-5.372 2.186-1.41 5.19-1.41 6.783-3.825 1.64-6.374.456-12.656.957-19.123.137-13.34.636-23.993.455-36.832-.274-.455-.364-.957-.683-1.41-1.775-1.23-4.143 0-6.101.227l-.228-.547.228-8.833c1.412-.637 3.051-.59 4.598-.91 4.917-.82 9.562-1.365 14.525-2.05.591 2.414 1.82 4.6 2.276 7.104 4.917 13.43 16.073 44.8 16.073 44.8.5-1.458 1-30.4.545-42.297-1.366-2.367-4.371-1.412-6.784-1.638-.136-2.96.092-5.737 0-8.65 6.51-.683 13.57-.047 20.762-.09m15.208 1.318c3.414.548 7.466 1.093 11.016 1.64 0 2.914.091 6.19-.091 9.151-2.321-.091-5.51-1.867-6.874.683-1.184 8.922-.501 17.346-1.003 26.952-.135 10.153-.635 19.489-.454 29.64 5.28 1.002 10.015 4.28 15.663 3.507 3.87-2.28 3.324-7.105 4.231-10.928.184-3.37.55-6.921.55-10.518 1.637.955 3.733 1.138 5.145 2.412-.093 5.83-.231 11.384-.32 17.03-.275 6.101.089 12.291-.318 18.028-1.732-.456-5.693-2.55-6.012-2.504-11.153-5.008-22.852-8.74-35.102-11.156v-8.83c1.776-.09 4.964 1.275 6.329-.773 1.138-7.513.592-15.434.911-23.585.364-9.926.499-19.213.41-29.094-.09-1.183-.503-2.457-1.639-3.05-1.41-.774-3.186-.728-4.918-.865.092-2.96-.183-5.873.227-8.831 4.144.18 7.97.863 12.249 1.09m-69.843 2.825c.184.91.184 1.593 0 2.504l-.09 7.101c-1.047.274-2.094.547-3.051.866-1.593.546-3.186 1.82-3.278 3.643-.637 11.427-.819 20.76-.865 31.868-.274 2.597-.136 6.922-.136 6.922-.046 4.598-.228 9.06-.774 13.203-.592 1.821-.547 4.233-1.276 6.1-2.912 11.698-11.246 21.945-21.762 27.864-2.367.73-4.462 1.457-6.646.226-4.554-3.823-4.28-9.832-4.828-15.386.228-18.576.457-36.015.638-54.864-.045-.908-.136-2.276-1.184-2.73-2.047-.093-3.414 1.365-5.143 2.094-.092-3.78.136-7.376.227-11.474 7.42-3.915 15.297-7.239 23.037-10.516l.228.319c.091 3.686-.136 6.737-.228 10.06-2.55 1.367-6.238 2.05-7.102 5.464-.774 7.923-.728 15.98-.865 24.722-.092 9.243-.683 19.44-.32 29.047.092 2.87.366 6.74 3.506 7.878.911.226 1.457-.411 2.277-.32 14.523-6.147 13.021-22.99 13.113-36.514.045-10.607.819-20.897.453-31.687-.317-.502-.272-1.275-1-1.548-1.958-.683-3.87.727-5.781 1.093.317-3.28 0-6.74.317-10.016 6.785-2.505 13.568-3.916 20.533-5.92m115.281 8.742l.226.454c.089 3.552-.137 6.693-.226 10.017-1.915-.41-3.782-2.048-6.01-1.73-1.413 1.276-.911 3.551-.866 5.145.455 3.505.865 6.829 1.319 10.472.411.408.047 1.092.319 1.547 1.412 9.653 2.87 19.303 4.144 28.639.684 4.142 1.32 8.285 1.958 12.428.637-.819.592-1.956.91-2.96 3.234-13.703 6.602-27.407 9.47-41.294.183-2.367.864-5.145-1.185-6.874-1.591-1.594-3.642-2.14-5.462-3.28.045-3.139-.092-7.191.093-10.47.771-.137 1.499.546 2.184.865 3.185 1.094 6.011 3.005 9.104 4.235 3.28 1.775 6.603 3.505 9.835 5.37.228 4.099 0 8.015-.228 11.93-1.32-.957-2.777-1.822-4.506-1.456-2.778 3.55-2.595 8.558-3.918 12.793-4.232 17.756-8.011 35.33-12.79 52.902-.32.956-.366 2.276-.957 2.962-3.1-.275-6.511.09-9.518-.365-.317-.684-.317-1.957-.454-2.73-2.14-21.037-4.234-42.48-7.877-63.378-1.135-6.83-1.364-14.067-4.006-20.306-1.184-1.774-3.097-2.276-4.917-2.73-.091-3.279.135-6.694.18-9.608 7.743 2.14 15.574 4.736 23.178 7.422" fill="#E51636"/><path d="M181.95 153.327a1.52 1.52 0 0 0-.527-.072h-.221v1.01h.353c.213 0 .378-.042.497-.127.118-.085.178-.224.178-.414 0-.19-.093-.323-.28-.397zm-1.662 2.796v-3.482a246.019 246.019 0 0 1 1.688.009c.276.02.505.08.687.179.31.17.465.448.465.83 0 .294-.083.506-.246.637a1.15 1.15 0 0 1-.605.234c.22.045.386.112.497.2.205.164.308.424.308.779v.311a.526.526 0 0 0 .032.205l.03.098h-.871a2.55 2.55 0 0 1-.057-.482c-.009-.21-.028-.352-.057-.426a.42.42 0 0 0-.255-.256 1.016 1.016 0 0 0-.31-.056l-.2-.013h-.192v1.233h-.914zm-.472-3.567c-.5.512-.75 1.118-.75 1.82 0 .727.255 1.344.764 1.853a2.485 2.485 0 0 0 1.831.762c.713 0 1.322-.254 1.827-.766a2.544 2.544 0 0 0 .759-1.85c0-.698-.252-1.305-.754-1.819-.509-.523-1.119-.784-1.832-.784a2.48 2.48 0 0 0-1.845.784zm4.045 4.072a3.05 3.05 0 0 1-2.2.886c-.883 0-1.627-.302-2.231-.908-.606-.604-.909-1.349-.909-2.233 0-.918.327-1.68.981-2.288a3.069 3.069 0 0 1 2.16-.852c.867 0 1.607.306 2.22.92.615.613.921 1.353.921 2.22 0 .893-.313 1.645-.942 2.255z" fill="#100F0D"/></g></svg>