<svg width="200" height="201" fill="none" xmlns="http://www.w3.org/2000/svg"><g clip-path="url(#a)"><path d="M186.684 155.007v-.012c-.007-.027-.019-.052-.025-.079l.028.094-.003-.003ZM185.451 155.591v-.009a.344.344 0 0 1-.015-.055l.018.064h-.003ZM119.195 110.852v-.009c-.006-.019-.012-.037-.015-.055l.018.064h-.003Z" fill="#1F5C48"/><path d="M185.39 83.357h-4.631c-5.607 0-8.778 1.059-10.229 1.725L185.429 32H128.83l-12.38 44.11h-12.544s-2.044 7.293-2.574 9.179h-3.225c-.359-.21-.916-.478-1.643-.742L111.205 32h-56.6L42.227 76.11H8.956L.573 105.984c-2.246 7.995 2.06 13.779 14.062 13.779h9.368c2.495 0 4.515-.237 6.127-.551l-4.624 16.479c-2.951 10.514 2.391 33.564 57.469 33.564 63.223 0 72.201-29.463 72.551-30.714l5.653-20.144h2.485l.387-1.372c1.801.925 4.776 1.81 9.705 1.81h4.631c10.077 0 15.979-3.578 18.042-10.934 0 0 3.018-10.765 3.021-10.765 1.874-6.684-.663-13.78-14.062-13.78m-55.24-49.616h52.988l-11.89 42.37h-19.228l-2.574 9.179h-2.3c-1.156-.657-4.117-1.932-9.861-1.932h-4.631c-5.573 0-8.774 1.068-10.228 1.731.733-2.62 2.519-8.978 2.519-8.978h-6.681l11.886-42.37Zm-74.224 0h52.988L94.794 84.044c-.952-.23-2.13-.422-3.511-.544a33.95 33.95 0 0 0-3.055-.14h-3.687c-6.082 0-9.794 1.46-11.714 2.525-1.052-1.165-2.875-2.525-5.784-2.525h-17.85l2.036-7.247h-7.196l11.89-42.373Zm97.931 104.33c-.337 1.202-8.975 29.445-70.874 29.445-57.929 0-57.542-25.128-55.799-31.35l3.091-11.02H49.87l1.773-6.31h3.651c5.47 0 8.745-1.807 10.476-3.225 1.66 1.482 5.035 3.225 11.771 3.225h4.63c1.03 0 1.99-.045 2.897-.125l-2.142 7.631c-.377 1.339.11 1.853 1.16 1.853h15.893c1.914 0 4.162-1.795 4.716-3.761l1.695-6.039h9.708c.67.219 1.561.438 2.726.438h4.382c1.29 0 2.586-.158 3.851-.438h18.322s.399-1.418.402-1.433c1.086.791 2.574 1.433 4.606 1.433h8.991l-5.523 19.676Zm-66.922-19.579c4.37-.669 7.15-2.193 8.814-3.505 1.12 1.759 3.152 3.408 6.529 3.408h2.307l-1.561 5.568c-.341 1.211-1.902 2.489-3.04 2.489H84.702l2.233-7.96h-.003ZM197.78 96.665l-3.022 10.764c-1.627 5.805-6.133 9.666-16.365 9.666h-4.631c-8.789 0-10.7-2.963-10.7-2.963l-.709 2.522h-11.963c-4.074 0-5.409-3.268-5.409-3.268l-.916 3.268h-17.138a15.9 15.9 0 0 1-3.718.441h-4.382a7.135 7.135 0 0 1-2.504-.441h-14.044c-5.217 0-5.911-4.759-5.911-4.759s-3.1 5.2-14.196 5.2h-4.63c-10.163 0-11.644-4.086-11.644-4.086s-2.65 4.086-10.604 4.086h-1.977a11.31 11.31 0 0 1-2.89-.368l-1.875 6.678H32.05l2.032-7.25s-3.124 1.865-10.076 1.865h-9.368c-12.298 0-13.953-5.997-12.389-11.571l8.03-28.605h38.66l-2.036 7.25h20.145c3.918 0 5.351 3.146 5.351 3.146s3.383-3.146 12.146-3.146h3.687c7.077 0 9.368 1.93 9.368 1.93h5.051l2.574-9.18h17.421l-2.577 9.18h2.382s2.909-1.93 10.201-1.93h4.631c6.894 0 9.371 1.93 9.371 1.93h4.107l2.577-9.18h17.418l-2.577 9.18h2.383s2.814-1.93 10.201-1.93h4.631c11.436 0 14.156 5.255 12.386 11.568" fill="#fff"/><path d="M88.226 88.623h-3.688c-8.297 0-11.68 2.495-12.973 7.09-1.09 3.879 1.21 4.822 1.21 4.822l10.832 4.423c.48.198.746.828.584 1.397l-.538 1.914c-.162.572-.76 1.04-1.333 1.04h-2.55c-.572 0-.906-.468-.745-1.04l1.016-3.621h-10.98l-.514 1.829c-1.287 4.591.697 7.089 8.993 7.089h4.631c8.294 0 11.683-2.498 12.973-7.089 1.162-4.144-1.384-5.188-1.384-5.188l-10.582-4.326c-.48-.198-.745-.825-.584-1.397l.465-1.649c.159-.572.758-1.04 1.333-1.04h1.607c.571 0 .91.468.748 1.04l-.791 2.815h10.983l.286-1.023c1.29-4.59-.697-7.089-8.993-7.089M137.282 88.623h-4.63c-8.294 0-11.683 2.495-12.973 7.09l-.749 2.668h10.983l1.251-4.46c.158-.573.758-1.041 1.33-1.041h2.552c.572 0 .91.468.749 1.04l-1.087 3.861-13.612 3.566c-1.779.466-3.629 2.251-4.113 3.964l-1.15 4.099c-.642 2.284.706 4.159 2.988 4.159h4.381c1.211 0 2.309-.177 3.274-.442h14.908l4.886-17.415c1.29-4.59-.697-7.089-8.991-7.089m-5.513 19.646c-.158.575-.757 1.04-1.329 1.04h-2.553c-.569 0-.91-.468-.745-1.04l.964-3.441c.161-.572.764-1.269 1.339-1.549l4.305-2.069-1.981 7.056v.003ZM185.39 88.623h-4.631c-8.294 0-11.68 2.495-12.973 7.09l-3.021 10.764c-1.29 4.591.696 7.089 8.99 7.089h4.631c8.294 0 11.683-2.498 12.973-7.089l.955-3.396h-10.983l-1.457 5.188c-.162.572-.761 1.04-1.333 1.04h-2.55c-.571 0-.909-.468-.748-1.04l1.895-6.749h15.611l1.196-4.256.435-1.552c1.29-4.594-.697-7.089-8.993-7.089m-1.485 5.297-.937 3.344h-4.631l.937-3.344c.162-.572.761-1.04 1.333-1.04h2.549c.572 0 .91.468.746 1.04M67.044 88.624H42.248l2.032-7.25H32.338l-6.635 23.642c-.162.572-.76 1.041-1.333 1.041h-5.367c-.572 0-.91-.469-.748-1.041l6.635-23.643H12.95l-7.305 26.029c-1.29 4.594.696 7.089 8.993 7.089h9.368c8.294 0 11.683-2.498 12.973-7.089l3.727-13.284h17.872c.572 0 .906.469.748 1.04l-2.948 10.509c-.164.575-.76 1.038-1.333 1.038h-4.43c-.569 0-.906-.466-.748-1.038l1.883-6.708H42.57l-5.869 20.92h9.18l2.363-8.419s1.586 2.106 5.075 2.106h1.978c4.798 0 8.406-1.309 10.03-7.089l4.087-14.565c.508-1.81-.557-3.288-2.367-3.288M114.415 94.121h2.486l1.001-3.566h-2.483l2.571-9.179h-10.089l-2.577 9.18h-2.485l-1.001 3.565h2.485l-4.408 15.718c-.508 1.807.557 3.289 2.364 3.289h9.292l1.071-3.819h-1.449c-.572 0-.909-.468-.748-1.04l3.97-14.148ZM166.009 90.552h-2.482l2.574-9.179h-10.095l-2.574 9.18h-2.489l-1.001 3.565h2.489l-4.409 15.718c-.508 1.807.557 3.289 2.364 3.289h9.292l1.071-3.816h-1.448c-.572 0-.907-.468-.749-1.04l3.971-14.148h2.489l.997-3.566v-.003ZM163.904 125.015v-4.178h1.457v-.502h-3.343v.502h1.384v4.178h.502ZM170.037 125.015v-4.68h-.806l-1.199 3.806-1.198-3.806h-.807v4.68h.502v-3.977l1.254 3.977h.502l1.25-3.977v3.977h.502Z" fill="#fff"/><path d="M82.978 163.989c59.939 0 67.482-26.875 67.482-26.875l5.254-18.717h-5.324c-2.03 0-3.521-.642-4.607-1.433-.006.015-.401 1.433-.401 1.433h-18.319a17.721 17.721 0 0 1-3.852.438h-4.381a8.526 8.526 0 0 1-2.726-.438h-6.045l-1.963 6.989c-.979 3.486-4.63 6.337-8.114 6.337H84.088c-3.484 0-5.537-2.851-4.558-6.337l1.841-6.551h-3.824c-6.736 0-10.11-1.74-11.772-3.225-1.73 1.418-5.008 3.225-10.475 3.225h-3.65l-1.775 6.31h-15.93l-3.359 11.969s-7.542 26.875 52.398 26.875M49.194 83.357h17.85c2.909 0 4.734 1.36 5.784 2.525 1.92-1.068 5.632-2.525 11.713-2.525h3.688a33.8 33.8 0 0 1 3.055.14l12.973-46.23H58.601l-10.9 38.84h3.529s-1.437 5.111-2.036 7.247M122.42 85.088c1.454-.663 4.655-1.731 10.229-1.731h4.63c5.744 0 8.705 1.272 9.861 1.929h2.3l2.574-9.18h15.562l10.901-38.84h-45.655l-10.901 38.84h3.018l-2.522 8.979" fill="#008445"/><path d="M85.068 118.71a32.88 32.88 0 0 1-2.897.125h-.806l-1.837 6.551c-.977 3.486 1.074 6.337 4.557 6.337H99.98c3.484 0 7.135-2.851 8.114-6.337l1.963-6.992h-3.663l-1.695 6.039c-.554 1.966-2.802 3.761-4.716 3.761H84.088c-1.05 0-1.54-.517-1.159-1.853l2.142-7.631h-.003ZM132.822 37.27h45.655l-10.901 38.84h3.666l11.894-42.37h-52.988l-11.89 42.37h3.663l10.901-38.84Z" fill="#231F20"/><path d="M33.939 125.145h-3.666l-3.091 11.02c-1.747 6.225-2.13 31.35 55.796 31.35 61.902 0 70.539-28.243 70.874-29.445l5.522-19.673h-3.666l-5.255 18.72s-7.542 26.872-67.482 26.872-52.397-26.872-52.397-26.872l3.359-11.969.006-.003ZM58.599 37.27h45.655L91.281 83.5c1.384.125 2.558.313 3.51.544l14.121-50.304H55.924l-11.89 42.37H47.7l10.901-38.84H58.6ZM183.903 93.92c.161-.572-.177-1.04-.746-1.04h-2.549c-.572 0-1.172.468-1.333 1.04l-.937 3.344h4.631l.937-3.344h-.003Z" fill="#231F20"/><path d="M14.635 118.023h9.367c6.95 0 10.077-1.868 10.077-1.868l-2.032 7.25h16.502l1.874-6.678a11.18 11.18 0 0 0 2.89.368h1.978c7.953 0 10.603-4.086 10.603-4.086s1.482 4.086 11.644 4.086h4.63c11.1 0 14.197-5.2 14.197-5.2s.693 4.759 5.911 4.759h14.044c.444.17 1.336.441 2.504.441h4.381c1.357 0 2.602-.173 3.718-.441h17.138l.916-3.268s1.336 3.268 5.41 3.268h11.963l.709-2.522s1.913 2.963 10.7 2.963h4.631c10.231 0 14.737-3.858 16.365-9.666l3.021-10.764c1.771-6.313-.949-11.568-12.386-11.568h-4.63c-7.387 0-10.202 1.93-10.202 1.93h-2.382l2.577-9.18h-17.418l-2.577 9.18h-4.107s-2.477-1.93-9.371-1.93h-4.631c-7.29 0-10.201 1.93-10.201 1.93h-2.383l2.577-9.177h-17.421l-2.574 9.176h-5.05s-2.294-1.929-9.368-1.929h-3.688c-8.765 0-12.145 3.146-12.145 3.146s-1.433-3.146-5.352-3.146H46.9l2.032-7.25H10.275l-8.03 28.605c-1.563 5.574.092 11.571 12.39 11.571Zm166.125-29.4h4.63c8.294 0 10.281 2.495 8.994 7.09l-.438 1.551-1.193 4.253h-15.611l-1.895 6.749c-.162.575.176 1.04.748 1.04h2.55c.572 0 1.171-.465 1.329-1.04l1.458-5.188h10.983l-.955 3.396c-1.29 4.591-4.677 7.089-12.973 7.089h-4.631c-8.294 0-10.281-2.498-8.991-7.089l3.022-10.765c1.29-4.59 4.676-7.089 12.973-7.089m-32.737 21.219 4.408-15.718h-2.489l1.001-3.566h2.489l2.574-9.179h10.092l-2.574 9.18h2.483l-.998 3.565h-2.486l-3.97 14.151c-.159.575.176 1.04.748 1.04h1.448l-1.071 3.819h-9.288c-1.811 0-2.872-1.482-2.364-3.289m-12.979-16.965h-2.55c-.572 0-1.171.468-1.33 1.04l-1.25 4.46h-10.983l.748-2.665c1.29-4.59 4.676-7.088 12.97-7.088h4.631c8.294 0 10.28 2.494 8.993 7.088l-4.886 17.416h-14.905c-.964.261-2.063.438-3.274.438h-4.381c-2.282 0-3.63-1.871-2.988-4.156l1.15-4.099c.481-1.712 2.334-3.498 4.114-3.964l13.612-3.563 1.086-3.86c.158-.573-.176-1.041-.751-1.041m-35.14 16.956 4.408-15.718h-2.486l1.001-3.566h2.486l2.577-9.179h10.088l-2.571 9.18h2.483l-1.001 3.565h-2.486l-3.97 14.151c-.161.575.177 1.04.748 1.04h1.449l-1.071 3.819h-9.292c-1.807 0-2.872-1.482-2.364-3.289m-28.344-14.13c1.29-4.59 4.677-7.088 12.974-7.088h3.687c8.294 0 10.28 2.494 8.99 7.088l-.285 1.023H85.95l.791-2.815c.158-.572-.176-1.04-.748-1.04h-1.607c-.575 0-1.171.468-1.33 1.04l-.465 1.65c-.158.568.104 1.198.584 1.396l10.582 4.326s2.547 1.041 1.384 5.188c-1.29 4.591-4.676 7.089-12.973 7.089h-4.63c-8.294 0-10.28-2.498-8.994-7.089l.514-1.829h10.984l-1.017 3.621c-.158.575.177 1.04.749 1.04h2.55c.572 0 1.17-.465 1.33-1.04l.538-1.914c.158-.569-.107-1.199-.588-1.396l-10.828-4.424s-2.3-.94-1.21-4.822M5.643 107.405l7.305-26.029h11.942l-6.636 23.643c-.161.572.177 1.041.749 1.041h5.366c.572 0 1.172-.469 1.333-1.041l6.636-23.643H44.28l-2.035 7.25h24.8c1.806 0 2.874 1.48 2.366 3.29l-4.086 14.564c-1.625 5.78-5.233 7.089-10.03 7.089h-1.978c-3.49 0-5.075-2.106-5.075-2.106l-2.364 8.419h-9.18l5.87-20.92h9.179l-1.884 6.708c-.16.575.177 1.038.746 1.038h4.43c.572 0 1.168-.466 1.332-1.038l2.948-10.508c.159-.572-.176-1.04-.748-1.04H40.7l-3.728 13.283c-1.29 4.591-4.676 7.089-12.973 7.089h-9.367c-8.294 0-10.284-2.498-8.994-7.089" fill="#231F20"/><path d="m128.103 104.828-.964 3.441c-.164.575.176 1.04.745 1.04h2.553c.572 0 1.171-.468 1.33-1.04l1.98-7.056-4.305 2.069c-.575.28-1.18.977-1.339 1.546Z" fill="#231F20"/></g><defs><clipPath id="a"><path fill="#fff" transform="translate(0 32)" d="M0 0h200v137.255H0z"/></clipPath></defs></svg>