<svg width="200" height="200" xmlns="http://www.w3.org/2000/svg"><g fill-rule="nonzero" fill="none"><path d="M155.25 50.306c1.89.907 3.806 1.934 5.616 3.382 1.032 3.35 1.482 6.839 1.93 10.45 11.735-1.68 24.354-3.428 36.606-5.25-18.792 25.475-37.643 50.971-56.115 76.536l-.06.297c-4.233-2.1-10.06-.727-13.532 2.6-12.256 12-20.932 26.657-28.331 41.322-.575.351-1.253.41-1.81.175-1.193-1.756-1.95-3.721-2.962-5.434-6.835-12.153-14.247-24.055-24.406-34.31-3.837-3.617-9.195-6.55-14.374-4.712-.104.053-.255.133-.242.3C38.312 110.296 19.275 84.632 0 59.304c12.268 2.007 24.39 3.488 36.73 5.26.312-3.632 1.383-8.017 1.994-10.392.084-.318 4.265-2.84 5.98-3.748C60.519 27.421 89.8 16.6 116.95 23.848c14.86 3.694 28.854 13.174 38.3 26.458" fill="#0C2950"/><path d="M147.576 46.017c2.35 2.657 3.678 6.519 2.356 10.03-4.068 8.345-14.077 9.338-22.23 9.241-8.736-.88-17.598-3.088-23.016-10.451-2.007-2.597-2.518-6.903-.724-9.667.151-.158.06-.433.24-.602l-.18-.123c-2.796 1.031-6.04.338-8.818.123-.253.472.41.572.546 1.025 1.583 3.04.946 7.158-1.09 9.85-2.215 3.196-5.587 5.084-8.64 6.886-9.987 4.162-23.198 4.825-32.557-1.03-2.908-2.03-4.782-5.09-4.771-8.58 1.574-8.678 11.145-12.68 18.664-14.434 5.6-1.263 11.956-1.322 17.82.057 6.81 2.681 15.328 5.171 22.833 2.059 11.574-5.02 26.592-4.014 37.152 3.442l2.415 2.174" fill="#FFF"/><path d="M144.313 47.59c1.43 1.69 2.836 3.758 2.477 6.098-.363 2.052-2.18 4.09-3.984 4.955-.173-.065-.115-.185-.063-.245 1.174-.985 1.596-2.52 1.27-3.925-2.254-4.36-7.115-5.859-11.235-7.124-7.066-1.677-15.686-2.337-22.054 1.262-1.36.894-2.567 2.242-2.17 3.925-.094.443.298.865.121 1.275-1.694-1.677-2.512-4.123-1.752-6.404 2.79-5.374 8.907-6.37 14.558-6.827 8.568-.112 16.642 1.485 22.832 7.01M90.912 45.35c1.18 1.244 1.848 2.784 1.754 4.535-.178 1.403-.931 2.565-1.635 3.743h-.179c.37-.89.246-2.068-.123-2.959-3.552-4.377-9.413-4.408-14.735-4.412-6.615.291-13.05 1.694-18.242 5.68-1.068 1.042-2.29 2.235-2.356 3.803.065 1.163.546 2.235 1.507 3.022v.183c-1.413-.413-2.742-1.83-3.627-3.082-1-1.555-1.031-3.912-.12-5.497 3.313-5.312 9.155-7.352 14.744-8.697 6.943-1.415 14.957-1.355 21.022 2.053l1.99 1.629" fill="#0C2950"/><path d="m103.602 68.791-3.63 22.952-3.86-23.077c1.389-1.21 2.624-2.374 3.744-3.798.877 1.472 2.292 2.766 3.746 3.923M93.214 87.637l-5.503-14.558c1.62-.582 3.205-1.322 4.832-2.053.29 5.503.55 11.027.671 16.61M111.997 73.14c-1.759 4.942-3.626 9.835-5.377 14.797l.42-16.854 4.957 2.057M84.331 74.167c-.119 2.645-.119 5.44-.243 8.036-1.045-2.249-2.35-4.86-3.322-7.314a71.277 71.277 0 0 1 3.565-.722M119.004 74.83c-.976 2.53-2.273 5.094-3.323 7.674-.308-2.55-.308-5.613-.243-8.337 1.158.155 2.334.594 3.566.663M123.415 77.793c-.085-.814-.042-1.737.24-2.6h1.875l-2.115 2.6M76.36 77.85l-2.058-2.538h1.875l.182 2.538" fill="#F68B1A"/><path d="M71.104 87.698c-.85 1.6-.397 3.53.544 5.01 1.093 1.541 2.694 2.477 4.648 2.419.492-.141 1.038-.197 1.513-.477.942 1.14 1.743 2.483 2.477 3.862-1.91 1.263-4.506.603-6.408-.18-4.34-2.363-8.426-6.71-7.67-11.845l.302-.78c1.641.274 3.184.936 4.594 1.991M133.86 86.973c.184 4.851-3.208 8.65-6.895 10.83-2.02 1.116-5.07 1.955-7.176.646.61-1.376 1.439-2.65 2.353-3.863 1.098.6 2.787.6 3.99 0 1.981-1.045 3.309-3.172 3.199-5.38l-.422-1.57c1.333-1.01 2.92-1.551 4.65-1.813l.302 1.15" fill="#FFF"/><path d="M157.664 86.247c-4.373 3.823-9.458 6.329-15.164 6.946.21-1.27.573-2.842 1.093-3.987 4.836-.135 9.516-1.493 14.07-2.96M56.843 89.453c.187 1.309.489 2.62.91 3.923-5.708-.71-11.065-2.943-15.406-6.947 4.578 1.526 9.46 2.614 14.496 3.024M157.243 93.558c-5.583 4.394-11.83 7.617-19.03 7.615.991-1.55 2.007-3.075 2.838-4.654 5.627.07 10.994-1.376 16.192-2.96M59.139 96.757c.708 1.52 1.572 2.882 2.66 4.352-.348-.141-.334.125-.548.239-7.028-.29-13.142-3.204-18.3-7.31l.063-.059-.429-.357c5.19 1.546 10.592 3.063 16.554 3.135M64.213 103.886a42.764 42.764 0 0 0 6.105 5.2c-9.635 1.393-18.528-1.944-25.795-7.37 6.2 1.68 12.836 2.951 19.69 2.17M155.611 101.716c-7.27 5.304-16.117 8.669-25.613 7.184 1.858-1.547 4.152-3.21 5.98-5.192 6.626.931 13.298-.418 19.633-1.992M126.375 117.053a38.691 38.691 0 0 0-2.6-4.71l2.358-1.211c8.638 2.143 17.666.96 26.094-1.08-7.42 4.923-16.25 7.882-25.852 7M73.999 111.317c.798.381 1.613.806 2.48 1.27-.913 1.424-1.776 2.89-2.417 4.466-9.41 1.217-18.028-1.681-25.37-6.7 7.911 1.812 17.032 2.876 25.307.964M146.365 119.232c-5.329 3.275-11.16 5.42-17.578 5.676-.297-1.505-.733-3.064-1.145-4.47 6.056 1 12.684-.028 18.723-1.206M72.67 120.557l-1.205 4.6c-6.509-.277-12.065-2.708-17.276-5.863 5.693 1.632 12.321 1.817 18.481 1.263" fill="#F68B1A"/><path d="M103.117 107.511c10.163 4.924 16.269 16.24 16.251 27.487l.12.123c4.414-2.196 9.199-4.651 14.62-3.509-5.982 1.63-10.522 6.537-15.044 10.88-4.052 4.02-7.676 8.26-11.175 12.742-2.243-15.001-4.624-30.715-6.583-45.792-.286-.566-.834-.85-1.333-.843-.507.007-.978.413-1.083.906l-6.043 46.153c-5.9-7.366-12.572-14.491-19.93-20.478-2.119-1.708-4.413-2.827-6.831-3.568 5.268-.993 10.404 1.284 14.92 3.509-.083-2.828.416-5.803 1.03-8.098 2.013-7.774 6.963-15.789 14.679-19.512 0 0 3.345-1.632 6.402 0" fill="#FFF"/><path d="m90.912 122.29-2.306-4.454c.681-1.576 1.468-2.415 3.358-3.145l-1.052 7.6" fill="#0C2950"/><path d="M96.683 107.554c-2.849-.973-5.24-2.513-7.578-4.454-6.792-5.243-9.521-13.71-16.796-18.183-5.542-4.149-12.518-4.737-17.759-9.42-1.218-.96-2.305-2.246-3.14-3.443 7.066 3.854 15.461 4.018 22.713 7.431 6.303 3.397 11.755 9.106 14.982 15.463 1.961 3.828 4.273 8.087 8.213 10.51 1.993.93 4.858.854 6.644-.667 6.685-5.696 7.65-14.39 14.616-20.112 4.585-4.755 10.542-7.277 16.979-8.278a64.637 64.637 0 0 0 13.166-4.83c-3.705 5.35-9.967 8.37-15.767 10.388-6.457 2.311-11.998 8.412-15.464 14.195-3.386 4.72-8.278 9.41-13.712 11.175-1.593.54-2.484 1.378-7.097.225" fill="#FFF"/><path d="m109.202 121.775 2.071-4.578c-.762-1.534-1.59-2.327-3.514-2.962l1.443 7.54" fill="#0C2950"/></g></svg>