<?xml version="1.0" encoding="UTF-8"?>
<svg width="200px" height="200px" viewBox="0 0 200 200" version="1.1" xmlns="http://www.w3.org/2000/svg" xmlns:xlink="http://www.w3.org/1999/xlink">
    <!-- Generator: Sketch 51.3 (57544) - http://www.bohemiancoding.com/sketch -->
    <title>utah</title>
    <desc>Created with Sketch.</desc>
    <defs></defs>
    <g id="utah" stroke="none" stroke-width="1" fill="none" fill-rule="evenodd">
        <g id="utah_BGL" transform="translate(0.000000, 9.950249)">
            <g id="utah">
                <g id="g10" transform="translate(99.999998, 91.093427) scale(-1, 1) rotate(-180.000000) translate(-99.999998, -91.093427) translate(0.000000, 0.379735)" fill-rule="nonzero">
                    <g id="g12">
                        <path d="M171.120602,125.224676 L163.710905,125.224676 L163.710905,72.4214719 L163.660602,72.3786768 L147.564845,54.9629137 L101.769694,54.9629137 L85.6696948,72.3786768 L85.6206039,72.4214719 L85.6206039,125.224676 L78.2157556,125.224676 L78.2157556,148.71018 L122.364239,148.71018 L122.364239,125.224676 L117.671512,125.224676 L117.671512,80.8249955 L131.664845,80.8249955 L131.664845,125.224676 L126.967876,125.224676 L126.967876,148.71018 L171.120602,148.71018 L171.120602,125.224676 Z M124.668482,172.714048 C88.0030281,172.714048 58.2779379,143.669995 58.2779379,107.854059 C58.2779379,72.032699 88.0030281,42.9832816 124.668482,42.9832816 C161.328481,42.9832816 191.056965,72.032699 191.056965,107.854059 C191.056965,143.669995 161.328481,172.714048 124.668482,172.714048 Z" id="path14" fill="#FFFFFF"></path>
                        <path d="M41.770605,91.3797295 L40.7838778,98.8013752 L40.7944838,98.9532679 L41.3243626,106.125978 L44.4888474,105.898742 C44.4888474,105.898742 43.9987868,99.190751 43.9704231,98.8875683 C44.0101807,98.5849884 44.9244837,91.7793519 44.9244837,91.7793519 L41.770605,91.3797295 Z M39.5598778,52.0249956 C39.5598778,52.0249956 38.457393,63.8226578 38.4289687,64.1463339 C38.3359384,64.438667 35.667393,72.896438 35.667393,72.896438 C35.667393,72.896438 38.7277566,80.4802232 38.9372718,80.9883404 C38.9372718,81.5054989 38.9372718,85.1021009 38.9372718,85.1021009 L42.1131505,85.1021009 L42.1131505,80.3934274 C42.1131505,80.3934274 39.3889687,73.6528877 39.0303021,72.7662442 C39.3231505,71.8488606 41.5622414,64.7520964 41.5622414,64.7520964 L42.7251504,52.3162438 L39.5598778,52.0249956 Z M16.794242,33.5092762 L13.619333,33.5092762 C13.619333,33.5092762 13.619333,37.0532582 13.619333,38.0025876 C13.309636,38.3263239 12.5478179,39.1365388 12.5478179,39.1365388 L12.5601209,39.763277 L12.8241209,51.9484465 L16.0009693,51.8858209 C16.0009693,51.8858209 15.7746057,41.4509736 15.746242,40.3269677 C16.0492723,40.0027491 16.794242,39.2123646 16.794242,39.2123646 L16.794242,33.5092762 Z M49.9433927,142.141424 C49.7736957,142.0046 49.59612,141.85994 49.4019988,141.699609 L46.6728473,132.09541 L46.5568473,131.906147 C46.5568473,131.906147 42.1233323,124.814205 42.1020596,124.825054 C42.0901808,124.80878 36.9521809,111.266823 36.7978173,110.8672 C36.7646657,110.44166 36.070787,101.004422 36.070787,101.004422 C36.070787,101.004422 28.3119993,91.8125031 27.6455751,91.0235049 C27.6455751,90.1157653 27.6455751,85.0279628 27.6455751,84.4215975 C27.9145448,83.8839456 29.5144235,80.6731028 29.5144235,80.6731028 L29.321272,76.7317285 L26.1451509,76.8818129 C26.1451509,76.8818129 26.2727266,79.4007001 26.3049084,80.0257506 C26.0127872,80.6098142 24.4696964,83.698299 24.4696964,83.698299 L24.4696964,92.1464259 C24.4696964,92.1464259 32.3816356,101.50169 32.9827264,102.214742 C33.0433325,103.111632 33.6654537,111.532032 33.6654537,111.532032 L33.7429082,111.742392 C33.7429082,111.742392 39.1243021,125.916632 39.2563627,126.186664 C39.2563627,126.186664 43.5130292,132.991697 43.7277565,133.348525 C43.7781807,133.510664 44.3290898,135.449707 44.9736958,137.712426 C31.8797568,125.122812 3.60582415,90.742624 3.29166658,28.4328054 C4.6865514,27.8705613 9.18539371,26.0460407 9.18539371,26.0460407 C9.18539371,26.0460407 9.26278765,22.54401 9.27909068,21.5831079 C9.47303007,21.4215712 9.52696946,21.3770884 9.7693937,21.1734196 C10.9280603,22.0798935 13.3269694,23.9592642 13.3269694,23.9592642 L15.7845451,23.9592642 C15.7845451,23.9592642 18.1614541,21.097413 18.7679995,20.3736322 C19.2206662,20.3187821 19.5120601,20.2867158 20.1133934,20.2214984 C20.7966661,21.3029503 22.3245449,23.7440829 22.3245449,23.7440829 C22.3245449,23.7440829 29.3430296,30.8847272 30.037878,31.5972365 C30.115272,32.4189639 30.633272,37.9383345 30.7873932,39.5167528 L22.213757,56.4342235 L22.4950297,61.7269003 C22.4950297,61.7269003 25.6815751,66.792401 26.1451509,67.5156996 C26.1224236,67.797786 26.1176357,67.9159248 26.0958781,68.2185047 C25.6110297,68.7489236 24.0561206,70.4553054 24.0561206,70.4553054 L24.0561206,73.4581999 L27.2317569,73.4581999 C27.2317569,73.4581999 27.2317569,72.3123744 27.2317569,71.6427205 C27.7440599,71.0713147 29.1941205,69.4945238 29.1941205,69.4945238 L29.3826053,66.7279069 C29.3826053,66.7279069 26.0013933,61.3688675 25.6216963,60.7757627 C25.5942418,60.1706029 25.4616357,57.6854094 25.42806,57.0815154 C25.7750903,56.3890173 33.4010295,41.3509173 33.6830295,40.8018735 L38.2478778,37.0311373 C38.6058172,38.8676526 39.4114536,43.0482579 39.4114536,43.0482579 C39.4114536,43.0482579 44.0101807,42.6379065 45.4661201,42.4973455 C46.1266655,43.9234491 48.4258776,48.827353 48.4258776,48.827353 C48.4258776,48.827353 51.4751502,48.7631 52.8316956,48.7418832 C53.1851502,50.3723789 54.225635,55.1371684 54.225635,55.1371684 C54.225635,55.1371684 55.8698168,55.2129941 56.2663622,55.2334273 C56.6024834,56.3353727 57.0606046,57.8156031 57.2196955,58.3345698 C56.9995137,59.1320065 53.8787865,70.4125102 53.8787865,70.4125102 L53.9888471,70.8115299 L55.9633319,77.9601305 C51.7836351,87.0990076 49.4569079,97.2149404 49.4569079,107.854059 C49.4569079,120.229697 52.6079381,131.897708 58.1603016,142.141424 L49.9433927,142.141424 Z" id="path16" fill="#FFFFFF"></path>
                        <polygon id="path18" fill="#FFFFFF" points="55.6993319 161.563798 50.996423 150.14653 55.6993319 150.14653"></polygon>
                        <polyline id="path20" fill="#CE0F3E" points="126.967876 148.71018 126.967876 125.224676 131.664845 125.224676 131.664845 80.8249955 117.671512 80.8249955 117.671512 125.224676 122.364239 125.224676 122.364239 148.71018 78.2157556 148.71018 78.2157556 125.224676 85.6206039 125.224676 85.6206039 72.4214719 85.6696948 72.3786768 101.769694 54.9629137 147.564845 54.9629137 163.660602 72.3786768 163.710905 72.4214719 163.710905 125.224676 171.120602 125.224676 171.120602 148.71018 126.967876 148.71018"></polyline>
                        <path d="M21.7670298,16.8943854 L17.1141208,17.4337853 C17.1141208,17.4337853 15.0570299,19.9099978 14.3406663,20.7616216 C13.5305451,20.1365108 9.70406036,17.1427782 9.70406036,17.1427782 L6.13612106,20.11439 C6.13612106,20.11439 6.07624227,22.7942713 6.05373924,23.9496202 C5.49147865,24.1763743 4.35629686,24.6288578 3.22538174,25.0941196 C3.20809689,23.7977275 3.19223628,22.3396179 3.18655144,21.8091387 C3.67187264,21.3029503 4.90648473,20.0065582 4.90648473,20.0065582 C4.90648473,20.0065582 4.75284231,16.0192544 4.72561806,15.2735336 C5.13754533,14.5930905 8.64466645,8.86770039 9.02509068,8.2534391 C9.6214543,7.92849724 12.7031512,6.26503114 12.7031512,6.26503114 C12.7031512,6.26503114 13.1335148,4.2119422 13.3591512,3.11028017 C13.5852118,3.11028017 13.6295148,3.11028017 13.8163027,3.11028017 C14.3299996,3.61837931 15.3827875,4.655059 15.3827875,4.655059 C15.3827875,4.655059 17.8032723,5.68208265 18.668545,6.05883078 C19.0483026,7.11786039 21.2265449,13.2218371 21.2265449,13.2218371 C21.2265449,13.2218371 23.2341206,13.8693701 24.0009691,14.1066723 C24.5849691,15.4477883 26.00806,18.6767136 26.0127872,18.6767136 C26.0127872,18.6767136 27.0161205,21.8315007 28.0527872,25.0941196 C26.3989084,23.4090148 24.9493327,21.9296885 24.8494539,21.8315007 C24.684666,21.560987 21.7670298,16.8943854 21.7670298,16.8943854" id="path22" fill="#CE0F3E"></path>
                        <path d="M58.6590894,52.2192615 C58.6590894,52.2192615 57.1541198,52.1547071 56.8172107,52.1439179 C56.4763016,50.5670668 55.3896956,45.5870961 55.3896956,45.5870961 C55.3896956,45.5870961 51.7012108,45.6520724 50.44412,45.6740124 C49.8103624,44.3236743 47.405514,39.2033837 47.405514,39.2033837 C47.405514,39.2033837 43.6076959,39.5480957 41.9919383,39.6874512 C41.6664232,37.9924614 40.7786656,33.4224201 40.7786656,33.4224201 L37.6351506,33.4224201 L37.1896354,33.8022121 L33.7107264,36.7182504 L33.367878,33.0457021 L34.2663628,33.2940949 L38.7166051,27.9675436 L41.6491505,23.8073715 C41.6491505,23.8073715 41.9587868,22.4681842 42.1676353,21.5722584 C42.6311504,21.5404936 42.7416959,21.5289811 43.1377565,21.4983614 C44.1368474,22.7942713 46.2983019,25.5913873 46.4356352,25.7319484 C46.4356352,25.7319484 48.2933321,27.4606319 48.9940594,28.097014 C48.9940594,28.6703487 48.9940594,29.1668931 48.9940594,29.6107573 C48.5975139,30.2038621 46.4249685,33.4224201 46.4249685,33.4224201 L50.1849078,36.5656345 C50.1849078,36.5656345 52.0373926,35.9299756 52.9140593,35.6271546 C53.4709078,36.4041581 53.911938,37.0094987 54.3581805,37.6355135 C54.1818168,38.0477937 53.547332,39.4943908 53.547332,39.4943908 C53.547332,39.4943908 55.9905441,41.5903894 56.5189683,42.0555909 C56.7296349,42.8217449 58.0146652,47.6183595 58.0146652,47.6183595 C58.0146652,47.6183595 60.7593924,50.9878457 61.8296954,52.3065998 C61.3109076,52.9340613 60.3849682,54.0453492 59.5310288,55.0611015 L58.6590894,52.2192615" id="path24" fill="#CE0F3E"></path>
                        <path d="M44.4888474,105.898742 L41.3243626,106.125978 L40.7944838,98.9532679 L40.7838778,98.8013752 L41.770605,91.3797295 L44.9244837,91.7793519 C44.9244837,91.7793519 44.0101807,98.5849884 43.9704231,98.8875683 C43.9987868,99.190751 44.4888474,105.898742 44.4888474,105.898742" id="path26" fill="#231F20"></path>
                        <path d="M39.0303021,72.7662442 C39.3889687,73.6528877 42.1131505,80.3934274 42.1131505,80.3934274 L42.1131505,85.1021009 L38.9372718,85.1021009 C38.9372718,85.1021009 38.9372718,81.5054989 38.9372718,80.9883404 C38.7277566,80.4802232 35.667393,72.896438 35.667393,72.896438 C35.667393,72.896438 38.3359384,64.438667 38.4289687,64.1463339 C38.457393,63.8226578 39.5598778,52.0249956 39.5598778,52.0249956 L42.7251504,52.3162438 L41.5622414,64.7520964 C41.5622414,64.7520964 39.3231505,71.8488606 39.0303021,72.7662442" id="path28" fill="#231F20"></path>
                        <path d="M16.0009693,51.8858209 L12.8241209,51.9484465 L12.5601209,39.763277 L12.5478179,39.1365388 C12.5478179,39.1365388 13.309636,38.3263239 13.619333,38.0025876 C13.619333,37.0532582 13.619333,33.5092762 13.619333,33.5092762 L16.794242,33.5092762 L16.794242,39.2123646 C16.794242,39.2123646 16.0492723,40.0027491 15.746242,40.3269677 C15.7746057,41.4509736 16.0009693,51.8858209 16.0009693,51.8858209" id="path30" fill="#231F20"></path>
                        <path d="M124.668482,42.9832816 C88.0030281,42.9832816 58.2779379,72.032699 58.2779379,107.854059 C58.2779379,143.669995 88.0030281,172.714048 124.668482,172.714048 C161.328481,172.714048 191.056965,143.669995 191.056965,107.854059 C191.056965,72.032699 161.328481,42.9832816 124.668482,42.9832816 Z M49.4569079,107.854059 C49.4569079,97.2149404 51.7836351,87.0990076 55.9633319,77.9601305 L53.9888471,70.8115299 L53.8787865,70.4125102 C53.8787865,70.4125102 56.9995137,59.1320065 57.2196955,58.3345698 C57.0606046,57.8156031 56.6024834,56.3353727 56.2663622,55.2334273 C55.8698168,55.2129941 54.225635,55.1371684 54.225635,55.1371684 C54.225635,55.1371684 53.1851502,50.3723789 52.8316956,48.7418832 C51.4751502,48.7631 48.4258776,48.827353 48.4258776,48.827353 C48.4258776,48.827353 46.1266655,43.9234491 45.4661201,42.4973455 C44.0101807,42.6379065 39.4114536,43.0482579 39.4114536,43.0482579 C39.4114536,43.0482579 38.6058172,38.8676526 38.2478778,37.0311373 L33.6830295,40.8018735 C33.4010295,41.3509173 25.7750903,56.3890173 25.42806,57.0815154 C25.4616357,57.6854094 25.5942418,60.1706029 25.6216963,60.7757627 C26.0013933,61.3688675 29.3826053,66.7279069 29.3826053,66.7279069 L29.1941205,69.4945238 C29.1941205,69.4945238 27.7440599,71.0713147 27.2317569,71.6427205 C27.2317569,72.3123744 27.2317569,73.4581999 27.2317569,73.4581999 L24.0561206,73.4581999 L24.0561206,70.4553054 C24.0561206,70.4553054 25.6110297,68.7489236 26.0958781,68.2185047 C26.1176357,67.9159248 26.1224236,67.797786 26.1451509,67.5156996 C25.6815751,66.792401 22.4950297,61.7269003 22.4950297,61.7269003 L22.213757,56.4342235 L30.7873932,39.5167528 C30.633272,37.9383345 30.115272,32.4189639 30.037878,31.5972365 C29.3430296,30.8847272 22.3245449,23.7440829 22.3245449,23.7440829 C22.3245449,23.7440829 20.7966661,21.3029503 20.1133934,20.2214984 C19.5120601,20.2867158 19.2206662,20.3187821 18.7679995,20.3736322 C18.1614541,21.097413 15.7845451,23.9592642 15.7845451,23.9592642 L13.3269694,23.9592642 C13.3269694,23.9592642 10.9280603,22.0798935 9.7693937,21.1734196 C9.52696946,21.3770884 9.47303007,21.4215712 9.27909068,21.5831079 C9.26278765,22.54401 9.18539371,26.0460407 9.18539371,26.0460407 C9.18539371,26.0460407 4.6865514,27.8705613 3.29166658,28.4328054 C3.60582415,90.742624 31.8797568,125.122812 44.9736958,137.712426 C44.3290898,135.449707 43.7781807,133.510664 43.7277565,133.348525 C43.5130292,132.991697 39.2563627,126.186664 39.2563627,126.186664 C39.1243021,125.916632 33.7429082,111.742392 33.7429082,111.742392 L33.6654537,111.532032 C33.6654537,111.532032 33.0433325,103.111632 32.9827264,102.214742 C32.3816356,101.50169 24.4696964,92.1464259 24.4696964,92.1464259 L24.4696964,83.698299 C24.4696964,83.698299 26.0127872,80.6098142 26.3049084,80.0257506 C26.2727266,79.4007001 26.1451509,76.8818129 26.1451509,76.8818129 L29.321272,76.7317285 L29.5144235,80.6731028 C29.5144235,80.6731028 27.9145448,83.8839456 27.6455751,84.4215975 C27.6455751,85.0279628 27.6455751,90.1157653 27.6455751,91.0235049 C28.3119993,91.8125031 36.070787,101.004422 36.070787,101.004422 C36.070787,101.004422 36.7646657,110.44166 36.7978173,110.8672 C36.9521809,111.266823 42.0901808,124.80878 42.1020596,124.825054 C42.1233323,124.814205 46.5568473,131.906147 46.5568473,131.906147 L46.6728473,132.09541 L49.4019988,141.699609 C49.59612,141.85994 49.7736957,142.0046 49.9433927,142.141424 L58.1603016,142.141424 C52.6079381,131.897708 49.4569079,120.229697 49.4569079,107.854059 Z M59.5310288,55.0611015 C60.3849682,54.0453492 61.3109076,52.9340613 61.8296954,52.3065998 C60.7593924,50.9878457 58.0146652,47.6183595 58.0146652,47.6183595 C58.0146652,47.6183595 56.7296349,42.8217449 56.5189683,42.0555909 C55.9905441,41.5903894 53.547332,39.4943908 53.547332,39.4943908 C53.547332,39.4943908 54.1818168,38.0477937 54.3581805,37.6355135 C53.911938,37.0094987 53.4709078,36.4041581 52.9140593,35.6271546 C52.0373926,35.9299756 50.1849078,36.5656345 50.1849078,36.5656345 L46.4249685,33.4224201 C46.4249685,33.4224201 48.5975139,30.2038621 48.9940594,29.6107573 C48.9940594,29.1668931 48.9940594,28.6703487 48.9940594,28.097014 C48.2933321,27.4606319 46.4356352,25.7319484 46.4356352,25.7319484 C46.2983019,25.5913873 44.1368474,22.7942713 43.1377565,21.4983614 C42.7416959,21.5289811 42.6311504,21.5404936 42.1676353,21.5722584 C41.9587868,22.4681842 41.6491505,23.8073715 41.6491505,23.8073715 L38.7166051,27.9675436 L34.2663628,33.2940949 L33.367878,33.0457021 L33.7107264,36.7182504 L37.1896354,33.8022121 L37.6351506,33.4224201 L40.7786656,33.4224201 C40.7786656,33.4224201 41.6664232,37.9924614 41.9919383,39.6874512 C43.6076959,39.5480957 47.405514,39.2033837 47.405514,39.2033837 C47.405514,39.2033837 49.8103624,44.3236743 50.44412,45.6740124 C51.7012108,45.6520724 55.3896956,45.5870961 55.3896956,45.5870961 C55.3896956,45.5870961 56.4763016,50.5670668 56.8172107,52.1439179 C57.1541198,52.1547071 58.6590894,52.2192615 58.6590894,52.2192615 L59.5310288,55.0611015 Z M26.0127872,18.6767136 C26.00806,18.6767136 24.5849691,15.4477883 24.0009691,14.1066723 C23.2341206,13.8693701 21.2265449,13.2218371 21.2265449,13.2218371 C21.2265449,13.2218371 19.0483026,7.11786039 18.668545,6.05883078 C17.8032723,5.68208265 15.3827875,4.655059 15.3827875,4.655059 C15.3827875,4.655059 14.3299996,3.61837931 13.8163027,3.11028017 C13.6295148,3.11028017 13.5852118,3.11028017 13.3591512,3.11028017 C13.1335148,4.2119422 12.7031512,6.26503114 12.7031512,6.26503114 C12.7031512,6.26503114 9.6214543,7.92849724 9.02509068,8.2534391 C8.64466645,8.86770039 5.13754533,14.5930905 4.72561806,15.2735336 C4.75284231,16.0192544 4.90648473,20.0065582 4.90648473,20.0065582 C4.90648473,20.0065582 3.67187264,21.3029503 3.18655144,21.8091387 C3.19223628,22.3396179 3.20809689,23.7977275 3.22538174,25.0941196 C4.35629686,24.6288578 5.49147865,24.1763743 6.05373924,23.9496202 C6.07624227,22.7942713 6.13612106,20.11439 6.13612106,20.11439 L9.70406036,17.1427782 C9.70406036,17.1427782 13.5305451,20.1365108 14.3406663,20.7616216 C15.0570299,19.9099978 17.1141208,17.4337853 17.1141208,17.4337853 L21.7670298,16.8943854 C21.7670298,16.8943854 24.684666,21.560987 24.8494539,21.8315007 C24.9493327,21.9296885 26.3989084,23.4090148 28.0527872,25.0941196 C27.0161205,21.8315007 26.0127872,18.6767136 26.0127872,18.6767136 Z M55.6993319,161.563798 L55.6993319,150.14653 L50.996423,150.14653 L55.6993319,161.563798 Z M124.668482,181.35626 C99.2933309,181.35626 76.8175738,169.010759 63.1903015,150.14653 L57.9046046,150.14653 L57.9046046,167.032538 L55.3466047,167.032538 L49.2592109,157.525381 L45.9069685,161.068941 L45.2014534,158.735701 L47.4943018,150.14653 L42.7578171,150.14653 L42.7578171,142.141424 L45.1216958,142.141424 C32.8856355,131.168985 0.0823866646,95.4115161 0.0767048466,27.4382699 L0,20.6001452 C0,20.6001452 1.19649694,19.3373865 1.68631511,18.8293296 C1.6479636,17.8776495 1.5163333,14.4647653 1.5163333,14.4647653 L6.74218165,5.9309516 C6.74218165,5.9309516 9.04145432,4.68707701 9.88563612,4.23431021 C10.0788482,3.30499213 10.7623028,0 10.7623028,0 L15.1283027,0 C15.1283027,0 16.8716965,1.70629742 17.2024238,2.02886446 C17.6766056,2.23487797 21.2104843,3.74787386 21.2104843,3.74787386 C21.2104843,3.74787386 23.2883631,9.57050547 23.7085449,10.7482163 C24.4912115,10.9966091 26.3496963,11.5914016 26.3496963,11.5914016 L28.9843629,17.5971905 C29.0343023,17.7273842 31.9680598,26.9301527 32.8330901,29.6533717 C32.9770295,29.6955038 32.9827264,29.6955038 33.1370901,29.7402278 C34.0295749,28.6703487 36.1749688,26.0990224 36.1804233,26.0990224 C36.1804233,26.0881729 38.2424233,23.1613453 38.6941202,22.5343058 C38.805393,22.0474053 39.5871505,18.6454309 39.5871505,18.6454309 L44.6214534,18.2668444 C44.6214534,18.2668444 48.7679988,23.636673 48.78412,23.6571665 C48.8011503,23.6458951 51.6735139,26.292565 51.6735139,26.292565 L52.1699987,26.7578268 L52.1699987,30.5489961 C52.1699987,30.5489961 51.2265442,31.9529788 50.6252109,32.8394415 C50.7360593,32.9378703 50.7530896,32.9475143 50.8572715,33.0325019 C51.7338775,32.7316097 54.1266653,31.9101234 54.1266653,31.9101234 L57.9756349,37.2684998 C57.9756349,37.2684998 57.4895743,38.3812343 57.3747864,38.6408985 C58.1015743,39.2794506 59.3487258,40.3474612 59.3487258,40.3474612 C59.3487258,40.3474612 60.7593924,45.6203075 60.9139379,46.1917736 C61.2945439,46.6558299 65.9151499,52.3275152 65.9151499,52.3275152 L60.3186652,59.0356872 C59.6190894,61.5545141 57.3470895,69.7639526 57.1647864,70.4125102 C57.2386652,70.681939 57.6204834,72.0586172 58.0773925,73.7137653 C70.6806043,50.3264495 95.7981794,34.3404065 124.668482,34.3404065 C166.136966,34.3404065 199.879389,67.32282 199.879389,107.854059 C199.879389,148.381079 166.136966,181.35626 124.668482,181.35626 Z" id="path32" fill="#231F20"></path>
                        <path d="M188.750904,47.7268542 C188.029086,47.0136819 187.154541,46.658904 186.123632,46.658904 C185.092723,46.658904 184.216965,47.0136819 183.496359,47.7268542 C182.778783,48.4381581 182.421814,49.2994258 182.421814,50.3121041 C182.421814,51.3136917 182.780601,52.170258 183.501208,52.8796933 C184.22848,53.5921424 185.101207,53.9467395 186.123632,53.9467395 C187.149692,53.9467395 188.026056,53.5921424 188.750904,52.8796933 C189.473329,52.170258 189.832116,51.3136917 189.832116,50.3121041 C189.832116,49.2994258 189.473329,48.4381581 188.750904,47.7268542 Z M186.132117,54.5247756 C184.944238,54.5247756 183.930904,54.1148461 183.093935,53.294505 C182.252117,52.4711502 181.830298,51.4778202 181.830298,50.3168055 C181.830298,49.1445194 182.247268,48.1469099 183.08242,47.323555 C183.921208,46.4942933 184.936359,46.0824953 186.132117,46.0824953 C187.32545,46.0824953 188.34545,46.4942933 189.186056,47.323555 C190.027268,48.1492606 190.449692,49.1475934 190.449692,50.3168055 C190.449692,51.4801709 190.027268,52.4747064 189.186056,53.294505 C188.34545,54.1148461 187.32545,54.5247756 186.132117,54.5247756 Z" id="path34" fill="#231F20"></path>
                        <path d="M186.79151,50.5164962 C186.612117,50.4488678 186.343026,50.4133659 185.986056,50.4133659 L185.22242,50.4133659 L185.22242,52.0689962 L185.944238,52.0689962 C186.413329,52.0689962 186.753935,52.0125187 186.966056,51.8978758 C187.178783,51.7846193 187.28545,51.5628078 187.28545,51.2305727 C187.28545,50.8792907 187.121207,50.6417474 186.79151,50.5164962 Z M188.090298,51.3066396 C188.090298,51.8888949 187.844844,52.2818871 187.353329,52.4807942 C187.076965,52.5917 186.643632,52.6454049 186.054541,52.6454049 L184.391511,52.6454049 L184.391511,48.0108092 L185.22242,48.0108092 L185.22242,49.8376805 L185.886056,49.8376805 C186.332117,49.8376805 186.643632,49.7863263 186.821814,49.6881385 C187.123632,49.5139441 187.272723,49.1595881 187.272723,48.6255527 L187.272723,48.2578157 L187.290298,48.1082737 C187.295753,48.089709 187.298177,48.0727718 187.301813,48.0577031 C187.304844,48.0426343 187.309692,48.0263601 187.314541,48.0108092 L188.090298,48.0108092 L188.061207,48.0699389 C188.041813,48.105501 188.029086,48.1878968 188.02242,48.3115206 C188.012723,48.4332155 188.009086,48.5490639 188.009086,48.6561723 L188.009086,48.9949774 C188.009086,49.2287837 187.92545,49.4706065 187.753935,49.7140567 C187.584238,49.960581 187.314541,50.1124134 186.947874,50.1699156 C187.238783,50.2155437 187.466662,50.2897421 187.629692,50.3944998 C187.936359,50.5875603 188.090298,50.8932142 188.090298,51.3066396 Z" id="path36" fill="#231F20"></path>
                    </g>
                </g>
            </g>
        </g>
    </g>
</svg>