<svg width="200" height="200" xmlns="http://www.w3.org/2000/svg"><g fill="none"><path d="M171.12 66.533h-7.41v52.803l-.05.043-16.095 17.415H101.77l-16.1-17.415-.05-.043V66.533h-7.404V43.047h44.148v23.486h-4.692v44.4h13.993v-44.4h-4.697V43.047h44.153v23.486zm-46.452-47.49c-36.665 0-66.39 29.044-66.39 64.86 0 35.822 29.725 64.871 66.39 64.871 36.66 0 66.389-29.05 66.389-64.87 0-35.817-29.729-64.86-66.389-64.86zM41.77 100.378l-.986-7.422.01-.152.53-7.173 3.165.228s-.49 6.708-.519 7.01l.954 7.109-3.153.4zm-2.21 39.354s-1.103-11.797-1.131-12.121l-2.762-8.75s3.06-7.584 3.27-8.092v-4.114h3.176v4.709l-3.083 7.627c.293.918 2.532 8.014 2.532 8.014l1.163 12.436-3.165.291zm-22.766 18.516H13.62v-4.493c-.31-.324-1.071-1.134-1.071-1.134l.012-.627.264-12.185 3.177.063s-.226 10.434-.255 11.558c.303.325 1.048 1.115 1.048 1.115v5.703zm33.15-108.632c-.17.137-.348.281-.542.442l-2.73 9.604-.115.19s-4.434 7.091-4.455 7.08c-.012.017-5.15 13.559-5.304 13.958-.033.426-.727 9.863-.727 9.863l-8.425 9.98v6.603c.269.537 1.868 3.748 1.868 3.748l-.193 3.942-3.176-.15.16-3.144-1.835-3.673v-8.448s7.912-9.355 8.513-10.068c.06-.897.682-9.318.682-9.318l.078-.21s5.381-14.174 5.513-14.444c0 0 4.257-6.805 4.472-7.162.05-.162.601-2.101 1.246-4.364-13.094 12.59-41.368 46.97-41.682 109.28 1.395.562 5.893 2.386 5.893 2.386s.078 3.502.094 4.463c.194.162.248.206.49.41 1.16-.907 3.558-2.786 3.558-2.786h2.458s2.376 2.862 2.983 3.586c.453.055.744.087 1.345.152a1452.47 1452.47 0 0 0 2.212-3.523s7.018-7.14 7.713-7.853c.077-.822.595-6.341.75-7.92l-8.574-16.917.281-5.293s3.187-5.065 3.65-5.788c-.023-.282-.027-.4-.05-.703l-2.039-2.237V118.3h3.176v1.816c.512.571 1.962 2.148 1.962 2.148l.189 2.766s-3.382 5.36-3.761 5.953c-.028.605-.16 3.09-.194 3.694.347.692 7.973 15.73 8.255 16.28l4.565 3.77c.358-1.836 1.163-6.017 1.163-6.017s4.6.41 6.055.551c.66-1.426 2.96-6.33 2.96-6.33s3.05.064 4.406.085c.353-1.63 1.394-6.395 1.394-6.395s1.644-.076 2.04-.096c.336-1.102.795-2.582.954-3.101l-3.341-12.078.11-.4 1.974-7.148a71.669 71.669 0 0 1-6.506-29.894c0-12.375 3.15-24.043 8.703-34.287h-8.217zM55.7 30.194L50.995 41.61H55.7z" fill="#FFF"/><path fill="#CE0F3E" d="M126.968 43.047v23.486h4.697v44.4h-13.993v-44.4h4.692V43.047H78.216v23.486h7.405v52.803l.049.043 16.1 17.415h45.795l16.096-17.415.05-.043V66.533h7.41V43.047h-44.153M21.767 174.863l-4.653-.54s-2.057-2.476-2.773-3.327c-.81.625-4.637 3.619-4.637 3.619l-3.568-2.972s-.06-2.68-.082-3.835c-.563-.227-1.698-.68-2.829-1.145-.017 1.297-.033 2.755-.038 3.285.485.506 1.72 1.803 1.72 1.803s-.154 3.987-.181 4.733c.412.68 3.919 6.406 4.3 7.02.595.325 3.677 1.988 3.677 1.988s.43 2.053.656 3.155h.457l1.567-1.545s2.42-1.027 3.286-1.403c.38-1.06 2.558-7.163 2.558-7.163s2.007-.648 2.774-.885c.584-1.341 2.007-4.57 2.012-4.57l2.04-6.418c-1.654 1.685-3.104 3.165-3.204 3.263-.164.27-3.082 4.937-3.082 4.937m36.893-35.325s-1.506.065-1.843.075a6207.46 6207.46 0 0 1-1.427 6.557l-4.946-.087-3.038 6.471s-3.798-.345-5.414-.484c-.326 1.695-1.213 6.265-1.213 6.265h-3.144l-.445-.38-3.48-2.916-.342 3.673.898-.249 4.45 5.327 2.933 4.16s.31 1.34.519 2.235c.463.032.574.043.97.074.999-1.296 3.16-4.093 3.298-4.234 0 0 1.857-1.728 2.558-2.365v-1.513a2303.69 2303.69 0 0 0-2.569-3.812l3.76-3.143s1.852.635 2.73.938c.556-.777.997-1.382 1.443-2.008-.176-.412-.81-1.859-.81-1.859s2.443-2.096 2.971-2.561c.21-.766 1.496-5.563 1.496-5.563s2.744-3.37 3.815-4.688a496.838 496.838 0 0 0-2.299-2.755l-.872 2.842"/><path d="M44.489 85.859l-3.165-.228-.53 7.173-.01.152.987 7.422 3.153-.4-.954-7.108c.029-.303.519-7.011.519-7.011m-5.459 33.132l3.083-7.627v-4.709h-3.176v4.114c-.21.508-3.27 8.092-3.27 8.092l2.762 8.75c.028.324 1.13 12.121 1.13 12.121l3.166-.29-1.163-12.437s-2.239-7.096-2.532-8.014m-23.029 20.881l-3.177-.063-.264 12.185-.012.627s.762.81 1.071 1.134v4.493h3.175v-5.703s-.745-.79-1.048-1.115c.029-1.124.255-11.558.255-11.558" fill="#231F20"/><path d="M124.668 148.774c-36.665 0-66.39-29.05-66.39-64.87 0-35.817 29.725-64.86 66.39-64.86 36.66 0 66.389 29.043 66.389 64.86 0 35.82-29.729 64.87-66.389 64.87zm-75.211-64.87a71.669 71.669 0 0 0 6.506 29.893l-1.974 7.149-.11.399 3.34 12.078c-.158.519-.617 1.999-.953 3.1-.396.021-2.04.097-2.04.097s-1.04 4.765-1.394 6.395c-1.357-.02-4.406-.085-4.406-.085s-2.3 4.904-2.96 6.33c-1.456-.14-6.055-.55-6.055-.55s-.805 4.18-1.163 6.016l-4.565-3.77c-.282-.55-7.908-15.588-8.255-16.28.034-.604.166-3.09.194-3.694.38-.593 3.76-5.953 3.76-5.953l-.188-2.766s-1.45-1.577-1.962-2.148v-1.816h-3.176v3.003l2.04 2.237c.022.302.026.42.05.703-.464.723-3.651 5.788-3.651 5.788l-.281 5.293 8.573 16.918c-.154 1.578-.672 7.097-.75 7.92-.694.712-7.712 7.852-7.712 7.852s-1.528 2.441-2.212 3.523a94.792 94.792 0 0 1-1.345-.152c-.607-.724-2.983-3.586-2.983-3.586h-2.458s-2.399 1.88-3.558 2.786c-.242-.204-.296-.248-.49-.41-.016-.96-.094-4.463-.094-4.463s-4.498-1.824-5.893-2.386c.314-62.31 28.588-96.69 41.682-109.28-.645 2.263-1.196 4.202-1.246 4.364-.215.357-4.472 7.162-4.472 7.162-.132.27-5.513 14.444-5.513 14.444l-.078.21s-.622 8.42-.682 9.318c-.601.713-8.513 10.068-8.513 10.068v8.448l1.835 3.673-.16 3.144 3.176.15.193-3.942-1.868-3.748v-6.602l8.425-9.981s.694-9.437.727-9.863c.154-.4 5.292-13.941 5.304-13.958.021.011 4.455-7.08 4.455-7.08l.116-.19 2.729-9.604c.194-.16.372-.305.541-.442h8.217c-5.552 10.244-8.703 21.912-8.703 34.287zm10.074 52.792c.854 1.016 1.78 2.127 2.299 2.755-1.07 1.319-3.815 4.688-3.815 4.688s-1.285 4.797-1.496 5.563c-.528.465-2.972 2.561-2.972 2.561s.635 1.447.811 1.859c-.446.626-.887 1.231-1.444 2.008-.877-.303-2.73-.938-2.73-.938l-3.759 3.143s2.173 3.219 2.57 3.812v1.513c-.702.637-2.56 2.365-2.56 2.365-.137.141-2.298 2.938-3.297 4.234-.396-.03-.507-.042-.97-.074-.21-.896-.519-2.235-.519-2.235l-2.932-4.16-4.45-5.327-.9.249.344-3.673 3.479 2.916.445.38h3.144s.887-4.57 1.213-6.265c1.616.14 5.414.484 5.414.484l3.038-6.47 4.946.086s1.086-4.98 1.427-6.557c.337-.01 1.842-.075 1.842-.075l.872-2.842zm-33.518 36.385c-.005 0-1.428 3.229-2.012 4.57-.767.237-2.774.885-2.774.885l-2.558 7.163c-.866.376-3.286 1.403-3.286 1.403l-1.567 1.545h-.457c-.225-1.102-.656-3.155-.656-3.155s-3.082-1.663-3.678-1.988c-.38-.614-3.887-6.34-4.3-7.02l.181-4.733s-1.234-1.297-1.72-1.803c.006-.53.022-1.988.04-3.285 1.13.466 2.265.918 2.828 1.145.022 1.155.082 3.835.082 3.835l3.568 2.972s3.827-2.994 4.637-3.62c.716.852 2.773 3.329 2.773 3.329l4.653.539s2.918-4.667 3.082-4.937c.1-.098 1.55-1.578 3.204-3.263l-2.04 6.418zM55.699 30.194V41.61h-4.703L55.7 30.194zM124.67 10.4c-25.376 0-47.851 12.346-61.479 31.21h-5.285V24.725h-2.558l-6.088 9.507-3.352-3.544-.706 2.334 2.293 8.589h-4.736v8.005h2.364C32.886 60.588.082 96.346.077 164.319L0 171.157s1.196 1.263 1.686 1.771l-.17 4.365 5.226 8.533s2.3 1.244 3.144 1.697l.876 4.234h4.366l2.074-2.028c.475-.207 4.008-1.72 4.008-1.72l2.499-7c.782-.248 2.64-.843 2.64-.843l2.635-6.006c.05-.13 2.984-9.333 3.85-12.056l.303-.087c.893 1.07 3.038 3.641 3.043 3.641 0 .011 2.062 2.938 2.514 3.565l.893 3.889 5.034.379 4.163-5.39c.017.01 2.89-2.636 2.89-2.636l.496-.465v-3.792s-.943-1.404-1.545-2.29c.111-.099.128-.108.232-.193l3.27 1.122 3.849-5.358s-.486-1.113-.601-1.373a271.13 271.13 0 0 1 1.974-1.706s1.41-5.273 1.565-5.844c.38-.464 5.001-6.136 5.001-6.136l-5.596-6.708c-.7-2.52-2.972-10.729-3.154-11.377l.912-3.301c12.604 23.387 37.721 39.373 66.591 39.373 41.469 0 75.211-32.982 75.211-73.514 0-40.527-33.742-73.502-75.21-73.502z" fill="#231F20"/><path d="M188.75 144.03c-.72.714-1.595 1.068-2.626 1.068s-1.907-.354-2.628-1.067c-.717-.712-1.074-1.573-1.074-2.586 0-1.001.359-1.858 1.08-2.567.726-.713 1.6-1.067 2.622-1.067 1.026 0 1.902.354 2.627 1.067.722.71 1.081 1.566 1.081 2.567a3.49 3.49 0 0 1-1.081 2.586zm-2.618-6.797c-1.188 0-2.201.41-3.038 1.23-.842.823-1.264 1.817-1.264 2.978 0 1.172.417 2.17 1.252 2.993.84.83 1.854 1.24 3.05 1.24 1.193 0 2.213-.41 3.054-1.24.841-.826 1.264-1.824 1.264-2.993 0-1.164-.423-2.158-1.264-2.978-.84-.82-1.86-1.23-3.054-1.23z" fill="#231F20"/><path d="M186.792 141.24c-.18.069-.449.104-.806.104h-.764v-1.656h.722c.47 0 .81.057 1.022.171.213.114.32.336.32.668 0 .351-.165.589-.494.714zm1.298-.79c0-.582-.245-.975-.737-1.173-.276-.111-.71-.165-1.298-.165h-1.663v4.635h.83v-1.827h.664c.446 0 .758.051.936.15.302.173.45.528.45 1.062v.368l.018.15c.006.018.008.035.012.05a.484.484 0 0 0 .013.047h.775l-.029-.06a.707.707 0 0 1-.039-.241 4.342 4.342 0 0 1-.013-.345v-.339c0-.233-.084-.475-.255-.719-.17-.246-.44-.398-.806-.456.29-.045.519-.12.682-.224.306-.193.46-.499.46-.912z" fill="#231F20"/></g></svg>