<svg width="200" height="200" xmlns="http://www.w3.org/2000/svg"><g fill="none"><path d="M199.218 89.539c-2.236-5.236-15.873-11.124-19.475-12.608-.931-1.664-2.716-6.843-3.131-8.44a4.6 4.6 0 0 0 .315-1.17c.017-.144.032-.296.04-.456l.036-.56-.168-.535c-3.316-10.402-22.933-23.935-30.562-27.826l-.377-.195c-6.05-3.096-20.21-10.34-45.985-11.878-30.367-1.816-45.25 2.762-58.378 6.8l-5.441 1.634C12.928 30.452 4.158 33.912.915 37.528l-.603.676-.157 1.084c-1.254 9.256 5.334 17.64 12.042 23.607C8.847 66.28 3.089 72.24 1.994 74.29l-.353.666-.005.759c-.003 23.355 8.54 44.97 17.072 58.35 2.359 3.996 6.324 8.312 6.53 8.603.061-3.605.403-9.864.74-12.676.046-.297.092-.604.142-.922.014-.082.029-.16.047-.224 4.962 20.58 16.345 32.113 27.043 41.404l4.934 4.293.004-6.566c-.004-1.14.093-2.367.26-3.628a36.578 36.578 0 0 1 1.845-7.435c3.433 4.153 8.226 8.366 12.977 10.414l5.12 2.211-1-5.514c-.022-.097-1.693-9.557 1.965-15.84 3.942-6.762 9.564-11.229 16.27-12.921 7.826-1.974 15.216.158 19.529 2.805 8.967 5.525 12.632 20.591 11.526 31.969l-.412 4.231 4.108-1.03c18.979-4.752 34.334-14.018 46.932-28.32.768-.875 1.64-1.673 2.481-2.448 1.151-1.056 2.143-1.969 2.802-2.989.527-.828.951-1.912 1.12-3.157.179-1.341.02-2.874-.573-4.467 3.621-3.354 6.123-8.133 7.47-14.23 1.179-1.084 3.187-3.289 4.872-7.002 2.284-5.023 3.596-9.775 4.11-13.606.459-3.348.3-5.988-.332-7.481" fill="#FFF"/><path d="M185.333 112.844c-3.677 3.087-10.52 4.327-14.812 3.99 2.724-2.878 7.885-9.524 7.885-9.524 3.992-1.707 8.067-4.07 10.343-6.093-2.27 3.192-4.19 6.268-5.798 7.046 4.356-1.988 8.281-4.457 9.566-5.951-1.646 3.526-3.512 7.446-7.184 10.532zm-8.428 14.7c-.513-.733-3.34-2.84-5.045-3.8 3.103-.741 8.926-3.456 12.22-5.174-.69 2.186-3.632 6.623-7.175 8.975zm-56.883-23.96c.69-4.751 1.738-10.652 1.835-11.35-2.98.431-9.923 2.403-16.165 9.979-.241-1.263-.053-4.243.052-5.613 5.795-5.005 11.083-6.983 11.866-7.378 1.91-.962 8.152-.224 10.714.127 0 0 .647 1.185 1.094 2.204a54.6 54.6 0 0 0 2.244 4.518c-3.607 1.654-9.445 5.906-11.64 7.513zm9.997 8.296c-16.656-2.265-27.742 1.331-37.681 4.884 2.53-7.488 6.349-13.065 10.264-17.174-.047 2.03.154 7.333 1.12 10.378 4.396-5.045 10.226-10.803 14.63-13.123-.344 2.21-.377 8 .2 10.497 4.911-3.296 12.015-7.412 12.015-7.412-.325 2.99-.576 9.804-.548 11.95zm2.905-2.583c-.004-1.78.614-6.818 1.108-9.296a57.223 57.223 0 0 0 4.187 5.615c-1.407 1.09-4.665 3.206-5.295 3.68zm14.896-6.675c-.517 4.213-1.736 9.051-2.983 12.494-2.719-.8-5.306-1.452-7.787-1.99.867-.725 8.846-7.662 10.77-10.504zm26.341 32.517c-.252 1.846-1.843 2.797-5.535 2.255 0 0-.976 5.771-7.018 11.358-6.046 5.587-11.79 6.979-15.459 7.375 8.605-5.551 12.452-11.28 12.872-13.785-5.211 6.322-13.687 10.375-17.532 11.519 4.995-4.608 6.57-7.588 6.83-9.095-3.92 3.975-9.502 6.44-14.347 8.123-.067-14.41-5.588-21.33-8.71-25.27 2.479-1.288 13.06-1.537 16.788-1.098.54-.469.071-1.348-.882-1.686-1.88-.663-18.153-5.052-34.216-2.458-11.537 1.864-15.388 4.364-17.784 5.46-2.393 1.092-3.475-2.722-3.82-4.244-5.039-19.372 13.346-39.224 29.48-46.206 16.13-6.977 28.59-.447 43.259 4.552 0 0-2.745 1.09-2.503 3.081.127 1.101 4.697 4.455 8.2 8.08 3.102 3.214 5.516 6.323 6.633 7.957-.37-.973-.86-8.382-1.006-10.399 6.345 4.868 7 13.547 6.63 15.668-.37 2.115-5.28 6.286-8.518 9.849-9.122-.99-15-5.626-17.418-7.456.698-6.358.72-11.027-.226-13.493-1.264 1.554-5.038 5.545-8.148 7.593-8.56-10.67-7.251-21.503-7.042-24.894-32.03 1.227-44.94 32.34-45.829 44.397 0 0 9.743-9.492 35.115-7.538 25.367 1.952 42.8 11.177 45.49 13.169 2.691 1.991 4.948 5.342 4.696 7.186zM122.175 67.67c-4.195 0-7.841.222-8.247.3-2.508-3.115-8.568-11.548-5.557-10.974 1.99.635 6.284 2.386 10.733 4.408l3.071 6.266zm9.77.614c-2.537-.446-5.998-.598-9.211-.614l2.337-3.417c2.989 1.51 5.55 2.959 6.873 4.03zm32.43 6.834l-4.04-1.092c-1.05-1.034-1.429-1.703-1.429-1.703.912-.071 2.32-.222 3.783-.388l1.686 3.183zM53.048 40.677c31.337-11.142 61.003-7.857 77.91-2.17 19.18 6.454 31.313 19.752 31.809 20.188.494.439 2.531 4.541-1.681 1.006-4.208-3.535-6.846-5.928-13.804-9.654 2.994 2.506 9.143 9.45 9.604 13.77.46 4.318-5.67 5.4-7.554 5.204-1.89-.195-4.941-9.496-6.89-12.414-.605-.955-1.251-.072-.623 1.432.627 1.505 1.71 5.241 1.835 7.754.045.897.07 1.662-.356 1.789-.339.106-2.035.276-5.569-4.818-3.532-5.098-8.625-12.551-12.202-15.786-6.735-6.088-20.265-9.654-32.615-9.61 4.173 1.542 10.739 5.272 13.328 8.223-10.651-3.607-29.973-7.197-53.192-4.914zM70.944 147.91c-5.399-4.486-13.613-13.367-14.703-28.696-1.578 4.879-1.508 12.975 1.285 23.7-1.515 2.55-3.474 5.897-4.261 8.403-10.183-9.337-24.525-20.413-22.533-53.84-3.555 7.3-6.013 12.301-7.29 17.58-5.268-7.837-12.323-20.586-13.2-37.835.994-2.422 11.715-11.305 17.406-15.12-5.302-2.751-12.785-10.665-14.537-17.41 2.173-2.096 10.435-5.98 37.796 2.194-2.458.89-5.106 1.143-6.477 1.009-1.373-.127-16.526-3.373-20.33-.986-3.365 2.105-.058 4.882.325 4.938l8.3 1.313c-1.182 1.356-1.813 4.427-1.014 5.53 2.131-.705 6.549-1.359 8.703-.63-2.366 1.797-8.494 8.018-10.034 13.304 9.215-6.968 18.276-10.408 32.262-12.01-11.065 4.67-27.866 12.894-31.753 31.633 9.022-8.03 18.624-14.23 39.704-15.28-4.3 2.164-17.99 10.812-21.5 19.432-3.505 8.611-.462 16.284-.358 16.717 3.196-8.745 6.039-11.372 9.579-13.964 7.688-5.626 18.76-7.292 18.76-7.292-4.066 5.956-11.6 15.357-5.188 33.83 1.307-8.999 3.893-15.734 7.679-17.805-1.287 5.165-1.92 15.335 1.739 24.596-2.229 2.281-8.759 9.816-10.36 16.69zm96.536-76.55l1.113-.14c.954 1.473 1.457 3.406 1.34 5.403l-4.956-1.34 2.503-3.923zm28.62 19.103c-1.504-3.507-13.512-9.322-18.585-11.228-1.257-1.108-3.905-9.142-4.188-10.489-.283-1.35.31-.893.377-2.104-2.823-8.807-20.906-21.744-28.952-25.834-5.602-2.845-19.398-10.125-45.014-11.646-34.51-2.05-48.686 4.32-63.186 8.43-24.968-4.24-31.391.315-33.044 2.15C2.296 47.993 8.93 56.29 16.945 62.713 15.77 63.77 6.12 73.498 4.995 75.59c-.01 26.855 11.402 48.901 18.046 58.511-.37-2.768 1.113-12.296 4.126-20.682 2.103 28.546 14.94 42.174 28.167 53.612.005-5.52 1.938-12.834 4.611-16.682 2.824 4.689 8.817 10.839 14.564 13.307 0 0-1.952-10.45 2.32-17.748 10.607-18.111 29.756-17.19 39.778-11.053 10.016 6.137 14.086 22.314 12.895 34.505 17.725-4.417 32.746-13.043 45.24-27.156 1.872-2.111 4.162-3.736 4.991-5.028.83-1.292 1.282-3.94-.673-6.735 6.111-4.315 7.867-11.75 8.488-14.938 0 0 2.688-1.882 4.824-6.555 4.108-8.985 4.587-16.496 3.729-18.485z" fill="#275935"/><path d="M157.605 165.335v2.11h-.342v-2.87h.342l.872 1.857.878-1.857h.334v2.87h-.346v-2.11l-.712 1.54h-.299l-.727-1.54zm-2.96-.76h2.12v.327h-.878v2.543h-.359v-2.543h-.883v-.327z" fill="#FFF"/></g></svg>