<svg width="200" height="200" xmlns="http://www.w3.org/2000/svg"><g fill="none"><path fill="#132534" d="M184.9 68.698V25.531h-61.34v43.167h61.34m0 57.849a385.294 385.294 0 0 0-61.34-8.501v14.102c0 5.572 0 9.595-1.937 11.906-2.04 2.428-6.749 3.515-15.267 3.515h-9.513c-8.52 0-13.226-1.087-15.264-3.515-1.942-2.311-1.942-6.334-1.942-11.906v-14.112A384.613 384.613 0 0 0 18.3 126.5v14.413c-.075 1.717-.039 10.01 6.968 18.171 8.992 10.466 25.224 16.122 48.248 16.799h56.191l.086-.005c22.954-.676 39.147-6.328 48.14-16.794 6.838-7.967 7.065-15.862 6.967-18.171v-14.367M79.637 68.698V25.531H18.3v43.167h61.336"/><path fill="#BAAD9B" d="M75.958 68.712V29.295H21.986v39.417h53.972m105.259 0V29.295H127.24v39.417h53.977m0 57.045a384.368 384.368 0 0 0-53.977-7.482v13.873c0 11.963 0 19.178-20.884 19.178h-9.513c-20.885 0-20.885-7.215-20.885-19.178v-13.883a384.714 384.714 0 0 0-53.972 7.46v15.274c-.047.823-.27 8.24 6.048 15.603 8.287 9.65 23.606 14.873 45.545 15.52h56.11c21.893-.65 37.189-5.87 45.475-15.52 6.17-7.188 6.125-14.256 6.053-15.583v-15.262"/><path fill="#132534" d="M178.833 68.712V31.754H129.62v36.958h49.214m-.001 56.578a384.358 384.358 0 0 0-49.214-6.825v13.683c0 12.073 0 21.639-23.263 21.639h-9.513c-23.264 0-23.264-9.566-23.264-21.639v-13.726a385.394 385.394 0 0 0-49.219 6.764v15.902s-2.232 27.055 49.219 28.577h56.04c51.453-1.522 49.214-28.577 49.214-28.577v-15.797M73.579 68.712V31.754H24.36v36.958h49.219"/><path d="M176.293 107.77c-.01-1.768-.018-3.535-.026-5.305a620.977 620.977 0 0 1 20.965 2.898c-.004-4.455-.005-8.913-.011-13.37a1052.038 1052.038 0 0 0-21.021-1.702l-.024-4.495c7.466.389 14.922.84 22.368 1.35v-.628c0-4.485-.004-8.97-.004-13.454v-.134c-61.933.022-127.483.023-189.414.062C4.173 72.953-.002 77.123 0 82.096v15.603c0 2.655 2.242 5.359 4.92 6.425-1.593.235-3.187.476-4.78.723v11.561c0 4.046 4.05 7.89 8.8 6.742a393.748 393.748 0 0 1 24.877-4.935c4.174-.737 10.623-5.044 10.653-9.191l.094-13.63c-.036-3.114-2.857-4.795-6.237-5.514 1.876-.108 3.755-.213 5.631-.314.01-1.55.021-3.098.033-4.648 4.155-.16 8.31-.3 12.469-.42l-.198 30.674a396.373 396.373 0 0 1 17.863-1.543c5.28-.318 10.563-.532 15.848-.639 1.098-2.482 2.193-4.955 3.289-7.421a483.141 483.141 0 0 1 16.201.114c1.124 2.493 2.249 4.994 3.372 7.508a394.922 394.922 0 0 1 35.455 2.946c-.069-10.471-.143-20.943-.212-31.416 2.328.083 8.276.17 10.608.263.072 10.707.143 21.411.218 32.117a394.625 394.625 0 0 1 40.605 8.166v-13.654a521.734 521.734 0 0 0-23.216-3.843zm-150.804.03c-2.406.326-4.81.665-7.212 1.023l.022-4.804c2.404-.125 4.807-.241 7.215-.349-.01 1.376-.017 2.754-.025 4.13zm.256-18.548c-2.994-.064-6.034-.129-7.949-.166l.018-3.99c2.652-.137 5.304-.27 7.957-.395l-.026 4.551zm104.538-5.046l.142 25.522c-4.32-8.823-8.63-17.363-12.92-25.753 4.26.057 8.519.136 12.778.23zm-25.345 10.652a644.023 644.023 0 0 0-7.032-.036c1.215-2.678 2.429-5.353 3.641-8.03 1.127 2.684 2.257 5.369 3.391 8.066zM86.96 83.935c-4.252 8.24-8.526 16.574-12.814 25.125.036-8.323.071-16.648.109-24.97 4.234-.072 8.47-.122 12.705-.155z" fill="#BAAD9B"/><path d="M44.067 74.798l-.057 8.305c4.876-.158 9.754-.294 14.633-.408l-.192 30.51c4.495-.435 8.995-.795 13.498-1.081l.14-29.692c5.26-.08 10.521-.138 15.785-.17 1.282-2.546 2.56-5.086 3.839-7.621-15.884.01-31.767.064-47.646.157m50.06-.208c5.408-.003 10.815 0 16.224.009 6.347 12.287 12.74 24.769 19.158 37.863a413.956 413.956 0 0 0-15.117-.885 3160.035 3160.035 0 0 0-3.371-7.521c-6.44-.167-12.886-.21-19.328-.13a4742.04 4742.04 0 0 0-3.288 7.433c-4.465.103-8.927.28-13.387.529 6.41-12.777 12.784-25.07 19.109-37.297zm13.803 21.966c-2.078-4.956-4.15-9.884-6.218-14.806h-.2c-2.215 4.911-4.439 9.818-6.668 14.739a696.11 696.11 0 0 1 13.086.067zM2.256 115.967c0-3.11.003-6.219.005-9.329a578.926 578.926 0 0 1 13.91-2.085l-.021 5.267c-.003.692.697 1.242 1.525 1.106 2.843-.465 5.69-.905 8.54-1.32.5-.073 1.396-.725 1.4-1.434l.039-6.496c-.011-.052-19.306.796-19.644.864-2.588.179-5.89-2.683-5.886-5.096l.008-15.437c.001-3.707 3.197-6.953 6.99-6.965 8.67-.085 17.343-.158 26.02-.215 3.963-.012 6.758 2.849 6.739 5.64l-.05 7.417c-4.653.23-9.3.483-13.944.769l.026-4.59c.005-.676-.886-1.318-1.754-1.284-3.024.118-6.048.243-9.07.377-.837.036-1.401.907-1.403 1.422l-.026 6.464c-.004-.01 17.33.21 18.794.29 2.601.037 7.935.74 7.97 4.24l-.094 13.7c-.02 2.921-5.204 6.543-8.5 7.097a411.408 411.408 0 0 0-24.885 4.732c-3.52.808-6.69-2.244-6.69-5.134m171.881-6.559c-.017-3.046-.035-6.092-.05-9.139a653.613 653.613 0 0 1 20.987 2.636c-.001-2.994-.005-5.985-.007-8.978a919.253 919.253 0 0 0-21.027-1.848l-.046-8.336c7.471.321 14.936.693 22.389 1.117v-.624c-.002-3.011-.006-6.022-.007-9.037v-.129c-26.63-.272-56.9-.427-83.557-.469a2757.9 2757.9 0 0 1 3.854 7.684c5.26.06 10.523.141 15.782.249.057 10.06.114 20.12.174 30.18 4.497.38 8.986.837 13.472 1.365-.068-10.405-.14-20.81-.211-31.217 3.78.11 11.178.23 14.954.364.074 10.784.148 21.567.218 32.353a409.911 409.911 0 0 1 36.304 6.994c-.004-3.07-.004-6.137-.007-9.207a497.268 497.268 0 0 0-23.222-3.958m15.754 46.542h.486c.567 0 1.025-.182 1.025-.624 0-.389-.297-.65-.944-.65-.27 0-.459.026-.567.053v1.22zm-.027 2.415h-1.025v-4.26c.405-.078.972-.13 1.7-.13.836 0 1.213.13 1.537.312.243.182.432.52.432.935 0 .467-.378.832-.917.988v.051c.431.157.674.468.809 1.04.135.649.215.909.324 1.064h-1.106c-.135-.155-.216-.545-.35-1.039-.082-.467-.351-.675-.918-.675h-.486v1.714zm-2.724-2.234c0 1.896 1.457 3.403 3.453 3.403 1.942 0 3.372-1.507 3.372-3.377 0-1.896-1.43-3.429-3.4-3.429-1.968 0-3.425 1.533-3.425 3.403zm7.957 0c0 2.416-1.969 4.313-4.532 4.313-2.535 0-4.558-1.897-4.558-4.313 0-2.364 2.023-4.26 4.558-4.26 2.563 0 4.532 1.896 4.532 4.26z" fill="#132534"/></g></svg>