<svg width="200" height="200" fill="none" xmlns="http://www.w3.org/2000/svg"><path d="M60.497 51v28.06h15.731v40.945H42.994V51h-33.2L0 79.026h7.432v48.967c0 11.043 8.994 20.038 20.038 20.038h84.355v-68.97h17.954v68.97h35.527v-68.97h24.901L200 51H60.497Z" fill="#fff"/><path d="M62.13 52.667v24.761H77.86v44.244H41.327V52.667H10.975L2.326 77.394h6.737v50.599c0 2.535.521 4.966 1.459 7.154a18.462 18.462 0 0 0 6.633 8.092 18.059 18.059 0 0 0 10.28 3.125h82.688v-68.97h21.288v68.97h32.228v-68.97h25.386l8.682-24.727H62.129Z" fill="#003058"/><path d="M188.366 59.265H68.762v11.53h15.732v57.475H34.728V59.265H15.662l-4.028 11.53h4.028v57.232c0 6.495 5.279 11.773 11.773 11.773h76.09V70.795h34.485v68.97h18.996v-68.97h27.331l4.029-11.53Zm-2.327 1.667-2.882 8.196h-27.783V138.1h-15.697v-68.97h-37.819v68.97H27.435c-5.591 0-10.106-4.55-10.106-10.106V69.128h-3.368l2.882-8.196h16.253v68.971H86.16V69.128H70.429v-8.196h115.61Z" fill="#fff"/><path d="m186.039 60.932-2.882 8.196h-27.783v68.97h-15.697v-68.97h-37.819v68.97H27.436c-5.592 0-10.106-4.549-10.106-10.106V69.128h-3.37l2.883-8.196h16.253v68.97h53.065V69.128H70.429v-8.196h115.61Z" fill="#BA1C21"/><path d="M173.328 145.009h-1.181v-.555h3.022v.555h-1.181v3.022h-.66v-3.022ZM178.954 148.031v-2.362l-1.18 1.945h-.313l-1.181-1.945v2.327h-.625v-3.577h.556l1.424 2.361 1.389-2.361h.556v3.577h-.626v.035Z" fill="#fff"/></svg>