<?xml version="1.0" encoding="UTF-8"?>
<svg width="200px" height="200px" viewBox="0 0 200 200" version="1.1" xmlns="http://www.w3.org/2000/svg" xmlns:xlink="http://www.w3.org/1999/xlink">
    <!-- Generator: Sketch 51.3 (57544) - http://www.bohemiancoding.com/sketch -->
    <title>utep</title>
    <desc>Created with Sketch.</desc>
    <defs></defs>
    <g id="utep" stroke="none" stroke-width="1" fill="none" fill-rule="evenodd">
        <g id="utep_BGL" transform="translate(0.000000, 26.865672)">
            <g id="utep">
                <g id="g10" transform="translate(99.961193, 73.894198) scale(-1, 1) rotate(-180.000000) translate(-99.961193, -73.894198) translate(0.000000, 0.197352)">
                    <g id="g12">
                        <path d="M117.434223,147.052036 L90.6107855,147.361008 L89.0629392,142.439662 C65.1231648,141.46711 23.7771667,126.829806 8.80251433,108.967417 L0,80.5679213 L10.7886998,80.3764328 L3.32131928,51.3993877 C-5.61396959,21.3405716 12.9717343,-3.27867712 57.9349617,15.9022069 L55.7528896,0 L92.9105138,9.58308774 L96.2349995,26.7796764 L167.59953,46.8807535 L172.322231,63.8088266 C172.322231,63.8088266 198.298171,78.5950659 199.666895,113.349759 C199.666895,113.349759 173.512142,134.61392 116.549473,141.763439 L117.434223,147.052036" id="path14" fill="#FFFFFF" fill-rule="nonzero"></path>
                        <path d="M81.9048486,107.244021 L79.1506383,107.147814 L57.5407048,106.395428 L46.2277055,58.2846467 C43.7007362,47.4012567 40.7838562,41.6843549 37.5565377,41.2847268 C37.3541318,41.2557414 36.7450515,41.1869783 36.3278221,43.7068554 C35.9434993,46.0293853 37.4373293,52.1227886 38.0004647,54.4163331 L50.6297232,106.169712 L14.3294059,104.83176 L8.60144332,83.400162 C8.60144332,83.400162 16.3682417,83.7569287 19.4791769,83.9003138 C18.254497,79.2811558 11.6997746,54.552626 11.6997746,54.552626 C10.5319982,49.8933819 9.37536647,44.3485421 9.37536647,38.9387619 C9.37536647,36.2690243 9.65559929,33.6359809 10.3545826,31.1537231 C11.9356458,25.5481682 17.5998133,12.8010806 35.9823041,15.5383171 C50.7253383,17.7272677 61.83469,22.0835222 70.5735334,58.4419077 C70.5794317,58.4582506 81.9048486,107.244021 81.9048486,107.244021" id="path16" fill="#B4B3B3"></path>
                        <path d="M112.585484,142.630533 L109.954518,142.579038 L93.9520349,142.262049 C93.9520349,142.262049 92.8273163,138.689756 92.357002,137.20071 C90.0796252,137.204719 81.698407,137.218595 81.698407,137.218595 C81.698407,137.218595 81.0284807,135.388199 80.8800911,134.985488 C80.3088843,134.959278 79.7277434,134.932451 79.7277434,134.932451 C45.2597583,134.168347 22.2877759,114.795019 21.3266273,113.968319 L16.3488393,109.697602 C16.3488393,109.697602 67.4517639,114.294867 73.2547906,114.815678 C73.0384149,113.878896 72.2024041,110.233523 72.2024041,110.233523 C72.2024041,110.233523 83.093828,110.430562 86.6551783,110.498092 C85.5428772,105.54406 63.4908793,7.53554882 63.4908793,7.53554882 L87.0230479,14.8645306 C87.0230479,14.8645306 105.554984,107.6492 106.194487,110.854858 C108.623047,110.898953 117.012647,111.053131 117.012647,111.053131 C117.012647,111.053131 118.06255,114.7648 118.502131,116.329702 C121.621417,116.26063 192.030729,114.739823 192.030729,114.739823 L178.564838,121.710496 L178.510822,121.738248 C170.865964,125.172398 150.945437,134.093417 123.890412,135.446787 C124.109582,136.233709 124.419089,137.327444 124.419089,137.327444 C124.419089,137.327444 114.793633,137.301234 111.510746,137.292292 C111.790762,138.677422 112.585484,142.630533 112.585484,142.630533" id="path18" fill="#B4B3B3"></path>
                        <path d="M125.084359,61.4946223 C125.429877,63.3225508 125.633835,64.4070353 125.855798,65.5738507 C128.058049,65.9306174 136.877917,67.3536758 136.877917,67.3536758 L140.711211,88.3705363 C140.711211,88.3705363 133.005507,87.4393042 129.90671,87.0689699 C130.073415,87.9585741 130.116256,88.1778145 130.24664,88.8682213 C132.88754,89.0430586 146.495922,89.9730573 146.495922,89.9730573 L150.167167,110.16476 L147.526578,110.055911 L107.745127,108.373834 L103.603878,87.0356675 C103.603878,87.0356675 107.77555,87.4161776 109.147068,87.5429115 C108.248659,83.1220258 103.78952,61.1930511 103.290335,58.7323782 C101.682574,58.5297889 97.6968544,58.0256285 97.6968544,58.0256285 L92.3694195,30.6082122 L144.506011,43.9134532 L148.231273,64.4261534 C148.231273,64.4261534 129.50345,62.0539783 125.084359,61.4946223" id="path20" fill="#B4B3B3"></path>
                        <path d="M173.898948,111.320474 C173.910434,111.320474 154.071242,110.810764 154.071242,110.810764 L152.344893,110.766669 L148.826073,90.9579432 C148.826073,90.9579432 153.05766,91.0334902 154.672251,91.0655591 C153.880012,86.5768353 146.439112,44.5511314 146.439112,44.5511314 L165.244544,49.7348874 C165.244544,49.7348874 168.552576,66.1415323 168.993709,68.3151267 C185.481408,72.8544208 193.521454,92.5367208 193.988664,109.386472 L194.047027,111.534164 L191.882029,111.543723 C191.782378,111.543723 181.808921,111.578259 173.898948,111.320474" id="path22" fill="#B4B3B3"></path>
                        <path d="M176.673026,92.7322179 C175.630263,92.633236 174.436007,92.5367208 173.208533,92.4580903 C172.960182,91.0199226 172.645397,89.1972361 172.171047,86.467986 C173.7161,87.6499107 175.47194,89.5774378 176.673026,92.7322179" id="path24" fill="#FFFFFF" fill-rule="nonzero"></path>
                        <path d="M176.673026,92.7322179 C175.47194,89.5774378 173.7161,87.6499107 172.171047,86.467986 C172.645397,89.1972361 172.960182,91.0199226 173.208533,92.4580903 C174.436007,92.5367208 175.630263,92.633236 176.673026,92.7322179 Z M171.406748,94.455614 L169.374928,82.6961875 C171.237559,84.126338 177.059833,85.6082922 179.59239,95.1389287 C179.59239,95.1389287 175.897861,94.7090819 172.357,94.5080344 L171.406748,94.455614 Z" id="path26" fill="#B4B3B3"></path>
                        <path d="M75.4157529,102.229552 L63.9149383,101.828691 C63.9149383,101.828691 58.0513761,76.7696043 53.1247173,55.2843525 C49.2790054,38.5058315 39.5272012,39.656304 39.4967782,39.660621 C38.8712447,39.3741592 38.3040735,39.2609929 37.817306,39.1962383 C35.8159091,38.9495543 34.7256491,40.4404508 34.2432277,43.3676649 C33.7632898,46.2594181 35.4095451,52.7123634 36.0515319,55.3407814 L47.9168013,103.966516 L43.4871545,101.054411 L21.1213344,100.263789 L18.6761346,90.9853868 L11.3862939,85.6308021 L22.2557697,86.1321873 L28.6177098,89.6616188 L18.9853624,51.4888107 C17.6040353,45.9078934 15.584726,36.616232 17.6538917,29.1947129 C18.7912452,25.1238409 21.0020018,20.9620042 24.8216059,18.1516258 C27.7993939,17.2546211 31.3707404,16.9749431 35.6703134,17.6141631 C48.5258816,19.5194886 59.765307,22.5117348 68.5184306,58.9309588 L79.2270062,105.049459 L75.4157529,102.229552" id="path28" fill="#0F2752" fill-rule="nonzero"></path>
                        <path d="M24.5554359,18.2231642 C24.3264876,18.3907021 24.1003331,18.558776 23.8770968,18.7231642 C24.1019164,18.558776 24.3264876,18.3907021 24.5554359,18.2231642" id="path30" fill="#154281"></path>
                        <path d="M42.5092733,42.3537936 C42.5626066,42.4604603 42.62794,42.5497936 42.6826066,42.6151269 C42.62794,42.5497936 42.5626066,42.4604603 42.5092733,42.3537936" id="path32" fill="#154281"></path>
                        <path d="M13.3066741,30.0143821 C13.1296049,30.1798534 12.9683656,30.3453642 12.8066741,30.5143821 C12.9683656,30.3453642 13.1296049,30.1798534 13.3066741,30.0143821" id="path34" fill="#154281"></path>
                        <path d="M43.5936349,44.0744145 C43.7429683,44.2342319 43.9043016,44.4047037 44.0536349,44.5744145 C43.9043016,44.4047037 43.7429683,44.2342319 43.5936349,44.0744145" id="path36" fill="#154281"></path>
                        <path d="M41.9393082,41.6276176 C42.0459749,41.7649509 42.1526416,41.9076176 42.2726416,42.0102842 C42.1526416,41.9076176 42.0459749,41.7649509 41.9393082,41.6276176" id="path38" fill="#154281"></path>
                        <path d="M40.9238639,40.5946283 C40.9651973,40.6239616 41.0131973,40.677295 41.0545306,40.713295 C41.0131973,40.677295 40.9651973,40.6239616 40.9238639,40.5946283" id="path40" fill="#154281"></path>
                        <path d="M43.0112523,43.1018629 C43.1485857,43.2782114 43.2912523,43.4400371 43.421919,43.6018629 C43.2845856,43.4400371 43.1485857,43.2782114 43.0112523,43.1018629" id="path42" fill="#154281"></path>
                        <path d="M45.8629403,49.2711215 C46.0333438,49.4390842 46.1936577,49.6023812 46.3629403,49.7711215 C46.1936577,49.6023812 46.0333438,49.4390842 45.8629403,49.2711215" id="path44" fill="#154281"></path>
                        <path d="M47.6507555,55.2072637 C47.813224,55.3719325 47.9819898,55.5381785 48.1507555,55.7072637 C47.9819898,55.5381785 47.813224,55.3719325 47.6507555,55.2072637" id="path46" fill="#154281"></path>
                        <path d="M46.4925095,51.1483868 C46.6552699,51.3150534 46.8297491,51.4872756 46.9925095,51.6483868 C46.8297491,51.4872756 46.6552699,51.3150534 46.4925095,51.1483868" id="path48" fill="#154281"></path>
                        <path d="M44.1415588,45.124055 C44.2615588,45.2999632 44.3802255,45.4624871 44.5002255,45.624055 C44.3802255,45.4624871 44.2615588,45.2999632 44.1415588,45.124055" id="path50" fill="#154281"></path>
                        <path d="M45.3441975,47.8699563 C45.4508642,48.0255119 45.5588642,48.2136071 45.6655309,48.3699563 C45.5588642,48.2136071 45.4508642,48.0255119 45.3441975,47.8699563" id="path52" fill="#154281"></path>
                        <path d="M44.7115239,46.3476077 C44.8815463,46.5112177 45.0470944,46.6777235 45.2115239,46.8476077 C45.0470944,46.6777235 44.8815463,46.5112177 44.7115239,46.3476077" id="path54" fill="#154281"></path>
                        <path d="M19.7176867,20.6338836 C19.541606,20.7991186 19.3654322,20.9637459 19.1962432,21.1338836 C19.3654322,20.9637459 19.541606,20.7991186 19.7176867,20.6338836" id="path56" fill="#154281"></path>
                        <path d="M16.2565848,24.224061 C16.0893567,24.3926608 15.9168043,24.5501173 15.7565848,24.724061 C15.9168043,24.5501173 16.0893567,24.3926608 16.2565848,24.224061" id="path58" fill="#154281"></path>
                        <path d="M18.2565847,21.8944081 C18.0828117,22.0568693 17.9249789,22.2270913 17.7565847,22.3944081 C17.9249789,22.2270913 18.0828117,22.0568693 18.2565847,21.8944081" id="path60" fill="#154281"></path>
                        <path d="M17.1914082,22.9594354 C17.0228831,23.1278536 16.8528585,23.290613 16.6914082,23.4594354 C16.8528585,23.290613 17.0228831,23.1278536 17.1914082,22.9594354" id="path62" fill="#154281"></path>
                        <path d="M15.2595185,25.685602 C15.0859508,25.8523605 14.9226477,26.0196354 14.7595185,26.185602 C14.9226477,26.0196354 15.0859508,25.8523605 15.2595185,25.685602" id="path64" fill="#154281"></path>
                        <path d="M47.0457109,52.9904996 C47.1950442,53.1553486 47.3443776,53.3147445 47.4923775,53.4904996 C47.3443776,53.3201976 47.1950442,53.1553486 47.0457109,52.9904996" id="path66" fill="#154281"></path>
                        <path d="M21.0465187,19.7661726 C20.8522463,19.9266708 20.6648967,20.0994914 20.4791303,20.2661726 C20.6648967,20.0994914 20.8507872,19.9266708 21.0465187,19.7661726" id="path68" fill="#154281"></path>
                        <path d="M13.8378344,28.6532723 C13.6697211,28.8153055 13.5113154,28.9894958 13.3378344,29.1532723 C13.5113154,28.9894958 13.6697211,28.8153055 13.8378344,28.6532723" id="path70" fill="#154281"></path>
                        <path d="M22.8827002,18.8543361 C22.6996036,19.0093421 22.5097084,19.1774161 22.3307096,19.3543361 C22.5097084,19.1774161 22.6996036,19.0093421 22.8827002,18.8543361" id="path72" fill="#154281"></path>
                        <path d="M14.5576481,27.0180349 C14.39013,27.1797108 14.2155507,27.3512755 14.0576481,27.5180349 C14.2155507,27.3512755 14.39013,27.1797108 14.5576481,27.0180349" id="path74" fill="#154281"></path>
                        <polyline id="path76" fill="#0F2752" points="122.471398 59.0465919 124.049667 67.4141134 135.063714 69.1911633 137.557156 82.8614658 123.753198 81.4784936 127.296543 84.6357405 128.468759 90.8515607 144.708417 91.9579385 147.616605 107.955088 147.120214 105.225838 113.60217 103.79322 111.818701 94.4762738 106.21094 89.3844076 111.783932 89.8916516 117.26224 93.634773 109.21226 54.286824 103.699493 53.5800743 101.043381 39.7500439 95.0767535 33.466694 142.665421 45.613106 145.075976 58.8853222 119.292818 55.5544715 122.471398 59.0465919 122.471398 59.0465919"></polyline>
                        <polyline id="path78" fill="#F36432" fill-rule="nonzero" points="137.557156 82.8614658 138.117808 85.9406989 127.296543 84.6357405 123.753198 81.4784936 137.557156 82.8614658 137.557156 82.8614658"></polyline>
                        <path d="M184.089091,99.4632994 C181.317807,82.3366456 173.372134,79.2120843 165.080943,78.3539323 L169.374928,82.6961875 L171.406748,94.455614 L172.357,94.5080344 C175.897861,94.7090819 179.59239,95.1389287 179.59239,95.1389287 L184.089091,99.4632994 Z M157.626073,106.201473 L155.339073,93.1756324 L157.19891,93.2104765 L161.513694,96.2767587 L154.086764,53.1804463 L149.102053,47.4660113 L163.4291,51.4160389 L167.173919,69.9808604 C182.245708,73.2469567 190.561734,90.3850196 191.742021,106.932891 C188.199918,106.923024 182.313694,106.880471 177.233368,106.712417 L157.626073,106.201473 Z" id="path80" fill="#0F2752"></path>
                        <path d="M191.747609,106.996104 C191.972424,107.814478 192.154243,108.63131 192.247609,109.442901 C192.154243,108.63131 191.961368,107.814478 191.747609,106.996104" id="path82" fill="#154281"></path>
                        <polyline id="path84" fill="#F36432" points="145.636007 61.9836733 122.471398 59.0465919 119.292818 55.5544715 145.075976 58.8853222 145.075976 58.8853222 145.636007 61.9836733 145.636007 61.9836733"></polyline>
                        <path d="M169.374928,82.6961875 L165.080943,78.3539323 C173.372134,79.2120843 181.317807,82.3366456 184.089091,99.4632994 L179.59239,95.1389287 C177.059833,85.6082922 171.237559,84.126338 169.374928,82.6961875" id="path86" fill="#F36432" fill-rule="nonzero"></path>
                        <polyline id="path88" fill="#F36432" fill-rule="nonzero" points="161.513694 96.2767587 157.19891 93.2104765 149.102053 47.4660113 154.086764 53.1804463 161.513694 96.2767587 161.513694 96.2767587"></polyline>
                        <path d="M53.1247173,55.2843525 C58.0513761,76.7696043 63.9149383,101.828691 63.9149383,101.828691 L75.4157529,102.229552 L79.2270062,105.049459 L59.2313528,104.356585 C59.2313528,104.356585 53.283041,79.298732 48.2899483,57.8122468 C48.1179654,57.0721948 47.9444303,56.3777793 47.7739996,55.6960064 C47.7324008,55.5307281 47.6908021,55.368225 47.6507555,55.2072637 C47.4828083,54.5652686 47.317655,53.9479419 47.1497078,53.3580587 C47.1152491,53.228858 47.08048,53.1116831 47.0457109,52.9904996 C46.9004257,52.488806 46.7573135,52.0056137 46.6117179,51.5369141 C46.5729131,51.4117219 46.5313143,51.2778959 46.4925095,51.1483868 C46.3289084,50.6359007 46.1653073,50.1400659 46.0013958,49.667666 C45.9545196,49.5338399 45.9101269,49.4043308 45.8629403,49.2711215 C45.7157924,48.856384 45.5674028,48.4471969 45.4190132,48.06422 C45.3941781,48.003474 45.3690326,47.9303939 45.3441975,47.8699563 C45.1805965,47.4468933 45.0154432,47.0460317 44.8502899,46.6670634 C44.8046555,46.5585225 44.7587106,46.45214 44.7115239,46.3476077 C44.549475,45.9769649 44.3871157,45.6254402 44.2250668,45.2853247 C44.1971273,45.2332127 44.1694983,45.1807923 44.1415588,45.124055 C43.9931693,44.825259 43.8475736,44.5468144 43.7007362,44.2770038 C43.6659671,44.2082406 43.628404,44.1391691 43.5936349,44.0744145 C43.4287921,43.7839441 43.2679849,43.5095082 43.1068674,43.25049 C43.0764444,43.2023866 43.0432275,43.1542832 43.0112523,43.1018629 C42.8560331,42.8594958 42.7005034,42.629463 42.5496303,42.4142312 C42.5369023,42.3991218 42.5216908,42.378462 42.5092733,42.3537936 C42.3428783,42.1280777 42.177725,41.9183963 42.0169178,41.7161155 C41.9889784,41.6923721 41.9641433,41.6593781 41.9393082,41.6276176 C41.602172,41.2350816 41.2749699,40.8961995 40.9542869,40.6220719 C40.9446633,40.6137463 40.9334875,40.6014121 40.9238639,40.5946283 C40.4231267,40.1660148 39.9447409,39.8672188 39.4955365,39.660621 L39.4967782,39.660621 C39.5272012,39.656304 49.2790054,38.5058315 53.1247173,55.2843525" id="path90" fill="#F36432"></path>
                        <polyline id="path92" fill="#F36432" fill-rule="nonzero" points="103.699493 53.5800743 109.21226 54.286824 117.26224 93.634773 111.783932 89.8916516 105.062628 56.8381533 99.4803235 56.1314037 95.0767535 33.466694 101.043381 39.7500439 103.699493 53.5800743 103.699493 53.5800743"></polyline>
                        <path d="M17.6538917,29.1947129 C15.584726,36.616232 17.6040353,45.9078934 18.9853624,51.4888107 L28.6177098,89.6616188 L22.2557697,86.1321873 L13.7441673,54.0237972 C12.3475666,48.4401047 10.2977103,39.1441263 12.3906244,31.722638 C12.5152655,31.2832322 12.6569186,30.8466015 12.8066741,30.405623 C12.8510668,30.2733695 12.8953353,30.1438604 12.94395,30.0143821 C13.0660765,29.6714605 13.2004343,29.33227 13.3378344,28.9893484 C13.38499,28.8792657 13.4280478,28.7621833 13.4737443,28.6532723 C13.6539539,28.2372397 13.8495612,27.8213305 14.0576481,27.4062538 C14.1229022,27.2767755 14.1950482,27.1435662 14.2642759,27.0180349 C14.4209542,26.7193314 14.5861075,26.4244515 14.7595185,26.1334569 C14.8468448,25.9847989 14.9342643,25.8349692 15.0271785,25.685602 C15.2573376,25.3137876 15.5001005,24.9514704 15.7565848,24.5962455 C15.8481331,24.4667672 15.9467284,24.3495615 16.0422813,24.224061 C16.2518273,23.9499025 16.4653779,23.6828671 16.6914082,23.4171576 C16.8217613,23.2626101 16.9590372,23.1136129 17.0951024,22.9594354 C17.308653,22.7294951 17.5305545,22.5034092 17.7565847,22.2817945 C17.8897318,22.152162 18.0145281,22.0202786 18.1519281,21.8944081 C18.4833523,21.5916035 18.8329371,21.2968469 19.1962432,21.0143937 C19.3654322,20.8849154 19.541606,20.7596308 19.7176867,20.6338836 C19.9660375,20.4562095 20.2197279,20.2866142 20.4791303,20.117759 C20.6648967,20.0005533 20.8522463,19.8790306 21.0465187,19.7661726 C21.4583464,19.5238056 21.8840817,19.2978431 22.3307096,19.0843997 C22.5097084,19.002994 22.6996036,18.9256586 22.8827002,18.8543361 C23.2072326,18.7122152 23.537415,18.5787592 23.8770968,18.4532279 C24.1003331,18.3775884 24.3264876,18.3002529 24.5554359,18.2231642 C24.6593707,18.1917428 24.753713,18.1516258 24.8563129,18.1226096 C24.8452613,18.1309044 24.8327817,18.1433311 24.8216059,18.1516258 C21.0020018,20.9620042 18.7912452,25.1238409 17.6538917,29.1947129" id="path94" fill="#F36432"></path>
                        <path d="M123.930459,131.286461 L104.133486,130.934011 L108.92945,135.185302 L109.997669,140.47729 L104.638259,136.39467 L97.8188567,136.259611 L96.2101645,131.164044 L85.4807895,131.183162 L84.6913444,129.021902 L82.129606,128.901952 C47.8463317,127.840902 22.7079544,112.37844 22.7079544,112.37844 L76.3548293,117.204505 L81.4239793,122.745027 L80.408535,117.707123 L74.8637932,112.379982 L89.3057021,112.647018 L95.94505,118.736104 L73.5975147,16.899427 L66.3521908,10.6283804 L85.1933234,16.4997681 L104.452306,112.92392 L115.402403,113.123735 L116.909892,118.46506 L183.023666,117.034909 C183.023666,117.034909 158.748308,128.008956 123.440897,129.547956 L123.930459,131.286461" id="path96" fill="#0F2752" fill-rule="nonzero"></path>
                        <polyline id="path98" fill="#F36432" fill-rule="nonzero" points="95.94505 118.736104 89.3057021 112.647018 66.3521908 10.6283804 73.5975147 16.899427 95.94505 118.736104 95.94505 118.736104"></polyline>
                        <polyline id="path100" fill="#154281" points="75.6054308 115.61586 75.4613873 114.983732 76.3548293 117.204505 75.6054308 115.61586 75.6054308 115.61586"></polyline>
                        <path d="M104.133486,130.934011 L123.930459,131.286461 L123.440897,129.547956 C158.748308,128.008956 183.023666,117.034909 183.023666,117.034909 L177.639732,119.823364 C168.925723,123.739781 148.716488,132.639215 121.138685,133.48164 L121.628247,135.219529 L108.92945,135.185302 L104.133486,130.934011" id="path102" fill="#F36432"></path>
                        <path d="M84.6913444,129.021902 L85.4807895,131.183162 L96.2101645,131.164044 L97.8188567,136.259611 L104.638259,136.39467 L109.997669,140.47729 L95.5150927,140.191445 L93.908884,135.096804 L83.1770255,135.114997 L82.3863386,132.953428 L79.8301881,132.835637 C51.3036852,132.993206 22.7079544,112.37844 22.7079544,112.37844 C22.7079544,112.37844 47.8463317,127.840902 82.129606,128.901952 L84.6913444,129.021902" id="path104" fill="#F36432" fill-rule="nonzero"></path>
                        <polyline id="path106" fill="#F36432" fill-rule="nonzero" points="81.4239793 122.745027 76.3548293 117.204505 75.4613873 114.983732 74.834612 113.429623 74.8637932 112.379982 80.408535 117.707123 81.4239793 122.745027 81.4239793 122.745027"></polyline>
                        <polyline id="path108" fill="#F36432" fill-rule="nonzero" points="113.60217 103.79322 147.120214 105.225838 147.616605 107.955088 109.505314 106.347325 106.21094 89.3844076 111.818701 94.4762738 113.60217 103.79322 113.60217 103.79322"></polyline>
                        <polyline id="path110" fill="#F36432" fill-rule="nonzero" points="21.1213344 100.263789 43.4871545 101.054411 47.9168013 103.966516 15.9716876 102.788908 11.3862939 85.6308021 18.6761346 90.9853868 21.1213344 100.263789 21.1213344 100.263789"></polyline>
                        <path d="M173.968486,109.221194 L154.127121,108.709941 L151.354284,93.1028606 L155.339073,93.1756324 L157.626073,106.201473 L177.233368,106.712417 C182.313694,106.880471 188.199918,106.923024 191.742021,106.932891 L191.744815,106.932891 C191.744815,106.952009 191.747609,106.974211 191.747609,106.996104 C191.801625,107.814478 191.850364,108.63131 191.873957,109.442901 C191.873957,109.442901 181.930612,109.482679 173.968486,109.221194" id="path112" fill="#F36432"></path>
                        <path d="M109.783777,17.1417632 L108.394254,17.1417632 L108.394254,13.3203196 L107.595186,13.3203196 L107.595186,17.1417632 L106.205663,17.1417632 L106.205663,17.7936565 L109.783777,17.7936565 L109.783777,17.1417632 Z M113.08498,14.5025527 L114.354052,17.7936565 L115.578422,17.7936565 L115.578422,13.3203196 L114.778111,13.3203196 L114.778111,16.9573669 L114.758864,16.9573669 L113.34699,13.3203196 L112.800618,13.3203196 L111.389986,16.9573669 L111.367944,16.9573669 L111.367944,13.3203196 L110.570118,13.3203196 L110.570118,17.7936565 L111.79635,17.7936565 L113.08498,14.5025527 Z" id="path114" fill="#154281" fill-rule="nonzero"></path>
                    </g>
                </g>
            </g>
        </g>
    </g>
</svg>