<svg width="200" height="200" xmlns="http://www.w3.org/2000/svg"><g fill="none" fill-rule="evenodd"><path d="M117.434 27.405l-26.823-.31-1.548 4.922c-23.94.973-65.286 15.61-80.26 33.472L0 93.89l10.789.191-7.468 28.977c-8.935 30.06 9.65 54.678 54.614 35.498l-2.182 15.902 37.158-9.583 3.324-17.197 71.365-20.101 4.722-16.928s25.976-14.786 27.345-49.541c0 0-26.155-21.264-83.118-28.414l.885-5.288" fill="#FFF" fill-rule="nonzero"/><path d="M81.905 67.213l-2.754.096-21.61.752-11.313 48.111c-2.527 10.883-5.444 16.6-8.671 17-.203.029-.812.098-1.23-2.422-.384-2.323 1.11-8.416 1.673-10.71l12.63-51.753-36.3 1.338L8.6 91.057l10.878-.5-7.78 29.347c-1.167 4.66-2.324 10.204-2.324 15.614 0 2.67.28 5.303.98 7.785 1.58 5.606 7.245 18.353 25.627 15.615 14.743-2.189 25.853-6.545 34.592-42.903.005-.017 11.33-48.802 11.33-48.802" fill="#B4B3B3"/><path d="M112.585 31.826l-2.63.052-16.003.317-1.595 5.061-10.659-.018-.818 2.233-1.152.053c-34.468.764-57.44 20.138-58.401 20.964l-4.978 4.271 56.906-5.118c-.217.937-1.053 4.582-1.053 4.582s10.892-.197 14.453-.264C85.543 68.913 63.491 166.92 63.491 166.92l23.532-7.329s18.532-92.784 19.171-95.99l10.819-.198s1.05-3.712 1.49-5.277c3.118.07 73.528 1.59 73.528 1.59l-13.466-6.97-.054-.029c-7.645-3.434-27.566-12.355-54.62-13.708.219-.787.528-1.88.528-1.88l-12.908.034c.28-1.385 1.074-5.338 1.074-5.338" fill="#B4B3B3"/><path d="M125.084 112.962l.772-4.08 11.022-1.779 3.833-21.017s-7.705.931-10.804 1.302c.166-.89.21-1.11.34-1.8 2.64-.174 16.249-1.104 16.249-1.104l3.671-20.192-2.64.109-39.782 1.682-4.141 21.338s4.172-.38 5.543-.507l-5.857 28.81-5.593.707-5.328 27.418 52.137-13.306 3.725-20.512-23.147 2.931" fill="#B4B3B3"/><path d="M173.899 63.136l-19.828.51-1.726.044-3.519 19.809s4.232-.076 5.846-.108c-.792 4.489-8.233 46.515-8.233 46.515l18.806-5.184s3.308-16.407 3.749-18.58c16.487-4.54 24.527-24.222 24.995-41.072l.058-2.147-2.165-.01c-.1 0-10.073-.035-17.983.223" fill="#B4B3B3"/><path d="M176.673 81.724c-1.043.1-2.237.196-3.464.275l-1.038 5.99c1.545-1.182 3.3-3.11 4.502-6.265" fill="#FFF" fill-rule="nonzero"/><path d="M176.673 81.724c-1.201 3.155-2.957 5.083-4.502 6.265.474-2.73.79-4.552 1.038-5.99 1.227-.079 2.421-.176 3.464-.275zm-5.266-1.723l-2.032 11.76c1.863-1.43 7.685-2.913 10.217-12.443 0 0-3.694.43-7.235.63l-.95.053z" fill="#B4B3B3"/><path d="M75.416 72.227l-11.501.401s-5.864 25.06-10.79 46.544c-3.846 16.779-13.598 15.628-13.628 15.624-.626.287-1.193.4-1.68.464-2.001.247-3.091-1.244-3.574-4.17-.48-2.893 1.167-9.346 1.809-11.974L47.917 70.49l-4.43 2.912-22.366.79-2.445 9.28-7.29 5.354 10.87-.501 6.362-3.53-9.633 38.173c-1.381 5.58-3.4 14.872-1.331 22.294 1.137 4.07 3.348 8.233 7.168 11.043 2.977.897 6.549 1.177 10.848.538 12.856-1.906 24.095-4.898 32.848-41.317l10.709-46.119-3.811 2.82" fill="#0F2752" fill-rule="nonzero"/><path d="M24.555 156.234l-.678-.5c.225.164.45.332.678.5m19.039-25.852c.149-.16.31-.33.46-.5-.15.17-.311.34-.46.5m-1.654 2.448c.106-.138.213-.28.333-.384-.12.103-.227.246-.334.383m-1.015 1.033c.041-.03.09-.083.13-.119-.04.036-.089.09-.13.12m2.087-2.508c.138-.176.28-.338.41-.5a19.01 19.01 0 0 0-.41.5m2.852-6.169c.17-.168.33-.332.5-.5-.17.168-.33.332-.5.5m1.787-5.936c.163-.165.332-.331.5-.5-.168.169-.337.335-.5.5m-2.306 7.337c.107-.156.215-.344.322-.5-.107.156-.215.344-.322.5m-25.626 27.236c-.176-.165-.353-.33-.522-.5.17.17.346.335.522.5m-3.461-3.59c-.168-.169-.34-.326-.5-.5.16.174.332.331.5.5m2 2.329c-.174-.162-.332-.332-.5-.5.168.168.326.338.5.5m-1.066-1.065c-.168-.168-.338-.33-.5-.5.162.17.332.332.5.5m-1.931-2.726c-.174-.167-.337-.334-.5-.5.163.166.326.333.5.5m31.786-27.305c.149-.165.298-.324.446-.5-.148.17-.297.335-.446.5M21.047 154.69c-.195-.16-.382-.333-.568-.5.186.167.372.34.568.5m-7.209-8.887c-.168-.162-.327-.336-.5-.5.173.164.332.338.5.5m.72 1.636" fill="#154281"/><path fill="#0F2752" d="M122.471 115.41l1.579-8.367 11.014-1.777 2.493-13.67-13.804 1.382 3.544-3.157 1.172-6.216 16.24-1.106 2.908-15.997-.497 2.729-33.518 1.432-1.783 9.317-5.608 5.092 5.573-.507 5.478-3.743-8.05 39.348-5.513.707-2.656 13.83-5.966 6.283 47.588-12.146 2.411-13.273-25.783 3.331 3.178-3.492"/><path fill="#F36432" fill-rule="nonzero" d="M137.557 91.595l.56-3.079-10.82 1.305-3.544 3.157 13.804-1.383"/><path d="M184.09 74.993c-2.772 17.127-10.718 20.252-19.01 21.11l4.295-4.342L171.407 80l.95-.052c3.54-.201 7.235-.631 7.235-.631l4.497-4.325zm-26.464-6.738l-2.287 13.026 1.86-.035 4.315-3.066-7.427 43.096-4.985 5.715 14.327-3.95 3.745-18.565c15.072-3.266 23.388-20.404 24.568-36.952-3.542.01-9.428.052-14.509.22l-19.607.511z" fill="#0F2752"/><path d="M191.748 67.46c.224-.818.406-1.635.5-2.446-.094.811-.287 1.628-.5 2.447" fill="#154281"/><path fill="#F36432" d="M145.636 112.473l-23.165 2.937-3.178 3.492 25.783-3.33.56-3.099"/><path d="M169.375 91.76l-4.294 4.343c8.291-.858 16.237-3.983 19.008-21.11l-4.497 4.325c-2.532 9.53-8.354 11.012-10.217 12.443m-7.861-13.581l-4.315 3.066-8.097 45.745 4.985-5.715 7.427-43.096" fill="#F36432" fill-rule="nonzero"/><path d="M53.125 119.172c4.926-21.485 10.79-46.544 10.79-46.544l11.5-.4 3.812-2.82-19.996.692s-5.948 25.058-10.941 46.544c-.172.74-.346 1.435-.516 2.117l-.123.488c-.168.642-.333 1.26-.501 1.85-.035.129-.07.246-.104.367-.146.502-.289.985-.434 1.454-.04.125-.08.259-.12.388a62.8 62.8 0 0 1-.49 1.481l-.14.397c-.146.414-.295.824-.443 1.206-.025.061-.05.134-.075.195a30.982 30.982 0 0 1-.632 1.522c-.163.37-.325.722-.487 1.062a5.168 5.168 0 0 0-.083.162 25.31 25.31 0 0 1-.441.847l-.107.202c-.165.29-.326.565-.487.824-.03.048-.064.096-.096.149a19.846 19.846 0 0 1-.502.748c-.166.226-.331.435-.492.638-.028.023-.053.056-.078.088a9.277 9.277 0 0 1-.985 1.006c-.01.008-.02.02-.03.027-.5.429-.98.727-1.428.934.031.004 9.783 1.155 13.629-15.624" fill="#F36432"/><path fill="#F36432" fill-rule="nonzero" d="M103.7 120.877l5.512-.707 8.05-39.348-5.478 3.743-6.721 33.054-5.583.706-4.403 22.665 5.966-6.283 2.656-13.83"/><path d="M17.654 145.262c-2.07-7.422-.05-16.713 1.331-22.294l9.633-38.173-6.362 3.53-8.512 32.108c-1.396 5.584-3.446 14.88-1.353 22.301a27.092 27.092 0 0 0 .947 2.733c.047.11.09.228.136.336.18.416.376.832.584 1.247.065.13.137.263.206.389.157.298.322.593.496.884.087.149.174.299.267.448.23.372.473.734.73 1.09.091.129.19.246.285.372.21.274.423.54.65.807.13.154.267.303.403.457.214.23.436.456.662.678.133.13.258.261.395.387.331.303.68.598 1.044.88.17.13.346.255.522.38.248.179.502.348.761.517.186.117.373.239.568.352.411.242.837.468 1.284.681.179.082.369.16.552.23.324.143.654.276.994.401l.678.23c.104.032.199.072.301.101l-.034-.029c-3.82-2.81-6.03-6.972-7.168-11.043" fill="#F36432"/><path d="M123.93 43.17l-19.797.353 4.796-4.252 1.069-5.292-5.36 4.083-6.82.135-1.608 5.096-10.73-.02-.789 2.162-2.561.12c-34.284 1.06-59.422 16.523-59.422 16.523l53.647-4.826 5.069-5.54-1.015 5.038-5.545 5.327 14.442-.267 6.639-6.09-22.347 101.837-7.246 6.271 18.841-5.871 19.26-96.424 10.95-.2 1.507-5.341 66.114 1.43s-24.276-10.974-59.583-12.513l.49-1.739" fill="#0F2752" fill-rule="nonzero"/><path fill="#F36432" fill-rule="nonzero" d="M95.945 55.72l-6.64 6.09-22.953 102.018 7.246-6.27L95.945 55.72"/><path fill="#154281" d="M75.605 58.84l-.144.633.894-2.22-.75 1.588"/><path d="M104.133 43.523l19.797-.353-.49 1.739c35.308 1.539 59.584 12.513 59.584 12.513l-5.384-2.789c-8.714-3.916-28.924-12.815-56.501-13.658l.49-1.738-12.7.034-4.796 4.252" fill="#F36432"/><path d="M84.691 45.435l.79-2.161 10.73.019 1.608-5.096 6.82-.135 5.359-4.083-14.483.286-1.606 5.095-10.732-.018-.79 2.161-2.557.118c-28.526-.157-57.122 20.457-57.122 20.457S47.846 46.616 82.13 45.555l2.561-.12m-3.267 6.277l-5.07 5.54-.893 2.221-.626 1.554.029 1.05 5.545-5.327 1.015-5.038m32.178 18.951l33.518-1.432.497-2.73-38.112 1.608-3.294 16.963 5.608-5.092 1.783-9.317m-92.481 3.53l22.366-.79 4.43-2.913-31.945 1.178-4.586 17.158 7.29-5.355 2.445-9.278" fill="#F36432" fill-rule="nonzero"/><path d="M173.968 65.236l-19.84.51-2.774 15.608 3.985-.073 2.287-13.026 19.607-.51c5.08-.169 10.967-.211 14.509-.221h.003c0-.02.003-.041.003-.063a66.63 66.63 0 0 0 .126-2.447s-9.943-.04-17.906.222" fill="#F36432"/><path d="M109.784 157.315h-1.39v3.821h-.799v-3.821h-1.39v-.652h3.579v.652zm3.301 2.64l1.27-3.292h1.223v4.473h-.8V157.5h-.02l-1.411 3.637h-.546l-1.411-3.637h-.022v3.637h-.798v-4.473h1.226l1.289 3.291z" fill="#154281" fill-rule="nonzero"/></g></svg>