<svg width="200" height="200" xmlns="http://www.w3.org/2000/svg"><g fill="none" fill-rule="evenodd"><path d="m117.434 26.543-26.823-.311-1.548 4.954c-23.94.98-65.286 15.716-80.26 33.699L0 93.476l10.789.193-7.468 29.173c-8.935 30.262 9.65 55.047 54.614 35.737l-2.182 16.01 37.158-9.649 3.324-17.312L167.6 127.39l4.722-17.043s25.976-14.886 27.345-49.875c0 0-26.155-21.408-83.118-28.606l.885-5.324" fill="#FFF" fill-rule="nonzero"/><path d="m81.905 66.62-2.754.096-21.61.758-11.313 48.436c-2.527 10.957-5.444 16.712-8.671 17.115-.203.029-.812.098-1.23-2.439-.384-2.338 1.11-8.473 1.673-10.782l12.63-52.103-36.3 1.347L8.6 90.625l10.878-.504-7.78 29.546c-1.167 4.69-2.324 10.273-2.324 15.72 0 2.687.28 5.338.98 7.837 1.58 5.643 7.245 18.477 25.627 15.721 14.743-2.204 25.853-6.59 34.592-43.194.005-.016 11.33-49.131 11.33-49.131" fill="#B4B3B3"/><path d="m112.585 30.994-2.63.052-16.003.319-1.595 5.096-10.659-.018-.818 2.248-1.152.053c-34.468.77-57.44 20.274-58.401 21.106l-4.978 4.3s51.103-4.629 56.906-5.153c-.217.943-1.053 4.613-1.053 4.613s10.892-.198 14.453-.266c-1.112 4.987-23.164 103.658-23.164 103.658l23.532-7.379s18.532-93.411 19.171-96.639l10.819-.2s1.05-3.736 1.49-5.311c3.118.07 73.528 1.6 73.528 1.6l-13.466-7.018-.054-.028c-7.645-3.457-27.566-12.438-54.62-13.8.219-.793.528-1.894.528-1.894l-12.908.035c.28-1.394 1.074-5.374 1.074-5.374" fill="#B4B3B3"/><path d="M125.084 112.678c.346-1.84.55-2.932.772-4.107 2.202-.359 11.022-1.791 11.022-1.791l3.833-21.16s-7.705.938-10.804 1.311c.166-.896.21-1.116.34-1.811 2.64-.176 16.249-1.113 16.249-1.113l3.671-20.328-2.64.11-39.782 1.693-4.141 21.483 5.543-.511-5.857 29.005-5.593.712-5.328 27.602 52.137-13.395 3.725-20.651-23.147 2.951" fill="#B4B3B3"/><path d="m173.899 62.516-19.828.513-1.726.044-3.519 19.943s4.232-.076 5.846-.109c-.792 4.52-8.233 46.83-8.233 46.83l18.806-5.22s3.308-16.517 3.749-18.705c16.487-4.57 24.527-24.386 24.995-41.35l.058-2.161-2.165-.01c-.1 0-10.073-.035-17.983.225" fill="#B4B3B3"/><path d="M176.673 81.23c-1.043.1-2.237.196-3.464.275-.249 1.448-.564 3.283-1.038 6.031 1.545-1.19 3.3-3.13 4.502-6.307" fill="#FFF" fill-rule="nonzero"/><path d="M176.673 81.23c-1.201 3.176-2.957 5.116-4.502 6.306.474-2.748.79-4.583 1.038-6.03 1.227-.08 2.421-.177 3.464-.277Zm-5.266-1.736-2.032 11.84c1.863-1.44 7.685-2.932 10.217-12.527 0 0-3.694.432-7.235.635l-.95.052Z" fill="#B4B3B3"/><path d="m75.416 71.668-11.501.404S58.05 97.3 53.125 118.93c-3.846 16.892-13.598 15.734-13.628 15.73a5.692 5.692 0 0 1-1.68.467c-2.001.249-3.091-1.252-3.574-4.2-.48-2.91 1.167-9.407 1.809-12.053l11.865-48.955-4.43 2.932-22.366.796-2.445 9.341-7.29 5.39 10.87-.504 6.362-3.553-9.633 38.43c-1.381 5.62-3.4 14.974-1.331 22.445 1.137 4.099 3.348 8.289 7.168 11.118 2.977.903 6.549 1.185 10.848.541 12.856-1.918 24.095-4.93 32.848-41.596l10.709-46.43-3.811 2.839" fill="#0F2752" fill-rule="nonzero"/><path d="m24.555 156.242-.678-.5c.225.164.45.332.678.5M43.594 130.216c.149-.16.31-.33.46-.5-.15.17-.311.34-.46.5M41.94 132.68c.106-.138.213-.28.333-.383-.12.102-.227.245-.334.382M40.924 133.72c.041-.03.09-.083.13-.12-.04.037-.089.09-.13.12M43.011 131.195c.138-.176.28-.338.41-.5-.136.162-.272.324-.41.5M45.863 124.984c.17-.168.33-.331.5-.5-.17.169-.33.332-.5.5M47.65 119.008c.163-.165.332-.33.5-.5-.168.17-.337.335-.5.5M46.493 123.094c.162-.166.337-.339.5-.5-.163.161-.338.334-.5.5M45.344 126.395c.107-.156.215-.344.322-.5-.107.156-.215.344-.322.5M19.718 153.815c-.176-.165-.353-.33-.522-.5.17.17.346.335.522.5M16.257 150.2c-.168-.168-.34-.326-.5-.5.16.174.332.332.5.5M18.257 152.546c-.174-.163-.332-.333-.5-.5.168.167.326.337.5.5M17.191 151.474c-.168-.169-.338-.331-.5-.5.162.169.332.331.5.5M15.26 148.73c-.174-.168-.337-.335-.5-.5.163.165.326.332.5.5M47.046 121.24c.149-.165.298-.325.446-.5-.148.17-.297.335-.446.5M21.047 154.689c-.195-.16-.382-.334-.568-.5.186.166.372.34.568.5M13.838 145.741c-.168-.162-.327-.336-.5-.5.173.164.332.338.5.5M14.558 147.388" fill="#154281"/><path fill="#0F2752" d="m122.471 115.143 1.579-8.424 11.014-1.79 2.493-13.762-13.804 1.392 3.544-3.178 1.172-6.258 16.24-1.114 2.908-16.105-.497 2.747-33.518 1.443-1.783 9.38-5.608 5.126 5.573-.51 5.478-3.77-8.05 39.615-5.513.711-2.656 13.924-5.966 6.325 47.588-12.228 2.411-13.362-25.783 3.353 3.178-3.515"/><path fill="#F36432" fill-rule="nonzero" d="m137.557 91.167.56-3.1-10.82 1.314-3.544 3.178 13.804-1.392"/><path d="M184.09 74.453c-2.772 17.242-10.718 20.388-19.01 21.252l4.295-4.372 2.032-11.839.95-.052c3.54-.203 7.235-.635 7.235-.635l4.497-4.354Zm-26.464-6.784-2.287 13.114 1.86-.035 4.315-3.087-7.427 43.388-4.985 5.753 14.327-3.977 3.745-18.69c15.072-3.289 23.388-20.542 24.568-37.202-3.542.01-9.428.053-14.509.222l-19.607.514Z" fill="#0F2752"/><path d="M191.748 66.87c.224-.825.406-1.647.5-2.464-.094.817-.287 1.64-.5 2.463" fill="#154281"/><path fill="#F36432" d="m145.636 112.186-23.165 2.957-3.178 3.515 25.783-3.353.56-3.12"/><path d="m169.375 91.333-4.294 4.372c8.291-.864 16.237-4.01 19.008-21.252l-4.497 4.354c-2.532 9.595-8.354 11.087-10.217 12.526M161.514 77.661l-4.315 3.087-8.097 46.054 4.985-5.753 7.427-43.388" fill="#F36432" fill-rule="nonzero"/><path d="M53.125 118.93c4.926-21.63 10.79-46.858 10.79-46.858l11.5-.404 3.812-2.839-19.996.698s-5.948 25.227-10.941 46.858a130.17 130.17 0 0 1-.516 2.131l-.123.492a90.837 90.837 0 0 1-.501 1.862c-.035.13-.07.248-.104.37-.146.505-.289.991-.434 1.463-.04.126-.08.26-.12.391a63.525 63.525 0 0 1-.49 1.491l-.14.4c-.146.417-.295.829-.443 1.214-.025.061-.05.135-.075.196a31.311 31.311 0 0 1-.632 1.533 36.15 36.15 0 0 1-.487 1.069 5.216 5.216 0 0 0-.083.162c-.149.301-.294.581-.441.853-.035.07-.073.139-.107.204-.165.292-.326.569-.487.83-.03.048-.064.096-.096.15a19.99 19.99 0 0 1-.502.752c-.166.228-.331.439-.492.642-.028.024-.053.057-.078.09a9.31 9.31 0 0 1-.985 1.012c-.01.008-.02.02-.03.027-.5.432-.98.733-1.428.94.031.005 9.783 1.163 13.629-15.729" fill="#F36432"/><path fill="#F36432" fill-rule="nonzero" d="m103.7 120.646 5.512-.711 8.05-39.614-5.478 3.768-6.721 33.277-5.583.712-4.403 22.817 5.966-6.325 2.656-13.924"/><path d="M17.654 145.196c-2.07-7.471-.05-16.826 1.331-22.444l9.633-38.431-6.362 3.553-8.512 32.325c-1.396 5.622-3.446 14.98-1.353 22.452a27.41 27.41 0 0 0 .947 2.752c.047.11.09.229.136.338.18.42.376.838.584 1.256.065.13.137.264.206.39.157.301.322.598.496.891a18.559 18.559 0 0 0 .997 1.548c.091.13.19.248.285.375.21.276.423.544.65.812.13.155.267.305.403.46.214.232.436.46.662.683.133.13.258.263.395.39.331.305.68.602 1.044.886.17.13.346.256.522.383.248.179.502.35.761.52.186.118.373.24.568.354a16.8 16.8 0 0 0 1.284.686c.179.082.369.16.552.232.324.143.654.277.994.403l.678.232c.104.032.199.072.301.101l-.034-.029c-3.82-2.83-6.03-7.02-7.168-11.118" fill="#F36432"/><path d="m123.93 42.415-19.797.355 4.796-4.28 1.069-5.328-5.36 4.11-6.82.136-1.608 5.13-10.73-.02-.789 2.177-2.561.12c-34.284 1.069-59.422 16.636-59.422 16.636l53.647-4.86 5.069-5.577-1.015 5.072-5.545 5.363 14.442-.269 6.639-6.13-22.347 102.525-7.246 6.313 18.841-5.911 19.26-97.076 10.95-.2 1.507-5.378 66.114 1.44s-24.276-11.049-59.583-12.598l.49-1.75" fill="#0F2752" fill-rule="nonzero"/><path fill="#F36432" fill-rule="nonzero" d="m95.945 55.05-6.64 6.13-22.953 102.708 7.246-6.313L95.945 55.05"/><path fill="#154281" d="m75.605 58.191-.144.637.894-2.236-.75 1.6"/><path d="m104.133 42.77 19.797-.355-.49 1.75c35.308 1.55 59.584 12.598 59.584 12.598l-5.384-2.808c-8.714-3.943-28.924-12.902-56.501-13.75l.49-1.75-12.7.035-4.796 4.28" fill="#F36432"/><path d="m84.691 44.695.79-2.176 10.73.019 1.608-5.13 6.82-.136 5.359-4.11-14.483.288-1.606 5.129-10.732-.019-.79 2.177-2.557.118c-28.526-.159-57.122 20.596-57.122 20.596S47.846 45.884 82.13 44.815l2.561-.12M81.424 51.014l-5.07 5.578-.893 2.236-.626 1.564.029 1.057 5.545-5.363 1.015-5.072M113.602 70.094l33.518-1.443.497-2.747-38.112 1.618-3.294 17.078 5.608-5.126 1.783-9.38M21.121 73.647l22.366-.796 4.43-2.932-31.945 1.186-4.586 17.274 7.29-5.39 2.445-9.342" fill="#F36432" fill-rule="nonzero"/><path d="m173.968 64.63-19.84.514-2.774 15.712 3.985-.073 2.287-13.114 19.607-.514c5.08-.17 10.967-.212 14.509-.222h.003c0-.02.003-.042.003-.064a67.53 67.53 0 0 0 .126-2.463s-9.943-.04-17.906.223" fill="#F36432"/><path d="M109.784 157.33h-1.39v3.848h-.799v-3.847h-1.39v-.657h3.579v.657Zm3.301 2.658 1.27-3.314h1.223v4.504h-.8v-3.662h-.02l-1.411 3.662h-.546l-1.411-3.662h-.022v3.662h-.798v-4.504h1.226l1.289 3.314Z" fill="#154281" fill-rule="nonzero"/></g></svg>