<svg width="200" height="200" xmlns="http://www.w3.org/2000/svg"><g fill="none"><path d="M183.158 58.353l-7.234 5.705-59.941 102.922H49.93L44.952 60.035l-28.103-27.07h85.962l.896 18.095 13.438-23.782 2.228 24.151 10.809-18.463h59.78l-6.804 25.387zm-49.469 100.11l-1.304 5.93h.025l3.716-5.93h2.506l-3.546 8.401h-1.555l2.831-6.707h-.022l-4.327 6.707h-1.318l1.337-6.707h-.025l-2.83 6.707h-1.552l3.546-8.401h2.518zm-10.36 8.401l2.96-7.013h-1.836l.586-1.388h5.367l-.585 1.388h-1.837l-2.96 7.013h-1.695zM0 25.755l37.85 36.786 5.197 111.65H137.7l5.863-19.01H131.2l50.266-86.31 8.038-6.339 9.856-36.777H0z" fill="#FFF"/><path fill="#0C2950" d="M129.821 159.851l.585-1.388h-5.367l-.586 1.388h1.836l-2.96 7.013h1.694l2.96-7.013h1.838m-2.196 7.013h1.551l2.831-6.707h.025l-1.337 6.707h1.318l4.327-6.707h.022l-2.831 6.707h1.555l3.546-8.401h-2.506l-3.716 5.93h-.025l1.304-5.93h-2.518l-3.546 8.401m43.679-115.801l-5.83 4.6-57.507 98.742H61.934l-4.596-98.741L45.459 45.39l45.439-.042.58 11.909h-.001l-15.782.052-6.707.024 6.234 5.514 14.597 12.915-12.77 22.902-4.148 7.44 4.39-2.705 15.951-9.83.005-.004 1.231 25.27-.007.004.001.028 14.966-25.941 12.714 11.057 1.935 1.684-.367-4.338-2.145-25.29 26.882-16.623 2.814-1.74.555-.341-21.816-.073 6.872-11.914h35.329l-.907 5.715zm-66.94 13.272h.022l7.76-13.73 1.05 11.38.216 2.344 12.497.041.908.004-1.422.886-11.285 7.04.926 10.92.47 5.545-2.443-2.125-9.189-7.99-11.023 6.793-.004.002-.415.256.393-.705.004-.007 6.002-10.762-6.82-6.034-.002-.003-4.294-3.798 4.108-.015h.002l12.539-.042zm25.818-31.37L119.373 51.43l-2.228-24.15-13.438 23.781-.896-18.094H16.849l28.103 27.069L49.93 166.98h66.053l59.94-102.922 7.235-5.705 6.804-25.387h-59.78z"/><path fill="#008350" d="M91.823 64.377l-4.108.015 4.294 3.798.001.003 6.82 6.034-6 10.762-.005.007-.393.705.415-.256.004-.002 11.023-6.794 9.189 7.99 2.443 2.126-.47-5.546-.926-10.919 11.285-7.04 1.422-.886-.908-.004-12.497-.041-.217-2.344-1.049-11.38-7.76 13.73h-.022l-12.54.042h-.001"/><path fill="#F46A25" d="M89.819 75.762L75.222 62.847l1.828 35.817zm4.651 43.077l.008-.005-1.231-25.269-.005.003-15.95 9.831 1.466 28.746 15.713-13.306m-2.994-61.582l-.58-11.91L75.696 57.31l15.782-.052"/><path fill="#F46A25" d="M148.457 59.416L123.72 101.33l.367 4.338-1.935-1.684-21.368 36.202h-20.57l-18.28 14.22h46.033l57.506-98.741 5.831-4.6.907-5.716-20.94 12.328-2.814 1.74"/><path fill="#F9A721" d="M100.784 140.185l21.368-36.202-12.714-11.057-14.966 25.94-.001-.027-15.713 13.306-1.467-28.746-4.39 2.705 4.149-7.44-1.828-35.817-6.234-5.514 6.707-.024 15.203-11.961-45.439.042 11.879 10.274 4.596 98.74 18.28-14.22h20.57m20.791-64.146l2.145 25.29 24.737-41.912zm8.435-18.776l21.816.073-.555.341 20.94-12.328h-35.329l-6.872 11.914"/></g></svg>