<svg width="200" height="200" fill="none" xmlns="http://www.w3.org/2000/svg"><g clip-path="url(#a)"><path d="M125.74 178.526c-4.135-.07-8.691-.771-12.826-2.068-6.308-1.927-9.953-4.591-11.915-6.483-2.348-2.243-5.923-8.095-6.518-13.983a33.866 33.866 0 0 0-.771-4.205c-1.087-.911-2.278-2.033-3.33-3.084-3.329-3.259-4.38-5.012-4.941-6.203-.596-1.262-1.051-2.593-1.472-3.89l-.035-.07c-.105-.351-.21-.666-.35-1.016-.596-1.753-.912-2.278-1.017-2.419-1.682-2.277-5.992-7.534-7.604-9.146-1.122-.351-3.715-.841-5.748-1.087-.035.071-.35.877-.35.877-.666 1.647-1.472 3.504-2.594 5.081-.77 1.086-1.787 2.243-3.013 3.434-.316.316-.701.666-1.192 1.052l-3.014 2.628-3.89-.981c-3.47-.876-7.92-3.68-9.672-4.836-4.24-2.804-7.29-5.537-9.077-8.131-1.121-1.612-2.032-3.434-2.838-5.502H20.676l-7.78-10.583 5.783-21.973L0 73.11h53.618V21h47.1s1.472 25.968 1.542 27.896c.947.07 1.753.21 2.594.455 2.243.666 3.785 1.998 4.906 3.014.35 0 .771.035 1.402.035h2.067c.631 0 1.087 0 1.507.035 2.278.105 4.276.701 5.958 1.822.105.07.245.14.35.21h.421c.42 0 .876.036 1.297.07 1.016.14 1.962.386 2.873.667a8.18 8.18 0 0 1 3.645-.842c2.558 0 4.38 1.157 5.327 1.788.14.07.245.14.35.21h.07c2.734-1.577 6.448-2.453 12.301-2.909.385-.035.771-.035 1.156-.035 4.065 0 6.834 1.718 8.271 2.629.28.175.631.385.771.455.315.105.631.246.911.35l1.016.351 6.729 1.051 1.857 2.664c1.367 1.962 1.928 4.416 2.313 7.535l.07.455.035 4.31h29.473l-3.294 12.301-2.453 1.928-18.083 31.049h-2.769l.175 3.855-6.027 1.507c-.842.21-1.613.456-2.384.736-1.682.596-2.067 1.192-2.943 2.418-.876 1.297-1.963 2.874-4.416 4.486-3.154 2.103-6.518 4.906-10.794 8.446l-.035.035c-2.032 1.682-4.345 3.609-6.904 5.677l-3.083 3.119c-3.049 3.119-3.68 4.871-3.785 5.327-.14.631-.491 3.049 1.191 8.305a48.66 48.66 0 0 0 1.928 5.012l3.995 8.761-9.918 1.962a22.77 22.77 0 0 1-4.345.421c-.035-.035-.141-.035-.246-.035Z" fill="#fff"/><path d="M168.179 98.414c-1.577-2.523-2.243-6.063-2.698-7.43-.981-1.892-1.823-3.504-2.173-4.135l-.245-.456-.14-17.066c-.246-1.963-.561-3.505-1.017-4.1l-3.609-.561s-2.173-.561-2.243-.666c-.421-.14-.806-.28-1.192-.42-2.208-.842-3.399-2.559-6.308-2.559-.175 0-.385 0-.596.035-3.364.245-7.254.771-9.216 1.998-1.017.63-2.348.946-3.68.946-1.227 0-2.453-.245-3.329-.701-1.192-.596-1.893-1.297-2.418-1.297-.246 0-.456.14-.666.526-.105.035-.175.07-.281.105-1.016.49-2.277.456-3.469.35-1.156-.35-2.313-.77-3.084-.876-.105 0-.21-.035-.315-.035-.386 0-.771.105-1.122.246-1.226-.316-2.453-.666-3.504-1.472-.07-.07-.14-.105-.21-.14-.526-.42-1.227-.631-2.173-.666-.351 0-.736-.035-1.192-.035h-2.067c-1.577 0-3.154-.035-3.995-.28-1.507-.421-3.154-2.664-4.486-3.05-1.332-.385-7.78-.175-7.885-1.962-.035-.876-.21-7.29-.386-13.597l-.035-.035-.806-12.406H61.363v59.12h-.49c-.596.035-12.687.035-12.687.035H43.42l2.278-.07H28.176c.07 1.542-.386 3.12-1.297 4.45-.666.982-1.437 1.823-2.243 2.7 1.717 1.541 3.925 3.258 6.133 4.906 1.612 1.226 3.154 2.383 4.416 3.364.63.525 1.226 1.016 1.717 1.472l.876 1.612.911 1.472.245 1.086c.21.911.456 1.892.736 2.979.631 2.558 1.542 5.397 3.224 7.885 2.594 3.82 11.215 9.076 14.334 9.847.28-.245.63-.56.91-.806.667-.665 1.473-1.507 2.069-2.313.595-.841 1.191-2.172 1.752-3.539.28-.701.56-1.367.806-1.928.245-.56.526-1.156.77-1.577 1.157-1.857 3.54-2.312 5.152-2.207 2.524.14 8.376 1.086 10.444 2.207 1.647.877 8.235 9.112 9.812 11.25.876 1.226 1.542 2.873 2.068 4.45.526 1.542.981 3.084 1.507 4.206.91 1.927 5.607 6.203 7.499 7.675l.526.42.21.666c.351 1.086 1.192 4.065 1.507 7.149.386 3.68 2.909 8.025 4.241 9.287 4.17 4.03 12.896 6.308 19.555 6.413 1.226 0 2.312-.14 3.119-.28l.385-.07a49.22 49.22 0 0 1-2.243-5.818c-1.191-3.679-2.278-8.551-1.332-12.406.701-2.978 2.944-6.062 5.783-8.936.596-.596 2.348-2.628 3.084-3.189 8.235-6.588 13.702-11.6 18.959-15.069 1.191-.806 1.647-1.437 2.313-2.453 1.121-1.612 2.628-3.855 6.623-5.292a27.03 27.03 0 0 1 3.119-.946c-.07-1.998.911-3.645 1.998-4.872.28-.315.14-1.647.07-2.418-.035-.49-.105-.981-.105-1.507-.035-1.261.315-2.383.631-3.469.525-2.313.876-3.855-.281-5.747Z" fill="#fff"/><path d="m178.587 76.23-7.359 12.581-.631-12.58h-3.084l-.07-6.94v-.28l-.035-.28c-.42-3.19-.911-4.906-1.787-6.133l-1.121-1.577-1.928-.28-3.61-.561-.175-.035-1.261-.42c-.351-.106-.701-.246-1.052-.386-.35-.14-.771-.386-1.261-.701-1.367-.841-3.47-2.173-6.659-2.173-.315 0-.631 0-.946.035-5.572.42-9.042 1.262-11.319 2.699-.106.07-.561.21-1.227.21s-1.156-.14-1.262-.21c-.28-.14-.525-.316-.841-.49-.841-.562-2.032-1.298-3.679-1.298a5.12 5.12 0 0 0-3.084 1.052h-.456c-.14-.035-.245-.07-.385-.105-1.052-.316-2.033-.631-3.014-.771-.316-.035-.596-.07-.911-.07-.351 0-.701.035-1.017.07a5.688 5.688 0 0 1-.911-.42c-.175-.106-.35-.246-.526-.351-1.226-.841-2.698-1.297-4.415-1.367-.351 0-.771-.035-1.367-.035h-2.068c-1.506 0-2.242-.035-2.593-.07a7.182 7.182 0 0 1-.806-.701c-1.016-.911-2.173-1.892-3.785-2.383-.841-.245-1.787-.316-3.084-.42-.42-.036-1.016-.07-1.612-.14-.07-1.928-1.121-23.376-1.121-23.376l-.28-4.24H56.737v52.111h-46.68l12.266 8.376-5.957 22.639 5.957 8.13H35.85c.666 2.173 1.648 4.591 3.19 6.869 1.927 2.804 5.537 5.537 8.235 7.289 1.262.841 5.642 3.61 8.761 4.416l2.313.596 1.788-1.577c.42-.386.77-.701 1.05-.981 1.087-1.052 1.963-2.033 2.63-2.979.91-1.297 1.646-2.979 2.242-4.451.07-.175.14-.385.21-.561.21-.49.386-.911.561-1.296.21-.491.35-.736.42-.876.14-.071.456-.176.912-.176h.14c2.558.141 7.044 1.017 8.376 1.577 1.541 1.332 6.728 7.675 8.445 10.023.596.841 1.192 2.523 1.437 3.224.14.351.245.736.386 1.122.385 1.226.806 2.453 1.331 3.539.42.876 1.297 2.348 4.31 5.327 1.263 1.227 2.77 2.593 3.926 3.539.35 1.192.876 3.4 1.121 5.608.526 4.836 3.575 10.128 5.607 12.09 1.718 1.647 4.942 3.995 10.689 5.747 3.855 1.192 8.13 1.858 11.985 1.928h.246c1.226 0 2.488-.105 3.784-.351H130.016l.385-.07 5.642-1.121-2.383-5.222c-.455-.981-1.296-2.979-2.067-5.327-1.332-4.17-1.788-7.709-1.262-9.987.315-1.297 1.367-3.505 4.591-6.799l3.224-3.259c2.593-2.103 4.941-4.065 7.044-5.783 4.345-3.609 7.78-6.483 11.074-8.656 1.927-1.296 2.769-2.488 3.575-3.679.981-1.437 1.822-2.629 4.415-3.575a23.3 23.3 0 0 1 2.664-.806l3.574-.911-.14-3.68c0-.28.105-.595.28-.876h3.89l17.488-29.998 2.102-1.647 1.998-7.395-17.523.036ZM61.293 28.64h32.276s1.157 25.162 1.227 26.038c.105 1.822 6.553 1.577 7.885 1.963 1.331.385 2.943 2.663 4.485 3.048.841.246 2.454.28 3.996.28h2.067c.456 0 .841 0 1.192.036.981.035 1.647.245 2.172.666.071.035.141.07.211.14 1.086.806 2.278 1.156 3.504 1.472.351-.14.701-.246 1.122-.246.105 0 .21 0 .315.035.806.106 1.963.526 3.084.877.42.035.841.07 1.262.07.771 0 1.542-.105 2.207-.42.106-.036.211-.071.281-.106.21-.386.385-.526.666-.526.525 0 1.226.666 2.418 1.297.876.455 2.102.7 3.329.7 1.332 0 2.698-.28 3.68-.945 1.927-1.227 5.852-1.753 9.216-1.998.211 0 .421-.035.596-.035 2.909 0 4.1 1.717 6.308 2.558.386.14.806.316 1.192.42.07.106 2.243.667 2.243.667l3.609.56c.421.596.736 2.138 1.016 4.1l.071 6.87h-32.207l-7.114 5.642-4.17-5.643h-58.14V28.64Zm104.433 87.717a27.03 27.03 0 0 0-3.119.946c-3.995 1.437-5.537 3.68-6.623 5.292-.701 1.016-1.122 1.647-2.313 2.453-5.257 3.504-10.724 8.481-18.959 15.069-.736.596-2.489 2.593-3.084 3.189-2.839 2.874-5.047 5.958-5.783 8.936-.911 3.89.175 8.727 1.332 12.406a49.29 49.29 0 0 0 2.243 5.818l-.386.07c-.771.14-1.787.28-2.943.28h-.176c-6.623-.105-15.384-2.383-19.555-6.413-1.331-1.262-3.855-5.607-4.24-9.287-.315-3.119-1.192-6.098-1.507-7.149l-.21-.666-.526-.42c-1.892-1.472-6.623-5.783-7.5-7.675-.525-1.122-.98-2.664-1.506-4.206-.526-1.577-1.157-3.224-2.068-4.45-1.577-2.138-8.165-10.373-9.813-11.25-2.067-1.121-7.92-2.067-10.443-2.207h-.42c-1.612 0-3.68.525-4.731 2.207-.28.421-.526.982-.771 1.577-.246.596-.526 1.262-.806 1.928-.561 1.367-1.122 2.698-1.753 3.539-.595.841-1.401 1.683-2.067 2.313-.28.281-.596.561-.911.806-3.12-.806-11.74-6.062-14.334-9.847a19.755 19.755 0 0 1-2.137-4.311h3.89l8.586-6.763 4.03-15.14h3.54l2.487-1.962-3.995 14.859-1.892 1.542L55.3 115.2h20.747l1.612-5.957-1.087-1.542 4.24-15.77h1.928l1.087 1.506h2.067l-3.434 12.827-1.927 1.542-1.998 7.429H97.88l1.857-6.798 4.976 6.798h39.25l8.621-6.869 1.928-7.149.666 14.018h10.583c-.035.421-.07.771-.035 1.122Z" fill="#0A2240"/><path d="m150.797 112.852.21-.456h-1.892l-.21.456h.63l-1.016 2.488h.596l1.016-2.488h.666ZM151.708 114.464l.456-2.068h-.912l-1.226 2.944h.526l1.016-2.348-.456 2.348h.456l1.507-2.348-.981 2.348h.56l1.227-2.944h-.876l-1.297 2.068Z" fill="#0A2240"/><path d="M108.954 93.613h-9.007l1.542-5.853h9.007l-1.542 5.853Z" fill="#FAA71D"/><path d="m153.706 90.143 1.331-4.976-3.96-5.327h-18.924l-6.799 5.327-5.677 21.167 3.855 5.291h19.17l6.658-5.291 3.54-13.352h-14.299l-2.102 7.815h4.065l-.736 2.943h-9.112l4.311-16.015h9.076l-.63 2.418h10.233ZM190.818 79.84h-10.303l-12.336 21.447-1.051-21.447h-11.985l2.207 3.014 1.332 28.771h13.422l16.752-28.771 1.717-1.367.245-1.647Z" fill="#FFA400"/><path d="M108.954 93.613h-9.007l1.542-5.853h9.007l-1.542 5.853Z" fill="#0A193C"/><path d="m58.069 81.417.42-1.612H45.172l-.455 1.612 1.121 1.507-5.572 20.887H31.33l5.572-20.887 1.892-1.507.42-1.612H22.079l4.486 3.12-6.238 23.444 3.82 5.187h19.099l6.658-5.187 6.238-23.445 1.928-1.507ZM59.54 89.302H57.93l2.488-9.462h29.437l-2.453 9.462H85.79l-1.086-1.507H78.15l-5.573 20.676 1.087 1.542-.42 1.542H60.065l.421-1.542 1.927-1.542 5.537-20.676h-6.518l-1.892 1.507ZM110.496 101.392h1.331l6.729-5.256 2.944-11.004-3.925-5.292H91.712l-.42 1.577 1.19 1.577-6.798 25.442-1.927 1.542-.421 1.577H95.11l2.733-10.163h1.262l7.5 10.128 11.389.035-7.499-10.163Z" fill="#FFA400"/><path d="M108.954 93.613h-9.007l1.542-5.853h9.007l-1.542 5.853Z" fill="#0A193C"/><path d="M130.786 103.741h-.07l4.311-16.016h9.041l3.785-4.065h-14.088l-3.224 2.558-4.766 17.453 1.997 2.593 3.014-2.523ZM148.905 90.143h4.801l1.332-5.011-5.818 3.68-.315 1.331ZM139.968 96.521h-2.313l-1.156 4.311h4.065l6.729-4.31-2.384 7.955-3.784 3.048h-12.651l-4.942 4.101h19.17l6.658-5.292 3.54-13.352-5.607 3.54h-7.325ZM168.179 101.253l-1.051-21.413-4.661 3.645 1.121 21.658 4.591-3.89Z" fill="#FF4D00"/><path d="m183.914 83.906-13.912 23.585h-5.993l-5.327 4.135h13.422l16.752-28.772 1.717-1.367.245-1.647-6.904 4.066ZM84.703 87.796l1.086 1.506h1.612l2.454-9.462h-.106l-4.87 3.82H62.94l-4.976 5.642h1.577l1.892-1.507h6.484l6.553-4.1-6.308 23.796-8.06 3.96-.035.105h13.176l.42-1.542-1.085-1.542 5.572-20.676h6.553ZM117.995 111.556l-7.499-10.163h1.331l6.729-5.257 2.944-11.004-5.818 3.574-1.542 5.748-3.574 2.838H102.4l7.5 10.198-3.294 4.03 11.389.036Z" fill="#FF4D00"/><path d="M114.315 83.66h-16.61l-6.379 23.795-7.99 4.101H95.11l2.733-10.163 2.103-7.78 1.542-5.853h9.007l3.819-4.1ZM31.33 103.811l5.572-20.887 1.892-1.507.42-1.577-7.429 3.82-5.326 19.976 1.892 2.593 2.979-2.418ZM58.49 79.805l-6.66 3.855-6.377 20.817-3.61 3.119H29.017l-4.872 3.96h19.1l6.658-5.187 6.238-23.445 1.928-1.507.42-1.612ZM118.661 157.85l-1.998-6.203-1.997 6.203h-6.519l5.257 3.82-1.997 6.168 5.256-3.82 5.257 3.82-1.998-6.168 5.257-3.82h-6.518Z" fill="#FF4D00"/><path d="m184.896 83.345-8.832 5.431.736 8.657-6.097-5.327-8.832 5.432 4.942-8.832-6.098-5.361 9.111-.035 4.942-8.762.806 8.761 9.322.036Z" fill="#0A2240"/><path d="m173.891 87.69.421 4.801-3.399-2.944-3.33 2.068 1.858-3.364-3.259-2.874h4.871l2.278-3.995.35 3.995h3.925l-3.715 2.313Z" fill="#00833E"/></g><defs><clipPath id="a"><path fill="#fff" transform="translate(0 21)" d="M0 0h200v157.526H0z"/></clipPath></defs></svg>