<svg width="200" height="200" fill="none" xmlns="http://www.w3.org/2000/svg"><g clip-path="url(#a)"><path d="M32.384 107.37a3.12 3.12 0 0 1-1.079-2.345 3.477 3.477 0 0 1 2.157-3.095C25.794 98.272 12.522 95.294 0 93.863c11.232-4.478 23.192-6.894 35.291-7.175-8.887-3.236-30.484-4.174-30.484-4.174 14.07-4.432 27.483-8.09 38.34-7.621a196.505 196.505 0 0 0-23.45-5.745s26.897-7.692 42.21-5.37l-22.043-8.981c62.141-4.69 82.073 12.03 94.853 31.656l.586.915 7.363-3.377-1.125 8.606 1.266.14c19.885 2.58 47.133 8.161 57.193 34.307-32.946-6.472-70.677 3.705-103.295 19.323-23.59-18.033-47.086-26.193-82.33-32.525l18.009-6.472Z" fill="#fff"/><path fill-rule="evenodd" clip-rule="evenodd" d="M35.033 104.064h.703v-.726H33.44v.726h.703v2.627h.891v-2.627ZM35.948 106.691h.868l.281-1.947.774 1.947h.328l.821-1.947.258 1.947h.868l-.516-3.353h-.868l-.727 1.782-.656-1.782h-.868l-.563 3.353Z" fill="#0A2240"/><path d="m25.326 113.046 19.486-6.355C36.722 95.177 14.47 93.067 14.47 93.067a77.986 77.986 0 0 1 35.948-1.548c-8.489-9.098-26.404-10.67-26.404-10.67 25.16-7.034 41.318 3.05 41.318 3.05-6.402-9.568-29.969-14.797-29.969-14.797 31-7.34 46.899 4.947 46.899 4.947-6.425-8.91-25.466-16.414-25.466-16.414 53.934-2.345 71.872 23.45 76.961 34.119l4.69-2.11-.891 5.908c20.565 2.697 45.703 6.918 55.856 26.873-29.71-4.455-64.744 5.277-96.142 19.768a158.658 158.658 0 0 0-71.943-29.147Z" fill="#0A2240"/><path d="M122.594 103.385c-3.283 2.837-9.38 5.956-15.149 1.875-2.884-1.969-3.658-5.909-1.688-8.793a6.215 6.215 0 0 1 2.11-1.946l5.065 3.072a4.878 4.878 0 0 0-1.266 1.57 3.748 3.748 0 0 0 1.337 5.113c.375.234.797.375 1.243.445a6.568 6.568 0 0 0 6.612-2.345l1.736 1.009Z" fill="#fff"/><path d="M88.217 82.14s19.65-2.346 32.008 6.823l2.791-5.675 3.728 17.611s-8.629-12.991-38.527-18.76Z" fill="#E04403"/><path d="M113.425 115.437c3.236-2.649 11.725-8.652 27.694-14.069 18.032 2.345 33.696 6.495 41.974 15.242 0 0-41.74-4.69-69.668-1.219" fill="#fff"/><path d="M140.696 104.111a73.104 73.104 0 0 0-8.958 4.034 115.334 115.334 0 0 1 21.832-1.501 30.01 30.01 0 0 0-12.874-2.533Z" fill="#0A2240"/><path d="M113.237 119.142h37.215a198.498 198.498 0 0 0-25.795 5.886 28.163 28.163 0 0 1-11.443-5.862" fill="#fff"/><path d="M98.16 97.944c-2.135 7.973 3.892 12.006 12.005 12.897-4.22 2.158-13.764 3.26-19.931-1.477a8.402 8.402 0 0 1-2.814-8.02 70.17 70.17 0 0 0-33.885 10.271c10.177-13.905 32.313-22.933 48.939-19.088a11.93 11.93 0 0 0-4.315 5.417ZM90.093 130.375l14.679-8.794-4.971-2.837-9.708 11.631ZM95.533 135.557l20.307-7.058-8.348-4.995-11.959 12.053Z" fill="#E04403"/></g><defs><clipPath id="a"><path fill="#fff" transform="translate(0 54)" d="M0 0h200v92.367H0z"/></clipPath></defs></svg>