<svg width="200" height="200" xmlns="http://www.w3.org/2000/svg"><g fill="none" fill-rule="evenodd"><path d="M173.475 23.159c1.8.275 3.607.57 5.4.868v27.299c-1.752-.287-3.56-.57-5.4-.858V23.16Zm-2.119 29.133c3.359.502 6.596 1.019 9.632 1.536v-31.59a467.764 467.764 0 0 0-9.632-1.546v31.6ZM58.175 36.256l3.09-.241-1.537-7.486-1.553 7.727M139.008 19.185c1.38.108 2.753.221 4.123.341v7.8a336.422 336.422 0 0 0-4.123-.34v-7.801Zm-2.118 9.763c2.671.195 5.472.428 8.36.686V17.598a391.596 391.596 0 0 0-8.36-.697v12.047Z" fill="#492D15"/><path d="M194.016 63.267a895.71 895.71 0 0 0-6.868 4.407l-.53.342-1.192-.21c-5.754-1.4-12.566-2.406-20.234-3.483l-.454-.063-.427-.369c-1-.971-1.994-1.992-2.983-3.01-1.138-1.166-2.211-2.266-3.281-3.297l-.43-.406-.026-18.661a968.39 968.39 0 0 0-6.168 4.476l-.434.32-.664-.021c-4.445-.454-8.96-.855-13.435-1.186v7.208l3.187.24v12.805l-1.699-.12a523.622 523.622 0 0 0-16.97-.874l-1.529-.055V48.37l3.156.13V16.084l-3.156-.135V3.104l1.65.058c10.062.36 19.86.971 29.121 1.829l.476.043.459.376c2.265 2.117 4.53 4.246 6.8 6.388 2.187-1.56 4.675-3.329 6.865-4.869l.507-.36.618.086c7.588 1.028 14.457 2.236 20.42 3.583l.4.092.386.344c2.33 2.379 4.623 4.734 6.73 6.926l.391.4.052 44.802-.738.465Zm-112.425-2.07-1.534.05a531.87 531.87 0 0 0-16.973.85l-1.693.112V49.34l2.803-.204-.35-1.653c-2.765.201-5.508.422-8.246.667l-.348 1.704 2.829-.255v12.86l-1.463.12c-5.916.48-11.604 1.06-16.902 1.724l-1.78.22V51.73l3.15-.39 1.835-8.877a36195.33 36195.33 0 0 1 7.628-36.704l.244-1.164 1.183-.096a503.505 503.505 0 0 1 15.278-1.02l1.349-.074.285 1.322c3.137 14.51 6.275 29.045 9.42 43.614l3.285-.124v12.98ZM35.233 63.85l-.224 1.093-1.107.16c-5.313.75-10.247 1.59-14.654 2.507l-1.96.419L7.673 24.14l-3.22.637V11.753l1.193-.304c4.949-1.274 10.661-2.43 16.98-3.453l1.843-.3V21.19s-2.094.33-2.886.457l.631 2.907 2.22 9.945 1.593 7.337 3.897-18.883.54-2.672-2.725.4V7.216l1.369-.192A384.912 384.912 0 0 1 46.12 5.071l1.735-.162v13.176l-3.233.366a54136.284 54136.284 0 0 0-9.389 45.398Zm-8.638-40.766 1.208-.174-1.821 8.842-1.692-7.548-.151-.72 2.456-.386v-.014Zm56.593 37.423V48.23l3.156-.107V15.71l-3.156.102V2.88l1.554-.038c4.837-.11 9.655-.168 14.31-.168l4.355.016v12.829l-3.154-.004V47.93c1.864.006 3.726.017 5.593.034 3.761.049 7.442.136 10.935.261l1.533.056v12.77l-35.126-.546Zm35.126.546s2.995 1.714 6.215 3.063l-6.215-3.063Zm6.215 3.063c4.92.208 9.278.493 13.664.795l4.556.31V47.077l-3.184-.24v-1.845c3.489.28 7.018.603 10.607.971l1.66.043 3.092-2.256.018 14.57 1.257 1.198c1.034.988 2.055 2.042 3.218 3.226 1.009 1.04 2.015 2.077 3.152 3.178l1.034.872 1.22.174c7.6 1.067 14.359 2.071 20.142 3.474l2.23.392 1.405-.914a918.3 918.3 0 0 1 6.844-4.392l1.988-1.258-.06-47.356-1.135-1.168a841.18 841.18 0 0 0-6.863-7.05l-.902-.815-1.09-.25C181.36 6.27 174.406 5.048 166.726 4l-1.67-.183-1.345.923a908.742 908.742 0 0 0-5.085 3.61 1008 1008 0 0 0-5.353-5.017l-1.094-.89-1.285-.116C141.582 1.47 131.733.85 121.62.489l-4.41-.155v18.179l3.15.133V45.68l-3.482-.128a529.227 529.227 0 0 0-11.007-.26c-.985-.008-1.961-.02-2.944-.023V18.105h3.157V.025L99.053 0C94.35 0 89.51.056 84.679.172l-4.163.095v18.078h3.157v27.118l-3.23.123C77.464 31.75 74.477 17.945 71.5 4.162L70.731.617l-3.619.19c-5.216.272-10.384.618-15.361 1.029l-2.76.223-2.344.22A386.941 386.941 0 0 0 29.51 4.253l-2.235.313-4.303.661C16.57 6.263 10.778 7.442 5.756 8.728L2 9.73v18.35l3.843-.755 9.613 43.837 5.109-1.064c4.33-.9 9.207-1.734 14.484-2.477l2.502-.36 2.496-.312a398.937 398.937 0 0 1 16.786-1.708l3.397-.27 3.032-.203c4.093-.275 8.356-.508 12.713-.69l48.554.036Zm-48.44-.04s3.69-1.552 7.1-3.57l-7.1 3.57Z" fill="#492D15"/><path d="m58.478 36.038 1.262-6.11.04.182 1.234 5.74-2.536.188ZM68.826 3.107l-1.592.083c-5.208.273-10.35.617-15.285 1.022l-1.395.115-.286 1.37c-2.848 13.641-5.756 27.667-8.568 41.23l-.86 4.152-1.554.189-1.642.204v13.38l2.106-.264c5.36-.67 11.042-1.25 16.889-1.722l1.723-.138V49.28l-2.045.187-.707.065.23-1.118c2.57-.228 5.177-.438 7.776-.626l.23 1.083c-.336.024-.673.048-1.01.074l-1.732.131v13.44l1.999-.133c5.448-.364 11.155-.65 16.966-.85l1.81-.062V47.92l-1.942.07c-.47.017-.936.035-1.402.055-3.123-14.491-6.25-28.95-9.372-43.38l-.337-1.56ZM56.14 38.088l7.159-.526-1.688-7.852-1.75-8.02-.17-.775-.162.774-3.389 16.4ZM67.332 5.061c3.223 14.898 6.451 29.825 9.674 44.785l.03.137.143-.002c.94-.041 1.878-.083 2.826-.118v9.798a526.33 526.33 0 0 0-17.027.852v-9.7c.982-.074 1.969-.142 2.958-.21l.193-.015-.041-.185-.947-4.456-.034-.142-.149.01c-3.411.236-6.963.52-10.551.847l-.126.013-.022.123-.949 4.61-.044.225.225-.028 2.997-.271v9.665a390.192 390.192 0 0 0-16.97 1.73v-9.601c.922-.115 1.842-.225 2.765-.334l.119-.014.024-.123c3.208-15.474 6.458-31.163 9.676-46.577 4.895-.402 9.984-.744 15.23-1.019Z" fill="#FFFFFE"/><path d="m48.142 4.594-2.048.191a382.69 382.69 0 0 0-17.024 1.96l-1.616.224v14.034l2.14-.307.51-.073-.461 2.282-.955 4.632c-.413 1.999-.826 3.998-1.235 5.996-.478 2.301-.955 4.606-1.431 6.913l-1.306-5.997-1.158-5.178-1.067-4.792-.46-2.13-.101-.466 1.237-.195 1.59-.244V7.36l-2.173.352c-6.387 1.033-12.11 2.198-17.013 3.463l-1.406.363v13.6l2.246-.455c.347-.07.694-.138 1.042-.206l9.62 43.831 1.79-.342c.073-.013.149-.025.224-.036l.133-.021.04-.007.042-.008c4.468-.923 9.392-1.766 14.635-2.507l1.306-.184.65-3.143c2.939-14.22 5.974-28.91 8.97-43.345.28-.032.56-.063.837-.096l.776-.087 1.666-.185V4.594ZM46.27 6.65v10.018l-.79.088c-.68.08-1.372.153-2.052.237l-.125.01-.022.121c-3.206 15.439-6.401 30.904-9.605 46.406-5.351.756-10.289 1.604-14.752 2.527-.137.022-.277.041-.411.067L8.927 22.449l-.04-.16-.158.03c-.898.177-1.798.346-2.69.526V12.99c4.888-1.262 10.532-2.408 16.844-3.428v10.275c-1.01.155-2.022.32-3.026.49l-.18.03.044.172.478 2.216.463 2.143 1.067 4.794 1.156 5.166 3.019 13.858.165.783.16-.787c1.021-4.93 2.036-9.865 3.06-14.792.726-3.544 1.462-7.09 2.19-10.633l.938-4.652.05-.234-.237.036c-.97.135-1.934.276-2.902.416V8.6a379.92 379.92 0 0 1 16.94-1.95ZM137.178 28.68V17.208c2.655.2 5.264.415 7.78.646V29.32c-2.69-.242-5.294-.456-7.78-.642ZM119.594 2.805v13.43l1.804.066c.449.016.9.035 1.349.055v31.841l-1.208-.049-1.945-.073v13.512l1.807.063a523.2 523.2 0 0 1 16.957.877l2.001.136V49.295l-1.724-.138c-.485-.039-.97-.076-1.457-.112v-6.63a475.9 475.9 0 0 1 13.118 1.161l.718.073.582-.427a805.581 805.581 0 0 1 6.979-5.06l.78-.561v-25.28l-.586-.555c-2.204-2.083-4.577-4.32-6.988-6.567l-.468-.437-.638-.059c-9.35-.857-19.155-1.471-29.14-1.827l-1.941-.07Zm27.238 28.568V16.148l-.151-.015c-3.692-.35-7.458-.66-11.203-.926l-.174-.01v15.225l.156.012c3.62.256 7.386.57 11.189.923l.183.017ZM121.468 4.748a523.04 523.04 0 0 1 29.036 1.822c2.327 2.168 4.648 4.356 6.978 6.558v23.511a818.288 818.288 0 0 0-6.995 5.073 479.629 479.629 0 0 0-15.009-1.3l-.174-.017v10.393l.156.01c1.019.075 2.022.146 3.025.226v9.634a522.48 522.48 0 0 0-17.017-.88v-9.756c.993.037 1.985.08 2.976.13l.177.007v-35.59l-.162-.009c-.993-.047-1.998-.094-2.991-.13V4.748Z" fill="#FFFFFE"/><path d="M171.64 52.041V21.023c3.026.458 6.064.945 9.062 1.455v31.01a484.907 484.907 0 0 0-9.061-1.447Zm-5.954-45.77-.602.423a1180 1180 0 0 0-7.027 4.993l-.782.56v44.994l.576.553c1.08 1.036 2.189 2.176 3.261 3.278.978 1.004 1.99 2.043 2.993 3.019l.438.427.607.086c7.973 1.125 14.517 2.094 20.111 3.46l.058.014.058.011c.11.02.22.038.33.056l.254.043.724.127.617-.4a888.117 888.117 0 0 1 6.87-4.405l.87-.552V17.944l-.523-.544c-1.959-2.035-4.163-4.3-6.739-6.925l-.386-.395-.539-.12c-6.03-1.361-12.908-2.57-20.44-3.59l-.73-.1Zm16.89 49.437V20.904l-.137-.029a497.26 497.26 0 0 0-12.477-1.996l-.195-.027v34.806l.146.02a472.59 472.59 0 0 1 12.468 2l.195.03ZM166.163 8.226c7.572 1.027 14.38 2.23 20.28 3.56a1064.88 1064.88 0 0 1 6.725 6.913v43.228a892.516 892.516 0 0 0-6.884 4.415c-.195-.034-.386-.064-.578-.097-5.783-1.413-12.626-2.415-20.295-3.497-2.086-2.03-4.174-4.302-6.262-6.306V13.21c2.22-1.59 4.778-3.41 7.014-4.984ZM99.053 2.383c-4.625 0-9.31.056-14.323.17l-1.832.041v13.52l1.938-.067 1.22-.04V47.85l-.44.014-.899.027-1.819.053v13.543l1.894-.019c.005 0 1.284-.013 3.537-.013 5.314 0 16.06.074 28.32.566l1.95.08V48.002l-1.81-.064a487.71 487.71 0 0 0-10.938-.26c-.94-.01-1.88-.014-2.817-.018l-1.079-.003h-1.417V15.802l.43.002.856.002h1.874V2.396h-1.874c-.46 0-.916-.003-1.371-.006-.465-.003-.93-.007-1.4-.007Zm0 1.874c.931 0 1.841.013 2.77.013v9.662c-.568 0-1.125-.004-1.682-.004l-1.31.004h-.166v35.6h3.281c1.29.006 2.586.006 3.882.021 3.617.045 7.28.132 10.896.259v10.337a731.214 731.214 0 0 0-28.395-.569c-2.27 0-3.557.013-3.557.013v-9.83c1.005-.03 1.998-.063 2.991-.085l.166-.005v-35.59l-.17.009c-.996.019-1.988.048-2.987.082V4.426c4.685-.106 9.442-.169 14.28-.169Z" fill="#FFFFFE"/><path d="m59.529 21.69.161-.775.171.774 1.75 8.02 1.688 7.853-7.159.526L59.53 21.69Zm-3.041 29.644-2.997.271-.225.028.044-.225.95-4.61.021-.123.126-.013c3.588-.328 7.14-.611 10.551-.847l.149-.01.034.142.946 4.456.042.185-.193.015c-.99.068-1.976.136-2.958.21v9.7a526.33 526.33 0 0 1 17.027-.852v-9.798c-.948.035-1.887.077-2.826.118l-.144.002-.03-.137c-3.222-14.96-6.45-29.887-9.673-44.785-5.246.275-10.335.617-15.23 1.019-3.218 15.414-6.468 31.103-9.676 46.577l-.024.123-.119.014c-.923.11-1.843.22-2.766.334v9.6a390.192 390.192 0 0 1 16.97-1.73v-9.664ZM43.302 17.004l.125-.01c.68-.084 1.373-.157 2.052-.237l.79-.088V6.65A379.92 379.92 0 0 0 29.328 8.6v10.24c.968-.139 1.932-.28 2.902-.415l.237-.036-.05.234-.938 4.652c-.728 3.544-1.464 7.089-2.19 10.633-1.024 4.927-2.039 9.862-3.06 14.792l-.16.787-.165-.783-3.02-13.858-1.155-5.166-1.067-4.794-.463-2.143-.478-2.216-.044-.172.18-.03a213.56 213.56 0 0 1 3.026-.49V9.561c-6.312 1.02-11.956 2.166-16.844 3.428v9.856c.892-.18 1.792-.35 2.69-.527l.157-.03.04.16c3.19 14.528 6.384 29.088 9.586 43.677.134-.026.274-.045.411-.067 4.463-.923 9.4-1.771 14.752-2.527 3.204-15.502 6.399-30.967 9.605-46.406l.022-.121M146.832 16.303v15.07l-.183-.016a511.312 511.312 0 0 0-11.19-.923l-.155-.012V15.197l.174.01c3.745.266 7.511.575 11.203.926l.151.015v.155ZM121.468 4.748v9.682c.993.036 1.998.083 2.99.13l.163.008v35.59l-.177-.006c-.99-.05-1.983-.093-2.976-.13v9.757a522.48 522.48 0 0 1 17.017.88v-9.635c-1.003-.08-2.006-.15-3.025-.225l-.156-.011V40.395l.174.017c5.02.355 10.064.794 15.009 1.3a818.288 818.288 0 0 1 6.995-5.073V13.128c-2.33-2.202-4.65-4.39-6.978-6.558a523.04 523.04 0 0 0-29.036-1.822ZM182.576 21.043v34.665l-.195-.03a472.59 472.59 0 0 0-12.468-2l-.146-.02V18.852l.195.027c4.145.61 8.342 1.28 12.477 1.996l.137.029v.14Zm3.867-9.256c-5.9-1.331-12.708-2.534-20.28-3.561a1141.285 1141.285 0 0 0-7.014 4.984v43.232c2.088 2.004 4.176 4.276 6.262 6.306 7.669 1.082 14.512 2.084 20.295 3.497.192.033.383.063.578.097 2.298-1.487 4.591-2.96 6.884-4.415V18.699a1064.88 1064.88 0 0 0-6.725-6.912ZM98.665 49.532v-35.6h.166l1.31-.004c.557 0 1.114.004 1.683.004V4.27c-.93 0-1.84-.013-2.771-.013-4.839 0-9.596.063-14.28.169v9.748c.998-.034 1.99-.063 2.985-.082l.171-.01v35.59l-.166.006c-.993.022-1.986.056-2.99.085v9.83s14.426-.15 31.951.556V49.812c-3.615-.127-7.28-.214-10.896-.259-1.296-.015-2.593-.015-3.882-.021h-3.281" fill="#FDD61D"/><path d="m153.017 143.604-1.529 2.6c-6.277 10.693-17.101 26.174-33.023 39.192-1.857 1.5-3.55 2.797-5.174 3.978-1.26.908-2.534 1.812-3.853 2.696-1.344.896-2.702 1.78-4.043 2.603l-5.171 3.07-2.513-1.526a131.903 131.903 0 0 1-6.605-4.147 138.324 138.324 0 0 1-3.85-2.696l-.356-.268c-1.099-.812-2.113-1.59-3.109-2.357l-1.743-1.38-.52-.44c-10.073-8.332-19.22-18.545-27.19-30.339l-.142-.214a161.449 161.449 0 0 1-5.131-8.157l-1.53-2.78V73.83l.237-.018c.147-.02 15.159-2.102 29.662-8.66 13.756-6.216 22.545-14.583 22.631-14.673l.22-.208.242.223c.928.872 9.445 8.701 22.615 14.655 12.142 5.491 24.798 7.91 29.702 8.696l.173.079v69.681" fill="#FFFFFE"/><path d="m152.24 143.536-1.512 2.559c-6.186 10.536-16.847 25.785-32.531 38.611a132.541 132.541 0 0 1-5.098 3.918 161.665 161.665 0 0 1-3.792 2.66 144.091 144.091 0 0 1-3.985 2.557l-5.098 3.026-2.474-1.498a131.752 131.752 0 0 1-6.508-4.085 141.806 141.806 0 0 1-3.795-2.66l-.35-.264c-1.084-.798-2.08-1.566-3.06-2.32l-1.72-1.367-.51-.419c-9.928-8.215-18.938-18.276-26.789-29.902l-.137-.206c-1.8-2.678-3.5-5.385-5.058-8.037l-1.505-2.74V74.796l.23-.016c.147-.022 14.933-2.072 29.224-8.536 13.552-6.12 22.21-14.367 22.297-14.454l.216-.206.24.223c.912.859 9.301 8.572 22.277 14.433 11.962 5.413 24.426 7.796 29.263 8.568l.174.08v68.649Zm.573-71.325-.522-.08c-1.097-.156-10.947-1.682-21.777-5.609a95.123 95.123 0 0 1-6.631-2.691 81.016 81.016 0 0 1-5.398-2.69c-9.329-5.052-15.453-10.614-16.135-11.25l-2.065-1.945-2.06 1.953c-.657.61-6.693 6.11-16.037 11.193a79.62 79.62 0 0 1-5.497 2.744 92.447 92.447 0 0 1-6.819 2.756c-11.508 4.139-21.618 5.555-21.718 5.569l-2.529.276v71.762l1.908 3.268a168.467 168.467 0 0 0 5.158 8.177l.155.241c7.975 11.813 17.156 22.047 27.289 30.426l.548.477 1.706 1.335a118.84 118.84 0 0 0 3.15 2.39l.313.242a124.013 124.013 0 0 0 3.918 2.74 132.317 132.317 0 0 0 6.642 4.178l3.812 2.327 6.476-3.902a123.182 123.182 0 0 0 4.061-2.603c1.45-.97 2.83-1.958 3.872-2.72a115.528 115.528 0 0 0 5.212-4c16.147-13.189 26.991-28.671 33.25-39.322l1.779-3.13V72.499l-2.06-.287Z" fill="#492D15"/><path d="M116.283 86.77c-.083-.67-.19-1.341-.303-2.012a46.48 46.48 0 0 0-.326-1.664v-.005c-.008-.098-.036-.201-.06-.3-.056-.263-.107-.52-.165-.78-.043-.166-.074-.325-.11-.488a44.265 44.265 0 0 0-2.003-6.112.048.048 0 0 1-.016-.036c-1.924-4.614-4.819-8.692-7.387-11.767a60.751 60.751 0 0 0-2.376-2.68l-.18-.193a46.445 46.445 0 0 0-1.381-1.406c-1.04-1.024-1.704-1.595-1.704-1.595.298.529.576 1.061.837 1.59.268.531.512 1.065.744 1.594.39.895.742 1.785 1.035 2.668a29.548 29.548 0 0 1 1.263 5.23c.991 6.672-.448 12.93-2.934 18.758-.055.14-.12.286-.174.424-2.583 5.941-6.258 11.507-9.871 17.45-.142.236-.29.474-.437.708-.095.155-.183.306-.278.458-.025.046-.054.09-.08.13-.04.064-.079.132-.115.202-.11.183-.223.368-.327.552-.047.082-.094.165-.143.245-.403.675-.8 1.344-1.192 2.035-.414.72-.827 1.446-1.234 2.189a86.993 86.993 0 0 0-1.51 2.881c-1.314 2.592-2.53 5.307-3.575 8.186-1.195 3.32-2.15 6.785-2.704 10.43-.188 1.212-.297 2.453-.38 3.712-.006.17-.022.333-.034.5-.02.395-.058.793-.066 1.195-.004.028-.007.044-.007.076-.017.62-.01 1.254.003 1.883.004.112-.003.228.004.342.004.27.033.549.04.822.026.686.048 1.368.114 2.066.697 7.632 3.596 13.99 6.14 17.627a26.041 26.041 0 0 1 1.04-4.094c1.585-4.782 4.926-11.32 11.485-20.963a349.907 349.907 0 0 1 2.356-3.393c.19-.268.374-.541.571-.812l1.045-1.528c8.098-11.897 13.864-23.998 14.612-36.308.149-2.498.094-5.002-.187-7.52-.016-.101-.016-.196-.03-.297" fill="#FDD61D"/><path d="M140.397 140.431a.869.869 0 0 1-.068.114v.063c-6.3 10.746-17.419 26.296-33.596 38.212l33.596-83.553v.098l.068-.168v45.234ZM121.7 86.501c.291 2.723.355 5.501.194 8.271-.066.898-.146 1.8-.246 2.705-.985 8.794-4.207 17.825-9.933 27.77-1.596 2.779-3.384 5.616-5.368 8.551l-1.074 1.553-.206.288-.387.56a169.44 169.44 0 0 0-2.301 3.317c-5.695 8.355-9.253 14.802-10.881 19.725-.395 1.187-.58 1.82-.833 3.069a39.045 39.045 0 0 0-.484 2.733c-.108.788-.25 2.115-.312 3.01.818 2.08 1.581 4.037 2.275 5.818.682 1.733 1.29 3.292 1.833 4.672h-.013a68.511 68.511 0 0 0-.394-.305c.073.19.153.4.226.582 0 0 0-.015-.008-.015a105.85 105.85 0 0 1-3.497-2.694c-14.044-11.296-23.897-25.068-29.786-34.972-.101-.18-.212-.349-.305-.52-.012-.022-.018-.034-.03-.045v-45.35l.26.645v-.71l6.81 16.904 7.495 18.643a60.705 60.705 0 0 1 2.581-9.346c1.036-2.87 2.285-5.745 3.83-8.815.525-1.027 1.051-2.032 1.602-3.05.436-.791.868-1.562 1.296-2.289.462-.806.921-1.595 1.384-2.372l.218-.363.219-.38.014-.024.104-.179.364-.584.344-.556a761.214 761.214 0 0 1 2.062-3.36l-4.92-12.47c-11.206-.798-21.441-2.373-30.075-4.544v59.875l.926 1.575a160.209 160.209 0 0 0 4.625 7.368l.197.298a.1.1 0 0 1 .028.035c6.038 8.976 14.473 19.4 25.529 28.555.186.14.354.288.527.438.124.096.246.192.369.29.403.32.8.63 1.208.951a129.49 129.49 0 0 0 2.933 2.232c.03.027.062.046.088.07.074.044.143.105.209.152.647.467 1.301.927 1.963 1.391.542.386 1.08.755 1.628 1.128 1.894 1.258 4.337 2.82 6.36 4.01.01.003 0 .015.017.017.003 0 0-.014 0-.014 1.071-.62 2.198-1.255 3.237-1.906a143.985 143.985 0 0 0 3.266-2.107 138.812 138.812 0 0 0 3.59-2.52 115.607 115.607 0 0 0 4.808-3.694c14.709-12.02 24.835-26.359 30.905-36.694l.06-.088.812-1.41V82.308c-7.385 1.885-15.977 3.325-25.343 4.193Z" fill="#492D15"/></g></svg>