<svg width="200" height="200" xmlns="http://www.w3.org/2000/svg"><g fill="none"><path d="M185.483 138.723a451.791 451.791 0 0 0-21.991-3.514c-1.439 1.01-2.873 2.036-4.31 3.061l-1.915 1.328-4.199-3.914c1.78-8.534-1.338-19.474-1.338-19.474 4.532-10.51 1.742-16.465-5.22-32.156-6.967-15.687-11.953-20.513-11.953-20.513-2.289-.802-4.628-1.423-6.717-1.882-.057-.038-.12-.077-.177-.12.012-.2-.003-.405-.058-.614-.291-1.18-1.559-2.375-3.327-2.961-1.308-.44-2.61-.448-3.577-.108-1.73-.37-3.369-.502-4.548-.14-.433.137-.82.318-1.173.53-2.03-.39-3.63-.953-4.936-.95-1.489.004-2.768.668-4.104 1.261-1.013-.832-1.263-2.588-1.424-3.305.33-1.261.56-2.318.884-4.062.823-4.508.989-7.143.989-7.143-.657-.332-1.098-.578-1.68-.82V36.04s-.25-.402-.92-1.127c-.264-1.31-.496-2.199-1.1-3.88-1.607-4.46-5.44-9.13-11.03-10.77l-.704-.779-2.74-.582-2.757.944-.567.888c-6.19 2.693-10.997 7.63-12.09 12.822-.367 1.372-.455 2.727-.413 3.995-1.064.895-1.65 1.497-1.65 1.497l1.058 4.798-1.255 2.177c1.12 4.172 2.037 7.196 2.728 9.591l1.19.734c.008.003.01.012.02.012.127.824.374 2.105.703 3.57l.61 3.264c-1.41-.934-2.573-1.759-3.358-1.782-1.63-.046-3.214 2.415-4.104 4.081-3.843-2.457-6.138-4.613-6.174-4.644l-1.643-1.466-.432.39-.737.698-.395.378c-.042.038-3.655 3.436-9.45 6.58a46.526 46.526 0 0 1-3.246 1.62 54.464 54.464 0 0 1-4.021 1.62c-6.715 2.416-12.751 3.279-12.825 3.287l-.491.07-1.502.212v43.287l.313.537.9 1.535c.962 1.632 2.003 3.28 3.086 4.896l.097.141a91.69 91.69 0 0 0 7.91 10.114 451.134 451.134 0 0 0-34.06 5.697v17.565c1.152-.233 2.308-.47 3.458-.697a177252.684 177252.684 0 0 0 9.05 41.115c17.491-3.973 45.705-6.627 77.826-6.848 1.207-.012 2.408-.015 3.613-.015.257 0 .51-.004.766-.004.193 0 .387.004.579.004 1.488 0 2.968.003 4.436.015.745.007 1.482.02 2.221.028.956.011 1.914.018 2.859.034 11.183.18 21.813.66 31.612 1.381v-17.361a671.268 671.268 0 0 0-3-.247v-1.566c3.89.309 7.773.667 11.65 1.074a897.05 897.05 0 0 1 3.666-2.647v14.61c2.016 1.91 4.03 3.846 6.048 5.785.842.806 1.684 1.602 2.527 2.415 8.721 1.12 16.263 2.46 22.293 3.981.069.011.143.023.212.039.797-.514 1.589-1.006 2.384-1.513a835.374 835.374 0 0 1 6.723-4.265V148.11a1240.546 1240.546 0 0 0-9.1-9.387zm-12.898 15.374c1.296.2 2.587.408 3.88.62v25.247a360.395 360.395 0 0 0-3.88-.626v-25.24zm-33.506-3.927c.878.065 1.75.143 2.625.22v6.105c-.875-.073-1.747-.147-2.625-.212v-6.113zm-33.09-1.43v-8.918l11.832 1.378v7.79c.992.03 1.982.064 2.975.103v25.245c-4.8-.186-12.973-.353-17.777-.386v-25.24c.989.003 1.978.01 2.97.027zm-21.318.223v25.264h-4.404a46740.91 46740.91 0 0 0-6.874-31.785l.006-.004a77.833 77.833 0 0 0 4.878-4.47l2.194-2.333 1.232-1.449v14.892c.99-.043 1.982-.081 2.968-.115zm-55.12 4.781c-.322 1.57-.646 3.141-.971 4.71l-.985-4.412 1.955-.298z" fill="#FFF"/><path d="M92.093 10.099c.186-1.636-.39-3.924-1.152-5.261-4.107-7.253-13.013-5.27-15.25.863 0 0-5.93.671-7.463 8.879l1.768-.709S66.82 21.81 72.118 32.39c0 0 1.301-5.62 7.248-9.624 0 0-1.05-3.54.737-5.809.714-.903 2.361-1.265 4.113 2.879l.525-.958 1.011-.374c-2.382-11.614-8.62-4.189-8.62-4.189s3.061-4.756 6.08-3.117c2.692 1.463 3.883 5.82 4.105 6.73l.573-.207 3.552.73c1.815-3.804 1.899-9.779 1.899-9.779L92.093 10.1M70.189 83.32a2.328 2.328 0 0 1-.015-.185 28.38 28.38 0 0 0-.185-1.195 28.183 28.183 0 0 0-.23-1.173c-.035-.154-.06-.308-.1-.466-.021-.1-.039-.197-.065-.298-.3-1.21-.696-2.421-1.198-3.64-2.503-6.014-7.79-10.539-7.79-10.539 1.276 2.273 2.007 4.475 2.323 6.608.588 3.976-.273 7.71-1.755 11.19-.039.081-.072.166-.107.247-1.546 3.544-3.738 6.866-5.896 10.406l-.428.695c-.014.027-.033.054-.047.077-.089.15-.174.3-.264.451-.27.448-.532.9-.796 1.358a55.79 55.79 0 0 0-.741 1.307 73.84 73.84 0 0 0-.904 1.72 44.008 44.008 0 0 0-2.128 4.882c-.715 1.976-1.29 4.042-1.616 6.216a25.07 25.07 0 0 0-.247 2.51c-.016.255-.04.502-.046.756-.013.44-.01.884.003 1.326.003.172.02.333.027.496.016.403.027.818.067 1.23.411 4.554 2.148 8.345 3.67 10.511a15.65 15.65 0 0 1 .617-2.443c.947-2.85 2.944-6.75 6.863-12.5.444-.648.908-1.32 1.405-2.021.118-.163.23-.324.342-.487l.625-.91c4.838-7.097 8.284-14.302 8.729-21.646a25.524 25.524 0 0 0-.113-4.482M35.86 191.515c3.022-14.619 6.042-29.207 9.072-43.764.935-.107 1.874-.213 2.812-.317v-4.94l-4.631-4.217c-3.883.468-7.759.98-11.626 1.548v9.694c.965-.145 1.938-.284 2.91-.418-.295 1.455-.594 2.912-.887 4.371-.687 3.325-1.375 6.652-2.062 9.985-.957 4.633-1.918 9.262-2.875 13.903l-2.84-13.027a7898.04 7898.04 0 0 0-2.092-9.35c-.296-1.368-.59-2.731-.883-4.1a382.53 382.53 0 0 1 2.975-.485v-9.69a451.743 451.743 0 0 0-16.165 2.886v9.688c.903-.178 1.807-.355 2.72-.53 3.005 13.682 6.018 27.388 9.041 41.128 2.195-.438 4.558-.859 7.138-1.281a272.19 272.19 0 0 1 7.393-1.084m24.68-40.507l3.532 15.241-6.826.531 3.295-15.772zm16.484 27.165c-2.387-11.058-4.81-22.23-7.198-33.249 0 0-4.517 3.29-9.285 5.863-4.768-2.573-8.91-5.45-8.91-5.45-2.464 11.8-4.97 23.782-7.425 35.626-.916.103-1.833.215-2.743.33v9.531a407.93 407.93 0 0 1 15.137-1.45c.386-.034.769-.077 1.156-.113v-9.687a444.72 444.72 0 0 0-3 .272c.298-1.447.662-3.284.96-4.728 3.307-.306 6.491-.568 9.801-.799.298 1.393.655 3.187.956 4.583-.978.066-1.956.134-2.934.209v9.688a456.523 456.523 0 0 1 16.344-.91v-9.716h-2.859zm8.643 0v9.635a452.67 452.67 0 0 1 30.389.046v-9.688a450.294 450.294 0 0 0-17-.281v-33.123c.987 0 1.977 0 2.97.004v-9.577h-16.36v9.805c.99-.03 1.98-.059 2.973-.085v33.264h-2.972m49.456-32.234c3.518.243 7.03.532 10.537.864v13.99c-3.507-.333-7.02-.621-10.537-.872V145.94zm3 33.34c-.999-.076-2-.15-3-.219v-9.448c4.729.336 9.454.741 14.172 1.229 2.239-1.636 5.08-3.634 7.313-5.231v-21.235c-2.234-2.112-5.074-4.831-7.313-6.907a450.03 450.03 0 0 0-27.506-1.968v9.694c.988.044 1.978.085 2.968.132v33.125c-.99-.052-1.98-.092-2.968-.131v9.689c4.26.173 8.508.425 12.762.717 1.202.07 2.388.146 3.573.225v-9.672zm30.531-29.715c3.918.575 7.831 1.199 11.737 1.874v33.122a448.894 448.894 0 0 0-11.737-1.874v-33.122zm15.46 45.315a977.949 977.949 0 0 1 6.558-4.202V149.17c-2.194-2.273-4.4-4.529-6.603-6.77a446.709 446.709 0 0 0-19.148-3.058A854.567 854.567 0 0 0 158.34 144v41.506c2.065 1.97 4.124 3.96 6.184 5.96 2.688.353 5.285.73 7.775 1.133 4.527.737 8.438 1.496 11.815 2.28z" fill="#FCD006"/><path d="M124.872 118.79c-.458.232-1.065.232-1.699-.261-.68-.54-.73-1.096-.662-1.536.018-.104.098-.293.182-.35-.322.065-.61.22-.803.482-.502.667-.251 1.774.59 2.407.846.632 2.019.57 2.518-.101.196-.259.23-.578.19-.922-.038.1-.218.231-.316.282M91.81 60.254c.019-5.483-.002-11.474.019-16.955-.636.062-1.455.158-2.43.304.023.895.047 1.81.067 2.72.112 4.475.231 9.099.336 13.488l.004.004c0 .016 0 .03.004.047.265.062.536.12.81.173.356.07.708.143 1.07.2.04.01.082.013.12.02M86.97 44.02c-.747.143-1.543.309-2.387.505.323 4.583.64 9.49.962 14.074l.003.004c.51.186 1.039.368 1.58.541.162.046.313.1.474.147v-.008h.009c-.182-4.212-.362-8.648-.541-12.937l-.1-2.326m-11.63 3.348l1.15 6.384c.543.378 1.28.89 2.2 1.465-.402-2.923-.79-5.716-1.191-8.643-.707.247-1.429.513-2.16.794m4.511-1.562c.417 3.565.79 7.22 1.207 10.785.693.37 1.45.737 2.254 1.103h.007c-.371-4.097-.78-8.471-1.15-12.559-.75.2-1.522.424-2.318.67m16.142 13.062c.185-4.942.286-10.115.471-15.051a48.429 48.429 0 0 0-2.152-.448c-.08 5.384-.154 11.148-.236 16.532.043-.02.082-.038.12-.062.514-.25 1.117-.571 1.797-.971m4.496-13.917a43.859 43.859 0 0 0-1.977-.61c-.24 4.405-.452 8.934-.691 13.346a27.682 27.682 0 0 0 1.88-1.442c.278-3.719.502-7.595.788-11.294m3.002 1.149a30.977 30.977 0 0 0-1.064-.44l-.84 8.861c.207-.208.419-.42.626-.645.58-2.017 1.008-4.625 1.279-7.776M59.4 164.823l2.451-.174-1.287-5.53zm-18.938 14.503l2.048-.254c2.05-9.898 4.111-19.78 6.167-29.647-.686.075-1.369.147-2.049.224-2.06 9.877-4.115 19.771-6.166 29.677M84.419 88.24v26.91c-3.748 6.378-10.358 15.606-19.976 22.68l19.976-49.59zm-32.977 50.5c.108.088.21.176.313.261.074.058.147.118.22.174.235.189.475.375.714.565.577.446 1.157.89 1.754 1.325.021.016.035.031.052.043.042.03.085.062.122.093.7.505 1.413 1.006 2.145 1.496a68.472 68.472 0 0 0 3.834 2.396l-.005-.007c.005.003.008.007.013.007a72.91 72.91 0 0 0 3.832-2.396A69.719 69.719 0 0 0 69.44 139c8.767-7.153 14.804-15.682 18.423-21.83l.547-.945V80.548c-4.412 1.122-9.543 1.979-15.137 2.495.178 1.628.216 3.287.12 4.945a35.972 35.972 0 0 1-.147 1.605c-.589 5.238-2.508 10.607-5.924 16.524a80.502 80.502 0 0 1-3.199 5.087l-.638.926-.124.169-.227.328c-.487.687-.942 1.351-1.376 1.982-3.39 4.969-5.51 8.806-6.483 11.735a14.033 14.033 0 0 0-.5 1.823c-.121.62-.199 1.018-.286 1.63a34.61 34.61 0 0 0-.185 1.792c.489 1.235.944 2.4 1.357 3.456.407 1.03.769 1.96 1.091 2.784 0 0 0-.008-.006-.008a60.832 60.832 0 0 1-2.078-1.6c-8.35-6.704-14.21-14.878-17.71-20.76-.058-.103-.125-.205-.182-.307-.004-.012-.01-.019-.016-.027V88.212l4.056 10.059 4.54 11.277 1.167 2.902 1.238 3.063.223.556c-.008-.163-.024-.324-.027-.496-.003-.13 0-.265 0-.4a17.846 17.846 0 0 1-.003-.926c.006-.254.03-.5.046-.756a25.07 25.07 0 0 1 .247-2.51c.326-2.174.901-4.24 1.616-6.216a44.008 44.008 0 0 1 2.128-4.882 73.84 73.84 0 0 1 .904-1.72c.244-.443.49-.879.741-1.307.264-.459.527-.91.796-1.358.09-.15.175-.3.264-.45.014-.024.033-.05.047-.078l.428-.695-4.343-10.993c-6.731-.478-12.877-1.427-18.043-2.734v35.681l.553.943a87.116 87.116 0 0 0 2.873 4.558c.004.009.011.017.015.023 3.597 5.34 8.628 11.542 15.216 16.988zm121.143 15.357c1.296.2 2.587.408 3.88.62v25.247a360.395 360.395 0 0 0-3.88-.626v-25.24zm-2.179 27.092c2.748.408 5.493.85 8.236 1.315v-29.608a452.662 452.662 0 0 0-8.236-1.314v29.607zM139.08 150.17c.877.065 1.749.143 2.624.22v6.105c-.875-.073-1.747-.147-2.625-.212v-6.113zm-2.189 8.126c2.336.17 4.668.363 7.004.575v-10.476c-2.336-.211-4.668-.4-7.004-.574v10.475zm-7.22-29.29c.34-.232.516-.6.611-1.018-.085.103-.355.188-.491.211-.636.085-1.359-.15-1.9-.988-.584-.902-.409-1.58-.143-2.071.065-.119.238-.304.366-.342-.414-.052-.814.022-1.158.25-.87.59-1.035 1.998-.306 3.078.742 1.079 2.154 1.47 3.021.88" fill="#713907"/><path d="M192.42 191.858a830.315 830.315 0 0 0-7.717 4.918c-3.52-.849-7.701-1.69-12.675-2.495-2.61-.42-5.35-.814-8.177-1.184a1236.726 1236.726 0 0 0-7.27-6.98v-18.251a957.609 957.609 0 0 0-6.645 4.795 460.235 460.235 0 0 0-13.045-1.161v5.924c1 .078 2 .156 3 .24v13.106a507.02 507.02 0 0 0-10.862-.624 527.223 527.223 0 0 0-8.993-.36V176.5a345.9 345.9 0 0 1 2.951.111v-29.607c-.988-.042-1.978-.086-2.965-.12v-13.207a448.59 448.59 0 0 1 29.914 2.098c2.405 2.24 4.811 4.505 7.216 6.785a918.188 918.188 0 0 1 7.132-5.065c6.827.933 13.63 2.023 20.417 3.266 2.58 2.622 5.149 5.264 7.719 7.933v43.165zm-74.544-2.134a633.811 633.811 0 0 0-17.49-.245c-5.589 0-11.103.076-16.512.217v-13.29c1.245-.024 2.366.017 2.995 0v-29.693c-.989.033-1.981.063-2.97.098v-13.347h19.897v13.069c-.992-.008-1.98-.012-2.974-.016v29.608c4.732.008 11.385.128 17.054.3v13.3zm-36.16.035a538.47 538.47 0 0 0-19.942.95v-13.254c.101-.008 2.238-.162 2.537-.185-.02-.114-.176-.86-.225-1.115-2.244.166-4.534.355-6.937.573l-.228 1.137c.216-.02 2.562-.225 2.562-.225l.034-.002v13.233c-6.985.498-13.631 1.122-19.812 1.874v-11.36c-.805 3.89-1.612 7.776-2.416 11.664-2.964.382-5.826.796-8.55 1.232a188.383 188.383 0 0 0-8.82 1.633c-3.018-13.74-6.036-27.45-9.046-41.128-1.02.197-2.033.398-3.048.602v-13.203a456.812 456.812 0 0 1 19.662-3.514v13.207c-.857.132-1.716.271-2.573.41.146.686.293 1.368.445 2.055.7 3.113 1.393 6.229 2.09 9.346.379 1.74.753 3.48 1.135 5.214l1.148-5.557c.687-3.332 1.371-6.666 2.06-9.998.146-.725.297-1.456.442-2.183-.832.12-1.672.243-2.505.371v-13.208a459.582 459.582 0 0 1 11.81-1.63l.017.018c.513.53 1.036 1.045 1.56 1.561l4.631 4.216c.144.12.283.248.426.362l.282.244.036.027.03.027 1.02.8c.668.52 1.268.974 1.882 1.426l.17.127s4.18 2.944 8.948 5.513c4.768-2.57 9.355-5.817 9.355-5.817a72.342 72.342 0 0 0 1.568-1.194c2.312 10.687 4.665 21.676 6.978 32.399.666-.03 1.94.022 3.273 0v13.352zM29.55 153.744c-.32 1.57-.645 3.141-.97 4.71l-.985-4.412 1.955-.298zm4.091-30.552a95.889 95.889 0 0 1-3.01-4.77l-.899-1.535v-40.64c.104-.015 8.987-1.258 17.476-5.092 8.16-3.68 13.342-8.636 13.342-8.636l.007.004c.077.074 5.236 4.976 13.337 8.632 5.427 2.446 11.007 3.839 14.36 4.529 1.641.336 2.749.509 3.038.548l.054.022v40.633l-.884 1.522a91.967 91.967 0 0 1-9.262 13 84.882 84.882 0 0 1-2.923 3.246 77.247 77.247 0 0 1-7.168 6.677c-.066.05-.124.097-.185.146-.538.434-1.06.84-1.565 1.229-.433.326-.862.647-1.28.954a79.695 79.695 0 0 1-2.26 1.579 79.414 79.414 0 0 1-2.365 1.52l-2.848 1.763-1.471-.858a74.31 74.31 0 0 1-3.869-2.425 68.805 68.805 0 0 1-2.254-1.579l-.21-.154c-.24-.172-.458-.343-.688-.513-.386-.293-.764-.582-1.135-.87l-1.02-.803-.3-.257a73.27 73.27 0 0 1-1.912-1.637c-.55-.485-1.093-.991-1.636-1.497a98.758 98.758 0 0 1-1.63-1.573 86.013 86.013 0 0 1-1.904-1.955 88.088 88.088 0 0 1-8.854-11.09l-.082-.12zm40.91-68.495l-2.028-8.165c11.517-4.807 20.46-5.03 20.46-5.03 7.338 1.141 11.857 3.547 11.894 3.57-.288 4.128-.814 7.284-1.539 9.64-4.819 5.366-10.555 7.41-10.555 7.41a28.52 28.52 0 0 1-1.747-.239c-8.796-1.436-14.667-5.933-16.485-7.186zm-.989-16.656c1.634-1.314 3.768-2.862 6.336-4.154 2.64-1.327 5.743-2.383 9.262-2.638.251.33.672 1 1.101 2.145-2.86.185-11.177 1.264-18.113 7.582-.095-.921.402-1.966 1.414-2.935zm14.474-17.877c1.51 1.28 3.561 5.57 4.164 9.797.005.05.013.096.021.146-.387-.03-.774-.046-1.155-.058a1.345 1.345 0 0 1-.024-.104c-.853-4.146-3.125-7.872-4.61-9.276l1.604-.505zm2.631.366c1.348 1.844 2.76 5.585 3.136 9.778-.278-.039-.548-.089-.837-.124-.017-.116-.027-.223-.047-.34-.647-4.057-2.376-8.022-3.868-9.604l1.616.29zm-15.4 23.293c-.584.235-1.577.64-2.04.848-.758-2.634.699-3.941 1.592-4.628 2.923-1.871 6.953-3.976 13.07-4.69a20.613 20.613 0 0 1 2.914-.193c.257 1.428.541 2.8.764 4.88-.371.034-.742.073-1.105.11-.873-1.394-3.081-3.29-7.218-1.973-5.483 1.743-8.26 4.25-8.26 4.25l.282 1.396zm18.788-9.118c.004.243.013.478.017.714.003.601-.036 1.561-.093 2.098-.124 1.084-.29 1.674-.596 1.897-.004.004-.007.004-.016.008a.462.462 0 0 1-.122.061c-.073.02-.144.04-.225.036-.052 0-.093-.02-.136-.031-.316-.097-.48-.482-.591-1.042-.068-.362-.118-.787-.178-1.253-.038-.587-.142-1.334-.212-2.005a43.01 43.01 0 0 0-.595-3.985c.352.015.707.03 1.067.061.065.008.136.008.204.016.183.016.357.039.528.058.272.03.532.065.79.105.09 1.14.136 2.243.158 3.262zm1.002.895c4.032.848 7.078 2.716 8.56 4.088l.13 3.179-.554-.209c-.103-1.543-.06-1.785-1.482-2.838-1.89-1.408-4.155-2.346-6.32.563a83.053 83.053 0 0 0-.984-.205 57.23 57.23 0 0 0 .65-4.578zm.255-3.877c.615.151 1.185.32 1.723.506a16.303 16.303 0 0 1 3.969 1.99c1.018.737 2.168 1.844 2.481 2.392l.027.037.051 1.853c-1.108-1.281-3.614-3.465-8.358-4.567.067-.996.094-1.76.107-2.211zm9.989 12.84v.093c0-.032-.017-.067-.017-.1l.017.008zm-5.639 18.002c.367-1.523 1.085-3.263 1.367-3.872.735-.61 1.502-1.288 2.198-2.072.038 1.262.309 2.5.457 3.102-.682.386-1.08.628-1.966 1.258-.406.292-.974.737-1.615 1.242-.185.161-.34.292-.44.342zM76.676 58.18c.881.516 1.387.883 2.404 1.342 1.842 3.333 3.91 5.015 5.873 5.755-2.132.987-4.231.551-6.124-.32l-2.153-6.67c.131.081-.13-.184 0-.107zm28.52 9.862c2.419-1.561 5.06-3.02 8.167-3.713.258.385.572.775.915 1.156a8.567 8.567 0 0 0-1.308.617c-5.425 3.234-9.798 6.472-14.741 4.934-5.267-1.64-10.448.297-13.03 1.57a70.873 70.873 0 0 1-5.728-1.728c15.373-5.037 20.497.54 25.725-2.836zm13.226-8.705c-.06.088-.108.181-.155.277-.66 1.459.458 3.426 2.542 4.645.238.139.479.27.737.385 1.03.467 2.078.679 3.01.664 1.377-.03 2.502-.556 2.944-1.524.055-.12.092-.243.125-.366 1.188.532 2.15 1.705 2.815 2.812.394.768.244 1.428-.105 1.882a1.834 1.834 0 0 1-.63.528 4.63 4.63 0 0 1-.676.235c-1.258.34-2.915.322-4.73-.069a18.488 18.488 0 0 1-3.317-1.056l-.424-.182c-1.612-.726-3.018-1.62-4.141-2.577a11.59 11.59 0 0 1-1.046-.99c-.637-.68-1.133-1.37-1.449-2.038-1.06-3.475 3.62-2.781 4.5-2.626zm.013-.042a.37.37 0 0 0-.01.038 2.206 2.206 0 0 0-.193-.1c.07.03.135.03.203.062zm1.073.389a.68.68 0 0 1 .137-.262 1.78 1.78 0 0 1 .151-.178c.62-.617 2.006-.763 3.442-.28 1.43.477 2.439 1.414 2.582 2.275.03.189.032.374-.027.548-.326.975-2.003 1.3-3.74.717a6.257 6.257 0 0 1-.723-.305c-1.313-.648-2.105-1.686-1.822-2.515zm11.907 9.16c8.474 6.087 12.959 17.34 14.932 30.739 1.795 12.196.454 21.5-.938 27.046-.31-2.421-.867-4.49-1.514-6.21 5.526-17.865-2.82-32.685-4.993-36.103.128-3.247-.66-6.834-3.41-10.183-1.574-1.913-3.194-3.333-4.826-4.362.438-.25.701-.567.75-.926zm8.705 38.005c.451-1.424.63-3.162.775-4.35.375-3.062-.088-5.585.49-5.5.763.108 1.372 2.275 1.779 5.523.754 5.962-.773 11.34-1.503 13.476-.977-1.485-1.744-2.21-1.744-2.21l1.489-3.803a63.464 63.464 0 0 0-1.286-3.136zm-3.856 25.555c-.013-.048-.02-.094-.032-.142a62.536 62.536 0 0 0-.254-1.077c-1.74-6.773-5.082-11.012-5.082-11.012s3.18-1.953 8.687-1.736c1.354.052 3.741 6.915 2.121 10.904-.396.974-1.136 2.318-1.823 3.33l-.559-.048c-1.02-.082-2.04-.144-3.058-.22zm-11.17-.68c-.287-2.033-2.064-11.9-9.96-17.716 2.765-.803 6.39-.235 9.34 2.391 7.017 6.257 7.841 14.66 7.841 14.66s.108.615.15 1.038c0 .015.003.022.003.036-.175-.011-.35-.027-.529-.038l-4.324-.25c-.838-.045-1.68-.079-2.52-.12zM105.277 77.86c-5.02 4.987-7.932 8.952-7.932 8.952l.745 14.562c-1.468 1.149-3.315.895-4.427.214v-15.97c3.29-4.348 8.164-6.624 11.614-7.758zm5.673-5.207a92.013 92.013 0 0 0-2.197 1.913c-8.324 1.03-13.355 3.391-15.09 4.328v-4.305c.969-1.06 2.488-1.89 4.81-1.358 5.467 1.262 8.46.34 13.85-3.894 1.544-1.205 2.854-1.807 3.957-2.03a16.04 16.04 0 0 0 1.782 1.181c-2.718.948-5.162 2.514-7.112 4.165zm.575 22.9c3.436-1.793 15.268-6.93 22.313-5.65.377 1.72.47 2.776.47 2.776s-4.032.17-9.4 1.35c-3.62.795-8.202 2.492-11.493 2.388-1.087-.034-1.672-.54-1.89-.863zm-12.337 8.335c3.176 1.875 5.815-.756 5.815-.756 1.06.324 1.966.404 2.735.35a5.442 5.442 0 0 0 2.953-1.148c.026-.019.048-.038.073-.057l-.025.503a18.91 18.91 0 0 0 .25 3.688c-.623.074-3.897.456-7.211.784-3.033.304-7.89.6-9.285.689.004-.042.004-.088.004-.13-.038-1.315.294-1.97 1.013-2.797.893-1.025 3.678-1.126 3.678-1.126zm4.088-10.853l.842 7.68c-.456.434-1.07 1.017-1.982 1.145-.642.085-1.677-.202-2.214-.378l-1.74-12.366c.786 1.43 2.288 3.14 5.094 3.919zm.637-4.568c-.788 0-1.426-.64-1.426-1.42a1.424 1.424 0 0 1 2.85 0c0 .78-.64 1.42-1.424 1.42zm6.102 4.644c2.693-1.912 14.829-9.071 22.512-7.737l.015.011c.276.063.59.456.71.822.123.386.155 1.16-.02 1.32-7.81-.876-19.66 4.365-22.972 6.125a4.19 4.19 0 0 1-.08-.17c-.057-.12-.11-.246-.165-.37zm.175 5.806c-.138.297-.333.62-.629.975a3.352 3.352 0 0 1-2.098.984 4.257 4.257 0 0 1-1.663-.158l-1.541-7.46c.531.1 1.106.17 1.722.197 0 0 .296-.393.82-1.073.409 1.81 1.065 3.954 2.095 5.428.314.447.763.81 1.294 1.107zm-15.612 10.572c1.493-.07 6.38-.324 9.139-.583 3.806-.355 7.433-.699 7.669-.722a15.064 15.064 0 0 0 1.65 3.858c.008.031.02.062.028.089-.226-.089-.63-.136-1.149-.159-1.361-.065-3.513.07-5.365.307-2.356.296-4.588.487-6.427.611l.011-.023c-4.582.393-5.324-2.008-5.556-3.378zm41.414-20.982a94.004 94.004 0 0 0-.391-1.648c.328-1.13.649-3.236.235-5.266-1.034-5.075-4.53-6.079-6.964-6.108a9.976 9.976 0 0 0-2.176.224c-2.707.47-6.436 2.594-9.963 6.406 0 0 5.727-3.476 12.851-3.159.89 1.473 1.427 2.677 2.023 4.065-7.87-.64-18.993 5.52-22.347 7.846a12.752 12.752 0 0 1-.243-1.362c1.75-2.25 4.057-5.18 6.388-8.034 4.75-5.824 12.389-11.596 18.226-6.634 4.577 3.895 3.977 9.616 2.36 13.67zm.837 3.856c.521-1.114 1.07-2.5 1.48-4.073 1.907 5.315.257 10.296-.964 12.877a92.397 92.397 0 0 0-2.391-4.199c1.601-.43 2.59-.727 2.59-.727a98.122 98.122 0 0 0-.715-3.878zm-18.62 39.059l-.012-.01c-5.698-.418-14.563-1.29-18.913-3.043-4.245-1.704-7.577-3.769-8.523-6.012a84.637 84.637 0 0 0 1.693-2.763l.895-1.542.314-.54v-.093c1.515-1.316 3.601-1.766 6.889-2.167 2.155-.26 4.096-.41 7.335-.684 2.316-.196 4.244.777 5.675 1.903 4.19 3.696 7 9.388 7.23 15.055l-2.583-.104zm-12.218 17.318v-8.917l11.83 1.378v7.79c.993.03 1.983.064 2.976.103v25.245c-4.8-.186-12.973-.353-17.777-.386v-25.24c.989.003 1.978.01 2.97.027zm-21.32.224v25.264h-4.403a46740.91 46740.91 0 0 0-6.874-31.785l.006-.004a77.833 77.833 0 0 0 4.878-4.47l2.194-2.333 1.232-1.449v14.892c.99-.043 1.982-.081 2.968-.115zm100.813-10.24a451.791 451.791 0 0 0-21.991-3.514c-1.439 1.01-2.873 2.036-4.31 3.061l-1.915 1.328-4.199-3.914c1.78-8.534-1.338-19.474-1.338-19.474 4.532-10.51 1.742-16.465-5.22-32.156-6.967-15.687-11.953-20.513-11.953-20.513-2.289-.802-4.628-1.423-6.717-1.882-.057-.038-.12-.077-.177-.12.012-.2-.003-.405-.058-.614-.291-1.18-1.559-2.375-3.327-2.961-1.308-.44-2.61-.448-3.577-.108-1.73-.37-3.369-.502-4.548-.14-.433.137-.82.318-1.173.53-2.03-.39-3.63-.953-4.936-.95-1.489.004-2.768.668-4.104 1.261-1.013-.832-1.263-2.588-1.424-3.305.33-1.261.56-2.318.884-4.062.823-4.508.989-7.143.989-7.143-.657-.332-1.098-.578-1.68-.82V36.04s-.25-.402-.92-1.127c-.264-1.31-.496-2.199-1.1-3.88-1.607-4.46-5.44-9.13-11.03-10.77l-.704-.779-2.74-.582-2.757.944-.567.888c-6.19 2.693-10.997 7.63-12.09 12.822-.367 1.372-.455 2.727-.413 3.995-1.064.895-1.65 1.497-1.65 1.497l1.058 4.798-1.255 2.177c1.12 4.172 2.037 7.196 2.728 9.591l1.19.734c.008.003.01.012.02.012.127.824.374 2.105.703 3.57l.61 3.264c-1.41-.934-2.573-1.759-3.358-1.782-1.63-.046-3.214 2.415-4.104 4.081-3.843-2.457-6.138-4.613-6.174-4.644l-1.643-1.466-.432.39-.737.698-.395.378c-.042.038-3.655 3.436-9.45 6.58a46.526 46.526 0 0 1-3.246 1.62 54.464 54.464 0 0 1-4.021 1.62c-6.715 2.416-12.751 3.279-12.825 3.287l-.491.07-1.502.212v43.287l.313.537.9 1.535c.962 1.632 2.003 3.28 3.086 4.896l.097.141a91.69 91.69 0 0 0 7.91 10.114 451.134 451.134 0 0 0-34.06 5.697v17.565c1.152-.233 2.308-.47 3.458-.697a177252.684 177252.684 0 0 0 9.05 41.115c17.491-3.973 45.705-6.627 77.826-6.848 1.207-.012 2.408-.015 3.613-.015.257 0 .51-.004.766-.004.193 0 .387.004.579.004 1.488 0 2.968.003 4.436.015.745.007 1.482.02 2.221.028.956.011 1.914.018 2.859.034 11.183.18 21.813.66 31.612 1.381v-17.361a671.268 671.268 0 0 0-3-.247v-1.566c3.89.309 7.773.667 11.65 1.074a897.05 897.05 0 0 1 3.666-2.647v14.61c2.016 1.91 4.03 3.846 6.048 5.785.842.806 1.684 1.602 2.527 2.415 8.721 1.12 16.263 2.46 22.293 3.981.069.011.143.023.212.039.797-.514 1.589-1.006 2.384-1.513a835.374 835.374 0 0 1 6.723-4.265V148.11a1240.546 1240.546 0 0 0-9.1-9.387z" fill="#713907"/></g></svg>