<?xml version="1.0" encoding="UTF-8"?>
<svg width="200px" height="200px" viewBox="0 0 200 200" version="1.1" xmlns="http://www.w3.org/2000/svg" xmlns:xlink="http://www.w3.org/1999/xlink">
    <!-- Generator: Sketch 51.3 (57544) - http://www.bohemiancoding.com/sketch -->
    <title>valparaiso</title>
    <desc>Created with Sketch.</desc>
    <defs></defs>
    <g id="valparaiso" stroke="none" stroke-width="1" fill="none" fill-rule="evenodd">
        <g id="valparaiso_BGL" transform="translate(5.660377, 0.000000)">
            <g id="valparaiso">
                <g id="g10" transform="translate(94.500000, 99.577270) scale(-1, 1) rotate(-180.000000) translate(-94.500000, -99.577270) translate(0.000000, 0.048968)" fill-rule="nonzero">
                    <g id="g12">
                        <path d="M179.822393,60.3830277 C172.514651,61.737291 165.18393,62.9062259 157.831262,63.8970496 C156.393107,62.8871517 154.958824,61.8610151 153.522217,60.8351361 L151.606914,59.5071642 L147.407603,63.4217429 C149.187869,71.9558699 146.069369,82.8951418 146.069369,82.8951418 C150.601754,93.4052456 147.811164,99.3610141 140.849923,115.052064 C133.882484,130.738475 128.896189,135.564488 128.896189,135.564488 C126.607792,136.366375 124.268788,136.987573 122.179976,137.446898 C122.122399,137.485047 122.059915,137.52371 122.002595,137.566498 C122.014989,137.767034 122.000013,137.971437 121.945017,138.180221 C121.653513,139.359724 120.385767,140.555466 118.617636,141.141609 C117.309612,141.581603 116.008559,141.589078 115.040837,141.24961 C113.310661,141.620267 111.671628,141.751208 110.49296,141.388799 C110.059964,141.252703 109.673186,141.072014 109.319456,140.860137 C107.288739,141.24961 105.689727,141.812554 104.38351,141.809461 C102.895006,141.805595 101.615641,141.141609 100.279731,140.548507 C99.2670836,141.381067 99.0163746,143.136144 98.8560344,143.853486 C99.186268,145.114699 99.4152885,146.171251 99.7401,147.915761 C100.562457,152.423957 100.728477,155.058507 100.728477,155.058507 C100.071883,155.390243 99.6306246,155.636917 99.0491656,155.879468 L99.0491656,163.065518 C99.0491656,163.065518 98.7979402,163.467364 98.1284361,164.192181 C97.8650754,165.503141 97.632182,166.391376 97.0285181,168.072735 C95.4217599,172.532216 91.5877969,177.203058 85.999129,178.842144 L85.294252,179.62109 L82.553752,180.203625 L79.7975021,179.259197 L79.2305021,178.371477 C73.0410105,175.678674 68.233904,170.741309 67.1406991,165.549537 C66.7735434,164.177231 66.6857565,162.822967 66.7273262,161.55428 C65.6640721,160.6596 65.0777074,160.057476 65.0777074,160.057476 L66.1357975,155.259301 L64.8809615,153.083046 C66.0015352,148.910451 66.9178754,145.886428 67.6088098,143.491078 L68.7978057,142.758013 C68.8068425,142.754404 68.8094245,142.745898 68.817945,142.745898 C68.9460106,141.921329 69.1925884,140.640526 69.521531,139.175169 L70.1321663,135.911689 C68.7216376,136.84529 67.5582032,137.670375 66.7735434,137.693573 C65.142773,137.739712 63.5597689,135.278891 62.6697648,133.612225 C58.8265067,136.069437 56.5313961,138.225587 56.4952486,138.25626 L54.8531175,139.722391 L54.4203798,139.33266 L53.6837446,138.634907 L53.2889618,138.25626 C53.2466175,138.218112 49.6336709,134.820339 43.838962,131.676458 C42.8224416,131.120215 41.7405973,130.572994 40.5923965,130.056446 C39.2523556,129.450198 37.8999212,128.91406 36.5712409,128.436434 C29.8565771,126.020721 23.8201703,125.158003 23.747049,125.150012 L23.255365,125.080418 L21.7540802,124.868025 L21.7540802,124.409214 L21.7540802,122.858797 L21.7540802,82.2118239 L21.7540802,81.5805733 L22.06624,81.0434045 L22.9663912,79.508968 C23.9290777,77.8763255 24.9694297,76.2292485 26.0530813,74.6125871 L26.1499051,74.4710776 C28.6007083,70.8459617 31.247741,67.4713871 34.0602778,64.3576641 C22.6991318,62.9046793 11.2497083,60.9882447 0,58.6601697 C0,52.8093089 0,46.9494266 0,41.0954727 C1.15180005,41.329002 2.30763314,41.5656243 3.45792532,41.792194 C6.31724738,28.7929161 9.18413461,15.7686871 12.059594,2.71009891 C12.205346,2.03347247 12.353112,1.36148826 12.5084173,0.677623965 C29.9991017,4.65073707 58.2122567,7.30492816 90.3339936,7.52554368 C91.5408051,7.53711704 92.7414198,7.54044213 93.9461657,7.54044213 C94.2035878,7.54044213 94.4566206,7.54456626 94.7122353,7.54456626 C94.9053665,7.54456626 95.0995304,7.54044213 95.2916288,7.54044213 C96.7798746,7.54044213 98.2596,7.53711704 99.7279647,7.52554368 C100.472346,7.51830067 101.210014,7.50520653 101.948973,7.49765421 C102.904559,7.48608085 103.862211,7.47912137 104.80721,7.46391362 C115.990743,7.2826836 126.620185,6.80451576 136.420042,6.08258568 C136.420042,6.77935853 136.420042,7.47912137 136.420042,8.17890999 C136.420042,13.2655941 136.420042,18.3563249 136.420042,23.4434472 C135.416689,23.5287137 134.419017,23.6101654 133.419021,23.6906376 C133.419021,24.2144029 133.419021,24.7347401 133.419021,25.2565207 C137.309788,24.9477002 141.192808,24.589854 145.068857,24.1821831 C146.290127,25.0670166 147.510623,25.9511283 148.736025,26.8295694 C148.736025,21.9600211 148.736025,17.0865807 148.736025,12.2190687 C150.752025,10.3098255 152.765185,8.37382699 154.783508,6.43440029 C155.625488,5.62838938 156.467726,4.83297235 157.31048,4.01951222 C166.032107,2.90029893 173.573258,1.55923803 179.603959,0.0383616858 C179.672123,0.0272860597 179.746741,0.015203732 179.815422,0 C180.612217,0.514006586 181.404364,1.00606503 182.19961,1.51231824 C184.442823,2.94620572 186.686811,4.37808011 188.922794,5.77742536 C188.922794,20.8513501 188.922794,35.9212281 188.922794,50.9959777 C185.891565,54.1540351 182.861368,57.2829659 179.822393,60.3830277 Z M166.924693,45.0082471 C168.220582,44.808742 169.511565,44.6004732 170.805131,44.3878224 C170.805131,35.9761307 170.805131,27.5569639 170.805131,19.1416894 C169.511565,19.3596758 168.220582,19.5635628 166.924693,19.7674498 C166.924693,28.1797085 166.924693,36.5968132 166.924693,45.0082471 Z M133.419021,48.9359716 C134.296632,48.8710164 135.168562,48.7924001 136.043849,48.7163613 C136.043849,46.6841931 136.043849,44.6466119 136.043849,42.6108351 C135.168562,42.6832652 134.296632,42.7572419 133.419021,42.8221971 C133.419021,44.8620981 133.419021,46.899937 133.419021,48.9359716 Z M100.329563,50.3662736 C100.329563,53.3400337 100.329563,56.3132783 100.329563,59.2834298 L112.160137,57.9057105 C112.160137,55.3080201 112.160137,52.7116184 112.160137,50.1159901 C113.152645,50.0853168 114.142571,50.0515505 115.136112,50.0123712 C115.136112,41.595782 115.136112,33.1789351 115.136112,24.7680683 C110.335202,24.9533451 102.16276,25.1203726 97.3587517,25.1531079 C97.3587517,33.5691816 97.3587517,41.9808733 97.3587517,50.3938538 C98.3471287,50.3902452 99.3370549,50.3843167 100.329563,50.3662736 Z M79.0102603,50.1430547 C79.0102603,41.7272389 79.0102603,33.2941532 79.0102603,24.8788271 L74.6067153,24.8788271 C72.3431047,35.3688516 69.9989368,46.1972872 67.7327442,56.6635721 L67.7389409,56.6676963 C69.4665351,58.1235164 71.0944654,59.6156805 72.6162769,61.1372291 L74.8109489,63.4702015 L76.0430637,64.9195777 C76.0430637,60.9941731 76.0430637,53.5323216 76.0430637,50.0273212 C77.0319571,50.0701091 78.0247235,50.1090306 79.0102603,50.1430547 Z M23.8897543,45.3611186 C23.5690224,43.7918847 23.2442625,42.2200732 22.9195027,40.6513548 C22.5916962,42.1200629 22.2629085,43.5934106 21.9346113,45.0634075 C22.5886753,45.16316 23.2402347,45.2644591 23.8897543,45.3611186 Z" id="path56" fill="#FFFFFF"></path>
                        <path d="M86.4328995,189.006594 C86.6190593,190.642845 86.0430224,192.930452 85.2810839,194.267961 C81.1736906,201.520513 72.2679695,199.537318 70.0312114,193.40447 C70.0312114,193.40447 64.0999164,192.733524 62.5672607,184.525977 L64.3359082,185.234298 C64.3359082,185.234298 61.159314,177.296624 66.458027,166.71641 C66.458027,166.71641 67.7590803,172.336319 73.7056088,176.340082 C73.7056088,176.340082 72.6552646,179.881427 74.442244,182.149186 C75.1569325,183.052372 76.8039694,183.414523 78.5553177,179.271054 L79.0802316,180.228627 L80.0918464,180.602119 C77.7092071,192.216976 71.4716908,184.791211 71.4716908,184.791211 C71.4716908,184.791211 74.5326129,189.547371 77.5511907,187.909058 C80.243666,186.446021 81.4342111,182.088355 81.6562603,181.177694 L82.2291988,181.385705 L85.781211,180.656506 C87.5968503,184.459476 87.680506,190.434318 87.680506,190.434318 L86.4328995,189.006594" id="path14" fill="#FCD006"></path>
                        <path d="M64.528523,115.784872 C64.5210353,115.846476 64.5163877,115.907823 64.5138058,115.9702 C64.4634574,116.367406 64.3968427,116.764096 64.3284205,117.165942 C64.2708427,117.496646 64.2078427,117.828381 64.1376132,118.160632 C64.1259943,118.222752 64.1125681,118.283583 64.0988836,118.338486 C64.0635107,118.492367 64.0382074,118.646507 63.9984451,118.804513 C63.977273,118.905297 63.9597156,119.00144 63.9333795,119.10274 C63.6328386,120.311885 63.2375394,121.523608 62.7353468,122.743063 C60.2329042,128.75657 54.9460683,133.281263 54.9460683,133.281263 C56.2218183,131.008864 56.9530314,128.806317 57.2688059,126.673365 C57.8567199,122.697182 56.9953756,118.962777 55.5138429,115.484068 C55.4748552,115.402358 55.4412896,115.317813 55.4069494,115.236877 C53.8608675,111.692697 51.6690356,108.370448 49.5107693,104.830135 C49.3679865,104.598667 49.2252037,104.3672 49.0821627,104.135475 C49.0684783,104.108411 49.0498881,104.081604 49.0356873,104.058405 C48.9468676,103.90839 48.8616627,103.757859 48.7715521,103.607328 C48.5022529,103.159859 48.239925,102.708266 47.9757898,102.249198 C47.7245644,101.821319 47.4790193,101.385707 47.2342488,100.942363 C46.9288021,100.378387 46.6282611,99.8079674 46.3305603,99.2220823 C45.5500316,97.6765622 44.8242407,96.0593852 44.202503,94.3401358 C43.4880727,92.3641589 42.9125522,90.2989976 42.586708,88.124289 C42.4586424,87.30771 42.3860891,86.4658706 42.3396137,85.6142364 C42.3236055,85.3593133 42.299335,85.1121228 42.2933965,84.8584884 C42.2807448,84.4179791 42.2843596,83.9748922 42.296753,83.5325786 C42.299335,83.3609114 42.3161178,83.2000701 42.3236055,83.0366512 C42.3396137,82.6337746 42.3507162,82.2190411 42.3902203,81.806112 C42.802044,77.2525499 44.5384169,73.4611797 46.0612611,71.2954926 C46.1753841,72.0133501 46.373421,72.8229696 46.6775767,73.7390434 C47.6246423,76.5880484 49.622052,80.4876771 53.5404454,86.2393009 C53.9848019,86.8867903 54.448265,87.5590245 54.9460683,88.2596122 C55.0640642,88.4222578 55.175347,88.5833569 55.2879207,88.746518 L55.9122404,89.6556324 C60.7503304,96.7537866 64.1967402,103.958911 64.6413549,111.302451 C64.7343058,112.791007 64.6989328,114.28781 64.528523,115.784872" id="path16" fill="#FCD006"></path>
                        <path d="M30.1999788,7.59098857 C33.2211385,22.2095314 36.2417819,36.7970916 39.2712039,51.3545198 C40.2061342,51.4612318 41.1454539,51.5679439 42.0839989,51.6715628 C42.0839989,53.3178665 42.0839989,54.9700986 42.0839989,56.6122782 L37.4522081,60.8281766 C33.5691877,60.3608604 29.693655,59.847921 25.8261264,59.2805945 C25.8261264,56.0480448 25.8261264,52.8203925 25.8261264,49.5868118 C26.7915239,49.7314144 27.7641509,49.8703462 28.7360034,50.0041229 C28.4414009,48.5493338 28.1429255,47.0924826 27.8493559,45.6333116 C27.1625526,42.3087421 26.4747166,38.9810795 25.7879133,35.6482618 C24.8302617,31.0155678 23.8695892,26.386998 22.9124281,21.7460558 C21.965879,26.0926378 21.0193298,30.4327758 20.0727806,34.7723983 C19.3773536,37.8894722 18.680429,41.0052572 17.9809741,44.1225889 C17.6849516,45.4905133 17.3914594,46.8537982 17.0974766,48.2230115 C18.0914307,48.3892657 19.0843778,48.5493338 20.0727806,48.7073397 C20.0727806,51.9383429 20.0727806,55.1690882 20.0727806,58.3980293 C14.6703242,57.5340227 9.28196534,56.5730989 3.90723925,55.5119071 C3.90723925,52.2811617 3.90723925,49.048612 3.90723925,45.8232796 C4.81043717,46.0013907 5.71461625,46.1782131 6.62739328,46.3532311 C9.63295796,32.6714086 12.6460878,18.9653826 15.6687967,5.22574479 C17.8634688,5.66372808 20.227079,6.08462197 22.8070322,6.50688199 C25.1757031,6.88808107 27.6451223,7.25157215 30.1999788,7.59098857" id="path18" fill="#FCD006"></path>
                        <path d="M54.8804863,48.0977408 L58.4115846,32.8562215 L51.5853799,32.3254967 L54.8804863,48.0977408 Z M71.3637646,20.9328018 C68.9762196,31.9904106 66.5533016,43.1616651 64.1654984,54.1816153 C64.1654984,54.1816153 59.6488633,50.8913277 54.8804863,48.3181244 C50.1123676,50.8913277 45.9711505,53.7689439 45.9711505,53.7689439 C43.5066628,41.9690164 41.0013801,29.9860803 38.545413,18.1428751 C37.6295892,18.0392819 36.7127327,17.9279045 35.8031057,17.8131246 C35.8031057,14.6350393 35.8031057,11.4581655 35.8031057,8.28149789 C40.6084047,8.83647777 45.6664784,9.32209483 50.9398881,9.73138959 C51.325634,9.76572303 51.7085397,9.80902646 52.0958348,9.84436515 C52.0958348,13.0678417 52.0958348,16.2999016 52.0958348,19.5319616 C51.0942897,19.4442463 50.097134,19.3540309 49.0955889,19.259485 C49.3932897,20.7062579 49.7578635,22.5437926 50.0547897,23.9877559 C53.3630642,24.293741 56.5466297,24.5551339 59.8567116,24.7861114 C60.1544124,23.3936998 60.5112403,21.5993654 60.8122977,20.203938 C59.8345067,20.1373848 58.8567157,20.0691303 57.8789248,19.9946123 C57.8789248,16.7679911 57.8789248,13.5344362 57.8789248,10.3070159 C63.3242935,10.7080624 68.7717278,11.0112122 74.223035,11.21662 C74.223035,14.4445558 74.223035,17.7048918 74.223035,20.9328018 L71.3637646,20.9328018 Z" id="path20" fill="#FCD006"></path>
                        <path d="M80.006125,20.9328018 C80.006125,17.7013605 80.006125,14.5267034 80.006125,11.2980717 C90.1307928,11.624394 100.269661,11.6058869 110.39562,11.2519587 C110.39562,14.4808997 110.39562,17.7074952 110.39562,20.9400706 C106.923133,21.0637947 103.448579,21.1444474 99.9740262,21.1877508 C97.7824525,21.2148412 95.5857148,21.2264146 93.3962067,21.2207697 C93.3962067,32.2607993 93.3962067,43.3039478 93.3962067,54.3437454 C94.3830345,54.3437454 95.3729607,54.3437454 96.3665017,54.339879 C96.3665017,57.5719132 96.3665017,60.6851207 96.3665017,63.9161238 L80.006125,63.9161238 C80.006125,60.6851207 80.006125,57.3412193 80.006125,54.1117627 C80.9955349,54.142436 81.9859775,54.1705317 82.9784856,54.1968231 C82.9784856,43.1575409 82.9784856,31.9710787 82.9784856,20.9328018 L80.006125,20.9328018" id="path22" fill="#FCD006"></path>
                        <path d="M129.462931,53.16682 C132.980345,52.9232382 136.492853,52.6350642 139.999681,52.3022979 C139.999681,47.6409927 139.999681,42.9763367 139.999681,38.313485 C136.492853,38.6457357 132.980345,38.933652 129.462931,39.184451 C129.462931,43.8447252 129.462931,48.5086079 129.462931,53.16682 Z M132.463435,19.8262703 C131.463956,19.9028761 130.462927,19.9762857 129.462931,20.045365 C129.462931,23.197262 129.462931,26.3403437 129.462931,29.493246 C134.191288,29.1579021 138.916804,28.7521902 143.634574,28.2650266 C145.873656,29.90102 148.71382,31.898133 150.947222,33.4959781 L150.947222,54.7303832 C148.71382,56.8429721 145.873656,59.5615512 143.634574,61.6375384 C134.487181,62.5750062 125.309579,63.2304861 116.12862,63.6055248 C116.12862,60.3734906 116.12862,57.1399099 116.12862,53.9119999 C117.116481,53.8676654 118.106407,53.8264241 119.096849,53.7800275 C119.096849,42.7386833 119.096849,31.6988857 119.096849,20.6550155 C118.106407,20.7062579 117.116481,20.7467517 116.12862,20.7859052 C116.12862,17.5624287 116.12862,14.3244145 116.12862,11.0968138 C120.387833,10.9235228 124.636976,10.672002 128.891025,10.3794203 C130.092415,10.3098255 131.278312,10.2338125 132.463435,10.1543713 C132.463435,13.378982 132.463435,16.6014533 132.463435,19.8262703 Z" id="path24" fill="#FCD006"></path>
                        <path d="M162.993131,49.5411886 C166.911525,48.9661293 170.824754,48.3428692 174.731012,47.6672841 C174.731012,36.6228468 174.731012,25.5835389 174.731012,14.5453394 C170.824754,15.2198419 166.911525,15.8498295 162.993131,16.4200171 C162.993131,27.4644286 162.993131,38.5037108 162.993131,49.5411886 Z M178.453692,4.22693051 C180.642426,5.64259188 182.832967,7.04405076 185.011631,8.42870378 C185.011631,22.2638926 185.011631,36.0998548 185.011631,49.9347858 C182.817991,52.207185 180.612217,54.4636031 178.408766,56.7040402 C172.045766,57.8618915 165.662885,58.8828731 159.260381,59.7628607 C157.066742,58.2273931 154.876201,56.6746558 152.679463,55.1059374 C152.679463,41.2715218 152.679463,27.4311778 152.679463,13.5993913 C154.745037,11.6298327 156.80364,9.63885428 158.864049,7.64022045 C161.551877,7.28631799 164.149078,6.90872753 166.638869,6.50688199 C171.165832,5.76997614 175.076996,5.01028444 178.453692,4.22693051 Z" id="path26" fill="#FCD006"></path>
                        <path d="M119.211747,80.3149789 C118.753448,80.0835118 118.146686,80.0835118 117.512813,80.5768616 C116.832464,81.1163502 116.783149,81.6723353 116.850538,82.1123291 C116.868354,82.2169791 116.948395,82.4051428 117.033083,82.462623 C116.710337,82.3971523 116.421932,82.2422394 116.229317,81.9803568 C115.727641,81.3137932 115.97835,80.2062048 116.820329,79.5739232 C117.665665,78.941126 118.838653,79.0040191 119.337231,79.6747067 C119.53346,79.9334963 119.5678,80.2520858 119.528038,80.5964512 C119.490083,80.4961832 119.31012,80.3652418 119.211747,80.3149789" id="path28" fill="#713907"></path>
                        <path d="M86.1499159,138.851425 C86.168506,144.334722 86.1473339,150.325545 86.168506,155.807038 C85.5330839,155.744661 84.7133094,155.648517 83.7393913,155.502367 C83.7621127,154.60743 83.7858668,153.69316 83.8060061,152.7825 C83.9175471,148.307812 84.0365758,143.683881 84.14192,139.294769 L84.1452766,139.290387 C84.1452766,139.274148 84.1452766,139.259714 84.1494077,139.243991 C84.4145758,139.181613 84.6859405,139.124133 84.9604036,139.070261 C85.3154241,139.000924 85.6673462,138.927463 86.029338,138.870499 C86.0698749,138.861477 86.1111864,138.857868 86.1499159,138.851425" id="path30" fill="#713907"></path>
                        <path d="M81.3102767,155.085572 C80.5627972,154.942774 79.7670349,154.777035 78.9224734,154.580623 C79.2457357,149.997934 79.5628013,145.091501 79.8842562,140.506234 C79.8842562,140.506234 79.8842562,140.506234 79.8876128,140.50211 C80.3980677,140.316782 80.9265963,140.135062 81.4680348,139.961333 C81.6299242,139.915194 81.7801947,139.861322 81.942084,139.814926 L81.942084,139.822401 C81.9456988,139.822401 81.9456988,139.822401 81.9506045,139.822401 C81.7690922,144.034691 81.5886127,148.470457 81.409166,152.759301 C81.3758586,153.538505 81.3441004,154.317967 81.3102767,155.085572" id="path32" fill="#713907"></path>
                        <path d="M69.6792892,151.737289 L70.830072,145.353641 C71.3728015,144.975252 72.1094367,144.463601 73.0288752,143.888284 C72.6273793,146.811781 72.2400843,149.604852 71.8385884,152.5317 C71.1316458,152.285026 70.4099859,152.018761 69.6792892,151.737289" id="path34" fill="#713907"></path>
                        <path d="M74.1897277,153.299821 C74.6067153,149.73502 74.980326,146.078716 75.3965391,142.514946 C76.0897973,142.14429 76.84683,141.777757 77.6511128,141.41174 C77.6542112,141.41174 77.6542112,141.41174 77.6578259,141.41174 C77.2865391,145.508296 76.8775555,149.882716 76.5070432,153.970509 C75.7574981,153.77023 74.9854899,153.546496 74.1897277,153.299821" id="path36" fill="#713907"></path>
                        <path d="M90.3314117,140.238939 C90.5170551,145.180427 90.6174936,150.353383 90.8026207,155.289974 C90.1196904,155.44798 89.4052601,155.598511 88.6508093,155.737443 C88.5705101,150.353383 88.4964076,144.589387 88.4148175,139.205327 C88.4576781,139.225432 88.4964076,139.243991 88.5343625,139.267189 C89.048174,139.517988 89.6513215,139.83864 90.3314117,140.238939" id="path38" fill="#713907"></path>
                        <path d="M94.8279075,154.155321 C94.2296657,154.357146 93.5676493,154.561033 92.8508952,154.765436 C92.6105141,150.360343 92.3985346,145.832041 92.1591862,141.419473 C92.7656903,141.843228 93.3985305,142.326009 94.0391165,142.861632 C94.3174526,146.580572 94.5418255,150.456487 94.8279075,154.155321" id="path40" fill="#713907"></path>
                        <path d="M97.8302189,153.007007 C97.5369074,153.133824 97.1813705,153.28384 96.7651574,153.44597 C96.4813992,150.450043 96.2084853,147.571911 95.9247271,144.585521 C96.1328337,144.79379 96.3442968,145.00644 96.5518869,145.230432 C97.130764,147.247651 97.5596287,149.855394 97.8302189,153.007007" id="path42" fill="#713907"></path>
                        <polygon id="path44" fill="#713907" points="53.7387405 34.2829149 56.1905765 34.4561286 54.903724 39.9868533"></polygon>
                        <path d="M34.8015606,19.7796417 C35.4855237,19.8647278 36.1650975,19.9487056 36.8495769,20.0337659 C38.9004335,29.9311777 40.9611014,39.8136396 43.0166055,49.6801204 C42.3310932,49.6056282 41.6479047,49.5339713 40.9680727,49.4569015 C38.9074048,39.5790793 36.8521589,29.6855338 34.8015606,19.7796417" id="path46" fill="#713907"></path>
                        <path d="M78.7585185,110.866324 L78.7585185,83.9553026 C75.0102768,77.5773256 68.4009573,68.3493127 58.7826133,61.276161 L78.7585185,110.866324 Z M45.7818923,60.3644691 C45.8898185,60.2768312 45.9907734,60.1886777 46.0950849,60.1031019 C46.1684128,60.0456218 46.2419988,59.9853063 46.3145521,59.9293727 C46.5500275,59.7406934 46.7896341,59.554334 47.0287242,59.3646237 C47.6055357,58.9189592 48.1859619,58.4750991 48.7826545,58.0400027 C48.8038266,58.0235061 48.8177693,58.0082984 48.8350685,57.9961837 C48.8763799,57.966026 48.9192406,57.9343217 48.9569373,57.9031329 C49.657425,57.3986995 50.3695315,56.8973591 51.101261,56.4078757 C52.3313102,55.5822751 53.6096421,54.7798728 54.9359986,54.0114947 L54.9308347,54.0187119 C54.9359986,54.0151033 54.9383224,54.0114947 54.9434863,54.0114947 C56.2682937,54.7852858 57.5430109,55.5822751 58.7751256,56.4078757 C59.5047895,56.8973591 60.216896,57.3986995 60.9153181,57.9031329 C61.9052444,58.6230525 62.8551501,59.3571487 63.7792361,60.105164 C72.5463056,67.2579631 78.5839775,75.7861616 82.2028627,81.9339602 L82.7494651,82.8794185 L82.7494651,118.557838 C78.3379161,117.4353 73.2062564,116.579026 67.6121663,116.062993 C67.7903221,114.434733 67.8290516,112.776057 67.7327442,111.117123 C67.6973713,110.585109 67.6459901,110.048971 67.5860885,109.512834 C66.9968836,104.274407 65.0777074,98.905297 61.662023,92.9884501 C60.7105682,91.3377645 59.6488633,89.6445487 58.4629658,87.9018434 L57.8249617,86.9759747 L57.7010272,86.8068851 L57.4740723,86.4790163 C56.9863387,85.7913165 56.5313961,85.1273306 56.0978838,84.49608 C52.7085356,79.5275266 50.5874496,75.6905332 49.6150807,72.7613653 C49.3790889,72.0525294 49.2711627,71.6780063 49.1149537,70.9390126 C48.993343,70.3178145 48.9156258,69.9200931 48.8288717,69.3089476 C48.7638062,68.8387961 48.6837652,68.0534059 48.6432283,67.5167526 C49.1325111,66.281316 49.5874537,65.1172785 50.0008266,64.0602108 C50.4074864,63.0302077 50.7694782,62.1007305 51.0917077,61.276161 C51.0917077,61.276161 51.0917077,61.2841515 51.0860274,61.2841515 C50.3721135,61.807659 49.6842774,62.3430235 49.0080603,62.8850897 C40.6579785,69.5888734 34.7974295,77.762654 31.2967984,83.6436725 C31.2392205,83.7475492 31.1726058,83.8496216 31.1152861,83.951694 C31.111155,83.9638086 31.1047,83.9705103 31.1000525,83.9790164 L31.1000525,86.2475491 L31.1000525,110.330701 L31.1000525,110.437413 L31.1000525,110.893646 L35.1560647,100.83462 L39.6961957,89.5571686 L40.8622121,86.6558386 L42.1002653,83.5923786 L42.3236055,83.0366512 C42.3161178,83.2000701 42.299335,83.3609114 42.296753,83.5325786 C42.2933965,83.6622311 42.296753,83.7978121 42.296753,83.9326198 C42.2897817,84.2393525 42.2843596,84.5499515 42.2933965,84.8584884 C42.299335,85.1121228 42.3236055,85.3593133 42.3396137,85.6142364 C42.3860891,86.4658706 42.4586424,87.30771 42.586708,88.124289 C42.9125522,90.2989976 43.4880727,92.3641589 44.202503,94.3401358 C44.8242407,96.0593852 45.5500316,97.6765622 46.3305603,99.2220823 C46.6282611,99.8079674 46.9288021,100.378387 47.2342488,100.942363 C47.4790193,101.385707 47.7245644,101.821319 47.9757898,102.249198 C48.239925,102.708266 48.5022529,103.159859 48.7715521,103.607328 C48.8616627,103.757859 48.9468676,103.90839 49.0356873,104.058405 C49.0498881,104.081604 49.0684783,104.108411 49.0821627,104.135475 C49.2252037,104.3672 49.3679865,104.598667 49.5107693,104.830135 L45.1679005,115.823278 C38.436454,116.301935 32.2905976,117.250487 27.1243395,118.557838 L27.1243395,82.8765831 L27.6779132,81.9339602 C28.5038845,80.5263409 29.4651509,78.987007 30.5503517,77.3760162 C30.5544828,77.3669947 30.5619705,77.3587464 30.5655853,77.3528179 C34.1630401,72.0133501 39.1940031,65.8106489 45.7818923,60.3644691 Z" id="path48" fill="#713907"></path>
                        <path d="M166.924693,45.0082471 C168.220582,44.808742 169.511565,44.6004732 170.805131,44.3878224 C170.805131,35.9761307 170.805131,27.5569639 170.805131,19.1416894 C169.511565,19.3596758 168.220582,19.5635628 166.924693,19.7674498 C166.924693,28.1797085 166.924693,36.5968132 166.924693,45.0082471 Z M164.746029,17.9163311 C167.4935,17.5085571 170.238906,17.0669395 172.981213,16.6014533 C172.981213,26.4718006 172.981213,36.342921 172.981213,46.2099174 C170.238906,46.6715629 167.4935,47.1131033 164.746029,47.5237126 C164.746029,37.658005 164.746029,27.7886889 164.746029,17.9163311 Z" id="path50" fill="#713907"></path>
                        <path d="M133.419021,48.9359716 C134.296632,48.8710164 135.168562,48.7924001 136.043849,48.7163613 C136.043849,46.6841931 136.043849,44.6466119 136.043849,42.6108351 C135.168562,42.6832652 134.296632,42.7572419 133.419021,42.8221971 C133.419021,44.8620981 133.419021,46.899937 133.419021,48.9359716 Z M131.231062,40.8096185 C133.566968,40.6397557 135.898743,40.4469523 138.234648,40.2345593 C138.234648,43.7295071 138.234648,47.2192998 138.234648,50.710639 C135.898743,50.922001 133.566968,51.1106802 131.231062,51.284925 C131.231062,47.7930703 131.231062,44.3037931 131.231062,40.8096185 Z" id="path52" fill="#713907"></path>
                        <path d="M124.010591,70.0997508 C124.351411,70.3319912 124.526985,70.6992971 124.621743,71.1176392 C124.537054,71.0150513 124.266206,70.929991 124.130653,70.9062772 C123.494198,70.8212169 122.772022,71.0573237 122.230325,71.8945234 C121.646542,72.7966783 121.821858,73.4753564 122.0878,73.9656132 C122.152866,74.0844398 122.326116,74.2697682 122.453923,74.3079165 C122.039776,74.3594682 121.639313,74.2857493 121.295395,74.0584062 C120.426046,73.4678815 120.260284,72.0597466 120.989431,70.9792229 C121.731231,69.901019 123.143308,69.509226 124.010591,70.0997508" id="path54" fill="#713907"></path>
                        <path d="M186.759364,7.24744801 C184.191598,5.63101852 181.6197,3.99144232 179.042897,2.32939215 C175.522901,3.17818839 171.341147,4.01951222 166.36802,4.82500761 C163.758168,5.24487047 161.01741,5.63846774 158.190414,6.00858321 C155.765689,8.35501062 153.344062,10.6799667 150.920111,12.9877046 C150.920111,19.0703161 150.920111,25.1531079 150.920111,31.2398178 C148.708656,29.6574382 146.492812,28.0595931 144.275935,26.4444782 C139.929968,26.8924625 135.582452,27.2821934 131.231062,27.6059381 C131.231062,25.6299612 131.231062,23.6514583 131.231062,21.6819254 C132.230542,21.6039793 133.231054,21.525466 134.231566,21.4413852 C134.231566,17.0705739 134.231566,12.700742 134.231566,8.33596226 C130.691431,8.57771398 127.063509,8.78703968 123.368198,8.95973789 C120.412878,9.10330939 117.41444,9.22311555 114.375723,9.31876974 L114.375723,9.36900688 L114.375723,22.6067372 C115.414448,22.5711923 116.411862,22.5343329 117.326653,22.4950762 C117.326653,32.3659648 117.326653,42.236312 117.326653,52.102535 C116.338792,52.1448074 115.348866,52.1881109 114.361522,52.2223928 C114.361522,56.6218153 114.361522,61.028455 114.361522,65.4294241 C124.34444,65.0639225 134.321419,64.3651391 144.275935,63.3312697 C146.681037,61.0908326 149.086914,58.8269395 151.491759,56.5468075 C153.870525,58.2554888 156.247742,59.9389097 158.623668,61.6115048 C165.450131,60.6781612 172.254131,59.5886159 179.040832,58.3451888 C181.6197,55.723269 184.189532,53.0817597 186.759364,50.4129279 C186.759364,36.0217539 186.759364,21.6378229 186.759364,7.24744801 Z M112.215132,9.38109575 C106.494526,9.53917906 100.64792,9.62676541 94.724887,9.62676541 C89.1369937,9.62676541 83.6229446,9.55026267 78.2139817,9.40919143 L78.2139817,22.6989632 C79.4584898,22.7232183 80.57958,22.6827502 81.2088053,22.6989632 C81.2088053,32.5713983 81.2088053,42.5216507 81.2088053,52.3925134 C80.2199119,52.359778 79.2271456,52.3296203 78.2382521,52.2948229 C78.2382521,55.7786871 78.2382521,61.8419409 78.2382521,65.6413016 L98.1359238,65.6413016 C98.1359238,61.2377549 98.1359238,56.9736557 98.1359238,52.5726866 C97.1434156,52.5804193 96.155555,52.5848012 95.1612394,52.5889254 C95.1612394,42.7196092 95.1612394,32.8471999 95.1612394,22.9809768 C99.8939852,22.9727286 106.54694,22.8529224 112.215132,22.6807397 L112.215132,9.38109575 Z M76.0546825,9.34637568 C69.1925884,9.14246291 62.5158796,8.82541993 56.113892,8.39648396 C56.113892,12.759047 56.113892,17.2904677 56.113892,21.6507109 C56.214847,21.6584694 58.3514248,21.8122997 58.650933,21.836065 C58.6297608,21.9499427 58.4745846,22.6948391 58.4255272,22.9505871 C56.1815396,22.7845391 53.8915929,22.5951639 51.4885561,22.3778734 L51.2605684,21.2401015 C51.4764208,21.2612635 53.8229126,21.4651505 53.8229126,21.4651505 L53.8567364,21.4679601 C53.8567364,17.1128463 53.8567364,12.5935145 53.8567364,8.23486937 C46.8712242,7.7368799 40.2252408,7.11261452 34.0442696,6.36050092 C34.0442696,10.1482367 34.0442696,13.9321576 34.0442696,17.7198934 C33.2392123,13.831374 32.4323475,9.94434968 31.6290976,6.05632009 C28.6644829,5.67481169 25.8025272,5.26007823 23.0788617,4.82500761 C19.800977,4.29299402 16.8841545,3.74757698 14.2583197,3.19187537 C11.2401292,16.9316162 8.22245512,30.6415602 5.21286257,44.3195164 C4.19267571,44.1225889 3.18005402,43.921795 2.16492007,43.717908 C2.16492007,48.1142374 2.16492007,52.5198461 2.16492007,56.9208152 C8.69800183,58.2348681 15.2512668,59.4084427 21.8267109,60.4343216 C21.8267109,56.0292284 21.8267109,51.6282594 21.8267109,47.2272903 C20.9693946,47.0953179 20.1106065,46.9563861 19.2533159,46.8174542 C19.4000491,46.1318166 19.5468081,45.4500453 19.698602,44.762861 C20.3980569,41.649138 21.0919605,38.5338685 21.7878781,35.4167947 C22.1676081,33.6774401 22.5412703,31.9370546 22.9235306,30.2020819 C23.3057908,32.0527881 23.6895486,33.9052987 24.0718088,35.759098 C24.7586379,39.091658 25.4429625,42.4255067 26.1313149,45.7572934 C26.2779707,46.4821104 26.4282411,47.2131136 26.5736059,47.9402504 C25.7415153,47.8214237 24.901369,47.6974418 24.0682715,47.5695936 C24.0682715,51.9705627 24.0682715,56.3766869 24.0682715,60.777656 C27.9549583,61.3658609 31.9776631,61.9215883 35.8792737,62.4069476 L35.8957983,62.3896778 C36.4083188,61.8592107 36.9311671,61.344467 37.4550482,60.8281766 L42.0865809,56.6122782 C42.2309129,56.491905 42.3700809,56.3645723 42.5131219,56.2503852 L42.7945563,56.0062879 L42.830962,55.9799965 L42.8611711,55.9529319 L43.8802735,55.1533649 C44.5484866,54.6319195 45.1485358,54.1782644 45.7627857,53.7266715 L45.9321628,53.5998543 C45.9321628,53.5998543 50.1123676,50.6557364 54.8804863,48.0861417 C59.6488633,50.6557364 64.2354697,53.9037516 64.2354697,53.9037516 C64.7518631,54.285492 65.2723877,54.6826979 65.8032402,55.0979469 C68.1151335,44.4110206 70.469113,33.4220014 72.781781,22.6989632 C73.4474121,22.7291725 74.7208383,22.6768218 76.0546825,22.6989632 L76.0546825,9.34637568 Z M23.8897543,45.3611186 C23.5690224,43.7918847 23.2442625,42.2200732 22.9195027,40.6513548 C22.5916962,42.1200629 22.2629085,43.5934106 21.9346113,45.0634075 C22.5886753,45.16316 23.2402347,45.2644591 23.8897543,45.3611186 Z M27.9810362,75.9140099 C26.9105526,77.5059265 25.8994543,79.1107311 24.9714436,80.6840891 L24.0718088,82.2190411 L24.0718088,122.858797 C24.1756814,122.873747 33.0587328,124.116401 41.5479826,127.950559 C49.7080315,131.630062 54.8895232,136.587016 54.8895232,136.587016 L54.8970109,136.582376 C54.9736953,136.508915 60.1329821,131.606863 68.233904,127.950559 C73.6601662,125.50443 79.2405718,124.111761 82.5927397,123.421999 C84.2346126,123.085882 85.3425348,122.912668 85.6319733,122.873747 L85.6859364,122.851322 L85.6859364,122.033712 L85.6859364,82.2190411 L84.8018708,80.6967193 C82.6492848,77.0352594 79.5780349,72.4226706 75.5400965,67.6958948 C74.6178178,66.6166598 73.6431252,65.534074 72.6162769,64.450715 C70.941613,62.6858423 69.1375925,60.9297335 67.1820106,59.2347134 C66.614236,58.7449722 66.039232,58.2554888 65.4487361,57.7732226 C65.3823795,57.7229597 65.3248016,57.6765632 65.2633508,57.6273313 C64.7257853,57.1932659 64.2042279,56.7880695 63.6989369,56.3988541 C63.2651665,56.0725318 62.8365599,55.7513647 62.4195722,55.4443743 C61.6772567,54.9097831 60.9313263,54.3821514 60.1593182,53.8656034 C59.3746584,53.3444156 58.5783797,52.8278675 57.7937199,52.3461168 L54.9460683,50.5830485 L53.474347,51.4400956 C52.1843962,52.1961014 50.8823102,53.007783 49.6060438,53.8656034 C48.9293103,54.3171963 48.2347611,54.8035866 47.3514701,55.4443743 L47.1420726,55.5985139 C46.902466,55.7701811 46.683257,55.9418483 46.4537202,56.1114534 C46.0674579,56.4042671 45.6891997,56.6939877 45.318171,56.9819039 L44.2977776,57.7848217 L43.9982694,58.0420647 C43.3512284,58.5717585 42.7194211,59.1233618 42.0865809,59.6788314 C41.5363637,60.1634174 40.9938924,60.6699129 40.4506465,61.1753774 C39.9055933,61.6875436 39.3602818,62.2164641 38.8198761,62.7482199 C38.1782572,63.3879766 37.5454171,64.0359815 36.9169663,64.7035761 C33.7496672,68.063974 30.7863435,71.7656441 28.0626263,75.7936366 L27.9810362,75.9140099 Z M68.8910147,144.408698 L66.8623631,152.573973 C78.3797439,157.380396 87.3218708,157.604388 87.3218708,157.604388 C94.6608542,156.462518 99.1792967,154.056084 99.2167352,154.032886 C98.9285877,149.905399 98.4021246,146.749661 97.6776246,144.394264 C92.8586411,139.027989 87.1228011,136.984222 87.1228011,136.984222 C86.533338,137.045053 85.9508462,137.126504 85.3753257,137.222133 C76.5801128,138.658106 70.7082032,143.155734 68.8910147,144.408698 Z M67.9021213,161.064539 C69.5359901,162.378849 71.6697277,163.926432 74.2380104,165.218317 C76.8775555,166.545774 79.9805636,167.602068 83.4997848,167.856218 C83.7510102,167.526029 84.1716126,166.857404 84.6007356,165.711667 C81.7414652,165.526339 73.423658,164.447619 66.4877196,158.129442 C66.3924451,159.050671 66.8899901,160.095882 67.9021213,161.064539 Z M82.3753381,178.941897 C83.8863053,177.662126 85.9366454,173.372508 86.5397929,169.145011 C86.5446987,169.094748 86.5524446,169.048351 86.560965,168.998088 C86.17367,169.028762 85.7863749,169.044743 85.4055348,169.056342 C85.3964979,169.091139 85.3890102,169.121812 85.3820388,169.160218 C84.5281823,173.307038 82.2563094,177.032937 80.7721947,178.436432 L82.3753381,178.941897 Z M85.0066208,178.575364 C86.3541495,176.731875 87.7657109,172.990768 88.1429363,168.797552 C87.8646003,168.836474 87.5947847,168.886221 87.3058626,168.92205 C87.2890798,169.037268 87.2790101,169.145011 87.2588708,169.260744 C86.6113134,173.318637 84.8826864,177.283994 83.391084,178.865342 L85.0066208,178.575364 Z M69.6057032,155.282499 C69.022695,155.047424 68.0296704,154.642485 67.5664655,154.434216 C66.8089164,157.068251 68.265404,158.375602 69.1590229,159.06227 C72.0818097,160.933597 76.1120022,163.038969 82.2291988,163.752187 C83.2330676,163.894727 84.2028545,163.945506 85.1424323,163.945506 C85.4001126,162.517781 85.6836126,161.144959 85.9064364,159.066395 C85.5356659,159.031597 85.1646372,158.992676 84.8018708,158.955043 C83.9286495,160.350032 81.720293,162.245073 77.5834653,160.928958 C72.1009162,159.185479 69.323236,156.679035 69.323236,156.679035 L69.6057032,155.282499 Z M88.3949363,164.400707 C88.3985511,164.157641 88.407588,163.922307 88.4112027,163.686716 C88.4148175,163.085108 88.3758298,162.125215 88.3185101,161.588562 C88.1943175,160.504687 88.0290716,159.914162 87.7228503,159.691459 C87.7187191,159.687593 87.715879,159.687593 87.7065839,159.683469 C87.6694035,159.655888 87.6265429,159.637072 87.5841986,159.622122 C87.511129,159.603048 87.4408995,159.582685 87.3593093,159.586294 C87.3079281,159.586294 87.2668749,159.605883 87.2240142,159.617998 C86.9079814,159.714657 86.7440265,160.099233 86.6324855,160.6596 C86.5650962,161.021493 86.5144896,161.446537 86.454588,161.912822 C86.4166331,162.499223 86.312838,163.246722 86.2423503,163.917926 C86.2201454,164.154032 86.1938093,164.400707 86.1625675,164.647382 C86.0430224,165.665271 85.8715798,166.76126 85.6472069,167.90313 C85.999129,167.887922 86.3541495,167.872457 86.7143339,167.841268 C86.7793995,167.833535 86.8504036,167.833535 86.9185675,167.82606 C87.101629,167.809822 87.2756536,167.786881 87.4470962,167.768065 C87.7187191,167.737391 87.9789814,167.702078 88.2366617,167.662899 C88.3259978,166.522575 88.3724732,165.419627 88.3949363,164.400707 Z M89.3964814,163.505512 C93.4284813,162.657744 96.4741697,160.790026 97.9559607,159.417204 L98.0860918,156.239041 C97.9004484,156.308378 97.7153213,156.377973 97.5322599,156.44731 C97.4294976,157.990511 97.4718418,158.232546 96.0507271,159.285747 C94.1596944,160.693882 91.8958256,161.631865 89.7308461,158.72306 C89.3688543,158.799872 89.0370715,158.869467 88.7471166,158.927205 C89.0551453,160.597738 89.2598953,162.163363 89.3964814,163.505512 Z M89.6513215,167.382973 C90.2666043,167.231411 90.8369608,167.061806 91.3745264,166.876478 C92.9624362,166.332865 94.2332804,165.642072 95.3432681,164.886582 C96.3613378,164.149393 97.5121205,163.042835 97.8247967,162.494583 C97.8358992,162.480149 97.8428705,162.471385 97.8511328,162.457466 L97.9030303,160.604182 C96.7951082,161.886015 94.2887927,164.069488 89.5444281,165.171921 C89.6118174,166.167126 89.6381535,166.930865 89.6513215,167.382973 Z M99.6401369,154.541863 C99.6401369,154.508717 99.6401369,154.481189 99.6401369,154.449166 C99.6401369,154.481189 99.6231369,154.516582 99.6231369,154.549166 C99.6401369,154.541863 99.6401369,154.541863 99.6401369,154.541863 Z M94.001678,136.540619 C94.3688337,138.063972 95.0868788,139.803327 95.3688296,140.412926 C96.103141,141.022267 96.8707599,141.700687 97.5671164,142.484273 C97.6048131,141.223061 97.8756615,139.984531 98.02335,139.382923 C97.3417107,138.9968 96.9433132,138.754765 96.0576984,138.124803 C95.6512968,137.832505 95.0835222,137.387872 94.4429362,136.882923 C94.2575509,136.721308 94.1031493,136.590367 94.001678,136.540619 Z M71.0157154,140.925092 C71.8966826,140.409575 72.4030064,140.042527 73.4195269,139.583459 C75.2617604,136.250641 77.3288833,134.569024 79.2922111,133.828484 C77.1610554,132.841269 75.061658,133.277396 73.169076,134.148362 L71.0157154,140.817864 C71.1468794,140.737186 70.8850679,141.002419 71.0157154,140.925092 Z M99.53535,131.063251 C101.954395,132.62501 104.596522,134.083407 107.702887,134.777036 C107.961083,134.391944 108.274792,134.001698 108.617678,133.620215 C108.181325,133.453961 107.742649,133.258322 107.309395,133.003399 C101.884424,129.769818 97.5121205,126.53134 92.5681698,128.069385 C87.3017314,129.708987 82.1202398,127.772705 79.5393054,126.499636 C77.811453,126.944012 75.8522563,127.5134 73.8109531,128.227907 C89.1832109,133.264766 94.3078993,127.688161 99.53535,131.063251 Z M112.761993,139.769045 C112.701833,139.680118 112.654067,139.587325 112.606559,139.491181 C111.946866,138.032783 113.064858,136.065313 115.148247,134.84663 C115.386304,134.707698 115.627202,134.576242 115.885399,134.461539 C116.91612,133.994223 117.963624,133.782861 118.895972,133.797811 C120.272161,133.828484 121.397899,134.353796 121.839673,135.321164 C121.894669,135.441021 121.931849,135.564488 121.964124,135.687181 C123.152862,135.155167 124.115419,133.982108 124.780017,132.876066 C125.174026,132.107946 125.023239,131.447826 124.674673,130.993656 C124.501681,130.761673 124.273694,130.5815 124.045448,130.465251 C123.832177,130.371942 123.609612,130.295388 123.368198,130.230175 C122.110522,129.890192 120.453415,129.90875 118.638292,130.299512 C117.572714,130.526597 116.454206,130.877407 115.321755,131.355291 C115.183362,131.414576 115.040837,131.475664 114.898055,131.537526 C113.285874,132.263374 111.879477,133.157539 110.756321,134.114081 C110.367477,134.438341 110.024075,134.770592 109.710883,135.10542 C109.073911,135.78384 108.577657,136.475149 108.261624,137.142228 C107.200952,140.617328 111.8818,139.9237 112.761993,139.769045 Z M112.774387,139.810995 C112.771546,139.803223 112.766899,139.786643 112.7638,139.772653 C112.698735,139.810995 112.635735,139.842602 112.571186,139.872653 C112.641415,139.842602 112.706481,139.842602 112.774387,139.810995 Z M113.847194,139.421844 C113.872239,139.521854 113.922846,139.606399 113.984813,139.683469 C114.032579,139.745589 114.078022,139.803327 114.1356,139.861322 C114.754755,140.478912 116.14153,140.624545 117.577878,140.142279 C119.006997,139.664395 120.016546,138.727443 120.159845,137.866529 C120.190054,137.67785 120.19212,137.493037 120.132477,137.318535 C119.806374,136.343176 118.129645,136.018916 116.391723,136.60145 C116.136108,136.690635 115.903214,136.790903 115.670063,136.906121 C114.356358,137.554641 113.56421,138.592635 113.847194,139.421844 Z M125.754968,130.260848 C134.228468,124.174139 138.713603,112.922463 140.687001,99.5226287 C142.48121,87.3267841 141.140394,78.0224746 139.748972,72.4765422 C139.437845,74.8979257 138.881173,76.9661802 138.234648,78.6869761 C143.760574,96.5517039 135.414624,111.371788 133.241124,114.789151 C133.369189,118.036908 132.581431,121.623876 129.83112,124.972159 C128.257153,126.885758 126.638001,128.305492 125.005939,129.334464 C125.443841,129.585263 125.706944,129.901791 125.754968,130.260848 Z M134.459554,92.2564159 C134.910882,93.680274 135.088779,95.4185975 135.234144,96.607122 C135.60982,99.6690356 135.146357,102.191203 135.725234,102.106658 C136.487173,101.998915 137.097033,99.8316812 137.503435,96.5839238 C138.257369,90.6211958 136.730911,85.2435797 136.000472,83.1080503 C135.023197,84.5922239 134.25687,85.3170409 134.25687,85.3170409 L135.745374,89.1205257 C135.34207,90.1884192 134.907784,91.2380119 134.459554,92.2564159 Z M130.603644,66.7017202 C130.590476,66.749921 130.584021,66.7952865 130.57137,66.8440029 C130.453374,67.3695725 130.317821,67.9204025 130.317821,67.9204025 C128.577833,74.6940388 125.235993,78.9321044 125.235993,78.9321044 C125.235993,78.9321044 128.415169,80.8859141 133.923021,80.6688814 C135.277005,80.6170719 137.663775,73.7532201 136.043849,69.764407 C135.647517,68.7903375 134.907784,67.4461268 134.22098,66.4351978 L133.661726,66.4826254 C132.641591,66.5640771 131.621714,66.6261969 130.603644,66.7017202 Z M119.434571,67.3811716 C119.146681,69.4141131 117.37003,79.2808517 109.472825,85.0976884 C112.23837,85.9006062 115.863194,85.3327641 118.813866,82.7062048 C125.83062,76.4491166 126.655042,68.0459309 126.655042,68.0459309 C126.655042,68.0459309 126.762968,67.4311768 126.805312,67.008195 C126.805312,66.9932451 126.807894,66.9870588 126.807894,66.9728821 C126.632321,66.9839657 126.457005,66.9991735 126.278849,67.0102571 L121.954571,67.2610562 C121.116981,67.3056484 120.275259,67.3394148 119.434571,67.3811716 Z M99.6156491,121.246259 C94.5957886,116.259148 91.6841043,112.294306 91.6841043,112.294306 L92.4290018,97.732238 C90.9608953,96.5839238 89.1132396,96.8378159 88.0011863,97.5182984 L88.0011863,113.489274 C91.2916453,117.836887 96.1656246,120.112637 99.6156491,121.246259 Z M105.288747,126.453239 C104.526292,125.812452 103.797145,125.172953 103.09201,124.540671 C94.7677476,123.510153 89.7370428,121.1496 88.0011863,120.212648 L88.0011863,122.851322 L88.0011863,124.517473 C88.9704568,125.577376 90.4894281,126.406843 92.8121657,125.875345 C98.2787066,124.613617 101.272239,125.535619 106.662354,129.769818 C108.206112,130.974582 109.515169,131.57619 110.618702,131.799151 C111.17744,131.374881 111.773358,130.974582 112.400776,130.618617 C109.682739,129.670324 107.238907,128.104441 105.288747,126.453239 Z M105.863235,103.552941 C109.299317,105.346683 121.131956,110.484326 128.177112,109.204039 C128.553304,107.483243 128.645997,106.427722 128.645997,106.427722 C128.645997,106.427722 124.614771,106.257086 119.24712,105.077325 C115.627202,104.282398 111.04421,102.585831 107.753235,102.689708 C106.667001,102.72399 106.081153,103.229454 105.863235,103.552941 Z M93.526596,95.2185769 C96.7021574,93.3438991 99.3417024,95.9743249 99.3417024,95.9743249 C100.402116,95.6505801 101.307354,95.5701595 102.077038,95.624031 C103.35537,95.7170818 104.32619,96.2521885 104.872792,96.6540341 C104.927272,96.6906358 104.982784,96.7339392 105.030034,96.7723452 C105.055338,96.7914194 105.077542,96.811009 105.102588,96.8295676 C105.0951,96.6615091 105.085547,96.4908729 105.077542,96.3261652 C105.04062,94.9719019 105.140542,93.7364653 105.32851,92.6381563 C104.70419,92.5641796 101.430514,92.1829547 98.1163008,91.8548281 C95.0835222,91.550673 90.2260674,91.2537352 88.8312888,91.1655818 C88.8359363,91.2078542 88.8359363,91.2537352 88.8359363,91.2954921 C88.797465,92.6108339 89.1292478,93.2663138 89.848842,94.0924299 C90.7414281,95.118051 93.526596,95.2185769 93.526596,95.2185769 Z M97.6148828,106.071757 L98.4571205,98.3923576 C98.0003705,97.9572612 97.3861205,97.3744692 96.4741697,97.2466209 C95.8328091,97.1615606 94.7979566,97.4484459 94.2609075,97.6250104 L92.521178,109.990976 C93.3063542,108.560674 94.8085427,106.850961 97.6148828,106.071757 Z M98.2513377,110.639496 C97.4640959,110.639496 96.8253173,111.279253 96.8253173,112.058972 C96.8253173,112.845394 97.4640959,113.481799 98.2513377,113.481799 C99.0359975,113.481799 99.6755508,112.845394 99.6755508,112.058972 C99.6755508,111.279253 99.0359975,110.639496 98.2513377,110.639496 Z M104.353817,105.995203 C107.046292,107.907771 119.182571,115.067014 126.865989,113.732083 L126.880448,113.721515 C127.15646,113.65888 127.469911,113.265798 127.589972,112.899265 C127.713132,112.513143 127.745923,111.738836 127.570349,111.579799 C119.760931,112.455405 107.910477,107.214143 104.598846,105.454941 C104.571735,105.508813 104.546948,105.562169 104.518805,105.624804 C104.461227,105.743888 104.408297,105.870963 104.353817,105.995203 Z M104.528874,100.189708 C104.390739,99.8925122 104.196059,99.5687675 103.899907,99.214865 C103.528362,98.836991 102.854469,98.3348774 101.801543,98.230743 C101.149596,98.1647568 100.588276,98.2534257 100.139014,98.3882334 L98.5973213,105.848281 C99.1289483,105.748013 99.7031778,105.678676 100.32001,105.651869 C100.32001,105.651869 100.615645,106.04495 101.140043,106.724144 C101.54851,104.914937 102.205104,102.770128 103.234793,101.297038 C103.549018,100.84957 103.997247,100.487161 104.528874,100.189708 Z M88.9164937,89.6174841 C90.4091289,89.6878522 95.2962763,89.9417443 98.0556246,90.2005339 C101.861186,90.5559829 105.489108,90.8993172 105.724583,90.9222578 C105.760215,90.7905431 105.797137,90.6596018 105.836899,90.5348467 C106.321018,88.9467964 106.93785,87.7739951 107.373944,87.0641281 C107.382206,87.0334549 107.3946,87.0030394 107.402346,86.9759747 C107.176424,87.0641281 106.772862,87.111298 106.253887,87.1344962 C104.892415,87.1994514 102.74112,87.0641281 100.888817,86.8280213 C98.5322557,86.5318568 96.3009197,86.3400844 94.4617845,86.2163604 L94.472887,86.2393009 C89.8901535,85.8462191 89.1483543,88.2480131 88.9164937,89.6174841 Z M130.330214,110.600059 C130.197243,111.186718 130.061948,111.74992 129.939562,112.247909 C130.26773,113.377149 130.588411,115.484068 130.175038,117.513401 C129.140185,122.588408 125.645493,123.592378 123.210698,123.62202 C122.323276,123.630526 121.551526,123.510153 121.034874,123.398028 C118.327165,122.928134 114.599063,120.803173 111.071579,116.991697 C111.071579,116.991697 116.798124,120.467571 123.922804,120.15027 C124.812292,118.67718 125.349341,117.473448 125.945517,116.085934 C118.076198,116.725433 106.952825,110.566293 103.59885,108.240022 C103.486018,108.706823 103.413206,109.1579 103.35537,109.601245 C105.105686,111.850703 107.412415,114.782191 109.743157,117.635578 C114.493718,123.45989 122.132468,129.231361 127.969263,124.269509 C132.546316,120.374778 131.947042,114.653827 130.330214,110.600059 Z M131.168062,106.743218 C131.688845,107.858024 132.238546,109.24296 132.647013,110.816576 C134.554312,105.501338 132.904693,100.520927 131.683939,97.9392181 C130.73171,99.7223916 129.869333,101.181305 129.292521,102.138362 C130.894116,102.569334 131.881976,102.865757 131.881976,102.865757 C131.676193,104.143466 131.428066,105.462674 131.168062,106.743218 Z M112.547948,67.6848112 L112.536071,67.6938327 C106.837928,68.1126903 97.9730016,68.9836564 93.6221288,70.7371876 C89.3773748,72.4412292 86.0456044,74.5063905 85.0995716,76.749663 C85.7187274,77.7183195 86.282629,78.6426416 86.7928257,79.5125766 L87.6879937,81.0550036 L88.0011863,81.59475 L88.0011863,81.6872853 C89.5165428,83.0034003 91.6027723,83.4534467 94.8903911,83.8550345 C97.0460754,84.1138241 98.9861656,84.2638395 102.225243,84.5383524 C104.541526,84.7347644 106.469223,83.7619837 107.900407,82.6358367 C112.090165,78.9395794 114.90012,73.2472402 115.130948,67.5801612 L112.547948,67.6848112 Z M100.329563,50.3662736 C100.329563,53.3400337 100.329563,56.3132783 100.329563,59.2834298 L112.160137,57.9057105 C112.160137,55.3080201 112.160137,52.7116184 112.160137,50.1159901 C113.152645,50.0853168 114.142571,50.0515505 115.136112,50.0123712 C115.136112,41.595782 115.136112,33.1789351 115.136112,24.7680683 C110.335202,24.9533451 102.16276,25.1203726 97.3587517,25.1531079 C97.3587517,33.5691816 97.3587517,41.9808733 97.3587517,50.3938538 C98.3471287,50.3902452 99.3370549,50.3843167 100.329563,50.3662736 Z M79.0102603,50.1430547 C79.0102603,41.7272389 79.0102603,33.2941532 79.0102603,24.8788271 L74.6067153,24.8788271 C72.3431047,35.3688516 69.9989368,46.1972872 67.7327442,56.6635721 L67.7389409,56.6676963 C69.4665351,58.1235164 71.0944654,59.6156805 72.6162769,61.1372291 L74.8109489,63.4702015 L76.0430637,64.9195777 C76.0430637,60.9941731 76.0430637,53.5323216 76.0430637,50.0273212 C77.0319571,50.0701091 78.0247235,50.1090306 79.0102603,50.1430547 Z M179.822393,60.3830277 C172.514651,61.737291 165.18393,62.9062259 157.831262,63.8970496 C156.393107,62.8871517 154.958824,61.8610151 153.522217,60.8351361 L151.606914,59.5071642 L147.407603,63.4217429 C149.187869,71.9558699 146.069369,82.8951418 146.069369,82.8951418 C150.601754,93.4052456 147.811164,99.3610141 140.849923,115.052064 C133.882484,130.738475 128.896189,135.564488 128.896189,135.564488 C126.607792,136.366375 124.268788,136.987573 122.179976,137.446898 C122.122399,137.485047 122.059915,137.52371 122.002595,137.566498 C122.014989,137.767034 122.000013,137.971437 121.945017,138.180221 C121.653513,139.359724 120.385767,140.555466 118.617636,141.141609 C117.309612,141.581603 116.008559,141.589078 115.040837,141.24961 C113.310661,141.620267 111.671628,141.751208 110.49296,141.388799 C110.059964,141.252703 109.673186,141.072014 109.319456,140.860137 C107.288739,141.24961 105.689727,141.812554 104.38351,141.809461 C102.895006,141.805595 101.615641,141.141609 100.279731,140.548507 C99.2670836,141.381067 99.0163746,143.136144 98.8560344,143.853486 C99.186268,145.114699 99.4152885,146.171251 99.7401,147.915761 C100.562457,152.423957 100.728477,155.058507 100.728477,155.058507 C100.071883,155.390243 99.6306246,155.636917 99.0491656,155.879468 L99.0491656,163.065518 C99.0491656,163.065518 98.7979402,163.467364 98.1284361,164.192181 C97.8650754,165.503141 97.632182,166.391376 97.0285181,168.072735 C95.4217599,172.532216 91.5877969,177.203058 85.999129,178.842144 L85.294252,179.62109 L82.553752,180.203625 L79.7975021,179.259197 L79.2305021,178.371477 C73.0410105,175.678674 68.233904,170.741309 67.1406991,165.549537 C66.7735434,164.177231 66.6857565,162.822967 66.7273262,161.55428 C65.6640721,160.6596 65.0777074,160.057476 65.0777074,160.057476 L66.1357975,155.259301 L64.8809615,153.083046 C66.0015352,148.910451 66.9178754,145.886428 67.6088098,143.491078 L68.7978057,142.758013 C68.8068425,142.754404 68.8094245,142.745898 68.817945,142.745898 C68.9460106,141.921329 69.1925884,140.640526 69.521531,139.175169 L70.1321663,135.911689 C68.7216376,136.84529 67.5582032,137.670375 66.7735434,137.693573 C65.142773,137.739712 63.5597689,135.278891 62.6697648,133.612225 C58.8265067,136.069437 56.5313961,138.225587 56.4952486,138.25626 L54.8531175,139.722391 L54.4203798,139.33266 L53.6837446,138.634907 L53.2889618,138.25626 C53.2466175,138.218112 49.6336709,134.820339 43.838962,131.676458 C42.8224416,131.120215 41.7405973,130.572994 40.5923965,130.056446 C39.2523556,129.450198 37.8999212,128.91406 36.5712409,128.436434 C29.8565771,126.020721 23.8201703,125.158003 23.747049,125.150012 L23.255365,125.080418 L21.7540802,124.868025 L21.7540802,124.409214 L21.7540802,122.858797 L21.7540802,82.2118239 L21.7540802,81.5805733 L22.06624,81.0434045 L22.9663912,79.508968 C23.9290777,77.8763255 24.9694297,76.2292485 26.0530813,74.6125871 L26.1499051,74.4710776 C28.6007083,70.8459617 31.247741,67.4713871 34.0602778,64.3576641 C22.6991318,62.9046793 11.2497083,60.9882447 0,58.6601697 C0,52.8093089 0,46.9494266 0,41.0954727 C1.15180005,41.329002 2.30763314,41.5656243 3.45792532,41.792194 C6.31724738,28.7929161 9.18413461,15.7686871 12.059594,2.71009891 C12.205346,2.03347247 12.353112,1.36148826 12.5084173,0.677623965 C29.9991017,4.65073707 58.2122567,7.30492816 90.3339936,7.52554368 C91.5408051,7.53711704 92.7414198,7.54044213 93.9461657,7.54044213 C94.2035878,7.54044213 94.4566206,7.54456626 94.7122353,7.54456626 C94.9053665,7.54456626 95.0995304,7.54044213 95.2916288,7.54044213 C96.7798746,7.54044213 98.2596,7.53711704 99.7279647,7.52554368 C100.472346,7.51830067 101.210014,7.50520653 101.948973,7.49765421 C102.904559,7.48608085 103.862211,7.47912137 104.80721,7.46391362 C115.990743,7.2826836 126.620185,6.80451576 136.420042,6.08258568 C136.420042,6.77935853 136.420042,7.47912137 136.420042,8.17890999 C136.420042,13.2655941 136.420042,18.3563249 136.420042,23.4434472 C135.416689,23.5287137 134.419017,23.6101654 133.419021,23.6906376 C133.419021,24.2144029 133.419021,24.7347401 133.419021,25.2565207 C137.309788,24.9477002 141.192808,24.589854 145.068857,24.1821831 C146.290127,25.0670166 147.510623,25.9511283 148.736025,26.8295694 C148.736025,21.9600211 148.736025,17.0865807 148.736025,12.2190687 C150.752025,10.3098255 152.765185,8.37382699 154.783508,6.43440029 C155.625488,5.62838938 156.467726,4.83297235 157.31048,4.01951222 C166.032107,2.90029893 173.573258,1.55923803 179.603959,0.0383616858 C179.672123,0.0272860597 179.746741,0.015203732 179.815422,1.93622891e-14 C180.612217,0.514006586 181.404364,1.00606503 182.19961,1.51231824 C184.442823,2.94620572 186.686811,4.37808011 188.922794,5.77742536 C188.922794,20.8513501 188.922794,35.9212281 188.922794,50.9959777 C185.891565,54.1540351 182.861368,57.2829659 179.822393,60.3830277 Z" id="path56" fill="#713907"></path>
                    </g>
                </g>
            </g>
        </g>
    </g>
</svg>