<svg width="200" height="200" xmlns="http://www.w3.org/2000/svg"><g fill="none" fill-rule="evenodd"><path d="m172.382 56.687-49.95 106.129H77.575L27.622 56.687c-4.153-8.93-7.37-14.33-11.11-19.106H65.94c-3.947 5.4-4.05 12.98 1.454 24.61L100 131.56l32.607-69.367c5.504-11.632 5.4-19.213 1.454-24.611h49.43c-3.739 4.776-6.96 10.176-11.112 19.106h.002ZM119.11 30v1.558c11.734 6.541 12.254 15.264 6.542 27.414l-25.65 54.518-25.649-54.518c-5.711-12.15-5.194-20.873 6.542-27.414V30H0v1.558c7.996 5.4 12.253 10.384 19.936 26.687L72.69 170.397h54.622l52.753-112.152c7.684-16.303 11.941-21.288 19.936-26.687V30h-80.89Z" fill="#1A1919"/><path d="m172.38 56.687-49.95 106.129H77.575L27.622 56.687c-4.154-8.93-7.37-14.33-11.111-19.106h49.43c-3.947 5.4-4.051 12.98 1.453 24.61L100 131.56l32.607-69.368c5.504-11.63 5.4-19.212 1.454-24.61h49.43c-3.738 4.776-6.96 10.176-11.111 19.106" fill="#C5A96E"/></g></svg>