<svg width="200" height="200" xmlns="http://www.w3.org/2000/svg"><g fill="none"><path d="M99.742 3.61l-4.449 12.28L74.18 74.16l-61.194-.017L0 74.14l10.433 7.929 48.164 36.594-25.117 66.276-5.03 13.277 11.78-7.09 59.238-35.644 59.295 35.594 11.89 7.14-5.04-13.302-25.105-66.251 48.177-36.605 10.421-7.918-12.987.004-61.194.017-20.766-58.27-4.417-12.28zm-.008 13.643l21.881 61.397 64.504-.018-50.953 38.715 26.213 69.174-61.902-37.155-61.752 37.155 26.215-69.174-50.954-38.715 64.501.018 22.247-61.397z" fill="#E7D393"/><path d="M174.858 173.42a6.17 6.17 0 0 1 2.987.774c.949.52 1.7 1.26 2.247 2.23.541.966.819 1.978.819 3.033 0 1.05-.273 2.054-.807 3.007a5.705 5.705 0 0 1-2.234 2.23c-.954.53-1.962.803-3.012.803-1.054 0-2.054-.273-3.016-.803a5.705 5.705 0 0 1-2.234-2.23 6.076 6.076 0 0 1-.803-3.007c0-1.055.273-2.067.82-3.033a5.616 5.616 0 0 1 2.243-2.23 6.197 6.197 0 0 1 2.99-.773zm0 1.21c-.836 0-1.634.206-2.386.622-.764.408-1.356 1-1.797 1.777a4.802 4.802 0 0 0-.013 4.826 4.55 4.55 0 0 0 1.78 1.785 4.896 4.896 0 0 0 2.416.643 4.85 4.85 0 0 0 2.407-.643 4.627 4.627 0 0 0 1.79-1.785 4.841 4.841 0 0 0-.013-4.826 4.444 4.444 0 0 0-1.802-1.777 4.917 4.917 0 0 0-2.382-.621zm-2.718 8.006v-6.313h1.294c1.206 0 1.882.009 2.029.017.428.034.764.122 1 .252.239.13.432.336.592.605.155.273.24.575.24.907 0 .454-.148.84-.45 1.168-.294.323-.706.525-1.243.6.193.072.34.156.449.236.105.088.248.252.428.487.055.063.215.32.48.773l.717 1.268h-1.621l-.517-1.025c-.344-.693-.63-1.125-.869-1.302-.223-.18-.525-.273-.878-.273h-.336v2.6h-1.315zm1.315-3.612h.513c.735 0 1.192-.025 1.365-.084a.762.762 0 0 0 .415-.29.748.748 0 0 0 .16-.479.764.764 0 0 0-.147-.457.842.842 0 0 0-.433-.294c-.184-.06-.638-.084-1.36-.084h-.513v1.688z" fill="#E7D393"/><path fill="#231F20" d="M186.119 78.632l-64.504.018-21.881-61.397L77.487 78.65l-64.5-.018 50.953 38.715-26.215 69.174 61.752-37.155 61.902 37.155-26.213-69.174 50.953-38.715"/><path fill="#FFF" d="M125.215 92.047h-4.46l-15.533 53.362H92.56L78.061 92.047h-4.62V82.93H94.23v9.117h-5.097l10.512 41.593 11.394-41.593h-5.02V82.93h19.196v9.117"/></g></svg>