<svg width="200" height="200" xmlns="http://www.w3.org/2000/svg"><g fill="none"><path d="M178.397 87.627l-11.42 35.42c-1.587 4.342-4.414 8.187-8.378 10.704-3.803 2.415-8.094 3.01-12.518 3.027H133.37c-4.721-.061-9.645-.878-12.662-4.912-.18-.238-.34-.48-.493-.723l-1.801 5.635H92.058c-2.447 0-4.949.056-7.932-.791-3.925-1.118-7.118-4.014-8.138-8.027-.927-3.64.014-7.272 1.073-10.762l.587-1.84-11.35 21.42H36.972s.604-38.664.743-45.54c.095-4.639-.278-10.486-1.955-10.906-3.4-.852-7.58 4.624-9.122 6.71-5.814 7.803-9.579 19.108-5.189 20.212 5.44 1.367 10.64-12.365 10.657-14.826 2.819 4.142 2.425 16.118-7.362 23.764-3.442 2.686-8.435 4.323-11.74 2.503-10.679-5.883-9.99-23.276-2.276-36.577C18.67 68.42 32.462 61.907 43.176 62.663c6.732.477 9.782 2.378 12.503 4.643 6.745 5.617 7.36 14.032 7.307 22.178l3.007-5.685-1.03-12.41H190.59l-12.193 16.238zM35.71 119.983l-1.229.003.234-2.763h-.011l-1.715 2.763-.49-.003-.506-2.76h-.012l-.979 2.765-1.223-.002 1.813-4.796h1.21l.425 2.564 1.551-2.565 1.226.003-.294 4.79zm-7.11.005l-1.23-.003.787-3.74-1.017.002.222-1.055h3.264l-.222 1.057-1.018-.002-.786 3.741zm32.934-53.014C48.765 51.18 24.6 58.95 12.826 71.822 6.335 78.919 1.974 88.184.829 97.749c-1.111 9.296 1.238 19.925 10.023 24.8 4.307 2.352 9.065 1.511 13.252-.75h8.689l-.309 19.392h36.47l4.375-8.258c1.694 2.868 4.317 5.152 7.401 6.5 4.696 2.051 9.884 1.746 14.891 1.746h26.007l.756-2.366c3.278 1.673 7.128 2.309 10.928 2.366 4.255.014 8.512 0 12.77 0 5.614-.022 11.224-1.067 15.876-4.388 4.196-2.994 7.616-7.253 9.162-12.25l11.238-34.862 17.06-22.705H61.535z" fill="#F3A00F"/><path d="M126.133 94.483l5.613-17.593h-22.332c-2.232 0-4.39 0-6.716.534-7.71 1.941-9.73 8.053-10.954 11.87l-9.428 29.579c-1.162 3.66-3.09 9.928 3.381 11.84 1.982.565 4.096.565 6.372.565H114.4l6.4-20.038h-13.27l-2.693 8.704h-8.075l10.115-31.723h7.981l-1.981 6.262h13.255m35.119-17.593l-13.72 43.055h-7.632l13.736-43.055H135.22l.935 8.188-10.544 33.107c-1.532 4.772-2.43 8.077-.312 10.617 1.954 2.322 5.159 2.399 8.07 2.476h12.709c3.46 0 7.948-.077 11.926-4.084 3.034-3.012 4.319-7.249 5.393-10.646l10.033-31.47 6.16-8.188h-18.34m-90.31 0l.669 8.06-14.475 27.357c.101-6.716.324-21.234.387-24.03.066-10.891-2.448-19.264-16.8-20.77-4.014-.422-8.089.54-11.744 2.404 12.508-1.988 14.421 13.524 14.262 20.277-.138 5.89-.682 41.09-.682 41.09H62.99L91.804 76.89H70.941M14.44 83.981c-4.589 7.959-6.347 17.178-4.282 23.683 1.183 3.715 5.32 4.711 8.56 2.742a7.058 7.058 0 0 1-1.462-.983c-4.298-3.666-.222-15.714 6.114-24.228a40.73 40.73 0 0 1 1.932-2.4c-2.113-6.07-10.863 1.186-10.863 1.186m15.655 20.171c-4.94 6.133-9.748 9.512-14.012 10.67 2.618 1.513 10.484.787 14.012-10.67" fill="#FFF"/><path d="M173.43 85.078l-10.033 31.47c-1.074 3.397-2.359 7.634-5.393 10.646-3.978 4.007-8.467 4.084-11.926 4.084h-12.709c-2.911-.077-6.116-.154-8.07-2.476-2.117-2.54-1.22-5.845.312-10.617l10.544-33.107-.935-8.188h18.415L139.9 119.945h7.632l13.72-43.055h18.339l-6.16 8.188zm-66.552 3.143l-10.115 31.723h8.075l2.693-8.704h13.27l-6.4 20.038H92.07c-2.276 0-4.39 0-6.372-.566-6.472-1.911-4.543-8.178-3.381-11.84l9.428-29.579c1.224-3.816 3.244-9.928 10.954-11.87 2.326-.533 4.484-.533 6.716-.533h22.332l-5.613 17.593h-13.255l1.981-6.262h-7.98zm-43.89 43.057h-20.43s.543-35.2.681-41.09c.159-6.753-1.754-22.265-14.262-20.277 3.655-1.864 7.73-2.826 11.743-2.405 14.353 1.507 16.867 9.88 16.801 20.771-.063 2.796-.286 17.314-.387 24.03L71.609 84.95l-.668-8.06h20.863L62.99 131.278zM23.37 85.195c-6.336 8.514-10.412 20.562-6.114 24.228.468.405.955.729 1.463.983-3.241 1.97-7.378.973-8.56-2.742-2.066-6.505-.308-15.724 4.28-23.683 0 0 8.75-7.255 10.863-1.186a40.73 40.73 0 0 0-1.932 2.4zm6.724 18.957c-3.528 11.457-11.394 12.183-14.012 10.67 4.264-1.158 9.072-4.537 14.012-10.67zM64.963 71.39l1.03 12.41-3.008 5.684c.053-8.146-.562-16.561-7.307-22.178-2.72-2.265-5.77-4.166-12.503-4.643-10.714-.756-24.506 5.757-32.448 19.455-7.715 13.3-8.403 30.694 2.276 36.577 3.305 1.82 8.298.183 11.74-2.503 9.787-7.646 10.18-19.622 7.362-23.764-.018 2.461-5.217 16.193-10.657 14.826-4.39-1.104-.625-12.409 5.189-20.211 1.541-2.087 5.723-7.563 9.122-6.711 1.677.42 2.05 6.267 1.955 10.905-.139 6.877-.743 45.54-.743 45.54h29.328l11.35-21.42-.588 1.841c-1.059 3.49-2 7.122-1.073 10.762 1.02 4.013 4.213 6.91 8.138 8.027 2.983.847 5.485.79 7.932.79h26.355l1.801-5.634c.153.244.314.485.493.723 3.017 4.034 7.94 4.85 12.662 4.912h12.712c4.424-.017 8.715-.612 12.518-3.027 3.964-2.517 6.791-6.362 8.377-10.704l11.421-35.42L190.59 71.39H64.963z" fill="#231F20"/><path fill="#231F20" d="M30.626 115.192h-3.264l-.222 1.055 1.017-.001-.787 3.739 1.23.003.786-3.74 1.018.001.222-1.057m2.601 2.562l-.425-2.564h-1.21l-1.813 4.796 1.223.002.98-2.765h.01l.507 2.76.49.003 1.715-2.763h.01l-.233 2.763 1.229-.003.294-4.791-1.226-.003-1.551 2.565"/></g></svg>