<svg width="200" height="200" xmlns="http://www.w3.org/2000/svg"><g fill-rule="nonzero" fill="none"><path d="m178.428 86.759-11.421 35.42c-1.586 4.342-4.413 8.187-8.378 10.704-3.803 2.415-8.094 3.01-12.517 3.027H133.4c-4.722-.061-9.645-.878-12.662-4.912-.18-.238-.34-.48-.493-.723l-1.802 5.635H92.09c-2.448 0-4.95.056-7.932-.792-3.925-1.117-7.119-4.013-8.139-8.026-.927-3.64.015-7.272 1.074-10.762l.587-1.84-11.35 21.42H37.001s.605-38.664.744-45.54c.094-4.639-.278-10.486-1.956-10.906-3.399-.852-7.58 4.624-9.122 6.71-5.813 7.803-9.579 19.108-5.188 20.212 5.44 1.367 10.639-12.365 10.657-14.826 2.818 4.142 2.425 16.118-7.363 23.764-3.442 2.686-8.434 4.323-11.74 2.503-10.678-5.883-9.99-23.276-2.276-36.577C18.7 67.552 32.492 61.039 43.205 61.795c6.733.477 9.783 2.378 12.504 4.643 6.744 5.617 7.359 14.032 7.307 22.178l3.007-5.685-1.03-12.41h125.628L178.428 86.76ZM35.74 119.115l-1.228.003.233-2.763h-.01l-1.716 2.763-.49-.003-.506-2.76h-.011l-.98 2.765-1.223-.002 1.814-4.796h1.21l.424 2.564 1.552-2.566 1.225.004-.294 4.79Zm-7.11.005-1.23-.003.787-3.74-1.017.002.223-1.055h3.264l-.223 1.057-1.018-.002-.786 3.741Zm32.935-53.014c-12.769-15.793-36.936-8.023-48.709 4.848C6.366 78.05 2.004 87.316.86 96.88c-1.11 9.296 1.239 19.925 10.023 24.8 4.308 2.352 9.065 1.511 13.253-.75h8.688l-.308 19.392h36.47l4.375-8.258c1.694 2.868 4.316 5.152 7.4 6.5 4.696 2.051 9.884 1.746 14.892 1.746h26.006l.756-2.366c3.278 1.673 7.128 2.309 10.928 2.366 4.255.014 8.513 0 12.77 0 5.615-.022 11.225-1.067 15.876-4.388 4.196-2.994 7.616-7.253 9.162-12.25l11.238-34.862 17.061-22.705H61.565Z" fill="#F3A00F"/><path d="m126.163 93.615 5.613-17.593h-22.332c-2.232 0-4.39 0-6.716.534-7.71 1.941-9.73 8.053-10.954 11.87l-9.428 29.579c-1.162 3.66-3.09 9.928 3.382 11.84 1.982.565 4.095.565 6.371.565h22.333l6.4-20.038h-13.27l-2.694 8.704h-8.074l10.115-31.723h7.98l-1.98 6.262h13.254M161.282 76.022l-13.72 43.055h-7.633l13.737-43.055H135.25l.936 8.188-10.545 33.107c-1.532 4.772-2.429 8.077-.312 10.617 1.954 2.322 5.16 2.398 8.07 2.476h12.71c3.459 0 7.948-.078 11.926-4.084 3.033-3.012 4.318-7.249 5.392-10.646l10.033-31.47 6.16-8.188h-18.338M70.971 76.022l.668 8.06-14.475 27.357c.102-6.716.325-21.234.388-24.03.066-10.891-2.449-19.264-16.801-20.77-4.014-.422-8.088.54-11.744 2.404C41.515 67.055 43.428 82.567 43.27 89.32c-.138 5.89-.682 41.09-.682 41.09h20.431l28.816-54.388H70.97M14.47 83.113c-4.588 7.959-6.347 17.178-4.281 23.683 1.182 3.715 5.32 4.711 8.56 2.742a7.058 7.058 0 0 1-1.463-.983c-4.298-3.666-.221-15.714 6.114-24.228a40.73 40.73 0 0 1 1.932-2.4c-2.113-6.07-10.862 1.186-10.862 1.186M30.124 103.284c-4.94 6.133-9.748 9.512-14.012 10.67 2.618 1.513 10.485.787 14.012-10.67" fill="#FFF"/><path d="m173.46 84.21-10.033 31.47c-1.074 3.397-2.359 7.634-5.392 10.646-3.978 4.006-8.467 4.084-11.927 4.084H133.4c-2.912-.078-6.117-.154-8.07-2.476-2.118-2.54-1.22-5.845.311-10.617l10.545-33.107-.936-8.188h18.416l-13.737 43.055h7.632l13.72-43.055h18.339l-6.16 8.188Zm-66.551 3.143-10.115 31.723h8.074l2.693-8.704h13.27l-6.4 20.038H92.1c-2.276 0-4.39 0-6.371-.566-6.472-1.911-4.544-8.178-3.382-11.84l9.428-29.579c1.225-3.816 3.244-9.928 10.954-11.87 2.327-.533 4.484-.533 6.716-.533h22.332l-5.613 17.593h-13.255l1.982-6.262h-7.981Zm-43.89 43.057H42.588s.544-35.2.682-41.09c.158-6.753-1.755-22.265-14.263-20.277 3.656-1.864 7.73-2.826 11.744-2.405 14.352 1.507 16.867 9.88 16.8 20.771-.062 2.796-.285 17.314-.387 24.03l14.475-27.357-.668-8.06h20.864L63.019 130.41ZM23.4 84.327c-6.335 8.514-10.412 20.562-6.114 24.228.468.405.956.729 1.463.983-3.24 1.97-7.378.973-8.56-2.742-2.066-6.505-.307-15.724 4.28-23.683 0 0 8.75-7.255 10.863-1.186a40.73 40.73 0 0 0-1.932 2.4Zm6.724 18.957c-3.527 11.457-11.394 12.183-14.012 10.67 4.264-1.158 9.072-4.537 14.012-10.67Zm34.87-32.762 1.029 12.41-3.007 5.684c.052-8.146-.563-16.561-7.307-22.178-2.721-2.265-5.771-4.166-12.504-4.643-10.713-.756-24.506 5.757-32.448 19.455-7.714 13.3-8.402 30.694 2.277 36.577 3.305 1.82 8.297.183 11.739-2.503 9.788-7.646 10.181-19.622 7.363-23.764-.018 2.461-5.217 16.193-10.657 14.826-4.39-1.104-.625-12.409 5.188-20.211 1.542-2.087 5.723-7.563 9.122-6.711 1.678.42 2.05 6.267 1.956 10.905-.14 6.877-.744 45.54-.744 45.54H66.33l11.35-21.42-.587 1.841c-1.06 3.49-2 7.122-1.074 10.762 1.02 4.013 4.214 6.91 8.139 8.026 2.983.848 5.484.792 7.932.792h26.354l1.802-5.635c.152.244.313.485.493.723 3.017 4.034 7.94 4.85 12.662 4.912h12.712c4.423-.017 8.714-.612 12.517-3.027 3.965-2.517 6.792-6.362 8.378-10.704l11.42-35.42 12.194-16.237H64.993Z" fill="#231F20"/><path fill="#231F20" d="M30.657 114.324h-3.264l-.223 1.055 1.017-.001-.786 3.739 1.23.003.785-3.74 1.018.001.223-1.057M33.257 116.886l-.425-2.564h-1.21l-1.813 4.796 1.224.002.979-2.765h.011l.506 2.76.49.003 1.715-2.763h.011l-.233 2.763 1.228-.003.294-4.791-1.225-.004-1.552 2.566"/></g></svg>