<svg width="200" height="200" xmlns="http://www.w3.org/2000/svg"><g fill="none"><path d="M158.891 190.53h-.956l-.266 1.71h-.074l-.286-1.71h-.956v3.533h.744v-2.242h.035l.34 2.242h.3l.34-2.242h.035v2.242h.744v-3.533zm-2.775 0h-1.73v.665h.459v2.868h.813v-2.868h.458v-.665zm38.705-165.455v31.58h-15.808L141.57 166.186h10.866v31.18h-76.35v-31.18h10.588C81.739 152.022 51.104 64.072 48.52 56.655H32.917v-31.58H90.88v31.58H79.502l34.506 98.79 33.885-98.79h-11.035v-31.58h57.963z" fill="#004E32"/><path fill="#004E32" d="M146.04 190.97H82.483v-18.388h13.191L53.065 50.26H39.313V31.47h45.172v18.788H70.494l43.57 124.74 42.784-124.74h-13.594V31.47h45.172v18.788H174.44l-41.815 122.323h13.415v18.388"/><path d="M188.426 28.073h-48.57v25.584h12.235L114.034 164.61 75.279 53.657h12.604V28.073H35.915v25.584H50.65l40.243 115.527H79.085v25.184h70.353v-25.184h-12.061L176.87 53.657h14.954V28.073h-3.398" fill="#FAB217"/><path fill="#004E32" d="M146.04 190.97H82.483v-18.388h13.192L53.065 50.26H39.313V31.47h45.172v18.788H70.494l43.57 124.74 42.784-124.74h-13.594V31.47h45.172v18.788H174.44l-41.815 122.323h13.415v18.388"/><path d="M96.403 143.604c.185 1.304.568 3.054 1.037 4.284.72 1.89 3.504.822 5.21.904 1.617.076 2.836 1.082 4.425 1.315 2.771.406 6.978.532 9.537-.724 1.048-.513 3.922-2.665 3.666-4.026-.087-.463-1.18-1.588-1.482-1.941-.72-.84-1.47-1.505-2.055-2.45-1.435-2.325-2.308-4.979-1.3-7.609 1.368-3.57 4.578-5.67 7.682-7.626 4.684-2.954 9.453-6.383 13.316-10.37 1.57-1.62 2.384-3.226 2.475-5.488.064-1.578-.32-3.897-1.02-5.32-.43-.868-1.196-1.698-1.944-2.314-1.067-.879-1.466-1.072-2.33.067-2.38 3.143-4.196 6.612-6.936 9.458-2.753 2.86-5.913 5.262-8.746 8.072-5.198 5.151-11.059 9.55-16.035 14.932-2.177 2.354-4.512 5.534-5.706 8.517-.208.52-.388.812-.295 1.416a1.426 1.426 0 0 0-.11-.282" fill="#F0DDC0"/><path d="M135.767 117.214c4.89 5.01 8.756 10.1 14.488 14.318 3.606 2.654 4.716 3.578 8.883 5.328 5.033 2.114 8.758 1.032 13.49 1.737 1.688 5.808 6.08 9.93 8.51 15.293 2.134 4.719 4.363 9.965 10.102 9.991 5.078.024 8.542-2.453 7.18-7.704-1.102-4.245-5.66-6.671-6.585-11.368-6.97-3.327-6.755-12.398-13.984-16.162-3.72-1.938-7.333-2.485-10.966-4.708-4.75-2.907-9.532-5.772-14.605-8.07-5.33-2.415-8.723-5.64-13.135-9.025-2.648 2.207-4.904 7.324-2.7 10.37" fill="#F0DDC0"/><path d="M173.697 132.795c1.202-.94 2.791-.397 4.184.677 1.03.796 2.065.737 2.709 1.808 1.975 3.282 3.03 9.289 5.45 12.222 1.982 2.4 3.272 4.355 4.91 7.02 1.39 2.26 4.482 3.215 5.06 5.882.626.33 1.258 1.93.775 1.885.27 1.613-3.55 2.22-6.356 1.022l-.129.597c-4.107-2.706-8.109-6.858-10.28-11.818-2.414-5.514-4.624-13.876-5.988-19.295" fill="#91622B"/><path d="M103.353 86.205c-7.82-8.496-22.353 16.783-27.565 6.96-.817-1.54-.11-1.707-1.383-3.023-1.966-2.032-5.546-2.117-7.483-4.412-2.136-2.533-2.987-6.27-1.854-9.068 2.756-6.802 14.687-12.294 20.823-7.123 2.252 1.897 2.714 4.849 4.76 6.715 2.844 2.595 6.518.151 9.627-1.381 3.774-1.86 6.865-3.772 11-4.063 4.774-.336 8.633 1.38 13.024 2.437 8.044 1.935 15.342 5.455 21.624 10.848 4.713 4.044 9.467 10.076 11.949 15.835 2.27 5.264.06 5.655-5.437 6.81-8.499 1.788-10.697-17.938-10.697-17.938s-9.946-12.313-23.146-10.162" fill="#F0DDC0"/><path d="M78.862 95.198c.23-.288.47-.565.715-.836a10.54 10.54 0 0 1-.377-.858l-.338 1.694m94.036 31.284l-.1.261c.03-.112.066-.196.1-.26zm-1.307-3.426c-2.358-5.119-4.869-10.935-8.5-15.25-7.173-8.529-11.609-18.923-20.889-26.165-2.635-2.057-5.959-4.446-9.143-5.505-3.601-1.197-7.748.355-11.197-1.178-2.624-1.166-4.508-4-7.427-4.495-2.651-.45-6.724.587-9.153 1.608-5.918 2.487-9.58 7.83-13.964 12.45-3.565 3.758-8.357 6.1-11.74 9.84.925 1.891 2.424 3.698 3.587 5.544 2.743 4.357 3.01 8.26 4.23 13.073.81 3.188 2.54 6.208 5.786 7.539 3.09 1.266 3.441.064 5.96-1.938.69 5.606 1.381 7.88-3.396 11.62-3.474 2.722-4.96 7.604-7.397 11.74-4.15 7.05 5.507 4.76 11.104-2.052-.352 1.012-.727 2.025-1.189 3.02-2.092 4.5-.203 5.864 2.981 4.39 2.649-1.223 2.772-5.81 5.44-6.65-.163 2.224-.981 7.58-3.8 7.281.143 1.468 1.516.167 2.498-.197 1.048 4.33 1.02 1.427 2.845-.67 1.111-1.276 1.254-.742 1.73-2.38.348-1.194-.272-2.312.183-3.461 1.167-2.94 3.03-2.164 2.596.648-.436 2.839.157 4.929 1.812 7.555 1.59-1.965 3.721-3.338 1.035-5.618-1.821-1.546-.681-4.372-1.515-6.697-1.102-3.075-2.787-6.293.723-10.288.075-.07.155-.134.228-.204.355-.346.689-.691 1.01-1.04.137-.122.274-.244.42-.367v-.093c2.403-2.695 4.132-5.44 7.454-7.646 2.292-1.524 4.842-2.765 6.775-4.728 2.814-2.855 2.393-6.954 4.335-10.335 2.225 7.628 7.306 17.437 13.963 22.485 4.255 3.225 11.73 10.175 17.163 10.388 2.787.108 5.419-4.066 6.361-7.176.275-.907.454-1.537.5-1.761.349-.313.55.963-1.41-3.287z" fill="#91622B"/><path d="M39.34 133.795s1.548.38 4.052.813a169.631 169.631 0 0 1-4.052-.813m38.833-65.327a133.832 133.832 0 0 1 4.534-1.937s-2.002.793-4.54 1.934l.006.003" fill="#231F20"/><path d="M123.732 75.245c.264.397.554.74.87 1.051-4.472-2-8.615-6.047-13.562-5.825-5.559.25-11.102 3.126-14.565 7.452l.339-.678c-1.188 1.327-1.804 3.06-2.339 4.673 6.403-6.027 11.76-6.359 16.565-8.06 5.435-1.924 8.858 1.996 14.107 2.916.516.4 1.1.734 1.772 1.034l.393.285c8.255-.722 20.538 10.921 25.75 17.287-1.617-9.324-21.09-22.627-29.33-20.135" fill="#F0DDC0"/><path d="M37.908 15.195c-4.733-4.83 2.01-5.992 5.59-7.445 4.579-1.86 10.123-2.557 14.884-3.026 11.413-1.129 21.98.932 32.642 3.961 2.27.646 3.63 1.511 5.533 2.73 2.828 1.808 5.986 3.49 8.836 5.177 1.785 1.055 2.328 2.792 3.548 3.44 2.168 1.148 2.304 3.584 3.945 5.442 3.18 3.603 5.628 8.713 7.879 12.94 2.281 4.286 2.926 9.235 4.24 13.794 1.395 4.842 3.088 10.01 4.992 14.643 1.276 3.099 4.609 8.856-.401 9.081-2.407.109-5.003-.848-7.162-1.81-2.072-.924-4.65-1.455-6.637-2.675-4.05-2.486-1.44-10.048-1.793-14.183-.373-4.35-2.3-8.976-3.49-13.213-.995-3.537-1.867-7.529-3.31-10.886-1.278-2.973-3.583-5.893-5.528-8.527-2.677-3.624-4.7-4.782-8.475-7.088-.025-.06.232.31.254.352-4.425-1.673-8.826-4.009-13.426-4.981-4.754-1.005-9.954-1.166-14.718-1.863-4.819-.706-10.267-.05-15.006.925-4.666.96-8.73 3.931-13.56 2.98" fill="#91622B"/><path d="M40.57 15.054c.307-3.988 8.17-6.084 11.3-6.84 5.127-1.239 11.097-1.444 16.312-1.137 5.789.34 9.06.486 14.639 2.068 2.748.78 6.881 1.721 9.6 2.534 1.328.397 10.37 4.9 11.577 4.68-.146.026-6.7-3.738-6.784-3.759-1.41-3.65-9.617-5.03-12.967-5.77-4.87-1.078-9.394-2.293-14.458-2.572-8.259-.456-16.332 1.176-23.97 3.077-2.92.727-8.55 2.478-8.098 6.44.46-.3.5 1.218.824.79" fill="#E0BD88"/><path d="M197.949 159.763c-.883-.515-1.84-.11-2.721-.626-.405.185 0 .48.074.699.706.658 1.654 1.509.881 2.574-1.543.883-3.493.28-4.78-.75-.258-.11-.662-.573-.662-.573.257.698.699 1.47.516 2.278-2.28-.146-3.715-2.242-4.928-3.97-.11.331-.478.515-.735.184-.81-1.103-.698-2.757-2.206-3.456-1.471-2.242-2.243-4.78-3.237-7.244l-2.647-4.743c-1.177-3.015-1.433-6.397-2.132-9.634-.295-1.067-1.067-1.912-1.839-2.648.037-.035.111-.073.073-.184-.734-.515.075.479-.44.626.036 1.36.478 3.125-1.067 3.897-6.251 3.972-13.274.074-18.788-3.014-6.215-3.935-11.62-9.892-16.142-15.702 1.102-1.507 2.426-3.162 2.389-5.111.257-4.007-.735-7.941-3.272-11.031-1.213-1.654-2.4-3.246-3.576-4.855l-1.576-.306c2.341 5.216 7.247 9.546 5.85 16.082-.845 1.95-2.279 3.567-4.044 4.964-4.339 3.64-9.082 6.472-12.906 10.48-.295-.11-.589.22-.626.367-2.463 1.912-4.19 4.56-4.927 7.428 1.399 2.537-.11 6.104 3.09 7.758.698.11.955.847 1.139 1.397-.531.247-2.415 1.254-3.97 4.155-.406-.294-.662-.956-.772-1.507-.773-2.61-.332-5.699-1.068-8.272-.734 2.022-3.088 4.668-.808 6.618l.11 1.912c-.405-.882-.846-2.06-1.95-2.353-.845.146-1.69.256-2.316 1.029-.661.991-1.102 2.095-1.47 3.2h-.185c-.33-2.758.56-6.842.957-8.128.244-.978-.706-.548-.706-.548-.883.992-.507 2.718-1.316 3.82-.735 1.215-1.581 2.464-2.72 3.42-.222-.883-.185-2.169-1.252-2.72-1.286-.588-2.463.183-3.346 1.066l-.367.332c.441-3.015 3.123-7.75 3.272-8.274.15-.527-.183-.184-.183-.184l-3.42 3.602c-1.508.664-2.574 2.539-4.082 3.016 0-1.69 1.95-4.338-.514-5.295-1.36-.11-2.353.735-3.346 1.509.956-2.133 2.794-5.111 2.794-5.111.515-.625 2.14-2.686 3.64-3.972 2.243-3.677 5.92-5.994 9.78-7.06.111-.147.258-.22.258-.367-.478-.442-1.396-.257-2.022-.184.111-.626.847-.553 1.067-1.067 3.677-4.522 3.272-10.921 7.5-15.332 2.575-3.788 7.46-6.307 7.311-11.271-.083-1.312-.213-2.205-.766-3.033l-.042.125c-.398 1.037-.045 2.637-.4 3.662-3.197 5.037-8.457 7.942-10.956 13.347-1.692 2.87-2.206 6.362-3.603 9.267-.184.33-.551.588-.81.882-2.463-2.427-4.154-5.515-4.411-9.009-.81 1.14-.7 2.72-.442 4.156-.035.76.12 1.536.293 2.312.015-.017.033-.031.047-.048.028.412.145 1.029.152 1.408.012.566.084.776.115 1.19.113 1.524-.696 2.407-1.882 2.918-1.695.732-3.955 1.098-7.258 2.113-1.26.386-2.227.576-3.187 1.229.263-.966-.001-1.708.258-2.693.155-.59.384-1.237.585-1.798-.466.377-.779.92-1.122 1.404-.522.734-1.098 1.515-1.54 2.299-.655 1.163-1.148 2.458-1.677 3.685-.544 1.409-1.097 2.807-1.835 4.104-.853 1.5-1.954 2.86-3.576 3.939-7.061 1.948-15.407 1.25-22.872.513-5.33-1.139-10.993-3.602-16.693-1.765-4.081 1.877-8.714 2.428-12.244 5.663-1.287 1.214-2.61 2.28-4.412 2.207.037-.332.256-.625.183-.993-.919-1.286-1.801.661-2.83.626-.258.182-.552 0-.626-.258.294-1.986 2.905-.956 4.339-1.508 5.11-2.317 9.707-6.324 15.149-8.126.58-.297 1.194-.515 1.817-.707a18.003 18.003 0 0 0 3.33-1.389c-2.083.164-3.1.954-14.67 1.84l-.184-.259c2.17-.808 4.633-1.213 6.728-2.39-.33-.661-1.544-.22-2.132-.368-3.236-.11-7.428 0-9.266-3.162l-1.949-1.14c.993-.883 1.912-1.69 2.648-2.758-.037-.146-.22-.294-.331-.441-1.361 1.03-3.126 1.25-4.854.993-1.14-.625-1.861-1.061-3.186-.953 1.089-1.359-.712-2.54-1.043-3.642 1.324-.736 2.685-.81 4.303-.626 3.346 2.463 6.949 4.56 11.03 4.854 6.288-.92 13.09-1.398 19.856-1.95 5.847-.257 11.804-3.383 17.649-1.213.589-.515-.294-.808-.257-1.434l-.257-.073c-1.067-1.912-2.17-3.824-2.832-5.92.993.846 1.84 2.023 3.163 2.317 1.029.588 2.169 1.69 3.272 1.213-1.875-.956-3.714-3.053-4.596-5.038.294-1.176.441-2.427 1.25-3.42a9.195 9.195 0 0 0 2.567-.761c.1-.153.205-.258.308-.3.75-.31 1.378-.67 1.966-1.157.76-.671 1.403-1.467 1.851-2.377a.673.673 0 0 1 .23-.167c.127-.151.253-.133.622.114.871.582 1.221.99 1.653 1.905.15.318.33.686.534 1.043.162.257.333.512.508.763.114.145.233.278.357.39.07-.518-.249-1.162-.328-1.688a29.63 29.63 0 0 0-.253-1.488 15.95 15.95 0 0 0-.485-1.53c-.221-.499-.468-.979-.693-1.468-.066-.113-.125-.228-.197-.338.003-.03.011-.056.014-.086-.023-.056-.051-.111-.073-.17-.006-.678.74-1.965 1.335-2.78.602-.824 1.368-2.395 2.328-2.796.04-.016.078-.027.118-.042 1.478-1.743 3.19-3.576 4.571-5.375 0 0-2.034 1.31-2.381 1.584-2.048 1.619-4.678 3.86-6.316 5.904-1.857 2.316-3.629 4.322-5.491 6.458-1.77 2.031-6.208 2.323-7.96.177-.814-.996-1.015-1.508-.705-1.803v-.004a.04.04 0 0 1 .011-.004c.31-.282 1.099-.363 2.283-.484 1.48-.152 3.413.102 4.816-.437 2.259-.87 3.097-5.428 3.589-7.431.352-1.436.825-2.91 1.426-4.37a17.5 17.5 0 0 1 1.466-2.851c.509-.796 1.117-1.398 1.612-2.121.233-.34.503-.627.313-1.01-.667-.1-1.308.38-2.17.343-.844-.036-1.63.081-2.46 0-.74-.072-2.79.02-3.121-.35l-.007-.002v-.008a.16.16 0 0 1-.03-.164l.048-.174c.027-.054.054-.094.08-.145.066-.16.16-.315.274-.463.486-.733.919-.974 1.097-1.036l.04-.032.042.01h.007c1.134.211 3.275.888 4.424.805-1.098-.777-2.512-1.128-3.591-1.807.988-.074 2-.034 3.002.094 2.173.059 6.632.53 6.632.53-.968-.457-2.501-.808-3.641-1.14l-5.368-1.249c3.786-.993 11.288-2.648 11.288-2.648-3.972.11-7.648.846-11.546 1.067 3.567-1.398 10.92-3.788 10.92-3.788-4.265.074-8.309 1.765-12.501 2.574v-.184c3.162-2.39 6.014-3.572 9.433-5.373 0 0-1.279.348-2.051.605-3.162.956-5.58 2.378-8.705 3.445a7.851 7.851 0 0 0-.717-.801c-1.89-1.846-4.432-2.632-6.086-4.935-2.206-.258-4.56.624-6.618 1.507l-.81.588c.92-3.493 3.788-6.803 7.244-8.2-1.213 1.177-2.39 2.317-2.831 3.899l.184.183c4.045-4.45 8.971-8.2 15.37-7.354 3.089.772 6.25 1.544 8.898 3.456 1.213.773 2.353 2.023 3.272 3.163-1.875-.441-1.807-.646-3.903-.021 4.081 2.353 7.69 3.624 8.757 8.956.956 3.309.514 7.317-.625 10.405.183.81-.699 1.619-.368 2.39 3.235-3.088 5.442-6.912 8.053-10.405 3.824-2.317 7.648-4.633 11.986-5.663 1.085-.179 2.045-.63 3.53-.515 5.149.772 8.697 5.181 13.55 6.652.266.048.644.04.827-.143-.589-.625-1.506-1.214-2.28-1.839 8.312 1.324 15.959 4.927 21.878 11.472 3.935 4.339 7.98 9.082 9.78 14.634-.919-.587-1.874-1.286-2.904-1.69l-.183.183c2.352 2.427 4.89 4.67 6.986 7.244 4.228 5.81 8.162 12.06 11.104 18.531.552.92 1.434 1.508 2.316 2.207 2.906-.147 5.479 1.25 7.06 3.787 1.802 2.868 2.427 6.435 4.229 9.081.699 1.84 2.206 3.421 3.97 4.597.295-.698-.477-1.397-.698-2.094 2.354 2.353 3.824 5.625 5.295 8.64.773 1.139 2.537 1.471 2.83 2.904.038 1.288.627 2.685.149 3.898zm-61.847-37.358c-1.838.11-3.64.589-5.552.294 1.545-1.287 3.346-2.538 4.927-3.714.809 1.103 1.582 1.986 2.465 3.09-.443.55-1.178.072-1.84.33zm-16.583 24.635c.809 3.274-1.21 6.032-3.562 8.35 1.69-2.17-.519-3.937.29-6.069.478-1.178.735-2.5 2.022-3.236.662-.148 1.03.477 1.25.955zm-11.14 8.311l-1.913 1.58c1.581-2.17 1.36-5.184 1.213-7.942.625-.956.625-2.611 2.133-2.757.883.074 1.176.881 1.398 1.617.587 3.016-1.104 5.296-2.832 7.502zm-8.384-3.824c-.81 1.58-2.317 2.5-3.788 3.272 1.214-2.832.515-6.802 3.897-8.64.7.035.883.625 1.14 1.139 0 1.472-.147 3.125-1.25 4.229zm-9.414-5.552c-1.213.587-2.573 1.544-3.199 2.83l-.074.369c-.182-3.42 1.545-6.913 4.597-8.494h.699c.147 2.021-1.03 3.75-2.023 5.295zm-75.635 3.346c-.698.072-.515-.7-.625-1.14-.11-1.14 1.14-1.839 1.949-2.28l.442-.11c-.074.624-.369 1.654-1.251 1.947 0 .184.037.333.184.442l4.596-3.53c-.735 2.134-2.832 4.339-5.295 4.671zm-3.162-.442l-1.949-2.353c1.25-.404 1.986-1.508 2.28-2.758.625-.037.993-1.544 1.691-.625.515.957 1.545 1.323 2.39 1.618-1.25.478-2.022 1.581-2.941 2.648-.184.993-.147 1.875.809 2.463l.184.185c-1.03.183-1.581-.736-2.464-1.178zm-5.479-4.485c-.808-.112-1.838-.368-2.022-1.141.515-1.103 1.875-1.324 2.978-1.58.258-.074.442.073.625.145.074.552-1.323.406-.514.883l4.743-.073c-1.14.882-2.648 1.545-4.155 1.508-.515.552-1.14-.073-1.655.258zm-3.198-.81c-1.25-1.729-.258-4.082.184-5.883.588 1.801 2.72 1.875 3.53 3.235-1.324.59-3.2.442-3.788 2.207.037.147.258.405.074.441zm3.971-8.199c.772.882 1.323 1.875 2.39 2.39-1.545.55-3.126-.368-4.413-1.25-1.066-1.03-1.728-2.501-1.507-3.862.404-.44.294-1.14.809-1.434 1.36.663 3.309 1.324 3.603 3.017-.11.182-.331.072-.515.072-.11-.184-.073-.44-.367-.587-.773.293 0 1.102 0 1.654zm-4.67-3.346c-.184-.736-.11-1.434.368-2.133 1.948-1.324 4.265-1.801 6.434-2.537.625.11 1.25.367 1.691.956.478 1.25 1.178 2.684.515 4.081-.735.405-1.507.736-2.28.956-1.617-1.25-2.904-3.493-5.037-3.162-.808.183-1.507 1.066-1.691 1.839zm14.12 7.428c-.074.992-.883 1.36-1.582 1.91-.625.075-1.287.737-1.838.11-1.14.149-2.427.149-3.383-.44.147-.22.22-.442.441-.625 1.324.148 2.905 1.177 3.824-.514.662-.846 1.618-.516 2.537-.441zm-5.92-3.089l-.148-.883c2.317.073 4.45.772 6.619 1.323-1.58.663-4.89 1.104-6.472-.44zm.44-15.812c1.067-1.103 2.207-.33 2.648.882.148.663.184 1.619-.33 1.949-.626.994-.331 2.171-.258 3.346l.257.7c-1.36-.847-2.353-2.06-3.015-3.53.037-1.03-.037-2.428.699-3.347zm50.044-35.813c-.257.404-.515 1.176-.883 1.213l-.882-1.397 1.765.184zm1.25.073l2.905.258c-.037 1.765-1.287 3.383-2.206 4.964-.221-1.84-.221-3.494-.699-5.222zm.257 8.2c1.067-.846 1.692-2.17 2.832-2.905-.626 1.397-1.103 2.978-1.14 4.486-.956.368-1.802 1.103-2.5 1.875 0-1.25.294-2.427.808-3.456zm-5.92-10.774c-.403-2.39 1.84-3.64 3.458-4.817.367-.735-.7-1.213-1.141-1.507l-1.066-.368a13.181 13.181 0 0 1 5.993-.183c.589.33.957.808 1.25 1.433.111 1.581-3.125 2.39-1.507 4.229.625.956 1.398 1.801 2.096 2.721-2.942-.147-6.178-.699-9.082-1.508zm1.14 3.972c-.33-.552-1.065-.773-1.14-1.398.516-.367 1.251-.44 1.876-.257-.037.625-.515 1.103-.735 1.655zm-3.86.55l2.022-1.433c.626.368-.073 1.067.258 1.618.22 1.066-.038 2.17.55 2.978l.332 1.508c-1.177-1.434-2.5-2.978-3.162-4.67zm-.368-1.249c-.294-.368-.368.33-.699.11-1.14-2.426-2.28-5.662-1.066-8.2h.183c-.036.736-.514 1.434.442 1.913 1.324.698 2.464 2.022 2.905 3.456-.184 1.066-.919 1.986-1.765 2.721zm2.757-8.383c-.514.257-1.065.44-1.322.992l-.111 1.14c-.515-.552-1.765-.588-1.655-1.397.993-.258 1.986-.625 3.088-.735zm-6.47-6.068c.955-.478 2.353-1.764 3.824-1.14-.405.625-.295 1.508-.81 2.023-.992-.331-1.91-.846-3.015-.883zm37.248-7.06c5.147-.367 10.405-.257 15.185 1.067-3.383.404-6.471 1.507-9.634 2.464l-2.206 1.14-3.345-4.34v-.33zm16.693 3.972v.515c-3.605 2.684-7.208 5.515-10.443 8.934-.147-1.47-.846-3.125-.074-4.522 1.802-3.052 5.258-3.126 7.76-5.185.918.073 1.984-.22 2.757.258zM93.302 16.25c-9.413-4.486-20.444-5.038-31.327-5.993-7.133-.332-13.789 1.58-19.93 4.154-1.176.258-2.426-.073-3.199-.882-.44-2.06 1.839-2.61 2.942-3.714 6.067-3.861 13.825-3.787 21.253-4.485 21.51.183 44.6 7.133 53.647 28.422 4.229 8.347 7.133 17.246 8.75 26.732 1.95 4.67 5.047 13.138 5 14.376-2.98.505-10.94-3.22-12.685-4.154-1.102-.404-2.095-1.03-3.272-1.14.033-5.358.652-10.493.2-15.891l-.015-.067.01.01a38.863 38.863 0 0 0-.267-2.327c-2.648-13.494-7.502-28.091-21.107-35.041zm105.455 137.592l-2.464-1.876c-1.91-4.67-5.036-9.339-9.523-12.244-2.242-4.78-3.713-12.501-10.59-12.723-1.36-.845-1.653-2.462-2.5-3.713-3.31-5.957-7.427-11.62-11.986-17.098-3.271-11.545-12.355-23.201-23.57-28.496-1.912-1.728-3.05-3.714-4.67-5.662a75.856 75.856 0 0 1-5.809-12.686c-2.536-10.848-4.633-21.804-11.141-30.997-5.589-9.67-15.811-17.281-25.85-20.738-16.178-5.479-37.65-6.435-52.837 1.875-2.647 1.582-4.45 4.302-3.898 7.318.505.811.956.98 1.95 1.14 5.515-.516 10.11-3.788 15.626-4.67 12.244-2.611 25.629-.074 37.027 3.272 3.677 1.47 7.244 3.493 10.333 6.177 4.117 4.413 6.875 9.597 9.266 14.819 1.216 2.767 3.787 10.552 4.081 16.51.41 3.871-.11 10.551-1.323 15.332-2.17-.147-4.12.883-6.104 1.14 1.25-1.03 2.72-2.17 2.904-3.861-.022-.823-1.36-1.654-2.28-2.132-5.037-2.023-10.442-2.611-16.141-2.721-2.427-.258-4.89-.478-7.06-1.324-4.56-2.5-11.068-3.604-15.884-.883-3.715.588-6.987 2.096-9.818 4.854-2.023 3.162-5.7 3.934-8.53 5.92-.442.441-1.765.698-.994 1.47 1.729.92 3.678 1.398 5.296 2.317L50.87 75.67c-2.795-.625-11.62-1.765-13.163-1.508 3.566 1.214 7.538 1.508 11.215 2.464-3.567.257-7.428.477-10.848 1.14a69.9 69.9 0 0 1 10.48.551c-3.015.92-6.141 1.838-8.972 3.052 0 0 7.85-1.106 9.597-1.214v.258c-2.17.956-4.266 2.023-6.362 3.162 2.17-.294 4.266-1.508 6.472-1.655-.11.22.147.295.074.516l-5.221 3.529s3.579-1.274 5.588-2.022c.699 1.323.773 3.456 2.721 3.714 1.177 2.316 3.236 4.742 5.48 6.177 1.212-.295.44-1.691.771-2.317.258.184.404.515.441.81.111 1.066.221 2.573-.073 3.713-.147-.294-.23-.225-.7-.699-1.028-.22-1.837-2.206-2.903-.882.22 2.647 1.323 5.184 2.537 7.575l-.184.44c-.148 3.053 3.272 3.126 4.78 5.222.515 1.73-.625 3.015-.957 4.486-.147 1.507 0 3.345-.808 4.67-6.62 3.676-15.002 3.052-22.503 4.595-5.258 1.325-11.215 1.508-15.885-1.25-1.397-.44-2.353-1.838-3.787-2.205-2.795-.957-4.89 1.433-7.611.735-2.023 1.14-2.06 3.603-2.206 5.81-1.361 1.948-3.53 2.39-5.443 3.272-1.434.955-2.536 2.39-2.647 4.044-.146 1.325.883 2.207 1.839 3.016.22 1.102-.735 2.17-.883 3.346.074 1.765-1.324 3.456-.184 5.111.81 1.249 2.133 1.949 3.53 2.132.846.478 2.17-.256 2.831.626 1.656 2.28 3.861 5.551 6.987 5.368 2.353-.771 4.302-2.98 6.067-4.854 2.537-.405 4.632-1.911 6.728-3.456 2.06-.59 3.935-1.986 6.067-2.207 2.207-1.139 4.707-1.58 7.06-2.353 4.192-.22 8.053.884 11.73 2.097 8.899 2.463 18.716 1.838 27.65.184 1.655-1.619 2.428-3.789 3.42-5.736 2.39-3.31 8.36-9.192 13.287-8.016.037.92-3.005 4.318-3.226 5.163-2.942 3.457-4.257 6.426-5.808 8.819-.625 1.434-.686 3.152-1.348 4.55-.478 1.838-.735 4.632.882 5.883.405-.331.552-.883.699-1.398 1.324-1.618 2.941-3.162 5.148-2.464 1.25.257 1.728-1.948 2.905-1.433-1.655 3.015.808 7.023-1.765 9.633l.183.183c3.862.369 6.435-3.381 9.413-5.036a9.307 9.307 0 0 1 1.693 1.69c.44 1.84-.333 3.641-.7 5.368 3.64-.181 6.435-3.822 8.567-6.434.479.698.493.379 1.118.747.139 1.432.787 2.506.107 4.222 1.14-.256 3.176-1.366 4.17-2.91 1.99-3.006 2.29-6.911 1.114-10.368-.22-1.434-1.69-1.618-2.538-2.647-.33-1.876-.11-3.973-.55-5.81 1.102-2.5 3.124-5 5.662-6.288l-.11-.074 4.08-3.014 3.53-.441c3.493.33 7.06-2.133 10.333-.258 6.546 6.95 13.715 12.795 22.576 14.488 1.876.661 4.412.256 6.436 0 3.382 1.653 6.029 5.074 7.867 8.2 2.501 3.675 2.611 8.603 6.362 11.544.037 1.178.514 2.354 1.214 3.383.514.516 1.25.771 1.874.771 1.471 1.104 2.943 2.245 4.854 2.39 1.03-1.764 2.868-.108 4.303-.954 1.47-.295 1.91-1.728 2.132-3.014.588-.039 1.177-.185 1.506-.701.516-2.352-.184-4.854-.808-7.059z" fill="#231F20"/><path d="M114.666 53.496l.04.18-.011-.152-.03-.028" fill="#231F20"/><path d="M114.846 53.538l-.17-.098c.003.029.009.058.011.087l.159.413v-.402" fill="#231F20"/><path d="M74.587 136.452c-8.317 1.263-16.902 1.016-24.78-.728-2.414-.38-4.639-.78-6.415-1.116-2.504-.434-4.052-.813-4.052-.813-.623.192-1.236.41-1.817.707-5.442 1.802-10.038 5.81-15.15 8.126-1.433.552-4.044-.478-4.338 1.508.074.258.368.44.625.258 1.03.035 1.912-1.912 2.831-.626.073.368-.146.661-.183.993 1.801.073 3.125-.993 4.412-2.207 3.53-3.235 8.163-3.786 12.244-5.663 5.7-1.837 11.362.626 16.693 1.765 7.465.736 15.811 1.435 22.872-.513 1.622-1.078 2.723-2.44 3.576-3.939 0 0-1.92.893-5.517 1.686-.332.202-.68.383-1.001.562" fill="#FFF"/><path d="M68.85 84.126a.078.078 0 0 0 .018.002c-.008-.008-.008-.017-.016-.025l-.002.023m1.574-2.076c-.034.029-.072.058-.105.087a.906.906 0 0 1 .223-.058l-.118-.028m-1.475 1.585a6.69 6.69 0 0 1 .5-.5 2.25 2.25 0 0 0-.5.5m4.708 20.875c.126-.197.202-.346.277-.437a.673.673 0 0 0-.23.167c-.448.91-1.092 1.706-1.85 2.377.154-.129.308-.26.459-.41.516-.506.951-1.084 1.344-1.697m2.885-.928c.194.499.358 1.01.5 1.53-.033-.16-.058-.317-.102-.478a6.618 6.618 0 0 0-.398-1.052m91.586 22.645c-4.964-5.809-7.869-12.868-13.053-18.642.404-.146.772.257 1.14.369l4.67 4.154c3.86 3.678 5.588 8.163 7.354 12.797-.036.551.074.808-.111 1.322m-91.385-19.092a6.2 6.2 0 0 0 .508.763 19.145 19.145 0 0 1-.508-.763" fill="#C3A47B"/><path d="M80.722 127.996c-1.6-2.039-6.466-6.191-7.978-8.338-4.302-6.109-3.925-10.412-3.165-11.583a9.195 9.195 0 0 1-2.567.762c-.809.992-.956 2.243-1.25 3.42.882 1.984 2.721 4.081 4.596 5.037-1.103.478-2.243-.625-3.272-1.213-1.324-.294-2.17-1.47-3.163-2.317.662 2.096 1.765 4.008 2.832 5.92l.257.073c-.037.626.846.92.257 1.434-5.845-2.17-11.802.956-17.649 1.214-6.766.551-13.568 1.03-19.855 1.949-4.082-.295-7.685-2.39-11.031-4.854-1.618-.183-2.979-.11-4.303.626 1.53 2.457 1.372 2.396 1.115 3.646 1.324-.11 1.974.324 3.114.949 1.728.257 3.493.037 4.854-.993.11.147.294.295.33.441-.735 1.068-1.654 1.875-2.647 2.758l1.949 1.14c1.838 3.162 6.03 3.052 9.266 3.162.588.147 1.802-.293 2.132.368-2.095 1.177-4.559 1.582-6.728 2.39l.183.259c11.571-.886 12.588-1.676 14.672-1.84a18.003 18.003 0 0 1-3.331 1.39s1.594.346 4.052.812c1.278.22 2.805.455 4.502.658-.185-.046-.37-.089-.554-.138a83.51 83.51 0 0 0 10.955.717h.162c.231-.001.463-.007.695-.008.499-.008 1-.016 1.5-.029a85 85 0 0 0 16.067-2.005l.258.258c-.02.24-.093.449-.186.642a183.51 183.51 0 0 0 4.314-.499c.738-1.297 1.29-2.695 1.835-4.104a24.06 24.06 0 0 1-.467 1.037c-.494-1.117-.976-2.154-1.751-3.141" fill="#F0DDC0"/><path d="M75.652 101.716c.184.13.332.266.5.399a9.225 9.225 0 0 1-.464-.5c-.008.035-.03.066-.036.101m-14.56 1.121v.01a.15.15 0 0 0 .03-.02.11.11 0 0 0-.03.01m-1.94 33c.5-.016 1-.042 1.5-.078-.5.033-1.001.054-1.5.078m-11.258-.571a87.713 87.713 0 0 1-4.502-.658c1.776.337 4.001.737 6.415 1.116a56.554 56.554 0 0 1-1.913-.458m10.839.579h-.438.438" fill="#C3A47B"/><path d="M75.588 135.89c3.597-.793 5.517-1.686 5.517-1.686s-1.662.22-4.314.5c-.245.508-.698.878-1.203 1.186" fill="#F0DDC0"/><path d="M67.987 74.245s2.594-2.003 5.463-3.507c-3.196 1.676-5.463 3.507-5.463 3.507" fill="#C3A47B"/><path d="M77.568 68.737l.02-.009.585-.486-.005-.005c-.197.162-.397.329-.6.5" fill="#231F20"/><path d="M78.41 68.503c-.077-.097-.158-.18-.237-.27-.192.162-.388.33-.584.5a4.9 4.9 0 0 1 .821-.23" fill="#231F20"/><path d="M92.677 67.545c3.163-.957 6.251-2.06 9.634-2.464-4.78-1.324-10.038-1.434-15.185-1.066v.33l3.345 4.34 2.206-1.14" fill="#91622B"/><path d="M101.061 67.728c-2.501 2.06-5.957 2.133-7.759 5.185-.772 1.397-.073 3.052.074 4.522 3.235-3.419 6.838-6.25 10.443-8.934v-.515c-.773-.478-1.84-.185-2.758-.258m-29.563.772c-.625-.11-1.581-.22-2.096.11l.258.442c-.074.735.625 1.765-.258 2.206-.772-.772-.772-1.801-1.434-2.574l-1.839.258c.185 1.176 1.471 1.912 2.464 2.316.92.184 1.839-.22 2.464-.992.441-.479.661-1.14.441-1.765" fill="#FFF"/><path d="M53.702 69.934c-1.471-.624-2.869.662-3.825 1.14 1.104.037 2.023.552 3.015.883.515-.515.405-1.398.81-2.023" fill="#91622B"/><path d="M63.666 81.039c-1.618-1.838 1.618-2.648 1.508-4.229-.294-.625-.662-1.102-1.25-1.433a13.181 13.181 0 0 0-5.994.183l1.066.368c.441.294 1.508.772 1.14 1.507-1.618 1.177-3.86 2.427-3.456 4.817 2.904.81 6.14 1.36 9.082 1.508-.698-.92-1.47-1.765-2.096-2.721" fill="#FFF"/><path d="M54.915 79.274l.11-1.14c.258-.551.809-.735 1.323-.992-1.102.11-2.095.477-3.088.735-.11.809 1.14.845 1.655 1.397" fill="#F0DDC0"/><path d="M68.593 71.258c-.993-.404-2.28-1.14-2.464-2.316l1.839-.258c.662.773.662 1.802 1.434 2.574.883-.44.184-1.47.258-2.206l-.258-.441c.515-.33 1.47-.221 2.096-.11.22.624 0 1.286-.441 1.765-.625.772-1.544 1.176-2.464.992zm.552-4.265c1.323-1.25 2.94-2.5 4.559-3.346-.074-.331-.44-.037-.588-.258-2.427.515-4.633 1.582-6.73 2.905-.33-.44.626-.772.185-1.14a18.917 18.917 0 0 0-4.155 3.898l.257.258c2.574.772 4.266 3.603 7.171 3.53 2.444-1.642 4.89-3.553 7.724-4.103a90.2 90.2 0 0 1 .6-.272c-2.584-1.561-5.992-1.33-9.023-1.472z" fill="#231F20"/><path d="M52.451 79.348c-.956-.479-.478-1.177-.442-1.913h-.183c-1.214 2.538-.073 5.774 1.066 8.2.58.34.61-.222.699-.11.846-.735 1.581-1.655 1.765-2.721-.441-1.434-1.581-2.758-2.905-3.456" fill="#FFF"/><path d="M99.406 81.921c-1.304 2.433-2.713 4.906-4.362 7.25-1.791 2.544-3.865 4.933-6.412 6.943l.074.11c2.684-.477 5.295-2.169 6.803-4.522.349-.74.698-1.489 1.041-2.24 1.138-2.49 2.212-5.026 3.003-7.541h-.147" fill="#231F20"/><path d="M56.68 84.826c.074.625.81.846 1.14 1.398.22-.552.698-1.03.735-1.655-.625-.184-1.36-.11-1.875.257m4.412-.073l-1.765-.184.882 1.397c.368-.037.626-.809.883-1.213m4.155.331l-2.905-.258c.478 1.728.478 3.383.699 5.222.92-1.581 2.17-3.2 2.206-4.964m-9.266.256l-2.022 1.435c.661 1.692 1.985 3.236 3.162 4.67 0 0-.78-5.07-1.14-6.104" fill="#FFF"/><path d="M64.291 94.607c.037-1.508.514-3.089 1.14-4.486-1.14.736-1.765 2.059-2.832 2.905a7.722 7.722 0 0 0-.808 3.456c.698-.772 1.544-1.507 2.5-1.875" fill="#F5792A"/><path d="M63.74 100.968c1.654-.294 3.713.074 4.67-1.507-.994-1.691-3.163-5.11-3.163-5.11.058 1.306.515 5.404.515 5.404-.53-.805-.995-1.166-1.581-1.508-.258.479-.388 1.084-.442 1.581-.44-.515-.835-1.006-1.58-1.397-.221.699-.229 1.238-.258 1.912-1.801-.957-3.235-2.905-4.78-4.302.514 1.839.993 3.64 2.39 5.111 1.397-.037 2.868-.258 4.228-.184" fill="#FFF"/><path d="M106.796 126.56l3.347-5.626c5.993-6.728 10.001-14.266 11.84-22.687-.92.883-1.03 2.243-1.765 3.273-2.648 6.214-8.677 11.068-10.773 17.539-.846 2.538-2.574 4.78-2.649 7.5m61.443-1.653c-1.766-4.634-3.494-9.12-7.355-12.797l-4.67-4.154c-.367-.112-.735-.515-1.139-.369 5.184 5.774 8.089 12.833 13.053 18.642.185-.514.075-.77.11-1.322" fill="#231F20"/><path d="M130.55 122.699c1.912.295 3.714-.184 5.552-.294.662-.258 1.397.22 1.84-.33-.883-1.104-1.656-1.987-2.465-3.09-1.58 1.176-3.382 2.427-4.927 3.714m-117.185 4.744l-.257-.7c-.073-1.175-.368-2.352.257-3.346.515-.33.479-1.286.331-1.949-.441-1.213-1.581-1.985-2.647-.882-.736.919-.662 2.317-.699 3.347.662 1.47 1.655 2.683 3.015 3.53" fill="#FFF"/><path d="M4.1 130.2c2.132-.33 3.42 1.912 5.036 3.162.773-.22 1.545-.55 2.28-.956.663-1.397-.037-2.832-.515-4.081-.44-.59-1.066-.846-1.691-.956-2.17.736-4.486 1.213-6.434 2.537-.479.699-.552 1.397-.368 2.133.184-.773.883-1.656 1.691-1.839" fill="#91622B"/><path d="M7.078 133.73c.294.147.257.404.367.588.184 0 .405.11.515-.072-.294-1.693-2.243-2.354-3.603-3.017-.515.294-.405.993-.81 1.434-.22 1.36.442 2.832 1.508 3.862 1.287.882 2.868 1.8 4.412 1.25-1.066-.515-1.617-1.508-2.389-2.39 0-.552-.773-1.361 0-1.654" fill="#FFF"/><path d="M49.807 135.724c7.878 1.744 16.463 1.991 24.78.728.32-.179.67-.36 1-.562-2.984.658-7.12 1.246-12.306 1.196-4-.038-9.047-.665-13.474-1.362" fill="#231F20"/><path d="M58.295 135.845a83.407 83.407 0 0 1-10.955-.717c.183.049.37.092.554.138 2.539.307 5.457.548 8.5.578.629.006 1.264.006 1.9 0m.163.001c.23-.008.463-.013.695-.02-.232.001-.464.017-.695.02" fill="#231F20"/><path d="M76.72 133.803a85 85 0 0 1-17.568 2.034l-.695.008h-.162a77.576 77.576 0 0 1-10.401-.579c.633.163 1.27.316 1.913.458 4.427.697 9.473 1.324 13.474 1.362 5.186.05 9.322-.538 12.307-1.196.505-.308.958-.678 1.203-1.187.093-.193.165-.401.186-.642l-.258-.258" fill="#231F20"/><path d="M10.46 135.495l.147.883c1.581 1.544 4.891 1.103 6.472.44-2.17-.551-4.302-1.25-6.619-1.323m-3.64 5.441c-.809-1.36-2.941-1.434-3.53-3.235-.441 1.801-1.433 4.154-.183 5.883.184-.036-.037-.294-.074-.44.588-1.766 2.464-1.619 3.787-2.208m7.17-1.028c-.92 1.691-2.5.662-3.824.514-.22.183-.294.404-.441.626.956.588 2.243.588 3.383.44.551.626 1.213-.036 1.838-.11.699-.552 1.508-.92 1.581-1.911-.92-.075-1.875-.405-2.537.441" fill="#91622B"/><path d="M87.308 149.174l.074-.369c.626-1.286 1.986-2.243 3.2-2.83.993-1.546 2.17-3.274 2.022-5.295 0 0-.296-.078-.699 0-2.969.442-4.78 5.074-4.597 8.494m-79.936-6.473c-.809-.477.588-.33.514-.883-.183-.072-.367-.219-.625-.146-1.103.257-2.463.478-2.978 1.58.184.774 1.214 1.03 2.022 1.142.515-.331 1.14.294 1.655-.258 1.507.037 3.015-.626 4.155-1.508l-4.743.073" fill="#FFF"/><path d="M13.255 147.41c.92-1.068 1.691-2.17 2.941-2.65-.845-.294-1.875-.66-2.39-1.617-.698-.919-1.066.588-1.691.625-.294 1.25-1.03 2.354-2.28 2.758l1.95 2.353c.882.442 1.433 1.361 2.463 1.178l-.184-.185c-.956-.588-.993-1.47-.809-2.463" fill="#91622B"/><path d="M15.46 147.738c.883-.293 1.178-1.323 1.252-1.947l-.442.11c-.81.441-2.059 1.14-1.949 2.28.11.44-.073 1.212.625 1.14 2.463-.332 4.56-2.537 5.295-4.671l-4.596 3.53c-.147-.11-.184-.258-.184-.442m102.809-1.653c-1.288.736-1.878 2.156-2.356 3.334-.495 1.494.708 3.988-.043 6.096 2.244-1.524 4.457-5.201 3.648-8.475-.22-.478-.588-1.103-1.25-.955m-18.165.074c-3.382 1.838-2.683 5.808-3.897 8.64 1.47-.772 2.978-1.691 3.788-3.272 1.102-1.104 1.25-2.757 1.25-4.23-.258-.513-.442-1.103-1.14-1.138m9.707.073c-1.508.146-1.508 1.801-2.133 2.757.147 2.758.368 5.772-1.213 7.942l1.912-1.58c1.728-2.206 3.419-4.486 2.832-7.502-.222-.736-.515-1.543-1.398-1.617" fill="#FFF"/><path d="M69.844 72.84c-2.905.073-4.597-2.758-7.17-3.53l-.258-.258a18.917 18.917 0 0 1 4.155-3.897c.441.367-.515.698-.184 1.14 2.096-1.324 4.302-2.391 6.729-2.906.147.22.514-.073.588.258-1.618.846-3.236 2.096-4.56 3.346 2.972.14 6.304-.076 8.87 1.387l-.9.473c-2.641.655-4.958 2.434-7.27 3.987zm13.177-6.4c1.778-.51 1.814-.306 3.59.112-.92-1.14-2.06-2.39-3.273-3.163-2.647-1.912-5.81-2.684-8.899-3.456-6.398-.846-11.324 2.905-15.37 7.354l-.183-.183c.441-1.582 1.618-2.722 2.83-3.898-3.455 1.396-6.323 4.706-7.243 8.2l.81-.589c2.059-.883 4.412-1.765 6.618-1.507 1.654 2.303 4.197 3.09 6.086 4.935 0 0 2.267-1.831 5.463-3.507a73.67 73.67 0 0 1 2.122-1.064c3.94-1.197 13.014 8.884 15.746 14.847 3.1-9.7-2.842-17.42-8.297-18.082z" fill="#91622B"/><path d="M80.435 83.557c-1.777-1.293-3.963-2.066-6.192-2.35a14.998 14.998 0 0 0-3.002-.094c1.08.68 2.493 1.03 3.591 1.807-1.15.083-3.29-.594-4.424-.805H70.4a.335.335 0 0 0-.082.022c-.178.062-.61.303-1.097 1.036-.09.136-.181.291-.273.463-.027.05-.054.091-.081.145l-.047.174a.16.16 0 0 0 .03.164c.003.003.003.006.006.01.33.37 2.381.278 3.121.35.83.081 1.616-.036 2.46 0 .862.036 1.503-.443 2.17-.343.19.383-.08.67-.313 1.01-.495.723-1.103 1.325-1.612 2.12a17.516 17.516 0 0 0-1.466 2.852 30.835 30.835 0 0 0-1.426 4.37c-.492 2.003-1.33 6.56-3.589 7.43-1.403.54-3.337.286-4.816.438-1.184.121-1.973.202-2.283.484a.055.055 0 0 1-.01.008c-.311.295-.11.807.704 1.803 1.752 2.146 6.19 1.854 7.96-.177 1.862-2.136 3.634-4.142 5.49-6.458 1.639-2.044 4.27-4.285 6.317-5.904.347-.274.702-.557 1.037-.864.638-.583 1.195-1.253 1.434-2.125.595-2.178-2.068-4.452-3.6-5.566m-10.547 24.218c-.103.042-.209.147-.308.3a9.15 9.15 0 0 0 2.274-1.457c-.588.487-1.216.847-1.966 1.157m5.508-2.835c.465.719.89 1.465 1.348 2.196a14.579 14.579 0 0 1-.534-1.043c-.432-.915-.782-1.323-1.653-1.905-.37-.247-.495-.265-.622-.114.517-.206.947.737 1.461.866m1.147-1.357a9.523 9.523 0 0 0-.693-1.468c.225.49.472.97.693 1.468" fill="#FFF"/><path d="M78.993 79.739c3.37-.021 7.82.391 10.16 3.008 1.051 1.174 2.228 2.064 1.982 3.554-.373 2.265-2.546 3.522-3.985 4.304.152-2.14.63-5.162-.754-7.113-1.18-1.664-3.873-3.57-6.068-3.422m46.152 34.97c-.152 2.507-3.658 6.103-5.408 8.021 2.64-1.355 4.777-4.287 6.901-6.236 2.444-2.24 3.778-4.13 4.505-7.128-1.261 1.166-2.082 2.572-3.548 3.45-1.015.61-2.164.523-2.688 1.677m-27.793 3.569c-1.201 1.339-3.278 2.189-5.078 2.099-1.275-.064-1.093-.745-1.412-1.697-.98-2.927-1.282-6.2-2.188-9.2-.75-2.48-1.383-4.792-2.734-7.083-1.28-2.174-2.6-4.362-4.52-6.016-.358-.309-.68-.657-1.001-.925.006-.05.014-.1.016-.148 0 0-1.025-1.128-2.563.513-.924.985-2.325 2.784-2.996 3.975-.748 1.33-.622 2.983.619 3.86.156.408.37 1.1.38 1.37.233 1.73.636 3.148.636 3.148-.123-.162-.562-.737-.716-1.009-.4-.636-.698-1.324-1.073-1.966-.312-.647-1.22-1.672-1.872-1.346-.384.194-1.26 1.686-1.667 2.092-.606.605-1.13.975-1.818 1.384-.066.04-.113.071-.172.108-.218.097-.44.193-.663.294l.012-.018c-7.792 1.538-3.31 6-.237 9.607-1.314-1.63-4.068-3.24-6.017-3.864 1.004 2.11 2.477 5.124 3.908 6.98-3.655-.935-8.902.089-12.488.991-4.231 1.066-9.07.426-13.278.678-4.63.276-9.114 1.575-13.812 1.43-3.63-.112-8.807-6.436-13.887-4.064.035 1.157 1.055 1.178 1.214 2.053l.105.63c-.398 3.658 5.437 2.95 8.487 1.763-.413.495-2.67 2.777-3.13 3.255 2.642.78 3.088 3.54 6.533 3.815 5.39.43 10.5-3.726 15.92-3.048 2.41.3 6.738-.533 10.84-1.507 3.996.27 7.906 1.617 11.075 4.036-.785-2.87-2.802-4.724-5.219-5.515a123.55 123.55 0 0 1 2.611-.657c4.644-1.088 11.048 2.503 15.889 2.615-1.898-1.2-2.67-3.413-4.496-6.253 2.018 2.256 5.71 5.495 7.065 7.223.775.987 1.341 2.044 1.836 3.161.162-.334.347-.722.499-1.075 1.04-2.686 4.032-7.065 4.032-7.065-.538 1.382-.515 2.697-.773 4.241 3.677-2.021 8.457-1.434 11.84-4.118 1.129-1.43.666-3.083.293-4.747" fill="#91622B"/><path d="M105.453 75.476c3.152-.192 5.67.978 9.984 2.667-1.002-7.68-7.36-6.236-9.79-2.863" fill="#F0DDC0"/><path d="M188.426 25.075h-51.568v31.58h11.035l-26.263 76.57 28.05 9.238 29.333-85.808h15.808v-31.58h-6.395" fill="#004E32"/><path d="M188.426 28.073h-48.57v25.584h12.235l-30.045 87.595 22.57 6.753 32.254-94.348h14.954V28.073h-3.398" fill="#FAB217"/><path fill="#004E32" d="M140.304 150.117l34.136-99.858h13.986V31.47h-45.172v18.788h13.594l-32.733 95.448 16.189 4.41"/></g></svg>