<svg width="200" height="201" fill="none" xmlns="http://www.w3.org/2000/svg"><g clip-path="url(#a)"><path d="M148.219 187.89v-16.712c-4.241-1.871-5.537-4.885-3.923-9.997.77-2.436 43.718-116.576 43.718-116.576 3.668-9.986 7.139-13.03 11.986-15.619V12h-84.11v16.986c6.351 1.573 5.677 6.869 4.083 10.904C118.378 43.926 100 91.452 100 91.452S81.622 43.926 80.027 39.89c-1.594-4.035-2.268-9.331 4.083-10.904V12H0v16.986c4.85 2.592 8.318 5.633 11.986 15.62 0 0 42.948 114.136 43.718 116.575 1.614 5.112.315 8.126-3.923 9.997v16.712h96.438Z" fill="#001F5B"/><path d="M57.534 182.411v-7.945c6.515-4.384 5.31-10.496 3.496-15.296L17.25 42.312C14.867 36.07 11.917 29.65 5.48 25.7v-8.493h73.15v8.493c-5.068 2.033-6.85 7.534-5.05 12.457C75.308 42.876 100 107.89 100 107.89s24.693-65.013 26.419-69.734c1.8-4.923.019-10.424-5.049-12.457v-8.493h73.151v8.493c-6.439 3.95-9.389 10.37-11.77 16.613L138.97 159.17c-1.814 4.8-3.019 10.912 3.496 15.296v7.945H57.534Z" fill="#fff"/><path d="M134.521 176.11c-5.047-4.902-4.332-11.647-1.595-18.798 4.603-12.019 43.89-116.701 43.89-116.701 3.074-8.038 6.159-13.584 10.579-17.107h-58.631c4.159 3.15 6.165 9.315 3.318 17.006-2.29 6.189-32.085 85.186-32.085 85.186S70.203 46.699 67.912 40.51c-2.846-7.69-.84-13.855 3.318-17.006H12.603c4.419 3.523 7.507 9.069 10.578 17.107 0 0 39.29 104.679 43.89 116.701 2.737 7.148 3.452 13.894-1.594 18.798h69.044Z" fill="#001F5B"/><path d="M94.794 176.11 35.07 23.507h7.123L100 170.904l57.808-147.397h7.123L105.205 176.11h-10.41Z" fill="#3DB7E4"/><path d="M151.652 184.384h-1.145v-1.099H154v1.099h-1.129v3.506h-1.219v-3.506Zm2.956-1.102h1.263l.921 1.663.937-1.663h1.249v4.608h-1.189v-2.616l-.981 1.71h-.044l-.967-1.71v2.616h-1.189v-4.608Z" fill="#001F5B"/></g><defs><clipPath id="a"><path fill="#fff" transform="translate(0 12)" d="M0 0h200v175.89H0z"/></clipPath></defs></svg>