<svg width="200" height="200" xmlns="http://www.w3.org/2000/svg" xmlns:xlink="http://www.w3.org/1999/xlink"><defs><path id="a" d="M.044.353H199.47v155.078H.044z"/><path id="c" d="M.044.154H199.47v74.683H.044z"/></defs><g fill="none" fill-rule="evenodd"><path d="M147.262 25.923c2.01-4.006 10.296-6.538 14.804-6.554l-44.545-.016 8.23 6.57h21.511M162.112 19.37h.001-.001" fill="#003A70"/><path d="M162.113 19.368c-4.497-.002-12.834 2.535-14.851 6.555l-47.527 94.744-47.528-94.744c-2.016-4.02-10.354-6.557-14.85-6.555v.001s4.865 2.036 8.795 8.867l53.583 106.817 53.583-106.817c3.93-6.83 8.795-8.867 8.795-8.867h-.001.001v-.001" fill="#232D4B"/><path d="m99.735 83.592 23.757-47.394c1.782-3.552 2.581-7.302 2.258-10.275l-8.229-6.57c2.256 3.856 2.417 9.462.415 13.538L99.734 69.172l-18.2-36.281c-2.003-4.076-1.842-9.682.414-13.538l-8.228 6.57c-.324 2.973.476 6.723 2.257 10.275l23.758 47.394" fill="#232D4B"/><path d="M52.207 25.923c-2.01-4.006-10.295-6.538-14.803-6.554l44.544-.016-8.229 6.57H52.207M37.358 19.37h-.001" fill="#003A70"/><path d="M147.262 25.923H125.75c.323 2.973-.476 6.723-2.258 10.275L99.734 83.593v18.534l34.057-67.891c1.763-3.397 7.77-8.313 13.471-8.313" fill="#F84C1E"/><path d="m133.791 34.236-34.057 67.891v18.54l47.528-94.744c-5.7 0-11.708 4.916-13.47 8.313" fill="#FF6A14"/><path d="M52.207 25.923h21.512c-.323 2.973.477 6.723 2.258 10.275l23.758 47.395v18.534L65.678 34.236c-1.763-3.397-7.77-8.313-13.471-8.313" fill="#FF6A14"/><g transform="translate(0 25.57)"><mask id="b" fill="#fff"><use xlink:href="#a"/></mask><path d="m65.678 8.666 34.057 67.892v18.54L52.207.354c5.701 0 11.708 4.917 13.471 8.313" fill="#F84C1E" mask="url(#b)"/><path d="M173.822 138.877a11.307 11.307 0 0 1-9.095 4.532c-4.175 0-7.815-2.227-9.755-5.53 1.584.268 18.85.998 18.85.998Zm-139.078 4.532c-3.739 0-7.05-1.785-9.094-4.532 0 0 17.265-.73 18.85-.999-1.94 3.304-5.581 5.531-9.756 5.531Zm163.292-67.354-.42.287-.02.015c-29.247 19.852-63.19 34.98-97.861 44.1-34.67-9.12-68.614-24.248-97.86-44.102v.001c-.006-.004-.013-.01-.021-.014-.14-.095-.28-.19-.42-.287-1.665-1.11-1.999-.947-.369.582 4.182 4.223 14.715 14.264 31.563 24.429v-.001c11.325 7.016 24.168 13.53 35.21 17.293a383.909 383.909 0 0 0 16.657 5.703c-10.548 2.223-21.11 3.885-31.575 4.934-.586-1.873-2.086-3.331-3.768-3.488-2.07-.192-3.65 1.724-3.5 4.208.008.166.028.33.05.492-7.947.893-21.74 1.158-22.13 1.166h-.02c.05-.513.122-.997.24-1.487l.004-.021c.006-.042.013-.084.013-.13a.82.82 0 0 0-1.605-.24 16.843 16.843 0 0 0-.717 1.81l-1.947.011-4.35.019a.63.63 0 0 0-.612-.515l-.706-.008a.618.618 0 0 0-.602.425c-.133.424-.249.854-.348 1.29-.02-.002-.037-.005-.058-.005a.55.55 0 0 0-.54.446 15.62 15.62 0 0 0-.263 4.02c.02.293.259.521.548.533.046.442.11.88.192 1.31a.649.649 0 0 0 .631.527l.612.005a.63.63 0 0 0 .633-.601c2.192.053 4.964.055 6.228.033 1.202 6.979 7.303 12.166 15.069 12.169 8.325.002 15.67-5.955 17.395-13.695 12.669-1.586 27.662-3.78 46.366-8.758 18.706 4.978 33.699 7.172 46.367 8.758 1.724 7.74 9.071 13.697 17.395 13.695 7.766-.003 13.867-5.19 15.069-12.17 1.265.021 4.035.021 6.227-.032a.63.63 0 0 0 .634.6l.611-.003a.652.652 0 0 0 .632-.528c.082-.43.146-.868.19-1.31.291-.012.53-.24.549-.532a15.577 15.577 0 0 0-.261-4.02.55.55 0 0 0-.54-.448c-.021 0-.04.005-.06.007-.098-.437-.213-.867-.347-1.29a.613.613 0 0 0-.602-.426c-.188.003-.522.005-.706.007a.632.632 0 0 0-.612.515l-4.35-.019-1.947-.01a17.016 17.016 0 0 0-.716-1.81.823.823 0 0 0-.783-.582.823.823 0 0 0-.823.823c0 .044.005.088.013.13l-.007.002c.119.49.2.993.25 1.505h-.019c-.39-.008-14.184-.273-22.131-1.166.007-.054.01-.11.017-.165.014-.108.029-.216.036-.327.148-2.483-1.433-4.4-3.502-4.207-1.682.155-3.183 1.614-3.769 3.487-10.465-1.049-21.027-2.71-31.575-4.934a384.329 384.329 0 0 0 16.66-5.703c11.04-3.763 23.883-10.276 35.21-17.294v.002c16.847-10.165 27.378-20.206 31.56-24.429 1.63-1.529 1.297-1.692-.369-.582ZM186.027 146.931c.828 0 1.562.063 1.562.938 0 .937-1.281.78-2.218.78h-1.064v-1.718h1.72Zm.718 2.717c.92-.029 1.842-.532 1.842-1.89 0-1.452-1.124-1.827-2.372-1.827h-2.906v6.903h.998v-3.186h1.28l1.766 3.186h1.14l-1.748-3.186Zm-1.062 5.826c3.435 0 6.153-2.716 6.153-6.137 0-3.42-2.718-6.138-6.153-6.138-3.437 0-6.154 2.717-6.154 6.138 0 3.42 2.717 6.137 6.154 6.137Zm0-11.276c2.81 0 5.155 2.235 5.155 5.14 0 2.888-2.345 5.137-5.155 5.137-2.811 0-5.154-2.25-5.154-5.138 0-2.904 2.343-5.14 5.154-5.14Z" fill="#232D4B" mask="url(#b)"/></g><path d="M148.518 163.167s1.845 9.015 11.824 12.422c0 0-10.327-1.566-13.52-12.624l1.696.202M146.552 154.564l1.792.195s1.48 1.506 1.21 4.21a313.43 313.43 0 0 1-42.25-6.987c2.49-.727 5.064-1.52 7.682-2.35 10.545 2.223 21.104 3.883 31.566 4.932M179.931 156.89l4.35.02.001-.002.002.001s.972 2.862.512 7.427v.006l-.002-.006c-.419.01-.861.018-1.309.025-.297-5.968-4.62-7.346-5.095-7.479l1.541.009" fill="#003A70"/><g transform="translate(0 100.752)"><mask id="d" fill="#fff"><use xlink:href="#c"/></mask><path d="M39.13 74.837s10.325-1.565 13.52-12.624l-1.696.202s-1.845 9.016-11.825 12.422M49.918 58.217c-.27-2.704 1.21-4.21 1.21-4.21l1.791-.195h.002c12.96-1.298 26.071-3.534 39.12-6.621-27.258-7.992-52.29-19.55-74.798-33.972C9.61 8.185 1.892 2.158 0 .226c-.02-.201.496.02 1.435.646.14.095.28.192.42.286a.15.15 0 0 0 .02.016v-.001c29.247 19.853 63.19 34.98 97.86 44.1 34.67-9.12 68.615-24.247 97.86-44.1.008-.004.014-.01.022-.015.14-.094.28-.19.42-.286.59-.393.989-.607 1.217-.676.025-.008.055-.02.075-.024a.161.161 0 0 1 .085.005c.019.006.036.015.04.035.001.008.017.004.017.014l-.02.019c-1.917 1.95-9.61 7.954-17.221 12.974-37.543 24.054-82.102 40.155-132.312 44.998" fill="#003A70" mask="url(#d)"/></g><path d="m19.54 156.89-4.35.02-.002-.002-.001.001s-.972 2.862-.513 7.427l.001.006.002-.006c.419.01.862.018 1.308.025.298-5.968 4.62-7.346 5.096-7.479l-1.542.009M49.153 150.988c-2.07-.192-3.65 1.724-3.502 4.208.01.165.029.326.052.487l.009.095c-8.075.9-22.159 1.164-22.159 1.164-.002.027-.001.054-.002.081-.051.86.025 1.795.207 2.736 5.65.214 20.713-.963 22.087-1.048-.015.543-.215 2.055-.617 3.113l-.06.15c-1.642 4.087-5.664 6.917-10.424 6.917-.258 0-.508-.029-.76-.046a11.818 11.818 0 0 1-.898-.087c-.288-.04-.568-.09-.84-.151-.194-.043-.383-.096-.573-.149a11.279 11.279 0 0 1-4.461-2.418c-.094-.08-.189-.159-.273-.235 0 0 3.686 4.244 9.507 3.904 4.807-.28 8.43-2.753 10.333-7.144a10.26 10.26 0 0 0 .65-1.848l.005-.013h-.001c.048-.194.085-.386.122-.578l.02-.004c.03-.158.04-.31.063-.465a13.163 13.163 0 0 0 .125-1.1c.098-1.366.008-2.63-.035-3.675-.124-3.107 2.263-3.845 3.361-3.099-.58-.444-1.244-.731-1.936-.795M150.319 150.988c2.07-.192 3.65 1.724 3.5 4.208-.009.165-.027.326-.05.487l-.01.095c8.074.9 22.159 1.164 22.159 1.164.002.027.001.054.002.081.05.86-.025 1.795-.206 2.736-5.651.214-20.714-.963-22.088-1.048.016.543.215 2.055.617 3.113 0 0 .046.12.06.15 1.642 4.087 5.664 6.917 10.424 6.917.258 0 .508-.029.76-.046l.19-.01c.238-.02.474-.043.708-.077.289-.04.568-.09.84-.151.194-.043.383-.096.573-.149a11.282 11.282 0 0 0 4.462-2.418c.093-.08.187-.159.273-.235 0 0-3.687 4.244-9.508 3.904-4.807-.28-8.43-2.753-10.333-7.144a10.26 10.26 0 0 1-.65-1.848l-.006-.013h.002c-.048-.194-.085-.386-.123-.578l-.02-.004c-.03-.158-.039-.31-.062-.465-.034-.22-.065-.438-.087-.653a16.068 16.068 0 0 1-.037-.448c-.099-1.365-.008-2.63.033-3.674.125-3.107-2.261-3.845-3.36-3.099.58-.444 1.244-.731 1.937-.795" fill="#003A70"/></g></svg>