<?xml version="1.0" encoding="UTF-8"?>
<svg width="200px" height="200px" viewBox="0 0 200 200" version="1.1" xmlns="http://www.w3.org/2000/svg" xmlns:xlink="http://www.w3.org/1999/xlink">
    <!-- Generator: Sketch 51.3 (57544) - http://www.bohemiancoding.com/sketch -->
    <title>virginia</title>
    <desc>Created with Sketch.</desc>
    <defs></defs>
    <g id="virginia" stroke="none" stroke-width="1" fill="none" fill-rule="evenodd">
        <g id="virginia_BGL" transform="translate(0.000000, 31.840796)">
            <g id="virginia">
                <g id="g10" transform="translate(100.000000, 68.653456) scale(-1, 1) rotate(-180.000000) translate(-100.000000, -68.653456) translate(0.000000, 0.149859)">
                    <g id="g12" transform="translate(0.000000, 0.561966)">
                        <path d="M44.0155964,135.645361 L85.9962243,135.644737 C86.7069161,135.644737 87.3654066,135.5517 87.6610041,134.910435 C87.9842745,134.209227 87.5515701,133.524878 86.9213815,133.074057 L82.2981112,129.769699 C80.4943376,128.480301 79.291193,127.361989 78.9685515,125.179066 C78.7226395,123.511277 79.0861615,122.439172 79.8937087,120.956207 L99.6811296,84.602034 L118.544651,121.87346 C119.244022,123.25527 119.66855,124.19625 119.469808,125.729792 C119.285532,127.159057 118.984903,128.193698 117.805657,129.034773 L111.88679,133.257008 C111.302513,133.67536 110.705029,134.013788 110.777985,134.726235 C110.871066,135.652854 112.060375,135.644737 112.997481,135.644737 L154.793078,135.644112 C155.569179,135.644112 156.352197,135.624131 156.643392,134.909186 C156.944021,134.166767 156.382386,133.526751 155.718235,133.073432 L152.759116,131.054103 C150.984902,129.843379 150.02704,129.074735 148.505028,127.564921 C146.208172,125.288337 145.058487,123.788513 143.511946,120.955583 L99.1257837,39.6185683 L56.776225,120.221906 C55.7488036,122.17817 54.9457219,123.184088 53.4473572,124.812539 C51.9646528,126.423507 50.9789924,127.210883 49.193961,128.484672 L43.275848,132.70753 C42.3975461,133.334434 41.2067914,133.915132 41.6116342,134.911059 C41.9789298,135.813951 43.0348417,135.645361 44.0155964,135.645361" id="path14" fill="#232D4B" fill-rule="nonzero"></path>
                        <path d="M120.209431,132.155555 L147.395594,132.155555 C146.106286,131.004775 145.410688,130.314806 144.25094,129.034149 C142.322638,126.903675 141.176726,125.682961 139.813204,123.158487 L99.1257837,47.8807101 L61.0298727,121.691133 C59.8894325,123.900282 59.1072312,125.101015 57.516225,127.015444 C55.6323885,129.282038 54.3754703,130.44718 51.9681119,132.156804 L78.7842748,132.15618 C76.8528283,131.002902 75.8792434,129.842755 75.0849038,127.749746 C74.1691805,125.336416 74.0371051,123.410123 75.2698094,121.139783 L99.4962239,76.5234676 L122.984274,121.322733 C124.316978,123.866564 124.560374,126.061352 123.354085,128.666998 C122.584903,130.326045 121.785532,131.213951 120.209431,132.155555" id="path16" fill="#F25D19" fill-rule="nonzero"></path>
                        <path d="M54.0008163,15.6582323 C50.4348415,15.1935492 48.4205648,14.9508426 44.8464769,14.5567174 C40.4881751,14.0754876 38.0259739,13.8325312 33.6576092,13.4559519 C35.6834582,9.32606737 38.5581122,6.84605114 43.8288668,7.39602805 C48.9266654,7.92870891 52.8021999,10.7105006 54.0008163,15.6582323 Z M145.728927,15.2898951 C149.294965,14.8252745 151.30943,14.5823181 154.884273,14.1883803 C159.242134,13.7069631 161.70377,13.4640067 166.072323,13.0861786 C164.046537,8.95704335 161.172323,6.47627783 155.901254,7.02775332 C150.803141,7.56018442 146.927669,10.3419761 145.728927,15.2898951 Z M99.2635195,23.4608111 C114.273582,19.7780638 127.935846,17.5033524 138.60943,16.2994349 C137.684273,6.10917699 144.064776,0.784897225 151.647166,0.141710842 C160.615719,-0.617575117 166.535216,4.08986009 170.881128,12.810316 C172.082386,12.4432276 173.184272,11.9449515 174.57987,12.3520019 C176.519492,12.9176514 177.85597,14.2920941 177.908801,16.2994349 C177.966662,18.4811723 176.396851,20.2963834 174.210059,20.5229803 C172.540876,20.694692 171.243392,20.0802764 170.325782,18.6866019 C165.342763,18.9275603 162.533329,19.1299927 157.565405,19.6044165 C152.213833,20.1158676 149.199367,20.4792719 143.8805,21.2573444 C143.696223,23.0937852 143.281757,24.745277 141.660374,24.745277 C140.283644,24.745277 139.194965,23.5413595 139.2566,22.1752214 C132.581758,23.0206048 122.781758,24.4255186 111.318236,26.6941109 C116.965406,28.2819132 122.895594,30.0951262 128.71572,32.0901037 C158.802512,42.4039816 192.518863,63.8530186 199.73207,79.4594252 C189.559744,70.095831 159.285531,47.7214865 128.899997,37.5980525 C118.744022,34.2150202 108.420752,31.3888332 99.0327019,29.2453719 C90.0930795,31.3295771 80.4251552,34.0357532 70.8301869,37.2321506 C40.4464141,47.3555845 10.1712576,69.7311778 0,79.0953964 C7.21207529,63.4883655 40.9289298,42.0393908 71.0150926,31.7230154 C76.2742119,29.9209793 81.4383627,28.1695201 86.562262,26.7001677 C75.8949667,24.6428119 66.7861619,23.3427984 60.4733947,22.5434961 C60.5370425,23.909884 59.4474828,25.114301 58.0694954,25.114301 C56.4487407,25.114301 56.03503,23.4608111 55.8503131,21.6256816 C50.5306906,20.8471096 47.5171686,20.4837052 42.1649046,19.972941 C37.1977978,19.4995163 34.3882381,19.2973336 29.4039615,19.055626 C28.4871062,20.4500497 27.188993,21.0629668 25.5205654,20.8912551 C23.3340875,20.6654074 21.7642133,18.8506959 21.8219491,16.6692082 C21.8747793,14.6616177 23.210251,13.2874247 25.1506283,12.7215254 C26.5452824,12.3139755 27.6471691,12.8127511 28.8494961,13.1798395 C33.1955338,4.45889659 39.1143386,-0.249762448 48.0825145,0.510257188 C55.6650301,1.15270989 62.0454701,6.47746421 61.1207532,16.6679594 C71.4012561,17.8267947 84.9044004,20.0141518 99.2635195,23.4608111 Z" id="path18" fill="#232D4B"></path>
                        <path d="M171.066662,8.9846421 L171.066662,9.72269013 L174.86226,9.72269013 L174.86226,8.9846421 L173.406914,8.9846421 L173.406914,5.30184485 L172.522637,5.30184485 L172.522637,8.9846421 L171.066662,8.9846421 Z M176.889304,9.72269013 L178.025782,6.55819992 L179.174209,9.72269013 L180.438989,9.72269013 L180.438989,5.30184485 L179.622637,5.30184485 L179.622637,8.86900209 L178.388046,5.30184485 L177.675467,5.30184485 L176.434587,8.86900209 L176.434587,5.30184485 L175.617606,5.30184485 L175.617606,9.72269013 L176.889304,9.72269013 Z" id="path20" fill="#232D4B"></path>
                    </g>
                </g>
            </g>
        </g>
    </g>
</svg>