<svg width="200" height="200" xmlns="http://www.w3.org/2000/svg"><g fill="none"><path fill="#D33922" d="M50.256 82.857l16.189-28.875H200l-16.067 29.944H149.96l-33.724 63.362H81.223l33.98-63.106H85.046l-34.637 64.013L0 53.982h34.725l15.531 28.875"/><path fill="#FFF" d="M33.38 56.227l16.832 31.304 17.555-31.304H196.24l-13.655 25.45H148.61l-33.725 63.363H84.993l33.975-63.106H83.706L50.42 143.449 3.758 56.227H33.38"/><path fill="#672238" d="M7.506 58.478h24.528l18.138 33.724 18.911-33.724h123.4L181.239 79.43H147.26l-33.726 63.359h-24.78l33.975-63.103H82.365L50.43 138.703 7.506 58.478"/><path d="M130.711 138.59c.843 0 1.59.064 1.59.954 0 .954-1.304.794-2.258.794h-1.083v-1.748h1.751zm.731 2.766c.937-.03 1.875-.541 1.875-1.924 0-1.48-1.144-1.86-2.415-1.86h-2.958v7.028h1.016v-3.244h1.303l1.799 3.244h1.16l-1.78-3.244zm-1.081 5.933c3.498 0 6.265-2.767 6.265-6.25s-2.767-6.25-6.265-6.25c-3.5 0-6.267 2.767-6.267 6.25s2.767 6.25 6.267 6.25zm0-11.483c2.861 0 5.248 2.275 5.248 5.233 0 2.941-2.387 5.232-5.248 5.232-2.864 0-5.248-2.29-5.248-5.232 0-2.958 2.384-5.233 5.248-5.233z" fill="#D33922"/></g></svg>