<svg width="200" height="200" xmlns="http://www.w3.org/2000/svg"><g fill="none" fill-rule="evenodd"><path d="M44.016 32.79l41.98.001c.71 0 1.37.093 1.665.734.323.702-.11 1.386-.74 1.837l-4.623 3.304c-1.804 1.29-3.007 2.408-3.33 4.59-.245 1.669.118 2.74.926 4.224L99.68 83.834l18.864-37.272c.699-1.381 1.124-2.322.925-3.856-.184-1.43-.485-2.464-1.664-3.305l-5.92-4.222c-.583-.418-1.181-.757-1.108-1.47.093-.926 1.282-.918 2.22-.918h41.795c.776 0 1.56.02 1.85.736.301.742-.26 1.382-.925 1.835l-2.959 2.02c-1.774 1.21-2.732 1.98-4.254 3.489-2.297 2.277-3.447 3.776-4.993 6.61l-44.386 81.336-42.35-80.603c-1.027-1.956-1.83-2.962-3.329-4.59-1.482-1.612-2.468-2.399-4.253-3.673l-5.918-4.223c-.878-.627-2.07-1.207-1.664-2.203.367-.903 1.423-.734 2.404-.734" fill="#232D4B" fill-rule="nonzero"/><path d="M120.21 36.28h27.186a35.706 35.706 0 0 0-3.145 3.122c-1.928 2.13-3.074 3.35-4.438 5.875l-40.687 75.278-38.096-73.81c-1.14-2.21-1.923-3.41-3.514-5.325-1.884-2.266-3.14-3.431-5.548-5.14h26.816c-1.931 1.153-2.905 2.313-3.7 4.406-.915 2.413-1.047 4.34.186 6.61l24.226 44.616 23.488-44.799c1.333-2.544 1.576-4.738.37-7.344-.77-1.66-1.568-2.547-3.145-3.489" fill="#F25D19" fill-rule="nonzero"/><path d="M54 152.778c-3.565.464-5.58.707-9.154 1.101-4.358.481-6.82.724-11.188 1.1 2.025 4.13 4.9 6.61 10.17 6.06 5.099-.532 8.974-3.314 10.173-8.261zm91.729.368c3.566.465 5.58.708 9.155 1.102 4.358.48 6.82.724 11.188 1.102-2.025 4.129-4.9 6.61-10.17 6.058-5.099-.532-8.974-3.314-10.173-8.262zm-46.465-8.17c15.01 3.682 28.672 5.957 39.345 7.16-.925 10.19 5.456 15.515 13.038 16.158 8.969.76 14.888-3.948 19.234-12.668 1.201.367 2.303.865 3.699.458 1.94-.566 3.276-1.94 3.329-3.948.058-2.181-1.512-3.997-3.699-4.223-1.67-.172-2.967.443-3.884 1.836-4.983-.24-7.793-.443-12.76-.918-5.352-.511-8.367-.874-13.685-1.652-.185-1.837-.6-3.488-2.22-3.488-1.377 0-2.466 1.204-2.404 2.57a409.887 409.887 0 0 1-27.939-4.52c5.647-1.587 11.578-3.4 17.398-5.395 30.087-10.314 63.803-31.763 71.016-47.37-10.172 9.364-40.446 31.738-70.832 41.862a324.815 324.815 0 0 1-29.867 8.353 321.26 321.26 0 0 1-28.203-7.987C40.446 121.08 10.171 98.704 0 89.34c7.212 15.608 40.929 37.056 71.015 47.373 5.26 1.802 10.423 3.553 15.547 5.023a410.786 410.786 0 0 1-26.089 4.156c.064-1.366-1.026-2.57-2.404-2.57-1.62 0-2.034 1.653-2.219 3.488-5.32.779-8.333 1.142-13.685 1.653-4.967.473-7.777.676-12.761.917-.917-1.394-2.215-2.007-3.883-1.835-2.187.225-3.757 2.04-3.7 4.222.054 2.007 1.39 3.381 3.33 3.947 1.394.408 2.496-.09 3.698-.458 4.347 8.721 10.265 13.43 19.234 12.67 7.582-.643 13.962-5.968 13.038-16.158 10.28-1.159 23.783-3.346 38.143-6.793z" fill="#232D4B"/><path d="M171.067 159.451v-.738h3.795v.738h-1.455v3.683h-.884v-3.683h-1.456zm5.822-.738l1.137 3.165 1.148-3.165h1.265v4.421h-.816v-3.567l-1.235 3.567h-.713l-1.24-3.567v3.567h-.817v-4.42h1.271z" fill="#232D4B"/></g></svg>