<svg width="200" height="200" xmlns="http://www.w3.org/2000/svg"><g fill-rule="nonzero" fill="none"><path fill="#D33922" d="m50.256 82.125 16.189-28.874H200l-16.067 29.943H149.96l-33.724 63.362H81.223l33.98-63.106H85.046l-34.637 64.013L0 53.251h34.725l15.531 28.874"/><path fill="#FFF" d="m33.38 55.496 16.832 31.303 17.555-31.303H196.24l-13.655 25.45h-33.975l-33.725 63.363H84.993l33.975-63.107H83.706L50.42 142.718 3.758 55.496H33.38"/><path fill="#672238" d="M7.506 57.747h24.528L50.172 91.47l18.911-33.723h123.4l-11.244 20.951H147.26l-33.726 63.36h-24.78l33.975-63.104H82.365L50.43 137.972 7.506 57.747"/><path d="M130.711 137.859c.843 0 1.59.063 1.59.954 0 .954-1.304.793-2.258.793h-1.083v-1.747h1.751Zm.731 2.766c.937-.03 1.875-.542 1.875-1.924 0-1.48-1.144-1.86-2.415-1.86h-2.958v7.028h1.016v-3.244h1.303l1.799 3.244h1.16l-1.78-3.244Zm-1.081 5.932c3.498 0 6.265-2.767 6.265-6.249 0-3.483-2.767-6.25-6.265-6.25-3.5 0-6.267 2.767-6.267 6.25 0 3.482 2.767 6.25 6.267 6.25Zm0-11.482c2.861 0 5.248 2.275 5.248 5.233 0 2.941-2.387 5.232-5.248 5.232-2.864 0-5.248-2.291-5.248-5.232 0-2.958 2.384-5.233 5.248-5.233Z" fill="#D33922"/></g></svg>