<svg width="200" height="200" xmlns="http://www.w3.org/2000/svg"><g fill="none"><path fill="#DB1E26" d="M99.812 74.89l18.936-30.958h19.424l43.621 108.936h14.113v24.93h-55.113v-24.93h13.569l-28.89-69.505-25.66 41.032-25.659-41.032-28.89 69.505h13.568v24.93H3.72v-24.93h14.113l43.62-108.936h19.425z"/><path fill="#DB1E26" d="M99.812 77.694L80.058 45.396H62.442L18.821 154.33H5.181v22.003H57.37V154.33H43.071l30.82-74.147 25.921 41.452 25.922-41.452 30.82 74.147h-14.298v22.003h52.188V154.33h-13.64L137.183 45.396h-17.616z"/><path fill="#DB1E26" d="M99.812 176.51L17.92 44.59H6.629V19.66H53.98v24.93h-8.504l54.335 88.147 54.336-88.146h-8.504V19.66h47.352v24.93h-11.29z"/><path fill="#FCD313" d="M99.812 173.737l81.08-130.61h10.641V21.124h-44.427v22.003h9.662l-56.956 92.398-56.955-92.398h9.662V21.124H8.09v22.003h10.642z"/><path fill="#DB1E26" d="M112.699 24.78v150.474h12.452v24.536H74.532v-24.536h12.453V24.78H74.532V.244h50.62V24.78z"/><path fill="#FFF" d="M111.236 176.717v-153.4h12.453V1.707H75.995v21.61h12.452v153.4H75.995v21.61h47.694v-21.61z"/><path fill="#DB1E26" d="M112.518 54.204l4.27 15.089-4.038 34.497-12.908 20.643-12.782-20.44-5.136-34.699L87.23 54.31l12.612 20.62z"/><path fill="#DB1E26" d="M99.842 77.732l-19.77-32.32h-15.76l9.587 34.791 25.943 41.47 25.993-41.47 7.462-34.79h-13.729z"/></g></svg>