<svg width="200" height="200" xmlns="http://www.w3.org/2000/svg"><g fill="none"><path d="M.687 50.925c13.692.014 27.371 0 41.064 0 .879.014 1.73-.082 2.61-.055 22.345 0 44.676-.013 67.021-.013 3.296.055 6.592.137 9.888.33 7.842.466 15.56 1.537 23.156 3.666 3.282.824 6.51 1.964 9.641 3.269 7.1 2.966 13.775 6.853 19.818 11.619 5.686 4.518 10.795 9.86 14.901 15.862 5.343 7.733 8.996 16.509 10.974 25.683.055.247.123.48.206.714v.687c-.193.563-.234 1.126-.371 1.703-1.113 5.232-3.145 10.3-5.92 14.874a44.298 44.298 0 0 1-9.064 10.712c-3.777 3.241-8.075 5.782-12.69 7.636-1.524.632-3.104 1.112-4.656 1.648h-.233c.11-.37.233-.728.384-1.071a77.364 77.364 0 0 0 1.47-3.873c1.442-4.203 2.582-8.721 2.774-13.17-.027-.276.082-.633-.288-.701-3.296-.948-6.812-1.264-10.218-.88-4.024.399-7.897 1.608-11.564 3.283-3.53 1.648-6.895 3.722-9.985 6.084-2.115 1.607-4.147 3.351-5.96 5.301-.371.358-.687.797-1.113 1.085-.48-.782-.906-1.593-1.373-2.39-3.956-7.031-8.735-13.623-14.352-19.433-4.628-4.78-9.806-9.023-15.437-12.58-6.853-4.34-14.31-7.636-22.084-9.902-7.183-2.088-14.586-3.31-22.043-3.777-1.195-.096-2.376-.082-3.57-.165-1.882-.041-3.75-.027-5.632-.013-.92.027-1.826.096-2.747.11-3.31.192-6.606.48-9.888 1.002-2.321.343-4.628.961-6.936 1.47a2.84 2.84 0 0 1-.48.04c.192-.549.535-.947.851-1.455 1.483-2.335 2.884-4.642 4.546-6.853 4.271-5.796 9.669-10.974 15.945-14.545.714-.412 1.456-.755 2.156-1.18-.206-.248-.48-.344-.769-.481-2.307-1.085-4.807-1.896-7.237-2.637-6.991-2.06-14.16-3.599-21.302-5.054a505.486 505.486 0 0 0-11.92-2.239 2.93 2.93 0 0 1-.674-.206c.357-.014.728-.014 1.085-.014h48.48c.207 0 .4-.013.605-.027-.15-.275-.563-.371-.838-.508-6.949-2.857-14.365-4.986-21.7-6.799-10.492-2.554-21.163-4.477-31.862-5.946-1.744-.248-3.502-.412-5.232-.687.15-.151.357-.11.563-.124z" fill="#BABBBF"/><path d="M27.88 53.068c16.975 0 33.978-.028 50.953-.028.549.014 1.098-.04 1.648-.055 8.61 0 17.208 0 25.82-.013 5.081-.11 10.176.068 15.244.425 7.609.577 15.423 1.594 22.785 3.654 2.5.618 4.944 1.442 7.347 2.362 7.32 2.83 14.256 6.716 20.436 11.536 6.702 5.22 12.47 11.564 16.88 18.83 4.16 6.825 7.031 14.338 8.707 22.152.123.522-.083 1.113-.193 1.635-1.002 4.243-2.554 8.35-4.56 12.223-2.224 4.271-5.08 8.281-8.57 11.619-3.886 3.763-8.638 6.688-13.774 8.405a50.5 50.5 0 0 0 2.705-9.586c.398-2.445.632-4.848.453-7.32-2.183-.852-4.546-1.346-6.88-1.594-4.917-.48-9.779.316-14.407 1.978-4.23 1.51-8.268 3.722-11.935 6.304-2.65 1.868-5.219 3.941-7.499 6.249-4.518-7.966-9.957-15.314-16.508-21.727-8.144-8.02-17.923-14.352-28.566-18.541-12.54-4.972-26.163-7.06-39.623-6.73-5.315.151-10.657.632-15.876 1.676 4.203-6.661 9.778-12.773 16.48-16.948 2.5-1.552 5.22-2.911 8.062-3.722a4.467 4.467 0 0 0-.576-.425c-3.297-2.157-7.087-3.681-10.836-4.848-3.599-1.127-7.307-1.964-11.015-2.624-1.717-.288-3.447-.563-5.191-.728.631-.027 1.277-.027 1.922-.027h37.631c.151 0 .302-.014.453-.027-.618-.426-1.277-.783-1.922-1.14-4.313-2.418-8.955-4.368-13.61-6.03-8.969-3.158-18.267-5.383-27.633-6.894l1.648-.041z" fill="#00483A"/><path d="M61.775 58.836c.604 0 1.209-.027 1.813-.027h45.047c8.035-.165 16.096.44 24.035 1.703 3.378.549 6.743 1.236 10.053 2.087 5.205 1.47 10.3 3.42 15.12 5.892 5.961 3.063 11.455 6.95 16.207 11.674 4.862 4.807 8.9 10.465 11.962 16.59.632 1.305.975 2.98.522 4.381-.398 1.195-1.373 2.02-2.513 2.5-.66.275-1.456.55-2.17.453-1.127-.11-2.102-.989-2.61-1.95.797-.082 1.51-.316 1.91-1.071-1.058-1.8-2.336-3.502-3.64-5.123a52.525 52.525 0 0 0-6.565-6.743c-5.96-5.15-12.937-8.941-20.367-11.51-5.563-1.922-11.345-3.144-17.182-3.859-4.738-.549-9.545-.81-14.31-.7 4.422 1.373 8.72 3.173 12.91 5.164a102.566 102.566 0 0 1 9.435 5.123c5.15 3.159 10.122 6.867 14.338 11.207 2.774 2.829 5.219 5.946 7.224 9.352-.385.509-.879.81-1.415 1.113-1.744.961-3.818 1.414-5.809 1.47-1.373.068-2.788-.138-4.134-.371.961.7 1.964 1.332 3.008 1.922 3.145 1.758 6.523 3.09 10.08 3.79.371.07.742.124 1.113.22-1.937 1.374-4.285 2.253-6.551 2.912-2.074.604-4.285 1.003-6.29 1.786a45.458 45.458 0 0 0-6.235-8.24c-3.626-3.778-7.856-6.909-12.457-9.395-4.464-2.39-9.257-4.257-14.201-5.328 6.331 3.872 11.4 9.888 14.668 16.508-4.752-3.956-9.998-7.224-15.547-9.957-5.658-2.802-11.591-5.082-17.634-6.922-2.115-.632-4.23-1.223-6.387-1.703 5.247 2.417 10.26 5.219 14.874 8.707 2.967 2.239 5.768 4.78 8.227 7.567 3.86 4.354 6.88 9.422 8.982 14.847-7.018-8.914-16.014-16.124-25.93-21.549-7.8-4.257-16.22-7.416-24.886-9.394-8.9-2.046-18.046-2.856-27.165-2.527 2.142-1.771 4.6-3.214 7.059-4.505 7.554-3.872 15.904-5.96 24.378-6.386 7.265-.37 14.613.508 21.644 2.335.206.055.399.082.605.124-1.113-.756-2.294-1.388-3.503-1.978-2.897-1.387-5.933-2.582-8.94-3.695-4.162-1.524-8.364-2.966-12.608-4.257.192-.014.398-.014.59-.028 5.975-.013 11.963.014 17.937-.013-.385-.385-.879-.673-1.319-.99-3.57-2.403-7.512-4.353-11.509-5.96-6.386-2.54-13.198-4.202-20.051-5.054-.604-.082-1.209-.082-1.813-.192z" fill="#FFF"/><path d="M158.064 87.787c1.304.577 2.568 1.264 3.804 1.95 3.062 1.745 6.07 3.763 8.68 6.153 1.785 1.62 3.35 3.461 4.532 5.562-.714.11-1.442.096-2.17.11-2.843.014-5.727-.412-8.186-1.923a31.393 31.393 0 0 0-6.66-11.852z" fill="#FFF"/><path d="M186.342 106.067c.947 2.225 1.552 4.518 2.142 6.853.11.522-.027 1.099-.069 1.62-.178 1.855-.521 3.681-1.153 5.426-1.195 3.378-3.379 6.44-5.92 8.94.33-1.703.165-3.433-.288-5.109-4.738-2.513-10.26-3.859-15.574-4.477-1.744-.178-3.53-.33-5.288-.33.014-.027.028-.04.028-.068 2.486-.989 5.04-1.8 7.595-2.61 1.922-.604 3.859-1.18 5.795-1.757 2.94-.893 5.85-2.047 8.35-3.887a15.736 15.736 0 0 0 4.052-4.313c.096-.068.192-.384.33-.288z" fill="#BABBBF"/><path d="M185.97 110.929c.248.233.275.686.372 1.002.137.783.398 1.69.206 2.472-.234 1.03-.563 2.088-1.113 2.994-.233-.37-.48-.81-.824-1.085-.522-.357-1.181-.398-1.785-.494.398-.357.906-.563 1.29-.948 1.14-1.002 1.745-2.417 1.855-3.941z" fill="#FFF"/></g></svg>