<svg width="200" height="201" fill="none" xmlns="http://www.w3.org/2000/svg"><g clip-path="url(#a)"><path d="M191.938 136.255h-1.237v-.876h3.529v.876h-1.249v3.722h-1.031v-3.722h-.012ZM198.931 138.213a41.45 41.45 0 0 1-.039-1.88 28.432 28.432 0 0 1-.515 1.777l-.566 1.79h-.812l-.489-1.764a21.41 21.41 0 0 1-.412-1.791h-.013c-.026.619-.052 1.327-.077 1.907l-.091 1.738h-.966l.297-4.585h1.378l.45 1.546c.155.528.284 1.094.387 1.635h.026c.128-.528.283-1.133.437-1.648l.477-1.533h1.365l.245 4.585h-1.005l-.077-1.764v-.013Z" fill="#00483A"/><path d="M165.394 148.529c4.984-11.604 4.636-18.404 4.636-18.404v-.039c-18.559-5.602-35.997 12.3-36.177 12.493l-1.996 2.099-1.417-2.524C98.203 84.971 35.16 98.7 34.529 98.841l-5.062 1.16 2.782-4.392c7.238-11.437 15.39-16.859 20.465-19.306C44.008 71.46 10.87 65.897 10.87 65.897h50.113C38.869 56.353 2.138 52.103 0 52.077L108.674 52c9.866.077 22.165.348 35.07 4.018.438.103 44.381 10.317 53.899 55.741l.077.387s-3 27.934-32.339 36.37l.013.013Z" fill="#BABCBE"/><path d="M163.256 99.769c4.237 2.73 10.149 1.674 10.123 1.867-4.186-7.895-16.653-13.446-16.653-13.446s4.418 4.444 6.517 11.579h.013ZM183.437 117.323c.992-1.636 1.25-3.658 1.25-3.658s-.194-1.932-.734-3.284c0 0 .502 3.413-3.207 5.281 0 0 1.262.025 1.957.489 0 0 .734.747.734 1.159v.013Z" fill="#fff"/><path d="M27.858 54.215s25.784 3.62 42.372 13.82H31s17.593 1.738 27.072 8.474c0 0-13.11 2.975-24.032 20.246 0 0 64.82-14.966 98.255 44.356 0 0 19.151-20.169 39.796-12.673 0 0 .863 6.426-3.052 16.588 22.345-7.663 26.518-32.816 26.518-32.816-9.338-44.613-52.264-54.105-52.264-54.105-12.789-3.632-29.261-4.16-37.143-3.967l-78.292.077Zm91.648 39.925s8.732 4.585 14.424 16.164c-15.79-13.369-38.792-18.237-38.792-18.237 20.066 9.118 27.652 20.722 31.503 30.498-14.425-18.636-42.154-34.053-76.129-32.765 0 0 19.59-17.039 52.547-8.19-5.203-3.877-24.573-9.828-24.573-9.828h18.21C95.165 70.61 83.419 61.93 62.58 59.805c0 0 28.514.013 47.189 0 0 0 15.751-.477 31.953 3.722 19.744 5.615 33.872 16.794 42.231 33.267 0 0 3.052 5.576-2.834 7.225-2.46.695-3.696-1.803-3.696-1.803 1.108-.09 1.649-.528 1.867-1.108-6.285-10.084-22.783-27.883-60.853-27.317-.142-.18 30.922 9.26 43.055 30.189.128.348-4.006 3.722-11.128 2.151 0 0 5.834 4.559 13.961 5.847-4.482 3.014-9.312 3.284-12.57 4.598-11.05-18.816-32.262-22.487-32.262-22.487l.013.052Z" fill="#00483A"/><path d="M141.748 63.553c-16.202-4.199-31.954-3.722-31.954-3.722-18.674.025-47.189 0-47.189 0 20.826 2.125 32.584 10.805 34.117 11.977h-18.21s19.37 5.95 24.572 9.827c-32.957-8.848-52.546 8.191-52.546 8.191 33.975-1.3 61.691 14.128 76.128 32.765-3.838-9.776-11.437-21.393-31.502-30.498 0 0 23.002 4.868 38.792 18.237-5.68-11.579-14.425-16.164-14.425-16.164s21.212 3.67 32.262 22.487c3.272-1.326 8.101-1.597 12.57-4.598-8.126-1.288-13.961-5.847-13.961-5.847 7.123 1.572 11.257-1.803 11.128-2.151-12.132-20.928-43.197-30.368-43.055-30.188 38.071-.58 54.569 17.22 60.854 27.316-.219.58-.76 1.018-1.868 1.108 0 0 1.25 2.499 3.697 1.803 5.885-1.648 2.833-7.225 2.833-7.225-8.358-16.485-22.487-27.664-42.231-33.267l-.012-.051Z" fill="#fff"/><path d="M163.256 99.769c4.237 2.73 10.149 1.674 10.123 1.867-4.186-7.895-16.653-13.446-16.653-13.446s4.418 4.444 6.517 11.579h.013ZM183.437 117.323c.992-1.636 1.25-3.658 1.25-3.658s-.194-1.932-.734-3.284c0 0 .502 3.413-3.207 5.281 0 0 1.262.025 1.957.489 0 0 .734.747.734 1.159v.013Z" fill="#fff"/><path d="M186.567 113.124c-.85-3.271-1.03-4.134-2.215-7.135-2.846 4.753-7.406 7.019-13.111 8.668-9.801 2.911-12.48 4.121-12.48 4.121s11.205-.219 20.478 4.675c.335 1.198.67 3.066.283 5.01 6.981-6.98 6.659-13.098 7.045-15.339Zm-2.602-2.743c.528 1.339.735 3.284.735 3.284s-.258 2.022-1.25 3.658c0-.425-.734-1.159-.734-1.159-.695-.464-1.957-.49-1.957-.49 3.709-1.867 3.206-5.28 3.206-5.28v-.013Z" fill="#BABCBE"/></g><defs><clipPath id="a"><path fill="#fff" transform="translate(0 52)" d="M0 0h200v96.529H0z"/></clipPath></defs></svg>