<?xml version="1.0" encoding="UTF-8"?>
<svg width="200px" height="200px" viewBox="0 0 200 200" version="1.1" xmlns="http://www.w3.org/2000/svg" xmlns:xlink="http://www.w3.org/1999/xlink">
    <!-- Generator: Sketch 51.3 (57544) - http://www.bohemiancoding.com/sketch -->
    <title>wake-forest</title>
    <desc>Created with Sketch.</desc>
    <defs></defs>
    <g id="wake-forest" stroke="none" stroke-width="1" fill="none" fill-rule="evenodd">
        <g id="wake-forest_BGL" transform="translate(0.000000, 30.845771)">
            <g id="wake-forest">
                <g id="g10" transform="translate(99.999998, 69.882950) scale(-1, 1) rotate(-180.000000) translate(-99.999998, -69.882950) translate(0.000000, 0.460129)" fill-rule="nonzero">
                    <g id="g12">
                        <path d="M160.94715,82.5461549 L159.702435,76.1712026 C158.195931,68.4919893 152.523573,64.5512756 148.434956,63.839288 C148.423574,68.5960428 148.374793,87.2459184 148.374793,87.2459184 C148.374793,90.6815407 149.21463,90.6815407 150.747151,90.6815407 L158.541459,90.6815407 C161.060159,90.6815407 166.195118,89.1074186 172.407313,84.6853464 C173.437394,83.9677082 174.313004,83.2581424 175.149589,82.5461549 C174.370727,82.5461549 160.94715,82.5461549 160.94715,82.5461549 Z M98.2617862,116.268693 C98.2788593,116.321971 94.0625993,101.371848 91.1089408,90.8696281 C88.0853637,101.756902 83.3341443,118.855097 83.3341443,118.855097 C83.3341443,118.855097 83.2991849,118.960039 83.2853638,119.006051 C83.2829247,119.013317 83.2154451,119.756786 83.2154451,119.756786 L83.1918678,120.031249 C83.1918678,120.063538 83.1918678,120.093406 83.1918678,120.126503 C83.1918678,120.695609 83.5560955,121.165424 83.913819,121.242112 C84.2861768,121.301041 85.9715426,121.380958 87.2869897,121.401946 C87.2869897,121.401946 87.5300791,121.407597 87.5861767,121.410018 C88.3569084,121.343824 93.2861765,120.907106 93.2861765,120.907106 C94.8699163,120.740007 98.442274,119.268405 98.8121927,118.315859 C98.7934935,118.227063 98.2617862,116.268693 98.2617862,116.268693 Z M50.1244703,88.5027943 C49.4000801,90.7929401 48.5585354,93.4721766 48.5585354,93.4721766 C44.6334948,105.909356 40.5995925,118.731589 40.1057714,120.506714 C40.7167469,120.653632 41.6821941,120.793285 43.479755,120.844142 C44.9869907,120.878853 49.7347955,119.77051 50.5904052,117.435158 C50.6955272,117.050104 54.0777222,103.590956 54.4404051,102.178283 C54.2429255,101.548634 52.0147141,94.4973741 50.1244703,88.5027943 Z M118.402436,110.055351 C119.345525,113.110762 120.451217,116.672314 120.451217,116.672314 C121.365851,119.538024 121.864225,119.865764 122.485363,120.271807 L122.927639,120.563221 C123.439834,120.923251 125.404062,121.782157 126.905688,122.362564 L128.760972,123.075359 L128.872355,138.702758 L125.930078,138.702758 L0,138.702758 L0,120.684308 C0,120.684308 5.24771532,120.684308 6.52915431,120.684308 C6.84514617,120.179781 7.39265835,119.203826 8.17642256,117.17119 C8.17642256,117.168768 8.21422744,117.073514 8.2504063,116.981488 C8.32536565,116.740123 34.4470723,27.6480417 34.4470723,27.6480417 L50.2905678,27.6480417 C50.2905678,27.6480417 59.6144701,57.7622888 63.4051204,69.9986259 C67.0128439,57.7442873 75.8476404,27.7432963 75.8476404,27.7432963 L78.0291037,27.7505615 L91.8975587,27.7505615 C91.8975587,27.7505615 110.107314,84.3785944 111.834957,89.7451399 C112.169916,89.1001535 112.417883,88.0321722 112.417883,86.1617922 C112.417883,86.1617922 112.417883,20.0647288 112.417883,18.326898 C108.89268,18.326898 98.1308919,18.326898 98.1308919,18.326898 L97.9812984,0 L163.945524,0 L163.945524,18.326898 C163.945524,18.326898 151.283736,18.326898 148.563411,18.326898 C148.561785,20.6442479 148.500809,41.0766754 148.481297,45.842552 C152.270728,44.7713418 158.942272,39.7825049 159.583736,32.6658586 L160.235768,25.4823727 L176.512191,25.4823727 C176.512191,25.4823727 176.512191,80.4792115 176.512191,81.2908934 C182.174792,75.8438659 182.820321,70.8074018 183.119508,68.1555308 L183.978044,60.7532015 L199.838206,60.7736247 L199.838206,110.055351 C199.838206,110.055351 125.569916,110.055351 118.402436,110.055351 Z" id="path14" fill="#FFFFFF"></path>
                        <path d="M50.1244703,78.7874742 C44.9275599,95.3062307 37.8366657,117.678945 37.2582918,119.859306 C36.6676414,122.031595 37.8480478,122.662051 37.8366657,122.757305 C38.7420316,123.219855 39.8752023,123.644464 43.4047957,123.738912 C45.2886981,123.793804 51.8962589,122.602315 53.3756084,118.348149 C53.4644702,117.975203 56.8864213,104.385283 57.4653644,102.093522 C56.9940636,100.578329 53.5930881,89.7911527 50.1244703,78.7874742 Z M114.449591,107.15493 L117.653656,117.523148 C119.043899,121.866917 120.095119,122.142994 121.248777,122.939742 C122.397558,123.738912 125.847964,125.069247 125.847964,125.069247 L125.930078,135.803952 L89.4121929,135.803952 L89.4121929,124.15787 C89.4121929,124.15787 91.9821115,123.955253 93.5853635,123.788961 C95.1910545,123.621054 102.587802,121.569045 101.674794,117.678945 C101.523575,117.064634 101.340648,116.535891 101.099184,115.5672 C101.010567,115.258026 94.0211359,91.3039244 90.7463392,79.6776201 C87.413819,91.6663761 80.5179655,118.067229 80.5179655,118.067229 L80.4909736,118.160062 C80.3436565,118.612924 80.3226809,119.222392 80.284876,119.826209 C80.1339817,121.845929 81.4650386,123.672718 83.2878028,124.074724 C84.0495914,124.241824 87.2284531,124.299945 87.2284531,124.299945 L87.2284531,135.803952 L2.91984546,135.803952 L2.91984546,123.579885 L7.61052013,123.579885 C8.14878028,123.579885 9.27463391,122.410191 10.909268,118.21334 C10.909268,118.21334 10.9622761,118.066422 11.0181298,117.917889 C11.1410566,117.49893 36.6428446,30.5531446 36.6428446,30.5531446 L48.1291045,30.5531446 C48.1291045,30.5531446 58.0297546,62.3998139 63.4705675,80.0910088 C68.6467463,62.3991681 78.0291037,30.6487221 78.0291037,30.6487221 L89.7682904,30.6487221 L110.002436,93.5795398 L110.047152,93.5795398 C111.495932,93.5795398 115.336582,93.5795398 115.336582,86.1617922 L115.336582,17.4348148 C115.336582,16.4589398 115.226826,15.8219451 115.123574,15.4265579 C113.089428,15.4265579 101.026014,15.4265579 101.026014,15.4265579 L100.92764,2.90291522 L161.025199,2.90291522 L161.025199,15.4265579 L146.778045,15.4265579 C146.089427,15.4265579 145.832517,15.5377958 145.773167,15.5668566 C145.714631,15.6847946 145.647151,15.9590955 145.647151,16.2788441 C145.647151,16.2861093 145.584549,38.749235 145.558533,48.9731176 C146.136582,48.9731176 147.145525,48.9731176 147.145525,48.9731176 C152.025199,48.9731176 161.638207,42.3543782 162.492679,32.9194133 L162.908126,28.3786766 L173.593492,28.3786766 L173.593492,79.6435545 L163.357719,79.6435545 L162.565037,75.6121067 C160.552029,65.3875784 152.339021,60.7869442 147.145525,60.7869442 C147.145525,60.7869442 146.129265,60.7869442 145.521135,60.7869442 C145.5065,67.8369931 145.447964,87.2370387 145.447964,87.2370387 C145.447964,91.676063 147.035769,93.5795398 150.747151,93.5795398 L158.541459,93.5795398 C161.628451,93.5795398 167.348776,91.8584997 174.111378,87.0408789 C184.757719,79.6357242 185.645524,71.8227509 186.029264,68.4818988 L186.57967,63.656367 L196.919507,63.6737227 L196.919507,107.15493 L114.449591,107.15493 Z" id="path16" fill="#100F0D"></path>
                        <path d="M112.851217,102.498758 L111.566664,98.48515 C118.819509,97.6577269 120.361786,90.8744716 120.361786,86.1617922 L120.361786,17.4348148 C120.361786,13.9368733 119.332517,10.4392548 115.690241,10.4392548 C115.690241,10.4392548 109.20894,10.3762092 105.956095,10.4392548 L105.956095,7.56159008 L156.004061,7.56159008 L156.004061,10.4392548 L146.778045,10.4392548 C141.176419,10.4392548 140.619509,14.6965689 140.619509,16.2788441 L140.516257,53.9625196 L147.145525,53.9625196 C154.939021,53.9625196 166.424386,45.1661639 167.500809,33.3721954 L168.565849,33.3721954 L168.565849,74.6550405 L167.500809,74.6550405 C165.065037,62.2800192 154.939021,55.7981074 147.145525,55.7981074 L140.512192,55.7981074 L140.418696,87.2257373 C140.418696,96.4121523 146.270728,98.571525 150.747151,98.571525 L158.541459,98.571525 C162.829264,98.571525 169.439833,96.5057924 177.040646,91.0932342 C189.966662,82.1110514 190.670727,71.9489228 191.058532,68.6622367 L192.229263,68.6622367 L192.229263,102.498758 L112.851217,102.498758" id="path18" fill="#94762A"></path>
                        <path d="M112.850404,102.229946 L112.850404,102.499565 L112.850404,102.229946 Z M106.226014,7.83119279 L155.732516,7.83119279 L155.732516,10.1702817 L146.778045,10.1702817 C143.908939,10.1630165 142.252029,11.2812083 141.370728,12.6179205 C140.486988,13.9523724 140.34959,15.4586861 140.347964,16.2798128 L140.244712,54.2327842 L147.144712,54.2327842 C155.062598,54.2119574 166.496744,45.4735617 167.745524,33.642783 L168.293492,33.642783 L168.293492,74.3870361 L167.721947,74.3870361 C165.18211,62.027756 155.034142,55.5326054 147.144712,55.5294572 L140.239834,55.5294572 L140.146338,87.2265446 C140.143086,91.8730301 141.636582,94.8073551 143.730078,96.5493835 C145.820322,98.2938337 148.467476,98.8411438 150.747151,98.8411438 L158.539833,98.8411438 C162.913004,98.8379148 169.560158,96.7479651 177.195931,91.3136113 C189.905686,82.4952986 190.906499,72.4540949 191.299995,68.9328242 L191.956093,68.9328242 L191.956093,102.229946 L113.048778,102.229946 L111.923574,98.7111778 C119.106501,97.6875949 120.645525,90.8333022 120.631704,86.1617922 L120.631704,17.4348148 C120.628452,13.9239574 119.573981,10.185135 115.69268,10.1702817 C115.69268,10.1702817 112.809753,10.1438042 109.924387,10.1438042 C108.599184,10.1438042 107.273981,10.1510693 106.226014,10.1655997 L106.226014,7.83119279 Z M105.683737,7.29260894 L105.683737,10.7145243 L105.96016,10.7088736 C107.039835,10.6896613 108.481298,10.6823961 109.924387,10.6823961 C112.806501,10.6823961 115.681298,10.7088736 115.690241,10.7088736 C117.418696,10.7177533 118.465851,11.5088505 119.152843,12.7544251 C119.831704,14.0008876 120.09268,15.7122409 120.090241,17.4348148 L120.090241,86.1617922 C120.077233,90.8470253 118.57642,97.4236267 111.534957,98.2179529 L111.206501,98.2567005 L112.591054,102.580289 L112.65203,102.769184 L192.499995,102.769184 L192.499995,68.3935865 L190.815442,68.3935865 L190.788613,68.632288 C190.392678,71.9189742 189.726012,81.9342654 176.882109,90.8744716 C169.316256,96.2636198 162.743898,98.3059423 158.539833,98.3027133 L150.747151,98.3027133 C146.345525,98.2671947 140.71707,96.2716922 140.688614,87.228159 L140.781297,56.0677262 L147.144712,56.0677262 C154.796744,56.064578 164.827638,62.4590655 167.234142,74.7071076 L167.276419,74.9262739 L168.835768,74.9262739 L168.835768,33.1041911 L167.250402,33.1041911 L167.229264,33.3478975 C166.191866,44.9819512 154.759346,53.7163107 147.144712,53.6945152 L140.786988,53.6945152 L140.89024,16.2798128 C140.922761,14.72902 141.365037,10.7227582 146.778045,10.7088736 L156.274793,10.7088736 L156.274793,7.29260894 L105.683737,7.29260894 Z" id="path20" fill="#94762A"></path>
                        <path d="M94.437396,131.478749 L94.437396,128.076224 C97.3113797,127.558781 101.469103,126.07507 103.904875,123.907625 C106.713818,121.682059 106.9439,118.882543 106.180485,115.617249 L90.1406482,62.0853931 L75.6999168,116.64729 C74.9136567,119.09727 75.0282908,123.886637 77.2725997,125.782849 C78.4664208,126.547307 80.0031687,127.483708 82.5439004,128.053621 L82.5439004,131.478749 L48.5518687,131.478749 L48.5518687,127.700049 C52.1891044,127.142244 56.4780474,125.394565 58.1961774,119.765666 L62.6873968,101.940953 L50.1244703,62.0633554 L31.8327634,120.209649 C31.1610561,122.775872 32.1560968,124.860171 33.4079666,125.782849 C34.5573162,126.630453 36.4789422,127.384417 38.9812185,127.779158 L38.9812185,131.478749 L7.61052013,131.478749 L7.61052013,128.025367 C12.8731704,128.025367 15.004146,121.449573 15.7834955,119.517843 L40.4204868,35.2102857 L44.4204054,35.2102857 L63.5943887,97.5697375 L81.808941,35.30328 L86.0910548,35.30328 L112.867477,119.033498 C115.493493,127.252029 119.777233,127.930113 121.24146,127.930113 L121.24146,131.478749 L94.437396,131.478749" id="path22" fill="#94762A"></path>
                        <path d="M94.437396,131.209937 L94.437396,131.478749 L94.437396,131.209937 Z M16.0429264,119.592916 L40.6250396,35.4807925 L44.2193485,35.4807925 L63.6004049,98.5142108 L82.0121931,35.5735446 L85.8926808,35.5735446 L112.607314,119.115029 C115.099997,126.972724 119.214631,128.110935 120.969103,128.194081 L120.969103,131.209937 L94.7081277,131.209937 L94.7081277,128.301444 C97.6105667,127.737182 101.642274,126.276074 104.073981,124.119123 C106.075607,122.53935 106.833331,120.616499 106.826014,118.503947 C106.826014,117.560281 106.679672,116.577867 106.439022,115.541368 L90.123575,61.0795695 L75.4401607,116.566566 C75.1527623,117.463412 74.9860144,118.637142 74.9860144,119.874644 C74.9914615,122.151874 75.5364209,124.65836 77.1258517,126.008877 C78.2901606,126.756383 79.8173964,127.686326 82.2715427,128.266733 L82.2715427,131.209937 L48.8233321,131.209937 L48.8233321,127.930113 C52.4580475,127.335175 56.7434945,125.474482 58.4578034,119.83186 L62.9696732,101.932881 L50.12195,61.1599708 L31.5704057,120.141841 C31.4139017,120.735164 31.3433325,121.30427 31.3433325,121.844315 C31.3449586,123.72761 32.1944707,125.224237 33.2456902,125.99919 C34.4118691,126.858095 36.2865032,127.598336 38.7090234,128.008415 L38.7109746,131.209937 L7.88173151,131.209937 L7.88173151,128.288528 C13.2095119,128.03344 15.2655281,121.480248 16.0429264,119.592916 Z M40.215934,34.9416355 L15.5316256,119.416938 C14.7544712,121.388223 12.6047964,127.796918 7.61083721,127.756556 L7.33803234,127.756556 L7.33803234,131.748368 L39.252438,131.748368 L39.252438,127.549094 L39.0234137,127.512769 C36.5542267,127.125292 34.6652837,126.376979 33.5683731,125.567315 C32.6705683,124.908606 31.8848773,123.564547 31.886422,121.844315 C31.886422,121.351897 31.9502431,120.82719 32.0916252,120.290374 L50.123576,62.9683545 L62.4043887,101.949026 L57.9351205,119.688171 C56.2458523,125.195984 52.1030068,126.872626 48.5105679,127.434466 L48.2799988,127.470792 L48.2799988,131.748368 L82.8146321,131.748368 L82.8146321,127.838087 L82.602437,127.792074 C80.101624,127.228619 78.6077216,126.316436 77.4485346,125.578616 C76.0962583,124.452514 75.5227623,122.069535 75.527803,119.874644 C75.527803,118.687998 75.691055,117.555437 75.9619493,116.715098 L90.1569083,63.0856468 L105.914631,115.677792 C106.146339,116.673929 106.28455,117.616788 106.28455,118.503947 C106.278046,120.494606 105.617071,122.197887 103.723575,123.705815 C101.356095,125.820789 97.2195098,127.305307 94.3886155,127.811448 L94.1650383,127.852617 L94.1650383,131.478749 L94.1650383,131.748368 L121.512192,131.748368 L121.512192,127.661301 L121.24146,127.661301 C119.869103,127.642735 115.746339,127.090581 113.126013,118.952773 L86.2894287,35.0333382 L81.605689,35.0333382 L63.5867464,96.6268787 L44.6214623,34.9416355 L40.215934,34.9416355 Z" id="path24" fill="#94762A"></path>
                    </g>
                </g>
            </g>
        </g>
    </g>
</svg>