<svg width="200" height="200" xmlns="http://www.w3.org/2000/svg" xmlns:xlink="http://www.w3.org/1999/xlink"><defs><path id="a" d="M0 1.618h199.235v137.126H0z"/></defs><g fill="none" fill-rule="evenodd"><g transform="translate(0 31)"><mask id="b" fill="#fff"><use xlink:href="#a"/></mask><path d="M194.261 29.549h-14.808s-27.114 103.09-27.44 104.324h-36.172L99.428 68.228s-16.947 64.422-17.266 65.645H45.987c-.311-1.253-26.081-104.324-26.081-104.324H4.974V6.592h67.393v22.957h-16.8l16.59 67.046 24.18-90.003h23.318c.312 1.25 22.355 89.998 22.355 89.998L160.02 29.55h-16.133V6.592h50.373v22.957Zm-55.345-27.93V34.52h14.624c-1.922 7.148-6.796 25.296-11.34 42.203L123.544 1.618H92.526S78.648 53.274 72.354 76.693c-4.197-16.967-8.691-35.128-10.435-42.172h15.42V1.618H0v32.903h16.026l26.078 104.32 43.89.002 13.312-50.602 12.653 50.6 43.887.002s25.63-97.423 27.443-104.322h15.946V1.618h-60.32Z" fill="#E4CF9B" mask="url(#b)"/></g><path d="M143.888 37.592v22.957h16.133L142.01 127.59s-22.043-88.749-22.355-89.998H96.337l-24.18 90.003-16.59-67.046h16.8V37.592H4.974v22.957h14.932s25.77 103.07 26.08 104.324h36.176c.319-1.223 17.266-65.645 17.266-65.645l16.413 65.645h36.172l27.44-104.324h14.808V37.592h-50.373" fill="#33006F"/></g></svg>