<svg width="200" height="200" xmlns="http://www.w3.org/2000/svg"><g fill-rule="nonzero" fill="#A80C30"><path d="M119.375 199.505s9.912-4.307 15.327-21.018c4.774 10.183 3.528 20.64 3.528 20.64-4.378 1.022-18.855.378-18.855.378M172.542 103.98s6.045 33.562-15.332 34.717c-20.629 1.099-30.357-30.57-30.357-30.57s4.974 61.886 33.892 57.81c32.59-4.595 11.797-61.957 11.797-61.957M15.46 191.508h.042c24.12-5.6 42.575-34.32 48.013-45.851l3.438-7.291 2.079 7.82c.108.424 2.346 9.044 2.346 20.418a80.25 80.25 0 0 1-.1 3.873c8.325.313 14.262-1.41 17.952-5.32 5.29-5.607 6.895-16.196 4.906-32.38-.953-7.748-3.762-20.076-6.247-30.95-1.269-5.554-2.469-10.818-3.195-14.536-4.65-23.792 1.116-38.555 6.78-46.746a39.604 39.604 0 0 1 2.878-3.666C77.673 42.6 63.683 51.525 49.242 66.233L59.4 78.255l4.148-3.965c3.918 14.928 1.099 28.681 1.099 28.681-5.333-8.31-11.651-15.054-11.651-15.054l2.775-4.722-9.153-10.848-1.072-1.208C34.301 86.91 30.65 99.822 30.65 99.822l7.987 7.436 4.663 4.309 1.55-4.58c8.577 16.393.738 31.73.738 31.73-1.407-5.597-7.062-13.862-7.062-13.862l2.232-7.502L28.88 106.37C16.525 145.772 0 158.527 0 158.527s17.88-3.293 27.823-6.706c0 0-.273 20.764-12.364 39.687"/><path d="M113.088 62.504c5.76-4.118 15.54-7.282 24.71-6.563 2.339.185 4.307-.45 1.8-1.792-6.87-3.697-22.886-2.457-28.548 1.498-9.071 6.308-7.547 17.549-7.317 17.854 1.805-3.245 4.874-7.785 9.355-10.997Zm82.658-13.076-28.536 1.217c.02 3.43-.423 6.914-1.514 10.187 2.662 11.882.825 18.353.825 18.353-4.774-11.354-8.433-14.496-8.433-14.496-26.196-11.893-40.91 14.984-39.343 32.296 1.284 14.26 6.348 33.148 10.306 62.792 3.326 24.934-9.045 35.734-23.3 38.201-.31.056-.607.114-.927.16-.072.007-.154.021-.222.021-2.306.313-4.766.431-7.367.365-.091 0-.181 0-.264-.01l-.851-.042a49.56 49.56 0 0 1-3.28-.334c-11.08-1.565-35.893-6.15-61.519-6.797 15.075-8.975 26.867-24.514 33.448-35.52.38 3.047.702 6.77.702 10.86 0 2.06-.082 4.2-.273 6.405l-.254 2.984 2.944.265c11.794 1.057 20.171-1.253 25.602-6.996 6.698-7.103 8.77-18.947 6.508-37.314-.995-8.047-3.848-20.534-6.357-31.566-1.258-5.503-2.449-10.718-3.154-14.335-4.236-21.7.821-34.865 5.814-42.11 3.914-5.665 9.31-9.8 15.226-11.783.103-.033.21-.051.312-.072l9.732-30.5h3.052l-6.546 29.306c1.53-.253 3.068-.515 4.64-.758l8.391-27.033h3.039l-5.496 26.187c8.679-1.158 18.135-2.033 28.591-2.832 1.705.724 3.523 2.705 5.135 5.496l27.466-8.622 1.013 3.012-26.235 10.412c.209.537.406 1.104.593 1.688l28.689-3.639.479 3.15-27.854 5.68c.098.517.186 1.045.261 1.58l28.976.939-.02 3.203Z"/></g></svg>