<svg width="200" height="200" xmlns="http://www.w3.org/2000/svg"><g fill="none"><path d="M139.268 32.288v32.984h14.66c-1.922 7.165-6.815 25.357-11.367 42.309-5.844-23.516-18.704-75.297-18.704-75.297l-31.097.004-20.224 75.263c-4.204-17.012-8.71-35.217-10.458-42.279h15.456V32.288H0v32.984h16.066l26.146 104.58 43.998.004s8.3-31.547 13.345-50.73l12.69 50.727 43.992.003s25.698-97.67 27.515-104.584h15.99V32.288h-60.475z" fill="#E7D393"/><path d="M144.251 37.273v23.012h16.176L142.37 127.5s-22.101-88.973-22.414-90.226H96.58l-24.24 90.231-16.633-67.219H72.55V37.273H4.987v23.012h14.97s25.835 103.333 26.144 104.587h36.267c.32-1.224 17.312-65.807 17.312-65.807s16.143 64.56 16.453 65.807h36.264l27.51-104.587h14.846V37.273H144.25" fill="#34356D"/></g></svg>