<svg width="200" height="200" xmlns="http://www.w3.org/2000/svg"><g fill="#A80C30"><path d="M118.558 199.52s10.012-4.264 15.481-20.808c4.821 10.08 3.563 20.433 3.563 20.433-4.421 1.012-19.044.375-19.044.375m53.7-94.57s6.105 33.226-15.486 34.37c-20.835 1.088-30.66-30.264-30.66-30.264s5.023 61.267 34.23 57.231c32.916-4.548 11.916-61.337 11.916-61.337M13.604 191.603h.043c24.36-5.544 43.001-33.976 48.493-45.393l3.473-7.218 2.1 7.742c.108.42 2.369 8.954 2.369 20.214 0 1.233-.036 2.528-.101 3.834 8.408.31 14.404-1.395 18.13-5.266 5.344-5.551 6.965-16.034 4.957-32.057-.963-7.67-3.8-19.875-6.31-30.64-1.281-5.5-2.494-10.71-3.227-14.39-4.697-23.555 1.127-38.17 6.848-46.28a39.332 39.332 0 0 1 2.906-3.629c-16.845 5.664-30.975 14.5-45.56 29.061l10.26 11.902 4.188-3.926c3.958 14.779 1.11 28.394 1.11 28.394-5.385-8.227-11.768-14.903-11.768-14.903l2.804-4.675-9.245-10.74-1.082-1.195c-11.358 15.613-15.045 28.396-15.045 28.396l8.066 7.361 4.71 4.266 1.566-4.534c8.662 16.23.745 31.414.745 31.414-1.421-5.542-7.132-13.724-7.132-13.724l2.253-7.428-11.995-10.872c-12.48 39.008-29.17 51.635-29.17 51.635s18.059-3.26 28.101-6.64c0 0-.276 20.557-12.487 39.291"/><path d="M112.208 63.89c5.818-4.078 15.697-7.21 24.958-6.498 2.362.183 4.35-.447 1.818-1.775-6.94-3.66-23.114-2.432-28.834 1.484-9.162 6.244-7.622 17.373-7.39 17.675 1.824-3.213 4.923-7.707 9.448-10.887zm83.485-12.947l-28.821 1.206c.02 3.395-.428 6.845-1.53 10.085 2.69 11.763.834 18.169.834 18.169-4.821-11.24-8.517-14.351-8.517-14.351-26.458-11.774-41.318 14.834-39.737 31.973 1.298 14.117 6.412 32.817 10.41 62.164 3.358 24.685-9.136 35.377-23.533 37.82-.314.055-.613.112-.937.158-.073.007-.156.02-.225.02-2.328.31-4.813.428-7.44.361-.092 0-.183 0-.267-.01l-.86-.04a51.035 51.035 0 0 1-3.31-.331c-11.192-1.55-36.254-6.089-62.136-6.73 15.226-8.884 27.136-24.268 33.782-35.164.385 3.016.71 6.702.71 10.751 0 2.039-.083 4.158-.276 6.34l-.256 2.956 2.973.261c11.912 1.047 20.373-1.24 25.858-6.926 6.765-7.032 8.857-18.757 6.573-36.94-1.005-7.966-3.887-20.33-6.42-31.25-1.272-5.448-2.474-10.611-3.186-14.192-4.279-21.483.83-34.517 5.872-41.69 3.953-5.607 9.403-9.701 15.378-11.664.104-.033.212-.051.316-.072l9.828-30.194h3.083l-6.612 29.012c1.546-.25 3.1-.51 4.688-.75l8.474-26.762h3.07l-5.552 25.924c8.766-1.146 18.316-2.012 28.878-2.803 1.722.716 3.558 2.678 5.186 5.441l27.74-8.536 1.024 2.982-26.498 10.308c.21.532.41 1.092.6 1.671l28.975-3.602.483 3.118-28.132 5.623c.099.511.189 1.035.264 1.564l29.265.93-.019 3.17z"/></g></svg>