<?xml version="1.0" encoding="UTF-8"?>
<svg width="200px" height="200px" viewBox="0 0 200 200" version="1.1" xmlns="http://www.w3.org/2000/svg" xmlns:xlink="http://www.w3.org/1999/xlink">
    <!-- Generator: Sketch 51.3 (57544) - http://www.bohemiancoding.com/sketch -->
    <title>washington-st</title>
    <desc>Created with Sketch.</desc>
    <defs></defs>
    <g id="washington-st" stroke="none" stroke-width="1" fill="none" fill-rule="evenodd">
        <g id="washington-st_BGL" transform="translate(-3.000000, 2.000000)" fill="#A80C30">
            <g id="washington-st" transform="translate(0.989950, 0.010050)">
                <g id="g10" transform="translate(100.502510, 98.968528) scale(-1, 1) rotate(-180.000000) translate(-100.502510, -98.968528) translate(0.000000, 0.229220)" fill-rule="nonzero">
                    <g id="g12">
                        <path d="M120.568453,0.198360217 C120.568453,0.198360217 130.580267,4.46171196 136.049014,21.0055183 C140.870313,10.9249755 139.612445,0.573040627 139.612445,0.573040627 C135.190687,-0.439421659 120.568453,0.198360217 120.568453,0.198360217" id="path14"></path>
                        <path d="M174.267826,94.7678721 C174.267826,94.7678721 180.372736,61.5413896 158.781976,60.3977769 C137.947277,59.3098813 128.121305,90.6617274 128.121305,90.6617274 C128.121305,90.6617274 133.14502,29.3945157 162.35246,33.4305907 C195.267561,37.9790169 174.267826,94.7678721 174.267826,94.7678721" id="path16"></path>
                        <path d="M15.6139642,8.11485477 C15.6291277,8.11485477 15.6497924,8.11485477 15.6566689,8.11485477 C40.017631,13.6593138 58.6582018,42.0908038 64.1502232,53.5075364 L67.6230257,60.7257324 L69.7222939,52.984218 C69.8309072,52.5642233 72.0916847,44.030326 72.0916847,32.76939 C72.0916847,31.5365239 72.0557154,30.2416637 71.9908295,28.9358011 C80.3991869,28.6258655 86.395484,30.3311991 90.121835,34.2019916 C95.4650421,39.7531507 97.0864826,50.2360915 95.077843,66.2593654 C94.1151347,73.9292938 91.2774375,86.1338249 88.7676959,96.8988779 C87.4865534,102.397952 86.2741758,107.608919 85.541389,111.289779 C80.8442191,134.843689 86.6684277,149.45887 92.38896,157.568188 C93.2899562,158.846509 94.2653595,160.051834 95.2954221,161.197915 C78.4501435,155.533806 64.3198432,146.698401 49.7346369,132.136821 L59.9943563,120.235208 L64.1833714,124.161154 C68.1407018,109.381995 65.2934833,95.7665497 65.2934833,95.7665497 C59.9076067,103.994355 53.525521,110.669838 53.525521,110.669838 L56.3286594,115.345144 L47.0845444,126.084102 L46.0015857,127.279905 C34.6441673,111.667105 30.9566068,98.8838907 30.9566068,98.8838907 L39.0231851,91.5225226 L43.7330501,87.2566319 L45.2991261,91.7912346 C53.9610319,75.5613135 46.0442552,60.3773237 46.0442552,60.3773237 C44.6227618,65.9190674 38.9117508,74.1013823 38.9117508,74.1013823 L41.1651228,81.5286941 L29.1699896,92.4013025 C16.6897995,53.3932809 0,40.7659339 0,40.7659339 C0,40.7659339 18.0590316,44.0264469 28.1010308,47.4054471 C28.1010308,47.4054471 27.8255481,26.8488753 15.6139642,8.11485477" id="path18"></path>
                        <path d="M114.218458,135.828613 C120.035614,139.905842 129.914834,143.038346 139.175876,142.326365 C141.538214,142.142992 143.526048,142.772455 140.99409,144.100499 C134.05448,147.760553 117.87957,146.533012 112.160449,142.616941 C102.998499,136.372737 104.538479,125.24376 104.770164,124.942252 C106.593667,128.154453 109.693376,132.649208 114.218458,135.828613 Z M197.703248,148.774395 L168.881597,147.56907 C168.902403,144.173495 168.454549,140.72432 167.352548,137.48426 C170.041431,125.720529 168.18619,119.315169 168.18619,119.315169 C163.364891,130.555582 159.668867,133.66587 159.668867,133.66587 C133.211316,145.439474 118.350698,118.831699 119.93229,101.692671 C121.229654,87.5761241 126.34435,68.8763097 130.341882,39.5288714 C133.700429,14.8439739 121.20638,4.15177632 106.808778,1.70948069 C106.494575,1.65438063 106.195889,1.59652293 105.872165,1.55106758 C105.799169,1.54418051 105.716298,1.53040285 105.647533,1.53040285 C103.319401,1.22046722 100.834345,1.10338003 98.2075264,1.1695001 C98.1151346,1.1695001 98.0245061,1.1695001 97.940225,1.17914129 C97.6581127,1.19291542 97.3685949,1.20669308 97.0808404,1.22046722 C95.9717864,1.29622848 94.8673167,1.40367448 93.7691945,1.55106758 C82.5785045,3.10075634 57.5163523,7.63963659 31.6343111,8.28017259 C46.8599124,17.1650529 58.7696362,32.5489898 65.4162022,43.4449429 C65.8005802,40.4284571 66.1257146,36.743365 66.1257146,32.6936076 C66.1257146,30.654923 66.0428442,28.5363301 65.8499499,26.3529924 L65.5939329,23.3982538 L68.5666914,23.1365242 C80.4792363,22.0896054 88.9397844,24.3762667 94.4251056,30.0625929 C101.189806,37.0945949 103.282374,48.8198877 100.998322,67.0030839 C99.9929447,74.9692303 97.1111675,87.3320969 94.5777989,98.253017 C93.3065303,103.700958 92.1040266,108.863966 91.391693,112.445382 C87.1131072,133.927529 92.2211032,146.96147 97.2638607,154.134176 C101.217312,159.741863 106.666664,163.836018 112.642508,165.798815 C112.745832,165.831963 112.854445,165.849947 112.957768,165.870401 L122.786209,196.065234 L125.869344,196.065234 L119.257336,167.052451 C120.802607,167.303178 122.356693,167.562016 123.944985,167.803222 L132.419286,194.565101 L135.488315,194.565101 L129.93705,168.640743 C138.703338,169.786825 148.253545,170.653262 158.814772,171.443882 C160.536715,170.727669 162.372913,168.765931 164.001054,166.002641 L191.741157,174.539006 L192.764872,171.556727 L166.267121,161.249048 C166.478,160.717267 166.677594,160.156568 166.866257,159.577885 L195.842012,163.180107 L196.325482,160.061708 L168.19289,154.438504 C168.291982,153.927529 168.381553,153.40421 168.45737,152.87525 L197.722291,151.945337 L197.703248,148.774395 Z" id="path20"></path>
                    </g>
                </g>
            </g>
        </g>
    </g>
</svg>