<svg xmlns="http://www.w3.org/2000/svg" height="145.173" width="159.907" xml:space="preserve"><defs><clipPath id="a" clipPathUnits="userSpaceOnUse"><path d="M0 0h1199v1088.8H0Z"/></clipPath></defs><g clip-path="url(#a)" transform="matrix(.13333 0 0 -.13333 0 145.173)"><path style="fill:#fddf8f;fill-opacity:1;fill-rule:nonzero;stroke:none" d="M1196.11 978.031S898.367 1088.8 599.648 1088.8c-298.722 0-596.464-110.769-596.464-110.769S-79.636 409.207 599.648 0c679.282 409.207 596.462 978.031 596.462 978.031"/><path style="fill:#fbc32c;fill-opacity:1;fill-rule:nonzero;stroke:none" d="M599.648 1088.8c298.719 0 596.462-110.769 596.462-110.769S1278.93 409.207 599.648 0v1088.8"/><path style="fill:#457165;fill-opacity:1;fill-rule:nonzero;stroke:none" d="M599.648 111.445v892.105c-231.46 0-510.597-87.862-510.597-87.862s-15.73-487.18 510.597-804.243M1110.24 915.688s-279.138 87.862-510.592 87.862V111.445c526.332 317.063 510.592 804.243 510.592 804.243"/><path style="fill:#1b554a;fill-opacity:1;fill-rule:nonzero;stroke:none" d="M599.648 1003.55c231.454 0 510.592-87.862 510.592-87.862s15.74-487.18-510.592-804.243v892.105"/><path style="fill:#fff;fill-opacity:1;fill-rule:nonzero;stroke:none" d="m705.379 732.813-37.899-85.02 37.899-83.672c130.969 92.949 154.238 188.926 154.238 188.926l-74.961 85.023H995.41c0-144.894-94.23-314.906-319.824-496.625l-75.957 193.848-75.914-193.848C298.113 523.164 203.879 693.176 203.879 838.07h210.758l-74.961-85.023s23.277-95.977 154.234-188.926l37.906 83.672-37.906 85.02h211.469"/></g></svg>