<?xml version="1.0" encoding="UTF-8" standalone="no"?>
<svg
   xmlns:dc="http://purl.org/dc/elements/1.1/"
   xmlns:cc="http://creativecommons.org/ns#"
   xmlns:rdf="http://www.w3.org/1999/02/22-rdf-syntax-ns#"
   xmlns:svg="http://www.w3.org/2000/svg"
   xmlns="http://www.w3.org/2000/svg"
   viewBox="0 0 159.90668 145.17332"
   height="145.17332"
   width="159.90668"
   xml:space="preserve"
   id="svg2"
   version="1.1"><metadata
     id="metadata8"><rdf:RDF><cc:Work
         rdf:about=""><dc:format>image/svg+xml</dc:format><dc:type
           rdf:resource="http://purl.org/dc/dcmitype/StillImage" /></cc:Work></rdf:RDF></metadata><defs
     id="defs6"><clipPath
       id="clipPath20"
       clipPathUnits="userSpaceOnUse"><path
         id="path18"
         d="M 0,0 H 1199 V 1088.8 H 0 Z" /></clipPath></defs><g
     transform="matrix(1.3333333,0,0,-1.3333333,0,145.17333)"
     id="g10"><g
       transform="scale(0.1)"
       id="g12"><g
         id="g14"><g
           clip-path="url(#clipPath20)"
           id="g16"><path
             id="path22"
             style="fill:#fddf8f;fill-opacity:1;fill-rule:nonzero;stroke:none"
             d="m 1196.11,978.031 c 0,0 -297.743,110.769 -596.462,110.769 C 300.926,1088.8 3.18359,978.031 3.18359,978.031 3.18359,978.031 -79.6367,409.207 599.648,0 1278.93,409.207 1196.11,978.031 1196.11,978.031" /><path
             id="path24"
             style="fill:#fbc32c;fill-opacity:1;fill-rule:nonzero;stroke:none"
             d="m 599.648,1088.8 c 298.719,0 596.462,-110.769 596.462,-110.769 0,0 82.82,-568.824 -596.462,-978.031 v 1088.8" /><path
             id="path26"
             style="fill:#457165;fill-opacity:1;fill-rule:nonzero;stroke:none"
             d="m 599.648,111.445 v 892.105 c -231.46,0 -510.5972,-87.862 -510.5972,-87.862 0,0 -15.7305,-487.18 510.5972,-804.243" /><path
             id="path28"
             style="fill:#457165;fill-opacity:1;fill-rule:nonzero;stroke:none"
             d="m 1110.24,915.688 c 0,0 -279.138,87.862 -510.592,87.862 V 111.445 c 526.332,317.063 510.592,804.243 510.592,804.243" /><path
             id="path30"
             style="fill:#1b554a;fill-opacity:1;fill-rule:nonzero;stroke:none"
             d="m 599.648,1003.55 c 231.454,0 510.592,-87.862 510.592,-87.862 0,0 15.74,-487.18 -510.592,-804.243 v 892.105" /><path
             id="path32"
             style="fill:#ffffff;fill-opacity:1;fill-rule:nonzero;stroke:none"
             d="m 705.379,732.813 -37.899,-85.02 37.899,-83.672 C 836.348,657.07 859.617,753.047 859.617,753.047 L 784.656,838.07 H 995.41 c 0,-144.894 -94.23,-314.906 -319.824,-496.625 L 599.629,535.293 523.715,341.445 C 298.113,523.164 203.879,693.176 203.879,838.07 h 210.758 l -74.961,-85.023 c 0,0 23.277,-95.977 154.234,-188.926 l 37.906,83.672 -37.906,85.02 h 211.469" /></g></g></g></g></svg>