<svg width="200" height="200" xmlns="http://www.w3.org/2000/svg"><g fill="none" fill-rule="evenodd"><path d="M18.233 154.558c0-.318.026-.63.075-.933-2.04-1.007-3.723-2.797-4.586-5.25l-.268-.08c-.714-.23-1.908-.568-2.843-1.243-2.08-1.499-3.615-3.976-3.615-6.687 0-.094.108-.715.09-.814-2.019-1.585-3.46-3.552-3.886-6.236-.06-.375.017-1.444 0-1.807-1.627-1.085-2.183-3.234-2.53-5.423-.541-3.407.361-5.874 2.982-7.952.214-.17.873-.496 1.085-.633-.047-.211-1.356-4.79-1.356-4.79s1.075-.162 2.622-.447c-1.107-37.277 24.824-63.44 55.94-74.653 34.89-12.572 68.736-11.695 92.895-7.751 12.144 1.982 23.239 5.274 31.298 8.072 8.065 2.8 13.843 5.448 13.843 5.448l-4.25 3.917c-.012.01-.465.432-1.174 1.155a56.786 56.786 0 0 0-2.777 3.046c-2.158 2.55-4.43 5.725-5.461 8.66-2.002 5.693-3.028 9.591-3.776 13.436-.771 3.969-1.257 7.88-2.19 13.529-.884 5.345-2.73 12.394-2.73 12.394l-1.803.43a295.147 295.147 0 0 1-1.083 4.513c-.706 2.825-2.892 8.834-2.892 8.834l-1.799.663c-.375 1.002-.894 2.37-1.483 3.868-1.111 2.83-4.301 8.404-4.301 8.404l-2.18.454c-.883 1.639-2.304 4.178-3.606 6.1-1.523 2.248-3.219 4.347-4.537 5.884a64.707 64.707 0 0 1-2.273 2.529l-2.266 2.357-2.691-1.857c-.09-.063-19.727-13.595-32.858-18.757-4.544-1.787-9.424-3.568-13.95-4.896.145 3.748-.202 10.042-.929 14.797-1.15 7.526-4.14 15.687-4.14 15.687l-2.725 1.095c-.19.531-.372 1.05-.525 1.495-.614 1.78-3.409 8.163-3.409 8.163l-2.05.833a78.74 78.74 0 0 1-.802 1.61c-.644 1.262-1.331 2.56-1.533 2.973-1.435 2.937-4.12 7.376-4.12 7.376l-1.523.39c-.206.052-27.688 6.998-50.122-13.875a5.723 5.723 0 0 1-9.788-4.028Zm62.688-26.575c3.465-1.9 6.622-4.449 8.947-6.597 1.176-1.087 3.428-3.078 4.88-4.7-22.08-5.585-40.177-5.352-49.068-2.241l8.742 8.582 19.637 8a44.427 44.427 0 0 0 6.862-3.044Z" fill="#FFF" fill-rule="nonzero"/><path d="M82.186 131.96a40.476 40.476 0 0 1-7.95 3.292l-21.967-8.95-13.2-12.96c11.216-8.675 45.948-5.87 76.187 6.017 13.623 5.355 33.636 19.171 33.636 19.171s3.537-3.68 6.398-7.904c1.976-2.917 4.235-7.34 4.235-7.34l2.258-.47s2.164-3.764 3.2-6.399c1.175-2.991 2.07-5.457 2.07-5.457l1.787-.659s1.494-4.091 2.164-6.775c.781-3.123 1.6-6.775 1.6-6.775l1.6-.376s1.511-4.792 2.353-9.88c1.881-11.386 1.967-15.77 6.132-27.614 2.496-7.097 10.434-14.413 10.434-14.413s-62.316-27.644-129.915-3.243C32.914 52.16 8.57 77.335 9.864 112.664c.034.947.095 1.879.182 2.799-1.387.326-2.104.424-2.104.424s.058.808.744 2.294c.372.806.618 1.102.93 1.488l-.984.1s-.493.033-1.023.201a4.98 4.98 0 0 0-1.567.826c-1.356 1.067-2.086 2.816-1.744 4.97.31 1.956 1.161 3.38 2.349 4.264.157.118.314.22.468.31a5.537 5.537 0 0 0-.067 2.193c.31 1.955 1.161 3.38 2.349 4.264.534.398 1.062.63 1.5.763a5.742 5.742 0 0 0-.113 2.036c.231 2.023 1.178 3.436 2.357 4.286a5.302 5.302 0 0 0 1.483.75c.259.082.533.136.743.167.21.03.473.048.473.048l1.134-.09a6.07 6.07 0 0 0 .1 1.297c.419 2.284 1.773 3.684 3.332 4.298.684.27 1.313.352 1.757.372.58.025.952-.046.952-.046l2.43-.335c21.715 26.043 51.645 18.392 51.645 18.392s1.773-2.93 3.14-5.727c.412-.844 2.308-4.388 2.863-5.857l2.083-.846s2.079-4.734 2.668-6.443c.317-.92.758-2.148 1.126-3.166l2.648-1.064s2.72-8.547 3.482-13.582c.904-5.965 1.086-11.947 1.086-11.947s-6.412 7.64-14.1 11.856" fill="#231F20" fill-rule="nonzero"/><path d="M35.056 112.298c13.563-14.192 58.12-8.34 89.376 6.317 13.434 6.3 23.708 12.765 23.708 12.765s1.599-1.79 3.293-4.517c1.018-1.641 1.606-2.404 2.42-4.393-3.797-.813-6.485-1.106-13.196-3.343-12.47-4.157-17.984-10.393-17.984-10.393s6.326 3.795 19.973 7.32c7.052 1.821 12.567 2.52 15.182 2.711.893-1.499 2.513-6.497 2.892-7.23-1.793.06-4.425-.083-9.398-.813-6.779-.994-12.74-3.973-13.014-4.157.204.133 6.778 1.175 15.725 1.084 4.75-.048 6.823-.19 9.76-.632 2.447-6.116 2.711-8.766 2.711-8.766s-2.613.636-3.976.903c-4.157.814-8.857.542-8.857.542s12.833-4.338 16.177-7.23c3.434-9.218 2.81-11.485 5.422-25.485 1.266-6.778 5.965-17.623 10.89-20.995-9.819-4.78-66.996-21.557-123.743-.992-25.134 9.108-50.678 35.106-48.94 67.585.033.617.08 1.253.143 1.91.345-.105.704-.217 1.08-.338 4.409-1.415 7.315-4.091 7.315-4.091l13.04 2.238" fill="#E22739" fill-rule="nonzero"/><path d="M23.531 154.34v-.67h.572c.258 0 .599 0 .599.27 0 .335-.168.4-.463.4h-.708Zm1.003.398c.47-.032.72-.231.72-.72 0-.702-.418-.81-1.028-.81H22.94v2.649h.591v-1.12h.412l.591 1.12h.643l-.643-1.12Zm-.578 1.768c-1.113 0-1.942-.81-1.942-1.942 0-1.144.829-1.955 1.942-1.955 1.093 0 1.942.81 1.942 1.955 0 1.132-.85 1.942-1.942 1.942Zm0 .605a2.54 2.54 0 0 0 2.546-2.547 2.543 2.543 0 0 0-2.546-2.56 2.539 2.539 0 0 0-2.547 2.56 2.536 2.536 0 0 0 2.547 2.547Z" fill="#231F20"/><path d="M15.695 136.805s-2.224.082-1.954 2.453c.276 2.42 2.074 2.606 2.074 2.606s2.683-.222 4.442-.3c1.637-.073 2.452-1.354 2.499-2.232.15-2.825-3.167-2.835-3.786-2.809-.51.022-3.275.282-3.275.282M21.333 143.465s-1.715.21-1.332 2.3c.467 2.547 2.642 2.223 2.642 2.223l2.596-.359s2.107-.992 1.363-2.976c-.455-1.214-1.084-1.601-2.648-1.682-1.368-.071-2.621.494-2.621.494M11.941 129.613s-2.146.075-1.954 2.453c.217 2.695 2.06 2.702 2.06 2.702s3.567-.109 5.223-.26c1.7-.154 2.537-1.448 2.513-2.327-.072-2.74-3.377-2.92-3.726-2.828-.494.13-4.116.26-4.116.26M8.808 122.49s-1.946.205-1.571 2.562c.42 2.649 2.425 2.66 2.425 2.66s2.117-.145 3.927-.201c1.639-.051 2.644-1.433 2.69-2.31.15-2.826-3.366-2.845-3.725-2.829-.88.04-3.746.118-3.746.118M32.244 118.801l-9.361-2.294s-1.488 1.984-5.084 2.542c-3.968.616-5.394-1.612-5.394-1.612s1.818.025 5.022-1.364c3.018-1.307 5.068-2.956 5.068-2.956l13.903 2.77 14.135 13.267 18.142 7.776s-1.672.452-7.184.587c-3.66.09-5.604-.406-5.604-.406l-7.09-5.6c-3.844-.063-7.134-.624-9.733-2.48-4.34-3.1-6.076-6.014-6.82-10.23" fill="#FFF" fill-rule="nonzero"/><path d="M45.697 137.958a70.39 70.39 0 0 1-2.827-1.192c-2.177.19-4.042-.33-6.16-1.021-6.261-2.046-9.783-8.226-10.48-12.79l-3.471-1.178s-.454.912-1.893 1.5c-1.438.588-1.331.484-1.331.484s.605.993.558 1.984a2.578 2.578 0 0 1-.48 1.396c1.236.562 2.384 1.542 2.884 3.228.05.126.095.259.138.397.492 1.608.131 2.72-.264 3.374.98.432 2.09 1.223 2.758 2.472.22.323.408.706.543 1.16.29.97.239 1.718.118 2.223 1.6.417 2.86 1.396 3.599 3.366.042.113.08.226.115.338.238.775.281 1.497.197 2.153-.027 1.173-.485 2.27-1.518 3.02l-.07.069c4.632 5.374 10.899 9.378 10.899 9.378 12.484 9.377 31.947 7.031 34.68 6.12.911-1.431 2.473-4.555 3.515-6.117-4.013 1.02-8.269 1.759-15.684 1.301-7.488-.461-11.454-3.71-11.454-3.71s5.076 1.954 15.293 1.433c6.534-.333 11.324-1.367 15.228-2.668.781-1.302 2.994-6.508 2.994-6.508s-10.543 4.054-23.232 3.514c-10.113-.43-15.88-5.791-15.88-5.791s9.958 4.1 20.11 3.188c12.977-1.165 18.872-3.775 23.037-5.727 2.557-4.918 4.328-14.286 4.328-14.286s-8.754 11.813-28.407 12.074c-4.24.056-9.07-.239-13.653-1.59a115.664 115.664 0 0 1-4.104-1.553l-.086-.041" fill="#E22739" fill-rule="nonzero"/><path d="M142.77 98.458c-2.073 1.64-3.651 3.091-5.722 4.616-1.166 1.1-2.446 1.544-3.8 1.415-.638-.083-1.077-.172-1.916-.503-23.165-9.125-40.908-13.745-64.071-11.485-2.354-1.75-4.27-3.422-6.655-5.068-1.291-6.633-3.101-16.674-3.103-16.68a8.64 8.64 0 0 0-2.098-.873c-1.272-4.15-2.407-7.954-3.692-12.144 30.601-6.584 66.057-9.08 99.803.262-1.222 5.306-2.295 10.08-3.585 15.268-.685.67-1.24 1.238-1.88 1.886v12.817c0 1.481.011 2.73-.148 4.244-.204 1.664-.515 3.261-1.536 4.73-.546.756-1.014 1.13-1.597 1.515" fill="#231F20" fill-rule="nonzero"/><path d="M119.921 55.491c3.671.35 7.87.76 11.581 1.31v28.33c1.286.357 2.3.71 3.579 1.04V57.394c3.667.676 13.1 2.692 13.103 2.692-.752 3.874-1.419 7.378-2.16 11.206-.689-.19-2.624-.812-2.625-.813V86.85c0 1.252.039 2.39-.119 3.674-.184 1.312-.373 2.29-.984 3.168-1.803 2.167-3.885 1.315-5.835.586-2.418-.857-4.969-1.493-7.37-2.343-.861-.305-1.563-.547-2.442-1.006-.883-.48-1.596-1.017-2.41-1.945-1.728-2.195-1.717-3.771-1.717-6.799 0-6.502.01-11.944.01-18.372-.663-.075-1.89-.36-1.89-.36-.24-2.738-.482-5.229-.721-7.962M119.515 55.461c-.375 2.68-.703 5.125-1.08 7.804 0 0-1.273-.137-1.958-.178-1.94 2.415-3.643 4.155-5.815 7.278 2.282 3.36 3.556 5.486 5.811 8.937.687.139 1.765.344 2.472.449.66 3.393 1.254 6.504 1.921 9.933-2.636-.68-6.34-1.707-8.971-2.288-2.337-3.44-4.93-8.304-7.393-11.548v10.274c-3.4-.566-7.375-1.272-10.795-1.598.625-2.712 1.178-5.181 1.8-7.886.002 0 1.152.069 1.732.114l.002-14.354c-.61-.015-1.128.008-1.731.014-.266-2.526-.458-4.825-.721-7.335 3.394-.153 6.305-.145 9.715-.12 0 4.149-.083 6.303-.083 10.205 2.424-3.756 4.146-6.085 6.576-10.153 2.659.066 5.815.243 8.518.452M55.71 59.888c.003-.001 7.667-1.546 13.31-2.222 0 2.238-.294 4.409-.294 6.582-.816.051-1.148.108-1.941.185.66 4.164 1.07 7.126 1.677 10.945 1.044-5.934 1.903-10.908 2.907-18.063 3.134-.417 5.577-.734 8.725-1.096 1.02 7.244 1.776 12.516 2.754 18.682.569-4.049 1.195-7.47 1.694-12.221-.887.071-.944.057-1.803.14 0-2.354-.687-4.401-.687-6.801 4.113-.401 8.069-.676 12.196-.934-.35 2.495-.64 4.781-.992 7.292 0 0-.936.025-1.587.03-1.08 8.803-2.288 14.857-3.457 21.495-3.836-.23-6.795-.43-10.594-.392-.808-4.15-1.272-7.696-2.026-12.449-.764 4.828-1.328 8.339-2.061 12.503-3.807.17-6.732.29-10.515.726-1.273-6.537-1.687-9.6-3.075-16.722-.633.073-1.82.287-1.82.287-.836-2.726-1.57-5.227-2.411-7.967" fill="#FFF" fill-rule="nonzero"/></g></svg>