<svg width="200" height="200" xmlns="http://www.w3.org/2000/svg"><g fill="none"><path d="M99.778 171.064l-5.702-21.417-5.701 21.417H36.97l-7.06-34.029c-2.863 1.744-5.737 3.432-8.715 4.998l-.103.055-.115-.004c-.975-.037-4.658-1.135-8.346-2.255-.906-.275-1.59-.483-1.838-.548l-.233-.061-.072-.23a45.755 45.755 0 0 0-1.164-3.26l-.132-.33 1.33-.872-.296-1.548L8 132.765l-.109-.21c-.64-1.232-1.25-2.165-1.815-2.774l-.184-.2.098-.252c.02-.056.502-1.295 1.068-2.38-1.394-2.253-2.252-5.53-2.29-5.673l-.052-.206.129-.168c1.676-2.17 5.598-7.252 8.324-9.345l.114-.088.145-.001s1.716-.03 2.93-.062c2.467-2.161 4.705-4.01 7.009-5.902l-7.16-34.514H4.97V28.475h63.572V46.34l5.37-17.865h40.321L119.61 46.3V28.475h63.572V70.99h-11.237l-8.114 39.107c1.203.92 2.453 1.901 3.755 2.956 3.897 2.44 7.357 3.669 10.669 3.07-5.915 4.09-13.207 4.812-14.733 4.835 1.226 1.32 2.515 2.845 3.869 4.445 2.047 2.423 4.368 5.17 6.971 7.795 3.18 3.13 6.722 6.429 11.92 9.302l1.051.582-1.182.226c-9.949 1.897-19.34 2.82-28.708 2.82-.367 0-.721-.011-1.084-.014l-5.177 24.95H99.778zm60.1-20.633c17.974-.21 40.022-5.345 40.022-5.345s-19.702-9.6-28.19-21.273c8.283-2.88 16.403-11.664 16.403-11.664s-12.92 1.704-19.504-3.797l6.855-33.038h12.041V24.15H.647v51.164h12.041l5.916 28.512a256.564 256.564 0 0 0-3.904 3.292l-2.915.052-1.249.957c-2.791 2.143-6.174 6.326-9.115 10.135L0 120.106l.583 2.253c.11.42.678 2.525 1.661 4.702-.144.345-.245.6-.285.702l-1.076 2.77 2.025 2.191c.076.081.485.55 1.143 1.818l.626 1.208.63 1.585a40.58 40.58 0 0 1 1.053 2.942l.785 2.518 2.558.67c.198.053.705.208 1.388.416l.285.086c6.143 1.865 8.171 2.39 9.433 2.438l1.284.05 1.117-.595c1.196-.63 2.414-1.297 3.694-2.025l6.547 31.553h58.246l2.379-8.932 2.378 8.932H154.7l5.179-24.957z" fill="#A4A5A6"/><path d="M68.895 72.92l10.957-36.457H108.3l.18.598 12.87 42.672c1.304.335 2.611.63 3.914.86l-14.365-47.629H77.251l-12.293 40.9c1.454-.256 2.742-.555 3.937-.944m-40.876 28.756c-.786-3.245-.689-5.87-.684-5.983l.009-.207.166-.124c.508-.378 1.08-.754 1.677-1.129l-6.48-31.23-2.846 3.497.047.228 7.377 35.554c.246-.203.483-.397.734-.606" fill="#AEA057"/><path fill="#AEA057" d="M60.555 36.463v26.54l3.498 3.497V32.964H9.46V66.5l3.498-3.497v-26.54h47.596"/><path d="M57.983 74.952L56.328 66.5l-4.25-3.497 2.519 12.862a31.92 31.92 0 0 1 3.386-.913m74.029-8.452l-2.893 14.543c.427.022.854.047 1.278.047.766 0 1.53.015 2.279.005l3.598-18.092-4.262 3.497m12.668 96.576l2.847 3.498 4.267-20.564a165.21 165.21 0 0 1-3.538-.17l-3.576 17.236m-16.534-77.139l-.09.45c1.03.29 2.216.61 3.007.784.111.024.242.065.382.112l.701-3.526c-1.333.912-2.651 1.659-4 2.18m31.272 6.439c-.031.05-.067.095-.099.145l-2.584 12.454c.974.66 2.02 1.389 3.122 2.178l8.435-40.652-2.848-3.498-6.107 29.434c.026-.021.056-.039.081-.061" fill="#AEA057"/><path fill="#AEA057" d="M127.597 36.463h47.596v26.54l3.498 3.497V32.964H124.1V66.5l3.497-3.497v-26.54M35.994 130.04c-.185.588-.846 2.633-1.55 4.117l-.054.115-.109.068-.305.19 6.648 32.044 2.846-3.498-6.92-33.353c-.185.106-.373.208-.556.316m51.491 13.315l-5.25 19.722 2.688 3.498 6.292-23.633c-1.238.122-2.48.257-3.73.413m9.335-.851l6.408 24.07 2.689-3.497-5.519-20.73c-1.19.037-2.382.088-3.578.157"/><path d="M108.299 36.463H79.852L68.895 72.92c2.104-.685 3.92-1.656 5.838-3.208l.97-.786-.273 1.22c-.018.076-.353 1.512-1.57 2.995 2.384-.57 4.503-.626 6.63-.626h.952c3.125 0 5.75-.144 8.724-1.965l.572-.352.086.667c.433 3.368-.566 5.444-1.604 6.654 3.018-.802 8.184-1.864 13.375-1.864 1.122 0 2.202.052 3.214.152 3.173.317 6.602 1.337 10.232 2.417 1.753.523 3.528 1.05 5.309 1.509L108.479 37.06l-.18-.598m19.298.001v26.54h8.677l-3.598 18.092c1.248-.017 2.451-.104 3.534-.448-1.407 1.155-2.744 2.208-4.064 3.11l-.7 3.526c.732.25 1.849.801 3.31 1.526 4.234 2.099 11.32 5.613 17.373 5.612 2.796 0 5.424-.492 7.208-1.984l6.107-29.434h9.75v-26.54h-47.597M57.153 150.04l-.596.182s11.958-10.54 13.2-14.743c1.408-4.764-1.981-7.516-3.276-8.365a28.972 28.972 0 0 1-4.56.364c-5.05 0-9.612-1.37-13.5-2.669-4.752 1.417-8.453 2.952-11.87 4.914l6.92 33.353h38.763l5.25-19.722c-9.54 1.193-19.473 3.391-30.33 6.686m73.521-5.858c-8.212-.938-16.703-1.908-26.095-1.908-1.392 0-2.785.03-4.182.072l5.519 20.73h38.763l3.576-17.235c-6.152-.361-11.936-1.014-17.58-1.659" fill="#643721"/><path d="M148.63 99.924c1.418.808 4.239 2.433 8.105 5.051l2.584-12.454c-3.117 4.775-8.27 6.833-10.689 7.403M38.078 89.589l1.341-.642c-.597-.798-2.477-3.632-1.309-6.35 1.224-2.845 5.343-4.505 12.243-4.937a26.682 26.682 0 0 1 4.244-1.795l-2.518-12.862h8.476v-26.54H12.959v26.54h9.748l6.48 31.23c2.597-1.63 5.9-3.215 8.891-4.644" fill="#643721"/><path d="M147.528 166.574h-.001l-2.847-3.498h-38.763l-2.689 3.498-6.408-24.071c1.196-.069 2.389-.12 3.578-.157 1.397-.043 2.79-.072 4.182-.072 9.392 0 17.883.97 26.095 1.908 5.645.645 11.429 1.298 17.58 1.659 1.166.068 2.346.124 3.54.169l-4.267 20.564zm-62.604 0l-2.69-3.498H43.47l-2.846 3.498-6.648-32.044.305-.19.109-.068.053-.115c.705-1.484 1.366-3.529 1.55-4.118.184-.108.372-.21.557-.316 3.418-1.962 7.12-3.497 11.87-4.914 3.889 1.3 8.451 2.67 13.5 2.67 1.514 0 3.048-.123 4.561-.365 1.295.849 4.684 3.601 3.275 8.365-1.241 4.203-13.199 14.743-13.199 14.743l.596-.182c10.858-3.295 20.79-5.493 30.332-6.686 1.25-.156 2.492-.291 3.73-.413l-6.291 23.633zM20.41 136.225c-1.6-.343-4.61-.842-6.964-1.355-.131-.677-.412-2.29-.412-2.29 2.108-.007 4.297.368 6.846.655 2.007-2.667 6.612-7.105 9.175-7.604 0 0-2.685 3.015-3.587 4.721 1.45-.847 5.143-3.997 5.143-3.997-.496 2.213-1.471 4.978-1.471 4.978-1.887 1.473-6.96 4.291-8.73 4.892zm14.229-14.548c-1.047-.728-2.701-.318-5.496.49 0 0 3.724-2.6 6.935-3.427 0 0 1.711.756 2.344 1.459 0 0-3.075 3.994-3.606 5.504 0 0 .869-3.298-.177-4.026zm52.582 16.692c.865-.523 2.082-3.228 1.25-6.04-.832-2.81-4.057-8.368-10.805-11.886 2.625-2.202 3.464-5.922 3.464-5.922 11.623 3.655 19.666 15.203 20.846 19.245.278.907.003 2.565-2.1 2.989-2.443.311-10.205 1.3-12.655 1.614zM11.86 126.277l-.96 2.294c-.563.01-1.854-.125-1.854-.125.202-.772.765-2.039 1.039-2.552-1.254-2.162-1.68-4.594-1.68-4.594 1.573-2.62 5.435-6.55 5.435-6.55 1.4-.538 3.315-.57 3.315-.57 9.961-9.41 19.653-16.782 19.958-17.013l.013-.01s-3.809 1.706-5.656 2.93c-.466-1.702-.308-3.462-.308-3.462.388-.404 1.066-.867 1.896-1.354 3.065-1.915 7.338-3.696 7.338-3.696-.434.966-.816 3.07-1.155 4.303 4.97-3.086 15.105-9.243 21.397-11.162.04.273.214.701.214.701-2.095 1.523-4.383 2.465-6.447 3.986 2.309-.744 7.401-1.984 10.945-2.831-.877-1.63-2.008-3.707-.203-5.703 6.493-7.823 18.617-4.092 23.198-6.954-.401 5.493-15.642 2.906-15.86 8.208-1.285 1.244-4.332 3.508-5.77 4.291 13.938-3.302 26.335 1.663 38.789 7.459 28.4 13.215 31.94 32.84 61.705 46.74-.165-.052-.324-.106-.488-.16.25.1.39.153.39.153s-31.26 3.231-44.87-14.994c-9.15-12.254-27.459-24.047-41.894-24.423 0 0-1.201-3.326-2.31-4.849 0 0-1.824-.104-3.424.08 1.92 2.164 4.264 15.71-3.535 19.662-.407.26-.837.487-1.276.7-.075.037-.148.074-.223.109-.436.202-.883.383-1.34.542-.022.007-.042.018-.063.025.006-.003.012-.008.018-.01-4.003 1.374-8.681 1.123-11.29-.608-2.022-1.582-2.87-3.715-2.308-6.44.217-1.992 1.808-3.755 3.954-5.42 0 0-3.626-.91-4.882-1.371-2.036 1.086-7.12 3.708-9.162 4.831 0 0 .865.92.694 2.196-3.302 1.796-5.903 3.392-9.412 5.44 1.22-2.135 2.46-3.428 2.46-3.428-.027-1.264-.537-1.909-.537-1.909s-2.695 1.087-5.989 3.315c-.153-1.347-.574-2.243-.574-2.243-1.956.417-5.859 2.093-7.317 2.865 1.297.038 2.957-.536 3.443.585-.083 3.933-2 7.529-5.283 9.991.56-.902 1.01-1.788 1.223-2.824-1.318 1.489-5.202 3.347-7.029 2.973-.71-.202-1.328-.608-1.668-1.254-1.051-2.824 3.718-6.862 3.718-6.862-1.159.065-2.707.067-4.089.316l-3.783 4.302 1.497 4.374zm34.453-45.363a17.41 17.41 0 0 0-4.418 6.28l-.081-.045s-3.571-4.93 4.499-6.235zM19.861 66.5l2.846-3.497H12.96L9.46 66.5V32.964h54.592V66.5l-3.498-3.497h-8.476l4.25 3.497 1.654 8.452a31.92 31.92 0 0 0-3.386.913 26.682 26.682 0 0 0-4.244 1.795c-6.9.432-11.02 2.092-12.243 4.936-1.168 2.719.712 5.553 1.31 6.35l-1.342.643c-2.991 1.43-6.294 3.014-8.891 4.644-.597.375-1.169.75-1.677 1.129l-.166.124-.01.207c-.004.113-.101 2.738.685 5.983-.251.209-.488.403-.734.606l-7.377-35.554-.047-.228zM60.63 82.507s-3.16.608-7.43 2.377c0 0 1.409-3.524 3.658-4.86.164-.097.345-.187.52-.28-.118.063-.244.122-.357.186-2.685.382-7.883 3.937-9.093 5.275 2.606-4.263 7.835-7.156 12.818-8.01 2.428-.588 2.267-.192 4.733-.693 0 0-4.833 2.602-4.85 6.005zm16.62-49.543h33.647l14.365 47.629a52.25 52.25 0 0 1-3.913-.86c-1.781-.459-3.556-.986-5.309-1.509-3.63-1.08-7.06-2.1-10.232-2.417a32.677 32.677 0 0 0-3.214-.152c-5.191 0-10.357 1.062-13.375 1.864 1.038-1.21 2.037-3.286 1.604-6.654l-.086-.667-.572.352c-2.973 1.821-5.6 1.966-8.724 1.966h-.953c-2.126 0-4.245.055-6.629.625 1.217-1.483 1.552-2.919 1.57-2.996l.274-1.219-.971.786c-1.918 1.552-3.734 2.523-5.838 3.208-1.195.39-2.483.688-3.937.944l12.293-40.9zm46.849 0h54.592V66.5l-3.499-3.497h-9.749l2.848 3.498-8.435 40.652a145.795 145.795 0 0 0-3.122-2.178 118.492 118.492 0 0 0-8.105-5.05c2.418-.571 7.572-2.629 10.69-7.404.031-.05.067-.095.098-.145-.025.022-.055.04-.081.061-1.784 1.492-4.412 1.984-7.208 1.984-6.052 0-13.14-3.513-17.373-5.612-1.461-.725-2.578-1.276-3.31-1.526a3.737 3.737 0 0 0-.383-.112c-.791-.173-1.977-.494-3.006-.784l.09-.45c1.348-.521 2.666-1.268 4-2.18 1.32-.902 2.656-1.955 4.063-3.11-1.083.344-2.286.431-3.534.448-.748.01-1.513-.005-2.279-.005-.424 0-.851-.025-1.278-.047l2.893-14.543 4.262-3.497h-8.677L124.1 66.5V32.964zm45.986 84.397c-4.826 1.154-8.735-.763-13.086-2.687-4.348-1.92-11.714-4.247-17.95-2.668.541.04 1.079.1 1.614.176 1.267.111 2.92.444 4.993 1.203 3.858 1.3 7.418 3.358 10.441 5.711 8.195 5.93 11.469 14.098 18.644 18.793-7.664-1.522-14.164-4.732-20.442-8.739-2.104-1.347-3.947-2.987-5.887-4.648 2.745 2.11 11.046 5.499 13.913 6.094-4.734-2.739-12.232-13.153-22.417-15.701-.311-.3-.59-.562-.851-.807-.312-.274-.955-.85-1.723-1.592h.002a34.653 34.653 0 0 1-2.504-2.6c3.76-1.35 11.72-.785 16.948.86-6.012-5.727-16.06-8.519-25.114-7.893a169.282 169.282 0 0 0-3.073-2.506c-.018.003-.038.004-.057.006 0 0-1.15-.937-2.396-1.771 0 0 .038-.012.106-.03a123.966 123.966 0 0 0-3.02-2.156c.008-.048.016-.096.022-.144 3.915-1.532 7.999-2.215 12.002-1.785.022-.027-7.444-4.01-19.457-1.923-3.998-1.888-7.136-3.497-11.531-4.886 3.027-1.468 9.188-2.807 12.61-3.135-2.662-.8-10.942-2.83-20.49.937-1.234-.284-3.967-.902-6.202-1.33a77.84 77.84 0 0 0-.351-.067l-.33-.06c-.228-.042-.448-.08-.657-.116l-.186-.03a26.165 26.165 0 0 0-.64-.096 12.38 12.38 0 0 0-.504-.06c6.672-2.8 11.436-4.196 19.427-4.582 9.028-.435 15.855 5.155 25.301 3.898-6.114 3.446-12.883 2.806-19.421 5.36a49.526 49.526 0 0 1 2.883-.414c3.514-.534 8.313-.832 13.918-.06 4.772.659 9.253 2.886 13.714 4.967 1.988.858 3.793 1.678 5.436 2.34 1.707.64 3.426 1.165 5.174 1.467-8.405 3.055-15.347-2.495-24.212 1.228l-.008.056c.332-.027.694-.04 1.057-.052l.213-.01c.05-.002.095-.006.145-.007 4.452-.193 11.614.415 20.414 4.44a44.373 44.373 0 0 1 4.102 2.157c1.804 1.017 3.552 2.15 5.184 3.438l.015.012c4.846 3.535 8.992 7.208 14.231 9.412zm-12.644 28.766c9.368 0 18.76-.922 28.708-2.82l1.182-.225-1.052-.582c-5.197-2.873-8.738-6.172-11.919-9.302-2.603-2.625-4.924-5.372-6.971-7.795-1.354-1.6-2.643-3.126-3.87-4.445 1.527-.023 8.82-.745 14.734-4.836-3.312.6-6.772-.63-10.67-3.069a169.89 169.89 0 0 0-3.754-2.956l8.114-39.107h11.237V28.475h-63.572V46.3l-5.375-17.825H73.912l-5.37 17.865V28.475H4.972V70.99h11.236l7.16 34.514c-2.303 1.892-4.54 3.741-7.008 5.902-1.214.033-2.93.062-2.93.062l-.145.001-.114.088c-2.726 2.093-6.648 7.175-8.324 9.345l-.13.168.054.206c.037.143.895 3.42 2.289 5.673a26.707 26.707 0 0 0-1.068 2.38l-.098.252.184.2c.565.61 1.176 1.542 1.815 2.774l.109.21 2.225.215.296 1.548-1.33.871.132.331a45.755 45.755 0 0 1 1.164 3.26l.072.23.233.061c.248.065.932.273 1.838.548 3.688 1.12 7.371 2.218 8.346 2.255l.115.004.103-.055c2.978-1.566 5.852-3.254 8.715-4.998l7.06 34.03h51.405l5.701-21.418 5.702 21.417h51.403l5.177-24.95c.363.003.717.013 1.084.013z" fill="#231F20"/><path d="M59.34 78.554c-.165.167-.337.33-.5.5.163-.17.334-.333.5-.5m1.06-.423c-.165.167-.336.333-.5.5.164-.167.335-.333.5-.5m3.106-1.112c-.167.161-.333.313-.5.474.167-.16.333-.313.5-.474m1.014-.414c-.165.172-.333.332-.5.5.167-.168.335-.328.5-.5m-6.166 2.392c-.167.166-.339.33-.5.5.161-.17.333-.334.5-.5m8.361 7.417c.115-.02.236-.033.351-.052-.223.032-.35.052-.35.052" fill="#231F20"/><path d="M10.9 128.569l-1.854-.498s1.291.54 1.853.498" fill="#AEA057"/><path d="M9.046 128.446l1.039-2.552c-.274.513-.837 1.78-1.04 2.552m14.812-11.342c.241.002.33.265.194.7-.746 2.165-2.28 4.72-4.89 5.403-.541.061-1.57.178-1.642-.407-.174-2.061 2.22-2.598 3.603-3.648l.215-.204c-.523-.287-1.501.035-2.115.057 1.252-1.171 2.792-1.894 4.635-1.9zm17.385-15.803l.032-.028c2.76-2.226 9.001-5.64 10.648-6.299.602-.247 3.43.396 3.43.396s.627 4.79-3.629 7.106c-1.545.841-2.897 1.672-6.092 2.187-5.312.86-9.999-1.644-9.999-1.644 3.36-.23 5.61-1.718 5.61-1.718zm-23.007 15.984s-4.77 4.038-3.718 6.862c.34.646.959 1.052 1.668 1.254 1.827.374 5.711-1.484 7.029-2.973-.212 1.036-.664 1.922-1.223 2.824 3.283-2.462 5.2-6.058 5.283-9.991-.486-1.12-2.146-.547-3.443-.585 1.458-.772 5.36-2.448 7.317-2.865 0 0 .42.896.574 2.243 3.294-2.228 5.99-3.315 5.99-3.315s.51.645.536 1.909c0 0-1.24 1.293-2.46 3.427 3.509-2.047 6.11-3.643 9.412-5.439.17-1.276-.694-2.196-.694-2.196 2.042-1.123 7.126-3.745 9.162-4.831 1.256.462 4.882 1.372 4.882 1.372-2.146 1.664-3.737 3.427-3.954 5.418-.563 2.726.286 4.859 2.308 6.441 2.609 1.73 7.287 1.982 11.29.607 6.722-3.682 7.661-15.103 3.776-20.622.914-.224 2.643-.404 2.643-.404 1.6-.185 3.424-.08 3.424-.08 1.109 1.522 2.31 4.848 2.31 4.848 14.435.376 32.743 12.169 41.894 24.423 13.61 18.225 44.87 14.994 44.87 14.994s-.14-.053-.39-.152c-31.915-10.325-28.944-26.684-61.498-44.177-22.287-11.974-37.477-10.013-38.455-9.87l-.053.007c1.438-.783 4.485-3.047 5.77-4.291.218-5.302 15.459-2.715 15.86-8.208-4.58 2.862-16.705-.87-23.198 6.954-1.805 1.996-.674 4.073.203 5.703-3.544.847-8.636 2.087-10.945 2.831 2.064-1.521 4.352-2.463 6.447-3.986 0 0-.174-.428-.214-.701-6.292 1.92-16.427 8.076-21.397 11.162.34-1.233.721-3.337 1.155-4.303-2.12 1.073-7.37 5.602-7.37 5.602l-1.864-.552s-.158 1.76.308 3.463c1.847-1.225 5.656-2.932 5.656-2.932l-.013.011.014-.01-17.199 16.68-2.773.343-3.009 3.421c1.382-.249 2.93-.25 4.09-.316zm12.927-20.66c.517-.444 1.173-.903 1.896-1.354-.83.487-1.508.95-1.896 1.354" fill="#AEA057"/><path d="M139.262 114.267l-.204-.179c.26.245.54.508.851.807 10.185 2.548 17.683 12.962 22.417 15.7-2.867-.594-11.168-3.983-13.913-6.093 1.94 1.661 3.783 3.301 5.887 4.648 6.278 4.007 12.778 7.217 20.442 8.74-7.776-2.638-18.504-23.26-35.48-23.623" fill="#643721"/><path d="M156.238 110.361c-11.33-8.316-22.868-11.34-32.644-10.004.928.735 1.9 1.531 3.073 2.506 9.054-.626 19.102 2.166 25.114 7.893-5.227-1.645-13.189-2.21-16.948-.86a34.653 34.653 0 0 0 2.504 2.6c.019-.01 1.057-.512 3.327-.314a24.943 24.943 0 0 0-1.614-.176c6.236-1.579 13.602.749 17.95 2.668 4.35 1.924 8.26 3.841 13.086 2.687-5.619-1.273-10.82-4.779-13.848-7" fill="#643721"/><path d="M155.092 118.38c.35.233.674.476 1.006.716-3.023-2.353-6.583-4.412-10.44-5.711 2.507.917 5.627 2.456 9.434 4.995M85 84.073c-.168-.137-.337-.277-.5-.408.163.131.332.271.5.408m40.995 13.835c.163-.016.335-.025.5-.04-.173.007-.328.03-.5.04" fill="#643721"/><path d="M124.725 97.971l.008-.056c8.865-3.723 15.807 1.827 24.212-1.228-6.645.542-12.108-2.764-15.487-4.395-4.098-1.977-13.629-4.9-26.482-1.72-.627-.263-1.69-.796-2.576-1.092 0 0 2.331-.904 6.303-1.507-.945.11-1.902.24-2.883.414 6.538-2.554 13.307-1.914 19.421-5.36-9.159 3.082-16.431-2.614-25.457-2.18-6.708.324-11.143 1.362-16.342 3.342-.09-.017-.173-.032-.26-.05 2.234.429 4.967 1.047 6.2 1.331 9.55-3.768 17.829-1.737 20.491-.937-3.422.328-9.583 1.667-12.61 3.135 4.395 1.39 7.533 2.998 11.531 4.886 12.013-2.086 19.48 1.896 19.457 1.923-4.003-.43-8.087.253-12.002 1.785a3.578 3.578 0 0 1-.022.144c1.163.807 2.124 1.493 3.02 2.156.404-.111 1.989-.504 4.535-.643-.363.012-.725.025-1.057.052m31.115 9.966c-1.632-1.287-3.38-2.421-5.184-3.438 1.856 1.095 3.57 2.263 5.199 3.45l-.015-.012" fill="#643721"/><path d="M138.335 92.88c1.809.845 3.615 1.658 5.436 2.34-1.643-.662-3.448-1.482-5.436-2.34m-54.178-8.983c-.174-.072-.332-.132-.5-.2.168.068.327.128.5.2" fill="#643721"/><path d="M21.337 118.948l-.215.204c-1.383 1.05-3.777 1.587-3.603 3.648.072.585 1.101.468 1.643.407 2.61-.682 4.143-3.238 4.889-5.402.135-.436.047-.7-.194-.7-1.843.006-3.383.729-4.635 1.9.614-.022 1.592-.344 2.115-.057" fill="#231F20"/><path d="M30.611 126.355s-3.693 3.15-5.143 3.997c.902-1.706 3.587-4.72 3.587-4.72-2.563.498-7.168 4.936-9.175 7.603-2.549-.287-4.738-.662-6.846-.654 0 0 .28 1.612.412 2.289 2.354.513 5.364 1.012 6.964 1.355 1.77-.6 6.843-3.419 8.73-4.892 0 0 .975-2.765 1.471-4.978" fill="#FFF"/><path d="M34.816 125.703c.53-1.51 3.606-5.504 3.606-5.504-.633-.703-2.344-1.459-2.344-1.459-3.211.827-6.935 3.426-6.935 3.426 2.795-.807 4.45-1.217 5.496-.49 1.046.729.177 4.027.177 4.027m67.16 8.063c-1.18-4.042-9.223-15.59-20.846-19.245 0 0-.839 3.72-3.464 5.922 6.748 3.518 9.973 9.076 10.805 11.886.832 2.812-.385 5.517-1.25 6.04 2.45-.314 10.212-1.303 12.655-1.614 2.103-.424 2.378-2.082 2.1-2.989" fill="#AEA057"/><path d="M46.277 100.426a98.756 98.756 0 0 1 2.657-1.651c.482-.29.947-.563 1.425-.835.307.479.445 1.033.372 1.664-.227 1.612-1.71 2.852-3.45 2.884-1.043-.007-1.873-.452-2.377-1.167.42-.279.87-.572 1.373-.895zm-.646 4.237c3.195-.515 4.547-1.346 6.092-2.187 4.256-2.316 3.628-7.106 3.628-7.106s-2.827-.643-3.429-.396c-1.647.659-7.889 4.073-10.648 6.3l-.032.027s-2.25 1.488-5.61 1.718c0 0 4.687 2.504 10 1.644z" fill="#231F20"/><path d="M48.934 98.775c.38.237.563.514.479.832.085-.318-.1-.596-.48-.832" fill="#231F20"/><path d="M105.223 96.277c32.554 17.493 29.583 33.852 61.498 44.177.164.053.323.107.488.16-29.765-13.9-33.306-33.526-61.705-46.741-12.454-5.796-24.85-10.761-38.789-7.459l.053-.008c.978-.142 16.168-2.103 38.455 9.871M17.155 114.18s-1.915.032-3.315.57c0 0-3.862 3.93-5.436 6.55 0 0 .427 2.432 1.68 4.594l-1.038 2.552 1.853.125.961-2.294-1.497-4.374 3.783-4.302 3.009-3.42m19.972-17.025l-.014.011c-.305.231-9.997 7.604-19.958 17.013l2.773-.344 17.2-16.68m3.268-5.581s-4.273 1.781-7.338 3.696c-.723.45-1.38.91-1.896 1.354l1.864.552s5.25-4.529 7.37-5.602" fill="#FFF"/><path d="M64.355 76.976c-.111.045-.223.086-.334.13-.274.107-.547.214-.822.316l-.193.071c-.974.361-1.944.702-2.867 1.05l-.239.088c-.23.088-.45.178-.674.268-.128.052-.26.103-.385.155-.195.082-.378.167-.564.25-.141.065-.286.127-.423.193-.166.08-.32.165-.477.248-.175.092-.356.182-.52.28-2.25 1.335-3.659 4.86-3.659 4.86 4.27-1.77 7.43-2.378 7.43-2.378.017-3.403 4.85-6.005 4.85-6.005-.37.165-.745.322-1.123.474" fill="#643721"/><path d="M58.277 79.305c.186-.084.37-.17.564-.25.125-.053.257-.104.385-.156.223-.09.444-.18.674-.268.078-.03.16-.059.239-.088.923-.348 1.893-.689 2.867-1.05l.193-.07c.275-.103.548-.21.822-.318.11-.043.223-.084.334-.129.378-.152.754-.31 1.123-.474-2.466.5-2.305.105-4.733.694-4.983.853-10.212 3.746-12.818 8.009 1.21-1.338 6.408-4.893 9.093-5.275.113-.064.239-.123.357-.185.157-.083.311-.168.477-.248.137-.066.282-.128.423-.192" fill="#FFF"/><path d="M47.281 102.488c1.74-.032 3.223-1.272 3.45-2.884a2.479 2.479 0 0 0-.372-1.664c-.478.272-.943.544-1.425.835.16.236.239.514.203.832-.108.788-.835 1.394-1.69 1.41-.517-.004-.929-.23-1.17-.59a96.51 96.51 0 0 0-1.373.894c.504.715 1.334 1.16 2.377 1.167" fill="#A4A5A6"/><path d="M47.447 101.017c.855-.016 1.582-.622 1.69-1.41a1.204 1.204 0 0 0-.203-.832 98.756 98.756 0 0 0-2.657 1.651c.241.361.653.587 1.17.59m59.529-10.444c12.853-3.18 22.384-.257 26.482 1.72 3.38 1.631 8.842 4.937 15.487 4.395-1.748-.302-3.467-.828-5.174-1.467-1.82-.682-3.627-1.495-5.436-2.34-4.46-2.081-8.942-4.308-13.714-4.966-5.605-.773-10.404-.475-13.918.06-3.972.602-6.303 1.506-6.303 1.506.887.296 1.949.829 2.576 1.092m48.879 17.378c-1.629-1.188-3.343-2.356-5.2-3.451a44.373 44.373 0 0 0-4.101-2.158c-8.8-4.024-15.962-4.632-20.414-4.439l-.145.006-.213.01c-2.546.14-4.131.533-4.535.644a4.53 4.53 0 0 0-.106.03 35.998 35.998 0 0 1 2.396 1.771c.019-.002.039-.003.057-.006 9.776-1.336 21.314 1.688 32.644 10.004 3.027 2.221 8.229 5.727 13.848 7-5.24-2.204-9.385-5.877-14.231-9.412m-18.518 4.546l-.002.001a51.152 51.152 0 0 0 1.927 1.77c16.976.365 27.704 20.986 35.48 23.623-7.175-4.695-10.449-12.863-18.644-18.793-.332-.24-.657-.483-1.006-.716-3.807-2.539-6.927-4.078-9.435-4.995-2.074-.76-3.726-1.092-4.993-1.203-2.27-.198-3.308.304-3.327.313m-69.143 4.952c-.006.003-.012.008-.018.01.021-.006.041-.017.062-.024.458-.16.905-.34 1.34-.542.076-.035.15-.072.224-.108.44-.213.87-.442 1.276-.7 7.799-3.954 5.455-17.499 3.535-19.662 0 0-1.73.18-2.643.404 3.885 5.519 2.946 16.94-3.776 20.622" fill="#FFF"/><path d="M41.814 87.15l.08.044a17.41 17.41 0 0 1 4.419-6.28c-8.07 1.305-4.5 6.235-4.5 6.235" fill="#AEA057"/><path d="M101.784 80.848c9.026-.435 16.298 5.26 25.457 2.18-9.447 1.256-16.273-4.334-25.301-3.9-7.991.387-12.755 1.783-19.427 4.583a12.38 12.38 0 0 1 .698.088c.141.02.29.043.446.068l.186.03c.21.035.43.074.657.115l.33.061.351.067.26.049c5.2-1.98 9.635-3.018 16.343-3.341" fill="#FFF"/><path d="M188.313 128.493c.076.03.136.076.18.137a.356.356 0 0 1 .064.21c0 .12-.044.218-.134.291-.09.073-.257.11-.504.11h-.515v-.794h.483c.207 0 .35.016.426.046zm-1.333-.402v2.63h.424v-1.117h.25c.148 0 .262.03.34.09.112.083.26.287.444.613l.233.415h.518l-.32-.515a3.007 3.007 0 0 0-.39-.522.72.72 0 0 0-.223-.14.813.813 0 0 0 .546-.24.7.7 0 0 0 .206-.501.675.675 0 0 0-.123-.386.651.651 0 0 0-.33-.254c-.139-.049-.363-.073-.671-.073h-.904z" fill="#231F20"/><path d="M189.816 128.349c.183.327.274.668.274 1.022 0 .352-.09.69-.27 1.012-.178.323-.43.575-.754.755-.324.18-.662.27-1.014.27s-.69-.09-1.014-.27a1.92 1.92 0 0 1-.757-.755 2.05 2.05 0 0 1-.27-1.012c0-.354.092-.695.275-1.022.184-.328.438-.58.763-.755.326-.176.66-.264 1.003-.264.341 0 .675.088 1.001.264.326.176.58.427.763.755zm-2.966-1.108a2.25 2.25 0 0 0-.915.904c-.22.392-.329.8-.329 1.226 0 .421.108.826.324 1.215.216.389.518.69.906.905a2.47 2.47 0 0 0 1.216.322 2.47 2.47 0 0 0 1.216-.322c.388-.215.69-.516.904-.905.215-.39.323-.794.323-1.215 0-.426-.11-.834-.327-1.226a2.243 2.243 0 0 0-.914-.904 2.505 2.505 0 0 0-1.202-.316c-.41 0-.811.105-1.202.316z" fill="#231F20"/></g></svg>