<?xml version="1.0" encoding="UTF-8"?>
<svg width="200px" height="200px" viewBox="0 0 200 200" version="1.1" xmlns="http://www.w3.org/2000/svg" xmlns:xlink="http://www.w3.org/1999/xlink">
    <!-- Generator: Sketch 51.3 (57544) - http://www.bohemiancoding.com/sketch -->
    <title>western-caro</title>
    <desc>Created with Sketch.</desc>
    <defs>
        <polygon id="path-1" points="0.000583759115 0.0531375216 199.343484 0.0531375216 199.343484 162.208997 0.000583759115 162.208997"></polygon>
    </defs>
    <g id="western-caro" stroke="none" stroke-width="1" fill="none" fill-rule="evenodd">
        <g id="western-caro_BGL" transform="translate(0.000000, 17.910448)">
            <g id="Group-42" transform="translate(0.300000, 1.988024)">
                <path d="M114.594085,41.8881869 C114.185634,44.9254158 116.518028,49.8644086 120.740563,51.5368422 C125.253239,53.3239409 130.287042,51.0278407 132.137746,48.1696013 C130.870141,47.4900004 127.410986,46.7796356 126.66169,46.3713157 C126.101127,47.8200124 122.022254,49.7497434 122.022254,49.7497434 C122.022254,49.7497434 120.526479,45.2106804 120.678592,43.8263081 C119.658873,43.5326534 115.684225,42.0811601 114.594085,41.8881869" id="Fill-1" fill="#FEFEFE"></path>
                <path d="M172.365352,80.1298629 C168.94,82.1798525 164.959718,82.9657285 161.201972,83.1111575 L161.162535,88.7325479 C161.162535,88.7325479 165.804789,84.9625806 166.452676,84.1767046 L167.472394,88.5815255 L171.790704,84.1263638 L172.120282,88.5395748 C172.120282,88.5395748 175.680845,85.7288796 177.779437,83.8103354 C174.661127,82.2385835 172.365352,80.1298629 172.365352,80.1298629" id="Fill-3" fill="#FEFEFE"></path>
                <path d="M158.313803,83.1041657 C155.392676,82.9839071 152.750423,82.5504168 150.806761,82.1337068 C149.294085,84.323532 147.003944,88.8793753 149.572958,93.8547253 C149.572958,93.8547253 152.012394,87.0559193 158.313803,83.1041657" id="Fill-5" fill="#FEFEFE"></path>
                <path d="M179.806479,84.6924183 C178.916338,86.7507981 176.930423,90.4844081 173.240282,93.6838463 C173.240282,93.6838463 181.06,93.5272304 185.657183,85.296508 C183.716338,85.7272016 181.682535,85.3776126 179.806479,84.6924183" id="Fill-7" fill="#FEFEFE"></path>
                <path d="M146.779437,113.577136 C147.255493,113.454081 147.742817,113.317042 148.241408,113.168816 C152.247042,111.971823 155.413239,111.250272 157.948451,111.018145 L158.849859,107.569799 L154.801972,110.257439 L152.999155,106.839858 L146.779437,113.577136 Z" id="Fill-9" fill="#FEFEFE"></path>
                <path d="M159.958873,110.755813 C161.778592,110.834121 163.296901,111.152946 164.587042,111.717882 C167.663099,107.363402 168.201127,102.8579 168.201127,102.8579 C168.201127,102.8579 163.003944,108.868033 159.958873,110.755813" id="Fill-11" fill="#FEFEFE"></path>
                <path d="M140.405634,101.005637 C135.735211,107.527569 136.002817,112.295962 136.566197,114.731898 C138.892958,115.369548 140.985915,114.882921 145.388732,113.758643 C140.383099,109.619509 140.405634,101.005637 140.405634,101.005637" id="Fill-13" fill="#FEFEFE"></path>
                <g id="Group-17" transform="translate(0.000000, 0.755550)">
                    <mask id="mask-2" fill="white">
                        <use xlink:href="#path-1"></use>
                    </mask>
                    <g id="Clip-16"></g>
                    <path d="M192.160563,62.9369196 C192.340845,62.321643 192.473239,61.865779 192.473239,61.865779 C192.473239,61.865779 190.597183,59.8465532 189.059155,58.9683857 C187.878873,58.2943782 186.160563,57.491722 183.732394,56.725423 L174.594366,49.0120922 L181.870423,40.526869 L170.523944,40.9995133 C166.701408,28.0199745 152.402817,20.7177603 140.842254,22.0769622 C139.202817,20.7681011 137.261972,19.6354329 135.112676,18.664974 C130.966197,11.3711499 121.247887,0.835937116 100.135211,0.217863838 L94.4704225,0.0528578504 C94.4704225,0.0528578504 98.7746479,7.3802424 100.185915,9.45819917 C100.073239,11.0047807 99.9746479,12.4646642 99.8901408,13.8658167 C98.0478873,13.9664984 96.1774648,14.1091307 94.284507,14.2937136 C90.056338,12.4506806 84.7070423,10.3839107 78.8873239,8.74783441 C65.2591549,4.92472956 51.9943662,2.73210762 34.9042254,9.488963 L26,13.0128197 C26,13.0128197 37.6591549,16.0304716 40.2140845,16.8834686 C41.1605634,20.0857035 42.5887324,24.8205363 44.2535211,29.7595291 C18.9323944,44.173781 -1.07042254,69.2798616 0.0450704225,108.341533 L0.416901408,121.449721 L8.03943662,110.738315 C10.6253521,107.105387 13.1408451,104.031801 15.5408451,101.439249 C7.77746479,117.65738 10.2619718,131.55424 10.3323944,131.934593 L12.2901408,142.615235 L18.3295775,133.565076 C21.4760563,128.84982 26.3633803,124.758231 31.1661972,121.519639 C22.9605634,140.053447 29.5098592,154.062176 29.7915493,154.652282 L33.4450704,162.208997 L37.5971831,154.912376 C51.8056338,129.923757 91.3859155,125.261639 111.123944,129.901384 C110.808451,130.374028 110.619718,130.93337 110.619718,131.53746 C110.619718,132.471562 111.064789,133.307778 111.766197,133.867121 L111.75493,133.872714 L101.022535,139.782166 L113.090141,141.991568 C116.749296,142.662779 120.566197,142.623625 123.969014,142.302003 L120.442254,146.452323 L130.014085,146.374015 C164.709859,146.088751 181.819718,124.377878 172.63662,111.585719 C174.152113,109.018338 175.014085,106.216033 175.51831,104.00663 C175.752113,102.974644 175.923944,102.004185 176.050704,101.151188 C189.104225,97.6049573 192.591549,90.7446236 193.256338,86.2559014 C202.51831,79.7283764 200.450704,68.2618586 192.160563,62.9369196 Z M190.239437,84.4715994 C190.259155,87.2822946 188.785915,95.1270708 173.185915,98.6453341 C173.095775,99.654947 172.895775,101.369331 172.450704,103.315843 C171.83662,105.997889 170.729577,109.295212 168.687324,111.798269 C177.022535,119.866782 167.676056,142.94245 129.991549,143.252885 L127.259155,143.275259 L129.019718,141.200099 C129.033803,141.186115 130.464789,139.499698 131.811268,137.830061 C130.783099,138.073375 129.574648,138.330673 128.247887,138.568393 C124.104225,139.301131 118.650704,139.835303 113.661972,138.920779 L110.216901,138.291519 L113.278873,136.605101 C113.315493,136.582728 118.611268,133.660164 121.788732,130.964134 C107.921127,120.767323 52.8309859,121.768546 34.8535211,153.376981 L33.6704225,155.460531 L32.628169,153.30147 C32.5323944,153.100107 23.9183099,135.08369 39.6901408,112.970091 C33.2450704,116.177919 21.7211268,122.834093 15.7070423,131.842301 L13.9859155,134.423666 L13.4253521,131.375251 C13.4,131.229822 9.04788732,107.30675 30.3408451,86.1328461 C29.3042254,86.6110838 28.1380282,87.2123768 26.8619718,87.9646922 C21.3295775,91.2340481 13.684507,97.3952039 5.47042254,108.937233 L3.29577465,111.994039 L3.18873239,108.252039 C2.08169014,69.3945268 22.5042254,44.9540636 48.0760563,31.2222093 C45.7661972,24.6023928 43.8,17.9629993 42.7830986,14.4671098 C39.6197183,13.3120678 36.0676056,12.3919497 36.0676056,12.3919497 C52.2366197,5.99866684 64.7014085,8.01229924 78.028169,11.7542994 C84.0507042,13.4435133 89.543662,15.6109648 93.771831,17.4847616 C96.8647887,17.1603431 99.8985915,16.9589798 102.84507,16.8694851 C103.016901,14.3216807 103.16338,11.622854 103.402817,8.59121855 C101.901408,6.51046508 100.042254,3.33899405 100.042254,3.33899405 C120.8,3.94588048 129.484507,14.6265223 132.864789,21.1009098 C135.757746,22.3034958 138.135211,23.7382089 139.88169,25.3826754 C151.002817,23.2599712 165.769014,30.9565217 168.039437,44.2269185 L174.808451,43.9444507 L170.157746,49.3672746 L182.185915,59.5193379 C187.301408,61.0463425 188.966197,62.6880122 188.966197,62.6880122 C188.966197,62.6880122 188.760563,63.3927836 188.371831,64.4639241 C197.349296,68.3233862 199.377465,79.1718308 190.239437,84.4715994 Z M112.191549,130.989304 L112.191549,130.544627 L114.239437,130.544627 L114.239437,130.989304 L113.48169,130.989304 L113.48169,133.053278 L112.952113,133.053278 L112.952113,130.989304 L112.191549,130.989304 Z M116.016901,133.053278 L115.504225,133.053278 L115.028169,130.947354 C115.028169,130.994898 115.028169,131.062019 115.030986,131.151514 C115.030986,131.238212 115.033803,131.30813 115.033803,131.355674 L115.033803,133.053278 L114.538028,133.053278 L114.538028,130.544627 L115.309859,130.544627 L115.769014,132.516309 L116.225352,130.544627 L116.985915,130.544627 L116.985915,133.053278 L116.492958,133.053278 L116.492958,131.355674 C116.492958,131.30813 116.492958,131.238212 116.495775,131.151514 L116.495775,130.947354 L116.016901,133.053278 Z" id="Fill-15" fill="#C0A674" mask="url(#mask-2)"></path>
                </g>
                <path d="M107.94507,39.5025919 C107.94507,39.5025919 103.660563,37.2484423 99.5366197,35.6962673 C99.5366197,35.6962673 118.266197,28.9338185 139.161972,41.6560599 C145.128169,45.2889883 151.302817,41.8909837 151.302817,41.8909837 C151.302817,41.8909837 152.485915,47.8647598 147.497183,49.6294848 C147.497183,49.6294848 150.139437,50.9942801 154.711268,48.7792845 C154.711268,48.7792845 153.378873,55.7738603 140.469014,53.1757152 C121.835211,49.4253249 120.871831,65.6015051 120.871831,65.6015051 C122.638028,62.6006335 130.319718,57.2197603 143.567606,56.9848365 C128.412676,60.5814077 113.519718,74.5342022 117.629577,97.8475906 C121.894366,76.2737568 142.1,75.0460004 147.195775,76.7827583 C169.849296,84.5128694 173.187324,74.0419809 170.46338,69.2176533 C167.914085,69.3910494 167.342254,72.6100645 167.342254,72.6100645 L164.739437,72.1066564 C164.739437,72.1066564 162.226761,64.6086725 162.809859,58.6209128 C162.809859,58.6209128 165.93662,57.6140966 173.040845,58.4503134 L163.632394,50.6614714 L157.46338,50.2084041 C157.46338,50.2084041 164.874648,45.5099285 157.925352,38.9208759 C150.978873,32.3290265 141.604225,32.4996259 141.604225,32.4996259 C141.604225,32.4996259 144.457746,34.9495453 146.511268,38.5377264 C146.511268,38.5377264 117.615493,21.6903353 97.6802817,31.2243254 C84.1112676,37.7154931 82.1253521,52.2332234 82.1253521,52.2332234 C82.1253521,52.2332234 92.1929577,40.3108416 107.94507,39.5025919 Z M168.398592,56.7974568 C164.607042,56.5093955 161.930986,57.037974 161.930986,57.037974 L160.491549,51.9619424 L168.398592,56.7974568 Z" id="Fill-18" fill="#C0A674"></path>
                <path d="M163.807324,101.965469 C163.922817,101.02018 160.708732,95.5078616 153.990423,97.104784 C144.953803,99.2526585 145.08609,107.209303 145.08609,107.209303 C145.08609,107.209303 148.629859,103.626716 154.708732,104.781757 C164.094648,106.560466 163.680563,103.011439 163.807324,101.965469" id="Fill-20" fill="#C0A674"></path>
                <path d="M186.554366,69.4536958 C185.362817,71.7805599 183.779718,74.1325944 181.87831,75.1701744 L179.548732,74.3954853 C179.771268,73.215273 179.207887,71.9959067 178.765634,71.2659649 C175.233239,71.2435912 173.292394,78.0312104 179.883944,81.3033631 C183.562817,83.1296158 189.500845,82.438828 190.847324,78.2381671 C192.621972,72.7174583 188.619155,70.3038961 186.554366,69.4536958" id="Fill-22" fill="#C0A674"></path>
                <path d="M153.824225,115.051842 C149.528451,116.377483 134.610141,120.167028 124.480563,116.738259 C123.317183,116.500539 119.455211,114.081383 118.731268,113.08016 C114.931268,108.49635 112.722817,100.578859 112.703099,92.2166913 C108.922817,96.8116886 107.339718,108.143964 111.150986,115.283969 C117.573521,127.323813 134.384789,126.30581 134.384789,126.30581 C133.012958,129.505248 129.317183,133.300386 129.317183,133.300386 C138.100282,131.829315 145.781972,127.880358 145.781972,127.880358 C145.934085,131.149714 141.993239,135.593689 141.993239,135.593689 C141.993239,135.593689 164.376338,130.976318 164.215775,120.169824 C164.16507,116.693512 160.900282,112.86761 153.824225,115.051842" id="Fill-24" fill="#C0A674"></path>
                <path d="M114.89662,75.0963412 C103.733239,76.242993 54.6543662,85.2651848 34.2769014,106.139841 C34.2769014,106.139841 86.1557746,81.0701173 113.276901,80.4744177 C113.657183,78.7180828 114.181127,76.9114071 114.89662,75.0963412" id="Fill-26" fill="#C0A674"></path>
                <path d="M116.178592,72.2504074 C116.975775,70.6758588 117.936338,69.1097002 119.077183,67.5743055 C104.178592,67.4876075 58.0039437,76.6300579 41.8997183,92.4902097 C41.8997183,92.4902097 87.5053521,71.4701249 116.178592,72.2504074" id="Fill-28" fill="#C0A674"></path>
                <path d="M112.423662,88.9241227 C112.412394,87.3607609 112.491268,85.671547 112.702535,83.9012285 C101.699718,85.2967877 60.4123944,94.6014474 48.3391549,107.989306 C48.3391549,107.989306 86.7278873,90.3056982 112.429296,89.3072722 L112.423662,88.9241227 Z" id="Fill-30" fill="#C0A674"></path>
                <path d="M49.0571831,16.7107902 C50.2459155,20.2094765 51.8064789,24.9638863 51.8064789,24.9638863 L56.5304225,24.840831 L53.4233803,28.5157101 L58.0797183,28.5688477 L54.7360563,31.9640556 L55.2656338,34.0559959 C55.2656338,34.0559959 46.6261972,38.2902174 43.003662,41.9035689 C43.003662,41.9035689 60.1247887,35.0068779 74.6684507,30.8313874 C65.2909859,21.1799355 49.0571831,16.7107902 49.0571831,16.7107902" id="Fill-32" fill="#C0A674"></path>
                <path d="M188.372676,65.2177963 C188.761408,64.1494524 188.967042,63.4446811 188.967042,63.4446811 C188.967042,63.4446811 187.302254,61.8030113 182.186761,60.2732101 L170.158592,50.1239434 L174.809296,44.7011195 L168.040282,44.9835874 C165.769859,31.7131906 151.000845,24.0138434 139.882535,26.1393442 C138.136056,24.4948778 135.755775,23.0601647 132.865634,21.854782 C129.485352,15.3831912 120.800845,4.70254936 100.043099,4.09566293 C100.043099,4.09566293 101.902254,7.26713395 103.406479,9.34509071 C103.164225,12.3767262 103.017746,15.0755529 102.845915,17.6261539 C99.8994366,17.712852 96.8656338,17.917012 93.7726761,18.2386338 C89.544507,16.364837 84.0515493,14.1973854 78.0290141,12.5081716 C64.7022535,8.76896811 52.2374648,6.752539 36.0684507,13.1458219 C36.0684507,13.1458219 39.6177465,14.06594 42.7811268,15.2237786 C43.803662,18.7168715 45.7670423,25.356265 48.0740845,31.9760815 C22.5050704,45.7107324 2.08253521,70.1511957 3.18957746,109.008707 L3.29661972,112.747911 L5.4684507,109.691105 C13.6825352,98.1490761 21.3304225,91.990717 26.8628169,88.7185644 C28.1388732,87.9662489 29.3022535,87.3649559 30.3388732,86.8867182 C9.04873239,108.060622 13.4008451,131.983694 13.4261972,132.131919 L13.9867606,135.180335 L15.7078873,132.596174 C21.7219718,123.590762 33.2459155,116.931792 39.6909859,113.72676 C23.9191549,135.837562 32.5332394,153.853979 32.631831,154.058139 L33.6712676,156.214404 L34.8543662,154.130853 C52.831831,122.525215 107.919155,121.521195 121.786761,131.718006 C118.609296,134.416833 113.313521,137.339397 113.279718,137.358974 L110.217746,139.045391 L113.662817,139.674651 C118.651549,140.589176 124.10507,140.0578 128.245915,139.322265 C129.575493,139.087341 130.783944,138.827247 131.812113,138.58673 C130.462817,140.256367 129.034648,141.939987 129.020563,141.956768 L127.26,144.029131 L129.989577,144.006757 C167.674085,143.696322 177.02338,120.620654 168.688169,112.552141 C170.727606,110.049084 171.837465,106.754558 172.451549,104.072511 C172.89662,102.123203 173.09662,100.411616 173.183944,99.3992062 C188.783944,95.8837397 190.26,88.0361667 190.240282,85.2282682 C199.375493,79.9257029 197.350141,69.0772584 188.372676,65.2177963 Z M97.6825352,31.223766 C117.61493,21.689776 146.513521,38.5343703 146.513521,38.5343703 C144.457183,34.9461893 141.603662,32.4990666 141.603662,32.4990666 C141.603662,32.4990666 150.981127,32.3284671 157.924789,38.9175198 C164.874085,45.5093692 157.462817,50.2078448 157.462817,50.2078448 L163.631831,50.6609121 L173.045915,58.4497541 C165.936056,57.6107406 162.812113,58.6203535 162.812113,58.6203535 C162.226197,64.6081131 164.738873,72.1060971 164.738873,72.1060971 L167.34169,72.6095052 C167.34169,72.6095052 167.913521,69.3904901 170.465634,69.217094 C173.186761,74.0386249 169.848732,84.51231 147.195211,76.782199 C142.099437,75.0454411 121.893803,76.2731975 117.629014,97.8470312 C113.519155,74.5336428 128.412113,60.5780516 143.569859,56.9842772 C130.321972,57.2192009 122.637465,62.6000742 120.871268,65.6009458 C120.871268,65.6009458 121.834648,49.4219688 140.468451,53.1751559 C153.37831,55.773301 154.710704,48.7787251 154.710704,48.7787251 C150.14169,50.9937208 147.49662,49.6289255 147.49662,49.6289255 C152.485352,47.8642004 151.302254,41.8904243 151.302254,41.8904243 C151.302254,41.8904243 145.127606,45.2856323 139.161408,41.6555005 C118.265634,28.9332592 99.5360563,35.6929113 99.5360563,35.6929113 C103.66,37.247883 107.944507,39.5020326 107.944507,39.5020326 C92.1923944,40.3074855 82.1276056,52.232664 82.1276056,52.232664 C82.1276056,52.232664 84.1107042,37.7149338 97.6825352,31.223766 Z M154.710704,104.780079 C148.631831,103.627834 145.090865,107.210422 145.090865,107.210422 C145.090865,107.210422 144.952958,99.2509805 153.992394,97.1059026 C160.710704,95.5089803 163.919155,101.021299 163.806479,101.963791 C163.676901,103.009761 164.093803,106.561585 154.710704,104.780079 Z M158.854366,107.568401 L157.944507,111.019543 C155.41493,111.25167 152.251549,111.973222 148.237465,113.170214 C147.74169,113.31844 147.254366,113.452682 146.77831,113.575738 L152.995211,106.841256 L154.800845,110.258838 L158.854366,107.568401 Z M145.386761,113.760321 C140.986761,114.884599 138.893803,115.36843 136.564225,114.733576 C136.000845,112.29764 135.733239,107.52645 140.406479,101.004519 C140.406479,101.004519 140.386761,109.618391 145.386761,113.760321 Z M150.803662,82.1323084 C152.750141,82.5490185 155.392394,82.9853055 158.310704,83.1027674 C152.012113,87.0573176 149.575493,93.8561237 149.575493,93.8561237 C147.006479,88.8779769 149.293803,84.3221336 150.803662,82.1323084 Z M122.020563,49.7491841 C122.020563,49.7491841 126.099437,47.819453 126.662817,46.3707564 C127.409296,46.7790763 130.874085,47.4894411 132.136056,48.1662453 C130.290986,51.0272813 125.254366,53.3233816 120.738873,51.5362828 C116.516338,49.8638493 114.186761,44.9220598 114.595211,41.8876276 C115.682535,42.0806007 119.657183,43.5320941 120.679718,43.8257488 C120.527606,45.2101211 122.020563,49.7491841 122.020563,49.7491841 Z M55.2656338,34.056835 L54.7360563,31.9620979 L58.0797183,28.56689 L53.4233803,28.5137524 L56.5304225,24.8388733 L51.8064789,24.9619286 C51.8064789,24.9619286 50.2459155,20.2075188 49.0571831,16.7088325 C49.0571831,16.7088325 65.2909859,21.1807745 74.6684507,30.8294297 C60.1247887,35.0049202 43.003662,41.9016112 43.003662,41.9016112 C46.6261972,38.2882597 55.2656338,34.056835 55.2656338,34.056835 Z M119.076901,67.5726275 C117.936056,69.1080222 116.97831,70.6741807 116.175493,72.2487294 C87.5050704,71.4712436 41.8966197,92.4913284 41.8966197,92.4913284 C58.0064789,76.6283799 104.17831,67.4859294 119.076901,67.5726275 Z M34.2769014,106.139281 C54.6543662,85.2646255 103.733239,76.2424337 114.89662,75.0957819 C114.181127,76.9108477 113.657183,78.7175235 113.276901,80.4738584 C86.1557746,81.069558 34.2769014,106.139281 34.2769014,106.139281 Z M48.3388732,107.990704 C60.4092958,94.600049 101.69662,85.298186 112.70507,83.9026269 C112.493803,85.6701487 112.412113,87.3593625 112.42338,88.9227243 L112.426197,89.3086705 C86.7247887,90.3042999 48.3388732,107.990704 48.3388732,107.990704 Z M141.992394,135.594249 C141.992394,135.594249 145.936056,131.150274 145.783944,127.878121 C145.783944,127.878121 138.09662,131.829875 129.316338,133.298148 C129.316338,133.298148 133.01493,129.505807 134.381127,126.306369 C134.381127,126.306369 117.572676,127.321575 111.152958,115.284528 C107.338873,108.141727 108.924789,96.8094512 112.70507,92.2172507 C112.724789,100.579419 114.933239,108.496909 118.730423,113.08072 C119.454366,114.081942 123.316338,116.501098 124.479718,116.736022 C134.609296,120.167587 149.530423,116.378043 153.82338,115.052401 C160.899437,112.86817 164.164225,116.694071 164.217746,120.170384 C164.375493,130.976878 141.992394,135.594249 141.992394,135.594249 Z M164.586761,111.715924 C163.299437,111.150989 161.77831,110.832163 159.955775,110.753856 C163.000845,108.866075 168.203662,102.855942 168.203662,102.855942 C168.203662,102.855942 167.662817,107.364241 164.586761,111.715924 Z M172.119155,88.5395748 L171.789577,84.1235671 L167.468451,88.5787288 L166.454366,84.1767046 C165.800845,84.9597839 161.167042,88.7325479 161.167042,88.7325479 L161.200845,83.1111575 C164.961408,82.9629318 168.94169,82.1770558 172.364225,80.1298629 C172.364225,80.1298629 174.665634,82.2385835 177.77831,83.8103354 C175.676901,85.7288796 172.119155,88.5395748 172.119155,88.5395748 Z M173.237465,93.6827276 C176.930423,90.4832894 178.916338,86.7496794 179.803662,84.6912996 C181.682535,85.3764939 183.719155,85.7260829 185.657183,85.2953893 C181.062817,93.5289084 173.237465,93.6827276 173.237465,93.6827276 Z M190.851549,78.2364891 C189.49662,82.43715 183.561408,83.1307345 179.882535,81.3044818 C173.290986,78.0295324 175.237465,71.2447099 178.769859,71.2642869 C179.206479,71.9970254 179.767042,73.2163916 179.547324,74.3938072 L181.874085,75.1712931 C183.775493,74.1337131 185.367042,71.7816786 186.552958,69.4520177 C188.62338,70.3050148 192.626197,72.718577 190.851549,78.2364891 Z" id="Fill-34" fill="#623292"></path>
                <path d="M168.401127,56.7974568 L160.491268,51.9619424 L161.933521,57.0351773 C161.933521,57.0351773 164.603944,56.5065988 168.401127,56.7974568" id="Fill-36" fill="#623292"></path>
                <polygon id="Fill-38" fill="#623292" points="112.192394 131.299618 112.192394 131.744295 112.952958 131.744295 112.952958 133.808268 113.482535 133.808268 113.482535 131.744295 114.240282 131.744295 114.240282 131.299618"></polygon>
                <path d="M116.492113,132.112063 L116.492113,133.809667 L116.98507,133.809667 L116.98507,131.301016 L116.224507,131.301016 L115.768169,133.272698 L115.309014,131.301016 L114.542817,131.301016 L114.542817,133.809667 L115.030141,133.809667 L115.030141,132.112063 L115.030141,131.907903 C115.027324,131.818408 115.027324,131.751287 115.027324,131.703743 L115.50338,133.809667 L116.016056,133.809667 L116.49493,131.703743 L116.49493,131.907903 C116.492113,131.994601 116.492113,132.064519 116.492113,132.112063" id="Fill-40" fill="#623292"></path>
            </g>
        </g>
    </g>
</svg>