<svg width="200" height="200" xmlns="http://www.w3.org/2000/svg" xmlns:xlink="http://www.w3.org/1999/xlink"><defs><path id="a" d="M.437.565H18.85v16.56H.437z"/></defs><g fill="none" fill-rule="evenodd"><path d="M11.821 104.98c2.169 4.332 10.56 15.98 15.982 19.23.775 2.913 6.39 20.893 25.683 33.824 12.253 8.194 29.414 11.885 41.736-1.05 8.127 8.13 38.453 15.981 54.97-2.164-3.79 7.855-11.547 12.088-11.547 12.088-4.327.27-5.649-.172-8.76 1.182-4.266 1.864-4.575 7.856-4.575 7.856l-7.074 2.712c-4.6-3.524-5.853-4.34-12.083-4.066-6.224.27-9.573 9.48-9.573 9.48H82.767c0-4.334-3.252-10.021-11.105-11.917-7.854-1.896-14.35 5.687-14.35 5.687l-10.833-5.687c1.63-3.792 2.301-10.903-4.6-16.251-5.959-4.607-13.54-.816-13.54-.816l-6.496-9.21s6.224-6.634 2.169-13.543c-3.526-5.956-10.832-5.145-10.832-5.145-1.632-5.145-1.359-22.21-1.359-22.21" fill="#542988"/><path d="M110.066 190.406a.17.17 0 0 0 .008-.006l-.008.006zm8.763-8.059a1288.079 1288.079 0 0 1-2.083 5.03l-.055.131c-1.215 2.91-2.011 4.772-2.31 5.37-1.509 3.02-7.027 4.017-9.957 1.39-.723-.648-1.985-1.83-3.648-3.412l-.09-.086a852.158 852.158 0 0 1-3.77-3.612l-.354-.34-1.13-1.09.492-1.49c.854-2.596 3.518-6.272 6.675-8.248 4.865-3.045 10.465-2.252 15.881 3.166l1.177 1.178-.633 1.54-.195.473zM57.982 177.2c3.464-3.482 9.475-5.731 14.72-4.345 5.24 1.376 8.565 6.678 9.026 11.057l.147 1.395-1.114.853a405.175 405.175 0 0 0-1.506 1.156c-1.13.87-2.26 1.744-3.313 2.566l-.15.118c-2.11 1.647-3.628 2.863-4.23 3.398-2.853 2.517-6.788 1.093-9.188-1.753-.688-.816-1.42-2.377-2.418-4.878-.162-.405-.328-.83-.497-1.272a165.352 165.352 0 0 1-1.901-5.23l-.171-.498-.5-1.468 1.095-1.1zm-44.84-50.052c8.949-1.117 15.762 8.785 10.867 17.273l-.291.505-2.922 1.955-.97-.155a81.936 81.936 0 0 0-1.074-.166 172.481 172.481 0 0 0-3.878-.54c-1.768-.222-3.14-.348-3.863-.348-4.037 0-5.44-2.947-4.909-6.635.16-1.147.938-2.874 2.312-5.49a141.91 141.91 0 0 1 2.882-5.183l.624-1.063 1.223-.153zm127.41 43.298a802.962 802.962 0 0 0-.13 3.93 156.977 156.977 0 0 0-.087 3.7c0 1.867-1.057 3.25-2.656 3.924-.93.391-1.921.522-3.061.522l-.2.002h-.066c-2.218.035-4.062-.457-8.612-2.588l-1.607-.753.18-1.764c.943-9.276 7.889-12.553 14.732-9.635l1.58.674-.062 1.717-.01.27zm-110.7-16.627c2.388-.5 4.856-.676 7.233-.321 2.722.407 5.085 1.49 6.885 3.398a13.682 13.682 0 0 1 2.31 3.297c1.516 3.043 1.741 6.212 1.233 9.093-.09.515-.187.908-.264 1.16l-.32 1.05-.989.475c-.331.16-.918.424-1.719.76a62.102 62.102 0 0 1-4.323 1.623c-2.465.823-4.934 1.475-7.334 1.89-4.104.725-7.262-.952-7.262-5.985 0-1.37.097-3.49.267-6.188.044-.7.092-1.428.144-2.178a454.427 454.427 0 0 1 .408-5.384l.137-1.643 1.564-.521a19.215 19.215 0 0 1 2.03-.526z" fill="#FFF" fill-rule="nonzero"/><path d="M42.8 153.094c-11.73-11.117-16.214-23.233-17.415-27.1-3.4-2.414-7.427-7.07-10.664-11.422.109 3.609.325 7.315.722 9.82 3.032.252 8.018 1.475 10.997 6.506 2.128 3.627 2.338 7.733.613 11.883a18.462 18.462 0 0 1-1.708 3.167l4.039 5.726c1.417-.44 3.377-.878 5.567-.878 2.472 0 5.238.558 7.85 2.298zm51.92 28.156c1.524-3.198 5.19-9.212 11.311-9.477 6.46-.282 8.608.67 12.66 3.689l4.07-1.56c.296-1.441.913-3.468 2.186-5.255-.293.011-.583.021-.868.028-9.059.218-21.542-2.478-28.74-7.878-5.882 5.244-13.14 7.815-21.136 7.454-7.268-.325-15.18-3.121-22.284-7.872a69.85 69.85 0 0 1-5.594-4.167c4.11 4.671 4.65 10.187 3.58 14.554l6.886 3.614c2.72-2.458 8.578-6.649 15.534-4.968 7.683 1.855 11.807 6.895 12.94 11.838h9.455zm1.86 5.643H79.948v-2.821c0-2.606-1.884-7.47-8.946-9.174-6.008-1.448-11.492 4.717-11.547 4.78l-1.462 1.707-15.136-7.946 1.032-2.4c.539-1.253 2.893-7.767-3.737-12.905-4.446-3.437-10.502-.546-10.562-.517l-2.158 1.054-1.397-1.956-7.82-11.09 1.572-1.677c.185-.202 4.71-5.216 1.794-10.184-2.562-4.327-8.034-3.772-8.089-3.77l-2.3.257-.7-2.207c-1.72-5.428-1.49-18.317-1.49-20.11 0-2.54.497-8.25 1.49-17.127 2.208 4.41 14.177 28.235 18.761 30.983l.981.588.295 1.106c.522 1.964 5.652 19.554 24.528 32.205 11.073 7.407 26.905 11.125 38.124-.651l1.994-2.093 2.042 2.045c4.163 4.163 15.319 8.3 26.73 8.043 6.971-.163 25.233-11.022 32.573-19.085l-3.786 12.098c-4.137 8.574-12.388 13.149-12.737 13.339l-.55.3-.625.04c-1.217.075-2.184.096-3.038.116-2.125.047-3.004.067-4.773.836-2.55 1.114-2.881 5.372-2.884 5.414l-.094 1.834-10.258 3.932-1.252-.96c-4.214-3.226-4.86-3.726-10.246-3.485-3.513.15-6.336 5.698-7.048 7.63l-.68 1.846-1.968.005z" fill="#FEFEFE"/><path d="M138.814 17.012c-3.244-4.672-18.074-13.745-28.872-4.708-7.58-1.79-16.28 2.54-16.28 2.54-1.084-1.79-21.251-5.784-42.572 8.671 0 0-6.506-2.54-8.665-4.333-2.169-1.8-5.791-3.254-9.043-2.17-3.244 1.085-8.322 5.08-11.203 10.123C6.304 33.263 1.974 49.143 5.219 56.02c3.253 6.874 6.877 9.038 9.75 6.874 2.882-2.17 7.959-8.668 7.959-8.668l.705 4.704c-3.957 3.964-13.027 16.996-12.287 31.422.75 14.425 7.616 23.127 18.448 32.13.37 9.042 19.806 37.213 43.296 40.462 10.118.37 17.699-5.078 21.656-10.497 7.21 6.164 20.917 12.256 35.747 9.753 14.825-2.505 20.571-11.547 20.571-11.547 13.003 6.129 18.414 5.383 26.374-5.789 12.286 0 13.026-14.764 10.119-23.092 13.705-6.498 7.95-20.25 2.167-22.413 1.42-7.213-5.627-17.962-7.046-19.046.37 2.879-1.759 6.463-1.759 6.463l-3.243-3.964c2.634-5.837-.582-10.54-7.449-13.42 3.623-9.752-2.203-22.008-12.657-23.462-2.168-3.25-4.337-7.244-4.337-7.244 2.169-5.758 2.169-13.34-4.327-19.134-2.169-1.794-10.092-2.54-10.092-2.54" fill="#542988"/><path d="M91.25 16.306l.005.006-.005-.006zM73.334 160.13c11.193.36 17.465-7.06 19.134-9.347l1.796-2.458 2.315 1.977c6.652 5.688 19.41 11.488 33.445 9.116 13.276-2.243 18.456-9.966 18.67-10.293l1.343-2.055 2.23 1.031c12.082 5.694 15.928 4.873 22.874-4.874l.842-1.184h1.455c2.92 0 5.052-1.004 6.517-3.07 2.882-4.06 2.635-11.414.939-16.27l-.836-2.394 2.29-1.087c4.638-2.199 7-5.472 6.832-9.466-.169-3.985-2.734-7.115-4.444-7.756l-2.241-.838.462-2.349c.667-3.387-1.187-8.127-3.052-11.648-.272.557-.489.932-.56 1.051l-2.057 3.463-6.903-8.434.72-1.594c.757-1.678.87-3.145.342-4.486-.778-1.977-2.96-3.766-6.31-5.17l-2.497-1.048.944-2.537c1.566-4.219 1.04-9.35-1.371-13.39-2.117-3.544-5.324-5.78-9.032-6.296l-1.255-.174-.702-1.054c-2.214-3.318-4.379-7.297-4.47-7.464l-.615-1.133.454-1.208c1.087-2.885 2.914-10.204-3.508-15.983-.868-.648-4.907-1.543-8.536-1.886l-1.304-.124-.748-1.076c-1.388-2-6.97-6.306-13.582-7.195-4.302-.579-8.061.445-11.163 3.041l-1.084.906-1.374-.324c-6.467-1.528-14.301 2.282-14.38 2.322l-2.32 1.144-1.044-1.717c-2.775-1.095-19.795-3.887-38.878 9.052l-1.228.832-1.38-.54c-1.157-.451-7.051-2.805-9.44-4.79-1.565-1.299-4.22-2.375-6.35-1.664-2.288.765-6.938 4.107-9.647 8.847l-.497.87-.935.36C13.86 33.372 9.976 40.135 8.49 43.847c-1.997 4.992-1.636 9.03-.72 10.97 1.922 4.065 3.76 5.793 4.75 6.036.148.035.354.087.751-.212 2.117-1.594 6.084-6.425 7.434-8.151l4.038-5.168 1.89 12.597-1.005 1.006c-3.2 3.205-12.176 15.464-11.466 29.283.706 13.59 7.194 21.594 17.433 30.105l.965.8.05 1.254c.324 7.9 19.034 34.657 40.723 37.764zm.766 5.654c-.367 0-.737-.006-1.113-.02l-.283-.024c-23.633-3.27-43.658-30.428-45.583-41.819-10.62-8.987-17.803-18.239-18.592-33.423-.484-9.438 2.823-18.086 6.417-24.387a6.21 6.21 0 0 1-3.775.22c-3.15-.777-6.01-3.84-8.501-9.103-1.901-4.029-1.682-9.815.584-15.48 1.776-4.439 6.324-12.42 16.993-16.877 3.352-5.353 8.598-9.316 12.24-10.535 4.482-1.495 9.125.506 11.738 2.674 1.043.866 4.096 2.306 6.546 3.332C71.32 7.032 89.24 10.426 91.25 10.865c1.114.243 1.967.514 2.626.797 2.803-1.155 9.156-3.335 15.345-2.371 4.108-2.986 9.07-4.18 14.447-3.456 7.385.992 13.728 5.244 16.613 8.496 2.812.333 8.18 1.19 10.423 3.047l.08.068c5.99 5.342 8.009 13.101 5.527 20.97a108.67 108.67 0 0 0 2.958 4.954c4.82 1.061 9.065 4.196 11.787 8.756 2.857 4.785 3.758 10.51 2.56 15.757 3.533 1.903 5.961 4.368 7.082 7.217l.08.213 3.612 2.758c2.05 1.564 8.582 11.513 8.336 19.705 3.394 2.333 5.89 6.983 6.09 11.742.235 5.546-2.619 10.417-7.907 13.648 1.488 6 1.352 13.853-2.353 19.074-2.26 3.184-5.571 5.027-9.636 5.382-7.81 10.488-14.28 12.09-27.014 6.514-2.73 3.08-9.25 8.87-20.942 10.847-14.5 2.446-27.803-2.781-35.798-8.616-3.392 3.701-10.368 9.417-21.065 9.417z" fill="#FEFEFE"/><path d="M11.821 104.98c2.169 4.332 10.56 15.98 15.982 19.23.775 2.913 6.39 20.893 25.683 33.824 12.253 8.194 29.414 11.885 41.736-1.05 8.127 8.13 38.453 15.981 54.97-2.164-3.79 7.855-11.547 12.088-11.547 12.088-4.327.27-5.649-.172-8.76 1.182-4.266 1.864-4.575 7.856-4.575 7.856l-7.074 2.712c-4.6-3.524-5.853-4.34-12.083-4.066-6.224.27-9.573 9.48-9.573 9.48H82.767c0-4.334-3.252-10.021-11.105-11.917-7.854-1.896-14.35 5.687-14.35 5.687l-10.833-5.687c1.63-3.792 2.301-10.903-4.6-16.251-5.959-4.607-13.54-.816-13.54-.816l-6.496-9.21s6.224-6.634 2.169-13.543c-3.526-5.956-10.832-5.145-10.832-5.145-1.632-5.145-1.359-22.21-1.359-22.21" fill="#542988"/><path d="M138.814 17.012c-3.244-4.672-18.074-13.745-28.872-4.708-7.58-1.79-16.28 2.54-16.28 2.54-1.084-1.79-21.251-5.784-42.572 8.671 0 0-6.506-2.54-8.665-4.333-2.169-1.8-5.791-3.254-9.043-2.17-3.244 1.085-8.322 5.08-11.203 10.123C6.304 33.263 1.974 49.143 5.219 56.02c3.253 6.874 6.877 9.038 9.75 6.874 2.882-2.17 7.959-8.668 7.959-8.668l.705 4.704c-3.957 3.964-13.027 16.996-12.287 31.422.75 14.425 7.616 23.127 18.448 32.13.37 9.042 19.806 37.213 43.296 40.462 10.118.37 17.699-5.078 21.656-10.497 7.21 6.164 20.917 12.256 35.747 9.753 14.825-2.505 20.571-11.547 20.571-11.547 13.003 6.129 18.414 5.383 26.374-5.789 12.286 0 13.026-14.764 10.119-23.092 13.705-6.498 7.95-20.25 2.167-22.413 1.42-7.213-5.627-17.962-7.046-19.046.37 2.879-1.759 6.463-1.759 6.463l-3.243-3.964c2.634-5.837-.582-10.54-7.449-13.42 3.623-9.752-2.203-22.008-12.657-23.462-2.168-3.25-4.337-7.244-4.337-7.244 2.169-5.758 2.169-13.34-4.327-19.134-2.169-1.794-10.092-2.54-10.092-2.54" fill="#542988"/><path d="M17.203 34.134c-.375 3.76.754 5.643.754 5.643l4.887-.754c.38-3.009 5.646-15.8 12.789-15.424 7.144.377 4.888 7.524.375 11.287-4.513 3.762-11.286 8.277-13.164 11.286-1.877 3.008-5.262 9.403-9.775 10.532-4.513 1.13-6.394-3.01-5.266-8.652 1.128-5.644 9.4-13.918 9.4-13.918m160.961 88.22c3.385.282 5.078.564 5.078.564 2.538 7.337 4.513 11.005-4.514 17.494 0 0-.564-5.643-1.41-9.03-.846-3.385.846-9.028.846-9.028" fill="#F7D21F"/><path d="M174.216 122.354c-2.539 4.797-1.41 8.182-.847 12.133.565 3.95.565 8.465.565 8.465-2.539 3.95-7.898 9.592-20.59 5.078 1.128-1.41 2.256-10.158 2.256-10.158-2.82 0-7.897.283-7.897.283-2.82 8.182-7.616 18.34-24.822 20.032-17.205 1.694-27.641-11.85-27.641-11.85.564-1.41-.283-13.262-3.384-18.904 5.64.281 12.691-6.772 16.923-9.593 4.23-2.822 23.129-15.801 34.129-17.494 11-1.693 32.436-2.257 37.513-.847 5.077 1.411 12.975 5.361 11.282 11.569-1.692 6.207-4.513 10.157-13.539 7.618-9.025-2.54-18.897-5.36-26.513-4.232-7.615 1.128-17.205 1.693-28.205 10.722l.281 6.772c7.053-6.209 23.976-18.342 50.489-9.594" fill="#F7D21F"/><path d="M135.102 73.07c-3.949 2.446-3.005 9.028-.374 9.782 2.632.754 7.334-1.878 9.965-2.443 2.63-.563 15.79-.942 16.734 14.858-4.134 0-20.684 2.257-20.684 2.257-.563-2.067-4.513-11.846-9.59-14.293-.938 3.007-2.066 7.9-2.82 8.465-.754 0-6.016-.186-9.026-2.821-3.01-2.637-12.6-9.598-17.678-11.666-5.076-2.068-9.589.375-14.102 9.029-4.512 8.654-3.2 34.987-1.128 42.323 2.072 7.336 3.76 16.37 2.257 19.941-1.503 3.571-3.95 7.9-11.847 7.71-7.897-.188-27.077-3.01-38.359-34.237-2.257-7.147-2.631-21.819 32.908-44.766l-8.462-.564c-5.452 3.196-28.201 20.505-31.964 34.423-4.703-.19-26.14-21.824-3.575-43.642 3.759 2.257 8.836 3.576 8.836 3.576l2.635-2.258c-2.446-1.318-6.958-6.582-8.087-9.593-1.127-3.011-1.317-9.03.94-10.534 1.691-.19 7.337 2.07 10.533 9.406 2.63-1.129 3.944-13.92 2.44-18.436-1.502-4.515 2.636-8.09 2.636-8.09 3.57 4.327 9.78 9.406 10.154 12.792.374 3.386.374 8.088.374 8.088l5.832-1.504c1.128-3.385-.186-13.356-7.333-20.127 3.569-3.763 25.19-21.821 47.006-6.772l3.384.942.19-1.507c-.939-1.693-8.088-6.771-8.088-6.771l.565-.565c6.958-.187 10.529.378 12.41 1.129 1.882.752 26.139 10.912 37.611 28.78l-.375 1.315-2.071 2.072s-.56 2.446.943 2.633c1.503.187 3.005-.939 4.324-1.692 1.317-.755 6.015-.565 9.025 1.88 3.01 2.444 5.827 6.396 5.452 10.91-.564 2.633-1.499 3.387-2.442 3.387-.942 0-2.261-.005-3.2-1.508-.938-1.503-1.503-4.89-1.503-6.018 0 0-2.634.565-3.01 2.257-.374 1.693 1.693 5.644 1.693 5.644-2.442-.375-12.786.754-12.786.754-.189-3.012-.378-5.459-3.573-7.526-1.503-1.318-.565.379-.375 1.883.19 1.503.569 4.514-.375 5.453-.942.939-4.327.38-6.394-1.504-2.067-1.882-8.458-7.15-16.733-16.93-8.278-9.782-11.099-12.416-17.114-12.98-6.015-.564-10.907 6.396-10.154 14.672l3.195 3.01c-.184-2.82.565-13.355 5.078-13.355 4.512 0 8.086 5.266 8.086 5.266-2.82 6.208-5.64 17.496 3.01 24.267 8.652 6.773 19.056 1.495 20.873 1.13 3.76-.754 4.133 2.067 4.133 2.067m-20.118-57.37c9.59 1.975 25.949 12.98 31.873 19.75 0 0 1.691 0 1.974-.846.281-.846 2.256-8.746-5.641-11.286l-.282 5.079c-2.539-.282-4.513-2.54-5.642-4.515-1.128-1.975-3.384-7.336-7.616-8.746-7.615-2.54-14.666.564-14.666.564m56.693 65.178c-3.103-.282-7.05 4.232-7.334 6.49-.282 2.257 1.693 7.9 1.693 7.9 5.359 0 11.282.847 11.282.847 1.975-2.54 3.385-12.133-5.641-15.237" fill="#F7D21F"/><path d="M102.291 71.284c-7.333-2.54-23.975-.565-37.231 41.195l-.846 1.693-4.795-10.44C70.137 79.466 88.753 60.28 102.29 71.284" fill="#542988"/><path d="M109.343 86.803c-3.76-3.202-6.016-4.515-6.016-4.515-3.01-2.447-6.205 0-7.334 2.067-1.128 2.068-2.07 6.398-2.82 11.476 1.701.904 9.973 1.746 17.756 2.315l-.326 2.147-18.184-.326-.19 12.604c.376 3.2 1.693 7.711 6.206 4.89 4.513-2.822 15.985-10.061 25.574-13.448l-.189-3.482-8.846-.158-.263-1.971c5.283.335 9.73.506 10.802.436 1.128-.186 1.507-3.76 1.507-3.76-2.636-.19-14.632-5.683-17.677-8.275m23.128 1.692c-.938 5.269-3.292 12.697-3.292 12.697 3.195-2.072 8.837-2.637 8.837-2.637 0-3.006-5.545-10.06-5.545-10.06m-19.933-37.998c-2.79-3.257-3.195 4.514-3.195 4.514 1.317-.377 1.882.375 1.882.375l1.128 3.95.749-4.512c3.765 2.07 4.892 12.223 3.385 15.234 0 0 3.759.564 5.64.19 2.636-.565 6.96-2.067 6.96-2.067-1.882-1.504-15.42-16.369-16.55-17.684m33.473 23.137c6.58-1.319 14.287-1.88 18.427.753 4.138 2.632 5.835 1.508 6.584.565.75-.944-.94-3.007-4.513-4.515-3.574-1.508-15.232-.005-18.052.75-2.82.754-2.446 2.447-2.446 2.447m39.77 25.019s-1.41-.283-5.359-1.129c0 0 3.667-7.618 3.95-9.03 1.692 3.387 1.409 10.159 1.409 10.159" fill="#FEFEFE"/><g transform="translate(97.861 176.172)"><mask id="b" fill="#fff"><use xlink:href="#a"/></mask><path d="M18.85 4.752s-3.922 9.548-4.566 10.836c-.644 1.288-4.133 2.367-6.055.644C6.298 14.504.437 8.847.437 8.847c.846-2.57 8.021-14.492 18.413-4.095z" fill="#542988" mask="url(#b)"/></g><path d="M59.754 178.962c2.159-2.17 7.307-5.013 12.313-3.69 5.016 1.318 6.972 6.974 7.175 8.9 0 0-7.616 5.824-9.334 7.35-1.728 1.525-4.337.035-5.623-1.49-1.287-1.526-4.531-11.07-4.531-11.07m-46.301-49.334c6.496-.811 12.453 6.499 8.39 13.543l-1.621 1.085s-6.77-1.085-9.21-1.085c-2.433 0-2.707-1.895-2.433-3.79.264-1.896 4.874-9.753 4.874-9.753" fill="#542988"/><path d="M20.777 136.272l-6.395 3.201 6.585-1.128s-.19-1.323-.19-2.073m-6.91-4.466c4.09.092 6.346 2.539 6.346 2.539l-9.964 5.128s2.114-5.785 3.618-7.667m47.526 47.544c2.067-2.068 7.898-2.633 7.898-2.633l-3.574 12.79s-3.57-5.833-4.324-10.157m10.529-1.883l-3.57 9.973 5.642-8.465c-.38-1.883-2.072-1.508-2.072-1.508m32.908 1.508l3.384 13.165-8.29-6.557s2.649-6.42 4.906-6.608m2.631-.19c1.318-.374 3.01.564 3.01.564l-.564 10.532-2.446-11.096z" fill="#F7D21F"/><path d="M138.373 170.528c-4.125-1.76-10.384-1.08-11.265 7.588 5.544 2.596 6.53 2.35 7.818 2.35 1.287 0 3.217-.222 3.217-1.945 0-1.728.23-7.993.23-7.993" fill="#542988"/><path d="M130.215 173.142c-1.692 1.129-1.503 3.576-1.503 3.576l5.64 2.256-4.137-5.832zm1.128-.374l3.575 3.95-1.133-5.454c-2.067-.19-2.442 1.504-2.442 1.504" fill="#F7D21F"/><path d="M28.613 156.715s8.938-2.98 13.538 1.895c4.602 4.877 2.707 11.107 2.707 11.107s-6.056 2.91-12.729 4.065c-1.894.334-4.327.269-4.327-3.524 0-3.79.81-13.543.81-13.543" fill="#542988"/><path d="M40.521 160.352l-7.708 9.404 9.59-7.146c0-.754-1.882-2.258-1.882-2.258m-10.718-3.011c2.257-.938 9.216 2.068 9.216 2.068l-9.78 11.287.564-12.79" fill="#F7D21F"/></g></svg>