<svg width="200" height="200" xmlns="http://www.w3.org/2000/svg" xmlns:xlink="http://www.w3.org/1999/xlink"><defs><path id="a" d="M0 0h200v136.007H0z"/></defs><g fill="none" fill-rule="evenodd"><g transform="translate(0 32)"><mask id="b" fill="#fff"><use xlink:href="#a"/></mask><path d="M.194.212C1.94-.138 3.832.054 5.608.04c15.164.038 30.327-.032 45.49.032.04 10.744.04 21.491 0 32.235-1.448.03-2.892.044-4.34.082C51.33 42.64 55.99 52.855 60.585 63.096c1.084 2.435 2.123 4.86 3.394 7.203 1.187-2.425 2.217-4.933 3.304-7.408 4.484-10.163 8.935-20.34 13.436-30.494-1.148-.038-2.293-.07-3.441-.105a4208.97 4208.97 0 0 1 0-32.22 8708.81 8708.81 0 0 1 46.347 0c.041 10.734.041 21.473 0 32.205-1.075.05-2.152.097-3.227.153 4.234 10.2 8.574 20.36 12.855 30.543 1.007 2.446 2.014 4.88 3.174 7.256 5.703-12.515 11.428-25.026 17.119-37.544-1.62-.026-3.242-.08-4.866-.126-.158-4.09-.04-8.157-.073-12.25.02-6.745-.038-13.493.024-20.238 17.112-.038 34.225-.04 51.338 0 .041 10.85.041 21.7 0 32.55-2.543.067-5.088-.05-7.628 0-.585.067-1.41.008-1.777.554-.866 1.157-1.374 2.634-1.976 3.944-9.481 20.263-18.96 40.536-28.432 60.805-1.26 2.66-2.567 5.309-3.683 8.037 1.09.059 2.18.108 3.269.158.04 9.952.04 19.906 0 29.857-15.742.041-31.487.041-47.228 0-.041-9.857-.041-19.718 0-29.575 1.16-.038 2.32-.073 3.48-.114L103.99 78.439c-1.236-2.854-2.402-5.767-3.738-8.568-2.05 4.504-3.885 9.1-5.917 13.61-3.206 7.516-6.519 14.986-9.684 22.518 1.148.038 2.296.07 3.444.106.042 9.957.042 19.914 0 29.87-16.035.042-32.073.042-48.108 0-.041-9.85-.041-19.705 0-29.556.98-.053 1.958-.109 2.939-.167-7.775-17.16-15.53-34.338-23.303-51.498-3.05-6.83-6.228-13.604-9.196-20.466-.297-.584-.631-1.324-1.178-1.712-.748-.3-1.667-.25-2.463-.273-2.244.033-4.487.062-6.733.024C-.015 23.33.065 14.33.018 5.333c.008-1.68-.162-3.47.176-5.12" fill="#F8C823" mask="url(#b)"/></g><path d="M5.773 37.791c1.65-.337 3.441-.167 5.12-.176 11.543.047 23.083-.032 34.626.035.04 7.03.04 14.068 0 21.098-2.452.003-4.907.03-7.359.058.72 1.8 1.518 3.565 2.32 5.33 7.852 17.31 15.586 34.687 23.494 51.967 2.225-4.551 4.12-9.27 6.207-13.889 6.363-14.47 12.747-28.934 19.068-43.42-2.128-.026-4.26-.029-6.392-.052-.041-7.03-.041-14.062 0-21.092a5020.29 5020.29 0 0 1 35.189 0c.041 7.027.041 14.06 0 21.083-1.994.03-3.988.032-5.978.1.98 2.969 2.325 5.688 3.505 8.618 4.09 9.699 8.193 19.4 12.286 29.096 2.784 6.516 5.418 13.105 8.336 19.559 1.747-3.538 3.268-7.188 4.963-10.753 6.09-13.384 12.209-26.747 18.305-40.128.936-2.026 1.867-4.052 2.692-6.128-2.648-.026-5.297-.053-7.945-.053-.042-7.13-.042-14.264 0-21.394 13.392-.04 26.788-.04 40.18 0 .041 7.13.041 14.262 0 21.391-2.431-.003-4.86.044-7.29.039-11.999 25.672-24.026 51.347-36.012 77.025-1.136 2.496-2.41 4.915-3.406 7.473 2.158.053 4.32.056 6.48.08.042 6.242.042 12.493 0 18.739-12.02.041-24.048.041-36.07 0-.04-6.146-.04-12.297 0-18.443 2.083-.03 4.162-.027 6.243-.091a56.07 56.07 0 0 0-1.306-3.43c-6.334-14.54-12.547-29.14-18.866-43.686-1.298-2.987-2.514-6.032-3.911-8.97-5.664 12.913-11.176 25.9-16.814 38.83-2.407 5.778-5.044 11.462-7.384 17.27 2.152.047 4.307.05 6.462.074.042 6.146.042 12.3 0 18.446a5535.5 5535.5 0 0 1-36.95 0c-.041-6.146-.041-12.297 0-18.443 1.982-.027 3.964-.03 5.943-.097-.79-2.009-1.677-3.979-2.59-5.937-11.684-25.816-23.49-51.847-35.118-77.663-.356-.622-.643-1.31-1.448-1.395-2.211-.279-4.492-.053-6.721-.103-.08-5.969.038-11.936-.065-17.902.003-1.007-.017-2.08.206-3.066" fill="#59327E"/></g></svg>