<svg width="200" height="200" fill="none" xmlns="http://www.w3.org/2000/svg"><path d="M199.216 112.772a2518.864 2518.864 0 0 1-6.746-7.623c-.223-.394-1.349-2.059-4.055-2.059a7.29 7.29 0 0 0-.783.043l-11.261-9.094c-.028-.538-.086-1.65-.114-2.454-.008-.151 0-.316 0-.496.028-1.256.078-3.366-2.505-4.988-.869-.545-2.577-1.564-4.386-2.655-2.088-1.25-4.241-2.541-5.153-3.13.416-1.098 1.149-3.631.323-6.359-.825-2.72-3.258-5.196-6.057-6.165-2.283-.79-5.132-.904-6.632-.904-.402 0-.725.007-.94.014-.682-.574-2.871-2.246-5.785-2.928-1.106-.259-2.541-.41-4.206-.574-3.531-.366-7.931-.819-11.964-2.584-1.264-.553-2.369-1.105-3.28-1.644a1.232 1.232 0 0 0-.632-.172 1.252 1.252 0 0 0-1.191 1.622c.114.373.236.718.358 1.034-.969-.137-2.16-.201-3.71-.201-.345 0-.689 0-1.034.007h-.459c-3.345 0-6.438-.539-10.35-1.809a3.6 3.6 0 0 0-1.119-.194c-1.335 0-2.075.897-2.319 1.744-.244.84-.265 2.555-.157 3.955-.137-.036-.28-.079-.431-.115-1.378-.38-3.948-1.084-8.074-1.084-3.61 0-7.694.546-12.13 1.623-.359.086-.962.25-1.801.48-4.644 1.278-15.51 4.264-23.219 4.4a1.254 1.254 0 0 0-.847 2.146c1.407 1.37 4.3 3.589 6.567 4.873a389.57 389.57 0 0 1-8.662 3.1c-2.627.876-9.568 2.886-17.98 2.886-2.145 0-4.263-.136-6.286-.402a1.398 1.398 0 0 0-.166-.014c-.394 0-.775.194-1.012.51a1.233 1.233 0 0 0-.179 1.112c.553 1.744 2.225 7.012 11.634 8.921-2.842 2.512-12.388 10.048-31.572 17.075-.481.179-.804.624-.819 1.141-.014.517.28.976.754 1.177 2.62 1.12 8.11 3.036 15.711 3.388-2.986 3.208-12.488 12.883-25.974 21.582-.452.294-.66.818-.539 1.342.13.524.553.897 1.091.947 2.77.28 8.398.739 14.922.739 5.131 0 9.797-.287 13.852-.861 11.584-1.636 26.16-5.282 31.644-6.66.976-.244 1.687-.424 1.866-.46.086-.014.23-.05.43-.1 5.032-1.192 10.436-1.795 16.05-1.795 5.353 0 10.736.56 15.99 1.666 10.974 2.311 21.115 3.66 30.137 4.012H126.066c.352 0 .689-.151.926-.409.237-.259.352-.611.323-.962-.222-2.261-.488-9.862 5.204-12.984.416.029 1.485.101 2.971.101 1.722 0 4.392-.094 7.314-.539 4.758-.724 8.052-2.296 9.064-2.82l15.762 6.775.567 2.376c.086.359.323.653.645.825l9.962 5.089c.209.129 1.386.804 2.814.983.28.036.588.057.904.057 1.012 0 2.003-.179 2.598-.287.122-.021.23-.043.316-.057 5.663-.912 8.103-1.357 8.706-1.586 1.17-.445 2.125-2.039 2.053-2.979-.036-.445-.23-1.765-.352-2.562l2.634-3.215c.244-.295.338-.682.259-1.055l-.524-2.419 1.478-4.134c.058-.079.904-2.663-.474-4.213Zm-7.299-7.163 3.481 3.94c-1.629-1.837-3.215-3.639-3.481-3.94-.021-.029-.043-.05-.057-.086a.263.263 0 0 0 .057.086Zm-.143-.215c-.008-.008-.008-.015-.015-.022.007.007.007.014.015.022Zm-.165-.223a.196.196 0 0 0-.029-.036.115.115 0 0 0 .029.036Zm-.259-.28c-.014-.014-.028-.029-.05-.043.014.014.036.029.05.043Zm-2.871-1.076h-.15c.028 0 .057-.008.079-.008.028.008.05.008.071.008Zm2.505.767c-.014-.014-.036-.021-.05-.035.021.014.036.028.05.035Zm-.474-.294c-.007-.007-.021-.007-.028-.014.014.007.021.007.028.014Zm-.545-.229Zm-.667-.166c-.036-.007-.065-.014-.101-.014.036 0 .065.007.101.014ZM163.854 74.18c.201.66.302 1.306.33 1.923a9.699 9.699 0 0 1-.366 3.137 10.32 10.32 0 0 1-.323.969.534.534 0 0 0 .201.646c1.508.983 7.766 4.665 9.682 5.87 2.606 1.637 2.118 3.754 2.161 4.903.036.854.093 2.045.122 2.547.007.151.079.288.194.388l11.383 9.201-11.383-9.2a.535.535 0 0 1-.194-.388c-.029-.503-.086-1.694-.122-2.548-.043-1.149.445-3.266-2.161-4.902-1.916-1.199-8.167-4.888-9.682-5.871a.532.532 0 0 1-.201-.646 8.14 8.14 0 0 0 .323-.97c.23-.803.431-1.908.366-3.136a7.747 7.747 0 0 0-.33-1.923c-.804-2.649-3.179-4.86-5.605-5.699 2.426.84 4.801 3.043 5.605 5.699Zm23.628 29.67c-.022-.007-.043-.007-.065-.007.022 0 .043 0 .065.007ZM152.45 67.62h.079-.079Zm.646.021c.05 0 .093.007.143.007-.05 0-.093-.007-.143-.007Zm.832.05c.043 0 .086.008.129.008-.043 0-.086-.007-.129-.007Zm.783.065c.05.007.093.007.143.015-.05 0-.093-.008-.143-.015Zm.897.115c.057.007.115.014.172.029-.065-.015-.122-.022-.172-.029Zm.868.15a.431.431 0 0 0 .093.015.355.355 0 0 0-.093-.014Zm.854.187c.058.015.115.03.172.05-.057-.014-.114-.035-.172-.05Zm-5.433-.595h-.165H151.897Zm-.84.014c-.071 0-.136.007-.193.007.057 0 .122-.007.193-.007Zm.531-.007h-.201.201Zm-.287 0c-.071 0-.136 0-.201.007.065-.007.13-.007.201-.007Zm-15.711-4.163c.761.13 1.5.237 2.225.33 2.9.373 5.455.51 7.135.897 1.428.33 2.669.912 3.624 1.479-.955-.56-2.196-1.141-3.624-1.479-1.68-.387-4.242-.53-7.135-.897a58.043 58.043 0 0 1-2.225-.33 35 35 0 0 1-3.466-.76c1.17.315 2.332.566 3.466.76Zm15.137 4.156c-.021-.007-.043-.007-.064-.015.021.008.043.008.064.015Zm-22.615-6.38c-.359-.166-.689-.317-.991-.467.302.15.632.308.991.466Zm-2.189-1.085c.229.122.481.259.761.402-.28-.143-.532-.272-.761-.402-.23-.122-.431-.244-.61-.344a.444.444 0 0 0-.151-.058c.05.015.1.03.151.058.179.107.38.222.61.344Zm1.062 69.103a17.986 17.986 0 0 0-.409 2.669c.072-.832.201-1.744.409-2.669Zm-1.88-67.208c0-.014.007-.029 0-.036v.036Zm-.015.08c-.007.013-.014.028-.021.035.007-.014.014-.022.021-.036Zm-.416.279c-.014 0-.029.007-.043.007.014 0 .029-.007.043-.007Zm.359-.187c-.007.015-.022.022-.036.036.014-.007.021-.021.036-.036Zm-.094.086c-.014.008-.028.022-.043.03.015-.015.029-.022.043-.03Zm-.122.058Zm.295-2.62c-.029-.007-.058-.007-.086-.007.007 0 .014-.007.014-.007.029.007.05.007.072.014Zm-.295.043c-.014.008-.021.015-.035.022a.149.149 0 0 0 .035-.022Zm-.179.144-.022.021.022-.021Zm-.108.215c-.007.015-.007.029-.007.05 0-.021 0-.035.007-.05Zm-.222 2.268Zm-1.342-.143c-.251-.015-.503-.036-.761-.043.258.007.51.028.761.043Zm-1.163-.058Zm-1.306-.021h.136c-.387 0-.775 0-1.163.007.345-.007.689-.007 1.027-.007Zm-1.945 0c-.201 0-.402-.008-.596-.015.201.008.402.015.596.015Zm-1.292-.043c-.194-.015-.388-.022-.589-.036.201.014.395.021.589.036Zm-1.292-.108c-.194-.022-.388-.036-.581-.065.193.03.387.043.581.065Zm-1.313-.165c-.194-.029-.381-.058-.575-.086l.575.086Zm-1.35-.237a79.675 79.675 0 0 0-.567-.108c.194.043.381.072.567.108Zm-1.392-.301c-.18-.044-.359-.08-.546-.13.18.05.359.086.546.13Zm-1.507-.388-.481-.13c.172.044.323.087.481.13Zm-2.642-.725a1.502 1.502 0 0 0-.308-.014c.028 0 .05-.007.079-.007.071 0 .15.014.229.021Zm.668.136a3.322 3.322 0 0 0-.517-.122c.165.022.33.058.517.122Zm-1.78.072a1.727 1.727 0 0 1 0 0Zm.675-.215c-.094.007-.18.021-.259.043.079-.014.165-.029.259-.043Zm-.374.079a1.42 1.42 0 0 0-.258.115c.086-.043.165-.086.258-.115Zm-.947.883Zm.337-.495Zm-.201.243Zm-.315 4.737a.49.49 0 0 1 0 .144v-.144Zm-.015.18c-.007.021-.014.05-.029.064.015-.014.022-.043.029-.064Zm-.395.143c.036.008.072.008.108.008-.029.007-.065 0-.108-.008Zm.158.008a.355.355 0 0 0 .086-.015c-.021.015-.05.015-.086.015Zm.13-.022c.021-.007.035-.021.057-.036-.022.014-.036.029-.057.036Zm-.345.014c-.05-.007-.108-.021-.172-.035.064.014.122.021.172.035Zm-.208-.043Zm-.323-.079c-.079-.021-.158-.043-.244-.064.086.021.165.043.244.064Zm-.524-.143c-.057-.014-.115-.029-.172-.05.057.021.115.035.172.05Zm-.416-.115c-.058-.014-.122-.029-.18-.05a2.3 2.3 0 0 0 .18.05Zm-.438-.108c-.065-.014-.136-.035-.201-.05.065.015.136.029.201.05Zm-.488-.122c-.072-.014-.151-.035-.223-.05.072.022.151.036.223.05Zm-.546-.115c-.079-.014-.158-.035-.236-.05.078.015.157.036.236.05Zm-.603-.114c-.078-.015-.165-.029-.251-.043.094.014.173.028.251.043Zm-.674-.115Zm-.804-.115a8.97 8.97 0 0 0-.158-.022.642.642 0 0 0 .158.022Zm-.933-.093c-.065-.007-.136-.007-.201-.015.065 0 .136.008.2.015Zm-.833-.065c-.107-.007-.215-.007-.323-.014.108 0 .216.007.323.014Zm-.897-.043c-.129-.007-.258-.007-.387-.007.136 0 .265.007.387.007Zm-.954-.014h-.395c.079 0 .165-.007.237-.007.05 0 .1.007.158.007Zm-30.353 66.977c-.265.051-.51.101-.74.144.23-.043.475-.093.74-.144Zm13.307-1.234c-.452 0-.905.007-1.342.014.445-.007.89-.007 1.342-.014Zm5.584.187Zm-1.737-.101c-.567-.029-1.127-.043-1.68-.057.553.014 1.113.028 1.68.057Zm-2.153-.072a69.276 69.276 0 0 0-1.192-.014c.395.007.79.007 1.192.014Zm14.246-65.743c-.136 0-.28.007-.423.014.143-.007.28-.014.423-.014Zm-1.213.05-.409.022.41-.022Zm-1.507.108c-.05.007-.1.007-.15.014.05-.007.093-.007.15-.014Zm-1.486.158a9.987 9.987 0 0 0-.43.057c.15-.014.294-.036.43-.057Zm-1.413.2-.539.087c.18-.036.36-.065.539-.086Zm-1.522.252c-.187.036-.38.065-.574.108.2-.043.387-.072.574-.108Zm-1.665.323-.517.108c.18-.043.345-.072.517-.108Zm-8.699 64.66Zm-1.895.071Zm-1.492.086c-.41.029-.804.058-1.192.094.388-.036.782-.072 1.192-.094Zm-1.35.101Zm-1.608.158c-.308.036-.61.064-.904.1.294-.036.596-.071.904-.1Zm-1.234.143Zm-1.098.144Zm-1.285.201c-.244.043-.48.079-.71.122.23-.043.466-.086.71-.122Zm-.954.158c-.273.05-.539.093-.79.143.251-.05.517-.093.79-.143Zm-1.752.337c-.172.036-.33.072-.48.101.15-.036.308-.065.48-.101Zm-.638.136c-.388.087-.704.158-.955.216.251-.058.574-.137.955-.216Zm-4.379 1.048c-.107.029-.208.051-.323.079a3.3 3.3 0 0 0 .323-.079ZM56.7 81.285c-.058.022-.144.05-.237.08.093-.037.18-.065.236-.08Zm2.138 52.157c-.122.029-.25.065-.38.093a6.58 6.58 0 0 0 .38-.093ZM41.978 84.099c.502-.029.998-.072 1.478-.115-.488.043-.976.079-1.478.115Zm-3.366.107Zm1.823-.035c.502-.022.998-.044 1.486-.072-.488.028-.99.057-1.486.072Zm15.962-2.792c-.108.035-.23.078-.373.122.143-.044.265-.087.373-.122Zm-.452.15c-.144.043-.309.094-.488.151.186-.057.344-.108.488-.15Zm-.531.158c-.187.058-.395.115-.61.18.222-.058.43-.122.61-.18Zm-.74.223-.724.2.724-.2Zm-.84.23c-.25.064-.516.136-.796.207.273-.064.546-.136.797-.208Zm-.89.236c-.294.072-.602.15-.925.223.316-.08.632-.151.926-.223Zm-1.126.266c-.33.079-.667.15-1.026.23.358-.072.696-.151 1.026-.23Zm-1.148.258Zm-1.22.244Zm-1.436.251Zm-1.385.216a55.9 55.9 0 0 1-1.278.165c.43-.043.862-.1 1.278-.165Zm-1.507.2Zm-13.013-.007c.488.065.977.115 1.457.165-.48-.05-.969-.1-1.457-.164a.533.533 0 0 0-.186.021c.036-.007.072-.029.115-.029.021 0 .05 0 .071.008Zm6.166.402Zm-1.443-.028Zm-1.68-.08Zm-3.33-.25c-.05.021-.086.057-.122.086.036-.03.072-.065.122-.087Zm-.2.15c-.037.043-.05.093-.073.151.022-.05.036-.1.072-.15Zm-.108.23ZM42.696 94.39c-.029.029-.058.05-.086.079.028-.029.057-.058.086-.08Zm-8.11 5.856c1.234-.767 2.34-1.5 3.315-2.174a69.13 69.13 0 0 0 3.187-2.347 60.005 60.005 0 0 1-3.187 2.347c-.976.674-2.081 1.4-3.316 2.174Zm7.536-5.368c-.144.122-.295.244-.46.38.165-.136.316-.258.46-.38Zm-15.273 9.718c-1.292.66-2.663 1.328-4.113 2.002a141.372 141.372 0 0 0 4.113-2.002Zm-.438 35.254c-.043.007-.08.007-.122.015.043-.008.079-.008.122-.015Zm-5.154-32.577Zm1.701 32.843c-.057 0-.107.007-.165.007.05 0 .108 0 .165-.007Zm-3.452.151c-.05 0-.1 0-.15.007.05-.007.1-.007.15-.007Zm-4.65.035h-.173.172Zm-1.113-.014c-.122 0-.244-.007-.366-.007.122.007.244.007.366.007Zm-1.098-.021c-.13 0-.266-.008-.395-.008.13 0 .258.008.395.008Zm-1.091-.029c-.122-.007-.244-.007-.359-.014.115.007.237.014.359.014Zm-1.113-.036c-.093-.007-.186-.007-.28-.007.094 0 .187 0 .28.007Zm-1.284-.057H9.12h.036Zm-.955-.051c-.093-.007-.187-.007-.28-.014.093.007.187.014.28.014Zm-.926-.05-.308-.021c.1.014.208.014.308.021Zm-.904-.05a26.38 26.38 0 0 1-.28-.022c.086.008.187.015.28.022Zm-.883-.065c-.079-.007-.158-.007-.23-.014.072.007.151.014.23.014Zm-1.012-.072h-.014.014Zm-.725-.057c-.072-.007-.136-.014-.2-.014.064.007.128.007.2.014Zm-.682-.057-.215-.022c.072.014.144.014.215.022Zm-.638-.058a1.803 1.803 0 0 0-.194-.014c.064.007.129.014.194.014Zm-.582-.05c-.057-.007-.115-.007-.165-.014.058.007.115.007.165.014Zm14.132.675h.122-.122Zm26.11-3.036c.92-.187 1.831-.381 2.735-.574-.904.193-1.816.38-2.734.574Zm20.772-4.831c.2-.05.344-.079.416-.1-.079.014-.215.05-.416.1Zm.739-.172c-.043.007-.093.022-.13.029.037-.007.08-.014.13-.029Zm30.438-.538Zm-8.224-1.062 1.306.107-1.306-.107Zm1.858.165c.61.057 1.22.129 1.845.208a42.22 42.22 0 0 0-1.845-.208Zm2.01.222Zm2.333.33c.473.072.947.151 1.42.237l-1.42-.237Zm34.041 4.73c.05 0 .093-.014.144-.029-.043.008-.079.029-.122.029h-.022Zm.23-.043c.043-.021.072-.05.107-.079-.035.029-.064.058-.107.079Zm.179-.129a.383.383 0 0 0 .079-.129c-.029.05-.05.093-.079.129Zm.108-.187a.622.622 0 0 0 .029-.229.479.479 0 0 1-.029.229Zm1.579-9.739c.861-1.651 2.153-3.158 4.076-4.199a.518.518 0 0 1 .23-.057.633.633 0 0 0-.23.057c-1.923 1.048-3.215 2.555-4.076 4.199Zm4.378-4.256c.05.007.108.007.179.014a1.82 1.82 0 0 0-.179-.014Zm.258.014c.058.007.122.007.194.014-.079-.007-.136-.007-.194-.014Zm.295.022c.071.007.143.007.215.014-.079-.007-.151-.014-.215-.014Zm.358.014c.079 0 .158.007.244.007-.086 0-.165 0-.244-.007Zm.417.022c.086 0 .179.007.272.007-.093 0-.179-.007-.272-.007Zm.481.014c.1 0 .201.007.301.007-.1-.007-.201-.007-.301-.007Zm.524.007h.358-.358Zm.581.007h.251-.251Zm2.605-.072Zm-.825.036a4.557 4.557 0 0 1-.33.008c.107 0 .215 0 .33-.008Zm-.782.022c-.101 0-.201.007-.302.007.101 0 .201-.007.302-.007Zm2.102-.086.374-.022-.374.022Zm.89-.058c.13-.007.252-.021.381-.028-.122.007-.251.014-.381.028Zm.948-.086c.122-.014.251-.021.373-.036-.129.015-.251.022-.373.036Zm1.012-.115c.107-.014.215-.021.323-.036-.108.015-.216.022-.323.036Zm3.84-.667c3.402-.804 5.691-1.931 6.387-2.297a.464.464 0 0 1 .237-.057.547.547 0 0 0-.237.057c-.696.366-2.985 1.493-6.387 2.297Zm37.221 13.759h.244c-.051 0-.108.007-.158.007-.036 0-.058-.007-.086-.007Zm.409 0 .351-.022-.351.022Zm.488-.036c.158-.015.308-.029.459-.051-.151.022-.301.036-.459.051Zm.531-.058c.129-.014.251-.036.366-.05a4.63 4.63 0 0 1-.366.05Zm.509-.071c.094-.015.187-.029.266-.044a18.55 18.55 0 0 1-.266.044Zm.402-.072c.094-.015.194-.036.273-.05a2.982 2.982 0 0 1-.273.05Zm9.115-1.637c-.653.252-4.378.876-8.562 1.543h-.007.007c4.177-.674 7.909-1.299 8.562-1.543a1.93 1.93 0 0 0 .646-.423c-.201.186-.416.33-.646.423Zm5.218-16.313c-.057.229-.1.373-.1.373l-1.493 4.184a.516.516 0 0 0-.022.294l.532 2.469a.547.547 0 0 1-.108.452l-2.692 3.28a.54.54 0 0 0-.114.417c.093.588.323 2.131.358 2.591.029.359-.236 1.012-.667 1.536.431-.524.696-1.177.667-1.536-.035-.46-.272-2.003-.358-2.591a.54.54 0 0 1 .114-.417l2.692-3.28a.536.536 0 0 0 .108-.452l-.532-2.469a.52.52 0 0 1 .022-.294l1.493-4.184s.05-.144.1-.373c.108-.467.244-1.292.072-2.075.172.775.043 1.608-.072 2.075Z" fill="#fff"/><path d="m169.503 123.868-17.857-7.931s-8.448 5.017-18.941 2.785c0 0-8.914 5.289-8.174 14.857 0 0-13.278-.374-25.25-3.474-7.766-2.01-24.259-3.467-36.044-.46-11.785 3.008-39.74 10.63-57.296 7.852 0 0 16.034-10.091 26.88-23.699-9.532-.1-16.688-2.218-16.688-2.218s20.792-7.521 32.39-19.974c0 0-10.327-.007-13.916-5.914 0 0 10.666 2.613 25.766-3.718 2.649-1.105 10.895-4.385 10.895-4.385-5.92-2.54-8.792-4.809-8.792-4.809 20.628-1.047 27.453-11.24 49.136-2.749 0 0-2.584-1.858-3.625-3.76-1.062-1.938-1.213-3.596-1.213-3.596s3.467.825 6.625 1.292c3.158.466 8.634.186 9.933.373 1.299.187 4.873.833 4.873.833s-1.765-1.938-2.232-3.424c0 0 7.35 3.33 10.78 3.89 3.438.56 8.491 1.392 10.816 2.785 2.326 1.392 3.467 1.392 3.467 1.392s7.156-.53 9.905 2.405c2.784 2.97 1.198 6.94-.288 8.978l11.369 6.582s1.493.653 1.493 2.598c0 1.945.38 4.507.38 4.507l12.812 10.393s2.971.007 3.804.847c.832.839 6.667 7.586 6.667 7.586s.94.653.661 1.579c-.28.926-2.139 5.383-2.139 5.383l.746 1.579s.079 1.414-.38 2.067c-.46.653-1.744 2.024-1.744 2.024l-.833.926.926 2.045s-.466 1.486-1.579 1.859c-1.112.373-9.474 1.766-9.474 1.766s-1.019.28-2.598-.373c-1.579-.654-10.285-5.757-10.285-5.757l-.976-2.942Z" fill="#fff"/><path d="M116.851 107.425c-12.582 3.947-21.61 16.45-22.845 21.747 0 0 5.132.875 7.428 1.371 2.505.545 5.692 1.091 8.34 1.421 0 0-1.148-1.63-.057-5.319.897-3.036 3.581-9.036 10.888-12.832-2.85-2.369-3.754-6.388-3.754-6.388ZM172.008 118.621c2.77.538 8.404 6.381 11.246 9.022l11.771-1.723-1.098 2.268s-9.28 1.558-11.01 1.924c-1.916-.646-8.95-3.747-10.996-5.34 0 0-1.055-2.986-1.593-5.376 0 0 3.861 3.991 5.426 4.902-.983-1.83-3.746-5.677-3.746-5.677ZM164.859 111.982c3.474.89 7.508 3.697 7.508 3.697-3.029-.876-4.816-1.314-5.95-.531-1.134.789-.194 4.349-.194 4.349-.574-1.629-3.897-5.943-3.897-5.943.682-.753 2.533-1.572 2.533-1.572Z" fill="#511B00"/><path d="M90.826 85.943c10.874-5.017 21.661-9.43 33.381-8.921.74.036-.689.057-2.469-4.005-2.598-5.921-10.722-2.584-11.447-7.88-.022-.144.129-.237.258-.173 5.053 2.706 17.319-.71 24.065 7.357 1.845 2.017 1.278 4.156.402 5.85-.05.1 0 .215.108.243 3.23.775 6.553 1.773 8.943 2.52.186.057.287-.158.15-.302-1.392-1.514-3.825-3.093-4.665-3.933-.129-.13.022-.359.187-.287 5.641 2.297 9.732 4.457 14.462 7.4.287.179.653-.072.581-.402-.215-.976-.423-2.082-.689-2.886-.05-.157.115-.287.251-.2 2.304 1.456 13.673 8.246 15.912 9.667.252.158.402.43.409.725l.087 4.005c0 .05.021.1.064.13 3.962 3.215 8.771 7.241 14.261 12.38a.19.19 0 0 0 .137.05c.409-.05 2.368-.251 3.696.237.029.007.043.021.065.043.38.38 4.736 4.744 6.366 7.385.028.051.036.108.007.158l-2.247 6.517c-.021.05-1.478.194-1.916.28-.129.022 1.924-6.388 1.924-6.388a.182.182 0 0 0-.043-.186l-4.702-4.407c-.028-.022-.057-.043-.093-.043-1.263-.223-2.655-.251-3.789-.302-.165-.007-.244.187-.13.302 1.134 1.041 4.486 4.392 3.589 6.868a.902.902 0 0 1-.022.044c-.366.667-1.011 1.09-1.758 1.299-1.766.358-5.34-1.235-7.019-2.699a.174.174 0 0 0-.28.187c.258.839.66 1.593 1.141 2.361-3.467-2.577-5.498-6.345-5.605-10.45 0-.036.007-.065.021-.101.438-.904 1.651-.696 2.814-.603.193.015.258-.251.086-.33-1.816-.861-5.06-2.196-6.89-2.619a.158.158 0 0 0-.194.1c-.115.28-.373.991-.517 1.952-.021.13-.158.194-.266.122-2.957-1.952-6.021-3.036-6.595-3.28-.079-.036-.165-.007-.216.072-.15.244-.452.847-.481 1.802a.2.2 0 0 0 .044.129c.222.237 1.184 1.306 2.21 2.971.093.158-.086.33-.244.244-3.402-1.974-6.036-3.567-9.309-5.332-.05-.029-.093-.087-.093-.144-.093-.976.38-1.737.617-2.053a.173.173 0 0 0-.05-.258c-2.01-1.091-6.287-3.28-8.699-4.543a2.228 2.228 0 0 0-1.687-.158 79.71 79.71 0 0 1-3.244.89.557.557 0 0 0-.215.969c1.83 1.543 3.129 3.186 3.33 5.002.596 2.864-.294 5.103-2.433 6.761-.007.007-.014.015-.021.015-2.771 1.808-7.723 2.074-11.958.631.008 0 .008.007.015.007a.496.496 0 0 1-.072-.028c-.165-.058-.33-.122-.495-.18l-.438-.172c-.136-.058-.273-.115-.409-.18-.18-.078-.352-.165-.524-.251-.108-.057-.215-.107-.323-.165-.28-.151-.553-.301-.811-.466-8.024-4.034-5.928-17.556-3.933-20.434.072-.108 0-.251-.129-.265a24.913 24.913 0 0 0-3.237-.058.149.149 0 0 0-.129.072c-1.041 1.457-2.139 4.342-2.362 4.924a.161.161 0 0 1-.15.107c-15.295.452-34.221 13.041-44.32 25.673-1.328 1.658-7.12 8.828-8.447 10.328-16.537 4.658-39.59 9.704-54.562 8.914-1.37-.072-7.22-.416-.667-1.163 37.156-4.241 52.81-38.254 81.411-51.446ZM158.78 79.025a18.811 18.811 0 0 0-4.78-6.783c8.735 1.407 4.873 6.732 4.873 6.732l-.093.05Z" fill="#511B00"/><path d="m161.565 93.63-14.11-8.312-2.046.474c.007 0 5.29 13.515 16.156 7.838Z" fill="#fff"/><path d="M154.46 92.51a3.28 3.28 0 1 0 0-6.56 3.28 3.28 0 0 0 0 6.56Z" fill="#511B00"/><path d="M178.517 110.138c-.258 0-.358.287-.208.76.811 2.333 2.469 5.096 5.29 5.836.588.064 1.701.186 1.78-.445.187-2.225-2.404-2.8-3.897-3.941-.072-.064-.158-.15-.23-.222.567-.309 1.622.036 2.29.064-1.364-1.27-3.029-2.052-5.025-2.052Z" fill="#fff"/><path d="M71.505 75.192c.99.272 2.9.595 4.486.674 8.756.416 15.072-2.72 23.943-1.04 4.974.94 6.079 2.526 6.079 2.526l4.759-1.163s-2.132-2.469-7.551-3.574c-4.909-1.005-9.718-1.04-14.369.022-4.643 1.062-12.452 2.232-16.665 1.672-3.366-.452-2.835.287-.682.883ZM49.256 88.93s2.914 1.27 10.206-.955c14.527-4.421 23.16-.56 23.16-.56l4.43-2.404s-2.506-2.333-9.927-2.477c-7.112-.136-11.54 1.479-12.76 1.924-2.147.797-8.728 3.962-13.595 3.703-3.581-.193-1.514.768-1.514.768ZM65.993 99.048s-8.146-4.292-26.103 7.264c-5.735 3.689-11.362 4.737-12.36 4.737-.997 0-1.952-.51-.15-.998 1.995-.546 6.617-1.852 15.172-8.031 4.328-3.13 13.264-7.041 19.558-7.86 5.598-.724 8.419 1.27 8.419 1.27l-4.536 3.618ZM51.08 112.758s-4.386-.28-9.798 3.869c-5.411 4.155-9.596 7.902-10.967 8.971-1.7 1.321-5.756 4.651-7.026 5.483-1.148.747-1.644.029-.639-.667 1.005-.696 5.828-4.802 12.56-11.469 1.773-1.751 9.187-9.596 19.874-9.682l-4.005 3.495ZM149.407 76.383c1.091.668.883-.947.244-2.232-.833-1.665-1.73-4.191-9.273-5.476-2.591-.438-4.787-.825-6.338-1.005-1.945-.222-2.088.208-.287 1.026 2.613 1.206 11.62 5.233 15.654 7.687Z" fill="#511B00"/><path d="M158.249 68.48c2.426.84 4.802 3.044 5.606 5.7.796 2.634.014 5.088-.359 6.028a.532.532 0 0 0 .201.647c1.507.983 7.765 4.665 9.682 5.87 2.605 1.637 2.117 3.754 2.16 4.902.036.855.093 2.046.122 2.548.007.151.079.287.194.388l11.383 9.201a.547.547 0 0 0 .402.115c2.942-.352 4.048 1.371 4.213 1.665.014.029.036.057.057.086.474.531 5.118 5.799 6.761 7.637 1.12 1.256.352 3.531.352 3.531l-1.493 4.184a.52.52 0 0 0-.022.295l.532 2.468a.55.55 0 0 1-.108.453l-2.692 3.28a.536.536 0 0 0-.114.416c.093.588.323 2.132.359 2.591.043.574-.661 1.902-1.587 2.254-.653.251-4.378.875-8.562 1.543-.617.1-2.232.466-3.617.287-1.307-.165-2.419-.818-2.548-.897a.054.054 0 0 0-.029-.015l-9.962-5.088a.543.543 0 0 1-.273-.352l-.588-2.462a.524.524 0 0 0-.302-.359l-15.933-6.847a.535.535 0 0 0-.467.015c-.854.459-4.119 2.059-8.914 2.791-5.024.768-9.316.496-10.177.431a.552.552 0 0 0-.301.065c-6.159 3.337-5.85 11.426-5.627 13.708a.542.542 0 0 1-.553.589c-11.527-.445-22.723-2.462-30.015-3.998-18.044-3.797-31.587-.014-32.757.222-1.17.237-19.637 5.154-33.467 7.106-11.312 1.6-24.26.553-28.602.122-.502-.05-.653-.703-.23-.976 13.982-9.051 23.671-19.077 26.384-22.02.309-.33.08-.868-.373-.89-7.866-.308-13.529-2.347-15.862-3.352-.445-.186-.423-.818.03-.983 19.844-7.27 29.404-15.036 32.088-17.47a.53.53 0 0 0-.265-.91c-9.237-1.752-10.874-6.69-11.44-8.498a.533.533 0 0 1 .58-.69c12.324 1.615 23.255-2.074 24.583-2.519 1.184-.395 6.746-2.361 9.072-3.251a.535.535 0 0 0 .057-.969c-2.268-1.227-5.368-3.603-6.754-4.952a.53.53 0 0 1 .36-.912c9.193-.165 22.852-4.342 25.17-4.902 16.558-4.019 21.395.99 21.223-.638-.173-1.63-.129-3.51.086-4.235.215-.725.94-1.586 2.526-1.07 4.192 1.357 7.493 1.895 11.039 1.838 1.722-.029 3.466 0 4.837.215.431.065.94-.136.761-.53-.208-.467-.388-.991-.538-1.45a.53.53 0 0 1 .775-.618c.725.424 1.816 1.005 3.352 1.68 6.05 2.648 12.933 2.418 16.292 3.2 2.849.66 4.967 2.333 5.541 2.821.1.086.229.13.366.13.911-.05 4.6-.13 7.385.832ZM9.114 136.407c-.022.014-1.536.912-.029.962 4.5.143 17.8.057 30.424-2.706 15.61-3.424 26.09-6.065 28.135-6.452 2.045-.388 11.146-2.814 31.278 1.155 16.458 3.244 22.451 3.653 24.087 3.697a.528.528 0 0 0 .538-.489c.158-2.074 1.263-10.256 9.044-14.411a.537.537 0 0 1 .394-.043c1.342.38 9.295 2.275 18.596-2.742a.543.543 0 0 1 .481-.015l17.699 8.118c.13.065.237.179.28.316l.804 2.497c.043.13.136.237.251.309l6.876 3.703 2.648 1.436s.941.553 1.766.553c.825 0 10.206-1.658 10.206-1.658s.825-.223.825-.776c0-.423-.445-1.779-.645-2.375a.522.522 0 0 1 .1-.51l2.849-3.359a.515.515 0 0 0 .108-.473l-.545-2.146a.522.522 0 0 1 .028-.345c.381-.897 1.744-4.751 1.744-4.751s.273-.775-.33-1.543c-.581-.747-5.77-6.704-6.158-7.149-.014-.014-.029-.036-.043-.05-.1-.151-.617-.868-1.306-.962-.603-.086-1.701-.007-2.161.036a.501.501 0 0 1-.38-.122l-13.536-11.117a.547.547 0 0 1-.194-.417l.05-4.45c0-.028 0-.057-.007-.086-.029-.18-.179-.804-.876-1.27-.724-.481-9.725-5.814-11.828-7.149a.527.527 0 0 1-.157-.739c.624-.933 1.923-3.237 1.5-5.734-.553-3.252-4.558-4.651-7.587-4.867-2.253-.165-3.545-.043-4.062.03a.534.534 0 0 1-.445-.152c-.61-.617-2.792-2.54-6.797-3.143-4.17-.625-9.854-1.35-13.558-2.756a.53.53 0 0 0-.638.775.533.533 0 0 1-.603.79c-.883-.266-2.06-.582-3.058-.761-1.873-.33-3.129-.503-7.981-.503-3.488 0-6.057-1.112-7.579-1.414-.416-.079-.897.259-.811 1.113.136 1.335.043 3.81 3.402 5.124.481.187.273.517-.309.66-.818.209-5.67-1.299-8.383-1.844-5.734-1.155-8.878-1.32-20.024 1.32-9.503 2.261-13.988 3.273-17.225 3.59-.503.05-.66.717-.223.983 1.464.897 3.919 2.289 6.402 3.15a.532.532 0 0 1 .015.998c-3.654 1.414-13.063 5.045-14.175 5.404-1.3.417-10.917 3.69-20.484 3.123-.546-.03-.768.681-.316.976 1.522.997 4.486 2.411 9.71 3.236.503.08 1.077.144 1.544.194.409.043.617.51.373.84-.94 1.278-3.316 4.07-8.146 7.457-6.675 4.687-12.905 7.723-15.173 8.771-1.507.696-4.507 1.938-6.344 2.684-.481.194-.424.897.086 1.012 1.737.38 4.63.933 7.529 1.105 2.842.173 4.83.323 5.935.409.43.036.639.539.366.869-1.414 1.701-4.859 5.785-7.557 8.44-3.474 3.424-8.297 7.515-10.78 9.56-1.623 1.314-2.175 1.716-5.62 4.084Z" fill="#511B00"/></svg>