<svg width="200" height="200" xmlns="http://www.w3.org/2000/svg"><g fill="#EDAE09"><path d="M100.884 89.35l-21.94 30.642 43.446 72.236c4.144 7.029 7.622 0 7.622 0l41.958-65.355c3.984-6.366 9.147-5.561 9.147-5.561h18.801V89.176h-35.86c-7.894 0-11.76 6.428-11.76 6.428l-24.899 35.89-26.515-42.144"/><path d="M0 36.892L.072 5.607l40.724.088c6.115 0 9.946 8.45 9.946 8.45l21.777 36.18L98 12.41c3.557-7.767 6.751 0 6.751 0l23.52 37.914 24.39-36.18c5.508-9.867 9.656-8.45 9.656-8.45h37.602v31.197h-19.381c-7.007-.483-8.567 4.117-8.567 4.117l-40.797 65.427c-4.021 6.126-7.33 0-7.33 0L101.555 71.05l-25.842 35.386c-4.535 5.82-7.042 0-7.042 0L28.456 41.009c-2.794-4.6-9.074-4.117-9.074-4.117H0m143.586 152.024h-.959v2.046h.989c.56 0 .96-.078 1.204-.233.242-.154.365-.405.365-.75 0-.374-.127-.645-.38-.813-.253-.167-.659-.25-1.22-.25zm.207-.762c.866 0 1.517.142 1.952.426.436.284.652.706.652 1.268 0 .44-.124.804-.373 1.096-.25.29-.601.48-1.055.568l1.399 2.808h-1.325l-1.264-2.624h-1.152v2.624h-1.16v-6.166h2.326zm4.636 3.24c0-.658-.116-1.273-.347-1.848a4.445 4.445 0 0 0-1.007-1.515 4.722 4.722 0 0 0-3.4-1.398c-.644 0-1.251.115-1.821.346a4.38 4.38 0 0 0-1.495.993 4.99 4.99 0 0 0-1.075 1.574 4.53 4.53 0 0 0-.376 1.803c0 .613.12 1.204.361 1.77.24.566.586 1.077 1.037 1.527.447.451.959.799 1.536 1.041a4.584 4.584 0 0 0 1.79.365c.644 0 1.254-.119 1.833-.353a5.08 5.08 0 0 0 1.58-1.032 4.504 4.504 0 0 0 1.384-3.273zm-4.776-5.495c.748 0 1.456.137 2.123.413a5.34 5.34 0 0 1 1.783 1.204 5.35 5.35 0 0 1 1.173 1.758c.271.66.408 1.35.408 2.068 0 .744-.137 1.441-.408 2.094a5.134 5.134 0 0 1-1.188 1.733 5.773 5.773 0 0 1-1.816 1.2 5.354 5.354 0 0 1-2.075.417c-.727 0-1.422-.14-2.083-.418a5.434 5.434 0 0 1-1.778-1.215 5.456 5.456 0 0 1-1.187-1.76 5.268 5.268 0 0 1-.408-2.051c0-.719.141-1.414.427-2.086a5.675 5.675 0 0 1 1.228-1.814 5.011 5.011 0 0 1 1.718-1.151 5.508 5.508 0 0 1 2.083-.392z"/></g></svg>