<?xml version="1.0" encoding="UTF-8"?>
<svg width="200px" height="200px" viewBox="0 0 200 200" version="1.1" xmlns="http://www.w3.org/2000/svg" xmlns:xlink="http://www.w3.org/1999/xlink">
    <!-- Generator: Sketch 51.3 (57544) - http://www.bohemiancoding.com/sketch -->
    <title>west-virginia</title>
    <desc>Created with Sketch.</desc>
    <defs></defs>
    <g id="west-virginia" stroke="none" stroke-width="1" fill="none" fill-rule="evenodd">
        <g id="west-virginia_BGL" transform="translate(0.000000, 4.975124)" fill="#EDAE09">
            <g id="west-virginia">
                <g id="g10" transform="translate(99.999998, 96.107040) scale(-1, 1) rotate(-180.000000) translate(-99.999998, -96.107040) translate(0.000000, 0.402969)" fill-rule="nonzero">
                    <g id="g12">
                        <path d="M100.884386,107.436214 L78.9432048,76.7941215 L122.38987,4.55860315 C126.534174,-2.47065095 130.011811,4.55860315 130.011811,4.55860315 L171.97046,69.9134186 C175.953582,76.2795862 181.117295,75.4744967 181.117295,75.4744967 L199.918138,75.4744967 L199.918138,107.609993 L164.05738,107.609993 C156.163709,107.609993 152.297886,101.182709 152.297886,101.182709 L127.399153,65.2918355 L100.884386,107.436214" id="path14"></path>
                        <path d="M0,159.893798 L0.0715321501,191.178955 L40.7964547,191.091646 C46.9112225,191.091646 50.7416865,182.641984 50.7416865,182.641984 L72.5194075,146.461648 L97.9991537,184.375571 C101.556116,192.142712 104.750208,184.375571 104.750208,184.375571 L128.270039,146.461648 L152.660756,182.641984 C158.167929,192.507898 162.315608,191.091646 162.315608,191.091646 L199.918138,191.091646 L199.918138,159.893798 L180.536704,159.893798 C173.529953,160.377355 171.97046,155.777684 171.97046,155.777684 L131.172993,90.3505192 C127.151896,84.2246191 123.842191,90.3505192 123.842191,90.3505192 L101.556116,125.736679 L75.713669,90.3505192 C71.1794919,84.5310401 68.6715595,90.3505192 68.6715595,90.3505192 L28.4562862,155.777684 C25.6616027,160.377355 19.3819404,159.893798 19.3819404,159.893798 L0,159.893798" id="path16"></path>
                        <path d="M143.58565,7.87040054 L142.627001,7.87040054 L142.627001,5.82442381 L143.61603,5.82442381 C144.176368,5.82442381 144.576368,5.90181818 144.82025,6.05692593 C145.062444,6.21138727 145.184806,6.46258527 145.184806,6.80691004 C145.184806,7.18108777 145.058224,7.45228289 144.805904,7.62018476 C144.551895,7.78743182 144.145988,7.87040054 143.58565,7.87040054 Z M143.793245,8.63183556 C144.659068,8.63183556 145.309701,8.48987452 145.745144,8.20620429 C146.180587,7.92254247 146.397465,7.50016011 146.397465,6.93775598 C146.397465,6.49865898 146.27257,6.1343203 146.023625,5.84212906 C145.77468,5.55256548 145.422781,5.36203882 144.968773,5.27382318 L146.367929,2.46638624 L145.043034,2.46638624 L143.778899,5.08985309 L142.627001,5.08985309 L142.627001,2.46638624 L141.466663,2.46638624 L141.466663,8.63183556 L143.793245,8.63183556 Z M148.428688,5.39221079 C148.428688,6.05036936 148.313076,6.66557024 148.081853,7.23978627 C147.851473,7.81333908 147.515608,8.31868176 147.075102,8.75515948 C146.618562,9.21101308 146.101262,9.55798231 145.524047,9.79539557 C144.945988,10.0338162 144.329954,10.1531105 143.675946,10.1531105 C143.03122,10.1531105 142.423625,10.0380138 141.854005,9.8071487 C141.283541,9.57729103 140.784807,9.24543297 140.358646,8.81384119 C139.89198,8.34819891 139.535018,7.82350554 139.284385,7.23978627 C139.033752,6.65573959 138.908013,6.05463407 138.908013,5.43680553 C138.908013,4.82389651 139.028689,4.23362067 139.269195,3.66695183 C139.509701,3.10126522 139.854849,2.59067561 140.306326,2.13976672 C140.752739,1.68918524 141.264975,1.34157798 141.842191,1.098901 C142.421093,0.856232418 143.016874,0.734570717 143.63122,0.734570717 C144.275946,0.734570717 144.886072,0.852958331 145.464975,1.0870975 C146.04219,1.32386433 146.569617,1.66656046 147.045566,2.11877899 C147.490292,2.55033718 147.833752,3.04650402 148.070882,3.60727111 C148.309701,4.17000265 148.428688,4.76421579 148.428688,5.39221079 Z M143.653161,10.8876812 C144.40084,10.8876812 145.108857,10.7500017 145.776368,10.4745587 C146.445566,10.1983601 147.038815,9.79699064 147.558646,9.27003059 C148.069195,8.75776196 148.459912,8.17275824 148.731642,7.511972 C149.003372,6.85282281 149.140081,6.16285523 149.140081,5.44435272 C149.140081,4.70027036 149.003372,4.00275559 148.731642,3.35049877 C148.459912,2.69725133 148.064131,2.12074344 147.5443,1.61769262 C147.004216,1.09562692 146.399152,0.695874371 145.728266,0.418115134 C145.058224,0.139371991 144.366241,0 143.653161,0 C142.925735,0 142.23122,0.139371991 141.570461,0.418115134 C140.908857,0.695874371 140.317296,1.10054644 139.792402,1.6327786 C139.27257,2.15518011 138.87679,2.74185446 138.60506,3.39411128 C138.332486,4.04735033 138.196621,4.72977912 138.196621,5.44435272 C138.196621,6.16285523 138.338393,6.85806974 138.623625,7.53033207 C138.90717,8.20292181 139.317296,8.80729302 139.852317,9.34382347 C140.351895,9.8518106 140.924047,10.2354664 141.570461,10.4955464 C142.21603,10.7565499 142.911389,10.8876812 143.653161,10.8876812 Z" id="path18"></path>
                    </g>
                </g>
            </g>
        </g>
    </g>
</svg>