<svg width="200" height="200" xmlns="http://www.w3.org/2000/svg"><g fill-rule="nonzero" fill="none"><path d="M185.36 142.539c-3.434 3.003-12.046 11.895-12.046 11.895l-2.635-4.34c-13.433-7.138-36.15-12.464-70.302-12.579-34.153.115-56.87 5.44-70.303 12.58l-2.635 4.339s-8.611-8.892-12.045-11.895l-.987-.863 1.142-.644c20.127-11.35 48.775-17.666 84.828-17.682 36.052.016 64.7 6.332 84.827 17.682l1.142.644-.987.863ZM45.093 55.302s-.14 29.609-.063 51.622c.006 1.57-.331 5.549 2.38 5.42 1.623 0 5.915-1.07 7.355-4 .763-1.553.645-2.659.645-4.39l.007-48.603h16.488l-4.392 8.21-.14 42.776c0 1.716-.24 4.946-.817 6.574-2.677 7.543-6.758 8.209-23.018 12.08-5.817 1.385-10.716-3.858-10.712-9.421l.035-49.9-5.519-10.32 17.75-.048Zm39.021-14.098 5.688 48.94 5.945-48.94h12.034l6.406 49.053 5.477-49.053h16.114l-4.403 8.161-9.115 68.27c-5.075-.473-8.969-.84-14.84-.904l-5.746-38.255-4.32 38.126a139.711 139.711 0 0 0-14.971.775l-9.68-67.804-5.205-8.369h16.616Zm52.6 16.42c2.152-1.818 4.024-2.322 6.84-2.322h24.779v28.52l-10.85-9.291v-9.55s-6.804.024-9.245.024c-2.783 0-3.663.877-3.663 3.656 0 4.473.012 32.197.012 32.197 0 2.714-.343 4.671 1.29 6.84 1.084 1.44 2.499 2.017 3.743 2.71 2.763 1.538 7.872 3.097 7.872 3.097l-.008-15.616-8.515-11.58 19.516 3.57-.152 38.14c-7.509-3.152-27.723-6.437-32.055-10.907-3.177-3.477-3.048-9.156-3.048-9.156V64.594c0-2.823 1.164-5.008 3.484-6.97Zm50.198 77.945c-3.503-1.975-7.25-3.794-11.222-5.455l.014-63.193 8.115-18.995s-42.172-.13-42.587-.11l6.968-13.42-93.435.03 8.001 13.649-47.715-.066 10.433 19.507-.028 62.196c-4.702 1.867-9.09 3.937-13.11 6.204l-7.815 4.652 24.733 24.223 4.815-10c.769-.371 1.86-.877 2.705-1.192 9.398-4.083 29.986-9.95 63.742-10.052 32.492.098 55.81 6.373 65.89 10.497L172 164.508l23.466-23.476-8.552-5.463Z" fill="#1E59AE"/><path fill="#1E59AE" d="m157.595 153.75.923.327v3.35l1.116.395v-3.35l.923.328v-.946l-2.962-1.05v.946M164.327 155.19l-.923 1.968-.871-2.604-1.1-.39-.729 4.037 1.11.393.36-2.344.011.004.986 2.82.444.158 1.03-2.107.012.004.314 2.583 1.116.395-.65-4.524-1.11-.394"/><path d="M100.377 123.35c-36.053.016-64.701 6.332-84.828 17.682l-1.142.644.987.863c3.434 3.003 12.045 11.895 12.045 11.895l2.635-4.34c13.433-7.138 36.15-12.464 70.303-12.579 34.152.115 56.869 5.44 70.302 12.58l2.635 4.339s8.612-8.892 12.045-11.895l.987-.863-1.142-.644c-20.126-11.35-48.775-17.666-84.827-17.682" fill="#EE293D"/><path d="M166.418 154.044c-10.081-4.124-33.4-10.4-65.891-10.497-33.756.101-54.344 5.969-63.742 10.052-.846.315-1.936.82-2.705 1.192l-4.815 10-24.733-24.223 7.815-4.652c4.02-2.267 8.408-4.337 13.11-6.204l.028-62.196L15.052 48.01l47.715.066-8-13.648 93.434-.032-6.968 13.422c.415-.02 42.587.11 42.587.11l-8.115 18.994-.014 63.193c3.971 1.661 7.72 3.48 11.222 5.455l8.552 5.463L172 164.508l-5.581-10.464Zm-1.447 5.668-.314-2.583-.011-.004-1.031 2.107-.444-.158-.986-2.82-.011-.004-.36 2.344-1.11-.393.73-4.037 1.099.39.871 2.604.923-1.969 1.11.394.65 4.524-1.116-.395Zm-4.414-4.912-.923-.327v3.349l-1.116-.395v-3.35l-.923-.327v-.945l2.962 1.05v.945Zm27.788-21.617a109.33 109.33 0 0 0-9.87-4.907l.014-60.785 9.543-22.336s-30.866-.094-42.22-.117l6.973-13.428-102.877.035 7.996 13.64-47.501-.067 12.298 22.995-.027 59.624c-4.169 1.728-8.103 3.629-11.722 5.67L0 140.026l30.09 29.47 6.07-12.608a26.258 26.258 0 0 1 1.665-.707c8.984-3.904 29.247-9.75 62.702-9.85 25.414.076 39.885 2.208 54.955 6.952v3.493c0 .89.69 1.844 1.54 2.132l10.533 3.544 3.756 6.683 28.572-28.585-11.538-7.367Z" fill="#B3B5B7"/><path d="M82.384 117.377c4.904-.516 9.905-.787 14.97-.775l4.321-38.126 5.745 38.255c5.872.065 9.766.431 14.841.904l9.115-68.27 4.403-8.16h-16.114l-5.477 49.052-6.406-49.053H95.748l-5.945 48.94-5.688-48.94H67.5l5.206 8.37 9.679 67.803" fill="#FFF"/><path d="M32.827 115.57c-.004 5.563 4.895 10.806 10.712 9.421 16.26-3.871 20.341-4.537 23.018-12.08.578-1.628.817-4.858.817-6.574l.14-42.776 4.392-8.21H55.418l-.007 48.604c0 1.73.118 2.836-.645 4.388-1.44 2.93-5.732 4-7.356 4-2.71.13-2.373-3.849-2.38-5.42-.076-22.012.064-51.621.064-51.621l-17.75.049 5.518 10.32-.035 49.899M133.23 107.956s-.128 5.679 3.05 9.156c4.33 4.47 24.545 7.755 32.054 10.907l.152-38.14-19.516-3.57 8.515 11.58.008 15.616s-5.11-1.56-7.872-3.097c-1.244-.693-2.659-1.27-3.743-2.71-1.633-2.169-1.29-4.126-1.29-6.84 0 0-.012-27.724-.012-32.197 0-2.78.88-3.656 3.663-3.656 2.44 0 9.246-.024 9.246-.024v9.55l10.849 9.292V55.302h-24.779c-2.816 0-4.688.504-6.84 2.323-2.32 1.961-3.484 4.146-3.484 6.969v43.362M143.291 136.49l-4.974-.825.244-1.614 2.867.475.167-1.109-2.866-.475.22-1.449 4.913.814.168-1.109-6.358-1.054-.984 6.504 6.418 1.063.185-1.222M163.03 142.875l3.678 1.326c1.118.402 1.586.234 1.971-.936l.282-.857c.385-1.17.115-1.605-1.003-2.008l-3.712-1.338.44-1.339 3.897 1.405-.234.712 1.32.137.044-.132c.354-1.073.034-1.512-1.026-1.894l-3.378-1.218c-1.119-.403-1.576-.23-1.96.94l-.226.688c-.385 1.17-.127 1.6.99 2.003l3.713 1.339-.468 1.423-4.208-1.516.243-.736-1.31-.176-.056.17c-.384 1.17-.115 1.605 1.003 2.007M115.172 134.37l3.892-6.315-1.46-.106-2.737 4.57-2.224-4.934-1.667-.122 3.186 6.834 1.01.074M88.694 132.456l-.178-5.343-1.462.053.22 6.58 6.177-.225-.041-1.237-4.716.172M38.917 140.16l-2.928-3.647-.973.331-.285 4.739-2.823-3.683-1.438.49 4.252 5.477.962-.327.325-4.9L39 142.411l.939-.32.363-7.046-1.241.422-.145 4.692M61.403 135.393l-.624-4.121 4.769-.79.624 4.122-4.77.79Zm5.647-4.772c-.185-1.223-.606-1.476-1.774-1.282l-4.576.758c-1.168.193-1.494.57-1.309 1.793l.52 3.428c.184 1.223.605 1.475 1.773 1.282l4.576-.758c1.168-.194 1.494-.57 1.309-1.794l-.519-3.427Z" fill="#FFF"/></g></svg>