<svg width="200" height="200" xmlns="http://www.w3.org/2000/svg"><g fill="none"><path d="M32.603 103.671c-8.627-.154-12.064 2.846-15.118 5.454-2.255 1.925-4.586 3.916-8.78 5.382-5.41 1.89-8.447 7.38-7.556 13.661 1.183 8.346 9.57 18.017 25.188 19.53a.18.18 0 0 1 .143.097c1.413 2.783 4.767 7.451 11.358 7.451l.162-.001a.18.18 0 0 1 .18.176c.047 2.37.293 4.61.73 6.656l.117.492.236.377c.124.196 12.603 19.646 37.455 20.564.895.033 1.768.05 2.591.05 14.755 0 19.125-5.18 20.192-9.527a.175.175 0 0 1 .098-.12c3.346-1.583 8.607-4.996 14.674-12.266a.167.167 0 0 1 .14-.063c.083 0 .104.026.138.07 2.94 3.77 8.134 8.647 16.182 10.461.027.008.65.168 1.359.24 2.717 5.277 7.72 8.494 14.472 9.304.72.087 1.45.13 2.164.13 6.236 0 10.254-3.215 12.528-5.91 3.173-3.766 4.993-9.226 4.748-14.253a.174.174 0 0 1 .084-.16c5.015-3.094 4.894-6.95 4.375-8.977a.187.187 0 0 1 .001-.095c.06-.192.12-.41.182-.653l.041-.17c.455-1.8 1.52-6.018-1.155-9.68a32.151 32.151 0 0 0-.428-.568l-.16-.208c-.682-.889-.71-.924-.721-1.576-.112-5.395-3.094-7.851-6.047-9.585l-.24-.31c-1.238-1.596-3.813-4.915-8.855-4.915-1.69 0-3.403.373-5.234 1.138-.99.388-6.183 2.51-11.175 6.238a.184.184 0 0 1-.23-.015l-.21-.19a.167.167 0 0 1-.06-.126.18.18 0 0 1 .044-.13c2.768-3.027 5.066-6.176 6.827-9.362a.202.202 0 0 1 .188-.091c.806.13 1.559.195 2.301.195 4.406 0 7.851-2.222 10.842-6.991 2.44-3.889 2.066-6.98 1.323-8.89-.742-1.906-2.202-3.485-4.22-4.563a.18.18 0 0 1-.095-.18c.207-1.724.07-3.38-.404-4.92a.178.178 0 0 1 .024-.158c.824-1.168 1.765-3.013 1.566-5.176-.116-1.272-.694-3.136-2.776-4.803a.175.175 0 0 1-.066-.118 19.184 19.184 0 0 0-.079-.548.178.178 0 0 1 .08-.179.186.186 0 0 1 .199.003c2.928 1.991 5.864 4.46 8.974 7.545.575.57 1.249.859 2 .859.777 0 1.346-.316 1.369-.329a2.801 2.801 0 0 0 1.366-3.083c-.032-.132-.798-3.308-3.3-7.491a.18.18 0 0 1 .012-.2c.034-.045.084-.072.19-.066.812.22 1.346.38 1.486.423l.43.134h.424c.998 0 1.925-.537 2.417-1.4a.954.954 0 0 0 .059-.124l.037-.086a.194.194 0 0 1 .17-.104.18.18 0 0 1 .162.119c1.52 4.187 3.925 8.042 7.15 11.46a2.787 2.787 0 0 0 2.022.884c.701.055 1.468-.408 1.5-.428a2.63 2.63 0 0 0 .324-.238.187.187 0 0 1 .227-.006 42.323 42.323 0 0 0 4.696 3.14c.417.235.89.36 1.361.36h.002l.085.002c.804 0 1.523-.475 1.578-.515a.182.182 0 0 1 .22-.02 65.56 65.56 0 0 0 3.258 1.97 2.582 2.582 0 0 0 1.257.35c.057 0 .095-.001.097-.002a2.756 2.756 0 0 0 2.205-1.088c.036-.044.09-.071.204-.06a82.28 82.28 0 0 0 1.972.684c.49.105.95.16 1.365.16 1.433 0 1.922-.633 1.926-.641.32-.321.562-.72.695-1.15.318-.987.056-2.094-.649-2.799a93.83 93.83 0 0 0-1.13-1.523.181.181 0 0 1-.004-.212 2.772 2.772 0 0 0-.312-3.633l-.052-.05a60.782 60.782 0 0 0-2.727-2.389.181.181 0 0 1-.056-.198c.356-1.04.062-2.175-.77-2.966a42.02 42.02 0 0 0-4.247-3.39.18.18 0 0 1-.064-.213c.045-.11.085-.222.116-.338.358-1.304-.276-2.701-1.47-3.247-6.156-2.971-11.719-3.595-15.302-3.595-.72 0-1.43.025-2.112.074l-.312.024a.193.193 0 0 1-.096-.023 128.316 128.316 0 0 0-10.133-5.291.176.176 0 0 1-.099-.2.178.178 0 0 1 .175-.143h.252c.88 0 1.712-.417 2.228-1.117a2.79 2.79 0 0 0 .231-2.976.177.177 0 0 1 .013-.189c.034-.047.07-.07.175-.073.22.038.442.072.679.107l.444.033a2.779 2.779 0 0 0 2.704-2.242.178.178 0 0 1 .174-.144 42.004 42.004 0 0 0 5.574-.432 2.809 2.809 0 0 0 2.316-2.02.182.182 0 0 1 .157-.13 61.267 61.267 0 0 0 3.742-.46c1.328-.187 2.337-1.275 2.398-2.586a2.82 2.82 0 0 0 .004-.208.18.18 0 0 1 .125-.172 72.52 72.52 0 0 0 1.922-.666c1.06-.193 1.88-.901 2.192-1.89.136-.402.18-.83.13-1.239a2.77 2.77 0 0 0-2.36-2.426c-.67-.188-1.277-.353-1.862-.506a.178.178 0 0 1-.135-.164 3.107 3.107 0 0 0-.016-.24 2.792 2.792 0 0 0-2.542-2.426 61.53 61.53 0 0 0-3.628-.19.183.183 0 0 1-.165-.12 2.773 2.773 0 0 0-2.426-1.852 42.749 42.749 0 0 0-5.444-.042.184.184 0 0 1-.181-.13 2.787 2.787 0 0 0-.121-.334 2.785 2.785 0 0 0-2.568-1.706l-.334.008-.269.059c-8.974 1.984-14.49 6.666-16.446 8.587a.178.178 0 0 1-.112.051c-2.243.19-4.396.444-7.004.762a59.609 59.609 0 0 0-1.863-.42.179.179 0 0 1-.136-.129.179.179 0 0 1 .053-.179c.503-.46.82-1.092.891-1.78a2.757 2.757 0 0 0-1.866-2.912c-.068-.022-6.93-2.344-15.257-2.344-2.406 0-4.727.193-6.93.577a.177.177 0 0 1-.115-.042.176.176 0 0 1-.065-.136 2.85 2.85 0 0 0-.112-.748.18.18 0 0 1 .023-.148.18.18 0 0 1 .122-.08 37.996 37.996 0 0 0 9.343-2.714c1.197-.54 1.854-1.881 1.562-3.195l-.023-.093a.178.178 0 0 1 .078-.198 41.217 41.217 0 0 0 4.008-2.89 2.785 2.785 0 0 0 .969-2.752.178.178 0 0 1 .068-.182c.83-.62 1.692-1.298 2.561-2.018 1.03-.86 1.307-2.32.662-3.468-.043-.075-.044-.195-.004-.243.292-.344.588-.701.867-1.048.687-.615 1.032-1.47.938-2.388-.67-2.062-2.258-2.37-3.145-2.37a3.6 3.6 0 0 0-.876.1c-.667.201-1.309.403-1.977.613a.18.18 0 0 1-.138-.064 2.827 2.827 0 0 0-2.13-.988 3.053 3.053 0 0 0-1.3.322 63.469 63.469 0 0 0-3.212 1.752.175.175 0 0 1-.193-.007 2.817 2.817 0 0 0-1.59-.507h-.002c-.69-.042-1.284.304-1.298.313a42.306 42.306 0 0 0-4.644 2.801.183.183 0 0 1-.216-.01 5.287 5.287 0 0 0-.19-.146 2.777 2.777 0 0 0-1.569-.477h-.001c-.051.002-1.25.063-1.91.763-5.043 4.776-7.238 9.614-8.192 12.833a.181.181 0 0 1-.053.085c-3.36 2.915-6.053 5.835-8.233 8.926-.027.039-.07.066-.149.077a.18.18 0 0 1-.103-.035c-2.856-2.08-7.519-4.623-13.522-4.93-.59 0-.994.037-1.015.04a2.813 2.813 0 0 0-2.03 1.74 2.787 2.787 0 0 0 .82 3.126c.014.012.222.19.537.502a.18.18 0 0 1 .034.206c-.03.063-.09.099-.183.099a34.575 34.575 0 0 0-7.373-.104 2.767 2.767 0 0 0-2.042 1.246.18.18 0 0 1-.233.061 53.529 53.529 0 0 0-5.177-2.33.194.194 0 0 1-.081-.06c-2.008-2.738-5.726-6.588-12.037-9.385-.553-.226-1.01-.23-1.138-.243a2.835 2.835 0 0 0-2.378 1.334c-.033.054-.092.088-.2.08a42.027 42.027 0 0 0-5.3-1.085l-.425-.03a2.754 2.754 0 0 0-2.253 1.174c-.034.047-.068.09-.181.073a63.52 63.52 0 0 0-3.65-.584l-.374-.023c-1.143 0-2.159.71-2.588 1.807a.18.18 0 0 1-.163.114c-.68.017-1.352.042-1.997.075l-.085-.002c-.395 0-1.735.07-2.379.96-.373.438-.596.93-.666 1.46-.178 1.264.521 2.486 1.676 2.957.46.275.863.513 1.256.742a.182.182 0 0 1 .087.185 2.78 2.78 0 0 0 1.784 3.097c1.056.387 2.09.737 3.07 1.039a.18.18 0 0 1 .125.149 2.777 2.777 0 0 0 1.823 2.266 41.773 41.773 0 0 0 4.763 1.391.178.178 0 0 1 .14.166l.008.096a2.808 2.808 0 0 0 2.582 2.484c1.527.106 3.156.12 4.72.039.118 0 .156.09.169.13a.179.179 0 0 1-.083.205 33.51 33.51 0 0 0-4.426 3.04 2.786 2.786 0 0 0 1.76 4.944c.206 0 2.078.004 4.718.128a.178.178 0 0 1 .092.327c-4.549 3.086-7.7 7.05-9.365 11.787-.46 1.289.088 2.713 1.306 3.388l.62.323c.072.038.11.12.09.2-.49 2.039-.422 3.437-.38 3.873.08.883.57 1.681 1.306 2.131.025.017.638.401 1.455.412.759 0 1.51-.321 2.01-.857.211-.222.492-.504.83-.831a.184.184 0 0 1 .21-.028.18.18 0 0 1 .092.192c-.199 1.005-.703 3.377-.789 4.396-.054.638.281.95.632 1.484.038.057.04.133.004.191-.034.056-.084.086-.171.087l-1.98-.192a.176.176 0 0 1-.101-.045c-2.484-2.167-6.682-5.146-12.571-7.028l-.447-.136-.385-.007a2.781 2.781 0 0 0-2.654 1.8.186.186 0 0 1-.195.113 42.05 42.05 0 0 0-5.432-.464c-1.087-.019-2.097.62-2.574 1.627a.185.185 0 0 1-.173.102h-.002a59.707 59.707 0 0 0-3.234-.14l-.383-.005a2.798 2.798 0 0 0-2.813 2.42c-.012.08-.071.14-.133.15-.188.015-4.6.371-4.569 3.103.015 1.295.83 2.392 1.998 2.721.711.326 1.348.612 1.96.88.072.03.115.104.107.186l-.013.195c-.044 1.314.826 2.464 2.119 2.796a62.7 62.7 0 0 0 3.714.807c.073.015.13.072.143.145.2 1.09 1.02 1.96 2.093 2.216a42.32 42.32 0 0 0 5.547.951s.623.104.614.507c-.01.408.448.736.94.97 0 0 .163.049.163.195 0 .147-.215.163-.293.162" fill="#FFF"/><path d="M166.965 142.961l-.15-.195c-.862-1.122-1.256-1.634-1.285-3.172-.096-4.648-2.971-6.301-5.056-7.5-.138-.12-.428-.492-.667-.8-1.124-1.447-3.004-3.87-6.726-3.87-1.326 0-2.72.312-4.26.955-1.083.424-6.742 2.746-11.786 6.857a7.526 7.526 0 0 0-.917.73c-1.018-1.757-2.493-2.962-4.383-3.584 3.042-2.926 7.189-7.576 9.935-13.307 1.443.415 2.707.618 3.862.618 3.436 0 6.075-1.768 8.56-5.73 1.46-2.327 1.838-4.567 1.094-6.48-.718-1.846-2.473-3.245-4.95-3.948.597-1.7.987-4.642-.402-7.274.366-.35 2.257-2.274 2.052-4.506-.127-1.388-1.046-2.6-2.732-3.601-.01-.587-.156-3.671-2.218-8.305 5.622 2.743 10.98 6.683 15.927 11.713.028.03.07.036.107.016a.092.092 0 0 0 .045-.1c-.016-.061-1.52-6.254-7.4-12.605a70.576 70.576 0 0 1 9.236 2.084.092.092 0 0 0 .106-.04.092.092 0 0 0-.018-.113c-9.592-8.486-23.537-11.706-23.677-11.738a.09.09 0 0 0-.102.053.09.09 0 0 0 .037.111c.04.025 4.01 2.472 7.257 6.57-4.321-2.052-9.889-3.992-16.553-5.768a.086.086 0 0 0-.097.037.089.089 0 0 0 .004.104c.018.024 1.86 2.41 3.215 5.54-3.88-2.332-10.686-5.323-21.367-6.649-.05-.007-.08.018-.094.055a.09.09 0 0 0 .028.106c.048.036 4.688 3.654 5.822 8.413-3.273-2.576-8.6-5.803-15.68-6.915a.091.091 0 0 0-.084.033c-.02.024-1.88 2.425-2.111 5.438-.786-1.346-1.761-3.526-2.245-6.596a.092.092 0 0 0-.046-.065.099.099 0 0 0-.077-.006c-.027.012-2.813 1.113-5.144 5.006-.112-1.471-.096-3.122.05-4.915a.087.087 0 0 0-.041-.082.087.087 0 0 0-.092-.004c-.087.046-8.719 4.745-13.397 14.635a24.347 24.347 0 0 1 5.336-12.993.09.09 0 0 0-.116-.133c-6.103 3.76-10.447 11.783-10.95 12.769 2.17-9.53 7.14-14.784 10.977-17.53a.091.091 0 0 0 .028-.116.09.09 0 0 0-.11-.042c-5.447 1.935-13.208 6.187-19.443 15.47.446-2.185 1.496-5.318 3.947-8.563a.091.091 0 0 0 .004-.103.087.087 0 0 0-.096-.039c-.08.019-7.553 1.854-11.165 5.116 1.309-1.889 5.288-7.03 11.865-10.405a.09.09 0 0 0 .045-.106c-.013-.042-.052-.066-.097-.063-.18.023-18.166 2.456-22.515 14.765a.088.088 0 0 0 .037.106.087.087 0 0 0 .113-.014c.05-.053 4.98-5.188 9.18-7.068-2.554 3.697-4.61 6.752-3.888 13.168.004.04.02.078.06.093a.09.09 0 0 0 .104-.036c.03-.046 2.818-4.873 8.757-7.387-.4 1.106-1.37 6.169 1.163 10.53.018.03.034.045.084.051a.09.09 0 0 0 .08-.055c.016-.037 1.533-3.664 4.255-6.597.187 1.427.05 5.429-.286 8.943l-19.94-1.974c-2.372-2.203-6.434-5.225-12.321-7.107a.093.093 0 0 0-.111.044.093.093 0 0 0 .022.118c.01.009 1.046.89 1.903 2.855-2.215-.682-5.716-1.483-10.12-1.573h-.002a.096.096 0 0 0-.091.066.096.096 0 0 0 .039.108c.014.008 1.399.903 2.711 2.37-2.23-.572-5.132-.894-8.632-.955l-.395-.005a.094.094 0 0 0-.094.075.094.094 0 0 0 .055.106 32.8 32.8 0 0 1 3.234 1.63c-1.823.162-7.848 1.086-7.848 1.086-.035-.004-.05.017-.062.044a.093.093 0 0 0-.059.086c0 .046 5.936 2.576 7.584 3.163-1.86.524-3.436.763-3.452.766a.093.093 0 0 0-.08.089.095.095 0 0 0 .071.095c3.457.86 6.393 1.315 8.727 1.355l.279.004a13.44 13.44 0 0 1-3.081 1.624.095.095 0 0 0-.064.095c.002.042.03.077.072.087 3.477.835 6.972 1.19 10.182 1.042-1.19 1.702-2.365 2.3-2.377 2.306a.094.094 0 0 0-.048.108c.011.044.049.078.095.071 6.556-.365 11.3-2.53 14.058-4.27l18.457 3.331c-.263.924-.195.576-.517 1.453a3.55 3.55 0 0 0-.194-.004c-1.045 0-4.489.294-4.908 4.076a.089.089 0 0 0 .03.077c.033.028 3.18 2.805 3.087 7.34-5.522-9.2-12.064-11.142-16.6-11.142-4.059 0-6.966 1.542-6.996 1.558a.087.087 0 0 0-.046.084.09.09 0 0 0 .056.078c.047.019 4.728 1.98 5.912 7.22-3.928-3.133-8.4-4.879-13.3-5.19a30.03 30.03 0 0 0-1.883-.064c-6.274 0-8.94 2.279-12.03 4.918-2.33 1.99-4.97 4.245-9.643 5.878-4.226 1.476-6.494 5.691-5.778 10.74 1.102 7.768 9.221 16.504 24.448 17.353.239.71 2.67 7.41 9.573 7.41.981 0 2.02-.137 3.093-.405-.185 3.43.018 6.572.616 9.366.115.185 11.875 18.44 35.27 19.304.866.031 1.697.048 2.493.048 14.966 0 17.57-5.488 17.775-8.803 3.234-1.236 9.75-4.84 17.494-15.142 2.272 3.844 7.425 10.464 16.756 12.567a.09.09 0 0 0 .103-.12c-.018-.049-1.79-5.023 1.143-8.069-.183 4.967.938 16.083 14.305 17.684.619.074 1.24.112 1.843.112 5.2 0 8.564-2.693 10.468-4.953 3.192-3.789 4.732-9.326 3.93-14.13.487-.24.904-.46 1.265-.671 3.708-2.16 3.91-4.618 3.43-6.3-.117-.408-.16-.632-.167-.734l.03-.086c.08-.227.215-.608.344-1.12l.047-.189c.423-1.673 1.213-4.79-.716-7.428-.13-.18-.264-.352-.394-.523" fill="#231F20"/><path d="M183.322 50.644l-.111-.003a78.195 78.195 0 0 0-7.612-1.802c1.807-.825 3.356-1.32 3.371-1.326a.095.095 0 0 0 .066-.1.093.093 0 0 0-.087-.083c-3.648-.295-6.737-.25-9.076.127a14.923 14.923 0 0 1 2.916-2.11.095.095 0 0 0 .048-.103.094.094 0 0 0-.085-.075c-3.538-.255-7.031-.036-10.225.636 1.034-1.874 2.148-2.66 2.16-2.668a.094.094 0 0 0 .033-.114c-.019-.042-.06-.067-.107-.055-9.629 2.128-14.935 7.57-15.838 8.607-2.926.214-5.724.56-8.43.905-4.821-1.21-10.078-1.855-15.633-1.92 1.949-1.19 5.559-2.706 11.943-3.52a.09.09 0 0 0 .079-.08.091.091 0 0 0-.061-.094c-.065-.023-6.57-2.198-14.382-2.198-5.78 0-10.8 1.162-14.925 3.456.78-1.608 2.278-3.808 5.084-5.634a.091.091 0 0 0 .037-.104c-.014-.04-.053-.068-.093-.061-.076.006-7.284.67-11.973 4.91 2.053-3.08 4.603-5.676 7.863-8.161.477.026 1.015.044 1.61.044 3.147 0 8.055-.501 13.552-2.892a.094.094 0 0 0 .054-.108c-.01-.043-.025-.071-.097-.073l-.084.002c-.329 0-1.5-.051-3.1-.69 2.032-.909 5.056-2.52 8.27-5.147a.096.096 0 0 0 .026-.112.09.09 0 0 0-.102-.053c-.009.001-.954.159-2.248.159-.406 0-.807-.015-1.194-.046 2.042-1.027 4.42-2.664 7.079-4.87a.093.093 0 0 0 .023-.118.095.095 0 0 0-.113-.043c-.015.005-1.488.5-3.35.907 1.202-1.216 4.942-5.492 4.942-5.492.031-.024.02-.056.005-.09a.094.094 0 0 0-.137-.088s-5.665 1.897-7.34 2.563c.992-1.463 1.96-2.566 1.968-2.578a.093.093 0 0 0 .005-.12.093.093 0 0 0-.117-.026c-3.167 1.614-5.636 3.161-7.346 4.605a11.76 11.76 0 0 1 1.16-2.914.094.094 0 0 0-.126-.132c-3.773 1.961-6.41 4.07-7.993 5.537-.233-1.825.22-2.924.226-2.935a.096.096 0 0 0-.033-.114.095.095 0 0 0-.119.008c-5.188 4.912-7.057 9.93-7.676 12.434-4.655 3.935-7.821 7.698-10.142 11.615-2.46-2.304-7.581-6.11-14.725-6.371-.042-.013-.073.021-.087.058a.088.088 0 0 0 .027.101c.036.03 3.564 2.973 4.6 7.001-1.882-.659-5.567-1.695-10.1-1.695-.98 0-1.967.049-2.93.145a.09.09 0 0 0-.046.16c.026.021 2.632 2.053 4.586 4.612a35.43 35.43 0 0 0-2.601-.22c-3.178-2.292-6.792-4.307-11.454-6.05-1.467-2.189-4.9-6.293-11.435-9.19a.095.095 0 0 0-.115.031.093.093 0 0 0 .007.119c.008.01.802.893 1.191 2.693-1.974-.854-5.161-1.96-9.384-2.55a.09.09 0 0 0-.099.057.094.094 0 0 0 .027.11c.011.01 1.133.94 2.067 2.359-2.088-.786-4.934-1.42-8.462-1.887a.096.096 0 0 0-.102.064.094.094 0 0 0 .044.112c.012.007 1.29.726 2.718 1.773-2.494-.094-7.822.048-7.836.069a.09.09 0 0 0-.067.078.091.091 0 0 0 .062.101s4.948 2.778 6.493 3.526c-1.89.24-3.443.264-3.46.264a.094.094 0 0 0-.091.079.097.097 0 0 0 .06.105c3.238 1.188 6.027 1.935 8.299 2.224a15.56 15.56 0 0 1-3.282 1.042.096.096 0 0 0-.079.084.095.095 0 0 0 .063.098c3.92 1.403 7.304 1.91 9.515 2.085-1.51 1.328-2.757 1.709-2.771 1.714a.094.094 0 0 0 .021.184c.827.058 1.664.087 2.488.087 5.683 0 10.078-1.347 12.696-2.474 4.09 1.392 5.65 2.114 7.157 3.087-5.62.356-13.637 1.959-20.448 7.494-.03.024-.036.065-.024.1.013.036.05.06.088.06.355 0 8.599.014 15.419 1.171-5.29 1.56-14.209 5.484-17.437 14.669a.09.09 0 0 0 .042.11.091.091 0 0 0 .113-.024c.084-.11 8.721-10.874 29.845-13.01a.09.09 0 0 0 .08-.07.09.09 0 0 0-.043-.096c-2.978-1.816-8.776-4.171-19.513-5.138 0 0 22.286-7.153 33.886 5.07 0 0-3.218-7.672-10.997-11.77 1.26.223 6.15 1.218 10.01 3.803a.09.09 0 0 0 .09.004.089.089 0 0 0 .049-.075c.156-3.685-1.563-7.053-2.119-8.038 5.08 2.893 7.957 7.006 9.483 9.97a.087.087 0 0 0 .075.05.104.104 0 0 0 .08-.043s2.435-4.272 6.006-6.73c-.668 1.88-.876 3.952-.602 6.188.004.036.03.065.065.075a.089.089 0 0 0 .094-.03c.07-.086 7.191-8.69 20.59-8.69.756 0 1.526.028 2.297.082-2.03.413-8.056 2.03-11.683 7.151a.093.093 0 0 0-.003.1.09.09 0 0 0 .092.04c.016-.003.545-.098 1.47-.22 2.481-.193 7.807-.482 13.915-.078-18.11 3.818-24.526 9.858-25.332 10.734a.481.481 0 0 0-.057.028l.014.018a.326.326 0 0 0-.048.061c.003.029.02.055.044.07a.096.096 0 0 0 .083.003c.143-.065 14.453-6.503 34.021-9.833 1.563.298 3.117.658 4.63 1.094 2.344.755 4.566 1.648 6.604 2.709-1.475.058-7.393.428-11.29 2.624a.091.091 0 0 0-.045.1c.012.04.047.068.087.068h.335c2.643 0 16.126.106 21.996 2.218a.09.09 0 0 0 .103-.032.09.09 0 0 0-.002-.107c-.044-.059-4.44-5.818-14.952-9.745 1.391-.164 2.96-.28 4.26-.419 2.219 1.81 7.035 5.005 14.347 6.09a.089.089 0 0 0 .102-.06.096.096 0 0 0-.038-.114c-.011-.006-1.124-.71-2.156-2.512 3.185.438 6.707.404 10.234-.105a.099.099 0 0 0 .082-.08.094.094 0 0 0-.057-.099c-.015-.007-1.477-.663-2.918-1.902a23.66 23.66 0 0 0 2.073.085h.001c1.993 0 4.355-.206 7.017-.613a.091.091 0 0 0 .08-.089.09.09 0 0 0-.073-.095c-.016-.005-1.56-.385-3.366-1.08a81.718 81.718 0 0 0 7.592-2.35l.166-.017c.037-.003.047-.035.05-.072a.094.094 0 0 0-.068-.151" fill="#231F20"/><path d="M192.324 89.795c1.93.47 3.452 1.04 3.468 1.046.043.016.092 0 .115-.038a.097.097 0 0 0-.017-.12c-2.698-2.5-5.123-4.354-7.213-5.516 1.976-.174 3.583.143 3.602.145.04.01.082-.011.1-.05a.094.094 0 0 0-.019-.112c-3.271-2.975-6.358-4.798-8.428-5.823 1.334-.564 2.383-.712 2.9-.75.283-.02.441-.011.444-.01a.094.094 0 0 0 .097-.071.092.092 0 0 0-.05-.11c-6.928-3.343-13.025-3.474-16.04-3.255a9.76 9.76 0 0 0-1.123.128c-20.122-11.796-32.713-12.902-40.7-12.321-5.128.372-7.77 1.685-7.796 1.697a.09.09 0 0 0-.045.108c.012.041.055.071.096.06.002 0 .396-.054 1.136-.107 5.289-.385 23.144-1.037 46.776 14.492.87 3.133 2.828 7.845 7.214 12.493.03.033.08.04.117.016a.093.093 0 0 0 .04-.113c-.004-.013-.443-1.255-.136-3.31 1.577 1.643 4.233 4.017 8.103 6.251a.094.094 0 0 0 .13-.126c-.006-.015-.75-1.434-1.116-3.299 1.722 1.626 4.234 3.377 7.47 5.21a.095.095 0 0 0 .121-.14c-.01-.012-.99-1.269-1.979-2.93 1.697.75 4.29 1.82 7.418 2.85l.14.087a.088.088 0 0 0 .058.016.096.096 0 0 0 .06-.027.098.098 0 0 0 .027-.06c0-.002.002-.004.004-.006.02-.04-3.759-4.927-4.974-6.305" fill="#231F20"/><path d="M101.692 99.974c-.465-.755-.552-2.096-.552-3.005 0-1.54.785-2.914 2.015-3.817-5.099-1.493-9.578-1.879-11.22-1.678-.653 1.267-1.472 4.217 1.996 7.689 1.99.078 4.442.305 7.483.768l.278.043m7.852 1.75a31.25 31.25 0 0 1 2.776 1.003c2.654-1.4 2.865-3.563 3.298-5.16a26.953 26.953 0 0 1-3.566-1.01c.012.135.023.273.023.412 0 1.623-1.2 3.89-2.53 4.755m-14.78 18.724s1.945 10.155 12.748 6.123c0 0-4.889-.513-12.663-6.38m-1.526-10.189s1.446 3.413 4.435 5.566c3.269 2.356 7.982 5.397 17.562 7.751 0 0 3.354-1.009 6.418-3.129 0 0-14.093.69-28.566-10.511m37.021-9.778c1.16.15 3.06.326 5.299.304a5.04 5.04 0 0 0-.346 1.24c-.16 1.128.094 2.223.639 2.953-5.122-.044-5.589-3.332-5.592-4.497m16.626 3.214c-1.067-.04-2.225.026-3.449.183.295-.496.5-1.04.588-1.61.123-.796-.003-1.917-.311-2.606a19.743 19.743 0 0 0 3.227-1.25c.386.887.846 3.005-.056 5.283M94.164 136.03a29.534 29.534 0 0 1-2.234 3.094c1.058.492 2.132.959 3.216 1.4a26.754 26.754 0 0 0 2.248-3.08 97.885 97.885 0 0 1-3.23-1.415m6.013 2.521a29.368 29.368 0 0 1-2.147 3.08c1.134.41 2.275.79 3.422 1.143a26.454 26.454 0 0 0 2.09-3.04 75.513 75.513 0 0 1-3.365-1.182m-11.8-5.411a29.934 29.934 0 0 1-2.155 3.004c.98.575 1.982 1.127 3.001 1.655a26.775 26.775 0 0 0 2.26-3.05 94.234 94.234 0 0 1-3.106-1.61M72.916 121.61a29.937 29.937 0 0 1-1.332 1.683 34.997 34.997 0 0 0 2.477 3.117c.56-.67 1.087-1.365 1.577-2.085a41.73 41.73 0 0 1-2.722-2.715m-5.1-8.131l.285 3.182a26.692 26.692 0 0 0 1.837 4.015c.36-.457.71-.921 1.037-1.398-2.643-3.505-3.159-5.8-3.159-5.8m38.643 27.122a29.39 29.39 0 0 1-1.973 3.04 73.39 73.39 0 0 0 3.633.859 25.905 25.905 0 0 0 1.884-3.085 48.571 48.571 0 0 1-3.544-.814m-28.58-14.354a29.453 29.453 0 0 1-1.79 2.291c.89.867 1.827 1.708 2.812 2.52a26.5 26.5 0 0 0 1.822-2.657 57.06 57.06 0 0 1-2.844-2.154m5.293 3.816a29.742 29.742 0 0 1-1.958 2.792 56.095 56.095 0 0 0 2.499 1.731 26.508 26.508 0 0 0 2.091-2.898 75.336 75.336 0 0 1-2.632-1.625m29.914 11.823a28.735 28.735 0 0 1-1.805 3.202c1.441.22 2.736.32 3.892.316a25.047 25.047 0 0 0 1.639-3.356 27.74 27.74 0 0 1-3.726-.162m11.536-3.084c-.155.93-1.551 2.226-4.486 2.867-.279.86-.714 2.011-1.367 3.338 4.982-1.222 5.955-4.883 5.853-6.205m-35.107 5.379l.827.35.311-.607c.16-.31.313-.623.458-.934l.319-.69-2.99-1.256-.348.402c-1.223 1.411-3.055 3.261-4.932 4.864a24.191 24.191 0 0 0 1.864-6.091l.096-.575-1.736-.725-.347.423c-1.466 1.798-3.23 3.481-5.27 5.03a39.287 39.287 0 0 0 2.306-6.157l.17-.622-3.175-1.332-.294.653c-.133.293-.273.585-.42.876l-.36.708.831.345c-.727 2.924-2.022 5.666-3.853 8.16l-.55.752 2.932 1.234.317-.185a39.746 39.746 0 0 0 4.748-3.241 23.795 23.795 0 0 1-2.23 3.63l-.558.75.86.365 1.74.733.337.14.316-.183c3.4-1.972 6.301-4.264 8.631-6.816m1.627 15.104a32.313 32.313 0 0 0 2.775-3.061l.22-.275-.078-.344c-.11-.493-.233-.988-.365-1.486l-.09-.35-3.524-1.484c.379-.558.74-1.128 1.076-1.706l2.244.946-.365.606.777.331c.505.215 1.01.43 1.519.642l.587.246.327-.547c.37-.622.664-1.114.996-1.792l.342-.699-6.636-2.793-.277.107a94.4 94.4 0 0 1-1.536.575l-.26.096-.133.244a26.489 26.489 0 0 1-1.773 2.828l-.183.258.06.31c.096.5.184.994.261 1.483l.063.405 3.557 1.496a31.452 31.452 0 0 1-1.805 1.964l-2.175-.915.63-.675-2.953-1.245-.35.375c-.617.658-.866.884-1.534 1.49l-.856.774 6.862 2.886.225-.048c.682-.147 1.357-.298 2.026-.453l.198-.046.148-.143m11.113-1.184l-.296.65a21.58 21.58 0 0 1-.424.876c-1.214 2.365-2.874 4.58-4.938 6.593l-2.115-.89c1.973-2.01 3.574-4.206 4.766-6.545.16-.312.31-.623.454-.937l.315-.69-3.522-1.48-.294.655c-.133.293-.275.587-.421.878l-.353.701.625.264c-1.253 2.268-2.927 4.392-4.981 6.322l-.266.249.038.362c.043.421.08.836.106 1.247l.03.454 5.159 2.17.22-.042c.67-.132 1.33-.265 1.982-.401l.202-.042.15-.14c2.217-2.073 4.02-4.36 5.364-6.81l.774.326.31-.608c.157-.309.309-.62.453-.93l.32-.69-3.658-1.542m-30.88 15.064a55.307 55.307 0 0 1-3.24-.819 41.85 41.85 0 0 1-1.936 2.1c.228.067.45.135.68.2.838.229 1.642.43 2.432.618a38.24 38.24 0 0 0 2.064-2.099m6.588 1.029a53.434 53.434 0 0 1-3.556-.46 41.43 41.43 0 0 1-2.053 2.187 55.86 55.86 0 0 0 3.386.537 38.258 38.258 0 0 0 2.223-2.264m-32.815-14.617s.974 1.865 3.293 4.358c.286-.301.557-.603.823-.905-2.677-1.998-4.116-3.453-4.116-3.453m20.215 11.912a57.47 57.47 0 0 1-2.708-1.001 41.002 41.002 0 0 1-1.801 2.038c.82.356 1.678.698 2.575 1.02a38.514 38.514 0 0 0 1.934-2.057m-8.528-3.684a41.39 41.39 0 0 1-1.626 1.726c.97.621 2.02 1.23 3.155 1.816a36.104 36.104 0 0 0 1.718-1.95 58.15 58.15 0 0 1-3.247-1.592m36.16 5.724a56.258 56.258 0 0 1-4.03.566 38.706 38.706 0 0 1-1.717 2.073c4.15-.956 5.747-2.64 5.747-2.64M54.47 166.48a59.854 59.854 0 0 1-3.084-1.943c-.363.405-.736.81-1.122 1.206a35.014 35.014 0 0 0 2.77 2.29 37.71 37.71 0 0 0 1.436-1.553m26.844 7.912a41.554 41.554 0 0 1-2.178 2.37 35.38 35.38 0 0 0 3.966-.013 37.442 37.442 0 0 0 2.178-2.367 54.23 54.23 0 0 1-3.966.01m-41.698-27.466s-.484-1.289-.693-3.423a28.797 28.797 0 0 1-1.83-1.388c.499 1.585 1.302 3.2 2.523 4.81m-7.141-29.952s5.483.698 8.521 5.089a16.396 16.396 0 0 1 2.624-1.958c-2.183-1.977-5.715-3.776-11.145-3.131m9.419 8.579a26.813 26.813 0 0 0 2.036 1.851 31.687 31.687 0 0 1 2.732-3.104s-.323-.848-1.096-1.972a29.997 29.997 0 0 0-3.672 3.225m-1.248 7.392a24.8 24.8 0 0 1 1.603-3.091 29.911 29.911 0 0 1-2.25-2.068 19.63 19.63 0 0 0-1.744 2.792 27.409 27.409 0 0 0 2.391 2.367m-4.2 4.593a27.237 27.237 0 0 0 2.459 2.234c.102-1.182.319-2.477.694-3.846a29.89 29.89 0 0 1-2.538-2.365c-.095.325-.177.65-.25.97a16.08 16.08 0 0 0-.365 3.007" fill="#FFF"/><path d="M126.596 133.072l.081-.134c-.055.049-.116.105-.172.153.431-2.537-.22-4.446-.22-4.446-2.45 4.662-4.168 7.435-5.257 9.03-.182.035-.359.065-.537.094 1.028-3.026.51-7.338.51-7.338-2.306 4.228-3.785 6.457-4.68 7.626a22.18 22.18 0 0 1-1.08-.053c.813-3.086.634-5.71.634-5.71-4.155 4.837-4.8 4.988-4.8 4.988-19.736-4.394-29.155-13.461-32.174-16.974-.537-6.015-.495-8.821-.495-8.821-3.374 3.376-3.58 4.885-3.903 6.236-.912-7.718-1.122-10.146-1.122-10.146-2.991 2.313-3.135 3.292-3.135 3.292 0-2.966.513-5.63.919-7.939l19.305 15.386c.708 4.919 2.019 8.09 5.598 11.13 6.404 5.434 20.306-2.23 27.135-5.986 2.758-1.514 5.86-2.314 8.111-2.263-.19-3.363 1.416-5.967 1.416-5.967s5.346 3.65 2.708 7.603l.018.018c-4.01 6.26-8.86 10.22-8.86 10.22m10.244 17.623c-1.087-2.268-.207-4.773.123-5.56-1.668-.442-2.512-1.972-2.81-2.644-2.354 2.58-1.348 6.188.754 8.682 1.932 2.291 2.104 4.707 2.11 5.406.335.045.658.068.962.068 2.842 0 3.63-1.92 3.813-2.553-2.493-.597-4.158-1.74-4.953-3.399m27.586-6.074c-.156-.214-.309-.413-.456-.605-.943-1.23-1.686-2.203-1.74-4.817-.051-2.447-1.121-3.03-2.744-3.914-.24-.13-.487-.265-.744-.413-.57-.328-1.04-.934-1.538-1.575-.957-1.232-2.041-2.63-4.187-2.63-.889 0-1.916.245-3.056.725-.067.025-6.057 2.328-11.087 6.47-.039.027-1.256.766-1.524 1.881-.126.52-.023 1.05.306 1.575.355.57.881.846 1.606.846 1.928 0 4.68-1.98 6.004-2.932.27-.194.488-.352.64-.45.75-.486 1.883-1.134 3.093-1.134.804 0 1.532.287 2.164.854a.213.213 0 0 1-.056.355c-.064.027-6.275 2.79-9.586 5.509-.161.1-3.377 2.113-1.815 4.847.448.784 1.094 1.164 1.977 1.164 1.53 0 3.361-1.178 4.243-1.743.136-.088.253-.164.347-.22.12-.075.294-.191.512-.334 1.353-.901 4.169-2.773 6.324-2.773.816 0 1.462.27 1.925.8a.22.22 0 0 1 .05.185.214.214 0 0 1-.118.15c-.06.027-5.851 2.78-8.1 4.318-.042.023-1.528.755-1.943 2.046-.205.636-.116 1.312.263 2.011.422.774 1.073 1.15 1.99 1.15 1.462 0 3.36-.967 4.883-1.743.32-.163.626-.319.914-.46l.198-.097c1.497-.732 2.792-1.365 3.996-1.365.819 0 1.52.295 2.15.903a.213.213 0 0 1-.065.35c-1.549.655-6.838 2.93-10.71 5.118.295.463 1.296 1.687 3.633 1.687 1.06 0 2.266-.256 3.586-.763 5.875-2.256 9.45-3.735 8.904-5.642-.512-1.795-.212-2.84.108-3.95.067-.234.135-.474.2-.727.314-1.248.598-3.089-.547-4.656M67.41 137.13c-.19 1.369-1.715 2.21-2.177 2.435a.186.186 0 0 1-.203-.025.187.187 0 0 1-.064-.194c.819-3.14.764-4.782.764-4.799a.187.187 0 0 1 .109-.179.186.186 0 0 1 .207.03c1.03.923 1.49 1.842 1.365 2.732zm-2.265 7.86c-.45 1.232-1.95 1.741-2.574 1.903a.186.186 0 0 1-.192-.06.19.19 0 0 1-.03-.2 54.144 54.144 0 0 0 1.764-4.468.19.19 0 0 1 .335-.046c.764 1.085.998 2.051.697 2.872zm-3.454 7.292c-.662 1.4-2.71 1.731-2.797 1.744a.191.191 0 0 1-.186-.08.187.187 0 0 1-.008-.201 83.935 83.935 0 0 0 2.27-4.2.19.19 0 0 1 .163-.104.2.2 0 0 1 .17.093c.622 1.057.753 1.98.388 2.748zm9.875-13.83c-.184-.796-.556-1.341-.917-1.867-.572-.839-1.114-1.631-.53-3.13.83-2.132-.808-3.928-.825-3.947-.717-.856-1.995-1.285-3.805-1.285-1.511 0-3 .31-3.7.48.994.789 2 1.965 2.048 2.02a.21.21 0 0 1-.12.341c-.73.143-1.45.215-2.143.215-4.529 0-6.698-2.98-6.788-3.107a.21.21 0 0 1 .068-.303c2.545-1.427 5.211-1.727 7-1.727 1.08 0 1.888.106 2.263.167.007-.605-.31-2.38-4.147-3.188-.002-.001-.572-.11-1.492-.11-3.07 0-8.799 1.121-12.673 8.624-5.245 10.157-2.069 16.58-2.036 16.643.019.03 2.633 4.274 8.862 7.17 1.515.706 4.114 1.198 6.32 1.198 2.414 0 4.042-.57 4.467-1.564.555-1.3 1.354-2.202 2.375-2.686 1.08-.51 3.107-2.04 3.045-4.173-.067-2.37.527-3.54 1.882-5.263 1.354-1.725 1.205-2.956.846-4.508z" fill="#FCD006"/><path d="M140.723 106.786c-9.176 2.384-16.446-2.594-12.217-11.705-1.067-.035-2.359.558-3.728.084.667 1.688 1.156 4.999-6.158 3.615 0 0-.152 3.555-3.361 5.464 2.198 1.424 2.56 2.564 2.56 2.564a114.078 114.078 0 0 0-5.386-1.854l-.006.002-.135-.046c-16.667-5.238-26.737-3.979-26.737-3.979s.375-1.312 4.455-1.695c-.925-1.122-3.102-4.225-1.849-7.796 0 0-2.174-.967-4.107-.603 0 0 6.815-6.233 26.643 1.539 18.56 7.275 9.004-1.42 3.808-1.42 0 0 2.188-1.764 9.408 1.014 7.291 2.803 7.991-1.032 7.63-1.822 0 0 3.494 2.371.369 6.382 2.47.363 7.92.772 12.853-1.583 3.599-1.72 3.378-3.57 1.527-4.848-.025-2.289-.436-6.954-3.95-12.287a33.96 33.96 0 0 0-2.958-.906c1.777 4.58.484 9.625.484 9.625-3.414-4.78-6.947-7.19-9.1-8.322 1.257 3.423.544 6.343.544 6.343-3.288-4.85-6.469-6.995-8.358-7.919 2.178 4.44.923 10.976.923 10.976-2.917-4.389-6.081-6.867-8.42-8.24.145 2.791-1.018 5.382-1.018 5.382-3.742-7.756-8.99-9.135-8.99-9.135-1.515 3.972-1.27 8.54-1.27 8.54-5.311-3.9-6.06-8.185-6.06-8.185-2.592 2.854-4.052 8.575-4.052 8.575-1.815-2.465-2.39-7.014-2.39-7.014-2.706 3.061-3.573 9.477-3.573 9.477-1.556-1.945-1.632-5.414-1.632-5.414-3.5 4.018-7.184 15.008-7.184 15.008-1.69-2.78-1.946-6.204-1.737-9.07-.914.977-3.046 4.46-4.537 8.21l16.62 13.936c.05-.977.173-2.158.308-2.837-3.553-1.675-4.126-4.476-4.126-4.476s5.712 4.377 18.498 2.718c0 0-1.694 3.37-9.125 2.948 3.42 2.883 14.103 10.325 33.318 10.284.144-1.386.534-3.096 1.524-4.349 0 0-3.354-1.516-6.941.953 0 0 .87-8.397 13.043-1.73 9.588 5.252 12.567 2.053 14.742-1.45 2.176-3.504-.846-7.372-10.152-4.954m34.882-56.014a60.158 60.158 0 0 0-4.338-1.229c-.863.34-1.622.688-2.275 1.032 3.937.017 6.613.197 6.613.197m-10.387-2.388a18.7 18.7 0 0 0-4.51 2.422c1.668-.105 3.29-.168 4.814-.2a24.78 24.78 0 0 1 3.103-1.648 58.15 58.15 0 0 0-3.407-.574m-5.759-.427c-3.697.978-6.585 3.686-6.585 3.686a75.237 75.237 0 0 1 4.398-.56c1.47-1.328 3.322-2.355 4.76-3.032-1.635-.117-2.573-.094-2.573-.094m-32.28-23.649a67.265 67.265 0 0 0-4.251 1.289c-.51.669-.93 1.292-1.264 1.858 3.224-1.945 5.515-3.147 5.515-3.147m-9.86 3.48a15.352 15.352 0 0 0-2.292 3.95 117.007 117.007 0 0 1 3.82-2.536 20.766 20.766 0 0 1 1.584-2.703 63.923 63.923 0 0 0-3.112 1.29m-4.954 2.561c-2.459 2.528-3.255 5.873-3.255 5.873a70.037 70.037 0 0 1 3.27-2.582c.436-1.667 1.358-3.311 2.14-4.502-1.4.73-2.155 1.212-2.155 1.212m-62.87 11.042a61.482 61.482 0 0 0-3.365-.176 20.524 20.524 0 0 1 2.398 2.02c1.417.326 2.917.696 4.447 1.113a15.382 15.382 0 0 0-3.48-2.957m-10.458.014s2.56.368 6.25 1.124a19.343 19.343 0 0 0-1.812-1.33 67.5 67.5 0 0 0-4.438.206m17.068 3.853a72.41 72.41 0 0 1 3.946 1.34s-1.872-2.888-5.03-4.448c0 0-.873-.203-2.44-.422 1.14.861 2.556 2.103 3.524 3.53M42.216 93.601c1.452.28 2.907.597 4.33.96 0 0-2.629-2.961-6.22-4.274 0 0-.933-.108-2.57-.141 1.368.805 3.117 1.998 4.46 3.455m-11.108-3.158a25.03 25.03 0 0 1 2.938 1.924c1.514.174 3.124.384 4.775.642a18.643 18.643 0 0 0-4.271-2.824 57.696 57.696 0 0 0-3.442.258m-7.115 1.167s2.68.065 6.599.41a22.449 22.449 0 0 0-2.172-1.237 59.528 59.528 0 0 0-4.427.827m46.794 5.074L52.241 94.67l-2.422.681 20.095 3.31 26.359 20.438 1.728.843.296-.443-27.51-22.814" fill="#FCD006"/><path d="M122.851 64.696c-.74.053-1.134.108-1.136.108-.041.01-.084-.02-.096-.061a.09.09 0 0 1 .045-.108c.026-.012 2.668-1.325 7.795-1.697 4.067-.296 9.333-.15 16.175 1.618 6.84-.52 13.891-.578 15.062-.495-5.942-2.063-19.226-2.169-21.848-2.169h-.335a.093.093 0 0 1-.087-.066.091.091 0 0 1 .044-.101c3.898-2.196 9.816-2.566 11.291-2.624-2.038-1.06-4.26-1.954-6.605-2.709a51.497 51.497 0 0 0-4.629-1.094c-19.568 3.33-33.878 9.768-34.02 9.833a.096.096 0 0 1-.084-.004.092.092 0 0 1-.044-.069.39.39 0 0 1 .048-.061l-.014-.018a.481.481 0 0 1 .057-.028c.806-.876 7.222-6.916 25.332-10.734a100.813 100.813 0 0 0-13.915.077c-.925.123-1.454.218-1.47.222a.091.091 0 0 1-.092-.04.093.093 0 0 1 .003-.1c3.627-5.123 9.653-6.739 11.683-7.152a32.723 32.723 0 0 0-2.297-.082c-13.399 0-20.52 8.604-20.59 8.69a.089.089 0 0 1-.094.03.088.088 0 0 1-.065-.075c-.274-2.236-.066-4.309.602-6.189-3.571 2.46-6.007 6.731-6.007 6.731-.017.028-.053.041-.079.042a.091.091 0 0 1-.077-.048c-1.525-2.965-4.402-7.078-9.481-9.971.556.985 2.275 4.353 2.119 8.038a.089.089 0 0 1-.05.075.091.091 0 0 1-.09-.004c-3.858-2.585-8.75-3.58-10.01-3.803 7.78 4.098 10.998 11.77 10.998 11.77-11.6-12.223-33.886-5.07-33.886-5.07 10.737.967 16.535 3.322 19.513 5.138a.09.09 0 0 1-.037.166c-9.837.995-16.964 3.86-21.782 6.65-7.043 6.89-6.443 12.882-6.443 12.882 4.35-12.31 22.334-14.742 22.515-14.765.045-.003.084.02.097.063a.09.09 0 0 1-.045.106c-6.577 3.374-10.556 8.516-11.865 10.405 3.611-3.262 11.085-5.097 11.165-5.116a.086.086 0 0 1 .095.039c.021.03.02.072-.003.103-2.45 3.245-3.5 6.378-3.947 8.563 6.235-9.283 13.996-13.535 19.443-15.47a.09.09 0 0 1 .11.042.09.09 0 0 1-.029.116c-3.835 2.746-8.806 8-10.977 17.53.504-.986 4.848-9.01 10.95-12.769a.09.09 0 1 1 .116.133c-3.991 4.93-5.065 10.078-5.335 12.993 4.678-9.89 13.31-14.589 13.397-14.635a.088.088 0 0 1 .092.004c.028.018.044.05.04.082-.146 1.793-.16 3.444-.049 4.915 2.331-3.893 5.117-4.994 5.144-5.006a.099.099 0 0 1 .077.006.09.09 0 0 1 .044.065c.486 3.07 1.46 5.25 2.247 6.596.231-3.013 2.092-5.414 2.111-5.438a.091.091 0 0 1 .085-.033c7.08 1.112 12.406 4.34 15.68 6.915-1.135-4.759-5.775-8.377-5.823-8.413a.09.09 0 0 1-.028-.106c.013-.037.045-.062.094-.055 10.681 1.326 17.487 4.317 21.367 6.65-1.355-3.131-3.197-5.517-3.215-5.54a.089.089 0 0 1-.004-.105.086.086 0 0 1 .097-.037c6.664 1.776 12.232 3.716 16.553 5.769-3.247-4.099-7.217-6.546-7.257-6.57a.09.09 0 0 1-.037-.112.09.09 0 0 1 .102-.053c.14.032 14.07 3.249 23.66 11.723.005.006.01.01.017.015-3.105-3.484-7.967-7.714-11.314-10.256-15.512-6.582-26.761-6.144-30.774-5.852m59.299 16.087c-1.211-1.102-1.962-1.666-1.962-1.666-3.507-1.519-7.452-1.177-7.452-1.177a75.687 75.687 0 0 1 3.802 2.28c1.977-.133 4.064.206 5.613.563m3.909 6.29c3.082 2.446 5.071 4.244 5.071 4.244a60.273 60.273 0 0 0-2.645-3.648c-.889-.267-1.7-.463-2.426-.596m-1.609-4.053a18.679 18.679 0 0 0-5.042-.89 115.25 115.25 0 0 1 3.905 2.819c1.303.136 2.517.39 3.458.626a58.446 58.446 0 0 0-2.32-2.556" fill="#FCD006"/><path d="M112.965 174.97h.514c.598 0 1.086-.202 1.086-.688 0-.428-.316-.714-1-.714-.288 0-.487.03-.6.056v1.347zm-.028 2.629h-1.088v-4.687c.429-.06 1.03-.145 1.801-.145.885 0 1.285.145 1.598.374.288.199.484.542.484.998 0 .573-.426.943-.968 1.116v.055c.457.143.685.516.828 1.144.14.713.257.973.343 1.145h-1.144c-.143-.172-.226-.574-.37-1.145-.085-.485-.372-.716-.97-.716h-.514v1.86zm-2.887-2.431c0 2.086 1.57 3.744 3.657 3.744 2.025.029 3.57-1.658 3.57-3.716 0-2.085-1.545-3.77-3.627-3.77-2.03 0-3.6 1.685-3.6 3.742zm8.428 0c0 2.627-2.114 4.714-4.8 4.714-2.687 0-4.828-2.087-4.828-4.714 0-2.628 2.141-4.685 4.857-4.685 2.657 0 4.77 2.057 4.77 4.685z" fill="#231F20"/></g></svg>