<svg width="200" height="200" xmlns="http://www.w3.org/2000/svg"><g fill="none" fill-rule="evenodd"><path d="M95.806 79.676l-.03-.052c.03.045.044.073.054.091l-.024-.04zm84.903 73.666l-11.506-67.717-27.12 48.126-14.105-25.725c2.298-.424 4.47-1.496 6.329-3.157 3.092-2.764 4.95-6.901 4.938-11.067-.032-11.495-13.494-15.168-13.494-15.168s.228 7.588-3.675 9.038c-.779.29-1.766.708-2.741 1.017 2.094-3.206 3.236-7.105 3.216-11.19-.02-4.083-1.939-10.678-7.279-15.826-4.744-4.575-11.11-6.865-18.424-6.648a27.44 27.44 0 0 0-3.63.357l1.438-8.648c3.322-14.293 18.912-21.426 18.912-21.426l-33.753.02c-3.208 0-6.03 2.443-6.449 5.57l-2.104 14.763L56.132 21l-15.07 24.678-2.156-14.794c-.426-3.121-3.244-5.556-6.444-5.556L0 25.308s14.707 8.43 17.514 20.803l11.688 67.717 26.937-48.126 16.988 30.983c-4.842 5.662-7.561 12.914-7.561 20.4 0 17.32 14.1 31.411 31.43 31.411 2.51 0 5-.3 7.42-.89l-.85 5.113c-2.759 12.141-19.369 21.427-19.369 21.427l34.21-.02c3.206 0 6.027-2.44 6.448-5.566l2.105-14.768 15.13 24.662 15.07-24.678 2.156 14.79c.425 3.123 3.243 5.56 6.444 5.56l33.862.085s-14.371-6.36-18.913-20.869z" fill="#ECAC2E"/><path d="M176.743 154.319l-9.277-55.708-24.59 44.88h-.183l-23.11-42.146c1.101.775 3.014 1.748 5.973 2.078 5.275.591 9.627-4.316 9.627-9.62 0-3.98-2.35-7.94-5.883-8.864 1.346 15.577-41.931 4.127-41.25 30.655.694 14.062 20.716 14.006 19.272 1.492-11.87.064-8.273-13.263.72-11.435l.154.118c2.998 2.783 4.738 6.914 4.738 11.317 0 8.398-6.836 15.23-15.239 15.23s-15.202-6.702-15.24-15.23c-.036-8.528 3.852-15.707 15.202-21.816-2.66-1.514-9.415-5.319-9.6-14.445h.01c0-5.305 4.332-9.621 9.628-9.621 3.85 0 7.05 3.088 7.05 6.873s-3.083 6.931-6.87 6.865c-3.822-.067-5.421-2.762-5.438-2.79.018 5.525 5.027 9.572 10.051 10.018 9.742.865 16.044-6.075 16-14.647-.028-5.681-5.42-18.215-20.793-17.74a22.355 22.355 0 0 0-9.761 2.565l2.748-16.539c2.68-11.733 10.16-15.732 10.16-15.732l-20.328.01c-.91 0-1.64.728-1.73 1.456l-4.007 28.123h-.182L56.84 29.12 39.17 59.666h-.183L34.89 31.543c-.09-.728-.91-1.456-1.73-1.456l-20.283-.01s7.196 3.843 10.002 15.058l9.278 55.708 24.59-44.88h.182l22.755 41.499c-5.314 4.874-8.656 11.864-8.656 19.624 0 14.697 11.963 26.651 26.668 26.651a26.51 26.51 0 0 0 13.502-3.681l-2.257 13.59c-2.681 11.733-10.16 15.731-10.16 15.731l20.327-.01c.91 0 1.64-.727 1.73-1.456l4.008-28.122h.182l17.753 30.544 17.671-30.544h.183l4.098 28.122c.09.729.911 1.456 1.73 1.456l20.283.01s-7.195-3.843-10.002-15.058" fill="#174C39"/></g></svg>