<svg width="200" height="200" xmlns="http://www.w3.org/2000/svg"><g fill="none"><path d="M0 87.194c3.605-.967 9.036-1.985 12.68-2.505-4.577 16.136-8.05 34.194-9.67 50.862 4.398-1.62 9.08-3.16 13.495-4.492-1.92 25.56-1.457 37.135-.068 56.813 89.594-65.054 126.005-65.863 137.748-35.19 64.127-7.87 56.95-99.085 1.157-101.168l-3.643 5.433 6.798-10.324c-9.174-15.945-30.936-27.057-59.325-25.766-21.631.984-49.48-2.762-72.317-8.7C15.974 32.3 4.862 63.58 0 87.194" fill="#F9B118"/><path d="M33.608 26.731C26.81 40.076 20.263 58.206 16.235 74.07c4.485-.852 8.19-1.547 12.338-2.267-3.777 11.835-8.561 30.468-11.583 48.346 5.061-1.556 8.939-2.597 13.597-3.777-2.343 14.55-3.5 34.227-3.27 48.58 82.186-56.719 121.314-50.886 132.423-25.928 41.44-11.807 37.042-72.462-11.063-78.048l-4.013 10.398c30.096 4.978 41.782 36.688 19.624 53.307-18.129-24.928-58.865-23.442-123.881 16.618.338-8.063 1.265-21.259 2.885-30.288-5.093.869-8.045 1.563-12.502 2.778 2.518-15.611 6.847-31.662 11.631-45.763-3.47.446-7.81 1.082-12.086 1.763 2.944-10.346 7.17-21.98 10.642-29.388 15.511 3.936 29.634 5.1 50.04 4.711 25.357-.482 37 4.575 42.563 9.18 7.302 6.043 1.418 12.22-8.479 12.568-4.788.168-12.907-.695-17.074-5.21C96.51 78.32 130.6 87.986 151.7 56.948c-9.322-16.546-28.255-24.432-52.527-24.003-29.025.512-41.643-1.68-65.564-6.213" fill="#A80C30"/><path d="M43.498 110.807l-.042.234c-1.533 8.542-2.484 21.008-2.87 29.952 31.28-19.242 57.97-30.19 79.326-32.54 10.13-1.114 19.07-.266 26.573 2.518 7.253 2.692 13.254 7.225 17.838 13.475 4.731-3.583 8.038-7.934 9.829-12.933 1.672-4.667 1.912-9.766.695-14.746-1.478-6.04-4.946-11.583-10.031-16.027-5.415-4.732-12.393-7.914-20.18-9.201l-.202-.034 3.686-9.548c-9.536 11.326-20.642 15.446-28.96 15.447a23.91 23.91 0 0 1-1.819-.068c-5.335-.407-9.474-2.647-11.07-5.992-1.374-2.882-.814-6.266 1.62-9.788l.117-.171.142.153c3.79 4.106 11.236 5.355 16.945 5.155 5.732-.2 10.293-2.423 11.35-5.528.734-2.156-.321-4.552-2.971-6.745-3.337-2.762-7.978-4.937-13.795-6.464-7.59-1.994-17.232-2.894-28.659-2.677-21.02.4-35.041-.913-49.95-4.682-3.48 7.45-7.585 18.78-10.503 28.986 4.328-.686 8.52-1.297 11.833-1.723l.265-.034-.086.254c-3.676 10.834-8.66 27.499-11.583 45.48 4.16-1.13 7.113-1.834 12.268-2.713l.234-.04zm-12.706 5.34l-.04.251c-2.188 13.582-3.498 32.922-3.272 48.24 63.08-43.481 96.204-47.029 112.891-42.34 9.135 2.568 15.682 8.127 19.463 16.526 9.417-2.716 17.006-8.164 21.954-15.763 4.537-6.968 6.65-15.55 5.951-24.164-.743-9.158-4.607-17.84-10.879-24.446-6.98-7.35-16.685-11.947-28.074-13.295l-3.893 10.088c7.766 1.319 14.727 4.513 20.142 9.245 5.137 4.49 8.642 10.09 10.135 16.2 1.234 5.043.99 10.208-.704 14.936-1.83 5.11-5.221 9.547-10.077 13.19l-.136.1-.1-.136c-9.318-12.814-24.19-18.195-44.205-15.994-21.368 2.35-48.1 13.337-79.454 32.656l-.267.165.013-.314c.374-8.895 1.317-21.425 2.846-30.076-5.099.875-8.035 1.584-12.252 2.734l-.25.068.042-.255c2.897-17.963 7.863-34.634 11.552-45.538a430.568 430.568 0 0 0-11.817 1.729l-.258.04.072-.25c2.943-10.344 7.124-21.89 10.651-29.414l.058-.124.134.034c14.928 3.787 28.945 5.108 49.996 4.706 11.457-.218 21.13.686 28.75 2.687 5.863 1.54 10.548 3.737 13.923 6.53 2.764 2.288 3.856 4.813 3.074 7.11-1.102 3.235-5.785 5.547-11.654 5.753-5.714.2-13.152-1.042-17.06-5.11-2.262 3.356-2.773 6.563-1.475 9.284 1.544 3.237 5.58 5.406 10.794 5.803 5.23.398 11.176-1 16.739-3.94 5.253-2.774 10.165-6.915 14.402-12.11l.061-.158.062.007a58.743 58.743 0 0 0 2.873-3.863c-4.552-8.033-11.458-14.159-20.529-18.207-8.844-3.947-19.54-5.839-31.799-5.621-28.676.505-41.513-1.653-65.475-6.193-6.525 12.837-13.116 30.784-17.24 46.939 3.937-.747 7.83-1.48 12.084-2.218l.27-.047-.083.262c-3.488 10.93-8.34 29.268-11.531 48.056 5.006-1.533 8.83-2.556 13.346-3.7l.246-.062zm-3.636 49.12l-.005-.312c-.246-15.29 1.05-34.682 3.231-48.36-4.481 1.138-8.307 2.165-13.343 3.713l-.258.08.045-.267c3.169-18.75 8.003-37.085 11.504-48.107a782.49 782.49 0 0 0-12.064 2.22l-.257.048.064-.253c4.137-16.29 10.799-34.442 17.387-47.373l.057-.112.122.023c24.019 4.551 36.838 6.717 65.53 6.21 12.307-.218 23.052 1.684 31.94 5.65 9.172 4.094 16.148 10.297 20.735 18.438l.05.09-.057.086a61.023 61.023 0 0 1-2.808 3.809c11.378 1.388 21.08 6.008 28.073 13.372 6.324 6.66 10.22 15.414 10.97 24.648.704 8.687-1.428 17.343-6.005 24.373-5.016 7.705-12.72 13.217-22.28 15.94l-.14.04-.059-.131c-3.729-8.378-10.225-13.92-19.307-16.472-16.64-4.676-49.73-1.105-112.868 42.47l-.257.177z" fill="#A80C30"/><path d="M148.677 60.976l-4.013 10.398c30.125 4.911 41.782 36.688 19.624 53.307-18.129-24.928-58.865-23.442-123.881 16.618.28-8.12 1.207-21.317 2.885-30.288-5.093.926-7.987 1.563-12.502 2.778 2.518-15.611 6.847-31.662 11.631-45.763-3.354.504-8.042 1.14-12.086 1.763 2.944-10.346 7.17-21.98 10.642-29.388 16.205 3.936 29.634 5.1 50.04 4.711 25.357-.482 37 4.575 42.563 9.18 7.302 6.043 1.418 12.22-8.479 12.568-4.788.168-12.907-.695-17.074-5.21-10.545 15.262 17.142 24.653 38.086 2.307l2.564-2.981" fill="#FFF"/></g></svg>