<svg width="200" height="200" xmlns="http://www.w3.org/2000/svg"><g fill="none" fill-rule="evenodd"><path d="M39.748 185.749L16.54 114.34c-.918-2.925-1.76-5.396-4.927-6.393-3.202-1.009-5.748.586-5.748.586l5.417-50.855c-3.555 3.003-5.651 5.05-5.651 5.05L0 114.808s4.677-2.883 8.211-1.759c2.58.822 3.422 2.381 4.34 5.279l25.895 76.53c11.714-19.089 26.573-27.332 44.577-32.754l.86-4.066c-17.767 4.556-33.648 12.32-44.135 27.71M75.835 83.549c.938-3.988 1.609-5.48 0-8.563-1.408-2.698-3.87-2.756-3.87-2.756l5.471-48.26a188.91 188.91 0 0 0-5.413 1.809l-5.63 49.323s2.006-.391 3.753 2.054c1.76 2.463.939 4.899 0 8.915l-7.313 30.457 2.269 10.422 10.733-43.4m62.052-14.37c1.002-3.194.751-4.948-.411-7.155-1.173-2.23-4.399-2.288-4.399-2.288l5.275-46.892c-3.338.357-5.333.617-5.333.617l-5.161 49.618s3.05-.082 4.223 2.111c1.162 2.173.884 4.988-.117 8.212l-7.587 26.93 2.249 10.547 11.26-41.7m-31.846 84.222l-8.21-38.475-2.515 12.782 7.382 31.382s7.796-1.769 22.698-1.232c13.02.469 25.454 3.871 25.454 3.871l1.444-4.711c-5.054-1.346-14.455-3.38-26.957-4.027-11.79-.613-19.296.41-19.296.41m55.018 10.158c-1.61 0-2.983-1.312-2.983-2.965 0-1.65 1.373-2.963 2.983-2.963 1.609 0 2.983 1.312 2.983 2.963 0 1.653-1.374 2.966-2.983 2.966zm0-6.734a3.755 3.755 0 0 0-3.789 3.77c0 2.099 1.674 3.77 3.789 3.77a3.756 3.756 0 0 0 3.79-3.77c0-2.098-1.675-3.77-3.79-3.77z" fill="#231F20"/><path d="M161.348 160.048c-.15.001-.297-.004-.422-.004h-.55v-.785h.943c.212 0 .437.019.606.082.166.06.245.149.245.281 0 .232-.143.34-.4.391a2.147 2.147 0 0 1-.422.035zm1.628-.415c0-.979-.821-1.18-1.545-1.18h-1.861v4.24h.805v-1.844h.485l1.198 1.843h.966l-1.217-1.857c.647-.072 1.17-.406 1.17-1.202z" fill="#231F20"/><path d="M169.5 5.25c-15.834.189-30.5 1.82-30.5 1.82l-.649 5.775-5.275 46.892s3.226.058 4.399 2.288c1.162 2.207 1.413 3.961.41 7.154l-11.26 41.701-2.25-10.546-5.492-25.759c-.717-2.885-.645-7.448.587-10.146 1.494-3.273 4.105-3.402 4.105-3.402l5.63-53.137s-13.203 1.257-27.506 4.223c-12.727 2.64-23.578 5.806-23.578 5.806l-.686 6.05-5.472 48.26s2.463.06 3.871 2.757c1.609 3.084.938 4.575 0 8.563L65.102 126.95l-2.269-10.422-5.531-25.413c-.694-3.068-.649-8.009.469-10.44 1.994-4.34 4.633-4.868 4.633-4.868l5.63-55.248S49.56 26.834 34.486 35.69c-13.2 7.756-22.58 16.13-22.58 16.13l-.624 5.86-5.417 50.854s2.546-1.595 5.748-.586c3.167.997 4.009 3.468 4.927 6.393l23.208 71.408c10.487-15.39 26.368-23.154 44.134-27.71 1.892-.486 3.805-.935 5.736-1.353l5.697-28.977 2.514-12.782 8.211 38.475s7.506-1.023 19.296-.41c12.502.647 21.903 2.681 26.957 4.027 2.722.725 4.186 1.25 4.186 1.25l27.918-90.38s1.272-6.603 4.575-8.914c2.346-1.642 5.395-1.408 5.395-1.408l5.28-51.495s-10.324-1.056-30.147-.821" fill="#92191E"/></g></svg>