<svg width="200" height="200" xmlns="http://www.w3.org/2000/svg"><g fill="none" fill-rule="evenodd"><path d="M134.357 1.543c.458 3.327-2.897 5.5-4.706 8.153-4.923 7.152-6.121 18.652-5.01 30.434 8.714 4.566 18.104 7.979 26.665 13.783 4.358 2.891 6.95 6.696 13.486 4.696 4.14 1.717 3.398 5.804 3.769 10.021.392 4.827 2.854 10.283 2.505 15.218 11.917 1.804 21.263 11.413 18.823 25.674a24.16 24.16 0 0 1-7.211 12.848c-2.179 1.913-5.381 3.043-5.664 7.195 3.616 4.87 6.405 16.261-.305 19.087-2.179.913-4.51-.174-6.906.326-2.397.5-5.49 3.392-7.843 5-7.69 5.261-16.252 9.696-24.16 14.087.326 2.065 2.897 2.5 3.093 4.674.261 1.87-1.394 3.261-1.874 5.326-.61 2.63.72 7.87-.631 10.326-1.351 2.457-7.647 4-10.654 5a103.51 103.51 0 0 1-39.846 5.957c-5.86-.391-10.24-2.935-15.685-5.326-23.965-10.609-43.877-23.63-57.406-46.022-2.81-4.717-6.34-10.63-3.682-14.978a9.758 9.758 0 0 0 1.569-2.5c.871-3.435-.458-5.826 1.852-7.522a7.464 7.464 0 0 1 4.074-.935c2.178-1.652 2.178-4.652 5.337-5.935 4.074-1.739 10.196-.39 15.054 0 4.967-3.87 12.767-7.413 13.812-15.043.85-6.196-1.11-13.044-.937-19.717a188.515 188.515 0 0 1 5.36-36.63c1.438-6.523 3.072-13.74 5.947-18.457C67.54 19.087 75.231 13.239 81.701 8.13c2.048-1.63 4.575-3.87 7.516-3.76.196 7.195-6.536 13.934-7.21 21.913-.85 9.37 2.635 17.956 4.705 25.978 3.42-.761 6.71-1.652 10.043-2.5 2.179-5.065 4.096-10.522 6.274-15.652a70.223 70.223 0 0 1 7.211-14.413c2.571-3.37 7.168-6.392 10.675-9.392a84.933 84.933 0 0 1 10.893-8.695c.72-.413 1.373-.979 2.506 0m-11.917 46.956a79.325 79.325 0 0 0-31.284 4.609c9.28.174 19.476-1.391 27.602 1.565 7.19 2.609 11.22 11.413 15.38 18.783 2.571 4.608 6.536 10.587 6.536 15.021.153 6.522-7.08 12.848-10.892 16.61a153.078 153.078 0 0 0-11.612 11.564c-6.82 8.044-14.662 18.544-15.686 31-.85 10.283 4.205 19.566 15.054 18.153 7.778-1.044 10.043-10.196 17.886-12.827 6.013-2.021 8.257 2.174 13.072 2.174 7.276 0 8.343-9.282 16.622-9.717 4.14-.217 8.889 2.478 12.244-.304 2.832-2.392 1.83-11.022-.937-13.044-1.721 7.544-15.599 10.283-24.792 10.022-3.464 0-7.69-1.457-11.612-.935-11.72 1.544-12.44 17.978-23.202 18.783a7.964 7.964 0 0 1-5.664-1.565c-5.447-5.805 5.838-13.044 9.106-15.348a77.92 77.92 0 0 1 24.466-12.826c5.337-1.544 10.892-1.37 16.012-2.826 7.277-2.174 10.435-9.392 6.274-16.914-2.178-2-6.274-2.173-10.043-2.5 1.416-1.086 3.094-1.913 3.137-4.347a4.013 4.013 0 0 0-6.535.63c-.872 1.978.762 3.37 0 4.696-3.443-1.5-6.1-3.479-6.885-6.979-2.178-10.87 16.078-17.521 25.707-12.521a9.918 9.918 0 0 1 1.569 9.065c-1.155 3.848-6.013 7.696-6.274 10.652a43.62 43.62 0 0 0 1.263 4.804c.959 3.827 1.852 8.87 5.338 9.696 7.668 1.848 13.616-10 14.117-16.891a21.495 21.495 0 0 0-5.97-16.283c-3.55-3.152-7.624-3.76-12.548-4.695-.196-6.696-.653-13.044-4.074-16.61-1.133 1 .174 3.37.305 5.023-.523 1.913-3.616 2.782-3.137 4.695a4.232 4.232 0 0 1 3.769 1.24c-.763 10.26-8.714.847-7.843-4.066.654-4.065 9.237-7.913 9.107-11.891a4.507 4.507 0 0 0-4.358-3.761c-.762.13-2.352 2.174-2.81 2.826-3.18 4.348-3.834 6.522-6.906 10.652-6.732-11.565-13.965-24.021-31.371-25.37M97.32 73.24a26.458 26.458 0 0 0-10.675 6.522c4.64 1.435 9.935 2.174 14.118 4.065-1.613 9.674.631 21.74 7.842 23.913 9.325 2.652 13.53-8.696 17.255-14.717 1.242.543 2.614.935 3.769 1.565A90.97 90.97 0 0 0 97.32 73.239m-71.15 46.957a9.36 9.36 0 0 0 2.832 6.521 19.577 19.577 0 0 0 5.948-6.89 12.071 12.071 0 0 0-8.714.325m91.543 54.761c-5.882 1.87-13.071 4.63-19.76 3.74-7.276-.957-16.12-6.37-22.918-10-22.265-11.892-40.587-26.762-52.7-47.523-2.178 2.783-10.043 11.63-10.043 15.022 0 2.805 3.007 8.326 5.033 11.587 12.875 21.435 33.136 34.783 57.1 44.457 4.357 1.717 8.475 3.934 12.549 4.347a83.59 83.59 0 0 0 49.235-9.695c-11.328 3.717-9.368-12.457.632-8.696 0-3.652-.109-6.978-1.873-8.695-5.817.739-11.177 3.695-17.255 5.63m51.763-48.326c-2.963-1.718-5.185 1.109-7.211 2.174a8.73 8.73 0 0 0-6.906 1.26c-3.094-1.521-5.839.479-8.475 1.87-2.527-1.391-5.424 1.5-8.148 2.5-2.723 1-5.882.826-5.337 3.457.697 3.413 4.771.108 5.642-1.565.502.847.197 2.5.937 3.13 3.573.196 4.967-3.391 6.536-4.087a15.18 15.18 0 0 0 .37 4.63c4.924.218 5.534-3.847 7.843-6.26.763.804-.13 3.282.632 4.087 3.333-.24 4.357-2.718 5.947-4.696.349 2.174-.784 2.739-.61 4.696 4.03 1.826 6.776-2.174 8.453-4.696-.414.935-.5 2.565.327 3.13 5.817 0 6.253-5.456 6.906-10.652-2.178-1.891-5.36-.413-6.906.935m-40.151 57.37c.61-2.935 3.551-3.74 6.274-4.783-3.18-.87-7.363 1.37-6.274 4.696" fill="#000" fill-rule="nonzero"/><path d="M153.964 73.87c3.072-4.13 3.726-6.305 6.906-10.653.458-.63 2.048-2.695 2.81-2.826a4.507 4.507 0 0 1 4.358 3.761c.13 3.978-8.453 7.826-9.107 11.891-.784 4.914 7.08 14.348 7.843 4.087a4.188 4.188 0 0 0-3.769-1.26c-.479-1.913 2.615-2.783 3.138-4.696-.131-1.652-1.438-4.022-.305-5 3.376 3.565 3.812 9.891 4.008 16.609 4.924.934 8.998 1.543 12.549 4.695a21.495 21.495 0 0 1 5.969 16.283c-.501 6.891-6.536 18.739-14.117 16.891-3.486-.826-4.357-5.87-5.338-9.695a42.297 42.297 0 0 1-1.263-4.696c.261-2.957 5.12-6.804 6.274-10.652a9.918 9.918 0 0 0-1.569-9.066c-9.65-5-27.929 1.566-25.707 12.522.785 3.478 3.442 5.457 6.885 6.848.762-1.326-.872-2.717 0-4.696a3.99 3.99 0 0 1 6.536-.609c0 2.457-1.722 3.283-3.138 4.349 3.77.413 7.865.5 10.043 2.5 4.161 7.521 1.002 14.847-6.274 16.913-5.141 1.456-10.675 1.282-16.012 2.826a78.486 78.486 0 0 0-24.466 12.826c-3.268 2.413-14.553 9.543-9.106 15.348a7.964 7.964 0 0 0 5.664 1.565c10.762-.805 11.481-17.24 23.202-18.783 3.9-.522 8.148.826 11.612.935 9.193.26 23.07-2.478 24.792-10.022 2.767 2.174 3.769 10.87.937 13.044-3.355 2.782-8.105 0-12.244.304-8.279.435-9.346 9.804-16.623 9.717-4.923 0-7.167-4.217-13.07-2.173-7.844 2.63-10.11 11.782-17.887 12.826-10.893 1.456-15.904-7.87-15.054-18.153 1.024-12.456 8.867-22.956 15.686-31a157.213 157.213 0 0 1 11.612-11.565c3.9-3.76 11.132-10.108 10.892-16.608 0-4.348-4.008-10.414-6.535-15.022-4.096-7.218-8.192-16.065-15.381-18.674-8.126-2.957-18.322-1.391-27.602-1.565a79.324 79.324 0 0 1 31.37-4.696c17.43 1.348 24.64 13.804 31.372 25.37m-7.21 17.521a14.032 14.032 0 0 1 4.705-3.13c1.852-.826 4.161-.804 5.643-2.174-4.62-2.174-11.634 1.652-10.349 5.326" fill="#FFF"/><path d="M129.695 94.478c-1.155-.63-2.527-1.021-3.769-1.565-3.725 5.913-7.93 17.391-17.254 14.717-7.211-2.173-9.455-14.13-7.843-23.913-4.183-1.87-9.477-2.63-14.117-4.065a26.458 26.458 0 0 1 10.675-6.522 90.97 90.97 0 0 1 32.308 21.348m-20.086-8.13c-2.179.37-3.944 3.978-4.074 7.195-.327 7.805 8.932 11.087 12.548 4.348-.828-1.87-3.442-1.978-4.357-3.739 1.895-.978 4.14-.456 5.948-.956.566-.587.24-2.066.326-3.13-3.703-.523-7.276-4.349-10.37-3.74" fill="#FFF"/><path d="M156.993 86.065c-1.482 1.392-3.791 1.37-5.643 2.174a14.032 14.032 0 0 0-4.706 3.13c-1.285-3.673 5.73-7.521 10.349-5.326" fill="#000" fill-rule="nonzero"/><path d="M34.949 119.87A19.577 19.577 0 0 1 29 126.76a9.36 9.36 0 0 1-2.832-6.52 12.071 12.071 0 0 1 8.715-.327" fill="#8A6E4B"/><path d="M135.032 169.348c1.765 1.782 1.983 5.109 1.874 8.695-10-3.695-11.96 12.479-.632 8.696a83.59 83.59 0 0 1-49.235 9.913c-4.074-.435-8.257-2.652-12.549-4.348-23.964-9.652-44.225-23.021-57.1-44.456-2.026-3.37-5.033-8.891-5.033-11.696 0-3.391 7.865-12.239 10.043-15.022 12.113 20.761 30.5 35.63 52.7 47.587 6.797 3.63 15.642 9.044 22.919 10 6.688.892 13.877-1.87 19.76-3.739 5.881-1.87 11.437-4.891 17.254-5.63M16.126 138.913c.13 6.326 10.327 9.674 11.612 3.13a6.838 6.838 0 0 0-1.924-6.47 6.873 6.873 0 0 0-6.55-1.682 4.76 4.76 0 0 0-3.138 5.022M33.38 154.13c-2.374 6.696 10.022 13.544 11.917 5.957a7.055 7.055 0 0 0-1.953-6.695 7.09 7.09 0 0 0-6.761-1.762 4.704 4.704 0 0 0-3.137 2.5m19.76 18.174c-1.112 5.979 7.668 10.87 11.938 5.305 2.484-8.696-10.675-11.935-11.939-5.305m24.727 14.566c.283 7.217 12.091 8.043 12.549 1.565.327-4.718-4.357-7.24-8.715-6.261a4.055 4.055 0 0 0-2.977 1.486 4.037 4.037 0 0 0-.857 3.21m26.97 2.5c1.264 5.717 13.356 4.695 12.55-2.5a4.791 4.791 0 0 0-5.316-4.066c-4.488 0-8.322 1.566-7.233 6.522" fill="#8A6E4B"/><path d="M176.447 125.826c-.675 5.196-1.09 10.609-6.906 10.652-.828-.565-.74-2.174-.327-3.13-1.677 2.5-4.357 6.522-8.453 4.695-.174-1.956.959-2.586.61-4.695-1.546 1.978-2.614 4.348-5.947 4.695-.763-.804.13-3.282-.632-4.086-2.31 2.413-2.92 6.521-7.843 6.26a15.186 15.186 0 0 1-.305-4.695c-1.634.695-3.028 4.348-6.535 4.087-.741-.63-.436-2.174-.937-3.13-.872 1.673-4.946 4.978-5.643 1.564-.544-2.63 2.658-2.478 5.338-3.456 2.68-.978 5.62-3.891 8.148-2.5 2.636-1.391 5.38-3.391 8.474-1.87a8.73 8.73 0 0 1 6.906-1.26c2.026-1.087 4.357-3.914 7.211-2.174 1.525-1.348 4.793-2.826 6.906-.935" fill="#FFF"/><path d="M19.263 133.957a6.873 6.873 0 0 1 6.551 1.68 6.838 6.838 0 0 1 1.924 6.472c-1.285 6.521-11.481 3.195-11.612-3.13a4.76 4.76 0 0 1 3.137-5.022m5.97 9.086c3.18-2.76-.698-7.913-4.358-7.826 1.874 2.174 4.837 3.326 4.358 7.826" fill="#000" fill-rule="nonzero"/><path d="M20.832 135.217c3.703 0 7.581 5.066 4.357 7.826.436-4.5-2.527-5.63-4.357-7.826" fill="#FFF"/><path d="M36.517 151.804a7.09 7.09 0 0 1 6.762 1.762 7.055 7.055 0 0 1 1.953 6.695c-1.896 7.587-14.292.739-11.917-5.957a4.77 4.77 0 0 1 3.137-2.5m1.264 1.892c2.788 1.174 5.424 2.5 5.337 6.521 2.985-3.043-2.68-8.195-5.337-6.521" fill="#000" fill-rule="nonzero"/><path d="M43.119 160.26c0-4.064-2.55-5.39-5.338-6.52 2.658-1.631 8.322 3.52 5.338 6.52" fill="#FFF"/><path d="M65.079 177.783c-4.358 5.608-13.072.674-11.939-5.305 1.264-6.521 14.422-3.391 11.939 5.305m-8.475-6.522c4.183 0 5.795 2.348 7.211 5 1.176-3.674-4.052-6.674-7.211-5" fill="#000" fill-rule="nonzero"/><path d="M63.815 176.217c-1.416-2.652-3.028-5.108-7.211-5 3.159-1.674 8.387 1.326 7.211 5m71.849 3.043c-2.723.957-5.577 1.762-6.274 4.697-1.09-3.327 3.094-5.566 6.274-4.696" fill="#FFF"/><path d="M81.701 182.174c4.357-.978 9.107 1.543 8.714 6.26-.457 6.523-12.265 5.675-12.548-1.564a4.037 4.037 0 0 1 .835-3.187 4.055 4.055 0 0 1 2.934-1.51m-.327 1.262c1.96.326 6.187 1.108 7.233 3.435-.48-2.892-3.965-4.348-7.233-3.435m30.827-.631a4.791 4.791 0 0 1 5.315 4.066c.806 7.195-11.285 8.217-12.548 2.5-1.09-5 2.745-6.674 7.233-6.522m-6.536 4.695c1.983-2.37 7.712-3.63 10.348-.956-1.35-4.022-9.694-3.26-10.348.956" fill="#000" fill-rule="nonzero"/><path d="M88.607 186.87c-1.046-2.327-5.272-3.11-7.233-3.435 3.268-.935 6.754.543 7.233 3.435m27.276-.327c-2.636-2.673-8.366-1.413-10.348.957.653-4.217 8.997-4.978 10.348-.957" fill="#FFF"/><path d="M119.979 90.13c0 1.066.24 2.544-.327 3.13-1.808.5-4.052 0-5.948.957.937 1.761 3.551 1.87 4.357 3.74-3.594 6.717-12.875 3.434-12.548-4.348.13-3.218 1.939-6.826 4.074-7.196 3.137-.63 6.688 3.196 10.392 3.717" fill="#000" fill-rule="nonzero"/></g></svg>