<svg width="200" height="200" xmlns="http://www.w3.org/2000/svg"><g fill-rule="nonzero" fill="none"><path d="m56.426 152.91.581-1.55c.103.067.591.318 1.43.712l-2.01.838Zm98.155-75.81c0-.098-.27-.513-.27-.513-2.34-3.59-7.622-5.987-12.281-8.102-1.59-.72-3.1-1.413-4.378-2.093.948-1.458 1.834-3.15 2.304-4.322l.31-.778-.436-.714c-2.378-3.884-5.763-7.436-9.035-10.87a215.83 215.83 0 0 1-3.044-3.247c.604-3.699 2-7.28 4.494-11.492l1.723-2.908-3.356.4c-.359.043-8.692 1.113-16.145 7.28l-.224-.005c-2.818-.067-5.505-.118-8.325.042-1.257-2.296-4.532-8.358-5.725-11.328l-.739-1.838-1.686 1.04c-6.628 4.091-13.53 13.026-16.287 20.994-9.704 6.244-23.484 25.04-24.077 25.852l-2.713 3.719 4.387-1.096c-4.9 7.331-10.402 18.135-13.51 26.722l-1.155 3.193 3.234-1.035c.307-.098.94-.264 1.65-.378-1.547 5.662-4.93 21.114-1.482 38.198l.845 4.19.294-.485c-.012.067-.026.124-.039.193l-.21 1.188 1.062.572c1.08.58 1.562.917 1.988 1.213.933.65 1.582 1.051 4.496 2.15 1.23.796 3.778 1.899 8.84 3.846l.599-1.557 73.986-37.733c.369.189.739.375 1.11.556l1.472-2.994c-6.546-3.22-11.339-6.663-13.45-13-.121-.344-.466-1.587-.807-2.849 1.107-.055 2.343-.098 3.64-.141 4.512-.148 9.626-.316 12.402-1.19l.556-.176.326-.483c1.196-1.77 2.366-3.755 3.117-6.146a24.53 24.53 0 0 0 1.749-.833l.545-.288.226-.573c.355-.897.955-2.634 1.308-4.255a6.568 6.568 0 0 0 1.383-.77l.284-.219.17-.316c.875-1.635.875-3.716.874-6.125v-.497Z" fill="#FFF"/><path d="M192.568 158.255c-.382-1.873-1.303-7.078-1.426-7.806l-.052-.307-.16-.269c-.414-.693-.414-.693-3.322-1.096l-.086-.012-2.537-4.389-1.473-2.55.205-2.397.06-.709c.001-.007-.469-.542-.469-.542-1.04-1.183-3.45-4.353-4.48-5.706-.476-.626-.574-.755-.635-.828l-.362-.432-.548-.124c-.052-.013-.101-.023-3.625-.683l-20.21-11.612-.27-.155a25.371 25.371 0 0 0-.312-.049l-6.253-.951-6.885-3.607-.244-.128-.273-.042-10.77-1.683-8.396-2.351-7.84-2.046-.647-.169-.585.325-2.429 1.35-5.516-1.743-4.54-3.242-.396-.283-.485-.026-19.36-1.019-.119-.005-.12.01-3.511.32-5.695-1.018-1.75-.313-.145 1.268c-1.07.524-4.424.964-5.756 1.136-.537.07-.949.124-1.281.174a107.763 107.763 0 0 1-4.578-3.383l-.574-.446-.718.117c-.81.132-1.654.244-2.47.352-1.708.226-3.472.46-5.183.902l-.632.164-.353.548a29.557 29.557 0 0 1-2.019 2.784l-3.943.072-5.847.104-.763.014c-.004 0-.493.586-.493.586a55.771 55.771 0 0 0-1.847 2.383c-.86 1.151-1.685 2.233-2.621 3.218-1.6.651-5.225 1.97-5.842 2.194-1.28.092-3.095.223-3.346.25-3.44.359-6.045.784-9.063 1.278a54.44 54.44 0 0 0-2.325.455c-.759.16-1.475.311-2.169.426l-.674.112-.402.552c-.586.805-1.156 1.681-1.707 2.528-.5.77-1.017 1.565-1.526 2.274L0 123.108l.877.998c.913 1.037 5.36 6.304 6.978 8.287 1.245 4.74 2.161 9.145 3.31 14.683l1.907 9.03c-.45 2.222-1.176 6.813-1.716 10.232-.256 1.628-.478 3.033-.584 3.63l-.552 3.112 2.74-1.236c1.886-.457 24.867-5.976 44.787-8.817l4.268-.605c8-1.143 11.651-1.664 30.027-3.12 9.515-1.035 28.203-.76 41.436-.464 16.605.386 31.443 1.312 45.362 2.83l9.5 1.248.88.115c.007.01.595-.655.595-.655l2.377-2.69.55-.625c-.008.009-.174-.806-.174-.806" fill="#FFF"/><path d="M141.521 116.457c-6.411-3.154-11.91-6.805-14.298-13.97-.266-.762-1.358-4.907-1.358-4.907 4.479-.417 13.84-.184 17.677-1.393 1.314-1.944 2.52-3.98 3.159-6.484.955-.32 2.31-1.036 2.31-1.036.405-1.024 1.165-3.255 1.403-4.927a4.896 4.896 0 0 0 1.822-.807c.687-1.284.676-3.16.676-5.435-3.153-4.835-13.072-7.568-17.688-10.583 1.152-1.405 2.551-3.89 3.182-5.466-3.153-5.15-8.228-9.777-12.432-14.454.63-4.73 2.471-8.882 4.835-12.876 0 0-8.488 1.011-15.766 7.305-3.552-.082-6.666-.186-10.081.077 0 0-4.779-8.6-6.317-12.428-6.728 4.152-13.386 13.235-15.782 20.67-9.55 5.784-24.11 25.738-24.11 25.738s2.523-.63 3.784-.368c-5.515 7.32-12.088 20.154-15.4 29.298 0 0 2.517-.805 4.415-.519 0 0-6.315 18.715-2.102 39.599.894-1.472 1.735-2.839 3.259-3.785-.37 2.74-1.483 4.52-2.15 8.303 3.19 1.718 1.693 1.553 6.452 3.338-.417-.156 2.894 1.558 8.679 3.784" fill="#231F20"/><path d="m85.817 148.29-20.862-7.585c-1.203 1.73-2.47 4.362-3.154 5.414-4.738-10.732-3.048-27.593-3.048-27.593l-3.522 3.258c.054-5.413 5.415-32.503 18.396-44.41-6.938 10.458-10.301 22.389-12.982 34.583 1.553-.459 3.416-1.263 3.416-1.263-2.101 12.032-.893 21.707-.893 21.707 1.051-2.26 2.996-4.468 4.94-5.676 1.018 6.513 4.56 4.928 11.611 13.103-2.751-9.966 2.055-10.527 5.26-16.887.79 4.1 4.215 9.7 5.309 11.458 1.534-4.267 2.49-7.253 4.878-10.598 2.508 2.867 7.998 6.077 7.998 6.077.42-3.73 1.2-7.032 2.418-10.721 2.418 2.733 6.665 6.077 10.09 6.937-3.1-4.467-4.142-9.34-5.57-15.294l-1.997 2.89c-1.866-1.929-3.3-4.29-4.224-5.874-2.06 1.75-4.869 7.556-4.869 7.556-1.577-2.785-2.412-4.83-3.249-8.293 0 0-3.636 2.827-4.582 4.51-.158-2.787-.228-6.572.183-10.198-5.15 2.417-9.801 8.042-12.797 12.72 1-5.518 2.533-10.634 4.783-15.662-2.278-.09-6.412 1.997-6.412 1.997 1.367-3.995 5.01-11.31 7.69-14.833-1.887.192-4.156.79-6.57 1.63 4.046-10.954 11.674-18.678 17.78-21.192 0 0-3.386 4.374-3.912 6.739 0 0 5.413-1.209 8.041-1.682-.82 1.435-1.696 2.232-2.333 4.461 4.1-1.734 9.113-3.095 13.844-3.41-2.855-2.084-7.675-3.837-11.774-4.31.788-2.628 6.93-7.33 6.93-7.33-13.456.157-25.806 4.45-36.634 11.073 2.79-4.29 11.353-13.612 16.398-17.029 2.915-7.567 5.304-13.597 10.56-19.273 1.2 4.196 1.951 7.645 3.788 10.917 0 0-1.575 1.524-2.259 2.155-1.489-1.446-2.24-3.636-2.923-4.95 0 0-3.822 6.371-5.256 11.148 0 0 1.872.109 3.133.003-3.89 1.893-10.564 8.042-10.564 8.042s13.882-5.257 24.792-5.495c0 0-.956-1.434-1.876-2.704 4.256-.159 7.768.473 11.113 1.27 0 0 3.993 4.104 5.097 5.733.835-2.27.467-6.502-.478-9.077 2.312 1.207 5.667 5.32 7.325 7.565.837-1.672.804-3.6.804-3.6 1.629 1.525 4.133 4.635 4.133 4.635-.397 1.074-2.27 3.185-2.27 3.185-1.313-1.036-2.495-1.617-2.495-1.617.578 2.102.684 4.677 2.523 6.044 3.311 2.365 12.692 5.722 15.793 8.297-1.893.264-4.12.478-5.743 1.09-1.577-.631-6.44-3-8.232-3.598 2.03 2.15 5.345 4.928 7.764 6.271.367 1.682-.268 3.265 1.834 3.791.794.131 1.909-.188 1.909-.188-.263-.683-.697-1.785-.578-2.528.657-.179 1.553-.12 1.553-.12.017.64.06 1.613.298 2.33.132.233.866-.02.866-.02-.21.999-.947 1.577-1.63 2.26l-9.092 1.682c-4.993-2.102-15.096-3.482-20.51-4.428-1.838.998-3.662 3.184-4.923 4.866l4.189 4.805c2.049-.946 4.256-1.578 6.411-2.366 3.912.06 12.153-.144 15.2 1.275 1.845-.509 3.47-.736 4.941-1.156-.349 1.324-1.503 2.594-1.503 2.594-7.307.56-19.705-.402-27.063 1.858-1.863-1.261-4.962-3.59-5.818-5.009l-3.504 1.18c1.314-3.468 3.662-7.803 6.92-10.272-5.268 1.911-12.304 7.735-14.34 16.144 1.419-.947 2.991-.823 4.673-1.085-.238 4.716.752 9.43.752 9.43 1.366-1.84 4.778-4.436 6.341-5.09.841 4.151 5.03 9.03 7.462 11.032.894-4.048 2.89-7.674 5.414-10.88-.526 4.94 2.068 13.775 3.574 16.03a23.777 23.777 0 0 1-5.939-2.523c2.044 4.449 5.202 9.303 9.092 12.35l-41.84 21.724" fill="#FEF5D7"/><path d="M110.11 64.281s.375 1.75 1.692 2.587c1.317.838 6.366 1.039 8.042.44 0 0-3.472-2.993-4.67-3.353-1.197-.36-3.747-.751-5.064.326" fill="#FFF"/><path d="M121.191 68.701c-2.733.105-5.687 1.014-8.394-.34-1.184-.532-2.476-2.713-2.687-4.08 3.184 2.886 5.317 3.212 6.736 2.424 0-.896-.161-1.588-.767-2.324-3.084-2.289-9.866.507-12.337 2.189 4.478-5.473 10.68-6.332 12.836-6.07 1.246 1.557 2.885 3.314 3.831 4.891 2.606-.256 3.903-3.106 3.903-3.106.499 1.222 1.539 2.861 1.817 4.733 0 0-.796.745-1.46 1.12 1.434 1.673 3.355 2.98 4.248 4.348L121.19 68.7" fill="#231F20"/><path d="M121.126 87.93s-3.045-.796-4.638-1.035c0 0-.777.638-1.334 1.274l.975 1.174s3.723-1.253 4.997-1.413" fill="#FFF"/><path d="M132.684 81.024a.68.68 0 1 0 0-1.36.68.68 0 0 0 0 1.36M133.801 84.048a.68.68 0 1 0-.002-1.361.68.68 0 0 0 .002 1.361M136.586 82.636a.68.68 0 1 0 0-1.36.68.68 0 0 0 0 1.36M116.128 68.003c.533 0 1.043-.216 1.436-.61a2.461 2.461 0 0 0 .698-1.735c0-.66-.255-1.292-.698-1.736a2.024 2.024 0 0 0-1.436-.61c-1.177 0-2.134 1.053-2.134 2.346 0 .66.255 1.292.698 1.735.392.394.903.61 1.436.61" fill="#231F20"/><path d="M115.188 65.658c0-.346.127-.67.348-.891a.837.837 0 0 1 .592-.26.84.84 0 0 1 .592.26c.221.22.347.545.347.891 0 .634-.42 1.151-.939 1.151a.839.839 0 0 1-.593-.26 1.262 1.262 0 0 1-.347-.89" fill="#00674E"/><path d="M75.544 74.97s-17.754 15.497-20.98 47.45c0 0 2.781-2.431 3.74-3.15 0 0-1.146 17.778 3.497 26.849 0 0 2.622-4.572 3.154-5.414 0 0 3.296 1.47 20.762 8.862 0 0-14.019-11.794-16.926-25.048 0 0-4.262 4.808-5.699 6.964 0 0-.047-15.584 2.108-22.409 0 0-3.65 2.272-4.555 2.883 0 0 8.673-29.802 14.9-36.987M100.746 46.207c-1.496-2.785-2.843-7.095-3.788-10.917 0 0-5.093 3.655-10.56 19.273 0 0-8.148 4.823-16.398 17.03 0 0 7.686-7.206 12.877-8.988 0 0 7.523-6.684 11.177-8.128l-3.746.083s3.734-9.342 5.17-10.6c0 0 1.886 3.594 3.01 4.402l2.258-2.155M95.836 83.467c-2.415-.242-4.405.396-7.043 1.104 3.036-3.256 11.317-8.035 16.413-9.23-3.504 2.39-7.532 4.972-9.37 8.126" fill="#E6A909"/><path d="M115.515 111.589s-5.87-5.032-7.2-11.616c0 0-4.07 1.589-6.412 5.045 0 0-.965-7.258-.426-9.474 0 0-2.873.24-4.55 1.198 0 0 2.386-10.855 13.7-15.584 0 0-9.629.259-24.474 21.33 0 0 3.38-9.967 7.662-15.325-6.959 3.359-12.081 13.8-10.465 11.286 0 0-4.322 9.547-4.783 15.662 0 0 7-9.753 12.352-11.615 0 0-.516 6.578.262 9.093 0 0 3.113-3.413 4.55-4.131 0 0 1.714 5.773 3.281 7.914 0 0 3.867-6.498 4.783-6.937 0 0 2.675 3.945 4.31 5.256 0 0 1.814-2.282 1.996-2.891 0 0 .955 2.225 5.744 5.817 0 0-.48-1.527-.33-5.028" fill="#E6A909"/><path fill="#FFF" d="m147.338 76.841-4.114-.04-14.727-7.901-2.155-8.62 5.028 7.542 15.968 9.02"/><path d="m129.082 60.168.828-3.747s-5.173-6.17-10.845-9.253c0 0 1.194 5.77.996 7.562l-2.986-3.384s-12.736.2-17.113 2.389c0 0 .596.795 1.193 1.193 0 0-9.352 2.322-18.158 7.612 0 0 12.72-4.958 24.672-5.43l-1.876-2.704s7.9.264 10.855 1.506c0 0 5.376 4.877 5.424 5.758 0 0 1.36-5.411.167-8.595 0 0 6.081 6.09 6.843 7.093" fill="#E6A909"/><path d="M189.496 150.728c-.004-.008-2.76-.385-3.01-.422-.834-1.43-3.92-6.787-4.68-8.099.081-.99.16-1.937.25-2.926-1.4-1.591-4.96-6.346-5.144-6.567-.044-.01-1.474-.278-3.839-.72a7324 7324 0 0 1-20.458-11.755l-6.528-.994-7.133-3.735-10.869-1.699-8.49-2.377-7.811-2.038-3.057 1.698-6.453-2.038-4.755-3.396-19.36-1.019-3.735.34-5.916-1.057c-.182 1.594-7.85 2.064-9.02 2.39a106.561 106.561 0 0 1-5.22-3.833c-2.501.408-5.084.598-7.504 1.224-.788 1.223-1.63 2.446-2.61 3.533-3.343.055-7.013.136-10.575.191-1.63 1.957-2.963 4.105-4.757 5.926-1.522.653-6.365 2.405-6.365 2.405l.012.034a377.73 377.73 0 0 0-3.656.27c-3.289.344-5.788.746-8.966 1.266-1.46.242-3.027.637-4.49.88-1.09 1.499-2.133 3.27-3.227 4.794 1.019 1.157 5.857 6.892 7.25 8.618 1.945 7.34 3.086 13.838 5.396 24.474-.637 2.975-2.022 12.254-2.36 14.163.017-.007 24.318-5.92 45.096-8.884 11.433-1.598 13.003-2.042 34.398-3.737 9.753-1.061 29.036-.75 41.605-.47 12.573.294 28.654 1.003 45.505 2.841 3.197.392 6.281.797 9.551 1.254.802-.897 1.566-1.76 2.362-2.674-.39-1.914-1.309-7.109-1.437-7.861" fill="#231F20"/><path d="M38.515 114.444c-.064.12-.138.226-.208.336l1.18-.026c0 .003 12.09.057 16.573.214-.007-.01-.01-.02-.017-.03 1.454.07 7.402.37 8.966.469-.005-.009 12.67.957 17.14 1.428-.012-.017-.021-.034-.032-.051 1.611.193 7.141.86 8.358 1.007-.013-.018-.022-.037-.035-.055 1.655.224 10.6 1.424 12.279 1.679 3.688.558 11.953 1.82 11.964 1.829.197.322 3.198 5.39 3.891 6.528.22-.369 3.518-5.287 3.525-5.287.202.035 8.237 1.532 18.092 3.37 5.833-.584 11.263-1.3 7.874-1.692-3.444-.4-6.493-1.247-9.265-1.891 0 0-7.209-3.5-8.425-5.095l-2.128.236.418 1-.287 1.697c-1.958-.38-9.317-2.223-11.084-2.631l-3.128-3.649-2.024.161s-1.452 2.255-2.18 3.488c-1.555-.624-9.262-3.551-11.182-4.737 0 0-15.695-3.317-16.761-4.492-3.915-.488 1.63.173-2.421-.016-1.502 1.084-3.74 3.994-5.508 4.756.208-.105-6.432.004-12.645.004l-6.71-7.49-2.664.462s.998 1.995 1.026 2.947c-1.74 1.141-3.643 1.984-5.546 2.827 0 0-1.713-1.44-2.61-2.284-3.895.196-6.65.363-9.069 1.615 0 0 3.349 2.693 2.643 3.373" fill="#FFF"/><path d="m40.376 114.667-.07.068-.025.024c2.73.017 11.977.077 15.78.21-.008-.01-.012-.02-.018-.031 1.454.07 7.402.37 8.966.469-.005-.009 12.67.957 17.14 1.428-.012-.017-.021-.034-.032-.051 1.611.193 7.141.86 8.358 1.007-.013-.018-.022-.037-.035-.055 1.655.224 10.6 1.424 12.279 1.679 3.688.558 11.953 1.82 11.964 1.829.197.322 3.198 5.39 3.891 6.528.22-.369 3.518-5.287 3.525-5.287.382.066 28.593 5.328 44.386 8.278-4.381-2.522-12.948-7.453-17.284-8.53 0 0-2.089-.156-4.16.454l-2.283-2.283s-7.024-.928-8.332-2.242l-4.051-.985.305 1.277-.268 2.002-12.336-2.994-3.91-3.632c-.328.543-2.389 3.974-2.389 3.974s-10.816-3.819-12.273-4.718c-.129-.08-1.371-2.866-2.273-4.051-2.903-.33-15.212-.785-15.212-.785-.756.264-4.665 4.372-4.665 4.372l-.215-.021s-11.207.21-14.836.21H61.883l-.094-.105-.093-.105a2.785 2.785 0 0 1-.096-.114l.004.008-6.342-7.182-.955.166c.449 1.027.948 3.305.948 3.305l.005.173-.145.095-6.504 3.328-.447-.375c-.015-.012-1.555-1.808-2.5-2.672-1.76-.18-6.324.622-7.082.635 2.066 2.504 2.601 3.924 1.794 4.7" fill="#00674E"/><path d="m67.556 125.742-.012-.062-.032-.057c-.63-1.098-4.05-7.388-4.05-7.388a671.615 671.615 0 0 0-6.635-.368l4.129 7.37 1.066 6.26 2.738 15.947c-.29 1.36-1.46 7.585-1.46 7.585 0 .005 6.684-.805 6.684-.805l1.491-6.957.016-.072c-.001.003-.014-.07-.014-.07l-3.921-21.383" fill="#E6A909"/><path d="M69.376 153.541c-1.015.095-4.393.562-5.166.649 0 0 .99-5.285 1.285-6.664l.015-.07-3.838-22.405-.011-.062-.031-.056-3.51-6.266c1.776.088 3.388.18 5.09.29.616 1.087 3 5.87 3.63 6.972l3.899 21.256-1.363 6.356" fill="#FFF"/><path d="m87.94 135.33-7.787-.342c.002-.001 1.35 7.039 1.35 7.039l1.418.013.802 4.07-2.624.043a2916.935 2916.935 0 0 1-3.812-20.257l2.582.196 1.183 6.257c.002-.001 6.37.38 6.37.38l-1.282-6.538-.012-.063-4.042-6.78c0-.002-15.097-1.175-15.097-1.175-.002 0 3.105 5.932 3.741 7.106l3.876 21.393-1.37 7.262 15.544-1.028 1.4-6.555-2.24-11.02" fill="#E6A909"/><path d="M88.18 152.197c-4.346.193-8.369.498-12.618.822l-1.426.109 1.206-6.383.013-.068-.012-.07-3.936-21.625c-.646-1.19-2.656-5.069-3.142-5.982 0 0 9.892.664 13.376 1.04l3.788 6.356.443 2.26.644 3.28-4.846-.29-1.182-6.246-4.1-.312 4.104 21.813 4.123-.068-1.086-5.523-1.416-.015-1.059-5.53 6.279.276 2.11 10.381-1.262 5.775" fill="#FFF"/><path d="m103.638 127.585-.012-.057-3.724-6.339c.001-.001-6.24-.846-6.24-.846.001-.001 3.944 6.643 3.944 6.643l1.38 6.474-2.174-.164-1.423-6.835-.044-.114-3.691-6.256c.002-.001-6.387-.767-6.387-.767.002-.001 3.976 6.798 3.976 6.798a1969.014 1969.014 0 0 0 4.094 20.057l-1.31 6.486 6.324-.257 1.244-6.199-.017-.076-1.356-6.223 2.191.104 1.398 6.249c-.19.97-.99 6.09-.99 6.09l6.186-.09.867-6.117-.016-.074a1264.137 1264.137 0 0 1-4.22-18.487" fill="#E6A909"/><path d="m106.382 151.536-4.671.068c.15-.828.642-4.3.837-5.278l-1.538-7.02-3.714-.178 1.546 7.088-1.099 5.474c-1.044.03-4.807.198-4.807.198l1.153-5.71a1954.606 1954.606 0 0 1-4.135-20.26l-.012-.061-.032-.054-3.256-5.57 4.55.545 3.477 5.892 1.523 7.32 3.706.279-1.64-7.61-3.194-5.38 4.371.59 3.484 5.932a1262.836 1262.836 0 0 0 4.193 18.372c-.165.957-.594 4.481-.742 5.363" fill="#FFF"/><path d="m114.475 129.356 3.057.406-4.049-6.63c0-.003-11.793-1.785-11.793-1.785 0-.002 4.081 6.918 4.081 6.918 0-.002 2.833.342 2.833.342a1030.64 1030.64 0 0 0 4.28 17.913l-1.07 5.723 6.01.033c.002 0 1.06-5.392 1.06-5.392-.001.001-2.912-11.317-4.41-17.528" fill="#E6A909"/><path d="m117.22 151.537-4.52-.025.924-4.935-4.418-18.638-2.985-.364-3.115-5.28a649 649 0 0 1 9.924 1.508l3.068 5.025-2.592-.343s3.056 12.457 4.622 18.423l-.908 4.629" fill="#FFF"/><path d="m62.288 150.827-1.845-10.644-.02-.12-.088-.084-3.434-3.295 2.391-3.367-1.331-7.974-.012-.068-.034-.057-4.263-7.13c-.097-.275-.39-.276-5.997-.29-2.857-.007-10.002.175-10.002.175-2.856.07-8.552.374-8.552.374l2.679 4.694.737 11.525c-1.246-3.629-5.293-15.925-5.293-15.925-.442.015-3.627.073-3.627.073s-.127 12.744-.244 16.82c-.822-4.353-3.521-16.537-3.521-16.537l-10.322 1.41s3.872 4.267 4.697 5.312c2.132 8.356 4.006 17.011 6.057 26.636-.708 3.221-2.135 10.24-2.135 10.24l10.413-2.242s-.012-13.464.14-20.254l2.646 8.726 3.204 10.58 6.705-1.205s-2.648-33.852-3.107-38.804l3.43 6.098 3.59 23.649c-.622 2.853-1.8 8.663-1.8 8.663l10.153-1.52-2.479-15.395 2.794-.107 2.508 15.165 6.715-.827-.753-4.295" fill="#E6A909"/><path d="m28.716 137.672-.72.099a627.918 627.918 0 0 0-.195 21.981s-6.125 1.254-8.724 1.863c.65-3.248 1.25-6.112 1.924-9.18l.017-.078-6.135-26.974s-3.474-3.912-3.954-4.46a153.89 153.89 0 0 1 8.349-1.124c1.637 6.334 3.877 18.7 3.974 19.232l.73-.037c.004-.057.397-11.446.356-19.574.523-.02 2.259-.032 2.62-.04 2.008 7.388 5.597 17.551 5.751 17.985l.715-.146-.961-14.469-2.133-3.738c2.307-.137 4.514-.23 6.997-.292.284 3.034 2.328 25.096 3.135 38.86-1.475.245-4.324.732-5.424.954l-6.322-20.862M56.938 155.132l-2.498-15.108c.002-.002-4.277.162-4.277.162l2.492 15.468c-2.036.261-8.375 1.26-8.375 1.26a859.542 859.542 0 0 1 1.617-7.748l-.01-.067-3.617-23.85a2.428 2.428 0 0 1-.032-.055l-3.668-6.52c5.025-.226 13.227-.12 14.527-.077l4.148 6.936 1.271 7.605-2.584 3.639c0-.002 3.805 3.65 3.805 3.65l2.443 14.048c-1.033.11-4.487.566-5.242.657" fill="#FFF"/><path d="m172.708 151.032-.002-.08c0-.003-.038-.076-.038-.076-2.22-4.34-4.214-8.584-6.42-13.66l3.638.678c.002 0-3.04-3.739-4.331-5.392l-11.754-2.514c.002 0 4.259 5.742 4.259 5.742l.141.025 2.944.526c2.15 5.279 4.08 9.658 6.231 14.152l.098 4.425c.002-.002 5.397.557 5.397.557.002-.003-.163-4.383-.163-4.383" fill="#E6A909"/><path d="m161.674 135.627-3.202-.573a250.887 250.887 0 0 1-2.948-3.958l9.533 1.966c1.04 1.33 1.99 2.52 2.982 3.738l-3.02-.564c.001 0 4.65 10.392 6.956 14.903l.13 3.455-3.909-.404-.12-4.004c-2.186-4.559-6.402-14.559-6.402-14.559" fill="#FFF"/><path d="m143.81 133.312 3.883.635-4.144-5.962-12.501-2.31 4.094 6.27 3.255.503c1.79 5.874 3.354 10.715 5.053 15.64l-.552 4.905 5.628.328.516-4.676s-3.4-9.658-5.232-15.333" fill="#E6A909"/><path d="m138.966 131.791-3.388-.526-2.98-4.563c3.699.664 6.995 1.274 10.513 1.95a300.533 300.533 0 0 0 2.965 4.283l-3.339-.546c.001 0 3.748 11.333 5.563 16.263l-.428 3.893-4.155-.241.474-4.216-5.225-16.297" fill="#FFF"/><path d="m156.492 134.993-.013-.027-.018-.025c-1.206-1.685-3.588-5.134-3.588-5.134l-8.319-1.633c.001 0 3.085 4.392 3.583 5.126a482.44 482.44 0 0 0 4.016 15.675l-.44 4.557 7.237.548-1.467-4.35 1.934.193c.733 1.418 2.341 4.4 2.341 4.4l5.54.513c.001 0-7.166-12.416-10.806-19.843" fill="#E6A909"/><path d="m159.887 149.23-3.468-.346 1.479 4.377-5.38-.407.382-3.942-.019-.065c-1.519-5.56-4.097-15.908-4.097-15.908-.522-.77-2.224-3.088-2.646-3.703l6.297 1.236a275.91 275.91 0 0 0 3.41 4.873c3.517 7.177 6.556 12.794 10.07 18.623l-3.697-.343a391.527 391.527 0 0 1-2.33-4.396" fill="#FFF"/><path d="m152.89 134.783-.69.255c.437 1.553 2.515 10.035 2.515 10.035l4.008.404s-4.916-8.708-5.832-10.694" fill="#E6A909"/><path d="M155.286 144.396c-.522-1.73-1.481-5.95-1.585-6.403.536.977 3.056 5.33 3.726 6.599-.276-.026-1.805-.162-2.141-.196" fill="#231F20"/><path d="m187.722 152.633-5.388-.778c-.922-1.574-2.54-4.65-2.54-4.65l2.916.466-2.714-4.913-2.688-.475s-1.354-2.238-1.888-3.32l5.112 1.008-4.627-5.325-9.163-1.985c.002 0 3.058 3.946 3.428 4.426 0 0 4.586 9.936 7.14 14.596l.429 4.29c0-.003 10.864 1.389 10.864 1.389l-.88-4.729" fill="#E6A909"/><path d="m178.029 151.466-.037-.068c-2.556-4.66-7.17-14.656-7.17-14.656l-.017-.038s-1.82-2.42-2.176-2.88l6.876 1.49c.972 1.149 1.94 2.268 3.034 3.513l-4.438-.875 2.48 4.952 2.937.517c.626 1.158 1.197 2.2 1.801 3.282l-2.991-.477 3.548 6.308 5.214.753c.209 1.176.411 2.257.594 3.206-3.225-.44-6.128-.811-9.27-1.185l-.378-3.767-.007-.075" fill="#FFF"/><path d="m136.96 140.749-5.018-4.755-4.024-.466-1.289-4.81 7.305 1.071c.002 0-4.45-6.391-4.45-6.391l-6.598-1.139c.002 0-2.374 3.997-2.374 3.997l2.203 8.644 4.759 4.18 4.22.375 1.647 5.523-3.959-.227-5.26-4.51c-.003-.005 2.84 10.148 2.84 10.148 0-.002 10.351.339 10.351.339.002 0 2.215-3.884 2.215-3.884l-2.568-8.095" fill="#E6A909"/><path d="m136.897 151.975-9.373-.311-2.04-7.284 3.61 3.094c-.002-.003 5.253.3 5.253.3l-2.089-7.006c0-.002-4.6-.41-4.6-.41l-4.258-3.752-2.099-8.237 1.962-3.297 5.788.999a335.608 335.608 0 0 0 3.288 4.74l-6.712-.985 1.709 6.378c.001-.001 4.275.494 4.275.494 1.607 1.55 3.07 2.935 4.702 4.455.853 2.768 1.602 5.13 2.413 7.61l-1.83 3.212" fill="#FFF"/><path d="m51.992 124.864-4.257-.032c.002.002 1.434 9.025 1.434 9.025l4.268-.057-1.445-8.936" fill="#E6A909"/><path fill="#231F20" d="m48.602 125.576 2.762.02 1.21 7.478-2.776.038-1.196-7.536M194.568 161.2h-.8v-3.155h-1.159v-.678h3.118v.678h-1.159v3.154M199.88 161.2h-.747v-3.203h-.011l-.715 3.202h-.785l-.699-3.202h-.01v3.202h-.748v-3.832h1.17l.693 3.021h.01l.684-3.02h1.158v3.831"/></g></svg>