<svg width="200" height="200" xmlns="http://www.w3.org/2000/svg"><g fill-rule="nonzero" fill="none"><path d="M129.554 156.235c-1.12 2.755-3.44 4.615-3.981 7.68-.85.892-1.74 2.91-2.668 3.918-.811-2.987-.734-8.069-.889-11.793-.038-.387-.038-.775-.077-1.125-.193-3.064-.58-7.176-.348-10.472l.31.155c2.937 3.026 5.18 7.447 7.576 11.52.039.039.039.078.077.117Zm-67.88-30.955c-1.585-.97-2.938-1.9-4.484-2.793.58-.349 1.082-.62 1.584-.891 2.436-1.32 4.252-2.057 6.224-3.647-.58 1.28-1.16 2.482-1.7 3.685a331.928 331.928 0 0 0-1.624 3.646Zm48.437-43.91c-.04-.117-.117-.272-.156-.388-1.16-3.142.658-6.09.967-8.922.464-.078.773-.078.696-.466l-.232-1.047.386 1.28c.619 2.172-.464 4.034 0 6.4.232.893.348 1.824.465 2.755.115.814.192 1.668.347 2.443.232 1.242.58 2.367 1.353 3.336.039 1.164.85 1.474 1.198 2.638-.348 1.513-2.164 1.203-3.208 1.978h-.31c-1.932-2.21-1.043-5.197-1.16-7.952-.038-.698-.115-1.396-.346-2.055Zm44.416 70.093c-2.59-1.241-4.291-5.391-7.5-6.322-.155-.155-.155-.155-.155-.311.155 0 .31-.155.619-.155 1.314-.232 2.01-1.396 2.512-2.676.155-.233.233-.389.465-.233.155.233.309 0 .463.233.773 1.008 1.083 2.056 2.088 2.133.155 0 .232-.466.232-.466.193-1.047-.232-1.822-.928-2.754-1.778-2.25-3.75-4.383-6.301-4.693-1.546-.156-3.363-.544-4.29-1.087l-1.277-1.085c-.076-.427-.425-.892.078-1.048.889-.388 1.353.388 2.126.621.773.388 1.894 1.668 2.629.737 0 0 0-.154.116-.31-1.663-5.043-5.566-7.526-9.471-9.581 0-.156-.078-.31-.078-.31l.735-1.243 1.237.931 1.082.932c.465-.078.929-.233 1.044-.543.077-.853-.193-1.164-.425-1.746a3.352 3.352 0 0 0-.735-.891c-1.43-1.32-3.633-1.242-5.798-2.368-.116-.271-.541-.968-.194-1.356h.426l1.778 1.784 1.082.31c0-.233.078-.892.232-1.241-.309-.543-.232-1.165-.657-1.94-.502-1.745-1.894-3.064-3.518-3.374.232-4.268-2.822-7.758-2.048-11.793 0-.155-.232-.698-.464-.698-.155.155-.464.155-.619.155l-.734.039-.503 6.866-.734.854c-.31-.157-.503-.157-.85-.311-1.702-2.522-2.359-6.245-5.142-7.836 0 0-.154 0-.387-.155-.618-.388-.54-1.164-.696-1.784.155-.272.464-.35.696-.543.773 0 1.778-.737 2.165-1.63l.193-1.978c.078-.465.387-1.164.735-1.241.58.155 1.044.853 1.585 1.086.387.62 1.469.543 1.933.078-.155-1.59-.735-3.298-1.392-4.539-.464-.582-1.082-1.396-1.469-1.746-1.508-.232-2.667.931-3.982 1.009-.309-.35.078-.776.232-1.241-.348-1.474-.618-3.026-.85-4.578-.078-.814-.193-1.629-.27-2.443-.774-7.758-.465-16.02-2.397-22.615-.619-2.211-2.01-3.375-1.933-5.043.54-1.474-.58-2.482-.503-3.375.27.078.503.505.503.66 1.778.233 3.75-.66 5.142-1.241.463.155.927.581 1.546.232 1.12-.232 1.352-1.512 1.739-2.21l.773-.311c-.155.155 0 .155.31-.078.464-.155.695-.775 1.74-.388.347.466 1.08.078 1.236-.077.58-1.474 1.7-2.444 3.092-3.685.194-1.552-.772-2.754-.772-4.228-1.586-.931-1.315-3.22-2.9-3.53-.31-.155-.503-.466-.773-.466l-.232-.93c-.464-.544-1.237-1.087-1.701-1.164-.155 0-.464-.156-.58-.31-2.087-.932-5.257-.932-8.156.387-.89.543-1.895.543-2.358 1.009l-.387 1.086c0 .155-.077.31-.386.543-1.238.233-1.624 1.435-1.547 2.444l.31 2.754c-.155.194-.696.194-1.122.271-1.16-1.163-1.16-3.413-2.782-4.228-.465-.155-1.392-.155-1.586.427 0 .465.077 1.164.077 1.474-.811.233-1.237.543-1.855.31-1.74.078-2.359 2.6-4.174 2.832-1.701-1.396-4.987-5.625-5.992-7.293-1.083-2.366 2.28-3.607 3.44-5.391 1.856-1.513 7.267-3.608 7.344-4.694 2.977.93 5.876 2.25 9.317 1.164 2.397-.931 4.678-2.017 6.3-4.306-.23-.776-.154-1.513 0-2.406-1.12-3.064-2.976-4.81-5.914-5.895-.734-.544-1.74-.544-2.28-1.086-.85-1.63-.155-3.298-.464-5.237-.542-.931-1.122-1.59-1.933-1.59-.27.232-.735-.078-1.044.232-.232.272-1.005.078-1.16-.077-.154-.155-.154-.31-.231-.466-.464-.543-1.586-.93-2.668-.93l-1.971 1.9-1.701 1.396c-3.286-.737-6.572-.387-9.857 1.474-1.082.698-.85 2.095-1.082 3.453.772 4.15 3.904 5.624 6.107 8.146.232.62-.038 1.086-.27 1.629-2.861 2.832-5.065 5.47-8.119 7.758-1.082 1.474-2.937 1.978-2.783 4.383.31 4.228 2.088 8.224 4.446 10.629.696 1.513 1.7 1.9 2.86 3.142.503.776 1.045 1.319 1.508 1.9 2.165 7.254-2.977 16.758 2.358 23.003.58.854.232 1.474-.116 2.25-1.005 1.474-1.005 3.685-1.237 5.47-1.933-.272-3.672-1.32-5.528-.505-.696-.194-.85-.814-1.275-1.28-4.446-5.624-12.834-3.607-18.749-4.538l-.967-1.009c1.392-3.22 2.204-6.75 1.856-10.357 0-2.017-.696-3.956-1.16-6.245-.464-2.172-2.087-3.297-3.363-5.16-.773-.542-1.7-.542-2.551-.891-2.745-.97-6.108-2.017-9.084-.427-2.436.93-2.668 4.15-4.6 6.478-1.779 2.289-3.518 4.694-1.779 8.301-.734 2.095-1.275 3.918-2.203 5.857-.077 1.086-.464 2.25-.541 3.453-.542 2.366-2.9 6.594-.735 7.253.039 0 .116.04.193.04.155.814.155 1.628.078 2.365-.116 1.087-.387 2.095-.541 3.026-.232 1.784-.04 3.452-.31 4.926-1.043-.31 1.16.699.696 1.397.928 2.211-1.662 5.043-.425 7.06.116 0 .27.155.425.155 3.092-2.018 2.204-7.215 6.07-8.69 1.468-2.055 1.816-4.925 2.125-7.757 0-.039.04-.078.04-.117.231-.814.231-1.59.231-2.443 0-1.436-.077-2.91.734-4.616 1.547-2.444 2.397-5.974 3.054-9.232a8.693 8.693 0 0 1 2.126-.582l1.237 2.366.542 1.008c.232.621.54.893.889 1.746.386 1.63.966 2.87 1.082 4.771-.348.931-1.74 1.63-2.822 2.716-.348.504-.966 1.202-1.546 1.823-.116.155-.27.31-.425.465a13.45 13.45 0 0 0-1.547 1.978c-.618.854-1.198 1.824-1.816 2.793-1.005 2.948-2.01 5.703-2.9 8.922-.348 1.862-.193 4.228.735 6.4.386 1.552 1.546 2.91 1.778 4.461a33.217 33.217 0 0 1 2.088 3.995c-.426 1.514-.851 1.94-2.243 2.948-1.778 1.32-2.28 2.406-4.754 4.772-.928.737-2.359 2.172-3.286 3.88-.735 1.28-1.16 2.754-.85 4.188 1.546 2.677 4.831 2.445 7.422 3.607 2.628 1.204 4.986 1.98 7.421 2.755l-1.7 3.142c-.271.31-.426 1.009-.194 1.784-2.512 2.328 9.046 9.31 12.1 14.973.58 1.63 1.237 2.987 2.126 4.074.502.581 1.044 1.086 1.7 1.474l-.85 1.706c-.463 1.823 1.392 2.91 2.05 4.073.927 1.784 1.777 3.376 3.943 4.617.656.31 1.236-.079 1.662-.699 1.507-3.723.463-7.41-.697-11.171-.192-.66-.386-1.32-.58-1.978-3.169-4.074-6.764-8.612-9.934-12.608-1.12-1.24-1.353-2.637-.503-4.383-.077-.155.078-.155.078-.155.54.233.232.155.54.542.89.466 2.127 1.707 3.519 1.203.31.077.618.311.54.66 0 0-.154.116-.154.427-.696 1.008-.464 1.164-1.082 2.21 0 2.172 2.977 2.87 3.904 4.5.696.233.696.543 1.47.62.618.31 1.623.815 1.97-.077-.154-.31.232-1.707.58-2.405-1.16-4.538-.502-6.167-2.705-10.55-1.547-.97-4.523-3.22-6.147-3.725 2.242-3.064 3.44-5.702 5.026-8.804.773-1.514 1.623-3.143 2.744-4.966 1.198-.698 2.745.465 3.711 1.319.425 1.435 1.237 2.405 1.624 3.647v.038c0 .155-.155.31-.155.31l-2.744 1.513-1.354 2.56 2.05 2.987c.386.155.386.465.657.582l.58.504c.347-.272.502-.272.656-.272.387.155.658-.077.387.35 0 2.365 1.005 4.344 2.165 6.284 1.314 1.125 1.237 2.444 2.126 2.948.773-.077 1.546-.349 2.087-.931.155-1.94.078-3.608.078-5.625-.155-.388.232-1.241.541-1.55 0 .154.271.309.425.464 1.237 1.784 1.933 3.297 3.866 5.082.85.93 1.817 2.56 3.286 2.637.309.273.773.426 1.005.97l-.31.776c-.463 0-.386.62-1.16 1.163-1.081 4.423 1.277 9.116 2.977 13.733.658 1.784 1.237 3.569 1.469 5.313 1.12 1.63 1.353 3.569 1.198 5.393.541 2.094.85 3.917 1.895 5.934.309 3.298.927 5.935.387 9.233-2.591 3.684 1.159 7.99.927 12.14 1.314 1.63 3.672 1.165 5.141 2.6.773.27 1.817 1.24 2.745.465-.348-3.22-2.436-7.447-2.358-10.977-1.083-4.073-1.779-7.448-2.436-11.172.58-1.668-.077-3.375-.425-5.043-.31-1.086.27-2.095-.154-3.18-.194-3.414-.387-7.1-.31-10.706.039-3.298.31-6.595.966-9.66.271-.465.426-.465.89-.698 2.396-.853 4.059-3.452 6.455-3.297 0 0 .542 10.047.619 9.58.116 1.281.232 2.64.348 3.996.541 6.75.773 14.16.773 14.16-.271 0-.425.387-1.005.465-1.083 1.784-4.445 2.173-5.026 4.926.078.776-.309 1.707.426 2.017 1.546.388 2.706-1.086 3.943-1.94.077-.309.966-.465 1.546-.388.04.311.04.622.04 1.087-.851 1.978-2.823 2.133-4.447 3.22-.27.31-.27 1.085-.193 1.707.966 1.434 2.59 2.753 4.523 3.607 6.03-1.32 11.52-6.866 18.67-7.99 3.519-1.01 4.292-4.695 7.655-6.014l8.737-3.219c.154-.155.154-.155.154-.31l-.077-1.087-5.22-2.831c-.463-.389-.076-1.241.117-1.707.502-.388 1.044-.232 1.662-.232 1.237.077 2.165 1.24 2.59 1.861.155-.077.155-.077.348-.077l.89-.543c.308-.155.231-.931-.156-1.707-.927-2.095-2.976-3.298-4.986-4.926a8.96 8.96 0 0 1-.967-.816c-.308-.93-1.469-2.444-1.005-3.375 2.436-.813 4.6 2.213 6.456 3.066.348.077 1.276.232 1.199-.233.154-.388.541-.699.541-.854-.31-.892-1.006-1.862-1.47-2.444Z" fill="#FBBF16"/><path d="m112.627 93.538-1.982-.005-.642-.734c-2-2.289-1.855-5.059-1.737-7.284.037-.708.073-1.377.046-1.998-.025-.443-.072-.983-.223-1.421l-.027-.063a5.164 5.164 0 0 1-.128-.323c-1.012-2.763-.29-5.34.29-7.411.247-.886.482-1.723.563-2.474l.177-1.622 1.893-.315c-.232.046-.714.258-1.051.763a1.968 1.968 0 0 0-.15.267l3.785-.995.387 1.28c.453 1.59.274 2.952.115 4.153-.114.873-.214 1.63-.074 2.402.254 1 .377 1.987.496 2.944.038.26.074.547.11.836.066.527.127 1.025.215 1.465.218 1.17.485 1.861.924 2.412l.445.56.025.714c.014.04.119.19.196.3.263.38.662.952.912 1.79l.164.548-.128.557c-.506 2.199-2.436 2.745-3.362 3.007-.227.064-.569.16-.67.224l-.569.423Zm-49.972 34.866-2.1-1.284c-.651-.4-1.265-.79-1.868-1.177a65.594 65.594 0 0 0-2.569-1.588l-3.166-1.828 3.132-1.887c.632-.381 1.185-.68 1.674-.943.631-.342 1.225-.647 1.792-.939 1.567-.805 2.804-1.442 4.102-2.488l3.301 2.571c-.282.622-.564 1.226-.84 1.82-.293.627-.581 1.243-.858 1.86a333.34 333.34 0 0 0-1.614 3.623l-.986 2.26Zm61.214-93.796Zm.175 10.313c-.04.025-.078.051-.11.077l.11-.077Zm-.378.233 1.566 2.384 1.201-.902a2.101 2.101 0 0 0-.352-.74l-.38-.151.075-.183a2.103 2.103 0 0 0-2.11-.408Zm2.135 3.25.13.2c.448-.45.682-1.206.51-1.934l-.64 1.735ZM55.253 77.398c-.488 1.083-.483 2.035-.478 3.231v.721a17.11 17.11 0 0 1 1.153-1.372l.052-.053c.08-.081.164-.158.228-.239l.15-.177c.864-.926 1.214-1.385 1.346-1.576l.11-.16.137-.137c.498-.5 1.016-.906 1.472-1.265.196-.153.454-.356.649-.526-.109-.723-.3-1.366-.513-2.083-.132-.444-.269-.902-.394-1.406-.098-.22-.191-.376-.305-.567a6.777 6.777 0 0 1-.49-.952l-.398-.741c-.63 2.66-1.446 5.24-2.719 7.302Zm78.681 47.719.003.006-.003-.006ZM118.46 151.77l1.116.042c-.036-.543-.07-1.094-.1-1.649a2.122 2.122 0 0 0-.988-.257l-.028 1.864Zm5.62 2.964c.021.202.033.415.044.633.008.15.015.304.03.458l.01.125c.034.833.057 1.733.08 2.663.02.752.04 1.53.067 2.305.499-1.048 1.115-1.96 1.687-2.808.405-.6.796-1.178 1.122-1.768-.291-.503-.58-1.009-.87-1.516-.795-1.391-1.602-2.803-2.442-4.139.049.803.105 1.598.158 2.363.042.586.08 1.15.114 1.684Zm-12.111 11.681c.264.909.181 1.711.118 2.317-.027.268-.058.57-.027.68l.037.151c.063.304.139.61.213.915.156.641.329 1.348.42 2.102.801-.918 1.801-1.524 2.625-2.022.544-.33 1.221-.74 1.387-1.014l.533-.879.102-.013c-.1-2.544-.328-7.684-.709-12.439-.114-1.342-.23-2.696-.346-3.973l.014-.001c-.087-.474-.123-.998-.16-1.531-.062-.907-.136-2.113-.207-3.32l-.11-1.898c-.165.12-.336.248-.51.379-.834.625-1.77 1.326-2.904 1.793-.472 2.483-.73 5.332-.766 8.482-.073 3.376.093 6.786.29 10.271Zm5.282 14.43c.628.676 1.447 1.29 2.37 1.778 2.228-.627 4.493-1.903 6.878-3.246 3.388-1.908 6.89-3.88 11.08-4.572 1.161-.372 1.924-1.252 2.883-2.359 1.11-1.28 2.37-2.733 4.47-3.556l5.889-2.17-2.723-1.477-.166-.14c-1.102-.922-1.275-2.311-.514-4.13l.245-.588.452-.35c.82-.632 1.685-.708 2.283-.709-.221-.172-.45-.346-.683-.525-.415-.317-.839-.64-1.26-.982a10.73 10.73 0 0 1-1.169-.993l-.357-.36-.16-.482c-.04-.12-.195-.425-.308-.648-.554-1.092-1.393-2.743-.58-4.372l.398-.798.844-.282a4.732 4.732 0 0 1 2.364-.173c-1.009-1.153-1.98-2.187-3.055-2.5l-.531-.154-.391-.392c-.388-.389-.785-.911-.785-1.835v-2.155h1.812a3.03 3.03 0 0 1 .637-.138c.24-.097.532-.563.832-1.327l.085-.215.127-.194c.106-.158.282-.428.565-.677-.96-.944-1.967-1.638-3.018-1.766-.756-.075-3.489-.412-5.115-1.365l-.163-.095-2.006-1.706-.154-.788c-.127-.379-.425-1.267.061-2.219a2.489 2.489 0 0 1 1.383-1.202 3.196 3.196 0 0 1 1.293-.246c-1.697-1.908-3.92-3.2-6.128-4.363l-1.15-.606v-.947l-.376-.752 1.15-1.945c-.794-.231-1.658-.517-2.553-.982l-.683-.356-.328-.76c-.699-1.451-.628-2.661.21-3.596l.64-.713h.437a1.996 1.996 0 0 0-.539-.189l-1.846-.352.103-1.882c.069-1.267-.253-2.523-.669-3.824l-1.76 2.046-1.496-.758a.935.935 0 0 1-.077-.02c-.153-.047-.386-.116-.676-.245l-.564-.25-.346-.512c-.675-1.002-1.18-2.098-1.666-3.158-.737-1.604-1.436-3.124-2.554-3.885a3.216 3.216 0 0 1-.693-.345c-1.282-.82-1.475-2.15-1.569-2.792-.013-.096-.024-.191-.046-.28l-.21-.84.429-.753c.385-.675.941-1 1.208-1.156l.033-.02.542-.452h.643c.063-.037.143-.1.21-.17l.164-1.638c.196-1.178.939-2.667 2.387-2.99l.512-.114.299.08-.03-.06-.13-.164a54.893 54.893 0 0 0-.414-.52c-.186.066-.393.156-.605.248-.635.276-1.425.618-2.364.674l-1.04.06-.692-.78c-.705-.797-.843-1.765-.412-2.88a62.132 62.132 0 0 1-.725-4.05l-.014-.115c-.037-.388-.083-.776-.13-1.164-.05-.427-.1-.854-.14-1.282-.254-2.54-.394-5.152-.53-7.678-.283-5.3-.55-10.306-1.79-14.532-.21-.752-.539-1.355-.886-1.994-.564-1.037-1.203-2.212-1.131-3.758l.015-.331.115-.313a.246.246 0 0 0 .013-.06l-.145-.018v-.477l-.065-.16c-.213-.524-.506-1.24-.43-2.102l.226-2.602 2.504.717c.391.113.737.317 1.028.577.966-.135 2.076-.602 2.941-.967l1-.419.764.256c.085.028.165.058.24.089.046-.103.093-.215.132-.306.099-.235.21-.502.356-.764l.37-.67 1.484-.595.03.046.048-.034.147-.056c.365-.263 1.224-.871 2.564-.656.604-.937 1.37-1.7 2.191-2.449a10.798 10.798 0 0 0-.223-.746c-.136-.422-.294-.906-.395-1.45-.684-.701-1.048-1.513-1.314-2.105-.065-.143-.151-.335-.222-.472l-.022-.005-.262-.13a3.288 3.288 0 0 1-.398-.239h-1.091l-.49-1.97a2.244 2.244 0 0 0-.255-.176 3.171 3.171 0 0 1-1.228-.552c-1.416-.52-3.736-.57-6.035.445-.599.342-1.179.521-1.618.653l-.013.037c-.134.666-.533 1.253-1.192 1.75l-.402.305-.292.054a.95.95 0 0 0-.005.17l.403 3.596-.557.699c-.659.826-1.604.942-2.169 1.012-.082.01-.166.018-.244.033l-1.107.202-.796-.798c-.622-.625-1.005-1.364-1.3-2.033l-.882.253c-.164.047-.307.1-.438.146-.47.166-1.122.398-1.918.313-.165.146-.4.408-.568.596-.69.77-1.733 1.936-3.425 2.153l-.916.117-.716-.587c-1.992-1.636-5.435-6.13-6.47-7.845l-.113-.216c-1.405-3.071 1.053-5.163 2.374-6.286.495-.421 1.008-.857 1.22-1.183l.183-.282.261-.213c.942-.768 2.376-1.522 3.895-2.32.867-.456 2.101-1.105 2.709-1.522l.146-2.046 2.588.81c.422.131.843.271 1.264.411 2.374.788 4.428 1.47 6.706.774 2.032-.794 3.58-1.584 4.731-2.861a7.616 7.616 0 0 1 .065-1.57c-.875-2.075-2.195-3.286-4.445-4.118l-.287-.106-.246-.182c-.08-.056-.362-.15-.55-.211-.56-.185-1.328-.438-1.973-1.085l-.232-.233-.152-.291c-.785-1.502-.713-2.968-.655-4.146.024-.473.046-.926.016-1.358a3.136 3.136 0 0 0-.054-.076h-.01a2.805 2.805 0 0 1-1.122.274c-.697.031-1.73-.178-2.392-.842a2.748 2.748 0 0 1-.453-.6 2.32 2.32 0 0 0-.176-.057l-1.363 1.304-2.51 2.061-1.02-.228c-2.875-.646-5.532-.277-8.115 1.126-.046.204-.077.582-.1.848-.02.241-.041.503-.076.78.484 2.055 1.76 3.208 3.355 4.648.729.66 1.483 1.34 2.188 2.146l.258.296.138.368c.514 1.376.024 2.483-.239 3.078l-.235.545-.3.297c-.793.786-1.547 1.568-2.276 2.325-1.858 1.93-3.617 3.756-5.831 5.45-.413.503-.85.892-1.242 1.24-.866.769-.952.904-.917 1.453.261 3.557 1.73 7.111 3.834 9.257l.262.267.156.34c.251.546.544.81 1.18 1.356.385.331.821.706 1.298 1.216l.13.14.104.16c.264.407.56.751.872 1.116.177.207.35.408.513.614l.26.326.119.4c1.013 3.393.64 7.026.28 10.54-.458 4.475-.891 8.703 1.652 11.679l.143.188c1.225 1.802.513 3.37.13 4.211l-.14.312-.107.158c-.492.72-.629 2.11-.75 3.337-.04.41-.08.812-.13 1.195l-.281 2.156-2.147-.3c-.72-.102-1.39-.284-1.982-.444-1.141-.31-1.816-.473-2.386-.221l-.7.307-.736-.205c-1.25-.348-1.833-1.227-2.146-1.7-.045-.068-.086-.14-.14-.203l-.098-.115c-2.572-3.254-7.007-3.325-11.703-3.401-1.915-.031-3.895-.064-5.696-.347l-.714-.113-2.46-2.565.57-1.318c1.402-3.243 1.97-6.37 1.688-9.29l-.01-.209c0-1.135-.292-2.326-.63-3.704-.165-.671-.335-1.364-.486-2.112-.186-.87-.702-1.507-1.597-2.554-.35-.41-.736-.861-1.115-1.37a7.047 7.047 0 0 0-.592-.16c-.378-.093-.805-.196-1.264-.38-2.546-.897-5.205-1.67-7.317-.54l-.245.11c-.64.245-1.063 1.083-1.698 2.427-.504 1.067-1.074 2.273-1.993 3.389-1.852 2.386-2.603 3.763-1.519 6.012l.39.807-.297.846c-.163.466-.317.919-.467 1.361-.502 1.477-.978 2.877-1.661 4.363-.06.504-.158.989-.254 1.461-.11.55-.214 1.07-.245 1.549l-.012.173-.038.17c-.17.743-.455 1.542-.756 2.388-.215.602-.557 1.563-.726 2.267h.625l.332 1.752c.179.94.214 1.948.104 2.995-.085.793-.236 1.525-.369 2.172-.067.324-.132.639-.184.945-.09.716-.103 1.458-.115 2.177-.01.611-.021 1.235-.078 1.864.281.362.458.709.56 1.033.595-.88 1.386-1.676 2.505-2.248.941-1.659 1.21-4.086 1.447-6.256a2.11 2.11 0 0 1 .03-.207l.004-.023c.023-.115.055-.228.096-.34.131-.508.131-1.075.131-1.786v-.335c-.007-1.423-.014-3.194.944-5.21l.125-.226c1.355-2.14 2.156-5.5 2.762-8.505l.222-1.097 1.022-.45a10.866 10.866 0 0 1 2.72-.746l1.478-.185 2.578 4.942c.042.113.098.206.218.41.172.288.407.684.648 1.276l.102.317c.109.46.238.894.375 1.355.313 1.05.667 2.24.762 3.783l.028.459-.161.43c-.43 1.15-1.347 1.87-2.233 2.566-.333.26-.675.529-.965.804-.35.478-.86 1.075-1.548 1.814a6.899 6.899 0 0 1-.512.56c-.524.565-.941 1.1-1.277 1.632l-.079.117c-.417.576-.829 1.232-1.265 1.927-.112.18-.225.36-.34.54-.169.495-.338.984-.506 1.472-.8 2.315-1.555 4.503-2.246 6.99-.283 1.618-.056 3.505.613 5.07l.067.158.042.168c.119.475.395 1.02.688 1.597.387.764.819 1.616 1.043 2.6a35.065 35.065 0 0 1 2.016 3.912l.312.709-.21.745c-.604 2.15-1.433 2.938-3.052 4.11-.804.598-1.29 1.142-2.025 1.967-.607.679-1.362 1.525-2.505 2.618l-.149.13c-.797.633-1.991 1.857-2.733 3.221-.368.643-.743 1.51-.684 2.363.607.77 1.637 1.065 3.285 1.486.967.246 1.967.502 2.962.948 2.5 1.144 4.736 1.885 7.195 2.668l2.479.79-2.981 5.507c.003.019.008.04.015.064l.386 1.29-.444.41c.731 1.104 2.962 3.154 4.508 4.573 2.796 2.57 5.967 5.484 7.482 8.294l.133.3c.544 1.527 1.1 2.611 1.746 3.409.4.46.766.78 1.147 1.006l1.73 1.02-1.57 3.153c.088.258.503.724.737.985.362.407.772.868 1.082 1.416l.036.066c.69 1.33 1.2 2.254 2.065 3.011.632-2.572-.072-5.256-1.112-8.631l-.473-1.612a1813.03 1813.03 0 0 0-9.63-12.219c-1.152-1.3-2.196-3.411-.99-6.284.05-.258.147-.507.289-.738a2.262 2.262 0 0 1 1.916-1.062h.442l.407.175c.328.142.878.38 1.27.96l.265.173c.27.18.765.509.983.552l.577-.21.633.159c1.53.383 2.441 1.766 2.12 3.22l-.104.465v.165l-.382.554c-.214.31-.248.405-.339.66-.054.152-.117.33-.21.544.258.274.774.645 1.085.869.65.468 1.367.984 1.937 1.688.071.04.135.078.193.113.05-.157.103-.304.154-.438-.327-1.41-.49-2.543-.636-3.56-.26-1.807-.453-3.148-1.48-5.319-.321-.213-.678-.456-1.056-.712-1.267-.863-3.181-2.166-4.059-2.439l-2.88-.895 1.784-2.44c1.788-2.443 2.87-4.593 4.123-7.082.235-.467.474-.943.722-1.43.753-1.474 1.655-3.206 2.828-5.114l.283-.46.467-.272c1.773-1.035 3.863-.507 6.208 1.565l.464.41.176.594c.163.55.418 1.033.713 1.593.31.584.66 1.247.901 2.025l.098.313v.33c0 .983-.548 1.635-.783 1.871l-.217.218-2.45 1.35-.442.837 1.062 1.547c.104.083.195.166.273.245h.514l.203.081c1.117.123 1.614.858 1.78 1.181.203.39.358.957.151 1.65.098 1.48.721 2.854 1.687 4.5.179.173.338.348.48.521 0-.403-.005-.814-.01-1.243-.004-.411-.008-.832-.01-1.267-.22-1.383.645-2.792 1.172-3.319l3.665-3.672v4.372l.04.06c.333.48.63.941.92 1.394.752 1.177 1.403 2.193 2.637 3.331l.13.13c.198.218.404.469.617.73.303.372.93 1.144 1.21 1.214l.742.04.548.49c.005.001.04.024.077.048.375.252 1.071.72 1.487 1.694l.35.82-1.178 2.959h-.542c-.033.041-.07.084-.108.126-.45 2.91.825 6.182 2.17 9.632.291.746.582 1.492.856 2.235.58 1.574 1.203 3.414 1.51 5.285 1.004 1.67 1.444 3.676 1.31 5.974l.216.882c.373 1.535.695 2.86 1.417 4.254l.193.373.039.418c.061.649.134 1.27.207 1.876l.034-.095c.256-.739.02-1.71-.255-2.836-.08-.33-.161-.66-.231-.989-.23-.876-.15-1.654-.092-2.225.026-.248.061-.589.027-.676l-.126-.32-.019-.345c-.21-3.674-.39-7.27-.313-10.875.044-3.737.385-7.13 1.013-10.066l.073-.337.173-.298c.518-.889 1.083-1.207 1.616-1.457l.41-.184c.676-.241 1.373-.763 2.11-1.315 1.337-1 2.995-2.248 5.202-2.1l1.903.123.041.761 3.261 1.634.254.262c2.565 2.641 4.584 6.172 6.536 9.586.422.738.843 1.475 1.27 2.202l.837.84-.54 1.326c-.544 1.339-1.278 2.426-1.989 3.478-.873 1.293-1.627 2.409-1.866 3.764l-.113.642-.45.472c-.257.27-.656.935-1.007 1.522-.5.835-1.017 1.699-1.634 2.368l-2.63 2.858-.07-.259.014.46h-1.655a3.57 3.57 0 0 1-.254.137c-.2.225-.414.428-.637.615.18.005.349.018.497.038l1.639.219.208 1.646c.057.446.057.848.057 1.358v.445l-.176.408c-.909 2.114-2.65 2.906-3.921 3.486-.103.046-.205.093-.305.14Zm-7.788 12.262c.275.126.642.234 1.107.366.53.15 1.126.318 1.728.59l-.225-.757c-.664-2.235-1.352-4.542-1.367-6.812-.78-2.96-1.406-5.738-2.01-8.933.11 1.502.108 3.046-.176 4.781l-.08.488-.285.405c-.92 1.308-.49 2.89.287 5.367.433 1.379.913 2.907 1.021 4.505Zm5.011 6.537c-1.04 0-1.94-.476-2.388-.712a4.673 4.673 0 0 0-.333-.169l-.448-.157-.334-.33c-.305-.299-.89-.464-1.566-.655-1.108-.313-2.625-.743-3.746-2.132l-.522-.646.046-.83c.07-1.227-.371-2.63-.838-4.117-.801-2.553-1.79-5.7 0-8.684.267-2.027.045-3.84-.207-5.918a92.874 92.874 0 0 1-.222-1.926c-.825-1.707-1.211-3.295-1.586-4.835-.093-.38-.187-.769-.29-1.167l-.092-.357.031-.367c.14-1.646-.138-2.986-.826-3.985l-.293-.426-.068-.514c-.215-1.62-.805-3.362-1.354-4.851-.265-.718-.545-1.438-.826-2.16-1.62-4.152-3.295-8.448-2.222-12.834l.193-.787.165-.116c-.97-.593-1.68-1.466-2.22-2.129-.139-.171-.272-.337-.403-.484a16.85 16.85 0 0 1-1.158-1.19c-.016.478-.041.966-.082 1.475l-.06.748-.51.55c-.846.91-2.038 1.465-3.446 1.605l-.676.067-.591-.335c-1.013-.573-1.44-1.463-1.75-2.113-.217-.453-.374-.78-.715-1.072l-.267-.228-.18-.303c-.924-1.543-1.894-3.316-2.288-5.429l-.917-.788a2.675 2.675 0 0 1-.538-.475l-.263-.105-3.155-4.6 2.264-4.284 1.814-1c-.26-.491-.54-1.031-.781-1.666a5.553 5.553 0 0 0-.644-.452 74.8 74.8 0 0 0-2.061 3.818c-.245.478-.48.946-.711 1.405-.946 1.88-1.853 3.682-3.065 5.594.812.493 1.702 1.09 2.674 1.753.549.373 1.05.714 1.45.966l.509.319.27.538c1.564 3.11 1.847 5.077 2.147 7.16.163 1.128.33 2.296.722 3.826l.199.78-.359.72a5.5 5.5 0 0 0-.332.972l.18.36-.349.893c-.309.793-.893 1.39-1.644 1.68a2.998 2.998 0 0 1-1.43.174 991.132 991.132 0 0 1 2.42 3.095l.251.325.696 2.373c1.097 3.557 2.474 8.023.626 12.589l-.088.218-.133.193c-1.095 1.597-2.8 2.157-4.345 1.427l-.151-.079c-2.723-1.56-3.81-3.62-4.759-5.445-.092-.152-.328-.416-.536-.65-.869-.975-2.321-2.608-1.713-4.999l.057-.224.172-.346a11.69 11.69 0 0 1-.622-.666l-.037-.044c-.95-1.161-1.724-2.61-2.428-4.548-1.215-2.146-4.037-4.74-6.532-7.033-3.898-3.582-6.104-5.72-6.108-8.024 0-.442.085-.868.25-1.261-.064-.936.158-1.828.637-2.506l.39-.72a53.535 53.535 0 0 1-5.194-2.042c-.644-.289-1.425-.488-2.252-.7-2.063-.525-4.63-1.18-6.137-3.786l-.17-.294-.07-.332c-.393-1.819-.016-3.796 1.088-5.72 1.24-2.282 3.077-3.896 3.731-4.427.983-.945 1.63-1.67 2.202-2.31.813-.911 1.514-1.698 2.691-2.571.762-.552 1.043-.78 1.212-1.1-.48-1.017-1-1.982-1.612-2.986l-.227-.373-.065-.432c-.074-.493-.383-1.105-.711-1.751-.348-.685-.739-1.456-.98-2.332a13.763 13.763 0 0 1-.984-6.126c-.063.167-.127.342-.194.524-.63 1.714-1.412 3.848-3.423 5.16l-.534.348h-.637c-.338 0-.629-.073-.851-.155h-.774l-.63-1.025c-1.149-1.876-.535-3.886-.086-5.354.226-.737.507-1.655.362-2l-.184-.437c-1.415-1.188-.912-2.468-.721-2.837a2.08 2.08 0 0 1 .177-.28c.021-.374.028-.774.035-1.185.014-.811.03-1.73.156-2.698l.011-.076c.062-.37.14-.752.22-1.146.12-.577.243-1.174.305-1.756.027-.26.04-.512.038-.758a3.26 3.26 0 0 1-.822-1.04c-.9-1.792-.099-4.039.675-6.211.234-.656.456-1.278.58-1.758.06-.695.19-1.344.307-1.924.099-.493.192-.959.22-1.343l.029-.41.177-.37c.663-1.385 1.112-2.708 1.632-4.238l.205-.602c-1.693-4.46.742-7.594 2.387-9.71l.044-.054c.584-.704.997-1.579 1.435-2.505.81-1.716 1.728-3.658 3.919-4.556 3.936-2.032 8.16-.54 10.693.356l.1.038c.18.074.423.133.703.201.651.158 1.461.355 2.266.92l.319.224.22.321c.346.505.738.964 1.152 1.45.99 1.158 2.113 2.471 2.541 4.478.139.684.298 1.334.452 1.962.364 1.48.74 3.01.755 4.628.28 3.06-.164 6.249-1.317 9.504 1.154.093 2.408.114 3.713.135 5.214.084 11.122.18 14.958 4.981.082.094.156.187.223.276 1.114-.167 2.149.014 3.069.243.17-1.31.467-2.666 1.22-3.856l.075-.166c-3.414-4.325-2.858-9.756-2.365-14.563.314-3.069.612-5.976-.012-8.46l-.144-.169a14.992 14.992 0 0 1-1.099-1.399 12.545 12.545 0 0 0-.84-.767c-.7-.6-1.486-1.274-2.116-2.475-2.69-2.89-4.481-7.241-4.81-11.724-.175-2.732 1.348-4.084 2.356-4.978.344-.305.64-.568.84-.84l.19-.258.254-.192c2.048-1.535 3.748-3.299 5.547-5.167.574-.597 1.164-1.209 1.784-1.834-.348-.34-.72-.676-1.104-1.022-1.914-1.73-4.083-3.689-4.772-7.388l-.07-.378.065-.38c.043-.254.067-.541.092-.846.099-1.179.247-2.962 1.945-4.056l.106-.064c3.253-1.844 6.722-2.483 10.33-1.903l.858-.705 2.532-2.442h.865c1.2 0 2.894.365 3.99 1.366.07-.012.14-.02.204-.026l.115-.098h.794c2.241 0 3.405 2.002 3.788 2.659l.202.348.064.398c.157.992.114 1.87.076 2.644-.03.617-.047 1.069.01 1.43l.053.017c.405.134.937.31 1.472.643 3.46 1.343 5.669 3.599 6.943 7.082l.198.542-.098.57c-.132.763-.147 1.121-.059 1.417l.301 1.01-.609.858c-2.023 2.854-4.816 4.112-7.276 5.067l-.13.045c-3.574 1.13-6.608.155-9.287-.734-.842.646-2.022 1.266-3.484 2.034-1.085.57-2.3 1.208-2.975 1.691-.528.695-1.199 1.266-1.8 1.777-.399.339-1.041.886-1.232 1.192.848 1.332 2.855 3.926 4.338 5.513l.188-.21c.68-.758 1.687-1.883 3.304-2.067v-.004l.11-.333c.606-1.816 2.664-2.336 4.3-1.788l.283.118c.38.19.705.417.987.667a3.946 3.946 0 0 1 1.732-1.74l.375-1.05.34-.342c.626-.63 1.376-.854 1.979-1.034.305-.092.593-.178.783-.294l.23-.121c3.297-1.5 7.095-1.652 9.915-.395l.51.228.037.05c1.073.358 2.044 1.24 2.49 1.762l.332.387.122.492c1.43.565 2.014 1.866 2.382 2.684.171.382.365.814.524.907l1.063.624v1.236c0 .326.136.744.292 1.228.28.865.63 1.942.464 3.267l-.1.805-.728.65c-1.174 1.046-2.023 1.802-2.397 2.754l-.165.418-.317.317c-.51.511-1.48.993-2.494.92a2.768 2.768 0 0 1-.79-.173c-.052.029-.108.058-.165.087a3.063 3.063 0 0 1-.578.291c-.377.823-1.074 2.012-2.544 2.447-.91.397-1.728.26-2.29.07-.843.345-1.811.71-2.848.92a4.42 4.42 0 0 1-.134.98c.058.307.276.72.597 1.312.405.744.91 1.671 1.245 2.869 1.372 4.683 1.666 10.177 1.951 15.49.133 2.478.27 5.04.515 7.492.038.404.084.798.131 1.19.048.402.095.803.134 1.204.178 1.183.354 2.202.54 3.121.651-.193 1.406-.308 2.255-.176l.633.097.477.431c.42.38.87.938 1.46 1.685l.375.473.094.178c.854 1.613 1.464 3.61 1.633 5.34l.098 1.014-.718.72c-.724.726-1.847 1.1-2.928.975a3.365 3.365 0 0 1-.899-.228l-.032.332-.136.312c-.354.82-.964 1.54-1.686 2.06 1.308 1.054 2.159 2.44 2.853 3.83l.31-4.263 2.294-.121.175-.176h.889c1.681 0 2.611 1.687 2.611 2.853v.205l-.039.202c-.303 1.584.238 3.198.866 5.066.486 1.447 1.021 3.042 1.184 4.798 1.576.818 2.827 2.287 3.405 4.079.288.592.405 1.112.486 1.469.02.089.034.175.06.256l.518.91-.139.313a6.386 6.386 0 0 1 1.636 1.068c.342.299.815.787 1.186 1.459l.115.243c.036.089.073.168.108.245.23.499.576 1.253.463 2.497l-.026.29-.102.272a2.63 2.63 0 0 1-.256.509c2.411 1.84 4.55 4.275 5.735 7.872l.348 1.058c2.542.861 4.483 2.953 6.215 5.144l.035.047c.891 1.192 1.668 2.556 1.322 4.438-.273 1.636-1.434 2.23-2.344 2.23l-.164-.007a3.498 3.498 0 0 1-.806-.157c.338.367.66.738.973 1.098.867.997 1.685 1.94 2.43 2.297l.444.212.307.386c.606.76 1.414 1.911 1.82 3.08l.12.345v.365c0 .82-.422 1.36-.657 1.653-.12.366-.328.701-.614.973-.572.545-1.332.77-2.308.687.853.81 1.612 1.737 2.137 2.906.33.675.793 1.935.402 3.111a2.474 2.474 0 0 1-1.11 1.379l-.01.005.601.327.168 2.42c0 .923-.397 1.445-.784 1.834l-.334.335-9.18 3.383c-1.076.423-1.853 1.318-2.752 2.356-1.221 1.408-2.605 3.005-5.053 3.706l-.258.057c-3.492.55-6.694 2.352-9.79 4.096-2.792 1.572-5.678 3.198-8.756 3.871l-.683.15-.64-.283c-1.51-.667-2.864-1.57-3.961-2.628.118.467.242.94.369 1.42l.079.295-.007.307c-.037 1.694.585 3.785 1.186 5.806.487 1.638.991 3.332 1.16 4.892l.125 1.149-.886.74c-.707.591-1.44.79-2.114.79Z" fill="#FBBF16"/><path d="M129.54 156.235c-1.12 2.755-3.44 4.615-3.981 7.68-.85.892-1.74 2.91-2.668 3.918-.81-2.987-.734-8.069-.888-11.793-.039-.387-.039-.775-.077-1.125-.194-3.064-.58-7.176-.349-10.472l.31.155c2.938 3.026 5.18 7.447 7.577 11.52.038.039.038.078.076.117ZM61.66 125.28c-1.585-.97-2.938-1.9-4.484-2.793.58-.349 1.082-.62 1.585-.891 2.435-1.32 4.252-2.057 6.223-3.647-.58 1.28-1.16 2.482-1.7 3.685a331.928 331.928 0 0 0-1.624 3.646Zm48.437-43.91c-.04-.117-.116-.272-.156-.388-1.159-3.142.658-6.09.967-8.922.464-.078.773-.078.696-.466l-.232-1.047.386 1.28c.62 2.172-.463 4.034 0 6.4.233.893.348 1.824.465 2.755.116.814.193 1.668.348 2.443.231 1.242.58 2.367 1.352 3.336.04 1.164.85 1.474 1.199 2.638-.348 1.513-2.165 1.203-3.21 1.978h-.308c-1.933-2.21-1.044-5.197-1.16-7.952-.039-.698-.115-1.396-.347-2.055Zm44.416 70.093c-2.59-1.241-4.29-5.391-7.5-6.322-.154-.155-.154-.155-.154-.311.155 0 .31-.155.618-.155 1.315-.232 2.01-1.396 2.513-2.676.155-.233.232-.389.464-.233.155.233.309 0 .464.233.773 1.008 1.082 2.056 2.087 2.133.155 0 .232-.466.232-.466.193-1.047-.232-1.822-.928-2.754-1.778-2.25-3.749-4.383-6.3-4.693-1.547-.156-3.364-.544-4.291-1.087l-1.276-1.085c-.078-.427-.425-.892.077-1.048.89-.388 1.353.388 2.126.621.774.388 1.895 1.668 2.63.737 0 0 0-.154.115-.31-1.662-5.043-5.566-7.526-9.471-9.581 0-.156-.078-.31-.078-.31l.735-1.243 1.237.931 1.083.932c.464-.078.928-.233 1.044-.543.077-.853-.194-1.164-.426-1.746a3.332 3.332 0 0 0-.735-.891c-1.43-1.32-3.633-1.242-5.798-2.368-.116-.271-.54-.968-.193-1.356h.425l1.778 1.784 1.082.31c0-.233.078-.892.233-1.241-.31-.543-.233-1.165-.657-1.94-.503-1.745-1.895-3.064-3.519-3.374.232-4.268-2.821-7.758-2.048-11.793 0-.155-.232-.698-.464-.698-.154.155-.464.155-.619.155l-.734.039-.502 6.866-.735.854c-.309-.157-.502-.157-.85-.311-1.701-2.522-2.358-6.245-5.142-7.836 0 0-.154 0-.386-.155-.619-.388-.541-1.164-.696-1.784.155-.272.464-.35.696-.543.772 0 1.778-.737 2.165-1.63l.193-1.978c.077-.465.386-1.164.734-1.241.58.155 1.044.853 1.585 1.086.387.62 1.47.543 1.933.078-.154-1.59-.734-3.298-1.392-4.539-.463-.582-1.082-1.396-1.468-1.746-1.509-.232-2.668.931-3.982 1.009-.31-.35.077-.776.232-1.241-.349-1.474-.619-3.026-.85-4.578-.078-.814-.194-1.629-.271-2.443-.774-7.758-.465-16.02-2.397-22.615-.619-2.211-2.01-3.375-1.933-5.043.541-1.474-.58-2.482-.502-3.375.27.078.502.505.502.66 1.778.233 3.75-.66 5.142-1.241.463.155.927.581 1.546.232 1.12-.232 1.353-1.512 1.74-2.21l.773-.311c-.155.155 0 .155.308-.078.465-.155.697-.775 1.74-.388.348.466 1.082.078 1.237-.077.58-1.474 1.7-2.444 3.093-3.685.193-1.552-.773-2.754-.773-4.228-1.586-.931-1.315-3.22-2.9-3.53-.309-.155-.503-.466-.773-.466l-.232-.93c-.463-.544-1.237-1.087-1.7-1.164-.155 0-.464-.156-.58-.31-2.088-.932-5.258-.932-8.157.387-.89.543-1.895.543-2.357 1.009l-.387 1.086c0 .155-.078.31-.387.543-1.237.233-1.624 1.435-1.546 2.444l.309 2.754c-.155.194-.696.194-1.121.271-1.16-1.163-1.16-3.413-2.783-4.228-.465-.155-1.392-.155-1.586.427 0 .465.078 1.164.078 1.474-.812.233-1.237.543-1.855.31-1.74.078-2.36 2.6-4.175 2.832-1.701-1.396-4.987-5.625-5.992-7.293-1.083-2.366 2.28-3.607 3.44-5.391 1.856-1.513 7.267-3.608 7.345-4.694 2.977.93 5.875 2.25 9.316 1.164 2.397-.931 4.677-2.017 6.301-4.306-.232-.776-.154-1.513 0-2.406-1.12-3.064-2.976-4.81-5.914-5.895-.735-.544-1.74-.544-2.28-1.086-.851-1.63-.156-3.298-.465-5.237-.542-.931-1.121-1.59-1.933-1.59-.27.232-.735-.078-1.043.232-.233.272-1.005.078-1.16-.077-.155-.155-.155-.31-.232-.466-.464-.543-1.585-.93-2.668-.93l-1.97 1.9-1.702 1.396c-3.285-.737-6.571-.387-9.857 1.474-1.082.698-.85 2.095-1.082 3.453.773 4.15 3.904 5.624 6.107 8.146.232.62-.038 1.086-.27 1.629-2.86 2.832-5.064 5.47-8.118 7.758-1.082 1.474-2.938 1.978-2.783 4.383.31 4.228 2.087 8.224 4.445 10.629.697 1.513 1.701 1.9 2.86 3.142.503.776 1.045 1.319 1.508 1.9 2.165 7.254-2.976 16.758 2.358 23.003.58.854.232 1.474-.116 2.25-1.005 1.474-1.005 3.685-1.237 5.47-1.933-.272-3.672-1.32-5.527-.505-.696-.194-.851-.814-1.276-1.28-4.446-5.624-12.834-3.607-18.749-4.538l-.966-1.009c1.392-3.22 2.203-6.75 1.855-10.357 0-2.017-.695-3.956-1.16-6.245-.463-2.172-2.087-3.297-3.362-5.16-.774-.542-1.701-.542-2.552-.891-2.744-.97-6.107-2.017-9.084-.427-2.435.93-2.667 4.15-4.6 6.478-1.778 2.289-3.518 4.694-1.778 8.301-.735 2.095-1.276 3.918-2.204 5.857-.077 1.086-.464 2.25-.541 3.453-.541 2.366-2.9 6.594-.735 7.253.04 0 .117.04.194.04.155.814.155 1.628.077 2.365-.116 1.087-.387 2.095-.541 3.026-.232 1.784-.039 3.452-.31 4.926-1.043-.31 1.16.699.697 1.397.927 2.211-1.663 5.043-.426 7.06.116 0 .27.155.426.155 3.092-2.018 2.203-7.215 6.068-8.69 1.47-2.055 1.817-4.925 2.127-7.757 0-.039.038-.078.038-.117.232-.814.232-1.59.232-2.443 0-1.436-.077-2.91.735-4.616 1.546-2.444 2.397-5.974 3.053-9.232a8.693 8.693 0 0 1 2.127-.582l1.237 2.366.541 1.008c.232.621.541.893.889 1.746.387 1.63.966 2.87 1.083 4.771-.348.931-1.74 1.63-2.822 2.716-.348.504-.967 1.202-1.547 1.823-.116.155-.27.31-.425.465a13.464 13.464 0 0 0-1.546 1.978c-.619.854-1.199 1.824-1.817 2.793-1.005 2.948-2.01 5.703-2.9 8.922-.347 1.862-.193 4.228.735 6.4.387 1.552 1.546 2.91 1.778 4.461a33.217 33.217 0 0 1 2.088 3.995c-.425 1.514-.85 1.94-2.242 2.948-1.779 1.32-2.281 2.406-4.755 4.772-.928.737-2.358 2.172-3.286 3.88-.734 1.28-1.16 2.754-.85 4.188 1.546 2.677 4.832 2.445 7.422 3.607 2.628 1.204 4.987 1.98 7.422 2.755l-1.701 3.142c-.27.31-.425 1.009-.193 1.784-2.513 2.328 9.045 9.31 12.1 14.973.58 1.63 1.236 2.987 2.125 4.074.503.581 1.044 1.086 1.701 1.474l-.85 1.706c-.464 1.823 1.391 2.91 2.049 4.073.927 1.784 1.778 3.376 3.943 4.617.657.31 1.237-.079 1.662-.699 1.507-3.723.464-7.41-.696-11.171l-.58-1.978c-3.17-4.074-6.764-8.612-9.935-12.608-1.12-1.24-1.353-2.637-.502-4.383-.077-.155.077-.155.077-.155.541.233.232.155.541.542.89.466 2.126 1.707 3.518 1.203.31.077.619.311.541.66 0 0-.155.116-.155.427-.695 1.008-.463 1.164-1.082 2.21 0 2.172 2.977 2.87 3.905 4.5.695.233.695.543 1.468.62.619.31 1.624.815 1.972-.077-.155-.31.232-1.707.58-2.405-1.16-4.538-.502-6.167-2.706-10.55-1.546-.97-4.523-3.22-6.146-3.725 2.242-3.064 3.44-5.702 5.025-8.804.773-1.514 1.623-3.143 2.744-4.966 1.199-.698 2.745.465 3.711 1.319.426 1.435 1.238 2.405 1.624 3.647v.038c0 .155-.155.31-.155.31l-2.744 1.513-1.353 2.56 2.049 2.987c.386.155.386.465.657.582l.58.504c.348-.272.502-.272.657-.272.387.155.657-.077.387.35 0 2.365 1.004 4.344 2.164 6.284 1.314 1.125 1.237 2.444 2.126 2.948.773-.077 1.546-.349 2.088-.931.154-1.94.078-3.608.078-5.625-.156-.388.231-1.241.54-1.55 0 .154.271.309.426.464 1.237 1.784 1.932 3.297 3.866 5.082.85.93 1.816 2.56 3.285 2.637.31.273.773.426 1.005.97l-.309.776c-.464 0-.387.62-1.16 1.163-1.082 4.423 1.276 9.116 2.977 13.733.657 1.784 1.237 3.569 1.468 5.313 1.122 1.63 1.353 3.569 1.198 5.393.542 2.094.85 3.917 1.895 5.934.31 3.298.927 5.935.387 9.233-2.59 3.684 1.16 7.99.927 12.14 1.315 1.63 3.673 1.165 5.142 2.6.772.27 1.817 1.24 2.744.465-.348-3.22-2.436-7.447-2.358-10.977-1.083-4.073-1.779-7.448-2.436-11.172.58-1.668-.076-3.375-.424-5.043-.31-1.086.27-2.095-.155-3.18-.194-3.414-.387-7.1-.31-10.706.04-3.298.31-6.595.967-9.66.27-.465.425-.465.889-.698 2.396-.853 4.06-3.452 6.456-3.297 0 0 .541 10.047.618 9.58.116 1.281.232 2.64.348 3.996.541 6.75.773 14.16.773 14.16-.27 0-.425.387-1.005.465-1.082 1.784-4.445 2.173-5.025 4.926.077.776-.31 1.707.425 2.017 1.547.388 2.706-1.086 3.943-1.94.078-.309.967-.465 1.546-.388.04.311.04.622.04 1.087-.852 1.978-2.823 2.133-4.447 3.22-.27.31-.27 1.085-.193 1.707.967 1.434 2.59 2.753 4.523 3.607 6.03-1.32 11.52-6.866 18.671-7.99 3.518-1.01 4.291-4.695 7.654-6.014l8.737-3.219c.154-.155.154-.155.154-.31l-.077-1.087-5.22-2.831c-.462-.389-.076-1.241.117-1.707.502-.388 1.044-.232 1.663-.232 1.236.077 2.164 1.24 2.59 1.861.154-.077.154-.077.347-.077l.89-.543c.309-.155.232-.931-.156-1.707-.927-2.095-2.976-3.298-4.986-4.926a9.005 9.005 0 0 1-.966-.816c-.31-.93-1.47-2.444-1.005-3.375 2.435-.813 4.6 2.213 6.455 3.066.348.077 1.276.232 1.199-.233.154-.388.541-.699.541-.854-.31-.892-1.005-1.862-1.469-2.444Z" fill="#4D2B1A"/><path d="M111.728 91.108h.1c.41-.279.896-.417 1.368-.55.771-.218 1.44-.408 1.647-1.15-.14-.43-.353-.736-.559-1.032-.285-.41-.579-.833-.625-1.515-.836-1.084-1.153-2.318-1.352-3.386a23.1 23.1 0 0 1-.244-1.637 46.478 46.478 0 0 0-.106-.818c-.115-.92-.231-1.853-.458-2.724-.235-1.197-.098-2.244.036-3.256.127-.967.248-1.884.037-2.852-.12.056-.264.082-.422.106-.118.884-.37 1.786-.614 2.66-.537 1.919-1.092 3.903-.343 5.934.02.061.047.123.074.185.031.073.063.146.084.21.255.726.325 1.483.361 2.127.032.741-.009 1.5-.047 2.233-.107 2.022-.208 3.933 1.063 5.465Zm.274.539h-.52l-.08-.092c-1.496-1.711-1.383-3.862-1.273-5.94.038-.72.077-1.467.047-2.178-.034-.604-.1-1.314-.332-1.977l-.001-.004a2.658 2.658 0 0 0-.07-.171 2.825 2.825 0 0 1-.086-.218c-.807-2.187-.228-4.257.332-6.259.27-.963.524-1.873.623-2.777l.022-.203.346-.057c.122-.019.284-.044.34-.073-.003-.007-.004-.024-.009-.05l-.231-1.042.519-.137.386 1.28c.338 1.186.193 2.292.052 3.361-.128.97-.26 1.972-.046 3.066.233.89.352 1.84.466 2.761.04.28.075.557.11.835.067.537.135 1.093.237 1.6.191 1.03.496 2.213 1.299 3.22l.055.07.004.09c.018.577.245.903.532 1.316.23.33.49.705.655 1.254l.02.068-.016.07c-.256 1.111-1.204 1.38-2.041 1.616-.476.134-.924.262-1.27.518l-.07.053Zm-54.295 30.84c.775.46 1.502.924 2.265 1.412.509.325 1.024.655 1.566.99a362.73 362.73 0 0 1 1.501-3.366c.282-.626.574-1.252.871-1.89l.385-.826c-1.184.837-2.348 1.436-3.657 2.109-.552.283-1.13.581-1.75.917-.375.202-.759.409-1.181.653Zm4.076 3.183-.263-.16c-.64-.392-1.244-.778-1.837-1.157-.886-.567-1.724-1.102-2.641-1.632l-.396-.229.392-.236a35.934 35.934 0 0 1 1.596-.898c.622-.337 1.204-.636 1.759-.922 1.597-.82 2.976-1.53 4.423-2.697l.413.321c-.28.616-.558 1.214-.832 1.802-.297.635-.588 1.259-.869 1.883a334.856 334.856 0 0 0-1.622 3.643l-.123.282Zm60.034 19.243c-.137 2.596.073 5.6.26 8.27.042.598.082 1.173.116 1.716.02.17.03.365.04.565.009.18.018.365.037.55.036.839.058 1.728.081 2.647.077 2.961.162 6.288.673 8.588.34-.455.678-1.02 1.008-1.57.438-.732.853-1.424 1.277-1.89.343-1.826 1.302-3.247 2.23-4.622.617-.912 1.253-1.855 1.7-2.908-.48-.808-.927-1.59-1.374-2.371-1.845-3.227-3.75-6.561-6.048-8.975Zm.943 23.46-.127-.469c-.641-2.359-.735-6.009-.818-9.23-.023-.915-.046-1.802-.08-2.622a11.926 11.926 0 0 1-.038-.56c-.01-.19-.019-.373-.039-.546-.035-.555-.075-1.13-.116-1.726-.199-2.842-.424-6.064-.233-8.796l.029-.402.742.388c2.398 2.471 4.357 5.897 6.251 9.21.449.784.896 1.568 1.35 2.34.032.038.051.075.062.098l.125.126-.08.153c-.47 1.156-1.148 2.16-1.804 3.133-.953 1.41-1.852 2.74-2.161 4.492l-.014.08-.056.06c-.403.42-.82 1.116-1.26 1.854-.452.753-.919 1.532-1.404 2.06l-.33.357Zm1.598-121.456.231.352a.251.251 0 0 0-.026-.243.245.245 0 0 0-.205-.109ZM52.617 83.503Zm80.569 35.528a9.84 9.84 0 0 0 1.356.555l-1.44-1.445h-.164c-.072.226.113.61.219.83l.029.06ZM112.6 196.498c.192.074.39.178.599.289.71.375 1.229.604 1.716.287-.161-1.302-.596-2.763-1.055-4.306-.652-2.188-1.325-4.45-1.288-6.516-.979-3.682-1.683-6.918-2.43-11.158l-.013-.068.023-.067c.44-1.265.127-2.547-.204-3.905-.08-.332-.162-.664-.23-.994-.156-.541-.1-1.069-.048-1.578.055-.537.108-1.044-.094-1.56l-.018-.082c-.206-3.636-.385-7.192-.31-10.728.042-3.628.37-6.896.972-9.71l.03-.079c.255-.434.446-.54.789-.7.063-.03.133-.063.213-.103.974-.349 1.82-.982 2.638-1.594 1.2-.9 2.431-1.83 3.955-1.73l.238.015.013.239c.196 3.634.516 9.17.597 9.529l-.155.035.176.007c.116 1.28.232 2.639.348 3.996.536 6.681.771 14.1.774 14.174l.009.278h-.278c-.026 0-.107.06-.166.105a1.62 1.62 0 0 1-.676.335c-.484.724-1.288 1.21-2.136 1.725-1.203.728-2.447 1.481-2.781 2.974.02.24.001.48-.015.713-.046.623-.034.91.273 1.039 1.008.248 1.872-.462 2.79-1.215.27-.223.55-.453.832-.653.254-.466 1.283-.545 1.799-.479l.204.028.026.206c.042.328.042.643.042 1.12l-.022.107c-.622 1.444-1.817 1.988-2.973 2.515-.515.235-1.047.477-1.536.8-.146.204-.192.757-.118 1.408.943 1.373 2.5 2.615 4.292 3.421 2.694-.607 5.274-2.06 8.003-3.597 3.282-1.849 6.677-3.76 10.599-4.378 1.727-.496 2.764-1.692 3.862-2.959 1.016-1.172 2.066-2.383 3.736-3.038l8.687-3.2a.513.513 0 0 0 .04-.044c-.01.007-.008-.012-.008-.034l-.066-.92-5.088-2.761c-.64-.529-.244-1.475-.031-1.983l.054-.13.057-.044c.467-.361.959-.333 1.43-.304.128.007.26.016.396.016 1.173.072 2.09.982 2.686 1.8.049-.01.1-.015.175-.016l.826-.504c.091-.08.122-.6-.256-1.356-.713-1.61-2.148-2.706-3.667-3.866-.41-.314-.83-.634-1.248-.972a9.103 9.103 0 0 1-.987-.834l-.045-.045-.02-.06c-.084-.255-.246-.573-.416-.909-.451-.888-.962-1.894-.575-2.671l.05-.1.105-.036c1.788-.598 3.4.681 4.82 1.81.64.509 1.246.99 1.807 1.254.486.105.805.084.87.036l-.012-.074.006-.038c.096-.242.258-.445.387-.608a3.15 3.15 0 0 0 .116-.15c-.314-.836-.963-1.73-1.354-2.224-1.17-.582-2.134-1.69-3.154-2.864-1.247-1.435-2.535-2.918-4.248-3.415l-.067-.02-.048-.048c-.193-.193-.234-.258-.234-.502v-.27h.269a.672.672 0 0 0 .101-.037c.12-.05.283-.117.517-.117 1.216-.22 1.85-1.455 2.263-2.506l.058-.097c.103-.157.21-.32.409-.36a.52.52 0 0 1 .396.098l.074.075a.483.483 0 0 1 .464.233c.206.268.382.545.553.814.436.686.72 1.098 1.218 1.186.023-.062.048-.151.06-.227.171-.927-.176-1.61-.878-2.548-1.623-2.054-3.573-4.278-6.118-4.588-1.444-.145-3.362-.516-4.394-1.121l-1.387-1.174-.017-.095c-.018-.098-.052-.196-.084-.293-.081-.24-.173-.514-.048-.757.072-.144.205-.245.394-.304.689-.302 1.192.013 1.637.29.214.134.417.262.645.33.255.123.477.28.712.448.832.59 1.252.791 1.583.434a.87.87 0 0 1 .079-.23c-1.683-4.956-5.681-7.404-9.302-9.31l-.144-.075v-.163a.523.523 0 0 0-.05-.192l-.062-.13.96-1.626 1.476 1.11 1 .86c.512-.104.66-.253.702-.325.044-.567-.082-.842-.255-1.218-.051-.112-.105-.228-.156-.357a3.1 3.1 0 0 0-.66-.788c-.775-.715-1.783-.996-2.949-1.322-.907-.252-1.844-.514-2.799-1.01l-.085-.045-.038-.088a2.84 2.84 0 0 0-.06-.13c-.176-.366-.504-1.046-.086-1.513l.08-.09h.656l1.808 1.814.698.2c.03-.266.088-.609.181-.875-.12-.25-.177-.504-.237-.77-.074-.331-.151-.674-.36-1.056l-.023-.055c-.473-1.64-1.772-2.89-3.31-3.185l-.231-.044.012-.235c.107-1.95-.504-3.77-1.095-5.531-.671-1.998-1.365-4.063-.956-6.26a1.119 1.119 0 0 0-.178-.37c-.221.11-.488.11-.634.11l-.484.025-.491 6.718-.93 1.08-.187-.094a2.125 2.125 0 0 0-.388-.144c-.133-.04-.274-.082-.45-.161l-.071-.031-.043-.064c-.59-.874-1.06-1.9-1.517-2.891-.863-1.878-1.755-3.82-3.489-4.835a1.17 1.17 0 0 1-.448-.192c-.56-.351-.648-.95-.725-1.478-.023-.159-.045-.316-.083-.465l-.026-.105.054-.094c.134-.236.34-.356.522-.462.08-.047.162-.093.235-.154l.075-.063h.097c.672 0 1.55-.664 1.902-1.43l.189-1.934c.073-.442.394-1.356.943-1.478l.064-.014.063.017c.378.1.688.372.987.634.22.194.429.376.636.465l.076.032.045.072c.144.231.419.295.57.312.305.036.636-.048.853-.204-.157-1.4-.656-2.996-1.347-4.3l-.225-.278c-.388-.492-.824-1.046-1.127-1.338-.754-.088-1.416.197-2.116.5-.551.239-1.12.486-1.73.522l-.13.008-.086-.098c-.342-.387-.136-.816.03-1.161.043-.09.087-.182.123-.275-.302-1.29-.568-2.73-.836-4.522-.04-.416-.088-.819-.136-1.22-.048-.413-.097-.825-.137-1.238-.25-2.507-.388-5.097-.522-7.601-.29-5.413-.564-10.525-1.865-14.963-.262-.935-.674-1.696-1.039-2.366-.51-.938-.951-1.747-.904-2.766l.016-.08c.298-.81.034-1.457-.22-2.082-.171-.42-.334-.816-.298-1.223l.028-.325.313.09c.302.087.538.407.64.67 1.556.134 3.293-.596 4.573-1.135l.347-.146.096.032c.122.041.244.099.369.158.38.181.63.282.96.095l.078-.028c.723-.15 1.011-.834 1.29-1.496.09-.212.175-.413.268-.583l.047-.084.862-.345.053.082c.036-.018.101-.055.194-.125l.076-.04a1.18 1.18 0 0 0 .293-.175c.314-.226.745-.538 1.626-.21l.074.027.048.064c.052.071.12.105.217.112.212.015.478-.118.58-.19.592-1.455 1.663-2.41 3.015-3.615l.046-.04c.07-.749-.147-1.415-.375-2.12-.188-.577-.38-1.174-.407-1.825-.734-.49-1.075-1.248-1.377-1.921-.342-.76-.61-1.359-1.309-1.496l-.069-.023c-.151-.076-.272-.177-.38-.265-.106-.088-.207-.172-.273-.172h-.21l-.266-1.072c-.437-.49-1.125-.964-1.5-1.027-.175-.004-.519-.162-.7-.353-2.17-.944-5.255-.784-7.882.41-.427.263-.901.405-1.32.531-.383.114-.718.214-.917.386l-.352.985c-.018.248-.168.462-.491.706l-.05.038-.063.011c-1.086.205-1.394 1.291-1.328 2.16l.321 2.855-.07.087c-.18.227-.544.27-.93.318-.12.015-.24.03-.352.05l-.138.025-.1-.099c-.525-.527-.824-1.248-1.113-1.944-.385-.93-.75-1.807-1.6-2.234-.323-.105-1.038-.104-1.197.235.003.243.024.54.044.809.017.247.033.472.033.616v.203l-.194.056c-.205.059-.385.123-.55.181-.478.17-.894.319-1.418.142-.74.059-1.273.654-1.837 1.285-.623.695-1.267 1.414-2.265 1.542l-.115.015-.09-.074c-1.703-1.398-4.976-5.577-6.05-7.361-.825-1.798.605-3.014 1.866-4.087.598-.51 1.217-1.036 1.578-1.592l.056-.061c.796-.65 2.212-1.394 3.582-2.113 1.532-.806 3.63-1.908 3.664-2.391l.025-.34.322.101c.413.13.824.266 1.234.402 2.592.86 5.04 1.673 7.922.763 2.18-.847 4.457-1.868 6.09-4.102-.208-.799-.116-1.558.015-2.327-1.071-2.884-2.788-4.581-5.73-5.669l-.067-.035c-.315-.234-.703-.362-1.078-.486-.445-.146-.904-.297-1.232-.627l-.049-.065c-.546-1.048-.495-2.082-.441-3.178.033-.672.067-1.367-.042-2.092-.557-.945-1.04-1.374-1.596-1.41-.186.107-.392.094-.563.086-.203-.012-.298-.009-.37.064-.108.128-.297.205-.548.214-.317.014-.802-.1-.992-.29-.148-.15-.197-.297-.237-.417-.01-.03-.02-.06-.032-.091-.408-.447-1.388-.785-2.334-.81l-1.892 1.825-1.818 1.494-.128-.029c-3.43-.769-6.592-.296-9.666 1.446-.683.441-.751 1.262-.83 2.211-.028.327-.056.664-.111 1.004.547 2.861 2.227 4.378 4.004 5.984.689.622 1.4 1.265 2.032 1.988l.05.082c.244.653.02 1.161-.198 1.651l-.136.265c-.81.801-1.571 1.592-2.307 2.357-1.86 1.93-3.617 3.756-5.807 5.401-.348.465-.761.832-1.161 1.187-.883.783-1.645 1.46-1.546 2.987.292 4 1.967 8.007 4.368 10.457l.053.076c.434.943 1.004 1.432 1.664 1.999.348.299.743.637 1.149 1.072.361.55.712.96 1.052 1.356.162.189.32.372.469.56l.047.092c.906 3.032.553 6.475.212 9.805-.501 4.89-.974 9.508 2.093 13.1.646.947.313 1.68-.009 2.39l-.066.145c-.785 1.16-.941 2.734-1.091 4.257-.04.39-.077.772-.124 1.137l-.035.269-.269-.038c-.605-.084-1.188-.243-1.752-.396-1.248-.337-2.427-.656-3.63-.128l-.088.038-.092-.025c-.575-.16-.846-.568-1.084-.928-.103-.154-.2-.3-.318-.43-3.137-3.967-8.23-4.05-13.157-4.13-1.936-.032-3.764-.06-5.435-.324l-.09-.014-1.153-1.203.072-.165c1.53-3.54 2.147-6.98 1.834-10.224-.001-1.39-.334-2.745-.686-4.181-.16-.653-.325-1.327-.47-2.036-.299-1.403-1.13-2.376-2.011-3.407-.428-.5-.87-1.017-1.281-1.612-.422-.284-.903-.4-1.41-.523-.345-.084-.701-.171-1.05-.314-2.942-1.04-6.06-1.934-8.857-.438-1.41.54-2.034 1.864-2.758 3.395-.482 1.022-.982 2.078-1.762 3.017-1.618 2.084-3.46 4.453-1.743 8.012l.049.1-.037.106c-.165.472-.321.93-.473 1.38-.518 1.521-1.006 2.959-1.72 4.459-.041.523-.147 1.046-.258 1.599-.118.587-.24 1.194-.28 1.8-.15.678-.417 1.426-.7 2.218-.574 1.612-1.225 3.44-.792 4.305a.876.876 0 0 0 .63.47c.018.004.045.012.055.013l.208.013.055.206c.143.759.17 1.581.08 2.444-.074.699-.21 1.354-.34 1.988-.074.363-.147.714-.203 1.054-.107.824-.121 1.634-.135 2.418-.015.883-.03 1.718-.175 2.514l-.005.028c.397.325.932.826.73 1.334.412 1.123.038 2.347-.324 3.532-.37 1.21-.72 2.354-.22 3.28.049.018.093.042.135.065l.064.033c1.27-.881 1.808-2.349 2.378-3.901.696-1.898 1.416-3.86 3.57-4.72 1.43-2.052 1.75-4.98 2.032-7.565a.332.332 0 0 1 .041-.14l.006-.021c.222-.778.222-1.516.222-2.37l-.001-.343c-.006-1.359-.012-2.763.761-4.39 1.53-2.421 2.362-5.836 3.033-9.169l.028-.137.128-.056a8.922 8.922 0 0 1 2.2-.603l.185-.023 1.863 3.538c.118.309.239.512.379.746.157.264.334.563.523 1.025.133.551.277 1.032.415 1.497.298 1 .605 2.034.686 3.36l.004.057-.02.054c-.244.653-.887 1.158-1.632 1.742-.422.331-.857.674-1.252 1.07-.27.4-.8 1.023-1.54 1.816a4.615 4.615 0 0 1-.431.472c-.61.655-1.106 1.29-1.51 1.931-.463.641-.891 1.324-1.345 2.047-.15.238-.3.48-.454.72-.193.565-.386 1.123-.578 1.679-.82 2.372-1.593 4.614-2.307 7.197-.372 1.996-.11 4.272.723 6.222.184.724.522 1.391.85 2.036.392.775.798 1.575.938 2.437a33.383 33.383 0 0 1 2.077 3.98l.038.09-.026.093c-.454 1.616-.944 2.08-2.343 3.093-.976.724-1.572 1.392-2.326 2.237-.615.689-1.311 1.47-2.4 2.512-1 .794-2.36 2.2-3.236 3.812-.556.97-1.146 2.435-.833 3.962 1 1.694 2.76 2.143 4.62 2.618.89.227 1.81.46 2.658.842 2.582 1.182 4.876 1.941 7.394 2.743l.31.1-1.89 3.476c-.178.205-.362.781-.138 1.53l.048.161-.123.114a.777.777 0 0 0-.269.606c.003 1.351 2.588 3.726 5.324 6.24 2.687 2.47 5.734 5.27 7.099 7.8.64 1.79 1.3 3.06 2.097 4.031.541.627 1.06 1.078 1.63 1.413l.216.128-.95 1.906c-.271 1.125.467 1.954 1.18 2.756.33.369.64.717.85 1.09.883 1.698 1.712 3.294 3.842 4.514.539.254.999-.176 1.292-.593 1.506-3.755.326-7.584-.715-10.963l-.567-1.932A1773.334 1773.334 0 0 0 68.95 141.7c-1.202-1.33-1.395-2.83-.579-4.574a.347.347 0 0 1 .047-.232.373.373 0 0 1 .317-.169l.106.023c.335.144.45.208.523.417.013.036.028.079.09.162.198.109.408.248.629.394.784.52 1.674 1.11 2.62.766l.077-.028.079.02c.533.133.837.536.738.98l-.021.097-.08.059h.001c.003 0-.048.06-.048.212v.084l-.048.069c-.355.515-.451.785-.563 1.098-.094.265-.2.564-.47 1.03.039 1.125 1.001 1.817 2.019 2.55.682.49 1.387.999 1.796 1.657.269.101.441.214.583.307.202.133.348.23.732.268l.094.027c.371.186.995.499 1.34.364a.429.429 0 0 0 .227-.223c-.102-.565.32-1.843.58-2.41-.407-1.612-.588-2.873-.749-3.988-.292-2.026-.523-3.631-1.88-6.348-.41-.26-.913-.602-1.46-.975-1.521-1.035-3.414-2.323-4.559-2.68l-.36-.112.223-.304c1.88-2.57 3.048-4.892 4.285-7.35.234-.463.471-.935.718-1.419.77-1.507 1.617-3.134 2.755-4.984l.035-.057.059-.034c1.504-.877 3.4.8 4.023 1.35l.058.051.022.074c.216.73.54 1.345.854 1.938.297.563.578 1.094.768 1.705l.012.08c0 .293-.194.5-.233.54l-.06.045-2.675 1.474L80.335 126l1.914 2.79c.23.113.347.273.434.393.063.087.099.134.151.157l.07.043.42.366c.28-.181.458-.2.64-.2l.1.02a.766.766 0 0 0 .265.046c.104.006.28.014.365.18.082.157.008.315-.073.45.023 2.34 1.092 4.338 2.103 6.032.706.617 1.03 1.293 1.29 1.837.213.444.384.801.69 1.009.539-.065 1.244-.254 1.766-.771.106-1.394.093-2.67.079-4.016-.005-.468-.01-.946-.01-1.446-.165-.55.303-1.47.62-1.786l.458-.46v.65c.01-.01.108.069.166.117.064.052.128.105.18.157.35.497.634.94.912 1.374.789 1.233 1.534 2.397 2.946 3.7.193.21.375.433.564.666.705.865 1.504 1.846 2.554 1.902l.093.004.07.062c.081.071.174.132.27.197.271.182.609.409.805.87l.044.101-.418 1.05h-.182c-.07 0-.097.021-.24.256-.132.22-.311.514-.682.796-.842 3.614.678 7.51 2.148 11.278.286.735.573 1.47.842 2.202.589 1.597 1.222 3.473 1.475 5.307.98 1.457 1.388 3.296 1.211 5.47.102.394.196.778.288 1.157.385 1.585.749 3.082 1.574 4.676l.03.1c.073.786.164 1.535.253 2.264.282 2.31.548 4.49.13 7.037l-.01.061-.035.05c-1.502 2.137-.758 4.509.03 7.02.5 1.594 1.017 3.24.952 4.873.634.731 1.521.983 2.46 1.247.892.253 1.814.514 2.553 1.211Zm1.822 1.262c-.535 0-1.053-.274-1.474-.497-.21-.11-.41-.216-.582-.277l-.099-.061c-.647-.633-1.482-.869-2.367-1.119-1.008-.285-2.05-.58-2.796-1.503l-.064-.081.005-.104c.088-1.57-.425-3.207-.922-4.789-.787-2.507-1.601-5.099.008-7.44.39-2.446.131-4.573-.143-6.825-.088-.718-.178-1.454-.251-2.227-.839-1.635-1.206-3.148-1.596-4.75-.095-.39-.191-.787-.297-1.195l-.011-.044.004-.046c.177-2.093-.21-3.848-1.151-5.217l-.037-.053-.009-.064c-.24-1.804-.87-3.67-1.454-5.256-.269-.73-.554-1.46-.84-2.192-1.512-3.88-3.077-7.892-2.145-11.698l.024-.099.082-.058c.336-.236.485-.48.616-.697.12-.196.252-.414.506-.489l.208-.522c-.137-.25-.345-.39-.563-.537a3.913 3.913 0 0 1-.254-.18c-1.24-.115-2.131-1.21-2.85-2.093-.183-.224-.358-.44-.529-.626-1.446-1.333-2.21-2.526-3.018-3.789a42.41 42.41 0 0 0-.87-1.32 4.525 4.525 0 0 1-.21-.168c-.205.343-.357.824-.287 1l.02.1c0 .515.005 1.006.01 1.485.014 1.39.028 2.705-.089 4.161l-.007.094-.064.069c-.53.57-1.31.92-2.257 1.015l-.085.008-.074-.042c-.498-.282-.732-.77-.98-1.287-.255-.534-.544-1.14-1.188-1.69l-.056-.067c-1.066-1.782-2.203-3.895-2.203-6.422v-.037a1.103 1.103 0 0 1-.165-.043c-.102.003-.206.028-.445.214l-.174.136-.719-.624a.933.933 0 0 1-.33-.314c-.08-.11-.139-.19-.28-.246l-.075-.03-2.187-3.189 1.467-2.775 2.775-1.53a.286.286 0 0 0 .056-.099c-.164-.52-.433-1.029-.718-1.568-.316-.598-.642-1.215-.872-1.962-1.436-1.255-2.51-1.67-3.285-1.27-1.109 1.809-1.94 3.406-2.697 4.887-.246.483-.483.954-.716 1.416-1.2 2.386-2.337 4.644-4.12 7.134 1.219.49 2.942 1.663 4.352 2.623.57.389 1.091.743 1.508 1.005l.064.04.033.067c1.426 2.836 1.676 4.571 1.966 6.58.161 1.123.345 2.396.76 4.026l.026.097-.045.09c-.356.713-.657 1.938-.577 2.169l.053.107-.046.106c-.118.302-.31.506-.57.606-.55.212-1.25-.123-1.728-.364-.48-.056-.705-.204-.923-.347a2.11 2.11 0 0 0-.554-.28l-.098-.033-.05-.09c-.342-.6-1-1.073-1.696-1.574-1.103-.795-2.244-1.616-2.244-3.059v-.074l.037-.063c.272-.46.37-.736.466-1.003.114-.322.223-.627.583-1.16a.835.835 0 0 1 .161-.454c-.011-.14-.182-.223-.28-.26-1.166.37-2.186-.306-3.01-.853-.229-.151-.445-.295-.635-.394l-.085-.07a1.142 1.142 0 0 1-.207-.356c-.728 1.548-.568 2.82.5 4.002 3.138 3.955 6.743 8.506 9.947 12.623l.045.09.58 1.978c1.07 3.47 2.284 7.406.688 11.349l-.028.05c-.57.832-1.298 1.12-1.997.79-2.286-1.309-3.15-2.973-4.067-4.735-.178-.314-.47-.642-.778-.988-.775-.87-1.654-1.859-1.293-3.277l.02-.054.74-1.485c-.537-.35-1.036-.8-1.553-1.398-.841-1.027-1.531-2.348-2.177-4.16-1.304-2.413-4.315-5.18-6.972-7.62-2.948-2.71-5.494-5.05-5.497-6.638-.001-.337.108-.633.324-.882-.2-.816-.019-1.508.27-1.86l1.532-2.831c-2.414-.772-4.642-1.523-7.143-2.667-.804-.36-1.701-.59-2.569-.811-1.9-.485-3.864-.986-4.974-2.906l-.03-.078c-.291-1.354.013-2.87.88-4.381.912-1.678 2.33-3.144 3.352-3.956 1.056-1.01 1.745-1.783 2.353-2.464.774-.869 1.386-1.554 2.409-2.313 1.35-.978 1.726-1.36 2.117-2.712a32.82 32.82 0 0 0-2.032-3.874l-.036-.1c-.12-.796-.496-1.54-.895-2.327-.341-.672-.693-1.367-.878-2.11-.86-2.005-1.135-4.394-.738-6.514.723-2.623 1.5-4.872 2.322-7.253.195-.565.391-1.132.587-1.706l.028-.059c.159-.249.315-.498.47-.745.458-.73.891-1.42 1.356-2.06.412-.657.927-1.317 1.567-2.005.158-.159.302-.303.406-.443.742-.796 1.254-1.4 1.54-1.815.449-.456.898-.808 1.332-1.15.659-.516 1.23-.964 1.44-1.455-.083-1.235-.364-2.18-.661-3.178-.14-.472-.286-.961-.41-1.487a6.66 6.66 0 0 0-.476-.913c-.146-.247-.285-.48-.405-.8l-.526-.976-1.15-2.2c-.556.089-1.24.277-1.742.481-.677 3.34-1.522 6.75-3.062 9.183-.705 1.486-.699 2.828-.693 4.126v.346c0 .85 0 1.653-.235 2.495a.417.417 0 0 1-.04.121c-.294 2.695-.631 5.704-2.171 7.86l-.048.065-.075.029c-1.985.757-2.64 2.542-3.334 4.432-.588 1.603-1.197 3.26-2.684 4.23l-.067.044h-.08a.776.776 0 0 1-.37-.118c-.026-.014-.065-.035-.08-.04h-.15l-.053-.125c-.705-1.15-.291-2.503.11-3.812.346-1.135.706-2.31.296-3.285l-.056-.133.08-.12c.136-.205-.486-.7-.69-.863-.244-.194-.419-.333-.303-.557.067-.13.18-.162.302-.152.096-.674.109-1.394.121-2.15.014-.798.029-1.624.14-2.486.06-.358.133-.715.21-1.084.127-.622.26-1.265.331-1.936a8.022 8.022 0 0 0-.042-2.103l-.04-.015c-.411-.126-.712-.372-.891-.73-.537-1.07.125-2.93.766-4.729.277-.776.538-1.51.676-2.114.035-.6.161-1.224.283-1.829.111-.554.217-1.077.253-1.582l.025-.097c.712-1.488 1.2-2.925 1.717-4.447.142-.417.286-.842.439-1.278-1.778-3.806.235-6.397 1.856-8.482.742-.895 1.227-1.92 1.695-2.91.741-1.57 1.441-3.05 3.021-3.655 2.959-1.583 6.337-.612 9.27.424.323.133.645.211.985.294.549.133 1.116.27 1.63.632l.068.068c.403.589.846 1.107 1.274 1.609.927 1.083 1.801 2.108 2.13 3.646.143.702.307 1.37.465 2.018.36 1.468.7 2.855.7 4.284.317 3.26-.291 6.732-1.806 10.3l.78.814c1.61.244 3.39.273 5.271.303 4.817.079 10.275.167 13.557 4.32.134.146.247.316.357.48.205.31.37.56.696.68 1.343-.548 2.637-.197 3.89.142.462.125.938.254 1.418.34.032-.275.06-.558.088-.846.15-1.516.32-3.234 1.16-4.466l.044-.106c.318-.703.53-1.166.072-1.84-3.2-3.743-2.693-8.694-2.202-13.482.333-3.258.678-6.627-.177-9.545-.136-.169-.278-.335-.425-.505-.35-.41-.713-.832-1.065-1.376-.357-.376-.723-.69-1.077-.994-.67-.574-1.302-1.117-1.783-2.14-2.47-2.539-4.188-6.658-4.489-10.764-.115-1.793.82-2.624 1.726-3.428.388-.345.79-.7 1.109-1.134l.055-.056c2.17-1.627 3.92-3.444 5.774-5.369.727-.755 1.48-1.536 2.28-2.33l.06-.135c.19-.43.34-.773.2-1.2-.603-.682-1.29-1.302-1.954-1.903-1.775-1.603-3.61-3.26-4.182-6.332l-.009-.047.009-.047c.056-.333.085-.676.112-1.006.084-1.001.17-2.036 1.089-2.628 3.17-1.797 6.416-2.298 9.933-1.538l1.6-1.315 2.033-1.961h.108c1.175 0 2.356.421 2.872 1.025l.036.055c.032.064.054.127.075.19.03.091.048.147.106.206.133.106.68.193.767.092.264-.266.572-.25.794-.237.12.007.234.013.278-.025l.076-.065h.099c1.024 0 1.67.872 2.165 1.724l.033.093c.127.799.091 1.539.056 2.253-.05 1.007-.096 1.958.361 2.863.24.222.605.342.992.47.386.127.821.27 1.2.54 3.064 1.142 4.926 3.006 6.038 6.042l.024.069-.013.07c-.16.925-.212 1.594-.007 2.282l.038.127-.076.107c-1.723 2.428-4.219 3.545-6.423 4.4-3.067.97-5.71.09-8.268-.758-.327-.109-.653-.217-.98-.322-.38.665-1.768 1.422-3.848 2.515-1.328.698-2.7 1.419-3.46 2.028-.406.607-1.043 1.148-1.658 1.671-1.224 1.042-2.38 2.026-1.74 3.425.917 1.52 4.092 5.643 5.826 7.12.74-.143 1.266-.73 1.821-1.35.626-.699 1.273-1.422 2.263-1.466l.055-.002.051.02c.368.137.646.038 1.108-.126.118-.042.243-.087.379-.13-.006-.112-.016-.243-.026-.38-.022-.3-.045-.635-.045-.897l.014-.086c.262-.787 1.383-.777 1.924-.597 1.066.532 1.486 1.545 1.892 2.524.26.63.509 1.228.904 1.672l.238-.031c.149-.018.375-.046.5-.086l-.29-2.59c-.083-1.083.315-2.427 1.7-2.726.231-.184.231-.261.231-.291l.016-.09.45-1.186c.288-.291.724-.421 1.185-.56.406-.12.826-.247 1.223-.489 2.808-1.28 6.096-1.433 8.405-.404l.064.029.041.056c.067.09.29.199.366.202.62.1 1.442.717 1.904 1.258l.041.048.206.828c.153.056.28.16.396.256.084.07.164.136.25.184.941.204 1.304 1.012 1.655 1.794.3.67.612 1.362 1.289 1.76l.132.078v.154c0 .625.187 1.2.385 1.81.245.758.5 1.543.386 2.451l-.013.101-.198.177c-1.318 1.175-2.359 2.102-2.898 3.473l-.06.092c-.147.146-.608.409-1.033.375a.814.814 0 0 1-.552-.259c-.566-.193-.796-.026-1.06.166-.12.086-.243.174-.393.232-.141.106-.397.284-.597.192l-.423.17c-.068.135-.132.288-.2.448-.297.706-.665 1.582-1.636 1.804-.574.303-1.06.072-1.416-.098-.074-.035-.146-.07-.218-.1l-.156.066c-1.377.579-3.262 1.37-4.994 1.157l.026.065c.262.643.589 1.443.243 2.431-.027.85.375 1.59.84 2.443.378.696.807 1.484 1.084 2.475 1.317 4.495 1.593 9.638 1.885 15.083.134 2.498.272 5.082.52 7.578.04.41.088.818.136 1.226.049.406.097.812.136 1.22.27 1.797.538 3.244.844 4.54l.018.074-.025.073a3.5 3.5 0 0 1-.174.408c-.114.237-.167.37-.16.463.457-.062.907-.257 1.38-.462.762-.331 1.549-.673 2.49-.528l.08.013.06.054c.336.303.82.918 1.247 1.46l.25.317c.773 1.448 1.305 3.182 1.45 4.68l.012.127-.09.09c-.323.325-.864.495-1.386.436-.393-.045-.714-.218-.915-.49-.254-.127-.482-.326-.702-.52-.238-.208-.465-.406-.694-.494-.164.11-.408.57-.48 1l-.211 2.041c-.406.936-1.448 1.733-2.316 1.788-.074.054-.153.1-.232.146a1.195 1.195 0 0 0-.27.19c.026.128.045.26.064.393.069.472.128.88.485 1.104a.632.632 0 0 0 .255.114l.122.035c1.914 1.093 2.851 3.133 3.757 5.104.455.99.886 1.927 1.43 2.75.12.048.22.077.315.106.09.027.182.054.284.094l.546-.636.513-7.014.971-.051c.101 0 .367 0 .443-.077l.08-.078h.11c.466 0 .733.76.733.967-.403 2.122.242 4.043.925 6.075.584 1.74 1.187 3.539 1.132 5.503 1.626.403 2.98 1.747 3.49 3.486.235.438.323.827.4 1.17.063.28.117.522.24.739l.068.118-.055.125c-.13.293-.21.9-.21 1.131v.148c.979.284 1.89.611 2.62 1.284.314.27.596.612.788.96.062.15.112.259.16.363.187.408.365.795.298 1.537l-.016.07c-.135.362-.545.595-1.25.715l-.125.021-1.178-1.014-.984-.74-.515.872a.967.967 0 0 1 .03.112c3.709 1.961 7.773 4.503 9.476 9.67l.044.133-.084.113a.308.308 0 0 0-.062.155l-.005.085-.054.076c-.708.898-1.663.22-2.36-.275-.218-.155-.424-.301-.599-.39-.254-.071-.508-.23-.732-.37-.453-.284-.73-.434-1.166-.244-.089.03-.105.047-.105.048-.018.046.044.228.08.337.03.089.06.18.083.27l1.206 1.026c.75.435 2.393.848 4.144 1.024 2.753.334 4.79 2.65 6.485 4.794.778 1.041 1.186 1.858.981 2.97-.052.31-.18.687-.496.687-.886-.068-1.313-.739-1.764-1.45-.165-.258-.334-.525-.536-.79-.098-.009-.257-.01-.399-.153-.02.028-.042.063-.06.09l-.017.025c-.464 1.176-1.192 2.55-2.705 2.816a.928.928 0 0 0-.186.022c1.736.6 3.015 2.072 4.253 3.499.999 1.149 1.942 2.234 3.038 2.76l.093.074c.422.528 1.178 1.558 1.513 2.523l.015.089c0 .168-.11.307-.252.484-.1.126-.214.267-.284.416a.477.477 0 0 1-.149.358c-.225.215-.69.245-1.38.091l-.054-.018c-.628-.288-1.267-.796-1.944-1.333-1.342-1.067-2.732-2.168-4.2-1.756-.174.54.243 1.359.612 2.086a8.5 8.5 0 0 1 .426.921c.28.276.595.521.894.747.421.341.837.658 1.243.968 1.576 1.204 3.064 2.34 3.828 4.064.325.651.449 1.309.317 1.704a.58.58 0 0 1-.288.354l-.933.572h-.076c-.13 0-.13 0-.228.049l-.208.103-.133-.192c-.52-.761-1.358-1.681-2.386-1.745a10.882 10.882 0 0 1-.41-.017c-.401-.024-.723-.042-1.017.154-.16.381-.451 1.084-.162 1.326l5.304 2.87.088 1.236c0 .262-.04.326-.232.519l-.097.063-8.737 3.22c-1.541.604-2.503 1.713-3.521 2.887-1.101 1.27-2.24 2.583-4.152 3.13-3.859.61-7.21 2.497-10.451 4.323-2.795 1.573-5.434 3.06-8.237 3.673l-.085.019-.08-.035c-1.938-.856-3.629-2.206-4.637-3.703l-.036-.054-.008-.063c-.066-.531-.12-1.486.257-1.919l.053-.047c.535-.357 1.1-.615 1.647-.864 1.145-.521 2.136-.973 2.68-2.188 0-.319-.001-.56-.016-.78-.493-.019-.975.122-1.048.222l-.024.1-.077.039c-.286.197-.566.427-.862.67-.978.805-1.99 1.638-3.298 1.308-.734-.306-.682-1.016-.64-1.587a3.95 3.95 0 0 0 .013-.664l-.004-.041.008-.041c.369-1.748 1.786-2.607 3.037-3.364.831-.503 1.616-.978 2.022-1.647l.067-.11.126-.017c.262-.036.409-.147.552-.255.066-.05.136-.101.214-.142-.042-1.248-.281-7.897-.766-13.939a759.42 759.42 0 0 0-.347-3.993l.018-.001c-.148-.6-.26-2.598-.624-9.34-1.213.02-2.259.804-3.363 1.63-.85.636-1.727 1.294-2.749 1.657-.053.03-.128.064-.194.096-.274.128-.365.17-.531.448-.59 2.769-.91 5.985-.95 9.563-.076 3.505.101 7.035.306 10.645.23.622.17 1.206.112 1.77-.05.48-.097.934.034 1.393.073.344.152.67.232.996.33 1.352.67 2.75.212 4.143.743 4.204 1.445 7.42 2.419 11.081l.01.037-.001.039c-.044 1.991.62 4.226 1.264 6.388.484 1.628.942 3.165 1.092 4.554l.016.144-.11.092c-.312.26-.634.356-.95.356Z" fill="#4D2B1A"/><path d="M122.042 191.301c.077-.31.27-.582.502-.853.426-.427.927-.621 1.546-.621.58 0 1.083.194 1.508.62.27.272.425.545.541.854h-.31a1.752 1.752 0 0 0-.424-.66c-.387-.349-.812-.543-1.315-.543-.503 0-1.005.194-1.353.544-.193.194-.31.427-.425.66h-.27" fill="#FFF"/><path d="M126.527 191.57h-.891l-.062-.184a1.48 1.48 0 0 0-.359-.554c-.348-.314-.71-.464-1.125-.464-.439 0-.873.173-1.163.464-.165.166-.271.38-.374.59l-.074.149h-.78l.082-.335c.096-.384.336-.702.559-.964.484-.486 1.052-.715 1.75-.715.664 0 1.236.236 1.698.7.274.276.46.57.602.95l.137.364" fill="#4D2B1A"/><path d="M123.394 191.301v-.155c0-.116-.038-.271-.077-.271-.077-.079-.116-.117-.232-.117v-.116h1.121c.232 0 .464.077.58.194.116.116.193.233.193.427v.038h-.463c0-.155 0-.271-.116-.349a.514.514 0 0 0-.387-.156c-.039 0-.117.04-.271.079v.426h-.348" fill="#FFF"/><path d="M124.979 191.57h-.732v-.269c0-.05 0-.12-.007-.14-.07-.059-.136-.117-.23-.094v.504h-.884v-.425a.424.424 0 0 0-.011-.093.273.273 0 0 0-.036-.034h-.269l.007-.647h1.39c.307 0 .602.105.77.274a.82.82 0 0 1 .27.617v.27l-.268.038" fill="#4D2B1A"/><path d="M121.926 191.961c0-.234.038-.466.116-.66h.27a1.976 1.976 0 0 0-.116.66h-.27" fill="#FFF"/><path d="M122.464 192.23h-.807v-.269c0-.276.047-.538.135-.76l.068-.169h.825l-.118.355a1.68 1.68 0 0 0-.103.574v.27" fill="#4D2B1A"/><path d="M123.394 191.961v-.66h.348v.466a.386.386 0 0 0 .154.039.861.861 0 0 0 .504-.156c.116-.116.116-.194.116-.349h.463a.54.54 0 0 1-.116.349.828.828 0 0 1-.463.156l.116.155h-.464l-.078-.078h-.232v.078h-.348" fill="#FFF"/><path d="M125.05 192.23h-1.924v-1.198h.884v.489a.548.548 0 0 0 .24-.095c-.003-.004-.003-.004-.003-.125v-.269h1v.27a.805.805 0 0 1-.16.497l-.074.075a1.537 1.537 0 0 1-.159.092l.197.265" fill="#4D2B1A"/><path d="M125.946 191.961c0-.234-.039-.427-.117-.66h.31c.077.194.116.426.116.66h-.31" fill="#FFF"/><path d="M126.523 192.23h-.846v-.269a1.68 1.68 0 0 0-.103-.574l-.117-.355h.864l.067.17c.088.22.135.483.135.76v.269" fill="#4D2B1A"/><path d="M121.926 191.961V192c0 .582.193 1.087.618 1.513.426.427.927.582 1.546.582.58 0 1.083-.155 1.508-.582.425-.426.657-.931.657-1.513v-.038h-.31V192c0 .466-.193.932-.54 1.32-.387.348-.812.503-1.315.503-.503 0-1.005-.155-1.353-.504-.348-.387-.541-.853-.541-1.319v-.038h-.27" fill="#FFF"/><path d="M124.09 194.363c-.735 0-1.287-.21-1.736-.66a2.333 2.333 0 0 1-.697-1.704v-.27l.269-.037h.538v.27c0 .432.168.837.473 1.176.263.264.676.415 1.153.415.446 0 .807-.139 1.135-.435.284-.319.452-.724.452-1.119v-.27l.269-.037h.577v.27c0 .679-.248 1.252-.735 1.741-.442.444-.998.66-1.698.66" fill="#4D2B1A"/><path d="M123.394 191.961v.543c0 .156-.038.271-.077.31a.636.636 0 0 1-.232.117v.076h1.005v-.076c-.154-.04-.232-.079-.27-.117-.038 0-.078-.154-.078-.31v-.543h-.348" fill="#FFF"/><path d="M124.359 193.277h-1.542v-.54l.182-.061a.836.836 0 0 0 .125-.052c-.01-.001.002-.05.002-.12v-.812h.884v.812c0 .048.006.092.012.123.018.008.06.024.134.043l.203.051v.556" fill="#4D2B1A"/><path d="m124.052 191.961.773 1.046h.541v-.076c-.078-.04-.116-.04-.193-.079 0-.038-.116-.115-.155-.192l-.502-.699h-.464" fill="#FFF"/><path d="M125.634 193.277h-.945l-1.171-1.585h1.135l.583.81c.029.045.047.062.063.077l.053.056.002.001c.04.013.08.028.133.055l.147.074v.512" fill="#4D2B1A"/><path d="M126.255 191.999c0 .582-.232 1.087-.657 1.513-.425.427-.928.582-1.508.582-.619 0-1.12-.155-1.546-.582a2.053 2.053 0 0 1-.618-1.513c0-.62.193-1.124.618-1.551.426-.427.927-.621 1.546-.621.58 0 1.083.194 1.508.62.425.428.657.932.657 1.552" fill="#4D2B1A"/><path d="M124.09 189.885c-.616 0-1.094.192-1.505.604-.41.412-.602.892-.602 1.51 0 .585.196 1.067.602 1.472.39.39.854.565 1.505.565.617 0 1.083-.18 1.467-.565.425-.425.64-.92.64-1.472 0-.584-.21-1.078-.64-1.51a1.975 1.975 0 0 0-1.467-.604Zm0 4.267c-.675 0-1.18-.19-1.587-.599a2.099 2.099 0 0 1-.635-1.554c0-.642.207-1.163.635-1.593.429-.429.947-.637 1.587-.637.615 0 1.121.208 1.55.637.452.456.672.977.672 1.593 0 .583-.226 1.107-.673 1.554-.407.409-.899.599-1.549.599Z" fill="#4D2B1A"/><path d="M125.946 191.999c0-.504-.155-.97-.541-1.357-.387-.35-.812-.544-1.315-.544-.503 0-1.005.194-1.353.544-.348.388-.541.853-.541 1.357 0 .466.193.932.541 1.32.348.348.85.503 1.353.503s.928-.155 1.315-.504c.347-.387.54-.853.54-1.319" fill="#FFF"/><path d="M124.09 190.156c-.493 0-.983.197-1.312.527a1.958 1.958 0 0 0-.524 1.316c0 .448.187.902.526 1.28.31.312.777.485 1.31.485.5 0 .906-.155 1.276-.489.335-.374.522-.828.522-1.276 0-.524-.176-.968-.524-1.316-.392-.354-.81-.527-1.274-.527Zm0 3.724c-.564 0-1.059-.185-1.393-.52-.361-.402-.559-.884-.559-1.361 0-.508.192-.99.556-1.396a1.974 1.974 0 0 1 1.396-.563c.495 0 .937.183 1.353.559.373.373.56.844.56 1.4 0 .476-.197.959-.555 1.358a1.915 1.915 0 0 1-1.358.523Z" fill="#4D2B1A"/><path d="M123.085 190.642h1.121c.232 0 .464.077.58.194.116.116.193.233.193.427a.653.653 0 0 1-.116.387.828.828 0 0 1-.463.156l.618.854c.039.077.155.154.155.192.077.04.115.04.193.08v.075h-.541l-.85-1.124h-.233v.62c0 .157.04.311.078.311.038.038.116.078.27.117v.076h-1.005v-.076a.636.636 0 0 0 .232-.117c.039-.039.077-.154.077-.31v-1.358c0-.116-.038-.271-.077-.271-.077-.079-.116-.117-.232-.117v-.116" fill="#4D2B1A"/><path d="M124.854 192.95h.407l-.011-.004a.633.633 0 0 1-.103-.042l-.032-.015v-.037c-.005 0-.03-.024-.046-.04a.542.542 0 0 1-.102-.126l-.68-.938h.113a.764.764 0 0 0 .422-.14c.07-.107.1-.212.1-.345 0-.174-.068-.277-.177-.386-.105-.106-.322-.178-.539-.178l-1.063.005c.094.012.142.057.205.12.1.047.104.32.104.322v1.358c0 .156-.037.293-.094.351a.5.5 0 0 1-.158.095h.75a.5.5 0 0 1-.16-.084c-.105-.048-.106-.349-.106-.362v-.68h.32l.017.024.833 1.102Zm.57.116h-.628l-.017-.023-.834-1.102h-.145v.563a.71.71 0 0 0 .04.252h.004l.017.017c.034.035.117.07.243.101l.044.012v.18h-1.12v-.176l.039-.014c.134-.046.187-.08.209-.103.02-.02.06-.111.06-.27v-1.357a.572.572 0 0 0-.04-.213h-.004l-.016-.017c-.074-.075-.098-.1-.19-.1h-.059v-.232h1.18c.249 0 .493.083.62.21a.62.62 0 0 1 .21.469c0 .16-.039.289-.125.42l-.016.015a.933.933 0 0 1-.389.158l.557.77c.02.037.056.072.086.103.031.031.057.055.07.082.025.012.046.018.067.025.032.012.062.022.105.043l.031.016v.17Z" fill="#4D2B1A"/><path d="M123.742 191.767a.386.386 0 0 0 .154.039.861.861 0 0 0 .504-.156c.116-.116.116-.194.116-.349 0-.155 0-.271-.116-.349a.514.514 0 0 0-.387-.156c-.039 0-.117.04-.271.079v.892" fill="#FFF"/><path d="M123.814 191.728c.058.02.108.02.11.02a.978.978 0 0 0 .529-.147c.102-.091.102-.148.102-.3 0-.162-.004-.243-.102-.3a.56.56 0 0 0-.399-.147c-.01 0-.049.012-.082.022-.04.012-.092.027-.158.043v.809Zm.11.135c-.005 0-.104 0-.204-.045l-.036-.016v-.973l.05-.01c.085-.02.149-.039.196-.053.056-.017.092-.027.124-.027a.69.69 0 0 1 .481.172c.15.087.15.228.15.39 0 .16 0 .257-.15.39-.14.084-.325.172-.612.172Z" fill="#4D2B1A"/></g></svg>