<svg width="200" height="200" xmlns="http://www.w3.org/2000/svg"><g fill="none"><path d="M98.665 64.67L83.212 41.484l15.456-8.918 15.456 8.916L98.665 64.67zm.003 104.29l-15.456-8.915 15.453-23.185 15.46 23.185-15.457 8.915zm74.796-11.75l-36.768-56.447 36.932-56.704 24.609-22.597H-1.005l24.638 22.492 37.004 56.812-36.754 56.422-24.654 22.877h198.85l-24.615-22.856z" fill="#999D9E"/><path d="M105.97 169.145l-7.305 4.214-7.302-4.214-13.577-7.831 20.879-31.322 20.882 31.322-13.577 7.831zM91.363 32.38l7.302-4.212 7.305 4.213 13.577 7.832-20.882 31.325-20.879-31.325 13.577-7.833zm79.16 127.298l-38.372-58.912 38.555-59.198 17.751-16.297H8.82l17.74 16.197 38.625 59.3-38.367 58.893-17.882 16.596h179.442l-17.854-16.58z" fill="#FFF"/><path fill="#16243A" d="M127.603 100.766l40.168-61.673 10.904-10.012h-70.802l17.1 9.864-26.308 39.46-26.302-39.46 17.096-9.864H18.641l10.847 9.902 40.242 61.783-39.975 61.368-11.114 10.312H89.46l-17.096-9.863 26.302-39.458 26.307 39.458-17.1 9.863h70.803l-11.086-10.293-39.986-61.387"/><path d="M181.666 150.512a.548.548 0 0 0-.058-.256.434.434 0 0 0-.2-.19.767.767 0 0 0-.3-.089 3.438 3.438 0 0 0-.382-.02h-.347v1.26h.264c.184 0 .342-.014.474-.04a.75.75 0 0 0 .316-.132.54.54 0 0 0 .177-.217.78.78 0 0 0 .056-.316zm1.925 3.147h-1.41l-1.356-1.643h-.446v1.643h-1.103v-4.475h1.7c.315 0 .568.012.758.036.191.024.38.088.567.187.204.115.355.253.45.415.095.164.142.367.142.609 0 .326-.091.594-.275.805a1.815 1.815 0 0 1-.717.494l1.69 1.929zm.976-2.131c0-.967-.341-1.798-1.027-2.492-.683-.695-1.51-1.042-2.476-1.042-.967 0-1.792.347-2.476 1.042-.684.694-1.027 1.525-1.027 2.492 0 .967.343 1.797 1.027 2.492.684.694 1.51 1.042 2.476 1.042.967 0 1.793-.348 2.476-1.042.686-.695 1.027-1.525 1.027-2.492zm.993 0c0 1.24-.439 2.3-1.318 3.178-.878.878-1.938 1.317-3.178 1.317s-2.3-.439-3.178-1.317c-.878-.878-1.317-1.937-1.317-3.178 0-1.24.44-2.3 1.317-3.178.878-.878 1.938-1.318 3.178-1.318s2.3.44 3.178 1.318c.88.878 1.318 1.938 1.318 3.178z" fill="#999D9E"/></g></svg>