<svg width="200" height="200" xmlns="http://www.w3.org/2000/svg"><g fill-rule="nonzero" fill="none"><path d="M99.67 64.565 84.217 41.378l15.456-8.917 15.456 8.915L99.67 64.565Zm.003 104.29-15.456-8.915 15.453-23.186 15.46 23.186-15.457 8.915Zm74.796-11.751L137.7 100.658l36.932-56.704 24.609-22.598H0l24.638 22.492 37.004 56.812-36.754 56.422L.234 179.96h198.85l-24.615-22.856Z" fill="#999D9E"/><path d="m106.976 169.04-7.306 4.214-7.302-4.214-13.577-7.832 20.879-31.322 20.883 31.322-13.577 7.832ZM92.368 32.275l7.302-4.213 7.306 4.213 13.577 7.833L99.67 71.432 78.791 40.108l13.577-7.833Zm79.16 127.297-38.372-58.912 38.555-59.197 17.752-16.297H9.823l17.741 16.196 38.625 59.3-38.367 58.893L9.94 176.152h179.442l-17.854-16.58Z" fill="#FFF"/><path fill="#16243A" d="m128.608 100.66 40.168-61.673 10.904-10.011h-70.802l17.1 9.863L99.67 78.3 73.368 38.84l17.096-9.863H19.646l10.847 9.901 40.242 61.783-39.975 61.368-11.114 10.313h70.818l-17.096-9.864L99.67 123.02l26.307 39.457-17.1 9.864h70.803l-11.086-10.293-39.986-61.388"/><path d="M182.671 150.406a.548.548 0 0 0-.058-.255.434.434 0 0 0-.2-.19.767.767 0 0 0-.3-.09 3.438 3.438 0 0 0-.382-.019h-.347v1.259h.264c.185 0 .342-.014.474-.04a.75.75 0 0 0 .316-.131.54.54 0 0 0 .177-.217.78.78 0 0 0 .056-.317Zm1.925 3.147h-1.41l-1.356-1.643h-.446v1.643h-1.103v-4.475h1.7c.315 0 .568.012.758.036.191.025.38.088.567.188.204.115.355.253.45.415.095.163.142.366.142.608 0 .326-.091.595-.275.806a1.815 1.815 0 0 1-.717.494l1.69 1.928Zm.976-2.131c0-.966-.341-1.798-1.027-2.492-.683-.694-1.51-1.042-2.476-1.042s-1.792.348-2.476 1.042c-.684.694-1.027 1.526-1.027 2.492 0 .967.343 1.797 1.027 2.493.684.694 1.51 1.041 2.476 1.041.967 0 1.793-.347 2.476-1.041.686-.696 1.027-1.526 1.027-2.493Zm.993 0c0 1.241-.439 2.3-1.318 3.178-.878.879-1.938 1.318-3.178 1.318s-2.3-.44-3.178-1.318c-.878-.878-1.317-1.937-1.317-3.178 0-1.24.44-2.3 1.317-3.178.878-.878 1.938-1.317 3.178-1.317s2.3.44 3.178 1.317c.88.878 1.318 1.938 1.318 3.178Z" fill="#999D9E"/></g></svg>