<svg width="200" height="200" xmlns="http://www.w3.org/2000/svg"><g fill="none" fill-rule="evenodd"><path fill="#00346A" d="M109.702.003v34.18h19.755L99.886 86.179 70.354 34.183h19.633V.003H1.06v34.18h25.445l53.837 93.305v38.334H55.38v34.056h88.928v-34.056h-24.967v-38.305l53.922-93.334h25.363V.003z"/><path d="M115.702 6.006h76.924v22.178h-22.827l-56.458 97.725v45.914h24.967v22.181h-76.93v-22.181h24.963v-45.94l-56.37-97.7H7.062V6.007H83.99v22.178H60.05l39.829 70.14 39.89-70.14h-24.068V6.006zm-2.998 25.178h21.908L99.884 92.252l-34.68-61.068h21.785V3.004H4.06v28.18h24.181l55.1 95.499v42.14H58.38v28.181h82.927v-28.181h-24.964v-42.107l55.187-95.532h24.095V3.004h-82.922v28.18z" fill="#FEFEFE"/><path fill="#00346A" d="M153.422 190.128v3.61h-1.136v-3.61h-1.198v-.97h3.532v.97zm6.795 3.61l-.305-2.198a30.881 30.881 0 0 1-.124-1.008h-.012c-.06.293-.138.608-.227.909l-.74 2.297h-1.18l-.66-2.122a11.269 11.269 0 0 1-.282-1.066h-.008a11.26 11.26 0 0 1-.107 1.05l-.27 2.138h-1.136l.711-4.58h1.427l.748 2.326c.079.256.16.555.221.862h.008c.062-.326.132-.57.219-.845l.777-2.342h1.452l.697 4.579h-1.209"/></g></svg>