<svg width="200" height="200" xmlns="http://www.w3.org/2000/svg"><g fill="none" fill-rule="evenodd"><path d="M191.97 41.441h-23.062l-53.925 77.012v40.262h30.877v25.116H53.965v-25.116h30.878v-40.262L30.918 41.441H7.855V16.325h74.436v25.116H61.578l38.334 54.747 38.335-54.747h-20.713V16.325h74.436v25.116Zm-78.364-29.043v32.97h17.096L99.912 89.34 69.123 45.37H86.22V12.398H3.927v32.97h24.947l52.041 74.324v35.096H50.037v32.97h99.75v-32.97H118.91v-35.096l52.042-74.323h24.946V12.398h-82.292Z" fill="#FFFFFE"/><path d="M114.983 118.453v40.262h30.877v25.116H53.965v-25.116h30.878v-40.262L30.918 41.441H7.855V16.325h74.436v25.116H61.578l38.334 54.747 38.335-54.747h-20.713V16.325h74.436v25.116h-23.062l-53.925 77.012Zm80.915-73.084h-24.946l-52.042 74.323v35.096h30.877v32.97h-99.75v-32.97h30.878v-35.096L28.874 45.369H3.927V12.398H86.22v32.97H69.123l30.79 43.972 30.79-43.971h-17.097V12.398h82.292v32.97ZM109.678 8.47v40.826h13.48L99.912 82.493 76.668 49.296h13.478V8.47H0v40.826h26.829l50.159 71.634v29.93H46.11v40.826h107.605V150.86h-30.878v-29.93l50.159-71.634h26.83V8.47h-90.147Z" fill="#111C2C"/></g></svg>