<svg width="200" height="200" xmlns="http://www.w3.org/2000/svg"><g fill="none" fill-rule="evenodd"><path d="M193.42 37.125h-76.338l-.078 36.005h5.502L110.23 83.667 98.216 73.078h8.448l-.078-35.953H0L.078 73.13h20.787l52.946 46.013v4.444H55.07v38.56h89.73v-38.542l-18.283-.05v-5.202l52.768-45.223h20.519V37.125h-6.385" fill="#110E0C"/><path fill="#FFF" d="M6.448 66.746h16.803l56.944 49.488v13.737H61.452v25.792h76.964V129.97l-18.283-.05v-14.505l56.791-48.67h16.495V43.509h-69.966l-.052 23.237h16.342l-29.57 25.381L81.32 66.695h18.947l-.05-23.186H6.397l.05 23.237"/><path d="M126.892 46.956l-.035 16.343h22.196l-38.909 33.398-37.95-33.45h24.617l-.036-16.291H9.853l.035 16.343H24.54l59.102 51.364v18.756H64.9v18.896h70.07V133.41l-18.284-.05v-19.53l58.964-50.531h14.323V46.956h-63.08" fill="#E51636"/></g></svg>